<?xml version="1.0" encoding="utf-8"?>
<svg xmlns="http://www.w3.org/2000/svg" xmlns:xlink="http://www.w3.org/1999/xlink" width="600" height="400" viewBox="0 0 2400 1600">
<defs>
  <clipPath id="clip460">
    <rect x="0" y="0" width="2400" height="1600"/>
  </clipPath>
</defs>
<path clip-path="url(#clip460)" d="M0 1600 L2400 1600 L2400 0 L0 0  Z" fill="#ffffff" fill-rule="evenodd" fill-opacity="1"/>
<defs>
  <clipPath id="clip461">
    <rect x="480" y="0" width="1681" height="1600"/>
  </clipPath>
</defs>
<path clip-path="url(#clip460)" d="M156.274 1486.45 L2352.76 1486.45 L2352.76 47.2441 L156.274 47.2441  Z" fill="#ffffff" fill-rule="evenodd" fill-opacity="1"/>
<defs>
  <clipPath id="clip462">
    <rect x="156" y="47" width="2197" height="1440"/>
  </clipPath>
</defs>
<polyline clip-path="url(#clip462)" style="stroke:#000000; stroke-linecap:round; stroke-linejoin:round; stroke-width:2; stroke-opacity:0.1; fill:none" points="218.439,1486.45 218.439,47.2441 "/>
<polyline clip-path="url(#clip462)" style="stroke:#000000; stroke-linecap:round; stroke-linejoin:round; stroke-width:2; stroke-opacity:0.1; fill:none" points="736.995,1486.45 736.995,47.2441 "/>
<polyline clip-path="url(#clip462)" style="stroke:#000000; stroke-linecap:round; stroke-linejoin:round; stroke-width:2; stroke-opacity:0.1; fill:none" points="1255.55,1486.45 1255.55,47.2441 "/>
<polyline clip-path="url(#clip462)" style="stroke:#000000; stroke-linecap:round; stroke-linejoin:round; stroke-width:2; stroke-opacity:0.1; fill:none" points="1774.11,1486.45 1774.11,47.2441 "/>
<polyline clip-path="url(#clip462)" style="stroke:#000000; stroke-linecap:round; stroke-linejoin:round; stroke-width:2; stroke-opacity:0.1; fill:none" points="2292.67,1486.45 2292.67,47.2441 "/>
<polyline clip-path="url(#clip460)" style="stroke:#000000; stroke-linecap:round; stroke-linejoin:round; stroke-width:4; stroke-opacity:1; fill:none" points="156.274,1486.45 2352.76,1486.45 "/>
<polyline clip-path="url(#clip460)" style="stroke:#000000; stroke-linecap:round; stroke-linejoin:round; stroke-width:4; stroke-opacity:1; fill:none" points="218.439,1486.45 218.439,1467.55 "/>
<polyline clip-path="url(#clip460)" style="stroke:#000000; stroke-linecap:round; stroke-linejoin:round; stroke-width:4; stroke-opacity:1; fill:none" points="736.995,1486.45 736.995,1467.55 "/>
<polyline clip-path="url(#clip460)" style="stroke:#000000; stroke-linecap:round; stroke-linejoin:round; stroke-width:4; stroke-opacity:1; fill:none" points="1255.55,1486.45 1255.55,1467.55 "/>
<polyline clip-path="url(#clip460)" style="stroke:#000000; stroke-linecap:round; stroke-linejoin:round; stroke-width:4; stroke-opacity:1; fill:none" points="1774.11,1486.45 1774.11,1467.55 "/>
<polyline clip-path="url(#clip460)" style="stroke:#000000; stroke-linecap:round; stroke-linejoin:round; stroke-width:4; stroke-opacity:1; fill:none" points="2292.67,1486.45 2292.67,1467.55 "/>
<path clip-path="url(#clip460)" d="M218.439 1517.37 Q214.828 1517.37 212.999 1520.93 Q211.193 1524.47 211.193 1531.6 Q211.193 1538.71 212.999 1542.27 Q214.828 1545.82 218.439 1545.82 Q222.073 1545.82 223.879 1542.27 Q225.707 1538.71 225.707 1531.6 Q225.707 1524.47 223.879 1520.93 Q222.073 1517.37 218.439 1517.37 M218.439 1513.66 Q224.249 1513.66 227.304 1518.27 Q230.383 1522.85 230.383 1531.6 Q230.383 1540.33 227.304 1544.94 Q224.249 1549.52 218.439 1549.52 Q212.629 1549.52 209.55 1544.94 Q206.494 1540.33 206.494 1531.6 Q206.494 1522.85 209.55 1518.27 Q212.629 1513.66 218.439 1513.66 Z" fill="#000000" fill-rule="nonzero" fill-opacity="1" /><path clip-path="url(#clip460)" d="M700.688 1544.91 L717.007 1544.91 L717.007 1548.85 L695.063 1548.85 L695.063 1544.91 Q697.725 1542.16 702.308 1537.53 Q706.915 1532.88 708.095 1531.53 Q710.34 1529.01 711.22 1527.27 Q712.123 1525.51 712.123 1523.82 Q712.123 1521.07 710.178 1519.33 Q708.257 1517.6 705.155 1517.6 Q702.956 1517.6 700.503 1518.36 Q698.072 1519.13 695.294 1520.68 L695.294 1515.95 Q698.118 1514.82 700.572 1514.24 Q703.026 1513.66 705.063 1513.66 Q710.433 1513.66 713.628 1516.35 Q716.822 1519.03 716.822 1523.52 Q716.822 1525.65 716.012 1527.57 Q715.225 1529.47 713.118 1532.07 Q712.54 1532.74 709.438 1535.95 Q706.336 1539.15 700.688 1544.91 Z" fill="#000000" fill-rule="nonzero" fill-opacity="1" /><path clip-path="url(#clip460)" d="M726.868 1514.29 L745.225 1514.29 L745.225 1518.22 L731.151 1518.22 L731.151 1526.7 Q732.169 1526.35 733.188 1526.19 Q734.206 1526 735.225 1526 Q741.012 1526 744.391 1529.17 Q747.771 1532.34 747.771 1537.76 Q747.771 1543.34 744.299 1546.44 Q740.826 1549.52 734.507 1549.52 Q732.331 1549.52 730.063 1549.15 Q727.817 1548.78 725.41 1548.04 L725.41 1543.34 Q727.493 1544.47 729.715 1545.03 Q731.938 1545.58 734.414 1545.58 Q738.419 1545.58 740.757 1543.48 Q743.095 1541.37 743.095 1537.76 Q743.095 1534.15 740.757 1532.04 Q738.419 1529.94 734.414 1529.94 Q732.539 1529.94 730.664 1530.35 Q728.813 1530.77 726.868 1531.65 L726.868 1514.29 Z" fill="#000000" fill-rule="nonzero" fill-opacity="1" /><path clip-path="url(#clip460)" d="M766.984 1517.37 Q763.373 1517.37 761.544 1520.93 Q759.738 1524.47 759.738 1531.6 Q759.738 1538.71 761.544 1542.27 Q763.373 1545.82 766.984 1545.82 Q770.618 1545.82 772.423 1542.27 Q774.252 1538.71 774.252 1531.6 Q774.252 1524.47 772.423 1520.93 Q770.618 1517.37 766.984 1517.37 M766.984 1513.66 Q772.794 1513.66 775.849 1518.27 Q778.928 1522.85 778.928 1531.6 Q778.928 1540.33 775.849 1544.94 Q772.794 1549.52 766.984 1549.52 Q761.174 1549.52 758.095 1544.94 Q755.039 1540.33 755.039 1531.6 Q755.039 1522.85 758.095 1518.27 Q761.174 1513.66 766.984 1513.66 Z" fill="#000000" fill-rule="nonzero" fill-opacity="1" /><path clip-path="url(#clip460)" d="M1215.17 1514.29 L1233.53 1514.29 L1233.53 1518.22 L1219.45 1518.22 L1219.45 1526.7 Q1220.47 1526.35 1221.49 1526.19 Q1222.51 1526 1223.53 1526 Q1229.31 1526 1232.69 1529.17 Q1236.07 1532.34 1236.07 1537.76 Q1236.07 1543.34 1232.6 1546.44 Q1229.13 1549.52 1222.81 1549.52 Q1220.63 1549.52 1218.36 1549.15 Q1216.12 1548.78 1213.71 1548.04 L1213.71 1543.34 Q1215.8 1544.47 1218.02 1545.03 Q1220.24 1545.58 1222.72 1545.58 Q1226.72 1545.58 1229.06 1543.48 Q1231.4 1541.37 1231.4 1537.76 Q1231.4 1534.15 1229.06 1532.04 Q1226.72 1529.94 1222.72 1529.94 Q1220.84 1529.94 1218.97 1530.35 Q1217.11 1530.77 1215.17 1531.65 L1215.17 1514.29 Z" fill="#000000" fill-rule="nonzero" fill-opacity="1" /><path clip-path="url(#clip460)" d="M1255.29 1517.37 Q1251.67 1517.37 1249.85 1520.93 Q1248.04 1524.47 1248.04 1531.6 Q1248.04 1538.71 1249.85 1542.27 Q1251.67 1545.82 1255.29 1545.82 Q1258.92 1545.82 1260.73 1542.27 Q1262.55 1538.71 1262.55 1531.6 Q1262.55 1524.47 1260.73 1520.93 Q1258.92 1517.37 1255.29 1517.37 M1255.29 1513.66 Q1261.1 1513.66 1264.15 1518.27 Q1267.23 1522.85 1267.23 1531.6 Q1267.23 1540.33 1264.15 1544.94 Q1261.1 1549.52 1255.29 1549.52 Q1249.48 1549.52 1246.4 1544.94 Q1243.34 1540.33 1243.34 1531.6 Q1243.34 1522.85 1246.4 1518.27 Q1249.48 1513.66 1255.29 1513.66 Z" fill="#000000" fill-rule="nonzero" fill-opacity="1" /><path clip-path="url(#clip460)" d="M1285.45 1517.37 Q1281.84 1517.37 1280.01 1520.93 Q1278.2 1524.47 1278.2 1531.6 Q1278.2 1538.71 1280.01 1542.27 Q1281.84 1545.82 1285.45 1545.82 Q1289.08 1545.82 1290.89 1542.27 Q1292.72 1538.71 1292.72 1531.6 Q1292.72 1524.47 1290.89 1520.93 Q1289.08 1517.37 1285.45 1517.37 M1285.45 1513.66 Q1291.26 1513.66 1294.31 1518.27 Q1297.39 1522.85 1297.39 1531.6 Q1297.39 1540.33 1294.31 1544.94 Q1291.26 1549.52 1285.45 1549.52 Q1279.64 1549.52 1276.56 1544.94 Q1273.5 1540.33 1273.5 1531.6 Q1273.5 1522.85 1276.56 1518.27 Q1279.64 1513.66 1285.45 1513.66 Z" fill="#000000" fill-rule="nonzero" fill-opacity="1" /><path clip-path="url(#clip460)" d="M1732.38 1514.29 L1754.61 1514.29 L1754.61 1516.28 L1742.06 1548.85 L1737.18 1548.85 L1748.98 1518.22 L1732.38 1518.22 L1732.38 1514.29 Z" fill="#000000" fill-rule="nonzero" fill-opacity="1" /><path clip-path="url(#clip460)" d="M1763.77 1514.29 L1782.13 1514.29 L1782.13 1518.22 L1768.06 1518.22 L1768.06 1526.7 Q1769.07 1526.35 1770.09 1526.19 Q1771.11 1526 1772.13 1526 Q1777.92 1526 1781.3 1529.17 Q1784.68 1532.34 1784.68 1537.76 Q1784.68 1543.34 1781.2 1546.44 Q1777.73 1549.52 1771.41 1549.52 Q1769.24 1549.52 1766.97 1549.15 Q1764.72 1548.78 1762.31 1548.04 L1762.31 1543.34 Q1764.4 1544.47 1766.62 1545.03 Q1768.84 1545.58 1771.32 1545.58 Q1775.32 1545.58 1777.66 1543.48 Q1780 1541.37 1780 1537.76 Q1780 1534.15 1777.66 1532.04 Q1775.32 1529.94 1771.32 1529.94 Q1769.44 1529.94 1767.57 1530.35 Q1765.72 1530.77 1763.77 1531.65 L1763.77 1514.29 Z" fill="#000000" fill-rule="nonzero" fill-opacity="1" /><path clip-path="url(#clip460)" d="M1803.89 1517.37 Q1800.28 1517.37 1798.45 1520.93 Q1796.64 1524.47 1796.64 1531.6 Q1796.64 1538.71 1798.45 1542.27 Q1800.28 1545.82 1803.89 1545.82 Q1807.52 1545.82 1809.33 1542.27 Q1811.16 1538.71 1811.16 1531.6 Q1811.16 1524.47 1809.33 1520.93 Q1807.52 1517.37 1803.89 1517.37 M1803.89 1513.66 Q1809.7 1513.66 1812.75 1518.27 Q1815.83 1522.85 1815.83 1531.6 Q1815.83 1540.33 1812.75 1544.94 Q1809.7 1549.52 1803.89 1549.52 Q1798.08 1549.52 1795 1544.94 Q1791.94 1540.33 1791.94 1531.6 Q1791.94 1522.85 1795 1518.27 Q1798.08 1513.66 1803.89 1513.66 Z" fill="#000000" fill-rule="nonzero" fill-opacity="1" /><path clip-path="url(#clip460)" d="M2237.19 1544.91 L2244.83 1544.91 L2244.83 1518.55 L2236.52 1520.21 L2236.52 1515.95 L2244.78 1514.29 L2249.46 1514.29 L2249.46 1544.91 L2257.1 1544.91 L2257.1 1548.85 L2237.19 1548.85 L2237.19 1544.91 Z" fill="#000000" fill-rule="nonzero" fill-opacity="1" /><path clip-path="url(#clip460)" d="M2276.54 1517.37 Q2272.93 1517.37 2271.1 1520.93 Q2269.3 1524.47 2269.3 1531.6 Q2269.3 1538.71 2271.1 1542.27 Q2272.93 1545.82 2276.54 1545.82 Q2280.18 1545.82 2281.98 1542.27 Q2283.81 1538.71 2283.81 1531.6 Q2283.81 1524.47 2281.98 1520.93 Q2280.18 1517.37 2276.54 1517.37 M2276.54 1513.66 Q2282.35 1513.66 2285.41 1518.27 Q2288.49 1522.85 2288.49 1531.6 Q2288.49 1540.33 2285.41 1544.94 Q2282.35 1549.52 2276.54 1549.52 Q2270.73 1549.52 2267.65 1544.94 Q2264.6 1540.33 2264.6 1531.6 Q2264.6 1522.85 2267.65 1518.27 Q2270.73 1513.66 2276.54 1513.66 Z" fill="#000000" fill-rule="nonzero" fill-opacity="1" /><path clip-path="url(#clip460)" d="M2306.7 1517.37 Q2303.09 1517.37 2301.27 1520.93 Q2299.46 1524.47 2299.46 1531.6 Q2299.46 1538.71 2301.27 1542.27 Q2303.09 1545.82 2306.7 1545.82 Q2310.34 1545.82 2312.14 1542.27 Q2313.97 1538.71 2313.97 1531.6 Q2313.97 1524.47 2312.14 1520.93 Q2310.34 1517.37 2306.7 1517.37 M2306.7 1513.66 Q2312.51 1513.66 2315.57 1518.27 Q2318.65 1522.85 2318.65 1531.6 Q2318.65 1540.33 2315.57 1544.94 Q2312.51 1549.52 2306.7 1549.52 Q2300.89 1549.52 2297.82 1544.94 Q2294.76 1540.33 2294.76 1531.6 Q2294.76 1522.85 2297.82 1518.27 Q2300.89 1513.66 2306.7 1513.66 Z" fill="#000000" fill-rule="nonzero" fill-opacity="1" /><path clip-path="url(#clip460)" d="M2336.87 1517.37 Q2333.26 1517.37 2331.43 1520.93 Q2329.62 1524.47 2329.62 1531.6 Q2329.62 1538.71 2331.43 1542.27 Q2333.26 1545.82 2336.87 1545.82 Q2340.5 1545.82 2342.31 1542.27 Q2344.14 1538.71 2344.14 1531.6 Q2344.14 1524.47 2342.31 1520.93 Q2340.5 1517.37 2336.87 1517.37 M2336.87 1513.66 Q2342.68 1513.66 2345.73 1518.27 Q2348.81 1522.85 2348.81 1531.6 Q2348.81 1540.33 2345.73 1544.94 Q2342.68 1549.52 2336.87 1549.52 Q2331.06 1549.52 2327.98 1544.94 Q2324.92 1540.33 2324.92 1531.6 Q2324.92 1522.85 2327.98 1518.27 Q2331.06 1513.66 2336.87 1513.66 Z" fill="#000000" fill-rule="nonzero" fill-opacity="1" /><polyline clip-path="url(#clip462)" style="stroke:#000000; stroke-linecap:round; stroke-linejoin:round; stroke-width:2; stroke-opacity:0.1; fill:none" points="156.274,1219.43 2352.76,1219.43 "/>
<polyline clip-path="url(#clip462)" style="stroke:#000000; stroke-linecap:round; stroke-linejoin:round; stroke-width:2; stroke-opacity:0.1; fill:none" points="156.274,936.563 2352.76,936.563 "/>
<polyline clip-path="url(#clip462)" style="stroke:#000000; stroke-linecap:round; stroke-linejoin:round; stroke-width:2; stroke-opacity:0.1; fill:none" points="156.274,653.701 2352.76,653.701 "/>
<polyline clip-path="url(#clip462)" style="stroke:#000000; stroke-linecap:round; stroke-linejoin:round; stroke-width:2; stroke-opacity:0.1; fill:none" points="156.274,370.839 2352.76,370.839 "/>
<polyline clip-path="url(#clip462)" style="stroke:#000000; stroke-linecap:round; stroke-linejoin:round; stroke-width:2; stroke-opacity:0.1; fill:none" points="156.274,87.9763 2352.76,87.9763 "/>
<polyline clip-path="url(#clip460)" style="stroke:#000000; stroke-linecap:round; stroke-linejoin:round; stroke-width:4; stroke-opacity:1; fill:none" points="156.274,1486.45 156.274,47.2441 "/>
<polyline clip-path="url(#clip460)" style="stroke:#000000; stroke-linecap:round; stroke-linejoin:round; stroke-width:4; stroke-opacity:1; fill:none" points="156.274,1219.43 175.172,1219.43 "/>
<polyline clip-path="url(#clip460)" style="stroke:#000000; stroke-linecap:round; stroke-linejoin:round; stroke-width:4; stroke-opacity:1; fill:none" points="156.274,936.563 175.172,936.563 "/>
<polyline clip-path="url(#clip460)" style="stroke:#000000; stroke-linecap:round; stroke-linejoin:round; stroke-width:4; stroke-opacity:1; fill:none" points="156.274,653.701 175.172,653.701 "/>
<polyline clip-path="url(#clip460)" style="stroke:#000000; stroke-linecap:round; stroke-linejoin:round; stroke-width:4; stroke-opacity:1; fill:none" points="156.274,370.839 175.172,370.839 "/>
<polyline clip-path="url(#clip460)" style="stroke:#000000; stroke-linecap:round; stroke-linejoin:round; stroke-width:4; stroke-opacity:1; fill:none" points="156.274,87.9763 175.172,87.9763 "/>
<path clip-path="url(#clip460)" d="M62.9365 1205.22 Q59.3254 1205.22 57.4967 1208.79 Q55.6912 1212.33 55.6912 1219.46 Q55.6912 1226.57 57.4967 1230.13 Q59.3254 1233.67 62.9365 1233.67 Q66.5707 1233.67 68.3763 1230.13 Q70.205 1226.57 70.205 1219.46 Q70.205 1212.33 68.3763 1208.79 Q66.5707 1205.22 62.9365 1205.22 M62.9365 1201.52 Q68.7467 1201.52 71.8022 1206.13 Q74.8809 1210.71 74.8809 1219.46 Q74.8809 1228.19 71.8022 1232.79 Q68.7467 1237.38 62.9365 1237.38 Q57.1264 1237.38 54.0477 1232.79 Q50.9921 1228.19 50.9921 1219.46 Q50.9921 1210.71 54.0477 1206.13 Q57.1264 1201.52 62.9365 1201.52 Z" fill="#000000" fill-rule="nonzero" fill-opacity="1" /><path clip-path="url(#clip460)" d="M83.0984 1230.83 L87.9827 1230.83 L87.9827 1236.71 L83.0984 1236.71 L83.0984 1230.83 Z" fill="#000000" fill-rule="nonzero" fill-opacity="1" /><path clip-path="url(#clip460)" d="M108.746 1217.56 Q105.598 1217.56 103.746 1219.72 Q101.918 1221.87 101.918 1225.62 Q101.918 1229.34 103.746 1231.52 Q105.598 1233.67 108.746 1233.67 Q111.895 1233.67 113.723 1231.52 Q115.575 1229.34 115.575 1225.62 Q115.575 1221.87 113.723 1219.72 Q111.895 1217.56 108.746 1217.56 M118.029 1202.91 L118.029 1207.17 Q116.27 1206.34 114.464 1205.9 Q112.682 1205.46 110.922 1205.46 Q106.293 1205.46 103.839 1208.58 Q101.409 1211.71 101.061 1218.03 Q102.427 1216.01 104.487 1214.95 Q106.547 1213.86 109.024 1213.86 Q114.233 1213.86 117.242 1217.03 Q120.274 1220.18 120.274 1225.62 Q120.274 1230.94 117.126 1234.16 Q113.978 1237.38 108.746 1237.38 Q102.751 1237.38 99.5798 1232.79 Q96.4085 1228.19 96.4085 1219.46 Q96.4085 1211.27 100.297 1206.41 Q104.186 1201.52 110.737 1201.52 Q112.496 1201.52 114.279 1201.87 Q116.084 1202.22 118.029 1202.91 Z" fill="#000000" fill-rule="nonzero" fill-opacity="1" /><path clip-path="url(#clip460)" d="M64.0013 922.362 Q60.3902 922.362 58.5615 925.927 Q56.756 929.469 56.756 936.598 Q56.756 943.705 58.5615 947.269 Q60.3902 950.811 64.0013 950.811 Q67.6356 950.811 69.4411 947.269 Q71.2698 943.705 71.2698 936.598 Q71.2698 929.469 69.4411 925.927 Q67.6356 922.362 64.0013 922.362 M64.0013 918.658 Q69.8115 918.658 72.867 923.265 Q75.9457 927.848 75.9457 936.598 Q75.9457 945.325 72.867 949.931 Q69.8115 954.515 64.0013 954.515 Q58.1912 954.515 55.1125 949.931 Q52.0569 945.325 52.0569 936.598 Q52.0569 927.848 55.1125 923.265 Q58.1912 918.658 64.0013 918.658 Z" fill="#000000" fill-rule="nonzero" fill-opacity="1" /><path clip-path="url(#clip460)" d="M84.1632 947.964 L89.0475 947.964 L89.0475 953.843 L84.1632 953.843 L84.1632 947.964 Z" fill="#000000" fill-rule="nonzero" fill-opacity="1" /><path clip-path="url(#clip460)" d="M98.0521 919.283 L120.274 919.283 L120.274 921.274 L107.728 953.843 L102.844 953.843 L114.649 923.219 L98.0521 923.219 L98.0521 919.283 Z" fill="#000000" fill-rule="nonzero" fill-opacity="1" /><path clip-path="url(#clip460)" d="M63.1911 639.5 Q59.58 639.5 57.7513 643.065 Q55.9458 646.606 55.9458 653.736 Q55.9458 660.842 57.7513 664.407 Q59.58 667.949 63.1911 667.949 Q66.8254 667.949 68.6309 664.407 Q70.4596 660.842 70.4596 653.736 Q70.4596 646.606 68.6309 643.065 Q66.8254 639.5 63.1911 639.5 M63.1911 635.796 Q69.0013 635.796 72.0568 640.402 Q75.1355 644.986 75.1355 653.736 Q75.1355 662.463 72.0568 667.069 Q69.0013 671.652 63.1911 671.652 Q57.381 671.652 54.3023 667.069 Q51.2468 662.463 51.2468 653.736 Q51.2468 644.986 54.3023 640.402 Q57.381 635.796 63.1911 635.796 Z" fill="#000000" fill-rule="nonzero" fill-opacity="1" /><path clip-path="url(#clip460)" d="M83.3531 665.101 L88.2373 665.101 L88.2373 670.981 L83.3531 670.981 L83.3531 665.101 Z" fill="#000000" fill-rule="nonzero" fill-opacity="1" /><path clip-path="url(#clip460)" d="M108.422 654.569 Q105.089 654.569 103.168 656.351 Q101.27 658.134 101.27 661.259 Q101.27 664.384 103.168 666.166 Q105.089 667.949 108.422 667.949 Q111.756 667.949 113.677 666.166 Q115.598 664.361 115.598 661.259 Q115.598 658.134 113.677 656.351 Q111.779 654.569 108.422 654.569 M103.746 652.578 Q100.737 651.838 99.0474 649.777 Q97.3808 647.717 97.3808 644.754 Q97.3808 640.611 100.321 638.203 Q103.284 635.796 108.422 635.796 Q113.584 635.796 116.524 638.203 Q119.464 640.611 119.464 644.754 Q119.464 647.717 117.774 649.777 Q116.108 651.838 113.121 652.578 Q116.501 653.365 118.376 655.657 Q120.274 657.949 120.274 661.259 Q120.274 666.282 117.195 668.967 Q114.14 671.652 108.422 671.652 Q102.705 671.652 99.6261 668.967 Q96.5706 666.282 96.5706 661.259 Q96.5706 657.949 98.4687 655.657 Q100.367 653.365 103.746 652.578 M102.034 645.194 Q102.034 647.879 103.7 649.384 Q105.39 650.889 108.422 650.889 Q111.432 650.889 113.121 649.384 Q114.834 647.879 114.834 645.194 Q114.834 642.509 113.121 641.004 Q111.432 639.5 108.422 639.5 Q105.39 639.5 103.7 641.004 Q102.034 642.509 102.034 645.194 Z" fill="#000000" fill-rule="nonzero" fill-opacity="1" /><path clip-path="url(#clip460)" d="M63.2837 356.637 Q59.6726 356.637 57.8439 360.202 Q56.0384 363.744 56.0384 370.873 Q56.0384 377.98 57.8439 381.545 Q59.6726 385.086 63.2837 385.086 Q66.918 385.086 68.7235 381.545 Q70.5522 377.98 70.5522 370.873 Q70.5522 363.744 68.7235 360.202 Q66.918 356.637 63.2837 356.637 M63.2837 352.934 Q69.0939 352.934 72.1494 357.54 Q75.2281 362.123 75.2281 370.873 Q75.2281 379.6 72.1494 384.207 Q69.0939 388.79 63.2837 388.79 Q57.4736 388.79 54.3949 384.207 Q51.3393 379.6 51.3393 370.873 Q51.3393 362.123 54.3949 357.54 Q57.4736 352.934 63.2837 352.934 Z" fill="#000000" fill-rule="nonzero" fill-opacity="1" /><path clip-path="url(#clip460)" d="M83.4457 382.239 L88.3299 382.239 L88.3299 388.119 L83.4457 388.119 L83.4457 382.239 Z" fill="#000000" fill-rule="nonzero" fill-opacity="1" /><path clip-path="url(#clip460)" d="M98.6539 387.401 L98.6539 383.142 Q100.413 383.975 102.219 384.415 Q104.024 384.855 105.76 384.855 Q110.39 384.855 112.82 381.753 Q115.274 378.628 115.621 372.285 Q114.279 374.276 112.219 375.341 Q110.158 376.406 107.658 376.406 Q102.473 376.406 99.4409 373.281 Q96.4317 370.133 96.4317 364.693 Q96.4317 359.369 99.5798 356.151 Q102.728 352.934 107.959 352.934 Q113.955 352.934 117.103 357.54 Q120.274 362.123 120.274 370.873 Q120.274 379.045 116.385 383.929 Q112.52 388.79 105.969 388.79 Q104.209 388.79 102.404 388.443 Q100.598 388.096 98.6539 387.401 M107.959 372.748 Q111.108 372.748 112.936 370.596 Q114.788 368.443 114.788 364.693 Q114.788 360.966 112.936 358.813 Q111.108 356.637 107.959 356.637 Q104.811 356.637 102.959 358.813 Q101.131 360.966 101.131 364.693 Q101.131 368.443 102.959 370.596 Q104.811 372.748 107.959 372.748 Z" fill="#000000" fill-rule="nonzero" fill-opacity="1" /><path clip-path="url(#clip460)" d="M53.9088 101.321 L61.5476 101.321 L61.5476 74.9555 L53.2375 76.6222 L53.2375 72.3629 L61.5013 70.6963 L66.1772 70.6963 L66.1772 101.321 L73.8161 101.321 L73.8161 105.256 L53.9088 105.256 L53.9088 101.321 Z" fill="#000000" fill-rule="nonzero" fill-opacity="1" /><path clip-path="url(#clip460)" d="M83.2605 99.3767 L88.1447 99.3767 L88.1447 105.256 L83.2605 105.256 L83.2605 99.3767 Z" fill="#000000" fill-rule="nonzero" fill-opacity="1" /><path clip-path="url(#clip460)" d="M108.33 73.775 Q104.719 73.775 102.89 77.3398 Q101.084 80.8814 101.084 88.011 Q101.084 95.1174 102.89 98.6822 Q104.719 102.224 108.33 102.224 Q111.964 102.224 113.77 98.6822 Q115.598 95.1174 115.598 88.011 Q115.598 80.8814 113.77 77.3398 Q111.964 73.775 108.33 73.775 M108.33 70.0713 Q114.14 70.0713 117.195 74.6777 Q120.274 79.261 120.274 88.011 Q120.274 96.7378 117.195 101.344 Q114.14 105.928 108.33 105.928 Q102.52 105.928 99.4409 101.344 Q96.3854 96.7378 96.3854 88.011 Q96.3854 79.261 99.4409 74.6777 Q102.52 70.0713 108.33 70.0713 Z" fill="#000000" fill-rule="nonzero" fill-opacity="1" /><polyline clip-path="url(#clip462)" style="stroke:#009af9; stroke-linecap:round; stroke-linejoin:round; stroke-width:4; stroke-opacity:1; fill:none" points="218.439,1049.71 220.513,936.563 222.587,1389.14 224.661,1332.57 226.736,1106.28 228.81,1219.43 230.884,879.991 232.958,823.418 235.033,1219.43 237.107,1219.43 239.181,823.418 241.255,766.846 243.329,936.563 245.404,1445.72 247.478,1106.28 249.552,823.418 251.626,1106.28 253.701,879.991 255.775,1162.85 257.849,1049.71 259.923,1106.28 261.998,1219.43 264.072,1162.85 266.146,993.136 268.22,1106.28 270.294,1332.57 272.369,993.136 274.443,936.563 276.517,1106.28 278.591,823.418 280.666,1332.57 282.74,993.136 284.814,993.136 286.888,993.136 288.962,879.991 291.037,823.418 293.111,1276 295.185,1106.28 297.259,1276 299.334,1049.71 301.408,1106.28 303.482,1106.28 305.556,993.136 307.63,1106.28 309.705,1049.71 311.779,1049.71 313.853,993.136 315.927,1049.71 318.002,1162.85 320.076,1445.72 322.15,936.563 324.224,879.991 326.299,993.136 328.373,710.274 330.447,936.563 332.521,1162.85 334.595,823.418 336.67,823.418 338.744,993.136 340.818,710.274 342.892,1219.43 344.967,823.418 347.041,993.136 349.115,879.991 351.189,1106.28 353.263,879.991 355.338,766.846 357.412,993.136 359.486,823.418 361.56,1162.85 363.635,1162.85 365.709,1049.71 367.783,823.418 369.857,993.136 371.932,1162.85 374.006,710.274 376.08,1389.14 378.154,936.563 380.228,1332.57 382.303,936.563 384.377,766.846 386.451,653.701 388.525,823.418 390.6,823.418 392.674,823.418 394.748,936.563 396.822,823.418 398.896,710.274 400.971,879.991 403.045,653.701 405.119,936.563 407.193,653.701 409.268,710.274 411.342,653.701 413.416,766.846 415.49,993.136 417.565,766.846 419.639,653.701 421.713,1049.71 423.787,1049.71 425.861,1049.71 427.936,879.991 430.01,936.563 432.084,879.991 434.158,879.991 436.233,597.129 438.307,710.274 440.381,710.274 442.455,653.701 444.529,823.418 446.604,483.984 448.678,540.556 450.752,823.418 452.826,540.556 454.901,823.418 456.975,1049.71 459.049,710.274 461.123,823.418 463.198,993.136 465.272,993.136 467.346,597.129 469.42,823.418 471.494,766.846 473.569,879.991 475.643,540.556 477.717,879.991 479.791,483.984 481.866,879.991 483.94,936.563 486.014,823.418 488.088,540.556 490.162,766.846 492.237,823.418 494.311,823.418 496.385,1049.71 498.459,710.274 500.534,879.991 502.608,653.701 504.682,1106.28 506.756,540.556 508.83,766.846 510.905,710.274 512.979,766.846 515.053,823.418 517.127,766.846 519.202,879.991 521.276,766.846 523.35,823.418 525.424,540.556 527.499,766.846 529.573,936.563 531.647,766.846 533.721,823.418 535.795,710.274 537.87,710.274 539.944,427.411 542.018,936.563 544.092,540.556 546.167,993.136 548.241,766.846 550.315,1219.43 552.389,427.411 554.463,710.274 556.538,823.418 558.612,936.563 560.686,653.701 562.76,879.991 564.835,993.136 566.909,597.129 568.983,483.984 571.057,710.274 573.132,1049.71 575.206,653.701 577.28,823.418 579.354,597.129 581.428,540.556 583.503,710.274 585.577,597.129 587.651,766.846 589.725,710.274 591.8,653.701 593.874,823.418 595.948,597.129 598.022,540.556 600.096,653.701 602.171,597.129 604.245,653.701 606.319,483.984 608.393,427.411 610.468,597.129 612.542,766.846 614.616,653.701 616.69,653.701 618.765,766.846 620.839,653.701 622.913,653.701 624.987,710.274 627.061,936.563 629.136,427.411 631.21,823.418 633.284,540.556 635.358,936.563 637.433,710.274 639.507,710.274 641.581,766.846 643.655,823.418 645.729,710.274 647.804,766.846 649.878,766.846 651.952,540.556 654.026,766.846 656.101,597.129 658.175,597.129 660.249,823.418 662.323,370.839 664.398,483.984 666.472,483.984 668.546,314.266 670.62,314.266 672.694,766.846 674.769,710.274 676.843,710.274 678.917,823.418 680.991,483.984 683.066,427.411 685.14,483.984 687.214,540.556 689.288,653.701 691.362,427.411 693.437,653.701 695.511,597.129 697.585,597.129 699.659,710.274 701.734,540.556 703.808,370.839 705.882,710.274 707.956,540.556 710.03,710.274 712.105,710.274 714.179,427.411 716.253,766.846 718.327,597.129 720.402,427.411 722.476,314.266 724.55,710.274 726.624,427.411 728.699,483.984 730.773,879.991 732.847,483.984 734.921,427.411 736.995,540.556 739.07,483.984 741.144,710.274 743.218,879.991 745.292,597.129 747.367,597.129 749.441,653.701 751.515,540.556 753.589,597.129 755.663,257.694 757.738,597.129 759.812,936.563 761.886,540.556 763.96,370.839 766.035,540.556 768.109,483.984 770.183,483.984 772.257,314.266 774.332,314.266 776.406,653.701 778.48,427.411 780.554,370.839 782.628,540.556 784.703,427.411 786.777,653.701 788.851,483.984 790.925,540.556 793,427.411 795.074,597.129 797.148,540.556 799.222,766.846 801.296,653.701 803.371,370.839 805.445,483.984 807.519,314.266 809.593,597.129 811.668,427.411 813.742,427.411 815.816,597.129 817.89,653.701 819.965,427.411 822.039,653.701 824.113,483.984 826.187,201.121 828.261,710.274 830.336,314.266 832.41,653.701 834.484,766.846 836.558,483.984 838.633,540.556 840.707,936.563 842.781,653.701 844.855,314.266 846.929,597.129 849.004,427.411 851.078,653.701 853.152,370.839 855.226,597.129 857.301,540.556 859.375,710.274 861.449,710.274 863.523,540.556 865.598,427.411 867.672,597.129 869.746,766.846 871.82,710.274 873.894,710.274 875.969,540.556 878.043,710.274 880.117,201.121 882.191,879.991 884.266,314.266 886.34,483.984 888.414,427.411 890.488,483.984 892.562,257.694 894.637,483.984 896.711,370.839 898.785,823.418 900.859,597.129 902.934,483.984 905.008,257.694 907.082,483.984 909.156,370.839 911.23,710.274 913.305,427.411 915.379,540.556 917.453,597.129 919.527,427.411 921.602,427.411 923.676,597.129 925.75,314.266 927.824,144.549 929.899,597.129 931.973,597.129 934.047,597.129 936.121,370.839 938.195,370.839 940.27,427.411 942.344,483.984 944.418,427.411 946.492,653.701 948.567,653.701 950.641,314.266 952.715,540.556 954.789,370.839 956.863,370.839 958.938,540.556 961.012,201.121 963.086,483.984 965.16,483.984 967.235,483.984 969.309,653.701 971.383,427.411 973.457,427.411 975.532,540.556 977.606,314.266 979.68,370.839 981.754,427.411 983.828,766.846 985.903,427.411 987.977,314.266 990.051,540.556 992.125,314.266 994.2,370.839 996.274,540.556 998.348,427.411 1000.42,710.274 1002.5,483.984 1004.57,370.839 1006.64,314.266 1008.72,427.411 1010.79,370.839 1012.87,427.411 1014.94,653.701 1017.02,483.984 1019.09,483.984 1021.16,427.411 1023.24,370.839 1025.31,483.984 1027.39,540.556 1029.46,653.701 1031.54,427.411 1033.61,483.984 1035.68,597.129 1037.76,710.274 1039.83,370.839 1041.91,540.556 1043.98,597.129 1046.06,427.411 1048.13,257.694 1050.2,540.556 1052.28,483.984 1054.35,540.556 1056.43,370.839 1058.5,483.984 1060.57,597.129 1062.65,257.694 1064.72,370.839 1066.8,427.411 1068.87,936.563 1070.95,257.694 1073.02,314.266 1075.09,483.984 1077.17,370.839 1079.24,427.411 1081.32,427.411 1083.39,483.984 1085.47,257.694 1087.54,257.694 1089.61,370.839 1091.69,483.984 1093.76,483.984 1095.84,314.266 1097.91,370.839 1099.99,257.694 1102.06,314.266 1104.13,427.411 1106.21,370.839 1108.28,597.129 1110.36,427.411 1112.43,483.984 1114.5,257.694 1116.58,483.984 1118.65,653.701 1120.73,370.839 1122.8,370.839 1124.88,427.411 1126.95,653.701 1129.02,257.694 1131.1,427.411 1133.17,483.984 1135.25,483.984 1137.32,653.701 1139.4,314.266 1141.47,653.701 1143.54,483.984 1145.62,370.839 1147.69,257.694 1149.77,427.411 1151.84,540.556 1153.92,257.694 1155.99,370.839 1158.06,314.266 1160.14,314.266 1162.21,201.121 1164.29,257.694 1166.36,314.266 1168.43,257.694 1170.51,427.411 1172.58,314.266 1174.66,314.266 1176.73,370.839 1178.81,427.411 1180.88,370.839 1182.95,427.411 1185.03,483.984 1187.1,427.411 1189.18,257.694 1191.25,370.839 1193.33,427.411 1195.4,653.701 1197.47,201.121 1199.55,427.411 1201.62,427.411 1203.7,314.266 1205.77,483.984 1207.84,314.266 1209.92,483.984 1211.99,201.121 1214.07,314.266 1216.14,483.984 1218.22,257.694 1220.29,483.984 1222.36,597.129 1224.44,201.121 1226.51,370.839 1228.59,314.266 1230.66,540.556 1232.74,257.694 1234.81,427.411 1236.88,257.694 1238.96,483.984 1241.03,540.556 1243.11,540.556 1245.18,257.694 1247.26,370.839 1249.33,257.694 1251.4,540.556 1253.48,257.694 1255.55,427.411 1257.63,314.266 1259.7,597.129 1261.77,201.121 1263.85,483.984 1265.92,144.549 1268,257.694 1270.07,257.694 1272.15,427.411 1274.22,370.839 1276.29,257.694 1278.37,427.411 1280.44,257.694 1282.52,201.121 1284.59,257.694 1286.67,540.556 1288.74,370.839 1290.81,314.266 1292.89,201.121 1294.96,427.411 1297.04,597.129 1299.11,257.694 1301.19,201.121 1303.26,257.694 1305.33,257.694 1307.41,314.266 1309.48,314.266 1311.56,314.266 1313.63,483.984 1315.7,483.984 1317.78,370.839 1319.85,257.694 1321.93,370.839 1324,201.121 1326.08,370.839 1328.15,427.411 1330.22,427.411 1332.3,483.984 1334.37,314.266 1336.45,427.411 1338.52,427.411 1340.6,314.266 1342.67,201.121 1344.74,427.411 1346.82,257.694 1348.89,370.839 1350.97,314.266 1353.04,483.984 1355.12,201.121 1357.19,427.411 1359.26,314.266 1361.34,370.839 1363.41,370.839 1365.49,201.121 1367.56,314.266 1369.63,427.411 1371.71,314.266 1373.78,314.266 1375.86,257.694 1377.93,370.839 1380.01,201.121 1382.08,427.411 1384.15,540.556 1386.23,370.839 1388.3,427.411 1390.38,370.839 1392.45,427.411 1394.53,201.121 1396.6,144.549 1398.67,427.411 1400.75,201.121 1402.82,87.9763 1404.9,427.411 1406.97,314.266 1409.04,314.266 1411.12,483.984 1413.19,314.266 1415.27,201.121 1417.34,427.411 1419.42,201.121 1421.49,540.556 1423.56,314.266 1425.64,87.9763 1427.71,201.121 1429.79,370.839 1431.86,314.266 1433.94,257.694 1436.01,257.694 1438.08,314.266 1440.16,201.121 1442.23,314.266 1444.31,370.839 1446.38,370.839 1448.46,314.266 1450.53,314.266 1452.6,201.121 1454.68,257.694 1456.75,540.556 1458.83,314.266 1460.9,201.121 1462.97,257.694 1465.05,201.121 1467.12,427.411 1469.2,87.9763 1471.27,370.839 1473.35,257.694 1475.42,314.266 1477.49,370.839 1479.57,201.121 1481.64,314.266 1483.72,257.694 1485.79,483.984 1487.87,540.556 1489.94,427.411 1492.01,314.266 1494.09,483.984 1496.16,201.121 1498.24,314.266 1500.31,370.839 1502.39,370.839 1504.46,370.839 1506.53,314.266 1508.61,257.694 1510.68,314.266 1512.76,87.9763 1514.83,314.266 1516.9,201.121 1518.98,144.549 1521.05,427.411 1523.13,370.839 1525.2,427.411 1527.28,314.266 1529.35,257.694 1531.42,314.266 1533.5,257.694 1535.57,257.694 1537.65,144.549 1539.72,427.411 1541.8,257.694 1543.87,257.694 1545.94,314.266 1548.02,314.266 1550.09,427.411 1552.17,427.411 1554.24,370.839 1556.32,257.694 1558.39,257.694 1560.46,483.984 1562.54,201.121 1564.61,201.121 1566.69,257.694 1568.76,314.266 1570.83,257.694 1572.91,144.549 1574.98,257.694 1577.06,483.984 1579.13,201.121 1581.21,144.549 1583.28,314.266 1585.35,427.411 1587.43,201.121 1589.5,144.549 1591.58,201.121 1593.65,483.984 1595.73,87.9763 1597.8,201.121 1599.87,370.839 1601.95,370.839 1604.02,427.411 1606.1,257.694 1608.17,314.266 1610.24,257.694 1612.32,144.549 1614.39,144.549 1616.47,314.266 1618.54,201.121 1620.62,201.121 1622.69,201.121 1624.76,257.694 1626.84,314.266 1628.91,201.121 1630.99,370.839 1633.06,370.839 1635.14,483.984 1637.21,257.694 1639.28,257.694 1641.36,201.121 1643.43,201.121 1645.51,314.266 1647.58,257.694 1649.66,201.121 1651.73,201.121 1653.8,201.121 1655.88,144.549 1657.95,201.121 1660.03,314.266 1662.1,370.839 1664.17,257.694 1666.25,314.266 1668.32,370.839 1670.4,201.121 1672.47,314.266 1674.55,201.121 1676.62,257.694 1678.69,144.549 1680.77,257.694 1682.84,370.839 1684.92,201.121 1686.99,144.549 1689.07,370.839 1691.14,370.839 1693.21,144.549 1695.29,257.694 1697.36,144.549 1699.44,201.121 1701.51,201.121 1703.59,314.266 1705.66,257.694 1707.73,314.266 1709.81,257.694 1711.88,144.549 1713.96,314.266 1716.03,144.549 1718.1,314.266 1720.18,370.839 1722.25,427.411 1724.33,144.549 1726.4,257.694 1728.48,427.411 1730.55,314.266 1732.62,314.266 1734.7,201.121 1736.77,370.839 1738.85,144.549 1740.92,257.694 1743,201.121 1745.07,427.411 1747.14,257.694 1749.22,257.694 1751.29,257.694 1753.37,87.9763 1755.44,314.266 1757.52,257.694 1759.59,257.694 1761.66,257.694 1763.74,370.839 1765.81,257.694 1767.89,201.121 1769.96,201.121 1772.03,257.694 1774.11,201.121 1776.18,314.266 1778.26,314.266 1780.33,427.411 1782.41,87.9763 1784.48,201.121 1786.55,314.266 1788.63,144.549 1790.7,144.549 1792.78,144.549 1794.85,201.121 1796.93,201.121 1799,144.549 1801.07,201.121 1803.15,370.839 1805.22,314.266 1807.3,370.839 1809.37,314.266 1811.44,314.266 1813.52,144.549 1815.59,370.839 1817.67,370.839 1819.74,314.266 1821.82,257.694 1823.89,257.694 1825.96,201.121 1828.04,257.694 1830.11,314.266 1832.19,257.694 1834.26,144.549 1836.34,370.839 1838.41,314.266 1840.48,314.266 1842.56,201.121 1844.63,257.694 1846.71,314.266 1848.78,257.694 1850.86,257.694 1852.93,314.266 1855,144.549 1857.08,201.121 1859.15,314.266 1861.23,87.9763 1863.3,144.549 1865.37,201.121 1867.45,314.266 1869.52,144.549 1871.6,87.9763 1873.67,314.266 1875.75,201.121 1877.82,144.549 1879.89,370.839 1881.97,314.266 1884.04,314.266 1886.12,370.839 1888.19,257.694 1890.27,257.694 1892.34,257.694 1894.41,370.839 1896.49,314.266 1898.56,201.121 1900.64,257.694 1902.71,201.121 1904.79,257.694 1906.86,257.694 1908.93,257.694 1911.01,314.266 1913.08,257.694 1915.16,483.984 1917.23,201.121 1919.3,144.549 1921.38,144.549 1923.45,201.121 1925.53,201.121 1927.6,314.266 1929.68,87.9763 1931.75,257.694 1933.82,87.9763 1935.9,483.984 1937.97,370.839 1940.05,257.694 1942.12,201.121 1944.2,201.121 1946.27,427.411 1948.34,257.694 1950.42,257.694 1952.49,87.9763 1954.57,87.9763 1956.64,257.694 1958.72,314.266 1960.79,314.266 1962.86,257.694 1964.94,257.694 1967.01,427.411 1969.09,201.121 1971.16,257.694 1973.23,201.121 1975.31,257.694 1977.38,144.549 1979.46,201.121 1981.53,201.121 1983.61,201.121 1985.68,201.121 1987.75,314.266 1989.83,427.411 1991.9,144.549 1993.98,87.9763 1996.05,257.694 1998.13,370.839 2000.2,257.694 2002.27,427.411 2004.35,201.121 2006.42,257.694 2008.5,201.121 2010.57,144.549 2012.64,257.694 2014.72,144.549 2016.79,257.694 2018.87,257.694 2020.94,314.266 2023.02,87.9763 2025.09,314.266 2027.16,144.549 2029.24,257.694 2031.31,201.121 2033.39,257.694 2035.46,201.121 2037.54,201.121 2039.61,370.839 2041.68,201.121 2043.76,257.694 2045.83,87.9763 2047.91,201.121 2049.98,483.984 2052.06,257.694 2054.13,201.121 2056.2,201.121 2058.28,201.121 2060.35,144.549 2062.43,144.549 2064.5,314.266 2066.57,87.9763 2068.65,257.694 2070.72,144.549 2072.8,201.121 2074.87,314.266 2076.95,87.9763 2079.02,201.121 2081.09,144.549 2083.17,314.266 2085.24,257.694 2087.32,427.411 2089.39,87.9763 2091.47,201.121 2093.54,201.121 2095.61,201.121 2097.69,257.694 2099.76,201.121 2101.84,257.694 2103.91,201.121 2105.99,87.9763 2108.06,370.839 2110.13,314.266 2112.21,427.411 2114.28,87.9763 2116.36,201.121 2118.43,370.839 2120.5,314.266 2122.58,144.549 2124.65,257.694 2126.73,314.266 2128.8,201.121 2130.88,257.694 2132.95,144.549 2135.02,314.266 2137.1,483.984 2139.17,201.121 2141.25,201.121 2143.32,257.694 2145.4,87.9763 2147.47,144.549 2149.54,370.839 2151.62,144.549 2153.69,144.549 2155.77,87.9763 2157.84,257.694 2159.92,201.121 2161.99,144.549 2164.06,257.694 2166.14,257.694 2168.21,201.121 2170.29,201.121 2172.36,87.9763 2174.43,87.9763 2176.51,257.694 2178.58,144.549 2180.66,144.549 2182.73,144.549 2184.81,144.549 2186.88,201.121 2188.95,314.266 2191.03,144.549 2193.1,201.121 2195.18,144.549 2197.25,314.266 2199.33,87.9763 2201.4,370.839 2203.47,314.266 2205.55,87.9763 2207.62,201.121 2209.7,540.556 2211.77,257.694 2213.84,201.121 2215.92,483.984 2217.99,87.9763 2220.07,201.121 2222.14,257.694 2224.22,144.549 2226.29,144.549 2228.36,483.984 2230.44,314.266 2232.51,201.121 2234.59,144.549 2236.66,87.9763 2238.74,653.701 2240.81,257.694 2242.88,201.121 2244.96,144.549 2247.03,201.121 2249.11,201.121 2251.18,314.266 2253.26,144.549 2255.33,314.266 2257.4,201.121 2259.48,201.121 2261.55,257.694 2263.63,87.9763 2265.7,201.121 2267.77,144.549 2269.85,257.694 2271.92,201.121 2274,87.9763 2276.07,87.9763 2278.15,314.266 2280.22,257.694 2282.29,257.694 2284.37,144.549 2286.44,257.694 2288.52,201.121 2290.59,257.694 "/>
<path clip-path="url(#clip460)" d="M2007.46 1438.47 L2279.54 1438.47 L2279.54 1334.79 L2007.46 1334.79  Z" fill="#ffffff" fill-rule="evenodd" fill-opacity="1"/>
<polyline clip-path="url(#clip460)" style="stroke:#000000; stroke-linecap:round; stroke-linejoin:round; stroke-width:4; stroke-opacity:1; fill:none" points="2007.46,1438.47 2279.54,1438.47 2279.54,1334.79 2007.46,1334.79 2007.46,1438.47 "/>
<polyline clip-path="url(#clip460)" style="stroke:#009af9; stroke-linecap:round; stroke-linejoin:round; stroke-width:4; stroke-opacity:1; fill:none" points="2031.87,1386.63 2178.3,1386.63 "/>
<path clip-path="url(#clip460)" d="M2216.55 1406.32 Q2214.74 1410.95 2213.03 1412.36 Q2211.32 1413.78 2208.44 1413.78 L2205.04 1413.78 L2205.04 1410.21 L2207.54 1410.21 Q2209.3 1410.21 2210.27 1409.38 Q2211.25 1408.54 2212.43 1405.44 L2213.19 1403.5 L2202.7 1377.99 L2207.22 1377.99 L2215.32 1398.27 L2223.42 1377.99 L2227.94 1377.99 L2216.55 1406.32 Z" fill="#000000" fill-rule="nonzero" fill-opacity="1" /><path clip-path="url(#clip460)" d="M2235.23 1399.98 L2242.87 1399.98 L2242.87 1373.61 L2234.56 1375.28 L2234.56 1371.02 L2242.82 1369.35 L2247.5 1369.35 L2247.5 1399.98 L2255.13 1399.98 L2255.13 1403.91 L2235.23 1403.91 L2235.23 1399.98 Z" fill="#000000" fill-rule="nonzero" fill-opacity="1" /></svg>
