<?xml version="1.0" encoding="utf-8"?>
<svg xmlns="http://www.w3.org/2000/svg" xmlns:xlink="http://www.w3.org/1999/xlink" width="600" height="400" viewBox="0 0 2400 1600">
<defs>
  <clipPath id="clip450">
    <rect x="0" y="0" width="2400" height="1600"/>
  </clipPath>
</defs>
<path clip-path="url(#clip450)" d="M0 1600 L2400 1600 L2400 0 L0 0  Z" fill="#ffffff" fill-rule="evenodd" fill-opacity="1"/>
<defs>
  <clipPath id="clip451">
    <rect x="480" y="0" width="1681" height="1600"/>
  </clipPath>
</defs>
<path clip-path="url(#clip450)" d="M230.996 1486.45 L2352.76 1486.45 L2352.76 47.2441 L230.996 47.2441  Z" fill="#ffffff" fill-rule="evenodd" fill-opacity="1"/>
<defs>
  <clipPath id="clip452">
    <rect x="230" y="47" width="2123" height="1440"/>
  </clipPath>
</defs>
<polyline clip-path="url(#clip452)" style="stroke:#000000; stroke-linecap:round; stroke-linejoin:round; stroke-width:2; stroke-opacity:0.1; fill:none" points="291.046,1486.45 291.046,47.2441 "/>
<polyline clip-path="url(#clip452)" style="stroke:#000000; stroke-linecap:round; stroke-linejoin:round; stroke-width:2; stroke-opacity:0.1; fill:none" points="791.461,1486.45 791.461,47.2441 "/>
<polyline clip-path="url(#clip452)" style="stroke:#000000; stroke-linecap:round; stroke-linejoin:round; stroke-width:2; stroke-opacity:0.1; fill:none" points="1291.88,1486.45 1291.88,47.2441 "/>
<polyline clip-path="url(#clip452)" style="stroke:#000000; stroke-linecap:round; stroke-linejoin:round; stroke-width:2; stroke-opacity:0.1; fill:none" points="1792.29,1486.45 1792.29,47.2441 "/>
<polyline clip-path="url(#clip452)" style="stroke:#000000; stroke-linecap:round; stroke-linejoin:round; stroke-width:2; stroke-opacity:0.1; fill:none" points="2292.71,1486.45 2292.71,47.2441 "/>
<polyline clip-path="url(#clip450)" style="stroke:#000000; stroke-linecap:round; stroke-linejoin:round; stroke-width:4; stroke-opacity:1; fill:none" points="230.996,1486.45 2352.76,1486.45 "/>
<polyline clip-path="url(#clip450)" style="stroke:#000000; stroke-linecap:round; stroke-linejoin:round; stroke-width:4; stroke-opacity:1; fill:none" points="291.046,1486.45 291.046,1467.55 "/>
<polyline clip-path="url(#clip450)" style="stroke:#000000; stroke-linecap:round; stroke-linejoin:round; stroke-width:4; stroke-opacity:1; fill:none" points="791.461,1486.45 791.461,1467.55 "/>
<polyline clip-path="url(#clip450)" style="stroke:#000000; stroke-linecap:round; stroke-linejoin:round; stroke-width:4; stroke-opacity:1; fill:none" points="1291.88,1486.45 1291.88,1467.55 "/>
<polyline clip-path="url(#clip450)" style="stroke:#000000; stroke-linecap:round; stroke-linejoin:round; stroke-width:4; stroke-opacity:1; fill:none" points="1792.29,1486.45 1792.29,1467.55 "/>
<polyline clip-path="url(#clip450)" style="stroke:#000000; stroke-linecap:round; stroke-linejoin:round; stroke-width:4; stroke-opacity:1; fill:none" points="2292.71,1486.45 2292.71,1467.55 "/>
<path clip-path="url(#clip450)" d="M291.046 1517.37 Q287.435 1517.37 285.606 1520.93 Q283.8 1524.47 283.8 1531.6 Q283.8 1538.71 285.606 1542.27 Q287.435 1545.82 291.046 1545.82 Q294.68 1545.82 296.486 1542.27 Q298.314 1538.71 298.314 1531.6 Q298.314 1524.47 296.486 1520.93 Q294.68 1517.37 291.046 1517.37 M291.046 1513.66 Q296.856 1513.66 299.911 1518.27 Q302.99 1522.85 302.99 1531.6 Q302.99 1540.33 299.911 1544.94 Q296.856 1549.52 291.046 1549.52 Q285.236 1549.52 282.157 1544.94 Q279.101 1540.33 279.101 1531.6 Q279.101 1522.85 282.157 1518.27 Q285.236 1513.66 291.046 1513.66 Z" fill="#000000" fill-rule="nonzero" fill-opacity="1" /><path clip-path="url(#clip450)" d="M751.079 1514.29 L769.436 1514.29 L769.436 1518.22 L755.362 1518.22 L755.362 1526.7 Q756.38 1526.35 757.399 1526.19 Q758.417 1526 759.436 1526 Q765.223 1526 768.602 1529.17 Q771.982 1532.34 771.982 1537.76 Q771.982 1543.34 768.51 1546.44 Q765.037 1549.52 758.718 1549.52 Q756.542 1549.52 754.274 1549.15 Q752.028 1548.78 749.621 1548.04 L749.621 1543.34 Q751.704 1544.47 753.926 1545.03 Q756.149 1545.58 758.625 1545.58 Q762.63 1545.58 764.968 1543.48 Q767.306 1541.37 767.306 1537.76 Q767.306 1534.15 764.968 1532.04 Q762.63 1529.94 758.625 1529.94 Q756.75 1529.94 754.875 1530.35 Q753.024 1530.77 751.079 1531.65 L751.079 1514.29 Z" fill="#000000" fill-rule="nonzero" fill-opacity="1" /><path clip-path="url(#clip450)" d="M791.195 1517.37 Q787.584 1517.37 785.755 1520.93 Q783.949 1524.47 783.949 1531.6 Q783.949 1538.71 785.755 1542.27 Q787.584 1545.82 791.195 1545.82 Q794.829 1545.82 796.634 1542.27 Q798.463 1538.71 798.463 1531.6 Q798.463 1524.47 796.634 1520.93 Q794.829 1517.37 791.195 1517.37 M791.195 1513.66 Q797.005 1513.66 800.06 1518.27 Q803.139 1522.85 803.139 1531.6 Q803.139 1540.33 800.06 1544.94 Q797.005 1549.52 791.195 1549.52 Q785.385 1549.52 782.306 1544.94 Q779.25 1540.33 779.25 1531.6 Q779.25 1522.85 782.306 1518.27 Q785.385 1513.66 791.195 1513.66 Z" fill="#000000" fill-rule="nonzero" fill-opacity="1" /><path clip-path="url(#clip450)" d="M821.357 1517.37 Q817.745 1517.37 815.917 1520.93 Q814.111 1524.47 814.111 1531.6 Q814.111 1538.71 815.917 1542.27 Q817.745 1545.82 821.357 1545.82 Q824.991 1545.82 826.796 1542.27 Q828.625 1538.71 828.625 1531.6 Q828.625 1524.47 826.796 1520.93 Q824.991 1517.37 821.357 1517.37 M821.357 1513.66 Q827.167 1513.66 830.222 1518.27 Q833.301 1522.85 833.301 1531.6 Q833.301 1540.33 830.222 1544.94 Q827.167 1549.52 821.357 1549.52 Q815.546 1549.52 812.468 1544.94 Q809.412 1540.33 809.412 1531.6 Q809.412 1522.85 812.468 1518.27 Q815.546 1513.66 821.357 1513.66 Z" fill="#000000" fill-rule="nonzero" fill-opacity="1" /><path clip-path="url(#clip450)" d="M1236.4 1544.91 L1244.04 1544.91 L1244.04 1518.55 L1235.73 1520.21 L1235.73 1515.95 L1243.99 1514.29 L1248.67 1514.29 L1248.67 1544.91 L1256.31 1544.91 L1256.31 1548.85 L1236.4 1548.85 L1236.4 1544.91 Z" fill="#000000" fill-rule="nonzero" fill-opacity="1" /><path clip-path="url(#clip450)" d="M1275.75 1517.37 Q1272.14 1517.37 1270.31 1520.93 Q1268.51 1524.47 1268.51 1531.6 Q1268.51 1538.71 1270.31 1542.27 Q1272.14 1545.82 1275.75 1545.82 Q1279.39 1545.82 1281.19 1542.27 Q1283.02 1538.71 1283.02 1531.6 Q1283.02 1524.47 1281.19 1520.93 Q1279.39 1517.37 1275.75 1517.37 M1275.75 1513.66 Q1281.56 1513.66 1284.62 1518.27 Q1287.7 1522.85 1287.7 1531.6 Q1287.7 1540.33 1284.62 1544.94 Q1281.56 1549.52 1275.75 1549.52 Q1269.94 1549.52 1266.86 1544.94 Q1263.81 1540.33 1263.81 1531.6 Q1263.81 1522.85 1266.86 1518.27 Q1269.94 1513.66 1275.75 1513.66 Z" fill="#000000" fill-rule="nonzero" fill-opacity="1" /><path clip-path="url(#clip450)" d="M1305.92 1517.37 Q1302.3 1517.37 1300.48 1520.93 Q1298.67 1524.47 1298.67 1531.6 Q1298.67 1538.71 1300.48 1542.27 Q1302.3 1545.82 1305.92 1545.82 Q1309.55 1545.82 1311.36 1542.27 Q1313.18 1538.71 1313.18 1531.6 Q1313.18 1524.47 1311.36 1520.93 Q1309.55 1517.37 1305.92 1517.37 M1305.92 1513.66 Q1311.73 1513.66 1314.78 1518.27 Q1317.86 1522.85 1317.86 1531.6 Q1317.86 1540.33 1314.78 1544.94 Q1311.73 1549.52 1305.92 1549.52 Q1300.11 1549.52 1297.03 1544.94 Q1293.97 1540.33 1293.97 1531.6 Q1293.97 1522.85 1297.03 1518.27 Q1300.11 1513.66 1305.92 1513.66 Z" fill="#000000" fill-rule="nonzero" fill-opacity="1" /><path clip-path="url(#clip450)" d="M1336.08 1517.37 Q1332.47 1517.37 1330.64 1520.93 Q1328.83 1524.47 1328.83 1531.6 Q1328.83 1538.71 1330.64 1542.27 Q1332.47 1545.82 1336.08 1545.82 Q1339.71 1545.82 1341.52 1542.27 Q1343.35 1538.71 1343.35 1531.6 Q1343.35 1524.47 1341.52 1520.93 Q1339.71 1517.37 1336.08 1517.37 M1336.08 1513.66 Q1341.89 1513.66 1344.94 1518.27 Q1348.02 1522.85 1348.02 1531.6 Q1348.02 1540.33 1344.94 1544.94 Q1341.89 1549.52 1336.08 1549.52 Q1330.27 1549.52 1327.19 1544.94 Q1324.13 1540.33 1324.13 1531.6 Q1324.13 1522.85 1327.19 1518.27 Q1330.27 1513.66 1336.08 1513.66 Z" fill="#000000" fill-rule="nonzero" fill-opacity="1" /><path clip-path="url(#clip450)" d="M1736.82 1544.91 L1744.46 1544.91 L1744.46 1518.55 L1736.15 1520.21 L1736.15 1515.95 L1744.41 1514.29 L1749.09 1514.29 L1749.09 1544.91 L1756.72 1544.91 L1756.72 1548.85 L1736.82 1548.85 L1736.82 1544.91 Z" fill="#000000" fill-rule="nonzero" fill-opacity="1" /><path clip-path="url(#clip450)" d="M1766.21 1514.29 L1784.57 1514.29 L1784.57 1518.22 L1770.5 1518.22 L1770.5 1526.7 Q1771.52 1526.35 1772.53 1526.19 Q1773.55 1526 1774.57 1526 Q1780.36 1526 1783.74 1529.17 Q1787.12 1532.34 1787.12 1537.76 Q1787.12 1543.34 1783.65 1546.44 Q1780.17 1549.52 1773.85 1549.52 Q1771.68 1549.52 1769.41 1549.15 Q1767.16 1548.78 1764.76 1548.04 L1764.76 1543.34 Q1766.84 1544.47 1769.06 1545.03 Q1771.28 1545.58 1773.76 1545.58 Q1777.77 1545.58 1780.1 1543.48 Q1782.44 1541.37 1782.44 1537.76 Q1782.44 1534.15 1780.1 1532.04 Q1777.77 1529.94 1773.76 1529.94 Q1771.89 1529.94 1770.01 1530.35 Q1768.16 1530.77 1766.21 1531.65 L1766.21 1514.29 Z" fill="#000000" fill-rule="nonzero" fill-opacity="1" /><path clip-path="url(#clip450)" d="M1806.33 1517.37 Q1802.72 1517.37 1800.89 1520.93 Q1799.08 1524.47 1799.08 1531.6 Q1799.08 1538.71 1800.89 1542.27 Q1802.72 1545.82 1806.33 1545.82 Q1809.96 1545.82 1811.77 1542.27 Q1813.6 1538.71 1813.6 1531.6 Q1813.6 1524.47 1811.77 1520.93 Q1809.96 1517.37 1806.33 1517.37 M1806.33 1513.66 Q1812.14 1513.66 1815.2 1518.27 Q1818.27 1522.85 1818.27 1531.6 Q1818.27 1540.33 1815.2 1544.94 Q1812.14 1549.52 1806.33 1549.52 Q1800.52 1549.52 1797.44 1544.94 Q1794.39 1540.33 1794.39 1531.6 Q1794.39 1522.85 1797.44 1518.27 Q1800.52 1513.66 1806.33 1513.66 Z" fill="#000000" fill-rule="nonzero" fill-opacity="1" /><path clip-path="url(#clip450)" d="M1836.49 1517.37 Q1832.88 1517.37 1831.05 1520.93 Q1829.25 1524.47 1829.25 1531.6 Q1829.25 1538.71 1831.05 1542.27 Q1832.88 1545.82 1836.49 1545.82 Q1840.13 1545.82 1841.93 1542.27 Q1843.76 1538.71 1843.76 1531.6 Q1843.76 1524.47 1841.93 1520.93 Q1840.13 1517.37 1836.49 1517.37 M1836.49 1513.66 Q1842.3 1513.66 1845.36 1518.27 Q1848.44 1522.85 1848.44 1531.6 Q1848.44 1540.33 1845.36 1544.94 Q1842.3 1549.52 1836.49 1549.52 Q1830.68 1549.52 1827.6 1544.94 Q1824.55 1540.33 1824.55 1531.6 Q1824.55 1522.85 1827.6 1518.27 Q1830.68 1513.66 1836.49 1513.66 Z" fill="#000000" fill-rule="nonzero" fill-opacity="1" /><path clip-path="url(#clip450)" d="M2241.32 1544.91 L2257.64 1544.91 L2257.64 1548.85 L2235.69 1548.85 L2235.69 1544.91 Q2238.35 1542.16 2242.94 1537.53 Q2247.54 1532.88 2248.72 1531.53 Q2250.97 1529.01 2251.85 1527.27 Q2252.75 1525.51 2252.75 1523.82 Q2252.75 1521.07 2250.81 1519.33 Q2248.89 1517.6 2245.79 1517.6 Q2243.59 1517.6 2241.13 1518.36 Q2238.7 1519.13 2235.92 1520.68 L2235.92 1515.95 Q2238.75 1514.82 2241.2 1514.24 Q2243.66 1513.66 2245.69 1513.66 Q2251.06 1513.66 2254.26 1516.35 Q2257.45 1519.03 2257.45 1523.52 Q2257.45 1525.65 2256.64 1527.57 Q2255.85 1529.47 2253.75 1532.07 Q2253.17 1532.74 2250.07 1535.95 Q2246.97 1539.15 2241.32 1544.91 Z" fill="#000000" fill-rule="nonzero" fill-opacity="1" /><path clip-path="url(#clip450)" d="M2277.45 1517.37 Q2273.84 1517.37 2272.01 1520.93 Q2270.21 1524.47 2270.21 1531.6 Q2270.21 1538.71 2272.01 1542.27 Q2273.84 1545.82 2277.45 1545.82 Q2281.09 1545.82 2282.89 1542.27 Q2284.72 1538.71 2284.72 1531.6 Q2284.72 1524.47 2282.89 1520.93 Q2281.09 1517.37 2277.45 1517.37 M2277.45 1513.66 Q2283.26 1513.66 2286.32 1518.27 Q2289.4 1522.85 2289.4 1531.6 Q2289.4 1540.33 2286.32 1544.94 Q2283.26 1549.52 2277.45 1549.52 Q2271.64 1549.52 2268.56 1544.94 Q2265.51 1540.33 2265.51 1531.6 Q2265.51 1522.85 2268.56 1518.27 Q2271.64 1513.66 2277.45 1513.66 Z" fill="#000000" fill-rule="nonzero" fill-opacity="1" /><path clip-path="url(#clip450)" d="M2307.61 1517.37 Q2304 1517.37 2302.17 1520.93 Q2300.37 1524.47 2300.37 1531.6 Q2300.37 1538.71 2302.17 1542.27 Q2304 1545.82 2307.61 1545.82 Q2311.25 1545.82 2313.05 1542.27 Q2314.88 1538.71 2314.88 1531.6 Q2314.88 1524.47 2313.05 1520.93 Q2311.25 1517.37 2307.61 1517.37 M2307.61 1513.66 Q2313.42 1513.66 2316.48 1518.27 Q2319.56 1522.85 2319.56 1531.6 Q2319.56 1540.33 2316.48 1544.94 Q2313.42 1549.52 2307.61 1549.52 Q2301.8 1549.52 2298.72 1544.94 Q2295.67 1540.33 2295.67 1531.6 Q2295.67 1522.85 2298.72 1518.27 Q2301.8 1513.66 2307.61 1513.66 Z" fill="#000000" fill-rule="nonzero" fill-opacity="1" /><path clip-path="url(#clip450)" d="M2337.78 1517.37 Q2334.16 1517.37 2332.34 1520.93 Q2330.53 1524.47 2330.53 1531.6 Q2330.53 1538.71 2332.34 1542.27 Q2334.16 1545.82 2337.78 1545.82 Q2341.41 1545.82 2343.22 1542.27 Q2345.04 1538.71 2345.04 1531.6 Q2345.04 1524.47 2343.22 1520.93 Q2341.41 1517.37 2337.78 1517.37 M2337.78 1513.66 Q2343.59 1513.66 2346.64 1518.27 Q2349.72 1522.85 2349.72 1531.6 Q2349.72 1540.33 2346.64 1544.94 Q2343.59 1549.52 2337.78 1549.52 Q2331.97 1549.52 2328.89 1544.94 Q2325.83 1540.33 2325.83 1531.6 Q2325.83 1522.85 2328.89 1518.27 Q2331.97 1513.66 2337.78 1513.66 Z" fill="#000000" fill-rule="nonzero" fill-opacity="1" /><polyline clip-path="url(#clip452)" style="stroke:#000000; stroke-linecap:round; stroke-linejoin:round; stroke-width:2; stroke-opacity:0.1; fill:none" points="230.996,1190.78 2352.76,1190.78 "/>
<polyline clip-path="url(#clip452)" style="stroke:#000000; stroke-linecap:round; stroke-linejoin:round; stroke-width:2; stroke-opacity:0.1; fill:none" points="230.996,843.288 2352.76,843.288 "/>
<polyline clip-path="url(#clip452)" style="stroke:#000000; stroke-linecap:round; stroke-linejoin:round; stroke-width:2; stroke-opacity:0.1; fill:none" points="230.996,495.799 2352.76,495.799 "/>
<polyline clip-path="url(#clip452)" style="stroke:#000000; stroke-linecap:round; stroke-linejoin:round; stroke-width:2; stroke-opacity:0.1; fill:none" points="230.996,148.31 2352.76,148.31 "/>
<polyline clip-path="url(#clip450)" style="stroke:#000000; stroke-linecap:round; stroke-linejoin:round; stroke-width:4; stroke-opacity:1; fill:none" points="230.996,1486.45 230.996,47.2441 "/>
<polyline clip-path="url(#clip450)" style="stroke:#000000; stroke-linecap:round; stroke-linejoin:round; stroke-width:4; stroke-opacity:1; fill:none" points="230.996,1190.78 249.894,1190.78 "/>
<polyline clip-path="url(#clip450)" style="stroke:#000000; stroke-linecap:round; stroke-linejoin:round; stroke-width:4; stroke-opacity:1; fill:none" points="230.996,843.288 249.894,843.288 "/>
<polyline clip-path="url(#clip450)" style="stroke:#000000; stroke-linecap:round; stroke-linejoin:round; stroke-width:4; stroke-opacity:1; fill:none" points="230.996,495.799 249.894,495.799 "/>
<polyline clip-path="url(#clip450)" style="stroke:#000000; stroke-linecap:round; stroke-linejoin:round; stroke-width:4; stroke-opacity:1; fill:none" points="230.996,148.31 249.894,148.31 "/>
<path clip-path="url(#clip450)" d="M52.4505 1173.5 L70.8068 1173.5 L70.8068 1177.43 L56.7328 1177.43 L56.7328 1185.9 Q57.7513 1185.56 58.7699 1185.4 Q59.7884 1185.21 60.8069 1185.21 Q66.5939 1185.21 69.9735 1188.38 Q73.3531 1191.55 73.3531 1196.97 Q73.3531 1202.55 69.8809 1205.65 Q66.4087 1208.73 60.0893 1208.73 Q57.9134 1208.73 55.6449 1208.36 Q53.3995 1207.99 50.9921 1207.25 L50.9921 1202.55 Q53.0754 1203.68 55.2977 1204.24 Q57.5199 1204.79 59.9967 1204.79 Q64.0013 1204.79 66.3393 1202.69 Q68.6772 1200.58 68.6772 1196.97 Q68.6772 1193.36 66.3393 1191.25 Q64.0013 1189.15 59.9967 1189.15 Q58.1217 1189.15 56.2467 1189.56 Q54.3949 1189.98 52.4505 1190.86 L52.4505 1173.5 Z" fill="#000000" fill-rule="nonzero" fill-opacity="1" /><path clip-path="url(#clip450)" d="M83.3762 1204.12 L91.0151 1204.12 L91.0151 1177.76 L82.7049 1179.42 L82.7049 1175.16 L90.9688 1173.5 L95.6447 1173.5 L95.6447 1204.12 L103.284 1204.12 L103.284 1208.06 L83.3762 1208.06 L83.3762 1204.12 Z" fill="#000000" fill-rule="nonzero" fill-opacity="1" /><path clip-path="url(#clip450)" d="M122.728 1176.58 Q119.117 1176.58 117.288 1180.14 Q115.483 1183.68 115.483 1190.81 Q115.483 1197.92 117.288 1201.48 Q119.117 1205.02 122.728 1205.02 Q126.362 1205.02 128.168 1201.48 Q129.996 1197.92 129.996 1190.81 Q129.996 1183.68 128.168 1180.14 Q126.362 1176.58 122.728 1176.58 M122.728 1172.87 Q128.538 1172.87 131.594 1177.48 Q134.672 1182.06 134.672 1190.81 Q134.672 1199.54 131.594 1204.15 Q128.538 1208.73 122.728 1208.73 Q116.918 1208.73 113.839 1204.15 Q110.783 1199.54 110.783 1190.81 Q110.783 1182.06 113.839 1177.48 Q116.918 1172.87 122.728 1172.87 Z" fill="#000000" fill-rule="nonzero" fill-opacity="1" /><path clip-path="url(#clip450)" d="M152.89 1176.58 Q149.279 1176.58 147.45 1180.14 Q145.644 1183.68 145.644 1190.81 Q145.644 1197.92 147.45 1201.48 Q149.279 1205.02 152.89 1205.02 Q156.524 1205.02 158.33 1201.48 Q160.158 1197.92 160.158 1190.81 Q160.158 1183.68 158.33 1180.14 Q156.524 1176.58 152.89 1176.58 M152.89 1172.87 Q158.7 1172.87 161.755 1177.48 Q164.834 1182.06 164.834 1190.81 Q164.834 1199.54 161.755 1204.15 Q158.7 1208.73 152.89 1208.73 Q147.08 1208.73 144.001 1204.15 Q140.945 1199.54 140.945 1190.81 Q140.945 1182.06 144.001 1177.48 Q147.08 1172.87 152.89 1172.87 Z" fill="#000000" fill-rule="nonzero" fill-opacity="1" /><path clip-path="url(#clip450)" d="M183.052 1176.58 Q179.441 1176.58 177.612 1180.14 Q175.806 1183.68 175.806 1190.81 Q175.806 1197.92 177.612 1201.48 Q179.441 1205.02 183.052 1205.02 Q186.686 1205.02 188.491 1201.48 Q190.32 1197.92 190.32 1190.81 Q190.32 1183.68 188.491 1180.14 Q186.686 1176.58 183.052 1176.58 M183.052 1172.87 Q188.862 1172.87 191.917 1177.48 Q194.996 1182.06 194.996 1190.81 Q194.996 1199.54 191.917 1204.15 Q188.862 1208.73 183.052 1208.73 Q177.241 1208.73 174.163 1204.15 Q171.107 1199.54 171.107 1190.81 Q171.107 1182.06 174.163 1177.48 Q177.241 1172.87 183.052 1172.87 Z" fill="#000000" fill-rule="nonzero" fill-opacity="1" /><path clip-path="url(#clip450)" d="M52.4505 826.008 L70.8068 826.008 L70.8068 829.943 L56.7328 829.943 L56.7328 838.415 Q57.7513 838.068 58.7699 837.906 Q59.7884 837.721 60.8069 837.721 Q66.5939 837.721 69.9735 840.892 Q73.3531 844.064 73.3531 849.48 Q73.3531 855.059 69.8809 858.161 Q66.4087 861.239 60.0893 861.239 Q57.9134 861.239 55.6449 860.869 Q53.3995 860.499 50.9921 859.758 L50.9921 855.059 Q53.0754 856.193 55.2977 856.749 Q57.5199 857.304 59.9967 857.304 Q64.0013 857.304 66.3393 855.198 Q68.6772 853.091 68.6772 849.48 Q68.6772 845.869 66.3393 843.763 Q64.0013 841.656 59.9967 841.656 Q58.1217 841.656 56.2467 842.073 Q54.3949 842.49 52.4505 843.369 L52.4505 826.008 Z" fill="#000000" fill-rule="nonzero" fill-opacity="1" /><path clip-path="url(#clip450)" d="M86.5938 856.633 L102.913 856.633 L102.913 860.568 L80.9688 860.568 L80.9688 856.633 Q83.6308 853.878 88.2141 849.249 Q92.8206 844.596 94.0012 843.253 Q96.2465 840.73 97.1261 838.994 Q98.0289 837.235 98.0289 835.545 Q98.0289 832.791 96.0845 831.054 Q94.1632 829.318 91.0614 829.318 Q88.8623 829.318 86.4086 830.082 Q83.9781 830.846 81.2003 832.397 L81.2003 827.675 Q84.0244 826.541 86.478 825.962 Q88.9317 825.383 90.9688 825.383 Q96.3391 825.383 99.5335 828.068 Q102.728 830.753 102.728 835.244 Q102.728 837.374 101.918 839.295 Q101.131 841.193 99.0243 843.786 Q98.4456 844.457 95.3437 847.675 Q92.2419 850.869 86.5938 856.633 Z" fill="#000000" fill-rule="nonzero" fill-opacity="1" /><path clip-path="url(#clip450)" d="M122.728 829.087 Q119.117 829.087 117.288 832.652 Q115.483 836.193 115.483 843.323 Q115.483 850.429 117.288 853.994 Q119.117 857.536 122.728 857.536 Q126.362 857.536 128.168 853.994 Q129.996 850.429 129.996 843.323 Q129.996 836.193 128.168 832.652 Q126.362 829.087 122.728 829.087 M122.728 825.383 Q128.538 825.383 131.594 829.99 Q134.672 834.573 134.672 843.323 Q134.672 852.05 131.594 856.656 Q128.538 861.239 122.728 861.239 Q116.918 861.239 113.839 856.656 Q110.783 852.05 110.783 843.323 Q110.783 834.573 113.839 829.99 Q116.918 825.383 122.728 825.383 Z" fill="#000000" fill-rule="nonzero" fill-opacity="1" /><path clip-path="url(#clip450)" d="M152.89 829.087 Q149.279 829.087 147.45 832.652 Q145.644 836.193 145.644 843.323 Q145.644 850.429 147.45 853.994 Q149.279 857.536 152.89 857.536 Q156.524 857.536 158.33 853.994 Q160.158 850.429 160.158 843.323 Q160.158 836.193 158.33 832.652 Q156.524 829.087 152.89 829.087 M152.89 825.383 Q158.7 825.383 161.755 829.99 Q164.834 834.573 164.834 843.323 Q164.834 852.05 161.755 856.656 Q158.7 861.239 152.89 861.239 Q147.08 861.239 144.001 856.656 Q140.945 852.05 140.945 843.323 Q140.945 834.573 144.001 829.99 Q147.08 825.383 152.89 825.383 Z" fill="#000000" fill-rule="nonzero" fill-opacity="1" /><path clip-path="url(#clip450)" d="M183.052 829.087 Q179.441 829.087 177.612 832.652 Q175.806 836.193 175.806 843.323 Q175.806 850.429 177.612 853.994 Q179.441 857.536 183.052 857.536 Q186.686 857.536 188.491 853.994 Q190.32 850.429 190.32 843.323 Q190.32 836.193 188.491 832.652 Q186.686 829.087 183.052 829.087 M183.052 825.383 Q188.862 825.383 191.917 829.99 Q194.996 834.573 194.996 843.323 Q194.996 852.05 191.917 856.656 Q188.862 861.239 183.052 861.239 Q177.241 861.239 174.163 856.656 Q171.107 852.05 171.107 843.323 Q171.107 834.573 174.163 829.99 Q177.241 825.383 183.052 825.383 Z" fill="#000000" fill-rule="nonzero" fill-opacity="1" /><path clip-path="url(#clip450)" d="M52.4505 478.519 L70.8068 478.519 L70.8068 482.454 L56.7328 482.454 L56.7328 490.927 Q57.7513 490.579 58.7699 490.417 Q59.7884 490.232 60.8069 490.232 Q66.5939 490.232 69.9735 493.403 Q73.3531 496.575 73.3531 501.991 Q73.3531 507.57 69.8809 510.672 Q66.4087 513.751 60.0893 513.751 Q57.9134 513.751 55.6449 513.38 Q53.3995 513.01 50.9921 512.269 L50.9921 507.57 Q53.0754 508.704 55.2977 509.26 Q57.5199 509.815 59.9967 509.815 Q64.0013 509.815 66.3393 507.709 Q68.6772 505.602 68.6772 501.991 Q68.6772 498.38 66.3393 496.274 Q64.0013 494.167 59.9967 494.167 Q58.1217 494.167 56.2467 494.584 Q54.3949 495.001 52.4505 495.88 L52.4505 478.519 Z" fill="#000000" fill-rule="nonzero" fill-opacity="1" /><path clip-path="url(#clip450)" d="M96.7326 494.445 Q100.089 495.163 101.964 497.431 Q103.862 499.7 103.862 503.033 Q103.862 508.149 100.344 510.95 Q96.8252 513.751 90.3438 513.751 Q88.1679 513.751 85.8531 513.311 Q83.5614 512.894 81.1077 512.038 L81.1077 507.524 Q83.0521 508.658 85.3669 509.237 Q87.6817 509.815 90.2049 509.815 Q94.603 509.815 96.8947 508.079 Q99.2095 506.343 99.2095 503.033 Q99.2095 499.977 97.0567 498.264 Q94.9271 496.528 91.1077 496.528 L87.0799 496.528 L87.0799 492.686 L91.2928 492.686 Q94.7419 492.686 96.5706 491.32 Q98.3993 489.931 98.3993 487.339 Q98.3993 484.677 96.5011 483.265 Q94.6262 481.829 91.1077 481.829 Q89.1864 481.829 86.9873 482.246 Q84.7882 482.663 82.1494 483.542 L82.1494 479.376 Q84.8114 478.635 87.1262 478.265 Q89.4641 477.894 91.5243 477.894 Q96.8484 477.894 99.9502 480.325 Q103.052 482.732 103.052 486.852 Q103.052 489.723 101.409 491.714 Q99.765 493.681 96.7326 494.445 Z" fill="#000000" fill-rule="nonzero" fill-opacity="1" /><path clip-path="url(#clip450)" d="M122.728 481.598 Q119.117 481.598 117.288 485.163 Q115.483 488.704 115.483 495.834 Q115.483 502.94 117.288 506.505 Q119.117 510.047 122.728 510.047 Q126.362 510.047 128.168 506.505 Q129.996 502.94 129.996 495.834 Q129.996 488.704 128.168 485.163 Q126.362 481.598 122.728 481.598 M122.728 477.894 Q128.538 477.894 131.594 482.501 Q134.672 487.084 134.672 495.834 Q134.672 504.561 131.594 509.167 Q128.538 513.751 122.728 513.751 Q116.918 513.751 113.839 509.167 Q110.783 504.561 110.783 495.834 Q110.783 487.084 113.839 482.501 Q116.918 477.894 122.728 477.894 Z" fill="#000000" fill-rule="nonzero" fill-opacity="1" /><path clip-path="url(#clip450)" d="M152.89 481.598 Q149.279 481.598 147.45 485.163 Q145.644 488.704 145.644 495.834 Q145.644 502.94 147.45 506.505 Q149.279 510.047 152.89 510.047 Q156.524 510.047 158.33 506.505 Q160.158 502.94 160.158 495.834 Q160.158 488.704 158.33 485.163 Q156.524 481.598 152.89 481.598 M152.89 477.894 Q158.7 477.894 161.755 482.501 Q164.834 487.084 164.834 495.834 Q164.834 504.561 161.755 509.167 Q158.7 513.751 152.89 513.751 Q147.08 513.751 144.001 509.167 Q140.945 504.561 140.945 495.834 Q140.945 487.084 144.001 482.501 Q147.08 477.894 152.89 477.894 Z" fill="#000000" fill-rule="nonzero" fill-opacity="1" /><path clip-path="url(#clip450)" d="M183.052 481.598 Q179.441 481.598 177.612 485.163 Q175.806 488.704 175.806 495.834 Q175.806 502.94 177.612 506.505 Q179.441 510.047 183.052 510.047 Q186.686 510.047 188.491 506.505 Q190.32 502.94 190.32 495.834 Q190.32 488.704 188.491 485.163 Q186.686 481.598 183.052 481.598 M183.052 477.894 Q188.862 477.894 191.917 482.501 Q194.996 487.084 194.996 495.834 Q194.996 504.561 191.917 509.167 Q188.862 513.751 183.052 513.751 Q177.241 513.751 174.163 509.167 Q171.107 504.561 171.107 495.834 Q171.107 487.084 174.163 482.501 Q177.241 477.894 183.052 477.894 Z" fill="#000000" fill-rule="nonzero" fill-opacity="1" /><path clip-path="url(#clip450)" d="M52.4505 131.03 L70.8068 131.03 L70.8068 134.965 L56.7328 134.965 L56.7328 143.438 Q57.7513 143.09 58.7699 142.928 Q59.7884 142.743 60.8069 142.743 Q66.5939 142.743 69.9735 145.914 Q73.3531 149.086 73.3531 154.502 Q73.3531 160.081 69.8809 163.183 Q66.4087 166.262 60.0893 166.262 Q57.9134 166.262 55.6449 165.891 Q53.3995 165.521 50.9921 164.78 L50.9921 160.081 Q53.0754 161.215 55.2977 161.771 Q57.5199 162.326 59.9967 162.326 Q64.0013 162.326 66.3393 160.22 Q68.6772 158.113 68.6772 154.502 Q68.6772 150.891 66.3393 148.785 Q64.0013 146.678 59.9967 146.678 Q58.1217 146.678 56.2467 147.095 Q54.3949 147.512 52.4505 148.391 L52.4505 131.03 Z" fill="#000000" fill-rule="nonzero" fill-opacity="1" /><path clip-path="url(#clip450)" d="M95.4132 135.104 L83.6077 153.553 L95.4132 153.553 L95.4132 135.104 M94.1863 131.03 L100.066 131.03 L100.066 153.553 L104.996 153.553 L104.996 157.442 L100.066 157.442 L100.066 165.59 L95.4132 165.59 L95.4132 157.442 L79.8114 157.442 L79.8114 152.928 L94.1863 131.03 Z" fill="#000000" fill-rule="nonzero" fill-opacity="1" /><path clip-path="url(#clip450)" d="M122.728 134.109 Q119.117 134.109 117.288 137.674 Q115.483 141.215 115.483 148.345 Q115.483 155.451 117.288 159.016 Q119.117 162.558 122.728 162.558 Q126.362 162.558 128.168 159.016 Q129.996 155.451 129.996 148.345 Q129.996 141.215 128.168 137.674 Q126.362 134.109 122.728 134.109 M122.728 130.405 Q128.538 130.405 131.594 135.012 Q134.672 139.595 134.672 148.345 Q134.672 157.072 131.594 161.678 Q128.538 166.262 122.728 166.262 Q116.918 166.262 113.839 161.678 Q110.783 157.072 110.783 148.345 Q110.783 139.595 113.839 135.012 Q116.918 130.405 122.728 130.405 Z" fill="#000000" fill-rule="nonzero" fill-opacity="1" /><path clip-path="url(#clip450)" d="M152.89 134.109 Q149.279 134.109 147.45 137.674 Q145.644 141.215 145.644 148.345 Q145.644 155.451 147.45 159.016 Q149.279 162.558 152.89 162.558 Q156.524 162.558 158.33 159.016 Q160.158 155.451 160.158 148.345 Q160.158 141.215 158.33 137.674 Q156.524 134.109 152.89 134.109 M152.89 130.405 Q158.7 130.405 161.755 135.012 Q164.834 139.595 164.834 148.345 Q164.834 157.072 161.755 161.678 Q158.7 166.262 152.89 166.262 Q147.08 166.262 144.001 161.678 Q140.945 157.072 140.945 148.345 Q140.945 139.595 144.001 135.012 Q147.08 130.405 152.89 130.405 Z" fill="#000000" fill-rule="nonzero" fill-opacity="1" /><path clip-path="url(#clip450)" d="M183.052 134.109 Q179.441 134.109 177.612 137.674 Q175.806 141.215 175.806 148.345 Q175.806 155.451 177.612 159.016 Q179.441 162.558 183.052 162.558 Q186.686 162.558 188.491 159.016 Q190.32 155.451 190.32 148.345 Q190.32 141.215 188.491 137.674 Q186.686 134.109 183.052 134.109 M183.052 130.405 Q188.862 130.405 191.917 135.012 Q194.996 139.595 194.996 148.345 Q194.996 157.072 191.917 161.678 Q188.862 166.262 183.052 166.262 Q177.241 166.262 174.163 161.678 Q171.107 157.072 171.107 148.345 Q171.107 139.595 174.163 135.012 Q177.241 130.405 183.052 130.405 Z" fill="#000000" fill-rule="nonzero" fill-opacity="1" /><polyline clip-path="url(#clip452)" style="stroke:#009af9; stroke-linecap:round; stroke-linejoin:round; stroke-width:4; stroke-opacity:1; fill:none" points="291.046,417.721 292.047,417.721 293.047,417.721 294.048,417.721 295.049,417.721 296.05,1242.19 297.051,1242.19 298.052,1242.19 299.052,1242.19 300.053,1242.19 301.054,798.522 302.055,798.523 303.056,798.523 304.057,798.523 305.057,798.524 306.058,780.217 307.059,780.217 308.06,780.217 309.061,780.217 310.062,780.217 311.062,750.351 312.063,750.351 313.064,750.351 314.065,750.351 315.066,750.351 316.067,1152.83 317.067,1152.83 318.068,1152.83 319.069,1152.83 320.07,1152.83 321.071,894.627 322.072,894.627 323.072,894.628 324.073,894.628 325.074,894.628 326.075,882.345 327.076,882.345 328.077,882.346 329.077,882.346 330.078,882.346 331.079,750.353 332.08,750.353 333.081,750.354 334.081,750.354 335.082,750.354 336.083,896.551 337.084,896.551 338.085,896.551 339.086,896.551 340.086,896.551 341.087,817.31 342.088,817.31 343.089,817.31 344.09,817.31 345.091,817.31 346.091,1113.81 347.092,1113.81 348.093,1113.81 349.094,1113.81 350.095,1113.81 351.096,672.792 352.096,672.792 353.097,672.793 354.098,672.793 355.099,672.793 356.1,450.234 357.101,450.234 358.101,450.234 359.102,450.234 360.103,450.235 361.104,899.917 362.105,899.918 363.106,899.918 364.106,899.919 365.107,899.919 366.108,685.075 367.109,685.075 368.11,685.076 369.111,685.076 370.111,685.076 371.112,924.249 372.113,924.249 373.114,924.25 374.115,924.25 375.116,924.25 376.116,843.806 377.117,843.806 378.118,843.806 379.119,843.806 380.12,843.807 381.121,653.284 382.121,653.284 383.122,653.285 384.123,653.285 385.124,653.285 386.125,1100.56 387.125,1100.56 388.126,1100.56 389.127,1100.56 390.128,1100.56 391.129,1001.81 392.13,1001.81 393.13,1001.81 394.131,1001.81 395.132,1001.81 396.133,792.741 397.134,792.741 398.135,792.741 399.135,792.741 400.136,792.741 401.137,906.427 402.138,906.427 403.139,906.427 404.14,906.427 405.14,906.428 406.141,1109.47 407.142,1109.47 408.143,1109.47 409.144,1109.48 410.145,1109.48 411.145,911.97 412.146,911.97 413.147,911.97 414.148,911.971 415.149,911.971 416.15,1113.81 417.15,1113.81 418.151,1113.81 419.152,1113.81 420.153,1113.81 421.154,840.672 422.155,840.673 423.155,840.673 424.156,840.673 425.157,840.673 426.158,828.632 427.159,828.632 428.16,828.632 429.16,828.633 430.161,828.633 431.162,1246.77 432.163,1246.77 433.164,1246.77 434.165,1246.77 435.165,1246.77 436.166,963.515 437.167,963.515 438.168,963.515 439.169,963.515 440.169,963.515 441.17,1008.07 442.171,1008.07 443.172,1008.07 444.173,1008.07 445.174,1008.07 446.174,1036.02 447.175,1036.02 448.176,1036.02 449.177,1036.02 450.178,1036.02 451.179,667.489 452.179,667.49 453.18,667.49 454.181,667.49 455.182,667.49 456.183,635.217 457.184,635.217 458.184,635.217 459.185,635.217 460.186,635.218 461.187,529.482 462.188,529.482 463.189,529.482 464.189,529.482 465.19,529.482 466.191,544.654 467.192,544.654 468.193,544.654 469.194,544.655 470.194,544.655 471.195,885.715 472.196,885.715 473.197,885.715 474.198,885.715 475.199,885.715 476.199,1445.72 477.2,1445.72 478.201,1445.72 479.202,1445.72 480.203,1445.72 481.204,1397.3 482.204,1397.3 483.205,1397.3 484.206,1397.3 485.207,1397.3 486.208,953.637 487.209,953.637 488.209,953.637 489.21,953.638 490.211,953.638 491.212,835.126 492.213,835.126 493.213,835.127 494.214,835.127 495.215,835.127 496.216,546.578 497.217,546.578 498.218,546.578 499.218,546.579 500.219,546.579 501.22,844.284 502.221,844.284 503.222,844.284 504.223,844.285 505.223,844.285 506.224,1029.51 507.225,1029.51 508.226,1029.51 509.227,1029.51 510.228,1029.51 511.228,986.4 512.229,986.401 513.23,986.402 514.231,986.402 515.232,986.403 516.233,819.478 517.233,819.478 518.234,819.478 519.235,819.478 520.236,819.478 521.237,1134.52 522.238,1134.52 523.238,1134.52 524.239,1134.52 525.24,1134.52 526.241,1039.39 527.242,1039.39 528.243,1039.39 529.243,1039.39 530.244,1039.39 531.245,747.696 532.246,747.697 533.247,747.697 534.248,747.697 535.248,747.698 536.249,1143.68 537.25,1143.68 538.251,1143.68 539.252,1143.68 540.253,1143.68 541.253,828.394 542.254,828.394 543.255,828.394 544.256,828.394 545.257,828.394 546.257,519.843 547.258,519.844 548.259,519.844 549.26,519.844 550.261,519.844 551.262,656.176 552.262,656.176 553.263,656.176 554.264,656.177 555.265,656.177 556.266,805.989 557.267,805.989 558.267,805.989 559.268,805.989 560.269,805.989 561.27,751.553 562.271,751.553 563.272,751.553 564.272,751.553 565.273,751.554 566.274,844.769 567.275,844.769 568.276,844.77 569.277,844.77 570.277,844.77 571.278,898.959 572.279,898.959 573.28,898.959 574.281,898.959 575.282,898.96 576.282,1028.06 577.283,1028.06 578.284,1028.06 579.285,1028.06 580.286,1028.06 581.287,754.206 582.287,754.206 583.288,754.206 584.289,754.206 585.29,754.207 586.291,1319.03 587.292,1319.03 588.292,1319.03 589.293,1319.03 590.294,1319.03 591.295,513.344 592.296,513.344 593.296,513.345 594.297,513.345 595.298,513.345 596.299,687.729 597.3,687.729 598.301,687.729 599.301,687.73 600.302,687.73 601.303,259.711 602.304,259.711 603.305,259.711 604.306,259.711 605.306,259.712 606.307,729.389 607.308,729.39 608.309,729.39 609.31,729.39 610.311,729.391 611.311,600.773 612.312,600.773 613.313,600.773 614.314,600.773 615.315,600.773 616.316,1098.88 617.316,1098.88 618.317,1098.88 619.318,1098.88 620.319,1098.88 621.32,664.607 622.321,664.607 623.321,664.608 624.322,664.608 625.323,664.608 626.324,876.079 627.325,876.079 628.326,876.079 629.326,876.079 630.327,876.079 631.328,857.535 632.329,857.535 633.33,857.536 634.331,857.536 635.331,857.537 636.332,530.204 637.333,530.204 638.334,530.205 639.335,530.205 640.336,530.206 641.336,1035.04 642.337,1035.04 643.338,1035.05 644.339,1035.05 645.34,1035.05 646.34,640.997 647.341,640.997 648.342,640.997 649.343,640.997 650.344,640.997 651.345,1200.03 652.345,1200.03 653.346,1200.03 654.347,1200.03 655.348,1200.03 656.349,727.23 657.35,727.23 658.35,727.23 659.351,727.23 660.352,727.231 661.353,219.731 662.354,219.731 663.355,219.731 664.355,219.731 665.356,219.731 666.357,958.214 667.358,958.214 668.359,958.215 669.36,958.215 670.36,958.215 671.361,588.487 672.362,588.487 673.363,588.487 674.364,588.487 675.365,588.487 676.365,1097.91 677.366,1097.91 678.367,1097.91 679.368,1097.91 680.369,1097.91 681.37,993.377 682.37,993.377 683.371,993.378 684.372,993.378 685.373,993.378 686.374,1076 687.375,1076 688.375,1076 689.376,1076 690.377,1076 691.378,989.038 692.379,989.038 693.38,989.038 694.38,989.038 695.381,989.038 696.382,485.65 697.383,485.651 698.384,485.651 699.384,485.652 700.385,485.653 701.386,539.356 702.387,539.356 703.388,539.356 704.389,539.357 705.389,539.357 706.39,622.697 707.391,622.698 708.392,622.698 709.393,622.699 710.394,622.699 711.394,841.401 712.395,841.401 713.396,841.401 714.397,841.402 715.398,841.402 716.399,1128.51 717.399,1128.51 718.4,1128.51 719.401,1128.51 720.402,1128.51 721.403,726.992 722.404,726.992 723.404,726.993 724.405,726.993 725.406,726.993 726.407,1088.76 727.408,1088.76 728.409,1088.76 729.409,1088.76 730.41,1088.76 731.411,695.19 732.412,695.19 733.413,695.19 734.414,695.191 735.414,695.191 736.415,982.538 737.416,982.538 738.417,982.538 739.418,982.539 740.419,982.539 741.419,647.262 742.42,647.263 743.421,647.263 744.422,647.264 745.423,647.264 746.424,1196.42 747.424,1196.42 748.425,1196.42 749.426,1196.42 750.427,1196.43 751.428,990.494 752.428,990.494 753.429,990.494 754.43,990.494 755.431,990.494 756.432,1261.21 757.433,1261.21 758.433,1261.21 759.434,1261.21 760.435,1261.21 761.436,711.574 762.437,711.575 763.438,711.575 764.438,711.575 765.439,711.575 766.44,918.228 767.441,918.228 768.442,918.228 769.443,918.228 770.443,918.228 771.444,983.262 772.445,983.262 773.446,983.262 774.447,983.262 775.448,983.263 776.448,511.423 777.449,511.423 778.45,511.423 779.451,511.423 780.452,511.423 781.453,1221.71 782.453,1221.71 783.454,1221.71 784.455,1221.71 785.456,1221.71 786.457,518.168 787.458,518.168 788.458,518.169 789.459,518.169 790.46,518.169 791.461,868.367 792.462,868.368 793.463,868.368 794.463,868.368 795.464,868.369 796.465,699.77 797.466,699.77 798.467,699.77 799.468,699.77 800.468,699.771 801.469,1032.88 802.47,1032.88 803.471,1032.88 804.472,1032.88 805.472,1032.88 806.473,616.685 807.474,616.685 808.475,616.686 809.476,616.686 810.477,616.686 811.477,797.079 812.478,797.079 813.479,797.079 814.48,797.08 815.481,797.08 816.482,674.232 817.482,674.232 818.483,674.233 819.484,674.233 820.485,674.233 821.486,742.399 822.487,742.399 823.487,742.399 824.488,742.399 825.489,742.399 826.49,832.25 827.491,832.251 828.492,832.251 829.492,832.251 830.493,832.251 831.494,951.709 832.495,951.71 833.496,951.71 834.497,951.71 835.497,951.711 836.498,795.383 837.499,795.384 838.5,795.384 839.501,795.384 840.502,795.384 841.502,626.301 842.503,626.301 843.504,626.301 844.505,626.302 845.506,626.302 846.507,1040.83 847.507,1040.83 848.508,1040.83 849.509,1040.83 850.51,1040.83 851.511,738.305 852.512,738.306 853.512,738.306 854.513,738.306 855.514,738.307 856.515,937.006 857.516,937.006 858.516,937.007 859.517,937.007 860.518,937.008 861.519,554.769 862.52,554.769 863.521,554.769 864.521,554.77 865.522,554.77 866.523,524.664 867.524,524.664 868.525,524.665 869.526,524.665 870.526,524.665 871.527,876.321 872.528,876.321 873.529,876.321 874.53,876.321 875.531,876.322 876.531,764.314 877.532,764.315 878.533,764.315 879.534,764.315 880.535,764.315 881.536,1068.05 882.536,1068.05 883.537,1068.05 884.538,1068.05 885.539,1068.05 886.54,763.604 887.541,763.604 888.541,763.605 889.542,763.605 890.543,763.605 891.544,1080.33 892.545,1080.33 893.546,1080.33 894.546,1080.33 895.547,1080.33 896.548,1303.61 897.549,1303.61 898.55,1303.61 899.551,1303.61 900.551,1303.61 901.552,1050.94 902.553,1050.94 903.554,1050.94 904.555,1050.94 905.556,1050.94 906.556,1222.69 907.557,1222.69 908.558,1222.69 909.559,1222.69 910.56,1222.69 911.56,1184.87 912.561,1184.87 913.562,1184.87 914.563,1184.87 915.564,1184.87 916.565,1141.99 917.565,1141.99 918.566,1141.99 919.567,1141.99 920.568,1141.99 921.569,1309.39 922.57,1309.39 923.57,1309.39 924.571,1309.39 925.572,1309.39 926.573,1103.95 927.574,1103.95 928.575,1103.95 929.575,1103.95 930.576,1103.95 931.577,847.668 932.578,847.668 933.579,847.669 934.58,847.669 935.58,847.669 936.581,979.654 937.582,979.654 938.583,979.654 939.584,979.654 940.585,979.655 941.585,667.974 942.586,667.974 943.587,667.974 944.588,667.974 945.589,667.974 946.59,902.81 947.59,902.81 948.591,902.811 949.592,902.811 950.593,902.811 951.594,868.852 952.595,868.852 953.595,868.852 954.596,868.852 955.597,868.853 956.598,502.024 957.599,502.024 958.6,502.024 959.6,502.024 960.601,502.024 961.602,911.485 962.603,911.485 963.604,911.486 964.604,911.486 965.605,911.486 966.606,580.795 967.607,580.795 968.608,580.795 969.609,580.795 970.609,580.796 971.61,647.015 972.611,647.016 973.612,647.016 974.613,647.016 975.614,647.016 976.614,1024.93 977.615,1024.93 978.616,1024.93 979.617,1024.93 980.618,1024.93 981.619,239.47 982.619,239.47 983.62,239.47 984.621,239.471 985.622,239.471 986.623,1192.09 987.624,1192.09 988.624,1192.09 989.625,1192.1 990.626,1192.1 991.627,839.474 992.628,839.474 993.629,839.475 994.629,839.475 995.63,839.475 996.631,1384.29 997.632,1384.29 998.633,1384.29 999.634,1384.29 1000.63,1384.29 1001.64,726.264 1002.64,726.265 1003.64,726.265 1004.64,726.265 1005.64,726.265 1006.64,1168.73 1007.64,1168.73 1008.64,1168.73 1009.64,1168.73 1010.64,1168.73 1011.64,977.004 1012.64,977.004 1013.65,977.005 1014.65,977.005 1015.65,977.006 1016.65,501.059 1017.65,501.06 1018.65,501.06 1019.65,501.06 1020.65,501.06 1021.65,760.216 1022.65,760.216 1023.65,760.216 1024.65,760.216 1025.66,760.216 1026.66,953.638 1027.66,953.638 1028.66,953.638 1029.66,953.638 1030.66,953.638 1031.66,981.566 1032.66,981.567 1033.66,981.567 1034.66,981.567 1035.66,981.568 1036.66,1030.48 1037.67,1030.48 1038.67,1030.48 1039.67,1030.48 1040.67,1030.48 1041.67,732.536 1042.67,732.536 1043.67,732.537 1044.67,732.537 1045.67,732.538 1046.67,844.525 1047.67,844.525 1048.67,844.525 1049.68,844.525 1050.68,844.525 1051.68,1101.77 1052.68,1101.77 1053.68,1101.77 1054.68,1101.77 1055.68,1101.77 1056.68,830.548 1057.68,830.548 1058.68,830.548 1059.68,830.549 1060.68,830.549 1061.69,835.854 1062.69,835.854 1063.69,835.854 1064.69,835.855 1065.69,835.855 1066.69,886.191 1067.69,886.191 1068.69,886.191 1069.69,886.191 1070.69,886.191 1071.69,777.816 1072.69,777.816 1073.69,777.816 1074.7,777.816 1075.7,777.816 1076.7,640.28 1077.7,640.28 1078.7,640.28 1079.7,640.28 1080.7,640.281 1081.7,594.766 1082.7,594.766 1083.7,594.766 1084.7,594.766 1085.7,594.767 1086.71,730.597 1087.71,730.597 1088.71,730.597 1089.71,730.597 1090.71,730.598 1091.71,798.997 1092.71,798.997 1093.71,798.997 1094.71,798.998 1095.71,798.998 1096.71,1050.46 1097.71,1050.46 1098.72,1050.46 1099.72,1050.46 1100.72,1050.46 1101.72,819.957 1102.72,819.957 1103.72,819.958 1104.72,819.958 1105.72,819.958 1106.72,852.722 1107.72,852.723 1108.72,852.723 1109.72,852.724 1110.73,852.724 1111.73,973.622 1112.73,973.622 1113.73,973.622 1114.73,973.622 1115.73,973.622 1116.73,714.714 1117.73,714.714 1118.73,714.715 1119.73,714.715 1120.73,714.715 1121.73,722.408 1122.74,722.409 1123.74,722.409 1124.74,722.409 1125.74,722.409 1126.74,580.545 1127.74,580.545 1128.74,580.545 1129.74,580.545 1130.74,580.545 1131.74,1330.12 1132.74,1330.12 1133.74,1330.12 1134.75,1330.12 1135.75,1330.12 1136.75,559.102 1137.75,559.102 1138.75,559.102 1139.75,559.102 1140.75,559.103 1141.75,884.263 1142.75,884.263 1143.75,884.264 1144.75,884.264 1145.75,884.265 1146.76,453.609 1147.76,453.609 1148.76,453.609 1149.76,453.609 1150.76,453.609 1151.76,877.273 1152.76,877.274 1153.76,877.274 1154.76,877.275 1155.76,877.275 1156.76,900.665 1157.76,900.665 1158.77,900.666 1159.77,900.666 1160.77,900.667 1161.77,999.653 1162.77,999.654 1163.77,999.655 1164.77,999.655 1165.77,999.656 1166.77,560.072 1167.77,560.072 1168.77,560.073 1169.77,560.073 1170.78,560.073 1171.78,1134.28 1172.78,1134.28 1173.78,1134.28 1174.78,1134.28 1175.78,1134.28 1176.78,1006.62 1177.78,1006.62 1178.78,1006.62 1179.78,1006.62 1180.78,1006.62 1181.78,475.531 1182.79,475.532 1183.79,475.532 1184.79,475.532 1185.79,475.532 1186.79,1012.16 1187.79,1012.16 1188.79,1012.16 1189.79,1012.16 1190.79,1012.16 1191.79,1107.06 1192.79,1107.06 1193.79,1107.06 1194.8,1107.06 1195.8,1107.06 1196.8,840.194 1197.8,840.194 1198.8,840.194 1199.8,840.194 1200.8,840.194 1201.8,1164.4 1202.8,1164.4 1203.8,1164.4 1204.8,1164.4 1205.8,1164.4 1206.81,811.528 1207.81,811.528 1208.81,811.528 1209.81,811.529 1210.81,811.529 1211.81,783.819 1212.81,783.82 1213.81,783.82 1214.81,783.82 1215.81,783.821 1216.81,738.301 1217.81,738.301 1218.82,738.301 1219.82,738.301 1220.82,738.301 1221.82,990.972 1222.82,990.972 1223.82,990.972 1224.82,990.972 1225.82,990.972 1226.82,739.265 1227.82,739.265 1228.82,739.265 1229.82,739.265 1230.83,739.265 1231.83,798.288 1232.83,798.288 1233.83,798.289 1234.83,798.289 1235.83,798.289 1236.83,895.363 1237.83,895.364 1238.83,895.364 1239.83,895.364 1240.83,895.364 1241.83,521.777 1242.84,521.777 1243.84,521.777 1244.84,521.778 1245.84,521.778 1246.84,822.844 1247.84,822.844 1248.84,822.844 1249.84,822.844 1250.84,822.845 1251.84,663.883 1252.84,663.883 1253.84,663.883 1254.85,663.883 1255.85,663.884 1256.85,1016.51 1257.85,1016.51 1258.85,1016.51 1259.85,1016.51 1260.85,1016.51 1261.85,854.162 1262.85,854.162 1263.85,854.162 1264.85,854.162 1265.85,854.163 1266.86,758.56 1267.86,758.561 1268.86,758.561 1269.86,758.561 1270.86,758.562 1271.86,593.789 1272.86,593.789 1273.86,593.789 1274.86,593.789 1275.86,593.789 1276.86,804.54 1277.86,804.54 1278.87,804.54 1279.87,804.54 1280.87,804.54 1281.87,997.237 1282.87,997.237 1283.87,997.237 1284.87,997.237 1285.87,997.237 1286.87,556.472 1287.87,556.472 1288.87,556.472 1289.87,556.472 1290.88,556.473 1291.88,844.774 1292.88,844.775 1293.88,844.775 1294.88,844.775 1295.88,844.776 1296.88,1313.01 1297.88,1313.01 1298.88,1313.01 1299.88,1313.01 1300.88,1313.01 1301.88,838.276 1302.89,838.276 1303.89,838.276 1304.89,838.277 1305.89,838.277 1306.89,1118.61 1307.89,1118.61 1308.89,1118.61 1309.89,1118.61 1310.89,1118.61 1311.89,918.472 1312.89,918.472 1313.89,918.472 1314.9,918.472 1315.9,918.473 1316.9,591.135 1317.9,591.135 1318.9,591.135 1319.9,591.135 1320.9,591.135 1321.9,1013.85 1322.9,1013.85 1323.9,1013.85 1324.9,1013.85 1325.9,1013.85 1326.91,954.119 1327.91,954.119 1328.91,954.119 1329.91,954.12 1330.91,954.12 1331.91,1101.77 1332.91,1101.77 1333.91,1101.78 1334.91,1101.78 1335.91,1101.78 1336.91,1277.35 1337.91,1277.35 1338.91,1277.35 1339.92,1277.35 1340.92,1277.35 1341.92,547.561 1342.92,547.561 1343.92,547.561 1344.92,547.561 1345.92,547.562 1346.92,1030.94 1347.92,1030.94 1348.92,1030.94 1349.92,1030.94 1350.92,1030.94 1351.93,644.852 1352.93,644.852 1353.93,644.852 1354.93,644.853 1355.93,644.853 1356.93,1004.7 1357.93,1004.7 1358.93,1004.7 1359.93,1004.7 1360.93,1004.7 1361.93,938.233 1362.93,938.233 1363.94,938.234 1364.94,938.234 1365.94,938.234 1366.94,885.706 1367.94,885.707 1368.94,885.708 1369.94,885.708 1370.94,885.709 1371.94,741.679 1372.94,741.679 1373.94,741.68 1374.94,741.68 1375.95,741.68 1376.95,841.164 1377.95,841.164 1378.95,841.164 1379.95,841.164 1380.95,841.164 1381.95,828.403 1382.95,828.403 1383.95,828.403 1384.95,828.403 1385.95,828.404 1386.95,685.808 1387.96,685.808 1388.96,685.809 1389.96,685.809 1390.96,685.809 1391.96,959.911 1392.96,959.911 1393.96,959.911 1394.96,959.911 1395.96,959.911 1396.96,810.331 1397.96,810.331 1398.96,810.331 1399.97,810.331 1400.97,810.331 1401.97,1215.24 1402.97,1215.24 1403.97,1215.24 1404.97,1215.24 1405.97,1215.24 1406.97,1063.24 1407.97,1063.24 1408.97,1063.24 1409.97,1063.24 1410.97,1063.24 1411.98,851.033 1412.98,851.033 1413.98,851.033 1414.98,851.033 1415.98,851.034 1416.98,824.788 1417.98,824.788 1418.98,824.789 1419.98,824.789 1420.98,824.789 1421.98,783.834 1422.98,783.835 1423.99,783.835 1424.99,783.835 1425.99,783.835 1426.99,543.471 1427.99,543.471 1428.99,543.471 1429.99,543.472 1430.99,543.472 1431.99,830.334 1432.99,830.334 1433.99,830.335 1434.99,830.335 1436,830.336 1437,713.488 1438,713.488 1439,713.488 1440,713.488 1441,713.488 1442,825.753 1443,825.753 1444,825.754 1445,825.754 1446,825.754 1447,904.478 1448.01,904.478 1449.01,904.479 1450.01,904.479 1451.01,904.479 1452.01,468.55 1453.01,468.55 1454.01,468.55 1455.01,468.551 1456.01,468.551 1457.01,999.87 1458.01,999.87 1459.01,999.871 1460.02,999.871 1461.02,999.871 1462.02,1092.85 1463.02,1092.85 1464.02,1092.85 1465.02,1092.85 1466.02,1092.85 1467.02,1015.55 1468.02,1015.55 1469.02,1015.55 1470.02,1015.55 1471.02,1015.55 1472.03,941.361 1473.03,941.361 1474.03,941.361 1475.03,941.361 1476.03,941.362 1477.03,909.319 1478.03,909.32 1479.03,909.32 1480.03,909.32 1481.03,909.32 1482.03,755.169 1483.03,755.169 1484.04,755.17 1485.04,755.17 1486.04,755.17 1487.04,892.915 1488.04,892.915 1489.04,892.916 1490.04,892.916 1491.04,892.916 1492.04,1301.45 1493.04,1301.45 1494.04,1301.45 1495.04,1301.45 1496.05,1301.45 1497.05,683.38 1498.05,683.38 1499.05,683.38 1500.05,683.38 1501.05,683.381 1502.05,873.437 1503.05,873.437 1504.05,873.438 1505.05,873.438 1506.05,873.438 1507.05,696.873 1508.06,696.874 1509.06,696.874 1510.06,696.874 1511.06,696.874 1512.06,877.997 1513.06,877.997 1514.06,877.998 1515.06,877.998 1516.06,877.999 1517.06,978.213 1518.06,978.214 1519.06,978.214 1520.07,978.214 1521.07,978.215 1522.07,1046.36 1523.07,1046.36 1524.07,1046.36 1525.07,1046.36 1526.07,1046.36 1527.07,499.857 1528.07,499.857 1529.07,499.857 1530.07,499.857 1531.07,499.857 1532.08,707.226 1533.08,707.226 1534.08,707.226 1535.08,707.226 1536.08,707.227 1537.08,608.748 1538.08,608.749 1539.08,608.749 1540.08,608.749 1541.08,608.749 1542.08,836.8 1543.08,836.801 1544.09,836.801 1545.09,836.802 1546.09,836.802 1547.09,960.848 1548.09,960.849 1549.09,960.849 1550.09,960.85 1551.09,960.85 1552.09,658.341 1553.09,658.341 1554.09,658.341 1555.09,658.341 1556.1,658.341 1557.1,747.944 1558.1,747.944 1559.1,747.944 1560.1,747.945 1561.1,747.945 1562.1,805.254 1563.1,805.254 1564.1,805.254 1565.1,805.255 1566.1,805.255 1567.1,706.768 1568.11,706.768 1569.11,706.769 1570.11,706.769 1571.11,706.77 1572.11,841.879 1573.11,841.879 1574.11,841.879 1575.11,841.88 1576.11,841.88 1577.11,913.918 1578.11,913.918 1579.11,913.919 1580.12,913.919 1581.12,913.919 1582.12,931.723 1583.12,931.723 1584.12,931.724 1585.12,931.724 1586.12,931.725 1587.12,767.212 1588.12,767.212 1589.12,767.212 1590.12,767.212 1591.12,767.212 1592.12,782.862 1593.13,782.862 1594.13,782.862 1595.13,782.862 1596.13,782.862 1597.13,897.038 1598.13,897.039 1599.13,897.039 1600.13,897.039 1601.13,897.039 1602.13,645.096 1603.13,645.096 1604.13,645.096 1605.14,645.096 1606.14,645.096 1607.14,972.42 1608.14,972.42 1609.14,972.42 1610.14,972.42 1611.14,972.42 1612.14,701.69 1613.14,701.691 1614.14,701.691 1615.14,701.692 1616.14,701.692 1617.15,669.19 1618.15,669.19 1619.15,669.191 1620.15,669.191 1621.15,669.191 1622.15,474.333 1623.15,474.333 1624.15,474.333 1625.15,474.333 1626.15,474.334 1627.15,1032.17 1628.15,1032.17 1629.16,1032.17 1630.16,1032.17 1631.16,1032.17 1632.16,886.415 1633.16,886.415 1634.16,886.416 1635.16,886.416 1636.16,886.416 1637.16,851.301 1638.16,851.302 1639.16,851.302 1640.16,851.303 1641.17,851.303 1642.17,893.428 1643.17,893.428 1644.17,893.429 1645.17,893.429 1646.17,893.429 1647.17,1194 1648.17,1194 1649.17,1194 1650.17,1194 1651.17,1194 1652.17,722.166 1653.18,722.166 1654.18,722.166 1655.18,722.166 1656.18,722.166 1657.18,835.865 1658.18,835.865 1659.18,835.865 1660.18,835.865 1661.18,835.865 1662.18,820.448 1663.18,820.448 1664.18,820.448 1665.19,820.449 1666.19,820.449 1667.19,642.659 1668.19,642.659 1669.19,642.66 1670.19,642.66 1671.19,642.66 1672.19,850.328 1673.19,850.328 1674.19,850.329 1675.19,850.329 1676.19,850.329 1677.2,649.897 1678.2,649.897 1679.2,649.897 1680.2,649.897 1681.2,649.897 1682.2,1035.53 1683.2,1035.53 1684.2,1035.53 1685.2,1035.53 1686.2,1035.53 1687.2,982.329 1688.2,982.33 1689.21,982.33 1690.21,982.331 1691.21,982.331 1692.21,713 1693.21,713 1694.21,713 1695.21,713 1696.21,713.001 1697.21,1134.99 1698.21,1134.99 1699.21,1134.99 1700.21,1134.99 1701.22,1134.99 1702.22,968.076 1703.22,968.076 1704.22,968.076 1705.22,968.076 1706.22,968.076 1707.22,963.754 1708.22,963.754 1709.22,963.754 1710.22,963.754 1711.22,963.754 1712.22,668.926 1713.23,668.926 1714.23,668.926 1715.23,668.927 1716.23,668.927 1717.23,1075.03 1718.23,1075.03 1719.23,1075.03 1720.23,1075.03 1721.23,1075.03 1722.23,914.364 1723.23,914.364 1724.23,914.364 1725.24,914.365 1726.24,914.365 1727.24,777.805 1728.24,777.805 1729.24,777.805 1730.24,777.805 1731.24,777.805 1732.24,1009.98 1733.24,1009.98 1734.24,1009.99 1735.24,1009.99 1736.24,1009.99 1737.25,1064.42 1738.25,1064.42 1739.25,1064.43 1740.25,1064.43 1741.25,1064.43 1742.25,612.102 1743.25,612.103 1744.25,612.103 1745.25,612.103 1746.25,612.103 1747.25,526.375 1748.25,526.376 1749.26,526.376 1750.26,526.376 1751.26,526.377 1752.26,606.798 1753.26,606.798 1754.26,606.798 1755.26,606.798 1756.26,606.798 1757.26,684.124 1758.26,684.124 1759.26,684.125 1760.26,684.125 1761.27,684.125 1762.27,1147.52 1763.27,1147.52 1764.27,1147.52 1765.27,1147.52 1766.27,1147.52 1767.27,1058.17 1768.27,1058.17 1769.27,1058.17 1770.27,1058.17 1771.27,1058.17 1772.27,798.035 1773.28,798.035 1774.28,798.035 1775.28,798.035 1776.28,798.036 1777.28,859.691 1778.28,859.691 1779.28,859.692 1780.28,859.692 1781.28,859.693 1782.28,936.287 1783.28,936.287 1784.28,936.287 1785.29,936.287 1786.29,936.287 1787.29,614.983 1788.29,614.983 1789.29,614.983 1790.29,614.983 1791.29,614.984 1792.29,747.217 1793.29,747.217 1794.29,747.217 1795.29,747.217 1796.29,747.217 1797.3,868.867 1798.3,868.867 1799.3,868.868 1800.3,868.868 1801.3,868.868 1802.3,843.571 1803.3,843.571 1804.3,843.571 1805.3,843.572 1806.3,843.572 1807.3,807.889 1808.3,807.89 1809.31,807.89 1810.31,807.89 1811.31,807.891 1812.31,860.19 1813.31,860.19 1814.31,860.19 1815.31,860.19 1816.31,860.19 1817.31,609.936 1818.31,609.936 1819.31,609.937 1820.31,609.937 1821.32,609.938 1822.32,1044.9 1823.32,1044.9 1824.32,1044.9 1825.32,1044.9 1826.32,1044.9 1827.32,1075.76 1828.32,1075.76 1829.32,1075.76 1830.32,1075.76 1831.32,1075.76 1832.32,765.022 1833.33,765.023 1834.33,765.023 1835.33,765.024 1836.33,765.024 1837.33,781.891 1838.33,781.891 1839.33,781.891 1840.33,781.892 1841.33,781.892 1842.33,265.255 1843.33,265.255 1844.33,265.255 1845.34,265.255 1846.34,265.255 1847.34,1170.92 1848.34,1170.92 1849.34,1170.92 1850.34,1170.92 1851.34,1170.92 1852.34,985.901 1853.34,985.901 1854.34,985.902 1855.34,985.902 1856.34,985.902 1857.34,764.794 1858.35,764.794 1859.35,764.794 1860.35,764.795 1861.35,764.795 1862.35,1047.81 1863.35,1047.81 1864.35,1047.81 1865.35,1047.81 1866.35,1047.81 1867.35,623.412 1868.35,623.412 1869.35,623.412 1870.36,623.413 1871.36,623.413 1872.36,1009.77 1873.36,1009.77 1874.36,1009.77 1875.36,1009.77 1876.36,1009.77 1877.36,1265.07 1878.36,1265.07 1879.36,1265.07 1880.36,1265.07 1881.36,1265.07 1882.37,619.312 1883.37,619.312 1884.37,619.313 1885.37,619.313 1886.37,619.313 1887.37,778.305 1888.37,778.305 1889.37,778.306 1890.37,778.306 1891.37,778.306 1892.37,700.501 1893.37,700.501 1894.38,700.501 1895.38,700.502 1896.38,700.502 1897.38,875.852 1898.38,875.852 1899.38,875.853 1900.38,875.853 1901.38,875.854 1902.38,1000.86 1903.38,1000.86 1904.38,1000.86 1905.38,1000.86 1906.39,1000.86 1907.39,691.838 1908.39,691.838 1909.39,691.838 1910.39,691.838 1911.39,691.838 1912.39,889.085 1913.39,889.085 1914.39,889.085 1915.39,889.085 1916.39,889.085 1917.39,776.352 1918.4,776.353 1919.4,776.353 1920.4,776.353 1921.4,776.354 1922.4,750.825 1923.4,750.826 1924.4,750.826 1925.4,750.826 1926.4,750.826 1927.4,892.228 1928.4,892.228 1929.4,892.228 1930.41,892.228 1931.41,892.229 1932.41,1175.45 1933.41,1175.45 1934.41,1175.45 1935.41,1175.45 1936.41,1175.45 1937.41,964.463 1938.41,964.463 1939.41,964.464 1940.41,964.464 1941.41,964.465 1942.42,1043.72 1943.42,1043.72 1944.42,1043.72 1945.42,1043.72 1946.42,1043.72 1947.42,872.725 1948.42,872.725 1949.42,872.725 1950.42,872.725 1951.42,872.726 1952.42,1051.91 1953.42,1051.91 1954.43,1051.91 1955.43,1051.91 1956.43,1051.91 1957.43,1418.26 1958.43,1418.26 1959.43,1418.26 1960.43,1418.26 1961.43,1418.26 1962.43,851.985 1963.43,851.985 1964.43,851.985 1965.43,851.986 1966.44,851.986 1967.44,1142.47 1968.44,1142.47 1969.44,1142.47 1970.44,1142.47 1971.44,1142.47 1972.44,1209.42 1973.44,1209.42 1974.44,1209.42 1975.44,1209.42 1976.44,1209.42 1977.44,1122.7 1978.45,1122.7 1979.45,1122.71 1980.45,1122.71 1981.45,1122.71 1982.45,666.519 1983.45,666.519 1984.45,666.519 1985.45,666.519 1986.45,666.519 1987.45,896.799 1988.45,896.799 1989.45,896.8 1990.46,896.8 1991.46,896.8 1992.46,1097.68 1993.46,1097.68 1994.46,1097.68 1995.46,1097.68 1996.46,1097.69 1997.46,380.398 1998.46,380.398 1999.46,380.399 2000.46,380.399 2001.46,380.399 2002.47,649.418 2003.47,649.418 2004.47,649.418 2005.47,649.419 2006.47,649.419 2007.47,1204.61 2008.47,1204.61 2009.47,1204.61 2010.47,1204.61 2011.47,1204.61 2012.47,803.591 2013.47,803.591 2014.48,803.591 2015.48,803.591 2016.48,803.591 2017.48,788.891 2018.48,788.891 2019.48,788.891 2020.48,788.891 2021.48,788.891 2022.48,946.903 2023.48,946.903 2024.48,946.903 2025.48,946.903 2026.49,946.904 2027.49,976.287 2028.49,976.287 2029.49,976.287 2030.49,976.288 2031.49,976.288 2032.49,910.273 2033.49,910.273 2034.49,910.273 2035.49,910.273 2036.49,910.273 2037.49,837.061 2038.5,837.061 2039.5,837.061 2040.5,837.061 2041.5,837.061 2042.5,1060.32 2043.5,1060.32 2044.5,1060.32 2045.5,1060.32 2046.5,1060.32 2047.5,1013.38 2048.5,1013.38 2049.5,1013.38 2050.51,1013.38 2051.51,1013.38 2052.51,755.173 2053.51,755.173 2054.51,755.173 2055.51,755.174 2056.51,755.174 2057.51,869.835 2058.51,869.835 2059.51,869.835 2060.51,869.835 2061.51,869.836 2062.52,1025.44 2063.52,1025.44 2064.52,1025.44 2065.52,1025.44 2066.52,1025.44 2067.52,484.669 2068.52,484.67 2069.52,484.67 2070.52,484.67 2071.52,484.67 2072.52,1119.34 2073.52,1119.34 2074.53,1119.34 2075.53,1119.34 2076.53,1119.34 2077.53,87.9763 2078.53,87.9764 2079.53,87.9766 2080.53,87.9767 2081.53,87.9769 2082.53,1232.54 2083.53,1232.54 2084.53,1232.54 2085.53,1232.54 2086.54,1232.54 2087.54,521.056 2088.54,521.057 2089.54,521.057 2090.54,521.057 2091.54,521.058 2092.54,786.004 2093.54,786.004 2094.54,786.004 2095.54,786.004 2096.54,786.004 2097.54,858.959 2098.55,858.96 2099.55,858.96 2100.55,858.961 2101.55,858.961 2102.55,639.064 2103.55,639.065 2104.55,639.065 2105.55,639.065 2106.55,639.065 2107.55,922.324 2108.55,922.324 2109.55,922.324 2110.56,922.324 2111.56,922.324 2112.56,874.15 2113.56,874.15 2114.56,874.15 2115.56,874.15 2116.56,874.151 2117.56,848.162 2118.56,848.163 2119.56,848.163 2120.56,848.163 2121.56,848.163 2122.56,1170.64 2123.57,1170.64 2124.57,1170.64 2125.57,1170.64 2126.57,1170.64 2127.57,890.768 2128.57,890.768 2129.57,890.768 2130.57,890.768 2131.57,890.768 2132.57,1132.12 2133.57,1132.12 2134.57,1132.12 2135.58,1132.12 2136.58,1132.12 2137.58,1115.27 2138.58,1115.27 2139.58,1115.27 2140.58,1115.27 2141.58,1115.27 2142.58,1133.33 2143.58,1133.33 2144.58,1133.33 2145.58,1133.33 2146.58,1133.33 2147.59,712.318 2148.59,712.319 2149.59,712.319 2150.59,712.319 2151.59,712.319 2152.59,1052.14 2153.59,1052.14 2154.59,1052.14 2155.59,1052.14 2156.59,1052.14 2157.59,809.11 2158.59,809.11 2159.6,809.111 2160.6,809.111 2161.6,809.111 2162.6,1027.13 2163.6,1027.14 2164.6,1027.14 2165.6,1027.14 2166.6,1027.14 2167.6,859.442 2168.6,859.442 2169.6,859.442 2170.6,859.442 2171.61,859.443 2172.61,623.399 2173.61,623.4 2174.61,623.4 2175.61,623.4 2176.61,623.4 2177.61,503.222 2178.61,503.222 2179.61,503.222 2180.61,503.222 2181.61,503.222 2182.61,939.67 2183.62,939.671 2184.62,939.671 2185.62,939.671 2186.62,939.671 2187.62,944.242 2188.62,944.242 2189.62,944.243 2190.62,944.243 2191.62,944.244 2192.62,618.104 2193.62,618.104 2194.62,618.105 2195.63,618.105 2196.63,618.105 2197.63,1028.57 2198.63,1028.57 2199.63,1028.57 2200.63,1028.57 2201.63,1028.57 2202.63,1143.94 2203.63,1143.94 2204.63,1143.94 2205.63,1143.94 2206.63,1143.95 2207.64,1129.2 2208.64,1129.21 2209.64,1129.21 2210.64,1129.21 2211.64,1129.21 2212.64,690.623 2213.64,690.624 2214.64,690.624 2215.64,690.624 2216.64,690.624 2217.64,1043.96 2218.64,1043.96 2219.65,1043.96 2220.65,1043.96 2221.65,1043.96 2222.65,564.628 2223.65,564.628 2224.65,564.628 2225.65,564.628 2226.65,564.629 2227.65,714.959 2228.65,714.959 2229.65,714.959 2230.65,714.959 2231.66,714.96 2232.66,936.049 2233.66,936.049 2234.66,936.049 2235.66,936.05 2236.66,936.05 2237.66,860.894 2238.66,860.894 2239.66,860.895 2240.66,860.895 2241.66,860.895 2242.66,684.13 2243.67,684.13 2244.67,684.13 2245.67,684.13 2246.67,684.131 2247.67,935.086 2248.67,935.086 2249.67,935.086 2250.67,935.087 2251.67,935.087 2252.67,471.674 2253.67,471.674 2254.67,471.674 2255.68,471.675 2256.68,471.675 2257.68,787.208 2258.68,787.208 2259.68,787.208 2260.68,787.208 2261.68,787.209 2262.68,648.954 2263.68,648.954 2264.68,648.954 2265.68,648.954 2266.68,648.954 2267.69,1136.94 2268.69,1136.94 2269.69,1136.94 2270.69,1136.94 2271.69,1136.94 2272.69,355.328 2273.69,355.328 2274.69,355.329 2275.69,355.329 2276.69,355.329 2277.69,995.558 2278.69,995.559 2279.7,995.559 2280.7,995.559 2281.7,995.559 2282.7,874.894 2283.7,874.894 2284.7,874.894 2285.7,874.894 2286.7,874.895 2287.7,798.986 2288.7,798.987 2289.7,798.987 2290.7,798.987 2291.71,798.987 2292.71,798.987 "/>
<path clip-path="url(#clip450)" d="M301.721 198.898 L566.328 198.898 L566.328 95.2176 L301.721 95.2176  Z" fill="#ffffff" fill-rule="evenodd" fill-opacity="1"/>
<polyline clip-path="url(#clip450)" style="stroke:#000000; stroke-linecap:round; stroke-linejoin:round; stroke-width:4; stroke-opacity:1; fill:none" points="301.721,198.898 566.328,198.898 566.328,95.2176 301.721,95.2176 301.721,198.898 "/>
<polyline clip-path="url(#clip450)" style="stroke:#009af9; stroke-linecap:round; stroke-linejoin:round; stroke-width:4; stroke-opacity:1; fill:none" points="325.296,147.058 466.747,147.058 "/>
<path clip-path="url(#clip450)" d="M504.165 166.745 Q502.359 171.375 500.646 172.787 Q498.933 174.199 496.063 174.199 L492.66 174.199 L492.66 170.634 L495.16 170.634 Q496.919 170.634 497.892 169.8 Q498.864 168.967 500.044 165.865 L500.808 163.921 L490.322 138.412 L494.836 138.412 L502.938 158.689 L511.04 138.412 L515.554 138.412 L504.165 166.745 Z" fill="#000000" fill-rule="nonzero" fill-opacity="1" /><path clip-path="url(#clip450)" d="M522.845 160.402 L530.484 160.402 L530.484 134.037 L522.174 135.703 L522.174 131.444 L530.438 129.778 L535.114 129.778 L535.114 160.402 L542.752 160.402 L542.752 164.338 L522.845 164.338 L522.845 160.402 Z" fill="#000000" fill-rule="nonzero" fill-opacity="1" /></svg>
