<?xml version="1.0" encoding="utf-8"?>
<svg xmlns="http://www.w3.org/2000/svg" xmlns:xlink="http://www.w3.org/1999/xlink" width="600" height="400" viewBox="0 0 2400 1600">
<defs>
  <clipPath id="clip790">
    <rect x="0" y="0" width="2400" height="1600"/>
  </clipPath>
</defs>
<path clip-path="url(#clip790)" d="M0 1600 L2400 1600 L2400 0 L0 0  Z" fill="#ffffff" fill-rule="evenodd" fill-opacity="1"/>
<defs>
  <clipPath id="clip791">
    <rect x="480" y="0" width="1681" height="1600"/>
  </clipPath>
</defs>
<path clip-path="url(#clip790)" d="M209.029 1486.45 L2352.76 1486.45 L2352.76 47.2441 L209.029 47.2441  Z" fill="#ffffff" fill-rule="evenodd" fill-opacity="1"/>
<defs>
  <clipPath id="clip792">
    <rect x="209" y="47" width="2145" height="1440"/>
  </clipPath>
</defs>
<polyline clip-path="url(#clip792)" style="stroke:#000000; stroke-linecap:round; stroke-linejoin:round; stroke-width:2; stroke-opacity:0.1; fill:none" points="269.7,1486.45 269.7,47.2441 "/>
<polyline clip-path="url(#clip792)" style="stroke:#000000; stroke-linecap:round; stroke-linejoin:round; stroke-width:2; stroke-opacity:0.1; fill:none" points="775.296,1486.45 775.296,47.2441 "/>
<polyline clip-path="url(#clip792)" style="stroke:#000000; stroke-linecap:round; stroke-linejoin:round; stroke-width:2; stroke-opacity:0.1; fill:none" points="1280.89,1486.45 1280.89,47.2441 "/>
<polyline clip-path="url(#clip792)" style="stroke:#000000; stroke-linecap:round; stroke-linejoin:round; stroke-width:2; stroke-opacity:0.1; fill:none" points="1786.49,1486.45 1786.49,47.2441 "/>
<polyline clip-path="url(#clip792)" style="stroke:#000000; stroke-linecap:round; stroke-linejoin:round; stroke-width:2; stroke-opacity:0.1; fill:none" points="2292.08,1486.45 2292.08,47.2441 "/>
<polyline clip-path="url(#clip790)" style="stroke:#000000; stroke-linecap:round; stroke-linejoin:round; stroke-width:4; stroke-opacity:1; fill:none" points="209.029,1486.45 2352.76,1486.45 "/>
<polyline clip-path="url(#clip790)" style="stroke:#000000; stroke-linecap:round; stroke-linejoin:round; stroke-width:4; stroke-opacity:1; fill:none" points="269.7,1486.45 269.7,1467.55 "/>
<polyline clip-path="url(#clip790)" style="stroke:#000000; stroke-linecap:round; stroke-linejoin:round; stroke-width:4; stroke-opacity:1; fill:none" points="775.296,1486.45 775.296,1467.55 "/>
<polyline clip-path="url(#clip790)" style="stroke:#000000; stroke-linecap:round; stroke-linejoin:round; stroke-width:4; stroke-opacity:1; fill:none" points="1280.89,1486.45 1280.89,1467.55 "/>
<polyline clip-path="url(#clip790)" style="stroke:#000000; stroke-linecap:round; stroke-linejoin:round; stroke-width:4; stroke-opacity:1; fill:none" points="1786.49,1486.45 1786.49,1467.55 "/>
<polyline clip-path="url(#clip790)" style="stroke:#000000; stroke-linecap:round; stroke-linejoin:round; stroke-width:4; stroke-opacity:1; fill:none" points="2292.08,1486.45 2292.08,1467.55 "/>
<path clip-path="url(#clip790)" d="M232.003 1517.37 Q228.392 1517.37 226.564 1520.93 Q224.758 1524.47 224.758 1531.6 Q224.758 1538.71 226.564 1542.27 Q228.392 1545.82 232.003 1545.82 Q235.638 1545.82 237.443 1542.27 Q239.272 1538.71 239.272 1531.6 Q239.272 1524.47 237.443 1520.93 Q235.638 1517.37 232.003 1517.37 M232.003 1513.66 Q237.814 1513.66 240.869 1518.27 Q243.948 1522.85 243.948 1531.6 Q243.948 1540.33 240.869 1544.94 Q237.814 1549.52 232.003 1549.52 Q226.193 1549.52 223.115 1544.94 Q220.059 1540.33 220.059 1531.6 Q220.059 1522.85 223.115 1518.27 Q226.193 1513.66 232.003 1513.66 Z" fill="#000000" fill-rule="nonzero" fill-opacity="1" /><path clip-path="url(#clip790)" d="M252.165 1542.97 L257.05 1542.97 L257.05 1548.85 L252.165 1548.85 L252.165 1542.97 Z" fill="#000000" fill-rule="nonzero" fill-opacity="1" /><path clip-path="url(#clip790)" d="M277.235 1517.37 Q273.624 1517.37 271.795 1520.93 Q269.989 1524.47 269.989 1531.6 Q269.989 1538.71 271.795 1542.27 Q273.624 1545.82 277.235 1545.82 Q280.869 1545.82 282.675 1542.27 Q284.503 1538.71 284.503 1531.6 Q284.503 1524.47 282.675 1520.93 Q280.869 1517.37 277.235 1517.37 M277.235 1513.66 Q283.045 1513.66 286.1 1518.27 Q289.179 1522.85 289.179 1531.6 Q289.179 1540.33 286.1 1544.94 Q283.045 1549.52 277.235 1549.52 Q271.425 1549.52 268.346 1544.94 Q265.29 1540.33 265.29 1531.6 Q265.29 1522.85 268.346 1518.27 Q271.425 1513.66 277.235 1513.66 Z" fill="#000000" fill-rule="nonzero" fill-opacity="1" /><path clip-path="url(#clip790)" d="M307.397 1517.37 Q303.786 1517.37 301.957 1520.93 Q300.151 1524.47 300.151 1531.6 Q300.151 1538.71 301.957 1542.27 Q303.786 1545.82 307.397 1545.82 Q311.031 1545.82 312.836 1542.27 Q314.665 1538.71 314.665 1531.6 Q314.665 1524.47 312.836 1520.93 Q311.031 1517.37 307.397 1517.37 M307.397 1513.66 Q313.207 1513.66 316.262 1518.27 Q319.341 1522.85 319.341 1531.6 Q319.341 1540.33 316.262 1544.94 Q313.207 1549.52 307.397 1549.52 Q301.586 1549.52 298.508 1544.94 Q295.452 1540.33 295.452 1531.6 Q295.452 1522.85 298.508 1518.27 Q301.586 1513.66 307.397 1513.66 Z" fill="#000000" fill-rule="nonzero" fill-opacity="1" /><path clip-path="url(#clip790)" d="M738.097 1517.37 Q734.486 1517.37 732.657 1520.93 Q730.852 1524.47 730.852 1531.6 Q730.852 1538.71 732.657 1542.27 Q734.486 1545.82 738.097 1545.82 Q741.731 1545.82 743.537 1542.27 Q745.366 1538.71 745.366 1531.6 Q745.366 1524.47 743.537 1520.93 Q741.731 1517.37 738.097 1517.37 M738.097 1513.66 Q743.907 1513.66 746.963 1518.27 Q750.042 1522.85 750.042 1531.6 Q750.042 1540.33 746.963 1544.94 Q743.907 1549.52 738.097 1549.52 Q732.287 1549.52 729.208 1544.94 Q726.153 1540.33 726.153 1531.6 Q726.153 1522.85 729.208 1518.27 Q732.287 1513.66 738.097 1513.66 Z" fill="#000000" fill-rule="nonzero" fill-opacity="1" /><path clip-path="url(#clip790)" d="M758.259 1542.97 L763.143 1542.97 L763.143 1548.85 L758.259 1548.85 L758.259 1542.97 Z" fill="#000000" fill-rule="nonzero" fill-opacity="1" /><path clip-path="url(#clip790)" d="M777.356 1544.91 L793.676 1544.91 L793.676 1548.85 L771.731 1548.85 L771.731 1544.91 Q774.393 1542.16 778.977 1537.53 Q783.583 1532.88 784.764 1531.53 Q787.009 1529.01 787.889 1527.27 Q788.791 1525.51 788.791 1523.82 Q788.791 1521.07 786.847 1519.33 Q784.926 1517.6 781.824 1517.6 Q779.625 1517.6 777.171 1518.36 Q774.741 1519.13 771.963 1520.68 L771.963 1515.95 Q774.787 1514.82 777.241 1514.24 Q779.694 1513.66 781.731 1513.66 Q787.102 1513.66 790.296 1516.35 Q793.49 1519.03 793.49 1523.52 Q793.49 1525.65 792.68 1527.57 Q791.893 1529.47 789.787 1532.07 Q789.208 1532.74 786.106 1535.95 Q783.004 1539.15 777.356 1544.91 Z" fill="#000000" fill-rule="nonzero" fill-opacity="1" /><path clip-path="url(#clip790)" d="M803.537 1514.29 L821.893 1514.29 L821.893 1518.22 L807.819 1518.22 L807.819 1526.7 Q808.838 1526.35 809.856 1526.19 Q810.875 1526 811.893 1526 Q817.68 1526 821.06 1529.17 Q824.439 1532.34 824.439 1537.76 Q824.439 1543.34 820.967 1546.44 Q817.495 1549.52 811.176 1549.52 Q809 1549.52 806.731 1549.15 Q804.486 1548.78 802.078 1548.04 L802.078 1543.34 Q804.162 1544.47 806.384 1545.03 Q808.606 1545.58 811.083 1545.58 Q815.088 1545.58 817.426 1543.48 Q819.763 1541.37 819.763 1537.76 Q819.763 1534.15 817.426 1532.04 Q815.088 1529.94 811.083 1529.94 Q809.208 1529.94 807.333 1530.35 Q805.481 1530.77 803.537 1531.65 L803.537 1514.29 Z" fill="#000000" fill-rule="nonzero" fill-opacity="1" /><path clip-path="url(#clip790)" d="M1243.2 1517.37 Q1239.58 1517.37 1237.76 1520.93 Q1235.95 1524.47 1235.95 1531.6 Q1235.95 1538.71 1237.76 1542.27 Q1239.58 1545.82 1243.2 1545.82 Q1246.83 1545.82 1248.64 1542.27 Q1250.46 1538.71 1250.46 1531.6 Q1250.46 1524.47 1248.64 1520.93 Q1246.83 1517.37 1243.2 1517.37 M1243.2 1513.66 Q1249.01 1513.66 1252.06 1518.27 Q1255.14 1522.85 1255.14 1531.6 Q1255.14 1540.33 1252.06 1544.94 Q1249.01 1549.52 1243.2 1549.52 Q1237.39 1549.52 1234.31 1544.94 Q1231.25 1540.33 1231.25 1531.6 Q1231.25 1522.85 1234.31 1518.27 Q1237.39 1513.66 1243.2 1513.66 Z" fill="#000000" fill-rule="nonzero" fill-opacity="1" /><path clip-path="url(#clip790)" d="M1263.36 1542.97 L1268.24 1542.97 L1268.24 1548.85 L1263.36 1548.85 L1263.36 1542.97 Z" fill="#000000" fill-rule="nonzero" fill-opacity="1" /><path clip-path="url(#clip790)" d="M1278.47 1514.29 L1296.83 1514.29 L1296.83 1518.22 L1282.76 1518.22 L1282.76 1526.7 Q1283.77 1526.35 1284.79 1526.19 Q1285.81 1526 1286.83 1526 Q1292.62 1526 1296 1529.17 Q1299.38 1532.34 1299.38 1537.76 Q1299.38 1543.34 1295.9 1546.44 Q1292.43 1549.52 1286.11 1549.52 Q1283.94 1549.52 1281.67 1549.15 Q1279.42 1548.78 1277.01 1548.04 L1277.01 1543.34 Q1279.1 1544.47 1281.32 1545.03 Q1283.54 1545.58 1286.02 1545.58 Q1290.02 1545.58 1292.36 1543.48 Q1294.7 1541.37 1294.7 1537.76 Q1294.7 1534.15 1292.36 1532.04 Q1290.02 1529.94 1286.02 1529.94 Q1284.14 1529.94 1282.27 1530.35 Q1280.42 1530.77 1278.47 1531.65 L1278.47 1514.29 Z" fill="#000000" fill-rule="nonzero" fill-opacity="1" /><path clip-path="url(#clip790)" d="M1318.59 1517.37 Q1314.98 1517.37 1313.15 1520.93 Q1311.34 1524.47 1311.34 1531.6 Q1311.34 1538.71 1313.15 1542.27 Q1314.98 1545.82 1318.59 1545.82 Q1322.22 1545.82 1324.03 1542.27 Q1325.86 1538.71 1325.86 1531.6 Q1325.86 1524.47 1324.03 1520.93 Q1322.22 1517.37 1318.59 1517.37 M1318.59 1513.66 Q1324.4 1513.66 1327.45 1518.27 Q1330.53 1522.85 1330.53 1531.6 Q1330.53 1540.33 1327.45 1544.94 Q1324.4 1549.52 1318.59 1549.52 Q1312.78 1549.52 1309.7 1544.94 Q1306.64 1540.33 1306.64 1531.6 Q1306.64 1522.85 1309.7 1518.27 Q1312.78 1513.66 1318.59 1513.66 Z" fill="#000000" fill-rule="nonzero" fill-opacity="1" /><path clip-path="url(#clip790)" d="M1749.29 1517.37 Q1745.68 1517.37 1743.85 1520.93 Q1742.04 1524.47 1742.04 1531.6 Q1742.04 1538.71 1743.85 1542.27 Q1745.68 1545.82 1749.29 1545.82 Q1752.92 1545.82 1754.73 1542.27 Q1756.56 1538.71 1756.56 1531.6 Q1756.56 1524.47 1754.73 1520.93 Q1752.92 1517.37 1749.29 1517.37 M1749.29 1513.66 Q1755.1 1513.66 1758.16 1518.27 Q1761.23 1522.85 1761.23 1531.6 Q1761.23 1540.33 1758.16 1544.94 Q1755.1 1549.52 1749.29 1549.52 Q1743.48 1549.52 1740.4 1544.94 Q1737.35 1540.33 1737.35 1531.6 Q1737.35 1522.85 1740.4 1518.27 Q1743.48 1513.66 1749.29 1513.66 Z" fill="#000000" fill-rule="nonzero" fill-opacity="1" /><path clip-path="url(#clip790)" d="M1769.45 1542.97 L1774.34 1542.97 L1774.34 1548.85 L1769.45 1548.85 L1769.45 1542.97 Z" fill="#000000" fill-rule="nonzero" fill-opacity="1" /><path clip-path="url(#clip790)" d="M1783.34 1514.29 L1805.56 1514.29 L1805.56 1516.28 L1793.02 1548.85 L1788.13 1548.85 L1799.94 1518.22 L1783.34 1518.22 L1783.34 1514.29 Z" fill="#000000" fill-rule="nonzero" fill-opacity="1" /><path clip-path="url(#clip790)" d="M1814.73 1514.29 L1833.09 1514.29 L1833.09 1518.22 L1819.01 1518.22 L1819.01 1526.7 Q1820.03 1526.35 1821.05 1526.19 Q1822.07 1526 1823.09 1526 Q1828.87 1526 1832.25 1529.17 Q1835.63 1532.34 1835.63 1537.76 Q1835.63 1543.34 1832.16 1546.44 Q1828.69 1549.52 1822.37 1549.52 Q1820.19 1549.52 1817.92 1549.15 Q1815.68 1548.78 1813.27 1548.04 L1813.27 1543.34 Q1815.35 1544.47 1817.58 1545.03 Q1819.8 1545.58 1822.28 1545.58 Q1826.28 1545.58 1828.62 1543.48 Q1830.96 1541.37 1830.96 1537.76 Q1830.96 1534.15 1828.62 1532.04 Q1826.28 1529.94 1822.28 1529.94 Q1820.4 1529.94 1818.53 1530.35 Q1816.67 1530.77 1814.73 1531.65 L1814.73 1514.29 Z" fill="#000000" fill-rule="nonzero" fill-opacity="1" /><path clip-path="url(#clip790)" d="M2244.16 1544.91 L2251.8 1544.91 L2251.8 1518.55 L2243.49 1520.21 L2243.49 1515.95 L2251.75 1514.29 L2256.42 1514.29 L2256.42 1544.91 L2264.06 1544.91 L2264.06 1548.85 L2244.16 1548.85 L2244.16 1544.91 Z" fill="#000000" fill-rule="nonzero" fill-opacity="1" /><path clip-path="url(#clip790)" d="M2273.51 1542.97 L2278.39 1542.97 L2278.39 1548.85 L2273.51 1548.85 L2273.51 1542.97 Z" fill="#000000" fill-rule="nonzero" fill-opacity="1" /><path clip-path="url(#clip790)" d="M2298.58 1517.37 Q2294.97 1517.37 2293.14 1520.93 Q2291.33 1524.47 2291.33 1531.6 Q2291.33 1538.71 2293.14 1542.27 Q2294.97 1545.82 2298.58 1545.82 Q2302.21 1545.82 2304.02 1542.27 Q2305.85 1538.71 2305.85 1531.6 Q2305.85 1524.47 2304.02 1520.93 Q2302.21 1517.37 2298.58 1517.37 M2298.58 1513.66 Q2304.39 1513.66 2307.44 1518.27 Q2310.52 1522.85 2310.52 1531.6 Q2310.52 1540.33 2307.44 1544.94 Q2304.39 1549.52 2298.58 1549.52 Q2292.77 1549.52 2289.69 1544.94 Q2286.63 1540.33 2286.63 1531.6 Q2286.63 1522.85 2289.69 1518.27 Q2292.77 1513.66 2298.58 1513.66 Z" fill="#000000" fill-rule="nonzero" fill-opacity="1" /><path clip-path="url(#clip790)" d="M2328.74 1517.37 Q2325.13 1517.37 2323.3 1520.93 Q2321.49 1524.47 2321.49 1531.6 Q2321.49 1538.71 2323.3 1542.27 Q2325.13 1545.82 2328.74 1545.82 Q2332.37 1545.82 2334.18 1542.27 Q2336.01 1538.71 2336.01 1531.6 Q2336.01 1524.47 2334.18 1520.93 Q2332.37 1517.37 2328.74 1517.37 M2328.74 1513.66 Q2334.55 1513.66 2337.6 1518.27 Q2340.68 1522.85 2340.68 1531.6 Q2340.68 1540.33 2337.6 1544.94 Q2334.55 1549.52 2328.74 1549.52 Q2322.93 1549.52 2319.85 1544.94 Q2316.79 1540.33 2316.79 1531.6 Q2316.79 1522.85 2319.85 1518.27 Q2322.93 1513.66 2328.74 1513.66 Z" fill="#000000" fill-rule="nonzero" fill-opacity="1" /><polyline clip-path="url(#clip792)" style="stroke:#000000; stroke-linecap:round; stroke-linejoin:round; stroke-width:2; stroke-opacity:0.1; fill:none" points="209.029,1278.16 2352.76,1278.16 "/>
<polyline clip-path="url(#clip792)" style="stroke:#000000; stroke-linecap:round; stroke-linejoin:round; stroke-width:2; stroke-opacity:0.1; fill:none" points="209.029,905.708 2352.76,905.708 "/>
<polyline clip-path="url(#clip792)" style="stroke:#000000; stroke-linecap:round; stroke-linejoin:round; stroke-width:2; stroke-opacity:0.1; fill:none" points="209.029,533.256 2352.76,533.256 "/>
<polyline clip-path="url(#clip792)" style="stroke:#000000; stroke-linecap:round; stroke-linejoin:round; stroke-width:2; stroke-opacity:0.1; fill:none" points="209.029,160.804 2352.76,160.804 "/>
<polyline clip-path="url(#clip790)" style="stroke:#000000; stroke-linecap:round; stroke-linejoin:round; stroke-width:4; stroke-opacity:1; fill:none" points="209.029,1486.45 209.029,47.2441 "/>
<polyline clip-path="url(#clip790)" style="stroke:#000000; stroke-linecap:round; stroke-linejoin:round; stroke-width:4; stroke-opacity:1; fill:none" points="209.029,1278.16 227.926,1278.16 "/>
<polyline clip-path="url(#clip790)" style="stroke:#000000; stroke-linecap:round; stroke-linejoin:round; stroke-width:4; stroke-opacity:1; fill:none" points="209.029,905.708 227.926,905.708 "/>
<polyline clip-path="url(#clip790)" style="stroke:#000000; stroke-linecap:round; stroke-linejoin:round; stroke-width:4; stroke-opacity:1; fill:none" points="209.029,533.256 227.926,533.256 "/>
<polyline clip-path="url(#clip790)" style="stroke:#000000; stroke-linecap:round; stroke-linejoin:round; stroke-width:4; stroke-opacity:1; fill:none" points="209.029,160.804 227.926,160.804 "/>
<path clip-path="url(#clip790)" d="M50.9921 1278.61 L80.6679 1278.61 L80.6679 1282.55 L50.9921 1282.55 L50.9921 1278.61 Z" fill="#000000" fill-rule="nonzero" fill-opacity="1" /><path clip-path="url(#clip790)" d="M94.7882 1291.51 L111.108 1291.51 L111.108 1295.44 L89.1632 1295.44 L89.1632 1291.51 Q91.8252 1288.75 96.4085 1284.12 Q101.015 1279.47 102.196 1278.13 Q104.441 1275.6 105.321 1273.87 Q106.223 1272.11 106.223 1270.42 Q106.223 1267.66 104.279 1265.93 Q102.358 1264.19 99.2558 1264.19 Q97.0567 1264.19 94.603 1264.95 Q92.1725 1265.72 89.3947 1267.27 L89.3947 1262.55 Q92.2188 1261.41 94.6724 1260.83 Q97.1261 1260.26 99.1632 1260.26 Q104.534 1260.26 107.728 1262.94 Q110.922 1265.63 110.922 1270.12 Q110.922 1272.25 110.112 1274.17 Q109.325 1276.07 107.219 1278.66 Q106.64 1279.33 103.538 1282.55 Q100.436 1285.74 94.7882 1291.51 Z" fill="#000000" fill-rule="nonzero" fill-opacity="1" /><path clip-path="url(#clip790)" d="M131.501 1276.3 Q128.353 1276.3 126.501 1278.45 Q124.672 1280.6 124.672 1284.35 Q124.672 1288.08 126.501 1290.26 Q128.353 1292.41 131.501 1292.41 Q134.649 1292.41 136.478 1290.26 Q138.33 1288.08 138.33 1284.35 Q138.33 1280.6 136.478 1278.45 Q134.649 1276.3 131.501 1276.3 M140.783 1261.64 L140.783 1265.9 Q139.024 1265.07 137.219 1264.63 Q135.436 1264.19 133.677 1264.19 Q129.047 1264.19 126.594 1267.32 Q124.163 1270.44 123.816 1276.76 Q125.182 1274.75 127.242 1273.68 Q129.302 1272.59 131.779 1272.59 Q136.987 1272.59 139.996 1275.76 Q143.029 1278.91 143.029 1284.35 Q143.029 1289.68 139.881 1292.89 Q136.732 1296.11 131.501 1296.11 Q125.506 1296.11 122.334 1291.53 Q119.163 1286.92 119.163 1278.19 Q119.163 1270 123.052 1265.14 Q126.941 1260.26 133.492 1260.26 Q135.251 1260.26 137.033 1260.6 Q138.839 1260.95 140.783 1261.64 Z" fill="#000000" fill-rule="nonzero" fill-opacity="1" /><path clip-path="url(#clip790)" d="M161.084 1263.96 Q157.473 1263.96 155.644 1267.52 Q153.839 1271.07 153.839 1278.19 Q153.839 1285.3 155.644 1288.87 Q157.473 1292.41 161.084 1292.41 Q164.718 1292.41 166.524 1288.87 Q168.353 1285.3 168.353 1278.19 Q168.353 1271.07 166.524 1267.52 Q164.718 1263.96 161.084 1263.96 M161.084 1260.26 Q166.894 1260.26 169.95 1264.86 Q173.029 1269.44 173.029 1278.19 Q173.029 1286.92 169.95 1291.53 Q166.894 1296.11 161.084 1296.11 Q155.274 1296.11 152.195 1291.53 Q149.14 1286.92 149.14 1278.19 Q149.14 1269.44 152.195 1264.86 Q155.274 1260.26 161.084 1260.26 Z" fill="#000000" fill-rule="nonzero" fill-opacity="1" /><path clip-path="url(#clip790)" d="M50.9921 906.159 L80.6679 906.159 L80.6679 910.095 L50.9921 910.095 L50.9921 906.159 Z" fill="#000000" fill-rule="nonzero" fill-opacity="1" /><path clip-path="url(#clip790)" d="M94.7882 919.053 L111.108 919.053 L111.108 922.988 L89.1632 922.988 L89.1632 919.053 Q91.8252 916.298 96.4085 911.669 Q101.015 907.016 102.196 905.673 Q104.441 903.15 105.321 901.414 Q106.223 899.655 106.223 897.965 Q106.223 895.21 104.279 893.474 Q102.358 891.738 99.2558 891.738 Q97.0567 891.738 94.603 892.502 Q92.1725 893.266 89.3947 894.817 L89.3947 890.095 Q92.2188 888.96 94.6724 888.382 Q97.1261 887.803 99.1632 887.803 Q104.534 887.803 107.728 890.488 Q110.922 893.173 110.922 897.664 Q110.922 899.794 110.112 901.715 Q109.325 903.613 107.219 906.206 Q106.64 906.877 103.538 910.095 Q100.436 913.289 94.7882 919.053 Z" fill="#000000" fill-rule="nonzero" fill-opacity="1" /><path clip-path="url(#clip790)" d="M133.769 892.502 L121.964 910.951 L133.769 910.951 L133.769 892.502 M132.543 888.428 L138.422 888.428 L138.422 910.951 L143.353 910.951 L143.353 914.84 L138.422 914.84 L138.422 922.988 L133.769 922.988 L133.769 914.84 L118.168 914.84 L118.168 910.326 L132.543 888.428 Z" fill="#000000" fill-rule="nonzero" fill-opacity="1" /><path clip-path="url(#clip790)" d="M161.084 891.507 Q157.473 891.507 155.644 895.072 Q153.839 898.613 153.839 905.743 Q153.839 912.849 155.644 916.414 Q157.473 919.956 161.084 919.956 Q164.718 919.956 166.524 916.414 Q168.353 912.849 168.353 905.743 Q168.353 898.613 166.524 895.072 Q164.718 891.507 161.084 891.507 M161.084 887.803 Q166.894 887.803 169.95 892.41 Q173.029 896.993 173.029 905.743 Q173.029 914.47 169.95 919.076 Q166.894 923.659 161.084 923.659 Q155.274 923.659 152.195 919.076 Q149.14 914.47 149.14 905.743 Q149.14 896.993 152.195 892.41 Q155.274 887.803 161.084 887.803 Z" fill="#000000" fill-rule="nonzero" fill-opacity="1" /><path clip-path="url(#clip790)" d="M50.9921 533.707 L80.6679 533.707 L80.6679 537.642 L50.9921 537.642 L50.9921 533.707 Z" fill="#000000" fill-rule="nonzero" fill-opacity="1" /><path clip-path="url(#clip790)" d="M94.7882 546.601 L111.108 546.601 L111.108 550.536 L89.1632 550.536 L89.1632 546.601 Q91.8252 543.846 96.4085 539.217 Q101.015 534.564 102.196 533.221 Q104.441 530.698 105.321 528.962 Q106.223 527.203 106.223 525.513 Q106.223 522.758 104.279 521.022 Q102.358 519.286 99.2558 519.286 Q97.0567 519.286 94.603 520.05 Q92.1725 520.814 89.3947 522.365 L89.3947 517.643 Q92.2188 516.508 94.6724 515.93 Q97.1261 515.351 99.1632 515.351 Q104.534 515.351 107.728 518.036 Q110.922 520.721 110.922 525.212 Q110.922 527.342 110.112 529.263 Q109.325 531.161 107.219 533.754 Q106.64 534.425 103.538 537.642 Q100.436 540.837 94.7882 546.601 Z" fill="#000000" fill-rule="nonzero" fill-opacity="1" /><path clip-path="url(#clip790)" d="M124.95 546.601 L141.269 546.601 L141.269 550.536 L119.325 550.536 L119.325 546.601 Q121.987 543.846 126.57 539.217 Q131.177 534.564 132.357 533.221 Q134.603 530.698 135.482 528.962 Q136.385 527.203 136.385 525.513 Q136.385 522.758 134.441 521.022 Q132.519 519.286 129.418 519.286 Q127.219 519.286 124.765 520.05 Q122.334 520.814 119.557 522.365 L119.557 517.643 Q122.381 516.508 124.834 515.93 Q127.288 515.351 129.325 515.351 Q134.695 515.351 137.89 518.036 Q141.084 520.721 141.084 525.212 Q141.084 527.342 140.274 529.263 Q139.487 531.161 137.381 533.754 Q136.802 534.425 133.7 537.642 Q130.598 540.837 124.95 546.601 Z" fill="#000000" fill-rule="nonzero" fill-opacity="1" /><path clip-path="url(#clip790)" d="M161.084 519.055 Q157.473 519.055 155.644 522.619 Q153.839 526.161 153.839 533.291 Q153.839 540.397 155.644 543.962 Q157.473 547.504 161.084 547.504 Q164.718 547.504 166.524 543.962 Q168.353 540.397 168.353 533.291 Q168.353 526.161 166.524 522.619 Q164.718 519.055 161.084 519.055 M161.084 515.351 Q166.894 515.351 169.95 519.957 Q173.029 524.541 173.029 533.291 Q173.029 542.017 169.95 546.624 Q166.894 551.207 161.084 551.207 Q155.274 551.207 152.195 546.624 Q149.14 542.017 149.14 533.291 Q149.14 524.541 152.195 519.957 Q155.274 515.351 161.084 515.351 Z" fill="#000000" fill-rule="nonzero" fill-opacity="1" /><path clip-path="url(#clip790)" d="M50.9921 161.255 L80.6679 161.255 L80.6679 165.19 L50.9921 165.19 L50.9921 161.255 Z" fill="#000000" fill-rule="nonzero" fill-opacity="1" /><path clip-path="url(#clip790)" d="M94.7882 174.149 L111.108 174.149 L111.108 178.084 L89.1632 178.084 L89.1632 174.149 Q91.8252 171.394 96.4085 166.764 Q101.015 162.112 102.196 160.769 Q104.441 158.246 105.321 156.51 Q106.223 154.751 106.223 153.061 Q106.223 150.306 104.279 148.57 Q102.358 146.834 99.2558 146.834 Q97.0567 146.834 94.603 147.598 Q92.1725 148.362 89.3947 149.913 L89.3947 145.19 Q92.2188 144.056 94.6724 143.477 Q97.1261 142.899 99.1632 142.899 Q104.534 142.899 107.728 145.584 Q110.922 148.269 110.922 152.76 Q110.922 154.889 110.112 156.811 Q109.325 158.709 107.219 161.301 Q106.64 161.973 103.538 165.19 Q100.436 168.385 94.7882 174.149 Z" fill="#000000" fill-rule="nonzero" fill-opacity="1" /><path clip-path="url(#clip790)" d="M130.922 146.602 Q127.311 146.602 125.482 150.167 Q123.677 153.709 123.677 160.838 Q123.677 167.945 125.482 171.51 Q127.311 175.051 130.922 175.051 Q134.556 175.051 136.362 171.51 Q138.191 167.945 138.191 160.838 Q138.191 153.709 136.362 150.167 Q134.556 146.602 130.922 146.602 M130.922 142.899 Q136.732 142.899 139.788 147.505 Q142.867 152.089 142.867 160.838 Q142.867 169.565 139.788 174.172 Q136.732 178.755 130.922 178.755 Q125.112 178.755 122.033 174.172 Q118.978 169.565 118.978 160.838 Q118.978 152.089 122.033 147.505 Q125.112 142.899 130.922 142.899 Z" fill="#000000" fill-rule="nonzero" fill-opacity="1" /><path clip-path="url(#clip790)" d="M161.084 146.602 Q157.473 146.602 155.644 150.167 Q153.839 153.709 153.839 160.838 Q153.839 167.945 155.644 171.51 Q157.473 175.051 161.084 175.051 Q164.718 175.051 166.524 171.51 Q168.353 167.945 168.353 160.838 Q168.353 153.709 166.524 150.167 Q164.718 146.602 161.084 146.602 M161.084 142.899 Q166.894 142.899 169.95 147.505 Q173.029 152.089 173.029 160.838 Q173.029 169.565 169.95 174.172 Q166.894 178.755 161.084 178.755 Q155.274 178.755 152.195 174.172 Q149.14 169.565 149.14 160.838 Q149.14 152.089 152.195 147.505 Q155.274 142.899 161.084 142.899 Z" fill="#000000" fill-rule="nonzero" fill-opacity="1" /><polyline clip-path="url(#clip792)" style="stroke:#009af9; stroke-linecap:round; stroke-linejoin:round; stroke-width:4; stroke-opacity:1; fill:none" points="269.7,1445.72 2292.08,87.9763 "/>
<path clip-path="url(#clip790)" d="M280.486 198.898 L547.289 198.898 L547.289 95.2176 L280.486 95.2176  Z" fill="#ffffff" fill-rule="evenodd" fill-opacity="1"/>
<polyline clip-path="url(#clip790)" style="stroke:#000000; stroke-linecap:round; stroke-linejoin:round; stroke-width:4; stroke-opacity:1; fill:none" points="280.486,198.898 547.289,198.898 547.289,95.2176 280.486,95.2176 280.486,198.898 "/>
<polyline clip-path="url(#clip790)" style="stroke:#009af9; stroke-linecap:round; stroke-linejoin:round; stroke-width:4; stroke-opacity:1; fill:none" points="304.305,147.058 447.22,147.058 "/>
<path clip-path="url(#clip790)" d="M484.882 166.745 Q483.077 171.375 481.364 172.787 Q479.651 174.199 476.78 174.199 L473.378 174.199 L473.378 170.634 L475.878 170.634 Q477.637 170.634 478.609 169.8 Q479.581 168.967 480.762 165.865 L481.526 163.921 L471.04 138.412 L475.554 138.412 L483.655 158.689 L491.757 138.412 L496.271 138.412 L484.882 166.745 Z" fill="#000000" fill-rule="nonzero" fill-opacity="1" /><path clip-path="url(#clip790)" d="M503.563 160.402 L511.201 160.402 L511.201 134.037 L502.891 135.703 L502.891 131.444 L511.155 129.778 L515.831 129.778 L515.831 160.402 L523.47 160.402 L523.47 164.338 L503.563 164.338 L503.563 160.402 Z" fill="#000000" fill-rule="nonzero" fill-opacity="1" /></svg>
