<?xml version="1.0" encoding="utf-8"?>
<svg xmlns="http://www.w3.org/2000/svg" xmlns:xlink="http://www.w3.org/1999/xlink" width="600" height="400" viewBox="0 0 2400 1600">
<defs>
  <clipPath id="clip380">
    <rect x="0" y="0" width="2400" height="1600"/>
  </clipPath>
</defs>
<path clip-path="url(#clip380)" d="M0 1600 L2400 1600 L2400 0 L0 0  Z" fill="#ffffff" fill-rule="evenodd" fill-opacity="1"/>
<defs>
  <clipPath id="clip381">
    <rect x="480" y="0" width="1681" height="1600"/>
  </clipPath>
</defs>
<path clip-path="url(#clip380)" d="M178.867 1486.45 L2352.76 1486.45 L2352.76 47.2441 L178.867 47.2441  Z" fill="#ffffff" fill-rule="evenodd" fill-opacity="1"/>
<defs>
  <clipPath id="clip382">
    <rect x="178" y="47" width="2175" height="1440"/>
  </clipPath>
</defs>
<polyline clip-path="url(#clip382)" style="stroke:#000000; stroke-linecap:round; stroke-linejoin:round; stroke-width:2; stroke-opacity:0.1; fill:none" points="240.392,1486.45 240.392,47.2441 "/>
<polyline clip-path="url(#clip382)" style="stroke:#000000; stroke-linecap:round; stroke-linejoin:round; stroke-width:2; stroke-opacity:0.1; fill:none" points="753.358,1486.45 753.358,47.2441 "/>
<polyline clip-path="url(#clip382)" style="stroke:#000000; stroke-linecap:round; stroke-linejoin:round; stroke-width:2; stroke-opacity:0.1; fill:none" points="1266.32,1486.45 1266.32,47.2441 "/>
<polyline clip-path="url(#clip382)" style="stroke:#000000; stroke-linecap:round; stroke-linejoin:round; stroke-width:2; stroke-opacity:0.1; fill:none" points="1779.29,1486.45 1779.29,47.2441 "/>
<polyline clip-path="url(#clip382)" style="stroke:#000000; stroke-linecap:round; stroke-linejoin:round; stroke-width:2; stroke-opacity:0.1; fill:none" points="2292.26,1486.45 2292.26,47.2441 "/>
<polyline clip-path="url(#clip380)" style="stroke:#000000; stroke-linecap:round; stroke-linejoin:round; stroke-width:4; stroke-opacity:1; fill:none" points="178.867,1486.45 2352.76,1486.45 "/>
<polyline clip-path="url(#clip380)" style="stroke:#000000; stroke-linecap:round; stroke-linejoin:round; stroke-width:4; stroke-opacity:1; fill:none" points="240.392,1486.45 240.392,1467.55 "/>
<polyline clip-path="url(#clip380)" style="stroke:#000000; stroke-linecap:round; stroke-linejoin:round; stroke-width:4; stroke-opacity:1; fill:none" points="753.358,1486.45 753.358,1467.55 "/>
<polyline clip-path="url(#clip380)" style="stroke:#000000; stroke-linecap:round; stroke-linejoin:round; stroke-width:4; stroke-opacity:1; fill:none" points="1266.32,1486.45 1266.32,1467.55 "/>
<polyline clip-path="url(#clip380)" style="stroke:#000000; stroke-linecap:round; stroke-linejoin:round; stroke-width:4; stroke-opacity:1; fill:none" points="1779.29,1486.45 1779.29,1467.55 "/>
<polyline clip-path="url(#clip380)" style="stroke:#000000; stroke-linecap:round; stroke-linejoin:round; stroke-width:4; stroke-opacity:1; fill:none" points="2292.26,1486.45 2292.26,1467.55 "/>
<path clip-path="url(#clip380)" d="M240.392 1517.37 Q236.781 1517.37 234.952 1520.93 Q233.146 1524.47 233.146 1531.6 Q233.146 1538.71 234.952 1542.27 Q236.781 1545.82 240.392 1545.82 Q244.026 1545.82 245.832 1542.27 Q247.66 1538.71 247.66 1531.6 Q247.66 1524.47 245.832 1520.93 Q244.026 1517.37 240.392 1517.37 M240.392 1513.66 Q246.202 1513.66 249.257 1518.27 Q252.336 1522.85 252.336 1531.6 Q252.336 1540.33 249.257 1544.94 Q246.202 1549.52 240.392 1549.52 Q234.582 1549.52 231.503 1544.94 Q228.447 1540.33 228.447 1531.6 Q228.447 1522.85 231.503 1518.27 Q234.582 1513.66 240.392 1513.66 Z" fill="#000000" fill-rule="nonzero" fill-opacity="1" /><path clip-path="url(#clip380)" d="M712.976 1514.29 L731.333 1514.29 L731.333 1518.22 L717.259 1518.22 L717.259 1526.7 Q718.277 1526.35 719.296 1526.19 Q720.314 1526 721.333 1526 Q727.12 1526 730.499 1529.17 Q733.879 1532.34 733.879 1537.76 Q733.879 1543.34 730.407 1546.44 Q726.935 1549.52 720.615 1549.52 Q718.439 1549.52 716.171 1549.15 Q713.925 1548.78 711.518 1548.04 L711.518 1543.34 Q713.601 1544.47 715.823 1545.03 Q718.046 1545.58 720.523 1545.58 Q724.527 1545.58 726.865 1543.48 Q729.203 1541.37 729.203 1537.76 Q729.203 1534.15 726.865 1532.04 Q724.527 1529.94 720.523 1529.94 Q718.648 1529.94 716.773 1530.35 Q714.921 1530.77 712.976 1531.65 L712.976 1514.29 Z" fill="#000000" fill-rule="nonzero" fill-opacity="1" /><path clip-path="url(#clip380)" d="M753.092 1517.37 Q749.481 1517.37 747.652 1520.93 Q745.846 1524.47 745.846 1531.6 Q745.846 1538.71 747.652 1542.27 Q749.481 1545.82 753.092 1545.82 Q756.726 1545.82 758.532 1542.27 Q760.36 1538.71 760.36 1531.6 Q760.36 1524.47 758.532 1520.93 Q756.726 1517.37 753.092 1517.37 M753.092 1513.66 Q758.902 1513.66 761.958 1518.27 Q765.036 1522.85 765.036 1531.6 Q765.036 1540.33 761.958 1544.94 Q758.902 1549.52 753.092 1549.52 Q747.282 1549.52 744.203 1544.94 Q741.147 1540.33 741.147 1531.6 Q741.147 1522.85 744.203 1518.27 Q747.282 1513.66 753.092 1513.66 Z" fill="#000000" fill-rule="nonzero" fill-opacity="1" /><path clip-path="url(#clip380)" d="M783.254 1517.37 Q779.643 1517.37 777.814 1520.93 Q776.008 1524.47 776.008 1531.6 Q776.008 1538.71 777.814 1542.27 Q779.643 1545.82 783.254 1545.82 Q786.888 1545.82 788.693 1542.27 Q790.522 1538.71 790.522 1531.6 Q790.522 1524.47 788.693 1520.93 Q786.888 1517.37 783.254 1517.37 M783.254 1513.66 Q789.064 1513.66 792.119 1518.27 Q795.198 1522.85 795.198 1531.6 Q795.198 1540.33 792.119 1544.94 Q789.064 1549.52 783.254 1549.52 Q777.444 1549.52 774.365 1544.94 Q771.309 1540.33 771.309 1531.6 Q771.309 1522.85 774.365 1518.27 Q777.444 1513.66 783.254 1513.66 Z" fill="#000000" fill-rule="nonzero" fill-opacity="1" /><path clip-path="url(#clip380)" d="M1210.85 1544.91 L1218.49 1544.91 L1218.49 1518.55 L1210.18 1520.21 L1210.18 1515.95 L1218.44 1514.29 L1223.12 1514.29 L1223.12 1544.91 L1230.76 1544.91 L1230.76 1548.85 L1210.85 1548.85 L1210.85 1544.91 Z" fill="#000000" fill-rule="nonzero" fill-opacity="1" /><path clip-path="url(#clip380)" d="M1250.2 1517.37 Q1246.59 1517.37 1244.76 1520.93 Q1242.96 1524.47 1242.96 1531.6 Q1242.96 1538.71 1244.76 1542.27 Q1246.59 1545.82 1250.2 1545.82 Q1253.84 1545.82 1255.64 1542.27 Q1257.47 1538.71 1257.47 1531.6 Q1257.47 1524.47 1255.64 1520.93 Q1253.84 1517.37 1250.2 1517.37 M1250.2 1513.66 Q1256.01 1513.66 1259.07 1518.27 Q1262.15 1522.85 1262.15 1531.6 Q1262.15 1540.33 1259.07 1544.94 Q1256.01 1549.52 1250.2 1549.52 Q1244.39 1549.52 1241.31 1544.94 Q1238.26 1540.33 1238.26 1531.6 Q1238.26 1522.85 1241.31 1518.27 Q1244.39 1513.66 1250.2 1513.66 Z" fill="#000000" fill-rule="nonzero" fill-opacity="1" /><path clip-path="url(#clip380)" d="M1280.36 1517.37 Q1276.75 1517.37 1274.92 1520.93 Q1273.12 1524.47 1273.12 1531.6 Q1273.12 1538.71 1274.92 1542.27 Q1276.75 1545.82 1280.36 1545.82 Q1284 1545.82 1285.8 1542.27 Q1287.63 1538.71 1287.63 1531.6 Q1287.63 1524.47 1285.8 1520.93 Q1284 1517.37 1280.36 1517.37 M1280.36 1513.66 Q1286.17 1513.66 1289.23 1518.27 Q1292.31 1522.85 1292.31 1531.6 Q1292.31 1540.33 1289.23 1544.94 Q1286.17 1549.52 1280.36 1549.52 Q1274.55 1549.52 1271.47 1544.94 Q1268.42 1540.33 1268.42 1531.6 Q1268.42 1522.85 1271.47 1518.27 Q1274.55 1513.66 1280.36 1513.66 Z" fill="#000000" fill-rule="nonzero" fill-opacity="1" /><path clip-path="url(#clip380)" d="M1310.53 1517.37 Q1306.91 1517.37 1305.09 1520.93 Q1303.28 1524.47 1303.28 1531.6 Q1303.28 1538.71 1305.09 1542.27 Q1306.91 1545.82 1310.53 1545.82 Q1314.16 1545.82 1315.97 1542.27 Q1317.79 1538.71 1317.79 1531.6 Q1317.79 1524.47 1315.97 1520.93 Q1314.16 1517.37 1310.53 1517.37 M1310.53 1513.66 Q1316.34 1513.66 1319.39 1518.27 Q1322.47 1522.85 1322.47 1531.6 Q1322.47 1540.33 1319.39 1544.94 Q1316.34 1549.52 1310.53 1549.52 Q1304.72 1549.52 1301.64 1544.94 Q1298.58 1540.33 1298.58 1531.6 Q1298.58 1522.85 1301.64 1518.27 Q1304.72 1513.66 1310.53 1513.66 Z" fill="#000000" fill-rule="nonzero" fill-opacity="1" /><path clip-path="url(#clip380)" d="M1723.82 1544.91 L1731.46 1544.91 L1731.46 1518.55 L1723.14 1520.21 L1723.14 1515.95 L1731.41 1514.29 L1736.08 1514.29 L1736.08 1544.91 L1743.72 1544.91 L1743.72 1548.85 L1723.82 1548.85 L1723.82 1544.91 Z" fill="#000000" fill-rule="nonzero" fill-opacity="1" /><path clip-path="url(#clip380)" d="M1753.21 1514.29 L1771.57 1514.29 L1771.57 1518.22 L1757.5 1518.22 L1757.5 1526.7 Q1758.52 1526.35 1759.53 1526.19 Q1760.55 1526 1761.57 1526 Q1767.36 1526 1770.74 1529.17 Q1774.12 1532.34 1774.12 1537.76 Q1774.12 1543.34 1770.64 1546.44 Q1767.17 1549.52 1760.85 1549.52 Q1758.68 1549.52 1756.41 1549.15 Q1754.16 1548.78 1751.76 1548.04 L1751.76 1543.34 Q1753.84 1544.47 1756.06 1545.03 Q1758.28 1545.58 1760.76 1545.58 Q1764.77 1545.58 1767.1 1543.48 Q1769.44 1541.37 1769.44 1537.76 Q1769.44 1534.15 1767.1 1532.04 Q1764.77 1529.94 1760.76 1529.94 Q1758.89 1529.94 1757.01 1530.35 Q1755.16 1530.77 1753.21 1531.65 L1753.21 1514.29 Z" fill="#000000" fill-rule="nonzero" fill-opacity="1" /><path clip-path="url(#clip380)" d="M1793.33 1517.37 Q1789.72 1517.37 1787.89 1520.93 Q1786.08 1524.47 1786.08 1531.6 Q1786.08 1538.71 1787.89 1542.27 Q1789.72 1545.82 1793.33 1545.82 Q1796.96 1545.82 1798.77 1542.27 Q1800.6 1538.71 1800.6 1531.6 Q1800.6 1524.47 1798.77 1520.93 Q1796.96 1517.37 1793.33 1517.37 M1793.33 1513.66 Q1799.14 1513.66 1802.2 1518.27 Q1805.27 1522.85 1805.27 1531.6 Q1805.27 1540.33 1802.2 1544.94 Q1799.14 1549.52 1793.33 1549.52 Q1787.52 1549.52 1784.44 1544.94 Q1781.39 1540.33 1781.39 1531.6 Q1781.39 1522.85 1784.44 1518.27 Q1787.52 1513.66 1793.33 1513.66 Z" fill="#000000" fill-rule="nonzero" fill-opacity="1" /><path clip-path="url(#clip380)" d="M1823.49 1517.37 Q1819.88 1517.37 1818.05 1520.93 Q1816.25 1524.47 1816.25 1531.6 Q1816.25 1538.71 1818.05 1542.27 Q1819.88 1545.82 1823.49 1545.82 Q1827.13 1545.82 1828.93 1542.27 Q1830.76 1538.71 1830.76 1531.6 Q1830.76 1524.47 1828.93 1520.93 Q1827.13 1517.37 1823.49 1517.37 M1823.49 1513.66 Q1829.3 1513.66 1832.36 1518.27 Q1835.44 1522.85 1835.44 1531.6 Q1835.44 1540.33 1832.36 1544.94 Q1829.3 1549.52 1823.49 1549.52 Q1817.68 1549.52 1814.6 1544.94 Q1811.55 1540.33 1811.55 1531.6 Q1811.55 1522.85 1814.6 1518.27 Q1817.68 1513.66 1823.49 1513.66 Z" fill="#000000" fill-rule="nonzero" fill-opacity="1" /><path clip-path="url(#clip380)" d="M2240.87 1544.91 L2257.19 1544.91 L2257.19 1548.85 L2235.24 1548.85 L2235.24 1544.91 Q2237.91 1542.16 2242.49 1537.53 Q2247.09 1532.88 2248.28 1531.53 Q2250.52 1529.01 2251.4 1527.27 Q2252.3 1525.51 2252.3 1523.82 Q2252.3 1521.07 2250.36 1519.33 Q2248.44 1517.6 2245.34 1517.6 Q2243.14 1517.6 2240.68 1518.36 Q2238.25 1519.13 2235.47 1520.68 L2235.47 1515.95 Q2238.3 1514.82 2240.75 1514.24 Q2243.21 1513.66 2245.24 1513.66 Q2250.61 1513.66 2253.81 1516.35 Q2257 1519.03 2257 1523.52 Q2257 1525.65 2256.19 1527.57 Q2255.41 1529.47 2253.3 1532.07 Q2252.72 1532.74 2249.62 1535.95 Q2246.52 1539.15 2240.87 1544.91 Z" fill="#000000" fill-rule="nonzero" fill-opacity="1" /><path clip-path="url(#clip380)" d="M2277 1517.37 Q2273.39 1517.37 2271.56 1520.93 Q2269.76 1524.47 2269.76 1531.6 Q2269.76 1538.71 2271.56 1542.27 Q2273.39 1545.82 2277 1545.82 Q2280.64 1545.82 2282.44 1542.27 Q2284.27 1538.71 2284.27 1531.6 Q2284.27 1524.47 2282.44 1520.93 Q2280.64 1517.37 2277 1517.37 M2277 1513.66 Q2282.81 1513.66 2285.87 1518.27 Q2288.95 1522.85 2288.95 1531.6 Q2288.95 1540.33 2285.87 1544.94 Q2282.81 1549.52 2277 1549.52 Q2271.19 1549.52 2268.11 1544.94 Q2265.06 1540.33 2265.06 1531.6 Q2265.06 1522.85 2268.11 1518.27 Q2271.19 1513.66 2277 1513.66 Z" fill="#000000" fill-rule="nonzero" fill-opacity="1" /><path clip-path="url(#clip380)" d="M2307.16 1517.37 Q2303.55 1517.37 2301.72 1520.93 Q2299.92 1524.47 2299.92 1531.6 Q2299.92 1538.71 2301.72 1542.27 Q2303.55 1545.82 2307.16 1545.82 Q2310.8 1545.82 2312.6 1542.27 Q2314.43 1538.71 2314.43 1531.6 Q2314.43 1524.47 2312.6 1520.93 Q2310.8 1517.37 2307.16 1517.37 M2307.16 1513.66 Q2312.97 1513.66 2316.03 1518.27 Q2319.11 1522.85 2319.11 1531.6 Q2319.11 1540.33 2316.03 1544.94 Q2312.97 1549.52 2307.16 1549.52 Q2301.35 1549.52 2298.28 1544.94 Q2295.22 1540.33 2295.22 1531.6 Q2295.22 1522.85 2298.28 1518.27 Q2301.35 1513.66 2307.16 1513.66 Z" fill="#000000" fill-rule="nonzero" fill-opacity="1" /><path clip-path="url(#clip380)" d="M2337.33 1517.37 Q2333.71 1517.37 2331.89 1520.93 Q2330.08 1524.47 2330.08 1531.6 Q2330.08 1538.71 2331.89 1542.27 Q2333.71 1545.82 2337.33 1545.82 Q2340.96 1545.82 2342.77 1542.27 Q2344.59 1538.71 2344.59 1531.6 Q2344.59 1524.47 2342.77 1520.93 Q2340.96 1517.37 2337.33 1517.37 M2337.33 1513.66 Q2343.14 1513.66 2346.19 1518.27 Q2349.27 1522.85 2349.27 1531.6 Q2349.27 1540.33 2346.19 1544.94 Q2343.14 1549.52 2337.33 1549.52 Q2331.52 1549.52 2328.44 1544.94 Q2325.38 1540.33 2325.38 1531.6 Q2325.38 1522.85 2328.44 1518.27 Q2331.52 1513.66 2337.33 1513.66 Z" fill="#000000" fill-rule="nonzero" fill-opacity="1" /><polyline clip-path="url(#clip382)" style="stroke:#000000; stroke-linecap:round; stroke-linejoin:round; stroke-width:2; stroke-opacity:0.1; fill:none" points="178.867,1360.07 2352.76,1360.07 "/>
<polyline clip-path="url(#clip382)" style="stroke:#000000; stroke-linecap:round; stroke-linejoin:round; stroke-width:2; stroke-opacity:0.1; fill:none" points="178.867,1132.42 2352.76,1132.42 "/>
<polyline clip-path="url(#clip382)" style="stroke:#000000; stroke-linecap:round; stroke-linejoin:round; stroke-width:2; stroke-opacity:0.1; fill:none" points="178.867,904.777 2352.76,904.777 "/>
<polyline clip-path="url(#clip382)" style="stroke:#000000; stroke-linecap:round; stroke-linejoin:round; stroke-width:2; stroke-opacity:0.1; fill:none" points="178.867,677.132 2352.76,677.132 "/>
<polyline clip-path="url(#clip382)" style="stroke:#000000; stroke-linecap:round; stroke-linejoin:round; stroke-width:2; stroke-opacity:0.1; fill:none" points="178.867,449.487 2352.76,449.487 "/>
<polyline clip-path="url(#clip382)" style="stroke:#000000; stroke-linecap:round; stroke-linejoin:round; stroke-width:2; stroke-opacity:0.1; fill:none" points="178.867,221.842 2352.76,221.842 "/>
<polyline clip-path="url(#clip380)" style="stroke:#000000; stroke-linecap:round; stroke-linejoin:round; stroke-width:4; stroke-opacity:1; fill:none" points="178.867,1486.45 178.867,47.2441 "/>
<polyline clip-path="url(#clip380)" style="stroke:#000000; stroke-linecap:round; stroke-linejoin:round; stroke-width:4; stroke-opacity:1; fill:none" points="178.867,1360.07 197.764,1360.07 "/>
<polyline clip-path="url(#clip380)" style="stroke:#000000; stroke-linecap:round; stroke-linejoin:round; stroke-width:4; stroke-opacity:1; fill:none" points="178.867,1132.42 197.764,1132.42 "/>
<polyline clip-path="url(#clip380)" style="stroke:#000000; stroke-linecap:round; stroke-linejoin:round; stroke-width:4; stroke-opacity:1; fill:none" points="178.867,904.777 197.764,904.777 "/>
<polyline clip-path="url(#clip380)" style="stroke:#000000; stroke-linecap:round; stroke-linejoin:round; stroke-width:4; stroke-opacity:1; fill:none" points="178.867,677.132 197.764,677.132 "/>
<polyline clip-path="url(#clip380)" style="stroke:#000000; stroke-linecap:round; stroke-linejoin:round; stroke-width:4; stroke-opacity:1; fill:none" points="178.867,449.487 197.764,449.487 "/>
<polyline clip-path="url(#clip380)" style="stroke:#000000; stroke-linecap:round; stroke-linejoin:round; stroke-width:4; stroke-opacity:1; fill:none" points="178.867,221.842 197.764,221.842 "/>
<path clip-path="url(#clip380)" d="M50.9921 1360.52 L80.6679 1360.52 L80.6679 1364.45 L50.9921 1364.45 L50.9921 1360.52 Z" fill="#000000" fill-rule="nonzero" fill-opacity="1" /><path clip-path="url(#clip380)" d="M100.76 1360.93 Q97.4271 1360.93 95.5058 1362.72 Q93.6076 1364.5 93.6076 1367.62 Q93.6076 1370.75 95.5058 1372.53 Q97.4271 1374.31 100.76 1374.31 Q104.094 1374.31 106.015 1372.53 Q107.936 1370.73 107.936 1367.62 Q107.936 1364.5 106.015 1362.72 Q104.117 1360.93 100.76 1360.93 M96.0845 1358.94 Q93.0752 1358.2 91.3854 1356.14 Q89.7188 1354.08 89.7188 1351.12 Q89.7188 1346.98 92.6586 1344.57 Q95.6215 1342.16 100.76 1342.16 Q105.922 1342.16 108.862 1344.57 Q111.802 1346.98 111.802 1351.12 Q111.802 1354.08 110.112 1356.14 Q108.446 1358.2 105.459 1358.94 Q108.839 1359.73 110.714 1362.02 Q112.612 1364.31 112.612 1367.62 Q112.612 1372.65 109.533 1375.33 Q106.478 1378.02 100.76 1378.02 Q95.0428 1378.02 91.9641 1375.33 Q88.9086 1372.65 88.9086 1367.62 Q88.9086 1364.31 90.8067 1362.02 Q92.7049 1359.73 96.0845 1358.94 M94.3715 1351.56 Q94.3715 1354.25 96.0382 1355.75 Q97.728 1357.25 100.76 1357.25 Q103.77 1357.25 105.459 1355.75 Q107.172 1354.25 107.172 1351.56 Q107.172 1348.87 105.459 1347.37 Q103.77 1345.87 100.76 1345.87 Q97.728 1345.87 96.0382 1347.37 Q94.3715 1348.87 94.3715 1351.56 Z" fill="#000000" fill-rule="nonzero" fill-opacity="1" /><path clip-path="url(#clip380)" d="M130.922 1345.87 Q127.311 1345.87 125.482 1349.43 Q123.677 1352.97 123.677 1360.1 Q123.677 1367.21 125.482 1370.77 Q127.311 1374.31 130.922 1374.31 Q134.556 1374.31 136.362 1370.77 Q138.191 1367.21 138.191 1360.1 Q138.191 1352.97 136.362 1349.43 Q134.556 1345.87 130.922 1345.87 M130.922 1342.16 Q136.732 1342.16 139.788 1346.77 Q142.867 1351.35 142.867 1360.1 Q142.867 1368.83 139.788 1373.43 Q136.732 1378.02 130.922 1378.02 Q125.112 1378.02 122.033 1373.43 Q118.978 1368.83 118.978 1360.1 Q118.978 1351.35 122.033 1346.77 Q125.112 1342.16 130.922 1342.16 Z" fill="#000000" fill-rule="nonzero" fill-opacity="1" /><path clip-path="url(#clip380)" d="M50.9921 1132.87 L80.6679 1132.87 L80.6679 1136.81 L50.9921 1136.81 L50.9921 1132.87 Z" fill="#000000" fill-rule="nonzero" fill-opacity="1" /><path clip-path="url(#clip380)" d="M89.5799 1115.14 L111.802 1115.14 L111.802 1117.13 L99.2558 1149.7 L94.3715 1149.7 L106.177 1119.08 L89.5799 1119.08 L89.5799 1115.14 Z" fill="#000000" fill-rule="nonzero" fill-opacity="1" /><path clip-path="url(#clip380)" d="M130.922 1118.22 Q127.311 1118.22 125.482 1121.79 Q123.677 1125.33 123.677 1132.46 Q123.677 1139.56 125.482 1143.13 Q127.311 1146.67 130.922 1146.67 Q134.556 1146.67 136.362 1143.13 Q138.191 1139.56 138.191 1132.46 Q138.191 1125.33 136.362 1121.79 Q134.556 1118.22 130.922 1118.22 M130.922 1114.52 Q136.732 1114.52 139.788 1119.12 Q142.867 1123.71 142.867 1132.46 Q142.867 1141.18 139.788 1145.79 Q136.732 1150.37 130.922 1150.37 Q125.112 1150.37 122.033 1145.79 Q118.978 1141.18 118.978 1132.46 Q118.978 1123.71 122.033 1119.12 Q125.112 1114.52 130.922 1114.52 Z" fill="#000000" fill-rule="nonzero" fill-opacity="1" /><path clip-path="url(#clip380)" d="M50.9921 905.228 L80.6679 905.228 L80.6679 909.163 L50.9921 909.163 L50.9921 905.228 Z" fill="#000000" fill-rule="nonzero" fill-opacity="1" /><path clip-path="url(#clip380)" d="M101.339 902.913 Q98.1909 902.913 96.3391 905.066 Q94.5104 907.219 94.5104 910.969 Q94.5104 914.696 96.3391 916.872 Q98.1909 919.024 101.339 919.024 Q104.487 919.024 106.316 916.872 Q108.168 914.696 108.168 910.969 Q108.168 907.219 106.316 905.066 Q104.487 902.913 101.339 902.913 M110.621 888.261 L110.621 892.52 Q108.862 891.687 107.057 891.247 Q105.274 890.807 103.515 890.807 Q98.8854 890.807 96.4317 893.932 Q94.0012 897.057 93.6539 903.376 Q95.0197 901.362 97.0798 900.298 Q99.14 899.21 101.617 899.21 Q106.825 899.21 109.834 902.381 Q112.867 905.529 112.867 910.969 Q112.867 916.293 109.719 919.511 Q106.571 922.728 101.339 922.728 Q95.3437 922.728 92.1725 918.145 Q89.0012 913.538 89.0012 904.812 Q89.0012 896.617 92.89 891.756 Q96.7789 886.872 103.33 886.872 Q105.089 886.872 106.871 887.219 Q108.677 887.566 110.621 888.261 Z" fill="#000000" fill-rule="nonzero" fill-opacity="1" /><path clip-path="url(#clip380)" d="M130.922 890.576 Q127.311 890.576 125.482 894.14 Q123.677 897.682 123.677 904.812 Q123.677 911.918 125.482 915.483 Q127.311 919.024 130.922 919.024 Q134.556 919.024 136.362 915.483 Q138.191 911.918 138.191 904.812 Q138.191 897.682 136.362 894.14 Q134.556 890.576 130.922 890.576 M130.922 886.872 Q136.732 886.872 139.788 891.478 Q142.867 896.062 142.867 904.812 Q142.867 913.538 139.788 918.145 Q136.732 922.728 130.922 922.728 Q125.112 922.728 122.033 918.145 Q118.978 913.538 118.978 904.812 Q118.978 896.062 122.033 891.478 Q125.112 886.872 130.922 886.872 Z" fill="#000000" fill-rule="nonzero" fill-opacity="1" /><path clip-path="url(#clip380)" d="M50.9921 677.583 L80.6679 677.583 L80.6679 681.518 L50.9921 681.518 L50.9921 677.583 Z" fill="#000000" fill-rule="nonzero" fill-opacity="1" /><path clip-path="url(#clip380)" d="M90.8067 659.852 L109.163 659.852 L109.163 663.787 L95.0891 663.787 L95.0891 672.259 Q96.1076 671.912 97.1261 671.75 Q98.1447 671.565 99.1632 671.565 Q104.95 671.565 108.33 674.736 Q111.709 677.907 111.709 683.324 Q111.709 688.903 108.237 692.004 Q104.765 695.083 98.4456 695.083 Q96.2697 695.083 94.0012 694.713 Q91.7558 694.342 89.3484 693.602 L89.3484 688.903 Q91.4317 690.037 93.6539 690.592 Q95.8761 691.148 98.353 691.148 Q102.358 691.148 104.696 689.041 Q107.033 686.935 107.033 683.324 Q107.033 679.713 104.696 677.606 Q102.358 675.5 98.353 675.5 Q96.478 675.5 94.603 675.917 Q92.7512 676.333 90.8067 677.213 L90.8067 659.852 Z" fill="#000000" fill-rule="nonzero" fill-opacity="1" /><path clip-path="url(#clip380)" d="M130.922 662.93 Q127.311 662.93 125.482 666.495 Q123.677 670.037 123.677 677.167 Q123.677 684.273 125.482 687.838 Q127.311 691.379 130.922 691.379 Q134.556 691.379 136.362 687.838 Q138.191 684.273 138.191 677.167 Q138.191 670.037 136.362 666.495 Q134.556 662.93 130.922 662.93 M130.922 659.227 Q136.732 659.227 139.788 663.833 Q142.867 668.417 142.867 677.167 Q142.867 685.893 139.788 690.5 Q136.732 695.083 130.922 695.083 Q125.112 695.083 122.033 690.5 Q118.978 685.893 118.978 677.167 Q118.978 668.417 122.033 663.833 Q125.112 659.227 130.922 659.227 Z" fill="#000000" fill-rule="nonzero" fill-opacity="1" /><path clip-path="url(#clip380)" d="M50.9921 449.938 L80.6679 449.938 L80.6679 453.873 L50.9921 453.873 L50.9921 449.938 Z" fill="#000000" fill-rule="nonzero" fill-opacity="1" /><path clip-path="url(#clip380)" d="M103.608 436.281 L91.8021 454.73 L103.608 454.73 L103.608 436.281 M102.381 432.207 L108.26 432.207 L108.26 454.73 L113.191 454.73 L113.191 458.619 L108.26 458.619 L108.26 466.767 L103.608 466.767 L103.608 458.619 L88.0058 458.619 L88.0058 454.105 L102.381 432.207 Z" fill="#000000" fill-rule="nonzero" fill-opacity="1" /><path clip-path="url(#clip380)" d="M130.922 435.285 Q127.311 435.285 125.482 438.85 Q123.677 442.392 123.677 449.521 Q123.677 456.628 125.482 460.193 Q127.311 463.734 130.922 463.734 Q134.556 463.734 136.362 460.193 Q138.191 456.628 138.191 449.521 Q138.191 442.392 136.362 438.85 Q134.556 435.285 130.922 435.285 M130.922 431.582 Q136.732 431.582 139.788 436.188 Q142.867 440.772 142.867 449.521 Q142.867 458.248 139.788 462.855 Q136.732 467.438 130.922 467.438 Q125.112 467.438 122.033 462.855 Q118.978 458.248 118.978 449.521 Q118.978 440.772 122.033 436.188 Q125.112 431.582 130.922 431.582 Z" fill="#000000" fill-rule="nonzero" fill-opacity="1" /><path clip-path="url(#clip380)" d="M50.9921 222.293 L80.6679 222.293 L80.6679 226.228 L50.9921 226.228 L50.9921 222.293 Z" fill="#000000" fill-rule="nonzero" fill-opacity="1" /><path clip-path="url(#clip380)" d="M104.927 220.488 Q108.283 221.205 110.158 223.474 Q112.057 225.742 112.057 229.075 Q112.057 234.191 108.538 236.992 Q105.02 239.793 98.5382 239.793 Q96.3623 239.793 94.0475 239.353 Q91.7558 238.937 89.3021 238.08 L89.3021 233.566 Q91.2465 234.7 93.5613 235.279 Q95.8761 235.858 98.3993 235.858 Q102.797 235.858 105.089 234.122 Q107.404 232.386 107.404 229.075 Q107.404 226.02 105.251 224.307 Q103.121 222.571 99.3021 222.571 L95.2743 222.571 L95.2743 218.728 L99.4872 218.728 Q102.936 218.728 104.765 217.363 Q106.594 215.974 106.594 213.381 Q106.594 210.719 104.696 209.307 Q102.821 207.872 99.3021 207.872 Q97.3808 207.872 95.1817 208.289 Q92.9826 208.705 90.3438 209.585 L90.3438 205.418 Q93.0058 204.677 95.3206 204.307 Q97.6585 203.937 99.7187 203.937 Q105.043 203.937 108.145 206.367 Q111.246 208.775 111.246 212.895 Q111.246 215.765 109.603 217.756 Q107.959 219.724 104.927 220.488 Z" fill="#000000" fill-rule="nonzero" fill-opacity="1" /><path clip-path="url(#clip380)" d="M130.922 207.64 Q127.311 207.64 125.482 211.205 Q123.677 214.747 123.677 221.876 Q123.677 228.983 125.482 232.548 Q127.311 236.089 130.922 236.089 Q134.556 236.089 136.362 232.548 Q138.191 228.983 138.191 221.876 Q138.191 214.747 136.362 211.205 Q134.556 207.64 130.922 207.64 M130.922 203.937 Q136.732 203.937 139.788 208.543 Q142.867 213.126 142.867 221.876 Q142.867 230.603 139.788 235.21 Q136.732 239.793 130.922 239.793 Q125.112 239.793 122.033 235.21 Q118.978 230.603 118.978 221.876 Q118.978 213.126 122.033 208.543 Q125.112 203.937 130.922 203.937 Z" fill="#000000" fill-rule="nonzero" fill-opacity="1" /><polyline clip-path="url(#clip382)" style="stroke:#009af9; stroke-linecap:round; stroke-linejoin:round; stroke-width:4; stroke-opacity:1; fill:none" points="240.392,406.76 241.418,406.357 242.444,595.283 243.47,595.013 244.496,358.312 245.521,357.867 246.547,326.604 247.573,326.309 248.599,247.359 249.625,247.115 250.651,670.767 251.677,670.121 252.703,342.03 253.729,341.604 254.755,355.865 255.781,355.532 256.807,591.62 257.833,591.338 258.859,246.618 259.885,246.298 260.91,262.831 261.936,262.438 262.962,337.551 263.988,337.344 265.014,495.493 266.04,495.272 267.066,88.1123 268.092,87.9763 269.118,324.069 270.144,323.702 271.17,511.851 272.196,511.673 273.222,444.104 274.248,443.755 275.274,649.5 276.299,649.148 277.325,494.305 278.351,493.632 279.377,392.792 280.403,392.494 281.429,529.088 282.455,528.901 283.481,727.328 284.507,727.092 285.533,464.14 286.559,463.886 287.585,756.445 288.611,755.977 289.637,430.419 290.662,429.984 291.688,522.031 292.714,521.827 293.74,560.001 294.766,559.709 295.792,470.143 296.818,469.847 297.844,342.63 298.87,342.381 299.896,245.168 300.922,244.933 301.948,777.082 302.974,776.304 304,338.636 305.026,338.463 306.051,233.806 307.077,233.311 308.103,157.055 309.129,156.605 310.155,687.45 311.181,687.147 312.207,369.237 313.233,369.05 314.259,309.289 315.285,308.926 316.311,511.483 317.337,511.392 318.363,817.495 319.389,816.636 320.415,488.732 321.44,488.481 322.466,439.022 323.492,438.642 324.518,416.657 325.544,416.474 326.57,703.105 327.596,702.84 328.622,848.605 329.648,847.801 330.674,158.619 331.7,158.224 332.726,395.106 333.752,394.417 334.778,797.977 335.804,797.42 336.829,467.12 337.855,466.738 338.881,701.502 339.907,700.715 340.933,325.747 341.959,325.486 342.985,604.62 344.011,604.388 345.037,628.598 346.063,628.231 347.089,486.934 348.115,486.728 349.141,637.326 350.167,637.041 351.193,453.389 352.218,452.831 353.244,488.718 354.27,488.067 355.296,648.124 356.322,647.458 357.348,834.103 358.374,833.884 359.4,776.676 360.426,776.58 361.452,467.6 362.478,467.448 363.504,708.452 364.53,707.939 365.556,674.887 366.581,674.65 367.607,563.008 368.633,562.78 369.659,502.113 370.685,501.493 371.711,780.06 372.737,779.497 373.763,302.011 374.789,301.822 375.815,639.928 376.841,639.461 377.867,445.581 378.893,445.119 379.919,648.132 380.945,647.727 381.97,582.004 382.996,581.496 384.022,418.961 385.048,418.667 386.074,940.838 387.1,940.655 388.126,862.136 389.152,861.797 390.178,822.657 391.204,822.181 392.23,893.394 393.256,892.603 394.282,183.482 395.308,183.086 396.334,677.706 397.359,677.475 398.385,345.748 399.411,345.473 400.437,585.622 401.463,584.939 402.489,436.509 403.515,436.068 404.541,552.89 405.567,552.765 406.593,284.56 407.619,284.38 408.645,557.103 409.671,556.994 410.697,318.628 411.723,318.412 412.748,524.987 413.774,524.606 414.8,715.528 415.826,715.377 416.852,596.192 417.878,595.919 418.904,559.19 419.93,558.815 420.956,463.51 421.982,462.87 423.008,461.305 424.034,460.982 425.06,335.769 426.086,335.557 427.112,287.387 428.137,287 429.163,462.584 430.189,462.057 431.215,641.412 432.241,641.139 433.267,568.452 434.293,567.967 435.319,428.157 436.345,427.981 437.371,809.471 438.397,809.055 439.423,341.038 440.449,340.763 441.475,527.49 442.5,527.049 443.526,731.202 444.552,730.608 445.578,763.074 446.604,762.564 447.63,505.505 448.656,505.07 449.682,536.827 450.708,536.523 451.734,607.949 452.76,607.646 453.786,561.666 454.812,561.237 455.838,567.984 456.864,567.697 457.889,577.331 458.915,576.684 459.941,406.936 460.967,406.419 461.993,405.296 463.019,405.041 464.045,649.304 465.071,649.137 466.097,602.293 467.123,601.983 468.149,552.595 469.175,552.334 470.201,558.893 471.227,558.232 472.253,554.918 473.278,554.546 474.304,320.536 475.33,320.276 476.356,627.175 477.382,626.38 478.408,283.404 479.434,283.095 480.46,385.241 481.486,384.943 482.512,477.501 483.538,477.293 484.564,493.779 485.59,493.538 486.616,677.664 487.642,677.064 488.667,670.715 489.693,670.059 490.719,886.302 491.745,886.152 492.771,784.312 493.797,783.763 494.823,565.076 495.849,564.766 496.875,720.597 497.901,720.29 498.927,706.065 499.953,705.716 500.979,545.96 502.005,545.59 503.031,461.037 504.056,460.574 505.082,406.867 506.108,406.568 507.134,703.573 508.16,703.519 509.186,477.475 510.212,477.148 511.238,350.401 512.264,350.088 513.29,512.3 514.316,511.943 515.342,819.29 516.368,819.024 517.394,819.589 518.419,819.061 519.445,579.6 520.471,579.167 521.497,624.669 522.523,624.362 523.549,453.202 524.575,453.025 525.601,852.026 526.627,851.602 527.653,597.505 528.679,596.795 529.705,799.371 530.731,798.985 531.757,939.161 532.783,938.221 533.808,599.641 534.834,599.273 535.86,625.729 536.886,625.541 537.912,538.993 538.938,538.741 539.964,965.459 540.99,964.94 542.016,474.289 543.042,474.204 544.068,877.622 545.094,877.016 546.12,690.181 547.146,689.705 548.172,820.333 549.197,820.051 550.223,404.504 551.249,404.223 552.275,694.885 553.301,694.069 554.327,945.412 555.353,944.813 556.379,771.347 557.405,771.038 558.431,560.826 559.457,560.402 560.483,335.575 561.509,335.137 562.535,494.547 563.561,494.281 564.586,789.185 565.612,788.536 566.638,586.813 567.664,586.535 568.69,672.621 569.716,672.412 570.742,584.784 571.768,584.376 572.794,338.946 573.82,338.63 574.846,376.832 575.872,376.714 576.898,396.006 577.924,395.731 578.95,759.857 579.975,759.471 581.001,715.959 582.027,715.553 583.053,658.376 584.079,658.072 585.105,650.715 586.131,650.073 587.157,863.308 588.183,862.93 589.209,732.647 590.235,732.379 591.261,617.876 592.287,617.343 593.313,1212.36 594.338,1211.84 595.364,905.736 596.39,905.14 597.416,873.587 598.442,872.973 599.468,734.235 600.494,733.822 601.52,566.986 602.546,566.721 603.572,736.87 604.598,736.537 605.624,722.418 606.65,722.282 607.676,751.488 608.702,750.926 609.727,382.074 610.753,381.757 611.779,374.234 612.805,373.996 613.831,643.678 614.857,643.44 615.883,816.695 616.909,816.226 617.935,904.084 618.961,903.644 619.987,530.44 621.013,529.994 622.039,695.321 623.065,695.011 624.091,851.424 625.116,850.863 626.142,664.2 627.168,663.964 628.194,573.919 629.22,573.305 630.246,1018.28 631.272,1017.8 632.298,821.741 633.324,821.62 634.35,714.635 635.376,714.222 636.402,702.607 637.428,702.075 638.454,390.018 639.48,389.749 640.505,606.328 641.531,605.895 642.557,729.446 643.583,729.045 644.609,756.657 645.635,756.15 646.661,848.02 647.687,847.766 648.713,680.05 649.739,679.758 650.765,900.334 651.791,899.909 652.817,486.345 653.843,485.97 654.869,835.742 655.894,835.201 656.92,629.332 657.946,629.027 658.972,523.179 659.998,522.805 661.024,802.731 662.05,802.323 663.076,757.267 664.102,756.996 665.128,531.96 666.154,531.757 667.18,816.009 668.206,815.495 669.232,764.985 670.257,764.044 671.283,558.065 672.309,557.838 673.335,668.32 674.361,667.994 675.387,732.188 676.413,731.925 677.439,636.517 678.465,635.727 679.491,512.764 680.517,512.311 681.543,733.142 682.569,732.609 683.595,806.579 684.621,805.677 685.646,1047.73 686.672,1047.38 687.698,734.152 688.724,733.799 689.75,527.68 690.776,527.142 691.802,610.433 692.828,610.284 693.854,883.137 694.88,882.838 695.906,582.627 696.932,582.283 697.958,910.046 698.984,909.665 700.01,869.339 701.035,869.027 702.061,758.814 703.087,758.468 704.113,767.034 705.139,766.272 706.165,636.914 707.191,636.654 708.217,1059.48 709.243,1058.45 710.269,903.4 711.295,902.751 712.321,714.236 713.347,713.986 714.373,818.357 715.399,818.121 716.424,692.231 717.45,691.51 718.476,808.041 719.502,807.377 720.528,618.242 721.554,617.909 722.58,696.011 723.606,695.559 724.632,822.537 725.658,822.191 726.684,879.399 727.71,879.087 728.736,586.183 729.762,585.94 730.788,578.14 731.813,577.782 732.839,546.312 733.865,546.112 734.891,796.201 735.917,795.857 736.943,650.228 737.969,649.798 738.995,587.784 740.021,587.516 741.047,592.176 742.073,592.007 743.099,686.813 744.125,686.432 745.151,608.444 746.176,608.236 747.202,878.565 748.228,878.239 749.254,464.805 750.28,464.516 751.306,952.004 752.332,951.576 753.358,838.718 754.384,838.292 755.41,415.94 756.436,415.628 757.462,923.771 758.488,923.267 759.514,980.224 760.54,980.111 761.565,1041.62 762.591,1040.6 763.617,796.693 764.643,796.573 765.669,941.474 766.695,941.202 767.721,694.072 768.747,693.794 769.773,604.862 770.799,604.309 771.825,957.571 772.851,957.157 773.877,465.661 774.903,465.316 775.929,957.49 776.954,956.811 777.98,726.581 779.006,726.366 780.032,618.176 781.058,617.781 782.084,577.705 783.11,577.419 784.136,809.894 785.162,809.647 786.188,663.389 787.214,662.958 788.24,718.369 789.266,718.153 790.292,636.86 791.318,636.684 792.343,868.482 793.369,868.194 794.395,634.969 795.421,634.399 796.447,713.693 797.473,713.3 798.499,749.949 799.525,749.635 800.551,775.212 801.577,774.499 802.603,579.235 803.629,579.025 804.655,841.661 805.681,841.366 806.707,811.406 807.732,810.895 808.758,666.42 809.784,666.128 810.81,797.726 811.836,797.178 812.862,693.509 813.888,693.207 814.914,724.643 815.94,724.397 816.966,936.304 817.992,935.858 819.018,941.548 820.044,941.278 821.07,682.279 822.095,681.936 823.121,809.98 824.147,809.744 825.173,895.173 826.199,894.886 827.225,590.629 828.251,590.311 829.277,872.558 830.303,872.264 831.329,744.196 832.355,743.871 833.381,1074.54 834.407,1074.08 835.433,1024.74 836.459,1023.63 837.484,748.289 838.51,747.738 839.536,672.396 840.562,672.094 841.588,948.463 842.614,948.135 843.64,822.786 844.666,822.705 845.692,596.004 846.718,595.739 847.744,1047.56 848.77,1046.71 849.796,1260.16 850.822,1259.47 851.848,633.18 852.873,633.062 853.899,699.567 854.925,699.274 855.951,929.079 856.977,928.738 858.003,519.242 859.029,518.689 860.055,576.556 861.081,576.193 862.107,639.295 863.133,639.045 864.159,878.477 865.185,878.195 866.211,815.613 867.237,815.186 868.262,1344.25 869.288,1343.35 870.314,528.215 871.34,527.728 872.366,947.09 873.392,946.802 874.418,948.26 875.444,947.857 876.47,769.914 877.496,769.517 878.522,563.127 879.548,562.763 880.574,969.602 881.6,969.317 882.626,747.742 883.651,747.493 884.677,995.515 885.703,994.796 886.729,733.72 887.755,733.271 888.781,871.3 889.807,870.667 890.833,978.001 891.859,977.545 892.885,728.876 893.911,728.429 894.937,453.413 895.963,453.128 896.989,798.768 898.014,798.421 899.04,673.946 900.066,673.712 901.092,840.845 902.118,840.509 903.144,821.652 904.17,821.321 905.196,751.781 906.222,750.996 907.248,1143.43 908.274,1142.84 909.3,793.098 910.326,792.62 911.352,765.408 912.378,764.978 913.403,841.55 914.429,841.216 915.455,734.27 916.481,733.723 917.507,868.109 918.533,867.622 919.559,744.307 920.585,743.858 921.611,654.195 922.637,653.884 923.663,960.627 924.689,960.102 925.715,755.816 926.741,755.324 927.767,697.749 928.792,697.336 929.818,600.477 930.844,600.274 931.87,902.129 932.896,901.722 933.922,1092.46 934.948,1091.95 935.974,886.071 937,885.827 938.026,570.39 939.052,570.012 940.078,696.098 941.104,695.653 942.13,862.709 943.156,862.434 944.181,997.698 945.207,997.264 946.233,773.489 947.259,772.997 948.285,819.444 949.311,819.052 950.337,694.283 951.363,693.427 952.389,1205.94 953.415,1204.89 954.441,831.856 955.467,831.302 956.493,833.643 957.519,833.14 958.545,847.341 959.57,847.108 960.596,722.581 961.622,722.323 962.648,702.462 963.674,702.275 964.7,596.007 965.726,595.807 966.752,741.067 967.778,740.786 968.804,987.625 969.83,987.431 970.856,897.058 971.882,896.876 972.908,784.374 973.933,784.09 974.959,589.766 975.985,589.287 977.011,644.765 978.037,644.463 979.063,703.122 980.089,702.864 981.115,809.221 982.141,808.931 983.167,712.778 984.193,712.448 985.219,902.642 986.245,901.955 987.271,956.508 988.297,956.193 989.322,820.53 990.348,820.053 991.374,871.703 992.4,871.481 993.426,750.249 994.452,749.938 995.478,793.963 996.504,793.615 997.53,873.227 998.556,872.891 999.582,715.344 1000.61,714.939 1001.63,892.255 1002.66,891.881 1003.69,888.926 1004.71,888.139 1005.74,978.354 1006.76,978.072 1007.79,781.014 1008.82,780.83 1009.84,715.534 1010.87,715.241 1011.89,651.63 1012.92,651.149 1013.94,761.227 1014.97,760.827 1016,851.093 1017.02,850.403 1018.05,1036.03 1019.07,1035.39 1020.1,704.087 1021.13,703.769 1022.15,990.887 1023.18,990.372 1024.2,854.802 1025.23,854.456 1026.26,749.001 1027.28,748.554 1028.31,714.902 1029.33,714.618 1030.36,655.533 1031.39,655.253 1032.41,875.889 1033.44,875.484 1034.46,884.056 1035.49,883.508 1036.52,679.258 1037.54,679.116 1038.57,994.015 1039.59,993.493 1040.62,675.285 1041.65,674.837 1042.67,806.084 1043.7,805.724 1044.72,905.445 1045.75,904.871 1046.77,873.236 1047.8,873.06 1048.83,854.947 1049.85,854.715 1050.88,879.884 1051.9,879.684 1052.93,1256.82 1053.96,1256.5 1054.98,1067.65 1056.01,1067.35 1057.03,700.484 1058.06,700.13 1059.09,910.656 1060.11,910.47 1061.14,993.759 1062.16,993.161 1063.19,705.019 1064.22,704.706 1065.24,1030.2 1066.27,1029.77 1067.29,1069.05 1068.32,1068.62 1069.35,741.238 1070.37,741.057 1071.4,713.736 1072.42,713.583 1073.45,1005.94 1074.47,1005.04 1075.5,1041.86 1076.53,1041.61 1077.55,1089.06 1078.58,1088.31 1079.6,928.698 1080.63,928.41 1081.66,872.315 1082.68,871.901 1083.71,1061.11 1084.73,1060.79 1085.76,854.719 1086.79,854.594 1087.81,868.2 1088.84,867.74 1089.86,1419.47 1090.89,1418.21 1091.92,951.467 1092.94,951.289 1093.97,894.609 1094.99,894.035 1096.02,896.158 1097.05,895.655 1098.07,929.182 1099.1,928.931 1100.12,876.175 1101.15,875.979 1102.18,838.504 1103.2,838.014 1104.23,719.072 1105.25,718.726 1106.28,945.871 1107.3,945.493 1108.33,611.105 1109.36,610.874 1110.38,860.935 1111.41,860.624 1112.43,894.284 1113.46,894.051 1114.49,952.637 1115.51,952.174 1116.54,957.378 1117.56,957.182 1118.59,864.388 1119.62,864.182 1120.64,995.694 1121.67,995.354 1122.69,846.635 1123.72,846.43 1124.75,1043.08 1125.77,1042.94 1126.8,951.019 1127.82,950.754 1128.85,866.673 1129.88,866.337 1130.9,980.058 1131.93,979.833 1132.95,834.174 1133.98,833.964 1135,736.306 1136.03,736.163 1137.06,1125.35 1138.08,1124.7 1139.11,728.523 1140.13,728.262 1141.16,783.434 1142.19,783.012 1143.21,678.834 1144.24,678.428 1145.26,902.566 1146.29,902.333 1147.32,848.031 1148.34,847.815 1149.37,831.21 1150.39,830.833 1151.42,1063.76 1152.45,1063.38 1153.47,707.509 1154.5,707.053 1155.52,949.074 1156.55,948.893 1157.58,1099.83 1158.6,1099.46 1159.63,759.871 1160.65,759.66 1161.68,823.789 1162.71,823.571 1163.73,749.579 1164.76,749.198 1165.78,986.968 1166.81,986.654 1167.83,862.215 1168.86,861.992 1169.89,1030.57 1170.91,1030.27 1171.94,1231.65 1172.96,1230.96 1173.99,1167.41 1175.02,1167.02 1176.04,421.5 1177.07,421.216 1178.09,887.173 1179.12,886.637 1180.15,911.33 1181.17,910.995 1182.2,828.74 1183.22,828.282 1184.25,1069.53 1185.28,1068.85 1186.3,963.471 1187.33,963.297 1188.35,834.598 1189.38,834.445 1190.41,1090.95 1191.43,1090.74 1192.46,749.074 1193.48,748.908 1194.51,912.718 1195.53,912.272 1196.56,1036.04 1197.59,1035.78 1198.61,735.785 1199.64,735.5 1200.66,843.739 1201.69,843.488 1202.72,942.65 1203.74,942.415 1204.77,698.447 1205.79,697.987 1206.82,811.459 1207.85,811.283 1208.87,1085.78 1209.9,1085.36 1210.92,1058.53 1211.95,1058.04 1212.98,1009.74 1214,1009.57 1215.03,846.859 1216.05,846.638 1217.08,1073.01 1218.11,1072.63 1219.13,946.873 1220.16,946.53 1221.18,751.438 1222.21,751.208 1223.24,956.061 1224.26,955.88 1225.29,800.907 1226.31,800.302 1227.34,662.527 1228.36,662.318 1229.39,887.56 1230.42,887.293 1231.44,1046.07 1232.47,1045.58 1233.49,1135.34 1234.52,1134.94 1235.55,947.83 1236.57,947.607 1237.6,794.643 1238.62,794.354 1239.65,1095.43 1240.68,1094.65 1241.7,915.435 1242.73,915.254 1243.75,1022.96 1244.78,1022.75 1245.81,742.449 1246.83,742.277 1247.86,959.364 1248.88,958.942 1249.91,977.651 1250.94,977.379 1251.96,939.359 1252.99,938.975 1254.01,959.359 1255.04,959.055 1256.06,884.873 1257.09,884.615 1258.12,997.314 1259.14,996.926 1260.17,921.792 1261.19,921.647 1262.22,880.393 1263.25,880.058 1264.27,1188.19 1265.3,1187.83 1266.32,1196.97 1267.35,1196.55 1268.38,716.558 1269.4,716.245 1270.43,882.391 1271.45,882.108 1272.48,1086.7 1273.51,1086.34 1274.53,1166.89 1275.56,1166.8 1276.58,1392.12 1277.61,1391.36 1278.64,973.871 1279.66,973.245 1280.69,925.491 1281.71,925.369 1282.74,939.854 1283.77,939.52 1284.79,919.686 1285.82,919.524 1286.84,949.938 1287.87,949.512 1288.89,1175.9 1289.92,1175.84 1290.95,1049.28 1291.97,1048.55 1293,927.346 1294.02,927.144 1295.05,1313.49 1296.08,1312.61 1297.1,1071.73 1298.13,1071.46 1299.15,921.514 1300.18,921.271 1301.21,964.838 1302.23,964.526 1303.26,1249.92 1304.28,1249.4 1305.31,866.399 1306.34,865.758 1307.36,735.89 1308.39,735.777 1309.41,1030.88 1310.44,1030.58 1311.47,1083.37 1312.49,1083.1 1313.52,1090.27 1314.54,1089.92 1315.57,897.114 1316.59,896.7 1317.62,860.09 1318.65,859.611 1319.67,1004.27 1320.7,1003.66 1321.72,934.743 1322.75,934.484 1323.78,707.647 1324.8,707.462 1325.83,1067.76 1326.85,1067.42 1327.88,825.445 1328.91,824.962 1329.93,1005.6 1330.96,1005.37 1331.98,1300.44 1333.01,1299.58 1334.04,895.358 1335.06,895.087 1336.09,935.682 1337.11,935.422 1338.14,887.733 1339.17,887.56 1340.19,952.001 1341.22,951.77 1342.24,1004.18 1343.27,1003.88 1344.3,793.41 1345.32,793.161 1346.35,1244.1 1347.37,1243.68 1348.4,1008.73 1349.42,1008.53 1350.45,973.948 1351.48,973.748 1352.5,694.912 1353.53,694.649 1354.55,1307.04 1355.58,1306.54 1356.61,783.218 1357.63,783.018 1358.66,826.941 1359.68,826.752 1360.71,855.939 1361.74,855.575 1362.76,827.41 1363.79,826.767 1364.81,906.109 1365.84,905.972 1366.87,1020.42 1367.89,1020.21 1368.92,891.092 1369.94,890.538 1370.97,962.09 1372,961.682 1373.02,877.696 1374.05,877.458 1375.07,1050.92 1376.1,1050.69 1377.12,1231 1378.15,1230.54 1379.18,1148.23 1380.2,1147.98 1381.23,763.918 1382.25,763.484 1383.28,1089.77 1384.31,1089.28 1385.33,1083 1386.36,1082.56 1387.38,937.76 1388.41,937.633 1389.44,983.194 1390.46,982.947 1391.49,642.404 1392.51,642.017 1393.54,934.349 1394.57,933.991 1395.59,885.581 1396.62,885.282 1397.64,995.973 1398.67,995.701 1399.7,1019.94 1400.72,1019.41 1401.75,855.694 1402.77,855.345 1403.8,869.964 1404.83,869.839 1405.85,987.324 1406.88,987.173 1407.9,921.665 1408.93,921.487 1409.95,880.863 1410.98,880.431 1412.01,980.689 1413.03,980.326 1414.06,972.272 1415.08,972.045 1416.11,1135.14 1417.14,1134.79 1418.16,958.262 1419.19,958.103 1420.21,1154.38 1421.24,1154.22 1422.27,808.926 1423.29,808.307 1424.32,944.032 1425.34,943.802 1426.37,833.672 1427.4,833.54 1428.42,1113.07 1429.45,1112.88 1430.47,1160.25 1431.5,1159.92 1432.53,1144.57 1433.55,1144.28 1434.58,949.291 1435.6,949.107 1436.63,1059.97 1437.65,1059.8 1438.68,1067.84 1439.71,1067.55 1440.73,938.747 1441.76,938.337 1442.78,1067.59 1443.81,1067.35 1444.84,1079.67 1445.86,1079.48 1446.89,826.423 1447.91,825.953 1448.94,1111.45 1449.97,1111.13 1450.99,1095.84 1452.02,1095.58 1453.04,949.282 1454.07,948.901 1455.1,1118.65 1456.12,1118.4 1457.15,1065 1458.17,1064.83 1459.2,1133.5 1460.23,1133.22 1461.25,1110.09 1462.28,1109.36 1463.3,1140.37 1464.33,1140.1 1465.36,935.427 1466.38,935.288 1467.41,1173.82 1468.43,1173.69 1469.46,1034.25 1470.48,1033.8 1471.51,957.81 1472.54,957.457 1473.56,1095.09 1474.59,1095.06 1475.61,1061.75 1476.64,1061.57 1477.67,1067.11 1478.69,1066.9 1479.72,987.143 1480.74,986.976 1481.77,998.384 1482.8,998.162 1483.82,975.084 1484.85,974.865 1485.87,999.37 1486.9,999.061 1487.93,971.918 1488.95,971.742 1489.98,1165.91 1491,1165.64 1492.03,1109.48 1493.06,1109.32 1494.08,1074.65 1495.11,1074.49 1496.13,850.548 1497.16,850.385 1498.18,1017.39 1499.21,1017.17 1500.24,938.081 1501.26,937.934 1502.29,975.632 1503.31,975.178 1504.34,908.811 1505.37,908.506 1506.39,1229.51 1507.42,1228.94 1508.44,1093.93 1509.47,1093.73 1510.5,963.012 1511.52,962.706 1512.55,798.752 1513.57,798.265 1514.6,953.238 1515.63,953.042 1516.65,1109.48 1517.68,1109.32 1518.7,1188.9 1519.73,1188.6 1520.76,1380.39 1521.78,1380.03 1522.81,942.42 1523.83,942.027 1524.86,1231.51 1525.89,1231.19 1526.91,974.293 1527.94,974.165 1528.96,890.979 1529.99,890.784 1531.01,1182.36 1532.04,1181.97 1533.07,1000.65 1534.09,999.973 1535.12,1053.55 1536.14,1053.07 1537.17,1220.8 1538.2,1220.63 1539.22,1102.75 1540.25,1102.56 1541.27,1218.22 1542.3,1217.9 1543.33,1138.6 1544.35,1138.48 1545.38,843.976 1546.4,843.533 1547.43,1194.27 1548.46,1194.07 1549.48,1010.96 1550.51,1010.74 1551.53,936.308 1552.56,935.791 1553.59,1108.8 1554.61,1108.54 1555.64,916.321 1556.66,916.034 1557.69,1003.62 1558.71,1003.38 1559.74,855.15 1560.77,854.905 1561.79,975.298 1562.82,974.976 1563.84,990.311 1564.87,989.848 1565.9,623.851 1566.92,623.496 1567.95,1025.91 1568.97,1025.65 1570,843.784 1571.03,843.55 1572.05,809.649 1573.08,809.522 1574.1,1138.89 1575.13,1138.59 1576.16,960.622 1577.18,960.428 1578.21,1075.83 1579.23,1075.61 1580.26,1191.8 1581.29,1191.48 1582.31,1137.12 1583.34,1136.87 1584.36,929.261 1585.39,929.068 1586.42,995.238 1587.44,994.807 1588.47,856.624 1589.49,856.414 1590.52,1107.95 1591.54,1107.61 1592.57,1042.6 1593.6,1042.42 1594.62,1131.5 1595.65,1131.28 1596.67,829.71 1597.7,828.984 1598.73,780.239 1599.75,780.083 1600.78,1210.26 1601.8,1210.23 1602.83,1212.24 1603.86,1212.09 1604.88,1070.76 1605.91,1070.45 1606.93,948.187 1607.96,947.827 1608.99,1071.7 1610.01,1071.46 1611.04,859.905 1612.06,859.505 1613.09,980.1 1614.12,979.893 1615.14,772.917 1616.17,772.707 1617.19,1082.44 1618.22,1082.18 1619.24,1109.38 1620.27,1109.21 1621.3,826.696 1622.32,826.197 1623.35,902.783 1624.37,902.18 1625.4,1022.35 1626.43,1021.88 1627.45,911.505 1628.48,911.339 1629.5,1140.56 1630.53,1140.19 1631.56,1253.33 1632.58,1252.8 1633.61,1121.98 1634.63,1121.62 1635.66,1232.7 1636.69,1232.5 1637.71,1109.71 1638.74,1109.54 1639.76,1103.28 1640.79,1103.09 1641.82,932.782 1642.84,932.57 1643.87,1052.51 1644.89,1051.73 1645.92,913.986 1646.95,913.499 1647.97,904.377 1649,904.273 1650.02,1025.11 1651.05,1024.97 1652.07,1124.83 1653.1,1124.6 1654.13,1070.67 1655.15,1070.29 1656.18,1101.51 1657.2,1101.22 1658.23,900.635 1659.26,899.683 1660.28,1033.54 1661.31,1033.4 1662.33,1136.64 1663.36,1136.34 1664.39,1065.76 1665.41,1065.58 1666.44,1105.45 1667.46,1105.25 1668.49,942.396 1669.52,941.922 1670.54,1256.03 1671.57,1255.56 1672.59,1110.06 1673.62,1109.93 1674.65,884.621 1675.67,884.459 1676.7,1154.08 1677.72,1153.98 1678.75,1247.44 1679.78,1247.3 1680.8,1104.17 1681.83,1103.89 1682.85,956.203 1683.88,955.553 1684.9,1278.82 1685.93,1278.35 1686.96,1059.73 1687.98,1059.02 1689.01,1148.67 1690.03,1148.63 1691.06,1046.27 1692.09,1046.11 1693.11,974.007 1694.14,973.714 1695.16,1035.56 1696.19,1035.31 1697.22,1107.66 1698.24,1107.3 1699.27,1219.9 1700.29,1219.57 1701.32,1445.72 1702.35,1445.48 1703.37,1116.84 1704.4,1116.72 1705.42,935.522 1706.45,935.089 1707.48,1180.55 1708.5,1180.31 1709.53,1033.28 1710.55,1032.97 1711.58,1041.38 1712.6,1040.55 1713.63,1269.15 1714.66,1268.95 1715.68,1088.31 1716.71,1088.07 1717.73,956.764 1718.76,956.58 1719.79,874.657 1720.81,874.58 1721.84,1009.39 1722.86,1009.15 1723.89,907.683 1724.92,907.45 1725.94,993.043 1726.97,992.788 1727.99,877.62 1729.02,877.379 1730.05,1193.38 1731.07,1193.23 1732.1,944.36 1733.12,944.243 1734.15,1101.97 1735.18,1101.75 1736.2,1122.47 1737.23,1122.34 1738.25,1036.52 1739.28,1036.37 1740.31,887.912 1741.33,887.636 1742.36,913.502 1743.38,913.337 1744.41,821.997 1745.43,821.626 1746.46,1148.45 1747.49,1147.73 1748.51,1169.54 1749.54,1169.15 1750.56,950.602 1751.59,950.419 1752.62,1062.2 1753.64,1062.11 1754.67,1041.57 1755.69,1041.43 1756.72,872.379 1757.75,872.159 1758.77,1191.72 1759.8,1191.54 1760.82,1235.13 1761.85,1234.97 1762.88,975.373 1763.9,975.154 1764.93,1102.75 1765.95,1102.59 1766.98,1069.91 1768.01,1069.42 1769.03,1224.77 1770.06,1224.51 1771.08,1012.62 1772.11,1012.41 1773.13,984.162 1774.16,984.04 1775.19,1003.84 1776.21,1003.75 1777.24,1144.19 1778.26,1143.8 1779.29,1030.61 1780.32,1030.34 1781.34,1106.4 1782.37,1106.21 1783.39,1070.76 1784.42,1070.72 1785.45,1107.58 1786.47,1107.26 1787.5,807.755 1788.52,807.554 1789.55,694.384 1790.58,694.098 1791.6,1059.12 1792.63,1058.86 1793.65,1129.27 1794.68,1128.93 1795.71,1099.42 1796.73,1099.23 1797.76,895.075 1798.78,894.791 1799.81,991.675 1800.84,991.366 1801.86,1149.14 1802.89,1148.78 1803.91,1072.5 1804.94,1072.06 1805.96,1159.33 1806.99,1158.87 1808.02,1185.74 1809.04,1185.39 1810.07,1254.1 1811.09,1253.9 1812.12,911.695 1813.15,911.429 1814.17,1059.26 1815.2,1059.17 1816.22,1101.4 1817.25,1101.2 1818.28,985.361 1819.3,985.163 1820.33,981.745 1821.35,981.325 1822.38,988.312 1823.41,987.897 1824.43,984.588 1825.46,984.475 1826.48,1005.48 1827.51,1005.38 1828.54,940.973 1829.56,940.843 1830.59,846.788 1831.61,846.621 1832.64,1152.61 1833.66,1152.44 1834.69,1245.6 1835.72,1245.46 1836.74,905.388 1837.77,904.996 1838.79,1113.19 1839.82,1112.94 1840.85,1008.93 1841.87,1008.76 1842.9,1149.81 1843.92,1149.59 1844.95,832.732 1845.98,832.403 1847,776.192 1848.03,776.088 1849.05,1159.16 1850.08,1158.77 1851.11,1138.56 1852.13,1138.37 1853.16,1103.94 1854.18,1103.85 1855.21,960.968 1856.24,960.715 1857.26,1057.07 1858.29,1056.92 1859.31,970.422 1860.34,970.25 1861.37,1215.44 1862.39,1215.37 1863.42,1119.49 1864.44,1119.16 1865.47,1155.53 1866.49,1155.21 1867.52,1029.02 1868.55,1028.8 1869.57,861.755 1870.6,861.512 1871.62,829.663 1872.65,829.432 1873.68,865.983 1874.7,865.86 1875.73,1248.44 1876.75,1248.22 1877.78,997.925 1878.81,997.758 1879.83,1382.71 1880.86,1382.42 1881.88,1119.25 1882.91,1118.75 1883.94,1021.71 1884.96,1021.5 1885.99,936.814 1887.01,936.687 1888.04,1113.06 1889.07,1112.72 1890.09,1150.93 1891.12,1150.73 1892.14,973.263 1893.17,973.111 1894.19,830.024 1895.22,829.774 1896.25,1032.02 1897.27,1031.9 1898.3,1017.54 1899.32,1017.46 1900.35,960.374 1901.38,960.181 1902.4,1125.35 1903.43,1125.2 1904.45,1154.75 1905.48,1154.6 1906.51,1050.07 1907.53,1049.87 1908.56,1202.5 1909.58,1201.82 1910.61,1316.97 1911.64,1316.76 1912.66,1235.86 1913.69,1235.42 1914.71,1126.24 1915.74,1125.96 1916.77,1245.33 1917.79,1245.19 1918.82,1113.99 1919.84,1113.85 1920.87,948.944 1921.9,948.75 1922.92,1073.11 1923.95,1073.05 1924.97,1007.97 1926,1007.79 1927.02,1211.02 1928.05,1210.75 1929.08,1017.85 1930.1,1017.47 1931.13,1070.66 1932.15,1070.54 1933.18,1365.13 1934.21,1364.39 1935.23,1244.14 1936.26,1243.75 1937.28,1150.38 1938.31,1150.29 1939.34,1057.9 1940.36,1057.79 1941.39,1121.95 1942.41,1121.81 1943.44,1091.26 1944.47,1091.01 1945.49,1053.18 1946.52,1053.08 1947.54,922.773 1948.57,922.481 1949.6,1171.06 1950.62,1170.75 1951.65,999.923 1952.67,999.701 1953.7,974.868 1954.72,974.772 1955.75,1018.94 1956.78,1018.8 1957.8,890.23 1958.83,889.773 1959.85,1057.96 1960.88,1057.72 1961.91,911.826 1962.93,911.579 1963.96,1104.74 1964.98,1104.47 1966.01,1157.66 1967.04,1157.57 1968.06,1322.5 1969.09,1322.24 1970.11,1105.41 1971.14,1105.15 1972.17,1162.77 1973.19,1162.62 1974.22,1004.03 1975.24,1003.94 1976.27,895.941 1977.3,895.529 1978.32,1175.78 1979.35,1175.67 1980.37,1044.09 1981.4,1043.97 1982.43,1053.55 1983.45,1053.42 1984.48,914.252 1985.5,914.168 1986.53,1035.78 1987.55,1035.54 1988.58,1000.94 1989.61,1000.8 1990.63,931.105 1991.66,930.897 1992.68,799.431 1993.71,799.219 1994.74,920.917 1995.76,920.73 1996.79,925.032 1997.81,924.632 1998.84,1308.48 1999.87,1308.4 2000.89,1042.19 2001.92,1042.07 2002.94,1109.57 2003.97,1109.38 2005,1117.12 2006.02,1116.7 2007.05,1149.76 2008.07,1149.45 2009.1,1064.19 2010.13,1063.88 2011.15,1101.24 2012.18,1101.04 2013.2,1281.52 2014.23,1281.39 2015.25,1258.4 2016.28,1258.29 2017.31,966.625 2018.33,966.323 2019.36,1020.17 2020.38,1019.83 2021.41,1351.2 2022.44,1350.66 2023.46,1009.63 2024.49,1009.43 2025.51,1100.28 2026.54,1099.98 2027.57,1076.16 2028.59,1076.04 2029.62,1142.4 2030.64,1142.3 2031.67,1123.22 2032.7,1123.08 2033.72,1443.25 2034.75,1442.91 2035.77,948.307 2036.8,947.923 2037.83,1279.78 2038.85,1279.49 2039.88,1224.4 2040.9,1224.13 2041.93,1355.39 2042.96,1354.81 2043.98,1170.23 2045.01,1169.96 2046.03,1384.27 2047.06,1383.66 2048.08,1241.4 2049.11,1241.16 2050.14,1100.53 2051.16,1100.24 2052.19,1014.45 2053.21,1014.14 2054.24,1026.63 2055.27,1026.52 2056.29,1052.05 2057.32,1051.97 2058.34,1133.58 2059.37,1133.4 2060.4,961.9 2061.42,961.778 2062.45,1140.39 2063.47,1140.18 2064.5,1229.06 2065.53,1228.84 2066.55,1092.15 2067.58,1091.94 2068.6,1180.74 2069.63,1180.65 2070.66,1088.87 2071.68,1088.7 2072.71,1110.08 2073.73,1109.96 2074.76,1215.2 2075.78,1215.12 2076.81,817.975 2077.84,817.681 2078.86,1106.75 2079.89,1106.58 2080.91,1304.49 2081.94,1304.22 2082.97,1016.91 2083.99,1016.77 2085.02,1046.2 2086.04,1045.99 2087.07,1168.22 2088.1,1167.71 2089.12,1082.39 2090.15,1082.15 2091.17,919.599 2092.2,919.561 2093.23,1097.91 2094.25,1097.81 2095.28,1170.74 2096.3,1170.65 2097.33,1135.77 2098.36,1135.56 2099.38,1092.24 2100.41,1092.11 2101.43,1251.08 2102.46,1250.92 2103.49,994.655 2104.51,994.142 2105.54,1146.34 2106.56,1146.28 2107.59,1102.52 2108.61,1102.28 2109.64,1217 2110.67,1216.79 2111.69,1119.2 2112.72,1119.12 2113.74,1123.19 2114.77,1123 2115.8,1126.36 2116.82,1126.29 2117.85,1101.28 2118.87,1101.1 2119.9,1163.54 2120.93,1163.37 2121.95,1085.19 2122.98,1085.09 2124,1273.64 2125.03,1273.45 2126.06,1220.41 2127.08,1220.16 2128.11,1027.25 2129.13,1027.04 2130.16,1149.81 2131.19,1149.65 2132.21,1315.58 2133.24,1315.22 2134.26,1010.09 2135.29,1009.95 2136.31,832.122 2137.34,831.884 2138.37,1194.17 2139.39,1194.03 2140.42,1175.01 2141.44,1174.86 2142.47,1155.03 2143.5,1154.66 2144.52,1341.94 2145.55,1341.45 2146.57,1127.37 2147.6,1127.19 2148.63,1067.92 2149.65,1067.66 2150.68,913.96 2151.7,913.661 2152.73,1344.56 2153.76,1344.45 2154.78,1084.17 2155.81,1084.03 2156.83,1295.58 2157.86,1295.46 2158.89,1074.36 2159.91,1074.16 2160.94,1089.95 2161.96,1089.74 2162.99,1217.72 2164.02,1217.44 2165.04,1246.72 2166.07,1246.56 2167.09,1159.76 2168.12,1159.55 2169.14,995.207 2170.17,994.869 2171.2,1095.77 2172.22,1095.31 2173.25,1405.32 2174.27,1405.05 2175.3,1087.01 2176.33,1086.69 2177.35,1070.43 2178.38,1070.33 2179.4,1265.35 2180.43,1264.76 2181.46,1061.13 2182.48,1061 2183.51,1215.62 2184.53,1215.23 2185.56,1254.69 2186.59,1254.43 2187.61,968.744 2188.64,968.61 2189.66,997.157 2190.69,997.021 2191.72,1193.02 2192.74,1192.69 2193.77,1180.86 2194.79,1180.78 2195.82,805.016 2196.84,803.831 2197.87,1060.88 2198.9,1060.75 2199.92,1427.11 2200.95,1426.9 2201.97,1230.03 2203,1229.64 2204.03,1014.36 2205.05,1014.23 2206.08,1280.94 2207.1,1280.57 2208.13,1148.63 2209.16,1148.4 2210.18,1270.63 2211.21,1270.53 2212.23,987.312 2213.26,987.216 2214.29,1010.05 2215.31,1009.75 2216.34,1388.65 2217.36,1388.24 2218.39,1105.86 2219.42,1105.44 2220.44,1385.03 2221.47,1384.59 2222.49,1112.7 2223.52,1112.54 2224.55,1125.27 2225.57,1125.14 2226.6,1098.83 2227.62,1098.65 2228.65,1178.09 2229.67,1177.94 2230.7,1393.74 2231.73,1393.45 2232.75,1029.28 2233.78,1028.45 2234.8,1212.86 2235.83,1212.71 2236.86,1143.41 2237.88,1143.07 2238.91,1155.41 2239.93,1155.19 2240.96,1257.72 2241.99,1257.62 2243.01,1199.26 2244.04,1199.16 2245.06,982.828 2246.09,982.774 2247.12,1250.25 2248.14,1250.07 2249.17,1099.31 2250.19,1099.04 2251.22,1205.71 2252.25,1205.62 2253.27,1156.57 2254.3,1156.06 2255.32,1191.99 2256.35,1191.69 2257.37,1116.16 2258.4,1115.85 2259.43,1134.82 2260.45,1134.57 2261.48,1249.2 2262.5,1248.88 2263.53,1233.36 2264.56,1233.23 2265.58,1197.85 2266.61,1197.65 2267.63,1103.87 2268.66,1103.58 2269.69,1164.85 2270.71,1164.56 2271.74,1191.13 2272.76,1190.86 2273.79,1392.96 2274.82,1392.64 2275.84,1065.34 2276.87,1065.19 2277.89,1000.93 2278.92,1000.82 2279.95,918.686 2280.97,917.958 2282,1090.28 2283.02,1090.18 2284.05,1093.47 2285.08,1093.04 2286.1,1246.44 2287.13,1246.23 2288.15,1162.66 2289.18,1162.62 2290.2,1265.95 2291.23,1265.89 "/>
<path clip-path="url(#clip380)" d="M2010.47 198.898 L2280.29 198.898 L2280.29 95.2176 L2010.47 95.2176  Z" fill="#ffffff" fill-rule="evenodd" fill-opacity="1"/>
<polyline clip-path="url(#clip380)" style="stroke:#000000; stroke-linecap:round; stroke-linejoin:round; stroke-width:4; stroke-opacity:1; fill:none" points="2010.47,198.898 2280.29,198.898 2280.29,95.2176 2010.47,95.2176 2010.47,198.898 "/>
<polyline clip-path="url(#clip380)" style="stroke:#009af9; stroke-linecap:round; stroke-linejoin:round; stroke-width:4; stroke-opacity:1; fill:none" points="2034.63,147.058 2179.55,147.058 "/>
<path clip-path="url(#clip380)" d="M2217.55 166.745 Q2215.75 171.375 2214.03 172.787 Q2212.32 174.199 2209.45 174.199 L2206.05 174.199 L2206.05 170.634 L2208.55 170.634 Q2210.31 170.634 2211.28 169.8 Q2212.25 168.967 2213.43 165.865 L2214.19 163.921 L2203.71 138.412 L2208.22 138.412 L2216.32 158.689 L2224.43 138.412 L2228.94 138.412 L2217.55 166.745 Z" fill="#000000" fill-rule="nonzero" fill-opacity="1" /><path clip-path="url(#clip380)" d="M2236.23 160.402 L2243.87 160.402 L2243.87 134.037 L2235.56 135.703 L2235.56 131.444 L2243.82 129.778 L2248.5 129.778 L2248.5 160.402 L2256.14 160.402 L2256.14 164.338 L2236.23 164.338 L2236.23 160.402 Z" fill="#000000" fill-rule="nonzero" fill-opacity="1" /></svg>
