<?xml version="1.0" encoding="utf-8"?>
<svg xmlns="http://www.w3.org/2000/svg" xmlns:xlink="http://www.w3.org/1999/xlink" width="600" height="400" viewBox="0 0 2400 1600">
<defs>
  <clipPath id="clip470">
    <rect x="0" y="0" width="2400" height="1600"/>
  </clipPath>
</defs>
<path clip-path="url(#clip470)" d="M0 1600 L2400 1600 L2400 0 L0 0  Z" fill="#ffffff" fill-rule="evenodd" fill-opacity="1"/>
<defs>
  <clipPath id="clip471">
    <rect x="480" y="0" width="1681" height="1600"/>
  </clipPath>
</defs>
<path clip-path="url(#clip470)" d="M209.515 1486.45 L2352.76 1486.45 L2352.76 47.2441 L209.515 47.2441  Z" fill="#ffffff" fill-rule="evenodd" fill-opacity="1"/>
<defs>
  <clipPath id="clip472">
    <rect x="209" y="47" width="2144" height="1440"/>
  </clipPath>
</defs>
<polyline clip-path="url(#clip472)" style="stroke:#000000; stroke-linecap:round; stroke-linejoin:round; stroke-width:2; stroke-opacity:0.1; fill:none" points="270.172,1486.45 270.172,47.2441 "/>
<polyline clip-path="url(#clip472)" style="stroke:#000000; stroke-linecap:round; stroke-linejoin:round; stroke-width:2; stroke-opacity:0.1; fill:none" points="775.654,1486.45 775.654,47.2441 "/>
<polyline clip-path="url(#clip472)" style="stroke:#000000; stroke-linecap:round; stroke-linejoin:round; stroke-width:2; stroke-opacity:0.1; fill:none" points="1281.14,1486.45 1281.14,47.2441 "/>
<polyline clip-path="url(#clip472)" style="stroke:#000000; stroke-linecap:round; stroke-linejoin:round; stroke-width:2; stroke-opacity:0.1; fill:none" points="1786.62,1486.45 1786.62,47.2441 "/>
<polyline clip-path="url(#clip472)" style="stroke:#000000; stroke-linecap:round; stroke-linejoin:round; stroke-width:2; stroke-opacity:0.1; fill:none" points="2292.1,1486.45 2292.1,47.2441 "/>
<polyline clip-path="url(#clip470)" style="stroke:#000000; stroke-linecap:round; stroke-linejoin:round; stroke-width:4; stroke-opacity:1; fill:none" points="209.515,1486.45 2352.76,1486.45 "/>
<polyline clip-path="url(#clip470)" style="stroke:#000000; stroke-linecap:round; stroke-linejoin:round; stroke-width:4; stroke-opacity:1; fill:none" points="270.172,1486.45 270.172,1467.55 "/>
<polyline clip-path="url(#clip470)" style="stroke:#000000; stroke-linecap:round; stroke-linejoin:round; stroke-width:4; stroke-opacity:1; fill:none" points="775.654,1486.45 775.654,1467.55 "/>
<polyline clip-path="url(#clip470)" style="stroke:#000000; stroke-linecap:round; stroke-linejoin:round; stroke-width:4; stroke-opacity:1; fill:none" points="1281.14,1486.45 1281.14,1467.55 "/>
<polyline clip-path="url(#clip470)" style="stroke:#000000; stroke-linecap:round; stroke-linejoin:round; stroke-width:4; stroke-opacity:1; fill:none" points="1786.62,1486.45 1786.62,1467.55 "/>
<polyline clip-path="url(#clip470)" style="stroke:#000000; stroke-linecap:round; stroke-linejoin:round; stroke-width:4; stroke-opacity:1; fill:none" points="2292.1,1486.45 2292.1,1467.55 "/>
<path clip-path="url(#clip470)" d="M270.172 1517.37 Q266.561 1517.37 264.733 1520.93 Q262.927 1524.47 262.927 1531.6 Q262.927 1538.71 264.733 1542.27 Q266.561 1545.82 270.172 1545.82 Q273.807 1545.82 275.612 1542.27 Q277.441 1538.71 277.441 1531.6 Q277.441 1524.47 275.612 1520.93 Q273.807 1517.37 270.172 1517.37 M270.172 1513.66 Q275.983 1513.66 279.038 1518.27 Q282.117 1522.85 282.117 1531.6 Q282.117 1540.33 279.038 1544.94 Q275.983 1549.52 270.172 1549.52 Q264.362 1549.52 261.284 1544.94 Q258.228 1540.33 258.228 1531.6 Q258.228 1522.85 261.284 1518.27 Q264.362 1513.66 270.172 1513.66 Z" fill="#000000" fill-rule="nonzero" fill-opacity="1" /><path clip-path="url(#clip470)" d="M735.272 1514.29 L753.628 1514.29 L753.628 1518.22 L739.554 1518.22 L739.554 1526.7 Q740.573 1526.35 741.592 1526.19 Q742.61 1526 743.629 1526 Q749.416 1526 752.795 1529.17 Q756.175 1532.34 756.175 1537.76 Q756.175 1543.34 752.703 1546.44 Q749.23 1549.52 742.911 1549.52 Q740.735 1549.52 738.467 1549.15 Q736.221 1548.78 733.814 1548.04 L733.814 1543.34 Q735.897 1544.47 738.119 1545.03 Q740.342 1545.58 742.818 1545.58 Q746.823 1545.58 749.161 1543.48 Q751.499 1541.37 751.499 1537.76 Q751.499 1534.15 749.161 1532.04 Q746.823 1529.94 742.818 1529.94 Q740.943 1529.94 739.068 1530.35 Q737.217 1530.77 735.272 1531.65 L735.272 1514.29 Z" fill="#000000" fill-rule="nonzero" fill-opacity="1" /><path clip-path="url(#clip470)" d="M775.388 1517.37 Q771.777 1517.37 769.948 1520.93 Q768.142 1524.47 768.142 1531.6 Q768.142 1538.71 769.948 1542.27 Q771.777 1545.82 775.388 1545.82 Q779.022 1545.82 780.827 1542.27 Q782.656 1538.71 782.656 1531.6 Q782.656 1524.47 780.827 1520.93 Q779.022 1517.37 775.388 1517.37 M775.388 1513.66 Q781.198 1513.66 784.253 1518.27 Q787.332 1522.85 787.332 1531.6 Q787.332 1540.33 784.253 1544.94 Q781.198 1549.52 775.388 1549.52 Q769.577 1549.52 766.499 1544.94 Q763.443 1540.33 763.443 1531.6 Q763.443 1522.85 766.499 1518.27 Q769.577 1513.66 775.388 1513.66 Z" fill="#000000" fill-rule="nonzero" fill-opacity="1" /><path clip-path="url(#clip470)" d="M805.549 1517.37 Q801.938 1517.37 800.11 1520.93 Q798.304 1524.47 798.304 1531.6 Q798.304 1538.71 800.11 1542.27 Q801.938 1545.82 805.549 1545.82 Q809.184 1545.82 810.989 1542.27 Q812.818 1538.71 812.818 1531.6 Q812.818 1524.47 810.989 1520.93 Q809.184 1517.37 805.549 1517.37 M805.549 1513.66 Q811.36 1513.66 814.415 1518.27 Q817.494 1522.85 817.494 1531.6 Q817.494 1540.33 814.415 1544.94 Q811.36 1549.52 805.549 1549.52 Q799.739 1549.52 796.661 1544.94 Q793.605 1540.33 793.605 1531.6 Q793.605 1522.85 796.661 1518.27 Q799.739 1513.66 805.549 1513.66 Z" fill="#000000" fill-rule="nonzero" fill-opacity="1" /><path clip-path="url(#clip470)" d="M1225.66 1544.91 L1233.3 1544.91 L1233.3 1518.55 L1224.99 1520.21 L1224.99 1515.95 L1233.25 1514.29 L1237.93 1514.29 L1237.93 1544.91 L1245.57 1544.91 L1245.57 1548.85 L1225.66 1548.85 L1225.66 1544.91 Z" fill="#000000" fill-rule="nonzero" fill-opacity="1" /><path clip-path="url(#clip470)" d="M1265.01 1517.37 Q1261.4 1517.37 1259.57 1520.93 Q1257.77 1524.47 1257.77 1531.6 Q1257.77 1538.71 1259.57 1542.27 Q1261.4 1545.82 1265.01 1545.82 Q1268.65 1545.82 1270.45 1542.27 Q1272.28 1538.71 1272.28 1531.6 Q1272.28 1524.47 1270.45 1520.93 Q1268.65 1517.37 1265.01 1517.37 M1265.01 1513.66 Q1270.82 1513.66 1273.88 1518.27 Q1276.96 1522.85 1276.96 1531.6 Q1276.96 1540.33 1273.88 1544.94 Q1270.82 1549.52 1265.01 1549.52 Q1259.2 1549.52 1256.12 1544.94 Q1253.07 1540.33 1253.07 1531.6 Q1253.07 1522.85 1256.12 1518.27 Q1259.2 1513.66 1265.01 1513.66 Z" fill="#000000" fill-rule="nonzero" fill-opacity="1" /><path clip-path="url(#clip470)" d="M1295.17 1517.37 Q1291.56 1517.37 1289.73 1520.93 Q1287.93 1524.47 1287.93 1531.6 Q1287.93 1538.71 1289.73 1542.27 Q1291.56 1545.82 1295.17 1545.82 Q1298.81 1545.82 1300.61 1542.27 Q1302.44 1538.71 1302.44 1531.6 Q1302.44 1524.47 1300.61 1520.93 Q1298.81 1517.37 1295.17 1517.37 M1295.17 1513.66 Q1300.98 1513.66 1304.04 1518.27 Q1307.12 1522.85 1307.12 1531.6 Q1307.12 1540.33 1304.04 1544.94 Q1300.98 1549.52 1295.17 1549.52 Q1289.36 1549.52 1286.29 1544.94 Q1283.23 1540.33 1283.23 1531.6 Q1283.23 1522.85 1286.29 1518.27 Q1289.36 1513.66 1295.17 1513.66 Z" fill="#000000" fill-rule="nonzero" fill-opacity="1" /><path clip-path="url(#clip470)" d="M1325.34 1517.37 Q1321.73 1517.37 1319.9 1520.93 Q1318.09 1524.47 1318.09 1531.6 Q1318.09 1538.71 1319.9 1542.27 Q1321.73 1545.82 1325.34 1545.82 Q1328.97 1545.82 1330.78 1542.27 Q1332.6 1538.71 1332.6 1531.6 Q1332.6 1524.47 1330.78 1520.93 Q1328.97 1517.37 1325.34 1517.37 M1325.34 1513.66 Q1331.15 1513.66 1334.2 1518.27 Q1337.28 1522.85 1337.28 1531.6 Q1337.28 1540.33 1334.2 1544.94 Q1331.15 1549.52 1325.34 1549.52 Q1319.53 1549.52 1316.45 1544.94 Q1313.39 1540.33 1313.39 1531.6 Q1313.39 1522.85 1316.45 1518.27 Q1319.53 1513.66 1325.34 1513.66 Z" fill="#000000" fill-rule="nonzero" fill-opacity="1" /><path clip-path="url(#clip470)" d="M1731.14 1544.91 L1738.78 1544.91 L1738.78 1518.55 L1730.47 1520.21 L1730.47 1515.95 L1738.74 1514.29 L1743.41 1514.29 L1743.41 1544.91 L1751.05 1544.91 L1751.05 1548.85 L1731.14 1548.85 L1731.14 1544.91 Z" fill="#000000" fill-rule="nonzero" fill-opacity="1" /><path clip-path="url(#clip470)" d="M1760.54 1514.29 L1778.9 1514.29 L1778.9 1518.22 L1764.82 1518.22 L1764.82 1526.7 Q1765.84 1526.35 1766.86 1526.19 Q1767.88 1526 1768.9 1526 Q1774.68 1526 1778.06 1529.17 Q1781.44 1532.34 1781.44 1537.76 Q1781.44 1543.34 1777.97 1546.44 Q1774.5 1549.52 1768.18 1549.52 Q1766 1549.52 1763.73 1549.15 Q1761.49 1548.78 1759.08 1548.04 L1759.08 1543.34 Q1761.17 1544.47 1763.39 1545.03 Q1765.61 1545.58 1768.09 1545.58 Q1772.09 1545.58 1774.43 1543.48 Q1776.77 1541.37 1776.77 1537.76 Q1776.77 1534.15 1774.43 1532.04 Q1772.09 1529.94 1768.09 1529.94 Q1766.21 1529.94 1764.34 1530.35 Q1762.48 1530.77 1760.54 1531.65 L1760.54 1514.29 Z" fill="#000000" fill-rule="nonzero" fill-opacity="1" /><path clip-path="url(#clip470)" d="M1800.66 1517.37 Q1797.04 1517.37 1795.22 1520.93 Q1793.41 1524.47 1793.41 1531.6 Q1793.41 1538.71 1795.22 1542.27 Q1797.04 1545.82 1800.66 1545.82 Q1804.29 1545.82 1806.1 1542.27 Q1807.92 1538.71 1807.92 1531.6 Q1807.92 1524.47 1806.1 1520.93 Q1804.29 1517.37 1800.66 1517.37 M1800.66 1513.66 Q1806.47 1513.66 1809.52 1518.27 Q1812.6 1522.85 1812.6 1531.6 Q1812.6 1540.33 1809.52 1544.94 Q1806.47 1549.52 1800.66 1549.52 Q1794.85 1549.52 1791.77 1544.94 Q1788.71 1540.33 1788.71 1531.6 Q1788.71 1522.85 1791.77 1518.27 Q1794.85 1513.66 1800.66 1513.66 Z" fill="#000000" fill-rule="nonzero" fill-opacity="1" /><path clip-path="url(#clip470)" d="M1830.82 1517.37 Q1827.21 1517.37 1825.38 1520.93 Q1823.57 1524.47 1823.57 1531.6 Q1823.57 1538.71 1825.38 1542.27 Q1827.21 1545.82 1830.82 1545.82 Q1834.45 1545.82 1836.26 1542.27 Q1838.09 1538.71 1838.09 1531.6 Q1838.09 1524.47 1836.26 1520.93 Q1834.45 1517.37 1830.82 1517.37 M1830.82 1513.66 Q1836.63 1513.66 1839.68 1518.27 Q1842.76 1522.85 1842.76 1531.6 Q1842.76 1540.33 1839.68 1544.94 Q1836.63 1549.52 1830.82 1549.52 Q1825.01 1549.52 1821.93 1544.94 Q1818.87 1540.33 1818.87 1531.6 Q1818.87 1522.85 1821.93 1518.27 Q1825.01 1513.66 1830.82 1513.66 Z" fill="#000000" fill-rule="nonzero" fill-opacity="1" /><path clip-path="url(#clip470)" d="M2240.71 1544.91 L2257.03 1544.91 L2257.03 1548.85 L2235.08 1548.85 L2235.08 1544.91 Q2237.75 1542.16 2242.33 1537.53 Q2246.94 1532.88 2248.12 1531.53 Q2250.36 1529.01 2251.24 1527.27 Q2252.14 1525.51 2252.14 1523.82 Q2252.14 1521.07 2250.2 1519.33 Q2248.28 1517.6 2245.18 1517.6 Q2242.98 1517.6 2240.52 1518.36 Q2238.09 1519.13 2235.32 1520.68 L2235.32 1515.95 Q2238.14 1514.82 2240.59 1514.24 Q2243.05 1513.66 2245.08 1513.66 Q2250.45 1513.66 2253.65 1516.35 Q2256.84 1519.03 2256.84 1523.52 Q2256.84 1525.65 2256.03 1527.57 Q2255.25 1529.47 2253.14 1532.07 Q2252.56 1532.74 2249.46 1535.95 Q2246.36 1539.15 2240.71 1544.91 Z" fill="#000000" fill-rule="nonzero" fill-opacity="1" /><path clip-path="url(#clip470)" d="M2276.84 1517.37 Q2273.23 1517.37 2271.4 1520.93 Q2269.6 1524.47 2269.6 1531.6 Q2269.6 1538.71 2271.4 1542.27 Q2273.23 1545.82 2276.84 1545.82 Q2280.48 1545.82 2282.28 1542.27 Q2284.11 1538.71 2284.11 1531.6 Q2284.11 1524.47 2282.28 1520.93 Q2280.48 1517.37 2276.84 1517.37 M2276.84 1513.66 Q2282.65 1513.66 2285.71 1518.27 Q2288.79 1522.85 2288.79 1531.6 Q2288.79 1540.33 2285.71 1544.94 Q2282.65 1549.52 2276.84 1549.52 Q2271.03 1549.52 2267.95 1544.94 Q2264.9 1540.33 2264.9 1531.6 Q2264.9 1522.85 2267.95 1518.27 Q2271.03 1513.66 2276.84 1513.66 Z" fill="#000000" fill-rule="nonzero" fill-opacity="1" /><path clip-path="url(#clip470)" d="M2307.01 1517.37 Q2303.39 1517.37 2301.57 1520.93 Q2299.76 1524.47 2299.76 1531.6 Q2299.76 1538.71 2301.57 1542.27 Q2303.39 1545.82 2307.01 1545.82 Q2310.64 1545.82 2312.45 1542.27 Q2314.27 1538.71 2314.27 1531.6 Q2314.27 1524.47 2312.45 1520.93 Q2310.64 1517.37 2307.01 1517.37 M2307.01 1513.66 Q2312.82 1513.66 2315.87 1518.27 Q2318.95 1522.85 2318.95 1531.6 Q2318.95 1540.33 2315.87 1544.94 Q2312.82 1549.52 2307.01 1549.52 Q2301.2 1549.52 2298.12 1544.94 Q2295.06 1540.33 2295.06 1531.6 Q2295.06 1522.85 2298.12 1518.27 Q2301.2 1513.66 2307.01 1513.66 Z" fill="#000000" fill-rule="nonzero" fill-opacity="1" /><path clip-path="url(#clip470)" d="M2337.17 1517.37 Q2333.56 1517.37 2331.73 1520.93 Q2329.92 1524.47 2329.92 1531.6 Q2329.92 1538.71 2331.73 1542.27 Q2333.56 1545.82 2337.17 1545.82 Q2340.8 1545.82 2342.61 1542.27 Q2344.44 1538.71 2344.44 1531.6 Q2344.44 1524.47 2342.61 1520.93 Q2340.8 1517.37 2337.17 1517.37 M2337.17 1513.66 Q2342.98 1513.66 2346.03 1518.27 Q2349.11 1522.85 2349.11 1531.6 Q2349.11 1540.33 2346.03 1544.94 Q2342.98 1549.52 2337.17 1549.52 Q2331.36 1549.52 2328.28 1544.94 Q2325.22 1540.33 2325.22 1531.6 Q2325.22 1522.85 2328.28 1518.27 Q2331.36 1513.66 2337.17 1513.66 Z" fill="#000000" fill-rule="nonzero" fill-opacity="1" /><polyline clip-path="url(#clip472)" style="stroke:#000000; stroke-linecap:round; stroke-linejoin:round; stroke-width:2; stroke-opacity:0.1; fill:none" points="209.515,1347.29 2352.76,1347.29 "/>
<polyline clip-path="url(#clip472)" style="stroke:#000000; stroke-linecap:round; stroke-linejoin:round; stroke-width:2; stroke-opacity:0.1; fill:none" points="209.515,1067.53 2352.76,1067.53 "/>
<polyline clip-path="url(#clip472)" style="stroke:#000000; stroke-linecap:round; stroke-linejoin:round; stroke-width:2; stroke-opacity:0.1; fill:none" points="209.515,787.757 2352.76,787.757 "/>
<polyline clip-path="url(#clip472)" style="stroke:#000000; stroke-linecap:round; stroke-linejoin:round; stroke-width:2; stroke-opacity:0.1; fill:none" points="209.515,507.989 2352.76,507.989 "/>
<polyline clip-path="url(#clip472)" style="stroke:#000000; stroke-linecap:round; stroke-linejoin:round; stroke-width:2; stroke-opacity:0.1; fill:none" points="209.515,228.221 2352.76,228.221 "/>
<polyline clip-path="url(#clip470)" style="stroke:#000000; stroke-linecap:round; stroke-linejoin:round; stroke-width:4; stroke-opacity:1; fill:none" points="209.515,1486.45 209.515,47.2441 "/>
<polyline clip-path="url(#clip470)" style="stroke:#000000; stroke-linecap:round; stroke-linejoin:round; stroke-width:4; stroke-opacity:1; fill:none" points="209.515,1347.29 228.412,1347.29 "/>
<polyline clip-path="url(#clip470)" style="stroke:#000000; stroke-linecap:round; stroke-linejoin:round; stroke-width:4; stroke-opacity:1; fill:none" points="209.515,1067.53 228.412,1067.53 "/>
<polyline clip-path="url(#clip470)" style="stroke:#000000; stroke-linecap:round; stroke-linejoin:round; stroke-width:4; stroke-opacity:1; fill:none" points="209.515,787.757 228.412,787.757 "/>
<polyline clip-path="url(#clip470)" style="stroke:#000000; stroke-linecap:round; stroke-linejoin:round; stroke-width:4; stroke-opacity:1; fill:none" points="209.515,507.989 228.412,507.989 "/>
<polyline clip-path="url(#clip470)" style="stroke:#000000; stroke-linecap:round; stroke-linejoin:round; stroke-width:4; stroke-opacity:1; fill:none" points="209.515,228.221 228.412,228.221 "/>
<path clip-path="url(#clip470)" d="M51.5708 1347.75 L81.2466 1347.75 L81.2466 1351.68 L51.5708 1351.68 L51.5708 1347.75 Z" fill="#000000" fill-rule="nonzero" fill-opacity="1" /><path clip-path="url(#clip470)" d="M95.3669 1360.64 L111.686 1360.64 L111.686 1364.57 L89.7419 1364.57 L89.7419 1360.64 Q92.4039 1357.88 96.9872 1353.25 Q101.594 1348.6 102.774 1347.26 Q105.02 1344.74 105.899 1343 Q106.802 1341.24 106.802 1339.55 Q106.802 1336.8 104.858 1335.06 Q102.936 1333.32 99.8345 1333.32 Q97.6354 1333.32 95.1817 1334.09 Q92.7512 1334.85 89.9734 1336.4 L89.9734 1331.68 Q92.7975 1330.55 95.2511 1329.97 Q97.7048 1329.39 99.7419 1329.39 Q105.112 1329.39 108.307 1332.07 Q111.501 1334.76 111.501 1339.25 Q111.501 1341.38 110.691 1343.3 Q109.904 1345.2 107.797 1347.79 Q107.219 1348.46 104.117 1351.68 Q101.015 1354.87 95.3669 1360.64 Z" fill="#000000" fill-rule="nonzero" fill-opacity="1" /><path clip-path="url(#clip470)" d="M120.32 1330.01 L142.543 1330.01 L142.543 1332 L129.996 1364.57 L125.112 1364.57 L136.918 1333.95 L120.32 1333.95 L120.32 1330.01 Z" fill="#000000" fill-rule="nonzero" fill-opacity="1" /><path clip-path="url(#clip470)" d="M161.663 1348.16 Q158.33 1348.16 156.408 1349.94 Q154.51 1351.73 154.51 1354.85 Q154.51 1357.98 156.408 1359.76 Q158.33 1361.54 161.663 1361.54 Q164.996 1361.54 166.917 1359.76 Q168.839 1357.95 168.839 1354.85 Q168.839 1351.73 166.917 1349.94 Q165.019 1348.16 161.663 1348.16 M156.987 1346.17 Q153.978 1345.43 152.288 1343.37 Q150.621 1341.31 150.621 1338.35 Q150.621 1334.2 153.561 1331.8 Q156.524 1329.39 161.663 1329.39 Q166.825 1329.39 169.765 1331.8 Q172.704 1334.2 172.704 1338.35 Q172.704 1341.31 171.015 1343.37 Q169.348 1345.43 166.362 1346.17 Q169.741 1346.96 171.616 1349.25 Q173.515 1351.54 173.515 1354.85 Q173.515 1359.87 170.436 1362.56 Q167.38 1365.25 161.663 1365.25 Q155.945 1365.25 152.867 1362.56 Q149.811 1359.87 149.811 1354.85 Q149.811 1351.54 151.709 1349.25 Q153.607 1346.96 156.987 1346.17 M155.274 1338.79 Q155.274 1341.47 156.941 1342.98 Q158.63 1344.48 161.663 1344.48 Q164.672 1344.48 166.362 1342.98 Q168.075 1341.47 168.075 1338.79 Q168.075 1336.1 166.362 1334.6 Q164.672 1333.09 161.663 1333.09 Q158.63 1333.09 156.941 1334.6 Q155.274 1336.1 155.274 1338.79 Z" fill="#000000" fill-rule="nonzero" fill-opacity="1" /><path clip-path="url(#clip470)" d="M51.3162 1067.98 L80.992 1067.98 L80.992 1071.91 L51.3162 1071.91 L51.3162 1067.98 Z" fill="#000000" fill-rule="nonzero" fill-opacity="1" /><path clip-path="url(#clip470)" d="M95.1123 1080.87 L111.432 1080.87 L111.432 1084.81 L89.4873 1084.81 L89.4873 1080.87 Q92.1493 1078.12 96.7326 1073.49 Q101.339 1068.83 102.52 1067.49 Q104.765 1064.97 105.645 1063.23 Q106.547 1061.47 106.547 1059.78 Q106.547 1057.03 104.603 1055.29 Q102.682 1053.56 99.5798 1053.56 Q97.3808 1053.56 94.9271 1054.32 Q92.4965 1055.08 89.7188 1056.63 L89.7188 1051.91 Q92.5428 1050.78 94.9965 1050.2 Q97.4502 1049.62 99.4872 1049.62 Q104.858 1049.62 108.052 1052.31 Q111.246 1054.99 111.246 1059.48 Q111.246 1061.61 110.436 1063.53 Q109.649 1065.43 107.543 1068.02 Q106.964 1068.69 103.862 1071.91 Q100.76 1075.11 95.1123 1080.87 Z" fill="#000000" fill-rule="nonzero" fill-opacity="1" /><path clip-path="url(#clip470)" d="M120.066 1050.25 L142.288 1050.25 L142.288 1052.24 L129.742 1084.81 L124.857 1084.81 L136.663 1054.18 L120.066 1054.18 L120.066 1050.25 Z" fill="#000000" fill-rule="nonzero" fill-opacity="1" /><path clip-path="url(#clip470)" d="M161.987 1065.66 Q158.839 1065.66 156.987 1067.81 Q155.158 1069.97 155.158 1073.72 Q155.158 1077.44 156.987 1079.62 Q158.839 1081.77 161.987 1081.77 Q165.135 1081.77 166.964 1079.62 Q168.816 1077.44 168.816 1073.72 Q168.816 1069.97 166.964 1067.81 Q165.135 1065.66 161.987 1065.66 M171.269 1051.01 L171.269 1055.27 Q169.51 1054.44 167.704 1054 Q165.922 1053.56 164.163 1053.56 Q159.533 1053.56 157.08 1056.68 Q154.649 1059.81 154.302 1066.13 Q155.667 1064.11 157.728 1063.05 Q159.788 1061.96 162.265 1061.96 Q167.473 1061.96 170.482 1065.13 Q173.515 1068.28 173.515 1073.72 Q173.515 1079.04 170.366 1082.26 Q167.218 1085.48 161.987 1085.48 Q155.992 1085.48 152.82 1080.89 Q149.649 1076.29 149.649 1067.56 Q149.649 1059.37 153.538 1054.5 Q157.427 1049.62 163.978 1049.62 Q165.737 1049.62 167.519 1049.97 Q169.325 1050.31 171.269 1051.01 Z" fill="#000000" fill-rule="nonzero" fill-opacity="1" /><path clip-path="url(#clip470)" d="M50.9921 788.209 L80.6679 788.209 L80.6679 792.144 L50.9921 792.144 L50.9921 788.209 Z" fill="#000000" fill-rule="nonzero" fill-opacity="1" /><path clip-path="url(#clip470)" d="M94.7882 801.102 L111.108 801.102 L111.108 805.037 L89.1632 805.037 L89.1632 801.102 Q91.8252 798.347 96.4085 793.718 Q101.015 789.065 102.196 787.723 Q104.441 785.199 105.321 783.463 Q106.223 781.704 106.223 780.014 Q106.223 777.26 104.279 775.524 Q102.358 773.787 99.2558 773.787 Q97.0567 773.787 94.603 774.551 Q92.1725 775.315 89.3947 776.866 L89.3947 772.144 Q92.2188 771.01 94.6724 770.431 Q97.1261 769.852 99.1632 769.852 Q104.534 769.852 107.728 772.537 Q110.922 775.223 110.922 779.713 Q110.922 781.843 110.112 783.764 Q109.325 785.662 107.219 788.255 Q106.64 788.926 103.538 792.144 Q100.436 795.338 94.7882 801.102 Z" fill="#000000" fill-rule="nonzero" fill-opacity="1" /><path clip-path="url(#clip470)" d="M119.742 770.477 L141.964 770.477 L141.964 772.468 L129.418 805.037 L124.533 805.037 L136.339 774.412 L119.742 774.412 L119.742 770.477 Z" fill="#000000" fill-rule="nonzero" fill-opacity="1" /><path clip-path="url(#clip470)" d="M163.931 774.551 L152.126 793 L163.931 793 L163.931 774.551 M162.704 770.477 L168.584 770.477 L168.584 793 L173.515 793 L173.515 796.889 L168.584 796.889 L168.584 805.037 L163.931 805.037 L163.931 796.889 L148.33 796.889 L148.33 792.375 L162.704 770.477 Z" fill="#000000" fill-rule="nonzero" fill-opacity="1" /><path clip-path="url(#clip470)" d="M53.0754 508.44 L82.7512 508.44 L82.7512 512.376 L53.0754 512.376 L53.0754 508.44 Z" fill="#000000" fill-rule="nonzero" fill-opacity="1" /><path clip-path="url(#clip470)" d="M96.8715 521.334 L113.191 521.334 L113.191 525.269 L91.2465 525.269 L91.2465 521.334 Q93.9086 518.579 98.4919 513.95 Q103.098 509.297 104.279 507.954 Q106.524 505.431 107.404 503.695 Q108.307 501.936 108.307 500.246 Q108.307 497.491 106.362 495.755 Q104.441 494.019 101.339 494.019 Q99.14 494.019 96.6863 494.783 Q94.2558 495.547 91.478 497.098 L91.478 492.376 Q94.3021 491.241 96.7558 490.663 Q99.2095 490.084 101.246 490.084 Q106.617 490.084 109.811 492.769 Q113.006 495.454 113.006 499.945 Q113.006 502.075 112.196 503.996 Q111.408 505.894 109.302 508.487 Q108.723 509.158 105.621 512.376 Q102.52 515.57 96.8715 521.334 Z" fill="#000000" fill-rule="nonzero" fill-opacity="1" /><path clip-path="url(#clip470)" d="M121.825 490.709 L144.047 490.709 L144.047 492.7 L131.501 525.269 L126.617 525.269 L138.422 494.644 L121.825 494.644 L121.825 490.709 Z" fill="#000000" fill-rule="nonzero" fill-opacity="1" /><path clip-path="url(#clip470)" d="M157.195 521.334 L173.515 521.334 L173.515 525.269 L151.57 525.269 L151.57 521.334 Q154.232 518.579 158.816 513.95 Q163.422 509.297 164.603 507.954 Q166.848 505.431 167.728 503.695 Q168.63 501.936 168.63 500.246 Q168.63 497.491 166.686 495.755 Q164.765 494.019 161.663 494.019 Q159.464 494.019 157.01 494.783 Q154.58 495.547 151.802 497.098 L151.802 492.376 Q154.626 491.241 157.08 490.663 Q159.533 490.084 161.57 490.084 Q166.941 490.084 170.135 492.769 Q173.329 495.454 173.329 499.945 Q173.329 502.075 172.519 503.996 Q171.732 505.894 169.626 508.487 Q169.047 509.158 165.945 512.376 Q162.843 515.57 157.195 521.334 Z" fill="#000000" fill-rule="nonzero" fill-opacity="1" /><path clip-path="url(#clip470)" d="M51.4782 228.672 L81.154 228.672 L81.154 232.607 L51.4782 232.607 L51.4782 228.672 Z" fill="#000000" fill-rule="nonzero" fill-opacity="1" /><path clip-path="url(#clip470)" d="M95.2743 241.566 L111.594 241.566 L111.594 245.501 L89.6493 245.501 L89.6493 241.566 Q92.3113 238.811 96.8947 234.181 Q101.501 229.529 102.682 228.186 Q104.927 225.663 105.807 223.927 Q106.709 222.168 106.709 220.478 Q106.709 217.723 104.765 215.987 Q102.844 214.251 99.7419 214.251 Q97.5428 214.251 95.0891 215.015 Q92.6586 215.779 89.8808 217.33 L89.8808 212.607 Q92.7049 211.473 95.1586 210.895 Q97.6122 210.316 99.6493 210.316 Q105.02 210.316 108.214 213.001 Q111.408 215.686 111.408 220.177 Q111.408 222.306 110.598 224.228 Q109.811 226.126 107.705 228.718 Q107.126 229.39 104.024 232.607 Q100.922 235.802 95.2743 241.566 Z" fill="#000000" fill-rule="nonzero" fill-opacity="1" /><path clip-path="url(#clip470)" d="M120.228 210.941 L142.45 210.941 L142.45 212.932 L129.904 245.501 L125.02 245.501 L136.825 214.876 L120.228 214.876 L120.228 210.941 Z" fill="#000000" fill-rule="nonzero" fill-opacity="1" /><path clip-path="url(#clip470)" d="M161.57 214.019 Q157.959 214.019 156.13 217.584 Q154.325 221.126 154.325 228.256 Q154.325 235.362 156.13 238.927 Q157.959 242.468 161.57 242.468 Q165.204 242.468 167.01 238.927 Q168.839 235.362 168.839 228.256 Q168.839 221.126 167.01 217.584 Q165.204 214.019 161.57 214.019 M161.57 210.316 Q167.38 210.316 170.436 214.922 Q173.515 219.506 173.515 228.256 Q173.515 236.982 170.436 241.589 Q167.38 246.172 161.57 246.172 Q155.76 246.172 152.681 241.589 Q149.626 236.982 149.626 228.256 Q149.626 219.506 152.681 214.922 Q155.76 210.316 161.57 210.316 Z" fill="#000000" fill-rule="nonzero" fill-opacity="1" /><polyline clip-path="url(#clip472)" style="stroke:#009af9; stroke-linecap:round; stroke-linejoin:round; stroke-width:4; stroke-opacity:1; fill:none" points="270.172,87.9763 271.183,1013.49 272.194,1164.5 273.205,1219.8 274.216,1251.52 275.227,1273.23 276.238,1289.54 277.249,1302.57 278.26,1313.41 279.271,1322.69 280.282,1330.79 281.293,1337.95 282.304,1344.32 283.315,1350.05 284.326,1355.21 285.337,1359.88 286.348,1364.12 287.359,1367.99 288.37,1371.53 289.381,1374.77 290.392,1377.76 291.403,1380.51 292.414,1383.05 293.425,1385.41 294.435,1387.6 295.446,1389.64 296.457,1391.54 297.468,1393.32 298.479,1394.99 299.49,1396.56 300.501,1398.03 301.512,1399.42 302.523,1400.73 303.534,1401.97 304.545,1403.15 305.556,1404.26 306.567,1405.32 307.578,1406.33 308.589,1407.29 309.6,1408.21 310.611,1409.08 311.622,1409.92 312.633,1410.72 313.644,1411.49 314.655,1412.23 315.666,1412.93 316.677,1413.61 317.688,1414.27 318.699,1414.9 319.71,1415.51 320.721,1416.09 321.731,1416.66 322.742,1417.21 323.753,1417.74 324.764,1418.25 325.775,1418.74 326.786,1419.23 327.797,1419.69 328.808,1420.14 329.819,1420.58 330.83,1421.01 331.841,1421.42 332.852,1421.82 333.863,1422.22 334.874,1422.6 335.885,1422.97 336.896,1423.33 337.907,1423.68 338.918,1424.02 339.929,1424.36 340.94,1424.68 341.951,1425 342.962,1425.31 343.973,1425.61 344.984,1425.91 345.995,1426.2 347.006,1426.48 348.017,1426.76 349.027,1427.03 350.038,1427.29 351.049,1427.55 352.06,1427.8 353.071,1428.05 354.082,1428.29 355.093,1428.53 356.104,1428.76 357.115,1428.99 358.126,1429.21 359.137,1429.43 360.148,1429.64 361.159,1429.85 362.17,1430.06 363.181,1430.26 364.192,1430.45 365.203,1430.65 366.214,1430.84 367.225,1431.02 368.236,1431.2 369.247,1431.38 370.258,1431.56 371.269,1431.73 372.28,1431.9 373.291,1432.07 374.302,1432.23 375.313,1432.39 376.323,1432.54 377.334,1432.7 378.345,1432.85 379.356,1433 380.367,1433.15 381.378,1433.29 382.389,1433.43 383.4,1433.57 384.411,1433.7 385.422,1433.84 386.433,1433.97 387.444,1434.1 388.455,1434.23 389.466,1434.35 390.477,1434.47 391.488,1434.59 392.499,1434.71 393.51,1434.83 394.521,1434.95 395.532,1435.06 396.543,1435.17 397.554,1435.28 398.565,1435.39 399.576,1435.49 400.587,1435.6 401.598,1435.7 402.609,1435.8 403.619,1435.9 404.63,1436 405.641,1436.1 406.652,1436.19 407.663,1436.28 408.674,1436.38 409.685,1436.47 410.696,1436.56 411.707,1436.64 412.718,1436.73 413.729,1436.82 414.74,1436.9 415.751,1436.98 416.762,1437.07 417.773,1437.15 418.784,1437.23 419.795,1437.3 420.806,1437.38 421.817,1437.46 422.828,1437.53 423.839,1437.61 424.85,1437.68 425.861,1437.75 426.872,1437.82 427.883,1437.89 428.894,1437.96 429.905,1438.03 430.915,1438.09 431.926,1438.16 432.937,1438.23 433.948,1438.29 434.959,1438.35 435.97,1438.42 436.981,1438.48 437.992,1438.54 439.003,1438.6 440.014,1438.66 441.025,1438.72 442.036,1438.78 443.047,1438.83 444.058,1438.89 445.069,1438.94 446.08,1439 447.091,1439.05 448.102,1439.11 449.113,1439.16 450.124,1439.21 451.135,1439.26 452.146,1439.32 453.157,1439.37 454.168,1439.42 455.179,1439.46 456.19,1439.51 457.201,1439.56 458.211,1439.61 459.222,1439.66 460.233,1439.7 461.244,1439.75 462.255,1439.79 463.266,1439.84 464.277,1439.88 465.288,1439.93 466.299,1439.97 467.31,1440.01 468.321,1440.05 469.332,1440.1 470.343,1440.14 471.354,1440.18 472.365,1440.22 473.376,1440.26 474.387,1440.3 475.398,1440.34 476.409,1440.37 477.42,1440.41 478.431,1440.45 479.442,1440.49 480.453,1440.52 481.464,1440.56 482.475,1440.6 483.486,1440.63 484.497,1440.67 485.507,1440.7 486.518,1440.74 487.529,1440.77 488.54,1440.81 489.551,1440.84 490.562,1440.87 491.573,1440.9 492.584,1440.94 493.595,1440.97 494.606,1441 495.617,1441.03 496.628,1441.06 497.639,1441.09 498.65,1441.13 499.661,1441.16 500.672,1441.19 501.683,1441.22 502.694,1441.24 503.705,1441.27 504.716,1441.3 505.727,1441.33 506.738,1441.36 507.749,1441.39 508.76,1441.41 509.771,1441.44 510.782,1441.47 511.793,1441.5 512.803,1441.52 513.814,1441.55 514.825,1441.57 515.836,1441.6 516.847,1441.63 517.858,1441.65 518.869,1441.68 519.88,1441.7 520.891,1441.73 521.902,1441.75 522.913,1441.78 523.924,1441.8 524.935,1441.82 525.946,1441.85 526.957,1441.87 527.968,1441.89 528.979,1441.92 529.99,1441.94 531.001,1441.96 532.012,1441.98 533.023,1442.01 534.034,1442.03 535.045,1442.05 536.056,1442.07 537.067,1442.09 538.078,1442.11 539.089,1442.13 540.099,1442.15 541.11,1442.18 542.121,1442.2 543.132,1442.22 544.143,1442.24 545.154,1442.26 546.165,1442.28 547.176,1442.3 548.187,1442.31 549.198,1442.33 550.209,1442.35 551.22,1442.37 552.231,1442.39 553.242,1442.41 554.253,1442.43 555.264,1442.45 556.275,1442.46 557.286,1442.48 558.297,1442.5 559.308,1442.52 560.319,1442.53 561.33,1442.55 562.341,1442.57 563.352,1442.59 564.363,1442.6 565.374,1442.62 566.385,1442.64 567.395,1442.65 568.406,1442.67 569.417,1442.69 570.428,1442.7 571.439,1442.72 572.45,1442.73 573.461,1442.75 574.472,1442.77 575.483,1442.78 576.494,1442.8 577.505,1442.81 578.516,1442.83 579.527,1442.84 580.538,1442.86 581.549,1442.87 582.56,1442.89 583.571,1442.9 584.582,1442.91 585.593,1442.93 586.604,1442.94 587.615,1442.96 588.626,1442.97 589.637,1442.99 590.648,1443 591.659,1443.01 592.67,1443.03 593.681,1443.04 594.691,1443.05 595.702,1443.07 596.713,1443.08 597.724,1443.09 598.735,1443.11 599.746,1443.12 600.757,1443.13 601.768,1443.14 602.779,1443.16 603.79,1443.17 604.801,1443.18 605.812,1443.19 606.823,1443.21 607.834,1443.22 608.845,1443.23 609.856,1443.24 610.867,1443.25 611.878,1443.27 612.889,1443.28 613.9,1443.29 614.911,1443.3 615.922,1443.31 616.933,1443.32 617.944,1443.33 618.955,1443.34 619.966,1443.36 620.977,1443.37 621.987,1443.38 622.998,1443.39 624.009,1443.4 625.02,1443.41 626.031,1443.42 627.042,1443.43 628.053,1443.44 629.064,1443.45 630.075,1443.46 631.086,1443.47 632.097,1443.48 633.108,1443.49 634.119,1443.5 635.13,1443.51 636.141,1443.52 637.152,1443.53 638.163,1443.54 639.174,1443.55 640.185,1443.56 641.196,1443.57 642.207,1443.58 643.218,1443.59 644.229,1443.6 645.24,1443.61 646.251,1443.62 647.262,1443.63 648.273,1443.64 649.283,1443.64 650.294,1443.65 651.305,1443.66 652.316,1443.67 653.327,1443.68 654.338,1443.69 655.349,1443.7 656.36,1443.71 657.371,1443.71 658.382,1443.72 659.393,1443.73 660.404,1443.74 661.415,1443.75 662.426,1443.76 663.437,1443.76 664.448,1443.77 665.459,1443.78 666.47,1443.79 667.481,1443.8 668.492,1443.8 669.503,1443.81 670.514,1443.82 671.525,1443.83 672.536,1443.84 673.547,1443.84 674.558,1443.85 675.569,1443.86 676.579,1443.87 677.59,1443.87 678.601,1443.88 679.612,1443.89 680.623,1443.9 681.634,1443.9 682.645,1443.91 683.656,1443.92 684.667,1443.92 685.678,1443.93 686.689,1443.94 687.7,1443.94 688.711,1443.95 689.722,1443.96 690.733,1443.97 691.744,1443.97 692.755,1443.98 693.766,1443.99 694.777,1443.99 695.788,1444 696.799,1444.01 697.81,1444.01 698.821,1444.02 699.832,1444.03 700.843,1444.03 701.854,1444.04 702.864,1444.04 703.875,1444.05 704.886,1444.06 705.897,1444.06 706.908,1444.07 707.919,1444.08 708.93,1444.08 709.941,1444.09 710.952,1444.09 711.963,1444.1 712.974,1444.11 713.985,1444.11 714.996,1444.12 716.007,1444.12 717.018,1444.13 718.029,1444.13 719.04,1444.14 720.051,1444.15 721.062,1444.15 722.073,1444.16 723.084,1444.16 724.095,1444.17 725.106,1444.17 726.117,1444.18 727.128,1444.19 728.139,1444.19 729.15,1444.2 730.16,1444.2 731.171,1444.21 732.182,1444.21 733.193,1444.22 734.204,1444.22 735.215,1444.23 736.226,1444.23 737.237,1444.24 738.248,1444.24 739.259,1444.25 740.27,1444.25 741.281,1444.26 742.292,1444.26 743.303,1444.27 744.314,1444.27 745.325,1444.28 746.336,1444.28 747.347,1444.29 748.358,1444.29 749.369,1444.3 750.38,1444.3 751.391,1444.31 752.402,1444.31 753.413,1444.32 754.424,1444.32 755.435,1444.33 756.446,1444.33 757.456,1444.34 758.467,1444.34 759.478,1444.34 760.489,1444.35 761.5,1444.35 762.511,1444.36 763.522,1444.36 764.533,1444.37 765.544,1444.37 766.555,1444.38 767.566,1444.38 768.577,1444.38 769.588,1444.39 770.599,1444.39 771.61,1444.4 772.621,1444.4 773.632,1444.41 774.643,1444.41 775.654,1444.41 776.665,1444.42 777.676,1444.42 778.687,1444.43 779.698,1444.43 780.709,1444.43 781.72,1444.44 782.731,1444.44 783.742,1444.45 784.752,1444.45 785.763,1444.45 786.774,1444.46 787.785,1444.46 788.796,1444.47 789.807,1444.47 790.818,1444.47 791.829,1444.48 792.84,1444.48 793.851,1444.48 794.862,1444.49 795.873,1444.49 796.884,1444.5 797.895,1444.5 798.906,1444.5 799.917,1444.51 800.928,1444.51 801.939,1444.51 802.95,1444.52 803.961,1444.52 804.972,1444.52 805.983,1444.53 806.994,1444.53 808.005,1444.54 809.016,1444.54 810.027,1444.54 811.038,1444.55 812.048,1444.55 813.059,1444.55 814.07,1444.56 815.081,1444.56 816.092,1444.56 817.103,1444.57 818.114,1444.57 819.125,1444.57 820.136,1444.58 821.147,1444.58 822.158,1444.58 823.169,1444.59 824.18,1444.59 825.191,1444.59 826.202,1444.6 827.213,1444.6 828.224,1444.6 829.235,1444.6 830.246,1444.61 831.257,1444.61 832.268,1444.61 833.279,1444.62 834.29,1444.62 835.301,1444.62 836.312,1444.63 837.323,1444.63 838.334,1444.63 839.344,1444.64 840.355,1444.64 841.366,1444.64 842.377,1444.64 843.388,1444.65 844.399,1444.65 845.41,1444.65 846.421,1444.66 847.432,1444.66 848.443,1444.66 849.454,1444.67 850.465,1444.67 851.476,1444.67 852.487,1444.67 853.498,1444.68 854.509,1444.68 855.52,1444.68 856.531,1444.68 857.542,1444.69 858.553,1444.69 859.564,1444.69 860.575,1444.7 861.586,1444.7 862.597,1444.7 863.608,1444.7 864.619,1444.71 865.63,1444.71 866.64,1444.71 867.651,1444.71 868.662,1444.72 869.673,1444.72 870.684,1444.72 871.695,1444.73 872.706,1444.73 873.717,1444.73 874.728,1444.73 875.739,1444.74 876.75,1444.74 877.761,1444.74 878.772,1444.74 879.783,1444.75 880.794,1444.75 881.805,1444.75 882.816,1444.75 883.827,1444.76 884.838,1444.76 885.849,1444.76 886.86,1444.76 887.871,1444.77 888.882,1444.77 889.893,1444.77 890.904,1444.77 891.915,1444.77 892.926,1444.78 893.936,1444.78 894.947,1444.78 895.958,1444.78 896.969,1444.79 897.98,1444.79 898.991,1444.79 900.002,1444.79 901.013,1444.8 902.024,1444.8 903.035,1444.8 904.046,1444.8 905.057,1444.81 906.068,1444.81 907.079,1444.81 908.09,1444.81 909.101,1444.81 910.112,1444.82 911.123,1444.82 912.134,1444.82 913.145,1444.82 914.156,1444.83 915.167,1444.83 916.178,1444.83 917.189,1444.83 918.2,1444.83 919.211,1444.84 920.222,1444.84 921.232,1444.84 922.243,1444.84 923.254,1444.84 924.265,1444.85 925.276,1444.85 926.287,1444.85 927.298,1444.85 928.309,1444.85 929.32,1444.86 930.331,1444.86 931.342,1444.86 932.353,1444.86 933.364,1444.87 934.375,1444.87 935.386,1444.87 936.397,1444.87 937.408,1444.87 938.419,1444.88 939.43,1444.88 940.441,1444.88 941.452,1444.88 942.463,1444.88 943.474,1444.89 944.485,1444.89 945.496,1444.89 946.507,1444.89 947.518,1444.89 948.528,1444.89 949.539,1444.9 950.55,1444.9 951.561,1444.9 952.572,1444.9 953.583,1444.9 954.594,1444.91 955.605,1444.91 956.616,1444.91 957.627,1444.91 958.638,1444.91 959.649,1444.92 960.66,1444.92 961.671,1444.92 962.682,1444.92 963.693,1444.92 964.704,1444.92 965.715,1444.93 966.726,1444.93 967.737,1444.93 968.748,1444.93 969.759,1444.93 970.77,1444.94 971.781,1444.94 972.792,1444.94 973.803,1444.94 974.814,1444.94 975.824,1444.94 976.835,1444.95 977.846,1444.95 978.857,1444.95 979.868,1444.95 980.879,1444.95 981.89,1444.95 982.901,1444.96 983.912,1444.96 984.923,1444.96 985.934,1444.96 986.945,1444.96 987.956,1444.97 988.967,1444.97 989.978,1444.97 990.989,1444.97 992,1444.97 993.011,1444.97 994.022,1444.98 995.033,1444.98 996.044,1444.98 997.055,1444.98 998.066,1444.98 999.077,1444.98 1000.09,1444.99 1001.1,1444.99 1002.11,1444.99 1003.12,1444.99 1004.13,1444.99 1005.14,1444.99 1006.15,1444.99 1007.16,1445 1008.18,1445 1009.19,1445 1010.2,1445 1011.21,1445 1012.22,1445 1013.23,1445.01 1014.24,1445.01 1015.25,1445.01 1016.26,1445.01 1017.27,1445.01 1018.28,1445.01 1019.3,1445.01 1020.31,1445.02 1021.32,1445.02 1022.33,1445.02 1023.34,1445.02 1024.35,1445.02 1025.36,1445.02 1026.37,1445.03 1027.38,1445.03 1028.39,1445.03 1029.41,1445.03 1030.42,1445.03 1031.43,1445.03 1032.44,1445.03 1033.45,1445.04 1034.46,1445.04 1035.47,1445.04 1036.48,1445.04 1037.49,1445.04 1038.5,1445.04 1039.52,1445.04 1040.53,1445.05 1041.54,1445.05 1042.55,1445.05 1043.56,1445.05 1044.57,1445.05 1045.58,1445.05 1046.59,1445.05 1047.6,1445.06 1048.61,1445.06 1049.62,1445.06 1050.64,1445.06 1051.65,1445.06 1052.66,1445.06 1053.67,1445.06 1054.68,1445.07 1055.69,1445.07 1056.7,1445.07 1057.71,1445.07 1058.72,1445.07 1059.73,1445.07 1060.75,1445.07 1061.76,1445.08 1062.77,1445.08 1063.78,1445.08 1064.79,1445.08 1065.8,1445.08 1066.81,1445.08 1067.82,1445.08 1068.83,1445.09 1069.84,1445.09 1070.85,1445.09 1071.87,1445.09 1072.88,1445.09 1073.89,1445.09 1074.9,1445.09 1075.91,1445.09 1076.92,1445.1 1077.93,1445.1 1078.94,1445.1 1079.95,1445.1 1080.96,1445.1 1081.98,1445.1 1082.99,1445.1 1084,1445.1 1085.01,1445.11 1086.02,1445.11 1087.03,1445.11 1088.04,1445.11 1089.05,1445.11 1090.06,1445.11 1091.07,1445.11 1092.09,1445.11 1093.1,1445.12 1094.11,1445.12 1095.12,1445.12 1096.13,1445.12 1097.14,1445.12 1098.15,1445.12 1099.16,1445.12 1100.17,1445.12 1101.18,1445.13 1102.19,1445.13 1103.21,1445.13 1104.22,1445.13 1105.23,1445.13 1106.24,1445.13 1107.25,1445.13 1108.26,1445.13 1109.27,1445.14 1110.28,1445.14 1111.29,1445.14 1112.3,1445.14 1113.32,1445.14 1114.33,1445.14 1115.34,1445.14 1116.35,1445.14 1117.36,1445.15 1118.37,1445.15 1119.38,1445.15 1120.39,1445.15 1121.4,1445.15 1122.41,1445.15 1123.43,1445.15 1124.44,1445.15 1125.45,1445.15 1126.46,1445.16 1127.47,1445.16 1128.48,1445.16 1129.49,1445.16 1130.5,1445.16 1131.51,1445.16 1132.52,1445.16 1133.53,1445.16 1134.55,1445.17 1135.56,1445.17 1136.57,1445.17 1137.58,1445.17 1138.59,1445.17 1139.6,1445.17 1140.61,1445.17 1141.62,1445.17 1142.63,1445.17 1143.64,1445.18 1144.66,1445.18 1145.67,1445.18 1146.68,1445.18 1147.69,1445.18 1148.7,1445.18 1149.71,1445.18 1150.72,1445.18 1151.73,1445.18 1152.74,1445.19 1153.75,1445.19 1154.76,1445.19 1155.78,1445.19 1156.79,1445.19 1157.8,1445.19 1158.81,1445.19 1159.82,1445.19 1160.83,1445.19 1161.84,1445.19 1162.85,1445.2 1163.86,1445.2 1164.87,1445.2 1165.89,1445.2 1166.9,1445.2 1167.91,1445.2 1168.92,1445.2 1169.93,1445.2 1170.94,1445.2 1171.95,1445.21 1172.96,1445.21 1173.97,1445.21 1174.98,1445.21 1176,1445.21 1177.01,1445.21 1178.02,1445.21 1179.03,1445.21 1180.04,1445.21 1181.05,1445.21 1182.06,1445.22 1183.07,1445.22 1184.08,1445.22 1185.09,1445.22 1186.1,1445.22 1187.12,1445.22 1188.13,1445.22 1189.14,1445.22 1190.15,1445.22 1191.16,1445.22 1192.17,1445.23 1193.18,1445.23 1194.19,1445.23 1195.2,1445.23 1196.21,1445.23 1197.23,1445.23 1198.24,1445.23 1199.25,1445.23 1200.26,1445.23 1201.27,1445.23 1202.28,1445.24 1203.29,1445.24 1204.3,1445.24 1205.31,1445.24 1206.32,1445.24 1207.33,1445.24 1208.35,1445.24 1209.36,1445.24 1210.37,1445.24 1211.38,1445.24 1212.39,1445.25 1213.4,1445.25 1214.41,1445.25 1215.42,1445.25 1216.43,1445.25 1217.44,1445.25 1218.46,1445.25 1219.47,1445.25 1220.48,1445.25 1221.49,1445.25 1222.5,1445.25 1223.51,1445.26 1224.52,1445.26 1225.53,1445.26 1226.54,1445.26 1227.55,1445.26 1228.57,1445.26 1229.58,1445.26 1230.59,1445.26 1231.6,1445.26 1232.61,1445.26 1233.62,1445.27 1234.63,1445.27 1235.64,1445.27 1236.65,1445.27 1237.66,1445.27 1238.67,1445.27 1239.69,1445.27 1240.7,1445.27 1241.71,1445.27 1242.72,1445.27 1243.73,1445.27 1244.74,1445.28 1245.75,1445.28 1246.76,1445.28 1247.77,1445.28 1248.78,1445.28 1249.8,1445.28 1250.81,1445.28 1251.82,1445.28 1252.83,1445.28 1253.84,1445.28 1254.85,1445.28 1255.86,1445.28 1256.87,1445.29 1257.88,1445.29 1258.89,1445.29 1259.91,1445.29 1260.92,1445.29 1261.93,1445.29 1262.94,1445.29 1263.95,1445.29 1264.96,1445.29 1265.97,1445.29 1266.98,1445.29 1267.99,1445.3 1269,1445.3 1270.01,1445.3 1271.03,1445.3 1272.04,1445.3 1273.05,1445.3 1274.06,1445.3 1275.07,1445.3 1276.08,1445.3 1277.09,1445.3 1278.1,1445.3 1279.11,1445.3 1280.12,1445.31 1281.14,1445.31 1282.15,1445.31 1283.16,1445.31 1284.17,1445.31 1285.18,1445.31 1286.19,1445.31 1287.2,1445.31 1288.21,1445.31 1289.22,1445.31 1290.23,1445.31 1291.24,1445.31 1292.26,1445.32 1293.27,1445.32 1294.28,1445.32 1295.29,1445.32 1296.3,1445.32 1297.31,1445.32 1298.32,1445.32 1299.33,1445.32 1300.34,1445.32 1301.35,1445.32 1302.37,1445.32 1303.38,1445.32 1304.39,1445.33 1305.4,1445.33 1306.41,1445.33 1307.42,1445.33 1308.43,1445.33 1309.44,1445.33 1310.45,1445.33 1311.46,1445.33 1312.48,1445.33 1313.49,1445.33 1314.5,1445.33 1315.51,1445.33 1316.52,1445.33 1317.53,1445.34 1318.54,1445.34 1319.55,1445.34 1320.56,1445.34 1321.57,1445.34 1322.58,1445.34 1323.6,1445.34 1324.61,1445.34 1325.62,1445.34 1326.63,1445.34 1327.64,1445.34 1328.65,1445.34 1329.66,1445.35 1330.67,1445.35 1331.68,1445.35 1332.69,1445.35 1333.71,1445.35 1334.72,1445.35 1335.73,1445.35 1336.74,1445.35 1337.75,1445.35 1338.76,1445.35 1339.77,1445.35 1340.78,1445.35 1341.79,1445.35 1342.8,1445.35 1343.81,1445.36 1344.83,1445.36 1345.84,1445.36 1346.85,1445.36 1347.86,1445.36 1348.87,1445.36 1349.88,1445.36 1350.89,1445.36 1351.9,1445.36 1352.91,1445.36 1353.92,1445.36 1354.94,1445.36 1355.95,1445.36 1356.96,1445.37 1357.97,1445.37 1358.98,1445.37 1359.99,1445.37 1361,1445.37 1362.01,1445.37 1363.02,1445.37 1364.03,1445.37 1365.05,1445.37 1366.06,1445.37 1367.07,1445.37 1368.08,1445.37 1369.09,1445.37 1370.1,1445.37 1371.11,1445.38 1372.12,1445.38 1373.13,1445.38 1374.14,1445.38 1375.15,1445.38 1376.17,1445.38 1377.18,1445.38 1378.19,1445.38 1379.2,1445.38 1380.21,1445.38 1381.22,1445.38 1382.23,1445.38 1383.24,1445.38 1384.25,1445.38 1385.26,1445.39 1386.28,1445.39 1387.29,1445.39 1388.3,1445.39 1389.31,1445.39 1390.32,1445.39 1391.33,1445.39 1392.34,1445.39 1393.35,1445.39 1394.36,1445.39 1395.37,1445.39 1396.39,1445.39 1397.4,1445.39 1398.41,1445.39 1399.42,1445.4 1400.43,1445.4 1401.44,1445.4 1402.45,1445.4 1403.46,1445.4 1404.47,1445.4 1405.48,1445.4 1406.49,1445.4 1407.51,1445.4 1408.52,1445.4 1409.53,1445.4 1410.54,1445.4 1411.55,1445.4 1412.56,1445.4 1413.57,1445.4 1414.58,1445.41 1415.59,1445.41 1416.6,1445.41 1417.62,1445.41 1418.63,1445.41 1419.64,1445.41 1420.65,1445.41 1421.66,1445.41 1422.67,1445.41 1423.68,1445.41 1424.69,1445.41 1425.7,1445.41 1426.71,1445.41 1427.72,1445.41 1428.74,1445.41 1429.75,1445.41 1430.76,1445.42 1431.77,1445.42 1432.78,1445.42 1433.79,1445.42 1434.8,1445.42 1435.81,1445.42 1436.82,1445.42 1437.83,1445.42 1438.85,1445.42 1439.86,1445.42 1440.87,1445.42 1441.88,1445.42 1442.89,1445.42 1443.9,1445.42 1444.91,1445.42 1445.92,1445.43 1446.93,1445.43 1447.94,1445.43 1448.96,1445.43 1449.97,1445.43 1450.98,1445.43 1451.99,1445.43 1453,1445.43 1454.01,1445.43 1455.02,1445.43 1456.03,1445.43 1457.04,1445.43 1458.05,1445.43 1459.06,1445.43 1460.08,1445.43 1461.09,1445.43 1462.1,1445.44 1463.11,1445.44 1464.12,1445.44 1465.13,1445.44 1466.14,1445.44 1467.15,1445.44 1468.16,1445.44 1469.17,1445.44 1470.19,1445.44 1471.2,1445.44 1472.21,1445.44 1473.22,1445.44 1474.23,1445.44 1475.24,1445.44 1476.25,1445.44 1477.26,1445.44 1478.27,1445.44 1479.28,1445.45 1480.29,1445.45 1481.31,1445.45 1482.32,1445.45 1483.33,1445.45 1484.34,1445.45 1485.35,1445.45 1486.36,1445.45 1487.37,1445.45 1488.38,1445.45 1489.39,1445.45 1490.4,1445.45 1491.42,1445.45 1492.43,1445.45 1493.44,1445.45 1494.45,1445.45 1495.46,1445.45 1496.47,1445.46 1497.48,1445.46 1498.49,1445.46 1499.5,1445.46 1500.51,1445.46 1501.53,1445.46 1502.54,1445.46 1503.55,1445.46 1504.56,1445.46 1505.57,1445.46 1506.58,1445.46 1507.59,1445.46 1508.6,1445.46 1509.61,1445.46 1510.62,1445.46 1511.63,1445.46 1512.65,1445.46 1513.66,1445.47 1514.67,1445.47 1515.68,1445.47 1516.69,1445.47 1517.7,1445.47 1518.71,1445.47 1519.72,1445.47 1520.73,1445.47 1521.74,1445.47 1522.76,1445.47 1523.77,1445.47 1524.78,1445.47 1525.79,1445.47 1526.8,1445.47 1527.81,1445.47 1528.82,1445.47 1529.83,1445.47 1530.84,1445.47 1531.85,1445.48 1532.87,1445.48 1533.88,1445.48 1534.89,1445.48 1535.9,1445.48 1536.91,1445.48 1537.92,1445.48 1538.93,1445.48 1539.94,1445.48 1540.95,1445.48 1541.96,1445.48 1542.97,1445.48 1543.99,1445.48 1545,1445.48 1546.01,1445.48 1547.02,1445.48 1548.03,1445.48 1549.04,1445.48 1550.05,1445.48 1551.06,1445.49 1552.07,1445.49 1553.08,1445.49 1554.1,1445.49 1555.11,1445.49 1556.12,1445.49 1557.13,1445.49 1558.14,1445.49 1559.15,1445.49 1560.16,1445.49 1561.17,1445.49 1562.18,1445.49 1563.19,1445.49 1564.2,1445.49 1565.22,1445.49 1566.23,1445.49 1567.24,1445.49 1568.25,1445.49 1569.26,1445.49 1570.27,1445.5 1571.28,1445.5 1572.29,1445.5 1573.3,1445.5 1574.31,1445.5 1575.33,1445.5 1576.34,1445.5 1577.35,1445.5 1578.36,1445.5 1579.37,1445.5 1580.38,1445.5 1581.39,1445.5 1582.4,1445.5 1583.41,1445.5 1584.42,1445.5 1585.44,1445.5 1586.45,1445.5 1587.46,1445.5 1588.47,1445.5 1589.48,1445.5 1590.49,1445.51 1591.5,1445.51 1592.51,1445.51 1593.52,1445.51 1594.53,1445.51 1595.54,1445.51 1596.56,1445.51 1597.57,1445.51 1598.58,1445.51 1599.59,1445.51 1600.6,1445.51 1601.61,1445.51 1602.62,1445.51 1603.63,1445.51 1604.64,1445.51 1605.65,1445.51 1606.67,1445.51 1607.68,1445.51 1608.69,1445.51 1609.7,1445.51 1610.71,1445.52 1611.72,1445.52 1612.73,1445.52 1613.74,1445.52 1614.75,1445.52 1615.76,1445.52 1616.77,1445.52 1617.79,1445.52 1618.8,1445.52 1619.81,1445.52 1620.82,1445.52 1621.83,1445.52 1622.84,1445.52 1623.85,1445.52 1624.86,1445.52 1625.87,1445.52 1626.88,1445.52 1627.9,1445.52 1628.91,1445.52 1629.92,1445.52 1630.93,1445.52 1631.94,1445.53 1632.95,1445.53 1633.96,1445.53 1634.97,1445.53 1635.98,1445.53 1636.99,1445.53 1638.01,1445.53 1639.02,1445.53 1640.03,1445.53 1641.04,1445.53 1642.05,1445.53 1643.06,1445.53 1644.07,1445.53 1645.08,1445.53 1646.09,1445.53 1647.1,1445.53 1648.11,1445.53 1649.13,1445.53 1650.14,1445.53 1651.15,1445.53 1652.16,1445.53 1653.17,1445.53 1654.18,1445.54 1655.19,1445.54 1656.2,1445.54 1657.21,1445.54 1658.22,1445.54 1659.24,1445.54 1660.25,1445.54 1661.26,1445.54 1662.27,1445.54 1663.28,1445.54 1664.29,1445.54 1665.3,1445.54 1666.31,1445.54 1667.32,1445.54 1668.33,1445.54 1669.35,1445.54 1670.36,1445.54 1671.37,1445.54 1672.38,1445.54 1673.39,1445.54 1674.4,1445.54 1675.41,1445.54 1676.42,1445.54 1677.43,1445.55 1678.44,1445.55 1679.45,1445.55 1680.47,1445.55 1681.48,1445.55 1682.49,1445.55 1683.5,1445.55 1684.51,1445.55 1685.52,1445.55 1686.53,1445.55 1687.54,1445.55 1688.55,1445.55 1689.56,1445.55 1690.58,1445.55 1691.59,1445.55 1692.6,1445.55 1693.61,1445.55 1694.62,1445.55 1695.63,1445.55 1696.64,1445.55 1697.65,1445.55 1698.66,1445.55 1699.67,1445.55 1700.68,1445.56 1701.7,1445.56 1702.71,1445.56 1703.72,1445.56 1704.73,1445.56 1705.74,1445.56 1706.75,1445.56 1707.76,1445.56 1708.77,1445.56 1709.78,1445.56 1710.79,1445.56 1711.81,1445.56 1712.82,1445.56 1713.83,1445.56 1714.84,1445.56 1715.85,1445.56 1716.86,1445.56 1717.87,1445.56 1718.88,1445.56 1719.89,1445.56 1720.9,1445.56 1721.92,1445.56 1722.93,1445.56 1723.94,1445.56 1724.95,1445.56 1725.96,1445.57 1726.97,1445.57 1727.98,1445.57 1728.99,1445.57 1730,1445.57 1731.01,1445.57 1732.02,1445.57 1733.04,1445.57 1734.05,1445.57 1735.06,1445.57 1736.07,1445.57 1737.08,1445.57 1738.09,1445.57 1739.1,1445.57 1740.11,1445.57 1741.12,1445.57 1742.13,1445.57 1743.15,1445.57 1744.16,1445.57 1745.17,1445.57 1746.18,1445.57 1747.19,1445.57 1748.2,1445.57 1749.21,1445.57 1750.22,1445.57 1751.23,1445.58 1752.24,1445.58 1753.25,1445.58 1754.27,1445.58 1755.28,1445.58 1756.29,1445.58 1757.3,1445.58 1758.31,1445.58 1759.32,1445.58 1760.33,1445.58 1761.34,1445.58 1762.35,1445.58 1763.36,1445.58 1764.38,1445.58 1765.39,1445.58 1766.4,1445.58 1767.41,1445.58 1768.42,1445.58 1769.43,1445.58 1770.44,1445.58 1771.45,1445.58 1772.46,1445.58 1773.47,1445.58 1774.49,1445.58 1775.5,1445.58 1776.51,1445.58 1777.52,1445.59 1778.53,1445.59 1779.54,1445.59 1780.55,1445.59 1781.56,1445.59 1782.57,1445.59 1783.58,1445.59 1784.59,1445.59 1785.61,1445.59 1786.62,1445.59 1787.63,1445.59 1788.64,1445.59 1789.65,1445.59 1790.66,1445.59 1791.67,1445.59 1792.68,1445.59 1793.69,1445.59 1794.7,1445.59 1795.72,1445.59 1796.73,1445.59 1797.74,1445.59 1798.75,1445.59 1799.76,1445.59 1800.77,1445.59 1801.78,1445.59 1802.79,1445.59 1803.8,1445.59 1804.81,1445.59 1805.82,1445.6 1806.84,1445.6 1807.85,1445.6 1808.86,1445.6 1809.87,1445.6 1810.88,1445.6 1811.89,1445.6 1812.9,1445.6 1813.91,1445.6 1814.92,1445.6 1815.93,1445.6 1816.95,1445.6 1817.96,1445.6 1818.97,1445.6 1819.98,1445.6 1820.99,1445.6 1822,1445.6 1823.01,1445.6 1824.02,1445.6 1825.03,1445.6 1826.04,1445.6 1827.06,1445.6 1828.07,1445.6 1829.08,1445.6 1830.09,1445.6 1831.1,1445.6 1832.11,1445.6 1833.12,1445.6 1834.13,1445.61 1835.14,1445.61 1836.15,1445.61 1837.16,1445.61 1838.18,1445.61 1839.19,1445.61 1840.2,1445.61 1841.21,1445.61 1842.22,1445.61 1843.23,1445.61 1844.24,1445.61 1845.25,1445.61 1846.26,1445.61 1847.27,1445.61 1848.29,1445.61 1849.3,1445.61 1850.31,1445.61 1851.32,1445.61 1852.33,1445.61 1853.34,1445.61 1854.35,1445.61 1855.36,1445.61 1856.37,1445.61 1857.38,1445.61 1858.4,1445.61 1859.41,1445.61 1860.42,1445.61 1861.43,1445.61 1862.44,1445.61 1863.45,1445.61 1864.46,1445.61 1865.47,1445.62 1866.48,1445.62 1867.49,1445.62 1868.5,1445.62 1869.52,1445.62 1870.53,1445.62 1871.54,1445.62 1872.55,1445.62 1873.56,1445.62 1874.57,1445.62 1875.58,1445.62 1876.59,1445.62 1877.6,1445.62 1878.61,1445.62 1879.63,1445.62 1880.64,1445.62 1881.65,1445.62 1882.66,1445.62 1883.67,1445.62 1884.68,1445.62 1885.69,1445.62 1886.7,1445.62 1887.71,1445.62 1888.72,1445.62 1889.73,1445.62 1890.75,1445.62 1891.76,1445.62 1892.77,1445.62 1893.78,1445.62 1894.79,1445.62 1895.8,1445.62 1896.81,1445.63 1897.82,1445.63 1898.83,1445.63 1899.84,1445.63 1900.86,1445.63 1901.87,1445.63 1902.88,1445.63 1903.89,1445.63 1904.9,1445.63 1905.91,1445.63 1906.92,1445.63 1907.93,1445.63 1908.94,1445.63 1909.95,1445.63 1910.97,1445.63 1911.98,1445.63 1912.99,1445.63 1914,1445.63 1915.01,1445.63 1916.02,1445.63 1917.03,1445.63 1918.04,1445.63 1919.05,1445.63 1920.06,1445.63 1921.07,1445.63 1922.09,1445.63 1923.1,1445.63 1924.11,1445.63 1925.12,1445.63 1926.13,1445.63 1927.14,1445.63 1928.15,1445.63 1929.16,1445.63 1930.17,1445.64 1931.18,1445.64 1932.2,1445.64 1933.21,1445.64 1934.22,1445.64 1935.23,1445.64 1936.24,1445.64 1937.25,1445.64 1938.26,1445.64 1939.27,1445.64 1940.28,1445.64 1941.29,1445.64 1942.3,1445.64 1943.32,1445.64 1944.33,1445.64 1945.34,1445.64 1946.35,1445.64 1947.36,1445.64 1948.37,1445.64 1949.38,1445.64 1950.39,1445.64 1951.4,1445.64 1952.41,1445.64 1953.43,1445.64 1954.44,1445.64 1955.45,1445.64 1956.46,1445.64 1957.47,1445.64 1958.48,1445.64 1959.49,1445.64 1960.5,1445.64 1961.51,1445.64 1962.52,1445.64 1963.54,1445.64 1964.55,1445.64 1965.56,1445.65 1966.57,1445.65 1967.58,1445.65 1968.59,1445.65 1969.6,1445.65 1970.61,1445.65 1971.62,1445.65 1972.63,1445.65 1973.64,1445.65 1974.66,1445.65 1975.67,1445.65 1976.68,1445.65 1977.69,1445.65 1978.7,1445.65 1979.71,1445.65 1980.72,1445.65 1981.73,1445.65 1982.74,1445.65 1983.75,1445.65 1984.77,1445.65 1985.78,1445.65 1986.79,1445.65 1987.8,1445.65 1988.81,1445.65 1989.82,1445.65 1990.83,1445.65 1991.84,1445.65 1992.85,1445.65 1993.86,1445.65 1994.88,1445.65 1995.89,1445.65 1996.9,1445.65 1997.91,1445.65 1998.92,1445.65 1999.93,1445.65 2000.94,1445.65 2001.95,1445.65 2002.96,1445.66 2003.97,1445.66 2004.98,1445.66 2006,1445.66 2007.01,1445.66 2008.02,1445.66 2009.03,1445.66 2010.04,1445.66 2011.05,1445.66 2012.06,1445.66 2013.07,1445.66 2014.08,1445.66 2015.09,1445.66 2016.11,1445.66 2017.12,1445.66 2018.13,1445.66 2019.14,1445.66 2020.15,1445.66 2021.16,1445.66 2022.17,1445.66 2023.18,1445.66 2024.19,1445.66 2025.2,1445.66 2026.21,1445.66 2027.23,1445.66 2028.24,1445.66 2029.25,1445.66 2030.26,1445.66 2031.27,1445.66 2032.28,1445.66 2033.29,1445.66 2034.3,1445.66 2035.31,1445.66 2036.32,1445.66 2037.34,1445.66 2038.35,1445.66 2039.36,1445.66 2040.37,1445.66 2041.38,1445.66 2042.39,1445.66 2043.4,1445.67 2044.41,1445.67 2045.42,1445.67 2046.43,1445.67 2047.45,1445.67 2048.46,1445.67 2049.47,1445.67 2050.48,1445.67 2051.49,1445.67 2052.5,1445.67 2053.51,1445.67 2054.52,1445.67 2055.53,1445.67 2056.54,1445.67 2057.55,1445.67 2058.57,1445.67 2059.58,1445.67 2060.59,1445.67 2061.6,1445.67 2062.61,1445.67 2063.62,1445.67 2064.63,1445.67 2065.64,1445.67 2066.65,1445.67 2067.66,1445.67 2068.68,1445.67 2069.69,1445.67 2070.7,1445.67 2071.71,1445.67 2072.72,1445.67 2073.73,1445.67 2074.74,1445.67 2075.75,1445.67 2076.76,1445.67 2077.77,1445.67 2078.78,1445.67 2079.8,1445.67 2080.81,1445.67 2081.82,1445.67 2082.83,1445.67 2083.84,1445.67 2084.85,1445.67 2085.86,1445.68 2086.87,1445.68 2087.88,1445.68 2088.89,1445.68 2089.91,1445.68 2090.92,1445.68 2091.93,1445.68 2092.94,1445.68 2093.95,1445.68 2094.96,1445.68 2095.97,1445.68 2096.98,1445.68 2097.99,1445.68 2099,1445.68 2100.02,1445.68 2101.03,1445.68 2102.04,1445.68 2103.05,1445.68 2104.06,1445.68 2105.07,1445.68 2106.08,1445.68 2107.09,1445.68 2108.1,1445.68 2109.11,1445.68 2110.12,1445.68 2111.14,1445.68 2112.15,1445.68 2113.16,1445.68 2114.17,1445.68 2115.18,1445.68 2116.19,1445.68 2117.2,1445.68 2118.21,1445.68 2119.22,1445.68 2120.23,1445.68 2121.25,1445.68 2122.26,1445.68 2123.27,1445.68 2124.28,1445.68 2125.29,1445.68 2126.3,1445.68 2127.31,1445.68 2128.32,1445.68 2129.33,1445.68 2130.34,1445.69 2131.36,1445.69 2132.37,1445.69 2133.38,1445.69 2134.39,1445.69 2135.4,1445.69 2136.41,1445.69 2137.42,1445.69 2138.43,1445.69 2139.44,1445.69 2140.45,1445.69 2141.46,1445.69 2142.48,1445.69 2143.49,1445.69 2144.5,1445.69 2145.51,1445.69 2146.52,1445.69 2147.53,1445.69 2148.54,1445.69 2149.55,1445.69 2150.56,1445.69 2151.57,1445.69 2152.59,1445.69 2153.6,1445.69 2154.61,1445.69 2155.62,1445.69 2156.63,1445.69 2157.64,1445.69 2158.65,1445.69 2159.66,1445.69 2160.67,1445.69 2161.68,1445.69 2162.69,1445.69 2163.71,1445.69 2164.72,1445.69 2165.73,1445.69 2166.74,1445.69 2167.75,1445.69 2168.76,1445.69 2169.77,1445.69 2170.78,1445.69 2171.79,1445.69 2172.8,1445.69 2173.82,1445.69 2174.83,1445.69 2175.84,1445.69 2176.85,1445.69 2177.86,1445.69 2178.87,1445.7 2179.88,1445.7 2180.89,1445.7 2181.9,1445.7 2182.91,1445.7 2183.93,1445.7 2184.94,1445.7 2185.95,1445.7 2186.96,1445.7 2187.97,1445.7 2188.98,1445.7 2189.99,1445.7 2191,1445.7 2192.01,1445.7 2193.02,1445.7 2194.03,1445.7 2195.05,1445.7 2196.06,1445.7 2197.07,1445.7 2198.08,1445.7 2199.09,1445.7 2200.1,1445.7 2201.11,1445.7 2202.12,1445.7 2203.13,1445.7 2204.14,1445.7 2205.16,1445.7 2206.17,1445.7 2207.18,1445.7 2208.19,1445.7 2209.2,1445.7 2210.21,1445.7 2211.22,1445.7 2212.23,1445.7 2213.24,1445.7 2214.25,1445.7 2215.26,1445.7 2216.28,1445.7 2217.29,1445.7 2218.3,1445.7 2219.31,1445.7 2220.32,1445.7 2221.33,1445.7 2222.34,1445.7 2223.35,1445.7 2224.36,1445.7 2225.37,1445.7 2226.39,1445.7 2227.4,1445.7 2228.41,1445.7 2229.42,1445.7 2230.43,1445.7 2231.44,1445.71 2232.45,1445.71 2233.46,1445.71 2234.47,1445.71 2235.48,1445.71 2236.5,1445.71 2237.51,1445.71 2238.52,1445.71 2239.53,1445.71 2240.54,1445.71 2241.55,1445.71 2242.56,1445.71 2243.57,1445.71 2244.58,1445.71 2245.59,1445.71 2246.6,1445.71 2247.62,1445.71 2248.63,1445.71 2249.64,1445.71 2250.65,1445.71 2251.66,1445.71 2252.67,1445.71 2253.68,1445.71 2254.69,1445.71 2255.7,1445.71 2256.71,1445.71 2257.73,1445.71 2258.74,1445.71 2259.75,1445.71 2260.76,1445.71 2261.77,1445.71 2262.78,1445.71 2263.79,1445.71 2264.8,1445.71 2265.81,1445.71 2266.82,1445.71 2267.84,1445.71 2268.85,1445.71 2269.86,1445.71 2270.87,1445.71 2271.88,1445.71 2272.89,1445.71 2273.9,1445.71 2274.91,1445.71 2275.92,1445.71 2276.93,1445.71 2277.94,1445.71 2278.96,1445.71 2279.97,1445.71 2280.98,1445.71 2281.99,1445.71 2283,1445.71 2284.01,1445.71 2285.02,1445.71 2286.03,1445.71 2287.04,1445.71 2288.05,1445.72 2289.07,1445.72 2290.08,1445.72 2291.09,1445.72 2292.1,1445.72 "/>
<path clip-path="url(#clip470)" d="M2014.56 198.898 L2281.31 198.898 L2281.31 95.2176 L2014.56 95.2176  Z" fill="#ffffff" fill-rule="evenodd" fill-opacity="1"/>
<polyline clip-path="url(#clip470)" style="stroke:#000000; stroke-linecap:round; stroke-linejoin:round; stroke-width:4; stroke-opacity:1; fill:none" points="2014.56,198.898 2281.31,198.898 2281.31,95.2176 2014.56,95.2176 2014.56,198.898 "/>
<polyline clip-path="url(#clip470)" style="stroke:#009af9; stroke-linecap:round; stroke-linejoin:round; stroke-width:4; stroke-opacity:1; fill:none" points="2038.37,147.058 2181.26,147.058 "/>
<path clip-path="url(#clip470)" d="M2218.91 166.745 Q2217.11 171.375 2215.39 172.787 Q2213.68 174.199 2210.81 174.199 L2207.41 174.199 L2207.41 170.634 L2209.91 170.634 Q2211.67 170.634 2212.64 169.8 Q2213.61 168.967 2214.79 165.865 L2215.56 163.921 L2205.07 138.412 L2209.58 138.412 L2217.69 158.689 L2225.79 138.412 L2230.3 138.412 L2218.91 166.745 Z" fill="#000000" fill-rule="nonzero" fill-opacity="1" /><path clip-path="url(#clip470)" d="M2237.59 160.402 L2245.23 160.402 L2245.23 134.037 L2236.92 135.703 L2236.92 131.444 L2245.19 129.778 L2249.86 129.778 L2249.86 160.402 L2257.5 160.402 L2257.5 164.338 L2237.59 164.338 L2237.59 160.402 Z" fill="#000000" fill-rule="nonzero" fill-opacity="1" /></svg>
