<?xml version="1.0" encoding="utf-8"?>
<svg xmlns="http://www.w3.org/2000/svg" xmlns:xlink="http://www.w3.org/1999/xlink" width="600" height="400" viewBox="0 0 2400 1600">
<defs>
  <clipPath id="clip740">
    <rect x="0" y="0" width="2400" height="1600"/>
  </clipPath>
</defs>
<path clip-path="url(#clip740)" d="M0 1600 L2400 1600 L2400 0 L0 0  Z" fill="#ffffff" fill-rule="evenodd" fill-opacity="1"/>
<defs>
  <clipPath id="clip741">
    <rect x="480" y="0" width="1681" height="1600"/>
  </clipPath>
</defs>
<path clip-path="url(#clip740)" d="M232.339 1486.45 L2352.76 1486.45 L2352.76 47.2441 L232.339 47.2441  Z" fill="#ffffff" fill-rule="evenodd" fill-opacity="1"/>
<defs>
  <clipPath id="clip742">
    <rect x="232" y="47" width="2121" height="1440"/>
  </clipPath>
</defs>
<polyline clip-path="url(#clip742)" style="stroke:#000000; stroke-linecap:round; stroke-linejoin:round; stroke-width:2; stroke-opacity:0.1; fill:none" points="292.35,1486.45 292.35,47.2441 "/>
<polyline clip-path="url(#clip742)" style="stroke:#000000; stroke-linecap:round; stroke-linejoin:round; stroke-width:2; stroke-opacity:0.1; fill:none" points="792.449,1486.45 792.449,47.2441 "/>
<polyline clip-path="url(#clip742)" style="stroke:#000000; stroke-linecap:round; stroke-linejoin:round; stroke-width:2; stroke-opacity:0.1; fill:none" points="1292.55,1486.45 1292.55,47.2441 "/>
<polyline clip-path="url(#clip742)" style="stroke:#000000; stroke-linecap:round; stroke-linejoin:round; stroke-width:2; stroke-opacity:0.1; fill:none" points="1792.65,1486.45 1792.65,47.2441 "/>
<polyline clip-path="url(#clip742)" style="stroke:#000000; stroke-linecap:round; stroke-linejoin:round; stroke-width:2; stroke-opacity:0.1; fill:none" points="2292.74,1486.45 2292.74,47.2441 "/>
<polyline clip-path="url(#clip740)" style="stroke:#000000; stroke-linecap:round; stroke-linejoin:round; stroke-width:4; stroke-opacity:1; fill:none" points="232.339,1486.45 2352.76,1486.45 "/>
<polyline clip-path="url(#clip740)" style="stroke:#000000; stroke-linecap:round; stroke-linejoin:round; stroke-width:4; stroke-opacity:1; fill:none" points="292.35,1486.45 292.35,1467.55 "/>
<polyline clip-path="url(#clip740)" style="stroke:#000000; stroke-linecap:round; stroke-linejoin:round; stroke-width:4; stroke-opacity:1; fill:none" points="792.449,1486.45 792.449,1467.55 "/>
<polyline clip-path="url(#clip740)" style="stroke:#000000; stroke-linecap:round; stroke-linejoin:round; stroke-width:4; stroke-opacity:1; fill:none" points="1292.55,1486.45 1292.55,1467.55 "/>
<polyline clip-path="url(#clip740)" style="stroke:#000000; stroke-linecap:round; stroke-linejoin:round; stroke-width:4; stroke-opacity:1; fill:none" points="1792.65,1486.45 1792.65,1467.55 "/>
<polyline clip-path="url(#clip740)" style="stroke:#000000; stroke-linecap:round; stroke-linejoin:round; stroke-width:4; stroke-opacity:1; fill:none" points="2292.74,1486.45 2292.74,1467.55 "/>
<path clip-path="url(#clip740)" d="M292.35 1517.37 Q288.739 1517.37 286.911 1520.93 Q285.105 1524.47 285.105 1531.6 Q285.105 1538.71 286.911 1542.27 Q288.739 1545.82 292.35 1545.82 Q295.985 1545.82 297.79 1542.27 Q299.619 1538.71 299.619 1531.6 Q299.619 1524.47 297.79 1520.93 Q295.985 1517.37 292.35 1517.37 M292.35 1513.66 Q298.161 1513.66 301.216 1518.27 Q304.295 1522.85 304.295 1531.6 Q304.295 1540.33 301.216 1544.94 Q298.161 1549.52 292.35 1549.52 Q286.54 1549.52 283.462 1544.94 Q280.406 1540.33 280.406 1531.6 Q280.406 1522.85 283.462 1518.27 Q286.54 1513.66 292.35 1513.66 Z" fill="#000000" fill-rule="nonzero" fill-opacity="1" /><path clip-path="url(#clip740)" d="M756.141 1544.91 L772.46 1544.91 L772.46 1548.85 L750.516 1548.85 L750.516 1544.91 Q753.178 1542.16 757.761 1537.53 Q762.368 1532.88 763.549 1531.53 Q765.794 1529.01 766.673 1527.27 Q767.576 1525.51 767.576 1523.82 Q767.576 1521.07 765.632 1519.33 Q763.711 1517.6 760.609 1517.6 Q758.41 1517.6 755.956 1518.36 Q753.525 1519.13 750.748 1520.68 L750.748 1515.95 Q753.572 1514.82 756.025 1514.24 Q758.479 1513.66 760.516 1513.66 Q765.886 1513.66 769.081 1516.35 Q772.275 1519.03 772.275 1523.52 Q772.275 1525.65 771.465 1527.57 Q770.678 1529.47 768.572 1532.07 Q767.993 1532.74 764.891 1535.95 Q761.789 1539.15 756.141 1544.91 Z" fill="#000000" fill-rule="nonzero" fill-opacity="1" /><path clip-path="url(#clip740)" d="M782.322 1514.29 L800.678 1514.29 L800.678 1518.22 L786.604 1518.22 L786.604 1526.7 Q787.622 1526.35 788.641 1526.19 Q789.659 1526 790.678 1526 Q796.465 1526 799.845 1529.17 Q803.224 1532.34 803.224 1537.76 Q803.224 1543.34 799.752 1546.44 Q796.28 1549.52 789.96 1549.52 Q787.784 1549.52 785.516 1549.15 Q783.271 1548.78 780.863 1548.04 L780.863 1543.34 Q782.947 1544.47 785.169 1545.03 Q787.391 1545.58 789.868 1545.58 Q793.872 1545.58 796.21 1543.48 Q798.548 1541.37 798.548 1537.76 Q798.548 1534.15 796.21 1532.04 Q793.872 1529.94 789.868 1529.94 Q787.993 1529.94 786.118 1530.35 Q784.266 1530.77 782.322 1531.65 L782.322 1514.29 Z" fill="#000000" fill-rule="nonzero" fill-opacity="1" /><path clip-path="url(#clip740)" d="M822.437 1517.37 Q818.826 1517.37 816.997 1520.93 Q815.192 1524.47 815.192 1531.6 Q815.192 1538.71 816.997 1542.27 Q818.826 1545.82 822.437 1545.82 Q826.071 1545.82 827.877 1542.27 Q829.706 1538.71 829.706 1531.6 Q829.706 1524.47 827.877 1520.93 Q826.071 1517.37 822.437 1517.37 M822.437 1513.66 Q828.247 1513.66 831.303 1518.27 Q834.381 1522.85 834.381 1531.6 Q834.381 1540.33 831.303 1544.94 Q828.247 1549.52 822.437 1549.52 Q816.627 1549.52 813.548 1544.94 Q810.493 1540.33 810.493 1531.6 Q810.493 1522.85 813.548 1518.27 Q816.627 1513.66 822.437 1513.66 Z" fill="#000000" fill-rule="nonzero" fill-opacity="1" /><path clip-path="url(#clip740)" d="M1252.17 1514.29 L1270.52 1514.29 L1270.52 1518.22 L1256.45 1518.22 L1256.45 1526.7 Q1257.47 1526.35 1258.48 1526.19 Q1259.5 1526 1260.52 1526 Q1266.31 1526 1269.69 1529.17 Q1273.07 1532.34 1273.07 1537.76 Q1273.07 1543.34 1269.6 1546.44 Q1266.12 1549.52 1259.8 1549.52 Q1257.63 1549.52 1255.36 1549.15 Q1253.11 1548.78 1250.71 1548.04 L1250.71 1543.34 Q1252.79 1544.47 1255.01 1545.03 Q1257.23 1545.58 1259.71 1545.58 Q1263.72 1545.58 1266.05 1543.48 Q1268.39 1541.37 1268.39 1537.76 Q1268.39 1534.15 1266.05 1532.04 Q1263.72 1529.94 1259.71 1529.94 Q1257.84 1529.94 1255.96 1530.35 Q1254.11 1530.77 1252.17 1531.65 L1252.17 1514.29 Z" fill="#000000" fill-rule="nonzero" fill-opacity="1" /><path clip-path="url(#clip740)" d="M1292.28 1517.37 Q1288.67 1517.37 1286.84 1520.93 Q1285.04 1524.47 1285.04 1531.6 Q1285.04 1538.71 1286.84 1542.27 Q1288.67 1545.82 1292.28 1545.82 Q1295.92 1545.82 1297.72 1542.27 Q1299.55 1538.71 1299.55 1531.6 Q1299.55 1524.47 1297.72 1520.93 Q1295.92 1517.37 1292.28 1517.37 M1292.28 1513.66 Q1298.09 1513.66 1301.15 1518.27 Q1304.23 1522.85 1304.23 1531.6 Q1304.23 1540.33 1301.15 1544.94 Q1298.09 1549.52 1292.28 1549.52 Q1286.47 1549.52 1283.39 1544.94 Q1280.34 1540.33 1280.34 1531.6 Q1280.34 1522.85 1283.39 1518.27 Q1286.47 1513.66 1292.28 1513.66 Z" fill="#000000" fill-rule="nonzero" fill-opacity="1" /><path clip-path="url(#clip740)" d="M1322.44 1517.37 Q1318.83 1517.37 1317 1520.93 Q1315.2 1524.47 1315.2 1531.6 Q1315.2 1538.71 1317 1542.27 Q1318.83 1545.82 1322.44 1545.82 Q1326.08 1545.82 1327.88 1542.27 Q1329.71 1538.71 1329.71 1531.6 Q1329.71 1524.47 1327.88 1520.93 Q1326.08 1517.37 1322.44 1517.37 M1322.44 1513.66 Q1328.25 1513.66 1331.31 1518.27 Q1334.39 1522.85 1334.39 1531.6 Q1334.39 1540.33 1331.31 1544.94 Q1328.25 1549.52 1322.44 1549.52 Q1316.63 1549.52 1313.55 1544.94 Q1310.5 1540.33 1310.5 1531.6 Q1310.5 1522.85 1313.55 1518.27 Q1316.63 1513.66 1322.44 1513.66 Z" fill="#000000" fill-rule="nonzero" fill-opacity="1" /><path clip-path="url(#clip740)" d="M1750.92 1514.29 L1773.14 1514.29 L1773.14 1516.28 L1760.6 1548.85 L1755.71 1548.85 L1767.52 1518.22 L1750.92 1518.22 L1750.92 1514.29 Z" fill="#000000" fill-rule="nonzero" fill-opacity="1" /><path clip-path="url(#clip740)" d="M1782.31 1514.29 L1800.67 1514.29 L1800.67 1518.22 L1786.59 1518.22 L1786.59 1526.7 Q1787.61 1526.35 1788.63 1526.19 Q1789.65 1526 1790.67 1526 Q1796.45 1526 1799.83 1529.17 Q1803.21 1532.34 1803.21 1537.76 Q1803.21 1543.34 1799.74 1546.44 Q1796.27 1549.52 1789.95 1549.52 Q1787.77 1549.52 1785.5 1549.15 Q1783.26 1548.78 1780.85 1548.04 L1780.85 1543.34 Q1782.94 1544.47 1785.16 1545.03 Q1787.38 1545.58 1789.86 1545.58 Q1793.86 1545.58 1796.2 1543.48 Q1798.54 1541.37 1798.54 1537.76 Q1798.54 1534.15 1796.2 1532.04 Q1793.86 1529.94 1789.86 1529.94 Q1787.98 1529.94 1786.11 1530.35 Q1784.25 1530.77 1782.31 1531.65 L1782.31 1514.29 Z" fill="#000000" fill-rule="nonzero" fill-opacity="1" /><path clip-path="url(#clip740)" d="M1822.43 1517.37 Q1818.81 1517.37 1816.99 1520.93 Q1815.18 1524.47 1815.18 1531.6 Q1815.18 1538.71 1816.99 1542.27 Q1818.81 1545.82 1822.43 1545.82 Q1826.06 1545.82 1827.87 1542.27 Q1829.69 1538.71 1829.69 1531.6 Q1829.69 1524.47 1827.87 1520.93 Q1826.06 1517.37 1822.43 1517.37 M1822.43 1513.66 Q1828.24 1513.66 1831.29 1518.27 Q1834.37 1522.85 1834.37 1531.6 Q1834.37 1540.33 1831.29 1544.94 Q1828.24 1549.52 1822.43 1549.52 Q1816.62 1549.52 1813.54 1544.94 Q1810.48 1540.33 1810.48 1531.6 Q1810.48 1522.85 1813.54 1518.27 Q1816.62 1513.66 1822.43 1513.66 Z" fill="#000000" fill-rule="nonzero" fill-opacity="1" /><path clip-path="url(#clip740)" d="M2237.27 1544.91 L2244.91 1544.91 L2244.91 1518.55 L2236.6 1520.21 L2236.6 1515.95 L2244.86 1514.29 L2249.54 1514.29 L2249.54 1544.91 L2257.18 1544.91 L2257.18 1548.85 L2237.27 1548.85 L2237.27 1544.91 Z" fill="#000000" fill-rule="nonzero" fill-opacity="1" /><path clip-path="url(#clip740)" d="M2276.62 1517.37 Q2273.01 1517.37 2271.18 1520.93 Q2269.38 1524.47 2269.38 1531.6 Q2269.38 1538.71 2271.18 1542.27 Q2273.01 1545.82 2276.62 1545.82 Q2280.26 1545.82 2282.06 1542.27 Q2283.89 1538.71 2283.89 1531.6 Q2283.89 1524.47 2282.06 1520.93 Q2280.26 1517.37 2276.62 1517.37 M2276.62 1513.66 Q2282.43 1513.66 2285.49 1518.27 Q2288.57 1522.85 2288.57 1531.6 Q2288.57 1540.33 2285.49 1544.94 Q2282.43 1549.52 2276.62 1549.52 Q2270.81 1549.52 2267.73 1544.94 Q2264.68 1540.33 2264.68 1531.6 Q2264.68 1522.85 2267.73 1518.27 Q2270.81 1513.66 2276.62 1513.66 Z" fill="#000000" fill-rule="nonzero" fill-opacity="1" /><path clip-path="url(#clip740)" d="M2306.78 1517.37 Q2303.17 1517.37 2301.34 1520.93 Q2299.54 1524.47 2299.54 1531.6 Q2299.54 1538.71 2301.34 1542.27 Q2303.17 1545.82 2306.78 1545.82 Q2310.42 1545.82 2312.22 1542.27 Q2314.05 1538.71 2314.05 1531.6 Q2314.05 1524.47 2312.22 1520.93 Q2310.42 1517.37 2306.78 1517.37 M2306.78 1513.66 Q2312.59 1513.66 2315.65 1518.27 Q2318.73 1522.85 2318.73 1531.6 Q2318.73 1540.33 2315.65 1544.94 Q2312.59 1549.52 2306.78 1549.52 Q2300.97 1549.52 2297.89 1544.94 Q2294.84 1540.33 2294.84 1531.6 Q2294.84 1522.85 2297.89 1518.27 Q2300.97 1513.66 2306.78 1513.66 Z" fill="#000000" fill-rule="nonzero" fill-opacity="1" /><path clip-path="url(#clip740)" d="M2336.95 1517.37 Q2333.33 1517.37 2331.51 1520.93 Q2329.7 1524.47 2329.7 1531.6 Q2329.7 1538.71 2331.51 1542.27 Q2333.33 1545.82 2336.95 1545.82 Q2340.58 1545.82 2342.39 1542.27 Q2344.21 1538.71 2344.21 1531.6 Q2344.21 1524.47 2342.39 1520.93 Q2340.58 1517.37 2336.95 1517.37 M2336.95 1513.66 Q2342.76 1513.66 2345.81 1518.27 Q2348.89 1522.85 2348.89 1531.6 Q2348.89 1540.33 2345.81 1544.94 Q2342.76 1549.52 2336.95 1549.52 Q2331.14 1549.52 2328.06 1544.94 Q2325 1540.33 2325 1531.6 Q2325 1522.85 2328.06 1518.27 Q2331.14 1513.66 2336.95 1513.66 Z" fill="#000000" fill-rule="nonzero" fill-opacity="1" /><polyline clip-path="url(#clip742)" style="stroke:#000000; stroke-linecap:round; stroke-linejoin:round; stroke-width:2; stroke-opacity:0.1; fill:none" points="232.339,1468.8 2352.76,1468.8 "/>
<polyline clip-path="url(#clip742)" style="stroke:#000000; stroke-linecap:round; stroke-linejoin:round; stroke-width:2; stroke-opacity:0.1; fill:none" points="232.339,1197.38 2352.76,1197.38 "/>
<polyline clip-path="url(#clip742)" style="stroke:#000000; stroke-linecap:round; stroke-linejoin:round; stroke-width:2; stroke-opacity:0.1; fill:none" points="232.339,925.974 2352.76,925.974 "/>
<polyline clip-path="url(#clip742)" style="stroke:#000000; stroke-linecap:round; stroke-linejoin:round; stroke-width:2; stroke-opacity:0.1; fill:none" points="232.339,654.564 2352.76,654.564 "/>
<polyline clip-path="url(#clip742)" style="stroke:#000000; stroke-linecap:round; stroke-linejoin:round; stroke-width:2; stroke-opacity:0.1; fill:none" points="232.339,383.153 2352.76,383.153 "/>
<polyline clip-path="url(#clip742)" style="stroke:#000000; stroke-linecap:round; stroke-linejoin:round; stroke-width:2; stroke-opacity:0.1; fill:none" points="232.339,111.743 2352.76,111.743 "/>
<polyline clip-path="url(#clip740)" style="stroke:#000000; stroke-linecap:round; stroke-linejoin:round; stroke-width:4; stroke-opacity:1; fill:none" points="232.339,1486.45 232.339,47.2441 "/>
<polyline clip-path="url(#clip740)" style="stroke:#000000; stroke-linecap:round; stroke-linejoin:round; stroke-width:4; stroke-opacity:1; fill:none" points="232.339,1468.8 251.236,1468.8 "/>
<polyline clip-path="url(#clip740)" style="stroke:#000000; stroke-linecap:round; stroke-linejoin:round; stroke-width:4; stroke-opacity:1; fill:none" points="232.339,1197.38 251.236,1197.38 "/>
<polyline clip-path="url(#clip740)" style="stroke:#000000; stroke-linecap:round; stroke-linejoin:round; stroke-width:4; stroke-opacity:1; fill:none" points="232.339,925.974 251.236,925.974 "/>
<polyline clip-path="url(#clip740)" style="stroke:#000000; stroke-linecap:round; stroke-linejoin:round; stroke-width:4; stroke-opacity:1; fill:none" points="232.339,654.564 251.236,654.564 "/>
<polyline clip-path="url(#clip740)" style="stroke:#000000; stroke-linecap:round; stroke-linejoin:round; stroke-width:4; stroke-opacity:1; fill:none" points="232.339,383.153 251.236,383.153 "/>
<polyline clip-path="url(#clip740)" style="stroke:#000000; stroke-linecap:round; stroke-linejoin:round; stroke-width:4; stroke-opacity:1; fill:none" points="232.339,111.743 251.236,111.743 "/>
<path clip-path="url(#clip740)" d="M66.5939 1455.59 L54.7884 1474.04 L66.5939 1474.04 L66.5939 1455.59 M65.367 1451.52 L71.2466 1451.52 L71.2466 1474.04 L76.1772 1474.04 L76.1772 1477.93 L71.2466 1477.93 L71.2466 1486.08 L66.5939 1486.08 L66.5939 1477.93 L50.9921 1477.93 L50.9921 1473.41 L65.367 1451.52 Z" fill="#000000" fill-rule="nonzero" fill-opacity="1" /><path clip-path="url(#clip740)" d="M98.0752 1467.44 Q101.432 1468.16 103.307 1470.43 Q105.205 1472.7 105.205 1476.03 Q105.205 1481.14 101.686 1483.95 Q98.1678 1486.75 91.6864 1486.75 Q89.5104 1486.75 87.1956 1486.31 Q84.904 1485.89 82.4503 1485.03 L82.4503 1480.52 Q84.3947 1481.65 86.7095 1482.23 Q89.0243 1482.81 91.5475 1482.81 Q95.9456 1482.81 98.2372 1481.08 Q100.552 1479.34 100.552 1476.03 Q100.552 1472.97 98.3993 1471.26 Q96.2697 1469.52 92.4502 1469.52 L88.4225 1469.52 L88.4225 1465.68 L92.6354 1465.68 Q96.0845 1465.68 97.9132 1464.32 Q99.7419 1462.93 99.7419 1460.33 Q99.7419 1457.67 97.8437 1456.26 Q95.9687 1454.83 92.4502 1454.83 Q90.529 1454.83 88.3299 1455.24 Q86.1308 1455.66 83.492 1456.54 L83.492 1452.37 Q86.154 1451.63 88.4688 1451.26 Q90.8067 1450.89 92.8669 1450.89 Q98.1909 1450.89 101.293 1453.32 Q104.395 1455.73 104.395 1459.85 Q104.395 1462.72 102.751 1464.71 Q101.108 1466.68 98.0752 1467.44 Z" fill="#000000" fill-rule="nonzero" fill-opacity="1" /><path clip-path="url(#clip740)" d="M114.117 1451.52 L132.473 1451.52 L132.473 1455.45 L118.399 1455.45 L118.399 1463.92 Q119.418 1463.58 120.436 1463.41 Q121.455 1463.23 122.473 1463.23 Q128.26 1463.23 131.64 1466.4 Q135.019 1469.57 135.019 1474.99 Q135.019 1480.57 131.547 1483.67 Q128.075 1486.75 121.756 1486.75 Q119.58 1486.75 117.311 1486.38 Q115.066 1486.01 112.658 1485.27 L112.658 1480.57 Q114.742 1481.7 116.964 1482.26 Q119.186 1482.81 121.663 1482.81 Q125.668 1482.81 128.006 1480.71 Q130.344 1478.6 130.344 1474.99 Q130.344 1471.38 128.006 1469.27 Q125.668 1467.16 121.663 1467.16 Q119.788 1467.16 117.913 1467.58 Q116.061 1468 114.117 1468.88 L114.117 1451.52 Z" fill="#000000" fill-rule="nonzero" fill-opacity="1" /><path clip-path="url(#clip740)" d="M154.232 1454.59 Q150.621 1454.59 148.793 1458.16 Q146.987 1461.7 146.987 1468.83 Q146.987 1475.94 148.793 1479.5 Q150.621 1483.04 154.232 1483.04 Q157.867 1483.04 159.672 1479.5 Q161.501 1475.94 161.501 1468.83 Q161.501 1461.7 159.672 1458.16 Q157.867 1454.59 154.232 1454.59 M154.232 1450.89 Q160.042 1450.89 163.098 1455.5 Q166.177 1460.08 166.177 1468.83 Q166.177 1477.56 163.098 1482.16 Q160.042 1486.75 154.232 1486.75 Q148.422 1486.75 145.343 1482.16 Q142.288 1477.56 142.288 1468.83 Q142.288 1460.08 145.343 1455.5 Q148.422 1450.89 154.232 1450.89 Z" fill="#000000" fill-rule="nonzero" fill-opacity="1" /><path clip-path="url(#clip740)" d="M184.394 1454.59 Q180.783 1454.59 178.954 1458.16 Q177.149 1461.7 177.149 1468.83 Q177.149 1475.94 178.954 1479.5 Q180.783 1483.04 184.394 1483.04 Q188.028 1483.04 189.834 1479.5 Q191.663 1475.94 191.663 1468.83 Q191.663 1461.7 189.834 1458.16 Q188.028 1454.59 184.394 1454.59 M184.394 1450.89 Q190.204 1450.89 193.26 1455.5 Q196.339 1460.08 196.339 1468.83 Q196.339 1477.56 193.26 1482.16 Q190.204 1486.75 184.394 1486.75 Q178.584 1486.75 175.505 1482.16 Q172.45 1477.56 172.45 1468.83 Q172.45 1460.08 175.505 1455.5 Q178.584 1450.89 184.394 1450.89 Z" fill="#000000" fill-rule="nonzero" fill-opacity="1" /><path clip-path="url(#clip740)" d="M66.5939 1184.18 L54.7884 1202.63 L66.5939 1202.63 L66.5939 1184.18 M65.367 1180.1 L71.2466 1180.1 L71.2466 1202.63 L76.1772 1202.63 L76.1772 1206.52 L71.2466 1206.52 L71.2466 1214.66 L66.5939 1214.66 L66.5939 1206.52 L50.9921 1206.52 L50.9921 1202 L65.367 1180.1 Z" fill="#000000" fill-rule="nonzero" fill-opacity="1" /><path clip-path="url(#clip740)" d="M96.7558 1184.18 L84.9503 1202.63 L96.7558 1202.63 L96.7558 1184.18 M95.5289 1180.1 L101.409 1180.1 L101.409 1202.63 L106.339 1202.63 L106.339 1206.52 L101.409 1206.52 L101.409 1214.66 L96.7558 1214.66 L96.7558 1206.52 L81.154 1206.52 L81.154 1202 L95.5289 1180.1 Z" fill="#000000" fill-rule="nonzero" fill-opacity="1" /><path clip-path="url(#clip740)" d="M124.07 1183.18 Q120.459 1183.18 118.631 1186.75 Q116.825 1190.29 116.825 1197.42 Q116.825 1204.53 118.631 1208.09 Q120.459 1211.63 124.07 1211.63 Q127.705 1211.63 129.51 1208.09 Q131.339 1204.53 131.339 1197.42 Q131.339 1190.29 129.51 1186.75 Q127.705 1183.18 124.07 1183.18 M124.07 1179.48 Q129.881 1179.48 132.936 1184.09 Q136.015 1188.67 136.015 1197.42 Q136.015 1206.15 132.936 1210.75 Q129.881 1215.34 124.07 1215.34 Q118.26 1215.34 115.182 1210.75 Q112.126 1206.15 112.126 1197.42 Q112.126 1188.67 115.182 1184.09 Q118.26 1179.48 124.07 1179.48 Z" fill="#000000" fill-rule="nonzero" fill-opacity="1" /><path clip-path="url(#clip740)" d="M154.232 1183.18 Q150.621 1183.18 148.793 1186.75 Q146.987 1190.29 146.987 1197.42 Q146.987 1204.53 148.793 1208.09 Q150.621 1211.63 154.232 1211.63 Q157.867 1211.63 159.672 1208.09 Q161.501 1204.53 161.501 1197.42 Q161.501 1190.29 159.672 1186.75 Q157.867 1183.18 154.232 1183.18 M154.232 1179.48 Q160.042 1179.48 163.098 1184.09 Q166.177 1188.67 166.177 1197.42 Q166.177 1206.15 163.098 1210.75 Q160.042 1215.34 154.232 1215.34 Q148.422 1215.34 145.343 1210.75 Q142.288 1206.15 142.288 1197.42 Q142.288 1188.67 145.343 1184.09 Q148.422 1179.48 154.232 1179.48 Z" fill="#000000" fill-rule="nonzero" fill-opacity="1" /><path clip-path="url(#clip740)" d="M184.394 1183.18 Q180.783 1183.18 178.954 1186.75 Q177.149 1190.29 177.149 1197.42 Q177.149 1204.53 178.954 1208.09 Q180.783 1211.63 184.394 1211.63 Q188.028 1211.63 189.834 1208.09 Q191.663 1204.53 191.663 1197.42 Q191.663 1190.29 189.834 1186.75 Q188.028 1183.18 184.394 1183.18 M184.394 1179.48 Q190.204 1179.48 193.26 1184.09 Q196.339 1188.67 196.339 1197.42 Q196.339 1206.15 193.26 1210.75 Q190.204 1215.34 184.394 1215.34 Q178.584 1215.34 175.505 1210.75 Q172.45 1206.15 172.45 1197.42 Q172.45 1188.67 175.505 1184.09 Q178.584 1179.48 184.394 1179.48 Z" fill="#000000" fill-rule="nonzero" fill-opacity="1" /><path clip-path="url(#clip740)" d="M66.5939 912.768 L54.7884 931.217 L66.5939 931.217 L66.5939 912.768 M65.367 908.694 L71.2466 908.694 L71.2466 931.217 L76.1772 931.217 L76.1772 935.106 L71.2466 935.106 L71.2466 943.254 L66.5939 943.254 L66.5939 935.106 L50.9921 935.106 L50.9921 930.592 L65.367 908.694 Z" fill="#000000" fill-rule="nonzero" fill-opacity="1" /><path clip-path="url(#clip740)" d="M96.7558 912.768 L84.9503 931.217 L96.7558 931.217 L96.7558 912.768 M95.5289 908.694 L101.409 908.694 L101.409 931.217 L106.339 931.217 L106.339 935.106 L101.409 935.106 L101.409 943.254 L96.7558 943.254 L96.7558 935.106 L81.154 935.106 L81.154 930.592 L95.5289 908.694 Z" fill="#000000" fill-rule="nonzero" fill-opacity="1" /><path clip-path="url(#clip740)" d="M114.117 908.694 L132.473 908.694 L132.473 912.629 L118.399 912.629 L118.399 921.102 Q119.418 920.754 120.436 920.592 Q121.455 920.407 122.473 920.407 Q128.26 920.407 131.64 923.578 Q135.019 926.75 135.019 932.166 Q135.019 937.745 131.547 940.847 Q128.075 943.926 121.756 943.926 Q119.58 943.926 117.311 943.555 Q115.066 943.185 112.658 942.444 L112.658 937.745 Q114.742 938.879 116.964 939.435 Q119.186 939.99 121.663 939.99 Q125.668 939.99 128.006 937.884 Q130.344 935.777 130.344 932.166 Q130.344 928.555 128.006 926.449 Q125.668 924.342 121.663 924.342 Q119.788 924.342 117.913 924.759 Q116.061 925.176 114.117 926.055 L114.117 908.694 Z" fill="#000000" fill-rule="nonzero" fill-opacity="1" /><path clip-path="url(#clip740)" d="M154.232 911.773 Q150.621 911.773 148.793 915.338 Q146.987 918.879 146.987 926.009 Q146.987 933.115 148.793 936.68 Q150.621 940.222 154.232 940.222 Q157.867 940.222 159.672 936.68 Q161.501 933.115 161.501 926.009 Q161.501 918.879 159.672 915.338 Q157.867 911.773 154.232 911.773 M154.232 908.069 Q160.042 908.069 163.098 912.676 Q166.177 917.259 166.177 926.009 Q166.177 934.736 163.098 939.342 Q160.042 943.926 154.232 943.926 Q148.422 943.926 145.343 939.342 Q142.288 934.736 142.288 926.009 Q142.288 917.259 145.343 912.676 Q148.422 908.069 154.232 908.069 Z" fill="#000000" fill-rule="nonzero" fill-opacity="1" /><path clip-path="url(#clip740)" d="M184.394 911.773 Q180.783 911.773 178.954 915.338 Q177.149 918.879 177.149 926.009 Q177.149 933.115 178.954 936.68 Q180.783 940.222 184.394 940.222 Q188.028 940.222 189.834 936.68 Q191.663 933.115 191.663 926.009 Q191.663 918.879 189.834 915.338 Q188.028 911.773 184.394 911.773 M184.394 908.069 Q190.204 908.069 193.26 912.676 Q196.339 917.259 196.339 926.009 Q196.339 934.736 193.26 939.342 Q190.204 943.926 184.394 943.926 Q178.584 943.926 175.505 939.342 Q172.45 934.736 172.45 926.009 Q172.45 917.259 175.505 912.676 Q178.584 908.069 184.394 908.069 Z" fill="#000000" fill-rule="nonzero" fill-opacity="1" /><path clip-path="url(#clip740)" d="M66.5939 641.358 L54.7884 659.807 L66.5939 659.807 L66.5939 641.358 M65.367 637.284 L71.2466 637.284 L71.2466 659.807 L76.1772 659.807 L76.1772 663.696 L71.2466 663.696 L71.2466 671.844 L66.5939 671.844 L66.5939 663.696 L50.9921 663.696 L50.9921 659.182 L65.367 637.284 Z" fill="#000000" fill-rule="nonzero" fill-opacity="1" /><path clip-path="url(#clip740)" d="M83.9549 637.284 L102.311 637.284 L102.311 641.219 L88.2373 641.219 L88.2373 649.691 Q89.2558 649.344 90.2743 649.182 Q91.2928 648.997 92.3113 648.997 Q98.0984 648.997 101.478 652.168 Q104.858 655.339 104.858 660.756 Q104.858 666.335 101.385 669.436 Q97.9132 672.515 91.5938 672.515 Q89.4178 672.515 87.1493 672.145 Q84.904 671.774 82.4966 671.034 L82.4966 666.335 Q84.5799 667.469 86.8021 668.024 Q89.0243 668.58 91.5012 668.58 Q95.5058 668.58 97.8437 666.473 Q100.182 664.367 100.182 660.756 Q100.182 657.145 97.8437 655.038 Q95.5058 652.932 91.5012 652.932 Q89.6262 652.932 87.7512 653.349 Q85.8993 653.765 83.9549 654.645 L83.9549 637.284 Z" fill="#000000" fill-rule="nonzero" fill-opacity="1" /><path clip-path="url(#clip740)" d="M124.07 640.362 Q120.459 640.362 118.631 643.927 Q116.825 647.469 116.825 654.598 Q116.825 661.705 118.631 665.27 Q120.459 668.811 124.07 668.811 Q127.705 668.811 129.51 665.27 Q131.339 661.705 131.339 654.598 Q131.339 647.469 129.51 643.927 Q127.705 640.362 124.07 640.362 M124.07 636.659 Q129.881 636.659 132.936 641.265 Q136.015 645.849 136.015 654.598 Q136.015 663.325 132.936 667.932 Q129.881 672.515 124.07 672.515 Q118.26 672.515 115.182 667.932 Q112.126 663.325 112.126 654.598 Q112.126 645.849 115.182 641.265 Q118.26 636.659 124.07 636.659 Z" fill="#000000" fill-rule="nonzero" fill-opacity="1" /><path clip-path="url(#clip740)" d="M154.232 640.362 Q150.621 640.362 148.793 643.927 Q146.987 647.469 146.987 654.598 Q146.987 661.705 148.793 665.27 Q150.621 668.811 154.232 668.811 Q157.867 668.811 159.672 665.27 Q161.501 661.705 161.501 654.598 Q161.501 647.469 159.672 643.927 Q157.867 640.362 154.232 640.362 M154.232 636.659 Q160.042 636.659 163.098 641.265 Q166.177 645.849 166.177 654.598 Q166.177 663.325 163.098 667.932 Q160.042 672.515 154.232 672.515 Q148.422 672.515 145.343 667.932 Q142.288 663.325 142.288 654.598 Q142.288 645.849 145.343 641.265 Q148.422 636.659 154.232 636.659 Z" fill="#000000" fill-rule="nonzero" fill-opacity="1" /><path clip-path="url(#clip740)" d="M184.394 640.362 Q180.783 640.362 178.954 643.927 Q177.149 647.469 177.149 654.598 Q177.149 661.705 178.954 665.27 Q180.783 668.811 184.394 668.811 Q188.028 668.811 189.834 665.27 Q191.663 661.705 191.663 654.598 Q191.663 647.469 189.834 643.927 Q188.028 640.362 184.394 640.362 M184.394 636.659 Q190.204 636.659 193.26 641.265 Q196.339 645.849 196.339 654.598 Q196.339 663.325 193.26 667.932 Q190.204 672.515 184.394 672.515 Q178.584 672.515 175.505 667.932 Q172.45 663.325 172.45 654.598 Q172.45 645.849 175.505 641.265 Q178.584 636.659 184.394 636.659 Z" fill="#000000" fill-rule="nonzero" fill-opacity="1" /><path clip-path="url(#clip740)" d="M66.5939 369.947 L54.7884 388.396 L66.5939 388.396 L66.5939 369.947 M65.367 365.873 L71.2466 365.873 L71.2466 388.396 L76.1772 388.396 L76.1772 392.285 L71.2466 392.285 L71.2466 400.433 L66.5939 400.433 L66.5939 392.285 L50.9921 392.285 L50.9921 387.771 L65.367 365.873 Z" fill="#000000" fill-rule="nonzero" fill-opacity="1" /><path clip-path="url(#clip740)" d="M83.9549 365.873 L102.311 365.873 L102.311 369.808 L88.2373 369.808 L88.2373 378.281 Q89.2558 377.933 90.2743 377.771 Q91.2928 377.586 92.3113 377.586 Q98.0984 377.586 101.478 380.757 Q104.858 383.929 104.858 389.345 Q104.858 394.924 101.385 398.026 Q97.9132 401.105 91.5938 401.105 Q89.4178 401.105 87.1493 400.734 Q84.904 400.364 82.4966 399.623 L82.4966 394.924 Q84.5799 396.058 86.8021 396.614 Q89.0243 397.169 91.5012 397.169 Q95.5058 397.169 97.8437 395.063 Q100.182 392.956 100.182 389.345 Q100.182 385.734 97.8437 383.628 Q95.5058 381.521 91.5012 381.521 Q89.6262 381.521 87.7512 381.938 Q85.8993 382.355 83.9549 383.234 L83.9549 365.873 Z" fill="#000000" fill-rule="nonzero" fill-opacity="1" /><path clip-path="url(#clip740)" d="M114.117 365.873 L132.473 365.873 L132.473 369.808 L118.399 369.808 L118.399 378.281 Q119.418 377.933 120.436 377.771 Q121.455 377.586 122.473 377.586 Q128.26 377.586 131.64 380.757 Q135.019 383.929 135.019 389.345 Q135.019 394.924 131.547 398.026 Q128.075 401.105 121.756 401.105 Q119.58 401.105 117.311 400.734 Q115.066 400.364 112.658 399.623 L112.658 394.924 Q114.742 396.058 116.964 396.614 Q119.186 397.169 121.663 397.169 Q125.668 397.169 128.006 395.063 Q130.344 392.956 130.344 389.345 Q130.344 385.734 128.006 383.628 Q125.668 381.521 121.663 381.521 Q119.788 381.521 117.913 381.938 Q116.061 382.355 114.117 383.234 L114.117 365.873 Z" fill="#000000" fill-rule="nonzero" fill-opacity="1" /><path clip-path="url(#clip740)" d="M154.232 368.952 Q150.621 368.952 148.793 372.517 Q146.987 376.058 146.987 383.188 Q146.987 390.294 148.793 393.859 Q150.621 397.401 154.232 397.401 Q157.867 397.401 159.672 393.859 Q161.501 390.294 161.501 383.188 Q161.501 376.058 159.672 372.517 Q157.867 368.952 154.232 368.952 M154.232 365.248 Q160.042 365.248 163.098 369.855 Q166.177 374.438 166.177 383.188 Q166.177 391.915 163.098 396.521 Q160.042 401.105 154.232 401.105 Q148.422 401.105 145.343 396.521 Q142.288 391.915 142.288 383.188 Q142.288 374.438 145.343 369.855 Q148.422 365.248 154.232 365.248 Z" fill="#000000" fill-rule="nonzero" fill-opacity="1" /><path clip-path="url(#clip740)" d="M184.394 368.952 Q180.783 368.952 178.954 372.517 Q177.149 376.058 177.149 383.188 Q177.149 390.294 178.954 393.859 Q180.783 397.401 184.394 397.401 Q188.028 397.401 189.834 393.859 Q191.663 390.294 191.663 383.188 Q191.663 376.058 189.834 372.517 Q188.028 368.952 184.394 368.952 M184.394 365.248 Q190.204 365.248 193.26 369.855 Q196.339 374.438 196.339 383.188 Q196.339 391.915 193.26 396.521 Q190.204 401.105 184.394 401.105 Q178.584 401.105 175.505 396.521 Q172.45 391.915 172.45 383.188 Q172.45 374.438 175.505 369.855 Q178.584 365.248 184.394 365.248 Z" fill="#000000" fill-rule="nonzero" fill-opacity="1" /><path clip-path="url(#clip740)" d="M66.5939 98.5368 L54.7884 116.986 L66.5939 116.986 L66.5939 98.5368 M65.367 94.4627 L71.2466 94.4627 L71.2466 116.986 L76.1772 116.986 L76.1772 120.875 L71.2466 120.875 L71.2466 129.023 L66.5939 129.023 L66.5939 120.875 L50.9921 120.875 L50.9921 116.361 L65.367 94.4627 Z" fill="#000000" fill-rule="nonzero" fill-opacity="1" /><path clip-path="url(#clip740)" d="M94.4873 109.879 Q91.3391 109.879 89.4873 112.032 Q87.6586 114.185 87.6586 117.935 Q87.6586 121.662 89.4873 123.838 Q91.3391 125.99 94.4873 125.99 Q97.6354 125.99 99.4641 123.838 Q101.316 121.662 101.316 117.935 Q101.316 114.185 99.4641 112.032 Q97.6354 109.879 94.4873 109.879 M103.77 95.2266 L103.77 99.4858 Q102.01 98.6525 100.205 98.2127 Q98.4224 97.7729 96.6632 97.7729 Q92.0336 97.7729 89.5799 100.898 Q87.1493 104.023 86.8021 110.342 Q88.1679 108.328 90.228 107.264 Q92.2882 106.176 94.765 106.176 Q99.9733 106.176 102.983 109.347 Q106.015 112.495 106.015 117.935 Q106.015 123.259 102.867 126.476 Q99.7187 129.694 94.4873 129.694 Q88.4919 129.694 85.3206 125.111 Q82.1494 120.504 82.1494 111.777 Q82.1494 103.583 86.0382 98.722 Q89.9271 93.8377 96.478 93.8377 Q98.2372 93.8377 100.02 94.1849 Q101.825 94.5322 103.77 95.2266 Z" fill="#000000" fill-rule="nonzero" fill-opacity="1" /><path clip-path="url(#clip740)" d="M124.07 97.5414 Q120.459 97.5414 118.631 101.106 Q116.825 104.648 116.825 111.777 Q116.825 118.884 118.631 122.449 Q120.459 125.99 124.07 125.99 Q127.705 125.99 129.51 122.449 Q131.339 118.884 131.339 111.777 Q131.339 104.648 129.51 101.106 Q127.705 97.5414 124.07 97.5414 M124.07 93.8377 Q129.881 93.8377 132.936 98.4442 Q136.015 103.027 136.015 111.777 Q136.015 120.504 132.936 125.111 Q129.881 129.694 124.07 129.694 Q118.26 129.694 115.182 125.111 Q112.126 120.504 112.126 111.777 Q112.126 103.027 115.182 98.4442 Q118.26 93.8377 124.07 93.8377 Z" fill="#000000" fill-rule="nonzero" fill-opacity="1" /><path clip-path="url(#clip740)" d="M154.232 97.5414 Q150.621 97.5414 148.793 101.106 Q146.987 104.648 146.987 111.777 Q146.987 118.884 148.793 122.449 Q150.621 125.99 154.232 125.99 Q157.867 125.99 159.672 122.449 Q161.501 118.884 161.501 111.777 Q161.501 104.648 159.672 101.106 Q157.867 97.5414 154.232 97.5414 M154.232 93.8377 Q160.042 93.8377 163.098 98.4442 Q166.177 103.027 166.177 111.777 Q166.177 120.504 163.098 125.111 Q160.042 129.694 154.232 129.694 Q148.422 129.694 145.343 125.111 Q142.288 120.504 142.288 111.777 Q142.288 103.027 145.343 98.4442 Q148.422 93.8377 154.232 93.8377 Z" fill="#000000" fill-rule="nonzero" fill-opacity="1" /><path clip-path="url(#clip740)" d="M184.394 97.5414 Q180.783 97.5414 178.954 101.106 Q177.149 104.648 177.149 111.777 Q177.149 118.884 178.954 122.449 Q180.783 125.99 184.394 125.99 Q188.028 125.99 189.834 122.449 Q191.663 118.884 191.663 111.777 Q191.663 104.648 189.834 101.106 Q188.028 97.5414 184.394 97.5414 M184.394 93.8377 Q190.204 93.8377 193.26 98.4442 Q196.339 103.027 196.339 111.777 Q196.339 120.504 193.26 125.111 Q190.204 129.694 184.394 129.694 Q178.584 129.694 175.505 125.111 Q172.45 120.504 172.45 111.777 Q172.45 103.027 175.505 98.4442 Q178.584 93.8377 184.394 93.8377 Z" fill="#000000" fill-rule="nonzero" fill-opacity="1" /><polyline clip-path="url(#clip742)" style="stroke:#009af9; stroke-linecap:round; stroke-linejoin:round; stroke-width:4; stroke-opacity:1; fill:none" points="292.35,568.151 294.351,568.153 296.351,568.156 298.352,568.158 300.352,568.16 302.352,568.162 304.353,568.163 306.353,568.165 308.354,568.167 310.354,568.168 312.354,568.17 314.355,568.171 316.355,568.173 318.355,568.174 320.356,568.175 322.356,568.176 324.357,568.177 326.357,568.178 328.357,568.179 330.358,568.18 332.358,984.449 334.359,984.506 336.359,984.559 338.359,984.61 340.36,984.658 342.36,984.704 344.361,984.748 346.361,984.79 348.361,984.829 350.362,984.867 352.362,984.903 354.363,984.936 356.363,984.969 358.363,984.999 360.364,985.029 362.364,985.056 364.365,985.083 366.365,985.108 368.365,985.132 370.366,985.154 372.366,847.203 374.367,847.204 376.367,847.205 378.367,847.205 380.368,847.206 382.368,847.207 384.368,847.208 386.369,847.208 388.369,847.209 390.37,847.21 392.37,847.21 394.37,847.211 396.371,847.212 398.371,847.212 400.372,847.213 402.372,847.213 404.372,847.214 406.373,847.214 408.373,847.214 410.374,847.215 412.374,279.559 414.374,279.625 416.375,279.687 418.375,279.747 420.376,279.804 422.376,279.858 424.376,279.909 426.377,279.957 428.377,280.004 430.378,280.048 432.378,280.09 434.378,280.129 436.379,280.167 438.379,280.203 440.38,280.237 442.38,280.27 444.38,280.301 446.381,280.33 448.381,280.358 450.381,280.384 452.382,843.241 454.382,843.278 456.383,843.313 458.383,843.346 460.383,843.378 462.384,843.408 464.384,843.437 466.385,843.464 468.385,843.49 470.385,843.515 472.386,843.539 474.386,843.561 476.387,843.583 478.387,843.603 480.387,843.622 482.388,843.641 484.388,843.658 486.389,843.675 488.389,843.691 490.389,843.706 492.39,698.432 494.39,698.45 496.391,698.466 498.391,698.482 500.391,698.497 502.392,698.512 504.392,698.525 506.393,698.538 508.393,698.551 510.393,698.562 512.394,698.574 514.394,698.584 516.394,698.594 518.395,698.604 520.395,698.613 522.396,698.622 524.396,698.63 526.396,698.638 528.397,698.646 530.397,698.653 532.398,910.711 534.398,910.764 536.398,910.815 538.399,910.862 540.399,910.908 542.4,910.951 544.4,910.993 546.4,911.032 548.401,911.069 550.401,911.105 552.402,911.139 554.402,911.171 556.402,911.202 558.403,911.231 560.403,911.259 562.404,911.285 564.404,911.31 566.404,911.334 568.405,911.357 570.405,911.378 572.406,1171.29 574.406,1171.36 576.406,1171.43 578.407,1171.49 580.407,1171.55 582.407,1171.61 584.408,1171.66 586.408,1171.72 588.409,1171.77 590.409,1171.81 592.409,1171.86 594.41,1171.9 596.41,1171.94 598.411,1171.98 600.411,1172.01 602.411,1172.05 604.412,1172.08 606.412,1172.11 608.413,1172.14 610.413,1172.17 612.413,936.164 614.414,936.202 616.414,936.238 618.415,936.273 620.415,936.306 622.415,936.337 624.416,936.367 626.416,936.396 628.417,936.423 630.417,936.449 632.417,936.473 634.418,936.497 636.418,936.519 638.418,936.54 640.419,936.56 642.419,936.58 644.42,936.598 646.42,936.616 648.42,936.632 650.421,936.648 652.421,1177.84 654.422,1177.88 656.422,1177.91 658.422,1177.95 660.423,1177.98 662.423,1178.01 664.424,1178.04 666.424,1178.07 668.424,1178.1 670.425,1178.12 672.425,1178.15 674.426,1178.17 676.426,1178.19 678.426,1178.22 680.427,1178.24 682.427,1178.26 684.428,1178.27 686.428,1178.29 688.428,1178.31 690.429,1178.32 692.429,1088.97 694.43,1088.99 696.43,1089.01 698.43,1089.03 700.431,1089.04 702.431,1089.06 704.431,1089.07 706.432,1089.08 708.432,1089.1 710.433,1089.11 712.433,1089.12 714.433,1089.13 716.434,1089.14 718.434,1089.15 720.435,1089.16 722.435,1089.17 724.435,1089.18 726.436,1089.19 728.436,1089.2 730.437,1089.2 732.437,1209.81 734.437,1209.83 736.438,1209.84 738.438,1209.86 740.439,1209.87 742.439,1209.89 744.439,1209.9 746.44,1209.91 748.44,1209.93 750.441,1209.94 752.441,1209.95 754.441,1209.96 756.442,1209.97 758.442,1209.98 760.443,1209.99 762.443,1210 764.443,1210.01 766.444,1210.01 768.444,1210.02 770.444,1210.03 772.445,1146.47 774.445,1146.47 776.446,1146.47 778.446,1146.47 780.446,1146.47 782.447,1146.48 784.447,1146.48 786.448,1146.48 788.448,1146.48 790.448,1146.48 792.449,1146.49 794.449,1146.49 796.45,1146.49 798.45,1146.49 800.45,1146.49 802.451,1146.49 804.451,1146.49 806.452,1146.49 808.452,1146.5 810.452,1146.5 812.453,1055.86 814.453,1055.89 816.454,1055.91 818.454,1055.94 820.454,1055.96 822.455,1055.98 824.455,1056 826.456,1056.02 828.456,1056.04 830.456,1056.06 832.457,1056.08 834.457,1056.1 836.457,1056.11 838.458,1056.13 840.458,1056.14 842.459,1056.16 844.459,1056.17 846.459,1056.18 848.46,1056.19 850.46,1056.21 852.461,1271.56 854.461,1271.58 856.461,1271.59 858.462,1271.6 860.462,1271.6 862.463,1271.61 864.463,1271.62 866.463,1271.63 868.464,1271.64 870.464,1271.64 872.465,1271.65 874.465,1271.66 876.465,1271.66 878.466,1271.67 880.466,1271.67 882.467,1271.68 884.467,1271.68 886.467,1271.69 888.468,1271.69 890.468,1271.7 892.468,970.846 894.469,970.882 896.469,970.916 898.47,970.949 900.47,970.98 902.47,971.01 904.471,971.038 906.471,971.064 908.472,971.09 910.472,971.114 912.472,971.137 914.473,971.159 916.473,971.18 918.474,971.2 920.474,971.218 922.474,971.236 924.475,971.253 926.475,971.27 928.476,971.285 930.476,971.3 932.476,1046.8 934.477,1046.81 936.477,1046.82 938.478,1046.83 940.478,1046.83 942.478,1046.84 944.479,1046.85 946.479,1046.85 948.48,1046.86 950.48,1046.87 952.48,1046.87 954.481,1046.88 956.481,1046.88 958.481,1046.89 960.482,1046.89 962.482,1046.9 964.483,1046.9 966.483,1046.9 968.483,1046.91 970.484,1046.91 972.484,1117.34 974.485,1117.34 976.485,1117.34 978.485,1117.34 980.486,1117.35 982.486,1117.35 984.487,1117.35 986.487,1117.35 988.487,1117.35 990.488,1117.35 992.488,1117.35 994.489,1117.35 996.489,1117.35 998.489,1117.36 1000.49,1117.36 1002.49,1117.36 1004.49,1117.36 1006.49,1117.36 1008.49,1117.36 1010.49,1117.36 1012.49,1445.19 1014.49,1445.23 1016.49,1445.27 1018.49,1445.31 1020.49,1445.35 1022.49,1445.38 1024.49,1445.41 1026.49,1445.44 1028.5,1445.47 1030.5,1445.5 1032.5,1445.53 1034.5,1445.55 1036.5,1445.58 1038.5,1445.6 1040.5,1445.62 1042.5,1445.64 1044.5,1445.66 1046.5,1445.68 1048.5,1445.7 1050.5,1445.72 1052.5,1010.27 1054.5,1010.29 1056.5,1010.31 1058.5,1010.33 1060.5,1010.35 1062.5,1010.37 1064.5,1010.38 1066.5,1010.4 1068.5,1010.41 1070.5,1010.43 1072.5,1010.44 1074.5,1010.45 1076.5,1010.46 1078.51,1010.47 1080.51,1010.49 1082.51,1010.5 1084.51,1010.51 1086.51,1010.51 1088.51,1010.52 1090.51,1010.53 1092.51,980.058 1094.51,980.069 1096.51,980.079 1098.51,980.089 1100.51,980.098 1102.51,980.107 1104.51,980.115 1106.51,980.124 1108.51,980.131 1110.51,980.138 1112.51,980.145 1114.51,980.152 1116.51,980.158 1118.51,980.164 1120.51,980.17 1122.51,980.175 1124.51,980.18 1126.51,980.185 1128.51,980.19 1130.52,980.194 1132.52,1036.21 1134.52,1036.22 1136.52,1036.24 1138.52,1036.25 1140.52,1036.26 1142.52,1036.27 1144.52,1036.28 1146.52,1036.29 1148.52,1036.3 1150.52,1036.31 1152.52,1036.32 1154.52,1036.33 1156.52,1036.34 1158.52,1036.35 1160.52,1036.35 1162.52,1036.36 1164.52,1036.37 1166.52,1036.37 1168.52,1036.38 1170.52,1036.38 1172.52,841.219 1174.52,841.265 1176.52,841.308 1178.52,841.349 1180.53,841.388 1182.53,841.426 1184.53,841.462 1186.53,841.495 1188.53,841.528 1190.53,841.559 1192.53,841.588 1194.53,841.616 1196.53,841.643 1198.53,841.668 1200.53,841.692 1202.53,841.715 1204.53,841.737 1206.53,841.758 1208.53,841.778 1210.53,841.797 1212.53,984.689 1214.53,984.69 1216.53,984.692 1218.53,984.693 1220.53,984.694 1222.53,984.695 1224.53,984.696 1226.53,984.697 1228.53,984.698 1230.54,984.699 1232.54,984.7 1234.54,984.701 1236.54,984.701 1238.54,984.702 1240.54,984.703 1242.54,984.703 1244.54,984.704 1246.54,984.705 1248.54,984.705 1250.54,984.706 1252.54,1121.63 1254.54,1121.65 1256.54,1121.67 1258.54,1121.68 1260.54,1121.7 1262.54,1121.71 1264.54,1121.73 1266.54,1121.74 1268.54,1121.76 1270.54,1121.77 1272.54,1121.78 1274.54,1121.79 1276.54,1121.8 1278.54,1121.81 1280.54,1121.82 1282.55,1121.83 1284.55,1121.84 1286.55,1121.85 1288.55,1121.86 1290.55,1121.86 1292.55,1019.88 1294.55,1019.89 1296.55,1019.9 1298.55,1019.92 1300.55,1019.93 1302.55,1019.94 1304.55,1019.95 1306.55,1019.96 1308.55,1019.97 1310.55,1019.97 1312.55,1019.98 1314.55,1019.99 1316.55,1020 1318.55,1020 1320.55,1020.01 1322.55,1020.02 1324.55,1020.02 1326.55,1020.03 1328.55,1020.04 1330.55,1020.04 1332.56,958.03 1334.56,958.047 1336.56,958.064 1338.56,958.08 1340.56,958.095 1342.56,958.109 1344.56,958.123 1346.56,958.136 1348.56,958.149 1350.56,958.161 1352.56,958.172 1354.56,958.183 1356.56,958.193 1358.56,958.203 1360.56,958.212 1362.56,958.221 1364.56,958.229 1366.56,958.237 1368.56,958.245 1370.56,958.252 1372.56,680.048 1374.56,680.076 1376.56,680.102 1378.56,680.127 1380.56,680.151 1382.56,680.174 1384.57,680.196 1386.57,680.216 1388.57,680.236 1390.57,680.255 1392.57,680.272 1394.57,680.289 1396.57,680.305 1398.57,680.321 1400.57,680.335 1402.57,680.349 1404.57,680.362 1406.57,680.374 1408.57,680.386 1410.57,680.397 1412.57,1058.47 1414.57,1058.48 1416.57,1058.49 1418.57,1058.5 1420.57,1058.51 1422.57,1058.51 1424.57,1058.52 1426.57,1058.53 1428.57,1058.54 1430.57,1058.54 1432.57,1058.55 1434.58,1058.56 1436.58,1058.56 1438.58,1058.57 1440.58,1058.57 1442.58,1058.58 1444.58,1058.58 1446.58,1058.59 1448.58,1058.59 1450.58,1058.59 1452.58,730.369 1454.58,730.469 1456.58,730.565 1458.58,730.656 1460.58,730.743 1462.58,730.825 1464.58,730.904 1466.58,730.979 1468.58,731.05 1470.58,731.119 1472.58,731.183 1474.58,731.245 1476.58,731.304 1478.58,731.36 1480.58,731.414 1482.58,731.464 1484.59,731.513 1486.59,731.559 1488.59,731.603 1490.59,731.645 1492.59,618.506 1494.59,618.536 1496.59,618.564 1498.59,618.591 1500.59,618.616 1502.59,618.641 1504.59,618.664 1506.59,618.685 1508.59,618.706 1510.59,618.726 1512.59,618.745 1514.59,618.763 1516.59,618.78 1518.59,618.796 1520.59,618.811 1522.59,618.826 1524.59,618.84 1526.59,618.853 1528.59,618.866 1530.59,618.878 1532.59,898.603 1534.59,898.667 1536.6,898.729 1538.6,898.788 1540.6,898.844 1542.6,898.897 1544.6,898.948 1546.6,898.996 1548.6,899.042 1550.6,899.086 1552.6,899.128 1554.6,899.167 1556.6,899.205 1558.6,899.241 1560.6,899.276 1562.6,899.308 1564.6,899.34 1566.6,899.369 1568.6,899.398 1570.6,899.425 1572.6,533.839 1574.6,533.876 1576.6,533.911 1578.6,533.945 1580.6,533.977 1582.6,534.007 1584.6,534.036 1586.61,534.064 1588.61,534.09 1590.61,534.115 1592.61,534.139 1594.61,534.161 1596.61,534.183 1598.61,534.203 1600.61,534.223 1602.61,534.241 1604.61,534.259 1606.61,534.275 1608.61,534.291 1610.61,534.306 1612.61,806.282 1614.61,806.293 1616.61,806.304 1618.61,806.314 1620.61,806.324 1622.61,806.334 1624.61,806.342 1626.61,806.351 1628.61,806.359 1630.61,806.367 1632.61,806.374 1634.61,806.381 1636.61,806.387 1638.62,806.394 1640.62,806.399 1642.62,806.405 1644.62,806.411 1646.62,806.416 1648.62,806.421 1650.62,806.425 1652.62,397.301 1654.62,397.359 1656.62,397.415 1658.62,397.467 1660.62,397.517 1662.62,397.565 1664.62,397.61 1666.62,397.653 1668.62,397.695 1670.62,397.734 1672.62,397.771 1674.62,397.806 1676.62,397.84 1678.62,397.872 1680.62,397.903 1682.62,397.932 1684.62,397.959 1686.62,397.986 1688.63,398.011 1690.63,398.034 1692.63,750.805 1694.63,750.811 1696.63,750.817 1698.63,750.823 1700.63,750.828 1702.63,750.833 1704.63,750.837 1706.63,750.842 1708.63,750.846 1710.63,750.85 1712.63,750.854 1714.63,750.858 1716.63,750.861 1718.63,750.864 1720.63,750.868 1722.63,750.871 1724.63,750.873 1726.63,750.876 1728.63,750.879 1730.63,750.881 1732.63,705.05 1734.63,705.075 1736.63,705.099 1738.64,705.122 1740.64,705.144 1742.64,705.164 1744.64,705.184 1746.64,705.203 1748.64,705.221 1750.64,705.237 1752.64,705.254 1754.64,705.269 1756.64,705.284 1758.64,705.298 1760.64,705.311 1762.64,705.323 1764.64,705.335 1766.64,705.347 1768.64,705.358 1770.64,705.368 1772.64,666.347 1774.64,666.353 1776.64,666.359 1778.64,666.364 1780.64,666.369 1782.64,666.374 1784.64,666.378 1786.64,666.383 1788.64,666.387 1790.65,666.391 1792.65,666.395 1794.65,666.398 1796.65,666.402 1798.65,666.405 1800.65,666.408 1802.65,666.411 1804.65,666.414 1806.65,666.417 1808.65,666.419 1810.65,666.422 1812.65,629.846 1814.65,629.929 1816.65,630.007 1818.65,630.082 1820.65,630.153 1822.65,630.221 1824.65,630.286 1826.65,630.347 1828.65,630.406 1830.65,630.462 1832.65,630.515 1834.65,630.566 1836.65,630.614 1838.65,630.66 1840.66,630.704 1842.66,630.746 1844.66,630.786 1846.66,630.824 1848.66,630.86 1850.66,630.894 1852.66,761.985 1854.66,761.988 1856.66,761.991 1858.66,761.994 1860.66,761.997 1862.66,762 1864.66,762.002 1866.66,762.004 1868.66,762.007 1870.66,762.009 1872.66,762.011 1874.66,762.013 1876.66,762.014 1878.66,762.016 1880.66,762.018 1882.66,762.019 1884.66,762.021 1886.66,762.022 1888.66,762.024 1890.66,762.025 1892.67,593.892 1894.67,593.897 1896.67,593.901 1898.67,593.905 1900.67,593.909 1902.67,593.913 1904.67,593.917 1906.67,593.92 1908.67,593.924 1910.67,593.927 1912.67,593.93 1914.67,593.933 1916.67,593.935 1918.67,593.938 1920.67,593.94 1922.67,593.943 1924.67,593.945 1926.67,593.947 1928.67,593.949 1930.67,593.951 1932.67,343.94 1934.67,343.98 1936.67,344.017 1938.67,344.053 1940.67,344.087 1942.68,344.119 1944.68,344.15 1946.68,344.179 1948.68,344.207 1950.68,344.234 1952.68,344.259 1954.68,344.283 1956.68,344.305 1958.68,344.327 1960.68,344.348 1962.68,344.367 1964.68,344.386 1966.68,344.404 1968.68,344.42 1970.68,344.436 1972.68,422.22 1974.68,422.241 1976.68,422.262 1978.68,422.282 1980.68,422.301 1982.68,422.318 1984.68,422.335 1986.68,422.352 1988.68,422.367 1990.68,422.382 1992.69,422.396 1994.69,422.409 1996.69,422.421 1998.69,422.433 2000.69,422.445 2002.69,422.456 2004.69,422.466 2006.69,422.476 2008.69,422.485 2010.69,422.494 2012.69,550.875 2014.69,550.881 2016.69,550.886 2018.69,550.892 2020.69,550.897 2022.69,550.902 2024.69,550.906 2026.69,550.911 2028.69,550.915 2030.69,550.919 2032.69,550.923 2034.69,550.926 2036.69,550.93 2038.69,550.933 2040.69,550.936 2042.69,550.939 2044.7,550.942 2046.7,550.945 2048.7,550.947 2050.7,550.95 2052.7,612.273 2054.7,612.278 2056.7,612.283 2058.7,612.288 2060.7,612.292 2062.7,612.297 2064.7,612.301 2066.7,612.305 2068.7,612.308 2070.7,612.312 2072.7,612.315 2074.7,612.319 2076.7,612.322 2078.7,612.324 2080.7,612.327 2082.7,612.33 2084.7,612.332 2086.7,612.335 2088.7,612.337 2090.7,612.339 2092.7,87.9763 2094.71,88.0467 2096.71,88.1137 2098.71,88.1774 2100.71,88.238 2102.71,88.2956 2104.71,88.3504 2106.71,88.4025 2108.71,88.4521 2110.71,88.4992 2112.71,88.5441 2114.71,88.5867 2116.71,88.6273 2118.71,88.6658 2120.71,88.7025 2122.71,88.7374 2124.71,88.7706 2126.71,88.8022 2128.71,88.8322 2130.71,88.8607 2132.71,271.582 2134.71,271.585 2136.71,271.587 2138.71,271.589 2140.71,271.591 2142.71,271.593 2144.71,271.595 2146.72,271.597 2148.72,271.598 2150.72,271.6 2152.72,271.601 2154.72,271.603 2156.72,271.604 2158.72,271.605 2160.72,271.607 2162.72,271.608 2164.72,271.609 2166.72,271.61 2168.72,271.611 2170.72,271.612 2172.72,256.284 2174.72,256.309 2176.72,256.332 2178.72,256.354 2180.72,256.376 2182.72,256.396 2184.72,256.415 2186.72,256.433 2188.72,256.45 2190.72,256.467 2192.72,256.482 2194.72,256.497 2196.73,256.511 2198.73,256.525 2200.73,256.538 2202.73,256.55 2204.73,256.561 2206.73,256.572 2208.73,256.583 2210.73,256.593 2212.73,89.1786 2214.73,89.1886 2216.73,89.1982 2218.73,89.2074 2220.73,89.216 2222.73,89.2243 2224.73,89.2321 2226.73,89.2396 2228.73,89.2467 2230.73,89.2534 2232.73,89.2598 2234.73,89.2659 2236.73,89.2717 2238.73,89.2772 2240.73,89.2824 2242.73,89.2874 2244.73,89.2921 2246.74,89.2966 2248.74,89.3009 2250.74,89.3049 2252.74,176.829 2254.74,176.839 2256.74,176.848 2258.74,176.857 2260.74,176.865 2262.74,176.873 2264.74,176.88 2266.74,176.887 2268.74,176.894 2270.74,176.9 2272.74,176.906 2274.74,176.912 2276.74,176.917 2278.74,176.923 2280.74,176.928 2282.74,176.932 2284.74,176.937 2286.74,176.941 2288.74,176.945 2290.74,176.949 2292.74,176.953 "/>
<path clip-path="url(#clip740)" d="M2017.6 1438.47 L2282.08 1438.47 L2282.08 1334.79 L2017.6 1334.79  Z" fill="#ffffff" fill-rule="evenodd" fill-opacity="1"/>
<polyline clip-path="url(#clip740)" style="stroke:#000000; stroke-linecap:round; stroke-linejoin:round; stroke-width:4; stroke-opacity:1; fill:none" points="2017.6,1438.47 2282.08,1438.47 2282.08,1334.79 2017.6,1334.79 2017.6,1438.47 "/>
<polyline clip-path="url(#clip740)" style="stroke:#009af9; stroke-linecap:round; stroke-linejoin:round; stroke-width:4; stroke-opacity:1; fill:none" points="2041.16,1386.63 2182.52,1386.63 "/>
<path clip-path="url(#clip740)" d="M2219.93 1406.32 Q2218.12 1410.95 2216.41 1412.36 Q2214.7 1413.78 2211.83 1413.78 L2208.42 1413.78 L2208.42 1410.21 L2210.92 1410.21 Q2212.68 1410.21 2213.65 1409.38 Q2214.63 1408.54 2215.81 1405.44 L2216.57 1403.5 L2206.08 1377.99 L2210.6 1377.99 L2218.7 1398.27 L2226.8 1377.99 L2231.32 1377.99 L2219.93 1406.32 Z" fill="#000000" fill-rule="nonzero" fill-opacity="1" /><path clip-path="url(#clip740)" d="M2238.61 1399.98 L2246.25 1399.98 L2246.25 1373.61 L2237.94 1375.28 L2237.94 1371.02 L2246.2 1369.35 L2250.88 1369.35 L2250.88 1399.98 L2258.52 1399.98 L2258.52 1403.91 L2238.61 1403.91 L2238.61 1399.98 Z" fill="#000000" fill-rule="nonzero" fill-opacity="1" /></svg>
