<?xml version="1.0" encoding="utf-8"?>
<svg xmlns="http://www.w3.org/2000/svg" xmlns:xlink="http://www.w3.org/1999/xlink" width="600" height="400" viewBox="0 0 2400 1600">
<defs>
  <clipPath id="clip050">
    <rect x="0" y="0" width="2400" height="1600"/>
  </clipPath>
</defs>
<path clip-path="url(#clip050)" d="M0 1600 L2400 1600 L2400 0 L0 0  Z" fill="#ffffff" fill-rule="evenodd" fill-opacity="1"/>
<defs>
  <clipPath id="clip051">
    <rect x="480" y="0" width="1681" height="1600"/>
  </clipPath>
</defs>
<path clip-path="url(#clip050)" d="M178.867 1486.45 L2352.76 1486.45 L2352.76 47.2441 L178.867 47.2441  Z" fill="#ffffff" fill-rule="evenodd" fill-opacity="1"/>
<defs>
  <clipPath id="clip052">
    <rect x="178" y="47" width="2175" height="1440"/>
  </clipPath>
</defs>
<polyline clip-path="url(#clip052)" style="stroke:#000000; stroke-linecap:round; stroke-linejoin:round; stroke-width:2; stroke-opacity:0.1; fill:none" points="240.392,1486.45 240.392,47.2441 "/>
<polyline clip-path="url(#clip052)" style="stroke:#000000; stroke-linecap:round; stroke-linejoin:round; stroke-width:2; stroke-opacity:0.1; fill:none" points="753.358,1486.45 753.358,47.2441 "/>
<polyline clip-path="url(#clip052)" style="stroke:#000000; stroke-linecap:round; stroke-linejoin:round; stroke-width:2; stroke-opacity:0.1; fill:none" points="1266.32,1486.45 1266.32,47.2441 "/>
<polyline clip-path="url(#clip052)" style="stroke:#000000; stroke-linecap:round; stroke-linejoin:round; stroke-width:2; stroke-opacity:0.1; fill:none" points="1779.29,1486.45 1779.29,47.2441 "/>
<polyline clip-path="url(#clip052)" style="stroke:#000000; stroke-linecap:round; stroke-linejoin:round; stroke-width:2; stroke-opacity:0.1; fill:none" points="2292.26,1486.45 2292.26,47.2441 "/>
<polyline clip-path="url(#clip050)" style="stroke:#000000; stroke-linecap:round; stroke-linejoin:round; stroke-width:4; stroke-opacity:1; fill:none" points="178.867,1486.45 2352.76,1486.45 "/>
<polyline clip-path="url(#clip050)" style="stroke:#000000; stroke-linecap:round; stroke-linejoin:round; stroke-width:4; stroke-opacity:1; fill:none" points="240.392,1486.45 240.392,1467.55 "/>
<polyline clip-path="url(#clip050)" style="stroke:#000000; stroke-linecap:round; stroke-linejoin:round; stroke-width:4; stroke-opacity:1; fill:none" points="753.358,1486.45 753.358,1467.55 "/>
<polyline clip-path="url(#clip050)" style="stroke:#000000; stroke-linecap:round; stroke-linejoin:round; stroke-width:4; stroke-opacity:1; fill:none" points="1266.32,1486.45 1266.32,1467.55 "/>
<polyline clip-path="url(#clip050)" style="stroke:#000000; stroke-linecap:round; stroke-linejoin:round; stroke-width:4; stroke-opacity:1; fill:none" points="1779.29,1486.45 1779.29,1467.55 "/>
<polyline clip-path="url(#clip050)" style="stroke:#000000; stroke-linecap:round; stroke-linejoin:round; stroke-width:4; stroke-opacity:1; fill:none" points="2292.26,1486.45 2292.26,1467.55 "/>
<path clip-path="url(#clip050)" d="M240.392 1517.37 Q236.781 1517.37 234.952 1520.93 Q233.146 1524.47 233.146 1531.6 Q233.146 1538.71 234.952 1542.27 Q236.781 1545.82 240.392 1545.82 Q244.026 1545.82 245.832 1542.27 Q247.66 1538.71 247.66 1531.6 Q247.66 1524.47 245.832 1520.93 Q244.026 1517.37 240.392 1517.37 M240.392 1513.66 Q246.202 1513.66 249.257 1518.27 Q252.336 1522.85 252.336 1531.6 Q252.336 1540.33 249.257 1544.94 Q246.202 1549.52 240.392 1549.52 Q234.582 1549.52 231.503 1544.94 Q228.447 1540.33 228.447 1531.6 Q228.447 1522.85 231.503 1518.27 Q234.582 1513.66 240.392 1513.66 Z" fill="#000000" fill-rule="nonzero" fill-opacity="1" /><path clip-path="url(#clip050)" d="M712.976 1514.29 L731.333 1514.29 L731.333 1518.22 L717.259 1518.22 L717.259 1526.7 Q718.277 1526.35 719.296 1526.19 Q720.314 1526 721.333 1526 Q727.12 1526 730.499 1529.17 Q733.879 1532.34 733.879 1537.76 Q733.879 1543.34 730.407 1546.44 Q726.935 1549.52 720.615 1549.52 Q718.439 1549.52 716.171 1549.15 Q713.925 1548.78 711.518 1548.04 L711.518 1543.34 Q713.601 1544.47 715.823 1545.03 Q718.046 1545.58 720.523 1545.58 Q724.527 1545.58 726.865 1543.48 Q729.203 1541.37 729.203 1537.76 Q729.203 1534.15 726.865 1532.04 Q724.527 1529.94 720.523 1529.94 Q718.648 1529.94 716.773 1530.35 Q714.921 1530.77 712.976 1531.65 L712.976 1514.29 Z" fill="#000000" fill-rule="nonzero" fill-opacity="1" /><path clip-path="url(#clip050)" d="M753.092 1517.37 Q749.481 1517.37 747.652 1520.93 Q745.846 1524.47 745.846 1531.6 Q745.846 1538.71 747.652 1542.27 Q749.481 1545.82 753.092 1545.82 Q756.726 1545.82 758.532 1542.27 Q760.36 1538.71 760.36 1531.6 Q760.36 1524.47 758.532 1520.93 Q756.726 1517.37 753.092 1517.37 M753.092 1513.66 Q758.902 1513.66 761.958 1518.27 Q765.036 1522.85 765.036 1531.6 Q765.036 1540.33 761.958 1544.94 Q758.902 1549.52 753.092 1549.52 Q747.282 1549.52 744.203 1544.94 Q741.147 1540.33 741.147 1531.6 Q741.147 1522.85 744.203 1518.27 Q747.282 1513.66 753.092 1513.66 Z" fill="#000000" fill-rule="nonzero" fill-opacity="1" /><path clip-path="url(#clip050)" d="M783.254 1517.37 Q779.643 1517.37 777.814 1520.93 Q776.008 1524.47 776.008 1531.6 Q776.008 1538.71 777.814 1542.27 Q779.643 1545.82 783.254 1545.82 Q786.888 1545.82 788.693 1542.27 Q790.522 1538.71 790.522 1531.6 Q790.522 1524.47 788.693 1520.93 Q786.888 1517.37 783.254 1517.37 M783.254 1513.66 Q789.064 1513.66 792.119 1518.27 Q795.198 1522.85 795.198 1531.6 Q795.198 1540.33 792.119 1544.94 Q789.064 1549.52 783.254 1549.52 Q777.444 1549.52 774.365 1544.94 Q771.309 1540.33 771.309 1531.6 Q771.309 1522.85 774.365 1518.27 Q777.444 1513.66 783.254 1513.66 Z" fill="#000000" fill-rule="nonzero" fill-opacity="1" /><path clip-path="url(#clip050)" d="M1210.85 1544.91 L1218.49 1544.91 L1218.49 1518.55 L1210.18 1520.21 L1210.18 1515.95 L1218.44 1514.29 L1223.12 1514.29 L1223.12 1544.91 L1230.76 1544.91 L1230.76 1548.85 L1210.85 1548.85 L1210.85 1544.91 Z" fill="#000000" fill-rule="nonzero" fill-opacity="1" /><path clip-path="url(#clip050)" d="M1250.2 1517.37 Q1246.59 1517.37 1244.76 1520.93 Q1242.96 1524.47 1242.96 1531.6 Q1242.96 1538.71 1244.76 1542.27 Q1246.59 1545.82 1250.2 1545.82 Q1253.84 1545.82 1255.64 1542.27 Q1257.47 1538.71 1257.47 1531.6 Q1257.47 1524.47 1255.64 1520.93 Q1253.84 1517.37 1250.2 1517.37 M1250.2 1513.66 Q1256.01 1513.66 1259.07 1518.27 Q1262.15 1522.85 1262.15 1531.6 Q1262.15 1540.33 1259.07 1544.94 Q1256.01 1549.52 1250.2 1549.52 Q1244.39 1549.52 1241.31 1544.94 Q1238.26 1540.33 1238.26 1531.6 Q1238.26 1522.85 1241.31 1518.27 Q1244.39 1513.66 1250.2 1513.66 Z" fill="#000000" fill-rule="nonzero" fill-opacity="1" /><path clip-path="url(#clip050)" d="M1280.36 1517.37 Q1276.75 1517.37 1274.92 1520.93 Q1273.12 1524.47 1273.12 1531.6 Q1273.12 1538.71 1274.92 1542.27 Q1276.75 1545.82 1280.36 1545.82 Q1284 1545.82 1285.8 1542.27 Q1287.63 1538.71 1287.63 1531.6 Q1287.63 1524.47 1285.8 1520.93 Q1284 1517.37 1280.36 1517.37 M1280.36 1513.66 Q1286.17 1513.66 1289.23 1518.27 Q1292.31 1522.85 1292.31 1531.6 Q1292.31 1540.33 1289.23 1544.94 Q1286.17 1549.52 1280.36 1549.52 Q1274.55 1549.52 1271.47 1544.94 Q1268.42 1540.33 1268.42 1531.6 Q1268.42 1522.85 1271.47 1518.27 Q1274.55 1513.66 1280.36 1513.66 Z" fill="#000000" fill-rule="nonzero" fill-opacity="1" /><path clip-path="url(#clip050)" d="M1310.53 1517.37 Q1306.91 1517.37 1305.09 1520.93 Q1303.28 1524.47 1303.28 1531.6 Q1303.28 1538.71 1305.09 1542.27 Q1306.91 1545.82 1310.53 1545.82 Q1314.16 1545.82 1315.97 1542.27 Q1317.79 1538.71 1317.79 1531.6 Q1317.79 1524.47 1315.97 1520.93 Q1314.16 1517.37 1310.53 1517.37 M1310.53 1513.66 Q1316.34 1513.66 1319.39 1518.27 Q1322.47 1522.85 1322.47 1531.6 Q1322.47 1540.33 1319.39 1544.94 Q1316.34 1549.52 1310.53 1549.52 Q1304.72 1549.52 1301.64 1544.94 Q1298.58 1540.33 1298.58 1531.6 Q1298.58 1522.85 1301.64 1518.27 Q1304.72 1513.66 1310.53 1513.66 Z" fill="#000000" fill-rule="nonzero" fill-opacity="1" /><path clip-path="url(#clip050)" d="M1723.82 1544.91 L1731.46 1544.91 L1731.46 1518.55 L1723.14 1520.21 L1723.14 1515.95 L1731.41 1514.29 L1736.08 1514.29 L1736.08 1544.91 L1743.72 1544.91 L1743.72 1548.85 L1723.82 1548.85 L1723.82 1544.91 Z" fill="#000000" fill-rule="nonzero" fill-opacity="1" /><path clip-path="url(#clip050)" d="M1753.21 1514.29 L1771.57 1514.29 L1771.57 1518.22 L1757.5 1518.22 L1757.5 1526.7 Q1758.52 1526.35 1759.53 1526.19 Q1760.55 1526 1761.57 1526 Q1767.36 1526 1770.74 1529.17 Q1774.12 1532.34 1774.12 1537.76 Q1774.12 1543.34 1770.64 1546.44 Q1767.17 1549.52 1760.85 1549.52 Q1758.68 1549.52 1756.41 1549.15 Q1754.16 1548.78 1751.76 1548.04 L1751.76 1543.34 Q1753.84 1544.47 1756.06 1545.03 Q1758.28 1545.58 1760.76 1545.58 Q1764.77 1545.58 1767.1 1543.48 Q1769.44 1541.37 1769.44 1537.76 Q1769.44 1534.15 1767.1 1532.04 Q1764.77 1529.94 1760.76 1529.94 Q1758.89 1529.94 1757.01 1530.35 Q1755.16 1530.77 1753.21 1531.65 L1753.21 1514.29 Z" fill="#000000" fill-rule="nonzero" fill-opacity="1" /><path clip-path="url(#clip050)" d="M1793.33 1517.37 Q1789.72 1517.37 1787.89 1520.93 Q1786.08 1524.47 1786.08 1531.6 Q1786.08 1538.71 1787.89 1542.27 Q1789.72 1545.82 1793.33 1545.82 Q1796.96 1545.82 1798.77 1542.27 Q1800.6 1538.71 1800.6 1531.6 Q1800.6 1524.47 1798.77 1520.93 Q1796.96 1517.37 1793.33 1517.37 M1793.33 1513.66 Q1799.14 1513.66 1802.2 1518.27 Q1805.27 1522.85 1805.27 1531.6 Q1805.27 1540.33 1802.2 1544.94 Q1799.14 1549.52 1793.33 1549.52 Q1787.52 1549.52 1784.44 1544.94 Q1781.39 1540.33 1781.39 1531.6 Q1781.39 1522.85 1784.44 1518.27 Q1787.52 1513.66 1793.33 1513.66 Z" fill="#000000" fill-rule="nonzero" fill-opacity="1" /><path clip-path="url(#clip050)" d="M1823.49 1517.37 Q1819.88 1517.37 1818.05 1520.93 Q1816.25 1524.47 1816.25 1531.6 Q1816.25 1538.71 1818.05 1542.27 Q1819.88 1545.82 1823.49 1545.82 Q1827.13 1545.82 1828.93 1542.27 Q1830.76 1538.71 1830.76 1531.6 Q1830.76 1524.47 1828.93 1520.93 Q1827.13 1517.37 1823.49 1517.37 M1823.49 1513.66 Q1829.3 1513.66 1832.36 1518.27 Q1835.44 1522.85 1835.44 1531.6 Q1835.44 1540.33 1832.36 1544.94 Q1829.3 1549.52 1823.49 1549.52 Q1817.68 1549.52 1814.6 1544.94 Q1811.55 1540.33 1811.55 1531.6 Q1811.55 1522.85 1814.6 1518.27 Q1817.68 1513.66 1823.49 1513.66 Z" fill="#000000" fill-rule="nonzero" fill-opacity="1" /><path clip-path="url(#clip050)" d="M2240.87 1544.91 L2257.19 1544.91 L2257.19 1548.85 L2235.24 1548.85 L2235.24 1544.91 Q2237.91 1542.16 2242.49 1537.53 Q2247.09 1532.88 2248.28 1531.53 Q2250.52 1529.01 2251.4 1527.27 Q2252.3 1525.51 2252.3 1523.82 Q2252.3 1521.07 2250.36 1519.33 Q2248.44 1517.6 2245.34 1517.6 Q2243.14 1517.6 2240.68 1518.36 Q2238.25 1519.13 2235.47 1520.68 L2235.47 1515.95 Q2238.3 1514.82 2240.75 1514.24 Q2243.21 1513.66 2245.24 1513.66 Q2250.61 1513.66 2253.81 1516.35 Q2257 1519.03 2257 1523.52 Q2257 1525.65 2256.19 1527.57 Q2255.41 1529.47 2253.3 1532.07 Q2252.72 1532.74 2249.62 1535.95 Q2246.52 1539.15 2240.87 1544.91 Z" fill="#000000" fill-rule="nonzero" fill-opacity="1" /><path clip-path="url(#clip050)" d="M2277 1517.37 Q2273.39 1517.37 2271.56 1520.93 Q2269.76 1524.47 2269.76 1531.6 Q2269.76 1538.71 2271.56 1542.27 Q2273.39 1545.82 2277 1545.82 Q2280.64 1545.82 2282.44 1542.27 Q2284.27 1538.71 2284.27 1531.6 Q2284.27 1524.47 2282.44 1520.93 Q2280.64 1517.37 2277 1517.37 M2277 1513.66 Q2282.81 1513.66 2285.87 1518.27 Q2288.95 1522.85 2288.95 1531.6 Q2288.95 1540.33 2285.87 1544.94 Q2282.81 1549.52 2277 1549.52 Q2271.19 1549.52 2268.11 1544.94 Q2265.06 1540.33 2265.06 1531.6 Q2265.06 1522.85 2268.11 1518.27 Q2271.19 1513.66 2277 1513.66 Z" fill="#000000" fill-rule="nonzero" fill-opacity="1" /><path clip-path="url(#clip050)" d="M2307.16 1517.37 Q2303.55 1517.37 2301.72 1520.93 Q2299.92 1524.47 2299.92 1531.6 Q2299.92 1538.71 2301.72 1542.27 Q2303.55 1545.82 2307.16 1545.82 Q2310.8 1545.82 2312.6 1542.27 Q2314.43 1538.71 2314.43 1531.6 Q2314.43 1524.47 2312.6 1520.93 Q2310.8 1517.37 2307.16 1517.37 M2307.16 1513.66 Q2312.97 1513.66 2316.03 1518.27 Q2319.11 1522.85 2319.11 1531.6 Q2319.11 1540.33 2316.03 1544.94 Q2312.97 1549.52 2307.16 1549.52 Q2301.35 1549.52 2298.28 1544.94 Q2295.22 1540.33 2295.22 1531.6 Q2295.22 1522.85 2298.28 1518.27 Q2301.35 1513.66 2307.16 1513.66 Z" fill="#000000" fill-rule="nonzero" fill-opacity="1" /><path clip-path="url(#clip050)" d="M2337.33 1517.37 Q2333.71 1517.37 2331.89 1520.93 Q2330.08 1524.47 2330.08 1531.6 Q2330.08 1538.71 2331.89 1542.27 Q2333.71 1545.82 2337.33 1545.82 Q2340.96 1545.82 2342.77 1542.27 Q2344.59 1538.71 2344.59 1531.6 Q2344.59 1524.47 2342.77 1520.93 Q2340.96 1517.37 2337.33 1517.37 M2337.33 1513.66 Q2343.14 1513.66 2346.19 1518.27 Q2349.27 1522.85 2349.27 1531.6 Q2349.27 1540.33 2346.19 1544.94 Q2343.14 1549.52 2337.33 1549.52 Q2331.52 1549.52 2328.44 1544.94 Q2325.38 1540.33 2325.38 1531.6 Q2325.38 1522.85 2328.44 1518.27 Q2331.52 1513.66 2337.33 1513.66 Z" fill="#000000" fill-rule="nonzero" fill-opacity="1" /><polyline clip-path="url(#clip052)" style="stroke:#000000; stroke-linecap:round; stroke-linejoin:round; stroke-width:2; stroke-opacity:0.1; fill:none" points="178.867,1330.8 2352.76,1330.8 "/>
<polyline clip-path="url(#clip052)" style="stroke:#000000; stroke-linecap:round; stroke-linejoin:round; stroke-width:2; stroke-opacity:0.1; fill:none" points="178.867,1084.67 2352.76,1084.67 "/>
<polyline clip-path="url(#clip052)" style="stroke:#000000; stroke-linecap:round; stroke-linejoin:round; stroke-width:2; stroke-opacity:0.1; fill:none" points="178.867,838.531 2352.76,838.531 "/>
<polyline clip-path="url(#clip052)" style="stroke:#000000; stroke-linecap:round; stroke-linejoin:round; stroke-width:2; stroke-opacity:0.1; fill:none" points="178.867,592.395 2352.76,592.395 "/>
<polyline clip-path="url(#clip052)" style="stroke:#000000; stroke-linecap:round; stroke-linejoin:round; stroke-width:2; stroke-opacity:0.1; fill:none" points="178.867,346.259 2352.76,346.259 "/>
<polyline clip-path="url(#clip052)" style="stroke:#000000; stroke-linecap:round; stroke-linejoin:round; stroke-width:2; stroke-opacity:0.1; fill:none" points="178.867,100.124 2352.76,100.124 "/>
<polyline clip-path="url(#clip050)" style="stroke:#000000; stroke-linecap:round; stroke-linejoin:round; stroke-width:4; stroke-opacity:1; fill:none" points="178.867,1486.45 178.867,47.2441 "/>
<polyline clip-path="url(#clip050)" style="stroke:#000000; stroke-linecap:round; stroke-linejoin:round; stroke-width:4; stroke-opacity:1; fill:none" points="178.867,1330.8 197.764,1330.8 "/>
<polyline clip-path="url(#clip050)" style="stroke:#000000; stroke-linecap:round; stroke-linejoin:round; stroke-width:4; stroke-opacity:1; fill:none" points="178.867,1084.67 197.764,1084.67 "/>
<polyline clip-path="url(#clip050)" style="stroke:#000000; stroke-linecap:round; stroke-linejoin:round; stroke-width:4; stroke-opacity:1; fill:none" points="178.867,838.531 197.764,838.531 "/>
<polyline clip-path="url(#clip050)" style="stroke:#000000; stroke-linecap:round; stroke-linejoin:round; stroke-width:4; stroke-opacity:1; fill:none" points="178.867,592.395 197.764,592.395 "/>
<polyline clip-path="url(#clip050)" style="stroke:#000000; stroke-linecap:round; stroke-linejoin:round; stroke-width:4; stroke-opacity:1; fill:none" points="178.867,346.259 197.764,346.259 "/>
<polyline clip-path="url(#clip050)" style="stroke:#000000; stroke-linecap:round; stroke-linejoin:round; stroke-width:4; stroke-opacity:1; fill:none" points="178.867,100.124 197.764,100.124 "/>
<path clip-path="url(#clip050)" d="M50.9921 1331.25 L80.6679 1331.25 L80.6679 1335.19 L50.9921 1335.19 L50.9921 1331.25 Z" fill="#000000" fill-rule="nonzero" fill-opacity="1" /><path clip-path="url(#clip050)" d="M89.5799 1313.52 L111.802 1313.52 L111.802 1315.51 L99.2558 1348.08 L94.3715 1348.08 L106.177 1317.46 L89.5799 1317.46 L89.5799 1313.52 Z" fill="#000000" fill-rule="nonzero" fill-opacity="1" /><path clip-path="url(#clip050)" d="M130.922 1316.6 Q127.311 1316.6 125.482 1320.17 Q123.677 1323.71 123.677 1330.84 Q123.677 1337.94 125.482 1341.51 Q127.311 1345.05 130.922 1345.05 Q134.556 1345.05 136.362 1341.51 Q138.191 1337.94 138.191 1330.84 Q138.191 1323.71 136.362 1320.17 Q134.556 1316.6 130.922 1316.6 M130.922 1312.9 Q136.732 1312.9 139.788 1317.5 Q142.867 1322.09 142.867 1330.84 Q142.867 1339.56 139.788 1344.17 Q136.732 1348.75 130.922 1348.75 Q125.112 1348.75 122.033 1344.17 Q118.978 1339.56 118.978 1330.84 Q118.978 1322.09 122.033 1317.5 Q125.112 1312.9 130.922 1312.9 Z" fill="#000000" fill-rule="nonzero" fill-opacity="1" /><path clip-path="url(#clip050)" d="M50.9921 1085.12 L80.6679 1085.12 L80.6679 1089.05 L50.9921 1089.05 L50.9921 1085.12 Z" fill="#000000" fill-rule="nonzero" fill-opacity="1" /><path clip-path="url(#clip050)" d="M101.339 1082.8 Q98.1909 1082.8 96.3391 1084.96 Q94.5104 1087.11 94.5104 1090.86 Q94.5104 1094.59 96.3391 1096.76 Q98.1909 1098.91 101.339 1098.91 Q104.487 1098.91 106.316 1096.76 Q108.168 1094.59 108.168 1090.86 Q108.168 1087.11 106.316 1084.96 Q104.487 1082.8 101.339 1082.8 M110.621 1068.15 L110.621 1072.41 Q108.862 1071.58 107.057 1071.14 Q105.274 1070.7 103.515 1070.7 Q98.8854 1070.7 96.4317 1073.82 Q94.0012 1076.95 93.6539 1083.27 Q95.0197 1081.25 97.0798 1080.19 Q99.14 1079.1 101.617 1079.1 Q106.825 1079.1 109.834 1082.27 Q112.867 1085.42 112.867 1090.86 Q112.867 1096.18 109.719 1099.4 Q106.571 1102.62 101.339 1102.62 Q95.3437 1102.62 92.1725 1098.03 Q89.0012 1093.43 89.0012 1084.7 Q89.0012 1076.51 92.89 1071.65 Q96.7789 1066.76 103.33 1066.76 Q105.089 1066.76 106.871 1067.11 Q108.677 1067.46 110.621 1068.15 Z" fill="#000000" fill-rule="nonzero" fill-opacity="1" /><path clip-path="url(#clip050)" d="M130.922 1070.47 Q127.311 1070.47 125.482 1074.03 Q123.677 1077.57 123.677 1084.7 Q123.677 1091.81 125.482 1095.37 Q127.311 1098.91 130.922 1098.91 Q134.556 1098.91 136.362 1095.37 Q138.191 1091.81 138.191 1084.7 Q138.191 1077.57 136.362 1074.03 Q134.556 1070.47 130.922 1070.47 M130.922 1066.76 Q136.732 1066.76 139.788 1071.37 Q142.867 1075.95 142.867 1084.7 Q142.867 1093.43 139.788 1098.03 Q136.732 1102.62 130.922 1102.62 Q125.112 1102.62 122.033 1098.03 Q118.978 1093.43 118.978 1084.7 Q118.978 1075.95 122.033 1071.37 Q125.112 1066.76 130.922 1066.76 Z" fill="#000000" fill-rule="nonzero" fill-opacity="1" /><path clip-path="url(#clip050)" d="M50.9921 838.982 L80.6679 838.982 L80.6679 842.917 L50.9921 842.917 L50.9921 838.982 Z" fill="#000000" fill-rule="nonzero" fill-opacity="1" /><path clip-path="url(#clip050)" d="M90.8067 821.251 L109.163 821.251 L109.163 825.186 L95.0891 825.186 L95.0891 833.658 Q96.1076 833.311 97.1261 833.149 Q98.1447 832.964 99.1632 832.964 Q104.95 832.964 108.33 836.135 Q111.709 839.306 111.709 844.723 Q111.709 850.302 108.237 853.403 Q104.765 856.482 98.4456 856.482 Q96.2697 856.482 94.0012 856.112 Q91.7558 855.741 89.3484 855.001 L89.3484 850.302 Q91.4317 851.436 93.6539 851.991 Q95.8761 852.547 98.353 852.547 Q102.358 852.547 104.696 850.44 Q107.033 848.334 107.033 844.723 Q107.033 841.112 104.696 839.005 Q102.358 836.899 98.353 836.899 Q96.478 836.899 94.603 837.316 Q92.7512 837.732 90.8067 838.612 L90.8067 821.251 Z" fill="#000000" fill-rule="nonzero" fill-opacity="1" /><path clip-path="url(#clip050)" d="M130.922 824.329 Q127.311 824.329 125.482 827.894 Q123.677 831.436 123.677 838.566 Q123.677 845.672 125.482 849.237 Q127.311 852.778 130.922 852.778 Q134.556 852.778 136.362 849.237 Q138.191 845.672 138.191 838.566 Q138.191 831.436 136.362 827.894 Q134.556 824.329 130.922 824.329 M130.922 820.626 Q136.732 820.626 139.788 825.232 Q142.867 829.816 142.867 838.566 Q142.867 847.292 139.788 851.899 Q136.732 856.482 130.922 856.482 Q125.112 856.482 122.033 851.899 Q118.978 847.292 118.978 838.566 Q118.978 829.816 122.033 825.232 Q125.112 820.626 130.922 820.626 Z" fill="#000000" fill-rule="nonzero" fill-opacity="1" /><path clip-path="url(#clip050)" d="M50.9921 592.847 L80.6679 592.847 L80.6679 596.782 L50.9921 596.782 L50.9921 592.847 Z" fill="#000000" fill-rule="nonzero" fill-opacity="1" /><path clip-path="url(#clip050)" d="M103.608 579.189 L91.8021 597.638 L103.608 597.638 L103.608 579.189 M102.381 575.115 L108.26 575.115 L108.26 597.638 L113.191 597.638 L113.191 601.527 L108.26 601.527 L108.26 609.675 L103.608 609.675 L103.608 601.527 L88.0058 601.527 L88.0058 597.013 L102.381 575.115 Z" fill="#000000" fill-rule="nonzero" fill-opacity="1" /><path clip-path="url(#clip050)" d="M130.922 578.194 Q127.311 578.194 125.482 581.759 Q123.677 585.3 123.677 592.43 Q123.677 599.536 125.482 603.101 Q127.311 606.643 130.922 606.643 Q134.556 606.643 136.362 603.101 Q138.191 599.536 138.191 592.43 Q138.191 585.3 136.362 581.759 Q134.556 578.194 130.922 578.194 M130.922 574.49 Q136.732 574.49 139.788 579.097 Q142.867 583.68 142.867 592.43 Q142.867 601.157 139.788 605.763 Q136.732 610.346 130.922 610.346 Q125.112 610.346 122.033 605.763 Q118.978 601.157 118.978 592.43 Q118.978 583.68 122.033 579.097 Q125.112 574.49 130.922 574.49 Z" fill="#000000" fill-rule="nonzero" fill-opacity="1" /><path clip-path="url(#clip050)" d="M50.9921 346.711 L80.6679 346.711 L80.6679 350.646 L50.9921 350.646 L50.9921 346.711 Z" fill="#000000" fill-rule="nonzero" fill-opacity="1" /><path clip-path="url(#clip050)" d="M104.927 344.905 Q108.283 345.623 110.158 347.891 Q112.057 350.16 112.057 353.493 Q112.057 358.609 108.538 361.41 Q105.02 364.211 98.5382 364.211 Q96.3623 364.211 94.0475 363.771 Q91.7558 363.354 89.3021 362.498 L89.3021 357.984 Q91.2465 359.118 93.5613 359.697 Q95.8761 360.276 98.3993 360.276 Q102.797 360.276 105.089 358.54 Q107.404 356.803 107.404 353.493 Q107.404 350.438 105.251 348.725 Q103.121 346.989 99.3021 346.989 L95.2743 346.989 L95.2743 343.146 L99.4872 343.146 Q102.936 343.146 104.765 341.78 Q106.594 340.391 106.594 337.799 Q106.594 335.137 104.696 333.725 Q102.821 332.29 99.3021 332.29 Q97.3808 332.29 95.1817 332.706 Q92.9826 333.123 90.3438 334.003 L90.3438 329.836 Q93.0058 329.095 95.3206 328.725 Q97.6585 328.354 99.7187 328.354 Q105.043 328.354 108.145 330.785 Q111.246 333.192 111.246 337.313 Q111.246 340.183 109.603 342.174 Q107.959 344.141 104.927 344.905 Z" fill="#000000" fill-rule="nonzero" fill-opacity="1" /><path clip-path="url(#clip050)" d="M130.922 332.058 Q127.311 332.058 125.482 335.623 Q123.677 339.165 123.677 346.294 Q123.677 353.401 125.482 356.965 Q127.311 360.507 130.922 360.507 Q134.556 360.507 136.362 356.965 Q138.191 353.401 138.191 346.294 Q138.191 339.165 136.362 335.623 Q134.556 332.058 130.922 332.058 M130.922 328.354 Q136.732 328.354 139.788 332.961 Q142.867 337.544 142.867 346.294 Q142.867 355.021 139.788 359.627 Q136.732 364.211 130.922 364.211 Q125.112 364.211 122.033 359.627 Q118.978 355.021 118.978 346.294 Q118.978 337.544 122.033 332.961 Q125.112 328.354 130.922 328.354 Z" fill="#000000" fill-rule="nonzero" fill-opacity="1" /><path clip-path="url(#clip050)" d="M50.9921 100.575 L80.6679 100.575 L80.6679 104.51 L50.9921 104.51 L50.9921 100.575 Z" fill="#000000" fill-rule="nonzero" fill-opacity="1" /><path clip-path="url(#clip050)" d="M94.7882 113.469 L111.108 113.469 L111.108 117.404 L89.1632 117.404 L89.1632 113.469 Q91.8252 110.714 96.4085 106.084 Q101.015 101.432 102.196 100.089 Q104.441 97.566 105.321 95.8299 Q106.223 94.0706 106.223 92.3808 Q106.223 89.6262 104.279 87.8901 Q102.358 86.154 99.2558 86.154 Q97.0567 86.154 94.603 86.9179 Q92.1725 87.6818 89.3947 89.2327 L89.3947 84.5105 Q92.2188 83.3762 94.6724 82.7975 Q97.1261 82.2188 99.1632 82.2188 Q104.534 82.2188 107.728 84.904 Q110.922 87.5892 110.922 92.0799 Q110.922 94.2095 110.112 96.1308 Q109.325 98.0289 107.219 100.622 Q106.64 101.293 103.538 104.51 Q100.436 107.705 94.7882 113.469 Z" fill="#000000" fill-rule="nonzero" fill-opacity="1" /><path clip-path="url(#clip050)" d="M130.922 85.9225 Q127.311 85.9225 125.482 89.4873 Q123.677 93.029 123.677 100.159 Q123.677 107.265 125.482 110.83 Q127.311 114.371 130.922 114.371 Q134.556 114.371 136.362 110.83 Q138.191 107.265 138.191 100.159 Q138.191 93.029 136.362 89.4873 Q134.556 85.9225 130.922 85.9225 M130.922 82.2188 Q136.732 82.2188 139.788 86.8253 Q142.867 91.4086 142.867 100.159 Q142.867 108.885 139.788 113.492 Q136.732 118.075 130.922 118.075 Q125.112 118.075 122.033 113.492 Q118.978 108.885 118.978 100.159 Q118.978 91.4086 122.033 86.8253 Q125.112 82.2188 130.922 82.2188 Z" fill="#000000" fill-rule="nonzero" fill-opacity="1" /><polyline clip-path="url(#clip052)" style="stroke:#009af9; stroke-linecap:round; stroke-linejoin:round; stroke-width:4; stroke-opacity:1; fill:none" points="240.392,546.198 241.418,546.154 242.444,750.838 243.47,750.809 244.496,494.895 245.521,494.846 246.547,460.757 247.573,460.725 248.599,375.415 249.625,375.388 250.651,835.769 251.677,835.697 252.703,477.778 253.729,477.732 254.755,494.625 255.781,494.589 256.807,665.193 257.833,665.169 258.859,307.171 259.885,307.14 260.91,358.293 261.936,358.257 262.962,494.361 263.988,494.338 265.014,579.776 266.04,579.756 267.066,102.369 268.092,102.356 269.118,409.39 270.144,409.34 271.17,596.906 272.196,596.884 273.222,613.366 274.248,613.325 275.274,732.88 276.299,732.856 277.325,664.632 278.351,664.532 279.377,529.28 280.403,529.248 281.429,699.302 282.455,699.281 283.481,869.132 284.507,869.102 285.533,818.106 286.559,818.078 287.585,579.357 288.611,579.315 289.637,545.442 290.662,545.401 291.688,681.424 292.714,681.399 293.74,716.234 294.766,716.203 295.792,444.085 296.818,444.054 297.844,512.353 298.87,512.329 299.896,205.338 300.922,205.295 301.948,800.93 302.974,800.892 304,783.764 305.026,783.728 306.051,341.592 307.077,341.556 308.103,137.228 309.129,137.175 310.155,715.879 311.181,715.842 312.207,749.277 313.233,749.249 314.259,477.064 315.285,477.034 316.311,834.869 317.337,834.856 318.363,680.416 319.389,680.335 320.415,681.941 321.44,681.912 322.466,595.771 323.492,595.733 324.518,596.183 325.544,596.151 326.57,783.708 327.596,783.683 328.622,1003.46 329.648,1003.39 330.674,358.266 331.7,358.243 332.726,510.561 333.752,510.532 334.778,357.736 335.804,357.712 336.829,663.334 337.855,663.284 338.881,714.517 339.907,714.478 340.933,765.165 341.959,765.109 342.985,391.308 344.011,391.282 345.037,680.26 346.063,680.218 347.089,886.167 348.115,886.121 349.141,307.62 350.167,307.586 351.193,663.178 352.218,663.113 353.244,544.57 354.27,544.537 355.296,901.747 356.322,901.717 357.348,630.39 358.374,630.371 359.4,594.136 360.426,594.09 361.452,697.027 362.478,696.997 363.504,611.444 364.53,611.396 365.556,816.712 366.581,816.689 367.607,357.628 368.633,357.604 369.659,848.483 370.685,848.381 371.711,561.348 372.737,561.317 373.763,628.997 374.789,628.975 375.815,832.74 376.841,832.662 377.867,612.565 378.893,612.547 379.919,663.22 380.945,663.194 381.97,307.984 382.996,307.938 384.022,950.627 385.048,950.571 386.074,730.725 387.1,730.672 388.126,899.078 389.152,899.021 390.178,526.706 391.204,526.687 392.23,544.798 393.256,544.78 394.282,306.072 395.308,306.029 396.334,681.053 397.359,681.023 398.385,714.774 399.411,714.741 400.437,307.981 401.463,307.927 402.489,1272.79 403.515,1272.74 404.541,390.569 405.567,390.547 406.593,526.477 407.619,526.457 408.645,289.703 409.671,289.688 410.697,457.996 411.723,457.97 412.748,663.74 413.774,663.685 414.8,801.939 415.826,801.887 416.852,680.676 417.878,680.61 418.904,747.145 419.93,747.114 420.956,746.55 421.982,746.514 423.008,781.735 424.034,781.725 425.06,848.065 426.086,848.033 427.112,900.495 428.137,900.444 429.163,1000.86 430.189,1000.8 431.215,595.221 432.241,595.187 433.267,919.4 434.293,919.384 435.319,88.0182 436.345,87.9763 437.371,914.722 438.397,914.648 439.423,305.876 440.449,305.857 441.475,358.886 442.5,358.85 443.526,526.298 444.552,526.261 445.578,1083.93 446.604,1083.86 447.63,426.27 448.656,426.236 449.682,812.709 450.708,812.645 451.734,643.311 452.76,643.282 453.786,1170.49 454.812,1170.44 455.838,951.873 456.864,951.861 457.889,678.301 458.915,678.259 459.941,410.549 460.967,410.519 461.993,527.483 463.019,527.466 464.045,407.193 465.071,407.181 466.097,443.259 467.123,443.232 468.149,358.775 469.175,358.754 470.201,782.658 471.227,782.636 472.253,694.595 473.278,694.572 474.304,594.916 475.33,594.892 476.356,541.817 477.382,541.785 478.408,527.636 479.434,527.613 480.46,394.944 481.486,394.895 482.512,676.022 483.538,675.975 484.564,844.416 485.59,844.357 486.616,748.79 487.642,748.73 488.667,864.993 489.693,864.978 490.719,359.187 491.745,359.146 492.771,682.922 493.797,682.899 494.823,593.198 495.849,593.164 496.875,1082.86 497.901,1082.81 498.927,340.092 499.953,340.069 500.979,477.97 502.005,477.918 503.031,424.343 504.056,424.314 505.082,255.614 506.108,255.59 507.134,713.593 508.16,713.581 509.186,389.71 510.212,389.684 511.238,240.161 512.264,240.12 513.29,761.103 514.316,761.063 515.342,657.835 516.368,657.788 517.394,491.098 518.419,491.069 519.445,829.484 520.471,829.456 521.497,866.035 522.523,866.009 523.549,512.681 524.575,512.653 525.601,477.785 526.627,477.733 527.653,847.797 528.679,847.771 529.705,730.255 530.731,730.226 531.757,906.007 532.783,905.87 533.808,391.592 534.834,391.562 535.86,408.727 536.886,408.694 537.912,644.075 538.938,644.037 539.964,458.742 540.99,458.726 542.016,361.093 543.042,361.033 544.068,658.946 545.094,658.898 546.12,428.459 547.146,428.43 548.172,542.25 549.197,542.209 550.223,542.262 551.249,542.23 552.275,541.851 553.301,541.827 554.327,641.533 555.353,641.493 556.379,241.934 557.405,241.895 558.431,826.591 559.457,826.537 560.483,627.882 561.509,627.864 562.535,642.764 563.561,642.738 564.586,778.252 565.612,778.202 566.638,492.259 567.664,492.241 568.69,843.09 569.716,843.039 570.742,760.559 571.768,760.526 572.794,558.973 573.82,558.948 574.846,578.846 575.872,578.784 576.898,813.062 577.924,813.035 578.95,744.803 579.975,744.786 581.001,410.407 582.027,410.375 583.053,423.754 584.079,423.695 585.105,543.971 586.131,543.948 587.157,304.595 588.183,304.575 589.209,588.746 590.235,588.701 591.261,571.612 592.287,571.574 593.313,638.004 594.338,637.96 595.364,457.319 596.39,457.303 597.416,942.033 598.442,941.912 599.468,863.167 600.494,863.152 601.52,662.041 602.546,662.017 603.572,746.922 604.598,746.911 605.624,579.594 606.65,579.552 607.676,739.099 608.702,739.034 609.727,676.491 610.753,676.464 611.779,620.43 612.805,620.379 613.831,639.855 614.857,639.824 615.883,826.416 616.909,826.362 617.935,658.037 618.961,657.974 619.987,750.13 621.013,750.111 622.039,390.347 623.065,390.331 624.091,792.597 625.116,792.571 626.142,640.292 627.168,640.253 628.194,255.483 629.22,255.462 630.246,424.931 631.272,424.913 632.298,1075.65 633.324,1075.56 634.35,806.874 635.376,806.835 636.402,489.963 637.428,489.927 638.454,442.615 639.48,442.574 640.505,713.505 641.531,713.477 642.557,390.777 643.583,390.762 644.609,691.233 645.635,691.201 646.661,707.695 647.687,707.639 648.713,376.727 649.739,376.682 650.765,324.787 651.791,324.756 652.817,374.134 653.843,374.098 654.869,625.817 655.894,625.8 656.92,590.217 657.946,590.191 658.972,741.977 659.998,741.947 661.024,472.077 662.05,472.05 663.076,532.517 664.102,532.461 665.128,670.934 666.154,670.885 667.18,546.696 668.206,546.658 669.232,921.349 670.257,921.28 671.283,440.27 672.309,440.239 673.335,485.482 674.361,485.418 675.387,394.284 676.413,394.236 677.439,454.495 678.465,454.462 679.491,575.761 680.517,575.724 681.543,373.746 682.569,373.71 683.595,473.884 684.621,473.866 685.646,554.548 686.672,554.483 687.698,489.129 688.724,489.078 689.75,742.867 690.776,742.851 691.802,791.094 692.828,791.06 693.854,641.508 694.88,641.485 695.906,1038.96 696.932,1038.86 697.958,425.513 698.984,425.477 700.01,453.535 701.035,453.501 702.061,544.065 703.087,544.02 704.113,1023.52 705.139,1023.46 706.165,588.131 707.191,588.106 708.217,545.965 709.243,545.933 710.269,1103.79 711.295,1103.79 712.321,1042.32 713.347,1042.29 714.373,453.839 715.399,453.813 716.424,572.025 717.45,571.993 718.476,353.112 719.502,353.078 720.528,466.638 721.554,466.572 722.58,640.927 723.606,640.904 724.632,883.599 725.658,883.596 726.684,612.501 727.71,612.476 728.736,393.274 729.762,393.235 730.788,706.148 731.813,706.126 732.839,858.598 733.865,858.563 734.891,456.129 735.917,456.112 736.943,619.254 737.969,619.229 738.995,638.984 740.021,638.943 741.047,523.375 742.073,523.337 743.099,679.747 744.125,679.733 745.151,606.605 746.176,606.544 747.202,373.69 748.228,373.654 749.254,496.26 750.28,496.215 751.306,491.576 752.332,491.542 753.358,571.222 754.384,571.186 755.41,554.329 756.436,554.283 757.462,862.374 758.488,862.371 759.514,564.309 760.54,564.264 761.565,789.29 762.591,789.23 763.617,775.725 764.643,775.687 765.669,641.808 766.695,641.779 767.721,745.188 768.747,745.179 769.773,868.853 770.799,868.804 771.825,850.007 772.851,849.991 773.877,706.586 774.903,706.535 775.929,487.628 776.954,487.6 777.98,663.643 779.006,663.608 780.032,546.016 781.058,545.984 782.084,376.903 783.11,376.861 784.136,525.558 785.162,525.536 786.188,441.87 787.214,441.843 788.24,241.036 789.266,241.002 790.292,702.558 791.318,702.514 792.343,622.903 793.369,622.867 794.395,469.2 795.421,469.186 796.447,898.85 797.473,898.785 798.499,853.775 799.525,853.728 800.551,447.241 801.577,447.208 802.603,604.424 803.629,604.393 804.655,907.28 805.681,907.257 806.707,859.283 807.732,859.268 808.758,971.659 809.784,971.611 810.81,340.75 811.836,340.733 812.862,692.244 813.888,692.211 814.914,705.951 815.94,705.909 816.966,219.767 817.992,219.746 819.018,503.84 820.044,503.824 821.07,456.02 822.095,455.986 823.121,804.883 824.147,804.849 825.173,721.708 826.199,721.684 827.225,331.941 828.251,331.881 829.277,480.859 830.303,480.846 831.329,591.998 832.355,591.951 833.381,963.746 834.407,963.665 835.433,603.911 836.459,603.879 837.484,600.239 838.51,600.18 839.536,690.962 840.562,690.942 841.588,682.753 842.614,682.71 843.64,739.882 844.666,739.852 845.692,748.764 846.718,748.687 847.744,289.705 848.77,289.678 849.796,473.081 850.822,473.046 851.848,542.005 852.873,541.97 853.899,656.637 854.925,656.608 855.951,703.745 856.977,703.701 858.003,717.606 859.029,717.547 860.055,555.514 861.081,555.495 862.107,652.941 863.133,652.895 864.159,803.587 865.185,803.553 866.211,669.35 867.237,669.303 868.262,685.943 869.288,685.922 870.314,713.26 871.34,713.24 872.366,719.27 873.392,719.218 874.418,792.503 875.444,792.49 876.47,659.127 877.496,659.104 878.522,573.481 879.548,573.444 880.574,898.53 881.6,898.443 882.626,751.63 883.651,751.597 884.677,708.27 885.703,708.268 886.729,729.629 887.755,729.599 888.781,732.243 889.807,732.171 890.833,799.079 891.859,799.043 892.885,694.827 893.911,694.764 894.937,603.777 895.963,603.738 896.989,617.65 898.014,617.605 899.04,835.942 900.066,835.904 901.092,324.53 902.118,324.493 903.144,556.336 904.17,556.301 905.196,485.564 906.222,485.547 907.248,811.764 908.274,811.737 909.3,787.007 910.326,786.987 911.352,259.773 912.378,259.735 913.403,320.345 914.429,320.323 915.455,639.019 916.481,638.978 917.507,615.896 918.533,615.852 919.559,371.339 920.585,371.32 921.611,438.342 922.637,438.311 923.663,767.786 924.689,767.744 925.715,685.516 926.741,685.491 927.767,562.786 928.792,562.761 929.818,730.537 930.844,730.522 931.87,797.154 932.896,797.078 933.922,510.238 934.948,510.211 935.974,1012.25 937,1012.16 938.026,789.457 939.052,789.431 940.078,607.428 941.104,607.404 942.13,373.257 943.156,373.221 944.181,395.881 945.207,395.82 946.233,281.963 947.259,281.898 948.285,1043.44 949.311,1043.31 950.337,601.217 951.363,601.17 952.389,654.652 953.415,654.627 954.441,598.371 955.467,598.335 956.493,576.829 957.519,576.797 958.545,650.413 959.57,650.374 960.596,495.174 961.622,495.132 962.648,695.864 963.674,695.832 964.7,271.63 965.726,271.602 966.752,542.252 967.778,542.205 968.804,1056.04 969.83,1055.95 970.856,827.683 971.882,827.602 972.908,770.143 973.933,770.09 974.959,471.37 975.985,471.351 977.011,630.712 978.037,630.67 979.063,360.487 980.089,360.444 981.115,969.986 982.141,969.884 983.167,847.24 984.193,847.229 985.219,713.955 986.245,713.923 987.271,671.666 988.297,671.639 989.322,618.895 990.348,618.873 991.374,854.078 992.4,854.047 993.426,678.595 994.452,678.563 995.478,943.437 996.504,943.382 997.53,489.458 998.556,489.439 999.582,579.128 1000.61,579.102 1001.63,685.761 1002.66,685.708 1003.69,355.658 1004.71,355.624 1005.74,496.683 1006.76,496.657 1007.79,768.887 1008.82,768.861 1009.84,420.263 1010.87,420.234 1011.89,1010.17 1012.92,1010.08 1013.94,230.47 1014.97,230.418 1016,599.901 1017.02,599.855 1018.05,740.399 1019.07,740.37 1020.1,383.092 1021.13,383.079 1022.15,672.061 1023.18,672.011 1024.2,502.981 1025.23,502.944 1026.26,659.54 1027.28,659.499 1028.31,770.012 1029.33,769.884 1030.36,782.504 1031.39,782.481 1032.41,861.865 1033.44,861.84 1034.46,1052.5 1035.49,1052.45 1036.52,906.505 1037.54,906.476 1038.57,725.255 1039.59,725.196 1040.62,1074.06 1041.65,1074.03 1042.67,313.94 1043.7,313.89 1044.72,313.249 1045.75,313.198 1046.77,1044.8 1047.8,1044.74 1048.83,507.327 1049.85,507.286 1050.88,964.5 1051.9,964.455 1052.93,742.953 1053.96,742.912 1054.98,743.466 1056.01,743.415 1057.03,167.919 1058.06,167.891 1059.09,377.901 1060.11,377.853 1061.14,699.388 1062.16,699.365 1063.19,577.541 1064.22,577.51 1065.24,901.612 1066.27,901.593 1067.29,536.062 1068.32,536.044 1069.35,902.109 1070.37,902.09 1071.4,290.25 1072.42,290.222 1073.45,324.917 1074.47,324.879 1075.5,730.071 1076.53,730.027 1077.55,777.356 1078.58,777.247 1079.6,695.404 1080.63,695.368 1081.66,669.36 1082.68,669.335 1083.71,530.415 1084.73,530.382 1085.76,652.209 1086.79,652.192 1087.81,348.259 1088.84,348.193 1089.86,290.064 1090.89,290.036 1091.92,774.92 1092.94,774.882 1093.97,489.012 1094.99,488.993 1096.02,301.953 1097.05,301.932 1098.07,616.368 1099.1,616.337 1100.12,623.903 1101.15,623.858 1102.18,684.182 1103.2,684.13 1104.23,972.293 1105.25,972.242 1106.28,898.051 1107.3,897.961 1108.33,641.569 1109.36,641.539 1110.38,859.887 1111.41,859.873 1112.43,243.628 1113.46,243.592 1114.49,739.796 1115.51,739.752 1116.54,442.682 1117.56,442.641 1118.59,722.867 1119.62,722.809 1120.64,746.081 1121.67,746.05 1122.69,968.52 1123.72,968.447 1124.75,723.843 1125.77,723.812 1126.8,523.909 1127.82,523.872 1128.85,567.796 1129.88,567.767 1130.9,610.482 1131.93,610.449 1132.95,639.128 1133.98,639.095 1135,764.793 1136.03,764.769 1137.06,640.377 1138.08,640.357 1139.11,557.523 1140.13,557.468 1141.16,820.638 1142.19,820.581 1143.21,749.963 1144.24,749.93 1145.26,598.335 1146.29,598.305 1147.32,607.681 1148.34,607.607 1149.37,791.943 1150.39,791.902 1151.42,709.281 1152.45,709.242 1153.47,912.078 1154.5,912.043 1155.52,762.093 1156.55,762.07 1157.58,693.153 1158.6,693.108 1159.63,899.004 1160.65,898.959 1161.68,390.445 1162.71,390.412 1163.73,640.559 1164.76,640.525 1165.78,507.885 1166.81,507.845 1167.83,620.571 1168.86,620.542 1169.89,675.505 1170.91,675.469 1171.94,283.959 1172.96,283.94 1173.99,1214.92 1175.02,1214.81 1176.04,761.583 1177.07,761.558 1178.09,866.217 1179.12,866.186 1180.15,484.802 1181.17,484.753 1182.2,608.694 1183.22,608.675 1184.25,723.006 1185.28,722.949 1186.3,1041.21 1187.33,1041.16 1188.35,544.255 1189.38,544.238 1190.41,636.311 1191.43,636.273 1192.46,698.551 1193.48,698.525 1194.51,557.155 1195.53,557.13 1196.56,406.502 1197.59,406.483 1198.61,313.763 1199.64,313.729 1200.66,529.152 1201.69,529.123 1202.72,675.328 1203.74,675.296 1204.77,986.935 1205.79,986.919 1206.82,638.422 1207.85,638.391 1208.87,1189.42 1209.9,1189.32 1210.92,326.261 1211.95,326.226 1212.98,414.332 1214,414.275 1215.03,868.466 1216.05,868.403 1217.08,889.15 1218.11,889.096 1219.13,751.102 1220.16,751.077 1221.18,585.188 1222.21,585.159 1223.24,592.516 1224.26,592.482 1225.29,628.016 1226.31,627.979 1227.34,878.908 1228.36,878.875 1229.39,719.123 1230.42,719.084 1231.44,400.813 1232.47,400.789 1233.49,509.723 1234.52,509.705 1235.55,589.259 1236.57,589.225 1237.6,574.818 1238.62,574.789 1239.65,1078.57 1240.68,1078.49 1241.7,1110.39 1242.73,1110.35 1243.75,353.48 1244.78,353.446 1245.81,512.444 1246.83,512.403 1247.86,867.927 1248.88,867.912 1249.91,811.054 1250.94,810.974 1251.96,551.982 1252.99,551.963 1254.01,578.075 1255.04,578.034 1256.06,462.879 1257.09,462.865 1258.12,419.26 1259.14,419.23 1260.17,676.698 1261.19,676.666 1262.22,514.471 1263.25,514.449 1264.27,477.614 1265.3,477.584 1266.32,507.382 1267.35,507.343 1268.38,245.008 1269.4,244.971 1270.43,279.695 1271.45,279.651 1272.48,498.158 1273.51,498.143 1274.53,513.781 1275.56,513.742 1276.58,889.589 1277.61,889.56 1278.64,550.589 1279.66,550.564 1280.69,951.171 1281.71,951.113 1282.74,872.811 1283.77,872.749 1284.79,515.743 1285.82,515.726 1286.84,644.111 1287.87,644.086 1288.89,746.992 1289.92,746.932 1290.95,955.171 1291.97,955.12 1293,569.16 1294.02,569.138 1295.05,784.559 1296.08,784.499 1297.1,755.617 1298.13,755.56 1299.15,423.888 1300.18,423.866 1301.21,522.75 1302.23,522.724 1303.26,606.656 1304.28,606.601 1305.31,779.438 1306.34,779.392 1307.36,605.736 1308.39,605.692 1309.41,792.703 1310.44,792.676 1311.47,1264.31 1312.49,1264.21 1313.52,923.177 1314.54,923.134 1315.57,481.797 1316.59,481.768 1317.62,751.027 1318.65,750.986 1319.67,872.959 1320.7,872.958 1321.72,617.22 1322.75,617.18 1323.78,946.873 1324.8,946.843 1325.83,721.597 1326.85,721.544 1327.88,517.386 1328.91,517.354 1329.93,552.708 1330.96,552.678 1331.98,915.725 1333.01,915.637 1334.04,695.741 1335.06,695.716 1336.09,378.059 1337.11,378.01 1338.14,453.207 1339.17,453.177 1340.19,416.579 1341.22,416.55 1342.24,861.742 1343.27,861.652 1344.3,461.499 1345.32,461.453 1346.35,838.241 1347.37,838.214 1348.4,570.838 1349.42,570.798 1350.45,571.615 1351.48,571.581 1352.5,793.127 1353.53,793.046 1354.55,643.029 1355.58,642.991 1356.61,661.312 1357.63,661.278 1358.66,694.088 1359.68,694.086 1360.71,573.275 1361.74,573.219 1362.76,504.147 1363.79,504.13 1364.81,792.672 1365.84,792.608 1366.87,617.025 1367.89,616.967 1368.92,390.108 1369.94,390.075 1370.97,956.379 1372,956.322 1373.02,616.328 1374.05,616.285 1375.07,555.051 1376.1,555.011 1377.12,517.662 1378.15,517.623 1379.18,425.612 1380.2,425.582 1381.23,837.739 1382.25,837.688 1383.28,688.076 1384.31,688.001 1385.33,326.268 1386.36,326.232 1387.38,857.711 1388.41,857.687 1389.44,592.557 1390.46,592.531 1391.49,505.625 1392.51,505.582 1393.54,815.155 1394.57,815.062 1395.59,733.513 1396.62,733.467 1397.64,497.727 1398.67,497.697 1399.7,795.614 1400.72,795.555 1401.75,477.555 1402.77,477.536 1403.8,795.426 1404.83,795.366 1405.85,763.483 1406.88,763.46 1407.9,354.165 1408.93,354.138 1409.95,335.127 1410.98,335.069 1412.01,541.937 1413.03,541.92 1414.06,683.3 1415.08,683.263 1416.11,864.067 1417.14,864.029 1418.16,849.425 1419.19,849.39 1420.21,705.246 1421.24,705.204 1422.27,1021.03 1423.29,1020.99 1424.32,778.902 1425.34,778.867 1426.37,453.513 1427.4,453.479 1428.42,730.649 1429.45,730.614 1430.47,650.919 1431.5,650.885 1432.53,724.598 1433.55,724.535 1434.58,896.624 1435.6,896.56 1436.63,1061.42 1437.65,1061.3 1438.68,692.535 1439.71,692.517 1440.73,851.101 1441.76,851.077 1442.78,774.32 1443.81,774.289 1444.84,566.251 1445.86,566.213 1446.89,870.37 1447.91,870.365 1448.94,371.211 1449.97,371.18 1450.99,570.356 1452.02,570.323 1453.04,865.468 1454.07,865.417 1455.1,808.058 1456.12,808.011 1457.15,290.734 1458.17,290.704 1459.2,326.582 1460.23,326.546 1461.25,711.438 1462.28,711.34 1463.3,757.878 1464.33,757.844 1465.36,693.406 1466.38,693.381 1467.41,533.843 1468.43,533.808 1469.46,633.277 1470.48,633.234 1471.51,1056.35 1472.54,1056.28 1473.56,619.1 1474.59,619.078 1475.61,879.941 1476.64,879.927 1477.67,381.579 1478.69,381.553 1479.72,1085.86 1480.74,1085.79 1481.77,747.377 1482.8,747.297 1483.82,514.917 1484.85,514.885 1485.87,657.18 1486.9,657.157 1487.93,617.703 1488.95,617.677 1489.98,954.59 1491,954.534 1492.03,524.016 1493.06,523.985 1494.08,352.241 1495.11,352.206 1496.13,640.612 1497.16,640.561 1498.18,352.223 1499.21,352.188 1500.24,702.498 1501.26,702.468 1502.29,715.766 1503.31,715.74 1504.34,924.892 1505.37,924.864 1506.39,469.349 1507.42,469.312 1508.44,530.594 1509.47,530.54 1510.5,840.078 1511.52,840.003 1512.55,942.286 1513.57,942.264 1514.6,345.827 1515.63,345.784 1516.65,779.73 1517.68,779.707 1518.7,824.37 1519.73,824.333 1520.76,684.31 1521.78,684.282 1522.81,528.782 1523.83,528.744 1524.86,951.073 1525.89,951.011 1526.91,665.782 1527.94,665.756 1528.96,344.887 1529.99,344.847 1531.01,381.13 1532.04,381.104 1533.07,594.543 1534.09,594.505 1535.12,718.381 1536.14,718.353 1537.17,615.382 1538.2,615.332 1539.22,731.602 1540.25,731.576 1541.27,745.811 1542.3,745.758 1543.33,928.57 1544.35,928.532 1545.38,956.193 1546.4,956.15 1547.43,806.876 1548.46,806.835 1549.48,921.035 1550.51,920.979 1551.53,809.203 1552.56,809.156 1553.59,798.186 1554.61,798.148 1555.64,626.46 1556.66,626.438 1557.69,926.286 1558.71,926.259 1559.74,908.637 1560.77,908.575 1561.79,533.178 1562.82,533.14 1563.84,1242.94 1564.87,1242.78 1565.9,597.973 1566.92,597.945 1567.95,613.959 1568.97,613.938 1570,596.451 1571.03,596.436 1572.05,591.889 1573.08,591.86 1574.1,957.338 1575.13,957.293 1576.16,539.666 1577.18,539.649 1578.21,664.49 1579.23,664.446 1580.26,533.257 1581.29,533.223 1582.31,754.879 1583.34,754.85 1584.36,434.358 1585.39,434.317 1586.42,825.15 1587.44,825.123 1588.47,556.544 1589.49,556.522 1590.52,595.182 1591.54,595.166 1592.57,459.091 1593.6,459.059 1594.62,852.836 1595.65,852.739 1596.67,725.138 1597.7,725.116 1598.73,714.105 1599.75,714.018 1600.78,616.561 1601.8,616.54 1602.83,539.059 1603.86,539.021 1604.88,903.853 1605.91,903.8 1606.93,601.993 1607.96,601.943 1608.99,620.854 1610.01,620.819 1611.04,1445.72 1612.06,1445.63 1613.09,555.22 1614.12,555.194 1615.14,542.152 1616.17,542.119 1617.19,603.236 1618.22,603.204 1619.24,694.349 1620.27,694.307 1621.3,596.976 1622.32,596.946 1623.35,645.592 1624.37,645.558 1625.4,946.758 1626.43,946.689 1627.45,846.938 1628.48,846.893 1629.5,354.638 1630.53,354.609 1631.56,735.4 1632.58,735.345 1633.61,593.823 1634.63,593.782 1635.66,654.779 1636.69,654.731 1637.71,715.229 1638.74,715.181 1639.76,1299.46 1640.79,1299.33 1641.82,815.66 1642.84,815.627 1643.87,612.168 1644.89,612.128 1645.92,865.234 1646.95,865.203 1647.97,784.5 1649,784.459 1650.02,824.829 1651.05,824.787 1652.07,784.497 1653.1,784.485 1654.13,690.135 1655.15,690.106 1656.18,802.423 1657.2,802.394 1658.23,617.396 1659.26,617.37 1660.28,541.788 1661.31,541.759 1662.33,969.327 1663.36,969.232 1664.39,443.902 1665.41,443.874 1666.44,733.633 1667.46,733.61 1668.49,570.263 1669.52,570.215 1670.54,1180.04 1671.57,1179.98 1672.59,678.997 1673.62,678.973 1674.65,593.28 1675.67,593.252 1676.7,641.044 1677.72,640.995 1678.75,530.477 1679.78,530.459 1680.8,424.413 1681.83,424.389 1682.85,807.742 1683.88,807.685 1684.9,820.348 1685.93,820.299 1686.96,627.077 1687.98,627.045 1689.01,363.168 1690.03,363.14 1691.06,858.113 1692.09,858.081 1693.11,681.776 1694.14,681.745 1695.16,855.81 1696.19,855.775 1697.22,690.575 1698.24,690.551 1699.27,502.936 1700.29,502.903 1701.32,1320.41 1702.35,1320.32 1703.37,848.815 1704.4,848.788 1705.42,926.777 1706.45,926.736 1707.48,792.924 1708.5,792.894 1709.53,557.139 1710.55,557.105 1711.58,897.497 1712.6,897.385 1713.63,597.08 1714.66,597.031 1715.68,1160.47 1716.71,1160.38 1717.73,918.719 1718.76,918.672 1719.79,546.069 1720.81,546.033 1721.84,484.094 1722.86,484.066 1723.89,656.915 1724.92,656.884 1725.94,748.345 1726.97,748.28 1727.99,738.445 1729.02,738.398 1730.05,953.019 1731.07,953.011 1732.1,616.845 1733.12,616.792 1734.15,387.449 1735.18,387.427 1736.2,781.161 1737.23,781.123 1738.25,384.927 1739.28,384.899 1740.31,1005.46 1741.33,1005.41 1742.36,555.412 1743.38,555.368 1744.41,839.282 1745.43,839.243 1746.46,602.749 1747.49,602.684 1748.51,588.715 1749.54,588.676 1750.56,956.171 1751.59,956.122 1752.62,414.859 1753.64,414.829 1754.67,818.07 1755.69,818.022 1756.72,943.767 1757.75,943.729 1758.77,661.974 1759.8,661.942 1760.82,313.658 1761.85,313.61 1762.88,459.808 1763.9,459.765 1764.93,589.462 1765.95,589.434 1766.98,1104.08 1768.01,1104.06 1769.03,715.607 1770.06,715.551 1771.08,674.698 1772.11,674.658 1773.13,581.949 1774.16,581.917 1775.19,740.225 1776.21,740.203 1777.24,829.501 1778.26,829.458 1779.29,417.446 1780.32,417.405 1781.34,805.731 1782.37,805.678 1783.39,931.971 1784.42,931.954 1785.45,961.539 1786.47,961.507 1787.5,734.012 1788.52,733.986 1789.55,954.527 1790.58,954.459 1791.6,670.127 1792.63,670.071 1793.65,687.178 1794.68,687.16 1795.71,574.426 1796.73,574.39 1797.76,634.373 1798.78,634.351 1799.81,989.363 1800.84,989.277 1801.86,886.27 1802.89,886.206 1803.91,745.118 1804.94,745.079 1805.96,557.326 1806.99,557.282 1808.02,754.976 1809.04,754.949 1810.07,728.933 1811.09,728.884 1812.12,407.534 1813.15,407.488 1814.17,727.067 1815.2,727.003 1816.22,788.843 1817.25,788.762 1818.28,855.611 1819.3,855.573 1820.33,515.542 1821.35,515.518 1822.38,714.351 1823.41,714.324 1824.43,949.164 1825.46,949.123 1826.48,808.097 1827.51,808.097 1828.54,568.52 1829.56,568.481 1830.59,626.562 1831.61,626.539 1832.64,555.401 1833.66,555.372 1834.69,978.557 1835.72,978.484 1836.74,650.101 1837.77,650.057 1838.79,732.442 1839.82,732.415 1840.85,652.898 1841.87,652.853 1842.9,666.665 1843.92,666.646 1844.95,584.145 1845.98,584.117 1847,856.262 1848.03,856.219 1849.05,680.819 1850.08,680.777 1851.11,722.963 1852.13,722.943 1853.16,483.859 1854.18,483.829 1855.21,492.531 1856.24,492.515 1857.26,625.333 1858.29,625.322 1859.31,667.858 1860.34,667.84 1861.37,510.888 1862.39,510.871 1863.42,463.533 1864.44,463.505 1865.47,573.129 1866.49,573.1 1867.52,1010.36 1868.55,1010.25 1869.57,651.628 1870.6,651.606 1871.62,878.897 1872.65,878.831 1873.68,747.647 1874.7,747.592 1875.73,602.093 1876.75,602.026 1877.78,396.889 1878.81,396.81 1879.83,711.755 1880.86,711.728 1881.88,440.266 1882.91,440.201 1883.94,668.095 1884.96,668.068 1885.99,739.141 1887.01,739.079 1888.04,582.468 1889.07,582.438 1890.09,728.288 1891.12,728.231 1892.14,718.112 1893.17,718.058 1894.19,766.916 1895.22,766.862 1896.25,830.983 1897.27,830.88 1898.3,736.299 1899.32,736.254 1900.35,734.885 1901.38,734.85 1902.4,633.907 1903.43,633.872 1904.45,624.347 1905.48,624.316 1906.51,720.033 1907.53,719.989 1908.56,906.589 1909.58,906.524 1910.61,767.754 1911.64,767.725 1912.66,946.235 1913.69,946.195 1914.71,644.112 1915.74,644.086 1916.77,865.052 1917.79,864.974 1918.82,868.255 1919.84,868.204 1920.87,554.308 1921.9,554.273 1922.92,730.809 1923.95,730.773 1924.97,717.644 1926,717.607 1927.02,618.286 1928.05,618.265 1929.08,791.49 1930.1,791.437 1931.13,805.236 1932.15,805.209 1933.18,902.728 1934.21,902.714 1935.23,572.336 1936.26,572.281 1937.28,719.752 1938.31,719.714 1939.34,481.92 1940.36,481.895 1941.39,962.982 1942.41,962.941 1943.44,588.502 1944.47,588.481 1945.49,707.045 1946.52,706.993 1947.54,267.935 1948.57,267.905 1949.6,633.946 1950.62,633.909 1951.65,449.724 1952.67,449.706 1953.7,469.681 1954.72,469.656 1955.75,773.393 1956.78,773.359 1957.8,564.459 1958.83,564.429 1959.85,600.113 1960.88,600.067 1961.91,774.038 1962.93,774.002 1963.96,793.078 1964.98,793.032 1966.01,765.066 1967.04,765.036 1968.06,608.12 1969.09,608.098 1970.11,520.333 1971.14,520.292 1972.17,740.755 1973.19,740.715 1974.22,929.37 1975.24,929.331 1976.27,723.692 1977.3,723.636 1978.32,348.798 1979.35,348.754 1980.37,541.261 1981.4,541.231 1982.43,535.788 1983.45,535.766 1984.48,597.192 1985.5,597.159 1986.53,849.33 1987.55,849.292 1988.58,407.098 1989.61,407.051 1990.63,527.79 1991.66,527.77 1992.68,579.821 1993.71,579.781 1994.74,770.318 1995.76,770.288 1996.79,1049.47 1997.81,1049.41 1998.84,739.663 1999.87,739.635 2000.89,657.825 2001.92,657.788 2002.94,580.679 2003.97,580.633 2005,557.609 2006.02,557.572 2007.05,448.889 2008.07,448.835 2009.1,450.004 2010.13,449.968 2011.15,662.411 2012.18,662.358 2013.2,472.838 2014.23,472.803 2015.25,757.91 2016.28,757.871 2017.31,897.86 2018.33,897.841 2019.36,868.397 2020.38,868.348 2021.41,876.908 2022.44,876.88 2023.46,577.39 2024.49,577.359 2025.51,608.166 2026.54,608.124 2027.57,455.997 2028.59,455.97 2029.62,901.189 2030.64,901.159 2031.67,611.346 2032.7,611.314 2033.72,785.915 2034.75,785.892 2035.77,708.335 2036.8,708.308 2037.83,742.167 2038.85,742.141 2039.88,483.998 2040.9,483.976 2041.93,681.377 2042.96,681.357 2043.98,890.082 2045.01,890.071 2046.03,574.451 2047.06,574.414 2048.08,906.711 2049.11,906.673 2050.14,470.096 2051.16,470.059 2052.19,581.207 2053.21,581.143 2054.24,631.518 2055.27,631.495 2056.29,761.601 2057.32,761.493 2058.34,716.465 2059.37,716.435 2060.4,669.663 2061.42,669.629 2062.45,771.63 2063.47,771.584 2064.5,597.04 2065.53,597.018 2066.55,635.463 2067.58,635.439 2068.6,889.49 2069.63,889.429 2070.66,790.059 2071.68,790.015 2072.71,868.088 2073.73,868.031 2074.76,494.331 2075.78,494.299 2076.81,945.257 2077.84,945.214 2078.86,860.648 2079.89,860.619 2080.91,534.267 2081.94,534.215 2082.97,842.729 2083.99,842.693 2085.02,452 2086.04,451.957 2087.07,1063.92 2088.1,1063.9 2089.12,776.725 2090.15,776.697 2091.17,886.105 2092.2,886.062 2093.23,619.032 2094.25,618.997 2095.28,849.444 2096.3,849.407 2097.33,584.384 2098.36,584.356 2099.38,851.183 2100.41,851.145 2101.43,549.841 2102.46,549.801 2103.49,441.708 2104.51,441.688 2105.54,436.95 2106.56,436.924 2107.59,577.733 2108.61,577.701 2109.64,776.946 2110.67,776.87 2111.69,871.949 2112.72,871.903 2113.74,732.741 2114.77,732.709 2115.8,744.299 2116.82,744.276 2117.85,872.861 2118.87,872.847 2119.9,598.637 2120.93,598.617 2121.95,1181.15 2122.98,1181.07 2124,939.972 2125.03,939.934 2126.06,841.725 2127.08,841.69 2128.11,668.564 2129.13,668.523 2130.16,913.922 2131.19,913.862 2132.21,667.971 2133.24,667.939 2134.26,790.514 2135.29,790.466 2136.31,493.116 2137.34,493.089 2138.37,716.38 2139.39,716.332 2140.42,652.19 2141.44,652.144 2142.47,558.575 2143.5,558.544 2144.52,540.513 2145.55,540.461 2146.57,717.151 2147.6,717.132 2148.63,760.437 2149.65,760.401 2150.68,765.631 2151.7,765.598 2152.73,427.6 2153.76,427.555 2154.78,700.047 2155.81,700.029 2156.83,551.335 2157.86,551.301 2158.89,529.127 2159.91,529.09 2160.94,881.273 2161.96,881.225 2162.99,677.597 2164.02,677.555 2165.04,469.99 2166.07,469.944 2167.09,440.078 2168.12,440.034 2169.14,971.252 2170.17,971.209 2171.2,776.183 2172.22,776.131 2173.25,583.905 2174.27,583.836 2175.3,637.379 2176.33,637.34 2177.35,931.317 2178.38,931.272 2179.4,959.739 2180.43,959.723 2181.46,299.187 2182.48,299.164 2183.51,1075.05 2184.53,1074.94 2185.56,768.935 2186.59,768.89 2187.61,599.79 2188.64,599.769 2189.66,506.992 2190.69,506.947 2191.72,712.129 2192.74,712.098 2193.77,788.189 2194.79,788.149 2195.82,872.386 2196.84,872.331 2197.87,809.097 2198.9,809.041 2199.92,551.333 2200.95,551.311 2201.97,826.711 2203,826.675 2204.03,688.211 2205.05,688.187 2206.08,650.315 2207.1,650.276 2208.13,830.603 2209.16,830.547 2210.18,769.349 2211.21,769.324 2212.23,446.811 2213.26,446.791 2214.29,965.747 2215.31,965.704 2216.34,722.101 2217.36,722.07 2218.39,982.751 2219.42,982.686 2220.44,547.876 2221.47,547.858 2222.49,998.232 2223.52,998.175 2224.55,912.544 2225.57,912.46 2226.6,1022.64 2227.62,1022.6 2228.65,653.541 2229.67,653.511 2230.7,861.836 2231.73,861.784 2232.75,605.766 2233.78,605.7 2234.8,955.974 2235.83,955.904 2236.86,576.805 2237.88,576.77 2238.91,746.931 2239.93,746.84 2240.96,908.626 2241.99,908.56 2243.01,618.226 2244.04,618.17 2245.06,426.477 2246.09,426.425 2247.12,642.721 2248.14,642.695 2249.17,688.503 2250.19,688.471 2251.22,802.277 2252.25,802.246 2253.27,1052.78 2254.3,1052.66 2255.32,871.695 2256.35,871.636 2257.37,1044.88 2258.4,1044.84 2259.43,613.481 2260.45,613.424 2261.48,292.086 2262.5,292.066 2263.53,592.068 2264.56,592.044 2265.58,794.885 2266.61,794.846 2267.63,905.982 2268.66,905.966 2269.69,742.228 2270.71,742.178 2271.74,724.579 2272.76,724.554 2273.79,566.335 2274.82,566.291 2275.84,753.93 2276.87,753.867 2277.89,730.81 2278.92,730.793 2279.95,933.912 2280.97,933.806 2282,983.976 2283.02,983.916 2284.05,783.073 2285.08,783.044 2286.1,1158.52 2287.13,1158.48 2288.15,488.772 2289.18,488.756 2290.2,630.173 2291.23,630.142 "/>
<path clip-path="url(#clip050)" d="M2010.47 1438.47 L2280.29 1438.47 L2280.29 1334.79 L2010.47 1334.79  Z" fill="#ffffff" fill-rule="evenodd" fill-opacity="1"/>
<polyline clip-path="url(#clip050)" style="stroke:#000000; stroke-linecap:round; stroke-linejoin:round; stroke-width:4; stroke-opacity:1; fill:none" points="2010.47,1438.47 2280.29,1438.47 2280.29,1334.79 2010.47,1334.79 2010.47,1438.47 "/>
<polyline clip-path="url(#clip050)" style="stroke:#009af9; stroke-linecap:round; stroke-linejoin:round; stroke-width:4; stroke-opacity:1; fill:none" points="2034.63,1386.63 2179.55,1386.63 "/>
<path clip-path="url(#clip050)" d="M2217.55 1406.32 Q2215.75 1410.95 2214.03 1412.36 Q2212.32 1413.78 2209.45 1413.78 L2206.05 1413.78 L2206.05 1410.21 L2208.55 1410.21 Q2210.31 1410.21 2211.28 1409.38 Q2212.25 1408.54 2213.43 1405.44 L2214.19 1403.5 L2203.71 1377.99 L2208.22 1377.99 L2216.32 1398.27 L2224.43 1377.99 L2228.94 1377.99 L2217.55 1406.32 Z" fill="#000000" fill-rule="nonzero" fill-opacity="1" /><path clip-path="url(#clip050)" d="M2236.23 1399.98 L2243.87 1399.98 L2243.87 1373.61 L2235.56 1375.28 L2235.56 1371.02 L2243.82 1369.35 L2248.5 1369.35 L2248.5 1399.98 L2256.14 1399.98 L2256.14 1403.91 L2236.23 1403.91 L2236.23 1399.98 Z" fill="#000000" fill-rule="nonzero" fill-opacity="1" /></svg>
