<?xml version="1.0" encoding="utf-8"?>
<svg xmlns="http://www.w3.org/2000/svg" xmlns:xlink="http://www.w3.org/1999/xlink" width="600" height="400" viewBox="0 0 2400 1600">
<defs>
  <clipPath id="clip010">
    <rect x="0" y="0" width="2400" height="1600"/>
  </clipPath>
</defs>
<path clip-path="url(#clip010)" d="M0 1600 L2400 1600 L2400 0 L0 0  Z" fill="#ffffff" fill-rule="evenodd" fill-opacity="1"/>
<defs>
  <clipPath id="clip011">
    <rect x="480" y="0" width="1681" height="1600"/>
  </clipPath>
</defs>
<path clip-path="url(#clip010)" d="M216.436 1486.45 L2352.76 1486.45 L2352.76 47.2441 L216.436 47.2441  Z" fill="#ffffff" fill-rule="evenodd" fill-opacity="1"/>
<defs>
  <clipPath id="clip012">
    <rect x="216" y="47" width="2137" height="1440"/>
  </clipPath>
</defs>
<polyline clip-path="url(#clip012)" style="stroke:#000000; stroke-linecap:round; stroke-linejoin:round; stroke-width:2; stroke-opacity:0.1; fill:none" points="276.898,1486.45 276.898,47.2441 "/>
<polyline clip-path="url(#clip012)" style="stroke:#000000; stroke-linecap:round; stroke-linejoin:round; stroke-width:2; stroke-opacity:0.1; fill:none" points="780.747,1486.45 780.747,47.2441 "/>
<polyline clip-path="url(#clip012)" style="stroke:#000000; stroke-linecap:round; stroke-linejoin:round; stroke-width:2; stroke-opacity:0.1; fill:none" points="1284.6,1486.45 1284.6,47.2441 "/>
<polyline clip-path="url(#clip012)" style="stroke:#000000; stroke-linecap:round; stroke-linejoin:round; stroke-width:2; stroke-opacity:0.1; fill:none" points="1788.44,1486.45 1788.44,47.2441 "/>
<polyline clip-path="url(#clip012)" style="stroke:#000000; stroke-linecap:round; stroke-linejoin:round; stroke-width:2; stroke-opacity:0.1; fill:none" points="2292.29,1486.45 2292.29,47.2441 "/>
<polyline clip-path="url(#clip010)" style="stroke:#000000; stroke-linecap:round; stroke-linejoin:round; stroke-width:4; stroke-opacity:1; fill:none" points="216.436,1486.45 2352.76,1486.45 "/>
<polyline clip-path="url(#clip010)" style="stroke:#000000; stroke-linecap:round; stroke-linejoin:round; stroke-width:4; stroke-opacity:1; fill:none" points="276.898,1486.45 276.898,1467.55 "/>
<polyline clip-path="url(#clip010)" style="stroke:#000000; stroke-linecap:round; stroke-linejoin:round; stroke-width:4; stroke-opacity:1; fill:none" points="780.747,1486.45 780.747,1467.55 "/>
<polyline clip-path="url(#clip010)" style="stroke:#000000; stroke-linecap:round; stroke-linejoin:round; stroke-width:4; stroke-opacity:1; fill:none" points="1284.6,1486.45 1284.6,1467.55 "/>
<polyline clip-path="url(#clip010)" style="stroke:#000000; stroke-linecap:round; stroke-linejoin:round; stroke-width:4; stroke-opacity:1; fill:none" points="1788.44,1486.45 1788.44,1467.55 "/>
<polyline clip-path="url(#clip010)" style="stroke:#000000; stroke-linecap:round; stroke-linejoin:round; stroke-width:4; stroke-opacity:1; fill:none" points="2292.29,1486.45 2292.29,1467.55 "/>
<path clip-path="url(#clip010)" d="M276.898 1517.37 Q273.287 1517.37 271.458 1520.93 Q269.652 1524.47 269.652 1531.6 Q269.652 1538.71 271.458 1542.27 Q273.287 1545.82 276.898 1545.82 Q280.532 1545.82 282.338 1542.27 Q284.166 1538.71 284.166 1531.6 Q284.166 1524.47 282.338 1520.93 Q280.532 1517.37 276.898 1517.37 M276.898 1513.66 Q282.708 1513.66 285.763 1518.27 Q288.842 1522.85 288.842 1531.6 Q288.842 1540.33 285.763 1544.94 Q282.708 1549.52 276.898 1549.52 Q271.088 1549.52 268.009 1544.94 Q264.953 1540.33 264.953 1531.6 Q264.953 1522.85 268.009 1518.27 Q271.088 1513.66 276.898 1513.66 Z" fill="#000000" fill-rule="nonzero" fill-opacity="1" /><path clip-path="url(#clip010)" d="M740.365 1514.29 L758.721 1514.29 L758.721 1518.22 L744.647 1518.22 L744.647 1526.7 Q745.666 1526.35 746.685 1526.19 Q747.703 1526 748.722 1526 Q754.509 1526 757.888 1529.17 Q761.268 1532.34 761.268 1537.76 Q761.268 1543.34 757.796 1546.44 Q754.323 1549.52 748.004 1549.52 Q745.828 1549.52 743.56 1549.15 Q741.314 1548.78 738.907 1548.04 L738.907 1543.34 Q740.99 1544.47 743.212 1545.03 Q745.435 1545.58 747.911 1545.58 Q751.916 1545.58 754.254 1543.48 Q756.592 1541.37 756.592 1537.76 Q756.592 1534.15 754.254 1532.04 Q751.916 1529.94 747.911 1529.94 Q746.036 1529.94 744.161 1530.35 Q742.31 1530.77 740.365 1531.65 L740.365 1514.29 Z" fill="#000000" fill-rule="nonzero" fill-opacity="1" /><path clip-path="url(#clip010)" d="M780.481 1517.37 Q776.87 1517.37 775.041 1520.93 Q773.235 1524.47 773.235 1531.6 Q773.235 1538.71 775.041 1542.27 Q776.87 1545.82 780.481 1545.82 Q784.115 1545.82 785.92 1542.27 Q787.749 1538.71 787.749 1531.6 Q787.749 1524.47 785.92 1520.93 Q784.115 1517.37 780.481 1517.37 M780.481 1513.66 Q786.291 1513.66 789.346 1518.27 Q792.425 1522.85 792.425 1531.6 Q792.425 1540.33 789.346 1544.94 Q786.291 1549.52 780.481 1549.52 Q774.67 1549.52 771.592 1544.94 Q768.536 1540.33 768.536 1531.6 Q768.536 1522.85 771.592 1518.27 Q774.67 1513.66 780.481 1513.66 Z" fill="#000000" fill-rule="nonzero" fill-opacity="1" /><path clip-path="url(#clip010)" d="M810.643 1517.37 Q807.031 1517.37 805.203 1520.93 Q803.397 1524.47 803.397 1531.6 Q803.397 1538.71 805.203 1542.27 Q807.031 1545.82 810.643 1545.82 Q814.277 1545.82 816.082 1542.27 Q817.911 1538.71 817.911 1531.6 Q817.911 1524.47 816.082 1520.93 Q814.277 1517.37 810.643 1517.37 M810.643 1513.66 Q816.453 1513.66 819.508 1518.27 Q822.587 1522.85 822.587 1531.6 Q822.587 1540.33 819.508 1544.94 Q816.453 1549.52 810.643 1549.52 Q804.832 1549.52 801.754 1544.94 Q798.698 1540.33 798.698 1531.6 Q798.698 1522.85 801.754 1518.27 Q804.832 1513.66 810.643 1513.66 Z" fill="#000000" fill-rule="nonzero" fill-opacity="1" /><path clip-path="url(#clip010)" d="M1229.12 1544.91 L1236.76 1544.91 L1236.76 1518.55 L1228.45 1520.21 L1228.45 1515.95 L1236.71 1514.29 L1241.39 1514.29 L1241.39 1544.91 L1249.03 1544.91 L1249.03 1548.85 L1229.12 1548.85 L1229.12 1544.91 Z" fill="#000000" fill-rule="nonzero" fill-opacity="1" /><path clip-path="url(#clip010)" d="M1268.47 1517.37 Q1264.86 1517.37 1263.03 1520.93 Q1261.23 1524.47 1261.23 1531.6 Q1261.23 1538.71 1263.03 1542.27 Q1264.86 1545.82 1268.47 1545.82 Q1272.11 1545.82 1273.91 1542.27 Q1275.74 1538.71 1275.74 1531.6 Q1275.74 1524.47 1273.91 1520.93 Q1272.11 1517.37 1268.47 1517.37 M1268.47 1513.66 Q1274.28 1513.66 1277.34 1518.27 Q1280.42 1522.85 1280.42 1531.6 Q1280.42 1540.33 1277.34 1544.94 Q1274.28 1549.52 1268.47 1549.52 Q1262.66 1549.52 1259.58 1544.94 Q1256.53 1540.33 1256.53 1531.6 Q1256.53 1522.85 1259.58 1518.27 Q1262.66 1513.66 1268.47 1513.66 Z" fill="#000000" fill-rule="nonzero" fill-opacity="1" /><path clip-path="url(#clip010)" d="M1298.64 1517.37 Q1295.02 1517.37 1293.2 1520.93 Q1291.39 1524.47 1291.39 1531.6 Q1291.39 1538.71 1293.2 1542.27 Q1295.02 1545.82 1298.64 1545.82 Q1302.27 1545.82 1304.07 1542.27 Q1305.9 1538.71 1305.9 1531.6 Q1305.9 1524.47 1304.07 1520.93 Q1302.27 1517.37 1298.64 1517.37 M1298.64 1513.66 Q1304.45 1513.66 1307.5 1518.27 Q1310.58 1522.85 1310.58 1531.6 Q1310.58 1540.33 1307.5 1544.94 Q1304.45 1549.52 1298.64 1549.52 Q1292.83 1549.52 1289.75 1544.94 Q1286.69 1540.33 1286.69 1531.6 Q1286.69 1522.85 1289.75 1518.27 Q1292.83 1513.66 1298.64 1513.66 Z" fill="#000000" fill-rule="nonzero" fill-opacity="1" /><path clip-path="url(#clip010)" d="M1328.8 1517.37 Q1325.19 1517.37 1323.36 1520.93 Q1321.55 1524.47 1321.55 1531.6 Q1321.55 1538.71 1323.36 1542.27 Q1325.19 1545.82 1328.8 1545.82 Q1332.43 1545.82 1334.24 1542.27 Q1336.07 1538.71 1336.07 1531.6 Q1336.07 1524.47 1334.24 1520.93 Q1332.43 1517.37 1328.8 1517.37 M1328.8 1513.66 Q1334.61 1513.66 1337.66 1518.27 Q1340.74 1522.85 1340.74 1531.6 Q1340.74 1540.33 1337.66 1544.94 Q1334.61 1549.52 1328.8 1549.52 Q1322.99 1549.52 1319.91 1544.94 Q1316.85 1540.33 1316.85 1531.6 Q1316.85 1522.85 1319.91 1518.27 Q1322.99 1513.66 1328.8 1513.66 Z" fill="#000000" fill-rule="nonzero" fill-opacity="1" /><path clip-path="url(#clip010)" d="M1732.97 1544.91 L1740.61 1544.91 L1740.61 1518.55 L1732.3 1520.21 L1732.3 1515.95 L1740.56 1514.29 L1745.24 1514.29 L1745.24 1544.91 L1752.88 1544.91 L1752.88 1548.85 L1732.97 1548.85 L1732.97 1544.91 Z" fill="#000000" fill-rule="nonzero" fill-opacity="1" /><path clip-path="url(#clip010)" d="M1762.37 1514.29 L1780.73 1514.29 L1780.73 1518.22 L1766.65 1518.22 L1766.65 1526.7 Q1767.67 1526.35 1768.69 1526.19 Q1769.71 1526 1770.73 1526 Q1776.51 1526 1779.89 1529.17 Q1783.27 1532.34 1783.27 1537.76 Q1783.27 1543.34 1779.8 1546.44 Q1776.33 1549.52 1770.01 1549.52 Q1767.83 1549.52 1765.56 1549.15 Q1763.32 1548.78 1760.91 1548.04 L1760.91 1543.34 Q1762.99 1544.47 1765.22 1545.03 Q1767.44 1545.58 1769.91 1545.58 Q1773.92 1545.58 1776.26 1543.48 Q1778.6 1541.37 1778.6 1537.76 Q1778.6 1534.15 1776.26 1532.04 Q1773.92 1529.94 1769.91 1529.94 Q1768.04 1529.94 1766.16 1530.35 Q1764.31 1530.77 1762.37 1531.65 L1762.37 1514.29 Z" fill="#000000" fill-rule="nonzero" fill-opacity="1" /><path clip-path="url(#clip010)" d="M1802.48 1517.37 Q1798.87 1517.37 1797.04 1520.93 Q1795.24 1524.47 1795.24 1531.6 Q1795.24 1538.71 1797.04 1542.27 Q1798.87 1545.82 1802.48 1545.82 Q1806.12 1545.82 1807.92 1542.27 Q1809.75 1538.71 1809.75 1531.6 Q1809.75 1524.47 1807.92 1520.93 Q1806.12 1517.37 1802.48 1517.37 M1802.48 1513.66 Q1808.29 1513.66 1811.35 1518.27 Q1814.43 1522.85 1814.43 1531.6 Q1814.43 1540.33 1811.35 1544.94 Q1808.29 1549.52 1802.48 1549.52 Q1796.67 1549.52 1793.6 1544.94 Q1790.54 1540.33 1790.54 1531.6 Q1790.54 1522.85 1793.6 1518.27 Q1796.67 1513.66 1802.48 1513.66 Z" fill="#000000" fill-rule="nonzero" fill-opacity="1" /><path clip-path="url(#clip010)" d="M1832.65 1517.37 Q1829.04 1517.37 1827.21 1520.93 Q1825.4 1524.47 1825.4 1531.6 Q1825.4 1538.71 1827.21 1542.27 Q1829.04 1545.82 1832.65 1545.82 Q1836.28 1545.82 1838.09 1542.27 Q1839.91 1538.71 1839.91 1531.6 Q1839.91 1524.47 1838.09 1520.93 Q1836.28 1517.37 1832.65 1517.37 M1832.65 1513.66 Q1838.46 1513.66 1841.51 1518.27 Q1844.59 1522.85 1844.59 1531.6 Q1844.59 1540.33 1841.51 1544.94 Q1838.46 1549.52 1832.65 1549.52 Q1826.84 1549.52 1823.76 1544.94 Q1820.7 1540.33 1820.7 1531.6 Q1820.7 1522.85 1823.76 1518.27 Q1826.84 1513.66 1832.65 1513.66 Z" fill="#000000" fill-rule="nonzero" fill-opacity="1" /><path clip-path="url(#clip010)" d="M2240.91 1544.91 L2257.22 1544.91 L2257.22 1548.85 L2235.28 1548.85 L2235.28 1544.91 Q2237.94 1542.16 2242.53 1537.53 Q2247.13 1532.88 2248.31 1531.53 Q2250.56 1529.01 2251.44 1527.27 Q2252.34 1525.51 2252.34 1523.82 Q2252.34 1521.07 2250.4 1519.33 Q2248.47 1517.6 2245.37 1517.6 Q2243.17 1517.6 2240.72 1518.36 Q2238.29 1519.13 2235.51 1520.68 L2235.51 1515.95 Q2238.34 1514.82 2240.79 1514.24 Q2243.24 1513.66 2245.28 1513.66 Q2250.65 1513.66 2253.85 1516.35 Q2257.04 1519.03 2257.04 1523.52 Q2257.04 1525.65 2256.23 1527.57 Q2255.44 1529.47 2253.34 1532.07 Q2252.76 1532.74 2249.66 1535.95 Q2246.55 1539.15 2240.91 1544.91 Z" fill="#000000" fill-rule="nonzero" fill-opacity="1" /><path clip-path="url(#clip010)" d="M2277.04 1517.37 Q2273.43 1517.37 2271.6 1520.93 Q2269.79 1524.47 2269.79 1531.6 Q2269.79 1538.71 2271.6 1542.27 Q2273.43 1545.82 2277.04 1545.82 Q2280.67 1545.82 2282.48 1542.27 Q2284.31 1538.71 2284.31 1531.6 Q2284.31 1524.47 2282.48 1520.93 Q2280.67 1517.37 2277.04 1517.37 M2277.04 1513.66 Q2282.85 1513.66 2285.91 1518.27 Q2288.98 1522.85 2288.98 1531.6 Q2288.98 1540.33 2285.91 1544.94 Q2282.85 1549.52 2277.04 1549.52 Q2271.23 1549.52 2268.15 1544.94 Q2265.1 1540.33 2265.1 1531.6 Q2265.1 1522.85 2268.15 1518.27 Q2271.23 1513.66 2277.04 1513.66 Z" fill="#000000" fill-rule="nonzero" fill-opacity="1" /><path clip-path="url(#clip010)" d="M2307.2 1517.37 Q2303.59 1517.37 2301.76 1520.93 Q2299.96 1524.47 2299.96 1531.6 Q2299.96 1538.71 2301.76 1542.27 Q2303.59 1545.82 2307.2 1545.82 Q2310.84 1545.82 2312.64 1542.27 Q2314.47 1538.71 2314.47 1531.6 Q2314.47 1524.47 2312.64 1520.93 Q2310.84 1517.37 2307.2 1517.37 M2307.2 1513.66 Q2313.01 1513.66 2316.07 1518.27 Q2319.15 1522.85 2319.15 1531.6 Q2319.15 1540.33 2316.07 1544.94 Q2313.01 1549.52 2307.2 1549.52 Q2301.39 1549.52 2298.31 1544.94 Q2295.26 1540.33 2295.26 1531.6 Q2295.26 1522.85 2298.31 1518.27 Q2301.39 1513.66 2307.2 1513.66 Z" fill="#000000" fill-rule="nonzero" fill-opacity="1" /><path clip-path="url(#clip010)" d="M2337.36 1517.37 Q2333.75 1517.37 2331.92 1520.93 Q2330.12 1524.47 2330.12 1531.6 Q2330.12 1538.71 2331.92 1542.27 Q2333.75 1545.82 2337.36 1545.82 Q2341 1545.82 2342.8 1542.27 Q2344.63 1538.71 2344.63 1531.6 Q2344.63 1524.47 2342.8 1520.93 Q2341 1517.37 2337.36 1517.37 M2337.36 1513.66 Q2343.17 1513.66 2346.23 1518.27 Q2349.31 1522.85 2349.31 1531.6 Q2349.31 1540.33 2346.23 1544.94 Q2343.17 1549.52 2337.36 1549.52 Q2331.55 1549.52 2328.47 1544.94 Q2325.42 1540.33 2325.42 1531.6 Q2325.42 1522.85 2328.47 1518.27 Q2331.55 1513.66 2337.36 1513.66 Z" fill="#000000" fill-rule="nonzero" fill-opacity="1" /><polyline clip-path="url(#clip012)" style="stroke:#000000; stroke-linecap:round; stroke-linejoin:round; stroke-width:2; stroke-opacity:0.1; fill:none" points="216.436,1385.35 2352.76,1385.35 "/>
<polyline clip-path="url(#clip012)" style="stroke:#000000; stroke-linecap:round; stroke-linejoin:round; stroke-width:2; stroke-opacity:0.1; fill:none" points="216.436,1192.83 2352.76,1192.83 "/>
<polyline clip-path="url(#clip012)" style="stroke:#000000; stroke-linecap:round; stroke-linejoin:round; stroke-width:2; stroke-opacity:0.1; fill:none" points="216.436,1000.3 2352.76,1000.3 "/>
<polyline clip-path="url(#clip012)" style="stroke:#000000; stroke-linecap:round; stroke-linejoin:round; stroke-width:2; stroke-opacity:0.1; fill:none" points="216.436,807.783 2352.76,807.783 "/>
<polyline clip-path="url(#clip012)" style="stroke:#000000; stroke-linecap:round; stroke-linejoin:round; stroke-width:2; stroke-opacity:0.1; fill:none" points="216.436,615.261 2352.76,615.261 "/>
<polyline clip-path="url(#clip012)" style="stroke:#000000; stroke-linecap:round; stroke-linejoin:round; stroke-width:2; stroke-opacity:0.1; fill:none" points="216.436,422.74 2352.76,422.74 "/>
<polyline clip-path="url(#clip012)" style="stroke:#000000; stroke-linecap:round; stroke-linejoin:round; stroke-width:2; stroke-opacity:0.1; fill:none" points="216.436,230.218 2352.76,230.218 "/>
<polyline clip-path="url(#clip010)" style="stroke:#000000; stroke-linecap:round; stroke-linejoin:round; stroke-width:4; stroke-opacity:1; fill:none" points="216.436,1486.45 216.436,47.2441 "/>
<polyline clip-path="url(#clip010)" style="stroke:#000000; stroke-linecap:round; stroke-linejoin:round; stroke-width:4; stroke-opacity:1; fill:none" points="216.436,1385.35 235.334,1385.35 "/>
<polyline clip-path="url(#clip010)" style="stroke:#000000; stroke-linecap:round; stroke-linejoin:round; stroke-width:4; stroke-opacity:1; fill:none" points="216.436,1192.83 235.334,1192.83 "/>
<polyline clip-path="url(#clip010)" style="stroke:#000000; stroke-linecap:round; stroke-linejoin:round; stroke-width:4; stroke-opacity:1; fill:none" points="216.436,1000.3 235.334,1000.3 "/>
<polyline clip-path="url(#clip010)" style="stroke:#000000; stroke-linecap:round; stroke-linejoin:round; stroke-width:4; stroke-opacity:1; fill:none" points="216.436,807.783 235.334,807.783 "/>
<polyline clip-path="url(#clip010)" style="stroke:#000000; stroke-linecap:round; stroke-linejoin:round; stroke-width:4; stroke-opacity:1; fill:none" points="216.436,615.261 235.334,615.261 "/>
<polyline clip-path="url(#clip010)" style="stroke:#000000; stroke-linecap:round; stroke-linejoin:round; stroke-width:4; stroke-opacity:1; fill:none" points="216.436,422.74 235.334,422.74 "/>
<polyline clip-path="url(#clip010)" style="stroke:#000000; stroke-linecap:round; stroke-linejoin:round; stroke-width:4; stroke-opacity:1; fill:none" points="216.436,230.218 235.334,230.218 "/>
<path clip-path="url(#clip010)" d="M63.9319 1371.15 Q60.3208 1371.15 58.4921 1374.71 Q56.6865 1378.25 56.6865 1385.38 Q56.6865 1392.49 58.4921 1396.05 Q60.3208 1399.6 63.9319 1399.6 Q67.5661 1399.6 69.3717 1396.05 Q71.2004 1392.49 71.2004 1385.38 Q71.2004 1378.25 69.3717 1374.71 Q67.5661 1371.15 63.9319 1371.15 M63.9319 1367.44 Q69.742 1367.44 72.7976 1372.05 Q75.8763 1376.63 75.8763 1385.38 Q75.8763 1394.11 72.7976 1398.72 Q69.742 1403.3 63.9319 1403.3 Q58.1217 1403.3 55.043 1398.72 Q51.9875 1394.11 51.9875 1385.38 Q51.9875 1376.63 55.043 1372.05 Q58.1217 1367.44 63.9319 1367.44 Z" fill="#000000" fill-rule="nonzero" fill-opacity="1" /><path clip-path="url(#clip010)" d="M84.0938 1396.75 L88.978 1396.75 L88.978 1402.63 L84.0938 1402.63 L84.0938 1396.75 Z" fill="#000000" fill-rule="nonzero" fill-opacity="1" /><path clip-path="url(#clip010)" d="M113.33 1383.99 Q116.686 1384.71 118.561 1386.98 Q120.459 1389.25 120.459 1392.58 Q120.459 1397.7 116.941 1400.5 Q113.422 1403.3 106.941 1403.3 Q104.765 1403.3 102.45 1402.86 Q100.159 1402.44 97.7048 1401.59 L97.7048 1397.07 Q99.6493 1398.21 101.964 1398.79 Q104.279 1399.36 106.802 1399.36 Q111.2 1399.36 113.492 1397.63 Q115.807 1395.89 115.807 1392.58 Q115.807 1389.53 113.654 1387.81 Q111.524 1386.08 107.705 1386.08 L103.677 1386.08 L103.677 1382.23 L107.89 1382.23 Q111.339 1382.23 113.168 1380.87 Q114.996 1379.48 114.996 1376.89 Q114.996 1374.23 113.098 1372.81 Q111.223 1371.38 107.705 1371.38 Q105.783 1371.38 103.584 1371.79 Q101.385 1372.21 98.7465 1373.09 L98.7465 1368.92 Q101.409 1368.18 103.723 1367.81 Q106.061 1367.44 108.121 1367.44 Q113.445 1367.44 116.547 1369.87 Q119.649 1372.28 119.649 1376.4 Q119.649 1379.27 118.006 1381.26 Q116.362 1383.23 113.33 1383.99 Z" fill="#000000" fill-rule="nonzero" fill-opacity="1" /><path clip-path="url(#clip010)" d="M128.144 1368.07 L150.367 1368.07 L150.367 1370.06 L137.82 1402.63 L132.936 1402.63 L144.742 1372 L128.144 1372 L128.144 1368.07 Z" fill="#000000" fill-rule="nonzero" fill-opacity="1" /><path clip-path="url(#clip010)" d="M159.533 1368.07 L177.89 1368.07 L177.89 1372 L163.816 1372 L163.816 1380.48 Q164.834 1380.13 165.853 1379.97 Q166.871 1379.78 167.89 1379.78 Q173.677 1379.78 177.056 1382.95 Q180.436 1386.12 180.436 1391.54 Q180.436 1397.12 176.964 1400.22 Q173.491 1403.3 167.172 1403.3 Q164.996 1403.3 162.728 1402.93 Q160.482 1402.56 158.075 1401.82 L158.075 1397.12 Q160.158 1398.25 162.38 1398.81 Q164.603 1399.36 167.079 1399.36 Q171.084 1399.36 173.422 1397.26 Q175.76 1395.15 175.76 1391.54 Q175.76 1387.93 173.422 1385.82 Q171.084 1383.72 167.079 1383.72 Q165.204 1383.72 163.329 1384.13 Q161.478 1384.55 159.533 1385.43 L159.533 1368.07 Z" fill="#000000" fill-rule="nonzero" fill-opacity="1" /><path clip-path="url(#clip010)" d="M62.9365 1178.62 Q59.3254 1178.62 57.4967 1182.19 Q55.6912 1185.73 55.6912 1192.86 Q55.6912 1199.97 57.4967 1203.53 Q59.3254 1207.07 62.9365 1207.07 Q66.5707 1207.07 68.3763 1203.53 Q70.205 1199.97 70.205 1192.86 Q70.205 1185.73 68.3763 1182.19 Q66.5707 1178.62 62.9365 1178.62 M62.9365 1174.92 Q68.7467 1174.92 71.8022 1179.53 Q74.8809 1184.11 74.8809 1192.86 Q74.8809 1201.59 71.8022 1206.19 Q68.7467 1210.78 62.9365 1210.78 Q57.1264 1210.78 54.0477 1206.19 Q50.9921 1201.59 50.9921 1192.86 Q50.9921 1184.11 54.0477 1179.53 Q57.1264 1174.92 62.9365 1174.92 Z" fill="#000000" fill-rule="nonzero" fill-opacity="1" /><path clip-path="url(#clip010)" d="M83.0984 1204.23 L87.9827 1204.23 L87.9827 1210.11 L83.0984 1210.11 L83.0984 1204.23 Z" fill="#000000" fill-rule="nonzero" fill-opacity="1" /><path clip-path="url(#clip010)" d="M111.015 1179.62 L99.2095 1198.07 L111.015 1198.07 L111.015 1179.62 M109.788 1175.55 L115.668 1175.55 L115.668 1198.07 L120.598 1198.07 L120.598 1201.96 L115.668 1201.96 L115.668 1210.11 L111.015 1210.11 L111.015 1201.96 L95.4132 1201.96 L95.4132 1197.44 L109.788 1175.55 Z" fill="#000000" fill-rule="nonzero" fill-opacity="1" /><path clip-path="url(#clip010)" d="M138.33 1178.62 Q134.719 1178.62 132.89 1182.19 Q131.084 1185.73 131.084 1192.86 Q131.084 1199.97 132.89 1203.53 Q134.719 1207.07 138.33 1207.07 Q141.964 1207.07 143.769 1203.53 Q145.598 1199.97 145.598 1192.86 Q145.598 1185.73 143.769 1182.19 Q141.964 1178.62 138.33 1178.62 M138.33 1174.92 Q144.14 1174.92 147.195 1179.53 Q150.274 1184.11 150.274 1192.86 Q150.274 1201.59 147.195 1206.19 Q144.14 1210.78 138.33 1210.78 Q132.519 1210.78 129.441 1206.19 Q126.385 1201.59 126.385 1192.86 Q126.385 1184.11 129.441 1179.53 Q132.519 1174.92 138.33 1174.92 Z" fill="#000000" fill-rule="nonzero" fill-opacity="1" /><path clip-path="url(#clip010)" d="M168.491 1178.62 Q164.88 1178.62 163.052 1182.19 Q161.246 1185.73 161.246 1192.86 Q161.246 1199.97 163.052 1203.53 Q164.88 1207.07 168.491 1207.07 Q172.126 1207.07 173.931 1203.53 Q175.76 1199.97 175.76 1192.86 Q175.76 1185.73 173.931 1182.19 Q172.126 1178.62 168.491 1178.62 M168.491 1174.92 Q174.302 1174.92 177.357 1179.53 Q180.436 1184.11 180.436 1192.86 Q180.436 1201.59 177.357 1206.19 Q174.302 1210.78 168.491 1210.78 Q162.681 1210.78 159.603 1206.19 Q156.547 1201.59 156.547 1192.86 Q156.547 1184.11 159.603 1179.53 Q162.681 1174.92 168.491 1174.92 Z" fill="#000000" fill-rule="nonzero" fill-opacity="1" /><path clip-path="url(#clip010)" d="M63.9319 986.103 Q60.3208 986.103 58.4921 989.668 Q56.6865 993.21 56.6865 1000.34 Q56.6865 1007.45 58.4921 1011.01 Q60.3208 1014.55 63.9319 1014.55 Q67.5661 1014.55 69.3717 1011.01 Q71.2004 1007.45 71.2004 1000.34 Q71.2004 993.21 69.3717 989.668 Q67.5661 986.103 63.9319 986.103 M63.9319 982.4 Q69.742 982.4 72.7976 987.006 Q75.8763 991.589 75.8763 1000.34 Q75.8763 1009.07 72.7976 1013.67 Q69.742 1018.26 63.9319 1018.26 Q58.1217 1018.26 55.043 1013.67 Q51.9875 1009.07 51.9875 1000.34 Q51.9875 991.589 55.043 987.006 Q58.1217 982.4 63.9319 982.4 Z" fill="#000000" fill-rule="nonzero" fill-opacity="1" /><path clip-path="url(#clip010)" d="M84.0938 1011.71 L88.978 1011.71 L88.978 1017.58 L84.0938 1017.58 L84.0938 1011.71 Z" fill="#000000" fill-rule="nonzero" fill-opacity="1" /><path clip-path="url(#clip010)" d="M112.01 987.099 L100.205 1005.55 L112.01 1005.55 L112.01 987.099 M110.783 983.025 L116.663 983.025 L116.663 1005.55 L121.594 1005.55 L121.594 1009.44 L116.663 1009.44 L116.663 1017.58 L112.01 1017.58 L112.01 1009.44 L96.4085 1009.44 L96.4085 1004.92 L110.783 983.025 Z" fill="#000000" fill-rule="nonzero" fill-opacity="1" /><path clip-path="url(#clip010)" d="M133.353 1013.65 L149.672 1013.65 L149.672 1017.58 L127.728 1017.58 L127.728 1013.65 Q130.39 1010.89 134.973 1006.27 Q139.58 1001.61 140.76 1000.27 Q143.006 997.747 143.885 996.011 Q144.788 994.251 144.788 992.562 Q144.788 989.807 142.843 988.071 Q140.922 986.335 137.82 986.335 Q135.621 986.335 133.168 987.099 Q130.737 987.863 127.959 989.413 L127.959 984.691 Q130.783 983.557 133.237 982.978 Q135.691 982.4 137.728 982.4 Q143.098 982.4 146.293 985.085 Q149.487 987.77 149.487 992.261 Q149.487 994.39 148.677 996.312 Q147.89 998.21 145.783 1000.8 Q145.205 1001.47 142.103 1004.69 Q139.001 1007.89 133.353 1013.65 Z" fill="#000000" fill-rule="nonzero" fill-opacity="1" /><path clip-path="url(#clip010)" d="M159.533 983.025 L177.89 983.025 L177.89 986.96 L163.816 986.96 L163.816 995.432 Q164.834 995.085 165.853 994.923 Q166.871 994.738 167.89 994.738 Q173.677 994.738 177.056 997.909 Q180.436 1001.08 180.436 1006.5 Q180.436 1012.08 176.964 1015.18 Q173.491 1018.26 167.172 1018.26 Q164.996 1018.26 162.728 1017.89 Q160.482 1017.52 158.075 1016.77 L158.075 1012.08 Q160.158 1013.21 162.38 1013.77 Q164.603 1014.32 167.079 1014.32 Q171.084 1014.32 173.422 1012.21 Q175.76 1010.11 175.76 1006.5 Q175.76 1002.89 173.422 1000.78 Q171.084 998.673 167.079 998.673 Q165.204 998.673 163.329 999.089 Q161.478 999.506 159.533 1000.39 L159.533 983.025 Z" fill="#000000" fill-rule="nonzero" fill-opacity="1" /><path clip-path="url(#clip010)" d="M62.9365 793.582 Q59.3254 793.582 57.4967 797.147 Q55.6912 800.688 55.6912 807.818 Q55.6912 814.924 57.4967 818.489 Q59.3254 822.031 62.9365 822.031 Q66.5707 822.031 68.3763 818.489 Q70.205 814.924 70.205 807.818 Q70.205 800.688 68.3763 797.147 Q66.5707 793.582 62.9365 793.582 M62.9365 789.878 Q68.7467 789.878 71.8022 794.484 Q74.8809 799.068 74.8809 807.818 Q74.8809 816.545 71.8022 821.151 Q68.7467 825.734 62.9365 825.734 Q57.1264 825.734 54.0477 821.151 Q50.9921 816.545 50.9921 807.818 Q50.9921 799.068 54.0477 794.484 Q57.1264 789.878 62.9365 789.878 Z" fill="#000000" fill-rule="nonzero" fill-opacity="1" /><path clip-path="url(#clip010)" d="M83.0984 819.183 L87.9827 819.183 L87.9827 825.063 L83.0984 825.063 L83.0984 819.183 Z" fill="#000000" fill-rule="nonzero" fill-opacity="1" /><path clip-path="url(#clip010)" d="M111.015 794.577 L99.2095 813.026 L111.015 813.026 L111.015 794.577 M109.788 790.503 L115.668 790.503 L115.668 813.026 L120.598 813.026 L120.598 816.915 L115.668 816.915 L115.668 825.063 L111.015 825.063 L111.015 816.915 L95.4132 816.915 L95.4132 812.401 L109.788 790.503 Z" fill="#000000" fill-rule="nonzero" fill-opacity="1" /><path clip-path="url(#clip010)" d="M128.376 790.503 L146.732 790.503 L146.732 794.438 L132.658 794.438 L132.658 802.91 Q133.677 802.563 134.695 802.401 Q135.714 802.216 136.732 802.216 Q142.519 802.216 145.899 805.387 Q149.279 808.558 149.279 813.975 Q149.279 819.554 145.806 822.656 Q142.334 825.734 136.015 825.734 Q133.839 825.734 131.57 825.364 Q129.325 824.994 126.918 824.253 L126.918 819.554 Q129.001 820.688 131.223 821.244 Q133.445 821.799 135.922 821.799 Q139.927 821.799 142.265 819.693 Q144.603 817.586 144.603 813.975 Q144.603 810.364 142.265 808.258 Q139.927 806.151 135.922 806.151 Q134.047 806.151 132.172 806.568 Q130.32 806.984 128.376 807.864 L128.376 790.503 Z" fill="#000000" fill-rule="nonzero" fill-opacity="1" /><path clip-path="url(#clip010)" d="M168.491 793.582 Q164.88 793.582 163.052 797.147 Q161.246 800.688 161.246 807.818 Q161.246 814.924 163.052 818.489 Q164.88 822.031 168.491 822.031 Q172.126 822.031 173.931 818.489 Q175.76 814.924 175.76 807.818 Q175.76 800.688 173.931 797.147 Q172.126 793.582 168.491 793.582 M168.491 789.878 Q174.302 789.878 177.357 794.484 Q180.436 799.068 180.436 807.818 Q180.436 816.545 177.357 821.151 Q174.302 825.734 168.491 825.734 Q162.681 825.734 159.603 821.151 Q156.547 816.545 156.547 807.818 Q156.547 799.068 159.603 794.484 Q162.681 789.878 168.491 789.878 Z" fill="#000000" fill-rule="nonzero" fill-opacity="1" /><path clip-path="url(#clip010)" d="M63.9319 601.06 Q60.3208 601.06 58.4921 604.625 Q56.6865 608.167 56.6865 615.296 Q56.6865 622.403 58.4921 625.967 Q60.3208 629.509 63.9319 629.509 Q67.5661 629.509 69.3717 625.967 Q71.2004 622.403 71.2004 615.296 Q71.2004 608.167 69.3717 604.625 Q67.5661 601.06 63.9319 601.06 M63.9319 597.356 Q69.742 597.356 72.7976 601.963 Q75.8763 606.546 75.8763 615.296 Q75.8763 624.023 72.7976 628.629 Q69.742 633.213 63.9319 633.213 Q58.1217 633.213 55.043 628.629 Q51.9875 624.023 51.9875 615.296 Q51.9875 606.546 55.043 601.963 Q58.1217 597.356 63.9319 597.356 Z" fill="#000000" fill-rule="nonzero" fill-opacity="1" /><path clip-path="url(#clip010)" d="M84.0938 626.662 L88.978 626.662 L88.978 632.541 L84.0938 632.541 L84.0938 626.662 Z" fill="#000000" fill-rule="nonzero" fill-opacity="1" /><path clip-path="url(#clip010)" d="M112.01 602.055 L100.205 620.504 L112.01 620.504 L112.01 602.055 M110.783 597.981 L116.663 597.981 L116.663 620.504 L121.594 620.504 L121.594 624.393 L116.663 624.393 L116.663 632.541 L112.01 632.541 L112.01 624.393 L96.4085 624.393 L96.4085 619.879 L110.783 597.981 Z" fill="#000000" fill-rule="nonzero" fill-opacity="1" /><path clip-path="url(#clip010)" d="M128.144 597.981 L150.367 597.981 L150.367 599.972 L137.82 632.541 L132.936 632.541 L144.742 601.917 L128.144 601.917 L128.144 597.981 Z" fill="#000000" fill-rule="nonzero" fill-opacity="1" /><path clip-path="url(#clip010)" d="M159.533 597.981 L177.89 597.981 L177.89 601.917 L163.816 601.917 L163.816 610.389 Q164.834 610.042 165.853 609.88 Q166.871 609.694 167.89 609.694 Q173.677 609.694 177.056 612.866 Q180.436 616.037 180.436 621.454 Q180.436 627.032 176.964 630.134 Q173.491 633.213 167.172 633.213 Q164.996 633.213 162.728 632.842 Q160.482 632.472 158.075 631.731 L158.075 627.032 Q160.158 628.166 162.38 628.722 Q164.603 629.278 167.079 629.278 Q171.084 629.278 173.422 627.171 Q175.76 625.065 175.76 621.454 Q175.76 617.842 173.422 615.736 Q171.084 613.629 167.079 613.629 Q165.204 613.629 163.329 614.046 Q161.478 614.463 159.533 615.342 L159.533 597.981 Z" fill="#000000" fill-rule="nonzero" fill-opacity="1" /><path clip-path="url(#clip010)" d="M62.9365 408.539 Q59.3254 408.539 57.4967 412.103 Q55.6912 415.645 55.6912 422.775 Q55.6912 429.881 57.4967 433.446 Q59.3254 436.987 62.9365 436.987 Q66.5707 436.987 68.3763 433.446 Q70.205 429.881 70.205 422.775 Q70.205 415.645 68.3763 412.103 Q66.5707 408.539 62.9365 408.539 M62.9365 404.835 Q68.7467 404.835 71.8022 409.441 Q74.8809 414.025 74.8809 422.775 Q74.8809 431.501 71.8022 436.108 Q68.7467 440.691 62.9365 440.691 Q57.1264 440.691 54.0477 436.108 Q50.9921 431.501 50.9921 422.775 Q50.9921 414.025 54.0477 409.441 Q57.1264 404.835 62.9365 404.835 Z" fill="#000000" fill-rule="nonzero" fill-opacity="1" /><path clip-path="url(#clip010)" d="M83.0984 434.14 L87.9827 434.14 L87.9827 440.02 L83.0984 440.02 L83.0984 434.14 Z" fill="#000000" fill-rule="nonzero" fill-opacity="1" /><path clip-path="url(#clip010)" d="M98.2141 405.46 L116.57 405.46 L116.57 409.395 L102.496 409.395 L102.496 417.867 Q103.515 417.52 104.534 417.358 Q105.552 417.173 106.571 417.173 Q112.358 417.173 115.737 420.344 Q119.117 423.515 119.117 428.932 Q119.117 434.511 115.645 437.612 Q112.172 440.691 105.853 440.691 Q103.677 440.691 101.409 440.321 Q99.1632 439.95 96.7558 439.21 L96.7558 434.511 Q98.8391 435.645 101.061 436.2 Q103.284 436.756 105.76 436.756 Q109.765 436.756 112.103 434.649 Q114.441 432.543 114.441 428.932 Q114.441 425.321 112.103 423.214 Q109.765 421.108 105.76 421.108 Q103.885 421.108 102.01 421.525 Q100.159 421.941 98.2141 422.821 L98.2141 405.46 Z" fill="#000000" fill-rule="nonzero" fill-opacity="1" /><path clip-path="url(#clip010)" d="M138.33 408.539 Q134.719 408.539 132.89 412.103 Q131.084 415.645 131.084 422.775 Q131.084 429.881 132.89 433.446 Q134.719 436.987 138.33 436.987 Q141.964 436.987 143.769 433.446 Q145.598 429.881 145.598 422.775 Q145.598 415.645 143.769 412.103 Q141.964 408.539 138.33 408.539 M138.33 404.835 Q144.14 404.835 147.195 409.441 Q150.274 414.025 150.274 422.775 Q150.274 431.501 147.195 436.108 Q144.14 440.691 138.33 440.691 Q132.519 440.691 129.441 436.108 Q126.385 431.501 126.385 422.775 Q126.385 414.025 129.441 409.441 Q132.519 404.835 138.33 404.835 Z" fill="#000000" fill-rule="nonzero" fill-opacity="1" /><path clip-path="url(#clip010)" d="M168.491 408.539 Q164.88 408.539 163.052 412.103 Q161.246 415.645 161.246 422.775 Q161.246 429.881 163.052 433.446 Q164.88 436.987 168.491 436.987 Q172.126 436.987 173.931 433.446 Q175.76 429.881 175.76 422.775 Q175.76 415.645 173.931 412.103 Q172.126 408.539 168.491 408.539 M168.491 404.835 Q174.302 404.835 177.357 409.441 Q180.436 414.025 180.436 422.775 Q180.436 431.501 177.357 436.108 Q174.302 440.691 168.491 440.691 Q162.681 440.691 159.603 436.108 Q156.547 431.501 156.547 422.775 Q156.547 414.025 159.603 409.441 Q162.681 404.835 168.491 404.835 Z" fill="#000000" fill-rule="nonzero" fill-opacity="1" /><path clip-path="url(#clip010)" d="M63.9319 216.017 Q60.3208 216.017 58.4921 219.582 Q56.6865 223.123 56.6865 230.253 Q56.6865 237.359 58.4921 240.924 Q60.3208 244.466 63.9319 244.466 Q67.5661 244.466 69.3717 240.924 Q71.2004 237.359 71.2004 230.253 Q71.2004 223.123 69.3717 219.582 Q67.5661 216.017 63.9319 216.017 M63.9319 212.313 Q69.742 212.313 72.7976 216.92 Q75.8763 221.503 75.8763 230.253 Q75.8763 238.98 72.7976 243.586 Q69.742 248.17 63.9319 248.17 Q58.1217 248.17 55.043 243.586 Q51.9875 238.98 51.9875 230.253 Q51.9875 221.503 55.043 216.92 Q58.1217 212.313 63.9319 212.313 Z" fill="#000000" fill-rule="nonzero" fill-opacity="1" /><path clip-path="url(#clip010)" d="M84.0938 241.619 L88.978 241.619 L88.978 247.498 L84.0938 247.498 L84.0938 241.619 Z" fill="#000000" fill-rule="nonzero" fill-opacity="1" /><path clip-path="url(#clip010)" d="M99.2095 212.938 L117.566 212.938 L117.566 216.873 L103.492 216.873 L103.492 225.346 Q104.51 224.998 105.529 224.836 Q106.547 224.651 107.566 224.651 Q113.353 224.651 116.733 227.822 Q120.112 230.994 120.112 236.41 Q120.112 241.989 116.64 245.091 Q113.168 248.17 106.848 248.17 Q104.672 248.17 102.404 247.799 Q100.159 247.429 97.7511 246.688 L97.7511 241.989 Q99.8345 243.123 102.057 243.679 Q104.279 244.234 106.756 244.234 Q110.76 244.234 113.098 242.128 Q115.436 240.021 115.436 236.41 Q115.436 232.799 113.098 230.693 Q110.76 228.586 106.756 228.586 Q104.881 228.586 103.006 229.003 Q101.154 229.42 99.2095 230.299 L99.2095 212.938 Z" fill="#000000" fill-rule="nonzero" fill-opacity="1" /><path clip-path="url(#clip010)" d="M133.353 243.563 L149.672 243.563 L149.672 247.498 L127.728 247.498 L127.728 243.563 Q130.39 240.808 134.973 236.179 Q139.58 231.526 140.76 230.183 Q143.006 227.66 143.885 225.924 Q144.788 224.165 144.788 222.475 Q144.788 219.721 142.843 217.984 Q140.922 216.248 137.82 216.248 Q135.621 216.248 133.168 217.012 Q130.737 217.776 127.959 219.327 L127.959 214.605 Q130.783 213.471 133.237 212.892 Q135.691 212.313 137.728 212.313 Q143.098 212.313 146.293 214.998 Q149.487 217.684 149.487 222.174 Q149.487 224.304 148.677 226.225 Q147.89 228.123 145.783 230.716 Q145.205 231.387 142.103 234.605 Q139.001 237.799 133.353 243.563 Z" fill="#000000" fill-rule="nonzero" fill-opacity="1" /><path clip-path="url(#clip010)" d="M159.533 212.938 L177.89 212.938 L177.89 216.873 L163.816 216.873 L163.816 225.346 Q164.834 224.998 165.853 224.836 Q166.871 224.651 167.89 224.651 Q173.677 224.651 177.056 227.822 Q180.436 230.994 180.436 236.41 Q180.436 241.989 176.964 245.091 Q173.491 248.17 167.172 248.17 Q164.996 248.17 162.728 247.799 Q160.482 247.429 158.075 246.688 L158.075 241.989 Q160.158 243.123 162.38 243.679 Q164.603 244.234 167.079 244.234 Q171.084 244.234 173.422 242.128 Q175.76 240.021 175.76 236.41 Q175.76 232.799 173.422 230.693 Q171.084 228.586 167.079 228.586 Q165.204 228.586 163.329 229.003 Q161.478 229.42 159.533 230.299 L159.533 212.938 Z" fill="#000000" fill-rule="nonzero" fill-opacity="1" /><polyline clip-path="url(#clip012)" style="stroke:#009af9; stroke-linecap:round; stroke-linejoin:round; stroke-width:4; stroke-opacity:1; fill:none" points="276.898,87.9763 277.905,99.4905 278.913,110.982 279.921,122.447 280.929,133.88 281.936,145.277 282.944,156.633 283.952,167.946 284.959,179.209 285.967,190.421 286.975,201.576 287.982,212.671 288.99,223.702 289.998,234.667 291.006,245.561 292.013,256.382 293.021,267.126 294.029,277.791 295.036,288.375 296.044,298.874 297.052,309.287 298.059,319.61 299.067,329.843 300.075,339.983 301.083,350.029 302.09,359.978 303.098,369.83 304.106,379.584 305.113,389.237 306.121,398.79 307.129,408.241 308.136,417.59 309.144,426.836 310.152,435.978 311.16,445.017 312.167,453.951 313.175,462.782 314.183,471.508 315.19,480.13 316.198,488.649 317.206,497.063 318.213,505.375 319.221,513.583 320.229,521.689 321.236,529.694 322.244,537.597 323.252,545.4 324.26,553.103 325.267,560.707 326.275,568.213 327.283,575.622 328.29,582.934 329.298,590.152 330.306,597.275 331.313,604.305 332.321,611.243 333.329,618.09 334.337,624.847 335.344,631.516 336.352,638.096 337.36,644.591 338.367,651 339.375,657.324 340.383,663.566 341.39,669.727 342.398,675.806 343.406,681.807 344.414,687.729 345.421,693.574 346.429,699.343 347.437,705.038 348.444,710.659 349.452,716.208 350.46,721.686 351.467,727.095 352.475,732.434 353.483,737.705 354.491,742.91 355.498,748.05 356.506,753.125 357.514,758.137 358.521,763.087 359.529,767.976 360.537,772.804 361.544,777.573 362.552,782.285 363.56,786.939 364.568,791.537 365.575,796.08 366.583,800.569 367.591,805.004 368.598,809.388 369.606,813.719 370.614,818.001 371.621,822.232 372.629,826.415 373.637,830.55 374.644,834.637 375.652,838.678 376.66,842.674 377.668,846.625 378.675,850.532 379.683,854.395 380.691,858.217 381.698,861.996 382.706,865.734 383.714,869.432 384.721,873.09 385.729,876.709 386.737,880.289 387.745,883.832 388.752,887.338 389.76,890.807 390.768,894.24 391.775,897.638 392.783,901.001 393.791,904.33 394.798,907.626 395.806,910.888 396.814,914.117 397.822,917.315 398.829,920.481 399.837,923.616 400.845,926.72 401.852,929.795 402.86,932.84 403.868,935.855 404.875,938.842 405.883,941.801 406.891,944.732 407.899,947.635 408.906,950.511 409.914,953.361 410.922,956.185 411.929,958.983 412.937,961.755 413.945,964.502 414.952,967.225 415.96,969.923 416.968,972.597 417.976,975.248 418.983,977.875 419.991,980.48 420.999,983.061 422.006,985.621 423.014,988.158 424.022,990.674 425.029,993.168 426.037,995.641 427.045,998.093 428.052,1000.52 429.06,1002.94 430.068,1005.33 431.076,1007.7 432.083,1010.05 433.091,1012.38 434.099,1014.7 435.106,1016.99 436.114,1019.27 437.122,1021.52 438.129,1023.76 439.137,1025.99 440.145,1028.19 441.153,1030.38 442.16,1032.55 443.168,1034.7 444.176,1036.83 445.183,1038.95 446.191,1041.06 447.199,1043.14 448.206,1045.21 449.214,1047.27 450.222,1049.31 451.23,1051.33 452.237,1053.34 453.245,1055.33 454.253,1057.31 455.26,1059.27 456.268,1061.22 457.276,1063.16 458.283,1065.08 459.291,1066.98 460.299,1068.87 461.307,1070.75 462.314,1072.61 463.322,1074.47 464.33,1076.3 465.337,1078.13 466.345,1079.94 467.353,1081.74 468.36,1083.52 469.368,1085.29 470.376,1087.05 471.384,1088.8 472.391,1090.53 473.399,1092.26 474.407,1093.97 475.414,1095.67 476.422,1097.35 477.43,1099.03 478.437,1100.69 479.445,1102.34 480.453,1103.98 481.46,1105.61 482.468,1107.23 483.476,1108.84 484.484,1110.43 485.491,1112.02 486.499,1113.59 487.507,1115.15 488.514,1116.71 489.522,1118.25 490.53,1119.78 491.537,1121.3 492.545,1122.82 493.553,1124.32 494.561,1125.81 495.568,1127.29 496.576,1128.76 497.584,1130.22 498.591,1131.68 499.599,1133.12 500.607,1134.55 501.614,1135.98 502.622,1137.39 503.63,1138.79 504.638,1140.19 505.645,1141.58 506.653,1142.96 507.661,1144.33 508.668,1145.69 509.676,1147.04 510.684,1148.38 511.691,1149.71 512.699,1151.04 513.707,1152.36 514.715,1153.67 515.722,1154.97 516.73,1156.26 517.738,1157.54 518.745,1158.82 519.753,1160.09 520.761,1161.35 521.768,1162.6 522.776,1163.84 523.784,1165.08 524.792,1166.31 525.799,1167.53 526.807,1168.74 527.815,1169.94 528.822,1171.14 529.83,1172.33 530.838,1173.52 531.845,1174.69 532.853,1175.86 533.861,1177.02 534.868,1178.18 535.876,1179.32 536.884,1180.46 537.892,1181.6 538.899,1182.72 539.907,1183.84 540.915,1184.96 541.922,1186.06 542.93,1187.16 543.938,1188.25 544.945,1189.34 545.953,1190.42 546.961,1191.49 547.969,1192.56 548.976,1193.62 549.984,1194.67 550.992,1195.72 551.999,1196.76 553.007,1197.79 554.015,1198.82 555.022,1199.84 556.03,1200.86 557.038,1201.87 558.046,1202.88 559.053,1203.87 560.061,1204.87 561.069,1205.85 562.076,1206.83 563.084,1207.81 564.092,1208.78 565.099,1209.74 566.107,1210.7 567.115,1211.65 568.123,1212.6 569.13,1213.54 570.138,1214.48 571.146,1215.41 572.153,1216.33 573.161,1217.25 574.169,1218.17 575.176,1219.08 576.184,1219.98 577.192,1220.88 578.2,1221.77 579.207,1222.66 580.215,1223.55 581.223,1224.42 582.23,1225.3 583.238,1226.17 584.246,1227.03 585.253,1227.89 586.261,1228.74 587.269,1229.59 588.276,1230.44 589.284,1231.28 590.292,1232.11 591.3,1232.94 592.307,1233.77 593.315,1234.59 594.323,1235.4 595.33,1236.21 596.338,1237.02 597.346,1237.82 598.353,1238.62 599.361,1239.42 600.369,1240.2 601.377,1240.99 602.384,1241.77 603.392,1242.55 604.4,1243.32 605.407,1244.09 606.415,1244.85 607.423,1245.61 608.43,1246.36 609.438,1247.12 610.446,1247.86 611.454,1248.61 612.461,1249.34 613.469,1250.08 614.477,1250.81 615.484,1251.54 616.492,1252.26 617.5,1252.98 618.507,1253.69 619.515,1254.41 620.523,1255.11 621.531,1255.82 622.538,1256.52 623.546,1257.21 624.554,1257.91 625.561,1258.59 626.569,1259.28 627.577,1259.96 628.584,1260.64 629.592,1261.31 630.6,1261.98 631.608,1262.65 632.615,1263.31 633.623,1263.97 634.631,1264.63 635.638,1265.28 636.646,1265.93 637.654,1266.58 638.661,1267.22 639.669,1267.86 640.677,1268.5 641.684,1269.13 642.692,1269.76 643.7,1270.39 644.708,1271.01 645.715,1271.63 646.723,1272.25 647.731,1272.86 648.738,1273.47 649.746,1274.08 650.754,1274.68 651.761,1275.29 652.769,1275.88 653.777,1276.48 654.785,1277.07 655.792,1277.66 656.8,1278.25 657.808,1278.83 658.815,1279.41 659.823,1279.99 660.831,1280.56 661.838,1281.13 662.846,1281.7 663.854,1282.27 664.862,1282.83 665.869,1283.39 666.877,1283.95 667.885,1284.5 668.892,1285.05 669.9,1285.6 670.908,1286.15 671.915,1286.69 672.923,1287.23 673.931,1287.77 674.939,1288.3 675.946,1288.84 676.954,1289.37 677.962,1289.89 678.969,1290.42 679.977,1290.94 680.985,1291.46 681.992,1291.98 683,1292.49 684.008,1293.01 685.016,1293.52 686.023,1294.02 687.031,1294.53 688.039,1295.03 689.046,1295.53 690.054,1296.03 691.062,1296.52 692.069,1297.02 693.077,1297.51 694.085,1297.99 695.092,1298.48 696.1,1298.96 697.108,1299.44 698.116,1299.92 699.123,1300.4 700.131,1300.87 701.139,1301.35 702.146,1301.82 703.154,1302.28 704.162,1302.75 705.169,1303.21 706.177,1303.67 707.185,1304.13 708.193,1304.59 709.2,1305.04 710.208,1305.5 711.216,1305.95 712.223,1306.39 713.231,1306.84 714.239,1307.28 715.246,1307.73 716.254,1308.17 717.262,1308.6 718.27,1309.04 719.277,1309.47 720.285,1309.91 721.293,1310.34 722.3,1310.76 723.308,1311.19 724.316,1311.61 725.323,1312.04 726.331,1312.46 727.339,1312.87 728.347,1313.29 729.354,1313.71 730.362,1314.12 731.37,1314.53 732.377,1314.94 733.385,1315.34 734.393,1315.75 735.4,1316.15 736.408,1316.55 737.416,1316.95 738.424,1317.35 739.431,1317.75 740.439,1318.14 741.447,1318.54 742.454,1318.93 743.462,1319.32 744.47,1319.7 745.477,1320.09 746.485,1320.47 747.493,1320.86 748.5,1321.24 749.508,1321.62 750.516,1321.99 751.524,1322.37 752.531,1322.74 753.539,1323.12 754.547,1323.49 755.554,1323.86 756.562,1324.22 757.57,1324.59 758.577,1324.95 759.585,1325.32 760.593,1325.68 761.601,1326.04 762.608,1326.4 763.616,1326.75 764.624,1327.11 765.631,1327.46 766.639,1327.81 767.647,1328.16 768.654,1328.51 769.662,1328.86 770.67,1329.21 771.678,1329.55 772.685,1329.89 773.693,1330.24 774.701,1330.58 775.708,1330.91 776.716,1331.25 777.724,1331.59 778.731,1331.92 779.739,1332.26 780.747,1332.59 781.755,1332.92 782.762,1333.25 783.77,1333.57 784.778,1333.9 785.785,1334.23 786.793,1334.55 787.801,1334.87 788.808,1335.19 789.816,1335.51 790.824,1335.83 791.832,1336.15 792.839,1336.46 793.847,1336.78 794.855,1337.09 795.862,1337.4 796.87,1337.71 797.878,1338.02 798.885,1338.33 799.893,1338.64 800.901,1338.94 801.908,1339.25 802.916,1339.55 803.924,1339.85 804.932,1340.15 805.939,1340.45 806.947,1340.75 807.955,1341.05 808.962,1341.34 809.97,1341.64 810.978,1341.93 811.985,1342.22 812.993,1342.51 814.001,1342.8 815.009,1343.09 816.016,1343.38 817.024,1343.67 818.032,1343.95 819.039,1344.24 820.047,1344.52 821.055,1344.8 822.062,1345.08 823.07,1345.36 824.078,1345.64 825.086,1345.92 826.093,1346.19 827.101,1346.47 828.109,1346.74 829.116,1347.02 830.124,1347.29 831.132,1347.56 832.139,1347.83 833.147,1348.1 834.155,1348.37 835.163,1348.63 836.17,1348.9 837.178,1349.17 838.186,1349.43 839.193,1349.69 840.201,1349.95 841.209,1350.22 842.216,1350.48 843.224,1350.73 844.232,1350.99 845.24,1351.25 846.247,1351.51 847.255,1351.76 848.263,1352.01 849.27,1352.27 850.278,1352.52 851.286,1352.77 852.293,1353.02 853.301,1353.27 854.309,1353.52 855.316,1353.77 856.324,1354.01 857.332,1354.26 858.34,1354.5 859.347,1354.75 860.355,1354.99 861.363,1355.23 862.37,1355.47 863.378,1355.71 864.386,1355.95 865.393,1356.19 866.401,1356.43 867.409,1356.66 868.417,1356.9 869.424,1357.14 870.432,1357.37 871.44,1357.6 872.447,1357.83 873.455,1358.07 874.463,1358.3 875.47,1358.53 876.478,1358.76 877.486,1358.98 878.494,1359.21 879.501,1359.44 880.509,1359.66 881.517,1359.89 882.524,1360.11 883.532,1360.34 884.54,1360.56 885.547,1360.78 886.555,1361 887.563,1361.22 888.571,1361.44 889.578,1361.66 890.586,1361.88 891.594,1362.09 892.601,1362.31 893.609,1362.53 894.617,1362.74 895.624,1362.95 896.632,1363.17 897.64,1363.38 898.648,1363.59 899.655,1363.8 900.663,1364.01 901.671,1364.22 902.678,1364.43 903.686,1364.64 904.694,1364.85 905.701,1365.05 906.709,1365.26 907.717,1365.46 908.724,1365.67 909.732,1365.87 910.74,1366.07 911.748,1366.28 912.755,1366.48 913.763,1366.68 914.771,1366.88 915.778,1367.08 916.786,1367.28 917.794,1367.48 918.801,1367.67 919.809,1367.87 920.817,1368.07 921.825,1368.26 922.832,1368.46 923.84,1368.65 924.848,1368.84 925.855,1369.04 926.863,1369.23 927.871,1369.42 928.878,1369.61 929.886,1369.8 930.894,1369.99 931.902,1370.18 932.909,1370.37 933.917,1370.56 934.925,1370.74 935.932,1370.93 936.94,1371.12 937.948,1371.3 938.955,1371.49 939.963,1371.67 940.971,1371.85 941.979,1372.04 942.986,1372.22 943.994,1372.4 945.002,1372.58 946.009,1372.76 947.017,1372.94 948.025,1373.12 949.032,1373.3 950.04,1373.48 951.048,1373.65 952.056,1373.83 953.063,1374.01 954.071,1374.18 955.079,1374.36 956.086,1374.53 957.094,1374.71 958.102,1374.88 959.109,1375.05 960.117,1375.22 961.125,1375.4 962.132,1375.57 963.14,1375.74 964.148,1375.91 965.156,1376.08 966.163,1376.25 967.171,1376.42 968.179,1376.58 969.186,1376.75 970.194,1376.92 971.202,1377.08 972.209,1377.25 973.217,1377.42 974.225,1377.58 975.233,1377.74 976.24,1377.91 977.248,1378.07 978.256,1378.23 979.263,1378.4 980.271,1378.56 981.279,1378.72 982.286,1378.88 983.294,1379.04 984.302,1379.2 985.31,1379.36 986.317,1379.52 987.325,1379.68 988.333,1379.83 989.34,1379.99 990.348,1380.15 991.356,1380.3 992.363,1380.46 993.371,1380.61 994.379,1380.77 995.387,1380.92 996.394,1381.08 997.402,1381.23 998.41,1381.38 999.417,1381.54 1000.43,1381.69 1001.43,1381.84 1002.44,1381.99 1003.45,1382.14 1004.46,1382.29 1005.46,1382.44 1006.47,1382.59 1007.48,1382.74 1008.49,1382.89 1009.49,1383.03 1010.5,1383.18 1011.51,1383.33 1012.52,1383.47 1013.53,1383.62 1014.53,1383.77 1015.54,1383.91 1016.55,1384.06 1017.56,1384.2 1018.56,1384.34 1019.57,1384.49 1020.58,1384.63 1021.59,1384.77 1022.59,1384.92 1023.6,1385.06 1024.61,1385.2 1025.62,1385.34 1026.63,1385.48 1027.63,1385.62 1028.64,1385.76 1029.65,1385.9 1030.66,1386.04 1031.66,1386.18 1032.67,1386.31 1033.68,1386.45 1034.69,1386.59 1035.69,1386.73 1036.7,1386.86 1037.71,1387 1038.72,1387.13 1039.73,1387.27 1040.73,1387.4 1041.74,1387.54 1042.75,1387.67 1043.76,1387.81 1044.76,1387.94 1045.77,1388.07 1046.78,1388.2 1047.79,1388.34 1048.79,1388.47 1049.8,1388.6 1050.81,1388.73 1051.82,1388.86 1052.83,1388.99 1053.83,1389.12 1054.84,1389.25 1055.85,1389.38 1056.86,1389.51 1057.86,1389.64 1058.87,1389.77 1059.88,1389.89 1060.89,1390.02 1061.89,1390.15 1062.9,1390.27 1063.91,1390.4 1064.92,1390.53 1065.93,1390.65 1066.93,1390.78 1067.94,1390.9 1068.95,1391.03 1069.96,1391.15 1070.96,1391.27 1071.97,1391.4 1072.98,1391.52 1073.99,1391.64 1074.99,1391.77 1076,1391.89 1077.01,1392.01 1078.02,1392.13 1079.03,1392.25 1080.03,1392.37 1081.04,1392.49 1082.05,1392.61 1083.06,1392.73 1084.06,1392.85 1085.07,1392.97 1086.08,1393.09 1087.09,1393.21 1088.09,1393.33 1089.1,1393.44 1090.11,1393.56 1091.12,1393.68 1092.13,1393.79 1093.13,1393.91 1094.14,1394.03 1095.15,1394.14 1096.16,1394.26 1097.16,1394.37 1098.17,1394.49 1099.18,1394.6 1100.19,1394.72 1101.19,1394.83 1102.2,1394.94 1103.21,1395.06 1104.22,1395.17 1105.23,1395.28 1106.23,1395.4 1107.24,1395.51 1108.25,1395.62 1109.26,1395.73 1110.26,1395.84 1111.27,1395.95 1112.28,1396.06 1113.29,1396.17 1114.29,1396.28 1115.3,1396.39 1116.31,1396.5 1117.32,1396.61 1118.33,1396.72 1119.33,1396.83 1120.34,1396.94 1121.35,1397.05 1122.36,1397.15 1123.36,1397.26 1124.37,1397.37 1125.38,1397.48 1126.39,1397.58 1127.39,1397.69 1128.4,1397.79 1129.41,1397.9 1130.42,1398.01 1131.43,1398.11 1132.43,1398.22 1133.44,1398.32 1134.45,1398.43 1135.46,1398.53 1136.46,1398.63 1137.47,1398.74 1138.48,1398.84 1139.49,1398.94 1140.5,1399.05 1141.5,1399.15 1142.51,1399.25 1143.52,1399.35 1144.53,1399.45 1145.53,1399.56 1146.54,1399.66 1147.55,1399.76 1148.56,1399.86 1149.56,1399.96 1150.57,1400.06 1151.58,1400.16 1152.59,1400.26 1153.6,1400.36 1154.6,1400.46 1155.61,1400.56 1156.62,1400.65 1157.63,1400.75 1158.63,1400.85 1159.64,1400.95 1160.65,1401.05 1161.66,1401.14 1162.66,1401.24 1163.67,1401.34 1164.68,1401.43 1165.69,1401.53 1166.7,1401.63 1167.7,1401.72 1168.71,1401.82 1169.72,1401.91 1170.73,1402.01 1171.73,1402.1 1172.74,1402.2 1173.75,1402.29 1174.76,1402.39 1175.76,1402.48 1176.77,1402.58 1177.78,1402.67 1178.79,1402.76 1179.8,1402.86 1180.8,1402.95 1181.81,1403.04 1182.82,1403.13 1183.83,1403.23 1184.83,1403.32 1185.84,1403.41 1186.85,1403.5 1187.86,1403.59 1188.86,1403.68 1189.87,1403.77 1190.88,1403.87 1191.89,1403.96 1192.9,1404.05 1193.9,1404.14 1194.91,1404.23 1195.92,1404.32 1196.93,1404.4 1197.93,1404.49 1198.94,1404.58 1199.95,1404.67 1200.96,1404.76 1201.96,1404.85 1202.97,1404.94 1203.98,1405.02 1204.99,1405.11 1206,1405.2 1207,1405.29 1208.01,1405.37 1209.02,1405.46 1210.03,1405.55 1211.03,1405.63 1212.04,1405.72 1213.05,1405.8 1214.06,1405.89 1215.06,1405.98 1216.07,1406.06 1217.08,1406.15 1218.09,1406.23 1219.1,1406.32 1220.1,1406.4 1221.11,1406.49 1222.12,1406.57 1223.13,1406.65 1224.13,1406.74 1225.14,1406.82 1226.15,1406.9 1227.16,1406.99 1228.16,1407.07 1229.17,1407.15 1230.18,1407.24 1231.19,1407.32 1232.2,1407.4 1233.2,1407.48 1234.21,1407.56 1235.22,1407.65 1236.23,1407.73 1237.23,1407.81 1238.24,1407.89 1239.25,1407.97 1240.26,1408.05 1241.26,1408.13 1242.27,1408.21 1243.28,1408.29 1244.29,1408.37 1245.3,1408.45 1246.3,1408.53 1247.31,1408.61 1248.32,1408.69 1249.33,1408.77 1250.33,1408.85 1251.34,1408.93 1252.35,1409 1253.36,1409.08 1254.36,1409.16 1255.37,1409.24 1256.38,1409.32 1257.39,1409.39 1258.4,1409.47 1259.4,1409.55 1260.41,1409.63 1261.42,1409.7 1262.43,1409.78 1263.43,1409.86 1264.44,1409.93 1265.45,1410.01 1266.46,1410.08 1267.47,1410.16 1268.47,1410.24 1269.48,1410.31 1270.49,1410.39 1271.5,1410.46 1272.5,1410.54 1273.51,1410.61 1274.52,1410.69 1275.53,1410.76 1276.53,1410.83 1277.54,1410.91 1278.55,1410.98 1279.56,1411.06 1280.57,1411.13 1281.57,1411.2 1282.58,1411.28 1283.59,1411.35 1284.6,1411.42 1285.6,1411.5 1286.61,1411.57 1287.62,1411.64 1288.63,1411.71 1289.63,1411.79 1290.64,1411.86 1291.65,1411.93 1292.66,1412 1293.67,1412.07 1294.67,1412.14 1295.68,1412.22 1296.69,1412.29 1297.7,1412.36 1298.7,1412.43 1299.71,1412.5 1300.72,1412.57 1301.73,1412.64 1302.73,1412.71 1303.74,1412.78 1304.75,1412.85 1305.76,1412.92 1306.77,1412.99 1307.77,1413.06 1308.78,1413.13 1309.79,1413.2 1310.8,1413.27 1311.8,1413.33 1312.81,1413.4 1313.82,1413.47 1314.83,1413.54 1315.83,1413.61 1316.84,1413.68 1317.85,1413.74 1318.86,1413.81 1319.87,1413.88 1320.87,1413.95 1321.88,1414.01 1322.89,1414.08 1323.9,1414.15 1324.9,1414.22 1325.91,1414.28 1326.92,1414.35 1327.93,1414.42 1328.93,1414.48 1329.94,1414.55 1330.95,1414.61 1331.96,1414.68 1332.97,1414.75 1333.97,1414.81 1334.98,1414.88 1335.99,1414.94 1337,1415.01 1338,1415.07 1339.01,1415.14 1340.02,1415.2 1341.03,1415.27 1342.03,1415.33 1343.04,1415.4 1344.05,1415.46 1345.06,1415.53 1346.07,1415.59 1347.07,1415.65 1348.08,1415.72 1349.09,1415.78 1350.1,1415.84 1351.1,1415.91 1352.11,1415.97 1353.12,1416.03 1354.13,1416.1 1355.13,1416.16 1356.14,1416.22 1357.15,1416.28 1358.16,1416.35 1359.17,1416.41 1360.17,1416.47 1361.18,1416.53 1362.19,1416.6 1363.2,1416.66 1364.2,1416.72 1365.21,1416.78 1366.22,1416.84 1367.23,1416.9 1368.23,1416.96 1369.24,1417.03 1370.25,1417.09 1371.26,1417.15 1372.27,1417.21 1373.27,1417.27 1374.28,1417.33 1375.29,1417.39 1376.3,1417.45 1377.3,1417.51 1378.31,1417.57 1379.32,1417.63 1380.33,1417.69 1381.33,1417.75 1382.34,1417.81 1383.35,1417.87 1384.36,1417.93 1385.37,1417.99 1386.37,1418.05 1387.38,1418.1 1388.39,1418.16 1389.4,1418.22 1390.4,1418.28 1391.41,1418.34 1392.42,1418.4 1393.43,1418.45 1394.43,1418.51 1395.44,1418.57 1396.45,1418.63 1397.46,1418.69 1398.47,1418.74 1399.47,1418.8 1400.48,1418.86 1401.49,1418.92 1402.5,1418.97 1403.5,1419.03 1404.51,1419.09 1405.52,1419.14 1406.53,1419.2 1407.54,1419.26 1408.54,1419.31 1409.55,1419.37 1410.56,1419.43 1411.57,1419.48 1412.57,1419.54 1413.58,1419.59 1414.59,1419.65 1415.6,1419.71 1416.6,1419.76 1417.61,1419.82 1418.62,1419.87 1419.63,1419.93 1420.64,1419.98 1421.64,1420.04 1422.65,1420.09 1423.66,1420.15 1424.67,1420.2 1425.67,1420.26 1426.68,1420.31 1427.69,1420.37 1428.7,1420.42 1429.7,1420.47 1430.71,1420.53 1431.72,1420.58 1432.73,1420.64 1433.74,1420.69 1434.74,1420.74 1435.75,1420.8 1436.76,1420.85 1437.77,1420.9 1438.77,1420.96 1439.78,1421.01 1440.79,1421.06 1441.8,1421.12 1442.8,1421.17 1443.81,1421.22 1444.82,1421.28 1445.83,1421.33 1446.84,1421.38 1447.84,1421.43 1448.85,1421.48 1449.86,1421.54 1450.87,1421.59 1451.87,1421.64 1452.88,1421.69 1453.89,1421.74 1454.9,1421.8 1455.9,1421.85 1456.91,1421.9 1457.92,1421.95 1458.93,1422 1459.94,1422.05 1460.94,1422.1 1461.95,1422.16 1462.96,1422.21 1463.97,1422.26 1464.97,1422.31 1465.98,1422.36 1466.99,1422.41 1468,1422.46 1469,1422.51 1470.01,1422.56 1471.02,1422.61 1472.03,1422.66 1473.04,1422.71 1474.04,1422.76 1475.05,1422.81 1476.06,1422.86 1477.07,1422.91 1478.07,1422.96 1479.08,1423.01 1480.09,1423.06 1481.1,1423.11 1482.1,1423.16 1483.11,1423.2 1484.12,1423.25 1485.13,1423.3 1486.14,1423.35 1487.14,1423.4 1488.15,1423.45 1489.16,1423.5 1490.17,1423.55 1491.17,1423.59 1492.18,1423.64 1493.19,1423.69 1494.2,1423.74 1495.2,1423.79 1496.21,1423.83 1497.22,1423.88 1498.23,1423.93 1499.24,1423.98 1500.24,1424.02 1501.25,1424.07 1502.26,1424.12 1503.27,1424.17 1504.27,1424.21 1505.28,1424.26 1506.29,1424.31 1507.3,1424.36 1508.3,1424.4 1509.31,1424.45 1510.32,1424.5 1511.33,1424.54 1512.34,1424.59 1513.34,1424.64 1514.35,1424.68 1515.36,1424.73 1516.37,1424.77 1517.37,1424.82 1518.38,1424.87 1519.39,1424.91 1520.4,1424.96 1521.4,1425 1522.41,1425.05 1523.42,1425.09 1524.43,1425.14 1525.44,1425.19 1526.44,1425.23 1527.45,1425.28 1528.46,1425.32 1529.47,1425.37 1530.47,1425.41 1531.48,1425.46 1532.49,1425.5 1533.5,1425.55 1534.51,1425.59 1535.51,1425.64 1536.52,1425.68 1537.53,1425.73 1538.54,1425.77 1539.54,1425.81 1540.55,1425.86 1541.56,1425.9 1542.57,1425.95 1543.57,1425.99 1544.58,1426.03 1545.59,1426.08 1546.6,1426.12 1547.61,1426.17 1548.61,1426.21 1549.62,1426.25 1550.63,1426.3 1551.64,1426.34 1552.64,1426.38 1553.65,1426.43 1554.66,1426.47 1555.67,1426.51 1556.67,1426.56 1557.68,1426.6 1558.69,1426.64 1559.7,1426.68 1560.71,1426.73 1561.71,1426.77 1562.72,1426.81 1563.73,1426.86 1564.74,1426.9 1565.74,1426.94 1566.75,1426.98 1567.76,1427.02 1568.77,1427.07 1569.77,1427.11 1570.78,1427.15 1571.79,1427.19 1572.8,1427.23 1573.81,1427.28 1574.81,1427.32 1575.82,1427.36 1576.83,1427.4 1577.84,1427.44 1578.84,1427.48 1579.85,1427.53 1580.86,1427.57 1581.87,1427.61 1582.87,1427.65 1583.88,1427.69 1584.89,1427.73 1585.9,1427.77 1586.91,1427.81 1587.91,1427.85 1588.92,1427.89 1589.93,1427.94 1590.94,1427.98 1591.94,1428.02 1592.95,1428.06 1593.96,1428.1 1594.97,1428.14 1595.97,1428.18 1596.98,1428.22 1597.99,1428.26 1599,1428.3 1600.01,1428.34 1601.01,1428.38 1602.02,1428.42 1603.03,1428.46 1604.04,1428.5 1605.04,1428.54 1606.05,1428.58 1607.06,1428.62 1608.07,1428.66 1609.07,1428.7 1610.08,1428.73 1611.09,1428.77 1612.1,1428.81 1613.11,1428.85 1614.11,1428.89 1615.12,1428.93 1616.13,1428.97 1617.14,1429.01 1618.14,1429.05 1619.15,1429.09 1620.16,1429.12 1621.17,1429.16 1622.17,1429.2 1623.18,1429.24 1624.19,1429.28 1625.2,1429.32 1626.21,1429.36 1627.21,1429.39 1628.22,1429.43 1629.23,1429.47 1630.24,1429.51 1631.24,1429.55 1632.25,1429.58 1633.26,1429.62 1634.27,1429.66 1635.27,1429.7 1636.28,1429.74 1637.29,1429.77 1638.3,1429.81 1639.31,1429.85 1640.31,1429.89 1641.32,1429.92 1642.33,1429.96 1643.34,1430 1644.34,1430.03 1645.35,1430.07 1646.36,1430.11 1647.37,1430.15 1648.37,1430.18 1649.38,1430.22 1650.39,1430.26 1651.4,1430.29 1652.41,1430.33 1653.41,1430.37 1654.42,1430.4 1655.43,1430.44 1656.44,1430.48 1657.44,1430.51 1658.45,1430.55 1659.46,1430.59 1660.47,1430.62 1661.47,1430.66 1662.48,1430.69 1663.49,1430.73 1664.5,1430.77 1665.51,1430.8 1666.51,1430.84 1667.52,1430.87 1668.53,1430.91 1669.54,1430.95 1670.54,1430.98 1671.55,1431.02 1672.56,1431.05 1673.57,1431.09 1674.58,1431.12 1675.58,1431.16 1676.59,1431.19 1677.6,1431.23 1678.61,1431.26 1679.61,1431.3 1680.62,1431.33 1681.63,1431.37 1682.64,1431.4 1683.64,1431.44 1684.65,1431.47 1685.66,1431.51 1686.67,1431.54 1687.68,1431.58 1688.68,1431.61 1689.69,1431.65 1690.7,1431.68 1691.71,1431.72 1692.71,1431.75 1693.72,1431.79 1694.73,1431.82 1695.74,1431.85 1696.74,1431.89 1697.75,1431.92 1698.76,1431.96 1699.77,1431.99 1700.78,1432.03 1701.78,1432.06 1702.79,1432.09 1703.8,1432.13 1704.81,1432.16 1705.81,1432.2 1706.82,1432.23 1707.83,1432.26 1708.84,1432.3 1709.84,1432.33 1710.85,1432.36 1711.86,1432.4 1712.87,1432.43 1713.88,1432.46 1714.88,1432.5 1715.89,1432.53 1716.9,1432.56 1717.91,1432.6 1718.91,1432.63 1719.92,1432.66 1720.93,1432.7 1721.94,1432.73 1722.94,1432.76 1723.95,1432.79 1724.96,1432.83 1725.97,1432.86 1726.98,1432.89 1727.98,1432.93 1728.99,1432.96 1730,1432.99 1731.01,1433.02 1732.01,1433.06 1733.02,1433.09 1734.03,1433.12 1735.04,1433.15 1736.04,1433.18 1737.05,1433.22 1738.06,1433.25 1739.07,1433.28 1740.08,1433.31 1741.08,1433.35 1742.09,1433.38 1743.1,1433.41 1744.11,1433.44 1745.11,1433.47 1746.12,1433.5 1747.13,1433.54 1748.14,1433.57 1749.14,1433.6 1750.15,1433.63 1751.16,1433.66 1752.17,1433.69 1753.18,1433.73 1754.18,1433.76 1755.19,1433.79 1756.2,1433.82 1757.21,1433.85 1758.21,1433.88 1759.22,1433.91 1760.23,1433.94 1761.24,1433.98 1762.24,1434.01 1763.25,1434.04 1764.26,1434.07 1765.27,1434.1 1766.28,1434.13 1767.28,1434.16 1768.29,1434.19 1769.3,1434.22 1770.31,1434.25 1771.31,1434.28 1772.32,1434.31 1773.33,1434.34 1774.34,1434.38 1775.34,1434.41 1776.35,1434.44 1777.36,1434.47 1778.37,1434.5 1779.38,1434.53 1780.38,1434.56 1781.39,1434.59 1782.4,1434.62 1783.41,1434.65 1784.41,1434.68 1785.42,1434.71 1786.43,1434.74 1787.44,1434.77 1788.44,1434.8 1789.45,1434.83 1790.46,1434.86 1791.47,1434.89 1792.48,1434.92 1793.48,1434.95 1794.49,1434.98 1795.5,1435.01 1796.51,1435.03 1797.51,1435.06 1798.52,1435.09 1799.53,1435.12 1800.54,1435.15 1801.55,1435.18 1802.55,1435.21 1803.56,1435.24 1804.57,1435.27 1805.58,1435.3 1806.58,1435.33 1807.59,1435.36 1808.6,1435.39 1809.61,1435.41 1810.61,1435.44 1811.62,1435.47 1812.63,1435.5 1813.64,1435.53 1814.65,1435.56 1815.65,1435.59 1816.66,1435.62 1817.67,1435.64 1818.68,1435.67 1819.68,1435.7 1820.69,1435.73 1821.7,1435.76 1822.71,1435.79 1823.71,1435.82 1824.72,1435.84 1825.73,1435.87 1826.74,1435.9 1827.75,1435.93 1828.75,1435.96 1829.76,1435.99 1830.77,1436.01 1831.78,1436.04 1832.78,1436.07 1833.79,1436.1 1834.8,1436.13 1835.81,1436.15 1836.81,1436.18 1837.82,1436.21 1838.83,1436.24 1839.84,1436.26 1840.85,1436.29 1841.85,1436.32 1842.86,1436.35 1843.87,1436.38 1844.88,1436.4 1845.88,1436.43 1846.89,1436.46 1847.9,1436.49 1848.91,1436.51 1849.91,1436.54 1850.92,1436.57 1851.93,1436.59 1852.94,1436.62 1853.95,1436.65 1854.95,1436.68 1855.96,1436.7 1856.97,1436.73 1857.98,1436.76 1858.98,1436.78 1859.99,1436.81 1861,1436.84 1862.01,1436.87 1863.01,1436.89 1864.02,1436.92 1865.03,1436.95 1866.04,1436.97 1867.05,1437 1868.05,1437.03 1869.06,1437.05 1870.07,1437.08 1871.08,1437.11 1872.08,1437.13 1873.09,1437.16 1874.1,1437.19 1875.11,1437.21 1876.11,1437.24 1877.12,1437.26 1878.13,1437.29 1879.14,1437.32 1880.15,1437.34 1881.15,1437.37 1882.16,1437.4 1883.17,1437.42 1884.18,1437.45 1885.18,1437.47 1886.19,1437.5 1887.2,1437.53 1888.21,1437.55 1889.21,1437.58 1890.22,1437.6 1891.23,1437.63 1892.24,1437.66 1893.25,1437.68 1894.25,1437.71 1895.26,1437.73 1896.27,1437.76 1897.28,1437.78 1898.28,1437.81 1899.29,1437.84 1900.3,1437.86 1901.31,1437.89 1902.31,1437.91 1903.32,1437.94 1904.33,1437.96 1905.34,1437.99 1906.35,1438.01 1907.35,1438.04 1908.36,1438.06 1909.37,1438.09 1910.38,1438.11 1911.38,1438.14 1912.39,1438.17 1913.4,1438.19 1914.41,1438.22 1915.41,1438.24 1916.42,1438.27 1917.43,1438.29 1918.44,1438.32 1919.45,1438.34 1920.45,1438.36 1921.46,1438.39 1922.47,1438.41 1923.48,1438.44 1924.48,1438.46 1925.49,1438.49 1926.5,1438.51 1927.51,1438.54 1928.51,1438.56 1929.52,1438.59 1930.53,1438.61 1931.54,1438.64 1932.55,1438.66 1933.55,1438.69 1934.56,1438.71 1935.57,1438.73 1936.58,1438.76 1937.58,1438.78 1938.59,1438.81 1939.6,1438.83 1940.61,1438.86 1941.62,1438.88 1942.62,1438.9 1943.63,1438.93 1944.64,1438.95 1945.65,1438.98 1946.65,1439 1947.66,1439.02 1948.67,1439.05 1949.68,1439.07 1950.68,1439.1 1951.69,1439.12 1952.7,1439.14 1953.71,1439.17 1954.72,1439.19 1955.72,1439.21 1956.73,1439.24 1957.74,1439.26 1958.75,1439.29 1959.75,1439.31 1960.76,1439.33 1961.77,1439.36 1962.78,1439.38 1963.78,1439.4 1964.79,1439.43 1965.8,1439.45 1966.81,1439.47 1967.82,1439.5 1968.82,1439.52 1969.83,1439.54 1970.84,1439.57 1971.85,1439.59 1972.85,1439.61 1973.86,1439.64 1974.87,1439.66 1975.88,1439.68 1976.88,1439.71 1977.89,1439.73 1978.9,1439.75 1979.91,1439.78 1980.92,1439.8 1981.92,1439.82 1982.93,1439.84 1983.94,1439.87 1984.95,1439.89 1985.95,1439.91 1986.96,1439.94 1987.97,1439.96 1988.98,1439.98 1989.98,1440 1990.99,1440.03 1992,1440.05 1993.01,1440.07 1994.02,1440.09 1995.02,1440.12 1996.03,1440.14 1997.04,1440.16 1998.05,1440.18 1999.05,1440.21 2000.06,1440.23 2001.07,1440.25 2002.08,1440.27 2003.08,1440.3 2004.09,1440.32 2005.1,1440.34 2006.11,1440.36 2007.12,1440.39 2008.12,1440.41 2009.13,1440.43 2010.14,1440.45 2011.15,1440.47 2012.15,1440.5 2013.16,1440.52 2014.17,1440.54 2015.18,1440.56 2016.18,1440.58 2017.19,1440.61 2018.2,1440.63 2019.21,1440.65 2020.22,1440.67 2021.22,1440.69 2022.23,1440.72 2023.24,1440.74 2024.25,1440.76 2025.25,1440.78 2026.26,1440.8 2027.27,1440.82 2028.28,1440.85 2029.28,1440.87 2030.29,1440.89 2031.3,1440.91 2032.31,1440.93 2033.32,1440.95 2034.32,1440.98 2035.33,1441 2036.34,1441.02 2037.35,1441.04 2038.35,1441.06 2039.36,1441.08 2040.37,1441.1 2041.38,1441.13 2042.38,1441.15 2043.39,1441.17 2044.4,1441.19 2045.41,1441.21 2046.42,1441.23 2047.42,1441.25 2048.43,1441.27 2049.44,1441.29 2050.45,1441.32 2051.45,1441.34 2052.46,1441.36 2053.47,1441.38 2054.48,1441.4 2055.48,1441.42 2056.49,1441.44 2057.5,1441.46 2058.51,1441.48 2059.52,1441.5 2060.52,1441.53 2061.53,1441.55 2062.54,1441.57 2063.55,1441.59 2064.55,1441.61 2065.56,1441.63 2066.57,1441.65 2067.58,1441.67 2068.59,1441.69 2069.59,1441.71 2070.6,1441.73 2071.61,1441.75 2072.62,1441.77 2073.62,1441.79 2074.63,1441.81 2075.64,1441.83 2076.65,1441.85 2077.65,1441.88 2078.66,1441.9 2079.67,1441.92 2080.68,1441.94 2081.69,1441.96 2082.69,1441.98 2083.7,1442 2084.71,1442.02 2085.72,1442.04 2086.72,1442.06 2087.73,1442.08 2088.74,1442.1 2089.75,1442.12 2090.75,1442.14 2091.76,1442.16 2092.77,1442.18 2093.78,1442.2 2094.79,1442.22 2095.79,1442.24 2096.8,1442.26 2097.81,1442.28 2098.82,1442.3 2099.82,1442.32 2100.83,1442.34 2101.84,1442.36 2102.85,1442.38 2103.85,1442.4 2104.86,1442.42 2105.87,1442.44 2106.88,1442.46 2107.89,1442.48 2108.89,1442.49 2109.9,1442.51 2110.91,1442.53 2111.92,1442.55 2112.92,1442.57 2113.93,1442.59 2114.94,1442.61 2115.95,1442.63 2116.95,1442.65 2117.96,1442.67 2118.97,1442.69 2119.98,1442.71 2120.99,1442.73 2121.99,1442.75 2123,1442.77 2124.01,1442.79 2125.02,1442.81 2126.02,1442.83 2127.03,1442.84 2128.04,1442.86 2129.05,1442.88 2130.05,1442.9 2131.06,1442.92 2132.07,1442.94 2133.08,1442.96 2134.09,1442.98 2135.09,1443 2136.1,1443.02 2137.11,1443.04 2138.12,1443.05 2139.12,1443.07 2140.13,1443.09 2141.14,1443.11 2142.15,1443.13 2143.15,1443.15 2144.16,1443.17 2145.17,1443.19 2146.18,1443.21 2147.19,1443.22 2148.19,1443.24 2149.2,1443.26 2150.21,1443.28 2151.22,1443.3 2152.22,1443.32 2153.23,1443.34 2154.24,1443.35 2155.25,1443.37 2156.25,1443.39 2157.26,1443.41 2158.27,1443.43 2159.28,1443.45 2160.29,1443.47 2161.29,1443.48 2162.3,1443.5 2163.31,1443.52 2164.32,1443.54 2165.32,1443.56 2166.33,1443.58 2167.34,1443.59 2168.35,1443.61 2169.35,1443.63 2170.36,1443.65 2171.37,1443.67 2172.38,1443.69 2173.39,1443.7 2174.39,1443.72 2175.4,1443.74 2176.41,1443.76 2177.42,1443.78 2178.42,1443.8 2179.43,1443.81 2180.44,1443.83 2181.45,1443.85 2182.45,1443.87 2183.46,1443.89 2184.47,1443.9 2185.48,1443.92 2186.49,1443.94 2187.49,1443.96 2188.5,1443.98 2189.51,1443.99 2190.52,1444.01 2191.52,1444.03 2192.53,1444.05 2193.54,1444.06 2194.55,1444.08 2195.55,1444.1 2196.56,1444.12 2197.57,1444.14 2198.58,1444.15 2199.59,1444.17 2200.59,1444.19 2201.6,1444.21 2202.61,1444.22 2203.62,1444.24 2204.62,1444.26 2205.63,1444.28 2206.64,1444.29 2207.65,1444.31 2208.66,1444.33 2209.66,1444.35 2210.67,1444.36 2211.68,1444.38 2212.69,1444.4 2213.69,1444.42 2214.7,1444.43 2215.71,1444.45 2216.72,1444.47 2217.72,1444.49 2218.73,1444.5 2219.74,1444.52 2220.75,1444.54 2221.76,1444.55 2222.76,1444.57 2223.77,1444.59 2224.78,1444.61 2225.79,1444.62 2226.79,1444.64 2227.8,1444.66 2228.81,1444.67 2229.82,1444.69 2230.82,1444.71 2231.83,1444.73 2232.84,1444.74 2233.85,1444.76 2234.86,1444.78 2235.86,1444.79 2236.87,1444.81 2237.88,1444.83 2238.89,1444.84 2239.89,1444.86 2240.9,1444.88 2241.91,1444.9 2242.92,1444.91 2243.92,1444.93 2244.93,1444.95 2245.94,1444.96 2246.95,1444.98 2247.96,1445 2248.96,1445.01 2249.97,1445.03 2250.98,1445.05 2251.99,1445.06 2252.99,1445.08 2254,1445.1 2255.01,1445.11 2256.02,1445.13 2257.02,1445.15 2258.03,1445.16 2259.04,1445.18 2260.05,1445.2 2261.06,1445.21 2262.06,1445.23 2263.07,1445.25 2264.08,1445.26 2265.09,1445.28 2266.09,1445.29 2267.1,1445.31 2268.11,1445.33 2269.12,1445.34 2270.12,1445.36 2271.13,1445.38 2272.14,1445.39 2273.15,1445.41 2274.16,1445.43 2275.16,1445.44 2276.17,1445.46 2277.18,1445.47 2278.19,1445.49 2279.19,1445.51 2280.2,1445.52 2281.21,1445.54 2282.22,1445.56 2283.22,1445.57 2284.23,1445.59 2285.24,1445.6 2286.25,1445.62 2287.26,1445.64 2288.26,1445.65 2289.27,1445.67 2290.28,1445.68 2291.29,1445.7 2292.29,1445.72 "/>
<path clip-path="url(#clip010)" d="M2015.48 198.898 L2281.55 198.898 L2281.55 95.2176 L2015.48 95.2176  Z" fill="#ffffff" fill-rule="evenodd" fill-opacity="1"/>
<polyline clip-path="url(#clip010)" style="stroke:#000000; stroke-linecap:round; stroke-linejoin:round; stroke-width:4; stroke-opacity:1; fill:none" points="2015.48,198.898 2281.55,198.898 2281.55,95.2176 2015.48,95.2176 2015.48,198.898 "/>
<polyline clip-path="url(#clip010)" style="stroke:#009af9; stroke-linecap:round; stroke-linejoin:round; stroke-width:4; stroke-opacity:1; fill:none" points="2039.22,147.058 2181.64,147.058 "/>
<path clip-path="url(#clip010)" d="M2219.22 166.745 Q2217.42 171.375 2215.7 172.787 Q2213.99 174.199 2211.12 174.199 L2207.72 174.199 L2207.72 170.634 L2210.22 170.634 Q2211.98 170.634 2212.95 169.8 Q2213.92 168.967 2215.1 165.865 L2215.86 163.921 L2205.38 138.412 L2209.89 138.412 L2217.99 158.689 L2226.1 138.412 L2230.61 138.412 L2219.22 166.745 Z" fill="#000000" fill-rule="nonzero" fill-opacity="1" /><path clip-path="url(#clip010)" d="M2237.9 160.402 L2245.54 160.402 L2245.54 134.037 L2237.23 135.703 L2237.23 131.444 L2245.49 129.778 L2250.17 129.778 L2250.17 160.402 L2257.81 160.402 L2257.81 164.338 L2237.9 164.338 L2237.9 160.402 Z" fill="#000000" fill-rule="nonzero" fill-opacity="1" /></svg>
