<?xml version="1.0" encoding="utf-8"?>
<svg xmlns="http://www.w3.org/2000/svg" xmlns:xlink="http://www.w3.org/1999/xlink" width="600" height="400" viewBox="0 0 2400 1600">
<defs>
  <clipPath id="clip730">
    <rect x="0" y="0" width="2400" height="1600"/>
  </clipPath>
</defs>
<path clip-path="url(#clip730)" d="M0 1600 L2400 1600 L2400 0 L0 0  Z" fill="#ffffff" fill-rule="evenodd" fill-opacity="1"/>
<defs>
  <clipPath id="clip731">
    <rect x="480" y="0" width="1681" height="1600"/>
  </clipPath>
</defs>
<path clip-path="url(#clip730)" d="M156.274 1486.45 L2352.76 1486.45 L2352.76 47.2441 L156.274 47.2441  Z" fill="#ffffff" fill-rule="evenodd" fill-opacity="1"/>
<defs>
  <clipPath id="clip732">
    <rect x="156" y="47" width="2197" height="1440"/>
  </clipPath>
</defs>
<polyline clip-path="url(#clip732)" style="stroke:#000000; stroke-linecap:round; stroke-linejoin:round; stroke-width:2; stroke-opacity:0.1; fill:none" points="218.439,1486.45 218.439,47.2441 "/>
<polyline clip-path="url(#clip732)" style="stroke:#000000; stroke-linecap:round; stroke-linejoin:round; stroke-width:2; stroke-opacity:0.1; fill:none" points="633.035,1486.45 633.035,47.2441 "/>
<polyline clip-path="url(#clip732)" style="stroke:#000000; stroke-linecap:round; stroke-linejoin:round; stroke-width:2; stroke-opacity:0.1; fill:none" points="1047.63,1486.45 1047.63,47.2441 "/>
<polyline clip-path="url(#clip732)" style="stroke:#000000; stroke-linecap:round; stroke-linejoin:round; stroke-width:2; stroke-opacity:0.1; fill:none" points="1462.23,1486.45 1462.23,47.2441 "/>
<polyline clip-path="url(#clip732)" style="stroke:#000000; stroke-linecap:round; stroke-linejoin:round; stroke-width:2; stroke-opacity:0.1; fill:none" points="1876.82,1486.45 1876.82,47.2441 "/>
<polyline clip-path="url(#clip732)" style="stroke:#000000; stroke-linecap:round; stroke-linejoin:round; stroke-width:2; stroke-opacity:0.1; fill:none" points="2291.42,1486.45 2291.42,47.2441 "/>
<polyline clip-path="url(#clip730)" style="stroke:#000000; stroke-linecap:round; stroke-linejoin:round; stroke-width:4; stroke-opacity:1; fill:none" points="156.274,1486.45 2352.76,1486.45 "/>
<polyline clip-path="url(#clip730)" style="stroke:#000000; stroke-linecap:round; stroke-linejoin:round; stroke-width:4; stroke-opacity:1; fill:none" points="218.439,1486.45 218.439,1467.55 "/>
<polyline clip-path="url(#clip730)" style="stroke:#000000; stroke-linecap:round; stroke-linejoin:round; stroke-width:4; stroke-opacity:1; fill:none" points="633.035,1486.45 633.035,1467.55 "/>
<polyline clip-path="url(#clip730)" style="stroke:#000000; stroke-linecap:round; stroke-linejoin:round; stroke-width:4; stroke-opacity:1; fill:none" points="1047.63,1486.45 1047.63,1467.55 "/>
<polyline clip-path="url(#clip730)" style="stroke:#000000; stroke-linecap:round; stroke-linejoin:round; stroke-width:4; stroke-opacity:1; fill:none" points="1462.23,1486.45 1462.23,1467.55 "/>
<polyline clip-path="url(#clip730)" style="stroke:#000000; stroke-linecap:round; stroke-linejoin:round; stroke-width:4; stroke-opacity:1; fill:none" points="1876.82,1486.45 1876.82,1467.55 "/>
<polyline clip-path="url(#clip730)" style="stroke:#000000; stroke-linecap:round; stroke-linejoin:round; stroke-width:4; stroke-opacity:1; fill:none" points="2291.42,1486.45 2291.42,1467.55 "/>
<path clip-path="url(#clip730)" d="M218.439 1517.37 Q214.828 1517.37 212.999 1520.93 Q211.193 1524.47 211.193 1531.6 Q211.193 1538.71 212.999 1542.27 Q214.828 1545.82 218.439 1545.82 Q222.073 1545.82 223.879 1542.27 Q225.707 1538.71 225.707 1531.6 Q225.707 1524.47 223.879 1520.93 Q222.073 1517.37 218.439 1517.37 M218.439 1513.66 Q224.249 1513.66 227.304 1518.27 Q230.383 1522.85 230.383 1531.6 Q230.383 1540.33 227.304 1544.94 Q224.249 1549.52 218.439 1549.52 Q212.629 1549.52 209.55 1544.94 Q206.494 1540.33 206.494 1531.6 Q206.494 1522.85 209.55 1518.27 Q212.629 1513.66 218.439 1513.66 Z" fill="#000000" fill-rule="nonzero" fill-opacity="1" /><path clip-path="url(#clip730)" d="M592.653 1514.29 L611.01 1514.29 L611.01 1518.22 L596.936 1518.22 L596.936 1526.7 Q597.954 1526.35 598.973 1526.19 Q599.991 1526 601.01 1526 Q606.797 1526 610.176 1529.17 Q613.556 1532.34 613.556 1537.76 Q613.556 1543.34 610.084 1546.44 Q606.612 1549.52 600.292 1549.52 Q598.116 1549.52 595.848 1549.15 Q593.602 1548.78 591.195 1548.04 L591.195 1543.34 Q593.278 1544.47 595.501 1545.03 Q597.723 1545.58 600.2 1545.58 Q604.204 1545.58 606.542 1543.48 Q608.88 1541.37 608.88 1537.76 Q608.88 1534.15 606.542 1532.04 Q604.204 1529.94 600.2 1529.94 Q598.325 1529.94 596.45 1530.35 Q594.598 1530.77 592.653 1531.65 L592.653 1514.29 Z" fill="#000000" fill-rule="nonzero" fill-opacity="1" /><path clip-path="url(#clip730)" d="M632.769 1517.37 Q629.158 1517.37 627.329 1520.93 Q625.524 1524.47 625.524 1531.6 Q625.524 1538.71 627.329 1542.27 Q629.158 1545.82 632.769 1545.82 Q636.403 1545.82 638.209 1542.27 Q640.037 1538.71 640.037 1531.6 Q640.037 1524.47 638.209 1520.93 Q636.403 1517.37 632.769 1517.37 M632.769 1513.66 Q638.579 1513.66 641.635 1518.27 Q644.713 1522.85 644.713 1531.6 Q644.713 1540.33 641.635 1544.94 Q638.579 1549.52 632.769 1549.52 Q626.959 1549.52 623.88 1544.94 Q620.825 1540.33 620.825 1531.6 Q620.825 1522.85 623.88 1518.27 Q626.959 1513.66 632.769 1513.66 Z" fill="#000000" fill-rule="nonzero" fill-opacity="1" /><path clip-path="url(#clip730)" d="M662.931 1517.37 Q659.32 1517.37 657.491 1520.93 Q655.685 1524.47 655.685 1531.6 Q655.685 1538.71 657.491 1542.27 Q659.32 1545.82 662.931 1545.82 Q666.565 1545.82 668.371 1542.27 Q670.199 1538.71 670.199 1531.6 Q670.199 1524.47 668.371 1520.93 Q666.565 1517.37 662.931 1517.37 M662.931 1513.66 Q668.741 1513.66 671.796 1518.27 Q674.875 1522.85 674.875 1531.6 Q674.875 1540.33 671.796 1544.94 Q668.741 1549.52 662.931 1549.52 Q657.121 1549.52 654.042 1544.94 Q650.986 1540.33 650.986 1531.6 Q650.986 1522.85 654.042 1518.27 Q657.121 1513.66 662.931 1513.66 Z" fill="#000000" fill-rule="nonzero" fill-opacity="1" /><path clip-path="url(#clip730)" d="M992.157 1544.91 L999.796 1544.91 L999.796 1518.55 L991.486 1520.21 L991.486 1515.95 L999.75 1514.29 L1004.43 1514.29 L1004.43 1544.91 L1012.06 1544.91 L1012.06 1548.85 L992.157 1548.85 L992.157 1544.91 Z" fill="#000000" fill-rule="nonzero" fill-opacity="1" /><path clip-path="url(#clip730)" d="M1031.51 1517.37 Q1027.9 1517.37 1026.07 1520.93 Q1024.26 1524.47 1024.26 1531.6 Q1024.26 1538.71 1026.07 1542.27 Q1027.9 1545.82 1031.51 1545.82 Q1035.14 1545.82 1036.95 1542.27 Q1038.78 1538.71 1038.78 1531.6 Q1038.78 1524.47 1036.95 1520.93 Q1035.14 1517.37 1031.51 1517.37 M1031.51 1513.66 Q1037.32 1513.66 1040.37 1518.27 Q1043.45 1522.85 1043.45 1531.6 Q1043.45 1540.33 1040.37 1544.94 Q1037.32 1549.52 1031.51 1549.52 Q1025.7 1549.52 1022.62 1544.94 Q1019.56 1540.33 1019.56 1531.6 Q1019.56 1522.85 1022.62 1518.27 Q1025.7 1513.66 1031.51 1513.66 Z" fill="#000000" fill-rule="nonzero" fill-opacity="1" /><path clip-path="url(#clip730)" d="M1061.67 1517.37 Q1058.06 1517.37 1056.23 1520.93 Q1054.43 1524.47 1054.43 1531.6 Q1054.43 1538.71 1056.23 1542.27 Q1058.06 1545.82 1061.67 1545.82 Q1065.3 1545.82 1067.11 1542.27 Q1068.94 1538.71 1068.94 1531.6 Q1068.94 1524.47 1067.11 1520.93 Q1065.3 1517.37 1061.67 1517.37 M1061.67 1513.66 Q1067.48 1513.66 1070.54 1518.27 Q1073.62 1522.85 1073.62 1531.6 Q1073.62 1540.33 1070.54 1544.94 Q1067.48 1549.52 1061.67 1549.52 Q1055.86 1549.52 1052.78 1544.94 Q1049.73 1540.33 1049.73 1531.6 Q1049.73 1522.85 1052.78 1518.27 Q1055.86 1513.66 1061.67 1513.66 Z" fill="#000000" fill-rule="nonzero" fill-opacity="1" /><path clip-path="url(#clip730)" d="M1091.83 1517.37 Q1088.22 1517.37 1086.39 1520.93 Q1084.59 1524.47 1084.59 1531.6 Q1084.59 1538.71 1086.39 1542.27 Q1088.22 1545.82 1091.83 1545.82 Q1095.47 1545.82 1097.27 1542.27 Q1099.1 1538.71 1099.1 1531.6 Q1099.1 1524.47 1097.27 1520.93 Q1095.47 1517.37 1091.83 1517.37 M1091.83 1513.66 Q1097.64 1513.66 1100.7 1518.27 Q1103.78 1522.85 1103.78 1531.6 Q1103.78 1540.33 1100.7 1544.94 Q1097.64 1549.52 1091.83 1549.52 Q1086.02 1549.52 1082.94 1544.94 Q1079.89 1540.33 1079.89 1531.6 Q1079.89 1522.85 1082.94 1518.27 Q1086.02 1513.66 1091.83 1513.66 Z" fill="#000000" fill-rule="nonzero" fill-opacity="1" /><path clip-path="url(#clip730)" d="M1406.75 1544.91 L1414.39 1544.91 L1414.39 1518.55 L1406.08 1520.21 L1406.08 1515.95 L1414.35 1514.29 L1419.02 1514.29 L1419.02 1544.91 L1426.66 1544.91 L1426.66 1548.85 L1406.75 1548.85 L1406.75 1544.91 Z" fill="#000000" fill-rule="nonzero" fill-opacity="1" /><path clip-path="url(#clip730)" d="M1436.15 1514.29 L1454.51 1514.29 L1454.51 1518.22 L1440.43 1518.22 L1440.43 1526.7 Q1441.45 1526.35 1442.47 1526.19 Q1443.49 1526 1444.51 1526 Q1450.3 1526 1453.67 1529.17 Q1457.05 1532.34 1457.05 1537.76 Q1457.05 1543.34 1453.58 1546.44 Q1450.11 1549.52 1443.79 1549.52 Q1441.61 1549.52 1439.35 1549.15 Q1437.1 1548.78 1434.69 1548.04 L1434.69 1543.34 Q1436.78 1544.47 1439 1545.03 Q1441.22 1545.58 1443.7 1545.58 Q1447.7 1545.58 1450.04 1543.48 Q1452.38 1541.37 1452.38 1537.76 Q1452.38 1534.15 1450.04 1532.04 Q1447.7 1529.94 1443.7 1529.94 Q1441.82 1529.94 1439.95 1530.35 Q1438.1 1530.77 1436.15 1531.65 L1436.15 1514.29 Z" fill="#000000" fill-rule="nonzero" fill-opacity="1" /><path clip-path="url(#clip730)" d="M1476.27 1517.37 Q1472.66 1517.37 1470.83 1520.93 Q1469.02 1524.47 1469.02 1531.6 Q1469.02 1538.71 1470.83 1542.27 Q1472.66 1545.82 1476.27 1545.82 Q1479.9 1545.82 1481.71 1542.27 Q1483.54 1538.71 1483.54 1531.6 Q1483.54 1524.47 1481.71 1520.93 Q1479.9 1517.37 1476.27 1517.37 M1476.27 1513.66 Q1482.08 1513.66 1485.13 1518.27 Q1488.21 1522.85 1488.21 1531.6 Q1488.21 1540.33 1485.13 1544.94 Q1482.08 1549.52 1476.27 1549.52 Q1470.46 1549.52 1467.38 1544.94 Q1464.32 1540.33 1464.32 1531.6 Q1464.32 1522.85 1467.38 1518.27 Q1470.46 1513.66 1476.27 1513.66 Z" fill="#000000" fill-rule="nonzero" fill-opacity="1" /><path clip-path="url(#clip730)" d="M1506.43 1517.37 Q1502.82 1517.37 1500.99 1520.93 Q1499.18 1524.47 1499.18 1531.6 Q1499.18 1538.71 1500.99 1542.27 Q1502.82 1545.82 1506.43 1545.82 Q1510.06 1545.82 1511.87 1542.27 Q1513.7 1538.71 1513.7 1531.6 Q1513.7 1524.47 1511.87 1520.93 Q1510.06 1517.37 1506.43 1517.37 M1506.43 1513.66 Q1512.24 1513.66 1515.29 1518.27 Q1518.37 1522.85 1518.37 1531.6 Q1518.37 1540.33 1515.29 1544.94 Q1512.24 1549.52 1506.43 1549.52 Q1500.62 1549.52 1497.54 1544.94 Q1494.48 1540.33 1494.48 1531.6 Q1494.48 1522.85 1497.54 1518.27 Q1500.62 1513.66 1506.43 1513.66 Z" fill="#000000" fill-rule="nonzero" fill-opacity="1" /><path clip-path="url(#clip730)" d="M1825.44 1544.91 L1841.75 1544.91 L1841.75 1548.85 L1819.81 1548.85 L1819.81 1544.91 Q1822.47 1542.16 1827.06 1537.53 Q1831.66 1532.88 1832.84 1531.53 Q1835.09 1529.01 1835.97 1527.27 Q1836.87 1525.51 1836.87 1523.82 Q1836.87 1521.07 1834.93 1519.33 Q1833 1517.6 1829.9 1517.6 Q1827.7 1517.6 1825.25 1518.36 Q1822.82 1519.13 1820.04 1520.68 L1820.04 1515.95 Q1822.87 1514.82 1825.32 1514.24 Q1827.77 1513.66 1829.81 1513.66 Q1835.18 1513.66 1838.38 1516.35 Q1841.57 1519.03 1841.57 1523.52 Q1841.57 1525.65 1840.76 1527.57 Q1839.97 1529.47 1837.87 1532.07 Q1837.29 1532.74 1834.19 1535.95 Q1831.08 1539.15 1825.44 1544.91 Z" fill="#000000" fill-rule="nonzero" fill-opacity="1" /><path clip-path="url(#clip730)" d="M1861.57 1517.37 Q1857.96 1517.37 1856.13 1520.93 Q1854.32 1524.47 1854.32 1531.6 Q1854.32 1538.71 1856.13 1542.27 Q1857.96 1545.82 1861.57 1545.82 Q1865.2 1545.82 1867.01 1542.27 Q1868.84 1538.71 1868.84 1531.6 Q1868.84 1524.47 1867.01 1520.93 Q1865.2 1517.37 1861.57 1517.37 M1861.57 1513.66 Q1867.38 1513.66 1870.44 1518.27 Q1873.51 1522.85 1873.51 1531.6 Q1873.51 1540.33 1870.44 1544.94 Q1867.38 1549.52 1861.57 1549.52 Q1855.76 1549.52 1852.68 1544.94 Q1849.63 1540.33 1849.63 1531.6 Q1849.63 1522.85 1852.68 1518.27 Q1855.76 1513.66 1861.57 1513.66 Z" fill="#000000" fill-rule="nonzero" fill-opacity="1" /><path clip-path="url(#clip730)" d="M1891.73 1517.37 Q1888.12 1517.37 1886.29 1520.93 Q1884.49 1524.47 1884.49 1531.6 Q1884.49 1538.71 1886.29 1542.27 Q1888.12 1545.82 1891.73 1545.82 Q1895.37 1545.82 1897.17 1542.27 Q1899 1538.71 1899 1531.6 Q1899 1524.47 1897.17 1520.93 Q1895.37 1517.37 1891.73 1517.37 M1891.73 1513.66 Q1897.54 1513.66 1900.6 1518.27 Q1903.68 1522.85 1903.68 1531.6 Q1903.68 1540.33 1900.6 1544.94 Q1897.54 1549.52 1891.73 1549.52 Q1885.92 1549.52 1882.84 1544.94 Q1879.79 1540.33 1879.79 1531.6 Q1879.79 1522.85 1882.84 1518.27 Q1885.92 1513.66 1891.73 1513.66 Z" fill="#000000" fill-rule="nonzero" fill-opacity="1" /><path clip-path="url(#clip730)" d="M1921.89 1517.37 Q1918.28 1517.37 1916.45 1520.93 Q1914.65 1524.47 1914.65 1531.6 Q1914.65 1538.71 1916.45 1542.27 Q1918.28 1545.82 1921.89 1545.82 Q1925.53 1545.82 1927.33 1542.27 Q1929.16 1538.71 1929.16 1531.6 Q1929.16 1524.47 1927.33 1520.93 Q1925.53 1517.37 1921.89 1517.37 M1921.89 1513.66 Q1927.7 1513.66 1930.76 1518.27 Q1933.84 1522.85 1933.84 1531.6 Q1933.84 1540.33 1930.76 1544.94 Q1927.7 1549.52 1921.89 1549.52 Q1916.08 1549.52 1913 1544.94 Q1909.95 1540.33 1909.95 1531.6 Q1909.95 1522.85 1913 1518.27 Q1916.08 1513.66 1921.89 1513.66 Z" fill="#000000" fill-rule="nonzero" fill-opacity="1" /><path clip-path="url(#clip730)" d="M2240.03 1544.91 L2256.35 1544.91 L2256.35 1548.85 L2234.41 1548.85 L2234.41 1544.91 Q2237.07 1542.16 2241.65 1537.53 Q2246.26 1532.88 2247.44 1531.53 Q2249.68 1529.01 2250.56 1527.27 Q2251.47 1525.51 2251.47 1523.82 Q2251.47 1521.07 2249.52 1519.33 Q2247.6 1517.6 2244.5 1517.6 Q2242.3 1517.6 2239.85 1518.36 Q2237.42 1519.13 2234.64 1520.68 L2234.64 1515.95 Q2237.46 1514.82 2239.92 1514.24 Q2242.37 1513.66 2244.41 1513.66 Q2249.78 1513.66 2252.97 1516.35 Q2256.17 1519.03 2256.17 1523.52 Q2256.17 1525.65 2255.36 1527.57 Q2254.57 1529.47 2252.46 1532.07 Q2251.88 1532.74 2248.78 1535.95 Q2245.68 1539.15 2240.03 1544.91 Z" fill="#000000" fill-rule="nonzero" fill-opacity="1" /><path clip-path="url(#clip730)" d="M2266.21 1514.29 L2284.57 1514.29 L2284.57 1518.22 L2270.49 1518.22 L2270.49 1526.7 Q2271.51 1526.35 2272.53 1526.19 Q2273.55 1526 2274.57 1526 Q2280.36 1526 2283.74 1529.17 Q2287.11 1532.34 2287.11 1537.76 Q2287.11 1543.34 2283.64 1546.44 Q2280.17 1549.52 2273.85 1549.52 Q2271.68 1549.52 2269.41 1549.15 Q2267.16 1548.78 2264.75 1548.04 L2264.75 1543.34 Q2266.84 1544.47 2269.06 1545.03 Q2271.28 1545.58 2273.76 1545.58 Q2277.76 1545.58 2280.1 1543.48 Q2282.44 1541.37 2282.44 1537.76 Q2282.44 1534.15 2280.1 1532.04 Q2277.76 1529.94 2273.76 1529.94 Q2271.88 1529.94 2270.01 1530.35 Q2268.16 1530.77 2266.21 1531.65 L2266.21 1514.29 Z" fill="#000000" fill-rule="nonzero" fill-opacity="1" /><path clip-path="url(#clip730)" d="M2306.33 1517.37 Q2302.72 1517.37 2300.89 1520.93 Q2299.08 1524.47 2299.08 1531.6 Q2299.08 1538.71 2300.89 1542.27 Q2302.72 1545.82 2306.33 1545.82 Q2309.96 1545.82 2311.77 1542.27 Q2313.6 1538.71 2313.6 1531.6 Q2313.6 1524.47 2311.77 1520.93 Q2309.96 1517.37 2306.33 1517.37 M2306.33 1513.66 Q2312.14 1513.66 2315.19 1518.27 Q2318.27 1522.85 2318.27 1531.6 Q2318.27 1540.33 2315.19 1544.94 Q2312.14 1549.52 2306.33 1549.52 Q2300.52 1549.52 2297.44 1544.94 Q2294.38 1540.33 2294.38 1531.6 Q2294.38 1522.85 2297.44 1518.27 Q2300.52 1513.66 2306.33 1513.66 Z" fill="#000000" fill-rule="nonzero" fill-opacity="1" /><path clip-path="url(#clip730)" d="M2336.49 1517.37 Q2332.88 1517.37 2331.05 1520.93 Q2329.24 1524.47 2329.24 1531.6 Q2329.24 1538.71 2331.05 1542.27 Q2332.88 1545.82 2336.49 1545.82 Q2340.12 1545.82 2341.93 1542.27 Q2343.76 1538.71 2343.76 1531.6 Q2343.76 1524.47 2341.93 1520.93 Q2340.12 1517.37 2336.49 1517.37 M2336.49 1513.66 Q2342.3 1513.66 2345.36 1518.27 Q2348.43 1522.85 2348.43 1531.6 Q2348.43 1540.33 2345.36 1544.94 Q2342.3 1549.52 2336.49 1549.52 Q2330.68 1549.52 2327.6 1544.94 Q2324.55 1540.33 2324.55 1531.6 Q2324.55 1522.85 2327.6 1518.27 Q2330.68 1513.66 2336.49 1513.66 Z" fill="#000000" fill-rule="nonzero" fill-opacity="1" /><polyline clip-path="url(#clip732)" style="stroke:#000000; stroke-linecap:round; stroke-linejoin:round; stroke-width:2; stroke-opacity:0.1; fill:none" points="156.274,1460.6 2352.76,1460.6 "/>
<polyline clip-path="url(#clip732)" style="stroke:#000000; stroke-linecap:round; stroke-linejoin:round; stroke-width:2; stroke-opacity:0.1; fill:none" points="156.274,1108.73 2352.76,1108.73 "/>
<polyline clip-path="url(#clip732)" style="stroke:#000000; stroke-linecap:round; stroke-linejoin:round; stroke-width:2; stroke-opacity:0.1; fill:none" points="156.274,756.868 2352.76,756.868 "/>
<polyline clip-path="url(#clip732)" style="stroke:#000000; stroke-linecap:round; stroke-linejoin:round; stroke-width:2; stroke-opacity:0.1; fill:none" points="156.274,405.003 2352.76,405.003 "/>
<polyline clip-path="url(#clip732)" style="stroke:#000000; stroke-linecap:round; stroke-linejoin:round; stroke-width:2; stroke-opacity:0.1; fill:none" points="156.274,53.1382 2352.76,53.1382 "/>
<polyline clip-path="url(#clip730)" style="stroke:#000000; stroke-linecap:round; stroke-linejoin:round; stroke-width:4; stroke-opacity:1; fill:none" points="156.274,1486.45 156.274,47.2441 "/>
<polyline clip-path="url(#clip730)" style="stroke:#000000; stroke-linecap:round; stroke-linejoin:round; stroke-width:4; stroke-opacity:1; fill:none" points="156.274,1460.6 175.172,1460.6 "/>
<polyline clip-path="url(#clip730)" style="stroke:#000000; stroke-linecap:round; stroke-linejoin:round; stroke-width:4; stroke-opacity:1; fill:none" points="156.274,1108.73 175.172,1108.73 "/>
<polyline clip-path="url(#clip730)" style="stroke:#000000; stroke-linecap:round; stroke-linejoin:round; stroke-width:4; stroke-opacity:1; fill:none" points="156.274,756.868 175.172,756.868 "/>
<polyline clip-path="url(#clip730)" style="stroke:#000000; stroke-linecap:round; stroke-linejoin:round; stroke-width:4; stroke-opacity:1; fill:none" points="156.274,405.003 175.172,405.003 "/>
<polyline clip-path="url(#clip730)" style="stroke:#000000; stroke-linecap:round; stroke-linejoin:round; stroke-width:4; stroke-opacity:1; fill:none" points="156.274,53.1382 175.172,53.1382 "/>
<path clip-path="url(#clip730)" d="M62.9365 1446.4 Q59.3254 1446.4 57.4967 1449.96 Q55.6912 1453.5 55.6912 1460.63 Q55.6912 1467.74 57.4967 1471.3 Q59.3254 1474.85 62.9365 1474.85 Q66.5707 1474.85 68.3763 1471.3 Q70.205 1467.74 70.205 1460.63 Q70.205 1453.5 68.3763 1449.96 Q66.5707 1446.4 62.9365 1446.4 M62.9365 1442.69 Q68.7467 1442.69 71.8022 1447.3 Q74.8809 1451.88 74.8809 1460.63 Q74.8809 1469.36 71.8022 1473.97 Q68.7467 1478.55 62.9365 1478.55 Q57.1264 1478.55 54.0477 1473.97 Q50.9921 1469.36 50.9921 1460.63 Q50.9921 1451.88 54.0477 1447.3 Q57.1264 1442.69 62.9365 1442.69 Z" fill="#000000" fill-rule="nonzero" fill-opacity="1" /><path clip-path="url(#clip730)" d="M83.0984 1472 L87.9827 1472 L87.9827 1477.88 L83.0984 1477.88 L83.0984 1472 Z" fill="#000000" fill-rule="nonzero" fill-opacity="1" /><path clip-path="url(#clip730)" d="M108.746 1458.73 Q105.598 1458.73 103.746 1460.89 Q101.918 1463.04 101.918 1466.79 Q101.918 1470.52 103.746 1472.69 Q105.598 1474.85 108.746 1474.85 Q111.895 1474.85 113.723 1472.69 Q115.575 1470.52 115.575 1466.79 Q115.575 1463.04 113.723 1460.89 Q111.895 1458.73 108.746 1458.73 M118.029 1444.08 L118.029 1448.34 Q116.27 1447.51 114.464 1447.07 Q112.682 1446.63 110.922 1446.63 Q106.293 1446.63 103.839 1449.75 Q101.409 1452.88 101.061 1459.2 Q102.427 1457.18 104.487 1456.12 Q106.547 1455.03 109.024 1455.03 Q114.233 1455.03 117.242 1458.2 Q120.274 1461.35 120.274 1466.79 Q120.274 1472.11 117.126 1475.33 Q113.978 1478.55 108.746 1478.55 Q102.751 1478.55 99.5798 1473.97 Q96.4085 1469.36 96.4085 1460.63 Q96.4085 1452.44 100.297 1447.58 Q104.186 1442.69 110.737 1442.69 Q112.496 1442.69 114.279 1443.04 Q116.084 1443.39 118.029 1444.08 Z" fill="#000000" fill-rule="nonzero" fill-opacity="1" /><path clip-path="url(#clip730)" d="M64.0013 1094.53 Q60.3902 1094.53 58.5615 1098.1 Q56.756 1101.64 56.756 1108.77 Q56.756 1115.87 58.5615 1119.44 Q60.3902 1122.98 64.0013 1122.98 Q67.6356 1122.98 69.4411 1119.44 Q71.2698 1115.87 71.2698 1108.77 Q71.2698 1101.64 69.4411 1098.1 Q67.6356 1094.53 64.0013 1094.53 M64.0013 1090.83 Q69.8115 1090.83 72.867 1095.43 Q75.9457 1100.02 75.9457 1108.77 Q75.9457 1117.49 72.867 1122.1 Q69.8115 1126.68 64.0013 1126.68 Q58.1912 1126.68 55.1125 1122.1 Q52.0569 1117.49 52.0569 1108.77 Q52.0569 1100.02 55.1125 1095.43 Q58.1912 1090.83 64.0013 1090.83 Z" fill="#000000" fill-rule="nonzero" fill-opacity="1" /><path clip-path="url(#clip730)" d="M84.1632 1120.13 L89.0475 1120.13 L89.0475 1126.01 L84.1632 1126.01 L84.1632 1120.13 Z" fill="#000000" fill-rule="nonzero" fill-opacity="1" /><path clip-path="url(#clip730)" d="M98.0521 1091.45 L120.274 1091.45 L120.274 1093.44 L107.728 1126.01 L102.844 1126.01 L114.649 1095.39 L98.0521 1095.39 L98.0521 1091.45 Z" fill="#000000" fill-rule="nonzero" fill-opacity="1" /><path clip-path="url(#clip730)" d="M63.1911 742.667 Q59.58 742.667 57.7513 746.232 Q55.9458 749.773 55.9458 756.903 Q55.9458 764.009 57.7513 767.574 Q59.58 771.116 63.1911 771.116 Q66.8254 771.116 68.6309 767.574 Q70.4596 764.009 70.4596 756.903 Q70.4596 749.773 68.6309 746.232 Q66.8254 742.667 63.1911 742.667 M63.1911 738.963 Q69.0013 738.963 72.0568 743.57 Q75.1355 748.153 75.1355 756.903 Q75.1355 765.63 72.0568 770.236 Q69.0013 774.819 63.1911 774.819 Q57.381 774.819 54.3023 770.236 Q51.2468 765.63 51.2468 756.903 Q51.2468 748.153 54.3023 743.57 Q57.381 738.963 63.1911 738.963 Z" fill="#000000" fill-rule="nonzero" fill-opacity="1" /><path clip-path="url(#clip730)" d="M83.3531 768.269 L88.2373 768.269 L88.2373 774.148 L83.3531 774.148 L83.3531 768.269 Z" fill="#000000" fill-rule="nonzero" fill-opacity="1" /><path clip-path="url(#clip730)" d="M108.422 757.736 Q105.089 757.736 103.168 759.519 Q101.27 761.301 101.27 764.426 Q101.27 767.551 103.168 769.333 Q105.089 771.116 108.422 771.116 Q111.756 771.116 113.677 769.333 Q115.598 767.528 115.598 764.426 Q115.598 761.301 113.677 759.519 Q111.779 757.736 108.422 757.736 M103.746 755.745 Q100.737 755.005 99.0474 752.945 Q97.3808 750.884 97.3808 747.921 Q97.3808 743.778 100.321 741.371 Q103.284 738.963 108.422 738.963 Q113.584 738.963 116.524 741.371 Q119.464 743.778 119.464 747.921 Q119.464 750.884 117.774 752.945 Q116.108 755.005 113.121 755.745 Q116.501 756.533 118.376 758.824 Q120.274 761.116 120.274 764.426 Q120.274 769.449 117.195 772.134 Q114.14 774.819 108.422 774.819 Q102.705 774.819 99.6261 772.134 Q96.5706 769.449 96.5706 764.426 Q96.5706 761.116 98.4687 758.824 Q100.367 756.533 103.746 755.745 M102.034 748.361 Q102.034 751.046 103.7 752.551 Q105.39 754.056 108.422 754.056 Q111.432 754.056 113.121 752.551 Q114.834 751.046 114.834 748.361 Q114.834 745.676 113.121 744.171 Q111.432 742.667 108.422 742.667 Q105.39 742.667 103.7 744.171 Q102.034 745.676 102.034 748.361 Z" fill="#000000" fill-rule="nonzero" fill-opacity="1" /><path clip-path="url(#clip730)" d="M63.2837 390.802 Q59.6726 390.802 57.8439 394.367 Q56.0384 397.908 56.0384 405.038 Q56.0384 412.144 57.8439 415.709 Q59.6726 419.251 63.2837 419.251 Q66.918 419.251 68.7235 415.709 Q70.5522 412.144 70.5522 405.038 Q70.5522 397.908 68.7235 394.367 Q66.918 390.802 63.2837 390.802 M63.2837 387.098 Q69.0939 387.098 72.1494 391.705 Q75.2281 396.288 75.2281 405.038 Q75.2281 413.765 72.1494 418.371 Q69.0939 422.954 63.2837 422.954 Q57.4736 422.954 54.3949 418.371 Q51.3393 413.765 51.3393 405.038 Q51.3393 396.288 54.3949 391.705 Q57.4736 387.098 63.2837 387.098 Z" fill="#000000" fill-rule="nonzero" fill-opacity="1" /><path clip-path="url(#clip730)" d="M83.4457 416.404 L88.3299 416.404 L88.3299 422.283 L83.4457 422.283 L83.4457 416.404 Z" fill="#000000" fill-rule="nonzero" fill-opacity="1" /><path clip-path="url(#clip730)" d="M98.6539 421.566 L98.6539 417.306 Q100.413 418.14 102.219 418.579 Q104.024 419.019 105.76 419.019 Q110.39 419.019 112.82 415.917 Q115.274 412.792 115.621 406.45 Q114.279 408.441 112.219 409.505 Q110.158 410.57 107.658 410.57 Q102.473 410.57 99.4409 407.445 Q96.4317 404.297 96.4317 398.857 Q96.4317 393.533 99.5798 390.316 Q102.728 387.098 107.959 387.098 Q113.955 387.098 117.103 391.705 Q120.274 396.288 120.274 405.038 Q120.274 413.209 116.385 418.093 Q112.52 422.954 105.969 422.954 Q104.209 422.954 102.404 422.607 Q100.598 422.26 98.6539 421.566 M107.959 406.913 Q111.108 406.913 112.936 404.76 Q114.788 402.607 114.788 398.857 Q114.788 395.131 112.936 392.978 Q111.108 390.802 107.959 390.802 Q104.811 390.802 102.959 392.978 Q101.131 395.131 101.131 398.857 Q101.131 402.607 102.959 404.76 Q104.811 406.913 107.959 406.913 Z" fill="#000000" fill-rule="nonzero" fill-opacity="1" /><path clip-path="url(#clip730)" d="M53.9088 66.483 L61.5476 66.483 L61.5476 40.1174 L53.2375 41.7841 L53.2375 37.5248 L61.5013 35.8582 L66.1772 35.8582 L66.1772 66.483 L73.8161 66.483 L73.8161 70.4182 L53.9088 70.4182 L53.9088 66.483 Z" fill="#000000" fill-rule="nonzero" fill-opacity="1" /><path clip-path="url(#clip730)" d="M83.2605 64.5386 L88.1447 64.5386 L88.1447 70.4182 L83.2605 70.4182 L83.2605 64.5386 Z" fill="#000000" fill-rule="nonzero" fill-opacity="1" /><path clip-path="url(#clip730)" d="M108.33 38.9368 Q104.719 38.9368 102.89 42.5016 Q101.084 46.0433 101.084 53.1729 Q101.084 60.2793 102.89 63.8441 Q104.719 67.3858 108.33 67.3858 Q111.964 67.3858 113.77 63.8441 Q115.598 60.2793 115.598 53.1729 Q115.598 46.0433 113.77 42.5016 Q111.964 38.9368 108.33 38.9368 M108.33 35.2332 Q114.14 35.2332 117.195 39.8396 Q120.274 44.4229 120.274 53.1729 Q120.274 61.8997 117.195 66.5061 Q114.14 71.0894 108.33 71.0894 Q102.52 71.0894 99.4409 66.5061 Q96.3854 61.8997 96.3854 53.1729 Q96.3854 44.4229 99.4409 39.8396 Q102.52 35.2332 108.33 35.2332 Z" fill="#000000" fill-rule="nonzero" fill-opacity="1" /><polyline clip-path="url(#clip732)" style="stroke:#009af9; stroke-linecap:round; stroke-linejoin:round; stroke-width:4; stroke-opacity:1; fill:none" points="218.439,1365.74 219.268,1323.45 220.097,1210.28 220.926,1233.81 221.756,1445.72 222.585,1308.99 223.414,1286.95 224.243,1286.95 225.072,1264.48 225.901,1308.99 226.731,1256.89 227.56,1413.11 228.389,1145.13 229.218,1372.63 230.047,1301.69 230.877,1351.82 231.706,1279.51 232.535,1301.69 233.364,1249.25 234.193,1406.47 235.023,1218.18 235.852,1186.26 236.681,1202.33 237.51,1358.8 238.339,1249.25 239.169,1058.47 239.998,1316.24 240.827,1294.34 241.656,1344.79 242.485,1264.48 243.315,1272.02 244.144,1365.74 244.973,1393.06 245.802,1218.18 246.631,1012.77 247.46,1272.02 248.29,1272.02 249.119,1161.75 249.948,1136.74 250.777,1169.98 251.606,1119.77 252.436,1386.29 253.265,1241.56 254.094,1111.19 254.923,1161.75 255.752,1022.04 256.582,1316.24 257.411,1202.33 258.24,1249.25 259.069,1202.33 259.898,1003.43 260.728,1264.48 261.557,1358.8 262.386,1210.28 263.215,1128.28 264.044,1294.34 264.874,1241.56 265.703,1111.19 266.532,1202.33 267.361,1308.99 268.19,1049.46 269.019,1308.99 269.849,1194.32 270.678,1337.72 271.507,1272.02 272.336,1202.33 273.165,1210.28 273.995,1279.51 274.824,1294.34 275.653,1272.02 276.482,1169.98 277.311,1178.15 278.141,1316.24 278.97,1272.02 279.799,1226.02 280.628,1272.02 281.457,1249.25 282.287,1012.77 283.116,965.381 283.945,1194.32 284.774,1249.25 285.603,1178.15 286.433,1012.77 287.262,1194.32 288.091,1194.32 288.92,1012.77 289.749,1119.77 290.579,1194.32 291.408,1067.41 292.237,1136.74 293.066,1102.56 293.895,1119.77 294.724,1186.26 295.554,1393.06 296.383,1031.25 297.212,1111.19 298.041,1344.79 298.87,1178.15 299.7,1067.41 300.529,1301.69 301.358,1119.77 302.187,1323.45 303.016,1233.81 303.846,1386.29 304.675,1136.74 305.504,1119.77 306.333,1145.13 307.162,1031.25 307.992,1186.26 308.821,1093.87 309.65,1076.29 310.479,1169.98 311.308,1128.28 312.138,1128.28 312.967,1058.47 313.796,1294.34 314.625,1264.48 315.454,1210.28 316.283,1233.81 317.113,1301.69 317.942,1076.29 318.771,1022.04 319.6,1169.98 320.429,1119.77 321.259,1119.77 322.088,1031.25 322.917,1249.25 323.746,1233.81 324.575,1102.56 325.405,1119.77 326.234,1085.11 327.063,1031.25 327.892,1178.15 328.721,1085.11 329.551,1076.29 330.38,1040.39 331.209,1226.02 332.038,1186.26 332.867,984.546 333.697,1186.26 334.526,1085.11 335.355,936.095 336.184,1153.47 337.013,994.023 337.842,926.187 338.672,965.381 339.501,1040.39 340.33,1119.77 341.159,965.381 341.988,1169.98 342.818,955.692 343.647,1085.11 344.476,1058.47 345.305,1058.47 346.134,984.546 346.964,936.095 347.793,906.144 348.622,1202.33 349.451,994.023 350.28,1076.29 351.11,1012.77 351.939,1058.47 352.768,1202.33 353.597,1022.04 354.426,1031.25 355.256,1031.25 356.085,1194.32 356.914,1085.11 357.743,965.381 358.572,1058.47 359.402,974.999 360.231,1012.77 361.06,906.144 361.889,906.144 362.718,965.381 363.547,1102.56 364.377,1067.41 365.206,1178.15 366.035,1049.46 366.864,1136.74 367.693,1111.19 368.523,1111.19 369.352,822.843 370.181,974.999 371.01,1012.77 371.839,1049.46 372.669,936.095 373.498,1058.47 374.327,1169.98 375.156,1102.56 375.985,955.692 376.815,955.692 377.644,1178.15 378.473,936.095 379.302,1022.04 380.131,965.381 380.961,1058.47 381.79,965.381 382.619,1022.04 383.448,822.843 384.277,1012.77 385.106,1022.04 385.936,994.023 386.765,974.999 387.594,965.381 388.423,1076.29 389.252,822.843 390.082,965.381 390.911,955.692 391.74,1128.28 392.569,965.381 393.398,1049.46 394.228,984.546 395.057,833.539 395.886,916.203 396.715,711.097 397.544,945.93 398.374,984.546 399.203,945.93 400.032,1012.77 400.861,945.93 401.69,1049.46 402.52,984.546 403.349,896.009 404.178,854.684 405.007,994.023 405.836,1022.04 406.665,1031.25 407.495,936.095 408.324,844.153 409.153,936.095 409.982,1119.77 410.811,1128.28 411.641,1003.43 412.47,916.203 413.299,875.505 414.128,779.209 414.957,1022.04 415.787,875.505 416.616,994.023 417.445,885.796 418.274,1031.25 419.103,945.93 419.933,745.563 420.762,1178.15 421.591,926.187 422.42,1102.56 423.249,984.546 424.079,822.843 424.908,994.023 425.737,833.539 426.566,984.546 427.395,651.747 428.224,916.203 429.054,1003.43 429.883,1040.39 430.712,1003.43 431.541,1022.04 432.37,936.095 433.2,865.134 434.029,801.198 434.858,926.187 435.687,916.203 436.516,756.868 437.346,833.539 438.175,801.198 439.004,994.023 439.833,965.381 440.662,945.93 441.492,955.692 442.321,984.546 443.15,955.692 443.979,916.203 444.808,822.843 445.638,779.209 446.467,896.009 447.296,974.999 448.125,936.095 448.954,984.546 449.784,854.684 450.613,955.692 451.442,812.063 452.271,965.381 453.1,945.93 453.929,945.93 454.759,1031.25 455.588,896.009 456.417,936.095 457.246,790.247 458.075,1022.04 458.905,801.198 459.734,865.134 460.563,812.063 461.392,699.421 462.221,936.095 463.051,779.209 463.88,711.097 464.709,687.649 465.538,994.023 466.367,663.813 467.197,854.684 468.026,722.679 468.855,896.009 469.684,875.505 470.513,833.539 471.343,663.813 472.172,812.063 473.001,779.209 473.83,875.505 474.659,1031.25 475.488,401.833 476.318,833.539 477.147,945.93 477.976,812.063 478.805,790.247 479.634,768.083 480.464,812.063 481.293,965.381 482.122,936.095 482.951,589.881 483.78,1102.56 484.61,687.649 485.439,833.539 486.268,936.095 487.097,779.209 487.926,833.539 488.756,906.144 489.585,699.421 490.414,844.153 491.243,675.78 492.072,822.843 492.902,756.868 493.731,916.203 494.56,756.868 495.389,711.097 496.218,734.167 497.047,790.247 497.877,711.097 498.706,711.097 499.535,779.209 500.364,589.881 501.193,822.843 502.023,865.134 502.852,538.469 503.681,699.421 504.51,844.153 505.339,822.843 506.169,926.187 506.998,745.563 507.827,699.421 508.656,711.097 509.485,779.209 510.315,512.093 511.144,768.083 511.973,639.58 512.802,844.153 513.631,651.747 514.461,812.063 515.29,833.539 516.119,906.144 516.948,875.505 517.777,627.311 518.607,711.097 519.436,875.505 520.265,865.134 521.094,756.868 521.923,734.167 522.752,711.097 523.582,844.153 524.411,779.209 525.24,734.167 526.069,722.679 526.898,734.167 527.728,779.209 528.557,745.563 529.386,687.649 530.215,768.083 531.044,745.563 531.874,790.247 532.703,722.679 533.532,498.731 534.361,779.209 535.19,790.247 536.02,639.58 536.849,627.311 537.678,854.684 538.507,722.679 539.336,822.843 540.166,822.843 540.995,844.153 541.824,844.153 542.653,936.095 543.482,711.097 544.311,756.868 545.141,675.78 545.97,756.868 546.799,675.78 547.628,875.505 548.457,722.679 549.287,756.868 550.116,768.083 550.945,722.679 551.774,734.167 552.603,663.813 553.433,722.679 554.262,779.209 555.091,722.679 555.92,675.78 556.749,822.843 557.579,865.134 558.408,722.679 559.237,865.134 560.066,756.868 560.895,756.868 561.725,779.209 562.554,675.78 563.383,822.843 564.212,627.311 565.041,734.167 565.87,577.192 566.7,822.843 567.529,687.649 568.358,663.813 569.187,627.311 570.016,564.395 570.846,756.868 571.675,551.488 572.504,687.649 573.333,577.192 574.162,790.247 574.992,651.747 575.821,602.463 576.65,675.78 577.479,822.843 578.308,711.097 579.138,663.813 579.967,745.563 580.796,538.469 581.625,663.813 582.454,768.083 583.284,614.939 584.113,639.58 584.942,589.881 585.771,699.421 586.6,663.813 587.429,551.488 588.259,711.097 589.088,768.083 589.917,627.311 590.746,699.421 591.575,614.939 592.405,525.338 593.234,722.679 594.063,711.097 594.892,639.58 595.721,779.209 596.551,663.813 597.38,639.58 598.209,675.78 599.038,687.649 599.867,699.421 600.697,687.649 601.526,822.843 602.355,687.649 603.184,577.192 604.013,602.463 604.843,745.563 605.672,663.813 606.501,722.679 607.33,651.747 608.159,627.311 608.989,627.311 609.818,734.167 610.647,699.421 611.476,589.881 612.305,602.463 613.134,627.311 613.964,663.813 614.793,936.095 615.622,525.338 616.451,627.311 617.28,651.747 618.11,512.093 618.939,663.813 619.768,663.813 620.597,651.747 621.426,768.083 622.256,675.78 623.085,675.78 623.914,663.813 624.743,745.563 625.572,779.209 626.402,833.539 627.231,687.649 628.06,711.097 628.889,627.311 629.718,564.395 630.548,485.253 631.377,768.083 632.206,687.649 633.035,498.731 633.864,675.78 634.693,602.463 635.523,790.247 636.352,675.78 637.181,745.563 638.01,699.421 638.839,687.649 639.669,551.488 640.498,589.881 641.327,675.78 642.156,577.192 642.985,865.134 643.815,577.192 644.644,564.395 645.473,639.58 646.302,675.78 647.131,602.463 647.961,614.939 648.79,675.78 649.619,551.488 650.448,485.253 651.277,614.939 652.107,756.868 652.936,589.881 653.765,722.679 654.594,651.747 655.423,627.311 656.252,577.192 657.082,699.421 657.911,589.881 658.74,457.939 659.569,768.083 660.398,485.253 661.228,675.78 662.057,722.679 662.886,512.093 663.715,602.463 664.544,564.395 665.374,639.58 666.203,768.083 667.032,564.395 667.861,756.868 668.69,589.881 669.52,745.563 670.349,627.311 671.178,687.649 672.007,525.338 672.836,525.338 673.666,589.881 674.495,564.395 675.324,416.048 676.153,639.58 676.982,627.311 677.812,538.469 678.641,551.488 679.47,663.813 680.299,651.747 681.128,627.311 681.957,663.813 682.787,589.881 683.616,551.488 684.445,675.78 685.274,627.311 686.103,722.679 686.933,589.881 687.762,699.421 688.591,651.747 689.42,525.338 690.249,525.338 691.079,485.253 691.908,525.338 692.737,734.167 693.566,699.421 694.395,675.78 695.225,651.747 696.054,745.563 696.883,639.58 697.712,651.747 698.541,602.463 699.371,485.253 700.2,699.421 701.029,589.881 701.858,687.649 702.687,538.469 703.516,663.813 704.346,614.939 705.175,844.153 706.004,471.656 706.833,551.488 707.662,602.463 708.492,538.469 709.321,651.747 710.15,687.649 710.979,675.78 711.808,564.395 712.638,734.167 713.467,564.395 714.296,687.649 715.125,651.747 715.954,498.731 716.784,538.469 717.613,663.813 718.442,602.463 719.271,538.469 720.1,589.881 720.93,577.192 721.759,614.939 722.588,471.656 723.417,564.395 724.246,801.198 725.075,614.939 725.905,663.813 726.734,614.939 727.563,627.311 728.392,538.469 729.221,444.099 730.051,512.093 730.88,602.463 731.709,614.939 732.538,538.469 733.367,711.097 734.197,498.731 735.026,687.649 735.855,416.048 736.684,756.868 737.513,675.78 738.343,589.881 739.172,538.469 740.001,525.338 740.83,602.463 741.659,627.311 742.489,711.097 743.318,498.731 744.147,602.463 744.976,589.881 745.805,651.747 746.634,564.395 747.464,627.311 748.293,525.338 749.122,627.311 749.951,564.395 750.78,639.58 751.61,722.679 752.439,602.463 753.268,589.881 754.097,551.488 754.926,589.881 755.756,639.58 756.585,639.58 757.414,602.463 758.243,485.253 759.072,589.881 759.902,485.253 760.731,538.469 761.56,485.253 762.389,577.192 763.218,602.463 764.048,512.093 764.877,564.395 765.706,589.881 766.535,457.939 767.364,639.58 768.194,699.421 769.023,589.881 769.852,602.463 770.681,602.463 771.51,564.395 772.339,602.463 773.169,699.421 773.998,512.093 774.827,551.488 775.656,577.192 776.485,512.093 777.315,525.338 778.144,564.395 778.973,471.656 779.802,512.093 780.631,564.395 781.461,512.093 782.29,699.421 783.119,663.813 783.948,651.747 784.777,564.395 785.607,734.167 786.436,651.747 787.265,614.939 788.094,675.78 788.923,627.311 789.753,444.099 790.582,471.656 791.411,498.731 792.24,589.881 793.069,498.731 793.898,401.833 794.728,564.395 795.557,614.939 796.386,577.192 797.215,627.311 798.044,577.192 798.874,627.311 799.703,589.881 800.532,627.311 801.361,564.395 802.19,699.421 803.02,687.649 803.849,401.833 804.678,512.093 805.507,538.469 806.336,687.649 807.166,651.747 807.995,471.656 808.824,577.192 809.653,639.58 810.482,538.469 811.312,387.49 812.141,538.469 812.97,512.093 813.799,577.192 814.628,512.093 815.457,577.192 816.287,711.097 817.116,485.253 817.945,564.395 818.774,711.097 819.603,471.656 820.433,577.192 821.262,485.253 822.091,525.338 822.92,471.656 823.749,614.939 824.579,663.813 825.408,457.939 826.237,699.421 827.066,577.192 827.895,589.881 828.725,602.463 829.554,416.048 830.383,538.469 831.212,430.136 832.041,512.093 832.871,538.469 833.7,602.463 834.529,430.136 835.358,430.136 836.187,564.395 837.017,675.78 837.846,627.311 838.675,711.097 839.504,471.656 840.333,457.939 841.162,525.338 841.992,525.338 842.821,551.488 843.65,564.395 844.479,602.463 845.308,498.731 846.138,551.488 846.967,564.395 847.796,525.338 848.625,512.093 849.454,512.093 850.284,430.136 851.113,444.099 851.942,471.656 852.771,401.833 853.6,444.099 854.43,457.939 855.259,457.939 856.088,687.649 856.917,498.731 857.746,498.731 858.576,577.192 859.405,401.833 860.234,512.093 861.063,358.409 861.892,387.49 862.721,639.58 863.551,614.939 864.38,525.338 865.209,564.395 866.038,430.136 866.867,525.338 867.697,358.409 868.526,430.136 869.355,512.093 870.184,663.813 871.013,444.099 871.843,589.881 872.672,639.58 873.501,564.395 874.33,401.833 875.159,430.136 875.989,614.939 876.818,551.488 877.647,551.488 878.476,564.395 879.305,525.338 880.135,401.833 880.964,525.338 881.793,373.015 882.622,651.747 883.451,512.093 884.28,387.49 885.11,498.731 885.939,538.469 886.768,538.469 887.597,485.253 888.426,416.048 889.256,457.939 890.085,538.469 890.914,538.469 891.743,577.192 892.572,485.253 893.402,651.747 894.231,577.192 895.06,430.136 895.889,525.338 896.718,577.192 897.548,358.409 898.377,577.192 899.206,485.253 900.035,551.488 900.864,525.338 901.694,602.463 902.523,457.939 903.352,444.099 904.181,485.253 905.01,538.469 905.839,457.939 906.669,387.49 907.498,498.731 908.327,471.656 909.156,538.469 909.985,457.939 910.815,589.881 911.644,416.048 912.473,373.015 913.302,430.136 914.131,401.833 914.961,602.463 915.79,430.136 916.619,430.136 917.448,551.488 918.277,577.192 919.107,614.939 919.936,577.192 920.765,387.49 921.594,512.093 922.423,525.338 923.253,485.253 924.082,614.939 924.911,430.136 925.74,416.048 926.569,564.395 927.399,589.881 928.228,485.253 929.057,602.463 929.886,416.048 930.715,498.731 931.544,577.192 932.374,471.656 933.203,512.093 934.032,471.656 934.861,614.939 935.69,498.731 936.52,485.253 937.349,525.338 938.178,512.093 939.007,589.881 939.836,525.338 940.666,551.488 941.495,457.939 942.324,589.881 943.153,444.099 943.982,564.395 944.812,387.49 945.641,457.939 946.47,471.656 947.299,512.093 948.128,512.093 948.958,512.093 949.787,551.488 950.616,444.099 951.445,401.833 952.274,328.793 953.103,498.731 953.933,512.093 954.762,675.78 955.591,416.048 956.42,485.253 957.249,430.136 958.079,444.099 958.908,627.311 959.737,485.253 960.566,444.099 961.395,387.49 962.225,498.731 963.054,538.469 963.883,485.253 964.712,416.048 965.541,358.409 966.371,485.253 967.2,564.395 968.029,551.488 968.858,485.253 969.687,512.093 970.517,387.49 971.346,602.463 972.175,614.939 973.004,430.136 973.833,525.338 974.662,328.793 975.492,457.939 976.321,525.338 977.15,525.338 977.979,627.311 978.808,457.939 979.638,444.099 980.467,471.656 981.296,387.49 982.125,538.469 982.954,589.881 983.784,457.939 984.613,430.136 985.442,512.093 986.271,512.093 987.1,457.939 987.93,538.469 988.759,416.048 989.588,457.939 990.417,538.469 991.246,525.338 992.076,485.253 992.905,471.656 993.734,525.338 994.563,614.939 995.392,457.939 996.222,498.731 997.051,387.49 997.88,373.015 998.709,498.731 999.538,387.49 1000.37,358.409 1001.2,373.015 1002.03,512.093 1002.86,457.939 1003.68,577.192 1004.51,373.015 1005.34,401.833 1006.17,444.099 1007,430.136 1007.83,512.093 1008.66,387.49 1009.49,639.58 1010.32,401.833 1011.15,430.136 1011.98,430.136 1012.81,564.395 1013.63,401.833 1014.46,416.048 1015.29,444.099 1016.12,444.099 1016.95,485.253 1017.78,416.048 1018.61,430.136 1019.44,538.469 1020.27,444.099 1021.1,457.939 1021.93,457.939 1022.76,498.731 1023.58,373.015 1024.41,444.099 1025.24,512.093 1026.07,602.463 1026.9,471.656 1027.73,430.136 1028.56,430.136 1029.39,373.015 1030.22,512.093 1031.05,343.669 1031.88,525.338 1032.71,564.395 1033.54,498.731 1034.36,430.136 1035.19,564.395 1036.02,430.136 1036.85,387.49 1037.68,485.253 1038.51,512.093 1039.34,416.048 1040.17,512.093 1041,498.731 1041.83,444.099 1042.66,512.093 1043.49,444.099 1044.31,444.099 1045.14,512.093 1045.97,328.793 1046.8,430.136 1047.63,471.656 1048.46,512.093 1049.29,444.099 1050.12,343.669 1050.95,471.656 1051.78,538.469 1052.61,512.093 1053.44,498.731 1054.26,387.49 1055.09,551.488 1055.92,343.669 1056.75,471.656 1057.58,444.099 1058.41,551.488 1059.24,373.015 1060.07,498.731 1060.9,416.048 1061.73,401.833 1062.56,471.656 1063.39,373.015 1064.22,485.253 1065.04,457.939 1065.87,471.656 1066.7,498.731 1067.53,444.099 1068.36,416.048 1069.19,457.939 1070.02,551.488 1070.85,485.253 1071.68,471.656 1072.51,589.881 1073.34,551.488 1074.17,444.099 1074.99,471.656 1075.82,485.253 1076.65,551.488 1077.48,430.136 1078.31,525.338 1079.14,430.136 1079.97,577.192 1080.8,485.253 1081.63,387.49 1082.46,387.49 1083.29,498.731 1084.12,444.099 1084.95,358.409 1085.77,512.093 1086.6,358.409 1087.43,401.833 1088.26,564.395 1089.09,512.093 1089.92,457.939 1090.75,430.136 1091.58,401.833 1092.41,498.731 1093.24,687.649 1094.07,313.779 1094.9,313.779 1095.72,430.136 1096.55,416.048 1097.38,358.409 1098.21,457.939 1099.04,313.779 1099.87,485.253 1100.7,525.338 1101.53,498.731 1102.36,589.881 1103.19,627.311 1104.02,525.338 1104.85,538.469 1105.67,343.669 1106.5,663.813 1107.33,358.409 1108.16,485.253 1108.99,564.395 1109.82,373.015 1110.65,457.939 1111.48,430.136 1112.31,387.49 1113.14,358.409 1113.97,485.253 1114.8,387.49 1115.63,328.793 1116.45,485.253 1117.28,401.833 1118.11,564.395 1118.94,430.136 1119.77,387.49 1120.6,401.833 1121.43,416.048 1122.26,313.779 1123.09,430.136 1123.92,387.49 1124.75,416.048 1125.58,358.409 1126.4,512.093 1127.23,401.833 1128.06,457.939 1128.89,485.253 1129.72,283.33 1130.55,401.833 1131.38,525.338 1132.21,373.015 1133.04,416.048 1133.87,416.048 1134.7,498.731 1135.53,602.463 1136.36,564.395 1137.18,430.136 1138.01,538.469 1138.84,485.253 1139.67,387.49 1140.5,525.338 1141.33,457.939 1142.16,627.311 1142.99,512.093 1143.82,485.253 1144.65,416.048 1145.48,457.939 1146.31,525.338 1147.13,430.136 1147.96,387.49 1148.79,444.099 1149.62,373.015 1150.45,328.793 1151.28,358.409 1152.11,485.253 1152.94,498.731 1153.77,343.669 1154.6,373.015 1155.43,525.338 1156.26,444.099 1157.08,416.048 1157.91,457.939 1158.74,373.015 1159.57,457.939 1160.4,387.49 1161.23,373.015 1162.06,538.469 1162.89,471.656 1163.72,485.253 1164.55,401.833 1165.38,444.099 1166.21,328.793 1167.04,564.395 1167.86,457.939 1168.69,457.939 1169.52,387.49 1170.35,602.463 1171.18,416.048 1172.01,457.939 1172.84,387.49 1173.67,498.731 1174.5,387.49 1175.33,577.192 1176.16,343.669 1176.99,298.625 1177.81,471.656 1178.64,387.49 1179.47,387.49 1180.3,358.409 1181.13,457.939 1181.96,283.33 1182.79,457.939 1183.62,373.015 1184.45,512.093 1185.28,498.731 1186.11,416.048 1186.94,298.625 1187.77,457.939 1188.59,444.099 1189.42,430.136 1190.25,401.833 1191.08,538.469 1191.91,387.49 1192.74,401.833 1193.57,387.49 1194.4,525.338 1195.23,457.939 1196.06,401.833 1196.89,498.731 1197.72,457.939 1198.54,471.656 1199.37,401.833 1200.2,343.669 1201.03,343.669 1201.86,267.891 1202.69,485.253 1203.52,401.833 1204.35,416.048 1205.18,373.015 1206.01,564.395 1206.84,358.409 1207.67,416.048 1208.49,358.409 1209.32,457.939 1210.15,444.099 1210.98,401.833 1211.81,444.099 1212.64,343.669 1213.47,498.731 1214.3,401.833 1215.13,457.939 1215.96,498.731 1216.79,358.409 1217.62,471.656 1218.45,444.099 1219.27,430.136 1220.1,298.625 1220.93,401.833 1221.76,457.939 1222.59,387.49 1223.42,430.136 1224.25,444.099 1225.08,358.409 1225.91,485.253 1226.74,387.49 1227.57,430.136 1228.4,343.669 1229.22,498.731 1230.05,343.669 1230.88,512.093 1231.71,430.136 1232.54,387.49 1233.37,471.656 1234.2,343.669 1235.03,457.939 1235.86,430.136 1236.69,401.833 1237.52,485.253 1238.35,471.656 1239.17,358.409 1240,358.409 1240.83,358.409 1241.66,343.669 1242.49,313.779 1243.32,525.338 1244.15,387.49 1244.98,387.49 1245.81,328.793 1246.64,373.015 1247.47,401.833 1248.3,416.048 1249.13,485.253 1249.95,430.136 1250.78,401.833 1251.61,283.33 1252.44,416.048 1253.27,564.395 1254.1,387.49 1254.93,551.488 1255.76,373.015 1256.59,401.833 1257.42,416.048 1258.25,358.409 1259.08,373.015 1259.9,401.833 1260.73,444.099 1261.56,373.015 1262.39,401.833 1263.22,313.779 1264.05,313.779 1264.88,430.136 1265.71,444.099 1266.54,444.099 1267.37,328.793 1268.2,430.136 1269.03,358.409 1269.86,416.048 1270.68,444.099 1271.51,328.793 1272.34,485.253 1273.17,358.409 1274,416.048 1274.83,328.793 1275.66,358.409 1276.49,358.409 1277.32,343.669 1278.15,328.793 1278.98,485.253 1279.81,283.33 1280.63,373.015 1281.46,444.099 1282.29,416.048 1283.12,471.656 1283.95,387.49 1284.78,498.731 1285.61,343.669 1286.44,538.469 1287.27,283.33 1288.1,457.939 1288.93,343.669 1289.76,283.33 1290.58,416.048 1291.41,444.099 1292.24,401.833 1293.07,373.015 1293.9,430.136 1294.73,430.136 1295.56,471.656 1296.39,401.833 1297.22,373.015 1298.05,444.099 1298.88,416.048 1299.71,430.136 1300.54,387.49 1301.36,457.939 1302.19,401.833 1303.02,358.409 1303.85,401.833 1304.68,498.731 1305.51,373.015 1306.34,343.669 1307.17,358.409 1308,267.891 1308.83,401.833 1309.66,401.833 1310.49,401.833 1311.31,430.136 1312.14,457.939 1312.97,328.793 1313.8,358.409 1314.63,401.833 1315.46,328.793 1316.29,298.625 1317.12,401.833 1317.95,358.409 1318.78,373.015 1319.61,267.891 1320.44,343.669 1321.27,343.669 1322.09,358.409 1322.92,298.625 1323.75,401.833 1324.58,373.015 1325.41,343.669 1326.24,328.793 1327.07,416.048 1327.9,430.136 1328.73,313.779 1329.56,358.409 1330.39,430.136 1331.22,298.625 1332.04,373.015 1332.87,343.669 1333.7,298.625 1334.53,551.488 1335.36,267.891 1336.19,457.939 1337.02,416.048 1337.85,298.625 1338.68,373.015 1339.51,343.669 1340.34,358.409 1341.17,252.307 1341.99,430.136 1342.82,401.833 1343.65,343.669 1344.48,444.099 1345.31,358.409 1346.14,430.136 1346.97,430.136 1347.8,457.939 1348.63,328.793 1349.46,220.693 1350.29,358.409 1351.12,401.833 1351.95,283.33 1352.77,373.015 1353.6,401.833 1354.43,343.669 1355.26,387.49 1356.09,373.015 1356.92,313.779 1357.75,358.409 1358.58,401.833 1359.41,298.625 1360.24,343.669 1361.07,343.669 1361.9,252.307 1362.72,485.253 1363.55,343.669 1364.38,328.793 1365.21,358.409 1366.04,343.669 1366.87,358.409 1367.7,298.625 1368.53,525.338 1369.36,401.833 1370.19,457.939 1371.02,328.793 1371.85,220.693 1372.67,416.048 1373.5,373.015 1374.33,343.669 1375.16,236.575 1375.99,358.409 1376.82,328.793 1377.65,328.793 1378.48,343.669 1379.31,358.409 1380.14,401.833 1380.97,204.659 1381.8,444.099 1382.63,401.833 1383.45,328.793 1384.28,512.093 1385.11,373.015 1385.94,343.669 1386.77,298.625 1387.6,204.659 1388.43,387.49 1389.26,236.575 1390.09,313.779 1390.92,457.939 1391.75,457.939 1392.58,236.575 1393.4,358.409 1394.23,343.669 1395.06,313.779 1395.89,343.669 1396.72,343.669 1397.55,358.409 1398.38,373.015 1399.21,343.669 1400.04,328.793 1400.87,430.136 1401.7,283.33 1402.53,358.409 1403.36,373.015 1404.18,298.625 1405.01,283.33 1405.84,252.307 1406.67,373.015 1407.5,444.099 1408.33,343.669 1409.16,358.409 1409.99,444.099 1410.82,444.099 1411.65,416.048 1412.48,328.793 1413.31,416.048 1414.13,122.131 1414.96,313.779 1415.79,373.015 1416.62,283.33 1417.45,267.891 1418.28,328.793 1419.11,373.015 1419.94,373.015 1420.77,430.136 1421.6,236.575 1422.43,358.409 1423.26,298.625 1424.08,358.409 1424.91,328.793 1425.74,283.33 1426.57,387.49 1427.4,401.833 1428.23,328.793 1429.06,343.669 1429.89,236.575 1430.72,358.409 1431.55,358.409 1432.38,387.49 1433.21,343.669 1434.04,512.093 1434.86,328.793 1435.69,444.099 1436.52,343.669 1437.35,343.669 1438.18,252.307 1439.01,298.625 1439.84,313.779 1440.67,283.33 1441.5,267.891 1442.33,457.939 1443.16,252.307 1443.99,283.33 1444.81,416.048 1445.64,298.625 1446.47,373.015 1447.3,401.833 1448.13,328.793 1448.96,498.731 1449.79,328.793 1450.62,220.693 1451.45,220.693 1452.28,328.793 1453.11,343.669 1453.94,283.33 1454.77,358.409 1455.59,283.33 1456.42,252.307 1457.25,283.33 1458.08,373.015 1458.91,358.409 1459.74,252.307 1460.57,313.779 1461.4,358.409 1462.23,416.048 1463.06,204.659 1463.89,401.833 1464.72,343.669 1465.54,283.33 1466.37,430.136 1467.2,283.33 1468.03,416.048 1468.86,220.693 1469.69,328.793 1470.52,343.669 1471.35,313.779 1472.18,373.015 1473.01,298.625 1473.84,328.793 1474.67,283.33 1475.49,401.833 1476.32,430.136 1477.15,457.939 1477.98,401.833 1478.81,387.49 1479.64,343.669 1480.47,343.669 1481.3,401.833 1482.13,328.793 1482.96,204.659 1483.79,252.307 1484.62,358.409 1485.45,328.793 1486.27,373.015 1487.1,252.307 1487.93,313.779 1488.76,298.625 1489.59,267.891 1490.42,298.625 1491.25,373.015 1492.08,358.409 1492.91,204.659 1493.74,373.015 1494.57,416.048 1495.4,283.33 1496.22,387.49 1497.05,373.015 1497.88,313.779 1498.71,298.625 1499.54,358.409 1500.37,343.669 1501.2,387.49 1502.03,343.669 1502.86,220.693 1503.69,313.779 1504.52,457.939 1505.35,387.49 1506.18,267.891 1507,220.693 1507.83,358.409 1508.66,328.793 1509.49,328.793 1510.32,401.833 1511.15,485.253 1511.98,343.669 1512.81,373.015 1513.64,343.669 1514.47,387.49 1515.3,401.833 1516.13,430.136 1516.95,267.891 1517.78,328.793 1518.61,267.891 1519.44,236.575 1520.27,204.659 1521.1,387.49 1521.93,358.409 1522.76,283.33 1523.59,373.015 1524.42,343.669 1525.25,387.49 1526.08,283.33 1526.9,343.669 1527.73,236.575 1528.56,298.625 1529.39,283.33 1530.22,401.833 1531.05,430.136 1531.88,267.891 1532.71,267.891 1533.54,188.471 1534.37,401.833 1535.2,298.625 1536.03,343.669 1536.86,343.669 1537.68,298.625 1538.51,401.833 1539.34,328.793 1540.17,283.33 1541,220.693 1541.83,358.409 1542.66,328.793 1543.49,220.693 1544.32,373.015 1545.15,313.779 1545.98,358.409 1546.81,252.307 1547.63,313.779 1548.46,373.015 1549.29,267.891 1550.12,313.779 1550.95,401.833 1551.78,313.779 1552.61,283.33 1553.44,252.307 1554.27,252.307 1555.1,328.793 1555.93,204.659 1556.76,430.136 1557.58,204.659 1558.41,313.779 1559.24,283.33 1560.07,387.49 1560.9,358.409 1561.73,313.779 1562.56,283.33 1563.39,444.099 1564.22,343.669 1565.05,416.048 1565.88,387.49 1566.71,283.33 1567.54,298.625 1568.36,204.659 1569.19,298.625 1570.02,298.625 1570.85,313.779 1571.68,358.409 1572.51,328.793 1573.34,172.126 1574.17,416.048 1575,220.693 1575.83,343.669 1576.66,343.669 1577.49,328.793 1578.31,328.793 1579.14,298.625 1579.97,236.575 1580.8,298.625 1581.63,188.471 1582.46,298.625 1583.29,252.307 1584.12,283.33 1584.95,358.409 1585.78,267.891 1586.61,343.669 1587.44,373.015 1588.27,401.833 1589.09,236.575 1589.92,358.409 1590.75,358.409 1591.58,343.669 1592.41,267.891 1593.24,298.625 1594.07,298.625 1594.9,220.693 1595.73,343.669 1596.56,236.575 1597.39,430.136 1598.22,387.49 1599.04,298.625 1599.87,343.669 1600.7,298.625 1601.53,313.779 1602.36,387.49 1603.19,401.833 1604.02,313.779 1604.85,283.33 1605.68,298.625 1606.51,236.575 1607.34,298.625 1608.17,313.779 1608.99,267.891 1609.82,267.891 1610.65,343.669 1611.48,252.307 1612.31,298.625 1613.14,298.625 1613.97,267.891 1614.8,283.33 1615.63,298.625 1616.46,387.49 1617.29,298.625 1618.12,313.779 1618.95,172.126 1619.77,313.779 1620.6,416.048 1621.43,252.307 1622.26,373.015 1623.09,298.625 1623.92,313.779 1624.75,236.575 1625.58,358.409 1626.41,358.409 1627.24,358.409 1628.07,252.307 1628.9,401.833 1629.72,343.669 1630.55,298.625 1631.38,236.575 1632.21,252.307 1633.04,416.048 1633.87,252.307 1634.7,252.307 1635.53,313.779 1636.36,343.669 1637.19,387.49 1638.02,313.779 1638.85,220.693 1639.68,204.659 1640.5,298.625 1641.33,252.307 1642.16,220.693 1642.99,155.623 1643.82,358.409 1644.65,313.779 1645.48,401.833 1646.31,283.33 1647.14,204.659 1647.97,204.659 1648.8,204.659 1649.63,343.669 1650.45,373.015 1651.28,252.307 1652.11,267.891 1652.94,298.625 1653.77,313.779 1654.6,298.625 1655.43,343.669 1656.26,343.669 1657.09,236.575 1657.92,313.779 1658.75,252.307 1659.58,252.307 1660.4,387.49 1661.23,298.625 1662.06,358.409 1662.89,236.575 1663.72,313.779 1664.55,155.623 1665.38,204.659 1666.21,283.33 1667.04,358.409 1667.87,220.693 1668.7,267.891 1669.53,298.625 1670.36,267.891 1671.18,313.779 1672.01,252.307 1672.84,298.625 1673.67,313.779 1674.5,373.015 1675.33,298.625 1676.16,298.625 1676.99,267.891 1677.82,252.307 1678.65,204.659 1679.48,343.669 1680.31,283.33 1681.13,172.126 1681.96,401.833 1682.79,252.307 1683.62,236.575 1684.45,298.625 1685.28,313.779 1686.11,220.693 1686.94,252.307 1687.77,313.779 1688.6,298.625 1689.43,401.833 1690.26,298.625 1691.08,267.891 1691.91,328.793 1692.74,373.015 1693.57,267.891 1694.4,220.693 1695.23,252.307 1696.06,267.891 1696.89,204.659 1697.72,267.891 1698.55,220.693 1699.38,387.49 1700.21,220.693 1701.04,313.779 1701.86,328.793 1702.69,236.575 1703.52,358.409 1704.35,343.669 1705.18,283.33 1706.01,283.33 1706.84,267.891 1707.67,283.33 1708.5,252.307 1709.33,220.693 1710.16,298.625 1710.99,188.471 1711.81,204.659 1712.64,236.575 1713.47,343.669 1714.3,236.575 1715.13,172.126 1715.96,267.891 1716.79,401.833 1717.62,313.779 1718.45,298.625 1719.28,267.891 1720.11,267.891 1720.94,313.779 1721.77,283.33 1722.59,267.891 1723.42,313.779 1724.25,236.575 1725.08,252.307 1725.91,373.015 1726.74,373.015 1727.57,188.471 1728.4,267.891 1729.23,401.833 1730.06,252.307 1730.89,220.693 1731.72,204.659 1732.54,602.463 1733.37,358.409 1734.2,220.693 1735.03,236.575 1735.86,267.891 1736.69,283.33 1737.52,267.891 1738.35,252.307 1739.18,283.33 1740.01,283.33 1740.84,220.693 1741.67,267.891 1742.49,267.891 1743.32,236.575 1744.15,267.891 1744.98,236.575 1745.81,220.693 1746.64,236.575 1747.47,283.33 1748.3,204.659 1749.13,267.891 1749.96,236.575 1750.79,236.575 1751.62,328.793 1752.45,252.307 1753.27,283.33 1754.1,252.307 1754.93,267.891 1755.76,267.891 1756.59,267.891 1757.42,220.693 1758.25,155.623 1759.08,220.693 1759.91,283.33 1760.74,236.575 1761.57,298.625 1762.4,328.793 1763.22,358.409 1764.05,172.126 1764.88,283.33 1765.71,328.793 1766.54,313.779 1767.37,387.49 1768.2,328.793 1769.03,343.669 1769.86,188.471 1770.69,328.793 1771.52,252.307 1772.35,138.959 1773.18,236.575 1774,343.669 1774.83,416.048 1775.66,267.891 1776.49,313.779 1777.32,298.625 1778.15,252.307 1778.98,220.693 1779.81,172.126 1780.64,172.126 1781.47,220.693 1782.3,155.623 1783.13,283.33 1783.95,204.659 1784.78,252.307 1785.61,252.307 1786.44,220.693 1787.27,343.669 1788.1,283.33 1788.93,313.779 1789.76,328.793 1790.59,204.659 1791.42,401.833 1792.25,358.409 1793.08,204.659 1793.9,298.625 1794.73,267.891 1795.56,267.891 1796.39,358.409 1797.22,387.49 1798.05,267.891 1798.88,457.939 1799.71,283.33 1800.54,267.891 1801.37,267.891 1802.2,236.575 1803.03,267.891 1803.86,220.693 1804.68,298.625 1805.51,220.693 1806.34,283.33 1807.17,236.575 1808,220.693 1808.83,220.693 1809.66,328.793 1810.49,252.307 1811.32,236.575 1812.15,298.625 1812.98,471.656 1813.81,252.307 1814.63,220.693 1815.46,236.575 1816.29,358.409 1817.12,252.307 1817.95,220.693 1818.78,373.015 1819.61,298.625 1820.44,313.779 1821.27,204.659 1822.1,220.693 1822.93,283.33 1823.76,236.575 1824.59,313.779 1825.41,172.126 1826.24,267.891 1827.07,220.693 1827.9,343.669 1828.73,220.693 1829.56,298.625 1830.39,220.693 1831.22,358.409 1832.05,328.793 1832.88,252.307 1833.71,298.625 1834.54,373.015 1835.36,122.131 1836.19,328.793 1837.02,267.891 1837.85,236.575 1838.68,204.659 1839.51,298.625 1840.34,236.575 1841.17,252.307 1842,122.131 1842.83,313.779 1843.66,283.33 1844.49,188.471 1845.31,155.623 1846.14,343.669 1846.97,267.891 1847.8,283.33 1848.63,267.891 1849.46,138.959 1850.29,204.659 1851.12,313.779 1851.95,204.659 1852.78,387.49 1853.61,298.625 1854.44,236.575 1855.27,267.891 1856.09,267.891 1856.92,267.891 1857.75,267.891 1858.58,236.575 1859.41,252.307 1860.24,188.471 1861.07,236.575 1861.9,373.015 1862.73,252.307 1863.56,188.471 1864.39,236.575 1865.22,188.471 1866.04,252.307 1866.87,298.625 1867.7,220.693 1868.53,220.693 1869.36,220.693 1870.19,283.33 1871.02,172.126 1871.85,313.779 1872.68,236.575 1873.51,283.33 1874.34,204.659 1875.17,204.659 1875.99,220.693 1876.82,236.575 1877.65,252.307 1878.48,343.669 1879.31,358.409 1880.14,220.693 1880.97,267.891 1881.8,387.49 1882.63,204.659 1883.46,313.779 1884.29,155.623 1885.12,328.793 1885.95,267.891 1886.77,267.891 1887.6,236.575 1888.43,283.33 1889.26,204.659 1890.09,267.891 1890.92,236.575 1891.75,328.793 1892.58,298.625 1893.41,220.693 1894.24,267.891 1895.07,220.693 1895.9,204.659 1896.72,236.575 1897.55,236.575 1898.38,267.891 1899.21,313.779 1900.04,298.625 1900.87,252.307 1901.7,252.307 1902.53,267.891 1903.36,313.779 1904.19,283.33 1905.02,252.307 1905.85,252.307 1906.68,204.659 1907.5,188.471 1908.33,283.33 1909.16,220.693 1909.99,172.126 1910.82,204.659 1911.65,485.253 1912.48,220.693 1913.31,236.575 1914.14,313.779 1914.97,188.471 1915.8,188.471 1916.63,252.307 1917.45,220.693 1918.28,155.623 1919.11,401.833 1919.94,252.307 1920.77,155.623 1921.6,283.33 1922.43,298.625 1923.26,252.307 1924.09,138.959 1924.92,236.575 1925.75,188.471 1926.58,220.693 1927.4,220.693 1928.23,252.307 1929.06,220.693 1929.89,172.126 1930.72,252.307 1931.55,204.659 1932.38,313.779 1933.21,236.575 1934.04,204.659 1934.87,252.307 1935.7,236.575 1936.53,204.659 1937.36,267.891 1938.18,188.471 1939.01,343.669 1939.84,220.693 1940.67,267.891 1941.5,204.659 1942.33,138.959 1943.16,252.307 1943.99,298.625 1944.82,188.471 1945.65,155.623 1946.48,204.659 1947.31,204.659 1948.13,138.959 1948.96,267.891 1949.79,220.693 1950.62,204.659 1951.45,188.471 1952.28,252.307 1953.11,220.693 1953.94,267.891 1954.77,220.693 1955.6,188.471 1956.43,267.891 1957.26,298.625 1958.09,236.575 1958.91,267.891 1959.74,236.575 1960.57,236.575 1961.4,220.693 1962.23,252.307 1963.06,220.693 1963.89,236.575 1964.72,252.307 1965.55,204.659 1966.38,155.623 1967.21,252.307 1968.04,188.471 1968.86,204.659 1969.69,267.891 1970.52,204.659 1971.35,172.126 1972.18,236.575 1973.01,220.693 1973.84,220.693 1974.67,267.891 1975.5,236.575 1976.33,188.471 1977.16,236.575 1977.99,236.575 1978.81,283.33 1979.64,298.625 1980.47,220.693 1981.3,188.471 1982.13,188.471 1982.96,328.793 1983.79,236.575 1984.62,155.623 1985.45,252.307 1986.28,236.575 1987.11,358.409 1987.94,267.891 1988.77,204.659 1989.59,298.625 1990.42,283.33 1991.25,172.126 1992.08,220.693 1992.91,220.693 1993.74,204.659 1994.57,236.575 1995.4,298.625 1996.23,236.575 1997.06,252.307 1997.89,204.659 1998.72,283.33 1999.54,328.793 2000.37,172.126 2001.2,283.33 2002.03,204.659 2002.86,172.126 2003.69,283.33 2004.52,138.959 2005.35,204.659 2006.18,236.575 2007.01,155.623 2007.84,220.693 2008.67,236.575 2009.49,328.793 2010.32,220.693 2011.15,204.659 2011.98,122.131 2012.81,188.471 2013.64,188.471 2014.47,188.471 2015.3,220.693 2016.13,188.471 2016.96,138.959 2017.79,204.659 2018.62,236.575 2019.45,155.623 2020.27,252.307 2021.1,252.307 2021.93,204.659 2022.76,188.471 2023.59,220.693 2024.42,188.471 2025.25,204.659 2026.08,252.307 2026.91,138.959 2027.74,204.659 2028.57,220.693 2029.4,236.575 2030.22,172.126 2031.05,252.307 2031.88,220.693 2032.71,138.959 2033.54,283.33 2034.37,204.659 2035.2,204.659 2036.03,172.126 2036.86,172.126 2037.69,172.126 2038.52,204.659 2039.35,188.471 2040.18,236.575 2041,188.471 2041.83,236.575 2042.66,252.307 2043.49,236.575 2044.32,138.959 2045.15,236.575 2045.98,267.891 2046.81,236.575 2047.64,252.307 2048.47,220.693 2049.3,252.307 2050.13,204.659 2050.95,138.959 2051.78,220.693 2052.61,204.659 2053.44,188.471 2054.27,188.471 2055.1,236.575 2055.93,188.471 2056.76,298.625 2057.59,172.126 2058.42,252.307 2059.25,252.307 2060.08,298.625 2060.9,252.307 2061.73,267.891 2062.56,252.307 2063.39,220.693 2064.22,236.575 2065.05,252.307 2065.88,236.575 2066.71,283.33 2067.54,220.693 2068.37,220.693 2069.2,155.623 2070.03,204.659 2070.86,188.471 2071.68,172.126 2072.51,283.33 2073.34,220.693 2074.17,252.307 2075,283.33 2075.83,172.126 2076.66,236.575 2077.49,220.693 2078.32,155.623 2079.15,188.471 2079.98,172.126 2080.81,188.471 2081.63,155.623 2082.46,188.471 2083.29,172.126 2084.12,188.471 2084.95,188.471 2085.78,155.623 2086.61,188.471 2087.44,204.659 2088.27,155.623 2089.1,172.126 2089.93,252.307 2090.76,188.471 2091.59,252.307 2092.41,313.779 2093.24,220.693 2094.07,313.779 2094.9,373.015 2095.73,236.575 2096.56,313.779 2097.39,204.659 2098.22,172.126 2099.05,204.659 2099.88,283.33 2100.71,87.9763 2101.54,105.138 2102.36,188.471 2103.19,267.891 2104.02,252.307 2104.85,220.693 2105.68,236.575 2106.51,252.307 2107.34,220.693 2108.17,204.659 2109,188.471 2109.83,204.659 2110.66,236.575 2111.49,267.891 2112.31,236.575 2113.14,204.659 2113.97,172.126 2114.8,267.891 2115.63,267.891 2116.46,252.307 2117.29,252.307 2118.12,188.471 2118.95,252.307 2119.78,220.693 2120.61,267.891 2121.44,252.307 2122.27,236.575 2123.09,267.891 2123.92,236.575 2124.75,138.959 2125.58,252.307 2126.41,267.891 2127.24,252.307 2128.07,283.33 2128.9,298.625 2129.73,283.33 2130.56,188.471 2131.39,298.625 2132.22,220.693 2133.04,252.307 2133.87,343.669 2134.7,138.959 2135.53,155.623 2136.36,204.659 2137.19,138.959 2138.02,204.659 2138.85,252.307 2139.68,236.575 2140.51,267.891 2141.34,283.33 2142.17,220.693 2143,172.126 2143.82,283.33 2144.65,298.625 2145.48,204.659 2146.31,267.891 2147.14,267.891 2147.97,155.623 2148.8,122.131 2149.63,236.575 2150.46,204.659 2151.29,172.126 2152.12,155.623 2152.95,204.659 2153.77,236.575 2154.6,313.779 2155.43,298.625 2156.26,236.575 2157.09,236.575 2157.92,155.623 2158.75,188.471 2159.58,172.126 2160.41,236.575 2161.24,188.471 2162.07,236.575 2162.9,204.659 2163.72,204.659 2164.55,204.659 2165.38,172.126 2166.21,155.623 2167.04,220.693 2167.87,188.471 2168.7,204.659 2169.53,172.126 2170.36,204.659 2171.19,267.891 2172.02,155.623 2172.85,283.33 2173.68,172.126 2174.5,220.693 2175.33,188.471 2176.16,220.693 2176.99,267.891 2177.82,252.307 2178.65,204.659 2179.48,220.693 2180.31,283.33 2181.14,252.307 2181.97,313.779 2182.8,204.659 2183.63,252.307 2184.45,252.307 2185.28,236.575 2186.11,267.891 2186.94,172.126 2187.77,252.307 2188.6,220.693 2189.43,236.575 2190.26,236.575 2191.09,252.307 2191.92,252.307 2192.75,188.471 2193.58,252.307 2194.4,358.409 2195.23,220.693 2196.06,188.471 2196.89,172.126 2197.72,267.891 2198.55,252.307 2199.38,236.575 2200.21,236.575 2201.04,188.471 2201.87,138.959 2202.7,155.623 2203.53,387.49 2204.36,252.307 2205.18,236.575 2206.01,220.693 2206.84,220.693 2207.67,204.659 2208.5,236.575 2209.33,252.307 2210.16,188.471 2210.99,155.623 2211.82,236.575 2212.65,267.891 2213.48,220.693 2214.31,220.693 2215.13,267.891 2215.96,298.625 2216.79,204.659 2217.62,172.126 2218.45,204.659 2219.28,220.693 2220.11,204.659 2220.94,358.409 2221.77,105.138 2222.6,122.131 2223.43,220.693 2224.26,155.623 2225.09,267.891 2225.91,267.891 2226.74,188.471 2227.57,188.471 2228.4,172.126 2229.23,267.891 2230.06,220.693 2230.89,252.307 2231.72,220.693 2232.55,188.471 2233.38,204.659 2234.21,172.126 2235.04,155.623 2235.86,204.659 2236.69,220.693 2237.52,313.779 2238.35,267.891 2239.18,220.693 2240.01,236.575 2240.84,188.471 2241.67,188.471 2242.5,172.126 2243.33,220.693 2244.16,188.471 2244.99,252.307 2245.81,172.126 2246.64,204.659 2247.47,236.575 2248.3,105.138 2249.13,155.623 2249.96,188.471 2250.79,283.33 2251.62,138.959 2252.45,204.659 2253.28,172.126 2254.11,188.471 2254.94,267.891 2255.77,188.471 2256.59,220.693 2257.42,252.307 2258.25,155.623 2259.08,252.307 2259.91,138.959 2260.74,283.33 2261.57,188.471 2262.4,188.471 2263.23,204.659 2264.06,220.693 2264.89,155.623 2265.72,236.575 2266.54,155.623 2267.37,188.471 2268.2,267.891 2269.03,172.126 2269.86,188.471 2270.69,204.659 2271.52,138.959 2272.35,267.891 2273.18,172.126 2274.01,267.891 2274.84,204.659 2275.67,105.138 2276.5,236.575 2277.32,172.126 2278.15,204.659 2278.98,236.575 2279.81,172.126 2280.64,204.659 2281.47,313.779 2282.3,252.307 2283.13,252.307 2283.96,204.659 2284.79,298.625 2285.62,236.575 2286.45,220.693 2287.27,220.693 2288.1,204.659 2288.93,122.131 2289.76,155.623 2290.59,204.659 "/>
<path clip-path="url(#clip730)" d="M2007.46 1438.47 L2279.54 1438.47 L2279.54 1334.79 L2007.46 1334.79  Z" fill="#ffffff" fill-rule="evenodd" fill-opacity="1"/>
<polyline clip-path="url(#clip730)" style="stroke:#000000; stroke-linecap:round; stroke-linejoin:round; stroke-width:4; stroke-opacity:1; fill:none" points="2007.46,1438.47 2279.54,1438.47 2279.54,1334.79 2007.46,1334.79 2007.46,1438.47 "/>
<polyline clip-path="url(#clip730)" style="stroke:#009af9; stroke-linecap:round; stroke-linejoin:round; stroke-width:4; stroke-opacity:1; fill:none" points="2031.87,1386.63 2178.3,1386.63 "/>
<path clip-path="url(#clip730)" d="M2216.55 1406.32 Q2214.74 1410.95 2213.03 1412.36 Q2211.32 1413.78 2208.44 1413.78 L2205.04 1413.78 L2205.04 1410.21 L2207.54 1410.21 Q2209.3 1410.21 2210.27 1409.38 Q2211.25 1408.54 2212.43 1405.44 L2213.19 1403.5 L2202.7 1377.99 L2207.22 1377.99 L2215.32 1398.27 L2223.42 1377.99 L2227.94 1377.99 L2216.55 1406.32 Z" fill="#000000" fill-rule="nonzero" fill-opacity="1" /><path clip-path="url(#clip730)" d="M2235.23 1399.98 L2242.87 1399.98 L2242.87 1373.61 L2234.56 1375.28 L2234.56 1371.02 L2242.82 1369.35 L2247.5 1369.35 L2247.5 1399.98 L2255.13 1399.98 L2255.13 1403.91 L2235.23 1403.91 L2235.23 1399.98 Z" fill="#000000" fill-rule="nonzero" fill-opacity="1" /></svg>
