<?xml version="1.0" encoding="utf-8"?>
<svg xmlns="http://www.w3.org/2000/svg" xmlns:xlink="http://www.w3.org/1999/xlink" width="600" height="400" viewBox="0 0 2400 1600">
<defs>
  <clipPath id="clip990">
    <rect x="0" y="0" width="2400" height="1600"/>
  </clipPath>
</defs>
<path clip-path="url(#clip990)" d="M0 1600 L2400 1600 L2400 0 L0 0  Z" fill="#ffffff" fill-rule="evenodd" fill-opacity="1"/>
<defs>
  <clipPath id="clip991">
    <rect x="480" y="0" width="1681" height="1600"/>
  </clipPath>
</defs>
<path clip-path="url(#clip990)" d="M156.274 1486.45 L2352.76 1486.45 L2352.76 47.2441 L156.274 47.2441  Z" fill="#ffffff" fill-rule="evenodd" fill-opacity="1"/>
<defs>
  <clipPath id="clip992">
    <rect x="156" y="47" width="2197" height="1440"/>
  </clipPath>
</defs>
<polyline clip-path="url(#clip992)" style="stroke:#000000; stroke-linecap:round; stroke-linejoin:round; stroke-width:2; stroke-opacity:0.1; fill:none" points="218.439,1486.45 218.439,47.2441 "/>
<polyline clip-path="url(#clip992)" style="stroke:#000000; stroke-linecap:round; stroke-linejoin:round; stroke-width:2; stroke-opacity:0.1; fill:none" points="736.995,1486.45 736.995,47.2441 "/>
<polyline clip-path="url(#clip992)" style="stroke:#000000; stroke-linecap:round; stroke-linejoin:round; stroke-width:2; stroke-opacity:0.1; fill:none" points="1255.55,1486.45 1255.55,47.2441 "/>
<polyline clip-path="url(#clip992)" style="stroke:#000000; stroke-linecap:round; stroke-linejoin:round; stroke-width:2; stroke-opacity:0.1; fill:none" points="1774.11,1486.45 1774.11,47.2441 "/>
<polyline clip-path="url(#clip992)" style="stroke:#000000; stroke-linecap:round; stroke-linejoin:round; stroke-width:2; stroke-opacity:0.1; fill:none" points="2292.67,1486.45 2292.67,47.2441 "/>
<polyline clip-path="url(#clip990)" style="stroke:#000000; stroke-linecap:round; stroke-linejoin:round; stroke-width:4; stroke-opacity:1; fill:none" points="156.274,1486.45 2352.76,1486.45 "/>
<polyline clip-path="url(#clip990)" style="stroke:#000000; stroke-linecap:round; stroke-linejoin:round; stroke-width:4; stroke-opacity:1; fill:none" points="218.439,1486.45 218.439,1467.55 "/>
<polyline clip-path="url(#clip990)" style="stroke:#000000; stroke-linecap:round; stroke-linejoin:round; stroke-width:4; stroke-opacity:1; fill:none" points="736.995,1486.45 736.995,1467.55 "/>
<polyline clip-path="url(#clip990)" style="stroke:#000000; stroke-linecap:round; stroke-linejoin:round; stroke-width:4; stroke-opacity:1; fill:none" points="1255.55,1486.45 1255.55,1467.55 "/>
<polyline clip-path="url(#clip990)" style="stroke:#000000; stroke-linecap:round; stroke-linejoin:round; stroke-width:4; stroke-opacity:1; fill:none" points="1774.11,1486.45 1774.11,1467.55 "/>
<polyline clip-path="url(#clip990)" style="stroke:#000000; stroke-linecap:round; stroke-linejoin:round; stroke-width:4; stroke-opacity:1; fill:none" points="2292.67,1486.45 2292.67,1467.55 "/>
<path clip-path="url(#clip990)" d="M218.439 1517.37 Q214.828 1517.37 212.999 1520.93 Q211.193 1524.47 211.193 1531.6 Q211.193 1538.71 212.999 1542.27 Q214.828 1545.82 218.439 1545.82 Q222.073 1545.82 223.879 1542.27 Q225.707 1538.71 225.707 1531.6 Q225.707 1524.47 223.879 1520.93 Q222.073 1517.37 218.439 1517.37 M218.439 1513.66 Q224.249 1513.66 227.304 1518.27 Q230.383 1522.85 230.383 1531.6 Q230.383 1540.33 227.304 1544.94 Q224.249 1549.52 218.439 1549.52 Q212.629 1549.52 209.55 1544.94 Q206.494 1540.33 206.494 1531.6 Q206.494 1522.85 209.55 1518.27 Q212.629 1513.66 218.439 1513.66 Z" fill="#000000" fill-rule="nonzero" fill-opacity="1" /><path clip-path="url(#clip990)" d="M700.688 1544.91 L717.007 1544.91 L717.007 1548.85 L695.063 1548.85 L695.063 1544.91 Q697.725 1542.16 702.308 1537.53 Q706.915 1532.88 708.095 1531.53 Q710.34 1529.01 711.22 1527.27 Q712.123 1525.51 712.123 1523.82 Q712.123 1521.07 710.178 1519.33 Q708.257 1517.6 705.155 1517.6 Q702.956 1517.6 700.503 1518.36 Q698.072 1519.13 695.294 1520.68 L695.294 1515.95 Q698.118 1514.82 700.572 1514.24 Q703.026 1513.66 705.063 1513.66 Q710.433 1513.66 713.628 1516.35 Q716.822 1519.03 716.822 1523.52 Q716.822 1525.65 716.012 1527.57 Q715.225 1529.47 713.118 1532.07 Q712.54 1532.74 709.438 1535.95 Q706.336 1539.15 700.688 1544.91 Z" fill="#000000" fill-rule="nonzero" fill-opacity="1" /><path clip-path="url(#clip990)" d="M726.868 1514.29 L745.225 1514.29 L745.225 1518.22 L731.151 1518.22 L731.151 1526.7 Q732.169 1526.35 733.188 1526.19 Q734.206 1526 735.225 1526 Q741.012 1526 744.391 1529.17 Q747.771 1532.34 747.771 1537.76 Q747.771 1543.34 744.299 1546.44 Q740.826 1549.52 734.507 1549.52 Q732.331 1549.52 730.063 1549.15 Q727.817 1548.78 725.41 1548.04 L725.41 1543.34 Q727.493 1544.47 729.715 1545.03 Q731.938 1545.58 734.414 1545.58 Q738.419 1545.58 740.757 1543.48 Q743.095 1541.37 743.095 1537.76 Q743.095 1534.15 740.757 1532.04 Q738.419 1529.94 734.414 1529.94 Q732.539 1529.94 730.664 1530.35 Q728.813 1530.77 726.868 1531.65 L726.868 1514.29 Z" fill="#000000" fill-rule="nonzero" fill-opacity="1" /><path clip-path="url(#clip990)" d="M766.984 1517.37 Q763.373 1517.37 761.544 1520.93 Q759.738 1524.47 759.738 1531.6 Q759.738 1538.71 761.544 1542.27 Q763.373 1545.82 766.984 1545.82 Q770.618 1545.82 772.423 1542.27 Q774.252 1538.71 774.252 1531.6 Q774.252 1524.47 772.423 1520.93 Q770.618 1517.37 766.984 1517.37 M766.984 1513.66 Q772.794 1513.66 775.849 1518.27 Q778.928 1522.85 778.928 1531.6 Q778.928 1540.33 775.849 1544.94 Q772.794 1549.52 766.984 1549.52 Q761.174 1549.52 758.095 1544.94 Q755.039 1540.33 755.039 1531.6 Q755.039 1522.85 758.095 1518.27 Q761.174 1513.66 766.984 1513.66 Z" fill="#000000" fill-rule="nonzero" fill-opacity="1" /><path clip-path="url(#clip990)" d="M1215.17 1514.29 L1233.53 1514.29 L1233.53 1518.22 L1219.45 1518.22 L1219.45 1526.7 Q1220.47 1526.35 1221.49 1526.19 Q1222.51 1526 1223.53 1526 Q1229.31 1526 1232.69 1529.17 Q1236.07 1532.34 1236.07 1537.76 Q1236.07 1543.34 1232.6 1546.44 Q1229.13 1549.52 1222.81 1549.52 Q1220.63 1549.52 1218.36 1549.15 Q1216.12 1548.78 1213.71 1548.04 L1213.71 1543.34 Q1215.8 1544.47 1218.02 1545.03 Q1220.24 1545.58 1222.72 1545.58 Q1226.72 1545.58 1229.06 1543.48 Q1231.4 1541.37 1231.4 1537.76 Q1231.4 1534.15 1229.06 1532.04 Q1226.72 1529.94 1222.72 1529.94 Q1220.84 1529.94 1218.97 1530.35 Q1217.11 1530.77 1215.17 1531.65 L1215.17 1514.29 Z" fill="#000000" fill-rule="nonzero" fill-opacity="1" /><path clip-path="url(#clip990)" d="M1255.29 1517.37 Q1251.67 1517.37 1249.85 1520.93 Q1248.04 1524.47 1248.04 1531.6 Q1248.04 1538.71 1249.85 1542.27 Q1251.67 1545.82 1255.29 1545.82 Q1258.92 1545.82 1260.73 1542.27 Q1262.55 1538.71 1262.55 1531.6 Q1262.55 1524.47 1260.73 1520.93 Q1258.92 1517.37 1255.29 1517.37 M1255.29 1513.66 Q1261.1 1513.66 1264.15 1518.27 Q1267.23 1522.85 1267.23 1531.6 Q1267.23 1540.33 1264.15 1544.94 Q1261.1 1549.52 1255.29 1549.52 Q1249.48 1549.52 1246.4 1544.94 Q1243.34 1540.33 1243.34 1531.6 Q1243.34 1522.85 1246.4 1518.27 Q1249.48 1513.66 1255.29 1513.66 Z" fill="#000000" fill-rule="nonzero" fill-opacity="1" /><path clip-path="url(#clip990)" d="M1285.45 1517.37 Q1281.84 1517.37 1280.01 1520.93 Q1278.2 1524.47 1278.2 1531.6 Q1278.2 1538.71 1280.01 1542.27 Q1281.84 1545.82 1285.45 1545.82 Q1289.08 1545.82 1290.89 1542.27 Q1292.72 1538.71 1292.72 1531.6 Q1292.72 1524.47 1290.89 1520.93 Q1289.08 1517.37 1285.45 1517.37 M1285.45 1513.66 Q1291.26 1513.66 1294.31 1518.27 Q1297.39 1522.85 1297.39 1531.6 Q1297.39 1540.33 1294.31 1544.94 Q1291.26 1549.52 1285.45 1549.52 Q1279.64 1549.52 1276.56 1544.94 Q1273.5 1540.33 1273.5 1531.6 Q1273.5 1522.85 1276.56 1518.27 Q1279.64 1513.66 1285.45 1513.66 Z" fill="#000000" fill-rule="nonzero" fill-opacity="1" /><path clip-path="url(#clip990)" d="M1732.38 1514.29 L1754.61 1514.29 L1754.61 1516.28 L1742.06 1548.85 L1737.18 1548.85 L1748.98 1518.22 L1732.38 1518.22 L1732.38 1514.29 Z" fill="#000000" fill-rule="nonzero" fill-opacity="1" /><path clip-path="url(#clip990)" d="M1763.77 1514.29 L1782.13 1514.29 L1782.13 1518.22 L1768.06 1518.22 L1768.06 1526.7 Q1769.07 1526.35 1770.09 1526.19 Q1771.11 1526 1772.13 1526 Q1777.92 1526 1781.3 1529.17 Q1784.68 1532.34 1784.68 1537.76 Q1784.68 1543.34 1781.2 1546.44 Q1777.73 1549.52 1771.41 1549.52 Q1769.24 1549.52 1766.97 1549.15 Q1764.72 1548.78 1762.31 1548.04 L1762.31 1543.34 Q1764.4 1544.47 1766.62 1545.03 Q1768.84 1545.58 1771.32 1545.58 Q1775.32 1545.58 1777.66 1543.48 Q1780 1541.37 1780 1537.76 Q1780 1534.15 1777.66 1532.04 Q1775.32 1529.94 1771.32 1529.94 Q1769.44 1529.94 1767.57 1530.35 Q1765.72 1530.77 1763.77 1531.65 L1763.77 1514.29 Z" fill="#000000" fill-rule="nonzero" fill-opacity="1" /><path clip-path="url(#clip990)" d="M1803.89 1517.37 Q1800.28 1517.37 1798.45 1520.93 Q1796.64 1524.47 1796.64 1531.6 Q1796.64 1538.71 1798.45 1542.27 Q1800.28 1545.82 1803.89 1545.82 Q1807.52 1545.82 1809.33 1542.27 Q1811.16 1538.71 1811.16 1531.6 Q1811.16 1524.47 1809.33 1520.93 Q1807.52 1517.37 1803.89 1517.37 M1803.89 1513.66 Q1809.7 1513.66 1812.75 1518.27 Q1815.83 1522.85 1815.83 1531.6 Q1815.83 1540.33 1812.75 1544.94 Q1809.7 1549.52 1803.89 1549.52 Q1798.08 1549.52 1795 1544.94 Q1791.94 1540.33 1791.94 1531.6 Q1791.94 1522.85 1795 1518.27 Q1798.08 1513.66 1803.89 1513.66 Z" fill="#000000" fill-rule="nonzero" fill-opacity="1" /><path clip-path="url(#clip990)" d="M2237.19 1544.91 L2244.83 1544.91 L2244.83 1518.55 L2236.52 1520.21 L2236.52 1515.95 L2244.78 1514.29 L2249.46 1514.29 L2249.46 1544.91 L2257.1 1544.91 L2257.1 1548.85 L2237.19 1548.85 L2237.19 1544.91 Z" fill="#000000" fill-rule="nonzero" fill-opacity="1" /><path clip-path="url(#clip990)" d="M2276.54 1517.37 Q2272.93 1517.37 2271.1 1520.93 Q2269.3 1524.47 2269.3 1531.6 Q2269.3 1538.71 2271.1 1542.27 Q2272.93 1545.82 2276.54 1545.82 Q2280.18 1545.82 2281.98 1542.27 Q2283.81 1538.71 2283.81 1531.6 Q2283.81 1524.47 2281.98 1520.93 Q2280.18 1517.37 2276.54 1517.37 M2276.54 1513.66 Q2282.35 1513.66 2285.41 1518.27 Q2288.49 1522.85 2288.49 1531.6 Q2288.49 1540.33 2285.41 1544.94 Q2282.35 1549.52 2276.54 1549.52 Q2270.73 1549.52 2267.65 1544.94 Q2264.6 1540.33 2264.6 1531.6 Q2264.6 1522.85 2267.65 1518.27 Q2270.73 1513.66 2276.54 1513.66 Z" fill="#000000" fill-rule="nonzero" fill-opacity="1" /><path clip-path="url(#clip990)" d="M2306.7 1517.37 Q2303.09 1517.37 2301.27 1520.93 Q2299.46 1524.47 2299.46 1531.6 Q2299.46 1538.71 2301.27 1542.27 Q2303.09 1545.82 2306.7 1545.82 Q2310.34 1545.82 2312.14 1542.27 Q2313.97 1538.71 2313.97 1531.6 Q2313.97 1524.47 2312.14 1520.93 Q2310.34 1517.37 2306.7 1517.37 M2306.7 1513.66 Q2312.51 1513.66 2315.57 1518.27 Q2318.65 1522.85 2318.65 1531.6 Q2318.65 1540.33 2315.57 1544.94 Q2312.51 1549.52 2306.7 1549.52 Q2300.89 1549.52 2297.82 1544.94 Q2294.76 1540.33 2294.76 1531.6 Q2294.76 1522.85 2297.82 1518.27 Q2300.89 1513.66 2306.7 1513.66 Z" fill="#000000" fill-rule="nonzero" fill-opacity="1" /><path clip-path="url(#clip990)" d="M2336.87 1517.37 Q2333.26 1517.37 2331.43 1520.93 Q2329.62 1524.47 2329.62 1531.6 Q2329.62 1538.71 2331.43 1542.27 Q2333.26 1545.82 2336.87 1545.82 Q2340.5 1545.82 2342.31 1542.27 Q2344.14 1538.71 2344.14 1531.6 Q2344.14 1524.47 2342.31 1520.93 Q2340.5 1517.37 2336.87 1517.37 M2336.87 1513.66 Q2342.68 1513.66 2345.73 1518.27 Q2348.81 1522.85 2348.81 1531.6 Q2348.81 1540.33 2345.73 1544.94 Q2342.68 1549.52 2336.87 1549.52 Q2331.06 1549.52 2327.98 1544.94 Q2324.92 1540.33 2324.92 1531.6 Q2324.92 1522.85 2327.98 1518.27 Q2331.06 1513.66 2336.87 1513.66 Z" fill="#000000" fill-rule="nonzero" fill-opacity="1" /><polyline clip-path="url(#clip992)" style="stroke:#000000; stroke-linecap:round; stroke-linejoin:round; stroke-width:2; stroke-opacity:0.1; fill:none" points="156.274,1445.72 2352.76,1445.72 "/>
<polyline clip-path="url(#clip992)" style="stroke:#000000; stroke-linecap:round; stroke-linejoin:round; stroke-width:2; stroke-opacity:0.1; fill:none" points="156.274,1106.28 2352.76,1106.28 "/>
<polyline clip-path="url(#clip992)" style="stroke:#000000; stroke-linecap:round; stroke-linejoin:round; stroke-width:2; stroke-opacity:0.1; fill:none" points="156.274,766.846 2352.76,766.846 "/>
<polyline clip-path="url(#clip992)" style="stroke:#000000; stroke-linecap:round; stroke-linejoin:round; stroke-width:2; stroke-opacity:0.1; fill:none" points="156.274,427.411 2352.76,427.411 "/>
<polyline clip-path="url(#clip992)" style="stroke:#000000; stroke-linecap:round; stroke-linejoin:round; stroke-width:2; stroke-opacity:0.1; fill:none" points="156.274,87.9763 2352.76,87.9763 "/>
<polyline clip-path="url(#clip990)" style="stroke:#000000; stroke-linecap:round; stroke-linejoin:round; stroke-width:4; stroke-opacity:1; fill:none" points="156.274,1486.45 156.274,47.2441 "/>
<polyline clip-path="url(#clip990)" style="stroke:#000000; stroke-linecap:round; stroke-linejoin:round; stroke-width:4; stroke-opacity:1; fill:none" points="156.274,1445.72 175.172,1445.72 "/>
<polyline clip-path="url(#clip990)" style="stroke:#000000; stroke-linecap:round; stroke-linejoin:round; stroke-width:4; stroke-opacity:1; fill:none" points="156.274,1106.28 175.172,1106.28 "/>
<polyline clip-path="url(#clip990)" style="stroke:#000000; stroke-linecap:round; stroke-linejoin:round; stroke-width:4; stroke-opacity:1; fill:none" points="156.274,766.846 175.172,766.846 "/>
<polyline clip-path="url(#clip990)" style="stroke:#000000; stroke-linecap:round; stroke-linejoin:round; stroke-width:4; stroke-opacity:1; fill:none" points="156.274,427.411 175.172,427.411 "/>
<polyline clip-path="url(#clip990)" style="stroke:#000000; stroke-linecap:round; stroke-linejoin:round; stroke-width:4; stroke-opacity:1; fill:none" points="156.274,87.9763 175.172,87.9763 "/>
<path clip-path="url(#clip990)" d="M62.9365 1431.51 Q59.3254 1431.51 57.4967 1435.08 Q55.6912 1438.62 55.6912 1445.75 Q55.6912 1452.86 57.4967 1456.42 Q59.3254 1459.96 62.9365 1459.96 Q66.5707 1459.96 68.3763 1456.42 Q70.205 1452.86 70.205 1445.75 Q70.205 1438.62 68.3763 1435.08 Q66.5707 1431.51 62.9365 1431.51 M62.9365 1427.81 Q68.7467 1427.81 71.8022 1432.42 Q74.8809 1437 74.8809 1445.75 Q74.8809 1454.48 71.8022 1459.08 Q68.7467 1463.67 62.9365 1463.67 Q57.1264 1463.67 54.0477 1459.08 Q50.9921 1454.48 50.9921 1445.75 Q50.9921 1437 54.0477 1432.42 Q57.1264 1427.81 62.9365 1427.81 Z" fill="#000000" fill-rule="nonzero" fill-opacity="1" /><path clip-path="url(#clip990)" d="M83.0984 1457.12 L87.9827 1457.12 L87.9827 1463 L83.0984 1463 L83.0984 1457.12 Z" fill="#000000" fill-rule="nonzero" fill-opacity="1" /><path clip-path="url(#clip990)" d="M108.746 1443.85 Q105.598 1443.85 103.746 1446.01 Q101.918 1448.16 101.918 1451.91 Q101.918 1455.63 103.746 1457.81 Q105.598 1459.96 108.746 1459.96 Q111.895 1459.96 113.723 1457.81 Q115.575 1455.63 115.575 1451.91 Q115.575 1448.16 113.723 1446.01 Q111.895 1443.85 108.746 1443.85 M118.029 1429.2 L118.029 1433.46 Q116.27 1432.63 114.464 1432.19 Q112.682 1431.75 110.922 1431.75 Q106.293 1431.75 103.839 1434.87 Q101.409 1438 101.061 1444.32 Q102.427 1442.3 104.487 1441.24 Q106.547 1440.15 109.024 1440.15 Q114.233 1440.15 117.242 1443.32 Q120.274 1446.47 120.274 1451.91 Q120.274 1457.23 117.126 1460.45 Q113.978 1463.67 108.746 1463.67 Q102.751 1463.67 99.5798 1459.08 Q96.4085 1454.48 96.4085 1445.75 Q96.4085 1437.56 100.297 1432.69 Q104.186 1427.81 110.737 1427.81 Q112.496 1427.81 114.279 1428.16 Q116.084 1428.51 118.029 1429.2 Z" fill="#000000" fill-rule="nonzero" fill-opacity="1" /><path clip-path="url(#clip990)" d="M64.0013 1092.08 Q60.3902 1092.08 58.5615 1095.64 Q56.756 1099.19 56.756 1106.32 Q56.756 1113.42 58.5615 1116.99 Q60.3902 1120.53 64.0013 1120.53 Q67.6356 1120.53 69.4411 1116.99 Q71.2698 1113.42 71.2698 1106.32 Q71.2698 1099.19 69.4411 1095.64 Q67.6356 1092.08 64.0013 1092.08 M64.0013 1088.38 Q69.8115 1088.38 72.867 1092.98 Q75.9457 1097.57 75.9457 1106.32 Q75.9457 1115.04 72.867 1119.65 Q69.8115 1124.23 64.0013 1124.23 Q58.1912 1124.23 55.1125 1119.65 Q52.0569 1115.04 52.0569 1106.32 Q52.0569 1097.57 55.1125 1092.98 Q58.1912 1088.38 64.0013 1088.38 Z" fill="#000000" fill-rule="nonzero" fill-opacity="1" /><path clip-path="url(#clip990)" d="M84.1632 1117.68 L89.0475 1117.68 L89.0475 1123.56 L84.1632 1123.56 L84.1632 1117.68 Z" fill="#000000" fill-rule="nonzero" fill-opacity="1" /><path clip-path="url(#clip990)" d="M98.0521 1089 L120.274 1089 L120.274 1090.99 L107.728 1123.56 L102.844 1123.56 L114.649 1092.94 L98.0521 1092.94 L98.0521 1089 Z" fill="#000000" fill-rule="nonzero" fill-opacity="1" /><path clip-path="url(#clip990)" d="M63.1911 752.645 Q59.58 752.645 57.7513 756.209 Q55.9458 759.751 55.9458 766.881 Q55.9458 773.987 57.7513 777.552 Q59.58 781.094 63.1911 781.094 Q66.8254 781.094 68.6309 777.552 Q70.4596 773.987 70.4596 766.881 Q70.4596 759.751 68.6309 756.209 Q66.8254 752.645 63.1911 752.645 M63.1911 748.941 Q69.0013 748.941 72.0568 753.547 Q75.1355 758.131 75.1355 766.881 Q75.1355 775.608 72.0568 780.214 Q69.0013 784.797 63.1911 784.797 Q57.381 784.797 54.3023 780.214 Q51.2468 775.608 51.2468 766.881 Q51.2468 758.131 54.3023 753.547 Q57.381 748.941 63.1911 748.941 Z" fill="#000000" fill-rule="nonzero" fill-opacity="1" /><path clip-path="url(#clip990)" d="M83.3531 778.246 L88.2373 778.246 L88.2373 784.126 L83.3531 784.126 L83.3531 778.246 Z" fill="#000000" fill-rule="nonzero" fill-opacity="1" /><path clip-path="url(#clip990)" d="M108.422 767.714 Q105.089 767.714 103.168 769.496 Q101.27 771.279 101.27 774.404 Q101.27 777.529 103.168 779.311 Q105.089 781.094 108.422 781.094 Q111.756 781.094 113.677 779.311 Q115.598 777.506 115.598 774.404 Q115.598 771.279 113.677 769.496 Q111.779 767.714 108.422 767.714 M103.746 765.723 Q100.737 764.983 99.0474 762.922 Q97.3808 760.862 97.3808 757.899 Q97.3808 753.756 100.321 751.348 Q103.284 748.941 108.422 748.941 Q113.584 748.941 116.524 751.348 Q119.464 753.756 119.464 757.899 Q119.464 760.862 117.774 762.922 Q116.108 764.983 113.121 765.723 Q116.501 766.51 118.376 768.802 Q120.274 771.094 120.274 774.404 Q120.274 779.427 117.195 782.112 Q114.14 784.797 108.422 784.797 Q102.705 784.797 99.6261 782.112 Q96.5706 779.427 96.5706 774.404 Q96.5706 771.094 98.4687 768.802 Q100.367 766.51 103.746 765.723 M102.034 758.339 Q102.034 761.024 103.7 762.529 Q105.39 764.033 108.422 764.033 Q111.432 764.033 113.121 762.529 Q114.834 761.024 114.834 758.339 Q114.834 755.654 113.121 754.149 Q111.432 752.645 108.422 752.645 Q105.39 752.645 103.7 754.149 Q102.034 755.654 102.034 758.339 Z" fill="#000000" fill-rule="nonzero" fill-opacity="1" /><path clip-path="url(#clip990)" d="M63.2837 413.21 Q59.6726 413.21 57.8439 416.775 Q56.0384 420.316 56.0384 427.446 Q56.0384 434.552 57.8439 438.117 Q59.6726 441.659 63.2837 441.659 Q66.918 441.659 68.7235 438.117 Q70.5522 434.552 70.5522 427.446 Q70.5522 420.316 68.7235 416.775 Q66.918 413.21 63.2837 413.21 M63.2837 409.506 Q69.0939 409.506 72.1494 414.113 Q75.2281 418.696 75.2281 427.446 Q75.2281 436.173 72.1494 440.779 Q69.0939 445.362 63.2837 445.362 Q57.4736 445.362 54.3949 440.779 Q51.3393 436.173 51.3393 427.446 Q51.3393 418.696 54.3949 414.113 Q57.4736 409.506 63.2837 409.506 Z" fill="#000000" fill-rule="nonzero" fill-opacity="1" /><path clip-path="url(#clip990)" d="M83.4457 438.812 L88.3299 438.812 L88.3299 444.691 L83.4457 444.691 L83.4457 438.812 Z" fill="#000000" fill-rule="nonzero" fill-opacity="1" /><path clip-path="url(#clip990)" d="M98.6539 443.974 L98.6539 439.714 Q100.413 440.548 102.219 440.987 Q104.024 441.427 105.76 441.427 Q110.39 441.427 112.82 438.325 Q115.274 435.2 115.621 428.858 Q114.279 430.849 112.219 431.913 Q110.158 432.978 107.658 432.978 Q102.473 432.978 99.4409 429.853 Q96.4317 426.705 96.4317 421.265 Q96.4317 415.941 99.5798 412.724 Q102.728 409.506 107.959 409.506 Q113.955 409.506 117.103 414.113 Q120.274 418.696 120.274 427.446 Q120.274 435.617 116.385 440.501 Q112.52 445.362 105.969 445.362 Q104.209 445.362 102.404 445.015 Q100.598 444.668 98.6539 443.974 M107.959 429.321 Q111.108 429.321 112.936 427.168 Q114.788 425.015 114.788 421.265 Q114.788 417.538 112.936 415.386 Q111.108 413.21 107.959 413.21 Q104.811 413.21 102.959 415.386 Q101.131 417.538 101.131 421.265 Q101.131 425.015 102.959 427.168 Q104.811 429.321 107.959 429.321 Z" fill="#000000" fill-rule="nonzero" fill-opacity="1" /><path clip-path="url(#clip990)" d="M53.9088 101.321 L61.5476 101.321 L61.5476 74.9555 L53.2375 76.6222 L53.2375 72.3629 L61.5013 70.6963 L66.1772 70.6963 L66.1772 101.321 L73.8161 101.321 L73.8161 105.256 L53.9088 105.256 L53.9088 101.321 Z" fill="#000000" fill-rule="nonzero" fill-opacity="1" /><path clip-path="url(#clip990)" d="M83.2605 99.3767 L88.1447 99.3767 L88.1447 105.256 L83.2605 105.256 L83.2605 99.3767 Z" fill="#000000" fill-rule="nonzero" fill-opacity="1" /><path clip-path="url(#clip990)" d="M108.33 73.775 Q104.719 73.775 102.89 77.3398 Q101.084 80.8814 101.084 88.011 Q101.084 95.1174 102.89 98.6822 Q104.719 102.224 108.33 102.224 Q111.964 102.224 113.77 98.6822 Q115.598 95.1174 115.598 88.011 Q115.598 80.8814 113.77 77.3398 Q111.964 73.775 108.33 73.775 M108.33 70.0713 Q114.14 70.0713 117.195 74.6777 Q120.274 79.261 120.274 88.011 Q120.274 96.7378 117.195 101.344 Q114.14 105.928 108.33 105.928 Q102.52 105.928 99.4409 101.344 Q96.3854 96.7378 96.3854 88.011 Q96.3854 79.261 99.4409 74.6777 Q102.52 70.0713 108.33 70.0713 Z" fill="#000000" fill-rule="nonzero" fill-opacity="1" /><polyline clip-path="url(#clip992)" style="stroke:#009af9; stroke-linecap:round; stroke-linejoin:round; stroke-width:4; stroke-opacity:1; fill:none" points="218.439,970.507 220.513,970.507 222.587,1106.28 224.661,1106.28 226.736,834.733 228.81,1106.28 230.884,698.959 232.958,1242.05 235.033,1038.39 237.107,1309.94 239.181,1038.39 241.255,1038.39 243.329,1445.72 245.404,902.62 247.478,1174.17 249.552,698.959 251.626,970.507 253.701,902.62 255.775,1106.28 257.849,1309.94 259.923,1106.28 261.998,698.959 264.072,359.524 266.146,834.733 268.22,1038.39 270.294,1174.17 272.369,1242.05 274.443,1106.28 276.517,902.62 278.591,698.959 280.666,834.733 282.74,1309.94 284.814,766.846 286.888,1038.39 288.962,1038.39 291.037,970.507 293.111,902.62 295.185,970.507 297.259,698.959 299.334,834.733 301.408,970.507 303.482,698.959 305.556,631.072 307.63,698.959 309.705,970.507 311.779,970.507 313.853,631.072 315.927,563.185 318.002,1106.28 320.076,563.185 322.15,970.507 324.224,834.733 326.299,834.733 328.373,698.959 330.447,698.959 332.521,902.62 334.595,698.959 336.67,698.959 338.744,563.185 340.818,834.733 342.892,427.411 344.967,631.072 347.041,563.185 349.115,766.846 351.189,766.846 353.263,495.298 355.338,563.185 357.412,495.298 359.486,563.185 361.56,359.524 363.635,631.072 365.709,427.411 367.783,495.298 369.857,698.959 371.932,291.637 374.006,766.846 376.08,563.185 378.154,631.072 380.228,698.959 382.303,563.185 384.377,698.959 386.451,359.524 388.525,834.733 390.6,698.959 392.674,834.733 394.748,359.524 396.822,495.298 398.896,631.072 400.971,495.298 403.045,495.298 405.119,766.846 407.193,631.072 409.268,359.524 411.342,495.298 413.416,563.185 415.49,766.846 417.565,359.524 419.639,631.072 421.713,563.185 423.787,698.959 425.861,291.637 427.936,359.524 430.01,902.62 432.084,427.411 434.158,1106.28 436.233,291.637 438.307,766.846 440.381,631.072 442.455,495.298 444.529,563.185 446.604,495.298 448.678,834.733 450.752,563.185 452.826,427.411 454.901,495.298 456.975,427.411 459.049,631.072 461.123,223.75 463.198,495.298 465.272,359.524 467.346,698.959 469.42,427.411 471.494,495.298 473.569,427.411 475.643,291.637 477.717,698.959 479.791,563.185 481.866,359.524 483.94,563.185 486.014,495.298 488.088,495.298 490.162,359.524 492.237,698.959 494.311,427.411 496.385,631.072 498.459,563.185 500.534,427.411 502.608,427.411 504.682,427.411 506.756,427.411 508.83,359.524 510.905,563.185 512.979,359.524 515.053,495.298 517.127,359.524 519.202,291.637 521.276,359.524 523.35,359.524 525.424,359.524 527.499,427.411 529.573,223.75 531.647,495.298 533.721,495.298 535.795,291.637 537.87,291.637 539.944,631.072 542.018,631.072 544.092,631.072 546.167,698.959 548.241,359.524 550.315,563.185 552.389,427.411 554.463,698.959 556.538,291.637 558.612,291.637 560.686,631.072 562.76,427.411 564.835,563.185 566.909,631.072 568.983,563.185 571.057,495.298 573.132,495.298 575.206,359.524 577.28,427.411 579.354,495.298 581.428,359.524 583.503,427.411 585.577,359.524 587.651,495.298 589.725,223.75 591.8,495.298 593.874,495.298 595.948,427.411 598.022,291.637 600.096,359.524 602.171,359.524 604.245,427.411 606.319,291.637 608.393,359.524 610.468,359.524 612.542,359.524 614.616,427.411 616.69,359.524 618.765,427.411 620.839,563.185 622.913,495.298 624.987,698.959 627.061,155.863 629.136,291.637 631.21,427.411 633.284,291.637 635.358,155.863 637.433,359.524 639.507,155.863 641.581,223.75 643.655,563.185 645.729,495.298 647.804,291.637 649.878,427.411 651.952,495.298 654.026,291.637 656.101,155.863 658.175,291.637 660.249,359.524 662.323,359.524 664.398,291.637 666.472,223.75 668.546,291.637 670.62,359.524 672.694,359.524 674.769,87.9763 676.843,359.524 678.917,223.75 680.991,359.524 683.066,291.637 685.14,359.524 687.214,291.637 689.288,155.863 691.362,155.863 693.437,291.637 695.511,223.75 697.585,155.863 699.659,87.9763 701.734,223.75 703.808,155.863 705.882,155.863 707.956,87.9763 710.03,155.863 712.105,291.637 714.179,359.524 716.253,427.411 718.327,427.411 720.402,359.524 722.476,291.637 724.55,155.863 726.624,223.75 728.699,291.637 730.773,155.863 732.847,495.298 734.921,155.863 736.995,291.637 739.07,223.75 741.144,223.75 743.218,427.411 745.292,359.524 747.367,291.637 749.441,223.75 751.515,495.298 753.589,291.637 755.663,155.863 757.738,155.863 759.812,223.75 761.886,291.637 763.96,223.75 766.035,291.637 768.109,155.863 770.183,359.524 772.257,291.637 774.332,223.75 776.406,291.637 778.48,427.411 780.554,223.75 782.628,223.75 784.703,155.863 786.777,291.637 788.851,155.863 790.925,223.75 793,223.75 795.074,291.637 797.148,155.863 799.222,155.863 801.296,223.75 803.371,87.9763 805.445,291.637 807.519,291.637 809.593,291.637 811.668,631.072 813.742,155.863 815.816,291.637 817.89,87.9763 819.965,223.75 822.039,291.637 824.113,223.75 826.187,223.75 828.261,223.75 830.336,223.75 832.41,155.863 834.484,155.863 836.558,291.637 838.633,359.524 840.707,223.75 842.781,223.75 844.855,291.637 846.929,359.524 849.004,223.75 851.078,291.637 853.152,223.75 855.226,291.637 857.301,87.9763 859.375,87.9763 861.449,87.9763 863.523,223.75 865.598,291.637 867.672,87.9763 869.746,155.863 871.82,87.9763 873.894,155.863 875.969,291.637 878.043,155.863 880.117,291.637 882.191,155.863 884.266,87.9763 886.34,291.637 888.414,87.9763 890.488,155.863 892.562,291.637 894.637,291.637 896.711,223.75 898.785,291.637 900.859,87.9763 902.934,291.637 905.008,155.863 907.082,223.75 909.156,223.75 911.23,223.75 913.305,87.9763 915.379,87.9763 917.453,427.411 919.527,87.9763 921.602,155.863 923.676,155.863 925.75,291.637 927.824,155.863 929.899,223.75 931.973,155.863 934.047,359.524 936.121,155.863 938.195,223.75 940.27,359.524 942.344,291.637 944.418,291.637 946.492,291.637 948.567,223.75 950.641,155.863 952.715,87.9763 954.789,87.9763 956.863,155.863 958.938,223.75 961.012,155.863 963.086,155.863 965.16,155.863 967.235,291.637 969.309,155.863 971.383,223.75 973.457,87.9763 975.532,155.863 977.606,87.9763 979.68,155.863 981.754,223.75 983.828,223.75 985.903,291.637 987.977,155.863 990.051,87.9763 992.125,87.9763 994.2,155.863 996.274,291.637 998.348,291.637 1000.42,155.863 1002.5,223.75 1004.57,223.75 1006.64,223.75 1008.72,291.637 1010.79,155.863 1012.87,155.863 1014.94,223.75 1017.02,223.75 1019.09,87.9763 1021.16,87.9763 1023.24,87.9763 1025.31,155.863 1027.39,87.9763 1029.46,223.75 1031.54,87.9763 1033.61,155.863 1035.68,87.9763 1037.76,155.863 1039.83,87.9763 1041.91,155.863 1043.98,155.863 1046.06,359.524 1048.13,223.75 1050.2,87.9763 1052.28,291.637 1054.35,223.75 1056.43,87.9763 1058.5,155.863 1060.57,155.863 1062.65,155.863 1064.72,223.75 1066.8,291.637 1068.87,155.863 1070.95,291.637 1073.02,427.411 1075.09,155.863 1077.17,87.9763 1079.24,291.637 1081.32,155.863 1083.39,155.863 1085.47,223.75 1087.54,87.9763 1089.61,87.9763 1091.69,155.863 1093.76,155.863 1095.84,155.863 1097.91,155.863 1099.99,87.9763 1102.06,223.75 1104.13,87.9763 1106.21,291.637 1108.28,223.75 1110.36,87.9763 1112.43,291.637 1114.5,155.863 1116.58,291.637 1118.65,155.863 1120.73,87.9763 1122.8,155.863 1124.88,87.9763 1126.95,223.75 1129.02,291.637 1131.1,87.9763 1133.17,155.863 1135.25,155.863 1137.32,223.75 1139.4,87.9763 1141.47,87.9763 1143.54,87.9763 1145.62,223.75 1147.69,291.637 1149.77,87.9763 1151.84,87.9763 1153.92,155.863 1155.99,155.863 1158.06,155.863 1160.14,291.637 1162.21,155.863 1164.29,223.75 1166.36,87.9763 1168.43,87.9763 1170.51,291.637 1172.58,223.75 1174.66,87.9763 1176.73,223.75 1178.81,87.9763 1180.88,291.637 1182.95,223.75 1185.03,155.863 1187.1,87.9763 1189.18,223.75 1191.25,87.9763 1193.33,155.863 1195.4,223.75 1197.47,223.75 1199.55,155.863 1201.62,291.637 1203.7,87.9763 1205.77,223.75 1207.84,291.637 1209.92,223.75 1211.99,291.637 1214.07,223.75 1216.14,155.863 1218.22,87.9763 1220.29,155.863 1222.36,291.637 1224.44,87.9763 1226.51,87.9763 1228.59,87.9763 1230.66,87.9763 1232.74,155.863 1234.81,87.9763 1236.88,155.863 1238.96,155.863 1241.03,155.863 1243.11,87.9763 1245.18,155.863 1247.26,87.9763 1249.33,87.9763 1251.4,155.863 1253.48,87.9763 1255.55,155.863 1257.63,155.863 1259.7,87.9763 1261.77,223.75 1263.85,291.637 1265.92,87.9763 1268,155.863 1270.07,87.9763 1272.15,155.863 1274.22,223.75 1276.29,223.75 1278.37,291.637 1280.44,155.863 1282.52,291.637 1284.59,87.9763 1286.67,87.9763 1288.74,223.75 1290.81,155.863 1292.89,87.9763 1294.96,155.863 1297.04,87.9763 1299.11,155.863 1301.19,87.9763 1303.26,87.9763 1305.33,155.863 1307.41,87.9763 1309.48,87.9763 1311.56,87.9763 1313.63,155.863 1315.7,223.75 1317.78,87.9763 1319.85,87.9763 1321.93,87.9763 1324,155.863 1326.08,87.9763 1328.15,155.863 1330.22,87.9763 1332.3,223.75 1334.37,155.863 1336.45,87.9763 1338.52,223.75 1340.6,155.863 1342.67,223.75 1344.74,87.9763 1346.82,223.75 1348.89,155.863 1350.97,87.9763 1353.04,155.863 1355.12,223.75 1357.19,87.9763 1359.26,223.75 1361.34,155.863 1363.41,87.9763 1365.49,87.9763 1367.56,223.75 1369.63,87.9763 1371.71,223.75 1373.78,87.9763 1375.86,291.637 1377.93,87.9763 1380.01,223.75 1382.08,87.9763 1384.15,223.75 1386.23,223.75 1388.3,155.863 1390.38,87.9763 1392.45,155.863 1394.53,155.863 1396.6,291.637 1398.67,155.863 1400.75,155.863 1402.82,87.9763 1404.9,87.9763 1406.97,155.863 1409.04,155.863 1411.12,155.863 1413.19,87.9763 1415.27,87.9763 1417.34,87.9763 1419.42,87.9763 1421.49,87.9763 1423.56,155.863 1425.64,87.9763 1427.71,155.863 1429.79,87.9763 1431.86,155.863 1433.94,155.863 1436.01,155.863 1438.08,155.863 1440.16,87.9763 1442.23,87.9763 1444.31,87.9763 1446.38,223.75 1448.46,87.9763 1450.53,87.9763 1452.6,87.9763 1454.68,359.524 1456.75,155.863 1458.83,291.637 1460.9,87.9763 1462.97,87.9763 1465.05,223.75 1467.12,87.9763 1469.2,155.863 1471.27,87.9763 1473.35,155.863 1475.42,87.9763 1477.49,223.75 1479.57,87.9763 1481.64,155.863 1483.72,87.9763 1485.79,155.863 1487.87,87.9763 1489.94,87.9763 1492.01,87.9763 1494.09,87.9763 1496.16,87.9763 1498.24,155.863 1500.31,223.75 1502.39,291.637 1504.46,155.863 1506.53,87.9763 1508.61,87.9763 1510.68,223.75 1512.76,87.9763 1514.83,87.9763 1516.9,155.863 1518.98,87.9763 1521.05,155.863 1523.13,223.75 1525.2,87.9763 1527.28,223.75 1529.35,87.9763 1531.42,155.863 1533.5,87.9763 1535.57,223.75 1537.65,155.863 1539.72,155.863 1541.8,87.9763 1543.87,87.9763 1545.94,155.863 1548.02,87.9763 1550.09,155.863 1552.17,155.863 1554.24,155.863 1556.32,87.9763 1558.39,155.863 1560.46,87.9763 1562.54,87.9763 1564.61,155.863 1566.69,87.9763 1568.76,155.863 1570.83,87.9763 1572.91,87.9763 1574.98,223.75 1577.06,155.863 1579.13,87.9763 1581.21,87.9763 1583.28,155.863 1585.35,155.863 1587.43,223.75 1589.5,223.75 1591.58,223.75 1593.65,223.75 1595.73,223.75 1597.8,223.75 1599.87,155.863 1601.95,87.9763 1604.02,155.863 1606.1,87.9763 1608.17,155.863 1610.24,155.863 1612.32,155.863 1614.39,223.75 1616.47,87.9763 1618.54,155.863 1620.62,87.9763 1622.69,223.75 1624.76,155.863 1626.84,155.863 1628.91,87.9763 1630.99,155.863 1633.06,155.863 1635.14,155.863 1637.21,155.863 1639.28,87.9763 1641.36,87.9763 1643.43,87.9763 1645.51,87.9763 1647.58,87.9763 1649.66,155.863 1651.73,155.863 1653.8,87.9763 1655.88,223.75 1657.95,87.9763 1660.03,87.9763 1662.1,223.75 1664.17,155.863 1666.25,87.9763 1668.32,87.9763 1670.4,87.9763 1672.47,87.9763 1674.55,155.863 1676.62,87.9763 1678.69,87.9763 1680.77,87.9763 1682.84,87.9763 1684.92,155.863 1686.99,87.9763 1689.07,223.75 1691.14,155.863 1693.21,291.637 1695.29,87.9763 1697.36,223.75 1699.44,291.637 1701.51,155.863 1703.59,87.9763 1705.66,87.9763 1707.73,87.9763 1709.81,87.9763 1711.88,291.637 1713.96,87.9763 1716.03,223.75 1718.1,87.9763 1720.18,87.9763 1722.25,155.863 1724.33,155.863 1726.4,155.863 1728.48,87.9763 1730.55,87.9763 1732.62,87.9763 1734.7,155.863 1736.77,87.9763 1738.85,87.9763 1740.92,87.9763 1743,223.75 1745.07,87.9763 1747.14,87.9763 1749.22,155.863 1751.29,155.863 1753.37,87.9763 1755.44,87.9763 1757.52,223.75 1759.59,291.637 1761.66,87.9763 1763.74,87.9763 1765.81,155.863 1767.89,87.9763 1769.96,155.863 1772.03,155.863 1774.11,291.637 1776.18,155.863 1778.26,87.9763 1780.33,155.863 1782.41,155.863 1784.48,87.9763 1786.55,155.863 1788.63,87.9763 1790.7,87.9763 1792.78,87.9763 1794.85,87.9763 1796.93,223.75 1799,87.9763 1801.07,155.863 1803.15,87.9763 1805.22,87.9763 1807.3,87.9763 1809.37,87.9763 1811.44,155.863 1813.52,155.863 1815.59,87.9763 1817.67,87.9763 1819.74,155.863 1821.82,155.863 1823.89,155.863 1825.96,87.9763 1828.04,223.75 1830.11,87.9763 1832.19,87.9763 1834.26,155.863 1836.34,87.9763 1838.41,87.9763 1840.48,87.9763 1842.56,87.9763 1844.63,87.9763 1846.71,87.9763 1848.78,223.75 1850.86,87.9763 1852.93,155.863 1855,87.9763 1857.08,87.9763 1859.15,155.863 1861.23,155.863 1863.3,223.75 1865.37,223.75 1867.45,155.863 1869.52,155.863 1871.6,87.9763 1873.67,223.75 1875.75,87.9763 1877.82,155.863 1879.89,155.863 1881.97,87.9763 1884.04,87.9763 1886.12,223.75 1888.19,155.863 1890.27,87.9763 1892.34,87.9763 1894.41,87.9763 1896.49,155.863 1898.56,155.863 1900.64,155.863 1902.71,87.9763 1904.79,223.75 1906.86,155.863 1908.93,87.9763 1911.01,87.9763 1913.08,87.9763 1915.16,87.9763 1917.23,223.75 1919.3,155.863 1921.38,223.75 1923.45,223.75 1925.53,87.9763 1927.6,155.863 1929.68,223.75 1931.75,155.863 1933.82,87.9763 1935.9,87.9763 1937.97,87.9763 1940.05,87.9763 1942.12,87.9763 1944.2,155.863 1946.27,155.863 1948.34,155.863 1950.42,223.75 1952.49,87.9763 1954.57,155.863 1956.64,87.9763 1958.72,155.863 1960.79,155.863 1962.86,155.863 1964.94,223.75 1967.01,87.9763 1969.09,155.863 1971.16,87.9763 1973.23,155.863 1975.31,87.9763 1977.38,223.75 1979.46,155.863 1981.53,87.9763 1983.61,155.863 1985.68,87.9763 1987.75,223.75 1989.83,155.863 1991.9,87.9763 1993.98,87.9763 1996.05,87.9763 1998.13,155.863 2000.2,87.9763 2002.27,87.9763 2004.35,155.863 2006.42,87.9763 2008.5,87.9763 2010.57,155.863 2012.64,87.9763 2014.72,155.863 2016.79,87.9763 2018.87,155.863 2020.94,155.863 2023.02,155.863 2025.09,87.9763 2027.16,155.863 2029.24,87.9763 2031.31,87.9763 2033.39,87.9763 2035.46,87.9763 2037.54,223.75 2039.61,223.75 2041.68,87.9763 2043.76,87.9763 2045.83,155.863 2047.91,155.863 2049.98,87.9763 2052.06,87.9763 2054.13,87.9763 2056.2,87.9763 2058.28,155.863 2060.35,155.863 2062.43,155.863 2064.5,155.863 2066.57,87.9763 2068.65,87.9763 2070.72,223.75 2072.8,87.9763 2074.87,155.863 2076.95,155.863 2079.02,87.9763 2081.09,155.863 2083.17,87.9763 2085.24,155.863 2087.32,87.9763 2089.39,87.9763 2091.47,87.9763 2093.54,87.9763 2095.61,87.9763 2097.69,87.9763 2099.76,155.863 2101.84,87.9763 2103.91,87.9763 2105.99,87.9763 2108.06,87.9763 2110.13,155.863 2112.21,155.863 2114.28,87.9763 2116.36,87.9763 2118.43,87.9763 2120.5,155.863 2122.58,155.863 2124.65,87.9763 2126.73,155.863 2128.8,223.75 2130.88,87.9763 2132.95,155.863 2135.02,155.863 2137.1,87.9763 2139.17,87.9763 2141.25,155.863 2143.32,87.9763 2145.4,155.863 2147.47,87.9763 2149.54,87.9763 2151.62,87.9763 2153.69,87.9763 2155.77,155.863 2157.84,87.9763 2159.92,155.863 2161.99,155.863 2164.06,87.9763 2166.14,155.863 2168.21,87.9763 2170.29,87.9763 2172.36,155.863 2174.43,87.9763 2176.51,155.863 2178.58,87.9763 2180.66,155.863 2182.73,155.863 2184.81,155.863 2186.88,155.863 2188.95,155.863 2191.03,223.75 2193.1,155.863 2195.18,155.863 2197.25,155.863 2199.33,87.9763 2201.4,155.863 2203.47,87.9763 2205.55,87.9763 2207.62,155.863 2209.7,87.9763 2211.77,87.9763 2213.84,87.9763 2215.92,87.9763 2217.99,87.9763 2220.07,155.863 2222.14,87.9763 2224.22,155.863 2226.29,87.9763 2228.36,87.9763 2230.44,155.863 2232.51,87.9763 2234.59,155.863 2236.66,87.9763 2238.74,87.9763 2240.81,87.9763 2242.88,155.863 2244.96,87.9763 2247.03,87.9763 2249.11,87.9763 2251.18,87.9763 2253.26,155.863 2255.33,87.9763 2257.4,223.75 2259.48,87.9763 2261.55,155.863 2263.63,155.863 2265.7,223.75 2267.77,155.863 2269.85,155.863 2271.92,87.9763 2274,155.863 2276.07,87.9763 2278.15,87.9763 2280.22,87.9763 2282.29,223.75 2284.37,87.9763 2286.44,87.9763 2288.52,155.863 2290.59,87.9763 "/>
<path clip-path="url(#clip990)" d="M2007.46 1438.47 L2279.54 1438.47 L2279.54 1334.79 L2007.46 1334.79  Z" fill="#ffffff" fill-rule="evenodd" fill-opacity="1"/>
<polyline clip-path="url(#clip990)" style="stroke:#000000; stroke-linecap:round; stroke-linejoin:round; stroke-width:4; stroke-opacity:1; fill:none" points="2007.46,1438.47 2279.54,1438.47 2279.54,1334.79 2007.46,1334.79 2007.46,1438.47 "/>
<polyline clip-path="url(#clip990)" style="stroke:#009af9; stroke-linecap:round; stroke-linejoin:round; stroke-width:4; stroke-opacity:1; fill:none" points="2031.87,1386.63 2178.3,1386.63 "/>
<path clip-path="url(#clip990)" d="M2216.55 1406.32 Q2214.74 1410.95 2213.03 1412.36 Q2211.32 1413.78 2208.44 1413.78 L2205.04 1413.78 L2205.04 1410.21 L2207.54 1410.21 Q2209.3 1410.21 2210.27 1409.38 Q2211.25 1408.54 2212.43 1405.44 L2213.19 1403.5 L2202.7 1377.99 L2207.22 1377.99 L2215.32 1398.27 L2223.42 1377.99 L2227.94 1377.99 L2216.55 1406.32 Z" fill="#000000" fill-rule="nonzero" fill-opacity="1" /><path clip-path="url(#clip990)" d="M2235.23 1399.98 L2242.87 1399.98 L2242.87 1373.61 L2234.56 1375.28 L2234.56 1371.02 L2242.82 1369.35 L2247.5 1369.35 L2247.5 1399.98 L2255.13 1399.98 L2255.13 1403.91 L2235.23 1403.91 L2235.23 1399.98 Z" fill="#000000" fill-rule="nonzero" fill-opacity="1" /></svg>
