<?xml version="1.0" encoding="utf-8"?>
<svg xmlns="http://www.w3.org/2000/svg" xmlns:xlink="http://www.w3.org/1999/xlink" width="600" height="400" viewBox="0 0 2400 1600">
<defs>
  <clipPath id="clip010">
    <rect x="0" y="0" width="2400" height="1600"/>
  </clipPath>
</defs>
<path clip-path="url(#clip010)" d="M0 1600 L2400 1600 L2400 0 L0 0  Z" fill="#ffffff" fill-rule="evenodd" fill-opacity="1"/>
<defs>
  <clipPath id="clip011">
    <rect x="480" y="0" width="1681" height="1600"/>
  </clipPath>
</defs>
<path clip-path="url(#clip010)" d="M231.042 1486.45 L2352.76 1486.45 L2352.76 47.2441 L231.042 47.2441  Z" fill="#ffffff" fill-rule="evenodd" fill-opacity="1"/>
<defs>
  <clipPath id="clip012">
    <rect x="231" y="47" width="2123" height="1440"/>
  </clipPath>
</defs>
<polyline clip-path="url(#clip012)" style="stroke:#000000; stroke-linecap:round; stroke-linejoin:round; stroke-width:2; stroke-opacity:0.1; fill:none" points="291.091,1486.45 291.091,47.2441 "/>
<polyline clip-path="url(#clip012)" style="stroke:#000000; stroke-linecap:round; stroke-linejoin:round; stroke-width:2; stroke-opacity:0.1; fill:none" points="791.495,1486.45 791.495,47.2441 "/>
<polyline clip-path="url(#clip012)" style="stroke:#000000; stroke-linecap:round; stroke-linejoin:round; stroke-width:2; stroke-opacity:0.1; fill:none" points="1291.9,1486.45 1291.9,47.2441 "/>
<polyline clip-path="url(#clip012)" style="stroke:#000000; stroke-linecap:round; stroke-linejoin:round; stroke-width:2; stroke-opacity:0.1; fill:none" points="1792.3,1486.45 1792.3,47.2441 "/>
<polyline clip-path="url(#clip012)" style="stroke:#000000; stroke-linecap:round; stroke-linejoin:round; stroke-width:2; stroke-opacity:0.1; fill:none" points="2292.71,1486.45 2292.71,47.2441 "/>
<polyline clip-path="url(#clip010)" style="stroke:#000000; stroke-linecap:round; stroke-linejoin:round; stroke-width:4; stroke-opacity:1; fill:none" points="231.042,1486.45 2352.76,1486.45 "/>
<polyline clip-path="url(#clip010)" style="stroke:#000000; stroke-linecap:round; stroke-linejoin:round; stroke-width:4; stroke-opacity:1; fill:none" points="291.091,1486.45 291.091,1467.55 "/>
<polyline clip-path="url(#clip010)" style="stroke:#000000; stroke-linecap:round; stroke-linejoin:round; stroke-width:4; stroke-opacity:1; fill:none" points="791.495,1486.45 791.495,1467.55 "/>
<polyline clip-path="url(#clip010)" style="stroke:#000000; stroke-linecap:round; stroke-linejoin:round; stroke-width:4; stroke-opacity:1; fill:none" points="1291.9,1486.45 1291.9,1467.55 "/>
<polyline clip-path="url(#clip010)" style="stroke:#000000; stroke-linecap:round; stroke-linejoin:round; stroke-width:4; stroke-opacity:1; fill:none" points="1792.3,1486.45 1792.3,1467.55 "/>
<polyline clip-path="url(#clip010)" style="stroke:#000000; stroke-linecap:round; stroke-linejoin:round; stroke-width:4; stroke-opacity:1; fill:none" points="2292.71,1486.45 2292.71,1467.55 "/>
<path clip-path="url(#clip010)" d="M291.091 1517.37 Q287.48 1517.37 285.651 1520.93 Q283.845 1524.47 283.845 1531.6 Q283.845 1538.71 285.651 1542.27 Q287.48 1545.82 291.091 1545.82 Q294.725 1545.82 296.531 1542.27 Q298.359 1538.71 298.359 1531.6 Q298.359 1524.47 296.531 1520.93 Q294.725 1517.37 291.091 1517.37 M291.091 1513.66 Q296.901 1513.66 299.956 1518.27 Q303.035 1522.85 303.035 1531.6 Q303.035 1540.33 299.956 1544.94 Q296.901 1549.52 291.091 1549.52 Q285.281 1549.52 282.202 1544.94 Q279.146 1540.33 279.146 1531.6 Q279.146 1522.85 282.202 1518.27 Q285.281 1513.66 291.091 1513.66 Z" fill="#000000" fill-rule="nonzero" fill-opacity="1" /><path clip-path="url(#clip010)" d="M755.187 1544.91 L771.507 1544.91 L771.507 1548.85 L749.562 1548.85 L749.562 1544.91 Q752.224 1542.16 756.808 1537.53 Q761.414 1532.88 762.595 1531.53 Q764.84 1529.01 765.72 1527.27 Q766.622 1525.51 766.622 1523.82 Q766.622 1521.07 764.678 1519.33 Q762.757 1517.6 759.655 1517.6 Q757.456 1517.6 755.002 1518.36 Q752.572 1519.13 749.794 1520.68 L749.794 1515.95 Q752.618 1514.82 755.072 1514.24 Q757.525 1513.66 759.562 1513.66 Q764.933 1513.66 768.127 1516.35 Q771.321 1519.03 771.321 1523.52 Q771.321 1525.65 770.511 1527.57 Q769.724 1529.47 767.618 1532.07 Q767.039 1532.74 763.937 1535.95 Q760.835 1539.15 755.187 1544.91 Z" fill="#000000" fill-rule="nonzero" fill-opacity="1" /><path clip-path="url(#clip010)" d="M781.368 1514.29 L799.724 1514.29 L799.724 1518.22 L785.65 1518.22 L785.65 1526.7 Q786.669 1526.35 787.687 1526.19 Q788.706 1526 789.724 1526 Q795.511 1526 798.891 1529.17 Q802.27 1532.34 802.27 1537.76 Q802.27 1543.34 798.798 1546.44 Q795.326 1549.52 789.007 1549.52 Q786.831 1549.52 784.562 1549.15 Q782.317 1548.78 779.909 1548.04 L779.909 1543.34 Q781.993 1544.47 784.215 1545.03 Q786.437 1545.58 788.914 1545.58 Q792.919 1545.58 795.256 1543.48 Q797.594 1541.37 797.594 1537.76 Q797.594 1534.15 795.256 1532.04 Q792.919 1529.94 788.914 1529.94 Q787.039 1529.94 785.164 1530.35 Q783.312 1530.77 781.368 1531.65 L781.368 1514.29 Z" fill="#000000" fill-rule="nonzero" fill-opacity="1" /><path clip-path="url(#clip010)" d="M821.483 1517.37 Q817.872 1517.37 816.043 1520.93 Q814.238 1524.47 814.238 1531.6 Q814.238 1538.71 816.043 1542.27 Q817.872 1545.82 821.483 1545.82 Q825.117 1545.82 826.923 1542.27 Q828.752 1538.71 828.752 1531.6 Q828.752 1524.47 826.923 1520.93 Q825.117 1517.37 821.483 1517.37 M821.483 1513.66 Q827.293 1513.66 830.349 1518.27 Q833.428 1522.85 833.428 1531.6 Q833.428 1540.33 830.349 1544.94 Q827.293 1549.52 821.483 1549.52 Q815.673 1549.52 812.594 1544.94 Q809.539 1540.33 809.539 1531.6 Q809.539 1522.85 812.594 1518.27 Q815.673 1513.66 821.483 1513.66 Z" fill="#000000" fill-rule="nonzero" fill-opacity="1" /><path clip-path="url(#clip010)" d="M1251.52 1514.29 L1269.87 1514.29 L1269.87 1518.22 L1255.8 1518.22 L1255.8 1526.7 Q1256.82 1526.35 1257.84 1526.19 Q1258.86 1526 1259.87 1526 Q1265.66 1526 1269.04 1529.17 Q1272.42 1532.34 1272.42 1537.76 Q1272.42 1543.34 1268.95 1546.44 Q1265.48 1549.52 1259.16 1549.52 Q1256.98 1549.52 1254.71 1549.15 Q1252.47 1548.78 1250.06 1548.04 L1250.06 1543.34 Q1252.14 1544.47 1254.36 1545.03 Q1256.59 1545.58 1259.06 1545.58 Q1263.07 1545.58 1265.41 1543.48 Q1267.74 1541.37 1267.74 1537.76 Q1267.74 1534.15 1265.41 1532.04 Q1263.07 1529.94 1259.06 1529.94 Q1257.19 1529.94 1255.31 1530.35 Q1253.46 1530.77 1251.52 1531.65 L1251.52 1514.29 Z" fill="#000000" fill-rule="nonzero" fill-opacity="1" /><path clip-path="url(#clip010)" d="M1291.63 1517.37 Q1288.02 1517.37 1286.19 1520.93 Q1284.39 1524.47 1284.39 1531.6 Q1284.39 1538.71 1286.19 1542.27 Q1288.02 1545.82 1291.63 1545.82 Q1295.27 1545.82 1297.07 1542.27 Q1298.9 1538.71 1298.9 1531.6 Q1298.9 1524.47 1297.07 1520.93 Q1295.27 1517.37 1291.63 1517.37 M1291.63 1513.66 Q1297.44 1513.66 1300.5 1518.27 Q1303.58 1522.85 1303.58 1531.6 Q1303.58 1540.33 1300.5 1544.94 Q1297.44 1549.52 1291.63 1549.52 Q1285.82 1549.52 1282.74 1544.94 Q1279.69 1540.33 1279.69 1531.6 Q1279.69 1522.85 1282.74 1518.27 Q1285.82 1513.66 1291.63 1513.66 Z" fill="#000000" fill-rule="nonzero" fill-opacity="1" /><path clip-path="url(#clip010)" d="M1321.79 1517.37 Q1318.18 1517.37 1316.35 1520.93 Q1314.55 1524.47 1314.55 1531.6 Q1314.55 1538.71 1316.35 1542.27 Q1318.18 1545.82 1321.79 1545.82 Q1325.43 1545.82 1327.23 1542.27 Q1329.06 1538.71 1329.06 1531.6 Q1329.06 1524.47 1327.23 1520.93 Q1325.43 1517.37 1321.79 1517.37 M1321.79 1513.66 Q1327.6 1513.66 1330.66 1518.27 Q1333.74 1522.85 1333.74 1531.6 Q1333.74 1540.33 1330.66 1544.94 Q1327.6 1549.52 1321.79 1549.52 Q1315.98 1549.52 1312.91 1544.94 Q1309.85 1540.33 1309.85 1531.6 Q1309.85 1522.85 1312.91 1518.27 Q1315.98 1513.66 1321.79 1513.66 Z" fill="#000000" fill-rule="nonzero" fill-opacity="1" /><path clip-path="url(#clip010)" d="M1750.58 1514.29 L1772.8 1514.29 L1772.8 1516.28 L1760.25 1548.85 L1755.37 1548.85 L1767.18 1518.22 L1750.58 1518.22 L1750.58 1514.29 Z" fill="#000000" fill-rule="nonzero" fill-opacity="1" /><path clip-path="url(#clip010)" d="M1781.97 1514.29 L1800.32 1514.29 L1800.32 1518.22 L1786.25 1518.22 L1786.25 1526.7 Q1787.27 1526.35 1788.29 1526.19 Q1789.31 1526 1790.32 1526 Q1796.11 1526 1799.49 1529.17 Q1802.87 1532.34 1802.87 1537.76 Q1802.87 1543.34 1799.4 1546.44 Q1795.93 1549.52 1789.61 1549.52 Q1787.43 1549.52 1785.16 1549.15 Q1782.92 1548.78 1780.51 1548.04 L1780.51 1543.34 Q1782.59 1544.47 1784.81 1545.03 Q1787.04 1545.58 1789.51 1545.58 Q1793.52 1545.58 1795.86 1543.48 Q1798.19 1541.37 1798.19 1537.76 Q1798.19 1534.15 1795.86 1532.04 Q1793.52 1529.94 1789.51 1529.94 Q1787.64 1529.94 1785.76 1530.35 Q1783.91 1530.77 1781.97 1531.65 L1781.97 1514.29 Z" fill="#000000" fill-rule="nonzero" fill-opacity="1" /><path clip-path="url(#clip010)" d="M1822.08 1517.37 Q1818.47 1517.37 1816.64 1520.93 Q1814.84 1524.47 1814.84 1531.6 Q1814.84 1538.71 1816.64 1542.27 Q1818.47 1545.82 1822.08 1545.82 Q1825.72 1545.82 1827.52 1542.27 Q1829.35 1538.71 1829.35 1531.6 Q1829.35 1524.47 1827.52 1520.93 Q1825.72 1517.37 1822.08 1517.37 M1822.08 1513.66 Q1827.89 1513.66 1830.95 1518.27 Q1834.03 1522.85 1834.03 1531.6 Q1834.03 1540.33 1830.95 1544.94 Q1827.89 1549.52 1822.08 1549.52 Q1816.27 1549.52 1813.19 1544.94 Q1810.14 1540.33 1810.14 1531.6 Q1810.14 1522.85 1813.19 1518.27 Q1816.27 1513.66 1822.08 1513.66 Z" fill="#000000" fill-rule="nonzero" fill-opacity="1" /><path clip-path="url(#clip010)" d="M2237.23 1544.91 L2244.87 1544.91 L2244.87 1518.55 L2236.56 1520.21 L2236.56 1515.95 L2244.83 1514.29 L2249.5 1514.29 L2249.5 1544.91 L2257.14 1544.91 L2257.14 1548.85 L2237.23 1548.85 L2237.23 1544.91 Z" fill="#000000" fill-rule="nonzero" fill-opacity="1" /><path clip-path="url(#clip010)" d="M2276.58 1517.37 Q2272.97 1517.37 2271.15 1520.93 Q2269.34 1524.47 2269.34 1531.6 Q2269.34 1538.71 2271.15 1542.27 Q2272.97 1545.82 2276.58 1545.82 Q2280.22 1545.82 2282.02 1542.27 Q2283.85 1538.71 2283.85 1531.6 Q2283.85 1524.47 2282.02 1520.93 Q2280.22 1517.37 2276.58 1517.37 M2276.58 1513.66 Q2282.39 1513.66 2285.45 1518.27 Q2288.53 1522.85 2288.53 1531.6 Q2288.53 1540.33 2285.45 1544.94 Q2282.39 1549.52 2276.58 1549.52 Q2270.77 1549.52 2267.7 1544.94 Q2264.64 1540.33 2264.64 1531.6 Q2264.64 1522.85 2267.7 1518.27 Q2270.77 1513.66 2276.58 1513.66 Z" fill="#000000" fill-rule="nonzero" fill-opacity="1" /><path clip-path="url(#clip010)" d="M2306.75 1517.37 Q2303.14 1517.37 2301.31 1520.93 Q2299.5 1524.47 2299.5 1531.6 Q2299.5 1538.71 2301.31 1542.27 Q2303.14 1545.82 2306.75 1545.82 Q2310.38 1545.82 2312.19 1542.27 Q2314.02 1538.71 2314.02 1531.6 Q2314.02 1524.47 2312.19 1520.93 Q2310.38 1517.37 2306.75 1517.37 M2306.75 1513.66 Q2312.56 1513.66 2315.61 1518.27 Q2318.69 1522.85 2318.69 1531.6 Q2318.69 1540.33 2315.61 1544.94 Q2312.56 1549.52 2306.75 1549.52 Q2300.94 1549.52 2297.86 1544.94 Q2294.8 1540.33 2294.8 1531.6 Q2294.8 1522.85 2297.86 1518.27 Q2300.94 1513.66 2306.75 1513.66 Z" fill="#000000" fill-rule="nonzero" fill-opacity="1" /><path clip-path="url(#clip010)" d="M2336.91 1517.37 Q2333.3 1517.37 2331.47 1520.93 Q2329.66 1524.47 2329.66 1531.6 Q2329.66 1538.71 2331.47 1542.27 Q2333.3 1545.82 2336.91 1545.82 Q2340.54 1545.82 2342.35 1542.27 Q2344.18 1538.71 2344.18 1531.6 Q2344.18 1524.47 2342.35 1520.93 Q2340.54 1517.37 2336.91 1517.37 M2336.91 1513.66 Q2342.72 1513.66 2345.77 1518.27 Q2348.85 1522.85 2348.85 1531.6 Q2348.85 1540.33 2345.77 1544.94 Q2342.72 1549.52 2336.91 1549.52 Q2331.1 1549.52 2328.02 1544.94 Q2324.96 1540.33 2324.96 1531.6 Q2324.96 1522.85 2328.02 1518.27 Q2331.1 1513.66 2336.91 1513.66 Z" fill="#000000" fill-rule="nonzero" fill-opacity="1" /><polyline clip-path="url(#clip012)" style="stroke:#000000; stroke-linecap:round; stroke-linejoin:round; stroke-width:2; stroke-opacity:0.1; fill:none" points="231.042,1152.98 2352.76,1152.98 "/>
<polyline clip-path="url(#clip012)" style="stroke:#000000; stroke-linecap:round; stroke-linejoin:round; stroke-width:2; stroke-opacity:0.1; fill:none" points="231.042,798.917 2352.76,798.917 "/>
<polyline clip-path="url(#clip012)" style="stroke:#000000; stroke-linecap:round; stroke-linejoin:round; stroke-width:2; stroke-opacity:0.1; fill:none" points="231.042,444.854 2352.76,444.854 "/>
<polyline clip-path="url(#clip012)" style="stroke:#000000; stroke-linecap:round; stroke-linejoin:round; stroke-width:2; stroke-opacity:0.1; fill:none" points="231.042,90.7907 2352.76,90.7907 "/>
<polyline clip-path="url(#clip010)" style="stroke:#000000; stroke-linecap:round; stroke-linejoin:round; stroke-width:4; stroke-opacity:1; fill:none" points="231.042,1486.45 231.042,47.2441 "/>
<polyline clip-path="url(#clip010)" style="stroke:#000000; stroke-linecap:round; stroke-linejoin:round; stroke-width:4; stroke-opacity:1; fill:none" points="231.042,1152.98 249.94,1152.98 "/>
<polyline clip-path="url(#clip010)" style="stroke:#000000; stroke-linecap:round; stroke-linejoin:round; stroke-width:4; stroke-opacity:1; fill:none" points="231.042,798.917 249.94,798.917 "/>
<polyline clip-path="url(#clip010)" style="stroke:#000000; stroke-linecap:round; stroke-linejoin:round; stroke-width:4; stroke-opacity:1; fill:none" points="231.042,444.854 249.94,444.854 "/>
<polyline clip-path="url(#clip010)" style="stroke:#000000; stroke-linecap:round; stroke-linejoin:round; stroke-width:4; stroke-opacity:1; fill:none" points="231.042,90.7907 249.94,90.7907 "/>
<path clip-path="url(#clip010)" d="M66.617 1151.63 Q69.9735 1152.34 71.8485 1154.61 Q73.7466 1156.88 73.7466 1160.21 Q73.7466 1165.33 70.2281 1168.13 Q66.7096 1170.93 60.2282 1170.93 Q58.0523 1170.93 55.7375 1170.49 Q53.4458 1170.07 50.9921 1169.22 L50.9921 1164.7 Q52.9366 1165.84 55.2514 1166.42 Q57.5662 1167 60.0893 1167 Q64.4874 1167 66.7791 1165.26 Q69.0939 1163.52 69.0939 1160.21 Q69.0939 1157.16 66.9411 1155.44 Q64.8115 1153.71 60.9921 1153.71 L56.9643 1153.71 L56.9643 1149.87 L61.1773 1149.87 Q64.6263 1149.87 66.455 1148.5 Q68.2837 1147.11 68.2837 1144.52 Q68.2837 1141.86 66.3856 1140.44 Q64.5106 1139.01 60.9921 1139.01 Q59.0708 1139.01 56.8717 1139.43 Q54.6727 1139.84 52.0338 1140.72 L52.0338 1136.56 Q54.6958 1135.82 57.0106 1135.44 Q59.3486 1135.07 61.4087 1135.07 Q66.7328 1135.07 69.8346 1137.51 Q72.9365 1139.91 72.9365 1144.03 Q72.9365 1146.9 71.2929 1148.89 Q69.6494 1150.86 66.617 1151.63 Z" fill="#000000" fill-rule="nonzero" fill-opacity="1" /><path clip-path="url(#clip010)" d="M83.4225 1166.32 L91.0614 1166.32 L91.0614 1139.96 L82.7512 1141.63 L82.7512 1137.37 L91.0151 1135.7 L95.691 1135.7 L95.691 1166.32 L103.33 1166.32 L103.33 1170.26 L83.4225 1170.26 L83.4225 1166.32 Z" fill="#000000" fill-rule="nonzero" fill-opacity="1" /><path clip-path="url(#clip010)" d="M122.774 1138.78 Q119.163 1138.78 117.334 1142.34 Q115.529 1145.88 115.529 1153.01 Q115.529 1160.12 117.334 1163.69 Q119.163 1167.23 122.774 1167.23 Q126.408 1167.23 128.214 1163.69 Q130.043 1160.12 130.043 1153.01 Q130.043 1145.88 128.214 1142.34 Q126.408 1138.78 122.774 1138.78 M122.774 1135.07 Q128.584 1135.07 131.64 1139.68 Q134.719 1144.26 134.719 1153.01 Q134.719 1161.74 131.64 1166.35 Q128.584 1170.93 122.774 1170.93 Q116.964 1170.93 113.885 1166.35 Q110.83 1161.74 110.83 1153.01 Q110.83 1144.26 113.885 1139.68 Q116.964 1135.07 122.774 1135.07 Z" fill="#000000" fill-rule="nonzero" fill-opacity="1" /><path clip-path="url(#clip010)" d="M152.936 1138.78 Q149.325 1138.78 147.496 1142.34 Q145.691 1145.88 145.691 1153.01 Q145.691 1160.12 147.496 1163.69 Q149.325 1167.23 152.936 1167.23 Q156.57 1167.23 158.376 1163.69 Q160.205 1160.12 160.205 1153.01 Q160.205 1145.88 158.376 1142.34 Q156.57 1138.78 152.936 1138.78 M152.936 1135.07 Q158.746 1135.07 161.802 1139.68 Q164.88 1144.26 164.88 1153.01 Q164.88 1161.74 161.802 1166.35 Q158.746 1170.93 152.936 1170.93 Q147.126 1170.93 144.047 1166.35 Q140.992 1161.74 140.992 1153.01 Q140.992 1144.26 144.047 1139.68 Q147.126 1135.07 152.936 1135.07 Z" fill="#000000" fill-rule="nonzero" fill-opacity="1" /><path clip-path="url(#clip010)" d="M183.098 1138.78 Q179.487 1138.78 177.658 1142.34 Q175.853 1145.88 175.853 1153.01 Q175.853 1160.12 177.658 1163.69 Q179.487 1167.23 183.098 1167.23 Q186.732 1167.23 188.538 1163.69 Q190.366 1160.12 190.366 1153.01 Q190.366 1145.88 188.538 1142.34 Q186.732 1138.78 183.098 1138.78 M183.098 1135.07 Q188.908 1135.07 191.964 1139.68 Q195.042 1144.26 195.042 1153.01 Q195.042 1161.74 191.964 1166.35 Q188.908 1170.93 183.098 1170.93 Q177.288 1170.93 174.209 1166.35 Q171.154 1161.74 171.154 1153.01 Q171.154 1144.26 174.209 1139.68 Q177.288 1135.07 183.098 1135.07 Z" fill="#000000" fill-rule="nonzero" fill-opacity="1" /><path clip-path="url(#clip010)" d="M66.617 797.562 Q69.9735 798.28 71.8485 800.549 Q73.7466 802.817 73.7466 806.15 Q73.7466 811.266 70.2281 814.067 Q66.7096 816.868 60.2282 816.868 Q58.0523 816.868 55.7375 816.428 Q53.4458 816.011 50.9921 815.155 L50.9921 810.641 Q52.9366 811.775 55.2514 812.354 Q57.5662 812.933 60.0893 812.933 Q64.4874 812.933 66.7791 811.197 Q69.0939 809.461 69.0939 806.15 Q69.0939 803.095 66.9411 801.382 Q64.8115 799.646 60.9921 799.646 L56.9643 799.646 L56.9643 795.803 L61.1773 795.803 Q64.6263 795.803 66.455 794.437 Q68.2837 793.049 68.2837 790.456 Q68.2837 787.794 66.3856 786.382 Q64.5106 784.947 60.9921 784.947 Q59.0708 784.947 56.8717 785.363 Q54.6727 785.78 52.0338 786.66 L52.0338 782.493 Q54.6958 781.752 57.0106 781.382 Q59.3486 781.012 61.4087 781.012 Q66.7328 781.012 69.8346 783.442 Q72.9365 785.85 72.9365 789.97 Q72.9365 792.84 71.2929 794.831 Q69.6494 796.799 66.617 797.562 Z" fill="#000000" fill-rule="nonzero" fill-opacity="1" /><path clip-path="url(#clip010)" d="M86.6401 812.261 L102.959 812.261 L102.959 816.197 L81.0151 816.197 L81.0151 812.261 Q83.6771 809.507 88.2604 804.877 Q92.8669 800.224 94.0475 798.882 Q96.2928 796.359 97.1724 794.623 Q98.0752 792.863 98.0752 791.174 Q98.0752 788.419 96.1308 786.683 Q94.2095 784.947 91.1077 784.947 Q88.9086 784.947 86.4549 785.711 Q84.0244 786.475 81.2466 788.025 L81.2466 783.303 Q84.0707 782.169 86.5243 781.59 Q88.978 781.012 91.0151 781.012 Q96.3854 781.012 99.5798 783.697 Q102.774 786.382 102.774 790.873 Q102.774 793.002 101.964 794.924 Q101.177 796.822 99.0706 799.414 Q98.4919 800.086 95.39 803.303 Q92.2882 806.498 86.6401 812.261 Z" fill="#000000" fill-rule="nonzero" fill-opacity="1" /><path clip-path="url(#clip010)" d="M122.774 784.715 Q119.163 784.715 117.334 788.28 Q115.529 791.822 115.529 798.951 Q115.529 806.058 117.334 809.623 Q119.163 813.164 122.774 813.164 Q126.408 813.164 128.214 809.623 Q130.043 806.058 130.043 798.951 Q130.043 791.822 128.214 788.28 Q126.408 784.715 122.774 784.715 M122.774 781.012 Q128.584 781.012 131.64 785.618 Q134.719 790.201 134.719 798.951 Q134.719 807.678 131.64 812.285 Q128.584 816.868 122.774 816.868 Q116.964 816.868 113.885 812.285 Q110.83 807.678 110.83 798.951 Q110.83 790.201 113.885 785.618 Q116.964 781.012 122.774 781.012 Z" fill="#000000" fill-rule="nonzero" fill-opacity="1" /><path clip-path="url(#clip010)" d="M152.936 784.715 Q149.325 784.715 147.496 788.28 Q145.691 791.822 145.691 798.951 Q145.691 806.058 147.496 809.623 Q149.325 813.164 152.936 813.164 Q156.57 813.164 158.376 809.623 Q160.205 806.058 160.205 798.951 Q160.205 791.822 158.376 788.28 Q156.57 784.715 152.936 784.715 M152.936 781.012 Q158.746 781.012 161.802 785.618 Q164.88 790.201 164.88 798.951 Q164.88 807.678 161.802 812.285 Q158.746 816.868 152.936 816.868 Q147.126 816.868 144.047 812.285 Q140.992 807.678 140.992 798.951 Q140.992 790.201 144.047 785.618 Q147.126 781.012 152.936 781.012 Z" fill="#000000" fill-rule="nonzero" fill-opacity="1" /><path clip-path="url(#clip010)" d="M183.098 784.715 Q179.487 784.715 177.658 788.28 Q175.853 791.822 175.853 798.951 Q175.853 806.058 177.658 809.623 Q179.487 813.164 183.098 813.164 Q186.732 813.164 188.538 809.623 Q190.366 806.058 190.366 798.951 Q190.366 791.822 188.538 788.28 Q186.732 784.715 183.098 784.715 M183.098 781.012 Q188.908 781.012 191.964 785.618 Q195.042 790.201 195.042 798.951 Q195.042 807.678 191.964 812.285 Q188.908 816.868 183.098 816.868 Q177.288 816.868 174.209 812.285 Q171.154 807.678 171.154 798.951 Q171.154 790.201 174.209 785.618 Q177.288 781.012 183.098 781.012 Z" fill="#000000" fill-rule="nonzero" fill-opacity="1" /><path clip-path="url(#clip010)" d="M66.617 443.5 Q69.9735 444.217 71.8485 446.486 Q73.7466 448.754 73.7466 452.087 Q73.7466 457.203 70.2281 460.004 Q66.7096 462.805 60.2282 462.805 Q58.0523 462.805 55.7375 462.365 Q53.4458 461.948 50.9921 461.092 L50.9921 456.578 Q52.9366 457.712 55.2514 458.291 Q57.5662 458.87 60.0893 458.87 Q64.4874 458.87 66.7791 457.134 Q69.0939 455.398 69.0939 452.087 Q69.0939 449.032 66.9411 447.319 Q64.8115 445.583 60.9921 445.583 L56.9643 445.583 L56.9643 441.74 L61.1773 441.74 Q64.6263 441.74 66.455 440.375 Q68.2837 438.986 68.2837 436.393 Q68.2837 433.731 66.3856 432.319 Q64.5106 430.884 60.9921 430.884 Q59.0708 430.884 56.8717 431.3 Q54.6727 431.717 52.0338 432.597 L52.0338 428.43 Q54.6958 427.689 57.0106 427.319 Q59.3486 426.949 61.4087 426.949 Q66.7328 426.949 69.8346 429.379 Q72.9365 431.787 72.9365 435.907 Q72.9365 438.777 71.2929 440.768 Q69.6494 442.736 66.617 443.5 Z" fill="#000000" fill-rule="nonzero" fill-opacity="1" /><path clip-path="url(#clip010)" d="M96.7789 443.5 Q100.135 444.217 102.01 446.486 Q103.909 448.754 103.909 452.087 Q103.909 457.203 100.39 460.004 Q96.8715 462.805 90.3901 462.805 Q88.2141 462.805 85.8993 462.365 Q83.6077 461.948 81.154 461.092 L81.154 456.578 Q83.0984 457.712 85.4132 458.291 Q87.728 458.87 90.2512 458.87 Q94.6493 458.87 96.941 457.134 Q99.2558 455.398 99.2558 452.087 Q99.2558 449.032 97.103 447.319 Q94.9734 445.583 91.1539 445.583 L87.1262 445.583 L87.1262 441.74 L91.3391 441.74 Q94.7882 441.74 96.6169 440.375 Q98.4456 438.986 98.4456 436.393 Q98.4456 433.731 96.5474 432.319 Q94.6724 430.884 91.1539 430.884 Q89.2327 430.884 87.0336 431.3 Q84.8345 431.717 82.1957 432.597 L82.1957 428.43 Q84.8577 427.689 87.1725 427.319 Q89.5104 426.949 91.5706 426.949 Q96.8947 426.949 99.9965 429.379 Q103.098 431.787 103.098 435.907 Q103.098 438.777 101.455 440.768 Q99.8113 442.736 96.7789 443.5 Z" fill="#000000" fill-rule="nonzero" fill-opacity="1" /><path clip-path="url(#clip010)" d="M122.774 430.652 Q119.163 430.652 117.334 434.217 Q115.529 437.759 115.529 444.888 Q115.529 451.995 117.334 455.56 Q119.163 459.101 122.774 459.101 Q126.408 459.101 128.214 455.56 Q130.043 451.995 130.043 444.888 Q130.043 437.759 128.214 434.217 Q126.408 430.652 122.774 430.652 M122.774 426.949 Q128.584 426.949 131.64 431.555 Q134.719 436.138 134.719 444.888 Q134.719 453.615 131.64 458.222 Q128.584 462.805 122.774 462.805 Q116.964 462.805 113.885 458.222 Q110.83 453.615 110.83 444.888 Q110.83 436.138 113.885 431.555 Q116.964 426.949 122.774 426.949 Z" fill="#000000" fill-rule="nonzero" fill-opacity="1" /><path clip-path="url(#clip010)" d="M152.936 430.652 Q149.325 430.652 147.496 434.217 Q145.691 437.759 145.691 444.888 Q145.691 451.995 147.496 455.56 Q149.325 459.101 152.936 459.101 Q156.57 459.101 158.376 455.56 Q160.205 451.995 160.205 444.888 Q160.205 437.759 158.376 434.217 Q156.57 430.652 152.936 430.652 M152.936 426.949 Q158.746 426.949 161.802 431.555 Q164.88 436.138 164.88 444.888 Q164.88 453.615 161.802 458.222 Q158.746 462.805 152.936 462.805 Q147.126 462.805 144.047 458.222 Q140.992 453.615 140.992 444.888 Q140.992 436.138 144.047 431.555 Q147.126 426.949 152.936 426.949 Z" fill="#000000" fill-rule="nonzero" fill-opacity="1" /><path clip-path="url(#clip010)" d="M183.098 430.652 Q179.487 430.652 177.658 434.217 Q175.853 437.759 175.853 444.888 Q175.853 451.995 177.658 455.56 Q179.487 459.101 183.098 459.101 Q186.732 459.101 188.538 455.56 Q190.366 451.995 190.366 444.888 Q190.366 437.759 188.538 434.217 Q186.732 430.652 183.098 430.652 M183.098 426.949 Q188.908 426.949 191.964 431.555 Q195.042 436.138 195.042 444.888 Q195.042 453.615 191.964 458.222 Q188.908 462.805 183.098 462.805 Q177.288 462.805 174.209 458.222 Q171.154 453.615 171.154 444.888 Q171.154 436.138 174.209 431.555 Q177.288 426.949 183.098 426.949 Z" fill="#000000" fill-rule="nonzero" fill-opacity="1" /><path clip-path="url(#clip010)" d="M66.617 89.4366 Q69.9735 90.1542 71.8485 92.4227 Q73.7466 94.6912 73.7466 98.0245 Q73.7466 103.14 70.2281 105.941 Q66.7096 108.742 60.2282 108.742 Q58.0523 108.742 55.7375 108.302 Q53.4458 107.886 50.9921 107.029 L50.9921 102.515 Q52.9366 103.649 55.2514 104.228 Q57.5662 104.807 60.0893 104.807 Q64.4874 104.807 66.7791 103.071 Q69.0939 101.335 69.0939 98.0245 Q69.0939 94.9689 66.9411 93.256 Q64.8115 91.5199 60.9921 91.5199 L56.9643 91.5199 L56.9643 87.6773 L61.1773 87.6773 Q64.6263 87.6773 66.455 86.3116 Q68.2837 84.9227 68.2837 82.3301 Q68.2837 79.6681 66.3856 78.2561 Q64.5106 76.8209 60.9921 76.8209 Q59.0708 76.8209 56.8717 77.2376 Q54.6727 77.6542 52.0338 78.5338 L52.0338 74.3672 Q54.6958 73.6265 57.0106 73.2561 Q59.3486 72.8857 61.4087 72.8857 Q66.7328 72.8857 69.8346 75.3163 Q72.9365 77.7237 72.9365 81.844 Q72.9365 84.7144 71.2929 86.7051 Q69.6494 88.6727 66.617 89.4366 Z" fill="#000000" fill-rule="nonzero" fill-opacity="1" /><path clip-path="url(#clip010)" d="M95.4595 77.5848 L83.654 96.0337 L95.4595 96.0337 L95.4595 77.5848 M94.2326 73.5107 L100.112 73.5107 L100.112 96.0337 L105.043 96.0337 L105.043 99.9226 L100.112 99.9226 L100.112 108.071 L95.4595 108.071 L95.4595 99.9226 L79.8577 99.9226 L79.8577 95.4088 L94.2326 73.5107 Z" fill="#000000" fill-rule="nonzero" fill-opacity="1" /><path clip-path="url(#clip010)" d="M122.774 76.5894 Q119.163 76.5894 117.334 80.1542 Q115.529 83.6959 115.529 90.8254 Q115.529 97.9319 117.334 101.497 Q119.163 105.038 122.774 105.038 Q126.408 105.038 128.214 101.497 Q130.043 97.9319 130.043 90.8254 Q130.043 83.6959 128.214 80.1542 Q126.408 76.5894 122.774 76.5894 M122.774 72.8857 Q128.584 72.8857 131.64 77.4922 Q134.719 82.0755 134.719 90.8254 Q134.719 99.5522 131.64 104.159 Q128.584 108.742 122.774 108.742 Q116.964 108.742 113.885 104.159 Q110.83 99.5522 110.83 90.8254 Q110.83 82.0755 113.885 77.4922 Q116.964 72.8857 122.774 72.8857 Z" fill="#000000" fill-rule="nonzero" fill-opacity="1" /><path clip-path="url(#clip010)" d="M152.936 76.5894 Q149.325 76.5894 147.496 80.1542 Q145.691 83.6959 145.691 90.8254 Q145.691 97.9319 147.496 101.497 Q149.325 105.038 152.936 105.038 Q156.57 105.038 158.376 101.497 Q160.205 97.9319 160.205 90.8254 Q160.205 83.6959 158.376 80.1542 Q156.57 76.5894 152.936 76.5894 M152.936 72.8857 Q158.746 72.8857 161.802 77.4922 Q164.88 82.0755 164.88 90.8254 Q164.88 99.5522 161.802 104.159 Q158.746 108.742 152.936 108.742 Q147.126 108.742 144.047 104.159 Q140.992 99.5522 140.992 90.8254 Q140.992 82.0755 144.047 77.4922 Q147.126 72.8857 152.936 72.8857 Z" fill="#000000" fill-rule="nonzero" fill-opacity="1" /><path clip-path="url(#clip010)" d="M183.098 76.5894 Q179.487 76.5894 177.658 80.1542 Q175.853 83.6959 175.853 90.8254 Q175.853 97.9319 177.658 101.497 Q179.487 105.038 183.098 105.038 Q186.732 105.038 188.538 101.497 Q190.366 97.9319 190.366 90.8254 Q190.366 83.6959 188.538 80.1542 Q186.732 76.5894 183.098 76.5894 M183.098 72.8857 Q188.908 72.8857 191.964 77.4922 Q195.042 82.0755 195.042 90.8254 Q195.042 99.5522 191.964 104.159 Q188.908 108.742 183.098 108.742 Q177.288 108.742 174.209 104.159 Q171.154 99.5522 171.154 90.8254 Q171.154 82.0755 174.209 77.4922 Q177.288 72.8857 183.098 72.8857 Z" fill="#000000" fill-rule="nonzero" fill-opacity="1" /><polyline clip-path="url(#clip012)" style="stroke:#009af9; stroke-linecap:round; stroke-linejoin:round; stroke-width:4; stroke-opacity:1; fill:none" points="291.091,114.26 293.092,115.415 295.094,115.717 297.096,115.795 299.097,115.816 301.099,115.821 303.1,115.823 305.102,115.823 307.104,115.823 309.105,115.823 311.107,209.731 313.109,210.202 315.11,210.327 317.112,210.36 319.113,210.369 321.115,210.371 323.117,210.372 325.118,210.372 327.12,210.372 329.121,210.372 331.123,310.414 333.125,310.662 335.126,310.728 337.128,310.745 339.13,310.75 341.131,310.751 343.133,310.751 345.134,310.751 347.136,310.751 349.138,310.751 351.139,317.974 353.141,318.244 355.143,318.317 357.144,318.337 359.146,318.343 361.147,318.344 363.149,318.344 365.151,318.345 367.152,318.345 369.154,318.345 371.155,119.824 373.157,120.491 375.159,120.66 377.16,120.703 379.162,120.714 381.164,120.717 383.165,120.718 385.167,120.718 387.168,120.718 389.17,120.718 391.172,141.792 393.173,142.156 395.175,142.257 397.176,142.285 399.178,142.293 401.18,142.295 403.181,142.296 405.183,142.296 407.185,142.296 409.186,142.296 411.188,203.808 413.189,204.117 415.191,204.199 417.193,204.221 419.194,204.227 421.196,204.228 423.197,204.229 425.199,204.229 427.201,204.229 429.202,204.229 431.204,281.033 433.206,281.578 435.207,281.723 437.209,281.762 439.21,281.772 441.212,281.775 443.214,281.776 445.215,281.776 447.217,281.776 449.218,281.776 451.22,160.668 453.222,161.351 455.223,161.53 457.225,161.577 459.227,161.589 461.228,161.592 463.23,161.593 465.231,161.593 467.233,161.593 469.235,161.593 471.236,111.956 473.238,112.863 475.24,113.103 477.241,113.167 479.243,113.184 481.244,113.189 483.246,113.19 485.248,113.19 487.249,113.19 489.251,113.19 491.252,87.9763 493.254,88.5944 495.256,88.7554 497.257,88.7974 499.259,88.8084 501.261,88.8113 503.262,88.812 505.264,88.8122 507.265,88.8123 509.267,88.8123 511.269,227.493 513.27,228.133 515.272,228.307 517.273,228.355 519.275,228.368 521.277,228.372 523.278,228.373 525.28,228.373 527.282,228.373 529.283,228.373 531.285,248.811 533.286,249.298 535.288,249.428 537.29,249.462 539.291,249.472 541.293,249.474 543.294,249.475 545.296,249.475 547.298,249.475 549.299,249.475 551.301,162.16 553.303,162.868 555.304,163.054 557.306,163.102 559.307,163.115 561.309,163.119 563.311,163.119 565.312,163.12 567.314,163.12 569.315,163.12 571.317,418.979 573.319,419.88 575.32,420.12 577.322,420.184 579.324,420.201 581.325,420.206 583.327,420.207 585.328,420.207 587.33,420.207 589.332,420.207 591.333,641.687 593.335,642.212 595.337,642.355 597.338,642.394 599.34,642.405 601.341,642.408 603.343,642.408 605.345,642.409 607.346,642.409 609.348,642.409 611.349,564.508 613.351,564.752 615.353,564.819 617.354,564.837 619.356,564.843 621.358,564.844 623.359,564.844 625.361,564.844 627.362,564.844 629.364,564.844 631.366,763.482 633.367,763.827 635.369,763.918 637.37,763.942 639.372,763.949 641.374,763.95 643.375,763.951 645.377,763.951 647.379,763.951 649.38,763.951 651.382,669.642 653.383,670.285 655.385,670.484 657.387,670.546 659.388,670.565 661.39,670.571 663.391,670.573 665.393,670.573 667.395,670.573 669.396,670.574 671.398,472.582 673.4,473.777 675.401,474.091 677.403,474.174 679.404,474.196 681.406,474.202 683.408,474.203 685.409,474.204 687.411,474.204 689.412,474.204 691.414,414.164 693.416,414.391 695.417,414.454 697.419,414.472 699.421,414.477 701.422,414.478 703.424,414.478 705.425,414.478 707.427,414.478 709.429,414.478 711.43,534.627 713.432,535.938 715.434,536.304 717.435,536.407 719.437,536.436 721.438,536.444 723.44,536.446 725.442,536.447 727.443,536.447 729.445,536.447 731.446,536.858 733.448,537.358 735.45,537.494 737.451,537.531 739.453,537.541 741.455,537.544 743.456,537.545 745.458,537.545 747.459,537.545 749.461,537.545 751.463,548.195 753.464,548.552 755.466,548.649 757.467,548.675 759.469,548.682 761.471,548.684 763.472,548.685 765.474,548.685 767.476,548.685 769.477,548.685 771.479,765.136 773.48,766.079 775.482,766.321 777.484,766.384 779.485,766.4 781.487,766.404 783.488,766.405 785.49,766.406 787.492,766.406 789.493,766.406 791.495,777.977 793.497,778.593 795.498,778.769 797.5,778.82 799.501,778.835 801.503,778.839 803.505,778.84 805.506,778.841 807.508,778.841 809.509,778.841 811.511,757.94 813.513,758.987 815.514,759.31 817.516,759.409 819.518,759.44 821.519,759.449 823.521,759.452 825.522,759.453 827.524,759.454 829.526,759.454 831.527,570.439 833.529,570.895 835.531,571.015 837.532,571.046 839.534,571.055 841.535,571.057 843.537,571.058 845.539,571.058 847.54,571.058 849.542,571.058 851.543,730.283 853.545,730.629 855.547,730.727 857.548,730.755 859.55,730.763 861.552,730.765 863.553,730.765 865.555,730.766 867.556,730.766 869.558,730.766 871.56,1025.58 873.561,1027.39 875.563,1027.97 877.564,1028.16 879.566,1028.22 881.568,1028.24 883.569,1028.25 885.571,1028.25 887.573,1028.25 889.574,1028.25 891.576,1175.58 893.577,1175.85 895.579,1175.92 897.581,1175.94 899.582,1175.95 901.584,1175.95 903.585,1175.95 905.587,1175.95 907.589,1175.95 909.59,1175.95 911.592,1305.6 913.594,1306.02 915.595,1306.14 917.597,1306.18 919.598,1306.19 921.6,1306.19 923.602,1306.19 925.603,1306.19 927.605,1306.19 929.606,1306.19 931.608,1086.5 933.61,1087.4 935.611,1087.68 937.613,1087.77 939.615,1087.79 941.616,1087.8 943.618,1087.81 945.619,1087.81 947.621,1087.81 949.623,1087.81 951.624,1034.46 953.626,1034.59 955.627,1034.64 957.629,1034.65 959.631,1034.66 961.632,1034.66 963.634,1034.66 965.636,1034.66 967.637,1034.66 969.639,1034.66 971.64,972.963 973.642,973.432 975.644,973.574 977.645,973.617 979.647,973.631 981.649,973.635 983.65,973.636 985.652,973.637 987.653,973.637 989.655,973.637 991.657,991.937 993.658,992.255 995.66,992.358 997.661,992.392 999.663,992.403 1001.66,992.406 1003.67,992.407 1005.67,992.408 1007.67,992.408 1009.67,992.408 1011.67,807.624 1013.67,808.415 1015.68,808.646 1017.68,808.714 1019.68,808.734 1021.68,808.74 1023.68,808.742 1025.68,808.743 1027.69,808.743 1029.69,808.743 1031.69,683.741 1033.69,684.926 1035.69,685.272 1037.69,685.373 1039.7,685.404 1041.7,685.413 1043.7,685.415 1045.7,685.416 1047.7,685.416 1049.7,685.416 1051.71,883.153 1053.71,883.957 1055.71,884.176 1057.71,884.236 1059.71,884.253 1061.71,884.258 1063.71,884.259 1065.72,884.259 1067.72,884.259 1069.72,884.259 1071.72,796.85 1073.72,797.412 1075.72,797.587 1077.73,797.641 1079.73,797.658 1081.73,797.663 1083.73,797.665 1085.73,797.665 1087.73,797.666 1089.74,797.666 1091.74,846.504 1093.74,847.169 1095.74,847.38 1097.74,847.446 1099.74,847.468 1101.75,847.475 1103.75,847.477 1105.75,847.477 1107.75,847.478 1109.75,847.478 1111.75,852.502 1113.76,853.108 1115.76,853.279 1117.76,853.328 1119.76,853.342 1121.76,853.346 1123.76,853.347 1125.76,853.347 1127.77,853.347 1129.77,853.348 1131.77,848.45 1133.77,848.796 1135.77,848.901 1137.77,848.934 1139.78,848.944 1141.78,848.947 1143.78,848.948 1145.78,848.948 1147.78,848.948 1149.78,848.948 1151.79,800.459 1153.79,800.809 1155.79,800.911 1157.79,800.94 1159.79,800.949 1161.79,800.952 1163.8,800.952 1165.8,800.953 1167.8,800.953 1169.8,800.953 1171.8,801.022 1173.8,801.338 1175.81,801.428 1177.81,801.455 1179.81,801.462 1181.81,801.464 1183.81,801.465 1185.81,801.465 1187.82,801.465 1189.82,801.465 1191.82,887.17 1193.82,887.708 1195.82,887.856 1197.82,887.897 1199.82,887.908 1201.83,887.912 1203.83,887.913 1205.83,887.913 1207.83,887.913 1209.83,887.913 1211.83,1013.59 1213.84,1013.73 1215.84,1013.77 1217.84,1013.78 1219.84,1013.79 1221.84,1013.79 1223.84,1013.79 1225.85,1013.79 1227.85,1013.79 1229.85,1013.79 1231.85,1028.81 1233.85,1029.47 1235.85,1029.67 1237.86,1029.73 1239.86,1029.75 1241.86,1029.76 1243.86,1029.76 1245.86,1029.76 1247.86,1029.76 1249.87,1029.76 1251.87,841.322 1253.87,842.117 1255.87,842.337 1257.87,842.398 1259.87,842.415 1261.87,842.42 1263.88,842.421 1265.88,842.422 1267.88,842.422 1269.88,842.422 1271.88,678.554 1273.88,678.873 1275.89,678.966 1277.89,678.993 1279.89,679.001 1281.89,679.003 1283.89,679.004 1285.89,679.004 1287.9,679.004 1289.9,679.004 1291.9,571.533 1293.9,571.708 1295.9,571.756 1297.9,571.769 1299.91,571.772 1301.91,571.773 1303.91,571.773 1305.91,571.774 1307.91,571.774 1309.91,571.774 1311.92,594.212 1313.92,594.263 1315.92,594.278 1317.92,594.282 1319.92,594.283 1321.92,594.284 1323.92,594.284 1325.93,594.284 1327.93,594.284 1329.93,594.284 1331.93,665.533 1333.93,666.032 1335.93,666.182 1337.94,666.228 1339.94,666.242 1341.94,666.246 1343.94,666.247 1345.94,666.247 1347.94,666.248 1349.95,666.248 1351.95,692.082 1353.95,692.712 1355.95,692.886 1357.95,692.934 1359.95,692.948 1361.96,692.952 1363.96,692.953 1365.96,692.953 1367.96,692.953 1369.96,692.953 1371.96,705.585 1373.97,705.713 1375.97,705.751 1377.97,705.763 1379.97,705.766 1381.97,705.768 1383.97,705.768 1385.98,705.768 1387.98,705.768 1389.98,705.768 1391.98,620.989 1393.98,621.661 1395.98,621.847 1397.98,621.898 1399.99,621.913 1401.99,621.917 1403.99,621.918 1405.99,621.918 1407.99,621.918 1409.99,621.918 1412,529.643 1414,530.486 1416,530.719 1418,530.784 1420,530.802 1422,530.807 1424.01,530.808 1426.01,530.808 1428.01,530.808 1430.01,530.808 1432.01,548.185 1434.01,549.286 1436.02,549.586 1438.02,549.668 1440.02,549.691 1442.02,549.697 1444.02,549.698 1446.02,549.699 1448.03,549.699 1450.03,549.699 1452.03,603.172 1454.03,603.549 1456.03,603.656 1458.03,603.686 1460.03,603.694 1462.04,603.697 1464.04,603.697 1466.04,603.698 1468.04,603.698 1470.04,603.698 1472.04,403.374 1474.05,403.72 1476.05,403.812 1478.05,403.837 1480.05,403.844 1482.05,403.845 1484.05,403.846 1486.06,403.846 1488.06,403.846 1490.06,403.846 1492.06,539.666 1494.06,540.235 1496.06,540.393 1498.07,540.437 1500.07,540.449 1502.07,540.453 1504.07,540.454 1506.07,540.454 1508.07,540.454 1510.08,540.454 1512.08,463.398 1514.08,463.83 1516.08,463.958 1518.08,463.996 1520.08,464.007 1522.09,464.011 1524.09,464.011 1526.09,464.012 1528.09,464.012 1530.09,464.012 1532.09,455.032 1534.09,455.395 1536.1,455.495 1538.1,455.523 1540.1,455.531 1542.1,455.533 1544.1,455.534 1546.1,455.534 1548.11,455.534 1550.11,455.534 1552.11,589.907 1554.11,590.792 1556.11,591.042 1558.11,591.112 1560.12,591.132 1562.12,591.138 1564.12,591.14 1566.12,591.14 1568.12,591.14 1570.12,591.14 1572.13,504.642 1574.13,504.901 1576.13,504.976 1578.13,504.998 1580.13,505.005 1582.13,505.007 1584.14,505.007 1586.14,505.008 1588.14,505.008 1590.14,505.008 1592.14,670.826 1594.14,671.686 1596.14,671.939 1598.15,672.014 1600.15,672.036 1602.15,672.043 1604.15,672.045 1606.15,672.046 1608.15,672.046 1610.16,672.046 1612.16,484.906 1614.16,485.799 1616.16,486.054 1618.16,486.126 1620.16,486.147 1622.17,486.153 1624.17,486.155 1626.17,486.155 1628.17,486.156 1630.17,486.156 1632.17,489.2 1634.18,489.928 1636.18,490.129 1638.18,490.184 1640.18,490.2 1642.18,490.204 1644.18,490.205 1646.19,490.205 1648.19,490.205 1650.19,490.205 1652.19,552.949 1654.19,553.065 1656.19,553.097 1658.19,553.106 1660.2,553.109 1662.2,553.11 1664.2,553.11 1666.2,553.11 1668.2,553.11 1670.2,553.11 1672.21,593.536 1674.21,595.176 1676.21,595.622 1678.21,595.744 1680.21,595.777 1682.21,595.787 1684.22,595.789 1686.22,595.79 1688.22,595.79 1690.22,595.79 1692.22,557.656 1694.22,557.987 1696.23,558.082 1698.23,558.11 1700.23,558.118 1702.23,558.12 1704.23,558.121 1706.23,558.121 1708.24,558.121 1710.24,558.121 1712.24,768.589 1714.24,769.575 1716.24,769.881 1718.24,769.977 1720.25,770.008 1722.25,770.018 1724.25,770.021 1726.25,770.022 1728.25,770.023 1730.25,770.023 1732.25,675.32 1734.26,675.865 1736.26,676.03 1738.26,676.081 1740.26,676.097 1742.26,676.102 1744.26,676.103 1746.27,676.104 1748.27,676.104 1750.27,676.104 1752.27,935.479 1754.27,936.142 1756.27,936.329 1758.28,936.382 1760.28,936.397 1762.28,936.402 1764.28,936.403 1766.28,936.403 1768.28,936.403 1770.29,936.403 1772.29,951.706 1774.29,952.052 1776.29,952.162 1778.29,952.198 1780.29,952.21 1782.3,952.214 1784.3,952.215 1786.3,952.216 1788.3,952.216 1790.3,952.216 1792.3,757.385 1794.3,758.015 1796.31,758.182 1798.31,758.227 1800.31,758.239 1802.31,758.242 1804.31,758.243 1806.31,758.243 1808.32,758.243 1810.32,758.243 1812.32,743.987 1814.32,745.131 1816.32,745.464 1818.32,745.561 1820.33,745.59 1822.33,745.599 1824.33,745.601 1826.33,745.602 1828.33,745.602 1830.33,745.602 1832.34,970.326 1834.34,971.276 1836.34,971.534 1838.34,971.605 1840.34,971.625 1842.34,971.63 1844.35,971.632 1846.35,971.632 1848.35,971.633 1850.35,971.633 1852.35,1072.89 1854.35,1073.64 1856.35,1073.86 1858.36,1073.93 1860.36,1073.95 1862.36,1073.95 1864.36,1073.95 1866.36,1073.95 1868.36,1073.95 1870.37,1073.95 1872.37,1266.54 1874.37,1267.04 1876.37,1267.18 1878.37,1267.22 1880.37,1267.23 1882.38,1267.23 1884.38,1267.23 1886.38,1267.23 1888.38,1267.23 1890.38,1267.23 1892.38,1300.28 1894.39,1301.28 1896.39,1301.62 1898.39,1301.73 1900.39,1301.78 1902.39,1301.79 1904.39,1301.8 1906.4,1301.8 1908.4,1301.8 1910.4,1301.8 1912.4,1267.34 1914.4,1268.08 1916.4,1268.3 1918.41,1268.36 1920.41,1268.38 1922.41,1268.39 1924.41,1268.39 1926.41,1268.39 1928.41,1268.39 1930.41,1268.39 1932.42,1283.37 1934.42,1284.14 1936.42,1284.39 1938.42,1284.48 1940.42,1284.51 1942.42,1284.52 1944.43,1284.52 1946.43,1284.52 1948.43,1284.52 1950.43,1284.52 1952.43,1167.61 1954.43,1167.82 1956.44,1167.88 1958.44,1167.9 1960.44,1167.91 1962.44,1167.91 1964.44,1167.91 1966.44,1167.91 1968.45,1167.91 1970.45,1167.91 1972.45,1331.82 1974.45,1332.22 1976.45,1332.34 1978.45,1332.38 1980.46,1332.39 1982.46,1332.39 1984.46,1332.39 1986.46,1332.39 1988.46,1332.39 1990.46,1332.39 1992.46,1220.09 1994.47,1221.01 1996.47,1221.29 1998.47,1221.37 2000.47,1221.4 2002.47,1221.4 2004.47,1221.41 2006.48,1221.41 2008.48,1221.41 2010.48,1221.41 2012.48,1147.27 2014.48,1147.64 2016.48,1147.76 2018.49,1147.8 2020.49,1147.81 2022.49,1147.81 2024.49,1147.82 2026.49,1147.82 2028.49,1147.82 2030.5,1147.82 2032.5,1292.59 2034.5,1293.15 2036.5,1293.34 2038.5,1293.41 2040.5,1293.43 2042.51,1293.44 2044.51,1293.44 2046.51,1293.44 2048.51,1293.44 2050.51,1293.44 2052.51,1444.79 2054.52,1445.4 2056.52,1445.6 2058.52,1445.68 2060.52,1445.7 2062.52,1445.71 2064.52,1445.71 2066.52,1445.72 2068.53,1445.72 2070.53,1445.72 2072.53,1360.83 2074.53,1361.12 2076.53,1361.21 2078.53,1361.23 2080.54,1361.24 2082.54,1361.24 2084.54,1361.25 2086.54,1361.25 2088.54,1361.25 2090.54,1361.25 2092.55,1329.11 2094.55,1329.7 2096.55,1329.88 2098.55,1329.94 2100.55,1329.95 2102.55,1329.96 2104.56,1329.96 2106.56,1329.96 2108.56,1329.96 2110.56,1329.96 2112.56,1431.13 2114.56,1431.76 2116.57,1431.99 2118.57,1432.07 2120.57,1432.11 2122.57,1432.12 2124.57,1432.12 2126.57,1432.12 2128.57,1432.12 2130.58,1432.12 2132.58,1336.27 2134.58,1336.68 2136.58,1336.8 2138.58,1336.83 2140.58,1336.85 2142.59,1336.85 2144.59,1336.85 2146.59,1336.85 2148.59,1336.85 2150.59,1336.85 2152.59,1267.17 2154.6,1267.75 2156.6,1267.94 2158.6,1268 2160.6,1268.01 2162.6,1268.02 2164.6,1268.02 2166.61,1268.02 2168.61,1268.02 2170.61,1268.02 2172.61,1270.72 2174.61,1270.93 2176.61,1271 2178.62,1271.02 2180.62,1271.03 2182.62,1271.03 2184.62,1271.03 2186.62,1271.03 2188.62,1271.03 2190.62,1271.03 2192.63,1079.1 2194.63,1080.03 2196.63,1080.33 2198.63,1080.42 2200.63,1080.45 2202.63,1080.46 2204.64,1080.47 2206.64,1080.47 2208.64,1080.47 2210.64,1080.47 2212.64,1110.41 2214.64,1110.59 2216.65,1110.64 2218.65,1110.65 2220.65,1110.66 2222.65,1110.66 2224.65,1110.66 2226.65,1110.66 2228.66,1110.66 2230.66,1110.66 2232.66,963.237 2234.66,965.509 2236.66,966.258 2238.66,966.505 2240.67,966.587 2242.67,966.614 2244.67,966.623 2246.67,966.626 2248.67,966.627 2250.67,966.628 2252.68,978.189 2254.68,978.826 2256.68,979.017 2258.68,979.074 2260.68,979.092 2262.68,979.098 2264.68,979.099 2266.69,979.1 2268.69,979.1 2270.69,979.1 2272.69,844.7 2274.69,845.19 2276.69,845.331 2278.7,845.372 2280.7,845.384 2282.7,845.387 2284.7,845.388 2286.7,845.388 2288.7,845.388 2290.71,845.388 2292.71,845.388 "/>
<path clip-path="url(#clip010)" d="M2017.43 198.898 L2282.03 198.898 L2282.03 95.2176 L2017.43 95.2176  Z" fill="#ffffff" fill-rule="evenodd" fill-opacity="1"/>
<polyline clip-path="url(#clip010)" style="stroke:#000000; stroke-linecap:round; stroke-linejoin:round; stroke-width:4; stroke-opacity:1; fill:none" points="2017.43,198.898 2282.03,198.898 2282.03,95.2176 2017.43,95.2176 2017.43,198.898 "/>
<polyline clip-path="url(#clip010)" style="stroke:#009af9; stroke-linecap:round; stroke-linejoin:round; stroke-width:4; stroke-opacity:1; fill:none" points="2041.01,147.058 2182.45,147.058 "/>
<path clip-path="url(#clip010)" d="M2219.87 166.745 Q2218.06 171.375 2216.35 172.787 Q2214.64 174.199 2211.77 174.199 L2208.37 174.199 L2208.37 170.634 L2210.87 170.634 Q2212.62 170.634 2213.6 169.8 Q2214.57 168.967 2215.75 165.865 L2216.51 163.921 L2206.03 138.412 L2210.54 138.412 L2218.64 158.689 L2226.74 138.412 L2231.26 138.412 L2219.87 166.745 Z" fill="#000000" fill-rule="nonzero" fill-opacity="1" /><path clip-path="url(#clip010)" d="M2238.55 160.402 L2246.19 160.402 L2246.19 134.037 L2237.88 135.703 L2237.88 131.444 L2246.14 129.778 L2250.82 129.778 L2250.82 160.402 L2258.46 160.402 L2258.46 164.338 L2238.55 164.338 L2238.55 160.402 Z" fill="#000000" fill-rule="nonzero" fill-opacity="1" /></svg>
