<?xml version="1.0" encoding="utf-8"?>
<svg xmlns="http://www.w3.org/2000/svg" xmlns:xlink="http://www.w3.org/1999/xlink" width="600" height="400" viewBox="0 0 2400 1600">
<defs>
  <clipPath id="clip350">
    <rect x="0" y="0" width="2400" height="1600"/>
  </clipPath>
</defs>
<path clip-path="url(#clip350)" d="M0 1600 L2400 1600 L2400 0 L0 0  Z" fill="#ffffff" fill-rule="evenodd" fill-opacity="1"/>
<defs>
  <clipPath id="clip351">
    <rect x="480" y="0" width="1681" height="1600"/>
  </clipPath>
</defs>
<path clip-path="url(#clip350)" d="M209.029 1486.45 L2352.76 1486.45 L2352.76 47.2441 L209.029 47.2441  Z" fill="#ffffff" fill-rule="evenodd" fill-opacity="1"/>
<defs>
  <clipPath id="clip352">
    <rect x="209" y="47" width="2145" height="1440"/>
  </clipPath>
</defs>
<polyline clip-path="url(#clip352)" style="stroke:#000000; stroke-linecap:round; stroke-linejoin:round; stroke-width:2; stroke-opacity:0.1; fill:none" points="269.7,1486.45 269.7,47.2441 "/>
<polyline clip-path="url(#clip352)" style="stroke:#000000; stroke-linecap:round; stroke-linejoin:round; stroke-width:2; stroke-opacity:0.1; fill:none" points="775.549,1486.45 775.549,47.2441 "/>
<polyline clip-path="url(#clip352)" style="stroke:#000000; stroke-linecap:round; stroke-linejoin:round; stroke-width:2; stroke-opacity:0.1; fill:none" points="1281.4,1486.45 1281.4,47.2441 "/>
<polyline clip-path="url(#clip352)" style="stroke:#000000; stroke-linecap:round; stroke-linejoin:round; stroke-width:2; stroke-opacity:0.1; fill:none" points="1787.25,1486.45 1787.25,47.2441 "/>
<polyline clip-path="url(#clip352)" style="stroke:#000000; stroke-linecap:round; stroke-linejoin:round; stroke-width:2; stroke-opacity:0.1; fill:none" points="2293.1,1486.45 2293.1,47.2441 "/>
<polyline clip-path="url(#clip350)" style="stroke:#000000; stroke-linecap:round; stroke-linejoin:round; stroke-width:4; stroke-opacity:1; fill:none" points="209.029,1486.45 2352.76,1486.45 "/>
<polyline clip-path="url(#clip350)" style="stroke:#000000; stroke-linecap:round; stroke-linejoin:round; stroke-width:4; stroke-opacity:1; fill:none" points="269.7,1486.45 269.7,1467.55 "/>
<polyline clip-path="url(#clip350)" style="stroke:#000000; stroke-linecap:round; stroke-linejoin:round; stroke-width:4; stroke-opacity:1; fill:none" points="775.549,1486.45 775.549,1467.55 "/>
<polyline clip-path="url(#clip350)" style="stroke:#000000; stroke-linecap:round; stroke-linejoin:round; stroke-width:4; stroke-opacity:1; fill:none" points="1281.4,1486.45 1281.4,1467.55 "/>
<polyline clip-path="url(#clip350)" style="stroke:#000000; stroke-linecap:round; stroke-linejoin:round; stroke-width:4; stroke-opacity:1; fill:none" points="1787.25,1486.45 1787.25,1467.55 "/>
<polyline clip-path="url(#clip350)" style="stroke:#000000; stroke-linecap:round; stroke-linejoin:round; stroke-width:4; stroke-opacity:1; fill:none" points="2293.1,1486.45 2293.1,1467.55 "/>
<path clip-path="url(#clip350)" d="M269.7 1517.37 Q266.089 1517.37 264.26 1520.93 Q262.455 1524.47 262.455 1531.6 Q262.455 1538.71 264.26 1542.27 Q266.089 1545.82 269.7 1545.82 Q273.334 1545.82 275.14 1542.27 Q276.969 1538.71 276.969 1531.6 Q276.969 1524.47 275.14 1520.93 Q273.334 1517.37 269.7 1517.37 M269.7 1513.66 Q275.51 1513.66 278.566 1518.27 Q281.644 1522.85 281.644 1531.6 Q281.644 1540.33 278.566 1544.94 Q275.51 1549.52 269.7 1549.52 Q263.89 1549.52 260.811 1544.94 Q257.756 1540.33 257.756 1531.6 Q257.756 1522.85 260.811 1518.27 Q263.89 1513.66 269.7 1513.66 Z" fill="#000000" fill-rule="nonzero" fill-opacity="1" /><path clip-path="url(#clip350)" d="M735.167 1514.29 L753.524 1514.29 L753.524 1518.22 L739.45 1518.22 L739.45 1526.7 Q740.468 1526.35 741.487 1526.19 Q742.505 1526 743.524 1526 Q749.311 1526 752.69 1529.17 Q756.07 1532.34 756.07 1537.76 Q756.07 1543.34 752.598 1546.44 Q749.126 1549.52 742.806 1549.52 Q740.63 1549.52 738.362 1549.15 Q736.116 1548.78 733.709 1548.04 L733.709 1543.34 Q735.792 1544.47 738.015 1545.03 Q740.237 1545.58 742.714 1545.58 Q746.718 1545.58 749.056 1543.48 Q751.394 1541.37 751.394 1537.76 Q751.394 1534.15 749.056 1532.04 Q746.718 1529.94 742.714 1529.94 Q740.839 1529.94 738.964 1530.35 Q737.112 1530.77 735.167 1531.65 L735.167 1514.29 Z" fill="#000000" fill-rule="nonzero" fill-opacity="1" /><path clip-path="url(#clip350)" d="M775.283 1517.37 Q771.672 1517.37 769.843 1520.93 Q768.038 1524.47 768.038 1531.6 Q768.038 1538.71 769.843 1542.27 Q771.672 1545.82 775.283 1545.82 Q778.917 1545.82 780.723 1542.27 Q782.551 1538.71 782.551 1531.6 Q782.551 1524.47 780.723 1520.93 Q778.917 1517.37 775.283 1517.37 M775.283 1513.66 Q781.093 1513.66 784.149 1518.27 Q787.227 1522.85 787.227 1531.6 Q787.227 1540.33 784.149 1544.94 Q781.093 1549.52 775.283 1549.52 Q769.473 1549.52 766.394 1544.94 Q763.338 1540.33 763.338 1531.6 Q763.338 1522.85 766.394 1518.27 Q769.473 1513.66 775.283 1513.66 Z" fill="#000000" fill-rule="nonzero" fill-opacity="1" /><path clip-path="url(#clip350)" d="M805.445 1517.37 Q801.834 1517.37 800.005 1520.93 Q798.199 1524.47 798.199 1531.6 Q798.199 1538.71 800.005 1542.27 Q801.834 1545.82 805.445 1545.82 Q809.079 1545.82 810.885 1542.27 Q812.713 1538.71 812.713 1531.6 Q812.713 1524.47 810.885 1520.93 Q809.079 1517.37 805.445 1517.37 M805.445 1513.66 Q811.255 1513.66 814.31 1518.27 Q817.389 1522.85 817.389 1531.6 Q817.389 1540.33 814.31 1544.94 Q811.255 1549.52 805.445 1549.52 Q799.635 1549.52 796.556 1544.94 Q793.5 1540.33 793.5 1531.6 Q793.5 1522.85 796.556 1518.27 Q799.635 1513.66 805.445 1513.66 Z" fill="#000000" fill-rule="nonzero" fill-opacity="1" /><path clip-path="url(#clip350)" d="M1225.92 1544.91 L1233.56 1544.91 L1233.56 1518.55 L1225.25 1520.21 L1225.25 1515.95 L1233.52 1514.29 L1238.19 1514.29 L1238.19 1544.91 L1245.83 1544.91 L1245.83 1548.85 L1225.92 1548.85 L1225.92 1544.91 Z" fill="#000000" fill-rule="nonzero" fill-opacity="1" /><path clip-path="url(#clip350)" d="M1265.28 1517.37 Q1261.66 1517.37 1259.84 1520.93 Q1258.03 1524.47 1258.03 1531.6 Q1258.03 1538.71 1259.84 1542.27 Q1261.66 1545.82 1265.28 1545.82 Q1268.91 1545.82 1270.72 1542.27 Q1272.54 1538.71 1272.54 1531.6 Q1272.54 1524.47 1270.72 1520.93 Q1268.91 1517.37 1265.28 1517.37 M1265.28 1513.66 Q1271.09 1513.66 1274.14 1518.27 Q1277.22 1522.85 1277.22 1531.6 Q1277.22 1540.33 1274.14 1544.94 Q1271.09 1549.52 1265.28 1549.52 Q1259.47 1549.52 1256.39 1544.94 Q1253.33 1540.33 1253.33 1531.6 Q1253.33 1522.85 1256.39 1518.27 Q1259.47 1513.66 1265.28 1513.66 Z" fill="#000000" fill-rule="nonzero" fill-opacity="1" /><path clip-path="url(#clip350)" d="M1295.44 1517.37 Q1291.83 1517.37 1290 1520.93 Q1288.19 1524.47 1288.19 1531.6 Q1288.19 1538.71 1290 1542.27 Q1291.83 1545.82 1295.44 1545.82 Q1299.07 1545.82 1300.88 1542.27 Q1302.71 1538.71 1302.71 1531.6 Q1302.71 1524.47 1300.88 1520.93 Q1299.07 1517.37 1295.44 1517.37 M1295.44 1513.66 Q1301.25 1513.66 1304.3 1518.27 Q1307.38 1522.85 1307.38 1531.6 Q1307.38 1540.33 1304.3 1544.94 Q1301.25 1549.52 1295.44 1549.52 Q1289.63 1549.52 1286.55 1544.94 Q1283.49 1540.33 1283.49 1531.6 Q1283.49 1522.85 1286.55 1518.27 Q1289.63 1513.66 1295.44 1513.66 Z" fill="#000000" fill-rule="nonzero" fill-opacity="1" /><path clip-path="url(#clip350)" d="M1325.6 1517.37 Q1321.99 1517.37 1320.16 1520.93 Q1318.35 1524.47 1318.35 1531.6 Q1318.35 1538.71 1320.16 1542.27 Q1321.99 1545.82 1325.6 1545.82 Q1329.23 1545.82 1331.04 1542.27 Q1332.87 1538.71 1332.87 1531.6 Q1332.87 1524.47 1331.04 1520.93 Q1329.23 1517.37 1325.6 1517.37 M1325.6 1513.66 Q1331.41 1513.66 1334.46 1518.27 Q1337.54 1522.85 1337.54 1531.6 Q1337.54 1540.33 1334.46 1544.94 Q1331.41 1549.52 1325.6 1549.52 Q1319.79 1549.52 1316.71 1544.94 Q1313.65 1540.33 1313.65 1531.6 Q1313.65 1522.85 1316.71 1518.27 Q1319.79 1513.66 1325.6 1513.66 Z" fill="#000000" fill-rule="nonzero" fill-opacity="1" /><path clip-path="url(#clip350)" d="M1731.77 1544.91 L1739.41 1544.91 L1739.41 1518.55 L1731.1 1520.21 L1731.1 1515.95 L1739.37 1514.29 L1744.04 1514.29 L1744.04 1544.91 L1751.68 1544.91 L1751.68 1548.85 L1731.77 1548.85 L1731.77 1544.91 Z" fill="#000000" fill-rule="nonzero" fill-opacity="1" /><path clip-path="url(#clip350)" d="M1761.17 1514.29 L1779.53 1514.29 L1779.53 1518.22 L1765.45 1518.22 L1765.45 1526.7 Q1766.47 1526.35 1767.49 1526.19 Q1768.51 1526 1769.53 1526 Q1775.31 1526 1778.69 1529.17 Q1782.07 1532.34 1782.07 1537.76 Q1782.07 1543.34 1778.6 1546.44 Q1775.13 1549.52 1768.81 1549.52 Q1766.63 1549.52 1764.37 1549.15 Q1762.12 1548.78 1759.71 1548.04 L1759.71 1543.34 Q1761.8 1544.47 1764.02 1545.03 Q1766.24 1545.58 1768.72 1545.58 Q1772.72 1545.58 1775.06 1543.48 Q1777.4 1541.37 1777.4 1537.76 Q1777.4 1534.15 1775.06 1532.04 Q1772.72 1529.94 1768.72 1529.94 Q1766.84 1529.94 1764.97 1530.35 Q1763.12 1530.77 1761.17 1531.65 L1761.17 1514.29 Z" fill="#000000" fill-rule="nonzero" fill-opacity="1" /><path clip-path="url(#clip350)" d="M1801.29 1517.37 Q1797.68 1517.37 1795.85 1520.93 Q1794.04 1524.47 1794.04 1531.6 Q1794.04 1538.71 1795.85 1542.27 Q1797.68 1545.82 1801.29 1545.82 Q1804.92 1545.82 1806.73 1542.27 Q1808.55 1538.71 1808.55 1531.6 Q1808.55 1524.47 1806.73 1520.93 Q1804.92 1517.37 1801.29 1517.37 M1801.29 1513.66 Q1807.1 1513.66 1810.15 1518.27 Q1813.23 1522.85 1813.23 1531.6 Q1813.23 1540.33 1810.15 1544.94 Q1807.1 1549.52 1801.29 1549.52 Q1795.48 1549.52 1792.4 1544.94 Q1789.34 1540.33 1789.34 1531.6 Q1789.34 1522.85 1792.4 1518.27 Q1795.48 1513.66 1801.29 1513.66 Z" fill="#000000" fill-rule="nonzero" fill-opacity="1" /><path clip-path="url(#clip350)" d="M1831.45 1517.37 Q1827.84 1517.37 1826.01 1520.93 Q1824.2 1524.47 1824.2 1531.6 Q1824.2 1538.71 1826.01 1542.27 Q1827.84 1545.82 1831.45 1545.82 Q1835.08 1545.82 1836.89 1542.27 Q1838.72 1538.71 1838.72 1531.6 Q1838.72 1524.47 1836.89 1520.93 Q1835.08 1517.37 1831.45 1517.37 M1831.45 1513.66 Q1837.26 1513.66 1840.31 1518.27 Q1843.39 1522.85 1843.39 1531.6 Q1843.39 1540.33 1840.31 1544.94 Q1837.26 1549.52 1831.45 1549.52 Q1825.64 1549.52 1822.56 1544.94 Q1819.5 1540.33 1819.5 1531.6 Q1819.5 1522.85 1822.56 1518.27 Q1825.64 1513.66 1831.45 1513.66 Z" fill="#000000" fill-rule="nonzero" fill-opacity="1" /><path clip-path="url(#clip350)" d="M2241.71 1544.91 L2258.03 1544.91 L2258.03 1548.85 L2236.08 1548.85 L2236.08 1544.91 Q2238.74 1542.16 2243.33 1537.53 Q2247.93 1532.88 2249.11 1531.53 Q2251.36 1529.01 2252.24 1527.27 Q2253.14 1525.51 2253.14 1523.82 Q2253.14 1521.07 2251.2 1519.33 Q2249.28 1517.6 2246.18 1517.6 Q2243.98 1517.6 2241.52 1518.36 Q2239.09 1519.13 2236.31 1520.68 L2236.31 1515.95 Q2239.14 1514.82 2241.59 1514.24 Q2244.05 1513.66 2246.08 1513.66 Q2251.45 1513.66 2254.65 1516.35 Q2257.84 1519.03 2257.84 1523.52 Q2257.84 1525.65 2257.03 1527.57 Q2256.24 1529.47 2254.14 1532.07 Q2253.56 1532.74 2250.46 1535.95 Q2247.36 1539.15 2241.71 1544.91 Z" fill="#000000" fill-rule="nonzero" fill-opacity="1" /><path clip-path="url(#clip350)" d="M2277.84 1517.37 Q2274.23 1517.37 2272.4 1520.93 Q2270.6 1524.47 2270.6 1531.6 Q2270.6 1538.71 2272.4 1542.27 Q2274.23 1545.82 2277.84 1545.82 Q2281.48 1545.82 2283.28 1542.27 Q2285.11 1538.71 2285.11 1531.6 Q2285.11 1524.47 2283.28 1520.93 Q2281.48 1517.37 2277.84 1517.37 M2277.84 1513.66 Q2283.65 1513.66 2286.71 1518.27 Q2289.79 1522.85 2289.79 1531.6 Q2289.79 1540.33 2286.71 1544.94 Q2283.65 1549.52 2277.84 1549.52 Q2272.03 1549.52 2268.95 1544.94 Q2265.9 1540.33 2265.9 1531.6 Q2265.9 1522.85 2268.95 1518.27 Q2272.03 1513.66 2277.84 1513.66 Z" fill="#000000" fill-rule="nonzero" fill-opacity="1" /><path clip-path="url(#clip350)" d="M2308 1517.37 Q2304.39 1517.37 2302.56 1520.93 Q2300.76 1524.47 2300.76 1531.6 Q2300.76 1538.71 2302.56 1542.27 Q2304.39 1545.82 2308 1545.82 Q2311.64 1545.82 2313.44 1542.27 Q2315.27 1538.71 2315.27 1531.6 Q2315.27 1524.47 2313.44 1520.93 Q2311.64 1517.37 2308 1517.37 M2308 1513.66 Q2313.81 1513.66 2316.87 1518.27 Q2319.95 1522.85 2319.95 1531.6 Q2319.95 1540.33 2316.87 1544.94 Q2313.81 1549.52 2308 1549.52 Q2302.19 1549.52 2299.11 1544.94 Q2296.06 1540.33 2296.06 1531.6 Q2296.06 1522.85 2299.11 1518.27 Q2302.19 1513.66 2308 1513.66 Z" fill="#000000" fill-rule="nonzero" fill-opacity="1" /><path clip-path="url(#clip350)" d="M2338.17 1517.37 Q2334.55 1517.37 2332.73 1520.93 Q2330.92 1524.47 2330.92 1531.6 Q2330.92 1538.71 2332.73 1542.27 Q2334.55 1545.82 2338.17 1545.82 Q2341.8 1545.82 2343.61 1542.27 Q2345.43 1538.71 2345.43 1531.6 Q2345.43 1524.47 2343.61 1520.93 Q2341.8 1517.37 2338.17 1517.37 M2338.17 1513.66 Q2343.98 1513.66 2347.03 1518.27 Q2350.11 1522.85 2350.11 1531.6 Q2350.11 1540.33 2347.03 1544.94 Q2343.98 1549.52 2338.17 1549.52 Q2332.36 1549.52 2329.28 1544.94 Q2326.22 1540.33 2326.22 1531.6 Q2326.22 1522.85 2329.28 1518.27 Q2332.36 1513.66 2338.17 1513.66 Z" fill="#000000" fill-rule="nonzero" fill-opacity="1" /><polyline clip-path="url(#clip352)" style="stroke:#000000; stroke-linecap:round; stroke-linejoin:round; stroke-width:2; stroke-opacity:0.1; fill:none" points="209.029,1257.24 2352.76,1257.24 "/>
<polyline clip-path="url(#clip352)" style="stroke:#000000; stroke-linecap:round; stroke-linejoin:round; stroke-width:2; stroke-opacity:0.1; fill:none" points="209.029,981.634 2352.76,981.634 "/>
<polyline clip-path="url(#clip352)" style="stroke:#000000; stroke-linecap:round; stroke-linejoin:round; stroke-width:2; stroke-opacity:0.1; fill:none" points="209.029,706.029 2352.76,706.029 "/>
<polyline clip-path="url(#clip352)" style="stroke:#000000; stroke-linecap:round; stroke-linejoin:round; stroke-width:2; stroke-opacity:0.1; fill:none" points="209.029,430.424 2352.76,430.424 "/>
<polyline clip-path="url(#clip352)" style="stroke:#000000; stroke-linecap:round; stroke-linejoin:round; stroke-width:2; stroke-opacity:0.1; fill:none" points="209.029,154.818 2352.76,154.818 "/>
<polyline clip-path="url(#clip350)" style="stroke:#000000; stroke-linecap:round; stroke-linejoin:round; stroke-width:4; stroke-opacity:1; fill:none" points="209.029,1486.45 209.029,47.2441 "/>
<polyline clip-path="url(#clip350)" style="stroke:#000000; stroke-linecap:round; stroke-linejoin:round; stroke-width:4; stroke-opacity:1; fill:none" points="209.029,1257.24 227.926,1257.24 "/>
<polyline clip-path="url(#clip350)" style="stroke:#000000; stroke-linecap:round; stroke-linejoin:round; stroke-width:4; stroke-opacity:1; fill:none" points="209.029,981.634 227.926,981.634 "/>
<polyline clip-path="url(#clip350)" style="stroke:#000000; stroke-linecap:round; stroke-linejoin:round; stroke-width:4; stroke-opacity:1; fill:none" points="209.029,706.029 227.926,706.029 "/>
<polyline clip-path="url(#clip350)" style="stroke:#000000; stroke-linecap:round; stroke-linejoin:round; stroke-width:4; stroke-opacity:1; fill:none" points="209.029,430.424 227.926,430.424 "/>
<polyline clip-path="url(#clip350)" style="stroke:#000000; stroke-linecap:round; stroke-linejoin:round; stroke-width:4; stroke-opacity:1; fill:none" points="209.029,154.818 227.926,154.818 "/>
<path clip-path="url(#clip350)" d="M50.9921 1257.69 L80.6679 1257.69 L80.6679 1261.63 L50.9921 1261.63 L50.9921 1257.69 Z" fill="#000000" fill-rule="nonzero" fill-opacity="1" /><path clip-path="url(#clip350)" d="M94.7882 1270.58 L111.108 1270.58 L111.108 1274.52 L89.1632 1274.52 L89.1632 1270.58 Q91.8252 1267.83 96.4085 1263.2 Q101.015 1258.55 102.196 1257.2 Q104.441 1254.68 105.321 1252.95 Q106.223 1251.19 106.223 1249.5 Q106.223 1246.74 104.279 1245.01 Q102.358 1243.27 99.2558 1243.27 Q97.0567 1243.27 94.603 1244.03 Q92.1725 1244.8 89.3947 1246.35 L89.3947 1241.63 Q92.2188 1240.49 94.6724 1239.91 Q97.1261 1239.33 99.1632 1239.33 Q104.534 1239.33 107.728 1242.02 Q110.922 1244.7 110.922 1249.2 Q110.922 1251.33 110.112 1253.25 Q109.325 1255.14 107.219 1257.74 Q106.64 1258.41 103.538 1261.63 Q100.436 1264.82 94.7882 1270.58 Z" fill="#000000" fill-rule="nonzero" fill-opacity="1" /><path clip-path="url(#clip350)" d="M120.969 1239.96 L139.325 1239.96 L139.325 1243.89 L125.251 1243.89 L125.251 1252.37 Q126.27 1252.02 127.288 1251.86 Q128.307 1251.67 129.325 1251.67 Q135.112 1251.67 138.492 1254.84 Q141.871 1258.02 141.871 1263.43 Q141.871 1269.01 138.399 1272.11 Q134.927 1275.19 128.607 1275.19 Q126.432 1275.19 124.163 1274.82 Q121.918 1274.45 119.51 1273.71 L119.51 1269.01 Q121.594 1270.14 123.816 1270.7 Q126.038 1271.26 128.515 1271.26 Q132.519 1271.26 134.857 1269.15 Q137.195 1267.04 137.195 1263.43 Q137.195 1259.82 134.857 1257.71 Q132.519 1255.61 128.515 1255.61 Q126.64 1255.61 124.765 1256.02 Q122.913 1256.44 120.969 1257.32 L120.969 1239.96 Z" fill="#000000" fill-rule="nonzero" fill-opacity="1" /><path clip-path="url(#clip350)" d="M161.084 1243.04 Q157.473 1243.04 155.644 1246.6 Q153.839 1250.14 153.839 1257.27 Q153.839 1264.38 155.644 1267.95 Q157.473 1271.49 161.084 1271.49 Q164.718 1271.49 166.524 1267.95 Q168.353 1264.38 168.353 1257.27 Q168.353 1250.14 166.524 1246.6 Q164.718 1243.04 161.084 1243.04 M161.084 1239.33 Q166.894 1239.33 169.95 1243.94 Q173.029 1248.52 173.029 1257.27 Q173.029 1266 169.95 1270.61 Q166.894 1275.19 161.084 1275.19 Q155.274 1275.19 152.195 1270.61 Q149.14 1266 149.14 1257.27 Q149.14 1248.52 152.195 1243.94 Q155.274 1239.33 161.084 1239.33 Z" fill="#000000" fill-rule="nonzero" fill-opacity="1" /><path clip-path="url(#clip350)" d="M50.9921 982.086 L80.6679 982.086 L80.6679 986.021 L50.9921 986.021 L50.9921 982.086 Z" fill="#000000" fill-rule="nonzero" fill-opacity="1" /><path clip-path="url(#clip350)" d="M94.7882 994.979 L111.108 994.979 L111.108 998.914 L89.1632 998.914 L89.1632 994.979 Q91.8252 992.224 96.4085 987.595 Q101.015 982.942 102.196 981.599 Q104.441 979.076 105.321 977.34 Q106.223 975.581 106.223 973.891 Q106.223 971.137 104.279 969.4 Q102.358 967.664 99.2558 967.664 Q97.0567 967.664 94.603 968.428 Q92.1725 969.192 89.3947 970.743 L89.3947 966.021 Q92.2188 964.887 94.6724 964.308 Q97.1261 963.729 99.1632 963.729 Q104.534 963.729 107.728 966.414 Q110.922 969.1 110.922 973.59 Q110.922 975.72 110.112 977.641 Q109.325 979.539 107.219 982.132 Q106.64 982.803 103.538 986.021 Q100.436 989.215 94.7882 994.979 Z" fill="#000000" fill-rule="nonzero" fill-opacity="1" /><path clip-path="url(#clip350)" d="M130.922 967.433 Q127.311 967.433 125.482 970.998 Q123.677 974.539 123.677 981.669 Q123.677 988.775 125.482 992.34 Q127.311 995.882 130.922 995.882 Q134.556 995.882 136.362 992.34 Q138.191 988.775 138.191 981.669 Q138.191 974.539 136.362 970.998 Q134.556 967.433 130.922 967.433 M130.922 963.729 Q136.732 963.729 139.788 968.336 Q142.867 972.919 142.867 981.669 Q142.867 990.396 139.788 995.002 Q136.732 999.586 130.922 999.586 Q125.112 999.586 122.033 995.002 Q118.978 990.396 118.978 981.669 Q118.978 972.919 122.033 968.336 Q125.112 963.729 130.922 963.729 Z" fill="#000000" fill-rule="nonzero" fill-opacity="1" /><path clip-path="url(#clip350)" d="M161.084 967.433 Q157.473 967.433 155.644 970.998 Q153.839 974.539 153.839 981.669 Q153.839 988.775 155.644 992.34 Q157.473 995.882 161.084 995.882 Q164.718 995.882 166.524 992.34 Q168.353 988.775 168.353 981.669 Q168.353 974.539 166.524 970.998 Q164.718 967.433 161.084 967.433 M161.084 963.729 Q166.894 963.729 169.95 968.336 Q173.029 972.919 173.029 981.669 Q173.029 990.396 169.95 995.002 Q166.894 999.586 161.084 999.586 Q155.274 999.586 152.195 995.002 Q149.14 990.396 149.14 981.669 Q149.14 972.919 152.195 968.336 Q155.274 963.729 161.084 963.729 Z" fill="#000000" fill-rule="nonzero" fill-opacity="1" /><path clip-path="url(#clip350)" d="M50.9921 706.48 L80.6679 706.48 L80.6679 710.415 L50.9921 710.415 L50.9921 706.48 Z" fill="#000000" fill-rule="nonzero" fill-opacity="1" /><path clip-path="url(#clip350)" d="M91.5706 719.374 L99.2095 719.374 L99.2095 693.008 L90.8993 694.675 L90.8993 690.416 L99.1632 688.749 L103.839 688.749 L103.839 719.374 L111.478 719.374 L111.478 723.309 L91.5706 723.309 L91.5706 719.374 Z" fill="#000000" fill-rule="nonzero" fill-opacity="1" /><path clip-path="url(#clip350)" d="M120.969 688.749 L139.325 688.749 L139.325 692.684 L125.251 692.684 L125.251 701.156 Q126.27 700.809 127.288 700.647 Q128.307 700.462 129.325 700.462 Q135.112 700.462 138.492 703.633 Q141.871 706.804 141.871 712.221 Q141.871 717.8 138.399 720.901 Q134.927 723.98 128.607 723.98 Q126.432 723.98 124.163 723.61 Q121.918 723.239 119.51 722.499 L119.51 717.8 Q121.594 718.934 123.816 719.489 Q126.038 720.045 128.515 720.045 Q132.519 720.045 134.857 717.939 Q137.195 715.832 137.195 712.221 Q137.195 708.61 134.857 706.503 Q132.519 704.397 128.515 704.397 Q126.64 704.397 124.765 704.814 Q122.913 705.23 120.969 706.11 L120.969 688.749 Z" fill="#000000" fill-rule="nonzero" fill-opacity="1" /><path clip-path="url(#clip350)" d="M161.084 691.828 Q157.473 691.828 155.644 695.392 Q153.839 698.934 153.839 706.064 Q153.839 713.17 155.644 716.735 Q157.473 720.276 161.084 720.276 Q164.718 720.276 166.524 716.735 Q168.353 713.17 168.353 706.064 Q168.353 698.934 166.524 695.392 Q164.718 691.828 161.084 691.828 M161.084 688.124 Q166.894 688.124 169.95 692.73 Q173.029 697.314 173.029 706.064 Q173.029 714.79 169.95 719.397 Q166.894 723.98 161.084 723.98 Q155.274 723.98 152.195 719.397 Q149.14 714.79 149.14 706.064 Q149.14 697.314 152.195 692.73 Q155.274 688.124 161.084 688.124 Z" fill="#000000" fill-rule="nonzero" fill-opacity="1" /><path clip-path="url(#clip350)" d="M50.9921 430.875 L80.6679 430.875 L80.6679 434.81 L50.9921 434.81 L50.9921 430.875 Z" fill="#000000" fill-rule="nonzero" fill-opacity="1" /><path clip-path="url(#clip350)" d="M91.5706 443.768 L99.2095 443.768 L99.2095 417.403 L90.8993 419.069 L90.8993 414.81 L99.1632 413.144 L103.839 413.144 L103.839 443.768 L111.478 443.768 L111.478 447.704 L91.5706 447.704 L91.5706 443.768 Z" fill="#000000" fill-rule="nonzero" fill-opacity="1" /><path clip-path="url(#clip350)" d="M130.922 416.222 Q127.311 416.222 125.482 419.787 Q123.677 423.329 123.677 430.458 Q123.677 437.565 125.482 441.13 Q127.311 444.671 130.922 444.671 Q134.556 444.671 136.362 441.13 Q138.191 437.565 138.191 430.458 Q138.191 423.329 136.362 419.787 Q134.556 416.222 130.922 416.222 M130.922 412.519 Q136.732 412.519 139.788 417.125 Q142.867 421.708 142.867 430.458 Q142.867 439.185 139.788 443.792 Q136.732 448.375 130.922 448.375 Q125.112 448.375 122.033 443.792 Q118.978 439.185 118.978 430.458 Q118.978 421.708 122.033 417.125 Q125.112 412.519 130.922 412.519 Z" fill="#000000" fill-rule="nonzero" fill-opacity="1" /><path clip-path="url(#clip350)" d="M161.084 416.222 Q157.473 416.222 155.644 419.787 Q153.839 423.329 153.839 430.458 Q153.839 437.565 155.644 441.13 Q157.473 444.671 161.084 444.671 Q164.718 444.671 166.524 441.13 Q168.353 437.565 168.353 430.458 Q168.353 423.329 166.524 419.787 Q164.718 416.222 161.084 416.222 M161.084 412.519 Q166.894 412.519 169.95 417.125 Q173.029 421.708 173.029 430.458 Q173.029 439.185 169.95 443.792 Q166.894 448.375 161.084 448.375 Q155.274 448.375 152.195 443.792 Q149.14 439.185 149.14 430.458 Q149.14 421.708 152.195 417.125 Q155.274 412.519 161.084 412.519 Z" fill="#000000" fill-rule="nonzero" fill-opacity="1" /><path clip-path="url(#clip350)" d="M81.154 155.27 L110.83 155.27 L110.83 159.205 L81.154 159.205 L81.154 155.27 Z" fill="#000000" fill-rule="nonzero" fill-opacity="1" /><path clip-path="url(#clip350)" d="M120.969 137.538 L139.325 137.538 L139.325 141.473 L125.251 141.473 L125.251 149.946 Q126.27 149.598 127.288 149.436 Q128.307 149.251 129.325 149.251 Q135.112 149.251 138.492 152.422 Q141.871 155.594 141.871 161.01 Q141.871 166.589 138.399 169.691 Q134.927 172.77 128.607 172.77 Q126.432 172.77 124.163 172.399 Q121.918 172.029 119.51 171.288 L119.51 166.589 Q121.594 167.723 123.816 168.279 Q126.038 168.834 128.515 168.834 Q132.519 168.834 134.857 166.728 Q137.195 164.621 137.195 161.01 Q137.195 157.399 134.857 155.293 Q132.519 153.186 128.515 153.186 Q126.64 153.186 124.765 153.603 Q122.913 154.02 120.969 154.899 L120.969 137.538 Z" fill="#000000" fill-rule="nonzero" fill-opacity="1" /><path clip-path="url(#clip350)" d="M161.084 140.617 Q157.473 140.617 155.644 144.182 Q153.839 147.723 153.839 154.853 Q153.839 161.959 155.644 165.524 Q157.473 169.066 161.084 169.066 Q164.718 169.066 166.524 165.524 Q168.353 161.959 168.353 154.853 Q168.353 147.723 166.524 144.182 Q164.718 140.617 161.084 140.617 M161.084 136.913 Q166.894 136.913 169.95 141.52 Q173.029 146.103 173.029 154.853 Q173.029 163.58 169.95 168.186 Q166.894 172.77 161.084 172.77 Q155.274 172.77 152.195 168.186 Q149.14 163.58 149.14 154.853 Q149.14 146.103 152.195 141.52 Q155.274 136.913 161.084 136.913 Z" fill="#000000" fill-rule="nonzero" fill-opacity="1" /><polyline clip-path="url(#clip352)" style="stroke:#009af9; stroke-linecap:round; stroke-linejoin:round; stroke-width:4; stroke-opacity:1; fill:none" points="269.7,296.246 270.712,296.149 271.723,528.092 272.735,527.459 273.747,163.06 274.759,163.051 275.77,134.4 276.782,134.404 277.794,109.731 278.805,109.701 279.817,142.154 280.829,142.155 281.84,307.956 282.852,307.841 283.864,315.074 284.876,315.049 285.887,215.102 286.899,215.073 287.911,239.111 288.922,239.057 289.934,226.801 290.946,226.716 291.957,465.947 292.969,465.826 293.981,338.88 294.992,338.796 296.004,87.9925 297.016,87.9763 298.028,212.986 299.039,213.036 300.051,417.917 301.063,417.696 302.074,248.864 303.086,248.909 304.098,373.619 305.109,373.416 306.121,218.262 307.133,218.278 308.145,373.4 309.156,373.265 310.168,354.834 311.18,354.79 312.191,288.735 313.203,288.763 314.215,223.119 315.226,223.154 316.238,290.526 317.25,290.484 318.262,337.994 319.273,337.935 320.285,503.78 321.297,503.126 322.308,303.449 323.32,303.427 324.332,503.923 325.343,503.764 326.355,491.903 327.367,491.275 328.379,371.772 329.39,371.789 330.402,402.207 331.414,401.905 332.425,286.207 333.437,286.099 334.449,484.986 335.46,484.474 336.472,261.214 337.484,261.09 338.496,309.494 339.507,309.453 340.519,439.121 341.531,439.071 342.542,386.344 343.554,386.291 344.566,363.653 345.577,363.587 346.589,391.245 347.601,391.198 348.612,295.919 349.624,295.878 350.636,434.206 351.648,434.205 352.659,215.634 353.671,215.601 354.683,324.548 355.694,324.496 356.706,536.901 357.718,536.396 358.729,202.506 359.741,202.444 360.753,342.746 361.765,342.648 362.776,319.337 363.788,319.288 364.8,411.829 365.811,411.509 366.823,356.504 367.835,356.425 368.846,497 369.858,496.723 370.87,376.118 371.882,376.061 372.893,340.833 373.905,340.699 374.917,287.37 375.928,287.325 376.94,587.594 377.952,587.166 378.963,586.189 379.975,585.687 380.987,321.881 381.999,321.858 383.01,409.675 384.022,409.475 385.034,533.245 386.045,533.065 387.057,357.824 388.069,357.495 389.08,442.71 390.092,442.676 391.104,626.83 392.115,626.426 393.127,320.569 394.139,320.499 395.151,298.861 396.162,298.81 397.174,335.917 398.186,335.877 399.197,531.105 400.209,531.001 401.221,340.323 402.232,340.213 403.244,416.017 404.256,416 405.268,527.253 406.279,526.893 407.291,482.146 408.303,482.022 409.314,427.05 410.326,426.873 411.338,281.118 412.349,281.035 413.361,718.807 414.373,718.32 415.385,454.576 416.396,454.594 417.408,337.916 418.42,337.926 419.431,525.78 420.443,525.576 421.455,665.31 422.466,665.089 423.478,596.884 424.49,596.558 425.502,490.737 426.513,490.428 427.525,344.356 428.537,344.368 429.548,624.3 430.56,624.126 431.572,578.168 432.583,577.768 433.595,512.658 434.607,512.496 435.619,609.737 436.63,609.596 437.642,358.277 438.654,358.185 439.665,429.713 440.677,429.568 441.689,922.703 442.7,922.251 443.712,606.88 444.724,606.629 445.735,672.822 446.747,672.615 447.759,540.509 448.771,540.493 449.782,511.338 450.794,511.302 451.806,587.204 452.817,586.962 453.829,719.17 454.841,718.88 455.852,634.729 456.864,634.495 457.876,781.315 458.888,780.632 459.899,629.774 460.911,629.591 461.923,566.931 462.934,566.532 463.946,608.155 464.958,607.938 465.969,796.59 466.981,796.059 467.993,684.834 469.005,684.405 470.016,628.049 471.028,627.79 472.04,743.366 473.051,743.204 474.063,530.316 475.075,530.152 476.086,815.358 477.098,815.236 478.11,764.139 479.122,763.865 480.133,777.469 481.145,777.139 482.157,516.073 483.168,515.979 484.18,598.242 485.192,597.96 486.203,645.49 487.215,645.2 488.227,801.941 489.239,801.379 490.25,788.504 491.262,788.105 492.274,652.847 493.285,652.699 494.297,658.843 495.309,658.705 496.32,747.175 497.332,746.992 498.344,718.517 499.355,718.28 500.367,873.378 501.379,872.888 502.391,676.075 503.402,675.818 504.414,816.178 505.426,815.751 506.437,801.632 507.449,801.576 508.461,742.397 509.472,742.095 510.484,679.133 511.496,678.717 512.508,741.461 513.519,741.167 514.531,658.563 515.543,658.439 516.554,826.65 517.566,826.178 518.578,617.271 519.589,617.166 520.601,695.143 521.613,694.859 522.625,875.961 523.636,875.411 524.648,806.13 525.66,805.82 526.671,794.838 527.683,794.676 528.695,756.179 529.706,755.892 530.718,694.931 531.73,694.525 532.742,853.973 533.753,853.609 534.765,593.715 535.777,593.614 536.788,760.107 537.8,759.931 538.812,836.32 539.823,835.998 540.835,727.825 541.847,727.445 542.859,675.942 543.87,675.792 544.882,670.715 545.894,670.413 546.905,842.515 547.917,841.963 548.929,776.15 549.94,775.879 550.952,773.946 551.964,773.808 552.975,790.458 553.987,790.293 554.999,743.511 556.011,743.304 557.022,716.213 558.034,715.935 559.046,955.903 560.057,955.639 561.069,839.281 562.081,838.987 563.092,808.595 564.104,808.342 565.116,920.222 566.128,919.767 567.139,658.749 568.151,658.62 569.163,766.759 570.174,766.672 571.186,1068.11 572.198,1067.84 573.209,895.82 574.221,895.587 575.233,1006.51 576.245,1005.98 577.256,1018.48 578.268,1018.31 579.28,780.506 580.291,780.301 581.303,1150.26 582.315,1149.94 583.326,940.487 584.338,940.208 585.35,952.527 586.362,952.365 587.373,860.857 588.385,860.098 589.397,932.246 590.408,932.042 591.42,1014.14 592.432,1013.54 593.443,860.081 594.455,859.848 595.467,742.957 596.478,742.769 597.49,842.281 598.502,842.247 599.514,830.725 600.525,830.5 601.537,898.856 602.549,898.645 603.56,1001.34 604.572,1001.07 605.584,892.628 606.595,892.506 607.607,1008.14 608.619,1007.8 609.631,1087.63 610.642,1087.28 611.654,1010.63 612.666,1010.48 613.677,1013.97 614.689,1013.7 615.701,1099.45 616.712,1098.99 617.724,812.702 618.736,812.052 619.748,1028.41 620.759,1027.78 621.771,791.912 622.783,791.805 623.794,836.657 624.806,836.511 625.818,1161.81 626.829,1161.42 627.841,976.864 628.853,976.611 629.865,1161.41 630.876,1161.18 631.888,901.174 632.9,900.957 633.911,1019.79 634.923,1019.4 635.935,1069.16 636.946,1068.63 637.958,1008.92 638.97,1008.56 639.982,1127.13 640.993,1126.97 642.005,878.014 643.017,877.843 644.028,1060.55 645.04,1060.14 646.052,1164.51 647.063,1164.2 648.075,1015.57 649.087,1015.37 650.098,940.019 651.11,939.697 652.122,949.039 653.134,948.712 654.145,887.002 655.157,886.867 656.169,1065.3 657.18,1064.98 658.192,1196.37 659.204,1196.03 660.215,1012.19 661.227,1011.83 662.239,866.37 663.251,866.238 664.262,1180.17 665.274,1179.94 666.286,1003.51 667.297,1003.44 668.309,905.787 669.321,905.676 670.332,958.921 671.344,958.744 672.356,894.719 673.368,894.612 674.379,1048.01 675.391,1047.82 676.403,1121.11 677.414,1120.58 678.426,1094.22 679.438,1093.97 680.449,1131.91 681.461,1131.67 682.473,1035.49 683.485,1035.36 684.496,968.609 685.508,968.442 686.52,883.345 687.531,883.226 688.543,1001.24 689.555,1001.05 690.566,1110.12 691.578,1109.64 692.59,1179.46 693.602,1179.13 694.613,1037.73 695.625,1037.49 696.637,996.933 697.648,996.618 698.66,1026.22 699.672,1025.98 700.683,936.599 701.695,936.492 702.707,1086.69 703.718,1086.62 704.73,1028.12 705.742,1027.92 706.754,1133.01 707.765,1132.86 708.777,1187.8 709.789,1187.58 710.8,1058.28 711.812,1058.13 712.824,1107.54 713.835,1107.49 714.847,980.989 715.859,980.719 716.871,1114.24 717.882,1113.95 718.894,1031.3 719.906,1031.05 720.917,935.108 721.929,935.038 722.941,1003.83 723.952,1003.66 724.964,931.691 725.976,931.557 726.988,944.272 727.999,944.117 729.011,1068.49 730.023,1068.35 731.034,1095.55 732.046,1095.36 733.058,949.021 734.069,948.836 735.081,1171.24 736.093,1171.06 737.105,989.477 738.116,989.299 739.128,1083.16 740.14,1082.9 741.151,1000.04 742.163,999.852 743.175,1106.7 744.186,1106.45 745.198,1264.49 746.21,1264.36 747.222,1066.51 748.233,1066.42 749.245,1032.84 750.257,1032.72 751.268,1049.6 752.28,1049.55 753.292,1266.5 754.303,1266.38 755.315,1329.32 756.327,1329.19 757.338,925.479 758.35,925.441 759.362,1071.14 760.374,1070.96 761.385,1195.43 762.397,1195.13 763.409,1127.74 764.42,1127.53 765.432,1162.27 766.444,1162.05 767.455,987.968 768.467,987.832 769.479,1048.94 770.491,1048.8 771.502,1158.03 772.514,1157.98 773.526,1120.8 774.537,1120.57 775.549,937.442 776.561,937.359 777.572,1173.01 778.584,1172.85 779.596,964.429 780.608,964.333 781.619,1048.8 782.631,1048.69 783.643,1192.91 784.654,1192.71 785.666,1025.14 786.678,1025.02 787.689,1162.83 788.701,1162.61 789.713,967.635 790.725,967.556 791.736,1222.88 792.748,1222.67 793.76,1202.14 794.771,1201.99 795.783,1151.53 796.795,1151.33 797.806,1137.07 798.818,1136.9 799.83,1049.89 800.841,1049.74 801.853,1220.43 802.865,1220.25 803.877,1126.24 804.888,1126.1 805.9,1132.01 806.912,1131.92 807.923,1177.45 808.935,1177.4 809.947,1023.78 810.958,1023.67 811.97,1157.7 812.982,1157.55 813.994,1134.8 815.005,1134.57 816.017,1122.4 817.029,1122.18 818.04,1016.8 819.052,1016.69 820.064,1160.16 821.075,1159.89 822.087,1076.89 823.099,1076.79 824.111,1079.86 825.122,1079.7 826.134,1027.49 827.146,1027.37 828.157,1189.68 829.169,1189.46 830.181,1065.28 831.192,1065.21 832.204,1102.15 833.216,1102.05 834.228,1069.85 835.239,1069.69 836.251,1114.3 837.263,1114.19 838.274,1329.57 839.286,1329.18 840.298,1125.15 841.309,1124.98 842.321,1053.55 843.333,1053.43 844.345,976.244 845.356,976.179 846.368,1064.23 847.38,1064.08 848.391,1115.46 849.403,1115.34 850.415,1181.55 851.426,1181.49 852.438,1083 853.45,1082.76 854.461,1171.66 855.473,1171.52 856.485,915.475 857.497,915.425 858.508,1165.67 859.52,1165.58 860.532,1110.52 861.543,1110.26 862.555,1141.13 863.567,1141.1 864.578,1203.81 865.59,1203.7 866.602,1235.13 867.614,1234.77 868.625,993.167 869.637,993.091 870.649,1156.6 871.66,1156.46 872.672,1233.86 873.684,1233.75 874.695,1183.2 875.707,1183.08 876.719,1320.33 877.731,1320.25 878.742,1111.27 879.754,1111.2 880.766,1222.2 881.777,1222.07 882.789,1148.61 883.801,1148.44 884.812,992.492 885.824,992.421 886.836,1064.52 887.848,1064.45 888.859,1210.35 889.871,1210.23 890.883,1154.08 891.894,1154.01 892.906,1296.39 893.918,1296.17 894.929,1163.3 895.941,1163.22 896.953,1101.59 897.965,1101.52 898.976,1288.7 899.988,1288.32 901,1141.55 902.011,1141.49 903.023,1081.44 904.035,1081.28 905.046,1040.89 906.058,1040.83 907.07,1256.48 908.081,1256.41 909.093,1243.12 910.105,1243.04 911.117,1255.94 912.128,1255.79 913.14,1033.95 914.152,1033.77 915.163,1159.53 916.175,1159.45 917.187,1322.42 918.198,1322.31 919.21,1195.11 920.222,1195.05 921.234,1133.96 922.245,1133.86 923.257,1236.19 924.269,1236.12 925.28,1252.32 926.292,1252.29 927.304,1115.84 928.315,1115.75 929.327,1209.97 930.339,1209.61 931.351,1134.01 932.362,1133.93 933.374,1119.07 934.386,1118.96 935.397,1114.57 936.409,1114.55 937.421,1177.23 938.432,1177.17 939.444,1212.06 940.456,1212.01 941.468,1272.13 942.479,1272 943.491,1226.61 944.503,1226.56 945.514,1287.64 946.526,1287.47 947.538,1113.09 948.549,1112.72 949.561,1193.65 950.573,1193.56 951.585,1233.06 952.596,1232.96 953.608,1192.19 954.62,1192.11 955.631,1069.94 956.643,1069.89 957.655,1195.45 958.666,1195.41 959.678,1307.2 960.69,1307.09 961.701,1039.65 962.713,1039.53 963.725,1096.23 964.737,1096.05 965.748,1270.95 966.76,1270.74 967.772,1291.51 968.783,1291.21 969.795,1203.18 970.807,1203.12 971.818,1241.5 972.83,1241.35 973.842,1270.86 974.854,1270.81 975.865,1254.06 976.877,1253.91 977.889,1201.4 978.9,1201.3 979.912,1113.18 980.924,1113.14 981.935,1131.7 982.947,1131.67 983.959,1287.13 984.971,1287.06 985.982,1242.06 986.994,1241.97 988.006,1200.13 989.017,1200.06 990.029,1174.65 991.041,1174.59 992.052,1257.61 993.064,1257.52 994.076,1232.49 995.088,1232.43 996.099,1315.38 997.111,1315.34 998.123,996.159 999.134,996.101 1000.15,1118.72 1001.16,1118.6 1002.17,1178.22 1003.18,1178.12 1004.19,1128.65 1005.2,1128.56 1006.22,1254.89 1007.23,1254.75 1008.24,1295.66 1009.25,1295.53 1010.26,1201.19 1011.27,1200.83 1012.29,1041.07 1013.3,1041 1014.31,1310.91 1015.32,1310.83 1016.33,1251.28 1017.34,1251.26 1018.36,1179.35 1019.37,1179.31 1020.38,1189.17 1021.39,1189.12 1022.4,1283.47 1023.42,1283.41 1024.43,1265.15 1025.44,1265.03 1026.45,1185.9 1027.46,1185.82 1028.47,1286.74 1029.49,1286.63 1030.5,1156.08 1031.51,1156.01 1032.52,1219.17 1033.53,1219.1 1034.54,1286.46 1035.56,1286.31 1036.57,1248.79 1037.58,1248.72 1038.59,1218.9 1039.6,1218.84 1040.61,1252.44 1041.63,1252.37 1042.64,1231.61 1043.65,1231.56 1044.66,1145.19 1045.67,1145.08 1046.68,1147.51 1047.7,1147.32 1048.71,1143.87 1049.72,1143.8 1050.73,1282.14 1051.74,1282.12 1052.75,1050.96 1053.77,1050.84 1054.78,1186.18 1055.79,1186.12 1056.8,1203.61 1057.81,1203.54 1058.82,1234.39 1059.84,1234.33 1060.85,1220.54 1061.86,1220.45 1062.87,1049.87 1063.88,1049.79 1064.89,1247.86 1065.91,1247.82 1066.92,1274.08 1067.93,1273.94 1068.94,1109.25 1069.95,1109.09 1070.96,1189.26 1071.98,1189.19 1072.99,1233.25 1074,1233.18 1075.01,1279.63 1076.02,1279.52 1077.04,1138.92 1078.05,1138.84 1079.06,1209.72 1080.07,1209.31 1081.08,1129.5 1082.09,1129.42 1083.11,1291.36 1084.12,1291.09 1085.13,1165.04 1086.14,1164.69 1087.15,1184.04 1088.16,1183.96 1089.18,1115.87 1090.19,1115.72 1091.2,1200.71 1092.21,1200.67 1093.22,1162.46 1094.23,1162.41 1095.25,1255.97 1096.26,1255.75 1097.27,1235.5 1098.28,1235.44 1099.29,1217.25 1100.3,1217.21 1101.32,1216.16 1102.33,1216.08 1103.34,1212.86 1104.35,1212.72 1105.36,1276.97 1106.37,1276.89 1107.39,1188.82 1108.4,1188.71 1109.41,1201.25 1110.42,1201.21 1111.43,1187.07 1112.44,1187.02 1113.46,1158.21 1114.47,1158.13 1115.48,1237.09 1116.49,1236.74 1117.5,1280.84 1118.51,1280.81 1119.53,1234.81 1120.54,1234.62 1121.55,1224.22 1122.56,1223.52 1123.57,1290.84 1124.58,1290.64 1125.6,1175.8 1126.61,1175.75 1127.62,1231.6 1128.63,1231.54 1129.64,1227.17 1130.66,1227.01 1131.67,1337.24 1132.68,1337.17 1133.69,1194.35 1134.7,1193.72 1135.71,1277.52 1136.73,1277.4 1137.74,1188.37 1138.75,1188.28 1139.76,1172.35 1140.77,1172.3 1141.78,1274.96 1142.8,1274.89 1143.81,1247.97 1144.82,1247.85 1145.83,1141.42 1146.84,1141.35 1147.85,1174.23 1148.87,1174.07 1149.88,1246.55 1150.89,1246.43 1151.9,1189.03 1152.91,1188.8 1153.92,1260.38 1154.94,1260.34 1155.95,1258.59 1156.96,1258.48 1157.97,1152.7 1158.98,1152.55 1159.99,1248.95 1161.01,1248.92 1162.02,1202.34 1163.03,1202.24 1164.04,1318.56 1165.05,1318.47 1166.06,1273.79 1167.08,1273.72 1168.09,1155.92 1169.1,1155.87 1170.11,1292.74 1171.12,1292.69 1172.13,1407.23 1173.15,1406.97 1174.16,1215.29 1175.17,1215.25 1176.18,1273.23 1177.19,1273.13 1178.2,1260.94 1179.22,1260.9 1180.23,1227.51 1181.24,1227.31 1182.25,1286.14 1183.26,1285.99 1184.28,1181.66 1185.29,1181.5 1186.3,1250.3 1187.31,1250.07 1188.32,1308.2 1189.33,1308.17 1190.35,1187.29 1191.36,1187.21 1192.37,1287.72 1193.38,1287.66 1194.39,1169.79 1195.4,1169.76 1196.42,1323.93 1197.43,1323.89 1198.44,1311.34 1199.45,1311.27 1200.46,1335.85 1201.47,1335.73 1202.49,1225.56 1203.5,1225.4 1204.51,1256.23 1205.52,1256.14 1206.53,1351.54 1207.54,1351.07 1208.56,1445.72 1209.57,1445.62 1210.58,1219.83 1211.59,1219.47 1212.6,1209.55 1213.61,1209.32 1214.63,1289.28 1215.64,1289.22 1216.65,1225.72 1217.66,1225.55 1218.67,1334.5 1219.68,1334.41 1220.7,1226.67 1221.71,1226.62 1222.72,1201.81 1223.73,1201.73 1224.74,1287.64 1225.75,1287.39 1226.77,1374.58 1227.78,1374.49 1228.79,1262.72 1229.8,1262.59 1230.81,1206.72 1231.82,1206.61 1232.84,1224.18 1233.85,1224.1 1234.86,1261.48 1235.87,1261.4 1236.88,1306.01 1237.9,1305.93 1238.91,1281.2 1239.92,1281.17 1240.93,1395.52 1241.94,1395.49 1242.95,1289.78 1243.97,1289.51 1244.98,1360.32 1245.99,1360.25 1247,1306 1248.01,1305.77 1249.02,1236.79 1250.04,1236.59 1251.05,1156.56 1252.06,1156.51 1253.07,1277.01 1254.08,1276.93 1255.09,1212.36 1256.11,1212.33 1257.12,1248.82 1258.13,1248.62 1259.14,1171.91 1260.15,1171.79 1261.16,1272.96 1262.18,1272.75 1263.19,1230.89 1264.2,1230.66 1265.21,1270.14 1266.22,1270.01 1267.23,1339.75 1268.25,1339.72 1269.26,1270.25 1270.27,1270.2 1271.28,1175.28 1272.29,1174.86 1273.3,1263.71 1274.32,1263.56 1275.33,1287.79 1276.34,1287.61 1277.35,1287.01 1278.36,1286.85 1279.37,1231.22 1280.39,1230.97 1281.4,1193.47 1282.41,1193.35 1283.42,1285.29 1284.43,1285.18 1285.44,1298.29 1286.46,1298.22 1287.47,1228.66 1288.48,1228.64 1289.49,1279.25 1290.5,1279.23 1291.52,1309.14 1292.53,1308.77 1293.54,1271.33 1294.55,1271.31 1295.56,1264.61 1296.57,1264.43 1297.59,1320.8 1298.6,1320.7 1299.61,1315.64 1300.62,1315.5 1301.63,1128.64 1302.64,1128.56 1303.66,1299.46 1304.67,1299.4 1305.68,1384.27 1306.69,1384.01 1307.7,1171.27 1308.71,1171.18 1309.73,1303.87 1310.74,1303.83 1311.75,1250.58 1312.76,1250.37 1313.77,1251.07 1314.78,1250.92 1315.8,1260.72 1316.81,1260.63 1317.82,1410.97 1318.83,1410.88 1319.84,1255.56 1320.85,1255.53 1321.87,1235.42 1322.88,1235.31 1323.89,1310.92 1324.9,1310.85 1325.91,1226.96 1326.92,1226.9 1327.94,1305.86 1328.95,1305.67 1329.96,1286.42 1330.97,1286.36 1331.98,1107.06 1332.99,1107.02 1334.01,1250.94 1335.02,1250.79 1336.03,1323.35 1337.04,1323.17 1338.05,1303.71 1339.06,1303.62 1340.08,1327.6 1341.09,1327.55 1342.1,1354.42 1343.11,1354.32 1344.12,1336.17 1345.14,1335.94 1346.15,1271.36 1347.16,1271.33 1348.17,1201.43 1349.18,1201.31 1350.19,1308.17 1351.21,1308.05 1352.22,1297.81 1353.23,1297.76 1354.24,1209.9 1355.25,1209.86 1356.26,1311.82 1357.28,1311.76 1358.29,1256.2 1359.3,1255.97 1360.31,1315.11 1361.32,1315.06 1362.33,1297.51 1363.35,1297.47 1364.36,1309.69 1365.37,1309.55 1366.38,1227.72 1367.39,1227.59 1368.4,1149.37 1369.42,1149.32 1370.43,1227.87 1371.44,1227.85 1372.45,1238.88 1373.46,1238.84 1374.47,1261.53 1375.49,1261.36 1376.5,1312.11 1377.51,1312.07 1378.52,1261.8 1379.53,1261.55 1380.54,1236.36 1381.56,1236.33 1382.57,1243.56 1383.58,1243.52 1384.59,1269.45 1385.6,1269.39 1386.61,1276.21 1387.63,1276.18 1388.64,1222.7 1389.65,1222.67 1390.66,1286.95 1391.67,1286.84 1392.68,1266.51 1393.7,1266.48 1394.71,1205.8 1395.72,1205.77 1396.73,1270.91 1397.74,1270.84 1398.76,1310.27 1399.77,1310.2 1400.78,1250.77 1401.79,1250.72 1402.8,1226.42 1403.81,1226.33 1404.83,1298.83 1405.84,1298.81 1406.85,1283.34 1407.86,1283.26 1408.87,1324.17 1409.88,1324.15 1410.9,1338.84 1411.91,1338.77 1412.92,1262.22 1413.93,1262.02 1414.94,1333.25 1415.95,1333.24 1416.97,1264.52 1417.98,1264.34 1418.99,1254.61 1420,1254.57 1421.01,1264.94 1422.02,1264.9 1423.04,1161.79 1424.05,1161.6 1425.06,1244.32 1426.07,1244.18 1427.08,1241.99 1428.09,1241.94 1429.11,1194.14 1430.12,1194.07 1431.13,1299.49 1432.14,1299.47 1433.15,1278.08 1434.16,1278.03 1435.18,1356.56 1436.19,1356.5 1437.2,1349.89 1438.21,1349.88 1439.22,1299.39 1440.23,1299.37 1441.25,1323.73 1442.26,1323.55 1443.27,1343.04 1444.28,1343 1445.29,1185.71 1446.3,1185.67 1447.32,1315.47 1448.33,1315.34 1449.34,1160.94 1450.35,1160.9 1451.36,1181.07 1452.38,1181.05 1453.39,1261 1454.4,1260.9 1455.41,1296.22 1456.42,1295.97 1457.43,1275.17 1458.45,1274.98 1459.46,1275.91 1460.47,1275.54 1461.48,1282.19 1462.49,1282.16 1463.5,1249.06 1464.52,1249.03 1465.53,1222.86 1466.54,1222.69 1467.55,1223.65 1468.56,1223.62 1469.57,1341.57 1470.59,1341.54 1471.6,1314.76 1472.61,1314.66 1473.62,1256.39 1474.63,1256.36 1475.64,1334.81 1476.66,1334.2 1477.67,1276.47 1478.68,1276.32 1479.69,1197.81 1480.7,1197.78 1481.71,1199.46 1482.73,1199.4 1483.74,1273.4 1484.75,1273.31 1485.76,1308.55 1486.77,1308.51 1487.78,1316.47 1488.8,1316.29 1489.81,1315.24 1490.82,1315.22 1491.83,1287.6 1492.84,1287.56 1493.85,1164.18 1494.87,1164.13 1495.88,1325.24 1496.89,1325.21 1497.9,1228.99 1498.91,1228.92 1499.92,1265.12 1500.94,1265.05 1501.95,1283.47 1502.96,1283.41 1503.97,1335.82 1504.98,1335.77 1506,1273.26 1507.01,1273.11 1508.02,1311.46 1509.03,1311.43 1510.04,1314.93 1511.05,1314.36 1512.07,1250.1 1513.08,1250.07 1514.09,1267.3 1515.1,1267.17 1516.11,1280.09 1517.12,1280.02 1518.14,1289.77 1519.15,1289.76 1520.16,1321.47 1521.17,1321.44 1522.18,1341.38 1523.19,1341.35 1524.21,1248.8 1525.22,1248.71 1526.23,1269.63 1527.24,1269.61 1528.25,1210.78 1529.26,1210.74 1530.28,1223.28 1531.29,1223.11 1532.3,1263.66 1533.31,1263.63 1534.32,1280.54 1535.33,1280.44 1536.35,1165.04 1537.36,1164.97 1538.37,1233.48 1539.38,1233.45 1540.39,1320.56 1541.4,1320.27 1542.42,1376.01 1543.43,1375.96 1544.44,1272.71 1545.45,1272.66 1546.46,1242.29 1547.47,1242.27 1548.49,1293.24 1549.5,1293.12 1550.51,1289.68 1551.52,1289.45 1552.53,1210.27 1553.54,1210.23 1554.56,1297.17 1555.57,1296.87 1556.58,1275.5 1557.59,1275.29 1558.6,1292.79 1559.62,1292.72 1560.63,1278.14 1561.64,1277.97 1562.65,1263.53 1563.66,1263.5 1564.67,1310.04 1565.69,1309.98 1566.7,1276.47 1567.71,1276.37 1568.72,1258.7 1569.73,1258.52 1570.74,1245.82 1571.76,1245.68 1572.77,1294.3 1573.78,1294.24 1574.79,1310.39 1575.8,1310.35 1576.81,1323.12 1577.83,1323.09 1578.84,1207.85 1579.85,1207.71 1580.86,1246.9 1581.87,1246.84 1582.88,1290.11 1583.9,1290.1 1584.91,1287.39 1585.92,1287.3 1586.93,1282.53 1587.94,1282.38 1588.95,1352.52 1589.97,1352.49 1590.98,1191.61 1591.99,1191.6 1593,1378.82 1594.01,1378.78 1595.02,1267.87 1596.04,1267.81 1597.05,1323.12 1598.06,1323.09 1599.07,1251.57 1600.08,1251.55 1601.09,1280.47 1602.11,1280.44 1603.12,1230.93 1604.13,1230.92 1605.14,1293.11 1606.15,1293.09 1607.16,1303.13 1608.18,1303.09 1609.19,1390.32 1610.2,1390.24 1611.21,1264.68 1612.22,1264.56 1613.24,1232.67 1614.25,1232.6 1615.26,1324.08 1616.27,1323.92 1617.28,1220.97 1618.29,1220.94 1619.31,1362.2 1620.32,1361.75 1621.33,1254.83 1622.34,1254.71 1623.35,1262.29 1624.36,1262.22 1625.38,1239.01 1626.39,1239 1627.4,1238.6 1628.41,1238.59 1629.42,1283.74 1630.43,1283.54 1631.45,1246.64 1632.46,1246.54 1633.47,1324.25 1634.48,1324.07 1635.49,1209.35 1636.5,1209.33 1637.52,1393.74 1638.53,1393.39 1639.54,1324.11 1640.55,1323.74 1641.56,1344.34 1642.57,1344.28 1643.59,1310.66 1644.6,1310.56 1645.61,1280.88 1646.62,1280.7 1647.63,1351.82 1648.64,1351.73 1649.66,1248.28 1650.67,1248.25 1651.68,1310.54 1652.69,1310.32 1653.7,1310.1 1654.71,1310.07 1655.73,1268.39 1656.74,1268.34 1657.75,1334.13 1658.76,1333.96 1659.77,1272.35 1660.78,1272.33 1661.8,1290.04 1662.81,1290 1663.82,1280.29 1664.83,1280.14 1665.84,1351.85 1666.86,1351.78 1667.87,1327.98 1668.88,1327.61 1669.89,1333.99 1670.9,1333.91 1671.91,1260.39 1672.93,1260.3 1673.94,1321.88 1674.95,1321.85 1675.96,1280.22 1676.97,1280.21 1677.98,1232.7 1679,1232.62 1680.01,1310.07 1681.02,1309.93 1682.03,1333.52 1683.04,1333.14 1684.05,1333.45 1685.07,1333.42 1686.08,1350.82 1687.09,1350.68 1688.1,1372.99 1689.11,1372.98 1690.12,1268.5 1691.14,1268.47 1692.15,1291.91 1693.16,1291.89 1694.17,1351.78 1695.18,1351.57 1696.19,1364.89 1697.21,1364.83 1698.22,1238.52 1699.23,1238.48 1700.24,1333.08 1701.25,1333.04 1702.26,1274.3 1703.28,1274.08 1704.29,1362.73 1705.3,1362.69 1706.31,1179.18 1707.32,1179.12 1708.33,1280.06 1709.35,1280.02 1710.36,1339.55 1711.37,1339.16 1712.38,1268.48 1713.39,1268.33 1714.4,1332.86 1715.42,1332.7 1716.43,1243.68 1717.44,1243.63 1718.45,1249.22 1719.46,1248.96 1720.47,1321.12 1721.49,1321.1 1722.5,1297.84 1723.51,1297.82 1724.52,1261.66 1725.53,1261.58 1726.55,1321.2 1727.56,1321.12 1728.57,1291.33 1729.58,1291.31 1730.59,1350.61 1731.6,1350.59 1732.62,1332.45 1733.63,1332.42 1734.64,1338.96 1735.65,1338.94 1736.66,1291.02 1737.67,1290.88 1738.69,1245.04 1739.7,1245 1740.71,1361.41 1741.72,1361.17 1742.73,1278.62 1743.74,1278.41 1744.76,1309.58 1745.77,1309.55 1746.78,1209.06 1747.79,1209.03 1748.8,1244.95 1749.81,1244.92 1750.83,1309.99 1751.84,1309.84 1752.85,1297.49 1753.86,1297.47 1754.87,1291.15 1755.88,1291.12 1756.9,1361.31 1757.91,1361.15 1758.92,1339.04 1759.93,1338.82 1760.94,1289.99 1761.95,1289.98 1762.97,1327.19 1763.98,1327.14 1764.99,1249.73 1766,1249.72 1767.01,1249.82 1768.02,1249.79 1769.04,1308.12 1770.05,1308.09 1771.06,1350.17 1772.07,1350.15 1773.08,1297.41 1774.09,1297.35 1775.11,1231.38 1776.12,1231.36 1777.13,1302.48 1778.14,1302.39 1779.15,1271.79 1780.17,1271.78 1781.18,1354.02 1782.19,1353.91 1783.2,1308.98 1784.21,1308.89 1785.22,1320.09 1786.24,1319.86 1787.25,1361.08 1788.26,1361.03 1789.27,1326.6 1790.28,1326.48 1791.29,1096.27 1792.31,1096.15 1793.32,1290.5 1794.33,1290.48 1795.34,1189.96 1796.35,1189.94 1797.36,1330.95 1798.38,1330.89 1799.39,1291.18 1800.4,1291.11 1801.41,1320.34 1802.42,1320.32 1803.43,1301.95 1804.45,1301.91 1805.46,1249.39 1806.47,1249.38 1807.48,1289.89 1808.49,1289.85 1809.5,1332.01 1810.52,1331.89 1811.53,1294.12 1812.54,1294.09 1813.55,1290.69 1814.56,1290.63 1815.57,1208.52 1816.59,1208.51 1817.6,1289.78 1818.61,1289.7 1819.62,1279.19 1820.63,1279.17 1821.64,1289.04 1822.66,1288.71 1823.67,1256.17 1824.68,1256.13 1825.69,1291.08 1826.7,1290.97 1827.71,1231.61 1828.73,1231.51 1829.74,1300.76 1830.75,1300.69 1831.76,1249.78 1832.77,1249.73 1833.79,1318.63 1834.8,1318.42 1835.81,1240.6 1836.82,1240.39 1837.83,1320.27 1838.84,1320.21 1839.86,1241.62 1840.87,1241.59 1841.88,1249.94 1842.89,1249.88 1843.9,1308.14 1844.91,1308.12 1845.93,1319.06 1846.94,1319.03 1847.95,1249.87 1848.96,1249.81 1849.97,1311.11 1850.98,1310.99 1852,1349.26 1853.01,1349.24 1854.02,1300.38 1855.03,1300.34 1856.04,1237.09 1857.05,1237 1858.07,1359.78 1859.08,1359.75 1860.09,1320.05 1861.1,1320 1862.11,1267.92 1863.12,1267.91 1864.14,1307.95 1865.15,1307.93 1866.16,1340.19 1867.17,1340.05 1868.18,1300.05 1869.19,1300.02 1870.21,1360.94 1871.22,1360.83 1872.23,1317.46 1873.24,1317.28 1874.25,1412.21 1875.26,1412.16 1876.28,1332.42 1877.29,1332.2 1878.3,1230.79 1879.31,1230.75 1880.32,1296.96 1881.33,1296.93 1882.35,1266.92 1883.36,1266.85 1884.37,1348.08 1885.38,1348.04 1886.39,1266.41 1887.41,1266.31 1888.42,1269.6 1889.43,1269.53 1890.44,1348.59 1891.45,1348.57 1892.46,1346.64 1893.48,1346.5 1894.49,1348.11 1895.5,1348.09 1896.51,1275.16 1897.52,1274.85 1898.53,1375.28 1899.55,1375.06 1900.56,1304.62 1901.57,1304.19 1902.58,1307.1 1903.59,1307.08 1904.6,1268.53 1905.62,1268.39 1906.63,1308.67 1907.64,1308.64 1908.65,1359.06 1909.66,1359.04 1910.67,1380 1911.69,1379.94 1912.7,1246.88 1913.71,1246.8 1914.72,1319.15 1915.73,1319.13 1916.74,1257.69 1917.76,1257.64 1918.77,1233.5 1919.78,1233.16 1920.79,1261.81 1921.8,1261.6 1922.81,1350.43 1923.83,1350.32 1924.84,1357.54 1925.85,1357.34 1926.86,1177.94 1927.87,1177.89 1928.88,1316.63 1929.9,1316.46 1930.91,1268.04 1931.92,1268.02 1932.93,1288.65 1933.94,1288.64 1934.95,1336.44 1935.97,1336.41 1936.98,1281.91 1937.99,1281.9 1939,1346.06 1940.01,1345.92 1941.03,1241.77 1942.04,1241.7 1943.05,1317.91 1944.06,1317.89 1945.07,1284.8 1946.08,1284.36 1947.1,1241.88 1948.11,1241.8 1949.12,1245.8 1950.13,1245.75 1951.14,1249.2 1952.15,1249.18 1953.17,1442.44 1954.18,1442.34 1955.19,1420.44 1956.2,1420.36 1957.21,1289.85 1958.22,1289.8 1959.24,1248.69 1960.25,1248.68 1961.26,1329.59 1962.27,1329.55 1963.28,1381.14 1964.29,1381.11 1965.31,1288.9 1966.32,1288.88 1967.33,1339.75 1968.34,1339.71 1969.35,1334.54 1970.36,1334.23 1971.38,1360.81 1972.39,1360.63 1973.4,1269 1974.41,1268.96 1975.42,1305.31 1976.43,1305.27 1977.45,1288.81 1978.46,1288.8 1979.47,1308.24 1980.48,1308.22 1981.49,1301.62 1982.5,1301.39 1983.52,1276.62 1984.53,1276.5 1985.54,1298.27 1986.55,1298.22 1987.56,1295.64 1988.57,1295.23 1989.59,1298.95 1990.6,1298.93 1991.61,1248.07 1992.62,1248.06 1993.63,1257.25 1994.65,1257.19 1995.66,1347.27 1996.67,1347.26 1997.68,1328.69 1998.69,1328.66 1999.7,1337.04 2000.72,1337.03 2001.73,1351.96 2002.74,1351.9 2003.75,1290.08 2004.76,1289.99 2005.77,1328.06 2006.79,1328.04 2007.8,1304.88 2008.81,1304.69 2009.82,1273.04 2010.83,1272.68 2011.84,1308.52 2012.86,1308.48 2013.87,1269.3 2014.88,1269.18 2015.89,1318.15 2016.9,1318.14 2017.91,1258.27 2018.93,1258.25 2019.94,1254.89 2020.95,1254.63 2021.96,1195.46 2022.97,1194.96 2023.98,1319.33 2025,1319.26 2026.01,1335.87 2027.02,1335.84 2028.03,1345.99 2029.04,1345.8 2030.05,1318.85 2031.07,1318.81 2032.08,1299.18 2033.09,1299.06 2034.1,1271.13 2035.11,1270.98 2036.12,1226.76 2037.14,1226.72 2038.15,1315.64 2039.16,1315.61 2040.17,1327.16 2041.18,1327.13 2042.19,1409.32 2043.21,1409.3 2044.22,1370.28 2045.23,1370.26 2046.24,1300.46 2047.25,1300.08 2048.27,1260.21 2049.28,1260.07 2050.29,1317.9 2051.3,1317.89 2052.31,1327.77 2053.32,1327.75 2054.34,1358.33 2055.35,1358.27 2056.36,1307.39 2057.37,1307.39 2058.38,1305.79 2059.39,1305.57 2060.41,1345.54 2061.42,1345.4 2062.43,1305.71 2063.44,1305.66 2064.45,1327.8 2065.46,1327.73 2066.48,1296.01 2067.49,1295.76 2068.5,1389.42 2069.51,1389.41 2070.52,1318.23 2071.53,1318.2 2072.55,1269.5 2073.56,1269.45 2074.57,1270.73 2075.58,1270.72 2076.59,1296.66 2077.6,1296.53 2078.62,1297.22 2079.63,1297.17 2080.64,1347.96 2081.65,1347.92 2082.66,1306.63 2083.67,1306.58 2084.69,1331.36 2085.7,1331.26 2086.71,1316.03 2087.72,1315.9 2088.73,1258.93 2089.74,1258.9 2090.76,1318.01 2091.77,1317.98 2092.78,1346.67 2093.79,1346.66 2094.8,1277.15 2095.81,1277.14 2096.83,1316.59 2097.84,1316.56 2098.85,1236.64 2099.86,1236.56 2100.87,1305.24 2101.89,1305.1 2102.9,1336.08 2103.91,1336.07 2104.92,1307.18 2105.93,1307.17 2106.94,1188.46 2107.96,1188.45 2108.97,1336.03 2109.98,1336.01 2110.99,1297.28 2112,1297.25 2113.01,1305.22 2114.03,1305.14 2115.04,1256.9 2116.05,1256.87 2117.06,1236.49 2118.07,1236.46 2119.08,1228.63 2120.1,1228.62 2121.11,1327.06 2122.12,1327.04 2123.13,1294.96 2124.14,1294.8 2125.15,1286.79 2126.17,1286.76 2127.18,1327.45 2128.19,1327.42 2129.2,1332.95 2130.21,1332.74 2131.22,1383.11 2132.24,1382.86 2133.25,1330.83 2134.26,1330.78 2135.27,1345.74 2136.28,1345.72 2137.29,1296.44 2138.31,1296.4 2139.32,1326.2 2140.33,1326.17 2141.34,1277.24 2142.35,1277.24 2143.36,1357.86 2144.38,1357.83 2145.39,1307.09 2146.4,1307.08 2147.41,1284.75 2148.42,1284.64 2149.43,1268.69 2150.45,1268.64 2151.46,1315.09 2152.47,1315.04 2153.48,1361.41 2154.49,1361.29 2155.51,1282.97 2156.52,1282.7 2157.53,1262.25 2158.54,1261.95 2159.55,1266.71 2160.56,1266.69 2161.58,1256.33 2162.59,1256.31 2163.6,1318.36 2164.61,1318.28 2165.62,1325.06 2166.63,1325.04 2167.65,1292.94 2168.66,1292.81 2169.67,1349.02 2170.68,1349 2171.69,1236.11 2172.7,1236.06 2173.72,1307.11 2174.73,1307.1 2175.74,1328.16 2176.75,1328.11 2177.76,1307.79 2178.77,1307.76 2179.79,1298.79 2180.8,1298.74 2181.81,1255.61 2182.82,1255.56 2183.83,1300.63 2184.84,1300.25 2185.86,1326.5 2186.87,1326.48 2187.88,1350.69 2188.89,1350.45 2189.9,1349.79 2190.91,1349.76 2191.93,1246.48 2192.94,1246.47 2193.95,1300.73 2194.96,1300.54 2195.97,1281.09 2196.98,1280.59 2198,1353.52 2199.01,1353.22 2200.02,1312 2201.03,1311.91 2202.04,1295.37 2203.05,1295.31 2204.07,1377.02 2205.08,1376.99 2206.09,1278.36 2207.1,1278.32 2208.11,1285.56 2209.13,1285.52 2210.14,1314.72 2211.15,1314.67 2212.16,1291.43 2213.17,1291.14 2214.18,1322.21 2215.2,1321.89 2216.21,1268.71 2217.22,1268.65 2218.23,1324.99 2219.24,1324.95 2220.25,1349.51 2221.27,1349.48 2222.28,1285.67 2223.29,1285.63 2224.3,1318.52 2225.31,1318.51 2226.32,1380.66 2227.34,1380.58 2228.35,1317.18 2229.36,1317.16 2230.37,1256.49 2231.38,1256.46 2232.39,1315.94 2233.41,1315.93 2234.42,1277.61 2235.43,1277.6 2236.44,1318.29 2237.45,1318.22 2238.46,1276.62 2239.48,1276.58 2240.49,1354.02 2241.5,1352.74 2242.51,1305.95 2243.52,1305.92 2244.53,1265.99 2245.55,1265.93 2246.56,1287.12 2247.57,1287.12 2248.58,1325.4 2249.59,1325.37 2250.6,1314.66 2251.62,1314.55 2252.63,1297.92 2253.64,1297.85 2254.65,1265.76 2255.66,1265.71 2256.67,1274.92 2257.69,1274.82 2258.7,1256.75 2259.71,1256.74 2260.72,1334.84 2261.73,1334.81 2262.75,1361.44 2263.76,1360.81 2264.77,1277.26 2265.78,1277.25 2266.79,1309.54 2267.8,1309.22 2268.82,1345.7 2269.83,1345.68 2270.84,1407.74 2271.85,1407.7 2272.86,1306.92 2273.87,1306.91 2274.89,1344.97 2275.9,1344.92 2276.91,1317.19 2277.92,1317.12 2278.93,1276.11 2279.94,1276.07 2280.96,1368.15 2281.97,1368.12 2282.98,1305.36 2283.99,1305.31 2285,1328.05 2286.01,1327.92 2287.03,1346.32 2288.04,1346.3 2289.05,1295.02 2290.06,1294.9 2291.07,1327.91 2292.08,1327.78 "/>
<path clip-path="url(#clip350)" d="M2014.5 198.898 L2281.3 198.898 L2281.3 95.2176 L2014.5 95.2176  Z" fill="#ffffff" fill-rule="evenodd" fill-opacity="1"/>
<polyline clip-path="url(#clip350)" style="stroke:#000000; stroke-linecap:round; stroke-linejoin:round; stroke-width:4; stroke-opacity:1; fill:none" points="2014.5,198.898 2281.3,198.898 2281.3,95.2176 2014.5,95.2176 2014.5,198.898 "/>
<polyline clip-path="url(#clip350)" style="stroke:#009af9; stroke-linecap:round; stroke-linejoin:round; stroke-width:4; stroke-opacity:1; fill:none" points="2038.31,147.058 2181.23,147.058 "/>
<path clip-path="url(#clip350)" d="M2218.89 166.745 Q2217.09 171.375 2215.37 172.787 Q2213.66 174.199 2210.79 174.199 L2207.39 174.199 L2207.39 170.634 L2209.89 170.634 Q2211.65 170.634 2212.62 169.8 Q2213.59 168.967 2214.77 165.865 L2215.53 163.921 L2205.05 138.412 L2209.56 138.412 L2217.66 158.689 L2225.77 138.412 L2230.28 138.412 L2218.89 166.745 Z" fill="#000000" fill-rule="nonzero" fill-opacity="1" /><path clip-path="url(#clip350)" d="M2237.57 160.402 L2245.21 160.402 L2245.21 134.037 L2236.9 135.703 L2236.9 131.444 L2245.16 129.778 L2249.84 129.778 L2249.84 160.402 L2257.48 160.402 L2257.48 164.338 L2237.57 164.338 L2237.57 160.402 Z" fill="#000000" fill-rule="nonzero" fill-opacity="1" /></svg>
