<?xml version="1.0" encoding="utf-8"?>
<svg xmlns="http://www.w3.org/2000/svg" xmlns:xlink="http://www.w3.org/1999/xlink" width="600" height="400" viewBox="0 0 2400 1600">
<defs>
  <clipPath id="clip380">
    <rect x="0" y="0" width="2400" height="1600"/>
  </clipPath>
</defs>
<path clip-path="url(#clip380)" d="M0 1600 L2400 1600 L2400 0 L0 0  Z" fill="#ffffff" fill-rule="evenodd" fill-opacity="1"/>
<defs>
  <clipPath id="clip381">
    <rect x="480" y="0" width="1681" height="1600"/>
  </clipPath>
</defs>
<path clip-path="url(#clip380)" d="M156.274 1486.45 L2352.76 1486.45 L2352.76 47.2441 L156.274 47.2441  Z" fill="#ffffff" fill-rule="evenodd" fill-opacity="1"/>
<defs>
  <clipPath id="clip382">
    <rect x="156" y="47" width="2197" height="1440"/>
  </clipPath>
</defs>
<polyline clip-path="url(#clip382)" style="stroke:#000000; stroke-linecap:round; stroke-linejoin:round; stroke-width:2; stroke-opacity:0.1; fill:none" points="218.439,1486.45 218.439,47.2441 "/>
<polyline clip-path="url(#clip382)" style="stroke:#000000; stroke-linecap:round; stroke-linejoin:round; stroke-width:2; stroke-opacity:0.1; fill:none" points="736.995,1486.45 736.995,47.2441 "/>
<polyline clip-path="url(#clip382)" style="stroke:#000000; stroke-linecap:round; stroke-linejoin:round; stroke-width:2; stroke-opacity:0.1; fill:none" points="1255.55,1486.45 1255.55,47.2441 "/>
<polyline clip-path="url(#clip382)" style="stroke:#000000; stroke-linecap:round; stroke-linejoin:round; stroke-width:2; stroke-opacity:0.1; fill:none" points="1774.11,1486.45 1774.11,47.2441 "/>
<polyline clip-path="url(#clip382)" style="stroke:#000000; stroke-linecap:round; stroke-linejoin:round; stroke-width:2; stroke-opacity:0.1; fill:none" points="2292.67,1486.45 2292.67,47.2441 "/>
<polyline clip-path="url(#clip380)" style="stroke:#000000; stroke-linecap:round; stroke-linejoin:round; stroke-width:4; stroke-opacity:1; fill:none" points="156.274,1486.45 2352.76,1486.45 "/>
<polyline clip-path="url(#clip380)" style="stroke:#000000; stroke-linecap:round; stroke-linejoin:round; stroke-width:4; stroke-opacity:1; fill:none" points="218.439,1486.45 218.439,1467.55 "/>
<polyline clip-path="url(#clip380)" style="stroke:#000000; stroke-linecap:round; stroke-linejoin:round; stroke-width:4; stroke-opacity:1; fill:none" points="736.995,1486.45 736.995,1467.55 "/>
<polyline clip-path="url(#clip380)" style="stroke:#000000; stroke-linecap:round; stroke-linejoin:round; stroke-width:4; stroke-opacity:1; fill:none" points="1255.55,1486.45 1255.55,1467.55 "/>
<polyline clip-path="url(#clip380)" style="stroke:#000000; stroke-linecap:round; stroke-linejoin:round; stroke-width:4; stroke-opacity:1; fill:none" points="1774.11,1486.45 1774.11,1467.55 "/>
<polyline clip-path="url(#clip380)" style="stroke:#000000; stroke-linecap:round; stroke-linejoin:round; stroke-width:4; stroke-opacity:1; fill:none" points="2292.67,1486.45 2292.67,1467.55 "/>
<path clip-path="url(#clip380)" d="M218.439 1517.37 Q214.828 1517.37 212.999 1520.93 Q211.193 1524.47 211.193 1531.6 Q211.193 1538.71 212.999 1542.27 Q214.828 1545.82 218.439 1545.82 Q222.073 1545.82 223.879 1542.27 Q225.707 1538.71 225.707 1531.6 Q225.707 1524.47 223.879 1520.93 Q222.073 1517.37 218.439 1517.37 M218.439 1513.66 Q224.249 1513.66 227.304 1518.27 Q230.383 1522.85 230.383 1531.6 Q230.383 1540.33 227.304 1544.94 Q224.249 1549.52 218.439 1549.52 Q212.629 1549.52 209.55 1544.94 Q206.494 1540.33 206.494 1531.6 Q206.494 1522.85 209.55 1518.27 Q212.629 1513.66 218.439 1513.66 Z" fill="#000000" fill-rule="nonzero" fill-opacity="1" /><path clip-path="url(#clip380)" d="M700.688 1544.91 L717.007 1544.91 L717.007 1548.85 L695.063 1548.85 L695.063 1544.91 Q697.725 1542.16 702.308 1537.53 Q706.915 1532.88 708.095 1531.53 Q710.34 1529.01 711.22 1527.27 Q712.123 1525.51 712.123 1523.82 Q712.123 1521.07 710.178 1519.33 Q708.257 1517.6 705.155 1517.6 Q702.956 1517.6 700.503 1518.36 Q698.072 1519.13 695.294 1520.68 L695.294 1515.95 Q698.118 1514.82 700.572 1514.24 Q703.026 1513.66 705.063 1513.66 Q710.433 1513.66 713.628 1516.35 Q716.822 1519.03 716.822 1523.52 Q716.822 1525.65 716.012 1527.57 Q715.225 1529.47 713.118 1532.07 Q712.54 1532.74 709.438 1535.95 Q706.336 1539.15 700.688 1544.91 Z" fill="#000000" fill-rule="nonzero" fill-opacity="1" /><path clip-path="url(#clip380)" d="M726.868 1514.29 L745.225 1514.29 L745.225 1518.22 L731.151 1518.22 L731.151 1526.7 Q732.169 1526.35 733.188 1526.19 Q734.206 1526 735.225 1526 Q741.012 1526 744.391 1529.17 Q747.771 1532.34 747.771 1537.76 Q747.771 1543.34 744.299 1546.44 Q740.826 1549.52 734.507 1549.52 Q732.331 1549.52 730.063 1549.15 Q727.817 1548.78 725.41 1548.04 L725.41 1543.34 Q727.493 1544.47 729.715 1545.03 Q731.938 1545.58 734.414 1545.58 Q738.419 1545.58 740.757 1543.48 Q743.095 1541.37 743.095 1537.76 Q743.095 1534.15 740.757 1532.04 Q738.419 1529.94 734.414 1529.94 Q732.539 1529.94 730.664 1530.35 Q728.813 1530.77 726.868 1531.65 L726.868 1514.29 Z" fill="#000000" fill-rule="nonzero" fill-opacity="1" /><path clip-path="url(#clip380)" d="M766.984 1517.37 Q763.373 1517.37 761.544 1520.93 Q759.738 1524.47 759.738 1531.6 Q759.738 1538.71 761.544 1542.27 Q763.373 1545.82 766.984 1545.82 Q770.618 1545.82 772.423 1542.27 Q774.252 1538.71 774.252 1531.6 Q774.252 1524.47 772.423 1520.93 Q770.618 1517.37 766.984 1517.37 M766.984 1513.66 Q772.794 1513.66 775.849 1518.27 Q778.928 1522.85 778.928 1531.6 Q778.928 1540.33 775.849 1544.94 Q772.794 1549.52 766.984 1549.52 Q761.174 1549.52 758.095 1544.94 Q755.039 1540.33 755.039 1531.6 Q755.039 1522.85 758.095 1518.27 Q761.174 1513.66 766.984 1513.66 Z" fill="#000000" fill-rule="nonzero" fill-opacity="1" /><path clip-path="url(#clip380)" d="M1215.17 1514.29 L1233.53 1514.29 L1233.53 1518.22 L1219.45 1518.22 L1219.45 1526.7 Q1220.47 1526.35 1221.49 1526.19 Q1222.51 1526 1223.53 1526 Q1229.31 1526 1232.69 1529.17 Q1236.07 1532.34 1236.07 1537.76 Q1236.07 1543.34 1232.6 1546.44 Q1229.13 1549.52 1222.81 1549.52 Q1220.63 1549.52 1218.36 1549.15 Q1216.12 1548.78 1213.71 1548.04 L1213.71 1543.34 Q1215.8 1544.47 1218.02 1545.03 Q1220.24 1545.58 1222.72 1545.58 Q1226.72 1545.58 1229.06 1543.48 Q1231.4 1541.37 1231.4 1537.76 Q1231.4 1534.15 1229.06 1532.04 Q1226.72 1529.94 1222.72 1529.94 Q1220.84 1529.94 1218.97 1530.35 Q1217.11 1530.77 1215.17 1531.65 L1215.17 1514.29 Z" fill="#000000" fill-rule="nonzero" fill-opacity="1" /><path clip-path="url(#clip380)" d="M1255.29 1517.37 Q1251.67 1517.37 1249.85 1520.93 Q1248.04 1524.47 1248.04 1531.6 Q1248.04 1538.71 1249.85 1542.27 Q1251.67 1545.82 1255.29 1545.82 Q1258.92 1545.82 1260.73 1542.27 Q1262.55 1538.71 1262.55 1531.6 Q1262.55 1524.47 1260.73 1520.93 Q1258.92 1517.37 1255.29 1517.37 M1255.29 1513.66 Q1261.1 1513.66 1264.15 1518.27 Q1267.23 1522.85 1267.23 1531.6 Q1267.23 1540.33 1264.15 1544.94 Q1261.1 1549.52 1255.29 1549.52 Q1249.48 1549.52 1246.4 1544.94 Q1243.34 1540.33 1243.34 1531.6 Q1243.34 1522.85 1246.4 1518.27 Q1249.48 1513.66 1255.29 1513.66 Z" fill="#000000" fill-rule="nonzero" fill-opacity="1" /><path clip-path="url(#clip380)" d="M1285.45 1517.37 Q1281.84 1517.37 1280.01 1520.93 Q1278.2 1524.47 1278.2 1531.6 Q1278.2 1538.71 1280.01 1542.27 Q1281.84 1545.82 1285.45 1545.82 Q1289.08 1545.82 1290.89 1542.27 Q1292.72 1538.71 1292.72 1531.6 Q1292.72 1524.47 1290.89 1520.93 Q1289.08 1517.37 1285.45 1517.37 M1285.45 1513.66 Q1291.26 1513.66 1294.31 1518.27 Q1297.39 1522.85 1297.39 1531.6 Q1297.39 1540.33 1294.31 1544.94 Q1291.26 1549.52 1285.45 1549.52 Q1279.64 1549.52 1276.56 1544.94 Q1273.5 1540.33 1273.5 1531.6 Q1273.5 1522.85 1276.56 1518.27 Q1279.64 1513.66 1285.45 1513.66 Z" fill="#000000" fill-rule="nonzero" fill-opacity="1" /><path clip-path="url(#clip380)" d="M1732.38 1514.29 L1754.61 1514.29 L1754.61 1516.28 L1742.06 1548.85 L1737.18 1548.85 L1748.98 1518.22 L1732.38 1518.22 L1732.38 1514.29 Z" fill="#000000" fill-rule="nonzero" fill-opacity="1" /><path clip-path="url(#clip380)" d="M1763.77 1514.29 L1782.13 1514.29 L1782.13 1518.22 L1768.06 1518.22 L1768.06 1526.7 Q1769.07 1526.35 1770.09 1526.19 Q1771.11 1526 1772.13 1526 Q1777.92 1526 1781.3 1529.17 Q1784.68 1532.34 1784.68 1537.76 Q1784.68 1543.34 1781.2 1546.44 Q1777.73 1549.52 1771.41 1549.52 Q1769.24 1549.52 1766.97 1549.15 Q1764.72 1548.78 1762.31 1548.04 L1762.31 1543.34 Q1764.4 1544.47 1766.62 1545.03 Q1768.84 1545.58 1771.32 1545.58 Q1775.32 1545.58 1777.66 1543.48 Q1780 1541.37 1780 1537.76 Q1780 1534.15 1777.66 1532.04 Q1775.32 1529.94 1771.32 1529.94 Q1769.44 1529.94 1767.57 1530.35 Q1765.72 1530.77 1763.77 1531.65 L1763.77 1514.29 Z" fill="#000000" fill-rule="nonzero" fill-opacity="1" /><path clip-path="url(#clip380)" d="M1803.89 1517.37 Q1800.28 1517.37 1798.45 1520.93 Q1796.64 1524.47 1796.64 1531.6 Q1796.64 1538.71 1798.45 1542.27 Q1800.28 1545.82 1803.89 1545.82 Q1807.52 1545.82 1809.33 1542.27 Q1811.16 1538.71 1811.16 1531.6 Q1811.16 1524.47 1809.33 1520.93 Q1807.52 1517.37 1803.89 1517.37 M1803.89 1513.66 Q1809.7 1513.66 1812.75 1518.27 Q1815.83 1522.85 1815.83 1531.6 Q1815.83 1540.33 1812.75 1544.94 Q1809.7 1549.52 1803.89 1549.52 Q1798.08 1549.52 1795 1544.94 Q1791.94 1540.33 1791.94 1531.6 Q1791.94 1522.85 1795 1518.27 Q1798.08 1513.66 1803.89 1513.66 Z" fill="#000000" fill-rule="nonzero" fill-opacity="1" /><path clip-path="url(#clip380)" d="M2237.19 1544.91 L2244.83 1544.91 L2244.83 1518.55 L2236.52 1520.21 L2236.52 1515.95 L2244.78 1514.29 L2249.46 1514.29 L2249.46 1544.91 L2257.1 1544.91 L2257.1 1548.85 L2237.19 1548.85 L2237.19 1544.91 Z" fill="#000000" fill-rule="nonzero" fill-opacity="1" /><path clip-path="url(#clip380)" d="M2276.54 1517.37 Q2272.93 1517.37 2271.1 1520.93 Q2269.3 1524.47 2269.3 1531.6 Q2269.3 1538.71 2271.1 1542.27 Q2272.93 1545.82 2276.54 1545.82 Q2280.18 1545.82 2281.98 1542.27 Q2283.81 1538.71 2283.81 1531.6 Q2283.81 1524.47 2281.98 1520.93 Q2280.18 1517.37 2276.54 1517.37 M2276.54 1513.66 Q2282.35 1513.66 2285.41 1518.27 Q2288.49 1522.85 2288.49 1531.6 Q2288.49 1540.33 2285.41 1544.94 Q2282.35 1549.52 2276.54 1549.52 Q2270.73 1549.52 2267.65 1544.94 Q2264.6 1540.33 2264.6 1531.6 Q2264.6 1522.85 2267.65 1518.27 Q2270.73 1513.66 2276.54 1513.66 Z" fill="#000000" fill-rule="nonzero" fill-opacity="1" /><path clip-path="url(#clip380)" d="M2306.7 1517.37 Q2303.09 1517.37 2301.27 1520.93 Q2299.46 1524.47 2299.46 1531.6 Q2299.46 1538.71 2301.27 1542.27 Q2303.09 1545.82 2306.7 1545.82 Q2310.34 1545.82 2312.14 1542.27 Q2313.97 1538.71 2313.97 1531.6 Q2313.97 1524.47 2312.14 1520.93 Q2310.34 1517.37 2306.7 1517.37 M2306.7 1513.66 Q2312.51 1513.66 2315.57 1518.27 Q2318.65 1522.85 2318.65 1531.6 Q2318.65 1540.33 2315.57 1544.94 Q2312.51 1549.52 2306.7 1549.52 Q2300.89 1549.52 2297.82 1544.94 Q2294.76 1540.33 2294.76 1531.6 Q2294.76 1522.85 2297.82 1518.27 Q2300.89 1513.66 2306.7 1513.66 Z" fill="#000000" fill-rule="nonzero" fill-opacity="1" /><path clip-path="url(#clip380)" d="M2336.87 1517.37 Q2333.26 1517.37 2331.43 1520.93 Q2329.62 1524.47 2329.62 1531.6 Q2329.62 1538.71 2331.43 1542.27 Q2333.26 1545.82 2336.87 1545.82 Q2340.5 1545.82 2342.31 1542.27 Q2344.14 1538.71 2344.14 1531.6 Q2344.14 1524.47 2342.31 1520.93 Q2340.5 1517.37 2336.87 1517.37 M2336.87 1513.66 Q2342.68 1513.66 2345.73 1518.27 Q2348.81 1522.85 2348.81 1531.6 Q2348.81 1540.33 2345.73 1544.94 Q2342.68 1549.52 2336.87 1549.52 Q2331.06 1549.52 2327.98 1544.94 Q2324.92 1540.33 2324.92 1531.6 Q2324.92 1522.85 2327.98 1518.27 Q2331.06 1513.66 2336.87 1513.66 Z" fill="#000000" fill-rule="nonzero" fill-opacity="1" /><polyline clip-path="url(#clip382)" style="stroke:#000000; stroke-linecap:round; stroke-linejoin:round; stroke-width:2; stroke-opacity:0.1; fill:none" points="156.274,1345.14 2352.76,1345.14 "/>
<polyline clip-path="url(#clip382)" style="stroke:#000000; stroke-linecap:round; stroke-linejoin:round; stroke-width:2; stroke-opacity:0.1; fill:none" points="156.274,1093.71 2352.76,1093.71 "/>
<polyline clip-path="url(#clip382)" style="stroke:#000000; stroke-linecap:round; stroke-linejoin:round; stroke-width:2; stroke-opacity:0.1; fill:none" points="156.274,842.276 2352.76,842.276 "/>
<polyline clip-path="url(#clip382)" style="stroke:#000000; stroke-linecap:round; stroke-linejoin:round; stroke-width:2; stroke-opacity:0.1; fill:none" points="156.274,590.843 2352.76,590.843 "/>
<polyline clip-path="url(#clip382)" style="stroke:#000000; stroke-linecap:round; stroke-linejoin:round; stroke-width:2; stroke-opacity:0.1; fill:none" points="156.274,339.41 2352.76,339.41 "/>
<polyline clip-path="url(#clip382)" style="stroke:#000000; stroke-linecap:round; stroke-linejoin:round; stroke-width:2; stroke-opacity:0.1; fill:none" points="156.274,87.9763 2352.76,87.9763 "/>
<polyline clip-path="url(#clip380)" style="stroke:#000000; stroke-linecap:round; stroke-linejoin:round; stroke-width:4; stroke-opacity:1; fill:none" points="156.274,1486.45 156.274,47.2441 "/>
<polyline clip-path="url(#clip380)" style="stroke:#000000; stroke-linecap:round; stroke-linejoin:round; stroke-width:4; stroke-opacity:1; fill:none" points="156.274,1345.14 175.172,1345.14 "/>
<polyline clip-path="url(#clip380)" style="stroke:#000000; stroke-linecap:round; stroke-linejoin:round; stroke-width:4; stroke-opacity:1; fill:none" points="156.274,1093.71 175.172,1093.71 "/>
<polyline clip-path="url(#clip380)" style="stroke:#000000; stroke-linecap:round; stroke-linejoin:round; stroke-width:4; stroke-opacity:1; fill:none" points="156.274,842.276 175.172,842.276 "/>
<polyline clip-path="url(#clip380)" style="stroke:#000000; stroke-linecap:round; stroke-linejoin:round; stroke-width:4; stroke-opacity:1; fill:none" points="156.274,590.843 175.172,590.843 "/>
<polyline clip-path="url(#clip380)" style="stroke:#000000; stroke-linecap:round; stroke-linejoin:round; stroke-width:4; stroke-opacity:1; fill:none" points="156.274,339.41 175.172,339.41 "/>
<polyline clip-path="url(#clip380)" style="stroke:#000000; stroke-linecap:round; stroke-linejoin:round; stroke-width:4; stroke-opacity:1; fill:none" points="156.274,87.9763 175.172,87.9763 "/>
<path clip-path="url(#clip380)" d="M64.0939 1330.94 Q60.4828 1330.94 58.6541 1334.51 Q56.8486 1338.05 56.8486 1345.18 Q56.8486 1352.28 58.6541 1355.85 Q60.4828 1359.39 64.0939 1359.39 Q67.7281 1359.39 69.5337 1355.85 Q71.3624 1352.28 71.3624 1345.18 Q71.3624 1338.05 69.5337 1334.51 Q67.7281 1330.94 64.0939 1330.94 M64.0939 1327.24 Q69.9041 1327.24 72.9596 1331.84 Q76.0383 1336.43 76.0383 1345.18 Q76.0383 1353.9 72.9596 1358.51 Q69.9041 1363.09 64.0939 1363.09 Q58.2838 1363.09 55.2051 1358.51 Q52.1495 1353.9 52.1495 1345.18 Q52.1495 1336.43 55.2051 1331.84 Q58.2838 1327.24 64.0939 1327.24 Z" fill="#000000" fill-rule="nonzero" fill-opacity="1" /><path clip-path="url(#clip380)" d="M84.2558 1356.54 L89.1401 1356.54 L89.1401 1362.42 L84.2558 1362.42 L84.2558 1356.54 Z" fill="#000000" fill-rule="nonzero" fill-opacity="1" /><path clip-path="url(#clip380)" d="M99.3715 1327.86 L117.728 1327.86 L117.728 1331.8 L103.654 1331.8 L103.654 1340.27 Q104.672 1339.92 105.691 1339.76 Q106.709 1339.58 107.728 1339.58 Q113.515 1339.58 116.895 1342.75 Q120.274 1345.92 120.274 1351.33 Q120.274 1356.91 116.802 1360.02 Q113.33 1363.09 107.01 1363.09 Q104.834 1363.09 102.566 1362.72 Q100.321 1362.35 97.9132 1361.61 L97.9132 1356.91 Q99.9965 1358.05 102.219 1358.6 Q104.441 1359.16 106.918 1359.16 Q110.922 1359.16 113.26 1357.05 Q115.598 1354.95 115.598 1351.33 Q115.598 1347.72 113.26 1345.62 Q110.922 1343.51 106.918 1343.51 Q105.043 1343.51 103.168 1343.93 Q101.316 1344.34 99.3715 1345.22 L99.3715 1327.86 Z" fill="#000000" fill-rule="nonzero" fill-opacity="1" /><path clip-path="url(#clip380)" d="M62.9365 1079.51 Q59.3254 1079.51 57.4967 1083.07 Q55.6912 1086.61 55.6912 1093.74 Q55.6912 1100.85 57.4967 1104.42 Q59.3254 1107.96 62.9365 1107.96 Q66.5707 1107.96 68.3763 1104.42 Q70.205 1100.85 70.205 1093.74 Q70.205 1086.61 68.3763 1083.07 Q66.5707 1079.51 62.9365 1079.51 M62.9365 1075.8 Q68.7467 1075.8 71.8022 1080.41 Q74.8809 1084.99 74.8809 1093.74 Q74.8809 1102.47 71.8022 1107.08 Q68.7467 1111.66 62.9365 1111.66 Q57.1264 1111.66 54.0477 1107.08 Q50.9921 1102.47 50.9921 1093.74 Q50.9921 1084.99 54.0477 1080.41 Q57.1264 1075.8 62.9365 1075.8 Z" fill="#000000" fill-rule="nonzero" fill-opacity="1" /><path clip-path="url(#clip380)" d="M83.0984 1105.11 L87.9827 1105.11 L87.9827 1110.99 L83.0984 1110.99 L83.0984 1105.11 Z" fill="#000000" fill-rule="nonzero" fill-opacity="1" /><path clip-path="url(#clip380)" d="M108.746 1091.85 Q105.598 1091.85 103.746 1094 Q101.918 1096.15 101.918 1099.9 Q101.918 1103.63 103.746 1105.8 Q105.598 1107.96 108.746 1107.96 Q111.895 1107.96 113.723 1105.8 Q115.575 1103.63 115.575 1099.9 Q115.575 1096.15 113.723 1094 Q111.895 1091.85 108.746 1091.85 M118.029 1077.19 L118.029 1081.45 Q116.27 1080.62 114.464 1080.18 Q112.682 1079.74 110.922 1079.74 Q106.293 1079.74 103.839 1082.86 Q101.409 1085.99 101.061 1092.31 Q102.427 1090.29 104.487 1089.23 Q106.547 1088.14 109.024 1088.14 Q114.233 1088.14 117.242 1091.31 Q120.274 1094.46 120.274 1099.9 Q120.274 1105.23 117.126 1108.44 Q113.978 1111.66 108.746 1111.66 Q102.751 1111.66 99.5798 1107.08 Q96.4085 1102.47 96.4085 1093.74 Q96.4085 1085.55 100.297 1080.69 Q104.186 1075.8 110.737 1075.8 Q112.496 1075.8 114.279 1076.15 Q116.084 1076.5 118.029 1077.19 Z" fill="#000000" fill-rule="nonzero" fill-opacity="1" /><path clip-path="url(#clip380)" d="M64.0013 828.075 Q60.3902 828.075 58.5615 831.639 Q56.756 835.181 56.756 842.311 Q56.756 849.417 58.5615 852.982 Q60.3902 856.524 64.0013 856.524 Q67.6356 856.524 69.4411 852.982 Q71.2698 849.417 71.2698 842.311 Q71.2698 835.181 69.4411 831.639 Q67.6356 828.075 64.0013 828.075 M64.0013 824.371 Q69.8115 824.371 72.867 828.977 Q75.9457 833.561 75.9457 842.311 Q75.9457 851.037 72.867 855.644 Q69.8115 860.227 64.0013 860.227 Q58.1912 860.227 55.1125 855.644 Q52.0569 851.037 52.0569 842.311 Q52.0569 833.561 55.1125 828.977 Q58.1912 824.371 64.0013 824.371 Z" fill="#000000" fill-rule="nonzero" fill-opacity="1" /><path clip-path="url(#clip380)" d="M84.1632 853.676 L89.0475 853.676 L89.0475 859.556 L84.1632 859.556 L84.1632 853.676 Z" fill="#000000" fill-rule="nonzero" fill-opacity="1" /><path clip-path="url(#clip380)" d="M98.0521 824.996 L120.274 824.996 L120.274 826.987 L107.728 859.556 L102.844 859.556 L114.649 828.931 L98.0521 828.931 L98.0521 824.996 Z" fill="#000000" fill-rule="nonzero" fill-opacity="1" /><path clip-path="url(#clip380)" d="M63.1911 576.641 Q59.58 576.641 57.7513 580.206 Q55.9458 583.748 55.9458 590.877 Q55.9458 597.984 57.7513 601.549 Q59.58 605.09 63.1911 605.09 Q66.8254 605.09 68.6309 601.549 Q70.4596 597.984 70.4596 590.877 Q70.4596 583.748 68.6309 580.206 Q66.8254 576.641 63.1911 576.641 M63.1911 572.938 Q69.0013 572.938 72.0568 577.544 Q75.1355 582.127 75.1355 590.877 Q75.1355 599.604 72.0568 604.211 Q69.0013 608.794 63.1911 608.794 Q57.381 608.794 54.3023 604.211 Q51.2468 599.604 51.2468 590.877 Q51.2468 582.127 54.3023 577.544 Q57.381 572.938 63.1911 572.938 Z" fill="#000000" fill-rule="nonzero" fill-opacity="1" /><path clip-path="url(#clip380)" d="M83.3531 602.243 L88.2373 602.243 L88.2373 608.123 L83.3531 608.123 L83.3531 602.243 Z" fill="#000000" fill-rule="nonzero" fill-opacity="1" /><path clip-path="url(#clip380)" d="M108.422 591.711 Q105.089 591.711 103.168 593.493 Q101.27 595.276 101.27 598.401 Q101.27 601.526 103.168 603.308 Q105.089 605.09 108.422 605.09 Q111.756 605.09 113.677 603.308 Q115.598 601.502 115.598 598.401 Q115.598 595.276 113.677 593.493 Q111.779 591.711 108.422 591.711 M103.746 589.72 Q100.737 588.979 99.0474 586.919 Q97.3808 584.859 97.3808 581.896 Q97.3808 577.753 100.321 575.345 Q103.284 572.938 108.422 572.938 Q113.584 572.938 116.524 575.345 Q119.464 577.753 119.464 581.896 Q119.464 584.859 117.774 586.919 Q116.108 588.979 113.121 589.72 Q116.501 590.507 118.376 592.799 Q120.274 595.09 120.274 598.401 Q120.274 603.424 117.195 606.109 Q114.14 608.794 108.422 608.794 Q102.705 608.794 99.6261 606.109 Q96.5706 603.424 96.5706 598.401 Q96.5706 595.09 98.4687 592.799 Q100.367 590.507 103.746 589.72 M102.034 582.336 Q102.034 585.021 103.7 586.526 Q105.39 588.03 108.422 588.03 Q111.432 588.03 113.121 586.526 Q114.834 585.021 114.834 582.336 Q114.834 579.651 113.121 578.146 Q111.432 576.641 108.422 576.641 Q105.39 576.641 103.7 578.146 Q102.034 579.651 102.034 582.336 Z" fill="#000000" fill-rule="nonzero" fill-opacity="1" /><path clip-path="url(#clip380)" d="M63.2837 325.208 Q59.6726 325.208 57.8439 328.773 Q56.0384 332.315 56.0384 339.444 Q56.0384 346.551 57.8439 350.115 Q59.6726 353.657 63.2837 353.657 Q66.918 353.657 68.7235 350.115 Q70.5522 346.551 70.5522 339.444 Q70.5522 332.315 68.7235 328.773 Q66.918 325.208 63.2837 325.208 M63.2837 321.505 Q69.0939 321.505 72.1494 326.111 Q75.2281 330.694 75.2281 339.444 Q75.2281 348.171 72.1494 352.777 Q69.0939 357.361 63.2837 357.361 Q57.4736 357.361 54.3949 352.777 Q51.3393 348.171 51.3393 339.444 Q51.3393 330.694 54.3949 326.111 Q57.4736 321.505 63.2837 321.505 Z" fill="#000000" fill-rule="nonzero" fill-opacity="1" /><path clip-path="url(#clip380)" d="M83.4457 350.81 L88.3299 350.81 L88.3299 356.69 L83.4457 356.69 L83.4457 350.81 Z" fill="#000000" fill-rule="nonzero" fill-opacity="1" /><path clip-path="url(#clip380)" d="M98.6539 355.972 L98.6539 351.713 Q100.413 352.546 102.219 352.986 Q104.024 353.426 105.76 353.426 Q110.39 353.426 112.82 350.324 Q115.274 347.199 115.621 340.856 Q114.279 342.847 112.219 343.912 Q110.158 344.977 107.658 344.977 Q102.473 344.977 99.4409 341.852 Q96.4317 338.703 96.4317 333.264 Q96.4317 327.94 99.5798 324.722 Q102.728 321.505 107.959 321.505 Q113.955 321.505 117.103 326.111 Q120.274 330.694 120.274 339.444 Q120.274 347.615 116.385 352.5 Q112.52 357.361 105.969 357.361 Q104.209 357.361 102.404 357.014 Q100.598 356.666 98.6539 355.972 M107.959 341.319 Q111.108 341.319 112.936 339.166 Q114.788 337.014 114.788 333.264 Q114.788 329.537 112.936 327.384 Q111.108 325.208 107.959 325.208 Q104.811 325.208 102.959 327.384 Q101.131 329.537 101.131 333.264 Q101.131 337.014 102.959 339.166 Q104.811 341.319 107.959 341.319 Z" fill="#000000" fill-rule="nonzero" fill-opacity="1" /><path clip-path="url(#clip380)" d="M53.9088 101.321 L61.5476 101.321 L61.5476 74.9555 L53.2375 76.6222 L53.2375 72.3629 L61.5013 70.6963 L66.1772 70.6963 L66.1772 101.321 L73.8161 101.321 L73.8161 105.256 L53.9088 105.256 L53.9088 101.321 Z" fill="#000000" fill-rule="nonzero" fill-opacity="1" /><path clip-path="url(#clip380)" d="M83.2605 99.3767 L88.1447 99.3767 L88.1447 105.256 L83.2605 105.256 L83.2605 99.3767 Z" fill="#000000" fill-rule="nonzero" fill-opacity="1" /><path clip-path="url(#clip380)" d="M108.33 73.775 Q104.719 73.775 102.89 77.3398 Q101.084 80.8814 101.084 88.011 Q101.084 95.1174 102.89 98.6822 Q104.719 102.224 108.33 102.224 Q111.964 102.224 113.77 98.6822 Q115.598 95.1174 115.598 88.011 Q115.598 80.8814 113.77 77.3398 Q111.964 73.775 108.33 73.775 M108.33 70.0713 Q114.14 70.0713 117.195 74.6777 Q120.274 79.261 120.274 88.011 Q120.274 96.7378 117.195 101.344 Q114.14 105.928 108.33 105.928 Q102.52 105.928 99.4409 101.344 Q96.3854 96.7378 96.3854 88.011 Q96.3854 79.261 99.4409 74.6777 Q102.52 70.0713 108.33 70.0713 Z" fill="#000000" fill-rule="nonzero" fill-opacity="1" /><polyline clip-path="url(#clip382)" style="stroke:#009af9; stroke-linecap:round; stroke-linejoin:round; stroke-width:4; stroke-opacity:1; fill:none" points="218.439,993.136 220.513,842.276 222.587,1294.86 224.661,1194.28 226.736,1043.42 228.81,1093.71 230.884,842.276 232.958,741.703 235.033,1093.71 237.107,1244.57 239.181,942.849 241.255,691.416 243.329,892.563 245.404,1345.14 247.478,1144 249.552,791.989 251.626,1144 253.701,892.563 255.775,1093.71 257.849,892.563 259.923,1144 261.998,1093.71 264.072,1043.42 266.146,1043.42 268.22,892.563 270.294,993.136 272.369,892.563 274.443,1043.42 276.517,1093.71 278.591,942.849 280.666,993.136 282.74,1093.71 284.814,1144 286.888,993.136 288.962,842.276 291.037,942.849 293.111,791.989 295.185,1445.72 297.259,741.703 299.334,993.136 301.408,1043.42 303.482,1144 305.556,1043.42 307.63,942.849 309.705,942.849 311.779,1194.28 313.853,1093.71 315.927,1144 318.002,1043.42 320.076,942.849 322.15,842.276 324.224,1194.28 326.299,1093.71 328.373,1194.28 330.447,993.136 332.521,1144 334.595,1144 336.67,942.849 338.744,1345.14 340.818,892.563 342.892,942.849 344.967,791.989 347.041,1294.86 349.115,942.849 351.189,942.849 353.263,1194.28 355.338,1144 357.412,892.563 359.486,741.703 361.56,1244.57 363.635,892.563 365.709,892.563 367.783,791.989 369.857,1294.86 371.932,892.563 374.006,892.563 376.08,1144 378.154,1194.28 380.228,1244.57 382.303,892.563 384.377,942.849 386.451,993.136 388.525,1093.71 390.6,1043.42 392.674,1194.28 394.748,439.983 396.822,691.416 398.896,1043.42 400.971,842.276 403.045,842.276 405.119,842.276 407.193,892.563 409.268,691.416 411.342,892.563 413.416,1043.42 415.49,993.136 417.565,892.563 419.639,741.703 421.713,942.849 423.787,942.849 425.861,892.563 427.936,1043.42 430.01,590.843 432.084,540.556 434.158,641.129 436.233,942.849 438.307,1144 440.381,993.136 442.455,842.276 444.529,741.703 446.604,842.276 448.678,691.416 450.752,741.703 452.826,942.849 454.901,791.989 456.975,942.849 459.049,993.136 461.123,641.129 463.198,842.276 465.272,1093.71 467.346,842.276 469.42,691.416 471.494,540.556 473.569,791.989 475.643,892.563 477.717,791.989 479.791,942.849 481.866,741.703 483.94,892.563 486.014,942.849 488.088,590.843 490.162,942.849 492.237,691.416 494.311,691.416 496.385,741.703 498.459,741.703 500.534,1093.71 502.608,641.129 504.682,892.563 506.756,590.843 508.83,641.129 510.905,842.276 512.979,942.849 515.053,641.129 517.127,791.989 519.202,791.989 521.276,741.703 523.35,842.276 525.424,741.703 527.499,389.696 529.573,691.416 531.647,641.129 533.721,389.696 535.795,691.416 537.87,540.556 539.944,590.843 542.018,490.269 544.092,490.269 546.167,741.703 548.241,641.129 550.315,641.129 552.389,892.563 554.463,691.416 556.538,791.989 558.612,791.989 560.686,490.269 562.76,691.416 564.835,439.983 566.909,389.696 568.983,540.556 571.057,641.129 573.132,439.983 575.206,892.563 577.28,439.983 579.354,741.703 581.428,741.703 583.503,439.983 585.577,590.843 587.651,439.983 589.725,641.129 591.8,590.843 593.874,439.983 595.948,641.129 598.022,490.269 600.096,641.129 602.171,389.696 604.245,289.123 606.319,490.269 608.393,641.129 610.468,590.843 612.542,691.416 614.616,439.983 616.69,439.983 618.765,590.843 620.839,691.416 622.913,188.55 624.987,540.556 627.061,590.843 629.136,641.129 631.21,540.556 633.284,439.983 635.358,490.269 637.433,389.696 639.507,339.41 641.581,590.843 643.655,590.843 645.729,691.416 647.804,540.556 649.878,389.696 651.952,289.123 654.026,439.983 656.101,641.129 658.175,490.269 660.249,540.556 662.323,540.556 664.398,590.843 666.472,289.123 668.546,439.983 670.62,439.983 672.694,439.983 674.769,691.416 676.843,389.696 678.917,490.269 680.991,741.703 683.066,490.269 685.14,741.703 687.214,691.416 689.288,490.269 691.362,439.983 693.437,641.129 695.511,289.123 697.585,641.129 699.659,590.843 701.734,691.416 703.808,490.269 705.882,238.836 707.956,590.843 710.03,540.556 712.105,490.269 714.179,339.41 716.253,238.836 718.327,691.416 720.402,439.983 722.476,339.41 724.55,389.696 726.624,490.269 728.699,490.269 730.773,540.556 732.847,389.696 734.921,339.41 736.995,691.416 739.07,339.41 741.144,490.269 743.218,540.556 745.292,339.41 747.367,490.269 749.441,389.696 751.515,641.129 753.589,289.123 755.663,289.123 757.738,439.983 759.812,389.696 761.886,540.556 763.96,289.123 766.035,439.983 768.109,339.41 770.183,339.41 772.257,490.269 774.332,439.983 776.406,490.269 778.48,439.983 780.554,590.843 782.628,389.696 784.703,490.269 786.777,540.556 788.851,641.129 790.925,389.696 793,490.269 795.074,389.696 797.148,590.843 799.222,339.41 801.296,188.55 803.371,389.696 805.445,439.983 807.519,590.843 809.593,540.556 811.668,389.696 813.742,389.696 815.816,540.556 817.89,389.696 819.965,691.416 822.039,339.41 824.113,289.123 826.187,339.41 828.261,439.983 830.336,289.123 832.41,590.843 834.484,439.983 836.558,389.696 838.633,339.41 840.707,188.55 842.781,339.41 844.855,188.55 846.929,389.696 849.004,590.843 851.078,641.129 853.152,289.123 855.226,238.836 857.301,289.123 859.375,339.41 861.449,439.983 863.523,289.123 865.598,289.123 867.672,439.983 869.746,540.556 871.82,289.123 873.894,389.696 875.969,188.55 878.043,641.129 880.117,289.123 882.191,238.836 884.266,389.696 886.34,439.983 888.414,188.55 890.488,238.836 892.562,389.696 894.637,238.836 896.711,439.983 898.785,439.983 900.859,439.983 902.934,389.696 905.008,389.696 907.082,238.836 909.156,339.41 911.23,238.836 913.305,490.269 915.379,339.41 917.453,188.55 919.527,289.123 921.602,490.269 923.676,389.696 925.75,339.41 927.824,590.843 929.899,439.983 931.973,188.55 934.047,138.263 936.121,238.836 938.195,289.123 940.27,289.123 942.344,289.123 944.418,238.836 946.492,389.696 948.567,490.269 950.641,289.123 952.715,339.41 954.789,188.55 956.863,339.41 958.938,339.41 961.012,188.55 963.086,238.836 965.16,691.416 967.235,490.269 969.309,389.696 971.383,439.983 973.457,289.123 975.532,188.55 977.606,339.41 979.68,590.843 981.754,138.263 983.828,238.836 985.903,439.983 987.977,339.41 990.051,289.123 992.125,289.123 994.2,289.123 996.274,289.123 998.348,339.41 1000.42,289.123 1002.5,238.836 1004.57,238.836 1006.64,289.123 1008.72,339.41 1010.79,188.55 1012.87,339.41 1014.94,389.696 1017.02,339.41 1019.09,238.836 1021.16,590.843 1023.24,289.123 1025.31,339.41 1027.39,238.836 1029.46,289.123 1031.54,540.556 1033.61,188.55 1035.68,138.263 1037.76,490.269 1039.83,289.123 1041.91,289.123 1043.98,238.836 1046.06,339.41 1048.13,339.41 1050.2,439.983 1052.28,238.836 1054.35,289.123 1056.43,289.123 1058.5,490.269 1060.57,289.123 1062.65,439.983 1064.72,339.41 1066.8,389.696 1068.87,289.123 1070.95,339.41 1073.02,238.836 1075.09,238.836 1077.17,389.696 1079.24,289.123 1081.32,339.41 1083.39,389.696 1085.47,289.123 1087.54,289.123 1089.61,289.123 1091.69,188.55 1093.76,238.836 1095.84,490.269 1097.91,289.123 1099.99,289.123 1102.06,87.9763 1104.13,339.41 1106.21,238.836 1108.28,289.123 1110.36,289.123 1112.43,238.836 1114.5,238.836 1116.58,439.983 1118.65,238.836 1120.73,289.123 1122.8,289.123 1124.88,188.55 1126.95,289.123 1129.02,439.983 1131.1,289.123 1133.17,289.123 1135.25,138.263 1137.32,188.55 1139.4,389.696 1141.47,289.123 1143.54,138.263 1145.62,289.123 1147.69,188.55 1149.77,188.55 1151.84,238.836 1153.92,238.836 1155.99,339.41 1158.06,138.263 1160.14,238.836 1162.21,289.123 1164.29,188.55 1166.36,339.41 1168.43,138.263 1170.51,188.55 1172.58,188.55 1174.66,289.123 1176.73,238.836 1178.81,238.836 1180.88,138.263 1182.95,289.123 1185.03,289.123 1187.1,188.55 1189.18,238.836 1191.25,188.55 1193.33,289.123 1195.4,289.123 1197.47,238.836 1199.55,87.9763 1201.62,188.55 1203.7,389.696 1205.77,339.41 1207.84,188.55 1209.92,188.55 1211.99,188.55 1214.07,87.9763 1216.14,238.836 1218.22,87.9763 1220.29,138.263 1222.36,138.263 1224.44,339.41 1226.51,138.263 1228.59,289.123 1230.66,188.55 1232.74,339.41 1234.81,289.123 1236.88,289.123 1238.96,188.55 1241.03,138.263 1243.11,238.836 1245.18,389.696 1247.26,188.55 1249.33,238.836 1251.4,238.836 1253.48,289.123 1255.55,339.41 1257.63,138.263 1259.7,188.55 1261.77,238.836 1263.85,238.836 1265.92,138.263 1268,188.55 1270.07,238.836 1272.15,87.9763 1274.22,188.55 1276.29,439.983 1278.37,188.55 1280.44,138.263 1282.52,339.41 1284.59,238.836 1286.67,238.836 1288.74,238.836 1290.81,188.55 1292.89,188.55 1294.96,238.836 1297.04,289.123 1299.11,188.55 1301.19,289.123 1303.26,138.263 1305.33,188.55 1307.41,490.269 1309.48,238.836 1311.56,138.263 1313.63,138.263 1315.7,138.263 1317.78,138.263 1319.85,138.263 1321.93,188.55 1324,289.123 1326.08,238.836 1328.15,188.55 1330.22,289.123 1332.3,138.263 1334.37,138.263 1336.45,138.263 1338.52,188.55 1340.6,138.263 1342.67,289.123 1344.74,439.983 1346.82,238.836 1348.89,238.836 1350.97,188.55 1353.04,138.263 1355.12,238.836 1357.19,289.123 1359.26,188.55 1361.34,188.55 1363.41,238.836 1365.49,289.123 1367.56,238.836 1369.63,238.836 1371.71,339.41 1373.78,289.123 1375.86,188.55 1377.93,238.836 1380.01,289.123 1382.08,138.263 1384.15,138.263 1386.23,138.263 1388.3,238.836 1390.38,188.55 1392.45,188.55 1394.53,188.55 1396.6,238.836 1398.67,238.836 1400.75,339.41 1402.82,238.836 1404.9,238.836 1406.97,289.123 1409.04,138.263 1411.12,238.836 1413.19,87.9763 1415.27,138.263 1417.34,138.263 1419.42,87.9763 1421.49,87.9763 1423.56,289.123 1425.64,188.55 1427.71,389.696 1429.79,339.41 1431.86,238.836 1433.94,87.9763 1436.01,188.55 1438.08,138.263 1440.16,188.55 1442.23,238.836 1444.31,339.41 1446.38,289.123 1448.46,87.9763 1450.53,138.263 1452.6,188.55 1454.68,138.263 1456.75,188.55 1458.83,289.123 1460.9,238.836 1462.97,238.836 1465.05,138.263 1467.12,138.263 1469.2,238.836 1471.27,138.263 1473.35,339.41 1475.42,138.263 1477.49,238.836 1479.57,188.55 1481.64,188.55 1483.72,138.263 1485.79,188.55 1487.87,138.263 1489.94,188.55 1492.01,238.836 1494.09,238.836 1496.16,238.836 1498.24,238.836 1500.31,188.55 1502.39,87.9763 1504.46,289.123 1506.53,188.55 1508.61,289.123 1510.68,238.836 1512.76,238.836 1514.83,238.836 1516.9,339.41 1518.98,289.123 1521.05,87.9763 1523.13,138.263 1525.2,138.263 1527.28,339.41 1529.35,87.9763 1531.42,138.263 1533.5,289.123 1535.57,188.55 1537.65,289.123 1539.72,188.55 1541.8,238.836 1543.87,238.836 1545.94,138.263 1548.02,238.836 1550.09,188.55 1552.17,188.55 1554.24,188.55 1556.32,138.263 1558.39,138.263 1560.46,289.123 1562.54,289.123 1564.61,238.836 1566.69,138.263 1568.76,188.55 1570.83,87.9763 1572.91,339.41 1574.98,87.9763 1577.06,188.55 1579.13,138.263 1581.21,238.836 1583.28,188.55 1585.35,339.41 1587.43,188.55 1589.5,87.9763 1591.58,87.9763 1593.65,238.836 1595.73,188.55 1597.8,138.263 1599.87,289.123 1601.95,87.9763 1604.02,188.55 1606.1,138.263 1608.17,238.836 1610.24,238.836 1612.32,138.263 1614.39,289.123 1616.47,138.263 1618.54,289.123 1620.62,87.9763 1622.69,138.263 1624.76,188.55 1626.84,138.263 1628.91,188.55 1630.99,87.9763 1633.06,289.123 1635.14,138.263 1637.21,138.263 1639.28,188.55 1641.36,138.263 1643.43,289.123 1645.51,238.836 1647.58,188.55 1649.66,87.9763 1651.73,87.9763 1653.8,138.263 1655.88,289.123 1657.95,138.263 1660.03,188.55 1662.1,289.123 1664.17,138.263 1666.25,138.263 1668.32,138.263 1670.4,87.9763 1672.47,138.263 1674.55,188.55 1676.62,188.55 1678.69,87.9763 1680.77,238.836 1682.84,238.836 1684.92,138.263 1686.99,238.836 1689.07,87.9763 1691.14,339.41 1693.21,188.55 1695.29,87.9763 1697.36,188.55 1699.44,138.263 1701.51,289.123 1703.59,289.123 1705.66,138.263 1707.73,138.263 1709.81,238.836 1711.88,138.263 1713.96,188.55 1716.03,87.9763 1718.1,138.263 1720.18,87.9763 1722.25,188.55 1724.33,188.55 1726.4,87.9763 1728.48,188.55 1730.55,138.263 1732.62,289.123 1734.7,188.55 1736.77,138.263 1738.85,138.263 1740.92,188.55 1743,138.263 1745.07,87.9763 1747.14,238.836 1749.22,87.9763 1751.29,238.836 1753.37,238.836 1755.44,188.55 1757.52,87.9763 1759.59,138.263 1761.66,289.123 1763.74,188.55 1765.81,289.123 1767.89,188.55 1769.96,138.263 1772.03,138.263 1774.11,87.9763 1776.18,87.9763 1778.26,439.983 1780.33,188.55 1782.41,339.41 1784.48,138.263 1786.55,188.55 1788.63,138.263 1790.7,188.55 1792.78,238.836 1794.85,188.55 1796.93,138.263 1799,289.123 1801.07,188.55 1803.15,289.123 1805.22,188.55 1807.3,188.55 1809.37,188.55 1811.44,188.55 1813.52,188.55 1815.59,289.123 1817.67,188.55 1819.74,238.836 1821.82,188.55 1823.89,289.123 1825.96,138.263 1828.04,289.123 1830.11,238.836 1832.19,138.263 1834.26,138.263 1836.34,238.836 1838.41,238.836 1840.48,87.9763 1842.56,188.55 1844.63,238.836 1846.71,87.9763 1848.78,138.263 1850.86,188.55 1852.93,138.263 1855,188.55 1857.08,188.55 1859.15,87.9763 1861.23,138.263 1863.3,87.9763 1865.37,188.55 1867.45,289.123 1869.52,138.263 1871.6,188.55 1873.67,87.9763 1875.75,188.55 1877.82,238.836 1879.89,87.9763 1881.97,87.9763 1884.04,87.9763 1886.12,188.55 1888.19,87.9763 1890.27,188.55 1892.34,138.263 1894.41,289.123 1896.49,138.263 1898.56,138.263 1900.64,87.9763 1902.71,238.836 1904.79,138.263 1906.86,188.55 1908.93,289.123 1911.01,238.836 1913.08,138.263 1915.16,87.9763 1917.23,339.41 1919.3,138.263 1921.38,188.55 1923.45,188.55 1925.53,87.9763 1927.6,289.123 1929.68,87.9763 1931.75,289.123 1933.82,138.263 1935.9,188.55 1937.97,289.123 1940.05,188.55 1942.12,238.836 1944.2,87.9763 1946.27,87.9763 1948.34,188.55 1950.42,238.836 1952.49,138.263 1954.57,138.263 1956.64,188.55 1958.72,188.55 1960.79,87.9763 1962.86,87.9763 1964.94,238.836 1967.01,87.9763 1969.09,188.55 1971.16,138.263 1973.23,188.55 1975.31,188.55 1977.38,188.55 1979.46,188.55 1981.53,188.55 1983.61,238.836 1985.68,238.836 1987.75,87.9763 1989.83,138.263 1991.9,87.9763 1993.98,188.55 1996.05,188.55 1998.13,138.263 2000.2,138.263 2002.27,238.836 2004.35,138.263 2006.42,188.55 2008.5,138.263 2010.57,238.836 2012.64,188.55 2014.72,339.41 2016.79,138.263 2018.87,87.9763 2020.94,138.263 2023.02,138.263 2025.09,138.263 2027.16,238.836 2029.24,238.836 2031.31,87.9763 2033.39,87.9763 2035.46,87.9763 2037.54,138.263 2039.61,138.263 2041.68,238.836 2043.76,138.263 2045.83,138.263 2047.91,87.9763 2049.98,138.263 2052.06,138.263 2054.13,87.9763 2056.2,87.9763 2058.28,87.9763 2060.35,188.55 2062.43,87.9763 2064.5,138.263 2066.57,238.836 2068.65,289.123 2070.72,188.55 2072.8,188.55 2074.87,87.9763 2076.95,87.9763 2079.02,188.55 2081.09,138.263 2083.17,238.836 2085.24,138.263 2087.32,87.9763 2089.39,188.55 2091.47,87.9763 2093.54,238.836 2095.61,138.263 2097.69,87.9763 2099.76,138.263 2101.84,339.41 2103.91,87.9763 2105.99,188.55 2108.06,138.263 2110.13,238.836 2112.21,238.836 2114.28,289.123 2116.36,87.9763 2118.43,188.55 2120.5,138.263 2122.58,138.263 2124.65,87.9763 2126.73,138.263 2128.8,188.55 2130.88,87.9763 2132.95,188.55 2135.02,138.263 2137.1,188.55 2139.17,138.263 2141.25,138.263 2143.32,188.55 2145.4,188.55 2147.47,138.263 2149.54,138.263 2151.62,138.263 2153.69,138.263 2155.77,188.55 2157.84,238.836 2159.92,138.263 2161.99,87.9763 2164.06,138.263 2166.14,138.263 2168.21,289.123 2170.29,138.263 2172.36,138.263 2174.43,138.263 2176.51,188.55 2178.58,238.836 2180.66,138.263 2182.73,138.263 2184.81,87.9763 2186.88,138.263 2188.95,238.836 2191.03,188.55 2193.1,188.55 2195.18,138.263 2197.25,238.836 2199.33,188.55 2201.4,87.9763 2203.47,188.55 2205.55,188.55 2207.62,138.263 2209.7,188.55 2211.77,138.263 2213.84,188.55 2215.92,138.263 2217.99,188.55 2220.07,138.263 2222.14,188.55 2224.22,138.263 2226.29,138.263 2228.36,188.55 2230.44,138.263 2232.51,188.55 2234.59,138.263 2236.66,138.263 2238.74,87.9763 2240.81,138.263 2242.88,188.55 2244.96,188.55 2247.03,87.9763 2249.11,138.263 2251.18,138.263 2253.26,188.55 2255.33,188.55 2257.4,238.836 2259.48,87.9763 2261.55,87.9763 2263.63,188.55 2265.7,138.263 2267.77,87.9763 2269.85,87.9763 2271.92,138.263 2274,87.9763 2276.07,87.9763 2278.15,188.55 2280.22,138.263 2282.29,138.263 2284.37,138.263 2286.44,87.9763 2288.52,138.263 2290.59,138.263 "/>
<path clip-path="url(#clip380)" d="M2007.46 1438.47 L2279.54 1438.47 L2279.54 1334.79 L2007.46 1334.79  Z" fill="#ffffff" fill-rule="evenodd" fill-opacity="1"/>
<polyline clip-path="url(#clip380)" style="stroke:#000000; stroke-linecap:round; stroke-linejoin:round; stroke-width:4; stroke-opacity:1; fill:none" points="2007.46,1438.47 2279.54,1438.47 2279.54,1334.79 2007.46,1334.79 2007.46,1438.47 "/>
<polyline clip-path="url(#clip380)" style="stroke:#009af9; stroke-linecap:round; stroke-linejoin:round; stroke-width:4; stroke-opacity:1; fill:none" points="2031.87,1386.63 2178.3,1386.63 "/>
<path clip-path="url(#clip380)" d="M2216.55 1406.32 Q2214.74 1410.95 2213.03 1412.36 Q2211.32 1413.78 2208.44 1413.78 L2205.04 1413.78 L2205.04 1410.21 L2207.54 1410.21 Q2209.3 1410.21 2210.27 1409.38 Q2211.25 1408.54 2212.43 1405.44 L2213.19 1403.5 L2202.7 1377.99 L2207.22 1377.99 L2215.32 1398.27 L2223.42 1377.99 L2227.94 1377.99 L2216.55 1406.32 Z" fill="#000000" fill-rule="nonzero" fill-opacity="1" /><path clip-path="url(#clip380)" d="M2235.23 1399.98 L2242.87 1399.98 L2242.87 1373.61 L2234.56 1375.28 L2234.56 1371.02 L2242.82 1369.35 L2247.5 1369.35 L2247.5 1399.98 L2255.13 1399.98 L2255.13 1403.91 L2235.23 1403.91 L2235.23 1399.98 Z" fill="#000000" fill-rule="nonzero" fill-opacity="1" /></svg>
