<?xml version="1.0" encoding="utf-8"?>
<svg xmlns="http://www.w3.org/2000/svg" xmlns:xlink="http://www.w3.org/1999/xlink" width="600" height="400" viewBox="0 0 2400 1600">
<defs>
  <clipPath id="clip410">
    <rect x="0" y="0" width="2400" height="1600"/>
  </clipPath>
</defs>
<path clip-path="url(#clip410)" d="
M0 1600 L2400 1600 L2400 0 L0 0  Z
  " fill="#ffffff" fill-rule="evenodd" fill-opacity="1"/>
<defs>
  <clipPath id="clip411">
    <rect x="480" y="0" width="1681" height="1600"/>
  </clipPath>
</defs>
<path clip-path="url(#clip410)" d="
M418.494 1310.86 L2352.76 1310.86 L2352.76 47.2441 L418.494 47.2441  Z
  " fill="#ffffff" fill-rule="evenodd" fill-opacity="1"/>
<defs>
  <clipPath id="clip412">
    <rect x="418" y="47" width="1935" height="1265"/>
  </clipPath>
</defs>
<polyline clip-path="url(#clip412)" style="stroke:#000000; stroke-linecap:round; stroke-linejoin:round; stroke-width:2; stroke-opacity:0.1; fill:none" points="
  708.692,1310.86 708.692,47.2441 
  "/>
<polyline clip-path="url(#clip412)" style="stroke:#000000; stroke-linecap:round; stroke-linejoin:round; stroke-width:2; stroke-opacity:0.1; fill:none" points="
  1061.87,1310.86 1061.87,47.2441 
  "/>
<polyline clip-path="url(#clip412)" style="stroke:#000000; stroke-linecap:round; stroke-linejoin:round; stroke-width:2; stroke-opacity:0.1; fill:none" points="
  1415.06,1310.86 1415.06,47.2441 
  "/>
<polyline clip-path="url(#clip412)" style="stroke:#000000; stroke-linecap:round; stroke-linejoin:round; stroke-width:2; stroke-opacity:0.1; fill:none" points="
  1768.24,1310.86 1768.24,47.2441 
  "/>
<polyline clip-path="url(#clip412)" style="stroke:#000000; stroke-linecap:round; stroke-linejoin:round; stroke-width:2; stroke-opacity:0.1; fill:none" points="
  2121.42,1310.86 2121.42,47.2441 
  "/>
<polyline clip-path="url(#clip410)" style="stroke:#000000; stroke-linecap:round; stroke-linejoin:round; stroke-width:4; stroke-opacity:1; fill:none" points="
  418.494,1310.86 2352.76,1310.86 
  "/>
<polyline clip-path="url(#clip410)" style="stroke:#000000; stroke-linecap:round; stroke-linejoin:round; stroke-width:4; stroke-opacity:1; fill:none" points="
  708.692,1310.86 708.692,1291.96 
  "/>
<polyline clip-path="url(#clip410)" style="stroke:#000000; stroke-linecap:round; stroke-linejoin:round; stroke-width:4; stroke-opacity:1; fill:none" points="
  1061.87,1310.86 1061.87,1291.96 
  "/>
<polyline clip-path="url(#clip410)" style="stroke:#000000; stroke-linecap:round; stroke-linejoin:round; stroke-width:4; stroke-opacity:1; fill:none" points="
  1415.06,1310.86 1415.06,1291.96 
  "/>
<polyline clip-path="url(#clip410)" style="stroke:#000000; stroke-linecap:round; stroke-linejoin:round; stroke-width:4; stroke-opacity:1; fill:none" points="
  1768.24,1310.86 1768.24,1291.96 
  "/>
<polyline clip-path="url(#clip410)" style="stroke:#000000; stroke-linecap:round; stroke-linejoin:round; stroke-width:4; stroke-opacity:1; fill:none" points="
  2121.42,1310.86 2121.42,1291.96 
  "/>
<path clip-path="url(#clip410)" d="M650.684 1379.51 L706.326 1379.51 L706.326 1386.88 L650.684 1386.88 L650.684 1379.51 Z" fill="#000000" fill-rule="evenodd" fill-opacity="1" /><path clip-path="url(#clip410)" d="M745.085 1375.17 Q739.182 1375.17 735.71 1379.2 Q732.281 1383.24 732.281 1390.27 Q732.281 1397.26 735.71 1401.34 Q739.182 1405.37 745.085 1405.37 Q750.988 1405.37 754.416 1401.34 Q757.889 1397.26 757.889 1390.27 Q757.889 1383.24 754.416 1379.2 Q750.988 1375.17 745.085 1375.17 M762.489 1347.69 L762.489 1355.68 Q759.191 1354.12 755.805 1353.29 Q752.463 1352.47 749.165 1352.47 Q740.484 1352.47 735.884 1358.33 Q731.326 1364.19 730.675 1376.03 Q733.236 1372.26 737.099 1370.26 Q740.962 1368.22 745.606 1368.22 Q755.371 1368.22 761.014 1374.17 Q766.699 1380.07 766.699 1390.27 Q766.699 1400.25 760.797 1406.29 Q754.894 1412.32 745.085 1412.32 Q733.844 1412.32 727.897 1403.72 Q721.951 1395.09 721.951 1378.72 Q721.951 1363.36 729.243 1354.25 Q736.535 1345.09 748.818 1345.09 Q752.116 1345.09 755.458 1345.74 Q758.844 1346.39 762.489 1347.69 Z" fill="#000000" fill-rule="evenodd" fill-opacity="1" /><path clip-path="url(#clip410)" d="M1004.63 1379.51 L1060.27 1379.51 L1060.27 1386.88 L1004.63 1386.88 L1004.63 1379.51 Z" fill="#000000" fill-rule="evenodd" fill-opacity="1" /><path clip-path="url(#clip410)" d="M1105.75 1376.12 Q1112.05 1377.47 1115.56 1381.72 Q1119.12 1385.97 1119.12 1392.22 Q1119.12 1401.82 1112.53 1407.07 Q1105.93 1412.32 1093.78 1412.32 Q1089.7 1412.32 1085.36 1411.49 Q1081.06 1410.71 1076.46 1409.11 L1076.46 1400.64 Q1080.1 1402.77 1084.44 1403.86 Q1088.78 1404.94 1093.51 1404.94 Q1101.76 1404.94 1106.06 1401.68 Q1110.4 1398.43 1110.4 1392.22 Q1110.4 1386.49 1106.36 1383.28 Q1102.37 1380.03 1095.21 1380.03 L1087.66 1380.03 L1087.66 1372.82 L1095.55 1372.82 Q1102.02 1372.82 1105.45 1370.26 Q1108.88 1367.66 1108.88 1362.8 Q1108.88 1357.8 1105.32 1355.16 Q1101.8 1352.47 1095.21 1352.47 Q1091.61 1352.47 1087.48 1353.25 Q1083.36 1354.03 1078.41 1355.68 L1078.41 1347.87 Q1083.4 1346.48 1087.74 1345.78 Q1092.13 1345.09 1095.99 1345.09 Q1105.97 1345.09 1111.79 1349.65 Q1117.6 1354.16 1117.6 1361.88 Q1117.6 1367.27 1114.52 1371 Q1111.44 1374.69 1105.75 1376.12 Z" fill="#000000" fill-rule="evenodd" fill-opacity="1" /><path clip-path="url(#clip410)" d="M1415.06 1352.03 Q1408.29 1352.03 1404.86 1358.72 Q1401.47 1365.36 1401.47 1378.72 Q1401.47 1392.05 1404.86 1398.73 Q1408.29 1405.37 1415.06 1405.37 Q1421.87 1405.37 1425.26 1398.73 Q1428.69 1392.05 1428.69 1378.72 Q1428.69 1365.36 1425.26 1358.72 Q1421.87 1352.03 1415.06 1352.03 M1415.06 1345.09 Q1425.95 1345.09 1431.68 1353.73 Q1437.45 1362.32 1437.45 1378.72 Q1437.45 1395.09 1431.68 1403.72 Q1425.95 1412.32 1415.06 1412.32 Q1404.16 1412.32 1398.39 1403.72 Q1392.66 1395.09 1392.66 1378.72 Q1392.66 1362.32 1398.39 1353.73 Q1404.16 1345.09 1415.06 1345.09 Z" fill="#000000" fill-rule="evenodd" fill-opacity="1" /><path clip-path="url(#clip410)" d="M1776.2 1376.12 Q1782.5 1377.47 1786.01 1381.72 Q1789.57 1385.97 1789.57 1392.22 Q1789.57 1401.82 1782.97 1407.07 Q1776.38 1412.32 1764.22 1412.32 Q1760.14 1412.32 1755.8 1411.49 Q1751.51 1410.71 1746.91 1409.11 L1746.91 1400.64 Q1750.55 1402.77 1754.89 1403.86 Q1759.23 1404.94 1763.96 1404.94 Q1772.21 1404.94 1776.51 1401.68 Q1780.85 1398.43 1780.85 1392.22 Q1780.85 1386.49 1776.81 1383.28 Q1772.82 1380.03 1765.66 1380.03 L1758.1 1380.03 L1758.1 1372.82 L1766 1372.82 Q1772.47 1372.82 1775.9 1370.26 Q1779.33 1367.66 1779.33 1362.8 Q1779.33 1357.8 1775.77 1355.16 Q1772.25 1352.47 1765.66 1352.47 Q1762.05 1352.47 1757.93 1353.25 Q1753.81 1354.03 1748.86 1355.68 L1748.86 1347.87 Q1753.85 1346.48 1758.19 1345.78 Q1762.58 1345.09 1766.44 1345.09 Q1776.42 1345.09 1782.24 1349.65 Q1788.05 1354.16 1788.05 1361.88 Q1788.05 1367.27 1784.97 1371 Q1781.89 1374.69 1776.2 1376.12 Z" fill="#000000" fill-rule="evenodd" fill-opacity="1" /><path clip-path="url(#clip410)" d="M2122.18 1375.17 Q2116.28 1375.17 2112.81 1379.2 Q2109.38 1383.24 2109.38 1390.27 Q2109.38 1397.26 2112.81 1401.34 Q2116.28 1405.37 2122.18 1405.37 Q2128.08 1405.37 2131.51 1401.34 Q2134.98 1397.26 2134.98 1390.27 Q2134.98 1383.24 2131.51 1379.2 Q2128.08 1375.17 2122.18 1375.17 M2139.59 1347.69 L2139.59 1355.68 Q2136.29 1354.12 2132.9 1353.29 Q2129.56 1352.47 2126.26 1352.47 Q2117.58 1352.47 2112.98 1358.33 Q2108.42 1364.19 2107.77 1376.03 Q2110.33 1372.26 2114.19 1370.26 Q2118.06 1368.22 2122.7 1368.22 Q2132.47 1368.22 2138.11 1374.17 Q2143.8 1380.07 2143.8 1390.27 Q2143.8 1400.25 2137.89 1406.29 Q2131.99 1412.32 2122.18 1412.32 Q2110.94 1412.32 2104.99 1403.72 Q2099.05 1395.09 2099.05 1378.72 Q2099.05 1363.36 2106.34 1354.25 Q2113.63 1345.09 2125.91 1345.09 Q2129.21 1345.09 2132.55 1345.74 Q2135.94 1346.39 2139.59 1347.69 Z" fill="#000000" fill-rule="evenodd" fill-opacity="1" /><path clip-path="url(#clip410)" d="M1430.94 1502.36 L1395.78 1549.67 L1432.76 1599.58 L1413.92 1599.58 L1385.62 1561.39 L1357.33 1599.58 L1338.49 1599.58 L1376.25 1548.71 L1341.7 1502.36 L1360.54 1502.36 L1386.32 1536.99 L1412.1 1502.36 L1430.94 1502.36 Z" fill="#000000" fill-rule="evenodd" fill-opacity="1" /><polyline clip-path="url(#clip412)" style="stroke:#000000; stroke-linecap:round; stroke-linejoin:round; stroke-width:2; stroke-opacity:0.1; fill:none" points="
  418.494,1275.1 2352.76,1275.1 
  "/>
<polyline clip-path="url(#clip412)" style="stroke:#000000; stroke-linecap:round; stroke-linejoin:round; stroke-width:2; stroke-opacity:0.1; fill:none" points="
  418.494,967.837 2352.76,967.837 
  "/>
<polyline clip-path="url(#clip412)" style="stroke:#000000; stroke-linecap:round; stroke-linejoin:round; stroke-width:2; stroke-opacity:0.1; fill:none" points="
  418.494,660.576 2352.76,660.576 
  "/>
<polyline clip-path="url(#clip412)" style="stroke:#000000; stroke-linecap:round; stroke-linejoin:round; stroke-width:2; stroke-opacity:0.1; fill:none" points="
  418.494,353.316 2352.76,353.316 
  "/>
<polyline clip-path="url(#clip410)" style="stroke:#000000; stroke-linecap:round; stroke-linejoin:round; stroke-width:4; stroke-opacity:1; fill:none" points="
  418.494,1310.86 418.494,47.2441 
  "/>
<polyline clip-path="url(#clip410)" style="stroke:#000000; stroke-linecap:round; stroke-linejoin:round; stroke-width:4; stroke-opacity:1; fill:none" points="
  418.494,1275.1 437.391,1275.1 
  "/>
<polyline clip-path="url(#clip410)" style="stroke:#000000; stroke-linecap:round; stroke-linejoin:round; stroke-width:4; stroke-opacity:1; fill:none" points="
  418.494,967.837 437.391,967.837 
  "/>
<polyline clip-path="url(#clip410)" style="stroke:#000000; stroke-linecap:round; stroke-linejoin:round; stroke-width:4; stroke-opacity:1; fill:none" points="
  418.494,660.576 437.391,660.576 
  "/>
<polyline clip-path="url(#clip410)" style="stroke:#000000; stroke-linecap:round; stroke-linejoin:round; stroke-width:4; stroke-opacity:1; fill:none" points="
  418.494,353.316 437.391,353.316 
  "/>
<path clip-path="url(#clip410)" d="M218.736 1248.47 Q211.965 1248.47 208.536 1255.15 Q205.151 1261.79 205.151 1275.16 Q205.151 1288.49 208.536 1295.17 Q211.965 1301.81 218.736 1301.81 Q225.55 1301.81 228.935 1295.17 Q232.364 1288.49 232.364 1275.16 Q232.364 1261.79 228.935 1255.15 Q225.55 1248.47 218.736 1248.47 M218.736 1241.53 Q229.63 1241.53 235.359 1250.16 Q241.132 1258.76 241.132 1275.16 Q241.132 1291.52 235.359 1300.16 Q229.63 1308.76 218.736 1308.76 Q207.842 1308.76 202.069 1300.16 Q196.34 1291.52 196.34 1275.16 Q196.34 1258.76 202.069 1250.16 Q207.842 1241.53 218.736 1241.53 Z" fill="#000000" fill-rule="evenodd" fill-opacity="1" /><path clip-path="url(#clip410)" d="M256.539 1296.47 L265.697 1296.47 L265.697 1307.5 L256.539 1307.5 L256.539 1296.47 Z" fill="#000000" fill-rule="evenodd" fill-opacity="1" /><path clip-path="url(#clip410)" d="M303.544 1248.47 Q296.774 1248.47 293.345 1255.15 Q289.959 1261.79 289.959 1275.16 Q289.959 1288.49 293.345 1295.17 Q296.774 1301.81 303.544 1301.81 Q310.359 1301.81 313.744 1295.17 Q317.173 1288.49 317.173 1275.16 Q317.173 1261.79 313.744 1255.15 Q310.359 1248.47 303.544 1248.47 M303.544 1241.53 Q314.438 1241.53 320.168 1250.16 Q325.94 1258.76 325.94 1275.16 Q325.94 1291.52 320.168 1300.16 Q314.438 1308.76 303.544 1308.76 Q292.65 1308.76 286.878 1300.16 Q281.149 1291.52 281.149 1275.16 Q281.149 1258.76 286.878 1250.16 Q292.65 1241.53 303.544 1241.53 Z" fill="#000000" fill-rule="evenodd" fill-opacity="1" /><path clip-path="url(#clip410)" d="M360.098 1248.47 Q353.327 1248.47 349.898 1255.15 Q346.513 1261.79 346.513 1275.16 Q346.513 1288.49 349.898 1295.17 Q353.327 1301.81 360.098 1301.81 Q366.912 1301.81 370.298 1295.17 Q373.726 1288.49 373.726 1275.16 Q373.726 1261.79 370.298 1255.15 Q366.912 1248.47 360.098 1248.47 M360.098 1241.53 Q370.992 1241.53 376.721 1250.16 Q382.494 1258.76 382.494 1275.16 Q382.494 1291.52 376.721 1300.16 Q370.992 1308.76 360.098 1308.76 Q349.204 1308.76 343.431 1300.16 Q337.702 1291.52 337.702 1275.16 Q337.702 1258.76 343.431 1250.16 Q349.204 1241.53 360.098 1241.53 Z" fill="#000000" fill-rule="evenodd" fill-opacity="1" /><path clip-path="url(#clip410)" d="M220.602 941.209 Q213.831 941.209 210.403 947.893 Q207.017 954.534 207.017 967.902 Q207.017 981.226 210.403 987.91 Q213.831 994.551 220.602 994.551 Q227.416 994.551 230.802 987.91 Q234.231 981.226 234.231 967.902 Q234.231 954.534 230.802 947.893 Q227.416 941.209 220.602 941.209 M220.602 934.265 Q231.496 934.265 237.225 942.902 Q242.998 951.496 242.998 967.902 Q242.998 984.265 237.225 992.902 Q231.496 1001.5 220.602 1001.5 Q209.708 1001.5 203.936 992.902 Q198.206 984.265 198.206 967.902 Q198.206 951.496 203.936 942.902 Q209.708 934.265 220.602 934.265 Z" fill="#000000" fill-rule="evenodd" fill-opacity="1" /><path clip-path="url(#clip410)" d="M258.406 989.212 L267.564 989.212 L267.564 1000.24 L258.406 1000.24 L258.406 989.212 Z" fill="#000000" fill-rule="evenodd" fill-opacity="1" /><path clip-path="url(#clip410)" d="M305.411 941.209 Q298.64 941.209 295.211 947.893 Q291.826 954.534 291.826 967.902 Q291.826 981.226 295.211 987.91 Q298.64 994.551 305.411 994.551 Q312.225 994.551 315.61 987.91 Q319.039 981.226 319.039 967.902 Q319.039 954.534 315.61 947.893 Q312.225 941.209 305.411 941.209 M305.411 934.265 Q316.305 934.265 322.034 942.902 Q327.806 951.496 327.806 967.902 Q327.806 984.265 322.034 992.902 Q316.305 1001.5 305.411 1001.5 Q294.517 1001.5 288.744 992.902 Q283.015 984.265 283.015 967.902 Q283.015 951.496 288.744 942.902 Q294.517 934.265 305.411 934.265 Z" fill="#000000" fill-rule="evenodd" fill-opacity="1" /><path clip-path="url(#clip410)" d="M343.301 935.437 L377.719 935.437 L377.719 942.815 L351.331 942.815 L351.331 958.7 Q353.24 958.049 355.15 957.746 Q357.06 957.398 358.969 957.398 Q369.82 957.398 376.157 963.345 Q382.494 969.291 382.494 979.447 Q382.494 989.907 375.983 995.723 Q369.473 1001.5 357.624 1001.5 Q353.544 1001.5 349.291 1000.8 Q345.081 1000.11 340.567 998.718 L340.567 989.907 Q344.473 992.034 348.64 993.075 Q352.806 994.117 357.45 994.117 Q364.959 994.117 369.343 990.167 Q373.726 986.218 373.726 979.447 Q373.726 972.676 369.343 968.726 Q364.959 964.777 357.45 964.777 Q353.935 964.777 350.419 965.558 Q346.947 966.339 343.301 967.989 L343.301 935.437 Z" fill="#000000" fill-rule="evenodd" fill-opacity="1" /><path clip-path="url(#clip410)" d="M218.736 633.949 Q211.965 633.949 208.536 640.633 Q205.151 647.273 205.151 660.641 Q205.151 673.966 208.536 680.65 Q211.965 687.291 218.736 687.291 Q225.55 687.291 228.935 680.65 Q232.364 673.966 232.364 660.641 Q232.364 647.273 228.935 640.633 Q225.55 633.949 218.736 633.949 M218.736 627.004 Q229.63 627.004 235.359 635.642 Q241.132 644.235 241.132 660.641 Q241.132 677.004 235.359 685.641 Q229.63 694.235 218.736 694.235 Q207.842 694.235 202.069 685.641 Q196.34 677.004 196.34 660.641 Q196.34 644.235 202.069 635.642 Q207.842 627.004 218.736 627.004 Z" fill="#000000" fill-rule="evenodd" fill-opacity="1" /><path clip-path="url(#clip410)" d="M256.539 681.952 L265.697 681.952 L265.697 692.976 L256.539 692.976 L256.539 681.952 Z" fill="#000000" fill-rule="evenodd" fill-opacity="1" /><path clip-path="url(#clip410)" d="M286.314 685.598 L300.636 685.598 L300.636 636.162 L285.055 639.287 L285.055 631.301 L300.55 628.176 L309.317 628.176 L309.317 685.598 L323.64 685.598 L323.64 692.976 L286.314 692.976 L286.314 685.598 Z" fill="#000000" fill-rule="evenodd" fill-opacity="1" /><path clip-path="url(#clip410)" d="M360.098 633.949 Q353.327 633.949 349.898 640.633 Q346.513 647.273 346.513 660.641 Q346.513 673.966 349.898 680.65 Q353.327 687.291 360.098 687.291 Q366.912 687.291 370.298 680.65 Q373.726 673.966 373.726 660.641 Q373.726 647.273 370.298 640.633 Q366.912 633.949 360.098 633.949 M360.098 627.004 Q370.992 627.004 376.721 635.642 Q382.494 644.235 382.494 660.641 Q382.494 677.004 376.721 685.641 Q370.992 694.235 360.098 694.235 Q349.204 694.235 343.431 685.641 Q337.702 677.004 337.702 660.641 Q337.702 644.235 343.431 635.642 Q349.204 627.004 360.098 627.004 Z" fill="#000000" fill-rule="evenodd" fill-opacity="1" /><path clip-path="url(#clip410)" d="M220.602 326.688 Q213.831 326.688 210.403 333.372 Q207.017 340.013 207.017 353.381 Q207.017 366.706 210.403 373.39 Q213.831 380.03 220.602 380.03 Q227.416 380.03 230.802 373.39 Q234.231 366.706 234.231 353.381 Q234.231 340.013 230.802 333.372 Q227.416 326.688 220.602 326.688 M220.602 319.744 Q231.496 319.744 237.225 328.381 Q242.998 336.975 242.998 353.381 Q242.998 369.744 237.225 378.381 Q231.496 386.975 220.602 386.975 Q209.708 386.975 203.936 378.381 Q198.206 369.744 198.206 353.381 Q198.206 336.975 203.936 328.381 Q209.708 319.744 220.602 319.744 Z" fill="#000000" fill-rule="evenodd" fill-opacity="1" /><path clip-path="url(#clip410)" d="M258.406 374.692 L267.564 374.692 L267.564 385.716 L258.406 385.716 L258.406 374.692 Z" fill="#000000" fill-rule="evenodd" fill-opacity="1" /><path clip-path="url(#clip410)" d="M288.18 378.337 L302.503 378.337 L302.503 328.902 L286.921 332.027 L286.921 324.041 L302.416 320.916 L311.183 320.916 L311.183 378.337 L325.506 378.337 L325.506 385.716 L288.18 385.716 L288.18 378.337 Z" fill="#000000" fill-rule="evenodd" fill-opacity="1" /><path clip-path="url(#clip410)" d="M343.301 320.916 L377.719 320.916 L377.719 328.294 L351.331 328.294 L351.331 344.18 Q353.24 343.529 355.15 343.225 Q357.06 342.878 358.969 342.878 Q369.82 342.878 376.157 348.824 Q382.494 354.77 382.494 364.926 Q382.494 375.386 375.983 381.202 Q369.473 386.975 357.624 386.975 Q353.544 386.975 349.291 386.28 Q345.081 385.586 340.567 384.197 L340.567 375.386 Q344.473 377.513 348.64 378.554 Q352.806 379.596 357.45 379.596 Q364.959 379.596 369.343 375.646 Q373.726 371.697 373.726 364.926 Q373.726 358.155 369.343 354.206 Q364.959 350.256 357.45 350.256 Q353.935 350.256 350.419 351.037 Q346.947 351.818 343.301 353.468 L343.301 320.916 Z" fill="#000000" fill-rule="evenodd" fill-opacity="1" /><path clip-path="url(#clip410)" d="M106.877 862.211 L158.439 862.211 L158.439 878.27 L24.2385 878.27 L24.2385 862.211 L38.9953 862.211 Q30.3148 857.176 26.1482 849.537 Q21.8947 841.812 21.8947 831.134 Q21.8947 813.426 35.9571 802.402 Q50.0196 791.291 72.9361 791.291 Q95.8527 791.291 109.915 802.402 Q123.978 813.426 123.978 831.134 Q123.978 841.812 119.811 849.537 Q115.557 857.176 106.877 862.211 M72.9361 807.871 Q55.3147 807.871 45.3321 815.162 Q35.2627 822.367 35.2627 835.041 Q35.2627 847.714 45.3321 855.006 Q55.3147 862.211 72.9361 862.211 Q90.5575 862.211 100.627 855.006 Q110.61 847.714 110.61 835.041 Q110.61 822.367 100.627 815.162 Q90.5575 807.871 72.9361 807.871 Z" fill="#000000" fill-rule="evenodd" fill-opacity="1" /><path clip-path="url(#clip410)" d="M39.1689 708.479 Q37.6064 711.17 36.912 714.382 Q36.1308 717.507 36.1308 721.326 Q36.1308 734.868 44.9849 742.159 Q53.7522 749.364 70.2452 749.364 L121.46 749.364 L121.46 765.423 L24.2385 765.423 L24.2385 749.364 L39.3425 749.364 Q30.4884 744.329 26.235 736.257 Q21.8947 728.184 21.8947 716.639 Q21.8947 714.989 22.1551 712.993 Q22.3287 710.996 22.7628 708.566 L39.1689 708.479 Z" fill="#000000" fill-rule="evenodd" fill-opacity="1" /><path clip-path="url(#clip410)" d="M-13.435 653.358 Q6.53022 664.99 26.0614 670.632 Q45.5925 676.274 65.6445 676.274 Q85.6965 676.274 105.401 670.632 Q125.019 664.903 144.898 653.358 L144.898 667.246 Q124.498 680.267 104.794 686.778 Q85.0888 693.201 65.6445 693.201 Q46.2869 693.201 26.669 686.778 Q7.05105 680.354 -13.435 667.246 L-13.435 653.358 Z" fill="#000000" fill-rule="evenodd" fill-opacity="1" /><path clip-path="url(#clip410)" d="M24.2385 541.553 L71.5472 576.709 L121.46 539.73 L121.46 558.567 L83.2659 586.865 L121.46 615.163 L121.46 634 L70.5924 596.24 L24.2385 630.788 L24.2385 611.952 L58.8737 586.171 L24.2385 560.389 L24.2385 541.553 Z" fill="#000000" fill-rule="evenodd" fill-opacity="1" /><path clip-path="url(#clip410)" d="M-13.435 519.678 L-13.435 505.789 Q7.05105 492.768 26.669 486.345 Q46.2869 479.834 65.6445 479.834 Q85.0888 479.834 104.794 486.345 Q124.498 492.768 144.898 505.789 L144.898 519.678 Q125.019 508.133 105.401 502.49 Q85.6965 496.761 65.6445 496.761 Q45.5925 496.761 26.0614 502.49 Q6.53022 508.133 -13.435 519.678 Z" fill="#000000" fill-rule="evenodd" fill-opacity="1" /><polyline clip-path="url(#clip412)" style="stroke:#009af9; stroke-linecap:round; stroke-linejoin:round; stroke-width:4; stroke-opacity:1; fill:none" points="
  473.237,1275.1 532.101,1249.49 590.964,1223.89 649.828,1198.28 708.692,1172.68 767.556,1147.07 826.419,1121.47 885.283,1095.86 944.147,1070.26 1003.01,1044.65 
  1061.87,1019.05 1120.74,993.442 1179.6,967.837 1238.47,942.232 1297.33,916.627 1356.19,891.022 1415.06,891.022 1473.92,916.627 1532.78,942.232 1591.65,967.837 
  1650.51,993.442 1709.38,1019.05 1768.24,1044.65 1827.1,1070.26 1885.97,1095.86 1944.83,1121.47 2003.69,1147.07 2062.56,1172.68 2121.42,1198.28 2180.29,1223.89 
  2239.15,1249.49 2298.01,1275.1 
  "/>
<circle clip-path="url(#clip412)" cx="473.237" cy="1275.1" r="14.4" fill="#009af9" fill-rule="evenodd" fill-opacity="1" stroke="#000000" stroke-opacity="1" stroke-width="3.2"/>
<circle clip-path="url(#clip412)" cx="532.101" cy="1249.49" r="14.4" fill="#009af9" fill-rule="evenodd" fill-opacity="1" stroke="#000000" stroke-opacity="1" stroke-width="3.2"/>
<circle clip-path="url(#clip412)" cx="590.964" cy="1223.89" r="14.4" fill="#009af9" fill-rule="evenodd" fill-opacity="1" stroke="#000000" stroke-opacity="1" stroke-width="3.2"/>
<circle clip-path="url(#clip412)" cx="649.828" cy="1198.28" r="14.4" fill="#009af9" fill-rule="evenodd" fill-opacity="1" stroke="#000000" stroke-opacity="1" stroke-width="3.2"/>
<circle clip-path="url(#clip412)" cx="708.692" cy="1172.68" r="14.4" fill="#009af9" fill-rule="evenodd" fill-opacity="1" stroke="#000000" stroke-opacity="1" stroke-width="3.2"/>
<circle clip-path="url(#clip412)" cx="767.556" cy="1147.07" r="14.4" fill="#009af9" fill-rule="evenodd" fill-opacity="1" stroke="#000000" stroke-opacity="1" stroke-width="3.2"/>
<circle clip-path="url(#clip412)" cx="826.419" cy="1121.47" r="14.4" fill="#009af9" fill-rule="evenodd" fill-opacity="1" stroke="#000000" stroke-opacity="1" stroke-width="3.2"/>
<circle clip-path="url(#clip412)" cx="885.283" cy="1095.86" r="14.4" fill="#009af9" fill-rule="evenodd" fill-opacity="1" stroke="#000000" stroke-opacity="1" stroke-width="3.2"/>
<circle clip-path="url(#clip412)" cx="944.147" cy="1070.26" r="14.4" fill="#009af9" fill-rule="evenodd" fill-opacity="1" stroke="#000000" stroke-opacity="1" stroke-width="3.2"/>
<circle clip-path="url(#clip412)" cx="1003.01" cy="1044.65" r="14.4" fill="#009af9" fill-rule="evenodd" fill-opacity="1" stroke="#000000" stroke-opacity="1" stroke-width="3.2"/>
<circle clip-path="url(#clip412)" cx="1061.87" cy="1019.05" r="14.4" fill="#009af9" fill-rule="evenodd" fill-opacity="1" stroke="#000000" stroke-opacity="1" stroke-width="3.2"/>
<circle clip-path="url(#clip412)" cx="1120.74" cy="993.442" r="14.4" fill="#009af9" fill-rule="evenodd" fill-opacity="1" stroke="#000000" stroke-opacity="1" stroke-width="3.2"/>
<circle clip-path="url(#clip412)" cx="1179.6" cy="967.837" r="14.4" fill="#009af9" fill-rule="evenodd" fill-opacity="1" stroke="#000000" stroke-opacity="1" stroke-width="3.2"/>
<circle clip-path="url(#clip412)" cx="1238.47" cy="942.232" r="14.4" fill="#009af9" fill-rule="evenodd" fill-opacity="1" stroke="#000000" stroke-opacity="1" stroke-width="3.2"/>
<circle clip-path="url(#clip412)" cx="1297.33" cy="916.627" r="14.4" fill="#009af9" fill-rule="evenodd" fill-opacity="1" stroke="#000000" stroke-opacity="1" stroke-width="3.2"/>
<circle clip-path="url(#clip412)" cx="1356.19" cy="891.022" r="14.4" fill="#009af9" fill-rule="evenodd" fill-opacity="1" stroke="#000000" stroke-opacity="1" stroke-width="3.2"/>
<circle clip-path="url(#clip412)" cx="1415.06" cy="891.022" r="14.4" fill="#009af9" fill-rule="evenodd" fill-opacity="1" stroke="#000000" stroke-opacity="1" stroke-width="3.2"/>
<circle clip-path="url(#clip412)" cx="1473.92" cy="916.627" r="14.4" fill="#009af9" fill-rule="evenodd" fill-opacity="1" stroke="#000000" stroke-opacity="1" stroke-width="3.2"/>
<circle clip-path="url(#clip412)" cx="1532.78" cy="942.232" r="14.4" fill="#009af9" fill-rule="evenodd" fill-opacity="1" stroke="#000000" stroke-opacity="1" stroke-width="3.2"/>
<circle clip-path="url(#clip412)" cx="1591.65" cy="967.837" r="14.4" fill="#009af9" fill-rule="evenodd" fill-opacity="1" stroke="#000000" stroke-opacity="1" stroke-width="3.2"/>
<circle clip-path="url(#clip412)" cx="1650.51" cy="993.442" r="14.4" fill="#009af9" fill-rule="evenodd" fill-opacity="1" stroke="#000000" stroke-opacity="1" stroke-width="3.2"/>
<circle clip-path="url(#clip412)" cx="1709.38" cy="1019.05" r="14.4" fill="#009af9" fill-rule="evenodd" fill-opacity="1" stroke="#000000" stroke-opacity="1" stroke-width="3.2"/>
<circle clip-path="url(#clip412)" cx="1768.24" cy="1044.65" r="14.4" fill="#009af9" fill-rule="evenodd" fill-opacity="1" stroke="#000000" stroke-opacity="1" stroke-width="3.2"/>
<circle clip-path="url(#clip412)" cx="1827.1" cy="1070.26" r="14.4" fill="#009af9" fill-rule="evenodd" fill-opacity="1" stroke="#000000" stroke-opacity="1" stroke-width="3.2"/>
<circle clip-path="url(#clip412)" cx="1885.97" cy="1095.86" r="14.4" fill="#009af9" fill-rule="evenodd" fill-opacity="1" stroke="#000000" stroke-opacity="1" stroke-width="3.2"/>
<circle clip-path="url(#clip412)" cx="1944.83" cy="1121.47" r="14.4" fill="#009af9" fill-rule="evenodd" fill-opacity="1" stroke="#000000" stroke-opacity="1" stroke-width="3.2"/>
<circle clip-path="url(#clip412)" cx="2003.69" cy="1147.07" r="14.4" fill="#009af9" fill-rule="evenodd" fill-opacity="1" stroke="#000000" stroke-opacity="1" stroke-width="3.2"/>
<circle clip-path="url(#clip412)" cx="2062.56" cy="1172.68" r="14.4" fill="#009af9" fill-rule="evenodd" fill-opacity="1" stroke="#000000" stroke-opacity="1" stroke-width="3.2"/>
<circle clip-path="url(#clip412)" cx="2121.42" cy="1198.28" r="14.4" fill="#009af9" fill-rule="evenodd" fill-opacity="1" stroke="#000000" stroke-opacity="1" stroke-width="3.2"/>
<circle clip-path="url(#clip412)" cx="2180.29" cy="1223.89" r="14.4" fill="#009af9" fill-rule="evenodd" fill-opacity="1" stroke="#000000" stroke-opacity="1" stroke-width="3.2"/>
<circle clip-path="url(#clip412)" cx="2239.15" cy="1249.49" r="14.4" fill="#009af9" fill-rule="evenodd" fill-opacity="1" stroke="#000000" stroke-opacity="1" stroke-width="3.2"/>
<circle clip-path="url(#clip412)" cx="2298.01" cy="1275.1" r="14.4" fill="#009af9" fill-rule="evenodd" fill-opacity="1" stroke="#000000" stroke-opacity="1" stroke-width="3.2"/>
<polyline clip-path="url(#clip412)" style="stroke:#e26f46; stroke-linecap:round; stroke-linejoin:round; stroke-width:4; stroke-opacity:1; fill:none" points="
  473.237,1275.1 532.101,1275.09 590.964,1275.08 649.828,1275.08 708.692,1275.07 767.556,1275.06 826.419,1275.06 885.283,1275.05 944.147,1274.29 1003.01,1164.79 
  1061.87,1055.29 1120.74,945.795 1179.6,836.297 1238.47,726.798 1297.33,617.299 1356.19,507.8 1415.06,507.8 1473.92,617.299 1532.78,726.798 1591.65,836.297 
  1650.51,945.795 1709.38,1055.29 1768.24,1164.79 1827.1,1274.29 1885.97,1275.05 1944.83,1275.06 2003.69,1275.06 2062.56,1275.07 2121.42,1275.08 2180.29,1275.08 
  2239.15,1275.09 2298.01,1275.1 
  "/>
<circle clip-path="url(#clip412)" cx="473.237" cy="1275.1" r="14.4" fill="#e26f46" fill-rule="evenodd" fill-opacity="1" stroke="#000000" stroke-opacity="1" stroke-width="3.2"/>
<circle clip-path="url(#clip412)" cx="532.101" cy="1275.09" r="14.4" fill="#e26f46" fill-rule="evenodd" fill-opacity="1" stroke="#000000" stroke-opacity="1" stroke-width="3.2"/>
<circle clip-path="url(#clip412)" cx="590.964" cy="1275.08" r="14.4" fill="#e26f46" fill-rule="evenodd" fill-opacity="1" stroke="#000000" stroke-opacity="1" stroke-width="3.2"/>
<circle clip-path="url(#clip412)" cx="649.828" cy="1275.08" r="14.4" fill="#e26f46" fill-rule="evenodd" fill-opacity="1" stroke="#000000" stroke-opacity="1" stroke-width="3.2"/>
<circle clip-path="url(#clip412)" cx="708.692" cy="1275.07" r="14.4" fill="#e26f46" fill-rule="evenodd" fill-opacity="1" stroke="#000000" stroke-opacity="1" stroke-width="3.2"/>
<circle clip-path="url(#clip412)" cx="767.556" cy="1275.06" r="14.4" fill="#e26f46" fill-rule="evenodd" fill-opacity="1" stroke="#000000" stroke-opacity="1" stroke-width="3.2"/>
<circle clip-path="url(#clip412)" cx="826.419" cy="1275.06" r="14.4" fill="#e26f46" fill-rule="evenodd" fill-opacity="1" stroke="#000000" stroke-opacity="1" stroke-width="3.2"/>
<circle clip-path="url(#clip412)" cx="885.283" cy="1275.05" r="14.4" fill="#e26f46" fill-rule="evenodd" fill-opacity="1" stroke="#000000" stroke-opacity="1" stroke-width="3.2"/>
<circle clip-path="url(#clip412)" cx="944.147" cy="1274.29" r="14.4" fill="#e26f46" fill-rule="evenodd" fill-opacity="1" stroke="#000000" stroke-opacity="1" stroke-width="3.2"/>
<circle clip-path="url(#clip412)" cx="1003.01" cy="1164.79" r="14.4" fill="#e26f46" fill-rule="evenodd" fill-opacity="1" stroke="#000000" stroke-opacity="1" stroke-width="3.2"/>
<circle clip-path="url(#clip412)" cx="1061.87" cy="1055.29" r="14.4" fill="#e26f46" fill-rule="evenodd" fill-opacity="1" stroke="#000000" stroke-opacity="1" stroke-width="3.2"/>
<circle clip-path="url(#clip412)" cx="1120.74" cy="945.795" r="14.4" fill="#e26f46" fill-rule="evenodd" fill-opacity="1" stroke="#000000" stroke-opacity="1" stroke-width="3.2"/>
<circle clip-path="url(#clip412)" cx="1179.6" cy="836.297" r="14.4" fill="#e26f46" fill-rule="evenodd" fill-opacity="1" stroke="#000000" stroke-opacity="1" stroke-width="3.2"/>
<circle clip-path="url(#clip412)" cx="1238.47" cy="726.798" r="14.4" fill="#e26f46" fill-rule="evenodd" fill-opacity="1" stroke="#000000" stroke-opacity="1" stroke-width="3.2"/>
<circle clip-path="url(#clip412)" cx="1297.33" cy="617.299" r="14.4" fill="#e26f46" fill-rule="evenodd" fill-opacity="1" stroke="#000000" stroke-opacity="1" stroke-width="3.2"/>
<circle clip-path="url(#clip412)" cx="1356.19" cy="507.8" r="14.4" fill="#e26f46" fill-rule="evenodd" fill-opacity="1" stroke="#000000" stroke-opacity="1" stroke-width="3.2"/>
<circle clip-path="url(#clip412)" cx="1415.06" cy="507.8" r="14.4" fill="#e26f46" fill-rule="evenodd" fill-opacity="1" stroke="#000000" stroke-opacity="1" stroke-width="3.2"/>
<circle clip-path="url(#clip412)" cx="1473.92" cy="617.299" r="14.4" fill="#e26f46" fill-rule="evenodd" fill-opacity="1" stroke="#000000" stroke-opacity="1" stroke-width="3.2"/>
<circle clip-path="url(#clip412)" cx="1532.78" cy="726.798" r="14.4" fill="#e26f46" fill-rule="evenodd" fill-opacity="1" stroke="#000000" stroke-opacity="1" stroke-width="3.2"/>
<circle clip-path="url(#clip412)" cx="1591.65" cy="836.297" r="14.4" fill="#e26f46" fill-rule="evenodd" fill-opacity="1" stroke="#000000" stroke-opacity="1" stroke-width="3.2"/>
<circle clip-path="url(#clip412)" cx="1650.51" cy="945.795" r="14.4" fill="#e26f46" fill-rule="evenodd" fill-opacity="1" stroke="#000000" stroke-opacity="1" stroke-width="3.2"/>
<circle clip-path="url(#clip412)" cx="1709.38" cy="1055.29" r="14.4" fill="#e26f46" fill-rule="evenodd" fill-opacity="1" stroke="#000000" stroke-opacity="1" stroke-width="3.2"/>
<circle clip-path="url(#clip412)" cx="1768.24" cy="1164.79" r="14.4" fill="#e26f46" fill-rule="evenodd" fill-opacity="1" stroke="#000000" stroke-opacity="1" stroke-width="3.2"/>
<circle clip-path="url(#clip412)" cx="1827.1" cy="1274.29" r="14.4" fill="#e26f46" fill-rule="evenodd" fill-opacity="1" stroke="#000000" stroke-opacity="1" stroke-width="3.2"/>
<circle clip-path="url(#clip412)" cx="1885.97" cy="1275.05" r="14.4" fill="#e26f46" fill-rule="evenodd" fill-opacity="1" stroke="#000000" stroke-opacity="1" stroke-width="3.2"/>
<circle clip-path="url(#clip412)" cx="1944.83" cy="1275.06" r="14.4" fill="#e26f46" fill-rule="evenodd" fill-opacity="1" stroke="#000000" stroke-opacity="1" stroke-width="3.2"/>
<circle clip-path="url(#clip412)" cx="2003.69" cy="1275.06" r="14.4" fill="#e26f46" fill-rule="evenodd" fill-opacity="1" stroke="#000000" stroke-opacity="1" stroke-width="3.2"/>
<circle clip-path="url(#clip412)" cx="2062.56" cy="1275.07" r="14.4" fill="#e26f46" fill-rule="evenodd" fill-opacity="1" stroke="#000000" stroke-opacity="1" stroke-width="3.2"/>
<circle clip-path="url(#clip412)" cx="2121.42" cy="1275.08" r="14.4" fill="#e26f46" fill-rule="evenodd" fill-opacity="1" stroke="#000000" stroke-opacity="1" stroke-width="3.2"/>
<circle clip-path="url(#clip412)" cx="2180.29" cy="1275.08" r="14.4" fill="#e26f46" fill-rule="evenodd" fill-opacity="1" stroke="#000000" stroke-opacity="1" stroke-width="3.2"/>
<circle clip-path="url(#clip412)" cx="2239.15" cy="1275.09" r="14.4" fill="#e26f46" fill-rule="evenodd" fill-opacity="1" stroke="#000000" stroke-opacity="1" stroke-width="3.2"/>
<circle clip-path="url(#clip412)" cx="2298.01" cy="1275.1" r="14.4" fill="#e26f46" fill-rule="evenodd" fill-opacity="1" stroke="#000000" stroke-opacity="1" stroke-width="3.2"/>
<polyline clip-path="url(#clip412)" style="stroke:#3da44d; stroke-linecap:round; stroke-linejoin:round; stroke-width:4; stroke-opacity:1; fill:none" points="
  473.237,1275.1 532.101,1275.1 590.964,1275.1 649.828,1275.1 708.692,1275.1 767.556,1275.06 826.419,1275.03 885.283,1275 944.147,1274.26 1003.01,1251.55 
  1061.87,1228.84 1120.74,1206.13 1179.6,1000.79 1238.47,694.861 1297.33,388.934 1356.19,83.0068 1415.06,83.0068 1473.92,388.934 1532.78,694.861 1591.65,1000.79 
  1650.51,1206.13 1709.38,1228.84 1768.24,1251.55 1827.1,1274.26 1885.97,1275 1944.83,1275.03 2003.69,1275.06 2062.56,1275.1 2121.42,1275.1 2180.29,1275.1 
  2239.15,1275.1 2298.01,1275.1 
  "/>
<circle clip-path="url(#clip412)" cx="473.237" cy="1275.1" r="14.4" fill="#3da44d" fill-rule="evenodd" fill-opacity="1" stroke="#000000" stroke-opacity="1" stroke-width="3.2"/>
<circle clip-path="url(#clip412)" cx="532.101" cy="1275.1" r="14.4" fill="#3da44d" fill-rule="evenodd" fill-opacity="1" stroke="#000000" stroke-opacity="1" stroke-width="3.2"/>
<circle clip-path="url(#clip412)" cx="590.964" cy="1275.1" r="14.4" fill="#3da44d" fill-rule="evenodd" fill-opacity="1" stroke="#000000" stroke-opacity="1" stroke-width="3.2"/>
<circle clip-path="url(#clip412)" cx="649.828" cy="1275.1" r="14.4" fill="#3da44d" fill-rule="evenodd" fill-opacity="1" stroke="#000000" stroke-opacity="1" stroke-width="3.2"/>
<circle clip-path="url(#clip412)" cx="708.692" cy="1275.1" r="14.4" fill="#3da44d" fill-rule="evenodd" fill-opacity="1" stroke="#000000" stroke-opacity="1" stroke-width="3.2"/>
<circle clip-path="url(#clip412)" cx="767.556" cy="1275.06" r="14.4" fill="#3da44d" fill-rule="evenodd" fill-opacity="1" stroke="#000000" stroke-opacity="1" stroke-width="3.2"/>
<circle clip-path="url(#clip412)" cx="826.419" cy="1275.03" r="14.4" fill="#3da44d" fill-rule="evenodd" fill-opacity="1" stroke="#000000" stroke-opacity="1" stroke-width="3.2"/>
<circle clip-path="url(#clip412)" cx="885.283" cy="1275" r="14.4" fill="#3da44d" fill-rule="evenodd" fill-opacity="1" stroke="#000000" stroke-opacity="1" stroke-width="3.2"/>
<circle clip-path="url(#clip412)" cx="944.147" cy="1274.26" r="14.4" fill="#3da44d" fill-rule="evenodd" fill-opacity="1" stroke="#000000" stroke-opacity="1" stroke-width="3.2"/>
<circle clip-path="url(#clip412)" cx="1003.01" cy="1251.55" r="14.4" fill="#3da44d" fill-rule="evenodd" fill-opacity="1" stroke="#000000" stroke-opacity="1" stroke-width="3.2"/>
<circle clip-path="url(#clip412)" cx="1061.87" cy="1228.84" r="14.4" fill="#3da44d" fill-rule="evenodd" fill-opacity="1" stroke="#000000" stroke-opacity="1" stroke-width="3.2"/>
<circle clip-path="url(#clip412)" cx="1120.74" cy="1206.13" r="14.4" fill="#3da44d" fill-rule="evenodd" fill-opacity="1" stroke="#000000" stroke-opacity="1" stroke-width="3.2"/>
<circle clip-path="url(#clip412)" cx="1179.6" cy="1000.79" r="14.4" fill="#3da44d" fill-rule="evenodd" fill-opacity="1" stroke="#000000" stroke-opacity="1" stroke-width="3.2"/>
<circle clip-path="url(#clip412)" cx="1238.47" cy="694.861" r="14.4" fill="#3da44d" fill-rule="evenodd" fill-opacity="1" stroke="#000000" stroke-opacity="1" stroke-width="3.2"/>
<circle clip-path="url(#clip412)" cx="1297.33" cy="388.934" r="14.4" fill="#3da44d" fill-rule="evenodd" fill-opacity="1" stroke="#000000" stroke-opacity="1" stroke-width="3.2"/>
<circle clip-path="url(#clip412)" cx="1356.19" cy="83.0068" r="14.4" fill="#3da44d" fill-rule="evenodd" fill-opacity="1" stroke="#000000" stroke-opacity="1" stroke-width="3.2"/>
<circle clip-path="url(#clip412)" cx="1415.06" cy="83.0068" r="14.4" fill="#3da44d" fill-rule="evenodd" fill-opacity="1" stroke="#000000" stroke-opacity="1" stroke-width="3.2"/>
<circle clip-path="url(#clip412)" cx="1473.92" cy="388.934" r="14.4" fill="#3da44d" fill-rule="evenodd" fill-opacity="1" stroke="#000000" stroke-opacity="1" stroke-width="3.2"/>
<circle clip-path="url(#clip412)" cx="1532.78" cy="694.861" r="14.4" fill="#3da44d" fill-rule="evenodd" fill-opacity="1" stroke="#000000" stroke-opacity="1" stroke-width="3.2"/>
<circle clip-path="url(#clip412)" cx="1591.65" cy="1000.79" r="14.4" fill="#3da44d" fill-rule="evenodd" fill-opacity="1" stroke="#000000" stroke-opacity="1" stroke-width="3.2"/>
<circle clip-path="url(#clip412)" cx="1650.51" cy="1206.13" r="14.4" fill="#3da44d" fill-rule="evenodd" fill-opacity="1" stroke="#000000" stroke-opacity="1" stroke-width="3.2"/>
<circle clip-path="url(#clip412)" cx="1709.38" cy="1228.84" r="14.4" fill="#3da44d" fill-rule="evenodd" fill-opacity="1" stroke="#000000" stroke-opacity="1" stroke-width="3.2"/>
<circle clip-path="url(#clip412)" cx="1768.24" cy="1251.55" r="14.4" fill="#3da44d" fill-rule="evenodd" fill-opacity="1" stroke="#000000" stroke-opacity="1" stroke-width="3.2"/>
<circle clip-path="url(#clip412)" cx="1827.1" cy="1274.26" r="14.4" fill="#3da44d" fill-rule="evenodd" fill-opacity="1" stroke="#000000" stroke-opacity="1" stroke-width="3.2"/>
<circle clip-path="url(#clip412)" cx="1885.97" cy="1275" r="14.4" fill="#3da44d" fill-rule="evenodd" fill-opacity="1" stroke="#000000" stroke-opacity="1" stroke-width="3.2"/>
<circle clip-path="url(#clip412)" cx="1944.83" cy="1275.03" r="14.4" fill="#3da44d" fill-rule="evenodd" fill-opacity="1" stroke="#000000" stroke-opacity="1" stroke-width="3.2"/>
<circle clip-path="url(#clip412)" cx="2003.69" cy="1275.06" r="14.4" fill="#3da44d" fill-rule="evenodd" fill-opacity="1" stroke="#000000" stroke-opacity="1" stroke-width="3.2"/>
<circle clip-path="url(#clip412)" cx="2062.56" cy="1275.1" r="14.4" fill="#3da44d" fill-rule="evenodd" fill-opacity="1" stroke="#000000" stroke-opacity="1" stroke-width="3.2"/>
<circle clip-path="url(#clip412)" cx="2121.42" cy="1275.1" r="14.4" fill="#3da44d" fill-rule="evenodd" fill-opacity="1" stroke="#000000" stroke-opacity="1" stroke-width="3.2"/>
<circle clip-path="url(#clip412)" cx="2180.29" cy="1275.1" r="14.4" fill="#3da44d" fill-rule="evenodd" fill-opacity="1" stroke="#000000" stroke-opacity="1" stroke-width="3.2"/>
<circle clip-path="url(#clip412)" cx="2239.15" cy="1275.1" r="14.4" fill="#3da44d" fill-rule="evenodd" fill-opacity="1" stroke="#000000" stroke-opacity="1" stroke-width="3.2"/>
<circle clip-path="url(#clip412)" cx="2298.01" cy="1275.1" r="14.4" fill="#3da44d" fill-rule="evenodd" fill-opacity="1" stroke="#000000" stroke-opacity="1" stroke-width="3.2"/>
<polyline clip-path="url(#clip412)" style="stroke:#c271d2; stroke-linecap:round; stroke-linejoin:round; stroke-width:4; stroke-opacity:1; fill:none" points="
  473.237,1275.1 532.101,1275.1 590.964,1275.1 649.828,1275.1 708.692,1275.1 767.556,1275.1 826.419,1275.08 885.283,1274.92 944.147,1273.86 1003.01,1268.23 
  1061.87,1245.23 1120.74,1173.45 1179.6,1004.36 1238.47,710.672 1297.33,354.039 1356.19,98.5204 1415.06,98.5204 1473.92,354.039 1532.78,710.672 1591.65,1004.36 
  1650.51,1173.45 1709.38,1245.23 1768.24,1268.23 1827.1,1273.86 1885.97,1274.92 1944.83,1275.08 2003.69,1275.1 2062.56,1275.1 2121.42,1275.1 2180.29,1275.1 
  2239.15,1275.1 2298.01,1275.1 
  "/>
<circle clip-path="url(#clip412)" cx="473.237" cy="1275.1" r="14.4" fill="#c271d2" fill-rule="evenodd" fill-opacity="1" stroke="#000000" stroke-opacity="1" stroke-width="3.2"/>
<circle clip-path="url(#clip412)" cx="532.101" cy="1275.1" r="14.4" fill="#c271d2" fill-rule="evenodd" fill-opacity="1" stroke="#000000" stroke-opacity="1" stroke-width="3.2"/>
<circle clip-path="url(#clip412)" cx="590.964" cy="1275.1" r="14.4" fill="#c271d2" fill-rule="evenodd" fill-opacity="1" stroke="#000000" stroke-opacity="1" stroke-width="3.2"/>
<circle clip-path="url(#clip412)" cx="649.828" cy="1275.1" r="14.4" fill="#c271d2" fill-rule="evenodd" fill-opacity="1" stroke="#000000" stroke-opacity="1" stroke-width="3.2"/>
<circle clip-path="url(#clip412)" cx="708.692" cy="1275.1" r="14.4" fill="#c271d2" fill-rule="evenodd" fill-opacity="1" stroke="#000000" stroke-opacity="1" stroke-width="3.2"/>
<circle clip-path="url(#clip412)" cx="767.556" cy="1275.1" r="14.4" fill="#c271d2" fill-rule="evenodd" fill-opacity="1" stroke="#000000" stroke-opacity="1" stroke-width="3.2"/>
<circle clip-path="url(#clip412)" cx="826.419" cy="1275.08" r="14.4" fill="#c271d2" fill-rule="evenodd" fill-opacity="1" stroke="#000000" stroke-opacity="1" stroke-width="3.2"/>
<circle clip-path="url(#clip412)" cx="885.283" cy="1274.92" r="14.4" fill="#c271d2" fill-rule="evenodd" fill-opacity="1" stroke="#000000" stroke-opacity="1" stroke-width="3.2"/>
<circle clip-path="url(#clip412)" cx="944.147" cy="1273.86" r="14.4" fill="#c271d2" fill-rule="evenodd" fill-opacity="1" stroke="#000000" stroke-opacity="1" stroke-width="3.2"/>
<circle clip-path="url(#clip412)" cx="1003.01" cy="1268.23" r="14.4" fill="#c271d2" fill-rule="evenodd" fill-opacity="1" stroke="#000000" stroke-opacity="1" stroke-width="3.2"/>
<circle clip-path="url(#clip412)" cx="1061.87" cy="1245.23" r="14.4" fill="#c271d2" fill-rule="evenodd" fill-opacity="1" stroke="#000000" stroke-opacity="1" stroke-width="3.2"/>
<circle clip-path="url(#clip412)" cx="1120.74" cy="1173.45" r="14.4" fill="#c271d2" fill-rule="evenodd" fill-opacity="1" stroke="#000000" stroke-opacity="1" stroke-width="3.2"/>
<circle clip-path="url(#clip412)" cx="1179.6" cy="1004.36" r="14.4" fill="#c271d2" fill-rule="evenodd" fill-opacity="1" stroke="#000000" stroke-opacity="1" stroke-width="3.2"/>
<circle clip-path="url(#clip412)" cx="1238.47" cy="710.672" r="14.4" fill="#c271d2" fill-rule="evenodd" fill-opacity="1" stroke="#000000" stroke-opacity="1" stroke-width="3.2"/>
<circle clip-path="url(#clip412)" cx="1297.33" cy="354.039" r="14.4" fill="#c271d2" fill-rule="evenodd" fill-opacity="1" stroke="#000000" stroke-opacity="1" stroke-width="3.2"/>
<circle clip-path="url(#clip412)" cx="1356.19" cy="98.5204" r="14.4" fill="#c271d2" fill-rule="evenodd" fill-opacity="1" stroke="#000000" stroke-opacity="1" stroke-width="3.2"/>
<circle clip-path="url(#clip412)" cx="1415.06" cy="98.5204" r="14.4" fill="#c271d2" fill-rule="evenodd" fill-opacity="1" stroke="#000000" stroke-opacity="1" stroke-width="3.2"/>
<circle clip-path="url(#clip412)" cx="1473.92" cy="354.039" r="14.4" fill="#c271d2" fill-rule="evenodd" fill-opacity="1" stroke="#000000" stroke-opacity="1" stroke-width="3.2"/>
<circle clip-path="url(#clip412)" cx="1532.78" cy="710.672" r="14.4" fill="#c271d2" fill-rule="evenodd" fill-opacity="1" stroke="#000000" stroke-opacity="1" stroke-width="3.2"/>
<circle clip-path="url(#clip412)" cx="1591.65" cy="1004.36" r="14.4" fill="#c271d2" fill-rule="evenodd" fill-opacity="1" stroke="#000000" stroke-opacity="1" stroke-width="3.2"/>
<circle clip-path="url(#clip412)" cx="1650.51" cy="1173.45" r="14.4" fill="#c271d2" fill-rule="evenodd" fill-opacity="1" stroke="#000000" stroke-opacity="1" stroke-width="3.2"/>
<circle clip-path="url(#clip412)" cx="1709.38" cy="1245.23" r="14.4" fill="#c271d2" fill-rule="evenodd" fill-opacity="1" stroke="#000000" stroke-opacity="1" stroke-width="3.2"/>
<circle clip-path="url(#clip412)" cx="1768.24" cy="1268.23" r="14.4" fill="#c271d2" fill-rule="evenodd" fill-opacity="1" stroke="#000000" stroke-opacity="1" stroke-width="3.2"/>
<circle clip-path="url(#clip412)" cx="1827.1" cy="1273.86" r="14.4" fill="#c271d2" fill-rule="evenodd" fill-opacity="1" stroke="#000000" stroke-opacity="1" stroke-width="3.2"/>
<circle clip-path="url(#clip412)" cx="1885.97" cy="1274.92" r="14.4" fill="#c271d2" fill-rule="evenodd" fill-opacity="1" stroke="#000000" stroke-opacity="1" stroke-width="3.2"/>
<circle clip-path="url(#clip412)" cx="1944.83" cy="1275.08" r="14.4" fill="#c271d2" fill-rule="evenodd" fill-opacity="1" stroke="#000000" stroke-opacity="1" stroke-width="3.2"/>
<circle clip-path="url(#clip412)" cx="2003.69" cy="1275.1" r="14.4" fill="#c271d2" fill-rule="evenodd" fill-opacity="1" stroke="#000000" stroke-opacity="1" stroke-width="3.2"/>
<circle clip-path="url(#clip412)" cx="2062.56" cy="1275.1" r="14.4" fill="#c271d2" fill-rule="evenodd" fill-opacity="1" stroke="#000000" stroke-opacity="1" stroke-width="3.2"/>
<circle clip-path="url(#clip412)" cx="2121.42" cy="1275.1" r="14.4" fill="#c271d2" fill-rule="evenodd" fill-opacity="1" stroke="#000000" stroke-opacity="1" stroke-width="3.2"/>
<circle clip-path="url(#clip412)" cx="2180.29" cy="1275.1" r="14.4" fill="#c271d2" fill-rule="evenodd" fill-opacity="1" stroke="#000000" stroke-opacity="1" stroke-width="3.2"/>
<circle clip-path="url(#clip412)" cx="2239.15" cy="1275.1" r="14.4" fill="#c271d2" fill-rule="evenodd" fill-opacity="1" stroke="#000000" stroke-opacity="1" stroke-width="3.2"/>
<circle clip-path="url(#clip412)" cx="2298.01" cy="1275.1" r="14.4" fill="#c271d2" fill-rule="evenodd" fill-opacity="1" stroke="#000000" stroke-opacity="1" stroke-width="3.2"/>
<path clip-path="url(#clip410)" d="
M1766.25 737.365 L2288.28 737.365 L2288.28 89.3646 L1766.25 89.3646  Z
  " fill="#ffffff" fill-rule="evenodd" fill-opacity="1"/>
<polyline clip-path="url(#clip410)" style="stroke:#000000; stroke-linecap:round; stroke-linejoin:round; stroke-width:4; stroke-opacity:1; fill:none" points="
  1766.25,737.365 2288.28,737.365 2288.28,89.3646 1766.25,89.3646 1766.25,737.365 
  "/>
<polyline clip-path="url(#clip410)" style="stroke:#009af9; stroke-linecap:round; stroke-linejoin:round; stroke-width:10; stroke-opacity:1; fill:none" points="
  1787.74,218.965 1916.69,218.965 
  "/>
<circle clip-path="url(#clip410)" cx="1852.21" cy="218.965" r="7.16393" fill="#009af9" fill-rule="evenodd" fill-opacity="1" stroke="#000000" stroke-opacity="1" stroke-width="6.36794"/>
<path clip-path="url(#clip410)" d="M1948.89 252.442 L1948.89 286.817 L1938.18 286.817 L1938.18 197.35 L1948.89 197.35 L1948.89 207.188 Q1952.24 201.401 1957.34 198.623 Q1962.49 195.788 1969.6 195.788 Q1981.41 195.788 1988.76 205.163 Q1996.17 214.538 1996.17 229.815 Q1996.17 245.093 1988.76 254.468 Q1981.41 263.843 1969.6 263.843 Q1962.49 263.843 1957.34 261.065 Q1952.24 258.229 1948.89 252.442 M1985.11 229.815 Q1985.11 218.068 1980.25 211.413 Q1975.45 204.7 1967 204.7 Q1958.55 204.7 1953.69 211.413 Q1948.89 218.068 1948.89 229.815 Q1948.89 241.563 1953.69 248.276 Q1958.55 254.931 1967 254.931 Q1975.45 254.931 1980.25 248.276 Q1985.11 241.563 1985.11 229.815 Z" fill="#000000" fill-rule="evenodd" fill-opacity="1" /><path clip-path="url(#clip410)" d="M2015.21 208.345 L2089.39 208.345 L2089.39 218.068 L2015.21 218.068 L2015.21 208.345 M2015.21 231.956 L2089.39 231.956 L2089.39 241.794 L2015.21 241.794 L2015.21 231.956 Z" fill="#000000" fill-rule="evenodd" fill-opacity="1" /><path clip-path="url(#clip410)" d="M2124.7 252.327 L2165.49 252.327 L2165.49 262.165 L2110.63 262.165 L2110.63 252.327 Q2117.29 245.44 2128.75 233.866 Q2140.26 222.234 2143.21 218.878 Q2148.83 212.57 2151.03 208.23 Q2153.28 203.832 2153.28 199.607 Q2153.28 192.721 2148.42 188.38 Q2143.62 184.04 2135.86 184.04 Q2130.37 184.04 2124.23 185.95 Q2118.16 187.859 2111.21 191.737 L2111.21 179.931 Q2118.27 177.096 2124.41 175.649 Q2130.54 174.202 2135.63 174.202 Q2149.06 174.202 2157.05 180.915 Q2165.03 187.628 2165.03 198.855 Q2165.03 204.179 2163.01 208.982 Q2161.04 213.727 2155.77 220.209 Q2154.33 221.887 2146.57 229.931 Q2138.82 237.917 2124.7 252.327 Z" fill="#000000" fill-rule="evenodd" fill-opacity="1" /><polyline clip-path="url(#clip410)" style="stroke:#e26f46; stroke-linecap:round; stroke-linejoin:round; stroke-width:10; stroke-opacity:1; fill:none" points="
  1787.74,348.565 1916.69,348.565 
  "/>
<circle clip-path="url(#clip410)" cx="1852.21" cy="348.565" r="7.16393" fill="#e26f46" fill-rule="evenodd" fill-opacity="1" stroke="#000000" stroke-opacity="1" stroke-width="6.36794"/>
<path clip-path="url(#clip410)" d="M1948.89 382.042 L1948.89 416.417 L1938.18 416.417 L1938.18 326.95 L1948.89 326.95 L1948.89 336.788 Q1952.24 331.001 1957.34 328.223 Q1962.49 325.388 1969.6 325.388 Q1981.41 325.388 1988.76 334.763 Q1996.17 344.138 1996.17 359.415 Q1996.17 374.693 1988.76 384.068 Q1981.41 393.443 1969.6 393.443 Q1962.49 393.443 1957.34 390.665 Q1952.24 387.829 1948.89 382.042 M1985.11 359.415 Q1985.11 347.668 1980.25 341.013 Q1975.45 334.3 1967 334.3 Q1958.55 334.3 1953.69 341.013 Q1948.89 347.668 1948.89 359.415 Q1948.89 371.163 1953.69 377.876 Q1958.55 384.531 1967 384.531 Q1975.45 384.531 1980.25 377.876 Q1985.11 371.163 1985.11 359.415 Z" fill="#000000" fill-rule="evenodd" fill-opacity="1" /><path clip-path="url(#clip410)" d="M2015.21 337.945 L2089.39 337.945 L2089.39 347.668 L2015.21 347.668 L2015.21 337.945 M2015.21 361.556 L2089.39 361.556 L2089.39 371.394 L2015.21 371.394 L2015.21 361.556 Z" fill="#000000" fill-rule="evenodd" fill-opacity="1" /><path clip-path="url(#clip410)" d="M2146.74 315.55 L2117.23 361.672 L2146.74 361.672 L2146.74 315.55 M2143.68 305.365 L2158.38 305.365 L2158.38 361.672 L2170.7 361.672 L2170.7 371.394 L2158.38 371.394 L2158.38 391.765 L2146.74 391.765 L2146.74 371.394 L2107.74 371.394 L2107.74 360.11 L2143.68 305.365 Z" fill="#000000" fill-rule="evenodd" fill-opacity="1" /><polyline clip-path="url(#clip410)" style="stroke:#3da44d; stroke-linecap:round; stroke-linejoin:round; stroke-width:10; stroke-opacity:1; fill:none" points="
  1787.74,478.165 1916.69,478.165 
  "/>
<circle clip-path="url(#clip410)" cx="1852.21" cy="478.165" r="7.16393" fill="#3da44d" fill-rule="evenodd" fill-opacity="1" stroke="#000000" stroke-opacity="1" stroke-width="6.36794"/>
<path clip-path="url(#clip410)" d="M1948.89 511.642 L1948.89 546.017 L1938.18 546.017 L1938.18 456.55 L1948.89 456.55 L1948.89 466.388 Q1952.24 460.601 1957.34 457.823 Q1962.49 454.988 1969.6 454.988 Q1981.41 454.988 1988.76 464.363 Q1996.17 473.738 1996.17 489.015 Q1996.17 504.293 1988.76 513.668 Q1981.41 523.043 1969.6 523.043 Q1962.49 523.043 1957.34 520.265 Q1952.24 517.429 1948.89 511.642 M1985.11 489.015 Q1985.11 477.268 1980.25 470.613 Q1975.45 463.9 1967 463.9 Q1958.55 463.9 1953.69 470.613 Q1948.89 477.268 1948.89 489.015 Q1948.89 500.763 1953.69 507.476 Q1958.55 514.131 1967 514.131 Q1975.45 514.131 1980.25 507.476 Q1985.11 500.763 1985.11 489.015 Z" fill="#000000" fill-rule="evenodd" fill-opacity="1" /><path clip-path="url(#clip410)" d="M2015.21 467.545 L2089.39 467.545 L2089.39 477.268 L2015.21 477.268 L2015.21 467.545 M2015.21 491.156 L2089.39 491.156 L2089.39 500.994 L2015.21 500.994 L2015.21 491.156 Z" fill="#000000" fill-rule="evenodd" fill-opacity="1" /><path clip-path="url(#clip410)" d="M2139.63 480.335 Q2131.29 480.335 2126.49 484.791 Q2121.74 489.247 2121.74 497.059 Q2121.74 504.872 2126.49 509.328 Q2131.29 513.784 2139.63 513.784 Q2147.96 513.784 2152.76 509.328 Q2157.57 504.814 2157.57 497.059 Q2157.57 489.247 2152.76 484.791 Q2148.02 480.335 2139.63 480.335 M2127.94 475.358 Q2120.41 473.506 2116.19 468.356 Q2112.02 463.205 2112.02 455.798 Q2112.02 445.439 2119.37 439.421 Q2126.78 433.402 2139.63 433.402 Q2152.53 433.402 2159.88 439.421 Q2167.23 445.439 2167.23 455.798 Q2167.23 463.205 2163.01 468.356 Q2158.84 473.506 2151.37 475.358 Q2159.82 477.326 2164.51 483.055 Q2169.26 488.784 2169.26 497.059 Q2169.26 509.617 2161.56 516.33 Q2153.92 523.043 2139.63 523.043 Q2125.33 523.043 2117.64 516.33 Q2110 509.617 2110 497.059 Q2110 488.784 2114.74 483.055 Q2119.49 477.326 2127.94 475.358 M2123.65 456.897 Q2123.65 463.61 2127.82 467.372 Q2132.05 471.133 2139.63 471.133 Q2147.15 471.133 2151.37 467.372 Q2155.66 463.61 2155.66 456.897 Q2155.66 450.184 2151.37 446.423 Q2147.15 442.661 2139.63 442.661 Q2132.05 442.661 2127.82 446.423 Q2123.65 450.184 2123.65 456.897 Z" fill="#000000" fill-rule="evenodd" fill-opacity="1" /><polyline clip-path="url(#clip410)" style="stroke:#c271d2; stroke-linecap:round; stroke-linejoin:round; stroke-width:10; stroke-opacity:1; fill:none" points="
  1787.74,607.765 1916.69,607.765 
  "/>
<circle clip-path="url(#clip410)" cx="1852.21" cy="607.765" r="7.16393" fill="#c271d2" fill-rule="evenodd" fill-opacity="1" stroke="#000000" stroke-opacity="1" stroke-width="6.36794"/>
<path clip-path="url(#clip410)" d="M1948.89 641.242 L1948.89 675.617 L1938.18 675.617 L1938.18 586.15 L1948.89 586.15 L1948.89 595.988 Q1952.24 590.201 1957.34 587.423 Q1962.49 584.588 1969.6 584.588 Q1981.41 584.588 1988.76 593.963 Q1996.17 603.338 1996.17 618.615 Q1996.17 633.893 1988.76 643.268 Q1981.41 652.643 1969.6 652.643 Q1962.49 652.643 1957.34 649.865 Q1952.24 647.029 1948.89 641.242 M1985.11 618.615 Q1985.11 606.868 1980.25 600.213 Q1975.45 593.5 1967 593.5 Q1958.55 593.5 1953.69 600.213 Q1948.89 606.868 1948.89 618.615 Q1948.89 630.363 1953.69 637.076 Q1958.55 643.731 1967 643.731 Q1975.45 643.731 1980.25 637.076 Q1985.11 630.363 1985.11 618.615 Z" fill="#000000" fill-rule="evenodd" fill-opacity="1" /><path clip-path="url(#clip410)" d="M2015.21 597.145 L2089.39 597.145 L2089.39 606.868 L2015.21 606.868 L2015.21 597.145 M2015.21 620.756 L2089.39 620.756 L2089.39 630.594 L2015.21 630.594 L2015.21 620.756 Z" fill="#000000" fill-rule="evenodd" fill-opacity="1" /><path clip-path="url(#clip410)" d="M2116.65 641.127 L2135.75 641.127 L2135.75 575.213 L2114.97 579.379 L2114.97 568.731 L2135.63 564.565 L2147.32 564.565 L2147.32 641.127 L2166.42 641.127 L2166.42 650.965 L2116.65 650.965 L2116.65 641.127 Z" fill="#000000" fill-rule="evenodd" fill-opacity="1" /><path clip-path="url(#clip410)" d="M2216.48 603.106 Q2208.61 603.106 2203.98 608.488 Q2199.41 613.87 2199.41 623.245 Q2199.41 632.562 2203.98 638.002 Q2208.61 643.384 2216.48 643.384 Q2224.35 643.384 2228.92 638.002 Q2233.55 632.562 2233.55 623.245 Q2233.55 613.87 2228.92 608.488 Q2224.35 603.106 2216.48 603.106 M2239.68 566.474 L2239.68 577.122 Q2235.29 575.039 2230.77 573.94 Q2226.32 572.84 2221.92 572.84 Q2210.34 572.84 2204.21 580.652 Q2198.13 588.465 2197.26 604.263 Q2200.68 599.229 2205.83 596.567 Q2210.98 593.847 2217.17 593.847 Q2230.19 593.847 2237.72 601.775 Q2245.3 609.645 2245.3 623.245 Q2245.3 636.555 2237.43 644.599 Q2229.56 652.643 2216.48 652.643 Q2201.49 652.643 2193.56 641.185 Q2185.63 629.668 2185.63 607.851 Q2185.63 587.365 2195.36 575.213 Q2205.08 563.002 2221.45 563.002 Q2225.85 563.002 2230.31 563.87 Q2234.82 564.738 2239.68 566.474 Z" fill="#000000" fill-rule="evenodd" fill-opacity="1" /></svg>
