<?xml version="1.0" encoding="utf-8"?>
<svg xmlns="http://www.w3.org/2000/svg" xmlns:xlink="http://www.w3.org/1999/xlink" width="600" height="400" viewBox="0 0 2400 1600">
<defs>
  <clipPath id="clip570">
    <rect x="0" y="0" width="2400" height="1600"/>
  </clipPath>
</defs>
<path clip-path="url(#clip570)" d="
M0 1600 L2400 1600 L2400 0 L0 0  Z
  " fill="#ffffff" fill-rule="evenodd" fill-opacity="1"/>
<defs>
  <clipPath id="clip571">
    <rect x="480" y="0" width="1681" height="1600"/>
  </clipPath>
</defs>
<path clip-path="url(#clip570)" d="
M475.047 1310.86 L2352.76 1310.86 L2352.76 47.2441 L475.047 47.2441  Z
  " fill="#ffffff" fill-rule="evenodd" fill-opacity="1"/>
<defs>
  <clipPath id="clip572">
    <rect x="475" y="47" width="1879" height="1265"/>
  </clipPath>
</defs>
<polyline clip-path="url(#clip572)" style="stroke:#000000; stroke-linecap:round; stroke-linejoin:round; stroke-width:2; stroke-opacity:0.1; fill:none" points="
  749.726,1310.86 749.726,47.2441 
  "/>
<polyline clip-path="url(#clip572)" style="stroke:#000000; stroke-linecap:round; stroke-linejoin:round; stroke-width:2; stroke-opacity:0.1; fill:none" points="
  1082.03,1310.86 1082.03,47.2441 
  "/>
<polyline clip-path="url(#clip572)" style="stroke:#000000; stroke-linecap:round; stroke-linejoin:round; stroke-width:2; stroke-opacity:0.1; fill:none" points="
  1414.33,1310.86 1414.33,47.2441 
  "/>
<polyline clip-path="url(#clip572)" style="stroke:#000000; stroke-linecap:round; stroke-linejoin:round; stroke-width:2; stroke-opacity:0.1; fill:none" points="
  1746.64,1310.86 1746.64,47.2441 
  "/>
<polyline clip-path="url(#clip572)" style="stroke:#000000; stroke-linecap:round; stroke-linejoin:round; stroke-width:2; stroke-opacity:0.1; fill:none" points="
  2078.94,1310.86 2078.94,47.2441 
  "/>
<polyline clip-path="url(#clip570)" style="stroke:#000000; stroke-linecap:round; stroke-linejoin:round; stroke-width:4; stroke-opacity:1; fill:none" points="
  475.047,1310.86 2352.76,1310.86 
  "/>
<polyline clip-path="url(#clip570)" style="stroke:#000000; stroke-linecap:round; stroke-linejoin:round; stroke-width:4; stroke-opacity:1; fill:none" points="
  749.726,1310.86 749.726,1291.96 
  "/>
<polyline clip-path="url(#clip570)" style="stroke:#000000; stroke-linecap:round; stroke-linejoin:round; stroke-width:4; stroke-opacity:1; fill:none" points="
  1082.03,1310.86 1082.03,1291.96 
  "/>
<polyline clip-path="url(#clip570)" style="stroke:#000000; stroke-linecap:round; stroke-linejoin:round; stroke-width:4; stroke-opacity:1; fill:none" points="
  1414.33,1310.86 1414.33,1291.96 
  "/>
<polyline clip-path="url(#clip570)" style="stroke:#000000; stroke-linecap:round; stroke-linejoin:round; stroke-width:4; stroke-opacity:1; fill:none" points="
  1746.64,1310.86 1746.64,1291.96 
  "/>
<polyline clip-path="url(#clip570)" style="stroke:#000000; stroke-linecap:round; stroke-linejoin:round; stroke-width:4; stroke-opacity:1; fill:none" points="
  2078.94,1310.86 2078.94,1291.96 
  "/>
<path clip-path="url(#clip570)" d="M691.718 1379.51 L747.361 1379.51 L747.361 1386.88 L691.718 1386.88 L691.718 1379.51 Z" fill="#000000" fill-rule="evenodd" fill-opacity="1" /><path clip-path="url(#clip570)" d="M786.119 1375.17 Q780.216 1375.17 776.744 1379.2 Q773.315 1383.24 773.315 1390.27 Q773.315 1397.26 776.744 1401.34 Q780.216 1405.37 786.119 1405.37 Q792.022 1405.37 795.451 1401.34 Q798.923 1397.26 798.923 1390.27 Q798.923 1383.24 795.451 1379.2 Q792.022 1375.17 786.119 1375.17 M803.523 1347.69 L803.523 1355.68 Q800.225 1354.12 796.839 1353.29 Q793.497 1352.47 790.199 1352.47 Q781.518 1352.47 776.918 1358.33 Q772.36 1364.19 771.709 1376.03 Q774.27 1372.26 778.133 1370.26 Q781.996 1368.22 786.64 1368.22 Q796.405 1368.22 802.048 1374.17 Q807.733 1380.07 807.733 1390.27 Q807.733 1400.25 801.831 1406.29 Q795.928 1412.32 786.119 1412.32 Q774.878 1412.32 768.932 1403.72 Q762.985 1395.09 762.985 1378.72 Q762.985 1363.36 770.277 1354.25 Q777.569 1345.09 789.852 1345.09 Q793.15 1345.09 796.492 1345.74 Q799.878 1346.39 803.523 1347.69 Z" fill="#000000" fill-rule="evenodd" fill-opacity="1" /><path clip-path="url(#clip570)" d="M1024.78 1379.51 L1080.42 1379.51 L1080.42 1386.88 L1024.78 1386.88 L1024.78 1379.51 Z" fill="#000000" fill-rule="evenodd" fill-opacity="1" /><path clip-path="url(#clip570)" d="M1125.91 1376.12 Q1132.2 1377.47 1135.72 1381.72 Q1139.28 1385.97 1139.28 1392.22 Q1139.28 1401.82 1132.68 1407.07 Q1126.08 1412.32 1113.93 1412.32 Q1109.85 1412.32 1105.51 1411.49 Q1101.21 1410.71 1096.61 1409.11 L1096.61 1400.64 Q1100.26 1402.77 1104.6 1403.86 Q1108.94 1404.94 1113.67 1404.94 Q1121.92 1404.94 1126.21 1401.68 Q1130.55 1398.43 1130.55 1392.22 Q1130.55 1386.49 1126.52 1383.28 Q1122.52 1380.03 1115.36 1380.03 L1107.81 1380.03 L1107.81 1372.82 L1115.71 1372.82 Q1122.18 1372.82 1125.61 1370.26 Q1129.04 1367.66 1129.04 1362.8 Q1129.04 1357.8 1125.48 1355.16 Q1121.96 1352.47 1115.36 1352.47 Q1111.76 1352.47 1107.64 1353.25 Q1103.51 1354.03 1098.57 1355.68 L1098.57 1347.87 Q1103.56 1346.48 1107.9 1345.78 Q1112.28 1345.09 1116.14 1345.09 Q1126.13 1345.09 1131.94 1349.65 Q1137.76 1354.16 1137.76 1361.88 Q1137.76 1367.27 1134.68 1371 Q1131.6 1374.69 1125.91 1376.12 Z" fill="#000000" fill-rule="evenodd" fill-opacity="1" /><path clip-path="url(#clip570)" d="M1414.33 1352.03 Q1407.56 1352.03 1404.13 1358.72 Q1400.75 1365.36 1400.75 1378.72 Q1400.75 1392.05 1404.13 1398.73 Q1407.56 1405.37 1414.33 1405.37 Q1421.15 1405.37 1424.53 1398.73 Q1427.96 1392.05 1427.96 1378.72 Q1427.96 1365.36 1424.53 1358.72 Q1421.15 1352.03 1414.33 1352.03 M1414.33 1345.09 Q1425.23 1345.09 1430.96 1353.73 Q1436.73 1362.32 1436.73 1378.72 Q1436.73 1395.09 1430.96 1403.72 Q1425.23 1412.32 1414.33 1412.32 Q1403.44 1412.32 1397.67 1403.72 Q1391.94 1395.09 1391.94 1378.72 Q1391.94 1362.32 1397.67 1353.73 Q1403.44 1345.09 1414.33 1345.09 Z" fill="#000000" fill-rule="evenodd" fill-opacity="1" /><path clip-path="url(#clip570)" d="M1754.6 1376.12 Q1760.9 1377.47 1764.41 1381.72 Q1767.97 1385.97 1767.97 1392.22 Q1767.97 1401.82 1761.37 1407.07 Q1754.78 1412.32 1742.62 1412.32 Q1738.54 1412.32 1734.2 1411.49 Q1729.91 1410.71 1725.31 1409.11 L1725.31 1400.64 Q1728.95 1402.77 1733.29 1403.86 Q1737.63 1404.94 1742.36 1404.94 Q1750.61 1404.94 1754.91 1401.68 Q1759.25 1398.43 1759.25 1392.22 Q1759.25 1386.49 1755.21 1383.28 Q1751.22 1380.03 1744.06 1380.03 L1736.5 1380.03 L1736.5 1372.82 L1744.4 1372.82 Q1750.87 1372.82 1754.3 1370.26 Q1757.73 1367.66 1757.73 1362.8 Q1757.73 1357.8 1754.17 1355.16 Q1750.65 1352.47 1744.06 1352.47 Q1740.45 1352.47 1736.33 1353.25 Q1732.21 1354.03 1727.26 1355.68 L1727.26 1347.87 Q1732.25 1346.48 1736.59 1345.78 Q1740.97 1345.09 1744.84 1345.09 Q1754.82 1345.09 1760.64 1349.65 Q1766.45 1354.16 1766.45 1361.88 Q1766.45 1367.27 1763.37 1371 Q1760.29 1374.69 1754.6 1376.12 Z" fill="#000000" fill-rule="evenodd" fill-opacity="1" /><path clip-path="url(#clip570)" d="M2079.7 1375.17 Q2073.8 1375.17 2070.33 1379.2 Q2066.9 1383.24 2066.9 1390.27 Q2066.9 1397.26 2070.33 1401.34 Q2073.8 1405.37 2079.7 1405.37 Q2085.6 1405.37 2089.03 1401.34 Q2092.51 1397.26 2092.51 1390.27 Q2092.51 1383.24 2089.03 1379.2 Q2085.6 1375.17 2079.7 1375.17 M2097.11 1347.69 L2097.11 1355.68 Q2093.81 1354.12 2090.42 1353.29 Q2087.08 1352.47 2083.78 1352.47 Q2075.1 1352.47 2070.5 1358.33 Q2065.94 1364.19 2065.29 1376.03 Q2067.85 1372.26 2071.72 1370.26 Q2075.58 1368.22 2080.22 1368.22 Q2089.99 1368.22 2095.63 1374.17 Q2101.32 1380.07 2101.32 1390.27 Q2101.32 1400.25 2095.41 1406.29 Q2089.51 1412.32 2079.7 1412.32 Q2068.46 1412.32 2062.51 1403.72 Q2056.57 1395.09 2056.57 1378.72 Q2056.57 1363.36 2063.86 1354.25 Q2071.15 1345.09 2083.43 1345.09 Q2086.73 1345.09 2090.08 1345.74 Q2093.46 1346.39 2097.11 1347.69 Z" fill="#000000" fill-rule="evenodd" fill-opacity="1" /><path clip-path="url(#clip570)" d="M1459.21 1502.36 L1424.06 1549.67 L1461.04 1599.58 L1442.2 1599.58 L1413.9 1561.39 L1385.6 1599.58 L1366.77 1599.58 L1404.53 1548.71 L1369.98 1502.36 L1388.81 1502.36 L1414.6 1536.99 L1440.38 1502.36 L1459.21 1502.36 Z" fill="#000000" fill-rule="evenodd" fill-opacity="1" /><polyline clip-path="url(#clip572)" style="stroke:#000000; stroke-linecap:round; stroke-linejoin:round; stroke-width:2; stroke-opacity:0.1; fill:none" points="
  475.047,1275.1 2352.76,1275.1 
  "/>
<polyline clip-path="url(#clip572)" style="stroke:#000000; stroke-linecap:round; stroke-linejoin:round; stroke-width:2; stroke-opacity:0.1; fill:none" points="
  475.047,893.02 2352.76,893.02 
  "/>
<polyline clip-path="url(#clip572)" style="stroke:#000000; stroke-linecap:round; stroke-linejoin:round; stroke-width:2; stroke-opacity:0.1; fill:none" points="
  475.047,510.942 2352.76,510.942 
  "/>
<polyline clip-path="url(#clip572)" style="stroke:#000000; stroke-linecap:round; stroke-linejoin:round; stroke-width:2; stroke-opacity:0.1; fill:none" points="
  475.047,128.865 2352.76,128.865 
  "/>
<polyline clip-path="url(#clip570)" style="stroke:#000000; stroke-linecap:round; stroke-linejoin:round; stroke-width:4; stroke-opacity:1; fill:none" points="
  475.047,1310.86 475.047,47.2441 
  "/>
<polyline clip-path="url(#clip570)" style="stroke:#000000; stroke-linecap:round; stroke-linejoin:round; stroke-width:4; stroke-opacity:1; fill:none" points="
  475.047,1275.1 493.945,1275.1 
  "/>
<polyline clip-path="url(#clip570)" style="stroke:#000000; stroke-linecap:round; stroke-linejoin:round; stroke-width:4; stroke-opacity:1; fill:none" points="
  475.047,893.02 493.945,893.02 
  "/>
<polyline clip-path="url(#clip570)" style="stroke:#000000; stroke-linecap:round; stroke-linejoin:round; stroke-width:4; stroke-opacity:1; fill:none" points="
  475.047,510.942 493.945,510.942 
  "/>
<polyline clip-path="url(#clip570)" style="stroke:#000000; stroke-linecap:round; stroke-linejoin:round; stroke-width:4; stroke-opacity:1; fill:none" points="
  475.047,128.865 493.945,128.865 
  "/>
<path clip-path="url(#clip570)" d="M218.736 1248.47 Q211.965 1248.47 208.536 1255.15 Q205.151 1261.79 205.151 1275.16 Q205.151 1288.49 208.536 1295.17 Q211.965 1301.81 218.736 1301.81 Q225.55 1301.81 228.935 1295.17 Q232.364 1288.49 232.364 1275.16 Q232.364 1261.79 228.935 1255.15 Q225.55 1248.47 218.736 1248.47 M218.736 1241.53 Q229.63 1241.53 235.359 1250.16 Q241.132 1258.76 241.132 1275.16 Q241.132 1291.52 235.359 1300.16 Q229.63 1308.76 218.736 1308.76 Q207.842 1308.76 202.069 1300.16 Q196.34 1291.52 196.34 1275.16 Q196.34 1258.76 202.069 1250.16 Q207.842 1241.53 218.736 1241.53 Z" fill="#000000" fill-rule="evenodd" fill-opacity="1" /><path clip-path="url(#clip570)" d="M256.539 1296.47 L265.697 1296.47 L265.697 1307.5 L256.539 1307.5 L256.539 1296.47 Z" fill="#000000" fill-rule="evenodd" fill-opacity="1" /><path clip-path="url(#clip570)" d="M303.544 1248.47 Q296.774 1248.47 293.345 1255.15 Q289.959 1261.79 289.959 1275.16 Q289.959 1288.49 293.345 1295.17 Q296.774 1301.81 303.544 1301.81 Q310.359 1301.81 313.744 1295.17 Q317.173 1288.49 317.173 1275.16 Q317.173 1261.79 313.744 1255.15 Q310.359 1248.47 303.544 1248.47 M303.544 1241.53 Q314.438 1241.53 320.168 1250.16 Q325.94 1258.76 325.94 1275.16 Q325.94 1291.52 320.168 1300.16 Q314.438 1308.76 303.544 1308.76 Q292.65 1308.76 286.878 1300.16 Q281.149 1291.52 281.149 1275.16 Q281.149 1258.76 286.878 1250.16 Q292.65 1241.53 303.544 1241.53 Z" fill="#000000" fill-rule="evenodd" fill-opacity="1" /><path clip-path="url(#clip570)" d="M360.098 1248.47 Q353.327 1248.47 349.898 1255.15 Q346.513 1261.79 346.513 1275.16 Q346.513 1288.49 349.898 1295.17 Q353.327 1301.81 360.098 1301.81 Q366.912 1301.81 370.298 1295.17 Q373.726 1288.49 373.726 1275.16 Q373.726 1261.79 370.298 1255.15 Q366.912 1248.47 360.098 1248.47 M360.098 1241.53 Q370.992 1241.53 376.721 1250.16 Q382.494 1258.76 382.494 1275.16 Q382.494 1291.52 376.721 1300.16 Q370.992 1308.76 360.098 1308.76 Q349.204 1308.76 343.431 1300.16 Q337.702 1291.52 337.702 1275.16 Q337.702 1258.76 343.431 1250.16 Q349.204 1241.53 360.098 1241.53 Z" fill="#000000" fill-rule="evenodd" fill-opacity="1" /><path clip-path="url(#clip570)" d="M416.651 1248.47 Q409.881 1248.47 406.452 1255.15 Q403.066 1261.79 403.066 1275.16 Q403.066 1288.49 406.452 1295.17 Q409.881 1301.81 416.651 1301.81 Q423.466 1301.81 426.851 1295.17 Q430.28 1288.49 430.28 1275.16 Q430.28 1261.79 426.851 1255.15 Q423.466 1248.47 416.651 1248.47 M416.651 1241.53 Q427.546 1241.53 433.275 1250.16 Q439.047 1258.76 439.047 1275.16 Q439.047 1291.52 433.275 1300.16 Q427.546 1308.76 416.651 1308.76 Q405.757 1308.76 399.985 1300.16 Q394.256 1291.52 394.256 1275.16 Q394.256 1258.76 399.985 1250.16 Q405.757 1241.53 416.651 1241.53 Z" fill="#000000" fill-rule="evenodd" fill-opacity="1" /><path clip-path="url(#clip570)" d="M221.036 866.392 Q214.265 866.392 210.837 873.076 Q207.451 879.717 207.451 893.085 Q207.451 906.409 210.837 913.093 Q214.265 919.734 221.036 919.734 Q227.85 919.734 231.236 913.093 Q234.665 906.409 234.665 893.085 Q234.665 879.717 231.236 873.076 Q227.85 866.392 221.036 866.392 M221.036 859.448 Q231.93 859.448 237.659 868.085 Q243.432 876.679 243.432 893.085 Q243.432 909.448 237.659 918.085 Q231.93 926.678 221.036 926.678 Q210.142 926.678 204.37 918.085 Q198.64 909.448 198.64 893.085 Q198.64 876.679 204.37 868.085 Q210.142 859.448 221.036 859.448 Z" fill="#000000" fill-rule="evenodd" fill-opacity="1" /><path clip-path="url(#clip570)" d="M258.84 914.395 L267.998 914.395 L267.998 925.42 L258.84 925.42 L258.84 914.395 Z" fill="#000000" fill-rule="evenodd" fill-opacity="1" /><path clip-path="url(#clip570)" d="M305.845 866.392 Q299.074 866.392 295.645 873.076 Q292.26 879.717 292.26 893.085 Q292.26 906.409 295.645 913.093 Q299.074 919.734 305.845 919.734 Q312.659 919.734 316.044 913.093 Q319.473 906.409 319.473 893.085 Q319.473 879.717 316.044 873.076 Q312.659 866.392 305.845 866.392 M305.845 859.448 Q316.739 859.448 322.468 868.085 Q328.24 876.679 328.24 893.085 Q328.24 909.448 322.468 918.085 Q316.739 926.678 305.845 926.678 Q294.951 926.678 289.178 918.085 Q283.449 909.448 283.449 893.085 Q283.449 876.679 289.178 868.085 Q294.951 859.448 305.845 859.448 Z" fill="#000000" fill-rule="evenodd" fill-opacity="1" /><path clip-path="url(#clip570)" d="M362.398 866.392 Q355.627 866.392 352.199 873.076 Q348.813 879.717 348.813 893.085 Q348.813 906.409 352.199 913.093 Q355.627 919.734 362.398 919.734 Q369.212 919.734 372.598 913.093 Q376.027 906.409 376.027 893.085 Q376.027 879.717 372.598 873.076 Q369.212 866.392 362.398 866.392 M362.398 859.448 Q373.292 859.448 379.021 868.085 Q384.794 876.679 384.794 893.085 Q384.794 909.448 379.021 918.085 Q373.292 926.678 362.398 926.678 Q351.504 926.678 345.732 918.085 Q340.003 909.448 340.003 893.085 Q340.003 876.679 345.732 868.085 Q351.504 859.448 362.398 859.448 Z" fill="#000000" fill-rule="evenodd" fill-opacity="1" /><path clip-path="url(#clip570)" d="M401.721 918.041 L416.044 918.041 L416.044 868.606 L400.462 871.731 L400.462 863.745 L415.957 860.62 L424.724 860.62 L424.724 918.041 L439.047 918.041 L439.047 925.42 L401.721 925.42 L401.721 918.041 Z" fill="#000000" fill-rule="evenodd" fill-opacity="1" /><path clip-path="url(#clip570)" d="M221.731 484.315 Q214.96 484.315 211.531 490.999 Q208.146 497.639 208.146 511.007 Q208.146 524.332 211.531 531.016 Q214.96 537.657 221.731 537.657 Q228.545 537.657 231.93 531.016 Q235.359 524.332 235.359 511.007 Q235.359 497.639 231.93 490.999 Q228.545 484.315 221.731 484.315 M221.731 477.37 Q232.625 477.37 238.354 486.008 Q244.126 494.601 244.126 511.007 Q244.126 527.37 238.354 536.007 Q232.625 544.601 221.731 544.601 Q210.837 544.601 205.064 536.007 Q199.335 527.37 199.335 511.007 Q199.335 494.601 205.064 486.008 Q210.837 477.37 221.731 477.37 Z" fill="#000000" fill-rule="evenodd" fill-opacity="1" /><path clip-path="url(#clip570)" d="M259.534 532.318 L268.692 532.318 L268.692 543.342 L259.534 543.342 L259.534 532.318 Z" fill="#000000" fill-rule="evenodd" fill-opacity="1" /><path clip-path="url(#clip570)" d="M306.539 484.315 Q299.768 484.315 296.34 490.999 Q292.954 497.639 292.954 511.007 Q292.954 524.332 296.34 531.016 Q299.768 537.657 306.539 537.657 Q313.353 537.657 316.739 531.016 Q320.168 524.332 320.168 511.007 Q320.168 497.639 316.739 490.999 Q313.353 484.315 306.539 484.315 M306.539 477.37 Q317.433 477.37 323.162 486.008 Q328.935 494.601 328.935 511.007 Q328.935 527.37 323.162 536.007 Q317.433 544.601 306.539 544.601 Q295.645 544.601 289.873 536.007 Q284.144 527.37 284.144 511.007 Q284.144 494.601 289.873 486.008 Q295.645 477.37 306.539 477.37 Z" fill="#000000" fill-rule="evenodd" fill-opacity="1" /><path clip-path="url(#clip570)" d="M363.093 484.315 Q356.322 484.315 352.893 490.999 Q349.508 497.639 349.508 511.007 Q349.508 524.332 352.893 531.016 Q356.322 537.657 363.093 537.657 Q369.907 537.657 373.292 531.016 Q376.721 524.332 376.721 511.007 Q376.721 497.639 373.292 490.999 Q369.907 484.315 363.093 484.315 M363.093 477.37 Q373.987 477.37 379.716 486.008 Q385.488 494.601 385.488 511.007 Q385.488 527.37 379.716 536.007 Q373.987 544.601 363.093 544.601 Q352.199 544.601 346.426 536.007 Q340.697 527.37 340.697 511.007 Q340.697 494.601 346.426 486.008 Q352.199 477.37 363.093 477.37 Z" fill="#000000" fill-rule="evenodd" fill-opacity="1" /><path clip-path="url(#clip570)" d="M408.448 535.964 L439.047 535.964 L439.047 543.342 L397.902 543.342 L397.902 535.964 Q402.893 530.799 411.487 522.118 Q420.124 513.395 422.337 510.877 Q426.547 506.146 428.197 502.891 Q429.889 499.593 429.889 496.424 Q429.889 491.259 426.243 488.004 Q422.641 484.749 416.825 484.749 Q412.702 484.749 408.101 486.181 Q403.544 487.613 398.336 490.521 L398.336 481.667 Q403.631 479.541 408.231 478.456 Q412.832 477.37 416.651 477.37 Q426.721 477.37 432.71 482.405 Q438.7 487.44 438.7 495.86 Q438.7 499.853 437.181 503.455 Q435.705 507.014 431.756 511.875 Q430.67 513.134 424.855 519.167 Q419.039 525.157 408.448 535.964 Z" fill="#000000" fill-rule="evenodd" fill-opacity="1" /><path clip-path="url(#clip570)" d="M219.951 102.237 Q213.18 102.237 209.752 108.921 Q206.366 115.562 206.366 128.93 Q206.366 142.255 209.752 148.939 Q213.18 155.579 219.951 155.579 Q226.765 155.579 230.151 148.939 Q233.58 142.255 233.58 128.93 Q233.58 115.562 230.151 108.921 Q226.765 102.237 219.951 102.237 M219.951 95.2931 Q230.845 95.2931 236.574 103.93 Q242.347 112.524 242.347 128.93 Q242.347 145.293 236.574 153.93 Q230.845 162.524 219.951 162.524 Q209.057 162.524 203.285 153.93 Q197.555 145.293 197.555 128.93 Q197.555 112.524 203.285 103.93 Q209.057 95.2931 219.951 95.2931 Z" fill="#000000" fill-rule="evenodd" fill-opacity="1" /><path clip-path="url(#clip570)" d="M257.755 150.241 L266.913 150.241 L266.913 161.265 L257.755 161.265 L257.755 150.241 Z" fill="#000000" fill-rule="evenodd" fill-opacity="1" /><path clip-path="url(#clip570)" d="M304.76 102.237 Q297.989 102.237 294.56 108.921 Q291.175 115.562 291.175 128.93 Q291.175 142.255 294.56 148.939 Q297.989 155.579 304.76 155.579 Q311.574 155.579 314.959 148.939 Q318.388 142.255 318.388 128.93 Q318.388 115.562 314.959 108.921 Q311.574 102.237 304.76 102.237 M304.76 95.2931 Q315.654 95.2931 321.383 103.93 Q327.155 112.524 327.155 128.93 Q327.155 145.293 321.383 153.93 Q315.654 162.524 304.76 162.524 Q293.866 162.524 288.093 153.93 Q282.364 145.293 282.364 128.93 Q282.364 112.524 288.093 103.93 Q293.866 95.2931 304.76 95.2931 Z" fill="#000000" fill-rule="evenodd" fill-opacity="1" /><path clip-path="url(#clip570)" d="M361.313 102.237 Q354.542 102.237 351.114 108.921 Q347.728 115.562 347.728 128.93 Q347.728 142.255 351.114 148.939 Q354.542 155.579 361.313 155.579 Q368.127 155.579 371.513 148.939 Q374.942 142.255 374.942 128.93 Q374.942 115.562 371.513 108.921 Q368.127 102.237 361.313 102.237 M361.313 95.2931 Q372.207 95.2931 377.936 103.93 Q383.709 112.524 383.709 128.93 Q383.709 145.293 377.936 153.93 Q372.207 162.524 361.313 162.524 Q350.419 162.524 344.647 153.93 Q338.918 145.293 338.918 128.93 Q338.918 112.524 344.647 103.93 Q350.419 95.2931 361.313 95.2931 Z" fill="#000000" fill-rule="evenodd" fill-opacity="1" /><path clip-path="url(#clip570)" d="M425.679 126.326 Q431.973 127.671 435.488 131.925 Q439.047 136.178 439.047 142.428 Q439.047 152.02 432.45 157.272 Q425.853 162.524 413.7 162.524 Q409.62 162.524 405.28 161.699 Q400.983 160.918 396.382 159.312 L396.382 150.848 Q400.028 152.975 404.369 154.06 Q408.709 155.145 413.44 155.145 Q421.686 155.145 425.983 151.89 Q430.323 148.635 430.323 142.428 Q430.323 136.699 426.287 133.487 Q422.294 130.232 415.132 130.232 L407.58 130.232 L407.58 123.027 L415.48 123.027 Q421.947 123.027 425.375 120.467 Q428.804 117.862 428.804 113.001 Q428.804 108.01 425.245 105.362 Q421.73 102.671 415.132 102.671 Q411.53 102.671 407.407 103.453 Q403.283 104.234 398.336 105.883 L398.336 98.0708 Q403.327 96.6819 407.667 95.9875 Q412.051 95.2931 415.914 95.2931 Q425.896 95.2931 431.712 99.8503 Q437.528 104.364 437.528 112.09 Q437.528 117.472 434.447 121.204 Q431.365 124.894 425.679 126.326 Z" fill="#000000" fill-rule="evenodd" fill-opacity="1" /><path clip-path="url(#clip570)" d="M106.877 862.211 L158.439 862.211 L158.439 878.27 L24.2385 878.27 L24.2385 862.211 L38.9953 862.211 Q30.3148 857.176 26.1482 849.537 Q21.8947 841.812 21.8947 831.134 Q21.8947 813.426 35.9571 802.402 Q50.0196 791.291 72.9361 791.291 Q95.8527 791.291 109.915 802.402 Q123.978 813.426 123.978 831.134 Q123.978 841.812 119.811 849.537 Q115.557 857.176 106.877 862.211 M72.9361 807.871 Q55.3147 807.871 45.3321 815.162 Q35.2627 822.367 35.2627 835.041 Q35.2627 847.714 45.3321 855.006 Q55.3147 862.211 72.9361 862.211 Q90.5575 862.211 100.627 855.006 Q110.61 847.714 110.61 835.041 Q110.61 822.367 100.627 815.162 Q90.5575 807.871 72.9361 807.871 Z" fill="#000000" fill-rule="evenodd" fill-opacity="1" /><path clip-path="url(#clip570)" d="M39.1689 708.479 Q37.6064 711.17 36.912 714.382 Q36.1308 717.507 36.1308 721.326 Q36.1308 734.868 44.9849 742.159 Q53.7522 749.364 70.2452 749.364 L121.46 749.364 L121.46 765.423 L24.2385 765.423 L24.2385 749.364 L39.3425 749.364 Q30.4884 744.329 26.235 736.257 Q21.8947 728.184 21.8947 716.639 Q21.8947 714.989 22.1551 712.993 Q22.3287 710.996 22.7628 708.566 L39.1689 708.479 Z" fill="#000000" fill-rule="evenodd" fill-opacity="1" /><path clip-path="url(#clip570)" d="M-13.435 653.358 Q6.53022 664.99 26.0614 670.632 Q45.5925 676.274 65.6445 676.274 Q85.6965 676.274 105.401 670.632 Q125.019 664.903 144.898 653.358 L144.898 667.246 Q124.498 680.267 104.794 686.778 Q85.0888 693.201 65.6445 693.201 Q46.2869 693.201 26.669 686.778 Q7.05105 680.354 -13.435 667.246 L-13.435 653.358 Z" fill="#000000" fill-rule="evenodd" fill-opacity="1" /><path clip-path="url(#clip570)" d="M24.2385 541.553 L71.5472 576.709 L121.46 539.73 L121.46 558.567 L83.2659 586.865 L121.46 615.163 L121.46 634 L70.5924 596.24 L24.2385 630.788 L24.2385 611.952 L58.8737 586.171 L24.2385 560.389 L24.2385 541.553 Z" fill="#000000" fill-rule="evenodd" fill-opacity="1" /><path clip-path="url(#clip570)" d="M-13.435 519.678 L-13.435 505.789 Q7.05105 492.768 26.669 486.345 Q46.2869 479.834 65.6445 479.834 Q85.0888 479.834 104.794 486.345 Q124.498 492.768 144.898 505.789 L144.898 519.678 Q125.019 508.133 105.401 502.49 Q85.6965 496.761 65.6445 496.761 Q45.5925 496.761 26.0614 502.49 Q6.53022 508.133 -13.435 519.678 Z" fill="#000000" fill-rule="evenodd" fill-opacity="1" /><polyline clip-path="url(#clip572)" style="stroke:#009af9; stroke-linecap:round; stroke-linejoin:round; stroke-width:20; stroke-opacity:1; fill:none" points="
  528.19,1275.1 529.055,1275.1 529.921,1275.1 530.786,1275.1 531.651,1275.1 532.517,1275.1 533.382,1275.1 534.248,1275.1 535.113,1275.1 535.978,1275.1 
  536.844,1275.1 537.709,1275.1 538.574,1275.1 539.44,1275.1 540.305,1275.1 541.171,1275.1 542.036,1275.1 542.901,1275.1 543.767,1275.1 544.632,1275.1 
  545.497,1275.1 546.363,1275.1 547.228,1275.1 548.094,1275.1 548.959,1275.1 549.824,1275.1 550.69,1275.1 551.555,1275.1 552.42,1275.1 553.286,1275.1 
  554.151,1275.1 555.017,1275.1 555.882,1275.1 556.747,1275.1 557.613,1275.1 558.478,1275.1 559.343,1275.1 560.209,1275.1 561.074,1275.1 561.94,1275.1 
  562.805,1275.1 563.67,1275.1 564.536,1275.1 565.401,1275.1 566.266,1275.1 567.132,1275.1 567.997,1275.1 568.863,1275.1 569.728,1275.1 570.593,1275.1 
  571.459,1275.1 572.324,1275.1 573.189,1275.1 574.055,1275.1 574.92,1275.1 575.786,1275.1 576.651,1275.1 577.516,1275.1 578.382,1275.1 579.247,1275.1 
  580.112,1275.1 580.978,1275.1 581.843,1275.1 582.709,1275.1 583.574,1275.1 584.439,1275.1 585.305,1275.1 586.17,1275.1 587.035,1275.1 587.901,1275.1 
  588.766,1275.1 589.632,1275.1 590.497,1275.1 591.362,1275.1 592.228,1275.1 593.093,1275.1 593.958,1275.1 594.824,1275.1 595.689,1275.1 596.555,1275.1 
  597.42,1275.1 598.285,1275.1 599.151,1275.1 600.016,1275.1 600.881,1275.1 601.747,1275.1 602.612,1275.1 603.478,1275.1 604.343,1275.1 605.208,1275.1 
  606.074,1275.1 606.939,1275.1 607.804,1275.1 608.67,1275.1 609.535,1275.1 610.401,1275.1 611.266,1275.1 612.131,1275.1 612.997,1275.1 613.862,1275.1 
  614.727,1275.1 615.593,1275.1 616.458,1275.1 617.324,1275.1 618.189,1275.1 619.054,1275.1 619.92,1275.1 620.785,1275.1 621.65,1275.1 622.516,1275.1 
  623.381,1275.1 624.247,1275.1 625.112,1275.1 625.977,1275.1 626.843,1275.1 627.708,1275.1 628.573,1275.1 629.439,1275.1 630.304,1275.1 631.17,1275.1 
  632.035,1275.1 632.9,1275.1 633.766,1275.1 634.631,1275.1 635.496,1275.1 636.362,1275.1 637.227,1275.1 638.093,1275.1 638.958,1275.1 639.823,1275.1 
  640.689,1275.1 641.554,1275.1 642.419,1275.1 643.285,1275.1 644.15,1275.1 645.016,1275.1 645.881,1275.1 646.746,1275.1 647.612,1275.1 648.477,1275.1 
  649.342,1275.1 650.208,1275.1 651.073,1275.1 651.939,1275.1 652.804,1275.1 653.669,1275.1 654.535,1275.1 655.4,1275.1 656.265,1275.1 657.131,1275.1 
  657.996,1275.1 658.862,1275.1 659.727,1275.1 660.592,1275.1 661.458,1275.1 662.323,1275.1 663.188,1275.1 664.054,1275.1 664.919,1275.1 665.785,1275.1 
  666.65,1275.1 667.515,1275.1 668.381,1275.1 669.246,1275.1 670.111,1275.1 670.977,1275.1 671.842,1275.1 672.708,1275.1 673.573,1275.1 674.438,1275.1 
  675.304,1275.1 676.169,1275.1 677.034,1275.1 677.9,1275.1 678.765,1275.1 679.631,1275.1 680.496,1275.1 681.361,1275.1 682.227,1275.1 683.092,1275.1 
  683.957,1275.1 684.823,1275.1 685.688,1275.1 686.554,1275.1 687.419,1275.1 688.284,1275.1 689.15,1275.1 690.015,1275.1 690.88,1275.1 691.746,1275.1 
  692.611,1275.1 693.477,1275.1 694.342,1275.1 695.207,1275.1 696.073,1275.1 696.938,1275.1 697.803,1275.1 698.669,1275.1 699.534,1275.1 700.4,1275.1 
  701.265,1275.1 702.13,1275.1 702.996,1275.1 703.861,1275.1 704.726,1275.1 705.592,1275.1 706.457,1275.1 707.323,1275.1 708.188,1275.1 709.053,1275.1 
  709.919,1275.1 710.784,1275.1 711.649,1275.1 712.515,1275.1 713.38,1275.1 714.246,1275.1 715.111,1275.1 715.976,1275.1 716.842,1275.1 717.707,1275.1 
  718.572,1275.1 719.438,1275.1 720.303,1275.1 721.169,1275.1 722.034,1275.1 722.899,1275.1 723.765,1275.1 724.63,1275.1 725.495,1275.1 726.361,1275.1 
  727.226,1275.1 728.092,1275.1 728.957,1275.1 729.822,1275.1 730.688,1275.1 731.553,1275.1 732.418,1275.1 733.284,1275.1 734.149,1275.1 735.015,1275.1 
  735.88,1275.1 736.745,1275.1 737.611,1275.1 738.476,1275.1 739.341,1275.1 740.207,1275.1 741.072,1275.1 741.938,1275.1 742.803,1275.1 743.668,1275.1 
  744.534,1275.1 745.399,1275.1 746.264,1275.1 747.13,1275.1 747.995,1275.1 748.861,1275.1 749.726,1275.1 750.591,1275.1 751.457,1275.1 752.322,1275.1 
  753.187,1275.1 754.053,1275.1 754.918,1275.1 755.784,1275.1 756.649,1275.1 757.514,1275.1 758.38,1275.1 759.245,1275.1 760.11,1275.1 760.976,1275.1 
  761.841,1275.1 762.707,1275.1 763.572,1275.1 764.437,1275.1 765.303,1275.1 766.168,1275.1 767.033,1275.1 767.899,1275.1 768.764,1275.1 769.63,1275.1 
  770.495,1275.1 771.36,1275.1 772.226,1275.1 773.091,1275.1 773.956,1275.1 774.822,1275.1 775.687,1275.1 776.553,1275.1 777.418,1275.1 778.283,1275.1 
  779.149,1275.1 780.014,1275.1 780.879,1275.1 781.745,1275.1 782.61,1275.1 783.476,1275.1 784.341,1275.1 785.206,1275.1 786.072,1275.1 786.937,1275.1 
  787.802,1275.1 788.668,1275.1 789.533,1275.1 790.399,1275.1 791.264,1275.1 792.129,1275.1 792.995,1275.1 793.86,1275.1 794.725,1275.1 795.591,1275.1 
  796.456,1275.1 797.322,1275.1 798.187,1275.1 799.052,1275.1 799.918,1275.1 800.783,1275.1 801.648,1275.1 802.514,1275.1 803.379,1275.1 804.245,1275.1 
  805.11,1275.1 805.975,1275.1 806.841,1275.1 807.706,1275.1 808.571,1275.1 809.437,1275.1 810.302,1275.1 811.168,1275.1 812.033,1275.1 812.898,1275.1 
  813.764,1275.1 814.629,1275.1 815.495,1275.1 816.36,1275.1 817.225,1275.1 818.091,1275.1 818.956,1275.1 819.821,1275.1 820.687,1275.1 821.552,1275.1 
  822.418,1275.1 823.283,1275.1 824.148,1275.1 825.014,1275.1 825.879,1275.1 826.744,1275.1 827.61,1275.1 828.475,1275.1 829.341,1275.1 830.206,1275.1 
  831.071,1275.1 831.937,1275.1 832.802,1275.1 833.667,1275.1 834.533,1275.1 835.398,1275.1 836.264,1275.1 837.129,1275.1 837.994,1275.1 838.86,1275.1 
  839.725,1275.1 840.59,1275.1 841.456,1275.1 842.321,1275.1 843.187,1275.1 844.052,1275.1 844.917,1275.09 845.783,1275.09 846.648,1275.09 847.513,1275.09 
  848.379,1275.09 849.244,1275.09 850.11,1275.09 850.975,1275.09 851.84,1275.09 852.706,1275.09 853.571,1275.09 854.436,1275.09 855.302,1275.09 856.167,1275.09 
  857.033,1275.09 857.898,1275.09 858.763,1275.09 859.629,1275.09 860.494,1275.09 861.359,1275.09 862.225,1275.09 863.09,1275.09 863.956,1275.09 864.821,1275.09 
  865.686,1275.09 866.552,1275.09 867.417,1275.09 868.282,1275.09 869.148,1275.09 870.013,1275.09 870.879,1275.09 871.744,1275.09 872.609,1275.09 873.475,1275.09 
  874.34,1275.09 875.205,1275.09 876.071,1275.09 876.936,1275.09 877.802,1275.09 878.667,1275.09 879.532,1275.09 880.398,1275.09 881.263,1275.09 882.128,1275.09 
  882.994,1275.08 883.859,1275.08 884.725,1275.08 885.59,1275.08 886.455,1275.08 887.321,1275.08 888.186,1275.08 889.051,1275.08 889.917,1275.08 890.782,1275.08 
  891.648,1275.08 892.513,1275.08 893.378,1275.08 894.244,1275.08 895.109,1275.08 895.974,1275.08 896.84,1275.07 897.705,1275.07 898.571,1275.07 899.436,1275.07 
  900.301,1275.07 901.167,1275.07 902.032,1275.07 902.897,1275.07 903.763,1275.07 904.628,1275.07 905.494,1275.07 906.359,1275.06 907.224,1275.06 908.09,1275.06 
  908.955,1275.06 909.82,1275.06 910.686,1275.06 911.551,1275.06 912.417,1275.06 913.282,1275.05 914.147,1275.05 915.013,1275.05 915.878,1275.05 916.743,1275.05 
  917.609,1275.05 918.474,1275.04 919.34,1275.04 920.205,1275.04 921.07,1275.04 921.936,1275.03 922.801,1275.03 923.666,1275.03 924.532,1275.03 925.397,1275.03 
  926.263,1275.02 927.128,1275.02 927.993,1275.02 928.859,1275.02 929.724,1275.01 930.589,1275.01 931.455,1275.01 932.32,1275 933.186,1275 934.051,1275 
  934.916,1274.99 935.782,1274.99 936.647,1274.99 937.512,1274.98 938.378,1274.98 939.243,1274.97 940.109,1274.97 940.974,1274.97 941.839,1274.96 942.705,1274.96 
  943.57,1274.95 944.435,1274.95 945.301,1274.94 946.166,1274.94 947.032,1274.93 947.897,1274.92 948.762,1274.92 949.628,1274.91 950.493,1274.91 951.358,1274.9 
  952.224,1274.89 953.089,1274.89 953.955,1274.88 954.82,1274.88 955.685,1274.87 956.551,1274.86 957.416,1274.86 958.281,1274.85 959.147,1274.84 960.012,1274.83 
  960.878,1274.82 961.743,1274.81 962.608,1274.8 963.474,1274.79 964.339,1274.78 965.204,1274.77 966.07,1274.76 966.935,1274.75 967.801,1274.74 968.666,1274.73 
  969.531,1274.72 970.397,1274.71 971.262,1274.7 972.127,1274.68 972.993,1274.67 973.858,1274.65 974.724,1274.64 975.589,1274.62 976.454,1274.6 977.32,1274.59 
  978.185,1274.57 979.05,1274.56 979.916,1274.54 980.781,1274.53 981.647,1274.51 982.512,1274.49 983.377,1274.48 984.243,1274.46 985.108,1274.44 985.973,1274.42 
  986.839,1274.39 987.704,1274.37 988.57,1274.34 989.435,1274.32 990.3,1274.3 991.166,1274.27 992.031,1274.25 992.896,1274.22 993.762,1274.2 994.627,1274.17 
  995.493,1274.15 996.358,1274.12 997.223,1274.1 998.089,1274.07 998.954,1274.04 999.819,1274.01 1000.68,1273.97 1001.55,1273.93 1002.42,1273.89 1003.28,1273.85 
  1004.15,1273.82 1005.01,1273.78 1005.88,1273.74 1006.74,1273.7 1007.61,1273.66 1008.47,1273.63 1009.34,1273.59 1010.2,1273.55 1011.07,1273.51 1011.93,1273.47 
  1012.8,1273.43 1013.67,1273.37 1014.53,1273.31 1015.4,1273.25 1016.26,1273.19 1017.13,1273.14 1017.99,1273.08 1018.86,1273.02 1019.72,1272.96 1020.59,1272.91 
  1021.45,1272.85 1022.32,1272.79 1023.18,1272.73 1024.05,1272.67 1024.92,1272.62 1025.78,1272.56 1026.65,1272.49 1027.51,1272.4 1028.38,1272.31 1029.24,1272.23 
  1030.11,1272.14 1030.97,1272.05 1031.84,1271.97 1032.7,1271.88 1033.57,1271.8 1034.43,1271.71 1035.3,1271.62 1036.17,1271.54 1037.03,1271.45 1037.9,1271.36 
  1038.76,1271.28 1039.63,1271.19 1040.49,1271.08 1041.36,1270.96 1042.22,1270.83 1043.09,1270.7 1043.95,1270.58 1044.82,1270.45 1045.68,1270.32 1046.55,1270.19 
  1047.42,1270.07 1048.28,1269.94 1049.15,1269.81 1050.01,1269.69 1050.88,1269.56 1051.74,1269.43 1052.61,1269.31 1053.47,1269.18 1054.34,1269.02 1055.2,1268.84 
  1056.07,1268.66 1056.93,1268.47 1057.8,1268.29 1058.66,1268.11 1059.53,1267.92 1060.4,1267.74 1061.26,1267.55 1062.13,1267.37 1062.99,1267.19 1063.86,1267 
  1064.72,1266.82 1065.59,1266.64 1066.45,1266.45 1067.32,1266.27 1068.18,1266.05 1069.05,1265.78 1069.91,1265.52 1070.78,1265.26 1071.65,1265 1072.51,1264.74 
  1073.38,1264.48 1074.24,1264.22 1075.11,1263.96 1075.97,1263.7 1076.84,1263.44 1077.7,1263.18 1078.57,1262.92 1079.43,1262.66 1080.3,1262.4 1081.16,1262.14 
  1082.03,1261.82 1082.9,1261.46 1083.76,1261.09 1084.63,1260.73 1085.49,1260.36 1086.36,1260 1087.22,1259.64 1088.09,1259.27 1088.95,1258.91 1089.82,1258.55 
  1090.68,1258.18 1091.55,1257.82 1092.41,1257.46 1093.28,1257.09 1094.15,1256.73 1095.01,1256.36 1095.88,1255.92 1096.74,1255.42 1097.61,1254.93 1098.47,1254.43 
  1099.34,1253.93 1100.2,1253.43 1101.07,1252.93 1101.93,1252.43 1102.8,1251.93 1103.66,1251.43 1104.53,1250.93 1105.4,1250.43 1106.26,1249.94 1107.13,1249.44 
  1107.99,1248.94 1108.86,1248.44 1109.72,1247.84 1110.59,1247.17 1111.45,1246.49 1112.32,1245.82 1113.18,1245.15 1114.05,1244.48 1114.91,1243.8 1115.78,1243.13 
  1116.65,1242.46 1117.51,1241.79 1118.38,1241.11 1119.24,1240.44 1120.11,1239.77 1120.97,1239.1 1121.84,1238.42 1122.7,1237.75 1123.57,1236.95 1124.43,1236.06 
  1125.3,1235.17 1126.16,1234.28 1127.03,1233.39 1127.89,1232.5 1128.76,1231.61 1129.63,1230.71 1130.49,1229.82 1131.36,1228.93 1132.22,1228.04 1133.09,1227.15 
  1133.95,1226.26 1134.82,1225.37 1135.68,1224.48 1136.55,1223.59 1137.41,1222.54 1138.28,1221.38 1139.14,1220.22 1140.01,1219.06 1140.88,1217.9 1141.74,1216.75 
  1142.61,1215.59 1143.47,1214.43 1144.34,1213.27 1145.2,1212.11 1146.07,1210.95 1146.93,1209.8 1147.8,1208.64 1148.66,1207.48 1149.53,1206.32 1150.39,1205.16 
  1151.26,1203.81 1152.13,1202.33 1152.99,1200.85 1153.86,1199.37 1154.72,1197.89 1155.59,1196.41 1156.45,1194.93 1157.32,1193.45 1158.18,1191.97 1159.05,1190.49 
  1159.91,1189.01 1160.78,1187.53 1161.64,1186.05 1162.51,1184.58 1163.38,1183.1 1164.24,1181.62 1165.11,1179.9 1165.97,1178.05 1166.84,1176.19 1167.7,1174.34 
  1168.57,1172.48 1169.43,1170.63 1170.3,1168.78 1171.16,1166.92 1172.03,1165.07 1172.89,1163.21 1173.76,1161.36 1174.63,1159.5 1175.49,1157.65 1176.36,1155.79 
  1177.22,1153.94 1178.09,1152.09 1178.95,1149.96 1179.82,1147.68 1180.68,1145.39 1181.55,1143.11 1182.41,1140.83 1183.28,1138.55 1184.14,1136.27 1185.01,1133.99 
  1185.88,1131.71 1186.74,1129.43 1187.61,1127.15 1188.47,1124.87 1189.34,1122.58 1190.2,1120.3 1191.07,1118.02 1191.93,1115.74 1192.8,1113.15 1193.66,1110.39 
  1194.53,1107.64 1195.39,1104.89 1196.26,1102.14 1197.13,1099.39 1197.99,1096.63 1198.86,1093.88 1199.72,1091.13 1200.59,1088.38 1201.45,1085.63 1202.32,1082.87 
  1203.18,1080.12 1204.05,1077.37 1204.91,1074.62 1205.78,1071.87 1206.64,1068.76 1207.51,1065.51 1208.37,1062.25 1209.24,1059 1210.11,1055.74 1210.97,1052.49 
  1211.84,1049.23 1212.7,1045.98 1213.57,1042.72 1214.43,1039.47 1215.3,1036.21 1216.16,1032.96 1217.03,1029.7 1217.89,1026.45 1218.76,1023.19 1219.62,1019.94 
  1220.49,1016.3 1221.36,1012.53 1222.22,1008.76 1223.09,1004.99 1223.95,1001.21 1224.82,997.442 1225.68,993.67 1226.55,989.897 1227.41,986.125 1228.28,982.352 
  1229.14,978.579 1230.01,974.807 1230.87,971.034 1231.74,967.262 1232.61,963.489 1233.47,959.717 1234.34,955.549 1235.2,951.269 1236.07,946.988 1236.93,942.707 
  1237.8,938.427 1238.66,934.146 1239.53,929.865 1240.39,925.585 1241.26,921.304 1242.12,917.024 1242.99,912.743 1243.86,908.462 1244.72,904.182 1245.59,899.901 
  1246.45,895.62 1247.32,891.34 1248.18,886.661 1249.05,881.91 1249.91,877.158 1250.78,872.407 1251.64,867.656 1252.51,862.905 1253.37,858.153 1254.24,853.402 
  1255.11,848.651 1255.97,843.9 1256.84,839.148 1257.7,834.397 1258.57,829.646 1259.43,824.895 1260.3,820.143 1261.16,815.392 1262.03,810.257 1262.89,805.105 
  1263.76,799.952 1264.62,794.8 1265.49,789.647 1266.36,784.495 1267.22,779.342 1268.09,774.19 1268.95,769.037 1269.82,763.885 1270.68,758.732 1271.55,753.58 
  1272.41,748.427 1273.28,743.275 1274.14,738.122 1275.01,732.97 1275.87,727.467 1276.74,722.016 1277.6,716.565 1278.47,711.114 1279.34,705.663 1280.2,700.212 
  1281.07,694.761 1281.93,689.31 1282.8,683.859 1283.66,678.408 1284.53,672.957 1285.39,667.506 1286.26,662.055 1287.12,656.604 1287.99,651.153 1288.85,645.702 
  1289.72,639.956 1290.59,634.341 1291.45,628.727 1292.32,623.112 1293.18,617.498 1294.05,611.883 1294.91,606.269 1295.78,600.655 1296.64,595.04 1297.51,589.426 
  1298.37,583.811 1299.24,578.197 1300.1,572.582 1300.97,566.968 1301.84,561.354 1302.7,555.739 1303.57,549.904 1304.43,544.29 1305.3,538.675 1306.16,533.061 
  1307.03,527.447 1307.89,521.833 1308.76,516.219 1309.62,510.604 1310.49,504.99 1311.35,499.376 1312.22,493.762 1313.09,488.148 1313.95,482.533 1314.82,476.919 
  1315.68,471.305 1316.55,465.691 1317.41,459.949 1318.28,454.52 1319.14,449.091 1320.01,443.663 1320.87,438.234 1321.74,432.806 1322.6,427.377 1323.47,421.949 
  1324.34,416.52 1325.2,411.091 1326.07,405.663 1326.93,400.234 1327.8,394.806 1328.66,389.377 1329.53,383.948 1330.39,378.52 1331.26,373.07 1332.12,368.025 
  1332.99,362.98 1333.85,357.934 1334.72,352.889 1335.59,347.844 1336.45,342.798 1337.32,337.753 1338.18,332.708 1339.05,327.662 1339.91,322.617 1340.78,317.572 
  1341.64,312.526 1342.51,307.481 1343.37,302.435 1344.24,297.39 1345.1,292.441 1345.97,287.977 1346.83,283.513 1347.7,279.049 1348.57,274.585 1349.43,270.122 
  1350.3,265.658 1351.16,261.194 1352.03,256.73 1352.89,252.266 1353.76,247.803 1354.62,243.339 1355.49,238.875 1356.35,234.411 1357.22,229.947 1358.08,225.484 
  1358.95,221.235 1359.82,217.539 1360.68,213.843 1361.55,210.147 1362.41,206.451 1363.28,202.755 1364.14,199.059 1365.01,195.363 1365.87,191.667 1366.74,187.971 
  1367.6,184.275 1368.47,180.579 1369.33,176.883 1370.2,173.187 1371.07,169.491 1371.93,165.795 1372.8,162.429 1373.66,159.662 1374.53,156.895 1375.39,154.129 
  1376.26,151.362 1377.12,148.595 1377.99,145.828 1378.85,143.061 1379.72,140.294 1380.58,137.528 1381.45,134.761 1382.32,131.994 1383.18,129.227 1384.05,126.46 
  1384.91,123.694 1385.78,120.927 1386.64,118.593 1387.51,116.88 1388.37,115.167 1389.24,113.455 1390.1,111.742 1390.97,110.029 1391.83,108.316 1392.7,106.603 
  1393.57,104.89 1394.43,103.178 1395.3,101.465 1396.16,99.7519 1397.03,98.0391 1397.89,96.3262 1398.76,94.6134 1399.62,92.9006 1400.49,91.706 1401.35,91.126 
  1402.22,90.5461 1403.08,89.9662 1403.95,89.3862 1404.82,88.8063 1405.68,88.2263 1406.55,87.6464 1407.41,87.0664 1408.28,86.4865 1409.14,85.9065 1410.01,85.3266 
  1410.87,84.7466 1411.74,84.1667 1412.6,83.5868 1413.47,83.0068 1414.33,83.0068 1415.2,83.5868 1416.06,84.1667 1416.93,84.7466 1417.8,85.3266 1418.66,85.9065 
  1419.53,86.4865 1420.39,87.0664 1421.26,87.6464 1422.12,88.2263 1422.99,88.8063 1423.85,89.3862 1424.72,89.9662 1425.58,90.5461 1426.45,91.126 1427.31,91.706 
  1428.18,92.9006 1429.05,94.6134 1429.91,96.3262 1430.78,98.0391 1431.64,99.7519 1432.51,101.465 1433.37,103.178 1434.24,104.89 1435.1,106.603 1435.97,108.316 
  1436.83,110.029 1437.7,111.742 1438.56,113.455 1439.43,115.167 1440.3,116.88 1441.16,118.593 1442.03,120.927 1442.89,123.694 1443.76,126.46 1444.62,129.227 
  1445.49,131.994 1446.35,134.761 1447.22,137.528 1448.08,140.294 1448.95,143.061 1449.81,145.828 1450.68,148.595 1451.55,151.362 1452.41,154.129 1453.28,156.895 
  1454.14,159.662 1455.01,162.429 1455.87,165.795 1456.74,169.491 1457.6,173.187 1458.47,176.883 1459.33,180.579 1460.2,184.275 1461.06,187.971 1461.93,191.667 
  1462.8,195.363 1463.66,199.059 1464.53,202.755 1465.39,206.451 1466.26,210.147 1467.12,213.843 1467.99,217.539 1468.85,221.235 1469.72,225.484 1470.58,229.947 
  1471.45,234.411 1472.31,238.875 1473.18,243.339 1474.05,247.803 1474.91,252.266 1475.78,256.73 1476.64,261.194 1477.51,265.658 1478.37,270.122 1479.24,274.585 
  1480.1,279.049 1480.97,283.513 1481.83,287.977 1482.7,292.441 1483.56,297.39 1484.43,302.435 1485.3,307.481 1486.16,312.526 1487.03,317.572 1487.89,322.617 
  1488.76,327.662 1489.62,332.708 1490.49,337.753 1491.35,342.798 1492.22,347.844 1493.08,352.889 1493.95,357.934 1494.81,362.98 1495.68,368.025 1496.54,373.07 
  1497.41,378.52 1498.28,383.948 1499.14,389.377 1500.01,394.806 1500.87,400.234 1501.74,405.663 1502.6,411.091 1503.47,416.52 1504.33,421.949 1505.2,427.377 
  1506.06,432.806 1506.93,438.234 1507.79,443.663 1508.66,449.091 1509.53,454.52 1510.39,459.949 1511.26,465.691 1512.12,471.305 1512.99,476.919 1513.85,482.533 
  1514.72,488.148 1515.58,493.762 1516.45,499.376 1517.31,504.99 1518.18,510.604 1519.04,516.219 1519.91,521.833 1520.78,527.447 1521.64,533.061 1522.51,538.675 
  1523.37,544.29 1524.24,549.904 1525.1,555.739 1525.97,561.354 1526.83,566.968 1527.7,572.582 1528.56,578.197 1529.43,583.811 1530.29,589.426 1531.16,595.04 
  1532.03,600.655 1532.89,606.269 1533.76,611.883 1534.62,617.498 1535.49,623.112 1536.35,628.727 1537.22,634.341 1538.08,639.956 1538.95,645.702 1539.81,651.153 
  1540.68,656.604 1541.54,662.055 1542.41,667.506 1543.28,672.957 1544.14,678.408 1545.01,683.859 1545.87,689.31 1546.74,694.761 1547.6,700.212 1548.47,705.663 
  1549.33,711.114 1550.2,716.565 1551.06,722.016 1551.93,727.467 1552.79,732.97 1553.66,738.122 1554.53,743.275 1555.39,748.427 1556.26,753.58 1557.12,758.732 
  1557.99,763.885 1558.85,769.037 1559.72,774.19 1560.58,779.342 1561.45,784.495 1562.31,789.647 1563.18,794.8 1564.04,799.952 1564.91,805.105 1565.77,810.257 
  1566.64,815.392 1567.51,820.143 1568.37,824.895 1569.24,829.646 1570.1,834.397 1570.97,839.148 1571.83,843.9 1572.7,848.651 1573.56,853.402 1574.43,858.153 
  1575.29,862.905 1576.16,867.656 1577.02,872.407 1577.89,877.158 1578.76,881.91 1579.62,886.661 1580.49,891.34 1581.35,895.62 1582.22,899.901 1583.08,904.182 
  1583.95,908.462 1584.81,912.743 1585.68,917.024 1586.54,921.304 1587.41,925.585 1588.27,929.865 1589.14,934.146 1590.01,938.427 1590.87,942.707 1591.74,946.988 
  1592.6,951.269 1593.47,955.549 1594.33,959.717 1595.2,963.489 1596.06,967.262 1596.93,971.034 1597.79,974.807 1598.66,978.579 1599.52,982.352 1600.39,986.125 
  1601.26,989.897 1602.12,993.67 1602.99,997.442 1603.85,1001.21 1604.72,1004.99 1605.58,1008.76 1606.45,1012.53 1607.31,1016.3 1608.18,1019.94 1609.04,1023.19 
  1609.91,1026.45 1610.77,1029.7 1611.64,1032.96 1612.51,1036.21 1613.37,1039.47 1614.24,1042.72 1615.1,1045.98 1615.97,1049.23 1616.83,1052.49 1617.7,1055.74 
  1618.56,1059 1619.43,1062.25 1620.29,1065.51 1621.16,1068.76 1622.02,1071.87 1622.89,1074.62 1623.76,1077.37 1624.62,1080.12 1625.49,1082.87 1626.35,1085.63 
  1627.22,1088.38 1628.08,1091.13 1628.95,1093.88 1629.81,1096.63 1630.68,1099.39 1631.54,1102.14 1632.41,1104.89 1633.27,1107.64 1634.14,1110.39 1635,1113.15 
  1635.87,1115.74 1636.74,1118.02 1637.6,1120.3 1638.47,1122.58 1639.33,1124.87 1640.2,1127.15 1641.06,1129.43 1641.93,1131.71 1642.79,1133.99 1643.66,1136.27 
  1644.52,1138.55 1645.39,1140.83 1646.25,1143.11 1647.12,1145.39 1647.99,1147.68 1648.85,1149.96 1649.72,1152.09 1650.58,1153.94 1651.45,1155.79 1652.31,1157.65 
  1653.18,1159.5 1654.04,1161.36 1654.91,1163.21 1655.77,1165.07 1656.64,1166.92 1657.5,1168.78 1658.37,1170.63 1659.24,1172.48 1660.1,1174.34 1660.97,1176.19 
  1661.83,1178.05 1662.7,1179.9 1663.56,1181.62 1664.43,1183.1 1665.29,1184.58 1666.16,1186.05 1667.02,1187.53 1667.89,1189.01 1668.75,1190.49 1669.62,1191.97 
  1670.49,1193.45 1671.35,1194.93 1672.22,1196.41 1673.08,1197.89 1673.95,1199.37 1674.81,1200.85 1675.68,1202.33 1676.54,1203.81 1677.41,1205.16 1678.27,1206.32 
  1679.14,1207.48 1680,1208.64 1680.87,1209.8 1681.74,1210.95 1682.6,1212.11 1683.47,1213.27 1684.33,1214.43 1685.2,1215.59 1686.06,1216.75 1686.93,1217.9 
  1687.79,1219.06 1688.66,1220.22 1689.52,1221.38 1690.39,1222.54 1691.25,1223.59 1692.12,1224.48 1692.99,1225.37 1693.85,1226.26 1694.72,1227.15 1695.58,1228.04 
  1696.45,1228.93 1697.31,1229.82 1698.18,1230.71 1699.04,1231.61 1699.91,1232.5 1700.77,1233.39 1701.64,1234.28 1702.5,1235.17 1703.37,1236.06 1704.23,1236.95 
  1705.1,1237.75 1705.97,1238.42 1706.83,1239.1 1707.7,1239.77 1708.56,1240.44 1709.43,1241.11 1710.29,1241.79 1711.16,1242.46 1712.02,1243.13 1712.89,1243.8 
  1713.75,1244.48 1714.62,1245.15 1715.48,1245.82 1716.35,1246.49 1717.22,1247.17 1718.08,1247.84 1718.95,1248.44 1719.81,1248.94 1720.68,1249.44 1721.54,1249.94 
  1722.41,1250.43 1723.27,1250.93 1724.14,1251.43 1725,1251.93 1725.87,1252.43 1726.73,1252.93 1727.6,1253.43 1728.47,1253.93 1729.33,1254.43 1730.2,1254.93 
  1731.06,1255.42 1731.93,1255.92 1732.79,1256.36 1733.66,1256.73 1734.52,1257.09 1735.39,1257.46 1736.25,1257.82 1737.12,1258.18 1737.98,1258.55 1738.85,1258.91 
  1739.72,1259.27 1740.58,1259.64 1741.45,1260 1742.31,1260.36 1743.18,1260.73 1744.04,1261.09 1744.91,1261.46 1745.77,1261.82 1746.64,1262.14 1747.5,1262.4 
  1748.37,1262.66 1749.23,1262.92 1750.1,1263.18 1750.97,1263.44 1751.83,1263.7 1752.7,1263.96 1753.56,1264.22 1754.43,1264.48 1755.29,1264.74 1756.16,1265 
  1757.02,1265.26 1757.89,1265.52 1758.75,1265.78 1759.62,1266.05 1760.48,1266.27 1761.35,1266.45 1762.22,1266.64 1763.08,1266.82 1763.95,1267 1764.81,1267.19 
  1765.68,1267.37 1766.54,1267.55 1767.41,1267.74 1768.27,1267.92 1769.14,1268.11 1770,1268.29 1770.87,1268.47 1771.73,1268.66 1772.6,1268.84 1773.47,1269.02 
  1774.33,1269.18 1775.2,1269.31 1776.06,1269.43 1776.93,1269.56 1777.79,1269.69 1778.66,1269.81 1779.52,1269.94 1780.39,1270.07 1781.25,1270.19 1782.12,1270.32 
  1782.98,1270.45 1783.85,1270.58 1784.71,1270.7 1785.58,1270.83 1786.45,1270.96 1787.31,1271.08 1788.18,1271.19 1789.04,1271.28 1789.91,1271.36 1790.77,1271.45 
  1791.64,1271.54 1792.5,1271.62 1793.37,1271.71 1794.23,1271.8 1795.1,1271.88 1795.96,1271.97 1796.83,1272.05 1797.7,1272.14 1798.56,1272.23 1799.43,1272.31 
  1800.29,1272.4 1801.16,1272.49 1802.02,1272.56 1802.89,1272.62 1803.75,1272.67 1804.62,1272.73 1805.48,1272.79 1806.35,1272.85 1807.21,1272.91 1808.08,1272.96 
  1808.95,1273.02 1809.81,1273.08 1810.68,1273.14 1811.54,1273.19 1812.41,1273.25 1813.27,1273.31 1814.14,1273.37 1815,1273.43 1815.87,1273.47 1816.73,1273.51 
  1817.6,1273.55 1818.46,1273.59 1819.33,1273.63 1820.2,1273.66 1821.06,1273.7 1821.93,1273.74 1822.79,1273.78 1823.66,1273.82 1824.52,1273.85 1825.39,1273.89 
  1826.25,1273.93 1827.12,1273.97 1827.98,1274.01 1828.85,1274.04 1829.71,1274.07 1830.58,1274.1 1831.45,1274.12 1832.31,1274.15 1833.18,1274.17 1834.04,1274.2 
  1834.91,1274.22 1835.77,1274.25 1836.64,1274.27 1837.5,1274.3 1838.37,1274.32 1839.23,1274.34 1840.1,1274.37 1840.96,1274.39 1841.83,1274.42 1842.7,1274.44 
  1843.56,1274.46 1844.43,1274.48 1845.29,1274.49 1846.16,1274.51 1847.02,1274.53 1847.89,1274.54 1848.75,1274.56 1849.62,1274.57 1850.48,1274.59 1851.35,1274.6 
  1852.21,1274.62 1853.08,1274.64 1853.94,1274.65 1854.81,1274.67 1855.68,1274.68 1856.54,1274.7 1857.41,1274.71 1858.27,1274.72 1859.14,1274.73 1860,1274.74 
  1860.87,1274.75 1861.73,1274.76 1862.6,1274.77 1863.46,1274.78 1864.33,1274.79 1865.19,1274.8 1866.06,1274.81 1866.93,1274.82 1867.79,1274.83 1868.66,1274.84 
  1869.52,1274.85 1870.39,1274.86 1871.25,1274.86 1872.12,1274.87 1872.98,1274.88 1873.85,1274.88 1874.71,1274.89 1875.58,1274.89 1876.44,1274.9 1877.31,1274.91 
  1878.18,1274.91 1879.04,1274.92 1879.91,1274.92 1880.77,1274.93 1881.64,1274.94 1882.5,1274.94 1883.37,1274.95 1884.23,1274.95 1885.1,1274.96 1885.96,1274.96 
  1886.83,1274.97 1887.69,1274.97 1888.56,1274.97 1889.43,1274.98 1890.29,1274.98 1891.16,1274.99 1892.02,1274.99 1892.89,1274.99 1893.75,1275 1894.62,1275 
  1895.48,1275 1896.35,1275.01 1897.21,1275.01 1898.08,1275.01 1898.94,1275.02 1899.81,1275.02 1900.68,1275.02 1901.54,1275.02 1902.41,1275.03 1903.27,1275.03 
  1904.14,1275.03 1905,1275.03 1905.87,1275.03 1906.73,1275.04 1907.6,1275.04 1908.46,1275.04 1909.33,1275.04 1910.19,1275.05 1911.06,1275.05 1911.93,1275.05 
  1912.79,1275.05 1913.66,1275.05 1914.52,1275.05 1915.39,1275.06 1916.25,1275.06 1917.12,1275.06 1917.98,1275.06 1918.85,1275.06 1919.71,1275.06 1920.58,1275.06 
  1921.44,1275.06 1922.31,1275.07 1923.17,1275.07 1924.04,1275.07 1924.91,1275.07 1925.77,1275.07 1926.64,1275.07 1927.5,1275.07 1928.37,1275.07 1929.23,1275.07 
  1930.1,1275.07 1930.96,1275.07 1931.83,1275.08 1932.69,1275.08 1933.56,1275.08 1934.42,1275.08 1935.29,1275.08 1936.16,1275.08 1937.02,1275.08 1937.89,1275.08 
  1938.75,1275.08 1939.62,1275.08 1940.48,1275.08 1941.35,1275.08 1942.21,1275.08 1943.08,1275.08 1943.94,1275.08 1944.81,1275.08 1945.67,1275.09 1946.54,1275.09 
  1947.41,1275.09 1948.27,1275.09 1949.14,1275.09 1950,1275.09 1950.87,1275.09 1951.73,1275.09 1952.6,1275.09 1953.46,1275.09 1954.33,1275.09 1955.19,1275.09 
  1956.06,1275.09 1956.92,1275.09 1957.79,1275.09 1958.66,1275.09 1959.52,1275.09 1960.39,1275.09 1961.25,1275.09 1962.12,1275.09 1962.98,1275.09 1963.85,1275.09 
  1964.71,1275.09 1965.58,1275.09 1966.44,1275.09 1967.31,1275.09 1968.17,1275.09 1969.04,1275.09 1969.91,1275.09 1970.77,1275.09 1971.64,1275.09 1972.5,1275.09 
  1973.37,1275.09 1974.23,1275.09 1975.1,1275.09 1975.96,1275.09 1976.83,1275.09 1977.69,1275.09 1978.56,1275.09 1979.42,1275.09 1980.29,1275.09 1981.16,1275.09 
  1982.02,1275.09 1982.89,1275.09 1983.75,1275.1 1984.62,1275.1 1985.48,1275.1 1986.35,1275.1 1987.21,1275.1 1988.08,1275.1 1988.94,1275.1 1989.81,1275.1 
  1990.67,1275.1 1991.54,1275.1 1992.4,1275.1 1993.27,1275.1 1994.14,1275.1 1995,1275.1 1995.87,1275.1 1996.73,1275.1 1997.6,1275.1 1998.46,1275.1 
  1999.33,1275.1 2000.19,1275.1 2001.06,1275.1 2001.92,1275.1 2002.79,1275.1 2003.65,1275.1 2004.52,1275.1 2005.39,1275.1 2006.25,1275.1 2007.12,1275.1 
  2007.98,1275.1 2008.85,1275.1 2009.71,1275.1 2010.58,1275.1 2011.44,1275.1 2012.31,1275.1 2013.17,1275.1 2014.04,1275.1 2014.9,1275.1 2015.77,1275.1 
  2016.64,1275.1 2017.5,1275.1 2018.37,1275.1 2019.23,1275.1 2020.1,1275.1 2020.96,1275.1 2021.83,1275.1 2022.69,1275.1 2023.56,1275.1 2024.42,1275.1 
  2025.29,1275.1 2026.15,1275.1 2027.02,1275.1 2027.89,1275.1 2028.75,1275.1 2029.62,1275.1 2030.48,1275.1 2031.35,1275.1 2032.21,1275.1 2033.08,1275.1 
  2033.94,1275.1 2034.81,1275.1 2035.67,1275.1 2036.54,1275.1 2037.4,1275.1 2038.27,1275.1 2039.14,1275.1 2040,1275.1 2040.87,1275.1 2041.73,1275.1 
  2042.6,1275.1 2043.46,1275.1 2044.33,1275.1 2045.19,1275.1 2046.06,1275.1 2046.92,1275.1 2047.79,1275.1 2048.65,1275.1 2049.52,1275.1 2050.39,1275.1 
  2051.25,1275.1 2052.12,1275.1 2052.98,1275.1 2053.85,1275.1 2054.71,1275.1 2055.58,1275.1 2056.44,1275.1 2057.31,1275.1 2058.17,1275.1 2059.04,1275.1 
  2059.9,1275.1 2060.77,1275.1 2061.63,1275.1 2062.5,1275.1 2063.37,1275.1 2064.23,1275.1 2065.1,1275.1 2065.96,1275.1 2066.83,1275.1 2067.69,1275.1 
  2068.56,1275.1 2069.42,1275.1 2070.29,1275.1 2071.15,1275.1 2072.02,1275.1 2072.88,1275.1 2073.75,1275.1 2074.62,1275.1 2075.48,1275.1 2076.35,1275.1 
  2077.21,1275.1 2078.08,1275.1 2078.94,1275.1 2079.81,1275.1 2080.67,1275.1 2081.54,1275.1 2082.4,1275.1 2083.27,1275.1 2084.13,1275.1 2085,1275.1 
  2085.87,1275.1 2086.73,1275.1 2087.6,1275.1 2088.46,1275.1 2089.33,1275.1 2090.19,1275.1 2091.06,1275.1 2091.92,1275.1 2092.79,1275.1 2093.65,1275.1 
  2094.52,1275.1 2095.38,1275.1 2096.25,1275.1 2097.12,1275.1 2097.98,1275.1 2098.85,1275.1 2099.71,1275.1 2100.58,1275.1 2101.44,1275.1 2102.31,1275.1 
  2103.17,1275.1 2104.04,1275.1 2104.9,1275.1 2105.77,1275.1 2106.63,1275.1 2107.5,1275.1 2108.37,1275.1 2109.23,1275.1 2110.1,1275.1 2110.96,1275.1 
  2111.83,1275.1 2112.69,1275.1 2113.56,1275.1 2114.42,1275.1 2115.29,1275.1 2116.15,1275.1 2117.02,1275.1 2117.88,1275.1 2118.75,1275.1 2119.62,1275.1 
  2120.48,1275.1 2121.35,1275.1 2122.21,1275.1 2123.08,1275.1 2123.94,1275.1 2124.81,1275.1 2125.67,1275.1 2126.54,1275.1 2127.4,1275.1 2128.27,1275.1 
  2129.13,1275.1 2130,1275.1 2130.87,1275.1 2131.73,1275.1 2132.6,1275.1 2133.46,1275.1 2134.33,1275.1 2135.19,1275.1 2136.06,1275.1 2136.92,1275.1 
  2137.79,1275.1 2138.65,1275.1 2139.52,1275.1 2140.38,1275.1 2141.25,1275.1 2142.11,1275.1 2142.98,1275.1 2143.85,1275.1 2144.71,1275.1 2145.58,1275.1 
  2146.44,1275.1 2147.31,1275.1 2148.17,1275.1 2149.04,1275.1 2149.9,1275.1 2150.77,1275.1 2151.63,1275.1 2152.5,1275.1 2153.36,1275.1 2154.23,1275.1 
  2155.1,1275.1 2155.96,1275.1 2156.83,1275.1 2157.69,1275.1 2158.56,1275.1 2159.42,1275.1 2160.29,1275.1 2161.15,1275.1 2162.02,1275.1 2162.88,1275.1 
  2163.75,1275.1 2164.61,1275.1 2165.48,1275.1 2166.35,1275.1 2167.21,1275.1 2168.08,1275.1 2168.94,1275.1 2169.81,1275.1 2170.67,1275.1 2171.54,1275.1 
  2172.4,1275.1 2173.27,1275.1 2174.13,1275.1 2175,1275.1 2175.86,1275.1 2176.73,1275.1 2177.6,1275.1 2178.46,1275.1 2179.33,1275.1 2180.19,1275.1 
  2181.06,1275.1 2181.92,1275.1 2182.79,1275.1 2183.65,1275.1 2184.52,1275.1 2185.38,1275.1 2186.25,1275.1 2187.11,1275.1 2187.98,1275.1 2188.85,1275.1 
  2189.71,1275.1 2190.58,1275.1 2191.44,1275.1 2192.31,1275.1 2193.17,1275.1 2194.04,1275.1 2194.9,1275.1 2195.77,1275.1 2196.63,1275.1 2197.5,1275.1 
  2198.36,1275.1 2199.23,1275.1 2200.1,1275.1 2200.96,1275.1 2201.83,1275.1 2202.69,1275.1 2203.56,1275.1 2204.42,1275.1 2205.29,1275.1 2206.15,1275.1 
  2207.02,1275.1 2207.88,1275.1 2208.75,1275.1 2209.61,1275.1 2210.48,1275.1 2211.34,1275.1 2212.21,1275.1 2213.08,1275.1 2213.94,1275.1 2214.81,1275.1 
  2215.67,1275.1 2216.54,1275.1 2217.4,1275.1 2218.27,1275.1 2219.13,1275.1 2220,1275.1 2220.86,1275.1 2221.73,1275.1 2222.59,1275.1 2223.46,1275.1 
  2224.33,1275.1 2225.19,1275.1 2226.06,1275.1 2226.92,1275.1 2227.79,1275.1 2228.65,1275.1 2229.52,1275.1 2230.38,1275.1 2231.25,1275.1 2232.11,1275.1 
  2232.98,1275.1 2233.84,1275.1 2234.71,1275.1 2235.58,1275.1 2236.44,1275.1 2237.31,1275.1 2238.17,1275.1 2239.04,1275.1 2239.9,1275.1 2240.77,1275.1 
  2241.63,1275.1 2242.5,1275.1 2243.36,1275.1 2244.23,1275.1 2245.09,1275.1 2245.96,1275.1 2246.83,1275.1 2247.69,1275.1 2248.56,1275.1 2249.42,1275.1 
  2250.29,1275.1 2251.15,1275.1 2252.02,1275.1 2252.88,1275.1 2253.75,1275.1 2254.61,1275.1 2255.48,1275.1 2256.34,1275.1 2257.21,1275.1 2258.08,1275.1 
  2258.94,1275.1 2259.81,1275.1 2260.67,1275.1 2261.54,1275.1 2262.4,1275.1 2263.27,1275.1 2264.13,1275.1 2265,1275.1 2265.86,1275.1 2266.73,1275.1 
  2267.59,1275.1 2268.46,1275.1 2269.33,1275.1 2270.19,1275.1 2271.06,1275.1 2271.92,1275.1 2272.79,1275.1 2273.65,1275.1 2274.52,1275.1 2275.38,1275.1 
  2276.25,1275.1 2277.11,1275.1 2277.98,1275.1 2278.84,1275.1 2279.71,1275.1 2280.57,1275.1 2281.44,1275.1 2282.31,1275.1 2283.17,1275.1 2284.04,1275.1 
  2284.9,1275.1 2285.77,1275.1 2286.63,1275.1 2287.5,1275.1 2288.36,1275.1 2289.23,1275.1 2290.09,1275.1 2290.96,1275.1 2291.82,1275.1 2292.69,1275.1 
  2293.56,1275.1 2294.42,1275.1 2295.29,1275.1 2296.15,1275.1 2297.02,1275.1 2297.88,1275.1 2298.75,1275.1 2299.61,1275.1 
  "/>
</svg>
