<?xml version="1.0" encoding="utf-8"?>
<svg xmlns="http://www.w3.org/2000/svg" xmlns:xlink="http://www.w3.org/1999/xlink" width="600" height="400" viewBox="0 0 2400 1600">
<defs>
  <clipPath id="clip370">
    <rect x="0" y="0" width="2400" height="1600"/>
  </clipPath>
</defs>
<path clip-path="url(#clip370)" d="
M0 1600 L2400 1600 L2400 0 L0 0  Z
  " fill="#ffffff" fill-rule="evenodd" fill-opacity="1"/>
<defs>
  <clipPath id="clip371">
    <rect x="480" y="0" width="1681" height="1600"/>
  </clipPath>
</defs>
<path clip-path="url(#clip370)" d="
M361.94 1310.86 L2352.76 1310.86 L2352.76 47.2441 L361.94 47.2441  Z
  " fill="#ffffff" fill-rule="evenodd" fill-opacity="1"/>
<defs>
  <clipPath id="clip372">
    <rect x="361" y="47" width="1992" height="1265"/>
  </clipPath>
</defs>
<polyline clip-path="url(#clip372)" style="stroke:#000000; stroke-linecap:round; stroke-linejoin:round; stroke-width:2; stroke-opacity:0.1; fill:none" points="
  668.701,1310.86 668.701,47.2441 
  "/>
<polyline clip-path="url(#clip372)" style="stroke:#000000; stroke-linecap:round; stroke-linejoin:round; stroke-width:2; stroke-opacity:0.1; fill:none" points="
  1044.33,1310.86 1044.33,47.2441 
  "/>
<polyline clip-path="url(#clip372)" style="stroke:#000000; stroke-linecap:round; stroke-linejoin:round; stroke-width:2; stroke-opacity:0.1; fill:none" points="
  1419.95,1310.86 1419.95,47.2441 
  "/>
<polyline clip-path="url(#clip372)" style="stroke:#000000; stroke-linecap:round; stroke-linejoin:round; stroke-width:2; stroke-opacity:0.1; fill:none" points="
  1795.58,1310.86 1795.58,47.2441 
  "/>
<polyline clip-path="url(#clip372)" style="stroke:#000000; stroke-linecap:round; stroke-linejoin:round; stroke-width:2; stroke-opacity:0.1; fill:none" points="
  2171.2,1310.86 2171.2,47.2441 
  "/>
<polyline clip-path="url(#clip370)" style="stroke:#000000; stroke-linecap:round; stroke-linejoin:round; stroke-width:4; stroke-opacity:1; fill:none" points="
  361.94,1310.86 2352.76,1310.86 
  "/>
<polyline clip-path="url(#clip370)" style="stroke:#000000; stroke-linecap:round; stroke-linejoin:round; stroke-width:4; stroke-opacity:1; fill:none" points="
  668.701,1310.86 668.701,1291.96 
  "/>
<polyline clip-path="url(#clip370)" style="stroke:#000000; stroke-linecap:round; stroke-linejoin:round; stroke-width:4; stroke-opacity:1; fill:none" points="
  1044.33,1310.86 1044.33,1291.96 
  "/>
<polyline clip-path="url(#clip370)" style="stroke:#000000; stroke-linecap:round; stroke-linejoin:round; stroke-width:4; stroke-opacity:1; fill:none" points="
  1419.95,1310.86 1419.95,1291.96 
  "/>
<polyline clip-path="url(#clip370)" style="stroke:#000000; stroke-linecap:round; stroke-linejoin:round; stroke-width:4; stroke-opacity:1; fill:none" points="
  1795.58,1310.86 1795.58,1291.96 
  "/>
<polyline clip-path="url(#clip370)" style="stroke:#000000; stroke-linecap:round; stroke-linejoin:round; stroke-width:4; stroke-opacity:1; fill:none" points="
  2171.2,1310.86 2171.2,1291.96 
  "/>
<path clip-path="url(#clip370)" d="M610.694 1379.51 L666.336 1379.51 L666.336 1386.88 L610.694 1386.88 L610.694 1379.51 Z" fill="#000000" fill-rule="evenodd" fill-opacity="1" /><path clip-path="url(#clip370)" d="M705.094 1375.17 Q699.191 1375.17 695.719 1379.2 Q692.29 1383.24 692.29 1390.27 Q692.29 1397.26 695.719 1401.34 Q699.191 1405.37 705.094 1405.37 Q710.997 1405.37 714.426 1401.34 Q717.898 1397.26 717.898 1390.27 Q717.898 1383.24 714.426 1379.2 Q710.997 1375.17 705.094 1375.17 M722.499 1347.69 L722.499 1355.68 Q719.2 1354.12 715.815 1353.29 Q712.473 1352.47 709.174 1352.47 Q700.493 1352.47 695.893 1358.33 Q691.336 1364.19 690.684 1376.03 Q693.245 1372.26 697.108 1370.26 Q700.971 1368.22 705.615 1368.22 Q715.381 1368.22 721.023 1374.17 Q726.709 1380.07 726.709 1390.27 Q726.709 1400.25 720.806 1406.29 Q714.903 1412.32 705.094 1412.32 Q693.853 1412.32 687.907 1403.72 Q681.961 1395.09 681.961 1378.72 Q681.961 1363.36 689.252 1354.25 Q696.544 1345.09 708.827 1345.09 Q712.125 1345.09 715.467 1345.74 Q718.853 1346.39 722.499 1347.69 Z" fill="#000000" fill-rule="evenodd" fill-opacity="1" /><path clip-path="url(#clip370)" d="M987.079 1379.51 L1042.72 1379.51 L1042.72 1386.88 L987.079 1386.88 L987.079 1379.51 Z" fill="#000000" fill-rule="evenodd" fill-opacity="1" /><path clip-path="url(#clip370)" d="M1088.21 1376.12 Q1094.5 1377.47 1098.02 1381.72 Q1101.57 1385.97 1101.57 1392.22 Q1101.57 1401.82 1094.98 1407.07 Q1088.38 1412.32 1076.23 1412.32 Q1072.15 1412.32 1067.81 1411.49 Q1063.51 1410.71 1058.91 1409.11 L1058.91 1400.64 Q1062.56 1402.77 1066.9 1403.86 Q1071.24 1404.94 1075.97 1404.94 Q1084.21 1404.94 1088.51 1401.68 Q1092.85 1398.43 1092.85 1392.22 Q1092.85 1386.49 1088.81 1383.28 Q1084.82 1380.03 1077.66 1380.03 L1070.11 1380.03 L1070.11 1372.82 L1078.01 1372.82 Q1084.47 1372.82 1087.9 1370.26 Q1091.33 1367.66 1091.33 1362.8 Q1091.33 1357.8 1087.77 1355.16 Q1084.26 1352.47 1077.66 1352.47 Q1074.06 1352.47 1069.93 1353.25 Q1065.81 1354.03 1060.86 1355.68 L1060.86 1347.87 Q1065.85 1346.48 1070.19 1345.78 Q1074.58 1345.09 1078.44 1345.09 Q1088.42 1345.09 1094.24 1349.65 Q1100.06 1354.16 1100.06 1361.88 Q1100.06 1367.27 1096.97 1371 Q1093.89 1374.69 1088.21 1376.12 Z" fill="#000000" fill-rule="evenodd" fill-opacity="1" /><path clip-path="url(#clip370)" d="M1419.95 1352.03 Q1413.18 1352.03 1409.75 1358.72 Q1406.37 1365.36 1406.37 1378.72 Q1406.37 1392.05 1409.75 1398.73 Q1413.18 1405.37 1419.95 1405.37 Q1426.77 1405.37 1430.15 1398.73 Q1433.58 1392.05 1433.58 1378.72 Q1433.58 1365.36 1430.15 1358.72 Q1426.77 1352.03 1419.95 1352.03 M1419.95 1345.09 Q1430.85 1345.09 1436.58 1353.73 Q1442.35 1362.32 1442.35 1378.72 Q1442.35 1395.09 1436.58 1403.72 Q1430.85 1412.32 1419.95 1412.32 Q1409.06 1412.32 1403.29 1403.72 Q1397.56 1395.09 1397.56 1378.72 Q1397.56 1362.32 1403.29 1353.73 Q1409.06 1345.09 1419.95 1345.09 Z" fill="#000000" fill-rule="evenodd" fill-opacity="1" /><path clip-path="url(#clip370)" d="M1803.54 1376.12 Q1809.84 1377.47 1813.35 1381.72 Q1816.91 1385.97 1816.91 1392.22 Q1816.91 1401.82 1810.31 1407.07 Q1803.72 1412.32 1791.56 1412.32 Q1787.48 1412.32 1783.14 1411.49 Q1778.85 1410.71 1774.25 1409.11 L1774.25 1400.64 Q1777.89 1402.77 1782.23 1403.86 Q1786.57 1404.94 1791.3 1404.94 Q1799.55 1404.94 1803.85 1401.68 Q1808.19 1398.43 1808.19 1392.22 Q1808.19 1386.49 1804.15 1383.28 Q1800.16 1380.03 1793 1380.03 L1785.44 1380.03 L1785.44 1372.82 L1793.34 1372.82 Q1799.81 1372.82 1803.24 1370.26 Q1806.67 1367.66 1806.67 1362.8 Q1806.67 1357.8 1803.11 1355.16 Q1799.59 1352.47 1793 1352.47 Q1789.39 1352.47 1785.27 1353.25 Q1781.15 1354.03 1776.2 1355.68 L1776.2 1347.87 Q1781.19 1346.48 1785.53 1345.78 Q1789.91 1345.09 1793.78 1345.09 Q1803.76 1345.09 1809.58 1349.65 Q1815.39 1354.16 1815.39 1361.88 Q1815.39 1367.27 1812.31 1371 Q1809.23 1374.69 1803.54 1376.12 Z" fill="#000000" fill-rule="evenodd" fill-opacity="1" /><path clip-path="url(#clip370)" d="M2171.96 1375.17 Q2166.06 1375.17 2162.59 1379.2 Q2159.16 1383.24 2159.16 1390.27 Q2159.16 1397.26 2162.59 1401.34 Q2166.06 1405.37 2171.96 1405.37 Q2177.87 1405.37 2181.29 1401.34 Q2184.77 1397.26 2184.77 1390.27 Q2184.77 1383.24 2181.29 1379.2 Q2177.87 1375.17 2171.96 1375.17 M2189.37 1347.69 L2189.37 1355.68 Q2186.07 1354.12 2182.68 1353.29 Q2179.34 1352.47 2176.04 1352.47 Q2167.36 1352.47 2162.76 1358.33 Q2158.2 1364.19 2157.55 1376.03 Q2160.11 1372.26 2163.98 1370.26 Q2167.84 1368.22 2172.48 1368.22 Q2182.25 1368.22 2187.89 1374.17 Q2193.58 1380.07 2193.58 1390.27 Q2193.58 1400.25 2187.67 1406.29 Q2181.77 1412.32 2171.96 1412.32 Q2160.72 1412.32 2154.78 1403.72 Q2148.83 1395.09 2148.83 1378.72 Q2148.83 1363.36 2156.12 1354.25 Q2163.41 1345.09 2175.7 1345.09 Q2178.99 1345.09 2182.34 1345.74 Q2185.72 1346.39 2189.37 1347.69 Z" fill="#000000" fill-rule="evenodd" fill-opacity="1" /><path clip-path="url(#clip370)" d="M1402.66 1502.36 L1367.5 1549.67 L1404.48 1599.58 L1385.65 1599.58 L1357.35 1561.39 L1329.05 1599.58 L1310.21 1599.58 L1347.97 1548.71 L1313.42 1502.36 L1332.26 1502.36 L1358.04 1536.99 L1383.82 1502.36 L1402.66 1502.36 Z" fill="#000000" fill-rule="evenodd" fill-opacity="1" /><polyline clip-path="url(#clip372)" style="stroke:#000000; stroke-linecap:round; stroke-linejoin:round; stroke-width:2; stroke-opacity:0.1; fill:none" points="
  361.94,1275.1 2352.76,1275.1 
  "/>
<polyline clip-path="url(#clip372)" style="stroke:#000000; stroke-linecap:round; stroke-linejoin:round; stroke-width:2; stroke-opacity:0.1; fill:none" points="
  361.94,925.864 2352.76,925.864 
  "/>
<polyline clip-path="url(#clip372)" style="stroke:#000000; stroke-linecap:round; stroke-linejoin:round; stroke-width:2; stroke-opacity:0.1; fill:none" points="
  361.94,576.63 2352.76,576.63 
  "/>
<polyline clip-path="url(#clip372)" style="stroke:#000000; stroke-linecap:round; stroke-linejoin:round; stroke-width:2; stroke-opacity:0.1; fill:none" points="
  361.94,227.397 2352.76,227.397 
  "/>
<polyline clip-path="url(#clip370)" style="stroke:#000000; stroke-linecap:round; stroke-linejoin:round; stroke-width:4; stroke-opacity:1; fill:none" points="
  361.94,1310.86 361.94,47.2441 
  "/>
<polyline clip-path="url(#clip370)" style="stroke:#000000; stroke-linecap:round; stroke-linejoin:round; stroke-width:4; stroke-opacity:1; fill:none" points="
  361.94,1275.1 380.838,1275.1 
  "/>
<polyline clip-path="url(#clip370)" style="stroke:#000000; stroke-linecap:round; stroke-linejoin:round; stroke-width:4; stroke-opacity:1; fill:none" points="
  361.94,925.864 380.838,925.864 
  "/>
<polyline clip-path="url(#clip370)" style="stroke:#000000; stroke-linecap:round; stroke-linejoin:round; stroke-width:4; stroke-opacity:1; fill:none" points="
  361.94,576.63 380.838,576.63 
  "/>
<polyline clip-path="url(#clip370)" style="stroke:#000000; stroke-linecap:round; stroke-linejoin:round; stroke-width:4; stroke-opacity:1; fill:none" points="
  361.94,227.397 380.838,227.397 
  "/>
<path clip-path="url(#clip370)" d="M218.736 1248.47 Q211.965 1248.47 208.536 1255.15 Q205.151 1261.79 205.151 1275.16 Q205.151 1288.49 208.536 1295.17 Q211.965 1301.81 218.736 1301.81 Q225.55 1301.81 228.935 1295.17 Q232.364 1288.49 232.364 1275.16 Q232.364 1261.79 228.935 1255.15 Q225.55 1248.47 218.736 1248.47 M218.736 1241.53 Q229.63 1241.53 235.359 1250.16 Q241.132 1258.76 241.132 1275.16 Q241.132 1291.52 235.359 1300.16 Q229.63 1308.76 218.736 1308.76 Q207.842 1308.76 202.069 1300.16 Q196.34 1291.52 196.34 1275.16 Q196.34 1258.76 202.069 1250.16 Q207.842 1241.53 218.736 1241.53 Z" fill="#000000" fill-rule="evenodd" fill-opacity="1" /><path clip-path="url(#clip370)" d="M256.539 1296.47 L265.697 1296.47 L265.697 1307.5 L256.539 1307.5 L256.539 1296.47 Z" fill="#000000" fill-rule="evenodd" fill-opacity="1" /><path clip-path="url(#clip370)" d="M303.544 1248.47 Q296.774 1248.47 293.345 1255.15 Q289.959 1261.79 289.959 1275.16 Q289.959 1288.49 293.345 1295.17 Q296.774 1301.81 303.544 1301.81 Q310.359 1301.81 313.744 1295.17 Q317.173 1288.49 317.173 1275.16 Q317.173 1261.79 313.744 1255.15 Q310.359 1248.47 303.544 1248.47 M303.544 1241.53 Q314.438 1241.53 320.168 1250.16 Q325.94 1258.76 325.94 1275.16 Q325.94 1291.52 320.168 1300.16 Q314.438 1308.76 303.544 1308.76 Q292.65 1308.76 286.878 1300.16 Q281.149 1291.52 281.149 1275.16 Q281.149 1258.76 286.878 1250.16 Q292.65 1241.53 303.544 1241.53 Z" fill="#000000" fill-rule="evenodd" fill-opacity="1" /><path clip-path="url(#clip370)" d="M221.036 899.236 Q214.265 899.236 210.837 905.92 Q207.451 912.561 207.451 925.929 Q207.451 939.253 210.837 945.937 Q214.265 952.578 221.036 952.578 Q227.85 952.578 231.236 945.937 Q234.665 939.253 234.665 925.929 Q234.665 912.561 231.236 905.92 Q227.85 899.236 221.036 899.236 M221.036 892.292 Q231.93 892.292 237.659 900.929 Q243.432 909.523 243.432 925.929 Q243.432 942.291 237.659 950.929 Q231.93 959.522 221.036 959.522 Q210.142 959.522 204.37 950.929 Q198.64 942.291 198.64 925.929 Q198.64 909.523 204.37 900.929 Q210.142 892.292 221.036 892.292 Z" fill="#000000" fill-rule="evenodd" fill-opacity="1" /><path clip-path="url(#clip370)" d="M258.84 947.239 L267.998 947.239 L267.998 958.264 L258.84 958.264 L258.84 947.239 Z" fill="#000000" fill-rule="evenodd" fill-opacity="1" /><path clip-path="url(#clip370)" d="M288.614 950.885 L302.937 950.885 L302.937 901.45 L287.355 904.575 L287.355 896.589 L302.85 893.464 L311.617 893.464 L311.617 950.885 L325.94 950.885 L325.94 958.264 L288.614 958.264 L288.614 950.885 Z" fill="#000000" fill-rule="evenodd" fill-opacity="1" /><path clip-path="url(#clip370)" d="M221.731 550.003 Q214.96 550.003 211.531 556.687 Q208.146 563.327 208.146 576.695 Q208.146 590.02 211.531 596.704 Q214.96 603.344 221.731 603.344 Q228.545 603.344 231.93 596.704 Q235.359 590.02 235.359 576.695 Q235.359 563.327 231.93 556.687 Q228.545 550.003 221.731 550.003 M221.731 543.058 Q232.625 543.058 238.354 551.695 Q244.126 560.289 244.126 576.695 Q244.126 593.058 238.354 601.695 Q232.625 610.289 221.731 610.289 Q210.837 610.289 205.064 601.695 Q199.335 593.058 199.335 576.695 Q199.335 560.289 205.064 551.695 Q210.837 543.058 221.731 543.058 Z" fill="#000000" fill-rule="evenodd" fill-opacity="1" /><path clip-path="url(#clip370)" d="M259.534 598.006 L268.692 598.006 L268.692 609.03 L259.534 609.03 L259.534 598.006 Z" fill="#000000" fill-rule="evenodd" fill-opacity="1" /><path clip-path="url(#clip370)" d="M295.341 601.652 L325.94 601.652 L325.94 609.03 L284.795 609.03 L284.795 601.652 Q289.786 596.487 298.38 587.806 Q307.017 579.082 309.23 576.565 Q313.44 571.834 315.09 568.579 Q316.782 565.28 316.782 562.112 Q316.782 556.947 313.136 553.692 Q309.534 550.437 303.718 550.437 Q299.595 550.437 294.994 551.869 Q290.437 553.301 285.229 556.209 L285.229 547.355 Q290.524 545.228 295.124 544.143 Q299.725 543.058 303.544 543.058 Q313.614 543.058 319.603 548.093 Q325.593 553.128 325.593 561.548 Q325.593 565.541 324.074 569.143 Q322.598 572.702 318.649 577.563 Q317.563 578.822 311.748 584.855 Q305.932 590.844 295.341 601.652 Z" fill="#000000" fill-rule="evenodd" fill-opacity="1" /><path clip-path="url(#clip370)" d="M219.951 200.769 Q213.18 200.769 209.752 207.453 Q206.366 214.094 206.366 227.462 Q206.366 240.786 209.752 247.47 Q213.18 254.111 219.951 254.111 Q226.765 254.111 230.151 247.47 Q233.58 240.786 233.58 227.462 Q233.58 214.094 230.151 207.453 Q226.765 200.769 219.951 200.769 M219.951 193.825 Q230.845 193.825 236.574 202.462 Q242.347 211.055 242.347 227.462 Q242.347 243.824 236.574 252.461 Q230.845 261.055 219.951 261.055 Q209.057 261.055 203.285 252.461 Q197.555 243.824 197.555 227.462 Q197.555 211.055 203.285 202.462 Q209.057 193.825 219.951 193.825 Z" fill="#000000" fill-rule="evenodd" fill-opacity="1" /><path clip-path="url(#clip370)" d="M257.755 248.772 L266.913 248.772 L266.913 259.797 L257.755 259.797 L257.755 248.772 Z" fill="#000000" fill-rule="evenodd" fill-opacity="1" /><path clip-path="url(#clip370)" d="M312.572 224.857 Q318.866 226.203 322.381 230.456 Q325.94 234.71 325.94 240.96 Q325.94 250.552 319.343 255.803 Q312.746 261.055 300.593 261.055 Q296.513 261.055 292.173 260.231 Q287.876 259.449 283.275 257.843 L283.275 249.38 Q286.921 251.507 291.262 252.592 Q295.602 253.677 300.333 253.677 Q308.579 253.677 312.876 250.422 Q317.216 247.166 317.216 240.96 Q317.216 235.231 313.18 232.019 Q309.187 228.764 302.025 228.764 L294.473 228.764 L294.473 221.559 L302.373 221.559 Q308.84 221.559 312.268 218.998 Q315.697 216.394 315.697 211.533 Q315.697 206.542 312.138 203.894 Q308.623 201.203 302.025 201.203 Q298.423 201.203 294.3 201.984 Q290.176 202.766 285.229 204.415 L285.229 196.602 Q290.22 195.214 294.56 194.519 Q298.944 193.825 302.807 193.825 Q312.789 193.825 318.605 198.382 Q324.421 202.896 324.421 210.621 Q324.421 216.003 321.339 219.736 Q318.258 223.425 312.572 224.857 Z" fill="#000000" fill-rule="evenodd" fill-opacity="1" /><path clip-path="url(#clip370)" d="M106.877 862.211 L158.439 862.211 L158.439 878.27 L24.2385 878.27 L24.2385 862.211 L38.9953 862.211 Q30.3148 857.176 26.1482 849.537 Q21.8947 841.812 21.8947 831.134 Q21.8947 813.426 35.9571 802.402 Q50.0196 791.291 72.9361 791.291 Q95.8527 791.291 109.915 802.402 Q123.978 813.426 123.978 831.134 Q123.978 841.812 119.811 849.537 Q115.557 857.176 106.877 862.211 M72.9361 807.871 Q55.3147 807.871 45.3321 815.162 Q35.2627 822.367 35.2627 835.041 Q35.2627 847.714 45.3321 855.006 Q55.3147 862.211 72.9361 862.211 Q90.5575 862.211 100.627 855.006 Q110.61 847.714 110.61 835.041 Q110.61 822.367 100.627 815.162 Q90.5575 807.871 72.9361 807.871 Z" fill="#000000" fill-rule="evenodd" fill-opacity="1" /><path clip-path="url(#clip370)" d="M39.1689 708.479 Q37.6064 711.17 36.912 714.382 Q36.1308 717.507 36.1308 721.326 Q36.1308 734.868 44.9849 742.159 Q53.7522 749.364 70.2452 749.364 L121.46 749.364 L121.46 765.423 L24.2385 765.423 L24.2385 749.364 L39.3425 749.364 Q30.4884 744.329 26.235 736.257 Q21.8947 728.184 21.8947 716.639 Q21.8947 714.989 22.1551 712.993 Q22.3287 710.996 22.7628 708.566 L39.1689 708.479 Z" fill="#000000" fill-rule="evenodd" fill-opacity="1" /><path clip-path="url(#clip370)" d="M-13.435 653.358 Q6.53022 664.99 26.0614 670.632 Q45.5925 676.274 65.6445 676.274 Q85.6965 676.274 105.401 670.632 Q125.019 664.903 144.898 653.358 L144.898 667.246 Q124.498 680.267 104.794 686.778 Q85.0888 693.201 65.6445 693.201 Q46.2869 693.201 26.669 686.778 Q7.05105 680.354 -13.435 667.246 L-13.435 653.358 Z" fill="#000000" fill-rule="evenodd" fill-opacity="1" /><path clip-path="url(#clip370)" d="M24.2385 541.553 L71.5472 576.709 L121.46 539.73 L121.46 558.567 L83.2659 586.865 L121.46 615.163 L121.46 634 L70.5924 596.24 L24.2385 630.788 L24.2385 611.952 L58.8737 586.171 L24.2385 560.389 L24.2385 541.553 Z" fill="#000000" fill-rule="evenodd" fill-opacity="1" /><path clip-path="url(#clip370)" d="M-13.435 519.678 L-13.435 505.789 Q7.05105 492.768 26.669 486.345 Q46.2869 479.834 65.6445 479.834 Q85.0888 479.834 104.794 486.345 Q124.498 492.768 144.898 505.789 L144.898 519.678 Q125.019 508.133 105.401 502.49 Q85.6965 496.761 65.6445 496.761 Q45.5925 496.761 26.0614 502.49 Q6.53022 508.133 -13.435 519.678 Z" fill="#000000" fill-rule="evenodd" fill-opacity="1" /><polyline clip-path="url(#clip372)" style="stroke:#009af9; stroke-linecap:round; stroke-linejoin:round; stroke-width:4; stroke-opacity:1; fill:none" points="
  418.284,1275.1 543.493,1212.73 668.701,1150.37 793.91,1088.01 919.118,1025.64 1044.33,963.281 1169.54,900.918 1294.74,838.555 1419.95,838.555 1545.16,900.918 
  1670.37,963.281 1795.58,1025.64 1920.79,1088.01 2045.99,1150.37 2171.2,1212.73 2296.41,1275.1 
  "/>
<circle clip-path="url(#clip372)" cx="418.284" cy="1275.1" r="14.4" fill="#009af9" fill-rule="evenodd" fill-opacity="1" stroke="#000000" stroke-opacity="1" stroke-width="3.2"/>
<circle clip-path="url(#clip372)" cx="543.493" cy="1212.73" r="14.4" fill="#009af9" fill-rule="evenodd" fill-opacity="1" stroke="#000000" stroke-opacity="1" stroke-width="3.2"/>
<circle clip-path="url(#clip372)" cx="668.701" cy="1150.37" r="14.4" fill="#009af9" fill-rule="evenodd" fill-opacity="1" stroke="#000000" stroke-opacity="1" stroke-width="3.2"/>
<circle clip-path="url(#clip372)" cx="793.91" cy="1088.01" r="14.4" fill="#009af9" fill-rule="evenodd" fill-opacity="1" stroke="#000000" stroke-opacity="1" stroke-width="3.2"/>
<circle clip-path="url(#clip372)" cx="919.118" cy="1025.64" r="14.4" fill="#009af9" fill-rule="evenodd" fill-opacity="1" stroke="#000000" stroke-opacity="1" stroke-width="3.2"/>
<circle clip-path="url(#clip372)" cx="1044.33" cy="963.281" r="14.4" fill="#009af9" fill-rule="evenodd" fill-opacity="1" stroke="#000000" stroke-opacity="1" stroke-width="3.2"/>
<circle clip-path="url(#clip372)" cx="1169.54" cy="900.918" r="14.4" fill="#009af9" fill-rule="evenodd" fill-opacity="1" stroke="#000000" stroke-opacity="1" stroke-width="3.2"/>
<circle clip-path="url(#clip372)" cx="1294.74" cy="838.555" r="14.4" fill="#009af9" fill-rule="evenodd" fill-opacity="1" stroke="#000000" stroke-opacity="1" stroke-width="3.2"/>
<circle clip-path="url(#clip372)" cx="1419.95" cy="838.555" r="14.4" fill="#009af9" fill-rule="evenodd" fill-opacity="1" stroke="#000000" stroke-opacity="1" stroke-width="3.2"/>
<circle clip-path="url(#clip372)" cx="1545.16" cy="900.918" r="14.4" fill="#009af9" fill-rule="evenodd" fill-opacity="1" stroke="#000000" stroke-opacity="1" stroke-width="3.2"/>
<circle clip-path="url(#clip372)" cx="1670.37" cy="963.281" r="14.4" fill="#009af9" fill-rule="evenodd" fill-opacity="1" stroke="#000000" stroke-opacity="1" stroke-width="3.2"/>
<circle clip-path="url(#clip372)" cx="1795.58" cy="1025.64" r="14.4" fill="#009af9" fill-rule="evenodd" fill-opacity="1" stroke="#000000" stroke-opacity="1" stroke-width="3.2"/>
<circle clip-path="url(#clip372)" cx="1920.79" cy="1088.01" r="14.4" fill="#009af9" fill-rule="evenodd" fill-opacity="1" stroke="#000000" stroke-opacity="1" stroke-width="3.2"/>
<circle clip-path="url(#clip372)" cx="2045.99" cy="1150.37" r="14.4" fill="#009af9" fill-rule="evenodd" fill-opacity="1" stroke="#000000" stroke-opacity="1" stroke-width="3.2"/>
<circle clip-path="url(#clip372)" cx="2171.2" cy="1212.73" r="14.4" fill="#009af9" fill-rule="evenodd" fill-opacity="1" stroke="#000000" stroke-opacity="1" stroke-width="3.2"/>
<circle clip-path="url(#clip372)" cx="2296.41" cy="1275.1" r="14.4" fill="#009af9" fill-rule="evenodd" fill-opacity="1" stroke="#000000" stroke-opacity="1" stroke-width="3.2"/>
<polyline clip-path="url(#clip372)" style="stroke:#e26f46; stroke-linecap:round; stroke-linejoin:round; stroke-width:4; stroke-opacity:1; fill:none" points="
  418.284,1275.1 543.493,1275.08 668.701,1275.06 793.91,1275.04 919.118,1271.74 1044.33,982.968 1169.54,694.198 1294.74,405.427 1419.95,405.427 1545.16,694.198 
  1670.37,982.968 1795.58,1271.74 1920.79,1275.04 2045.99,1275.06 2171.2,1275.08 2296.41,1275.1 
  "/>
<circle clip-path="url(#clip372)" cx="418.284" cy="1275.1" r="14.4" fill="#e26f46" fill-rule="evenodd" fill-opacity="1" stroke="#000000" stroke-opacity="1" stroke-width="3.2"/>
<circle clip-path="url(#clip372)" cx="543.493" cy="1275.08" r="14.4" fill="#e26f46" fill-rule="evenodd" fill-opacity="1" stroke="#000000" stroke-opacity="1" stroke-width="3.2"/>
<circle clip-path="url(#clip372)" cx="668.701" cy="1275.06" r="14.4" fill="#e26f46" fill-rule="evenodd" fill-opacity="1" stroke="#000000" stroke-opacity="1" stroke-width="3.2"/>
<circle clip-path="url(#clip372)" cx="793.91" cy="1275.04" r="14.4" fill="#e26f46" fill-rule="evenodd" fill-opacity="1" stroke="#000000" stroke-opacity="1" stroke-width="3.2"/>
<circle clip-path="url(#clip372)" cx="919.118" cy="1271.74" r="14.4" fill="#e26f46" fill-rule="evenodd" fill-opacity="1" stroke="#000000" stroke-opacity="1" stroke-width="3.2"/>
<circle clip-path="url(#clip372)" cx="1044.33" cy="982.968" r="14.4" fill="#e26f46" fill-rule="evenodd" fill-opacity="1" stroke="#000000" stroke-opacity="1" stroke-width="3.2"/>
<circle clip-path="url(#clip372)" cx="1169.54" cy="694.198" r="14.4" fill="#e26f46" fill-rule="evenodd" fill-opacity="1" stroke="#000000" stroke-opacity="1" stroke-width="3.2"/>
<circle clip-path="url(#clip372)" cx="1294.74" cy="405.427" r="14.4" fill="#e26f46" fill-rule="evenodd" fill-opacity="1" stroke="#000000" stroke-opacity="1" stroke-width="3.2"/>
<circle clip-path="url(#clip372)" cx="1419.95" cy="405.427" r="14.4" fill="#e26f46" fill-rule="evenodd" fill-opacity="1" stroke="#000000" stroke-opacity="1" stroke-width="3.2"/>
<circle clip-path="url(#clip372)" cx="1545.16" cy="694.198" r="14.4" fill="#e26f46" fill-rule="evenodd" fill-opacity="1" stroke="#000000" stroke-opacity="1" stroke-width="3.2"/>
<circle clip-path="url(#clip372)" cx="1670.37" cy="982.968" r="14.4" fill="#e26f46" fill-rule="evenodd" fill-opacity="1" stroke="#000000" stroke-opacity="1" stroke-width="3.2"/>
<circle clip-path="url(#clip372)" cx="1795.58" cy="1271.74" r="14.4" fill="#e26f46" fill-rule="evenodd" fill-opacity="1" stroke="#000000" stroke-opacity="1" stroke-width="3.2"/>
<circle clip-path="url(#clip372)" cx="1920.79" cy="1275.04" r="14.4" fill="#e26f46" fill-rule="evenodd" fill-opacity="1" stroke="#000000" stroke-opacity="1" stroke-width="3.2"/>
<circle clip-path="url(#clip372)" cx="2045.99" cy="1275.06" r="14.4" fill="#e26f46" fill-rule="evenodd" fill-opacity="1" stroke="#000000" stroke-opacity="1" stroke-width="3.2"/>
<circle clip-path="url(#clip372)" cx="2171.2" cy="1275.08" r="14.4" fill="#e26f46" fill-rule="evenodd" fill-opacity="1" stroke="#000000" stroke-opacity="1" stroke-width="3.2"/>
<circle clip-path="url(#clip372)" cx="2296.41" cy="1275.1" r="14.4" fill="#e26f46" fill-rule="evenodd" fill-opacity="1" stroke="#000000" stroke-opacity="1" stroke-width="3.2"/>
<polyline clip-path="url(#clip372)" style="stroke:#3da44d; stroke-linecap:round; stroke-linejoin:round; stroke-width:4; stroke-opacity:1; fill:none" points="
  418.284,1275.1 543.493,1275.1 668.701,1275.1 793.91,1274.99 919.118,1270.49 1044.33,1200.36 1169.54,800.471 1294.74,83.0068 1419.95,83.0068 1545.16,800.471 
  1670.37,1200.36 1795.58,1270.49 1920.79,1274.99 2045.99,1275.1 2171.2,1275.1 2296.41,1275.1 
  "/>
<circle clip-path="url(#clip372)" cx="418.284" cy="1275.1" r="14.4" fill="#3da44d" fill-rule="evenodd" fill-opacity="1" stroke="#000000" stroke-opacity="1" stroke-width="3.2"/>
<circle clip-path="url(#clip372)" cx="543.493" cy="1275.1" r="14.4" fill="#3da44d" fill-rule="evenodd" fill-opacity="1" stroke="#000000" stroke-opacity="1" stroke-width="3.2"/>
<circle clip-path="url(#clip372)" cx="668.701" cy="1275.1" r="14.4" fill="#3da44d" fill-rule="evenodd" fill-opacity="1" stroke="#000000" stroke-opacity="1" stroke-width="3.2"/>
<circle clip-path="url(#clip372)" cx="793.91" cy="1274.99" r="14.4" fill="#3da44d" fill-rule="evenodd" fill-opacity="1" stroke="#000000" stroke-opacity="1" stroke-width="3.2"/>
<circle clip-path="url(#clip372)" cx="919.118" cy="1270.49" r="14.4" fill="#3da44d" fill-rule="evenodd" fill-opacity="1" stroke="#000000" stroke-opacity="1" stroke-width="3.2"/>
<circle clip-path="url(#clip372)" cx="1044.33" cy="1200.36" r="14.4" fill="#3da44d" fill-rule="evenodd" fill-opacity="1" stroke="#000000" stroke-opacity="1" stroke-width="3.2"/>
<circle clip-path="url(#clip372)" cx="1169.54" cy="800.471" r="14.4" fill="#3da44d" fill-rule="evenodd" fill-opacity="1" stroke="#000000" stroke-opacity="1" stroke-width="3.2"/>
<circle clip-path="url(#clip372)" cx="1294.74" cy="83.0068" r="14.4" fill="#3da44d" fill-rule="evenodd" fill-opacity="1" stroke="#000000" stroke-opacity="1" stroke-width="3.2"/>
<circle clip-path="url(#clip372)" cx="1419.95" cy="83.0068" r="14.4" fill="#3da44d" fill-rule="evenodd" fill-opacity="1" stroke="#000000" stroke-opacity="1" stroke-width="3.2"/>
<circle clip-path="url(#clip372)" cx="1545.16" cy="800.471" r="14.4" fill="#3da44d" fill-rule="evenodd" fill-opacity="1" stroke="#000000" stroke-opacity="1" stroke-width="3.2"/>
<circle clip-path="url(#clip372)" cx="1670.37" cy="1200.36" r="14.4" fill="#3da44d" fill-rule="evenodd" fill-opacity="1" stroke="#000000" stroke-opacity="1" stroke-width="3.2"/>
<circle clip-path="url(#clip372)" cx="1795.58" cy="1270.49" r="14.4" fill="#3da44d" fill-rule="evenodd" fill-opacity="1" stroke="#000000" stroke-opacity="1" stroke-width="3.2"/>
<circle clip-path="url(#clip372)" cx="1920.79" cy="1274.99" r="14.4" fill="#3da44d" fill-rule="evenodd" fill-opacity="1" stroke="#000000" stroke-opacity="1" stroke-width="3.2"/>
<circle clip-path="url(#clip372)" cx="2045.99" cy="1275.1" r="14.4" fill="#3da44d" fill-rule="evenodd" fill-opacity="1" stroke="#000000" stroke-opacity="1" stroke-width="3.2"/>
<circle clip-path="url(#clip372)" cx="2171.2" cy="1275.1" r="14.4" fill="#3da44d" fill-rule="evenodd" fill-opacity="1" stroke="#000000" stroke-opacity="1" stroke-width="3.2"/>
<circle clip-path="url(#clip372)" cx="2296.41" cy="1275.1" r="14.4" fill="#3da44d" fill-rule="evenodd" fill-opacity="1" stroke="#000000" stroke-opacity="1" stroke-width="3.2"/>
<path clip-path="url(#clip370)" d="
M1832.67 607.765 L2286.4 607.765 L2286.4 89.3646 L1832.67 89.3646  Z
  " fill="#ffffff" fill-rule="evenodd" fill-opacity="1"/>
<polyline clip-path="url(#clip370)" style="stroke:#000000; stroke-linecap:round; stroke-linejoin:round; stroke-width:4; stroke-opacity:1; fill:none" points="
  1832.67,607.765 2286.4,607.765 2286.4,89.3646 1832.67,89.3646 1832.67,607.765 
  "/>
<polyline clip-path="url(#clip370)" style="stroke:#009af9; stroke-linecap:round; stroke-linejoin:round; stroke-width:10; stroke-opacity:1; fill:none" points="
  1854.79,218.965 1987.51,218.965 
  "/>
<circle clip-path="url(#clip370)" cx="1921.15" cy="218.965" r="7.37339" fill="#009af9" fill-rule="evenodd" fill-opacity="1" stroke="#000000" stroke-opacity="1" stroke-width="6.55413"/>
<path clip-path="url(#clip370)" d="M2020.34 252.442 L2020.34 286.817 L2009.63 286.817 L2009.63 197.35 L2020.34 197.35 L2020.34 207.188 Q2023.7 201.401 2028.79 198.623 Q2033.94 195.788 2041.06 195.788 Q2052.86 195.788 2060.21 205.163 Q2067.62 214.538 2067.62 229.815 Q2067.62 245.093 2060.21 254.468 Q2052.86 263.843 2041.06 263.843 Q2033.94 263.843 2028.79 261.065 Q2023.7 258.229 2020.34 252.442 M2056.57 229.815 Q2056.57 218.068 2051.7 211.413 Q2046.9 204.7 2038.45 204.7 Q2030 204.7 2025.14 211.413 Q2020.34 218.068 2020.34 229.815 Q2020.34 241.563 2025.14 248.276 Q2030 254.931 2038.45 254.931 Q2046.9 254.931 2051.7 248.276 Q2056.57 241.563 2056.57 229.815 Z" fill="#000000" fill-rule="evenodd" fill-opacity="1" /><path clip-path="url(#clip370)" d="M2086.66 208.345 L2160.85 208.345 L2160.85 218.068 L2086.66 218.068 L2086.66 208.345 M2086.66 231.956 L2160.85 231.956 L2160.85 241.794 L2086.66 241.794 L2086.66 231.956 Z" fill="#000000" fill-rule="evenodd" fill-opacity="1" /><path clip-path="url(#clip370)" d="M2196.15 252.327 L2236.95 252.327 L2236.95 262.165 L2182.09 262.165 L2182.09 252.327 Q2188.74 245.44 2200.2 233.866 Q2211.72 222.234 2214.67 218.878 Q2220.28 212.57 2222.48 208.23 Q2224.74 203.832 2224.74 199.607 Q2224.74 192.721 2219.88 188.38 Q2215.07 184.04 2207.32 184.04 Q2201.82 184.04 2195.69 185.95 Q2189.61 187.859 2182.66 191.737 L2182.66 179.931 Q2189.72 177.096 2195.86 175.649 Q2201.99 174.202 2207.09 174.202 Q2220.51 174.202 2228.5 180.915 Q2236.48 187.628 2236.48 198.855 Q2236.48 204.179 2234.46 208.982 Q2232.49 213.727 2227.22 220.209 Q2225.78 221.887 2218.02 229.931 Q2210.27 237.917 2196.15 252.327 Z" fill="#000000" fill-rule="evenodd" fill-opacity="1" /><polyline clip-path="url(#clip370)" style="stroke:#e26f46; stroke-linecap:round; stroke-linejoin:round; stroke-width:10; stroke-opacity:1; fill:none" points="
  1854.79,348.565 1987.51,348.565 
  "/>
<circle clip-path="url(#clip370)" cx="1921.15" cy="348.565" r="7.37339" fill="#e26f46" fill-rule="evenodd" fill-opacity="1" stroke="#000000" stroke-opacity="1" stroke-width="6.55413"/>
<path clip-path="url(#clip370)" d="M2020.34 382.042 L2020.34 416.417 L2009.63 416.417 L2009.63 326.95 L2020.34 326.95 L2020.34 336.788 Q2023.7 331.001 2028.79 328.223 Q2033.94 325.388 2041.06 325.388 Q2052.86 325.388 2060.21 334.763 Q2067.62 344.138 2067.62 359.415 Q2067.62 374.693 2060.21 384.068 Q2052.86 393.443 2041.06 393.443 Q2033.94 393.443 2028.79 390.665 Q2023.7 387.829 2020.34 382.042 M2056.57 359.415 Q2056.57 347.668 2051.7 341.013 Q2046.9 334.3 2038.45 334.3 Q2030 334.3 2025.14 341.013 Q2020.34 347.668 2020.34 359.415 Q2020.34 371.163 2025.14 377.876 Q2030 384.531 2038.45 384.531 Q2046.9 384.531 2051.7 377.876 Q2056.57 371.163 2056.57 359.415 Z" fill="#000000" fill-rule="evenodd" fill-opacity="1" /><path clip-path="url(#clip370)" d="M2086.66 337.945 L2160.85 337.945 L2160.85 347.668 L2086.66 347.668 L2086.66 337.945 M2086.66 361.556 L2160.85 361.556 L2160.85 371.394 L2086.66 371.394 L2086.66 361.556 Z" fill="#000000" fill-rule="evenodd" fill-opacity="1" /><path clip-path="url(#clip370)" d="M2218.2 315.55 L2188.68 361.672 L2218.2 361.672 L2218.2 315.55 M2215.13 305.365 L2229.83 305.365 L2229.83 361.672 L2242.16 361.672 L2242.16 371.394 L2229.83 371.394 L2229.83 391.765 L2218.2 391.765 L2218.2 371.394 L2179.19 371.394 L2179.19 360.11 L2215.13 305.365 Z" fill="#000000" fill-rule="evenodd" fill-opacity="1" /><polyline clip-path="url(#clip370)" style="stroke:#3da44d; stroke-linecap:round; stroke-linejoin:round; stroke-width:10; stroke-opacity:1; fill:none" points="
  1854.79,478.165 1987.51,478.165 
  "/>
<circle clip-path="url(#clip370)" cx="1921.15" cy="478.165" r="7.37339" fill="#3da44d" fill-rule="evenodd" fill-opacity="1" stroke="#000000" stroke-opacity="1" stroke-width="6.55413"/>
<path clip-path="url(#clip370)" d="M2020.34 511.642 L2020.34 546.017 L2009.63 546.017 L2009.63 456.55 L2020.34 456.55 L2020.34 466.388 Q2023.7 460.601 2028.79 457.823 Q2033.94 454.988 2041.06 454.988 Q2052.86 454.988 2060.21 464.363 Q2067.62 473.738 2067.62 489.015 Q2067.62 504.293 2060.21 513.668 Q2052.86 523.043 2041.06 523.043 Q2033.94 523.043 2028.79 520.265 Q2023.7 517.429 2020.34 511.642 M2056.57 489.015 Q2056.57 477.268 2051.7 470.613 Q2046.9 463.9 2038.45 463.9 Q2030 463.9 2025.14 470.613 Q2020.34 477.268 2020.34 489.015 Q2020.34 500.763 2025.14 507.476 Q2030 514.131 2038.45 514.131 Q2046.9 514.131 2051.7 507.476 Q2056.57 500.763 2056.57 489.015 Z" fill="#000000" fill-rule="evenodd" fill-opacity="1" /><path clip-path="url(#clip370)" d="M2086.66 467.545 L2160.85 467.545 L2160.85 477.268 L2086.66 477.268 L2086.66 467.545 M2086.66 491.156 L2160.85 491.156 L2160.85 500.994 L2086.66 500.994 L2086.66 491.156 Z" fill="#000000" fill-rule="evenodd" fill-opacity="1" /><path clip-path="url(#clip370)" d="M2211.08 480.335 Q2202.75 480.335 2197.94 484.791 Q2193.2 489.247 2193.2 497.059 Q2193.2 504.872 2197.94 509.328 Q2202.75 513.784 2211.08 513.784 Q2219.41 513.784 2224.22 509.328 Q2229.02 504.814 2229.02 497.059 Q2229.02 489.247 2224.22 484.791 Q2219.47 480.335 2211.08 480.335 M2199.39 475.358 Q2191.87 473.506 2187.64 468.356 Q2183.47 463.205 2183.47 455.798 Q2183.47 445.439 2190.82 439.421 Q2198.23 433.402 2211.08 433.402 Q2223.98 433.402 2231.33 439.421 Q2238.68 445.439 2238.68 455.798 Q2238.68 463.205 2234.46 468.356 Q2230.29 473.506 2222.83 475.358 Q2231.28 477.326 2235.96 483.055 Q2240.71 488.784 2240.71 497.059 Q2240.71 509.617 2233.01 516.33 Q2225.37 523.043 2211.08 523.043 Q2196.78 523.043 2189.09 516.33 Q2181.45 509.617 2181.45 497.059 Q2181.45 488.784 2186.19 483.055 Q2190.94 477.326 2199.39 475.358 M2195.11 456.897 Q2195.11 463.61 2199.27 467.372 Q2203.5 471.133 2211.08 471.133 Q2218.6 471.133 2222.83 467.372 Q2227.11 463.61 2227.11 456.897 Q2227.11 450.184 2222.83 446.423 Q2218.6 442.661 2211.08 442.661 Q2203.5 442.661 2199.27 446.423 Q2195.11 450.184 2195.11 456.897 Z" fill="#000000" fill-rule="evenodd" fill-opacity="1" /></svg>
