<?xml version="1.0" encoding="utf-8"?>
<svg xmlns="http://www.w3.org/2000/svg" xmlns:xlink="http://www.w3.org/1999/xlink" width="600" height="400" viewBox="0 0 2400 1600">
<defs>
  <clipPath id="clip990">
    <rect x="0" y="0" width="2400" height="1600"/>
  </clipPath>
</defs>
<path clip-path="url(#clip990)" d="
M0 1600 L2400 1600 L2400 0 L0 0  Z
  " fill="#ffffff" fill-rule="evenodd" fill-opacity="1"/>
<defs>
  <clipPath id="clip991">
    <rect x="480" y="0" width="1681" height="1600"/>
  </clipPath>
</defs>
<path clip-path="url(#clip990)" d="
M558.443 1291.07 L2289.76 1291.07 L2289.76 47.2441 L558.443 47.2441  Z
  " fill="#ffffff" fill-rule="evenodd" fill-opacity="1"/>
<defs>
  <clipPath id="clip992">
    <rect x="558" y="47" width="1732" height="1245"/>
  </clipPath>
</defs>
<polyline clip-path="url(#clip992)" style="stroke:#000000; stroke-linecap:round; stroke-linejoin:round; stroke-width:2; stroke-opacity:0.1; fill:none" points="
  607.443,1291.07 607.443,47.2441 
  "/>
<polyline clip-path="url(#clip992)" style="stroke:#000000; stroke-linecap:round; stroke-linejoin:round; stroke-width:2; stroke-opacity:0.1; fill:none" points="
  1015.77,1291.07 1015.77,47.2441 
  "/>
<polyline clip-path="url(#clip992)" style="stroke:#000000; stroke-linecap:round; stroke-linejoin:round; stroke-width:2; stroke-opacity:0.1; fill:none" points="
  1424.1,1291.07 1424.1,47.2441 
  "/>
<polyline clip-path="url(#clip992)" style="stroke:#000000; stroke-linecap:round; stroke-linejoin:round; stroke-width:2; stroke-opacity:0.1; fill:none" points="
  1832.43,1291.07 1832.43,47.2441 
  "/>
<polyline clip-path="url(#clip992)" style="stroke:#000000; stroke-linecap:round; stroke-linejoin:round; stroke-width:2; stroke-opacity:0.1; fill:none" points="
  2240.76,1291.07 2240.76,47.2441 
  "/>
<polyline clip-path="url(#clip990)" style="stroke:#000000; stroke-linecap:round; stroke-linejoin:round; stroke-width:4; stroke-opacity:1; fill:none" points="
  558.443,1291.07 2289.76,1291.07 
  "/>
<polyline clip-path="url(#clip990)" style="stroke:#000000; stroke-linecap:round; stroke-linejoin:round; stroke-width:4; stroke-opacity:1; fill:none" points="
  607.443,1291.07 607.443,1272.17 
  "/>
<polyline clip-path="url(#clip990)" style="stroke:#000000; stroke-linecap:round; stroke-linejoin:round; stroke-width:4; stroke-opacity:1; fill:none" points="
  1015.77,1291.07 1015.77,1272.17 
  "/>
<polyline clip-path="url(#clip990)" style="stroke:#000000; stroke-linecap:round; stroke-linejoin:round; stroke-width:4; stroke-opacity:1; fill:none" points="
  1424.1,1291.07 1424.1,1272.17 
  "/>
<polyline clip-path="url(#clip990)" style="stroke:#000000; stroke-linecap:round; stroke-linejoin:round; stroke-width:4; stroke-opacity:1; fill:none" points="
  1832.43,1291.07 1832.43,1272.17 
  "/>
<polyline clip-path="url(#clip990)" style="stroke:#000000; stroke-linecap:round; stroke-linejoin:round; stroke-width:4; stroke-opacity:1; fill:none" points="
  2240.76,1291.07 2240.76,1272.17 
  "/>
<path clip-path="url(#clip990)" d="M565.038 1332.24 Q558.268 1332.24 554.839 1338.92 Q551.453 1345.56 551.453 1358.93 Q551.453 1372.26 554.839 1378.94 Q558.268 1385.58 565.038 1385.58 Q571.853 1385.58 575.238 1378.94 Q578.667 1372.26 578.667 1358.93 Q578.667 1345.56 575.238 1338.92 Q571.853 1332.24 565.038 1332.24 M565.038 1325.3 Q575.932 1325.3 581.662 1333.93 Q587.434 1342.53 587.434 1358.93 Q587.434 1375.3 581.662 1383.93 Q575.932 1392.53 565.038 1392.53 Q554.144 1392.53 548.372 1383.93 Q542.643 1375.3 542.643 1358.93 Q542.643 1342.53 548.372 1333.93 Q554.144 1325.3 565.038 1325.3 Z" fill="#000000" fill-rule="evenodd" fill-opacity="1" /><path clip-path="url(#clip990)" d="M602.842 1380.24 L612 1380.24 L612 1391.27 L602.842 1391.27 L602.842 1380.24 Z" fill="#000000" fill-rule="evenodd" fill-opacity="1" /><path clip-path="url(#clip990)" d="M649.847 1332.24 Q643.076 1332.24 639.647 1338.92 Q636.262 1345.56 636.262 1358.93 Q636.262 1372.26 639.647 1378.94 Q643.076 1385.58 649.847 1385.58 Q656.661 1385.58 660.047 1378.94 Q663.475 1372.26 663.475 1358.93 Q663.475 1345.56 660.047 1338.92 Q656.661 1332.24 649.847 1332.24 M649.847 1325.3 Q660.741 1325.3 666.47 1333.93 Q672.243 1342.53 672.243 1358.93 Q672.243 1375.3 666.47 1383.93 Q660.741 1392.53 649.847 1392.53 Q638.953 1392.53 633.18 1383.93 Q627.451 1375.3 627.451 1358.93 Q627.451 1342.53 633.18 1333.93 Q638.953 1325.3 649.847 1325.3 Z" fill="#000000" fill-rule="evenodd" fill-opacity="1" /><path clip-path="url(#clip990)" d="M962.779 1383.89 L993.377 1383.89 L993.377 1391.27 L952.232 1391.27 L952.232 1383.89 Q957.223 1378.72 965.817 1370.04 Q974.454 1361.32 976.667 1358.8 Q980.877 1354.07 982.527 1350.82 Q984.219 1347.52 984.219 1344.35 Q984.219 1339.18 980.574 1335.93 Q976.971 1332.67 971.155 1332.67 Q967.032 1332.67 962.431 1334.11 Q957.874 1335.54 952.666 1338.45 L952.666 1329.59 Q957.961 1327.47 962.562 1326.38 Q967.162 1325.3 970.982 1325.3 Q981.051 1325.3 987.041 1330.33 Q993.03 1335.37 993.03 1343.79 Q993.03 1347.78 991.511 1351.38 Q990.035 1354.94 986.086 1359.8 Q985.001 1361.06 979.185 1367.09 Q973.369 1373.08 962.779 1383.89 Z" fill="#000000" fill-rule="evenodd" fill-opacity="1" /><path clip-path="url(#clip990)" d="M1011.78 1380.24 L1020.94 1380.24 L1020.94 1391.27 L1011.78 1391.27 L1011.78 1380.24 Z" fill="#000000" fill-rule="evenodd" fill-opacity="1" /><path clip-path="url(#clip990)" d="M1040.12 1326.47 L1074.54 1326.47 L1074.54 1333.85 L1048.15 1333.85 L1048.15 1349.73 Q1050.06 1349.08 1051.97 1348.78 Q1053.88 1348.43 1055.79 1348.43 Q1066.64 1348.43 1072.98 1354.38 Q1079.31 1360.32 1079.31 1370.48 Q1079.31 1380.94 1072.8 1386.75 Q1066.29 1392.53 1054.44 1392.53 Q1050.36 1392.53 1046.11 1391.83 Q1041.9 1391.14 1037.39 1389.75 L1037.39 1380.94 Q1041.29 1383.06 1045.46 1384.11 Q1049.63 1385.15 1054.27 1385.15 Q1061.78 1385.15 1066.16 1381.2 Q1070.55 1377.25 1070.55 1370.48 Q1070.55 1363.71 1066.16 1359.76 Q1061.78 1355.81 1054.27 1355.81 Q1050.76 1355.81 1047.24 1356.59 Q1043.77 1357.37 1040.12 1359.02 L1040.12 1326.47 Z" fill="#000000" fill-rule="evenodd" fill-opacity="1" /><path clip-path="url(#clip990)" d="M1362.54 1326.47 L1396.96 1326.47 L1396.96 1333.85 L1370.57 1333.85 L1370.57 1349.73 Q1372.48 1349.08 1374.39 1348.78 Q1376.3 1348.43 1378.21 1348.43 Q1389.06 1348.43 1395.39 1354.38 Q1401.73 1360.32 1401.73 1370.48 Q1401.73 1380.94 1395.22 1386.75 Q1388.71 1392.53 1376.86 1392.53 Q1372.78 1392.53 1368.53 1391.83 Q1364.32 1391.14 1359.8 1389.75 L1359.8 1380.94 Q1363.71 1383.06 1367.88 1384.11 Q1372.04 1385.15 1376.69 1385.15 Q1384.19 1385.15 1388.58 1381.2 Q1392.96 1377.25 1392.96 1370.48 Q1392.96 1363.71 1388.58 1359.76 Q1384.19 1355.81 1376.69 1355.81 Q1373.17 1355.81 1369.65 1356.59 Q1366.18 1357.37 1362.54 1359.02 L1362.54 1326.47 Z" fill="#000000" fill-rule="evenodd" fill-opacity="1" /><path clip-path="url(#clip990)" d="M1419 1380.24 L1428.16 1380.24 L1428.16 1391.27 L1419 1391.27 L1419 1380.24 Z" fill="#000000" fill-rule="evenodd" fill-opacity="1" /><path clip-path="url(#clip990)" d="M1466.01 1332.24 Q1459.24 1332.24 1455.81 1338.92 Q1452.42 1345.56 1452.42 1358.93 Q1452.42 1372.26 1455.81 1378.94 Q1459.24 1385.58 1466.01 1385.58 Q1472.82 1385.58 1476.21 1378.94 Q1479.64 1372.26 1479.64 1358.93 Q1479.64 1345.56 1476.21 1338.92 Q1472.82 1332.24 1466.01 1332.24 M1466.01 1325.3 Q1476.9 1325.3 1482.63 1333.93 Q1488.4 1342.53 1488.4 1358.93 Q1488.4 1375.3 1482.63 1383.93 Q1476.9 1392.53 1466.01 1392.53 Q1455.11 1392.53 1449.34 1383.93 Q1443.61 1375.3 1443.61 1358.93 Q1443.61 1342.53 1449.34 1333.93 Q1455.11 1325.3 1466.01 1325.3 Z" fill="#000000" fill-rule="evenodd" fill-opacity="1" /><path clip-path="url(#clip990)" d="M1769.28 1326.47 L1810.95 1326.47 L1810.95 1330.2 L1787.43 1391.27 L1778.27 1391.27 L1800.4 1333.85 L1769.28 1333.85 L1769.28 1326.47 Z" fill="#000000" fill-rule="evenodd" fill-opacity="1" /><path clip-path="url(#clip990)" d="M1828.05 1380.24 L1837.21 1380.24 L1837.21 1391.27 L1828.05 1391.27 L1828.05 1380.24 Z" fill="#000000" fill-rule="evenodd" fill-opacity="1" /><path clip-path="url(#clip990)" d="M1856.39 1326.47 L1890.81 1326.47 L1890.81 1333.85 L1864.42 1333.85 L1864.42 1349.73 Q1866.33 1349.08 1868.24 1348.78 Q1870.15 1348.43 1872.06 1348.43 Q1882.91 1348.43 1889.25 1354.38 Q1895.58 1360.32 1895.58 1370.48 Q1895.58 1380.94 1889.07 1386.75 Q1882.56 1392.53 1870.71 1392.53 Q1866.63 1392.53 1862.38 1391.83 Q1858.17 1391.14 1853.66 1389.75 L1853.66 1380.94 Q1857.56 1383.06 1861.73 1384.11 Q1865.9 1385.15 1870.54 1385.15 Q1878.05 1385.15 1882.43 1381.2 Q1886.82 1377.25 1886.82 1370.48 Q1886.82 1363.71 1882.43 1359.76 Q1878.05 1355.81 1870.54 1355.81 Q1867.03 1355.81 1863.51 1356.59 Q1860.04 1357.37 1856.39 1359.02 L1856.39 1326.47 Z" fill="#000000" fill-rule="evenodd" fill-opacity="1" /><path clip-path="url(#clip990)" d="M2150.9 1383.89 L2165.22 1383.89 L2165.22 1334.45 L2149.64 1337.58 L2149.64 1329.59 L2165.14 1326.47 L2173.9 1326.47 L2173.9 1383.89 L2188.23 1383.89 L2188.23 1391.27 L2150.9 1391.27 L2150.9 1383.89 Z" fill="#000000" fill-rule="evenodd" fill-opacity="1" /><path clip-path="url(#clip990)" d="M2224.68 1332.24 Q2217.91 1332.24 2214.48 1338.92 Q2211.1 1345.56 2211.1 1358.93 Q2211.1 1372.26 2214.48 1378.94 Q2217.91 1385.58 2224.68 1385.58 Q2231.5 1385.58 2234.88 1378.94 Q2238.31 1372.26 2238.31 1358.93 Q2238.31 1345.56 2234.88 1338.92 Q2231.5 1332.24 2224.68 1332.24 M2224.68 1325.3 Q2235.58 1325.3 2241.31 1333.93 Q2247.08 1342.53 2247.08 1358.93 Q2247.08 1375.3 2241.31 1383.93 Q2235.58 1392.53 2224.68 1392.53 Q2213.79 1392.53 2208.02 1383.93 Q2202.29 1375.3 2202.29 1358.93 Q2202.29 1342.53 2208.02 1333.93 Q2213.79 1325.3 2224.68 1325.3 Z" fill="#000000" fill-rule="evenodd" fill-opacity="1" /><path clip-path="url(#clip990)" d="M2262.49 1380.24 L2271.65 1380.24 L2271.65 1391.27 L2262.49 1391.27 L2262.49 1380.24 Z" fill="#000000" fill-rule="evenodd" fill-opacity="1" /><path clip-path="url(#clip990)" d="M2309.49 1332.24 Q2302.72 1332.24 2299.29 1338.92 Q2295.91 1345.56 2295.91 1358.93 Q2295.91 1372.26 2299.29 1378.94 Q2302.72 1385.58 2309.49 1385.58 Q2316.31 1385.58 2319.69 1378.94 Q2323.12 1372.26 2323.12 1358.93 Q2323.12 1345.56 2319.69 1338.92 Q2316.31 1332.24 2309.49 1332.24 M2309.49 1325.3 Q2320.39 1325.3 2326.12 1333.93 Q2331.89 1342.53 2331.89 1358.93 Q2331.89 1375.3 2326.12 1383.93 Q2320.39 1392.53 2309.49 1392.53 Q2298.6 1392.53 2292.83 1383.93 Q2287.1 1375.3 2287.1 1358.93 Q2287.1 1342.53 2292.83 1333.93 Q2298.6 1325.3 2309.49 1325.3 Z" fill="#000000" fill-rule="evenodd" fill-opacity="1" /><path clip-path="url(#clip990)" d="M1245.31 1441.55 L1257 1441.55 L1257 1518.11 L1299.08 1518.11 L1299.08 1527.95 L1245.31 1527.95 L1245.31 1441.55 Z" fill="#000000" fill-rule="evenodd" fill-opacity="1" /><path clip-path="url(#clip990)" d="M1333.91 1470.6 Q1325.35 1470.6 1320.37 1477.31 Q1315.39 1483.97 1315.39 1495.6 Q1315.39 1507.23 1320.31 1513.94 Q1325.29 1520.6 1333.91 1520.6 Q1342.42 1520.6 1347.4 1513.89 Q1352.37 1507.17 1352.37 1495.6 Q1352.37 1484.08 1347.4 1477.37 Q1342.42 1470.6 1333.91 1470.6 M1333.91 1461.57 Q1347.8 1461.57 1355.73 1470.6 Q1363.66 1479.63 1363.66 1495.6 Q1363.66 1511.51 1355.73 1520.6 Q1347.8 1529.63 1333.91 1529.63 Q1319.97 1529.63 1312.04 1520.6 Q1304.17 1511.51 1304.17 1495.6 Q1304.17 1479.63 1312.04 1470.6 Q1319.97 1461.57 1333.91 1461.57 Z" fill="#000000" fill-rule="evenodd" fill-opacity="1" /><path clip-path="url(#clip990)" d="M1423.96 1494.79 Q1423.96 1483.21 1419.16 1476.85 Q1414.41 1470.48 1405.79 1470.48 Q1397.22 1470.48 1392.42 1476.85 Q1387.67 1483.21 1387.67 1494.79 Q1387.67 1506.3 1392.42 1512.67 Q1397.22 1519.04 1405.79 1519.04 Q1414.41 1519.04 1419.16 1512.67 Q1423.96 1506.3 1423.96 1494.79 M1434.61 1519.9 Q1434.61 1536.45 1427.26 1544.5 Q1419.91 1552.6 1404.75 1552.6 Q1399.13 1552.6 1394.16 1551.73 Q1389.18 1550.92 1384.49 1549.19 L1384.49 1538.83 Q1389.18 1541.37 1393.75 1542.59 Q1398.32 1543.8 1403.07 1543.8 Q1413.54 1543.8 1418.75 1538.31 Q1423.96 1532.87 1423.96 1521.81 L1423.96 1516.55 Q1420.66 1522.28 1415.51 1525.11 Q1410.36 1527.95 1403.18 1527.95 Q1391.26 1527.95 1383.97 1518.86 Q1376.68 1509.78 1376.68 1494.79 Q1376.68 1479.74 1383.97 1470.66 Q1391.26 1461.57 1403.18 1461.57 Q1410.36 1461.57 1415.51 1464.41 Q1420.66 1467.24 1423.96 1472.97 L1423.96 1463.13 L1434.61 1463.13 L1434.61 1519.9 Z" fill="#000000" fill-rule="evenodd" fill-opacity="1" /><path clip-path="url(#clip990)" d="M1482.12 1438.02 Q1474.36 1451.33 1470.6 1464.35 Q1466.84 1477.37 1466.84 1490.74 Q1466.84 1504.11 1470.6 1517.24 Q1474.42 1530.32 1482.12 1543.57 L1472.86 1543.57 Q1464.18 1529.97 1459.84 1516.84 Q1455.56 1503.7 1455.56 1490.74 Q1455.56 1477.83 1459.84 1464.75 Q1464.12 1451.67 1472.86 1438.02 L1482.12 1438.02 Z" fill="#000000" fill-rule="evenodd" fill-opacity="1" /><path clip-path="url(#clip990)" d="M1513.08 1518.23 L1513.08 1552.6 L1502.37 1552.6 L1502.37 1463.13 L1513.08 1463.13 L1513.08 1472.97 Q1516.44 1467.18 1521.53 1464.41 Q1526.68 1461.57 1533.8 1461.57 Q1545.6 1461.57 1552.95 1470.95 Q1560.36 1480.32 1560.36 1495.6 Q1560.36 1510.88 1552.95 1520.25 Q1545.6 1529.63 1533.8 1529.63 Q1526.68 1529.63 1521.53 1526.85 Q1516.44 1524.01 1513.08 1518.23 M1549.31 1495.6 Q1549.31 1483.85 1544.44 1477.2 Q1539.64 1470.48 1531.19 1470.48 Q1522.74 1470.48 1517.88 1477.2 Q1513.08 1483.85 1513.08 1495.6 Q1513.08 1507.35 1517.88 1514.06 Q1522.74 1520.71 1531.19 1520.71 Q1539.64 1520.71 1544.44 1514.06 Q1549.31 1507.35 1549.31 1495.6 Z" fill="#000000" fill-rule="evenodd" fill-opacity="1" /><path clip-path="url(#clip990)" d="M1576.33 1438.02 L1585.59 1438.02 Q1594.27 1451.67 1598.55 1464.75 Q1602.89 1477.83 1602.89 1490.74 Q1602.89 1503.7 1598.55 1516.84 Q1594.27 1529.97 1585.59 1543.57 L1576.33 1543.57 Q1584.03 1530.32 1587.79 1517.24 Q1591.61 1504.11 1591.61 1490.74 Q1591.61 1477.37 1587.79 1464.35 Q1584.03 1451.33 1576.33 1438.02 Z" fill="#000000" fill-rule="evenodd" fill-opacity="1" /><polyline clip-path="url(#clip992)" style="stroke:#000000; stroke-linecap:round; stroke-linejoin:round; stroke-width:2; stroke-opacity:0.1; fill:none" points="
  558.443,1011.4 2289.76,1011.4 
  "/>
<polyline clip-path="url(#clip992)" style="stroke:#000000; stroke-linecap:round; stroke-linejoin:round; stroke-width:2; stroke-opacity:0.1; fill:none" points="
  558.443,508.659 2289.76,508.659 
  "/>
<polyline clip-path="url(#clip990)" style="stroke:#000000; stroke-linecap:round; stroke-linejoin:round; stroke-width:4; stroke-opacity:1; fill:none" points="
  558.443,1291.07 558.443,47.2441 
  "/>
<polyline clip-path="url(#clip990)" style="stroke:#000000; stroke-linecap:round; stroke-linejoin:round; stroke-width:4; stroke-opacity:1; fill:none" points="
  558.443,1011.4 577.341,1011.4 
  "/>
<polyline clip-path="url(#clip990)" style="stroke:#000000; stroke-linecap:round; stroke-linejoin:round; stroke-width:4; stroke-opacity:1; fill:none" points="
  558.443,508.659 577.341,508.659 
  "/>
<path clip-path="url(#clip990)" d="M219.824 1048.51 L234.147 1048.51 L234.147 999.078 L218.566 1002.2 L218.566 994.217 L234.06 991.092 L242.828 991.092 L242.828 1048.51 L257.15 1048.51 L257.15 1055.89 L219.824 1055.89 L219.824 1048.51 Z" fill="#000000" fill-rule="evenodd" fill-opacity="1" /><path clip-path="url(#clip990)" d="M293.609 996.864 Q286.838 996.864 283.409 1003.55 Q280.024 1010.19 280.024 1023.56 Q280.024 1036.88 283.409 1043.57 Q286.838 1050.21 293.609 1050.21 Q300.423 1050.21 303.808 1043.57 Q307.237 1036.88 307.237 1023.56 Q307.237 1010.19 303.808 1003.55 Q300.423 996.864 293.609 996.864 M293.609 989.92 Q304.503 989.92 310.232 998.557 Q316.004 1007.15 316.004 1023.56 Q316.004 1039.92 310.232 1048.56 Q304.503 1057.15 293.609 1057.15 Q282.715 1057.15 276.942 1048.56 Q271.213 1039.92 271.213 1023.56 Q271.213 1007.15 276.942 998.557 Q282.715 989.92 293.609 989.92 Z" fill="#000000" fill-rule="evenodd" fill-opacity="1" /><path clip-path="url(#clip990)" d="M316.004 978.86 L361.213 978.86 L361.213 984.855 L316.004 984.855 L316.004 978.86 Z" fill="#000000" fill-rule="evenodd" fill-opacity="1" /><path clip-path="url(#clip990)" d="M391.823 956.537 Q386.322 956.537 383.536 961.968 Q380.785 967.364 380.785 978.225 Q380.785 989.051 383.536 994.482 Q386.322 999.878 391.823 999.878 Q397.36 999.878 400.11 994.482 Q402.896 989.051 402.896 978.225 Q402.896 967.364 400.11 961.968 Q397.36 956.537 391.823 956.537 M391.823 950.895 Q400.674 950.895 405.329 957.913 Q410.02 964.895 410.02 978.225 Q410.02 991.52 405.329 998.538 Q400.674 1005.52 391.823 1005.52 Q382.972 1005.52 378.281 998.538 Q373.627 991.52 373.627 978.225 Q373.627 964.895 378.281 957.913 Q382.972 950.895 391.823 950.895 Z" fill="#000000" fill-rule="evenodd" fill-opacity="1" /><path clip-path="url(#clip990)" d="M422.539 995.54 L429.979 995.54 L429.979 1004.5 L422.539 1004.5 L422.539 995.54 Z" fill="#000000" fill-rule="evenodd" fill-opacity="1" /><path clip-path="url(#clip990)" d="M446.73 998.502 L458.367 998.502 L458.367 958.336 L445.707 960.875 L445.707 954.386 L458.297 951.847 L465.42 951.847 L465.42 998.502 L477.058 998.502 L477.058 1004.5 L446.73 1004.5 L446.73 998.502 Z" fill="#000000" fill-rule="evenodd" fill-opacity="1" /><path clip-path="url(#clip990)" d="M497.582 998.502 L522.443 998.502 L522.443 1004.5 L489.012 1004.5 L489.012 998.502 Q493.068 994.306 500.05 987.253 Q507.068 980.165 508.866 978.119 Q512.287 974.276 513.627 971.631 Q515.002 968.951 515.002 966.376 Q515.002 962.18 512.04 959.535 Q509.113 956.89 504.388 956.89 Q501.037 956.89 497.299 958.054 Q493.597 959.218 489.365 961.58 L489.365 954.386 Q493.667 952.658 497.405 951.777 Q501.143 950.895 504.247 950.895 Q512.428 950.895 517.294 954.986 Q522.161 959.076 522.161 965.918 Q522.161 969.162 520.927 972.089 Q519.728 974.981 516.519 978.93 Q515.637 979.953 510.912 984.855 Q506.186 989.721 497.582 998.502 Z" fill="#000000" fill-rule="evenodd" fill-opacity="1" /><path clip-path="url(#clip990)" d="M217.391 545.769 L231.714 545.769 L231.714 496.334 L216.132 499.459 L216.132 491.473 L231.627 488.348 L240.394 488.348 L240.394 545.769 L254.717 545.769 L254.717 553.148 L217.391 553.148 L217.391 545.769 Z" fill="#000000" fill-rule="evenodd" fill-opacity="1" /><path clip-path="url(#clip990)" d="M291.175 494.12 Q284.404 494.12 280.976 500.804 Q277.59 507.445 277.59 520.813 Q277.59 534.138 280.976 540.822 Q284.404 547.462 291.175 547.462 Q297.989 547.462 301.375 540.822 Q304.804 534.138 304.804 520.813 Q304.804 507.445 301.375 500.804 Q297.989 494.12 291.175 494.12 M291.175 487.176 Q302.069 487.176 307.798 495.813 Q313.571 504.407 313.571 520.813 Q313.571 537.176 307.798 545.813 Q302.069 554.407 291.175 554.407 Q280.281 554.407 274.509 545.813 Q268.78 537.176 268.78 520.813 Q268.78 504.407 274.509 495.813 Q280.281 487.176 291.175 487.176 Z" fill="#000000" fill-rule="evenodd" fill-opacity="1" /><path clip-path="url(#clip990)" d="M313.571 476.116 L358.78 476.116 L358.78 482.111 L313.571 482.111 L313.571 476.116 Z" fill="#000000" fill-rule="evenodd" fill-opacity="1" /><path clip-path="url(#clip990)" d="M389.39 453.794 Q383.889 453.794 381.103 459.224 Q378.352 464.62 378.352 475.481 Q378.352 486.307 381.103 491.738 Q383.889 497.134 389.39 497.134 Q394.926 497.134 397.677 491.738 Q400.463 486.307 400.463 475.481 Q400.463 464.62 397.677 459.224 Q394.926 453.794 389.39 453.794 M389.39 448.151 Q398.241 448.151 402.896 455.169 Q407.586 462.151 407.586 475.481 Q407.586 488.776 402.896 495.794 Q398.241 502.776 389.39 502.776 Q380.538 502.776 375.848 495.794 Q371.193 488.776 371.193 475.481 Q371.193 462.151 375.848 455.169 Q380.538 448.151 389.39 448.151 Z" fill="#000000" fill-rule="evenodd" fill-opacity="1" /><path clip-path="url(#clip990)" d="M420.105 492.796 L427.546 492.796 L427.546 501.753 L420.105 501.753 L420.105 492.796 Z" fill="#000000" fill-rule="evenodd" fill-opacity="1" /><path clip-path="url(#clip990)" d="M444.297 495.758 L455.934 495.758 L455.934 455.592 L443.274 458.131 L443.274 451.642 L455.864 449.103 L462.987 449.103 L462.987 495.758 L474.624 495.758 L474.624 501.753 L444.297 501.753 L444.297 495.758 Z" fill="#000000" fill-rule="evenodd" fill-opacity="1" /><path clip-path="url(#clip990)" d="M504.247 453.794 Q498.745 453.794 495.959 459.224 Q493.209 464.62 493.209 475.481 Q493.209 486.307 495.959 491.738 Q498.745 497.134 504.247 497.134 Q509.783 497.134 512.534 491.738 Q515.32 486.307 515.32 475.481 Q515.32 464.62 512.534 459.224 Q509.783 453.794 504.247 453.794 M504.247 448.151 Q513.098 448.151 517.753 455.169 Q522.443 462.151 522.443 475.481 Q522.443 488.776 517.753 495.794 Q513.098 502.776 504.247 502.776 Q495.395 502.776 490.705 495.794 Q486.05 488.776 486.05 475.481 Q486.05 462.151 490.705 455.169 Q495.395 448.151 504.247 448.151 Z" fill="#000000" fill-rule="evenodd" fill-opacity="1" /><path clip-path="url(#clip990)" d="M144.49 999.681 L178.865 999.681 L178.865 1010.39 L89.3978 1010.39 L89.3978 999.681 L99.2357 999.681 Q93.4487 996.324 90.671 991.232 Q87.8353 986.081 87.8353 978.963 Q87.8353 967.158 97.2103 959.808 Q106.585 952.401 121.863 952.401 Q137.141 952.401 146.516 959.808 Q155.891 967.158 155.891 978.963 Q155.891 986.081 153.113 991.232 Q150.277 996.324 144.49 999.681 M121.863 963.454 Q110.115 963.454 103.46 968.315 Q96.7473 973.118 96.7473 981.567 Q96.7473 990.016 103.46 994.878 Q110.115 999.681 121.863 999.681 Q133.611 999.681 140.323 994.878 Q146.979 990.016 146.979 981.567 Q146.979 973.118 140.323 968.315 Q133.611 963.454 121.863 963.454 Z" fill="#000000" fill-rule="evenodd" fill-opacity="1" /><path clip-path="url(#clip990)" d="M99.3515 897.193 Q98.3098 898.987 97.8468 901.128 Q97.326 903.211 97.326 905.758 Q97.326 914.785 103.229 919.646 Q109.074 924.45 120.069 924.45 L154.212 924.45 L154.212 935.156 L89.3978 935.156 L89.3978 924.45 L99.4672 924.45 Q93.5645 921.093 90.7288 915.711 Q87.8353 910.329 87.8353 902.633 Q87.8353 901.533 88.0089 900.202 Q88.1247 898.871 88.414 897.251 L99.3515 897.193 Z" fill="#000000" fill-rule="evenodd" fill-opacity="1" /><path clip-path="url(#clip990)" d="M64.2822 860.445 Q77.5923 868.2 90.6131 871.962 Q103.634 875.723 117.002 875.723 Q130.37 875.723 143.506 871.962 Q156.585 868.142 169.837 860.445 L169.837 869.705 Q156.238 878.385 143.101 882.725 Q129.965 887.008 117.002 887.008 Q104.097 887.008 91.0182 882.725 Q77.9395 878.443 64.2822 869.705 L64.2822 860.445 Z" fill="#000000" fill-rule="evenodd" fill-opacity="1" /><path clip-path="url(#clip990)" d="M89.3978 844.415 L89.3978 793.837 L99.12 793.837 L145.705 833.883 L145.705 793.837 L154.212 793.837 L154.212 845.862 L144.49 845.862 L97.9047 805.816 L97.9047 844.415 L89.3978 844.415 Z" fill="#000000" fill-rule="evenodd" fill-opacity="1" /><path clip-path="url(#clip990)" d="M144.374 774.045 L144.374 754.948 L78.4604 754.948 L82.627 775.724 L71.9789 775.724 L67.8123 755.064 L67.8123 743.374 L144.374 743.374 L144.374 724.277 L154.212 724.277 L154.212 774.045 L144.374 774.045 Z" fill="#000000" fill-rule="evenodd" fill-opacity="1" /><path clip-path="url(#clip990)" d="M100.393 663.108 L100.393 588.919 L110.115 588.919 L110.115 663.108 L100.393 663.108 M124.004 663.108 L124.004 588.919 L133.842 588.919 L133.842 663.108 L124.004 663.108 Z" fill="#000000" fill-rule="evenodd" fill-opacity="1" /><path clip-path="url(#clip990)" d="M100.393 563.803 L100.393 489.614 L110.115 489.614 L110.115 563.803 L100.393 563.803 M124.004 563.803 L124.004 489.614 L133.842 489.614 L133.842 563.803 L124.004 563.803 Z" fill="#000000" fill-rule="evenodd" fill-opacity="1" /><path clip-path="url(#clip990)" d="M144.374 424.684 L144.374 405.587 L78.4604 405.587 L82.627 426.362 L71.9789 426.362 L67.8123 405.702 L67.8123 394.013 L144.374 394.013 L144.374 374.916 L154.212 374.916 L154.212 424.684 L144.374 424.684 Z" fill="#000000" fill-rule="evenodd" fill-opacity="1" /><path clip-path="url(#clip990)" d="M64.2822 354.487 L64.2822 345.228 Q77.9395 336.548 91.0182 332.265 Q104.097 327.925 117.002 327.925 Q129.965 327.925 143.101 332.265 Q156.238 336.548 169.837 345.228 L169.837 354.487 Q156.585 346.791 143.506 343.029 Q130.37 339.21 117.002 339.21 Q103.634 339.21 90.6131 343.029 Q77.5923 346.791 64.2822 354.487 Z" fill="#000000" fill-rule="evenodd" fill-opacity="1" /><polyline clip-path="url(#clip992)" style="stroke:#009af9; stroke-linecap:round; stroke-linejoin:round; stroke-width:4; stroke-opacity:1; fill:none" points="
  607.443,82.4466 770.775,468.331 934.107,1206.73 1097.44,1255.87 1260.77,930.007 1424.1,852.698 1587.44,853.32 
  "/>
<circle clip-path="url(#clip992)" cx="607.443" cy="82.4466" r="14.4" fill="#009af9" fill-rule="evenodd" fill-opacity="1" stroke="#000000" stroke-opacity="1" stroke-width="3.2"/>
<circle clip-path="url(#clip992)" cx="770.775" cy="468.331" r="14.4" fill="#009af9" fill-rule="evenodd" fill-opacity="1" stroke="#000000" stroke-opacity="1" stroke-width="3.2"/>
<circle clip-path="url(#clip992)" cx="934.107" cy="1206.73" r="14.4" fill="#009af9" fill-rule="evenodd" fill-opacity="1" stroke="#000000" stroke-opacity="1" stroke-width="3.2"/>
<circle clip-path="url(#clip992)" cx="1097.44" cy="1255.87" r="14.4" fill="#009af9" fill-rule="evenodd" fill-opacity="1" stroke="#000000" stroke-opacity="1" stroke-width="3.2"/>
<circle clip-path="url(#clip992)" cx="1260.77" cy="930.007" r="14.4" fill="#009af9" fill-rule="evenodd" fill-opacity="1" stroke="#000000" stroke-opacity="1" stroke-width="3.2"/>
<circle clip-path="url(#clip992)" cx="1424.1" cy="852.698" r="14.4" fill="#009af9" fill-rule="evenodd" fill-opacity="1" stroke="#000000" stroke-opacity="1" stroke-width="3.2"/>
<circle clip-path="url(#clip992)" cx="1587.44" cy="853.32" r="14.4" fill="#009af9" fill-rule="evenodd" fill-opacity="1" stroke="#000000" stroke-opacity="1" stroke-width="3.2"/>
<polyline clip-path="url(#clip992)" style="stroke:#e26f46; stroke-linecap:round; stroke-linejoin:round; stroke-width:4; stroke-opacity:1; fill:none" points="
  607.443,102.281 770.775,466.848 934.107,1213.16 1097.44,1189.94 1260.77,957.268 1424.1,881.052 1587.44,879.293 1750.77,879.818 
  "/>
<circle clip-path="url(#clip992)" cx="607.443" cy="102.281" r="14.4" fill="#e26f46" fill-rule="evenodd" fill-opacity="1" stroke="#000000" stroke-opacity="1" stroke-width="3.2"/>
<circle clip-path="url(#clip992)" cx="770.775" cy="466.848" r="14.4" fill="#e26f46" fill-rule="evenodd" fill-opacity="1" stroke="#000000" stroke-opacity="1" stroke-width="3.2"/>
<circle clip-path="url(#clip992)" cx="934.107" cy="1213.16" r="14.4" fill="#e26f46" fill-rule="evenodd" fill-opacity="1" stroke="#000000" stroke-opacity="1" stroke-width="3.2"/>
<circle clip-path="url(#clip992)" cx="1097.44" cy="1189.94" r="14.4" fill="#e26f46" fill-rule="evenodd" fill-opacity="1" stroke="#000000" stroke-opacity="1" stroke-width="3.2"/>
<circle clip-path="url(#clip992)" cx="1260.77" cy="957.268" r="14.4" fill="#e26f46" fill-rule="evenodd" fill-opacity="1" stroke="#000000" stroke-opacity="1" stroke-width="3.2"/>
<circle clip-path="url(#clip992)" cx="1424.1" cy="881.052" r="14.4" fill="#e26f46" fill-rule="evenodd" fill-opacity="1" stroke="#000000" stroke-opacity="1" stroke-width="3.2"/>
<circle clip-path="url(#clip992)" cx="1587.44" cy="879.293" r="14.4" fill="#e26f46" fill-rule="evenodd" fill-opacity="1" stroke="#000000" stroke-opacity="1" stroke-width="3.2"/>
<circle clip-path="url(#clip992)" cx="1750.77" cy="879.818" r="14.4" fill="#e26f46" fill-rule="evenodd" fill-opacity="1" stroke="#000000" stroke-opacity="1" stroke-width="3.2"/>
<polyline clip-path="url(#clip992)" style="stroke:#3da44d; stroke-linecap:round; stroke-linejoin:round; stroke-width:4; stroke-opacity:1; fill:none" points="
  607.443,103.111 770.775,463.91 934.107,1206.46 1097.44,1182.59 1260.77,955.012 1424.1,870.761 1587.44,867.842 1750.77,867.631 1914.1,867.75 
  "/>
<circle clip-path="url(#clip992)" cx="607.443" cy="103.111" r="14.4" fill="#3da44d" fill-rule="evenodd" fill-opacity="1" stroke="#000000" stroke-opacity="1" stroke-width="3.2"/>
<circle clip-path="url(#clip992)" cx="770.775" cy="463.91" r="14.4" fill="#3da44d" fill-rule="evenodd" fill-opacity="1" stroke="#000000" stroke-opacity="1" stroke-width="3.2"/>
<circle clip-path="url(#clip992)" cx="934.107" cy="1206.46" r="14.4" fill="#3da44d" fill-rule="evenodd" fill-opacity="1" stroke="#000000" stroke-opacity="1" stroke-width="3.2"/>
<circle clip-path="url(#clip992)" cx="1097.44" cy="1182.59" r="14.4" fill="#3da44d" fill-rule="evenodd" fill-opacity="1" stroke="#000000" stroke-opacity="1" stroke-width="3.2"/>
<circle clip-path="url(#clip992)" cx="1260.77" cy="955.012" r="14.4" fill="#3da44d" fill-rule="evenodd" fill-opacity="1" stroke="#000000" stroke-opacity="1" stroke-width="3.2"/>
<circle clip-path="url(#clip992)" cx="1424.1" cy="870.761" r="14.4" fill="#3da44d" fill-rule="evenodd" fill-opacity="1" stroke="#000000" stroke-opacity="1" stroke-width="3.2"/>
<circle clip-path="url(#clip992)" cx="1587.44" cy="867.842" r="14.4" fill="#3da44d" fill-rule="evenodd" fill-opacity="1" stroke="#000000" stroke-opacity="1" stroke-width="3.2"/>
<circle clip-path="url(#clip992)" cx="1750.77" cy="867.631" r="14.4" fill="#3da44d" fill-rule="evenodd" fill-opacity="1" stroke="#000000" stroke-opacity="1" stroke-width="3.2"/>
<circle clip-path="url(#clip992)" cx="1914.1" cy="867.75" r="14.4" fill="#3da44d" fill-rule="evenodd" fill-opacity="1" stroke="#000000" stroke-opacity="1" stroke-width="3.2"/>
<polyline clip-path="url(#clip992)" style="stroke:#c271d2; stroke-linecap:round; stroke-linejoin:round; stroke-width:4; stroke-opacity:1; fill:none" points="
  607.443,109.968 770.775,463.791 934.107,1206.18 1097.44,1157.98 1260.77,948.969 1424.1,863.935 1587.44,861.752 1750.77,861.6 1914.1,861.598 2077.43,861.632 
  
  "/>
<circle clip-path="url(#clip992)" cx="607.443" cy="109.968" r="14.4" fill="#c271d2" fill-rule="evenodd" fill-opacity="1" stroke="#000000" stroke-opacity="1" stroke-width="3.2"/>
<circle clip-path="url(#clip992)" cx="770.775" cy="463.791" r="14.4" fill="#c271d2" fill-rule="evenodd" fill-opacity="1" stroke="#000000" stroke-opacity="1" stroke-width="3.2"/>
<circle clip-path="url(#clip992)" cx="934.107" cy="1206.18" r="14.4" fill="#c271d2" fill-rule="evenodd" fill-opacity="1" stroke="#000000" stroke-opacity="1" stroke-width="3.2"/>
<circle clip-path="url(#clip992)" cx="1097.44" cy="1157.98" r="14.4" fill="#c271d2" fill-rule="evenodd" fill-opacity="1" stroke="#000000" stroke-opacity="1" stroke-width="3.2"/>
<circle clip-path="url(#clip992)" cx="1260.77" cy="948.969" r="14.4" fill="#c271d2" fill-rule="evenodd" fill-opacity="1" stroke="#000000" stroke-opacity="1" stroke-width="3.2"/>
<circle clip-path="url(#clip992)" cx="1424.1" cy="863.935" r="14.4" fill="#c271d2" fill-rule="evenodd" fill-opacity="1" stroke="#000000" stroke-opacity="1" stroke-width="3.2"/>
<circle clip-path="url(#clip992)" cx="1587.44" cy="861.752" r="14.4" fill="#c271d2" fill-rule="evenodd" fill-opacity="1" stroke="#000000" stroke-opacity="1" stroke-width="3.2"/>
<circle clip-path="url(#clip992)" cx="1750.77" cy="861.6" r="14.4" fill="#c271d2" fill-rule="evenodd" fill-opacity="1" stroke="#000000" stroke-opacity="1" stroke-width="3.2"/>
<circle clip-path="url(#clip992)" cx="1914.1" cy="861.598" r="14.4" fill="#c271d2" fill-rule="evenodd" fill-opacity="1" stroke="#000000" stroke-opacity="1" stroke-width="3.2"/>
<circle clip-path="url(#clip992)" cx="2077.43" cy="861.632" r="14.4" fill="#c271d2" fill-rule="evenodd" fill-opacity="1" stroke="#000000" stroke-opacity="1" stroke-width="3.2"/>
<polyline clip-path="url(#clip992)" style="stroke:#ac8d18; stroke-linecap:round; stroke-linejoin:round; stroke-width:4; stroke-opacity:1; fill:none" points="
  607.443,181.357 770.775,465.577 934.107,1209.37 1097.44,1163.04 1260.77,954.675 1424.1,867.684 1587.44,865.209 1750.77,864.985 1914.1,864.968 2077.43,864.966 
  2240.76,864.974 
  "/>
<circle clip-path="url(#clip992)" cx="607.443" cy="181.357" r="14.4" fill="#ac8d18" fill-rule="evenodd" fill-opacity="1" stroke="#000000" stroke-opacity="1" stroke-width="3.2"/>
<circle clip-path="url(#clip992)" cx="770.775" cy="465.577" r="14.4" fill="#ac8d18" fill-rule="evenodd" fill-opacity="1" stroke="#000000" stroke-opacity="1" stroke-width="3.2"/>
<circle clip-path="url(#clip992)" cx="934.107" cy="1209.37" r="14.4" fill="#ac8d18" fill-rule="evenodd" fill-opacity="1" stroke="#000000" stroke-opacity="1" stroke-width="3.2"/>
<circle clip-path="url(#clip992)" cx="1097.44" cy="1163.04" r="14.4" fill="#ac8d18" fill-rule="evenodd" fill-opacity="1" stroke="#000000" stroke-opacity="1" stroke-width="3.2"/>
<circle clip-path="url(#clip992)" cx="1260.77" cy="954.675" r="14.4" fill="#ac8d18" fill-rule="evenodd" fill-opacity="1" stroke="#000000" stroke-opacity="1" stroke-width="3.2"/>
<circle clip-path="url(#clip992)" cx="1424.1" cy="867.684" r="14.4" fill="#ac8d18" fill-rule="evenodd" fill-opacity="1" stroke="#000000" stroke-opacity="1" stroke-width="3.2"/>
<circle clip-path="url(#clip992)" cx="1587.44" cy="865.209" r="14.4" fill="#ac8d18" fill-rule="evenodd" fill-opacity="1" stroke="#000000" stroke-opacity="1" stroke-width="3.2"/>
<circle clip-path="url(#clip992)" cx="1750.77" cy="864.985" r="14.4" fill="#ac8d18" fill-rule="evenodd" fill-opacity="1" stroke="#000000" stroke-opacity="1" stroke-width="3.2"/>
<circle clip-path="url(#clip992)" cx="1914.1" cy="864.968" r="14.4" fill="#ac8d18" fill-rule="evenodd" fill-opacity="1" stroke="#000000" stroke-opacity="1" stroke-width="3.2"/>
<circle clip-path="url(#clip992)" cx="2077.43" cy="864.966" r="14.4" fill="#ac8d18" fill-rule="evenodd" fill-opacity="1" stroke="#000000" stroke-opacity="1" stroke-width="3.2"/>
<circle clip-path="url(#clip992)" cx="2240.76" cy="864.974" r="14.4" fill="#ac8d18" fill-rule="evenodd" fill-opacity="1" stroke="#000000" stroke-opacity="1" stroke-width="3.2"/>
<path clip-path="url(#clip990)" d="
M1752.23 671.905 L2232.05 671.905 L2232.05 88.7049 L1752.23 88.7049  Z
  " fill="#ffffff" fill-rule="evenodd" fill-opacity="1"/>
<polyline clip-path="url(#clip990)" style="stroke:#000000; stroke-linecap:round; stroke-linejoin:round; stroke-width:4; stroke-opacity:1; fill:none" points="
  1752.23,671.905 2232.05,671.905 2232.05,88.7049 1752.23,88.7049 1752.23,671.905 
  "/>
<polyline clip-path="url(#clip990)" style="stroke:#009af9; stroke-linecap:round; stroke-linejoin:round; stroke-width:7.5; stroke-opacity:1; fill:none" points="
  1771.47,185.905 1886.89,185.905 
  "/>
<circle clip-path="url(#clip990)" cx="1829.18" cy="185.905" r="8.54973" fill="#009af9" fill-rule="evenodd" fill-opacity="1" stroke="#000000" stroke-opacity="1" stroke-width="7.59976"/>
<path clip-path="url(#clip990)" d="M1941.32 194.043 Q1941.32 185.232 1937.68 180.241 Q1934.08 175.206 1927.74 175.206 Q1921.4 175.206 1917.76 180.241 Q1914.15 185.232 1914.15 194.043 Q1914.15 202.854 1917.76 207.888 Q1921.4 212.88 1927.74 212.88 Q1934.08 212.88 1937.68 207.888 Q1941.32 202.854 1941.32 194.043 M1914.15 177.072 Q1916.67 172.732 1920.49 170.649 Q1924.35 168.522 1929.69 168.522 Q1938.55 168.522 1944.06 175.553 Q1949.61 182.585 1949.61 194.043 Q1949.61 205.501 1944.06 212.532 Q1938.55 219.564 1929.69 219.564 Q1924.35 219.564 1920.49 217.48 Q1916.67 215.354 1914.15 211.013 L1914.15 218.305 L1906.12 218.305 L1906.12 150.771 L1914.15 150.771 L1914.15 177.072 Z" fill="#000000" fill-rule="evenodd" fill-opacity="1" /><path clip-path="url(#clip990)" d="M1992.15 177.941 L2047.79 177.941 L2047.79 185.232 L1992.15 185.232 L1992.15 177.941 M1992.15 195.649 L2047.79 195.649 L2047.79 203.027 L1992.15 203.027 L1992.15 195.649 Z" fill="#000000" fill-rule="evenodd" fill-opacity="1" /><path clip-path="url(#clip990)" d="M2096.49 210.926 L2110.81 210.926 L2110.81 161.491 L2095.23 164.616 L2095.23 156.63 L2110.72 153.505 L2119.49 153.505 L2119.49 210.926 L2133.81 210.926 L2133.81 218.305 L2096.49 218.305 L2096.49 210.926 Z" fill="#000000" fill-rule="evenodd" fill-opacity="1" /><path clip-path="url(#clip990)" d="M2153.04 210.926 L2167.36 210.926 L2167.36 161.491 L2151.78 164.616 L2151.78 156.63 L2167.28 153.505 L2176.04 153.505 L2176.04 210.926 L2190.37 210.926 L2190.37 218.305 L2153.04 218.305 L2153.04 210.926 Z" fill="#000000" fill-rule="evenodd" fill-opacity="1" /><polyline clip-path="url(#clip990)" style="stroke:#e26f46; stroke-linecap:round; stroke-linejoin:round; stroke-width:7.5; stroke-opacity:1; fill:none" points="
  1771.47,283.105 1886.89,283.105 
  "/>
<circle clip-path="url(#clip990)" cx="1829.18" cy="283.105" r="8.54973" fill="#e26f46" fill-rule="evenodd" fill-opacity="1" stroke="#000000" stroke-opacity="1" stroke-width="7.59976"/>
<path clip-path="url(#clip990)" d="M1941.32 291.243 Q1941.32 282.432 1937.68 277.441 Q1934.08 272.406 1927.74 272.406 Q1921.4 272.406 1917.76 277.441 Q1914.15 282.432 1914.15 291.243 Q1914.15 300.054 1917.76 305.088 Q1921.4 310.08 1927.74 310.08 Q1934.08 310.08 1937.68 305.088 Q1941.32 300.054 1941.32 291.243 M1914.15 274.272 Q1916.67 269.932 1920.49 267.849 Q1924.35 265.722 1929.69 265.722 Q1938.55 265.722 1944.06 272.753 Q1949.61 279.785 1949.61 291.243 Q1949.61 302.701 1944.06 309.732 Q1938.55 316.764 1929.69 316.764 Q1924.35 316.764 1920.49 314.68 Q1916.67 312.554 1914.15 308.213 L1914.15 315.505 L1906.12 315.505 L1906.12 247.971 L1914.15 247.971 L1914.15 274.272 Z" fill="#000000" fill-rule="evenodd" fill-opacity="1" /><path clip-path="url(#clip990)" d="M1992.15 275.141 L2047.79 275.141 L2047.79 282.432 L1992.15 282.432 L1992.15 275.141 M1992.15 292.849 L2047.79 292.849 L2047.79 300.227 L1992.15 300.227 L1992.15 292.849 Z" fill="#000000" fill-rule="evenodd" fill-opacity="1" /><path clip-path="url(#clip990)" d="M2096.49 308.126 L2110.81 308.126 L2110.81 258.691 L2095.23 261.816 L2095.23 253.83 L2110.72 250.705 L2119.49 250.705 L2119.49 308.126 L2133.81 308.126 L2133.81 315.505 L2096.49 315.505 L2096.49 308.126 Z" fill="#000000" fill-rule="evenodd" fill-opacity="1" /><path clip-path="url(#clip990)" d="M2159.07 308.126 L2189.67 308.126 L2189.67 315.505 L2148.53 315.505 L2148.53 308.126 Q2153.52 302.962 2162.11 294.281 Q2170.75 285.557 2172.96 283.04 Q2177.17 278.309 2178.82 275.054 Q2180.52 271.755 2180.52 268.587 Q2180.52 263.422 2176.87 260.167 Q2173.27 256.911 2167.45 256.911 Q2163.33 256.911 2158.73 258.344 Q2154.17 259.776 2148.96 262.684 L2148.96 253.83 Q2154.26 251.703 2158.86 250.618 Q2163.46 249.533 2167.28 249.533 Q2177.35 249.533 2183.34 254.568 Q2189.33 259.602 2189.33 268.022 Q2189.33 272.016 2187.81 275.618 Q2186.33 279.177 2182.38 284.038 Q2181.3 285.297 2175.48 291.33 Q2169.66 297.319 2159.07 308.126 Z" fill="#000000" fill-rule="evenodd" fill-opacity="1" /><polyline clip-path="url(#clip990)" style="stroke:#3da44d; stroke-linecap:round; stroke-linejoin:round; stroke-width:7.5; stroke-opacity:1; fill:none" points="
  1771.47,380.305 1886.89,380.305 
  "/>
<circle clip-path="url(#clip990)" cx="1829.18" cy="380.305" r="8.54973" fill="#3da44d" fill-rule="evenodd" fill-opacity="1" stroke="#000000" stroke-opacity="1" stroke-width="7.59976"/>
<path clip-path="url(#clip990)" d="M1941.32 388.443 Q1941.32 379.632 1937.68 374.641 Q1934.08 369.606 1927.74 369.606 Q1921.4 369.606 1917.76 374.641 Q1914.15 379.632 1914.15 388.443 Q1914.15 397.254 1917.76 402.288 Q1921.4 407.28 1927.74 407.28 Q1934.08 407.28 1937.68 402.288 Q1941.32 397.254 1941.32 388.443 M1914.15 371.472 Q1916.67 367.132 1920.49 365.049 Q1924.35 362.922 1929.69 362.922 Q1938.55 362.922 1944.06 369.953 Q1949.61 376.985 1949.61 388.443 Q1949.61 399.901 1944.06 406.932 Q1938.55 413.964 1929.69 413.964 Q1924.35 413.964 1920.49 411.88 Q1916.67 409.754 1914.15 405.413 L1914.15 412.705 L1906.12 412.705 L1906.12 345.171 L1914.15 345.171 L1914.15 371.472 Z" fill="#000000" fill-rule="evenodd" fill-opacity="1" /><path clip-path="url(#clip990)" d="M1992.15 372.341 L2047.79 372.341 L2047.79 379.632 L1992.15 379.632 L1992.15 372.341 M1992.15 390.049 L2047.79 390.049 L2047.79 397.427 L1992.15 397.427 L1992.15 390.049 Z" fill="#000000" fill-rule="evenodd" fill-opacity="1" /><path clip-path="url(#clip990)" d="M2096.49 405.326 L2110.81 405.326 L2110.81 355.891 L2095.23 359.016 L2095.23 351.03 L2110.72 347.905 L2119.49 347.905 L2119.49 405.326 L2133.81 405.326 L2133.81 412.705 L2096.49 412.705 L2096.49 405.326 Z" fill="#000000" fill-rule="evenodd" fill-opacity="1" /><path clip-path="url(#clip990)" d="M2178.08 377.766 Q2184.38 379.111 2187.89 383.365 Q2191.45 387.618 2191.45 393.868 Q2191.45 403.46 2184.86 408.712 Q2178.26 413.964 2166.11 413.964 Q2162.03 413.964 2157.69 413.139 Q2153.39 412.358 2148.79 410.752 L2148.79 402.288 Q2152.43 404.415 2156.77 405.5 Q2161.11 406.585 2165.85 406.585 Q2174.09 406.585 2178.39 403.33 Q2182.73 400.075 2182.73 393.868 Q2182.73 388.139 2178.69 384.927 Q2174.7 381.672 2167.54 381.672 L2159.99 381.672 L2159.99 374.467 L2167.88 374.467 Q2174.35 374.467 2177.78 371.906 Q2181.21 369.302 2181.21 364.441 Q2181.21 359.45 2177.65 356.802 Q2174.13 354.111 2167.54 354.111 Q2163.94 354.111 2159.81 354.893 Q2155.69 355.674 2150.74 357.323 L2150.74 349.511 Q2155.73 348.122 2160.07 347.427 Q2164.46 346.733 2168.32 346.733 Q2178.3 346.733 2184.12 351.29 Q2189.93 355.804 2189.93 363.53 Q2189.93 368.912 2186.85 372.644 Q2183.77 376.334 2178.08 377.766 Z" fill="#000000" fill-rule="evenodd" fill-opacity="1" /><polyline clip-path="url(#clip990)" style="stroke:#c271d2; stroke-linecap:round; stroke-linejoin:round; stroke-width:7.5; stroke-opacity:1; fill:none" points="
  1771.47,477.505 1886.89,477.505 
  "/>
<circle clip-path="url(#clip990)" cx="1829.18" cy="477.505" r="8.54973" fill="#c271d2" fill-rule="evenodd" fill-opacity="1" stroke="#000000" stroke-opacity="1" stroke-width="7.59976"/>
<path clip-path="url(#clip990)" d="M1941.32 485.643 Q1941.32 476.832 1937.68 471.841 Q1934.08 466.806 1927.74 466.806 Q1921.4 466.806 1917.76 471.841 Q1914.15 476.832 1914.15 485.643 Q1914.15 494.454 1917.76 499.488 Q1921.4 504.48 1927.74 504.48 Q1934.08 504.48 1937.68 499.488 Q1941.32 494.454 1941.32 485.643 M1914.15 468.672 Q1916.67 464.332 1920.49 462.249 Q1924.35 460.122 1929.69 460.122 Q1938.55 460.122 1944.06 467.153 Q1949.61 474.185 1949.61 485.643 Q1949.61 497.101 1944.06 504.132 Q1938.55 511.164 1929.69 511.164 Q1924.35 511.164 1920.49 509.08 Q1916.67 506.954 1914.15 502.613 L1914.15 509.905 L1906.12 509.905 L1906.12 442.371 L1914.15 442.371 L1914.15 468.672 Z" fill="#000000" fill-rule="evenodd" fill-opacity="1" /><path clip-path="url(#clip990)" d="M1992.15 469.541 L2047.79 469.541 L2047.79 476.832 L1992.15 476.832 L1992.15 469.541 M1992.15 487.249 L2047.79 487.249 L2047.79 494.627 L1992.15 494.627 L1992.15 487.249 Z" fill="#000000" fill-rule="evenodd" fill-opacity="1" /><path clip-path="url(#clip990)" d="M2096.49 502.526 L2110.81 502.526 L2110.81 453.091 L2095.23 456.216 L2095.23 448.23 L2110.72 445.105 L2119.49 445.105 L2119.49 502.526 L2133.81 502.526 L2133.81 509.905 L2096.49 509.905 L2096.49 502.526 Z" fill="#000000" fill-rule="evenodd" fill-opacity="1" /><path clip-path="url(#clip990)" d="M2175.61 452.744 L2153.48 487.336 L2175.61 487.336 L2175.61 452.744 M2173.31 445.105 L2184.33 445.105 L2184.33 487.336 L2193.58 487.336 L2193.58 494.627 L2184.33 494.627 L2184.33 509.905 L2175.61 509.905 L2175.61 494.627 L2146.36 494.627 L2146.36 486.164 L2173.31 445.105 Z" fill="#000000" fill-rule="evenodd" fill-opacity="1" /><polyline clip-path="url(#clip990)" style="stroke:#ac8d18; stroke-linecap:round; stroke-linejoin:round; stroke-width:7.5; stroke-opacity:1; fill:none" points="
  1771.47,574.705 1886.89,574.705 
  "/>
<circle clip-path="url(#clip990)" cx="1829.18" cy="574.705" r="8.54973" fill="#ac8d18" fill-rule="evenodd" fill-opacity="1" stroke="#000000" stroke-opacity="1" stroke-width="7.59976"/>
<path clip-path="url(#clip990)" d="M1941.32 582.843 Q1941.32 574.032 1937.68 569.041 Q1934.08 564.006 1927.74 564.006 Q1921.4 564.006 1917.76 569.041 Q1914.15 574.032 1914.15 582.843 Q1914.15 591.654 1917.76 596.688 Q1921.4 601.68 1927.74 601.68 Q1934.08 601.68 1937.68 596.688 Q1941.32 591.654 1941.32 582.843 M1914.15 565.872 Q1916.67 561.532 1920.49 559.449 Q1924.35 557.322 1929.69 557.322 Q1938.55 557.322 1944.06 564.353 Q1949.61 571.385 1949.61 582.843 Q1949.61 594.301 1944.06 601.332 Q1938.55 608.364 1929.69 608.364 Q1924.35 608.364 1920.49 606.28 Q1916.67 604.154 1914.15 599.813 L1914.15 607.105 L1906.12 607.105 L1906.12 539.571 L1914.15 539.571 L1914.15 565.872 Z" fill="#000000" fill-rule="evenodd" fill-opacity="1" /><path clip-path="url(#clip990)" d="M1992.15 566.741 L2047.79 566.741 L2047.79 574.032 L1992.15 574.032 L1992.15 566.741 M1992.15 584.449 L2047.79 584.449 L2047.79 591.827 L1992.15 591.827 L1992.15 584.449 Z" fill="#000000" fill-rule="evenodd" fill-opacity="1" /><path clip-path="url(#clip990)" d="M2096.49 599.726 L2110.81 599.726 L2110.81 550.291 L2095.23 553.416 L2095.23 545.43 L2110.72 542.305 L2119.49 542.305 L2119.49 599.726 L2133.81 599.726 L2133.81 607.105 L2096.49 607.105 L2096.49 599.726 Z" fill="#000000" fill-rule="evenodd" fill-opacity="1" /><path clip-path="url(#clip990)" d="M2151.61 542.305 L2186.03 542.305 L2186.03 549.683 L2159.64 549.683 L2159.64 565.569 Q2161.55 564.918 2163.46 564.614 Q2165.37 564.267 2167.28 564.267 Q2178.13 564.267 2184.46 570.213 Q2190.8 576.159 2190.8 586.315 Q2190.8 596.775 2184.29 602.591 Q2177.78 608.364 2165.93 608.364 Q2161.85 608.364 2157.6 607.669 Q2153.39 606.975 2148.87 605.586 L2148.87 596.775 Q2152.78 598.902 2156.95 599.943 Q2161.11 600.985 2165.76 600.985 Q2173.27 600.985 2177.65 597.035 Q2182.03 593.086 2182.03 586.315 Q2182.03 579.544 2177.65 575.595 Q2173.27 571.645 2165.76 571.645 Q2162.24 571.645 2158.73 572.426 Q2155.25 573.207 2151.61 574.857 L2151.61 542.305 Z" fill="#000000" fill-rule="evenodd" fill-opacity="1" /></svg>
