<?xml version="1.0" standalone="no"?>
<svg xmlns="http://www.w3.org/2000/svg" xmlns:xlink="http://www.w3.org/1999/xlink" width="270pt" height="548pt" viewBox="0.00 0.00 270.03 548.00">
<g id="graph0" class="graph" transform="translate(4,544) scale(1)" data-name="DD">

<polygon fill="white" stroke="none" points="-4,4 -4,-544 266.03,-544 266.03,4 -4,4"/>
<!-- CONST NODES -->
<!--  0  -->
<g id="node2" class="node" pointer-events="visible" data-name=" 0 " data-comment="0">

<text text-anchor="middle" x="56.03" y="-445.8" font-family="Times,serif" font-size="14.00"> 0 </text>
</g>
<!--  1  -->
<g id="node3" class="node" pointer-events="visible" data-name=" 1 " data-comment="1">

<text text-anchor="middle" x="56.03" y="-373.8" font-family="Times,serif" font-size="14.00"> 1 </text>
</g>
<!--  0 &#45;&gt; 1  -->
<!--  2  -->
<g id="node4" class="node" pointer-events="visible" data-name=" 2 " data-comment="2">

<text text-anchor="middle" x="56.03" y="-301.8" font-family="Times,serif" font-size="14.00"> 2 </text>
</g>
<!--  1 &#45;&gt; 2  -->
<!--  3  -->
<g id="node5" class="node" pointer-events="visible" data-name=" 3 " data-comment="3">

<text text-anchor="middle" x="56.03" y="-229.8" font-family="Times,serif" font-size="14.00"> 3 </text>
</g>
<!--  2 &#45;&gt; 3  -->
<!--  4  -->
<g id="node6" class="node" pointer-events="visible" data-name=" 4 " data-comment="4">

<text text-anchor="middle" x="56.03" y="-157.8" font-family="Times,serif" font-size="14.00"> 4 </text>
</g>
<!--  3 &#45;&gt; 4  -->
<!--  5  -->
<g id="node7" class="node" pointer-events="visible" data-name=" 5 " data-comment="5">

<text text-anchor="middle" x="56.03" y="-85.8" font-family="Times,serif" font-size="14.00"> 5 </text>
</g>
<!--  4 &#45;&gt; 5  -->
<!--  5 &#45;&gt;CONST NODES -->
<!-- F0 -->
<g id="node8" class="node" pointer-events="visible" data-name="c" data-comment="F0">

<polygon fill="none" stroke="black" points="182.03,-540 128.03,-540 128.03,-504 182.03,-504 182.03,-540"/>
<text text-anchor="middle" x="155.03" y="-517.8" font-family="Times,serif" font-size="14.00">c</text>
</g>
<!-- 0x397 -->
<g id="node9" class="node" pointer-events="visible" data-name="0x397">

<ellipse fill="none" stroke="black" cx="155.03" cy="-450" rx="27" ry="18"/>
</g>
<!-- F0&#45;&gt;0x397 -->
<g id="edge7" class="edge" data-name="c-&gt;0x397" data-comment="F0-&gt;0x397">

<path fill="none" stroke="black" d="M155.03,-503.7C155.03,-492.85 155.03,-478.92 155.03,-468.1"/>
</g>
<!-- 0x393 -->
<g id="node10" class="node" pointer-events="visible" data-name="0x393">

<ellipse fill="none" stroke="black" cx="183.03" cy="-378" rx="27" ry="18"/>
</g>
<!-- 0x397&#45;&gt;0x393 -->
<g id="edge9" class="edge" data-name="0x397-&gt;0x393">

<path fill="none" stroke="black" stroke-dasharray="5,2" d="M161.67,-432.41C166.13,-421.25 171.99,-406.6 176.44,-395.47"/>
</g>
<!-- 0x392 -->
<g id="node11" class="node" pointer-events="visible" data-name="0x392">

<ellipse fill="none" stroke="black" cx="128.03" cy="-306" rx="27" ry="18"/>
</g>
<!-- 0x397&#45;&gt;0x392 -->
<g id="edge8" class="edge" data-name="0x397-&gt;0x392">

<path fill="none" stroke="black" d="M151.78,-431.87C146.59,-404.58 136.5,-351.52 131.3,-324.19"/>
</g>
<!-- 0x393&#45;&gt;0x392 -->
<g id="edge11" class="edge" data-name="0x393-&gt;0x392">

<path fill="none" stroke="black" stroke-dasharray="5,2" d="M170.83,-361.46C161.71,-349.86 149.31,-334.08 140.2,-322.49"/>
</g>
<!-- 0x391 -->
<g id="node12" class="node" pointer-events="visible" data-name="0x391">

<ellipse fill="none" stroke="black" cx="200.03" cy="-306" rx="27" ry="18"/>
</g>
<!-- 0x393&#45;&gt;0x391 -->
<g id="edge10" class="edge" data-name="0x393-&gt;0x391">

<path fill="none" stroke="black" d="M187.15,-360.05C189.78,-349.21 193.19,-335.18 195.84,-324.28"/>
</g>
<!-- 0x38d -->
<g id="node13" class="node" pointer-events="visible" data-name="0x38d">

<ellipse fill="none" stroke="black" cx="174.03" cy="-234" rx="27" ry="18"/>
</g>
<!-- 0x392&#45;&gt;0x38d -->
<g id="edge13" class="edge" data-name="0x392-&gt;0x38d">

<path fill="none" stroke="black" stroke-dasharray="5,2" d="M138.47,-289.12C146,-277.66 156.12,-262.26 163.64,-250.82"/>
</g>
<!-- 0x38c -->
<g id="node15" class="node" pointer-events="visible" data-name="0x38c">

<ellipse fill="none" stroke="black" cx="138.03" cy="-162" rx="27" ry="18"/>
</g>
<!-- 0x392&#45;&gt;0x38c -->
<g id="edge12" class="edge" data-name="0x392-&gt;0x38c">

<path fill="none" stroke="black" d="M129.26,-287.59C131.19,-260.19 134.91,-207.32 136.83,-180.11"/>
</g>
<!-- 0x391&#45;&gt;0x38d -->
<g id="edge14" class="edge" data-name="0x391-&gt;0x38d">

<path fill="none" stroke="black" d="M193.74,-288.05C189.65,-277.05 184.34,-262.76 180.27,-251.79"/>
</g>
<!-- 0x38b -->
<g id="node14" class="node" pointer-events="visible" data-name="0x38b">

<ellipse fill="none" stroke="black" cx="215.03" cy="-162" rx="27" ry="18"/>
</g>
<!-- 0x391&#45;&gt;0x38b -->
<g id="edge15" class="edge" data-name="0x391-&gt;0x38b">

<path fill="none" stroke="black" stroke-dasharray="5,2" d="M203.85,-287.9C206,-277.56 208.56,-264.08 210.03,-252 213.05,-227.27 214.25,-198.44 214.72,-180.45"/>
</g>
<!-- 0x38d&#45;&gt;0x38b -->
<g id="edge16" class="edge" data-name="0x38d-&gt;0x38b">

<path fill="none" stroke="black" d="M183.54,-216.76C190.17,-205.46 198.96,-190.44 205.58,-179.15"/>
</g>
<!-- 0x38d&#45;&gt;0x38c -->
<g id="edge17" class="edge" data-name="0x38d-&gt;0x38c">

<path fill="none" stroke="black" stroke-dasharray="5,2" d="M165.68,-216.76C159.87,-205.46 152.14,-190.44 146.34,-179.15"/>
</g>
<!-- 0x388 -->
<g id="node16" class="node" pointer-events="visible" data-name="0x388">

<ellipse fill="none" stroke="black" cx="181.03" cy="-90" rx="27" ry="18"/>
</g>
<!-- 0x38b&#45;&gt;0x388 -->
<g id="edge18" class="edge" data-name="0x38b-&gt;0x388">

<path fill="none" stroke="black" d="M206.98,-144.41C201.56,-133.25 194.44,-118.6 189.03,-107.47"/>
</g>
<!-- 0x365 -->
<g id="node18" class="node" pointer-events="visible" data-name="0x365">

<polygon fill="none" stroke="black" points="262.03,-36 208.03,-36 208.03,0 262.03,0 262.03,-36"/>
<text text-anchor="middle" x="235.03" y="-13.8" font-family="Times,serif" font-size="14.00">1</text>
</g>
<!-- 0x38b&#45;&gt;0x365 -->
<g id="edge19" class="edge" data-name="0x38b-&gt;0x365">

<path fill="none" stroke="black" stroke-dasharray="5,2" d="M217.49,-143.59C221.34,-116.19 228.79,-63.32 232.62,-36.11"/>
</g>
<!-- 0x38c&#45;&gt;0x388 -->
<g id="edge21" class="edge" data-name="0x38c-&gt;0x388">

<path fill="none" stroke="black" stroke-dasharray="5,2" d="M148.01,-144.76C154.95,-133.46 164.18,-118.44 171.11,-107.15"/>
</g>
<!-- 0x366 -->
<g id="node17" class="node" pointer-events="visible" data-name="0x366">

<polygon fill="none" stroke="black" points="188.03,-36 134.03,-36 134.03,0 188.03,0 188.03,-36"/>
<text text-anchor="middle" x="161.03" y="-13.8" font-family="Times,serif" font-size="14.00">0</text>
</g>
<!-- 0x38c&#45;&gt;0x366 -->
<g id="edge20" class="edge" data-name="0x38c-&gt;0x366">

<path fill="none" stroke="black" d="M138.29,-143.79C138.82,-125.76 140.39,-96.68 145.03,-72 147.31,-59.91 151.31,-46.66 154.74,-36.43"/>
</g>
<!-- 0x388&#45;&gt;0x366 -->
<g id="edge23" class="edge" data-name="0x388-&gt;0x366">

<path fill="none" stroke="black" stroke-dasharray="5,2" d="M176.19,-72.05C173.09,-61.21 169.09,-47.18 165.97,-36.28"/>
</g>
<!-- 0x388&#45;&gt;0x365 -->
<g id="edge22" class="edge" data-name="0x388-&gt;0x365">

<path fill="none" stroke="black" d="M193.02,-73.46C201.47,-62.51 212.8,-47.82 221.56,-36.46"/>
</g>
</g>
</svg>