<?xml version="1.0" encoding="UTF-8" standalone="no"?>
<!DOCTYPE svg PUBLIC "-//W3C//DTD SVG 1.1//EN"
 "http://www.w3.org/Graphics/SVG/1.1/DTD/svg11.dtd">
<!-- Generated by graphviz version 2.43.0 (0)
 -->
<!-- Title: DD Pages: 1 -->
<svg width="540pt" height="633pt"
 viewBox="0.00 0.00 540.00 632.66" xmlns="http://www.w3.org/2000/svg" xmlns:xlink="http://www.w3.org/1999/xlink">
<g id="graph0" class="graph" transform="scale(2.35 2.35) rotate(0) translate(4 1480)">
<title>DD</title>
<polygon fill="white" stroke="transparent" points="-4,4 -4,-1480 1262.65,-1480 1262.65,4 -4,4"/>
<!-- CONST NODES -->
<!--  1  -->
<g id="node2" class="node">
<title> 1 </title>
<text text-anchor="middle" x="64" y="-1382.3" font-family="Times,serif" font-size="14.00"> 1 </text>
</g>
<!--  2  -->
<g id="node3" class="node">
<title> 2 </title>
<text text-anchor="middle" x="64" y="-1310.3" font-family="Times,serif" font-size="14.00"> 2 </text>
</g>
<!--  1 &#45;&gt; 2  -->
<!--  3  -->
<g id="node4" class="node">
<title> 3 </title>
<text text-anchor="middle" x="64" y="-1238.3" font-family="Times,serif" font-size="14.00"> 3 </text>
</g>
<!--  2 &#45;&gt; 3  -->
<!--  4  -->
<g id="node5" class="node">
<title> 4 </title>
<text text-anchor="middle" x="64" y="-1166.3" font-family="Times,serif" font-size="14.00"> 4 </text>
</g>
<!--  3 &#45;&gt; 4  -->
<!--  5  -->
<g id="node6" class="node">
<title> 5 </title>
<text text-anchor="middle" x="64" y="-1094.3" font-family="Times,serif" font-size="14.00"> 5 </text>
</g>
<!--  4 &#45;&gt; 5  -->
<!--  6  -->
<g id="node7" class="node">
<title> 6 </title>
<text text-anchor="middle" x="64" y="-1022.3" font-family="Times,serif" font-size="14.00"> 6 </text>
</g>
<!--  5 &#45;&gt; 6  -->
<!--  7  -->
<g id="node8" class="node">
<title> 7 </title>
<text text-anchor="middle" x="64" y="-950.3" font-family="Times,serif" font-size="14.00"> 7 </text>
</g>
<!--  6 &#45;&gt; 7  -->
<!--  8  -->
<g id="node9" class="node">
<title> 8 </title>
<text text-anchor="middle" x="64" y="-878.3" font-family="Times,serif" font-size="14.00"> 8 </text>
</g>
<!--  7 &#45;&gt; 8  -->
<!--  9  -->
<g id="node10" class="node">
<title> 9 </title>
<text text-anchor="middle" x="64" y="-806.3" font-family="Times,serif" font-size="14.00"> 9 </text>
</g>
<!--  8 &#45;&gt; 9  -->
<!--  10  -->
<g id="node11" class="node">
<title> 10 </title>
<text text-anchor="middle" x="64" y="-734.3" font-family="Times,serif" font-size="14.00"> 10 </text>
</g>
<!--  9 &#45;&gt; 10  -->
<!--  12  -->
<g id="node12" class="node">
<title> 12 </title>
<text text-anchor="middle" x="64" y="-662.3" font-family="Times,serif" font-size="14.00"> 12 </text>
</g>
<!--  10 &#45;&gt; 12  -->
<!--  13  -->
<g id="node13" class="node">
<title> 13 </title>
<text text-anchor="middle" x="64" y="-590.3" font-family="Times,serif" font-size="14.00"> 13 </text>
</g>
<!--  12 &#45;&gt; 13  -->
<!--  14  -->
<g id="node14" class="node">
<title> 14 </title>
<text text-anchor="middle" x="64" y="-518.3" font-family="Times,serif" font-size="14.00"> 14 </text>
</g>
<!--  13 &#45;&gt; 14  -->
<!--  15  -->
<g id="node15" class="node">
<title> 15 </title>
<text text-anchor="middle" x="64" y="-446.3" font-family="Times,serif" font-size="14.00"> 15 </text>
</g>
<!--  14 &#45;&gt; 15  -->
<!--  16  -->
<g id="node16" class="node">
<title> 16 </title>
<text text-anchor="middle" x="64" y="-374.3" font-family="Times,serif" font-size="14.00"> 16 </text>
</g>
<!--  15 &#45;&gt; 16  -->
<!--  17  -->
<g id="node17" class="node">
<title> 17 </title>
<text text-anchor="middle" x="64" y="-302.3" font-family="Times,serif" font-size="14.00"> 17 </text>
</g>
<!--  16 &#45;&gt; 17  -->
<!--  18  -->
<g id="node18" class="node">
<title> 18 </title>
<text text-anchor="middle" x="64" y="-230.3" font-family="Times,serif" font-size="14.00"> 18 </text>
</g>
<!--  17 &#45;&gt; 18  -->
<!--  19  -->
<g id="node19" class="node">
<title> 19 </title>
<text text-anchor="middle" x="64" y="-158.3" font-family="Times,serif" font-size="14.00"> 19 </text>
</g>
<!--  18 &#45;&gt; 19  -->
<!--  21  -->
<g id="node20" class="node">
<title> 21 </title>
<text text-anchor="middle" x="64" y="-86.3" font-family="Times,serif" font-size="14.00"> 21 </text>
</g>
<!--  19 &#45;&gt; 21  -->
<!--  21 &#45;&gt;CONST NODES -->
<!-- F0 -->
<g id="node21" class="node">
<title>F0</title>
<polygon fill="none" stroke="black" points="443,-1476 389,-1476 389,-1440 443,-1440 443,-1476"/>
<text text-anchor="middle" x="416" y="-1454.3" font-family="Times,serif" font-size="14.00">F0</text>
</g>
<!-- F1 -->
<g id="node22" class="node">
<title>F1</title>
<polygon fill="none" stroke="black" points="528,-1476 474,-1476 474,-1440 528,-1440 528,-1476"/>
<text text-anchor="middle" x="501" y="-1454.3" font-family="Times,serif" font-size="14.00">F1</text>
</g>
<!-- F0&#45;&gt;F1 -->
<!-- 0x608 -->
<g id="node27" class="node">
<title>0x608</title>
<ellipse fill="none" stroke="black" cx="365" cy="-1386" rx="39.79" ry="18"/>
<text text-anchor="middle" x="365" y="-1382.3" font-family="Times,serif" font-size="14.00">0x608</text>
</g>
<!-- F0&#45;&gt;0x608 -->
<g id="edge25" class="edge">
<title>F0&#45;&gt;0x608</title>
<path fill="none" stroke="black" d="M403.39,-1439.7C395.37,-1428.68 385.04,-1414.5 377.11,-1403.62"/>
</g>
<!-- F2 -->
<g id="node23" class="node">
<title>F2</title>
<polygon fill="none" stroke="black" points="712,-1476 658,-1476 658,-1440 712,-1440 712,-1476"/>
<text text-anchor="middle" x="685" y="-1454.3" font-family="Times,serif" font-size="14.00">F2</text>
</g>
<!-- F1&#45;&gt;F2 -->
<!-- 0x610 -->
<g id="node28" class="node">
<title>0x610</title>
<ellipse fill="none" stroke="black" cx="501" cy="-1386" rx="39.79" ry="18"/>
<text text-anchor="middle" x="501" y="-1382.3" font-family="Times,serif" font-size="14.00">0x610</text>
</g>
<!-- F1&#45;&gt;0x610 -->
<g id="edge26" class="edge">
<title>F1&#45;&gt;0x610</title>
<path fill="none" stroke="black" d="M501,-1439.7C501,-1428.85 501,-1414.92 501,-1404.1"/>
</g>
<!-- F3 -->
<g id="node24" class="node">
<title>F3</title>
<polygon fill="none" stroke="black" points="886,-1476 832,-1476 832,-1440 886,-1440 886,-1476"/>
<text text-anchor="middle" x="859" y="-1454.3" font-family="Times,serif" font-size="14.00">F3</text>
</g>
<!-- F2&#45;&gt;F3 -->
<!-- 0x616 -->
<g id="node29" class="node">
<title>0x616</title>
<ellipse fill="none" stroke="black" cx="685" cy="-1386" rx="39.79" ry="18"/>
<text text-anchor="middle" x="685" y="-1382.3" font-family="Times,serif" font-size="14.00">0x616</text>
</g>
<!-- F2&#45;&gt;0x616 -->
<g id="edge27" class="edge">
<title>F2&#45;&gt;0x616</title>
<path fill="none" stroke="black" d="M685,-1439.7C685,-1428.85 685,-1414.92 685,-1404.1"/>
</g>
<!-- F4 -->
<g id="node25" class="node">
<title>F4</title>
<polygon fill="none" stroke="black" points="1140,-1476 1086,-1476 1086,-1440 1140,-1440 1140,-1476"/>
<text text-anchor="middle" x="1113" y="-1454.3" font-family="Times,serif" font-size="14.00">F4</text>
</g>
<!-- F3&#45;&gt;F4 -->
<!-- 0x619 -->
<g id="node30" class="node">
<title>0x619</title>
<ellipse fill="none" stroke="black" cx="859" cy="-1386" rx="39.79" ry="18"/>
<text text-anchor="middle" x="859" y="-1382.3" font-family="Times,serif" font-size="14.00">0x619</text>
</g>
<!-- F3&#45;&gt;0x619 -->
<g id="edge28" class="edge">
<title>F3&#45;&gt;0x619</title>
<path fill="none" stroke="black" d="M859,-1439.7C859,-1428.85 859,-1414.92 859,-1404.1"/>
</g>
<!-- F5 -->
<g id="node26" class="node">
<title>F5</title>
<polygon fill="none" stroke="black" points="1214,-1476 1160,-1476 1160,-1440 1214,-1440 1214,-1476"/>
<text text-anchor="middle" x="1187" y="-1454.3" font-family="Times,serif" font-size="14.00">F5</text>
</g>
<!-- F4&#45;&gt;F5 -->
<!-- 0x61b -->
<g id="node56" class="node">
<title>0x61b</title>
<ellipse fill="none" stroke="black" cx="1083" cy="-378" rx="39.79" ry="18"/>
<text text-anchor="middle" x="1083" y="-374.3" font-family="Times,serif" font-size="14.00">0x61b</text>
</g>
<!-- F4&#45;&gt;0x61b -->
<g id="edge29" class="edge">
<title>F4&#45;&gt;0x61b</title>
<path fill="none" stroke="black" d="M1113,-1439.95C1113,-1413.29 1113,-1360.11 1113,-1315 1113,-1315 1113,-1315 1113,-521 1113,-474.89 1097.67,-422.14 1088.93,-395.81"/>
</g>
<!-- 0x61d -->
<g id="node57" class="node">
<title>0x61d</title>
<ellipse fill="none" stroke="black" cx="1219" cy="-378" rx="39.79" ry="18"/>
<text text-anchor="middle" x="1219" y="-374.3" font-family="Times,serif" font-size="14.00">0x61d</text>
</g>
<!-- F5&#45;&gt;0x61d -->
<g id="edge30" class="edge">
<title>F5&#45;&gt;0x61d</title>
<path fill="none" stroke="black" d="M1190.44,-1439.59C1195.41,-1412.9 1204,-1360.19 1204,-1315 1204,-1315 1204,-1315 1204,-521 1204,-475.63 1211.67,-422.57 1216.04,-395.99"/>
</g>
<!-- 0x607 -->
<g id="node31" class="node">
<title>0x607</title>
<ellipse fill="none" stroke="black" cx="365" cy="-1314" rx="39.79" ry="18"/>
<text text-anchor="middle" x="365" y="-1310.3" font-family="Times,serif" font-size="14.00">0x607</text>
</g>
<!-- 0x608&#45;&gt;0x607 -->
<g id="edge31" class="edge">
<title>0x608&#45;&gt;0x607</title>
<path fill="none" stroke="black" d="M365,-1367.7C365,-1356.85 365,-1342.92 365,-1332.1"/>
</g>
<!-- 0x606 -->
<g id="node37" class="node">
<title>0x606</title>
<ellipse fill="none" stroke="black" cx="297" cy="-1170" rx="39.79" ry="18"/>
<text text-anchor="middle" x="297" y="-1166.3" font-family="Times,serif" font-size="14.00">0x606</text>
</g>
<!-- 0x608&#45;&gt;0x606 -->
<g id="edge32" class="edge">
<title>0x608&#45;&gt;0x606</title>
<path fill="none" stroke="black" stroke-dasharray="5,2" d="M346.03,-1369.87C335.35,-1360.23 322.82,-1346.8 316,-1332 293.74,-1283.69 293.99,-1218.96 295.65,-1188.38"/>
</g>
<!-- 0x60f -->
<g id="node33" class="node">
<title>0x60f</title>
<ellipse fill="none" stroke="black" cx="534" cy="-1314" rx="37.09" ry="18"/>
<text text-anchor="middle" x="534" y="-1310.3" font-family="Times,serif" font-size="14.00">0x60f</text>
</g>
<!-- 0x610&#45;&gt;0x60f -->
<g id="edge33" class="edge">
<title>0x610&#45;&gt;0x60f</title>
<path fill="none" stroke="black" d="M508.99,-1368.05C514.18,-1357.05 520.91,-1342.76 526.09,-1331.79"/>
</g>
<!-- 0x60e -->
<g id="node35" class="node">
<title>0x60e</title>
<ellipse fill="none" stroke="black" cx="476" cy="-1170" rx="38.99" ry="18"/>
<text text-anchor="middle" x="476" y="-1166.3" font-family="Times,serif" font-size="14.00">0x60e</text>
</g>
<!-- 0x610&#45;&gt;0x60e -->
<g id="edge34" class="edge">
<title>0x610&#45;&gt;0x60e</title>
<path fill="none" stroke="black" stroke-dasharray="5,2" d="M496.06,-1367.96C493.25,-1357.64 489.93,-1344.16 488,-1332 479.74,-1279.96 477.14,-1217.52 476.34,-1188.03"/>
</g>
<!-- 0x615 -->
<g id="node32" class="node">
<title>0x615</title>
<ellipse fill="none" stroke="black" cx="651" cy="-1314" rx="39.79" ry="18"/>
<text text-anchor="middle" x="651" y="-1310.3" font-family="Times,serif" font-size="14.00">0x615</text>
</g>
<!-- 0x616&#45;&gt;0x615 -->
<g id="edge35" class="edge">
<title>0x616&#45;&gt;0x615</title>
<path fill="none" stroke="black" d="M676.77,-1368.05C671.42,-1357.05 664.49,-1342.76 659.15,-1331.79"/>
</g>
<!-- 0x613 -->
<g id="node36" class="node">
<title>0x613</title>
<ellipse fill="none" stroke="black" cx="689" cy="-1170" rx="39.79" ry="18"/>
<text text-anchor="middle" x="689" y="-1166.3" font-family="Times,serif" font-size="14.00">0x613</text>
</g>
<!-- 0x616&#45;&gt;0x613 -->
<g id="edge36" class="edge">
<title>0x616&#45;&gt;0x613</title>
<path fill="none" stroke="black" stroke-dasharray="5,2" d="M691.08,-1368.07C694.45,-1357.79 698.29,-1344.31 700,-1332 707.24,-1279.83 697.91,-1217.46 692.45,-1188"/>
</g>
<!-- 0x617 -->
<g id="node46" class="node">
<title>0x617</title>
<ellipse fill="none" stroke="black" cx="516" cy="-666" rx="39.79" ry="18"/>
<text text-anchor="middle" x="516" y="-662.3" font-family="Times,serif" font-size="14.00">0x617</text>
</g>
<!-- 0x619&#45;&gt;0x617 -->
<g id="edge37" class="edge">
<title>0x619&#45;&gt;0x617</title>
<path fill="none" stroke="black" d="M856.85,-1367.65C846.97,-1293.25 800.93,-995.63 674,-792 640.97,-739.02 577.19,-699.15 541.59,-679.86"/>
</g>
<!-- 0x618 -->
<g id="node47" class="node">
<title>0x618</title>
<ellipse fill="none" stroke="black" cx="949" cy="-666" rx="39.79" ry="18"/>
<text text-anchor="middle" x="949" y="-662.3" font-family="Times,serif" font-size="14.00">0x618</text>
</g>
<!-- 0x619&#45;&gt;0x618 -->
<g id="edge38" class="edge">
<title>0x619&#45;&gt;0x618</title>
<path fill="none" stroke="black" stroke-dasharray="5,2" d="M872.36,-1368.67C891.64,-1343.38 925,-1292.48 925,-1243 925,-1243 925,-1243 925,-809 925,-763.25 937.26,-710.34 944.26,-683.89"/>
</g>
<!-- 0x607&#45;&gt;0x606 -->
<g id="edge39" class="edge">
<title>0x607&#45;&gt;0x606</title>
<path fill="none" stroke="black" d="M356.93,-1296.15C343.85,-1268.82 318.14,-1215.14 305.06,-1187.82"/>
</g>
<!-- 0x602 -->
<g id="node44" class="node">
<title>0x602</title>
<ellipse fill="none" stroke="black" cx="331" cy="-810" rx="39.79" ry="18"/>
<text text-anchor="middle" x="331" y="-806.3" font-family="Times,serif" font-size="14.00">0x602</text>
</g>
<!-- 0x607&#45;&gt;0x602 -->
<g id="edge40" class="edge">
<title>0x607&#45;&gt;0x602</title>
<path fill="none" stroke="black" stroke-dasharray="5,2" d="M365.79,-1295.96C366.96,-1269.3 369,-1216.13 369,-1171 369,-1171 369,-1171 369,-953 369,-906.55 349.79,-854.38 338.69,-828.09"/>
</g>
<!-- 0x614 -->
<g id="node34" class="node">
<title>0x614</title>
<ellipse fill="none" stroke="black" cx="613" cy="-1242" rx="39.79" ry="18"/>
<text text-anchor="middle" x="613" y="-1238.3" font-family="Times,serif" font-size="14.00">0x614</text>
</g>
<!-- 0x615&#45;&gt;0x614 -->
<g id="edge42" class="edge">
<title>0x615&#45;&gt;0x614</title>
<path fill="none" stroke="black" stroke-dasharray="5,2" d="M641.99,-1296.41C636.02,-1285.41 628.21,-1271.03 622.2,-1259.96"/>
</g>
<!-- 0x615&#45;&gt;0x613 -->
<g id="edge41" class="edge">
<title>0x615&#45;&gt;0x613</title>
<path fill="none" stroke="black" d="M655.58,-1295.87C662.89,-1268.58 677.09,-1215.52 684.4,-1188.19"/>
</g>
<!-- 0x60f&#45;&gt;0x60e -->
<g id="edge43" class="edge">
<title>0x60f&#45;&gt;0x60e</title>
<path fill="none" stroke="black" d="M527.12,-1296.15C515.96,-1268.82 494.03,-1215.14 482.87,-1187.82"/>
</g>
<!-- 0x60c -->
<g id="node40" class="node">
<title>0x60c</title>
<ellipse fill="none" stroke="black" cx="536" cy="-1026" rx="38.19" ry="18"/>
<text text-anchor="middle" x="536" y="-1022.3" font-family="Times,serif" font-size="14.00">0x60c</text>
</g>
<!-- 0x60f&#45;&gt;0x60c -->
<g id="edge44" class="edge">
<title>0x60f&#45;&gt;0x60c</title>
<path fill="none" stroke="black" stroke-dasharray="5,2" d="M534.12,-1295.97C534.47,-1245.22 535.52,-1095.41 535.88,-1044.31"/>
</g>
<!-- 0x611 -->
<g id="node48" class="node">
<title>0x611</title>
<ellipse fill="none" stroke="black" cx="410" cy="-594" rx="39.79" ry="18"/>
<text text-anchor="middle" x="410" y="-590.3" font-family="Times,serif" font-size="14.00">0x611</text>
</g>
<!-- 0x614&#45;&gt;0x611 -->
<g id="edge45" class="edge">
<title>0x614&#45;&gt;0x611</title>
<path fill="none" stroke="black" d="M578.81,-1232.68C541.34,-1223.22 479.7,-1206.66 428,-1188 390.56,-1174.49 382.82,-1167.12 346,-1152 304.62,-1135 285.14,-1146.05 252,-1116 198.99,-1067.94 196.44,-1041.64 180,-972 161.83,-895.02 139.78,-827.06 209,-720 249.27,-657.71 332.68,-621.12 378.37,-604.95"/>
</g>
<!-- 0x612 -->
<g id="node49" class="node">
<title>0x612</title>
<ellipse fill="none" stroke="black" cx="863" cy="-594" rx="39.79" ry="18"/>
<text text-anchor="middle" x="863" y="-590.3" font-family="Times,serif" font-size="14.00">0x612</text>
</g>
<!-- 0x614&#45;&gt;0x612 -->
<g id="edge46" class="edge">
<title>0x614&#45;&gt;0x612</title>
<path fill="none" stroke="black" stroke-dasharray="5,2" d="M616.72,-1223.75C621.01,-1205.43 628.92,-1175.88 640,-1152 699.92,-1022.83 814,-1025.39 814,-883 814,-883 814,-883 814,-737 814,-689.54 838.77,-637.79 853.08,-611.84"/>
</g>
<!-- 0x60d -->
<g id="node38" class="node">
<title>0x60d</title>
<ellipse fill="none" stroke="black" cx="477" cy="-1098" rx="39.79" ry="18"/>
<text text-anchor="middle" x="477" y="-1094.3" font-family="Times,serif" font-size="14.00">0x60d</text>
</g>
<!-- 0x60e&#45;&gt;0x60d -->
<g id="edge47" class="edge">
<title>0x60e&#45;&gt;0x60d</title>
<path fill="none" stroke="black" d="M476.25,-1151.7C476.4,-1140.85 476.6,-1126.92 476.76,-1116.1"/>
</g>
<!-- 0x60b -->
<g id="node41" class="node">
<title>0x60b</title>
<ellipse fill="none" stroke="black" cx="437" cy="-954" rx="39.79" ry="18"/>
<text text-anchor="middle" x="437" y="-950.3" font-family="Times,serif" font-size="14.00">0x60b</text>
</g>
<!-- 0x60e&#45;&gt;0x60b -->
<g id="edge48" class="edge">
<title>0x60e&#45;&gt;0x60b</title>
<path fill="none" stroke="black" stroke-dasharray="5,2" d="M456.78,-1154.06C446.09,-1144.49 433.81,-1131.06 428,-1116 408.97,-1066.63 422.94,-1002.4 431.56,-972.17"/>
</g>
<!-- 0x613&#45;&gt;0x611 -->
<g id="edge49" class="edge">
<title>0x613&#45;&gt;0x611</title>
<path fill="none" stroke="black" d="M683.27,-1152.18C674.82,-1125.82 660,-1073.05 660,-1027 660,-1027 660,-1027 660,-809 660,-706.8 539.08,-756.45 467,-684 445.39,-662.28 427.72,-631.02 418.04,-611.91"/>
</g>
<!-- 0x613&#45;&gt;0x612 -->
<g id="edge50" class="edge">
<title>0x613&#45;&gt;0x612</title>
<path fill="none" stroke="black" stroke-dasharray="5,2" d="M720.58,-1158.85C769.74,-1140.85 859,-1098.34 859,-1027 859,-1027 859,-1027 859,-737 859,-691.87 861.04,-638.7 862.21,-612.04"/>
</g>
<!-- 0x605 -->
<g id="node39" class="node">
<title>0x605</title>
<ellipse fill="none" stroke="black" cx="301" cy="-1098" rx="39.79" ry="18"/>
<text text-anchor="middle" x="301" y="-1094.3" font-family="Times,serif" font-size="14.00">0x605</text>
</g>
<!-- 0x606&#45;&gt;0x605 -->
<g id="edge51" class="edge">
<title>0x606&#45;&gt;0x605</title>
<path fill="none" stroke="black" d="M297.99,-1151.7C298.61,-1140.85 299.4,-1126.92 300.02,-1116.1"/>
</g>
<!-- 0x604 -->
<g id="node42" class="node">
<title>0x604</title>
<ellipse fill="none" stroke="black" cx="229" cy="-954" rx="39.79" ry="18"/>
<text text-anchor="middle" x="229" y="-950.3" font-family="Times,serif" font-size="14.00">0x604</text>
</g>
<!-- 0x606&#45;&gt;0x604 -->
<g id="edge52" class="edge">
<title>0x606&#45;&gt;0x604</title>
<path fill="none" stroke="black" stroke-dasharray="5,2" d="M279.71,-1153.52C269.94,-1143.75 258.44,-1130.31 252,-1116 230.1,-1067.34 228,-1002.77 228.4,-972.31"/>
</g>
<!-- 0x60d&#45;&gt;0x60c -->
<g id="edge54" class="edge">
<title>0x60d&#45;&gt;0x60c</title>
<path fill="none" stroke="black" stroke-dasharray="5,2" d="M490.68,-1080.76C500.22,-1069.46 512.87,-1054.44 522.39,-1043.15"/>
</g>
<!-- 0x60d&#45;&gt;0x60b -->
<g id="edge53" class="edge">
<title>0x60d&#45;&gt;0x60b</title>
<path fill="none" stroke="black" d="M472.18,-1079.87C464.49,-1052.58 449.54,-999.52 441.84,-972.19"/>
</g>
<!-- 0x605&#45;&gt;0x604 -->
<g id="edge55" class="edge">
<title>0x605&#45;&gt;0x604</title>
<path fill="none" stroke="black" d="M292.46,-1080.15C278.6,-1052.82 251.38,-999.14 237.53,-971.82"/>
</g>
<!-- 0x605&#45;&gt;0x602 -->
<g id="edge56" class="edge">
<title>0x605&#45;&gt;0x602</title>
<path fill="none" stroke="black" stroke-dasharray="5,2" d="M302.79,-1079.97C308.11,-1029.22 323.82,-879.41 329.18,-828.31"/>
</g>
<!-- 0x609 -->
<g id="node50" class="node">
<title>0x609</title>
<ellipse fill="none" stroke="black" cx="334" cy="-522" rx="39.79" ry="18"/>
<text text-anchor="middle" x="334" y="-518.3" font-family="Times,serif" font-size="14.00">0x609</text>
</g>
<!-- 0x60c&#45;&gt;0x609 -->
<g id="edge57" class="edge">
<title>0x60c&#45;&gt;0x609</title>
<path fill="none" stroke="black" d="M528.18,-1008.34C502.31,-952.87 417.91,-769.04 361,-612 352.03,-587.26 343.54,-557.94 338.55,-539.91"/>
</g>
<!-- 0x60a -->
<g id="node51" class="node">
<title>0x60a</title>
<ellipse fill="none" stroke="black" cx="794" cy="-522" rx="38.99" ry="18"/>
<text text-anchor="middle" x="794" y="-518.3" font-family="Times,serif" font-size="14.00">0x60a</text>
</g>
<!-- 0x60c&#45;&gt;0x60a -->
<g id="edge58" class="edge">
<title>0x60c&#45;&gt;0x60a</title>
<path fill="none" stroke="black" stroke-dasharray="5,2" d="M572.45,-1020.41C639.59,-1009.7 776,-976.44 776,-883 776,-883 776,-883 776,-665 776,-619.52 785.2,-566.5 790.44,-539.96"/>
</g>
<!-- 0x60b&#45;&gt;0x609 -->
<g id="edge59" class="edge">
<title>0x60b&#45;&gt;0x609</title>
<path fill="none" stroke="black" d="M398.57,-949.4C341.11,-943.15 237.07,-928.17 214,-900 119.79,-784.94 270.75,-594.86 319.58,-538.94"/>
</g>
<!-- 0x60b&#45;&gt;0x60a -->
<g id="edge60" class="edge">
<title>0x60b&#45;&gt;0x60a</title>
<path fill="none" stroke="black" stroke-dasharray="5,2" d="M476.66,-952.04C558.39,-947.73 738,-925.26 738,-811 738,-811 738,-811 738,-665 738,-624.03 745.92,-613.68 762,-576 767.48,-563.15 775.65,-549.68 782.36,-539.54"/>
</g>
<!-- 0x603 -->
<g id="node43" class="node">
<title>0x603</title>
<ellipse fill="none" stroke="black" cx="263" cy="-882" rx="39.79" ry="18"/>
<text text-anchor="middle" x="263" y="-878.3" font-family="Times,serif" font-size="14.00">0x603</text>
</g>
<!-- 0x604&#45;&gt;0x603 -->
<g id="edge61" class="edge">
<title>0x604&#45;&gt;0x603</title>
<path fill="none" stroke="black" d="M237.23,-936.05C242.58,-925.05 249.51,-910.76 254.85,-899.79"/>
</g>
<!-- 0x601 -->
<g id="node45" class="node">
<title>0x601</title>
<ellipse fill="none" stroke="black" cx="258" cy="-738" rx="39.79" ry="18"/>
<text text-anchor="middle" x="258" y="-734.3" font-family="Times,serif" font-size="14.00">0x601</text>
</g>
<!-- 0x604&#45;&gt;0x601 -->
<g id="edge62" class="edge">
<title>0x604&#45;&gt;0x601</title>
<path fill="none" stroke="black" stroke-dasharray="5,2" d="M222.92,-936.07C219.55,-925.79 215.71,-912.31 214,-900 206.51,-846.04 233.75,-784.51 248.75,-755.62"/>
</g>
<!-- 0x603&#45;&gt;0x602 -->
<g id="edge64" class="edge">
<title>0x603&#45;&gt;0x602</title>
<path fill="none" stroke="black" stroke-dasharray="5,2" d="M278.43,-865.12C289.56,-853.66 304.52,-838.26 315.63,-826.82"/>
</g>
<!-- 0x603&#45;&gt;0x601 -->
<g id="edge63" class="edge">
<title>0x603&#45;&gt;0x601</title>
<path fill="none" stroke="black" d="M262.4,-863.87C261.44,-836.58 259.57,-783.52 258.61,-756.19"/>
</g>
<!-- 0x5ff -->
<g id="node52" class="node">
<title>0x5ff</title>
<ellipse fill="none" stroke="black" cx="229" cy="-450" rx="34.39" ry="18"/>
<text text-anchor="middle" x="229" y="-446.3" font-family="Times,serif" font-size="14.00">0x5ff</text>
</g>
<!-- 0x602&#45;&gt;0x5ff -->
<g id="edge65" class="edge">
<title>0x602&#45;&gt;0x5ff</title>
<path fill="none" stroke="black" d="M327.38,-791.9C317.3,-745.17 287.27,-611.65 251,-504 246.86,-491.73 241.26,-478.25 236.74,-467.96"/>
</g>
<!-- 0x600 -->
<g id="node53" class="node">
<title>0x600</title>
<ellipse fill="none" stroke="black" cx="682" cy="-450" rx="39.79" ry="18"/>
<text text-anchor="middle" x="682" y="-446.3" font-family="Times,serif" font-size="14.00">0x600</text>
</g>
<!-- 0x602&#45;&gt;0x600 -->
<g id="edge66" class="edge">
<title>0x602&#45;&gt;0x600</title>
<path fill="none" stroke="black" stroke-dasharray="5,2" d="M370.55,-807.48C450.11,-802.07 622,-777.6 622,-667 622,-667 622,-667 622,-593 622,-544.29 652.33,-493.07 669.86,-467.53"/>
</g>
<!-- 0x601&#45;&gt;0x5ff -->
<g id="edge67" class="edge">
<title>0x601&#45;&gt;0x5ff</title>
<path fill="none" stroke="black" d="M256.27,-719.97C251.13,-669.22 235.94,-519.41 230.75,-468.31"/>
</g>
<!-- 0x601&#45;&gt;0x600 -->
<g id="edge68" class="edge">
<title>0x601&#45;&gt;0x600</title>
<path fill="none" stroke="black" stroke-dasharray="5,2" d="M297.42,-735.45C371.37,-731.73 526.89,-719.76 565,-684 624.98,-627.72 562.11,-572.26 608,-504 619.81,-486.43 639.54,-472.73 655.65,-463.66"/>
</g>
<!-- 0x5fe -->
<g id="node54" class="node">
<title>0x5fe</title>
<ellipse fill="none" stroke="black" cx="441" cy="-378" rx="36.29" ry="18"/>
<text text-anchor="middle" x="441" y="-374.3" font-family="Times,serif" font-size="14.00">0x5fe</text>
</g>
<!-- 0x617&#45;&gt;0x5fe -->
<g id="edge70" class="edge">
<title>0x617&#45;&gt;0x5fe</title>
<path fill="none" stroke="black" stroke-dasharray="5,2" d="M511.45,-647.82C508.71,-637.45 505.15,-623.97 502,-612 480.73,-531.12 455.46,-434.4 445.43,-395.96"/>
</g>
<!-- 0x4e9 -->
<g id="node68" class="node">
<title>0x4e9</title>
<polygon fill="none" stroke="black" points="508,-36 454,-36 454,0 508,0 508,-36"/>
<text text-anchor="middle" x="481" y="-14.3" font-family="Times,serif" font-size="14.00">1</text>
</g>
<!-- 0x617&#45;&gt;0x4e9 -->
<g id="edge69" class="edge">
<title>0x617&#45;&gt;0x4e9</title>
<path fill="none" stroke="black" d="M519.83,-648.03C530.07,-598.14 552.91,-449.82 486,-360 460.76,-326.11 421.55,-359.08 398,-324 389.08,-310.72 397.28,-303.98 398,-288 402.34,-191.65 373.86,-157.24 419,-72 426.95,-56.98 441.07,-44.4 453.83,-35.27"/>
</g>
<!-- 0x5f9 -->
<g id="node55" class="node">
<title>0x5f9</title>
<ellipse fill="none" stroke="black" cx="866" cy="-378" rx="37.09" ry="18"/>
<text text-anchor="middle" x="866" y="-374.3" font-family="Times,serif" font-size="14.00">0x5f9</text>
</g>
<!-- 0x618&#45;&gt;0x5f9 -->
<g id="edge71" class="edge">
<title>0x618&#45;&gt;0x5f9</title>
<path fill="none" stroke="black" d="M944.06,-647.97C929.29,-597.1 885.65,-446.7 870.92,-395.94"/>
</g>
<!-- 0x4ea -->
<g id="node67" class="node">
<title>0x4ea</title>
<polygon fill="none" stroke="black" points="996,-36 942,-36 942,0 996,0 996,-36"/>
<text text-anchor="middle" x="969" y="-14.3" font-family="Times,serif" font-size="14.00">0</text>
</g>
<!-- 0x618&#45;&gt;0x4ea -->
<g id="edge72" class="edge">
<title>0x618&#45;&gt;0x4ea</title>
<path fill="none" stroke="black" stroke-dasharray="5,2" d="M963.53,-649.16C998.8,-609.73 1089.18,-502.67 1132,-396 1159.03,-328.67 1159,-307.55 1159,-235 1159,-235 1159,-235 1159,-161 1159,-115.41 1142.65,-101.63 1108,-72 1075.32,-44.06 1026.35,-30.04 996.1,-23.66"/>
</g>
<!-- 0x611&#45;&gt;0x5fe -->
<g id="edge74" class="edge">
<title>0x611&#45;&gt;0x5fe</title>
<path fill="none" stroke="black" stroke-dasharray="5,2" d="M412.48,-575.85C418.29,-535.78 432.69,-436.38 438.5,-396.23"/>
</g>
<!-- 0x611&#45;&gt;0x4e9 -->
<g id="edge73" class="edge">
<title>0x611&#45;&gt;0x4e9</title>
<path fill="none" stroke="black" d="M405.27,-575.94C383.45,-495.82 296.06,-157.2 353,-72 375.45,-38.4 423.56,-26.08 453.98,-21.57"/>
</g>
<!-- 0x612&#45;&gt;0x5f9 -->
<g id="edge75" class="edge">
<title>0x612&#45;&gt;0x5f9</title>
<path fill="none" stroke="black" d="M863.24,-575.85C863.8,-535.78 865.2,-436.38 865.76,-396.23"/>
</g>
<!-- 0x612&#45;&gt;0x4ea -->
<g id="edge76" class="edge">
<title>0x612&#45;&gt;0x4ea</title>
<path fill="none" stroke="black" stroke-dasharray="5,2" d="M887.2,-579.73C923.29,-557.98 987,-511.06 987,-451 987,-451 987,-451 987,-377 987,-241.44 1003.3,-206.18 984,-72 982.26,-59.88 978.51,-46.63 975.19,-36.41"/>
</g>
<!-- 0x609&#45;&gt;0x5fe -->
<g id="edge78" class="edge">
<title>0x609&#45;&gt;0x5fe</title>
<path fill="none" stroke="black" stroke-dasharray="5,2" d="M346.27,-504.71C366.91,-477.32 408.33,-422.36 428.87,-395.1"/>
</g>
<!-- 0x609&#45;&gt;0x4e9 -->
<g id="edge77" class="edge">
<title>0x609&#45;&gt;0x4e9</title>
<path fill="none" stroke="black" d="M325.3,-504.02C312.73,-477.87 291,-425.88 291,-379 291,-379 291,-379 291,-161 291,-120.03 286.7,-101.62 315,-72 351.99,-33.28 417.18,-22.77 453.9,-19.97"/>
</g>
<!-- 0x60a&#45;&gt;0x5f9 -->
<g id="edge79" class="edge">
<title>0x60a&#45;&gt;0x5f9</title>
<path fill="none" stroke="black" d="M802.54,-504.15C816.4,-476.82 843.62,-423.14 857.47,-395.82"/>
</g>
<!-- 0x60a&#45;&gt;0x4ea -->
<g id="edge80" class="edge">
<title>0x60a&#45;&gt;0x4ea</title>
<path fill="none" stroke="black" stroke-dasharray="5,2" d="M814.04,-506.14C841.04,-484.93 888.43,-443.27 912,-396 975.07,-269.52 972.59,-91.79 970.02,-36.26"/>
</g>
<!-- 0x5ff&#45;&gt;0x5fe -->
<g id="edge82" class="edge">
<title>0x5ff&#45;&gt;0x5fe</title>
<path fill="none" stroke="black" stroke-dasharray="5,2" d="M257.59,-439.56C297.83,-426.27 370.78,-402.19 411.5,-388.74"/>
</g>
<!-- 0x5ff&#45;&gt;0x4e9 -->
<g id="edge81" class="edge">
<title>0x5ff&#45;&gt;0x4e9</title>
<path fill="none" stroke="black" d="M231.37,-431.99C234.87,-405.38 241,-352.28 241,-307 241,-307 241,-307 241,-161 241,-118.33 244.93,-100.14 277,-72 327.61,-27.59 410.85,-19.64 453.68,-18.68"/>
</g>
<!-- 0x600&#45;&gt;0x5f9 -->
<g id="edge83" class="edge">
<title>0x600&#45;&gt;0x5f9</title>
<path fill="none" stroke="black" d="M711.56,-437.75C746.31,-424.54 803.54,-402.76 837.72,-389.76"/>
</g>
<!-- 0x600&#45;&gt;0x4ea -->
<g id="edge84" class="edge">
<title>0x600&#45;&gt;0x4ea</title>
<path fill="none" stroke="black" stroke-dasharray="5,2" d="M698.3,-433.2C721.62,-410.2 765.31,-365.71 798,-324 868.88,-233.58 890.21,-211.54 940,-108 951.48,-84.13 960.1,-54.57 964.84,-36.25"/>
</g>
<!-- 0x5fc -->
<g id="node58" class="node">
<title>0x5fc</title>
<ellipse fill="none" stroke="black" cx="443" cy="-306" rx="36.29" ry="18"/>
<text text-anchor="middle" x="443" y="-302.3" font-family="Times,serif" font-size="14.00">0x5fc</text>
</g>
<!-- 0x5fe&#45;&gt;0x5fc -->
<g id="edge85" class="edge">
<title>0x5fe&#45;&gt;0x5fc</title>
<path fill="none" stroke="black" d="M441.49,-359.7C441.8,-348.85 442.2,-334.92 442.51,-324.1"/>
</g>
<!-- 0x5fd -->
<g id="node66" class="node">
<title>0x5fd</title>
<ellipse fill="none" stroke="black" cx="660" cy="-90" rx="37.09" ry="18"/>
<text text-anchor="middle" x="660" y="-86.3" font-family="Times,serif" font-size="14.00">0x5fd</text>
</g>
<!-- 0x5fe&#45;&gt;0x5fd -->
<g id="edge86" class="edge">
<title>0x5fe&#45;&gt;0x5fd</title>
<path fill="none" stroke="black" stroke-dasharray="5,2" d="M456.09,-361.42C478.14,-338.33 520.03,-293.32 552,-252 591.13,-201.42 631.67,-137.23 649.97,-107.5"/>
</g>
<!-- 0x5f7 -->
<g id="node60" class="node">
<title>0x5f7</title>
<ellipse fill="none" stroke="black" cx="752" cy="-306" rx="37.09" ry="18"/>
<text text-anchor="middle" x="752" y="-302.3" font-family="Times,serif" font-size="14.00">0x5f7</text>
</g>
<!-- 0x5f9&#45;&gt;0x5f7 -->
<g id="edge87" class="edge">
<title>0x5f9&#45;&gt;0x5f7</title>
<path fill="none" stroke="black" d="M844.02,-363.5C823.96,-351.19 794.46,-333.07 774.3,-320.69"/>
</g>
<!-- 0x5f8 -->
<g id="node65" class="node">
<title>0x5f8</title>
<ellipse fill="none" stroke="black" cx="866" cy="-90" rx="37.09" ry="18"/>
<text text-anchor="middle" x="866" y="-86.3" font-family="Times,serif" font-size="14.00">0x5f8</text>
</g>
<!-- 0x5f9&#45;&gt;0x5f8 -->
<g id="edge88" class="edge">
<title>0x5f9&#45;&gt;0x5f8</title>
<path fill="none" stroke="black" stroke-dasharray="5,2" d="M866,-359.97C866,-309.22 866,-159.41 866,-108.31"/>
</g>
<!-- 0x61a -->
<g id="node59" class="node">
<title>0x61a</title>
<ellipse fill="none" stroke="black" cx="1054" cy="-306" rx="38.99" ry="18"/>
<text text-anchor="middle" x="1054" y="-302.3" font-family="Times,serif" font-size="14.00">0x61a</text>
</g>
<!-- 0x61b&#45;&gt;0x61a -->
<g id="edge89" class="edge">
<title>0x61b&#45;&gt;0x61a</title>
<path fill="none" stroke="black" d="M1075.98,-360.05C1071.42,-349.05 1065.5,-334.76 1060.96,-323.79"/>
</g>
<!-- 0x61b&#45;&gt;0x4ea -->
<g id="edge90" class="edge">
<title>0x61b&#45;&gt;0x4ea</title>
<path fill="none" stroke="black" stroke-dasharray="5,2" d="M1090.69,-359.91C1101.79,-333.62 1121,-281.45 1121,-235 1121,-235 1121,-235 1121,-161 1121,-117.45 1110.58,-103.01 1080,-72 1056.76,-48.43 1020.97,-33.98 996.35,-26.24"/>
</g>
<!-- 0x61d&#45;&gt;0x4ea -->
<g id="edge91" class="edge">
<title>0x61d&#45;&gt;0x4ea</title>
<path fill="none" stroke="black" d="M1217.62,-359.96C1215.58,-333.32 1212,-280.17 1212,-235 1212,-235 1212,-235 1212,-161 1212,-117.81 1205.86,-100.02 1173,-72 1121.76,-28.32 1038.79,-20.05 996.17,-18.85"/>
</g>
<!-- 0x61d&#45;&gt;0x4e9 -->
<g id="edge92" class="edge">
<title>0x61d&#45;&gt;0x4e9</title>
<path fill="none" stroke="black" stroke-dasharray="5,2" d="M1184.01,-369.26C1168.19,-366 1149.22,-362.4 1132,-360 1037.91,-346.87 791.11,-366.21 706,-324 580.14,-261.58 507.72,-91.14 487.14,-36.27"/>
</g>
<!-- 0x5fa -->
<g id="node62" class="node">
<title>0x5fa</title>
<ellipse fill="none" stroke="black" cx="507" cy="-234" rx="36.29" ry="18"/>
<text text-anchor="middle" x="507" y="-230.3" font-family="Times,serif" font-size="14.00">0x5fa</text>
</g>
<!-- 0x5fc&#45;&gt;0x5fa -->
<g id="edge93" class="edge">
<title>0x5fc&#45;&gt;0x5fa</title>
<path fill="none" stroke="black" d="M457.52,-289.12C468,-277.66 482.07,-262.26 492.53,-250.82"/>
</g>
<!-- 0x5fb -->
<g id="node64" class="node">
<title>0x5fb</title>
<ellipse fill="none" stroke="black" cx="470" cy="-162" rx="37.09" ry="18"/>
<text text-anchor="middle" x="470" y="-158.3" font-family="Times,serif" font-size="14.00">0x5fb</text>
</g>
<!-- 0x5fc&#45;&gt;0x5fb -->
<g id="edge94" class="edge">
<title>0x5fc&#45;&gt;0x5fb</title>
<path fill="none" stroke="black" stroke-dasharray="5,2" d="M446.26,-287.87C451.45,-260.58 461.53,-207.52 466.73,-180.19"/>
</g>
<!-- 0x61a&#45;&gt;0x4ea -->
<g id="edge96" class="edge">
<title>0x61a&#45;&gt;0x4ea</title>
<path fill="none" stroke="black" stroke-dasharray="5,2" d="M1059.89,-288.04C1072.87,-247.52 1099.66,-143.13 1059,-72 1045.68,-48.7 1017.68,-34.63 996.43,-26.9"/>
</g>
<!-- 0x61a&#45;&gt;0x4e9 -->
<g id="edge95" class="edge">
<title>0x61a&#45;&gt;0x4e9</title>
<path fill="none" stroke="black" d="M1037.68,-289.34C992.68,-247.12 861.47,-130.17 730,-72 654.01,-38.38 555.35,-25.55 508.29,-21.12"/>
</g>
<!-- 0x5f5 -->
<g id="node61" class="node">
<title>0x5f5</title>
<ellipse fill="none" stroke="black" cx="687" cy="-234" rx="37.09" ry="18"/>
<text text-anchor="middle" x="687" y="-230.3" font-family="Times,serif" font-size="14.00">0x5f5</text>
</g>
<!-- 0x5f7&#45;&gt;0x5f5 -->
<g id="edge97" class="edge">
<title>0x5f7&#45;&gt;0x5f5</title>
<path fill="none" stroke="black" d="M737.25,-289.12C726.61,-277.66 712.32,-262.26 701.69,-250.82"/>
</g>
<!-- 0x5f6 -->
<g id="node63" class="node">
<title>0x5f6</title>
<ellipse fill="none" stroke="black" cx="736" cy="-162" rx="37.09" ry="18"/>
<text text-anchor="middle" x="736" y="-158.3" font-family="Times,serif" font-size="14.00">0x5f6</text>
</g>
<!-- 0x5f7&#45;&gt;0x5f6 -->
<g id="edge98" class="edge">
<title>0x5f7&#45;&gt;0x5f6</title>
<path fill="none" stroke="black" stroke-dasharray="5,2" d="M750.07,-287.87C746.99,-260.58 741.02,-207.52 737.94,-180.19"/>
</g>
<!-- 0x5f5&#45;&gt;0x4ea -->
<g id="edge100" class="edge">
<title>0x5f5&#45;&gt;0x4ea</title>
<path fill="none" stroke="black" stroke-dasharray="5,2" d="M715.79,-222.4C761.57,-204.46 851.91,-164.45 912,-108 934.33,-87.02 951.79,-55.54 961.22,-36.18"/>
</g>
<!-- 0x5f5&#45;&gt;0x4e9 -->
<g id="edge99" class="edge">
<title>0x5f5&#45;&gt;0x4e9</title>
<path fill="none" stroke="black" d="M672.2,-217.4C644.83,-188.57 584.4,-125.06 533,-72 521.34,-59.96 508.11,-46.48 497.92,-36.13"/>
</g>
<!-- 0x5fa&#45;&gt;0x4ea -->
<g id="edge101" class="edge">
<title>0x5fa&#45;&gt;0x4ea</title>
<path fill="none" stroke="black" d="M512.83,-216.17C525.43,-182.53 558.63,-107.2 614,-72 668.63,-37.28 868.38,-24.01 941.74,-20.24"/>
</g>
<!-- 0x5fa&#45;&gt;0x4e9 -->
<g id="edge102" class="edge">
<title>0x5fa&#45;&gt;0x4e9</title>
<path fill="none" stroke="black" stroke-dasharray="5,2" d="M477.99,-222.97C458.91,-214.68 435.42,-200.84 424,-180 397.07,-130.85 440.97,-66.52 465.8,-36.21"/>
</g>
<!-- 0x5f6&#45;&gt;0x4ea -->
<g id="edge104" class="edge">
<title>0x5f6&#45;&gt;0x4ea</title>
<path fill="none" stroke="black" stroke-dasharray="5,2" d="M747.57,-144.65C762.31,-124.89 789.57,-91.85 820,-72 858.63,-46.8 910.73,-31.85 941.98,-24.55"/>
</g>
<!-- 0x5f6&#45;&gt;0x4e9 -->
<g id="edge103" class="edge">
<title>0x5f6&#45;&gt;0x4e9</title>
<path fill="none" stroke="black" d="M735.06,-143.93C733,-123.78 726.5,-90.66 706,-72 677.07,-45.66 561.66,-28.7 508.31,-22.11"/>
</g>
<!-- 0x5fb&#45;&gt;0x4ea -->
<g id="edge105" class="edge">
<title>0x5fb&#45;&gt;0x4ea</title>
<path fill="none" stroke="black" d="M484.38,-145.03C504,-124.39 541.28,-89.06 581,-72 646.51,-43.85 865.14,-26.25 942,-20.81"/>
</g>
<!-- 0x5fb&#45;&gt;0x4e9 -->
<g id="edge106" class="edge">
<title>0x5fb&#45;&gt;0x4e9</title>
<path fill="none" stroke="black" stroke-dasharray="5,2" d="M467.78,-143.86C465.83,-125.88 463.77,-96.84 467,-72 468.57,-59.92 472.07,-46.67 475.18,-36.44"/>
</g>
<!-- 0x5f8&#45;&gt;0x4ea -->
<g id="edge108" class="edge">
<title>0x5f8&#45;&gt;0x4ea</title>
<path fill="none" stroke="black" stroke-dasharray="5,2" d="M886.84,-74.83C903.3,-63.65 926.33,-48 943.82,-36.11"/>
</g>
<!-- 0x5f8&#45;&gt;0x4e9 -->
<g id="edge107" class="edge">
<title>0x5f8&#45;&gt;0x4e9</title>
<path fill="none" stroke="black" d="M837.38,-78.54C830.15,-76.15 822.34,-73.79 815,-72 702.64,-44.56 565.42,-27.96 508.14,-21.77"/>
</g>
<!-- 0x5fd&#45;&gt;0x4ea -->
<g id="edge109" class="edge">
<title>0x5fd&#45;&gt;0x4ea</title>
<path fill="none" stroke="black" d="M692.78,-81.58C754.13,-67.68 885.22,-37.98 941.93,-25.13"/>
</g>
<!-- 0x5fd&#45;&gt;0x4e9 -->
<g id="edge110" class="edge">
<title>0x5fd&#45;&gt;0x4e9</title>
<path fill="none" stroke="black" stroke-dasharray="5,2" d="M632.03,-78.06C598.21,-64.83 541.66,-42.72 508.19,-29.63"/>
</g>
</g>
</svg>
