<?xml version="1.0" encoding="utf-8"?>
<svg xmlns="http://www.w3.org/2000/svg" xmlns:xlink="http://www.w3.org/1999/xlink" width="600" height="400" viewBox="0 0 2400 1600">
<defs>
  <clipPath id="clip000">
    <rect x="0" y="0" width="2400" height="1600"/>
  </clipPath>
</defs>
<path clip-path="url(#clip000)" d="M0 1600 L2400 1600 L2400 0 L0 0  Z" fill="#ffffff" fill-rule="evenodd" fill-opacity="1"/>
<defs>
  <clipPath id="clip001">
    <rect x="480" y="0" width="1681" height="1600"/>
  </clipPath>
</defs>
<path clip-path="url(#clip000)" d="M112.177 1486.45 L2352.76 1486.45 L2352.76 47.2441 L112.177 47.2441  Z" fill="#ffffff" fill-rule="evenodd" fill-opacity="1"/>
<defs>
  <clipPath id="clip002">
    <rect x="112" y="47" width="2242" height="1440"/>
  </clipPath>
</defs>
<polyline clip-path="url(#clip002)" style="stroke:#000000; stroke-linecap:round; stroke-linejoin:round; stroke-width:2; stroke-opacity:0.1; fill:none" points="175.59,1486.45 175.59,47.2441 "/>
<polyline clip-path="url(#clip002)" style="stroke:#000000; stroke-linecap:round; stroke-linejoin:round; stroke-width:2; stroke-opacity:0.1; fill:none" points="704.028,1486.45 704.028,47.2441 "/>
<polyline clip-path="url(#clip002)" style="stroke:#000000; stroke-linecap:round; stroke-linejoin:round; stroke-width:2; stroke-opacity:0.1; fill:none" points="1232.47,1486.45 1232.47,47.2441 "/>
<polyline clip-path="url(#clip002)" style="stroke:#000000; stroke-linecap:round; stroke-linejoin:round; stroke-width:2; stroke-opacity:0.1; fill:none" points="1760.9,1486.45 1760.9,47.2441 "/>
<polyline clip-path="url(#clip002)" style="stroke:#000000; stroke-linecap:round; stroke-linejoin:round; stroke-width:2; stroke-opacity:0.1; fill:none" points="2289.34,1486.45 2289.34,47.2441 "/>
<polyline clip-path="url(#clip000)" style="stroke:#000000; stroke-linecap:round; stroke-linejoin:round; stroke-width:4; stroke-opacity:1; fill:none" points="112.177,1486.45 2352.76,1486.45 "/>
<polyline clip-path="url(#clip000)" style="stroke:#000000; stroke-linecap:round; stroke-linejoin:round; stroke-width:4; stroke-opacity:1; fill:none" points="175.59,1486.45 175.59,1467.55 "/>
<polyline clip-path="url(#clip000)" style="stroke:#000000; stroke-linecap:round; stroke-linejoin:round; stroke-width:4; stroke-opacity:1; fill:none" points="704.028,1486.45 704.028,1467.55 "/>
<polyline clip-path="url(#clip000)" style="stroke:#000000; stroke-linecap:round; stroke-linejoin:round; stroke-width:4; stroke-opacity:1; fill:none" points="1232.47,1486.45 1232.47,1467.55 "/>
<polyline clip-path="url(#clip000)" style="stroke:#000000; stroke-linecap:round; stroke-linejoin:round; stroke-width:4; stroke-opacity:1; fill:none" points="1760.9,1486.45 1760.9,1467.55 "/>
<polyline clip-path="url(#clip000)" style="stroke:#000000; stroke-linecap:round; stroke-linejoin:round; stroke-width:4; stroke-opacity:1; fill:none" points="2289.34,1486.45 2289.34,1467.55 "/>
<path clip-path="url(#clip000)" d="M175.59 1517.37 Q171.979 1517.37 170.15 1520.93 Q168.344 1524.47 168.344 1531.6 Q168.344 1538.71 170.15 1542.27 Q171.979 1545.82 175.59 1545.82 Q179.224 1545.82 181.03 1542.27 Q182.858 1538.71 182.858 1531.6 Q182.858 1524.47 181.03 1520.93 Q179.224 1517.37 175.59 1517.37 M175.59 1513.66 Q181.4 1513.66 184.455 1518.27 Q187.534 1522.85 187.534 1531.6 Q187.534 1540.33 184.455 1544.94 Q181.4 1549.52 175.59 1549.52 Q169.78 1549.52 166.701 1544.94 Q163.645 1540.33 163.645 1531.6 Q163.645 1522.85 166.701 1518.27 Q169.78 1513.66 175.59 1513.66 Z" fill="#000000" fill-rule="nonzero" fill-opacity="1" /><path clip-path="url(#clip000)" d="M663.646 1514.29 L682.003 1514.29 L682.003 1518.22 L667.929 1518.22 L667.929 1526.7 Q668.947 1526.35 669.966 1526.19 Q670.984 1526 672.003 1526 Q677.79 1526 681.169 1529.17 Q684.549 1532.34 684.549 1537.76 Q684.549 1543.34 681.077 1546.44 Q677.605 1549.52 671.285 1549.52 Q669.109 1549.52 666.841 1549.15 Q664.596 1548.78 662.188 1548.04 L662.188 1543.34 Q664.271 1544.47 666.494 1545.03 Q668.716 1545.58 671.193 1545.58 Q675.197 1545.58 677.535 1543.48 Q679.873 1541.37 679.873 1537.76 Q679.873 1534.15 677.535 1532.04 Q675.197 1529.94 671.193 1529.94 Q669.318 1529.94 667.443 1530.35 Q665.591 1530.77 663.646 1531.65 L663.646 1514.29 Z" fill="#000000" fill-rule="nonzero" fill-opacity="1" /><path clip-path="url(#clip000)" d="M703.762 1517.37 Q700.151 1517.37 698.322 1520.93 Q696.517 1524.47 696.517 1531.6 Q696.517 1538.71 698.322 1542.27 Q700.151 1545.82 703.762 1545.82 Q707.396 1545.82 709.202 1542.27 Q711.03 1538.71 711.03 1531.6 Q711.03 1524.47 709.202 1520.93 Q707.396 1517.37 703.762 1517.37 M703.762 1513.66 Q709.572 1513.66 712.628 1518.27 Q715.706 1522.85 715.706 1531.6 Q715.706 1540.33 712.628 1544.94 Q709.572 1549.52 703.762 1549.52 Q697.952 1549.52 694.873 1544.94 Q691.818 1540.33 691.818 1531.6 Q691.818 1522.85 694.873 1518.27 Q697.952 1513.66 703.762 1513.66 Z" fill="#000000" fill-rule="nonzero" fill-opacity="1" /><path clip-path="url(#clip000)" d="M733.924 1517.37 Q730.313 1517.37 728.484 1520.93 Q726.679 1524.47 726.679 1531.6 Q726.679 1538.71 728.484 1542.27 Q730.313 1545.82 733.924 1545.82 Q737.558 1545.82 739.364 1542.27 Q741.192 1538.71 741.192 1531.6 Q741.192 1524.47 739.364 1520.93 Q737.558 1517.37 733.924 1517.37 M733.924 1513.66 Q739.734 1513.66 742.79 1518.27 Q745.868 1522.85 745.868 1531.6 Q745.868 1540.33 742.79 1544.94 Q739.734 1549.52 733.924 1549.52 Q728.114 1549.52 725.035 1544.94 Q721.979 1540.33 721.979 1531.6 Q721.979 1522.85 725.035 1518.27 Q728.114 1513.66 733.924 1513.66 Z" fill="#000000" fill-rule="nonzero" fill-opacity="1" /><path clip-path="url(#clip000)" d="M1176.99 1544.91 L1184.63 1544.91 L1184.63 1518.55 L1176.32 1520.21 L1176.32 1515.95 L1184.58 1514.29 L1189.26 1514.29 L1189.26 1544.91 L1196.9 1544.91 L1196.9 1548.85 L1176.99 1548.85 L1176.99 1544.91 Z" fill="#000000" fill-rule="nonzero" fill-opacity="1" /><path clip-path="url(#clip000)" d="M1216.34 1517.37 Q1212.73 1517.37 1210.9 1520.93 Q1209.1 1524.47 1209.1 1531.6 Q1209.1 1538.71 1210.9 1542.27 Q1212.73 1545.82 1216.34 1545.82 Q1219.98 1545.82 1221.78 1542.27 Q1223.61 1538.71 1223.61 1531.6 Q1223.61 1524.47 1221.78 1520.93 Q1219.98 1517.37 1216.34 1517.37 M1216.34 1513.66 Q1222.15 1513.66 1225.21 1518.27 Q1228.29 1522.85 1228.29 1531.6 Q1228.29 1540.33 1225.21 1544.94 Q1222.15 1549.52 1216.34 1549.52 Q1210.53 1549.52 1207.46 1544.94 Q1204.4 1540.33 1204.4 1531.6 Q1204.4 1522.85 1207.46 1518.27 Q1210.53 1513.66 1216.34 1513.66 Z" fill="#000000" fill-rule="nonzero" fill-opacity="1" /><path clip-path="url(#clip000)" d="M1246.51 1517.37 Q1242.89 1517.37 1241.07 1520.93 Q1239.26 1524.47 1239.26 1531.6 Q1239.26 1538.71 1241.07 1542.27 Q1242.89 1545.82 1246.51 1545.82 Q1250.14 1545.82 1251.95 1542.27 Q1253.77 1538.71 1253.77 1531.6 Q1253.77 1524.47 1251.95 1520.93 Q1250.14 1517.37 1246.51 1517.37 M1246.51 1513.66 Q1252.32 1513.66 1255.37 1518.27 Q1258.45 1522.85 1258.45 1531.6 Q1258.45 1540.33 1255.37 1544.94 Q1252.32 1549.52 1246.51 1549.52 Q1240.7 1549.52 1237.62 1544.94 Q1234.56 1540.33 1234.56 1531.6 Q1234.56 1522.85 1237.62 1518.27 Q1240.7 1513.66 1246.51 1513.66 Z" fill="#000000" fill-rule="nonzero" fill-opacity="1" /><path clip-path="url(#clip000)" d="M1276.67 1517.37 Q1273.06 1517.37 1271.23 1520.93 Q1269.42 1524.47 1269.42 1531.6 Q1269.42 1538.71 1271.23 1542.27 Q1273.06 1545.82 1276.67 1545.82 Q1280.3 1545.82 1282.11 1542.27 Q1283.94 1538.71 1283.94 1531.6 Q1283.94 1524.47 1282.11 1520.93 Q1280.3 1517.37 1276.67 1517.37 M1276.67 1513.66 Q1282.48 1513.66 1285.53 1518.27 Q1288.61 1522.85 1288.61 1531.6 Q1288.61 1540.33 1285.53 1544.94 Q1282.48 1549.52 1276.67 1549.52 Q1270.86 1549.52 1267.78 1544.94 Q1264.72 1540.33 1264.72 1531.6 Q1264.72 1522.85 1267.78 1518.27 Q1270.86 1513.66 1276.67 1513.66 Z" fill="#000000" fill-rule="nonzero" fill-opacity="1" /><path clip-path="url(#clip000)" d="M1705.43 1544.91 L1713.07 1544.91 L1713.07 1518.55 L1704.76 1520.21 L1704.76 1515.95 L1713.02 1514.29 L1717.7 1514.29 L1717.7 1544.91 L1725.34 1544.91 L1725.34 1548.85 L1705.43 1548.85 L1705.43 1544.91 Z" fill="#000000" fill-rule="nonzero" fill-opacity="1" /><path clip-path="url(#clip000)" d="M1734.83 1514.29 L1753.19 1514.29 L1753.19 1518.22 L1739.11 1518.22 L1739.11 1526.7 Q1740.13 1526.35 1741.15 1526.19 Q1742.17 1526 1743.19 1526 Q1748.97 1526 1752.35 1529.17 Q1755.73 1532.34 1755.73 1537.76 Q1755.73 1543.34 1752.26 1546.44 Q1748.79 1549.52 1742.47 1549.52 Q1740.29 1549.52 1738.02 1549.15 Q1735.78 1548.78 1733.37 1548.04 L1733.37 1543.34 Q1735.45 1544.47 1737.68 1545.03 Q1739.9 1545.58 1742.37 1545.58 Q1746.38 1545.58 1748.72 1543.48 Q1751.06 1541.37 1751.06 1537.76 Q1751.06 1534.15 1748.72 1532.04 Q1746.38 1529.94 1742.37 1529.94 Q1740.5 1529.94 1738.62 1530.35 Q1736.77 1530.77 1734.83 1531.65 L1734.83 1514.29 Z" fill="#000000" fill-rule="nonzero" fill-opacity="1" /><path clip-path="url(#clip000)" d="M1774.94 1517.37 Q1771.33 1517.37 1769.5 1520.93 Q1767.7 1524.47 1767.7 1531.6 Q1767.7 1538.71 1769.5 1542.27 Q1771.33 1545.82 1774.94 1545.82 Q1778.58 1545.82 1780.38 1542.27 Q1782.21 1538.71 1782.21 1531.6 Q1782.21 1524.47 1780.38 1520.93 Q1778.58 1517.37 1774.94 1517.37 M1774.94 1513.66 Q1780.75 1513.66 1783.81 1518.27 Q1786.89 1522.85 1786.89 1531.6 Q1786.89 1540.33 1783.81 1544.94 Q1780.75 1549.52 1774.94 1549.52 Q1769.13 1549.52 1766.06 1544.94 Q1763 1540.33 1763 1531.6 Q1763 1522.85 1766.06 1518.27 Q1769.13 1513.66 1774.94 1513.66 Z" fill="#000000" fill-rule="nonzero" fill-opacity="1" /><path clip-path="url(#clip000)" d="M1805.11 1517.37 Q1801.49 1517.37 1799.67 1520.93 Q1797.86 1524.47 1797.86 1531.6 Q1797.86 1538.71 1799.67 1542.27 Q1801.49 1545.82 1805.11 1545.82 Q1808.74 1545.82 1810.55 1542.27 Q1812.37 1538.71 1812.37 1531.6 Q1812.37 1524.47 1810.55 1520.93 Q1808.74 1517.37 1805.11 1517.37 M1805.11 1513.66 Q1810.92 1513.66 1813.97 1518.27 Q1817.05 1522.85 1817.05 1531.6 Q1817.05 1540.33 1813.97 1544.94 Q1810.92 1549.52 1805.11 1549.52 Q1799.3 1549.52 1796.22 1544.94 Q1793.16 1540.33 1793.16 1531.6 Q1793.16 1522.85 1796.22 1518.27 Q1799.3 1513.66 1805.11 1513.66 Z" fill="#000000" fill-rule="nonzero" fill-opacity="1" /><path clip-path="url(#clip000)" d="M2237.95 1544.91 L2254.27 1544.91 L2254.27 1548.85 L2232.33 1548.85 L2232.33 1544.91 Q2234.99 1542.16 2239.58 1537.53 Q2244.18 1532.88 2245.36 1531.53 Q2247.61 1529.01 2248.49 1527.27 Q2249.39 1525.51 2249.39 1523.82 Q2249.39 1521.07 2247.45 1519.33 Q2245.52 1517.6 2242.42 1517.6 Q2240.22 1517.6 2237.77 1518.36 Q2235.34 1519.13 2232.56 1520.68 L2232.56 1515.95 Q2235.39 1514.82 2237.84 1514.24 Q2240.29 1513.66 2242.33 1513.66 Q2247.7 1513.66 2250.89 1516.35 Q2254.09 1519.03 2254.09 1523.52 Q2254.09 1525.65 2253.28 1527.57 Q2252.49 1529.47 2250.39 1532.07 Q2249.81 1532.74 2246.7 1535.95 Q2243.6 1539.15 2237.95 1544.91 Z" fill="#000000" fill-rule="nonzero" fill-opacity="1" /><path clip-path="url(#clip000)" d="M2274.09 1517.37 Q2270.48 1517.37 2268.65 1520.93 Q2266.84 1524.47 2266.84 1531.6 Q2266.84 1538.71 2268.65 1542.27 Q2270.48 1545.82 2274.09 1545.82 Q2277.72 1545.82 2279.53 1542.27 Q2281.36 1538.71 2281.36 1531.6 Q2281.36 1524.47 2279.53 1520.93 Q2277.72 1517.37 2274.09 1517.37 M2274.09 1513.66 Q2279.9 1513.66 2282.95 1518.27 Q2286.03 1522.85 2286.03 1531.6 Q2286.03 1540.33 2282.95 1544.94 Q2279.9 1549.52 2274.09 1549.52 Q2268.28 1549.52 2265.2 1544.94 Q2262.14 1540.33 2262.14 1531.6 Q2262.14 1522.85 2265.2 1518.27 Q2268.28 1513.66 2274.09 1513.66 Z" fill="#000000" fill-rule="nonzero" fill-opacity="1" /><path clip-path="url(#clip000)" d="M2304.25 1517.37 Q2300.64 1517.37 2298.81 1520.93 Q2297.01 1524.47 2297.01 1531.6 Q2297.01 1538.71 2298.81 1542.27 Q2300.64 1545.82 2304.25 1545.82 Q2307.88 1545.82 2309.69 1542.27 Q2311.52 1538.71 2311.52 1531.6 Q2311.52 1524.47 2309.69 1520.93 Q2307.88 1517.37 2304.25 1517.37 M2304.25 1513.66 Q2310.06 1513.66 2313.12 1518.27 Q2316.2 1522.85 2316.2 1531.6 Q2316.2 1540.33 2313.12 1544.94 Q2310.06 1549.52 2304.25 1549.52 Q2298.44 1549.52 2295.36 1544.94 Q2292.31 1540.33 2292.31 1531.6 Q2292.31 1522.85 2295.36 1518.27 Q2298.44 1513.66 2304.25 1513.66 Z" fill="#000000" fill-rule="nonzero" fill-opacity="1" /><path clip-path="url(#clip000)" d="M2334.41 1517.37 Q2330.8 1517.37 2328.97 1520.93 Q2327.17 1524.47 2327.17 1531.6 Q2327.17 1538.71 2328.97 1542.27 Q2330.8 1545.82 2334.41 1545.82 Q2338.05 1545.82 2339.85 1542.27 Q2341.68 1538.71 2341.68 1531.6 Q2341.68 1524.47 2339.85 1520.93 Q2338.05 1517.37 2334.41 1517.37 M2334.41 1513.66 Q2340.22 1513.66 2343.28 1518.27 Q2346.36 1522.85 2346.36 1531.6 Q2346.36 1540.33 2343.28 1544.94 Q2340.22 1549.52 2334.41 1549.52 Q2328.6 1549.52 2325.52 1544.94 Q2322.47 1540.33 2322.47 1531.6 Q2322.47 1522.85 2325.52 1518.27 Q2328.6 1513.66 2334.41 1513.66 Z" fill="#000000" fill-rule="nonzero" fill-opacity="1" /><polyline clip-path="url(#clip002)" style="stroke:#000000; stroke-linecap:round; stroke-linejoin:round; stroke-width:2; stroke-opacity:0.1; fill:none" points="112.177,1382.28 2352.76,1382.28 "/>
<polyline clip-path="url(#clip002)" style="stroke:#000000; stroke-linecap:round; stroke-linejoin:round; stroke-width:2; stroke-opacity:0.1; fill:none" points="112.177,1156.78 2352.76,1156.78 "/>
<polyline clip-path="url(#clip002)" style="stroke:#000000; stroke-linecap:round; stroke-linejoin:round; stroke-width:2; stroke-opacity:0.1; fill:none" points="112.177,931.286 2352.76,931.286 "/>
<polyline clip-path="url(#clip002)" style="stroke:#000000; stroke-linecap:round; stroke-linejoin:round; stroke-width:2; stroke-opacity:0.1; fill:none" points="112.177,705.788 2352.76,705.788 "/>
<polyline clip-path="url(#clip002)" style="stroke:#000000; stroke-linecap:round; stroke-linejoin:round; stroke-width:2; stroke-opacity:0.1; fill:none" points="112.177,480.289 2352.76,480.289 "/>
<polyline clip-path="url(#clip002)" style="stroke:#000000; stroke-linecap:round; stroke-linejoin:round; stroke-width:2; stroke-opacity:0.1; fill:none" points="112.177,254.791 2352.76,254.791 "/>
<polyline clip-path="url(#clip000)" style="stroke:#000000; stroke-linecap:round; stroke-linejoin:round; stroke-width:4; stroke-opacity:1; fill:none" points="112.177,1486.45 112.177,47.2441 "/>
<polyline clip-path="url(#clip000)" style="stroke:#000000; stroke-linecap:round; stroke-linejoin:round; stroke-width:4; stroke-opacity:1; fill:none" points="112.177,1382.28 131.075,1382.28 "/>
<polyline clip-path="url(#clip000)" style="stroke:#000000; stroke-linecap:round; stroke-linejoin:round; stroke-width:4; stroke-opacity:1; fill:none" points="112.177,1156.78 131.075,1156.78 "/>
<polyline clip-path="url(#clip000)" style="stroke:#000000; stroke-linecap:round; stroke-linejoin:round; stroke-width:4; stroke-opacity:1; fill:none" points="112.177,931.286 131.075,931.286 "/>
<polyline clip-path="url(#clip000)" style="stroke:#000000; stroke-linecap:round; stroke-linejoin:round; stroke-width:4; stroke-opacity:1; fill:none" points="112.177,705.788 131.075,705.788 "/>
<polyline clip-path="url(#clip000)" style="stroke:#000000; stroke-linecap:round; stroke-linejoin:round; stroke-width:4; stroke-opacity:1; fill:none" points="112.177,480.289 131.075,480.289 "/>
<polyline clip-path="url(#clip000)" style="stroke:#000000; stroke-linecap:round; stroke-linejoin:round; stroke-width:4; stroke-opacity:1; fill:none" points="112.177,254.791 131.075,254.791 "/>
<path clip-path="url(#clip000)" d="M56.2699 1395.63 L63.9087 1395.63 L63.9087 1369.26 L55.5986 1370.93 L55.5986 1366.67 L63.8624 1365 L68.5383 1365 L68.5383 1395.63 L76.1772 1395.63 L76.1772 1399.56 L56.2699 1399.56 L56.2699 1395.63 Z" fill="#000000" fill-rule="nonzero" fill-opacity="1" /><path clip-path="url(#clip000)" d="M59.8578 1170.13 L76.1772 1170.13 L76.1772 1174.06 L54.2328 1174.06 L54.2328 1170.13 Q56.8949 1167.37 61.4782 1162.74 Q66.0846 1158.09 67.2652 1156.75 Q69.5105 1154.23 70.3902 1152.49 Q71.2929 1150.73 71.2929 1149.04 Q71.2929 1146.29 69.3485 1144.55 Q67.4272 1142.81 64.3254 1142.81 Q62.1263 1142.81 59.6726 1143.58 Q57.2421 1144.34 54.4643 1145.89 L54.4643 1141.17 Q57.2884 1140.04 59.7421 1139.46 Q62.1958 1138.88 64.2328 1138.88 Q69.6031 1138.88 72.7976 1141.56 Q75.992 1144.25 75.992 1148.74 Q75.992 1150.87 75.1818 1152.79 Q74.3948 1154.69 72.2883 1157.28 Q71.7096 1157.95 68.6078 1161.17 Q65.5059 1164.37 59.8578 1170.13 Z" fill="#000000" fill-rule="nonzero" fill-opacity="1" /><path clip-path="url(#clip000)" d="M69.0476 929.932 Q72.404 930.649 74.279 932.918 Q76.1772 935.186 76.1772 938.52 Q76.1772 943.635 72.6587 946.436 Q69.1402 949.237 62.6587 949.237 Q60.4828 949.237 58.168 948.797 Q55.8764 948.381 53.4227 947.524 L53.4227 943.01 Q55.3671 944.145 57.6819 944.723 Q59.9967 945.302 62.5198 945.302 Q66.918 945.302 69.2096 943.566 Q71.5244 941.83 71.5244 938.52 Q71.5244 935.464 69.3717 933.751 Q67.242 932.015 63.4226 932.015 L59.3949 932.015 L59.3949 928.172 L63.6078 928.172 Q67.0569 928.172 68.8855 926.807 Q70.7142 925.418 70.7142 922.825 Q70.7142 920.163 68.8161 918.751 Q66.9411 917.316 63.4226 917.316 Q61.5013 917.316 59.3023 917.733 Q57.1032 918.149 54.4643 919.029 L54.4643 914.862 Q57.1264 914.122 59.4412 913.751 Q61.7791 913.381 63.8393 913.381 Q69.1633 913.381 72.2652 915.811 Q75.367 918.219 75.367 922.339 Q75.367 925.21 73.7235 927.2 Q72.08 929.168 69.0476 929.932 Z" fill="#000000" fill-rule="nonzero" fill-opacity="1" /><path clip-path="url(#clip000)" d="M66.5939 692.582 L54.7884 711.031 L66.5939 711.031 L66.5939 692.582 M65.367 688.508 L71.2466 688.508 L71.2466 711.031 L76.1772 711.031 L76.1772 714.92 L71.2466 714.92 L71.2466 723.068 L66.5939 723.068 L66.5939 714.92 L50.9921 714.92 L50.9921 710.406 L65.367 688.508 Z" fill="#000000" fill-rule="nonzero" fill-opacity="1" /><path clip-path="url(#clip000)" d="M55.2745 463.009 L73.6309 463.009 L73.6309 466.945 L59.5569 466.945 L59.5569 475.417 Q60.5754 475.069 61.5939 474.907 Q62.6124 474.722 63.6309 474.722 Q69.418 474.722 72.7976 477.894 Q76.1772 481.065 76.1772 486.481 Q76.1772 492.06 72.705 495.162 Q69.2328 498.241 62.9134 498.241 Q60.7374 498.241 58.4689 497.87 Q56.2236 497.5 53.8162 496.759 L53.8162 492.06 Q55.8995 493.194 58.1217 493.75 Q60.3439 494.305 62.8208 494.305 Q66.8254 494.305 69.1633 492.199 Q71.5013 490.093 71.5013 486.481 Q71.5013 482.87 69.1633 480.764 Q66.8254 478.657 62.8208 478.657 Q60.9458 478.657 59.0708 479.074 Q57.2189 479.491 55.2745 480.37 L55.2745 463.009 Z" fill="#000000" fill-rule="nonzero" fill-opacity="1" /><path clip-path="url(#clip000)" d="M64.6495 252.928 Q61.5013 252.928 59.6495 255.08 Q57.8208 257.233 57.8208 260.983 Q57.8208 264.71 59.6495 266.886 Q61.5013 269.039 64.6495 269.039 Q67.7976 269.039 69.6263 266.886 Q71.4781 264.71 71.4781 260.983 Q71.4781 257.233 69.6263 255.08 Q67.7976 252.928 64.6495 252.928 M73.9318 238.275 L73.9318 242.534 Q72.1726 241.701 70.367 241.261 Q68.5846 240.821 66.8254 240.821 Q62.1958 240.821 59.7421 243.946 Q57.3115 247.071 56.9643 253.391 Q58.33 251.377 60.3902 250.312 Q62.4504 249.224 64.9272 249.224 Q70.1355 249.224 73.1448 252.395 Q76.1772 255.543 76.1772 260.983 Q76.1772 266.307 73.029 269.525 Q69.8809 272.742 64.6495 272.742 Q58.6541 272.742 55.4828 268.159 Q52.3116 263.553 52.3116 254.826 Q52.3116 246.631 56.2004 241.77 Q60.0893 236.886 66.6402 236.886 Q68.3994 236.886 70.1818 237.233 Q71.9874 237.581 73.9318 238.275 Z" fill="#000000" fill-rule="nonzero" fill-opacity="1" /><polyline clip-path="url(#clip002)" style="stroke:#009af9; stroke-linecap:round; stroke-linejoin:round; stroke-width:4; stroke-opacity:1; fill:none" points="175.59,1332.54 176.647,1332.99 177.704,1165.48 178.76,1166.26 179.817,1343.06 180.874,1343.66 181.931,1347.41 182.988,1347.83 184.045,1385.15 185.102,1385.41 186.159,989.722 187.215,991.949 188.272,1181.02 189.329,1181.91 190.386,1296.45 191.443,1297.04 192.5,1143.99 193.557,1144.78 194.614,1368.05 195.67,1368.42 196.727,1417.89 197.784,1418.08 198.841,1350.05 199.898,1350.51 200.955,1156.63 202.012,1157.41 203.069,1395.98 204.125,1396.21 205.182,1445.49 206.239,1445.72 207.296,1257.44 208.353,1257.88 209.41,1221.26 210.467,1222.36 211.524,1204.79 212.58,1205.41 213.637,1090.74 214.694,1092.7 215.751,1292.82 216.808,1293.29 217.865,1408.15 218.922,1408.35 219.979,842.776 221.035,844.27 222.092,1234.57 223.149,1234.99 224.206,755.164 225.263,757.775 226.32,1089.09 227.377,1089.99 228.434,1049.77 229.49,1051.1 230.547,1259.44 231.604,1260.26 232.661,1205.93 233.718,1206.6 234.775,1268.65 235.832,1268.95 236.889,1206.59 237.946,1207.2 239.002,1194.49 240.059,1195.02 241.116,1199.1 242.173,1199.86 243.23,1372.09 244.287,1372.39 245.344,1141.56 246.401,1142.7 247.457,1111.56 248.514,1112.32 249.571,1211.38 250.628,1212.45 251.685,1275.79 252.742,1276.37 253.799,927.126 254.856,928.248 255.912,972.375 256.969,974.062 258.026,1111.28 259.083,1112.09 260.14,1250.61 261.197,1251.5 262.254,1171.77 263.311,1172.35 264.367,1199.41 265.424,1199.79 266.481,1220.2 267.538,1221.27 268.595,1168.72 269.652,1169.55 270.709,1107.77 271.766,1108.63 272.822,645.769 273.879,649.19 274.936,1320.26 275.993,1321.02 277.05,1134.91 278.107,1135.54 279.164,1130.22 280.221,1130.9 281.277,1014.45 282.334,1015.67 283.391,965.482 284.448,967.298 285.505,744.241 286.562,745.584 287.619,1318.4 288.676,1318.78 289.732,909.473 290.789,910.771 291.846,1305.51 292.903,1305.92 293.96,1230.09 295.017,1230.58 296.074,1124.99 297.131,1125.94 298.187,1243.76 299.244,1244.16 300.301,1033.6 301.358,1034.51 302.415,1232.59 303.472,1233.4 304.529,1330.69 305.586,1331.03 306.642,1152.11 307.699,1152.62 308.756,1111.01 309.813,1111.8 310.87,1397.42 311.927,1397.71 312.984,1174.83 314.041,1175.35 315.098,1080.81 316.154,1082.37 317.211,1240.3 318.268,1240.73 319.325,1022.56 320.382,1024.22 321.439,1208.23 322.496,1208.58 323.553,1261.47 324.609,1262.04 325.666,1235.36 326.723,1236.01 327.78,1243.64 328.837,1244.65 329.894,1068.75 330.951,1069.4 332.008,1010.98 333.064,1011.87 334.121,872.652 335.178,874.838 336.235,1077.87 337.292,1078.69 338.349,1181.37 339.406,1181.71 340.463,620.906 341.519,622.386 342.576,1054.57 343.633,1055.51 344.69,1295.81 345.747,1296.23 346.804,1164.07 347.861,1164.9 348.918,994.721 349.974,995.952 351.031,1184.04 352.088,1184.47 353.145,908.479 354.202,910.075 355.259,1029.54 356.316,1030.4 357.373,1316.39 358.429,1316.78 359.486,1042.91 360.543,1043.62 361.6,1069.17 362.657,1069.84 363.714,1164.18 364.771,1164.6 365.828,1007.23 366.884,1008.33 367.941,1237.11 368.998,1237.42 370.055,382.312 371.112,385.545 372.169,1131.79 373.226,1132.23 374.283,1236.81 375.339,1237.46 376.396,1211.17 377.453,1211.66 378.51,1035.74 379.567,1036.42 380.624,1318.3 381.681,1318.88 382.738,1258.57 383.795,1259.05 384.851,1247.93 385.908,1248.22 386.965,1080.29 388.022,1080.75 389.079,1071.68 390.136,1072.39 391.193,1244.59 392.25,1244.92 393.306,1188.95 394.363,1189.53 395.42,1066.62 396.477,1067.73 397.534,1257.82 398.591,1258.79 399.648,1218.63 400.705,1219.37 401.761,1298.92 402.818,1299.29 403.875,1212.96 404.932,1213.34 405.989,1010.8 407.046,1011.7 408.103,927.764 409.16,929.164 410.216,939.654 411.273,940.788 412.33,1250.14 413.387,1250.39 414.444,1246.97 415.501,1247.23 416.558,1131.35 417.615,1131.73 418.671,1183.19 419.728,1183.68 420.785,1204.4 421.842,1204.72 422.899,1143.95 423.956,1144.35 425.013,1160.53 426.07,1161.14 427.126,1093.55 428.183,1094.21 429.24,1160.43 430.297,1161.13 431.354,737.607 432.411,740.596 433.468,1143.49 434.525,1143.85 435.581,1104.08 436.638,1104.7 437.695,1105.51 438.752,1106.05 439.809,1070.24 440.866,1070.97 441.923,1170.67 442.98,1170.97 444.036,1215.44 445.093,1215.71 446.15,1155.5 447.207,1155.86 448.264,1082.01 449.321,1082.38 450.378,1285.98 451.435,1286.14 452.491,1284.99 453.548,1285.35 454.605,1248.15 455.662,1248.4 456.719,1171.33 457.776,1171.63 458.833,1071.63 459.89,1072.36 460.947,1056.05 462.003,1056.54 463.06,1147.95 464.117,1148.42 465.174,1104.75 466.231,1105.06 467.288,919.594 468.345,920.903 469.402,1177.75 470.458,1178.27 471.515,918.741 472.572,920.012 473.629,1211.3 474.686,1211.46 475.743,1125.91 476.8,1126.41 477.857,1179.51 478.913,1179.97 479.97,923.57 481.027,925.007 482.084,1211.79 483.141,1211.96 484.198,1042.91 485.255,1043.55 486.312,1169.5 487.368,1169.98 488.425,1158.14 489.482,1158.73 490.539,1133.46 491.596,1133.71 492.653,1327.01 493.71,1327.25 494.767,1259.06 495.823,1259.32 496.88,1012.21 497.937,1012.84 498.994,1204.75 500.051,1205.05 501.108,1153.49 502.165,1153.71 503.222,1049.84 504.278,1050.31 505.335,1227.02 506.392,1227.46 507.449,1106.19 508.506,1106.64 509.563,1154.71 510.62,1154.96 511.677,571.331 512.733,574.153 513.79,1151.78 514.847,1152.01 515.904,1130.37 516.961,1130.91 518.018,1220.15 519.075,1220.58 520.132,1225.93 521.188,1226.53 522.245,948.806 523.302,949.409 524.359,1234.53 525.416,1234.78 526.473,1143.49 527.53,1144.05 528.587,1182.56 529.643,1182.77 530.7,1248.43 531.757,1248.83 532.814,1149.47 533.871,1149.97 534.928,1199.39 535.985,1199.54 537.042,1229.6 538.099,1230.01 539.155,1220 540.212,1220.26 541.269,1127.56 542.326,1127.86 543.383,1011.16 544.44,1011.59 545.497,1140.44 546.554,1140.67 547.61,1080.38 548.667,1080.87 549.724,1161.31 550.781,1161.59 551.838,706.17 552.895,707.938 553.952,1275.45 555.009,1275.82 556.065,1168.42 557.122,1168.7 558.179,1195.47 559.236,1195.62 560.293,1118.46 561.35,1118.76 562.407,833.042 563.464,834.607 564.52,1260.36 565.577,1260.68 566.634,1228.88 567.691,1229.11 568.748,912.038 569.805,913.344 570.862,1137.3 571.919,1137.47 572.975,1017.87 574.032,1018.48 575.089,1045.96 576.146,1046.29 577.203,1267.2 578.26,1267.59 579.317,1019.58 580.374,1019.92 581.43,1159.38 582.487,1159.54 583.544,985.694 584.601,986.452 585.658,1145 586.715,1145.38 587.772,1263.2 588.829,1263.34 589.885,1181.53 590.942,1181.68 591.999,1048.47 593.056,1048.85 594.113,1214.09 595.17,1214.44 596.227,1208.43 597.284,1208.66 598.34,1084.39 599.397,1084.64 600.454,1256.25 601.511,1256.68 602.568,1150.82 603.625,1151.03 604.682,945.576 605.739,946.232 606.795,1125.52 607.852,1125.8 608.909,1174.81 609.966,1175.06 611.023,1107.3 612.08,1107.49 613.137,1082.42 614.194,1082.77 615.251,1166.52 616.307,1166.81 617.364,1147.72 618.421,1148.15 619.478,1228.16 620.535,1228.33 621.592,872.509 622.649,873.766 623.706,1129.15 624.762,1129.32 625.819,1129.65 626.876,1129.91 627.933,979.815 628.99,980.426 630.047,1036.33 631.104,1036.61 632.161,1150.49 633.217,1150.69 634.274,1018.39 635.331,1019.26 636.388,1087.63 637.445,1087.9 638.502,1193.42 639.559,1193.68 640.616,1232.85 641.672,1232.98 642.729,1220.97 643.786,1221.19 644.843,1114.86 645.9,1115.09 646.957,496.994 648.014,500.692 649.071,1007.36 650.127,1008.38 651.184,1176.39 652.241,1176.58 653.298,1056.4 654.355,1056.74 655.412,1188.01 656.469,1188.14 657.526,1069.73 658.582,1069.95 659.639,1069.77 660.696,1070.17 661.753,1062.83 662.81,1063.23 663.867,696.14 664.924,697.938 665.981,1113.69 667.037,1113.99 668.094,1096.26 669.151,1096.53 670.208,1173.4 671.265,1173.7 672.322,954.532 673.379,955.492 674.436,821.4 675.492,822.863 676.549,973.913 677.606,974.605 678.663,1151.1 679.72,1151.54 680.777,1064.7 681.834,1064.97 682.891,1102.3 683.948,1102.54 685.004,1071.52 686.061,1071.81 687.118,1101.21 688.175,1101.42 689.232,1111.62 690.289,1111.92 691.346,1242.78 692.403,1243.16 693.459,741.935 694.516,743.475 695.573,684.014 696.63,685.66 697.687,1031.82 698.744,1032.19 699.801,1092.68 700.858,1092.82 701.914,1192.37 702.971,1192.53 704.028,1024.39 705.085,1024.93 706.142,1156.74 707.199,1156.93 708.256,1144.36 709.313,1144.55 710.369,995.416 711.426,996.008 712.483,1118.58 713.54,1118.81 714.597,1124.08 715.654,1124.39 716.711,1086.83 717.768,1087.1 718.824,1264.18 719.881,1264.62 720.938,1010.39 721.995,1010.75 723.052,917.143 724.109,918.008 725.166,926.876 726.223,927.918 727.279,1100.27 728.336,1100.5 729.393,1125.44 730.45,1125.59 731.507,1137.55 732.564,1137.89 733.621,1206.38 734.678,1206.54 735.734,1000.47 736.791,1000.91 737.848,808.95 738.905,810.606 739.962,1068.79 741.019,1069.15 742.076,1119.32 743.133,1119.47 744.189,1042.76 745.246,1043.04 746.303,897.228 747.36,898.085 748.417,886.874 749.474,887.614 750.531,1102.57 751.588,1102.76 752.644,896.006 753.701,897.085 754.758,1070.03 755.815,1070.29 756.872,1057.06 757.929,1057.39 758.986,970.772 760.043,971.607 761.1,1038.5 762.156,1038.93 763.213,929.039 764.27,929.877 765.327,1071.38 766.384,1071.66 767.441,1196.45 768.498,1196.63 769.555,1104.74 770.611,1104.99 771.668,868.728 772.725,869.885 773.782,844.081 774.839,845.627 775.896,988.189 776.953,988.838 778.01,1009.56 779.066,1010.08 780.123,1148.61 781.18,1149.04 782.237,1145.82 783.294,1145.95 784.351,965.672 785.408,966.465 786.465,970.205 787.521,970.539 788.578,1061.76 789.635,1061.98 790.692,1146.26 791.749,1146.56 792.806,1234.97 793.863,1235.16 794.92,1105.76 795.976,1106.08 797.033,1026.93 798.09,1027.31 799.147,1015.46 800.204,1015.67 801.261,970.19 802.318,970.556 803.375,1089.84 804.431,1090.25 805.488,1105.4 806.545,1105.67 807.602,997.739 808.659,998.161 809.716,919.411 810.773,920.201 811.83,991.108 812.886,991.639 813.943,1165.63 815,1165.86 816.057,1085.25 817.114,1085.42 818.171,828.424 819.228,830.044 820.285,756.82 821.341,758.517 822.398,1143.42 823.455,1143.59 824.512,925.472 825.569,926.1 826.626,1102.47 827.683,1102.62 828.74,1057.37 829.796,1057.66 830.853,1147.55 831.91,1147.71 832.967,1193.96 834.024,1194.32 835.081,989.15 836.138,989.333 837.195,1006.56 838.252,1006.99 839.308,1010.98 840.365,1011.53 841.422,883.473 842.479,884.194 843.536,1044.72 844.593,1045.02 845.65,935.712 846.707,936.217 847.763,891.387 848.82,892.74 849.877,1103.94 850.934,1104.14 851.991,932.553 853.048,933.066 854.105,1047.78 855.162,1047.93 856.218,873.265 857.275,874.453 858.332,954.92 859.389,955.37 860.446,1014.31 861.503,1014.77 862.56,1031.42 863.617,1031.58 864.673,1019.91 865.73,1020.22 866.787,1016.45 867.844,1016.7 868.901,1011.85 869.958,1012.16 871.015,1073.2 872.072,1073.7 873.128,1092.5 874.185,1092.74 875.242,855.205 876.299,856.525 877.356,1141.81 878.413,1141.95 879.47,1054.94 880.527,1055.07 881.583,854.48 882.64,855.664 883.697,1041.67 884.754,1042.11 885.811,998.213 886.868,998.484 887.925,1054.1 888.982,1054.32 890.038,1122.56 891.095,1122.68 892.152,1006.03 893.209,1006.16 894.266,1109.29 895.323,1109.37 896.38,1080.61 897.437,1080.72 898.493,941.456 899.55,942.157 900.607,1052.4 901.664,1052.55 902.721,835.953 903.778,836.791 904.835,949.4 905.892,949.808 906.948,906.679 908.005,907.031 909.062,1114.29 910.119,1114.49 911.176,1093.95 912.233,1094.06 913.29,1113.35 914.347,1113.62 915.404,1088.96 916.46,1089.06 917.517,921.988 918.574,922.432 919.631,986.767 920.688,987.11 921.745,1000.94 922.802,1001.22 923.859,1031.7 924.915,1031.92 925.972,942.978 927.029,943.518 928.086,1051.55 929.143,1051.84 930.2,960.146 931.257,960.395 932.314,924.666 933.37,925.002 934.427,986.78 935.484,986.943 936.541,967.048 937.598,967.652 938.655,1016.56 939.712,1016.76 940.769,1088.58 941.825,1088.7 942.882,710.999 943.939,714.685 944.996,1095.39 946.053,1095.8 947.11,1022.14 948.167,1022.75 949.224,1018.15 950.28,1018.28 951.337,1055.36 952.394,1055.46 953.451,1047.19 954.508,1047.45 955.565,1024.98 956.622,1025.16 957.679,1116.37 958.735,1116.44 959.792,1105.28 960.849,1105.55 961.906,1123.25 962.963,1123.38 964.02,990.19 965.077,990.404 966.134,774.787 967.19,776.452 968.247,1080.89 969.304,1081.27 970.361,867.806 971.418,868.566 972.475,973.172 973.532,973.418 974.589,912.286 975.645,912.875 976.702,1002.8 977.759,1003.04 978.816,965.97 979.873,966.24 980.93,1011.74 981.987,1012.01 983.044,812.105 984.101,813.644 985.157,919.064 986.214,919.333 987.271,1047.36 988.328,1047.74 989.385,1026.73 990.442,1027.1 991.499,1006.25 992.556,1006.36 993.612,948.265 994.669,948.511 995.726,864.478 996.783,865.053 997.84,900.974 998.897,901.825 999.954,909.594 1001.01,910.331 1002.07,1043.86 1003.12,1044.27 1004.18,954.026 1005.24,954.487 1006.29,1050.31 1007.35,1050.61 1008.41,975.8 1009.47,975.958 1010.52,1005.52 1011.58,1005.63 1012.64,991.921 1013.69,992.085 1014.75,950 1015.81,950.491 1016.86,873.737 1017.92,874.604 1018.98,923.214 1020.03,923.509 1021.09,1076.46 1022.15,1076.88 1023.2,909.818 1024.26,910.661 1025.32,882.87 1026.38,883.302 1027.43,799.068 1028.49,800.426 1029.55,927.375 1030.6,927.756 1031.66,871.352 1032.72,871.799 1033.77,848.913 1034.83,849.543 1035.89,992.549 1036.94,992.926 1038,979.04 1039.06,979.158 1040.11,1009.17 1041.17,1009.48 1042.23,943.022 1043.29,943.882 1044.34,1031.95 1045.4,1032.14 1046.46,1011.78 1047.51,1011.89 1048.57,938.469 1049.63,938.725 1050.68,1029.9 1051.74,1030.08 1052.8,1031.47 1053.85,1031.79 1054.91,966.417 1055.97,966.558 1057.02,990.134 1058.08,990.391 1059.14,941.118 1060.2,941.286 1061.25,999.093 1062.31,999.332 1063.37,866.129 1064.42,866.726 1065.48,934.175 1066.54,934.728 1067.59,998.395 1068.65,998.579 1069.71,864.882 1070.76,865.357 1071.82,980.035 1072.88,980.165 1073.94,932.457 1074.99,932.786 1076.05,988.991 1077.11,989.148 1078.16,1002.33 1079.22,1002.57 1080.28,1058.97 1081.33,1059.63 1082.39,940.619 1083.45,941.062 1084.5,909.491 1085.56,910.019 1086.62,985.741 1087.67,985.837 1088.73,850.92 1089.79,851.887 1090.85,902.688 1091.9,902.896 1092.96,919.006 1094.02,919.456 1095.07,1021.48 1096.13,1021.66 1097.19,1010.89 1098.24,1011.01 1099.3,914.867 1100.36,915.08 1101.41,949.834 1102.47,950.442 1103.53,925.893 1104.58,926.772 1105.64,1073.23 1106.7,1073.46 1107.76,947.667 1108.81,947.819 1109.87,878.592 1110.93,879.101 1111.98,940.265 1113.04,940.439 1114.1,921.76 1115.15,922.043 1116.21,940.175 1117.27,940.416 1118.32,1028.14 1119.38,1028.35 1120.44,919.915 1121.49,920.119 1122.55,951.101 1123.61,951.297 1124.67,849.743 1125.72,850.323 1126.78,1059.68 1127.84,1059.93 1128.89,916.662 1129.95,917.131 1131.01,946.526 1132.06,946.988 1133.12,892.572 1134.18,893.138 1135.23,1060.74 1136.29,1061.09 1137.35,900.528 1138.4,900.865 1139.46,1007.56 1140.52,1007.77 1141.58,1022.61 1142.63,1022.82 1143.69,907.579 1144.75,907.852 1145.8,1032.27 1146.86,1032.53 1147.92,878.534 1148.97,878.973 1150.03,810.305 1151.09,811.479 1152.14,902.805 1153.2,903.223 1154.26,987.165 1155.31,987.47 1156.37,1011.68 1157.43,1011.96 1158.49,949.687 1159.54,949.834 1160.6,828.256 1161.66,829.135 1162.71,927.475 1163.77,927.845 1164.83,893.589 1165.88,894.406 1166.94,959.478 1168,959.656 1169.05,894.063 1170.11,894.27 1171.17,832.239 1172.22,832.752 1173.28,650.614 1174.34,651.973 1175.4,917.568 1176.45,918.195 1177.51,1012.67 1178.57,1012.96 1179.62,943.619 1180.68,943.981 1181.74,979.157 1182.79,979.32 1183.85,867.338 1184.91,868.168 1185.96,967.777 1187.02,967.962 1188.08,961.356 1189.13,961.583 1190.19,991.937 1191.25,992.566 1192.31,923.894 1193.36,924.009 1194.42,961.859 1195.48,962.158 1196.53,857.145 1197.59,857.52 1198.65,912.277 1199.7,912.405 1200.76,871.264 1201.82,871.697 1202.87,898.882 1203.93,899.053 1204.99,87.9763 1206.04,91.3574 1207.1,866.544 1208.16,867.772 1209.22,827.642 1210.27,828.309 1211.33,851.766 1212.39,852.436 1213.44,874.545 1214.5,874.875 1215.56,881.285 1216.61,881.78 1217.67,988.02 1218.73,988.379 1219.78,979.063 1220.84,979.167 1221.9,860.194 1222.95,860.789 1224.01,1040.26 1225.07,1040.61 1226.13,950.596 1227.18,950.905 1228.24,797.57 1229.3,798.5 1230.35,951.789 1231.41,951.966 1232.47,879.94 1233.52,880.303 1234.58,966.78 1235.64,967.065 1236.69,856.067 1237.75,856.365 1238.81,793.07 1239.86,794.151 1240.92,912.024 1241.98,912.231 1243.04,906.457 1244.09,907.013 1245.15,917.662 1246.21,917.971 1247.26,1037.68 1248.32,1038.1 1249.38,946.906 1250.43,947.08 1251.49,864.336 1252.55,865.196 1253.6,850.338 1254.66,850.698 1255.72,953.225 1256.77,953.399 1257.83,968.476 1258.89,968.797 1259.95,917.925 1261,918.099 1262.06,890.99 1263.12,891.219 1264.17,924.63 1265.23,924.814 1266.29,925.76 1267.34,926.047 1268.4,927.746 1269.46,927.919 1270.51,1002.24 1271.57,1002.58 1272.63,910.597 1273.68,910.984 1274.74,889.838 1275.8,889.93 1276.86,829.138 1277.91,829.525 1278.97,936.662 1280.03,936.929 1281.08,947.7 1282.14,947.876 1283.2,970.691 1284.25,971.157 1285.31,889.105 1286.37,889.276 1287.42,913.382 1288.48,913.528 1289.54,877.668 1290.59,877.939 1291.65,954.66 1292.71,954.902 1293.77,929.685 1294.82,930.028 1295.88,949.545 1296.94,949.814 1297.99,979.853 1299.05,979.925 1300.11,912.461 1301.16,912.752 1302.22,889.17 1303.28,889.534 1304.33,905.619 1305.39,905.725 1306.45,950.634 1307.5,950.942 1308.56,856.903 1309.62,857.504 1310.68,912.572 1311.73,912.672 1312.79,827.421 1313.85,828.168 1314.9,874.422 1315.96,874.802 1317.02,969.676 1318.07,969.865 1319.13,904.998 1320.19,905.086 1321.24,955.583 1322.3,955.713 1323.36,823.906 1324.41,824.544 1325.47,826.701 1326.53,827.32 1327.59,838.918 1328.64,839.277 1329.7,902.565 1330.76,902.972 1331.81,985.936 1332.87,986.057 1333.93,942.257 1334.98,942.358 1336.04,889.356 1337.1,889.502 1338.15,907.49 1339.21,908.419 1340.27,860.035 1341.32,860.643 1342.38,847.081 1343.44,847.358 1344.5,870.395 1345.55,870.913 1346.61,904.919 1347.67,905.085 1348.72,941.94 1349.78,942.188 1350.84,958.668 1351.89,958.756 1352.95,962.379 1354.01,962.503 1355.06,844.518 1356.12,844.646 1357.18,929.13 1358.23,929.209 1359.29,926.771 1360.35,926.88 1361.41,901.337 1362.46,901.45 1363.52,992.893 1364.58,993.019 1365.63,899.02 1366.69,899.399 1367.75,925.945 1368.8,926.041 1369.86,953.247 1370.92,953.484 1371.97,967.379 1373.03,967.953 1374.09,892.161 1375.14,892.729 1376.2,961.377 1377.26,961.499 1378.32,884.656 1379.37,885.083 1380.43,846.546 1381.49,846.769 1382.54,828.025 1383.6,828.516 1384.66,757.94 1385.71,759.782 1386.77,865.455 1387.83,865.666 1388.88,946.205 1389.94,946.335 1391,912.688 1392.05,912.788 1393.11,838.226 1394.17,838.44 1395.23,823.731 1396.28,824.144 1397.34,898.337 1398.4,898.466 1399.45,874.457 1400.51,874.78 1401.57,921.569 1402.62,921.923 1403.68,904.823 1404.74,905.094 1405.79,891.016 1406.85,891.137 1407.91,960.691 1408.96,961.092 1410.02,838.164 1411.08,838.243 1412.14,847.314 1413.19,847.774 1414.25,854.232 1415.31,854.524 1416.36,825.237 1417.42,825.786 1418.48,923.551 1419.53,924.138 1420.59,882.981 1421.65,883.504 1422.7,908.623 1423.76,908.901 1424.82,899.61 1425.87,899.738 1426.93,916.485 1427.99,916.747 1429.05,827.782 1430.1,828.308 1431.16,909.226 1432.22,909.32 1433.27,935.515 1434.33,935.65 1435.39,906.763 1436.44,906.9 1437.5,812.37 1438.56,812.885 1439.61,868.731 1440.67,870.408 1441.73,952.078 1442.79,952.323 1443.84,903.638 1444.9,903.779 1445.96,931.148 1447.01,931.844 1448.07,836.68 1449.13,837.263 1450.18,855.821 1451.24,856.52 1452.3,864.372 1453.35,864.575 1454.41,931.68 1455.47,932.005 1456.52,847.456 1457.58,847.999 1458.64,854.69 1459.7,854.913 1460.75,831.113 1461.81,831.579 1462.87,938.255 1463.92,938.525 1464.98,827.602 1466.04,827.776 1467.09,908.24 1468.15,908.31 1469.21,871.133 1470.26,871.268 1471.32,849.361 1472.38,849.577 1473.43,878.337 1474.49,879.329 1475.55,814.856 1476.61,815.432 1477.66,866.848 1478.72,867.012 1479.78,872.744 1480.83,873.261 1481.89,908.174 1482.95,908.586 1484,874.355 1485.06,874.439 1486.12,887.381 1487.17,887.781 1488.23,827.048 1489.29,827.166 1490.34,940.711 1491.4,941.01 1492.46,843.182 1493.52,843.93 1494.57,821.864 1495.63,823.199 1496.69,928.284 1497.74,928.714 1498.8,961.904 1499.86,962.532 1500.91,866.705 1501.97,866.822 1503.03,873.072 1504.08,873.597 1505.14,898.298 1506.2,899.024 1507.25,972.776 1508.31,972.932 1509.37,839.854 1510.43,840.262 1511.48,862.505 1512.54,863.202 1513.6,877.553 1514.65,878.063 1515.71,861.899 1516.77,862.204 1517.82,894.513 1518.88,894.66 1519.94,841.941 1520.99,842.22 1522.05,878.212 1523.11,878.346 1524.16,884.083 1525.22,884.306 1526.28,888.981 1527.34,889.05 1528.39,895.001 1529.45,895.23 1530.51,883.657 1531.56,883.919 1532.62,885.437 1533.68,885.511 1534.73,913.717 1535.79,914.19 1536.85,869.746 1537.9,869.964 1538.96,869.231 1540.02,869.407 1541.07,914.204 1542.13,914.591 1543.19,889.829 1544.25,889.992 1545.3,893.646 1546.36,894.306 1547.42,895.874 1548.47,895.947 1549.53,914.035 1550.59,914.206 1551.64,876.005 1552.7,876.302 1553.76,902.88 1554.81,903.228 1555.87,852.145 1556.93,852.234 1557.98,843.127 1559.04,843.189 1560.1,831.168 1561.16,832.691 1562.21,807.18 1563.27,807.454 1564.33,871.098 1565.38,871.482 1566.44,900.328 1567.5,900.751 1568.55,844.885 1569.61,845.313 1570.67,851.167 1571.72,851.5 1572.78,897.811 1573.84,897.967 1574.89,916.134 1575.95,916.286 1577.01,907.382 1578.07,907.744 1579.12,845.367 1580.18,846.368 1581.24,910.758 1582.29,910.933 1583.35,842.125 1584.41,842.462 1585.46,848.032 1586.52,848.344 1587.58,921.715 1588.63,922.086 1589.69,883.926 1590.75,884.241 1591.8,929.024 1592.86,929.558 1593.92,880.917 1594.98,881.32 1596.03,940.699 1597.09,941.114 1598.15,838.807 1599.2,839.17 1600.26,928.149 1601.32,928.331 1602.37,883.52 1603.43,883.858 1604.49,912.776 1605.54,913.025 1606.6,906.889 1607.66,907.023 1608.71,849.466 1609.77,850.271 1610.83,861.539 1611.89,861.715 1612.94,829.011 1614,829.187 1615.06,953.153 1616.11,953.44 1617.17,892.154 1618.23,892.39 1619.28,907.728 1620.34,907.774 1621.4,900.03 1622.45,900.209 1623.51,826.543 1624.57,826.822 1625.62,916.896 1626.68,916.987 1627.74,826.388 1628.8,826.96 1629.85,864.037 1630.91,864.84 1631.97,876.795 1633.02,876.996 1634.08,903.173 1635.14,903.535 1636.19,845.562 1637.25,846.016 1638.31,886.888 1639.36,886.964 1640.42,972.154 1641.48,972.568 1642.53,909.52 1643.59,909.917 1644.65,923.558 1645.71,924.389 1646.76,857.116 1647.82,857.288 1648.88,857.491 1649.93,857.737 1650.99,838.503 1652.05,838.797 1653.1,835.309 1654.16,835.71 1655.22,886.408 1656.27,886.61 1657.33,883.253 1658.39,883.615 1659.44,912.764 1660.5,913.161 1661.56,857.501 1662.62,858.132 1663.67,900.171 1664.73,900.591 1665.79,912.825 1666.84,912.968 1667.9,955.122 1668.96,955.334 1670.01,859.348 1671.07,859.402 1672.13,851.312 1673.18,851.436 1674.24,942.817 1675.3,942.953 1676.35,845.828 1677.41,845.967 1678.47,879.986 1679.53,880.038 1680.58,882.768 1681.64,883.096 1682.7,863.88 1683.75,864.047 1684.81,876.379 1685.87,876.458 1686.92,899.681 1687.98,901.465 1689.04,902.078 1690.09,902.707 1691.15,843.554 1692.21,843.916 1693.26,911.261 1694.32,911.455 1695.38,963.668 1696.44,963.881 1697.49,885.877 1698.55,886.072 1699.61,849.259 1700.66,850.113 1701.72,873.173 1702.78,873.49 1703.83,855.818 1704.89,855.959 1705.95,887.248 1707,887.438 1708.06,900.561 1709.12,900.846 1710.17,845.202 1711.23,845.523 1712.29,874.423 1713.35,874.914 1714.4,946.33 1715.46,946.572 1716.52,883.821 1717.57,883.899 1718.63,939.806 1719.69,939.878 1720.74,846.134 1721.8,846.218 1722.86,896.091 1723.91,896.403 1724.97,903.173 1726.03,903.203 1727.08,916.972 1728.14,917.647 1729.2,892.644 1730.26,892.763 1731.31,874.397 1732.37,874.627 1733.43,859.942 1734.48,860.218 1735.54,892.076 1736.6,892.443 1737.65,848.735 1738.71,848.808 1739.77,901.085 1740.82,901.306 1741.88,859.17 1742.94,859.371 1743.99,878.048 1745.05,878.196 1746.11,952.069 1747.17,952.728 1748.22,852.777 1749.28,852.834 1750.34,900.915 1751.39,901.729 1752.45,875.461 1753.51,875.661 1754.56,882.273 1755.62,882.503 1756.68,901.606 1757.73,901.871 1758.79,913.453 1759.85,913.51 1760.9,868.84 1761.96,868.923 1763.02,876.332 1764.08,876.536 1765.13,913.926 1766.19,914.263 1767.25,893.422 1768.3,893.54 1769.36,865.244 1770.42,865.779 1771.47,848.421 1772.53,848.916 1773.59,872.269 1774.64,872.665 1775.7,942.565 1776.76,943.163 1777.81,913.554 1778.87,914.339 1779.93,868.779 1780.99,868.997 1782.04,888.108 1783.1,888.436 1784.16,894.916 1785.21,895.632 1786.27,876.927 1787.33,877.003 1788.38,913.756 1789.44,913.987 1790.5,888.448 1791.55,889.442 1792.61,861.926 1793.67,862.31 1794.72,918.975 1795.78,919.055 1796.84,839.236 1797.9,839.578 1798.95,876.355 1800.01,876.889 1801.07,897.668 1802.12,897.873 1803.18,896.782 1804.24,896.999 1805.29,844.84 1806.35,845.663 1807.41,846.733 1808.46,846.807 1809.52,815.474 1810.58,817.425 1811.64,884.997 1812.69,885.087 1813.75,842.432 1814.81,842.56 1815.86,890.641 1816.92,890.78 1817.98,911.254 1819.03,911.323 1820.09,910.246 1821.15,910.582 1822.2,860.349 1823.26,860.612 1824.32,915.847 1825.37,915.954 1826.43,866.641 1827.49,866.876 1828.55,847.067 1829.6,847.398 1830.66,857.755 1831.72,857.958 1832.77,892.928 1833.83,893.225 1834.89,878.699 1835.94,879.184 1837,836.713 1838.06,836.808 1839.11,895.096 1840.17,895.424 1841.23,894.791 1842.28,894.898 1843.34,853.382 1844.4,853.561 1845.46,884.242 1846.51,884.387 1847.57,898.712 1848.63,898.891 1849.68,807.378 1850.74,808.044 1851.8,876.909 1852.85,876.984 1853.91,867.378 1854.97,867.636 1856.02,908.915 1857.08,909.014 1858.14,893.642 1859.19,893.831 1860.25,860.793 1861.31,860.903 1862.37,874.621 1863.42,875.171 1864.48,845.454 1865.54,845.66 1866.59,878.743 1867.65,878.787 1868.71,856.866 1869.76,857.59 1870.82,881.872 1871.88,881.954 1872.93,837.995 1873.99,838.389 1875.05,916.98 1876.1,917.14 1877.16,878.514 1878.22,879.706 1879.28,848.57 1880.33,849.183 1881.39,889.909 1882.45,890.012 1883.5,872.383 1884.56,872.84 1885.62,858.079 1886.67,858.19 1887.73,915.303 1888.79,915.355 1889.84,891.843 1890.9,892.209 1891.96,887.355 1893.01,887.601 1894.07,885.584 1895.13,885.686 1896.19,875.608 1897.24,875.683 1898.3,867.013 1899.36,867.116 1900.41,910.158 1901.47,910.511 1902.53,839.595 1903.58,839.784 1904.64,867.444 1905.7,867.925 1906.75,864.978 1907.81,865.079 1908.87,887.571 1909.92,887.772 1910.98,869.442 1912.04,869.868 1913.1,903.691 1914.15,903.827 1915.21,868.091 1916.27,868.522 1917.32,900.54 1918.38,900.942 1919.44,878.013 1920.49,878.275 1921.55,888.161 1922.61,888.216 1923.66,859.563 1924.72,860.032 1925.78,841.544 1926.83,841.908 1927.89,884.488 1928.95,884.712 1930.01,882.926 1931.06,883.348 1932.12,915.795 1933.18,916.991 1934.23,914.489 1935.29,914.662 1936.35,883.914 1937.4,884.19 1938.46,892.851 1939.52,893.07 1940.57,871.474 1941.63,871.665 1942.69,887.551 1943.74,887.664 1944.8,924.453 1945.86,924.574 1946.92,913.695 1947.97,913.832 1949.03,889.369 1950.09,889.445 1951.14,901.407 1952.2,901.816 1953.26,874.542 1954.31,875.079 1955.37,907.247 1956.43,907.568 1957.48,875.194 1958.54,876.124 1959.6,879.873 1960.65,880.174 1961.71,920.229 1962.77,920.771 1963.83,887.974 1964.88,888.172 1965.94,947.092 1967,947.385 1968.05,897.848 1969.11,897.89 1970.17,889.152 1971.22,889.648 1972.28,882.018 1973.34,882.392 1974.39,857.974 1975.45,858.236 1976.51,884.658 1977.56,885.239 1978.62,868.91 1979.68,868.966 1980.74,885.433 1981.79,885.544 1982.85,900.215 1983.91,900.713 1984.96,848.538 1986.02,848.75 1987.08,853.662 1988.13,853.751 1989.19,898.284 1990.25,898.457 1991.3,863.163 1992.36,863.626 1993.42,884.19 1994.47,884.35 1995.53,897.823 1996.59,898.354 1997.65,878.236 1998.7,878.434 1999.76,892.424 2000.82,892.687 2001.87,918.032 2002.93,918.713 2003.99,929.262 2005.04,929.362 2006.1,883.008 2007.16,883.076 2008.21,919.432 2009.27,919.558 2010.33,895.204 2011.38,895.233 2012.44,864.407 2013.5,864.527 2014.56,914.2 2015.61,914.597 2016.67,916.804 2017.73,916.969 2018.78,894.196 2019.84,894.556 2020.9,857.211 2021.95,857.345 2023.01,873.585 2024.07,874.057 2025.12,858.023 2026.18,858.416 2027.24,939.867 2028.29,939.886 2029.35,874.017 2030.41,874.174 2031.47,958.615 2032.52,958.666 2033.58,833.132 2034.64,834.011 2035.69,883.957 2036.75,884.12 2037.81,866.795 2038.86,866.861 2039.92,883.113 2040.98,883.381 2042.03,864.945 2043.09,865.208 2044.15,855.849 2045.2,855.976 2046.26,904.301 2047.32,904.712 2048.38,842.385 2049.43,842.486 2050.49,877.267 2051.55,877.724 2052.6,850.414 2053.66,850.534 2054.72,857.862 2055.77,857.993 2056.83,903.858 2057.89,903.981 2058.94,847.737 2060,847.881 2061.06,865.421 2062.11,865.528 2063.17,832.731 2064.23,832.949 2065.29,889.604 2066.34,889.747 2067.4,851.607 2068.46,851.802 2069.51,864.467 2070.57,865.053 2071.63,875.122 2072.68,875.236 2073.74,878.519 2074.8,878.914 2075.85,861.925 2076.91,862.018 2077.97,901.667 2079.02,901.72 2080.08,866.995 2081.14,867.145 2082.2,854.53 2083.25,855.437 2084.31,869.505 2085.37,869.561 2086.42,863.33 2087.48,863.493 2088.54,889.002 2089.59,889.316 2090.65,872.702 2091.71,872.842 2092.76,935.856 2093.82,936.136 2094.88,904.183 2095.93,904.251 2096.99,880.668 2098.05,880.811 2099.11,855.39 2100.16,855.706 2101.22,911.712 2102.28,911.935 2103.33,884.416 2104.39,884.694 2105.45,868.848 2106.5,869.289 2107.56,856.767 2108.62,857.033 2109.67,901.626 2110.73,901.675 2111.79,872.192 2112.84,872.283 2113.9,890.563 2114.96,890.733 2116.02,887.539 2117.07,888.224 2118.13,919.334 2119.19,919.663 2120.24,899.806 2121.3,900.102 2122.36,863.547 2123.41,863.987 2124.47,910.296 2125.53,910.483 2126.58,843.776 2127.64,844.09 2128.7,894.328 2129.75,894.49 2130.81,847.231 2131.87,847.365 2132.93,925.307 2133.98,925.377 2135.04,868.271 2136.1,868.824 2137.15,890.628 2138.21,890.779 2139.27,865.294 2140.32,865.596 2141.38,914.027 2142.44,914.102 2143.49,901.718 2144.55,901.848 2145.61,882.444 2146.66,882.539 2147.72,871.733 2148.78,871.853 2149.84,883.891 2150.89,884.108 2151.95,869.076 2153.01,869.319 2154.06,874.951 2155.12,875.31 2156.18,844.659 2157.23,844.773 2158.29,842.6 2159.35,842.836 2160.4,877.841 2161.46,878.185 2162.52,851.789 2163.57,852.431 2164.63,919.282 2165.69,919.554 2166.75,895.837 2167.8,896.048 2168.86,894.987 2169.92,895.195 2170.97,853.055 2172.03,853.192 2173.09,852.976 2174.14,853.279 2175.2,856.818 2176.26,857.009 2177.31,911.48 2178.37,911.63 2179.43,892.512 2180.48,892.806 2181.54,854.743 2182.6,854.866 2183.66,912.198 2184.71,912.402 2185.77,871.748 2186.83,872.204 2187.88,869.555 2188.94,869.685 2190,887.254 2191.05,887.413 2192.11,900.474 2193.17,901.071 2194.22,935.489 2195.28,935.67 2196.34,899.085 2197.4,899.475 2198.45,873.272 2199.51,873.644 2200.57,858.858 2201.62,859.06 2202.68,849.029 2203.74,849.134 2204.79,905.179 2205.85,905.268 2206.91,292.159 2207.96,295.759 2209.02,876.976 2210.08,877.077 2211.13,844.766 2212.19,845.082 2213.25,931.387 2214.31,931.803 2215.36,908.096 2216.42,908.266 2217.48,894.079 2218.53,894.407 2219.59,857.766 2220.65,857.897 2221.7,873.14 2222.76,873.309 2223.82,852.7 2224.87,852.858 2225.93,881.523 2226.99,881.959 2228.04,875.852 2229.1,875.947 2230.16,913.366 2231.22,914.083 2232.27,876.307 2233.33,876.795 2234.39,886.968 2235.44,887.271 2236.5,847.863 2237.56,848.292 2238.61,886.957 2239.67,887.252 2240.73,885.949 2241.78,886.134 2242.84,867.622 2243.9,868.612 2244.95,888.271 2246.01,888.476 2247.07,869.978 2248.13,870.18 2249.18,869.289 2250.24,869.928 2251.3,854.015 2252.35,854.361 2253.41,873.4 2254.47,873.505 2255.52,876.383 2256.58,876.516 2257.64,853.574 2258.69,853.976 2259.75,900.569 2260.81,900.657 2261.86,903.739 2262.92,903.874 2263.98,877.243 2265.04,877.61 2266.09,900.081 2267.15,900.117 2268.21,916.055 2269.26,916.451 2270.32,832.349 2271.38,833.193 2272.43,880.117 2273.49,880.553 2274.55,862.824 2275.6,862.973 2276.66,916.266 2277.72,916.508 2278.77,876.739 2279.83,876.897 2280.89,888.036 2281.95,888.332 2283,866.215 2284.06,866.737 2285.12,903.336 2286.17,903.414 2287.23,849.182 2288.29,849.821 2289.34,850.449 "/>
<path clip-path="url(#clip000)" d="M2001.58 1438.47 L2278.07 1438.47 L2278.07 1334.79 L2001.58 1334.79  Z" fill="#ffffff" fill-rule="evenodd" fill-opacity="1"/>
<polyline clip-path="url(#clip000)" style="stroke:#000000; stroke-linecap:round; stroke-linejoin:round; stroke-width:4; stroke-opacity:1; fill:none" points="2001.58,1438.47 2278.07,1438.47 2278.07,1334.79 2001.58,1334.79 2001.58,1438.47 "/>
<polyline clip-path="url(#clip000)" style="stroke:#009af9; stroke-linecap:round; stroke-linejoin:round; stroke-width:4; stroke-opacity:1; fill:none" points="2026.48,1386.63 2175.85,1386.63 "/>
<path clip-path="url(#clip000)" d="M2214.59 1406.32 Q2212.78 1410.95 2211.07 1412.36 Q2209.36 1413.78 2206.49 1413.78 L2203.08 1413.78 L2203.08 1410.21 L2205.58 1410.21 Q2207.34 1410.21 2208.31 1409.38 Q2209.29 1408.54 2210.47 1405.44 L2211.23 1403.5 L2200.74 1377.99 L2205.26 1377.99 L2213.36 1398.27 L2221.46 1377.99 L2225.98 1377.99 L2214.59 1406.32 Z" fill="#000000" fill-rule="nonzero" fill-opacity="1" /><path clip-path="url(#clip000)" d="M2233.27 1399.98 L2240.91 1399.98 L2240.91 1373.61 L2232.6 1375.28 L2232.6 1371.02 L2240.86 1369.35 L2245.54 1369.35 L2245.54 1399.98 L2253.17 1399.98 L2253.17 1403.91 L2233.27 1403.91 L2233.27 1399.98 Z" fill="#000000" fill-rule="nonzero" fill-opacity="1" /></svg>
