<?xml version="1.0" encoding="utf-8"?>
<svg xmlns="http://www.w3.org/2000/svg" xmlns:xlink="http://www.w3.org/1999/xlink" width="600" height="400" viewBox="0 0 2400 1600">
<defs>
  <clipPath id="clip390">
    <rect x="0" y="0" width="2400" height="1600"/>
  </clipPath>
</defs>
<path clip-path="url(#clip390)" d="M0 1600 L2400 1600 L2400 0 L0 0  Z" fill="#ffffff" fill-rule="evenodd" fill-opacity="1"/>
<defs>
  <clipPath id="clip391">
    <rect x="480" y="0" width="1681" height="1600"/>
  </clipPath>
</defs>
<path clip-path="url(#clip390)" d="M156.274 1486.45 L2352.76 1486.45 L2352.76 47.2441 L156.274 47.2441  Z" fill="#ffffff" fill-rule="evenodd" fill-opacity="1"/>
<defs>
  <clipPath id="clip392">
    <rect x="156" y="47" width="2197" height="1440"/>
  </clipPath>
</defs>
<polyline clip-path="url(#clip392)" style="stroke:#000000; stroke-linecap:round; stroke-linejoin:round; stroke-width:2; stroke-opacity:0.1; fill:none" points="218.439,1486.45 218.439,47.2441 "/>
<polyline clip-path="url(#clip392)" style="stroke:#000000; stroke-linecap:round; stroke-linejoin:round; stroke-width:2; stroke-opacity:0.1; fill:none" points="633.035,1486.45 633.035,47.2441 "/>
<polyline clip-path="url(#clip392)" style="stroke:#000000; stroke-linecap:round; stroke-linejoin:round; stroke-width:2; stroke-opacity:0.1; fill:none" points="1047.63,1486.45 1047.63,47.2441 "/>
<polyline clip-path="url(#clip392)" style="stroke:#000000; stroke-linecap:round; stroke-linejoin:round; stroke-width:2; stroke-opacity:0.1; fill:none" points="1462.23,1486.45 1462.23,47.2441 "/>
<polyline clip-path="url(#clip392)" style="stroke:#000000; stroke-linecap:round; stroke-linejoin:round; stroke-width:2; stroke-opacity:0.1; fill:none" points="1876.82,1486.45 1876.82,47.2441 "/>
<polyline clip-path="url(#clip392)" style="stroke:#000000; stroke-linecap:round; stroke-linejoin:round; stroke-width:2; stroke-opacity:0.1; fill:none" points="2291.42,1486.45 2291.42,47.2441 "/>
<polyline clip-path="url(#clip390)" style="stroke:#000000; stroke-linecap:round; stroke-linejoin:round; stroke-width:4; stroke-opacity:1; fill:none" points="156.274,1486.45 2352.76,1486.45 "/>
<polyline clip-path="url(#clip390)" style="stroke:#000000; stroke-linecap:round; stroke-linejoin:round; stroke-width:4; stroke-opacity:1; fill:none" points="218.439,1486.45 218.439,1467.55 "/>
<polyline clip-path="url(#clip390)" style="stroke:#000000; stroke-linecap:round; stroke-linejoin:round; stroke-width:4; stroke-opacity:1; fill:none" points="633.035,1486.45 633.035,1467.55 "/>
<polyline clip-path="url(#clip390)" style="stroke:#000000; stroke-linecap:round; stroke-linejoin:round; stroke-width:4; stroke-opacity:1; fill:none" points="1047.63,1486.45 1047.63,1467.55 "/>
<polyline clip-path="url(#clip390)" style="stroke:#000000; stroke-linecap:round; stroke-linejoin:round; stroke-width:4; stroke-opacity:1; fill:none" points="1462.23,1486.45 1462.23,1467.55 "/>
<polyline clip-path="url(#clip390)" style="stroke:#000000; stroke-linecap:round; stroke-linejoin:round; stroke-width:4; stroke-opacity:1; fill:none" points="1876.82,1486.45 1876.82,1467.55 "/>
<polyline clip-path="url(#clip390)" style="stroke:#000000; stroke-linecap:round; stroke-linejoin:round; stroke-width:4; stroke-opacity:1; fill:none" points="2291.42,1486.45 2291.42,1467.55 "/>
<path clip-path="url(#clip390)" d="M218.439 1517.37 Q214.828 1517.37 212.999 1520.93 Q211.193 1524.47 211.193 1531.6 Q211.193 1538.71 212.999 1542.27 Q214.828 1545.82 218.439 1545.82 Q222.073 1545.82 223.879 1542.27 Q225.707 1538.71 225.707 1531.6 Q225.707 1524.47 223.879 1520.93 Q222.073 1517.37 218.439 1517.37 M218.439 1513.66 Q224.249 1513.66 227.304 1518.27 Q230.383 1522.85 230.383 1531.6 Q230.383 1540.33 227.304 1544.94 Q224.249 1549.52 218.439 1549.52 Q212.629 1549.52 209.55 1544.94 Q206.494 1540.33 206.494 1531.6 Q206.494 1522.85 209.55 1518.27 Q212.629 1513.66 218.439 1513.66 Z" fill="#000000" fill-rule="nonzero" fill-opacity="1" /><path clip-path="url(#clip390)" d="M592.653 1514.29 L611.01 1514.29 L611.01 1518.22 L596.936 1518.22 L596.936 1526.7 Q597.954 1526.35 598.973 1526.19 Q599.991 1526 601.01 1526 Q606.797 1526 610.176 1529.17 Q613.556 1532.34 613.556 1537.76 Q613.556 1543.34 610.084 1546.44 Q606.612 1549.52 600.292 1549.52 Q598.116 1549.52 595.848 1549.15 Q593.602 1548.78 591.195 1548.04 L591.195 1543.34 Q593.278 1544.47 595.501 1545.03 Q597.723 1545.58 600.2 1545.58 Q604.204 1545.58 606.542 1543.48 Q608.88 1541.37 608.88 1537.76 Q608.88 1534.15 606.542 1532.04 Q604.204 1529.94 600.2 1529.94 Q598.325 1529.94 596.45 1530.35 Q594.598 1530.77 592.653 1531.65 L592.653 1514.29 Z" fill="#000000" fill-rule="nonzero" fill-opacity="1" /><path clip-path="url(#clip390)" d="M632.769 1517.37 Q629.158 1517.37 627.329 1520.93 Q625.524 1524.47 625.524 1531.6 Q625.524 1538.71 627.329 1542.27 Q629.158 1545.82 632.769 1545.82 Q636.403 1545.82 638.209 1542.27 Q640.037 1538.71 640.037 1531.6 Q640.037 1524.47 638.209 1520.93 Q636.403 1517.37 632.769 1517.37 M632.769 1513.66 Q638.579 1513.66 641.635 1518.27 Q644.713 1522.85 644.713 1531.6 Q644.713 1540.33 641.635 1544.94 Q638.579 1549.52 632.769 1549.52 Q626.959 1549.52 623.88 1544.94 Q620.825 1540.33 620.825 1531.6 Q620.825 1522.85 623.88 1518.27 Q626.959 1513.66 632.769 1513.66 Z" fill="#000000" fill-rule="nonzero" fill-opacity="1" /><path clip-path="url(#clip390)" d="M662.931 1517.37 Q659.32 1517.37 657.491 1520.93 Q655.685 1524.47 655.685 1531.6 Q655.685 1538.71 657.491 1542.27 Q659.32 1545.82 662.931 1545.82 Q666.565 1545.82 668.371 1542.27 Q670.199 1538.71 670.199 1531.6 Q670.199 1524.47 668.371 1520.93 Q666.565 1517.37 662.931 1517.37 M662.931 1513.66 Q668.741 1513.66 671.796 1518.27 Q674.875 1522.85 674.875 1531.6 Q674.875 1540.33 671.796 1544.94 Q668.741 1549.52 662.931 1549.52 Q657.121 1549.52 654.042 1544.94 Q650.986 1540.33 650.986 1531.6 Q650.986 1522.85 654.042 1518.27 Q657.121 1513.66 662.931 1513.66 Z" fill="#000000" fill-rule="nonzero" fill-opacity="1" /><path clip-path="url(#clip390)" d="M992.157 1544.91 L999.796 1544.91 L999.796 1518.55 L991.486 1520.21 L991.486 1515.95 L999.75 1514.29 L1004.43 1514.29 L1004.43 1544.91 L1012.06 1544.91 L1012.06 1548.85 L992.157 1548.85 L992.157 1544.91 Z" fill="#000000" fill-rule="nonzero" fill-opacity="1" /><path clip-path="url(#clip390)" d="M1031.51 1517.37 Q1027.9 1517.37 1026.07 1520.93 Q1024.26 1524.47 1024.26 1531.6 Q1024.26 1538.71 1026.07 1542.27 Q1027.9 1545.82 1031.51 1545.82 Q1035.14 1545.82 1036.95 1542.27 Q1038.78 1538.71 1038.78 1531.6 Q1038.78 1524.47 1036.95 1520.93 Q1035.14 1517.37 1031.51 1517.37 M1031.51 1513.66 Q1037.32 1513.66 1040.37 1518.27 Q1043.45 1522.85 1043.45 1531.6 Q1043.45 1540.33 1040.37 1544.94 Q1037.32 1549.52 1031.51 1549.52 Q1025.7 1549.52 1022.62 1544.94 Q1019.56 1540.33 1019.56 1531.6 Q1019.56 1522.85 1022.62 1518.27 Q1025.7 1513.66 1031.51 1513.66 Z" fill="#000000" fill-rule="nonzero" fill-opacity="1" /><path clip-path="url(#clip390)" d="M1061.67 1517.37 Q1058.06 1517.37 1056.23 1520.93 Q1054.43 1524.47 1054.43 1531.6 Q1054.43 1538.71 1056.23 1542.27 Q1058.06 1545.82 1061.67 1545.82 Q1065.3 1545.82 1067.11 1542.27 Q1068.94 1538.71 1068.94 1531.6 Q1068.94 1524.47 1067.11 1520.93 Q1065.3 1517.37 1061.67 1517.37 M1061.67 1513.66 Q1067.48 1513.66 1070.54 1518.27 Q1073.62 1522.85 1073.62 1531.6 Q1073.62 1540.33 1070.54 1544.94 Q1067.48 1549.52 1061.67 1549.52 Q1055.86 1549.52 1052.78 1544.94 Q1049.73 1540.33 1049.73 1531.6 Q1049.73 1522.85 1052.78 1518.27 Q1055.86 1513.66 1061.67 1513.66 Z" fill="#000000" fill-rule="nonzero" fill-opacity="1" /><path clip-path="url(#clip390)" d="M1091.83 1517.37 Q1088.22 1517.37 1086.39 1520.93 Q1084.59 1524.47 1084.59 1531.6 Q1084.59 1538.71 1086.39 1542.27 Q1088.22 1545.82 1091.83 1545.82 Q1095.47 1545.82 1097.27 1542.27 Q1099.1 1538.71 1099.1 1531.6 Q1099.1 1524.47 1097.27 1520.93 Q1095.47 1517.37 1091.83 1517.37 M1091.83 1513.66 Q1097.64 1513.66 1100.7 1518.27 Q1103.78 1522.85 1103.78 1531.6 Q1103.78 1540.33 1100.7 1544.94 Q1097.64 1549.52 1091.83 1549.52 Q1086.02 1549.52 1082.94 1544.94 Q1079.89 1540.33 1079.89 1531.6 Q1079.89 1522.85 1082.94 1518.27 Q1086.02 1513.66 1091.83 1513.66 Z" fill="#000000" fill-rule="nonzero" fill-opacity="1" /><path clip-path="url(#clip390)" d="M1406.75 1544.91 L1414.39 1544.91 L1414.39 1518.55 L1406.08 1520.21 L1406.08 1515.95 L1414.35 1514.29 L1419.02 1514.29 L1419.02 1544.91 L1426.66 1544.91 L1426.66 1548.85 L1406.75 1548.85 L1406.75 1544.91 Z" fill="#000000" fill-rule="nonzero" fill-opacity="1" /><path clip-path="url(#clip390)" d="M1436.15 1514.29 L1454.51 1514.29 L1454.51 1518.22 L1440.43 1518.22 L1440.43 1526.7 Q1441.45 1526.35 1442.47 1526.19 Q1443.49 1526 1444.51 1526 Q1450.3 1526 1453.67 1529.17 Q1457.05 1532.34 1457.05 1537.76 Q1457.05 1543.34 1453.58 1546.44 Q1450.11 1549.52 1443.79 1549.52 Q1441.61 1549.52 1439.35 1549.15 Q1437.1 1548.78 1434.69 1548.04 L1434.69 1543.34 Q1436.78 1544.47 1439 1545.03 Q1441.22 1545.58 1443.7 1545.58 Q1447.7 1545.58 1450.04 1543.48 Q1452.38 1541.37 1452.38 1537.76 Q1452.38 1534.15 1450.04 1532.04 Q1447.7 1529.94 1443.7 1529.94 Q1441.82 1529.94 1439.95 1530.35 Q1438.1 1530.77 1436.15 1531.65 L1436.15 1514.29 Z" fill="#000000" fill-rule="nonzero" fill-opacity="1" /><path clip-path="url(#clip390)" d="M1476.27 1517.37 Q1472.66 1517.37 1470.83 1520.93 Q1469.02 1524.47 1469.02 1531.6 Q1469.02 1538.71 1470.83 1542.27 Q1472.66 1545.82 1476.27 1545.82 Q1479.9 1545.82 1481.71 1542.27 Q1483.54 1538.71 1483.54 1531.6 Q1483.54 1524.47 1481.71 1520.93 Q1479.9 1517.37 1476.27 1517.37 M1476.27 1513.66 Q1482.08 1513.66 1485.13 1518.27 Q1488.21 1522.85 1488.21 1531.6 Q1488.21 1540.33 1485.13 1544.94 Q1482.08 1549.52 1476.27 1549.52 Q1470.46 1549.52 1467.38 1544.94 Q1464.32 1540.33 1464.32 1531.6 Q1464.32 1522.85 1467.38 1518.27 Q1470.46 1513.66 1476.27 1513.66 Z" fill="#000000" fill-rule="nonzero" fill-opacity="1" /><path clip-path="url(#clip390)" d="M1506.43 1517.37 Q1502.82 1517.37 1500.99 1520.93 Q1499.18 1524.47 1499.18 1531.6 Q1499.18 1538.71 1500.99 1542.27 Q1502.82 1545.82 1506.43 1545.82 Q1510.06 1545.82 1511.87 1542.27 Q1513.7 1538.71 1513.7 1531.6 Q1513.7 1524.47 1511.87 1520.93 Q1510.06 1517.37 1506.43 1517.37 M1506.43 1513.66 Q1512.24 1513.66 1515.29 1518.27 Q1518.37 1522.85 1518.37 1531.6 Q1518.37 1540.33 1515.29 1544.94 Q1512.24 1549.52 1506.43 1549.52 Q1500.62 1549.52 1497.54 1544.94 Q1494.48 1540.33 1494.48 1531.6 Q1494.48 1522.85 1497.54 1518.27 Q1500.62 1513.66 1506.43 1513.66 Z" fill="#000000" fill-rule="nonzero" fill-opacity="1" /><path clip-path="url(#clip390)" d="M1825.44 1544.91 L1841.75 1544.91 L1841.75 1548.85 L1819.81 1548.85 L1819.81 1544.91 Q1822.47 1542.16 1827.06 1537.53 Q1831.66 1532.88 1832.84 1531.53 Q1835.09 1529.01 1835.97 1527.27 Q1836.87 1525.51 1836.87 1523.82 Q1836.87 1521.07 1834.93 1519.33 Q1833 1517.6 1829.9 1517.6 Q1827.7 1517.6 1825.25 1518.36 Q1822.82 1519.13 1820.04 1520.68 L1820.04 1515.95 Q1822.87 1514.82 1825.32 1514.24 Q1827.77 1513.66 1829.81 1513.66 Q1835.18 1513.66 1838.38 1516.35 Q1841.57 1519.03 1841.57 1523.52 Q1841.57 1525.65 1840.76 1527.57 Q1839.97 1529.47 1837.87 1532.07 Q1837.29 1532.74 1834.19 1535.95 Q1831.08 1539.15 1825.44 1544.91 Z" fill="#000000" fill-rule="nonzero" fill-opacity="1" /><path clip-path="url(#clip390)" d="M1861.57 1517.37 Q1857.96 1517.37 1856.13 1520.93 Q1854.32 1524.47 1854.32 1531.6 Q1854.32 1538.71 1856.13 1542.27 Q1857.96 1545.82 1861.57 1545.82 Q1865.2 1545.82 1867.01 1542.27 Q1868.84 1538.71 1868.84 1531.6 Q1868.84 1524.47 1867.01 1520.93 Q1865.2 1517.37 1861.57 1517.37 M1861.57 1513.66 Q1867.38 1513.66 1870.44 1518.27 Q1873.51 1522.85 1873.51 1531.6 Q1873.51 1540.33 1870.44 1544.94 Q1867.38 1549.52 1861.57 1549.52 Q1855.76 1549.52 1852.68 1544.94 Q1849.63 1540.33 1849.63 1531.6 Q1849.63 1522.85 1852.68 1518.27 Q1855.76 1513.66 1861.57 1513.66 Z" fill="#000000" fill-rule="nonzero" fill-opacity="1" /><path clip-path="url(#clip390)" d="M1891.73 1517.37 Q1888.12 1517.37 1886.29 1520.93 Q1884.49 1524.47 1884.49 1531.6 Q1884.49 1538.71 1886.29 1542.27 Q1888.12 1545.82 1891.73 1545.82 Q1895.37 1545.82 1897.17 1542.27 Q1899 1538.71 1899 1531.6 Q1899 1524.47 1897.17 1520.93 Q1895.37 1517.37 1891.73 1517.37 M1891.73 1513.66 Q1897.54 1513.66 1900.6 1518.27 Q1903.68 1522.85 1903.68 1531.6 Q1903.68 1540.33 1900.6 1544.94 Q1897.54 1549.52 1891.73 1549.52 Q1885.92 1549.52 1882.84 1544.94 Q1879.79 1540.33 1879.79 1531.6 Q1879.79 1522.85 1882.84 1518.27 Q1885.92 1513.66 1891.73 1513.66 Z" fill="#000000" fill-rule="nonzero" fill-opacity="1" /><path clip-path="url(#clip390)" d="M1921.89 1517.37 Q1918.28 1517.37 1916.45 1520.93 Q1914.65 1524.47 1914.65 1531.6 Q1914.65 1538.71 1916.45 1542.27 Q1918.28 1545.82 1921.89 1545.82 Q1925.53 1545.82 1927.33 1542.27 Q1929.16 1538.71 1929.16 1531.6 Q1929.16 1524.47 1927.33 1520.93 Q1925.53 1517.37 1921.89 1517.37 M1921.89 1513.66 Q1927.7 1513.66 1930.76 1518.27 Q1933.84 1522.85 1933.84 1531.6 Q1933.84 1540.33 1930.76 1544.94 Q1927.7 1549.52 1921.89 1549.52 Q1916.08 1549.52 1913 1544.94 Q1909.95 1540.33 1909.95 1531.6 Q1909.95 1522.85 1913 1518.27 Q1916.08 1513.66 1921.89 1513.66 Z" fill="#000000" fill-rule="nonzero" fill-opacity="1" /><path clip-path="url(#clip390)" d="M2240.03 1544.91 L2256.35 1544.91 L2256.35 1548.85 L2234.41 1548.85 L2234.41 1544.91 Q2237.07 1542.16 2241.65 1537.53 Q2246.26 1532.88 2247.44 1531.53 Q2249.68 1529.01 2250.56 1527.27 Q2251.47 1525.51 2251.47 1523.82 Q2251.47 1521.07 2249.52 1519.33 Q2247.6 1517.6 2244.5 1517.6 Q2242.3 1517.6 2239.85 1518.36 Q2237.42 1519.13 2234.64 1520.68 L2234.64 1515.95 Q2237.46 1514.82 2239.92 1514.24 Q2242.37 1513.66 2244.41 1513.66 Q2249.78 1513.66 2252.97 1516.35 Q2256.17 1519.03 2256.17 1523.52 Q2256.17 1525.65 2255.36 1527.57 Q2254.57 1529.47 2252.46 1532.07 Q2251.88 1532.74 2248.78 1535.95 Q2245.68 1539.15 2240.03 1544.91 Z" fill="#000000" fill-rule="nonzero" fill-opacity="1" /><path clip-path="url(#clip390)" d="M2266.21 1514.29 L2284.57 1514.29 L2284.57 1518.22 L2270.49 1518.22 L2270.49 1526.7 Q2271.51 1526.35 2272.53 1526.19 Q2273.55 1526 2274.57 1526 Q2280.36 1526 2283.74 1529.17 Q2287.11 1532.34 2287.11 1537.76 Q2287.11 1543.34 2283.64 1546.44 Q2280.17 1549.52 2273.85 1549.52 Q2271.68 1549.52 2269.41 1549.15 Q2267.16 1548.78 2264.75 1548.04 L2264.75 1543.34 Q2266.84 1544.47 2269.06 1545.03 Q2271.28 1545.58 2273.76 1545.58 Q2277.76 1545.58 2280.1 1543.48 Q2282.44 1541.37 2282.44 1537.76 Q2282.44 1534.15 2280.1 1532.04 Q2277.76 1529.94 2273.76 1529.94 Q2271.88 1529.94 2270.01 1530.35 Q2268.16 1530.77 2266.21 1531.65 L2266.21 1514.29 Z" fill="#000000" fill-rule="nonzero" fill-opacity="1" /><path clip-path="url(#clip390)" d="M2306.33 1517.37 Q2302.72 1517.37 2300.89 1520.93 Q2299.08 1524.47 2299.08 1531.6 Q2299.08 1538.71 2300.89 1542.27 Q2302.72 1545.82 2306.33 1545.82 Q2309.96 1545.82 2311.77 1542.27 Q2313.6 1538.71 2313.6 1531.6 Q2313.6 1524.47 2311.77 1520.93 Q2309.96 1517.37 2306.33 1517.37 M2306.33 1513.66 Q2312.14 1513.66 2315.19 1518.27 Q2318.27 1522.85 2318.27 1531.6 Q2318.27 1540.33 2315.19 1544.94 Q2312.14 1549.52 2306.33 1549.52 Q2300.52 1549.52 2297.44 1544.94 Q2294.38 1540.33 2294.38 1531.6 Q2294.38 1522.85 2297.44 1518.27 Q2300.52 1513.66 2306.33 1513.66 Z" fill="#000000" fill-rule="nonzero" fill-opacity="1" /><path clip-path="url(#clip390)" d="M2336.49 1517.37 Q2332.88 1517.37 2331.05 1520.93 Q2329.24 1524.47 2329.24 1531.6 Q2329.24 1538.71 2331.05 1542.27 Q2332.88 1545.82 2336.49 1545.82 Q2340.12 1545.82 2341.93 1542.27 Q2343.76 1538.71 2343.76 1531.6 Q2343.76 1524.47 2341.93 1520.93 Q2340.12 1517.37 2336.49 1517.37 M2336.49 1513.66 Q2342.3 1513.66 2345.36 1518.27 Q2348.43 1522.85 2348.43 1531.6 Q2348.43 1540.33 2345.36 1544.94 Q2342.3 1549.52 2336.49 1549.52 Q2330.68 1549.52 2327.6 1544.94 Q2324.55 1540.33 2324.55 1531.6 Q2324.55 1522.85 2327.6 1518.27 Q2330.68 1513.66 2336.49 1513.66 Z" fill="#000000" fill-rule="nonzero" fill-opacity="1" /><polyline clip-path="url(#clip392)" style="stroke:#000000; stroke-linecap:round; stroke-linejoin:round; stroke-width:2; stroke-opacity:0.1; fill:none" points="156.274,1412.6 2352.76,1412.6 "/>
<polyline clip-path="url(#clip392)" style="stroke:#000000; stroke-linecap:round; stroke-linejoin:round; stroke-width:2; stroke-opacity:0.1; fill:none" points="156.274,1081.44 2352.76,1081.44 "/>
<polyline clip-path="url(#clip392)" style="stroke:#000000; stroke-linecap:round; stroke-linejoin:round; stroke-width:2; stroke-opacity:0.1; fill:none" points="156.274,750.288 2352.76,750.288 "/>
<polyline clip-path="url(#clip392)" style="stroke:#000000; stroke-linecap:round; stroke-linejoin:round; stroke-width:2; stroke-opacity:0.1; fill:none" points="156.274,419.132 2352.76,419.132 "/>
<polyline clip-path="url(#clip392)" style="stroke:#000000; stroke-linecap:round; stroke-linejoin:round; stroke-width:2; stroke-opacity:0.1; fill:none" points="156.274,87.9763 2352.76,87.9763 "/>
<polyline clip-path="url(#clip390)" style="stroke:#000000; stroke-linecap:round; stroke-linejoin:round; stroke-width:4; stroke-opacity:1; fill:none" points="156.274,1486.45 156.274,47.2441 "/>
<polyline clip-path="url(#clip390)" style="stroke:#000000; stroke-linecap:round; stroke-linejoin:round; stroke-width:4; stroke-opacity:1; fill:none" points="156.274,1412.6 175.172,1412.6 "/>
<polyline clip-path="url(#clip390)" style="stroke:#000000; stroke-linecap:round; stroke-linejoin:round; stroke-width:4; stroke-opacity:1; fill:none" points="156.274,1081.44 175.172,1081.44 "/>
<polyline clip-path="url(#clip390)" style="stroke:#000000; stroke-linecap:round; stroke-linejoin:round; stroke-width:4; stroke-opacity:1; fill:none" points="156.274,750.288 175.172,750.288 "/>
<polyline clip-path="url(#clip390)" style="stroke:#000000; stroke-linecap:round; stroke-linejoin:round; stroke-width:4; stroke-opacity:1; fill:none" points="156.274,419.132 175.172,419.132 "/>
<polyline clip-path="url(#clip390)" style="stroke:#000000; stroke-linecap:round; stroke-linejoin:round; stroke-width:4; stroke-opacity:1; fill:none" points="156.274,87.9763 175.172,87.9763 "/>
<path clip-path="url(#clip390)" d="M62.9365 1398.4 Q59.3254 1398.4 57.4967 1401.96 Q55.6912 1405.51 55.6912 1412.63 Q55.6912 1419.74 57.4967 1423.31 Q59.3254 1426.85 62.9365 1426.85 Q66.5707 1426.85 68.3763 1423.31 Q70.205 1419.74 70.205 1412.63 Q70.205 1405.51 68.3763 1401.96 Q66.5707 1398.4 62.9365 1398.4 M62.9365 1394.7 Q68.7467 1394.7 71.8022 1399.3 Q74.8809 1403.88 74.8809 1412.63 Q74.8809 1421.36 71.8022 1425.97 Q68.7467 1430.55 62.9365 1430.55 Q57.1264 1430.55 54.0477 1425.97 Q50.9921 1421.36 50.9921 1412.63 Q50.9921 1403.88 54.0477 1399.3 Q57.1264 1394.7 62.9365 1394.7 Z" fill="#000000" fill-rule="nonzero" fill-opacity="1" /><path clip-path="url(#clip390)" d="M83.0984 1424 L87.9827 1424 L87.9827 1429.88 L83.0984 1429.88 L83.0984 1424 Z" fill="#000000" fill-rule="nonzero" fill-opacity="1" /><path clip-path="url(#clip390)" d="M108.746 1410.74 Q105.598 1410.74 103.746 1412.89 Q101.918 1415.04 101.918 1418.79 Q101.918 1422.52 103.746 1424.69 Q105.598 1426.85 108.746 1426.85 Q111.895 1426.85 113.723 1424.69 Q115.575 1422.52 115.575 1418.79 Q115.575 1415.04 113.723 1412.89 Q111.895 1410.74 108.746 1410.74 M118.029 1396.08 L118.029 1400.34 Q116.27 1399.51 114.464 1399.07 Q112.682 1398.63 110.922 1398.63 Q106.293 1398.63 103.839 1401.76 Q101.409 1404.88 101.061 1411.2 Q102.427 1409.19 104.487 1408.12 Q106.547 1407.03 109.024 1407.03 Q114.233 1407.03 117.242 1410.2 Q120.274 1413.35 120.274 1418.79 Q120.274 1424.12 117.126 1427.33 Q113.978 1430.55 108.746 1430.55 Q102.751 1430.55 99.5798 1425.97 Q96.4085 1421.36 96.4085 1412.63 Q96.4085 1404.44 100.297 1399.58 Q104.186 1394.7 110.737 1394.7 Q112.496 1394.7 114.279 1395.04 Q116.084 1395.39 118.029 1396.08 Z" fill="#000000" fill-rule="nonzero" fill-opacity="1" /><path clip-path="url(#clip390)" d="M64.0013 1067.24 Q60.3902 1067.24 58.5615 1070.81 Q56.756 1074.35 56.756 1081.48 Q56.756 1088.59 58.5615 1092.15 Q60.3902 1095.69 64.0013 1095.69 Q67.6356 1095.69 69.4411 1092.15 Q71.2698 1088.59 71.2698 1081.48 Q71.2698 1074.35 69.4411 1070.81 Q67.6356 1067.24 64.0013 1067.24 M64.0013 1063.54 Q69.8115 1063.54 72.867 1068.15 Q75.9457 1072.73 75.9457 1081.48 Q75.9457 1090.21 72.867 1094.81 Q69.8115 1099.4 64.0013 1099.4 Q58.1912 1099.4 55.1125 1094.81 Q52.0569 1090.21 52.0569 1081.48 Q52.0569 1072.73 55.1125 1068.15 Q58.1912 1063.54 64.0013 1063.54 Z" fill="#000000" fill-rule="nonzero" fill-opacity="1" /><path clip-path="url(#clip390)" d="M84.1632 1092.84 L89.0475 1092.84 L89.0475 1098.72 L84.1632 1098.72 L84.1632 1092.84 Z" fill="#000000" fill-rule="nonzero" fill-opacity="1" /><path clip-path="url(#clip390)" d="M98.0521 1064.16 L120.274 1064.16 L120.274 1066.15 L107.728 1098.72 L102.844 1098.72 L114.649 1068.1 L98.0521 1068.1 L98.0521 1064.16 Z" fill="#000000" fill-rule="nonzero" fill-opacity="1" /><path clip-path="url(#clip390)" d="M63.1911 736.087 Q59.58 736.087 57.7513 739.652 Q55.9458 743.193 55.9458 750.323 Q55.9458 757.429 57.7513 760.994 Q59.58 764.536 63.1911 764.536 Q66.8254 764.536 68.6309 760.994 Q70.4596 757.429 70.4596 750.323 Q70.4596 743.193 68.6309 739.652 Q66.8254 736.087 63.1911 736.087 M63.1911 732.383 Q69.0013 732.383 72.0568 736.99 Q75.1355 741.573 75.1355 750.323 Q75.1355 759.05 72.0568 763.656 Q69.0013 768.239 63.1911 768.239 Q57.381 768.239 54.3023 763.656 Q51.2468 759.05 51.2468 750.323 Q51.2468 741.573 54.3023 736.99 Q57.381 732.383 63.1911 732.383 Z" fill="#000000" fill-rule="nonzero" fill-opacity="1" /><path clip-path="url(#clip390)" d="M83.3531 761.689 L88.2373 761.689 L88.2373 767.568 L83.3531 767.568 L83.3531 761.689 Z" fill="#000000" fill-rule="nonzero" fill-opacity="1" /><path clip-path="url(#clip390)" d="M108.422 751.156 Q105.089 751.156 103.168 752.939 Q101.27 754.721 101.27 757.846 Q101.27 760.971 103.168 762.753 Q105.089 764.536 108.422 764.536 Q111.756 764.536 113.677 762.753 Q115.598 760.948 115.598 757.846 Q115.598 754.721 113.677 752.939 Q111.779 751.156 108.422 751.156 M103.746 749.166 Q100.737 748.425 99.0474 746.365 Q97.3808 744.304 97.3808 741.341 Q97.3808 737.198 100.321 734.791 Q103.284 732.383 108.422 732.383 Q113.584 732.383 116.524 734.791 Q119.464 737.198 119.464 741.341 Q119.464 744.304 117.774 746.365 Q116.108 748.425 113.121 749.166 Q116.501 749.953 118.376 752.244 Q120.274 754.536 120.274 757.846 Q120.274 762.869 117.195 765.554 Q114.14 768.239 108.422 768.239 Q102.705 768.239 99.6261 765.554 Q96.5706 762.869 96.5706 757.846 Q96.5706 754.536 98.4687 752.244 Q100.367 749.953 103.746 749.166 M102.034 741.781 Q102.034 744.466 103.7 745.971 Q105.39 747.476 108.422 747.476 Q111.432 747.476 113.121 745.971 Q114.834 744.466 114.834 741.781 Q114.834 739.096 113.121 737.591 Q111.432 736.087 108.422 736.087 Q105.39 736.087 103.7 737.591 Q102.034 739.096 102.034 741.781 Z" fill="#000000" fill-rule="nonzero" fill-opacity="1" /><path clip-path="url(#clip390)" d="M63.2837 404.931 Q59.6726 404.931 57.8439 408.496 Q56.0384 412.037 56.0384 419.167 Q56.0384 426.273 57.8439 429.838 Q59.6726 433.38 63.2837 433.38 Q66.918 433.38 68.7235 429.838 Q70.5522 426.273 70.5522 419.167 Q70.5522 412.037 68.7235 408.496 Q66.918 404.931 63.2837 404.931 M63.2837 401.227 Q69.0939 401.227 72.1494 405.834 Q75.2281 410.417 75.2281 419.167 Q75.2281 427.894 72.1494 432.5 Q69.0939 437.084 63.2837 437.084 Q57.4736 437.084 54.3949 432.5 Q51.3393 427.894 51.3393 419.167 Q51.3393 410.417 54.3949 405.834 Q57.4736 401.227 63.2837 401.227 Z" fill="#000000" fill-rule="nonzero" fill-opacity="1" /><path clip-path="url(#clip390)" d="M83.4457 430.533 L88.3299 430.533 L88.3299 436.412 L83.4457 436.412 L83.4457 430.533 Z" fill="#000000" fill-rule="nonzero" fill-opacity="1" /><path clip-path="url(#clip390)" d="M98.6539 435.695 L98.6539 431.435 Q100.413 432.269 102.219 432.709 Q104.024 433.148 105.76 433.148 Q110.39 433.148 112.82 430.047 Q115.274 426.922 115.621 420.579 Q114.279 422.57 112.219 423.635 Q110.158 424.699 107.658 424.699 Q102.473 424.699 99.4409 421.574 Q96.4317 418.426 96.4317 412.986 Q96.4317 407.662 99.5798 404.445 Q102.728 401.227 107.959 401.227 Q113.955 401.227 117.103 405.834 Q120.274 410.417 120.274 419.167 Q120.274 427.338 116.385 432.222 Q112.52 437.084 105.969 437.084 Q104.209 437.084 102.404 436.736 Q100.598 436.389 98.6539 435.695 M107.959 421.042 Q111.108 421.042 112.936 418.889 Q114.788 416.736 114.788 412.986 Q114.788 409.26 112.936 407.107 Q111.108 404.931 107.959 404.931 Q104.811 404.931 102.959 407.107 Q101.131 409.26 101.131 412.986 Q101.131 416.736 102.959 418.889 Q104.811 421.042 107.959 421.042 Z" fill="#000000" fill-rule="nonzero" fill-opacity="1" /><path clip-path="url(#clip390)" d="M53.9088 101.321 L61.5476 101.321 L61.5476 74.9555 L53.2375 76.6222 L53.2375 72.3629 L61.5013 70.6963 L66.1772 70.6963 L66.1772 101.321 L73.8161 101.321 L73.8161 105.256 L53.9088 105.256 L53.9088 101.321 Z" fill="#000000" fill-rule="nonzero" fill-opacity="1" /><path clip-path="url(#clip390)" d="M83.2605 99.3767 L88.1447 99.3767 L88.1447 105.256 L83.2605 105.256 L83.2605 99.3767 Z" fill="#000000" fill-rule="nonzero" fill-opacity="1" /><path clip-path="url(#clip390)" d="M108.33 73.775 Q104.719 73.775 102.89 77.3398 Q101.084 80.8814 101.084 88.011 Q101.084 95.1174 102.89 98.6822 Q104.719 102.224 108.33 102.224 Q111.964 102.224 113.77 98.6822 Q115.598 95.1174 115.598 88.011 Q115.598 80.8814 113.77 77.3398 Q111.964 73.775 108.33 73.775 M108.33 70.0713 Q114.14 70.0713 117.195 74.6777 Q120.274 79.261 120.274 88.011 Q120.274 96.7378 117.195 101.344 Q114.14 105.928 108.33 105.928 Q102.52 105.928 99.4409 101.344 Q96.3854 96.7378 96.3854 88.011 Q96.3854 79.261 99.4409 74.6777 Q102.52 70.0713 108.33 70.0713 Z" fill="#000000" fill-rule="nonzero" fill-opacity="1" /><polyline clip-path="url(#clip392)" style="stroke:#009af9; stroke-linecap:round; stroke-linejoin:round; stroke-width:4; stroke-opacity:1; fill:none" points="218.439,1379.48 219.268,1197.35 220.097,1379.48 220.926,1329.81 221.756,1362.93 222.585,1445.72 223.414,1247.02 224.243,1114.56 225.072,1396.04 225.901,1346.37 226.731,1164.23 227.56,1213.91 228.389,1098 229.218,1313.25 230.047,1048.33 230.877,1263.58 231.706,1213.91 232.535,1197.35 233.364,1247.02 234.193,1379.48 235.023,1048.33 235.852,1313.25 236.681,1296.7 237.51,1081.44 238.339,1147.68 239.169,1197.35 239.998,1164.23 240.827,1180.79 241.656,1230.46 242.485,1313.25 243.315,1197.35 244.144,1031.77 244.973,1164.23 245.802,1247.02 246.631,1313.25 247.46,1429.16 248.29,1197.35 249.119,1180.79 249.948,1098 250.777,1313.25 251.606,1048.33 252.436,948.982 253.265,1147.68 254.094,1230.46 254.923,1313.25 255.752,1164.23 256.582,1197.35 257.411,915.866 258.24,1081.44 259.069,1081.44 259.898,1197.35 260.728,1048.33 261.557,1064.89 262.386,1114.56 263.215,1064.89 264.044,1015.21 264.874,1114.56 265.703,1131.12 266.532,899.308 267.361,1098 268.19,982.097 269.019,1147.68 269.849,1114.56 270.678,1015.21 271.507,1346.37 272.336,982.097 273.165,1098 273.995,1098 274.824,1031.77 275.653,1098 276.482,982.097 277.311,866.193 278.141,1081.44 278.97,1081.44 279.799,833.077 280.628,1197.35 281.457,982.097 282.287,1114.56 283.116,982.097 283.945,948.982 284.774,1098 285.603,882.751 286.433,965.54 287.262,982.097 288.091,1213.91 288.92,1048.33 289.749,965.54 290.579,1147.68 291.408,899.308 292.237,1114.56 293.066,932.424 293.895,882.751 294.724,1147.68 295.554,1147.68 296.383,1313.25 297.212,1098 298.041,1081.44 298.87,948.982 299.7,684.057 300.529,899.308 301.358,882.751 302.187,882.751 303.016,965.54 303.846,816.519 304.675,899.308 305.504,849.635 306.333,833.077 307.162,982.097 307.992,783.404 308.821,982.097 309.65,1031.77 310.479,982.097 311.308,882.751 312.138,849.635 312.967,882.751 313.796,998.655 314.625,799.962 315.454,1015.21 316.283,733.73 317.113,915.866 317.942,932.424 318.771,766.846 319.6,915.866 320.429,1048.33 321.259,932.424 322.088,899.308 322.917,915.866 323.746,849.635 324.575,833.077 325.405,766.846 326.234,932.424 327.063,998.655 327.892,766.846 328.721,849.635 329.551,899.308 330.38,733.73 331.209,733.73 332.038,667.499 332.867,932.424 333.697,667.499 334.526,833.077 335.355,833.077 336.184,717.173 337.013,849.635 337.842,634.384 338.672,667.499 339.501,750.288 340.33,866.193 341.159,717.173 341.988,849.635 342.818,799.962 343.647,833.077 344.476,833.077 345.305,717.173 346.134,584.71 346.964,700.615 347.793,915.866 348.622,766.846 349.451,866.193 350.28,783.404 351.11,717.173 351.939,849.635 352.768,766.846 353.597,750.288 354.426,866.193 355.256,667.499 356.085,684.057 356.914,700.615 357.743,717.173 358.572,733.73 359.402,700.615 360.231,684.057 361.06,733.73 361.889,766.846 362.718,700.615 363.547,584.71 364.377,766.846 365.206,882.751 366.035,700.615 366.864,750.288 367.693,667.499 368.523,750.288 369.352,783.404 370.181,750.288 371.01,783.404 371.839,617.826 372.669,833.077 373.498,551.595 374.327,766.846 375.156,700.615 375.985,733.73 376.815,667.499 377.644,799.962 378.473,700.615 379.302,535.037 380.131,617.826 380.961,584.71 381.79,667.499 382.619,783.404 383.448,750.288 384.277,634.384 385.106,700.615 385.936,584.71 386.765,750.288 387.594,667.499 388.423,684.057 389.252,634.384 390.082,634.384 390.911,617.826 391.74,766.846 392.569,634.384 393.398,634.384 394.228,551.595 395.057,634.384 395.886,634.384 396.715,485.363 397.544,501.921 398.374,634.384 399.203,617.826 400.032,650.941 400.861,452.248 401.69,535.037 402.52,733.73 403.349,568.152 404.178,535.037 405.007,634.384 405.836,518.479 406.665,601.268 407.495,518.479 408.324,717.173 409.153,601.268 409.982,518.479 410.811,684.057 411.641,617.826 412.47,634.384 413.299,501.921 414.128,584.71 414.957,650.941 415.787,468.806 416.616,700.615 417.445,485.363 418.274,667.499 419.103,435.69 419.933,700.615 420.762,584.71 421.591,535.037 422.42,650.941 423.249,617.826 424.079,518.479 424.908,667.499 425.737,501.921 426.566,667.499 427.395,551.595 428.224,634.384 429.054,667.499 429.883,568.152 430.712,650.941 431.541,601.268 432.37,568.152 433.2,650.941 434.029,419.132 434.858,551.595 435.687,501.921 436.516,634.384 437.346,684.057 438.175,551.595 439.004,518.479 439.833,369.459 440.662,468.806 441.492,584.71 442.321,518.479 443.15,468.806 443.979,452.248 444.808,485.363 445.638,518.479 446.467,452.248 447.296,518.479 448.125,501.921 448.954,452.248 449.784,336.343 450.613,452.248 451.442,468.806 452.271,717.173 453.1,535.037 453.929,551.595 454.759,485.363 455.588,601.268 456.417,452.248 457.246,501.921 458.075,568.152 458.905,501.921 459.734,634.384 460.563,468.806 461.392,650.941 462.221,535.037 463.051,535.037 463.88,650.941 464.709,667.499 465.538,501.921 466.367,535.037 467.197,518.479 468.026,452.248 468.855,634.384 469.684,419.132 470.513,551.595 471.343,468.806 472.172,584.71 473.001,468.806 473.83,535.037 474.659,551.595 475.488,435.69 476.318,402.574 477.147,535.037 477.976,518.479 478.805,634.384 479.634,468.806 480.464,352.901 481.293,419.132 482.122,386.017 482.951,435.69 483.78,518.479 484.61,518.479 485.439,568.152 486.268,551.595 487.097,617.826 487.926,452.248 488.756,352.901 489.585,452.248 490.414,518.479 491.243,452.248 492.072,452.248 492.902,501.921 493.731,535.037 494.56,485.363 495.389,319.785 496.218,617.826 497.047,402.574 497.877,435.69 498.706,435.69 499.535,402.574 500.364,303.228 501.193,386.017 502.023,518.479 502.852,551.595 503.681,352.901 504.51,468.806 505.339,319.785 506.169,435.69 506.998,435.69 507.827,468.806 508.656,369.459 509.485,435.69 510.315,336.343 511.144,419.132 511.973,452.248 512.802,601.268 513.631,535.037 514.461,369.459 515.29,518.479 516.119,535.037 516.948,352.901 517.777,634.384 518.607,468.806 519.436,535.037 520.265,369.459 521.094,270.112 521.923,468.806 522.752,386.017 523.582,402.574 524.411,386.017 525.24,485.363 526.069,336.343 526.898,369.459 527.728,336.343 528.557,584.71 529.386,468.806 530.215,386.017 531.044,634.384 531.874,468.806 532.703,419.132 533.532,485.363 534.361,319.785 535.19,419.132 536.02,435.69 536.849,435.69 537.678,336.343 538.507,518.479 539.336,485.363 540.166,352.901 540.995,419.132 541.824,452.248 542.653,468.806 543.482,303.228 544.311,402.574 545.141,485.363 545.97,468.806 546.799,468.806 547.628,402.574 548.457,386.017 549.287,352.901 550.116,419.132 550.945,402.574 551.774,369.459 552.603,286.67 553.433,485.363 554.262,485.363 555.091,402.574 555.92,386.017 556.749,386.017 557.579,468.806 558.408,402.574 559.237,336.343 560.066,303.228 560.895,452.248 561.725,452.248 562.554,402.574 563.383,452.248 564.212,501.921 565.041,386.017 565.87,485.363 566.7,419.132 567.529,286.67 568.358,270.112 569.187,319.785 570.016,319.785 570.846,336.343 571.675,419.132 572.504,435.69 573.333,303.228 574.162,270.112 574.992,303.228 575.821,452.248 576.65,435.69 577.479,468.806 578.308,303.228 579.138,303.228 579.967,452.248 580.796,435.69 581.625,336.343 582.454,352.901 583.284,452.248 584.113,286.67 584.942,452.248 585.771,303.228 586.6,336.343 587.429,352.901 588.259,435.69 589.088,336.343 589.917,369.459 590.746,386.017 591.575,419.132 592.405,369.459 593.234,369.459 594.063,303.228 594.892,303.228 595.721,468.806 596.551,303.228 597.38,435.69 598.209,518.479 599.038,468.806 599.867,402.574 600.697,352.901 601.526,319.785 602.355,286.67 603.184,286.67 604.013,369.459 604.843,435.69 605.672,369.459 606.501,419.132 607.33,369.459 608.159,402.574 608.989,319.785 609.818,336.343 610.647,369.459 611.476,303.228 612.305,386.017 613.134,286.67 613.964,286.67 614.793,402.574 615.622,485.363 616.451,319.785 617.28,386.017 618.11,270.112 618.939,402.574 619.768,352.901 620.597,352.901 621.426,402.574 622.256,352.901 623.085,369.459 623.914,253.554 624.743,452.248 625.572,336.343 626.402,303.228 627.231,336.343 628.06,402.574 628.889,369.459 629.718,336.343 630.548,220.439 631.377,303.228 632.206,352.901 633.035,386.017 633.864,220.439 634.693,253.554 635.523,319.785 636.352,336.343 637.181,336.343 638.01,336.343 638.839,402.574 639.669,452.248 640.498,435.69 641.327,303.228 642.156,303.228 642.985,286.67 643.815,270.112 644.644,352.901 645.473,352.901 646.302,270.112 647.131,402.574 647.961,369.459 648.79,369.459 649.619,286.67 650.448,369.459 651.277,419.132 652.107,336.343 652.936,369.459 653.765,369.459 654.594,352.901 655.423,369.459 656.252,286.67 657.082,352.901 657.911,286.67 658.74,369.459 659.569,303.228 660.398,220.439 661.228,369.459 662.057,386.017 662.886,402.574 663.715,253.554 664.544,369.459 665.374,286.67 666.203,336.343 667.032,369.459 667.861,319.785 668.69,352.901 669.52,187.323 670.349,336.343 671.178,452.248 672.007,352.901 672.836,435.69 673.666,236.996 674.495,336.343 675.324,319.785 676.153,286.67 676.982,336.343 677.812,369.459 678.641,319.785 679.47,270.112 680.299,452.248 681.128,286.67 681.957,236.996 682.787,270.112 683.616,336.343 684.445,253.554 685.274,352.901 686.103,270.112 686.933,253.554 687.762,369.459 688.591,386.017 689.42,303.228 690.249,352.901 691.079,270.112 691.908,352.901 692.737,336.343 693.566,336.343 694.395,419.132 695.225,336.343 696.054,386.017 696.883,369.459 697.712,352.901 698.541,386.017 699.371,286.67 700.2,286.67 701.029,419.132 701.858,253.554 702.687,203.881 703.516,319.785 704.346,485.363 705.175,236.996 706.004,369.459 706.833,352.901 707.662,319.785 708.492,402.574 709.321,270.112 710.15,286.67 710.979,435.69 711.808,336.343 712.638,369.459 713.467,319.785 714.296,386.017 715.125,253.554 715.954,253.554 716.784,170.765 717.613,369.459 718.442,220.439 719.271,286.67 720.1,352.901 720.93,336.343 721.759,352.901 722.588,352.901 723.417,336.343 724.246,319.785 725.075,468.806 725.905,236.996 726.734,369.459 727.563,319.785 728.392,419.132 729.221,253.554 730.051,386.017 730.88,336.343 731.709,270.112 732.538,369.459 733.367,352.901 734.197,187.323 735.026,319.785 735.855,386.017 736.684,319.785 737.513,319.785 738.343,352.901 739.172,220.439 740.001,220.439 740.83,187.323 741.659,303.228 742.489,187.323 743.318,286.67 744.147,352.901 744.976,236.996 745.805,419.132 746.634,303.228 747.464,286.67 748.293,369.459 749.122,336.343 749.951,386.017 750.78,369.459 751.61,187.323 752.439,270.112 753.268,303.228 754.097,319.785 754.926,270.112 755.756,386.017 756.585,220.439 757.414,319.785 758.243,352.901 759.072,336.343 759.902,236.996 760.731,369.459 761.56,270.112 762.389,336.343 763.218,402.574 764.048,253.554 764.877,303.228 765.706,402.574 766.535,402.574 767.364,303.228 768.194,352.901 769.023,286.67 769.852,187.323 770.681,286.67 771.51,270.112 772.339,352.901 773.169,253.554 773.998,270.112 774.827,336.343 775.656,336.343 776.485,286.67 777.315,352.901 778.144,369.459 778.973,253.554 779.802,386.017 780.631,236.996 781.461,236.996 782.29,286.67 783.119,253.554 783.948,203.881 784.777,303.228 785.607,336.343 786.436,236.996 787.265,286.67 788.094,303.228 788.923,369.459 789.753,303.228 790.582,270.112 791.411,336.343 792.24,303.228 793.069,236.996 793.898,303.228 794.728,336.343 795.557,220.439 796.386,352.901 797.215,352.901 798.044,319.785 798.874,319.785 799.703,303.228 800.532,336.343 801.361,270.112 802.19,319.785 803.02,253.554 803.849,270.112 804.678,270.112 805.507,303.228 806.336,87.9763 807.166,369.459 807.995,270.112 808.824,369.459 809.653,303.228 810.482,270.112 811.312,319.785 812.141,253.554 812.97,352.901 813.799,187.323 814.628,236.996 815.457,336.343 816.287,303.228 817.116,253.554 817.945,386.017 818.774,352.901 819.603,336.343 820.433,270.112 821.262,336.343 822.091,220.439 822.92,270.112 823.749,203.881 824.579,236.996 825.408,336.343 826.237,270.112 827.066,303.228 827.895,352.901 828.725,220.439 829.554,303.228 830.383,253.554 831.212,203.881 832.041,286.67 832.871,220.439 833.7,270.112 834.529,236.996 835.358,286.67 836.187,170.765 837.017,236.996 837.846,187.323 838.675,187.323 839.504,286.67 840.333,253.554 841.162,303.228 841.992,253.554 842.821,187.323 843.65,236.996 844.479,236.996 845.308,220.439 846.138,270.112 846.967,270.112 847.796,352.901 848.625,270.112 849.454,352.901 850.284,303.228 851.113,253.554 851.942,236.996 852.771,253.554 853.6,220.439 854.43,170.765 855.259,336.343 856.088,203.881 856.917,203.881 857.746,303.228 858.576,303.228 859.405,369.459 860.234,303.228 861.063,286.67 861.892,303.228 862.721,203.881 863.551,253.554 864.38,270.112 865.209,187.323 866.038,286.67 866.867,203.881 867.697,286.67 868.526,236.996 869.355,170.765 870.184,336.343 871.013,270.112 871.843,253.554 872.672,220.439 873.501,270.112 874.33,336.343 875.159,270.112 875.989,286.67 876.818,319.785 877.647,303.228 878.476,220.439 879.305,319.785 880.135,270.112 880.964,236.996 881.793,270.112 882.622,286.67 883.451,319.785 884.28,220.439 885.11,170.765 885.939,236.996 886.768,336.343 887.597,286.67 888.426,253.554 889.256,369.459 890.085,203.881 890.914,319.785 891.743,303.228 892.572,253.554 893.402,203.881 894.231,253.554 895.06,303.228 895.889,286.67 896.718,220.439 897.548,286.67 898.377,253.554 899.206,253.554 900.035,485.363 900.864,303.228 901.694,286.67 902.523,286.67 903.352,319.785 904.181,253.554 905.01,336.343 905.839,286.67 906.669,319.785 907.498,236.996 908.327,319.785 909.156,270.112 909.985,286.67 910.815,154.207 911.644,236.996 912.473,270.112 913.302,270.112 914.131,270.112 914.961,286.67 915.79,187.323 916.619,236.996 917.448,253.554 918.277,170.765 919.107,286.67 919.936,270.112 920.765,236.996 921.594,253.554 922.423,303.228 923.253,220.439 924.082,253.554 924.911,203.881 925.74,220.439 926.569,303.228 927.399,270.112 928.228,369.459 929.057,220.439 929.886,236.996 930.715,336.343 931.544,236.996 932.374,303.228 933.203,236.996 934.032,336.343 934.861,336.343 935.69,303.228 936.52,220.439 937.349,253.554 938.178,286.67 939.007,270.112 939.836,319.785 940.666,386.017 941.495,253.554 942.324,220.439 943.153,303.228 943.982,203.881 944.812,253.554 945.641,336.343 946.47,286.67 947.299,170.765 948.128,319.785 948.958,369.459 949.787,170.765 950.616,286.67 951.445,203.881 952.274,187.323 953.103,286.67 953.933,270.112 954.762,253.554 955.591,236.996 956.42,203.881 957.249,270.112 958.079,253.554 958.908,253.554 959.737,236.996 960.566,303.228 961.395,286.67 962.225,286.67 963.054,303.228 963.883,220.439 964.712,253.554 965.541,253.554 966.371,220.439 967.2,236.996 968.029,220.439 968.858,303.228 969.687,253.554 970.517,270.112 971.346,253.554 972.175,352.901 973.004,270.112 973.833,253.554 974.662,270.112 975.492,319.785 976.321,236.996 977.15,270.112 977.979,203.881 978.808,187.323 979.638,319.785 980.467,236.996 981.296,236.996 982.125,336.343 982.954,203.881 983.784,253.554 984.613,303.228 985.442,203.881 986.271,270.112 987.1,253.554 987.93,253.554 988.759,253.554 989.588,154.207 990.417,187.323 991.246,270.112 992.076,236.996 992.905,253.554 993.734,319.785 994.563,270.112 995.392,303.228 996.222,170.765 997.051,270.112 997.88,203.881 998.709,352.901 999.538,303.228 1000.37,270.112 1001.2,170.765 1002.03,203.881 1002.86,236.996 1003.68,203.881 1004.51,286.67 1005.34,253.554 1006.17,220.439 1007,270.112 1007.83,253.554 1008.66,253.554 1009.49,286.67 1010.32,253.554 1011.15,220.439 1011.98,203.881 1012.81,236.996 1013.63,253.554 1014.46,303.228 1015.29,170.765 1016.12,253.554 1016.95,303.228 1017.78,170.765 1018.61,319.785 1019.44,154.207 1020.27,303.228 1021.1,303.228 1021.93,220.439 1022.76,303.228 1023.58,203.881 1024.41,236.996 1025.24,236.996 1026.07,286.67 1026.9,253.554 1027.73,286.67 1028.56,170.765 1029.39,286.67 1030.22,286.67 1031.05,236.996 1031.88,203.881 1032.71,236.996 1033.54,236.996 1034.36,236.996 1035.19,253.554 1036.02,286.67 1036.85,253.554 1037.68,203.881 1038.51,270.112 1039.34,220.439 1040.17,303.228 1041,220.439 1041.83,270.112 1042.66,187.323 1043.49,236.996 1044.31,303.228 1045.14,253.554 1045.97,303.228 1046.8,236.996 1047.63,187.323 1048.46,286.67 1049.29,253.554 1050.12,236.996 1050.95,236.996 1051.78,253.554 1052.61,220.439 1053.44,236.996 1054.26,220.439 1055.09,336.343 1055.92,253.554 1056.75,203.881 1057.58,286.67 1058.41,203.881 1059.24,319.785 1060.07,270.112 1060.9,253.554 1061.73,303.228 1062.56,203.881 1063.39,187.323 1064.22,270.112 1065.04,352.901 1065.87,203.881 1066.7,253.554 1067.53,286.67 1068.36,253.554 1069.19,236.996 1070.02,170.765 1070.85,270.112 1071.68,203.881 1072.51,236.996 1073.34,303.228 1074.17,236.996 1074.99,220.439 1075.82,203.881 1076.65,236.996 1077.48,220.439 1078.31,236.996 1079.14,187.323 1079.97,203.881 1080.8,352.901 1081.63,203.881 1082.46,187.323 1083.29,236.996 1084.12,286.67 1084.95,187.323 1085.77,253.554 1086.6,220.439 1087.43,220.439 1088.26,220.439 1089.09,203.881 1089.92,236.996 1090.75,220.439 1091.58,336.343 1092.41,336.343 1093.24,253.554 1094.07,236.996 1094.9,187.323 1095.72,187.323 1096.55,253.554 1097.38,236.996 1098.21,137.65 1099.04,170.765 1099.87,236.996 1100.7,236.996 1101.53,270.112 1102.36,236.996 1103.19,253.554 1104.02,236.996 1104.85,154.207 1105.67,303.228 1106.5,253.554 1107.33,319.785 1108.16,270.112 1108.99,203.881 1109.82,253.554 1110.65,270.112 1111.48,220.439 1112.31,203.881 1113.14,336.343 1113.97,286.67 1114.8,220.439 1115.63,220.439 1116.45,236.996 1117.28,236.996 1118.11,220.439 1118.94,220.439 1119.77,203.881 1120.6,236.996 1121.43,336.343 1122.26,270.112 1123.09,187.323 1123.92,220.439 1124.75,170.765 1125.58,170.765 1126.4,303.228 1127.23,170.765 1128.06,154.207 1128.89,187.323 1129.72,220.439 1130.55,352.901 1131.38,270.112 1132.21,253.554 1133.04,286.67 1133.87,203.881 1134.7,170.765 1135.53,187.323 1136.36,203.881 1137.18,286.67 1138.01,220.439 1138.84,170.765 1139.67,203.881 1140.5,253.554 1141.33,253.554 1142.16,187.323 1142.99,220.439 1143.82,286.67 1144.65,286.67 1145.48,220.439 1146.31,236.996 1147.13,319.785 1147.96,253.554 1148.79,336.343 1149.62,336.343 1150.45,352.901 1151.28,170.765 1152.11,270.112 1152.94,253.554 1153.77,203.881 1154.6,220.439 1155.43,270.112 1156.26,170.765 1157.08,220.439 1157.91,270.112 1158.74,203.881 1159.57,270.112 1160.4,270.112 1161.23,336.343 1162.06,137.65 1162.89,203.881 1163.72,253.554 1164.55,220.439 1165.38,236.996 1166.21,154.207 1167.04,236.996 1167.86,220.439 1168.69,170.765 1169.52,170.765 1170.35,220.439 1171.18,236.996 1172.01,203.881 1172.84,121.092 1173.67,220.439 1174.5,203.881 1175.33,253.554 1176.16,253.554 1176.99,220.439 1177.81,170.765 1178.64,236.996 1179.47,220.439 1180.3,170.765 1181.13,253.554 1181.96,154.207 1182.79,154.207 1183.62,336.343 1184.45,270.112 1185.28,187.323 1186.11,220.439 1186.94,220.439 1187.77,203.881 1188.59,319.785 1189.42,253.554 1190.25,187.323 1191.08,303.228 1191.91,253.554 1192.74,220.439 1193.57,286.67 1194.4,270.112 1195.23,203.881 1196.06,270.112 1196.89,236.996 1197.72,253.554 1198.54,203.881 1199.37,236.996 1200.2,187.323 1201.03,170.765 1201.86,270.112 1202.69,137.65 1203.52,236.996 1204.35,170.765 1205.18,154.207 1206.01,170.765 1206.84,253.554 1207.67,236.996 1208.49,236.996 1209.32,203.881 1210.15,286.67 1210.98,270.112 1211.81,236.996 1212.64,187.323 1213.47,352.901 1214.3,154.207 1215.13,286.67 1215.96,154.207 1216.79,154.207 1217.62,203.881 1218.45,236.996 1219.27,187.323 1220.1,270.112 1220.93,170.765 1221.76,270.112 1222.59,270.112 1223.42,336.343 1224.25,170.765 1225.08,220.439 1225.91,253.554 1226.74,187.323 1227.57,286.67 1228.4,137.65 1229.22,236.996 1230.05,203.881 1230.88,187.323 1231.71,220.439 1232.54,270.112 1233.37,253.554 1234.2,270.112 1235.03,170.765 1235.86,303.228 1236.69,220.439 1237.52,170.765 1238.35,236.996 1239.17,236.996 1240,220.439 1240.83,303.228 1241.66,236.996 1242.49,236.996 1243.32,236.996 1244.15,220.439 1244.98,203.881 1245.81,187.323 1246.64,220.439 1247.47,187.323 1248.3,220.439 1249.13,187.323 1249.95,203.881 1250.78,286.67 1251.61,236.996 1252.44,253.554 1253.27,236.996 1254.1,253.554 1254.93,203.881 1255.76,253.554 1256.59,154.207 1257.42,203.881 1258.25,236.996 1259.08,170.765 1259.9,220.439 1260.73,236.996 1261.56,236.996 1262.39,236.996 1263.22,187.323 1264.05,352.901 1264.88,303.228 1265.71,253.554 1266.54,236.996 1267.37,236.996 1268.2,236.996 1269.03,220.439 1269.86,137.65 1270.68,187.323 1271.51,203.881 1272.34,170.765 1273.17,203.881 1274,270.112 1274.83,187.323 1275.66,236.996 1276.49,220.439 1277.32,220.439 1278.15,286.67 1278.98,187.323 1279.81,253.554 1280.63,253.554 1281.46,187.323 1282.29,187.323 1283.12,220.439 1283.95,170.765 1284.78,253.554 1285.61,154.207 1286.44,203.881 1287.27,236.996 1288.1,220.439 1288.93,236.996 1289.76,187.323 1290.58,236.996 1291.41,270.112 1292.24,253.554 1293.07,286.67 1293.9,203.881 1294.73,270.112 1295.56,203.881 1296.39,187.323 1297.22,253.554 1298.05,187.323 1298.88,187.323 1299.71,236.996 1300.54,270.112 1301.36,253.554 1302.19,203.881 1303.02,286.67 1303.85,253.554 1304.68,303.228 1305.51,352.901 1306.34,220.439 1307.17,303.228 1308,220.439 1308.83,187.323 1309.66,319.785 1310.49,187.323 1311.31,187.323 1312.14,220.439 1312.97,187.323 1313.8,170.765 1314.63,220.439 1315.46,220.439 1316.29,253.554 1317.12,220.439 1317.95,236.996 1318.78,220.439 1319.61,236.996 1320.44,203.881 1321.27,220.439 1322.09,187.323 1322.92,236.996 1323.75,253.554 1324.58,154.207 1325.41,203.881 1326.24,270.112 1327.07,253.554 1327.9,236.996 1328.73,319.785 1329.56,220.439 1330.39,154.207 1331.22,170.765 1332.04,253.554 1332.87,187.323 1333.7,286.67 1334.53,286.67 1335.36,187.323 1336.19,270.112 1337.02,170.765 1337.85,187.323 1338.68,220.439 1339.51,154.207 1340.34,319.785 1341.17,187.323 1341.99,203.881 1342.82,203.881 1343.65,253.554 1344.48,220.439 1345.31,319.785 1346.14,270.112 1346.97,203.881 1347.8,187.323 1348.63,253.554 1349.46,170.765 1350.29,319.785 1351.12,220.439 1351.95,253.554 1352.77,220.439 1353.6,170.765 1354.43,187.323 1355.26,203.881 1356.09,236.996 1356.92,270.112 1357.75,203.881 1358.58,170.765 1359.41,236.996 1360.24,319.785 1361.07,253.554 1361.9,236.996 1362.72,286.67 1363.55,137.65 1364.38,203.881 1365.21,203.881 1366.04,236.996 1366.87,203.881 1367.7,270.112 1368.53,286.67 1369.36,220.439 1370.19,253.554 1371.02,303.228 1371.85,203.881 1372.67,286.67 1373.5,220.439 1374.33,220.439 1375.16,220.439 1375.99,319.785 1376.82,170.765 1377.65,270.112 1378.48,236.996 1379.31,236.996 1380.14,236.996 1380.97,137.65 1381.8,253.554 1382.63,220.439 1383.45,187.323 1384.28,236.996 1385.11,154.207 1385.94,253.554 1386.77,154.207 1387.6,253.554 1388.43,220.439 1389.26,286.67 1390.09,137.65 1390.92,253.554 1391.75,203.881 1392.58,187.323 1393.4,270.112 1394.23,236.996 1395.06,203.881 1395.89,286.67 1396.72,253.554 1397.55,203.881 1398.38,236.996 1399.21,170.765 1400.04,203.881 1400.87,187.323 1401.7,253.554 1402.53,286.67 1403.36,187.323 1404.18,236.996 1405.01,253.554 1405.84,187.323 1406.67,253.554 1407.5,203.881 1408.33,203.881 1409.16,170.765 1409.99,170.765 1410.82,220.439 1411.65,154.207 1412.48,286.67 1413.31,170.765 1414.13,203.881 1414.96,336.343 1415.79,203.881 1416.62,236.996 1417.45,220.439 1418.28,220.439 1419.11,236.996 1419.94,220.439 1420.77,137.65 1421.6,270.112 1422.43,220.439 1423.26,270.112 1424.08,187.323 1424.91,236.996 1425.74,220.439 1426.57,220.439 1427.4,286.67 1428.23,170.765 1429.06,236.996 1429.89,203.881 1430.72,303.228 1431.55,137.65 1432.38,187.323 1433.21,187.323 1434.04,187.323 1434.86,203.881 1435.69,220.439 1436.52,220.439 1437.35,203.881 1438.18,203.881 1439.01,286.67 1439.84,220.439 1440.67,286.67 1441.5,236.996 1442.33,220.439 1443.16,236.996 1443.99,203.881 1444.81,286.67 1445.64,187.323 1446.47,220.439 1447.3,286.67 1448.13,203.881 1448.96,236.996 1449.79,253.554 1450.62,286.67 1451.45,220.439 1452.28,220.439 1453.11,236.996 1453.94,203.881 1454.77,170.765 1455.59,253.554 1456.42,187.323 1457.25,270.112 1458.08,253.554 1458.91,203.881 1459.74,154.207 1460.57,286.67 1461.4,236.996 1462.23,253.554 1463.06,187.323 1463.89,187.323 1464.72,236.996 1465.54,336.343 1466.37,369.459 1467.2,203.881 1468.03,253.554 1468.86,286.67 1469.69,303.228 1470.52,220.439 1471.35,220.439 1472.18,154.207 1473.01,270.112 1473.84,170.765 1474.67,319.785 1475.49,170.765 1476.32,286.67 1477.15,170.765 1477.98,170.765 1478.81,220.439 1479.64,220.439 1480.47,203.881 1481.3,253.554 1482.13,220.439 1482.96,286.67 1483.79,236.996 1484.62,154.207 1485.45,137.65 1486.27,286.67 1487.1,187.323 1487.93,187.323 1488.76,154.207 1489.59,187.323 1490.42,303.228 1491.25,203.881 1492.08,303.228 1492.91,203.881 1493.74,220.439 1494.57,286.67 1495.4,253.554 1496.22,220.439 1497.05,236.996 1497.88,170.765 1498.71,236.996 1499.54,203.881 1500.37,170.765 1501.2,170.765 1502.03,220.439 1502.86,203.881 1503.69,236.996 1504.52,203.881 1505.35,270.112 1506.18,286.67 1507,203.881 1507.83,270.112 1508.66,236.996 1509.49,236.996 1510.32,203.881 1511.15,336.343 1511.98,270.112 1512.81,203.881 1513.64,220.439 1514.47,270.112 1515.3,236.996 1516.13,121.092 1516.95,270.112 1517.78,253.554 1518.61,253.554 1519.44,220.439 1520.27,220.439 1521.1,286.67 1521.93,203.881 1522.76,236.996 1523.59,187.323 1524.42,236.996 1525.25,203.881 1526.08,170.765 1526.9,170.765 1527.73,336.343 1528.56,170.765 1529.39,220.439 1530.22,236.996 1531.05,170.765 1531.88,170.765 1532.71,286.67 1533.54,236.996 1534.37,187.323 1535.2,220.439 1536.03,402.574 1536.86,253.554 1537.68,270.112 1538.51,220.439 1539.34,253.554 1540.17,203.881 1541,236.996 1541.83,137.65 1542.66,286.67 1543.49,270.112 1544.32,170.765 1545.15,319.785 1545.98,220.439 1546.81,154.207 1547.63,270.112 1548.46,303.228 1549.29,170.765 1550.12,253.554 1550.95,236.996 1551.78,187.323 1552.61,203.881 1553.44,270.112 1554.27,170.765 1555.1,236.996 1555.93,236.996 1556.76,286.67 1557.58,220.439 1558.41,154.207 1559.24,286.67 1560.07,236.996 1560.9,236.996 1561.73,170.765 1562.56,170.765 1563.39,187.323 1564.22,170.765 1565.05,270.112 1565.88,236.996 1566.71,170.765 1567.54,170.765 1568.36,220.439 1569.19,220.439 1570.02,236.996 1570.85,154.207 1571.68,236.996 1572.51,236.996 1573.34,303.228 1574.17,170.765 1575,253.554 1575.83,203.881 1576.66,170.765 1577.49,203.881 1578.31,303.228 1579.14,236.996 1579.97,253.554 1580.8,336.343 1581.63,154.207 1582.46,270.112 1583.29,270.112 1584.12,270.112 1584.95,187.323 1585.78,187.323 1586.61,253.554 1587.44,253.554 1588.27,220.439 1589.09,236.996 1589.92,236.996 1590.75,253.554 1591.58,253.554 1592.41,187.323 1593.24,187.323 1594.07,203.881 1594.9,170.765 1595.73,253.554 1596.56,220.439 1597.39,187.323 1598.22,203.881 1599.04,203.881 1599.87,319.785 1600.7,286.67 1601.53,270.112 1602.36,236.996 1603.19,253.554 1604.02,203.881 1604.85,203.881 1605.68,137.65 1606.51,170.765 1607.34,187.323 1608.17,236.996 1608.99,187.323 1609.82,220.439 1610.65,187.323 1611.48,220.439 1612.31,137.65 1613.14,286.67 1613.97,270.112 1614.8,220.439 1615.63,236.996 1616.46,270.112 1617.29,270.112 1618.12,270.112 1618.95,319.785 1619.77,236.996 1620.6,170.765 1621.43,270.112 1622.26,187.323 1623.09,236.996 1623.92,270.112 1624.75,303.228 1625.58,220.439 1626.41,187.323 1627.24,253.554 1628.07,236.996 1628.9,303.228 1629.72,253.554 1630.55,236.996 1631.38,253.554 1632.21,336.343 1633.04,253.554 1633.87,137.65 1634.7,203.881 1635.53,203.881 1636.36,220.439 1637.19,187.323 1638.02,203.881 1638.85,236.996 1639.68,203.881 1640.5,253.554 1641.33,220.439 1642.16,270.112 1642.99,220.439 1643.82,319.785 1644.65,187.323 1645.48,203.881 1646.31,220.439 1647.14,187.323 1647.97,137.65 1648.8,170.765 1649.63,253.554 1650.45,220.439 1651.28,319.785 1652.11,170.765 1652.94,154.207 1653.77,319.785 1654.6,220.439 1655.43,203.881 1656.26,253.554 1657.09,319.785 1657.92,187.323 1658.75,253.554 1659.58,187.323 1660.4,270.112 1661.23,286.67 1662.06,220.439 1662.89,253.554 1663.72,203.881 1664.55,236.996 1665.38,154.207 1666.21,236.996 1667.04,154.207 1667.87,319.785 1668.7,203.881 1669.53,220.439 1670.36,187.323 1671.18,270.112 1672.01,270.112 1672.84,187.323 1673.67,220.439 1674.5,220.439 1675.33,203.881 1676.16,303.228 1676.99,236.996 1677.82,170.765 1678.65,170.765 1679.48,253.554 1680.31,270.112 1681.13,253.554 1681.96,220.439 1682.79,220.439 1683.62,220.439 1684.45,270.112 1685.28,270.112 1686.11,286.67 1686.94,270.112 1687.77,253.554 1688.6,154.207 1689.43,236.996 1690.26,154.207 1691.08,303.228 1691.91,319.785 1692.74,203.881 1693.57,187.323 1694.4,220.439 1695.23,203.881 1696.06,303.228 1696.89,270.112 1697.72,270.112 1698.55,270.112 1699.38,187.323 1700.21,170.765 1701.04,203.881 1701.86,253.554 1702.69,270.112 1703.52,220.439 1704.35,286.67 1705.18,187.323 1706.01,220.439 1706.84,220.439 1707.67,170.765 1708.5,220.439 1709.33,137.65 1710.16,203.881 1710.99,253.554 1711.81,170.765 1712.64,154.207 1713.47,303.228 1714.3,286.67 1715.13,253.554 1715.96,220.439 1716.79,286.67 1717.62,236.996 1718.45,154.207 1719.28,286.67 1720.11,236.996 1720.94,220.439 1721.77,154.207 1722.59,253.554 1723.42,203.881 1724.25,187.323 1725.08,203.881 1725.91,236.996 1726.74,170.765 1727.57,319.785 1728.4,203.881 1729.23,203.881 1730.06,270.112 1730.89,170.765 1731.72,187.323 1732.54,220.439 1733.37,236.996 1734.2,187.323 1735.03,270.112 1735.86,187.323 1736.69,203.881 1737.52,220.439 1738.35,154.207 1739.18,170.765 1740.01,220.439 1740.84,220.439 1741.67,187.323 1742.49,170.765 1743.32,203.881 1744.15,319.785 1744.98,187.323 1745.81,303.228 1746.64,286.67 1747.47,203.881 1748.3,286.67 1749.13,187.323 1749.96,253.554 1750.79,187.323 1751.62,137.65 1752.45,154.207 1753.27,154.207 1754.1,270.112 1754.93,220.439 1755.76,220.439 1756.59,170.765 1757.42,170.765 1758.25,270.112 1759.08,170.765 1759.91,137.65 1760.74,203.881 1761.57,270.112 1762.4,203.881 1763.22,236.996 1764.05,137.65 1764.88,220.439 1765.71,286.67 1766.54,170.765 1767.37,253.554 1768.2,220.439 1769.03,236.996 1769.86,187.323 1770.69,253.554 1771.52,270.112 1772.35,236.996 1773.18,236.996 1774,253.554 1774.83,137.65 1775.66,203.881 1776.49,203.881 1777.32,220.439 1778.15,236.996 1778.98,203.881 1779.81,187.323 1780.64,303.228 1781.47,203.881 1782.3,203.881 1783.13,286.67 1783.95,286.67 1784.78,104.534 1785.61,253.554 1786.44,236.996 1787.27,187.323 1788.1,187.323 1788.93,236.996 1789.76,170.765 1790.59,137.65 1791.42,187.323 1792.25,220.439 1793.08,236.996 1793.9,303.228 1794.73,270.112 1795.56,187.323 1796.39,236.996 1797.22,187.323 1798.05,336.343 1798.88,236.996 1799.71,352.901 1800.54,220.439 1801.37,170.765 1802.2,170.765 1803.03,170.765 1803.86,203.881 1804.68,236.996 1805.51,336.343 1806.34,303.228 1807.17,270.112 1808,187.323 1808.83,187.323 1809.66,253.554 1810.49,203.881 1811.32,154.207 1812.15,319.785 1812.98,220.439 1813.81,253.554 1814.63,220.439 1815.46,236.996 1816.29,121.092 1817.12,303.228 1817.95,220.439 1818.78,253.554 1819.61,203.881 1820.44,187.323 1821.27,220.439 1822.1,203.881 1822.93,253.554 1823.76,220.439 1824.59,137.65 1825.41,220.439 1826.24,236.996 1827.07,253.554 1827.9,187.323 1828.73,170.765 1829.56,220.439 1830.39,154.207 1831.22,220.439 1832.05,220.439 1832.88,236.996 1833.71,187.323 1834.54,270.112 1835.36,187.323 1836.19,270.112 1837.02,253.554 1837.85,253.554 1838.68,270.112 1839.51,154.207 1840.34,236.996 1841.17,187.323 1842,170.765 1842.83,220.439 1843.66,236.996 1844.49,236.996 1845.31,170.765 1846.14,253.554 1846.97,336.343 1847.8,170.765 1848.63,154.207 1849.46,220.439 1850.29,270.112 1851.12,270.112 1851.95,352.901 1852.78,220.439 1853.61,236.996 1854.44,336.343 1855.27,187.323 1856.09,236.996 1856.92,203.881 1857.75,154.207 1858.58,203.881 1859.41,270.112 1860.24,286.67 1861.07,270.112 1861.9,303.228 1862.73,253.554 1863.56,220.439 1864.39,270.112 1865.22,253.554 1866.04,203.881 1866.87,203.881 1867.7,286.67 1868.53,369.459 1869.36,270.112 1870.19,187.323 1871.02,303.228 1871.85,253.554 1872.68,286.67 1873.51,137.65 1874.34,170.765 1875.17,253.554 1875.99,236.996 1876.82,170.765 1877.65,203.881 1878.48,203.881 1879.31,170.765 1880.14,236.996 1880.97,187.323 1881.8,220.439 1882.63,270.112 1883.46,236.996 1884.29,220.439 1885.12,236.996 1885.95,203.881 1886.77,220.439 1887.6,220.439 1888.43,253.554 1889.26,303.228 1890.09,220.439 1890.92,137.65 1891.75,270.112 1892.58,187.323 1893.41,220.439 1894.24,286.67 1895.07,286.67 1895.9,236.996 1896.72,270.112 1897.55,203.881 1898.38,303.228 1899.21,270.112 1900.04,270.112 1900.87,270.112 1901.7,386.017 1902.53,154.207 1903.36,203.881 1904.19,303.228 1905.02,154.207 1905.85,203.881 1906.68,220.439 1907.5,286.67 1908.33,203.881 1909.16,104.534 1909.99,220.439 1910.82,270.112 1911.65,236.996 1912.48,270.112 1913.31,236.996 1914.14,270.112 1914.97,220.439 1915.8,253.554 1916.63,187.323 1917.45,220.439 1918.28,236.996 1919.11,220.439 1919.94,170.765 1920.77,203.881 1921.6,253.554 1922.43,236.996 1923.26,220.439 1924.09,187.323 1924.92,270.112 1925.75,253.554 1926.58,319.785 1927.4,236.996 1928.23,253.554 1929.06,270.112 1929.89,236.996 1930.72,203.881 1931.55,236.996 1932.38,253.554 1933.21,236.996 1934.04,303.228 1934.87,220.439 1935.7,352.901 1936.53,170.765 1937.36,270.112 1938.18,220.439 1939.01,203.881 1939.84,286.67 1940.67,319.785 1941.5,270.112 1942.33,303.228 1943.16,303.228 1943.99,236.996 1944.82,187.323 1945.65,253.554 1946.48,336.343 1947.31,319.785 1948.13,203.881 1948.96,203.881 1949.79,253.554 1950.62,286.67 1951.45,170.765 1952.28,203.881 1953.11,253.554 1953.94,270.112 1954.77,187.323 1955.6,253.554 1956.43,270.112 1957.26,286.67 1958.09,253.554 1958.91,253.554 1959.74,170.765 1960.57,253.554 1961.4,286.67 1962.23,253.554 1963.06,270.112 1963.89,253.554 1964.72,236.996 1965.55,286.67 1966.38,319.785 1967.21,187.323 1968.04,203.881 1968.86,253.554 1969.69,187.323 1970.52,270.112 1971.35,187.323 1972.18,236.996 1973.01,286.67 1973.84,203.881 1974.67,253.554 1975.5,286.67 1976.33,170.765 1977.16,236.996 1977.99,220.439 1978.81,270.112 1979.64,270.112 1980.47,220.439 1981.3,187.323 1982.13,286.67 1982.96,253.554 1983.79,187.323 1984.62,270.112 1985.45,303.228 1986.28,286.67 1987.11,253.554 1987.94,270.112 1988.77,203.881 1989.59,253.554 1990.42,352.901 1991.25,187.323 1992.08,270.112 1992.91,303.228 1993.74,170.765 1994.57,253.554 1995.4,170.765 1996.23,170.765 1997.06,220.439 1997.89,236.996 1998.72,220.439 1999.54,187.323 2000.37,253.554 2001.2,236.996 2002.03,236.996 2002.86,187.323 2003.69,253.554 2004.52,286.67 2005.35,187.323 2006.18,236.996 2007.01,220.439 2007.84,286.67 2008.67,286.67 2009.49,236.996 2010.32,236.996 2011.15,236.996 2011.98,270.112 2012.81,336.343 2013.64,236.996 2014.47,253.554 2015.3,253.554 2016.13,220.439 2016.96,303.228 2017.79,203.881 2018.62,369.459 2019.45,236.996 2020.27,220.439 2021.1,203.881 2021.93,236.996 2022.76,303.228 2023.59,303.228 2024.42,236.996 2025.25,270.112 2026.08,236.996 2026.91,336.343 2027.74,253.554 2028.57,236.996 2029.4,270.112 2030.22,220.439 2031.05,319.785 2031.88,270.112 2032.71,253.554 2033.54,270.112 2034.37,253.554 2035.2,236.996 2036.03,220.439 2036.86,220.439 2037.69,286.67 2038.52,203.881 2039.35,203.881 2040.18,203.881 2041,220.439 2041.83,236.996 2042.66,286.67 2043.49,286.67 2044.32,253.554 2045.15,203.881 2045.98,270.112 2046.81,253.554 2047.64,220.439 2048.47,253.554 2049.3,236.996 2050.13,187.323 2050.95,170.765 2051.78,303.228 2052.61,270.112 2053.44,270.112 2054.27,220.439 2055.1,236.996 2055.93,170.765 2056.76,220.439 2057.59,170.765 2058.42,220.439 2059.25,220.439 2060.08,203.881 2060.9,336.343 2061.73,253.554 2062.56,319.785 2063.39,236.996 2064.22,270.112 2065.05,236.996 2065.88,319.785 2066.71,303.228 2067.54,369.459 2068.37,253.554 2069.2,286.67 2070.03,336.343 2070.86,270.112 2071.68,270.112 2072.51,187.323 2073.34,220.439 2074.17,319.785 2075,253.554 2075.83,286.67 2076.66,236.996 2077.49,270.112 2078.32,236.996 2079.15,203.881 2079.98,170.765 2080.81,270.112 2081.63,187.323 2082.46,253.554 2083.29,303.228 2084.12,170.765 2084.95,303.228 2085.78,336.343 2086.61,170.765 2087.44,170.765 2088.27,270.112 2089.1,154.207 2089.93,319.785 2090.76,203.881 2091.59,319.785 2092.41,220.439 2093.24,236.996 2094.07,220.439 2094.9,170.765 2095.73,170.765 2096.56,236.996 2097.39,236.996 2098.22,253.554 2099.05,187.323 2099.88,336.343 2100.71,187.323 2101.54,187.323 2102.36,270.112 2103.19,220.439 2104.02,203.881 2104.85,336.343 2105.68,253.554 2106.51,336.343 2107.34,270.112 2108.17,203.881 2109,203.881 2109.83,236.996 2110.66,236.996 2111.49,270.112 2112.31,352.901 2113.14,220.439 2113.97,220.439 2114.8,419.132 2115.63,270.112 2116.46,270.112 2117.29,220.439 2118.12,236.996 2118.95,220.439 2119.78,270.112 2120.61,220.439 2121.44,187.323 2122.27,286.67 2123.09,236.996 2123.92,203.881 2124.75,220.439 2125.58,270.112 2126.41,286.67 2127.24,303.228 2128.07,286.67 2128.9,170.765 2129.73,253.554 2130.56,270.112 2131.39,187.323 2132.22,236.996 2133.04,203.881 2133.87,286.67 2134.7,203.881 2135.53,336.343 2136.36,336.343 2137.19,270.112 2138.02,270.112 2138.85,270.112 2139.68,236.996 2140.51,270.112 2141.34,253.554 2142.17,270.112 2143,286.67 2143.82,236.996 2144.65,154.207 2145.48,270.112 2146.31,369.459 2147.14,270.112 2147.97,187.323 2148.8,236.996 2149.63,319.785 2150.46,187.323 2151.29,187.323 2152.12,303.228 2152.95,253.554 2153.77,220.439 2154.6,303.228 2155.43,253.554 2156.26,253.554 2157.09,236.996 2157.92,236.996 2158.75,303.228 2159.58,336.343 2160.41,236.996 2161.24,319.785 2162.07,187.323 2162.9,253.554 2163.72,319.785 2164.55,270.112 2165.38,253.554 2166.21,270.112 2167.04,319.785 2167.87,220.439 2168.7,270.112 2169.53,236.996 2170.36,220.439 2171.19,236.996 2172.02,203.881 2172.85,369.459 2173.68,236.996 2174.5,203.881 2175.33,187.323 2176.16,203.881 2176.99,352.901 2177.82,303.228 2178.65,220.439 2179.48,137.65 2180.31,270.112 2181.14,369.459 2181.97,286.67 2182.8,270.112 2183.63,236.996 2184.45,187.323 2185.28,220.439 2186.11,270.112 2186.94,187.323 2187.77,236.996 2188.6,303.228 2189.43,303.228 2190.26,253.554 2191.09,352.901 2191.92,286.67 2192.75,203.881 2193.58,336.343 2194.4,336.343 2195.23,369.459 2196.06,336.343 2196.89,286.67 2197.72,253.554 2198.55,286.67 2199.38,319.785 2200.21,154.207 2201.04,286.67 2201.87,203.881 2202.7,270.112 2203.53,286.67 2204.36,286.67 2205.18,303.228 2206.01,336.343 2206.84,236.996 2207.67,352.901 2208.5,170.765 2209.33,203.881 2210.16,236.996 2210.99,220.439 2211.82,336.343 2212.65,352.901 2213.48,187.323 2214.31,187.323 2215.13,220.439 2215.96,220.439 2216.79,253.554 2217.62,236.996 2218.45,270.112 2219.28,236.996 2220.11,236.996 2220.94,270.112 2221.77,220.439 2222.6,303.228 2223.43,187.323 2224.26,253.554 2225.09,236.996 2225.91,253.554 2226.74,220.439 2227.57,203.881 2228.4,270.112 2229.23,303.228 2230.06,170.765 2230.89,187.323 2231.72,303.228 2232.55,236.996 2233.38,270.112 2234.21,187.323 2235.04,220.439 2235.86,203.881 2236.69,170.765 2237.52,270.112 2238.35,154.207 2239.18,220.439 2240.01,270.112 2240.84,187.323 2241.67,236.996 2242.5,236.996 2243.33,303.228 2244.16,270.112 2244.99,154.207 2245.81,203.881 2246.64,220.439 2247.47,220.439 2248.3,253.554 2249.13,203.881 2249.96,170.765 2250.79,253.554 2251.62,187.323 2252.45,303.228 2253.28,303.228 2254.11,270.112 2254.94,170.765 2255.77,303.228 2256.59,236.996 2257.42,220.439 2258.25,253.554 2259.08,154.207 2259.91,270.112 2260.74,286.67 2261.57,253.554 2262.4,303.228 2263.23,253.554 2264.06,220.439 2264.89,154.207 2265.72,170.765 2266.54,435.69 2267.37,203.881 2268.2,319.785 2269.03,270.112 2269.86,286.67 2270.69,270.112 2271.52,253.554 2272.35,253.554 2273.18,352.901 2274.01,286.67 2274.84,286.67 2275.67,270.112 2276.5,319.785 2277.32,220.439 2278.15,253.554 2278.98,386.017 2279.81,220.439 2280.64,286.67 2281.47,187.323 2282.3,286.67 2283.13,286.67 2283.96,270.112 2284.79,336.343 2285.62,319.785 2286.45,253.554 2287.27,236.996 2288.1,187.323 2288.93,253.554 2289.76,253.554 2290.59,236.996 "/>
<path clip-path="url(#clip390)" d="M2007.46 1438.47 L2279.54 1438.47 L2279.54 1334.79 L2007.46 1334.79  Z" fill="#ffffff" fill-rule="evenodd" fill-opacity="1"/>
<polyline clip-path="url(#clip390)" style="stroke:#000000; stroke-linecap:round; stroke-linejoin:round; stroke-width:4; stroke-opacity:1; fill:none" points="2007.46,1438.47 2279.54,1438.47 2279.54,1334.79 2007.46,1334.79 2007.46,1438.47 "/>
<polyline clip-path="url(#clip390)" style="stroke:#009af9; stroke-linecap:round; stroke-linejoin:round; stroke-width:4; stroke-opacity:1; fill:none" points="2031.87,1386.63 2178.3,1386.63 "/>
<path clip-path="url(#clip390)" d="M2216.55 1406.32 Q2214.74 1410.95 2213.03 1412.36 Q2211.32 1413.78 2208.44 1413.78 L2205.04 1413.78 L2205.04 1410.21 L2207.54 1410.21 Q2209.3 1410.21 2210.27 1409.38 Q2211.25 1408.54 2212.43 1405.44 L2213.19 1403.5 L2202.7 1377.99 L2207.22 1377.99 L2215.32 1398.27 L2223.42 1377.99 L2227.94 1377.99 L2216.55 1406.32 Z" fill="#000000" fill-rule="nonzero" fill-opacity="1" /><path clip-path="url(#clip390)" d="M2235.23 1399.98 L2242.87 1399.98 L2242.87 1373.61 L2234.56 1375.28 L2234.56 1371.02 L2242.82 1369.35 L2247.5 1369.35 L2247.5 1399.98 L2255.13 1399.98 L2255.13 1403.91 L2235.23 1403.91 L2235.23 1399.98 Z" fill="#000000" fill-rule="nonzero" fill-opacity="1" /></svg>
