<?xml version="1.0" encoding="utf-8"?>
<svg xmlns="http://www.w3.org/2000/svg" xmlns:xlink="http://www.w3.org/1999/xlink" width="600" height="400" viewBox="0 0 2400 1600">
<defs>
  <clipPath id="clip930">
    <rect x="0" y="0" width="2400" height="1600"/>
  </clipPath>
</defs>
<path clip-path="url(#clip930)" d="M0 1600 L2400 1600 L2400 0 L0 0  Z" fill="#ffffff" fill-rule="evenodd" fill-opacity="1"/>
<defs>
  <clipPath id="clip931">
    <rect x="480" y="0" width="1681" height="1600"/>
  </clipPath>
</defs>
<path clip-path="url(#clip930)" d="M156.274 1486.45 L2352.76 1486.45 L2352.76 47.2441 L156.274 47.2441  Z" fill="#ffffff" fill-rule="evenodd" fill-opacity="1"/>
<defs>
  <clipPath id="clip932">
    <rect x="156" y="47" width="2197" height="1440"/>
  </clipPath>
</defs>
<polyline clip-path="url(#clip932)" style="stroke:#000000; stroke-linecap:round; stroke-linejoin:round; stroke-width:2; stroke-opacity:0.1; fill:none" points="218.439,1486.45 218.439,47.2441 "/>
<polyline clip-path="url(#clip932)" style="stroke:#000000; stroke-linecap:round; stroke-linejoin:round; stroke-width:2; stroke-opacity:0.1; fill:none" points="633.035,1486.45 633.035,47.2441 "/>
<polyline clip-path="url(#clip932)" style="stroke:#000000; stroke-linecap:round; stroke-linejoin:round; stroke-width:2; stroke-opacity:0.1; fill:none" points="1047.63,1486.45 1047.63,47.2441 "/>
<polyline clip-path="url(#clip932)" style="stroke:#000000; stroke-linecap:round; stroke-linejoin:round; stroke-width:2; stroke-opacity:0.1; fill:none" points="1462.23,1486.45 1462.23,47.2441 "/>
<polyline clip-path="url(#clip932)" style="stroke:#000000; stroke-linecap:round; stroke-linejoin:round; stroke-width:2; stroke-opacity:0.1; fill:none" points="1876.82,1486.45 1876.82,47.2441 "/>
<polyline clip-path="url(#clip932)" style="stroke:#000000; stroke-linecap:round; stroke-linejoin:round; stroke-width:2; stroke-opacity:0.1; fill:none" points="2291.42,1486.45 2291.42,47.2441 "/>
<polyline clip-path="url(#clip930)" style="stroke:#000000; stroke-linecap:round; stroke-linejoin:round; stroke-width:4; stroke-opacity:1; fill:none" points="156.274,1486.45 2352.76,1486.45 "/>
<polyline clip-path="url(#clip930)" style="stroke:#000000; stroke-linecap:round; stroke-linejoin:round; stroke-width:4; stroke-opacity:1; fill:none" points="218.439,1486.45 218.439,1467.55 "/>
<polyline clip-path="url(#clip930)" style="stroke:#000000; stroke-linecap:round; stroke-linejoin:round; stroke-width:4; stroke-opacity:1; fill:none" points="633.035,1486.45 633.035,1467.55 "/>
<polyline clip-path="url(#clip930)" style="stroke:#000000; stroke-linecap:round; stroke-linejoin:round; stroke-width:4; stroke-opacity:1; fill:none" points="1047.63,1486.45 1047.63,1467.55 "/>
<polyline clip-path="url(#clip930)" style="stroke:#000000; stroke-linecap:round; stroke-linejoin:round; stroke-width:4; stroke-opacity:1; fill:none" points="1462.23,1486.45 1462.23,1467.55 "/>
<polyline clip-path="url(#clip930)" style="stroke:#000000; stroke-linecap:round; stroke-linejoin:round; stroke-width:4; stroke-opacity:1; fill:none" points="1876.82,1486.45 1876.82,1467.55 "/>
<polyline clip-path="url(#clip930)" style="stroke:#000000; stroke-linecap:round; stroke-linejoin:round; stroke-width:4; stroke-opacity:1; fill:none" points="2291.42,1486.45 2291.42,1467.55 "/>
<path clip-path="url(#clip930)" d="M218.439 1517.37 Q214.828 1517.37 212.999 1520.93 Q211.193 1524.47 211.193 1531.6 Q211.193 1538.71 212.999 1542.27 Q214.828 1545.82 218.439 1545.82 Q222.073 1545.82 223.879 1542.27 Q225.707 1538.71 225.707 1531.6 Q225.707 1524.47 223.879 1520.93 Q222.073 1517.37 218.439 1517.37 M218.439 1513.66 Q224.249 1513.66 227.304 1518.27 Q230.383 1522.85 230.383 1531.6 Q230.383 1540.33 227.304 1544.94 Q224.249 1549.52 218.439 1549.52 Q212.629 1549.52 209.55 1544.94 Q206.494 1540.33 206.494 1531.6 Q206.494 1522.85 209.55 1518.27 Q212.629 1513.66 218.439 1513.66 Z" fill="#000000" fill-rule="nonzero" fill-opacity="1" /><path clip-path="url(#clip930)" d="M592.653 1514.29 L611.01 1514.29 L611.01 1518.22 L596.936 1518.22 L596.936 1526.7 Q597.954 1526.35 598.973 1526.19 Q599.991 1526 601.01 1526 Q606.797 1526 610.176 1529.17 Q613.556 1532.34 613.556 1537.76 Q613.556 1543.34 610.084 1546.44 Q606.612 1549.52 600.292 1549.52 Q598.116 1549.52 595.848 1549.15 Q593.602 1548.78 591.195 1548.04 L591.195 1543.34 Q593.278 1544.47 595.501 1545.03 Q597.723 1545.58 600.2 1545.58 Q604.204 1545.58 606.542 1543.48 Q608.88 1541.37 608.88 1537.76 Q608.88 1534.15 606.542 1532.04 Q604.204 1529.94 600.2 1529.94 Q598.325 1529.94 596.45 1530.35 Q594.598 1530.77 592.653 1531.65 L592.653 1514.29 Z" fill="#000000" fill-rule="nonzero" fill-opacity="1" /><path clip-path="url(#clip930)" d="M632.769 1517.37 Q629.158 1517.37 627.329 1520.93 Q625.524 1524.47 625.524 1531.6 Q625.524 1538.71 627.329 1542.27 Q629.158 1545.82 632.769 1545.82 Q636.403 1545.82 638.209 1542.27 Q640.037 1538.71 640.037 1531.6 Q640.037 1524.47 638.209 1520.93 Q636.403 1517.37 632.769 1517.37 M632.769 1513.66 Q638.579 1513.66 641.635 1518.27 Q644.713 1522.85 644.713 1531.6 Q644.713 1540.33 641.635 1544.94 Q638.579 1549.52 632.769 1549.52 Q626.959 1549.52 623.88 1544.94 Q620.825 1540.33 620.825 1531.6 Q620.825 1522.85 623.88 1518.27 Q626.959 1513.66 632.769 1513.66 Z" fill="#000000" fill-rule="nonzero" fill-opacity="1" /><path clip-path="url(#clip930)" d="M662.931 1517.37 Q659.32 1517.37 657.491 1520.93 Q655.685 1524.47 655.685 1531.6 Q655.685 1538.71 657.491 1542.27 Q659.32 1545.82 662.931 1545.82 Q666.565 1545.82 668.371 1542.27 Q670.199 1538.71 670.199 1531.6 Q670.199 1524.47 668.371 1520.93 Q666.565 1517.37 662.931 1517.37 M662.931 1513.66 Q668.741 1513.66 671.796 1518.27 Q674.875 1522.85 674.875 1531.6 Q674.875 1540.33 671.796 1544.94 Q668.741 1549.52 662.931 1549.52 Q657.121 1549.52 654.042 1544.94 Q650.986 1540.33 650.986 1531.6 Q650.986 1522.85 654.042 1518.27 Q657.121 1513.66 662.931 1513.66 Z" fill="#000000" fill-rule="nonzero" fill-opacity="1" /><path clip-path="url(#clip930)" d="M992.157 1544.91 L999.796 1544.91 L999.796 1518.55 L991.486 1520.21 L991.486 1515.95 L999.75 1514.29 L1004.43 1514.29 L1004.43 1544.91 L1012.06 1544.91 L1012.06 1548.85 L992.157 1548.85 L992.157 1544.91 Z" fill="#000000" fill-rule="nonzero" fill-opacity="1" /><path clip-path="url(#clip930)" d="M1031.51 1517.37 Q1027.9 1517.37 1026.07 1520.93 Q1024.26 1524.47 1024.26 1531.6 Q1024.26 1538.71 1026.07 1542.27 Q1027.9 1545.82 1031.51 1545.82 Q1035.14 1545.82 1036.95 1542.27 Q1038.78 1538.71 1038.78 1531.6 Q1038.78 1524.47 1036.95 1520.93 Q1035.14 1517.37 1031.51 1517.37 M1031.51 1513.66 Q1037.32 1513.66 1040.37 1518.27 Q1043.45 1522.85 1043.45 1531.6 Q1043.45 1540.33 1040.37 1544.94 Q1037.32 1549.52 1031.51 1549.52 Q1025.7 1549.52 1022.62 1544.94 Q1019.56 1540.33 1019.56 1531.6 Q1019.56 1522.85 1022.62 1518.27 Q1025.7 1513.66 1031.51 1513.66 Z" fill="#000000" fill-rule="nonzero" fill-opacity="1" /><path clip-path="url(#clip930)" d="M1061.67 1517.37 Q1058.06 1517.37 1056.23 1520.93 Q1054.43 1524.47 1054.43 1531.6 Q1054.43 1538.71 1056.23 1542.27 Q1058.06 1545.82 1061.67 1545.82 Q1065.3 1545.82 1067.11 1542.27 Q1068.94 1538.71 1068.94 1531.6 Q1068.94 1524.47 1067.11 1520.93 Q1065.3 1517.37 1061.67 1517.37 M1061.67 1513.66 Q1067.48 1513.66 1070.54 1518.27 Q1073.62 1522.85 1073.62 1531.6 Q1073.62 1540.33 1070.54 1544.94 Q1067.48 1549.52 1061.67 1549.52 Q1055.86 1549.52 1052.78 1544.94 Q1049.73 1540.33 1049.73 1531.6 Q1049.73 1522.85 1052.78 1518.27 Q1055.86 1513.66 1061.67 1513.66 Z" fill="#000000" fill-rule="nonzero" fill-opacity="1" /><path clip-path="url(#clip930)" d="M1091.83 1517.37 Q1088.22 1517.37 1086.39 1520.93 Q1084.59 1524.47 1084.59 1531.6 Q1084.59 1538.71 1086.39 1542.27 Q1088.22 1545.82 1091.83 1545.82 Q1095.47 1545.82 1097.27 1542.27 Q1099.1 1538.71 1099.1 1531.6 Q1099.1 1524.47 1097.27 1520.93 Q1095.47 1517.37 1091.83 1517.37 M1091.83 1513.66 Q1097.64 1513.66 1100.7 1518.27 Q1103.78 1522.85 1103.78 1531.6 Q1103.78 1540.33 1100.7 1544.94 Q1097.64 1549.52 1091.83 1549.52 Q1086.02 1549.52 1082.94 1544.94 Q1079.89 1540.33 1079.89 1531.6 Q1079.89 1522.85 1082.94 1518.27 Q1086.02 1513.66 1091.83 1513.66 Z" fill="#000000" fill-rule="nonzero" fill-opacity="1" /><path clip-path="url(#clip930)" d="M1406.75 1544.91 L1414.39 1544.91 L1414.39 1518.55 L1406.08 1520.21 L1406.08 1515.95 L1414.35 1514.29 L1419.02 1514.29 L1419.02 1544.91 L1426.66 1544.91 L1426.66 1548.85 L1406.75 1548.85 L1406.75 1544.91 Z" fill="#000000" fill-rule="nonzero" fill-opacity="1" /><path clip-path="url(#clip930)" d="M1436.15 1514.29 L1454.51 1514.29 L1454.51 1518.22 L1440.43 1518.22 L1440.43 1526.7 Q1441.45 1526.35 1442.47 1526.19 Q1443.49 1526 1444.51 1526 Q1450.3 1526 1453.67 1529.17 Q1457.05 1532.34 1457.05 1537.76 Q1457.05 1543.34 1453.58 1546.44 Q1450.11 1549.52 1443.79 1549.52 Q1441.61 1549.52 1439.35 1549.15 Q1437.1 1548.78 1434.69 1548.04 L1434.69 1543.34 Q1436.78 1544.47 1439 1545.03 Q1441.22 1545.58 1443.7 1545.58 Q1447.7 1545.58 1450.04 1543.48 Q1452.38 1541.37 1452.38 1537.76 Q1452.38 1534.15 1450.04 1532.04 Q1447.7 1529.94 1443.7 1529.94 Q1441.82 1529.94 1439.95 1530.35 Q1438.1 1530.77 1436.15 1531.65 L1436.15 1514.29 Z" fill="#000000" fill-rule="nonzero" fill-opacity="1" /><path clip-path="url(#clip930)" d="M1476.27 1517.37 Q1472.66 1517.37 1470.83 1520.93 Q1469.02 1524.47 1469.02 1531.6 Q1469.02 1538.71 1470.83 1542.27 Q1472.66 1545.82 1476.27 1545.82 Q1479.9 1545.82 1481.71 1542.27 Q1483.54 1538.71 1483.54 1531.6 Q1483.54 1524.47 1481.71 1520.93 Q1479.9 1517.37 1476.27 1517.37 M1476.27 1513.66 Q1482.08 1513.66 1485.13 1518.27 Q1488.21 1522.85 1488.21 1531.6 Q1488.21 1540.33 1485.13 1544.94 Q1482.08 1549.52 1476.27 1549.52 Q1470.46 1549.52 1467.38 1544.94 Q1464.32 1540.33 1464.32 1531.6 Q1464.32 1522.85 1467.38 1518.27 Q1470.46 1513.66 1476.27 1513.66 Z" fill="#000000" fill-rule="nonzero" fill-opacity="1" /><path clip-path="url(#clip930)" d="M1506.43 1517.37 Q1502.82 1517.37 1500.99 1520.93 Q1499.18 1524.47 1499.18 1531.6 Q1499.18 1538.71 1500.99 1542.27 Q1502.82 1545.82 1506.43 1545.82 Q1510.06 1545.82 1511.87 1542.27 Q1513.7 1538.71 1513.7 1531.6 Q1513.7 1524.47 1511.87 1520.93 Q1510.06 1517.37 1506.43 1517.37 M1506.43 1513.66 Q1512.24 1513.66 1515.29 1518.27 Q1518.37 1522.85 1518.37 1531.6 Q1518.37 1540.33 1515.29 1544.94 Q1512.24 1549.52 1506.43 1549.52 Q1500.62 1549.52 1497.54 1544.94 Q1494.48 1540.33 1494.48 1531.6 Q1494.48 1522.85 1497.54 1518.27 Q1500.62 1513.66 1506.43 1513.66 Z" fill="#000000" fill-rule="nonzero" fill-opacity="1" /><path clip-path="url(#clip930)" d="M1825.44 1544.91 L1841.75 1544.91 L1841.75 1548.85 L1819.81 1548.85 L1819.81 1544.91 Q1822.47 1542.16 1827.06 1537.53 Q1831.66 1532.88 1832.84 1531.53 Q1835.09 1529.01 1835.97 1527.27 Q1836.87 1525.51 1836.87 1523.82 Q1836.87 1521.07 1834.93 1519.33 Q1833 1517.6 1829.9 1517.6 Q1827.7 1517.6 1825.25 1518.36 Q1822.82 1519.13 1820.04 1520.68 L1820.04 1515.95 Q1822.87 1514.82 1825.32 1514.24 Q1827.77 1513.66 1829.81 1513.66 Q1835.18 1513.66 1838.38 1516.35 Q1841.57 1519.03 1841.57 1523.52 Q1841.57 1525.65 1840.76 1527.57 Q1839.97 1529.47 1837.87 1532.07 Q1837.29 1532.74 1834.19 1535.95 Q1831.08 1539.15 1825.44 1544.91 Z" fill="#000000" fill-rule="nonzero" fill-opacity="1" /><path clip-path="url(#clip930)" d="M1861.57 1517.37 Q1857.96 1517.37 1856.13 1520.93 Q1854.32 1524.47 1854.32 1531.6 Q1854.32 1538.71 1856.13 1542.27 Q1857.96 1545.82 1861.57 1545.82 Q1865.2 1545.82 1867.01 1542.27 Q1868.84 1538.71 1868.84 1531.6 Q1868.84 1524.47 1867.01 1520.93 Q1865.2 1517.37 1861.57 1517.37 M1861.57 1513.66 Q1867.38 1513.66 1870.44 1518.27 Q1873.51 1522.85 1873.51 1531.6 Q1873.51 1540.33 1870.44 1544.94 Q1867.38 1549.52 1861.57 1549.52 Q1855.76 1549.52 1852.68 1544.94 Q1849.63 1540.33 1849.63 1531.6 Q1849.63 1522.85 1852.68 1518.27 Q1855.76 1513.66 1861.57 1513.66 Z" fill="#000000" fill-rule="nonzero" fill-opacity="1" /><path clip-path="url(#clip930)" d="M1891.73 1517.37 Q1888.12 1517.37 1886.29 1520.93 Q1884.49 1524.47 1884.49 1531.6 Q1884.49 1538.71 1886.29 1542.27 Q1888.12 1545.82 1891.73 1545.82 Q1895.37 1545.82 1897.17 1542.27 Q1899 1538.71 1899 1531.6 Q1899 1524.47 1897.17 1520.93 Q1895.37 1517.37 1891.73 1517.37 M1891.73 1513.66 Q1897.54 1513.66 1900.6 1518.27 Q1903.68 1522.85 1903.68 1531.6 Q1903.68 1540.33 1900.6 1544.94 Q1897.54 1549.52 1891.73 1549.52 Q1885.92 1549.52 1882.84 1544.94 Q1879.79 1540.33 1879.79 1531.6 Q1879.79 1522.85 1882.84 1518.27 Q1885.92 1513.66 1891.73 1513.66 Z" fill="#000000" fill-rule="nonzero" fill-opacity="1" /><path clip-path="url(#clip930)" d="M1921.89 1517.37 Q1918.28 1517.37 1916.45 1520.93 Q1914.65 1524.47 1914.65 1531.6 Q1914.65 1538.71 1916.45 1542.27 Q1918.28 1545.82 1921.89 1545.82 Q1925.53 1545.82 1927.33 1542.27 Q1929.16 1538.71 1929.16 1531.6 Q1929.16 1524.47 1927.33 1520.93 Q1925.53 1517.37 1921.89 1517.37 M1921.89 1513.66 Q1927.7 1513.66 1930.76 1518.27 Q1933.84 1522.85 1933.84 1531.6 Q1933.84 1540.33 1930.76 1544.94 Q1927.7 1549.52 1921.89 1549.52 Q1916.08 1549.52 1913 1544.94 Q1909.95 1540.33 1909.95 1531.6 Q1909.95 1522.85 1913 1518.27 Q1916.08 1513.66 1921.89 1513.66 Z" fill="#000000" fill-rule="nonzero" fill-opacity="1" /><path clip-path="url(#clip930)" d="M2240.03 1544.91 L2256.35 1544.91 L2256.35 1548.85 L2234.41 1548.85 L2234.41 1544.91 Q2237.07 1542.16 2241.65 1537.53 Q2246.26 1532.88 2247.44 1531.53 Q2249.68 1529.01 2250.56 1527.27 Q2251.47 1525.51 2251.47 1523.82 Q2251.47 1521.07 2249.52 1519.33 Q2247.6 1517.6 2244.5 1517.6 Q2242.3 1517.6 2239.85 1518.36 Q2237.42 1519.13 2234.64 1520.68 L2234.64 1515.95 Q2237.46 1514.82 2239.92 1514.24 Q2242.37 1513.66 2244.41 1513.66 Q2249.78 1513.66 2252.97 1516.35 Q2256.17 1519.03 2256.17 1523.52 Q2256.17 1525.65 2255.36 1527.57 Q2254.57 1529.47 2252.46 1532.07 Q2251.88 1532.74 2248.78 1535.95 Q2245.68 1539.15 2240.03 1544.91 Z" fill="#000000" fill-rule="nonzero" fill-opacity="1" /><path clip-path="url(#clip930)" d="M2266.21 1514.29 L2284.57 1514.29 L2284.57 1518.22 L2270.49 1518.22 L2270.49 1526.7 Q2271.51 1526.35 2272.53 1526.19 Q2273.55 1526 2274.57 1526 Q2280.36 1526 2283.74 1529.17 Q2287.11 1532.34 2287.11 1537.76 Q2287.11 1543.34 2283.64 1546.44 Q2280.17 1549.52 2273.85 1549.52 Q2271.68 1549.52 2269.41 1549.15 Q2267.16 1548.78 2264.75 1548.04 L2264.75 1543.34 Q2266.84 1544.47 2269.06 1545.03 Q2271.28 1545.58 2273.76 1545.58 Q2277.76 1545.58 2280.1 1543.48 Q2282.44 1541.37 2282.44 1537.76 Q2282.44 1534.15 2280.1 1532.04 Q2277.76 1529.94 2273.76 1529.94 Q2271.88 1529.94 2270.01 1530.35 Q2268.16 1530.77 2266.21 1531.65 L2266.21 1514.29 Z" fill="#000000" fill-rule="nonzero" fill-opacity="1" /><path clip-path="url(#clip930)" d="M2306.33 1517.37 Q2302.72 1517.37 2300.89 1520.93 Q2299.08 1524.47 2299.08 1531.6 Q2299.08 1538.71 2300.89 1542.27 Q2302.72 1545.82 2306.33 1545.82 Q2309.96 1545.82 2311.77 1542.27 Q2313.6 1538.71 2313.6 1531.6 Q2313.6 1524.47 2311.77 1520.93 Q2309.96 1517.37 2306.33 1517.37 M2306.33 1513.66 Q2312.14 1513.66 2315.19 1518.27 Q2318.27 1522.85 2318.27 1531.6 Q2318.27 1540.33 2315.19 1544.94 Q2312.14 1549.52 2306.33 1549.52 Q2300.52 1549.52 2297.44 1544.94 Q2294.38 1540.33 2294.38 1531.6 Q2294.38 1522.85 2297.44 1518.27 Q2300.52 1513.66 2306.33 1513.66 Z" fill="#000000" fill-rule="nonzero" fill-opacity="1" /><path clip-path="url(#clip930)" d="M2336.49 1517.37 Q2332.88 1517.37 2331.05 1520.93 Q2329.24 1524.47 2329.24 1531.6 Q2329.24 1538.71 2331.05 1542.27 Q2332.88 1545.82 2336.49 1545.82 Q2340.12 1545.82 2341.93 1542.27 Q2343.76 1538.71 2343.76 1531.6 Q2343.76 1524.47 2341.93 1520.93 Q2340.12 1517.37 2336.49 1517.37 M2336.49 1513.66 Q2342.3 1513.66 2345.36 1518.27 Q2348.43 1522.85 2348.43 1531.6 Q2348.43 1540.33 2345.36 1544.94 Q2342.3 1549.52 2336.49 1549.52 Q2330.68 1549.52 2327.6 1544.94 Q2324.55 1540.33 2324.55 1531.6 Q2324.55 1522.85 2327.6 1518.27 Q2330.68 1513.66 2336.49 1513.66 Z" fill="#000000" fill-rule="nonzero" fill-opacity="1" /><polyline clip-path="url(#clip932)" style="stroke:#000000; stroke-linecap:round; stroke-linejoin:round; stroke-width:2; stroke-opacity:0.1; fill:none" points="156.274,1473.08 2352.76,1473.08 "/>
<polyline clip-path="url(#clip932)" style="stroke:#000000; stroke-linecap:round; stroke-linejoin:round; stroke-width:2; stroke-opacity:0.1; fill:none" points="156.274,1126.8 2352.76,1126.8 "/>
<polyline clip-path="url(#clip932)" style="stroke:#000000; stroke-linecap:round; stroke-linejoin:round; stroke-width:2; stroke-opacity:0.1; fill:none" points="156.274,780.529 2352.76,780.529 "/>
<polyline clip-path="url(#clip932)" style="stroke:#000000; stroke-linecap:round; stroke-linejoin:round; stroke-width:2; stroke-opacity:0.1; fill:none" points="156.274,434.252 2352.76,434.252 "/>
<polyline clip-path="url(#clip932)" style="stroke:#000000; stroke-linecap:round; stroke-linejoin:round; stroke-width:2; stroke-opacity:0.1; fill:none" points="156.274,87.9763 2352.76,87.9763 "/>
<polyline clip-path="url(#clip930)" style="stroke:#000000; stroke-linecap:round; stroke-linejoin:round; stroke-width:4; stroke-opacity:1; fill:none" points="156.274,1486.45 156.274,47.2441 "/>
<polyline clip-path="url(#clip930)" style="stroke:#000000; stroke-linecap:round; stroke-linejoin:round; stroke-width:4; stroke-opacity:1; fill:none" points="156.274,1473.08 175.172,1473.08 "/>
<polyline clip-path="url(#clip930)" style="stroke:#000000; stroke-linecap:round; stroke-linejoin:round; stroke-width:4; stroke-opacity:1; fill:none" points="156.274,1126.8 175.172,1126.8 "/>
<polyline clip-path="url(#clip930)" style="stroke:#000000; stroke-linecap:round; stroke-linejoin:round; stroke-width:4; stroke-opacity:1; fill:none" points="156.274,780.529 175.172,780.529 "/>
<polyline clip-path="url(#clip930)" style="stroke:#000000; stroke-linecap:round; stroke-linejoin:round; stroke-width:4; stroke-opacity:1; fill:none" points="156.274,434.252 175.172,434.252 "/>
<polyline clip-path="url(#clip930)" style="stroke:#000000; stroke-linecap:round; stroke-linejoin:round; stroke-width:4; stroke-opacity:1; fill:none" points="156.274,87.9763 175.172,87.9763 "/>
<path clip-path="url(#clip930)" d="M62.9365 1458.88 Q59.3254 1458.88 57.4967 1462.44 Q55.6912 1465.99 55.6912 1473.12 Q55.6912 1480.22 57.4967 1483.79 Q59.3254 1487.33 62.9365 1487.33 Q66.5707 1487.33 68.3763 1483.79 Q70.205 1480.22 70.205 1473.12 Q70.205 1465.99 68.3763 1462.44 Q66.5707 1458.88 62.9365 1458.88 M62.9365 1455.18 Q68.7467 1455.18 71.8022 1459.78 Q74.8809 1464.37 74.8809 1473.12 Q74.8809 1481.84 71.8022 1486.45 Q68.7467 1491.03 62.9365 1491.03 Q57.1264 1491.03 54.0477 1486.45 Q50.9921 1481.84 50.9921 1473.12 Q50.9921 1464.37 54.0477 1459.78 Q57.1264 1455.18 62.9365 1455.18 Z" fill="#000000" fill-rule="nonzero" fill-opacity="1" /><path clip-path="url(#clip930)" d="M83.0984 1484.48 L87.9827 1484.48 L87.9827 1490.36 L83.0984 1490.36 L83.0984 1484.48 Z" fill="#000000" fill-rule="nonzero" fill-opacity="1" /><path clip-path="url(#clip930)" d="M108.746 1471.22 Q105.598 1471.22 103.746 1473.37 Q101.918 1475.52 101.918 1479.27 Q101.918 1483 103.746 1485.18 Q105.598 1487.33 108.746 1487.33 Q111.895 1487.33 113.723 1485.18 Q115.575 1483 115.575 1479.27 Q115.575 1475.52 113.723 1473.37 Q111.895 1471.22 108.746 1471.22 M118.029 1456.56 L118.029 1460.82 Q116.27 1459.99 114.464 1459.55 Q112.682 1459.11 110.922 1459.11 Q106.293 1459.11 103.839 1462.24 Q101.409 1465.36 101.061 1471.68 Q102.427 1469.67 104.487 1468.6 Q106.547 1467.51 109.024 1467.51 Q114.233 1467.51 117.242 1470.69 Q120.274 1473.83 120.274 1479.27 Q120.274 1484.6 117.126 1487.81 Q113.978 1491.03 108.746 1491.03 Q102.751 1491.03 99.5798 1486.45 Q96.4085 1481.84 96.4085 1473.12 Q96.4085 1464.92 100.297 1460.06 Q104.186 1455.18 110.737 1455.18 Q112.496 1455.18 114.279 1455.52 Q116.084 1455.87 118.029 1456.56 Z" fill="#000000" fill-rule="nonzero" fill-opacity="1" /><path clip-path="url(#clip930)" d="M64.0013 1112.6 Q60.3902 1112.6 58.5615 1116.17 Q56.756 1119.71 56.756 1126.84 Q56.756 1133.95 58.5615 1137.51 Q60.3902 1141.05 64.0013 1141.05 Q67.6356 1141.05 69.4411 1137.51 Q71.2698 1133.95 71.2698 1126.84 Q71.2698 1119.71 69.4411 1116.17 Q67.6356 1112.6 64.0013 1112.6 M64.0013 1108.9 Q69.8115 1108.9 72.867 1113.51 Q75.9457 1118.09 75.9457 1126.84 Q75.9457 1135.57 72.867 1140.17 Q69.8115 1144.76 64.0013 1144.76 Q58.1912 1144.76 55.1125 1140.17 Q52.0569 1135.57 52.0569 1126.84 Q52.0569 1118.09 55.1125 1113.51 Q58.1912 1108.9 64.0013 1108.9 Z" fill="#000000" fill-rule="nonzero" fill-opacity="1" /><path clip-path="url(#clip930)" d="M84.1632 1138.21 L89.0475 1138.21 L89.0475 1144.08 L84.1632 1144.08 L84.1632 1138.21 Z" fill="#000000" fill-rule="nonzero" fill-opacity="1" /><path clip-path="url(#clip930)" d="M98.0521 1109.52 L120.274 1109.52 L120.274 1111.52 L107.728 1144.08 L102.844 1144.08 L114.649 1113.46 L98.0521 1113.46 L98.0521 1109.52 Z" fill="#000000" fill-rule="nonzero" fill-opacity="1" /><path clip-path="url(#clip930)" d="M63.1911 766.327 Q59.58 766.327 57.7513 769.892 Q55.9458 773.434 55.9458 780.563 Q55.9458 787.67 57.7513 791.235 Q59.58 794.776 63.1911 794.776 Q66.8254 794.776 68.6309 791.235 Q70.4596 787.67 70.4596 780.563 Q70.4596 773.434 68.6309 769.892 Q66.8254 766.327 63.1911 766.327 M63.1911 762.624 Q69.0013 762.624 72.0568 767.23 Q75.1355 771.813 75.1355 780.563 Q75.1355 789.29 72.0568 793.897 Q69.0013 798.48 63.1911 798.48 Q57.381 798.48 54.3023 793.897 Q51.2468 789.29 51.2468 780.563 Q51.2468 771.813 54.3023 767.23 Q57.381 762.624 63.1911 762.624 Z" fill="#000000" fill-rule="nonzero" fill-opacity="1" /><path clip-path="url(#clip930)" d="M83.3531 791.929 L88.2373 791.929 L88.2373 797.809 L83.3531 797.809 L83.3531 791.929 Z" fill="#000000" fill-rule="nonzero" fill-opacity="1" /><path clip-path="url(#clip930)" d="M108.422 781.397 Q105.089 781.397 103.168 783.179 Q101.27 784.961 101.27 788.086 Q101.27 791.211 103.168 792.994 Q105.089 794.776 108.422 794.776 Q111.756 794.776 113.677 792.994 Q115.598 791.188 115.598 788.086 Q115.598 784.961 113.677 783.179 Q111.779 781.397 108.422 781.397 M103.746 779.406 Q100.737 778.665 99.0474 776.605 Q97.3808 774.545 97.3808 771.582 Q97.3808 767.438 100.321 765.031 Q103.284 762.624 108.422 762.624 Q113.584 762.624 116.524 765.031 Q119.464 767.438 119.464 771.582 Q119.464 774.545 117.774 776.605 Q116.108 778.665 113.121 779.406 Q116.501 780.193 118.376 782.485 Q120.274 784.776 120.274 788.086 Q120.274 793.11 117.195 795.795 Q114.14 798.48 108.422 798.48 Q102.705 798.48 99.6261 795.795 Q96.5706 793.11 96.5706 788.086 Q96.5706 784.776 98.4687 782.485 Q100.367 780.193 103.746 779.406 M102.034 772.022 Q102.034 774.707 103.7 776.212 Q105.39 777.716 108.422 777.716 Q111.432 777.716 113.121 776.212 Q114.834 774.707 114.834 772.022 Q114.834 769.337 113.121 767.832 Q111.432 766.327 108.422 766.327 Q105.39 766.327 103.7 767.832 Q102.034 769.337 102.034 772.022 Z" fill="#000000" fill-rule="nonzero" fill-opacity="1" /><path clip-path="url(#clip930)" d="M63.2837 420.051 Q59.6726 420.051 57.8439 423.616 Q56.0384 427.158 56.0384 434.287 Q56.0384 441.394 57.8439 444.958 Q59.6726 448.5 63.2837 448.5 Q66.918 448.5 68.7235 444.958 Q70.5522 441.394 70.5522 434.287 Q70.5522 427.158 68.7235 423.616 Q66.918 420.051 63.2837 420.051 M63.2837 416.347 Q69.0939 416.347 72.1494 420.954 Q75.2281 425.537 75.2281 434.287 Q75.2281 443.014 72.1494 447.62 Q69.0939 452.204 63.2837 452.204 Q57.4736 452.204 54.3949 447.62 Q51.3393 443.014 51.3393 434.287 Q51.3393 425.537 54.3949 420.954 Q57.4736 416.347 63.2837 416.347 Z" fill="#000000" fill-rule="nonzero" fill-opacity="1" /><path clip-path="url(#clip930)" d="M83.4457 445.653 L88.3299 445.653 L88.3299 451.532 L83.4457 451.532 L83.4457 445.653 Z" fill="#000000" fill-rule="nonzero" fill-opacity="1" /><path clip-path="url(#clip930)" d="M98.6539 450.815 L98.6539 446.556 Q100.413 447.389 102.219 447.829 Q104.024 448.269 105.76 448.269 Q110.39 448.269 112.82 445.167 Q115.274 442.042 115.621 435.699 Q114.279 437.69 112.219 438.755 Q110.158 439.82 107.658 439.82 Q102.473 439.82 99.4409 436.695 Q96.4317 433.546 96.4317 428.107 Q96.4317 422.783 99.5798 419.565 Q102.728 416.347 107.959 416.347 Q113.955 416.347 117.103 420.954 Q120.274 425.537 120.274 434.287 Q120.274 442.458 116.385 447.343 Q112.52 452.204 105.969 452.204 Q104.209 452.204 102.404 451.857 Q100.598 451.509 98.6539 450.815 M107.959 436.162 Q111.108 436.162 112.936 434.009 Q114.788 431.857 114.788 428.107 Q114.788 424.38 112.936 422.227 Q111.108 420.051 107.959 420.051 Q104.811 420.051 102.959 422.227 Q101.131 424.38 101.131 428.107 Q101.131 431.857 102.959 434.009 Q104.811 436.162 107.959 436.162 Z" fill="#000000" fill-rule="nonzero" fill-opacity="1" /><path clip-path="url(#clip930)" d="M53.9088 101.321 L61.5476 101.321 L61.5476 74.9555 L53.2375 76.6222 L53.2375 72.3629 L61.5013 70.6963 L66.1772 70.6963 L66.1772 101.321 L73.8161 101.321 L73.8161 105.256 L53.9088 105.256 L53.9088 101.321 Z" fill="#000000" fill-rule="nonzero" fill-opacity="1" /><path clip-path="url(#clip930)" d="M83.2605 99.3767 L88.1447 99.3767 L88.1447 105.256 L83.2605 105.256 L83.2605 99.3767 Z" fill="#000000" fill-rule="nonzero" fill-opacity="1" /><path clip-path="url(#clip930)" d="M108.33 73.775 Q104.719 73.775 102.89 77.3398 Q101.084 80.8814 101.084 88.011 Q101.084 95.1174 102.89 98.6822 Q104.719 102.224 108.33 102.224 Q111.964 102.224 113.77 98.6822 Q115.598 95.1174 115.598 88.011 Q115.598 80.8814 113.77 77.3398 Q111.964 73.775 108.33 73.775 M108.33 70.0713 Q114.14 70.0713 117.195 74.6777 Q120.274 79.261 120.274 88.011 Q120.274 96.7378 117.195 101.344 Q114.14 105.928 108.33 105.928 Q102.52 105.928 99.4409 101.344 Q96.3854 96.7378 96.3854 88.011 Q96.3854 79.261 99.4409 74.6777 Q102.52 70.0713 108.33 70.0713 Z" fill="#000000" fill-rule="nonzero" fill-opacity="1" /><polyline clip-path="url(#clip932)" style="stroke:#009af9; stroke-linecap:round; stroke-linejoin:round; stroke-width:4; stroke-opacity:1; fill:none" points="218.439,1242.23 219.268,1399.95 220.097,1294.87 220.926,1379.73 221.756,1272.61 222.585,1309.47 223.414,1137.66 224.243,1170.83 225.072,1272.61 225.901,1265.09 226.731,1439.3 227.56,1316.7 228.389,1218.91 229.218,1379.73 230.047,1379.73 230.877,1309.47 231.706,1272.61 232.535,1218.91 233.364,1316.7 234.193,1439.3 235.023,1112.17 235.852,1178.98 236.681,1120.73 237.51,1041.49 238.339,1257.52 239.169,1366.03 239.998,1120.73 240.827,1154.36 241.656,1257.52 242.485,1445.72 243.315,1280.07 244.144,1103.56 244.973,1103.56 245.802,1187.08 246.631,1146.04 247.46,1129.23 248.29,1187.08 249.119,1120.73 249.948,1120.73 250.777,1178.98 251.606,1195.12 252.436,1059.54 253.265,1041.49 254.094,1170.83 254.923,1059.54 255.752,1086.14 256.582,1154.36 257.411,1178.98 258.24,1195.12 259.069,1059.54 259.898,1146.04 260.728,1050.55 261.557,876.791 262.386,927.434 263.215,1178.98 264.044,1120.73 264.874,1137.66 265.703,1170.83 266.532,1086.14 267.361,927.434 268.19,1094.88 269.019,907.408 269.849,1041.49 270.678,1094.88 271.507,1068.47 272.336,1013.92 273.165,985.729 273.995,927.434 274.824,1013.92 275.653,966.587 276.482,1162.63 277.311,907.408 278.141,917.459 278.97,1129.23 279.799,937.333 280.628,1050.55 281.457,985.729 282.287,947.158 283.116,966.587 283.945,1050.55 284.774,1004.59 285.603,937.333 286.433,855.982 287.262,897.281 288.091,1013.92 288.92,917.459 289.749,917.459 290.579,1129.23 291.408,769.403 292.237,1013.92 293.066,1023.17 293.895,966.587 294.724,917.459 295.554,735.485 296.383,966.587 297.212,1077.34 298.041,802.514 298.87,866.427 299.7,985.729 300.529,834.846 301.358,834.846 302.187,866.427 303.016,887.075 303.846,876.791 304.675,947.158 305.504,834.846 306.333,855.982 307.162,876.791 307.992,791.565 308.821,917.459 309.65,917.459 310.479,802.514 311.308,966.587 312.138,887.075 312.967,956.909 313.796,834.846 314.625,927.434 315.454,917.459 316.283,976.194 317.113,769.403 317.942,677.077 318.771,845.455 319.6,769.403 320.429,780.529 321.259,723.994 322.088,876.791 322.917,640.854 323.746,723.994 324.575,653.029 325.405,780.529 326.234,791.565 327.063,824.154 327.892,653.029 328.721,769.403 329.551,769.403 330.38,735.485 331.209,855.982 332.038,927.434 332.867,712.409 333.697,758.188 334.526,855.982 335.355,866.427 336.184,640.854 337.013,876.791 337.842,723.994 338.672,746.882 339.501,791.565 340.33,917.459 341.159,700.728 341.988,688.951 342.818,746.882 343.647,887.075 344.476,688.951 345.305,700.728 346.134,677.077 346.964,712.409 347.793,688.951 348.622,628.576 349.451,640.854 350.28,700.728 351.11,746.882 351.939,565.599 352.768,640.854 353.597,591.113 354.426,628.576 355.256,578.41 356.085,723.994 356.914,802.514 357.743,616.194 358.572,700.728 359.402,688.951 360.231,688.951 361.06,677.077 361.889,688.951 362.718,791.565 363.547,628.576 364.377,802.514 365.206,653.029 366.035,616.194 366.864,640.854 367.693,616.194 368.523,735.485 369.352,628.576 370.181,578.41 371.01,603.707 371.839,758.188 372.669,565.599 373.498,813.377 374.327,539.641 375.156,565.599 375.985,653.029 376.815,616.194 377.644,640.854 378.473,628.576 379.302,665.103 380.131,578.41 380.961,700.728 381.79,539.641 382.619,640.854 383.448,565.599 384.277,653.029 385.106,665.103 385.936,813.377 386.765,591.113 387.594,653.029 388.423,603.707 389.252,458.986 390.082,640.854 390.911,539.641 391.74,591.113 392.569,552.676 393.398,746.882 394.228,688.951 395.057,665.103 395.886,552.676 396.715,712.409 397.544,565.599 398.374,665.103 399.203,677.077 400.032,578.41 400.861,499.847 401.69,616.194 402.52,565.599 403.349,565.599 404.178,700.728 405.007,565.599 405.836,417.017 406.665,758.188 407.495,539.641 408.324,700.728 409.153,677.077 409.982,578.41 410.811,688.951 411.641,526.492 412.47,431.133 413.299,603.707 414.128,578.41 414.957,499.847 415.787,513.228 416.616,552.676 417.445,499.847 418.274,746.882 419.103,539.641 419.933,628.576 420.762,552.676 421.591,603.707 422.42,591.113 423.249,513.228 424.079,513.228 424.908,603.707 425.737,499.847 426.566,499.847 427.395,472.728 428.224,552.676 429.054,552.676 429.883,431.133 430.712,526.492 431.541,445.122 432.37,539.641 433.2,616.194 434.029,616.194 434.858,677.077 435.687,458.986 436.516,616.194 437.346,591.113 438.175,552.676 439.004,700.728 439.833,499.847 440.662,565.599 441.492,486.347 442.321,552.676 443.15,628.576 443.979,665.103 444.808,552.676 445.638,513.228 446.467,565.599 447.296,539.641 448.125,552.676 448.954,445.122 449.784,431.133 450.613,388.399 451.442,526.492 452.271,603.707 453.1,565.599 453.929,565.599 454.759,417.017 455.588,458.986 456.417,499.847 457.246,578.41 458.075,539.641 458.905,513.228 459.734,458.986 460.563,458.986 461.392,628.576 462.221,499.847 463.051,640.854 463.88,653.029 464.709,552.676 465.538,565.599 466.367,578.41 467.197,565.599 468.026,526.492 468.855,431.133 469.684,486.347 470.513,665.103 471.343,499.847 472.172,486.347 473.001,472.728 473.83,603.707 474.659,388.399 475.488,472.728 476.318,539.641 477.147,431.133 477.976,539.641 478.805,486.347 479.634,486.347 480.464,472.728 481.293,578.41 482.122,431.133 482.951,472.728 483.78,431.133 484.61,417.017 485.439,458.986 486.268,513.228 487.097,472.728 487.926,486.347 488.756,591.113 489.585,552.676 490.414,499.847 491.243,578.41 492.072,445.122 492.902,616.194 493.731,499.847 494.56,472.728 495.389,445.122 496.218,539.641 497.047,458.986 497.877,486.347 498.706,431.133 499.535,539.641 500.364,499.847 501.193,486.347 502.023,539.641 502.852,373.892 503.681,552.676 504.51,513.228 505.339,373.892 506.169,314.512 506.998,565.599 507.827,458.986 508.656,445.122 509.485,472.728 510.315,431.133 511.144,472.728 511.973,526.492 512.802,499.847 513.631,472.728 514.461,373.892 515.29,486.347 516.119,445.122 516.948,526.492 517.777,486.347 518.607,373.892 519.436,458.986 520.265,359.253 521.094,388.399 521.923,445.122 522.752,344.477 523.582,299.319 524.411,526.492 525.24,513.228 526.069,499.847 526.898,445.122 527.728,299.319 528.557,472.728 529.386,458.986 530.215,359.253 531.044,499.847 531.874,499.847 532.703,445.122 533.532,472.728 534.361,431.133 535.19,472.728 536.02,472.728 536.849,526.492 537.678,472.728 538.507,591.113 539.336,628.576 540.166,499.847 540.995,513.228 541.824,458.986 542.653,388.399 543.482,373.892 544.311,314.512 545.141,344.477 545.97,373.892 546.799,552.676 547.628,445.122 548.457,402.773 549.287,417.017 550.116,472.728 550.945,552.676 551.774,458.986 552.603,402.773 553.433,221.159 554.262,458.986 555.091,431.133 555.92,445.122 556.749,472.728 557.579,431.133 558.408,499.847 559.237,603.707 560.066,402.773 560.895,486.347 561.725,458.986 562.554,458.986 563.383,445.122 564.212,402.773 565.041,417.017 565.87,445.122 566.7,472.728 567.529,388.399 568.358,526.492 569.187,431.133 570.016,402.773 570.846,472.728 571.675,431.133 572.504,268.499 573.333,445.122 574.162,402.773 574.992,431.133 575.821,314.512 576.65,314.512 577.479,445.122 578.308,344.477 579.138,373.892 579.967,388.399 580.796,539.641 581.625,431.133 582.454,329.564 583.284,458.986 584.113,388.399 584.942,431.133 585.771,299.319 586.6,373.892 587.429,359.253 588.259,314.512 589.088,388.399 589.917,359.253 590.746,402.773 591.575,329.564 592.405,472.728 593.234,445.122 594.063,402.773 594.892,445.122 595.721,359.253 596.551,445.122 597.38,359.253 598.209,445.122 599.038,388.399 599.867,458.986 600.697,417.017 601.526,373.892 602.355,373.892 603.184,458.986 604.013,329.564 604.843,359.253 605.672,388.399 606.501,388.399 607.33,268.499 608.159,359.253 608.989,329.564 609.818,458.986 610.647,458.986 611.476,252.87 612.305,329.564 613.134,314.512 613.964,299.319 614.793,417.017 615.622,314.512 616.451,402.773 617.28,268.499 618.11,445.122 618.939,221.159 619.768,314.512 620.597,344.477 621.426,344.477 622.256,513.228 623.085,417.017 623.914,314.512 624.743,402.773 625.572,283.982 626.402,373.892 627.231,445.122 628.06,268.499 628.889,431.133 629.718,388.399 630.548,329.564 631.377,329.564 632.206,417.017 633.035,329.564 633.864,314.512 634.693,268.499 635.523,268.499 636.352,431.133 637.181,359.253 638.01,359.253 638.839,283.982 639.669,402.773 640.498,314.512 641.327,344.477 642.156,417.017 642.985,329.564 643.815,402.773 644.644,417.017 645.473,283.982 646.302,344.477 647.131,431.133 647.961,417.017 648.79,431.133 649.619,402.773 650.448,283.982 651.277,314.512 652.107,314.512 652.936,283.982 653.765,268.499 654.594,359.253 655.423,283.982 656.252,329.564 657.082,402.773 657.911,417.017 658.74,314.512 659.569,388.399 660.398,344.477 661.228,388.399 662.057,268.499 662.886,445.122 663.715,388.399 664.544,388.399 665.374,388.399 666.203,299.319 667.032,329.564 667.861,329.564 668.69,268.499 669.52,417.017 670.349,388.399 671.178,373.892 672.007,344.477 672.836,329.564 673.666,329.564 674.495,344.477 675.324,402.773 676.153,329.564 676.982,329.564 677.812,388.399 678.641,299.319 679.47,268.499 680.299,221.159 681.128,252.87 681.957,329.564 682.787,314.512 683.616,268.499 684.445,431.133 685.274,237.09 686.103,329.564 686.933,283.982 687.762,388.399 688.591,431.133 689.42,299.319 690.249,299.319 691.079,402.773 691.908,299.319 692.737,268.499 693.566,237.09 694.395,268.499 695.225,299.319 696.054,299.319 696.883,402.773 697.712,268.499 698.541,373.892 699.371,329.564 700.2,268.499 701.029,344.477 701.858,373.892 702.687,344.477 703.516,299.319 704.346,283.982 705.175,221.159 706.004,359.253 706.833,314.512 707.662,268.499 708.492,252.87 709.321,268.499 710.15,205.075 710.979,314.512 711.808,299.319 712.638,283.982 713.467,388.399 714.296,359.253 715.125,314.512 715.954,388.399 716.784,314.512 717.613,344.477 718.442,268.499 719.271,359.253 720.1,445.122 720.93,329.564 721.759,268.499 722.588,268.499 723.417,402.773 724.246,283.982 725.075,359.253 725.905,252.87 726.734,283.982 727.563,344.477 728.392,314.512 729.221,299.319 730.051,283.982 730.88,172.434 731.709,188.833 732.538,205.075 733.367,252.87 734.197,268.499 735.026,314.512 735.855,359.253 736.684,314.512 737.513,268.499 738.343,252.87 739.172,252.87 740.001,283.982 740.83,252.87 741.659,299.319 742.489,329.564 743.318,314.512 744.147,252.87 744.976,221.159 745.805,314.512 746.634,314.512 747.464,237.09 748.293,359.253 749.122,188.833 749.951,268.499 750.78,373.892 751.61,237.09 752.439,283.982 753.268,359.253 754.097,283.982 754.926,268.499 755.756,237.09 756.585,314.512 757.414,172.434 758.243,188.833 759.072,329.564 759.902,221.159 760.731,388.399 761.56,344.477 762.389,314.512 763.218,268.499 764.048,299.319 764.877,373.892 765.706,268.499 766.535,283.982 767.364,283.982 768.194,172.434 769.023,329.564 769.852,388.399 770.681,237.09 771.51,314.512 772.339,252.87 773.169,314.512 773.998,252.87 774.827,388.399 775.656,299.319 776.485,268.499 777.315,268.499 778.144,283.982 778.973,329.564 779.802,237.09 780.631,314.512 781.461,221.159 782.29,205.075 783.119,344.477 783.948,252.87 784.777,344.477 785.607,268.499 786.436,268.499 787.265,172.434 788.094,314.512 788.923,188.833 789.753,237.09 790.582,188.833 791.411,268.499 792.24,237.09 793.069,188.833 793.898,252.87 794.728,221.159 795.557,268.499 796.386,205.075 797.215,237.09 798.044,329.564 798.874,268.499 799.703,252.87 800.532,283.982 801.361,299.319 802.19,283.982 803.02,268.499 803.849,221.159 804.678,252.87 805.507,344.477 806.336,237.09 807.166,205.075 807.995,268.499 808.824,344.477 809.653,252.87 810.482,237.09 811.312,268.499 812.141,252.87 812.97,252.87 813.799,314.512 814.628,283.982 815.457,268.499 816.287,373.892 817.116,299.319 817.945,283.982 818.774,221.159 819.603,268.499 820.433,188.833 821.262,252.87 822.091,268.499 822.92,283.982 823.749,237.09 824.579,283.982 825.408,205.075 826.237,268.499 827.066,373.892 827.895,268.499 828.725,237.09 829.554,283.982 830.383,221.159 831.212,252.87 832.041,329.564 832.871,237.09 833.7,299.319 834.529,221.159 835.358,283.982 836.187,221.159 837.017,359.253 837.846,283.982 838.675,299.319 839.504,205.075 840.333,314.512 841.162,221.159 841.992,221.159 842.821,221.159 843.65,252.87 844.479,268.499 845.308,283.982 846.138,329.564 846.967,237.09 847.796,268.499 848.625,188.833 849.454,299.319 850.284,188.833 851.113,237.09 851.942,252.87 852.771,205.075 853.6,205.075 854.43,252.87 855.259,205.075 856.088,252.87 856.917,221.159 857.746,314.512 858.576,237.09 859.405,314.512 860.234,205.075 861.063,252.87 861.892,205.075 862.721,268.499 863.551,252.87 864.38,299.319 865.209,172.434 866.038,237.09 866.867,221.159 867.697,139.15 868.526,252.87 869.355,283.982 870.184,205.075 871.013,402.773 871.843,172.434 872.672,359.253 873.501,188.833 874.33,237.09 875.159,314.512 875.989,221.159 876.818,188.833 877.647,252.87 878.476,205.075 879.305,283.982 880.135,188.833 880.964,283.982 881.793,205.075 882.622,268.499 883.451,283.982 884.28,237.09 885.11,205.075 885.939,237.09 886.768,268.499 887.597,221.159 888.426,237.09 889.256,122.261 890.085,205.075 890.914,329.564 891.743,155.874 892.572,205.075 893.402,252.87 894.231,252.87 895.06,221.159 895.889,155.874 896.718,268.499 897.548,237.09 898.377,299.319 899.206,252.87 900.035,237.09 900.864,205.075 901.694,221.159 902.523,283.982 903.352,237.09 904.181,188.833 905.01,237.09 905.839,252.87 906.669,252.87 907.498,314.512 908.327,283.982 909.156,252.87 909.985,314.512 910.815,172.434 911.644,237.09 912.473,188.833 913.302,205.075 914.131,237.09 914.961,221.159 915.79,237.09 916.619,237.09 917.448,237.09 918.277,237.09 919.107,268.499 919.936,188.833 920.765,221.159 921.594,252.87 922.423,252.87 923.253,252.87 924.082,221.159 924.911,221.159 925.74,268.499 926.569,221.159 927.399,329.564 928.228,299.319 929.057,283.982 929.886,237.09 930.715,139.15 931.544,252.87 932.374,205.075 933.203,252.87 934.032,268.499 934.861,172.434 935.69,252.87 936.52,205.075 937.349,268.499 938.178,299.319 939.007,205.075 939.836,188.833 940.666,283.982 941.495,205.075 942.324,172.434 943.153,155.874 943.982,188.833 944.812,221.159 945.641,188.833 946.47,314.512 947.299,139.15 948.128,237.09 948.958,268.499 949.787,221.159 950.616,283.982 951.445,252.87 952.274,221.159 953.103,268.499 953.933,237.09 954.762,188.833 955.591,252.87 956.42,299.319 957.249,221.159 958.079,221.159 958.908,268.499 959.737,205.075 960.566,221.159 961.395,205.075 962.225,205.075 963.054,283.982 963.883,283.982 964.712,205.075 965.541,155.874 966.371,237.09 967.2,221.159 968.029,237.09 968.858,155.874 969.687,221.159 970.517,252.87 971.346,252.87 972.175,188.833 973.004,268.499 973.833,268.499 974.662,237.09 975.492,188.833 976.321,172.434 977.15,172.434 977.979,237.09 978.808,122.261 979.638,221.159 980.467,188.833 981.296,237.09 982.125,172.434 982.954,299.319 983.784,252.87 984.613,172.434 985.442,221.159 986.271,205.075 987.1,252.87 987.93,188.833 988.759,155.874 989.588,205.075 990.417,205.075 991.246,221.159 992.076,205.075 992.905,122.261 993.734,155.874 994.563,205.075 995.392,252.87 996.222,237.09 997.051,172.434 997.88,188.833 998.709,237.09 999.538,155.874 1000.37,221.159 1001.2,299.319 1002.03,221.159 1002.86,172.434 1003.68,268.499 1004.51,155.874 1005.34,252.87 1006.17,188.833 1007,172.434 1007.83,252.87 1008.66,155.874 1009.49,252.87 1010.32,252.87 1011.15,205.075 1011.98,237.09 1012.81,139.15 1013.63,268.499 1014.46,221.159 1015.29,237.09 1016.12,221.159 1016.95,221.159 1017.78,221.159 1018.61,188.833 1019.44,188.833 1020.27,172.434 1021.1,252.87 1021.93,221.159 1022.76,268.499 1023.58,299.319 1024.41,139.15 1025.24,172.434 1026.07,252.87 1026.9,155.874 1027.73,252.87 1028.56,155.874 1029.39,237.09 1030.22,188.833 1031.05,237.09 1031.88,237.09 1032.71,172.434 1033.54,188.833 1034.36,268.499 1035.19,188.833 1036.02,221.159 1036.85,221.159 1037.68,221.159 1038.51,221.159 1039.34,172.434 1040.17,122.261 1041,221.159 1041.83,155.874 1042.66,268.499 1043.49,188.833 1044.31,188.833 1045.14,188.833 1045.97,205.075 1046.8,221.159 1047.63,172.434 1048.46,139.15 1049.29,155.874 1050.12,155.874 1050.95,122.261 1051.78,221.159 1052.61,188.833 1053.44,188.833 1054.26,172.434 1055.09,172.434 1055.92,188.833 1056.75,172.434 1057.58,155.874 1058.41,268.499 1059.24,205.075 1060.07,237.09 1060.9,237.09 1061.73,172.434 1062.56,155.874 1063.39,283.982 1064.22,252.87 1065.04,172.434 1065.87,221.159 1066.7,205.075 1067.53,221.159 1068.36,205.075 1069.19,172.434 1070.02,122.261 1070.85,139.15 1071.68,172.434 1072.51,268.499 1073.34,139.15 1074.17,172.434 1074.99,221.159 1075.82,122.261 1076.65,139.15 1077.48,172.434 1078.31,172.434 1079.14,172.434 1079.97,172.434 1080.8,221.159 1081.63,221.159 1082.46,172.434 1083.29,172.434 1084.12,139.15 1084.95,105.204 1085.77,188.833 1086.6,122.261 1087.43,237.09 1088.26,205.075 1089.09,188.833 1089.92,155.874 1090.75,122.261 1091.58,188.833 1092.41,205.075 1093.24,172.434 1094.07,172.434 1094.9,205.075 1095.72,139.15 1096.55,205.075 1097.38,172.434 1098.21,155.874 1099.04,205.075 1099.87,205.075 1100.7,205.075 1101.53,155.874 1102.36,299.319 1103.19,205.075 1104.02,172.434 1104.85,268.499 1105.67,155.874 1106.5,237.09 1107.33,205.075 1108.16,252.87 1108.99,221.159 1109.82,299.319 1110.65,205.075 1111.48,188.833 1112.31,188.833 1113.14,188.833 1113.97,188.833 1114.8,155.874 1115.63,155.874 1116.45,155.874 1117.28,122.261 1118.11,188.833 1118.94,205.075 1119.77,205.075 1120.6,139.15 1121.43,299.319 1122.26,237.09 1123.09,268.499 1123.92,172.434 1124.75,237.09 1125.58,205.075 1126.4,188.833 1127.23,283.982 1128.06,205.075 1128.89,155.874 1129.72,205.075 1130.55,122.261 1131.38,155.874 1132.21,268.499 1133.04,188.833 1133.87,221.159 1134.7,172.434 1135.53,205.075 1136.36,155.874 1137.18,155.874 1138.01,299.319 1138.84,205.075 1139.67,237.09 1140.5,252.87 1141.33,188.833 1142.16,268.499 1142.99,172.434 1143.82,188.833 1144.65,221.159 1145.48,172.434 1146.31,237.09 1147.13,139.15 1147.96,139.15 1148.79,172.434 1149.62,252.87 1150.45,205.075 1151.28,283.982 1152.11,155.874 1152.94,139.15 1153.77,172.434 1154.6,172.434 1155.43,172.434 1156.26,221.159 1157.08,237.09 1157.91,172.434 1158.74,172.434 1159.57,221.159 1160.4,237.09 1161.23,172.434 1162.06,252.87 1162.89,221.159 1163.72,205.075 1164.55,188.833 1165.38,155.874 1166.21,205.075 1167.04,252.87 1167.86,188.833 1168.69,155.874 1169.52,205.075 1170.35,188.833 1171.18,172.434 1172.01,221.159 1172.84,268.499 1173.67,122.261 1174.5,237.09 1175.33,172.434 1176.16,172.434 1176.99,252.87 1177.81,237.09 1178.64,205.075 1179.47,188.833 1180.3,237.09 1181.13,188.833 1181.96,188.833 1182.79,172.434 1183.62,139.15 1184.45,252.87 1185.28,122.261 1186.11,188.833 1186.94,205.075 1187.77,205.075 1188.59,139.15 1189.42,155.874 1190.25,188.833 1191.08,205.075 1191.91,205.075 1192.74,155.874 1193.57,252.87 1194.4,205.075 1195.23,188.833 1196.06,172.434 1196.89,155.874 1197.72,172.434 1198.54,139.15 1199.37,205.075 1200.2,139.15 1201.03,172.434 1201.86,155.874 1202.69,172.434 1203.52,188.833 1204.35,122.261 1205.18,205.075 1206.01,188.833 1206.84,122.261 1207.67,188.833 1208.49,139.15 1209.32,188.833 1210.15,155.874 1210.98,205.075 1211.81,155.874 1212.64,172.434 1213.47,139.15 1214.3,122.261 1215.13,105.204 1215.96,252.87 1216.79,188.833 1217.62,105.204 1218.45,172.434 1219.27,172.434 1220.1,155.874 1220.93,172.434 1221.76,205.075 1222.59,188.833 1223.42,172.434 1224.25,155.874 1225.08,205.075 1225.91,205.075 1226.74,139.15 1227.57,221.159 1228.4,155.874 1229.22,188.833 1230.05,155.874 1230.88,221.159 1231.71,252.87 1232.54,122.261 1233.37,188.833 1234.2,205.075 1235.03,139.15 1235.86,205.075 1236.69,172.434 1237.52,172.434 1238.35,188.833 1239.17,155.874 1240,237.09 1240.83,155.874 1241.66,139.15 1242.49,221.159 1243.32,139.15 1244.15,172.434 1244.98,139.15 1245.81,139.15 1246.64,139.15 1247.47,188.833 1248.3,221.159 1249.13,283.982 1249.95,155.874 1250.78,122.261 1251.61,188.833 1252.44,188.833 1253.27,221.159 1254.1,155.874 1254.93,205.075 1255.76,205.075 1256.59,122.261 1257.42,205.075 1258.25,205.075 1259.08,122.261 1259.9,139.15 1260.73,205.075 1261.56,205.075 1262.39,122.261 1263.22,155.874 1264.05,172.434 1264.88,155.874 1265.71,188.833 1266.54,155.874 1267.37,188.833 1268.2,237.09 1269.03,221.159 1269.86,237.09 1270.68,139.15 1271.51,237.09 1272.34,188.833 1273.17,188.833 1274,139.15 1274.83,155.874 1275.66,139.15 1276.49,155.874 1277.32,172.434 1278.15,155.874 1278.98,155.874 1279.81,122.261 1280.63,155.874 1281.46,155.874 1282.29,205.075 1283.12,172.434 1283.95,205.075 1284.78,155.874 1285.61,122.261 1286.44,155.874 1287.27,172.434 1288.1,188.833 1288.93,139.15 1289.76,188.833 1290.58,188.833 1291.41,205.075 1292.24,155.874 1293.07,188.833 1293.9,205.075 1294.73,155.874 1295.56,172.434 1296.39,122.261 1297.22,155.874 1298.05,188.833 1298.88,205.075 1299.71,172.434 1300.54,139.15 1301.36,205.075 1302.19,122.261 1303.02,188.833 1303.85,172.434 1304.68,155.874 1305.51,172.434 1306.34,221.159 1307.17,205.075 1308,139.15 1308.83,139.15 1309.66,155.874 1310.49,188.833 1311.31,205.075 1312.14,172.434 1312.97,188.833 1313.8,205.075 1314.63,237.09 1315.46,221.159 1316.29,172.434 1317.12,139.15 1317.95,139.15 1318.78,205.075 1319.61,139.15 1320.44,172.434 1321.27,188.833 1322.09,139.15 1322.92,122.261 1323.75,221.159 1324.58,155.874 1325.41,188.833 1326.24,122.261 1327.07,188.833 1327.9,188.833 1328.73,172.434 1329.56,221.159 1330.39,105.204 1331.22,155.874 1332.04,139.15 1332.87,172.434 1333.7,188.833 1334.53,122.261 1335.36,172.434 1336.19,172.434 1337.02,237.09 1337.85,87.9763 1338.68,172.434 1339.51,188.833 1340.34,172.434 1341.17,205.075 1341.99,155.874 1342.82,122.261 1343.65,172.434 1344.48,188.833 1345.31,139.15 1346.14,205.075 1346.97,155.874 1347.8,221.159 1348.63,188.833 1349.46,139.15 1350.29,155.874 1351.12,172.434 1351.95,172.434 1352.77,172.434 1353.6,139.15 1354.43,155.874 1355.26,122.261 1356.09,139.15 1356.92,155.874 1357.75,155.874 1358.58,188.833 1359.41,122.261 1360.24,188.833 1361.07,188.833 1361.9,155.874 1362.72,205.075 1363.55,105.204 1364.38,188.833 1365.21,105.204 1366.04,172.434 1366.87,139.15 1367.7,172.434 1368.53,139.15 1369.36,188.833 1370.19,139.15 1371.02,155.874 1371.85,105.204 1372.67,139.15 1373.5,122.261 1374.33,172.434 1375.16,122.261 1375.99,122.261 1376.82,105.204 1377.65,105.204 1378.48,205.075 1379.31,139.15 1380.14,172.434 1380.97,172.434 1381.8,139.15 1382.63,155.874 1383.45,172.434 1384.28,221.159 1385.11,188.833 1385.94,105.204 1386.77,172.434 1387.6,105.204 1388.43,172.434 1389.26,122.261 1390.09,122.261 1390.92,155.874 1391.75,172.434 1392.58,105.204 1393.4,155.874 1394.23,139.15 1395.06,299.319 1395.89,155.874 1396.72,188.833 1397.55,155.874 1398.38,188.833 1399.21,105.204 1400.04,188.833 1400.87,155.874 1401.7,122.261 1402.53,139.15 1403.36,122.261 1404.18,139.15 1405.01,188.833 1405.84,155.874 1406.67,122.261 1407.5,155.874 1408.33,221.159 1409.16,155.874 1409.99,122.261 1410.82,155.874 1411.65,172.434 1412.48,122.261 1413.31,122.261 1414.13,122.261 1414.96,122.261 1415.79,122.261 1416.62,237.09 1417.45,155.874 1418.28,155.874 1419.11,139.15 1419.94,172.434 1420.77,139.15 1421.6,122.261 1422.43,155.874 1423.26,252.87 1424.08,122.261 1424.91,139.15 1425.74,221.159 1426.57,105.204 1427.4,188.833 1428.23,155.874 1429.06,139.15 1429.89,139.15 1430.72,155.874 1431.55,205.075 1432.38,188.833 1433.21,155.874 1434.04,155.874 1434.86,172.434 1435.69,188.833 1436.52,122.261 1437.35,172.434 1438.18,105.204 1439.01,205.075 1439.84,105.204 1440.67,188.833 1441.5,139.15 1442.33,155.874 1443.16,172.434 1443.99,139.15 1444.81,155.874 1445.64,105.204 1446.47,139.15 1447.3,155.874 1448.13,205.075 1448.96,172.434 1449.79,172.434 1450.62,122.261 1451.45,105.204 1452.28,172.434 1453.11,172.434 1453.94,139.15 1454.77,139.15 1455.59,139.15 1456.42,252.87 1457.25,139.15 1458.08,139.15 1458.91,155.874 1459.74,188.833 1460.57,188.833 1461.4,172.434 1462.23,172.434 1463.06,221.159 1463.89,172.434 1464.72,139.15 1465.54,139.15 1466.37,155.874 1467.2,172.434 1468.03,105.204 1468.86,139.15 1469.69,87.9763 1470.52,139.15 1471.35,188.833 1472.18,172.434 1473.01,87.9763 1473.84,155.874 1474.67,139.15 1475.49,139.15 1476.32,139.15 1477.15,268.499 1477.98,155.874 1478.81,122.261 1479.64,205.075 1480.47,155.874 1481.3,172.434 1482.13,221.159 1482.96,139.15 1483.79,155.874 1484.62,139.15 1485.45,139.15 1486.27,188.833 1487.1,139.15 1487.93,105.204 1488.76,122.261 1489.59,237.09 1490.42,122.261 1491.25,87.9763 1492.08,155.874 1492.91,155.874 1493.74,139.15 1494.57,139.15 1495.4,155.874 1496.22,87.9763 1497.05,139.15 1497.88,139.15 1498.71,268.499 1499.54,172.434 1500.37,172.434 1501.2,122.261 1502.03,155.874 1502.86,172.434 1503.69,105.204 1504.52,122.261 1505.35,105.204 1506.18,122.261 1507,139.15 1507.83,205.075 1508.66,122.261 1509.49,155.874 1510.32,188.833 1511.15,155.874 1511.98,122.261 1512.81,237.09 1513.64,172.434 1514.47,155.874 1515.3,139.15 1516.13,105.204 1516.95,122.261 1517.78,172.434 1518.61,188.833 1519.44,139.15 1520.27,155.874 1521.1,155.874 1521.93,205.075 1522.76,172.434 1523.59,155.874 1524.42,205.075 1525.25,172.434 1526.08,122.261 1526.9,172.434 1527.73,155.874 1528.56,172.434 1529.39,139.15 1530.22,139.15 1531.05,122.261 1531.88,188.833 1532.71,87.9763 1533.54,172.434 1534.37,188.833 1535.2,188.833 1536.03,105.204 1536.86,122.261 1537.68,139.15 1538.51,122.261 1539.34,205.075 1540.17,122.261 1541,139.15 1541.83,188.833 1542.66,172.434 1543.49,155.874 1544.32,155.874 1545.15,122.261 1545.98,122.261 1546.81,155.874 1547.63,205.075 1548.46,139.15 1549.29,139.15 1550.12,155.874 1550.95,139.15 1551.78,139.15 1552.61,122.261 1553.44,172.434 1554.27,172.434 1555.1,155.874 1555.93,139.15 1556.76,139.15 1557.58,155.874 1558.41,237.09 1559.24,87.9763 1560.07,155.874 1560.9,105.204 1561.73,122.261 1562.56,155.874 1563.39,139.15 1564.22,139.15 1565.05,188.833 1565.88,237.09 1566.71,188.833 1567.54,205.075 1568.36,105.204 1569.19,122.261 1570.02,122.261 1570.85,122.261 1571.68,155.874 1572.51,172.434 1573.34,87.9763 1574.17,172.434 1575,188.833 1575.83,188.833 1576.66,139.15 1577.49,122.261 1578.31,139.15 1579.14,155.874 1579.97,139.15 1580.8,139.15 1581.63,139.15 1582.46,105.204 1583.29,139.15 1584.12,155.874 1584.95,205.075 1585.78,105.204 1586.61,122.261 1587.44,155.874 1588.27,105.204 1589.09,87.9763 1589.92,105.204 1590.75,139.15 1591.58,139.15 1592.41,122.261 1593.24,237.09 1594.07,105.204 1594.9,122.261 1595.73,105.204 1596.56,139.15 1597.39,205.075 1598.22,87.9763 1599.04,122.261 1599.87,155.874 1600.7,105.204 1601.53,172.434 1602.36,139.15 1603.19,105.204 1604.02,155.874 1604.85,172.434 1605.68,172.434 1606.51,139.15 1607.34,105.204 1608.17,139.15 1608.99,205.075 1609.82,139.15 1610.65,172.434 1611.48,172.434 1612.31,205.075 1613.14,122.261 1613.97,155.874 1614.8,122.261 1615.63,139.15 1616.46,139.15 1617.29,155.874 1618.12,122.261 1618.95,155.874 1619.77,139.15 1620.6,122.261 1621.43,155.874 1622.26,172.434 1623.09,122.261 1623.92,105.204 1624.75,188.833 1625.58,139.15 1626.41,122.261 1627.24,155.874 1628.07,139.15 1628.9,105.204 1629.72,122.261 1630.55,122.261 1631.38,139.15 1632.21,105.204 1633.04,139.15 1633.87,105.204 1634.7,155.874 1635.53,155.874 1636.36,122.261 1637.19,155.874 1638.02,139.15 1638.85,205.075 1639.68,188.833 1640.5,139.15 1641.33,122.261 1642.16,139.15 1642.99,155.874 1643.82,172.434 1644.65,188.833 1645.48,105.204 1646.31,172.434 1647.14,172.434 1647.97,172.434 1648.8,155.874 1649.63,188.833 1650.45,139.15 1651.28,122.261 1652.11,172.434 1652.94,155.874 1653.77,172.434 1654.6,122.261 1655.43,172.434 1656.26,155.874 1657.09,155.874 1657.92,122.261 1658.75,122.261 1659.58,155.874 1660.4,139.15 1661.23,139.15 1662.06,188.833 1662.89,172.434 1663.72,87.9763 1664.55,172.434 1665.38,155.874 1666.21,122.261 1667.04,122.261 1667.87,105.204 1668.7,122.261 1669.53,122.261 1670.36,172.434 1671.18,155.874 1672.01,155.874 1672.84,155.874 1673.67,139.15 1674.5,87.9763 1675.33,122.261 1676.16,139.15 1676.99,155.874 1677.82,172.434 1678.65,188.833 1679.48,139.15 1680.31,155.874 1681.13,172.434 1681.96,172.434 1682.79,139.15 1683.62,139.15 1684.45,172.434 1685.28,155.874 1686.11,139.15 1686.94,172.434 1687.77,122.261 1688.6,172.434 1689.43,172.434 1690.26,188.833 1691.08,155.874 1691.91,172.434 1692.74,155.874 1693.57,87.9763 1694.4,221.159 1695.23,155.874 1696.06,155.874 1696.89,155.874 1697.72,205.075 1698.55,87.9763 1699.38,205.075 1700.21,268.499 1701.04,139.15 1701.86,139.15 1702.69,139.15 1703.52,155.874 1704.35,139.15 1705.18,139.15 1706.01,139.15 1706.84,139.15 1707.67,139.15 1708.5,172.434 1709.33,172.434 1710.16,172.434 1710.99,139.15 1711.81,139.15 1712.64,155.874 1713.47,188.833 1714.3,122.261 1715.13,139.15 1715.96,105.204 1716.79,188.833 1717.62,172.434 1718.45,155.874 1719.28,105.204 1720.11,139.15 1720.94,139.15 1721.77,139.15 1722.59,122.261 1723.42,105.204 1724.25,155.874 1725.08,155.874 1725.91,105.204 1726.74,155.874 1727.57,105.204 1728.4,188.833 1729.23,188.833 1730.06,139.15 1730.89,122.261 1731.72,122.261 1732.54,122.261 1733.37,155.874 1734.2,139.15 1735.03,155.874 1735.86,155.874 1736.69,155.874 1737.52,188.833 1738.35,155.874 1739.18,122.261 1740.01,139.15 1740.84,172.434 1741.67,122.261 1742.49,155.874 1743.32,122.261 1744.15,155.874 1744.98,172.434 1745.81,105.204 1746.64,188.833 1747.47,205.075 1748.3,155.874 1749.13,122.261 1749.96,122.261 1750.79,172.434 1751.62,139.15 1752.45,122.261 1753.27,105.204 1754.1,87.9763 1754.93,122.261 1755.76,172.434 1756.59,105.204 1757.42,122.261 1758.25,105.204 1759.08,172.434 1759.91,188.833 1760.74,205.075 1761.57,122.261 1762.4,139.15 1763.22,122.261 1764.05,87.9763 1764.88,139.15 1765.71,105.204 1766.54,172.434 1767.37,155.874 1768.2,105.204 1769.03,139.15 1769.86,105.204 1770.69,139.15 1771.52,172.434 1772.35,172.434 1773.18,139.15 1774,122.261 1774.83,172.434 1775.66,221.159 1776.49,155.874 1777.32,188.833 1778.15,122.261 1778.98,139.15 1779.81,122.261 1780.64,139.15 1781.47,139.15 1782.3,105.204 1783.13,105.204 1783.95,155.874 1784.78,105.204 1785.61,155.874 1786.44,122.261 1787.27,139.15 1788.1,105.204 1788.93,139.15 1789.76,155.874 1790.59,105.204 1791.42,221.159 1792.25,139.15 1793.08,105.204 1793.9,172.434 1794.73,122.261 1795.56,122.261 1796.39,155.874 1797.22,139.15 1798.05,87.9763 1798.88,122.261 1799.71,139.15 1800.54,155.874 1801.37,122.261 1802.2,139.15 1803.03,188.833 1803.86,139.15 1804.68,155.874 1805.51,122.261 1806.34,172.434 1807.17,122.261 1808,139.15 1808.83,139.15 1809.66,105.204 1810.49,122.261 1811.32,122.261 1812.15,105.204 1812.98,172.434 1813.81,122.261 1814.63,87.9763 1815.46,139.15 1816.29,122.261 1817.12,87.9763 1817.95,122.261 1818.78,188.833 1819.61,172.434 1820.44,139.15 1821.27,172.434 1822.1,172.434 1822.93,155.874 1823.76,139.15 1824.59,205.075 1825.41,122.261 1826.24,188.833 1827.07,122.261 1827.9,122.261 1828.73,205.075 1829.56,155.874 1830.39,122.261 1831.22,205.075 1832.05,155.874 1832.88,237.09 1833.71,172.434 1834.54,105.204 1835.36,105.204 1836.19,205.075 1837.02,87.9763 1837.85,155.874 1838.68,105.204 1839.51,155.874 1840.34,205.075 1841.17,122.261 1842,155.874 1842.83,155.874 1843.66,105.204 1844.49,172.434 1845.31,139.15 1846.14,139.15 1846.97,122.261 1847.8,139.15 1848.63,122.261 1849.46,122.261 1850.29,155.874 1851.12,139.15 1851.95,237.09 1852.78,139.15 1853.61,172.434 1854.44,122.261 1855.27,155.874 1856.09,122.261 1856.92,122.261 1857.75,122.261 1858.58,87.9763 1859.41,155.874 1860.24,139.15 1861.07,188.833 1861.9,155.874 1862.73,139.15 1863.56,122.261 1864.39,122.261 1865.22,105.204 1866.04,188.833 1866.87,205.075 1867.7,155.874 1868.53,155.874 1869.36,122.261 1870.19,105.204 1871.02,155.874 1871.85,139.15 1872.68,155.874 1873.51,155.874 1874.34,122.261 1875.17,105.204 1875.99,155.874 1876.82,155.874 1877.65,205.075 1878.48,122.261 1879.31,139.15 1880.14,122.261 1880.97,155.874 1881.8,105.204 1882.63,122.261 1883.46,188.833 1884.29,139.15 1885.12,172.434 1885.95,139.15 1886.77,188.833 1887.6,155.874 1888.43,188.833 1889.26,172.434 1890.09,105.204 1890.92,139.15 1891.75,122.261 1892.58,139.15 1893.41,155.874 1894.24,155.874 1895.07,172.434 1895.9,155.874 1896.72,87.9763 1897.55,172.434 1898.38,122.261 1899.21,172.434 1900.04,122.261 1900.87,172.434 1901.7,122.261 1902.53,87.9763 1903.36,172.434 1904.19,122.261 1905.02,155.874 1905.85,139.15 1906.68,155.874 1907.5,122.261 1908.33,155.874 1909.16,122.261 1909.99,87.9763 1910.82,139.15 1911.65,188.833 1912.48,139.15 1913.31,122.261 1914.14,139.15 1914.97,155.874 1915.8,139.15 1916.63,105.204 1917.45,188.833 1918.28,105.204 1919.11,105.204 1919.94,139.15 1920.77,205.075 1921.6,105.204 1922.43,139.15 1923.26,139.15 1924.09,188.833 1924.92,139.15 1925.75,122.261 1926.58,122.261 1927.4,205.075 1928.23,105.204 1929.06,105.204 1929.89,155.874 1930.72,139.15 1931.55,188.833 1932.38,105.204 1933.21,87.9763 1934.04,122.261 1934.87,122.261 1935.7,172.434 1936.53,139.15 1937.36,139.15 1938.18,188.833 1939.01,155.874 1939.84,139.15 1940.67,155.874 1941.5,122.261 1942.33,172.434 1943.16,188.833 1943.99,172.434 1944.82,105.204 1945.65,172.434 1946.48,139.15 1947.31,139.15 1948.13,139.15 1948.96,105.204 1949.79,122.261 1950.62,139.15 1951.45,122.261 1952.28,188.833 1953.11,122.261 1953.94,172.434 1954.77,122.261 1955.6,155.874 1956.43,122.261 1957.26,87.9763 1958.09,139.15 1958.91,122.261 1959.74,105.204 1960.57,172.434 1961.4,105.204 1962.23,172.434 1963.06,139.15 1963.89,122.261 1964.72,155.874 1965.55,87.9763 1966.38,105.204 1967.21,122.261 1968.04,139.15 1968.86,122.261 1969.69,105.204 1970.52,122.261 1971.35,139.15 1972.18,155.874 1973.01,87.9763 1973.84,105.204 1974.67,172.434 1975.5,139.15 1976.33,139.15 1977.16,139.15 1977.99,155.874 1978.81,122.261 1979.64,139.15 1980.47,188.833 1981.3,105.204 1982.13,188.833 1982.96,139.15 1983.79,155.874 1984.62,155.874 1985.45,172.434 1986.28,188.833 1987.11,188.833 1987.94,105.204 1988.77,122.261 1989.59,122.261 1990.42,155.874 1991.25,155.874 1992.08,155.874 1992.91,155.874 1993.74,139.15 1994.57,172.434 1995.4,155.874 1996.23,122.261 1997.06,139.15 1997.89,139.15 1998.72,122.261 1999.54,172.434 2000.37,139.15 2001.2,122.261 2002.03,122.261 2002.86,155.874 2003.69,87.9763 2004.52,155.874 2005.35,122.261 2006.18,122.261 2007.01,122.261 2007.84,155.874 2008.67,155.874 2009.49,155.874 2010.32,155.874 2011.15,105.204 2011.98,188.833 2012.81,172.434 2013.64,122.261 2014.47,122.261 2015.3,155.874 2016.13,155.874 2016.96,155.874 2017.79,122.261 2018.62,155.874 2019.45,105.204 2020.27,155.874 2021.1,205.075 2021.93,139.15 2022.76,105.204 2023.59,122.261 2024.42,205.075 2025.25,139.15 2026.08,105.204 2026.91,172.434 2027.74,122.261 2028.57,105.204 2029.4,105.204 2030.22,122.261 2031.05,122.261 2031.88,155.874 2032.71,105.204 2033.54,122.261 2034.37,122.261 2035.2,172.434 2036.03,122.261 2036.86,105.204 2037.69,155.874 2038.52,172.434 2039.35,155.874 2040.18,155.874 2041,155.874 2041.83,155.874 2042.66,105.204 2043.49,122.261 2044.32,122.261 2045.15,205.075 2045.98,122.261 2046.81,139.15 2047.64,205.075 2048.47,105.204 2049.3,105.204 2050.13,122.261 2050.95,87.9763 2051.78,172.434 2052.61,87.9763 2053.44,87.9763 2054.27,155.874 2055.1,122.261 2055.93,188.833 2056.76,122.261 2057.59,172.434 2058.42,172.434 2059.25,155.874 2060.08,155.874 2060.9,139.15 2061.73,155.874 2062.56,105.204 2063.39,139.15 2064.22,172.434 2065.05,188.833 2065.88,105.204 2066.71,122.261 2067.54,155.874 2068.37,122.261 2069.2,139.15 2070.03,122.261 2070.86,105.204 2071.68,139.15 2072.51,105.204 2073.34,122.261 2074.17,122.261 2075,155.874 2075.83,139.15 2076.66,139.15 2077.49,122.261 2078.32,172.434 2079.15,139.15 2079.98,122.261 2080.81,155.874 2081.63,105.204 2082.46,105.204 2083.29,155.874 2084.12,105.204 2084.95,105.204 2085.78,122.261 2086.61,188.833 2087.44,105.204 2088.27,188.833 2089.1,105.204 2089.93,105.204 2090.76,139.15 2091.59,122.261 2092.41,105.204 2093.24,139.15 2094.07,122.261 2094.9,122.261 2095.73,155.874 2096.56,122.261 2097.39,155.874 2098.22,105.204 2099.05,139.15 2099.88,122.261 2100.71,139.15 2101.54,155.874 2102.36,122.261 2103.19,105.204 2104.02,122.261 2104.85,139.15 2105.68,139.15 2106.51,172.434 2107.34,188.833 2108.17,172.434 2109,139.15 2109.83,105.204 2110.66,155.874 2111.49,188.833 2112.31,105.204 2113.14,139.15 2113.97,122.261 2114.8,105.204 2115.63,105.204 2116.46,139.15 2117.29,105.204 2118.12,155.874 2118.95,172.434 2119.78,139.15 2120.61,122.261 2121.44,122.261 2122.27,221.159 2123.09,155.874 2123.92,139.15 2124.75,139.15 2125.58,155.874 2126.41,139.15 2127.24,155.874 2128.07,122.261 2128.9,205.075 2129.73,122.261 2130.56,139.15 2131.39,172.434 2132.22,105.204 2133.04,122.261 2133.87,172.434 2134.7,105.204 2135.53,155.874 2136.36,139.15 2137.19,155.874 2138.02,139.15 2138.85,122.261 2139.68,122.261 2140.51,172.434 2141.34,122.261 2142.17,122.261 2143,122.261 2143.82,155.874 2144.65,155.874 2145.48,105.204 2146.31,188.833 2147.14,122.261 2147.97,172.434 2148.8,139.15 2149.63,105.204 2150.46,87.9763 2151.29,122.261 2152.12,105.204 2152.95,139.15 2153.77,155.874 2154.6,105.204 2155.43,155.874 2156.26,139.15 2157.09,87.9763 2157.92,139.15 2158.75,155.874 2159.58,122.261 2160.41,105.204 2161.24,139.15 2162.07,139.15 2162.9,139.15 2163.72,155.874 2164.55,87.9763 2165.38,155.874 2166.21,122.261 2167.04,155.874 2167.87,188.833 2168.7,139.15 2169.53,105.204 2170.36,139.15 2171.19,105.204 2172.02,155.874 2172.85,105.204 2173.68,122.261 2174.5,122.261 2175.33,155.874 2176.16,139.15 2176.99,122.261 2177.82,172.434 2178.65,122.261 2179.48,155.874 2180.31,87.9763 2181.14,139.15 2181.97,155.874 2182.8,87.9763 2183.63,87.9763 2184.45,155.874 2185.28,139.15 2186.11,122.261 2186.94,139.15 2187.77,139.15 2188.6,105.204 2189.43,139.15 2190.26,105.204 2191.09,122.261 2191.92,139.15 2192.75,155.874 2193.58,122.261 2194.4,105.204 2195.23,122.261 2196.06,122.261 2196.89,87.9763 2197.72,122.261 2198.55,87.9763 2199.38,122.261 2200.21,105.204 2201.04,122.261 2201.87,105.204 2202.7,122.261 2203.53,105.204 2204.36,122.261 2205.18,155.874 2206.01,139.15 2206.84,172.434 2207.67,122.261 2208.5,105.204 2209.33,122.261 2210.16,105.204 2210.99,122.261 2211.82,139.15 2212.65,139.15 2213.48,105.204 2214.31,139.15 2215.13,122.261 2215.96,105.204 2216.79,139.15 2217.62,139.15 2218.45,105.204 2219.28,155.874 2220.11,87.9763 2220.94,188.833 2221.77,139.15 2222.6,172.434 2223.43,105.204 2224.26,139.15 2225.09,172.434 2225.91,172.434 2226.74,87.9763 2227.57,105.204 2228.4,122.261 2229.23,188.833 2230.06,105.204 2230.89,155.874 2231.72,155.874 2232.55,122.261 2233.38,87.9763 2234.21,122.261 2235.04,122.261 2235.86,188.833 2236.69,122.261 2237.52,139.15 2238.35,105.204 2239.18,155.874 2240.01,172.434 2240.84,87.9763 2241.67,155.874 2242.5,188.833 2243.33,122.261 2244.16,139.15 2244.99,122.261 2245.81,139.15 2246.64,139.15 2247.47,105.204 2248.3,139.15 2249.13,87.9763 2249.96,172.434 2250.79,122.261 2251.62,155.874 2252.45,205.075 2253.28,155.874 2254.11,122.261 2254.94,105.204 2255.77,139.15 2256.59,105.204 2257.42,105.204 2258.25,155.874 2259.08,87.9763 2259.91,122.261 2260.74,105.204 2261.57,139.15 2262.4,122.261 2263.23,122.261 2264.06,122.261 2264.89,122.261 2265.72,122.261 2266.54,139.15 2267.37,122.261 2268.2,155.874 2269.03,122.261 2269.86,87.9763 2270.69,139.15 2271.52,122.261 2272.35,155.874 2273.18,122.261 2274.01,139.15 2274.84,155.874 2275.67,122.261 2276.5,105.204 2277.32,172.434 2278.15,268.499 2278.98,122.261 2279.81,155.874 2280.64,105.204 2281.47,105.204 2282.3,105.204 2283.13,172.434 2283.96,87.9763 2284.79,155.874 2285.62,122.261 2286.45,172.434 2287.27,122.261 2288.1,155.874 2288.93,139.15 2289.76,122.261 2290.59,122.261 "/>
<path clip-path="url(#clip930)" d="M2007.46 1438.47 L2279.54 1438.47 L2279.54 1334.79 L2007.46 1334.79  Z" fill="#ffffff" fill-rule="evenodd" fill-opacity="1"/>
<polyline clip-path="url(#clip930)" style="stroke:#000000; stroke-linecap:round; stroke-linejoin:round; stroke-width:4; stroke-opacity:1; fill:none" points="2007.46,1438.47 2279.54,1438.47 2279.54,1334.79 2007.46,1334.79 2007.46,1438.47 "/>
<polyline clip-path="url(#clip930)" style="stroke:#009af9; stroke-linecap:round; stroke-linejoin:round; stroke-width:4; stroke-opacity:1; fill:none" points="2031.87,1386.63 2178.3,1386.63 "/>
<path clip-path="url(#clip930)" d="M2216.55 1406.32 Q2214.74 1410.95 2213.03 1412.36 Q2211.32 1413.78 2208.44 1413.78 L2205.04 1413.78 L2205.04 1410.21 L2207.54 1410.21 Q2209.3 1410.21 2210.27 1409.38 Q2211.25 1408.54 2212.43 1405.44 L2213.19 1403.5 L2202.7 1377.99 L2207.22 1377.99 L2215.32 1398.27 L2223.42 1377.99 L2227.94 1377.99 L2216.55 1406.32 Z" fill="#000000" fill-rule="nonzero" fill-opacity="1" /><path clip-path="url(#clip930)" d="M2235.23 1399.98 L2242.87 1399.98 L2242.87 1373.61 L2234.56 1375.28 L2234.56 1371.02 L2242.82 1369.35 L2247.5 1369.35 L2247.5 1399.98 L2255.13 1399.98 L2255.13 1403.91 L2235.23 1403.91 L2235.23 1399.98 Z" fill="#000000" fill-rule="nonzero" fill-opacity="1" /></svg>
