<?xml version="1.0" encoding="utf-8"?>
<svg xmlns="http://www.w3.org/2000/svg" xmlns:xlink="http://www.w3.org/1999/xlink" width="600" height="400" viewBox="0 0 2400 1600">
<defs>
  <clipPath id="clip340">
    <rect x="0" y="0" width="2400" height="1600"/>
  </clipPath>
</defs>
<path clip-path="url(#clip340)" d="M0 1600 L2400 1600 L2400 0 L0 0  Z" fill="#ffffff" fill-rule="evenodd" fill-opacity="1"/>
<defs>
  <clipPath id="clip341">
    <rect x="480" y="0" width="1681" height="1600"/>
  </clipPath>
</defs>
<path clip-path="url(#clip340)" d="M156.02 1486.45 L2352.76 1486.45 L2352.76 47.2441 L156.02 47.2441  Z" fill="#ffffff" fill-rule="evenodd" fill-opacity="1"/>
<defs>
  <clipPath id="clip342">
    <rect x="156" y="47" width="2198" height="1440"/>
  </clipPath>
</defs>
<polyline clip-path="url(#clip342)" style="stroke:#000000; stroke-linecap:round; stroke-linejoin:round; stroke-width:2; stroke-opacity:0.1; fill:none" points="218.191,1486.45 218.191,47.2441 "/>
<polyline clip-path="url(#clip342)" style="stroke:#000000; stroke-linecap:round; stroke-linejoin:round; stroke-width:2; stroke-opacity:0.1; fill:none" points="632.836,1486.45 632.836,47.2441 "/>
<polyline clip-path="url(#clip342)" style="stroke:#000000; stroke-linecap:round; stroke-linejoin:round; stroke-width:2; stroke-opacity:0.1; fill:none" points="1047.48,1486.45 1047.48,47.2441 "/>
<polyline clip-path="url(#clip342)" style="stroke:#000000; stroke-linecap:round; stroke-linejoin:round; stroke-width:2; stroke-opacity:0.1; fill:none" points="1462.12,1486.45 1462.12,47.2441 "/>
<polyline clip-path="url(#clip342)" style="stroke:#000000; stroke-linecap:round; stroke-linejoin:round; stroke-width:2; stroke-opacity:0.1; fill:none" points="1876.77,1486.45 1876.77,47.2441 "/>
<polyline clip-path="url(#clip342)" style="stroke:#000000; stroke-linecap:round; stroke-linejoin:round; stroke-width:2; stroke-opacity:0.1; fill:none" points="2291.41,1486.45 2291.41,47.2441 "/>
<polyline clip-path="url(#clip340)" style="stroke:#000000; stroke-linecap:round; stroke-linejoin:round; stroke-width:4; stroke-opacity:1; fill:none" points="156.02,1486.45 2352.76,1486.45 "/>
<polyline clip-path="url(#clip340)" style="stroke:#000000; stroke-linecap:round; stroke-linejoin:round; stroke-width:4; stroke-opacity:1; fill:none" points="218.191,1486.45 218.191,1467.55 "/>
<polyline clip-path="url(#clip340)" style="stroke:#000000; stroke-linecap:round; stroke-linejoin:round; stroke-width:4; stroke-opacity:1; fill:none" points="632.836,1486.45 632.836,1467.55 "/>
<polyline clip-path="url(#clip340)" style="stroke:#000000; stroke-linecap:round; stroke-linejoin:round; stroke-width:4; stroke-opacity:1; fill:none" points="1047.48,1486.45 1047.48,1467.55 "/>
<polyline clip-path="url(#clip340)" style="stroke:#000000; stroke-linecap:round; stroke-linejoin:round; stroke-width:4; stroke-opacity:1; fill:none" points="1462.12,1486.45 1462.12,1467.55 "/>
<polyline clip-path="url(#clip340)" style="stroke:#000000; stroke-linecap:round; stroke-linejoin:round; stroke-width:4; stroke-opacity:1; fill:none" points="1876.77,1486.45 1876.77,1467.55 "/>
<polyline clip-path="url(#clip340)" style="stroke:#000000; stroke-linecap:round; stroke-linejoin:round; stroke-width:4; stroke-opacity:1; fill:none" points="2291.41,1486.45 2291.41,1467.55 "/>
<path clip-path="url(#clip340)" d="M218.191 1517.37 Q214.58 1517.37 212.752 1520.93 Q210.946 1524.47 210.946 1531.6 Q210.946 1538.71 212.752 1542.27 Q214.58 1545.82 218.191 1545.82 Q221.826 1545.82 223.631 1542.27 Q225.46 1538.71 225.46 1531.6 Q225.46 1524.47 223.631 1520.93 Q221.826 1517.37 218.191 1517.37 M218.191 1513.66 Q224.001 1513.66 227.057 1518.27 Q230.136 1522.85 230.136 1531.6 Q230.136 1540.33 227.057 1544.94 Q224.001 1549.52 218.191 1549.52 Q212.381 1549.52 209.302 1544.94 Q206.247 1540.33 206.247 1531.6 Q206.247 1522.85 209.302 1518.27 Q212.381 1513.66 218.191 1513.66 Z" fill="#000000" fill-rule="nonzero" fill-opacity="1" /><path clip-path="url(#clip340)" d="M592.454 1514.29 L610.81 1514.29 L610.81 1518.22 L596.736 1518.22 L596.736 1526.7 Q597.755 1526.35 598.773 1526.19 Q599.792 1526 600.81 1526 Q606.597 1526 609.977 1529.17 Q613.357 1532.34 613.357 1537.76 Q613.357 1543.34 609.884 1546.44 Q606.412 1549.52 600.093 1549.52 Q597.917 1549.52 595.648 1549.15 Q593.403 1548.78 590.996 1548.04 L590.996 1543.34 Q593.079 1544.47 595.301 1545.03 Q597.523 1545.58 600 1545.58 Q604.005 1545.58 606.343 1543.48 Q608.681 1541.37 608.681 1537.76 Q608.681 1534.15 606.343 1532.04 Q604.005 1529.94 600 1529.94 Q598.125 1529.94 596.25 1530.35 Q594.398 1530.77 592.454 1531.65 L592.454 1514.29 Z" fill="#000000" fill-rule="nonzero" fill-opacity="1" /><path clip-path="url(#clip340)" d="M632.57 1517.37 Q628.958 1517.37 627.13 1520.93 Q625.324 1524.47 625.324 1531.6 Q625.324 1538.71 627.13 1542.27 Q628.958 1545.82 632.57 1545.82 Q636.204 1545.82 638.009 1542.27 Q639.838 1538.71 639.838 1531.6 Q639.838 1524.47 638.009 1520.93 Q636.204 1517.37 632.57 1517.37 M632.57 1513.66 Q638.38 1513.66 641.435 1518.27 Q644.514 1522.85 644.514 1531.6 Q644.514 1540.33 641.435 1544.94 Q638.38 1549.52 632.57 1549.52 Q626.759 1549.52 623.681 1544.94 Q620.625 1540.33 620.625 1531.6 Q620.625 1522.85 623.681 1518.27 Q626.759 1513.66 632.57 1513.66 Z" fill="#000000" fill-rule="nonzero" fill-opacity="1" /><path clip-path="url(#clip340)" d="M662.731 1517.37 Q659.12 1517.37 657.292 1520.93 Q655.486 1524.47 655.486 1531.6 Q655.486 1538.71 657.292 1542.27 Q659.12 1545.82 662.731 1545.82 Q666.366 1545.82 668.171 1542.27 Q670 1538.71 670 1531.6 Q670 1524.47 668.171 1520.93 Q666.366 1517.37 662.731 1517.37 M662.731 1513.66 Q668.542 1513.66 671.597 1518.27 Q674.676 1522.85 674.676 1531.6 Q674.676 1540.33 671.597 1544.94 Q668.542 1549.52 662.731 1549.52 Q656.921 1549.52 653.843 1544.94 Q650.787 1540.33 650.787 1531.6 Q650.787 1522.85 653.843 1518.27 Q656.921 1513.66 662.731 1513.66 Z" fill="#000000" fill-rule="nonzero" fill-opacity="1" /><path clip-path="url(#clip340)" d="M992.006 1544.91 L999.645 1544.91 L999.645 1518.55 L991.335 1520.21 L991.335 1515.95 L999.598 1514.29 L1004.27 1514.29 L1004.27 1544.91 L1011.91 1544.91 L1011.91 1548.85 L992.006 1548.85 L992.006 1544.91 Z" fill="#000000" fill-rule="nonzero" fill-opacity="1" /><path clip-path="url(#clip340)" d="M1031.36 1517.37 Q1027.75 1517.37 1025.92 1520.93 Q1024.11 1524.47 1024.11 1531.6 Q1024.11 1538.71 1025.92 1542.27 Q1027.75 1545.82 1031.36 1545.82 Q1034.99 1545.82 1036.8 1542.27 Q1038.63 1538.71 1038.63 1531.6 Q1038.63 1524.47 1036.8 1520.93 Q1034.99 1517.37 1031.36 1517.37 M1031.36 1513.66 Q1037.17 1513.66 1040.22 1518.27 Q1043.3 1522.85 1043.3 1531.6 Q1043.3 1540.33 1040.22 1544.94 Q1037.17 1549.52 1031.36 1549.52 Q1025.55 1549.52 1022.47 1544.94 Q1019.41 1540.33 1019.41 1531.6 Q1019.41 1522.85 1022.47 1518.27 Q1025.55 1513.66 1031.36 1513.66 Z" fill="#000000" fill-rule="nonzero" fill-opacity="1" /><path clip-path="url(#clip340)" d="M1061.52 1517.37 Q1057.91 1517.37 1056.08 1520.93 Q1054.27 1524.47 1054.27 1531.6 Q1054.27 1538.71 1056.08 1542.27 Q1057.91 1545.82 1061.52 1545.82 Q1065.15 1545.82 1066.96 1542.27 Q1068.79 1538.71 1068.79 1531.6 Q1068.79 1524.47 1066.96 1520.93 Q1065.15 1517.37 1061.52 1517.37 M1061.52 1513.66 Q1067.33 1513.66 1070.39 1518.27 Q1073.46 1522.85 1073.46 1531.6 Q1073.46 1540.33 1070.39 1544.94 Q1067.33 1549.52 1061.52 1549.52 Q1055.71 1549.52 1052.63 1544.94 Q1049.58 1540.33 1049.58 1531.6 Q1049.58 1522.85 1052.63 1518.27 Q1055.71 1513.66 1061.52 1513.66 Z" fill="#000000" fill-rule="nonzero" fill-opacity="1" /><path clip-path="url(#clip340)" d="M1091.68 1517.37 Q1088.07 1517.37 1086.24 1520.93 Q1084.44 1524.47 1084.44 1531.6 Q1084.44 1538.71 1086.24 1542.27 Q1088.07 1545.82 1091.68 1545.82 Q1095.32 1545.82 1097.12 1542.27 Q1098.95 1538.71 1098.95 1531.6 Q1098.95 1524.47 1097.12 1520.93 Q1095.32 1517.37 1091.68 1517.37 M1091.68 1513.66 Q1097.49 1513.66 1100.55 1518.27 Q1103.63 1522.85 1103.63 1531.6 Q1103.63 1540.33 1100.55 1544.94 Q1097.49 1549.52 1091.68 1549.52 Q1085.87 1549.52 1082.79 1544.94 Q1079.74 1540.33 1079.74 1531.6 Q1079.74 1522.85 1082.79 1518.27 Q1085.87 1513.66 1091.68 1513.66 Z" fill="#000000" fill-rule="nonzero" fill-opacity="1" /><path clip-path="url(#clip340)" d="M1406.65 1544.91 L1414.29 1544.91 L1414.29 1518.55 L1405.98 1520.21 L1405.98 1515.95 L1414.24 1514.29 L1418.92 1514.29 L1418.92 1544.91 L1426.56 1544.91 L1426.56 1548.85 L1406.65 1548.85 L1406.65 1544.91 Z" fill="#000000" fill-rule="nonzero" fill-opacity="1" /><path clip-path="url(#clip340)" d="M1436.05 1514.29 L1454.4 1514.29 L1454.4 1518.22 L1440.33 1518.22 L1440.33 1526.7 Q1441.35 1526.35 1442.37 1526.19 Q1443.39 1526 1444.4 1526 Q1450.19 1526 1453.57 1529.17 Q1456.95 1532.34 1456.95 1537.76 Q1456.95 1543.34 1453.48 1546.44 Q1450.01 1549.52 1443.69 1549.52 Q1441.51 1549.52 1439.24 1549.15 Q1437 1548.78 1434.59 1548.04 L1434.59 1543.34 Q1436.67 1544.47 1438.9 1545.03 Q1441.12 1545.58 1443.59 1545.58 Q1447.6 1545.58 1449.94 1543.48 Q1452.28 1541.37 1452.28 1537.76 Q1452.28 1534.15 1449.94 1532.04 Q1447.6 1529.94 1443.59 1529.94 Q1441.72 1529.94 1439.84 1530.35 Q1437.99 1530.77 1436.05 1531.65 L1436.05 1514.29 Z" fill="#000000" fill-rule="nonzero" fill-opacity="1" /><path clip-path="url(#clip340)" d="M1476.16 1517.37 Q1472.55 1517.37 1470.72 1520.93 Q1468.92 1524.47 1468.92 1531.6 Q1468.92 1538.71 1470.72 1542.27 Q1472.55 1545.82 1476.16 1545.82 Q1479.8 1545.82 1481.6 1542.27 Q1483.43 1538.71 1483.43 1531.6 Q1483.43 1524.47 1481.6 1520.93 Q1479.8 1517.37 1476.16 1517.37 M1476.16 1513.66 Q1481.97 1513.66 1485.03 1518.27 Q1488.11 1522.85 1488.11 1531.6 Q1488.11 1540.33 1485.03 1544.94 Q1481.97 1549.52 1476.16 1549.52 Q1470.35 1549.52 1467.28 1544.94 Q1464.22 1540.33 1464.22 1531.6 Q1464.22 1522.85 1467.28 1518.27 Q1470.35 1513.66 1476.16 1513.66 Z" fill="#000000" fill-rule="nonzero" fill-opacity="1" /><path clip-path="url(#clip340)" d="M1506.33 1517.37 Q1502.71 1517.37 1500.89 1520.93 Q1499.08 1524.47 1499.08 1531.6 Q1499.08 1538.71 1500.89 1542.27 Q1502.71 1545.82 1506.33 1545.82 Q1509.96 1545.82 1511.77 1542.27 Q1513.59 1538.71 1513.59 1531.6 Q1513.59 1524.47 1511.77 1520.93 Q1509.96 1517.37 1506.33 1517.37 M1506.33 1513.66 Q1512.14 1513.66 1515.19 1518.27 Q1518.27 1522.85 1518.27 1531.6 Q1518.27 1540.33 1515.19 1544.94 Q1512.14 1549.52 1506.33 1549.52 Q1500.52 1549.52 1497.44 1544.94 Q1494.38 1540.33 1494.38 1531.6 Q1494.38 1522.85 1497.44 1518.27 Q1500.52 1513.66 1506.33 1513.66 Z" fill="#000000" fill-rule="nonzero" fill-opacity="1" /><path clip-path="url(#clip340)" d="M1825.38 1544.91 L1841.7 1544.91 L1841.7 1548.85 L1819.76 1548.85 L1819.76 1544.91 Q1822.42 1542.16 1827 1537.53 Q1831.61 1532.88 1832.79 1531.53 Q1835.03 1529.01 1835.91 1527.27 Q1836.82 1525.51 1836.82 1523.82 Q1836.82 1521.07 1834.87 1519.33 Q1832.95 1517.6 1829.85 1517.6 Q1827.65 1517.6 1825.2 1518.36 Q1822.76 1519.13 1819.99 1520.68 L1819.99 1515.95 Q1822.81 1514.82 1825.26 1514.24 Q1827.72 1513.66 1829.76 1513.66 Q1835.13 1513.66 1838.32 1516.35 Q1841.51 1519.03 1841.51 1523.52 Q1841.51 1525.65 1840.7 1527.57 Q1839.92 1529.47 1837.81 1532.07 Q1837.23 1532.74 1834.13 1535.95 Q1831.03 1539.15 1825.38 1544.91 Z" fill="#000000" fill-rule="nonzero" fill-opacity="1" /><path clip-path="url(#clip340)" d="M1861.51 1517.37 Q1857.9 1517.37 1856.07 1520.93 Q1854.27 1524.47 1854.27 1531.6 Q1854.27 1538.71 1856.07 1542.27 Q1857.9 1545.82 1861.51 1545.82 Q1865.15 1545.82 1866.95 1542.27 Q1868.78 1538.71 1868.78 1531.6 Q1868.78 1524.47 1866.95 1520.93 Q1865.15 1517.37 1861.51 1517.37 M1861.51 1513.66 Q1867.32 1513.66 1870.38 1518.27 Q1873.46 1522.85 1873.46 1531.6 Q1873.46 1540.33 1870.38 1544.94 Q1867.32 1549.52 1861.51 1549.52 Q1855.7 1549.52 1852.63 1544.94 Q1849.57 1540.33 1849.57 1531.6 Q1849.57 1522.85 1852.63 1518.27 Q1855.7 1513.66 1861.51 1513.66 Z" fill="#000000" fill-rule="nonzero" fill-opacity="1" /><path clip-path="url(#clip340)" d="M1891.68 1517.37 Q1888.07 1517.37 1886.24 1520.93 Q1884.43 1524.47 1884.43 1531.6 Q1884.43 1538.71 1886.24 1542.27 Q1888.07 1545.82 1891.68 1545.82 Q1895.31 1545.82 1897.12 1542.27 Q1898.94 1538.71 1898.94 1531.6 Q1898.94 1524.47 1897.12 1520.93 Q1895.31 1517.37 1891.68 1517.37 M1891.68 1513.66 Q1897.49 1513.66 1900.54 1518.27 Q1903.62 1522.85 1903.62 1531.6 Q1903.62 1540.33 1900.54 1544.94 Q1897.49 1549.52 1891.68 1549.52 Q1885.87 1549.52 1882.79 1544.94 Q1879.73 1540.33 1879.73 1531.6 Q1879.73 1522.85 1882.79 1518.27 Q1885.87 1513.66 1891.68 1513.66 Z" fill="#000000" fill-rule="nonzero" fill-opacity="1" /><path clip-path="url(#clip340)" d="M1921.84 1517.37 Q1918.23 1517.37 1916.4 1520.93 Q1914.59 1524.47 1914.59 1531.6 Q1914.59 1538.71 1916.4 1542.27 Q1918.23 1545.82 1921.84 1545.82 Q1925.47 1545.82 1927.28 1542.27 Q1929.11 1538.71 1929.11 1531.6 Q1929.11 1524.47 1927.28 1520.93 Q1925.47 1517.37 1921.84 1517.37 M1921.84 1513.66 Q1927.65 1513.66 1930.7 1518.27 Q1933.78 1522.85 1933.78 1531.6 Q1933.78 1540.33 1930.7 1544.94 Q1927.65 1549.52 1921.84 1549.52 Q1916.03 1549.52 1912.95 1544.94 Q1909.89 1540.33 1909.89 1531.6 Q1909.89 1522.85 1912.95 1518.27 Q1916.03 1513.66 1921.84 1513.66 Z" fill="#000000" fill-rule="nonzero" fill-opacity="1" /><path clip-path="url(#clip340)" d="M2240.02 1544.91 L2256.34 1544.91 L2256.34 1548.85 L2234.4 1548.85 L2234.4 1544.91 Q2237.06 1542.16 2241.65 1537.53 Q2246.25 1532.88 2247.43 1531.53 Q2249.68 1529.01 2250.56 1527.27 Q2251.46 1525.51 2251.46 1523.82 Q2251.46 1521.07 2249.52 1519.33 Q2247.59 1517.6 2244.49 1517.6 Q2242.29 1517.6 2239.84 1518.36 Q2237.41 1519.13 2234.63 1520.68 L2234.63 1515.95 Q2237.46 1514.82 2239.91 1514.24 Q2242.36 1513.66 2244.4 1513.66 Q2249.77 1513.66 2252.96 1516.35 Q2256.16 1519.03 2256.16 1523.52 Q2256.16 1525.65 2255.35 1527.57 Q2254.56 1529.47 2252.46 1532.07 Q2251.88 1532.74 2248.77 1535.95 Q2245.67 1539.15 2240.02 1544.91 Z" fill="#000000" fill-rule="nonzero" fill-opacity="1" /><path clip-path="url(#clip340)" d="M2266.21 1514.29 L2284.56 1514.29 L2284.56 1518.22 L2270.49 1518.22 L2270.49 1526.7 Q2271.51 1526.35 2272.52 1526.19 Q2273.54 1526 2274.56 1526 Q2280.35 1526 2283.73 1529.17 Q2287.11 1532.34 2287.11 1537.76 Q2287.11 1543.34 2283.64 1546.44 Q2280.16 1549.52 2273.84 1549.52 Q2271.67 1549.52 2269.4 1549.15 Q2267.15 1548.78 2264.75 1548.04 L2264.75 1543.34 Q2266.83 1544.47 2269.05 1545.03 Q2271.27 1545.58 2273.75 1545.58 Q2277.76 1545.58 2280.09 1543.48 Q2282.43 1541.37 2282.43 1537.76 Q2282.43 1534.15 2280.09 1532.04 Q2277.76 1529.94 2273.75 1529.94 Q2271.88 1529.94 2270 1530.35 Q2268.15 1530.77 2266.21 1531.65 L2266.21 1514.29 Z" fill="#000000" fill-rule="nonzero" fill-opacity="1" /><path clip-path="url(#clip340)" d="M2306.32 1517.37 Q2302.71 1517.37 2300.88 1520.93 Q2299.08 1524.47 2299.08 1531.6 Q2299.08 1538.71 2300.88 1542.27 Q2302.71 1545.82 2306.32 1545.82 Q2309.95 1545.82 2311.76 1542.27 Q2313.59 1538.71 2313.59 1531.6 Q2313.59 1524.47 2311.76 1520.93 Q2309.95 1517.37 2306.32 1517.37 M2306.32 1513.66 Q2312.13 1513.66 2315.19 1518.27 Q2318.27 1522.85 2318.27 1531.6 Q2318.27 1540.33 2315.19 1544.94 Q2312.13 1549.52 2306.32 1549.52 Q2300.51 1549.52 2297.43 1544.94 Q2294.38 1540.33 2294.38 1531.6 Q2294.38 1522.85 2297.43 1518.27 Q2300.51 1513.66 2306.32 1513.66 Z" fill="#000000" fill-rule="nonzero" fill-opacity="1" /><path clip-path="url(#clip340)" d="M2336.48 1517.37 Q2332.87 1517.37 2331.04 1520.93 Q2329.24 1524.47 2329.24 1531.6 Q2329.24 1538.71 2331.04 1542.27 Q2332.87 1545.82 2336.48 1545.82 Q2340.12 1545.82 2341.92 1542.27 Q2343.75 1538.71 2343.75 1531.6 Q2343.75 1524.47 2341.92 1520.93 Q2340.12 1517.37 2336.48 1517.37 M2336.48 1513.66 Q2342.29 1513.66 2345.35 1518.27 Q2348.43 1522.85 2348.43 1531.6 Q2348.43 1540.33 2345.35 1544.94 Q2342.29 1549.52 2336.48 1549.52 Q2330.67 1549.52 2327.59 1544.94 Q2324.54 1540.33 2324.54 1531.6 Q2324.54 1522.85 2327.59 1518.27 Q2330.67 1513.66 2336.48 1513.66 Z" fill="#000000" fill-rule="nonzero" fill-opacity="1" /><polyline clip-path="url(#clip342)" style="stroke:#000000; stroke-linecap:round; stroke-linejoin:round; stroke-width:2; stroke-opacity:0.1; fill:none" points="156.02,1141.84 2352.76,1141.84 "/>
<polyline clip-path="url(#clip342)" style="stroke:#000000; stroke-linecap:round; stroke-linejoin:round; stroke-width:2; stroke-opacity:0.1; fill:none" points="156.02,790.553 2352.76,790.553 "/>
<polyline clip-path="url(#clip342)" style="stroke:#000000; stroke-linecap:round; stroke-linejoin:round; stroke-width:2; stroke-opacity:0.1; fill:none" points="156.02,439.264 2352.76,439.264 "/>
<polyline clip-path="url(#clip342)" style="stroke:#000000; stroke-linecap:round; stroke-linejoin:round; stroke-width:2; stroke-opacity:0.1; fill:none" points="156.02,87.9763 2352.76,87.9763 "/>
<polyline clip-path="url(#clip340)" style="stroke:#000000; stroke-linecap:round; stroke-linejoin:round; stroke-width:4; stroke-opacity:1; fill:none" points="156.02,1486.45 156.02,47.2441 "/>
<polyline clip-path="url(#clip340)" style="stroke:#000000; stroke-linecap:round; stroke-linejoin:round; stroke-width:4; stroke-opacity:1; fill:none" points="156.02,1141.84 174.917,1141.84 "/>
<polyline clip-path="url(#clip340)" style="stroke:#000000; stroke-linecap:round; stroke-linejoin:round; stroke-width:4; stroke-opacity:1; fill:none" points="156.02,790.553 174.917,790.553 "/>
<polyline clip-path="url(#clip340)" style="stroke:#000000; stroke-linecap:round; stroke-linejoin:round; stroke-width:4; stroke-opacity:1; fill:none" points="156.02,439.264 174.917,439.264 "/>
<polyline clip-path="url(#clip340)" style="stroke:#000000; stroke-linecap:round; stroke-linejoin:round; stroke-width:4; stroke-opacity:1; fill:none" points="156.02,87.9763 174.917,87.9763 "/>
<path clip-path="url(#clip340)" d="M63.7467 1127.64 Q60.1356 1127.64 58.3069 1131.2 Q56.5014 1134.75 56.5014 1141.88 Q56.5014 1148.98 58.3069 1152.55 Q60.1356 1156.09 63.7467 1156.09 Q67.3809 1156.09 69.1865 1152.55 Q71.0152 1148.98 71.0152 1141.88 Q71.0152 1134.75 69.1865 1131.2 Q67.3809 1127.64 63.7467 1127.64 M63.7467 1123.94 Q69.5568 1123.94 72.6124 1128.54 Q75.6911 1133.13 75.6911 1141.88 Q75.6911 1150.6 72.6124 1155.21 Q69.5568 1159.79 63.7467 1159.79 Q57.9365 1159.79 54.8578 1155.21 Q51.8023 1150.6 51.8023 1141.88 Q51.8023 1133.13 54.8578 1128.54 Q57.9365 1123.94 63.7467 1123.94 Z" fill="#000000" fill-rule="nonzero" fill-opacity="1" /><path clip-path="url(#clip340)" d="M83.9086 1153.24 L88.7928 1153.24 L88.7928 1159.12 L83.9086 1159.12 L83.9086 1153.24 Z" fill="#000000" fill-rule="nonzero" fill-opacity="1" /><path clip-path="url(#clip340)" d="M97.7974 1124.56 L120.02 1124.56 L120.02 1126.55 L107.473 1159.12 L102.589 1159.12 L114.395 1128.5 L97.7974 1128.5 L97.7974 1124.56 Z" fill="#000000" fill-rule="nonzero" fill-opacity="1" /><path clip-path="url(#clip340)" d="M62.9365 776.351 Q59.3254 776.351 57.4967 779.916 Q55.6912 783.458 55.6912 790.587 Q55.6912 797.694 57.4967 801.259 Q59.3254 804.8 62.9365 804.8 Q66.5707 804.8 68.3763 801.259 Q70.205 797.694 70.205 790.587 Q70.205 783.458 68.3763 779.916 Q66.5707 776.351 62.9365 776.351 M62.9365 772.648 Q68.7467 772.648 71.8022 777.254 Q74.8809 781.837 74.8809 790.587 Q74.8809 799.314 71.8022 803.921 Q68.7467 808.504 62.9365 808.504 Q57.1264 808.504 54.0477 803.921 Q50.9921 799.314 50.9921 790.587 Q50.9921 781.837 54.0477 777.254 Q57.1264 772.648 62.9365 772.648 Z" fill="#000000" fill-rule="nonzero" fill-opacity="1" /><path clip-path="url(#clip340)" d="M83.0984 801.953 L87.9827 801.953 L87.9827 807.833 L83.0984 807.833 L83.0984 801.953 Z" fill="#000000" fill-rule="nonzero" fill-opacity="1" /><path clip-path="url(#clip340)" d="M108.168 791.421 Q104.834 791.421 102.913 793.203 Q101.015 794.985 101.015 798.11 Q101.015 801.235 102.913 803.018 Q104.834 804.8 108.168 804.8 Q111.501 804.8 113.422 803.018 Q115.344 801.212 115.344 798.11 Q115.344 794.985 113.422 793.203 Q111.524 791.421 108.168 791.421 M103.492 789.43 Q100.483 788.689 98.7928 786.629 Q97.1261 784.569 97.1261 781.606 Q97.1261 777.462 100.066 775.055 Q103.029 772.648 108.168 772.648 Q113.33 772.648 116.27 775.055 Q119.209 777.462 119.209 781.606 Q119.209 784.569 117.52 786.629 Q115.853 788.689 112.867 789.43 Q116.246 790.217 118.121 792.509 Q120.02 794.8 120.02 798.11 Q120.02 803.133 116.941 805.819 Q113.885 808.504 108.168 808.504 Q102.45 808.504 99.3715 805.819 Q96.316 803.133 96.316 798.11 Q96.316 794.8 98.2141 792.509 Q100.112 790.217 103.492 789.43 M101.779 782.046 Q101.779 784.731 103.446 786.235 Q105.135 787.74 108.168 787.74 Q111.177 787.74 112.867 786.235 Q114.58 784.731 114.58 782.046 Q114.58 779.36 112.867 777.856 Q111.177 776.351 108.168 776.351 Q105.135 776.351 103.446 777.856 Q101.779 779.36 101.779 782.046 Z" fill="#000000" fill-rule="nonzero" fill-opacity="1" /><path clip-path="url(#clip340)" d="M63.0291 425.063 Q59.418 425.063 57.5893 428.628 Q55.7838 432.17 55.7838 439.299 Q55.7838 446.406 57.5893 449.97 Q59.418 453.512 63.0291 453.512 Q66.6633 453.512 68.4689 449.97 Q70.2976 446.406 70.2976 439.299 Q70.2976 432.17 68.4689 428.628 Q66.6633 425.063 63.0291 425.063 M63.0291 421.359 Q68.8393 421.359 71.8948 425.966 Q74.9735 430.549 74.9735 439.299 Q74.9735 448.026 71.8948 452.632 Q68.8393 457.216 63.0291 457.216 Q57.2189 457.216 54.1403 452.632 Q51.0847 448.026 51.0847 439.299 Q51.0847 430.549 54.1403 425.966 Q57.2189 421.359 63.0291 421.359 Z" fill="#000000" fill-rule="nonzero" fill-opacity="1" /><path clip-path="url(#clip340)" d="M83.191 450.665 L88.0753 450.665 L88.0753 456.544 L83.191 456.544 L83.191 450.665 Z" fill="#000000" fill-rule="nonzero" fill-opacity="1" /><path clip-path="url(#clip340)" d="M98.3993 455.827 L98.3993 451.568 Q100.159 452.401 101.964 452.841 Q103.77 453.281 105.506 453.281 Q110.135 453.281 112.566 450.179 Q115.02 447.054 115.367 440.711 Q114.024 442.702 111.964 443.767 Q109.904 444.832 107.404 444.832 Q102.219 444.832 99.1863 441.707 Q96.1771 438.558 96.1771 433.119 Q96.1771 427.795 99.3252 424.577 Q102.473 421.359 107.705 421.359 Q113.7 421.359 116.848 425.966 Q120.02 430.549 120.02 439.299 Q120.02 447.47 116.131 452.355 Q112.265 457.216 105.714 457.216 Q103.955 457.216 102.149 456.868 Q100.344 456.521 98.3993 455.827 M107.705 441.174 Q110.853 441.174 112.682 439.021 Q114.533 436.869 114.533 433.119 Q114.533 429.392 112.682 427.239 Q110.853 425.063 107.705 425.063 Q104.557 425.063 102.705 427.239 Q100.876 429.392 100.876 433.119 Q100.876 436.869 102.705 439.021 Q104.557 441.174 107.705 441.174 Z" fill="#000000" fill-rule="nonzero" fill-opacity="1" /><path clip-path="url(#clip340)" d="M53.6541 101.321 L61.293 101.321 L61.293 74.9555 L52.9829 76.6222 L52.9829 72.3629 L61.2467 70.6963 L65.9226 70.6963 L65.9226 101.321 L73.5614 101.321 L73.5614 105.256 L53.6541 105.256 L53.6541 101.321 Z" fill="#000000" fill-rule="nonzero" fill-opacity="1" /><path clip-path="url(#clip340)" d="M83.0058 99.3767 L87.8901 99.3767 L87.8901 105.256 L83.0058 105.256 L83.0058 99.3767 Z" fill="#000000" fill-rule="nonzero" fill-opacity="1" /><path clip-path="url(#clip340)" d="M108.075 73.775 Q104.464 73.775 102.635 77.3398 Q100.83 80.8814 100.83 88.011 Q100.83 95.1174 102.635 98.6822 Q104.464 102.224 108.075 102.224 Q111.709 102.224 113.515 98.6822 Q115.344 95.1174 115.344 88.011 Q115.344 80.8814 113.515 77.3398 Q111.709 73.775 108.075 73.775 M108.075 70.0713 Q113.885 70.0713 116.941 74.6777 Q120.02 79.261 120.02 88.011 Q120.02 96.7378 116.941 101.344 Q113.885 105.928 108.075 105.928 Q102.265 105.928 99.1863 101.344 Q96.1308 96.7378 96.1308 88.011 Q96.1308 79.261 99.1863 74.6777 Q102.265 70.0713 108.075 70.0713 Z" fill="#000000" fill-rule="nonzero" fill-opacity="1" /><polyline clip-path="url(#clip342)" style="stroke:#009af9; stroke-linecap:round; stroke-linejoin:round; stroke-width:4; stroke-opacity:1; fill:none" points="218.191,1398.42 219.021,1334.48 219.85,1327.15 220.679,1445.72 221.508,1418.94 222.338,1334.48 223.167,1161.36 223.996,1219.24 224.826,1144.3 225.655,1109.45 226.484,1027.32 227.313,1144.3 228.143,989.05 228.972,1017.86 229.801,1161.36 230.631,1356.21 231.46,1064.48 232.289,1289.75 233.119,929.465 233.948,949.626 234.777,1008.33 235.606,812.857 236.436,1017.86 237.265,919.269 238.094,998.723 238.924,929.465 239.753,733.199 240.582,989.05 241.411,929.465 242.241,779.266 243.07,756.419 243.899,877.694 244.729,867.098 245.558,744.857 246.387,801.749 247.216,790.553 248.046,546.178 248.875,790.553 249.704,812.857 250.534,744.857 251.363,685.603 252.192,1008.33 253.021,611.171 253.851,572.512 254.68,709.597 255.509,709.597 256.339,721.447 257.168,845.657 257.997,697.65 258.826,519.383 259.656,636.401 260.485,834.809 261.314,611.171 262.144,790.553 262.973,673.457 263.802,532.839 264.631,673.457 265.461,801.749 266.29,756.419 267.119,478.296 267.949,559.402 268.778,559.402 269.607,464.356 270.437,519.383 271.266,492.113 272.095,636.401 272.924,598.395 273.754,623.84 274.583,519.383 275.412,546.178 276.242,636.401 277.071,598.395 277.9,572.512 278.729,546.178 279.559,623.84 280.388,532.839 281.217,450.291 282.047,532.839 282.876,661.208 283.705,648.856 284.534,421.779 285.364,598.395 286.193,532.839 287.022,532.839 287.852,756.419 288.681,559.402 289.51,598.395 290.339,478.296 291.169,363.179 291.998,333.061 292.827,492.113 293.657,392.747 294.486,421.779 295.315,464.356 296.144,436.1 296.974,363.179 297.803,421.779 298.632,505.808 299.462,492.113 300.291,585.509 301.12,450.291 301.949,378.031 302.779,478.296 303.608,421.779 304.437,436.1 305.267,559.402 306.096,519.383 306.925,478.296 307.755,598.395 308.584,302.377 309.413,378.031 310.242,559.402 311.072,478.296 311.901,450.291 312.73,648.856 313.56,363.179 314.389,532.839 315.218,492.113 316.047,546.178 316.877,407.329 317.706,407.329 318.535,407.329 319.365,348.19 320.194,378.031 321.023,378.031 321.852,450.291 322.682,532.839 323.511,436.1 324.34,532.839 325.17,378.031 325.999,302.377 326.828,450.291 327.657,598.395 328.487,421.779 329.316,392.747 330.145,464.356 330.975,407.329 331.804,492.113 332.633,407.329 333.462,271.112 334.292,348.19 335.121,302.377 335.95,317.791 336.78,392.747 337.609,519.383 338.438,505.808 339.267,436.1 340.097,348.19 340.926,363.179 341.755,392.747 342.585,333.061 343.414,333.061 344.243,478.296 345.073,302.377 345.902,407.329 346.731,478.296 347.56,392.747 348.39,255.256 349.219,421.779 350.048,333.061 350.878,436.1 351.707,348.19 352.536,317.791 353.365,421.779 354.195,333.061 355.024,255.256 355.853,450.291 356.683,333.061 357.512,302.377 358.341,271.112 359.17,421.779 360,363.179 360.829,333.061 361.658,378.031 362.488,363.179 363.317,378.031 364.146,363.179 364.975,286.819 365.805,286.819 366.634,333.061 367.463,317.791 368.293,286.819 369.122,348.19 369.951,363.179 370.78,407.329 371.61,407.329 372.439,255.256 373.268,302.377 374.098,378.031 374.927,317.791 375.756,317.791 376.585,302.377 377.415,173.656 378.244,378.031 379.073,363.179 379.903,378.031 380.732,333.061 381.561,333.061 382.391,317.791 383.22,363.179 384.049,239.249 384.878,255.256 385.708,302.377 386.537,317.791 387.366,286.819 388.196,286.819 389.025,255.256 389.854,223.087 390.683,302.377 391.513,450.291 392.342,348.19 393.171,302.377 394.001,206.769 394.83,286.819 395.659,333.061 396.488,255.256 397.318,271.112 398.147,333.061 398.976,271.112 399.806,255.256 400.635,302.377 401.464,223.087 402.293,206.769 403.123,206.769 403.952,239.249 404.781,255.256 405.611,239.249 406.44,286.819 407.269,271.112 408.098,239.249 408.928,271.112 409.757,255.256 410.586,223.087 411.416,286.819 412.245,223.087 413.074,271.112 413.903,239.249 414.733,206.769 415.562,239.249 416.391,239.249 417.221,223.087 418.05,286.819 418.879,190.293 419.709,223.087 420.538,302.377 421.367,139.891 422.196,239.249 423.026,271.112 423.855,255.256 424.684,190.293 425.514,271.112 426.343,286.819 427.172,223.087 428.001,206.769 428.831,190.293 429.66,255.256 430.489,239.249 431.319,139.891 432.148,223.087 432.977,206.769 433.806,271.112 434.636,286.819 435.465,239.249 436.294,255.256 437.124,239.249 437.953,255.256 438.782,223.087 439.611,302.377 440.441,239.249 441.27,271.112 442.099,223.087 442.929,206.769 443.758,206.769 444.587,190.293 445.416,156.856 446.246,239.249 447.075,173.656 447.904,255.256 448.734,255.256 449.563,223.087 450.392,239.249 451.221,223.087 452.051,173.656 452.88,223.087 453.709,206.769 454.539,223.087 455.368,333.061 456.197,139.891 457.027,173.656 457.856,239.249 458.685,190.293 459.514,223.087 460.344,271.112 461.173,105.453 462.002,190.293 462.832,190.293 463.661,156.856 464.49,302.377 465.319,223.087 466.149,239.249 466.978,173.656 467.807,286.819 468.637,223.087 469.466,206.769 470.295,271.112 471.124,286.819 471.954,173.656 472.783,122.757 473.612,190.293 474.442,156.856 475.271,173.656 476.1,302.377 476.929,223.087 477.759,190.293 478.588,271.112 479.417,206.769 480.247,139.891 481.076,156.856 481.905,139.891 482.734,190.293 483.564,190.293 484.393,190.293 485.222,190.293 486.052,173.656 486.881,173.656 487.71,223.087 488.539,190.293 489.369,271.112 490.198,156.856 491.027,173.656 491.857,255.256 492.686,239.249 493.515,156.856 494.345,173.656 495.174,190.293 496.003,223.087 496.832,302.377 497.662,173.656 498.491,156.856 499.32,190.293 500.15,139.891 500.979,223.087 501.808,139.891 502.637,255.256 503.467,223.087 504.296,206.769 505.125,190.293 505.955,190.293 506.784,190.293 507.613,173.656 508.442,139.891 509.272,173.656 510.101,156.856 510.93,223.087 511.76,139.891 512.589,206.769 513.418,255.256 514.247,239.249 515.077,206.769 515.906,190.293 516.735,122.757 517.565,206.769 518.394,173.656 519.223,156.856 520.052,105.453 520.882,223.087 521.711,206.769 522.54,206.769 523.37,206.769 524.199,139.891 525.028,206.769 525.857,156.856 526.687,206.769 527.516,156.856 528.345,206.769 529.175,302.377 530.004,190.293 530.833,239.249 531.662,223.087 532.492,223.087 533.321,173.656 534.15,190.293 534.98,190.293 535.809,271.112 536.638,156.856 537.468,173.656 538.297,173.656 539.126,122.757 539.955,156.856 540.785,173.656 541.614,139.891 542.443,139.891 543.273,239.249 544.102,190.293 544.931,206.769 545.76,239.249 546.59,239.249 547.419,206.769 548.248,173.656 549.078,122.757 549.907,156.856 550.736,156.856 551.565,173.656 552.395,122.757 553.224,122.757 554.053,122.757 554.883,156.856 555.712,190.293 556.541,139.891 557.37,255.256 558.2,190.293 559.029,190.293 559.858,156.856 560.688,122.757 561.517,156.856 562.346,173.656 563.175,190.293 564.005,190.293 564.834,139.891 565.663,139.891 566.493,173.656 567.322,156.856 568.151,223.087 568.98,139.891 569.81,156.856 570.639,156.856 571.468,139.891 572.298,173.656 573.127,156.856 573.956,173.656 574.786,139.891 575.615,173.656 576.444,173.656 577.273,173.656 578.103,190.293 578.932,105.453 579.761,190.293 580.591,190.293 581.42,139.891 582.249,122.757 583.078,139.891 583.908,206.769 584.737,239.249 585.566,156.856 586.396,239.249 587.225,156.856 588.054,105.453 588.883,122.757 589.713,173.656 590.542,87.9763 591.371,139.891 592.201,206.769 593.03,156.856 593.859,156.856 594.688,139.891 595.518,206.769 596.347,156.856 597.176,223.087 598.006,156.856 598.835,87.9763 599.664,156.856 600.493,156.856 601.323,105.453 602.152,122.757 602.981,173.656 603.811,190.293 604.64,156.856 605.469,239.249 606.298,139.891 607.128,190.293 607.957,156.856 608.786,139.891 609.616,156.856 610.445,206.769 611.274,139.891 612.104,105.453 612.933,190.293 613.762,139.891 614.591,139.891 615.421,139.891 616.25,156.856 617.079,173.656 617.909,122.757 618.738,122.757 619.567,139.891 620.396,122.757 621.226,173.656 622.055,156.856 622.884,156.856 623.714,139.891 624.543,173.656 625.372,122.757 626.201,139.891 627.031,156.856 627.86,156.856 628.689,156.856 629.519,105.453 630.348,156.856 631.177,139.891 632.006,223.087 632.836,105.453 633.665,122.757 634.494,156.856 635.324,139.891 636.153,139.891 636.982,122.757 637.811,139.891 638.641,206.769 639.47,156.856 640.299,122.757 641.129,122.757 641.958,139.891 642.787,139.891 643.616,156.856 644.446,105.453 645.275,206.769 646.104,105.453 646.934,190.293 647.763,139.891 648.592,105.453 649.422,190.293 650.251,190.293 651.08,173.656 651.909,156.856 652.739,173.656 653.568,139.891 654.397,223.087 655.227,156.856 656.056,206.769 656.885,122.757 657.714,173.656 658.544,122.757 659.373,156.856 660.202,122.757 661.032,156.856 661.861,122.757 662.69,122.757 663.519,105.453 664.349,122.757 665.178,223.087 666.007,139.891 666.837,173.656 667.666,139.891 668.495,156.856 669.324,173.656 670.154,122.757 670.983,173.656 671.812,156.856 672.642,139.891 673.471,139.891 674.3,156.856 675.129,105.453 675.959,139.891 676.788,173.656 677.617,139.891 678.447,105.453 679.276,223.087 680.105,139.891 680.934,156.856 681.764,139.891 682.593,206.769 683.422,223.087 684.252,139.891 685.081,139.891 685.91,156.856 686.74,173.656 687.569,156.856 688.398,206.769 689.227,173.656 690.057,122.757 690.886,190.293 691.715,173.656 692.545,139.891 693.374,122.757 694.203,173.656 695.032,173.656 695.862,105.453 696.691,122.757 697.52,87.9763 698.35,223.087 699.179,122.757 700.008,87.9763 700.837,105.453 701.667,122.757 702.496,122.757 703.325,105.453 704.155,173.656 704.984,122.757 705.813,105.453 706.642,156.856 707.472,105.453 708.301,122.757 709.13,139.891 709.96,122.757 710.789,139.891 711.618,139.891 712.447,139.891 713.277,122.757 714.106,139.891 714.935,139.891 715.765,122.757 716.594,190.293 717.423,122.757 718.252,156.856 719.082,156.856 719.911,190.293 720.74,87.9763 721.57,139.891 722.399,105.453 723.228,190.293 724.058,156.856 724.887,105.453 725.716,139.891 726.545,156.856 727.375,139.891 728.204,173.656 729.033,139.891 729.863,156.856 730.692,122.757 731.521,156.856 732.35,87.9763 733.18,122.757 734.009,105.453 734.838,139.891 735.668,105.453 736.497,122.757 737.326,139.891 738.155,139.891 738.985,173.656 739.814,156.856 740.643,139.891 741.473,122.757 742.302,139.891 743.131,122.757 743.96,105.453 744.79,156.856 745.619,139.891 746.448,190.293 747.278,87.9763 748.107,122.757 748.936,87.9763 749.765,223.087 750.595,139.891 751.424,105.453 752.253,156.856 753.083,122.757 753.912,87.9763 754.741,156.856 755.57,122.757 756.4,223.087 757.229,156.856 758.058,105.453 758.888,87.9763 759.717,190.293 760.546,105.453 761.376,122.757 762.205,139.891 763.034,139.891 763.863,122.757 764.693,122.757 765.522,122.757 766.351,122.757 767.181,190.293 768.01,122.757 768.839,156.856 769.668,87.9763 770.498,156.856 771.327,122.757 772.156,105.453 772.986,105.453 773.815,139.891 774.644,139.891 775.473,173.656 776.303,105.453 777.132,139.891 777.961,173.656 778.791,139.891 779.62,139.891 780.449,156.856 781.278,139.891 782.108,87.9763 782.937,139.891 783.766,156.856 784.596,122.757 785.425,206.769 786.254,139.891 787.083,139.891 787.913,156.856 788.742,122.757 789.571,105.453 790.401,122.757 791.23,87.9763 792.059,122.757 792.888,105.453 793.718,122.757 794.547,105.453 795.376,87.9763 796.206,173.656 797.035,122.757 797.864,156.856 798.694,105.453 799.523,156.856 800.352,139.891 801.181,139.891 802.011,122.757 802.84,105.453 803.669,156.856 804.499,139.891 805.328,156.856 806.157,173.656 806.986,122.757 807.816,173.656 808.645,122.757 809.474,122.757 810.304,173.656 811.133,139.891 811.962,105.453 812.791,139.891 813.621,139.891 814.45,105.453 815.279,139.891 816.109,105.453 816.938,173.656 817.767,122.757 818.596,139.891 819.426,139.891 820.255,122.757 821.084,139.891 821.914,122.757 822.743,173.656 823.572,122.757 824.401,139.891 825.231,173.656 826.06,122.757 826.889,139.891 827.719,156.856 828.548,139.891 829.377,105.453 830.206,156.856 831.036,105.453 831.865,105.453 832.694,122.757 833.524,139.891 834.353,122.757 835.182,139.891 836.012,87.9763 836.841,139.891 837.67,105.453 838.499,139.891 839.329,122.757 840.158,139.891 840.987,105.453 841.817,122.757 842.646,173.656 843.475,156.856 844.304,122.757 845.134,173.656 845.963,156.856 846.792,139.891 847.622,87.9763 848.451,105.453 849.28,139.891 850.109,122.757 850.939,105.453 851.768,87.9763 852.597,173.656 853.427,173.656 854.256,139.891 855.085,139.891 855.914,122.757 856.744,156.856 857.573,156.856 858.402,122.757 859.232,122.757 860.061,139.891 860.89,122.757 861.719,105.453 862.549,139.891 863.378,87.9763 864.207,87.9763 865.037,156.856 865.866,122.757 866.695,139.891 867.524,156.856 868.354,173.656 869.183,87.9763 870.012,105.453 870.842,122.757 871.671,122.757 872.5,139.891 873.329,105.453 874.159,105.453 874.988,139.891 875.817,105.453 876.647,122.757 877.476,139.891 878.305,105.453 879.135,87.9763 879.964,173.656 880.793,122.757 881.622,156.856 882.452,122.757 883.281,173.656 884.11,122.757 884.94,105.453 885.769,173.656 886.598,139.891 887.427,139.891 888.257,87.9763 889.086,87.9763 889.915,105.453 890.745,105.453 891.574,139.891 892.403,156.856 893.232,156.856 894.062,105.453 894.891,156.856 895.72,105.453 896.55,139.891 897.379,122.757 898.208,190.293 899.037,105.453 899.867,87.9763 900.696,105.453 901.525,122.757 902.355,122.757 903.184,87.9763 904.013,105.453 904.842,87.9763 905.672,122.757 906.501,87.9763 907.33,156.856 908.16,190.293 908.989,105.453 909.818,122.757 910.647,156.856 911.477,105.453 912.306,139.891 913.135,156.856 913.965,105.453 914.794,122.757 915.623,173.656 916.453,122.757 917.282,122.757 918.111,139.891 918.94,122.757 919.77,105.453 920.599,122.757 921.428,139.891 922.258,139.891 923.087,122.757 923.916,105.453 924.745,156.856 925.575,105.453 926.404,139.891 927.233,105.453 928.063,139.891 928.892,122.757 929.721,105.453 930.55,139.891 931.38,105.453 932.209,105.453 933.038,122.757 933.868,139.891 934.697,122.757 935.526,139.891 936.355,105.453 937.185,190.293 938.014,122.757 938.843,156.856 939.673,105.453 940.502,105.453 941.331,105.453 942.16,122.757 942.99,173.656 943.819,156.856 944.648,105.453 945.478,139.891 946.307,122.757 947.136,122.757 947.965,173.656 948.795,105.453 949.624,122.757 950.453,139.891 951.283,139.891 952.112,122.757 952.941,105.453 953.771,156.856 954.6,105.453 955.429,122.757 956.258,122.757 957.088,156.856 957.917,122.757 958.746,122.757 959.576,87.9763 960.405,139.891 961.234,122.757 962.063,105.453 962.893,139.891 963.722,105.453 964.551,156.856 965.381,139.891 966.21,105.453 967.039,105.453 967.868,139.891 968.698,87.9763 969.527,122.757 970.356,139.891 971.186,139.891 972.015,122.757 972.844,105.453 973.673,122.757 974.503,139.891 975.332,105.453 976.161,122.757 976.991,173.656 977.82,190.293 978.649,122.757 979.478,139.891 980.308,139.891 981.137,139.891 981.966,156.856 982.796,156.856 983.625,105.453 984.454,156.856 985.283,105.453 986.113,173.656 986.942,122.757 987.771,156.856 988.601,105.453 989.43,87.9763 990.259,139.891 991.089,190.293 991.918,156.856 992.747,122.757 993.576,122.757 994.406,122.757 995.235,190.293 996.064,105.453 996.894,139.891 997.723,87.9763 998.552,122.757 999.381,122.757 1000.21,105.453 1001.04,105.453 1001.87,156.856 1002.7,122.757 1003.53,122.757 1004.36,122.757 1005.19,105.453 1006.02,105.453 1006.85,122.757 1007.67,87.9763 1008.5,122.757 1009.33,87.9763 1010.16,105.453 1010.99,87.9763 1011.82,139.891 1012.65,122.757 1013.48,105.453 1014.31,122.757 1015.14,139.891 1015.97,105.453 1016.8,122.757 1017.63,139.891 1018.46,156.856 1019.28,105.453 1020.11,139.891 1020.94,105.453 1021.77,105.453 1022.6,105.453 1023.43,139.891 1024.26,105.453 1025.09,87.9763 1025.92,87.9763 1026.75,139.891 1027.58,139.891 1028.41,156.856 1029.24,122.757 1030.07,87.9763 1030.89,156.856 1031.72,105.453 1032.55,105.453 1033.38,156.856 1034.21,139.891 1035.04,105.453 1035.87,122.757 1036.7,139.891 1037.53,105.453 1038.36,122.757 1039.19,122.757 1040.02,139.891 1040.85,122.757 1041.68,173.656 1042.5,105.453 1043.33,139.891 1044.16,105.453 1044.99,105.453 1045.82,105.453 1046.65,156.856 1047.48,139.891 1048.31,122.757 1049.14,87.9763 1049.97,156.856 1050.8,122.757 1051.63,156.856 1052.46,105.453 1053.29,122.757 1054.11,105.453 1054.94,122.757 1055.77,122.757 1056.6,105.453 1057.43,139.891 1058.26,105.453 1059.09,122.757 1059.92,122.757 1060.75,105.453 1061.58,122.757 1062.41,122.757 1063.24,105.453 1064.07,122.757 1064.9,122.757 1065.72,87.9763 1066.55,105.453 1067.38,87.9763 1068.21,87.9763 1069.04,139.891 1069.87,105.453 1070.7,105.453 1071.53,105.453 1072.36,139.891 1073.19,122.757 1074.02,105.453 1074.85,156.856 1075.68,122.757 1076.51,173.656 1077.33,105.453 1078.16,122.757 1078.99,139.891 1079.82,87.9763 1080.65,122.757 1081.48,156.856 1082.31,122.757 1083.14,122.757 1083.97,139.891 1084.8,139.891 1085.63,105.453 1086.46,122.757 1087.29,105.453 1088.12,156.856 1088.94,139.891 1089.77,105.453 1090.6,105.453 1091.43,156.856 1092.26,87.9763 1093.09,122.757 1093.92,105.453 1094.75,122.757 1095.58,139.891 1096.41,139.891 1097.24,122.757 1098.07,122.757 1098.9,122.757 1099.73,156.856 1100.55,122.757 1101.38,139.891 1102.21,122.757 1103.04,105.453 1103.87,105.453 1104.7,122.757 1105.53,122.757 1106.36,122.757 1107.19,122.757 1108.02,139.891 1108.85,122.757 1109.68,139.891 1110.51,105.453 1111.34,87.9763 1112.16,139.891 1112.99,105.453 1113.82,122.757 1114.65,87.9763 1115.48,105.453 1116.31,139.891 1117.14,105.453 1117.97,139.891 1118.8,122.757 1119.63,87.9763 1120.46,87.9763 1121.29,122.757 1122.12,105.453 1122.95,122.757 1123.77,87.9763 1124.6,139.891 1125.43,122.757 1126.26,122.757 1127.09,156.856 1127.92,156.856 1128.75,105.453 1129.58,156.856 1130.41,105.453 1131.24,87.9763 1132.07,122.757 1132.9,122.757 1133.73,87.9763 1134.56,87.9763 1135.38,105.453 1136.21,122.757 1137.04,156.856 1137.87,122.757 1138.7,105.453 1139.53,87.9763 1140.36,105.453 1141.19,87.9763 1142.02,122.757 1142.85,87.9763 1143.68,122.757 1144.51,105.453 1145.34,139.891 1146.17,122.757 1146.99,105.453 1147.82,105.453 1148.65,173.656 1149.48,122.757 1150.31,105.453 1151.14,105.453 1151.97,105.453 1152.8,139.891 1153.63,122.757 1154.46,105.453 1155.29,139.891 1156.12,87.9763 1156.95,122.757 1157.78,122.757 1158.6,139.891 1159.43,173.656 1160.26,87.9763 1161.09,139.891 1161.92,122.757 1162.75,122.757 1163.58,173.656 1164.41,87.9763 1165.24,87.9763 1166.07,87.9763 1166.9,87.9763 1167.73,122.757 1168.56,156.856 1169.39,87.9763 1170.21,105.453 1171.04,156.856 1171.87,122.757 1172.7,122.757 1173.53,105.453 1174.36,87.9763 1175.19,122.757 1176.02,87.9763 1176.85,105.453 1177.68,156.856 1178.51,105.453 1179.34,105.453 1180.17,139.891 1181,122.757 1181.82,105.453 1182.65,87.9763 1183.48,122.757 1184.31,156.856 1185.14,122.757 1185.97,105.453 1186.8,122.757 1187.63,122.757 1188.46,87.9763 1189.29,87.9763 1190.12,122.757 1190.95,122.757 1191.78,122.757 1192.61,139.891 1193.43,139.891 1194.26,87.9763 1195.09,87.9763 1195.92,87.9763 1196.75,105.453 1197.58,87.9763 1198.41,122.757 1199.24,105.453 1200.07,87.9763 1200.9,139.891 1201.73,87.9763 1202.56,87.9763 1203.39,105.453 1204.22,122.757 1205.05,139.891 1205.87,122.757 1206.7,122.757 1207.53,105.453 1208.36,122.757 1209.19,122.757 1210.02,105.453 1210.85,105.453 1211.68,122.757 1212.51,122.757 1213.34,105.453 1214.17,122.757 1215,156.856 1215.83,122.757 1216.66,87.9763 1217.48,105.453 1218.31,87.9763 1219.14,156.856 1219.97,87.9763 1220.8,122.757 1221.63,122.757 1222.46,105.453 1223.29,122.757 1224.12,173.656 1224.95,105.453 1225.78,105.453 1226.61,105.453 1227.44,122.757 1228.27,156.856 1229.09,122.757 1229.92,87.9763 1230.75,139.891 1231.58,105.453 1232.41,173.656 1233.24,139.891 1234.07,122.757 1234.9,105.453 1235.73,122.757 1236.56,105.453 1237.39,139.891 1238.22,122.757 1239.05,87.9763 1239.88,122.757 1240.7,122.757 1241.53,87.9763 1242.36,105.453 1243.19,105.453 1244.02,87.9763 1244.85,156.856 1245.68,105.453 1246.51,105.453 1247.34,139.891 1248.17,156.856 1249,87.9763 1249.83,122.757 1250.66,122.757 1251.49,105.453 1252.31,105.453 1253.14,87.9763 1253.97,105.453 1254.8,122.757 1255.63,87.9763 1256.46,122.757 1257.29,87.9763 1258.12,87.9763 1258.95,105.453 1259.78,87.9763 1260.61,122.757 1261.44,87.9763 1262.27,105.453 1263.1,105.453 1263.92,87.9763 1264.75,105.453 1265.58,122.757 1266.41,122.757 1267.24,105.453 1268.07,105.453 1268.9,87.9763 1269.73,122.757 1270.56,122.757 1271.39,122.757 1272.22,122.757 1273.05,87.9763 1273.88,105.453 1274.71,105.453 1275.53,105.453 1276.36,105.453 1277.19,105.453 1278.02,139.891 1278.85,105.453 1279.68,105.453 1280.51,87.9763 1281.34,139.891 1282.17,87.9763 1283,87.9763 1283.83,105.453 1284.66,139.891 1285.49,105.453 1286.32,105.453 1287.14,105.453 1287.97,105.453 1288.8,87.9763 1289.63,122.757 1290.46,122.757 1291.29,139.891 1292.12,87.9763 1292.95,122.757 1293.78,122.757 1294.61,139.891 1295.44,105.453 1296.27,105.453 1297.1,173.656 1297.93,122.757 1298.75,105.453 1299.58,87.9763 1300.41,105.453 1301.24,156.856 1302.07,122.757 1302.9,122.757 1303.73,122.757 1304.56,87.9763 1305.39,156.856 1306.22,139.891 1307.05,139.891 1307.88,87.9763 1308.71,105.453 1309.54,87.9763 1310.36,87.9763 1311.19,156.856 1312.02,105.453 1312.85,139.891 1313.68,122.757 1314.51,87.9763 1315.34,87.9763 1316.17,105.453 1317,87.9763 1317.83,87.9763 1318.66,105.453 1319.49,122.757 1320.32,139.891 1321.15,105.453 1321.97,105.453 1322.8,206.769 1323.63,87.9763 1324.46,87.9763 1325.29,105.453 1326.12,139.891 1326.95,122.757 1327.78,122.757 1328.61,105.453 1329.44,122.757 1330.27,87.9763 1331.1,139.891 1331.93,105.453 1332.76,122.757 1333.58,87.9763 1334.41,87.9763 1335.24,105.453 1336.07,105.453 1336.9,105.453 1337.73,105.453 1338.56,139.891 1339.39,105.453 1340.22,105.453 1341.05,87.9763 1341.88,122.757 1342.71,105.453 1343.54,105.453 1344.37,122.757 1345.19,87.9763 1346.02,105.453 1346.85,122.757 1347.68,105.453 1348.51,87.9763 1349.34,139.891 1350.17,87.9763 1351,87.9763 1351.83,87.9763 1352.66,105.453 1353.49,105.453 1354.32,122.757 1355.15,122.757 1355.98,105.453 1356.8,105.453 1357.63,122.757 1358.46,156.856 1359.29,139.891 1360.12,105.453 1360.95,105.453 1361.78,105.453 1362.61,105.453 1363.44,105.453 1364.27,87.9763 1365.1,87.9763 1365.93,87.9763 1366.76,105.453 1367.59,105.453 1368.41,105.453 1369.24,122.757 1370.07,156.856 1370.9,87.9763 1371.73,87.9763 1372.56,105.453 1373.39,87.9763 1374.22,105.453 1375.05,105.453 1375.88,87.9763 1376.71,122.757 1377.54,105.453 1378.37,87.9763 1379.2,105.453 1380.02,105.453 1380.85,87.9763 1381.68,105.453 1382.51,87.9763 1383.34,122.757 1384.17,105.453 1385,105.453 1385.83,87.9763 1386.66,122.757 1387.49,87.9763 1388.32,105.453 1389.15,105.453 1389.98,105.453 1390.81,105.453 1391.64,87.9763 1392.46,87.9763 1393.29,87.9763 1394.12,105.453 1394.95,122.757 1395.78,105.453 1396.61,87.9763 1397.44,87.9763 1398.27,105.453 1399.1,105.453 1399.93,105.453 1400.76,87.9763 1401.59,122.757 1402.42,156.856 1403.25,105.453 1404.07,87.9763 1404.9,87.9763 1405.73,139.891 1406.56,105.453 1407.39,139.891 1408.22,105.453 1409.05,87.9763 1409.88,105.453 1410.71,122.757 1411.54,87.9763 1412.37,87.9763 1413.2,105.453 1414.03,122.757 1414.86,105.453 1415.68,87.9763 1416.51,122.757 1417.34,122.757 1418.17,87.9763 1419,122.757 1419.83,122.757 1420.66,122.757 1421.49,87.9763 1422.32,122.757 1423.15,87.9763 1423.98,105.453 1424.81,87.9763 1425.64,105.453 1426.47,105.453 1427.29,105.453 1428.12,87.9763 1428.95,156.856 1429.78,87.9763 1430.61,139.891 1431.44,156.856 1432.27,105.453 1433.1,105.453 1433.93,105.453 1434.76,87.9763 1435.59,156.856 1436.42,87.9763 1437.25,122.757 1438.08,156.856 1438.9,173.656 1439.73,122.757 1440.56,105.453 1441.39,122.757 1442.22,122.757 1443.05,105.453 1443.88,105.453 1444.71,139.891 1445.54,122.757 1446.37,122.757 1447.2,87.9763 1448.03,105.453 1448.86,87.9763 1449.69,105.453 1450.51,87.9763 1451.34,87.9763 1452.17,87.9763 1453,122.757 1453.83,122.757 1454.66,105.453 1455.49,105.453 1456.32,87.9763 1457.15,122.757 1457.98,105.453 1458.81,87.9763 1459.64,139.891 1460.47,105.453 1461.3,87.9763 1462.12,122.757 1462.95,87.9763 1463.78,122.757 1464.61,105.453 1465.44,105.453 1466.27,105.453 1467.1,122.757 1467.93,105.453 1468.76,105.453 1469.59,122.757 1470.42,122.757 1471.25,105.453 1472.08,105.453 1472.91,105.453 1473.73,87.9763 1474.56,139.891 1475.39,122.757 1476.22,87.9763 1477.05,139.891 1477.88,105.453 1478.71,139.891 1479.54,87.9763 1480.37,105.453 1481.2,122.757 1482.03,122.757 1482.86,87.9763 1483.69,87.9763 1484.52,87.9763 1485.34,173.656 1486.17,105.453 1487,122.757 1487.83,105.453 1488.66,105.453 1489.49,122.757 1490.32,156.856 1491.15,87.9763 1491.98,105.453 1492.81,122.757 1493.64,105.453 1494.47,105.453 1495.3,87.9763 1496.13,87.9763 1496.95,87.9763 1497.78,87.9763 1498.61,87.9763 1499.44,139.891 1500.27,122.757 1501.1,87.9763 1501.93,122.757 1502.76,122.757 1503.59,87.9763 1504.42,156.856 1505.25,122.757 1506.08,139.891 1506.91,122.757 1507.74,87.9763 1508.56,105.453 1509.39,105.453 1510.22,105.453 1511.05,105.453 1511.88,139.891 1512.71,122.757 1513.54,105.453 1514.37,122.757 1515.2,87.9763 1516.03,122.757 1516.86,87.9763 1517.69,87.9763 1518.52,105.453 1519.35,105.453 1520.17,122.757 1521,105.453 1521.83,87.9763 1522.66,139.891 1523.49,105.453 1524.32,122.757 1525.15,105.453 1525.98,139.891 1526.81,87.9763 1527.64,87.9763 1528.47,105.453 1529.3,122.757 1530.13,122.757 1530.96,87.9763 1531.78,105.453 1532.61,105.453 1533.44,105.453 1534.27,87.9763 1535.1,87.9763 1535.93,105.453 1536.76,122.757 1537.59,87.9763 1538.42,105.453 1539.25,87.9763 1540.08,105.453 1540.91,87.9763 1541.74,87.9763 1542.57,87.9763 1543.39,105.453 1544.22,87.9763 1545.05,87.9763 1545.88,105.453 1546.71,122.757 1547.54,122.757 1548.37,122.757 1549.2,105.453 1550.03,105.453 1550.86,122.757 1551.69,87.9763 1552.52,87.9763 1553.35,87.9763 1554.18,122.757 1555,105.453 1555.83,105.453 1556.66,139.891 1557.49,122.757 1558.32,87.9763 1559.15,105.453 1559.98,105.453 1560.81,139.891 1561.64,87.9763 1562.47,105.453 1563.3,87.9763 1564.13,87.9763 1564.96,105.453 1565.79,105.453 1566.61,122.757 1567.44,122.757 1568.27,87.9763 1569.1,122.757 1569.93,87.9763 1570.76,105.453 1571.59,122.757 1572.42,105.453 1573.25,105.453 1574.08,105.453 1574.91,105.453 1575.74,122.757 1576.57,122.757 1577.4,105.453 1578.23,87.9763 1579.05,122.757 1579.88,139.891 1580.71,105.453 1581.54,105.453 1582.37,139.891 1583.2,87.9763 1584.03,105.453 1584.86,122.757 1585.69,87.9763 1586.52,105.453 1587.35,105.453 1588.18,105.453 1589.01,105.453 1589.84,87.9763 1590.66,105.453 1591.49,87.9763 1592.32,139.891 1593.15,87.9763 1593.98,87.9763 1594.81,105.453 1595.64,105.453 1596.47,105.453 1597.3,139.891 1598.13,122.757 1598.96,122.757 1599.79,87.9763 1600.62,105.453 1601.45,87.9763 1602.27,87.9763 1603.1,139.891 1603.93,87.9763 1604.76,87.9763 1605.59,105.453 1606.42,105.453 1607.25,87.9763 1608.08,105.453 1608.91,105.453 1609.74,87.9763 1610.57,156.856 1611.4,122.757 1612.23,139.891 1613.06,105.453 1613.88,105.453 1614.71,122.757 1615.54,122.757 1616.37,105.453 1617.2,122.757 1618.03,87.9763 1618.86,122.757 1619.69,87.9763 1620.52,87.9763 1621.35,87.9763 1622.18,105.453 1623.01,87.9763 1623.84,122.757 1624.67,105.453 1625.49,122.757 1626.32,105.453 1627.15,87.9763 1627.98,122.757 1628.81,122.757 1629.64,105.453 1630.47,122.757 1631.3,105.453 1632.13,122.757 1632.96,105.453 1633.79,156.856 1634.62,139.891 1635.45,105.453 1636.28,87.9763 1637.1,173.656 1637.93,139.891 1638.76,105.453 1639.59,105.453 1640.42,139.891 1641.25,105.453 1642.08,87.9763 1642.91,122.757 1643.74,87.9763 1644.57,87.9763 1645.4,122.757 1646.23,105.453 1647.06,105.453 1647.89,122.757 1648.71,87.9763 1649.54,105.453 1650.37,105.453 1651.2,105.453 1652.03,87.9763 1652.86,87.9763 1653.69,105.453 1654.52,105.453 1655.35,122.757 1656.18,105.453 1657.01,87.9763 1657.84,105.453 1658.67,105.453 1659.5,105.453 1660.32,122.757 1661.15,105.453 1661.98,105.453 1662.81,105.453 1663.64,105.453 1664.47,87.9763 1665.3,122.757 1666.13,87.9763 1666.96,87.9763 1667.79,105.453 1668.62,105.453 1669.45,87.9763 1670.28,122.757 1671.11,87.9763 1671.93,87.9763 1672.76,105.453 1673.59,105.453 1674.42,87.9763 1675.25,87.9763 1676.08,87.9763 1676.91,105.453 1677.74,87.9763 1678.57,105.453 1679.4,122.757 1680.23,87.9763 1681.06,122.757 1681.89,87.9763 1682.72,87.9763 1683.54,87.9763 1684.37,87.9763 1685.2,87.9763 1686.03,122.757 1686.86,105.453 1687.69,87.9763 1688.52,122.757 1689.35,87.9763 1690.18,122.757 1691.01,87.9763 1691.84,87.9763 1692.67,105.453 1693.5,87.9763 1694.33,105.453 1695.15,122.757 1695.98,87.9763 1696.81,87.9763 1697.64,105.453 1698.47,105.453 1699.3,105.453 1700.13,122.757 1700.96,87.9763 1701.79,87.9763 1702.62,87.9763 1703.45,122.757 1704.28,122.757 1705.11,87.9763 1705.94,87.9763 1706.76,87.9763 1707.59,87.9763 1708.42,87.9763 1709.25,122.757 1710.08,122.757 1710.91,105.453 1711.74,87.9763 1712.57,87.9763 1713.4,139.891 1714.23,87.9763 1715.06,122.757 1715.89,122.757 1716.72,122.757 1717.55,122.757 1718.37,87.9763 1719.2,105.453 1720.03,87.9763 1720.86,122.757 1721.69,122.757 1722.52,87.9763 1723.35,87.9763 1724.18,87.9763 1725.01,87.9763 1725.84,105.453 1726.67,87.9763 1727.5,105.453 1728.33,105.453 1729.16,105.453 1729.98,122.757 1730.81,87.9763 1731.64,139.891 1732.47,139.891 1733.3,87.9763 1734.13,87.9763 1734.96,122.757 1735.79,87.9763 1736.62,105.453 1737.45,87.9763 1738.28,122.757 1739.11,122.757 1739.94,105.453 1740.77,105.453 1741.59,87.9763 1742.42,105.453 1743.25,87.9763 1744.08,87.9763 1744.91,105.453 1745.74,105.453 1746.57,87.9763 1747.4,87.9763 1748.23,105.453 1749.06,87.9763 1749.89,122.757 1750.72,139.891 1751.55,105.453 1752.38,122.757 1753.2,122.757 1754.03,87.9763 1754.86,139.891 1755.69,105.453 1756.52,105.453 1757.35,122.757 1758.18,87.9763 1759.01,87.9763 1759.84,105.453 1760.67,105.453 1761.5,87.9763 1762.33,122.757 1763.16,105.453 1763.99,105.453 1764.81,87.9763 1765.64,122.757 1766.47,87.9763 1767.3,105.453 1768.13,105.453 1768.96,87.9763 1769.79,139.891 1770.62,105.453 1771.45,105.453 1772.28,122.757 1773.11,122.757 1773.94,122.757 1774.77,105.453 1775.6,87.9763 1776.43,105.453 1777.25,105.453 1778.08,87.9763 1778.91,105.453 1779.74,87.9763 1780.57,87.9763 1781.4,122.757 1782.23,87.9763 1783.06,122.757 1783.89,87.9763 1784.72,87.9763 1785.55,87.9763 1786.38,139.891 1787.21,105.453 1788.04,87.9763 1788.86,122.757 1789.69,87.9763 1790.52,87.9763 1791.35,105.453 1792.18,87.9763 1793.01,87.9763 1793.84,122.757 1794.67,105.453 1795.5,87.9763 1796.33,105.453 1797.16,105.453 1797.99,87.9763 1798.82,87.9763 1799.65,87.9763 1800.47,87.9763 1801.3,105.453 1802.13,87.9763 1802.96,105.453 1803.79,87.9763 1804.62,105.453 1805.45,105.453 1806.28,87.9763 1807.11,105.453 1807.94,87.9763 1808.77,87.9763 1809.6,139.891 1810.43,105.453 1811.26,105.453 1812.08,87.9763 1812.91,87.9763 1813.74,87.9763 1814.57,105.453 1815.4,156.856 1816.23,105.453 1817.06,122.757 1817.89,105.453 1818.72,87.9763 1819.55,105.453 1820.38,105.453 1821.21,105.453 1822.04,122.757 1822.87,105.453 1823.69,122.757 1824.52,87.9763 1825.35,156.856 1826.18,87.9763 1827.01,87.9763 1827.84,105.453 1828.67,122.757 1829.5,105.453 1830.33,105.453 1831.16,105.453 1831.99,105.453 1832.82,87.9763 1833.65,87.9763 1834.48,122.757 1835.3,105.453 1836.13,105.453 1836.96,105.453 1837.79,87.9763 1838.62,122.757 1839.45,122.757 1840.28,87.9763 1841.11,105.453 1841.94,105.453 1842.77,105.453 1843.6,87.9763 1844.43,105.453 1845.26,173.656 1846.09,105.453 1846.91,122.757 1847.74,87.9763 1848.57,87.9763 1849.4,87.9763 1850.23,87.9763 1851.06,105.453 1851.89,105.453 1852.72,122.757 1853.55,87.9763 1854.38,105.453 1855.21,87.9763 1856.04,87.9763 1856.87,105.453 1857.7,105.453 1858.52,87.9763 1859.35,87.9763 1860.18,87.9763 1861.01,105.453 1861.84,122.757 1862.67,122.757 1863.5,105.453 1864.33,87.9763 1865.16,105.453 1865.99,87.9763 1866.82,105.453 1867.65,87.9763 1868.48,105.453 1869.31,87.9763 1870.13,105.453 1870.96,87.9763 1871.79,87.9763 1872.62,105.453 1873.45,87.9763 1874.28,87.9763 1875.11,87.9763 1875.94,105.453 1876.77,105.453 1877.6,122.757 1878.43,105.453 1879.26,122.757 1880.09,87.9763 1880.92,87.9763 1881.74,105.453 1882.57,139.891 1883.4,105.453 1884.23,87.9763 1885.06,122.757 1885.89,87.9763 1886.72,87.9763 1887.55,87.9763 1888.38,139.891 1889.21,122.757 1890.04,87.9763 1890.87,87.9763 1891.7,87.9763 1892.53,122.757 1893.35,87.9763 1894.18,87.9763 1895.01,122.757 1895.84,122.757 1896.67,139.891 1897.5,139.891 1898.33,105.453 1899.16,105.453 1899.99,105.453 1900.82,105.453 1901.65,105.453 1902.48,105.453 1903.31,87.9763 1904.14,105.453 1904.96,105.453 1905.79,87.9763 1906.62,87.9763 1907.45,105.453 1908.28,122.757 1909.11,87.9763 1909.94,105.453 1910.77,87.9763 1911.6,87.9763 1912.43,139.891 1913.26,87.9763 1914.09,87.9763 1914.92,105.453 1915.75,105.453 1916.57,87.9763 1917.4,87.9763 1918.23,122.757 1919.06,105.453 1919.89,105.453 1920.72,87.9763 1921.55,122.757 1922.38,139.891 1923.21,105.453 1924.04,87.9763 1924.87,105.453 1925.7,87.9763 1926.53,105.453 1927.36,105.453 1928.18,87.9763 1929.01,87.9763 1929.84,105.453 1930.67,122.757 1931.5,139.891 1932.33,105.453 1933.16,87.9763 1933.99,87.9763 1934.82,87.9763 1935.65,87.9763 1936.48,105.453 1937.31,105.453 1938.14,105.453 1938.97,87.9763 1939.79,139.891 1940.62,87.9763 1941.45,87.9763 1942.28,122.757 1943.11,87.9763 1943.94,122.757 1944.77,122.757 1945.6,87.9763 1946.43,122.757 1947.26,105.453 1948.09,105.453 1948.92,87.9763 1949.75,139.891 1950.58,105.453 1951.4,122.757 1952.23,105.453 1953.06,87.9763 1953.89,87.9763 1954.72,105.453 1955.55,105.453 1956.38,87.9763 1957.21,105.453 1958.04,122.757 1958.87,122.757 1959.7,87.9763 1960.53,105.453 1961.36,122.757 1962.19,139.891 1963.02,122.757 1963.84,87.9763 1964.67,105.453 1965.5,122.757 1966.33,105.453 1967.16,87.9763 1967.99,105.453 1968.82,105.453 1969.65,105.453 1970.48,105.453 1971.31,105.453 1972.14,105.453 1972.97,105.453 1973.8,87.9763 1974.63,87.9763 1975.45,122.757 1976.28,87.9763 1977.11,87.9763 1977.94,105.453 1978.77,122.757 1979.6,105.453 1980.43,87.9763 1981.26,87.9763 1982.09,105.453 1982.92,122.757 1983.75,87.9763 1984.58,87.9763 1985.41,87.9763 1986.24,87.9763 1987.06,87.9763 1987.89,105.453 1988.72,105.453 1989.55,105.453 1990.38,87.9763 1991.21,87.9763 1992.04,87.9763 1992.87,87.9763 1993.7,87.9763 1994.53,87.9763 1995.36,105.453 1996.19,139.891 1997.02,87.9763 1997.85,87.9763 1998.67,139.891 1999.5,156.856 2000.33,105.453 2001.16,105.453 2001.99,105.453 2002.82,105.453 2003.65,105.453 2004.48,87.9763 2005.31,87.9763 2006.14,122.757 2006.97,87.9763 2007.8,122.757 2008.63,105.453 2009.46,87.9763 2010.28,105.453 2011.11,105.453 2011.94,105.453 2012.77,87.9763 2013.6,87.9763 2014.43,105.453 2015.26,87.9763 2016.09,105.453 2016.92,87.9763 2017.75,105.453 2018.58,105.453 2019.41,87.9763 2020.24,87.9763 2021.07,87.9763 2021.89,122.757 2022.72,105.453 2023.55,87.9763 2024.38,105.453 2025.21,122.757 2026.04,105.453 2026.87,105.453 2027.7,105.453 2028.53,105.453 2029.36,87.9763 2030.19,87.9763 2031.02,105.453 2031.85,122.757 2032.68,105.453 2033.5,87.9763 2034.33,105.453 2035.16,122.757 2035.99,87.9763 2036.82,87.9763 2037.65,87.9763 2038.48,105.453 2039.31,87.9763 2040.14,87.9763 2040.97,122.757 2041.8,122.757 2042.63,87.9763 2043.46,105.453 2044.29,105.453 2045.11,87.9763 2045.94,87.9763 2046.77,87.9763 2047.6,122.757 2048.43,105.453 2049.26,87.9763 2050.09,105.453 2050.92,105.453 2051.75,87.9763 2052.58,122.757 2053.41,105.453 2054.24,105.453 2055.07,122.757 2055.9,122.757 2056.72,105.453 2057.55,87.9763 2058.38,105.453 2059.21,122.757 2060.04,122.757 2060.87,173.656 2061.7,87.9763 2062.53,87.9763 2063.36,87.9763 2064.19,105.453 2065.02,87.9763 2065.85,87.9763 2066.68,139.891 2067.51,122.757 2068.33,87.9763 2069.16,105.453 2069.99,105.453 2070.82,87.9763 2071.65,105.453 2072.48,122.757 2073.31,105.453 2074.14,105.453 2074.97,87.9763 2075.8,122.757 2076.63,122.757 2077.46,87.9763 2078.29,87.9763 2079.12,87.9763 2079.94,139.891 2080.77,105.453 2081.6,87.9763 2082.43,87.9763 2083.26,87.9763 2084.09,105.453 2084.92,87.9763 2085.75,87.9763 2086.58,87.9763 2087.41,87.9763 2088.24,122.757 2089.07,105.453 2089.9,105.453 2090.73,122.757 2091.55,87.9763 2092.38,122.757 2093.21,87.9763 2094.04,105.453 2094.87,87.9763 2095.7,87.9763 2096.53,105.453 2097.36,87.9763 2098.19,122.757 2099.02,105.453 2099.85,105.453 2100.68,105.453 2101.51,87.9763 2102.34,87.9763 2103.16,87.9763 2103.99,105.453 2104.82,87.9763 2105.65,105.453 2106.48,105.453 2107.31,87.9763 2108.14,87.9763 2108.97,87.9763 2109.8,87.9763 2110.63,87.9763 2111.46,122.757 2112.29,87.9763 2113.12,105.453 2113.95,122.757 2114.77,105.453 2115.6,87.9763 2116.43,105.453 2117.26,122.757 2118.09,87.9763 2118.92,139.891 2119.75,105.453 2120.58,87.9763 2121.41,87.9763 2122.24,87.9763 2123.07,87.9763 2123.9,87.9763 2124.73,87.9763 2125.56,122.757 2126.38,105.453 2127.21,87.9763 2128.04,87.9763 2128.87,105.453 2129.7,105.453 2130.53,87.9763 2131.36,105.453 2132.19,105.453 2133.02,87.9763 2133.85,87.9763 2134.68,122.757 2135.51,122.757 2136.34,87.9763 2137.17,87.9763 2137.99,87.9763 2138.82,105.453 2139.65,87.9763 2140.48,122.757 2141.31,105.453 2142.14,122.757 2142.97,87.9763 2143.8,87.9763 2144.63,139.891 2145.46,87.9763 2146.29,105.453 2147.12,105.453 2147.95,87.9763 2148.78,105.453 2149.61,139.891 2150.43,105.453 2151.26,105.453 2152.09,87.9763 2152.92,105.453 2153.75,105.453 2154.58,87.9763 2155.41,139.891 2156.24,139.891 2157.07,105.453 2157.9,87.9763 2158.73,87.9763 2159.56,122.757 2160.39,105.453 2161.22,105.453 2162.04,87.9763 2162.87,87.9763 2163.7,105.453 2164.53,105.453 2165.36,122.757 2166.19,139.891 2167.02,87.9763 2167.85,105.453 2168.68,87.9763 2169.51,87.9763 2170.34,105.453 2171.17,87.9763 2172,87.9763 2172.83,105.453 2173.65,105.453 2174.48,105.453 2175.31,87.9763 2176.14,87.9763 2176.97,105.453 2177.8,105.453 2178.63,105.453 2179.46,87.9763 2180.29,87.9763 2181.12,105.453 2181.95,87.9763 2182.78,122.757 2183.61,139.891 2184.44,122.757 2185.26,105.453 2186.09,139.891 2186.92,87.9763 2187.75,122.757 2188.58,105.453 2189.41,105.453 2190.24,87.9763 2191.07,87.9763 2191.9,87.9763 2192.73,87.9763 2193.56,87.9763 2194.39,122.757 2195.22,105.453 2196.05,87.9763 2196.87,105.453 2197.7,87.9763 2198.53,87.9763 2199.36,87.9763 2200.19,105.453 2201.02,105.453 2201.85,87.9763 2202.68,87.9763 2203.51,122.757 2204.34,87.9763 2205.17,87.9763 2206,87.9763 2206.83,105.453 2207.66,122.757 2208.48,122.757 2209.31,87.9763 2210.14,87.9763 2210.97,105.453 2211.8,139.891 2212.63,105.453 2213.46,139.891 2214.29,122.757 2215.12,87.9763 2215.95,87.9763 2216.78,87.9763 2217.61,105.453 2218.44,105.453 2219.27,87.9763 2220.09,87.9763 2220.92,105.453 2221.75,87.9763 2222.58,87.9763 2223.41,105.453 2224.24,87.9763 2225.07,87.9763 2225.9,87.9763 2226.73,87.9763 2227.56,87.9763 2228.39,105.453 2229.22,105.453 2230.05,87.9763 2230.88,139.891 2231.7,122.757 2232.53,87.9763 2233.36,105.453 2234.19,87.9763 2235.02,87.9763 2235.85,105.453 2236.68,87.9763 2237.51,105.453 2238.34,87.9763 2239.17,105.453 2240,105.453 2240.83,87.9763 2241.66,87.9763 2242.49,105.453 2243.31,122.757 2244.14,87.9763 2244.97,105.453 2245.8,122.757 2246.63,87.9763 2247.46,87.9763 2248.29,105.453 2249.12,87.9763 2249.95,87.9763 2250.78,87.9763 2251.61,122.757 2252.44,122.757 2253.27,87.9763 2254.1,105.453 2254.92,87.9763 2255.75,87.9763 2256.58,105.453 2257.41,87.9763 2258.24,87.9763 2259.07,105.453 2259.9,122.757 2260.73,87.9763 2261.56,87.9763 2262.39,122.757 2263.22,87.9763 2264.05,105.453 2264.88,87.9763 2265.71,87.9763 2266.53,105.453 2267.36,87.9763 2268.19,105.453 2269.02,122.757 2269.85,156.856 2270.68,87.9763 2271.51,87.9763 2272.34,87.9763 2273.17,105.453 2274,87.9763 2274.83,87.9763 2275.66,105.453 2276.49,87.9763 2277.32,122.757 2278.14,105.453 2278.97,87.9763 2279.8,87.9763 2280.63,87.9763 2281.46,105.453 2282.29,87.9763 2283.12,87.9763 2283.95,87.9763 2284.78,139.891 2285.61,105.453 2286.44,139.891 2287.27,87.9763 2288.1,87.9763 2288.93,87.9763 2289.75,87.9763 2290.58,87.9763 "/>
<path clip-path="url(#clip340)" d="M2007.43 1438.47 L2279.53 1438.47 L2279.53 1334.79 L2007.43 1334.79  Z" fill="#ffffff" fill-rule="evenodd" fill-opacity="1"/>
<polyline clip-path="url(#clip340)" style="stroke:#000000; stroke-linecap:round; stroke-linejoin:round; stroke-width:4; stroke-opacity:1; fill:none" points="2007.43,1438.47 2279.53,1438.47 2279.53,1334.79 2007.43,1334.79 2007.43,1438.47 "/>
<polyline clip-path="url(#clip340)" style="stroke:#009af9; stroke-linecap:round; stroke-linejoin:round; stroke-width:4; stroke-opacity:1; fill:none" points="2031.84,1386.63 2178.28,1386.63 "/>
<path clip-path="url(#clip340)" d="M2216.54 1406.32 Q2214.73 1410.95 2213.02 1412.36 Q2211.3 1413.78 2208.43 1413.78 L2205.03 1413.78 L2205.03 1410.21 L2207.53 1410.21 Q2209.29 1410.21 2210.26 1409.38 Q2211.23 1408.54 2212.42 1405.44 L2213.18 1403.5 L2202.69 1377.99 L2207.21 1377.99 L2215.31 1398.27 L2223.41 1377.99 L2227.92 1377.99 L2216.54 1406.32 Z" fill="#000000" fill-rule="nonzero" fill-opacity="1" /><path clip-path="url(#clip340)" d="M2235.22 1399.98 L2242.85 1399.98 L2242.85 1373.61 L2234.54 1375.28 L2234.54 1371.02 L2242.81 1369.35 L2247.48 1369.35 L2247.48 1399.98 L2255.12 1399.98 L2255.12 1403.91 L2235.22 1403.91 L2235.22 1399.98 Z" fill="#000000" fill-rule="nonzero" fill-opacity="1" /></svg>
