<?xml version="1.0" encoding="utf-8"?>
<svg xmlns="http://www.w3.org/2000/svg" xmlns:xlink="http://www.w3.org/1999/xlink" width="600" height="400" viewBox="0 0 2400 1600">
<defs>
  <clipPath id="clip680">
    <rect x="0" y="0" width="2400" height="1600"/>
  </clipPath>
</defs>
<path clip-path="url(#clip680)" d="M0 1600 L2400 1600 L2400 0 L0 0  Z" fill="#ffffff" fill-rule="evenodd" fill-opacity="1"/>
<defs>
  <clipPath id="clip681">
    <rect x="480" y="0" width="1681" height="1600"/>
  </clipPath>
</defs>
<path clip-path="url(#clip680)" d="M156.02 1486.45 L2352.76 1486.45 L2352.76 47.2441 L156.02 47.2441  Z" fill="#ffffff" fill-rule="evenodd" fill-opacity="1"/>
<defs>
  <clipPath id="clip682">
    <rect x="156" y="47" width="2198" height="1440"/>
  </clipPath>
</defs>
<polyline clip-path="url(#clip682)" style="stroke:#000000; stroke-linecap:round; stroke-linejoin:round; stroke-width:2; stroke-opacity:0.1; fill:none" points="218.191,1486.45 218.191,47.2441 "/>
<polyline clip-path="url(#clip682)" style="stroke:#000000; stroke-linecap:round; stroke-linejoin:round; stroke-width:2; stroke-opacity:0.1; fill:none" points="632.836,1486.45 632.836,47.2441 "/>
<polyline clip-path="url(#clip682)" style="stroke:#000000; stroke-linecap:round; stroke-linejoin:round; stroke-width:2; stroke-opacity:0.1; fill:none" points="1047.48,1486.45 1047.48,47.2441 "/>
<polyline clip-path="url(#clip682)" style="stroke:#000000; stroke-linecap:round; stroke-linejoin:round; stroke-width:2; stroke-opacity:0.1; fill:none" points="1462.12,1486.45 1462.12,47.2441 "/>
<polyline clip-path="url(#clip682)" style="stroke:#000000; stroke-linecap:round; stroke-linejoin:round; stroke-width:2; stroke-opacity:0.1; fill:none" points="1876.77,1486.45 1876.77,47.2441 "/>
<polyline clip-path="url(#clip682)" style="stroke:#000000; stroke-linecap:round; stroke-linejoin:round; stroke-width:2; stroke-opacity:0.1; fill:none" points="2291.41,1486.45 2291.41,47.2441 "/>
<polyline clip-path="url(#clip680)" style="stroke:#000000; stroke-linecap:round; stroke-linejoin:round; stroke-width:4; stroke-opacity:1; fill:none" points="156.02,1486.45 2352.76,1486.45 "/>
<polyline clip-path="url(#clip680)" style="stroke:#000000; stroke-linecap:round; stroke-linejoin:round; stroke-width:4; stroke-opacity:1; fill:none" points="218.191,1486.45 218.191,1467.55 "/>
<polyline clip-path="url(#clip680)" style="stroke:#000000; stroke-linecap:round; stroke-linejoin:round; stroke-width:4; stroke-opacity:1; fill:none" points="632.836,1486.45 632.836,1467.55 "/>
<polyline clip-path="url(#clip680)" style="stroke:#000000; stroke-linecap:round; stroke-linejoin:round; stroke-width:4; stroke-opacity:1; fill:none" points="1047.48,1486.45 1047.48,1467.55 "/>
<polyline clip-path="url(#clip680)" style="stroke:#000000; stroke-linecap:round; stroke-linejoin:round; stroke-width:4; stroke-opacity:1; fill:none" points="1462.12,1486.45 1462.12,1467.55 "/>
<polyline clip-path="url(#clip680)" style="stroke:#000000; stroke-linecap:round; stroke-linejoin:round; stroke-width:4; stroke-opacity:1; fill:none" points="1876.77,1486.45 1876.77,1467.55 "/>
<polyline clip-path="url(#clip680)" style="stroke:#000000; stroke-linecap:round; stroke-linejoin:round; stroke-width:4; stroke-opacity:1; fill:none" points="2291.41,1486.45 2291.41,1467.55 "/>
<path clip-path="url(#clip680)" d="M218.191 1517.37 Q214.58 1517.37 212.752 1520.93 Q210.946 1524.47 210.946 1531.6 Q210.946 1538.71 212.752 1542.27 Q214.58 1545.82 218.191 1545.82 Q221.826 1545.82 223.631 1542.27 Q225.46 1538.71 225.46 1531.6 Q225.46 1524.47 223.631 1520.93 Q221.826 1517.37 218.191 1517.37 M218.191 1513.66 Q224.001 1513.66 227.057 1518.27 Q230.136 1522.85 230.136 1531.6 Q230.136 1540.33 227.057 1544.94 Q224.001 1549.52 218.191 1549.52 Q212.381 1549.52 209.302 1544.94 Q206.247 1540.33 206.247 1531.6 Q206.247 1522.85 209.302 1518.27 Q212.381 1513.66 218.191 1513.66 Z" fill="#000000" fill-rule="nonzero" fill-opacity="1" /><path clip-path="url(#clip680)" d="M592.454 1514.29 L610.81 1514.29 L610.81 1518.22 L596.736 1518.22 L596.736 1526.7 Q597.755 1526.35 598.773 1526.19 Q599.792 1526 600.81 1526 Q606.597 1526 609.977 1529.17 Q613.357 1532.34 613.357 1537.76 Q613.357 1543.34 609.884 1546.44 Q606.412 1549.52 600.093 1549.52 Q597.917 1549.52 595.648 1549.15 Q593.403 1548.78 590.996 1548.04 L590.996 1543.34 Q593.079 1544.47 595.301 1545.03 Q597.523 1545.58 600 1545.58 Q604.005 1545.58 606.343 1543.48 Q608.681 1541.37 608.681 1537.76 Q608.681 1534.15 606.343 1532.04 Q604.005 1529.94 600 1529.94 Q598.125 1529.94 596.25 1530.35 Q594.398 1530.77 592.454 1531.65 L592.454 1514.29 Z" fill="#000000" fill-rule="nonzero" fill-opacity="1" /><path clip-path="url(#clip680)" d="M632.57 1517.37 Q628.958 1517.37 627.13 1520.93 Q625.324 1524.47 625.324 1531.6 Q625.324 1538.71 627.13 1542.27 Q628.958 1545.82 632.57 1545.82 Q636.204 1545.82 638.009 1542.27 Q639.838 1538.71 639.838 1531.6 Q639.838 1524.47 638.009 1520.93 Q636.204 1517.37 632.57 1517.37 M632.57 1513.66 Q638.38 1513.66 641.435 1518.27 Q644.514 1522.85 644.514 1531.6 Q644.514 1540.33 641.435 1544.94 Q638.38 1549.52 632.57 1549.52 Q626.759 1549.52 623.681 1544.94 Q620.625 1540.33 620.625 1531.6 Q620.625 1522.85 623.681 1518.27 Q626.759 1513.66 632.57 1513.66 Z" fill="#000000" fill-rule="nonzero" fill-opacity="1" /><path clip-path="url(#clip680)" d="M662.731 1517.37 Q659.12 1517.37 657.292 1520.93 Q655.486 1524.47 655.486 1531.6 Q655.486 1538.71 657.292 1542.27 Q659.12 1545.82 662.731 1545.82 Q666.366 1545.82 668.171 1542.27 Q670 1538.71 670 1531.6 Q670 1524.47 668.171 1520.93 Q666.366 1517.37 662.731 1517.37 M662.731 1513.66 Q668.542 1513.66 671.597 1518.27 Q674.676 1522.85 674.676 1531.6 Q674.676 1540.33 671.597 1544.94 Q668.542 1549.52 662.731 1549.52 Q656.921 1549.52 653.843 1544.94 Q650.787 1540.33 650.787 1531.6 Q650.787 1522.85 653.843 1518.27 Q656.921 1513.66 662.731 1513.66 Z" fill="#000000" fill-rule="nonzero" fill-opacity="1" /><path clip-path="url(#clip680)" d="M992.006 1544.91 L999.645 1544.91 L999.645 1518.55 L991.335 1520.21 L991.335 1515.95 L999.598 1514.29 L1004.27 1514.29 L1004.27 1544.91 L1011.91 1544.91 L1011.91 1548.85 L992.006 1548.85 L992.006 1544.91 Z" fill="#000000" fill-rule="nonzero" fill-opacity="1" /><path clip-path="url(#clip680)" d="M1031.36 1517.37 Q1027.75 1517.37 1025.92 1520.93 Q1024.11 1524.47 1024.11 1531.6 Q1024.11 1538.71 1025.92 1542.27 Q1027.75 1545.82 1031.36 1545.82 Q1034.99 1545.82 1036.8 1542.27 Q1038.63 1538.71 1038.63 1531.6 Q1038.63 1524.47 1036.8 1520.93 Q1034.99 1517.37 1031.36 1517.37 M1031.36 1513.66 Q1037.17 1513.66 1040.22 1518.27 Q1043.3 1522.85 1043.3 1531.6 Q1043.3 1540.33 1040.22 1544.94 Q1037.17 1549.52 1031.36 1549.52 Q1025.55 1549.52 1022.47 1544.94 Q1019.41 1540.33 1019.41 1531.6 Q1019.41 1522.85 1022.47 1518.27 Q1025.55 1513.66 1031.36 1513.66 Z" fill="#000000" fill-rule="nonzero" fill-opacity="1" /><path clip-path="url(#clip680)" d="M1061.52 1517.37 Q1057.91 1517.37 1056.08 1520.93 Q1054.27 1524.47 1054.27 1531.6 Q1054.27 1538.71 1056.08 1542.27 Q1057.91 1545.82 1061.52 1545.82 Q1065.15 1545.82 1066.96 1542.27 Q1068.79 1538.71 1068.79 1531.6 Q1068.79 1524.47 1066.96 1520.93 Q1065.15 1517.37 1061.52 1517.37 M1061.52 1513.66 Q1067.33 1513.66 1070.39 1518.27 Q1073.46 1522.85 1073.46 1531.6 Q1073.46 1540.33 1070.39 1544.94 Q1067.33 1549.52 1061.52 1549.52 Q1055.71 1549.52 1052.63 1544.94 Q1049.58 1540.33 1049.58 1531.6 Q1049.58 1522.85 1052.63 1518.27 Q1055.71 1513.66 1061.52 1513.66 Z" fill="#000000" fill-rule="nonzero" fill-opacity="1" /><path clip-path="url(#clip680)" d="M1091.68 1517.37 Q1088.07 1517.37 1086.24 1520.93 Q1084.44 1524.47 1084.44 1531.6 Q1084.44 1538.71 1086.24 1542.27 Q1088.07 1545.82 1091.68 1545.82 Q1095.32 1545.82 1097.12 1542.27 Q1098.95 1538.71 1098.95 1531.6 Q1098.95 1524.47 1097.12 1520.93 Q1095.32 1517.37 1091.68 1517.37 M1091.68 1513.66 Q1097.49 1513.66 1100.55 1518.27 Q1103.63 1522.85 1103.63 1531.6 Q1103.63 1540.33 1100.55 1544.94 Q1097.49 1549.52 1091.68 1549.52 Q1085.87 1549.52 1082.79 1544.94 Q1079.74 1540.33 1079.74 1531.6 Q1079.74 1522.85 1082.79 1518.27 Q1085.87 1513.66 1091.68 1513.66 Z" fill="#000000" fill-rule="nonzero" fill-opacity="1" /><path clip-path="url(#clip680)" d="M1406.65 1544.91 L1414.29 1544.91 L1414.29 1518.55 L1405.98 1520.21 L1405.98 1515.95 L1414.24 1514.29 L1418.92 1514.29 L1418.92 1544.91 L1426.56 1544.91 L1426.56 1548.85 L1406.65 1548.85 L1406.65 1544.91 Z" fill="#000000" fill-rule="nonzero" fill-opacity="1" /><path clip-path="url(#clip680)" d="M1436.05 1514.29 L1454.4 1514.29 L1454.4 1518.22 L1440.33 1518.22 L1440.33 1526.7 Q1441.35 1526.35 1442.37 1526.19 Q1443.39 1526 1444.4 1526 Q1450.19 1526 1453.57 1529.17 Q1456.95 1532.34 1456.95 1537.76 Q1456.95 1543.34 1453.48 1546.44 Q1450.01 1549.52 1443.69 1549.52 Q1441.51 1549.52 1439.24 1549.15 Q1437 1548.78 1434.59 1548.04 L1434.59 1543.34 Q1436.67 1544.47 1438.9 1545.03 Q1441.12 1545.58 1443.59 1545.58 Q1447.6 1545.58 1449.94 1543.48 Q1452.28 1541.37 1452.28 1537.76 Q1452.28 1534.15 1449.94 1532.04 Q1447.6 1529.94 1443.59 1529.94 Q1441.72 1529.94 1439.84 1530.35 Q1437.99 1530.77 1436.05 1531.65 L1436.05 1514.29 Z" fill="#000000" fill-rule="nonzero" fill-opacity="1" /><path clip-path="url(#clip680)" d="M1476.16 1517.37 Q1472.55 1517.37 1470.72 1520.93 Q1468.92 1524.47 1468.92 1531.6 Q1468.92 1538.71 1470.72 1542.27 Q1472.55 1545.82 1476.16 1545.82 Q1479.8 1545.82 1481.6 1542.27 Q1483.43 1538.71 1483.43 1531.6 Q1483.43 1524.47 1481.6 1520.93 Q1479.8 1517.37 1476.16 1517.37 M1476.16 1513.66 Q1481.97 1513.66 1485.03 1518.27 Q1488.11 1522.85 1488.11 1531.6 Q1488.11 1540.33 1485.03 1544.94 Q1481.97 1549.52 1476.16 1549.52 Q1470.35 1549.52 1467.28 1544.94 Q1464.22 1540.33 1464.22 1531.6 Q1464.22 1522.85 1467.28 1518.27 Q1470.35 1513.66 1476.16 1513.66 Z" fill="#000000" fill-rule="nonzero" fill-opacity="1" /><path clip-path="url(#clip680)" d="M1506.33 1517.37 Q1502.71 1517.37 1500.89 1520.93 Q1499.08 1524.47 1499.08 1531.6 Q1499.08 1538.71 1500.89 1542.27 Q1502.71 1545.82 1506.33 1545.82 Q1509.96 1545.82 1511.77 1542.27 Q1513.59 1538.71 1513.59 1531.6 Q1513.59 1524.47 1511.77 1520.93 Q1509.96 1517.37 1506.33 1517.37 M1506.33 1513.66 Q1512.14 1513.66 1515.19 1518.27 Q1518.27 1522.85 1518.27 1531.6 Q1518.27 1540.33 1515.19 1544.94 Q1512.14 1549.52 1506.33 1549.52 Q1500.52 1549.52 1497.44 1544.94 Q1494.38 1540.33 1494.38 1531.6 Q1494.38 1522.85 1497.44 1518.27 Q1500.52 1513.66 1506.33 1513.66 Z" fill="#000000" fill-rule="nonzero" fill-opacity="1" /><path clip-path="url(#clip680)" d="M1825.38 1544.91 L1841.7 1544.91 L1841.7 1548.85 L1819.76 1548.85 L1819.76 1544.91 Q1822.42 1542.16 1827 1537.53 Q1831.61 1532.88 1832.79 1531.53 Q1835.03 1529.01 1835.91 1527.27 Q1836.82 1525.51 1836.82 1523.82 Q1836.82 1521.07 1834.87 1519.33 Q1832.95 1517.6 1829.85 1517.6 Q1827.65 1517.6 1825.2 1518.36 Q1822.76 1519.13 1819.99 1520.68 L1819.99 1515.95 Q1822.81 1514.82 1825.26 1514.24 Q1827.72 1513.66 1829.76 1513.66 Q1835.13 1513.66 1838.32 1516.35 Q1841.51 1519.03 1841.51 1523.52 Q1841.51 1525.65 1840.7 1527.57 Q1839.92 1529.47 1837.81 1532.07 Q1837.23 1532.74 1834.13 1535.95 Q1831.03 1539.15 1825.38 1544.91 Z" fill="#000000" fill-rule="nonzero" fill-opacity="1" /><path clip-path="url(#clip680)" d="M1861.51 1517.37 Q1857.9 1517.37 1856.07 1520.93 Q1854.27 1524.47 1854.27 1531.6 Q1854.27 1538.71 1856.07 1542.27 Q1857.9 1545.82 1861.51 1545.82 Q1865.15 1545.82 1866.95 1542.27 Q1868.78 1538.71 1868.78 1531.6 Q1868.78 1524.47 1866.95 1520.93 Q1865.15 1517.37 1861.51 1517.37 M1861.51 1513.66 Q1867.32 1513.66 1870.38 1518.27 Q1873.46 1522.85 1873.46 1531.6 Q1873.46 1540.33 1870.38 1544.94 Q1867.32 1549.52 1861.51 1549.52 Q1855.7 1549.52 1852.63 1544.94 Q1849.57 1540.33 1849.57 1531.6 Q1849.57 1522.85 1852.63 1518.27 Q1855.7 1513.66 1861.51 1513.66 Z" fill="#000000" fill-rule="nonzero" fill-opacity="1" /><path clip-path="url(#clip680)" d="M1891.68 1517.37 Q1888.07 1517.37 1886.24 1520.93 Q1884.43 1524.47 1884.43 1531.6 Q1884.43 1538.71 1886.24 1542.27 Q1888.07 1545.82 1891.68 1545.82 Q1895.31 1545.82 1897.12 1542.27 Q1898.94 1538.71 1898.94 1531.6 Q1898.94 1524.47 1897.12 1520.93 Q1895.31 1517.37 1891.68 1517.37 M1891.68 1513.66 Q1897.49 1513.66 1900.54 1518.27 Q1903.62 1522.85 1903.62 1531.6 Q1903.62 1540.33 1900.54 1544.94 Q1897.49 1549.52 1891.68 1549.52 Q1885.87 1549.52 1882.79 1544.94 Q1879.73 1540.33 1879.73 1531.6 Q1879.73 1522.85 1882.79 1518.27 Q1885.87 1513.66 1891.68 1513.66 Z" fill="#000000" fill-rule="nonzero" fill-opacity="1" /><path clip-path="url(#clip680)" d="M1921.84 1517.37 Q1918.23 1517.37 1916.4 1520.93 Q1914.59 1524.47 1914.59 1531.6 Q1914.59 1538.71 1916.4 1542.27 Q1918.23 1545.82 1921.84 1545.82 Q1925.47 1545.82 1927.28 1542.27 Q1929.11 1538.71 1929.11 1531.6 Q1929.11 1524.47 1927.28 1520.93 Q1925.47 1517.37 1921.84 1517.37 M1921.84 1513.66 Q1927.65 1513.66 1930.7 1518.27 Q1933.78 1522.85 1933.78 1531.6 Q1933.78 1540.33 1930.7 1544.94 Q1927.65 1549.52 1921.84 1549.52 Q1916.03 1549.52 1912.95 1544.94 Q1909.89 1540.33 1909.89 1531.6 Q1909.89 1522.85 1912.95 1518.27 Q1916.03 1513.66 1921.84 1513.66 Z" fill="#000000" fill-rule="nonzero" fill-opacity="1" /><path clip-path="url(#clip680)" d="M2240.02 1544.91 L2256.34 1544.91 L2256.34 1548.85 L2234.4 1548.85 L2234.4 1544.91 Q2237.06 1542.16 2241.65 1537.53 Q2246.25 1532.88 2247.43 1531.53 Q2249.68 1529.01 2250.56 1527.27 Q2251.46 1525.51 2251.46 1523.82 Q2251.46 1521.07 2249.52 1519.33 Q2247.59 1517.6 2244.49 1517.6 Q2242.29 1517.6 2239.84 1518.36 Q2237.41 1519.13 2234.63 1520.68 L2234.63 1515.95 Q2237.46 1514.82 2239.91 1514.24 Q2242.36 1513.66 2244.4 1513.66 Q2249.77 1513.66 2252.96 1516.35 Q2256.16 1519.03 2256.16 1523.52 Q2256.16 1525.65 2255.35 1527.57 Q2254.56 1529.47 2252.46 1532.07 Q2251.88 1532.74 2248.77 1535.95 Q2245.67 1539.15 2240.02 1544.91 Z" fill="#000000" fill-rule="nonzero" fill-opacity="1" /><path clip-path="url(#clip680)" d="M2266.21 1514.29 L2284.56 1514.29 L2284.56 1518.22 L2270.49 1518.22 L2270.49 1526.7 Q2271.51 1526.35 2272.52 1526.19 Q2273.54 1526 2274.56 1526 Q2280.35 1526 2283.73 1529.17 Q2287.11 1532.34 2287.11 1537.76 Q2287.11 1543.34 2283.64 1546.44 Q2280.16 1549.52 2273.84 1549.52 Q2271.67 1549.52 2269.4 1549.15 Q2267.15 1548.78 2264.75 1548.04 L2264.75 1543.34 Q2266.83 1544.47 2269.05 1545.03 Q2271.27 1545.58 2273.75 1545.58 Q2277.76 1545.58 2280.09 1543.48 Q2282.43 1541.37 2282.43 1537.76 Q2282.43 1534.15 2280.09 1532.04 Q2277.76 1529.94 2273.75 1529.94 Q2271.88 1529.94 2270 1530.35 Q2268.15 1530.77 2266.21 1531.65 L2266.21 1514.29 Z" fill="#000000" fill-rule="nonzero" fill-opacity="1" /><path clip-path="url(#clip680)" d="M2306.32 1517.37 Q2302.71 1517.37 2300.88 1520.93 Q2299.08 1524.47 2299.08 1531.6 Q2299.08 1538.71 2300.88 1542.27 Q2302.71 1545.82 2306.32 1545.82 Q2309.95 1545.82 2311.76 1542.27 Q2313.59 1538.71 2313.59 1531.6 Q2313.59 1524.47 2311.76 1520.93 Q2309.95 1517.37 2306.32 1517.37 M2306.32 1513.66 Q2312.13 1513.66 2315.19 1518.27 Q2318.27 1522.85 2318.27 1531.6 Q2318.27 1540.33 2315.19 1544.94 Q2312.13 1549.52 2306.32 1549.52 Q2300.51 1549.52 2297.43 1544.94 Q2294.38 1540.33 2294.38 1531.6 Q2294.38 1522.85 2297.43 1518.27 Q2300.51 1513.66 2306.32 1513.66 Z" fill="#000000" fill-rule="nonzero" fill-opacity="1" /><path clip-path="url(#clip680)" d="M2336.48 1517.37 Q2332.87 1517.37 2331.04 1520.93 Q2329.24 1524.47 2329.24 1531.6 Q2329.24 1538.71 2331.04 1542.27 Q2332.87 1545.82 2336.48 1545.82 Q2340.12 1545.82 2341.92 1542.27 Q2343.75 1538.71 2343.75 1531.6 Q2343.75 1524.47 2341.92 1520.93 Q2340.12 1517.37 2336.48 1517.37 M2336.48 1513.66 Q2342.29 1513.66 2345.35 1518.27 Q2348.43 1522.85 2348.43 1531.6 Q2348.43 1540.33 2345.35 1544.94 Q2342.29 1549.52 2336.48 1549.52 Q2330.67 1549.52 2327.59 1544.94 Q2324.54 1540.33 2324.54 1531.6 Q2324.54 1522.85 2327.59 1518.27 Q2330.67 1513.66 2336.48 1513.66 Z" fill="#000000" fill-rule="nonzero" fill-opacity="1" /><polyline clip-path="url(#clip682)" style="stroke:#000000; stroke-linecap:round; stroke-linejoin:round; stroke-width:2; stroke-opacity:0.1; fill:none" points="156.02,1174.17 2352.76,1174.17 "/>
<polyline clip-path="url(#clip682)" style="stroke:#000000; stroke-linecap:round; stroke-linejoin:round; stroke-width:2; stroke-opacity:0.1; fill:none" points="156.02,812.104 2352.76,812.104 "/>
<polyline clip-path="url(#clip682)" style="stroke:#000000; stroke-linecap:round; stroke-linejoin:round; stroke-width:2; stroke-opacity:0.1; fill:none" points="156.02,450.04 2352.76,450.04 "/>
<polyline clip-path="url(#clip682)" style="stroke:#000000; stroke-linecap:round; stroke-linejoin:round; stroke-width:2; stroke-opacity:0.1; fill:none" points="156.02,87.9763 2352.76,87.9763 "/>
<polyline clip-path="url(#clip680)" style="stroke:#000000; stroke-linecap:round; stroke-linejoin:round; stroke-width:4; stroke-opacity:1; fill:none" points="156.02,1486.45 156.02,47.2441 "/>
<polyline clip-path="url(#clip680)" style="stroke:#000000; stroke-linecap:round; stroke-linejoin:round; stroke-width:4; stroke-opacity:1; fill:none" points="156.02,1174.17 174.917,1174.17 "/>
<polyline clip-path="url(#clip680)" style="stroke:#000000; stroke-linecap:round; stroke-linejoin:round; stroke-width:4; stroke-opacity:1; fill:none" points="156.02,812.104 174.917,812.104 "/>
<polyline clip-path="url(#clip680)" style="stroke:#000000; stroke-linecap:round; stroke-linejoin:round; stroke-width:4; stroke-opacity:1; fill:none" points="156.02,450.04 174.917,450.04 "/>
<polyline clip-path="url(#clip680)" style="stroke:#000000; stroke-linecap:round; stroke-linejoin:round; stroke-width:4; stroke-opacity:1; fill:none" points="156.02,87.9763 174.917,87.9763 "/>
<path clip-path="url(#clip680)" d="M63.7467 1159.97 Q60.1356 1159.97 58.3069 1163.53 Q56.5014 1167.07 56.5014 1174.2 Q56.5014 1181.31 58.3069 1184.87 Q60.1356 1188.42 63.7467 1188.42 Q67.3809 1188.42 69.1865 1184.87 Q71.0152 1181.31 71.0152 1174.2 Q71.0152 1167.07 69.1865 1163.53 Q67.3809 1159.97 63.7467 1159.97 M63.7467 1156.26 Q69.5568 1156.26 72.6124 1160.87 Q75.6911 1165.45 75.6911 1174.2 Q75.6911 1182.93 72.6124 1187.54 Q69.5568 1192.12 63.7467 1192.12 Q57.9365 1192.12 54.8578 1187.54 Q51.8023 1182.93 51.8023 1174.2 Q51.8023 1165.45 54.8578 1160.87 Q57.9365 1156.26 63.7467 1156.26 Z" fill="#000000" fill-rule="nonzero" fill-opacity="1" /><path clip-path="url(#clip680)" d="M83.9086 1185.57 L88.7928 1185.57 L88.7928 1191.45 L83.9086 1191.45 L83.9086 1185.57 Z" fill="#000000" fill-rule="nonzero" fill-opacity="1" /><path clip-path="url(#clip680)" d="M97.7974 1156.89 L120.02 1156.89 L120.02 1158.88 L107.473 1191.45 L102.589 1191.45 L114.395 1160.82 L97.7974 1160.82 L97.7974 1156.89 Z" fill="#000000" fill-rule="nonzero" fill-opacity="1" /><path clip-path="url(#clip680)" d="M62.9365 797.903 Q59.3254 797.903 57.4967 801.467 Q55.6912 805.009 55.6912 812.139 Q55.6912 819.245 57.4967 822.81 Q59.3254 826.352 62.9365 826.352 Q66.5707 826.352 68.3763 822.81 Q70.205 819.245 70.205 812.139 Q70.205 805.009 68.3763 801.467 Q66.5707 797.903 62.9365 797.903 M62.9365 794.199 Q68.7467 794.199 71.8022 798.805 Q74.8809 803.389 74.8809 812.139 Q74.8809 820.865 71.8022 825.472 Q68.7467 830.055 62.9365 830.055 Q57.1264 830.055 54.0477 825.472 Q50.9921 820.865 50.9921 812.139 Q50.9921 803.389 54.0477 798.805 Q57.1264 794.199 62.9365 794.199 Z" fill="#000000" fill-rule="nonzero" fill-opacity="1" /><path clip-path="url(#clip680)" d="M83.0984 823.504 L87.9827 823.504 L87.9827 829.384 L83.0984 829.384 L83.0984 823.504 Z" fill="#000000" fill-rule="nonzero" fill-opacity="1" /><path clip-path="url(#clip680)" d="M108.168 812.972 Q104.834 812.972 102.913 814.754 Q101.015 816.537 101.015 819.662 Q101.015 822.787 102.913 824.569 Q104.834 826.352 108.168 826.352 Q111.501 826.352 113.422 824.569 Q115.344 822.764 115.344 819.662 Q115.344 816.537 113.422 814.754 Q111.524 812.972 108.168 812.972 M103.492 810.981 Q100.483 810.241 98.7928 808.18 Q97.1261 806.12 97.1261 803.157 Q97.1261 799.014 100.066 796.606 Q103.029 794.199 108.168 794.199 Q113.33 794.199 116.27 796.606 Q119.209 799.014 119.209 803.157 Q119.209 806.12 117.52 808.18 Q115.853 810.241 112.867 810.981 Q116.246 811.768 118.121 814.06 Q120.02 816.352 120.02 819.662 Q120.02 824.685 116.941 827.37 Q113.885 830.055 108.168 830.055 Q102.45 830.055 99.3715 827.37 Q96.316 824.685 96.316 819.662 Q96.316 816.352 98.2141 814.06 Q100.112 811.768 103.492 810.981 M101.779 803.597 Q101.779 806.282 103.446 807.787 Q105.135 809.291 108.168 809.291 Q111.177 809.291 112.867 807.787 Q114.58 806.282 114.58 803.597 Q114.58 800.912 112.867 799.407 Q111.177 797.903 108.168 797.903 Q105.135 797.903 103.446 799.407 Q101.779 800.912 101.779 803.597 Z" fill="#000000" fill-rule="nonzero" fill-opacity="1" /><path clip-path="url(#clip680)" d="M63.0291 435.839 Q59.418 435.839 57.5893 439.404 Q55.7838 442.945 55.7838 450.075 Q55.7838 457.181 57.5893 460.746 Q59.418 464.288 63.0291 464.288 Q66.6633 464.288 68.4689 460.746 Q70.2976 457.181 70.2976 450.075 Q70.2976 442.945 68.4689 439.404 Q66.6633 435.839 63.0291 435.839 M63.0291 432.135 Q68.8393 432.135 71.8948 436.742 Q74.9735 441.325 74.9735 450.075 Q74.9735 458.802 71.8948 463.408 Q68.8393 467.991 63.0291 467.991 Q57.2189 467.991 54.1403 463.408 Q51.0847 458.802 51.0847 450.075 Q51.0847 441.325 54.1403 436.742 Q57.2189 432.135 63.0291 432.135 Z" fill="#000000" fill-rule="nonzero" fill-opacity="1" /><path clip-path="url(#clip680)" d="M83.191 461.441 L88.0753 461.441 L88.0753 467.32 L83.191 467.32 L83.191 461.441 Z" fill="#000000" fill-rule="nonzero" fill-opacity="1" /><path clip-path="url(#clip680)" d="M98.3993 466.603 L98.3993 462.343 Q100.159 463.177 101.964 463.616 Q103.77 464.056 105.506 464.056 Q110.135 464.056 112.566 460.954 Q115.02 457.829 115.367 451.487 Q114.024 453.478 111.964 454.542 Q109.904 455.607 107.404 455.607 Q102.219 455.607 99.1863 452.482 Q96.1771 449.334 96.1771 443.894 Q96.1771 438.57 99.3252 435.353 Q102.473 432.135 107.705 432.135 Q113.7 432.135 116.848 436.742 Q120.02 441.325 120.02 450.075 Q120.02 458.246 116.131 463.13 Q112.265 467.991 105.714 467.991 Q103.955 467.991 102.149 467.644 Q100.344 467.297 98.3993 466.603 M107.705 451.95 Q110.853 451.95 112.682 449.797 Q114.533 447.644 114.533 443.894 Q114.533 440.167 112.682 438.015 Q110.853 435.839 107.705 435.839 Q104.557 435.839 102.705 438.015 Q100.876 440.167 100.876 443.894 Q100.876 447.644 102.705 449.797 Q104.557 451.95 107.705 451.95 Z" fill="#000000" fill-rule="nonzero" fill-opacity="1" /><path clip-path="url(#clip680)" d="M53.6541 101.321 L61.293 101.321 L61.293 74.9555 L52.9829 76.6222 L52.9829 72.3629 L61.2467 70.6963 L65.9226 70.6963 L65.9226 101.321 L73.5614 101.321 L73.5614 105.256 L53.6541 105.256 L53.6541 101.321 Z" fill="#000000" fill-rule="nonzero" fill-opacity="1" /><path clip-path="url(#clip680)" d="M83.0058 99.3767 L87.8901 99.3767 L87.8901 105.256 L83.0058 105.256 L83.0058 99.3767 Z" fill="#000000" fill-rule="nonzero" fill-opacity="1" /><path clip-path="url(#clip680)" d="M108.075 73.775 Q104.464 73.775 102.635 77.3398 Q100.83 80.8814 100.83 88.011 Q100.83 95.1174 102.635 98.6822 Q104.464 102.224 108.075 102.224 Q111.709 102.224 113.515 98.6822 Q115.344 95.1174 115.344 88.011 Q115.344 80.8814 113.515 77.3398 Q111.709 73.775 108.075 73.775 M108.075 70.0713 Q113.885 70.0713 116.941 74.6777 Q120.02 79.261 120.02 88.011 Q120.02 96.7378 116.941 101.344 Q113.885 105.928 108.075 105.928 Q102.265 105.928 99.1863 101.344 Q96.1308 96.7378 96.1308 88.011 Q96.1308 79.261 99.1863 74.6777 Q102.265 70.0713 108.075 70.0713 Z" fill="#000000" fill-rule="nonzero" fill-opacity="1" /><polyline clip-path="url(#clip682)" style="stroke:#009af9; stroke-linecap:round; stroke-linejoin:round; stroke-width:4; stroke-opacity:1; fill:none" points="218.191,1438.62 219.021,1380.23 219.85,1270.47 220.679,1372.72 221.508,1424.3 222.338,1326.62 223.167,1445.72 223.996,1438.62 224.826,1334.43 225.655,1286.78 226.484,1318.75 227.313,1194.28 228.143,1211.62 228.972,1176.7 229.801,1417.07 230.631,1278.66 231.46,1417.07 232.289,1237.19 233.119,1237.19 233.948,1278.66 234.777,1185.52 235.606,1395.11 236.436,1185.52 237.265,1310.84 238.094,1094.44 238.924,1122.44 239.753,1310.84 240.582,1149.86 241.411,1149.86 242.241,1158.87 243.07,1253.94 243.899,1228.73 244.729,1237.19 245.558,1103.84 246.387,1270.47 247.216,1270.47 248.046,1056.13 248.875,1056.13 249.704,1431.48 250.534,1075.42 251.363,1046.38 252.192,1342.18 253.021,1056.13 253.851,1176.7 254.68,1122.44 255.509,1084.96 256.339,1342.18 257.168,1149.86 257.997,1237.19 258.826,1084.96 259.656,1278.66 260.485,1113.17 261.314,996.526 262.144,1036.56 262.973,1026.66 263.802,1046.38 264.631,1294.86 265.461,934.179 266.29,1228.73 267.119,1176.7 267.949,1228.73 268.778,1202.98 269.607,1158.87 270.437,1006.65 271.266,986.33 272.095,1158.87 272.924,890.997 273.754,1026.66 274.583,923.508 275.412,1036.56 276.242,1056.13 277.071,1046.38 277.9,1075.42 278.729,890.997 279.559,1026.66 280.388,986.33 281.217,857.718 282.047,1026.66 282.876,1056.13 283.705,1075.42 284.534,1149.86 285.364,1026.66 286.193,955.277 287.022,1026.66 287.852,1084.96 288.681,923.508 289.51,1026.66 290.339,1026.66 291.169,901.918 291.998,965.707 292.827,976.057 293.657,1194.28 294.486,857.718 295.315,1006.65 296.144,857.718 296.974,901.918 297.803,996.526 298.632,653.224 299.462,901.918 300.291,1056.13 301.12,901.918 301.949,846.45 302.779,1036.56 303.608,934.179 304.437,812.104 305.267,912.755 306.096,976.057 306.925,986.33 307.755,944.769 308.584,965.707 309.413,1131.65 310.242,800.471 311.072,976.057 311.901,823.644 312.73,823.644 313.56,944.769 314.389,868.898 315.218,812.104 316.047,716.352 316.877,857.718 317.706,965.707 318.535,846.45 319.365,1036.56 320.194,944.769 321.023,752.992 321.852,1056.13 322.682,965.707 323.511,823.644 324.34,835.092 325.17,857.718 325.999,703.936 326.828,846.45 327.657,788.745 328.487,776.924 329.316,678.792 330.145,640.277 330.975,678.792 331.804,716.352 332.633,812.104 333.462,600.771 334.292,846.45 335.121,812.104 335.95,640.277 336.78,765.006 337.609,835.092 338.438,857.718 339.267,765.006 340.097,678.792 340.926,653.224 341.755,716.352 342.585,857.718 343.414,923.508 344.243,640.277 345.073,823.644 345.902,800.471 346.731,976.057 347.56,776.924 348.39,752.992 349.219,823.644 350.048,600.771 350.878,812.104 351.707,986.33 352.536,788.745 353.365,653.224 354.195,944.769 355.024,666.061 355.853,728.665 356.683,560.233 357.512,518.625 358.341,752.992 359.17,560.233 360,653.224 360.829,740.878 361.658,666.061 362.488,740.878 363.317,703.936 364.146,716.352 364.975,587.375 365.805,627.22 366.634,835.092 367.463,765.006 368.293,560.233 369.122,678.792 369.951,776.924 370.78,614.052 371.61,666.061 372.439,532.616 373.268,800.471 374.098,740.878 374.927,740.878 375.756,752.992 376.585,666.061 377.415,868.898 378.244,546.485 379.073,600.771 379.903,716.352 380.732,666.061 381.561,627.22 382.391,678.792 383.22,691.416 384.049,546.485 384.878,835.092 385.708,532.616 386.537,614.052 387.366,666.061 388.196,666.061 389.025,600.771 389.854,532.616 390.683,573.863 391.513,600.771 392.342,666.061 393.171,691.416 394.001,627.22 394.83,788.745 395.659,532.616 396.488,587.375 397.318,678.792 398.147,587.375 398.976,740.878 399.806,518.625 400.635,666.061 401.464,532.616 402.293,703.936 403.123,504.51 403.952,587.375 404.781,546.485 405.611,560.233 406.44,703.936 407.269,614.052 408.098,653.224 408.928,627.22 409.757,666.061 410.586,653.224 411.416,653.224 412.245,475.902 413.074,640.277 413.903,587.375 414.733,653.224 415.562,532.616 416.391,475.902 417.221,446.778 418.05,627.22 418.879,573.863 419.709,703.936 420.538,587.375 421.367,560.233 422.196,691.416 423.026,627.22 423.855,587.375 424.684,627.22 425.514,678.792 426.343,587.375 427.172,666.061 428.001,587.375 428.831,532.616 429.66,518.625 430.489,614.052 431.319,600.771 432.148,728.665 432.977,678.792 433.806,653.224 434.636,614.052 435.465,518.625 436.294,402.096 437.124,432.019 437.953,560.233 438.782,560.233 439.611,587.375 440.441,614.052 441.27,446.778 442.099,614.052 442.929,504.51 443.758,546.485 444.587,614.052 445.416,627.22 446.246,504.51 447.075,560.233 447.904,417.125 448.734,600.771 449.563,627.22 450.392,666.061 451.221,587.375 452.051,600.771 452.88,532.616 453.709,417.125 454.539,504.51 455.368,504.51 456.197,587.375 457.027,504.51 457.856,573.863 458.685,587.375 459.514,703.936 460.344,518.625 461.173,691.416 462.002,371.621 462.832,614.052 463.661,600.771 464.49,546.485 465.319,532.616 466.149,546.485 466.978,475.902 467.807,532.616 468.637,504.51 469.466,573.863 470.295,446.778 471.124,504.51 471.954,666.061 472.783,640.277 473.612,446.778 474.442,788.745 475.271,504.51 476.1,490.269 476.929,504.51 477.759,446.778 478.588,573.863 479.417,504.51 480.247,666.061 481.076,532.616 481.905,600.771 482.734,546.485 483.564,504.51 484.393,518.625 485.222,627.22 486.052,600.771 486.881,461.405 487.71,518.625 488.539,587.375 489.369,532.616 490.198,402.096 491.027,461.405 491.857,560.233 492.686,518.625 493.515,446.778 494.345,587.375 495.174,560.233 496.003,475.902 496.832,504.51 497.662,490.269 498.491,532.616 499.32,587.375 500.15,386.928 500.979,432.019 501.808,560.233 502.637,386.928 503.467,560.233 504.296,402.096 505.125,475.902 505.955,446.778 506.784,504.51 507.613,653.224 508.442,518.625 509.272,490.269 510.101,402.096 510.93,653.224 511.76,371.621 512.589,386.928 513.418,532.616 514.247,518.625 515.077,432.019 515.906,546.485 516.735,600.771 517.565,446.778 518.394,402.096 519.223,446.778 520.052,546.485 520.882,573.863 521.711,504.51 522.54,587.375 523.37,402.096 524.199,402.096 525.028,560.233 525.857,560.233 526.687,573.863 527.516,402.096 528.345,446.778 529.175,386.928 530.004,402.096 530.833,532.616 531.662,461.405 532.492,432.019 533.321,614.052 534.15,587.375 534.98,560.233 535.809,386.928 536.638,627.22 537.468,461.405 538.297,386.928 539.126,417.125 539.955,371.621 540.785,475.902 541.614,475.902 542.443,490.269 543.273,386.928 544.102,446.778 544.931,587.375 545.76,518.625 546.59,371.621 547.419,356.172 548.248,356.172 549.078,402.096 549.907,504.51 550.736,461.405 551.565,475.902 552.395,432.019 553.224,356.172 554.053,475.902 554.883,461.405 555.712,402.096 556.541,490.269 557.37,532.616 558.2,518.625 559.029,461.405 559.858,490.269 560.688,371.621 561.517,308.954 562.346,446.778 563.175,371.621 564.005,417.125 564.834,461.405 565.663,573.863 566.493,546.485 567.322,417.125 568.151,417.125 568.98,490.269 569.81,446.778 570.639,461.405 571.468,324.84 572.298,490.269 573.127,573.863 573.956,417.125 574.786,340.579 575.615,432.019 576.444,518.625 577.273,402.096 578.103,490.269 578.932,340.579 579.761,356.172 580.591,461.405 581.42,432.019 582.249,417.125 583.078,402.096 583.908,461.405 584.737,386.928 585.566,446.778 586.396,461.405 587.225,461.405 588.054,308.954 588.883,490.269 589.713,386.928 590.542,402.096 591.371,356.172 592.201,475.902 593.03,417.125 593.859,417.125 594.688,446.778 595.518,371.621 596.347,446.778 597.176,371.621 598.006,417.125 598.835,402.096 599.664,340.579 600.493,402.096 601.323,308.954 602.152,340.579 602.981,560.233 603.811,340.579 604.64,417.125 605.469,432.019 606.298,518.625 607.128,340.579 607.957,386.928 608.786,371.621 609.616,518.625 610.445,402.096 611.274,490.269 612.104,573.863 612.933,386.928 613.762,308.954 614.591,371.621 615.421,371.621 616.25,276.73 617.079,417.125 617.909,308.954 618.738,340.579 619.567,446.778 620.396,461.405 621.226,402.096 622.055,417.125 622.884,432.019 623.714,210.413 624.543,356.172 625.372,356.172 626.201,324.84 627.031,490.269 627.86,386.928 628.689,308.954 629.519,324.84 630.348,243.889 631.177,356.172 632.006,432.019 632.836,292.918 633.665,402.096 634.494,356.172 635.324,371.621 636.153,446.778 636.982,461.405 637.811,461.405 638.641,276.73 639.47,356.172 640.299,402.096 641.129,371.621 641.958,371.621 642.787,340.579 643.616,417.125 644.446,386.928 645.275,356.172 646.104,446.778 646.934,402.096 647.763,371.621 648.592,402.096 649.422,292.918 650.251,324.84 651.08,371.621 651.909,356.172 652.739,386.928 653.568,417.125 654.397,356.172 655.227,324.84 656.056,243.889 656.885,308.954 657.714,386.928 658.544,340.579 659.373,324.84 660.202,308.954 661.032,402.096 661.861,324.84 662.69,446.778 663.519,324.84 664.349,227.232 665.178,243.889 666.007,386.928 666.837,371.621 667.666,308.954 668.495,292.918 669.324,417.125 670.154,276.73 670.983,417.125 671.812,340.579 672.642,308.954 673.471,292.918 674.3,324.84 675.129,340.579 675.959,356.172 676.788,402.096 677.617,292.918 678.447,432.019 679.276,292.918 680.105,356.172 680.934,324.84 681.764,402.096 682.593,227.232 683.422,308.954 684.252,356.172 685.081,386.928 685.91,417.125 686.74,276.73 687.569,340.579 688.398,386.928 689.227,446.778 690.057,260.388 690.886,417.125 691.715,324.84 692.545,276.73 693.374,356.172 694.203,446.778 695.032,308.954 695.862,308.954 696.691,260.388 697.52,292.918 698.35,260.388 699.179,227.232 700.008,308.954 700.837,324.84 701.667,432.019 702.496,227.232 703.325,260.388 704.155,386.928 704.984,356.172 705.813,340.579 706.642,324.84 707.472,386.928 708.301,417.125 709.13,243.889 709.96,324.84 710.789,402.096 711.618,340.579 712.447,356.172 713.277,386.928 714.106,324.84 714.935,402.096 715.765,340.579 716.594,356.172 717.423,324.84 718.252,324.84 719.082,386.928 719.911,158.969 720.74,402.096 721.57,260.388 722.399,276.73 723.228,386.928 724.058,402.096 724.887,417.125 725.716,356.172 726.545,371.621 727.375,210.413 728.204,308.954 729.033,276.73 729.863,340.579 730.692,446.778 731.521,340.579 732.35,276.73 733.18,356.172 734.009,308.954 734.838,402.096 735.668,446.778 736.497,417.125 737.326,432.019 738.155,340.579 738.985,276.73 739.814,292.918 740.643,158.969 741.473,386.928 742.302,324.84 743.131,260.388 743.96,371.621 744.79,402.096 745.619,276.73 746.448,292.918 747.278,308.954 748.107,432.019 748.936,292.918 749.765,276.73 750.595,340.579 751.424,340.579 752.253,371.621 753.083,276.73 753.912,324.84 754.741,340.579 755.57,227.232 756.4,386.928 757.229,432.019 758.058,356.172 758.888,243.889 759.717,193.432 760.546,386.928 761.376,356.172 762.205,308.954 763.034,324.84 763.863,243.889 764.693,308.954 765.522,243.889 766.351,324.84 767.181,292.918 768.01,308.954 768.839,243.889 769.668,292.918 770.498,324.84 771.327,371.621 772.156,276.73 772.986,356.172 773.815,308.954 774.644,292.918 775.473,340.579 776.303,210.413 777.132,371.621 777.961,292.918 778.791,243.889 779.62,292.918 780.449,260.388 781.278,308.954 782.108,227.232 782.937,308.954 783.766,243.889 784.596,227.232 785.425,340.579 786.254,402.096 787.083,371.621 787.913,210.413 788.742,243.889 789.571,243.889 790.401,260.388 791.23,227.232 792.059,193.432 792.888,193.432 793.718,371.621 794.547,308.954 795.376,243.889 796.206,210.413 797.035,308.954 797.864,308.954 798.694,141.483 799.523,176.285 800.352,276.73 801.181,260.388 802.011,276.73 802.84,308.954 803.669,210.413 804.499,292.918 805.328,260.388 806.157,340.579 806.986,276.73 807.816,227.232 808.645,227.232 809.474,324.84 810.304,243.889 811.133,193.432 811.962,292.918 812.791,243.889 813.621,276.73 814.45,324.84 815.279,402.096 816.109,324.84 816.938,141.483 817.767,371.621 818.596,243.889 819.426,324.84 820.255,276.73 821.084,260.388 821.914,260.388 822.743,243.889 823.572,210.413 824.401,210.413 825.231,243.889 826.06,276.73 826.889,260.388 827.719,292.918 828.548,176.285 829.377,141.483 830.206,210.413 831.036,292.918 831.865,340.579 832.694,340.579 833.524,308.954 834.353,176.285 835.182,386.928 836.012,210.413 836.841,402.096 837.67,260.388 838.499,210.413 839.329,243.889 840.158,308.954 840.987,227.232 841.817,340.579 842.646,158.969 843.475,356.172 844.304,260.388 845.134,276.73 845.963,308.954 846.792,276.73 847.622,193.432 848.451,243.889 849.28,176.285 850.109,308.954 850.939,292.918 851.768,371.621 852.597,227.232 853.427,308.954 854.256,193.432 855.085,227.232 855.914,260.388 856.744,210.413 857.573,308.954 858.402,227.232 859.232,227.232 860.061,292.918 860.89,324.84 861.719,227.232 862.549,260.388 863.378,308.954 864.207,176.285 865.037,324.84 865.866,292.918 866.695,308.954 867.524,210.413 868.354,292.918 869.183,324.84 870.012,324.84 870.842,227.232 871.671,243.889 872.5,340.579 873.329,227.232 874.159,210.413 874.988,324.84 875.817,243.889 876.647,340.579 877.476,193.432 878.305,276.73 879.135,276.73 879.964,193.432 880.793,210.413 881.622,243.889 882.452,193.432 883.281,176.285 884.11,210.413 884.94,260.388 885.769,227.232 886.598,276.73 887.427,243.889 888.257,243.889 889.086,243.889 889.915,227.232 890.745,141.483 891.574,158.969 892.403,193.432 893.232,260.388 894.062,158.969 894.891,324.84 895.72,292.918 896.55,308.954 897.379,193.432 898.208,276.73 899.037,141.483 899.867,260.388 900.696,292.918 901.525,243.889 902.355,227.232 903.184,176.285 904.013,292.918 904.842,260.388 905.672,292.918 906.501,227.232 907.33,292.918 908.16,210.413 908.989,158.969 909.818,210.413 910.647,276.73 911.477,210.413 912.306,210.413 913.135,210.413 913.965,193.432 914.794,276.73 915.623,292.918 916.453,243.889 917.282,260.388 918.111,276.73 918.94,141.483 919.77,324.84 920.599,210.413 921.428,276.73 922.258,260.388 923.087,308.954 923.916,227.232 924.745,210.413 925.575,176.285 926.404,123.824 927.233,227.232 928.063,227.232 928.892,227.232 929.721,260.388 930.55,193.432 931.38,292.918 932.209,193.432 933.038,193.432 933.868,324.84 934.697,227.232 935.526,193.432 936.355,210.413 937.185,243.889 938.014,243.889 938.843,210.413 939.673,176.285 940.502,193.432 941.331,324.84 942.16,243.889 942.99,276.73 943.819,210.413 944.648,243.889 945.478,193.432 946.307,158.969 947.136,292.918 947.965,176.285 948.795,243.889 949.624,193.432 950.453,193.432 951.283,210.413 952.112,260.388 952.941,243.889 953.771,243.889 954.6,243.889 955.429,243.889 956.258,276.73 957.088,176.285 957.917,227.232 958.746,176.285 959.576,243.889 960.405,243.889 961.234,193.432 962.063,210.413 962.893,210.413 963.722,210.413 964.551,276.73 965.381,227.232 966.21,210.413 967.039,193.432 967.868,158.969 968.698,243.889 969.527,243.889 970.356,308.954 971.186,308.954 972.015,260.388 972.844,227.232 973.673,292.918 974.503,243.889 975.332,308.954 976.161,176.285 976.991,123.824 977.82,158.969 978.649,176.285 979.478,210.413 980.308,243.889 981.137,158.969 981.966,193.432 982.796,176.285 983.625,141.483 984.454,227.232 985.283,193.432 986.113,292.918 986.942,292.918 987.771,210.413 988.601,210.413 989.43,105.989 990.259,141.483 991.089,227.232 991.918,324.84 992.747,210.413 993.576,308.954 994.406,193.432 995.235,193.432 996.064,176.285 996.894,158.969 997.723,176.285 998.552,292.918 999.381,176.285 1000.21,210.413 1001.04,227.232 1001.87,158.969 1002.7,176.285 1003.53,176.285 1004.36,243.889 1005.19,260.388 1006.02,227.232 1006.85,308.954 1007.67,176.285 1008.5,193.432 1009.33,292.918 1010.16,210.413 1010.99,227.232 1011.82,210.413 1012.65,292.918 1013.48,158.969 1014.31,158.969 1015.14,276.73 1015.97,260.388 1016.8,227.232 1017.63,227.232 1018.46,243.889 1019.28,260.388 1020.11,243.889 1020.94,158.969 1021.77,193.432 1022.6,260.388 1023.43,193.432 1024.26,276.73 1025.09,227.232 1025.92,292.918 1026.75,276.73 1027.58,210.413 1028.41,141.483 1029.24,176.285 1030.07,227.232 1030.89,210.413 1031.72,243.889 1032.55,227.232 1033.38,227.232 1034.21,276.73 1035.04,227.232 1035.87,158.969 1036.7,210.413 1037.53,158.969 1038.36,243.889 1039.19,123.824 1040.02,260.388 1040.85,193.432 1041.68,227.232 1042.5,193.432 1043.33,227.232 1044.16,227.232 1044.99,243.889 1045.82,193.432 1046.65,176.285 1047.48,227.232 1048.31,193.432 1049.14,227.232 1049.97,243.889 1050.8,243.889 1051.63,292.918 1052.46,210.413 1053.29,210.413 1054.11,210.413 1054.94,158.969 1055.77,227.232 1056.6,123.824 1057.43,176.285 1058.26,243.889 1059.09,308.954 1059.92,210.413 1060.75,123.824 1061.58,193.432 1062.41,158.969 1063.24,158.969 1064.07,386.928 1064.9,227.232 1065.72,210.413 1066.55,193.432 1067.38,227.232 1068.21,176.285 1069.04,243.889 1069.87,210.413 1070.7,176.285 1071.53,243.889 1072.36,176.285 1073.19,292.918 1074.02,210.413 1074.85,105.989 1075.68,243.889 1076.51,227.232 1077.33,260.388 1078.16,243.889 1078.99,158.969 1079.82,210.413 1080.65,227.232 1081.48,193.432 1082.31,227.232 1083.14,193.432 1083.97,227.232 1084.8,105.989 1085.63,227.232 1086.46,176.285 1087.29,227.232 1088.12,158.969 1088.94,193.432 1089.77,243.889 1090.6,243.889 1091.43,308.954 1092.26,193.432 1093.09,243.889 1093.92,210.413 1094.75,158.969 1095.58,193.432 1096.41,276.73 1097.24,158.969 1098.07,243.889 1098.9,210.413 1099.73,176.285 1100.55,243.889 1101.38,158.969 1102.21,227.232 1103.04,292.918 1103.87,141.483 1104.7,227.232 1105.53,210.413 1106.36,227.232 1107.19,227.232 1108.02,193.432 1108.85,193.432 1109.68,141.483 1110.51,141.483 1111.34,243.889 1112.16,193.432 1112.99,193.432 1113.82,243.889 1114.65,260.388 1115.48,176.285 1116.31,227.232 1117.14,193.432 1117.97,193.432 1118.8,193.432 1119.63,176.285 1120.46,193.432 1121.29,260.388 1122.12,158.969 1122.95,176.285 1123.77,158.969 1124.6,176.285 1125.43,210.413 1126.26,210.413 1127.09,193.432 1127.92,193.432 1128.75,193.432 1129.58,193.432 1130.41,210.413 1131.24,158.969 1132.07,227.232 1132.9,158.969 1133.73,193.432 1134.56,308.954 1135.38,176.285 1136.21,260.388 1137.04,292.918 1137.87,141.483 1138.7,158.969 1139.53,193.432 1140.36,243.889 1141.19,210.413 1142.02,193.432 1142.85,227.232 1143.68,227.232 1144.51,176.285 1145.34,158.969 1146.17,123.824 1146.99,176.285 1147.82,158.969 1148.65,87.9763 1149.48,158.969 1150.31,176.285 1151.14,176.285 1151.97,176.285 1152.8,227.232 1153.63,158.969 1154.46,141.483 1155.29,210.413 1156.12,210.413 1156.95,193.432 1157.78,227.232 1158.6,210.413 1159.43,210.413 1160.26,105.989 1161.09,176.285 1161.92,210.413 1162.75,210.413 1163.58,210.413 1164.41,176.285 1165.24,227.232 1166.07,210.413 1166.9,176.285 1167.73,193.432 1168.56,141.483 1169.39,123.824 1170.21,176.285 1171.04,123.824 1171.87,141.483 1172.7,193.432 1173.53,193.432 1174.36,193.432 1175.19,210.413 1176.02,141.483 1176.85,227.232 1177.68,243.889 1178.51,158.969 1179.34,210.413 1180.17,141.483 1181,176.285 1181.82,158.969 1182.65,193.432 1183.48,141.483 1184.31,193.432 1185.14,193.432 1185.97,210.413 1186.8,176.285 1187.63,176.285 1188.46,227.232 1189.29,227.232 1190.12,158.969 1190.95,141.483 1191.78,193.432 1192.61,176.285 1193.43,158.969 1194.26,193.432 1195.09,176.285 1195.92,176.285 1196.75,227.232 1197.58,210.413 1198.41,193.432 1199.24,123.824 1200.07,176.285 1200.9,260.388 1201.73,158.969 1202.56,87.9763 1203.39,227.232 1204.22,210.413 1205.05,260.388 1205.87,193.432 1206.7,227.232 1207.53,276.73 1208.36,141.483 1209.19,227.232 1210.02,176.285 1210.85,292.918 1211.68,141.483 1212.51,193.432 1213.34,193.432 1214.17,193.432 1215,210.413 1215.83,210.413 1216.66,176.285 1217.48,158.969 1218.31,158.969 1219.14,210.413 1219.97,158.969 1220.8,158.969 1221.63,193.432 1222.46,176.285 1223.29,193.432 1224.12,123.824 1224.95,141.483 1225.78,193.432 1226.61,141.483 1227.44,176.285 1228.27,158.969 1229.09,176.285 1229.92,141.483 1230.75,193.432 1231.58,176.285 1232.41,123.824 1233.24,158.969 1234.07,176.285 1234.9,276.73 1235.73,193.432 1236.56,176.285 1237.39,176.285 1238.22,158.969 1239.05,158.969 1239.88,158.969 1240.7,193.432 1241.53,141.483 1242.36,210.413 1243.19,141.483 1244.02,227.232 1244.85,158.969 1245.68,193.432 1246.51,141.483 1247.34,210.413 1248.17,176.285 1249,243.889 1249.83,176.285 1250.66,123.824 1251.49,176.285 1252.31,210.413 1253.14,158.969 1253.97,141.483 1254.8,210.413 1255.63,308.954 1256.46,158.969 1257.29,176.285 1258.12,193.432 1258.95,176.285 1259.78,243.889 1260.61,105.989 1261.44,141.483 1262.27,123.824 1263.1,123.824 1263.92,141.483 1264.75,158.969 1265.58,141.483 1266.41,176.285 1267.24,158.969 1268.07,158.969 1268.9,176.285 1269.73,141.483 1270.56,176.285 1271.39,123.824 1272.22,243.889 1273.05,210.413 1273.88,193.432 1274.71,210.413 1275.53,210.413 1276.36,176.285 1277.19,141.483 1278.02,193.432 1278.85,158.969 1279.68,158.969 1280.51,193.432 1281.34,158.969 1282.17,243.889 1283,243.889 1283.83,260.388 1284.66,292.918 1285.49,243.889 1286.32,243.889 1287.14,123.824 1287.97,176.285 1288.8,141.483 1289.63,141.483 1290.46,227.232 1291.29,105.989 1292.12,176.285 1292.95,141.483 1293.78,158.969 1294.61,227.232 1295.44,141.483 1296.27,210.413 1297.1,141.483 1297.93,276.73 1298.75,243.889 1299.58,227.232 1300.41,193.432 1301.24,123.824 1302.07,193.432 1302.9,193.432 1303.73,123.824 1304.56,227.232 1305.39,141.483 1306.22,158.969 1307.05,193.432 1307.88,176.285 1308.71,158.969 1309.54,243.889 1310.36,193.432 1311.19,210.413 1312.02,176.285 1312.85,141.483 1313.68,141.483 1314.51,176.285 1315.34,123.824 1316.17,227.232 1317,158.969 1317.83,158.969 1318.66,141.483 1319.49,141.483 1320.32,210.413 1321.15,158.969 1321.97,176.285 1322.8,141.483 1323.63,193.432 1324.46,141.483 1325.29,260.388 1326.12,123.824 1326.95,193.432 1327.78,105.989 1328.61,227.232 1329.44,176.285 1330.27,276.73 1331.1,141.483 1331.93,158.969 1332.76,210.413 1333.58,158.969 1334.41,260.388 1335.24,105.989 1336.07,123.824 1336.9,105.989 1337.73,243.889 1338.56,123.824 1339.39,176.285 1340.22,176.285 1341.05,176.285 1341.88,193.432 1342.71,158.969 1343.54,141.483 1344.37,176.285 1345.19,158.969 1346.02,210.413 1346.85,158.969 1347.68,210.413 1348.51,123.824 1349.34,158.969 1350.17,158.969 1351,193.432 1351.83,141.483 1352.66,123.824 1353.49,158.969 1354.32,123.824 1355.15,193.432 1355.98,260.388 1356.8,123.824 1357.63,158.969 1358.46,176.285 1359.29,158.969 1360.12,105.989 1360.95,87.9763 1361.78,176.285 1362.61,176.285 1363.44,141.483 1364.27,227.232 1365.1,123.824 1365.93,243.889 1366.76,158.969 1367.59,123.824 1368.41,176.285 1369.24,210.413 1370.07,123.824 1370.9,141.483 1371.73,123.824 1372.56,210.413 1373.39,105.989 1374.22,105.989 1375.05,193.432 1375.88,176.285 1376.71,141.483 1377.54,176.285 1378.37,141.483 1379.2,193.432 1380.02,276.73 1380.85,193.432 1381.68,123.824 1382.51,193.432 1383.34,158.969 1384.17,210.413 1385,193.432 1385.83,105.989 1386.66,158.969 1387.49,141.483 1388.32,141.483 1389.15,193.432 1389.98,193.432 1390.81,141.483 1391.64,193.432 1392.46,193.432 1393.29,210.413 1394.12,141.483 1394.95,210.413 1395.78,141.483 1396.61,141.483 1397.44,123.824 1398.27,176.285 1399.1,141.483 1399.93,227.232 1400.76,193.432 1401.59,210.413 1402.42,193.432 1403.25,158.969 1404.07,193.432 1404.9,193.432 1405.73,193.432 1406.56,158.969 1407.39,210.413 1408.22,227.232 1409.05,141.483 1409.88,176.285 1410.71,193.432 1411.54,243.889 1412.37,227.232 1413.2,210.413 1414.03,158.969 1414.86,193.432 1415.68,123.824 1416.51,123.824 1417.34,193.432 1418.17,210.413 1419,193.432 1419.83,193.432 1420.66,158.969 1421.49,141.483 1422.32,210.413 1423.15,158.969 1423.98,193.432 1424.81,158.969 1425.64,193.432 1426.47,243.889 1427.29,176.285 1428.12,176.285 1428.95,105.989 1429.78,210.413 1430.61,123.824 1431.44,210.413 1432.27,210.413 1433.1,176.285 1433.93,193.432 1434.76,176.285 1435.59,141.483 1436.42,141.483 1437.25,176.285 1438.08,123.824 1438.9,158.969 1439.73,141.483 1440.56,227.232 1441.39,176.285 1442.22,158.969 1443.05,243.889 1443.88,193.432 1444.71,158.969 1445.54,158.969 1446.37,276.73 1447.2,210.413 1448.03,176.285 1448.86,158.969 1449.69,210.413 1450.51,193.432 1451.34,141.483 1452.17,141.483 1453,105.989 1453.83,105.989 1454.66,176.285 1455.49,210.413 1456.32,158.969 1457.15,210.413 1457.98,141.483 1458.81,243.889 1459.64,141.483 1460.47,158.969 1461.3,243.889 1462.12,193.432 1462.95,158.969 1463.78,193.432 1464.61,176.285 1465.44,123.824 1466.27,123.824 1467.1,123.824 1467.93,193.432 1468.76,176.285 1469.59,105.989 1470.42,141.483 1471.25,210.413 1472.08,141.483 1472.91,123.824 1473.73,158.969 1474.56,141.483 1475.39,123.824 1476.22,141.483 1477.05,141.483 1477.88,158.969 1478.71,141.483 1479.54,105.989 1480.37,158.969 1481.2,158.969 1482.03,141.483 1482.86,141.483 1483.69,141.483 1484.52,123.824 1485.34,260.388 1486.17,141.483 1487,158.969 1487.83,123.824 1488.66,123.824 1489.49,176.285 1490.32,158.969 1491.15,210.413 1491.98,158.969 1492.81,105.989 1493.64,123.824 1494.47,158.969 1495.3,210.413 1496.13,123.824 1496.95,158.969 1497.78,210.413 1498.61,123.824 1499.44,176.285 1500.27,193.432 1501.1,158.969 1501.93,158.969 1502.76,141.483 1503.59,141.483 1504.42,176.285 1505.25,158.969 1506.08,123.824 1506.91,193.432 1507.74,105.989 1508.56,158.969 1509.39,123.824 1510.22,123.824 1511.05,158.969 1511.88,176.285 1512.71,123.824 1513.54,176.285 1514.37,141.483 1515.2,123.824 1516.03,176.285 1516.86,141.483 1517.69,158.969 1518.52,193.432 1519.35,158.969 1520.17,141.483 1521,176.285 1521.83,141.483 1522.66,158.969 1523.49,193.432 1524.32,105.989 1525.15,141.483 1525.98,141.483 1526.81,141.483 1527.64,176.285 1528.47,141.483 1529.3,87.9763 1530.13,193.432 1530.96,158.969 1531.78,176.285 1532.61,123.824 1533.44,158.969 1534.27,176.285 1535.1,158.969 1535.93,158.969 1536.76,176.285 1537.59,158.969 1538.42,193.432 1539.25,158.969 1540.08,176.285 1540.91,158.969 1541.74,158.969 1542.57,210.413 1543.39,210.413 1544.22,123.824 1545.05,141.483 1545.88,158.969 1546.71,105.989 1547.54,158.969 1548.37,141.483 1549.2,141.483 1550.03,105.989 1550.86,123.824 1551.69,176.285 1552.52,176.285 1553.35,158.969 1554.18,123.824 1555,176.285 1555.83,210.413 1556.66,193.432 1557.49,176.285 1558.32,158.969 1559.15,141.483 1559.98,176.285 1560.81,123.824 1561.64,176.285 1562.47,141.483 1563.3,158.969 1564.13,227.232 1564.96,123.824 1565.79,193.432 1566.61,158.969 1567.44,158.969 1568.27,123.824 1569.1,141.483 1569.93,123.824 1570.76,176.285 1571.59,210.413 1572.42,123.824 1573.25,141.483 1574.08,123.824 1574.91,210.413 1575.74,141.483 1576.57,141.483 1577.4,176.285 1578.23,176.285 1579.05,123.824 1579.88,141.483 1580.71,210.413 1581.54,210.413 1582.37,123.824 1583.2,158.969 1584.03,141.483 1584.86,87.9763 1585.69,87.9763 1586.52,193.432 1587.35,123.824 1588.18,123.824 1589.01,158.969 1589.84,141.483 1590.66,176.285 1591.49,105.989 1592.32,158.969 1593.15,158.969 1593.98,176.285 1594.81,193.432 1595.64,123.824 1596.47,141.483 1597.3,158.969 1598.13,227.232 1598.96,105.989 1599.79,141.483 1600.62,176.285 1601.45,176.285 1602.27,141.483 1603.1,141.483 1603.93,141.483 1604.76,105.989 1605.59,158.969 1606.42,158.969 1607.25,123.824 1608.08,105.989 1608.91,123.824 1609.74,176.285 1610.57,193.432 1611.4,210.413 1612.23,105.989 1613.06,158.969 1613.88,193.432 1614.71,123.824 1615.54,176.285 1616.37,141.483 1617.2,141.483 1618.03,193.432 1618.86,176.285 1619.69,158.969 1620.52,141.483 1621.35,123.824 1622.18,141.483 1623.01,193.432 1623.84,141.483 1624.67,158.969 1625.49,176.285 1626.32,141.483 1627.15,193.432 1627.98,158.969 1628.81,105.989 1629.64,141.483 1630.47,176.285 1631.3,105.989 1632.13,158.969 1632.96,141.483 1633.79,158.969 1634.62,123.824 1635.45,123.824 1636.28,123.824 1637.1,158.969 1637.93,193.432 1638.76,193.432 1639.59,141.483 1640.42,105.989 1641.25,141.483 1642.08,193.432 1642.91,193.432 1643.74,158.969 1644.57,176.285 1645.4,87.9763 1646.23,123.824 1647.06,141.483 1647.89,176.285 1648.71,123.824 1649.54,123.824 1650.37,176.285 1651.2,141.483 1652.03,158.969 1652.86,141.483 1653.69,292.918 1654.52,210.413 1655.35,158.969 1656.18,123.824 1657.01,176.285 1657.84,210.413 1658.67,176.285 1659.5,123.824 1660.32,141.483 1661.15,193.432 1661.98,176.285 1662.81,176.285 1663.64,210.413 1664.47,158.969 1665.3,158.969 1666.13,87.9763 1666.96,176.285 1667.79,123.824 1668.62,227.232 1669.45,210.413 1670.28,176.285 1671.11,193.432 1671.93,193.432 1672.76,123.824 1673.59,105.989 1674.42,193.432 1675.25,176.285 1676.08,141.483 1676.91,176.285 1677.74,123.824 1678.57,193.432 1679.4,158.969 1680.23,141.483 1681.06,123.824 1681.89,141.483 1682.72,105.989 1683.54,158.969 1684.37,123.824 1685.2,158.969 1686.03,105.989 1686.86,193.432 1687.69,141.483 1688.52,141.483 1689.35,105.989 1690.18,176.285 1691.01,141.483 1691.84,141.483 1692.67,193.432 1693.5,176.285 1694.33,210.413 1695.15,141.483 1695.98,176.285 1696.81,123.824 1697.64,123.824 1698.47,123.824 1699.3,158.969 1700.13,105.989 1700.96,87.9763 1701.79,141.483 1702.62,158.969 1703.45,105.989 1704.28,141.483 1705.11,141.483 1705.94,176.285 1706.76,123.824 1707.59,123.824 1708.42,176.285 1709.25,123.824 1710.08,158.969 1710.91,158.969 1711.74,176.285 1712.57,158.969 1713.4,141.483 1714.23,87.9763 1715.06,158.969 1715.89,105.989 1716.72,158.969 1717.55,141.483 1718.37,141.483 1719.2,105.989 1720.03,243.889 1720.86,193.432 1721.69,87.9763 1722.52,123.824 1723.35,141.483 1724.18,158.969 1725.01,158.969 1725.84,210.413 1726.67,123.824 1727.5,105.989 1728.33,105.989 1729.16,210.413 1729.98,176.285 1730.81,176.285 1731.64,123.824 1732.47,158.969 1733.3,158.969 1734.13,105.989 1734.96,158.969 1735.79,105.989 1736.62,105.989 1737.45,123.824 1738.28,210.413 1739.11,193.432 1739.94,105.989 1740.77,105.989 1741.59,158.969 1742.42,87.9763 1743.25,158.969 1744.08,227.232 1744.91,193.432 1745.74,193.432 1746.57,176.285 1747.4,123.824 1748.23,123.824 1749.06,105.989 1749.89,176.285 1750.72,123.824 1751.55,176.285 1752.38,123.824 1753.2,193.432 1754.03,105.989 1754.86,158.969 1755.69,141.483 1756.52,227.232 1757.35,193.432 1758.18,123.824 1759.01,141.483 1759.84,141.483 1760.67,176.285 1761.5,123.824 1762.33,158.969 1763.16,123.824 1763.99,141.483 1764.81,123.824 1765.64,176.285 1766.47,176.285 1767.3,158.969 1768.13,141.483 1768.96,105.989 1769.79,141.483 1770.62,176.285 1771.45,141.483 1772.28,158.969 1773.11,158.969 1773.94,141.483 1774.77,176.285 1775.6,87.9763 1776.43,123.824 1777.25,105.989 1778.08,123.824 1778.91,123.824 1779.74,123.824 1780.57,193.432 1781.4,105.989 1782.23,158.969 1783.06,141.483 1783.89,141.483 1784.72,158.969 1785.55,193.432 1786.38,176.285 1787.21,123.824 1788.04,141.483 1788.86,123.824 1789.69,105.989 1790.52,141.483 1791.35,176.285 1792.18,105.989 1793.01,141.483 1793.84,158.969 1794.67,158.969 1795.5,87.9763 1796.33,158.969 1797.16,176.285 1797.99,141.483 1798.82,210.413 1799.65,158.969 1800.47,176.285 1801.3,105.989 1802.13,158.969 1802.96,141.483 1803.79,176.285 1804.62,87.9763 1805.45,141.483 1806.28,105.989 1807.11,158.969 1807.94,105.989 1808.77,243.889 1809.6,141.483 1810.43,123.824 1811.26,141.483 1812.08,141.483 1812.91,176.285 1813.74,158.969 1814.57,193.432 1815.4,123.824 1816.23,123.824 1817.06,141.483 1817.89,123.824 1818.72,141.483 1819.55,210.413 1820.38,105.989 1821.21,105.989 1822.04,158.969 1822.87,105.989 1823.69,141.483 1824.52,141.483 1825.35,141.483 1826.18,158.969 1827.01,141.483 1827.84,158.969 1828.67,176.285 1829.5,123.824 1830.33,141.483 1831.16,141.483 1831.99,87.9763 1832.82,176.285 1833.65,123.824 1834.48,105.989 1835.3,141.483 1836.13,158.969 1836.96,193.432 1837.79,193.432 1838.62,105.989 1839.45,176.285 1840.28,141.483 1841.11,105.989 1841.94,193.432 1842.77,227.232 1843.6,176.285 1844.43,105.989 1845.26,141.483 1846.09,105.989 1846.91,123.824 1847.74,158.969 1848.57,105.989 1849.4,141.483 1850.23,158.969 1851.06,176.285 1851.89,176.285 1852.72,158.969 1853.55,141.483 1854.38,158.969 1855.21,123.824 1856.04,123.824 1856.87,141.483 1857.7,105.989 1858.52,123.824 1859.35,141.483 1860.18,105.989 1861.01,105.989 1861.84,158.969 1862.67,105.989 1863.5,123.824 1864.33,193.432 1865.16,123.824 1865.99,141.483 1866.82,176.285 1867.65,158.969 1868.48,141.483 1869.31,176.285 1870.13,141.483 1870.96,158.969 1871.79,158.969 1872.62,105.989 1873.45,193.432 1874.28,158.969 1875.11,123.824 1875.94,158.969 1876.77,158.969 1877.6,176.285 1878.43,158.969 1879.26,243.889 1880.09,141.483 1880.92,141.483 1881.74,105.989 1882.57,210.413 1883.4,193.432 1884.23,158.969 1885.06,123.824 1885.89,193.432 1886.72,105.989 1887.55,141.483 1888.38,141.483 1889.21,141.483 1890.04,158.969 1890.87,158.969 1891.7,158.969 1892.53,87.9763 1893.35,105.989 1894.18,87.9763 1895.01,158.969 1895.84,105.989 1896.67,141.483 1897.5,158.969 1898.33,123.824 1899.16,123.824 1899.99,158.969 1900.82,123.824 1901.65,123.824 1902.48,176.285 1903.31,105.989 1904.14,105.989 1904.96,141.483 1905.79,141.483 1906.62,87.9763 1907.45,123.824 1908.28,123.824 1909.11,87.9763 1909.94,105.989 1910.77,123.824 1911.6,105.989 1912.43,193.432 1913.26,123.824 1914.09,158.969 1914.92,141.483 1915.75,243.889 1916.57,123.824 1917.4,193.432 1918.23,193.432 1919.06,210.413 1919.89,176.285 1920.72,158.969 1921.55,141.483 1922.38,141.483 1923.21,176.285 1924.04,105.989 1924.87,123.824 1925.7,123.824 1926.53,123.824 1927.36,123.824 1928.18,141.483 1929.01,141.483 1929.84,105.989 1930.67,141.483 1931.5,193.432 1932.33,123.824 1933.16,158.969 1933.99,105.989 1934.82,123.824 1935.65,158.969 1936.48,193.432 1937.31,176.285 1938.14,123.824 1938.97,123.824 1939.79,141.483 1940.62,210.413 1941.45,123.824 1942.28,158.969 1943.11,141.483 1943.94,193.432 1944.77,141.483 1945.6,123.824 1946.43,141.483 1947.26,158.969 1948.09,105.989 1948.92,123.824 1949.75,123.824 1950.58,105.989 1951.4,141.483 1952.23,141.483 1953.06,141.483 1953.89,87.9763 1954.72,141.483 1955.55,158.969 1956.38,105.989 1957.21,141.483 1958.04,123.824 1958.87,87.9763 1959.7,123.824 1960.53,141.483 1961.36,176.285 1962.19,176.285 1963.02,210.413 1963.84,123.824 1964.67,176.285 1965.5,176.285 1966.33,87.9763 1967.16,141.483 1967.99,123.824 1968.82,141.483 1969.65,141.483 1970.48,123.824 1971.31,158.969 1972.14,141.483 1972.97,123.824 1973.8,158.969 1974.63,123.824 1975.45,158.969 1976.28,141.483 1977.11,87.9763 1977.94,87.9763 1978.77,87.9763 1979.6,158.969 1980.43,105.989 1981.26,141.483 1982.09,87.9763 1982.92,141.483 1983.75,176.285 1984.58,105.989 1985.41,141.483 1986.24,158.969 1987.06,123.824 1987.89,123.824 1988.72,193.432 1989.55,158.969 1990.38,141.483 1991.21,176.285 1992.04,141.483 1992.87,158.969 1993.7,158.969 1994.53,141.483 1995.36,141.483 1996.19,141.483 1997.02,141.483 1997.85,105.989 1998.67,158.969 1999.5,158.969 2000.33,141.483 2001.16,141.483 2001.99,158.969 2002.82,123.824 2003.65,158.969 2004.48,193.432 2005.31,105.989 2006.14,141.483 2006.97,193.432 2007.8,158.969 2008.63,158.969 2009.46,105.989 2010.28,158.969 2011.11,123.824 2011.94,141.483 2012.77,87.9763 2013.6,123.824 2014.43,105.989 2015.26,141.483 2016.09,123.824 2016.92,141.483 2017.75,176.285 2018.58,158.969 2019.41,123.824 2020.24,87.9763 2021.07,87.9763 2021.89,123.824 2022.72,87.9763 2023.55,193.432 2024.38,105.989 2025.21,123.824 2026.04,105.989 2026.87,158.969 2027.7,105.989 2028.53,141.483 2029.36,123.824 2030.19,123.824 2031.02,176.285 2031.85,176.285 2032.68,123.824 2033.5,105.989 2034.33,105.989 2035.16,141.483 2035.99,158.969 2036.82,123.824 2037.65,141.483 2038.48,158.969 2039.31,105.989 2040.14,123.824 2040.97,141.483 2041.8,176.285 2042.63,158.969 2043.46,87.9763 2044.29,123.824 2045.11,123.824 2045.94,158.969 2046.77,123.824 2047.6,123.824 2048.43,87.9763 2049.26,123.824 2050.09,123.824 2050.92,176.285 2051.75,176.285 2052.58,158.969 2053.41,141.483 2054.24,123.824 2055.07,176.285 2055.9,123.824 2056.72,123.824 2057.55,158.969 2058.38,141.483 2059.21,158.969 2060.04,210.413 2060.87,158.969 2061.7,105.989 2062.53,141.483 2063.36,123.824 2064.19,141.483 2065.02,141.483 2065.85,87.9763 2066.68,87.9763 2067.51,193.432 2068.33,87.9763 2069.16,141.483 2069.99,158.969 2070.82,193.432 2071.65,123.824 2072.48,176.285 2073.31,210.413 2074.14,141.483 2074.97,141.483 2075.8,141.483 2076.63,105.989 2077.46,158.969 2078.29,158.969 2079.12,141.483 2079.94,105.989 2080.77,87.9763 2081.6,158.969 2082.43,123.824 2083.26,123.824 2084.09,123.824 2084.92,105.989 2085.75,123.824 2086.58,141.483 2087.41,123.824 2088.24,123.824 2089.07,158.969 2089.9,105.989 2090.73,193.432 2091.55,87.9763 2092.38,158.969 2093.21,141.483 2094.04,193.432 2094.87,123.824 2095.7,87.9763 2096.53,141.483 2097.36,105.989 2098.19,105.989 2099.02,123.824 2099.85,87.9763 2100.68,123.824 2101.51,123.824 2102.34,141.483 2103.16,158.969 2103.99,123.824 2104.82,123.824 2105.65,158.969 2106.48,105.989 2107.31,105.989 2108.14,123.824 2108.97,158.969 2109.8,158.969 2110.63,123.824 2111.46,123.824 2112.29,123.824 2113.12,141.483 2113.95,123.824 2114.77,87.9763 2115.6,123.824 2116.43,87.9763 2117.26,193.432 2118.09,105.989 2118.92,105.989 2119.75,141.483 2120.58,141.483 2121.41,158.969 2122.24,141.483 2123.07,141.483 2123.9,158.969 2124.73,176.285 2125.56,123.824 2126.38,158.969 2127.21,158.969 2128.04,141.483 2128.87,123.824 2129.7,87.9763 2130.53,141.483 2131.36,141.483 2132.19,123.824 2133.02,176.285 2133.85,141.483 2134.68,141.483 2135.51,243.889 2136.34,158.969 2137.17,105.989 2137.99,141.483 2138.82,123.824 2139.65,105.989 2140.48,123.824 2141.31,141.483 2142.14,123.824 2142.97,105.989 2143.8,141.483 2144.63,123.824 2145.46,123.824 2146.29,123.824 2147.12,141.483 2147.95,123.824 2148.78,158.969 2149.61,123.824 2150.43,123.824 2151.26,210.413 2152.09,123.824 2152.92,123.824 2153.75,141.483 2154.58,123.824 2155.41,123.824 2156.24,176.285 2157.07,87.9763 2157.9,123.824 2158.73,141.483 2159.56,123.824 2160.39,123.824 2161.22,158.969 2162.04,123.824 2162.87,141.483 2163.7,158.969 2164.53,158.969 2165.36,141.483 2166.19,141.483 2167.02,141.483 2167.85,158.969 2168.68,105.989 2169.51,105.989 2170.34,87.9763 2171.17,87.9763 2172,105.989 2172.83,123.824 2173.65,105.989 2174.48,105.989 2175.31,176.285 2176.14,123.824 2176.97,141.483 2177.8,176.285 2178.63,87.9763 2179.46,141.483 2180.29,105.989 2181.12,158.969 2181.95,141.483 2182.78,123.824 2183.61,87.9763 2184.44,123.824 2185.26,141.483 2186.09,210.413 2186.92,123.824 2187.75,105.989 2188.58,158.969 2189.41,141.483 2190.24,123.824 2191.07,141.483 2191.9,105.989 2192.73,176.285 2193.56,141.483 2194.39,158.969 2195.22,123.824 2196.05,141.483 2196.87,87.9763 2197.7,105.989 2198.53,87.9763 2199.36,87.9763 2200.19,105.989 2201.02,158.969 2201.85,176.285 2202.68,123.824 2203.51,141.483 2204.34,105.989 2205.17,105.989 2206,105.989 2206.83,105.989 2207.66,141.483 2208.48,123.824 2209.31,158.969 2210.14,141.483 2210.97,87.9763 2211.8,123.824 2212.63,105.989 2213.46,123.824 2214.29,105.989 2215.12,105.989 2215.95,158.969 2216.78,141.483 2217.61,158.969 2218.44,158.969 2219.27,176.285 2220.09,123.824 2220.92,141.483 2221.75,141.483 2222.58,123.824 2223.41,105.989 2224.24,158.969 2225.07,141.483 2225.9,123.824 2226.73,123.824 2227.56,176.285 2228.39,105.989 2229.22,176.285 2230.05,123.824 2230.88,176.285 2231.7,158.969 2232.53,105.989 2233.36,176.285 2234.19,141.483 2235.02,105.989 2235.85,158.969 2236.68,158.969 2237.51,123.824 2238.34,87.9763 2239.17,123.824 2240,193.432 2240.83,176.285 2241.66,158.969 2242.49,123.824 2243.31,105.989 2244.14,193.432 2244.97,141.483 2245.8,193.432 2246.63,123.824 2247.46,105.989 2248.29,105.989 2249.12,123.824 2249.95,123.824 2250.78,87.9763 2251.61,123.824 2252.44,158.969 2253.27,123.824 2254.1,176.285 2254.92,193.432 2255.75,123.824 2256.58,105.989 2257.41,123.824 2258.24,105.989 2259.07,176.285 2259.9,141.483 2260.73,141.483 2261.56,87.9763 2262.39,141.483 2263.22,210.413 2264.05,123.824 2264.88,141.483 2265.71,123.824 2266.53,123.824 2267.36,87.9763 2268.19,123.824 2269.02,105.989 2269.85,123.824 2270.68,123.824 2271.51,193.432 2272.34,105.989 2273.17,141.483 2274,87.9763 2274.83,123.824 2275.66,141.483 2276.49,123.824 2277.32,105.989 2278.14,158.969 2278.97,105.989 2279.8,123.824 2280.63,141.483 2281.46,176.285 2282.29,158.969 2283.12,141.483 2283.95,87.9763 2284.78,176.285 2285.61,123.824 2286.44,105.989 2287.27,123.824 2288.1,158.969 2288.93,87.9763 2289.75,141.483 2290.58,123.824 "/>
<path clip-path="url(#clip680)" d="M2007.43 1438.47 L2279.53 1438.47 L2279.53 1334.79 L2007.43 1334.79  Z" fill="#ffffff" fill-rule="evenodd" fill-opacity="1"/>
<polyline clip-path="url(#clip680)" style="stroke:#000000; stroke-linecap:round; stroke-linejoin:round; stroke-width:4; stroke-opacity:1; fill:none" points="2007.43,1438.47 2279.53,1438.47 2279.53,1334.79 2007.43,1334.79 2007.43,1438.47 "/>
<polyline clip-path="url(#clip680)" style="stroke:#009af9; stroke-linecap:round; stroke-linejoin:round; stroke-width:4; stroke-opacity:1; fill:none" points="2031.84,1386.63 2178.28,1386.63 "/>
<path clip-path="url(#clip680)" d="M2216.54 1406.32 Q2214.73 1410.95 2213.02 1412.36 Q2211.3 1413.78 2208.43 1413.78 L2205.03 1413.78 L2205.03 1410.21 L2207.53 1410.21 Q2209.29 1410.21 2210.26 1409.38 Q2211.23 1408.54 2212.42 1405.44 L2213.18 1403.5 L2202.69 1377.99 L2207.21 1377.99 L2215.31 1398.27 L2223.41 1377.99 L2227.92 1377.99 L2216.54 1406.32 Z" fill="#000000" fill-rule="nonzero" fill-opacity="1" /><path clip-path="url(#clip680)" d="M2235.22 1399.98 L2242.85 1399.98 L2242.85 1373.61 L2234.54 1375.28 L2234.54 1371.02 L2242.81 1369.35 L2247.48 1369.35 L2247.48 1399.98 L2255.12 1399.98 L2255.12 1403.91 L2235.22 1403.91 L2235.22 1399.98 Z" fill="#000000" fill-rule="nonzero" fill-opacity="1" /></svg>
