<?xml version="1.0" encoding="utf-8"?>
<svg xmlns="http://www.w3.org/2000/svg" xmlns:xlink="http://www.w3.org/1999/xlink" width="600" height="400" viewBox="0 0 2400 1600">
<defs>
  <clipPath id="clip460">
    <rect x="0" y="0" width="2400" height="1600"/>
  </clipPath>
</defs>
<path clip-path="url(#clip460)" d="M0 1600 L2400 1600 L2400 0 L0 0  Z" fill="#ffffff" fill-rule="evenodd" fill-opacity="1"/>
<defs>
  <clipPath id="clip461">
    <rect x="480" y="0" width="1681" height="1600"/>
  </clipPath>
</defs>
<path clip-path="url(#clip460)" d="M230.996 1486.45 L2352.76 1486.45 L2352.76 47.2441 L230.996 47.2441  Z" fill="#ffffff" fill-rule="evenodd" fill-opacity="1"/>
<defs>
  <clipPath id="clip462">
    <rect x="230" y="47" width="2123" height="1440"/>
  </clipPath>
</defs>
<polyline clip-path="url(#clip462)" style="stroke:#000000; stroke-linecap:round; stroke-linejoin:round; stroke-width:2; stroke-opacity:0.1; fill:none" points="291.046,1486.45 291.046,47.2441 "/>
<polyline clip-path="url(#clip462)" style="stroke:#000000; stroke-linecap:round; stroke-linejoin:round; stroke-width:2; stroke-opacity:0.1; fill:none" points="791.461,1486.45 791.461,47.2441 "/>
<polyline clip-path="url(#clip462)" style="stroke:#000000; stroke-linecap:round; stroke-linejoin:round; stroke-width:2; stroke-opacity:0.1; fill:none" points="1291.88,1486.45 1291.88,47.2441 "/>
<polyline clip-path="url(#clip462)" style="stroke:#000000; stroke-linecap:round; stroke-linejoin:round; stroke-width:2; stroke-opacity:0.1; fill:none" points="1792.29,1486.45 1792.29,47.2441 "/>
<polyline clip-path="url(#clip462)" style="stroke:#000000; stroke-linecap:round; stroke-linejoin:round; stroke-width:2; stroke-opacity:0.1; fill:none" points="2292.71,1486.45 2292.71,47.2441 "/>
<polyline clip-path="url(#clip460)" style="stroke:#000000; stroke-linecap:round; stroke-linejoin:round; stroke-width:4; stroke-opacity:1; fill:none" points="230.996,1486.45 2352.76,1486.45 "/>
<polyline clip-path="url(#clip460)" style="stroke:#000000; stroke-linecap:round; stroke-linejoin:round; stroke-width:4; stroke-opacity:1; fill:none" points="291.046,1486.45 291.046,1467.55 "/>
<polyline clip-path="url(#clip460)" style="stroke:#000000; stroke-linecap:round; stroke-linejoin:round; stroke-width:4; stroke-opacity:1; fill:none" points="791.461,1486.45 791.461,1467.55 "/>
<polyline clip-path="url(#clip460)" style="stroke:#000000; stroke-linecap:round; stroke-linejoin:round; stroke-width:4; stroke-opacity:1; fill:none" points="1291.88,1486.45 1291.88,1467.55 "/>
<polyline clip-path="url(#clip460)" style="stroke:#000000; stroke-linecap:round; stroke-linejoin:round; stroke-width:4; stroke-opacity:1; fill:none" points="1792.29,1486.45 1792.29,1467.55 "/>
<polyline clip-path="url(#clip460)" style="stroke:#000000; stroke-linecap:round; stroke-linejoin:round; stroke-width:4; stroke-opacity:1; fill:none" points="2292.71,1486.45 2292.71,1467.55 "/>
<path clip-path="url(#clip460)" d="M291.046 1517.37 Q287.435 1517.37 285.606 1520.93 Q283.8 1524.47 283.8 1531.6 Q283.8 1538.71 285.606 1542.27 Q287.435 1545.82 291.046 1545.82 Q294.68 1545.82 296.486 1542.27 Q298.314 1538.71 298.314 1531.6 Q298.314 1524.47 296.486 1520.93 Q294.68 1517.37 291.046 1517.37 M291.046 1513.66 Q296.856 1513.66 299.911 1518.27 Q302.99 1522.85 302.99 1531.6 Q302.99 1540.33 299.911 1544.94 Q296.856 1549.52 291.046 1549.52 Q285.236 1549.52 282.157 1544.94 Q279.101 1540.33 279.101 1531.6 Q279.101 1522.85 282.157 1518.27 Q285.236 1513.66 291.046 1513.66 Z" fill="#000000" fill-rule="nonzero" fill-opacity="1" /><path clip-path="url(#clip460)" d="M751.079 1514.29 L769.436 1514.29 L769.436 1518.22 L755.362 1518.22 L755.362 1526.7 Q756.38 1526.35 757.399 1526.19 Q758.417 1526 759.436 1526 Q765.223 1526 768.602 1529.17 Q771.982 1532.34 771.982 1537.76 Q771.982 1543.34 768.51 1546.44 Q765.037 1549.52 758.718 1549.52 Q756.542 1549.52 754.274 1549.15 Q752.028 1548.78 749.621 1548.04 L749.621 1543.34 Q751.704 1544.47 753.926 1545.03 Q756.149 1545.58 758.625 1545.58 Q762.63 1545.58 764.968 1543.48 Q767.306 1541.37 767.306 1537.76 Q767.306 1534.15 764.968 1532.04 Q762.63 1529.94 758.625 1529.94 Q756.75 1529.94 754.875 1530.35 Q753.024 1530.77 751.079 1531.65 L751.079 1514.29 Z" fill="#000000" fill-rule="nonzero" fill-opacity="1" /><path clip-path="url(#clip460)" d="M791.195 1517.37 Q787.584 1517.37 785.755 1520.93 Q783.949 1524.47 783.949 1531.6 Q783.949 1538.71 785.755 1542.27 Q787.584 1545.82 791.195 1545.82 Q794.829 1545.82 796.634 1542.27 Q798.463 1538.71 798.463 1531.6 Q798.463 1524.47 796.634 1520.93 Q794.829 1517.37 791.195 1517.37 M791.195 1513.66 Q797.005 1513.66 800.06 1518.27 Q803.139 1522.85 803.139 1531.6 Q803.139 1540.33 800.06 1544.94 Q797.005 1549.52 791.195 1549.52 Q785.385 1549.52 782.306 1544.94 Q779.25 1540.33 779.25 1531.6 Q779.25 1522.85 782.306 1518.27 Q785.385 1513.66 791.195 1513.66 Z" fill="#000000" fill-rule="nonzero" fill-opacity="1" /><path clip-path="url(#clip460)" d="M821.357 1517.37 Q817.745 1517.37 815.917 1520.93 Q814.111 1524.47 814.111 1531.6 Q814.111 1538.71 815.917 1542.27 Q817.745 1545.82 821.357 1545.82 Q824.991 1545.82 826.796 1542.27 Q828.625 1538.71 828.625 1531.6 Q828.625 1524.47 826.796 1520.93 Q824.991 1517.37 821.357 1517.37 M821.357 1513.66 Q827.167 1513.66 830.222 1518.27 Q833.301 1522.85 833.301 1531.6 Q833.301 1540.33 830.222 1544.94 Q827.167 1549.52 821.357 1549.52 Q815.546 1549.52 812.468 1544.94 Q809.412 1540.33 809.412 1531.6 Q809.412 1522.85 812.468 1518.27 Q815.546 1513.66 821.357 1513.66 Z" fill="#000000" fill-rule="nonzero" fill-opacity="1" /><path clip-path="url(#clip460)" d="M1236.4 1544.91 L1244.04 1544.91 L1244.04 1518.55 L1235.73 1520.21 L1235.73 1515.95 L1243.99 1514.29 L1248.67 1514.29 L1248.67 1544.91 L1256.31 1544.91 L1256.31 1548.85 L1236.4 1548.85 L1236.4 1544.91 Z" fill="#000000" fill-rule="nonzero" fill-opacity="1" /><path clip-path="url(#clip460)" d="M1275.75 1517.37 Q1272.14 1517.37 1270.31 1520.93 Q1268.51 1524.47 1268.51 1531.6 Q1268.51 1538.71 1270.31 1542.27 Q1272.14 1545.82 1275.75 1545.82 Q1279.39 1545.82 1281.19 1542.27 Q1283.02 1538.71 1283.02 1531.6 Q1283.02 1524.47 1281.19 1520.93 Q1279.39 1517.37 1275.75 1517.37 M1275.75 1513.66 Q1281.56 1513.66 1284.62 1518.27 Q1287.7 1522.85 1287.7 1531.6 Q1287.7 1540.33 1284.62 1544.94 Q1281.56 1549.52 1275.75 1549.52 Q1269.94 1549.52 1266.86 1544.94 Q1263.81 1540.33 1263.81 1531.6 Q1263.81 1522.85 1266.86 1518.27 Q1269.94 1513.66 1275.75 1513.66 Z" fill="#000000" fill-rule="nonzero" fill-opacity="1" /><path clip-path="url(#clip460)" d="M1305.92 1517.37 Q1302.3 1517.37 1300.48 1520.93 Q1298.67 1524.47 1298.67 1531.6 Q1298.67 1538.71 1300.48 1542.27 Q1302.3 1545.82 1305.92 1545.82 Q1309.55 1545.82 1311.36 1542.27 Q1313.18 1538.71 1313.18 1531.6 Q1313.18 1524.47 1311.36 1520.93 Q1309.55 1517.37 1305.92 1517.37 M1305.92 1513.66 Q1311.73 1513.66 1314.78 1518.27 Q1317.86 1522.85 1317.86 1531.6 Q1317.86 1540.33 1314.78 1544.94 Q1311.73 1549.52 1305.92 1549.52 Q1300.11 1549.52 1297.03 1544.94 Q1293.97 1540.33 1293.97 1531.6 Q1293.97 1522.85 1297.03 1518.27 Q1300.11 1513.66 1305.92 1513.66 Z" fill="#000000" fill-rule="nonzero" fill-opacity="1" /><path clip-path="url(#clip460)" d="M1336.08 1517.37 Q1332.47 1517.37 1330.64 1520.93 Q1328.83 1524.47 1328.83 1531.6 Q1328.83 1538.71 1330.64 1542.27 Q1332.47 1545.82 1336.08 1545.82 Q1339.71 1545.82 1341.52 1542.27 Q1343.35 1538.71 1343.35 1531.6 Q1343.35 1524.47 1341.52 1520.93 Q1339.71 1517.37 1336.08 1517.37 M1336.08 1513.66 Q1341.89 1513.66 1344.94 1518.27 Q1348.02 1522.85 1348.02 1531.6 Q1348.02 1540.33 1344.94 1544.94 Q1341.89 1549.52 1336.08 1549.52 Q1330.27 1549.52 1327.19 1544.94 Q1324.13 1540.33 1324.13 1531.6 Q1324.13 1522.85 1327.19 1518.27 Q1330.27 1513.66 1336.08 1513.66 Z" fill="#000000" fill-rule="nonzero" fill-opacity="1" /><path clip-path="url(#clip460)" d="M1736.82 1544.91 L1744.46 1544.91 L1744.46 1518.55 L1736.15 1520.21 L1736.15 1515.95 L1744.41 1514.29 L1749.09 1514.29 L1749.09 1544.91 L1756.72 1544.91 L1756.72 1548.85 L1736.82 1548.85 L1736.82 1544.91 Z" fill="#000000" fill-rule="nonzero" fill-opacity="1" /><path clip-path="url(#clip460)" d="M1766.21 1514.29 L1784.57 1514.29 L1784.57 1518.22 L1770.5 1518.22 L1770.5 1526.7 Q1771.52 1526.35 1772.53 1526.19 Q1773.55 1526 1774.57 1526 Q1780.36 1526 1783.74 1529.17 Q1787.12 1532.34 1787.12 1537.76 Q1787.12 1543.34 1783.65 1546.44 Q1780.17 1549.52 1773.85 1549.52 Q1771.68 1549.52 1769.41 1549.15 Q1767.16 1548.78 1764.76 1548.04 L1764.76 1543.34 Q1766.84 1544.47 1769.06 1545.03 Q1771.28 1545.58 1773.76 1545.58 Q1777.77 1545.58 1780.1 1543.48 Q1782.44 1541.37 1782.44 1537.76 Q1782.44 1534.15 1780.1 1532.04 Q1777.77 1529.94 1773.76 1529.94 Q1771.89 1529.94 1770.01 1530.35 Q1768.16 1530.77 1766.21 1531.65 L1766.21 1514.29 Z" fill="#000000" fill-rule="nonzero" fill-opacity="1" /><path clip-path="url(#clip460)" d="M1806.33 1517.37 Q1802.72 1517.37 1800.89 1520.93 Q1799.08 1524.47 1799.08 1531.6 Q1799.08 1538.71 1800.89 1542.27 Q1802.72 1545.82 1806.33 1545.82 Q1809.96 1545.82 1811.77 1542.27 Q1813.6 1538.71 1813.6 1531.6 Q1813.6 1524.47 1811.77 1520.93 Q1809.96 1517.37 1806.33 1517.37 M1806.33 1513.66 Q1812.14 1513.66 1815.2 1518.27 Q1818.27 1522.85 1818.27 1531.6 Q1818.27 1540.33 1815.2 1544.94 Q1812.14 1549.52 1806.33 1549.52 Q1800.52 1549.52 1797.44 1544.94 Q1794.39 1540.33 1794.39 1531.6 Q1794.39 1522.85 1797.44 1518.27 Q1800.52 1513.66 1806.33 1513.66 Z" fill="#000000" fill-rule="nonzero" fill-opacity="1" /><path clip-path="url(#clip460)" d="M1836.49 1517.37 Q1832.88 1517.37 1831.05 1520.93 Q1829.25 1524.47 1829.25 1531.6 Q1829.25 1538.71 1831.05 1542.27 Q1832.88 1545.82 1836.49 1545.82 Q1840.13 1545.82 1841.93 1542.27 Q1843.76 1538.71 1843.76 1531.6 Q1843.76 1524.47 1841.93 1520.93 Q1840.13 1517.37 1836.49 1517.37 M1836.49 1513.66 Q1842.3 1513.66 1845.36 1518.27 Q1848.44 1522.85 1848.44 1531.6 Q1848.44 1540.33 1845.36 1544.94 Q1842.3 1549.52 1836.49 1549.52 Q1830.68 1549.52 1827.6 1544.94 Q1824.55 1540.33 1824.55 1531.6 Q1824.55 1522.85 1827.6 1518.27 Q1830.68 1513.66 1836.49 1513.66 Z" fill="#000000" fill-rule="nonzero" fill-opacity="1" /><path clip-path="url(#clip460)" d="M2241.32 1544.91 L2257.64 1544.91 L2257.64 1548.85 L2235.69 1548.85 L2235.69 1544.91 Q2238.35 1542.16 2242.94 1537.53 Q2247.54 1532.88 2248.72 1531.53 Q2250.97 1529.01 2251.85 1527.27 Q2252.75 1525.51 2252.75 1523.82 Q2252.75 1521.07 2250.81 1519.33 Q2248.89 1517.6 2245.79 1517.6 Q2243.59 1517.6 2241.13 1518.36 Q2238.7 1519.13 2235.92 1520.68 L2235.92 1515.95 Q2238.75 1514.82 2241.2 1514.24 Q2243.66 1513.66 2245.69 1513.66 Q2251.06 1513.66 2254.26 1516.35 Q2257.45 1519.03 2257.45 1523.52 Q2257.45 1525.65 2256.64 1527.57 Q2255.85 1529.47 2253.75 1532.07 Q2253.17 1532.74 2250.07 1535.95 Q2246.97 1539.15 2241.32 1544.91 Z" fill="#000000" fill-rule="nonzero" fill-opacity="1" /><path clip-path="url(#clip460)" d="M2277.45 1517.37 Q2273.84 1517.37 2272.01 1520.93 Q2270.21 1524.47 2270.21 1531.6 Q2270.21 1538.71 2272.01 1542.27 Q2273.84 1545.82 2277.45 1545.82 Q2281.09 1545.82 2282.89 1542.27 Q2284.72 1538.71 2284.72 1531.6 Q2284.72 1524.47 2282.89 1520.93 Q2281.09 1517.37 2277.45 1517.37 M2277.45 1513.66 Q2283.26 1513.66 2286.32 1518.27 Q2289.4 1522.85 2289.4 1531.6 Q2289.4 1540.33 2286.32 1544.94 Q2283.26 1549.52 2277.45 1549.52 Q2271.64 1549.52 2268.56 1544.94 Q2265.51 1540.33 2265.51 1531.6 Q2265.51 1522.85 2268.56 1518.27 Q2271.64 1513.66 2277.45 1513.66 Z" fill="#000000" fill-rule="nonzero" fill-opacity="1" /><path clip-path="url(#clip460)" d="M2307.61 1517.37 Q2304 1517.37 2302.17 1520.93 Q2300.37 1524.47 2300.37 1531.6 Q2300.37 1538.71 2302.17 1542.27 Q2304 1545.82 2307.61 1545.82 Q2311.25 1545.82 2313.05 1542.27 Q2314.88 1538.71 2314.88 1531.6 Q2314.88 1524.47 2313.05 1520.93 Q2311.25 1517.37 2307.61 1517.37 M2307.61 1513.66 Q2313.42 1513.66 2316.48 1518.27 Q2319.56 1522.85 2319.56 1531.6 Q2319.56 1540.33 2316.48 1544.94 Q2313.42 1549.52 2307.61 1549.52 Q2301.8 1549.52 2298.72 1544.94 Q2295.67 1540.33 2295.67 1531.6 Q2295.67 1522.85 2298.72 1518.27 Q2301.8 1513.66 2307.61 1513.66 Z" fill="#000000" fill-rule="nonzero" fill-opacity="1" /><path clip-path="url(#clip460)" d="M2337.78 1517.37 Q2334.16 1517.37 2332.34 1520.93 Q2330.53 1524.47 2330.53 1531.6 Q2330.53 1538.71 2332.34 1542.27 Q2334.16 1545.82 2337.78 1545.82 Q2341.41 1545.82 2343.22 1542.27 Q2345.04 1538.71 2345.04 1531.6 Q2345.04 1524.47 2343.22 1520.93 Q2341.41 1517.37 2337.78 1517.37 M2337.78 1513.66 Q2343.59 1513.66 2346.64 1518.27 Q2349.72 1522.85 2349.72 1531.6 Q2349.72 1540.33 2346.64 1544.94 Q2343.59 1549.52 2337.78 1549.52 Q2331.97 1549.52 2328.89 1544.94 Q2325.83 1540.33 2325.83 1531.6 Q2325.83 1522.85 2328.89 1518.27 Q2331.97 1513.66 2337.78 1513.66 Z" fill="#000000" fill-rule="nonzero" fill-opacity="1" /><polyline clip-path="url(#clip462)" style="stroke:#000000; stroke-linecap:round; stroke-linejoin:round; stroke-width:2; stroke-opacity:0.1; fill:none" points="230.996,1332.67 2352.76,1332.67 "/>
<polyline clip-path="url(#clip462)" style="stroke:#000000; stroke-linecap:round; stroke-linejoin:round; stroke-width:2; stroke-opacity:0.1; fill:none" points="230.996,1013.78 2352.76,1013.78 "/>
<polyline clip-path="url(#clip462)" style="stroke:#000000; stroke-linecap:round; stroke-linejoin:round; stroke-width:2; stroke-opacity:0.1; fill:none" points="230.996,694.9 2352.76,694.9 "/>
<polyline clip-path="url(#clip462)" style="stroke:#000000; stroke-linecap:round; stroke-linejoin:round; stroke-width:2; stroke-opacity:0.1; fill:none" points="230.996,376.015 2352.76,376.015 "/>
<polyline clip-path="url(#clip462)" style="stroke:#000000; stroke-linecap:round; stroke-linejoin:round; stroke-width:2; stroke-opacity:0.1; fill:none" points="230.996,57.1308 2352.76,57.1308 "/>
<polyline clip-path="url(#clip460)" style="stroke:#000000; stroke-linecap:round; stroke-linejoin:round; stroke-width:4; stroke-opacity:1; fill:none" points="230.996,1486.45 230.996,47.2441 "/>
<polyline clip-path="url(#clip460)" style="stroke:#000000; stroke-linecap:round; stroke-linejoin:round; stroke-width:4; stroke-opacity:1; fill:none" points="230.996,1332.67 249.894,1332.67 "/>
<polyline clip-path="url(#clip460)" style="stroke:#000000; stroke-linecap:round; stroke-linejoin:round; stroke-width:4; stroke-opacity:1; fill:none" points="230.996,1013.78 249.894,1013.78 "/>
<polyline clip-path="url(#clip460)" style="stroke:#000000; stroke-linecap:round; stroke-linejoin:round; stroke-width:4; stroke-opacity:1; fill:none" points="230.996,694.9 249.894,694.9 "/>
<polyline clip-path="url(#clip460)" style="stroke:#000000; stroke-linecap:round; stroke-linejoin:round; stroke-width:4; stroke-opacity:1; fill:none" points="230.996,376.015 249.894,376.015 "/>
<polyline clip-path="url(#clip460)" style="stroke:#000000; stroke-linecap:round; stroke-linejoin:round; stroke-width:4; stroke-opacity:1; fill:none" points="230.996,57.1308 249.894,57.1308 "/>
<path clip-path="url(#clip460)" d="M52.4505 1315.39 L70.8068 1315.39 L70.8068 1319.32 L56.7328 1319.32 L56.7328 1327.8 Q57.7513 1327.45 58.7699 1327.29 Q59.7884 1327.1 60.8069 1327.1 Q66.5939 1327.1 69.9735 1330.27 Q73.3531 1333.44 73.3531 1338.86 Q73.3531 1344.44 69.8809 1347.54 Q66.4087 1350.62 60.0893 1350.62 Q57.9134 1350.62 55.6449 1350.25 Q53.3995 1349.88 50.9921 1349.14 L50.9921 1344.44 Q53.0754 1345.57 55.2977 1346.13 Q57.5199 1346.69 59.9967 1346.69 Q64.0013 1346.69 66.3393 1344.58 Q68.6772 1342.47 68.6772 1338.86 Q68.6772 1335.25 66.3393 1333.14 Q64.0013 1331.04 59.9967 1331.04 Q58.1217 1331.04 56.2467 1331.45 Q54.3949 1331.87 52.4505 1332.75 L52.4505 1315.39 Z" fill="#000000" fill-rule="nonzero" fill-opacity="1" /><path clip-path="url(#clip460)" d="M92.566 1318.47 Q88.9549 1318.47 87.1262 1322.03 Q85.3206 1325.57 85.3206 1332.7 Q85.3206 1339.81 87.1262 1343.38 Q88.9549 1346.92 92.566 1346.92 Q96.2002 1346.92 98.0058 1343.38 Q99.8345 1339.81 99.8345 1332.7 Q99.8345 1325.57 98.0058 1322.03 Q96.2002 1318.47 92.566 1318.47 M92.566 1314.76 Q98.3761 1314.76 101.432 1319.37 Q104.51 1323.95 104.51 1332.7 Q104.51 1341.43 101.432 1346.04 Q98.3761 1350.62 92.566 1350.62 Q86.7558 1350.62 83.6771 1346.04 Q80.6216 1341.43 80.6216 1332.7 Q80.6216 1323.95 83.6771 1319.37 Q86.7558 1314.76 92.566 1314.76 Z" fill="#000000" fill-rule="nonzero" fill-opacity="1" /><path clip-path="url(#clip460)" d="M122.728 1318.47 Q119.117 1318.47 117.288 1322.03 Q115.483 1325.57 115.483 1332.7 Q115.483 1339.81 117.288 1343.38 Q119.117 1346.92 122.728 1346.92 Q126.362 1346.92 128.168 1343.38 Q129.996 1339.81 129.996 1332.7 Q129.996 1325.57 128.168 1322.03 Q126.362 1318.47 122.728 1318.47 M122.728 1314.76 Q128.538 1314.76 131.594 1319.37 Q134.672 1323.95 134.672 1332.7 Q134.672 1341.43 131.594 1346.04 Q128.538 1350.62 122.728 1350.62 Q116.918 1350.62 113.839 1346.04 Q110.783 1341.43 110.783 1332.7 Q110.783 1323.95 113.839 1319.37 Q116.918 1314.76 122.728 1314.76 Z" fill="#000000" fill-rule="nonzero" fill-opacity="1" /><path clip-path="url(#clip460)" d="M152.89 1318.47 Q149.279 1318.47 147.45 1322.03 Q145.644 1325.57 145.644 1332.7 Q145.644 1339.81 147.45 1343.38 Q149.279 1346.92 152.89 1346.92 Q156.524 1346.92 158.33 1343.38 Q160.158 1339.81 160.158 1332.7 Q160.158 1325.57 158.33 1322.03 Q156.524 1318.47 152.89 1318.47 M152.89 1314.76 Q158.7 1314.76 161.755 1319.37 Q164.834 1323.95 164.834 1332.7 Q164.834 1341.43 161.755 1346.04 Q158.7 1350.62 152.89 1350.62 Q147.08 1350.62 144.001 1346.04 Q140.945 1341.43 140.945 1332.7 Q140.945 1323.95 144.001 1319.37 Q147.08 1314.76 152.89 1314.76 Z" fill="#000000" fill-rule="nonzero" fill-opacity="1" /><path clip-path="url(#clip460)" d="M183.052 1318.47 Q179.441 1318.47 177.612 1322.03 Q175.806 1325.57 175.806 1332.7 Q175.806 1339.81 177.612 1343.38 Q179.441 1346.92 183.052 1346.92 Q186.686 1346.92 188.491 1343.38 Q190.32 1339.81 190.32 1332.7 Q190.32 1325.57 188.491 1322.03 Q186.686 1318.47 183.052 1318.47 M183.052 1314.76 Q188.862 1314.76 191.917 1319.37 Q194.996 1323.95 194.996 1332.7 Q194.996 1341.43 191.917 1346.04 Q188.862 1350.62 183.052 1350.62 Q177.241 1350.62 174.163 1346.04 Q171.107 1341.43 171.107 1332.7 Q171.107 1323.95 174.163 1319.37 Q177.241 1314.76 183.052 1314.76 Z" fill="#000000" fill-rule="nonzero" fill-opacity="1" /><path clip-path="url(#clip460)" d="M52.4505 996.505 L70.8068 996.505 L70.8068 1000.44 L56.7328 1000.44 L56.7328 1008.91 Q57.7513 1008.56 58.7699 1008.4 Q59.7884 1008.22 60.8069 1008.22 Q66.5939 1008.22 69.9735 1011.39 Q73.3531 1014.56 73.3531 1019.98 Q73.3531 1025.56 69.8809 1028.66 Q66.4087 1031.74 60.0893 1031.74 Q57.9134 1031.74 55.6449 1031.37 Q53.3995 1031 50.9921 1030.25 L50.9921 1025.56 Q53.0754 1026.69 55.2977 1027.25 Q57.5199 1027.8 59.9967 1027.8 Q64.0013 1027.8 66.3393 1025.69 Q68.6772 1023.59 68.6772 1019.98 Q68.6772 1016.37 66.3393 1014.26 Q64.0013 1012.15 59.9967 1012.15 Q58.1217 1012.15 56.2467 1012.57 Q54.3949 1012.99 52.4505 1013.87 L52.4505 996.505 Z" fill="#000000" fill-rule="nonzero" fill-opacity="1" /><path clip-path="url(#clip460)" d="M83.3762 1027.13 L91.0151 1027.13 L91.0151 1000.76 L82.7049 1002.43 L82.7049 998.171 L90.9688 996.505 L95.6447 996.505 L95.6447 1027.13 L103.284 1027.13 L103.284 1031.06 L83.3762 1031.06 L83.3762 1027.13 Z" fill="#000000" fill-rule="nonzero" fill-opacity="1" /><path clip-path="url(#clip460)" d="M122.728 999.583 Q119.117 999.583 117.288 1003.15 Q115.483 1006.69 115.483 1013.82 Q115.483 1020.93 117.288 1024.49 Q119.117 1028.03 122.728 1028.03 Q126.362 1028.03 128.168 1024.49 Q129.996 1020.93 129.996 1013.82 Q129.996 1006.69 128.168 1003.15 Q126.362 999.583 122.728 999.583 M122.728 995.88 Q128.538 995.88 131.594 1000.49 Q134.672 1005.07 134.672 1013.82 Q134.672 1022.55 131.594 1027.15 Q128.538 1031.74 122.728 1031.74 Q116.918 1031.74 113.839 1027.15 Q110.783 1022.55 110.783 1013.82 Q110.783 1005.07 113.839 1000.49 Q116.918 995.88 122.728 995.88 Z" fill="#000000" fill-rule="nonzero" fill-opacity="1" /><path clip-path="url(#clip460)" d="M152.89 999.583 Q149.279 999.583 147.45 1003.15 Q145.644 1006.69 145.644 1013.82 Q145.644 1020.93 147.45 1024.49 Q149.279 1028.03 152.89 1028.03 Q156.524 1028.03 158.33 1024.49 Q160.158 1020.93 160.158 1013.82 Q160.158 1006.69 158.33 1003.15 Q156.524 999.583 152.89 999.583 M152.89 995.88 Q158.7 995.88 161.755 1000.49 Q164.834 1005.07 164.834 1013.82 Q164.834 1022.55 161.755 1027.15 Q158.7 1031.74 152.89 1031.74 Q147.08 1031.74 144.001 1027.15 Q140.945 1022.55 140.945 1013.82 Q140.945 1005.07 144.001 1000.49 Q147.08 995.88 152.89 995.88 Z" fill="#000000" fill-rule="nonzero" fill-opacity="1" /><path clip-path="url(#clip460)" d="M183.052 999.583 Q179.441 999.583 177.612 1003.15 Q175.806 1006.69 175.806 1013.82 Q175.806 1020.93 177.612 1024.49 Q179.441 1028.03 183.052 1028.03 Q186.686 1028.03 188.491 1024.49 Q190.32 1020.93 190.32 1013.82 Q190.32 1006.69 188.491 1003.15 Q186.686 999.583 183.052 999.583 M183.052 995.88 Q188.862 995.88 191.917 1000.49 Q194.996 1005.07 194.996 1013.82 Q194.996 1022.55 191.917 1027.15 Q188.862 1031.74 183.052 1031.74 Q177.241 1031.74 174.163 1027.15 Q171.107 1022.55 171.107 1013.82 Q171.107 1005.07 174.163 1000.49 Q177.241 995.88 183.052 995.88 Z" fill="#000000" fill-rule="nonzero" fill-opacity="1" /><path clip-path="url(#clip460)" d="M52.4505 677.62 L70.8068 677.62 L70.8068 681.555 L56.7328 681.555 L56.7328 690.027 Q57.7513 689.68 58.7699 689.518 Q59.7884 689.333 60.8069 689.333 Q66.5939 689.333 69.9735 692.504 Q73.3531 695.676 73.3531 701.092 Q73.3531 706.671 69.8809 709.773 Q66.4087 712.851 60.0893 712.851 Q57.9134 712.851 55.6449 712.481 Q53.3995 712.111 50.9921 711.37 L50.9921 706.671 Q53.0754 707.805 55.2977 708.361 Q57.5199 708.916 59.9967 708.916 Q64.0013 708.916 66.3393 706.81 Q68.6772 704.703 68.6772 701.092 Q68.6772 697.481 66.3393 695.375 Q64.0013 693.268 59.9967 693.268 Q58.1217 693.268 56.2467 693.685 Q54.3949 694.102 52.4505 694.981 L52.4505 677.62 Z" fill="#000000" fill-rule="nonzero" fill-opacity="1" /><path clip-path="url(#clip460)" d="M86.5938 708.245 L102.913 708.245 L102.913 712.18 L80.9688 712.18 L80.9688 708.245 Q83.6308 705.49 88.2141 700.861 Q92.8206 696.208 94.0012 694.865 Q96.2465 692.342 97.1261 690.606 Q98.0289 688.847 98.0289 687.157 Q98.0289 684.402 96.0845 682.666 Q94.1632 680.93 91.0614 680.93 Q88.8623 680.93 86.4086 681.694 Q83.9781 682.458 81.2003 684.009 L81.2003 679.287 Q84.0244 678.153 86.478 677.574 Q88.9317 676.995 90.9688 676.995 Q96.3391 676.995 99.5335 679.68 Q102.728 682.365 102.728 686.856 Q102.728 688.986 101.918 690.907 Q101.131 692.805 99.0243 695.398 Q98.4456 696.069 95.3437 699.287 Q92.2419 702.481 86.5938 708.245 Z" fill="#000000" fill-rule="nonzero" fill-opacity="1" /><path clip-path="url(#clip460)" d="M122.728 680.699 Q119.117 680.699 117.288 684.264 Q115.483 687.805 115.483 694.935 Q115.483 702.041 117.288 705.606 Q119.117 709.148 122.728 709.148 Q126.362 709.148 128.168 705.606 Q129.996 702.041 129.996 694.935 Q129.996 687.805 128.168 684.264 Q126.362 680.699 122.728 680.699 M122.728 676.995 Q128.538 676.995 131.594 681.602 Q134.672 686.185 134.672 694.935 Q134.672 703.662 131.594 708.268 Q128.538 712.851 122.728 712.851 Q116.918 712.851 113.839 708.268 Q110.783 703.662 110.783 694.935 Q110.783 686.185 113.839 681.602 Q116.918 676.995 122.728 676.995 Z" fill="#000000" fill-rule="nonzero" fill-opacity="1" /><path clip-path="url(#clip460)" d="M152.89 680.699 Q149.279 680.699 147.45 684.264 Q145.644 687.805 145.644 694.935 Q145.644 702.041 147.45 705.606 Q149.279 709.148 152.89 709.148 Q156.524 709.148 158.33 705.606 Q160.158 702.041 160.158 694.935 Q160.158 687.805 158.33 684.264 Q156.524 680.699 152.89 680.699 M152.89 676.995 Q158.7 676.995 161.755 681.602 Q164.834 686.185 164.834 694.935 Q164.834 703.662 161.755 708.268 Q158.7 712.851 152.89 712.851 Q147.08 712.851 144.001 708.268 Q140.945 703.662 140.945 694.935 Q140.945 686.185 144.001 681.602 Q147.08 676.995 152.89 676.995 Z" fill="#000000" fill-rule="nonzero" fill-opacity="1" /><path clip-path="url(#clip460)" d="M183.052 680.699 Q179.441 680.699 177.612 684.264 Q175.806 687.805 175.806 694.935 Q175.806 702.041 177.612 705.606 Q179.441 709.148 183.052 709.148 Q186.686 709.148 188.491 705.606 Q190.32 702.041 190.32 694.935 Q190.32 687.805 188.491 684.264 Q186.686 680.699 183.052 680.699 M183.052 676.995 Q188.862 676.995 191.917 681.602 Q194.996 686.185 194.996 694.935 Q194.996 703.662 191.917 708.268 Q188.862 712.851 183.052 712.851 Q177.241 712.851 174.163 708.268 Q171.107 703.662 171.107 694.935 Q171.107 686.185 174.163 681.602 Q177.241 676.995 183.052 676.995 Z" fill="#000000" fill-rule="nonzero" fill-opacity="1" /><path clip-path="url(#clip460)" d="M52.4505 358.735 L70.8068 358.735 L70.8068 362.671 L56.7328 362.671 L56.7328 371.143 Q57.7513 370.796 58.7699 370.634 Q59.7884 370.448 60.8069 370.448 Q66.5939 370.448 69.9735 373.62 Q73.3531 376.791 73.3531 382.208 Q73.3531 387.786 69.8809 390.888 Q66.4087 393.967 60.0893 393.967 Q57.9134 393.967 55.6449 393.596 Q53.3995 393.226 50.9921 392.485 L50.9921 387.786 Q53.0754 388.92 55.2977 389.476 Q57.5199 390.032 59.9967 390.032 Q64.0013 390.032 66.3393 387.925 Q68.6772 385.819 68.6772 382.208 Q68.6772 378.596 66.3393 376.49 Q64.0013 374.384 59.9967 374.384 Q58.1217 374.384 56.2467 374.8 Q54.3949 375.217 52.4505 376.096 L52.4505 358.735 Z" fill="#000000" fill-rule="nonzero" fill-opacity="1" /><path clip-path="url(#clip460)" d="M96.7326 374.661 Q100.089 375.379 101.964 377.647 Q103.862 379.916 103.862 383.249 Q103.862 388.365 100.344 391.166 Q96.8252 393.967 90.3438 393.967 Q88.1679 393.967 85.8531 393.527 Q83.5614 393.11 81.1077 392.254 L81.1077 387.74 Q83.0521 388.874 85.3669 389.453 Q87.6817 390.032 90.2049 390.032 Q94.603 390.032 96.8947 388.295 Q99.2095 386.559 99.2095 383.249 Q99.2095 380.194 97.0567 378.481 Q94.9271 376.745 91.1077 376.745 L87.0799 376.745 L87.0799 372.902 L91.2928 372.902 Q94.7419 372.902 96.5706 371.536 Q98.3993 370.147 98.3993 367.555 Q98.3993 364.893 96.5011 363.481 Q94.6262 362.046 91.1077 362.046 Q89.1864 362.046 86.9873 362.462 Q84.7882 362.879 82.1494 363.759 L82.1494 359.592 Q84.8114 358.851 87.1262 358.481 Q89.4641 358.11 91.5243 358.11 Q96.8484 358.11 99.9502 360.541 Q103.052 362.948 103.052 367.069 Q103.052 369.939 101.409 371.93 Q99.765 373.897 96.7326 374.661 Z" fill="#000000" fill-rule="nonzero" fill-opacity="1" /><path clip-path="url(#clip460)" d="M122.728 361.814 Q119.117 361.814 117.288 365.379 Q115.483 368.921 115.483 376.05 Q115.483 383.157 117.288 386.721 Q119.117 390.263 122.728 390.263 Q126.362 390.263 128.168 386.721 Q129.996 383.157 129.996 376.05 Q129.996 368.921 128.168 365.379 Q126.362 361.814 122.728 361.814 M122.728 358.11 Q128.538 358.11 131.594 362.717 Q134.672 367.3 134.672 376.05 Q134.672 384.777 131.594 389.383 Q128.538 393.967 122.728 393.967 Q116.918 393.967 113.839 389.383 Q110.783 384.777 110.783 376.05 Q110.783 367.3 113.839 362.717 Q116.918 358.11 122.728 358.11 Z" fill="#000000" fill-rule="nonzero" fill-opacity="1" /><path clip-path="url(#clip460)" d="M152.89 361.814 Q149.279 361.814 147.45 365.379 Q145.644 368.921 145.644 376.05 Q145.644 383.157 147.45 386.721 Q149.279 390.263 152.89 390.263 Q156.524 390.263 158.33 386.721 Q160.158 383.157 160.158 376.05 Q160.158 368.921 158.33 365.379 Q156.524 361.814 152.89 361.814 M152.89 358.11 Q158.7 358.11 161.755 362.717 Q164.834 367.3 164.834 376.05 Q164.834 384.777 161.755 389.383 Q158.7 393.967 152.89 393.967 Q147.08 393.967 144.001 389.383 Q140.945 384.777 140.945 376.05 Q140.945 367.3 144.001 362.717 Q147.08 358.11 152.89 358.11 Z" fill="#000000" fill-rule="nonzero" fill-opacity="1" /><path clip-path="url(#clip460)" d="M183.052 361.814 Q179.441 361.814 177.612 365.379 Q175.806 368.921 175.806 376.05 Q175.806 383.157 177.612 386.721 Q179.441 390.263 183.052 390.263 Q186.686 390.263 188.491 386.721 Q190.32 383.157 190.32 376.05 Q190.32 368.921 188.491 365.379 Q186.686 361.814 183.052 361.814 M183.052 358.11 Q188.862 358.11 191.917 362.717 Q194.996 367.3 194.996 376.05 Q194.996 384.777 191.917 389.383 Q188.862 393.967 183.052 393.967 Q177.241 393.967 174.163 389.383 Q171.107 384.777 171.107 376.05 Q171.107 367.3 174.163 362.717 Q177.241 358.11 183.052 358.11 Z" fill="#000000" fill-rule="nonzero" fill-opacity="1" /><path clip-path="url(#clip460)" d="M52.4505 39.8508 L70.8068 39.8508 L70.8068 43.7859 L56.7328 43.7859 L56.7328 52.2581 Q57.7513 51.9109 58.7699 51.7488 Q59.7884 51.5637 60.8069 51.5637 Q66.5939 51.5637 69.9735 54.7349 Q73.3531 57.9062 73.3531 63.3229 Q73.3531 68.9015 69.8809 72.0034 Q66.4087 75.0821 60.0893 75.0821 Q57.9134 75.0821 55.6449 74.7117 Q53.3995 74.3413 50.9921 73.6006 L50.9921 68.9015 Q53.0754 70.0358 55.2977 70.5913 Q57.5199 71.1469 59.9967 71.1469 Q64.0013 71.1469 66.3393 69.0404 Q68.6772 66.9339 68.6772 63.3229 Q68.6772 59.7118 66.3393 57.6053 Q64.0013 55.4988 59.9967 55.4988 Q58.1217 55.4988 56.2467 55.9155 Q54.3949 56.3322 52.4505 57.2118 L52.4505 39.8508 Z" fill="#000000" fill-rule="nonzero" fill-opacity="1" /><path clip-path="url(#clip460)" d="M95.4132 43.9248 L83.6077 62.3738 L95.4132 62.3738 L95.4132 43.9248 M94.1863 39.8508 L100.066 39.8508 L100.066 62.3738 L104.996 62.3738 L104.996 66.2627 L100.066 66.2627 L100.066 74.4108 L95.4132 74.4108 L95.4132 66.2627 L79.8114 66.2627 L79.8114 61.7488 L94.1863 39.8508 Z" fill="#000000" fill-rule="nonzero" fill-opacity="1" /><path clip-path="url(#clip460)" d="M122.728 42.9294 Q119.117 42.9294 117.288 46.4942 Q115.483 50.0359 115.483 57.1655 Q115.483 64.2719 117.288 67.8367 Q119.117 71.3784 122.728 71.3784 Q126.362 71.3784 128.168 67.8367 Q129.996 64.2719 129.996 57.1655 Q129.996 50.0359 128.168 46.4942 Q126.362 42.9294 122.728 42.9294 M122.728 39.2258 Q128.538 39.2258 131.594 43.8322 Q134.672 48.4155 134.672 57.1655 Q134.672 65.8923 131.594 70.4987 Q128.538 75.0821 122.728 75.0821 Q116.918 75.0821 113.839 70.4987 Q110.783 65.8923 110.783 57.1655 Q110.783 48.4155 113.839 43.8322 Q116.918 39.2258 122.728 39.2258 Z" fill="#000000" fill-rule="nonzero" fill-opacity="1" /><path clip-path="url(#clip460)" d="M152.89 42.9294 Q149.279 42.9294 147.45 46.4942 Q145.644 50.0359 145.644 57.1655 Q145.644 64.2719 147.45 67.8367 Q149.279 71.3784 152.89 71.3784 Q156.524 71.3784 158.33 67.8367 Q160.158 64.2719 160.158 57.1655 Q160.158 50.0359 158.33 46.4942 Q156.524 42.9294 152.89 42.9294 M152.89 39.2258 Q158.7 39.2258 161.755 43.8322 Q164.834 48.4155 164.834 57.1655 Q164.834 65.8923 161.755 70.4987 Q158.7 75.0821 152.89 75.0821 Q147.08 75.0821 144.001 70.4987 Q140.945 65.8923 140.945 57.1655 Q140.945 48.4155 144.001 43.8322 Q147.08 39.2258 152.89 39.2258 Z" fill="#000000" fill-rule="nonzero" fill-opacity="1" /><path clip-path="url(#clip460)" d="M183.052 42.9294 Q179.441 42.9294 177.612 46.4942 Q175.806 50.0359 175.806 57.1655 Q175.806 64.2719 177.612 67.8367 Q179.441 71.3784 183.052 71.3784 Q186.686 71.3784 188.491 67.8367 Q190.32 64.2719 190.32 57.1655 Q190.32 50.0359 188.491 46.4942 Q186.686 42.9294 183.052 42.9294 M183.052 39.2258 Q188.862 39.2258 191.917 43.8322 Q194.996 48.4155 194.996 57.1655 Q194.996 65.8923 191.917 70.4987 Q188.862 75.0821 183.052 75.0821 Q177.241 75.0821 174.163 70.4987 Q171.107 65.8923 171.107 57.1655 Q171.107 48.4155 174.163 43.8322 Q177.241 39.2258 183.052 39.2258 Z" fill="#000000" fill-rule="nonzero" fill-opacity="1" /><polyline clip-path="url(#clip462)" style="stroke:#009af9; stroke-linecap:round; stroke-linejoin:round; stroke-width:4; stroke-opacity:1; fill:none" points="291.046,453.341 292.047,453.465 293.047,453.559 294.048,453.631 295.049,453.686 296.05,589.878 297.051,590.055 298.052,590.19 299.052,590.293 300.053,590.372 301.054,459.058 302.055,459.299 303.056,459.484 304.057,459.624 305.057,459.731 306.058,860.039 307.059,860.501 308.06,860.857 309.061,861.13 310.062,861.34 311.062,377.726 312.063,377.738 313.064,377.747 314.065,377.754 315.066,377.759 316.067,519.216 317.067,519.313 318.068,519.386 319.069,519.442 320.07,519.485 321.071,1115.29 322.072,1115.4 323.072,1115.49 324.073,1115.55 325.074,1115.6 326.075,570.79 327.076,571.245 328.077,571.591 329.077,571.855 330.078,572.056 331.079,970.052 332.08,970.158 333.081,970.239 334.081,970.302 335.082,970.351 336.083,843.149 337.084,843.445 338.085,843.673 339.086,843.847 340.086,843.981 341.087,409.609 342.088,409.66 343.089,409.699 344.09,409.729 345.091,409.751 346.091,709.276 347.092,709.508 348.093,709.685 349.094,709.821 350.095,709.925 351.096,730.119 352.096,730.593 353.097,730.957 354.098,731.235 355.099,731.448 356.1,403.507 357.101,403.631 358.101,403.725 359.102,403.796 360.103,403.851 361.104,816.736 362.105,816.862 363.106,816.958 364.106,817.032 365.107,817.088 366.108,913.501 367.109,913.535 368.11,913.56 369.111,913.58 370.111,913.596 371.112,745.394 372.113,745.699 373.114,745.933 374.115,746.112 375.116,746.249 376.116,588.943 377.117,589.126 378.118,589.265 379.119,589.372 380.12,589.454 381.121,537.659 382.121,537.962 383.122,538.193 384.123,538.37 385.124,538.505 386.125,739.313 387.125,739.405 388.126,739.475 389.127,739.529 390.128,739.57 391.129,1018.26 392.13,1018.42 393.13,1018.53 394.131,1018.63 395.132,1018.7 396.133,445.957 397.134,446.043 398.135,446.109 399.135,446.159 400.136,446.197 401.137,870.874 402.138,871.183 403.139,871.42 404.14,871.602 405.14,871.742 406.141,396.737 407.142,396.999 408.143,397.199 409.144,397.351 410.145,397.466 411.145,731.254 412.146,731.29 413.147,731.317 414.148,731.338 415.149,731.355 416.15,813.448 417.15,813.53 418.151,813.594 419.152,813.643 420.153,813.68 421.154,296.344 422.155,296.581 423.155,296.762 424.156,296.899 425.157,297.003 426.158,522.462 427.159,522.613 428.16,522.729 429.16,522.817 430.161,522.884 431.162,1021.59 432.163,1021.76 433.164,1021.9 434.165,1022 435.165,1022.08 436.166,688.409 437.167,688.457 438.168,688.493 439.169,688.521 440.169,688.542 441.17,981.555 442.171,981.824 443.172,982.031 444.173,982.191 445.174,982.314 446.174,934.881 447.175,935.014 448.176,935.115 449.177,935.194 450.178,935.254 451.179,619.677 452.179,619.81 453.18,619.911 454.181,619.989 455.182,620.048 456.183,1144.42 457.184,1144.63 458.184,1144.8 459.185,1144.93 460.186,1145.02 461.187,935.773 462.188,935.949 463.189,936.085 464.189,936.189 465.19,936.27 466.191,848.355 467.192,848.501 468.193,848.613 469.194,848.699 470.194,848.765 471.195,626.826 472.196,627.044 473.197,627.211 474.198,627.339 475.199,627.436 476.199,655.545 477.2,655.711 478.201,655.838 479.202,655.935 480.203,656.01 481.204,1041.43 482.204,1041.67 483.205,1041.86 484.206,1042.01 485.207,1042.12 486.208,984.361 487.209,984.473 488.209,984.559 489.21,984.625 490.211,984.676 491.212,868.087 492.213,868.256 493.213,868.386 494.214,868.486 495.215,868.563 496.216,895.124 497.217,895.167 498.218,895.2 499.218,895.225 500.219,895.245 501.22,909.022 502.221,909.166 503.222,909.278 504.223,909.363 505.223,909.429 506.224,870.519 507.225,870.623 508.226,870.702 509.227,870.763 510.228,870.81 511.228,704.91 512.229,705.122 513.23,705.285 514.231,705.41 515.232,705.505 516.233,842.719 517.233,842.876 518.234,842.997 519.235,843.091 520.236,843.163 521.237,699.877 522.238,699.886 523.238,699.893 524.239,699.899 525.24,699.903 526.241,839.881 527.242,839.955 528.243,840.012 529.243,840.056 530.244,840.089 531.245,712.895 532.246,713.093 533.247,713.244 534.248,713.361 535.248,713.45 536.249,841.755 537.25,842.019 538.251,842.222 539.252,842.378 540.253,842.497 541.253,424.403 542.254,424.506 543.255,424.584 544.256,424.644 545.257,424.69 546.257,580.769 547.258,580.938 548.259,581.068 549.26,581.167 550.261,581.242 551.262,718.778 552.262,718.912 553.263,719.015 554.264,719.094 555.265,719.154 556.266,907.658 557.267,907.737 558.267,907.798 559.268,907.845 560.269,907.881 561.27,787.756 562.271,787.896 563.272,788.004 564.272,788.086 565.273,788.149 566.274,609.16 567.275,609.321 568.276,609.445 569.277,609.539 570.277,609.612 571.278,1004.08 572.279,1004.56 573.28,1004.94 574.281,1005.22 575.282,1005.45 576.282,885.077 577.283,885.339 578.284,885.54 579.285,885.695 580.286,885.814 581.287,778.992 582.287,779.102 583.288,779.187 584.289,779.252 585.29,779.302 586.291,719.456 587.292,719.568 588.292,719.654 589.293,719.72 590.294,719.77 591.295,914.401 592.296,914.492 593.296,914.563 594.297,914.617 595.298,914.659 596.299,557.508 597.3,557.62 598.301,557.706 599.301,557.771 600.302,557.821 601.303,504.498 602.304,504.718 603.305,504.887 604.306,505.016 605.306,505.115 606.307,785.666 607.308,785.764 608.309,785.839 609.31,785.896 610.311,785.941 611.311,781.35 612.312,781.373 613.313,781.39 614.314,781.403 615.315,781.414 616.316,603.396 617.316,603.497 618.317,603.575 619.318,603.634 620.319,603.68 621.32,630.392 622.321,630.56 623.321,630.689 624.322,630.788 625.323,630.864 626.324,722.817 627.325,722.882 628.326,722.931 629.326,722.969 630.327,722.998 631.328,583.269 632.329,583.564 633.33,583.789 634.331,583.962 635.331,584.094 636.332,935.286 637.333,935.392 638.334,935.474 639.335,935.537 640.336,935.585 641.336,786.162 642.337,786.296 643.338,786.398 644.339,786.477 645.34,786.537 646.34,1134.87 647.341,1134.94 648.342,1134.99 649.343,1135.02 650.344,1135.05 651.345,1055.52 652.345,1055.62 653.346,1055.71 654.347,1055.77 655.348,1055.82 656.349,737.474 657.35,737.608 658.35,737.711 659.351,737.79 660.352,737.851 661.353,954.78 662.354,955.011 663.355,955.19 664.355,955.327 665.356,955.432 666.357,1042.14 667.358,1042.27 668.359,1042.37 669.36,1042.45 670.36,1042.51 671.361,630.88 672.362,631.088 673.363,631.248 674.364,631.37 675.365,631.464 676.365,437.97 677.366,438.079 678.367,438.162 679.368,438.225 680.369,438.273 681.37,1017.33 682.37,1017.47 683.371,1017.58 684.372,1017.66 685.373,1017.72 686.374,313.219 687.375,313.284 688.375,313.334 689.376,313.371 690.377,313.4 691.378,467.114 692.379,467.195 693.38,467.256 694.38,467.302 695.381,467.338 696.382,706.33 697.383,706.379 698.384,706.418 699.384,706.447 700.385,706.47 701.386,649.375 702.387,649.731 703.388,650.004 704.389,650.212 705.389,650.372 706.39,644.981 707.391,645.046 708.392,645.097 709.393,645.135 710.394,645.164 711.394,820.864 712.395,821 713.396,821.106 714.397,821.186 715.398,821.249 716.399,398.734 717.399,398.954 718.4,399.121 719.401,399.249 720.402,399.346 721.403,540.701 722.404,541.042 723.404,541.302 724.405,541.5 725.406,541.651 726.407,819.834 727.408,819.9 728.409,819.951 729.409,819.99 730.41,820.02 731.411,718.213 732.412,718.338 733.413,718.435 734.414,718.509 735.414,718.565 736.415,821.009 737.416,821.061 738.417,821.101 739.418,821.132 740.419,821.155 741.419,869.541 742.42,869.601 743.421,869.646 744.422,869.681 745.423,869.709 746.424,765.723 747.424,766.091 748.425,766.374 749.426,766.591 750.427,766.758 751.428,572.527 752.428,572.933 753.429,573.243 754.43,573.48 755.431,573.66 756.432,912.562 757.433,912.666 758.433,912.746 759.434,912.807 760.435,912.854 761.436,324.875 762.437,324.98 763.438,325.061 764.438,325.122 765.439,325.168 766.44,1022.7 767.441,1022.87 768.442,1023 769.443,1023.09 770.443,1023.17 771.444,1000.84 772.445,1001.04 773.446,1001.19 774.447,1001.31 775.448,1001.41 776.448,568.886 777.449,569.463 778.45,569.905 779.451,570.242 780.452,570.499 781.453,867.485 782.453,867.67 783.454,867.813 784.455,867.923 785.456,868.007 786.457,594.665 787.458,594.755 788.458,594.824 789.459,594.877 790.46,594.917 791.461,720.006 792.462,720.187 793.463,720.326 794.463,720.433 795.464,720.514 796.465,623.291 797.466,623.413 798.467,623.507 799.468,623.578 800.468,623.633 801.469,803.05 802.47,803.118 803.471,803.17 804.472,803.211 805.472,803.241 806.473,675.461 807.474,675.536 808.475,675.595 809.476,675.64 810.477,675.674 811.477,672.401 812.478,672.854 813.479,673.203 814.48,673.47 815.481,673.676 816.482,798.626 817.482,798.717 818.483,798.786 819.484,798.839 820.485,798.88 821.486,938.504 822.487,938.595 823.487,938.664 824.488,938.718 825.489,938.759 826.49,904.036 827.491,904.171 828.492,904.274 829.492,904.354 830.493,904.415 831.494,802.895 832.495,803.021 833.496,803.118 834.497,803.193 835.497,803.25 836.498,554.458 837.499,554.643 838.5,554.785 839.501,554.894 840.502,554.977 841.502,750.993 842.503,751.125 843.504,751.226 844.505,751.303 845.506,751.362 846.507,1039.28 847.507,1039.57 848.508,1039.79 849.509,1039.96 850.51,1040.1 851.511,682.193 852.512,682.274 853.512,682.336 854.513,682.384 855.514,682.42 856.515,746.401 857.516,746.93 858.516,747.335 859.517,747.646 860.518,747.884 861.519,895.49 862.52,895.622 863.521,895.724 864.521,895.802 865.522,895.863 866.523,175.227 867.524,175.507 868.525,175.72 869.526,175.883 870.526,176.007 871.527,1006.59 872.528,1006.69 873.529,1006.77 874.53,1006.83 875.531,1006.88 876.531,718.666 877.532,718.7 878.533,718.726 879.534,718.746 880.535,718.761 881.536,905.473 882.536,905.633 883.537,905.756 884.538,905.852 885.539,905.925 886.54,1033.1 887.541,1033.27 888.541,1033.41 889.542,1033.51 890.543,1033.59 891.544,928.97 892.545,929.129 893.546,929.251 894.546,929.345 895.547,929.418 896.548,658.776 897.549,658.843 898.55,658.895 899.551,658.935 900.551,658.965 901.552,884.707 902.553,884.848 903.554,884.957 904.555,885.041 905.556,885.106 906.556,854.138 907.557,854.316 908.558,854.454 909.559,854.559 910.56,854.64 911.56,625.791 912.561,626.107 913.562,626.349 914.563,626.535 915.564,626.678 916.565,800.906 917.565,800.953 918.566,800.989 919.567,801.017 920.568,801.038 921.569,731.266 922.57,731.312 923.57,731.347 924.571,731.375 925.572,731.395 926.573,1049.36 927.574,1049.37 928.575,1049.38 929.575,1049.39 930.576,1049.4 931.577,1152.96 932.578,1153.07 933.579,1153.15 934.58,1153.22 935.58,1153.27 936.581,666.747 937.582,667.043 938.583,667.271 939.584,667.446 940.585,667.58 941.585,690.598 942.586,690.682 943.587,690.747 944.588,690.797 945.589,690.835 946.59,694.001 947.59,694.095 948.591,694.168 949.592,694.224 950.593,694.267 951.594,449.227 952.595,449.303 953.595,449.361 954.596,449.405 955.597,449.439 956.598,651.534 957.599,651.711 958.6,651.846 959.6,651.95 960.601,652.029 961.602,922.733 962.603,922.784 963.604,922.823 964.604,922.852 965.605,922.876 966.606,736.75 967.607,736.985 968.608,737.165 969.609,737.303 970.609,737.409 971.61,1274.96 972.611,1275.26 973.612,1275.5 974.613,1275.68 975.614,1275.82 976.614,671.398 977.615,671.488 978.616,671.557 979.617,671.61 980.618,671.65 981.619,712.052 982.619,712.234 983.62,712.372 984.621,712.479 985.622,712.56 986.623,368.024 987.624,368.523 988.624,368.905 989.625,369.197 990.626,369.42 991.627,1009.97 992.628,1010.06 993.629,1010.14 994.629,1010.19 995.63,1010.24 996.631,719.589 997.632,719.727 998.633,719.834 999.634,719.916 1000.63,719.979 1001.64,622.492 1002.64,622.902 1003.64,623.218 1004.64,623.461 1005.64,623.648 1006.64,456.688 1007.64,456.927 1008.64,457.11 1009.64,457.249 1010.64,457.355 1011.64,638.025 1012.64,638.242 1013.65,638.409 1014.65,638.536 1015.65,638.633 1016.65,894.881 1017.65,894.951 1018.65,895.005 1019.65,895.047 1020.65,895.08 1021.65,759.322 1022.65,759.589 1023.65,759.795 1024.65,759.953 1025.66,760.074 1026.66,765.631 1027.66,765.854 1028.66,766.026 1029.66,766.159 1030.66,766.262 1031.66,808.606 1032.66,808.728 1033.66,808.821 1034.66,808.894 1035.66,808.95 1036.66,735.085 1037.67,735.14 1038.67,735.183 1039.67,735.215 1040.67,735.24 1041.67,691.87 1042.67,691.94 1043.67,691.993 1044.67,692.034 1045.67,692.065 1046.67,504.552 1047.67,504.694 1048.67,504.803 1049.68,504.886 1050.68,504.949 1051.68,452.525 1052.68,452.776 1053.68,452.969 1054.68,453.116 1055.68,453.228 1056.68,537.493 1057.68,537.557 1058.68,537.607 1059.68,537.644 1060.68,537.673 1061.69,1302.45 1062.69,1302.55 1063.69,1302.63 1064.69,1302.7 1065.69,1302.75 1066.69,1042.79 1067.69,1042.87 1068.69,1042.93 1069.69,1042.97 1070.69,1043.01 1071.69,1186.36 1072.69,1186.41 1073.69,1186.44 1074.7,1186.47 1075.7,1186.5 1076.7,837.048 1077.7,837.122 1078.7,837.179 1079.7,837.223 1080.7,837.257 1081.7,864.493 1082.7,864.681 1083.7,864.827 1084.7,864.938 1085.7,865.024 1086.71,515.244 1087.71,515.356 1088.71,515.441 1089.71,515.507 1090.71,515.557 1091.71,488.53 1092.71,488.69 1093.71,488.812 1094.71,488.905 1095.71,488.976 1096.71,1005.71 1097.71,1005.83 1098.72,1005.93 1099.72,1006 1100.72,1006.06 1101.72,845.015 1102.72,845.124 1103.72,845.209 1104.72,845.274 1105.72,845.324 1106.72,549.584 1107.72,550.024 1108.72,550.361 1109.72,550.62 1110.73,550.818 1111.73,846.482 1112.73,846.88 1113.73,847.188 1114.73,847.426 1115.73,847.609 1116.73,87.9763 1117.73,88.0489 1118.73,88.104 1119.73,88.146 1120.73,88.1779 1121.73,753.191 1122.74,753.324 1123.74,753.426 1124.74,753.505 1125.74,753.565 1126.74,711.593 1127.74,711.66 1128.74,711.713 1129.74,711.753 1130.74,711.783 1131.74,907.32 1132.74,907.392 1133.74,907.448 1134.75,907.491 1135.75,907.525 1136.75,643.536 1137.75,643.68 1138.75,643.791 1139.75,643.876 1140.75,643.942 1141.75,682.809 1142.75,683.126 1143.75,683.37 1144.75,683.557 1145.75,683.701 1146.76,730.48 1147.76,730.895 1148.76,731.212 1149.76,731.456 1150.76,731.642 1151.76,1201.3 1152.76,1201.49 1153.76,1201.64 1154.76,1201.76 1155.76,1201.85 1156.76,803.201 1157.76,803.253 1158.77,803.293 1159.77,803.324 1160.77,803.348 1161.77,1284.85 1162.77,1284.9 1163.77,1284.95 1164.77,1284.98 1165.77,1285 1166.77,931.861 1167.77,932.198 1168.77,932.458 1169.77,932.66 1170.78,932.817 1171.78,747.012 1172.78,747.146 1173.78,747.249 1174.78,747.328 1175.78,747.389 1176.78,611.438 1177.78,611.679 1178.78,611.864 1179.78,612.006 1180.78,612.114 1181.78,844.689 1182.79,844.741 1183.79,844.782 1184.79,844.813 1185.79,844.838 1186.79,678.35 1187.79,678.558 1188.79,678.719 1189.79,678.844 1190.79,678.94 1191.79,951.876 1192.79,951.927 1193.79,951.966 1194.8,951.996 1195.8,952.02 1196.8,512.09 1197.8,512.173 1198.8,512.237 1199.8,512.286 1200.8,512.323 1201.8,535.531 1202.8,535.856 1203.8,536.105 1204.8,536.297 1205.8,536.444 1206.81,771.467 1207.81,771.526 1208.81,771.571 1209.81,771.606 1210.81,771.632 1211.81,593.747 1212.81,593.782 1213.81,593.809 1214.81,593.829 1215.81,593.845 1216.81,818.653 1217.81,818.719 1218.82,818.77 1219.82,818.809 1220.82,818.839 1221.82,1029.31 1222.82,1029.38 1223.82,1029.43 1224.82,1029.46 1225.82,1029.49 1226.82,857.979 1227.82,858.167 1228.82,858.312 1229.82,858.423 1230.83,858.508 1231.83,498.239 1232.83,498.297 1233.83,498.342 1234.83,498.377 1235.83,498.403 1236.83,897.994 1237.83,898.108 1238.83,898.197 1239.83,898.265 1240.83,898.318 1241.83,893.328 1242.84,893.58 1243.84,893.777 1244.84,893.93 1245.84,894.049 1246.84,648.858 1247.84,649.042 1248.84,649.185 1249.84,649.296 1250.84,649.382 1251.84,651.458 1252.84,651.49 1253.84,651.515 1254.85,651.534 1255.85,651.549 1256.85,1048.12 1257.85,1048.27 1258.85,1048.38 1259.85,1048.47 1260.85,1048.54 1261.85,770.843 1262.85,771.102 1263.85,771.301 1264.85,771.454 1265.85,771.572 1266.86,1002.96 1267.86,1003.03 1268.86,1003.09 1269.86,1003.14 1270.86,1003.17 1271.86,574.289 1272.86,574.414 1273.86,574.51 1274.86,574.584 1275.86,574.64 1276.86,1085.66 1277.86,1085.8 1278.87,1085.9 1279.87,1085.99 1280.87,1086.05 1281.87,838.385 1282.87,838.823 1283.87,839.162 1284.87,839.424 1285.87,839.627 1286.87,521.204 1287.87,521.253 1288.87,521.291 1289.87,521.319 1290.88,521.341 1291.88,734.348 1292.88,734.731 1293.88,735.024 1294.88,735.247 1295.88,735.418 1296.88,684.055 1297.88,684.171 1298.88,684.26 1299.88,684.328 1300.88,684.38 1301.88,776.522 1302.89,776.737 1303.89,776.905 1304.89,777.035 1305.89,777.136 1306.89,532.52 1307.89,532.733 1308.89,532.897 1309.89,533.021 1310.89,533.117 1311.89,641.302 1312.89,641.608 1313.89,641.843 1314.9,642.023 1315.9,642.161 1316.9,879.622 1317.9,879.83 1318.9,879.99 1319.9,880.114 1320.9,880.21 1321.9,632.545 1322.9,632.827 1323.9,633.045 1324.9,633.212 1325.9,633.34 1326.91,1019.19 1327.91,1019.39 1328.91,1019.54 1329.91,1019.66 1330.91,1019.75 1331.91,799.298 1332.91,799.439 1333.91,799.548 1334.91,799.632 1335.91,799.698 1336.91,1004.2 1337.91,1004.42 1338.91,1004.6 1339.92,1004.73 1340.92,1004.84 1341.92,944.463 1342.92,944.786 1343.92,945.037 1344.92,945.234 1345.92,945.388 1346.92,810.292 1347.92,810.745 1348.92,811.099 1349.92,811.377 1350.92,811.595 1351.93,996.322 1352.93,996.414 1353.93,996.486 1354.93,996.541 1355.93,996.585 1356.93,805.064 1357.93,805.078 1358.93,805.088 1359.93,805.096 1360.93,805.102 1361.93,876.633 1362.93,876.83 1363.94,876.982 1364.94,877.1 1365.94,877.191 1366.94,914.769 1367.94,915.121 1368.94,915.393 1369.94,915.604 1370.94,915.767 1371.94,621.406 1372.94,621.463 1373.94,621.507 1374.94,621.541 1375.95,621.567 1376.95,694.911 1377.95,694.986 1378.95,695.043 1379.95,695.087 1380.95,695.121 1381.95,1085.38 1382.95,1085.69 1383.95,1085.93 1384.95,1086.12 1385.95,1086.27 1386.95,879.753 1387.96,880.179 1388.96,880.505 1389.96,880.756 1390.96,880.949 1391.96,525.458 1392.96,525.509 1393.96,525.548 1394.96,525.579 1395.96,525.602 1396.96,959.447 1397.96,959.655 1398.96,959.817 1399.97,959.943 1400.97,960.041 1401.97,882.457 1402.97,882.678 1403.97,882.849 1404.97,882.982 1405.97,883.086 1406.97,507.589 1407.97,507.696 1408.97,507.778 1409.97,507.84 1410.97,507.887 1411.98,1094.96 1412.98,1095.27 1413.98,1095.52 1414.98,1095.72 1415.98,1095.87 1416.98,832.389 1417.98,832.826 1418.98,833.167 1419.98,833.431 1420.98,833.637 1421.98,824.982 1422.98,825.096 1423.99,825.185 1424.99,825.253 1425.99,825.307 1426.99,1070.38 1427.99,1070.73 1428.99,1071 1429.99,1071.21 1430.99,1071.37 1431.99,973.147 1432.99,973.188 1433.99,973.219 1434.99,973.243 1436,973.262 1437,1076.3 1438,1076.68 1439,1076.98 1440,1077.21 1441,1077.38 1442,511.906 1443,512.264 1444,512.538 1445,512.748 1446,512.909 1447,916.621 1448.01,916.887 1449.01,917.092 1450.01,917.25 1451.01,917.371 1452.01,1075.84 1453.01,1075.93 1454.01,1075.99 1455.01,1076.04 1456.01,1076.08 1457.01,935.972 1458.01,936.065 1459.01,936.138 1460.02,936.196 1461.02,936.242 1462.02,831.011 1463.02,831.482 1464.02,831.85 1465.02,832.137 1466.02,832.362 1467.02,998.223 1468.02,998.347 1469.02,998.444 1470.02,998.519 1471.02,998.578 1472.03,1014.85 1473.03,1014.96 1474.03,1015.05 1475.03,1015.12 1476.03,1015.18 1477.03,1092.56 1478.03,1092.74 1479.03,1092.88 1480.03,1092.99 1481.03,1093.07 1482.03,1005.1 1483.03,1005.24 1484.04,1005.34 1485.04,1005.42 1486.04,1005.49 1487.04,1266.14 1488.04,1266.26 1489.04,1266.36 1490.04,1266.44 1491.04,1266.5 1492.04,808.072 1493.04,808.545 1494.04,808.911 1495.04,809.195 1496.05,809.415 1497.05,1086.89 1498.05,1087 1499.05,1087.09 1500.05,1087.16 1501.05,1087.21 1502.05,822.479 1503.05,822.657 1504.05,822.795 1505.05,822.902 1506.05,822.985 1507.05,873.445 1508.06,873.565 1509.06,873.657 1510.06,873.729 1511.06,873.785 1512.06,1107.56 1513.06,1107.71 1514.06,1107.83 1515.06,1107.92 1516.06,1107.99 1517.06,580.831 1518.06,581.052 1519.06,581.222 1520.07,581.353 1521.07,581.454 1522.07,834.593 1523.07,834.724 1524.07,834.825 1525.07,834.903 1526.07,834.964 1527.07,828.396 1528.07,828.427 1529.07,828.45 1530.07,828.469 1531.07,828.482 1532.08,1341.7 1533.08,1341.91 1534.08,1342.07 1535.08,1342.2 1536.08,1342.3 1537.08,817.495 1538.08,817.679 1539.08,817.821 1540.08,817.931 1541.08,818.016 1542.08,819.115 1543.08,819.256 1544.09,819.364 1545.09,819.447 1546.09,819.51 1547.09,931.923 1548.09,932.247 1549.09,932.498 1550.09,932.691 1551.09,932.841 1552.09,1144.12 1553.09,1144.22 1554.09,1144.3 1555.09,1144.36 1556.1,1144.41 1557.1,656.99 1558.1,657.172 1559.1,657.312 1560.1,657.421 1561.1,657.505 1562.1,676.056 1563.1,676.262 1564.1,676.421 1565.1,676.544 1566.1,676.638 1567.1,621.327 1568.11,621.39 1569.11,621.439 1570.11,621.476 1571.11,621.504 1572.11,1280.34 1573.11,1280.4 1574.11,1280.45 1575.11,1280.49 1576.11,1280.52 1577.11,888.439 1578.11,888.621 1579.11,888.761 1580.12,888.869 1581.12,888.953 1582.12,686.529 1583.12,686.694 1584.12,686.822 1585.12,686.92 1586.12,686.996 1587.12,864.277 1588.12,864.414 1589.12,864.52 1590.12,864.601 1591.12,864.663 1592.12,477.408 1593.13,477.564 1594.13,477.683 1595.13,477.774 1596.13,477.843 1597.13,1280.74 1598.13,1280.88 1599.13,1280.99 1600.13,1281.07 1601.13,1281.14 1602.13,770.59 1603.13,770.68 1604.13,770.75 1605.14,770.805 1606.14,770.847 1607.14,671.102 1608.14,671.29 1609.14,671.435 1610.14,671.548 1611.14,671.636 1612.14,830.521 1613.14,830.673 1614.14,830.791 1615.14,830.882 1616.14,830.952 1617.15,632.941 1618.15,633.155 1619.15,633.321 1620.15,633.45 1621.15,633.551 1622.15,1027.37 1623.15,1027.64 1624.15,1027.85 1625.15,1028.02 1626.15,1028.15 1627.15,706.731 1628.15,706.863 1629.16,706.966 1630.16,707.046 1631.16,707.108 1632.16,1074.96 1633.16,1075.23 1634.16,1075.44 1635.16,1075.61 1636.16,1075.74 1637.16,649.298 1638.16,649.44 1639.16,649.55 1640.16,649.633 1641.17,649.697 1642.17,703.698 1643.17,703.911 1644.17,704.076 1645.17,704.204 1646.17,704.304 1647.17,1111.51 1648.17,1111.81 1649.17,1112.04 1650.17,1112.22 1651.17,1112.35 1652.17,971.089 1653.18,971.235 1654.18,971.349 1655.18,971.436 1656.18,971.504 1657.18,871.052 1658.18,871.252 1659.18,871.406 1660.18,871.524 1661.18,871.615 1662.18,587.347 1663.18,587.496 1664.18,587.611 1665.19,587.699 1666.19,587.767 1667.19,737.321 1668.19,737.52 1669.19,737.672 1670.19,737.789 1671.19,737.879 1672.19,788.114 1673.19,788.314 1674.19,788.467 1675.19,788.584 1676.19,788.674 1677.2,917.518 1678.2,917.805 1679.2,918.025 1680.2,918.194 1681.2,918.324 1682.2,665.745 1683.2,666.066 1684.2,666.312 1685.2,666.502 1686.2,666.647 1687.2,683.457 1688.2,683.53 1689.21,683.587 1690.21,683.631 1691.21,683.664 1692.21,581.832 1693.21,581.966 1694.21,582.068 1695.21,582.145 1696.21,582.204 1697.21,1246.18 1698.21,1246.62 1699.21,1246.96 1700.21,1247.22 1701.22,1247.42 1702.22,864.519 1703.22,864.654 1704.22,864.758 1705.22,864.838 1706.22,864.899 1707.22,1014.55 1708.22,1014.61 1709.22,1014.66 1710.22,1014.7 1711.22,1014.73 1712.22,877.335 1713.23,877.586 1714.23,877.779 1715.23,877.927 1716.23,878.041 1717.23,547.358 1718.23,547.55 1719.23,547.697 1720.23,547.81 1721.23,547.896 1722.23,369.118 1723.23,369.71 1724.23,370.161 1725.24,370.505 1726.24,370.768 1727.24,790.819 1728.24,790.926 1729.24,791.008 1730.24,791.071 1731.24,791.12 1732.24,665.58 1733.24,665.711 1734.24,665.813 1735.24,665.891 1736.24,665.951 1737.25,255.917 1738.25,256.15 1739.25,256.328 1740.25,256.462 1741.25,256.565 1742.25,465.208 1743.25,465.301 1744.25,465.372 1745.25,465.427 1746.25,465.468 1747.25,998.39 1748.25,998.42 1749.26,998.444 1750.26,998.463 1751.26,998.477 1752.26,626.797 1753.26,627.016 1754.26,627.186 1755.26,627.317 1756.26,627.418 1757.26,932.26 1758.26,932.478 1759.26,932.645 1760.26,932.775 1761.27,932.875 1762.27,847.718 1763.27,848.099 1764.27,848.391 1765.27,848.615 1766.27,848.787 1767.27,834.198 1768.27,834.306 1769.27,834.389 1770.27,834.454 1771.27,834.505 1772.27,1076.81 1773.28,1077.09 1774.28,1077.31 1775.28,1077.49 1776.28,1077.62 1777.28,1072.71 1778.28,1073.06 1779.28,1073.34 1780.28,1073.55 1781.28,1073.72 1782.28,495.344 1783.28,495.609 1784.28,495.813 1785.29,495.971 1786.29,496.093 1787.29,850.402 1788.29,850.506 1789.29,850.587 1790.29,850.649 1791.29,850.698 1792.29,1042.5 1793.29,1042.98 1794.29,1043.35 1795.29,1043.63 1796.29,1043.85 1797.3,736.076 1798.3,736.36 1799.3,736.579 1800.3,736.748 1801.3,736.878 1802.3,977.562 1803.3,977.633 1804.3,977.688 1805.3,977.731 1806.3,977.763 1807.3,892.104 1808.3,892.234 1809.31,892.335 1810.31,892.413 1811.31,892.474 1812.31,848.12 1813.31,848.185 1814.31,848.236 1815.31,848.276 1816.31,848.307 1817.31,578.49 1818.31,578.772 1819.31,578.988 1820.31,579.152 1821.32,579.278 1822.32,785.812 1823.32,786.004 1824.32,786.151 1825.32,786.264 1826.32,786.35 1827.32,922.243 1828.32,922.387 1829.32,922.498 1830.32,922.582 1831.32,922.648 1832.32,600.055 1833.33,600.251 1834.33,600.403 1835.33,600.521 1836.33,600.613 1837.33,638.671 1838.33,638.866 1839.33,639.016 1840.33,639.132 1841.33,639.221 1842.33,917.33 1843.33,917.633 1844.33,917.866 1845.34,918.044 1846.34,918.182 1847.34,591.361 1848.34,591.572 1849.34,591.735 1850.34,591.861 1851.34,591.958 1852.34,803.188 1853.34,803.436 1854.34,803.629 1855.34,803.779 1856.34,803.896 1857.34,1019.71 1858.35,1019.75 1859.35,1019.78 1860.35,1019.8 1861.35,1019.82 1862.35,953.276 1863.35,953.362 1864.35,953.429 1865.35,953.48 1866.35,953.52 1867.35,871.404 1868.35,871.544 1869.35,871.653 1870.36,871.738 1871.36,871.804 1872.36,786.122 1873.36,786.289 1874.36,786.417 1875.36,786.515 1876.36,786.591 1877.36,829.927 1878.36,830.098 1879.36,830.231 1880.36,830.334 1881.36,830.414 1882.37,792.391 1883.37,792.502 1884.37,792.587 1885.37,792.653 1886.37,792.703 1887.37,839.101 1888.37,839.2 1889.37,839.276 1890.37,839.335 1891.37,839.38 1892.37,1177.16 1893.37,1177.28 1894.38,1177.37 1895.38,1177.44 1896.38,1177.49 1897.38,921.366 1898.38,921.503 1899.38,921.61 1900.38,921.695 1901.38,921.761 1902.38,827.15 1903.38,827.324 1904.38,827.459 1905.38,827.563 1906.39,827.645 1907.39,708.48 1908.39,708.726 1909.39,708.916 1910.39,709.063 1911.39,709.176 1912.39,674.382 1913.39,674.55 1914.39,674.679 1915.39,674.778 1916.39,674.855 1917.39,803.589 1918.4,803.732 1919.4,803.844 1920.4,803.933 1921.4,804.002 1922.4,811.752 1923.4,812.021 1924.4,812.232 1925.4,812.398 1926.4,812.529 1927.4,881.473 1928.4,881.624 1929.4,881.742 1930.41,881.833 1931.41,881.904 1932.41,670.991 1933.41,671.062 1934.41,671.116 1935.41,671.158 1936.41,671.19 1937.41,1226.87 1938.41,1227.06 1939.41,1227.2 1940.41,1227.32 1941.41,1227.41 1942.42,686.384 1943.42,686.466 1944.42,686.529 1945.42,686.577 1946.42,686.614 1947.42,961.416 1948.42,961.448 1949.42,961.473 1950.42,961.492 1951.42,961.507 1952.42,792.828 1953.42,792.889 1954.43,792.937 1955.43,792.973 1956.43,793.001 1957.43,817.527 1958.43,817.861 1959.43,818.12 1960.43,818.32 1961.43,818.476 1962.43,1235.35 1963.43,1235.5 1964.43,1235.62 1965.43,1235.71 1966.44,1235.78 1967.44,792.451 1968.44,792.513 1969.44,792.562 1970.44,792.599 1971.44,792.628 1972.44,805.623 1973.44,805.751 1974.44,805.852 1975.44,805.931 1976.44,805.993 1977.44,1008.81 1978.45,1008.95 1979.45,1009.06 1980.45,1009.14 1981.45,1009.2 1982.45,566.839 1983.45,567.071 1984.45,567.249 1985.45,567.386 1986.45,567.49 1987.45,838.945 1988.45,839.095 1989.45,839.21 1990.46,839.298 1991.46,839.365 1992.46,989.939 1993.46,990.181 1994.46,990.368 1995.46,990.513 1996.46,990.624 1997.46,848.53 1998.46,848.894 1999.46,849.174 2000.46,849.39 2001.46,849.556 2002.47,616.166 2003.47,616.437 2004.47,616.645 2005.47,616.805 2006.47,616.929 2007.47,774.542 2008.47,774.616 2009.47,774.673 2010.47,774.718 2011.47,774.752 2012.47,722.875 2013.47,723.242 2014.48,723.522 2015.48,723.736 2016.48,723.9 2017.48,869.406 2018.48,869.486 2019.48,869.548 2020.48,869.595 2021.48,869.632 2022.48,729.189 2023.48,729.264 2024.48,729.321 2025.48,729.365 2026.49,729.399 2027.49,979.824 2028.49,979.961 2029.49,980.068 2030.49,980.153 2031.49,980.22 2032.49,929.662 2033.49,929.725 2034.49,929.774 2035.49,929.811 2036.49,929.84 2037.49,883.37 2038.5,883.512 2039.5,883.621 2040.5,883.705 2041.5,883.769 2042.5,940.998 2043.5,941.063 2044.5,941.114 2045.5,941.152 2046.5,941.183 2047.5,1166.74 2048.5,1166.99 2049.5,1167.19 2050.51,1167.34 2051.51,1167.46 2052.51,729.052 2053.51,729.174 2054.51,729.268 2055.51,729.34 2056.51,729.396 2057.51,1445.27 2058.51,1445.42 2059.51,1445.54 2060.51,1445.64 2061.51,1445.72 2062.52,1343.03 2063.52,1343.09 2064.52,1343.14 2065.52,1343.18 2066.52,1343.21 2067.52,941.683 2068.52,941.769 2069.52,941.836 2070.52,941.889 2071.52,941.929 2072.52,897.326 2073.52,897.524 2074.53,897.678 2075.53,897.796 2076.53,897.888 2077.53,896.775 2078.53,897.02 2079.53,897.209 2080.53,897.353 2081.53,897.465 2082.53,1155.36 2083.53,1155.63 2084.53,1155.84 2085.53,1156.01 2086.54,1156.13 2087.54,636.726 2088.54,636.911 2089.54,637.052 2090.54,637.16 2091.54,637.243 2092.54,997.617 2093.54,997.685 2094.54,997.737 2095.54,997.779 2096.54,997.811 2097.54,723.789 2098.55,724.02 2099.55,724.2 2100.55,724.34 2101.55,724.449 2102.55,1181.93 2103.55,1182.06 2104.55,1182.16 2105.55,1182.23 2106.55,1182.29 2107.55,944.983 2108.55,945.137 2109.55,945.255 2110.56,945.345 2111.56,945.415 2112.56,766.595 2113.56,766.679 2114.56,766.744 2115.56,766.794 2116.56,766.832 2117.56,804.3 2118.56,804.38 2119.56,804.442 2120.56,804.49 2121.56,804.527 2122.56,752.068 2123.57,752.188 2124.57,752.281 2125.57,752.354 2126.57,752.41 2127.57,1155.61 2128.57,1155.9 2129.57,1156.12 2130.57,1156.29 2131.57,1156.43 2132.57,982.033 2133.57,982.308 2134.57,982.519 2135.58,982.681 2136.58,982.805 2137.58,599.659 2138.58,599.921 2139.58,600.122 2140.58,600.276 2141.58,600.394 2142.58,922.287 2143.58,922.422 2144.58,922.527 2145.58,922.607 2146.58,922.668 2147.59,1085.69 2148.59,1085.72 2149.59,1085.74 2150.59,1085.75 2151.59,1085.76 2152.59,735.694 2153.59,735.882 2154.59,736.026 2155.59,736.138 2156.59,736.224 2157.59,955.532 2158.59,955.555 2159.6,955.574 2160.6,955.588 2161.6,955.598 2162.6,720.285 2163.6,720.363 2164.6,720.423 2165.6,720.469 2166.6,720.504 2167.6,1185.06 2168.6,1185.2 2169.6,1185.31 2170.6,1185.4 2171.61,1185.47 2172.61,879.905 2173.61,880.086 2174.61,880.227 2175.61,880.338 2176.61,880.425 2177.61,1063.83 2178.61,1063.87 2179.61,1063.91 2180.61,1063.94 2181.61,1063.96 2182.61,599.827 2183.62,599.896 2184.62,599.95 2185.62,599.992 2186.62,600.024 2187.62,855.361 2188.62,855.422 2189.62,855.47 2190.62,855.507 2191.62,855.535 2192.62,913.899 2193.62,913.984 2194.62,914.05 2195.63,914.1 2196.63,914.138 2197.63,1052.32 2198.63,1052.5 2199.63,1052.65 2200.63,1052.76 2201.63,1052.84 2202.63,893.538 2203.63,893.638 2204.63,893.715 2205.63,893.775 2206.63,893.82 2207.64,713.297 2208.64,713.397 2209.64,713.474 2210.64,713.533 2211.64,713.578 2212.64,964.52 2213.64,964.627 2214.64,964.711 2215.64,964.776 2216.64,964.827 2217.64,893.497 2218.64,893.788 2219.65,894.012 2220.65,894.184 2221.65,894.317 2222.65,947.229 2223.65,947.281 2224.65,947.321 2225.65,947.352 2226.65,947.376 2227.65,827.501 2228.65,827.593 2229.65,827.665 2230.65,827.72 2231.66,827.762 2232.66,908.473 2233.66,908.853 2234.66,909.149 2235.66,909.379 2236.66,909.559 2237.66,686.063 2238.66,686.132 2239.66,686.185 2240.66,686.226 2241.66,686.258 2242.66,958.264 2243.67,958.398 2244.67,958.501 2245.67,958.581 2246.67,958.642 2247.67,835.708 2248.67,835.79 2249.67,835.853 2250.67,835.902 2251.67,835.941 2252.67,749.486 2253.67,749.859 2254.67,750.152 2255.68,750.382 2256.68,750.562 2257.68,844.69 2258.68,844.889 2259.68,845.042 2260.68,845.161 2261.68,845.252 2262.68,907.219 2263.68,907.265 2264.68,907.3 2265.68,907.328 2266.68,907.349 2267.69,751.87 2268.69,752.039 2269.69,752.169 2270.69,752.269 2271.69,752.346 2272.69,885.593 2273.69,885.687 2274.69,885.758 2275.69,885.813 2276.69,885.855 2277.69,984.811 2278.69,985.022 2279.7,985.186 2280.7,985.314 2281.7,985.414 2282.7,733.911 2283.7,734.117 2284.7,734.276 2285.7,734.4 2286.7,734.495 2287.7,1024.99 2288.7,1025.16 2289.7,1025.29 2290.7,1025.39 2291.71,1025.48 2292.71,1025.54 "/>
<path clip-path="url(#clip460)" d="M2017.42 198.898 L2282.03 198.898 L2282.03 95.2176 L2017.42 95.2176  Z" fill="#ffffff" fill-rule="evenodd" fill-opacity="1"/>
<polyline clip-path="url(#clip460)" style="stroke:#000000; stroke-linecap:round; stroke-linejoin:round; stroke-width:4; stroke-opacity:1; fill:none" points="2017.42,198.898 2282.03,198.898 2282.03,95.2176 2017.42,95.2176 2017.42,198.898 "/>
<polyline clip-path="url(#clip460)" style="stroke:#009af9; stroke-linecap:round; stroke-linejoin:round; stroke-width:4; stroke-opacity:1; fill:none" points="2041,147.058 2182.45,147.058 "/>
<path clip-path="url(#clip460)" d="M2219.87 166.745 Q2218.06 171.375 2216.35 172.787 Q2214.64 174.199 2211.77 174.199 L2208.36 174.199 L2208.36 170.634 L2210.86 170.634 Q2212.62 170.634 2213.59 169.8 Q2214.57 168.967 2215.75 165.865 L2216.51 163.921 L2206.03 138.412 L2210.54 138.412 L2218.64 158.689 L2226.74 138.412 L2231.26 138.412 L2219.87 166.745 Z" fill="#000000" fill-rule="nonzero" fill-opacity="1" /><path clip-path="url(#clip460)" d="M2238.55 160.402 L2246.19 160.402 L2246.19 134.037 L2237.88 135.703 L2237.88 131.444 L2246.14 129.778 L2250.82 129.778 L2250.82 160.402 L2258.46 160.402 L2258.46 164.338 L2238.55 164.338 L2238.55 160.402 Z" fill="#000000" fill-rule="nonzero" fill-opacity="1" /></svg>
