<?xml version="1.0" encoding="utf-8"?>
<svg xmlns="http://www.w3.org/2000/svg" xmlns:xlink="http://www.w3.org/1999/xlink" width="600" height="400" viewBox="0 0 2400 1600">
<defs>
  <clipPath id="clip790">
    <rect x="0" y="0" width="2400" height="1600"/>
  </clipPath>
</defs>
<path clip-path="url(#clip790)" d="M0 1600 L2400 1600 L2400 0 L0 0  Z" fill="#ffffff" fill-rule="evenodd" fill-opacity="1"/>
<defs>
  <clipPath id="clip791">
    <rect x="480" y="0" width="1681" height="1600"/>
  </clipPath>
</defs>
<path clip-path="url(#clip790)" d="M230.996 1486.45 L2352.76 1486.45 L2352.76 47.2441 L230.996 47.2441  Z" fill="#ffffff" fill-rule="evenodd" fill-opacity="1"/>
<defs>
  <clipPath id="clip792">
    <rect x="230" y="47" width="2123" height="1440"/>
  </clipPath>
</defs>
<polyline clip-path="url(#clip792)" style="stroke:#000000; stroke-linecap:round; stroke-linejoin:round; stroke-width:2; stroke-opacity:0.1; fill:none" points="291.046,1486.45 291.046,47.2441 "/>
<polyline clip-path="url(#clip792)" style="stroke:#000000; stroke-linecap:round; stroke-linejoin:round; stroke-width:2; stroke-opacity:0.1; fill:none" points="791.461,1486.45 791.461,47.2441 "/>
<polyline clip-path="url(#clip792)" style="stroke:#000000; stroke-linecap:round; stroke-linejoin:round; stroke-width:2; stroke-opacity:0.1; fill:none" points="1291.88,1486.45 1291.88,47.2441 "/>
<polyline clip-path="url(#clip792)" style="stroke:#000000; stroke-linecap:round; stroke-linejoin:round; stroke-width:2; stroke-opacity:0.1; fill:none" points="1792.29,1486.45 1792.29,47.2441 "/>
<polyline clip-path="url(#clip792)" style="stroke:#000000; stroke-linecap:round; stroke-linejoin:round; stroke-width:2; stroke-opacity:0.1; fill:none" points="2292.71,1486.45 2292.71,47.2441 "/>
<polyline clip-path="url(#clip790)" style="stroke:#000000; stroke-linecap:round; stroke-linejoin:round; stroke-width:4; stroke-opacity:1; fill:none" points="230.996,1486.45 2352.76,1486.45 "/>
<polyline clip-path="url(#clip790)" style="stroke:#000000; stroke-linecap:round; stroke-linejoin:round; stroke-width:4; stroke-opacity:1; fill:none" points="291.046,1486.45 291.046,1467.55 "/>
<polyline clip-path="url(#clip790)" style="stroke:#000000; stroke-linecap:round; stroke-linejoin:round; stroke-width:4; stroke-opacity:1; fill:none" points="791.461,1486.45 791.461,1467.55 "/>
<polyline clip-path="url(#clip790)" style="stroke:#000000; stroke-linecap:round; stroke-linejoin:round; stroke-width:4; stroke-opacity:1; fill:none" points="1291.88,1486.45 1291.88,1467.55 "/>
<polyline clip-path="url(#clip790)" style="stroke:#000000; stroke-linecap:round; stroke-linejoin:round; stroke-width:4; stroke-opacity:1; fill:none" points="1792.29,1486.45 1792.29,1467.55 "/>
<polyline clip-path="url(#clip790)" style="stroke:#000000; stroke-linecap:round; stroke-linejoin:round; stroke-width:4; stroke-opacity:1; fill:none" points="2292.71,1486.45 2292.71,1467.55 "/>
<path clip-path="url(#clip790)" d="M291.046 1517.37 Q287.435 1517.37 285.606 1520.93 Q283.8 1524.47 283.8 1531.6 Q283.8 1538.71 285.606 1542.27 Q287.435 1545.82 291.046 1545.82 Q294.68 1545.82 296.486 1542.27 Q298.314 1538.71 298.314 1531.6 Q298.314 1524.47 296.486 1520.93 Q294.68 1517.37 291.046 1517.37 M291.046 1513.66 Q296.856 1513.66 299.911 1518.27 Q302.99 1522.85 302.99 1531.6 Q302.99 1540.33 299.911 1544.94 Q296.856 1549.52 291.046 1549.52 Q285.236 1549.52 282.157 1544.94 Q279.101 1540.33 279.101 1531.6 Q279.101 1522.85 282.157 1518.27 Q285.236 1513.66 291.046 1513.66 Z" fill="#000000" fill-rule="nonzero" fill-opacity="1" /><path clip-path="url(#clip790)" d="M751.079 1514.29 L769.436 1514.29 L769.436 1518.22 L755.362 1518.22 L755.362 1526.7 Q756.38 1526.35 757.399 1526.19 Q758.417 1526 759.436 1526 Q765.223 1526 768.602 1529.17 Q771.982 1532.34 771.982 1537.76 Q771.982 1543.34 768.51 1546.44 Q765.037 1549.52 758.718 1549.52 Q756.542 1549.52 754.274 1549.15 Q752.028 1548.78 749.621 1548.04 L749.621 1543.34 Q751.704 1544.47 753.926 1545.03 Q756.149 1545.58 758.625 1545.58 Q762.63 1545.58 764.968 1543.48 Q767.306 1541.37 767.306 1537.76 Q767.306 1534.15 764.968 1532.04 Q762.63 1529.94 758.625 1529.94 Q756.75 1529.94 754.875 1530.35 Q753.024 1530.77 751.079 1531.65 L751.079 1514.29 Z" fill="#000000" fill-rule="nonzero" fill-opacity="1" /><path clip-path="url(#clip790)" d="M791.195 1517.37 Q787.584 1517.37 785.755 1520.93 Q783.949 1524.47 783.949 1531.6 Q783.949 1538.71 785.755 1542.27 Q787.584 1545.82 791.195 1545.82 Q794.829 1545.82 796.634 1542.27 Q798.463 1538.71 798.463 1531.6 Q798.463 1524.47 796.634 1520.93 Q794.829 1517.37 791.195 1517.37 M791.195 1513.66 Q797.005 1513.66 800.06 1518.27 Q803.139 1522.85 803.139 1531.6 Q803.139 1540.33 800.06 1544.94 Q797.005 1549.52 791.195 1549.52 Q785.385 1549.52 782.306 1544.94 Q779.25 1540.33 779.25 1531.6 Q779.25 1522.85 782.306 1518.27 Q785.385 1513.66 791.195 1513.66 Z" fill="#000000" fill-rule="nonzero" fill-opacity="1" /><path clip-path="url(#clip790)" d="M821.357 1517.37 Q817.745 1517.37 815.917 1520.93 Q814.111 1524.47 814.111 1531.6 Q814.111 1538.71 815.917 1542.27 Q817.745 1545.82 821.357 1545.82 Q824.991 1545.82 826.796 1542.27 Q828.625 1538.71 828.625 1531.6 Q828.625 1524.47 826.796 1520.93 Q824.991 1517.37 821.357 1517.37 M821.357 1513.66 Q827.167 1513.66 830.222 1518.27 Q833.301 1522.85 833.301 1531.6 Q833.301 1540.33 830.222 1544.94 Q827.167 1549.52 821.357 1549.52 Q815.546 1549.52 812.468 1544.94 Q809.412 1540.33 809.412 1531.6 Q809.412 1522.85 812.468 1518.27 Q815.546 1513.66 821.357 1513.66 Z" fill="#000000" fill-rule="nonzero" fill-opacity="1" /><path clip-path="url(#clip790)" d="M1236.4 1544.91 L1244.04 1544.91 L1244.04 1518.55 L1235.73 1520.21 L1235.73 1515.95 L1243.99 1514.29 L1248.67 1514.29 L1248.67 1544.91 L1256.31 1544.91 L1256.31 1548.85 L1236.4 1548.85 L1236.4 1544.91 Z" fill="#000000" fill-rule="nonzero" fill-opacity="1" /><path clip-path="url(#clip790)" d="M1275.75 1517.37 Q1272.14 1517.37 1270.31 1520.93 Q1268.51 1524.47 1268.51 1531.6 Q1268.51 1538.71 1270.31 1542.27 Q1272.14 1545.82 1275.75 1545.82 Q1279.39 1545.82 1281.19 1542.27 Q1283.02 1538.71 1283.02 1531.6 Q1283.02 1524.47 1281.19 1520.93 Q1279.39 1517.37 1275.75 1517.37 M1275.75 1513.66 Q1281.56 1513.66 1284.62 1518.27 Q1287.7 1522.85 1287.7 1531.6 Q1287.7 1540.33 1284.62 1544.94 Q1281.56 1549.52 1275.75 1549.52 Q1269.94 1549.52 1266.86 1544.94 Q1263.81 1540.33 1263.81 1531.6 Q1263.81 1522.85 1266.86 1518.27 Q1269.94 1513.66 1275.75 1513.66 Z" fill="#000000" fill-rule="nonzero" fill-opacity="1" /><path clip-path="url(#clip790)" d="M1305.92 1517.37 Q1302.3 1517.37 1300.48 1520.93 Q1298.67 1524.47 1298.67 1531.6 Q1298.67 1538.71 1300.48 1542.27 Q1302.3 1545.82 1305.92 1545.82 Q1309.55 1545.82 1311.36 1542.27 Q1313.18 1538.71 1313.18 1531.6 Q1313.18 1524.47 1311.36 1520.93 Q1309.55 1517.37 1305.92 1517.37 M1305.92 1513.66 Q1311.73 1513.66 1314.78 1518.27 Q1317.86 1522.85 1317.86 1531.6 Q1317.86 1540.33 1314.78 1544.94 Q1311.73 1549.52 1305.92 1549.52 Q1300.11 1549.52 1297.03 1544.94 Q1293.97 1540.33 1293.97 1531.6 Q1293.97 1522.85 1297.03 1518.27 Q1300.11 1513.66 1305.92 1513.66 Z" fill="#000000" fill-rule="nonzero" fill-opacity="1" /><path clip-path="url(#clip790)" d="M1336.08 1517.37 Q1332.47 1517.37 1330.64 1520.93 Q1328.83 1524.47 1328.83 1531.6 Q1328.83 1538.71 1330.64 1542.27 Q1332.47 1545.82 1336.08 1545.82 Q1339.71 1545.82 1341.52 1542.27 Q1343.35 1538.71 1343.35 1531.6 Q1343.35 1524.47 1341.52 1520.93 Q1339.71 1517.37 1336.08 1517.37 M1336.08 1513.66 Q1341.89 1513.66 1344.94 1518.27 Q1348.02 1522.85 1348.02 1531.6 Q1348.02 1540.33 1344.94 1544.94 Q1341.89 1549.52 1336.08 1549.52 Q1330.27 1549.52 1327.19 1544.94 Q1324.13 1540.33 1324.13 1531.6 Q1324.13 1522.85 1327.19 1518.27 Q1330.27 1513.66 1336.08 1513.66 Z" fill="#000000" fill-rule="nonzero" fill-opacity="1" /><path clip-path="url(#clip790)" d="M1736.82 1544.91 L1744.46 1544.91 L1744.46 1518.55 L1736.15 1520.21 L1736.15 1515.95 L1744.41 1514.29 L1749.09 1514.29 L1749.09 1544.91 L1756.72 1544.91 L1756.72 1548.85 L1736.82 1548.85 L1736.82 1544.91 Z" fill="#000000" fill-rule="nonzero" fill-opacity="1" /><path clip-path="url(#clip790)" d="M1766.21 1514.29 L1784.57 1514.29 L1784.57 1518.22 L1770.5 1518.22 L1770.5 1526.7 Q1771.52 1526.35 1772.53 1526.19 Q1773.55 1526 1774.57 1526 Q1780.36 1526 1783.74 1529.17 Q1787.12 1532.34 1787.12 1537.76 Q1787.12 1543.34 1783.65 1546.44 Q1780.17 1549.52 1773.85 1549.52 Q1771.68 1549.52 1769.41 1549.15 Q1767.16 1548.78 1764.76 1548.04 L1764.76 1543.34 Q1766.84 1544.47 1769.06 1545.03 Q1771.28 1545.58 1773.76 1545.58 Q1777.77 1545.58 1780.1 1543.48 Q1782.44 1541.37 1782.44 1537.76 Q1782.44 1534.15 1780.1 1532.04 Q1777.77 1529.94 1773.76 1529.94 Q1771.89 1529.94 1770.01 1530.35 Q1768.16 1530.77 1766.21 1531.65 L1766.21 1514.29 Z" fill="#000000" fill-rule="nonzero" fill-opacity="1" /><path clip-path="url(#clip790)" d="M1806.33 1517.37 Q1802.72 1517.37 1800.89 1520.93 Q1799.08 1524.47 1799.08 1531.6 Q1799.08 1538.71 1800.89 1542.27 Q1802.72 1545.82 1806.33 1545.82 Q1809.96 1545.82 1811.77 1542.27 Q1813.6 1538.71 1813.6 1531.6 Q1813.6 1524.47 1811.77 1520.93 Q1809.96 1517.37 1806.33 1517.37 M1806.33 1513.66 Q1812.14 1513.66 1815.2 1518.27 Q1818.27 1522.85 1818.27 1531.6 Q1818.27 1540.33 1815.2 1544.94 Q1812.14 1549.52 1806.33 1549.52 Q1800.52 1549.52 1797.44 1544.94 Q1794.39 1540.33 1794.39 1531.6 Q1794.39 1522.85 1797.44 1518.27 Q1800.52 1513.66 1806.33 1513.66 Z" fill="#000000" fill-rule="nonzero" fill-opacity="1" /><path clip-path="url(#clip790)" d="M1836.49 1517.37 Q1832.88 1517.37 1831.05 1520.93 Q1829.25 1524.47 1829.25 1531.6 Q1829.25 1538.71 1831.05 1542.27 Q1832.88 1545.82 1836.49 1545.82 Q1840.13 1545.82 1841.93 1542.27 Q1843.76 1538.71 1843.76 1531.6 Q1843.76 1524.47 1841.93 1520.93 Q1840.13 1517.37 1836.49 1517.37 M1836.49 1513.66 Q1842.3 1513.66 1845.36 1518.27 Q1848.44 1522.85 1848.44 1531.6 Q1848.44 1540.33 1845.36 1544.94 Q1842.3 1549.52 1836.49 1549.52 Q1830.68 1549.52 1827.6 1544.94 Q1824.55 1540.33 1824.55 1531.6 Q1824.55 1522.85 1827.6 1518.27 Q1830.68 1513.66 1836.49 1513.66 Z" fill="#000000" fill-rule="nonzero" fill-opacity="1" /><path clip-path="url(#clip790)" d="M2241.32 1544.91 L2257.64 1544.91 L2257.64 1548.85 L2235.69 1548.85 L2235.69 1544.91 Q2238.35 1542.16 2242.94 1537.53 Q2247.54 1532.88 2248.72 1531.53 Q2250.97 1529.01 2251.85 1527.27 Q2252.75 1525.51 2252.75 1523.82 Q2252.75 1521.07 2250.81 1519.33 Q2248.89 1517.6 2245.79 1517.6 Q2243.59 1517.6 2241.13 1518.36 Q2238.7 1519.13 2235.92 1520.68 L2235.92 1515.95 Q2238.75 1514.82 2241.2 1514.24 Q2243.66 1513.66 2245.69 1513.66 Q2251.06 1513.66 2254.26 1516.35 Q2257.45 1519.03 2257.45 1523.52 Q2257.45 1525.65 2256.64 1527.57 Q2255.85 1529.47 2253.75 1532.07 Q2253.17 1532.74 2250.07 1535.95 Q2246.97 1539.15 2241.32 1544.91 Z" fill="#000000" fill-rule="nonzero" fill-opacity="1" /><path clip-path="url(#clip790)" d="M2277.45 1517.37 Q2273.84 1517.37 2272.01 1520.93 Q2270.21 1524.47 2270.21 1531.6 Q2270.21 1538.71 2272.01 1542.27 Q2273.84 1545.82 2277.45 1545.82 Q2281.09 1545.82 2282.89 1542.27 Q2284.72 1538.71 2284.72 1531.6 Q2284.72 1524.47 2282.89 1520.93 Q2281.09 1517.37 2277.45 1517.37 M2277.45 1513.66 Q2283.26 1513.66 2286.32 1518.27 Q2289.4 1522.85 2289.4 1531.6 Q2289.4 1540.33 2286.32 1544.94 Q2283.26 1549.52 2277.45 1549.52 Q2271.64 1549.52 2268.56 1544.94 Q2265.51 1540.33 2265.51 1531.6 Q2265.51 1522.85 2268.56 1518.27 Q2271.64 1513.66 2277.45 1513.66 Z" fill="#000000" fill-rule="nonzero" fill-opacity="1" /><path clip-path="url(#clip790)" d="M2307.61 1517.37 Q2304 1517.37 2302.17 1520.93 Q2300.37 1524.47 2300.37 1531.6 Q2300.37 1538.71 2302.17 1542.27 Q2304 1545.82 2307.61 1545.82 Q2311.25 1545.82 2313.05 1542.27 Q2314.88 1538.71 2314.88 1531.6 Q2314.88 1524.47 2313.05 1520.93 Q2311.25 1517.37 2307.61 1517.37 M2307.61 1513.66 Q2313.42 1513.66 2316.48 1518.27 Q2319.56 1522.85 2319.56 1531.6 Q2319.56 1540.33 2316.48 1544.94 Q2313.42 1549.52 2307.61 1549.52 Q2301.8 1549.52 2298.72 1544.94 Q2295.67 1540.33 2295.67 1531.6 Q2295.67 1522.85 2298.72 1518.27 Q2301.8 1513.66 2307.61 1513.66 Z" fill="#000000" fill-rule="nonzero" fill-opacity="1" /><path clip-path="url(#clip790)" d="M2337.78 1517.37 Q2334.16 1517.37 2332.34 1520.93 Q2330.53 1524.47 2330.53 1531.6 Q2330.53 1538.71 2332.34 1542.27 Q2334.16 1545.82 2337.78 1545.82 Q2341.41 1545.82 2343.22 1542.27 Q2345.04 1538.71 2345.04 1531.6 Q2345.04 1524.47 2343.22 1520.93 Q2341.41 1517.37 2337.78 1517.37 M2337.78 1513.66 Q2343.59 1513.66 2346.64 1518.27 Q2349.72 1522.85 2349.72 1531.6 Q2349.72 1540.33 2346.64 1544.94 Q2343.59 1549.52 2337.78 1549.52 Q2331.97 1549.52 2328.89 1544.94 Q2325.83 1540.33 2325.83 1531.6 Q2325.83 1522.85 2328.89 1518.27 Q2331.97 1513.66 2337.78 1513.66 Z" fill="#000000" fill-rule="nonzero" fill-opacity="1" /><polyline clip-path="url(#clip792)" style="stroke:#000000; stroke-linecap:round; stroke-linejoin:round; stroke-width:2; stroke-opacity:0.1; fill:none" points="230.996,1483.92 2352.76,1483.92 "/>
<polyline clip-path="url(#clip792)" style="stroke:#000000; stroke-linecap:round; stroke-linejoin:round; stroke-width:2; stroke-opacity:0.1; fill:none" points="230.996,1087.97 2352.76,1087.97 "/>
<polyline clip-path="url(#clip792)" style="stroke:#000000; stroke-linecap:round; stroke-linejoin:round; stroke-width:2; stroke-opacity:0.1; fill:none" points="230.996,692.012 2352.76,692.012 "/>
<polyline clip-path="url(#clip792)" style="stroke:#000000; stroke-linecap:round; stroke-linejoin:round; stroke-width:2; stroke-opacity:0.1; fill:none" points="230.996,296.058 2352.76,296.058 "/>
<polyline clip-path="url(#clip790)" style="stroke:#000000; stroke-linecap:round; stroke-linejoin:round; stroke-width:4; stroke-opacity:1; fill:none" points="230.996,1486.45 230.996,47.2441 "/>
<polyline clip-path="url(#clip790)" style="stroke:#000000; stroke-linecap:round; stroke-linejoin:round; stroke-width:4; stroke-opacity:1; fill:none" points="230.996,1483.92 249.894,1483.92 "/>
<polyline clip-path="url(#clip790)" style="stroke:#000000; stroke-linecap:round; stroke-linejoin:round; stroke-width:4; stroke-opacity:1; fill:none" points="230.996,1087.97 249.894,1087.97 "/>
<polyline clip-path="url(#clip790)" style="stroke:#000000; stroke-linecap:round; stroke-linejoin:round; stroke-width:4; stroke-opacity:1; fill:none" points="230.996,692.012 249.894,692.012 "/>
<polyline clip-path="url(#clip790)" style="stroke:#000000; stroke-linecap:round; stroke-linejoin:round; stroke-width:4; stroke-opacity:1; fill:none" points="230.996,296.058 249.894,296.058 "/>
<path clip-path="url(#clip790)" d="M52.4505 1466.64 L70.8068 1466.64 L70.8068 1470.57 L56.7328 1470.57 L56.7328 1479.05 Q57.7513 1478.7 58.7699 1478.54 Q59.7884 1478.35 60.8069 1478.35 Q66.5939 1478.35 69.9735 1481.52 Q73.3531 1484.69 73.3531 1490.11 Q73.3531 1495.69 69.8809 1498.79 Q66.4087 1501.87 60.0893 1501.87 Q57.9134 1501.87 55.6449 1501.5 Q53.3995 1501.13 50.9921 1500.39 L50.9921 1495.69 Q53.0754 1496.82 55.2977 1497.38 Q57.5199 1497.94 59.9967 1497.94 Q64.0013 1497.94 66.3393 1495.83 Q68.6772 1493.72 68.6772 1490.11 Q68.6772 1486.5 66.3393 1484.39 Q64.0013 1482.29 59.9967 1482.29 Q58.1217 1482.29 56.2467 1482.7 Q54.3949 1483.12 52.4505 1484 L52.4505 1466.64 Z" fill="#000000" fill-rule="nonzero" fill-opacity="1" /><path clip-path="url(#clip790)" d="M92.566 1469.72 Q88.9549 1469.72 87.1262 1473.28 Q85.3206 1476.82 85.3206 1483.95 Q85.3206 1491.06 87.1262 1494.62 Q88.9549 1498.17 92.566 1498.17 Q96.2002 1498.17 98.0058 1494.62 Q99.8345 1491.06 99.8345 1483.95 Q99.8345 1476.82 98.0058 1473.28 Q96.2002 1469.72 92.566 1469.72 M92.566 1466.01 Q98.3761 1466.01 101.432 1470.62 Q104.51 1475.2 104.51 1483.95 Q104.51 1492.68 101.432 1497.29 Q98.3761 1501.87 92.566 1501.87 Q86.7558 1501.87 83.6771 1497.29 Q80.6216 1492.68 80.6216 1483.95 Q80.6216 1475.2 83.6771 1470.62 Q86.7558 1466.01 92.566 1466.01 Z" fill="#000000" fill-rule="nonzero" fill-opacity="1" /><path clip-path="url(#clip790)" d="M122.728 1469.72 Q119.117 1469.72 117.288 1473.28 Q115.483 1476.82 115.483 1483.95 Q115.483 1491.06 117.288 1494.62 Q119.117 1498.17 122.728 1498.17 Q126.362 1498.17 128.168 1494.62 Q129.996 1491.06 129.996 1483.95 Q129.996 1476.82 128.168 1473.28 Q126.362 1469.72 122.728 1469.72 M122.728 1466.01 Q128.538 1466.01 131.594 1470.62 Q134.672 1475.2 134.672 1483.95 Q134.672 1492.68 131.594 1497.29 Q128.538 1501.87 122.728 1501.87 Q116.918 1501.87 113.839 1497.29 Q110.783 1492.68 110.783 1483.95 Q110.783 1475.2 113.839 1470.62 Q116.918 1466.01 122.728 1466.01 Z" fill="#000000" fill-rule="nonzero" fill-opacity="1" /><path clip-path="url(#clip790)" d="M152.89 1469.72 Q149.279 1469.72 147.45 1473.28 Q145.644 1476.82 145.644 1483.95 Q145.644 1491.06 147.45 1494.62 Q149.279 1498.17 152.89 1498.17 Q156.524 1498.17 158.33 1494.62 Q160.158 1491.06 160.158 1483.95 Q160.158 1476.82 158.33 1473.28 Q156.524 1469.72 152.89 1469.72 M152.89 1466.01 Q158.7 1466.01 161.755 1470.62 Q164.834 1475.2 164.834 1483.95 Q164.834 1492.68 161.755 1497.29 Q158.7 1501.87 152.89 1501.87 Q147.08 1501.87 144.001 1497.29 Q140.945 1492.68 140.945 1483.95 Q140.945 1475.2 144.001 1470.62 Q147.08 1466.01 152.89 1466.01 Z" fill="#000000" fill-rule="nonzero" fill-opacity="1" /><path clip-path="url(#clip790)" d="M183.052 1469.72 Q179.441 1469.72 177.612 1473.28 Q175.806 1476.82 175.806 1483.95 Q175.806 1491.06 177.612 1494.62 Q179.441 1498.17 183.052 1498.17 Q186.686 1498.17 188.491 1494.62 Q190.32 1491.06 190.32 1483.95 Q190.32 1476.82 188.491 1473.28 Q186.686 1469.72 183.052 1469.72 M183.052 1466.01 Q188.862 1466.01 191.917 1470.62 Q194.996 1475.2 194.996 1483.95 Q194.996 1492.68 191.917 1497.29 Q188.862 1501.87 183.052 1501.87 Q177.241 1501.87 174.163 1497.29 Q171.107 1492.68 171.107 1483.95 Q171.107 1475.2 174.163 1470.62 Q177.241 1466.01 183.052 1466.01 Z" fill="#000000" fill-rule="nonzero" fill-opacity="1" /><path clip-path="url(#clip790)" d="M52.4505 1070.69 L70.8068 1070.69 L70.8068 1074.62 L56.7328 1074.62 L56.7328 1083.09 Q57.7513 1082.75 58.7699 1082.58 Q59.7884 1082.4 60.8069 1082.4 Q66.5939 1082.4 69.9735 1085.57 Q73.3531 1088.74 73.3531 1094.16 Q73.3531 1099.74 69.8809 1102.84 Q66.4087 1105.92 60.0893 1105.92 Q57.9134 1105.92 55.6449 1105.55 Q53.3995 1105.18 50.9921 1104.44 L50.9921 1099.74 Q53.0754 1100.87 55.2977 1101.43 Q57.5199 1101.98 59.9967 1101.98 Q64.0013 1101.98 66.3393 1099.87 Q68.6772 1097.77 68.6772 1094.16 Q68.6772 1090.55 66.3393 1088.44 Q64.0013 1086.33 59.9967 1086.33 Q58.1217 1086.33 56.2467 1086.75 Q54.3949 1087.17 52.4505 1088.05 L52.4505 1070.69 Z" fill="#000000" fill-rule="nonzero" fill-opacity="1" /><path clip-path="url(#clip790)" d="M83.3762 1101.31 L91.0151 1101.31 L91.0151 1074.94 L82.7049 1076.61 L82.7049 1072.35 L90.9688 1070.69 L95.6447 1070.69 L95.6447 1101.31 L103.284 1101.31 L103.284 1105.25 L83.3762 1105.25 L83.3762 1101.31 Z" fill="#000000" fill-rule="nonzero" fill-opacity="1" /><path clip-path="url(#clip790)" d="M122.728 1073.76 Q119.117 1073.76 117.288 1077.33 Q115.483 1080.87 115.483 1088 Q115.483 1095.11 117.288 1098.67 Q119.117 1102.21 122.728 1102.21 Q126.362 1102.21 128.168 1098.67 Q129.996 1095.11 129.996 1088 Q129.996 1080.87 128.168 1077.33 Q126.362 1073.76 122.728 1073.76 M122.728 1070.06 Q128.538 1070.06 131.594 1074.67 Q134.672 1079.25 134.672 1088 Q134.672 1096.73 131.594 1101.33 Q128.538 1105.92 122.728 1105.92 Q116.918 1105.92 113.839 1101.33 Q110.783 1096.73 110.783 1088 Q110.783 1079.25 113.839 1074.67 Q116.918 1070.06 122.728 1070.06 Z" fill="#000000" fill-rule="nonzero" fill-opacity="1" /><path clip-path="url(#clip790)" d="M152.89 1073.76 Q149.279 1073.76 147.45 1077.33 Q145.644 1080.87 145.644 1088 Q145.644 1095.11 147.45 1098.67 Q149.279 1102.21 152.89 1102.21 Q156.524 1102.21 158.33 1098.67 Q160.158 1095.11 160.158 1088 Q160.158 1080.87 158.33 1077.33 Q156.524 1073.76 152.89 1073.76 M152.89 1070.06 Q158.7 1070.06 161.755 1074.67 Q164.834 1079.25 164.834 1088 Q164.834 1096.73 161.755 1101.33 Q158.7 1105.92 152.89 1105.92 Q147.08 1105.92 144.001 1101.33 Q140.945 1096.73 140.945 1088 Q140.945 1079.25 144.001 1074.67 Q147.08 1070.06 152.89 1070.06 Z" fill="#000000" fill-rule="nonzero" fill-opacity="1" /><path clip-path="url(#clip790)" d="M183.052 1073.76 Q179.441 1073.76 177.612 1077.33 Q175.806 1080.87 175.806 1088 Q175.806 1095.11 177.612 1098.67 Q179.441 1102.21 183.052 1102.21 Q186.686 1102.21 188.491 1098.67 Q190.32 1095.11 190.32 1088 Q190.32 1080.87 188.491 1077.33 Q186.686 1073.76 183.052 1073.76 M183.052 1070.06 Q188.862 1070.06 191.917 1074.67 Q194.996 1079.25 194.996 1088 Q194.996 1096.73 191.917 1101.33 Q188.862 1105.92 183.052 1105.92 Q177.241 1105.92 174.163 1101.33 Q171.107 1096.73 171.107 1088 Q171.107 1079.25 174.163 1074.67 Q177.241 1070.06 183.052 1070.06 Z" fill="#000000" fill-rule="nonzero" fill-opacity="1" /><path clip-path="url(#clip790)" d="M52.4505 674.732 L70.8068 674.732 L70.8068 678.667 L56.7328 678.667 L56.7328 687.139 Q57.7513 686.792 58.7699 686.63 Q59.7884 686.444 60.8069 686.444 Q66.5939 686.444 69.9735 689.616 Q73.3531 692.787 73.3531 698.204 Q73.3531 703.782 69.8809 706.884 Q66.4087 709.963 60.0893 709.963 Q57.9134 709.963 55.6449 709.593 Q53.3995 709.222 50.9921 708.481 L50.9921 703.782 Q53.0754 704.917 55.2977 705.472 Q57.5199 706.028 59.9967 706.028 Q64.0013 706.028 66.3393 703.921 Q68.6772 701.815 68.6772 698.204 Q68.6772 694.593 66.3393 692.486 Q64.0013 690.38 59.9967 690.38 Q58.1217 690.38 56.2467 690.796 Q54.3949 691.213 52.4505 692.093 L52.4505 674.732 Z" fill="#000000" fill-rule="nonzero" fill-opacity="1" /><path clip-path="url(#clip790)" d="M86.5938 705.356 L102.913 705.356 L102.913 709.292 L80.9688 709.292 L80.9688 705.356 Q83.6308 702.602 88.2141 697.972 Q92.8206 693.319 94.0012 691.977 Q96.2465 689.454 97.1261 687.718 Q98.0289 685.958 98.0289 684.269 Q98.0289 681.514 96.0845 679.778 Q94.1632 678.042 91.0614 678.042 Q88.8623 678.042 86.4086 678.806 Q83.9781 679.57 81.2003 681.12 L81.2003 676.398 Q84.0244 675.264 86.478 674.685 Q88.9317 674.107 90.9688 674.107 Q96.3391 674.107 99.5335 676.792 Q102.728 679.477 102.728 683.968 Q102.728 686.097 101.918 688.019 Q101.131 689.917 99.0243 692.509 Q98.4456 693.181 95.3437 696.398 Q92.2419 699.593 86.5938 705.356 Z" fill="#000000" fill-rule="nonzero" fill-opacity="1" /><path clip-path="url(#clip790)" d="M122.728 677.81 Q119.117 677.81 117.288 681.375 Q115.483 684.917 115.483 692.046 Q115.483 699.153 117.288 702.718 Q119.117 706.259 122.728 706.259 Q126.362 706.259 128.168 702.718 Q129.996 699.153 129.996 692.046 Q129.996 684.917 128.168 681.375 Q126.362 677.81 122.728 677.81 M122.728 674.107 Q128.538 674.107 131.594 678.713 Q134.672 683.296 134.672 692.046 Q134.672 700.773 131.594 705.38 Q128.538 709.963 122.728 709.963 Q116.918 709.963 113.839 705.38 Q110.783 700.773 110.783 692.046 Q110.783 683.296 113.839 678.713 Q116.918 674.107 122.728 674.107 Z" fill="#000000" fill-rule="nonzero" fill-opacity="1" /><path clip-path="url(#clip790)" d="M152.89 677.81 Q149.279 677.81 147.45 681.375 Q145.644 684.917 145.644 692.046 Q145.644 699.153 147.45 702.718 Q149.279 706.259 152.89 706.259 Q156.524 706.259 158.33 702.718 Q160.158 699.153 160.158 692.046 Q160.158 684.917 158.33 681.375 Q156.524 677.81 152.89 677.81 M152.89 674.107 Q158.7 674.107 161.755 678.713 Q164.834 683.296 164.834 692.046 Q164.834 700.773 161.755 705.38 Q158.7 709.963 152.89 709.963 Q147.08 709.963 144.001 705.38 Q140.945 700.773 140.945 692.046 Q140.945 683.296 144.001 678.713 Q147.08 674.107 152.89 674.107 Z" fill="#000000" fill-rule="nonzero" fill-opacity="1" /><path clip-path="url(#clip790)" d="M183.052 677.81 Q179.441 677.81 177.612 681.375 Q175.806 684.917 175.806 692.046 Q175.806 699.153 177.612 702.718 Q179.441 706.259 183.052 706.259 Q186.686 706.259 188.491 702.718 Q190.32 699.153 190.32 692.046 Q190.32 684.917 188.491 681.375 Q186.686 677.81 183.052 677.81 M183.052 674.107 Q188.862 674.107 191.917 678.713 Q194.996 683.296 194.996 692.046 Q194.996 700.773 191.917 705.38 Q188.862 709.963 183.052 709.963 Q177.241 709.963 174.163 705.38 Q171.107 700.773 171.107 692.046 Q171.107 683.296 174.163 678.713 Q177.241 674.107 183.052 674.107 Z" fill="#000000" fill-rule="nonzero" fill-opacity="1" /><path clip-path="url(#clip790)" d="M52.4505 278.778 L70.8068 278.778 L70.8068 282.713 L56.7328 282.713 L56.7328 291.185 Q57.7513 290.838 58.7699 290.676 Q59.7884 290.491 60.8069 290.491 Q66.5939 290.491 69.9735 293.662 Q73.3531 296.833 73.3531 302.25 Q73.3531 307.829 69.8809 310.93 Q66.4087 314.009 60.0893 314.009 Q57.9134 314.009 55.6449 313.639 Q53.3995 313.268 50.9921 312.528 L50.9921 307.829 Q53.0754 308.963 55.2977 309.518 Q57.5199 310.074 59.9967 310.074 Q64.0013 310.074 66.3393 307.968 Q68.6772 305.861 68.6772 302.25 Q68.6772 298.639 66.3393 296.532 Q64.0013 294.426 59.9967 294.426 Q58.1217 294.426 56.2467 294.843 Q54.3949 295.259 52.4505 296.139 L52.4505 278.778 Z" fill="#000000" fill-rule="nonzero" fill-opacity="1" /><path clip-path="url(#clip790)" d="M96.7326 294.704 Q100.089 295.421 101.964 297.69 Q103.862 299.958 103.862 303.292 Q103.862 308.407 100.344 311.208 Q96.8252 314.009 90.3438 314.009 Q88.1679 314.009 85.8531 313.569 Q83.5614 313.153 81.1077 312.296 L81.1077 307.782 Q83.0521 308.917 85.3669 309.495 Q87.6817 310.074 90.2049 310.074 Q94.603 310.074 96.8947 308.338 Q99.2095 306.602 99.2095 303.292 Q99.2095 300.236 97.0567 298.523 Q94.9271 296.787 91.1077 296.787 L87.0799 296.787 L87.0799 292.944 L91.2928 292.944 Q94.7419 292.944 96.5706 291.579 Q98.3993 290.19 98.3993 287.597 Q98.3993 284.935 96.5011 283.523 Q94.6262 282.088 91.1077 282.088 Q89.1864 282.088 86.9873 282.505 Q84.7882 282.921 82.1494 283.801 L82.1494 279.634 Q84.8114 278.894 87.1262 278.523 Q89.4641 278.153 91.5243 278.153 Q96.8484 278.153 99.9502 280.583 Q103.052 282.991 103.052 287.111 Q103.052 289.982 101.409 291.972 Q99.765 293.94 96.7326 294.704 Z" fill="#000000" fill-rule="nonzero" fill-opacity="1" /><path clip-path="url(#clip790)" d="M122.728 281.857 Q119.117 281.857 117.288 285.421 Q115.483 288.963 115.483 296.093 Q115.483 303.199 117.288 306.764 Q119.117 310.306 122.728 310.306 Q126.362 310.306 128.168 306.764 Q129.996 303.199 129.996 296.093 Q129.996 288.963 128.168 285.421 Q126.362 281.857 122.728 281.857 M122.728 278.153 Q128.538 278.153 131.594 282.759 Q134.672 287.343 134.672 296.093 Q134.672 304.819 131.594 309.426 Q128.538 314.009 122.728 314.009 Q116.918 314.009 113.839 309.426 Q110.783 304.819 110.783 296.093 Q110.783 287.343 113.839 282.759 Q116.918 278.153 122.728 278.153 Z" fill="#000000" fill-rule="nonzero" fill-opacity="1" /><path clip-path="url(#clip790)" d="M152.89 281.857 Q149.279 281.857 147.45 285.421 Q145.644 288.963 145.644 296.093 Q145.644 303.199 147.45 306.764 Q149.279 310.306 152.89 310.306 Q156.524 310.306 158.33 306.764 Q160.158 303.199 160.158 296.093 Q160.158 288.963 158.33 285.421 Q156.524 281.857 152.89 281.857 M152.89 278.153 Q158.7 278.153 161.755 282.759 Q164.834 287.343 164.834 296.093 Q164.834 304.819 161.755 309.426 Q158.7 314.009 152.89 314.009 Q147.08 314.009 144.001 309.426 Q140.945 304.819 140.945 296.093 Q140.945 287.343 144.001 282.759 Q147.08 278.153 152.89 278.153 Z" fill="#000000" fill-rule="nonzero" fill-opacity="1" /><path clip-path="url(#clip790)" d="M183.052 281.857 Q179.441 281.857 177.612 285.421 Q175.806 288.963 175.806 296.093 Q175.806 303.199 177.612 306.764 Q179.441 310.306 183.052 310.306 Q186.686 310.306 188.491 306.764 Q190.32 303.199 190.32 296.093 Q190.32 288.963 188.491 285.421 Q186.686 281.857 183.052 281.857 M183.052 278.153 Q188.862 278.153 191.917 282.759 Q194.996 287.343 194.996 296.093 Q194.996 304.819 191.917 309.426 Q188.862 314.009 183.052 314.009 Q177.241 314.009 174.163 309.426 Q171.107 304.819 171.107 296.093 Q171.107 287.343 174.163 282.759 Q177.241 278.153 183.052 278.153 Z" fill="#000000" fill-rule="nonzero" fill-opacity="1" /><polyline clip-path="url(#clip792)" style="stroke:#009af9; stroke-linecap:round; stroke-linejoin:round; stroke-width:4; stroke-opacity:1; fill:none" points="291.046,1002.46 292.047,1002.46 293.047,1002.46 294.048,1002.46 295.049,1002.46 296.05,1041.7 297.051,1041.71 298.052,1041.71 299.052,1041.71 300.053,1041.71 301.054,474.684 302.055,474.684 303.056,474.685 304.057,474.685 305.057,474.685 306.058,1181.68 307.059,1181.68 308.06,1181.68 309.061,1181.68 310.062,1181.68 311.062,394.818 312.063,394.819 313.064,394.82 314.065,394.821 315.066,394.823 316.067,557.836 317.067,557.837 318.068,557.839 319.069,557.841 320.07,557.842 321.071,833.122 322.072,833.122 323.072,833.123 324.073,833.124 325.074,833.124 326.075,410.731 327.076,410.732 328.077,410.733 329.077,410.733 330.078,410.734 331.079,1046.92 332.08,1046.92 333.081,1046.92 334.081,1046.92 335.082,1046.93 336.083,605.047 337.084,605.047 338.085,605.048 339.086,605.049 340.086,605.049 341.087,973.914 342.088,973.914 343.089,973.915 344.09,973.916 345.091,973.916 346.091,454.367 347.092,454.368 348.093,454.368 349.094,454.369 350.095,454.369 351.096,716.478 352.096,716.479 353.097,716.48 354.098,716.481 355.099,716.482 356.1,383.563 357.101,383.563 358.101,383.564 359.102,383.564 360.103,383.564 361.104,384.666 362.105,384.667 363.106,384.668 364.106,384.669 365.107,384.671 366.108,668.444 367.109,668.445 368.11,668.446 369.111,668.447 370.111,668.448 371.112,930.541 372.113,930.542 373.114,930.543 374.115,930.544 375.116,930.545 376.116,1186.34 377.117,1186.35 378.118,1186.35 379.119,1186.35 380.12,1186.35 381.121,547.686 382.121,547.687 383.122,547.688 384.123,547.689 385.124,547.691 386.125,768.353 387.125,768.353 388.126,768.353 389.127,768.354 390.128,768.354 391.129,664.329 392.13,664.33 393.13,664.33 394.131,664.33 395.132,664.331 396.133,429.667 397.134,429.668 398.135,429.669 399.135,429.671 400.136,429.672 401.137,394.814 402.138,394.816 403.139,394.817 404.14,394.818 405.14,394.82 406.141,636.329 407.142,636.33 408.143,636.331 409.144,636.332 410.145,636.333 411.145,284.209 412.146,284.211 413.147,284.213 414.148,284.215 415.149,284.217 416.15,755.993 417.15,755.994 418.151,755.994 419.152,755.995 420.153,755.996 421.154,737.88 422.155,737.881 423.155,737.882 424.156,737.882 425.157,737.883 426.158,404.428 427.159,404.429 428.16,404.429 429.16,404.43 430.161,404.43 431.162,1222.84 432.163,1222.84 433.164,1222.84 434.165,1222.84 435.165,1222.84 436.166,540.279 437.167,540.28 438.168,540.281 439.169,540.281 440.169,540.282 441.17,372.85 442.171,372.852 443.172,372.853 444.173,372.855 445.174,372.857 446.174,1080.13 447.175,1080.13 448.176,1080.13 449.177,1080.13 450.178,1080.13 451.179,743.918 452.179,743.919 453.18,743.919 454.181,743.92 455.182,743.921 456.183,843.277 457.184,843.278 458.184,843.279 459.185,843.28 460.186,843.282 461.187,592.972 462.188,592.973 463.189,592.974 464.189,592.974 465.19,592.975 466.191,1197.05 467.192,1197.05 468.193,1197.05 469.194,1197.05 470.194,1197.05 471.195,658.283 472.196,658.284 473.197,658.285 474.198,658.286 475.199,658.286 476.199,1082.88 477.2,1082.88 478.201,1082.88 479.202,1082.88 480.203,1082.88 481.204,1027.16 482.204,1027.16 483.205,1027.17 484.206,1027.17 485.207,1027.17 486.208,1081.23 487.209,1081.23 488.209,1081.23 489.21,1081.23 490.211,1081.23 491.212,602.588 492.213,602.588 493.213,602.589 494.214,602.589 495.215,602.59 496.216,994.219 497.217,994.219 498.218,994.22 499.218,994.221 500.219,994.222 501.22,612.459 502.221,612.459 503.222,612.46 504.223,612.46 505.223,612.46 506.224,1003.82 507.225,1003.82 508.226,1003.82 509.227,1003.82 510.228,1003.82 511.228,1115.27 512.229,1115.27 513.23,1115.28 514.231,1115.28 515.232,1115.28 516.233,794.433 517.233,794.434 518.234,794.435 519.235,794.437 520.236,794.438 521.237,642.903 522.238,642.904 523.238,642.906 524.239,642.908 525.24,642.909 526.241,833.937 527.242,833.939 528.243,833.94 529.243,833.942 530.244,833.943 531.245,173.869 532.246,173.87 533.247,173.872 534.248,173.873 535.248,173.874 536.249,776.583 537.25,776.583 538.251,776.584 539.252,776.584 540.253,776.585 541.253,420.899 542.254,420.9 543.255,420.901 544.256,420.901 545.257,420.902 546.257,571.298 547.258,571.299 548.259,571.299 549.26,571.3 550.261,571.3 551.262,545.227 552.262,545.227 553.263,545.228 554.264,545.229 555.265,545.229 556.266,1445.71 557.267,1445.71 558.267,1445.71 559.268,1445.71 560.269,1445.72 561.27,999.43 562.271,999.431 563.272,999.431 564.272,999.432 565.273,999.432 566.274,645.403 567.275,645.405 568.276,645.407 569.277,645.409 570.277,645.411 571.278,776.314 572.279,776.315 573.28,776.315 574.281,776.315 575.282,776.316 576.282,720.047 577.283,720.049 578.284,720.051 579.285,720.053 580.286,720.055 581.287,952.775 582.287,952.776 583.288,952.777 584.289,952.777 585.29,952.778 586.291,972.808 587.292,972.809 588.292,972.809 589.293,972.81 590.294,972.811 591.295,87.9763 592.296,87.9765 593.296,87.9768 594.297,87.9771 595.298,87.9773 596.299,782.647 597.3,782.648 598.301,782.65 599.301,782.651 600.302,782.653 601.303,462.638 602.304,462.641 603.305,462.644 604.306,462.646 605.306,462.649 606.307,634.131 607.308,634.133 608.309,634.134 609.31,634.135 610.311,634.137 611.311,756.811 612.312,756.811 613.313,756.812 614.314,756.812 615.315,756.812 616.316,897.086 617.316,897.087 618.317,897.087 619.318,897.088 620.319,897.088 621.32,457.658 622.321,457.659 623.321,457.659 624.322,457.659 625.323,457.66 626.324,1045.82 627.325,1045.82 628.326,1045.82 629.326,1045.82 630.327,1045.82 631.328,257.315 632.329,257.315 633.33,257.315 634.331,257.315 635.331,257.315 636.332,768.635 637.333,768.635 638.334,768.635 639.335,768.635 640.336,768.635 641.336,948.105 642.337,948.106 643.338,948.106 644.339,948.107 645.34,948.107 646.34,798.527 647.341,798.527 648.342,798.528 649.343,798.528 650.344,798.528 651.345,547.175 652.345,547.176 653.346,547.177 654.347,547.178 655.348,547.18 656.349,308.089 657.35,308.089 658.35,308.09 659.351,308.09 660.352,308.09 661.353,592.427 662.354,592.428 663.355,592.428 664.355,592.428 665.356,592.429 666.357,532.314 667.358,532.314 668.359,532.314 669.36,532.314 670.36,532.315 671.361,784.832 672.362,784.832 673.363,784.833 674.364,784.834 675.365,784.834 676.365,690.383 677.366,690.384 678.367,690.384 679.368,690.385 680.369,690.386 681.37,546.865 682.37,546.866 683.371,546.866 684.372,546.867 685.373,546.867 686.374,986.251 687.375,986.252 688.375,986.252 689.376,986.252 690.377,986.253 691.378,1349.9 692.379,1349.9 693.38,1349.9 694.38,1349.9 695.381,1349.9 696.382,232.873 697.383,232.873 698.384,232.874 699.384,232.874 700.385,232.874 701.386,498.267 702.387,498.268 703.388,498.269 704.389,498.27 705.389,498.27 706.39,501.867 707.391,501.868 708.392,501.869 709.393,501.87 710.394,501.871 711.394,717.282 712.395,717.283 713.396,717.284 714.397,717.285 715.398,717.285 716.399,446.132 717.399,446.133 718.4,446.134 719.401,446.135 720.402,446.136 721.403,922.038 722.404,922.039 723.404,922.04 724.405,922.041 725.406,922.042 726.407,546.895 727.408,546.896 728.409,546.898 729.409,546.899 730.41,546.901 731.411,1020.3 732.412,1020.3 733.413,1020.3 734.414,1020.3 735.414,1020.3 736.415,589.426 737.416,589.426 738.417,589.427 739.418,589.427 740.419,589.428 741.419,913.546 742.42,913.546 743.421,913.546 744.422,913.547 745.423,913.547 746.424,1214.85 747.424,1214.85 748.425,1214.85 749.426,1214.85 750.427,1214.86 751.428,573.484 752.428,573.486 753.429,573.487 754.43,573.488 755.431,573.489 756.432,735.966 757.433,735.966 758.433,735.966 759.434,735.967 760.435,735.967 761.436,802.112 762.437,802.112 763.438,802.112 764.438,802.112 765.439,802.113 766.44,414.858 767.441,414.858 768.442,414.858 769.443,414.858 770.443,414.858 771.444,734.603 772.445,734.603 773.446,734.603 774.447,734.603 775.448,734.604 776.448,611.922 777.449,611.924 778.45,611.925 779.451,611.926 780.452,611.927 781.453,768.347 782.453,768.348 783.454,768.349 784.455,768.35 785.456,768.351 786.457,811.423 787.458,811.424 788.458,811.426 789.459,811.427 790.46,811.429 791.461,772.759 792.462,772.76 793.463,772.761 794.463,772.762 795.464,772.763 796.465,1121.29 797.466,1121.29 798.467,1121.29 799.468,1121.29 800.468,1121.29 801.469,716.205 802.47,716.206 803.471,716.207 804.472,716.208 805.472,716.21 806.473,873.74 807.474,873.741 808.475,873.742 809.476,873.742 810.477,873.743 811.477,502.995 812.478,502.997 813.479,502.999 814.48,503 815.481,503.002 816.482,196.674 817.482,196.675 818.483,196.675 819.484,196.675 820.485,196.675 821.486,971.996 822.487,971.998 823.487,972 824.488,972.002 825.489,972.004 826.49,966.492 827.491,966.492 828.492,966.493 829.492,966.493 830.493,966.494 831.494,324.532 832.495,324.533 833.496,324.534 834.497,324.535 835.497,324.537 836.498,611.358 837.499,611.358 838.5,611.359 839.501,611.359 840.502,611.36 841.502,570.72 842.503,570.721 843.504,570.721 844.505,570.722 845.506,570.722 846.507,793.859 847.507,793.859 848.508,793.86 849.509,793.86 850.51,793.86 851.511,597.102 852.512,597.102 853.512,597.103 854.513,597.103 855.514,597.103 856.515,1041.97 857.516,1041.97 858.516,1041.98 859.517,1041.98 860.518,1041.98 861.519,763.998 862.52,764 863.521,764.001 864.521,764.002 865.522,764.003 866.523,351.19 867.524,351.191 868.525,351.191 869.526,351.192 870.526,351.193 871.527,396.434 872.528,396.435 873.529,396.436 874.53,396.438 875.531,396.439 876.531,796.325 877.532,796.326 878.533,796.326 879.534,796.327 880.535,796.327 881.536,374.523 882.536,374.524 883.537,374.524 884.538,374.525 885.539,374.525 886.54,769.973 887.541,769.975 888.541,769.976 889.542,769.977 890.543,769.978 891.544,307.279 892.545,307.279 893.546,307.28 894.546,307.281 895.547,307.282 896.548,687.384 897.549,687.385 898.55,687.387 899.551,687.388 900.551,687.389 901.552,759.256 902.553,759.257 903.554,759.258 904.555,759.259 905.556,759.26 906.556,1072.18 907.557,1072.18 908.558,1072.18 909.559,1072.18 910.56,1072.18 911.56,721.15 912.561,721.152 913.562,721.154 914.563,721.156 915.564,721.158 916.565,973.909 917.565,973.91 918.566,973.91 919.567,973.91 920.568,973.91 921.569,831.208 922.57,831.209 923.57,831.21 924.571,831.211 925.572,831.212 926.573,716.746 927.574,716.747 928.575,716.747 929.575,716.748 930.576,716.748 931.577,491.675 932.578,491.676 933.579,491.676 934.58,491.677 935.58,491.678 936.581,619.045 937.582,619.045 938.583,619.046 939.584,619.046 940.585,619.046 941.585,786.162 942.586,786.163 943.587,786.164 944.588,786.165 945.589,786.166 946.59,660.188 947.59,660.188 948.591,660.189 949.592,660.19 950.593,660.191 951.594,752.173 952.595,752.173 953.595,752.174 954.596,752.174 955.597,752.174 956.598,540.265 957.599,540.266 958.6,540.267 959.6,540.269 960.601,540.27 961.602,980.226 962.603,980.227 963.604,980.228 964.604,980.229 965.605,980.23 966.606,716.205 967.607,716.206 968.608,716.207 969.609,716.208 970.609,716.209 971.61,771.082 972.611,771.082 973.612,771.083 974.613,771.084 975.614,771.084 976.614,886.373 977.615,886.374 978.616,886.374 979.617,886.375 980.618,886.376 981.619,422.26 982.619,422.261 983.62,422.262 984.621,422.262 985.622,422.263 986.623,649.261 987.624,649.262 988.624,649.263 989.625,649.264 990.626,649.264 991.627,698.098 992.628,698.098 993.629,698.099 994.629,698.099 995.63,698.099 996.631,179.385 997.632,179.387 998.633,179.388 999.634,179.389 1000.63,179.39 1001.64,677.495 1002.64,677.496 1003.64,677.496 1004.64,677.496 1005.64,677.497 1006.64,965.407 1007.64,965.407 1008.64,965.408 1009.64,965.408 1010.64,965.408 1011.64,1089.18 1012.64,1089.18 1013.65,1089.18 1014.65,1089.18 1015.65,1089.18 1016.65,1201.43 1017.65,1201.43 1018.65,1201.43 1019.65,1201.44 1020.65,1201.44 1021.65,913.26 1022.65,913.261 1023.65,913.262 1024.65,913.263 1025.66,913.264 1026.66,1215.45 1027.66,1215.45 1028.66,1215.45 1029.66,1215.45 1030.66,1215.45 1031.66,484.266 1032.66,484.267 1033.66,484.268 1034.66,484.268 1035.66,484.269 1036.66,574.065 1037.67,574.065 1038.67,574.066 1039.67,574.067 1040.67,574.067 1041.67,415.396 1042.67,415.396 1043.67,415.397 1044.67,415.397 1045.67,415.397 1046.67,513.639 1047.67,513.639 1048.67,513.64 1049.68,513.64 1050.68,513.641 1051.68,716.195 1052.68,716.196 1053.68,716.196 1054.68,716.197 1055.68,716.197 1056.68,734.6 1057.68,734.6 1058.68,734.601 1059.68,734.602 1060.68,734.602 1061.69,539.165 1062.69,539.166 1063.69,539.168 1064.69,539.169 1065.69,539.17 1066.69,884.733 1067.69,884.733 1068.69,884.734 1069.69,884.734 1070.69,884.735 1071.69,923.408 1072.69,923.409 1073.69,923.409 1074.7,923.41 1075.7,923.41 1076.7,833.385 1077.7,833.386 1078.7,833.387 1079.7,833.388 1080.7,833.39 1081.7,831.468 1082.7,831.468 1083.7,831.469 1084.7,831.469 1085.7,831.469 1086.71,391.247 1087.71,391.248 1088.71,391.249 1089.71,391.249 1090.71,391.25 1091.71,818.593 1092.71,818.594 1093.71,818.595 1094.71,818.597 1095.71,818.598 1096.71,689.034 1097.71,689.035 1098.72,689.035 1099.72,689.035 1100.72,689.035 1101.72,839.975 1102.72,839.976 1103.72,839.976 1104.72,839.977 1105.72,839.977 1106.72,870.999 1107.72,871 1108.72,871 1109.72,871.001 1110.73,871.002 1111.73,871.288 1112.73,871.288 1113.73,871.289 1114.73,871.289 1115.73,871.29 1116.73,436.53 1117.73,436.531 1118.73,436.533 1119.73,436.534 1120.73,436.535 1121.73,621.26 1122.74,621.26 1123.74,621.261 1124.74,621.261 1125.74,621.262 1126.74,698.368 1127.74,698.369 1128.74,698.369 1129.74,698.369 1130.74,698.37 1131.74,733.782 1132.74,733.782 1133.74,733.783 1134.75,733.783 1135.75,733.783 1136.75,631.401 1137.75,631.402 1138.75,631.402 1139.75,631.403 1140.75,631.403 1141.75,479.854 1142.75,479.855 1143.75,479.857 1144.75,479.858 1145.75,479.859 1146.76,1243.95 1147.76,1243.95 1148.76,1243.96 1149.76,1243.96 1150.76,1243.96 1151.76,624.788 1152.76,624.789 1153.76,624.789 1154.76,624.79 1155.76,624.791 1156.76,981.326 1157.76,981.326 1158.77,981.327 1159.77,981.327 1160.77,981.328 1161.77,584.208 1162.77,584.209 1163.77,584.21 1164.77,584.211 1165.77,584.212 1166.77,918.22 1167.77,918.22 1168.77,918.22 1169.77,918.221 1170.78,918.221 1171.78,492.8 1172.78,492.8 1173.78,492.8 1174.78,492.8 1175.78,492.8 1176.78,829.558 1177.78,829.559 1178.78,829.56 1179.78,829.561 1180.78,829.562 1181.78,1114.74 1182.79,1114.75 1183.79,1114.75 1184.79,1114.75 1185.79,1114.75 1186.79,743.144 1187.79,743.146 1188.79,743.148 1189.79,743.149 1190.79,743.151 1191.79,296.317 1192.79,296.318 1193.79,296.318 1194.8,296.318 1195.8,296.319 1196.8,695.899 1197.8,695.9 1198.8,695.901 1199.8,695.902 1200.8,695.902 1201.8,670.912 1202.8,670.912 1203.8,670.912 1204.8,670.912 1205.8,670.912 1206.81,796.611 1207.81,796.612 1208.81,796.613 1209.81,796.614 1210.81,796.614 1211.81,573.222 1212.81,573.223 1213.81,573.223 1214.81,573.223 1215.81,573.223 1216.81,369.563 1217.81,369.563 1218.82,369.564 1219.82,369.564 1220.82,369.565 1221.82,785.654 1222.82,785.654 1223.82,785.654 1224.82,785.654 1225.82,785.655 1226.82,164.553 1227.82,164.553 1228.82,164.553 1229.82,164.554 1230.83,164.554 1231.83,743.871 1232.83,743.873 1233.83,743.875 1234.83,743.876 1235.83,743.878 1236.83,897.644 1237.83,897.645 1238.83,897.646 1239.83,897.647 1240.83,897.648 1241.83,686.284 1242.84,686.285 1243.84,686.285 1244.84,686.286 1245.84,686.286 1246.84,723.606 1247.84,723.606 1248.84,723.606 1249.84,723.607 1250.84,723.607 1251.84,1026.05 1252.84,1026.05 1253.84,1026.06 1254.85,1026.06 1255.85,1026.06 1256.85,333.599 1257.85,333.6 1258.85,333.601 1259.85,333.603 1260.85,333.604 1261.85,1068.6 1262.85,1068.6 1263.85,1068.6 1264.85,1068.6 1265.85,1068.6 1266.86,892.685 1267.86,892.685 1268.86,892.686 1269.86,892.686 1270.86,892.686 1271.86,894.863 1272.86,894.864 1273.86,894.864 1274.86,894.864 1275.86,894.865 1276.86,611.371 1277.86,611.372 1278.87,611.372 1279.87,611.373 1280.87,611.374 1281.87,476.615 1282.87,476.616 1283.87,476.617 1284.87,476.617 1285.87,476.618 1286.87,469.755 1287.87,469.756 1288.87,469.757 1289.87,469.757 1290.88,469.758 1291.88,793.032 1292.88,793.033 1293.88,793.034 1294.88,793.035 1295.88,793.036 1296.88,1204.72 1297.88,1204.72 1298.88,1204.72 1299.88,1204.72 1300.88,1204.72 1301.88,817.763 1302.89,817.764 1303.89,817.764 1304.89,817.765 1305.89,817.765 1306.89,861.918 1307.89,861.918 1308.89,861.919 1309.89,861.919 1310.89,861.919 1311.89,478 1312.89,478.001 1313.89,478.001 1314.9,478.002 1315.9,478.002 1316.9,1149.29 1317.9,1149.29 1318.9,1149.29 1319.9,1149.29 1320.9,1149.29 1321.9,931.098 1322.9,931.1 1323.9,931.101 1324.9,931.102 1325.9,931.104 1326.91,768.38 1327.91,768.381 1328.91,768.381 1329.91,768.382 1330.91,768.382 1331.91,708.219 1332.91,708.221 1333.91,708.222 1334.91,708.223 1335.91,708.225 1336.91,804.576 1337.91,804.576 1338.91,804.576 1339.92,804.577 1340.92,804.577 1341.92,813.053 1342.92,813.056 1343.92,813.058 1344.92,813.06 1345.92,813.062 1346.92,701.664 1347.92,701.664 1348.92,701.665 1349.92,701.665 1350.92,701.666 1351.93,918.171 1352.93,918.171 1353.93,918.172 1354.93,918.172 1355.93,918.172 1356.93,476.082 1357.93,476.083 1358.93,476.084 1359.93,476.085 1360.93,476.086 1361.93,788.337 1362.93,788.338 1363.94,788.339 1364.94,788.34 1365.94,788.341 1366.94,1061.76 1367.94,1061.76 1368.94,1061.76 1369.94,1061.76 1370.94,1061.77 1371.94,675.613 1372.94,675.614 1373.94,675.614 1374.94,675.615 1375.95,675.616 1376.95,847.724 1377.95,847.725 1378.95,847.726 1379.95,847.728 1380.95,847.729 1381.95,626.432 1382.95,626.433 1383.95,626.434 1384.95,626.435 1385.95,626.435 1386.95,1076.83 1387.96,1076.83 1388.96,1076.83 1389.96,1076.83 1390.96,1076.83 1391.96,906.698 1392.96,906.698 1393.96,906.699 1394.96,906.699 1395.96,906.699 1396.96,464.814 1397.96,464.815 1398.96,464.815 1399.97,464.815 1400.97,464.816 1401.97,719.51 1402.97,719.511 1403.97,719.511 1404.97,719.511 1405.97,719.511 1406.97,271.022 1407.97,271.022 1408.97,271.022 1409.97,271.023 1410.97,271.023 1411.98,749.94 1412.98,749.941 1413.98,749.941 1414.98,749.942 1415.98,749.942 1416.98,1079.85 1417.98,1079.85 1418.98,1079.85 1419.98,1079.86 1420.98,1079.86 1421.98,311.4 1422.98,311.4 1423.99,311.401 1424.99,311.401 1425.99,311.402 1426.99,840.514 1427.99,840.515 1428.99,840.516 1429.99,840.517 1430.99,840.518 1431.99,1118.84 1432.99,1118.84 1433.99,1118.84 1434.99,1118.84 1436,1118.84 1437,470.311 1438,470.313 1439,470.315 1440,470.318 1441,470.32 1442,400.604 1443,400.604 1444,400.604 1445,400.605 1446,400.605 1447,391.256 1448.01,391.257 1449.01,391.258 1450.01,391.259 1451.01,391.26 1452.01,783.715 1453.01,783.716 1454.01,783.717 1455.01,783.717 1456.01,783.718 1457.01,700.553 1458.01,700.554 1459.01,700.554 1460.02,700.555 1461.02,700.556 1462.02,601.987 1463.02,601.988 1464.02,601.989 1465.02,601.989 1466.02,601.99 1467.02,650.075 1468.02,650.076 1469.02,650.076 1470.02,650.077 1471.02,650.077 1472.03,642.915 1473.03,642.916 1474.03,642.916 1475.03,642.916 1476.03,642.916 1477.03,936.864 1478.03,936.864 1479.03,936.864 1480.03,936.864 1481.03,936.865 1482.03,937.438 1483.03,937.439 1484.04,937.44 1485.04,937.441 1486.04,937.442 1487.04,391.529 1488.04,391.529 1489.04,391.53 1490.04,391.53 1491.04,391.53 1492.04,693.949 1493.04,693.95 1494.04,693.951 1495.04,693.953 1496.05,693.954 1497.05,564.966 1498.05,564.966 1499.05,564.967 1500.05,564.967 1501.05,564.968 1502.05,615.493 1503.05,615.493 1504.05,615.493 1505.05,615.493 1506.05,615.494 1507.05,102.742 1508.06,102.743 1509.06,102.745 1510.06,102.746 1511.06,102.748 1512.06,416.81 1513.06,416.81 1514.06,416.811 1515.06,416.812 1516.06,416.812 1517.06,908.332 1518.06,908.333 1519.06,908.333 1520.07,908.333 1521.07,908.334 1522.07,943.469 1523.07,943.469 1524.07,943.47 1525.07,943.47 1526.07,943.471 1527.07,455.741 1528.07,455.742 1529.07,455.743 1530.07,455.744 1531.07,455.746 1532.08,536.992 1533.08,536.992 1534.08,536.992 1535.08,536.992 1536.08,536.992 1537.08,460.677 1538.08,460.678 1539.08,460.678 1540.08,460.678 1541.08,460.678 1542.08,531.751 1543.08,531.752 1544.09,531.752 1545.09,531.752 1546.09,531.752 1547.09,507.079 1548.09,507.081 1549.09,507.082 1550.09,507.083 1551.09,507.084 1552.09,1112.81 1553.09,1112.81 1554.09,1112.82 1555.09,1112.82 1556.1,1112.82 1557.1,732.979 1558.1,732.979 1559.1,732.98 1560.1,732.981 1561.1,732.981 1562.1,675.055 1563.1,675.056 1564.1,675.056 1565.1,675.057 1566.1,675.057 1567.1,751.333 1568.11,751.334 1569.11,751.335 1570.11,751.337 1571.11,751.338 1572.11,724.72 1573.11,724.72 1574.11,724.72 1575.11,724.72 1576.11,724.72 1577.11,549.078 1578.11,549.078 1579.11,549.078 1580.12,549.079 1581.12,549.079 1582.12,773.02 1583.12,773.022 1584.12,773.023 1585.12,773.024 1586.12,773.025 1587.12,576.478 1588.12,576.48 1589.12,576.482 1590.12,576.484 1591.12,576.486 1592.12,691.822 1593.13,691.823 1594.13,691.824 1595.13,691.825 1596.13,691.826 1597.13,852.901 1598.13,852.902 1599.13,852.903 1600.13,852.904 1601.13,852.905 1602.13,284.455 1603.13,284.456 1604.13,284.456 1605.14,284.457 1606.14,284.457 1607.14,811.749 1608.14,811.75 1609.14,811.752 1610.14,811.754 1611.14,811.756 1612.14,394.258 1613.14,394.258 1614.14,394.259 1615.14,394.259 1616.14,394.259 1617.15,527.948 1618.15,527.95 1619.15,527.952 1620.15,527.954 1621.15,527.956 1622.15,244.083 1623.15,244.084 1624.15,244.086 1625.15,244.087 1626.15,244.088 1627.15,328.964 1628.15,328.964 1629.16,328.965 1630.16,328.965 1631.16,328.966 1632.16,721.158 1633.16,721.159 1634.16,721.16 1635.16,721.161 1636.16,721.162 1637.16,644.908 1638.16,644.909 1639.16,644.91 1640.16,644.911 1641.17,644.913 1642.17,475.484 1643.17,475.485 1644.17,475.485 1645.17,475.486 1646.17,475.486 1647.17,90.959 1648.17,90.9598 1649.17,90.9606 1650.17,90.9614 1651.17,90.9623 1652.17,767.254 1653.18,767.255 1654.18,767.255 1655.18,767.256 1656.18,767.256 1657.18,992.296 1658.18,992.297 1659.18,992.298 1660.18,992.299 1661.18,992.3 1662.18,540.234 1663.18,540.235 1664.18,540.236 1665.19,540.237 1666.19,540.237 1667.19,795.477 1668.19,795.478 1669.19,795.479 1670.19,795.48 1671.19,795.481 1672.19,878.941 1673.19,878.942 1674.19,878.944 1675.19,878.945 1676.19,878.947 1677.2,742.294 1678.2,742.294 1679.2,742.295 1680.2,742.296 1681.2,742.296 1682.2,974.223 1683.2,974.224 1684.2,974.226 1685.2,974.227 1686.2,974.228 1687.2,612.491 1688.2,612.491 1689.21,612.492 1690.21,612.493 1691.21,612.493 1692.21,900.095 1693.21,900.096 1694.21,900.096 1695.21,900.097 1696.21,900.098 1697.21,572.138 1698.21,572.138 1699.21,572.139 1700.21,572.14 1701.22,572.14 1702.22,772.453 1703.22,772.453 1704.22,772.454 1705.22,772.455 1706.22,772.455 1707.22,958.806 1708.22,958.807 1709.22,958.807 1710.22,958.808 1711.22,958.809 1712.22,1012.28 1713.23,1012.28 1714.23,1012.28 1715.23,1012.28 1716.23,1012.28 1717.23,583.381 1718.23,583.381 1719.23,583.382 1720.23,583.382 1721.23,583.383 1722.23,991.182 1723.23,991.182 1724.23,991.182 1725.24,991.183 1726.24,991.183 1727.24,763.747 1728.24,763.748 1729.24,763.749 1730.24,763.75 1731.24,763.751 1732.24,1224.17 1733.24,1224.17 1734.24,1224.17 1735.24,1224.17 1736.24,1224.17 1737.25,819.372 1738.25,819.372 1739.25,819.372 1740.25,819.372 1741.25,819.373 1742.25,471.149 1743.25,471.149 1744.25,471.149 1745.25,471.15 1746.25,471.15 1747.25,909.095 1748.25,909.096 1749.26,909.097 1750.26,909.097 1751.26,909.098 1752.26,830.669 1753.26,830.669 1754.26,830.67 1755.26,830.671 1756.26,830.671 1757.26,693.124 1758.26,693.125 1759.26,693.125 1760.26,693.125 1761.27,693.126 1762.27,778.281 1763.27,778.282 1764.27,778.283 1765.27,778.284 1766.27,778.286 1767.27,1130.65 1768.27,1130.65 1769.27,1130.65 1770.27,1130.65 1771.27,1130.65 1772.27,569.123 1773.28,569.124 1774.28,569.124 1775.28,569.124 1776.28,569.124 1777.28,717.578 1778.28,717.579 1779.28,717.579 1780.28,717.58 1781.28,717.58 1782.28,636.066 1783.28,636.066 1784.28,636.066 1785.29,636.066 1786.29,636.066 1787.29,467.014 1788.29,467.015 1789.29,467.016 1790.29,467.017 1791.29,467.018 1792.29,957.174 1793.29,957.174 1794.29,957.175 1795.29,957.175 1796.29,957.175 1797.3,718.984 1798.3,718.985 1799.3,718.986 1800.3,718.987 1801.3,718.988 1802.3,1013.17 1803.3,1013.17 1804.3,1013.17 1805.3,1013.17 1806.3,1013.17 1807.3,547.164 1808.3,547.165 1809.31,547.165 1810.31,547.166 1811.31,547.166 1812.31,256.695 1813.31,256.697 1814.31,256.698 1815.31,256.699 1816.31,256.701 1817.31,1216.25 1818.31,1216.25 1819.31,1216.25 1820.31,1216.25 1821.32,1216.25 1822.32,447.788 1823.32,447.789 1824.32,447.79 1825.32,447.791 1826.32,447.792 1827.32,732.654 1828.32,732.655 1829.32,732.656 1830.32,732.657 1831.32,732.658 1832.32,629.257 1833.33,629.258 1834.33,629.259 1835.33,629.26 1836.33,629.261 1837.33,855.841 1838.33,855.842 1839.33,855.843 1840.33,855.844 1841.33,855.845 1842.33,648.138 1843.33,648.139 1844.33,648.14 1845.34,648.141 1846.34,648.143 1847.34,480.966 1848.34,480.968 1849.34,480.969 1850.34,480.971 1851.34,480.972 1852.34,863.039 1853.34,863.04 1854.34,863.041 1855.34,863.041 1856.34,863.042 1857.34,160.96 1858.35,160.961 1859.35,160.962 1860.35,160.963 1861.35,160.963 1862.35,527.394 1863.35,527.395 1864.35,527.396 1865.35,527.398 1866.35,527.399 1867.35,930.879 1868.35,930.879 1869.35,930.88 1870.36,930.881 1871.36,930.882 1872.36,944.015 1873.36,944.016 1874.36,944.016 1875.36,944.017 1876.36,944.018 1877.36,750.49 1878.36,750.49 1879.36,750.491 1880.36,750.491 1881.36,750.491 1882.37,1131.19 1883.37,1131.19 1884.37,1131.19 1885.37,1131.19 1886.37,1131.19 1887.37,876.692 1888.37,876.693 1889.37,876.694 1890.37,876.695 1891.37,876.695 1892.37,991.454 1893.37,991.456 1894.38,991.457 1895.38,991.459 1896.38,991.46 1897.38,1008.26 1898.38,1008.26 1899.38,1008.26 1900.38,1008.27 1901.38,1008.27 1902.38,666.474 1903.38,666.475 1904.38,666.476 1905.38,666.477 1906.39,666.478 1907.39,937.693 1908.39,937.693 1909.39,937.694 1910.39,937.694 1911.39,937.695 1912.39,511.728 1913.39,511.729 1914.39,511.729 1915.39,511.729 1916.39,511.729 1917.39,574.039 1918.4,574.04 1919.4,574.04 1920.4,574.041 1921.4,574.041 1922.4,260.554 1923.4,260.556 1924.4,260.557 1925.4,260.559 1926.4,260.561 1927.4,813.961 1928.4,813.962 1929.4,813.963 1930.41,813.964 1931.41,813.965 1932.41,964.255 1933.41,964.256 1934.41,964.257 1935.41,964.258 1936.41,964.259 1937.41,454.648 1938.41,454.648 1939.41,454.649 1940.41,454.649 1941.41,454.649 1942.42,660.767 1943.42,660.767 1944.42,660.768 1945.42,660.768 1946.42,660.768 1947.42,494.473 1948.42,494.474 1949.42,494.475 1950.42,494.476 1951.42,494.476 1952.42,1223.17 1953.42,1223.17 1954.43,1223.17 1955.43,1223.17 1956.43,1223.17 1957.43,933.586 1958.43,933.586 1959.43,933.586 1960.43,933.586 1961.43,933.587 1962.43,870.686 1963.43,870.687 1964.43,870.688 1965.43,870.689 1966.44,870.69 1967.44,928.061 1968.44,928.061 1969.44,928.062 1970.44,928.062 1971.44,928.063 1972.44,491.399 1973.44,491.399 1974.44,491.399 1975.44,491.4 1976.44,491.4 1977.44,884.727 1978.45,884.728 1979.45,884.728 1980.45,884.728 1981.45,884.729 1982.45,596.837 1983.45,596.837 1984.45,596.837 1985.45,596.837 1986.45,596.837 1987.45,239.217 1988.45,239.217 1989.45,239.217 1990.46,239.217 1991.46,239.218 1992.46,352.532 1993.46,352.534 1994.46,352.535 1995.46,352.536 1996.46,352.538 1997.46,466.486 1998.46,466.487 1999.46,466.487 2000.46,466.488 2001.46,466.488 2002.47,830.362 2003.47,830.362 2004.47,830.362 2005.47,830.363 2006.47,830.363 2007.47,608.922 2008.47,608.922 2009.47,608.923 2010.47,608.923 2011.47,608.924 2012.47,174.386 2013.47,174.388 2014.48,174.39 2015.48,174.391 2016.48,174.393 2017.48,679.413 2018.48,679.413 2019.48,679.413 2020.48,679.413 2021.48,679.413 2022.48,316.601 2023.48,316.601 2024.48,316.602 2025.48,316.602 2026.49,316.602 2027.49,896.279 2028.49,896.28 2029.49,896.28 2030.49,896.281 2031.49,896.282 2032.49,1207.19 2033.49,1207.19 2034.49,1207.2 2035.49,1207.2 2036.49,1207.2 2037.49,716.743 2038.5,716.743 2039.5,716.743 2040.5,716.743 2041.5,716.743 2042.5,913.264 2043.5,913.264 2044.5,913.265 2045.5,913.265 2046.5,913.266 2047.5,846.558 2048.5,846.559 2049.5,846.56 2050.51,846.561 2051.51,846.562 2052.51,971.739 2053.51,971.74 2054.51,971.741 2055.51,971.741 2056.51,971.742 2057.51,633.61 2058.51,633.611 2059.51,633.611 2060.51,633.612 2061.51,633.613 2062.52,731.856 2063.52,731.856 2064.52,731.856 2065.52,731.856 2066.52,731.857 2067.52,742.523 2068.52,742.524 2069.52,742.524 2070.52,742.525 2071.52,742.525 2072.52,569.069 2073.52,569.07 2074.53,569.07 2075.53,569.071 2076.53,569.071 2077.53,606.165 2078.53,606.166 2079.53,606.166 2080.53,606.166 2081.53,606.166 2082.53,1263.97 2083.53,1263.97 2084.53,1263.97 2085.53,1263.97 2086.54,1263.97 2087.54,267.985 2088.54,267.986 2089.54,267.986 2090.54,267.987 2091.54,267.987 2092.54,959.084 2093.54,959.084 2094.54,959.084 2095.54,959.084 2096.54,959.085 2097.54,284.491 2098.55,284.491 2099.55,284.492 2100.55,284.492 2101.55,284.493 2102.55,300.694 2103.55,300.694 2104.55,300.695 2105.55,300.695 2106.55,300.695 2107.55,682.475 2108.55,682.476 2109.55,682.476 2110.56,682.477 2111.56,682.477 2112.56,486.538 2113.56,486.539 2114.56,486.539 2115.56,486.54 2116.56,486.541 2117.56,908.636 2118.56,908.637 2119.56,908.638 2120.56,908.639 2121.56,908.64 2122.56,818.588 2123.57,818.588 2124.57,818.588 2125.57,818.589 2126.57,818.589 2127.57,1162.74 2128.57,1162.74 2129.57,1162.74 2130.57,1162.74 2131.57,1162.74 2132.57,397.325 2133.57,397.327 2134.57,397.328 2135.58,397.33 2136.58,397.331 2137.58,628.362 2138.58,628.363 2139.58,628.364 2140.58,628.365 2141.58,628.365 2142.58,579.498 2143.58,579.498 2144.58,579.499 2145.58,579.499 2146.58,579.5 2147.59,811.14 2148.59,811.14 2149.59,811.141 2150.59,811.141 2151.59,811.142 2152.59,701.067 2153.59,701.067 2154.59,701.068 2155.59,701.069 2156.59,701.069 2157.59,822.465 2158.59,822.465 2159.6,822.466 2160.6,822.467 2161.6,822.467 2162.6,1084.79 2163.6,1084.79 2164.6,1084.79 2165.6,1084.79 2166.6,1084.79 2167.6,727.705 2168.6,727.706 2169.6,727.706 2170.6,727.706 2171.61,727.707 2172.61,564.958 2173.61,564.959 2174.61,564.959 2175.61,564.96 2176.61,564.96 2177.61,953.862 2178.61,953.862 2179.61,953.863 2180.61,953.863 2181.61,953.864 2182.61,869.349 2183.62,869.35 2184.62,869.35 2185.62,869.35 2186.62,869.351 2187.62,479.633 2188.62,479.634 2189.62,479.634 2190.62,479.634 2191.62,479.635 2192.62,769.938 2193.62,769.939 2194.62,769.94 2195.63,769.942 2196.63,769.943 2197.63,742.835 2198.63,742.836 2199.63,742.837 2200.63,742.838 2201.63,742.839 2202.63,899.564 2203.63,899.564 2204.63,899.565 2205.63,899.566 2206.63,899.566 2207.64,732.945 2208.64,732.945 2209.64,732.945 2210.64,732.945 2211.64,732.946 2212.64,859.478 2213.64,859.479 2214.64,859.479 2215.64,859.479 2216.64,859.479 2217.64,987.382 2218.64,987.383 2219.65,987.384 2220.65,987.384 2221.65,987.385 2222.65,426.097 2223.65,426.098 2224.65,426.098 2225.65,426.099 2226.65,426.1 2227.65,638.253 2228.65,638.253 2229.65,638.254 2230.65,638.254 2231.66,638.254 2232.66,396.179 2233.66,396.18 2234.66,396.182 2235.66,396.183 2236.66,396.185 2237.66,1043.34 2238.66,1043.34 2239.66,1043.34 2240.66,1043.34 2241.66,1043.34 2242.66,575.951 2243.67,575.951 2244.67,575.952 2245.67,575.952 2246.67,575.953 2247.67,372.046 2248.67,372.046 2249.67,372.046 2250.67,372.046 2251.67,372.046 2252.67,553.759 2253.67,553.76 2254.67,553.761 2255.68,553.762 2256.68,553.763 2257.68,860.913 2258.68,860.915 2259.68,860.917 2260.68,860.919 2261.68,860.92 2262.68,951.16 2263.68,951.16 2264.68,951.161 2265.68,951.162 2266.68,951.162 2267.69,486.178 2268.69,486.18 2269.69,486.181 2270.69,486.182 2271.69,486.183 2272.69,761.519 2273.69,761.519 2274.69,761.52 2275.69,761.521 2276.69,761.522 2277.69,686.029 2278.69,686.029 2279.7,686.03 2280.7,686.03 2281.7,686.03 2282.7,732.691 2283.7,732.692 2284.7,732.693 2285.7,732.694 2286.7,732.694 2287.7,485.958 2288.7,485.958 2289.7,485.959 2290.7,485.959 2291.71,485.96 2292.71,485.96 "/>
<path clip-path="url(#clip790)" d="M2017.42 1438.47 L2282.03 1438.47 L2282.03 1334.79 L2017.42 1334.79  Z" fill="#ffffff" fill-rule="evenodd" fill-opacity="1"/>
<polyline clip-path="url(#clip790)" style="stroke:#000000; stroke-linecap:round; stroke-linejoin:round; stroke-width:4; stroke-opacity:1; fill:none" points="2017.42,1438.47 2282.03,1438.47 2282.03,1334.79 2017.42,1334.79 2017.42,1438.47 "/>
<polyline clip-path="url(#clip790)" style="stroke:#009af9; stroke-linecap:round; stroke-linejoin:round; stroke-width:4; stroke-opacity:1; fill:none" points="2041,1386.63 2182.45,1386.63 "/>
<path clip-path="url(#clip790)" d="M2219.87 1406.32 Q2218.06 1410.95 2216.35 1412.36 Q2214.64 1413.78 2211.77 1413.78 L2208.36 1413.78 L2208.36 1410.21 L2210.86 1410.21 Q2212.62 1410.21 2213.59 1409.38 Q2214.57 1408.54 2215.75 1405.44 L2216.51 1403.5 L2206.03 1377.99 L2210.54 1377.99 L2218.64 1398.27 L2226.74 1377.99 L2231.26 1377.99 L2219.87 1406.32 Z" fill="#000000" fill-rule="nonzero" fill-opacity="1" /><path clip-path="url(#clip790)" d="M2238.55 1399.98 L2246.19 1399.98 L2246.19 1373.61 L2237.88 1375.28 L2237.88 1371.02 L2246.14 1369.35 L2250.82 1369.35 L2250.82 1399.98 L2258.46 1399.98 L2258.46 1403.91 L2238.55 1403.91 L2238.55 1399.98 Z" fill="#000000" fill-rule="nonzero" fill-opacity="1" /></svg>
