<?xml version="1.0" encoding="utf-8"?>
<svg xmlns="http://www.w3.org/2000/svg" xmlns:xlink="http://www.w3.org/1999/xlink" width="600" height="400" viewBox="0 0 2400 1600">
<defs>
  <clipPath id="clip010">
    <rect x="0" y="0" width="2400" height="1600"/>
  </clipPath>
</defs>
<path clip-path="url(#clip010)" d="M0 1600 L2400 1600 L2400 0 L0 0  Z" fill="#ffffff" fill-rule="evenodd" fill-opacity="1"/>
<defs>
  <clipPath id="clip011">
    <rect x="480" y="0" width="1681" height="1600"/>
  </clipPath>
</defs>
<path clip-path="url(#clip010)" d="M184.677 1486.45 L2352.76 1486.45 L2352.76 47.2441 L184.677 47.2441  Z" fill="#ffffff" fill-rule="evenodd" fill-opacity="1"/>
<defs>
  <clipPath id="clip012">
    <rect x="184" y="47" width="2169" height="1440"/>
  </clipPath>
</defs>
<polyline clip-path="url(#clip012)" style="stroke:#000000; stroke-linecap:round; stroke-linejoin:round; stroke-width:2; stroke-opacity:0.1; fill:none" points="246.038,1486.45 246.038,47.2441 "/>
<polyline clip-path="url(#clip012)" style="stroke:#000000; stroke-linecap:round; stroke-linejoin:round; stroke-width:2; stroke-opacity:0.1; fill:none" points="757.377,1486.45 757.377,47.2441 "/>
<polyline clip-path="url(#clip012)" style="stroke:#000000; stroke-linecap:round; stroke-linejoin:round; stroke-width:2; stroke-opacity:0.1; fill:none" points="1268.72,1486.45 1268.72,47.2441 "/>
<polyline clip-path="url(#clip012)" style="stroke:#000000; stroke-linecap:round; stroke-linejoin:round; stroke-width:2; stroke-opacity:0.1; fill:none" points="1780.06,1486.45 1780.06,47.2441 "/>
<polyline clip-path="url(#clip012)" style="stroke:#000000; stroke-linecap:round; stroke-linejoin:round; stroke-width:2; stroke-opacity:0.1; fill:none" points="2291.4,1486.45 2291.4,47.2441 "/>
<polyline clip-path="url(#clip010)" style="stroke:#000000; stroke-linecap:round; stroke-linejoin:round; stroke-width:4; stroke-opacity:1; fill:none" points="184.677,1486.45 2352.76,1486.45 "/>
<polyline clip-path="url(#clip010)" style="stroke:#000000; stroke-linecap:round; stroke-linejoin:round; stroke-width:4; stroke-opacity:1; fill:none" points="246.038,1486.45 246.038,1467.55 "/>
<polyline clip-path="url(#clip010)" style="stroke:#000000; stroke-linecap:round; stroke-linejoin:round; stroke-width:4; stroke-opacity:1; fill:none" points="757.377,1486.45 757.377,1467.55 "/>
<polyline clip-path="url(#clip010)" style="stroke:#000000; stroke-linecap:round; stroke-linejoin:round; stroke-width:4; stroke-opacity:1; fill:none" points="1268.72,1486.45 1268.72,1467.55 "/>
<polyline clip-path="url(#clip010)" style="stroke:#000000; stroke-linecap:round; stroke-linejoin:round; stroke-width:4; stroke-opacity:1; fill:none" points="1780.06,1486.45 1780.06,1467.55 "/>
<polyline clip-path="url(#clip010)" style="stroke:#000000; stroke-linecap:round; stroke-linejoin:round; stroke-width:4; stroke-opacity:1; fill:none" points="2291.4,1486.45 2291.4,1467.55 "/>
<path clip-path="url(#clip010)" d="M246.038 1517.37 Q242.426 1517.37 240.598 1520.93 Q238.792 1524.47 238.792 1531.6 Q238.792 1538.71 240.598 1542.27 Q242.426 1545.82 246.038 1545.82 Q249.672 1545.82 251.477 1542.27 Q253.306 1538.71 253.306 1531.6 Q253.306 1524.47 251.477 1520.93 Q249.672 1517.37 246.038 1517.37 M246.038 1513.66 Q251.848 1513.66 254.903 1518.27 Q257.982 1522.85 257.982 1531.6 Q257.982 1540.33 254.903 1544.94 Q251.848 1549.52 246.038 1549.52 Q240.227 1549.52 237.149 1544.94 Q234.093 1540.33 234.093 1531.6 Q234.093 1522.85 237.149 1518.27 Q240.227 1513.66 246.038 1513.66 Z" fill="#000000" fill-rule="nonzero" fill-opacity="1" /><path clip-path="url(#clip010)" d="M716.995 1514.29 L735.352 1514.29 L735.352 1518.22 L721.278 1518.22 L721.278 1526.7 Q722.296 1526.35 723.315 1526.19 Q724.333 1526 725.352 1526 Q731.139 1526 734.518 1529.17 Q737.898 1532.34 737.898 1537.76 Q737.898 1543.34 734.426 1546.44 Q730.953 1549.52 724.634 1549.52 Q722.458 1549.52 720.19 1549.15 Q717.944 1548.78 715.537 1548.04 L715.537 1543.34 Q717.62 1544.47 719.842 1545.03 Q722.065 1545.58 724.541 1545.58 Q728.546 1545.58 730.884 1543.48 Q733.222 1541.37 733.222 1537.76 Q733.222 1534.15 730.884 1532.04 Q728.546 1529.94 724.541 1529.94 Q722.666 1529.94 720.791 1530.35 Q718.94 1530.77 716.995 1531.65 L716.995 1514.29 Z" fill="#000000" fill-rule="nonzero" fill-opacity="1" /><path clip-path="url(#clip010)" d="M757.111 1517.37 Q753.5 1517.37 751.671 1520.93 Q749.865 1524.47 749.865 1531.6 Q749.865 1538.71 751.671 1542.27 Q753.5 1545.82 757.111 1545.82 Q760.745 1545.82 762.551 1542.27 Q764.379 1538.71 764.379 1531.6 Q764.379 1524.47 762.551 1520.93 Q760.745 1517.37 757.111 1517.37 M757.111 1513.66 Q762.921 1513.66 765.976 1518.27 Q769.055 1522.85 769.055 1531.6 Q769.055 1540.33 765.976 1544.94 Q762.921 1549.52 757.111 1549.52 Q751.301 1549.52 748.222 1544.94 Q745.166 1540.33 745.166 1531.6 Q745.166 1522.85 748.222 1518.27 Q751.301 1513.66 757.111 1513.66 Z" fill="#000000" fill-rule="nonzero" fill-opacity="1" /><path clip-path="url(#clip010)" d="M787.273 1517.37 Q783.662 1517.37 781.833 1520.93 Q780.027 1524.47 780.027 1531.6 Q780.027 1538.71 781.833 1542.27 Q783.662 1545.82 787.273 1545.82 Q790.907 1545.82 792.712 1542.27 Q794.541 1538.71 794.541 1531.6 Q794.541 1524.47 792.712 1520.93 Q790.907 1517.37 787.273 1517.37 M787.273 1513.66 Q793.083 1513.66 796.138 1518.27 Q799.217 1522.85 799.217 1531.6 Q799.217 1540.33 796.138 1544.94 Q793.083 1549.52 787.273 1549.52 Q781.462 1549.52 778.384 1544.94 Q775.328 1540.33 775.328 1531.6 Q775.328 1522.85 778.384 1518.27 Q781.462 1513.66 787.273 1513.66 Z" fill="#000000" fill-rule="nonzero" fill-opacity="1" /><path clip-path="url(#clip010)" d="M1213.24 1544.91 L1220.88 1544.91 L1220.88 1518.55 L1212.57 1520.21 L1212.57 1515.95 L1220.83 1514.29 L1225.51 1514.29 L1225.51 1544.91 L1233.15 1544.91 L1233.15 1548.85 L1213.24 1548.85 L1213.24 1544.91 Z" fill="#000000" fill-rule="nonzero" fill-opacity="1" /><path clip-path="url(#clip010)" d="M1252.59 1517.37 Q1248.98 1517.37 1247.15 1520.93 Q1245.35 1524.47 1245.35 1531.6 Q1245.35 1538.71 1247.15 1542.27 Q1248.98 1545.82 1252.59 1545.82 Q1256.23 1545.82 1258.03 1542.27 Q1259.86 1538.71 1259.86 1531.6 Q1259.86 1524.47 1258.03 1520.93 Q1256.23 1517.37 1252.59 1517.37 M1252.59 1513.66 Q1258.4 1513.66 1261.46 1518.27 Q1264.54 1522.85 1264.54 1531.6 Q1264.54 1540.33 1261.46 1544.94 Q1258.4 1549.52 1252.59 1549.52 Q1246.78 1549.52 1243.7 1544.94 Q1240.65 1540.33 1240.65 1531.6 Q1240.65 1522.85 1243.7 1518.27 Q1246.78 1513.66 1252.59 1513.66 Z" fill="#000000" fill-rule="nonzero" fill-opacity="1" /><path clip-path="url(#clip010)" d="M1282.76 1517.37 Q1279.14 1517.37 1277.32 1520.93 Q1275.51 1524.47 1275.51 1531.6 Q1275.51 1538.71 1277.32 1542.27 Q1279.14 1545.82 1282.76 1545.82 Q1286.39 1545.82 1288.2 1542.27 Q1290.02 1538.71 1290.02 1531.6 Q1290.02 1524.47 1288.2 1520.93 Q1286.39 1517.37 1282.76 1517.37 M1282.76 1513.66 Q1288.57 1513.66 1291.62 1518.27 Q1294.7 1522.85 1294.7 1531.6 Q1294.7 1540.33 1291.62 1544.94 Q1288.57 1549.52 1282.76 1549.52 Q1276.95 1549.52 1273.87 1544.94 Q1270.81 1540.33 1270.81 1531.6 Q1270.81 1522.85 1273.87 1518.27 Q1276.95 1513.66 1282.76 1513.66 Z" fill="#000000" fill-rule="nonzero" fill-opacity="1" /><path clip-path="url(#clip010)" d="M1312.92 1517.37 Q1309.31 1517.37 1307.48 1520.93 Q1305.67 1524.47 1305.67 1531.6 Q1305.67 1538.71 1307.48 1542.27 Q1309.31 1545.82 1312.92 1545.82 Q1316.55 1545.82 1318.36 1542.27 Q1320.19 1538.71 1320.19 1531.6 Q1320.19 1524.47 1318.36 1520.93 Q1316.55 1517.37 1312.92 1517.37 M1312.92 1513.66 Q1318.73 1513.66 1321.78 1518.27 Q1324.86 1522.85 1324.86 1531.6 Q1324.86 1540.33 1321.78 1544.94 Q1318.73 1549.52 1312.92 1549.52 Q1307.11 1549.52 1304.03 1544.94 Q1300.97 1540.33 1300.97 1531.6 Q1300.97 1522.85 1304.03 1518.27 Q1307.11 1513.66 1312.92 1513.66 Z" fill="#000000" fill-rule="nonzero" fill-opacity="1" /><path clip-path="url(#clip010)" d="M1724.58 1544.91 L1732.22 1544.91 L1732.22 1518.55 L1723.91 1520.21 L1723.91 1515.95 L1732.17 1514.29 L1736.85 1514.29 L1736.85 1544.91 L1744.49 1544.91 L1744.49 1548.85 L1724.58 1548.85 L1724.58 1544.91 Z" fill="#000000" fill-rule="nonzero" fill-opacity="1" /><path clip-path="url(#clip010)" d="M1753.98 1514.29 L1772.34 1514.29 L1772.34 1518.22 L1758.26 1518.22 L1758.26 1526.7 Q1759.28 1526.35 1760.3 1526.19 Q1761.32 1526 1762.34 1526 Q1768.12 1526 1771.5 1529.17 Q1774.88 1532.34 1774.88 1537.76 Q1774.88 1543.34 1771.41 1546.44 Q1767.94 1549.52 1761.62 1549.52 Q1759.44 1549.52 1757.17 1549.15 Q1754.93 1548.78 1752.52 1548.04 L1752.52 1543.34 Q1754.6 1544.47 1756.83 1545.03 Q1759.05 1545.58 1761.53 1545.58 Q1765.53 1545.58 1767.87 1543.48 Q1770.21 1541.37 1770.21 1537.76 Q1770.21 1534.15 1767.87 1532.04 Q1765.53 1529.94 1761.53 1529.94 Q1759.65 1529.94 1757.78 1530.35 Q1755.92 1530.77 1753.98 1531.65 L1753.98 1514.29 Z" fill="#000000" fill-rule="nonzero" fill-opacity="1" /><path clip-path="url(#clip010)" d="M1794.1 1517.37 Q1790.48 1517.37 1788.66 1520.93 Q1786.85 1524.47 1786.85 1531.6 Q1786.85 1538.71 1788.66 1542.27 Q1790.48 1545.82 1794.1 1545.82 Q1797.73 1545.82 1799.53 1542.27 Q1801.36 1538.71 1801.36 1531.6 Q1801.36 1524.47 1799.53 1520.93 Q1797.73 1517.37 1794.1 1517.37 M1794.1 1513.66 Q1799.91 1513.66 1802.96 1518.27 Q1806.04 1522.85 1806.04 1531.6 Q1806.04 1540.33 1802.96 1544.94 Q1799.91 1549.52 1794.1 1549.52 Q1788.28 1549.52 1785.21 1544.94 Q1782.15 1540.33 1782.15 1531.6 Q1782.15 1522.85 1785.21 1518.27 Q1788.28 1513.66 1794.1 1513.66 Z" fill="#000000" fill-rule="nonzero" fill-opacity="1" /><path clip-path="url(#clip010)" d="M1824.26 1517.37 Q1820.65 1517.37 1818.82 1520.93 Q1817.01 1524.47 1817.01 1531.6 Q1817.01 1538.71 1818.82 1542.27 Q1820.65 1545.82 1824.26 1545.82 Q1827.89 1545.82 1829.7 1542.27 Q1831.53 1538.71 1831.53 1531.6 Q1831.53 1524.47 1829.7 1520.93 Q1827.89 1517.37 1824.26 1517.37 M1824.26 1513.66 Q1830.07 1513.66 1833.12 1518.27 Q1836.2 1522.85 1836.2 1531.6 Q1836.2 1540.33 1833.12 1544.94 Q1830.07 1549.52 1824.26 1549.52 Q1818.45 1549.52 1815.37 1544.94 Q1812.31 1540.33 1812.31 1531.6 Q1812.31 1522.85 1815.37 1518.27 Q1818.45 1513.66 1824.26 1513.66 Z" fill="#000000" fill-rule="nonzero" fill-opacity="1" /><path clip-path="url(#clip010)" d="M2240.01 1544.91 L2256.33 1544.91 L2256.33 1548.85 L2234.38 1548.85 L2234.38 1544.91 Q2237.04 1542.16 2241.63 1537.53 Q2246.23 1532.88 2247.41 1531.53 Q2249.66 1529.01 2250.54 1527.27 Q2251.44 1525.51 2251.44 1523.82 Q2251.44 1521.07 2249.5 1519.33 Q2247.58 1517.6 2244.47 1517.6 Q2242.28 1517.6 2239.82 1518.36 Q2237.39 1519.13 2234.61 1520.68 L2234.61 1515.95 Q2237.44 1514.82 2239.89 1514.24 Q2242.34 1513.66 2244.38 1513.66 Q2249.75 1513.66 2252.95 1516.35 Q2256.14 1519.03 2256.14 1523.52 Q2256.14 1525.65 2255.33 1527.57 Q2254.54 1529.47 2252.44 1532.07 Q2251.86 1532.74 2248.76 1535.95 Q2245.65 1539.15 2240.01 1544.91 Z" fill="#000000" fill-rule="nonzero" fill-opacity="1" /><path clip-path="url(#clip010)" d="M2276.14 1517.37 Q2272.53 1517.37 2270.7 1520.93 Q2268.9 1524.47 2268.9 1531.6 Q2268.9 1538.71 2270.7 1542.27 Q2272.53 1545.82 2276.14 1545.82 Q2279.77 1545.82 2281.58 1542.27 Q2283.41 1538.71 2283.41 1531.6 Q2283.41 1524.47 2281.58 1520.93 Q2279.77 1517.37 2276.14 1517.37 M2276.14 1513.66 Q2281.95 1513.66 2285.01 1518.27 Q2288.09 1522.85 2288.09 1531.6 Q2288.09 1540.33 2285.01 1544.94 Q2281.95 1549.52 2276.14 1549.52 Q2270.33 1549.52 2267.25 1544.94 Q2264.2 1540.33 2264.2 1531.6 Q2264.2 1522.85 2267.25 1518.27 Q2270.33 1513.66 2276.14 1513.66 Z" fill="#000000" fill-rule="nonzero" fill-opacity="1" /><path clip-path="url(#clip010)" d="M2306.3 1517.37 Q2302.69 1517.37 2300.86 1520.93 Q2299.06 1524.47 2299.06 1531.6 Q2299.06 1538.71 2300.86 1542.27 Q2302.69 1545.82 2306.3 1545.82 Q2309.94 1545.82 2311.74 1542.27 Q2313.57 1538.71 2313.57 1531.6 Q2313.57 1524.47 2311.74 1520.93 Q2309.94 1517.37 2306.3 1517.37 M2306.3 1513.66 Q2312.11 1513.66 2315.17 1518.27 Q2318.25 1522.85 2318.25 1531.6 Q2318.25 1540.33 2315.17 1544.94 Q2312.11 1549.52 2306.3 1549.52 Q2300.49 1549.52 2297.41 1544.94 Q2294.36 1540.33 2294.36 1531.6 Q2294.36 1522.85 2297.41 1518.27 Q2300.49 1513.66 2306.3 1513.66 Z" fill="#000000" fill-rule="nonzero" fill-opacity="1" /><path clip-path="url(#clip010)" d="M2336.46 1517.37 Q2332.85 1517.37 2331.02 1520.93 Q2329.22 1524.47 2329.22 1531.6 Q2329.22 1538.71 2331.02 1542.27 Q2332.85 1545.82 2336.46 1545.82 Q2340.1 1545.82 2341.9 1542.27 Q2343.73 1538.71 2343.73 1531.6 Q2343.73 1524.47 2341.9 1520.93 Q2340.1 1517.37 2336.46 1517.37 M2336.46 1513.66 Q2342.27 1513.66 2345.33 1518.27 Q2348.41 1522.85 2348.41 1531.6 Q2348.41 1540.33 2345.33 1544.94 Q2342.27 1549.52 2336.46 1549.52 Q2330.65 1549.52 2327.58 1544.94 Q2324.52 1540.33 2324.52 1531.6 Q2324.52 1522.85 2327.58 1518.27 Q2330.65 1513.66 2336.46 1513.66 Z" fill="#000000" fill-rule="nonzero" fill-opacity="1" /><polyline clip-path="url(#clip012)" style="stroke:#000000; stroke-linecap:round; stroke-linejoin:round; stroke-width:2; stroke-opacity:0.1; fill:none" points="184.677,1418 2352.76,1418 "/>
<polyline clip-path="url(#clip012)" style="stroke:#000000; stroke-linecap:round; stroke-linejoin:round; stroke-width:2; stroke-opacity:0.1; fill:none" points="184.677,1109.75 2352.76,1109.75 "/>
<polyline clip-path="url(#clip012)" style="stroke:#000000; stroke-linecap:round; stroke-linejoin:round; stroke-width:2; stroke-opacity:0.1; fill:none" points="184.677,801.494 2352.76,801.494 "/>
<polyline clip-path="url(#clip012)" style="stroke:#000000; stroke-linecap:round; stroke-linejoin:round; stroke-width:2; stroke-opacity:0.1; fill:none" points="184.677,493.241 2352.76,493.241 "/>
<polyline clip-path="url(#clip012)" style="stroke:#000000; stroke-linecap:round; stroke-linejoin:round; stroke-width:2; stroke-opacity:0.1; fill:none" points="184.677,184.989 2352.76,184.989 "/>
<polyline clip-path="url(#clip010)" style="stroke:#000000; stroke-linecap:round; stroke-linejoin:round; stroke-width:4; stroke-opacity:1; fill:none" points="184.677,1486.45 184.677,47.2441 "/>
<polyline clip-path="url(#clip010)" style="stroke:#000000; stroke-linecap:round; stroke-linejoin:round; stroke-width:4; stroke-opacity:1; fill:none" points="184.677,1418 203.574,1418 "/>
<polyline clip-path="url(#clip010)" style="stroke:#000000; stroke-linecap:round; stroke-linejoin:round; stroke-width:4; stroke-opacity:1; fill:none" points="184.677,1109.75 203.574,1109.75 "/>
<polyline clip-path="url(#clip010)" style="stroke:#000000; stroke-linecap:round; stroke-linejoin:round; stroke-width:4; stroke-opacity:1; fill:none" points="184.677,801.494 203.574,801.494 "/>
<polyline clip-path="url(#clip010)" style="stroke:#000000; stroke-linecap:round; stroke-linejoin:round; stroke-width:4; stroke-opacity:1; fill:none" points="184.677,493.241 203.574,493.241 "/>
<polyline clip-path="url(#clip010)" style="stroke:#000000; stroke-linecap:round; stroke-linejoin:round; stroke-width:4; stroke-opacity:1; fill:none" points="184.677,184.989 203.574,184.989 "/>
<path clip-path="url(#clip010)" d="M52.1495 1431.34 L59.7884 1431.34 L59.7884 1404.98 L51.4782 1406.64 L51.4782 1402.39 L59.7421 1400.72 L64.418 1400.72 L64.418 1431.34 L72.0568 1431.34 L72.0568 1435.28 L52.1495 1435.28 L52.1495 1431.34 Z" fill="#000000" fill-rule="nonzero" fill-opacity="1" /><path clip-path="url(#clip010)" d="M81.5012 1429.4 L86.3855 1429.4 L86.3855 1435.28 L81.5012 1435.28 L81.5012 1429.4 Z" fill="#000000" fill-rule="nonzero" fill-opacity="1" /><path clip-path="url(#clip010)" d="M110.737 1416.64 Q114.094 1417.36 115.969 1419.63 Q117.867 1421.9 117.867 1425.23 Q117.867 1430.35 114.348 1433.15 Q110.83 1435.95 104.348 1435.95 Q102.172 1435.95 99.8576 1435.51 Q97.566 1435.09 95.1123 1434.24 L95.1123 1429.72 Q97.0567 1430.86 99.3715 1431.44 Q101.686 1432.02 104.209 1432.02 Q108.608 1432.02 110.899 1430.28 Q113.214 1428.54 113.214 1425.23 Q113.214 1422.18 111.061 1420.46 Q108.932 1418.73 105.112 1418.73 L101.084 1418.73 L101.084 1414.89 L105.297 1414.89 Q108.746 1414.89 110.575 1413.52 Q112.404 1412.13 112.404 1409.54 Q112.404 1406.88 110.506 1405.46 Q108.631 1404.03 105.112 1404.03 Q103.191 1404.03 100.992 1404.45 Q98.7928 1404.86 96.1539 1405.74 L96.1539 1401.58 Q98.8159 1400.83 101.131 1400.46 Q103.469 1400.09 105.529 1400.09 Q110.853 1400.09 113.955 1402.52 Q117.057 1404.93 117.057 1409.05 Q117.057 1411.92 115.413 1413.91 Q113.77 1415.88 110.737 1416.64 Z" fill="#000000" fill-rule="nonzero" fill-opacity="1" /><path clip-path="url(#clip010)" d="M136.732 1403.8 Q133.121 1403.8 131.293 1407.36 Q129.487 1410.9 129.487 1418.03 Q129.487 1425.14 131.293 1428.7 Q133.121 1432.25 136.732 1432.25 Q140.367 1432.25 142.172 1428.7 Q144.001 1425.14 144.001 1418.03 Q144.001 1410.9 142.172 1407.36 Q140.367 1403.8 136.732 1403.8 M136.732 1400.09 Q142.543 1400.09 145.598 1404.7 Q148.677 1409.28 148.677 1418.03 Q148.677 1426.76 145.598 1431.37 Q142.543 1435.95 136.732 1435.95 Q130.922 1435.95 127.844 1431.37 Q124.788 1426.76 124.788 1418.03 Q124.788 1409.28 127.844 1404.7 Q130.922 1400.09 136.732 1400.09 Z" fill="#000000" fill-rule="nonzero" fill-opacity="1" /><path clip-path="url(#clip010)" d="M53.7467 1123.09 L61.3856 1123.09 L61.3856 1096.73 L53.0754 1098.39 L53.0754 1094.13 L61.3393 1092.47 L66.0152 1092.47 L66.0152 1123.09 L73.654 1123.09 L73.654 1127.03 L53.7467 1127.03 L53.7467 1123.09 Z" fill="#000000" fill-rule="nonzero" fill-opacity="1" /><path clip-path="url(#clip010)" d="M83.0984 1121.15 L87.9827 1121.15 L87.9827 1127.03 L83.0984 1127.03 L83.0984 1121.15 Z" fill="#000000" fill-rule="nonzero" fill-opacity="1" /><path clip-path="url(#clip010)" d="M112.334 1108.39 Q115.691 1109.11 117.566 1111.38 Q119.464 1113.65 119.464 1116.98 Q119.464 1122.1 115.945 1124.9 Q112.427 1127.7 105.946 1127.7 Q103.77 1127.7 101.455 1127.26 Q99.1632 1126.84 96.7095 1125.98 L96.7095 1121.47 Q98.6539 1122.61 100.969 1123.18 Q103.284 1123.76 105.807 1123.76 Q110.205 1123.76 112.496 1122.03 Q114.811 1120.29 114.811 1116.98 Q114.811 1113.92 112.658 1112.21 Q110.529 1110.48 106.709 1110.48 L102.682 1110.48 L102.682 1106.63 L106.895 1106.63 Q110.344 1106.63 112.172 1105.27 Q114.001 1103.88 114.001 1101.29 Q114.001 1098.62 112.103 1097.21 Q110.228 1095.78 106.709 1095.78 Q104.788 1095.78 102.589 1096.19 Q100.39 1096.61 97.7511 1097.49 L97.7511 1093.32 Q100.413 1092.58 102.728 1092.21 Q105.066 1091.84 107.126 1091.84 Q112.45 1091.84 115.552 1094.27 Q118.654 1096.68 118.654 1100.8 Q118.654 1103.67 117.01 1105.66 Q115.367 1107.63 112.334 1108.39 Z" fill="#000000" fill-rule="nonzero" fill-opacity="1" /><path clip-path="url(#clip010)" d="M132.357 1123.09 L148.677 1123.09 L148.677 1127.03 L126.732 1127.03 L126.732 1123.09 Q129.394 1120.34 133.978 1115.71 Q138.584 1111.05 139.765 1109.71 Q142.01 1107.19 142.89 1105.45 Q143.793 1103.69 143.793 1102 Q143.793 1099.25 141.848 1097.51 Q139.927 1095.78 136.825 1095.78 Q134.626 1095.78 132.172 1096.54 Q129.742 1097.3 126.964 1098.86 L126.964 1094.13 Q129.788 1093 132.242 1092.42 Q134.695 1091.84 136.732 1091.84 Q142.103 1091.84 145.297 1094.53 Q148.492 1097.21 148.492 1101.7 Q148.492 1103.83 147.681 1105.75 Q146.894 1107.65 144.788 1110.24 Q144.209 1110.92 141.107 1114.13 Q138.006 1117.33 132.357 1123.09 Z" fill="#000000" fill-rule="nonzero" fill-opacity="1" /><path clip-path="url(#clip010)" d="M51.6634 814.839 L59.3023 814.839 L59.3023 788.473 L50.9921 790.14 L50.9921 785.881 L59.256 784.214 L63.9319 784.214 L63.9319 814.839 L71.5707 814.839 L71.5707 818.774 L51.6634 818.774 L51.6634 814.839 Z" fill="#000000" fill-rule="nonzero" fill-opacity="1" /><path clip-path="url(#clip010)" d="M81.0151 812.894 L85.8993 812.894 L85.8993 818.774 L81.0151 818.774 L81.0151 812.894 Z" fill="#000000" fill-rule="nonzero" fill-opacity="1" /><path clip-path="url(#clip010)" d="M110.251 800.14 Q113.608 800.857 115.483 803.126 Q117.381 805.394 117.381 808.728 Q117.381 813.843 113.862 816.644 Q110.344 819.445 103.862 819.445 Q101.686 819.445 99.3715 819.005 Q97.0798 818.589 94.6262 817.732 L94.6262 813.218 Q96.5706 814.353 98.8854 814.931 Q101.2 815.51 103.723 815.51 Q108.121 815.51 110.413 813.774 Q112.728 812.038 112.728 808.728 Q112.728 805.672 110.575 803.959 Q108.446 802.223 104.626 802.223 L100.598 802.223 L100.598 798.381 L104.811 798.381 Q108.26 798.381 110.089 797.015 Q111.918 795.626 111.918 793.033 Q111.918 790.371 110.02 788.959 Q108.145 787.524 104.626 787.524 Q102.705 787.524 100.506 787.941 Q98.3067 788.357 95.6678 789.237 L95.6678 785.07 Q98.3298 784.33 100.645 783.959 Q102.983 783.589 105.043 783.589 Q110.367 783.589 113.469 786.019 Q116.57 788.427 116.57 792.547 Q116.57 795.418 114.927 797.408 Q113.283 799.376 110.251 800.14 Z" fill="#000000" fill-rule="nonzero" fill-opacity="1" /><path clip-path="url(#clip010)" d="M139.094 788.288 L127.288 806.737 L139.094 806.737 L139.094 788.288 M137.867 784.214 L143.746 784.214 L143.746 806.737 L148.677 806.737 L148.677 810.626 L143.746 810.626 L143.746 818.774 L139.094 818.774 L139.094 810.626 L123.492 810.626 L123.492 806.112 L137.867 784.214 Z" fill="#000000" fill-rule="nonzero" fill-opacity="1" /><path clip-path="url(#clip010)" d="M51.9875 506.586 L59.6263 506.586 L59.6263 480.221 L51.3162 481.887 L51.3162 477.628 L59.58 475.961 L64.2559 475.961 L64.2559 506.586 L71.8948 506.586 L71.8948 510.521 L51.9875 510.521 L51.9875 506.586 Z" fill="#000000" fill-rule="nonzero" fill-opacity="1" /><path clip-path="url(#clip010)" d="M81.3392 504.642 L86.2234 504.642 L86.2234 510.521 L81.3392 510.521 L81.3392 504.642 Z" fill="#000000" fill-rule="nonzero" fill-opacity="1" /><path clip-path="url(#clip010)" d="M110.575 491.887 Q113.932 492.605 115.807 494.873 Q117.705 497.142 117.705 500.475 Q117.705 505.591 114.186 508.392 Q110.668 511.193 104.186 511.193 Q102.01 511.193 99.6956 510.753 Q97.4039 510.336 94.9502 509.48 L94.9502 504.966 Q96.8947 506.1 99.2095 506.679 Q101.524 507.258 104.047 507.258 Q108.446 507.258 110.737 505.521 Q113.052 503.785 113.052 500.475 Q113.052 497.42 110.899 495.707 Q108.77 493.971 104.95 493.971 L100.922 493.971 L100.922 490.128 L105.135 490.128 Q108.584 490.128 110.413 488.762 Q112.242 487.373 112.242 484.781 Q112.242 482.119 110.344 480.707 Q108.469 479.272 104.95 479.272 Q103.029 479.272 100.83 479.688 Q98.6308 480.105 95.9919 480.985 L95.9919 476.818 Q98.6539 476.077 100.969 475.707 Q103.307 475.336 105.367 475.336 Q110.691 475.336 113.793 477.767 Q116.895 480.174 116.895 484.295 Q116.895 487.165 115.251 489.156 Q113.608 491.123 110.575 491.887 Z" fill="#000000" fill-rule="nonzero" fill-opacity="1" /><path clip-path="url(#clip010)" d="M137.149 491.378 Q134.001 491.378 132.149 493.531 Q130.32 495.684 130.32 499.434 Q130.32 503.16 132.149 505.336 Q134.001 507.489 137.149 507.489 Q140.297 507.489 142.126 505.336 Q143.978 503.16 143.978 499.434 Q143.978 495.684 142.126 493.531 Q140.297 491.378 137.149 491.378 M146.431 476.725 L146.431 480.985 Q144.672 480.151 142.867 479.711 Q141.084 479.272 139.325 479.272 Q134.695 479.272 132.242 482.397 Q129.811 485.522 129.464 491.841 Q130.83 489.827 132.89 488.762 Q134.95 487.674 137.427 487.674 Q142.635 487.674 145.644 490.846 Q148.677 493.994 148.677 499.434 Q148.677 504.758 145.529 507.975 Q142.381 511.193 137.149 511.193 Q131.154 511.193 127.982 506.609 Q124.811 502.003 124.811 493.276 Q124.811 485.082 128.7 480.221 Q132.589 475.336 139.14 475.336 Q140.899 475.336 142.681 475.684 Q144.487 476.031 146.431 476.725 Z" fill="#000000" fill-rule="nonzero" fill-opacity="1" /><path clip-path="url(#clip010)" d="M52.2421 198.334 L59.881 198.334 L59.881 171.968 L51.5708 173.635 L51.5708 169.376 L59.8347 167.709 L64.5106 167.709 L64.5106 198.334 L72.1494 198.334 L72.1494 202.269 L52.2421 202.269 L52.2421 198.334 Z" fill="#000000" fill-rule="nonzero" fill-opacity="1" /><path clip-path="url(#clip010)" d="M81.5938 196.389 L86.478 196.389 L86.478 202.269 L81.5938 202.269 L81.5938 196.389 Z" fill="#000000" fill-rule="nonzero" fill-opacity="1" /><path clip-path="url(#clip010)" d="M110.83 183.635 Q114.186 184.352 116.061 186.621 Q117.959 188.889 117.959 192.223 Q117.959 197.338 114.441 200.139 Q110.922 202.94 104.441 202.94 Q102.265 202.94 99.9502 202.5 Q97.6585 202.084 95.2049 201.227 L95.2049 196.713 Q97.1493 197.848 99.4641 198.426 Q101.779 199.005 104.302 199.005 Q108.7 199.005 110.992 197.269 Q113.307 195.533 113.307 192.223 Q113.307 189.167 111.154 187.454 Q109.024 185.718 105.205 185.718 L101.177 185.718 L101.177 181.875 L105.39 181.875 Q108.839 181.875 110.668 180.51 Q112.496 179.121 112.496 176.528 Q112.496 173.866 110.598 172.454 Q108.723 171.019 105.205 171.019 Q103.284 171.019 101.084 171.436 Q98.8854 171.852 96.2465 172.732 L96.2465 168.565 Q98.9085 167.825 101.223 167.454 Q103.561 167.084 105.621 167.084 Q110.946 167.084 114.047 169.514 Q117.149 171.922 117.149 176.042 Q117.149 178.913 115.506 180.903 Q113.862 182.871 110.83 183.635 Z" fill="#000000" fill-rule="nonzero" fill-opacity="1" /><path clip-path="url(#clip010)" d="M136.825 185.857 Q133.492 185.857 131.57 187.639 Q129.672 189.422 129.672 192.547 Q129.672 195.672 131.57 197.454 Q133.492 199.237 136.825 199.237 Q140.158 199.237 142.08 197.454 Q144.001 195.649 144.001 192.547 Q144.001 189.422 142.08 187.639 Q140.181 185.857 136.825 185.857 M132.149 183.866 Q129.14 183.125 127.45 181.065 Q125.783 179.005 125.783 176.042 Q125.783 171.899 128.723 169.491 Q131.686 167.084 136.825 167.084 Q141.987 167.084 144.927 169.491 Q147.867 171.899 147.867 176.042 Q147.867 179.005 146.177 181.065 Q144.51 183.125 141.524 183.866 Q144.904 184.653 146.779 186.945 Q148.677 189.237 148.677 192.547 Q148.677 197.57 145.598 200.255 Q142.543 202.94 136.825 202.94 Q131.107 202.94 128.029 200.255 Q124.973 197.57 124.973 192.547 Q124.973 189.237 126.871 186.945 Q128.769 184.653 132.149 183.866 M130.436 176.482 Q130.436 179.167 132.103 180.672 Q133.793 182.176 136.825 182.176 Q139.834 182.176 141.524 180.672 Q143.237 179.167 143.237 176.482 Q143.237 173.797 141.524 172.292 Q139.834 170.788 136.825 170.788 Q133.793 170.788 132.103 172.292 Q130.436 173.797 130.436 176.482 Z" fill="#000000" fill-rule="nonzero" fill-opacity="1" /><polyline clip-path="url(#clip012)" style="stroke:#009af9; stroke-linecap:round; stroke-linejoin:round; stroke-width:4; stroke-opacity:1; fill:none" points="246.038,87.9763 247.06,95.6714 248.083,103.322 249.106,110.928 250.128,118.49 251.151,126.009 252.174,133.484 253.196,140.915 254.219,148.304 255.242,155.65 256.264,162.953 257.287,170.214 258.31,177.433 259.332,184.61 260.355,191.746 261.378,198.84 262.4,205.893 263.423,212.906 264.446,219.877 265.468,226.809 266.491,233.7 267.514,240.552 268.536,247.364 269.559,254.136 270.582,260.869 271.604,267.564 272.627,274.219 273.65,280.836 274.673,287.415 275.695,293.956 276.718,300.459 277.741,306.924 278.763,313.352 279.786,319.743 280.809,326.097 281.831,332.414 282.854,338.694 283.877,344.938 284.899,351.147 285.922,357.319 286.945,363.456 287.967,369.557 288.99,375.623 290.013,381.654 291.035,387.65 292.058,393.611 293.081,399.538 294.103,405.431 295.126,411.29 296.149,417.114 297.171,422.906 298.194,428.664 299.217,434.388 300.239,440.08 301.262,445.738 302.285,451.364 303.308,456.958 304.33,462.519 305.353,468.049 306.376,473.546 307.398,479.012 308.421,484.446 309.444,489.848 310.466,495.22 311.489,500.561 312.512,505.871 313.534,511.15 314.557,516.399 315.58,521.617 316.602,526.806 317.625,531.965 318.648,537.093 319.67,542.193 320.693,547.263 321.716,552.304 322.738,557.315 323.761,562.298 324.784,567.253 325.806,572.178 326.829,577.076 327.852,581.945 328.875,586.786 329.897,591.6 330.92,596.385 331.943,601.143 332.965,605.874 333.988,610.578 335.011,615.254 336.033,619.904 337.056,624.527 338.079,629.123 339.101,633.693 340.124,638.237 341.147,642.754 342.169,647.246 343.192,651.712 344.215,656.152 345.237,660.567 346.26,664.956 347.283,669.32 348.305,673.659 349.328,677.974 350.351,682.263 351.373,686.528 352.396,690.768 353.419,694.984 354.441,699.176 355.464,703.344 356.487,707.488 357.51,711.608 358.532,715.705 359.555,719.778 360.578,723.828 361.6,727.854 362.623,731.858 363.646,735.838 364.668,739.796 365.691,743.731 366.714,747.644 367.736,751.534 368.759,755.402 369.782,759.248 370.804,763.072 371.827,766.874 372.85,770.654 373.872,774.412 374.895,778.149 375.918,781.865 376.94,785.56 377.963,789.233 378.986,792.885 380.008,796.517 381.031,800.128 382.054,803.718 383.076,807.287 384.099,810.837 385.122,814.366 386.145,817.874 387.167,821.363 388.19,824.832 389.213,828.281 390.235,831.711 391.258,835.121 392.281,838.511 393.303,841.882 394.326,845.234 395.349,848.567 396.371,851.88 397.394,855.175 398.417,858.451 399.439,861.709 400.462,864.948 401.485,868.168 402.507,871.37 403.53,874.554 404.553,877.72 405.575,880.868 406.598,883.998 407.621,887.11 408.643,890.204 409.666,893.281 410.689,896.34 411.711,899.382 412.734,902.406 413.757,905.414 414.78,908.404 415.802,911.377 416.825,914.334 417.848,917.273 418.87,920.196 419.893,923.102 420.916,925.992 421.938,928.866 422.961,931.723 423.984,934.564 425.006,937.388 426.029,940.197 427.052,942.99 428.074,945.767 429.097,948.528 430.12,951.274 431.142,954.004 432.165,956.718 433.188,959.417 434.21,962.101 435.233,964.77 436.256,967.423 437.278,970.062 438.301,972.685 439.324,975.294 440.346,977.888 441.369,980.467 442.392,983.032 443.415,985.582 444.437,988.118 445.46,990.639 446.483,993.146 447.505,995.639 448.528,998.118 449.551,1000.58 450.573,1003.03 451.596,1005.47 452.619,1007.89 453.641,1010.3 454.664,1012.7 455.687,1015.08 456.709,1017.45 457.732,1019.81 458.755,1022.15 459.777,1024.48 460.8,1026.8 461.823,1029.1 462.845,1031.39 463.868,1033.67 464.891,1035.93 465.913,1038.18 466.936,1040.42 467.959,1042.65 468.982,1044.86 470.004,1047.06 471.027,1049.25 472.05,1051.43 473.072,1053.59 474.095,1055.74 475.118,1057.88 476.14,1060.01 477.163,1062.13 478.186,1064.23 479.208,1066.32 480.231,1068.4 481.254,1070.47 482.276,1072.53 483.299,1074.57 484.322,1076.61 485.344,1078.63 486.367,1080.64 487.39,1082.64 488.412,1084.63 489.435,1086.61 490.458,1088.57 491.48,1090.53 492.503,1092.47 493.526,1094.41 494.548,1096.33 495.571,1098.24 496.594,1100.14 497.617,1102.03 498.639,1103.91 499.662,1105.78 500.685,1107.64 501.707,1109.49 502.73,1111.33 503.753,1113.16 504.775,1114.97 505.798,1116.78 506.821,1118.58 507.843,1120.37 508.866,1122.14 509.889,1123.91 510.911,1125.67 511.934,1127.42 512.957,1129.15 513.979,1130.88 515.002,1132.6 516.025,1134.31 517.047,1136.01 518.07,1137.7 519.093,1139.38 520.115,1141.05 521.138,1142.71 522.161,1144.36 523.183,1146.01 524.206,1147.64 525.229,1149.26 526.252,1150.88 527.274,1152.49 528.297,1154.08 529.32,1155.67 530.342,1157.25 531.365,1158.82 532.388,1160.39 533.41,1161.94 534.433,1163.49 535.456,1165.02 536.478,1166.55 537.501,1168.07 538.524,1169.58 539.546,1171.08 540.569,1172.58 541.592,1174.06 542.614,1175.54 543.637,1177.01 544.66,1178.47 545.682,1179.92 546.705,1181.37 547.728,1182.8 548.75,1184.23 549.773,1185.65 550.796,1187.07 551.818,1188.47 552.841,1189.87 553.864,1191.26 554.887,1192.64 555.909,1194.02 556.932,1195.38 557.955,1196.74 558.977,1198.09 560,1199.44 561.023,1200.77 562.045,1202.1 563.068,1203.42 564.091,1204.74 565.113,1206.05 566.136,1207.34 567.159,1208.64 568.181,1209.92 569.204,1211.2 570.227,1212.47 571.249,1213.74 572.272,1214.99 573.295,1216.24 574.317,1217.49 575.34,1218.72 576.363,1219.95 577.385,1221.18 578.408,1222.39 579.431,1223.6 580.453,1224.8 581.476,1226 582.499,1227.19 583.522,1228.37 584.544,1229.55 585.567,1230.72 586.59,1231.88 587.612,1233.04 588.635,1234.19 589.658,1235.33 590.68,1236.47 591.703,1237.6 592.726,1238.73 593.748,1239.84 594.771,1240.96 595.794,1242.06 596.816,1243.16 597.839,1244.26 598.862,1245.35 599.884,1246.43 600.907,1247.51 601.93,1248.58 602.952,1249.64 603.975,1250.7 604.998,1251.75 606.02,1252.8 607.043,1253.84 608.066,1254.88 609.089,1255.91 610.111,1256.93 611.134,1257.95 612.157,1258.96 613.179,1259.97 614.202,1260.97 615.225,1261.97 616.247,1262.96 617.27,1263.94 618.293,1264.92 619.315,1265.9 620.338,1266.87 621.361,1267.83 622.383,1268.79 623.406,1269.74 624.429,1270.69 625.451,1271.63 626.474,1272.57 627.497,1273.5 628.519,1274.43 629.542,1275.35 630.565,1276.27 631.587,1277.18 632.61,1278.09 633.633,1278.99 634.655,1279.89 635.678,1280.78 636.701,1281.67 637.724,1282.55 638.746,1283.43 639.769,1284.3 640.792,1285.17 641.814,1286.03 642.837,1286.89 643.86,1287.74 644.882,1288.59 645.905,1289.44 646.928,1290.28 647.95,1291.11 648.973,1291.94 649.996,1292.77 651.018,1293.59 652.041,1294.41 653.064,1295.22 654.086,1296.03 655.109,1296.83 656.132,1297.63 657.154,1298.43 658.177,1299.22 659.2,1300 660.222,1300.79 661.245,1301.56 662.268,1302.34 663.29,1303.11 664.313,1303.87 665.336,1304.63 666.359,1305.39 667.381,1306.14 668.404,1306.89 669.427,1307.63 670.449,1308.37 671.472,1309.11 672.495,1309.84 673.517,1310.57 674.54,1311.3 675.563,1312.02 676.585,1312.73 677.608,1313.44 678.631,1314.15 679.653,1314.86 680.676,1315.56 681.699,1316.26 682.721,1316.95 683.744,1317.64 684.767,1318.32 685.789,1319.01 686.812,1319.68 687.835,1320.36 688.857,1321.03 689.88,1321.7 690.903,1322.36 691.925,1323.02 692.948,1323.68 693.971,1324.33 694.994,1324.98 696.016,1325.62 697.039,1326.27 698.062,1326.91 699.084,1327.54 700.107,1328.17 701.13,1328.8 702.152,1329.43 703.175,1330.05 704.198,1330.67 705.22,1331.28 706.243,1331.89 707.266,1332.5 708.288,1333.1 709.311,1333.71 710.334,1334.3 711.356,1334.9 712.379,1335.49 713.402,1336.08 714.424,1336.66 715.447,1337.25 716.47,1337.83 717.492,1338.4 718.515,1338.97 719.538,1339.54 720.56,1340.11 721.583,1340.67 722.606,1341.23 723.629,1341.79 724.651,1342.35 725.674,1342.9 726.697,1343.45 727.719,1343.99 728.742,1344.53 729.765,1345.07 730.787,1345.61 731.81,1346.14 732.833,1346.67 733.855,1347.2 734.878,1347.73 735.901,1348.25 736.923,1348.77 737.946,1349.28 738.969,1349.8 739.991,1350.31 741.014,1350.82 742.037,1351.32 743.059,1351.83 744.082,1352.33 745.105,1352.82 746.127,1353.32 747.15,1353.81 748.173,1354.3 749.196,1354.78 750.218,1355.27 751.241,1355.75 752.264,1356.23 753.286,1356.7 754.309,1357.18 755.332,1357.65 756.354,1358.12 757.377,1358.58 758.4,1359.05 759.422,1359.51 760.445,1359.97 761.468,1360.42 762.49,1360.88 763.513,1361.33 764.536,1361.78 765.558,1362.22 766.581,1362.67 767.604,1363.11 768.626,1363.55 769.649,1363.98 770.672,1364.42 771.694,1364.85 772.717,1365.28 773.74,1365.71 774.762,1366.13 775.785,1366.55 776.808,1366.97 777.831,1367.39 778.853,1367.81 779.876,1368.22 780.899,1368.63 781.921,1369.04 782.944,1369.45 783.967,1369.85 784.989,1370.26 786.012,1370.66 787.035,1371.05 788.057,1371.45 789.08,1371.84 790.103,1372.24 791.125,1372.63 792.148,1373.01 793.171,1373.4 794.193,1373.78 795.216,1374.16 796.239,1374.54 797.261,1374.92 798.284,1375.3 799.307,1375.67 800.329,1376.04 801.352,1376.41 802.375,1376.78 803.397,1377.14 804.42,1377.51 805.443,1377.87 806.466,1378.23 807.488,1378.58 808.511,1378.94 809.534,1379.29 810.556,1379.65 811.579,1380 812.602,1380.34 813.624,1380.69 814.647,1381.03 815.67,1381.38 816.692,1381.72 817.715,1382.06 818.738,1382.39 819.76,1382.73 820.783,1383.06 821.806,1383.39 822.828,1383.72 823.851,1384.05 824.874,1384.38 825.896,1384.7 826.919,1385.02 827.942,1385.35 828.964,1385.66 829.987,1385.98 831.01,1386.3 832.032,1386.61 833.055,1386.93 834.078,1387.24 835.101,1387.55 836.123,1387.85 837.146,1388.16 838.169,1388.46 839.191,1388.77 840.214,1389.07 841.237,1389.37 842.259,1389.66 843.282,1389.96 844.305,1390.25 845.327,1390.55 846.35,1390.84 847.373,1391.13 848.395,1391.42 849.418,1391.7 850.441,1391.99 851.463,1392.27 852.486,1392.56 853.509,1392.84 854.531,1393.11 855.554,1393.39 856.577,1393.67 857.599,1393.94 858.622,1394.22 859.645,1394.49 860.667,1394.76 861.69,1395.03 862.713,1395.3 863.736,1395.56 864.758,1395.83 865.781,1396.09 866.804,1396.35 867.826,1396.61 868.849,1396.87 869.872,1397.13 870.894,1397.38 871.917,1397.64 872.94,1397.89 873.962,1398.15 874.985,1398.4 876.008,1398.65 877.03,1398.89 878.053,1399.14 879.076,1399.39 880.098,1399.63 881.121,1399.87 882.144,1400.11 883.166,1400.36 884.189,1400.59 885.212,1400.83 886.234,1401.07 887.257,1401.3 888.28,1401.54 889.303,1401.77 890.325,1402 891.348,1402.23 892.371,1402.46 893.393,1402.69 894.416,1402.92 895.439,1403.14 896.461,1403.37 897.484,1403.59 898.507,1403.81 899.529,1404.03 900.552,1404.25 901.575,1404.47 902.597,1404.69 903.62,1404.9 904.643,1405.12 905.665,1405.33 906.688,1405.54 907.711,1405.75 908.733,1405.96 909.756,1406.17 910.779,1406.38 911.801,1406.59 912.824,1406.79 913.847,1407 914.869,1407.2 915.892,1407.41 916.915,1407.61 917.938,1407.81 918.96,1408.01 919.983,1408.2 921.006,1408.4 922.028,1408.6 923.051,1408.79 924.074,1408.99 925.096,1409.18 926.119,1409.37 927.142,1409.56 928.164,1409.75 929.187,1409.94 930.21,1410.13 931.232,1410.32 932.255,1410.5 933.278,1410.69 934.3,1410.87 935.323,1411.06 936.346,1411.24 937.368,1411.42 938.391,1411.6 939.414,1411.78 940.436,1411.96 941.459,1412.13 942.482,1412.31 943.504,1412.49 944.527,1412.66 945.55,1412.83 946.573,1413.01 947.595,1413.18 948.618,1413.35 949.641,1413.52 950.663,1413.69 951.686,1413.86 952.709,1414.02 953.731,1414.19 954.754,1414.36 955.777,1414.52 956.799,1414.68 957.822,1414.85 958.845,1415.01 959.867,1415.17 960.89,1415.33 961.913,1415.49 962.935,1415.65 963.958,1415.81 964.981,1415.96 966.003,1416.12 967.026,1416.27 968.049,1416.43 969.071,1416.58 970.094,1416.73 971.117,1416.89 972.139,1417.04 973.162,1417.19 974.185,1417.34 975.208,1417.49 976.23,1417.63 977.253,1417.78 978.276,1417.93 979.298,1418.07 980.321,1418.22 981.344,1418.36 982.366,1418.51 983.389,1418.65 984.412,1418.79 985.434,1418.93 986.457,1419.07 987.48,1419.21 988.502,1419.35 989.525,1419.49 990.548,1419.63 991.57,1419.76 992.593,1419.9 993.616,1420.03 994.638,1420.17 995.661,1420.3 996.684,1420.44 997.706,1420.57 998.729,1420.7 999.752,1420.83 1000.77,1420.96 1001.8,1421.09 1002.82,1421.22 1003.84,1421.35 1004.87,1421.48 1005.89,1421.6 1006.91,1421.73 1007.93,1421.85 1008.96,1421.98 1009.98,1422.1 1011,1422.23 1012.02,1422.35 1013.05,1422.47 1014.07,1422.59 1015.09,1422.71 1016.11,1422.83 1017.14,1422.95 1018.16,1423.07 1019.18,1423.19 1020.21,1423.31 1021.23,1423.43 1022.25,1423.54 1023.27,1423.66 1024.3,1423.78 1025.32,1423.89 1026.34,1424 1027.36,1424.12 1028.39,1424.23 1029.41,1424.34 1030.43,1424.45 1031.45,1424.57 1032.48,1424.68 1033.5,1424.79 1034.52,1424.9 1035.55,1425 1036.57,1425.11 1037.59,1425.22 1038.61,1425.33 1039.64,1425.43 1040.66,1425.54 1041.68,1425.65 1042.7,1425.75 1043.73,1425.86 1044.75,1425.96 1045.77,1426.06 1046.8,1426.17 1047.82,1426.27 1048.84,1426.37 1049.86,1426.47 1050.89,1426.57 1051.91,1426.67 1052.93,1426.77 1053.95,1426.87 1054.98,1426.97 1056,1427.07 1057.02,1427.16 1058.04,1427.26 1059.07,1427.36 1060.09,1427.45 1061.11,1427.55 1062.14,1427.64 1063.16,1427.74 1064.18,1427.83 1065.2,1427.92 1066.23,1428.02 1067.25,1428.11 1068.27,1428.2 1069.29,1428.29 1070.32,1428.38 1071.34,1428.47 1072.36,1428.56 1073.38,1428.65 1074.41,1428.74 1075.43,1428.83 1076.45,1428.92 1077.48,1429.01 1078.5,1429.09 1079.52,1429.18 1080.54,1429.27 1081.57,1429.35 1082.59,1429.44 1083.61,1429.52 1084.63,1429.61 1085.66,1429.69 1086.68,1429.78 1087.7,1429.86 1088.72,1429.94 1089.75,1430.02 1090.77,1430.11 1091.79,1430.19 1092.82,1430.27 1093.84,1430.35 1094.86,1430.43 1095.88,1430.51 1096.91,1430.59 1097.93,1430.67 1098.95,1430.75 1099.97,1430.82 1101,1430.9 1102.02,1430.98 1103.04,1431.06 1104.07,1431.13 1105.09,1431.21 1106.11,1431.28 1107.13,1431.36 1108.16,1431.43 1109.18,1431.51 1110.2,1431.58 1111.22,1431.66 1112.25,1431.73 1113.27,1431.8 1114.29,1431.88 1115.31,1431.95 1116.34,1432.02 1117.36,1432.09 1118.38,1432.16 1119.41,1432.23 1120.43,1432.3 1121.45,1432.37 1122.47,1432.44 1123.5,1432.51 1124.52,1432.58 1125.54,1432.65 1126.56,1432.72 1127.59,1432.78 1128.61,1432.85 1129.63,1432.92 1130.65,1432.99 1131.68,1433.05 1132.7,1433.12 1133.72,1433.18 1134.75,1433.25 1135.77,1433.31 1136.79,1433.38 1137.81,1433.44 1138.84,1433.51 1139.86,1433.57 1140.88,1433.63 1141.9,1433.7 1142.93,1433.76 1143.95,1433.82 1144.97,1433.88 1145.99,1433.95 1147.02,1434.01 1148.04,1434.07 1149.06,1434.13 1150.09,1434.19 1151.11,1434.25 1152.13,1434.31 1153.15,1434.37 1154.18,1434.43 1155.2,1434.49 1156.22,1434.54 1157.24,1434.6 1158.27,1434.66 1159.29,1434.72 1160.31,1434.78 1161.34,1434.83 1162.36,1434.89 1163.38,1434.95 1164.4,1435 1165.43,1435.06 1166.45,1435.11 1167.47,1435.17 1168.49,1435.22 1169.52,1435.28 1170.54,1435.33 1171.56,1435.39 1172.58,1435.44 1173.61,1435.49 1174.63,1435.55 1175.65,1435.6 1176.68,1435.65 1177.7,1435.7 1178.72,1435.76 1179.74,1435.81 1180.77,1435.86 1181.79,1435.91 1182.81,1435.96 1183.83,1436.01 1184.86,1436.06 1185.88,1436.11 1186.9,1436.16 1187.92,1436.21 1188.95,1436.26 1189.97,1436.31 1190.99,1436.36 1192.02,1436.41 1193.04,1436.46 1194.06,1436.51 1195.08,1436.55 1196.11,1436.6 1197.13,1436.65 1198.15,1436.7 1199.17,1436.74 1200.2,1436.79 1201.22,1436.84 1202.24,1436.88 1203.26,1436.93 1204.29,1436.97 1205.31,1437.02 1206.33,1437.07 1207.36,1437.11 1208.38,1437.15 1209.4,1437.2 1210.42,1437.24 1211.45,1437.29 1212.47,1437.33 1213.49,1437.38 1214.51,1437.42 1215.54,1437.46 1216.56,1437.5 1217.58,1437.55 1218.61,1437.59 1219.63,1437.63 1220.65,1437.67 1221.67,1437.72 1222.7,1437.76 1223.72,1437.8 1224.74,1437.84 1225.76,1437.88 1226.79,1437.92 1227.81,1437.96 1228.83,1438 1229.85,1438.04 1230.88,1438.08 1231.9,1438.12 1232.92,1438.16 1233.95,1438.2 1234.97,1438.24 1235.99,1438.28 1237.01,1438.32 1238.04,1438.36 1239.06,1438.39 1240.08,1438.43 1241.1,1438.47 1242.13,1438.51 1243.15,1438.55 1244.17,1438.58 1245.19,1438.62 1246.22,1438.66 1247.24,1438.69 1248.26,1438.73 1249.29,1438.77 1250.31,1438.8 1251.33,1438.84 1252.35,1438.87 1253.38,1438.91 1254.4,1438.95 1255.42,1438.98 1256.44,1439.02 1257.47,1439.05 1258.49,1439.09 1259.51,1439.12 1260.53,1439.15 1261.56,1439.19 1262.58,1439.22 1263.6,1439.26 1264.63,1439.29 1265.65,1439.32 1266.67,1439.36 1267.69,1439.39 1268.72,1439.42 1269.74,1439.46 1270.76,1439.49 1271.78,1439.52 1272.81,1439.55 1273.83,1439.58 1274.85,1439.62 1275.88,1439.65 1276.9,1439.68 1277.92,1439.71 1278.94,1439.74 1279.97,1439.77 1280.99,1439.8 1282.01,1439.83 1283.03,1439.87 1284.06,1439.9 1285.08,1439.93 1286.1,1439.96 1287.12,1439.99 1288.15,1440.02 1289.17,1440.05 1290.19,1440.08 1291.22,1440.1 1292.24,1440.13 1293.26,1440.16 1294.28,1440.19 1295.31,1440.22 1296.33,1440.25 1297.35,1440.28 1298.37,1440.31 1299.4,1440.33 1300.42,1440.36 1301.44,1440.39 1302.46,1440.42 1303.49,1440.44 1304.51,1440.47 1305.53,1440.5 1306.56,1440.53 1307.58,1440.55 1308.6,1440.58 1309.62,1440.61 1310.65,1440.63 1311.67,1440.66 1312.69,1440.69 1313.71,1440.71 1314.74,1440.74 1315.76,1440.76 1316.78,1440.79 1317.8,1440.82 1318.83,1440.84 1319.85,1440.87 1320.87,1440.89 1321.9,1440.92 1322.92,1440.94 1323.94,1440.97 1324.96,1440.99 1325.99,1441.02 1327.01,1441.04 1328.03,1441.06 1329.05,1441.09 1330.08,1441.11 1331.1,1441.14 1332.12,1441.16 1333.15,1441.18 1334.17,1441.21 1335.19,1441.23 1336.21,1441.25 1337.24,1441.28 1338.26,1441.3 1339.28,1441.32 1340.3,1441.35 1341.33,1441.37 1342.35,1441.39 1343.37,1441.41 1344.39,1441.44 1345.42,1441.46 1346.44,1441.48 1347.46,1441.5 1348.49,1441.53 1349.51,1441.55 1350.53,1441.57 1351.55,1441.59 1352.58,1441.61 1353.6,1441.63 1354.62,1441.65 1355.64,1441.68 1356.67,1441.7 1357.69,1441.72 1358.71,1441.74 1359.73,1441.76 1360.76,1441.78 1361.78,1441.8 1362.8,1441.82 1363.83,1441.84 1364.85,1441.86 1365.87,1441.88 1366.89,1441.9 1367.92,1441.92 1368.94,1441.94 1369.96,1441.96 1370.98,1441.98 1372.01,1442 1373.03,1442.02 1374.05,1442.04 1375.07,1442.06 1376.1,1442.08 1377.12,1442.09 1378.14,1442.11 1379.17,1442.13 1380.19,1442.15 1381.21,1442.17 1382.23,1442.19 1383.26,1442.21 1384.28,1442.22 1385.3,1442.24 1386.32,1442.26 1387.35,1442.28 1388.37,1442.3 1389.39,1442.31 1390.42,1442.33 1391.44,1442.35 1392.46,1442.37 1393.48,1442.39 1394.51,1442.4 1395.53,1442.42 1396.55,1442.44 1397.57,1442.45 1398.6,1442.47 1399.62,1442.49 1400.64,1442.5 1401.66,1442.52 1402.69,1442.54 1403.71,1442.55 1404.73,1442.57 1405.76,1442.59 1406.78,1442.6 1407.8,1442.62 1408.82,1442.64 1409.85,1442.65 1410.87,1442.67 1411.89,1442.68 1412.91,1442.7 1413.94,1442.72 1414.96,1442.73 1415.98,1442.75 1417,1442.76 1418.03,1442.78 1419.05,1442.79 1420.07,1442.81 1421.1,1442.82 1422.12,1442.84 1423.14,1442.85 1424.16,1442.87 1425.19,1442.88 1426.21,1442.9 1427.23,1442.91 1428.25,1442.93 1429.28,1442.94 1430.3,1442.96 1431.32,1442.97 1432.34,1442.98 1433.37,1443 1434.39,1443.01 1435.41,1443.03 1436.44,1443.04 1437.46,1443.06 1438.48,1443.07 1439.5,1443.08 1440.53,1443.1 1441.55,1443.11 1442.57,1443.12 1443.59,1443.14 1444.62,1443.15 1445.64,1443.16 1446.66,1443.18 1447.69,1443.19 1448.71,1443.2 1449.73,1443.22 1450.75,1443.23 1451.78,1443.24 1452.8,1443.26 1453.82,1443.27 1454.84,1443.28 1455.87,1443.29 1456.89,1443.31 1457.91,1443.32 1458.93,1443.33 1459.96,1443.34 1460.98,1443.36 1462,1443.37 1463.03,1443.38 1464.05,1443.39 1465.07,1443.41 1466.09,1443.42 1467.12,1443.43 1468.14,1443.44 1469.16,1443.45 1470.18,1443.47 1471.21,1443.48 1472.23,1443.49 1473.25,1443.5 1474.27,1443.51 1475.3,1443.52 1476.32,1443.54 1477.34,1443.55 1478.37,1443.56 1479.39,1443.57 1480.41,1443.58 1481.43,1443.59 1482.46,1443.6 1483.48,1443.61 1484.5,1443.62 1485.52,1443.64 1486.55,1443.65 1487.57,1443.66 1488.59,1443.67 1489.61,1443.68 1490.64,1443.69 1491.66,1443.7 1492.68,1443.71 1493.71,1443.72 1494.73,1443.73 1495.75,1443.74 1496.77,1443.75 1497.8,1443.76 1498.82,1443.77 1499.84,1443.78 1500.86,1443.79 1501.89,1443.8 1502.91,1443.81 1503.93,1443.82 1504.96,1443.83 1505.98,1443.84 1507,1443.85 1508.02,1443.86 1509.05,1443.87 1510.07,1443.88 1511.09,1443.89 1512.11,1443.9 1513.14,1443.91 1514.16,1443.92 1515.18,1443.93 1516.2,1443.94 1517.23,1443.95 1518.25,1443.96 1519.27,1443.97 1520.3,1443.98 1521.32,1443.98 1522.34,1443.99 1523.36,1444 1524.39,1444.01 1525.41,1444.02 1526.43,1444.03 1527.45,1444.04 1528.48,1444.05 1529.5,1444.06 1530.52,1444.06 1531.54,1444.07 1532.57,1444.08 1533.59,1444.09 1534.61,1444.1 1535.64,1444.11 1536.66,1444.12 1537.68,1444.12 1538.7,1444.13 1539.73,1444.14 1540.75,1444.15 1541.77,1444.16 1542.79,1444.17 1543.82,1444.17 1544.84,1444.18 1545.86,1444.19 1546.88,1444.2 1547.91,1444.21 1548.93,1444.21 1549.95,1444.22 1550.98,1444.23 1552,1444.24 1553.02,1444.25 1554.04,1444.25 1555.07,1444.26 1556.09,1444.27 1557.11,1444.28 1558.13,1444.28 1559.16,1444.29 1560.18,1444.3 1561.2,1444.31 1562.23,1444.31 1563.25,1444.32 1564.27,1444.33 1565.29,1444.34 1566.32,1444.34 1567.34,1444.35 1568.36,1444.36 1569.38,1444.36 1570.41,1444.37 1571.43,1444.38 1572.45,1444.39 1573.47,1444.39 1574.5,1444.4 1575.52,1444.41 1576.54,1444.41 1577.57,1444.42 1578.59,1444.43 1579.61,1444.43 1580.63,1444.44 1581.66,1444.45 1582.68,1444.45 1583.7,1444.46 1584.72,1444.47 1585.75,1444.47 1586.77,1444.48 1587.79,1444.49 1588.81,1444.49 1589.84,1444.5 1590.86,1444.51 1591.88,1444.51 1592.91,1444.52 1593.93,1444.53 1594.95,1444.53 1595.97,1444.54 1597,1444.54 1598.02,1444.55 1599.04,1444.56 1600.06,1444.56 1601.09,1444.57 1602.11,1444.58 1603.13,1444.58 1604.16,1444.59 1605.18,1444.59 1606.2,1444.6 1607.22,1444.61 1608.25,1444.61 1609.27,1444.62 1610.29,1444.62 1611.31,1444.63 1612.34,1444.63 1613.36,1444.64 1614.38,1444.65 1615.4,1444.65 1616.43,1444.66 1617.45,1444.66 1618.47,1444.67 1619.5,1444.67 1620.52,1444.68 1621.54,1444.68 1622.56,1444.69 1623.59,1444.7 1624.61,1444.7 1625.63,1444.71 1626.65,1444.71 1627.68,1444.72 1628.7,1444.72 1629.72,1444.73 1630.74,1444.73 1631.77,1444.74 1632.79,1444.74 1633.81,1444.75 1634.84,1444.75 1635.86,1444.76 1636.88,1444.76 1637.9,1444.77 1638.93,1444.77 1639.95,1444.78 1640.97,1444.78 1641.99,1444.79 1643.02,1444.79 1644.04,1444.8 1645.06,1444.8 1646.08,1444.81 1647.11,1444.81 1648.13,1444.82 1649.15,1444.82 1650.18,1444.83 1651.2,1444.83 1652.22,1444.84 1653.24,1444.84 1654.27,1444.85 1655.29,1444.85 1656.31,1444.86 1657.33,1444.86 1658.36,1444.87 1659.38,1444.87 1660.4,1444.87 1661.43,1444.88 1662.45,1444.88 1663.47,1444.89 1664.49,1444.89 1665.52,1444.9 1666.54,1444.9 1667.56,1444.91 1668.58,1444.91 1669.61,1444.91 1670.63,1444.92 1671.65,1444.92 1672.67,1444.93 1673.7,1444.93 1674.72,1444.94 1675.74,1444.94 1676.77,1444.94 1677.79,1444.95 1678.81,1444.95 1679.83,1444.96 1680.86,1444.96 1681.88,1444.96 1682.9,1444.97 1683.92,1444.97 1684.95,1444.98 1685.97,1444.98 1686.99,1444.98 1688.01,1444.99 1689.04,1444.99 1690.06,1445 1691.08,1445 1692.11,1445 1693.13,1445.01 1694.15,1445.01 1695.17,1445.01 1696.2,1445.02 1697.22,1445.02 1698.24,1445.03 1699.26,1445.03 1700.29,1445.03 1701.31,1445.04 1702.33,1445.04 1703.35,1445.04 1704.38,1445.05 1705.4,1445.05 1706.42,1445.06 1707.45,1445.06 1708.47,1445.06 1709.49,1445.07 1710.51,1445.07 1711.54,1445.07 1712.56,1445.08 1713.58,1445.08 1714.6,1445.08 1715.63,1445.09 1716.65,1445.09 1717.67,1445.09 1718.7,1445.1 1719.72,1445.1 1720.74,1445.1 1721.76,1445.11 1722.79,1445.11 1723.81,1445.11 1724.83,1445.12 1725.85,1445.12 1726.88,1445.12 1727.9,1445.13 1728.92,1445.13 1729.94,1445.13 1730.97,1445.14 1731.99,1445.14 1733.01,1445.14 1734.04,1445.15 1735.06,1445.15 1736.08,1445.15 1737.1,1445.15 1738.13,1445.16 1739.15,1445.16 1740.17,1445.16 1741.19,1445.17 1742.22,1445.17 1743.24,1445.17 1744.26,1445.18 1745.28,1445.18 1746.31,1445.18 1747.33,1445.18 1748.35,1445.19 1749.38,1445.19 1750.4,1445.19 1751.42,1445.2 1752.44,1445.2 1753.47,1445.2 1754.49,1445.2 1755.51,1445.21 1756.53,1445.21 1757.56,1445.21 1758.58,1445.22 1759.6,1445.22 1760.62,1445.22 1761.65,1445.22 1762.67,1445.23 1763.69,1445.23 1764.72,1445.23 1765.74,1445.23 1766.76,1445.24 1767.78,1445.24 1768.81,1445.24 1769.83,1445.25 1770.85,1445.25 1771.87,1445.25 1772.9,1445.25 1773.92,1445.26 1774.94,1445.26 1775.97,1445.26 1776.99,1445.26 1778.01,1445.27 1779.03,1445.27 1780.06,1445.27 1781.08,1445.27 1782.1,1445.28 1783.12,1445.28 1784.15,1445.28 1785.17,1445.28 1786.19,1445.29 1787.21,1445.29 1788.24,1445.29 1789.26,1445.29 1790.28,1445.29 1791.31,1445.3 1792.33,1445.3 1793.35,1445.3 1794.37,1445.3 1795.4,1445.31 1796.42,1445.31 1797.44,1445.31 1798.46,1445.31 1799.49,1445.32 1800.51,1445.32 1801.53,1445.32 1802.55,1445.32 1803.58,1445.32 1804.6,1445.33 1805.62,1445.33 1806.65,1445.33 1807.67,1445.33 1808.69,1445.34 1809.71,1445.34 1810.74,1445.34 1811.76,1445.34 1812.78,1445.34 1813.8,1445.35 1814.83,1445.35 1815.85,1445.35 1816.87,1445.35 1817.89,1445.35 1818.92,1445.36 1819.94,1445.36 1820.96,1445.36 1821.99,1445.36 1823.01,1445.36 1824.03,1445.37 1825.05,1445.37 1826.08,1445.37 1827.1,1445.37 1828.12,1445.37 1829.14,1445.38 1830.17,1445.38 1831.19,1445.38 1832.21,1445.38 1833.24,1445.38 1834.26,1445.39 1835.28,1445.39 1836.3,1445.39 1837.33,1445.39 1838.35,1445.39 1839.37,1445.39 1840.39,1445.4 1841.42,1445.4 1842.44,1445.4 1843.46,1445.4 1844.48,1445.4 1845.51,1445.41 1846.53,1445.41 1847.55,1445.41 1848.58,1445.41 1849.6,1445.41 1850.62,1445.41 1851.64,1445.42 1852.67,1445.42 1853.69,1445.42 1854.71,1445.42 1855.73,1445.42 1856.76,1445.42 1857.78,1445.43 1858.8,1445.43 1859.82,1445.43 1860.85,1445.43 1861.87,1445.43 1862.89,1445.43 1863.92,1445.44 1864.94,1445.44 1865.96,1445.44 1866.98,1445.44 1868.01,1445.44 1869.03,1445.44 1870.05,1445.45 1871.07,1445.45 1872.1,1445.45 1873.12,1445.45 1874.14,1445.45 1875.16,1445.45 1876.19,1445.45 1877.21,1445.46 1878.23,1445.46 1879.26,1445.46 1880.28,1445.46 1881.3,1445.46 1882.32,1445.46 1883.35,1445.47 1884.37,1445.47 1885.39,1445.47 1886.41,1445.47 1887.44,1445.47 1888.46,1445.47 1889.48,1445.47 1890.51,1445.48 1891.53,1445.48 1892.55,1445.48 1893.57,1445.48 1894.6,1445.48 1895.62,1445.48 1896.64,1445.48 1897.66,1445.49 1898.69,1445.49 1899.71,1445.49 1900.73,1445.49 1901.75,1445.49 1902.78,1445.49 1903.8,1445.49 1904.82,1445.49 1905.85,1445.5 1906.87,1445.5 1907.89,1445.5 1908.91,1445.5 1909.94,1445.5 1910.96,1445.5 1911.98,1445.5 1913,1445.51 1914.03,1445.51 1915.05,1445.51 1916.07,1445.51 1917.09,1445.51 1918.12,1445.51 1919.14,1445.51 1920.16,1445.51 1921.19,1445.51 1922.21,1445.52 1923.23,1445.52 1924.25,1445.52 1925.28,1445.52 1926.3,1445.52 1927.32,1445.52 1928.34,1445.52 1929.37,1445.52 1930.39,1445.53 1931.41,1445.53 1932.43,1445.53 1933.46,1445.53 1934.48,1445.53 1935.5,1445.53 1936.53,1445.53 1937.55,1445.53 1938.57,1445.53 1939.59,1445.54 1940.62,1445.54 1941.64,1445.54 1942.66,1445.54 1943.68,1445.54 1944.71,1445.54 1945.73,1445.54 1946.75,1445.54 1947.78,1445.54 1948.8,1445.55 1949.82,1445.55 1950.84,1445.55 1951.87,1445.55 1952.89,1445.55 1953.91,1445.55 1954.93,1445.55 1955.96,1445.55 1956.98,1445.55 1958,1445.55 1959.02,1445.56 1960.05,1445.56 1961.07,1445.56 1962.09,1445.56 1963.12,1445.56 1964.14,1445.56 1965.16,1445.56 1966.18,1445.56 1967.21,1445.56 1968.23,1445.56 1969.25,1445.57 1970.27,1445.57 1971.3,1445.57 1972.32,1445.57 1973.34,1445.57 1974.36,1445.57 1975.39,1445.57 1976.41,1445.57 1977.43,1445.57 1978.46,1445.57 1979.48,1445.58 1980.5,1445.58 1981.52,1445.58 1982.55,1445.58 1983.57,1445.58 1984.59,1445.58 1985.61,1445.58 1986.64,1445.58 1987.66,1445.58 1988.68,1445.58 1989.7,1445.58 1990.73,1445.58 1991.75,1445.59 1992.77,1445.59 1993.8,1445.59 1994.82,1445.59 1995.84,1445.59 1996.86,1445.59 1997.89,1445.59 1998.91,1445.59 1999.93,1445.59 2000.95,1445.59 2001.98,1445.59 2003,1445.59 2004.02,1445.6 2005.05,1445.6 2006.07,1445.6 2007.09,1445.6 2008.11,1445.6 2009.14,1445.6 2010.16,1445.6 2011.18,1445.6 2012.2,1445.6 2013.23,1445.6 2014.25,1445.6 2015.27,1445.6 2016.29,1445.61 2017.32,1445.61 2018.34,1445.61 2019.36,1445.61 2020.39,1445.61 2021.41,1445.61 2022.43,1445.61 2023.45,1445.61 2024.48,1445.61 2025.5,1445.61 2026.52,1445.61 2027.54,1445.61 2028.57,1445.61 2029.59,1445.61 2030.61,1445.62 2031.63,1445.62 2032.66,1445.62 2033.68,1445.62 2034.7,1445.62 2035.73,1445.62 2036.75,1445.62 2037.77,1445.62 2038.79,1445.62 2039.82,1445.62 2040.84,1445.62 2041.86,1445.62 2042.88,1445.62 2043.91,1445.62 2044.93,1445.62 2045.95,1445.63 2046.97,1445.63 2048,1445.63 2049.02,1445.63 2050.04,1445.63 2051.07,1445.63 2052.09,1445.63 2053.11,1445.63 2054.13,1445.63 2055.16,1445.63 2056.18,1445.63 2057.2,1445.63 2058.22,1445.63 2059.25,1445.63 2060.27,1445.63 2061.29,1445.63 2062.32,1445.64 2063.34,1445.64 2064.36,1445.64 2065.38,1445.64 2066.41,1445.64 2067.43,1445.64 2068.45,1445.64 2069.47,1445.64 2070.5,1445.64 2071.52,1445.64 2072.54,1445.64 2073.56,1445.64 2074.59,1445.64 2075.61,1445.64 2076.63,1445.64 2077.66,1445.64 2078.68,1445.64 2079.7,1445.65 2080.72,1445.65 2081.75,1445.65 2082.77,1445.65 2083.79,1445.65 2084.81,1445.65 2085.84,1445.65 2086.86,1445.65 2087.88,1445.65 2088.9,1445.65 2089.93,1445.65 2090.95,1445.65 2091.97,1445.65 2093,1445.65 2094.02,1445.65 2095.04,1445.65 2096.06,1445.65 2097.09,1445.65 2098.11,1445.65 2099.13,1445.66 2100.15,1445.66 2101.18,1445.66 2102.2,1445.66 2103.22,1445.66 2104.24,1445.66 2105.27,1445.66 2106.29,1445.66 2107.31,1445.66 2108.34,1445.66 2109.36,1445.66 2110.38,1445.66 2111.4,1445.66 2112.43,1445.66 2113.45,1445.66 2114.47,1445.66 2115.49,1445.66 2116.52,1445.66 2117.54,1445.66 2118.56,1445.66 2119.59,1445.66 2120.61,1445.67 2121.63,1445.67 2122.65,1445.67 2123.68,1445.67 2124.7,1445.67 2125.72,1445.67 2126.74,1445.67 2127.77,1445.67 2128.79,1445.67 2129.81,1445.67 2130.83,1445.67 2131.86,1445.67 2132.88,1445.67 2133.9,1445.67 2134.93,1445.67 2135.95,1445.67 2136.97,1445.67 2137.99,1445.67 2139.02,1445.67 2140.04,1445.67 2141.06,1445.67 2142.08,1445.67 2143.11,1445.67 2144.13,1445.67 2145.15,1445.68 2146.17,1445.68 2147.2,1445.68 2148.22,1445.68 2149.24,1445.68 2150.27,1445.68 2151.29,1445.68 2152.31,1445.68 2153.33,1445.68 2154.36,1445.68 2155.38,1445.68 2156.4,1445.68 2157.42,1445.68 2158.45,1445.68 2159.47,1445.68 2160.49,1445.68 2161.51,1445.68 2162.54,1445.68 2163.56,1445.68 2164.58,1445.68 2165.61,1445.68 2166.63,1445.68 2167.65,1445.68 2168.67,1445.68 2169.7,1445.68 2170.72,1445.68 2171.74,1445.69 2172.76,1445.69 2173.79,1445.69 2174.81,1445.69 2175.83,1445.69 2176.86,1445.69 2177.88,1445.69 2178.9,1445.69 2179.92,1445.69 2180.95,1445.69 2181.97,1445.69 2182.99,1445.69 2184.01,1445.69 2185.04,1445.69 2186.06,1445.69 2187.08,1445.69 2188.1,1445.69 2189.13,1445.69 2190.15,1445.69 2191.17,1445.69 2192.2,1445.69 2193.22,1445.69 2194.24,1445.69 2195.26,1445.69 2196.29,1445.69 2197.31,1445.69 2198.33,1445.69 2199.35,1445.69 2200.38,1445.69 2201.4,1445.69 2202.42,1445.69 2203.44,1445.69 2204.47,1445.7 2205.49,1445.7 2206.51,1445.7 2207.54,1445.7 2208.56,1445.7 2209.58,1445.7 2210.6,1445.7 2211.63,1445.7 2212.65,1445.7 2213.67,1445.7 2214.69,1445.7 2215.72,1445.7 2216.74,1445.7 2217.76,1445.7 2218.78,1445.7 2219.81,1445.7 2220.83,1445.7 2221.85,1445.7 2222.88,1445.7 2223.9,1445.7 2224.92,1445.7 2225.94,1445.7 2226.97,1445.7 2227.99,1445.7 2229.01,1445.7 2230.03,1445.7 2231.06,1445.7 2232.08,1445.7 2233.1,1445.7 2234.13,1445.7 2235.15,1445.7 2236.17,1445.7 2237.19,1445.7 2238.22,1445.7 2239.24,1445.7 2240.26,1445.7 2241.28,1445.71 2242.31,1445.71 2243.33,1445.71 2244.35,1445.71 2245.37,1445.71 2246.4,1445.71 2247.42,1445.71 2248.44,1445.71 2249.47,1445.71 2250.49,1445.71 2251.51,1445.71 2252.53,1445.71 2253.56,1445.71 2254.58,1445.71 2255.6,1445.71 2256.62,1445.71 2257.65,1445.71 2258.67,1445.71 2259.69,1445.71 2260.71,1445.71 2261.74,1445.71 2262.76,1445.71 2263.78,1445.71 2264.81,1445.71 2265.83,1445.71 2266.85,1445.71 2267.87,1445.71 2268.9,1445.71 2269.92,1445.71 2270.94,1445.71 2271.96,1445.71 2272.99,1445.71 2274.01,1445.71 2275.03,1445.71 2276.05,1445.71 2277.08,1445.71 2278.1,1445.71 2279.12,1445.71 2280.15,1445.71 2281.17,1445.71 2282.19,1445.71 2283.21,1445.71 2284.24,1445.71 2285.26,1445.71 2286.28,1445.71 2287.3,1445.71 2288.33,1445.72 2289.35,1445.72 2290.37,1445.72 2291.4,1445.72 "/>
<path clip-path="url(#clip010)" d="M2011.25 198.898 L2280.49 198.898 L2280.49 95.2176 L2011.25 95.2176  Z" fill="#ffffff" fill-rule="evenodd" fill-opacity="1"/>
<polyline clip-path="url(#clip010)" style="stroke:#000000; stroke-linecap:round; stroke-linejoin:round; stroke-width:4; stroke-opacity:1; fill:none" points="2011.25,198.898 2280.49,198.898 2280.49,95.2176 2011.25,95.2176 2011.25,198.898 "/>
<polyline clip-path="url(#clip010)" style="stroke:#009af9; stroke-linecap:round; stroke-linejoin:round; stroke-width:4; stroke-opacity:1; fill:none" points="2035.34,147.058 2179.88,147.058 "/>
<path clip-path="url(#clip010)" d="M2217.81 166.745 Q2216 171.375 2214.29 172.787 Q2212.58 174.199 2209.71 174.199 L2206.3 174.199 L2206.3 170.634 L2208.8 170.634 Q2210.56 170.634 2211.54 169.8 Q2212.51 168.967 2213.69 165.865 L2214.45 163.921 L2203.97 138.412 L2208.48 138.412 L2216.58 158.689 L2224.68 138.412 L2229.2 138.412 L2217.81 166.745 Z" fill="#000000" fill-rule="nonzero" fill-opacity="1" /><path clip-path="url(#clip010)" d="M2236.49 160.402 L2244.13 160.402 L2244.13 134.037 L2235.82 135.703 L2235.82 131.444 L2244.08 129.778 L2248.76 129.778 L2248.76 160.402 L2256.4 160.402 L2256.4 164.338 L2236.49 164.338 L2236.49 160.402 Z" fill="#000000" fill-rule="nonzero" fill-opacity="1" /></svg>
