<?xml version="1.0" encoding="utf-8"?>
<svg xmlns="http://www.w3.org/2000/svg" xmlns:xlink="http://www.w3.org/1999/xlink" width="600" height="400" viewBox="0 0 2400 1600">
<defs>
  <clipPath id="clip800">
    <rect x="0" y="0" width="2400" height="1600"/>
  </clipPath>
</defs>
<path clip-path="url(#clip800)" d="M0 1600 L2400 1600 L2400 0 L0 0  Z" fill="#ffffff" fill-rule="evenodd" fill-opacity="1"/>
<defs>
  <clipPath id="clip801">
    <rect x="480" y="0" width="1681" height="1600"/>
  </clipPath>
</defs>
<path clip-path="url(#clip800)" d="M216.436 1486.45 L2352.76 1486.45 L2352.76 47.2441 L216.436 47.2441  Z" fill="#ffffff" fill-rule="evenodd" fill-opacity="1"/>
<defs>
  <clipPath id="clip802">
    <rect x="216" y="47" width="2137" height="1440"/>
  </clipPath>
</defs>
<polyline clip-path="url(#clip802)" style="stroke:#000000; stroke-linecap:round; stroke-linejoin:round; stroke-width:2; stroke-opacity:0.1; fill:none" points="276.898,1486.45 276.898,47.2441 "/>
<polyline clip-path="url(#clip802)" style="stroke:#000000; stroke-linecap:round; stroke-linejoin:round; stroke-width:2; stroke-opacity:0.1; fill:none" points="780.747,1486.45 780.747,47.2441 "/>
<polyline clip-path="url(#clip802)" style="stroke:#000000; stroke-linecap:round; stroke-linejoin:round; stroke-width:2; stroke-opacity:0.1; fill:none" points="1284.6,1486.45 1284.6,47.2441 "/>
<polyline clip-path="url(#clip802)" style="stroke:#000000; stroke-linecap:round; stroke-linejoin:round; stroke-width:2; stroke-opacity:0.1; fill:none" points="1788.44,1486.45 1788.44,47.2441 "/>
<polyline clip-path="url(#clip802)" style="stroke:#000000; stroke-linecap:round; stroke-linejoin:round; stroke-width:2; stroke-opacity:0.1; fill:none" points="2292.29,1486.45 2292.29,47.2441 "/>
<polyline clip-path="url(#clip800)" style="stroke:#000000; stroke-linecap:round; stroke-linejoin:round; stroke-width:4; stroke-opacity:1; fill:none" points="216.436,1486.45 2352.76,1486.45 "/>
<polyline clip-path="url(#clip800)" style="stroke:#000000; stroke-linecap:round; stroke-linejoin:round; stroke-width:4; stroke-opacity:1; fill:none" points="276.898,1486.45 276.898,1467.55 "/>
<polyline clip-path="url(#clip800)" style="stroke:#000000; stroke-linecap:round; stroke-linejoin:round; stroke-width:4; stroke-opacity:1; fill:none" points="780.747,1486.45 780.747,1467.55 "/>
<polyline clip-path="url(#clip800)" style="stroke:#000000; stroke-linecap:round; stroke-linejoin:round; stroke-width:4; stroke-opacity:1; fill:none" points="1284.6,1486.45 1284.6,1467.55 "/>
<polyline clip-path="url(#clip800)" style="stroke:#000000; stroke-linecap:round; stroke-linejoin:round; stroke-width:4; stroke-opacity:1; fill:none" points="1788.44,1486.45 1788.44,1467.55 "/>
<polyline clip-path="url(#clip800)" style="stroke:#000000; stroke-linecap:round; stroke-linejoin:round; stroke-width:4; stroke-opacity:1; fill:none" points="2292.29,1486.45 2292.29,1467.55 "/>
<path clip-path="url(#clip800)" d="M239.201 1517.37 Q235.59 1517.37 233.761 1520.93 Q231.956 1524.47 231.956 1531.6 Q231.956 1538.71 233.761 1542.27 Q235.59 1545.82 239.201 1545.82 Q242.835 1545.82 244.641 1542.27 Q246.47 1538.71 246.47 1531.6 Q246.47 1524.47 244.641 1520.93 Q242.835 1517.37 239.201 1517.37 M239.201 1513.66 Q245.011 1513.66 248.067 1518.27 Q251.146 1522.85 251.146 1531.6 Q251.146 1540.33 248.067 1544.94 Q245.011 1549.52 239.201 1549.52 Q233.391 1549.52 230.312 1544.94 Q227.257 1540.33 227.257 1531.6 Q227.257 1522.85 230.312 1518.27 Q233.391 1513.66 239.201 1513.66 Z" fill="#000000" fill-rule="nonzero" fill-opacity="1" /><path clip-path="url(#clip800)" d="M259.363 1542.97 L264.247 1542.97 L264.247 1548.85 L259.363 1548.85 L259.363 1542.97 Z" fill="#000000" fill-rule="nonzero" fill-opacity="1" /><path clip-path="url(#clip800)" d="M284.432 1517.37 Q280.821 1517.37 278.993 1520.93 Q277.187 1524.47 277.187 1531.6 Q277.187 1538.71 278.993 1542.27 Q280.821 1545.82 284.432 1545.82 Q288.067 1545.82 289.872 1542.27 Q291.701 1538.71 291.701 1531.6 Q291.701 1524.47 289.872 1520.93 Q288.067 1517.37 284.432 1517.37 M284.432 1513.66 Q290.243 1513.66 293.298 1518.27 Q296.377 1522.85 296.377 1531.6 Q296.377 1540.33 293.298 1544.94 Q290.243 1549.52 284.432 1549.52 Q278.622 1549.52 275.544 1544.94 Q272.488 1540.33 272.488 1531.6 Q272.488 1522.85 275.544 1518.27 Q278.622 1513.66 284.432 1513.66 Z" fill="#000000" fill-rule="nonzero" fill-opacity="1" /><path clip-path="url(#clip800)" d="M314.594 1517.37 Q310.983 1517.37 309.155 1520.93 Q307.349 1524.47 307.349 1531.6 Q307.349 1538.71 309.155 1542.27 Q310.983 1545.82 314.594 1545.82 Q318.229 1545.82 320.034 1542.27 Q321.863 1538.71 321.863 1531.6 Q321.863 1524.47 320.034 1520.93 Q318.229 1517.37 314.594 1517.37 M314.594 1513.66 Q320.404 1513.66 323.46 1518.27 Q326.539 1522.85 326.539 1531.6 Q326.539 1540.33 323.46 1544.94 Q320.404 1549.52 314.594 1549.52 Q308.784 1549.52 305.705 1544.94 Q302.65 1540.33 302.65 1531.6 Q302.65 1522.85 305.705 1518.27 Q308.784 1513.66 314.594 1513.66 Z" fill="#000000" fill-rule="nonzero" fill-opacity="1" /><path clip-path="url(#clip800)" d="M743.548 1517.37 Q739.937 1517.37 738.108 1520.93 Q736.303 1524.47 736.303 1531.6 Q736.303 1538.71 738.108 1542.27 Q739.937 1545.82 743.548 1545.82 Q747.182 1545.82 748.988 1542.27 Q750.816 1538.71 750.816 1531.6 Q750.816 1524.47 748.988 1520.93 Q747.182 1517.37 743.548 1517.37 M743.548 1513.66 Q749.358 1513.66 752.414 1518.27 Q755.492 1522.85 755.492 1531.6 Q755.492 1540.33 752.414 1544.94 Q749.358 1549.52 743.548 1549.52 Q737.738 1549.52 734.659 1544.94 Q731.604 1540.33 731.604 1531.6 Q731.604 1522.85 734.659 1518.27 Q737.738 1513.66 743.548 1513.66 Z" fill="#000000" fill-rule="nonzero" fill-opacity="1" /><path clip-path="url(#clip800)" d="M763.71 1542.97 L768.594 1542.97 L768.594 1548.85 L763.71 1548.85 L763.71 1542.97 Z" fill="#000000" fill-rule="nonzero" fill-opacity="1" /><path clip-path="url(#clip800)" d="M782.807 1544.91 L799.126 1544.91 L799.126 1548.85 L777.182 1548.85 L777.182 1544.91 Q779.844 1542.16 784.427 1537.53 Q789.034 1532.88 790.214 1531.53 Q792.46 1529.01 793.339 1527.27 Q794.242 1525.51 794.242 1523.82 Q794.242 1521.07 792.298 1519.33 Q790.376 1517.6 787.275 1517.6 Q785.076 1517.6 782.622 1518.36 Q780.191 1519.13 777.414 1520.68 L777.414 1515.95 Q780.238 1514.82 782.691 1514.24 Q785.145 1513.66 787.182 1513.66 Q792.552 1513.66 795.747 1516.35 Q798.941 1519.03 798.941 1523.52 Q798.941 1525.65 798.131 1527.57 Q797.344 1529.47 795.237 1532.07 Q794.659 1532.74 791.557 1535.95 Q788.455 1539.15 782.807 1544.91 Z" fill="#000000" fill-rule="nonzero" fill-opacity="1" /><path clip-path="url(#clip800)" d="M808.987 1514.29 L827.344 1514.29 L827.344 1518.22 L813.27 1518.22 L813.27 1526.7 Q814.288 1526.35 815.307 1526.19 Q816.325 1526 817.344 1526 Q823.131 1526 826.51 1529.17 Q829.89 1532.34 829.89 1537.76 Q829.89 1543.34 826.418 1546.44 Q822.946 1549.52 816.626 1549.52 Q814.45 1549.52 812.182 1549.15 Q809.936 1548.78 807.529 1548.04 L807.529 1543.34 Q809.612 1544.47 811.835 1545.03 Q814.057 1545.58 816.534 1545.58 Q820.538 1545.58 822.876 1543.48 Q825.214 1541.37 825.214 1537.76 Q825.214 1534.15 822.876 1532.04 Q820.538 1529.94 816.534 1529.94 Q814.659 1529.94 812.784 1530.35 Q810.932 1530.77 808.987 1531.65 L808.987 1514.29 Z" fill="#000000" fill-rule="nonzero" fill-opacity="1" /><path clip-path="url(#clip800)" d="M1246.9 1517.37 Q1243.29 1517.37 1241.46 1520.93 Q1239.65 1524.47 1239.65 1531.6 Q1239.65 1538.71 1241.46 1542.27 Q1243.29 1545.82 1246.9 1545.82 Q1250.53 1545.82 1252.34 1542.27 Q1254.17 1538.71 1254.17 1531.6 Q1254.17 1524.47 1252.34 1520.93 Q1250.53 1517.37 1246.9 1517.37 M1246.9 1513.66 Q1252.71 1513.66 1255.77 1518.27 Q1258.84 1522.85 1258.84 1531.6 Q1258.84 1540.33 1255.77 1544.94 Q1252.71 1549.52 1246.9 1549.52 Q1241.09 1549.52 1238.01 1544.94 Q1234.95 1540.33 1234.95 1531.6 Q1234.95 1522.85 1238.01 1518.27 Q1241.09 1513.66 1246.9 1513.66 Z" fill="#000000" fill-rule="nonzero" fill-opacity="1" /><path clip-path="url(#clip800)" d="M1267.06 1542.97 L1271.95 1542.97 L1271.95 1548.85 L1267.06 1548.85 L1267.06 1542.97 Z" fill="#000000" fill-rule="nonzero" fill-opacity="1" /><path clip-path="url(#clip800)" d="M1282.18 1514.29 L1300.53 1514.29 L1300.53 1518.22 L1286.46 1518.22 L1286.46 1526.7 Q1287.48 1526.35 1288.5 1526.19 Q1289.51 1526 1290.53 1526 Q1296.32 1526 1299.7 1529.17 Q1303.08 1532.34 1303.08 1537.76 Q1303.08 1543.34 1299.61 1546.44 Q1296.14 1549.52 1289.82 1549.52 Q1287.64 1549.52 1285.37 1549.15 Q1283.13 1548.78 1280.72 1548.04 L1280.72 1543.34 Q1282.8 1544.47 1285.02 1545.03 Q1287.25 1545.58 1289.72 1545.58 Q1293.73 1545.58 1296.07 1543.48 Q1298.4 1541.37 1298.4 1537.76 Q1298.4 1534.15 1296.07 1532.04 Q1293.73 1529.94 1289.72 1529.94 Q1287.85 1529.94 1285.97 1530.35 Q1284.12 1530.77 1282.18 1531.65 L1282.18 1514.29 Z" fill="#000000" fill-rule="nonzero" fill-opacity="1" /><path clip-path="url(#clip800)" d="M1322.29 1517.37 Q1318.68 1517.37 1316.85 1520.93 Q1315.05 1524.47 1315.05 1531.6 Q1315.05 1538.71 1316.85 1542.27 Q1318.68 1545.82 1322.29 1545.82 Q1325.93 1545.82 1327.73 1542.27 Q1329.56 1538.71 1329.56 1531.6 Q1329.56 1524.47 1327.73 1520.93 Q1325.93 1517.37 1322.29 1517.37 M1322.29 1513.66 Q1328.1 1513.66 1331.16 1518.27 Q1334.24 1522.85 1334.24 1531.6 Q1334.24 1540.33 1331.16 1544.94 Q1328.1 1549.52 1322.29 1549.52 Q1316.48 1549.52 1313.4 1544.94 Q1310.35 1540.33 1310.35 1531.6 Q1310.35 1522.85 1313.4 1518.27 Q1316.48 1513.66 1322.29 1513.66 Z" fill="#000000" fill-rule="nonzero" fill-opacity="1" /><path clip-path="url(#clip800)" d="M1751.25 1517.37 Q1747.63 1517.37 1745.81 1520.93 Q1744 1524.47 1744 1531.6 Q1744 1538.71 1745.81 1542.27 Q1747.63 1545.82 1751.25 1545.82 Q1754.88 1545.82 1756.69 1542.27 Q1758.51 1538.71 1758.51 1531.6 Q1758.51 1524.47 1756.69 1520.93 Q1754.88 1517.37 1751.25 1517.37 M1751.25 1513.66 Q1757.06 1513.66 1760.11 1518.27 Q1763.19 1522.85 1763.19 1531.6 Q1763.19 1540.33 1760.11 1544.94 Q1757.06 1549.52 1751.25 1549.52 Q1745.44 1549.52 1742.36 1544.94 Q1739.3 1540.33 1739.3 1531.6 Q1739.3 1522.85 1742.36 1518.27 Q1745.44 1513.66 1751.25 1513.66 Z" fill="#000000" fill-rule="nonzero" fill-opacity="1" /><path clip-path="url(#clip800)" d="M1771.41 1542.97 L1776.29 1542.97 L1776.29 1548.85 L1771.41 1548.85 L1771.41 1542.97 Z" fill="#000000" fill-rule="nonzero" fill-opacity="1" /><path clip-path="url(#clip800)" d="M1785.3 1514.29 L1807.52 1514.29 L1807.52 1516.28 L1794.97 1548.85 L1790.09 1548.85 L1801.89 1518.22 L1785.3 1518.22 L1785.3 1514.29 Z" fill="#000000" fill-rule="nonzero" fill-opacity="1" /><path clip-path="url(#clip800)" d="M1816.69 1514.29 L1835.04 1514.29 L1835.04 1518.22 L1820.97 1518.22 L1820.97 1526.7 Q1821.99 1526.35 1823 1526.19 Q1824.02 1526 1825.04 1526 Q1830.83 1526 1834.21 1529.17 Q1837.59 1532.34 1837.59 1537.76 Q1837.59 1543.34 1834.12 1546.44 Q1830.64 1549.52 1824.32 1549.52 Q1822.15 1549.52 1819.88 1549.15 Q1817.63 1548.78 1815.23 1548.04 L1815.23 1543.34 Q1817.31 1544.47 1819.53 1545.03 Q1821.75 1545.58 1824.23 1545.58 Q1828.24 1545.58 1830.57 1543.48 Q1832.91 1541.37 1832.91 1537.76 Q1832.91 1534.15 1830.57 1532.04 Q1828.24 1529.94 1824.23 1529.94 Q1822.36 1529.94 1820.48 1530.35 Q1818.63 1530.77 1816.69 1531.65 L1816.69 1514.29 Z" fill="#000000" fill-rule="nonzero" fill-opacity="1" /><path clip-path="url(#clip800)" d="M2244.37 1544.91 L2252 1544.91 L2252 1518.55 L2243.69 1520.21 L2243.69 1515.95 L2251.96 1514.29 L2256.63 1514.29 L2256.63 1544.91 L2264.27 1544.91 L2264.27 1548.85 L2244.37 1548.85 L2244.37 1544.91 Z" fill="#000000" fill-rule="nonzero" fill-opacity="1" /><path clip-path="url(#clip800)" d="M2273.72 1542.97 L2278.6 1542.97 L2278.6 1548.85 L2273.72 1548.85 L2273.72 1542.97 Z" fill="#000000" fill-rule="nonzero" fill-opacity="1" /><path clip-path="url(#clip800)" d="M2298.79 1517.37 Q2295.18 1517.37 2293.35 1520.93 Q2291.54 1524.47 2291.54 1531.6 Q2291.54 1538.71 2293.35 1542.27 Q2295.18 1545.82 2298.79 1545.82 Q2302.42 1545.82 2304.23 1542.27 Q2306.06 1538.71 2306.06 1531.6 Q2306.06 1524.47 2304.23 1520.93 Q2302.42 1517.37 2298.79 1517.37 M2298.79 1513.66 Q2304.6 1513.66 2307.65 1518.27 Q2310.73 1522.85 2310.73 1531.6 Q2310.73 1540.33 2307.65 1544.94 Q2304.6 1549.52 2298.79 1549.52 Q2292.98 1549.52 2289.9 1544.94 Q2286.84 1540.33 2286.84 1531.6 Q2286.84 1522.85 2289.9 1518.27 Q2292.98 1513.66 2298.79 1513.66 Z" fill="#000000" fill-rule="nonzero" fill-opacity="1" /><path clip-path="url(#clip800)" d="M2328.95 1517.37 Q2325.34 1517.37 2323.51 1520.93 Q2321.7 1524.47 2321.7 1531.6 Q2321.7 1538.71 2323.51 1542.27 Q2325.34 1545.82 2328.95 1545.82 Q2332.58 1545.82 2334.39 1542.27 Q2336.22 1538.71 2336.22 1531.6 Q2336.22 1524.47 2334.39 1520.93 Q2332.58 1517.37 2328.95 1517.37 M2328.95 1513.66 Q2334.76 1513.66 2337.81 1518.27 Q2340.89 1522.85 2340.89 1531.6 Q2340.89 1540.33 2337.81 1544.94 Q2334.76 1549.52 2328.95 1549.52 Q2323.14 1549.52 2320.06 1544.94 Q2317 1540.33 2317 1531.6 Q2317 1522.85 2320.06 1518.27 Q2323.14 1513.66 2328.95 1513.66 Z" fill="#000000" fill-rule="nonzero" fill-opacity="1" /><polyline clip-path="url(#clip802)" style="stroke:#000000; stroke-linecap:round; stroke-linejoin:round; stroke-width:2; stroke-opacity:0.1; fill:none" points="216.436,1475.26 2352.76,1475.26 "/>
<polyline clip-path="url(#clip802)" style="stroke:#000000; stroke-linecap:round; stroke-linejoin:round; stroke-width:2; stroke-opacity:0.1; fill:none" points="216.436,1210.65 2352.76,1210.65 "/>
<polyline clip-path="url(#clip802)" style="stroke:#000000; stroke-linecap:round; stroke-linejoin:round; stroke-width:2; stroke-opacity:0.1; fill:none" points="216.436,946.036 2352.76,946.036 "/>
<polyline clip-path="url(#clip802)" style="stroke:#000000; stroke-linecap:round; stroke-linejoin:round; stroke-width:2; stroke-opacity:0.1; fill:none" points="216.436,681.423 2352.76,681.423 "/>
<polyline clip-path="url(#clip802)" style="stroke:#000000; stroke-linecap:round; stroke-linejoin:round; stroke-width:2; stroke-opacity:0.1; fill:none" points="216.436,416.809 2352.76,416.809 "/>
<polyline clip-path="url(#clip802)" style="stroke:#000000; stroke-linecap:round; stroke-linejoin:round; stroke-width:2; stroke-opacity:0.1; fill:none" points="216.436,152.196 2352.76,152.196 "/>
<polyline clip-path="url(#clip800)" style="stroke:#000000; stroke-linecap:round; stroke-linejoin:round; stroke-width:4; stroke-opacity:1; fill:none" points="216.436,1486.45 216.436,47.2441 "/>
<polyline clip-path="url(#clip800)" style="stroke:#000000; stroke-linecap:round; stroke-linejoin:round; stroke-width:4; stroke-opacity:1; fill:none" points="216.436,1475.26 235.334,1475.26 "/>
<polyline clip-path="url(#clip800)" style="stroke:#000000; stroke-linecap:round; stroke-linejoin:round; stroke-width:4; stroke-opacity:1; fill:none" points="216.436,1210.65 235.334,1210.65 "/>
<polyline clip-path="url(#clip800)" style="stroke:#000000; stroke-linecap:round; stroke-linejoin:round; stroke-width:4; stroke-opacity:1; fill:none" points="216.436,946.036 235.334,946.036 "/>
<polyline clip-path="url(#clip800)" style="stroke:#000000; stroke-linecap:round; stroke-linejoin:round; stroke-width:4; stroke-opacity:1; fill:none" points="216.436,681.423 235.334,681.423 "/>
<polyline clip-path="url(#clip800)" style="stroke:#000000; stroke-linecap:round; stroke-linejoin:round; stroke-width:4; stroke-opacity:1; fill:none" points="216.436,416.809 235.334,416.809 "/>
<polyline clip-path="url(#clip800)" style="stroke:#000000; stroke-linecap:round; stroke-linejoin:round; stroke-width:4; stroke-opacity:1; fill:none" points="216.436,152.196 235.334,152.196 "/>
<path clip-path="url(#clip800)" d="M63.9319 1461.06 Q60.3208 1461.06 58.4921 1464.63 Q56.6865 1468.17 56.6865 1475.3 Q56.6865 1482.4 58.4921 1485.97 Q60.3208 1489.51 63.9319 1489.51 Q67.5661 1489.51 69.3717 1485.97 Q71.2004 1482.4 71.2004 1475.3 Q71.2004 1468.17 69.3717 1464.63 Q67.5661 1461.06 63.9319 1461.06 M63.9319 1457.36 Q69.742 1457.36 72.7976 1461.96 Q75.8763 1466.55 75.8763 1475.3 Q75.8763 1484.02 72.7976 1488.63 Q69.742 1493.21 63.9319 1493.21 Q58.1217 1493.21 55.043 1488.63 Q51.9875 1484.02 51.9875 1475.3 Q51.9875 1466.55 55.043 1461.96 Q58.1217 1457.36 63.9319 1457.36 Z" fill="#000000" fill-rule="nonzero" fill-opacity="1" /><path clip-path="url(#clip800)" d="M84.0938 1486.66 L88.978 1486.66 L88.978 1492.54 L84.0938 1492.54 L84.0938 1486.66 Z" fill="#000000" fill-rule="nonzero" fill-opacity="1" /><path clip-path="url(#clip800)" d="M113.33 1473.91 Q116.686 1474.63 118.561 1476.89 Q120.459 1479.16 120.459 1482.5 Q120.459 1487.61 116.941 1490.41 Q113.422 1493.21 106.941 1493.21 Q104.765 1493.21 102.45 1492.77 Q100.159 1492.36 97.7048 1491.5 L97.7048 1486.99 Q99.6493 1488.12 101.964 1488.7 Q104.279 1489.28 106.802 1489.28 Q111.2 1489.28 113.492 1487.54 Q115.807 1485.81 115.807 1482.5 Q115.807 1479.44 113.654 1477.73 Q111.524 1475.99 107.705 1475.99 L103.677 1475.99 L103.677 1472.15 L107.89 1472.15 Q111.339 1472.15 113.168 1470.78 Q114.996 1469.39 114.996 1466.8 Q114.996 1464.14 113.098 1462.73 Q111.223 1461.29 107.705 1461.29 Q105.783 1461.29 103.584 1461.71 Q101.385 1462.13 98.7465 1463.01 L98.7465 1458.84 Q101.409 1458.1 103.723 1457.73 Q106.061 1457.36 108.121 1457.36 Q113.445 1457.36 116.547 1459.79 Q119.649 1462.2 119.649 1466.32 Q119.649 1469.19 118.006 1471.18 Q116.362 1473.14 113.33 1473.91 Z" fill="#000000" fill-rule="nonzero" fill-opacity="1" /><path clip-path="url(#clip800)" d="M129.464 1491.82 L129.464 1487.57 Q131.223 1488.4 133.029 1488.84 Q134.834 1489.28 136.57 1489.28 Q141.2 1489.28 143.631 1486.18 Q146.084 1483.05 146.431 1476.71 Q145.089 1478.7 143.029 1479.76 Q140.968 1480.83 138.469 1480.83 Q133.283 1480.83 130.251 1477.7 Q127.242 1474.56 127.242 1469.12 Q127.242 1463.79 130.39 1460.57 Q133.538 1457.36 138.769 1457.36 Q144.765 1457.36 147.913 1461.96 Q151.084 1466.55 151.084 1475.3 Q151.084 1483.47 147.195 1488.35 Q143.33 1493.21 136.779 1493.21 Q135.019 1493.21 133.214 1492.87 Q131.408 1492.52 129.464 1491.82 M138.769 1477.17 Q141.918 1477.17 143.746 1475.02 Q145.598 1472.87 145.598 1469.12 Q145.598 1465.39 143.746 1463.24 Q141.918 1461.06 138.769 1461.06 Q135.621 1461.06 133.769 1463.24 Q131.941 1465.39 131.941 1469.12 Q131.941 1472.87 133.769 1475.02 Q135.621 1477.17 138.769 1477.17 Z" fill="#000000" fill-rule="nonzero" fill-opacity="1" /><path clip-path="url(#clip800)" d="M159.533 1457.98 L177.89 1457.98 L177.89 1461.92 L163.816 1461.92 L163.816 1470.39 Q164.834 1470.04 165.853 1469.88 Q166.871 1469.7 167.89 1469.7 Q173.677 1469.7 177.056 1472.87 Q180.436 1476.04 180.436 1481.45 Q180.436 1487.03 176.964 1490.13 Q173.491 1493.21 167.172 1493.21 Q164.996 1493.21 162.728 1492.84 Q160.482 1492.47 158.075 1491.73 L158.075 1487.03 Q160.158 1488.17 162.38 1488.72 Q164.603 1489.28 167.079 1489.28 Q171.084 1489.28 173.422 1487.17 Q175.76 1485.07 175.76 1481.45 Q175.76 1477.84 173.422 1475.74 Q171.084 1473.63 167.079 1473.63 Q165.204 1473.63 163.329 1474.05 Q161.478 1474.46 159.533 1475.34 L159.533 1457.98 Z" fill="#000000" fill-rule="nonzero" fill-opacity="1" /><path clip-path="url(#clip800)" d="M62.9365 1196.45 Q59.3254 1196.45 57.4967 1200.01 Q55.6912 1203.55 55.6912 1210.68 Q55.6912 1217.79 57.4967 1221.35 Q59.3254 1224.9 62.9365 1224.9 Q66.5707 1224.9 68.3763 1221.35 Q70.205 1217.79 70.205 1210.68 Q70.205 1203.55 68.3763 1200.01 Q66.5707 1196.45 62.9365 1196.45 M62.9365 1192.74 Q68.7467 1192.74 71.8022 1197.35 Q74.8809 1201.93 74.8809 1210.68 Q74.8809 1219.41 71.8022 1224.02 Q68.7467 1228.6 62.9365 1228.6 Q57.1264 1228.6 54.0477 1224.02 Q50.9921 1219.41 50.9921 1210.68 Q50.9921 1201.93 54.0477 1197.35 Q57.1264 1192.74 62.9365 1192.74 Z" fill="#000000" fill-rule="nonzero" fill-opacity="1" /><path clip-path="url(#clip800)" d="M83.0984 1222.05 L87.9827 1222.05 L87.9827 1227.93 L83.0984 1227.93 L83.0984 1222.05 Z" fill="#000000" fill-rule="nonzero" fill-opacity="1" /><path clip-path="url(#clip800)" d="M111.015 1197.44 L99.2095 1215.89 L111.015 1215.89 L111.015 1197.44 M109.788 1193.37 L115.668 1193.37 L115.668 1215.89 L120.598 1215.89 L120.598 1219.78 L115.668 1219.78 L115.668 1227.93 L111.015 1227.93 L111.015 1219.78 L95.4132 1219.78 L95.4132 1215.27 L109.788 1193.37 Z" fill="#000000" fill-rule="nonzero" fill-opacity="1" /><path clip-path="url(#clip800)" d="M138.33 1196.45 Q134.719 1196.45 132.89 1200.01 Q131.084 1203.55 131.084 1210.68 Q131.084 1217.79 132.89 1221.35 Q134.719 1224.9 138.33 1224.9 Q141.964 1224.9 143.769 1221.35 Q145.598 1217.79 145.598 1210.68 Q145.598 1203.55 143.769 1200.01 Q141.964 1196.45 138.33 1196.45 M138.33 1192.74 Q144.14 1192.74 147.195 1197.35 Q150.274 1201.93 150.274 1210.68 Q150.274 1219.41 147.195 1224.02 Q144.14 1228.6 138.33 1228.6 Q132.519 1228.6 129.441 1224.02 Q126.385 1219.41 126.385 1210.68 Q126.385 1201.93 129.441 1197.35 Q132.519 1192.74 138.33 1192.74 Z" fill="#000000" fill-rule="nonzero" fill-opacity="1" /><path clip-path="url(#clip800)" d="M168.491 1196.45 Q164.88 1196.45 163.052 1200.01 Q161.246 1203.55 161.246 1210.68 Q161.246 1217.79 163.052 1221.35 Q164.88 1224.9 168.491 1224.9 Q172.126 1224.9 173.931 1221.35 Q175.76 1217.79 175.76 1210.68 Q175.76 1203.55 173.931 1200.01 Q172.126 1196.45 168.491 1196.45 M168.491 1192.74 Q174.302 1192.74 177.357 1197.35 Q180.436 1201.93 180.436 1210.68 Q180.436 1219.41 177.357 1224.02 Q174.302 1228.6 168.491 1228.6 Q162.681 1228.6 159.603 1224.02 Q156.547 1219.41 156.547 1210.68 Q156.547 1201.93 159.603 1197.35 Q162.681 1192.74 168.491 1192.74 Z" fill="#000000" fill-rule="nonzero" fill-opacity="1" /><path clip-path="url(#clip800)" d="M63.9319 931.834 Q60.3208 931.834 58.4921 935.399 Q56.6865 938.941 56.6865 946.07 Q56.6865 953.177 58.4921 956.742 Q60.3208 960.283 63.9319 960.283 Q67.5661 960.283 69.3717 956.742 Q71.2004 953.177 71.2004 946.07 Q71.2004 938.941 69.3717 935.399 Q67.5661 931.834 63.9319 931.834 M63.9319 928.131 Q69.742 928.131 72.7976 932.737 Q75.8763 937.321 75.8763 946.07 Q75.8763 954.797 72.7976 959.404 Q69.742 963.987 63.9319 963.987 Q58.1217 963.987 55.043 959.404 Q51.9875 954.797 51.9875 946.07 Q51.9875 937.321 55.043 932.737 Q58.1217 928.131 63.9319 928.131 Z" fill="#000000" fill-rule="nonzero" fill-opacity="1" /><path clip-path="url(#clip800)" d="M84.0938 957.436 L88.978 957.436 L88.978 963.316 L84.0938 963.316 L84.0938 957.436 Z" fill="#000000" fill-rule="nonzero" fill-opacity="1" /><path clip-path="url(#clip800)" d="M112.01 932.83 L100.205 951.279 L112.01 951.279 L112.01 932.83 M110.783 928.756 L116.663 928.756 L116.663 951.279 L121.594 951.279 L121.594 955.168 L116.663 955.168 L116.663 963.316 L112.01 963.316 L112.01 955.168 L96.4085 955.168 L96.4085 950.654 L110.783 928.756 Z" fill="#000000" fill-rule="nonzero" fill-opacity="1" /><path clip-path="url(#clip800)" d="M139.325 931.834 Q135.714 931.834 133.885 935.399 Q132.08 938.941 132.08 946.07 Q132.08 953.177 133.885 956.742 Q135.714 960.283 139.325 960.283 Q142.959 960.283 144.765 956.742 Q146.593 953.177 146.593 946.07 Q146.593 938.941 144.765 935.399 Q142.959 931.834 139.325 931.834 M139.325 928.131 Q145.135 928.131 148.191 932.737 Q151.269 937.321 151.269 946.07 Q151.269 954.797 148.191 959.404 Q145.135 963.987 139.325 963.987 Q133.515 963.987 130.436 959.404 Q127.381 954.797 127.381 946.07 Q127.381 937.321 130.436 932.737 Q133.515 928.131 139.325 928.131 Z" fill="#000000" fill-rule="nonzero" fill-opacity="1" /><path clip-path="url(#clip800)" d="M159.533 928.756 L177.89 928.756 L177.89 932.691 L163.816 932.691 L163.816 941.163 Q164.834 940.816 165.853 940.654 Q166.871 940.469 167.89 940.469 Q173.677 940.469 177.056 943.64 Q180.436 946.811 180.436 952.228 Q180.436 957.807 176.964 960.908 Q173.491 963.987 167.172 963.987 Q164.996 963.987 162.728 963.617 Q160.482 963.246 158.075 962.506 L158.075 957.807 Q160.158 958.941 162.38 959.496 Q164.603 960.052 167.079 960.052 Q171.084 960.052 173.422 957.945 Q175.76 955.839 175.76 952.228 Q175.76 948.617 173.422 946.51 Q171.084 944.404 167.079 944.404 Q165.204 944.404 163.329 944.821 Q161.478 945.237 159.533 946.117 L159.533 928.756 Z" fill="#000000" fill-rule="nonzero" fill-opacity="1" /><path clip-path="url(#clip800)" d="M62.9365 667.221 Q59.3254 667.221 57.4967 670.786 Q55.6912 674.328 55.6912 681.457 Q55.6912 688.564 57.4967 692.128 Q59.3254 695.67 62.9365 695.67 Q66.5707 695.67 68.3763 692.128 Q70.205 688.564 70.205 681.457 Q70.205 674.328 68.3763 670.786 Q66.5707 667.221 62.9365 667.221 M62.9365 663.518 Q68.7467 663.518 71.8022 668.124 Q74.8809 672.707 74.8809 681.457 Q74.8809 690.184 71.8022 694.791 Q68.7467 699.374 62.9365 699.374 Q57.1264 699.374 54.0477 694.791 Q50.9921 690.184 50.9921 681.457 Q50.9921 672.707 54.0477 668.124 Q57.1264 663.518 62.9365 663.518 Z" fill="#000000" fill-rule="nonzero" fill-opacity="1" /><path clip-path="url(#clip800)" d="M83.0984 692.823 L87.9827 692.823 L87.9827 698.703 L83.0984 698.703 L83.0984 692.823 Z" fill="#000000" fill-rule="nonzero" fill-opacity="1" /><path clip-path="url(#clip800)" d="M111.015 668.217 L99.2095 686.666 L111.015 686.666 L111.015 668.217 M109.788 664.143 L115.668 664.143 L115.668 686.666 L120.598 686.666 L120.598 690.554 L115.668 690.554 L115.668 698.703 L111.015 698.703 L111.015 690.554 L95.4132 690.554 L95.4132 686.041 L109.788 664.143 Z" fill="#000000" fill-rule="nonzero" fill-opacity="1" /><path clip-path="url(#clip800)" d="M129.14 694.767 L136.779 694.767 L136.779 668.402 L128.469 670.068 L128.469 665.809 L136.732 664.143 L141.408 664.143 L141.408 694.767 L149.047 694.767 L149.047 698.703 L129.14 698.703 L129.14 694.767 Z" fill="#000000" fill-rule="nonzero" fill-opacity="1" /><path clip-path="url(#clip800)" d="M168.491 667.221 Q164.88 667.221 163.052 670.786 Q161.246 674.328 161.246 681.457 Q161.246 688.564 163.052 692.128 Q164.88 695.67 168.491 695.67 Q172.126 695.67 173.931 692.128 Q175.76 688.564 175.76 681.457 Q175.76 674.328 173.931 670.786 Q172.126 667.221 168.491 667.221 M168.491 663.518 Q174.302 663.518 177.357 668.124 Q180.436 672.707 180.436 681.457 Q180.436 690.184 177.357 694.791 Q174.302 699.374 168.491 699.374 Q162.681 699.374 159.603 694.791 Q156.547 690.184 156.547 681.457 Q156.547 672.707 159.603 668.124 Q162.681 663.518 168.491 663.518 Z" fill="#000000" fill-rule="nonzero" fill-opacity="1" /><path clip-path="url(#clip800)" d="M63.9319 402.608 Q60.3208 402.608 58.4921 406.173 Q56.6865 409.714 56.6865 416.844 Q56.6865 423.95 58.4921 427.515 Q60.3208 431.057 63.9319 431.057 Q67.5661 431.057 69.3717 427.515 Q71.2004 423.95 71.2004 416.844 Q71.2004 409.714 69.3717 406.173 Q67.5661 402.608 63.9319 402.608 M63.9319 398.904 Q69.742 398.904 72.7976 403.511 Q75.8763 408.094 75.8763 416.844 Q75.8763 425.571 72.7976 430.177 Q69.742 434.761 63.9319 434.761 Q58.1217 434.761 55.043 430.177 Q51.9875 425.571 51.9875 416.844 Q51.9875 408.094 55.043 403.511 Q58.1217 398.904 63.9319 398.904 Z" fill="#000000" fill-rule="nonzero" fill-opacity="1" /><path clip-path="url(#clip800)" d="M84.0938 428.21 L88.978 428.21 L88.978 434.089 L84.0938 434.089 L84.0938 428.21 Z" fill="#000000" fill-rule="nonzero" fill-opacity="1" /><path clip-path="url(#clip800)" d="M112.01 403.603 L100.205 422.052 L112.01 422.052 L112.01 403.603 M110.783 399.529 L116.663 399.529 L116.663 422.052 L121.594 422.052 L121.594 425.941 L116.663 425.941 L116.663 434.089 L112.01 434.089 L112.01 425.941 L96.4085 425.941 L96.4085 421.427 L110.783 399.529 Z" fill="#000000" fill-rule="nonzero" fill-opacity="1" /><path clip-path="url(#clip800)" d="M130.135 430.154 L137.774 430.154 L137.774 403.789 L129.464 405.455 L129.464 401.196 L137.728 399.529 L142.404 399.529 L142.404 430.154 L150.043 430.154 L150.043 434.089 L130.135 434.089 L130.135 430.154 Z" fill="#000000" fill-rule="nonzero" fill-opacity="1" /><path clip-path="url(#clip800)" d="M159.533 399.529 L177.89 399.529 L177.89 403.464 L163.816 403.464 L163.816 411.937 Q164.834 411.589 165.853 411.427 Q166.871 411.242 167.89 411.242 Q173.677 411.242 177.056 414.413 Q180.436 417.585 180.436 423.001 Q180.436 428.58 176.964 431.682 Q173.491 434.761 167.172 434.761 Q164.996 434.761 162.728 434.39 Q160.482 434.02 158.075 433.279 L158.075 428.58 Q160.158 429.714 162.38 430.27 Q164.603 430.825 167.079 430.825 Q171.084 430.825 173.422 428.719 Q175.76 426.612 175.76 423.001 Q175.76 419.39 173.422 417.284 Q171.084 415.177 167.079 415.177 Q165.204 415.177 163.329 415.594 Q161.478 416.011 159.533 416.89 L159.533 399.529 Z" fill="#000000" fill-rule="nonzero" fill-opacity="1" /><path clip-path="url(#clip800)" d="M62.9365 137.995 Q59.3254 137.995 57.4967 141.56 Q55.6912 145.101 55.6912 152.231 Q55.6912 159.337 57.4967 162.902 Q59.3254 166.444 62.9365 166.444 Q66.5707 166.444 68.3763 162.902 Q70.205 159.337 70.205 152.231 Q70.205 145.101 68.3763 141.56 Q66.5707 137.995 62.9365 137.995 M62.9365 134.291 Q68.7467 134.291 71.8022 138.898 Q74.8809 143.481 74.8809 152.231 Q74.8809 160.958 71.8022 165.564 Q68.7467 170.147 62.9365 170.147 Q57.1264 170.147 54.0477 165.564 Q50.9921 160.958 50.9921 152.231 Q50.9921 143.481 54.0477 138.898 Q57.1264 134.291 62.9365 134.291 Z" fill="#000000" fill-rule="nonzero" fill-opacity="1" /><path clip-path="url(#clip800)" d="M83.0984 163.596 L87.9827 163.596 L87.9827 169.476 L83.0984 169.476 L83.0984 163.596 Z" fill="#000000" fill-rule="nonzero" fill-opacity="1" /><path clip-path="url(#clip800)" d="M111.015 138.99 L99.2095 157.439 L111.015 157.439 L111.015 138.99 M109.788 134.916 L115.668 134.916 L115.668 157.439 L120.598 157.439 L120.598 161.328 L115.668 161.328 L115.668 169.476 L111.015 169.476 L111.015 161.328 L95.4132 161.328 L95.4132 156.814 L109.788 134.916 Z" fill="#000000" fill-rule="nonzero" fill-opacity="1" /><path clip-path="url(#clip800)" d="M132.357 165.541 L148.677 165.541 L148.677 169.476 L126.732 169.476 L126.732 165.541 Q129.394 162.786 133.978 158.157 Q138.584 153.504 139.765 152.161 Q142.01 149.638 142.89 147.902 Q143.793 146.143 143.793 144.453 Q143.793 141.698 141.848 139.962 Q139.927 138.226 136.825 138.226 Q134.626 138.226 132.172 138.99 Q129.742 139.754 126.964 141.305 L126.964 136.583 Q129.788 135.448 132.242 134.87 Q134.695 134.291 136.732 134.291 Q142.103 134.291 145.297 136.976 Q148.492 139.661 148.492 144.152 Q148.492 146.282 147.681 148.203 Q146.894 150.101 144.788 152.694 Q144.209 153.365 141.107 156.583 Q138.006 159.777 132.357 165.541 Z" fill="#000000" fill-rule="nonzero" fill-opacity="1" /><path clip-path="url(#clip800)" d="M168.491 137.995 Q164.88 137.995 163.052 141.56 Q161.246 145.101 161.246 152.231 Q161.246 159.337 163.052 162.902 Q164.88 166.444 168.491 166.444 Q172.126 166.444 173.931 162.902 Q175.76 159.337 175.76 152.231 Q175.76 145.101 173.931 141.56 Q172.126 137.995 168.491 137.995 M168.491 134.291 Q174.302 134.291 177.357 138.898 Q180.436 143.481 180.436 152.231 Q180.436 160.958 177.357 165.564 Q174.302 170.147 168.491 170.147 Q162.681 170.147 159.603 165.564 Q156.547 160.958 156.547 152.231 Q156.547 143.481 159.603 138.898 Q162.681 134.291 168.491 134.291 Z" fill="#000000" fill-rule="nonzero" fill-opacity="1" /><polyline clip-path="url(#clip802)" style="stroke:#009af9; stroke-linecap:round; stroke-linejoin:round; stroke-width:4; stroke-opacity:1; fill:none" points="276.898,87.9763 2292.29,1445.72 "/>
<path clip-path="url(#clip800)" d="M2015.48 198.898 L2281.55 198.898 L2281.55 95.2176 L2015.48 95.2176  Z" fill="#ffffff" fill-rule="evenodd" fill-opacity="1"/>
<polyline clip-path="url(#clip800)" style="stroke:#000000; stroke-linecap:round; stroke-linejoin:round; stroke-width:4; stroke-opacity:1; fill:none" points="2015.48,198.898 2281.55,198.898 2281.55,95.2176 2015.48,95.2176 2015.48,198.898 "/>
<polyline clip-path="url(#clip800)" style="stroke:#009af9; stroke-linecap:round; stroke-linejoin:round; stroke-width:4; stroke-opacity:1; fill:none" points="2039.22,147.058 2181.64,147.058 "/>
<path clip-path="url(#clip800)" d="M2219.22 166.745 Q2217.42 171.375 2215.7 172.787 Q2213.99 174.199 2211.12 174.199 L2207.72 174.199 L2207.72 170.634 L2210.22 170.634 Q2211.98 170.634 2212.95 169.8 Q2213.92 168.967 2215.1 165.865 L2215.86 163.921 L2205.38 138.412 L2209.89 138.412 L2217.99 158.689 L2226.1 138.412 L2230.61 138.412 L2219.22 166.745 Z" fill="#000000" fill-rule="nonzero" fill-opacity="1" /><path clip-path="url(#clip800)" d="M2237.9 160.402 L2245.54 160.402 L2245.54 134.037 L2237.23 135.703 L2237.23 131.444 L2245.49 129.778 L2250.17 129.778 L2250.17 160.402 L2257.81 160.402 L2257.81 164.338 L2237.9 164.338 L2237.9 160.402 Z" fill="#000000" fill-rule="nonzero" fill-opacity="1" /></svg>
