<?xml version="1.0" encoding="utf-8"?>
<svg xmlns="http://www.w3.org/2000/svg" xmlns:xlink="http://www.w3.org/1999/xlink" width="600" height="400" viewBox="0 0 2400 1600">
<defs>
  <clipPath id="clip970">
    <rect x="0" y="0" width="2400" height="1600"/>
  </clipPath>
</defs>
<path clip-path="url(#clip970)" d="M0 1600 L2400 1600 L2400 0 L0 0  Z" fill="#ffffff" fill-rule="evenodd" fill-opacity="1"/>
<defs>
  <clipPath id="clip971">
    <rect x="480" y="0" width="1681" height="1600"/>
  </clipPath>
</defs>
<path clip-path="url(#clip970)" d="M172.015 1486.45 L2352.76 1486.45 L2352.76 47.2441 L172.015 47.2441  Z" fill="#ffffff" fill-rule="evenodd" fill-opacity="1"/>
<defs>
  <clipPath id="clip972">
    <rect x="172" y="47" width="2182" height="1440"/>
  </clipPath>
</defs>
<polyline clip-path="url(#clip972)" style="stroke:#000000; stroke-linecap:round; stroke-linejoin:round; stroke-width:2; stroke-opacity:0.1; fill:none" points="233.734,1486.45 233.734,47.2441 "/>
<polyline clip-path="url(#clip972)" style="stroke:#000000; stroke-linecap:round; stroke-linejoin:round; stroke-width:2; stroke-opacity:0.1; fill:none" points="748.06,1486.45 748.06,47.2441 "/>
<polyline clip-path="url(#clip972)" style="stroke:#000000; stroke-linecap:round; stroke-linejoin:round; stroke-width:2; stroke-opacity:0.1; fill:none" points="1262.39,1486.45 1262.39,47.2441 "/>
<polyline clip-path="url(#clip972)" style="stroke:#000000; stroke-linecap:round; stroke-linejoin:round; stroke-width:2; stroke-opacity:0.1; fill:none" points="1776.71,1486.45 1776.71,47.2441 "/>
<polyline clip-path="url(#clip972)" style="stroke:#000000; stroke-linecap:round; stroke-linejoin:round; stroke-width:2; stroke-opacity:0.1; fill:none" points="2291.04,1486.45 2291.04,47.2441 "/>
<polyline clip-path="url(#clip970)" style="stroke:#000000; stroke-linecap:round; stroke-linejoin:round; stroke-width:4; stroke-opacity:1; fill:none" points="172.015,1486.45 2352.76,1486.45 "/>
<polyline clip-path="url(#clip970)" style="stroke:#000000; stroke-linecap:round; stroke-linejoin:round; stroke-width:4; stroke-opacity:1; fill:none" points="233.734,1486.45 233.734,1467.55 "/>
<polyline clip-path="url(#clip970)" style="stroke:#000000; stroke-linecap:round; stroke-linejoin:round; stroke-width:4; stroke-opacity:1; fill:none" points="748.06,1486.45 748.06,1467.55 "/>
<polyline clip-path="url(#clip970)" style="stroke:#000000; stroke-linecap:round; stroke-linejoin:round; stroke-width:4; stroke-opacity:1; fill:none" points="1262.39,1486.45 1262.39,1467.55 "/>
<polyline clip-path="url(#clip970)" style="stroke:#000000; stroke-linecap:round; stroke-linejoin:round; stroke-width:4; stroke-opacity:1; fill:none" points="1776.71,1486.45 1776.71,1467.55 "/>
<polyline clip-path="url(#clip970)" style="stroke:#000000; stroke-linecap:round; stroke-linejoin:round; stroke-width:4; stroke-opacity:1; fill:none" points="2291.04,1486.45 2291.04,1467.55 "/>
<path clip-path="url(#clip970)" d="M233.734 1517.37 Q230.123 1517.37 228.294 1520.93 Q226.489 1524.47 226.489 1531.6 Q226.489 1538.71 228.294 1542.27 Q230.123 1545.82 233.734 1545.82 Q237.368 1545.82 239.174 1542.27 Q241.002 1538.71 241.002 1531.6 Q241.002 1524.47 239.174 1520.93 Q237.368 1517.37 233.734 1517.37 M233.734 1513.66 Q239.544 1513.66 242.6 1518.27 Q245.678 1522.85 245.678 1531.6 Q245.678 1540.33 242.6 1544.94 Q239.544 1549.52 233.734 1549.52 Q227.924 1549.52 224.845 1544.94 Q221.79 1540.33 221.79 1531.6 Q221.79 1522.85 224.845 1518.27 Q227.924 1513.66 233.734 1513.66 Z" fill="#000000" fill-rule="nonzero" fill-opacity="1" /><path clip-path="url(#clip970)" d="M707.678 1514.29 L726.034 1514.29 L726.034 1518.22 L711.96 1518.22 L711.96 1526.7 Q712.979 1526.35 713.997 1526.19 Q715.016 1526 716.034 1526 Q721.821 1526 725.201 1529.17 Q728.581 1532.34 728.581 1537.76 Q728.581 1543.34 725.108 1546.44 Q721.636 1549.52 715.317 1549.52 Q713.141 1549.52 710.872 1549.15 Q708.627 1548.78 706.22 1548.04 L706.22 1543.34 Q708.303 1544.47 710.525 1545.03 Q712.747 1545.58 715.224 1545.58 Q719.229 1545.58 721.567 1543.48 Q723.905 1541.37 723.905 1537.76 Q723.905 1534.15 721.567 1532.04 Q719.229 1529.94 715.224 1529.94 Q713.349 1529.94 711.474 1530.35 Q709.622 1530.77 707.678 1531.65 L707.678 1514.29 Z" fill="#000000" fill-rule="nonzero" fill-opacity="1" /><path clip-path="url(#clip970)" d="M747.793 1517.37 Q744.182 1517.37 742.354 1520.93 Q740.548 1524.47 740.548 1531.6 Q740.548 1538.71 742.354 1542.27 Q744.182 1545.82 747.793 1545.82 Q751.428 1545.82 753.233 1542.27 Q755.062 1538.71 755.062 1531.6 Q755.062 1524.47 753.233 1520.93 Q751.428 1517.37 747.793 1517.37 M747.793 1513.66 Q753.604 1513.66 756.659 1518.27 Q759.738 1522.85 759.738 1531.6 Q759.738 1540.33 756.659 1544.94 Q753.604 1549.52 747.793 1549.52 Q741.983 1549.52 738.905 1544.94 Q735.849 1540.33 735.849 1531.6 Q735.849 1522.85 738.905 1518.27 Q741.983 1513.66 747.793 1513.66 Z" fill="#000000" fill-rule="nonzero" fill-opacity="1" /><path clip-path="url(#clip970)" d="M777.955 1517.37 Q774.344 1517.37 772.516 1520.93 Q770.71 1524.47 770.71 1531.6 Q770.71 1538.71 772.516 1542.27 Q774.344 1545.82 777.955 1545.82 Q781.59 1545.82 783.395 1542.27 Q785.224 1538.71 785.224 1531.6 Q785.224 1524.47 783.395 1520.93 Q781.59 1517.37 777.955 1517.37 M777.955 1513.66 Q783.765 1513.66 786.821 1518.27 Q789.9 1522.85 789.9 1531.6 Q789.9 1540.33 786.821 1544.94 Q783.765 1549.52 777.955 1549.52 Q772.145 1549.52 769.066 1544.94 Q766.011 1540.33 766.011 1531.6 Q766.011 1522.85 769.066 1518.27 Q772.145 1513.66 777.955 1513.66 Z" fill="#000000" fill-rule="nonzero" fill-opacity="1" /><path clip-path="url(#clip970)" d="M1206.91 1544.91 L1214.55 1544.91 L1214.55 1518.55 L1206.24 1520.21 L1206.24 1515.95 L1214.5 1514.29 L1219.18 1514.29 L1219.18 1544.91 L1226.82 1544.91 L1226.82 1548.85 L1206.91 1548.85 L1206.91 1544.91 Z" fill="#000000" fill-rule="nonzero" fill-opacity="1" /><path clip-path="url(#clip970)" d="M1246.26 1517.37 Q1242.65 1517.37 1240.82 1520.93 Q1239.02 1524.47 1239.02 1531.6 Q1239.02 1538.71 1240.82 1542.27 Q1242.65 1545.82 1246.26 1545.82 Q1249.9 1545.82 1251.7 1542.27 Q1253.53 1538.71 1253.53 1531.6 Q1253.53 1524.47 1251.7 1520.93 Q1249.9 1517.37 1246.26 1517.37 M1246.26 1513.66 Q1252.07 1513.66 1255.13 1518.27 Q1258.21 1522.85 1258.21 1531.6 Q1258.21 1540.33 1255.13 1544.94 Q1252.07 1549.52 1246.26 1549.52 Q1240.45 1549.52 1237.37 1544.94 Q1234.32 1540.33 1234.32 1531.6 Q1234.32 1522.85 1237.37 1518.27 Q1240.45 1513.66 1246.26 1513.66 Z" fill="#000000" fill-rule="nonzero" fill-opacity="1" /><path clip-path="url(#clip970)" d="M1276.42 1517.37 Q1272.81 1517.37 1270.98 1520.93 Q1269.18 1524.47 1269.18 1531.6 Q1269.18 1538.71 1270.98 1542.27 Q1272.81 1545.82 1276.42 1545.82 Q1280.06 1545.82 1281.86 1542.27 Q1283.69 1538.71 1283.69 1531.6 Q1283.69 1524.47 1281.86 1520.93 Q1280.06 1517.37 1276.42 1517.37 M1276.42 1513.66 Q1282.23 1513.66 1285.29 1518.27 Q1288.37 1522.85 1288.37 1531.6 Q1288.37 1540.33 1285.29 1544.94 Q1282.23 1549.52 1276.42 1549.52 Q1270.61 1549.52 1267.54 1544.94 Q1264.48 1540.33 1264.48 1531.6 Q1264.48 1522.85 1267.54 1518.27 Q1270.61 1513.66 1276.42 1513.66 Z" fill="#000000" fill-rule="nonzero" fill-opacity="1" /><path clip-path="url(#clip970)" d="M1306.59 1517.37 Q1302.98 1517.37 1301.15 1520.93 Q1299.34 1524.47 1299.34 1531.6 Q1299.34 1538.71 1301.15 1542.27 Q1302.98 1545.82 1306.59 1545.82 Q1310.22 1545.82 1312.03 1542.27 Q1313.85 1538.71 1313.85 1531.6 Q1313.85 1524.47 1312.03 1520.93 Q1310.22 1517.37 1306.59 1517.37 M1306.59 1513.66 Q1312.4 1513.66 1315.45 1518.27 Q1318.53 1522.85 1318.53 1531.6 Q1318.53 1540.33 1315.45 1544.94 Q1312.4 1549.52 1306.59 1549.52 Q1300.78 1549.52 1297.7 1544.94 Q1294.64 1540.33 1294.64 1531.6 Q1294.64 1522.85 1297.7 1518.27 Q1300.78 1513.66 1306.59 1513.66 Z" fill="#000000" fill-rule="nonzero" fill-opacity="1" /><path clip-path="url(#clip970)" d="M1721.24 1544.91 L1728.88 1544.91 L1728.88 1518.55 L1720.57 1520.21 L1720.57 1515.95 L1728.83 1514.29 L1733.51 1514.29 L1733.51 1544.91 L1741.14 1544.91 L1741.14 1548.85 L1721.24 1548.85 L1721.24 1544.91 Z" fill="#000000" fill-rule="nonzero" fill-opacity="1" /><path clip-path="url(#clip970)" d="M1750.63 1514.29 L1768.99 1514.29 L1768.99 1518.22 L1754.92 1518.22 L1754.92 1526.7 Q1755.94 1526.35 1756.95 1526.19 Q1757.97 1526 1758.99 1526 Q1764.78 1526 1768.16 1529.17 Q1771.54 1532.34 1771.54 1537.76 Q1771.54 1543.34 1768.07 1546.44 Q1764.59 1549.52 1758.27 1549.52 Q1756.1 1549.52 1753.83 1549.15 Q1751.58 1548.78 1749.18 1548.04 L1749.18 1543.34 Q1751.26 1544.47 1753.48 1545.03 Q1755.7 1545.58 1758.18 1545.58 Q1762.19 1545.58 1764.52 1543.48 Q1766.86 1541.37 1766.86 1537.76 Q1766.86 1534.15 1764.52 1532.04 Q1762.19 1529.94 1758.18 1529.94 Q1756.31 1529.94 1754.43 1530.35 Q1752.58 1530.77 1750.63 1531.65 L1750.63 1514.29 Z" fill="#000000" fill-rule="nonzero" fill-opacity="1" /><path clip-path="url(#clip970)" d="M1790.75 1517.37 Q1787.14 1517.37 1785.31 1520.93 Q1783.51 1524.47 1783.51 1531.6 Q1783.51 1538.71 1785.31 1542.27 Q1787.14 1545.82 1790.75 1545.82 Q1794.38 1545.82 1796.19 1542.27 Q1798.02 1538.71 1798.02 1531.6 Q1798.02 1524.47 1796.19 1520.93 Q1794.38 1517.37 1790.75 1517.37 M1790.75 1513.66 Q1796.56 1513.66 1799.62 1518.27 Q1802.69 1522.85 1802.69 1531.6 Q1802.69 1540.33 1799.62 1544.94 Q1796.56 1549.52 1790.75 1549.52 Q1784.94 1549.52 1781.86 1544.94 Q1778.81 1540.33 1778.81 1531.6 Q1778.81 1522.85 1781.86 1518.27 Q1784.94 1513.66 1790.75 1513.66 Z" fill="#000000" fill-rule="nonzero" fill-opacity="1" /><path clip-path="url(#clip970)" d="M1820.91 1517.37 Q1817.3 1517.37 1815.47 1520.93 Q1813.67 1524.47 1813.67 1531.6 Q1813.67 1538.71 1815.47 1542.27 Q1817.3 1545.82 1820.91 1545.82 Q1824.55 1545.82 1826.35 1542.27 Q1828.18 1538.71 1828.18 1531.6 Q1828.18 1524.47 1826.35 1520.93 Q1824.55 1517.37 1820.91 1517.37 M1820.91 1513.66 Q1826.72 1513.66 1829.78 1518.27 Q1832.86 1522.85 1832.86 1531.6 Q1832.86 1540.33 1829.78 1544.94 Q1826.72 1549.52 1820.91 1549.52 Q1815.1 1549.52 1812.02 1544.94 Q1808.97 1540.33 1808.97 1531.6 Q1808.97 1522.85 1812.02 1518.27 Q1815.1 1513.66 1820.91 1513.66 Z" fill="#000000" fill-rule="nonzero" fill-opacity="1" /><path clip-path="url(#clip970)" d="M2239.65 1544.91 L2255.97 1544.91 L2255.97 1548.85 L2234.02 1548.85 L2234.02 1544.91 Q2236.69 1542.16 2241.27 1537.53 Q2245.88 1532.88 2247.06 1531.53 Q2249.3 1529.01 2250.18 1527.27 Q2251.08 1525.51 2251.08 1523.82 Q2251.08 1521.07 2249.14 1519.33 Q2247.22 1517.6 2244.12 1517.6 Q2241.92 1517.6 2239.46 1518.36 Q2237.03 1519.13 2234.25 1520.68 L2234.25 1515.95 Q2237.08 1514.82 2239.53 1514.24 Q2241.99 1513.66 2244.02 1513.66 Q2249.39 1513.66 2252.59 1516.35 Q2255.78 1519.03 2255.78 1523.52 Q2255.78 1525.65 2254.97 1527.57 Q2254.19 1529.47 2252.08 1532.07 Q2251.5 1532.74 2248.4 1535.95 Q2245.3 1539.15 2239.65 1544.91 Z" fill="#000000" fill-rule="nonzero" fill-opacity="1" /><path clip-path="url(#clip970)" d="M2275.78 1517.37 Q2272.17 1517.37 2270.34 1520.93 Q2268.54 1524.47 2268.54 1531.6 Q2268.54 1538.71 2270.34 1542.27 Q2272.17 1545.82 2275.78 1545.82 Q2279.42 1545.82 2281.22 1542.27 Q2283.05 1538.71 2283.05 1531.6 Q2283.05 1524.47 2281.22 1520.93 Q2279.42 1517.37 2275.78 1517.37 M2275.78 1513.66 Q2281.59 1513.66 2284.65 1518.27 Q2287.73 1522.85 2287.73 1531.6 Q2287.73 1540.33 2284.65 1544.94 Q2281.59 1549.52 2275.78 1549.52 Q2269.97 1549.52 2266.89 1544.94 Q2263.84 1540.33 2263.84 1531.6 Q2263.84 1522.85 2266.89 1518.27 Q2269.97 1513.66 2275.78 1513.66 Z" fill="#000000" fill-rule="nonzero" fill-opacity="1" /><path clip-path="url(#clip970)" d="M2305.94 1517.37 Q2302.33 1517.37 2300.5 1520.93 Q2298.7 1524.47 2298.7 1531.6 Q2298.7 1538.71 2300.5 1542.27 Q2302.33 1545.82 2305.94 1545.82 Q2309.58 1545.82 2311.38 1542.27 Q2313.21 1538.71 2313.21 1531.6 Q2313.21 1524.47 2311.38 1520.93 Q2309.58 1517.37 2305.94 1517.37 M2305.94 1513.66 Q2311.75 1513.66 2314.81 1518.27 Q2317.89 1522.85 2317.89 1531.6 Q2317.89 1540.33 2314.81 1544.94 Q2311.75 1549.52 2305.94 1549.52 Q2300.13 1549.52 2297.06 1544.94 Q2294 1540.33 2294 1531.6 Q2294 1522.85 2297.06 1518.27 Q2300.13 1513.66 2305.94 1513.66 Z" fill="#000000" fill-rule="nonzero" fill-opacity="1" /><path clip-path="url(#clip970)" d="M2336.11 1517.37 Q2332.49 1517.37 2330.67 1520.93 Q2328.86 1524.47 2328.86 1531.6 Q2328.86 1538.71 2330.67 1542.27 Q2332.49 1545.82 2336.11 1545.82 Q2339.74 1545.82 2341.55 1542.27 Q2343.37 1538.71 2343.37 1531.6 Q2343.37 1524.47 2341.55 1520.93 Q2339.74 1517.37 2336.11 1517.37 M2336.11 1513.66 Q2341.92 1513.66 2344.97 1518.27 Q2348.05 1522.85 2348.05 1531.6 Q2348.05 1540.33 2344.97 1544.94 Q2341.92 1549.52 2336.11 1549.52 Q2330.3 1549.52 2327.22 1544.94 Q2324.16 1540.33 2324.16 1531.6 Q2324.16 1522.85 2327.22 1518.27 Q2330.3 1513.66 2336.11 1513.66 Z" fill="#000000" fill-rule="nonzero" fill-opacity="1" /><polyline clip-path="url(#clip972)" style="stroke:#000000; stroke-linecap:round; stroke-linejoin:round; stroke-width:2; stroke-opacity:0.1; fill:none" points="172.015,1457.43 2352.76,1457.43 "/>
<polyline clip-path="url(#clip972)" style="stroke:#000000; stroke-linecap:round; stroke-linejoin:round; stroke-width:2; stroke-opacity:0.1; fill:none" points="172.015,1241.33 2352.76,1241.33 "/>
<polyline clip-path="url(#clip972)" style="stroke:#000000; stroke-linecap:round; stroke-linejoin:round; stroke-width:2; stroke-opacity:0.1; fill:none" points="172.015,1025.23 2352.76,1025.23 "/>
<polyline clip-path="url(#clip972)" style="stroke:#000000; stroke-linecap:round; stroke-linejoin:round; stroke-width:2; stroke-opacity:0.1; fill:none" points="172.015,809.126 2352.76,809.126 "/>
<polyline clip-path="url(#clip972)" style="stroke:#000000; stroke-linecap:round; stroke-linejoin:round; stroke-width:2; stroke-opacity:0.1; fill:none" points="172.015,593.024 2352.76,593.024 "/>
<polyline clip-path="url(#clip972)" style="stroke:#000000; stroke-linecap:round; stroke-linejoin:round; stroke-width:2; stroke-opacity:0.1; fill:none" points="172.015,376.921 2352.76,376.921 "/>
<polyline clip-path="url(#clip972)" style="stroke:#000000; stroke-linecap:round; stroke-linejoin:round; stroke-width:2; stroke-opacity:0.1; fill:none" points="172.015,160.819 2352.76,160.819 "/>
<polyline clip-path="url(#clip970)" style="stroke:#000000; stroke-linecap:round; stroke-linejoin:round; stroke-width:4; stroke-opacity:1; fill:none" points="172.015,1486.45 172.015,47.2441 "/>
<polyline clip-path="url(#clip970)" style="stroke:#000000; stroke-linecap:round; stroke-linejoin:round; stroke-width:4; stroke-opacity:1; fill:none" points="172.015,1457.43 190.912,1457.43 "/>
<polyline clip-path="url(#clip970)" style="stroke:#000000; stroke-linecap:round; stroke-linejoin:round; stroke-width:4; stroke-opacity:1; fill:none" points="172.015,1241.33 190.912,1241.33 "/>
<polyline clip-path="url(#clip970)" style="stroke:#000000; stroke-linecap:round; stroke-linejoin:round; stroke-width:4; stroke-opacity:1; fill:none" points="172.015,1025.23 190.912,1025.23 "/>
<polyline clip-path="url(#clip970)" style="stroke:#000000; stroke-linecap:round; stroke-linejoin:round; stroke-width:4; stroke-opacity:1; fill:none" points="172.015,809.126 190.912,809.126 "/>
<polyline clip-path="url(#clip970)" style="stroke:#000000; stroke-linecap:round; stroke-linejoin:round; stroke-width:4; stroke-opacity:1; fill:none" points="172.015,593.024 190.912,593.024 "/>
<polyline clip-path="url(#clip970)" style="stroke:#000000; stroke-linecap:round; stroke-linejoin:round; stroke-width:4; stroke-opacity:1; fill:none" points="172.015,376.921 190.912,376.921 "/>
<polyline clip-path="url(#clip970)" style="stroke:#000000; stroke-linecap:round; stroke-linejoin:round; stroke-width:4; stroke-opacity:1; fill:none" points="172.015,160.819 190.912,160.819 "/>
<path clip-path="url(#clip970)" d="M54.5569 1470.78 L62.1958 1470.78 L62.1958 1444.41 L53.8856 1446.08 L53.8856 1441.82 L62.1495 1440.15 L66.8254 1440.15 L66.8254 1470.78 L74.4642 1470.78 L74.4642 1474.71 L54.5569 1474.71 L54.5569 1470.78 Z" fill="#000000" fill-rule="nonzero" fill-opacity="1" /><path clip-path="url(#clip970)" d="M83.9549 1440.15 L102.311 1440.15 L102.311 1444.09 L88.2373 1444.09 L88.2373 1452.56 Q89.2558 1452.21 90.2743 1452.05 Q91.2928 1451.87 92.3113 1451.87 Q98.0984 1451.87 101.478 1455.04 Q104.858 1458.21 104.858 1463.62 Q104.858 1469.2 101.385 1472.3 Q97.9132 1475.38 91.5938 1475.38 Q89.4178 1475.38 87.1493 1475.01 Q84.904 1474.64 82.4966 1473.9 L82.4966 1469.2 Q84.5799 1470.34 86.8021 1470.89 Q89.0243 1471.45 91.5012 1471.45 Q95.5058 1471.45 97.8437 1469.34 Q100.182 1467.24 100.182 1463.62 Q100.182 1460.01 97.8437 1457.91 Q95.5058 1455.8 91.5012 1455.8 Q89.6262 1455.8 87.7512 1456.22 Q85.8993 1456.63 83.9549 1457.51 L83.9549 1440.15 Z" fill="#000000" fill-rule="nonzero" fill-opacity="1" /><path clip-path="url(#clip970)" d="M124.07 1443.23 Q120.459 1443.23 118.631 1446.8 Q116.825 1450.34 116.825 1457.47 Q116.825 1464.57 118.631 1468.14 Q120.459 1471.68 124.07 1471.68 Q127.705 1471.68 129.51 1468.14 Q131.339 1464.57 131.339 1457.47 Q131.339 1450.34 129.51 1446.8 Q127.705 1443.23 124.07 1443.23 M124.07 1439.53 Q129.881 1439.53 132.936 1444.13 Q136.015 1448.72 136.015 1457.47 Q136.015 1466.19 132.936 1470.8 Q129.881 1475.38 124.07 1475.38 Q118.26 1475.38 115.182 1470.8 Q112.126 1466.19 112.126 1457.47 Q112.126 1448.72 115.182 1444.13 Q118.26 1439.53 124.07 1439.53 Z" fill="#000000" fill-rule="nonzero" fill-opacity="1" /><path clip-path="url(#clip970)" d="M57.7745 1254.67 L74.0939 1254.67 L74.0939 1258.61 L52.1495 1258.61 L52.1495 1254.67 Q54.8115 1251.92 59.3949 1247.29 Q64.0013 1242.64 65.1819 1241.3 Q67.4272 1238.77 68.3068 1237.04 Q69.2096 1235.28 69.2096 1233.59 Q69.2096 1230.83 67.2652 1229.1 Q65.3439 1227.36 62.2421 1227.36 Q60.043 1227.36 57.5893 1228.12 Q55.1588 1228.89 52.381 1230.44 L52.381 1225.72 Q55.2051 1224.58 57.6588 1224 Q60.1124 1223.43 62.1495 1223.43 Q67.5198 1223.43 70.7142 1226.11 Q73.9087 1228.8 73.9087 1233.29 Q73.9087 1235.42 73.0985 1237.34 Q72.3115 1239.24 70.205 1241.83 Q69.6263 1242.5 66.5245 1245.72 Q63.4226 1248.91 57.7745 1254.67 Z" fill="#000000" fill-rule="nonzero" fill-opacity="1" /><path clip-path="url(#clip970)" d="M93.9086 1227.13 Q90.2975 1227.13 88.4688 1230.69 Q86.6632 1234.24 86.6632 1241.36 Q86.6632 1248.47 88.4688 1252.04 Q90.2975 1255.58 93.9086 1255.58 Q97.5428 1255.58 99.3483 1252.04 Q101.177 1248.47 101.177 1241.36 Q101.177 1234.24 99.3483 1230.69 Q97.5428 1227.13 93.9086 1227.13 M93.9086 1223.43 Q99.7187 1223.43 102.774 1228.03 Q105.853 1232.61 105.853 1241.36 Q105.853 1250.09 102.774 1254.7 Q99.7187 1259.28 93.9086 1259.28 Q88.0984 1259.28 85.0197 1254.7 Q81.9642 1250.09 81.9642 1241.36 Q81.9642 1232.61 85.0197 1228.03 Q88.0984 1223.43 93.9086 1223.43 Z" fill="#000000" fill-rule="nonzero" fill-opacity="1" /><path clip-path="url(#clip970)" d="M124.07 1227.13 Q120.459 1227.13 118.631 1230.69 Q116.825 1234.24 116.825 1241.36 Q116.825 1248.47 118.631 1252.04 Q120.459 1255.58 124.07 1255.58 Q127.705 1255.58 129.51 1252.04 Q131.339 1248.47 131.339 1241.36 Q131.339 1234.24 129.51 1230.69 Q127.705 1227.13 124.07 1227.13 M124.07 1223.43 Q129.881 1223.43 132.936 1228.03 Q136.015 1232.61 136.015 1241.36 Q136.015 1250.09 132.936 1254.7 Q129.881 1259.28 124.07 1259.28 Q118.26 1259.28 115.182 1254.7 Q112.126 1250.09 112.126 1241.36 Q112.126 1232.61 115.182 1228.03 Q118.26 1223.43 124.07 1223.43 Z" fill="#000000" fill-rule="nonzero" fill-opacity="1" /><path clip-path="url(#clip970)" d="M57.7745 1038.57 L74.0939 1038.57 L74.0939 1042.51 L52.1495 1042.51 L52.1495 1038.57 Q54.8115 1035.82 59.3949 1031.19 Q64.0013 1026.54 65.1819 1025.19 Q67.4272 1022.67 68.3068 1020.93 Q69.2096 1019.17 69.2096 1017.48 Q69.2096 1014.73 67.2652 1012.99 Q65.3439 1011.26 62.2421 1011.26 Q60.043 1011.26 57.5893 1012.02 Q55.1588 1012.79 52.381 1014.34 L52.381 1009.61 Q55.2051 1008.48 57.6588 1007.9 Q60.1124 1007.32 62.1495 1007.32 Q67.5198 1007.32 70.7142 1010.01 Q73.9087 1012.69 73.9087 1017.18 Q73.9087 1019.31 73.0985 1021.23 Q72.3115 1023.13 70.205 1025.73 Q69.6263 1026.4 66.5245 1029.61 Q63.4226 1032.81 57.7745 1038.57 Z" fill="#000000" fill-rule="nonzero" fill-opacity="1" /><path clip-path="url(#clip970)" d="M83.9549 1007.95 L102.311 1007.95 L102.311 1011.88 L88.2373 1011.88 L88.2373 1020.36 Q89.2558 1020.01 90.2743 1019.85 Q91.2928 1019.66 92.3113 1019.66 Q98.0984 1019.66 101.478 1022.83 Q104.858 1026 104.858 1031.42 Q104.858 1037 101.385 1040.1 Q97.9132 1043.18 91.5938 1043.18 Q89.4178 1043.18 87.1493 1042.81 Q84.904 1042.44 82.4966 1041.7 L82.4966 1037 Q84.5799 1038.13 86.8021 1038.69 Q89.0243 1039.24 91.5012 1039.24 Q95.5058 1039.24 97.8437 1037.14 Q100.182 1035.03 100.182 1031.42 Q100.182 1027.81 97.8437 1025.7 Q95.5058 1023.6 91.5012 1023.6 Q89.6262 1023.6 87.7512 1024.01 Q85.8993 1024.43 83.9549 1025.31 L83.9549 1007.95 Z" fill="#000000" fill-rule="nonzero" fill-opacity="1" /><path clip-path="url(#clip970)" d="M124.07 1011.03 Q120.459 1011.03 118.631 1014.59 Q116.825 1018.13 116.825 1025.26 Q116.825 1032.37 118.631 1035.93 Q120.459 1039.48 124.07 1039.48 Q127.705 1039.48 129.51 1035.93 Q131.339 1032.37 131.339 1025.26 Q131.339 1018.13 129.51 1014.59 Q127.705 1011.03 124.07 1011.03 M124.07 1007.32 Q129.881 1007.32 132.936 1011.93 Q136.015 1016.51 136.015 1025.26 Q136.015 1033.99 132.936 1038.6 Q129.881 1043.18 124.07 1043.18 Q118.26 1043.18 115.182 1038.6 Q112.126 1033.99 112.126 1025.26 Q112.126 1016.51 115.182 1011.93 Q118.26 1007.32 124.07 1007.32 Z" fill="#000000" fill-rule="nonzero" fill-opacity="1" /><path clip-path="url(#clip970)" d="M67.9133 807.772 Q71.2698 808.489 73.1448 810.758 Q75.0429 813.026 75.0429 816.36 Q75.0429 821.475 71.5244 824.276 Q68.0059 827.077 61.5245 827.077 Q59.3486 827.077 57.0338 826.637 Q54.7421 826.221 52.2884 825.364 L52.2884 820.85 Q54.2328 821.985 56.5477 822.563 Q58.8625 823.142 61.3856 823.142 Q65.7837 823.142 68.0754 821.406 Q70.3902 819.67 70.3902 816.36 Q70.3902 813.304 68.2374 811.591 Q66.1078 809.855 62.2884 809.855 L58.2606 809.855 L58.2606 806.012 L62.4735 806.012 Q65.9226 806.012 67.7513 804.647 Q69.58 803.258 69.58 800.665 Q69.58 798.003 67.6819 796.591 Q65.8069 795.156 62.2884 795.156 Q60.3671 795.156 58.168 795.573 Q55.969 795.989 53.3301 796.869 L53.3301 792.702 Q55.9921 791.962 58.3069 791.591 Q60.6449 791.221 62.705 791.221 Q68.0291 791.221 71.1309 793.651 Q74.2327 796.059 74.2327 800.179 Q74.2327 803.049 72.5892 805.04 Q70.9457 807.008 67.9133 807.772 Z" fill="#000000" fill-rule="nonzero" fill-opacity="1" /><path clip-path="url(#clip970)" d="M93.9086 794.924 Q90.2975 794.924 88.4688 798.489 Q86.6632 802.031 86.6632 809.161 Q86.6632 816.267 88.4688 819.832 Q90.2975 823.373 93.9086 823.373 Q97.5428 823.373 99.3483 819.832 Q101.177 816.267 101.177 809.161 Q101.177 802.031 99.3483 798.489 Q97.5428 794.924 93.9086 794.924 M93.9086 791.221 Q99.7187 791.221 102.774 795.827 Q105.853 800.411 105.853 809.161 Q105.853 817.887 102.774 822.494 Q99.7187 827.077 93.9086 827.077 Q88.0984 827.077 85.0197 822.494 Q81.9642 817.887 81.9642 809.161 Q81.9642 800.411 85.0197 795.827 Q88.0984 791.221 93.9086 791.221 Z" fill="#000000" fill-rule="nonzero" fill-opacity="1" /><path clip-path="url(#clip970)" d="M124.07 794.924 Q120.459 794.924 118.631 798.489 Q116.825 802.031 116.825 809.161 Q116.825 816.267 118.631 819.832 Q120.459 823.373 124.07 823.373 Q127.705 823.373 129.51 819.832 Q131.339 816.267 131.339 809.161 Q131.339 802.031 129.51 798.489 Q127.705 794.924 124.07 794.924 M124.07 791.221 Q129.881 791.221 132.936 795.827 Q136.015 800.411 136.015 809.161 Q136.015 817.887 132.936 822.494 Q129.881 827.077 124.07 827.077 Q118.26 827.077 115.182 822.494 Q112.126 817.887 112.126 809.161 Q112.126 800.411 115.182 795.827 Q118.26 791.221 124.07 791.221 Z" fill="#000000" fill-rule="nonzero" fill-opacity="1" /><path clip-path="url(#clip970)" d="M67.9133 591.669 Q71.2698 592.387 73.1448 594.656 Q75.0429 596.924 75.0429 600.257 Q75.0429 605.373 71.5244 608.174 Q68.0059 610.975 61.5245 610.975 Q59.3486 610.975 57.0338 610.535 Q54.7421 610.118 52.2884 609.262 L52.2884 604.748 Q54.2328 605.882 56.5477 606.461 Q58.8625 607.04 61.3856 607.04 Q65.7837 607.04 68.0754 605.304 Q70.3902 603.568 70.3902 600.257 Q70.3902 597.202 68.2374 595.489 Q66.1078 593.753 62.2884 593.753 L58.2606 593.753 L58.2606 589.91 L62.4735 589.91 Q65.9226 589.91 67.7513 588.544 Q69.58 587.156 69.58 584.563 Q69.58 581.901 67.6819 580.489 Q65.8069 579.054 62.2884 579.054 Q60.3671 579.054 58.168 579.47 Q55.969 579.887 53.3301 580.767 L53.3301 576.6 Q55.9921 575.859 58.3069 575.489 Q60.6449 575.119 62.705 575.119 Q68.0291 575.119 71.1309 577.549 Q74.2327 579.957 74.2327 584.077 Q74.2327 586.947 72.5892 588.938 Q70.9457 590.906 67.9133 591.669 Z" fill="#000000" fill-rule="nonzero" fill-opacity="1" /><path clip-path="url(#clip970)" d="M83.9549 575.744 L102.311 575.744 L102.311 579.679 L88.2373 579.679 L88.2373 588.151 Q89.2558 587.804 90.2743 587.642 Q91.2928 587.457 92.3113 587.457 Q98.0984 587.457 101.478 590.628 Q104.858 593.799 104.858 599.216 Q104.858 604.794 101.385 607.896 Q97.9132 610.975 91.5938 610.975 Q89.4178 610.975 87.1493 610.605 Q84.904 610.234 82.4966 609.493 L82.4966 604.794 Q84.5799 605.929 86.8021 606.484 Q89.0243 607.04 91.5012 607.04 Q95.5058 607.04 97.8437 604.933 Q100.182 602.827 100.182 599.216 Q100.182 595.605 97.8437 593.498 Q95.5058 591.392 91.5012 591.392 Q89.6262 591.392 87.7512 591.808 Q85.8993 592.225 83.9549 593.105 L83.9549 575.744 Z" fill="#000000" fill-rule="nonzero" fill-opacity="1" /><path clip-path="url(#clip970)" d="M124.07 578.822 Q120.459 578.822 118.631 582.387 Q116.825 585.929 116.825 593.058 Q116.825 600.165 118.631 603.73 Q120.459 607.271 124.07 607.271 Q127.705 607.271 129.51 603.73 Q131.339 600.165 131.339 593.058 Q131.339 585.929 129.51 582.387 Q127.705 578.822 124.07 578.822 M124.07 575.119 Q129.881 575.119 132.936 579.725 Q136.015 584.308 136.015 593.058 Q136.015 601.785 132.936 606.392 Q129.881 610.975 124.07 610.975 Q118.26 610.975 115.182 606.392 Q112.126 601.785 112.126 593.058 Q112.126 584.308 115.182 579.725 Q118.26 575.119 124.07 575.119 Z" fill="#000000" fill-rule="nonzero" fill-opacity="1" /><path clip-path="url(#clip970)" d="M66.5939 363.715 L54.7884 382.164 L66.5939 382.164 L66.5939 363.715 M65.367 359.641 L71.2466 359.641 L71.2466 382.164 L76.1772 382.164 L76.1772 386.053 L71.2466 386.053 L71.2466 394.201 L66.5939 394.201 L66.5939 386.053 L50.9921 386.053 L50.9921 381.539 L65.367 359.641 Z" fill="#000000" fill-rule="nonzero" fill-opacity="1" /><path clip-path="url(#clip970)" d="M93.9086 362.72 Q90.2975 362.72 88.4688 366.285 Q86.6632 369.827 86.6632 376.956 Q86.6632 384.063 88.4688 387.627 Q90.2975 391.169 93.9086 391.169 Q97.5428 391.169 99.3483 387.627 Q101.177 384.063 101.177 376.956 Q101.177 369.827 99.3483 366.285 Q97.5428 362.72 93.9086 362.72 M93.9086 359.016 Q99.7187 359.016 102.774 363.623 Q105.853 368.206 105.853 376.956 Q105.853 385.683 102.774 390.289 Q99.7187 394.873 93.9086 394.873 Q88.0984 394.873 85.0197 390.289 Q81.9642 385.683 81.9642 376.956 Q81.9642 368.206 85.0197 363.623 Q88.0984 359.016 93.9086 359.016 Z" fill="#000000" fill-rule="nonzero" fill-opacity="1" /><path clip-path="url(#clip970)" d="M124.07 362.72 Q120.459 362.72 118.631 366.285 Q116.825 369.827 116.825 376.956 Q116.825 384.063 118.631 387.627 Q120.459 391.169 124.07 391.169 Q127.705 391.169 129.51 387.627 Q131.339 384.063 131.339 376.956 Q131.339 369.827 129.51 366.285 Q127.705 362.72 124.07 362.72 M124.07 359.016 Q129.881 359.016 132.936 363.623 Q136.015 368.206 136.015 376.956 Q136.015 385.683 132.936 390.289 Q129.881 394.873 124.07 394.873 Q118.26 394.873 115.182 390.289 Q112.126 385.683 112.126 376.956 Q112.126 368.206 115.182 363.623 Q118.26 359.016 124.07 359.016 Z" fill="#000000" fill-rule="nonzero" fill-opacity="1" /><path clip-path="url(#clip970)" d="M66.5939 147.613 L54.7884 166.062 L66.5939 166.062 L66.5939 147.613 M65.367 143.539 L71.2466 143.539 L71.2466 166.062 L76.1772 166.062 L76.1772 169.951 L71.2466 169.951 L71.2466 178.099 L66.5939 178.099 L66.5939 169.951 L50.9921 169.951 L50.9921 165.437 L65.367 143.539 Z" fill="#000000" fill-rule="nonzero" fill-opacity="1" /><path clip-path="url(#clip970)" d="M83.9549 143.539 L102.311 143.539 L102.311 147.474 L88.2373 147.474 L88.2373 155.947 Q89.2558 155.599 90.2743 155.437 Q91.2928 155.252 92.3113 155.252 Q98.0984 155.252 101.478 158.423 Q104.858 161.595 104.858 167.011 Q104.858 172.59 101.385 175.692 Q97.9132 178.771 91.5938 178.771 Q89.4178 178.771 87.1493 178.4 Q84.904 178.03 82.4966 177.289 L82.4966 172.59 Q84.5799 173.724 86.8021 174.28 Q89.0243 174.835 91.5012 174.835 Q95.5058 174.835 97.8437 172.729 Q100.182 170.622 100.182 167.011 Q100.182 163.4 97.8437 161.294 Q95.5058 159.187 91.5012 159.187 Q89.6262 159.187 87.7512 159.604 Q85.8993 160.021 83.9549 160.9 L83.9549 143.539 Z" fill="#000000" fill-rule="nonzero" fill-opacity="1" /><path clip-path="url(#clip970)" d="M124.07 146.618 Q120.459 146.618 118.631 150.183 Q116.825 153.724 116.825 160.854 Q116.825 167.96 118.631 171.525 Q120.459 175.067 124.07 175.067 Q127.705 175.067 129.51 171.525 Q131.339 167.96 131.339 160.854 Q131.339 153.724 129.51 150.183 Q127.705 146.618 124.07 146.618 M124.07 142.914 Q129.881 142.914 132.936 147.521 Q136.015 152.104 136.015 160.854 Q136.015 169.581 132.936 174.187 Q129.881 178.771 124.07 178.771 Q118.26 178.771 115.182 174.187 Q112.126 169.581 112.126 160.854 Q112.126 152.104 115.182 147.521 Q118.26 142.914 124.07 142.914 Z" fill="#000000" fill-rule="nonzero" fill-opacity="1" /><polyline clip-path="url(#clip972)" style="stroke:#009af9; stroke-linecap:round; stroke-linejoin:round; stroke-width:4; stroke-opacity:1; fill:none" points="233.734,619.816 234.763,739.555 235.791,488.278 236.82,649.515 237.849,565.257 238.877,768.437 239.906,583.802 240.934,836.358 241.963,378.996 242.992,729.684 244.02,409.075 245.049,913.755 246.078,799.871 247.106,289.611 248.135,765.253 249.164,667.49 250.192,442.889 251.221,437.024 252.25,509.141 253.278,263.735 254.307,140.521 255.336,409.448 256.364,335.41 257.393,176.568 258.422,971.235 259.45,516.034 260.479,310.099 261.507,218.609 262.536,513.501 263.565,702.237 264.593,671.781 265.622,829.478 266.651,617.861 267.679,687.488 268.708,428.84 269.737,794.26 270.765,570.068 271.794,514.419 272.823,658.556 273.851,754.185 274.88,761.293 275.909,266.922 276.937,664.394 277.966,517.417 278.995,658.009 280.023,613.774 281.052,501.39 282.081,786.349 283.109,611.611 284.138,875.523 285.166,564.348 286.195,472.231 287.224,514.332 288.252,576.391 289.281,749.788 290.31,392.885 291.338,706.462 292.367,644.158 293.396,689.533 294.424,402.038 295.453,408.756 296.482,555.784 297.51,384.742 298.539,505.75 299.568,602.745 300.596,491.367 301.625,689.61 302.654,373.036 303.682,316.449 304.711,580.495 305.74,440.833 306.768,419.261 307.797,703.248 308.825,641.92 309.854,218.712 310.883,628.85 311.911,585.674 312.94,323.574 313.969,373.94 314.997,580.93 316.026,527.406 317.055,583.011 318.083,572.558 319.112,514.146 320.141,514.925 321.169,673.28 322.198,595.624 323.227,693.132 324.255,380.299 325.284,571.985 326.313,500.622 327.341,387.405 328.37,792.466 329.398,402.98 330.427,483.644 331.456,706.011 332.484,622.298 333.513,782.831 334.542,637.561 335.57,649.864 336.599,866.078 337.628,738.574 338.656,1011.97 339.685,628.601 340.714,756.216 341.742,640.254 342.771,645.826 343.8,1070.88 344.828,857.834 345.857,731.587 346.886,517.709 347.914,721.239 348.943,779.516 349.972,1092.37 351,716.057 352.029,825.252 353.057,650.563 354.086,942.672 355.115,1002.1 356.143,765.171 357.172,795.106 358.201,846.637 359.229,932.91 360.258,898.44 361.287,965.499 362.315,861.816 363.344,841.477 364.373,798.917 365.401,542.476 366.43,545.642 367.459,950.512 368.487,726.623 369.516,485.518 370.545,943.642 371.573,756.052 372.602,805.383 373.631,744.508 374.659,774.565 375.688,712.837 376.716,798.97 377.745,503.048 378.774,833.573 379.802,541.488 380.831,737.385 381.86,661.403 382.888,897.15 383.917,895.571 384.946,521.94 385.974,635.397 387.003,775.547 388.032,749.926 389.06,785.41 390.089,417.715 391.118,804.689 392.146,598.854 393.175,870.528 394.204,804.048 395.232,963.3 396.261,334.126 397.289,604.799 398.318,653.649 399.347,1039.28 400.375,629.584 401.404,641.569 402.433,534.311 403.461,725.224 404.49,727.878 405.519,873.158 406.547,544.956 407.576,586.625 408.605,984.089 409.633,799.355 410.662,752.323 411.691,619.516 412.719,812.293 413.748,440.024 414.777,884.394 415.805,825.548 416.834,1070.8 417.863,579.323 418.891,428.236 419.92,466.222 420.948,754.337 421.977,597.009 423.006,567.667 424.034,579.774 425.063,880.503 426.092,472.299 427.12,342.721 428.149,898.159 429.178,702.821 430.206,775.125 431.235,87.9763 432.264,841.558 433.292,805.597 434.321,875.409 435.35,767.192 436.378,832.38 437.407,898.212 438.436,799.328 439.464,912.64 440.493,916.828 441.522,778.796 442.55,825.495 443.579,679.591 444.607,744.365 445.636,718.601 446.665,903.904 447.693,708.078 448.722,875.777 449.751,1043.5 450.779,907.163 451.808,620.436 452.837,635.004 453.865,595.566 454.894,583.107 455.923,651.985 456.951,562.088 457.98,874.798 459.009,655.667 460.037,679.08 461.066,781.27 462.095,818.369 463.123,942.315 464.152,764.788 465.18,886.61 466.209,597.764 467.238,918.106 468.266,618.812 469.295,581.843 470.324,571.962 471.352,969.637 472.381,793.296 473.41,915.155 474.438,701.172 475.467,663.089 476.496,922.535 477.524,1159.56 478.553,767.227 479.582,1100 480.61,892.187 481.639,1038.74 482.668,562.856 483.696,356.111 484.725,381.47 485.754,728.574 486.782,723.261 487.811,757.56 488.839,991.291 489.868,580.369 490.897,802.285 491.925,728.44 492.954,690.346 493.983,578.48 495.011,923.74 496.04,786.436 497.069,757.376 498.097,1018.04 499.126,634.075 500.155,626.205 501.183,829.129 502.212,579.57 503.241,709.223 504.269,897.724 505.298,542.386 506.327,837.507 507.355,989.123 508.384,695.748 509.412,623.991 510.441,1065.08 511.47,1026.98 512.498,923.905 513.527,840.334 514.556,562.751 515.584,1062.25 516.613,544.693 517.642,757.22 518.67,687.742 519.699,855.997 520.728,822.256 521.756,736.244 522.785,984.279 523.814,840.708 524.842,1060.67 525.871,614.923 526.9,888.573 527.928,877.482 528.957,741.558 529.986,895.427 531.014,906.891 532.043,918.236 533.071,878.098 534.1,798.577 535.129,1104.41 536.157,744.995 537.186,850.56 538.215,721.125 539.243,850.864 540.272,634.786 541.301,537.382 542.329,835.187 543.358,698.293 544.387,876.053 545.415,945.253 546.444,1077.42 547.473,908.517 548.501,1003.04 549.53,889.745 550.559,794.867 551.587,646.945 552.616,783.495 553.645,935.348 554.673,839.285 555.702,1163.82 556.73,822.343 557.759,859.378 558.788,703.495 559.816,844.469 560.845,974.281 561.874,966.637 562.902,621.655 563.931,778.248 564.96,660.226 565.988,1073.6 567.017,839.561 568.046,725.493 569.074,728.694 570.103,593.456 571.132,688.923 572.16,783.117 573.189,994.951 574.218,767.145 575.246,1096.71 576.275,806.579 577.303,945.34 578.332,897.494 579.361,962.206 580.389,860.457 581.418,1158.96 582.447,786.259 583.475,949.497 584.504,842.77 585.533,723.45 586.561,1129.96 587.59,863.849 588.619,1018.44 589.647,953.002 590.676,936.898 591.705,1021.99 592.733,803.207 593.762,878.966 594.791,831.609 595.819,971.065 596.848,905.744 597.877,903.552 598.905,955.958 599.934,832.646 600.962,626.356 601.991,786.526 603.02,843.064 604.048,1025.77 605.077,1074.57 606.106,720.787 607.134,745.974 608.163,690.246 609.192,711.798 610.22,626.01 611.249,718.963 612.278,676.883 613.306,873.513 614.335,901.344 615.364,1009.31 616.392,1080.54 617.421,866.952 618.45,673.061 619.478,907.906 620.507,502.063 621.536,809.335 622.564,489.717 623.593,670.787 624.621,779.576 625.65,842.289 626.679,969.603 627.707,593.175 628.736,651.622 629.765,746.789 630.793,537.03 631.822,879.717 632.851,904.599 633.879,595.925 634.908,706.47 635.937,726.753 636.965,896.811 637.994,850.703 639.023,737.679 640.051,745.95 641.08,768.533 642.109,806.425 643.137,785.457 644.166,700.346 645.194,530.023 646.223,969.895 647.252,1213.67 648.28,1076.02 649.309,761.394 650.338,744.643 651.366,831.729 652.395,615.275 653.424,889.191 654.452,891.217 655.481,738.606 656.51,742.972 657.538,843.552 658.567,515.789 659.596,922.894 660.624,828.995 661.653,816.186 662.682,889.905 663.71,618.381 664.739,749.616 665.768,680.631 666.796,882.932 667.825,867.553 668.853,964.364 669.882,601.73 670.911,782.198 671.939,866.626 672.968,560 673.997,934.882 675.025,581.878 676.054,780.218 677.083,715.823 678.111,911.129 679.14,385.94 680.169,696.694 681.197,909.478 682.226,814.612 683.255,869.941 684.283,1189.81 685.312,919.46 686.341,492.84 687.369,805.649 688.398,840.921 689.427,764.267 690.455,752.818 691.484,932.705 692.512,662.07 693.541,768.707 694.57,707.692 695.598,787.038 696.627,622.803 697.656,999.815 698.684,716.664 699.713,828.475 700.742,1025.16 701.77,927.8 702.799,990.546 703.828,1022.46 704.856,776.577 705.885,882.714 706.914,686.175 707.942,670.125 708.971,799.094 710,785.271 711.028,817.63 712.057,683.345 713.085,1095.11 714.114,862.372 715.143,810.57 716.171,788.102 717.2,794.55 718.229,792.456 719.257,989.198 720.286,774.633 721.315,779.555 722.343,776.83 723.372,739.978 724.401,882.659 725.429,770.225 726.458,712.481 727.487,1002.32 728.515,965.907 729.544,641.854 730.573,753.551 731.601,1085.36 732.63,1033.17 733.659,844.505 734.687,890.08 735.716,912.439 736.744,678.425 737.773,484.025 738.802,1059.66 739.83,730.922 740.859,680.422 741.888,696.817 742.916,738.458 743.945,1015.45 744.974,993.556 746.002,590.323 747.031,798.696 748.06,678.029 749.088,800.952 750.117,1035.16 751.146,1048.82 752.174,672.747 753.203,913.234 754.232,578.625 755.26,779.597 756.289,787.419 757.317,597.824 758.346,741.322 759.375,945.761 760.403,770.691 761.432,915.602 762.461,411.595 763.489,734.564 764.518,928.247 765.547,632.887 766.575,971.456 767.604,708.421 768.633,612.132 769.661,926.935 770.69,863.793 771.719,893.415 772.747,919.98 773.776,462.464 774.805,572.984 775.833,976.655 776.862,434.617 777.891,587.941 778.919,707.73 779.948,702.005 780.976,528.371 782.005,846.062 783.034,781.085 784.062,699.477 785.091,688.647 786.12,854.988 787.148,721.742 788.177,888.177 789.206,553.59 790.234,547.86 791.263,555.072 792.292,634.63 793.32,393.905 794.349,850.449 795.378,708.852 796.406,326.368 797.435,769.738 798.464,657.606 799.492,575.09 800.521,808.627 801.55,551.762 802.578,491.225 803.607,742.544 804.635,833.925 805.664,568.731 806.693,909.927 807.721,1076.42 808.75,593.316 809.779,578.016 810.807,760.833 811.836,654.686 812.865,770.845 813.893,714.336 814.922,610.366 815.951,725.311 816.979,700.733 818.008,819.664 819.037,488.398 820.065,587.561 821.094,549.064 822.123,951.872 823.151,590.003 824.18,747.782 825.208,737.169 826.237,471.416 827.266,703.466 828.294,560.954 829.323,842.561 830.352,858.053 831.38,826.107 832.409,881.282 833.438,721.703 834.466,885.397 835.495,667.23 836.524,820.329 837.552,945.395 838.581,939.918 839.61,835.118 840.638,833.61 841.667,779.47 842.696,906.799 843.724,803.961 844.753,764.867 845.782,1192.62 846.81,934.896 847.839,824.286 848.867,627.919 849.896,921.465 850.925,757.286 851.953,629.474 852.982,865.989 854.011,945.662 855.039,948.011 856.068,800.12 857.097,828.135 858.125,654.732 859.154,615.533 860.183,572.19 861.211,690.92 862.24,687.445 863.269,675.51 864.297,679.867 865.326,784.455 866.355,624.056 867.383,1005.04 868.412,932.767 869.441,1014.69 870.469,666.671 871.498,618.172 872.526,752.343 873.555,516.786 874.584,612.28 875.612,844.356 876.641,808.198 877.67,740.446 878.698,593.58 879.727,722.601 880.756,676.333 881.784,852.963 882.813,753.185 883.842,649.27 884.87,588.343 885.899,909.507 886.928,705.814 887.956,708.808 888.985,848.154 890.014,1003.78 891.042,746.466 892.071,911.79 893.099,987.903 894.128,699.384 895.157,737.259 896.185,897.766 897.214,944.638 898.243,547.505 899.271,802.033 900.3,689.836 901.329,509.558 902.357,827.176 903.386,898.674 904.415,932.625 905.443,845.992 906.472,851.771 907.501,1025.17 908.529,867.277 909.558,760.25 910.587,822.225 911.615,894.139 912.644,898.536 913.673,561.671 914.701,929.865 915.73,756.496 916.758,992.272 917.787,821.856 918.816,854.455 919.844,986.57 920.873,693.161 921.902,832.259 922.93,942.991 923.959,713.034 924.988,946.178 926.016,515.055 927.045,834.266 928.074,962.385 929.102,833.908 930.131,838.4 931.16,1021.26 932.188,601.541 933.217,1043.82 934.246,889.014 935.274,916.982 936.303,960.295 937.332,960.938 938.36,386.506 939.389,1144.09 940.417,936.124 941.446,851.713 942.475,893.979 943.503,611.516 944.532,803.905 945.561,775.241 946.589,527.438 947.618,1022.99 948.647,1051.79 949.675,1135.54 950.704,724.842 951.733,831.772 952.761,657.208 953.79,840.679 954.819,805.015 955.847,865.709 956.876,916.276 957.905,1159.86 958.933,660.045 959.962,716.955 960.99,689.181 962.019,966.51 963.048,793.11 964.076,904.151 965.105,1003.41 966.134,812.705 967.162,1041.71 968.191,936.346 969.22,563.99 970.248,782.757 971.277,1013.53 972.306,827.205 973.334,758.634 974.363,738.384 975.392,602.376 976.42,997.941 977.449,683.011 978.478,1206.52 979.506,827.996 980.535,955.326 981.564,723.753 982.592,1160.23 983.621,978.293 984.649,841.037 985.678,784.798 986.707,903.966 987.735,485.404 988.764,951.94 989.793,571.142 990.821,760.639 991.85,744.344 992.879,206.628 993.907,823.594 994.936,731.651 995.965,778.723 996.993,824.777 998.022,815.789 999.051,952.338 1000.08,576.751 1001.11,478.119 1002.14,814.631 1003.17,740.651 1004.19,852.648 1005.22,606.412 1006.25,1032.16 1007.28,693.102 1008.31,546.079 1009.34,544.941 1010.37,798.304 1011.39,339.429 1012.42,720.398 1013.45,527.836 1014.48,733.511 1015.51,877.747 1016.54,874.702 1017.57,897.584 1018.59,451.002 1019.62,875.381 1020.65,789.509 1021.68,830.054 1022.71,770.047 1023.74,850.115 1024.77,548.545 1025.8,781.292 1026.82,719.959 1027.85,555.314 1028.88,631.871 1029.91,798.175 1030.94,627.237 1031.97,719.354 1033,934.957 1034.02,845.933 1035.05,895.374 1036.08,937.798 1037.11,983.797 1038.14,681.018 1039.17,605.997 1040.2,693.181 1041.23,560.12 1042.25,633.425 1043.28,981.516 1044.31,861.751 1045.34,812.095 1046.37,869.139 1047.4,916.098 1048.43,950.434 1049.45,916.494 1050.48,598.353 1051.51,623.519 1052.54,719.229 1053.57,960.71 1054.6,837.67 1055.63,818.702 1056.66,450.947 1057.68,920.114 1058.71,653.342 1059.74,713.02 1060.77,708.572 1061.8,560.386 1062.83,662.482 1063.86,883.465 1064.88,596.709 1065.91,638.426 1066.94,467.592 1067.97,959.661 1069,349.784 1070.03,626.38 1071.06,641.437 1072.08,1032.24 1073.11,609.261 1074.14,573.433 1075.17,870.039 1076.2,938.017 1077.23,759.104 1078.26,526.82 1079.29,848.629 1080.31,550.606 1081.34,717.176 1082.37,732.28 1083.4,426.114 1084.43,692.771 1085.46,767.677 1086.49,904.813 1087.51,714.167 1088.54,708.488 1089.57,939.606 1090.6,369.388 1091.63,921.197 1092.66,829.25 1093.69,573.11 1094.72,811.707 1095.74,998.504 1096.77,639.339 1097.8,988.91 1098.83,843.634 1099.86,845.068 1100.89,761.365 1101.92,825.7 1102.94,659.42 1103.97,737.644 1105,653.378 1106.03,786.38 1107.06,699.455 1108.09,745.454 1109.12,611.77 1110.14,666.3 1111.17,788.484 1112.2,563.509 1113.23,523.731 1114.26,704.381 1115.29,654.073 1116.32,564.374 1117.35,827.891 1118.37,805.772 1119.4,659.821 1120.43,1091.97 1121.46,1032.5 1122.49,800.659 1123.52,919.529 1124.55,853.698 1125.57,855.349 1126.6,1028.38 1127.63,866.76 1128.66,276.778 1129.69,1044.16 1130.72,938.836 1131.75,715.065 1132.78,822.739 1133.8,669.597 1134.83,783.187 1135.86,852.309 1136.89,1033.13 1137.92,773.181 1138.95,756.715 1139.98,893.068 1141,473.284 1142.03,641.211 1143.06,924.279 1144.09,876.794 1145.12,941.665 1146.15,1075.58 1147.18,676.739 1148.21,982.543 1149.23,896.639 1150.26,578.852 1151.29,1145.47 1152.32,745.02 1153.35,699.333 1154.38,834.427 1155.41,841.588 1156.43,715.962 1157.46,729.818 1158.49,981.542 1159.52,740.74 1160.55,838.306 1161.58,931.137 1162.61,759.918 1163.63,838.884 1164.66,514.815 1165.69,948.141 1166.72,683.81 1167.75,838.611 1168.78,709.015 1169.81,820.335 1170.84,841.679 1171.86,763.471 1172.89,714.014 1173.92,526.363 1174.95,561.359 1175.98,707.532 1177.01,759.133 1178.04,769.058 1179.06,814.886 1180.09,649.753 1181.12,778.28 1182.15,941.383 1183.18,403.045 1184.21,183.748 1185.24,891.739 1186.27,666.88 1187.29,695.474 1188.32,861.344 1189.35,734.718 1190.38,902.029 1191.41,742.448 1192.44,654.123 1193.47,926.473 1194.49,506.642 1195.52,862.595 1196.55,681.58 1197.58,992.409 1198.61,870.08 1199.64,938.031 1200.67,757.511 1201.69,724.5 1202.72,1014.19 1203.75,981.87 1204.78,831.612 1205.81,503.341 1206.84,505.687 1207.87,596.694 1208.9,698.396 1209.92,944.51 1210.95,587.912 1211.98,926.086 1213.01,702.382 1214.04,801.063 1215.07,883.269 1216.1,703.837 1217.12,821.411 1218.15,556.041 1219.18,803.614 1220.21,832.925 1221.24,815.243 1222.27,716.001 1223.3,858.721 1224.33,617.684 1225.35,659.27 1226.38,690.232 1227.41,719.256 1228.44,892.136 1229.47,746.579 1230.5,580.915 1231.53,800.943 1232.55,1168.89 1233.58,751.569 1234.61,627.196 1235.64,765.58 1236.67,597.108 1237.7,400.681 1238.73,706.356 1239.76,801.136 1240.78,951.624 1241.81,854.438 1242.84,858.957 1243.87,877.799 1244.9,1038.18 1245.93,988.989 1246.96,762.516 1247.98,829.488 1249.01,769.628 1250.04,635.934 1251.07,662.594 1252.1,941.459 1253.13,963.678 1254.16,832.236 1255.18,784.572 1256.21,959.78 1257.24,931.784 1258.27,773.657 1259.3,743.975 1260.33,845.723 1261.36,1124.9 1262.39,620.525 1263.41,550.868 1264.44,874.315 1265.47,461.783 1266.5,817.712 1267.53,588.474 1268.56,648.229 1269.59,752.558 1270.61,950.91 1271.64,616.198 1272.67,771.098 1273.7,874.731 1274.73,658.58 1275.76,634.694 1276.79,697.967 1277.82,906.417 1278.84,893.344 1279.87,684.93 1280.9,897.763 1281.93,814.805 1282.96,1001.83 1283.99,907.647 1285.02,755.535 1286.04,727.821 1287.07,794.546 1288.1,890.758 1289.13,794.003 1290.16,719.872 1291.19,923.3 1292.22,889.416 1293.24,760.94 1294.27,818.393 1295.3,961.051 1296.33,778.357 1297.36,685.402 1298.39,749.097 1299.42,886.69 1300.45,765.327 1301.47,792.4 1302.5,929.508 1303.53,892.338 1304.56,886.642 1305.59,875.565 1306.62,807.92 1307.65,970.015 1308.67,962.666 1309.7,848.885 1310.73,548.419 1311.76,744.895 1312.79,572.93 1313.82,768.414 1314.85,761.281 1315.88,964.526 1316.9,627.878 1317.93,807.008 1318.96,774.541 1319.99,945.252 1321.02,603.326 1322.05,857.702 1323.08,634.015 1324.1,840.287 1325.13,903.441 1326.16,724.729 1327.19,615.612 1328.22,823.847 1329.25,713.906 1330.28,1111.04 1331.31,959.135 1332.33,763.254 1333.36,928.575 1334.39,959.985 1335.42,563.454 1336.45,1125.44 1337.48,860.925 1338.51,994.613 1339.53,857.16 1340.56,902.754 1341.59,899.571 1342.62,838.167 1343.65,963.927 1344.68,879.413 1345.71,1206.96 1346.73,1053.25 1347.76,858.262 1348.79,1229.24 1349.82,638.236 1350.85,967.788 1351.88,1053.42 1352.91,795.054 1353.94,868.415 1354.96,1175.95 1355.99,887.223 1357.02,951.345 1358.05,1040.02 1359.08,983.749 1360.11,880.708 1361.14,1020.56 1362.16,1052.99 1363.19,1106.21 1364.22,793.844 1365.25,894.546 1366.28,798.495 1367.31,1092.42 1368.34,847.936 1369.37,901.447 1370.39,1085.04 1371.42,1022.59 1372.45,713.115 1373.48,1258.01 1374.51,901.721 1375.54,824.146 1376.57,1030.97 1377.59,924.25 1378.62,877.944 1379.65,1031.57 1380.68,871.669 1381.71,1166.32 1382.74,810.461 1383.77,715.782 1384.79,1070.12 1385.82,1012.9 1386.85,1047.94 1387.88,1033.91 1388.91,961.619 1389.94,1031.72 1390.97,1236.46 1392,813.166 1393.02,835.013 1394.05,1198.48 1395.08,955.957 1396.11,864.331 1397.14,866.303 1398.17,952.011 1399.2,995.318 1400.22,1150.77 1401.25,774.589 1402.28,651.652 1403.31,1020.87 1404.34,961.112 1405.37,516.38 1406.4,1216.52 1407.43,672.277 1408.45,914.6 1409.48,979.198 1410.51,933.655 1411.54,831.754 1412.57,783.036 1413.6,908.837 1414.63,1093.72 1415.65,873.39 1416.68,1225 1417.71,864.591 1418.74,789.296 1419.77,921.381 1420.8,1057.26 1421.83,1016 1422.85,994.235 1423.88,838.614 1424.91,916.808 1425.94,1064.89 1426.97,1092.3 1428,875.231 1429.03,1063.22 1430.06,1089.04 1431.08,1039.35 1432.11,1102.62 1433.14,949.098 1434.17,796.947 1435.2,1078.32 1436.23,1141.62 1437.26,1026.37 1438.28,928.825 1439.31,749.375 1440.34,970.895 1441.37,1223.87 1442.4,857.443 1443.43,1190.55 1444.46,961.965 1445.49,1207.76 1446.51,966.76 1447.54,1124.42 1448.57,890.543 1449.6,992.944 1450.63,1178.39 1451.66,846.477 1452.69,1314.25 1453.71,1036.01 1454.74,1150.11 1455.77,1036.99 1456.8,1060.47 1457.83,956.012 1458.86,1137.08 1459.89,797.061 1460.92,1035.87 1461.94,795.762 1462.97,1191.21 1464,1118.62 1465.03,1031.35 1466.06,767.814 1467.09,977.911 1468.12,761.913 1469.14,828.968 1470.17,981.583 1471.2,886.46 1472.23,984.526 1473.26,1088.57 1474.29,978.434 1475.32,1250.67 1476.34,1147.02 1477.37,1021.8 1478.4,1125.8 1479.43,894.697 1480.46,1146.55 1481.49,1096.99 1482.52,874.893 1483.55,1017.15 1484.57,853.651 1485.6,773.31 1486.63,932.804 1487.66,885.757 1488.69,966.182 1489.72,1124.68 1490.75,1038.07 1491.77,845.554 1492.8,1021.7 1493.83,1075.98 1494.86,1167.45 1495.89,941.838 1496.92,1282.44 1497.95,1161.58 1498.98,1034.9 1500,1042.69 1501.03,1065.07 1502.06,828.703 1503.09,1134.25 1504.12,951.745 1505.15,1173.17 1506.18,998.247 1507.2,909.241 1508.23,1163.59 1509.26,820.615 1510.29,1210.83 1511.32,956.688 1512.35,1040.45 1513.38,1066.04 1514.4,1215.03 1515.43,1213.62 1516.46,1182.27 1517.49,1016.71 1518.52,1040.04 1519.55,880.215 1520.58,1198.48 1521.61,1016.91 1522.63,1320.08 1523.66,1202.48 1524.69,967.548 1525.72,1174.23 1526.75,1135.31 1527.78,957.759 1528.81,1154.46 1529.83,1277.6 1530.86,945.856 1531.89,1271.07 1532.92,724.56 1533.95,1242.15 1534.98,1094.02 1536.01,1077.88 1537.04,912.262 1538.06,1120.57 1539.09,1280.39 1540.12,1304.28 1541.15,1126.38 1542.18,1287.53 1543.21,1067.53 1544.24,1087.25 1545.26,1155.35 1546.29,1219.21 1547.32,1355.73 1548.35,1059.01 1549.38,939.55 1550.41,844.932 1551.44,866.335 1552.47,1370.98 1553.49,1183.88 1554.52,1052.9 1555.55,970.387 1556.58,1152.46 1557.61,1067.7 1558.64,1093.71 1559.67,1130.07 1560.69,1097.68 1561.72,1110.94 1562.75,1206.58 1563.78,1149 1564.81,1174.41 1565.84,994.272 1566.87,1024.23 1567.89,1252.84 1568.92,1314.06 1569.95,996.413 1570.98,1231.22 1572.01,911.163 1573.04,1128.84 1574.07,900.963 1575.1,941.77 1576.12,1367.08 1577.15,1212.57 1578.18,1209.84 1579.21,1108.21 1580.24,981.195 1581.27,1151.72 1582.3,1047.93 1583.32,1167.63 1584.35,1176.94 1585.38,1191.62 1586.41,1232.63 1587.44,1080.04 1588.47,1117.01 1589.5,912.466 1590.53,1039.99 1591.55,1133.38 1592.58,1289.13 1593.61,1101.84 1594.64,1039.3 1595.67,1325.01 1596.7,965.127 1597.73,1161.03 1598.75,1019.67 1599.78,1078.73 1600.81,1047.75 1601.84,1099.57 1602.87,1215.04 1603.9,969.449 1604.93,1008.63 1605.95,1082.46 1606.98,1218.43 1608.01,1067.76 1609.04,1083.77 1610.07,738.4 1611.1,1177.65 1612.13,893.047 1613.16,759.025 1614.18,1212.85 1615.21,838.85 1616.24,1138.06 1617.27,1174.07 1618.3,1120.29 1619.33,942.645 1620.36,899.714 1621.38,868.713 1622.41,1171.69 1623.44,888.61 1624.47,974.049 1625.5,811.467 1626.53,1085.66 1627.56,1088.32 1628.59,913.65 1629.61,1097.17 1630.64,1271.19 1631.67,1153.75 1632.7,1185.34 1633.73,860.144 1634.76,742.737 1635.79,831.652 1636.81,942.318 1637.84,1184.01 1638.87,686.781 1639.9,1144.28 1640.93,1156.58 1641.96,1163.08 1642.99,778.394 1644.02,986.312 1645.04,722.845 1646.07,1039.27 1647.1,915.896 1648.13,1010.63 1649.16,1031.15 1650.19,1094.63 1651.22,1083.06 1652.24,1126.95 1653.27,751.11 1654.3,1140.67 1655.33,993.078 1656.36,1004.61 1657.39,1080.13 1658.42,1114.43 1659.44,1054.19 1660.47,1109.16 1661.5,1302.43 1662.53,1125 1663.56,948.626 1664.59,928.826 1665.62,1181.76 1666.65,857.425 1667.67,957.786 1668.7,1055.28 1669.73,890.068 1670.76,1063.84 1671.79,894.5 1672.82,791.869 1673.85,948.504 1674.87,740.228 1675.9,936.792 1676.93,1215.03 1677.96,864.015 1678.99,1018.96 1680.02,685.816 1681.05,1188.26 1682.08,1054.04 1683.1,770.006 1684.13,1213.01 1685.16,764.844 1686.19,1118.7 1687.22,1140.36 1688.25,1083.04 1689.28,841.478 1690.3,1096.61 1691.33,1010.94 1692.36,999.207 1693.39,883.949 1694.42,944.021 1695.45,879.817 1696.48,812.174 1697.5,998.515 1698.53,1032.41 1699.56,1186.84 1700.59,1073.4 1701.62,1053.68 1702.65,825.002 1703.68,831.158 1704.71,956.07 1705.73,866.525 1706.76,1014.99 1707.79,946.957 1708.82,740.072 1709.85,1012.65 1710.88,988.041 1711.91,1269.26 1712.93,793.728 1713.96,879.553 1714.99,1111.78 1716.02,1025.64 1717.05,1212.16 1718.08,1146.2 1719.11,1057.6 1720.14,1091.31 1721.16,857.334 1722.19,992.075 1723.22,991.342 1724.25,834.003 1725.28,798.729 1726.31,833.878 1727.34,1047.08 1728.36,1034.01 1729.39,988.214 1730.42,886.355 1731.45,1209.09 1732.48,702.424 1733.51,1009.93 1734.54,994.762 1735.57,954.432 1736.59,638.541 1737.62,864.406 1738.65,748.752 1739.68,1065.41 1740.71,1005.7 1741.74,869.163 1742.77,1128.03 1743.79,1047.48 1744.82,726.103 1745.85,1023.64 1746.88,762.789 1747.91,1098.17 1748.94,1012.44 1749.97,1011.99 1750.99,961.508 1752.02,932.477 1753.05,683.158 1754.08,972.735 1755.11,802.42 1756.14,1013.39 1757.17,923.223 1758.2,1009.12 1759.22,965.444 1760.25,945.459 1761.28,899.034 1762.31,1073.8 1763.34,784.698 1764.37,976.277 1765.4,921.802 1766.42,571.547 1767.45,1005.82 1768.48,1039.16 1769.51,1195.91 1770.54,969.149 1771.57,884.342 1772.6,909.505 1773.63,892.462 1774.65,960.22 1775.68,890.29 1776.71,927.753 1777.74,900.342 1778.77,1120.67 1779.8,969.084 1780.83,995.898 1781.85,517.013 1782.88,746.345 1783.91,1020.93 1784.94,1009.55 1785.97,819.627 1787,879.076 1788.03,863.817 1789.05,1042.15 1790.08,963.072 1791.11,550.085 1792.14,867.764 1793.17,692.642 1794.2,823.217 1795.23,900.219 1796.26,819.36 1797.28,825.181 1798.31,808.534 1799.34,685.845 1800.37,1018.98 1801.4,985.676 1802.43,958.048 1803.46,771.339 1804.48,1166.33 1805.51,967.242 1806.54,724.859 1807.57,917.402 1808.6,1042.94 1809.63,809.006 1810.66,664.85 1811.69,1083.11 1812.71,742.31 1813.74,638.598 1814.77,737.875 1815.8,844.1 1816.83,932.964 1817.86,1047.52 1818.89,747.028 1819.91,859.152 1820.94,979.327 1821.97,868.602 1823,975.565 1824.03,946.584 1825.06,1125.73 1826.09,1152.15 1827.12,678.598 1828.14,893.108 1829.17,823.419 1830.2,1015.19 1831.23,877.866 1832.26,551.134 1833.29,405.435 1834.32,904.364 1835.34,686.234 1836.37,907.534 1837.4,1107.78 1838.43,831.987 1839.46,1027.66 1840.49,674.801 1841.52,588.042 1842.54,798.99 1843.57,752.871 1844.6,797.849 1845.63,918.567 1846.66,886.368 1847.69,893.532 1848.72,663.613 1849.75,1080.85 1850.77,1008.05 1851.8,732.612 1852.83,891.421 1853.86,813.742 1854.89,839.028 1855.92,956.221 1856.95,930.404 1857.97,936.64 1859,925.598 1860.03,717.906 1861.06,876.982 1862.09,1054.05 1863.12,762.06 1864.15,1010.94 1865.18,717.885 1866.2,764.712 1867.23,910.64 1868.26,690.202 1869.29,512.515 1870.32,851.691 1871.35,1020.42 1872.38,840.903 1873.4,846.353 1874.43,942.298 1875.46,1210.68 1876.49,429.028 1877.52,989.053 1878.55,923.656 1879.58,642.525 1880.6,898.241 1881.63,870.24 1882.66,738.511 1883.69,1047.61 1884.72,697.91 1885.75,837.436 1886.78,1128.87 1887.81,694.888 1888.83,1094.78 1889.86,833.639 1890.89,994.29 1891.92,625.867 1892.95,943.405 1893.98,901.538 1895.01,862.653 1896.03,924.312 1897.06,926.694 1898.09,810.317 1899.12,892.068 1900.15,752.831 1901.18,805.401 1902.21,957.681 1903.24,1035.91 1904.26,1002.44 1905.29,785.382 1906.32,976.944 1907.35,1007.18 1908.38,966.225 1909.41,1001.48 1910.44,1082.07 1911.46,1104.31 1912.49,748.815 1913.52,506.427 1914.55,916.855 1915.58,1045.08 1916.61,1161.97 1917.64,895.214 1918.66,862.625 1919.69,1006.62 1920.72,683.783 1921.75,1086.06 1922.78,899.599 1923.81,986.527 1924.84,1197.16 1925.87,939.933 1926.89,1014.04 1927.92,824.405 1928.95,982.662 1929.98,950.917 1931.01,968.809 1932.04,830.229 1933.07,871.914 1934.09,964.864 1935.12,982.634 1936.15,747.506 1937.18,918.189 1938.21,850.153 1939.24,1096.48 1940.27,823.461 1941.3,994.378 1942.32,778.657 1943.35,768.475 1944.38,943.085 1945.41,746.316 1946.44,950.774 1947.47,937.575 1948.5,762.66 1949.52,1206.21 1950.55,1097.13 1951.58,1086.13 1952.61,715.702 1953.64,1068.56 1954.67,911.019 1955.7,821.929 1956.73,1078.38 1957.75,865.865 1958.78,773.557 1959.81,780.948 1960.84,1218.79 1961.87,976.258 1962.9,957.127 1963.93,739.47 1964.95,1074.47 1965.98,1097.73 1967.01,844.538 1968.04,991.796 1969.07,962.772 1970.1,576.3 1971.13,927.971 1972.15,1331.72 1973.18,1061.92 1974.21,995.491 1975.24,885.701 1976.27,1090.91 1977.3,1022.05 1978.33,1001.61 1979.36,1138.45 1980.38,931.584 1981.41,892.888 1982.44,837.743 1983.47,1213.59 1984.5,763.929 1985.53,882.297 1986.56,804.507 1987.58,1032.02 1988.61,936.477 1989.64,898.842 1990.67,965.227 1991.7,879.773 1992.73,1022.74 1993.76,918.175 1994.79,910.674 1995.81,1095.26 1996.84,813.63 1997.87,955.138 1998.9,953.243 1999.93,1005.12 2000.96,635.571 2001.99,889.581 2003.01,1109.19 2004.04,964.192 2005.07,1030.04 2006.1,1131.71 2007.13,783.603 2008.16,996.063 2009.19,1054.25 2010.21,1107.94 2011.24,1009.3 2012.27,939.762 2013.3,913.482 2014.33,889.16 2015.36,1131.51 2016.39,1191.66 2017.42,987.509 2018.44,1196.46 2019.47,1166.1 2020.5,705.56 2021.53,1445.72 2022.56,1114.21 2023.59,1067.98 2024.62,1109.06 2025.64,1154.89 2026.67,1174.08 2027.7,798.33 2028.73,1091.4 2029.76,1302.74 2030.79,1004.77 2031.82,973.949 2032.85,974.491 2033.87,1097.63 2034.9,1349.12 2035.93,967.211 2036.96,1009.69 2037.99,915.085 2039.02,1055.95 2040.05,1041.51 2041.07,1095.79 2042.1,974.749 2043.13,1163.66 2044.16,949.861 2045.19,1136.33 2046.22,877.416 2047.25,1067.88 2048.28,1246.35 2049.3,904.534 2050.33,976.187 2051.36,848.6 2052.39,835.903 2053.42,1087.54 2054.45,904.58 2055.48,1090.24 2056.5,917.881 2057.53,901.74 2058.56,917.327 2059.59,819.985 2060.62,998.874 2061.65,962.568 2062.68,1202.91 2063.7,819.546 2064.73,680.541 2065.76,927.28 2066.79,1030.82 2067.82,907.253 2068.85,1101.74 2069.88,927.381 2070.91,1110.8 2071.93,671.48 2072.96,380.036 2073.99,894.225 2075.02,893.576 2076.05,890.212 2077.08,1052.28 2078.11,1061.47 2079.13,1116.33 2080.16,861.929 2081.19,951.044 2082.22,878.376 2083.25,1075.76 2084.28,897.826 2085.31,1037.4 2086.34,789.353 2087.36,710.994 2088.39,992.245 2089.42,878.627 2090.45,683.576 2091.48,1019.01 2092.51,1054.46 2093.54,871.893 2094.56,1158.32 2095.59,933.33 2096.62,1017.93 2097.65,622.305 2098.68,920.485 2099.71,1084.41 2100.74,789.581 2101.76,931.433 2102.79,1174.67 2103.82,670.613 2104.85,928.82 2105.88,959.629 2106.91,884.986 2107.94,898.562 2108.97,1163.76 2109.99,1052.68 2111.02,1085.35 2112.05,786.853 2113.08,909.18 2114.11,952.374 2115.14,996.301 2116.17,1006.17 2117.19,1076.71 2118.22,1005.32 2119.25,768.817 2120.28,765.04 2121.31,931.469 2122.34,644.676 2123.37,972.917 2124.4,1046.09 2125.42,968.524 2126.45,887.018 2127.48,904.287 2128.51,1021.68 2129.54,1115.6 2130.57,1208.66 2131.6,1134.49 2132.62,769.474 2133.65,1032.87 2134.68,997.52 2135.71,818.231 2136.74,792.466 2137.77,977.573 2138.8,897.247 2139.83,574.9 2140.85,1015.56 2141.88,853.212 2142.91,1137.99 2143.94,890.685 2144.97,1185.38 2146,1020.77 2147.03,813.42 2148.05,1025.59 2149.08,1036.27 2150.11,1112.2 2151.14,1018.52 2152.17,885.013 2153.2,849.654 2154.23,1103.73 2155.25,1197.27 2156.28,1175.1 2157.31,868.226 2158.34,749.895 2159.37,976.175 2160.4,1023.76 2161.43,1074.47 2162.46,1118.17 2163.48,1039.49 2164.51,1128.11 2165.54,1116.17 2166.57,580.784 2167.6,813.135 2168.63,869.142 2169.66,814.243 2170.68,949.038 2171.71,783.402 2172.74,1028.45 2173.77,1083.3 2174.8,972.631 2175.83,1018.44 2176.86,753.204 2177.89,843.495 2178.91,1203.88 2179.94,874.874 2180.97,917.663 2182,721.633 2183.03,767.477 2184.06,948.612 2185.09,1059.26 2186.11,875.958 2187.14,962.839 2188.17,742.491 2189.2,567.748 2190.23,1134.03 2191.26,856.499 2192.29,759.456 2193.31,931.519 2194.34,726.798 2195.37,945.259 2196.4,1020.97 2197.43,952.64 2198.46,729.514 2199.49,676.64 2200.52,759.405 2201.54,1023.75 2202.57,1111.25 2203.6,1158.73 2204.63,935.256 2205.66,894.318 2206.69,808.123 2207.72,958.389 2208.74,778.606 2209.77,982.134 2210.8,1005.16 2211.83,902.723 2212.86,931.806 2213.89,896.676 2214.92,1209.55 2215.95,811.447 2216.97,623.406 2218,897.06 2219.03,743.777 2220.06,1016.5 2221.09,821.985 2222.12,924.112 2223.15,1120.97 2224.17,1267 2225.2,640.335 2226.23,939.829 2227.26,941.216 2228.29,695.955 2229.32,983.042 2230.35,927.314 2231.38,905.145 2232.4,1183.85 2233.43,688.006 2234.46,1041.06 2235.49,1024.72 2236.52,1008.87 2237.55,880.21 2238.58,824.316 2239.6,998.563 2240.63,907.876 2241.66,948.025 2242.69,1095.75 2243.72,489.721 2244.75,706.196 2245.78,975.282 2246.8,709.474 2247.83,1044.53 2248.86,1048.91 2249.89,738.84 2250.92,634.492 2251.95,963.491 2252.98,890.042 2254.01,736.305 2255.03,767.473 2256.06,1082.58 2257.09,848.372 2258.12,714.289 2259.15,847.326 2260.18,783.759 2261.21,667.098 2262.23,673.212 2263.26,888.075 2264.29,460.161 2265.32,1003.72 2266.35,844.39 2267.38,891.899 2268.41,754.946 2269.44,499.536 2270.46,956.903 2271.49,723.598 2272.52,965.157 2273.55,873.624 2274.58,789.75 2275.61,980.068 2276.64,791.324 2277.66,807.812 2278.69,705.289 2279.72,733.145 2280.75,659.311 2281.78,1062.27 2282.81,888.49 2283.84,1032.94 2284.86,437.671 2285.89,710.4 2286.92,851.011 2287.95,1073.16 2288.98,782.196 2290.01,888.457 2291.04,888.98 "/>
<path clip-path="url(#clip970)" d="M2009.56 198.898 L2280.06 198.898 L2280.06 95.2176 L2009.56 95.2176  Z" fill="#ffffff" fill-rule="evenodd" fill-opacity="1"/>
<polyline clip-path="url(#clip970)" style="stroke:#000000; stroke-linecap:round; stroke-linejoin:round; stroke-width:4; stroke-opacity:1; fill:none" points="2009.56,198.898 2280.06,198.898 2280.06,95.2176 2009.56,95.2176 2009.56,198.898 "/>
<polyline clip-path="url(#clip970)" style="stroke:#009af9; stroke-linecap:round; stroke-linejoin:round; stroke-width:4; stroke-opacity:1; fill:none" points="2033.79,147.058 2179.17,147.058 "/>
<path clip-path="url(#clip970)" d="M2217.25 166.745 Q2215.44 171.375 2213.73 172.787 Q2212.01 174.199 2209.14 174.199 L2205.74 174.199 L2205.74 170.634 L2208.24 170.634 Q2210 170.634 2210.97 169.8 Q2211.95 168.967 2213.13 165.865 L2213.89 163.921 L2203.4 138.412 L2207.92 138.412 L2216.02 158.689 L2224.12 138.412 L2228.64 138.412 L2217.25 166.745 Z" fill="#000000" fill-rule="nonzero" fill-opacity="1" /><path clip-path="url(#clip970)" d="M2235.93 160.402 L2243.57 160.402 L2243.57 134.037 L2235.26 135.703 L2235.26 131.444 L2243.52 129.778 L2248.2 129.778 L2248.2 160.402 L2255.83 160.402 L2255.83 164.338 L2235.93 164.338 L2235.93 160.402 Z" fill="#000000" fill-rule="nonzero" fill-opacity="1" /></svg>
