<?xml version="1.0" encoding="utf-8"?>
<svg xmlns="http://www.w3.org/2000/svg" xmlns:xlink="http://www.w3.org/1999/xlink" width="600" height="400" viewBox="0 0 2400 1600">
<defs>
  <clipPath id="clip130">
    <rect x="0" y="0" width="2400" height="1600"/>
  </clipPath>
</defs>
<path clip-path="url(#clip130)" d="M0 1600 L2400 1600 L2400 0 L0 0  Z" fill="#ffffff" fill-rule="evenodd" fill-opacity="1"/>
<defs>
  <clipPath id="clip131">
    <rect x="480" y="0" width="1681" height="1600"/>
  </clipPath>
</defs>
<path clip-path="url(#clip130)" d="M186.274 1486.45 L2352.76 1486.45 L2352.76 47.2441 L186.274 47.2441  Z" fill="#ffffff" fill-rule="evenodd" fill-opacity="1"/>
<defs>
  <clipPath id="clip132">
    <rect x="186" y="47" width="2167" height="1440"/>
  </clipPath>
</defs>
<polyline clip-path="url(#clip132)" style="stroke:#000000; stroke-linecap:round; stroke-linejoin:round; stroke-width:2; stroke-opacity:0.1; fill:none" points="247.59,1486.45 247.59,47.2441 "/>
<polyline clip-path="url(#clip132)" style="stroke:#000000; stroke-linecap:round; stroke-linejoin:round; stroke-width:2; stroke-opacity:0.1; fill:none" points="656.523,1486.45 656.523,47.2441 "/>
<polyline clip-path="url(#clip132)" style="stroke:#000000; stroke-linecap:round; stroke-linejoin:round; stroke-width:2; stroke-opacity:0.1; fill:none" points="1065.46,1486.45 1065.46,47.2441 "/>
<polyline clip-path="url(#clip132)" style="stroke:#000000; stroke-linecap:round; stroke-linejoin:round; stroke-width:2; stroke-opacity:0.1; fill:none" points="1474.39,1486.45 1474.39,47.2441 "/>
<polyline clip-path="url(#clip132)" style="stroke:#000000; stroke-linecap:round; stroke-linejoin:round; stroke-width:2; stroke-opacity:0.1; fill:none" points="1883.32,1486.45 1883.32,47.2441 "/>
<polyline clip-path="url(#clip132)" style="stroke:#000000; stroke-linecap:round; stroke-linejoin:round; stroke-width:2; stroke-opacity:0.1; fill:none" points="2292.26,1486.45 2292.26,47.2441 "/>
<polyline clip-path="url(#clip130)" style="stroke:#000000; stroke-linecap:round; stroke-linejoin:round; stroke-width:4; stroke-opacity:1; fill:none" points="186.274,1486.45 2352.76,1486.45 "/>
<polyline clip-path="url(#clip130)" style="stroke:#000000; stroke-linecap:round; stroke-linejoin:round; stroke-width:4; stroke-opacity:1; fill:none" points="247.59,1486.45 247.59,1467.55 "/>
<polyline clip-path="url(#clip130)" style="stroke:#000000; stroke-linecap:round; stroke-linejoin:round; stroke-width:4; stroke-opacity:1; fill:none" points="656.523,1486.45 656.523,1467.55 "/>
<polyline clip-path="url(#clip130)" style="stroke:#000000; stroke-linecap:round; stroke-linejoin:round; stroke-width:4; stroke-opacity:1; fill:none" points="1065.46,1486.45 1065.46,1467.55 "/>
<polyline clip-path="url(#clip130)" style="stroke:#000000; stroke-linecap:round; stroke-linejoin:round; stroke-width:4; stroke-opacity:1; fill:none" points="1474.39,1486.45 1474.39,1467.55 "/>
<polyline clip-path="url(#clip130)" style="stroke:#000000; stroke-linecap:round; stroke-linejoin:round; stroke-width:4; stroke-opacity:1; fill:none" points="1883.32,1486.45 1883.32,1467.55 "/>
<polyline clip-path="url(#clip130)" style="stroke:#000000; stroke-linecap:round; stroke-linejoin:round; stroke-width:4; stroke-opacity:1; fill:none" points="2292.26,1486.45 2292.26,1467.55 "/>
<path clip-path="url(#clip130)" d="M247.59 1517.37 Q243.978 1517.37 242.15 1520.93 Q240.344 1524.47 240.344 1531.6 Q240.344 1538.71 242.15 1542.27 Q243.978 1545.82 247.59 1545.82 Q251.224 1545.82 253.029 1542.27 Q254.858 1538.71 254.858 1531.6 Q254.858 1524.47 253.029 1520.93 Q251.224 1517.37 247.59 1517.37 M247.59 1513.66 Q253.4 1513.66 256.455 1518.27 Q259.534 1522.85 259.534 1531.6 Q259.534 1540.33 256.455 1544.94 Q253.4 1549.52 247.59 1549.52 Q241.779 1549.52 238.701 1544.94 Q235.645 1540.33 235.645 1531.6 Q235.645 1522.85 238.701 1518.27 Q241.779 1513.66 247.59 1513.66 Z" fill="#000000" fill-rule="nonzero" fill-opacity="1" /><path clip-path="url(#clip130)" d="M616.142 1514.29 L634.498 1514.29 L634.498 1518.22 L620.424 1518.22 L620.424 1526.7 Q621.442 1526.35 622.461 1526.19 Q623.479 1526 624.498 1526 Q630.285 1526 633.665 1529.17 Q637.044 1532.34 637.044 1537.76 Q637.044 1543.34 633.572 1546.44 Q630.1 1549.52 623.78 1549.52 Q621.604 1549.52 619.336 1549.15 Q617.091 1548.78 614.683 1548.04 L614.683 1543.34 Q616.767 1544.47 618.989 1545.03 Q621.211 1545.58 623.688 1545.58 Q627.692 1545.58 630.03 1543.48 Q632.368 1541.37 632.368 1537.76 Q632.368 1534.15 630.03 1532.04 Q627.692 1529.94 623.688 1529.94 Q621.813 1529.94 619.938 1530.35 Q618.086 1530.77 616.142 1531.65 L616.142 1514.29 Z" fill="#000000" fill-rule="nonzero" fill-opacity="1" /><path clip-path="url(#clip130)" d="M656.257 1517.37 Q652.646 1517.37 650.817 1520.93 Q649.012 1524.47 649.012 1531.6 Q649.012 1538.71 650.817 1542.27 Q652.646 1545.82 656.257 1545.82 Q659.891 1545.82 661.697 1542.27 Q663.526 1538.71 663.526 1531.6 Q663.526 1524.47 661.697 1520.93 Q659.891 1517.37 656.257 1517.37 M656.257 1513.66 Q662.067 1513.66 665.123 1518.27 Q668.201 1522.85 668.201 1531.6 Q668.201 1540.33 665.123 1544.94 Q662.067 1549.52 656.257 1549.52 Q650.447 1549.52 647.368 1544.94 Q644.313 1540.33 644.313 1531.6 Q644.313 1522.85 647.368 1518.27 Q650.447 1513.66 656.257 1513.66 Z" fill="#000000" fill-rule="nonzero" fill-opacity="1" /><path clip-path="url(#clip130)" d="M686.419 1517.37 Q682.808 1517.37 680.979 1520.93 Q679.174 1524.47 679.174 1531.6 Q679.174 1538.71 680.979 1542.27 Q682.808 1545.82 686.419 1545.82 Q690.053 1545.82 691.859 1542.27 Q693.687 1538.71 693.687 1531.6 Q693.687 1524.47 691.859 1520.93 Q690.053 1517.37 686.419 1517.37 M686.419 1513.66 Q692.229 1513.66 695.285 1518.27 Q698.363 1522.85 698.363 1531.6 Q698.363 1540.33 695.285 1544.94 Q692.229 1549.52 686.419 1549.52 Q680.609 1549.52 677.53 1544.94 Q674.475 1540.33 674.475 1531.6 Q674.475 1522.85 677.53 1518.27 Q680.609 1513.66 686.419 1513.66 Z" fill="#000000" fill-rule="nonzero" fill-opacity="1" /><path clip-path="url(#clip130)" d="M1009.98 1544.91 L1017.62 1544.91 L1017.62 1518.55 L1009.31 1520.21 L1009.31 1515.95 L1017.58 1514.29 L1022.25 1514.29 L1022.25 1544.91 L1029.89 1544.91 L1029.89 1548.85 L1009.98 1548.85 L1009.98 1544.91 Z" fill="#000000" fill-rule="nonzero" fill-opacity="1" /><path clip-path="url(#clip130)" d="M1049.33 1517.37 Q1045.72 1517.37 1043.89 1520.93 Q1042.09 1524.47 1042.09 1531.6 Q1042.09 1538.71 1043.89 1542.27 Q1045.72 1545.82 1049.33 1545.82 Q1052.97 1545.82 1054.77 1542.27 Q1056.6 1538.71 1056.6 1531.6 Q1056.6 1524.47 1054.77 1520.93 Q1052.97 1517.37 1049.33 1517.37 M1049.33 1513.66 Q1055.14 1513.66 1058.2 1518.27 Q1061.28 1522.85 1061.28 1531.6 Q1061.28 1540.33 1058.2 1544.94 Q1055.14 1549.52 1049.33 1549.52 Q1043.52 1549.52 1040.45 1544.94 Q1037.39 1540.33 1037.39 1531.6 Q1037.39 1522.85 1040.45 1518.27 Q1043.52 1513.66 1049.33 1513.66 Z" fill="#000000" fill-rule="nonzero" fill-opacity="1" /><path clip-path="url(#clip130)" d="M1079.5 1517.37 Q1075.89 1517.37 1074.06 1520.93 Q1072.25 1524.47 1072.25 1531.6 Q1072.25 1538.71 1074.06 1542.27 Q1075.89 1545.82 1079.5 1545.82 Q1083.13 1545.82 1084.94 1542.27 Q1086.76 1538.71 1086.76 1531.6 Q1086.76 1524.47 1084.94 1520.93 Q1083.13 1517.37 1079.5 1517.37 M1079.5 1513.66 Q1085.31 1513.66 1088.36 1518.27 Q1091.44 1522.85 1091.44 1531.6 Q1091.44 1540.33 1088.36 1544.94 Q1085.31 1549.52 1079.5 1549.52 Q1073.69 1549.52 1070.61 1544.94 Q1067.55 1540.33 1067.55 1531.6 Q1067.55 1522.85 1070.61 1518.27 Q1073.69 1513.66 1079.5 1513.66 Z" fill="#000000" fill-rule="nonzero" fill-opacity="1" /><path clip-path="url(#clip130)" d="M1109.66 1517.37 Q1106.05 1517.37 1104.22 1520.93 Q1102.41 1524.47 1102.41 1531.6 Q1102.41 1538.71 1104.22 1542.27 Q1106.05 1545.82 1109.66 1545.82 Q1113.29 1545.82 1115.1 1542.27 Q1116.93 1538.71 1116.93 1531.6 Q1116.93 1524.47 1115.1 1520.93 Q1113.29 1517.37 1109.66 1517.37 M1109.66 1513.66 Q1115.47 1513.66 1118.52 1518.27 Q1121.6 1522.85 1121.6 1531.6 Q1121.6 1540.33 1118.52 1544.94 Q1115.47 1549.52 1109.66 1549.52 Q1103.85 1549.52 1100.77 1544.94 Q1097.71 1540.33 1097.71 1531.6 Q1097.71 1522.85 1100.77 1518.27 Q1103.85 1513.66 1109.66 1513.66 Z" fill="#000000" fill-rule="nonzero" fill-opacity="1" /><path clip-path="url(#clip130)" d="M1418.92 1544.91 L1426.56 1544.91 L1426.56 1518.55 L1418.25 1520.21 L1418.25 1515.95 L1426.51 1514.29 L1431.18 1514.29 L1431.18 1544.91 L1438.82 1544.91 L1438.82 1548.85 L1418.92 1548.85 L1418.92 1544.91 Z" fill="#000000" fill-rule="nonzero" fill-opacity="1" /><path clip-path="url(#clip130)" d="M1448.31 1514.29 L1466.67 1514.29 L1466.67 1518.22 L1452.6 1518.22 L1452.6 1526.7 Q1453.62 1526.35 1454.63 1526.19 Q1455.65 1526 1456.67 1526 Q1462.46 1526 1465.84 1529.17 Q1469.22 1532.34 1469.22 1537.76 Q1469.22 1543.34 1465.74 1546.44 Q1462.27 1549.52 1455.95 1549.52 Q1453.78 1549.52 1451.51 1549.15 Q1449.26 1548.78 1446.86 1548.04 L1446.86 1543.34 Q1448.94 1544.47 1451.16 1545.03 Q1453.38 1545.58 1455.86 1545.58 Q1459.87 1545.58 1462.2 1543.48 Q1464.54 1541.37 1464.54 1537.76 Q1464.54 1534.15 1462.2 1532.04 Q1459.87 1529.94 1455.86 1529.94 Q1453.99 1529.94 1452.11 1530.35 Q1450.26 1530.77 1448.31 1531.65 L1448.31 1514.29 Z" fill="#000000" fill-rule="nonzero" fill-opacity="1" /><path clip-path="url(#clip130)" d="M1488.43 1517.37 Q1484.82 1517.37 1482.99 1520.93 Q1481.18 1524.47 1481.18 1531.6 Q1481.18 1538.71 1482.99 1542.27 Q1484.82 1545.82 1488.43 1545.82 Q1492.06 1545.82 1493.87 1542.27 Q1495.7 1538.71 1495.7 1531.6 Q1495.7 1524.47 1493.87 1520.93 Q1492.06 1517.37 1488.43 1517.37 M1488.43 1513.66 Q1494.24 1513.66 1497.3 1518.27 Q1500.37 1522.85 1500.37 1531.6 Q1500.37 1540.33 1497.3 1544.94 Q1494.24 1549.52 1488.43 1549.52 Q1482.62 1549.52 1479.54 1544.94 Q1476.49 1540.33 1476.49 1531.6 Q1476.49 1522.85 1479.54 1518.27 Q1482.62 1513.66 1488.43 1513.66 Z" fill="#000000" fill-rule="nonzero" fill-opacity="1" /><path clip-path="url(#clip130)" d="M1518.59 1517.37 Q1514.98 1517.37 1513.15 1520.93 Q1511.35 1524.47 1511.35 1531.6 Q1511.35 1538.71 1513.15 1542.27 Q1514.98 1545.82 1518.59 1545.82 Q1522.23 1545.82 1524.03 1542.27 Q1525.86 1538.71 1525.86 1531.6 Q1525.86 1524.47 1524.03 1520.93 Q1522.23 1517.37 1518.59 1517.37 M1518.59 1513.66 Q1524.4 1513.66 1527.46 1518.27 Q1530.54 1522.85 1530.54 1531.6 Q1530.54 1540.33 1527.46 1544.94 Q1524.4 1549.52 1518.59 1549.52 Q1512.78 1549.52 1509.7 1544.94 Q1506.65 1540.33 1506.65 1531.6 Q1506.65 1522.85 1509.7 1518.27 Q1512.78 1513.66 1518.59 1513.66 Z" fill="#000000" fill-rule="nonzero" fill-opacity="1" /><path clip-path="url(#clip130)" d="M1831.94 1544.91 L1848.26 1544.91 L1848.26 1548.85 L1826.31 1548.85 L1826.31 1544.91 Q1828.97 1542.16 1833.56 1537.53 Q1838.16 1532.88 1839.34 1531.53 Q1841.59 1529.01 1842.47 1527.27 Q1843.37 1525.51 1843.37 1523.82 Q1843.37 1521.07 1841.43 1519.33 Q1839.51 1517.6 1836.4 1517.6 Q1834.2 1517.6 1831.75 1518.36 Q1829.32 1519.13 1826.54 1520.68 L1826.54 1515.95 Q1829.37 1514.82 1831.82 1514.24 Q1834.27 1513.66 1836.31 1513.66 Q1841.68 1513.66 1844.88 1516.35 Q1848.07 1519.03 1848.07 1523.52 Q1848.07 1525.65 1847.26 1527.57 Q1846.47 1529.47 1844.37 1532.07 Q1843.79 1532.74 1840.69 1535.95 Q1837.58 1539.15 1831.94 1544.91 Z" fill="#000000" fill-rule="nonzero" fill-opacity="1" /><path clip-path="url(#clip130)" d="M1868.07 1517.37 Q1864.46 1517.37 1862.63 1520.93 Q1860.82 1524.47 1860.82 1531.6 Q1860.82 1538.71 1862.63 1542.27 Q1864.46 1545.82 1868.07 1545.82 Q1871.7 1545.82 1873.51 1542.27 Q1875.34 1538.71 1875.34 1531.6 Q1875.34 1524.47 1873.51 1520.93 Q1871.7 1517.37 1868.07 1517.37 M1868.07 1513.66 Q1873.88 1513.66 1876.94 1518.27 Q1880.01 1522.85 1880.01 1531.6 Q1880.01 1540.33 1876.94 1544.94 Q1873.88 1549.52 1868.07 1549.52 Q1862.26 1549.52 1859.18 1544.94 Q1856.13 1540.33 1856.13 1531.6 Q1856.13 1522.85 1859.18 1518.27 Q1862.26 1513.66 1868.07 1513.66 Z" fill="#000000" fill-rule="nonzero" fill-opacity="1" /><path clip-path="url(#clip130)" d="M1898.23 1517.37 Q1894.62 1517.37 1892.79 1520.93 Q1890.99 1524.47 1890.99 1531.6 Q1890.99 1538.71 1892.79 1542.27 Q1894.62 1545.82 1898.23 1545.82 Q1901.87 1545.82 1903.67 1542.27 Q1905.5 1538.71 1905.5 1531.6 Q1905.5 1524.47 1903.67 1520.93 Q1901.87 1517.37 1898.23 1517.37 M1898.23 1513.66 Q1904.04 1513.66 1907.1 1518.27 Q1910.18 1522.85 1910.18 1531.6 Q1910.18 1540.33 1907.1 1544.94 Q1904.04 1549.52 1898.23 1549.52 Q1892.42 1549.52 1889.34 1544.94 Q1886.29 1540.33 1886.29 1531.6 Q1886.29 1522.85 1889.34 1518.27 Q1892.42 1513.66 1898.23 1513.66 Z" fill="#000000" fill-rule="nonzero" fill-opacity="1" /><path clip-path="url(#clip130)" d="M1928.39 1517.37 Q1924.78 1517.37 1922.95 1520.93 Q1921.15 1524.47 1921.15 1531.6 Q1921.15 1538.71 1922.95 1542.27 Q1924.78 1545.82 1928.39 1545.82 Q1932.03 1545.82 1933.83 1542.27 Q1935.66 1538.71 1935.66 1531.6 Q1935.66 1524.47 1933.83 1520.93 Q1932.03 1517.37 1928.39 1517.37 M1928.39 1513.66 Q1934.2 1513.66 1937.26 1518.27 Q1940.34 1522.85 1940.34 1531.6 Q1940.34 1540.33 1937.26 1544.94 Q1934.2 1549.52 1928.39 1549.52 Q1922.58 1549.52 1919.5 1544.94 Q1916.45 1540.33 1916.45 1531.6 Q1916.45 1522.85 1919.5 1518.27 Q1922.58 1513.66 1928.39 1513.66 Z" fill="#000000" fill-rule="nonzero" fill-opacity="1" /><path clip-path="url(#clip130)" d="M2240.87 1544.91 L2257.19 1544.91 L2257.19 1548.85 L2235.24 1548.85 L2235.24 1544.91 Q2237.91 1542.16 2242.49 1537.53 Q2247.1 1532.88 2248.28 1531.53 Q2250.52 1529.01 2251.4 1527.27 Q2252.3 1525.51 2252.3 1523.82 Q2252.3 1521.07 2250.36 1519.33 Q2248.44 1517.6 2245.34 1517.6 Q2243.14 1517.6 2240.68 1518.36 Q2238.25 1519.13 2235.48 1520.68 L2235.48 1515.95 Q2238.3 1514.82 2240.75 1514.24 Q2243.21 1513.66 2245.24 1513.66 Q2250.61 1513.66 2253.81 1516.35 Q2257 1519.03 2257 1523.52 Q2257 1525.65 2256.19 1527.57 Q2255.41 1529.47 2253.3 1532.07 Q2252.72 1532.74 2249.62 1535.95 Q2246.52 1539.15 2240.87 1544.91 Z" fill="#000000" fill-rule="nonzero" fill-opacity="1" /><path clip-path="url(#clip130)" d="M2267.05 1514.29 L2285.41 1514.29 L2285.41 1518.22 L2271.33 1518.22 L2271.33 1526.7 Q2272.35 1526.35 2273.37 1526.19 Q2274.39 1526 2275.41 1526 Q2281.19 1526 2284.57 1529.17 Q2287.95 1532.34 2287.95 1537.76 Q2287.95 1543.34 2284.48 1546.44 Q2281.01 1549.52 2274.69 1549.52 Q2272.51 1549.52 2270.24 1549.15 Q2268 1548.78 2265.59 1548.04 L2265.59 1543.34 Q2267.68 1544.47 2269.9 1545.03 Q2272.12 1545.58 2274.6 1545.58 Q2278.6 1545.58 2280.94 1543.48 Q2283.28 1541.37 2283.28 1537.76 Q2283.28 1534.15 2280.94 1532.04 Q2278.6 1529.94 2274.6 1529.94 Q2272.72 1529.94 2270.85 1530.35 Q2268.99 1530.77 2267.05 1531.65 L2267.05 1514.29 Z" fill="#000000" fill-rule="nonzero" fill-opacity="1" /><path clip-path="url(#clip130)" d="M2307.17 1517.37 Q2303.55 1517.37 2301.73 1520.93 Q2299.92 1524.47 2299.92 1531.6 Q2299.92 1538.71 2301.73 1542.27 Q2303.55 1545.82 2307.17 1545.82 Q2310.8 1545.82 2312.61 1542.27 Q2314.43 1538.71 2314.43 1531.6 Q2314.43 1524.47 2312.61 1520.93 Q2310.8 1517.37 2307.17 1517.37 M2307.17 1513.66 Q2312.98 1513.66 2316.03 1518.27 Q2319.11 1522.85 2319.11 1531.6 Q2319.11 1540.33 2316.03 1544.94 Q2312.98 1549.52 2307.17 1549.52 Q2301.36 1549.52 2298.28 1544.94 Q2295.22 1540.33 2295.22 1531.6 Q2295.22 1522.85 2298.28 1518.27 Q2301.36 1513.66 2307.17 1513.66 Z" fill="#000000" fill-rule="nonzero" fill-opacity="1" /><path clip-path="url(#clip130)" d="M2337.33 1517.37 Q2333.72 1517.37 2331.89 1520.93 Q2330.08 1524.47 2330.08 1531.6 Q2330.08 1538.71 2331.89 1542.27 Q2333.72 1545.82 2337.33 1545.82 Q2340.96 1545.82 2342.77 1542.27 Q2344.6 1538.71 2344.6 1531.6 Q2344.6 1524.47 2342.77 1520.93 Q2340.96 1517.37 2337.33 1517.37 M2337.33 1513.66 Q2343.14 1513.66 2346.19 1518.27 Q2349.27 1522.85 2349.27 1531.6 Q2349.27 1540.33 2346.19 1544.94 Q2343.14 1549.52 2337.33 1549.52 Q2331.52 1549.52 2328.44 1544.94 Q2325.38 1540.33 2325.38 1531.6 Q2325.38 1522.85 2328.44 1518.27 Q2331.52 1513.66 2337.33 1513.66 Z" fill="#000000" fill-rule="nonzero" fill-opacity="1" /><polyline clip-path="url(#clip132)" style="stroke:#000000; stroke-linecap:round; stroke-linejoin:round; stroke-width:2; stroke-opacity:0.1; fill:none" points="186.274,1306.02 2352.76,1306.02 "/>
<polyline clip-path="url(#clip132)" style="stroke:#000000; stroke-linecap:round; stroke-linejoin:round; stroke-width:2; stroke-opacity:0.1; fill:none" points="186.274,1046.81 2352.76,1046.81 "/>
<polyline clip-path="url(#clip132)" style="stroke:#000000; stroke-linecap:round; stroke-linejoin:round; stroke-width:2; stroke-opacity:0.1; fill:none" points="186.274,787.605 2352.76,787.605 "/>
<polyline clip-path="url(#clip132)" style="stroke:#000000; stroke-linecap:round; stroke-linejoin:round; stroke-width:2; stroke-opacity:0.1; fill:none" points="186.274,528.398 2352.76,528.398 "/>
<polyline clip-path="url(#clip132)" style="stroke:#000000; stroke-linecap:round; stroke-linejoin:round; stroke-width:2; stroke-opacity:0.1; fill:none" points="186.274,269.192 2352.76,269.192 "/>
<polyline clip-path="url(#clip130)" style="stroke:#000000; stroke-linecap:round; stroke-linejoin:round; stroke-width:4; stroke-opacity:1; fill:none" points="186.274,1486.45 186.274,47.2441 "/>
<polyline clip-path="url(#clip130)" style="stroke:#000000; stroke-linecap:round; stroke-linejoin:round; stroke-width:4; stroke-opacity:1; fill:none" points="186.274,1306.02 205.172,1306.02 "/>
<polyline clip-path="url(#clip130)" style="stroke:#000000; stroke-linecap:round; stroke-linejoin:round; stroke-width:4; stroke-opacity:1; fill:none" points="186.274,1046.81 205.172,1046.81 "/>
<polyline clip-path="url(#clip130)" style="stroke:#000000; stroke-linecap:round; stroke-linejoin:round; stroke-width:4; stroke-opacity:1; fill:none" points="186.274,787.605 205.172,787.605 "/>
<polyline clip-path="url(#clip130)" style="stroke:#000000; stroke-linecap:round; stroke-linejoin:round; stroke-width:4; stroke-opacity:1; fill:none" points="186.274,528.398 205.172,528.398 "/>
<polyline clip-path="url(#clip130)" style="stroke:#000000; stroke-linecap:round; stroke-linejoin:round; stroke-width:4; stroke-opacity:1; fill:none" points="186.274,269.192 205.172,269.192 "/>
<path clip-path="url(#clip130)" d="M63.9319 1291.82 Q60.3208 1291.82 58.4921 1295.38 Q56.6865 1298.92 56.6865 1306.05 Q56.6865 1313.16 58.4921 1316.72 Q60.3208 1320.27 63.9319 1320.27 Q67.5661 1320.27 69.3717 1316.72 Q71.2004 1313.16 71.2004 1306.05 Q71.2004 1298.92 69.3717 1295.38 Q67.5661 1291.82 63.9319 1291.82 M63.9319 1288.11 Q69.742 1288.11 72.7976 1292.72 Q75.8763 1297.3 75.8763 1306.05 Q75.8763 1314.78 72.7976 1319.39 Q69.742 1323.97 63.9319 1323.97 Q58.1217 1323.97 55.043 1319.39 Q51.9875 1314.78 51.9875 1306.05 Q51.9875 1297.3 55.043 1292.72 Q58.1217 1288.11 63.9319 1288.11 Z" fill="#000000" fill-rule="nonzero" fill-opacity="1" /><path clip-path="url(#clip130)" d="M84.0938 1317.42 L88.978 1317.42 L88.978 1323.3 L84.0938 1323.3 L84.0938 1317.42 Z" fill="#000000" fill-rule="nonzero" fill-opacity="1" /><path clip-path="url(#clip130)" d="M109.742 1304.16 Q106.594 1304.16 104.742 1306.31 Q102.913 1308.46 102.913 1312.21 Q102.913 1315.94 104.742 1318.11 Q106.594 1320.27 109.742 1320.27 Q112.89 1320.27 114.719 1318.11 Q116.57 1315.94 116.57 1312.21 Q116.57 1308.46 114.719 1306.31 Q112.89 1304.16 109.742 1304.16 M119.024 1289.5 L119.024 1293.76 Q117.265 1292.93 115.459 1292.49 Q113.677 1292.05 111.918 1292.05 Q107.288 1292.05 104.834 1295.17 Q102.404 1298.3 102.057 1304.62 Q103.422 1302.6 105.483 1301.54 Q107.543 1300.45 110.02 1300.45 Q115.228 1300.45 118.237 1303.62 Q121.27 1306.77 121.27 1312.21 Q121.27 1317.53 118.121 1320.75 Q114.973 1323.97 109.742 1323.97 Q103.746 1323.97 100.575 1319.39 Q97.4039 1314.78 97.4039 1306.05 Q97.4039 1297.86 101.293 1293 Q105.182 1288.11 111.733 1288.11 Q113.492 1288.11 115.274 1288.46 Q117.08 1288.81 119.024 1289.5 Z" fill="#000000" fill-rule="nonzero" fill-opacity="1" /><path clip-path="url(#clip130)" d="M129.371 1288.74 L147.728 1288.74 L147.728 1292.67 L133.654 1292.67 L133.654 1301.15 Q134.672 1300.8 135.691 1300.64 Q136.709 1300.45 137.728 1300.45 Q143.515 1300.45 146.894 1303.62 Q150.274 1306.79 150.274 1312.21 Q150.274 1317.79 146.802 1320.89 Q143.33 1323.97 137.01 1323.97 Q134.834 1323.97 132.566 1323.6 Q130.32 1323.23 127.913 1322.49 L127.913 1317.79 Q129.996 1318.92 132.219 1319.48 Q134.441 1320.03 136.918 1320.03 Q140.922 1320.03 143.26 1317.93 Q145.598 1315.82 145.598 1312.21 Q145.598 1308.6 143.26 1306.49 Q140.922 1304.39 136.918 1304.39 Q135.043 1304.39 133.168 1304.8 Q131.316 1305.22 129.371 1306.1 L129.371 1288.74 Z" fill="#000000" fill-rule="nonzero" fill-opacity="1" /><path clip-path="url(#clip130)" d="M62.9365 1032.61 Q59.3254 1032.61 57.4967 1036.18 Q55.6912 1039.72 55.6912 1046.85 Q55.6912 1053.95 57.4967 1057.52 Q59.3254 1061.06 62.9365 1061.06 Q66.5707 1061.06 68.3763 1057.52 Q70.205 1053.95 70.205 1046.85 Q70.205 1039.72 68.3763 1036.18 Q66.5707 1032.61 62.9365 1032.61 M62.9365 1028.91 Q68.7467 1028.91 71.8022 1033.51 Q74.8809 1038.1 74.8809 1046.85 Q74.8809 1055.57 71.8022 1060.18 Q68.7467 1064.76 62.9365 1064.76 Q57.1264 1064.76 54.0477 1060.18 Q50.9921 1055.57 50.9921 1046.85 Q50.9921 1038.1 54.0477 1033.51 Q57.1264 1028.91 62.9365 1028.91 Z" fill="#000000" fill-rule="nonzero" fill-opacity="1" /><path clip-path="url(#clip130)" d="M83.0984 1058.21 L87.9827 1058.21 L87.9827 1064.09 L83.0984 1064.09 L83.0984 1058.21 Z" fill="#000000" fill-rule="nonzero" fill-opacity="1" /><path clip-path="url(#clip130)" d="M96.9872 1029.53 L119.209 1029.53 L119.209 1031.52 L106.663 1064.09 L101.779 1064.09 L113.584 1033.47 L96.9872 1033.47 L96.9872 1029.53 Z" fill="#000000" fill-rule="nonzero" fill-opacity="1" /><path clip-path="url(#clip130)" d="M138.33 1032.61 Q134.719 1032.61 132.89 1036.18 Q131.084 1039.72 131.084 1046.85 Q131.084 1053.95 132.89 1057.52 Q134.719 1061.06 138.33 1061.06 Q141.964 1061.06 143.769 1057.52 Q145.598 1053.95 145.598 1046.85 Q145.598 1039.72 143.769 1036.18 Q141.964 1032.61 138.33 1032.61 M138.33 1028.91 Q144.14 1028.91 147.195 1033.51 Q150.274 1038.1 150.274 1046.85 Q150.274 1055.57 147.195 1060.18 Q144.14 1064.76 138.33 1064.76 Q132.519 1064.76 129.441 1060.18 Q126.385 1055.57 126.385 1046.85 Q126.385 1038.1 129.441 1033.51 Q132.519 1028.91 138.33 1028.91 Z" fill="#000000" fill-rule="nonzero" fill-opacity="1" /><path clip-path="url(#clip130)" d="M63.9319 773.404 Q60.3208 773.404 58.4921 776.969 Q56.6865 780.51 56.6865 787.64 Q56.6865 794.746 58.4921 798.311 Q60.3208 801.853 63.9319 801.853 Q67.5661 801.853 69.3717 798.311 Q71.2004 794.746 71.2004 787.64 Q71.2004 780.51 69.3717 776.969 Q67.5661 773.404 63.9319 773.404 M63.9319 769.7 Q69.742 769.7 72.7976 774.307 Q75.8763 778.89 75.8763 787.64 Q75.8763 796.367 72.7976 800.973 Q69.742 805.556 63.9319 805.556 Q58.1217 805.556 55.043 800.973 Q51.9875 796.367 51.9875 787.64 Q51.9875 778.89 55.043 774.307 Q58.1217 769.7 63.9319 769.7 Z" fill="#000000" fill-rule="nonzero" fill-opacity="1" /><path clip-path="url(#clip130)" d="M84.0938 799.006 L88.978 799.006 L88.978 804.885 L84.0938 804.885 L84.0938 799.006 Z" fill="#000000" fill-rule="nonzero" fill-opacity="1" /><path clip-path="url(#clip130)" d="M97.9826 770.325 L120.205 770.325 L120.205 772.316 L107.658 804.885 L102.774 804.885 L114.58 774.26 L97.9826 774.26 L97.9826 770.325 Z" fill="#000000" fill-rule="nonzero" fill-opacity="1" /><path clip-path="url(#clip130)" d="M129.371 770.325 L147.728 770.325 L147.728 774.26 L133.654 774.26 L133.654 782.732 Q134.672 782.385 135.691 782.223 Q136.709 782.038 137.728 782.038 Q143.515 782.038 146.894 785.209 Q150.274 788.381 150.274 793.797 Q150.274 799.376 146.802 802.478 Q143.33 805.556 137.01 805.556 Q134.834 805.556 132.566 805.186 Q130.32 804.816 127.913 804.075 L127.913 799.376 Q129.996 800.51 132.219 801.066 Q134.441 801.621 136.918 801.621 Q140.922 801.621 143.26 799.515 Q145.598 797.408 145.598 793.797 Q145.598 790.186 143.26 788.08 Q140.922 785.973 136.918 785.973 Q135.043 785.973 133.168 786.39 Q131.316 786.806 129.371 787.686 L129.371 770.325 Z" fill="#000000" fill-rule="nonzero" fill-opacity="1" /><path clip-path="url(#clip130)" d="M62.9365 514.197 Q59.3254 514.197 57.4967 517.762 Q55.6912 521.303 55.6912 528.433 Q55.6912 535.54 57.4967 539.104 Q59.3254 542.646 62.9365 542.646 Q66.5707 542.646 68.3763 539.104 Q70.205 535.54 70.205 528.433 Q70.205 521.303 68.3763 517.762 Q66.5707 514.197 62.9365 514.197 M62.9365 510.493 Q68.7467 510.493 71.8022 515.1 Q74.8809 519.683 74.8809 528.433 Q74.8809 537.16 71.8022 541.766 Q68.7467 546.35 62.9365 546.35 Q57.1264 546.35 54.0477 541.766 Q50.9921 537.16 50.9921 528.433 Q50.9921 519.683 54.0477 515.1 Q57.1264 510.493 62.9365 510.493 Z" fill="#000000" fill-rule="nonzero" fill-opacity="1" /><path clip-path="url(#clip130)" d="M83.0984 539.799 L87.9827 539.799 L87.9827 545.678 L83.0984 545.678 L83.0984 539.799 Z" fill="#000000" fill-rule="nonzero" fill-opacity="1" /><path clip-path="url(#clip130)" d="M108.168 529.266 Q104.834 529.266 102.913 531.049 Q101.015 532.831 101.015 535.956 Q101.015 539.081 102.913 540.864 Q104.834 542.646 108.168 542.646 Q111.501 542.646 113.422 540.864 Q115.344 539.058 115.344 535.956 Q115.344 532.831 113.422 531.049 Q111.524 529.266 108.168 529.266 M103.492 527.276 Q100.483 526.535 98.7928 524.475 Q97.1261 522.415 97.1261 519.452 Q97.1261 515.308 100.066 512.901 Q103.029 510.493 108.168 510.493 Q113.33 510.493 116.27 512.901 Q119.209 515.308 119.209 519.452 Q119.209 522.415 117.52 524.475 Q115.853 526.535 112.867 527.276 Q116.246 528.063 118.121 530.354 Q120.02 532.646 120.02 535.956 Q120.02 540.979 116.941 543.664 Q113.885 546.35 108.168 546.35 Q102.45 546.35 99.3715 543.664 Q96.316 540.979 96.316 535.956 Q96.316 532.646 98.2141 530.354 Q100.112 528.063 103.492 527.276 M101.779 519.891 Q101.779 522.577 103.446 524.081 Q105.135 525.586 108.168 525.586 Q111.177 525.586 112.867 524.081 Q114.58 522.577 114.58 519.891 Q114.58 517.206 112.867 515.702 Q111.177 514.197 108.168 514.197 Q105.135 514.197 103.446 515.702 Q101.779 517.206 101.779 519.891 Z" fill="#000000" fill-rule="nonzero" fill-opacity="1" /><path clip-path="url(#clip130)" d="M138.33 514.197 Q134.719 514.197 132.89 517.762 Q131.084 521.303 131.084 528.433 Q131.084 535.54 132.89 539.104 Q134.719 542.646 138.33 542.646 Q141.964 542.646 143.769 539.104 Q145.598 535.54 145.598 528.433 Q145.598 521.303 143.769 517.762 Q141.964 514.197 138.33 514.197 M138.33 510.493 Q144.14 510.493 147.195 515.1 Q150.274 519.683 150.274 528.433 Q150.274 537.16 147.195 541.766 Q144.14 546.35 138.33 546.35 Q132.519 546.35 129.441 541.766 Q126.385 537.16 126.385 528.433 Q126.385 519.683 129.441 515.1 Q132.519 510.493 138.33 510.493 Z" fill="#000000" fill-rule="nonzero" fill-opacity="1" /><path clip-path="url(#clip130)" d="M63.9319 254.99 Q60.3208 254.99 58.4921 258.555 Q56.6865 262.097 56.6865 269.226 Q56.6865 276.333 58.4921 279.898 Q60.3208 283.439 63.9319 283.439 Q67.5661 283.439 69.3717 279.898 Q71.2004 276.333 71.2004 269.226 Q71.2004 262.097 69.3717 258.555 Q67.5661 254.99 63.9319 254.99 M63.9319 251.287 Q69.742 251.287 72.7976 255.893 Q75.8763 260.476 75.8763 269.226 Q75.8763 277.953 72.7976 282.56 Q69.742 287.143 63.9319 287.143 Q58.1217 287.143 55.043 282.56 Q51.9875 277.953 51.9875 269.226 Q51.9875 260.476 55.043 255.893 Q58.1217 251.287 63.9319 251.287 Z" fill="#000000" fill-rule="nonzero" fill-opacity="1" /><path clip-path="url(#clip130)" d="M84.0938 280.592 L88.978 280.592 L88.978 286.472 L84.0938 286.472 L84.0938 280.592 Z" fill="#000000" fill-rule="nonzero" fill-opacity="1" /><path clip-path="url(#clip130)" d="M109.163 270.06 Q105.83 270.06 103.909 271.842 Q102.01 273.624 102.01 276.749 Q102.01 279.874 103.909 281.657 Q105.83 283.439 109.163 283.439 Q112.496 283.439 114.418 281.657 Q116.339 279.851 116.339 276.749 Q116.339 273.624 114.418 271.842 Q112.52 270.06 109.163 270.06 M104.487 268.069 Q101.478 267.328 99.7882 265.268 Q98.1215 263.208 98.1215 260.245 Q98.1215 256.101 101.061 253.694 Q104.024 251.287 109.163 251.287 Q114.325 251.287 117.265 253.694 Q120.205 256.101 120.205 260.245 Q120.205 263.208 118.515 265.268 Q116.848 267.328 113.862 268.069 Q117.242 268.856 119.117 271.148 Q121.015 273.439 121.015 276.749 Q121.015 281.773 117.936 284.458 Q114.881 287.143 109.163 287.143 Q103.446 287.143 100.367 284.458 Q97.3113 281.773 97.3113 276.749 Q97.3113 273.439 99.2095 271.148 Q101.108 268.856 104.487 268.069 M102.774 260.685 Q102.774 263.37 104.441 264.875 Q106.131 266.379 109.163 266.379 Q112.172 266.379 113.862 264.875 Q115.575 263.37 115.575 260.685 Q115.575 258 113.862 256.495 Q112.172 254.99 109.163 254.99 Q106.131 254.99 104.441 256.495 Q102.774 258 102.774 260.685 Z" fill="#000000" fill-rule="nonzero" fill-opacity="1" /><path clip-path="url(#clip130)" d="M129.371 251.912 L147.728 251.912 L147.728 255.847 L133.654 255.847 L133.654 264.319 Q134.672 263.972 135.691 263.81 Q136.709 263.625 137.728 263.625 Q143.515 263.625 146.894 266.796 Q150.274 269.967 150.274 275.384 Q150.274 280.962 146.802 284.064 Q143.33 287.143 137.01 287.143 Q134.834 287.143 132.566 286.773 Q130.32 286.402 127.913 285.661 L127.913 280.962 Q129.996 282.097 132.219 282.652 Q134.441 283.208 136.918 283.208 Q140.922 283.208 143.26 281.101 Q145.598 278.995 145.598 275.384 Q145.598 271.773 143.26 269.666 Q140.922 267.56 136.918 267.56 Q135.043 267.56 133.168 267.976 Q131.316 268.393 129.371 269.273 L129.371 251.912 Z" fill="#000000" fill-rule="nonzero" fill-opacity="1" /><polyline clip-path="url(#clip132)" style="stroke:#009af9; stroke-linecap:round; stroke-linejoin:round; stroke-width:4; stroke-opacity:1; fill:none" points="247.59,1341.86 248.407,1289.6 249.225,1356.8 250.043,1358.92 250.861,1294.01 251.679,1262.85 252.497,1394.61 253.315,1331.1 254.132,1221.92 254.95,1363.16 255.768,1435.62 256.586,1402.89 257.404,1326.78 258.222,1276.27 259.04,1365.28 259.858,1247.05 260.675,1315.93 261.493,1348.28 262.311,1407.02 263.129,1274.04 263.947,1331.1 264.765,1328.94 265.583,1226.51 266.4,1300.62 267.218,1320.28 268.036,1441.69 268.854,1363.16 269.672,1289.6 270.49,1251.57 271.308,1380.01 272.126,1231.1 272.943,1215 273.761,1369.5 274.579,1285.17 275.397,1302.81 276.215,1445.72 277.033,1331.1 277.851,1320.28 278.668,1285.17 279.486,1320.28 280.304,1425.46 281.122,1285.17 281.94,1291.81 282.758,1237.95 283.576,1305.01 284.394,1237.95 285.211,1256.09 286.029,1244.78 286.847,1320.28 287.665,1242.5 288.483,1363.16 289.301,1233.39 290.119,1356.8 290.937,1289.6 291.754,1361.04 292.572,1352.54 293.39,1217.31 294.208,1280.73 295.026,1320.28 295.844,1331.1 296.662,1305.01 297.479,1267.33 298.297,1226.51 299.115,1294.01 299.933,1278.5 300.751,1198.75 301.569,1233.39 302.387,1221.92 303.205,1144.28 304.022,1251.57 304.84,1302.81 305.658,1348.28 306.476,1352.54 307.294,1182.35 308.112,1354.67 308.93,1305.01 309.747,1328.94 310.565,1194.08 311.383,1386.28 312.201,1282.95 313.019,1215 313.837,1309.38 314.655,1300.62 315.473,1409.08 316.29,1221.92 317.108,1365.28 317.926,1348.28 318.744,1271.81 319.562,1300.62 320.38,1309.38 321.198,1265.09 322.015,1350.41 322.833,1307.2 323.651,1322.45 324.469,1210.38 325.287,1242.5 326.105,1249.31 326.923,1300.62 327.741,1296.22 328.558,1356.8 329.376,1240.23 330.194,1278.5 331.012,1339.71 331.83,1139.46 332.648,1371.61 333.466,1291.81 334.283,1265.09 335.101,1354.67 335.919,1322.45 336.737,1300.62 337.555,1244.78 338.373,1274.04 339.191,1324.62 340.009,1122.5 340.826,1377.91 341.644,1333.26 342.462,1375.81 343.28,1318.11 344.098,1249.31 344.916,1210.38 345.734,1249.31 346.551,1124.93 347.369,1122.5 348.187,1307.2 349.005,1172.91 349.823,1267.33 350.641,1265.09 351.459,1262.85 352.277,1189.4 353.094,1210.38 353.912,1226.51 354.73,1298.42 355.548,1247.05 356.366,1251.57 357.184,1289.6 358.002,1307.2 358.82,1271.81 359.637,1210.38 360.455,1194.08 361.273,1102.9 362.091,1240.23 362.909,1170.54 363.727,1163.42 364.545,1163.42 365.362,1228.81 366.18,1271.81 366.998,1258.35 367.816,1333.26 368.634,1377.91 369.452,1262.85 370.27,1226.51 371.088,1260.6 371.905,1233.39 372.723,1274.04 373.541,1235.67 374.359,1205.74 375.177,1253.84 375.995,1256.09 376.813,1127.36 377.63,1055.5 378.448,1210.38 379.266,1278.5 380.084,1328.94 380.902,1249.31 381.72,1231.1 382.538,1287.38 383.356,1215 384.173,1221.92 384.991,1177.64 385.809,1224.22 386.627,1228.81 387.445,1151.48 388.263,1175.28 389.081,1184.71 389.898,1203.41 390.716,1210.38 391.534,1249.31 392.352,1265.09 393.17,1262.85 393.988,1289.6 394.806,1235.67 395.624,1274.04 396.441,1258.35 397.259,1282.95 398.077,1120.06 398.895,1215 399.713,1235.67 400.531,1361.04 401.349,1182.35 402.166,1221.92 402.984,1144.28 403.802,1158.65 404.62,1110.28 405.438,1313.75 406.256,1158.65 407.074,1235.67 407.892,1258.35 408.709,1146.68 409.527,1258.35 410.345,1127.36 411.163,1047.9 411.981,1313.75 412.799,1226.51 413.617,1175.28 414.434,1271.81 415.252,1177.64 416.07,1212.69 416.888,1242.5 417.706,1253.84 418.524,1240.23 419.342,1271.81 420.16,1080.61 420.977,1315.93 421.795,1208.06 422.613,1156.27 423.431,1298.42 424.249,1344 425.067,1221.92 425.885,1228.81 426.703,1149.08 427.52,1224.22 428.338,1240.23 429.156,1161.04 429.974,1294.01 430.792,1175.28 431.61,1129.79 432.428,1172.91 433.245,1045.36 434.063,1201.09 434.881,1172.91 435.699,1065.58 436.517,1210.38 437.335,1120.06 438.153,1221.92 438.971,1226.51 439.788,1194.08 440.606,1249.31 441.424,1161.04 442.242,1221.92 443.06,1258.35 443.878,1251.57 444.696,1144.28 445.513,1247.05 446.331,1177.64 447.149,1117.62 447.967,1151.48 448.785,1309.38 449.603,1258.35 450.421,1063.07 451.239,1161.04 452.056,1267.33 452.874,1134.63 453.692,1129.79 454.51,1189.4 455.328,1184.71 456.146,1210.38 456.964,1163.42 457.781,1132.21 458.599,1212.69 459.417,1117.62 460.235,1115.17 461.053,1165.8 461.871,1247.05 462.689,1191.74 463.507,1045.36 464.324,1210.38 465.142,1134.63 465.96,1127.36 466.778,1122.5 467.596,1122.5 468.414,1151.48 469.232,1110.28 470.049,1221.92 470.867,1127.36 471.685,1170.54 472.503,1141.87 473.321,1141.87 474.139,1120.06 474.957,1187.06 475.775,1127.36 476.592,1231.1 477.41,1120.06 478.228,1258.35 479.046,1235.67 479.864,1168.17 480.682,1090.55 481.5,1115.17 482.317,1212.69 483.135,1168.17 483.953,1127.36 484.771,1042.82 485.589,1105.37 486.407,1102.9 487.225,1120.06 488.043,1158.65 488.86,1161.04 489.678,1045.36 490.496,1080.61 491.314,1172.91 492.132,1189.4 492.95,1063.07 493.768,1172.91 494.586,1085.59 495.403,1219.62 496.221,1083.1 497.039,1127.36 497.857,1146.68 498.675,1215 499.493,1115.17 500.311,1153.88 501.128,1070.61 501.946,1085.59 502.764,1070.61 503.582,1080.61 504.4,1120.06 505.218,1100.44 506.036,999.015 506.854,1122.5 507.671,1231.1 508.489,1177.64 509.307,1175.28 510.125,1184.71 510.943,1105.37 511.761,1163.42 512.579,1120.06 513.396,1151.48 514.214,1112.73 515.032,1137.05 515.85,1115.17 516.668,1191.74 517.486,1134.63 518.304,1146.68 519.122,1177.64 519.939,1107.82 520.757,1161.04 521.575,1201.09 522.393,1112.73 523.211,1065.58 524.029,1149.08 524.847,1078.11 525.664,1080.61 526.482,1182.35 527.3,1165.8 528.118,1050.44 528.936,1112.73 529.754,1198.75 530.572,1055.5 531.39,1070.61 532.207,1247.05 533.025,1080.61 533.843,1090.55 534.661,1151.48 535.479,1110.28 536.297,1110.28 537.115,1177.64 537.932,1058.03 538.75,1208.06 539.568,1151.48 540.386,1132.21 541.204,1153.88 542.022,1040.27 542.84,1115.17 543.658,1212.69 544.475,1170.54 545.293,1068.1 546.111,1073.11 546.929,1042.82 547.747,1151.48 548.565,1110.28 549.383,1194.08 550.2,1163.42 551.018,975.396 551.836,988.555 552.654,1191.74 553.472,1065.58 554.29,1139.46 555.108,1110.28 555.926,1231.1 556.743,1134.63 557.561,1139.46 558.379,1102.9 559.197,1093.03 560.015,1127.36 560.833,1110.28 561.651,1024.91 562.469,1058.03 563.286,1097.97 564.104,999.015 564.922,1078.11 565.74,1090.55 566.558,1129.79 567.376,1210.38 568.194,1291.81 569.011,1017.18 569.829,1107.82 570.647,1161.04 571.465,1014.59 572.283,1093.03 573.101,1075.61 573.919,1042.82 574.737,1117.62 575.554,1132.21 576.372,1141.87 577.19,1075.61 578.008,948.794 578.826,1172.91 579.644,1042.82 580.462,1073.11 581.279,1042.82 582.097,1070.61 582.915,1052.97 583.733,1078.11 584.551,1083.1 585.369,972.753 586.187,1052.97 587.005,1017.18 587.822,1151.48 588.64,985.931 589.458,1107.82 590.276,1022.33 591.094,1075.61 591.912,972.753 592.73,1050.44 593.547,1027.48 594.365,1107.82 595.183,1027.48 596.001,1004.22 596.819,1127.36 597.637,1006.82 598.455,1050.44 599.273,1004.22 600.09,1012.01 600.908,1088.07 601.726,861.037 602.544,1165.8 603.362,1022.33 604.18,1022.33 604.998,970.106 605.815,970.106 606.633,1144.28 607.451,1035.16 608.269,1052.97 609.087,970.106 609.905,929.944 610.723,1047.9 611.541,935.349 612.358,954.145 613.176,927.236 613.994,1078.11 614.812,1047.9 615.63,932.649 616.448,1047.9 617.266,1019.76 618.083,1075.61 618.901,872.232 619.719,1055.5 620.537,1004.22 621.355,1073.11 622.173,1107.82 622.991,1102.9 623.809,1001.62 624.626,1063.07 625.444,954.145 626.262,858.228 627.08,1037.72 627.898,983.303 628.716,1112.73 629.534,975.396 630.352,1017.18 631.169,951.471 631.987,1065.58 632.805,908.166 633.623,1017.18 634.441,1065.58 635.259,1088.07 636.077,964.801 636.894,932.649 637.712,1047.9 638.53,1037.72 639.348,929.944 640.166,954.145 640.984,983.303 641.802,1030.04 642.62,932.649 643.437,988.555 644.255,1035.16 645.073,1122.5 645.891,1132.21 646.709,1060.55 647.527,902.682 648.345,988.555 649.162,1085.59 649.98,1055.5 650.798,1037.72 651.616,1032.6 652.434,1042.82 653.252,908.166 654.07,1009.42 654.888,1017.18 655.705,962.143 656.523,983.303 657.341,1004.22 658.159,938.046 658.977,1009.42 659.795,985.931 660.613,983.303 661.43,875.021 662.248,1042.82 663.066,1022.33 663.884,962.143 664.702,940.739 665.52,1112.73 666.338,1022.33 667.156,972.753 667.973,962.143 668.791,875.021 669.609,962.143 670.427,919.087 671.245,1073.11 672.063,996.405 672.881,916.363 673.698,980.671 674.516,849.776 675.334,948.794 676.152,962.143 676.97,946.113 677.788,910.902 678.606,891.666 679.424,910.902 680.241,1068.1 681.059,967.455 681.877,919.087 682.695,964.801 683.513,948.794 684.331,1006.82 685.149,983.303 685.967,897.182 686.784,996.405 687.602,821.331 688.42,970.106 689.238,929.944 690.056,932.649 690.874,863.842 691.692,954.145 692.509,1052.97 693.327,1014.59 694.145,919.087 694.963,899.934 695.781,877.805 696.599,875.021 697.417,1004.22 698.235,1032.6 699.052,1022.33 699.87,1040.27 700.688,980.671 701.506,924.523 702.324,1050.44 703.142,897.182 703.96,948.794 704.777,1060.55 705.595,861.037 706.413,964.801 707.231,980.671 708.049,849.776 708.867,921.807 709.685,1030.04 710.503,988.555 711.32,888.902 712.138,927.236 712.956,932.649 713.774,951.471 714.592,877.805 715.41,929.944 716.228,1024.91 717.045,877.805 717.863,972.753 718.681,975.396 719.499,899.934 720.317,902.682 721.135,1012.01 721.953,988.555 722.771,1024.91 723.588,948.794 724.406,962.143 725.224,1004.22 726.042,1009.42 726.86,1009.42 727.678,916.363 728.496,1004.22 729.313,1027.48 730.131,919.087 730.949,1019.76 731.767,929.944 732.585,852.598 733.403,959.481 734.221,929.944 735.039,875.021 735.856,897.182 736.674,948.794 737.492,838.449 738.31,1030.04 739.128,985.931 739.946,812.715 740.764,927.236 741.581,996.405 742.399,886.134 743.217,1001.62 744.035,905.426 744.853,897.182 745.671,932.649 746.489,910.902 747.307,948.794 748.124,1047.9 748.942,935.349 749.76,956.815 750.578,899.934 751.396,999.015 752.214,921.807 753.032,883.362 753.85,940.739 754.667,902.682 755.485,863.842 756.303,824.194 757.121,875.021 757.939,983.303 758.757,835.606 759.575,913.635 760.392,875.021 761.21,815.591 762.028,880.586 762.846,932.649 763.664,943.428 764.482,818.463 765.3,877.805 766.118,748.331 766.935,869.44 767.753,875.021 768.571,875.021 769.389,927.236 770.207,967.455 771.025,927.236 771.843,946.113 772.66,927.236 773.478,916.363 774.296,932.649 775.114,929.944 775.932,932.649 776.75,921.807 777.568,908.166 778.386,866.643 779.203,932.649 780.021,849.776 780.839,888.902 781.657,924.523 782.475,902.682 783.293,1014.59 784.111,962.143 784.928,940.739 785.746,1006.82 786.564,849.776 787.382,894.426 788.2,812.715 789.018,715.328 789.836,880.586 790.654,954.145 791.471,910.902 792.289,846.951 793.107,774.928 793.925,886.134 794.743,883.362 795.561,943.428 796.379,888.902 797.196,891.666 798.014,899.934 798.832,919.087 799.65,748.331 800.468,880.586 801.286,905.426 802.104,897.182 802.922,875.021 803.739,888.902 804.557,1047.9 805.375,780.789 806.193,821.331 807.011,866.643 807.829,827.054 808.647,780.789 809.464,849.776 810.282,916.363 811.1,754.273 811.918,855.415 812.736,897.182 813.554,866.643 814.372,742.372 815.19,866.643 816.007,880.586 816.825,766.102 817.643,774.928 818.461,861.037 819.279,706.231 820.097,852.598 820.915,650.757 821.733,863.842 822.55,1004.22 823.368,835.606 824.186,883.362 825.004,852.598 825.822,838.449 826.64,858.228 827.458,863.842 828.275,818.463 829.093,844.121 829.911,748.331 830.729,789.548 831.547,858.228 832.365,727.393 833.183,777.86 834.001,801.166 834.818,908.166 835.636,910.902 836.454,812.715 837.272,739.385 838.09,924.523 838.908,801.166 839.726,789.548 840.543,766.102 841.361,964.801 842.179,852.598 842.997,946.113 843.815,824.194 844.633,815.591 845.451,855.415 846.269,846.951 847.086,798.268 847.904,751.304 848.722,804.06 849.54,888.902 850.358,849.776 851.176,835.606 851.994,838.449 852.811,841.287 853.629,866.643 854.447,786.633 855.265,818.463 856.083,771.99 856.901,809.834 857.719,858.228 858.537,806.949 859.354,835.606 860.172,804.06 860.99,858.228 861.808,757.237 862.626,763.152 863.444,929.944 864.262,880.586 865.079,739.385 865.897,846.951 866.715,821.331 867.533,894.426 868.351,861.037 869.169,841.287 869.987,754.273 870.805,786.633 871.622,869.44 872.44,763.152 873.258,786.633 874.076,838.449 874.894,869.44 875.712,824.194 876.53,951.471 877.347,838.449 878.165,815.591 878.983,829.909 879.801,769.048 880.619,757.237 881.437,863.842 882.255,706.231 883.073,718.351 883.89,815.591 884.708,724.384 885.526,783.713 886.344,841.287 887.162,757.237 887.98,766.102 888.798,786.633 889.616,883.362 890.433,663.218 891.251,852.598 892.069,739.385 892.887,766.102 893.705,730.398 894.523,863.842 895.341,905.426 896.158,812.715 896.976,736.394 897.794,943.428 898.612,769.048 899.43,730.398 900.248,718.351 901.066,795.366 901.884,724.384 902.701,809.834 903.519,771.99 904.337,844.121 905.155,844.121 905.973,888.902 906.791,748.331 907.609,789.548 908.426,703.189 909.244,724.384 910.062,712.3 910.88,795.366 911.698,748.331 912.516,858.228 913.334,748.331 914.152,757.237 914.969,777.86 915.787,760.197 916.605,869.44 917.423,769.048 918.241,792.459 919.059,748.331 919.877,715.328 920.694,849.776 921.512,742.372 922.33,760.197 923.148,804.06 923.966,789.548 924.784,715.328 925.602,771.99 926.42,827.054 927.237,766.102 928.055,786.633 928.873,821.331 929.691,684.84 930.509,718.351 931.327,721.37 932.145,780.789 932.962,625.601 933.78,801.166 934.598,875.021 935.416,625.601 936.234,832.76 937.052,751.304 937.87,812.715 938.688,812.715 939.505,780.789 940.323,792.459 941.141,804.06 941.959,644.497 942.777,827.054 943.595,757.237 944.413,795.366 945.23,619.263 946.048,712.3 946.866,812.715 947.684,841.287 948.502,835.606 949.32,697.092 950.138,733.398 950.956,852.598 951.773,804.06 952.591,721.37 953.409,675.602 954.227,745.354 955.045,724.384 955.863,644.497 956.681,700.143 957.499,669.42 958.316,763.152 959.134,703.189 959.952,757.237 960.77,593.71 961.588,801.166 962.406,638.218 963.224,818.463 964.041,694.036 964.859,687.91 965.677,631.919 966.495,641.36 967.313,792.459 968.131,647.629 968.949,718.351 969.767,771.99 970.584,841.287 971.402,745.354 972.22,609.718 973.038,780.789 973.856,789.548 974.674,564.576 975.492,733.398 976.309,712.3 977.127,706.231 977.945,844.121 978.763,727.393 979.581,754.273 980.399,656.997 981.217,706.231 982.035,742.372 982.852,748.331 983.67,742.372 984.488,712.3 985.306,824.194 986.124,700.143 986.942,815.591 987.76,700.143 988.577,795.366 989.395,724.384 990.213,786.633 991.031,736.394 991.849,690.975 992.667,721.37 993.485,612.905 994.303,675.602 995.12,690.975 995.938,644.497 996.756,763.152 997.574,858.228 998.392,769.048 999.21,718.351 1000.03,644.497 1000.85,798.268 1001.66,678.686 1002.48,606.527 1003.3,721.37 1004.12,724.384 1004.93,780.789 1005.75,606.527 1006.57,703.189 1007.39,656.997 1008.21,736.394 1009.02,771.99 1009.84,706.231 1010.66,718.351 1011.48,786.633 1012.3,727.393 1013.11,635.071 1013.93,861.037 1014.75,718.351 1015.57,736.394 1016.38,706.231 1017.2,647.629 1018.02,656.997 1018.84,650.757 1019.66,672.513 1020.47,650.757 1021.29,675.602 1022.11,712.3 1022.93,769.048 1023.75,763.152 1024.56,697.092 1025.38,675.602 1026.2,672.513 1027.02,709.268 1027.84,739.385 1028.65,672.513 1029.47,628.763 1030.29,721.37 1031.11,638.218 1031.92,660.11 1032.74,675.602 1033.56,742.372 1034.38,748.331 1035.2,650.757 1036.01,606.527 1036.83,625.601 1037.65,821.331 1038.47,564.576 1039.29,721.37 1040.1,697.092 1040.92,730.398 1041.74,763.152 1042.56,650.757 1043.37,706.231 1044.19,574.334 1045.01,638.218 1045.83,672.513 1046.65,663.218 1047.46,739.385 1048.28,684.84 1049.1,690.975 1049.92,769.048 1050.74,653.879 1051.55,730.398 1052.37,564.576 1053.19,505.043 1054.01,697.092 1054.82,622.434 1055.64,660.11 1056.46,656.997 1057.28,681.766 1058.1,600.129 1058.91,558.046 1059.73,727.393 1060.55,628.763 1061.37,558.046 1062.19,783.713 1063,687.91 1063.82,641.36 1064.64,672.513 1065.46,567.834 1066.27,544.921 1067.09,690.975 1067.91,697.092 1068.73,622.434 1069.55,769.048 1070.36,603.33 1071.18,792.459 1072,638.218 1072.82,631.919 1073.64,663.218 1074.45,551.494 1075.27,619.263 1076.09,650.757 1076.91,656.997 1077.73,777.86 1078.54,684.84 1079.36,739.385 1080.18,538.328 1081,669.42 1081.81,763.152 1082.63,653.879 1083.45,625.601 1084.27,609.718 1085.09,590.494 1085.9,600.129 1086.72,548.21 1087.54,564.576 1088.36,574.334 1089.18,650.757 1089.99,603.33 1090.81,718.351 1091.63,641.36 1092.45,538.328 1093.26,650.757 1094.08,672.513 1094.9,724.384 1095.72,721.37 1096.54,697.092 1097.35,700.143 1098.17,653.879 1098.99,561.314 1099.81,666.321 1100.63,612.905 1101.44,505.043 1102.26,612.905 1103.08,609.718 1103.9,625.601 1104.71,697.092 1105.53,678.686 1106.35,690.975 1107.17,724.384 1107.99,587.272 1108.8,672.513 1109.62,687.91 1110.44,660.11 1111.26,521.752 1112.08,558.046 1112.89,590.494 1113.71,666.321 1114.53,606.527 1115.35,647.629 1116.16,656.997 1116.98,672.513 1117.8,531.714 1118.62,580.813 1119.44,672.513 1120.25,694.036 1121.07,669.42 1121.89,567.834 1122.71,596.922 1123.53,600.129 1124.34,663.218 1125.16,718.351 1125.98,584.045 1126.8,619.263 1127.61,681.766 1128.43,580.813 1129.25,656.997 1130.07,631.919 1130.89,644.497 1131.7,494.952 1132.52,625.601 1133.34,777.86 1134.16,638.218 1134.98,650.757 1135.79,609.718 1136.61,631.919 1137.43,580.813 1138.25,491.578 1139.07,551.494 1139.88,603.33 1140.7,622.434 1141.52,571.086 1142.34,666.321 1143.15,644.497 1143.97,501.685 1144.79,593.71 1145.61,554.772 1146.43,631.919 1147.24,580.813 1148.06,603.33 1148.88,644.497 1149.7,561.314 1150.52,622.434 1151.33,635.071 1152.15,580.813 1152.97,596.922 1153.79,622.434 1154.6,638.218 1155.42,609.718 1156.24,628.763 1157.06,603.33 1157.88,625.601 1158.69,577.576 1159.51,525.078 1160.33,622.434 1161.15,622.434 1161.97,628.763 1162.78,564.576 1163.6,590.494 1164.42,606.527 1165.24,672.513 1166.05,447.211 1166.87,571.086 1167.69,447.211 1168.51,525.078 1169.33,538.328 1170.14,577.576 1170.96,609.718 1171.78,544.921 1172.6,548.21 1173.42,596.922 1174.23,574.334 1175.05,498.321 1175.87,571.086 1176.69,612.905 1177.5,700.143 1178.32,491.578 1179.14,531.714 1179.96,619.263 1180.78,616.086 1181.59,703.189 1182.41,574.334 1183.23,593.71 1184.05,548.21 1184.87,631.919 1185.68,528.398 1186.5,574.334 1187.32,544.921 1188.14,558.046 1188.96,574.334 1189.77,505.043 1190.59,567.834 1191.41,596.922 1192.23,612.905 1193.04,612.905 1193.86,584.045 1194.68,669.42 1195.5,548.21 1196.32,525.078 1197.13,501.685 1197.95,515.084 1198.77,718.351 1199.59,619.263 1200.41,628.763 1201.22,616.086 1202.04,628.763 1202.86,712.3 1203.68,606.527 1204.49,600.129 1205.31,571.086 1206.13,518.421 1206.95,600.129 1207.77,577.576 1208.58,460.962 1209.4,647.629 1210.22,590.494 1211.04,464.386 1211.86,528.398 1212.67,541.627 1213.49,593.71 1214.31,606.527 1215.13,580.813 1215.94,625.601 1216.76,666.321 1217.58,511.743 1218.4,580.813 1219.22,558.046 1220.03,558.046 1220.85,505.043 1221.67,464.386 1222.49,511.743 1223.31,663.218 1224.12,515.084 1224.94,511.743 1225.76,577.576 1226.58,606.527 1227.39,467.805 1228.21,619.263 1229.03,584.045 1229.85,600.129 1230.67,481.422 1231.48,538.328 1232.3,571.086 1233.12,666.321 1233.94,580.813 1234.76,584.045 1235.57,558.046 1236.39,567.834 1237.21,554.772 1238.03,681.766 1238.84,541.627 1239.66,408.929 1240.48,508.395 1241.3,567.834 1242.12,580.813 1242.93,619.263 1243.75,631.919 1244.57,551.494 1245.39,491.578 1246.21,580.813 1247.02,564.576 1247.84,635.071 1248.66,544.921 1249.48,491.578 1250.3,415.941 1251.11,596.922 1251.93,687.91 1252.75,535.023 1253.57,447.211 1254.38,644.497 1255.2,587.272 1256.02,525.078 1256.84,551.494 1257.66,561.314 1258.47,554.772 1259.29,564.576 1260.11,498.321 1260.93,488.198 1261.75,515.084 1262.56,590.494 1263.38,577.576 1264.2,531.714 1265.02,433.37 1265.83,548.21 1266.65,436.839 1267.47,561.314 1268.29,521.752 1269.11,548.21 1269.92,521.752 1270.74,515.084 1271.56,558.046 1272.38,567.834 1273.2,521.752 1274.01,564.576 1274.83,577.576 1275.65,467.805 1276.47,567.834 1277.28,554.772 1278.1,415.941 1278.92,498.321 1279.74,491.578 1280.56,422.929 1281.37,593.71 1282.19,666.321 1283.01,558.046 1283.83,684.84 1284.65,541.627 1285.46,484.813 1286.28,508.395 1287.1,511.743 1287.92,412.437 1288.73,505.043 1289.55,612.905 1290.37,548.21 1291.19,429.896 1292.01,584.045 1292.82,538.328 1293.64,544.921 1294.46,647.629 1295.28,587.272 1296.1,567.834 1296.91,511.743 1297.73,544.921 1298.55,511.743 1299.37,551.494 1300.18,531.714 1301,460.962 1301.82,474.625 1302.64,474.625 1303.46,484.813 1304.27,508.395 1305.09,518.421 1305.91,491.578 1306.73,538.328 1307.55,653.879 1308.36,494.952 1309.18,474.625 1310,498.321 1310.82,498.321 1311.64,558.046 1312.45,511.743 1313.27,467.805 1314.09,515.084 1314.91,558.046 1315.72,521.752 1316.54,501.685 1317.36,603.33 1318.18,525.078 1319,619.263 1319.81,471.217 1320.63,460.962 1321.45,511.743 1322.27,554.772 1323.09,531.714 1323.9,564.576 1324.72,429.896 1325.54,467.805 1326.36,436.839 1327.17,471.217 1327.99,387.754 1328.81,471.217 1329.63,454.098 1330.45,498.321 1331.26,541.627 1332.08,551.494 1332.9,606.527 1333.72,561.314 1334.54,525.078 1335.35,587.272 1336.17,454.098 1336.99,603.33 1337.81,590.494 1338.62,600.129 1339.44,525.078 1340.26,433.37 1341.08,525.078 1341.9,484.813 1342.71,518.421 1343.53,405.414 1344.35,488.198 1345.17,440.302 1345.99,567.834 1346.8,494.952 1347.62,571.086 1348.44,647.629 1349.26,484.813 1350.07,457.533 1350.89,373.52 1351.71,647.629 1352.53,429.896 1353.35,501.685 1354.16,494.952 1354.98,447.211 1355.8,528.398 1356.62,603.33 1357.44,505.043 1358.25,541.627 1359.07,606.527 1359.89,481.422 1360.71,561.314 1361.53,488.198 1362.34,498.321 1363.16,505.043 1363.98,498.321 1364.8,422.929 1365.61,531.714 1366.43,531.714 1367.25,548.21 1368.07,518.421 1368.89,447.211 1369.7,454.098 1370.52,380.648 1371.34,498.321 1372.16,564.576 1372.98,494.952 1373.79,498.321 1374.61,484.813 1375.43,398.367 1376.25,457.533 1377.06,567.834 1377.88,478.026 1378.7,590.494 1379.52,488.198 1380.34,436.839 1381.15,426.415 1381.97,484.813 1382.79,412.437 1383.61,433.37 1384.43,518.421 1385.24,596.922 1386.06,491.578 1386.88,467.805 1387.7,554.772 1388.51,344.767 1389.33,405.414 1390.15,494.952 1390.97,398.367 1391.79,518.421 1392.6,484.813 1393.42,491.578 1394.24,401.894 1395.06,528.398 1395.88,491.578 1396.69,508.395 1397.51,422.929 1398.33,491.578 1399.15,544.921 1399.96,574.334 1400.78,394.835 1401.6,484.813 1402.42,394.835 1403.24,474.625 1404.05,518.421 1404.87,518.421 1405.69,551.494 1406.51,515.084 1407.33,460.962 1408.14,422.929 1408.96,494.952 1409.78,571.086 1410.6,501.685 1411.41,498.321 1412.23,436.839 1413.05,525.078 1413.87,491.578 1414.69,351.991 1415.5,471.217 1416.32,574.334 1417.14,484.813 1417.96,488.198 1418.78,544.921 1419.59,478.026 1420.41,515.084 1421.23,366.367 1422.05,398.367 1422.87,464.386 1423.68,447.211 1424.5,551.494 1425.32,481.422 1426.14,505.043 1426.95,498.321 1427.77,535.023 1428.59,481.422 1429.41,330.245 1430.23,474.625 1431.04,405.414 1431.86,447.211 1432.68,398.367 1433.5,319.29 1434.32,450.657 1435.13,515.084 1435.95,436.839 1436.77,474.625 1437.59,405.414 1438.4,447.211 1439.22,433.37 1440.04,508.395 1440.86,467.805 1441.68,491.578 1442.49,394.835 1443.31,380.648 1444.13,478.026 1444.95,511.743 1445.77,457.533 1446.58,488.198 1447.4,436.839 1448.22,481.422 1449.04,398.367 1449.85,457.533 1450.67,433.37 1451.49,457.533 1452.31,460.962 1453.13,528.398 1453.94,447.211 1454.76,408.929 1455.58,387.754 1456.4,401.894 1457.22,394.835 1458.03,478.026 1458.85,484.813 1459.67,337.518 1460.49,377.087 1461.3,481.422 1462.12,405.414 1462.94,454.098 1463.76,440.302 1464.58,501.685 1465.39,443.759 1466.21,412.437 1467.03,454.098 1467.85,447.211 1468.67,508.395 1469.48,401.894 1470.3,415.941 1471.12,408.929 1471.94,491.578 1472.76,366.367 1473.57,474.625 1474.39,440.302 1475.21,422.929 1476.03,447.211 1476.84,491.578 1477.66,351.991 1478.48,341.145 1479.3,443.759 1480.12,478.026 1480.93,311.956 1481.75,337.518 1482.57,377.087 1483.39,398.367 1484.21,366.367 1485.02,508.395 1485.84,505.043 1486.66,478.026 1487.48,544.921 1488.29,471.217 1489.11,484.813 1489.93,405.414 1490.75,422.929 1491.57,450.657 1492.38,447.211 1493.2,422.929 1494.02,443.759 1494.84,412.437 1495.66,422.929 1496.47,478.026 1497.29,501.685 1498.11,380.648 1498.93,467.805 1499.74,460.962 1500.56,501.685 1501.38,464.386 1502.2,508.395 1503.02,443.759 1503.83,494.952 1504.65,419.438 1505.47,494.952 1506.29,337.518 1507.11,535.023 1507.92,319.29 1508.74,401.894 1509.56,426.415 1510.38,450.657 1511.19,515.084 1512.01,337.518 1512.83,380.648 1513.65,408.929 1514.47,362.782 1515.28,491.578 1516.1,384.204 1516.92,405.414 1517.74,426.415 1518.56,429.896 1519.37,348.382 1520.19,433.37 1521.01,488.198 1521.83,391.297 1522.64,412.437 1523.46,362.782 1524.28,443.759 1525.1,308.28 1525.92,415.941 1526.73,359.191 1527.55,528.398 1528.37,412.437 1529.19,440.302 1530.01,454.098 1530.82,422.929 1531.64,436.839 1532.46,384.204 1533.28,544.921 1534.1,373.52 1534.91,474.625 1535.73,333.885 1536.55,415.941 1537.37,433.37 1538.18,471.217 1539,394.835 1539.82,471.217 1540.64,322.948 1541.46,511.743 1542.27,398.367 1543.09,412.437 1543.91,450.657 1544.73,494.952 1545.55,351.991 1546.36,419.438 1547.18,311.956 1548,443.759 1548.82,419.438 1549.63,454.098 1550.45,398.367 1551.27,464.386 1552.09,454.098 1552.91,387.754 1553.72,380.648 1554.54,405.414 1555.36,436.839 1556.18,369.946 1557,337.518 1557.81,351.991 1558.63,488.198 1559.45,433.37 1560.27,433.37 1561.08,481.422 1561.9,359.191 1562.72,311.956 1563.54,412.437 1564.36,384.204 1565.17,398.367 1565.99,447.211 1566.81,289.805 1567.63,341.145 1568.45,373.52 1569.26,344.767 1570.08,429.896 1570.9,384.204 1571.72,429.896 1572.53,398.367 1573.35,362.782 1574.17,412.437 1574.99,401.894 1575.81,351.991 1576.62,366.367 1577.44,528.398 1578.26,341.145 1579.08,380.648 1579.9,450.657 1580.71,405.414 1581.53,467.805 1582.35,474.625 1583.17,362.782 1583.99,467.805 1584.8,341.145 1585.62,377.087 1586.44,351.991 1587.26,478.026 1588.07,457.533 1588.89,443.759 1589.71,518.421 1590.53,447.211 1591.35,422.929 1592.16,398.367 1592.98,443.759 1593.8,387.754 1594.62,429.896 1595.44,433.37 1596.25,256.154 1597.07,460.962 1597.89,450.657 1598.71,481.422 1599.52,387.754 1600.34,398.367 1601.16,429.896 1601.98,501.685 1602.8,488.198 1603.61,443.759 1604.43,464.386 1605.25,401.894 1606.07,394.835 1606.89,391.297 1607.7,426.415 1608.52,351.991 1609.34,443.759 1610.16,293.513 1610.97,326.6 1611.79,398.367 1612.61,366.367 1613.43,355.594 1614.25,443.759 1615.06,394.835 1615.88,460.962 1616.7,541.627 1617.52,436.839 1618.34,394.835 1619.15,394.835 1619.97,384.204 1620.79,315.626 1621.61,398.367 1622.42,373.52 1623.24,241.031 1624.06,308.28 1624.88,333.885 1625.7,355.594 1626.51,433.37 1627.33,436.839 1628.15,380.648 1628.97,308.28 1629.79,341.145 1630.6,377.087 1631.42,460.962 1632.24,278.645 1633.06,433.37 1633.87,293.513 1634.69,337.518 1635.51,293.513 1636.33,373.52 1637.15,474.625 1637.96,326.6 1638.78,391.297 1639.6,366.367 1640.42,344.767 1641.24,454.098 1642.05,304.598 1642.87,333.885 1643.69,297.214 1644.51,304.598 1645.33,387.754 1646.14,498.321 1646.96,412.437 1647.78,308.28 1648.6,408.929 1649.41,484.813 1650.23,408.929 1651.05,373.52 1651.87,457.533 1652.69,440.302 1653.5,394.835 1654.32,391.297 1655.14,337.518 1655.96,443.759 1656.78,408.929 1657.59,387.754 1658.41,300.909 1659.23,337.518 1660.05,380.648 1660.86,380.648 1661.68,377.087 1662.5,377.087 1663.32,387.754 1664.14,369.946 1664.95,348.382 1665.77,369.946 1666.59,501.685 1667.41,259.918 1668.23,429.896 1669.04,419.438 1669.86,384.204 1670.68,330.245 1671.5,330.245 1672.31,311.956 1673.13,481.422 1673.95,322.948 1674.77,348.382 1675.59,355.594 1676.4,387.754 1677.22,300.909 1678.04,422.929 1678.86,355.594 1679.68,426.415 1680.49,337.518 1681.31,326.6 1682.13,282.372 1682.95,304.598 1683.76,326.6 1684.58,377.087 1685.4,433.37 1686.22,195.037 1687.04,297.214 1687.85,359.191 1688.67,380.648 1689.49,311.956 1690.31,259.918 1691.13,206.624 1691.94,311.956 1692.76,351.991 1693.58,426.415 1694.4,412.437 1695.21,326.6 1696.03,351.991 1696.85,293.513 1697.67,387.754 1698.49,373.52 1699.3,401.894 1700.12,366.367 1700.94,308.28 1701.76,366.367 1702.58,373.52 1703.39,377.087 1704.21,422.929 1705.03,494.952 1705.85,348.382 1706.67,326.6 1707.48,401.894 1708.3,297.214 1709.12,315.626 1709.94,274.913 1710.75,408.929 1711.57,380.648 1712.39,244.822 1713.21,355.594 1714.03,311.956 1714.84,373.52 1715.66,394.835 1716.48,377.087 1717.3,391.297 1718.12,351.991 1718.93,460.962 1719.75,408.929 1720.57,408.929 1721.39,286.092 1722.2,326.6 1723.02,315.626 1723.84,319.29 1724.66,241.031 1725.48,359.191 1726.29,337.518 1727.11,429.896 1727.93,337.518 1728.75,293.513 1729.57,274.913 1730.38,300.909 1731.2,256.154 1732.02,326.6 1732.84,366.367 1733.65,440.302 1734.47,308.28 1735.29,333.885 1736.11,333.885 1736.93,391.297 1737.74,289.805 1738.56,214.317 1739.38,326.6 1740.2,315.626 1741.02,271.174 1741.83,311.956 1742.65,394.835 1743.47,366.367 1744.29,315.626 1745.1,311.956 1745.92,369.946 1746.74,467.805 1747.56,326.6 1748.38,315.626 1749.19,289.805 1750.01,278.645 1750.83,415.941 1751.65,398.367 1752.47,330.245 1753.28,398.367 1754.1,271.174 1754.92,366.367 1755.74,233.431 1756.56,282.372 1757.37,351.991 1758.19,380.648 1759.01,278.645 1759.83,359.191 1760.64,341.145 1761.46,359.191 1762.28,408.929 1763.1,373.52 1763.92,326.6 1764.73,326.6 1765.55,373.52 1766.37,286.092 1767.19,210.474 1768.01,322.948 1768.82,300.909 1769.64,326.6 1770.46,359.191 1771.28,322.948 1772.09,337.518 1772.91,359.191 1773.73,429.896 1774.55,408.929 1775.37,351.991 1776.18,225.805 1777,297.214 1777.82,362.782 1778.64,337.518 1779.46,348.382 1780.27,380.648 1781.09,419.438 1781.91,359.191 1782.73,387.754 1783.54,322.948 1784.36,289.805 1785.18,408.929 1786,348.382 1786.82,377.087 1787.63,426.415 1788.45,300.909 1789.27,311.956 1790.09,366.367 1790.91,319.29 1791.72,267.428 1792.54,271.174 1793.36,271.174 1794.18,278.645 1794.99,326.6 1795.81,359.191 1796.63,337.518 1797.45,380.648 1798.27,377.087 1799.08,422.929 1799.9,341.145 1800.72,387.754 1801.54,304.598 1802.36,344.767 1803.17,366.367 1803.99,229.621 1804.81,300.909 1805.63,256.154 1806.44,337.518 1807.26,351.991 1808.08,344.767 1808.9,297.214 1809.72,297.214 1810.53,286.092 1811.35,274.913 1812.17,311.956 1812.99,278.645 1813.81,387.754 1814.62,433.37 1815.44,278.645 1816.26,377.087 1817.08,355.594 1817.9,359.191 1818.71,304.598 1819.53,252.383 1820.35,326.6 1821.17,330.245 1821.98,293.513 1822.8,256.154 1823.62,286.092 1824.44,311.956 1825.26,326.6 1826.07,412.437 1826.89,282.372 1827.71,214.317 1828.53,311.956 1829.35,426.415 1830.16,286.092 1830.98,322.948 1831.8,359.191 1832.62,225.805 1833.43,304.598 1834.25,282.372 1835.07,351.991 1835.89,377.087 1836.71,289.805 1837.52,244.822 1838.34,263.677 1839.16,191.161 1839.98,344.767 1840.8,322.948 1841.61,341.145 1842.43,293.513 1843.25,289.805 1844.07,344.767 1844.88,289.805 1845.7,311.956 1846.52,322.948 1847.34,187.278 1848.16,252.383 1848.97,241.031 1849.79,355.594 1850.61,322.948 1851.43,221.982 1852.25,195.037 1853.06,377.087 1853.88,304.598 1854.7,355.594 1855.52,408.929 1856.33,244.822 1857.15,304.598 1857.97,308.28 1858.79,263.677 1859.61,229.621 1860.42,300.909 1861.24,289.805 1862.06,304.598 1862.88,308.28 1863.7,300.909 1864.51,256.154 1865.33,278.645 1866.15,337.518 1866.97,289.805 1867.79,259.918 1868.6,259.918 1869.42,319.29 1870.24,311.956 1871.06,237.235 1871.87,263.677 1872.69,319.29 1873.51,348.382 1874.33,271.174 1875.15,206.624 1875.96,259.918 1876.78,263.677 1877.6,297.214 1878.42,293.513 1879.24,248.606 1880.05,263.677 1880.87,308.28 1881.69,244.822 1882.51,341.145 1883.32,341.145 1884.14,282.372 1884.96,241.031 1885.78,271.174 1886.6,293.513 1887.41,233.431 1888.23,263.677 1889.05,293.513 1889.87,380.648 1890.69,333.885 1891.5,351.991 1892.32,351.991 1893.14,263.677 1893.96,229.621 1894.77,233.431 1895.59,355.594 1896.41,366.367 1897.23,237.235 1898.05,304.598 1898.86,241.031 1899.68,440.302 1900.5,319.29 1901.32,300.909 1902.14,225.805 1902.95,311.956 1903.77,293.513 1904.59,333.885 1905.41,237.235 1906.22,267.428 1907.04,286.092 1907.86,333.885 1908.68,252.383 1909.5,315.626 1910.31,237.235 1911.13,237.235 1911.95,387.754 1912.77,293.513 1913.59,124.227 1914.4,311.956 1915.22,244.822 1916.04,362.782 1916.86,274.913 1917.67,341.145 1918.49,183.388 1919.31,241.031 1920.13,355.594 1920.95,256.154 1921.76,348.382 1922.58,289.805 1923.4,256.154 1924.22,244.822 1925.04,263.677 1925.85,278.645 1926.67,259.918 1927.49,221.982 1928.31,237.235 1929.13,271.174 1929.94,348.382 1930.76,337.518 1931.58,315.626 1932.4,271.174 1933.21,359.191 1934.03,271.174 1934.85,293.513 1935.67,359.191 1936.49,293.513 1937.3,175.589 1938.12,221.982 1938.94,163.84 1939.76,187.278 1940.58,263.677 1941.39,337.518 1942.21,278.645 1943.03,286.092 1943.85,333.885 1944.66,225.805 1945.48,351.991 1946.3,359.191 1947.12,337.518 1947.94,384.204 1948.75,326.6 1949.57,300.909 1950.39,304.598 1951.21,202.768 1952.03,274.913 1952.84,198.906 1953.66,171.679 1954.48,351.991 1955.3,271.174 1956.11,120.227 1956.93,218.153 1957.75,256.154 1958.57,377.087 1959.39,259.918 1960.2,256.154 1961.02,221.982 1961.84,315.626 1962.66,252.383 1963.48,183.388 1964.29,241.031 1965.11,355.594 1965.93,308.28 1966.75,300.909 1967.56,315.626 1968.38,259.918 1969.2,202.768 1970.02,233.431 1970.84,229.621 1971.65,311.956 1972.47,330.245 1973.29,311.956 1974.11,300.909 1974.93,293.513 1975.74,144.12 1976.56,183.388 1977.38,337.518 1978.2,233.431 1979.01,274.913 1979.83,415.941 1980.65,366.367 1981.47,297.214 1982.29,241.031 1983.1,241.031 1983.92,248.606 1984.74,202.768 1985.56,293.513 1986.38,289.805 1987.19,210.474 1988.01,359.191 1988.83,341.145 1989.65,286.092 1990.47,237.235 1991.28,326.6 1992.1,191.161 1992.92,304.598 1993.74,278.645 1994.55,362.782 1995.37,132.205 1996.19,293.513 1997.01,237.235 1997.83,263.677 1998.64,221.982 1999.46,278.645 2000.28,297.214 2001.1,308.28 2001.92,308.28 2002.73,248.606 2003.55,333.885 2004.37,344.767 2005.19,311.956 2006,218.153 2006.82,256.154 2007.64,391.297 2008.46,271.174 2009.28,244.822 2010.09,263.677 2010.91,214.317 2011.73,263.677 2012.55,256.154 2013.37,218.153 2014.18,351.991 2015,344.767 2015.82,282.372 2016.64,229.621 2017.45,233.431 2018.27,191.161 2019.09,244.822 2019.91,278.645 2020.73,259.918 2021.54,241.031 2022.36,319.29 2023.18,282.372 2024,159.909 2024.82,256.154 2025.63,244.822 2026.45,315.626 2027.27,304.598 2028.09,271.174 2028.9,244.822 2029.72,210.474 2030.54,187.278 2031.36,286.092 2032.18,218.153 2032.99,241.031 2033.81,384.204 2034.63,159.909 2035.45,237.235 2036.27,259.918 2037.08,218.153 2037.9,210.474 2038.72,289.805 2039.54,267.428 2040.36,256.154 2041.17,206.624 2041.99,326.6 2042.81,293.513 2043.63,282.372 2044.44,229.621 2045.26,304.598 2046.08,167.763 2046.9,391.297 2047.72,244.822 2048.53,405.414 2049.35,387.754 2050.17,315.626 2050.99,229.621 2051.81,311.956 2052.62,206.624 2053.44,297.214 2054.26,293.513 2055.08,369.946 2055.89,286.092 2056.71,278.645 2057.53,256.154 2058.35,315.626 2059.17,252.383 2059.98,175.589 2060.8,248.606 2061.62,195.037 2062.44,278.645 2063.26,248.606 2064.07,206.624 2064.89,229.621 2065.71,286.092 2066.53,278.645 2067.34,248.606 2068.16,348.382 2068.98,155.972 2069.8,267.428 2070.62,214.317 2071.43,286.092 2072.25,214.317 2073.07,198.906 2073.89,274.913 2074.71,256.154 2075.52,267.428 2076.34,248.606 2077.16,322.948 2077.98,333.885 2078.79,187.278 2079.61,252.383 2080.43,248.606 2081.25,319.29 2082.07,214.317 2082.88,152.028 2083.7,259.918 2084.52,237.235 2085.34,248.606 2086.16,171.679 2086.97,252.383 2087.79,191.161 2088.61,271.174 2089.43,263.677 2090.24,319.29 2091.06,267.428 2091.88,267.428 2092.7,210.474 2093.52,206.624 2094.33,304.598 2095.15,191.161 2095.97,362.782 2096.79,202.768 2097.61,167.763 2098.42,187.278 2099.24,330.245 2100.06,241.031 2100.88,210.474 2101.7,202.768 2102.51,293.513 2103.33,278.645 2104.15,112.207 2104.97,300.909 2105.78,344.767 2106.6,351.991 2107.42,297.214 2108.24,210.474 2109.06,322.948 2109.87,326.6 2110.69,274.913 2111.51,198.906 2112.33,274.913 2113.15,210.474 2113.96,344.767 2114.78,293.513 2115.6,244.822 2116.42,293.513 2117.23,282.372 2118.05,286.092 2118.87,326.6 2119.69,233.431 2120.51,308.28 2121.32,308.28 2122.14,278.645 2122.96,259.918 2123.78,229.621 2124.6,152.028 2125.41,195.037 2126.23,293.513 2127.05,267.428 2127.87,359.191 2128.68,282.372 2129.5,191.161 2130.32,171.679 2131.14,297.214 2131.96,274.913 2132.77,210.474 2133.59,206.624 2134.41,202.768 2135.23,344.767 2136.05,221.982 2136.86,304.598 2137.68,237.235 2138.5,241.031 2139.32,297.214 2140.13,210.474 2140.95,233.431 2141.77,293.513 2142.59,259.918 2143.41,221.982 2144.22,282.372 2145.04,155.972 2145.86,218.153 2146.68,187.278 2147.5,159.909 2148.31,252.383 2149.13,198.906 2149.95,202.768 2150.77,244.822 2151.59,244.822 2152.4,241.031 2153.22,248.606 2154.04,163.84 2154.86,218.153 2155.67,252.383 2156.49,308.28 2157.31,233.431 2158.13,326.6 2158.95,112.207 2159.76,259.918 2160.58,136.184 2161.4,167.763 2162.22,233.431 2163.04,241.031 2163.85,244.822 2164.67,256.154 2165.49,187.278 2166.31,248.606 2167.12,140.155 2167.94,259.918 2168.76,225.805 2169.58,315.626 2170.4,112.207 2171.21,271.174 2172.03,221.982 2172.85,214.317 2173.67,263.677 2174.49,337.518 2175.3,344.767 2176.12,195.037 2176.94,175.589 2177.76,263.677 2178.57,191.161 2179.39,344.767 2180.21,144.12 2181.03,187.278 2181.85,225.805 2182.66,259.918 2183.48,206.624 2184.3,163.84 2185.12,293.513 2185.94,267.428 2186.75,175.589 2187.57,198.906 2188.39,187.278 2189.21,297.214 2190.02,229.621 2190.84,221.982 2191.66,191.161 2192.48,233.431 2193.3,319.29 2194.11,233.431 2194.93,267.428 2195.75,206.624 2196.57,259.918 2197.39,214.317 2198.2,202.768 2199.02,225.805 2199.84,225.805 2200.66,256.154 2201.47,256.154 2202.29,330.245 2203.11,195.037 2203.93,218.153 2204.75,256.154 2205.56,175.589 2206.38,263.677 2207.2,259.918 2208.02,286.092 2208.84,267.428 2209.65,293.513 2210.47,259.918 2211.29,278.645 2212.11,252.383 2212.93,237.235 2213.74,202.768 2214.56,225.805 2215.38,175.589 2216.2,187.278 2217.01,271.174 2217.83,256.154 2218.65,322.948 2219.47,108.187 2220.29,124.227 2221.1,248.606 2221.92,304.598 2222.74,252.383 2223.56,218.153 2224.38,252.383 2225.19,256.154 2226.01,241.031 2226.83,225.805 2227.65,124.227 2228.46,282.372 2229.28,256.154 2230.1,319.29 2230.92,210.474 2231.74,233.431 2232.55,112.207 2233.37,274.913 2234.19,304.598 2235.01,187.278 2235.83,319.29 2236.64,229.621 2237.46,218.153 2238.28,256.154 2239.1,163.84 2239.91,198.906 2240.73,308.28 2241.55,202.768 2242.37,221.982 2243.19,187.278 2244,183.388 2244.82,198.906 2245.64,159.909 2246.46,218.153 2247.28,263.677 2248.09,179.492 2248.91,241.031 2249.73,337.518 2250.55,179.492 2251.36,233.431 2252.18,179.492 2253,191.161 2253.82,221.982 2254.64,293.513 2255.45,267.428 2256.27,304.598 2257.09,191.161 2257.91,202.768 2258.73,225.805 2259.54,218.153 2260.36,271.174 2261.18,206.624 2262,263.677 2262.82,183.388 2263.63,218.153 2264.45,171.679 2265.27,259.918 2266.09,198.906 2266.9,278.645 2267.72,229.621 2268.54,297.214 2269.36,289.805 2270.18,171.679 2270.99,225.805 2271.81,326.6 2272.63,259.918 2273.45,351.991 2274.27,241.031 2275.08,241.031 2275.9,263.677 2276.72,241.031 2277.54,87.9763 2278.35,221.982 2279.17,259.918 2279.99,315.626 2280.81,233.431 2281.63,233.431 2282.44,248.606 2283.26,289.805 2284.08,179.492 2284.9,278.645 2285.72,191.161 2286.53,221.982 2287.35,319.29 2288.17,159.909 2288.99,271.174 2289.8,218.153 2290.62,233.431 2291.44,175.589 "/>
<path clip-path="url(#clip130)" d="M258.49 198.898 L527.569 198.898 L527.569 95.2176 L258.49 95.2176  Z" fill="#ffffff" fill-rule="evenodd" fill-opacity="1"/>
<polyline clip-path="url(#clip130)" style="stroke:#000000; stroke-linecap:round; stroke-linejoin:round; stroke-width:4; stroke-opacity:1; fill:none" points="258.49,198.898 527.569,198.898 527.569,95.2176 258.49,95.2176 258.49,198.898 "/>
<polyline clip-path="url(#clip130)" style="stroke:#009af9; stroke-linecap:round; stroke-linejoin:round; stroke-width:4; stroke-opacity:1; fill:none" points="282.562,147.058 426.994,147.058 "/>
<path clip-path="url(#clip130)" d="M464.909 166.745 Q463.103 171.375 461.39 172.787 Q459.677 174.199 456.807 174.199 L453.404 174.199 L453.404 170.634 L455.904 170.634 Q457.663 170.634 458.636 169.8 Q459.608 168.967 460.788 165.865 L461.552 163.921 L451.066 138.412 L455.58 138.412 L463.682 158.689 L471.784 138.412 L476.298 138.412 L464.909 166.745 Z" fill="#000000" fill-rule="nonzero" fill-opacity="1" /><path clip-path="url(#clip130)" d="M483.589 160.402 L491.228 160.402 L491.228 134.037 L482.918 135.703 L482.918 131.444 L491.182 129.778 L495.858 129.778 L495.858 160.402 L503.497 160.402 L503.497 164.338 L483.589 164.338 L483.589 160.402 Z" fill="#000000" fill-rule="nonzero" fill-opacity="1" /></svg>
