<?xml version="1.0" encoding="utf-8"?>
<svg xmlns="http://www.w3.org/2000/svg" xmlns:xlink="http://www.w3.org/1999/xlink" width="600" height="400" viewBox="0 0 2400 1600">
<defs>
  <clipPath id="clip830">
    <rect x="0" y="0" width="2400" height="1600"/>
  </clipPath>
</defs>
<path clip-path="url(#clip830)" d="M0 1600 L2400 1600 L2400 0 L0 0  Z" fill="#ffffff" fill-rule="evenodd" fill-opacity="1"/>
<defs>
  <clipPath id="clip831">
    <rect x="480" y="0" width="1681" height="1600"/>
  </clipPath>
</defs>
<path clip-path="url(#clip830)" d="M172.015 1486.45 L2352.76 1486.45 L2352.76 47.2441 L172.015 47.2441  Z" fill="#ffffff" fill-rule="evenodd" fill-opacity="1"/>
<defs>
  <clipPath id="clip832">
    <rect x="172" y="47" width="2182" height="1440"/>
  </clipPath>
</defs>
<polyline clip-path="url(#clip832)" style="stroke:#000000; stroke-linecap:round; stroke-linejoin:round; stroke-width:2; stroke-opacity:0.1; fill:none" points="233.734,1486.45 233.734,47.2441 "/>
<polyline clip-path="url(#clip832)" style="stroke:#000000; stroke-linecap:round; stroke-linejoin:round; stroke-width:2; stroke-opacity:0.1; fill:none" points="748.06,1486.45 748.06,47.2441 "/>
<polyline clip-path="url(#clip832)" style="stroke:#000000; stroke-linecap:round; stroke-linejoin:round; stroke-width:2; stroke-opacity:0.1; fill:none" points="1262.39,1486.45 1262.39,47.2441 "/>
<polyline clip-path="url(#clip832)" style="stroke:#000000; stroke-linecap:round; stroke-linejoin:round; stroke-width:2; stroke-opacity:0.1; fill:none" points="1776.71,1486.45 1776.71,47.2441 "/>
<polyline clip-path="url(#clip832)" style="stroke:#000000; stroke-linecap:round; stroke-linejoin:round; stroke-width:2; stroke-opacity:0.1; fill:none" points="2291.04,1486.45 2291.04,47.2441 "/>
<polyline clip-path="url(#clip830)" style="stroke:#000000; stroke-linecap:round; stroke-linejoin:round; stroke-width:4; stroke-opacity:1; fill:none" points="172.015,1486.45 2352.76,1486.45 "/>
<polyline clip-path="url(#clip830)" style="stroke:#000000; stroke-linecap:round; stroke-linejoin:round; stroke-width:4; stroke-opacity:1; fill:none" points="233.734,1486.45 233.734,1467.55 "/>
<polyline clip-path="url(#clip830)" style="stroke:#000000; stroke-linecap:round; stroke-linejoin:round; stroke-width:4; stroke-opacity:1; fill:none" points="748.06,1486.45 748.06,1467.55 "/>
<polyline clip-path="url(#clip830)" style="stroke:#000000; stroke-linecap:round; stroke-linejoin:round; stroke-width:4; stroke-opacity:1; fill:none" points="1262.39,1486.45 1262.39,1467.55 "/>
<polyline clip-path="url(#clip830)" style="stroke:#000000; stroke-linecap:round; stroke-linejoin:round; stroke-width:4; stroke-opacity:1; fill:none" points="1776.71,1486.45 1776.71,1467.55 "/>
<polyline clip-path="url(#clip830)" style="stroke:#000000; stroke-linecap:round; stroke-linejoin:round; stroke-width:4; stroke-opacity:1; fill:none" points="2291.04,1486.45 2291.04,1467.55 "/>
<path clip-path="url(#clip830)" d="M233.734 1517.37 Q230.123 1517.37 228.294 1520.93 Q226.489 1524.47 226.489 1531.6 Q226.489 1538.71 228.294 1542.27 Q230.123 1545.82 233.734 1545.82 Q237.368 1545.82 239.174 1542.27 Q241.002 1538.71 241.002 1531.6 Q241.002 1524.47 239.174 1520.93 Q237.368 1517.37 233.734 1517.37 M233.734 1513.66 Q239.544 1513.66 242.6 1518.27 Q245.678 1522.85 245.678 1531.6 Q245.678 1540.33 242.6 1544.94 Q239.544 1549.52 233.734 1549.52 Q227.924 1549.52 224.845 1544.94 Q221.79 1540.33 221.79 1531.6 Q221.79 1522.85 224.845 1518.27 Q227.924 1513.66 233.734 1513.66 Z" fill="#000000" fill-rule="nonzero" fill-opacity="1" /><path clip-path="url(#clip830)" d="M707.678 1514.29 L726.034 1514.29 L726.034 1518.22 L711.96 1518.22 L711.96 1526.7 Q712.979 1526.35 713.997 1526.19 Q715.016 1526 716.034 1526 Q721.821 1526 725.201 1529.17 Q728.581 1532.34 728.581 1537.76 Q728.581 1543.34 725.108 1546.44 Q721.636 1549.52 715.317 1549.52 Q713.141 1549.52 710.872 1549.15 Q708.627 1548.78 706.22 1548.04 L706.22 1543.34 Q708.303 1544.47 710.525 1545.03 Q712.747 1545.58 715.224 1545.58 Q719.229 1545.58 721.567 1543.48 Q723.905 1541.37 723.905 1537.76 Q723.905 1534.15 721.567 1532.04 Q719.229 1529.94 715.224 1529.94 Q713.349 1529.94 711.474 1530.35 Q709.622 1530.77 707.678 1531.65 L707.678 1514.29 Z" fill="#000000" fill-rule="nonzero" fill-opacity="1" /><path clip-path="url(#clip830)" d="M747.793 1517.37 Q744.182 1517.37 742.354 1520.93 Q740.548 1524.47 740.548 1531.6 Q740.548 1538.71 742.354 1542.27 Q744.182 1545.82 747.793 1545.82 Q751.428 1545.82 753.233 1542.27 Q755.062 1538.71 755.062 1531.6 Q755.062 1524.47 753.233 1520.93 Q751.428 1517.37 747.793 1517.37 M747.793 1513.66 Q753.604 1513.66 756.659 1518.27 Q759.738 1522.85 759.738 1531.6 Q759.738 1540.33 756.659 1544.94 Q753.604 1549.52 747.793 1549.52 Q741.983 1549.52 738.905 1544.94 Q735.849 1540.33 735.849 1531.6 Q735.849 1522.85 738.905 1518.27 Q741.983 1513.66 747.793 1513.66 Z" fill="#000000" fill-rule="nonzero" fill-opacity="1" /><path clip-path="url(#clip830)" d="M777.955 1517.37 Q774.344 1517.37 772.516 1520.93 Q770.71 1524.47 770.71 1531.6 Q770.71 1538.71 772.516 1542.27 Q774.344 1545.82 777.955 1545.82 Q781.59 1545.82 783.395 1542.27 Q785.224 1538.71 785.224 1531.6 Q785.224 1524.47 783.395 1520.93 Q781.59 1517.37 777.955 1517.37 M777.955 1513.66 Q783.765 1513.66 786.821 1518.27 Q789.9 1522.85 789.9 1531.6 Q789.9 1540.33 786.821 1544.94 Q783.765 1549.52 777.955 1549.52 Q772.145 1549.52 769.066 1544.94 Q766.011 1540.33 766.011 1531.6 Q766.011 1522.85 769.066 1518.27 Q772.145 1513.66 777.955 1513.66 Z" fill="#000000" fill-rule="nonzero" fill-opacity="1" /><path clip-path="url(#clip830)" d="M1206.91 1544.91 L1214.55 1544.91 L1214.55 1518.55 L1206.24 1520.21 L1206.24 1515.95 L1214.5 1514.29 L1219.18 1514.29 L1219.18 1544.91 L1226.82 1544.91 L1226.82 1548.85 L1206.91 1548.85 L1206.91 1544.91 Z" fill="#000000" fill-rule="nonzero" fill-opacity="1" /><path clip-path="url(#clip830)" d="M1246.26 1517.37 Q1242.65 1517.37 1240.82 1520.93 Q1239.02 1524.47 1239.02 1531.6 Q1239.02 1538.71 1240.82 1542.27 Q1242.65 1545.82 1246.26 1545.82 Q1249.9 1545.82 1251.7 1542.27 Q1253.53 1538.71 1253.53 1531.6 Q1253.53 1524.47 1251.7 1520.93 Q1249.9 1517.37 1246.26 1517.37 M1246.26 1513.66 Q1252.07 1513.66 1255.13 1518.27 Q1258.21 1522.85 1258.21 1531.6 Q1258.21 1540.33 1255.13 1544.94 Q1252.07 1549.52 1246.26 1549.52 Q1240.45 1549.52 1237.37 1544.94 Q1234.32 1540.33 1234.32 1531.6 Q1234.32 1522.85 1237.37 1518.27 Q1240.45 1513.66 1246.26 1513.66 Z" fill="#000000" fill-rule="nonzero" fill-opacity="1" /><path clip-path="url(#clip830)" d="M1276.42 1517.37 Q1272.81 1517.37 1270.98 1520.93 Q1269.18 1524.47 1269.18 1531.6 Q1269.18 1538.71 1270.98 1542.27 Q1272.81 1545.82 1276.42 1545.82 Q1280.06 1545.82 1281.86 1542.27 Q1283.69 1538.71 1283.69 1531.6 Q1283.69 1524.47 1281.86 1520.93 Q1280.06 1517.37 1276.42 1517.37 M1276.42 1513.66 Q1282.23 1513.66 1285.29 1518.27 Q1288.37 1522.85 1288.37 1531.6 Q1288.37 1540.33 1285.29 1544.94 Q1282.23 1549.52 1276.42 1549.52 Q1270.61 1549.52 1267.54 1544.94 Q1264.48 1540.33 1264.48 1531.6 Q1264.48 1522.85 1267.54 1518.27 Q1270.61 1513.66 1276.42 1513.66 Z" fill="#000000" fill-rule="nonzero" fill-opacity="1" /><path clip-path="url(#clip830)" d="M1306.59 1517.37 Q1302.98 1517.37 1301.15 1520.93 Q1299.34 1524.47 1299.34 1531.6 Q1299.34 1538.71 1301.15 1542.27 Q1302.98 1545.82 1306.59 1545.82 Q1310.22 1545.82 1312.03 1542.27 Q1313.85 1538.71 1313.85 1531.6 Q1313.85 1524.47 1312.03 1520.93 Q1310.22 1517.37 1306.59 1517.37 M1306.59 1513.66 Q1312.4 1513.66 1315.45 1518.27 Q1318.53 1522.85 1318.53 1531.6 Q1318.53 1540.33 1315.45 1544.94 Q1312.4 1549.52 1306.59 1549.52 Q1300.78 1549.52 1297.7 1544.94 Q1294.64 1540.33 1294.64 1531.6 Q1294.64 1522.85 1297.7 1518.27 Q1300.78 1513.66 1306.59 1513.66 Z" fill="#000000" fill-rule="nonzero" fill-opacity="1" /><path clip-path="url(#clip830)" d="M1721.24 1544.91 L1728.88 1544.91 L1728.88 1518.55 L1720.57 1520.21 L1720.57 1515.95 L1728.83 1514.29 L1733.51 1514.29 L1733.51 1544.91 L1741.14 1544.91 L1741.14 1548.85 L1721.24 1548.85 L1721.24 1544.91 Z" fill="#000000" fill-rule="nonzero" fill-opacity="1" /><path clip-path="url(#clip830)" d="M1750.63 1514.29 L1768.99 1514.29 L1768.99 1518.22 L1754.92 1518.22 L1754.92 1526.7 Q1755.94 1526.35 1756.95 1526.19 Q1757.97 1526 1758.99 1526 Q1764.78 1526 1768.16 1529.17 Q1771.54 1532.34 1771.54 1537.76 Q1771.54 1543.34 1768.07 1546.44 Q1764.59 1549.52 1758.27 1549.52 Q1756.1 1549.52 1753.83 1549.15 Q1751.58 1548.78 1749.18 1548.04 L1749.18 1543.34 Q1751.26 1544.47 1753.48 1545.03 Q1755.7 1545.58 1758.18 1545.58 Q1762.19 1545.58 1764.52 1543.48 Q1766.86 1541.37 1766.86 1537.76 Q1766.86 1534.15 1764.52 1532.04 Q1762.19 1529.94 1758.18 1529.94 Q1756.31 1529.94 1754.43 1530.35 Q1752.58 1530.77 1750.63 1531.65 L1750.63 1514.29 Z" fill="#000000" fill-rule="nonzero" fill-opacity="1" /><path clip-path="url(#clip830)" d="M1790.75 1517.37 Q1787.14 1517.37 1785.31 1520.93 Q1783.51 1524.47 1783.51 1531.6 Q1783.51 1538.71 1785.31 1542.27 Q1787.14 1545.82 1790.75 1545.82 Q1794.38 1545.82 1796.19 1542.27 Q1798.02 1538.71 1798.02 1531.6 Q1798.02 1524.47 1796.19 1520.93 Q1794.38 1517.37 1790.75 1517.37 M1790.75 1513.66 Q1796.56 1513.66 1799.62 1518.27 Q1802.69 1522.85 1802.69 1531.6 Q1802.69 1540.33 1799.62 1544.94 Q1796.56 1549.52 1790.75 1549.52 Q1784.94 1549.52 1781.86 1544.94 Q1778.81 1540.33 1778.81 1531.6 Q1778.81 1522.85 1781.86 1518.27 Q1784.94 1513.66 1790.75 1513.66 Z" fill="#000000" fill-rule="nonzero" fill-opacity="1" /><path clip-path="url(#clip830)" d="M1820.91 1517.37 Q1817.3 1517.37 1815.47 1520.93 Q1813.67 1524.47 1813.67 1531.6 Q1813.67 1538.71 1815.47 1542.27 Q1817.3 1545.82 1820.91 1545.82 Q1824.55 1545.82 1826.35 1542.27 Q1828.18 1538.71 1828.18 1531.6 Q1828.18 1524.47 1826.35 1520.93 Q1824.55 1517.37 1820.91 1517.37 M1820.91 1513.66 Q1826.72 1513.66 1829.78 1518.27 Q1832.86 1522.85 1832.86 1531.6 Q1832.86 1540.33 1829.78 1544.94 Q1826.72 1549.52 1820.91 1549.52 Q1815.1 1549.52 1812.02 1544.94 Q1808.97 1540.33 1808.97 1531.6 Q1808.97 1522.85 1812.02 1518.27 Q1815.1 1513.66 1820.91 1513.66 Z" fill="#000000" fill-rule="nonzero" fill-opacity="1" /><path clip-path="url(#clip830)" d="M2239.65 1544.91 L2255.97 1544.91 L2255.97 1548.85 L2234.02 1548.85 L2234.02 1544.91 Q2236.69 1542.16 2241.27 1537.53 Q2245.88 1532.88 2247.06 1531.53 Q2249.3 1529.01 2250.18 1527.27 Q2251.08 1525.51 2251.08 1523.82 Q2251.08 1521.07 2249.14 1519.33 Q2247.22 1517.6 2244.12 1517.6 Q2241.92 1517.6 2239.46 1518.36 Q2237.03 1519.13 2234.25 1520.68 L2234.25 1515.95 Q2237.08 1514.82 2239.53 1514.24 Q2241.99 1513.66 2244.02 1513.66 Q2249.39 1513.66 2252.59 1516.35 Q2255.78 1519.03 2255.78 1523.52 Q2255.78 1525.65 2254.97 1527.57 Q2254.19 1529.47 2252.08 1532.07 Q2251.5 1532.74 2248.4 1535.95 Q2245.3 1539.15 2239.65 1544.91 Z" fill="#000000" fill-rule="nonzero" fill-opacity="1" /><path clip-path="url(#clip830)" d="M2275.78 1517.37 Q2272.17 1517.37 2270.34 1520.93 Q2268.54 1524.47 2268.54 1531.6 Q2268.54 1538.71 2270.34 1542.27 Q2272.17 1545.82 2275.78 1545.82 Q2279.42 1545.82 2281.22 1542.27 Q2283.05 1538.71 2283.05 1531.6 Q2283.05 1524.47 2281.22 1520.93 Q2279.42 1517.37 2275.78 1517.37 M2275.78 1513.66 Q2281.59 1513.66 2284.65 1518.27 Q2287.73 1522.85 2287.73 1531.6 Q2287.73 1540.33 2284.65 1544.94 Q2281.59 1549.52 2275.78 1549.52 Q2269.97 1549.52 2266.89 1544.94 Q2263.84 1540.33 2263.84 1531.6 Q2263.84 1522.85 2266.89 1518.27 Q2269.97 1513.66 2275.78 1513.66 Z" fill="#000000" fill-rule="nonzero" fill-opacity="1" /><path clip-path="url(#clip830)" d="M2305.94 1517.37 Q2302.33 1517.37 2300.5 1520.93 Q2298.7 1524.47 2298.7 1531.6 Q2298.7 1538.71 2300.5 1542.27 Q2302.33 1545.82 2305.94 1545.82 Q2309.58 1545.82 2311.38 1542.27 Q2313.21 1538.71 2313.21 1531.6 Q2313.21 1524.47 2311.38 1520.93 Q2309.58 1517.37 2305.94 1517.37 M2305.94 1513.66 Q2311.75 1513.66 2314.81 1518.27 Q2317.89 1522.85 2317.89 1531.6 Q2317.89 1540.33 2314.81 1544.94 Q2311.75 1549.52 2305.94 1549.52 Q2300.13 1549.52 2297.06 1544.94 Q2294 1540.33 2294 1531.6 Q2294 1522.85 2297.06 1518.27 Q2300.13 1513.66 2305.94 1513.66 Z" fill="#000000" fill-rule="nonzero" fill-opacity="1" /><path clip-path="url(#clip830)" d="M2336.11 1517.37 Q2332.49 1517.37 2330.67 1520.93 Q2328.86 1524.47 2328.86 1531.6 Q2328.86 1538.71 2330.67 1542.27 Q2332.49 1545.82 2336.11 1545.82 Q2339.74 1545.82 2341.55 1542.27 Q2343.37 1538.71 2343.37 1531.6 Q2343.37 1524.47 2341.55 1520.93 Q2339.74 1517.37 2336.11 1517.37 M2336.11 1513.66 Q2341.92 1513.66 2344.97 1518.27 Q2348.05 1522.85 2348.05 1531.6 Q2348.05 1540.33 2344.97 1544.94 Q2341.92 1549.52 2336.11 1549.52 Q2330.3 1549.52 2327.22 1544.94 Q2324.16 1540.33 2324.16 1531.6 Q2324.16 1522.85 2327.22 1518.27 Q2330.3 1513.66 2336.11 1513.66 Z" fill="#000000" fill-rule="nonzero" fill-opacity="1" /><polyline clip-path="url(#clip832)" style="stroke:#000000; stroke-linecap:round; stroke-linejoin:round; stroke-width:2; stroke-opacity:0.1; fill:none" points="172.015,1463.75 2352.76,1463.75 "/>
<polyline clip-path="url(#clip832)" style="stroke:#000000; stroke-linecap:round; stroke-linejoin:round; stroke-width:2; stroke-opacity:0.1; fill:none" points="172.015,1173.19 2352.76,1173.19 "/>
<polyline clip-path="url(#clip832)" style="stroke:#000000; stroke-linecap:round; stroke-linejoin:round; stroke-width:2; stroke-opacity:0.1; fill:none" points="172.015,882.622 2352.76,882.622 "/>
<polyline clip-path="url(#clip832)" style="stroke:#000000; stroke-linecap:round; stroke-linejoin:round; stroke-width:2; stroke-opacity:0.1; fill:none" points="172.015,592.058 2352.76,592.058 "/>
<polyline clip-path="url(#clip832)" style="stroke:#000000; stroke-linecap:round; stroke-linejoin:round; stroke-width:2; stroke-opacity:0.1; fill:none" points="172.015,301.494 2352.76,301.494 "/>
<polyline clip-path="url(#clip830)" style="stroke:#000000; stroke-linecap:round; stroke-linejoin:round; stroke-width:4; stroke-opacity:1; fill:none" points="172.015,1486.45 172.015,47.2441 "/>
<polyline clip-path="url(#clip830)" style="stroke:#000000; stroke-linecap:round; stroke-linejoin:round; stroke-width:4; stroke-opacity:1; fill:none" points="172.015,1463.75 190.912,1463.75 "/>
<polyline clip-path="url(#clip830)" style="stroke:#000000; stroke-linecap:round; stroke-linejoin:round; stroke-width:4; stroke-opacity:1; fill:none" points="172.015,1173.19 190.912,1173.19 "/>
<polyline clip-path="url(#clip830)" style="stroke:#000000; stroke-linecap:round; stroke-linejoin:round; stroke-width:4; stroke-opacity:1; fill:none" points="172.015,882.622 190.912,882.622 "/>
<polyline clip-path="url(#clip830)" style="stroke:#000000; stroke-linecap:round; stroke-linejoin:round; stroke-width:4; stroke-opacity:1; fill:none" points="172.015,592.058 190.912,592.058 "/>
<polyline clip-path="url(#clip830)" style="stroke:#000000; stroke-linecap:round; stroke-linejoin:round; stroke-width:4; stroke-opacity:1; fill:none" points="172.015,301.494 190.912,301.494 "/>
<path clip-path="url(#clip830)" d="M57.7745 1477.09 L74.0939 1477.09 L74.0939 1481.03 L52.1495 1481.03 L52.1495 1477.09 Q54.8115 1474.34 59.3949 1469.71 Q64.0013 1465.06 65.1819 1463.72 Q67.4272 1461.19 68.3068 1459.46 Q69.2096 1457.7 69.2096 1456.01 Q69.2096 1453.25 67.2652 1451.52 Q65.3439 1449.78 62.2421 1449.78 Q60.043 1449.78 57.5893 1450.54 Q55.1588 1451.31 52.381 1452.86 L52.381 1448.14 Q55.2051 1447 57.6588 1446.42 Q60.1124 1445.84 62.1495 1445.84 Q67.5198 1445.84 70.7142 1448.53 Q73.9087 1451.22 73.9087 1455.71 Q73.9087 1457.84 73.0985 1459.76 Q72.3115 1461.65 70.205 1464.25 Q69.6263 1464.92 66.5245 1468.14 Q63.4226 1471.33 57.7745 1477.09 Z" fill="#000000" fill-rule="nonzero" fill-opacity="1" /><path clip-path="url(#clip830)" d="M83.9549 1446.47 L102.311 1446.47 L102.311 1450.41 L88.2373 1450.41 L88.2373 1458.88 Q89.2558 1458.53 90.2743 1458.37 Q91.2928 1458.18 92.3113 1458.18 Q98.0984 1458.18 101.478 1461.35 Q104.858 1464.53 104.858 1469.94 Q104.858 1475.52 101.385 1478.62 Q97.9132 1481.7 91.5938 1481.7 Q89.4178 1481.7 87.1493 1481.33 Q84.904 1480.96 82.4966 1480.22 L82.4966 1475.52 Q84.5799 1476.65 86.8021 1477.21 Q89.0243 1477.77 91.5012 1477.77 Q95.5058 1477.77 97.8437 1475.66 Q100.182 1473.55 100.182 1469.94 Q100.182 1466.33 97.8437 1464.22 Q95.5058 1462.12 91.5012 1462.12 Q89.6262 1462.12 87.7512 1462.53 Q85.8993 1462.95 83.9549 1463.83 L83.9549 1446.47 Z" fill="#000000" fill-rule="nonzero" fill-opacity="1" /><path clip-path="url(#clip830)" d="M124.07 1449.55 Q120.459 1449.55 118.631 1453.11 Q116.825 1456.65 116.825 1463.78 Q116.825 1470.89 118.631 1474.46 Q120.459 1478 124.07 1478 Q127.705 1478 129.51 1474.46 Q131.339 1470.89 131.339 1463.78 Q131.339 1456.65 129.51 1453.11 Q127.705 1449.55 124.07 1449.55 M124.07 1445.84 Q129.881 1445.84 132.936 1450.45 Q136.015 1455.03 136.015 1463.78 Q136.015 1472.51 132.936 1477.12 Q129.881 1481.7 124.07 1481.7 Q118.26 1481.7 115.182 1477.12 Q112.126 1472.51 112.126 1463.78 Q112.126 1455.03 115.182 1450.45 Q118.26 1445.84 124.07 1445.84 Z" fill="#000000" fill-rule="nonzero" fill-opacity="1" /><path clip-path="url(#clip830)" d="M67.9133 1171.83 Q71.2698 1172.55 73.1448 1174.82 Q75.0429 1177.09 75.0429 1180.42 Q75.0429 1185.54 71.5244 1188.34 Q68.0059 1191.14 61.5245 1191.14 Q59.3486 1191.14 57.0338 1190.7 Q54.7421 1190.28 52.2884 1189.42 L52.2884 1184.91 Q54.2328 1186.04 56.5477 1186.62 Q58.8625 1187.2 61.3856 1187.2 Q65.7837 1187.2 68.0754 1185.47 Q70.3902 1183.73 70.3902 1180.42 Q70.3902 1177.36 68.2374 1175.65 Q66.1078 1173.91 62.2884 1173.91 L58.2606 1173.91 L58.2606 1170.07 L62.4735 1170.07 Q65.9226 1170.07 67.7513 1168.71 Q69.58 1167.32 69.58 1164.73 Q69.58 1162.06 67.6819 1160.65 Q65.8069 1159.22 62.2884 1159.22 Q60.3671 1159.22 58.168 1159.63 Q55.969 1160.05 53.3301 1160.93 L53.3301 1156.76 Q55.9921 1156.02 58.3069 1155.65 Q60.6449 1155.28 62.705 1155.28 Q68.0291 1155.28 71.1309 1157.71 Q74.2327 1160.12 74.2327 1164.24 Q74.2327 1167.11 72.5892 1169.1 Q70.9457 1171.07 67.9133 1171.83 Z" fill="#000000" fill-rule="nonzero" fill-opacity="1" /><path clip-path="url(#clip830)" d="M93.9086 1158.98 Q90.2975 1158.98 88.4688 1162.55 Q86.6632 1166.09 86.6632 1173.22 Q86.6632 1180.33 88.4688 1183.89 Q90.2975 1187.43 93.9086 1187.43 Q97.5428 1187.43 99.3483 1183.89 Q101.177 1180.33 101.177 1173.22 Q101.177 1166.09 99.3483 1162.55 Q97.5428 1158.98 93.9086 1158.98 M93.9086 1155.28 Q99.7187 1155.28 102.774 1159.89 Q105.853 1164.47 105.853 1173.22 Q105.853 1181.95 102.774 1186.55 Q99.7187 1191.14 93.9086 1191.14 Q88.0984 1191.14 85.0197 1186.55 Q81.9642 1181.95 81.9642 1173.22 Q81.9642 1164.47 85.0197 1159.89 Q88.0984 1155.28 93.9086 1155.28 Z" fill="#000000" fill-rule="nonzero" fill-opacity="1" /><path clip-path="url(#clip830)" d="M124.07 1158.98 Q120.459 1158.98 118.631 1162.55 Q116.825 1166.09 116.825 1173.22 Q116.825 1180.33 118.631 1183.89 Q120.459 1187.43 124.07 1187.43 Q127.705 1187.43 129.51 1183.89 Q131.339 1180.33 131.339 1173.22 Q131.339 1166.09 129.51 1162.55 Q127.705 1158.98 124.07 1158.98 M124.07 1155.28 Q129.881 1155.28 132.936 1159.89 Q136.015 1164.47 136.015 1173.22 Q136.015 1181.95 132.936 1186.55 Q129.881 1191.14 124.07 1191.14 Q118.26 1191.14 115.182 1186.55 Q112.126 1181.95 112.126 1173.22 Q112.126 1164.47 115.182 1159.89 Q118.26 1155.28 124.07 1155.28 Z" fill="#000000" fill-rule="nonzero" fill-opacity="1" /><path clip-path="url(#clip830)" d="M67.9133 881.268 Q71.2698 881.985 73.1448 884.254 Q75.0429 886.522 75.0429 889.855 Q75.0429 894.971 71.5244 897.772 Q68.0059 900.573 61.5245 900.573 Q59.3486 900.573 57.0338 900.133 Q54.7421 899.717 52.2884 898.86 L52.2884 894.346 Q54.2328 895.48 56.5477 896.059 Q58.8625 896.638 61.3856 896.638 Q65.7837 896.638 68.0754 894.902 Q70.3902 893.166 70.3902 889.855 Q70.3902 886.8 68.2374 885.087 Q66.1078 883.351 62.2884 883.351 L58.2606 883.351 L58.2606 879.508 L62.4735 879.508 Q65.9226 879.508 67.7513 878.143 Q69.58 876.754 69.58 874.161 Q69.58 871.499 67.6819 870.087 Q65.8069 868.652 62.2884 868.652 Q60.3671 868.652 58.168 869.069 Q55.969 869.485 53.3301 870.365 L53.3301 866.198 Q55.9921 865.457 58.3069 865.087 Q60.6449 864.717 62.705 864.717 Q68.0291 864.717 71.1309 867.147 Q74.2327 869.555 74.2327 873.675 Q74.2327 876.545 72.5892 878.536 Q70.9457 880.504 67.9133 881.268 Z" fill="#000000" fill-rule="nonzero" fill-opacity="1" /><path clip-path="url(#clip830)" d="M83.9549 865.342 L102.311 865.342 L102.311 869.277 L88.2373 869.277 L88.2373 877.749 Q89.2558 877.402 90.2743 877.24 Q91.2928 877.055 92.3113 877.055 Q98.0984 877.055 101.478 880.226 Q104.858 883.397 104.858 888.814 Q104.858 894.392 101.385 897.494 Q97.9132 900.573 91.5938 900.573 Q89.4178 900.573 87.1493 900.203 Q84.904 899.832 82.4966 899.092 L82.4966 894.392 Q84.5799 895.527 86.8021 896.082 Q89.0243 896.638 91.5012 896.638 Q95.5058 896.638 97.8437 894.531 Q100.182 892.425 100.182 888.814 Q100.182 885.203 97.8437 883.096 Q95.5058 880.99 91.5012 880.99 Q89.6262 880.99 87.7512 881.406 Q85.8993 881.823 83.9549 882.703 L83.9549 865.342 Z" fill="#000000" fill-rule="nonzero" fill-opacity="1" /><path clip-path="url(#clip830)" d="M124.07 868.42 Q120.459 868.42 118.631 871.985 Q116.825 875.527 116.825 882.656 Q116.825 889.763 118.631 893.328 Q120.459 896.869 124.07 896.869 Q127.705 896.869 129.51 893.328 Q131.339 889.763 131.339 882.656 Q131.339 875.527 129.51 871.985 Q127.705 868.42 124.07 868.42 M124.07 864.717 Q129.881 864.717 132.936 869.323 Q136.015 873.906 136.015 882.656 Q136.015 891.383 132.936 895.99 Q129.881 900.573 124.07 900.573 Q118.26 900.573 115.182 895.99 Q112.126 891.383 112.126 882.656 Q112.126 873.906 115.182 869.323 Q118.26 864.717 124.07 864.717 Z" fill="#000000" fill-rule="nonzero" fill-opacity="1" /><path clip-path="url(#clip830)" d="M66.5939 578.852 L54.7884 597.301 L66.5939 597.301 L66.5939 578.852 M65.367 574.778 L71.2466 574.778 L71.2466 597.301 L76.1772 597.301 L76.1772 601.19 L71.2466 601.19 L71.2466 609.338 L66.5939 609.338 L66.5939 601.19 L50.9921 601.19 L50.9921 596.676 L65.367 574.778 Z" fill="#000000" fill-rule="nonzero" fill-opacity="1" /><path clip-path="url(#clip830)" d="M93.9086 577.856 Q90.2975 577.856 88.4688 581.421 Q86.6632 584.963 86.6632 592.092 Q86.6632 599.199 88.4688 602.764 Q90.2975 606.305 93.9086 606.305 Q97.5428 606.305 99.3483 602.764 Q101.177 599.199 101.177 592.092 Q101.177 584.963 99.3483 581.421 Q97.5428 577.856 93.9086 577.856 M93.9086 574.153 Q99.7187 574.153 102.774 578.759 Q105.853 583.342 105.853 592.092 Q105.853 600.819 102.774 605.426 Q99.7187 610.009 93.9086 610.009 Q88.0984 610.009 85.0197 605.426 Q81.9642 600.819 81.9642 592.092 Q81.9642 583.342 85.0197 578.759 Q88.0984 574.153 93.9086 574.153 Z" fill="#000000" fill-rule="nonzero" fill-opacity="1" /><path clip-path="url(#clip830)" d="M124.07 577.856 Q120.459 577.856 118.631 581.421 Q116.825 584.963 116.825 592.092 Q116.825 599.199 118.631 602.764 Q120.459 606.305 124.07 606.305 Q127.705 606.305 129.51 602.764 Q131.339 599.199 131.339 592.092 Q131.339 584.963 129.51 581.421 Q127.705 577.856 124.07 577.856 M124.07 574.153 Q129.881 574.153 132.936 578.759 Q136.015 583.342 136.015 592.092 Q136.015 600.819 132.936 605.426 Q129.881 610.009 124.07 610.009 Q118.26 610.009 115.182 605.426 Q112.126 600.819 112.126 592.092 Q112.126 583.342 115.182 578.759 Q118.26 574.153 124.07 574.153 Z" fill="#000000" fill-rule="nonzero" fill-opacity="1" /><path clip-path="url(#clip830)" d="M66.5939 288.288 L54.7884 306.737 L66.5939 306.737 L66.5939 288.288 M65.367 284.214 L71.2466 284.214 L71.2466 306.737 L76.1772 306.737 L76.1772 310.625 L71.2466 310.625 L71.2466 318.774 L66.5939 318.774 L66.5939 310.625 L50.9921 310.625 L50.9921 306.112 L65.367 284.214 Z" fill="#000000" fill-rule="nonzero" fill-opacity="1" /><path clip-path="url(#clip830)" d="M83.9549 284.214 L102.311 284.214 L102.311 288.149 L88.2373 288.149 L88.2373 296.621 Q89.2558 296.274 90.2743 296.112 Q91.2928 295.926 92.3113 295.926 Q98.0984 295.926 101.478 299.098 Q104.858 302.269 104.858 307.686 Q104.858 313.264 101.385 316.366 Q97.9132 319.445 91.5938 319.445 Q89.4178 319.445 87.1493 319.074 Q84.904 318.704 82.4966 317.963 L82.4966 313.264 Q84.5799 314.399 86.8021 314.954 Q89.0243 315.51 91.5012 315.51 Q95.5058 315.51 97.8437 313.403 Q100.182 311.297 100.182 307.686 Q100.182 304.075 97.8437 301.968 Q95.5058 299.862 91.5012 299.862 Q89.6262 299.862 87.7512 300.278 Q85.8993 300.695 83.9549 301.575 L83.9549 284.214 Z" fill="#000000" fill-rule="nonzero" fill-opacity="1" /><path clip-path="url(#clip830)" d="M124.07 287.292 Q120.459 287.292 118.631 290.857 Q116.825 294.399 116.825 301.528 Q116.825 308.635 118.631 312.199 Q120.459 315.741 124.07 315.741 Q127.705 315.741 129.51 312.199 Q131.339 308.635 131.339 301.528 Q131.339 294.399 129.51 290.857 Q127.705 287.292 124.07 287.292 M124.07 283.589 Q129.881 283.589 132.936 288.195 Q136.015 292.778 136.015 301.528 Q136.015 310.255 132.936 314.862 Q129.881 319.445 124.07 319.445 Q118.26 319.445 115.182 314.862 Q112.126 310.255 112.126 301.528 Q112.126 292.778 115.182 288.195 Q118.26 283.589 124.07 283.589 Z" fill="#000000" fill-rule="nonzero" fill-opacity="1" /><polyline clip-path="url(#clip832)" style="stroke:#009af9; stroke-linecap:round; stroke-linejoin:round; stroke-width:4; stroke-opacity:1; fill:none" points="233.734,749.467 234.763,677.039 235.791,1120.11 236.82,1031.57 237.849,829.699 238.877,612.602 239.906,1135.8 240.934,564.354 241.963,870.546 242.992,628.988 244.02,709.283 245.049,878.183 246.078,829.977 247.106,838.117 248.135,975.28 249.164,1055.19 250.192,1176.43 251.221,1039.1 252.25,966.742 253.278,1031.55 254.307,628.828 255.336,1022.96 256.364,1007.14 257.393,773.854 258.422,1047.86 259.45,757.333 260.479,395.429 261.507,1015.92 262.536,878.162 263.565,1015.29 264.593,612.71 265.622,773.507 266.651,1079.44 267.679,1087.72 268.708,1047.55 269.737,725.34 270.765,1305.18 271.794,894.727 272.823,918.468 273.851,748.941 274.88,1023.53 275.909,556.506 276.937,1047.86 277.966,555.807 278.995,830.019 280.023,934.988 281.052,1136.35 282.081,1031.55 283.109,1039.82 284.138,854.783 285.166,739.542 286.195,677.34 287.224,451.671 288.252,734.037 289.281,475.023 290.31,950.598 291.338,1143.68 292.367,822.298 293.396,1056.42 294.424,1024.05 295.453,1433.2 296.482,1337.41 297.51,975.881 298.539,1304.59 299.568,774.758 300.596,877.433 301.625,732.536 302.654,880.262 303.682,425.964 304.711,749.897 305.74,894.743 306.768,821.771 307.797,934.865 308.825,934.801 309.854,717.773 310.883,685.305 311.911,870.162 312.94,1072.15 313.969,1071.8 314.997,942.413 316.026,878.528 317.055,846.621 318.083,780.522 319.112,951.021 320.141,856.057 321.169,1096.35 322.198,595.813 323.227,903.298 324.255,371.012 325.284,1296.28 326.313,1177.37 327.341,717.744 328.37,1016.22 329.398,958.817 330.427,1248.65 331.456,822.747 332.484,918.073 333.513,983.002 334.542,829.515 335.57,854.433 336.599,765.626 337.628,1095.97 338.656,765.59 339.685,708.522 340.714,1000.59 341.742,933.977 342.771,974.84 343.8,749.795 344.828,750.128 345.857,1057.01 346.886,911.775 347.914,965.931 348.943,1160.28 349.972,926.604 351,523.805 352.029,1186.19 353.057,1346.41 354.086,1031.31 355.115,1135.92 356.143,988.923 357.172,773.3 358.201,1386.46 359.229,967.03 360.258,830.92 361.287,362.232 362.315,985.305 363.344,950.75 364.373,1062.58 365.401,1103.7 366.43,1199.43 367.459,863.532 368.487,926.756 369.516,1023.68 370.545,1064.96 371.573,731.773 372.602,998.302 373.631,701.232 374.659,693.546 375.688,974.828 376.716,1088.45 377.745,798.62 378.774,999.643 379.802,1217.22 380.831,1032.32 381.86,1104.5 382.888,965.498 383.917,1015.03 384.946,1046.44 385.974,966.214 387.003,328.958 388.032,919.988 389.06,459.535 390.089,798.057 391.118,870.188 392.146,498.821 393.175,702.963 394.204,356.18 395.232,1008.84 396.261,790.322 397.289,833.147 398.318,1007.43 399.347,917.214 400.375,1119.2 401.404,660.854 402.433,419.961 403.461,942.373 404.49,679.888 405.519,604.767 406.547,870.204 407.576,872.196 408.605,960.071 409.633,972.579 410.662,410.594 411.691,526.231 412.719,1143.37 413.748,763.457 414.777,999.238 415.805,821.556 416.834,741.639 417.863,869.544 418.891,701.625 419.92,911.396 420.948,774.149 421.977,651.429 423.006,952.072 424.034,661.574 425.063,607.562 426.092,917.536 427.12,678.703 428.149,735.818 429.178,1005.96 430.206,991.296 431.235,788.88 432.264,768.026 433.292,950.663 434.321,1225.08 435.35,683.613 436.378,386.688 437.407,861.987 438.436,749.303 439.464,531.896 440.493,629.271 441.522,983.166 442.55,1029.46 443.579,1055.25 444.607,1046.93 445.636,902.706 446.665,598.454 447.693,670.9 448.722,877.834 449.751,1096.37 450.779,533.685 451.808,751.37 452.837,782.905 453.865,668.534 454.894,797.798 455.923,781.415 456.951,895.226 457.98,783.307 459.009,831.183 460.037,941.886 461.066,871.606 462.095,909.082 463.123,989.857 464.152,902.2 465.18,597.205 466.209,1049.01 467.238,983.392 468.266,1014.37 469.295,783.207 470.324,886.403 471.352,981.644 472.381,485.757 473.41,878.358 474.438,1199.22 475.467,1311.16 476.496,854.582 477.524,751.511 478.553,1039.66 479.582,966.633 480.61,1037.95 481.639,820.894 482.668,758.09 483.696,1111.8 484.725,1286.26 485.754,1047.6 486.782,807.407 487.811,935.214 488.839,863.592 489.868,781.738 490.897,751.341 491.925,965.907 492.954,348.413 493.983,912.528 495.011,982.043 496.04,888.305 497.069,667.357 498.097,839.032 499.126,701.504 500.155,1128.13 501.183,1237.64 502.212,989.202 503.241,966.904 504.269,885.356 505.298,364.035 506.327,782.453 507.355,870.61 508.384,959.653 509.412,986.269 510.441,933.762 511.47,638.744 512.498,1079.57 513.527,357.2 514.556,960.158 515.584,1063.27 516.613,1134.62 517.642,1138.31 518.67,1063.19 519.699,869.907 520.728,982.887 521.756,736.526 522.785,715.58 523.814,974.111 524.842,1096.18 525.871,1167.01 526.9,288.755 527.928,980.973 528.957,976.646 529.986,813.756 531.014,1086.13 532.043,1094.12 533.071,896.698 534.1,854.936 535.129,1160 536.157,683.174 537.186,683.024 538.215,581.246 539.243,590.601 540.272,806.431 541.301,719.671 542.329,902.923 543.358,630.537 544.387,796.682 545.415,784.816 546.444,1205.46 547.473,817.353 548.501,1135.96 549.53,1302.33 550.559,1275.07 551.587,838.532 552.616,980.298 553.645,1246.33 554.673,869.565 555.702,918.724 556.73,875.598 557.759,1202.28 558.788,630.999 559.816,1007.92 560.845,878.06 561.874,693.46 562.902,591.342 563.931,1128.44 564.96,967.409 565.988,621.743 567.017,1104.65 568.046,646.089 569.074,925.736 570.103,884.863 571.132,667.36 572.16,645.474 573.189,1319.1 574.218,1321.24 575.246,742.996 576.275,1376.58 577.303,1157.68 578.332,1108.58 579.361,461.047 580.389,1216.11 581.418,942.863 582.447,1169.28 583.475,1025.21 584.504,1017.3 585.533,840.466 586.561,1103.56 587.59,1261.94 588.619,861.987 589.647,917.299 590.676,1216.27 591.705,973.741 592.733,619.013 593.762,1045.32 594.791,871.859 595.819,1303.8 596.848,798.135 597.877,796.887 598.905,791.359 599.934,734.348 600.962,875.056 601.991,676.872 603.02,877.903 604.048,925.38 605.077,1007.86 606.106,960.45 607.134,683.435 608.163,900.991 609.192,709.572 610.22,1135.16 611.249,926.101 612.278,901.764 613.306,1240.98 614.335,736.596 615.364,829.34 616.392,759.529 617.421,797.666 618.45,1007.7 619.478,1242.97 620.507,718.72 621.536,629.502 622.564,557.682 623.593,919.386 624.621,628.34 625.65,734.202 626.679,1119.44 627.707,725.17 628.736,999.611 629.765,924.453 630.793,885.827 631.822,904.292 632.851,1032.65 633.879,637.243 634.908,807.849 635.937,1231.1 636.965,698.868 637.994,983.335 639.023,1166.61 640.051,911.335 641.08,669.254 642.109,379.35 643.137,1112.45 644.166,1112.53 645.194,700.618 646.223,627.503 647.252,517.115 648.28,339.489 649.309,835.441 650.338,878.946 651.366,765.501 652.395,839.649 653.424,1071.22 654.452,1040.79 655.481,966.512 656.51,492.418 657.538,764.772 658.567,1302.94 659.596,1094.31 660.624,1207.94 661.653,1138.26 662.682,790.517 663.71,1015.94 664.739,1015.81 665.768,1023.97 666.796,1442.09 667.825,949.131 668.853,1103.73 669.882,984.33 670.911,1071.98 671.939,1039.69 672.968,1104.22 673.997,1394.43 675.025,885.229 676.054,806.354 677.083,829.518 678.111,918.86 679.14,1088.94 680.169,789.558 681.197,1079.24 682.226,564.119 683.255,1039.98 684.283,1137.24 685.312,569.912 686.341,911.118 687.369,669.426 688.398,912.842 689.427,1224.94 690.455,708.999 691.484,1038.85 692.512,976.623 693.541,1303.7 694.57,952.283 695.598,1327.55 696.627,1142.66 697.656,855.086 698.684,1313.51 699.713,1242.2 700.742,922.352 701.77,983.914 702.799,919.979 703.828,1008.73 704.856,441.512 705.885,926.45 706.914,603.665 707.942,805.745 708.971,740.447 710,1096.06 711.028,565.959 712.057,636.63 713.085,984.782 714.114,1216.96 715.143,621.681 716.171,774.6 717.2,684.155 718.229,611.5 719.257,1053.57 720.286,831.349 721.315,999.795 722.343,1143.71 723.372,635.328 724.401,707.427 725.429,1304.72 726.458,853.945 727.487,603.312 728.515,1159.37 729.544,1118.38 730.573,967.507 731.601,619.59 732.63,646.35 733.659,1394.61 734.687,1046.01 735.716,974.876 736.744,1046.97 737.773,798.272 738.802,878.789 739.83,1016.73 740.859,965.453 741.888,1281.62 742.916,1046.79 743.945,917.56 744.974,1025.43 746.002,927.711 747.031,1047.23 748.06,827.358 749.088,183.886 750.117,474.633 751.146,595.602 752.174,1112.79 753.203,958.241 754.232,654.219 755.26,757.373 756.289,847.125 757.317,628.325 758.346,1039.39 759.375,694.615 760.403,403.577 761.432,716.033 762.461,927.976 763.489,949.808 764.518,1032.11 765.547,1198.5 766.575,798.259 767.604,917.35 768.633,1007.86 769.661,1054.07 770.69,716.75 771.719,1418.24 772.747,1191.77 773.776,460.276 774.805,911.212 775.833,812.552 776.862,637.856 777.891,813.5 778.919,636.938 779.948,1192.93 780.976,1006.8 782.005,1023.1 783.034,1048.17 784.062,1150.82 785.091,999.769 786.12,886.856 787.148,935.099 788.177,452.538 789.206,944.03 790.234,944.832 791.263,925.427 792.292,646.187 793.32,862.604 794.349,845.525 795.378,780.549 796.406,966.773 797.435,966.546 798.464,843.916 799.492,1042.18 800.521,992.612 801.55,1033.68 802.578,1014.93 803.607,1140.91 804.635,733.289 805.664,1207.83 806.693,1113.67 807.721,724.553 808.75,820.313 809.779,1039.63 810.807,862.692 811.836,717.814 812.865,655.678 813.893,662.759 814.922,839.937 815.951,895.079 816.979,803.169 818.008,1046.69 819.037,1023.26 820.065,1369.49 821.094,869.896 822.123,821.631 823.151,807.311 824.18,1102.77 825.208,1105.33 826.237,708.634 827.266,362.773 828.294,1150.24 829.323,644.325 830.352,807.748 831.38,846.749 832.409,742.231 833.438,781.817 834.466,959.404 835.495,990.439 836.524,684.926 837.552,1090.5 838.581,1047.94 839.61,1112.52 840.638,1006.94 841.667,743.574 842.696,797.151 843.724,659.745 844.753,702.85 845.782,718.06 846.81,949.825 847.839,931.486 848.867,727.657 849.896,908.492 850.925,1225.01 851.953,831.138 852.982,597.941 854.011,1046.66 855.039,620.53 856.068,1096.7 857.097,822.068 858.125,997.653 859.154,1168.12 860.183,765.638 861.211,1338.94 862.24,701.918 863.269,966.544 864.297,771.902 865.326,749.221 866.355,564.139 867.383,1185 868.412,780.977 869.441,854.141 870.469,821.74 871.498,879.007 872.526,878.107 873.555,933.525 874.584,814.191 875.612,610.307 876.641,957.908 877.67,1138.11 878.698,1040.63 879.727,1113.23 880.756,1031.98 881.784,531.809 882.813,709.316 883.842,1055.38 884.87,1127.17 885.899,1136.17 886.928,419.758 887.956,1113.72 888.985,757.953 890.014,893.879 891.042,1208.05 892.071,806.716 893.099,878.103 894.128,693.772 895.157,1047.79 896.185,863.521 897.214,838.273 898.243,529.834 899.271,1216.49 900.3,1047.81 901.329,1015.41 902.357,542.479 903.386,619.253 904.415,1070.19 905.443,1320.49 906.472,1249.53 907.501,860.531 908.529,1178.88 909.558,941.684 910.587,1168.39 911.615,973.748 912.644,677.15 913.673,1287.83 914.701,854.464 915.73,626.791 916.758,1145.04 917.787,775.866 918.816,896.116 919.844,991.115 920.873,1144.51 921.902,620.572 922.93,795.894 923.959,821.528 924.988,684.176 926.016,804.737 927.045,877.396 928.074,974.641 929.102,878.064 930.131,959.015 931.16,895.206 932.188,982.999 933.217,950.43 934.246,1282.1 935.274,758.732 936.303,1142.12 937.332,701.728 938.36,797.665 939.389,869.278 940.417,623.234 941.446,877.91 942.475,733.424 943.503,645.325 944.532,807.549 945.561,910.54 946.589,698.113 947.618,1073.92 948.647,702.464 949.675,776.34 950.704,904.313 951.733,984.046 952.761,597.812 953.79,934.154 954.819,376.939 955.847,667.94 956.876,828.515 957.905,477.825 958.933,805.31 959.962,814.775 960.99,871.919 962.019,587.627 963.048,1077.78 964.076,830.232 965.105,944.949 966.134,1224.68 967.162,998.967 968.191,619.526 969.22,806.535 970.248,1125.87 971.277,871.486 972.306,797.971 973.334,1255.72 974.363,845.826 975.392,894.039 976.42,929.009 977.449,636.844 978.478,967.837 979.506,991.203 980.535,823.13 981.564,708.503 982.592,1077.28 983.621,990.751 984.649,670.987 985.678,764.515 986.707,867.559 987.735,804.44 988.764,509.509 989.793,653.83 990.821,1142.59 991.85,1127.48 992.879,1000.14 993.907,862.26 994.936,703.68 995.965,1086.07 996.993,380.112 998.022,749.345 999.051,878.914 1000.08,765.32 1001.11,638.123 1002.14,966.378 1003.17,982.945 1004.19,949.875 1005.22,846.015 1006.25,919.211 1007.28,860.244 1008.31,870.276 1009.34,676.709 1010.37,951.884 1011.39,565.168 1012.42,266.76 1013.45,379.083 1014.48,1197.67 1015.51,502.279 1016.54,669.517 1017.57,894.503 1018.59,654.15 1019.62,999.253 1020.65,718.407 1021.68,943.893 1022.71,677.386 1023.74,653.155 1024.77,238.366 1025.8,868.873 1026.82,926.479 1027.85,1263.13 1028.88,645.486 1029.91,957.824 1030.94,862.772 1031.97,774.322 1033,862.304 1034.02,887.201 1035.05,718.618 1036.08,717.289 1037.11,1119.35 1038.14,861.304 1039.17,782.29 1040.2,821.893 1041.23,984.343 1042.25,869.4 1043.28,982.843 1044.31,436.935 1045.34,1064.05 1046.37,1048.5 1047.4,509.857 1048.43,1118.6 1049.45,1119.41 1050.48,678.137 1051.51,638.236 1052.54,504.656 1053.57,1021.62 1054.6,758.244 1055.63,693.856 1056.66,1062.97 1057.68,856.395 1058.71,828.982 1059.74,654.631 1060.77,1070.96 1061.8,998.305 1062.83,1120.1 1063.86,1142.22 1064.88,775.499 1065.91,992.318 1066.94,727.762 1067.97,757.31 1069,511.596 1070.03,1008.05 1071.06,1078.89 1072.08,949.963 1073.11,1153.47 1074.14,917.602 1075.17,870.39 1076.2,638.813 1077.23,736.457 1078.26,808.498 1079.29,983.548 1080.31,87.9763 1081.34,582.443 1082.37,1031.83 1083.4,887.852 1084.43,960.503 1085.46,1030.11 1086.49,736.745 1087.51,944.079 1088.54,631.001 1089.57,1040.81 1090.6,977.776 1091.63,1029.91 1092.66,874.309 1093.69,1062.9 1094.72,1105.29 1095.74,581.073 1096.77,871.713 1097.8,1070.87 1098.83,615.804 1099.86,953.715 1100.89,1129.12 1101.92,686.043 1102.94,1016.59 1103.97,762.76 1105,694.53 1106.03,1318.68 1107.06,1341.87 1108.09,956.527 1109.12,1079.24 1110.14,761.527 1111.17,969.071 1112.2,907.375 1113.23,966.424 1114.26,1093.92 1115.29,893.195 1116.32,789.438 1117.35,1342.44 1118.37,1398.3 1119.4,903.067 1120.43,823.052 1121.46,595.886 1122.49,999.266 1123.52,871.239 1124.55,660.817 1125.57,718.844 1126.6,838.95 1127.63,646.646 1128.66,725.903 1129.69,650.598 1130.72,704.743 1131.75,1151.8 1132.78,1193.53 1133.8,663.022 1134.83,952.27 1135.86,772.692 1136.89,799.075 1137.92,701.992 1138.95,1063.63 1139.98,1033.67 1141,470.587 1142.03,705.252 1143.06,1121.06 1144.09,434.428 1145.12,472.247 1146.15,886.903 1147.18,1088.79 1148.21,879.775 1149.23,837.519 1150.26,807.565 1151.29,571.193 1152.32,830.752 1153.35,1088.65 1154.38,866.967 1155.41,606.542 1156.43,868.517 1157.46,966.85 1158.49,1001.98 1159.52,390.948 1160.55,1086.17 1161.58,740.309 1162.61,999.058 1163.63,984.8 1164.66,417.815 1165.69,432.496 1166.72,940.784 1167.75,951.032 1168.78,1351.45 1169.81,950.007 1170.84,698.708 1171.86,675.997 1172.89,1127.73 1173.92,614.479 1174.95,957.241 1175.98,1022.75 1177.01,613.705 1178.04,998.452 1179.06,1248.71 1180.09,792.032 1181.12,779.892 1182.15,646.593 1183.18,868.463 1184.21,966.895 1185.24,333.069 1186.27,812.362 1187.29,908.276 1188.32,775.487 1189.35,927.131 1190.38,1432.81 1191.41,589.299 1192.44,1342.15 1193.47,1040.49 1194.49,952.456 1195.52,1392.7 1196.55,716.257 1197.58,1077.77 1198.61,853.129 1199.64,1016.77 1200.67,847.972 1201.69,1004.61 1202.72,846.875 1203.75,960.814 1204.78,584.146 1205.81,854.75 1206.84,806.27 1207.87,751.697 1208.9,1049.71 1209.92,746.604 1210.95,734.612 1211.98,1014.33 1213.01,861.531 1214.04,637.953 1215.07,996.801 1216.1,1119.18 1217.12,1166.22 1218.15,637.079 1219.18,1005.73 1220.21,825.406 1221.24,877.97 1222.27,1081.12 1223.3,1071.37 1224.33,885.617 1225.35,777.124 1226.38,661.456 1227.41,639.678 1228.44,1086.18 1229.47,923.006 1230.5,648.216 1231.53,736.955 1232.55,692.774 1233.58,1057.75 1234.61,497.179 1235.64,1286.56 1236.67,1257.36 1237.7,707.548 1238.73,733.459 1239.76,1253.35 1240.78,863.047 1241.81,203.901 1242.84,1030.63 1243.87,808.724 1244.9,1112.52 1245.93,824.505 1246.96,1025.98 1247.98,1326.98 1249.01,938.588 1250.04,542.039 1251.07,660.518 1252.1,1127.14 1253.13,845.551 1254.16,886.127 1255.18,795.304 1256.21,482.966 1257.24,1213.29 1258.27,1071.55 1259.3,765.256 1260.33,1079.77 1261.36,939.502 1262.39,1196.16 1263.41,490.622 1264.44,652.598 1265.47,751.944 1266.5,673.106 1267.53,782.166 1268.56,1176.66 1269.59,1286.14 1270.61,533.25 1271.64,742.203 1272.67,862.843 1273.7,1010.36 1274.73,853.008 1275.76,1205.7 1276.79,1259.16 1277.82,544.53 1278.84,716.9 1279.87,1008.12 1280.9,593.581 1281.93,895.747 1282.96,834.692 1283.99,956.672 1285.02,482.291 1286.04,1128.53 1287.07,1223.54 1288.1,581.355 1289.13,846.675 1290.16,850.48 1291.19,1125.16 1292.22,868.028 1293.24,981.96 1294.27,857.856 1295.3,1075.79 1296.33,1070.79 1297.36,913.99 1298.39,1184.3 1299.42,1005.8 1300.45,1048.71 1301.47,645.698 1302.5,893.819 1303.53,780.558 1304.56,870.257 1305.59,517.056 1306.62,1247.65 1307.65,1256.08 1308.67,782.952 1309.7,896.126 1310.73,933.706 1311.76,699.935 1312.79,558.841 1313.82,791.191 1314.85,702.667 1315.88,394.96 1316.9,589.281 1317.93,907.846 1318.96,604.309 1319.99,920.262 1321.02,822.578 1322.05,267.535 1323.08,540.184 1324.1,487.563 1325.13,493.075 1326.16,968.422 1327.19,1186.42 1328.22,1022.44 1329.25,459.047 1330.28,761.146 1331.31,361.712 1332.33,922.618 1333.36,869.596 1334.39,853.869 1335.42,881.975 1336.45,648.703 1337.48,560.361 1338.51,521.615 1339.53,989.078 1340.56,1039.67 1341.59,796.379 1342.62,472.656 1343.65,828.027 1344.68,754.385 1345.71,740.733 1346.73,982.393 1347.76,941.949 1348.79,1107.02 1349.82,1155.46 1350.85,791.314 1351.88,1045.75 1352.91,1050.66 1353.94,1141.89 1354.96,965.846 1355.99,903.933 1357.02,1277.94 1358.05,449.114 1359.08,1091.79 1360.11,1018.14 1361.14,876.289 1362.16,783.666 1363.19,424.315 1364.22,866.841 1365.25,964.153 1366.28,1335.61 1367.31,1029.66 1368.34,989.025 1369.37,908.63 1370.39,470.18 1371.42,1187.25 1372.45,1015.1 1373.48,499.526 1374.51,452.629 1375.54,942.96 1376.57,1077.76 1377.59,791.867 1378.62,727.174 1379.65,963.126 1380.68,698.946 1381.71,982.793 1382.74,1249.06 1383.77,796.914 1384.79,1007.84 1385.82,1014.46 1386.85,668.842 1387.88,313.506 1388.91,838.768 1389.94,812.465 1390.97,727.136 1392,686.954 1393.02,637.12 1394.05,1006.15 1395.08,958.474 1396.11,777.312 1397.14,664.53 1398.17,1303.46 1399.2,772.37 1400.22,1002.54 1401.25,901.22 1402.28,949.445 1403.31,729.013 1404.34,742.737 1405.37,1127.88 1406.4,754.717 1407.43,750.362 1408.45,798.909 1409.48,1216.68 1410.51,696.968 1411.54,752.046 1412.57,739.657 1413.6,927.925 1414.63,682.648 1415.65,971.401 1416.68,836.426 1417.71,886.238 1418.74,758.358 1419.77,754.096 1420.8,827.234 1421.83,1011.47 1422.85,824.404 1423.88,811.747 1424.91,1116.57 1425.94,733.368 1426.97,428.513 1428,932.768 1429.03,684.429 1430.06,904.68 1431.08,919.015 1432.11,766.878 1433.14,300.796 1434.17,881.327 1435.2,605.96 1436.23,800.634 1437.26,619.178 1438.28,1202.34 1439.31,668.734 1440.34,1021.55 1441.37,887.071 1442.4,668.449 1443.43,570.112 1444.46,1054.79 1445.49,607.937 1446.51,543.069 1447.54,1132.92 1448.57,759.098 1449.6,781.634 1450.63,983.103 1451.66,1149.84 1452.69,1166.76 1453.71,574.698 1454.74,831.045 1455.77,536.019 1456.8,1140.11 1457.83,437.611 1458.86,1069.71 1459.89,838.706 1460.92,720.787 1461.94,1004.9 1462.97,731.225 1464,974.312 1465.03,1044.01 1466.06,980.518 1467.09,733.771 1468.12,867.695 1469.14,876.329 1470.17,1227.93 1471.2,892.617 1472.23,853.188 1473.26,812.403 1474.29,942.559 1475.32,998.097 1476.34,885.779 1477.37,901.78 1478.4,1013.54 1479.43,861.658 1480.46,926.444 1481.49,879.123 1482.52,990.817 1483.55,870.213 1484.57,662.134 1485.6,1079.26 1486.63,797.616 1487.66,1000.07 1488.69,1095.57 1489.72,630.658 1490.75,684.504 1491.77,661.845 1492.8,548.817 1493.83,717.905 1494.86,733.87 1495.89,461.968 1496.92,991.221 1497.95,535.411 1498.98,845.451 1500,862.162 1501.03,566.366 1502.06,806.044 1503.09,847.279 1504.12,693.588 1505.15,542.361 1506.18,967.073 1507.2,718.618 1508.23,972.995 1509.26,622.457 1510.29,727.978 1511.32,400 1512.35,987.894 1513.38,1095.43 1514.4,806.597 1515.43,775.724 1516.46,563.719 1517.49,726.568 1518.52,766.677 1519.55,622.697 1520.58,1093.57 1521.61,670.501 1522.63,884.293 1523.66,694.654 1524.69,1037.88 1525.72,836.532 1526.75,679.32 1527.78,694.875 1528.81,983.069 1529.83,1205.84 1530.86,949.534 1531.89,725.258 1532.92,735.518 1533.95,885.196 1534.98,656.577 1536.01,608.795 1537.04,358.798 1538.06,525.207 1539.09,1445.72 1540.12,711.173 1541.15,839.909 1542.18,734.745 1543.21,1014.14 1544.24,367.214 1545.26,1038.98 1546.29,878.025 1547.32,588.182 1548.35,933.617 1549.38,384.436 1550.41,958.552 1551.44,839.114 1552.47,936.147 1553.49,1027.88 1554.52,623.098 1555.55,774.567 1556.58,805.832 1557.61,840.007 1558.64,982.34 1559.67,1110.31 1560.69,1181.88 1561.72,694.562 1562.75,630.979 1563.78,917.642 1564.81,767.369 1565.84,431.801 1566.87,600.809 1567.89,645.88 1568.92,890.232 1569.95,636.775 1570.98,653.803 1572.01,982.861 1573.04,783.204 1574.07,940.963 1575.1,352.445 1576.12,869.436 1577.15,1028.95 1578.18,1140.97 1579.21,845.472 1580.24,990.18 1581.27,718.881 1582.3,854.14 1583.32,838.876 1584.35,830.493 1585.38,477.618 1586.41,1181.78 1587.44,957.444 1588.47,423.821 1589.5,1212.32 1590.53,479.375 1591.55,884.295 1592.58,983.441 1593.61,1182.34 1594.64,659.134 1595.67,1109.33 1596.7,631.925 1597.73,837.881 1598.75,701.224 1599.78,623.037 1600.81,941.978 1601.84,758.464 1602.87,870.201 1603.9,707.914 1604.93,1165.63 1605.95,599.854 1606.98,710.198 1608.01,903.025 1609.04,1078.55 1610.07,782.946 1611.1,806.624 1612.13,294.258 1613.16,885.197 1614.18,1070.39 1615.21,821.883 1616.24,830.355 1617.27,910.376 1618.3,902.863 1619.33,1141.73 1620.36,824.03 1621.38,1046.51 1622.41,933.587 1623.44,950.252 1624.47,1044.81 1625.5,599.07 1626.53,336.424 1627.56,942.279 1628.59,750.964 1629.61,821.186 1630.64,758.149 1631.67,501.692 1632.7,935.538 1633.73,612.973 1634.76,805.446 1635.79,669.828 1636.81,780.71 1637.84,805.823 1638.87,806.906 1639.9,653.787 1640.93,869.657 1641.96,926.505 1642.99,1109.13 1644.02,790.49 1645.04,790.573 1646.07,1293.25 1647.1,781.069 1648.13,662.963 1649.16,822.24 1650.19,742.889 1651.22,741.712 1652.24,472.261 1653.27,750.373 1654.3,184.596 1655.33,964.873 1656.36,862.077 1657.39,1069.6 1658.42,813.838 1659.44,974.1 1660.47,599.155 1661.5,687.014 1662.53,727.123 1663.56,582.904 1664.59,391.221 1665.62,893.697 1666.65,877.025 1667.67,742.633 1668.7,1109.6 1669.73,813.541 1670.76,559.138 1671.79,607.086 1672.82,669.968 1673.85,518.348 1674.87,1005.65 1675.9,1037.35 1676.93,1037.87 1677.96,1181.24 1678.99,1005.85 1680.02,1165.42 1681.05,583.287 1682.08,775.453 1683.1,989.549 1684.13,798.44 1685.16,758.703 1686.19,542.801 1687.22,927.27 1688.25,144.867 1689.28,941.97 1690.3,823.305 1691.33,950.74 1692.36,757.305 1693.39,934.372 1694.42,606.75 1695.45,616.588 1696.48,860.414 1697.5,591.179 1698.53,1141.23 1699.56,751.941 1700.59,638.583 1701.62,685.899 1702.65,797.932 1703.68,512.426 1704.71,942.574 1705.73,568.311 1706.76,1149.28 1707.79,1069.34 1708.82,1211.47 1709.85,990.431 1710.88,1125.87 1711.91,1036.9 1712.93,694.462 1713.96,686.913 1714.99,925.823 1716.02,1085.78 1717.05,1070.04 1718.08,743.202 1719.11,1015.09 1720.14,871.89 1721.16,918.299 1722.19,757.93 1723.22,726.167 1724.25,957.314 1725.28,1045.18 1726.31,814.651 1727.34,736.13 1728.36,614.834 1729.39,958.468 1730.42,1286.07 1731.45,812.732 1732.48,1093.44 1733.51,607.654 1734.54,472.089 1735.57,797.926 1736.59,645.671 1737.62,598.706 1738.65,415.188 1739.68,816.313 1740.71,1053.82 1741.74,1102.88 1742.77,471.898 1743.79,1082.98 1744.82,471.521 1745.85,510.342 1746.88,821.819 1747.91,599.452 1748.94,957.715 1749.97,888.542 1750.99,1205.49 1752.02,293.29 1753.05,908.865 1754.08,956.18 1755.11,980.392 1756.14,607.088 1757.17,759.296 1758.2,870.371 1759.22,630.735 1760.25,463.284 1761.28,1005.52 1762.31,879.135 1763.34,464.343 1764.37,815.469 1765.4,821.619 1766.42,836.855 1767.45,830.972 1768.48,717.752 1769.51,719.742 1770.54,518.564 1771.57,1149.61 1772.6,710.094 1773.63,792.137 1774.65,1403.58 1775.68,767.74 1776.71,473.527 1777.74,839.261 1778.77,822.466 1779.8,1038.66 1780.83,879.397 1781.85,1028.97 1782.88,655.074 1783.91,503.95 1784.94,560.896 1785.97,1014.14 1787,853.75 1788.03,846.089 1789.05,1078.3 1790.08,699.66 1791.11,1085.89 1792.14,790.429 1793.17,767.374 1794.2,919.954 1795.23,381.297 1796.26,847.825 1797.28,1174.31 1798.31,288.472 1799.34,846.979 1800.37,733.466 1801.4,629.403 1802.43,558.117 1803.46,1028.58 1804.48,917.746 1805.51,549.984 1806.54,782.382 1807.57,1014.77 1808.6,1013.6 1809.63,1158.71 1810.66,1134.76 1811.69,855.013 1812.71,989.693 1813.74,798.662 1814.77,1203.87 1815.8,1295.06 1816.83,821.106 1817.86,862.745 1818.89,775.349 1819.91,974.998 1820.94,1008.16 1821.97,1054.71 1823,621.485 1824.03,1084.51 1825.06,911.172 1826.09,1093.46 1827.12,462.295 1828.14,1061.08 1829.17,424.191 1830.2,1118.49 1831.23,717.455 1832.26,765.759 1833.29,621.813 1834.32,1190.14 1835.34,1013.58 1836.37,1119.05 1837.4,606.083 1838.43,768.623 1839.46,783.11 1840.49,333.2 1841.52,916.31 1842.54,646.511 1843.57,1102.76 1844.6,622.192 1845.63,1054.16 1846.66,886.765 1847.69,893.615 1848.72,837.372 1849.75,671.147 1850.77,849.536 1851.8,764.307 1852.83,1088.12 1853.86,808.215 1854.89,734.038 1855.92,941.955 1856.95,868.076 1857.97,550.31 1859,827.939 1860.03,865.192 1861.06,755.702 1862.09,669.229 1863.12,781.622 1864.15,454.35 1865.18,1261.43 1866.2,1094.6 1867.23,1175.77 1868.26,1014.79 1869.29,926.587 1870.32,566.457 1871.35,742.831 1872.38,1103.71 1873.4,639.554 1874.43,879.743 1875.46,966.463 1876.49,1047.83 1877.52,966.977 1878.55,837.347 1879.58,320.763 1880.6,868.614 1881.63,830.384 1882.66,1231.07 1883.69,781.462 1884.72,1036.93 1885.75,990.851 1886.78,957.772 1887.81,1040.65 1888.83,846.12 1889.86,854.957 1890.89,1248.06 1891.92,965.689 1892.95,604.873 1893.98,896.871 1895.01,1016.01 1896.03,792.427 1897.06,736.65 1898.09,1168.02 1899.12,862.584 1900.15,904.36 1901.18,1152.63 1902.21,844.249 1903.24,834.532 1904.26,734.791 1905.29,1215.03 1906.32,808.95 1907.35,1028.22 1908.38,869.6 1909.41,1199.56 1910.44,1054.2 1911.46,637.673 1912.49,967.036 1913.52,813.448 1914.55,1109.96 1915.58,1031.1 1916.61,991.159 1917.64,1046.67 1918.66,693.625 1919.69,788.457 1920.72,698.102 1921.75,671.915 1922.78,509.636 1923.81,768.469 1924.84,946.053 1925.87,1039.66 1926.89,796.602 1927.92,711.019 1928.95,784.487 1929.98,932.69 1931.01,702.027 1932.04,1191.16 1933.07,940.692 1934.09,982.903 1935.12,1182.77 1936.15,982.73 1937.18,876.768 1938.21,708.826 1939.24,1094.04 1940.27,739.066 1941.3,750.926 1942.32,712.429 1943.35,884.854 1944.38,982.159 1945.41,1152.03 1946.44,654.143 1947.47,951.527 1948.5,342.252 1949.52,788.631 1950.55,824.111 1951.58,1024.06 1952.61,1182.06 1953.64,726.577 1954.67,767.194 1955.7,318.596 1956.73,501.621 1957.75,796.631 1958.78,754 1959.81,810.043 1960.84,891.281 1961.87,1008.71 1962.9,1158.34 1963.93,961.035 1964.95,822.144 1965.98,684.203 1967.01,828.708 1968.04,1215.98 1969.07,759.888 1970.1,728.132 1971.13,728.487 1972.15,908.837 1973.18,940.784 1974.21,917.31 1975.24,1077.6 1976.27,1186.18 1977.3,816.619 1978.33,761.181 1979.36,616.478 1980.38,1142.17 1981.41,1006.58 1982.44,926.28 1983.47,1013.09 1984.5,708.72 1985.53,444.724 1986.56,250.886 1987.58,896.656 1988.61,1022.82 1989.64,950.897 1990.67,999.278 1991.7,742.049 1992.73,239.828 1993.76,599.515 1994.79,1003.15 1995.81,1310.38 1996.84,1143.24 1997.87,912 1998.9,967.049 1999.93,576.31 2000.96,1061.61 2001.99,1320.28 2003.01,836.227 2004.04,861.969 2005.07,855.524 2006.1,682.459 2007.13,1111.06 2008.16,933.291 2009.19,870.282 2010.21,560.747 2011.24,1385.73 2012.27,909.996 2013.3,936.621 2014.33,1123.05 2015.36,1024.44 2016.39,1188.97 2017.42,693.491 2018.44,606.776 2019.47,727.08 2020.5,727.059 2021.53,627.202 2022.56,308.978 2023.59,632.474 2024.62,549.801 2025.64,783.528 2026.67,601.363 2027.7,382.334 2028.73,614.912 2029.76,1111.57 2030.79,575.559 2031.82,622.866 2032.85,606.411 2033.87,896.25 2034.9,380.117 2035.93,885.276 2036.96,505.683 2037.99,1014.49 2039.02,928.778 2040.05,566.993 2041.07,798.57 2042.1,946.754 2043.13,879.421 2044.16,1128.25 2045.19,617.612 2046.22,784.615 2047.25,765.634 2048.28,1173.82 2049.3,996.152 2050.33,874.872 2051.36,997.037 2052.39,1243.69 2053.42,834.379 2054.45,1142.32 2055.48,485.442 2056.5,617.52 2057.53,787.881 2058.56,1262.73 2059.59,898.125 2060.62,1180.81 2061.65,604.833 2062.68,990.188 2063.7,1197.81 2064.73,853.11 2065.76,877.637 2066.79,660.66 2067.82,702.17 2068.85,1062.23 2069.88,901.845 2070.91,1156.23 2071.93,853.583 2072.96,846.182 2073.99,1160.51 2075.02,953.951 2076.05,1119.4 2077.08,1174.36 2078.11,575.439 2079.13,631.303 2080.16,797.494 2081.19,765.222 2082.22,709.882 2083.25,501.547 2084.28,1022.96 2085.31,917.972 2086.34,911.943 2087.36,246.351 2088.39,692.727 2089.42,1198.94 2090.45,527.107 2091.48,558.454 2092.51,823.102 2093.54,822.11 2094.56,926.965 2095.59,740.229 2096.62,959.862 2097.65,1142.48 2098.68,903.025 2099.71,1254.09 2100.74,1190.33 2101.76,880.369 2102.79,920.441 2103.82,539.373 2104.85,792.686 2105.88,1019.67 2106.91,630.101 2107.94,632.27 2108.97,1086.53 2109.99,897.198 2111.02,766.255 2112.05,1167.1 2113.08,1119.44 2114.11,613.559 2115.14,934.688 2116.17,696.562 2117.19,973.357 2118.22,912.595 2119.25,973.334 2120.28,657.03 2121.31,1071.34 2122.34,933.989 2123.37,403.667 2124.4,955.999 2125.42,1166.14 2126.45,1116.92 2127.48,727.039 2128.51,983.035 2129.54,929.517 2130.57,773.816 2131.6,664.426 2132.62,870.198 2133.65,589.829 2134.68,1031.71 2135.71,784.133 2136.74,936.211 2137.77,672.894 2138.8,894.815 2139.83,839.307 2140.85,1207.84 2141.88,581.847 2142.91,604.035 2143.94,985.523 2144.97,746.24 2146,1128.21 2147.03,922.239 2148.05,1102.3 2149.08,871.587 2150.11,540.276 2151.14,777.979 2152.17,867.934 2153.2,1021.93 2154.23,911.473 2155.25,1014.9 2156.28,676.98 2157.31,932.279 2158.34,1110.46 2159.37,933.56 2160.4,724.129 2161.43,469.823 2162.46,557.202 2163.48,823.706 2164.51,960.761 2165.54,1015.53 2166.57,1135.78 2167.6,615.207 2168.63,965.817 2169.66,1182.64 2170.68,1141.8 2171.71,1118.49 2172.74,958.565 2173.77,710.403 2174.8,1322.79 2175.83,910.659 2176.86,543.674 2177.89,1072.59 2178.91,389.167 2179.94,1287.3 2180.97,1376.66 2182,1006.87 2183.03,1057.61 2184.06,1026.61 2185.09,1046.29 2186.11,731.322 2187.14,711.262 2188.17,753.2 2189.2,988.482 2190.23,903.35 2191.26,540.262 2192.29,746.548 2193.31,559.356 2194.34,751.328 2195.37,845.551 2196.4,973.271 2197.43,1134.48 2198.46,1142.74 2199.49,951.487 2200.52,700.343 2201.54,854.079 2202.57,926.402 2203.6,1111.06 2204.63,671.197 2205.66,1129.12 2206.69,1153.28 2207.72,556.645 2208.74,1143.13 2209.77,556.47 2210.8,781.715 2211.83,993.346 2212.86,1062.01 2213.89,244.171 2214.92,1089.93 2215.95,791.156 2216.97,1060.09 2218,1063.41 2219.03,862.64 2220.06,801.907 2221.09,1017.85 2222.12,1046.87 2223.15,636.451 2224.17,1064.76 2225.2,967.076 2226.23,1109.08 2227.26,900.223 2228.29,1017.31 2229.32,925.52 2230.35,925.835 2231.38,951.176 2232.4,1001.31 2233.43,816.302 2234.46,738.801 2235.49,1187.01 2236.52,1096.46 2237.55,728.549 2238.58,783.598 2239.6,360.97 2240.63,847.605 2241.66,1280.59 2242.69,836.238 2243.72,1181.48 2244.75,595.022 2245.78,694.215 2246.8,1150.3 2247.83,748.979 2248.86,719.205 2249.89,989.387 2250.92,1314.15 2251.95,737.219 2252.98,774.908 2254.01,1142.5 2255.03,1346.38 2256.06,879.476 2257.09,1006.14 2258.12,1348.34 2259.15,1110.92 2260.18,1087.52 2261.21,1054.22 2262.23,828.654 2263.26,215.284 2264.29,942.23 2265.32,1081.6 2266.35,1370.74 2267.38,994.669 2268.41,1111.05 2269.44,1072.8 2270.46,949.987 2271.49,678.207 2272.52,1122.36 2273.55,818.369 2274.58,767.958 2275.61,741.46 2276.64,1000.37 2277.66,740.742 2278.69,1154.84 2279.72,820.162 2280.75,948.022 2281.78,1039.22 2282.81,1062.34 2283.84,967.332 2284.86,725.547 2285.89,1168.18 2286.92,933.703 2287.95,793.428 2288.98,838.895 2290.01,1065.76 2291.04,1066.14 "/>
<path clip-path="url(#clip830)" d="M244.706 198.898 L515.211 198.898 L515.211 95.2176 L244.706 95.2176  Z" fill="#ffffff" fill-rule="evenodd" fill-opacity="1"/>
<polyline clip-path="url(#clip830)" style="stroke:#000000; stroke-linecap:round; stroke-linejoin:round; stroke-width:4; stroke-opacity:1; fill:none" points="244.706,198.898 515.211,198.898 515.211,95.2176 244.706,95.2176 244.706,198.898 "/>
<polyline clip-path="url(#clip830)" style="stroke:#009af9; stroke-linecap:round; stroke-linejoin:round; stroke-width:4; stroke-opacity:1; fill:none" points="268.937,147.058 414.319,147.058 "/>
<path clip-path="url(#clip830)" d="M452.392 166.745 Q450.587 171.375 448.874 172.787 Q447.161 174.199 444.291 174.199 L440.888 174.199 L440.888 170.634 L443.388 170.634 Q445.147 170.634 446.119 169.8 Q447.091 168.967 448.272 165.865 L449.036 163.921 L438.55 138.412 L443.064 138.412 L451.166 158.689 L459.267 138.412 L463.781 138.412 L452.392 166.745 Z" fill="#000000" fill-rule="nonzero" fill-opacity="1" /><path clip-path="url(#clip830)" d="M471.073 160.402 L478.712 160.402 L478.712 134.037 L470.402 135.703 L470.402 131.444 L478.665 129.778 L483.341 129.778 L483.341 160.402 L490.98 160.402 L490.98 164.338 L471.073 164.338 L471.073 160.402 Z" fill="#000000" fill-rule="nonzero" fill-opacity="1" /></svg>
