<?xml version="1.0" encoding="utf-8"?>
<svg xmlns="http://www.w3.org/2000/svg" xmlns:xlink="http://www.w3.org/1999/xlink" width="600" height="400" viewBox="0 0 2400 1600">
<defs>
  <clipPath id="clip110">
    <rect x="0" y="0" width="2400" height="1600"/>
  </clipPath>
</defs>
<path clip-path="url(#clip110)" d="M0 1600 L2400 1600 L2400 0 L0 0  Z" fill="#ffffff" fill-rule="evenodd" fill-opacity="1"/>
<defs>
  <clipPath id="clip111">
    <rect x="480" y="0" width="1681" height="1600"/>
  </clipPath>
</defs>
<path clip-path="url(#clip110)" d="M140.696 1486.45 L2352.76 1486.45 L2352.76 47.2441 L140.696 47.2441  Z" fill="#ffffff" fill-rule="evenodd" fill-opacity="1"/>
<defs>
  <clipPath id="clip112">
    <rect x="140" y="47" width="2213" height="1440"/>
  </clipPath>
</defs>
<polyline clip-path="url(#clip112)" style="stroke:#000000; stroke-linecap:round; stroke-linejoin:round; stroke-width:2; stroke-opacity:0.1; fill:none" points="203.301,1486.45 203.301,47.2441 "/>
<polyline clip-path="url(#clip112)" style="stroke:#000000; stroke-linecap:round; stroke-linejoin:round; stroke-width:2; stroke-opacity:0.1; fill:none" points="725.013,1486.45 725.013,47.2441 "/>
<polyline clip-path="url(#clip112)" style="stroke:#000000; stroke-linecap:round; stroke-linejoin:round; stroke-width:2; stroke-opacity:0.1; fill:none" points="1246.73,1486.45 1246.73,47.2441 "/>
<polyline clip-path="url(#clip112)" style="stroke:#000000; stroke-linecap:round; stroke-linejoin:round; stroke-width:2; stroke-opacity:0.1; fill:none" points="1768.44,1486.45 1768.44,47.2441 "/>
<polyline clip-path="url(#clip112)" style="stroke:#000000; stroke-linecap:round; stroke-linejoin:round; stroke-width:2; stroke-opacity:0.1; fill:none" points="2290.15,1486.45 2290.15,47.2441 "/>
<polyline clip-path="url(#clip110)" style="stroke:#000000; stroke-linecap:round; stroke-linejoin:round; stroke-width:4; stroke-opacity:1; fill:none" points="140.696,1486.45 2352.76,1486.45 "/>
<polyline clip-path="url(#clip110)" style="stroke:#000000; stroke-linecap:round; stroke-linejoin:round; stroke-width:4; stroke-opacity:1; fill:none" points="203.301,1486.45 203.301,1467.55 "/>
<polyline clip-path="url(#clip110)" style="stroke:#000000; stroke-linecap:round; stroke-linejoin:round; stroke-width:4; stroke-opacity:1; fill:none" points="725.013,1486.45 725.013,1467.55 "/>
<polyline clip-path="url(#clip110)" style="stroke:#000000; stroke-linecap:round; stroke-linejoin:round; stroke-width:4; stroke-opacity:1; fill:none" points="1246.73,1486.45 1246.73,1467.55 "/>
<polyline clip-path="url(#clip110)" style="stroke:#000000; stroke-linecap:round; stroke-linejoin:round; stroke-width:4; stroke-opacity:1; fill:none" points="1768.44,1486.45 1768.44,1467.55 "/>
<polyline clip-path="url(#clip110)" style="stroke:#000000; stroke-linecap:round; stroke-linejoin:round; stroke-width:4; stroke-opacity:1; fill:none" points="2290.15,1486.45 2290.15,1467.55 "/>
<path clip-path="url(#clip110)" d="M203.301 1517.37 Q199.69 1517.37 197.861 1520.93 Q196.056 1524.47 196.056 1531.6 Q196.056 1538.71 197.861 1542.27 Q199.69 1545.82 203.301 1545.82 Q206.935 1545.82 208.741 1542.27 Q210.57 1538.71 210.57 1531.6 Q210.57 1524.47 208.741 1520.93 Q206.935 1517.37 203.301 1517.37 M203.301 1513.66 Q209.111 1513.66 212.167 1518.27 Q215.245 1522.85 215.245 1531.6 Q215.245 1540.33 212.167 1544.94 Q209.111 1549.52 203.301 1549.52 Q197.491 1549.52 194.412 1544.94 Q191.357 1540.33 191.357 1531.6 Q191.357 1522.85 194.412 1518.27 Q197.491 1513.66 203.301 1513.66 Z" fill="#000000" fill-rule="nonzero" fill-opacity="1" /><path clip-path="url(#clip110)" d="M684.632 1514.29 L702.988 1514.29 L702.988 1518.22 L688.914 1518.22 L688.914 1526.7 Q689.933 1526.35 690.951 1526.19 Q691.97 1526 692.988 1526 Q698.775 1526 702.155 1529.17 Q705.534 1532.34 705.534 1537.76 Q705.534 1543.34 702.062 1546.44 Q698.59 1549.52 692.27 1549.52 Q690.095 1549.52 687.826 1549.15 Q685.581 1548.78 683.173 1548.04 L683.173 1543.34 Q685.257 1544.47 687.479 1545.03 Q689.701 1545.58 692.178 1545.58 Q696.183 1545.58 698.52 1543.48 Q700.858 1541.37 700.858 1537.76 Q700.858 1534.15 698.52 1532.04 Q696.183 1529.94 692.178 1529.94 Q690.303 1529.94 688.428 1530.35 Q686.576 1530.77 684.632 1531.65 L684.632 1514.29 Z" fill="#000000" fill-rule="nonzero" fill-opacity="1" /><path clip-path="url(#clip110)" d="M724.747 1517.37 Q721.136 1517.37 719.307 1520.93 Q717.502 1524.47 717.502 1531.6 Q717.502 1538.71 719.307 1542.27 Q721.136 1545.82 724.747 1545.82 Q728.381 1545.82 730.187 1542.27 Q732.016 1538.71 732.016 1531.6 Q732.016 1524.47 730.187 1520.93 Q728.381 1517.37 724.747 1517.37 M724.747 1513.66 Q730.557 1513.66 733.613 1518.27 Q736.692 1522.85 736.692 1531.6 Q736.692 1540.33 733.613 1544.94 Q730.557 1549.52 724.747 1549.52 Q718.937 1549.52 715.858 1544.94 Q712.803 1540.33 712.803 1531.6 Q712.803 1522.85 715.858 1518.27 Q718.937 1513.66 724.747 1513.66 Z" fill="#000000" fill-rule="nonzero" fill-opacity="1" /><path clip-path="url(#clip110)" d="M754.909 1517.37 Q751.298 1517.37 749.469 1520.93 Q747.664 1524.47 747.664 1531.6 Q747.664 1538.71 749.469 1542.27 Q751.298 1545.82 754.909 1545.82 Q758.543 1545.82 760.349 1542.27 Q762.178 1538.71 762.178 1531.6 Q762.178 1524.47 760.349 1520.93 Q758.543 1517.37 754.909 1517.37 M754.909 1513.66 Q760.719 1513.66 763.775 1518.27 Q766.853 1522.85 766.853 1531.6 Q766.853 1540.33 763.775 1544.94 Q760.719 1549.52 754.909 1549.52 Q749.099 1549.52 746.02 1544.94 Q742.965 1540.33 742.965 1531.6 Q742.965 1522.85 746.02 1518.27 Q749.099 1513.66 754.909 1513.66 Z" fill="#000000" fill-rule="nonzero" fill-opacity="1" /><path clip-path="url(#clip110)" d="M1191.25 1544.91 L1198.89 1544.91 L1198.89 1518.55 L1190.58 1520.21 L1190.58 1515.95 L1198.84 1514.29 L1203.52 1514.29 L1203.52 1544.91 L1211.16 1544.91 L1211.16 1548.85 L1191.25 1548.85 L1191.25 1544.91 Z" fill="#000000" fill-rule="nonzero" fill-opacity="1" /><path clip-path="url(#clip110)" d="M1230.6 1517.37 Q1226.99 1517.37 1225.16 1520.93 Q1223.36 1524.47 1223.36 1531.6 Q1223.36 1538.71 1225.16 1542.27 Q1226.99 1545.82 1230.6 1545.82 Q1234.24 1545.82 1236.04 1542.27 Q1237.87 1538.71 1237.87 1531.6 Q1237.87 1524.47 1236.04 1520.93 Q1234.24 1517.37 1230.6 1517.37 M1230.6 1513.66 Q1236.41 1513.66 1239.47 1518.27 Q1242.55 1522.85 1242.55 1531.6 Q1242.55 1540.33 1239.47 1544.94 Q1236.41 1549.52 1230.6 1549.52 Q1224.79 1549.52 1221.71 1544.94 Q1218.66 1540.33 1218.66 1531.6 Q1218.66 1522.85 1221.71 1518.27 Q1224.79 1513.66 1230.6 1513.66 Z" fill="#000000" fill-rule="nonzero" fill-opacity="1" /><path clip-path="url(#clip110)" d="M1260.77 1517.37 Q1257.15 1517.37 1255.33 1520.93 Q1253.52 1524.47 1253.52 1531.6 Q1253.52 1538.71 1255.33 1542.27 Q1257.15 1545.82 1260.77 1545.82 Q1264.4 1545.82 1266.2 1542.27 Q1268.03 1538.71 1268.03 1531.6 Q1268.03 1524.47 1266.2 1520.93 Q1264.4 1517.37 1260.77 1517.37 M1260.77 1513.66 Q1266.58 1513.66 1269.63 1518.27 Q1272.71 1522.85 1272.71 1531.6 Q1272.71 1540.33 1269.63 1544.94 Q1266.58 1549.52 1260.77 1549.52 Q1254.95 1549.52 1251.88 1544.94 Q1248.82 1540.33 1248.82 1531.6 Q1248.82 1522.85 1251.88 1518.27 Q1254.95 1513.66 1260.77 1513.66 Z" fill="#000000" fill-rule="nonzero" fill-opacity="1" /><path clip-path="url(#clip110)" d="M1290.93 1517.37 Q1287.32 1517.37 1285.49 1520.93 Q1283.68 1524.47 1283.68 1531.6 Q1283.68 1538.71 1285.49 1542.27 Q1287.32 1545.82 1290.93 1545.82 Q1294.56 1545.82 1296.37 1542.27 Q1298.2 1538.71 1298.2 1531.6 Q1298.2 1524.47 1296.37 1520.93 Q1294.56 1517.37 1290.93 1517.37 M1290.93 1513.66 Q1296.74 1513.66 1299.79 1518.27 Q1302.87 1522.85 1302.87 1531.6 Q1302.87 1540.33 1299.79 1544.94 Q1296.74 1549.52 1290.93 1549.52 Q1285.12 1549.52 1282.04 1544.94 Q1278.98 1540.33 1278.98 1531.6 Q1278.98 1522.85 1282.04 1518.27 Q1285.12 1513.66 1290.93 1513.66 Z" fill="#000000" fill-rule="nonzero" fill-opacity="1" /><path clip-path="url(#clip110)" d="M1712.96 1544.91 L1720.6 1544.91 L1720.6 1518.55 L1712.29 1520.21 L1712.29 1515.95 L1720.56 1514.29 L1725.23 1514.29 L1725.23 1544.91 L1732.87 1544.91 L1732.87 1548.85 L1712.96 1548.85 L1712.96 1544.91 Z" fill="#000000" fill-rule="nonzero" fill-opacity="1" /><path clip-path="url(#clip110)" d="M1742.36 1514.29 L1760.72 1514.29 L1760.72 1518.22 L1746.64 1518.22 L1746.64 1526.7 Q1747.66 1526.35 1748.68 1526.19 Q1749.7 1526 1750.72 1526 Q1756.51 1526 1759.88 1529.17 Q1763.26 1532.34 1763.26 1537.76 Q1763.26 1543.34 1759.79 1546.44 Q1756.32 1549.52 1750 1549.52 Q1747.82 1549.52 1745.56 1549.15 Q1743.31 1548.78 1740.9 1548.04 L1740.9 1543.34 Q1742.99 1544.47 1745.21 1545.03 Q1747.43 1545.58 1749.91 1545.58 Q1753.91 1545.58 1756.25 1543.48 Q1758.59 1541.37 1758.59 1537.76 Q1758.59 1534.15 1756.25 1532.04 Q1753.91 1529.94 1749.91 1529.94 Q1748.03 1529.94 1746.16 1530.35 Q1744.31 1530.77 1742.36 1531.65 L1742.36 1514.29 Z" fill="#000000" fill-rule="nonzero" fill-opacity="1" /><path clip-path="url(#clip110)" d="M1782.48 1517.37 Q1778.87 1517.37 1777.04 1520.93 Q1775.23 1524.47 1775.23 1531.6 Q1775.23 1538.71 1777.04 1542.27 Q1778.87 1545.82 1782.48 1545.82 Q1786.11 1545.82 1787.92 1542.27 Q1789.75 1538.71 1789.75 1531.6 Q1789.75 1524.47 1787.92 1520.93 Q1786.11 1517.37 1782.48 1517.37 M1782.48 1513.66 Q1788.29 1513.66 1791.34 1518.27 Q1794.42 1522.85 1794.42 1531.6 Q1794.42 1540.33 1791.34 1544.94 Q1788.29 1549.52 1782.48 1549.52 Q1776.67 1549.52 1773.59 1544.94 Q1770.53 1540.33 1770.53 1531.6 Q1770.53 1522.85 1773.59 1518.27 Q1776.67 1513.66 1782.48 1513.66 Z" fill="#000000" fill-rule="nonzero" fill-opacity="1" /><path clip-path="url(#clip110)" d="M1812.64 1517.37 Q1809.03 1517.37 1807.2 1520.93 Q1805.39 1524.47 1805.39 1531.6 Q1805.39 1538.71 1807.2 1542.27 Q1809.03 1545.82 1812.64 1545.82 Q1816.27 1545.82 1818.08 1542.27 Q1819.91 1538.71 1819.91 1531.6 Q1819.91 1524.47 1818.08 1520.93 Q1816.27 1517.37 1812.64 1517.37 M1812.64 1513.66 Q1818.45 1513.66 1821.5 1518.27 Q1824.58 1522.85 1824.58 1531.6 Q1824.58 1540.33 1821.5 1544.94 Q1818.45 1549.52 1812.64 1549.52 Q1806.83 1549.52 1803.75 1544.94 Q1800.69 1540.33 1800.69 1531.6 Q1800.69 1522.85 1803.75 1518.27 Q1806.83 1513.66 1812.64 1513.66 Z" fill="#000000" fill-rule="nonzero" fill-opacity="1" /><path clip-path="url(#clip110)" d="M2238.76 1544.91 L2255.08 1544.91 L2255.08 1548.85 L2233.14 1548.85 L2233.14 1544.91 Q2235.8 1542.16 2240.38 1537.53 Q2244.99 1532.88 2246.17 1531.53 Q2248.41 1529.01 2249.29 1527.27 Q2250.2 1525.51 2250.2 1523.82 Q2250.2 1521.07 2248.25 1519.33 Q2246.33 1517.6 2243.23 1517.6 Q2241.03 1517.6 2238.58 1518.36 Q2236.15 1519.13 2233.37 1520.68 L2233.37 1515.95 Q2236.19 1514.82 2238.65 1514.24 Q2241.1 1513.66 2243.14 1513.66 Q2248.51 1513.66 2251.7 1516.35 Q2254.9 1519.03 2254.9 1523.52 Q2254.9 1525.65 2254.09 1527.57 Q2253.3 1529.47 2251.19 1532.07 Q2250.61 1532.74 2247.51 1535.95 Q2244.41 1539.15 2238.76 1544.91 Z" fill="#000000" fill-rule="nonzero" fill-opacity="1" /><path clip-path="url(#clip110)" d="M2274.9 1517.37 Q2271.28 1517.37 2269.46 1520.93 Q2267.65 1524.47 2267.65 1531.6 Q2267.65 1538.71 2269.46 1542.27 Q2271.28 1545.82 2274.9 1545.82 Q2278.53 1545.82 2280.34 1542.27 Q2282.16 1538.71 2282.16 1531.6 Q2282.16 1524.47 2280.34 1520.93 Q2278.53 1517.37 2274.9 1517.37 M2274.9 1513.66 Q2280.71 1513.66 2283.76 1518.27 Q2286.84 1522.85 2286.84 1531.6 Q2286.84 1540.33 2283.76 1544.94 Q2280.71 1549.52 2274.9 1549.52 Q2269.09 1549.52 2266.01 1544.94 Q2262.95 1540.33 2262.95 1531.6 Q2262.95 1522.85 2266.01 1518.27 Q2269.09 1513.66 2274.9 1513.66 Z" fill="#000000" fill-rule="nonzero" fill-opacity="1" /><path clip-path="url(#clip110)" d="M2305.06 1517.37 Q2301.45 1517.37 2299.62 1520.93 Q2297.81 1524.47 2297.81 1531.6 Q2297.81 1538.71 2299.62 1542.27 Q2301.45 1545.82 2305.06 1545.82 Q2308.69 1545.82 2310.5 1542.27 Q2312.33 1538.71 2312.33 1531.6 Q2312.33 1524.47 2310.5 1520.93 Q2308.69 1517.37 2305.06 1517.37 M2305.06 1513.66 Q2310.87 1513.66 2313.92 1518.27 Q2317 1522.85 2317 1531.6 Q2317 1540.33 2313.92 1544.94 Q2310.87 1549.52 2305.06 1549.52 Q2299.25 1549.52 2296.17 1544.94 Q2293.11 1540.33 2293.11 1531.6 Q2293.11 1522.85 2296.17 1518.27 Q2299.25 1513.66 2305.06 1513.66 Z" fill="#000000" fill-rule="nonzero" fill-opacity="1" /><path clip-path="url(#clip110)" d="M2335.22 1517.37 Q2331.61 1517.37 2329.78 1520.93 Q2327.97 1524.47 2327.97 1531.6 Q2327.97 1538.71 2329.78 1542.27 Q2331.61 1545.82 2335.22 1545.82 Q2338.85 1545.82 2340.66 1542.27 Q2342.49 1538.71 2342.49 1531.6 Q2342.49 1524.47 2340.66 1520.93 Q2338.85 1517.37 2335.22 1517.37 M2335.22 1513.66 Q2341.03 1513.66 2344.09 1518.27 Q2347.16 1522.85 2347.16 1531.6 Q2347.16 1540.33 2344.09 1544.94 Q2341.03 1549.52 2335.22 1549.52 Q2329.41 1549.52 2326.33 1544.94 Q2323.28 1540.33 2323.28 1531.6 Q2323.28 1522.85 2326.33 1518.27 Q2329.41 1513.66 2335.22 1513.66 Z" fill="#000000" fill-rule="nonzero" fill-opacity="1" /><polyline clip-path="url(#clip112)" style="stroke:#000000; stroke-linecap:round; stroke-linejoin:round; stroke-width:2; stroke-opacity:0.1; fill:none" points="140.696,1338.41 2352.76,1338.41 "/>
<polyline clip-path="url(#clip112)" style="stroke:#000000; stroke-linecap:round; stroke-linejoin:round; stroke-width:2; stroke-opacity:0.1; fill:none" points="140.696,1131.29 2352.76,1131.29 "/>
<polyline clip-path="url(#clip112)" style="stroke:#000000; stroke-linecap:round; stroke-linejoin:round; stroke-width:2; stroke-opacity:0.1; fill:none" points="140.696,924.168 2352.76,924.168 "/>
<polyline clip-path="url(#clip112)" style="stroke:#000000; stroke-linecap:round; stroke-linejoin:round; stroke-width:2; stroke-opacity:0.1; fill:none" points="140.696,717.049 2352.76,717.049 "/>
<polyline clip-path="url(#clip112)" style="stroke:#000000; stroke-linecap:round; stroke-linejoin:round; stroke-width:2; stroke-opacity:0.1; fill:none" points="140.696,509.93 2352.76,509.93 "/>
<polyline clip-path="url(#clip112)" style="stroke:#000000; stroke-linecap:round; stroke-linejoin:round; stroke-width:2; stroke-opacity:0.1; fill:none" points="140.696,302.81 2352.76,302.81 "/>
<polyline clip-path="url(#clip112)" style="stroke:#000000; stroke-linecap:round; stroke-linejoin:round; stroke-width:2; stroke-opacity:0.1; fill:none" points="140.696,95.6911 2352.76,95.6911 "/>
<polyline clip-path="url(#clip110)" style="stroke:#000000; stroke-linecap:round; stroke-linejoin:round; stroke-width:4; stroke-opacity:1; fill:none" points="140.696,1486.45 140.696,47.2441 "/>
<polyline clip-path="url(#clip110)" style="stroke:#000000; stroke-linecap:round; stroke-linejoin:round; stroke-width:4; stroke-opacity:1; fill:none" points="140.696,1338.41 159.593,1338.41 "/>
<polyline clip-path="url(#clip110)" style="stroke:#000000; stroke-linecap:round; stroke-linejoin:round; stroke-width:4; stroke-opacity:1; fill:none" points="140.696,1131.29 159.593,1131.29 "/>
<polyline clip-path="url(#clip110)" style="stroke:#000000; stroke-linecap:round; stroke-linejoin:round; stroke-width:4; stroke-opacity:1; fill:none" points="140.696,924.168 159.593,924.168 "/>
<polyline clip-path="url(#clip110)" style="stroke:#000000; stroke-linecap:round; stroke-linejoin:round; stroke-width:4; stroke-opacity:1; fill:none" points="140.696,717.049 159.593,717.049 "/>
<polyline clip-path="url(#clip110)" style="stroke:#000000; stroke-linecap:round; stroke-linejoin:round; stroke-width:4; stroke-opacity:1; fill:none" points="140.696,509.93 159.593,509.93 "/>
<polyline clip-path="url(#clip110)" style="stroke:#000000; stroke-linecap:round; stroke-linejoin:round; stroke-width:4; stroke-opacity:1; fill:none" points="140.696,302.81 159.593,302.81 "/>
<polyline clip-path="url(#clip110)" style="stroke:#000000; stroke-linecap:round; stroke-linejoin:round; stroke-width:4; stroke-opacity:1; fill:none" points="140.696,95.6911 159.593,95.6911 "/>
<path clip-path="url(#clip110)" d="M83.7929 1321.13 L102.149 1321.13 L102.149 1325.06 L88.0753 1325.06 L88.0753 1333.53 Q89.0938 1333.19 90.1123 1333.02 Q91.1308 1332.84 92.1493 1332.84 Q97.9363 1332.84 101.316 1336.01 Q104.696 1339.18 104.696 1344.6 Q104.696 1350.18 101.223 1353.28 Q97.7511 1356.36 91.4317 1356.36 Q89.2558 1356.36 86.9873 1355.99 Q84.7419 1355.62 82.3346 1354.88 L82.3346 1350.18 Q84.4179 1351.31 86.6401 1351.87 Q88.8623 1352.42 91.3391 1352.42 Q95.3437 1352.42 97.6817 1350.32 Q100.02 1348.21 100.02 1344.6 Q100.02 1340.99 97.6817 1338.88 Q95.3437 1336.77 91.3391 1336.77 Q89.4641 1336.77 87.5892 1337.19 Q85.7373 1337.61 83.7929 1338.49 L83.7929 1321.13 Z" fill="#000000" fill-rule="nonzero" fill-opacity="1" /><path clip-path="url(#clip110)" d="M53.3995 1144.63 L61.0384 1144.63 L61.0384 1118.27 L52.7282 1119.93 L52.7282 1115.67 L60.9921 1114.01 L65.668 1114.01 L65.668 1144.63 L73.3068 1144.63 L73.3068 1148.57 L53.3995 1148.57 L53.3995 1144.63 Z" fill="#000000" fill-rule="nonzero" fill-opacity="1" /><path clip-path="url(#clip110)" d="M92.7512 1117.09 Q89.1401 1117.09 87.3114 1120.65 Q85.5058 1124.19 85.5058 1131.32 Q85.5058 1138.43 87.3114 1141.99 Q89.1401 1145.54 92.7512 1145.54 Q96.3854 1145.54 98.1909 1141.99 Q100.02 1138.43 100.02 1131.32 Q100.02 1124.19 98.1909 1120.65 Q96.3854 1117.09 92.7512 1117.09 M92.7512 1113.38 Q98.5613 1113.38 101.617 1117.99 Q104.696 1122.57 104.696 1131.32 Q104.696 1140.05 101.617 1144.66 Q98.5613 1149.24 92.7512 1149.24 Q86.941 1149.24 83.8623 1144.66 Q80.8068 1140.05 80.8068 1131.32 Q80.8068 1122.57 83.8623 1117.99 Q86.941 1113.38 92.7512 1113.38 Z" fill="#000000" fill-rule="nonzero" fill-opacity="1" /><path clip-path="url(#clip110)" d="M54.3949 937.513 L62.0337 937.513 L62.0337 911.147 L53.7236 912.814 L53.7236 908.555 L61.9874 906.888 L66.6633 906.888 L66.6633 937.513 L74.3022 937.513 L74.3022 941.448 L54.3949 941.448 L54.3949 937.513 Z" fill="#000000" fill-rule="nonzero" fill-opacity="1" /><path clip-path="url(#clip110)" d="M83.7929 906.888 L102.149 906.888 L102.149 910.823 L88.0753 910.823 L88.0753 919.295 Q89.0938 918.948 90.1123 918.786 Q91.1308 918.601 92.1493 918.601 Q97.9363 918.601 101.316 921.772 Q104.696 924.944 104.696 930.36 Q104.696 935.939 101.223 939.041 Q97.7511 942.119 91.4317 942.119 Q89.2558 942.119 86.9873 941.749 Q84.7419 941.379 82.3346 940.638 L82.3346 935.939 Q84.4179 937.073 86.6401 937.629 Q88.8623 938.184 91.3391 938.184 Q95.3437 938.184 97.6817 936.078 Q100.02 933.971 100.02 930.36 Q100.02 926.749 97.6817 924.643 Q95.3437 922.536 91.3391 922.536 Q89.4641 922.536 87.5892 922.953 Q85.7373 923.37 83.7929 924.249 L83.7929 906.888 Z" fill="#000000" fill-rule="nonzero" fill-opacity="1" /><path clip-path="url(#clip110)" d="M56.6171 730.394 L72.9365 730.394 L72.9365 734.329 L50.9921 734.329 L50.9921 730.394 Q53.6541 727.639 58.2375 723.01 Q62.8439 718.357 64.0245 717.014 Q66.2698 714.491 67.1494 712.755 Q68.0522 710.996 68.0522 709.306 Q68.0522 706.551 66.1078 704.815 Q64.1865 703.079 61.0847 703.079 Q58.8856 703.079 56.4319 703.843 Q54.0014 704.607 51.2236 706.158 L51.2236 701.436 Q54.0477 700.301 56.5014 699.723 Q58.955 699.144 60.9921 699.144 Q66.3624 699.144 69.5568 701.829 Q72.7513 704.514 72.7513 709.005 Q72.7513 711.135 71.9411 713.056 Q71.1541 714.954 69.0476 717.547 Q68.4689 718.218 65.367 721.435 Q62.2652 724.63 56.6171 730.394 Z" fill="#000000" fill-rule="nonzero" fill-opacity="1" /><path clip-path="url(#clip110)" d="M92.7512 702.848 Q89.1401 702.848 87.3114 706.412 Q85.5058 709.954 85.5058 717.084 Q85.5058 724.19 87.3114 727.755 Q89.1401 731.297 92.7512 731.297 Q96.3854 731.297 98.1909 727.755 Q100.02 724.19 100.02 717.084 Q100.02 709.954 98.1909 706.412 Q96.3854 702.848 92.7512 702.848 M92.7512 699.144 Q98.5613 699.144 101.617 703.75 Q104.696 708.334 104.696 717.084 Q104.696 725.81 101.617 730.417 Q98.5613 735 92.7512 735 Q86.941 735 83.8623 730.417 Q80.8068 725.81 80.8068 717.084 Q80.8068 708.334 83.8623 703.75 Q86.941 699.144 92.7512 699.144 Z" fill="#000000" fill-rule="nonzero" fill-opacity="1" /><path clip-path="url(#clip110)" d="M57.6125 523.274 L73.9318 523.274 L73.9318 527.21 L51.9875 527.21 L51.9875 523.274 Q54.6495 520.52 59.2328 515.89 Q63.8393 511.237 65.0198 509.895 Q67.2652 507.372 68.1448 505.636 Q69.0476 503.876 69.0476 502.187 Q69.0476 499.432 67.1032 497.696 Q65.1819 495.96 62.08 495.96 Q59.881 495.96 57.4273 496.724 Q54.9967 497.488 52.219 499.038 L52.219 494.316 Q55.043 493.182 57.4967 492.603 Q59.9504 492.025 61.9874 492.025 Q67.3578 492.025 70.5522 494.71 Q73.7466 497.395 73.7466 501.886 Q73.7466 504.015 72.9365 505.937 Q72.1494 507.835 70.0429 510.427 Q69.4642 511.099 66.3624 514.316 Q63.2606 517.511 57.6125 523.274 Z" fill="#000000" fill-rule="nonzero" fill-opacity="1" /><path clip-path="url(#clip110)" d="M83.7929 492.65 L102.149 492.65 L102.149 496.585 L88.0753 496.585 L88.0753 505.057 Q89.0938 504.71 90.1123 504.548 Q91.1308 504.363 92.1493 504.363 Q97.9363 504.363 101.316 507.534 Q104.696 510.705 104.696 516.122 Q104.696 521.7 101.223 524.802 Q97.7511 527.881 91.4317 527.881 Q89.2558 527.881 86.9873 527.511 Q84.7419 527.14 82.3346 526.399 L82.3346 521.7 Q84.4179 522.835 86.6401 523.39 Q88.8623 523.946 91.3391 523.946 Q95.3437 523.946 97.6817 521.839 Q100.02 519.733 100.02 516.122 Q100.02 512.511 97.6817 510.404 Q95.3437 508.298 91.3391 508.298 Q89.4641 508.298 87.5892 508.714 Q85.7373 509.131 83.7929 510.011 L83.7929 492.65 Z" fill="#000000" fill-rule="nonzero" fill-opacity="1" /><path clip-path="url(#clip110)" d="M66.7559 301.456 Q70.1124 302.174 71.9874 304.442 Q73.8855 306.711 73.8855 310.044 Q73.8855 315.16 70.367 317.961 Q66.8485 320.762 60.3671 320.762 Q58.1912 320.762 55.8764 320.322 Q53.5847 319.905 51.131 319.049 L51.131 314.535 Q53.0754 315.669 55.3903 316.248 Q57.7051 316.826 60.2282 316.826 Q64.6263 316.826 66.918 315.09 Q69.2328 313.354 69.2328 310.044 Q69.2328 306.989 67.08 305.276 Q64.9504 303.54 61.131 303.54 L57.1032 303.54 L57.1032 299.697 L61.3161 299.697 Q64.7652 299.697 66.5939 298.331 Q68.4226 296.942 68.4226 294.35 Q68.4226 291.688 66.5245 290.276 Q64.6495 288.841 61.131 288.841 Q59.2097 288.841 57.0106 289.257 Q54.8115 289.674 52.1727 290.553 L52.1727 286.387 Q54.8347 285.646 57.1495 285.276 Q59.4875 284.905 61.5476 284.905 Q66.8717 284.905 69.9735 287.336 Q73.0753 289.743 73.0753 293.864 Q73.0753 296.734 71.4318 298.725 Q69.7883 300.692 66.7559 301.456 Z" fill="#000000" fill-rule="nonzero" fill-opacity="1" /><path clip-path="url(#clip110)" d="M92.7512 288.609 Q89.1401 288.609 87.3114 292.174 Q85.5058 295.715 85.5058 302.845 Q85.5058 309.952 87.3114 313.516 Q89.1401 317.058 92.7512 317.058 Q96.3854 317.058 98.1909 313.516 Q100.02 309.952 100.02 302.845 Q100.02 295.715 98.1909 292.174 Q96.3854 288.609 92.7512 288.609 M92.7512 284.905 Q98.5613 284.905 101.617 289.512 Q104.696 294.095 104.696 302.845 Q104.696 311.572 101.617 316.178 Q98.5613 320.762 92.7512 320.762 Q86.941 320.762 83.8623 316.178 Q80.8068 311.572 80.8068 302.845 Q80.8068 294.095 83.8623 289.512 Q86.941 284.905 92.7512 284.905 Z" fill="#000000" fill-rule="nonzero" fill-opacity="1" /><path clip-path="url(#clip110)" d="M67.7513 94.3369 Q71.1078 95.0545 72.9827 97.323 Q74.8809 99.5915 74.8809 102.925 Q74.8809 108.041 71.3624 110.841 Q67.8439 113.642 61.3624 113.642 Q59.1865 113.642 56.8717 113.203 Q54.5801 112.786 52.1264 111.929 L52.1264 107.416 Q54.0708 108.55 56.3856 109.129 Q58.7004 109.707 61.2236 109.707 Q65.6217 109.707 67.9133 107.971 Q70.2281 106.235 70.2281 102.925 Q70.2281 99.8693 68.0754 98.1564 Q65.9457 96.4203 62.1263 96.4203 L58.0986 96.4203 L58.0986 92.5777 L62.3115 92.5777 Q65.7606 92.5777 67.5893 91.212 Q69.418 89.8231 69.418 87.2305 Q69.418 84.5685 67.5198 83.1565 Q65.6448 81.7213 62.1263 81.7213 Q60.205 81.7213 58.006 82.1379 Q55.8069 82.5546 53.168 83.4342 L53.168 79.2676 Q55.8301 78.5268 58.1449 78.1565 Q60.4828 77.7861 62.543 77.7861 Q67.867 77.7861 70.9689 80.2167 Q74.0707 82.624 74.0707 86.7444 Q74.0707 89.6148 72.4272 91.6055 Q70.7837 93.5731 67.7513 94.3369 Z" fill="#000000" fill-rule="nonzero" fill-opacity="1" /><path clip-path="url(#clip110)" d="M83.7929 78.4111 L102.149 78.4111 L102.149 82.3463 L88.0753 82.3463 L88.0753 90.8184 Q89.0938 90.4712 90.1123 90.3092 Q91.1308 90.124 92.1493 90.124 Q97.9363 90.124 101.316 93.2953 Q104.696 96.4666 104.696 101.883 Q104.696 107.462 101.223 110.564 Q97.7511 113.642 91.4317 113.642 Q89.2558 113.642 86.9873 113.272 Q84.7419 112.902 82.3346 112.161 L82.3346 107.462 Q84.4179 108.596 86.6401 109.152 Q88.8623 109.707 91.3391 109.707 Q95.3437 109.707 97.6817 107.601 Q100.02 105.494 100.02 101.883 Q100.02 98.2721 97.6817 96.1656 Q95.3437 94.0592 91.3391 94.0592 Q89.4641 94.0592 87.5892 94.4758 Q85.7373 94.8925 83.7929 95.7721 L83.7929 78.4111 Z" fill="#000000" fill-rule="nonzero" fill-opacity="1" /><polyline clip-path="url(#clip112)" style="stroke:#009af9; stroke-linecap:round; stroke-linejoin:round; stroke-width:4; stroke-opacity:1; fill:none" points="203.301,1175.21 204.344,1175.33 205.388,906.595 206.431,906.964 207.475,1312.43 208.518,1312.47 209.562,1355.87 210.605,1355.89 211.648,1399.2 212.692,1399.22 213.735,1355.62 214.779,1355.64 215.822,1101.13 216.866,1101.27 217.909,1101.83 218.952,1101.91 219.996,1046.47 221.039,1046.69 222.083,1265.32 223.126,1265.38 224.17,1180 225.213,1180.1 226.256,1445.71 227.3,1445.72 228.343,1045.64 229.387,1045.85 230.43,1402.57 231.473,1402.58 232.517,1193.94 233.56,1193.98 234.604,1135.84 235.647,1135.99 236.691,929.836 237.734,930.039 238.777,1074.76 239.821,1074.87 240.864,1183.02 241.908,1183.15 242.951,900.301 243.995,900.462 245.038,1066.42 246.081,1066.54 247.125,1357.66 248.168,1357.68 249.212,1237.78 250.255,1237.81 251.299,1313.37 252.342,1313.41 253.385,1268.69 254.429,1268.75 255.472,1316.12 256.516,1316.16 257.559,1094.67 258.603,1094.86 259.646,1196.83 260.689,1196.88 261.733,1023.63 262.776,1023.77 263.82,1111.13 264.863,1111.24 265.907,849.465 266.95,849.772 267.993,1227.92 269.037,1228.01 270.08,1101.19 271.124,1101.35 272.167,1273.25 273.21,1273.3 274.254,1101.58 275.297,1101.76 276.341,1146.92 277.384,1147.06 278.428,1067 279.471,1067.1 280.514,1113.53 281.558,1113.6 282.601,1319.72 283.645,1319.75 284.688,985.53 285.732,985.734 286.775,949.876 287.818,949.997 288.862,1187.41 289.905,1187.57 290.949,985.457 291.992,985.602 293.036,1155.34 294.079,1155.42 295.122,1114.09 296.166,1114.17 297.209,1031.3 298.253,1031.42 299.296,1189.35 300.34,1189.44 301.383,1065.11 302.426,1065.29 303.47,410.347 304.513,410.914 305.557,1403.91 306.6,1403.92 307.643,989.632 308.687,989.808 309.73,1153.45 310.774,1153.57 311.817,1067.46 312.861,1067.64 313.904,1068.33 314.947,1068.5 315.991,1196.6 317.034,1196.69 318.078,1033.34 319.121,1033.45 320.165,828.448 321.208,828.636 322.251,1321.33 323.295,1321.37 324.338,873.787 325.382,873.987 326.425,1071.64 327.469,1071.85 328.512,1280.79 329.555,1280.84 330.599,904.33 331.642,904.652 332.686,1240.38 333.729,1240.48 334.773,1241.28 335.816,1241.35 336.859,1083.63 337.903,1083.74 338.946,1241.47 339.99,1241.57 341.033,1282.8 342.077,1282.85 343.12,836.992 344.163,837.203 345.207,1123.34 346.25,1123.4 347.294,1032.05 348.337,1032.24 349.38,1038.55 350.424,1038.65 351.467,1115.65 352.511,1115.78 353.554,1283.11 354.598,1283.18 355.641,1367.45 356.684,1367.47 357.728,995.253 358.771,995.476 359.815,955.539 360.858,955.831 361.902,1039.22 362.945,1039.41 363.988,1202.74 365.032,1202.82 366.075,1203.23 367.119,1203.33 368.162,1326.35 369.206,1326.38 370.249,1244.51 371.292,1244.56 372.336,1240.18 373.379,1240.25 374.423,1122.38 375.466,1122.51 376.51,1041.74 377.553,1041.83 378.596,1248.4 379.64,1248.49 380.683,845.149 381.727,845.317 382.77,1081.65 383.813,1081.81 384.857,1165.96 385.9,1166.06 386.944,1248.16 387.987,1248.23 389.031,1081.31 390.074,1081.44 391.117,1287.26 392.161,1287.3 393.204,1169.57 394.248,1169.66 395.291,643.745 396.335,644.079 397.378,925.949 398.421,926.11 399.465,1207.65 400.508,1207.73 401.552,1331.24 402.595,1331.28 403.639,1087.23 404.682,1087.37 405.725,1208.25 406.769,1208.32 407.812,1208.15 408.856,1208.22 409.899,1169.8 410.943,1169.88 411.986,970.311 413.029,970.445 414.073,1128.19 415.116,1128.3 416.16,1012.16 417.203,1012.36 418.247,852.059 419.29,852.217 420.333,1050.34 421.377,1050.41 422.42,1010.84 423.464,1011.07 424.507,1054.07 425.55,1054.24 426.594,934.383 427.637,934.543 428.681,893.225 429.724,893.398 430.768,1134.99 431.811,1135.11 432.854,813.15 433.898,813.314 434.941,852.852 435.985,852.995 437.028,938.404 438.072,938.562 439.115,936.087 440.158,936.215 441.202,1214.36 442.245,1214.44 443.289,1019.42 444.332,1019.52 445.376,1219.15 446.419,1219.24 447.462,663.365 448.506,663.616 449.549,1218.06 450.593,1218.14 451.636,1019.93 452.68,1020.03 453.723,1061.72 454.766,1061.82 455.81,901.281 456.853,901.497 457.897,1137.69 458.94,1137.81 459.984,1020.06 461.027,1020.23 462.07,944.657 463.114,944.89 464.157,1021 465.201,1021.18 466.244,787.294 467.287,787.484 468.331,1142.15 469.374,1142.24 470.418,867.362 471.461,867.547 472.505,910.929 473.548,911.19 474.591,1142.55 475.635,1142.65 476.678,1021.8 477.722,1021.94 478.765,1178.83 479.809,1178.86 480.852,945.609 481.895,945.742 482.939,1065.06 483.982,1065.2 485.026,1027.93 486.069,1028.02 487.113,1070.16 488.156,1070.32 489.199,1108.66 490.243,1108.8 491.286,1109.04 492.33,1109.15 493.373,834.671 494.417,834.886 495.46,1222.41 496.503,1222.46 497.547,986.726 498.59,986.824 499.634,956.803 500.677,957.024 501.72,1027.3 502.764,1027.39 503.807,831.253 504.851,831.401 505.894,1186.95 506.938,1187.05 507.981,1258.96 509.024,1259 510.068,1117.15 511.111,1117.27 512.155,1032.28 513.198,1032.48 514.242,1148.44 515.285,1148.53 516.328,1027.64 517.372,1027.71 518.415,767.969 519.459,768.223 520.502,847.534 521.546,847.867 522.589,1110.16 523.632,1110.26 524.676,956.377 525.719,956.503 526.763,889.095 527.806,889.35 528.85,1031.39 529.893,1031.46 530.936,759.882 531.98,760.06 533.023,1266.9 534.067,1266.94 535.11,1117.14 536.154,1117.29 537.197,1116.59 538.24,1116.69 539.284,1003.43 540.327,1003.59 541.371,1006.97 542.414,1007.14 543.457,1041.11 544.501,1041.27 545.544,1042.86 546.588,1042.99 547.631,823.673 548.675,823.996 549.718,1079.17 550.761,1079.28 551.805,974.236 552.848,974.421 553.892,971.908 554.935,972.14 555.979,1086.2 557.022,1086.31 558.065,861.099 559.109,861.359 560.152,1044.2 561.196,1044.27 562.239,739.617 563.283,739.829 564.326,739.052 565.369,739.242 566.413,905.831 567.456,906.072 568.5,776.521 569.543,776.737 570.587,1052.2 571.63,1052.32 572.673,935.071 573.717,935.191 574.76,893.927 575.804,894.058 576.847,1128.05 577.89,1128.14 578.934,1164.18 579.977,1164.29 581.021,1162.26 582.064,1162.33 583.108,872.085 584.151,872.33 585.194,1164.8 586.238,1164.88 587.281,789.134 588.325,789.333 589.368,1236.05 590.412,1236.09 591.455,985.073 592.498,985.238 593.542,1018.54 594.585,1018.67 595.629,936.29 596.672,936.402 597.716,683.351 598.759,683.653 599.802,1128.44 600.846,1128.52 601.889,1094.84 602.933,1094.95 603.976,989.332 605.02,989.492 606.063,985.175 607.106,985.325 608.15,828.131 609.193,828.286 610.237,1062.23 611.28,1062.36 612.324,956.539 613.367,956.718 614.41,870.654 615.454,870.798 616.497,821.67 617.541,821.797 618.584,956.223 619.627,956.397 620.671,1097.2 621.714,1097.28 622.758,942.587 623.801,942.698 624.845,1129.84 625.888,1129.91 626.931,767.364 627.975,767.699 629.018,919.485 630.062,919.723 631.105,906.926 632.149,907.063 633.192,818.801 634.235,819.077 635.279,1033.74 636.322,1033.89 637.366,1030.07 638.409,1030.2 639.453,1170.09 640.496,1170.15 641.539,774.509 642.583,774.719 643.626,1084.96 644.67,1085.01 645.713,440.18 646.757,440.552 647.8,1031.47 648.843,1031.62 649.887,878.064 650.93,878.187 651.974,812.083 653.017,812.253 654.06,930.385 655.104,930.56 656.147,602.806 657.191,603.271 658.234,1038.86 659.278,1038.99 660.321,844.621 661.364,844.755 662.408,1003.7 663.451,1003.84 664.495,696.222 665.538,696.445 666.582,930.6 667.625,930.77 668.668,898.766 669.712,898.969 670.755,793.554 671.799,793.666 672.842,677.75 673.886,678.001 674.929,749.533 675.972,749.773 677.016,959.749 678.059,959.849 679.103,796.69 680.146,796.941 681.19,644.911 682.233,645.1 683.276,890.744 684.32,890.862 685.363,905.18 686.407,905.359 687.45,555.587 688.494,555.854 689.537,1070.44 690.58,1070.51 691.624,636.723 692.667,636.962 693.711,907.054 694.754,907.229 695.797,901.658 696.841,901.835 697.884,944.366 698.928,944.543 699.971,944.11 701.015,944.285 702.058,773.733 703.101,774.005 704.145,944.15 705.188,944.297 706.232,922.192 707.275,922.309 708.319,1082.46 709.362,1082.55 710.405,758.504 711.449,758.685 712.492,878.461 713.536,878.647 714.579,434.054 715.623,434.353 716.666,370.845 717.709,371.189 718.753,828.359 719.796,828.5 720.84,1085.74 721.883,1085.82 722.927,1183.59 723.97,1183.64 725.013,1015.16 726.057,1015.26 727.1,1014.65 728.144,1014.76 729.187,660.244 730.23,660.471 731.274,726.818 732.317,727.009 733.361,898.881 734.404,898.974 735.448,599.454 736.491,599.739 737.534,914.89 738.578,915.064 739.621,1116.96 740.665,1117.02 741.708,858.749 742.752,858.956 743.795,1017.16 744.838,1017.26 745.882,1088.32 746.925,1088.39 747.969,331.867 749.012,332.148 750.056,924.251 751.099,924.405 752.142,834.967 753.186,835.082 754.229,892.477 755.273,892.653 756.316,958.434 757.36,958.562 758.403,985.187 759.446,985.291 760.49,804.044 761.533,804.188 762.577,683.449 763.62,683.665 764.664,668.25 765.707,668.468 766.75,1001.22 767.794,1001.27 768.837,811.969 769.881,812.053 770.924,877.273 771.967,877.424 773.011,812.426 774.054,812.562 775.098,738.803 776.141,739.013 777.185,837.868 778.228,837.979 779.271,777.407 780.315,777.549 781.358,959.268 782.402,959.38 783.445,774.09 784.489,774.226 785.532,867.479 786.575,867.664 787.619,645.151 788.662,645.38 789.706,651.456 790.749,651.734 791.793,746.763 792.836,746.914 793.879,935.387 794.923,935.53 795.966,899.843 797.01,899.991 798.053,769.667 799.097,769.883 800.14,582.916 801.183,583.149 802.227,580.679 803.27,581.052 804.314,779.591 805.357,779.767 806.401,808.653 807.444,808.85 808.487,998.408 809.531,998.506 810.574,876.19 811.618,876.351 812.661,1034.5 813.704,1034.6 814.748,780.225 815.791,780.341 816.835,948.578 817.878,948.637 818.922,840.728 819.965,840.891 821.008,762.796 822.052,762.895 823.095,919.361 824.139,919.432 825.182,783.411 826.226,783.525 827.269,567.049 828.312,567.217 829.356,908.921 830.399,909.053 831.443,983.073 832.486,983.123 833.53,540.251 834.573,540.515 835.616,1003.13 836.66,1003.22 837.703,574.772 838.747,574.981 839.79,975.679 840.834,975.775 841.877,817.107 842.92,817.2 843.964,760.979 845.007,761.122 846.051,848.374 847.094,848.448 848.137,780.904 849.181,781.087 850.224,852.073 851.268,852.259 852.311,725.332 853.355,725.564 854.398,940.226 855.441,940.335 856.485,584.039 857.528,584.21 858.572,825.801 859.615,825.891 860.659,520.913 861.702,521.137 862.745,789.468 863.789,789.646 864.832,759.108 865.876,759.336 866.919,881.41 867.963,881.534 869.006,857.955 870.049,858.142 871.093,893.578 872.136,893.717 873.18,862.748 874.223,862.839 875.267,982.039 876.31,982.124 877.353,919.028 878.397,919.156 879.44,1048.24 880.484,1048.34 881.527,952.346 882.571,952.444 883.614,986.096 884.657,986.181 885.701,771.38 886.744,771.621 887.788,769.195 888.831,769.31 889.874,706.587 890.918,706.72 891.961,576.699 893.005,576.89 894.048,950.609 895.092,950.699 896.135,771.342 897.178,771.533 898.222,702.157 899.265,702.412 900.309,702.422 901.352,702.632 902.396,285.885 903.439,286.181 904.482,646.571 905.526,646.738 906.569,986.415 907.613,986.548 908.656,958.053 909.7,958.14 910.743,956.771 911.786,956.897 912.83,559.989 913.873,560.198 914.917,926.516 915.96,926.61 917.004,989.917 918.047,990.026 919.09,774.626 920.134,774.801 921.177,900.848 922.221,900.986 923.264,528.771 924.307,528.985 925.351,835.053 926.394,835.207 927.438,747.714 928.481,747.901 929.525,965.429 930.568,965.523 931.611,925.814 932.655,925.904 933.698,528.68 934.742,528.893 935.785,842.689 936.829,842.82 937.872,931.438 938.915,931.53 939.959,598.235 941.002,598.407 942.046,691.369 943.089,691.509 944.133,803.545 945.176,803.608 946.219,870.27 947.263,870.376 948.306,635.199 949.35,635.386 950.393,755.77 951.437,755.942 952.48,875.618 953.523,875.689 954.567,745.456 955.61,745.549 956.654,510.624 957.697,510.877 958.741,873.832 959.784,873.937 960.827,813.159 961.871,813.29 962.914,783.187 963.958,783.33 965.001,869.754 966.044,869.811 967.088,934.601 968.131,934.679 969.175,779.939 970.218,780.073 971.262,536.627 972.305,536.823 973.348,537.635 974.392,537.787 975.435,939.718 976.479,939.805 977.522,417.993 978.566,418.182 979.609,758.809 980.652,758.968 981.696,791.312 982.739,791.459 983.783,750.884 984.826,751.102 985.87,675.832 986.913,675.973 987.956,666.739 989,666.854 990.043,966.628 991.087,966.701 992.13,879.573 993.174,879.682 994.217,879.132 995.26,879.184 996.304,853.442 997.347,853.548 998.391,696.103 999.434,696.262 1000.48,606.891 1001.52,607.04 1002.56,459.923 1003.61,460.089 1004.65,821.766 1005.69,821.854 1006.74,734.808 1007.78,734.963 1008.82,647.316 1009.87,647.457 1010.91,679.163 1011.96,679.374 1013,822.796 1014.04,822.868 1015.09,736.249 1016.13,736.421 1017.17,603.491 1018.22,603.582 1019.26,798.615 1020.3,798.74 1021.35,344.936 1022.39,345.152 1023.43,585.824 1024.48,585.963 1025.52,701.878 1026.56,701.976 1027.61,676.415 1028.65,676.576 1029.69,754.226 1030.74,754.286 1031.78,468.233 1032.82,468.445 1033.87,682.975 1034.91,683.09 1035.95,966.905 1037,966.956 1038.04,685.295 1039.08,685.517 1040.13,477.074 1041.17,477.294 1042.21,795.062 1043.26,795.168 1044.3,490.105 1045.34,490.24 1046.39,805.672 1047.43,805.881 1048.48,711.007 1049.52,711.105 1050.56,864.46 1051.61,864.557 1052.65,722.053 1053.69,722.232 1054.74,746.639 1055.78,746.771 1056.82,683.786 1057.87,683.881 1058.91,652.361 1059.95,652.497 1061,682.05 1062.04,682.143 1063.08,529.436 1064.13,529.569 1065.17,739.417 1066.21,739.534 1067.26,624.82 1068.3,624.944 1069.34,753.37 1070.39,753.577 1071.43,836.5 1072.47,836.654 1073.52,655.045 1074.56,655.14 1075.6,749.407 1076.65,749.528 1077.69,868.608 1078.73,868.689 1079.78,624.814 1080.82,624.914 1081.86,847.85 1082.91,847.96 1083.95,950.655 1084.99,950.71 1086.04,471.825 1087.08,471.961 1088.13,814.836 1089.17,814.938 1090.21,690.48 1091.26,690.612 1092.3,838.97 1093.34,839.064 1094.39,916.811 1095.43,916.929 1096.47,923.518 1097.52,923.574 1098.56,698.055 1099.6,698.194 1100.65,382.136 1101.69,382.303 1102.73,756.268 1103.78,756.382 1104.82,252.171 1105.86,252.475 1106.91,579.443 1107.95,579.567 1108.99,845.638 1110.04,845.743 1111.08,521.878 1112.12,522.03 1113.17,550.962 1114.21,551.111 1115.25,783.532 1116.3,783.629 1117.34,841.625 1118.38,841.701 1119.43,727.808 1120.47,727.922 1121.51,472.22 1122.56,472.419 1123.6,647.729 1124.65,647.884 1125.69,907.565 1126.73,907.649 1127.78,495.416 1128.82,495.577 1129.86,588.25 1130.91,588.371 1131.95,587.951 1132.99,588.118 1134.04,665.357 1135.08,665.455 1136.12,818.397 1137.17,818.483 1138.21,647.449 1139.25,647.59 1140.3,699.533 1141.34,699.658 1142.38,648.522 1143.43,648.662 1144.47,819.237 1145.51,819.316 1146.56,559.466 1147.6,559.592 1148.64,678.235 1149.69,678.369 1150.73,402.122 1151.77,402.29 1152.82,818.632 1153.86,818.707 1154.9,701.472 1155.95,701.541 1156.99,870.891 1158.03,870.948 1159.08,770.99 1160.12,771.114 1161.16,636.752 1162.21,636.824 1163.25,766.546 1164.3,766.757 1165.34,717.257 1166.38,717.378 1167.43,553.195 1168.47,553.33 1169.51,637.383 1170.56,637.543 1171.6,933.525 1172.64,933.57 1173.69,745.028 1174.73,745.133 1175.77,323.971 1176.82,324.13 1177.86,683.686 1178.9,683.811 1179.95,570.409 1180.99,570.532 1182.03,669.321 1183.08,669.466 1184.12,575.043 1185.16,575.116 1186.21,886.655 1187.25,886.727 1188.29,433.352 1189.34,433.533 1190.38,859.127 1191.42,859.201 1192.47,311.753 1193.51,311.905 1194.55,768.432 1195.6,768.528 1196.64,436.082 1197.68,436.184 1198.73,812.537 1199.77,812.583 1200.82,690.688 1201.86,690.926 1202.9,501.46 1203.95,501.564 1204.99,775.57 1206.03,775.655 1207.08,685.831 1208.12,685.908 1209.16,749.079 1210.21,749.174 1211.25,806.53 1212.29,806.608 1213.34,901.605 1214.38,901.666 1215.42,695.175 1216.47,695.343 1217.51,643.257 1218.55,643.394 1219.6,698.351 1220.64,698.463 1221.68,676.787 1222.73,676.846 1223.77,752.771 1224.81,752.807 1225.86,644.154 1226.9,644.3 1227.94,511.951 1228.99,512.057 1230.03,583.321 1231.07,583.486 1232.12,669.577 1233.16,669.746 1234.2,542.511 1235.25,542.659 1236.29,650.237 1237.33,650.375 1238.38,609.746 1239.42,609.886 1240.47,632.984 1241.51,633.063 1242.55,524.513 1243.6,524.637 1244.64,616.818 1245.68,616.979 1246.73,540.073 1247.77,540.157 1248.81,550.205 1249.86,550.32 1250.9,599.926 1251.94,599.999 1252.99,546.898 1254.03,546.994 1255.07,862.976 1256.12,863.035 1257.16,759.005 1258.2,759.124 1259.25,585.191 1260.29,585.255 1261.33,527.74 1262.38,527.883 1263.42,776.882 1264.46,776.952 1265.51,813.414 1266.55,813.477 1267.59,350.013 1268.64,350.195 1269.68,750.178 1270.72,750.268 1271.77,581.432 1272.81,581.58 1273.85,491.876 1274.9,491.979 1275.94,676.2 1276.99,676.306 1278.03,451.847 1279.07,451.935 1280.12,373.712 1281.16,373.829 1282.2,714.553 1283.25,714.706 1284.29,348.235 1285.33,348.362 1286.38,628.707 1287.42,628.761 1288.46,494.92 1289.51,495.012 1290.55,782.318 1291.59,782.382 1292.64,639.232 1293.68,639.307 1294.72,655.378 1295.77,655.509 1296.81,559.883 1297.85,560.097 1298.9,733.459 1299.94,733.544 1300.98,589.939 1302.03,590.024 1303.07,680.3 1304.11,680.518 1305.16,646.557 1306.2,646.649 1307.24,612.277 1308.29,612.357 1309.33,681.498 1310.37,681.59 1311.42,504.382 1312.46,504.479 1313.5,651.303 1314.55,651.412 1315.59,389.059 1316.64,389.186 1317.68,490.25 1318.72,490.339 1319.77,596.406 1320.81,596.58 1321.85,643.125 1322.9,643.194 1323.94,706.43 1324.98,706.505 1326.03,456.525 1327.07,456.638 1328.11,527.1 1329.16,527.247 1330.2,576.726 1331.24,576.855 1332.29,447.081 1333.33,447.178 1334.37,604.814 1335.42,604.923 1336.46,656.327 1337.5,656.415 1338.55,718.947 1339.59,719.034 1340.63,622.569 1341.68,622.665 1342.72,562.523 1343.76,562.652 1344.81,484.149 1345.85,484.263 1346.89,490.016 1347.94,490.09 1348.98,510.86 1350.02,510.971 1351.07,635.705 1352.11,635.753 1353.16,696.493 1354.2,696.609 1355.24,658.781 1356.29,658.867 1357.33,519.683 1358.37,519.822 1359.42,472.233 1360.46,472.306 1361.5,637.806 1362.55,637.9 1363.59,625.56 1364.63,625.64 1365.68,436.015 1366.72,436.107 1367.76,507.335 1368.81,507.449 1369.85,400.897 1370.89,400.998 1371.94,537.377 1372.98,537.459 1374.02,148.997 1375.07,149.146 1376.11,448.727 1377.15,448.805 1378.2,738.43 1379.24,738.486 1380.28,689.43 1381.33,689.502 1382.37,689.388 1383.41,689.533 1384.46,646.297 1385.5,646.393 1386.54,637.051 1387.59,637.148 1388.63,340.219 1389.67,340.337 1390.72,614.27 1391.76,614.315 1392.81,533.064 1393.85,533.12 1394.89,455.354 1395.94,455.471 1396.98,771.497 1398.02,771.553 1399.07,691.631 1400.11,691.699 1401.15,456.963 1402.2,457.021 1403.24,696.372 1404.28,696.453 1405.33,538.43 1406.37,538.547 1407.41,598.805 1408.46,598.937 1409.5,613.648 1410.54,613.735 1411.59,616.923 1412.63,617.028 1413.67,616.695 1414.72,616.784 1415.76,778.991 1416.8,779.048 1417.85,693.259 1418.89,693.332 1419.93,592.676 1420.98,592.722 1422.02,696.421 1423.06,696.495 1424.11,592.638 1425.15,592.731 1426.19,802.49 1427.24,802.535 1428.28,518.745 1429.33,518.829 1430.37,723.108 1431.41,723.187 1432.46,465.725 1433.5,465.812 1434.54,364.097 1435.59,364.179 1436.63,480.478 1437.67,480.565 1438.72,737.239 1439.76,737.315 1440.8,546.234 1441.85,546.29 1442.89,559 1443.93,559.059 1444.98,759.293 1446.02,759.359 1447.06,360.402 1448.11,360.475 1449.15,410.955 1450.19,411.038 1451.24,366.325 1452.28,366.44 1453.32,607.764 1454.37,607.834 1455.41,617.333 1456.45,617.422 1457.5,156.637 1458.54,156.79 1459.58,464.525 1460.63,464.667 1461.67,411.694 1462.71,411.779 1463.76,256.38 1464.8,256.485 1465.84,488.771 1466.89,488.825 1467.93,365.189 1468.98,365.263 1470.02,738.055 1471.06,738.121 1472.11,491.139 1473.15,491.195 1474.19,722.258 1475.24,722.33 1476.28,352.578 1477.32,352.695 1478.37,288.396 1479.41,288.481 1480.45,298.349 1481.5,298.448 1482.54,435.302 1483.58,435.477 1484.63,453.03 1485.67,453.093 1486.71,486.762 1487.76,486.834 1488.8,447.485 1489.84,447.559 1490.89,501.853 1491.93,501.914 1492.97,497.357 1494.02,497.413 1495.06,655.936 1496.1,656.031 1497.15,487.947 1498.19,488.045 1499.23,551.94 1500.28,552.056 1501.32,390.648 1502.36,390.714 1503.41,743.186 1504.45,743.296 1505.5,598.702 1506.54,598.775 1507.58,642.787 1508.63,642.844 1509.67,451.726 1510.71,451.797 1511.76,635.579 1512.8,635.671 1513.84,632.264 1514.89,632.336 1515.93,552.746 1516.97,552.834 1518.02,560.501 1519.06,560.621 1520.1,646.09 1521.15,646.144 1522.19,523.361 1523.23,523.465 1524.28,451.671 1525.32,451.743 1526.36,552.114 1527.41,552.201 1528.45,469.452 1529.49,469.504 1530.54,534.338 1531.58,534.437 1532.62,293.435 1533.67,293.512 1534.71,409.691 1535.75,409.778 1536.8,392.421 1537.84,392.476 1538.88,613.369 1539.93,613.468 1540.97,606.875 1542.01,606.955 1543.06,422.538 1544.1,422.621 1545.15,504.78 1546.19,504.83 1547.23,455.74 1548.28,455.858 1549.32,609.102 1550.36,609.174 1551.41,222.433 1552.45,222.55 1553.49,933.516 1554.54,933.538 1555.58,399.401 1556.62,399.481 1557.67,761.077 1558.71,761.161 1559.75,815.171 1560.8,815.219 1561.84,537.784 1562.88,537.888 1563.93,636.33 1564.97,636.39 1566.01,764.253 1567.06,764.333 1568.1,506.806 1569.14,506.853 1570.19,635.734 1571.23,635.794 1572.27,414.787 1573.32,414.892 1574.36,513.958 1575.4,514.12 1576.45,666.356 1577.49,666.434 1578.53,512.821 1579.58,512.92 1580.62,651.41 1581.67,651.461 1582.71,216.32 1583.75,216.422 1584.8,548.263 1585.84,548.298 1586.88,592.416 1587.93,592.49 1588.97,568.346 1590.01,568.426 1591.06,556.535 1592.1,556.683 1593.14,386.182 1594.19,386.255 1595.23,527.304 1596.27,527.403 1597.32,648.639 1598.36,648.709 1599.4,441.313 1600.45,441.383 1601.49,165.589 1602.53,165.739 1603.58,462.886 1604.62,462.941 1605.66,631.812 1606.71,631.867 1607.75,304.575 1608.79,304.664 1609.84,473.716 1610.88,473.755 1611.92,395.699 1612.97,395.785 1614.01,527.876 1615.05,527.94 1616.1,384.147 1617.14,384.21 1618.18,473.15 1619.23,473.214 1620.27,690.076 1621.32,690.121 1622.36,412.705 1623.4,412.816 1624.45,571.411 1625.49,571.484 1626.53,483.305 1627.58,483.39 1628.62,644.141 1629.66,644.224 1630.71,410.885 1631.75,410.985 1632.79,559.356 1633.84,559.415 1634.88,632.433 1635.92,632.503 1636.97,544.637 1638.01,544.717 1639.05,359.766 1640.1,359.837 1641.14,710.344 1642.18,710.395 1643.23,515.979 1644.27,516.056 1645.31,669.464 1646.36,669.514 1647.4,624.098 1648.44,624.167 1649.49,646.03 1650.53,646.086 1651.57,612.421 1652.62,612.478 1653.66,284.377 1654.7,284.495 1655.75,384.167 1656.79,384.224 1657.84,401.438 1658.88,401.506 1659.92,603.712 1660.97,603.778 1662.01,184.568 1663.05,184.656 1664.1,527.21 1665.14,527.289 1666.18,585.357 1667.23,585.413 1668.27,701.958 1669.31,702 1670.36,592.466 1671.4,592.52 1672.44,634.514 1673.49,634.559 1674.53,727.372 1675.57,727.457 1676.62,517.494 1677.66,517.582 1678.7,337.533 1679.75,337.605 1680.79,843.997 1681.83,844.023 1682.88,517.624 1683.92,517.671 1684.96,629.828 1686.01,629.887 1687.05,505.942 1688.09,506.038 1689.14,514.196 1690.18,514.293 1691.22,416.171 1692.27,416.25 1693.31,511.632 1694.35,511.673 1695.4,545.468 1696.44,545.555 1697.49,467.343 1698.53,467.42 1699.57,623.074 1700.62,623.122 1701.66,216.848 1702.7,216.954 1703.75,567.644 1704.79,567.732 1705.83,410.103 1706.88,410.157 1707.92,497.569 1708.96,497.652 1710.01,565.349 1711.05,565.374 1712.09,580.62 1713.14,580.68 1714.18,283.673 1715.22,283.742 1716.27,641.228 1717.31,641.27 1718.35,623.133 1719.4,623.19 1720.44,468.98 1721.48,469.066 1722.53,608.247 1723.57,608.318 1724.61,708.098 1725.66,708.225 1726.7,376.072 1727.74,376.146 1728.79,524.213 1729.83,524.264 1730.87,474.184 1731.92,474.268 1732.96,505.094 1734.01,505.165 1735.05,403.298 1736.09,403.358 1737.14,710.632 1738.18,710.677 1739.22,419.394 1740.27,419.436 1741.31,505.897 1742.35,505.967 1743.4,397.671 1744.44,397.738 1745.48,533.595 1746.53,533.633 1747.57,502.489 1748.61,502.604 1749.66,562.927 1750.7,562.992 1751.74,171.597 1752.79,171.682 1753.83,563.829 1754.87,563.882 1755.92,288.446 1756.96,288.663 1758,525.979 1759.05,526.028 1760.09,458.788 1761.13,458.837 1762.18,480.93 1763.22,480.999 1764.26,472.71 1765.31,472.752 1766.35,485.221 1767.39,485.259 1768.44,518.345 1769.48,518.379 1770.52,589.378 1771.57,589.443 1772.61,540.749 1773.66,540.878 1774.7,321.894 1775.74,321.956 1776.79,580.247 1777.83,580.306 1778.87,375.83 1779.92,375.872 1780.96,526.27 1782,526.332 1783.05,554.48 1784.09,554.556 1785.13,719.988 1786.18,720.021 1787.22,393.489 1788.26,393.527 1789.31,578.383 1790.35,578.431 1791.39,381.7 1792.44,381.753 1793.48,709.133 1794.52,709.194 1795.57,565.571 1796.61,565.641 1797.65,192.826 1798.7,192.97 1799.74,624.215 1800.78,624.254 1801.83,517.597 1802.87,517.619 1803.91,377.679 1804.96,377.755 1806,531.003 1807.04,531.094 1808.09,483.404 1809.13,483.511 1810.18,461.943 1811.22,461.98 1812.26,633.759 1813.31,633.797 1814.35,514.443 1815.39,514.558 1816.44,538.023 1817.48,538.079 1818.52,480.98 1819.57,481.039 1820.61,160.929 1821.65,161.167 1822.7,504.142 1823.74,504.194 1824.78,536.081 1825.83,536.136 1826.87,521.637 1827.91,521.78 1828.96,168.572 1830,168.725 1831.04,484.222 1832.09,484.282 1833.13,378.651 1834.17,378.695 1835.22,173.619 1836.26,173.692 1837.3,439.162 1838.35,439.189 1839.39,509.42 1840.43,509.491 1841.48,372.671 1842.52,372.731 1843.56,383.026 1844.61,383.096 1845.65,434.448 1846.69,434.486 1847.74,635.916 1848.78,635.952 1849.83,609.338 1850.87,609.378 1851.91,87.9763 1852.96,88.0808 1854,457.885 1855.04,457.919 1856.09,332.011 1857.13,332.061 1858.17,726.649 1859.22,726.673 1860.26,207.309 1861.3,207.438 1862.35,594.699 1863.39,594.734 1864.43,328.704 1865.48,328.76 1866.52,543.39 1867.56,543.568 1868.61,495.482 1869.65,495.512 1870.69,609.111 1871.74,609.154 1872.78,437.426 1873.82,437.465 1874.87,427.134 1875.91,427.171 1876.95,492.66 1878,492.726 1879.04,685.775 1880.08,685.803 1881.13,582.972 1882.17,583.01 1883.21,688.652 1884.26,688.684 1885.3,483.014 1886.35,483.063 1887.39,634.211 1888.43,634.243 1889.48,582.283 1890.52,582.319 1891.56,642.471 1892.61,642.528 1893.65,344.573 1894.69,344.625 1895.74,505.353 1896.78,505.415 1897.82,405.601 1898.87,405.637 1899.91,476.686 1900.95,476.711 1902,680.543 1903.04,680.577 1904.08,539.017 1905.13,539.062 1906.17,587.224 1907.21,587.261 1908.26,466.392 1909.3,466.412 1910.34,291.259 1911.39,291.338 1912.43,631.809 1913.47,631.858 1914.52,347.777 1915.56,347.852 1916.6,572.11 1917.65,572.13 1918.69,459.447 1919.73,459.597 1920.78,389.422 1921.82,389.505 1922.86,521.397 1923.91,521.452 1924.95,405.857 1926,405.94 1927.04,614.951 1928.08,614.998 1929.13,557.899 1930.17,557.94 1931.21,335.759 1932.26,335.811 1933.3,490.224 1934.34,490.254 1935.39,469.297 1936.43,469.352 1937.47,539.92 1938.52,539.963 1939.56,495.001 1940.6,495.065 1941.65,464.485 1942.69,464.534 1943.73,244.346 1944.78,244.406 1945.82,526.246 1946.86,526.316 1947.91,550.294 1948.95,550.346 1949.99,345.198 1951.04,345.245 1952.08,241.603 1953.12,241.696 1954.17,568.144 1955.21,568.215 1956.25,480.334 1957.3,480.401 1958.34,142.93 1959.38,143.074 1960.43,443.129 1961.47,443.185 1962.52,442.883 1963.56,442.968 1964.6,458.622 1965.65,458.719 1966.69,411.571 1967.73,411.644 1968.78,461.161 1969.82,461.262 1970.86,541.914 1971.91,541.959 1972.95,531.199 1973.99,531.233 1975.04,451.638 1976.08,451.695 1977.12,354.007 1978.17,354.064 1979.21,498.068 1980.25,498.115 1981.3,421.424 1982.34,421.459 1983.38,629.245 1984.43,629.305 1985.47,449.728 1986.51,449.785 1987.56,500.139 1988.6,500.187 1989.64,567.212 1990.69,567.246 1991.73,567.346 1992.77,567.379 1993.82,496.442 1994.86,496.486 1995.9,453.645 1996.95,453.721 1997.99,473.286 1999.03,473.34 2000.08,371.696 2001.12,371.764 2002.17,494.288 2003.21,494.35 2004.25,567.723 2005.3,567.776 2006.34,581.817 2007.38,581.857 2008.43,362.847 2009.47,362.892 2010.51,491.489 2011.56,491.59 2012.6,577.135 2013.64,577.181 2014.69,381.224 2015.73,381.294 2016.77,606.223 2017.82,606.253 2018.86,509.373 2019.9,509.435 2020.95,502.475 2021.99,502.52 2023.03,414.111 2024.08,414.181 2025.12,550.518 2026.16,550.542 2027.21,337.561 2028.25,337.592 2029.29,508.747 2030.34,508.799 2031.38,339.516 2032.42,339.567 2033.47,414.098 2034.51,414.147 2035.55,613.973 2036.6,614.007 2037.64,490.073 2038.69,490.144 2039.73,416.189 2040.77,416.215 2041.82,515.881 2042.86,515.914 2043.9,319.079 2044.95,319.122 2045.99,621.981 2047.03,622.018 2048.08,171.738 2049.12,171.852 2050.16,355.083 2051.21,355.107 2052.25,495.05 2053.29,495.095 2054.34,372.572 2055.38,372.607 2056.42,645.881 2057.47,645.906 2058.51,311.514 2059.55,311.544 2060.6,647.657 2061.64,647.688 2062.68,525.583 2063.73,525.619 2064.77,570.012 2065.81,570.044 2066.86,543.639 2067.9,543.669 2068.94,502.728 2069.99,502.77 2071.03,424.486 2072.07,424.537 2073.12,340.354 2074.16,340.391 2075.2,574.455 2076.25,574.489 2077.29,500.022 2078.34,500.058 2079.38,369.387 2080.42,369.417 2081.47,468.612 2082.51,468.685 2083.55,425.881 2084.6,425.915 2085.64,334.972 2086.68,335.023 2087.73,422.379 2088.77,422.443 2089.81,535.27 2090.86,535.304 2091.9,467.132 2092.94,467.153 2093.99,512.352 2095.03,512.399 2096.07,340.25 2097.12,340.299 2098.16,550.68 2099.2,550.713 2100.25,480.843 2101.29,480.883 2102.33,210.962 2103.38,211.012 2104.42,306.806 2105.46,306.85 2106.51,382.135 2107.55,382.158 2108.59,455.28 2109.64,455.326 2110.68,586.618 2111.72,586.652 2112.77,446.039 2113.81,446.117 2114.86,602.699 2115.9,602.727 2116.94,555.119 2117.99,555.208 2119.03,560.665 2120.07,560.703 2121.12,542.837 2122.16,542.866 2123.2,460.601 2124.25,460.648 2125.29,569.042 2126.33,569.081 2127.38,426.951 2128.42,427.037 2129.46,520.463 2130.51,520.507 2131.55,516.466 2132.59,516.508 2133.64,547.153 2134.68,547.21 2135.72,430.153 2136.77,430.192 2137.81,488.909 2138.85,488.955 2139.9,528.778 2140.94,528.815 2141.98,567.781 2143.03,567.84 2144.07,461.587 2145.11,461.629 2146.16,397.177 2147.2,397.204 2148.24,395.031 2149.29,395.061 2150.33,369.195 2151.37,369.235 2152.42,495.875 2153.46,495.923 2154.51,355.64 2155.55,355.677 2156.59,462.347 2157.64,462.388 2158.68,537.083 2159.72,537.118 2160.77,197.606 2161.81,197.664 2162.85,516.667 2163.9,516.709 2164.94,564.473 2165.98,564.524 2167.03,390.233 2168.07,390.285 2169.11,425.113 2170.16,425.14 2171.2,318.056 2172.24,318.082 2173.29,382.281 2174.33,382.333 2175.37,542.088 2176.42,542.13 2177.46,521.968 2178.5,522.007 2179.55,607.085 2180.59,607.124 2181.63,550.281 2182.68,550.308 2183.72,547.672 2184.76,547.711 2185.81,595.501 2186.85,595.523 2187.89,487.998 2188.94,488.058 2189.98,472.483 2191.03,472.53 2192.07,478.124 2193.11,478.16 2194.16,286.677 2195.2,286.725 2196.24,455.358 2197.29,455.391 2198.33,344.224 2199.37,344.248 2200.42,487.826 2201.46,487.868 2202.5,411.175 2203.55,411.214 2204.59,516.183 2205.63,516.217 2206.68,291.452 2207.72,291.487 2208.76,567.978 2209.81,568.02 2210.85,492.643 2211.89,492.662 2212.94,600.539 2213.98,600.599 2215.02,603.041 2216.07,603.067 2217.11,438.29 2218.15,438.328 2219.2,574.226 2220.24,574.3 2221.28,460.253 2222.33,460.315 2223.37,446.393 2224.41,446.435 2225.46,389.254 2226.5,389.279 2227.54,540.297 2228.59,540.333 2229.63,461.879 2230.68,461.912 2231.72,563.706 2232.76,563.733 2233.81,253.597 2234.85,253.653 2235.89,560.438 2236.94,560.507 2237.98,626.6 2239.02,626.665 2240.07,476.691 2241.11,476.743 2242.15,560.985 2243.2,561.011 2244.24,454.692 2245.28,454.73 2246.33,584.157 2247.37,584.189 2248.41,373.515 2249.46,373.534 2250.5,587.541 2251.54,587.568 2252.59,224.587 2253.63,224.703 2254.67,340.495 2255.72,340.533 2256.76,449.883 2257.8,449.926 2258.85,540.475 2259.89,540.514 2260.93,474.947 2261.98,474.996 2263.02,475.315 2264.06,475.34 2265.11,214.384 2266.15,214.467 2267.2,465.676 2268.24,465.717 2269.28,616.504 2270.33,616.54 2271.37,397 2272.41,397.044 2273.46,534.683 2274.5,534.707 2275.54,516.21 2276.59,516.296 2277.63,489.068 2278.67,489.097 2279.72,377.173 2280.76,377.229 2281.8,300.713 2282.85,300.739 2283.89,552.798 2284.93,552.82 2285.98,478.144 2287.02,478.163 2288.06,490.233 2289.11,490.28 2290.15,490.326 "/>
<path clip-path="url(#clip110)" d="M214.431 198.898 L488.067 198.898 L488.067 95.2176 L214.431 95.2176  Z" fill="#ffffff" fill-rule="evenodd" fill-opacity="1"/>
<polyline clip-path="url(#clip110)" style="stroke:#000000; stroke-linecap:round; stroke-linejoin:round; stroke-width:4; stroke-opacity:1; fill:none" points="214.431,198.898 488.067,198.898 488.067,95.2176 214.431,95.2176 214.431,198.898 "/>
<polyline clip-path="url(#clip110)" style="stroke:#009af9; stroke-linecap:round; stroke-linejoin:round; stroke-width:4; stroke-opacity:1; fill:none" points="239.009,147.058 386.48,147.058 "/>
<path clip-path="url(#clip110)" d="M424.901 166.745 Q423.095 171.375 421.382 172.787 Q419.67 174.199 416.799 174.199 L413.396 174.199 L413.396 170.634 L415.896 170.634 Q417.656 170.634 418.628 169.8 Q419.6 168.967 420.781 165.865 L421.545 163.921 L411.058 138.412 L415.572 138.412 L423.674 158.689 L431.776 138.412 L436.29 138.412 L424.901 166.745 Z" fill="#000000" fill-rule="nonzero" fill-opacity="1" /><path clip-path="url(#clip110)" d="M443.581 160.402 L451.22 160.402 L451.22 134.037 L442.91 135.703 L442.91 131.444 L451.174 129.778 L455.85 129.778 L455.85 160.402 L463.489 160.402 L463.489 164.338 L443.581 164.338 L443.581 160.402 Z" fill="#000000" fill-rule="nonzero" fill-opacity="1" /></svg>
