<?xml version="1.0" encoding="utf-8"?>
<svg xmlns="http://www.w3.org/2000/svg" xmlns:xlink="http://www.w3.org/1999/xlink" width="600" height="400" viewBox="0 0 2400 1600">
<defs>
  <clipPath id="clip790">
    <rect x="0" y="0" width="2400" height="1600"/>
  </clipPath>
</defs>
<path clip-path="url(#clip790)" d="M0 1600 L2400 1600 L2400 0 L0 0  Z" fill="#ffffff" fill-rule="evenodd" fill-opacity="1"/>
<defs>
  <clipPath id="clip791">
    <rect x="480" y="0" width="1681" height="1600"/>
  </clipPath>
</defs>
<path clip-path="url(#clip790)" d="M156.274 1486.45 L2352.76 1486.45 L2352.76 47.2441 L156.274 47.2441  Z" fill="#ffffff" fill-rule="evenodd" fill-opacity="1"/>
<defs>
  <clipPath id="clip792">
    <rect x="156" y="47" width="2197" height="1440"/>
  </clipPath>
</defs>
<polyline clip-path="url(#clip792)" style="stroke:#000000; stroke-linecap:round; stroke-linejoin:round; stroke-width:2; stroke-opacity:0.1; fill:none" points="218.439,1486.45 218.439,47.2441 "/>
<polyline clip-path="url(#clip792)" style="stroke:#000000; stroke-linecap:round; stroke-linejoin:round; stroke-width:2; stroke-opacity:0.1; fill:none" points="633.035,1486.45 633.035,47.2441 "/>
<polyline clip-path="url(#clip792)" style="stroke:#000000; stroke-linecap:round; stroke-linejoin:round; stroke-width:2; stroke-opacity:0.1; fill:none" points="1047.63,1486.45 1047.63,47.2441 "/>
<polyline clip-path="url(#clip792)" style="stroke:#000000; stroke-linecap:round; stroke-linejoin:round; stroke-width:2; stroke-opacity:0.1; fill:none" points="1462.23,1486.45 1462.23,47.2441 "/>
<polyline clip-path="url(#clip792)" style="stroke:#000000; stroke-linecap:round; stroke-linejoin:round; stroke-width:2; stroke-opacity:0.1; fill:none" points="1876.82,1486.45 1876.82,47.2441 "/>
<polyline clip-path="url(#clip792)" style="stroke:#000000; stroke-linecap:round; stroke-linejoin:round; stroke-width:2; stroke-opacity:0.1; fill:none" points="2291.42,1486.45 2291.42,47.2441 "/>
<polyline clip-path="url(#clip790)" style="stroke:#000000; stroke-linecap:round; stroke-linejoin:round; stroke-width:4; stroke-opacity:1; fill:none" points="156.274,1486.45 2352.76,1486.45 "/>
<polyline clip-path="url(#clip790)" style="stroke:#000000; stroke-linecap:round; stroke-linejoin:round; stroke-width:4; stroke-opacity:1; fill:none" points="218.439,1486.45 218.439,1467.55 "/>
<polyline clip-path="url(#clip790)" style="stroke:#000000; stroke-linecap:round; stroke-linejoin:round; stroke-width:4; stroke-opacity:1; fill:none" points="633.035,1486.45 633.035,1467.55 "/>
<polyline clip-path="url(#clip790)" style="stroke:#000000; stroke-linecap:round; stroke-linejoin:round; stroke-width:4; stroke-opacity:1; fill:none" points="1047.63,1486.45 1047.63,1467.55 "/>
<polyline clip-path="url(#clip790)" style="stroke:#000000; stroke-linecap:round; stroke-linejoin:round; stroke-width:4; stroke-opacity:1; fill:none" points="1462.23,1486.45 1462.23,1467.55 "/>
<polyline clip-path="url(#clip790)" style="stroke:#000000; stroke-linecap:round; stroke-linejoin:round; stroke-width:4; stroke-opacity:1; fill:none" points="1876.82,1486.45 1876.82,1467.55 "/>
<polyline clip-path="url(#clip790)" style="stroke:#000000; stroke-linecap:round; stroke-linejoin:round; stroke-width:4; stroke-opacity:1; fill:none" points="2291.42,1486.45 2291.42,1467.55 "/>
<path clip-path="url(#clip790)" d="M218.439 1517.37 Q214.828 1517.37 212.999 1520.93 Q211.193 1524.47 211.193 1531.6 Q211.193 1538.71 212.999 1542.27 Q214.828 1545.82 218.439 1545.82 Q222.073 1545.82 223.879 1542.27 Q225.707 1538.71 225.707 1531.6 Q225.707 1524.47 223.879 1520.93 Q222.073 1517.37 218.439 1517.37 M218.439 1513.66 Q224.249 1513.66 227.304 1518.27 Q230.383 1522.85 230.383 1531.6 Q230.383 1540.33 227.304 1544.94 Q224.249 1549.52 218.439 1549.52 Q212.629 1549.52 209.55 1544.94 Q206.494 1540.33 206.494 1531.6 Q206.494 1522.85 209.55 1518.27 Q212.629 1513.66 218.439 1513.66 Z" fill="#000000" fill-rule="nonzero" fill-opacity="1" /><path clip-path="url(#clip790)" d="M592.653 1514.29 L611.01 1514.29 L611.01 1518.22 L596.936 1518.22 L596.936 1526.7 Q597.954 1526.35 598.973 1526.19 Q599.991 1526 601.01 1526 Q606.797 1526 610.176 1529.17 Q613.556 1532.34 613.556 1537.76 Q613.556 1543.34 610.084 1546.44 Q606.612 1549.52 600.292 1549.52 Q598.116 1549.52 595.848 1549.15 Q593.602 1548.78 591.195 1548.04 L591.195 1543.34 Q593.278 1544.47 595.501 1545.03 Q597.723 1545.58 600.2 1545.58 Q604.204 1545.58 606.542 1543.48 Q608.88 1541.37 608.88 1537.76 Q608.88 1534.15 606.542 1532.04 Q604.204 1529.94 600.2 1529.94 Q598.325 1529.94 596.45 1530.35 Q594.598 1530.77 592.653 1531.65 L592.653 1514.29 Z" fill="#000000" fill-rule="nonzero" fill-opacity="1" /><path clip-path="url(#clip790)" d="M632.769 1517.37 Q629.158 1517.37 627.329 1520.93 Q625.524 1524.47 625.524 1531.6 Q625.524 1538.71 627.329 1542.27 Q629.158 1545.82 632.769 1545.82 Q636.403 1545.82 638.209 1542.27 Q640.037 1538.71 640.037 1531.6 Q640.037 1524.47 638.209 1520.93 Q636.403 1517.37 632.769 1517.37 M632.769 1513.66 Q638.579 1513.66 641.635 1518.27 Q644.713 1522.85 644.713 1531.6 Q644.713 1540.33 641.635 1544.94 Q638.579 1549.52 632.769 1549.52 Q626.959 1549.52 623.88 1544.94 Q620.825 1540.33 620.825 1531.6 Q620.825 1522.85 623.88 1518.27 Q626.959 1513.66 632.769 1513.66 Z" fill="#000000" fill-rule="nonzero" fill-opacity="1" /><path clip-path="url(#clip790)" d="M662.931 1517.37 Q659.32 1517.37 657.491 1520.93 Q655.685 1524.47 655.685 1531.6 Q655.685 1538.71 657.491 1542.27 Q659.32 1545.82 662.931 1545.82 Q666.565 1545.82 668.371 1542.27 Q670.199 1538.71 670.199 1531.6 Q670.199 1524.47 668.371 1520.93 Q666.565 1517.37 662.931 1517.37 M662.931 1513.66 Q668.741 1513.66 671.796 1518.27 Q674.875 1522.85 674.875 1531.6 Q674.875 1540.33 671.796 1544.94 Q668.741 1549.52 662.931 1549.52 Q657.121 1549.52 654.042 1544.94 Q650.986 1540.33 650.986 1531.6 Q650.986 1522.85 654.042 1518.27 Q657.121 1513.66 662.931 1513.66 Z" fill="#000000" fill-rule="nonzero" fill-opacity="1" /><path clip-path="url(#clip790)" d="M992.157 1544.91 L999.796 1544.91 L999.796 1518.55 L991.486 1520.21 L991.486 1515.95 L999.75 1514.29 L1004.43 1514.29 L1004.43 1544.91 L1012.06 1544.91 L1012.06 1548.85 L992.157 1548.85 L992.157 1544.91 Z" fill="#000000" fill-rule="nonzero" fill-opacity="1" /><path clip-path="url(#clip790)" d="M1031.51 1517.37 Q1027.9 1517.37 1026.07 1520.93 Q1024.26 1524.47 1024.26 1531.6 Q1024.26 1538.71 1026.07 1542.27 Q1027.9 1545.82 1031.51 1545.82 Q1035.14 1545.82 1036.95 1542.27 Q1038.78 1538.71 1038.78 1531.6 Q1038.78 1524.47 1036.95 1520.93 Q1035.14 1517.37 1031.51 1517.37 M1031.51 1513.66 Q1037.32 1513.66 1040.37 1518.27 Q1043.45 1522.85 1043.45 1531.6 Q1043.45 1540.33 1040.37 1544.94 Q1037.32 1549.52 1031.51 1549.52 Q1025.7 1549.52 1022.62 1544.94 Q1019.56 1540.33 1019.56 1531.6 Q1019.56 1522.85 1022.62 1518.27 Q1025.7 1513.66 1031.51 1513.66 Z" fill="#000000" fill-rule="nonzero" fill-opacity="1" /><path clip-path="url(#clip790)" d="M1061.67 1517.37 Q1058.06 1517.37 1056.23 1520.93 Q1054.43 1524.47 1054.43 1531.6 Q1054.43 1538.71 1056.23 1542.27 Q1058.06 1545.82 1061.67 1545.82 Q1065.3 1545.82 1067.11 1542.27 Q1068.94 1538.71 1068.94 1531.6 Q1068.94 1524.47 1067.11 1520.93 Q1065.3 1517.37 1061.67 1517.37 M1061.67 1513.66 Q1067.48 1513.66 1070.54 1518.27 Q1073.62 1522.85 1073.62 1531.6 Q1073.62 1540.33 1070.54 1544.94 Q1067.48 1549.52 1061.67 1549.52 Q1055.86 1549.52 1052.78 1544.94 Q1049.73 1540.33 1049.73 1531.6 Q1049.73 1522.85 1052.78 1518.27 Q1055.86 1513.66 1061.67 1513.66 Z" fill="#000000" fill-rule="nonzero" fill-opacity="1" /><path clip-path="url(#clip790)" d="M1091.83 1517.37 Q1088.22 1517.37 1086.39 1520.93 Q1084.59 1524.47 1084.59 1531.6 Q1084.59 1538.71 1086.39 1542.27 Q1088.22 1545.82 1091.83 1545.82 Q1095.47 1545.82 1097.27 1542.27 Q1099.1 1538.71 1099.1 1531.6 Q1099.1 1524.47 1097.27 1520.93 Q1095.47 1517.37 1091.83 1517.37 M1091.83 1513.66 Q1097.64 1513.66 1100.7 1518.27 Q1103.78 1522.85 1103.78 1531.6 Q1103.78 1540.33 1100.7 1544.94 Q1097.64 1549.52 1091.83 1549.52 Q1086.02 1549.52 1082.94 1544.94 Q1079.89 1540.33 1079.89 1531.6 Q1079.89 1522.85 1082.94 1518.27 Q1086.02 1513.66 1091.83 1513.66 Z" fill="#000000" fill-rule="nonzero" fill-opacity="1" /><path clip-path="url(#clip790)" d="M1406.75 1544.91 L1414.39 1544.91 L1414.39 1518.55 L1406.08 1520.21 L1406.08 1515.95 L1414.35 1514.29 L1419.02 1514.29 L1419.02 1544.91 L1426.66 1544.91 L1426.66 1548.85 L1406.75 1548.85 L1406.75 1544.91 Z" fill="#000000" fill-rule="nonzero" fill-opacity="1" /><path clip-path="url(#clip790)" d="M1436.15 1514.29 L1454.51 1514.29 L1454.51 1518.22 L1440.43 1518.22 L1440.43 1526.7 Q1441.45 1526.35 1442.47 1526.19 Q1443.49 1526 1444.51 1526 Q1450.3 1526 1453.67 1529.17 Q1457.05 1532.34 1457.05 1537.76 Q1457.05 1543.34 1453.58 1546.44 Q1450.11 1549.52 1443.79 1549.52 Q1441.61 1549.52 1439.35 1549.15 Q1437.1 1548.78 1434.69 1548.04 L1434.69 1543.34 Q1436.78 1544.47 1439 1545.03 Q1441.22 1545.58 1443.7 1545.58 Q1447.7 1545.58 1450.04 1543.48 Q1452.38 1541.37 1452.38 1537.76 Q1452.38 1534.15 1450.04 1532.04 Q1447.7 1529.94 1443.7 1529.94 Q1441.82 1529.94 1439.95 1530.35 Q1438.1 1530.77 1436.15 1531.65 L1436.15 1514.29 Z" fill="#000000" fill-rule="nonzero" fill-opacity="1" /><path clip-path="url(#clip790)" d="M1476.27 1517.37 Q1472.66 1517.37 1470.83 1520.93 Q1469.02 1524.47 1469.02 1531.6 Q1469.02 1538.71 1470.83 1542.27 Q1472.66 1545.82 1476.27 1545.82 Q1479.9 1545.82 1481.71 1542.27 Q1483.54 1538.71 1483.54 1531.6 Q1483.54 1524.47 1481.71 1520.93 Q1479.9 1517.37 1476.27 1517.37 M1476.27 1513.66 Q1482.08 1513.66 1485.13 1518.27 Q1488.21 1522.85 1488.21 1531.6 Q1488.21 1540.33 1485.13 1544.94 Q1482.08 1549.52 1476.27 1549.52 Q1470.46 1549.52 1467.38 1544.94 Q1464.32 1540.33 1464.32 1531.6 Q1464.32 1522.85 1467.38 1518.27 Q1470.46 1513.66 1476.27 1513.66 Z" fill="#000000" fill-rule="nonzero" fill-opacity="1" /><path clip-path="url(#clip790)" d="M1506.43 1517.37 Q1502.82 1517.37 1500.99 1520.93 Q1499.18 1524.47 1499.18 1531.6 Q1499.18 1538.71 1500.99 1542.27 Q1502.82 1545.82 1506.43 1545.82 Q1510.06 1545.82 1511.87 1542.27 Q1513.7 1538.71 1513.7 1531.6 Q1513.7 1524.47 1511.87 1520.93 Q1510.06 1517.37 1506.43 1517.37 M1506.43 1513.66 Q1512.24 1513.66 1515.29 1518.27 Q1518.37 1522.85 1518.37 1531.6 Q1518.37 1540.33 1515.29 1544.94 Q1512.24 1549.52 1506.43 1549.52 Q1500.62 1549.52 1497.54 1544.94 Q1494.48 1540.33 1494.48 1531.6 Q1494.48 1522.85 1497.54 1518.27 Q1500.62 1513.66 1506.43 1513.66 Z" fill="#000000" fill-rule="nonzero" fill-opacity="1" /><path clip-path="url(#clip790)" d="M1825.44 1544.91 L1841.75 1544.91 L1841.75 1548.85 L1819.81 1548.85 L1819.81 1544.91 Q1822.47 1542.16 1827.06 1537.53 Q1831.66 1532.88 1832.84 1531.53 Q1835.09 1529.01 1835.97 1527.27 Q1836.87 1525.51 1836.87 1523.82 Q1836.87 1521.07 1834.93 1519.33 Q1833 1517.6 1829.9 1517.6 Q1827.7 1517.6 1825.25 1518.36 Q1822.82 1519.13 1820.04 1520.68 L1820.04 1515.95 Q1822.87 1514.82 1825.32 1514.24 Q1827.77 1513.66 1829.81 1513.66 Q1835.18 1513.66 1838.38 1516.35 Q1841.57 1519.03 1841.57 1523.52 Q1841.57 1525.65 1840.76 1527.57 Q1839.97 1529.47 1837.87 1532.07 Q1837.29 1532.74 1834.19 1535.95 Q1831.08 1539.15 1825.44 1544.91 Z" fill="#000000" fill-rule="nonzero" fill-opacity="1" /><path clip-path="url(#clip790)" d="M1861.57 1517.37 Q1857.96 1517.37 1856.13 1520.93 Q1854.32 1524.47 1854.32 1531.6 Q1854.32 1538.71 1856.13 1542.27 Q1857.96 1545.82 1861.57 1545.82 Q1865.2 1545.82 1867.01 1542.27 Q1868.84 1538.71 1868.84 1531.6 Q1868.84 1524.47 1867.01 1520.93 Q1865.2 1517.37 1861.57 1517.37 M1861.57 1513.66 Q1867.38 1513.66 1870.44 1518.27 Q1873.51 1522.85 1873.51 1531.6 Q1873.51 1540.33 1870.44 1544.94 Q1867.38 1549.52 1861.57 1549.52 Q1855.76 1549.52 1852.68 1544.94 Q1849.63 1540.33 1849.63 1531.6 Q1849.63 1522.85 1852.68 1518.27 Q1855.76 1513.66 1861.57 1513.66 Z" fill="#000000" fill-rule="nonzero" fill-opacity="1" /><path clip-path="url(#clip790)" d="M1891.73 1517.37 Q1888.12 1517.37 1886.29 1520.93 Q1884.49 1524.47 1884.49 1531.6 Q1884.49 1538.71 1886.29 1542.27 Q1888.12 1545.82 1891.73 1545.82 Q1895.37 1545.82 1897.17 1542.27 Q1899 1538.71 1899 1531.6 Q1899 1524.47 1897.17 1520.93 Q1895.37 1517.37 1891.73 1517.37 M1891.73 1513.66 Q1897.54 1513.66 1900.6 1518.27 Q1903.68 1522.85 1903.68 1531.6 Q1903.68 1540.33 1900.6 1544.94 Q1897.54 1549.52 1891.73 1549.52 Q1885.92 1549.52 1882.84 1544.94 Q1879.79 1540.33 1879.79 1531.6 Q1879.79 1522.85 1882.84 1518.27 Q1885.92 1513.66 1891.73 1513.66 Z" fill="#000000" fill-rule="nonzero" fill-opacity="1" /><path clip-path="url(#clip790)" d="M1921.89 1517.37 Q1918.28 1517.37 1916.45 1520.93 Q1914.65 1524.47 1914.65 1531.6 Q1914.65 1538.71 1916.45 1542.27 Q1918.28 1545.82 1921.89 1545.82 Q1925.53 1545.82 1927.33 1542.27 Q1929.16 1538.71 1929.16 1531.6 Q1929.16 1524.47 1927.33 1520.93 Q1925.53 1517.37 1921.89 1517.37 M1921.89 1513.66 Q1927.7 1513.66 1930.76 1518.27 Q1933.84 1522.85 1933.84 1531.6 Q1933.84 1540.33 1930.76 1544.94 Q1927.7 1549.52 1921.89 1549.52 Q1916.08 1549.52 1913 1544.94 Q1909.95 1540.33 1909.95 1531.6 Q1909.95 1522.85 1913 1518.27 Q1916.08 1513.66 1921.89 1513.66 Z" fill="#000000" fill-rule="nonzero" fill-opacity="1" /><path clip-path="url(#clip790)" d="M2240.03 1544.91 L2256.35 1544.91 L2256.35 1548.85 L2234.41 1548.85 L2234.41 1544.91 Q2237.07 1542.16 2241.65 1537.53 Q2246.26 1532.88 2247.44 1531.53 Q2249.68 1529.01 2250.56 1527.27 Q2251.47 1525.51 2251.47 1523.82 Q2251.47 1521.07 2249.52 1519.33 Q2247.6 1517.6 2244.5 1517.6 Q2242.3 1517.6 2239.85 1518.36 Q2237.42 1519.13 2234.64 1520.68 L2234.64 1515.95 Q2237.46 1514.82 2239.92 1514.24 Q2242.37 1513.66 2244.41 1513.66 Q2249.78 1513.66 2252.97 1516.35 Q2256.17 1519.03 2256.17 1523.52 Q2256.17 1525.65 2255.36 1527.57 Q2254.57 1529.47 2252.46 1532.07 Q2251.88 1532.74 2248.78 1535.95 Q2245.68 1539.15 2240.03 1544.91 Z" fill="#000000" fill-rule="nonzero" fill-opacity="1" /><path clip-path="url(#clip790)" d="M2266.21 1514.29 L2284.57 1514.29 L2284.57 1518.22 L2270.49 1518.22 L2270.49 1526.7 Q2271.51 1526.35 2272.53 1526.19 Q2273.55 1526 2274.57 1526 Q2280.36 1526 2283.74 1529.17 Q2287.11 1532.34 2287.11 1537.76 Q2287.11 1543.34 2283.64 1546.44 Q2280.17 1549.52 2273.85 1549.52 Q2271.68 1549.52 2269.41 1549.15 Q2267.16 1548.78 2264.75 1548.04 L2264.75 1543.34 Q2266.84 1544.47 2269.06 1545.03 Q2271.28 1545.58 2273.76 1545.58 Q2277.76 1545.58 2280.1 1543.48 Q2282.44 1541.37 2282.44 1537.76 Q2282.44 1534.15 2280.1 1532.04 Q2277.76 1529.94 2273.76 1529.94 Q2271.88 1529.94 2270.01 1530.35 Q2268.16 1530.77 2266.21 1531.65 L2266.21 1514.29 Z" fill="#000000" fill-rule="nonzero" fill-opacity="1" /><path clip-path="url(#clip790)" d="M2306.33 1517.37 Q2302.72 1517.37 2300.89 1520.93 Q2299.08 1524.47 2299.08 1531.6 Q2299.08 1538.71 2300.89 1542.27 Q2302.72 1545.82 2306.33 1545.82 Q2309.96 1545.82 2311.77 1542.27 Q2313.6 1538.71 2313.6 1531.6 Q2313.6 1524.47 2311.77 1520.93 Q2309.96 1517.37 2306.33 1517.37 M2306.33 1513.66 Q2312.14 1513.66 2315.19 1518.27 Q2318.27 1522.85 2318.27 1531.6 Q2318.27 1540.33 2315.19 1544.94 Q2312.14 1549.52 2306.33 1549.52 Q2300.52 1549.52 2297.44 1544.94 Q2294.38 1540.33 2294.38 1531.6 Q2294.38 1522.85 2297.44 1518.27 Q2300.52 1513.66 2306.33 1513.66 Z" fill="#000000" fill-rule="nonzero" fill-opacity="1" /><path clip-path="url(#clip790)" d="M2336.49 1517.37 Q2332.88 1517.37 2331.05 1520.93 Q2329.24 1524.47 2329.24 1531.6 Q2329.24 1538.71 2331.05 1542.27 Q2332.88 1545.82 2336.49 1545.82 Q2340.12 1545.82 2341.93 1542.27 Q2343.76 1538.71 2343.76 1531.6 Q2343.76 1524.47 2341.93 1520.93 Q2340.12 1517.37 2336.49 1517.37 M2336.49 1513.66 Q2342.3 1513.66 2345.36 1518.27 Q2348.43 1522.85 2348.43 1531.6 Q2348.43 1540.33 2345.36 1544.94 Q2342.3 1549.52 2336.49 1549.52 Q2330.68 1549.52 2327.6 1544.94 Q2324.55 1540.33 2324.55 1531.6 Q2324.55 1522.85 2327.6 1518.27 Q2330.68 1513.66 2336.49 1513.66 Z" fill="#000000" fill-rule="nonzero" fill-opacity="1" /><polyline clip-path="url(#clip792)" style="stroke:#000000; stroke-linecap:round; stroke-linejoin:round; stroke-width:2; stroke-opacity:0.1; fill:none" points="156.274,1460.79 2352.76,1460.79 "/>
<polyline clip-path="url(#clip792)" style="stroke:#000000; stroke-linecap:round; stroke-linejoin:round; stroke-width:2; stroke-opacity:0.1; fill:none" points="156.274,1104.42 2352.76,1104.42 "/>
<polyline clip-path="url(#clip792)" style="stroke:#000000; stroke-linecap:round; stroke-linejoin:round; stroke-width:2; stroke-opacity:0.1; fill:none" points="156.274,748.05 2352.76,748.05 "/>
<polyline clip-path="url(#clip792)" style="stroke:#000000; stroke-linecap:round; stroke-linejoin:round; stroke-width:2; stroke-opacity:0.1; fill:none" points="156.274,391.68 2352.76,391.68 "/>
<polyline clip-path="url(#clip790)" style="stroke:#000000; stroke-linecap:round; stroke-linejoin:round; stroke-width:4; stroke-opacity:1; fill:none" points="156.274,1486.45 156.274,47.2441 "/>
<polyline clip-path="url(#clip790)" style="stroke:#000000; stroke-linecap:round; stroke-linejoin:round; stroke-width:4; stroke-opacity:1; fill:none" points="156.274,1460.79 175.172,1460.79 "/>
<polyline clip-path="url(#clip790)" style="stroke:#000000; stroke-linecap:round; stroke-linejoin:round; stroke-width:4; stroke-opacity:1; fill:none" points="156.274,1104.42 175.172,1104.42 "/>
<polyline clip-path="url(#clip790)" style="stroke:#000000; stroke-linecap:round; stroke-linejoin:round; stroke-width:4; stroke-opacity:1; fill:none" points="156.274,748.05 175.172,748.05 "/>
<polyline clip-path="url(#clip790)" style="stroke:#000000; stroke-linecap:round; stroke-linejoin:round; stroke-width:4; stroke-opacity:1; fill:none" points="156.274,391.68 175.172,391.68 "/>
<path clip-path="url(#clip790)" d="M62.9365 1446.59 Q59.3254 1446.59 57.4967 1450.15 Q55.6912 1453.69 55.6912 1460.82 Q55.6912 1467.93 57.4967 1471.49 Q59.3254 1475.04 62.9365 1475.04 Q66.5707 1475.04 68.3763 1471.49 Q70.205 1467.93 70.205 1460.82 Q70.205 1453.69 68.3763 1450.15 Q66.5707 1446.59 62.9365 1446.59 M62.9365 1442.88 Q68.7467 1442.88 71.8022 1447.49 Q74.8809 1452.07 74.8809 1460.82 Q74.8809 1469.55 71.8022 1474.16 Q68.7467 1478.74 62.9365 1478.74 Q57.1264 1478.74 54.0477 1474.16 Q50.9921 1469.55 50.9921 1460.82 Q50.9921 1452.07 54.0477 1447.49 Q57.1264 1442.88 62.9365 1442.88 Z" fill="#000000" fill-rule="nonzero" fill-opacity="1" /><path clip-path="url(#clip790)" d="M83.0984 1472.19 L87.9827 1472.19 L87.9827 1478.07 L83.0984 1478.07 L83.0984 1472.19 Z" fill="#000000" fill-rule="nonzero" fill-opacity="1" /><path clip-path="url(#clip790)" d="M108.746 1458.93 Q105.598 1458.93 103.746 1461.08 Q101.918 1463.23 101.918 1466.98 Q101.918 1470.71 103.746 1472.88 Q105.598 1475.04 108.746 1475.04 Q111.895 1475.04 113.723 1472.88 Q115.575 1470.71 115.575 1466.98 Q115.575 1463.23 113.723 1461.08 Q111.895 1458.93 108.746 1458.93 M118.029 1444.27 L118.029 1448.53 Q116.27 1447.7 114.464 1447.26 Q112.682 1446.82 110.922 1446.82 Q106.293 1446.82 103.839 1449.94 Q101.409 1453.07 101.061 1459.39 Q102.427 1457.37 104.487 1456.31 Q106.547 1455.22 109.024 1455.22 Q114.233 1455.22 117.242 1458.39 Q120.274 1461.54 120.274 1466.98 Q120.274 1472.3 117.126 1475.52 Q113.978 1478.74 108.746 1478.74 Q102.751 1478.74 99.5798 1474.16 Q96.4085 1469.55 96.4085 1460.82 Q96.4085 1452.63 100.297 1447.77 Q104.186 1442.88 110.737 1442.88 Q112.496 1442.88 114.279 1443.23 Q116.084 1443.58 118.029 1444.27 Z" fill="#000000" fill-rule="nonzero" fill-opacity="1" /><path clip-path="url(#clip790)" d="M64.0013 1090.22 Q60.3902 1090.22 58.5615 1093.78 Q56.756 1097.32 56.756 1104.45 Q56.756 1111.56 58.5615 1115.13 Q60.3902 1118.67 64.0013 1118.67 Q67.6356 1118.67 69.4411 1115.13 Q71.2698 1111.56 71.2698 1104.45 Q71.2698 1097.32 69.4411 1093.78 Q67.6356 1090.22 64.0013 1090.22 M64.0013 1086.51 Q69.8115 1086.51 72.867 1091.12 Q75.9457 1095.7 75.9457 1104.45 Q75.9457 1113.18 72.867 1117.79 Q69.8115 1122.37 64.0013 1122.37 Q58.1912 1122.37 55.1125 1117.79 Q52.0569 1113.18 52.0569 1104.45 Q52.0569 1095.7 55.1125 1091.12 Q58.1912 1086.51 64.0013 1086.51 Z" fill="#000000" fill-rule="nonzero" fill-opacity="1" /><path clip-path="url(#clip790)" d="M84.1632 1115.82 L89.0475 1115.82 L89.0475 1121.7 L84.1632 1121.7 L84.1632 1115.82 Z" fill="#000000" fill-rule="nonzero" fill-opacity="1" /><path clip-path="url(#clip790)" d="M98.0521 1087.14 L120.274 1087.14 L120.274 1089.13 L107.728 1121.7 L102.844 1121.7 L114.649 1091.07 L98.0521 1091.07 L98.0521 1087.14 Z" fill="#000000" fill-rule="nonzero" fill-opacity="1" /><path clip-path="url(#clip790)" d="M63.1911 733.848 Q59.58 733.848 57.7513 737.413 Q55.9458 740.955 55.9458 748.085 Q55.9458 755.191 57.7513 758.756 Q59.58 762.297 63.1911 762.297 Q66.8254 762.297 68.6309 758.756 Q70.4596 755.191 70.4596 748.085 Q70.4596 740.955 68.6309 737.413 Q66.8254 733.848 63.1911 733.848 M63.1911 730.145 Q69.0013 730.145 72.0568 734.751 Q75.1355 739.335 75.1355 748.085 Q75.1355 756.811 72.0568 761.418 Q69.0013 766.001 63.1911 766.001 Q57.381 766.001 54.3023 761.418 Q51.2468 756.811 51.2468 748.085 Q51.2468 739.335 54.3023 734.751 Q57.381 730.145 63.1911 730.145 Z" fill="#000000" fill-rule="nonzero" fill-opacity="1" /><path clip-path="url(#clip790)" d="M83.3531 759.45 L88.2373 759.45 L88.2373 765.33 L83.3531 765.33 L83.3531 759.45 Z" fill="#000000" fill-rule="nonzero" fill-opacity="1" /><path clip-path="url(#clip790)" d="M108.422 748.918 Q105.089 748.918 103.168 750.7 Q101.27 752.483 101.27 755.608 Q101.27 758.733 103.168 760.515 Q105.089 762.297 108.422 762.297 Q111.756 762.297 113.677 760.515 Q115.598 758.709 115.598 755.608 Q115.598 752.483 113.677 750.7 Q111.779 748.918 108.422 748.918 M103.746 746.927 Q100.737 746.186 99.0474 744.126 Q97.3808 742.066 97.3808 739.103 Q97.3808 734.96 100.321 732.552 Q103.284 730.145 108.422 730.145 Q113.584 730.145 116.524 732.552 Q119.464 734.96 119.464 739.103 Q119.464 742.066 117.774 744.126 Q116.108 746.186 113.121 746.927 Q116.501 747.714 118.376 750.006 Q120.274 752.297 120.274 755.608 Q120.274 760.631 117.195 763.316 Q114.14 766.001 108.422 766.001 Q102.705 766.001 99.6261 763.316 Q96.5706 760.631 96.5706 755.608 Q96.5706 752.297 98.4687 750.006 Q100.367 747.714 103.746 746.927 M102.034 739.543 Q102.034 742.228 103.7 743.733 Q105.39 745.237 108.422 745.237 Q111.432 745.237 113.121 743.733 Q114.834 742.228 114.834 739.543 Q114.834 736.858 113.121 735.353 Q111.432 733.848 108.422 733.848 Q105.39 733.848 103.7 735.353 Q102.034 736.858 102.034 739.543 Z" fill="#000000" fill-rule="nonzero" fill-opacity="1" /><path clip-path="url(#clip790)" d="M63.2837 377.479 Q59.6726 377.479 57.8439 381.044 Q56.0384 384.585 56.0384 391.715 Q56.0384 398.821 57.8439 402.386 Q59.6726 405.928 63.2837 405.928 Q66.918 405.928 68.7235 402.386 Q70.5522 398.821 70.5522 391.715 Q70.5522 384.585 68.7235 381.044 Q66.918 377.479 63.2837 377.479 M63.2837 373.775 Q69.0939 373.775 72.1494 378.382 Q75.2281 382.965 75.2281 391.715 Q75.2281 400.442 72.1494 405.048 Q69.0939 409.632 63.2837 409.632 Q57.4736 409.632 54.3949 405.048 Q51.3393 400.442 51.3393 391.715 Q51.3393 382.965 54.3949 378.382 Q57.4736 373.775 63.2837 373.775 Z" fill="#000000" fill-rule="nonzero" fill-opacity="1" /><path clip-path="url(#clip790)" d="M83.4457 403.081 L88.3299 403.081 L88.3299 408.96 L83.4457 408.96 L83.4457 403.081 Z" fill="#000000" fill-rule="nonzero" fill-opacity="1" /><path clip-path="url(#clip790)" d="M98.6539 408.243 L98.6539 403.983 Q100.413 404.817 102.219 405.257 Q104.024 405.696 105.76 405.696 Q110.39 405.696 112.82 402.595 Q115.274 399.47 115.621 393.127 Q114.279 395.118 112.219 396.183 Q110.158 397.247 107.658 397.247 Q102.473 397.247 99.4409 394.122 Q96.4317 390.974 96.4317 385.535 Q96.4317 380.21 99.5798 376.993 Q102.728 373.775 107.959 373.775 Q113.955 373.775 117.103 378.382 Q120.274 382.965 120.274 391.715 Q120.274 399.886 116.385 404.771 Q112.52 409.632 105.969 409.632 Q104.209 409.632 102.404 409.284 Q100.598 408.937 98.6539 408.243 M107.959 393.59 Q111.108 393.59 112.936 391.437 Q114.788 389.284 114.788 385.535 Q114.788 381.808 112.936 379.655 Q111.108 377.479 107.959 377.479 Q104.811 377.479 102.959 379.655 Q101.131 381.808 101.131 385.535 Q101.131 389.284 102.959 391.437 Q104.811 393.59 107.959 393.59 Z" fill="#000000" fill-rule="nonzero" fill-opacity="1" /><polyline clip-path="url(#clip792)" style="stroke:#009af9; stroke-linecap:round; stroke-linejoin:round; stroke-width:4; stroke-opacity:1; fill:none" points="218.439,1223.21 219.268,1412.69 220.097,1321.88 220.926,1350.62 221.756,1254.47 222.585,1254.47 223.414,1089.36 224.243,1246.73 225.072,1307.24 225.901,1277.38 226.731,1307.24 227.56,1158.12 228.389,1182.94 229.218,1445.72 230.047,1199.21 230.877,1106.91 231.706,1191.1 232.535,1350.62 233.364,1399.19 234.193,1357.69 235.023,1246.73 235.852,1321.88 236.681,1223.21 237.51,1412.69 238.339,1199.21 239.169,1439.19 239.998,1089.36 240.827,1350.62 241.656,1207.26 242.485,1399.19 243.315,1321.88 244.144,1141.29 244.973,1343.5 245.802,1262.16 246.631,1238.94 247.46,1277.38 248.29,1124.22 249.119,1132.78 249.948,1262.16 250.777,1299.85 251.606,1223.21 252.436,1269.79 253.265,1269.79 254.094,1269.79 254.923,1254.47 255.752,1223.21 256.582,1364.71 257.411,1215.26 258.24,1132.78 259.069,1299.85 259.898,1231.1 260.728,1080.49 261.557,1277.38 262.386,1132.78 263.215,1223.21 264.044,1292.41 264.874,1321.88 265.703,1223.21 266.532,1182.94 267.361,1238.94 268.19,1254.47 269.019,1132.78 269.849,1299.85 270.678,1223.21 271.507,1191.1 272.336,1223.21 273.165,1071.56 273.995,1166.45 274.824,1106.91 275.653,1025.94 276.482,1371.7 277.311,1132.78 278.141,1089.36 278.97,1321.88 279.799,1269.79 280.628,1115.59 281.457,1071.56 282.287,1231.1 283.116,1124.22 283.945,1262.16 284.774,1215.26 285.603,1071.56 286.433,1166.45 287.262,1191.1 288.091,1223.21 288.92,1238.94 289.749,1106.91 290.579,1174.72 291.408,1246.73 292.237,1089.36 293.066,1364.71 293.895,1314.59 294.724,1149.73 295.554,1269.79 296.383,1044.39 297.212,1277.38 298.041,1124.22 298.87,1238.94 299.7,1098.17 300.529,1174.72 301.358,1166.45 302.187,1166.45 303.016,1307.24 303.846,1007.23 304.675,1124.22 305.504,1199.21 306.333,1231.1 307.162,997.769 307.992,1191.1 308.821,1106.91 309.65,1089.36 310.479,1141.29 311.308,1080.49 312.138,1149.73 312.967,1007.23 313.796,1062.57 314.625,1115.59 315.454,1115.59 316.283,1191.1 317.113,1191.1 317.942,1246.73 318.771,1053.51 319.6,968.973 320.429,1025.94 321.259,1016.62 322.088,1199.21 322.917,1062.57 323.746,1254.47 324.575,1053.51 325.405,959.232 326.234,968.973 327.063,1098.17 327.892,1207.26 328.721,1166.45 329.551,1158.12 330.38,1141.29 331.209,1007.23 332.038,1071.56 332.867,1166.45 333.697,1174.72 334.526,868.205 335.355,1080.49 336.184,1124.22 337.013,1132.78 337.842,1149.73 338.672,1098.17 339.501,1053.51 340.33,1207.26 341.159,899.237 341.988,1007.23 342.818,1089.36 343.647,1132.78 344.476,997.769 345.305,1035.2 346.134,1231.1 346.964,1007.23 347.793,1098.17 348.622,959.232 349.451,929.571 350.28,1106.91 351.11,1025.94 351.939,1044.39 352.768,959.232 353.597,1062.57 354.426,1124.22 355.256,1007.23 356.085,1115.59 356.914,919.536 357.743,1284.92 358.572,997.769 359.402,1053.51 360.231,1166.45 361.06,919.536 361.889,929.571 362.718,997.769 363.547,1141.29 364.377,1115.59 365.206,1044.39 366.035,1254.47 366.864,978.642 367.693,1035.2 368.523,888.972 369.352,836.452 370.181,1062.57 371.01,929.571 371.839,959.232 372.669,1124.22 373.498,939.532 374.327,997.769 375.156,1182.94 375.985,929.571 376.815,949.418 377.644,1098.17 378.473,939.532 379.302,1007.23 380.131,919.536 380.961,1016.62 381.79,959.232 382.619,748.05 383.448,857.702 384.277,1053.51 385.106,736.6 385.936,1106.91 386.765,1025.94 387.594,939.532 388.423,1062.57 389.252,1098.17 390.082,1089.36 390.911,919.536 391.74,857.702 392.569,825.702 393.398,949.418 394.228,1044.39 395.057,1080.49 395.886,968.973 396.715,1016.62 397.544,888.972 398.374,997.769 399.203,1115.59 400.032,968.973 400.861,919.536 401.69,1080.49 402.52,736.6 403.349,909.425 404.178,978.642 405.007,868.205 405.836,803.951 406.665,997.769 407.495,1016.62 408.324,1035.2 409.153,878.628 409.982,959.232 410.811,899.237 411.641,988.24 412.47,847.118 413.299,759.408 414.128,988.24 414.957,949.418 415.787,919.536 416.616,939.532 417.445,888.972 418.274,836.452 419.103,725.058 419.933,748.05 420.762,888.972 421.591,878.628 422.42,770.676 423.249,803.951 424.079,677.944 424.908,1098.17 425.737,968.973 426.566,997.769 427.395,978.642 428.224,1016.62 429.054,899.237 429.883,997.769 430.712,978.642 431.541,803.951 432.37,939.532 433.2,689.867 434.029,929.571 434.858,847.118 435.687,857.702 436.516,949.418 437.346,1080.49 438.175,868.205 439.004,929.571 439.833,1007.23 440.662,949.418 441.492,878.628 442.321,857.702 443.15,909.425 443.979,701.693 444.808,988.24 445.638,736.6 446.467,929.571 447.296,909.425 448.125,792.947 448.954,677.944 449.784,725.058 450.613,978.642 451.442,759.408 452.271,857.702 453.1,959.232 453.929,968.973 454.759,736.6 455.588,899.237 456.417,857.702 457.246,814.869 458.075,1007.23 458.905,1062.57 459.734,939.532 460.563,836.452 461.392,814.869 462.221,888.972 463.051,939.532 463.88,857.702 464.709,713.423 465.538,759.408 466.367,825.702 467.197,725.058 468.026,847.118 468.855,803.951 469.684,939.532 470.513,713.423 471.343,803.951 472.172,949.418 473.001,781.856 473.83,781.856 474.659,888.972 475.488,770.676 476.318,825.702 477.147,836.452 477.976,857.702 478.805,677.944 479.634,899.237 480.464,868.205 481.293,978.642 482.122,825.702 482.951,868.205 483.78,847.118 484.61,770.676 485.439,836.452 486.268,616.834 487.097,988.24 487.926,836.452 488.756,868.205 489.585,591.668 490.414,701.693 491.243,899.237 492.072,909.425 492.902,899.237 493.731,792.947 494.56,736.6 495.389,725.058 496.218,968.973 497.047,725.058 497.877,713.423 498.706,770.676 499.535,868.205 500.364,748.05 501.193,713.423 502.023,641.583 502.852,701.693 503.681,689.867 504.51,748.05 505.339,770.676 506.169,641.583 506.998,968.973 507.827,847.118 508.656,919.536 509.485,792.947 510.315,836.452 511.144,847.118 511.973,803.951 512.802,629.26 513.631,759.408 514.461,540.04 515.29,759.408 516.119,701.693 516.948,803.951 517.777,616.834 518.607,781.856 519.436,736.6 520.265,578.925 521.094,868.205 521.923,814.869 522.752,836.452 523.582,919.536 524.411,713.423 525.24,701.693 526.069,814.869 526.898,689.867 527.728,847.118 528.557,857.702 529.386,653.803 530.215,857.702 531.044,781.856 531.874,701.693 532.703,604.304 533.532,814.869 534.361,629.26 535.19,616.834 536.02,899.237 536.849,641.583 537.678,653.803 538.507,629.26 539.336,759.408 540.166,701.693 540.995,665.923 541.824,857.702 542.653,629.26 543.482,701.693 544.311,677.944 545.141,641.583 545.97,553.113 546.799,725.058 547.628,770.676 548.457,770.676 549.287,616.834 550.116,713.423 550.945,770.676 551.774,629.26 552.603,701.693 553.433,736.6 554.262,759.408 555.091,759.408 555.92,713.423 556.749,526.855 557.579,526.855 558.408,725.058 559.237,677.944 560.066,689.867 560.895,604.304 561.725,641.583 562.554,748.05 563.383,825.702 564.212,641.583 565.041,665.923 565.87,878.628 566.7,689.867 567.529,736.6 568.358,665.923 569.187,725.058 570.016,781.856 570.846,689.867 571.675,616.834 572.504,713.423 573.333,677.944 574.162,725.058 574.992,701.693 575.821,748.05 576.65,713.423 577.479,689.867 578.308,677.944 579.138,629.26 579.967,641.583 580.796,701.693 581.625,781.856 582.454,591.668 583.284,616.834 584.113,736.6 584.942,929.571 585.771,641.583 586.6,641.583 587.429,725.058 588.259,689.867 589.088,701.693 589.917,701.693 590.746,701.693 591.575,629.26 592.405,736.6 593.234,604.304 594.063,665.923 594.892,653.803 595.721,459.186 596.551,553.113 597.38,641.583 598.209,445.293 599.038,713.423 599.867,803.951 600.697,713.423 601.526,566.074 602.355,689.867 603.184,591.668 604.013,641.583 604.843,566.074 605.672,641.583 606.501,803.951 607.33,566.074 608.159,540.04 608.989,604.304 609.818,689.867 610.647,759.408 611.476,641.583 612.305,566.074 613.134,500.141 613.964,616.834 614.793,616.834 615.622,665.923 616.451,591.668 617.28,725.058 618.11,629.26 618.939,653.803 619.768,500.141 620.597,736.6 621.426,540.04 622.256,689.867 623.085,759.408 623.914,677.944 624.743,701.693 625.572,653.803 626.402,725.058 627.231,825.702 628.06,591.668 628.889,459.186 629.718,689.867 630.548,604.304 631.377,653.803 632.206,803.951 633.035,665.923 633.864,689.867 634.693,689.867 635.523,713.423 636.352,689.867 637.181,701.693 638.01,689.867 638.839,677.944 639.669,653.803 640.498,770.676 641.327,641.583 642.156,653.803 642.985,604.304 643.815,604.304 644.644,629.26 645.473,725.058 646.302,591.668 647.131,578.925 647.961,629.26 648.79,653.803 649.619,578.925 650.448,641.583 651.277,701.693 652.107,781.856 652.936,653.803 653.765,526.855 654.594,653.803 655.423,792.947 656.252,665.923 657.082,604.304 657.911,629.26 658.74,616.834 659.569,553.113 660.398,566.074 661.228,665.923 662.057,641.583 662.886,701.693 663.715,665.923 664.544,486.608 665.374,526.855 666.203,566.074 667.032,526.855 667.861,629.26 668.69,653.803 669.52,578.925 670.349,553.113 671.178,641.583 672.007,540.04 672.836,604.304 673.666,578.925 674.495,616.834 675.324,500.141 676.153,513.556 676.982,653.803 677.812,653.803 678.641,566.074 679.47,665.923 680.299,629.26 681.128,459.186 681.957,616.834 682.787,616.834 683.616,653.803 684.445,689.867 685.274,725.058 686.103,578.925 686.933,641.583 687.762,513.556 688.591,748.05 689.42,513.556 690.249,677.944 691.079,653.803 691.908,616.834 692.737,836.452 693.566,431.277 694.395,566.074 695.225,526.855 696.054,513.556 696.883,689.867 697.712,500.141 698.541,500.141 699.371,677.944 700.2,566.074 701.029,540.04 701.858,553.113 702.687,629.26 703.516,629.26 704.346,578.925 705.175,578.925 706.004,689.867 706.833,604.304 707.662,553.113 708.492,459.186 709.321,677.944 710.15,566.074 710.979,629.26 711.808,748.05 712.638,445.293 713.467,665.923 714.296,803.951 715.125,578.925 715.954,526.855 716.784,540.04 717.613,486.608 718.442,591.668 719.271,566.074 720.1,591.668 720.93,689.867 721.759,713.423 722.588,629.26 723.417,373.942 724.246,566.074 725.075,736.6 725.905,526.855 726.734,701.693 727.563,500.141 728.392,526.855 729.221,566.074 730.051,540.04 730.88,604.304 731.709,641.583 732.538,553.113 733.367,616.834 734.197,725.058 735.026,431.277 735.855,540.04 736.684,566.074 737.513,526.855 738.343,725.058 739.172,431.277 740.001,566.074 740.83,591.668 741.659,629.26 742.489,665.923 743.318,486.608 744.147,578.925 744.976,616.834 745.805,629.26 746.634,566.074 747.464,629.26 748.293,665.923 749.122,500.141 749.951,553.113 750.78,513.556 751.61,402.867 752.439,513.556 753.268,402.867 754.097,641.583 754.926,578.925 755.756,616.834 756.585,329.561 757.414,641.583 758.243,641.583 759.072,513.556 759.902,641.583 760.731,578.925 761.56,641.583 762.389,500.141 763.218,445.293 764.048,402.867 764.877,553.113 765.706,486.608 766.535,459.186 767.364,701.693 768.194,591.668 769.023,500.141 769.852,604.304 770.681,486.608 771.51,526.855 772.339,513.556 773.169,526.855 773.998,677.944 774.827,677.944 775.656,604.304 776.485,665.923 777.315,445.293 778.144,526.855 778.973,566.074 779.802,578.925 780.631,616.834 781.461,566.074 782.29,459.186 783.119,540.04 783.948,604.304 784.777,513.556 785.607,566.074 786.436,604.304 787.265,604.304 788.094,540.04 788.923,526.855 789.753,578.925 790.582,641.583 791.411,472.958 792.24,513.556 793.069,526.855 793.898,540.04 794.728,540.04 795.557,578.925 796.386,604.304 797.215,500.141 798.044,616.834 798.874,472.958 799.703,500.141 800.532,677.944 801.361,653.803 802.19,500.141 803.02,578.925 803.849,641.583 804.678,553.113 805.507,417.135 806.336,566.074 807.166,526.855 807.995,566.074 808.824,591.668 809.653,578.925 810.482,629.26 811.312,553.113 812.141,526.855 812.97,526.855 813.799,500.141 814.628,526.855 815.457,616.834 816.287,500.141 817.116,526.855 817.945,604.304 818.774,513.556 819.603,486.608 820.433,459.186 821.262,513.556 822.091,513.556 822.92,629.26 823.749,553.113 824.579,553.113 825.408,665.923 826.237,616.834 827.066,252.813 827.895,445.293 828.725,500.141 829.554,629.26 830.383,500.141 831.212,526.855 832.041,553.113 832.871,472.958 833.7,526.855 834.529,540.04 835.358,616.834 836.187,500.141 837.017,445.293 837.846,500.141 838.675,629.26 839.504,526.855 840.333,526.855 841.162,388.47 841.992,500.141 842.821,604.304 843.65,803.951 844.479,604.304 845.308,540.04 846.138,417.135 846.967,591.668 847.796,604.304 848.625,445.293 849.454,591.668 850.284,653.803 851.113,578.925 851.942,402.867 852.771,553.113 853.6,359.283 854.43,629.26 855.259,701.693 856.088,431.277 856.917,388.47 857.746,604.304 858.576,591.668 859.405,472.958 860.234,459.186 861.063,591.668 861.892,402.867 862.721,459.186 863.551,591.668 864.38,641.583 865.209,526.855 866.038,526.855 866.867,486.608 867.697,713.423 868.526,641.583 869.355,359.283 870.184,553.113 871.013,653.803 871.843,629.26 872.672,500.141 873.501,486.608 874.33,513.556 875.159,513.556 875.989,526.855 876.818,459.186 877.647,486.608 878.476,500.141 879.305,472.958 880.135,472.958 880.964,526.855 881.793,373.942 882.622,445.293 883.451,578.925 884.28,566.074 885.11,445.293 885.939,500.141 886.768,591.668 887.597,472.958 888.426,500.141 889.256,526.855 890.085,553.113 890.914,553.113 891.743,566.074 892.572,513.556 893.402,445.293 894.231,604.304 895.06,553.113 895.889,359.283 896.718,616.834 897.548,526.855 898.377,513.556 899.206,472.958 900.035,540.04 900.864,359.283 901.694,604.304 902.523,486.608 903.352,472.958 904.181,445.293 905.01,402.867 905.839,526.855 906.669,604.304 907.498,526.855 908.327,417.135 909.156,472.958 909.985,472.958 910.815,526.855 911.644,540.04 912.473,388.47 913.302,513.556 914.131,689.867 914.961,553.113 915.79,486.608 916.619,500.141 917.448,540.04 918.277,500.141 919.107,314.494 919.936,459.186 920.765,402.867 921.594,578.925 922.423,431.277 923.253,566.074 924.082,566.074 924.911,431.277 925.74,591.668 926.569,486.608 927.399,500.141 928.228,553.113 929.057,553.113 929.886,553.113 930.715,472.958 931.544,500.141 932.374,373.942 933.203,540.04 934.032,472.958 934.861,431.277 935.69,445.293 936.52,513.556 937.349,417.135 938.178,344.49 939.007,472.958 939.836,486.608 940.666,526.855 941.495,578.925 942.324,388.47 943.153,513.556 943.982,566.074 944.812,472.958 945.641,629.26 946.47,604.304 947.299,500.141 948.128,459.186 948.958,472.958 949.787,566.074 950.616,459.186 951.445,486.608 952.274,388.47 953.103,359.283 953.933,472.958 954.762,417.135 955.591,540.04 956.42,566.074 957.249,500.141 958.079,591.668 958.908,459.186 959.737,486.608 960.566,459.186 961.395,445.293 962.225,373.942 963.054,540.04 963.883,486.608 964.712,417.135 965.541,500.141 966.371,513.556 967.2,486.608 968.029,445.293 968.858,459.186 969.687,472.958 970.517,417.135 971.346,566.074 972.175,486.608 973.004,486.608 973.833,445.293 974.662,344.49 975.492,431.277 976.321,500.141 977.15,445.293 977.979,500.141 978.808,344.49 979.638,500.141 980.467,329.561 981.296,252.813 982.125,402.867 982.954,486.608 983.784,459.186 984.613,553.113 985.442,629.26 986.271,445.293 987.1,417.135 987.93,445.293 988.759,431.277 989.588,472.958 990.417,388.47 991.246,566.074 992.076,526.855 992.905,553.113 993.734,540.04 994.563,553.113 995.392,359.283 996.222,500.141 997.051,329.561 997.88,373.942 998.709,486.608 999.538,472.958 1000.37,299.288 1001.2,445.293 1002.03,566.074 1002.86,472.958 1003.68,486.608 1004.51,445.293 1005.34,553.113 1006.17,553.113 1007,431.277 1007.83,553.113 1008.66,431.277 1009.49,344.49 1010.32,513.556 1011.15,459.186 1011.98,540.04 1012.81,526.855 1013.63,578.925 1014.46,402.867 1015.29,388.47 1016.12,388.47 1016.95,500.141 1017.78,445.293 1018.61,526.855 1019.44,459.186 1020.27,591.668 1021.1,500.141 1021.93,388.47 1022.76,472.958 1023.58,591.668 1024.41,459.186 1025.24,314.494 1026.07,540.04 1026.9,566.074 1027.73,373.942 1028.56,500.141 1029.39,431.277 1030.22,459.186 1031.05,748.05 1031.88,486.608 1032.71,344.49 1033.54,359.283 1034.36,578.925 1035.19,417.135 1036.02,526.855 1036.85,553.113 1037.68,472.958 1038.51,500.141 1039.34,445.293 1040.17,373.942 1041,604.304 1041.83,629.26 1042.66,417.135 1043.49,566.074 1044.31,402.867 1045.14,314.494 1045.97,604.304 1046.8,459.186 1047.63,417.135 1048.46,459.186 1049.29,604.304 1050.12,344.49 1050.95,417.135 1051.78,459.186 1052.61,299.288 1053.44,299.288 1054.26,431.277 1055.09,329.561 1055.92,417.135 1056.75,445.293 1057.58,472.958 1058.41,526.855 1059.24,344.49 1060.07,513.556 1060.9,526.855 1061.73,566.074 1062.56,431.277 1063.39,431.277 1064.22,445.293 1065.04,500.141 1065.87,616.834 1066.7,445.293 1067.53,553.113 1068.36,329.561 1069.19,513.556 1070.02,402.867 1070.85,472.958 1071.68,373.942 1072.51,566.074 1073.34,402.867 1074.17,417.135 1074.99,553.113 1075.82,359.283 1076.65,359.283 1077.48,500.141 1078.31,299.288 1079.14,566.074 1079.97,500.141 1080.8,578.925 1081.63,445.293 1082.46,431.277 1083.29,329.561 1084.12,459.186 1084.95,431.277 1085.77,431.277 1086.6,344.49 1087.43,486.608 1088.26,431.277 1089.09,513.556 1089.92,417.135 1090.75,472.958 1091.58,513.556 1092.41,417.135 1093.24,472.958 1094.07,459.186 1094.9,314.494 1095.72,578.925 1096.55,344.49 1097.38,486.608 1098.21,205.011 1099.04,344.49 1099.87,486.608 1100.7,431.277 1101.53,252.813 1102.36,472.958 1103.19,344.49 1104.02,329.561 1104.85,459.186 1105.67,237.029 1106.5,578.925 1107.33,513.556 1108.16,445.293 1108.99,402.867 1109.82,445.293 1110.65,500.141 1111.48,373.942 1112.31,344.49 1113.14,417.135 1113.97,417.135 1114.8,417.135 1115.63,402.867 1116.45,417.135 1117.28,417.135 1118.11,553.113 1118.94,431.277 1119.77,604.304 1120.6,388.47 1121.43,472.958 1122.26,431.277 1123.09,526.855 1123.92,417.135 1124.75,459.186 1125.58,566.074 1126.4,402.867 1127.23,513.556 1128.06,373.942 1128.89,472.958 1129.72,513.556 1130.55,388.47 1131.38,500.141 1132.21,472.958 1133.04,344.49 1133.87,344.49 1134.7,431.277 1135.53,314.494 1136.36,431.277 1137.18,329.561 1138.01,513.556 1138.84,283.941 1139.67,402.867 1140.5,431.277 1141.33,344.49 1142.16,540.04 1142.99,431.277 1143.82,513.556 1144.65,283.941 1145.48,329.561 1146.31,373.942 1147.13,417.135 1147.96,486.608 1148.79,299.288 1149.62,329.561 1150.45,472.958 1151.28,283.941 1152.11,402.867 1152.94,388.47 1153.77,431.277 1154.6,417.135 1155.43,500.141 1156.26,402.867 1157.08,459.186 1157.91,402.867 1158.74,445.293 1159.57,314.494 1160.4,283.941 1161.23,431.277 1162.06,402.867 1162.89,513.556 1163.72,373.942 1164.55,344.49 1165.38,431.277 1166.21,344.49 1167.04,486.608 1167.86,459.186 1168.69,373.942 1169.52,359.283 1170.35,388.47 1171.18,417.135 1172.01,283.941 1172.84,373.942 1173.67,500.141 1174.5,472.958 1175.33,540.04 1176.16,445.293 1176.99,513.556 1177.81,314.494 1178.64,513.556 1179.47,513.556 1180.3,417.135 1181.13,373.942 1181.96,417.135 1182.79,459.186 1183.62,417.135 1184.45,373.942 1185.28,359.283 1186.11,388.47 1186.94,513.556 1187.77,417.135 1188.59,329.561 1189.42,486.608 1190.25,445.293 1191.08,314.494 1191.91,373.942 1192.74,314.494 1193.57,431.277 1194.4,431.277 1195.23,417.135 1196.06,459.186 1196.89,373.942 1197.72,344.49 1198.54,513.556 1199.37,388.47 1200.2,402.867 1201.03,373.942 1201.86,314.494 1202.69,500.141 1203.52,459.186 1204.35,373.942 1205.18,540.04 1206.01,445.293 1206.84,445.293 1207.67,445.293 1208.49,402.867 1209.32,359.283 1210.15,299.288 1210.98,299.288 1211.81,314.494 1212.64,445.293 1213.47,417.135 1214.3,417.135 1215.13,486.608 1215.96,283.941 1216.79,314.494 1217.62,344.49 1218.45,472.958 1219.27,472.958 1220.1,388.47 1220.93,373.942 1221.76,431.277 1222.59,445.293 1223.42,445.293 1224.25,402.867 1225.08,388.47 1225.91,431.277 1226.74,373.942 1227.57,359.283 1228.4,344.49 1229.22,359.283 1230.05,314.494 1230.88,388.47 1231.71,373.942 1232.54,268.45 1233.37,299.288 1234.2,344.49 1235.03,417.135 1235.86,500.141 1236.69,431.277 1237.52,373.942 1238.35,373.942 1239.17,373.942 1240,344.49 1240.83,329.561 1241.66,329.561 1242.49,299.288 1243.32,373.942 1244.15,373.942 1244.98,445.293 1245.81,283.941 1246.64,329.561 1247.47,314.494 1248.3,314.494 1249.13,513.556 1249.95,431.277 1250.78,431.277 1251.61,459.186 1252.44,329.561 1253.27,526.855 1254.1,417.135 1254.93,472.958 1255.76,486.608 1256.59,402.867 1257.42,445.293 1258.25,388.47 1259.08,402.867 1259.9,373.942 1260.73,359.283 1261.56,373.942 1262.39,417.135 1263.22,417.135 1264.05,431.277 1264.88,329.561 1265.71,402.867 1266.54,513.556 1267.37,417.135 1268.2,314.494 1269.03,373.942 1269.86,373.942 1270.68,329.561 1271.51,445.293 1272.34,402.867 1273.17,314.494 1274,268.45 1274.83,431.277 1275.66,329.561 1276.49,373.942 1277.32,359.283 1278.15,268.45 1278.98,373.942 1279.81,299.288 1280.63,252.813 1281.46,373.942 1282.29,402.867 1283.12,237.029 1283.95,402.867 1284.78,417.135 1285.61,431.277 1286.44,329.561 1287.27,431.277 1288.1,373.942 1288.93,329.561 1289.76,283.941 1290.58,268.45 1291.41,459.186 1292.24,252.813 1293.07,388.47 1293.9,359.283 1294.73,417.135 1295.56,359.283 1296.39,526.855 1297.22,344.49 1298.05,373.942 1298.88,445.293 1299.71,417.135 1300.54,359.283 1301.36,417.135 1302.19,314.494 1303.02,417.135 1303.85,431.277 1304.68,417.135 1305.51,540.04 1306.34,402.867 1307.17,221.096 1308,314.494 1308.83,299.288 1309.66,344.49 1310.49,314.494 1311.31,472.958 1312.14,359.283 1312.97,417.135 1313.8,402.867 1314.63,329.561 1315.46,329.561 1316.29,417.135 1317.12,388.47 1317.95,431.277 1318.78,417.135 1319.61,268.45 1320.44,283.941 1321.27,329.561 1322.09,359.283 1322.92,359.283 1323.75,359.283 1324.58,252.813 1325.41,500.141 1326.24,431.277 1327.07,252.813 1327.9,359.283 1328.73,431.277 1329.56,329.561 1330.39,329.561 1331.22,344.49 1332.04,329.561 1332.87,417.135 1333.7,359.283 1334.53,388.47 1335.36,344.49 1336.19,417.135 1337.02,237.029 1337.85,252.813 1338.68,252.813 1339.51,445.293 1340.34,591.668 1341.17,329.561 1341.99,188.771 1342.82,500.141 1343.65,299.288 1344.48,329.561 1345.31,459.186 1346.14,417.135 1346.97,314.494 1347.8,359.283 1348.63,417.135 1349.46,417.135 1350.29,299.288 1351.12,359.283 1351.95,513.556 1352.77,373.942 1353.6,237.029 1354.43,388.47 1355.26,344.49 1356.09,314.494 1356.92,417.135 1357.75,329.561 1358.58,283.941 1359.41,417.135 1360.24,344.49 1361.07,314.494 1361.9,388.47 1362.72,526.855 1363.55,329.561 1364.38,314.494 1365.21,459.186 1366.04,329.561 1366.87,373.942 1367.7,252.813 1368.53,513.556 1369.36,299.288 1370.19,417.135 1371.02,314.494 1371.85,252.813 1372.67,283.941 1373.5,252.813 1374.33,329.561 1375.16,445.293 1375.99,431.277 1376.82,402.867 1377.65,388.47 1378.48,445.293 1379.31,329.561 1380.14,283.941 1380.97,359.283 1381.8,283.941 1382.63,417.135 1383.45,299.288 1384.28,344.49 1385.11,299.288 1385.94,252.813 1386.77,344.49 1387.6,500.141 1388.43,359.283 1389.26,500.141 1390.09,299.288 1390.92,388.47 1391.75,314.494 1392.58,359.283 1393.4,314.494 1394.23,540.04 1395.06,417.135 1395.89,359.283 1396.72,252.813 1397.55,299.288 1398.38,526.855 1399.21,299.288 1400.04,252.813 1400.87,402.867 1401.7,283.941 1402.53,329.561 1403.36,344.49 1404.18,459.186 1405.01,388.47 1405.84,329.561 1406.67,237.029 1407.5,402.867 1408.33,359.283 1409.16,402.867 1409.99,172.376 1410.82,486.608 1411.65,373.942 1412.48,459.186 1413.31,268.45 1414.13,283.941 1414.96,268.45 1415.79,314.494 1416.62,268.45 1417.45,402.867 1418.28,329.561 1419.11,329.561 1419.94,299.288 1420.77,417.135 1421.6,205.011 1422.43,252.813 1423.26,329.561 1424.08,299.288 1424.91,252.813 1425.74,344.49 1426.57,314.494 1427.4,283.941 1428.23,252.813 1429.06,329.561 1429.89,402.867 1430.72,388.47 1431.55,359.283 1432.38,344.49 1433.21,373.942 1434.04,237.029 1434.86,359.283 1435.69,417.135 1436.52,299.288 1437.35,417.135 1438.18,329.561 1439.01,314.494 1439.84,373.942 1440.67,268.45 1441.5,344.49 1442.33,283.941 1443.16,344.49 1443.99,268.45 1444.81,299.288 1445.64,402.867 1446.47,299.288 1447.3,329.561 1448.13,329.561 1448.96,402.867 1449.79,172.376 1450.62,388.47 1451.45,283.941 1452.28,431.277 1453.11,314.494 1453.94,268.45 1454.77,314.494 1455.59,402.867 1456.42,252.813 1457.25,431.277 1458.08,205.011 1458.91,252.813 1459.74,268.45 1460.57,283.941 1461.4,221.096 1462.23,283.941 1463.06,237.029 1463.89,188.771 1464.72,388.47 1465.54,445.293 1466.37,268.45 1467.2,314.494 1468.03,237.029 1468.86,373.942 1469.69,329.561 1470.52,431.277 1471.35,402.867 1472.18,299.288 1473.01,431.277 1473.84,268.45 1474.67,314.494 1475.49,344.49 1476.32,417.135 1477.15,252.813 1477.98,388.47 1478.81,417.135 1479.64,252.813 1480.47,402.867 1481.3,329.561 1482.13,344.49 1482.96,344.49 1483.79,268.45 1484.62,472.958 1485.45,344.49 1486.27,188.771 1487.1,252.813 1487.93,373.942 1488.76,359.283 1489.59,329.561 1490.42,237.029 1491.25,329.561 1492.08,237.029 1492.91,283.941 1493.74,445.293 1494.57,359.283 1495.4,359.283 1496.22,299.288 1497.05,268.45 1497.88,252.813 1498.71,373.942 1499.54,373.942 1500.37,237.029 1501.2,344.49 1502.03,402.867 1502.86,344.49 1503.69,402.867 1504.52,221.096 1505.35,314.494 1506.18,221.096 1507,373.942 1507.83,252.813 1508.66,431.277 1509.49,314.494 1510.32,445.293 1511.15,314.494 1511.98,299.288 1512.81,431.277 1513.64,268.45 1514.47,237.029 1515.3,299.288 1516.13,268.45 1516.95,344.49 1517.78,299.288 1518.61,359.283 1519.44,359.283 1520.27,344.49 1521.1,329.561 1521.93,402.867 1522.76,329.561 1523.59,283.941 1524.42,268.45 1525.25,329.561 1526.08,205.011 1526.9,283.941 1527.73,299.288 1528.56,237.029 1529.39,388.47 1530.22,314.494 1531.05,417.135 1531.88,329.561 1532.71,329.561 1533.54,205.011 1534.37,299.288 1535.2,445.293 1536.03,172.376 1536.86,283.941 1537.68,359.283 1538.51,359.283 1539.34,283.941 1540.17,314.494 1541,237.029 1541.83,283.941 1542.66,344.49 1543.49,388.47 1544.32,359.283 1545.15,283.941 1545.98,388.47 1546.81,252.813 1547.63,373.942 1548.46,359.283 1549.29,252.813 1550.12,299.288 1550.95,283.941 1551.78,172.376 1552.61,252.813 1553.44,268.45 1554.27,237.029 1555.1,221.096 1555.93,268.45 1556.76,344.49 1557.58,314.494 1558.41,314.494 1559.24,283.941 1560.07,268.45 1560.9,283.941 1561.73,359.283 1562.56,359.283 1563.39,373.942 1564.22,299.288 1565.05,283.941 1565.88,283.941 1566.71,268.45 1567.54,252.813 1568.36,359.283 1569.19,268.45 1570.02,299.288 1570.85,445.293 1571.68,299.288 1572.51,388.47 1573.34,252.813 1574.17,237.029 1575,268.45 1575.83,205.011 1576.66,221.096 1577.49,344.49 1578.31,283.941 1579.14,268.45 1579.97,299.288 1580.8,314.494 1581.63,373.942 1582.46,172.376 1583.29,314.494 1584.12,237.029 1584.95,299.288 1585.78,221.096 1586.61,359.283 1587.44,188.771 1588.27,344.49 1589.09,417.135 1589.92,359.283 1590.75,237.029 1591.58,314.494 1592.41,329.561 1593.24,329.561 1594.07,252.813 1594.9,314.494 1595.73,188.771 1596.56,344.49 1597.39,205.011 1598.22,373.942 1599.04,237.029 1599.87,329.561 1600.7,283.941 1601.53,314.494 1602.36,252.813 1603.19,314.494 1604.02,283.941 1604.85,268.45 1605.68,283.941 1606.51,155.822 1607.34,344.49 1608.17,268.45 1608.99,359.283 1609.82,329.561 1610.65,252.813 1611.48,299.288 1612.31,283.941 1613.14,268.45 1613.97,283.941 1614.8,283.941 1615.63,283.941 1616.46,299.288 1617.29,221.096 1618.12,299.288 1618.95,237.029 1619.77,221.096 1620.6,221.096 1621.43,237.029 1622.26,268.45 1623.09,329.561 1623.92,329.561 1624.75,299.288 1625.58,299.288 1626.41,268.45 1627.24,237.029 1628.07,205.011 1628.9,359.283 1629.72,283.941 1630.55,314.494 1631.38,402.867 1632.21,299.288 1633.04,268.45 1633.87,252.813 1634.7,299.288 1635.53,359.283 1636.36,314.494 1637.19,205.011 1638.02,172.376 1638.85,344.49 1639.68,431.277 1640.5,359.283 1641.33,359.283 1642.16,268.45 1642.99,252.813 1643.82,314.494 1644.65,237.029 1645.48,314.494 1646.31,314.494 1647.14,268.45 1647.97,268.45 1648.8,299.288 1649.63,237.029 1650.45,237.029 1651.28,268.45 1652.11,359.283 1652.94,299.288 1653.77,373.942 1654.6,252.813 1655.43,268.45 1656.26,205.011 1657.09,237.029 1657.92,221.096 1658.75,205.011 1659.58,329.561 1660.4,139.108 1661.23,268.45 1662.06,359.283 1662.89,283.941 1663.72,283.941 1664.55,188.771 1665.38,205.011 1666.21,268.45 1667.04,314.494 1667.87,283.941 1668.7,283.941 1669.53,205.011 1670.36,252.813 1671.18,252.813 1672.01,359.283 1672.84,188.771 1673.67,283.941 1674.5,172.376 1675.33,237.029 1676.16,188.771 1676.99,268.45 1677.82,221.096 1678.65,283.941 1679.48,237.029 1680.31,283.941 1681.13,283.941 1681.96,221.096 1682.79,314.494 1683.62,373.942 1684.45,299.288 1685.28,252.813 1686.11,188.771 1686.94,139.108 1687.77,329.561 1688.6,314.494 1689.43,299.288 1690.26,373.942 1691.08,314.494 1691.91,188.771 1692.74,268.45 1693.57,122.23 1694.4,221.096 1695.23,221.096 1696.06,237.029 1696.89,329.561 1697.72,299.288 1698.55,252.813 1699.38,221.096 1700.21,373.942 1701.04,205.011 1701.86,268.45 1702.69,237.029 1703.52,299.288 1704.35,299.288 1705.18,205.011 1706.01,221.096 1706.84,221.096 1707.67,344.49 1708.5,221.096 1709.33,221.096 1710.16,172.376 1710.99,205.011 1711.81,299.288 1712.64,299.288 1713.47,139.108 1714.3,237.029 1715.13,155.822 1715.96,139.108 1716.79,221.096 1717.62,205.011 1718.45,221.096 1719.28,283.941 1720.11,283.941 1720.94,122.23 1721.77,237.029 1722.59,252.813 1723.42,221.096 1724.25,237.029 1725.08,252.813 1725.91,299.288 1726.74,299.288 1727.57,299.288 1728.4,373.942 1729.23,172.376 1730.06,252.813 1730.89,344.49 1731.72,268.45 1732.54,252.813 1733.37,329.561 1734.2,314.494 1735.03,221.096 1735.86,122.23 1736.69,252.813 1737.52,172.376 1738.35,283.941 1739.18,445.293 1740.01,373.942 1740.84,221.096 1741.67,344.49 1742.49,221.096 1743.32,299.288 1744.15,359.283 1744.98,172.376 1745.81,283.941 1746.64,268.45 1747.47,314.494 1748.3,188.771 1749.13,252.813 1749.96,205.011 1750.79,283.941 1751.62,237.029 1752.45,283.941 1753.27,221.096 1754.1,237.029 1754.93,314.494 1755.76,188.771 1756.59,252.813 1757.42,314.494 1758.25,268.45 1759.08,237.029 1759.91,268.45 1760.74,283.941 1761.57,268.45 1762.4,188.771 1763.22,329.561 1764.05,283.941 1764.88,299.288 1765.71,329.561 1766.54,329.561 1767.37,188.771 1768.2,252.813 1769.03,329.561 1769.86,205.011 1770.69,237.029 1771.52,359.283 1772.35,205.011 1773.18,299.288 1774,283.941 1774.83,344.49 1775.66,299.288 1776.49,344.49 1777.32,155.822 1778.15,252.813 1778.98,221.096 1779.81,268.45 1780.64,221.096 1781.47,359.283 1782.3,344.49 1783.13,221.096 1783.95,139.108 1784.78,299.288 1785.61,252.813 1786.44,188.771 1787.27,268.45 1788.1,329.561 1788.93,283.941 1789.76,252.813 1790.59,205.011 1791.42,252.813 1792.25,221.096 1793.08,268.45 1793.9,268.45 1794.73,237.029 1795.56,314.494 1796.39,172.376 1797.22,172.376 1798.05,188.771 1798.88,237.029 1799.71,172.376 1800.54,172.376 1801.37,155.822 1802.2,221.096 1803.03,268.45 1803.86,283.941 1804.68,221.096 1805.51,237.029 1806.34,268.45 1807.17,314.494 1808,188.771 1808.83,188.771 1809.66,221.096 1810.49,329.561 1811.32,172.376 1812.15,252.813 1812.98,359.283 1813.81,205.011 1814.63,268.45 1815.46,299.288 1816.29,205.011 1817.12,314.494 1817.95,205.011 1818.78,237.029 1819.61,299.288 1820.44,252.813 1821.27,155.822 1822.1,205.011 1822.93,268.45 1823.76,205.011 1824.59,314.494 1825.41,314.494 1826.24,283.941 1827.07,299.288 1827.9,314.494 1828.73,221.096 1829.56,188.771 1830.39,314.494 1831.22,205.011 1832.05,329.561 1832.88,221.096 1833.71,205.011 1834.54,237.029 1835.36,283.941 1836.19,155.822 1837.02,237.029 1837.85,237.029 1838.68,205.011 1839.51,252.813 1840.34,155.822 1841.17,283.941 1842,172.376 1842.83,252.813 1843.66,373.942 1844.49,344.49 1845.31,221.096 1846.14,252.813 1846.97,221.096 1847.8,299.288 1848.63,252.813 1849.46,122.23 1850.29,221.096 1851.12,237.029 1851.95,221.096 1852.78,329.561 1853.61,268.45 1854.44,252.813 1855.27,237.029 1856.09,237.029 1856.92,155.822 1857.75,221.096 1858.58,299.288 1859.41,344.49 1860.24,188.771 1861.07,172.376 1861.9,237.029 1862.73,388.47 1863.56,299.288 1864.39,205.011 1865.22,283.941 1866.04,359.283 1866.87,314.494 1867.7,188.771 1868.53,221.096 1869.36,221.096 1870.19,283.941 1871.02,252.813 1871.85,252.813 1872.68,122.23 1873.51,252.813 1874.34,155.822 1875.17,299.288 1875.99,188.771 1876.82,188.771 1877.65,314.494 1878.48,268.45 1879.31,172.376 1880.14,205.011 1880.97,268.45 1881.8,188.771 1882.63,172.376 1883.46,221.096 1884.29,188.771 1885.12,188.771 1885.95,283.941 1886.77,205.011 1887.6,268.45 1888.43,139.108 1889.26,283.941 1890.09,221.096 1890.92,155.822 1891.75,283.941 1892.58,268.45 1893.41,205.011 1894.24,252.813 1895.07,188.771 1895.9,314.494 1896.72,329.561 1897.55,122.23 1898.38,252.813 1899.21,221.096 1900.04,299.288 1900.87,188.771 1901.7,237.029 1902.53,314.494 1903.36,268.45 1904.19,139.108 1905.02,252.813 1905.85,237.029 1906.68,268.45 1907.5,237.029 1908.33,205.011 1909.16,188.771 1909.99,299.288 1910.82,314.494 1911.65,155.822 1912.48,155.822 1913.31,188.771 1914.14,299.288 1914.97,139.108 1915.8,205.011 1916.63,172.376 1917.45,205.011 1918.28,252.813 1919.11,314.494 1919.94,283.941 1920.77,188.771 1921.6,237.029 1922.43,283.941 1923.26,172.376 1924.09,172.376 1924.92,268.45 1925.75,172.376 1926.58,268.45 1927.4,314.494 1928.23,205.011 1929.06,283.941 1929.89,105.187 1930.72,344.49 1931.55,155.822 1932.38,188.771 1933.21,188.771 1934.04,221.096 1934.87,155.822 1935.7,221.096 1936.53,283.941 1937.36,283.941 1938.18,252.813 1939.01,172.376 1939.84,122.23 1940.67,237.029 1941.5,237.029 1942.33,329.561 1943.16,237.029 1943.99,252.813 1944.82,314.494 1945.65,237.029 1946.48,105.187 1947.31,329.561 1948.13,268.45 1948.96,252.813 1949.79,155.822 1950.62,268.45 1951.45,299.288 1952.28,268.45 1953.11,139.108 1953.94,237.029 1954.77,221.096 1955.6,221.096 1956.43,205.011 1957.26,221.096 1958.09,188.771 1958.91,188.771 1959.74,205.011 1960.57,299.288 1961.4,172.376 1962.23,237.029 1963.06,205.011 1963.89,188.771 1964.72,237.029 1965.55,155.822 1966.38,188.771 1967.21,252.813 1968.04,268.45 1968.86,205.011 1969.69,237.029 1970.52,172.376 1971.35,105.187 1972.18,205.011 1973.01,172.376 1973.84,188.771 1974.67,155.822 1975.5,205.011 1976.33,172.376 1977.16,221.096 1977.99,139.108 1978.81,252.813 1979.64,237.029 1980.47,299.288 1981.3,172.376 1982.13,283.941 1982.96,205.011 1983.79,268.45 1984.62,188.771 1985.45,299.288 1986.28,172.376 1987.11,268.45 1987.94,139.108 1988.77,188.771 1989.59,205.011 1990.42,155.822 1991.25,221.096 1992.08,252.813 1992.91,155.822 1993.74,188.771 1994.57,139.108 1995.4,205.011 1996.23,205.011 1997.06,172.376 1997.89,155.822 1998.72,155.822 1999.54,155.822 2000.37,237.029 2001.2,172.376 2002.03,205.011 2002.86,268.45 2003.69,221.096 2004.52,155.822 2005.35,237.029 2006.18,205.011 2007.01,252.813 2007.84,188.771 2008.67,268.45 2009.49,237.029 2010.32,221.096 2011.15,172.376 2011.98,172.376 2012.81,205.011 2013.64,221.096 2014.47,221.096 2015.3,172.376 2016.13,314.494 2016.96,172.376 2017.79,188.771 2018.62,155.822 2019.45,188.771 2020.27,252.813 2021.1,237.029 2021.93,221.096 2022.76,155.822 2023.59,188.771 2024.42,237.029 2025.25,139.108 2026.08,359.283 2026.91,87.9763 2027.74,221.096 2028.57,314.494 2029.4,188.771 2030.22,172.376 2031.05,237.029 2031.88,221.096 2032.71,87.9763 2033.54,188.771 2034.37,268.45 2035.2,237.029 2036.03,172.376 2036.86,221.096 2037.69,105.187 2038.52,252.813 2039.35,299.288 2040.18,252.813 2041,221.096 2041.83,87.9763 2042.66,172.376 2043.49,237.029 2044.32,188.771 2045.15,237.029 2045.98,87.9763 2046.81,237.029 2047.64,139.108 2048.47,172.376 2049.3,172.376 2050.13,283.941 2050.95,172.376 2051.78,237.029 2052.61,188.771 2053.44,205.011 2054.27,268.45 2055.1,268.45 2055.93,205.011 2056.76,221.096 2057.59,237.029 2058.42,417.135 2059.25,172.376 2060.08,188.771 2060.9,155.822 2061.73,283.941 2062.56,188.771 2063.39,188.771 2064.22,221.096 2065.05,139.108 2065.88,188.771 2066.71,139.108 2067.54,188.771 2068.37,205.011 2069.2,188.771 2070.03,172.376 2070.86,205.011 2071.68,268.45 2072.51,205.011 2073.34,105.187 2074.17,252.813 2075,139.108 2075.83,252.813 2076.66,252.813 2077.49,172.376 2078.32,268.45 2079.15,237.029 2079.98,268.45 2080.81,237.029 2081.63,237.029 2082.46,205.011 2083.29,205.011 2084.12,188.771 2084.95,268.45 2085.78,139.108 2086.61,268.45 2087.44,188.771 2088.27,122.23 2089.1,252.813 2089.93,139.108 2090.76,237.029 2091.59,268.45 2092.41,268.45 2093.24,155.822 2094.07,155.822 2094.9,155.822 2095.73,155.822 2096.56,205.011 2097.39,188.771 2098.22,205.011 2099.05,188.771 2099.88,188.771 2100.71,205.011 2101.54,237.029 2102.36,268.45 2103.19,188.771 2104.02,155.822 2104.85,188.771 2105.68,237.029 2106.51,252.813 2107.34,268.45 2108.17,205.011 2109,252.813 2109.83,237.029 2110.66,105.187 2111.49,155.822 2112.31,188.771 2113.14,237.029 2113.97,105.187 2114.8,268.45 2115.63,122.23 2116.46,221.096 2117.29,188.771 2118.12,172.376 2118.95,188.771 2119.78,237.029 2120.61,155.822 2121.44,299.288 2122.27,188.771 2123.09,155.822 2123.92,172.376 2124.75,139.108 2125.58,105.187 2126.41,252.813 2127.24,122.23 2128.07,268.45 2128.9,205.011 2129.73,172.376 2130.56,205.011 2131.39,155.822 2132.22,188.771 2133.04,188.771 2133.87,283.941 2134.7,188.771 2135.53,122.23 2136.36,122.23 2137.19,205.011 2138.02,188.771 2138.85,205.011 2139.68,188.771 2140.51,155.822 2141.34,188.771 2142.17,188.771 2143,155.822 2143.82,188.771 2144.65,237.029 2145.48,155.822 2146.31,105.187 2147.14,221.096 2147.97,155.822 2148.8,122.23 2149.63,122.23 2150.46,188.771 2151.29,122.23 2152.12,205.011 2152.95,139.108 2153.77,139.108 2154.6,139.108 2155.43,188.771 2156.26,268.45 2157.09,172.376 2157.92,155.822 2158.75,172.376 2159.58,299.288 2160.41,252.813 2161.24,205.011 2162.07,237.029 2162.9,252.813 2163.72,172.376 2164.55,205.011 2165.38,188.771 2166.21,252.813 2167.04,237.029 2167.87,205.011 2168.7,155.822 2169.53,221.096 2170.36,205.011 2171.19,205.011 2172.02,172.376 2172.85,172.376 2173.68,155.822 2174.5,155.822 2175.33,205.011 2176.16,188.771 2176.99,221.096 2177.82,172.376 2178.65,388.47 2179.48,205.011 2180.31,172.376 2181.14,221.096 2181.97,237.029 2182.8,221.096 2183.63,221.096 2184.45,252.813 2185.28,268.45 2186.11,188.771 2186.94,172.376 2187.77,105.187 2188.6,205.011 2189.43,155.822 2190.26,139.108 2191.09,155.822 2191.92,172.376 2192.75,122.23 2193.58,205.011 2194.4,221.096 2195.23,172.376 2196.06,172.376 2196.89,155.822 2197.72,252.813 2198.55,122.23 2199.38,205.011 2200.21,155.822 2201.04,188.771 2201.87,122.23 2202.7,344.49 2203.53,155.822 2204.36,122.23 2205.18,283.941 2206.01,299.288 2206.84,252.813 2207.67,237.029 2208.5,283.941 2209.33,155.822 2210.16,237.029 2210.99,188.771 2211.82,205.011 2212.65,122.23 2213.48,221.096 2214.31,188.771 2215.13,139.108 2215.96,122.23 2216.79,188.771 2217.62,283.941 2218.45,237.029 2219.28,188.771 2220.11,139.108 2220.94,122.23 2221.77,221.096 2222.6,221.096 2223.43,139.108 2224.26,188.771 2225.09,155.822 2225.91,188.771 2226.74,205.011 2227.57,188.771 2228.4,205.011 2229.23,237.029 2230.06,105.187 2230.89,122.23 2231.72,188.771 2232.55,221.096 2233.38,237.029 2234.21,139.108 2235.04,205.011 2235.86,205.011 2236.69,205.011 2237.52,155.822 2238.35,237.029 2239.18,188.771 2240.01,314.494 2240.84,221.096 2241.67,155.822 2242.5,221.096 2243.33,122.23 2244.16,105.187 2244.99,268.45 2245.81,268.45 2246.64,221.096 2247.47,188.771 2248.3,139.108 2249.13,205.011 2249.96,188.771 2250.79,172.376 2251.62,87.9763 2252.45,205.011 2253.28,188.771 2254.11,205.011 2254.94,139.108 2255.77,155.822 2256.59,122.23 2257.42,155.822 2258.25,252.813 2259.08,188.771 2259.91,105.187 2260.74,155.822 2261.57,122.23 2262.4,188.771 2263.23,122.23 2264.06,221.096 2264.89,205.011 2265.72,172.376 2266.54,155.822 2267.37,139.108 2268.2,188.771 2269.03,188.771 2269.86,172.376 2270.69,139.108 2271.52,139.108 2272.35,172.376 2273.18,221.096 2274.01,205.011 2274.84,188.771 2275.67,155.822 2276.5,122.23 2277.32,237.029 2278.15,172.376 2278.98,205.011 2279.81,122.23 2280.64,172.376 2281.47,205.011 2282.3,205.011 2283.13,252.813 2283.96,205.011 2284.79,155.822 2285.62,205.011 2286.45,155.822 2287.27,252.813 2288.1,221.096 2288.93,87.9763 2289.76,155.822 2290.59,122.23 "/>
<path clip-path="url(#clip790)" d="M229.49 198.898 L501.569 198.898 L501.569 95.2176 L229.49 95.2176  Z" fill="#ffffff" fill-rule="evenodd" fill-opacity="1"/>
<polyline clip-path="url(#clip790)" style="stroke:#000000; stroke-linecap:round; stroke-linejoin:round; stroke-width:4; stroke-opacity:1; fill:none" points="229.49,198.898 501.569,198.898 501.569,95.2176 229.49,95.2176 229.49,198.898 "/>
<polyline clip-path="url(#clip790)" style="stroke:#009af9; stroke-linecap:round; stroke-linejoin:round; stroke-width:4; stroke-opacity:1; fill:none" points="253.896,147.058 400.328,147.058 "/>
<path clip-path="url(#clip790)" d="M438.576 166.745 Q436.77 171.375 435.057 172.787 Q433.344 174.199 430.474 174.199 L427.071 174.199 L427.071 170.634 L429.571 170.634 Q431.33 170.634 432.302 169.8 Q433.275 168.967 434.455 165.865 L435.219 163.921 L424.733 138.412 L429.247 138.412 L437.349 158.689 L445.451 138.412 L449.964 138.412 L438.576 166.745 Z" fill="#000000" fill-rule="nonzero" fill-opacity="1" /><path clip-path="url(#clip790)" d="M457.256 160.402 L464.895 160.402 L464.895 134.037 L456.585 135.703 L456.585 131.444 L464.849 129.778 L469.524 129.778 L469.524 160.402 L477.163 160.402 L477.163 164.338 L457.256 164.338 L457.256 160.402 Z" fill="#000000" fill-rule="nonzero" fill-opacity="1" /></svg>
