<?xml version="1.0" encoding="utf-8"?>
<svg xmlns="http://www.w3.org/2000/svg" xmlns:xlink="http://www.w3.org/1999/xlink" width="600" height="400" viewBox="0 0 2400 1600">
<defs>
  <clipPath id="clip170">
    <rect x="0" y="0" width="2400" height="1600"/>
  </clipPath>
</defs>
<path clip-path="url(#clip170)" d="M0 1600 L2400 1600 L2400 0 L0 0  Z" fill="#ffffff" fill-rule="evenodd" fill-opacity="1"/>
<defs>
  <clipPath id="clip171">
    <rect x="480" y="0" width="1681" height="1600"/>
  </clipPath>
</defs>
<path clip-path="url(#clip170)" d="M202.177 1486.45 L2352.76 1486.45 L2352.76 47.2441 L202.177 47.2441  Z" fill="#ffffff" fill-rule="evenodd" fill-opacity="1"/>
<defs>
  <clipPath id="clip172">
    <rect x="202" y="47" width="2152" height="1440"/>
  </clipPath>
</defs>
<polyline clip-path="url(#clip172)" style="stroke:#000000; stroke-linecap:round; stroke-linejoin:round; stroke-width:2; stroke-opacity:0.1; fill:none" points="263.042,1486.45 263.042,47.2441 "/>
<polyline clip-path="url(#clip172)" style="stroke:#000000; stroke-linecap:round; stroke-linejoin:round; stroke-width:2; stroke-opacity:0.1; fill:none" points="770.254,1486.45 770.254,47.2441 "/>
<polyline clip-path="url(#clip172)" style="stroke:#000000; stroke-linecap:round; stroke-linejoin:round; stroke-width:2; stroke-opacity:0.1; fill:none" points="1277.47,1486.45 1277.47,47.2441 "/>
<polyline clip-path="url(#clip172)" style="stroke:#000000; stroke-linecap:round; stroke-linejoin:round; stroke-width:2; stroke-opacity:0.1; fill:none" points="1784.68,1486.45 1784.68,47.2441 "/>
<polyline clip-path="url(#clip172)" style="stroke:#000000; stroke-linecap:round; stroke-linejoin:round; stroke-width:2; stroke-opacity:0.1; fill:none" points="2291.89,1486.45 2291.89,47.2441 "/>
<polyline clip-path="url(#clip170)" style="stroke:#000000; stroke-linecap:round; stroke-linejoin:round; stroke-width:4; stroke-opacity:1; fill:none" points="202.177,1486.45 2352.76,1486.45 "/>
<polyline clip-path="url(#clip170)" style="stroke:#000000; stroke-linecap:round; stroke-linejoin:round; stroke-width:4; stroke-opacity:1; fill:none" points="263.042,1486.45 263.042,1467.55 "/>
<polyline clip-path="url(#clip170)" style="stroke:#000000; stroke-linecap:round; stroke-linejoin:round; stroke-width:4; stroke-opacity:1; fill:none" points="770.254,1486.45 770.254,1467.55 "/>
<polyline clip-path="url(#clip170)" style="stroke:#000000; stroke-linecap:round; stroke-linejoin:round; stroke-width:4; stroke-opacity:1; fill:none" points="1277.47,1486.45 1277.47,1467.55 "/>
<polyline clip-path="url(#clip170)" style="stroke:#000000; stroke-linecap:round; stroke-linejoin:round; stroke-width:4; stroke-opacity:1; fill:none" points="1784.68,1486.45 1784.68,1467.55 "/>
<polyline clip-path="url(#clip170)" style="stroke:#000000; stroke-linecap:round; stroke-linejoin:round; stroke-width:4; stroke-opacity:1; fill:none" points="2291.89,1486.45 2291.89,1467.55 "/>
<path clip-path="url(#clip170)" d="M263.042 1517.37 Q259.431 1517.37 257.602 1520.93 Q255.797 1524.47 255.797 1531.6 Q255.797 1538.71 257.602 1542.27 Q259.431 1545.82 263.042 1545.82 Q266.676 1545.82 268.482 1542.27 Q270.311 1538.71 270.311 1531.6 Q270.311 1524.47 268.482 1520.93 Q266.676 1517.37 263.042 1517.37 M263.042 1513.66 Q268.852 1513.66 271.908 1518.27 Q274.987 1522.85 274.987 1531.6 Q274.987 1540.33 271.908 1544.94 Q268.852 1549.52 263.042 1549.52 Q257.232 1549.52 254.153 1544.94 Q251.098 1540.33 251.098 1531.6 Q251.098 1522.85 254.153 1518.27 Q257.232 1513.66 263.042 1513.66 Z" fill="#000000" fill-rule="nonzero" fill-opacity="1" /><path clip-path="url(#clip170)" d="M729.872 1514.29 L748.229 1514.29 L748.229 1518.22 L734.155 1518.22 L734.155 1526.7 Q735.173 1526.35 736.192 1526.19 Q737.21 1526 738.229 1526 Q744.016 1526 747.396 1529.17 Q750.775 1532.34 750.775 1537.76 Q750.775 1543.34 747.303 1546.44 Q743.831 1549.52 737.511 1549.52 Q735.335 1549.52 733.067 1549.15 Q730.822 1548.78 728.414 1548.04 L728.414 1543.34 Q730.497 1544.47 732.72 1545.03 Q734.942 1545.58 737.419 1545.58 Q741.423 1545.58 743.761 1543.48 Q746.099 1541.37 746.099 1537.76 Q746.099 1534.15 743.761 1532.04 Q741.423 1529.94 737.419 1529.94 Q735.544 1529.94 733.669 1530.35 Q731.817 1530.77 729.872 1531.65 L729.872 1514.29 Z" fill="#000000" fill-rule="nonzero" fill-opacity="1" /><path clip-path="url(#clip170)" d="M769.988 1517.37 Q766.377 1517.37 764.548 1520.93 Q762.743 1524.47 762.743 1531.6 Q762.743 1538.71 764.548 1542.27 Q766.377 1545.82 769.988 1545.82 Q773.622 1545.82 775.428 1542.27 Q777.256 1538.71 777.256 1531.6 Q777.256 1524.47 775.428 1520.93 Q773.622 1517.37 769.988 1517.37 M769.988 1513.66 Q775.798 1513.66 778.854 1518.27 Q781.932 1522.85 781.932 1531.6 Q781.932 1540.33 778.854 1544.94 Q775.798 1549.52 769.988 1549.52 Q764.178 1549.52 761.099 1544.94 Q758.044 1540.33 758.044 1531.6 Q758.044 1522.85 761.099 1518.27 Q764.178 1513.66 769.988 1513.66 Z" fill="#000000" fill-rule="nonzero" fill-opacity="1" /><path clip-path="url(#clip170)" d="M800.15 1517.37 Q796.539 1517.37 794.71 1520.93 Q792.905 1524.47 792.905 1531.6 Q792.905 1538.71 794.71 1542.27 Q796.539 1545.82 800.15 1545.82 Q803.784 1545.82 805.59 1542.27 Q807.418 1538.71 807.418 1531.6 Q807.418 1524.47 805.59 1520.93 Q803.784 1517.37 800.15 1517.37 M800.15 1513.66 Q805.96 1513.66 809.016 1518.27 Q812.094 1522.85 812.094 1531.6 Q812.094 1540.33 809.016 1544.94 Q805.96 1549.52 800.15 1549.52 Q794.34 1549.52 791.261 1544.94 Q788.206 1540.33 788.206 1531.6 Q788.206 1522.85 791.261 1518.27 Q794.34 1513.66 800.15 1513.66 Z" fill="#000000" fill-rule="nonzero" fill-opacity="1" /><path clip-path="url(#clip170)" d="M1221.99 1544.91 L1229.63 1544.91 L1229.63 1518.55 L1221.32 1520.21 L1221.32 1515.95 L1229.58 1514.29 L1234.26 1514.29 L1234.26 1544.91 L1241.9 1544.91 L1241.9 1548.85 L1221.99 1548.85 L1221.99 1544.91 Z" fill="#000000" fill-rule="nonzero" fill-opacity="1" /><path clip-path="url(#clip170)" d="M1261.34 1517.37 Q1257.73 1517.37 1255.9 1520.93 Q1254.1 1524.47 1254.1 1531.6 Q1254.1 1538.71 1255.9 1542.27 Q1257.73 1545.82 1261.34 1545.82 Q1264.98 1545.82 1266.78 1542.27 Q1268.61 1538.71 1268.61 1531.6 Q1268.61 1524.47 1266.78 1520.93 Q1264.98 1517.37 1261.34 1517.37 M1261.34 1513.66 Q1267.15 1513.66 1270.21 1518.27 Q1273.29 1522.85 1273.29 1531.6 Q1273.29 1540.33 1270.21 1544.94 Q1267.15 1549.52 1261.34 1549.52 Q1255.53 1549.52 1252.45 1544.94 Q1249.4 1540.33 1249.4 1531.6 Q1249.4 1522.85 1252.45 1518.27 Q1255.53 1513.66 1261.34 1513.66 Z" fill="#000000" fill-rule="nonzero" fill-opacity="1" /><path clip-path="url(#clip170)" d="M1291.51 1517.37 Q1287.89 1517.37 1286.07 1520.93 Q1284.26 1524.47 1284.26 1531.6 Q1284.26 1538.71 1286.07 1542.27 Q1287.89 1545.82 1291.51 1545.82 Q1295.14 1545.82 1296.95 1542.27 Q1298.77 1538.71 1298.77 1531.6 Q1298.77 1524.47 1296.95 1520.93 Q1295.14 1517.37 1291.51 1517.37 M1291.51 1513.66 Q1297.32 1513.66 1300.37 1518.27 Q1303.45 1522.85 1303.45 1531.6 Q1303.45 1540.33 1300.37 1544.94 Q1297.32 1549.52 1291.51 1549.52 Q1285.7 1549.52 1282.62 1544.94 Q1279.56 1540.33 1279.56 1531.6 Q1279.56 1522.85 1282.62 1518.27 Q1285.7 1513.66 1291.51 1513.66 Z" fill="#000000" fill-rule="nonzero" fill-opacity="1" /><path clip-path="url(#clip170)" d="M1321.67 1517.37 Q1318.06 1517.37 1316.23 1520.93 Q1314.42 1524.47 1314.42 1531.6 Q1314.42 1538.71 1316.23 1542.27 Q1318.06 1545.82 1321.67 1545.82 Q1325.3 1545.82 1327.11 1542.27 Q1328.94 1538.71 1328.94 1531.6 Q1328.94 1524.47 1327.11 1520.93 Q1325.3 1517.37 1321.67 1517.37 M1321.67 1513.66 Q1327.48 1513.66 1330.53 1518.27 Q1333.61 1522.85 1333.61 1531.6 Q1333.61 1540.33 1330.53 1544.94 Q1327.48 1549.52 1321.67 1549.52 Q1315.86 1549.52 1312.78 1544.94 Q1309.72 1540.33 1309.72 1531.6 Q1309.72 1522.85 1312.78 1518.27 Q1315.86 1513.66 1321.67 1513.66 Z" fill="#000000" fill-rule="nonzero" fill-opacity="1" /><path clip-path="url(#clip170)" d="M1729.2 1544.91 L1736.84 1544.91 L1736.84 1518.55 L1728.53 1520.21 L1728.53 1515.95 L1736.8 1514.29 L1741.47 1514.29 L1741.47 1544.91 L1749.11 1544.91 L1749.11 1548.85 L1729.2 1548.85 L1729.2 1544.91 Z" fill="#000000" fill-rule="nonzero" fill-opacity="1" /><path clip-path="url(#clip170)" d="M1758.6 1514.29 L1776.96 1514.29 L1776.96 1518.22 L1762.88 1518.22 L1762.88 1526.7 Q1763.9 1526.35 1764.92 1526.19 Q1765.94 1526 1766.96 1526 Q1772.75 1526 1776.13 1529.17 Q1779.5 1532.34 1779.5 1537.76 Q1779.5 1543.34 1776.03 1546.44 Q1772.56 1549.52 1766.24 1549.52 Q1764.07 1549.52 1761.8 1549.15 Q1759.55 1548.78 1757.14 1548.04 L1757.14 1543.34 Q1759.23 1544.47 1761.45 1545.03 Q1763.67 1545.58 1766.15 1545.58 Q1770.15 1545.58 1772.49 1543.48 Q1774.83 1541.37 1774.83 1537.76 Q1774.83 1534.15 1772.49 1532.04 Q1770.15 1529.94 1766.15 1529.94 Q1764.27 1529.94 1762.4 1530.35 Q1760.55 1530.77 1758.6 1531.65 L1758.6 1514.29 Z" fill="#000000" fill-rule="nonzero" fill-opacity="1" /><path clip-path="url(#clip170)" d="M1798.72 1517.37 Q1795.11 1517.37 1793.28 1520.93 Q1791.47 1524.47 1791.47 1531.6 Q1791.47 1538.71 1793.28 1542.27 Q1795.11 1545.82 1798.72 1545.82 Q1802.35 1545.82 1804.16 1542.27 Q1805.99 1538.71 1805.99 1531.6 Q1805.99 1524.47 1804.16 1520.93 Q1802.35 1517.37 1798.72 1517.37 M1798.72 1513.66 Q1804.53 1513.66 1807.58 1518.27 Q1810.66 1522.85 1810.66 1531.6 Q1810.66 1540.33 1807.58 1544.94 Q1804.53 1549.52 1798.72 1549.52 Q1792.91 1549.52 1789.83 1544.94 Q1786.77 1540.33 1786.77 1531.6 Q1786.77 1522.85 1789.83 1518.27 Q1792.91 1513.66 1798.72 1513.66 Z" fill="#000000" fill-rule="nonzero" fill-opacity="1" /><path clip-path="url(#clip170)" d="M1828.88 1517.37 Q1825.27 1517.37 1823.44 1520.93 Q1821.63 1524.47 1821.63 1531.6 Q1821.63 1538.71 1823.44 1542.27 Q1825.27 1545.82 1828.88 1545.82 Q1832.51 1545.82 1834.32 1542.27 Q1836.15 1538.71 1836.15 1531.6 Q1836.15 1524.47 1834.32 1520.93 Q1832.51 1517.37 1828.88 1517.37 M1828.88 1513.66 Q1834.69 1513.66 1837.75 1518.27 Q1840.82 1522.85 1840.82 1531.6 Q1840.82 1540.33 1837.75 1544.94 Q1834.69 1549.52 1828.88 1549.52 Q1823.07 1549.52 1819.99 1544.94 Q1816.94 1540.33 1816.94 1531.6 Q1816.94 1522.85 1819.99 1518.27 Q1823.07 1513.66 1828.88 1513.66 Z" fill="#000000" fill-rule="nonzero" fill-opacity="1" /><path clip-path="url(#clip170)" d="M2240.5 1544.91 L2256.82 1544.91 L2256.82 1548.85 L2234.88 1548.85 L2234.88 1544.91 Q2237.54 1542.16 2242.12 1537.53 Q2246.73 1532.88 2247.91 1531.53 Q2250.15 1529.01 2251.03 1527.27 Q2251.94 1525.51 2251.94 1523.82 Q2251.94 1521.07 2249.99 1519.33 Q2248.07 1517.6 2244.97 1517.6 Q2242.77 1517.6 2240.32 1518.36 Q2237.89 1519.13 2235.11 1520.68 L2235.11 1515.95 Q2237.93 1514.82 2240.39 1514.24 Q2242.84 1513.66 2244.88 1513.66 Q2250.25 1513.66 2253.44 1516.35 Q2256.64 1519.03 2256.64 1523.52 Q2256.64 1525.65 2255.83 1527.57 Q2255.04 1529.47 2252.93 1532.07 Q2252.35 1532.74 2249.25 1535.95 Q2246.15 1539.15 2240.5 1544.91 Z" fill="#000000" fill-rule="nonzero" fill-opacity="1" /><path clip-path="url(#clip170)" d="M2276.64 1517.37 Q2273.02 1517.37 2271.2 1520.93 Q2269.39 1524.47 2269.39 1531.6 Q2269.39 1538.71 2271.2 1542.27 Q2273.02 1545.82 2276.64 1545.82 Q2280.27 1545.82 2282.08 1542.27 Q2283.9 1538.71 2283.9 1531.6 Q2283.9 1524.47 2282.08 1520.93 Q2280.27 1517.37 2276.64 1517.37 M2276.64 1513.66 Q2282.45 1513.66 2285.5 1518.27 Q2288.58 1522.85 2288.58 1531.6 Q2288.58 1540.33 2285.5 1544.94 Q2282.45 1549.52 2276.64 1549.52 Q2270.83 1549.52 2267.75 1544.94 Q2264.69 1540.33 2264.69 1531.6 Q2264.69 1522.85 2267.75 1518.27 Q2270.83 1513.66 2276.64 1513.66 Z" fill="#000000" fill-rule="nonzero" fill-opacity="1" /><path clip-path="url(#clip170)" d="M2306.8 1517.37 Q2303.19 1517.37 2301.36 1520.93 Q2299.55 1524.47 2299.55 1531.6 Q2299.55 1538.71 2301.36 1542.27 Q2303.19 1545.82 2306.8 1545.82 Q2310.43 1545.82 2312.24 1542.27 Q2314.07 1538.71 2314.07 1531.6 Q2314.07 1524.47 2312.24 1520.93 Q2310.43 1517.37 2306.8 1517.37 M2306.8 1513.66 Q2312.61 1513.66 2315.66 1518.27 Q2318.74 1522.85 2318.74 1531.6 Q2318.74 1540.33 2315.66 1544.94 Q2312.61 1549.52 2306.8 1549.52 Q2300.99 1549.52 2297.91 1544.94 Q2294.85 1540.33 2294.85 1531.6 Q2294.85 1522.85 2297.91 1518.27 Q2300.99 1513.66 2306.8 1513.66 Z" fill="#000000" fill-rule="nonzero" fill-opacity="1" /><path clip-path="url(#clip170)" d="M2336.96 1517.37 Q2333.35 1517.37 2331.52 1520.93 Q2329.71 1524.47 2329.71 1531.6 Q2329.71 1538.71 2331.52 1542.27 Q2333.35 1545.82 2336.96 1545.82 Q2340.59 1545.82 2342.4 1542.27 Q2344.23 1538.71 2344.23 1531.6 Q2344.23 1524.47 2342.4 1520.93 Q2340.59 1517.37 2336.96 1517.37 M2336.96 1513.66 Q2342.77 1513.66 2345.83 1518.27 Q2348.9 1522.85 2348.9 1531.6 Q2348.9 1540.33 2345.83 1544.94 Q2342.77 1549.52 2336.96 1549.52 Q2331.15 1549.52 2328.07 1544.94 Q2325.02 1540.33 2325.02 1531.6 Q2325.02 1522.85 2328.07 1518.27 Q2331.15 1513.66 2336.96 1513.66 Z" fill="#000000" fill-rule="nonzero" fill-opacity="1" /><polyline clip-path="url(#clip172)" style="stroke:#000000; stroke-linecap:round; stroke-linejoin:round; stroke-width:2; stroke-opacity:0.1; fill:none" points="202.177,1330.52 2352.76,1330.52 "/>
<polyline clip-path="url(#clip172)" style="stroke:#000000; stroke-linecap:round; stroke-linejoin:round; stroke-width:2; stroke-opacity:0.1; fill:none" points="202.177,1060.47 2352.76,1060.47 "/>
<polyline clip-path="url(#clip172)" style="stroke:#000000; stroke-linecap:round; stroke-linejoin:round; stroke-width:2; stroke-opacity:0.1; fill:none" points="202.177,790.417 2352.76,790.417 "/>
<polyline clip-path="url(#clip172)" style="stroke:#000000; stroke-linecap:round; stroke-linejoin:round; stroke-width:2; stroke-opacity:0.1; fill:none" points="202.177,520.366 2352.76,520.366 "/>
<polyline clip-path="url(#clip172)" style="stroke:#000000; stroke-linecap:round; stroke-linejoin:round; stroke-width:2; stroke-opacity:0.1; fill:none" points="202.177,250.315 2352.76,250.315 "/>
<polyline clip-path="url(#clip170)" style="stroke:#000000; stroke-linecap:round; stroke-linejoin:round; stroke-width:4; stroke-opacity:1; fill:none" points="202.177,1486.45 202.177,47.2441 "/>
<polyline clip-path="url(#clip170)" style="stroke:#000000; stroke-linecap:round; stroke-linejoin:round; stroke-width:4; stroke-opacity:1; fill:none" points="202.177,1330.52 221.074,1330.52 "/>
<polyline clip-path="url(#clip170)" style="stroke:#000000; stroke-linecap:round; stroke-linejoin:round; stroke-width:4; stroke-opacity:1; fill:none" points="202.177,1060.47 221.074,1060.47 "/>
<polyline clip-path="url(#clip170)" style="stroke:#000000; stroke-linecap:round; stroke-linejoin:round; stroke-width:4; stroke-opacity:1; fill:none" points="202.177,790.417 221.074,790.417 "/>
<polyline clip-path="url(#clip170)" style="stroke:#000000; stroke-linecap:round; stroke-linejoin:round; stroke-width:4; stroke-opacity:1; fill:none" points="202.177,520.366 221.074,520.366 "/>
<polyline clip-path="url(#clip170)" style="stroke:#000000; stroke-linecap:round; stroke-linejoin:round; stroke-width:4; stroke-opacity:1; fill:none" points="202.177,250.315 221.074,250.315 "/>
<path clip-path="url(#clip170)" d="M66.5939 1317.31 L54.7884 1335.76 L66.5939 1335.76 L66.5939 1317.31 M65.367 1313.24 L71.2466 1313.24 L71.2466 1335.76 L76.1772 1335.76 L76.1772 1339.65 L71.2466 1339.65 L71.2466 1347.8 L66.5939 1347.8 L66.5939 1339.65 L50.9921 1339.65 L50.9921 1335.14 L65.367 1313.24 Z" fill="#000000" fill-rule="nonzero" fill-opacity="1" /><path clip-path="url(#clip170)" d="M82.7281 1313.24 L104.95 1313.24 L104.95 1315.23 L92.4039 1347.8 L87.5197 1347.8 L99.3252 1317.17 L82.7281 1317.17 L82.7281 1313.24 Z" fill="#000000" fill-rule="nonzero" fill-opacity="1" /><path clip-path="url(#clip170)" d="M114.117 1313.24 L132.473 1313.24 L132.473 1317.17 L118.399 1317.17 L118.399 1325.65 Q119.418 1325.3 120.436 1325.14 Q121.455 1324.95 122.473 1324.95 Q128.26 1324.95 131.64 1328.12 Q135.019 1331.29 135.019 1336.71 Q135.019 1342.29 131.547 1345.39 Q128.075 1348.47 121.756 1348.47 Q119.58 1348.47 117.311 1348.1 Q115.066 1347.73 112.658 1346.99 L112.658 1342.29 Q114.742 1343.42 116.964 1343.98 Q119.186 1344.53 121.663 1344.53 Q125.668 1344.53 128.006 1342.43 Q130.344 1340.32 130.344 1336.71 Q130.344 1333.1 128.006 1330.99 Q125.668 1328.89 121.663 1328.89 Q119.788 1328.89 117.913 1329.3 Q116.061 1329.72 114.117 1330.6 L114.117 1313.24 Z" fill="#000000" fill-rule="nonzero" fill-opacity="1" /><path clip-path="url(#clip170)" d="M154.232 1316.32 Q150.621 1316.32 148.793 1319.88 Q146.987 1323.42 146.987 1330.55 Q146.987 1337.66 148.793 1341.22 Q150.621 1344.77 154.232 1344.77 Q157.867 1344.77 159.672 1341.22 Q161.501 1337.66 161.501 1330.55 Q161.501 1323.42 159.672 1319.88 Q157.867 1316.32 154.232 1316.32 M154.232 1312.61 Q160.042 1312.61 163.098 1317.22 Q166.177 1321.8 166.177 1330.55 Q166.177 1339.28 163.098 1343.89 Q160.042 1348.47 154.232 1348.47 Q148.422 1348.47 145.343 1343.89 Q142.288 1339.28 142.288 1330.55 Q142.288 1321.8 145.343 1317.22 Q148.422 1312.61 154.232 1312.61 Z" fill="#000000" fill-rule="nonzero" fill-opacity="1" /><path clip-path="url(#clip170)" d="M53.793 1043.19 L72.1494 1043.19 L72.1494 1047.12 L58.0754 1047.12 L58.0754 1055.6 Q59.0939 1055.25 60.1124 1055.09 Q61.131 1054.9 62.1495 1054.9 Q67.9365 1054.9 71.3161 1058.07 Q74.6957 1061.24 74.6957 1066.66 Q74.6957 1072.24 71.2235 1075.34 Q67.7513 1078.42 61.4319 1078.42 Q59.256 1078.42 56.9875 1078.05 Q54.7421 1077.68 52.3347 1076.94 L52.3347 1072.24 Q54.418 1073.37 56.6402 1073.93 Q58.8625 1074.48 61.3393 1074.48 Q65.3439 1074.48 67.6819 1072.38 Q70.0198 1070.27 70.0198 1066.66 Q70.0198 1063.05 67.6819 1060.94 Q65.3439 1058.84 61.3393 1058.84 Q59.4643 1058.84 57.5893 1059.25 Q55.7375 1059.67 53.793 1060.55 L53.793 1043.19 Z" fill="#000000" fill-rule="nonzero" fill-opacity="1" /><path clip-path="url(#clip170)" d="M93.9086 1046.27 Q90.2975 1046.27 88.4688 1049.83 Q86.6632 1053.37 86.6632 1060.5 Q86.6632 1067.61 88.4688 1071.17 Q90.2975 1074.72 93.9086 1074.72 Q97.5428 1074.72 99.3483 1071.17 Q101.177 1067.61 101.177 1060.5 Q101.177 1053.37 99.3483 1049.83 Q97.5428 1046.27 93.9086 1046.27 M93.9086 1042.56 Q99.7187 1042.56 102.774 1047.17 Q105.853 1051.75 105.853 1060.5 Q105.853 1069.23 102.774 1073.84 Q99.7187 1078.42 93.9086 1078.42 Q88.0984 1078.42 85.0197 1073.84 Q81.9642 1069.23 81.9642 1060.5 Q81.9642 1051.75 85.0197 1047.17 Q88.0984 1042.56 93.9086 1042.56 Z" fill="#000000" fill-rule="nonzero" fill-opacity="1" /><path clip-path="url(#clip170)" d="M124.07 1046.27 Q120.459 1046.27 118.631 1049.83 Q116.825 1053.37 116.825 1060.5 Q116.825 1067.61 118.631 1071.17 Q120.459 1074.72 124.07 1074.72 Q127.705 1074.72 129.51 1071.17 Q131.339 1067.61 131.339 1060.5 Q131.339 1053.37 129.51 1049.83 Q127.705 1046.27 124.07 1046.27 M124.07 1042.56 Q129.881 1042.56 132.936 1047.17 Q136.015 1051.75 136.015 1060.5 Q136.015 1069.23 132.936 1073.84 Q129.881 1078.42 124.07 1078.42 Q118.26 1078.42 115.182 1073.84 Q112.126 1069.23 112.126 1060.5 Q112.126 1051.75 115.182 1047.17 Q118.26 1042.56 124.07 1042.56 Z" fill="#000000" fill-rule="nonzero" fill-opacity="1" /><path clip-path="url(#clip170)" d="M154.232 1046.27 Q150.621 1046.27 148.793 1049.83 Q146.987 1053.37 146.987 1060.5 Q146.987 1067.61 148.793 1071.17 Q150.621 1074.72 154.232 1074.72 Q157.867 1074.72 159.672 1071.17 Q161.501 1067.61 161.501 1060.5 Q161.501 1053.37 159.672 1049.83 Q157.867 1046.27 154.232 1046.27 M154.232 1042.56 Q160.042 1042.56 163.098 1047.17 Q166.177 1051.75 166.177 1060.5 Q166.177 1069.23 163.098 1073.84 Q160.042 1078.42 154.232 1078.42 Q148.422 1078.42 145.343 1073.84 Q142.288 1069.23 142.288 1060.5 Q142.288 1051.75 145.343 1047.17 Q148.422 1042.56 154.232 1042.56 Z" fill="#000000" fill-rule="nonzero" fill-opacity="1" /><path clip-path="url(#clip170)" d="M53.793 773.137 L72.1494 773.137 L72.1494 777.072 L58.0754 777.072 L58.0754 785.544 Q59.0939 785.197 60.1124 785.035 Q61.131 784.85 62.1495 784.85 Q67.9365 784.85 71.3161 788.021 Q74.6957 791.193 74.6957 796.609 Q74.6957 802.188 71.2235 805.29 Q67.7513 808.368 61.4319 808.368 Q59.256 808.368 56.9875 807.998 Q54.7421 807.628 52.3347 806.887 L52.3347 802.188 Q54.418 803.322 56.6402 803.878 Q58.8625 804.433 61.3393 804.433 Q65.3439 804.433 67.6819 802.327 Q70.0198 800.22 70.0198 796.609 Q70.0198 792.998 67.6819 790.892 Q65.3439 788.785 61.3393 788.785 Q59.4643 788.785 57.5893 789.202 Q55.7375 789.619 53.793 790.498 L53.793 773.137 Z" fill="#000000" fill-rule="nonzero" fill-opacity="1" /><path clip-path="url(#clip170)" d="M87.9364 803.762 L104.256 803.762 L104.256 807.697 L82.3114 807.697 L82.3114 803.762 Q84.9734 801.007 89.5567 796.378 Q94.1632 791.725 95.3437 790.382 Q97.5891 787.859 98.4687 786.123 Q99.3715 784.364 99.3715 782.674 Q99.3715 779.919 97.4271 778.183 Q95.5058 776.447 92.4039 776.447 Q90.2049 776.447 87.7512 777.211 Q85.3206 777.975 82.5429 779.526 L82.5429 774.804 Q85.3669 773.67 87.8206 773.091 Q90.2743 772.512 92.3113 772.512 Q97.6817 772.512 100.876 775.197 Q104.071 777.882 104.071 782.373 Q104.071 784.503 103.26 786.424 Q102.473 788.322 100.367 790.915 Q99.7882 791.586 96.6863 794.804 Q93.5845 797.998 87.9364 803.762 Z" fill="#000000" fill-rule="nonzero" fill-opacity="1" /><path clip-path="url(#clip170)" d="M114.117 773.137 L132.473 773.137 L132.473 777.072 L118.399 777.072 L118.399 785.544 Q119.418 785.197 120.436 785.035 Q121.455 784.85 122.473 784.85 Q128.26 784.85 131.64 788.021 Q135.019 791.193 135.019 796.609 Q135.019 802.188 131.547 805.29 Q128.075 808.368 121.756 808.368 Q119.58 808.368 117.311 807.998 Q115.066 807.628 112.658 806.887 L112.658 802.188 Q114.742 803.322 116.964 803.878 Q119.186 804.433 121.663 804.433 Q125.668 804.433 128.006 802.327 Q130.344 800.22 130.344 796.609 Q130.344 792.998 128.006 790.892 Q125.668 788.785 121.663 788.785 Q119.788 788.785 117.913 789.202 Q116.061 789.619 114.117 790.498 L114.117 773.137 Z" fill="#000000" fill-rule="nonzero" fill-opacity="1" /><path clip-path="url(#clip170)" d="M154.232 776.216 Q150.621 776.216 148.793 779.781 Q146.987 783.322 146.987 790.452 Q146.987 797.558 148.793 801.123 Q150.621 804.665 154.232 804.665 Q157.867 804.665 159.672 801.123 Q161.501 797.558 161.501 790.452 Q161.501 783.322 159.672 779.781 Q157.867 776.216 154.232 776.216 M154.232 772.512 Q160.042 772.512 163.098 777.119 Q166.177 781.702 166.177 790.452 Q166.177 799.179 163.098 803.785 Q160.042 808.368 154.232 808.368 Q148.422 808.368 145.343 803.785 Q142.288 799.179 142.288 790.452 Q142.288 781.702 145.343 777.119 Q148.422 772.512 154.232 772.512 Z" fill="#000000" fill-rule="nonzero" fill-opacity="1" /><path clip-path="url(#clip170)" d="M53.793 503.086 L72.1494 503.086 L72.1494 507.021 L58.0754 507.021 L58.0754 515.494 Q59.0939 515.146 60.1124 514.984 Q61.131 514.799 62.1495 514.799 Q67.9365 514.799 71.3161 517.97 Q74.6957 521.142 74.6957 526.558 Q74.6957 532.137 71.2235 535.239 Q67.7513 538.318 61.4319 538.318 Q59.256 538.318 56.9875 537.947 Q54.7421 537.577 52.3347 536.836 L52.3347 532.137 Q54.418 533.271 56.6402 533.827 Q58.8625 534.382 61.3393 534.382 Q65.3439 534.382 67.6819 532.276 Q70.0198 530.169 70.0198 526.558 Q70.0198 522.947 67.6819 520.841 Q65.3439 518.734 61.3393 518.734 Q59.4643 518.734 57.5893 519.151 Q55.7375 519.568 53.793 520.447 L53.793 503.086 Z" fill="#000000" fill-rule="nonzero" fill-opacity="1" /><path clip-path="url(#clip170)" d="M83.9549 503.086 L102.311 503.086 L102.311 507.021 L88.2373 507.021 L88.2373 515.494 Q89.2558 515.146 90.2743 514.984 Q91.2928 514.799 92.3113 514.799 Q98.0984 514.799 101.478 517.97 Q104.858 521.142 104.858 526.558 Q104.858 532.137 101.385 535.239 Q97.9132 538.318 91.5938 538.318 Q89.4178 538.318 87.1493 537.947 Q84.904 537.577 82.4966 536.836 L82.4966 532.137 Q84.5799 533.271 86.8021 533.827 Q89.0243 534.382 91.5012 534.382 Q95.5058 534.382 97.8437 532.276 Q100.182 530.169 100.182 526.558 Q100.182 522.947 97.8437 520.841 Q95.5058 518.734 91.5012 518.734 Q89.6262 518.734 87.7512 519.151 Q85.8993 519.568 83.9549 520.447 L83.9549 503.086 Z" fill="#000000" fill-rule="nonzero" fill-opacity="1" /><path clip-path="url(#clip170)" d="M124.07 506.165 Q120.459 506.165 118.631 509.73 Q116.825 513.271 116.825 520.401 Q116.825 527.507 118.631 531.072 Q120.459 534.614 124.07 534.614 Q127.705 534.614 129.51 531.072 Q131.339 527.507 131.339 520.401 Q131.339 513.271 129.51 509.73 Q127.705 506.165 124.07 506.165 M124.07 502.461 Q129.881 502.461 132.936 507.068 Q136.015 511.651 136.015 520.401 Q136.015 529.128 132.936 533.734 Q129.881 538.318 124.07 538.318 Q118.26 538.318 115.182 533.734 Q112.126 529.128 112.126 520.401 Q112.126 511.651 115.182 507.068 Q118.26 502.461 124.07 502.461 Z" fill="#000000" fill-rule="nonzero" fill-opacity="1" /><path clip-path="url(#clip170)" d="M154.232 506.165 Q150.621 506.165 148.793 509.73 Q146.987 513.271 146.987 520.401 Q146.987 527.507 148.793 531.072 Q150.621 534.614 154.232 534.614 Q157.867 534.614 159.672 531.072 Q161.501 527.507 161.501 520.401 Q161.501 513.271 159.672 509.73 Q157.867 506.165 154.232 506.165 M154.232 502.461 Q160.042 502.461 163.098 507.068 Q166.177 511.651 166.177 520.401 Q166.177 529.128 163.098 533.734 Q160.042 538.318 154.232 538.318 Q148.422 538.318 145.343 533.734 Q142.288 529.128 142.288 520.401 Q142.288 511.651 145.343 507.068 Q148.422 502.461 154.232 502.461 Z" fill="#000000" fill-rule="nonzero" fill-opacity="1" /><path clip-path="url(#clip170)" d="M53.793 233.035 L72.1494 233.035 L72.1494 236.971 L58.0754 236.971 L58.0754 245.443 Q59.0939 245.096 60.1124 244.933 Q61.131 244.748 62.1495 244.748 Q67.9365 244.748 71.3161 247.92 Q74.6957 251.091 74.6957 256.507 Q74.6957 262.086 71.2235 265.188 Q67.7513 268.267 61.4319 268.267 Q59.256 268.267 56.9875 267.896 Q54.7421 267.526 52.3347 266.785 L52.3347 262.086 Q54.418 263.22 56.6402 263.776 Q58.8625 264.332 61.3393 264.332 Q65.3439 264.332 67.6819 262.225 Q70.0198 260.119 70.0198 256.507 Q70.0198 252.896 67.6819 250.79 Q65.3439 248.683 61.3393 248.683 Q59.4643 248.683 57.5893 249.1 Q55.7375 249.517 53.793 250.396 L53.793 233.035 Z" fill="#000000" fill-rule="nonzero" fill-opacity="1" /><path clip-path="url(#clip170)" d="M82.7281 233.035 L104.95 233.035 L104.95 235.026 L92.4039 267.595 L87.5197 267.595 L99.3252 236.971 L82.7281 236.971 L82.7281 233.035 Z" fill="#000000" fill-rule="nonzero" fill-opacity="1" /><path clip-path="url(#clip170)" d="M114.117 233.035 L132.473 233.035 L132.473 236.971 L118.399 236.971 L118.399 245.443 Q119.418 245.096 120.436 244.933 Q121.455 244.748 122.473 244.748 Q128.26 244.748 131.64 247.92 Q135.019 251.091 135.019 256.507 Q135.019 262.086 131.547 265.188 Q128.075 268.267 121.756 268.267 Q119.58 268.267 117.311 267.896 Q115.066 267.526 112.658 266.785 L112.658 262.086 Q114.742 263.22 116.964 263.776 Q119.186 264.332 121.663 264.332 Q125.668 264.332 128.006 262.225 Q130.344 260.119 130.344 256.507 Q130.344 252.896 128.006 250.79 Q125.668 248.683 121.663 248.683 Q119.788 248.683 117.913 249.1 Q116.061 249.517 114.117 250.396 L114.117 233.035 Z" fill="#000000" fill-rule="nonzero" fill-opacity="1" /><path clip-path="url(#clip170)" d="M154.232 236.114 Q150.621 236.114 148.793 239.679 Q146.987 243.221 146.987 250.35 Q146.987 257.457 148.793 261.021 Q150.621 264.563 154.232 264.563 Q157.867 264.563 159.672 261.021 Q161.501 257.457 161.501 250.35 Q161.501 243.221 159.672 239.679 Q157.867 236.114 154.232 236.114 M154.232 232.41 Q160.042 232.41 163.098 237.017 Q166.177 241.6 166.177 250.35 Q166.177 259.077 163.098 263.683 Q160.042 268.267 154.232 268.267 Q148.422 268.267 145.343 263.683 Q142.288 259.077 142.288 250.35 Q142.288 241.6 145.343 237.017 Q148.422 232.41 154.232 232.41 Z" fill="#000000" fill-rule="nonzero" fill-opacity="1" /><polyline clip-path="url(#clip172)" style="stroke:#009af9; stroke-linecap:round; stroke-linejoin:round; stroke-width:4; stroke-opacity:1; fill:none" points="263.042,1212.85 264.057,1212.93 265.071,1213.02 266.085,1213.1 267.1,1213.18 268.114,1213.26 269.129,1213.34 270.143,1213.41 271.158,1213.49 272.172,1213.56 273.186,808 274.201,808.012 275.215,808.024 276.23,808.036 277.244,808.048 278.259,808.06 279.273,808.071 280.287,808.083 281.302,808.095 282.316,808.106 283.331,949.268 284.345,949.32 285.359,949.371 286.374,949.421 287.388,949.47 288.403,949.518 289.417,949.565 290.432,949.612 291.446,949.657 292.46,949.702 293.475,814.501 294.489,814.528 295.504,814.555 296.518,814.582 297.533,814.608 298.547,814.634 299.561,814.66 300.576,814.686 301.59,814.711 302.605,814.737 303.619,1176.96 304.634,1176.98 305.648,1177 306.662,1177.03 307.677,1177.05 308.691,1177.07 309.706,1177.09 310.72,1177.11 311.735,1177.13 312.749,1177.15 313.763,545.832 314.778,545.87 315.792,545.908 316.807,545.945 317.821,545.981 318.835,546.017 319.85,546.052 320.864,546.087 321.879,546.121 322.893,546.155 323.908,796.262 324.922,796.353 325.936,796.441 326.951,796.528 327.965,796.613 328.98,796.695 329.994,796.776 331.009,796.855 332.023,796.932 333.037,797.008 334.052,509.496 335.066,509.512 336.081,509.528 337.095,509.543 338.11,509.559 339.124,509.574 340.138,509.589 341.153,509.604 342.167,509.619 343.182,509.634 344.196,1226.38 345.211,1226.39 346.225,1226.41 347.239,1226.42 348.254,1226.43 349.268,1226.45 350.283,1226.46 351.297,1226.47 352.311,1226.49 353.326,1226.5 354.34,260.551 355.355,260.597 356.369,260.642 357.384,260.687 358.398,260.73 359.412,260.774 360.427,260.816 361.441,260.858 362.456,260.9 363.47,260.941 364.485,391.966 365.499,392.004 366.513,392.041 367.528,392.077 368.542,392.112 369.557,392.147 370.571,392.181 371.586,392.214 372.6,392.247 373.614,392.279 374.629,1445.6 375.643,1445.62 376.658,1445.63 377.672,1445.64 378.686,1445.65 379.701,1445.67 380.715,1445.68 381.73,1445.69 382.744,1445.7 383.759,1445.72 384.773,827.081 385.787,827.135 386.802,827.189 387.816,827.241 388.831,827.292 389.845,827.341 390.86,827.39 391.874,827.437 392.888,827.484 393.903,827.529 394.917,1061.61 395.932,1061.62 396.946,1061.62 397.961,1061.63 398.975,1061.63 399.989,1061.63 401.004,1061.64 402.018,1061.64 403.033,1061.65 404.047,1061.65 405.062,771.591 406.076,771.656 407.09,771.72 408.105,771.782 409.119,771.842 410.134,771.901 411.148,771.959 412.162,772.016 413.177,772.071 414.191,772.125 415.206,492.155 416.22,492.176 417.235,492.197 418.249,492.218 419.263,492.239 420.278,492.259 421.292,492.279 422.307,492.299 423.321,492.319 424.336,492.339 425.35,974.96 426.364,974.977 427.379,974.995 428.393,975.012 429.408,975.03 430.422,975.047 431.437,975.064 432.451,975.081 433.465,975.097 434.48,975.114 435.494,1042.4 436.509,1042.42 437.523,1042.43 438.538,1042.44 439.552,1042.46 440.566,1042.47 441.581,1042.48 442.595,1042.49 443.61,1042.51 444.624,1042.52 445.638,943.967 446.653,944.001 447.667,944.036 448.682,944.069 449.696,944.103 450.711,944.136 451.725,944.168 452.739,944.201 453.754,944.232 454.768,944.264 455.783,1054.09 456.797,1054.19 457.812,1054.29 458.826,1054.39 459.84,1054.49 460.855,1054.59 461.869,1054.68 462.884,1054.77 463.898,1054.86 464.913,1054.95 465.927,625.692 466.941,625.718 467.956,625.744 468.97,625.769 469.985,625.794 470.999,625.818 472.014,625.842 473.028,625.866 474.042,625.889 475.057,625.911 476.071,722.086 477.086,722.117 478.1,722.148 479.114,722.178 480.129,722.208 481.143,722.238 482.158,722.267 483.172,722.296 484.187,722.324 485.201,722.352 486.215,886.964 487.23,886.997 488.244,887.029 489.259,887.061 490.273,887.092 491.288,887.123 492.302,887.153 493.316,887.182 494.331,887.212 495.345,887.24 496.36,531.145 497.374,531.165 498.389,531.185 499.403,531.205 500.417,531.224 501.432,531.243 502.446,531.262 503.461,531.28 504.475,531.298 505.49,531.316 506.504,453.117 507.518,453.157 508.533,453.197 509.547,453.236 510.562,453.274 511.576,453.312 512.59,453.349 513.605,453.385 514.619,453.421 515.634,453.456 516.648,860.77 517.663,860.81 518.677,860.849 519.691,860.888 520.706,860.926 521.72,860.963 522.735,861 523.749,861.036 524.764,861.071 525.778,861.106 526.792,1215.55 527.807,1215.65 528.821,1215.75 529.836,1215.85 530.85,1215.95 531.865,1216.05 532.879,1216.14 533.893,1216.24 534.908,1216.33 535.922,1216.41 536.937,563.275 537.951,563.299 538.966,563.323 539.98,563.347 540.994,563.371 542.009,563.394 543.023,563.417 544.038,563.44 545.052,563.462 546.066,563.485 547.081,975.971 548.095,975.983 549.11,975.995 550.124,976.006 551.139,976.018 552.153,976.029 553.167,976.04 554.182,976.051 555.196,976.062 556.211,976.072 557.225,1167.66 558.24,1167.76 559.254,1167.87 560.268,1167.97 561.283,1168.07 562.297,1168.16 563.312,1168.26 564.326,1168.35 565.341,1168.44 566.355,1168.53 567.369,970.667 568.384,970.688 569.398,970.71 570.413,970.731 571.427,970.752 572.442,970.772 573.456,970.792 574.47,970.811 575.485,970.831 576.499,970.85 577.514,1090.5 578.528,1090.52 579.542,1090.53 580.557,1090.54 581.571,1090.55 582.586,1090.57 583.6,1090.58 584.615,1090.59 585.629,1090.6 586.643,1090.61 587.658,881.813 588.672,881.885 589.687,881.955 590.701,882.024 591.716,882.091 592.73,882.157 593.744,882.221 594.759,882.284 595.773,882.346 596.788,882.406 597.802,933.348 598.817,933.373 599.831,933.398 600.845,933.422 601.86,933.445 602.874,933.468 603.889,933.491 604.903,933.512 605.918,933.534 606.932,933.555 607.946,1353.82 608.961,1353.85 609.975,1353.88 610.99,1353.91 612.004,1353.94 613.018,1353.96 614.033,1353.99 615.047,1354.02 616.062,1354.04 617.076,1354.07 618.091,744.162 619.105,744.18 620.119,744.198 621.134,744.216 622.148,744.234 623.163,744.251 624.177,744.268 625.192,744.285 626.206,744.302 627.22,744.319 628.235,802.736 629.249,802.769 630.264,802.802 631.278,802.835 632.293,802.867 633.307,802.899 634.321,802.93 635.336,802.961 636.35,802.992 637.365,803.022 638.379,827.683 639.394,827.801 640.408,827.917 641.422,828.03 642.437,828.141 643.451,828.248 644.466,828.353 645.48,828.456 646.494,828.556 647.509,828.653 648.523,748.424 649.538,748.467 650.552,748.508 651.567,748.549 652.581,748.589 653.595,748.628 654.61,748.666 655.624,748.703 656.639,748.74 657.653,748.775 658.668,925.389 659.682,925.448 660.696,925.505 661.711,925.561 662.725,925.617 663.74,925.671 664.754,925.723 665.769,925.775 666.783,925.826 667.797,925.875 668.812,891.433 669.826,891.528 670.841,891.622 671.855,891.714 672.87,891.804 673.884,891.893 674.898,891.98 675.913,892.065 676.927,892.149 677.942,892.231 678.956,943.22 679.97,943.274 680.985,943.326 681.999,943.377 683.014,943.427 684.028,943.476 685.043,943.524 686.057,943.571 687.071,943.616 688.086,943.661 689.1,805.153 690.115,805.184 691.129,805.214 692.144,805.244 693.158,805.273 694.172,805.303 695.187,805.333 696.201,805.362 697.216,805.392 698.23,805.421 699.245,779.663 700.259,779.684 701.273,779.706 702.288,779.726 703.302,779.747 704.317,779.767 705.331,779.786 706.345,779.806 707.36,779.825 708.374,779.843 709.389,798.938 710.403,798.987 711.418,799.035 712.432,799.082 713.446,799.129 714.461,799.174 715.475,799.219 716.49,799.263 717.504,799.306 718.519,799.349 719.533,615.28 720.547,615.301 721.562,615.321 722.576,615.342 723.591,615.363 724.605,615.383 725.62,615.404 726.634,615.424 727.648,615.444 728.663,615.464 729.677,823.424 730.692,823.439 731.706,823.454 732.721,823.468 733.735,823.483 734.749,823.497 735.764,823.511 736.778,823.524 737.793,823.537 738.807,823.551 739.821,1020.18 740.836,1020.27 741.85,1020.35 742.865,1020.44 743.879,1020.52 744.894,1020.6 745.908,1020.68 746.922,1020.76 747.937,1020.84 748.951,1020.91 749.966,806.649 750.98,806.666 751.995,806.683 753.009,806.699 754.023,806.716 755.038,806.732 756.052,806.748 757.067,806.764 758.081,806.78 759.096,806.796 760.11,611.234 761.124,611.286 762.139,611.338 763.153,611.389 764.168,611.44 765.182,611.491 766.197,611.541 767.211,611.591 768.225,611.641 769.24,611.69 770.254,562.858 771.269,562.884 772.283,562.909 773.297,562.934 774.312,562.959 775.326,562.984 776.341,563.009 777.355,563.033 778.37,563.058 779.384,563.082 780.398,758.111 781.413,758.186 782.427,758.26 783.442,758.333 784.456,758.404 785.471,758.473 786.485,758.542 787.499,758.609 788.514,758.675 789.528,758.739 790.543,758.407 791.557,758.435 792.572,758.462 793.586,758.488 794.6,758.514 795.615,758.539 796.629,758.564 797.644,758.588 798.658,758.611 799.673,758.634 800.687,887.978 801.701,888.005 802.716,888.032 803.73,888.059 804.745,888.085 805.759,888.111 806.773,888.136 807.788,888.161 808.802,888.185 809.817,888.21 810.831,1019.35 811.846,1019.36 812.86,1019.37 813.874,1019.38 814.889,1019.39 815.903,1019.4 816.918,1019.41 817.932,1019.42 818.947,1019.42 819.961,1019.43 820.975,1336.89 821.99,1336.92 823.004,1336.96 824.019,1336.99 825.033,1337.02 826.048,1337.05 827.062,1337.09 828.076,1337.12 829.091,1337.15 830.105,1337.18 831.12,724.468 832.134,724.485 833.149,724.501 834.163,724.517 835.177,724.533 836.192,724.548 837.206,724.563 838.221,724.579 839.235,724.593 840.249,724.608 841.264,742.972 842.278,743.018 843.293,743.063 844.307,743.108 845.322,743.151 846.336,743.193 847.35,743.235 848.365,743.276 849.379,743.316 850.394,743.355 851.408,939.522 852.423,939.569 853.437,939.615 854.451,939.66 855.466,939.705 856.48,939.749 857.495,939.793 858.509,939.837 859.524,939.879 860.538,939.922 861.552,516.61 862.567,516.643 863.581,516.676 864.596,516.709 865.61,516.741 866.625,516.774 867.639,516.806 868.653,516.838 869.668,516.87 870.682,516.902 871.697,872.032 872.711,872.052 873.725,872.071 874.74,872.09 875.754,872.108 876.769,872.127 877.783,872.145 878.798,872.163 879.812,872.18 880.826,872.197 881.841,758.088 882.855,758.105 883.87,758.122 884.884,758.139 885.899,758.156 886.913,758.173 887.927,758.189 888.942,758.205 889.956,758.221 890.971,758.237 891.985,87.9763 893,88.0204 894.014,88.0639 895.028,88.1069 896.043,88.1493 897.057,88.1911 898.072,88.2325 899.086,88.2733 900.101,88.3136 901.115,88.3534 902.129,657.226 903.144,657.31 904.158,657.392 905.173,657.472 906.187,657.55 907.201,657.626 908.216,657.7 909.23,657.772 910.245,657.843 911.259,657.912 912.274,1010.99 913.288,1011.09 914.302,1011.18 915.317,1011.28 916.331,1011.37 917.346,1011.46 918.36,1011.55 919.375,1011.64 920.389,1011.73 921.403,1011.81 922.418,463.429 923.432,463.462 924.447,463.496 925.461,463.529 926.476,463.561 927.49,463.593 928.504,463.624 929.519,463.655 930.533,463.686 931.548,463.717 932.562,1335.74 933.577,1335.76 934.591,1335.78 935.605,1335.8 936.62,1335.82 937.634,1335.84 938.649,1335.86 939.663,1335.88 940.677,1335.9 941.692,1335.92 942.706,618.016 943.721,618.073 944.735,618.129 945.75,618.185 946.764,618.24 947.778,618.295 948.793,618.349 949.807,618.403 950.822,618.456 951.836,618.508 952.851,1041.07 953.865,1041.09 954.879,1041.12 955.894,1041.14 956.908,1041.16 957.923,1041.18 958.937,1041.2 959.952,1041.22 960.966,1041.23 961.98,1041.25 962.995,1357.85 964.009,1357.87 965.024,1357.89 966.038,1357.9 967.053,1357.92 968.067,1357.94 969.081,1357.95 970.096,1357.97 971.11,1357.99 972.125,1358 973.139,1132.41 974.153,1132.48 975.168,1132.56 976.182,1132.63 977.197,1132.71 978.211,1132.78 979.226,1132.85 980.24,1132.91 981.254,1132.98 982.269,1133.05 983.283,1110.91 984.298,1110.98 985.312,1111.04 986.327,1111.11 987.341,1111.18 988.355,1111.24 989.37,1111.31 990.384,1111.37 991.399,1111.43 992.413,1111.49 993.428,433.102 994.442,433.142 995.456,433.182 996.471,433.221 997.485,433.26 998.5,433.298 999.514,433.335 1000.53,433.372 1001.54,433.408 1002.56,433.444 1003.57,960.741 1004.59,960.782 1005.6,960.823 1006.62,960.862 1007.63,960.9 1008.64,960.938 1009.66,960.975 1010.67,961.011 1011.69,961.046 1012.7,961.08 1013.72,821.052 1014.73,821.075 1015.74,821.097 1016.76,821.12 1017.77,821.142 1018.79,821.164 1019.8,821.186 1020.82,821.208 1021.83,821.229 1022.85,821.251 1023.86,1037.22 1024.87,1037.28 1025.89,1037.35 1026.9,1037.41 1027.92,1037.47 1028.93,1037.53 1029.95,1037.58 1030.96,1037.64 1031.98,1037.7 1032.99,1037.75 1034,1003.1 1035.02,1003.13 1036.03,1003.15 1037.05,1003.17 1038.06,1003.19 1039.08,1003.22 1040.09,1003.24 1041.11,1003.26 1042.12,1003.28 1043.13,1003.3 1044.15,985.564 1045.16,985.651 1046.18,985.737 1047.19,985.82 1048.21,985.902 1049.22,985.981 1050.24,986.059 1051.25,986.136 1052.26,986.21 1053.28,986.283 1054.29,792.571 1055.31,792.609 1056.32,792.646 1057.34,792.682 1058.35,792.718 1059.37,792.753 1060.38,792.787 1061.39,792.821 1062.41,792.854 1063.42,792.886 1064.44,906.212 1065.45,906.226 1066.47,906.24 1067.48,906.254 1068.49,906.268 1069.51,906.282 1070.52,906.295 1071.54,906.308 1072.55,906.322 1073.57,906.335 1074.58,533.6 1075.6,533.635 1076.61,533.67 1077.62,533.705 1078.64,533.739 1079.65,533.773 1080.67,533.806 1081.68,533.839 1082.7,533.872 1083.71,533.904 1084.73,560.614 1085.74,560.666 1086.75,560.717 1087.77,560.767 1088.78,560.816 1089.8,560.864 1090.81,560.911 1091.83,560.957 1092.84,561.002 1093.86,561.046 1094.87,857.761 1095.88,857.828 1096.9,857.895 1097.91,857.961 1098.93,858.026 1099.94,858.09 1100.96,858.153 1101.97,858.215 1102.99,858.277 1104,858.338 1105.01,703.784 1106.03,703.825 1107.04,703.866 1108.06,703.905 1109.07,703.944 1110.09,703.982 1111.1,704.019 1112.12,704.056 1113.13,704.092 1114.14,704.127 1115.16,409.466 1116.17,409.499 1117.19,409.531 1118.2,409.563 1119.22,409.594 1120.23,409.625 1121.24,409.654 1122.26,409.683 1123.27,409.712 1124.29,409.74 1125.3,850.299 1126.32,850.339 1127.33,850.379 1128.35,850.418 1129.36,850.457 1130.37,850.495 1131.39,850.532 1132.4,850.568 1133.42,850.604 1134.43,850.639 1135.45,921.985 1136.46,921.998 1137.48,922.01 1138.49,922.022 1139.5,922.034 1140.52,922.046 1141.53,922.057 1142.55,922.069 1143.56,922.08 1144.58,922.091 1145.59,1047.01 1146.61,1047.03 1147.62,1047.05 1148.63,1047.07 1149.65,1047.09 1150.66,1047.1 1151.68,1047.12 1152.69,1047.14 1153.71,1047.16 1154.72,1047.18 1155.74,1059.53 1156.75,1059.61 1157.76,1059.69 1158.78,1059.77 1159.79,1059.84 1160.81,1059.92 1161.82,1059.99 1162.84,1060.06 1163.85,1060.13 1164.87,1060.19 1165.88,1137.96 1166.89,1138.04 1167.91,1138.12 1168.92,1138.19 1169.94,1138.27 1170.95,1138.35 1171.97,1138.42 1172.98,1138.49 1174,1138.56 1175.01,1138.64 1176.02,1085 1177.04,1085.11 1178.05,1085.21 1179.07,1085.31 1180.08,1085.41 1181.1,1085.51 1182.11,1085.6 1183.12,1085.69 1184.14,1085.78 1185.15,1085.87 1186.17,1030.03 1187.18,1030.04 1188.2,1030.06 1189.21,1030.07 1190.23,1030.09 1191.24,1030.1 1192.25,1030.12 1193.27,1030.13 1194.28,1030.15 1195.3,1030.16 1196.31,1178.38 1197.33,1178.4 1198.34,1178.41 1199.36,1178.43 1200.37,1178.45 1201.38,1178.46 1202.4,1178.48 1203.41,1178.5 1204.43,1178.51 1205.44,1178.53 1206.46,725.988 1207.47,726.018 1208.49,726.047 1209.5,726.075 1210.51,726.104 1211.53,726.132 1212.54,726.16 1213.56,726.187 1214.57,726.215 1215.59,726.242 1216.6,833.341 1217.62,833.37 1218.63,833.397 1219.64,833.425 1220.66,833.452 1221.67,833.478 1222.69,833.504 1223.7,833.529 1224.72,833.554 1225.73,833.578 1226.75,889.129 1227.76,889.16 1228.77,889.191 1229.79,889.221 1230.8,889.25 1231.82,889.279 1232.83,889.307 1233.85,889.334 1234.86,889.362 1235.87,889.388 1236.89,1092.69 1237.9,1092.72 1238.92,1092.75 1239.93,1092.78 1240.95,1092.81 1241.96,1092.84 1242.98,1092.87 1243.99,1092.89 1245,1092.92 1246.02,1092.95 1247.03,935.651 1248.05,935.664 1249.06,935.678 1250.08,935.691 1251.09,935.705 1252.11,935.718 1253.12,935.731 1254.13,935.743 1255.15,935.756 1256.16,935.768 1257.18,961.066 1258.19,961.131 1259.21,961.194 1260.22,961.255 1261.24,961.315 1262.25,961.374 1263.26,961.432 1264.28,961.489 1265.29,961.544 1266.31,961.598 1267.32,792.885 1268.34,792.927 1269.35,792.968 1270.37,793.008 1271.38,793.047 1272.39,793.085 1273.41,793.123 1274.42,793.159 1275.44,793.195 1276.45,793.23 1277.47,400.216 1278.48,400.267 1279.5,400.317 1280.51,400.367 1281.52,400.416 1282.54,400.464 1283.55,400.512 1284.57,400.559 1285.58,400.606 1286.6,400.652 1287.61,872.489 1288.62,872.557 1289.64,872.623 1290.65,872.688 1291.67,872.752 1292.68,872.814 1293.7,872.874 1294.71,872.933 1295.73,872.991 1296.74,873.048 1297.75,861.865 1298.77,861.918 1299.78,861.97 1300.8,862.02 1301.81,862.07 1302.83,862.118 1303.84,862.166 1304.86,862.212 1305.87,862.258 1306.88,862.302 1307.9,1092.78 1308.91,1092.85 1309.93,1092.91 1310.94,1092.96 1311.96,1093.02 1312.97,1093.08 1313.99,1093.14 1315,1093.19 1316.01,1093.25 1317.03,1093.3 1318.04,742.207 1319.06,742.239 1320.07,742.271 1321.09,742.302 1322.1,742.332 1323.12,742.362 1324.13,742.391 1325.14,742.42 1326.16,742.448 1327.17,742.475 1328.19,827.974 1329.2,828.069 1330.22,828.162 1331.23,828.252 1332.25,828.341 1333.26,828.428 1334.27,828.514 1335.29,828.597 1336.3,828.679 1337.32,828.76 1338.33,641.342 1339.35,641.383 1340.36,641.425 1341.38,641.465 1342.39,641.504 1343.4,641.543 1344.42,641.581 1345.43,641.618 1346.45,641.655 1347.46,641.691 1348.48,885.89 1349.49,885.939 1350.5,885.988 1351.52,886.037 1352.53,886.085 1353.55,886.133 1354.56,886.181 1355.58,886.228 1356.59,886.276 1357.61,886.323 1358.62,1022.31 1359.63,1022.38 1360.65,1022.45 1361.66,1022.52 1362.68,1022.59 1363.69,1022.66 1364.71,1022.72 1365.72,1022.79 1366.74,1022.85 1367.75,1022.91 1368.76,1096.17 1369.78,1096.22 1370.79,1096.27 1371.81,1096.32 1372.82,1096.37 1373.84,1096.42 1374.85,1096.47 1375.87,1096.51 1376.88,1096.56 1377.89,1096.61 1378.91,575.187 1379.92,575.227 1380.94,575.266 1381.95,575.304 1382.97,575.341 1383.98,575.377 1385,575.412 1386.01,575.447 1387.02,575.48 1388.04,575.513 1389.05,690.015 1390.07,690.083 1391.08,690.149 1392.1,690.215 1393.11,690.279 1394.13,690.343 1395.14,690.405 1396.15,690.467 1397.17,690.527 1398.18,690.587 1399.2,966.307 1400.21,966.34 1401.23,966.372 1402.24,966.403 1403.25,966.434 1404.27,966.464 1405.28,966.494 1406.3,966.522 1407.31,966.551 1408.33,966.578 1409.34,943.229 1410.36,943.244 1411.37,943.259 1412.38,943.273 1413.4,943.288 1414.41,943.302 1415.43,943.316 1416.44,943.33 1417.46,943.344 1418.47,943.358 1419.49,997.679 1420.5,997.695 1421.51,997.711 1422.53,997.727 1423.54,997.743 1424.56,997.759 1425.57,997.774 1426.59,997.789 1427.6,997.804 1428.62,997.819 1429.63,1129.15 1430.64,1129.17 1431.66,1129.19 1432.67,1129.21 1433.69,1129.22 1434.7,1129.24 1435.72,1129.26 1436.73,1129.27 1437.75,1129.29 1438.76,1129.31 1439.77,1158.25 1440.79,1158.28 1441.8,1158.3 1442.82,1158.33 1443.83,1158.35 1444.85,1158.37 1445.86,1158.4 1446.88,1158.42 1447.89,1158.44 1448.9,1158.46 1449.92,432.276 1450.93,432.368 1451.95,432.46 1452.96,432.549 1453.98,432.637 1454.99,432.723 1456,432.808 1457.02,432.892 1458.03,432.973 1459.05,433.054 1460.06,488.72 1461.08,488.746 1462.09,488.772 1463.11,488.798 1464.12,488.823 1465.13,488.847 1466.15,488.871 1467.16,488.894 1468.18,488.916 1469.19,488.939 1470.21,1068.06 1471.22,1068.09 1472.24,1068.13 1473.25,1068.17 1474.26,1068.2 1475.28,1068.23 1476.29,1068.27 1477.31,1068.3 1478.32,1068.33 1479.34,1068.36 1480.35,720.775 1481.37,720.819 1482.38,720.862 1483.39,720.904 1484.41,720.945 1485.42,720.986 1486.44,721.026 1487.45,721.066 1488.47,721.105 1489.48,721.144 1490.5,1104.14 1491.51,1104.15 1492.52,1104.17 1493.54,1104.18 1494.55,1104.2 1495.57,1104.21 1496.58,1104.23 1497.6,1104.24 1498.61,1104.25 1499.63,1104.27 1500.64,845.818 1501.65,845.839 1502.67,845.859 1503.68,845.88 1504.7,845.9 1505.71,845.921 1506.73,845.941 1507.74,845.96 1508.76,845.98 1509.77,846 1510.78,890.132 1511.8,890.187 1512.81,890.242 1513.83,890.297 1514.84,890.35 1515.86,890.402 1516.87,890.454 1517.88,890.505 1518.9,890.556 1519.91,890.605 1520.93,1233.38 1521.94,1233.47 1522.96,1233.56 1523.97,1233.65 1524.99,1233.73 1526,1233.82 1527.01,1233.9 1528.03,1233.98 1529.04,1234.06 1530.06,1234.13 1531.07,965.469 1532.09,965.517 1533.1,965.565 1534.12,965.613 1535.13,965.66 1536.14,965.707 1537.16,965.754 1538.17,965.8 1539.19,965.846 1540.2,965.891 1541.22,406.285 1542.23,406.344 1543.25,406.402 1544.26,406.458 1545.27,406.513 1546.29,406.567 1547.3,406.619 1548.32,406.67 1549.33,406.72 1550.35,406.768 1551.36,688.56 1552.38,688.601 1553.39,688.641 1554.4,688.68 1555.42,688.719 1556.43,688.757 1557.45,688.795 1558.46,688.831 1559.48,688.867 1560.49,688.903 1561.51,969.761 1562.52,969.782 1563.53,969.802 1564.55,969.822 1565.56,969.842 1566.58,969.861 1567.59,969.88 1568.61,969.899 1569.62,969.918 1570.63,969.937 1571.65,914.869 1572.66,914.913 1573.68,914.956 1574.69,914.999 1575.71,915.041 1576.72,915.082 1577.74,915.122 1578.75,915.162 1579.76,915.201 1580.78,915.24 1581.79,639.888 1582.81,639.93 1583.82,639.971 1584.84,640.011 1585.85,640.051 1586.87,640.089 1587.88,640.127 1588.89,640.165 1589.91,640.202 1590.92,640.238 1591.94,618.638 1592.95,618.664 1593.97,618.689 1594.98,618.714 1596,618.738 1597.01,618.762 1598.02,618.785 1599.04,618.807 1600.05,618.83 1601.07,618.851 1602.08,848.306 1603.1,848.362 1604.11,848.418 1605.13,848.473 1606.14,848.527 1607.15,848.581 1608.17,848.634 1609.18,848.686 1610.2,848.738 1611.21,848.789 1612.23,886.926 1613.24,886.933 1614.26,886.94 1615.27,886.947 1616.28,886.953 1617.3,886.96 1618.31,886.967 1619.33,886.974 1620.34,886.98 1621.36,886.987 1622.37,848.181 1623.38,848.195 1624.4,848.208 1625.41,848.222 1626.43,848.235 1627.44,848.248 1628.46,848.26 1629.47,848.273 1630.49,848.285 1631.5,848.297 1632.51,1023.09 1633.53,1023.18 1634.54,1023.26 1635.56,1023.34 1636.57,1023.43 1637.59,1023.51 1638.6,1023.59 1639.62,1023.66 1640.63,1023.74 1641.64,1023.82 1642.66,987.899 1643.67,987.93 1644.69,987.959 1645.7,987.989 1646.72,988.017 1647.73,988.046 1648.75,988.074 1649.76,988.102 1650.77,988.129 1651.79,988.156 1652.8,786.588 1653.82,786.608 1654.83,786.627 1655.85,786.646 1656.86,786.665 1657.88,786.684 1658.89,786.702 1659.9,786.721 1660.92,786.74 1661.93,786.758 1662.95,1039.44 1663.96,1039.47 1664.98,1039.5 1665.99,1039.52 1667.01,1039.55 1668.02,1039.58 1669.03,1039.6 1670.05,1039.63 1671.06,1039.65 1672.08,1039.67 1673.09,1205.54 1674.11,1205.6 1675.12,1205.66 1676.13,1205.72 1677.15,1205.77 1678.16,1205.83 1679.18,1205.88 1680.19,1205.93 1681.21,1205.98 1682.22,1206.03 1683.24,972.29 1684.25,972.37 1685.26,972.449 1686.28,972.525 1687.29,972.6 1688.31,972.673 1689.32,972.744 1690.34,972.814 1691.35,972.882 1692.37,972.948 1693.38,733.358 1694.39,733.404 1695.41,733.449 1696.42,733.494 1697.44,733.537 1698.45,733.58 1699.47,733.622 1700.48,733.663 1701.5,733.704 1702.51,733.744 1703.52,674.691 1704.54,674.701 1705.55,674.712 1706.57,674.722 1707.58,674.732 1708.6,674.742 1709.61,674.751 1710.63,674.761 1711.64,674.77 1712.65,674.78 1713.67,1289.22 1714.68,1289.26 1715.7,1289.29 1716.71,1289.33 1717.73,1289.37 1718.74,1289.41 1719.76,1289.44 1720.77,1289.48 1721.78,1289.51 1722.8,1289.55 1723.81,1158.26 1724.83,1158.32 1725.84,1158.38 1726.86,1158.44 1727.87,1158.5 1728.89,1158.56 1729.9,1158.62 1730.91,1158.67 1731.93,1158.73 1732.94,1158.78 1733.96,802.302 1734.97,802.345 1735.99,802.386 1737,802.427 1738.01,802.468 1739.03,802.507 1740.04,802.546 1741.06,802.584 1742.07,802.621 1743.09,802.658 1744.1,1052.6 1745.12,1052.67 1746.13,1052.73 1747.14,1052.78 1748.16,1052.84 1749.17,1052.9 1750.19,1052.95 1751.2,1053.01 1752.22,1053.06 1753.23,1053.11 1754.25,1188.63 1755.26,1188.66 1756.27,1188.68 1757.29,1188.71 1758.3,1188.73 1759.32,1188.76 1760.33,1188.78 1761.35,1188.81 1762.36,1188.83 1763.38,1188.85 1764.39,1070.93 1765.4,1070.96 1766.42,1070.99 1767.43,1071.02 1768.45,1071.05 1769.46,1071.07 1770.48,1071.1 1771.49,1071.13 1772.51,1071.15 1773.52,1071.18 1774.53,1009.82 1775.55,1009.85 1776.56,1009.88 1777.58,1009.9 1778.59,1009.93 1779.61,1009.96 1780.62,1009.98 1781.64,1010.01 1782.65,1010.03 1783.66,1010.05 1784.68,269.185 1785.69,269.243 1786.71,269.301 1787.72,269.357 1788.74,269.412 1789.75,269.466 1790.76,269.518 1791.78,269.57 1792.79,269.621 1793.81,269.671 1794.82,835.86 1795.84,835.894 1796.85,835.927 1797.87,835.96 1798.88,835.992 1799.89,836.023 1800.91,836.054 1801.92,836.084 1802.94,836.113 1803.95,836.142 1804.97,757.645 1805.98,757.657 1807,757.668 1808.01,757.68 1809.02,757.691 1810.04,757.703 1811.05,757.714 1812.07,757.725 1813.08,757.736 1814.1,757.747 1815.11,1034.43 1816.13,1034.49 1817.14,1034.55 1818.15,1034.6 1819.17,1034.66 1820.18,1034.71 1821.2,1034.76 1822.21,1034.81 1823.23,1034.86 1824.24,1034.91 1825.26,856.839 1826.27,856.856 1827.28,856.873 1828.3,856.89 1829.31,856.907 1830.33,856.924 1831.34,856.941 1832.36,856.957 1833.37,856.974 1834.39,856.99 1835.4,881.248 1836.41,881.28 1837.43,881.313 1838.44,881.344 1839.46,881.375 1840.47,881.405 1841.49,881.434 1842.5,881.462 1843.51,881.49 1844.53,881.518 1845.54,967.755 1846.56,967.778 1847.57,967.799 1848.59,967.821 1849.6,967.842 1850.62,967.862 1851.63,967.882 1852.64,967.901 1853.66,967.92 1854.67,967.939 1855.69,875.839 1856.7,875.849 1857.72,875.86 1858.73,875.87 1859.75,875.88 1860.76,875.89 1861.77,875.9 1862.79,875.909 1863.8,875.919 1864.82,875.928 1865.83,1067.78 1866.85,1067.83 1867.86,1067.88 1868.88,1067.93 1869.89,1067.98 1870.9,1068.02 1871.92,1068.07 1872.93,1068.12 1873.95,1068.16 1874.96,1068.21 1875.98,488.955 1876.99,488.981 1878.01,489.007 1879.02,489.033 1880.03,489.059 1881.05,489.084 1882.06,489.109 1883.08,489.134 1884.09,489.158 1885.11,489.182 1886.12,798.136 1887.14,798.231 1888.15,798.325 1889.16,798.416 1890.18,798.506 1891.19,798.593 1892.21,798.679 1893.22,798.763 1894.24,798.844 1895.25,798.925 1896.27,811.346 1897.28,811.377 1898.29,811.407 1899.31,811.437 1900.32,811.466 1901.34,811.494 1902.35,811.522 1903.37,811.55 1904.38,811.577 1905.39,811.603 1906.41,659.187 1907.42,659.253 1908.44,659.317 1909.45,659.38 1910.47,659.442 1911.48,659.502 1912.5,659.56 1913.51,659.617 1914.52,659.673 1915.54,659.727 1916.55,651.207 1917.57,651.227 1918.58,651.247 1919.6,651.266 1920.61,651.286 1921.63,651.305 1922.64,651.323 1923.65,651.342 1924.67,651.36 1925.68,651.378 1926.7,794.261 1927.71,794.286 1928.73,794.312 1929.74,794.337 1930.76,794.362 1931.77,794.386 1932.78,794.41 1933.8,794.434 1934.81,794.457 1935.83,794.48 1936.84,728.526 1937.86,728.556 1938.87,728.586 1939.89,728.615 1940.9,728.643 1941.91,728.671 1942.93,728.698 1943.94,728.725 1944.96,728.751 1945.97,728.776 1946.99,1340.02 1948,1340.06 1949.02,1340.1 1950.03,1340.14 1951.04,1340.18 1952.06,1340.22 1953.07,1340.26 1954.09,1340.3 1955.1,1340.33 1956.12,1340.37 1957.13,1000.3 1958.14,1000.32 1959.16,1000.33 1960.17,1000.35 1961.19,1000.37 1962.2,1000.39 1963.22,1000.41 1964.23,1000.42 1965.25,1000.44 1966.26,1000.46 1967.27,657.167 1968.29,657.25 1969.3,657.33 1970.32,657.409 1971.33,657.486 1972.35,657.562 1973.36,657.635 1974.38,657.707 1975.39,657.778 1976.4,657.846 1977.42,973.223 1978.43,973.254 1979.45,973.284 1980.46,973.313 1981.48,973.342 1982.49,973.371 1983.51,973.398 1984.52,973.426 1985.53,973.453 1986.55,973.48 1987.56,877.82 1988.58,877.844 1989.59,877.869 1990.61,877.892 1991.62,877.916 1992.64,877.939 1993.65,877.962 1994.66,877.985 1995.68,878.007 1996.69,878.029 1997.71,604.373 1998.72,604.411 1999.74,604.449 2000.75,604.486 2001.77,604.522 2002.78,604.558 2003.79,604.593 2004.81,604.628 2005.82,604.662 2006.84,604.696 2007.85,560.525 2008.87,560.545 2009.88,560.565 2010.89,560.585 2011.91,560.605 2012.92,560.624 2013.94,560.643 2014.95,560.663 2015.97,560.682 2016.98,560.701 2018,820.775 2019.01,820.798 2020.02,820.82 2021.04,820.841 2022.05,820.862 2023.07,820.883 2024.08,820.903 2025.1,820.923 2026.11,820.943 2027.13,820.962 2028.14,710.399 2029.15,710.432 2030.17,710.465 2031.18,710.497 2032.2,710.529 2033.21,710.56 2034.23,710.591 2035.24,710.621 2036.26,710.651 2037.27,710.68 2038.28,1226.4 2039.3,1226.43 2040.31,1226.46 2041.33,1226.49 2042.34,1226.52 2043.36,1226.55 2044.37,1226.59 2045.39,1226.62 2046.4,1226.64 2047.41,1226.67 2048.43,771.683 2049.44,771.755 2050.46,771.825 2051.47,771.895 2052.49,771.962 2053.5,772.029 2054.52,772.094 2055.53,772.158 2056.54,772.221 2057.56,772.282 2058.57,1019.18 2059.59,1019.21 2060.6,1019.24 2061.62,1019.27 2062.63,1019.29 2063.65,1019.32 2064.66,1019.35 2065.67,1019.37 2066.69,1019.4 2067.7,1019.43 2068.72,528.079 2069.73,528.13 2070.75,528.18 2071.76,528.229 2072.77,528.278 2073.79,528.326 2074.8,528.373 2075.82,528.42 2076.83,528.466 2077.85,528.512 2078.86,388.154 2079.88,388.188 2080.89,388.221 2081.9,388.254 2082.92,388.286 2083.93,388.318 2084.95,388.35 2085.96,388.381 2086.98,388.411 2087.99,388.441 2089.01,504.635 2090.02,504.655 2091.03,504.675 2092.05,504.695 2093.06,504.715 2094.08,504.734 2095.09,504.754 2096.11,504.773 2097.12,504.792 2098.14,504.811 2099.15,863.958 2100.16,864.025 2101.18,864.091 2102.19,864.156 2103.21,864.22 2104.22,864.282 2105.24,864.344 2106.25,864.405 2107.27,864.464 2108.28,864.523 2109.29,1065.25 2110.31,1065.26 2111.32,1065.28 2112.34,1065.29 2113.35,1065.3 2114.37,1065.32 2115.38,1065.33 2116.4,1065.34 2117.41,1065.35 2118.42,1065.36 2119.44,1114.16 2120.45,1114.18 2121.47,1114.2 2122.48,1114.22 2123.5,1114.25 2124.51,1114.27 2125.52,1114.29 2126.54,1114.31 2127.55,1114.33 2128.57,1114.35 2129.58,778.673 2130.6,778.699 2131.61,778.724 2132.63,778.749 2133.64,778.773 2134.65,778.797 2135.67,778.821 2136.68,778.844 2137.7,778.866 2138.71,778.889 2139.73,741.161 2140.74,741.18 2141.76,741.198 2142.77,741.217 2143.78,741.235 2144.8,741.254 2145.81,741.272 2146.83,741.29 2147.84,741.308 2148.86,741.325 2149.87,919.52 2150.89,919.551 2151.9,919.582 2152.91,919.612 2153.93,919.642 2154.94,919.67 2155.96,919.698 2156.97,919.726 2157.99,919.752 2159,919.779 2160.02,969.167 2161.03,969.207 2162.04,969.248 2163.06,969.287 2164.07,969.326 2165.09,969.365 2166.1,969.403 2167.12,969.441 2168.13,969.478 2169.15,969.515 2170.16,558.453 2171.17,558.492 2172.19,558.53 2173.2,558.567 2174.22,558.603 2175.23,558.638 2176.25,558.673 2177.26,558.707 2178.27,558.741 2179.29,558.773 2180.3,444.631 2181.32,444.788 2182.33,444.941 2183.35,445.09 2184.36,445.235 2185.38,445.377 2186.39,445.515 2187.4,445.649 2188.42,445.78 2189.43,445.908 2190.45,649.568 2191.46,649.62 2192.48,649.67 2193.49,649.72 2194.51,649.768 2195.52,649.816 2196.53,649.863 2197.55,649.908 2198.56,649.953 2199.58,649.997 2200.59,927.753 2201.61,927.777 2202.62,927.8 2203.64,927.824 2204.65,927.846 2205.66,927.869 2206.68,927.891 2207.69,927.913 2208.71,927.935 2209.72,927.956 2210.74,1128.79 2211.75,1128.81 2212.77,1128.83 2213.78,1128.84 2214.79,1128.86 2215.81,1128.88 2216.82,1128.9 2217.84,1128.92 2218.85,1128.94 2219.87,1128.96 2220.88,366.09 2221.9,366.119 2222.91,366.148 2223.92,366.176 2224.94,366.204 2225.95,366.232 2226.97,366.26 2227.98,366.288 2229,366.315 2230.01,366.342 2231.03,822.135 2232.04,822.185 2233.05,822.235 2234.07,822.284 2235.08,822.333 2236.1,822.381 2237.11,822.428 2238.13,822.475 2239.14,822.522 2240.15,822.567 2241.17,779.193 2242.18,779.229 2243.2,779.265 2244.21,779.299 2245.23,779.333 2246.24,779.366 2247.26,779.399 2248.27,779.43 2249.28,779.461 2250.3,779.491 2251.31,395.592 2252.33,395.636 2253.34,395.679 2254.36,395.72 2255.37,395.761 2256.39,395.801 2257.4,395.84 2258.41,395.878 2259.43,395.915 2260.44,395.952 2261.46,915.757 2262.47,915.775 2263.49,915.794 2264.5,915.812 2265.52,915.829 2266.53,915.847 2267.54,915.864 2268.56,915.88 2269.57,915.897 2270.59,915.913 2271.6,952.653 2272.62,952.673 2273.63,952.693 2274.65,952.713 2275.66,952.733 2276.67,952.753 2277.69,952.772 2278.7,952.792 2279.72,952.811 2280.73,952.83 2281.75,751.474 2282.76,751.49 2283.78,751.505 2284.79,751.52 2285.8,751.535 2286.82,751.55 2287.83,751.564 2288.85,751.579 2289.86,751.593 2290.88,751.608 2291.89,751.622 "/>
<path clip-path="url(#clip170)" d="M273.863 198.898 L541.351 198.898 L541.351 95.2176 L273.863 95.2176  Z" fill="#ffffff" fill-rule="evenodd" fill-opacity="1"/>
<polyline clip-path="url(#clip170)" style="stroke:#000000; stroke-linecap:round; stroke-linejoin:round; stroke-width:4; stroke-opacity:1; fill:none" points="273.863,198.898 541.351,198.898 541.351,95.2176 273.863,95.2176 273.863,198.898 "/>
<polyline clip-path="url(#clip170)" style="stroke:#009af9; stroke-linecap:round; stroke-linejoin:round; stroke-width:4; stroke-opacity:1; fill:none" points="297.758,147.058 441.13,147.058 "/>
<path clip-path="url(#clip170)" d="M478.868 166.745 Q477.062 171.375 475.349 172.787 Q473.636 174.199 470.766 174.199 L467.363 174.199 L467.363 170.634 L469.863 170.634 Q471.622 170.634 472.595 169.8 Q473.567 168.967 474.747 165.865 L475.511 163.921 L465.025 138.412 L469.539 138.412 L477.641 158.689 L485.743 138.412 L490.257 138.412 L478.868 166.745 Z" fill="#000000" fill-rule="nonzero" fill-opacity="1" /><path clip-path="url(#clip170)" d="M497.548 160.402 L505.187 160.402 L505.187 134.037 L496.877 135.703 L496.877 131.444 L505.141 129.778 L509.817 129.778 L509.817 160.402 L517.456 160.402 L517.456 164.338 L497.548 164.338 L497.548 160.402 Z" fill="#000000" fill-rule="nonzero" fill-opacity="1" /></svg>
