<?xml version="1.0" encoding="utf-8"?>
<svg xmlns="http://www.w3.org/2000/svg" xmlns:xlink="http://www.w3.org/1999/xlink" width="600" height="400" viewBox="0 0 2400 1600">
<defs>
  <clipPath id="clip120">
    <rect x="0" y="0" width="2400" height="1600"/>
  </clipPath>
</defs>
<path clip-path="url(#clip120)" d="M0 1600 L2400 1600 L2400 0 L0 0  Z" fill="#ffffff" fill-rule="evenodd" fill-opacity="1"/>
<defs>
  <clipPath id="clip121">
    <rect x="480" y="0" width="1681" height="1600"/>
  </clipPath>
</defs>
<path clip-path="url(#clip120)" d="M209.029 1486.45 L2352.76 1486.45 L2352.76 47.2441 L209.029 47.2441  Z" fill="#ffffff" fill-rule="evenodd" fill-opacity="1"/>
<defs>
  <clipPath id="clip122">
    <rect x="209" y="47" width="2145" height="1440"/>
  </clipPath>
</defs>
<polyline clip-path="url(#clip122)" style="stroke:#000000; stroke-linecap:round; stroke-linejoin:round; stroke-width:2; stroke-opacity:0.1; fill:none" points="269.7,1486.45 269.7,47.2441 "/>
<polyline clip-path="url(#clip122)" style="stroke:#000000; stroke-linecap:round; stroke-linejoin:round; stroke-width:2; stroke-opacity:0.1; fill:none" points="775.296,1486.45 775.296,47.2441 "/>
<polyline clip-path="url(#clip122)" style="stroke:#000000; stroke-linecap:round; stroke-linejoin:round; stroke-width:2; stroke-opacity:0.1; fill:none" points="1280.89,1486.45 1280.89,47.2441 "/>
<polyline clip-path="url(#clip122)" style="stroke:#000000; stroke-linecap:round; stroke-linejoin:round; stroke-width:2; stroke-opacity:0.1; fill:none" points="1786.49,1486.45 1786.49,47.2441 "/>
<polyline clip-path="url(#clip122)" style="stroke:#000000; stroke-linecap:round; stroke-linejoin:round; stroke-width:2; stroke-opacity:0.1; fill:none" points="2292.08,1486.45 2292.08,47.2441 "/>
<polyline clip-path="url(#clip120)" style="stroke:#000000; stroke-linecap:round; stroke-linejoin:round; stroke-width:4; stroke-opacity:1; fill:none" points="209.029,1486.45 2352.76,1486.45 "/>
<polyline clip-path="url(#clip120)" style="stroke:#000000; stroke-linecap:round; stroke-linejoin:round; stroke-width:4; stroke-opacity:1; fill:none" points="269.7,1486.45 269.7,1467.55 "/>
<polyline clip-path="url(#clip120)" style="stroke:#000000; stroke-linecap:round; stroke-linejoin:round; stroke-width:4; stroke-opacity:1; fill:none" points="775.296,1486.45 775.296,1467.55 "/>
<polyline clip-path="url(#clip120)" style="stroke:#000000; stroke-linecap:round; stroke-linejoin:round; stroke-width:4; stroke-opacity:1; fill:none" points="1280.89,1486.45 1280.89,1467.55 "/>
<polyline clip-path="url(#clip120)" style="stroke:#000000; stroke-linecap:round; stroke-linejoin:round; stroke-width:4; stroke-opacity:1; fill:none" points="1786.49,1486.45 1786.49,1467.55 "/>
<polyline clip-path="url(#clip120)" style="stroke:#000000; stroke-linecap:round; stroke-linejoin:round; stroke-width:4; stroke-opacity:1; fill:none" points="2292.08,1486.45 2292.08,1467.55 "/>
<path clip-path="url(#clip120)" d="M269.7 1517.37 Q266.089 1517.37 264.26 1520.93 Q262.455 1524.47 262.455 1531.6 Q262.455 1538.71 264.26 1542.27 Q266.089 1545.82 269.7 1545.82 Q273.334 1545.82 275.14 1542.27 Q276.969 1538.71 276.969 1531.6 Q276.969 1524.47 275.14 1520.93 Q273.334 1517.37 269.7 1517.37 M269.7 1513.66 Q275.51 1513.66 278.566 1518.27 Q281.644 1522.85 281.644 1531.6 Q281.644 1540.33 278.566 1544.94 Q275.51 1549.52 269.7 1549.52 Q263.89 1549.52 260.811 1544.94 Q257.756 1540.33 257.756 1531.6 Q257.756 1522.85 260.811 1518.27 Q263.89 1513.66 269.7 1513.66 Z" fill="#000000" fill-rule="nonzero" fill-opacity="1" /><path clip-path="url(#clip120)" d="M765.678 1544.91 L773.317 1544.91 L773.317 1518.55 L765.007 1520.21 L765.007 1515.95 L773.271 1514.29 L777.947 1514.29 L777.947 1544.91 L785.585 1544.91 L785.585 1548.85 L765.678 1548.85 L765.678 1544.91 Z" fill="#000000" fill-rule="nonzero" fill-opacity="1" /><path clip-path="url(#clip120)" d="M1275.55 1544.91 L1291.86 1544.91 L1291.86 1548.85 L1269.92 1548.85 L1269.92 1544.91 Q1272.58 1542.16 1277.17 1537.53 Q1281.77 1532.88 1282.95 1531.53 Q1285.2 1529.01 1286.08 1527.27 Q1286.98 1525.51 1286.98 1523.82 Q1286.98 1521.07 1285.04 1519.33 Q1283.11 1517.6 1280.01 1517.6 Q1277.81 1517.6 1275.36 1518.36 Q1272.93 1519.13 1270.15 1520.68 L1270.15 1515.95 Q1272.98 1514.82 1275.43 1514.24 Q1277.88 1513.66 1279.92 1513.66 Q1285.29 1513.66 1288.48 1516.35 Q1291.68 1519.03 1291.68 1523.52 Q1291.68 1525.65 1290.87 1527.57 Q1290.08 1529.47 1287.98 1532.07 Q1287.4 1532.74 1284.29 1535.95 Q1281.19 1539.15 1275.55 1544.91 Z" fill="#000000" fill-rule="nonzero" fill-opacity="1" /><path clip-path="url(#clip120)" d="M1790.74 1530.21 Q1794.09 1530.93 1795.97 1533.2 Q1797.87 1535.47 1797.87 1538.8 Q1797.87 1543.92 1794.35 1546.72 Q1790.83 1549.52 1784.35 1549.52 Q1782.17 1549.52 1779.86 1549.08 Q1777.56 1548.66 1775.11 1547.81 L1775.11 1543.29 Q1777.06 1544.43 1779.37 1545.01 Q1781.69 1545.58 1784.21 1545.58 Q1788.61 1545.58 1790.9 1543.85 Q1793.21 1542.11 1793.21 1538.8 Q1793.21 1535.75 1791.06 1534.03 Q1788.93 1532.3 1785.11 1532.3 L1781.08 1532.3 L1781.08 1528.45 L1785.3 1528.45 Q1788.75 1528.45 1790.57 1527.09 Q1792.4 1525.7 1792.4 1523.11 Q1792.4 1520.45 1790.5 1519.03 Q1788.63 1517.6 1785.11 1517.6 Q1783.19 1517.6 1780.99 1518.01 Q1778.79 1518.43 1776.15 1519.31 L1776.15 1515.14 Q1778.81 1514.4 1781.13 1514.03 Q1783.47 1513.66 1785.53 1513.66 Q1790.85 1513.66 1793.95 1516.09 Q1797.06 1518.5 1797.06 1522.62 Q1797.06 1525.49 1795.41 1527.48 Q1793.77 1529.45 1790.74 1530.21 Z" fill="#000000" fill-rule="nonzero" fill-opacity="1" /><path clip-path="url(#clip120)" d="M2295.09 1518.36 L2283.29 1536.81 L2295.09 1536.81 L2295.09 1518.36 M2293.87 1514.29 L2299.75 1514.29 L2299.75 1536.81 L2304.68 1536.81 L2304.68 1540.7 L2299.75 1540.7 L2299.75 1548.85 L2295.09 1548.85 L2295.09 1540.7 L2279.49 1540.7 L2279.49 1536.19 L2293.87 1514.29 Z" fill="#000000" fill-rule="nonzero" fill-opacity="1" /><polyline clip-path="url(#clip122)" style="stroke:#000000; stroke-linecap:round; stroke-linejoin:round; stroke-width:2; stroke-opacity:0.1; fill:none" points="209.029,1421.1 2352.76,1421.1 "/>
<polyline clip-path="url(#clip122)" style="stroke:#000000; stroke-linecap:round; stroke-linejoin:round; stroke-width:2; stroke-opacity:0.1; fill:none" points="209.029,1222.14 2352.76,1222.14 "/>
<polyline clip-path="url(#clip122)" style="stroke:#000000; stroke-linecap:round; stroke-linejoin:round; stroke-width:2; stroke-opacity:0.1; fill:none" points="209.029,1023.18 2352.76,1023.18 "/>
<polyline clip-path="url(#clip122)" style="stroke:#000000; stroke-linecap:round; stroke-linejoin:round; stroke-width:2; stroke-opacity:0.1; fill:none" points="209.029,824.217 2352.76,824.217 "/>
<polyline clip-path="url(#clip122)" style="stroke:#000000; stroke-linecap:round; stroke-linejoin:round; stroke-width:2; stroke-opacity:0.1; fill:none" points="209.029,625.257 2352.76,625.257 "/>
<polyline clip-path="url(#clip122)" style="stroke:#000000; stroke-linecap:round; stroke-linejoin:round; stroke-width:2; stroke-opacity:0.1; fill:none" points="209.029,426.297 2352.76,426.297 "/>
<polyline clip-path="url(#clip122)" style="stroke:#000000; stroke-linecap:round; stroke-linejoin:round; stroke-width:2; stroke-opacity:0.1; fill:none" points="209.029,227.337 2352.76,227.337 "/>
<polyline clip-path="url(#clip120)" style="stroke:#000000; stroke-linecap:round; stroke-linejoin:round; stroke-width:4; stroke-opacity:1; fill:none" points="209.029,1486.45 209.029,47.2441 "/>
<polyline clip-path="url(#clip120)" style="stroke:#000000; stroke-linecap:round; stroke-linejoin:round; stroke-width:4; stroke-opacity:1; fill:none" points="209.029,1421.1 227.926,1421.1 "/>
<polyline clip-path="url(#clip120)" style="stroke:#000000; stroke-linecap:round; stroke-linejoin:round; stroke-width:4; stroke-opacity:1; fill:none" points="209.029,1222.14 227.926,1222.14 "/>
<polyline clip-path="url(#clip120)" style="stroke:#000000; stroke-linecap:round; stroke-linejoin:round; stroke-width:4; stroke-opacity:1; fill:none" points="209.029,1023.18 227.926,1023.18 "/>
<polyline clip-path="url(#clip120)" style="stroke:#000000; stroke-linecap:round; stroke-linejoin:round; stroke-width:4; stroke-opacity:1; fill:none" points="209.029,824.217 227.926,824.217 "/>
<polyline clip-path="url(#clip120)" style="stroke:#000000; stroke-linecap:round; stroke-linejoin:round; stroke-width:4; stroke-opacity:1; fill:none" points="209.029,625.257 227.926,625.257 "/>
<polyline clip-path="url(#clip120)" style="stroke:#000000; stroke-linecap:round; stroke-linejoin:round; stroke-width:4; stroke-opacity:1; fill:none" points="209.029,426.297 227.926,426.297 "/>
<polyline clip-path="url(#clip120)" style="stroke:#000000; stroke-linecap:round; stroke-linejoin:round; stroke-width:4; stroke-opacity:1; fill:none" points="209.029,227.337 227.926,227.337 "/>
<path clip-path="url(#clip120)" d="M51.9875 1421.55 L81.6633 1421.55 L81.6633 1425.48 L51.9875 1425.48 L51.9875 1421.55 Z" fill="#000000" fill-rule="nonzero" fill-opacity="1" /><path clip-path="url(#clip120)" d="M91.8021 1403.82 L110.158 1403.82 L110.158 1407.75 L96.0845 1407.75 L96.0845 1416.22 Q97.103 1415.88 98.1215 1415.72 Q99.14 1415.53 100.159 1415.53 Q105.946 1415.53 109.325 1418.7 Q112.705 1421.87 112.705 1427.29 Q112.705 1432.87 109.233 1435.97 Q105.76 1439.05 99.4409 1439.05 Q97.265 1439.05 94.9965 1438.68 Q92.7512 1438.31 90.3438 1437.57 L90.3438 1432.87 Q92.4271 1434 94.6493 1434.56 Q96.8715 1435.11 99.3483 1435.11 Q103.353 1435.11 105.691 1433.01 Q108.029 1430.9 108.029 1427.29 Q108.029 1423.68 105.691 1421.57 Q103.353 1419.47 99.3483 1419.47 Q97.4734 1419.47 95.5984 1419.88 Q93.7465 1420.3 91.8021 1421.18 L91.8021 1403.82 Z" fill="#000000" fill-rule="nonzero" fill-opacity="1" /><path clip-path="url(#clip120)" d="M120.737 1403.82 L142.959 1403.82 L142.959 1405.81 L130.413 1438.38 L125.529 1438.38 L137.334 1407.75 L120.737 1407.75 L120.737 1403.82 Z" fill="#000000" fill-rule="nonzero" fill-opacity="1" /><path clip-path="url(#clip120)" d="M152.126 1403.82 L170.482 1403.82 L170.482 1407.75 L156.408 1407.75 L156.408 1416.22 Q157.427 1415.88 158.445 1415.72 Q159.464 1415.53 160.482 1415.53 Q166.269 1415.53 169.649 1418.7 Q173.029 1421.87 173.029 1427.29 Q173.029 1432.87 169.556 1435.97 Q166.084 1439.05 159.765 1439.05 Q157.589 1439.05 155.32 1438.68 Q153.075 1438.31 150.668 1437.57 L150.668 1432.87 Q152.751 1434 154.973 1434.56 Q157.195 1435.11 159.672 1435.11 Q163.677 1435.11 166.015 1433.01 Q168.353 1430.9 168.353 1427.29 Q168.353 1423.68 166.015 1421.57 Q163.677 1419.47 159.672 1419.47 Q157.797 1419.47 155.922 1419.88 Q154.07 1420.3 152.126 1421.18 L152.126 1403.82 Z" fill="#000000" fill-rule="nonzero" fill-opacity="1" /><path clip-path="url(#clip120)" d="M50.9921 1222.59 L80.6679 1222.59 L80.6679 1226.52 L50.9921 1226.52 L50.9921 1222.59 Z" fill="#000000" fill-rule="nonzero" fill-opacity="1" /><path clip-path="url(#clip120)" d="M90.8067 1204.86 L109.163 1204.86 L109.163 1208.79 L95.0891 1208.79 L95.0891 1217.26 Q96.1076 1216.92 97.1261 1216.76 Q98.1447 1216.57 99.1632 1216.57 Q104.95 1216.57 108.33 1219.74 Q111.709 1222.91 111.709 1228.33 Q111.709 1233.91 108.237 1237.01 Q104.765 1240.09 98.4456 1240.09 Q96.2697 1240.09 94.0012 1239.72 Q91.7558 1239.35 89.3484 1238.61 L89.3484 1233.91 Q91.4317 1235.04 93.6539 1235.6 Q95.8761 1236.15 98.353 1236.15 Q102.358 1236.15 104.696 1234.05 Q107.033 1231.94 107.033 1228.33 Q107.033 1224.72 104.696 1222.61 Q102.358 1220.51 98.353 1220.51 Q96.478 1220.51 94.603 1220.92 Q92.7512 1221.34 90.8067 1222.22 L90.8067 1204.86 Z" fill="#000000" fill-rule="nonzero" fill-opacity="1" /><path clip-path="url(#clip120)" d="M120.969 1204.86 L139.325 1204.86 L139.325 1208.79 L125.251 1208.79 L125.251 1217.26 Q126.27 1216.92 127.288 1216.76 Q128.307 1216.57 129.325 1216.57 Q135.112 1216.57 138.492 1219.74 Q141.871 1222.91 141.871 1228.33 Q141.871 1233.91 138.399 1237.01 Q134.927 1240.09 128.607 1240.09 Q126.432 1240.09 124.163 1239.72 Q121.918 1239.35 119.51 1238.61 L119.51 1233.91 Q121.594 1235.04 123.816 1235.6 Q126.038 1236.15 128.515 1236.15 Q132.519 1236.15 134.857 1234.05 Q137.195 1231.94 137.195 1228.33 Q137.195 1224.72 134.857 1222.61 Q132.519 1220.51 128.515 1220.51 Q126.64 1220.51 124.765 1220.92 Q122.913 1221.34 120.969 1222.22 L120.969 1204.86 Z" fill="#000000" fill-rule="nonzero" fill-opacity="1" /><path clip-path="url(#clip120)" d="M161.084 1207.94 Q157.473 1207.94 155.644 1211.5 Q153.839 1215.04 153.839 1222.17 Q153.839 1229.28 155.644 1232.84 Q157.473 1236.38 161.084 1236.38 Q164.718 1236.38 166.524 1232.84 Q168.353 1229.28 168.353 1222.17 Q168.353 1215.04 166.524 1211.5 Q164.718 1207.94 161.084 1207.94 M161.084 1204.23 Q166.894 1204.23 169.95 1208.84 Q173.029 1213.42 173.029 1222.17 Q173.029 1230.9 169.95 1235.51 Q166.894 1240.09 161.084 1240.09 Q155.274 1240.09 152.195 1235.51 Q149.14 1230.9 149.14 1222.17 Q149.14 1213.42 152.195 1208.84 Q155.274 1204.23 161.084 1204.23 Z" fill="#000000" fill-rule="nonzero" fill-opacity="1" /><path clip-path="url(#clip120)" d="M51.9875 1023.63 L81.6633 1023.63 L81.6633 1027.56 L51.9875 1027.56 L51.9875 1023.63 Z" fill="#000000" fill-rule="nonzero" fill-opacity="1" /><path clip-path="url(#clip120)" d="M91.8021 1005.9 L110.158 1005.9 L110.158 1009.83 L96.0845 1009.83 L96.0845 1018.3 Q97.103 1017.96 98.1215 1017.8 Q99.14 1017.61 100.159 1017.61 Q105.946 1017.61 109.325 1020.78 Q112.705 1023.95 112.705 1029.37 Q112.705 1034.95 109.233 1038.05 Q105.76 1041.13 99.4409 1041.13 Q97.265 1041.13 94.9965 1040.76 Q92.7512 1040.39 90.3438 1039.65 L90.3438 1034.95 Q92.4271 1036.08 94.6493 1036.64 Q96.8715 1037.19 99.3483 1037.19 Q103.353 1037.19 105.691 1035.09 Q108.029 1032.98 108.029 1029.37 Q108.029 1025.76 105.691 1023.65 Q103.353 1021.55 99.3483 1021.55 Q97.4734 1021.55 95.5984 1021.96 Q93.7465 1022.38 91.8021 1023.26 L91.8021 1005.9 Z" fill="#000000" fill-rule="nonzero" fill-opacity="1" /><path clip-path="url(#clip120)" d="M125.945 1036.52 L142.265 1036.52 L142.265 1040.46 L120.32 1040.46 L120.32 1036.52 Q122.982 1033.77 127.566 1029.14 Q132.172 1024.49 133.353 1023.14 Q135.598 1020.62 136.478 1018.88 Q137.381 1017.12 137.381 1015.43 Q137.381 1012.68 135.436 1010.94 Q133.515 1009.21 130.413 1009.21 Q128.214 1009.21 125.76 1009.97 Q123.33 1010.74 120.552 1012.29 L120.552 1007.56 Q123.376 1006.43 125.83 1005.85 Q128.283 1005.27 130.32 1005.27 Q135.691 1005.27 138.885 1007.96 Q142.08 1010.64 142.08 1015.13 Q142.08 1017.26 141.269 1019.18 Q140.482 1021.08 138.376 1023.67 Q137.797 1024.35 134.695 1027.56 Q131.594 1030.76 125.945 1036.52 Z" fill="#000000" fill-rule="nonzero" fill-opacity="1" /><path clip-path="url(#clip120)" d="M152.126 1005.9 L170.482 1005.9 L170.482 1009.83 L156.408 1009.83 L156.408 1018.3 Q157.427 1017.96 158.445 1017.8 Q159.464 1017.61 160.482 1017.61 Q166.269 1017.61 169.649 1020.78 Q173.029 1023.95 173.029 1029.37 Q173.029 1034.95 169.556 1038.05 Q166.084 1041.13 159.765 1041.13 Q157.589 1041.13 155.32 1040.76 Q153.075 1040.39 150.668 1039.65 L150.668 1034.95 Q152.751 1036.08 154.973 1036.64 Q157.195 1037.19 159.672 1037.19 Q163.677 1037.19 166.015 1035.09 Q168.353 1032.98 168.353 1029.37 Q168.353 1025.76 166.015 1023.65 Q163.677 1021.55 159.672 1021.55 Q157.797 1021.55 155.922 1021.96 Q154.07 1022.38 152.126 1023.26 L152.126 1005.9 Z" fill="#000000" fill-rule="nonzero" fill-opacity="1" /><path clip-path="url(#clip120)" d="M50.9921 824.669 L80.6679 824.669 L80.6679 828.604 L50.9921 828.604 L50.9921 824.669 Z" fill="#000000" fill-rule="nonzero" fill-opacity="1" /><path clip-path="url(#clip120)" d="M90.8067 806.937 L109.163 806.937 L109.163 810.872 L95.0891 810.872 L95.0891 819.345 Q96.1076 818.997 97.1261 818.835 Q98.1447 818.65 99.1632 818.65 Q104.95 818.65 108.33 821.822 Q111.709 824.993 111.709 830.409 Q111.709 835.988 108.237 839.09 Q104.765 842.169 98.4456 842.169 Q96.2697 842.169 94.0012 841.798 Q91.7558 841.428 89.3484 840.687 L89.3484 835.988 Q91.4317 837.122 93.6539 837.678 Q95.8761 838.233 98.353 838.233 Q102.358 838.233 104.696 836.127 Q107.033 834.021 107.033 830.409 Q107.033 826.798 104.696 824.692 Q102.358 822.585 98.353 822.585 Q96.478 822.585 94.603 823.002 Q92.7512 823.419 90.8067 824.298 L90.8067 806.937 Z" fill="#000000" fill-rule="nonzero" fill-opacity="1" /><path clip-path="url(#clip120)" d="M130.922 810.016 Q127.311 810.016 125.482 813.581 Q123.677 817.122 123.677 824.252 Q123.677 831.358 125.482 834.923 Q127.311 838.465 130.922 838.465 Q134.556 838.465 136.362 834.923 Q138.191 831.358 138.191 824.252 Q138.191 817.122 136.362 813.581 Q134.556 810.016 130.922 810.016 M130.922 806.312 Q136.732 806.312 139.788 810.919 Q142.867 815.502 142.867 824.252 Q142.867 832.979 139.788 837.585 Q136.732 842.169 130.922 842.169 Q125.112 842.169 122.033 837.585 Q118.978 832.979 118.978 824.252 Q118.978 815.502 122.033 810.919 Q125.112 806.312 130.922 806.312 Z" fill="#000000" fill-rule="nonzero" fill-opacity="1" /><path clip-path="url(#clip120)" d="M161.084 810.016 Q157.473 810.016 155.644 813.581 Q153.839 817.122 153.839 824.252 Q153.839 831.358 155.644 834.923 Q157.473 838.465 161.084 838.465 Q164.718 838.465 166.524 834.923 Q168.353 831.358 168.353 824.252 Q168.353 817.122 166.524 813.581 Q164.718 810.016 161.084 810.016 M161.084 806.312 Q166.894 806.312 169.95 810.919 Q173.029 815.502 173.029 824.252 Q173.029 832.979 169.95 837.585 Q166.894 842.169 161.084 842.169 Q155.274 842.169 152.195 837.585 Q149.14 832.979 149.14 824.252 Q149.14 815.502 152.195 810.919 Q155.274 806.312 161.084 806.312 Z" fill="#000000" fill-rule="nonzero" fill-opacity="1" /><path clip-path="url(#clip120)" d="M51.9875 625.709 L81.6633 625.709 L81.6633 629.644 L51.9875 629.644 L51.9875 625.709 Z" fill="#000000" fill-rule="nonzero" fill-opacity="1" /><path clip-path="url(#clip120)" d="M104.603 612.051 L92.7975 630.5 L104.603 630.5 L104.603 612.051 M103.376 607.977 L109.256 607.977 L109.256 630.5 L114.186 630.5 L114.186 634.389 L109.256 634.389 L109.256 642.537 L104.603 642.537 L104.603 634.389 L89.0012 634.389 L89.0012 629.875 L103.376 607.977 Z" fill="#000000" fill-rule="nonzero" fill-opacity="1" /><path clip-path="url(#clip120)" d="M120.737 607.977 L142.959 607.977 L142.959 609.968 L130.413 642.537 L125.529 642.537 L137.334 611.913 L120.737 611.913 L120.737 607.977 Z" fill="#000000" fill-rule="nonzero" fill-opacity="1" /><path clip-path="url(#clip120)" d="M152.126 607.977 L170.482 607.977 L170.482 611.913 L156.408 611.913 L156.408 620.385 Q157.427 620.037 158.445 619.875 Q159.464 619.69 160.482 619.69 Q166.269 619.69 169.649 622.862 Q173.029 626.033 173.029 631.449 Q173.029 637.028 169.556 640.13 Q166.084 643.209 159.765 643.209 Q157.589 643.209 155.32 642.838 Q153.075 642.468 150.668 641.727 L150.668 637.028 Q152.751 638.162 154.973 638.718 Q157.195 639.273 159.672 639.273 Q163.677 639.273 166.015 637.167 Q168.353 635.061 168.353 631.449 Q168.353 627.838 166.015 625.732 Q163.677 623.625 159.672 623.625 Q157.797 623.625 155.922 624.042 Q154.07 624.459 152.126 625.338 L152.126 607.977 Z" fill="#000000" fill-rule="nonzero" fill-opacity="1" /><path clip-path="url(#clip120)" d="M50.9921 426.749 L80.6679 426.749 L80.6679 430.684 L50.9921 430.684 L50.9921 426.749 Z" fill="#000000" fill-rule="nonzero" fill-opacity="1" /><path clip-path="url(#clip120)" d="M103.608 413.091 L91.8021 431.54 L103.608 431.54 L103.608 413.091 M102.381 409.017 L108.26 409.017 L108.26 431.54 L113.191 431.54 L113.191 435.429 L108.26 435.429 L108.26 443.577 L103.608 443.577 L103.608 435.429 L88.0058 435.429 L88.0058 430.915 L102.381 409.017 Z" fill="#000000" fill-rule="nonzero" fill-opacity="1" /><path clip-path="url(#clip120)" d="M120.969 409.017 L139.325 409.017 L139.325 412.953 L125.251 412.953 L125.251 421.425 Q126.27 421.078 127.288 420.915 Q128.307 420.73 129.325 420.73 Q135.112 420.73 138.492 423.902 Q141.871 427.073 141.871 432.489 Q141.871 438.068 138.399 441.17 Q134.927 444.249 128.607 444.249 Q126.432 444.249 124.163 443.878 Q121.918 443.508 119.51 442.767 L119.51 438.068 Q121.594 439.202 123.816 439.758 Q126.038 440.314 128.515 440.314 Q132.519 440.314 134.857 438.207 Q137.195 436.101 137.195 432.489 Q137.195 428.878 134.857 426.772 Q132.519 424.665 128.515 424.665 Q126.64 424.665 124.765 425.082 Q122.913 425.499 120.969 426.378 L120.969 409.017 Z" fill="#000000" fill-rule="nonzero" fill-opacity="1" /><path clip-path="url(#clip120)" d="M161.084 412.096 Q157.473 412.096 155.644 415.661 Q153.839 419.203 153.839 426.332 Q153.839 433.439 155.644 437.003 Q157.473 440.545 161.084 440.545 Q164.718 440.545 166.524 437.003 Q168.353 433.439 168.353 426.332 Q168.353 419.203 166.524 415.661 Q164.718 412.096 161.084 412.096 M161.084 408.392 Q166.894 408.392 169.95 412.999 Q173.029 417.582 173.029 426.332 Q173.029 435.059 169.95 439.665 Q166.894 444.249 161.084 444.249 Q155.274 444.249 152.195 439.665 Q149.14 435.059 149.14 426.332 Q149.14 417.582 152.195 412.999 Q155.274 408.392 161.084 408.392 Z" fill="#000000" fill-rule="nonzero" fill-opacity="1" /><path clip-path="url(#clip120)" d="M51.9875 227.789 L81.6633 227.789 L81.6633 231.724 L51.9875 231.724 L51.9875 227.789 Z" fill="#000000" fill-rule="nonzero" fill-opacity="1" /><path clip-path="url(#clip120)" d="M104.603 214.131 L92.7975 232.58 L104.603 232.58 L104.603 214.131 M103.376 210.057 L109.256 210.057 L109.256 232.58 L114.186 232.58 L114.186 236.469 L109.256 236.469 L109.256 244.617 L104.603 244.617 L104.603 236.469 L89.0012 236.469 L89.0012 231.955 L103.376 210.057 Z" fill="#000000" fill-rule="nonzero" fill-opacity="1" /><path clip-path="url(#clip120)" d="M125.945 240.682 L142.265 240.682 L142.265 244.617 L120.32 244.617 L120.32 240.682 Q122.982 237.928 127.566 233.298 Q132.172 228.645 133.353 227.303 Q135.598 224.78 136.478 223.043 Q137.381 221.284 137.381 219.594 Q137.381 216.84 135.436 215.104 Q133.515 213.368 130.413 213.368 Q128.214 213.368 125.76 214.131 Q123.33 214.895 120.552 216.446 L120.552 211.724 Q123.376 210.59 125.83 210.011 Q128.283 209.432 130.32 209.432 Q135.691 209.432 138.885 212.118 Q142.08 214.803 142.08 219.293 Q142.08 221.423 141.269 223.344 Q140.482 225.243 138.376 227.835 Q137.797 228.506 134.695 231.724 Q131.594 234.918 125.945 240.682 Z" fill="#000000" fill-rule="nonzero" fill-opacity="1" /><path clip-path="url(#clip120)" d="M152.126 210.057 L170.482 210.057 L170.482 213.993 L156.408 213.993 L156.408 222.465 Q157.427 222.118 158.445 221.956 Q159.464 221.77 160.482 221.77 Q166.269 221.77 169.649 224.942 Q173.029 228.113 173.029 233.53 Q173.029 239.108 169.556 242.21 Q166.084 245.289 159.765 245.289 Q157.589 245.289 155.32 244.918 Q153.075 244.548 150.668 243.807 L150.668 239.108 Q152.751 240.242 154.973 240.798 Q157.195 241.354 159.672 241.354 Q163.677 241.354 166.015 239.247 Q168.353 237.141 168.353 233.53 Q168.353 229.918 166.015 227.812 Q163.677 225.706 159.672 225.706 Q157.797 225.706 155.922 226.122 Q154.07 226.539 152.126 227.418 L152.126 210.057 Z" fill="#000000" fill-rule="nonzero" fill-opacity="1" /><polyline clip-path="url(#clip122)" style="stroke:#009af9; stroke-linecap:round; stroke-linejoin:round; stroke-width:4; stroke-opacity:1; fill:none" points="269.7,88.6269 775.296,87.9763 1280.89,1042.64 1786.49,1041.22 2292.08,1445.72 "/>
<path clip-path="url(#clip120)" d="M2014.5 198.898 L2281.3 198.898 L2281.3 95.2176 L2014.5 95.2176  Z" fill="#ffffff" fill-rule="evenodd" fill-opacity="1"/>
<polyline clip-path="url(#clip120)" style="stroke:#000000; stroke-linecap:round; stroke-linejoin:round; stroke-width:4; stroke-opacity:1; fill:none" points="2014.5,198.898 2281.3,198.898 2281.3,95.2176 2014.5,95.2176 2014.5,198.898 "/>
<polyline clip-path="url(#clip120)" style="stroke:#009af9; stroke-linecap:round; stroke-linejoin:round; stroke-width:4; stroke-opacity:1; fill:none" points="2038.31,147.058 2181.23,147.058 "/>
<path clip-path="url(#clip120)" d="M2218.89 166.745 Q2217.09 171.375 2215.37 172.787 Q2213.66 174.199 2210.79 174.199 L2207.39 174.199 L2207.39 170.634 L2209.89 170.634 Q2211.65 170.634 2212.62 169.8 Q2213.59 168.967 2214.77 165.865 L2215.53 163.921 L2205.05 138.412 L2209.56 138.412 L2217.66 158.689 L2225.77 138.412 L2230.28 138.412 L2218.89 166.745 Z" fill="#000000" fill-rule="nonzero" fill-opacity="1" /><path clip-path="url(#clip120)" d="M2237.57 160.402 L2245.21 160.402 L2245.21 134.037 L2236.9 135.703 L2236.9 131.444 L2245.16 129.778 L2249.84 129.778 L2249.84 160.402 L2257.48 160.402 L2257.48 164.338 L2237.57 164.338 L2237.57 160.402 Z" fill="#000000" fill-rule="nonzero" fill-opacity="1" /></svg>
