<?xml version="1.0" encoding="utf-8"?>
<svg xmlns="http://www.w3.org/2000/svg" xmlns:xlink="http://www.w3.org/1999/xlink" width="600" height="400" viewBox="0 0 2400 1600">
<defs>
  <clipPath id="clip060">
    <rect x="0" y="0" width="2400" height="1600"/>
  </clipPath>
</defs>
<path clip-path="url(#clip060)" d="M0 1600 L2400 1600 L2400 0 L0 0  Z" fill="#ffffff" fill-rule="evenodd" fill-opacity="1"/>
<defs>
  <clipPath id="clip061">
    <rect x="480" y="0" width="1681" height="1600"/>
  </clipPath>
</defs>
<path clip-path="url(#clip060)" d="M156.274 1486.45 L2352.76 1486.45 L2352.76 47.2441 L156.274 47.2441  Z" fill="#ffffff" fill-rule="evenodd" fill-opacity="1"/>
<defs>
  <clipPath id="clip062">
    <rect x="156" y="47" width="2197" height="1440"/>
  </clipPath>
</defs>
<polyline clip-path="url(#clip062)" style="stroke:#000000; stroke-linecap:round; stroke-linejoin:round; stroke-width:2; stroke-opacity:0.1; fill:none" points="218.439,1486.45 218.439,47.2441 "/>
<polyline clip-path="url(#clip062)" style="stroke:#000000; stroke-linecap:round; stroke-linejoin:round; stroke-width:2; stroke-opacity:0.1; fill:none" points="736.995,1486.45 736.995,47.2441 "/>
<polyline clip-path="url(#clip062)" style="stroke:#000000; stroke-linecap:round; stroke-linejoin:round; stroke-width:2; stroke-opacity:0.1; fill:none" points="1255.55,1486.45 1255.55,47.2441 "/>
<polyline clip-path="url(#clip062)" style="stroke:#000000; stroke-linecap:round; stroke-linejoin:round; stroke-width:2; stroke-opacity:0.1; fill:none" points="1774.11,1486.45 1774.11,47.2441 "/>
<polyline clip-path="url(#clip062)" style="stroke:#000000; stroke-linecap:round; stroke-linejoin:round; stroke-width:2; stroke-opacity:0.1; fill:none" points="2292.67,1486.45 2292.67,47.2441 "/>
<polyline clip-path="url(#clip060)" style="stroke:#000000; stroke-linecap:round; stroke-linejoin:round; stroke-width:4; stroke-opacity:1; fill:none" points="156.274,1486.45 2352.76,1486.45 "/>
<polyline clip-path="url(#clip060)" style="stroke:#000000; stroke-linecap:round; stroke-linejoin:round; stroke-width:4; stroke-opacity:1; fill:none" points="218.439,1486.45 218.439,1467.55 "/>
<polyline clip-path="url(#clip060)" style="stroke:#000000; stroke-linecap:round; stroke-linejoin:round; stroke-width:4; stroke-opacity:1; fill:none" points="736.995,1486.45 736.995,1467.55 "/>
<polyline clip-path="url(#clip060)" style="stroke:#000000; stroke-linecap:round; stroke-linejoin:round; stroke-width:4; stroke-opacity:1; fill:none" points="1255.55,1486.45 1255.55,1467.55 "/>
<polyline clip-path="url(#clip060)" style="stroke:#000000; stroke-linecap:round; stroke-linejoin:round; stroke-width:4; stroke-opacity:1; fill:none" points="1774.11,1486.45 1774.11,1467.55 "/>
<polyline clip-path="url(#clip060)" style="stroke:#000000; stroke-linecap:round; stroke-linejoin:round; stroke-width:4; stroke-opacity:1; fill:none" points="2292.67,1486.45 2292.67,1467.55 "/>
<path clip-path="url(#clip060)" d="M218.439 1517.37 Q214.828 1517.37 212.999 1520.93 Q211.193 1524.47 211.193 1531.6 Q211.193 1538.71 212.999 1542.27 Q214.828 1545.82 218.439 1545.82 Q222.073 1545.82 223.879 1542.27 Q225.707 1538.71 225.707 1531.6 Q225.707 1524.47 223.879 1520.93 Q222.073 1517.37 218.439 1517.37 M218.439 1513.66 Q224.249 1513.66 227.304 1518.27 Q230.383 1522.85 230.383 1531.6 Q230.383 1540.33 227.304 1544.94 Q224.249 1549.52 218.439 1549.52 Q212.629 1549.52 209.55 1544.94 Q206.494 1540.33 206.494 1531.6 Q206.494 1522.85 209.55 1518.27 Q212.629 1513.66 218.439 1513.66 Z" fill="#000000" fill-rule="nonzero" fill-opacity="1" /><path clip-path="url(#clip060)" d="M700.688 1544.91 L717.007 1544.91 L717.007 1548.85 L695.063 1548.85 L695.063 1544.91 Q697.725 1542.16 702.308 1537.53 Q706.915 1532.88 708.095 1531.53 Q710.34 1529.01 711.22 1527.27 Q712.123 1525.51 712.123 1523.82 Q712.123 1521.07 710.178 1519.33 Q708.257 1517.6 705.155 1517.6 Q702.956 1517.6 700.503 1518.36 Q698.072 1519.13 695.294 1520.68 L695.294 1515.95 Q698.118 1514.82 700.572 1514.24 Q703.026 1513.66 705.063 1513.66 Q710.433 1513.66 713.628 1516.35 Q716.822 1519.03 716.822 1523.52 Q716.822 1525.65 716.012 1527.57 Q715.225 1529.47 713.118 1532.07 Q712.54 1532.74 709.438 1535.95 Q706.336 1539.15 700.688 1544.91 Z" fill="#000000" fill-rule="nonzero" fill-opacity="1" /><path clip-path="url(#clip060)" d="M726.868 1514.29 L745.225 1514.29 L745.225 1518.22 L731.151 1518.22 L731.151 1526.7 Q732.169 1526.35 733.188 1526.19 Q734.206 1526 735.225 1526 Q741.012 1526 744.391 1529.17 Q747.771 1532.34 747.771 1537.76 Q747.771 1543.34 744.299 1546.44 Q740.826 1549.52 734.507 1549.52 Q732.331 1549.52 730.063 1549.15 Q727.817 1548.78 725.41 1548.04 L725.41 1543.34 Q727.493 1544.47 729.715 1545.03 Q731.938 1545.58 734.414 1545.58 Q738.419 1545.58 740.757 1543.48 Q743.095 1541.37 743.095 1537.76 Q743.095 1534.15 740.757 1532.04 Q738.419 1529.94 734.414 1529.94 Q732.539 1529.94 730.664 1530.35 Q728.813 1530.77 726.868 1531.65 L726.868 1514.29 Z" fill="#000000" fill-rule="nonzero" fill-opacity="1" /><path clip-path="url(#clip060)" d="M766.984 1517.37 Q763.373 1517.37 761.544 1520.93 Q759.738 1524.47 759.738 1531.6 Q759.738 1538.71 761.544 1542.27 Q763.373 1545.82 766.984 1545.82 Q770.618 1545.82 772.423 1542.27 Q774.252 1538.71 774.252 1531.6 Q774.252 1524.47 772.423 1520.93 Q770.618 1517.37 766.984 1517.37 M766.984 1513.66 Q772.794 1513.66 775.849 1518.27 Q778.928 1522.85 778.928 1531.6 Q778.928 1540.33 775.849 1544.94 Q772.794 1549.52 766.984 1549.52 Q761.174 1549.52 758.095 1544.94 Q755.039 1540.33 755.039 1531.6 Q755.039 1522.85 758.095 1518.27 Q761.174 1513.66 766.984 1513.66 Z" fill="#000000" fill-rule="nonzero" fill-opacity="1" /><path clip-path="url(#clip060)" d="M1215.17 1514.29 L1233.53 1514.29 L1233.53 1518.22 L1219.45 1518.22 L1219.45 1526.7 Q1220.47 1526.35 1221.49 1526.19 Q1222.51 1526 1223.53 1526 Q1229.31 1526 1232.69 1529.17 Q1236.07 1532.34 1236.07 1537.76 Q1236.07 1543.34 1232.6 1546.44 Q1229.13 1549.52 1222.81 1549.52 Q1220.63 1549.52 1218.36 1549.15 Q1216.12 1548.78 1213.71 1548.04 L1213.71 1543.34 Q1215.8 1544.47 1218.02 1545.03 Q1220.24 1545.58 1222.72 1545.58 Q1226.72 1545.58 1229.06 1543.48 Q1231.4 1541.37 1231.4 1537.76 Q1231.4 1534.15 1229.06 1532.04 Q1226.72 1529.94 1222.72 1529.94 Q1220.84 1529.94 1218.97 1530.35 Q1217.11 1530.77 1215.17 1531.65 L1215.17 1514.29 Z" fill="#000000" fill-rule="nonzero" fill-opacity="1" /><path clip-path="url(#clip060)" d="M1255.29 1517.37 Q1251.67 1517.37 1249.85 1520.93 Q1248.04 1524.47 1248.04 1531.6 Q1248.04 1538.71 1249.85 1542.27 Q1251.67 1545.82 1255.29 1545.82 Q1258.92 1545.82 1260.73 1542.27 Q1262.55 1538.71 1262.55 1531.6 Q1262.55 1524.47 1260.73 1520.93 Q1258.92 1517.37 1255.29 1517.37 M1255.29 1513.66 Q1261.1 1513.66 1264.15 1518.27 Q1267.23 1522.85 1267.23 1531.6 Q1267.23 1540.33 1264.15 1544.94 Q1261.1 1549.52 1255.29 1549.52 Q1249.48 1549.52 1246.4 1544.94 Q1243.34 1540.33 1243.34 1531.6 Q1243.34 1522.85 1246.4 1518.27 Q1249.48 1513.66 1255.29 1513.66 Z" fill="#000000" fill-rule="nonzero" fill-opacity="1" /><path clip-path="url(#clip060)" d="M1285.45 1517.37 Q1281.84 1517.37 1280.01 1520.93 Q1278.2 1524.47 1278.2 1531.6 Q1278.2 1538.71 1280.01 1542.27 Q1281.84 1545.82 1285.45 1545.82 Q1289.08 1545.82 1290.89 1542.27 Q1292.72 1538.71 1292.72 1531.6 Q1292.72 1524.47 1290.89 1520.93 Q1289.08 1517.37 1285.45 1517.37 M1285.45 1513.66 Q1291.26 1513.66 1294.31 1518.27 Q1297.39 1522.85 1297.39 1531.6 Q1297.39 1540.33 1294.31 1544.94 Q1291.26 1549.52 1285.45 1549.52 Q1279.64 1549.52 1276.56 1544.94 Q1273.5 1540.33 1273.5 1531.6 Q1273.5 1522.85 1276.56 1518.27 Q1279.64 1513.66 1285.45 1513.66 Z" fill="#000000" fill-rule="nonzero" fill-opacity="1" /><path clip-path="url(#clip060)" d="M1732.38 1514.29 L1754.61 1514.29 L1754.61 1516.28 L1742.06 1548.85 L1737.18 1548.85 L1748.98 1518.22 L1732.38 1518.22 L1732.38 1514.29 Z" fill="#000000" fill-rule="nonzero" fill-opacity="1" /><path clip-path="url(#clip060)" d="M1763.77 1514.29 L1782.13 1514.29 L1782.13 1518.22 L1768.06 1518.22 L1768.06 1526.7 Q1769.07 1526.35 1770.09 1526.19 Q1771.11 1526 1772.13 1526 Q1777.92 1526 1781.3 1529.17 Q1784.68 1532.34 1784.68 1537.76 Q1784.68 1543.34 1781.2 1546.44 Q1777.73 1549.52 1771.41 1549.52 Q1769.24 1549.52 1766.97 1549.15 Q1764.72 1548.78 1762.31 1548.04 L1762.31 1543.34 Q1764.4 1544.47 1766.62 1545.03 Q1768.84 1545.58 1771.32 1545.58 Q1775.32 1545.58 1777.66 1543.48 Q1780 1541.37 1780 1537.76 Q1780 1534.15 1777.66 1532.04 Q1775.32 1529.94 1771.32 1529.94 Q1769.44 1529.94 1767.57 1530.35 Q1765.72 1530.77 1763.77 1531.65 L1763.77 1514.29 Z" fill="#000000" fill-rule="nonzero" fill-opacity="1" /><path clip-path="url(#clip060)" d="M1803.89 1517.37 Q1800.28 1517.37 1798.45 1520.93 Q1796.64 1524.47 1796.64 1531.6 Q1796.64 1538.71 1798.45 1542.27 Q1800.28 1545.82 1803.89 1545.82 Q1807.52 1545.82 1809.33 1542.27 Q1811.16 1538.71 1811.16 1531.6 Q1811.16 1524.47 1809.33 1520.93 Q1807.52 1517.37 1803.89 1517.37 M1803.89 1513.66 Q1809.7 1513.66 1812.75 1518.27 Q1815.83 1522.85 1815.83 1531.6 Q1815.83 1540.33 1812.75 1544.94 Q1809.7 1549.52 1803.89 1549.52 Q1798.08 1549.52 1795 1544.94 Q1791.94 1540.33 1791.94 1531.6 Q1791.94 1522.85 1795 1518.27 Q1798.08 1513.66 1803.89 1513.66 Z" fill="#000000" fill-rule="nonzero" fill-opacity="1" /><path clip-path="url(#clip060)" d="M2237.19 1544.91 L2244.83 1544.91 L2244.83 1518.55 L2236.52 1520.21 L2236.52 1515.95 L2244.78 1514.29 L2249.46 1514.29 L2249.46 1544.91 L2257.1 1544.91 L2257.1 1548.85 L2237.19 1548.85 L2237.19 1544.91 Z" fill="#000000" fill-rule="nonzero" fill-opacity="1" /><path clip-path="url(#clip060)" d="M2276.54 1517.37 Q2272.93 1517.37 2271.1 1520.93 Q2269.3 1524.47 2269.3 1531.6 Q2269.3 1538.71 2271.1 1542.27 Q2272.93 1545.82 2276.54 1545.82 Q2280.18 1545.82 2281.98 1542.27 Q2283.81 1538.71 2283.81 1531.6 Q2283.81 1524.47 2281.98 1520.93 Q2280.18 1517.37 2276.54 1517.37 M2276.54 1513.66 Q2282.35 1513.66 2285.41 1518.27 Q2288.49 1522.85 2288.49 1531.6 Q2288.49 1540.33 2285.41 1544.94 Q2282.35 1549.52 2276.54 1549.52 Q2270.73 1549.52 2267.65 1544.94 Q2264.6 1540.33 2264.6 1531.6 Q2264.6 1522.85 2267.65 1518.27 Q2270.73 1513.66 2276.54 1513.66 Z" fill="#000000" fill-rule="nonzero" fill-opacity="1" /><path clip-path="url(#clip060)" d="M2306.7 1517.37 Q2303.09 1517.37 2301.27 1520.93 Q2299.46 1524.47 2299.46 1531.6 Q2299.46 1538.71 2301.27 1542.27 Q2303.09 1545.82 2306.7 1545.82 Q2310.34 1545.82 2312.14 1542.27 Q2313.97 1538.71 2313.97 1531.6 Q2313.97 1524.47 2312.14 1520.93 Q2310.34 1517.37 2306.7 1517.37 M2306.7 1513.66 Q2312.51 1513.66 2315.57 1518.27 Q2318.65 1522.85 2318.65 1531.6 Q2318.65 1540.33 2315.57 1544.94 Q2312.51 1549.52 2306.7 1549.52 Q2300.89 1549.52 2297.82 1544.94 Q2294.76 1540.33 2294.76 1531.6 Q2294.76 1522.85 2297.82 1518.27 Q2300.89 1513.66 2306.7 1513.66 Z" fill="#000000" fill-rule="nonzero" fill-opacity="1" /><path clip-path="url(#clip060)" d="M2336.87 1517.37 Q2333.26 1517.37 2331.43 1520.93 Q2329.62 1524.47 2329.62 1531.6 Q2329.62 1538.71 2331.43 1542.27 Q2333.26 1545.82 2336.87 1545.82 Q2340.5 1545.82 2342.31 1542.27 Q2344.14 1538.71 2344.14 1531.6 Q2344.14 1524.47 2342.31 1520.93 Q2340.5 1517.37 2336.87 1517.37 M2336.87 1513.66 Q2342.68 1513.66 2345.73 1518.27 Q2348.81 1522.85 2348.81 1531.6 Q2348.81 1540.33 2345.73 1544.94 Q2342.68 1549.52 2336.87 1549.52 Q2331.06 1549.52 2327.98 1544.94 Q2324.92 1540.33 2324.92 1531.6 Q2324.92 1522.85 2327.98 1518.27 Q2331.06 1513.66 2336.87 1513.66 Z" fill="#000000" fill-rule="nonzero" fill-opacity="1" /><polyline clip-path="url(#clip062)" style="stroke:#000000; stroke-linecap:round; stroke-linejoin:round; stroke-width:2; stroke-opacity:0.1; fill:none" points="156.274,1341.27 2352.76,1341.27 "/>
<polyline clip-path="url(#clip062)" style="stroke:#000000; stroke-linecap:round; stroke-linejoin:round; stroke-width:2; stroke-opacity:0.1; fill:none" points="156.274,1080.17 2352.76,1080.17 "/>
<polyline clip-path="url(#clip062)" style="stroke:#000000; stroke-linecap:round; stroke-linejoin:round; stroke-width:2; stroke-opacity:0.1; fill:none" points="156.274,819.067 2352.76,819.067 "/>
<polyline clip-path="url(#clip062)" style="stroke:#000000; stroke-linecap:round; stroke-linejoin:round; stroke-width:2; stroke-opacity:0.1; fill:none" points="156.274,557.963 2352.76,557.963 "/>
<polyline clip-path="url(#clip062)" style="stroke:#000000; stroke-linecap:round; stroke-linejoin:round; stroke-width:2; stroke-opacity:0.1; fill:none" points="156.274,296.859 2352.76,296.859 "/>
<polyline clip-path="url(#clip060)" style="stroke:#000000; stroke-linecap:round; stroke-linejoin:round; stroke-width:4; stroke-opacity:1; fill:none" points="156.274,1486.45 156.274,47.2441 "/>
<polyline clip-path="url(#clip060)" style="stroke:#000000; stroke-linecap:round; stroke-linejoin:round; stroke-width:4; stroke-opacity:1; fill:none" points="156.274,1341.27 175.172,1341.27 "/>
<polyline clip-path="url(#clip060)" style="stroke:#000000; stroke-linecap:round; stroke-linejoin:round; stroke-width:4; stroke-opacity:1; fill:none" points="156.274,1080.17 175.172,1080.17 "/>
<polyline clip-path="url(#clip060)" style="stroke:#000000; stroke-linecap:round; stroke-linejoin:round; stroke-width:4; stroke-opacity:1; fill:none" points="156.274,819.067 175.172,819.067 "/>
<polyline clip-path="url(#clip060)" style="stroke:#000000; stroke-linecap:round; stroke-linejoin:round; stroke-width:4; stroke-opacity:1; fill:none" points="156.274,557.963 175.172,557.963 "/>
<polyline clip-path="url(#clip060)" style="stroke:#000000; stroke-linecap:round; stroke-linejoin:round; stroke-width:4; stroke-opacity:1; fill:none" points="156.274,296.859 175.172,296.859 "/>
<path clip-path="url(#clip060)" d="M64.0939 1327.07 Q60.4828 1327.07 58.6541 1330.64 Q56.8486 1334.18 56.8486 1341.31 Q56.8486 1348.42 58.6541 1351.98 Q60.4828 1355.52 64.0939 1355.52 Q67.7281 1355.52 69.5337 1351.98 Q71.3624 1348.42 71.3624 1341.31 Q71.3624 1334.18 69.5337 1330.64 Q67.7281 1327.07 64.0939 1327.07 M64.0939 1323.37 Q69.9041 1323.37 72.9596 1327.98 Q76.0383 1332.56 76.0383 1341.31 Q76.0383 1350.04 72.9596 1354.64 Q69.9041 1359.23 64.0939 1359.23 Q58.2838 1359.23 55.2051 1354.64 Q52.1495 1350.04 52.1495 1341.31 Q52.1495 1332.56 55.2051 1327.98 Q58.2838 1323.37 64.0939 1323.37 Z" fill="#000000" fill-rule="nonzero" fill-opacity="1" /><path clip-path="url(#clip060)" d="M84.2558 1352.67 L89.1401 1352.67 L89.1401 1358.55 L84.2558 1358.55 L84.2558 1352.67 Z" fill="#000000" fill-rule="nonzero" fill-opacity="1" /><path clip-path="url(#clip060)" d="M99.3715 1323.99 L117.728 1323.99 L117.728 1327.93 L103.654 1327.93 L103.654 1336.4 Q104.672 1336.05 105.691 1335.89 Q106.709 1335.71 107.728 1335.71 Q113.515 1335.71 116.895 1338.88 Q120.274 1342.05 120.274 1347.47 Q120.274 1353.04 116.802 1356.15 Q113.33 1359.23 107.01 1359.23 Q104.834 1359.23 102.566 1358.86 Q100.321 1358.48 97.9132 1357.74 L97.9132 1353.04 Q99.9965 1354.18 102.219 1354.73 Q104.441 1355.29 106.918 1355.29 Q110.922 1355.29 113.26 1353.18 Q115.598 1351.08 115.598 1347.47 Q115.598 1343.86 113.26 1341.75 Q110.922 1339.64 106.918 1339.64 Q105.043 1339.64 103.168 1340.06 Q101.316 1340.48 99.3715 1341.36 L99.3715 1323.99 Z" fill="#000000" fill-rule="nonzero" fill-opacity="1" /><path clip-path="url(#clip060)" d="M62.9365 1065.97 Q59.3254 1065.97 57.4967 1069.53 Q55.6912 1073.08 55.6912 1080.21 Q55.6912 1087.31 57.4967 1090.88 Q59.3254 1094.42 62.9365 1094.42 Q66.5707 1094.42 68.3763 1090.88 Q70.205 1087.31 70.205 1080.21 Q70.205 1073.08 68.3763 1069.53 Q66.5707 1065.97 62.9365 1065.97 M62.9365 1062.27 Q68.7467 1062.27 71.8022 1066.87 Q74.8809 1071.46 74.8809 1080.21 Q74.8809 1088.93 71.8022 1093.54 Q68.7467 1098.12 62.9365 1098.12 Q57.1264 1098.12 54.0477 1093.54 Q50.9921 1088.93 50.9921 1080.21 Q50.9921 1071.46 54.0477 1066.87 Q57.1264 1062.27 62.9365 1062.27 Z" fill="#000000" fill-rule="nonzero" fill-opacity="1" /><path clip-path="url(#clip060)" d="M83.0984 1091.57 L87.9827 1091.57 L87.9827 1097.45 L83.0984 1097.45 L83.0984 1091.57 Z" fill="#000000" fill-rule="nonzero" fill-opacity="1" /><path clip-path="url(#clip060)" d="M108.746 1078.31 Q105.598 1078.31 103.746 1080.46 Q101.918 1082.61 101.918 1086.36 Q101.918 1090.09 103.746 1092.27 Q105.598 1094.42 108.746 1094.42 Q111.895 1094.42 113.723 1092.27 Q115.575 1090.09 115.575 1086.36 Q115.575 1082.61 113.723 1080.46 Q111.895 1078.31 108.746 1078.31 M118.029 1063.65 L118.029 1067.91 Q116.27 1067.08 114.464 1066.64 Q112.682 1066.2 110.922 1066.2 Q106.293 1066.2 103.839 1069.33 Q101.409 1072.45 101.061 1078.77 Q102.427 1076.76 104.487 1075.69 Q106.547 1074.6 109.024 1074.6 Q114.233 1074.6 117.242 1077.77 Q120.274 1080.92 120.274 1086.36 Q120.274 1091.69 117.126 1094.9 Q113.978 1098.12 108.746 1098.12 Q102.751 1098.12 99.5798 1093.54 Q96.4085 1088.93 96.4085 1080.21 Q96.4085 1072.01 100.297 1067.15 Q104.186 1062.27 110.737 1062.27 Q112.496 1062.27 114.279 1062.61 Q116.084 1062.96 118.029 1063.65 Z" fill="#000000" fill-rule="nonzero" fill-opacity="1" /><path clip-path="url(#clip060)" d="M64.0013 804.865 Q60.3902 804.865 58.5615 808.43 Q56.756 811.972 56.756 819.101 Q56.756 826.208 58.5615 829.773 Q60.3902 833.314 64.0013 833.314 Q67.6356 833.314 69.4411 829.773 Q71.2698 826.208 71.2698 819.101 Q71.2698 811.972 69.4411 808.43 Q67.6356 804.865 64.0013 804.865 M64.0013 801.162 Q69.8115 801.162 72.867 805.768 Q75.9457 810.351 75.9457 819.101 Q75.9457 827.828 72.867 832.435 Q69.8115 837.018 64.0013 837.018 Q58.1912 837.018 55.1125 832.435 Q52.0569 827.828 52.0569 819.101 Q52.0569 810.351 55.1125 805.768 Q58.1912 801.162 64.0013 801.162 Z" fill="#000000" fill-rule="nonzero" fill-opacity="1" /><path clip-path="url(#clip060)" d="M84.1632 830.467 L89.0475 830.467 L89.0475 836.347 L84.1632 836.347 L84.1632 830.467 Z" fill="#000000" fill-rule="nonzero" fill-opacity="1" /><path clip-path="url(#clip060)" d="M98.0521 801.787 L120.274 801.787 L120.274 803.777 L107.728 836.347 L102.844 836.347 L114.649 805.722 L98.0521 805.722 L98.0521 801.787 Z" fill="#000000" fill-rule="nonzero" fill-opacity="1" /><path clip-path="url(#clip060)" d="M63.1911 543.762 Q59.58 543.762 57.7513 547.326 Q55.9458 550.868 55.9458 557.998 Q55.9458 565.104 57.7513 568.669 Q59.58 572.211 63.1911 572.211 Q66.8254 572.211 68.6309 568.669 Q70.4596 565.104 70.4596 557.998 Q70.4596 550.868 68.6309 547.326 Q66.8254 543.762 63.1911 543.762 M63.1911 540.058 Q69.0013 540.058 72.0568 544.664 Q75.1355 549.248 75.1355 557.998 Q75.1355 566.725 72.0568 571.331 Q69.0013 575.914 63.1911 575.914 Q57.381 575.914 54.3023 571.331 Q51.2468 566.725 51.2468 557.998 Q51.2468 549.248 54.3023 544.664 Q57.381 540.058 63.1911 540.058 Z" fill="#000000" fill-rule="nonzero" fill-opacity="1" /><path clip-path="url(#clip060)" d="M83.3531 569.363 L88.2373 569.363 L88.2373 575.243 L83.3531 575.243 L83.3531 569.363 Z" fill="#000000" fill-rule="nonzero" fill-opacity="1" /><path clip-path="url(#clip060)" d="M108.422 558.831 Q105.089 558.831 103.168 560.613 Q101.27 562.396 101.27 565.521 Q101.27 568.646 103.168 570.428 Q105.089 572.211 108.422 572.211 Q111.756 572.211 113.677 570.428 Q115.598 568.623 115.598 565.521 Q115.598 562.396 113.677 560.613 Q111.779 558.831 108.422 558.831 M103.746 556.84 Q100.737 556.1 99.0474 554.039 Q97.3808 551.979 97.3808 549.016 Q97.3808 544.873 100.321 542.465 Q103.284 540.058 108.422 540.058 Q113.584 540.058 116.524 542.465 Q119.464 544.873 119.464 549.016 Q119.464 551.979 117.774 554.039 Q116.108 556.1 113.121 556.84 Q116.501 557.627 118.376 559.919 Q120.274 562.211 120.274 565.521 Q120.274 570.544 117.195 573.229 Q114.14 575.914 108.422 575.914 Q102.705 575.914 99.6261 573.229 Q96.5706 570.544 96.5706 565.521 Q96.5706 562.211 98.4687 559.919 Q100.367 557.627 103.746 556.84 M102.034 549.456 Q102.034 552.141 103.7 553.646 Q105.39 555.151 108.422 555.151 Q111.432 555.151 113.121 553.646 Q114.834 552.141 114.834 549.456 Q114.834 546.771 113.121 545.266 Q111.432 543.762 108.422 543.762 Q105.39 543.762 103.7 545.266 Q102.034 546.771 102.034 549.456 Z" fill="#000000" fill-rule="nonzero" fill-opacity="1" /><path clip-path="url(#clip060)" d="M63.2837 282.658 Q59.6726 282.658 57.8439 286.223 Q56.0384 289.764 56.0384 296.894 Q56.0384 304 57.8439 307.565 Q59.6726 311.107 63.2837 311.107 Q66.918 311.107 68.7235 307.565 Q70.5522 304 70.5522 296.894 Q70.5522 289.764 68.7235 286.223 Q66.918 282.658 63.2837 282.658 M63.2837 278.954 Q69.0939 278.954 72.1494 283.561 Q75.2281 288.144 75.2281 296.894 Q75.2281 305.621 72.1494 310.227 Q69.0939 314.811 63.2837 314.811 Q57.4736 314.811 54.3949 310.227 Q51.3393 305.621 51.3393 296.894 Q51.3393 288.144 54.3949 283.561 Q57.4736 278.954 63.2837 278.954 Z" fill="#000000" fill-rule="nonzero" fill-opacity="1" /><path clip-path="url(#clip060)" d="M83.4457 308.26 L88.3299 308.26 L88.3299 314.139 L83.4457 314.139 L83.4457 308.26 Z" fill="#000000" fill-rule="nonzero" fill-opacity="1" /><path clip-path="url(#clip060)" d="M98.6539 313.422 L98.6539 309.162 Q100.413 309.996 102.219 310.436 Q104.024 310.875 105.76 310.875 Q110.39 310.875 112.82 307.774 Q115.274 304.649 115.621 298.306 Q114.279 300.297 112.219 301.362 Q110.158 302.426 107.658 302.426 Q102.473 302.426 99.4409 299.301 Q96.4317 296.153 96.4317 290.713 Q96.4317 285.389 99.5798 282.172 Q102.728 278.954 107.959 278.954 Q113.955 278.954 117.103 283.561 Q120.274 288.144 120.274 296.894 Q120.274 305.065 116.385 309.949 Q112.52 314.811 105.969 314.811 Q104.209 314.811 102.404 314.463 Q100.598 314.116 98.6539 313.422 M107.959 298.769 Q111.108 298.769 112.936 296.616 Q114.788 294.463 114.788 290.713 Q114.788 286.987 112.936 284.834 Q111.108 282.658 107.959 282.658 Q104.811 282.658 102.959 284.834 Q101.131 286.987 101.131 290.713 Q101.131 294.463 102.959 296.616 Q104.811 298.769 107.959 298.769 Z" fill="#000000" fill-rule="nonzero" fill-opacity="1" /><polyline clip-path="url(#clip062)" style="stroke:#009af9; stroke-linecap:round; stroke-linejoin:round; stroke-width:4; stroke-opacity:1; fill:none" points="218.439,714.625 220.513,714.625 222.587,871.287 224.661,975.729 226.736,1080.17 228.81,1080.17 230.884,923.508 232.958,1027.95 235.033,714.625 237.107,1080.17 239.181,871.287 241.255,1393.49 243.329,871.287 245.404,1445.72 247.478,819.067 249.552,819.067 251.626,1027.95 253.701,975.729 255.775,1027.95 257.849,1080.17 259.923,1080.17 261.998,1027.95 264.072,1132.39 266.146,923.508 268.22,923.508 270.294,1080.17 272.369,819.067 274.443,819.067 276.517,923.508 278.591,1236.83 280.666,819.067 282.74,1080.17 284.814,975.729 286.888,1080.17 288.962,819.067 291.037,975.729 293.111,871.287 295.185,975.729 297.259,819.067 299.334,871.287 301.408,923.508 303.482,975.729 305.556,766.846 307.63,714.625 309.705,1080.17 311.779,871.287 313.853,1027.95 315.927,1080.17 318.002,871.287 320.076,975.729 322.15,923.508 324.224,1132.39 326.299,871.287 328.373,662.404 330.447,557.963 332.521,714.625 334.595,871.287 336.67,923.508 338.744,819.067 340.818,1080.17 342.892,975.729 344.967,819.067 347.041,923.508 349.115,923.508 351.189,871.287 353.263,1184.61 355.338,714.625 357.412,714.625 359.486,871.287 361.56,923.508 363.635,923.508 365.709,871.287 367.783,766.846 369.857,610.184 371.932,923.508 374.006,1289.05 376.08,819.067 378.154,1027.95 380.228,662.404 382.303,871.287 384.377,975.729 386.451,1236.83 388.525,1080.17 390.6,1132.39 392.674,714.625 394.748,714.625 396.822,1027.95 398.896,871.287 400.971,1289.05 403.045,819.067 405.119,1080.17 407.193,1080.17 409.268,662.404 411.342,1027.95 413.416,923.508 415.49,1027.95 417.565,714.625 419.639,1027.95 421.713,923.508 423.787,714.625 425.861,871.287 427.936,871.287 430.01,923.508 432.084,1080.17 434.158,923.508 436.233,714.625 438.307,871.287 440.381,714.625 442.455,975.729 444.529,1080.17 446.604,975.729 448.678,975.729 450.752,1027.95 452.826,819.067 454.901,1080.17 456.975,923.508 459.049,1080.17 461.123,923.508 463.198,1080.17 465.272,923.508 467.346,819.067 469.42,1184.61 471.494,505.742 473.569,766.846 475.643,923.508 477.717,819.067 479.791,714.625 481.866,1080.17 483.94,871.287 486.014,1132.39 488.088,871.287 490.162,923.508 492.237,1236.83 494.311,819.067 496.385,662.404 498.459,819.067 500.534,766.846 502.608,923.508 504.682,1132.39 506.756,923.508 508.83,871.287 510.905,766.846 512.979,610.184 515.053,610.184 517.127,871.287 519.202,975.729 521.276,662.404 523.35,1289.05 525.424,766.846 527.499,923.508 529.573,819.067 531.647,1027.95 533.721,766.846 535.795,610.184 537.87,871.287 539.944,1184.61 542.018,1132.39 544.092,1184.61 546.167,714.625 548.241,923.508 550.315,871.287 552.389,923.508 554.463,1080.17 556.538,1289.05 558.612,1132.39 560.686,975.729 562.76,819.067 564.835,819.067 566.909,766.846 568.983,766.846 571.057,766.846 573.132,766.846 575.206,557.963 577.28,871.287 579.354,766.846 581.428,505.742 583.503,1236.83 585.577,662.404 587.651,871.287 589.725,871.287 591.8,1080.17 593.874,1184.61 595.948,819.067 598.022,871.287 600.096,662.404 602.171,1080.17 604.245,766.846 606.319,662.404 608.393,871.287 610.468,871.287 612.542,505.742 614.616,975.729 616.69,714.625 618.765,610.184 620.839,1132.39 622.913,766.846 624.987,819.067 627.061,819.067 629.136,610.184 631.21,714.625 633.284,557.963 635.358,871.287 637.433,662.404 639.507,923.508 641.581,1132.39 643.655,871.287 645.729,766.846 647.804,1027.95 649.878,714.625 651.952,766.846 654.026,1027.95 656.101,662.404 658.175,766.846 660.249,819.067 662.323,871.287 664.398,714.625 666.472,505.742 668.546,766.846 670.62,766.846 672.694,975.729 674.769,975.729 676.843,505.742 678.917,1027.95 680.991,766.846 683.066,610.184 685.14,557.963 687.214,871.287 689.288,871.287 691.362,505.742 693.437,505.742 695.511,975.729 697.585,662.404 699.659,610.184 701.734,610.184 703.808,923.508 705.882,766.846 707.956,766.846 710.03,766.846 712.105,923.508 714.179,871.287 716.253,1027.95 718.327,766.846 720.402,819.067 722.476,975.729 724.55,975.729 726.624,923.508 728.699,923.508 730.773,819.067 732.847,975.729 734.921,557.963 736.995,401.301 739.07,1027.95 741.144,610.184 743.218,610.184 745.292,662.404 747.367,766.846 749.441,505.742 751.515,766.846 753.589,975.729 755.663,662.404 757.738,975.729 759.812,766.846 761.886,1184.61 763.96,819.067 766.035,923.508 768.109,714.625 770.183,766.846 772.257,766.846 774.332,975.729 776.406,505.742 778.48,819.067 780.554,819.067 782.628,610.184 784.703,819.067 786.777,975.729 788.851,610.184 790.925,610.184 793,766.846 795.074,819.067 797.148,975.729 799.222,923.508 801.296,975.729 803.371,557.963 805.445,819.067 807.519,662.404 809.593,610.184 811.668,819.067 813.742,610.184 815.816,871.287 817.89,557.963 819.965,505.742 822.039,714.625 824.113,819.067 826.187,505.742 828.261,871.287 830.336,923.508 832.41,505.742 834.484,610.184 836.558,1080.17 838.633,766.846 840.707,557.963 842.781,871.287 844.855,819.067 846.929,819.067 849.004,610.184 851.078,662.404 853.152,244.639 855.226,819.067 857.301,610.184 859.375,714.625 861.449,557.963 863.523,819.067 865.598,610.184 867.672,819.067 869.746,714.625 871.82,871.287 873.894,453.522 875.969,662.404 878.043,662.404 880.117,1027.95 882.191,766.846 884.266,975.729 886.34,662.404 888.414,610.184 890.488,610.184 892.562,557.963 894.637,871.287 896.711,766.846 898.785,557.963 900.859,662.404 902.934,505.742 905.008,557.963 907.082,923.508 909.156,610.184 911.23,505.742 913.305,766.846 915.379,975.729 917.453,349.08 919.527,453.522 921.602,714.625 923.676,819.067 925.75,610.184 927.824,662.404 929.899,505.742 931.973,819.067 934.047,557.963 936.121,557.963 938.195,662.404 940.27,505.742 942.344,714.625 944.418,766.846 946.492,714.625 948.567,1027.95 950.641,923.508 952.715,766.846 954.789,505.742 956.863,557.963 958.938,662.404 961.012,819.067 963.086,871.287 965.16,714.625 967.235,714.625 969.309,662.404 971.383,610.184 973.457,505.742 975.532,505.742 977.606,557.963 979.68,662.404 981.754,557.963 983.828,662.404 985.903,766.846 987.977,557.963 990.051,557.963 992.125,401.301 994.2,714.625 996.274,662.404 998.348,923.508 1000.42,923.508 1002.5,610.184 1004.57,296.859 1006.64,662.404 1008.72,610.184 1010.79,662.404 1012.87,610.184 1014.94,819.067 1017.02,819.067 1019.09,610.184 1021.16,714.625 1023.24,871.287 1025.31,557.963 1027.39,871.287 1029.46,610.184 1031.54,557.963 1033.61,662.404 1035.68,662.404 1037.76,766.846 1039.83,453.522 1041.91,453.522 1043.98,819.067 1046.06,714.625 1048.13,662.404 1050.2,714.625 1052.28,610.184 1054.35,453.522 1056.43,819.067 1058.5,819.067 1060.57,610.184 1062.65,557.963 1064.72,610.184 1066.8,453.522 1068.87,505.742 1070.95,557.963 1073.02,714.625 1075.09,557.963 1077.17,453.522 1079.24,610.184 1081.32,610.184 1083.39,819.067 1085.47,662.404 1087.54,714.625 1089.61,505.742 1091.69,714.625 1093.76,505.742 1095.84,923.508 1097.91,819.067 1099.99,557.963 1102.06,610.184 1104.13,505.742 1106.21,610.184 1108.28,662.404 1110.36,610.184 1112.43,766.846 1114.5,453.522 1116.58,557.963 1118.65,557.963 1120.73,662.404 1122.8,923.508 1124.88,349.08 1126.95,714.625 1129.02,610.184 1131.1,662.404 1133.17,505.742 1135.25,662.404 1137.32,662.404 1139.4,349.08 1141.47,610.184 1143.54,557.963 1145.62,453.522 1147.69,714.625 1149.77,610.184 1151.84,610.184 1153.92,610.184 1155.99,610.184 1158.06,505.742 1160.14,453.522 1162.21,453.522 1164.29,1132.39 1166.36,610.184 1168.43,453.522 1170.51,505.742 1172.58,610.184 1174.66,505.742 1176.73,714.625 1178.81,453.522 1180.88,766.846 1182.95,453.522 1185.03,505.742 1187.1,662.404 1189.18,662.404 1191.25,714.625 1193.33,662.404 1195.4,662.404 1197.47,662.404 1199.55,557.963 1201.62,505.742 1203.7,610.184 1205.77,610.184 1207.84,766.846 1209.92,714.625 1211.99,610.184 1214.07,610.184 1216.14,871.287 1218.22,662.404 1220.29,610.184 1222.36,505.742 1224.44,662.404 1226.51,662.404 1228.59,714.625 1230.66,819.067 1232.74,610.184 1234.81,923.508 1236.88,401.301 1238.96,662.404 1241.03,349.08 1243.11,557.963 1245.18,557.963 1247.26,505.742 1249.33,662.404 1251.4,662.404 1253.48,453.522 1255.55,505.742 1257.63,819.067 1259.7,714.625 1261.77,557.963 1263.85,453.522 1265.92,349.08 1268,662.404 1270.07,557.963 1272.15,557.963 1274.22,610.184 1276.29,505.742 1278.37,557.963 1280.44,557.963 1282.52,557.963 1284.59,453.522 1286.67,453.522 1288.74,819.067 1290.81,453.522 1292.89,349.08 1294.96,453.522 1297.04,819.067 1299.11,296.859 1301.19,349.08 1303.26,453.522 1305.33,610.184 1307.41,557.963 1309.48,505.742 1311.56,766.846 1313.63,871.287 1315.7,662.404 1317.78,610.184 1319.85,662.404 1321.93,192.418 1324,610.184 1326.08,819.067 1328.15,610.184 1330.22,610.184 1332.3,557.963 1334.37,662.404 1336.45,401.301 1338.52,557.963 1340.6,505.742 1342.67,766.846 1344.74,401.301 1346.82,766.846 1348.89,662.404 1350.97,505.742 1353.04,557.963 1355.12,714.625 1357.19,662.404 1359.26,401.301 1361.34,557.963 1363.41,557.963 1365.49,505.742 1367.56,610.184 1369.63,505.742 1371.71,610.184 1373.78,662.404 1375.86,296.859 1377.93,714.625 1380.01,505.742 1382.08,819.067 1384.15,871.287 1386.23,766.846 1388.3,662.404 1390.38,244.639 1392.45,557.963 1394.53,766.846 1396.6,662.404 1398.67,557.963 1400.75,557.963 1402.82,453.522 1404.9,453.522 1406.97,296.859 1409.04,557.963 1411.12,349.08 1413.19,505.742 1415.27,610.184 1417.34,714.625 1419.42,453.522 1421.49,244.639 1423.56,505.742 1425.64,714.625 1427.71,505.742 1429.79,505.742 1431.86,714.625 1433.94,401.301 1436.01,453.522 1438.08,557.963 1440.16,401.301 1442.23,505.742 1444.31,505.742 1446.38,296.859 1448.46,401.301 1450.53,505.742 1452.6,662.404 1454.68,349.08 1456.75,610.184 1458.83,296.859 1460.9,557.963 1462.97,401.301 1465.05,610.184 1467.12,505.742 1469.2,349.08 1471.27,505.742 1473.35,557.963 1475.42,766.846 1477.49,401.301 1479.57,505.742 1481.64,453.522 1483.72,505.742 1485.79,453.522 1487.87,662.404 1489.94,453.522 1492.01,662.404 1494.09,766.846 1496.16,662.404 1498.24,453.522 1500.31,349.08 1502.39,505.742 1504.46,610.184 1506.53,714.625 1508.61,453.522 1510.68,349.08 1512.76,244.639 1514.83,505.742 1516.9,244.639 1518.98,557.963 1521.05,662.404 1523.13,453.522 1525.2,453.522 1527.28,610.184 1529.35,296.859 1531.42,453.522 1533.5,349.08 1535.57,349.08 1537.65,610.184 1539.72,557.963 1541.8,453.522 1543.87,401.301 1545.94,505.742 1548.02,610.184 1550.09,453.522 1552.17,662.404 1554.24,401.301 1556.32,349.08 1558.39,871.287 1560.46,610.184 1562.54,662.404 1564.61,871.287 1566.69,349.08 1568.76,610.184 1570.83,610.184 1572.91,401.301 1574.98,453.522 1577.06,610.184 1579.13,401.301 1581.21,871.287 1583.28,557.963 1585.35,453.522 1587.43,453.522 1589.5,610.184 1591.58,766.846 1593.65,557.963 1595.73,296.859 1597.8,453.522 1599.87,819.067 1601.95,505.742 1604.02,610.184 1606.1,505.742 1608.17,819.067 1610.24,610.184 1612.32,505.742 1614.39,505.742 1616.47,505.742 1618.54,453.522 1620.62,610.184 1622.69,349.08 1624.76,505.742 1626.84,557.963 1628.91,296.859 1630.99,401.301 1633.06,453.522 1635.14,453.522 1637.21,349.08 1639.28,505.742 1641.36,662.404 1643.43,610.184 1645.51,349.08 1647.58,296.859 1649.66,401.301 1651.73,453.522 1653.8,505.742 1655.88,244.639 1657.95,296.859 1660.03,505.742 1662.1,401.301 1664.17,505.742 1666.25,349.08 1668.32,610.184 1670.4,401.301 1672.47,192.418 1674.55,349.08 1676.62,349.08 1678.69,401.301 1680.77,349.08 1682.84,557.963 1684.92,453.522 1686.99,610.184 1689.07,401.301 1691.14,401.301 1693.21,349.08 1695.29,349.08 1697.36,453.522 1699.44,505.742 1701.51,505.742 1703.59,349.08 1705.66,557.963 1707.73,349.08 1709.81,296.859 1711.88,505.742 1713.96,714.625 1716.03,401.301 1718.1,557.963 1720.18,557.963 1722.25,610.184 1724.33,349.08 1726.4,557.963 1728.48,557.963 1730.55,505.742 1732.62,453.522 1734.7,610.184 1736.77,610.184 1738.85,714.625 1740.92,349.08 1743,349.08 1745.07,505.742 1747.14,453.522 1749.22,453.522 1751.29,610.184 1753.37,401.301 1755.44,349.08 1757.52,557.963 1759.59,662.404 1761.66,296.859 1763.74,296.859 1765.81,401.301 1767.89,453.522 1769.96,557.963 1772.03,401.301 1774.11,349.08 1776.18,349.08 1778.26,505.742 1780.33,296.859 1782.41,766.846 1784.48,819.067 1786.55,610.184 1788.63,557.963 1790.7,557.963 1792.78,662.404 1794.85,453.522 1796.93,296.859 1799,296.859 1801.07,296.859 1803.15,557.963 1805.22,401.301 1807.3,557.963 1809.37,505.742 1811.44,505.742 1813.52,557.963 1815.59,349.08 1817.67,453.522 1819.74,557.963 1821.82,557.963 1823.89,610.184 1825.96,662.404 1828.04,401.301 1830.11,349.08 1832.19,505.742 1834.26,505.742 1836.34,714.625 1838.41,244.639 1840.48,610.184 1842.56,819.067 1844.63,192.418 1846.71,296.859 1848.78,453.522 1850.86,453.522 1852.93,401.301 1855,610.184 1857.08,244.639 1859.15,453.522 1861.23,401.301 1863.3,557.963 1865.37,610.184 1867.45,662.404 1869.52,819.067 1871.6,349.08 1873.67,401.301 1875.75,244.639 1877.82,453.522 1879.89,401.301 1881.97,610.184 1884.04,453.522 1886.12,192.418 1888.19,557.963 1890.27,662.404 1892.34,505.742 1894.41,453.522 1896.49,505.742 1898.56,349.08 1900.64,296.859 1902.71,401.301 1904.79,557.963 1906.86,140.197 1908.93,296.859 1911.01,296.859 1913.08,296.859 1915.16,401.301 1917.23,557.963 1919.3,401.301 1921.38,505.742 1923.45,244.639 1925.53,453.522 1927.6,610.184 1929.68,401.301 1931.75,505.742 1933.82,401.301 1935.9,557.963 1937.97,453.522 1940.05,610.184 1942.12,505.742 1944.2,505.742 1946.27,453.522 1948.34,453.522 1950.42,610.184 1952.49,610.184 1954.57,610.184 1956.64,401.301 1958.72,557.963 1960.79,296.859 1962.86,453.522 1964.94,192.418 1967.01,296.859 1969.09,296.859 1971.16,662.404 1973.23,505.742 1975.31,296.859 1977.38,453.522 1979.46,453.522 1981.53,610.184 1983.61,453.522 1985.68,453.522 1987.75,557.963 1989.83,766.846 1991.9,610.184 1993.98,610.184 1996.05,192.418 1998.13,453.522 2000.2,296.859 2002.27,349.08 2004.35,244.639 2006.42,505.742 2008.5,401.301 2010.57,296.859 2012.64,296.859 2014.72,505.742 2016.79,349.08 2018.87,401.301 2020.94,505.742 2023.02,557.963 2025.09,557.963 2027.16,401.301 2029.24,453.522 2031.31,192.418 2033.39,610.184 2035.46,401.301 2037.54,244.639 2039.61,401.301 2041.68,296.859 2043.76,244.639 2045.83,453.522 2047.91,557.963 2049.98,610.184 2052.06,505.742 2054.13,557.963 2056.2,349.08 2058.28,610.184 2060.35,453.522 2062.43,192.418 2064.5,349.08 2066.57,349.08 2068.65,453.522 2070.72,505.742 2072.8,349.08 2074.87,662.404 2076.95,557.963 2079.02,401.301 2081.09,453.522 2083.17,453.522 2085.24,87.9763 2087.32,349.08 2089.39,662.404 2091.47,505.742 2093.54,401.301 2095.61,349.08 2097.69,453.522 2099.76,401.301 2101.84,349.08 2103.91,453.522 2105.99,296.859 2108.06,296.859 2110.13,505.742 2112.21,349.08 2114.28,401.301 2116.36,349.08 2118.43,453.522 2120.5,453.522 2122.58,296.859 2124.65,505.742 2126.73,453.522 2128.8,401.301 2130.88,244.639 2132.95,453.522 2135.02,714.625 2137.1,401.301 2139.17,610.184 2141.25,401.301 2143.32,401.301 2145.4,401.301 2147.47,453.522 2149.54,610.184 2151.62,192.418 2153.69,401.301 2155.77,296.859 2157.84,610.184 2159.92,453.522 2161.99,349.08 2164.06,296.859 2166.14,296.859 2168.21,505.742 2170.29,662.404 2172.36,87.9763 2174.43,349.08 2176.51,505.742 2178.58,401.301 2180.66,557.963 2182.73,453.522 2184.81,401.301 2186.88,557.963 2188.95,662.404 2191.03,349.08 2193.1,349.08 2195.18,610.184 2197.25,557.963 2199.33,192.418 2201.4,557.963 2203.47,505.742 2205.55,296.859 2207.62,349.08 2209.7,244.639 2211.77,662.404 2213.84,401.301 2215.92,349.08 2217.99,244.639 2220.07,349.08 2222.14,349.08 2224.22,401.301 2226.29,401.301 2228.36,349.08 2230.44,296.859 2232.51,453.522 2234.59,349.08 2236.66,557.963 2238.74,349.08 2240.81,244.639 2242.88,453.522 2244.96,662.404 2247.03,192.418 2249.11,349.08 2251.18,349.08 2253.26,401.301 2255.33,505.742 2257.4,401.301 2259.48,453.522 2261.55,349.08 2263.63,401.301 2265.7,296.859 2267.77,401.301 2269.85,244.639 2271.92,244.639 2274,349.08 2276.07,453.522 2278.15,557.963 2280.22,505.742 2282.29,505.742 2284.37,662.404 2286.44,401.301 2288.52,349.08 2290.59,296.859 "/>
<path clip-path="url(#clip060)" d="M229.49 198.898 L501.569 198.898 L501.569 95.2176 L229.49 95.2176  Z" fill="#ffffff" fill-rule="evenodd" fill-opacity="1"/>
<polyline clip-path="url(#clip060)" style="stroke:#000000; stroke-linecap:round; stroke-linejoin:round; stroke-width:4; stroke-opacity:1; fill:none" points="229.49,198.898 501.569,198.898 501.569,95.2176 229.49,95.2176 229.49,198.898 "/>
<polyline clip-path="url(#clip060)" style="stroke:#009af9; stroke-linecap:round; stroke-linejoin:round; stroke-width:4; stroke-opacity:1; fill:none" points="253.896,147.058 400.328,147.058 "/>
<path clip-path="url(#clip060)" d="M438.576 166.745 Q436.77 171.375 435.057 172.787 Q433.344 174.199 430.474 174.199 L427.071 174.199 L427.071 170.634 L429.571 170.634 Q431.33 170.634 432.302 169.8 Q433.275 168.967 434.455 165.865 L435.219 163.921 L424.733 138.412 L429.247 138.412 L437.349 158.689 L445.451 138.412 L449.964 138.412 L438.576 166.745 Z" fill="#000000" fill-rule="nonzero" fill-opacity="1" /><path clip-path="url(#clip060)" d="M457.256 160.402 L464.895 160.402 L464.895 134.037 L456.585 135.703 L456.585 131.444 L464.849 129.778 L469.524 129.778 L469.524 160.402 L477.163 160.402 L477.163 164.338 L457.256 164.338 L457.256 160.402 Z" fill="#000000" fill-rule="nonzero" fill-opacity="1" /></svg>
