<?xml version="1.0" encoding="utf-8"?>
<svg xmlns="http://www.w3.org/2000/svg" xmlns:xlink="http://www.w3.org/1999/xlink" width="600" height="400" viewBox="0 0 2400 1600">
<defs>
  <clipPath id="clip780">
    <rect x="0" y="0" width="2400" height="1600"/>
  </clipPath>
</defs>
<path clip-path="url(#clip780)" d="M0 1600 L2400 1600 L2400 0 L0 0  Z" fill="#ffffff" fill-rule="evenodd" fill-opacity="1"/>
<defs>
  <clipPath id="clip781">
    <rect x="480" y="0" width="1681" height="1600"/>
  </clipPath>
</defs>
<path clip-path="url(#clip780)" d="M209.029 1486.45 L2352.76 1486.45 L2352.76 47.2441 L209.029 47.2441  Z" fill="#ffffff" fill-rule="evenodd" fill-opacity="1"/>
<defs>
  <clipPath id="clip782">
    <rect x="209" y="47" width="2145" height="1440"/>
  </clipPath>
</defs>
<polyline clip-path="url(#clip782)" style="stroke:#000000; stroke-linecap:round; stroke-linejoin:round; stroke-width:2; stroke-opacity:0.1; fill:none" points="269.7,1486.45 269.7,47.2441 "/>
<polyline clip-path="url(#clip782)" style="stroke:#000000; stroke-linecap:round; stroke-linejoin:round; stroke-width:2; stroke-opacity:0.1; fill:none" points="775.296,1486.45 775.296,47.2441 "/>
<polyline clip-path="url(#clip782)" style="stroke:#000000; stroke-linecap:round; stroke-linejoin:round; stroke-width:2; stroke-opacity:0.1; fill:none" points="1280.89,1486.45 1280.89,47.2441 "/>
<polyline clip-path="url(#clip782)" style="stroke:#000000; stroke-linecap:round; stroke-linejoin:round; stroke-width:2; stroke-opacity:0.1; fill:none" points="1786.49,1486.45 1786.49,47.2441 "/>
<polyline clip-path="url(#clip782)" style="stroke:#000000; stroke-linecap:round; stroke-linejoin:round; stroke-width:2; stroke-opacity:0.1; fill:none" points="2292.08,1486.45 2292.08,47.2441 "/>
<polyline clip-path="url(#clip780)" style="stroke:#000000; stroke-linecap:round; stroke-linejoin:round; stroke-width:4; stroke-opacity:1; fill:none" points="209.029,1486.45 2352.76,1486.45 "/>
<polyline clip-path="url(#clip780)" style="stroke:#000000; stroke-linecap:round; stroke-linejoin:round; stroke-width:4; stroke-opacity:1; fill:none" points="269.7,1486.45 269.7,1467.55 "/>
<polyline clip-path="url(#clip780)" style="stroke:#000000; stroke-linecap:round; stroke-linejoin:round; stroke-width:4; stroke-opacity:1; fill:none" points="775.296,1486.45 775.296,1467.55 "/>
<polyline clip-path="url(#clip780)" style="stroke:#000000; stroke-linecap:round; stroke-linejoin:round; stroke-width:4; stroke-opacity:1; fill:none" points="1280.89,1486.45 1280.89,1467.55 "/>
<polyline clip-path="url(#clip780)" style="stroke:#000000; stroke-linecap:round; stroke-linejoin:round; stroke-width:4; stroke-opacity:1; fill:none" points="1786.49,1486.45 1786.49,1467.55 "/>
<polyline clip-path="url(#clip780)" style="stroke:#000000; stroke-linecap:round; stroke-linejoin:round; stroke-width:4; stroke-opacity:1; fill:none" points="2292.08,1486.45 2292.08,1467.55 "/>
<path clip-path="url(#clip780)" d="M269.7 1517.37 Q266.089 1517.37 264.26 1520.93 Q262.455 1524.47 262.455 1531.6 Q262.455 1538.71 264.26 1542.27 Q266.089 1545.82 269.7 1545.82 Q273.334 1545.82 275.14 1542.27 Q276.969 1538.71 276.969 1531.6 Q276.969 1524.47 275.14 1520.93 Q273.334 1517.37 269.7 1517.37 M269.7 1513.66 Q275.51 1513.66 278.566 1518.27 Q281.644 1522.85 281.644 1531.6 Q281.644 1540.33 278.566 1544.94 Q275.51 1549.52 269.7 1549.52 Q263.89 1549.52 260.811 1544.94 Q257.756 1540.33 257.756 1531.6 Q257.756 1522.85 260.811 1518.27 Q263.89 1513.66 269.7 1513.66 Z" fill="#000000" fill-rule="nonzero" fill-opacity="1" /><path clip-path="url(#clip780)" d="M734.914 1514.29 L753.271 1514.29 L753.271 1518.22 L739.197 1518.22 L739.197 1526.7 Q740.215 1526.35 741.234 1526.19 Q742.252 1526 743.271 1526 Q749.058 1526 752.437 1529.17 Q755.817 1532.34 755.817 1537.76 Q755.817 1543.34 752.345 1546.44 Q748.873 1549.52 742.553 1549.52 Q740.377 1549.52 738.109 1549.15 Q735.863 1548.78 733.456 1548.04 L733.456 1543.34 Q735.539 1544.47 737.762 1545.03 Q739.984 1545.58 742.461 1545.58 Q746.465 1545.58 748.803 1543.48 Q751.141 1541.37 751.141 1537.76 Q751.141 1534.15 748.803 1532.04 Q746.465 1529.94 742.461 1529.94 Q740.586 1529.94 738.711 1530.35 Q736.859 1530.77 734.914 1531.65 L734.914 1514.29 Z" fill="#000000" fill-rule="nonzero" fill-opacity="1" /><path clip-path="url(#clip780)" d="M775.03 1517.37 Q771.419 1517.37 769.59 1520.93 Q767.785 1524.47 767.785 1531.6 Q767.785 1538.71 769.59 1542.27 Q771.419 1545.82 775.03 1545.82 Q778.664 1545.82 780.47 1542.27 Q782.298 1538.71 782.298 1531.6 Q782.298 1524.47 780.47 1520.93 Q778.664 1517.37 775.03 1517.37 M775.03 1513.66 Q780.84 1513.66 783.896 1518.27 Q786.974 1522.85 786.974 1531.6 Q786.974 1540.33 783.896 1544.94 Q780.84 1549.52 775.03 1549.52 Q769.22 1549.52 766.141 1544.94 Q763.086 1540.33 763.086 1531.6 Q763.086 1522.85 766.141 1518.27 Q769.22 1513.66 775.03 1513.66 Z" fill="#000000" fill-rule="nonzero" fill-opacity="1" /><path clip-path="url(#clip780)" d="M805.192 1517.37 Q801.581 1517.37 799.752 1520.93 Q797.946 1524.47 797.946 1531.6 Q797.946 1538.71 799.752 1542.27 Q801.581 1545.82 805.192 1545.82 Q808.826 1545.82 810.632 1542.27 Q812.46 1538.71 812.46 1531.6 Q812.46 1524.47 810.632 1520.93 Q808.826 1517.37 805.192 1517.37 M805.192 1513.66 Q811.002 1513.66 814.057 1518.27 Q817.136 1522.85 817.136 1531.6 Q817.136 1540.33 814.057 1544.94 Q811.002 1549.52 805.192 1549.52 Q799.382 1549.52 796.303 1544.94 Q793.247 1540.33 793.247 1531.6 Q793.247 1522.85 796.303 1518.27 Q799.382 1513.66 805.192 1513.66 Z" fill="#000000" fill-rule="nonzero" fill-opacity="1" /><path clip-path="url(#clip780)" d="M1225.42 1544.91 L1233.06 1544.91 L1233.06 1518.55 L1224.75 1520.21 L1224.75 1515.95 L1233.01 1514.29 L1237.69 1514.29 L1237.69 1544.91 L1245.33 1544.91 L1245.33 1548.85 L1225.42 1548.85 L1225.42 1544.91 Z" fill="#000000" fill-rule="nonzero" fill-opacity="1" /><path clip-path="url(#clip780)" d="M1264.77 1517.37 Q1261.16 1517.37 1259.33 1520.93 Q1257.52 1524.47 1257.52 1531.6 Q1257.52 1538.71 1259.33 1542.27 Q1261.16 1545.82 1264.77 1545.82 Q1268.4 1545.82 1270.21 1542.27 Q1272.04 1538.71 1272.04 1531.6 Q1272.04 1524.47 1270.21 1520.93 Q1268.4 1517.37 1264.77 1517.37 M1264.77 1513.66 Q1270.58 1513.66 1273.64 1518.27 Q1276.71 1522.85 1276.71 1531.6 Q1276.71 1540.33 1273.64 1544.94 Q1270.58 1549.52 1264.77 1549.52 Q1258.96 1549.52 1255.88 1544.94 Q1252.83 1540.33 1252.83 1531.6 Q1252.83 1522.85 1255.88 1518.27 Q1258.96 1513.66 1264.77 1513.66 Z" fill="#000000" fill-rule="nonzero" fill-opacity="1" /><path clip-path="url(#clip780)" d="M1294.93 1517.37 Q1291.32 1517.37 1289.49 1520.93 Q1287.69 1524.47 1287.69 1531.6 Q1287.69 1538.71 1289.49 1542.27 Q1291.32 1545.82 1294.93 1545.82 Q1298.57 1545.82 1300.37 1542.27 Q1302.2 1538.71 1302.2 1531.6 Q1302.2 1524.47 1300.37 1520.93 Q1298.57 1517.37 1294.93 1517.37 M1294.93 1513.66 Q1300.74 1513.66 1303.8 1518.27 Q1306.88 1522.85 1306.88 1531.6 Q1306.88 1540.33 1303.8 1544.94 Q1300.74 1549.52 1294.93 1549.52 Q1289.12 1549.52 1286.04 1544.94 Q1282.99 1540.33 1282.99 1531.6 Q1282.99 1522.85 1286.04 1518.27 Q1289.12 1513.66 1294.93 1513.66 Z" fill="#000000" fill-rule="nonzero" fill-opacity="1" /><path clip-path="url(#clip780)" d="M1325.09 1517.37 Q1321.48 1517.37 1319.65 1520.93 Q1317.85 1524.47 1317.85 1531.6 Q1317.85 1538.71 1319.65 1542.27 Q1321.48 1545.82 1325.09 1545.82 Q1328.73 1545.82 1330.53 1542.27 Q1332.36 1538.71 1332.36 1531.6 Q1332.36 1524.47 1330.53 1520.93 Q1328.73 1517.37 1325.09 1517.37 M1325.09 1513.66 Q1330.9 1513.66 1333.96 1518.27 Q1337.04 1522.85 1337.04 1531.6 Q1337.04 1540.33 1333.96 1544.94 Q1330.9 1549.52 1325.09 1549.52 Q1319.28 1549.52 1316.2 1544.94 Q1313.15 1540.33 1313.15 1531.6 Q1313.15 1522.85 1316.2 1518.27 Q1319.28 1513.66 1325.09 1513.66 Z" fill="#000000" fill-rule="nonzero" fill-opacity="1" /><path clip-path="url(#clip780)" d="M1731.01 1544.91 L1738.65 1544.91 L1738.65 1518.55 L1730.34 1520.21 L1730.34 1515.95 L1738.61 1514.29 L1743.28 1514.29 L1743.28 1544.91 L1750.92 1544.91 L1750.92 1548.85 L1731.01 1548.85 L1731.01 1544.91 Z" fill="#000000" fill-rule="nonzero" fill-opacity="1" /><path clip-path="url(#clip780)" d="M1760.41 1514.29 L1778.77 1514.29 L1778.77 1518.22 L1764.69 1518.22 L1764.69 1526.7 Q1765.71 1526.35 1766.73 1526.19 Q1767.75 1526 1768.77 1526 Q1774.56 1526 1777.94 1529.17 Q1781.31 1532.34 1781.31 1537.76 Q1781.31 1543.34 1777.84 1546.44 Q1774.37 1549.52 1768.05 1549.52 Q1765.87 1549.52 1763.61 1549.15 Q1761.36 1548.78 1758.95 1548.04 L1758.95 1543.34 Q1761.04 1544.47 1763.26 1545.03 Q1765.48 1545.58 1767.96 1545.58 Q1771.96 1545.58 1774.3 1543.48 Q1776.64 1541.37 1776.64 1537.76 Q1776.64 1534.15 1774.3 1532.04 Q1771.96 1529.94 1767.96 1529.94 Q1766.08 1529.94 1764.21 1530.35 Q1762.36 1530.77 1760.41 1531.65 L1760.41 1514.29 Z" fill="#000000" fill-rule="nonzero" fill-opacity="1" /><path clip-path="url(#clip780)" d="M1800.53 1517.37 Q1796.92 1517.37 1795.09 1520.93 Q1793.28 1524.47 1793.28 1531.6 Q1793.28 1538.71 1795.09 1542.27 Q1796.92 1545.82 1800.53 1545.82 Q1804.16 1545.82 1805.97 1542.27 Q1807.8 1538.71 1807.8 1531.6 Q1807.8 1524.47 1805.97 1520.93 Q1804.16 1517.37 1800.53 1517.37 M1800.53 1513.66 Q1806.34 1513.66 1809.39 1518.27 Q1812.47 1522.85 1812.47 1531.6 Q1812.47 1540.33 1809.39 1544.94 Q1806.34 1549.52 1800.53 1549.52 Q1794.72 1549.52 1791.64 1544.94 Q1788.58 1540.33 1788.58 1531.6 Q1788.58 1522.85 1791.64 1518.27 Q1794.72 1513.66 1800.53 1513.66 Z" fill="#000000" fill-rule="nonzero" fill-opacity="1" /><path clip-path="url(#clip780)" d="M1830.69 1517.37 Q1827.08 1517.37 1825.25 1520.93 Q1823.44 1524.47 1823.44 1531.6 Q1823.44 1538.71 1825.25 1542.27 Q1827.08 1545.82 1830.69 1545.82 Q1834.32 1545.82 1836.13 1542.27 Q1837.96 1538.71 1837.96 1531.6 Q1837.96 1524.47 1836.13 1520.93 Q1834.32 1517.37 1830.69 1517.37 M1830.69 1513.66 Q1836.5 1513.66 1839.56 1518.27 Q1842.63 1522.85 1842.63 1531.6 Q1842.63 1540.33 1839.56 1544.94 Q1836.5 1549.52 1830.69 1549.52 Q1824.88 1549.52 1821.8 1544.94 Q1818.75 1540.33 1818.75 1531.6 Q1818.75 1522.85 1821.8 1518.27 Q1824.88 1513.66 1830.69 1513.66 Z" fill="#000000" fill-rule="nonzero" fill-opacity="1" /><path clip-path="url(#clip780)" d="M2240.7 1544.91 L2257.02 1544.91 L2257.02 1548.85 L2235.07 1548.85 L2235.07 1544.91 Q2237.73 1542.16 2242.32 1537.53 Q2246.92 1532.88 2248.1 1531.53 Q2250.35 1529.01 2251.23 1527.27 Q2252.13 1525.51 2252.13 1523.82 Q2252.13 1521.07 2250.19 1519.33 Q2248.27 1517.6 2245.16 1517.6 Q2242.96 1517.6 2240.51 1518.36 Q2238.08 1519.13 2235.3 1520.68 L2235.3 1515.95 Q2238.13 1514.82 2240.58 1514.24 Q2243.03 1513.66 2245.07 1513.66 Q2250.44 1513.66 2253.64 1516.35 Q2256.83 1519.03 2256.83 1523.52 Q2256.83 1525.65 2256.02 1527.57 Q2255.23 1529.47 2253.13 1532.07 Q2252.55 1532.74 2249.45 1535.95 Q2246.34 1539.15 2240.7 1544.91 Z" fill="#000000" fill-rule="nonzero" fill-opacity="1" /><path clip-path="url(#clip780)" d="M2276.83 1517.37 Q2273.22 1517.37 2271.39 1520.93 Q2269.58 1524.47 2269.58 1531.6 Q2269.58 1538.71 2271.39 1542.27 Q2273.22 1545.82 2276.83 1545.82 Q2280.46 1545.82 2282.27 1542.27 Q2284.1 1538.71 2284.1 1531.6 Q2284.1 1524.47 2282.27 1520.93 Q2280.46 1517.37 2276.83 1517.37 M2276.83 1513.66 Q2282.64 1513.66 2285.7 1518.27 Q2288.77 1522.85 2288.77 1531.6 Q2288.77 1540.33 2285.7 1544.94 Q2282.64 1549.52 2276.83 1549.52 Q2271.02 1549.52 2267.94 1544.94 Q2264.89 1540.33 2264.89 1531.6 Q2264.89 1522.85 2267.94 1518.27 Q2271.02 1513.66 2276.83 1513.66 Z" fill="#000000" fill-rule="nonzero" fill-opacity="1" /><path clip-path="url(#clip780)" d="M2306.99 1517.37 Q2303.38 1517.37 2301.55 1520.93 Q2299.75 1524.47 2299.75 1531.6 Q2299.75 1538.71 2301.55 1542.27 Q2303.38 1545.82 2306.99 1545.82 Q2310.63 1545.82 2312.43 1542.27 Q2314.26 1538.71 2314.26 1531.6 Q2314.26 1524.47 2312.43 1520.93 Q2310.63 1517.37 2306.99 1517.37 M2306.99 1513.66 Q2312.8 1513.66 2315.86 1518.27 Q2318.94 1522.85 2318.94 1531.6 Q2318.94 1540.33 2315.86 1544.94 Q2312.8 1549.52 2306.99 1549.52 Q2301.18 1549.52 2298.1 1544.94 Q2295.05 1540.33 2295.05 1531.6 Q2295.05 1522.85 2298.1 1518.27 Q2301.18 1513.66 2306.99 1513.66 Z" fill="#000000" fill-rule="nonzero" fill-opacity="1" /><path clip-path="url(#clip780)" d="M2337.15 1517.37 Q2333.54 1517.37 2331.71 1520.93 Q2329.91 1524.47 2329.91 1531.6 Q2329.91 1538.71 2331.71 1542.27 Q2333.54 1545.82 2337.15 1545.82 Q2340.79 1545.82 2342.59 1542.27 Q2344.42 1538.71 2344.42 1531.6 Q2344.42 1524.47 2342.59 1520.93 Q2340.79 1517.37 2337.15 1517.37 M2337.15 1513.66 Q2342.96 1513.66 2346.02 1518.27 Q2349.1 1522.85 2349.1 1531.6 Q2349.1 1540.33 2346.02 1544.94 Q2342.96 1549.52 2337.15 1549.52 Q2331.34 1549.52 2328.26 1544.94 Q2325.21 1540.33 2325.21 1531.6 Q2325.21 1522.85 2328.26 1518.27 Q2331.34 1513.66 2337.15 1513.66 Z" fill="#000000" fill-rule="nonzero" fill-opacity="1" /><polyline clip-path="url(#clip782)" style="stroke:#000000; stroke-linecap:round; stroke-linejoin:round; stroke-width:2; stroke-opacity:0.1; fill:none" points="209.029,1329.41 2352.76,1329.41 "/>
<polyline clip-path="url(#clip782)" style="stroke:#000000; stroke-linecap:round; stroke-linejoin:round; stroke-width:2; stroke-opacity:0.1; fill:none" points="209.029,1141.01 2352.76,1141.01 "/>
<polyline clip-path="url(#clip782)" style="stroke:#000000; stroke-linecap:round; stroke-linejoin:round; stroke-width:2; stroke-opacity:0.1; fill:none" points="209.029,952.621 2352.76,952.621 "/>
<polyline clip-path="url(#clip782)" style="stroke:#000000; stroke-linecap:round; stroke-linejoin:round; stroke-width:2; stroke-opacity:0.1; fill:none" points="209.029,764.228 2352.76,764.228 "/>
<polyline clip-path="url(#clip782)" style="stroke:#000000; stroke-linecap:round; stroke-linejoin:round; stroke-width:2; stroke-opacity:0.1; fill:none" points="209.029,575.836 2352.76,575.836 "/>
<polyline clip-path="url(#clip782)" style="stroke:#000000; stroke-linecap:round; stroke-linejoin:round; stroke-width:2; stroke-opacity:0.1; fill:none" points="209.029,387.444 2352.76,387.444 "/>
<polyline clip-path="url(#clip782)" style="stroke:#000000; stroke-linecap:round; stroke-linejoin:round; stroke-width:2; stroke-opacity:0.1; fill:none" points="209.029,199.051 2352.76,199.051 "/>
<polyline clip-path="url(#clip780)" style="stroke:#000000; stroke-linecap:round; stroke-linejoin:round; stroke-width:4; stroke-opacity:1; fill:none" points="209.029,1486.45 209.029,47.2441 "/>
<polyline clip-path="url(#clip780)" style="stroke:#000000; stroke-linecap:round; stroke-linejoin:round; stroke-width:4; stroke-opacity:1; fill:none" points="209.029,1329.41 227.926,1329.41 "/>
<polyline clip-path="url(#clip780)" style="stroke:#000000; stroke-linecap:round; stroke-linejoin:round; stroke-width:4; stroke-opacity:1; fill:none" points="209.029,1141.01 227.926,1141.01 "/>
<polyline clip-path="url(#clip780)" style="stroke:#000000; stroke-linecap:round; stroke-linejoin:round; stroke-width:4; stroke-opacity:1; fill:none" points="209.029,952.621 227.926,952.621 "/>
<polyline clip-path="url(#clip780)" style="stroke:#000000; stroke-linecap:round; stroke-linejoin:round; stroke-width:4; stroke-opacity:1; fill:none" points="209.029,764.228 227.926,764.228 "/>
<polyline clip-path="url(#clip780)" style="stroke:#000000; stroke-linecap:round; stroke-linejoin:round; stroke-width:4; stroke-opacity:1; fill:none" points="209.029,575.836 227.926,575.836 "/>
<polyline clip-path="url(#clip780)" style="stroke:#000000; stroke-linecap:round; stroke-linejoin:round; stroke-width:4; stroke-opacity:1; fill:none" points="209.029,387.444 227.926,387.444 "/>
<polyline clip-path="url(#clip780)" style="stroke:#000000; stroke-linecap:round; stroke-linejoin:round; stroke-width:4; stroke-opacity:1; fill:none" points="209.029,199.051 227.926,199.051 "/>
<path clip-path="url(#clip780)" d="M50.9921 1329.86 L80.6679 1329.86 L80.6679 1333.79 L50.9921 1333.79 L50.9921 1329.86 Z" fill="#000000" fill-rule="nonzero" fill-opacity="1" /><path clip-path="url(#clip780)" d="M104.927 1328.05 Q108.283 1328.77 110.158 1331.04 Q112.057 1333.31 112.057 1336.64 Q112.057 1341.75 108.538 1344.56 Q105.02 1347.36 98.5382 1347.36 Q96.3623 1347.36 94.0475 1346.92 Q91.7558 1346.5 89.3021 1345.64 L89.3021 1341.13 Q91.2465 1342.26 93.5613 1342.84 Q95.8761 1343.42 98.3993 1343.42 Q102.797 1343.42 105.089 1341.69 Q107.404 1339.95 107.404 1336.64 Q107.404 1333.58 105.251 1331.87 Q103.121 1330.13 99.3021 1330.13 L95.2743 1330.13 L95.2743 1326.29 L99.4872 1326.29 Q102.936 1326.29 104.765 1324.93 Q106.594 1323.54 106.594 1320.94 Q106.594 1318.28 104.696 1316.87 Q102.821 1315.44 99.3021 1315.44 Q97.3808 1315.44 95.1817 1315.85 Q92.9826 1316.27 90.3438 1317.15 L90.3438 1312.98 Q93.0058 1312.24 95.3206 1311.87 Q97.6585 1311.5 99.7187 1311.5 Q105.043 1311.5 108.145 1313.93 Q111.246 1316.34 111.246 1320.46 Q111.246 1323.33 109.603 1325.32 Q107.959 1327.29 104.927 1328.05 Z" fill="#000000" fill-rule="nonzero" fill-opacity="1" /><path clip-path="url(#clip780)" d="M135.089 1328.05 Q138.445 1328.77 140.32 1331.04 Q142.218 1333.31 142.218 1336.64 Q142.218 1341.75 138.7 1344.56 Q135.181 1347.36 128.7 1347.36 Q126.524 1347.36 124.209 1346.92 Q121.918 1346.5 119.464 1345.64 L119.464 1341.13 Q121.408 1342.26 123.723 1342.84 Q126.038 1343.42 128.561 1343.42 Q132.959 1343.42 135.251 1341.69 Q137.566 1339.95 137.566 1336.64 Q137.566 1333.58 135.413 1331.87 Q133.283 1330.13 129.464 1330.13 L125.436 1330.13 L125.436 1326.29 L129.649 1326.29 Q133.098 1326.29 134.927 1324.93 Q136.756 1323.54 136.756 1320.94 Q136.756 1318.28 134.857 1316.87 Q132.982 1315.44 129.464 1315.44 Q127.543 1315.44 125.344 1315.85 Q123.145 1316.27 120.506 1317.15 L120.506 1312.98 Q123.168 1312.24 125.482 1311.87 Q127.82 1311.5 129.881 1311.5 Q135.205 1311.5 138.306 1313.93 Q141.408 1316.34 141.408 1320.46 Q141.408 1323.33 139.765 1325.32 Q138.121 1327.29 135.089 1328.05 Z" fill="#000000" fill-rule="nonzero" fill-opacity="1" /><path clip-path="url(#clip780)" d="M161.084 1315.2 Q157.473 1315.2 155.644 1318.77 Q153.839 1322.31 153.839 1329.44 Q153.839 1336.55 155.644 1340.11 Q157.473 1343.65 161.084 1343.65 Q164.718 1343.65 166.524 1340.11 Q168.353 1336.55 168.353 1329.44 Q168.353 1322.31 166.524 1318.77 Q164.718 1315.2 161.084 1315.2 M161.084 1311.5 Q166.894 1311.5 169.95 1316.11 Q173.029 1320.69 173.029 1329.44 Q173.029 1338.17 169.95 1342.77 Q166.894 1347.36 161.084 1347.36 Q155.274 1347.36 152.195 1342.77 Q149.14 1338.17 149.14 1329.44 Q149.14 1320.69 152.195 1316.11 Q155.274 1311.5 161.084 1311.5 Z" fill="#000000" fill-rule="nonzero" fill-opacity="1" /><path clip-path="url(#clip780)" d="M50.9921 1141.46 L80.6679 1141.46 L80.6679 1145.4 L50.9921 1145.4 L50.9921 1141.46 Z" fill="#000000" fill-rule="nonzero" fill-opacity="1" /><path clip-path="url(#clip780)" d="M104.927 1139.66 Q108.283 1140.38 110.158 1142.65 Q112.057 1144.91 112.057 1148.25 Q112.057 1153.36 108.538 1156.16 Q105.02 1158.96 98.5382 1158.96 Q96.3623 1158.96 94.0475 1158.52 Q91.7558 1158.11 89.3021 1157.25 L89.3021 1152.74 Q91.2465 1153.87 93.5613 1154.45 Q95.8761 1155.03 98.3993 1155.03 Q102.797 1155.03 105.089 1153.29 Q107.404 1151.56 107.404 1148.25 Q107.404 1145.19 105.251 1143.48 Q103.121 1141.74 99.3021 1141.74 L95.2743 1141.74 L95.2743 1137.9 L99.4872 1137.9 Q102.936 1137.9 104.765 1136.53 Q106.594 1135.15 106.594 1132.55 Q106.594 1129.89 104.696 1128.48 Q102.821 1127.04 99.3021 1127.04 Q97.3808 1127.04 95.1817 1127.46 Q92.9826 1127.88 90.3438 1128.76 L90.3438 1124.59 Q93.0058 1123.85 95.3206 1123.48 Q97.6585 1123.11 99.7187 1123.11 Q105.043 1123.11 108.145 1125.54 Q111.246 1127.95 111.246 1132.07 Q111.246 1134.94 109.603 1136.93 Q107.959 1138.9 104.927 1139.66 Z" fill="#000000" fill-rule="nonzero" fill-opacity="1" /><path clip-path="url(#clip780)" d="M124.95 1154.36 L141.269 1154.36 L141.269 1158.29 L119.325 1158.29 L119.325 1154.36 Q121.987 1151.6 126.57 1146.97 Q131.177 1142.32 132.357 1140.98 Q134.603 1138.46 135.482 1136.72 Q136.385 1134.96 136.385 1133.27 Q136.385 1130.52 134.441 1128.78 Q132.519 1127.04 129.418 1127.04 Q127.219 1127.04 124.765 1127.81 Q122.334 1128.57 119.557 1130.12 L119.557 1125.4 Q122.381 1124.27 124.834 1123.69 Q127.288 1123.11 129.325 1123.11 Q134.695 1123.11 137.89 1125.79 Q141.084 1128.48 141.084 1132.97 Q141.084 1135.1 140.274 1137.02 Q139.487 1138.92 137.381 1141.51 Q136.802 1142.18 133.7 1145.4 Q130.598 1148.59 124.95 1154.36 Z" fill="#000000" fill-rule="nonzero" fill-opacity="1" /><path clip-path="url(#clip780)" d="M161.084 1126.81 Q157.473 1126.81 155.644 1130.38 Q153.839 1133.92 153.839 1141.05 Q153.839 1148.15 155.644 1151.72 Q157.473 1155.26 161.084 1155.26 Q164.718 1155.26 166.524 1151.72 Q168.353 1148.15 168.353 1141.05 Q168.353 1133.92 166.524 1130.38 Q164.718 1126.81 161.084 1126.81 M161.084 1123.11 Q166.894 1123.11 169.95 1127.71 Q173.029 1132.3 173.029 1141.05 Q173.029 1149.77 169.95 1154.38 Q166.894 1158.96 161.084 1158.96 Q155.274 1158.96 152.195 1154.38 Q149.14 1149.77 149.14 1141.05 Q149.14 1132.3 152.195 1127.71 Q155.274 1123.11 161.084 1123.11 Z" fill="#000000" fill-rule="nonzero" fill-opacity="1" /><path clip-path="url(#clip780)" d="M50.9921 953.072 L80.6679 953.072 L80.6679 957.007 L50.9921 957.007 L50.9921 953.072 Z" fill="#000000" fill-rule="nonzero" fill-opacity="1" /><path clip-path="url(#clip780)" d="M104.927 951.267 Q108.283 951.984 110.158 954.253 Q112.057 956.521 112.057 959.854 Q112.057 964.97 108.538 967.771 Q105.02 970.572 98.5382 970.572 Q96.3623 970.572 94.0475 970.132 Q91.7558 969.716 89.3021 968.859 L89.3021 964.345 Q91.2465 965.479 93.5613 966.058 Q95.8761 966.637 98.3993 966.637 Q102.797 966.637 105.089 964.901 Q107.404 963.165 107.404 959.854 Q107.404 956.799 105.251 955.086 Q103.121 953.35 99.3021 953.35 L95.2743 953.35 L95.2743 949.507 L99.4872 949.507 Q102.936 949.507 104.765 948.142 Q106.594 946.753 106.594 944.16 Q106.594 941.498 104.696 940.086 Q102.821 938.651 99.3021 938.651 Q97.3808 938.651 95.1817 939.068 Q92.9826 939.484 90.3438 940.364 L90.3438 936.197 Q93.0058 935.456 95.3206 935.086 Q97.6585 934.716 99.7187 934.716 Q105.043 934.716 108.145 937.146 Q111.246 939.554 111.246 943.674 Q111.246 946.544 109.603 948.535 Q107.959 950.503 104.927 951.267 Z" fill="#000000" fill-rule="nonzero" fill-opacity="1" /><path clip-path="url(#clip780)" d="M121.732 965.966 L129.371 965.966 L129.371 939.6 L121.061 941.267 L121.061 937.007 L129.325 935.341 L134.001 935.341 L134.001 965.966 L141.64 965.966 L141.64 969.901 L121.732 969.901 L121.732 965.966 Z" fill="#000000" fill-rule="nonzero" fill-opacity="1" /><path clip-path="url(#clip780)" d="M161.084 938.419 Q157.473 938.419 155.644 941.984 Q153.839 945.526 153.839 952.655 Q153.839 959.762 155.644 963.327 Q157.473 966.868 161.084 966.868 Q164.718 966.868 166.524 963.327 Q168.353 959.762 168.353 952.655 Q168.353 945.526 166.524 941.984 Q164.718 938.419 161.084 938.419 M161.084 934.716 Q166.894 934.716 169.95 939.322 Q173.029 943.905 173.029 952.655 Q173.029 961.382 169.95 965.989 Q166.894 970.572 161.084 970.572 Q155.274 970.572 152.195 965.989 Q149.14 961.382 149.14 952.655 Q149.14 943.905 152.195 939.322 Q155.274 934.716 161.084 934.716 Z" fill="#000000" fill-rule="nonzero" fill-opacity="1" /><path clip-path="url(#clip780)" d="M50.9921 764.68 L80.6679 764.68 L80.6679 768.615 L50.9921 768.615 L50.9921 764.68 Z" fill="#000000" fill-rule="nonzero" fill-opacity="1" /><path clip-path="url(#clip780)" d="M104.927 762.874 Q108.283 763.592 110.158 765.86 Q112.057 768.129 112.057 771.462 Q112.057 776.578 108.538 779.379 Q105.02 782.18 98.5382 782.18 Q96.3623 782.18 94.0475 781.74 Q91.7558 781.323 89.3021 780.467 L89.3021 775.953 Q91.2465 777.087 93.5613 777.666 Q95.8761 778.244 98.3993 778.244 Q102.797 778.244 105.089 776.508 Q107.404 774.772 107.404 771.462 Q107.404 768.407 105.251 766.694 Q103.121 764.957 99.3021 764.957 L95.2743 764.957 L95.2743 761.115 L99.4872 761.115 Q102.936 761.115 104.765 759.749 Q106.594 758.36 106.594 755.768 Q106.594 753.106 104.696 751.694 Q102.821 750.259 99.3021 750.259 Q97.3808 750.259 95.1817 750.675 Q92.9826 751.092 90.3438 751.971 L90.3438 747.805 Q93.0058 747.064 95.3206 746.694 Q97.6585 746.323 99.7187 746.323 Q105.043 746.323 108.145 748.754 Q111.246 751.161 111.246 755.282 Q111.246 758.152 109.603 760.143 Q107.959 762.11 104.927 762.874 Z" fill="#000000" fill-rule="nonzero" fill-opacity="1" /><path clip-path="url(#clip780)" d="M130.922 750.027 Q127.311 750.027 125.482 753.592 Q123.677 757.133 123.677 764.263 Q123.677 771.37 125.482 774.934 Q127.311 778.476 130.922 778.476 Q134.556 778.476 136.362 774.934 Q138.191 771.37 138.191 764.263 Q138.191 757.133 136.362 753.592 Q134.556 750.027 130.922 750.027 M130.922 746.323 Q136.732 746.323 139.788 750.93 Q142.867 755.513 142.867 764.263 Q142.867 772.99 139.788 777.596 Q136.732 782.18 130.922 782.18 Q125.112 782.18 122.033 777.596 Q118.978 772.99 118.978 764.263 Q118.978 755.513 122.033 750.93 Q125.112 746.323 130.922 746.323 Z" fill="#000000" fill-rule="nonzero" fill-opacity="1" /><path clip-path="url(#clip780)" d="M161.084 750.027 Q157.473 750.027 155.644 753.592 Q153.839 757.133 153.839 764.263 Q153.839 771.37 155.644 774.934 Q157.473 778.476 161.084 778.476 Q164.718 778.476 166.524 774.934 Q168.353 771.37 168.353 764.263 Q168.353 757.133 166.524 753.592 Q164.718 750.027 161.084 750.027 M161.084 746.323 Q166.894 746.323 169.95 750.93 Q173.029 755.513 173.029 764.263 Q173.029 772.99 169.95 777.596 Q166.894 782.18 161.084 782.18 Q155.274 782.18 152.195 777.596 Q149.14 772.99 149.14 764.263 Q149.14 755.513 152.195 750.93 Q155.274 746.323 161.084 746.323 Z" fill="#000000" fill-rule="nonzero" fill-opacity="1" /><path clip-path="url(#clip780)" d="M50.9921 576.287 L80.6679 576.287 L80.6679 580.223 L50.9921 580.223 L50.9921 576.287 Z" fill="#000000" fill-rule="nonzero" fill-opacity="1" /><path clip-path="url(#clip780)" d="M94.7882 589.181 L111.108 589.181 L111.108 593.116 L89.1632 593.116 L89.1632 589.181 Q91.8252 586.426 96.4085 581.797 Q101.015 577.144 102.196 575.801 Q104.441 573.278 105.321 571.542 Q106.223 569.783 106.223 568.093 Q106.223 565.338 104.279 563.602 Q102.358 561.866 99.2558 561.866 Q97.0567 561.866 94.603 562.63 Q92.1725 563.394 89.3947 564.945 L89.3947 560.223 Q92.2188 559.088 94.6724 558.51 Q97.1261 557.931 99.1632 557.931 Q104.534 557.931 107.728 560.616 Q110.922 563.301 110.922 567.792 Q110.922 569.922 110.112 571.843 Q109.325 573.741 107.219 576.334 Q106.64 577.005 103.538 580.223 Q100.436 583.417 94.7882 589.181 Z" fill="#000000" fill-rule="nonzero" fill-opacity="1" /><path clip-path="url(#clip780)" d="M121.061 592.398 L121.061 588.139 Q122.82 588.972 124.626 589.412 Q126.432 589.852 128.168 589.852 Q132.797 589.852 135.228 586.75 Q137.681 583.625 138.029 577.283 Q136.686 579.273 134.626 580.338 Q132.566 581.403 130.066 581.403 Q124.881 581.403 121.848 578.278 Q118.839 575.13 118.839 569.69 Q118.839 564.366 121.987 561.149 Q125.135 557.931 130.367 557.931 Q136.362 557.931 139.51 562.537 Q142.681 567.121 142.681 575.871 Q142.681 584.042 138.793 588.926 Q134.927 593.787 128.376 593.787 Q126.617 593.787 124.811 593.44 Q123.006 593.093 121.061 592.398 M130.367 577.746 Q133.515 577.746 135.344 575.593 Q137.195 573.44 137.195 569.69 Q137.195 565.963 135.344 563.811 Q133.515 561.635 130.367 561.635 Q127.219 561.635 125.367 563.811 Q123.538 565.963 123.538 569.69 Q123.538 573.44 125.367 575.593 Q127.219 577.746 130.367 577.746 Z" fill="#000000" fill-rule="nonzero" fill-opacity="1" /><path clip-path="url(#clip780)" d="M161.084 561.635 Q157.473 561.635 155.644 565.199 Q153.839 568.741 153.839 575.871 Q153.839 582.977 155.644 586.542 Q157.473 590.084 161.084 590.084 Q164.718 590.084 166.524 586.542 Q168.353 582.977 168.353 575.871 Q168.353 568.741 166.524 565.199 Q164.718 561.635 161.084 561.635 M161.084 557.931 Q166.894 557.931 169.95 562.537 Q173.029 567.121 173.029 575.871 Q173.029 584.597 169.95 589.204 Q166.894 593.787 161.084 593.787 Q155.274 593.787 152.195 589.204 Q149.14 584.597 149.14 575.871 Q149.14 567.121 152.195 562.537 Q155.274 557.931 161.084 557.931 Z" fill="#000000" fill-rule="nonzero" fill-opacity="1" /><path clip-path="url(#clip780)" d="M50.9921 387.895 L80.6679 387.895 L80.6679 391.83 L50.9921 391.83 L50.9921 387.895 Z" fill="#000000" fill-rule="nonzero" fill-opacity="1" /><path clip-path="url(#clip780)" d="M94.7882 400.788 L111.108 400.788 L111.108 404.724 L89.1632 404.724 L89.1632 400.788 Q91.8252 398.034 96.4085 393.404 Q101.015 388.751 102.196 387.409 Q104.441 384.886 105.321 383.15 Q106.223 381.39 106.223 379.701 Q106.223 376.946 104.279 375.21 Q102.358 373.474 99.2558 373.474 Q97.0567 373.474 94.603 374.238 Q92.1725 375.002 89.3947 376.552 L89.3947 371.83 Q92.2188 370.696 94.6724 370.117 Q97.1261 369.539 99.1632 369.539 Q104.534 369.539 107.728 372.224 Q110.922 374.909 110.922 379.4 Q110.922 381.529 110.112 383.451 Q109.325 385.349 107.219 387.941 Q106.64 388.613 103.538 391.83 Q100.436 395.025 94.7882 400.788 Z" fill="#000000" fill-rule="nonzero" fill-opacity="1" /><path clip-path="url(#clip780)" d="M130.922 388.312 Q127.589 388.312 125.668 390.094 Q123.77 391.876 123.77 395.001 Q123.77 398.126 125.668 399.909 Q127.589 401.691 130.922 401.691 Q134.256 401.691 136.177 399.909 Q138.098 398.103 138.098 395.001 Q138.098 391.876 136.177 390.094 Q134.279 388.312 130.922 388.312 M126.246 386.321 Q123.237 385.58 121.547 383.52 Q119.881 381.46 119.881 378.497 Q119.881 374.353 122.82 371.946 Q125.783 369.539 130.922 369.539 Q136.084 369.539 139.024 371.946 Q141.964 374.353 141.964 378.497 Q141.964 381.46 140.274 383.52 Q138.607 385.58 135.621 386.321 Q139.001 387.108 140.876 389.4 Q142.774 391.691 142.774 395.001 Q142.774 400.025 139.695 402.71 Q136.64 405.395 130.922 405.395 Q125.205 405.395 122.126 402.71 Q119.07 400.025 119.07 395.001 Q119.07 391.691 120.969 389.4 Q122.867 387.108 126.246 386.321 M124.533 378.937 Q124.533 381.622 126.2 383.126 Q127.89 384.631 130.922 384.631 Q133.931 384.631 135.621 383.126 Q137.334 381.622 137.334 378.937 Q137.334 376.251 135.621 374.747 Q133.931 373.242 130.922 373.242 Q127.89 373.242 126.2 374.747 Q124.533 376.251 124.533 378.937 Z" fill="#000000" fill-rule="nonzero" fill-opacity="1" /><path clip-path="url(#clip780)" d="M161.084 373.242 Q157.473 373.242 155.644 376.807 Q153.839 380.349 153.839 387.478 Q153.839 394.585 155.644 398.15 Q157.473 401.691 161.084 401.691 Q164.718 401.691 166.524 398.15 Q168.353 394.585 168.353 387.478 Q168.353 380.349 166.524 376.807 Q164.718 373.242 161.084 373.242 M161.084 369.539 Q166.894 369.539 169.95 374.145 Q173.029 378.728 173.029 387.478 Q173.029 396.205 169.95 400.812 Q166.894 405.395 161.084 405.395 Q155.274 405.395 152.195 400.812 Q149.14 396.205 149.14 387.478 Q149.14 378.728 152.195 374.145 Q155.274 369.539 161.084 369.539 Z" fill="#000000" fill-rule="nonzero" fill-opacity="1" /><path clip-path="url(#clip780)" d="M50.9921 199.503 L80.6679 199.503 L80.6679 203.438 L50.9921 203.438 L50.9921 199.503 Z" fill="#000000" fill-rule="nonzero" fill-opacity="1" /><path clip-path="url(#clip780)" d="M94.7882 212.396 L111.108 212.396 L111.108 216.331 L89.1632 216.331 L89.1632 212.396 Q91.8252 209.641 96.4085 205.012 Q101.015 200.359 102.196 199.016 Q104.441 196.493 105.321 194.757 Q106.223 192.998 106.223 191.308 Q106.223 188.554 104.279 186.817 Q102.358 185.081 99.2558 185.081 Q97.0567 185.081 94.603 185.845 Q92.1725 186.609 89.3947 188.16 L89.3947 183.438 Q92.2188 182.304 94.6724 181.725 Q97.1261 181.146 99.1632 181.146 Q104.534 181.146 107.728 183.831 Q110.922 186.517 110.922 191.007 Q110.922 193.137 110.112 195.058 Q109.325 196.956 107.219 199.549 Q106.64 200.22 103.538 203.438 Q100.436 206.632 94.7882 212.396 Z" fill="#000000" fill-rule="nonzero" fill-opacity="1" /><path clip-path="url(#clip780)" d="M119.742 181.771 L141.964 181.771 L141.964 183.762 L129.418 216.331 L124.533 216.331 L136.339 185.706 L119.742 185.706 L119.742 181.771 Z" fill="#000000" fill-rule="nonzero" fill-opacity="1" /><path clip-path="url(#clip780)" d="M161.084 184.85 Q157.473 184.85 155.644 188.415 Q153.839 191.956 153.839 199.086 Q153.839 206.192 155.644 209.757 Q157.473 213.299 161.084 213.299 Q164.718 213.299 166.524 209.757 Q168.353 206.192 168.353 199.086 Q168.353 191.956 166.524 188.415 Q164.718 184.85 161.084 184.85 M161.084 181.146 Q166.894 181.146 169.95 185.753 Q173.029 190.336 173.029 199.086 Q173.029 207.813 169.95 212.419 Q166.894 217.002 161.084 217.002 Q155.274 217.002 152.195 212.419 Q149.14 207.813 149.14 199.086 Q149.14 190.336 152.195 185.753 Q155.274 181.146 161.084 181.146 Z" fill="#000000" fill-rule="nonzero" fill-opacity="1" /><polyline clip-path="url(#clip782)" style="stroke:#009af9; stroke-linecap:round; stroke-linejoin:round; stroke-width:4; stroke-opacity:1; fill:none" points="269.7,87.9763 270.711,1137.44 271.722,1152.7 272.734,1165.42 273.745,1176.17 274.756,1185.4 275.767,1193.44 276.778,1200.52 277.79,1206.84 278.801,1212.55 279.812,1217.74 280.823,1222.52 281.834,1226.95 282.846,1231.09 283.857,1234.99 284.868,1238.68 285.879,1242.2 286.89,1245.58 287.901,1248.84 288.913,1252.01 289.924,1255.1 290.935,1258.13 291.946,1261.11 292.957,1264.06 293.969,1266.99 294.98,1269.91 295.991,1272.84 297.002,1275.78 298.013,1278.74 299.025,1281.73 300.036,1284.75 301.047,1287.83 302.058,1290.95 303.069,1294.13 304.081,1297.37 305.092,1300.67 306.103,1304.03 307.114,1307.46 308.125,1310.95 309.137,1314.51 310.148,1318.11 311.159,1321.77 312.17,1325.46 313.181,1329.17 314.192,1332.9 315.204,1336.62 316.215,1340.32 317.226,1343.98 318.237,1347.59 319.248,1351.11 320.26,1354.55 321.271,1357.87 322.282,1361.08 323.293,1364.14 324.304,1367.07 325.316,1369.84 326.327,1372.46 327.338,1374.92 328.349,1377.23 329.36,1379.4 330.372,1381.42 331.383,1383.3 332.394,1385.04 333.405,1386.67 334.416,1388.18 335.428,1389.59 336.439,1390.9 337.45,1392.12 338.461,1393.26 339.472,1394.32 340.483,1395.32 341.495,1396.25 342.506,1397.13 343.517,1397.96 344.528,1398.74 345.539,1399.48 346.551,1400.19 347.562,1400.86 348.573,1401.51 349.584,1402.12 350.595,1402.72 351.607,1403.29 352.618,1403.85 353.629,1404.38 354.64,1404.9 355.651,1405.41 356.663,1405.91 357.674,1406.4 358.685,1406.87 359.696,1407.34 360.707,1407.8 361.719,1408.26 362.73,1408.7 363.741,1409.15 364.752,1409.58 365.763,1410.02 366.774,1410.45 367.786,1410.87 368.797,1411.3 369.808,1411.72 370.819,1412.14 371.83,1412.55 372.842,1412.97 373.853,1413.38 374.864,1413.79 375.875,1414.2 376.886,1414.61 377.898,1415.01 378.909,1415.42 379.92,1415.82 380.931,1416.22 381.942,1416.62 382.954,1417.02 383.965,1417.42 384.976,1417.81 385.987,1418.2 386.998,1418.6 388.01,1418.98 389.021,1419.37 390.032,1419.76 391.043,1420.14 392.054,1420.52 393.065,1420.9 394.077,1421.27 395.088,1421.64 396.099,1422.01 397.11,1422.38 398.121,1422.74 399.133,1423.1 400.144,1423.46 401.155,1423.81 402.166,1424.16 403.177,1424.5 404.189,1424.84 405.2,1425.18 406.211,1425.51 407.222,1425.84 408.233,1426.16 409.245,1426.48 410.256,1426.79 411.267,1427.1 412.278,1427.41 413.289,1427.71 414.301,1428 415.312,1428.3 416.323,1428.58 417.334,1428.86 418.345,1429.14 419.356,1429.41 420.368,1429.68 421.379,1429.94 422.39,1430.2 423.401,1430.45 424.412,1430.69 425.424,1430.94 426.435,1431.17 427.446,1431.41 428.457,1431.63 429.468,1431.86 430.48,1432.08 431.491,1432.29 432.502,1432.5 433.513,1432.71 434.524,1432.91 435.536,1433.1 436.547,1433.3 437.558,1433.48 438.569,1433.67 439.58,1433.85 440.592,1434.02 441.603,1434.2 442.614,1434.36 443.625,1434.53 444.636,1434.69 445.647,1434.85 446.659,1435 447.67,1435.15 448.681,1435.3 449.692,1435.44 450.703,1435.58 451.715,1435.72 452.726,1435.85 453.737,1435.99 454.748,1436.11 455.759,1436.24 456.771,1436.36 457.782,1436.48 458.793,1436.6 459.804,1436.71 460.815,1436.83 461.827,1436.94 462.838,1437.04 463.849,1437.15 464.86,1437.25 465.871,1437.35 466.883,1437.45 467.894,1437.55 468.905,1437.64 469.916,1437.73 470.927,1437.82 471.938,1437.91 472.95,1438 473.961,1438.08 474.972,1438.17 475.983,1438.25 476.994,1438.33 478.006,1438.41 479.017,1438.48 480.028,1438.56 481.039,1438.63 482.05,1438.71 483.062,1438.78 484.073,1438.85 485.084,1438.91 486.095,1438.98 487.106,1439.05 488.118,1439.11 489.129,1439.17 490.14,1439.24 491.151,1439.3 492.162,1439.36 493.174,1439.41 494.185,1439.47 495.196,1439.53 496.207,1439.58 497.218,1439.64 498.229,1439.69 499.241,1439.74 500.252,1439.8 501.263,1439.85 502.274,1439.9 503.285,1439.95 504.297,1439.99 505.308,1440.04 506.319,1440.09 507.33,1440.13 508.341,1440.18 509.353,1440.22 510.364,1440.27 511.375,1440.31 512.386,1440.35 513.397,1440.39 514.409,1440.44 515.42,1440.48 516.431,1440.52 517.442,1440.56 518.453,1440.59 519.465,1440.63 520.476,1440.67 521.487,1440.71 522.498,1440.74 523.509,1440.78 524.52,1440.81 525.532,1440.85 526.543,1440.88 527.554,1440.92 528.565,1440.95 529.576,1440.98 530.588,1441.02 531.599,1441.05 532.61,1441.08 533.621,1441.11 534.632,1441.14 535.644,1441.17 536.655,1441.2 537.666,1441.23 538.677,1441.26 539.688,1441.29 540.7,1441.32 541.711,1441.35 542.722,1441.37 543.733,1441.4 544.744,1441.43 545.756,1441.46 546.767,1441.48 547.778,1441.51 548.789,1441.53 549.8,1441.56 550.811,1441.58 551.823,1441.61 552.834,1441.63 553.845,1441.66 554.856,1441.68 555.867,1441.71 556.879,1441.73 557.89,1441.75 558.901,1441.78 559.912,1441.8 560.923,1441.82 561.935,1441.84 562.946,1441.87 563.957,1441.89 564.968,1441.91 565.979,1441.93 566.991,1441.95 568.002,1441.97 569.013,1441.99 570.024,1442.01 571.035,1442.03 572.046,1442.05 573.058,1442.07 574.069,1442.09 575.08,1442.11 576.091,1442.13 577.102,1442.15 578.114,1442.17 579.125,1442.19 580.136,1442.21 581.147,1442.23 582.158,1442.24 583.17,1442.26 584.181,1442.28 585.192,1442.3 586.203,1442.32 587.214,1442.33 588.226,1442.35 589.237,1442.37 590.248,1442.38 591.259,1442.4 592.27,1442.42 593.282,1442.43 594.293,1442.45 595.304,1442.47 596.315,1442.48 597.326,1442.5 598.337,1442.51 599.349,1442.53 600.36,1442.55 601.371,1442.56 602.382,1442.58 603.393,1442.59 604.405,1442.61 605.416,1442.62 606.427,1442.64 607.438,1442.65 608.449,1442.67 609.461,1442.68 610.472,1442.69 611.483,1442.71 612.494,1442.72 613.505,1442.74 614.517,1442.75 615.528,1442.76 616.539,1442.78 617.55,1442.79 618.561,1442.8 619.573,1442.82 620.584,1442.83 621.595,1442.84 622.606,1442.86 623.617,1442.87 624.628,1442.88 625.64,1442.9 626.651,1442.91 627.662,1442.92 628.673,1442.93 629.684,1442.95 630.696,1442.96 631.707,1442.97 632.718,1442.98 633.729,1443 634.74,1443.01 635.752,1443.02 636.763,1443.03 637.774,1443.04 638.785,1443.06 639.796,1443.07 640.808,1443.08 641.819,1443.09 642.83,1443.1 643.841,1443.11 644.852,1443.12 645.864,1443.13 646.875,1443.15 647.886,1443.16 648.897,1443.17 649.908,1443.18 650.919,1443.19 651.931,1443.2 652.942,1443.21 653.953,1443.22 654.964,1443.23 655.975,1443.24 656.987,1443.25 657.998,1443.26 659.009,1443.27 660.02,1443.28 661.031,1443.29 662.043,1443.3 663.054,1443.31 664.065,1443.32 665.076,1443.33 666.087,1443.34 667.099,1443.35 668.11,1443.36 669.121,1443.37 670.132,1443.38 671.143,1443.39 672.155,1443.4 673.166,1443.41 674.177,1443.42 675.188,1443.43 676.199,1443.44 677.21,1443.45 678.222,1443.46 679.233,1443.47 680.244,1443.48 681.255,1443.49 682.266,1443.49 683.278,1443.5 684.289,1443.51 685.3,1443.52 686.311,1443.53 687.322,1443.54 688.334,1443.55 689.345,1443.56 690.356,1443.56 691.367,1443.57 692.378,1443.58 693.39,1443.59 694.401,1443.6 695.412,1443.61 696.423,1443.62 697.434,1443.62 698.446,1443.63 699.457,1443.64 700.468,1443.65 701.479,1443.66 702.49,1443.66 703.501,1443.67 704.513,1443.68 705.524,1443.69 706.535,1443.7 707.546,1443.7 708.557,1443.71 709.569,1443.72 710.58,1443.73 711.591,1443.74 712.602,1443.74 713.613,1443.75 714.625,1443.76 715.636,1443.77 716.647,1443.77 717.658,1443.78 718.669,1443.79 719.681,1443.8 720.692,1443.8 721.703,1443.81 722.714,1443.82 723.725,1443.83 724.737,1443.83 725.748,1443.84 726.759,1443.85 727.77,1443.85 728.781,1443.86 729.792,1443.87 730.804,1443.88 731.815,1443.88 732.826,1443.89 733.837,1443.9 734.848,1443.9 735.86,1443.91 736.871,1443.92 737.882,1443.92 738.893,1443.93 739.904,1443.94 740.916,1443.94 741.927,1443.95 742.938,1443.96 743.949,1443.96 744.96,1443.97 745.972,1443.98 746.983,1443.98 747.994,1443.99 749.005,1444 750.016,1444 751.028,1444.01 752.039,1444.02 753.05,1444.02 754.061,1444.03 755.072,1444.04 756.083,1444.04 757.095,1444.05 758.106,1444.05 759.117,1444.06 760.128,1444.07 761.139,1444.07 762.151,1444.08 763.162,1444.08 764.173,1444.09 765.184,1444.1 766.195,1444.1 767.207,1444.11 768.218,1444.11 769.229,1444.12 770.24,1444.13 771.251,1444.13 772.263,1444.14 773.274,1444.14 774.285,1444.15 775.296,1444.16 776.307,1444.16 777.319,1444.17 778.33,1444.17 779.341,1444.18 780.352,1444.18 781.363,1444.19 782.374,1444.2 783.386,1444.2 784.397,1444.21 785.408,1444.21 786.419,1444.22 787.43,1444.22 788.442,1444.23 789.453,1444.23 790.464,1444.24 791.475,1444.24 792.486,1444.25 793.498,1444.26 794.509,1444.26 795.52,1444.27 796.531,1444.27 797.542,1444.28 798.554,1444.28 799.565,1444.29 800.576,1444.29 801.587,1444.3 802.598,1444.3 803.61,1444.31 804.621,1444.31 805.632,1444.32 806.643,1444.32 807.654,1444.33 808.665,1444.33 809.677,1444.34 810.688,1444.34 811.699,1444.35 812.71,1444.35 813.721,1444.36 814.733,1444.36 815.744,1444.37 816.755,1444.37 817.766,1444.38 818.777,1444.38 819.789,1444.39 820.8,1444.39 821.811,1444.4 822.822,1444.4 823.833,1444.41 824.845,1444.41 825.856,1444.42 826.867,1444.42 827.878,1444.42 828.889,1444.43 829.901,1444.43 830.912,1444.44 831.923,1444.44 832.934,1444.45 833.945,1444.45 834.956,1444.46 835.968,1444.46 836.979,1444.47 837.99,1444.47 839.001,1444.47 840.012,1444.48 841.024,1444.48 842.035,1444.49 843.046,1444.49 844.057,1444.5 845.068,1444.5 846.08,1444.51 847.091,1444.51 848.102,1444.51 849.113,1444.52 850.124,1444.52 851.136,1444.53 852.147,1444.53 853.158,1444.54 854.169,1444.54 855.18,1444.54 856.191,1444.55 857.203,1444.55 858.214,1444.56 859.225,1444.56 860.236,1444.56 861.247,1444.57 862.259,1444.57 863.27,1444.58 864.281,1444.58 865.292,1444.58 866.303,1444.59 867.315,1444.59 868.326,1444.6 869.337,1444.6 870.348,1444.6 871.359,1444.61 872.371,1444.61 873.382,1444.62 874.393,1444.62 875.404,1444.62 876.415,1444.63 877.427,1444.63 878.438,1444.64 879.449,1444.64 880.46,1444.64 881.471,1444.65 882.482,1444.65 883.494,1444.65 884.505,1444.66 885.516,1444.66 886.527,1444.67 887.538,1444.67 888.55,1444.67 889.561,1444.68 890.572,1444.68 891.583,1444.68 892.594,1444.69 893.606,1444.69 894.617,1444.69 895.628,1444.7 896.639,1444.7 897.65,1444.71 898.662,1444.71 899.673,1444.71 900.684,1444.72 901.695,1444.72 902.706,1444.72 903.718,1444.73 904.729,1444.73 905.74,1444.73 906.751,1444.74 907.762,1444.74 908.773,1444.74 909.785,1444.75 910.796,1444.75 911.807,1444.75 912.818,1444.76 913.829,1444.76 914.841,1444.76 915.852,1444.77 916.863,1444.77 917.874,1444.77 918.885,1444.78 919.897,1444.78 920.908,1444.78 921.919,1444.79 922.93,1444.79 923.941,1444.79 924.953,1444.8 925.964,1444.8 926.975,1444.8 927.986,1444.81 928.997,1444.81 930.009,1444.81 931.02,1444.82 932.031,1444.82 933.042,1444.82 934.053,1444.82 935.064,1444.83 936.076,1444.83 937.087,1444.83 938.098,1444.84 939.109,1444.84 940.12,1444.84 941.132,1444.85 942.143,1444.85 943.154,1444.85 944.165,1444.86 945.176,1444.86 946.188,1444.86 947.199,1444.86 948.21,1444.87 949.221,1444.87 950.232,1444.87 951.244,1444.88 952.255,1444.88 953.266,1444.88 954.277,1444.88 955.288,1444.89 956.3,1444.89 957.311,1444.89 958.322,1444.9 959.333,1444.9 960.344,1444.9 961.355,1444.9 962.367,1444.91 963.378,1444.91 964.389,1444.91 965.4,1444.92 966.411,1444.92 967.423,1444.92 968.434,1444.92 969.445,1444.93 970.456,1444.93 971.467,1444.93 972.479,1444.93 973.49,1444.94 974.501,1444.94 975.512,1444.94 976.523,1444.95 977.535,1444.95 978.546,1444.95 979.557,1444.95 980.568,1444.96 981.579,1444.96 982.591,1444.96 983.602,1444.96 984.613,1444.97 985.624,1444.97 986.635,1444.97 987.646,1444.97 988.658,1444.98 989.669,1444.98 990.68,1444.98 991.691,1444.98 992.702,1444.99 993.714,1444.99 994.725,1444.99 995.736,1444.99 996.747,1445 997.758,1445 998.77,1445 999.781,1445 1000.79,1445.01 1001.8,1445.01 1002.81,1445.01 1003.83,1445.01 1004.84,1445.02 1005.85,1445.02 1006.86,1445.02 1007.87,1445.02 1008.88,1445.03 1009.89,1445.03 1010.9,1445.03 1011.92,1445.03 1012.93,1445.03 1013.94,1445.04 1014.95,1445.04 1015.96,1445.04 1016.97,1445.04 1017.98,1445.05 1018.99,1445.05 1020,1445.05 1021.02,1445.05 1022.03,1445.06 1023.04,1445.06 1024.05,1445.06 1025.06,1445.06 1026.07,1445.06 1027.08,1445.07 1028.09,1445.07 1029.11,1445.07 1030.12,1445.07 1031.13,1445.08 1032.14,1445.08 1033.15,1445.08 1034.16,1445.08 1035.17,1445.08 1036.18,1445.09 1037.19,1445.09 1038.21,1445.09 1039.22,1445.09 1040.23,1445.09 1041.24,1445.1 1042.25,1445.1 1043.26,1445.1 1044.27,1445.1 1045.28,1445.11 1046.3,1445.11 1047.31,1445.11 1048.32,1445.11 1049.33,1445.11 1050.34,1445.12 1051.35,1445.12 1052.36,1445.12 1053.37,1445.12 1054.39,1445.12 1055.4,1445.13 1056.41,1445.13 1057.42,1445.13 1058.43,1445.13 1059.44,1445.13 1060.45,1445.14 1061.46,1445.14 1062.47,1445.14 1063.49,1445.14 1064.5,1445.14 1065.51,1445.15 1066.52,1445.15 1067.53,1445.15 1068.54,1445.15 1069.55,1445.15 1070.56,1445.15 1071.58,1445.16 1072.59,1445.16 1073.6,1445.16 1074.61,1445.16 1075.62,1445.16 1076.63,1445.17 1077.64,1445.17 1078.65,1445.17 1079.66,1445.17 1080.68,1445.17 1081.69,1445.18 1082.7,1445.18 1083.71,1445.18 1084.72,1445.18 1085.73,1445.18 1086.74,1445.18 1087.75,1445.19 1088.77,1445.19 1089.78,1445.19 1090.79,1445.19 1091.8,1445.19 1092.81,1445.2 1093.82,1445.2 1094.83,1445.2 1095.84,1445.2 1096.86,1445.2 1097.87,1445.2 1098.88,1445.21 1099.89,1445.21 1100.9,1445.21 1101.91,1445.21 1102.92,1445.21 1103.93,1445.21 1104.94,1445.22 1105.96,1445.22 1106.97,1445.22 1107.98,1445.22 1108.99,1445.22 1110,1445.22 1111.01,1445.23 1112.02,1445.23 1113.03,1445.23 1114.05,1445.23 1115.06,1445.23 1116.07,1445.23 1117.08,1445.24 1118.09,1445.24 1119.1,1445.24 1120.11,1445.24 1121.12,1445.24 1122.14,1445.24 1123.15,1445.25 1124.16,1445.25 1125.17,1445.25 1126.18,1445.25 1127.19,1445.25 1128.2,1445.25 1129.21,1445.25 1130.22,1445.26 1131.24,1445.26 1132.25,1445.26 1133.26,1445.26 1134.27,1445.26 1135.28,1445.26 1136.29,1445.27 1137.3,1445.27 1138.31,1445.27 1139.33,1445.27 1140.34,1445.27 1141.35,1445.27 1142.36,1445.27 1143.37,1445.28 1144.38,1445.28 1145.39,1445.28 1146.4,1445.28 1147.41,1445.28 1148.43,1445.28 1149.44,1445.28 1150.45,1445.29 1151.46,1445.29 1152.47,1445.29 1153.48,1445.29 1154.49,1445.29 1155.5,1445.29 1156.52,1445.29 1157.53,1445.3 1158.54,1445.3 1159.55,1445.3 1160.56,1445.3 1161.57,1445.3 1162.58,1445.3 1163.59,1445.3 1164.61,1445.31 1165.62,1445.31 1166.63,1445.31 1167.64,1445.31 1168.65,1445.31 1169.66,1445.31 1170.67,1445.31 1171.68,1445.31 1172.69,1445.32 1173.71,1445.32 1174.72,1445.32 1175.73,1445.32 1176.74,1445.32 1177.75,1445.32 1178.76,1445.32 1179.77,1445.33 1180.78,1445.33 1181.8,1445.33 1182.81,1445.33 1183.82,1445.33 1184.83,1445.33 1185.84,1445.33 1186.85,1445.33 1187.86,1445.34 1188.87,1445.34 1189.88,1445.34 1190.9,1445.34 1191.91,1445.34 1192.92,1445.34 1193.93,1445.34 1194.94,1445.34 1195.95,1445.35 1196.96,1445.35 1197.97,1445.35 1198.99,1445.35 1200,1445.35 1201.01,1445.35 1202.02,1445.35 1203.03,1445.35 1204.04,1445.36 1205.05,1445.36 1206.06,1445.36 1207.08,1445.36 1208.09,1445.36 1209.1,1445.36 1210.11,1445.36 1211.12,1445.36 1212.13,1445.36 1213.14,1445.37 1214.15,1445.37 1215.16,1445.37 1216.18,1445.37 1217.19,1445.37 1218.2,1445.37 1219.21,1445.37 1220.22,1445.37 1221.23,1445.37 1222.24,1445.38 1223.25,1445.38 1224.27,1445.38 1225.28,1445.38 1226.29,1445.38 1227.3,1445.38 1228.31,1445.38 1229.32,1445.38 1230.33,1445.38 1231.34,1445.39 1232.35,1445.39 1233.37,1445.39 1234.38,1445.39 1235.39,1445.39 1236.4,1445.39 1237.41,1445.39 1238.42,1445.39 1239.43,1445.39 1240.44,1445.4 1241.46,1445.4 1242.47,1445.4 1243.48,1445.4 1244.49,1445.4 1245.5,1445.4 1246.51,1445.4 1247.52,1445.4 1248.53,1445.4 1249.55,1445.4 1250.56,1445.41 1251.57,1445.41 1252.58,1445.41 1253.59,1445.41 1254.6,1445.41 1255.61,1445.41 1256.62,1445.41 1257.63,1445.41 1258.65,1445.41 1259.66,1445.41 1260.67,1445.42 1261.68,1445.42 1262.69,1445.42 1263.7,1445.42 1264.71,1445.42 1265.72,1445.42 1266.74,1445.42 1267.75,1445.42 1268.76,1445.42 1269.77,1445.42 1270.78,1445.43 1271.79,1445.43 1272.8,1445.43 1273.81,1445.43 1274.83,1445.43 1275.84,1445.43 1276.85,1445.43 1277.86,1445.43 1278.87,1445.43 1279.88,1445.43 1280.89,1445.43 1281.9,1445.44 1282.91,1445.44 1283.93,1445.44 1284.94,1445.44 1285.95,1445.44 1286.96,1445.44 1287.97,1445.44 1288.98,1445.44 1289.99,1445.44 1291,1445.44 1292.02,1445.44 1293.03,1445.45 1294.04,1445.45 1295.05,1445.45 1296.06,1445.45 1297.07,1445.45 1298.08,1445.45 1299.09,1445.45 1300.1,1445.45 1301.12,1445.45 1302.13,1445.45 1303.14,1445.45 1304.15,1445.45 1305.16,1445.46 1306.17,1445.46 1307.18,1445.46 1308.19,1445.46 1309.21,1445.46 1310.22,1445.46 1311.23,1445.46 1312.24,1445.46 1313.25,1445.46 1314.26,1445.46 1315.27,1445.46 1316.28,1445.46 1317.3,1445.47 1318.31,1445.47 1319.32,1445.47 1320.33,1445.47 1321.34,1445.47 1322.35,1445.47 1323.36,1445.47 1324.37,1445.47 1325.38,1445.47 1326.4,1445.47 1327.41,1445.47 1328.42,1445.47 1329.43,1445.48 1330.44,1445.48 1331.45,1445.48 1332.46,1445.48 1333.47,1445.48 1334.49,1445.48 1335.5,1445.48 1336.51,1445.48 1337.52,1445.48 1338.53,1445.48 1339.54,1445.48 1340.55,1445.48 1341.56,1445.48 1342.57,1445.49 1343.59,1445.49 1344.6,1445.49 1345.61,1445.49 1346.62,1445.49 1347.63,1445.49 1348.64,1445.49 1349.65,1445.49 1350.66,1445.49 1351.68,1445.49 1352.69,1445.49 1353.7,1445.49 1354.71,1445.49 1355.72,1445.49 1356.73,1445.5 1357.74,1445.5 1358.75,1445.5 1359.77,1445.5 1360.78,1445.5 1361.79,1445.5 1362.8,1445.5 1363.81,1445.5 1364.82,1445.5 1365.83,1445.5 1366.84,1445.5 1367.85,1445.5 1368.87,1445.5 1369.88,1445.5 1370.89,1445.51 1371.9,1445.51 1372.91,1445.51 1373.92,1445.51 1374.93,1445.51 1375.94,1445.51 1376.96,1445.51 1377.97,1445.51 1378.98,1445.51 1379.99,1445.51 1381,1445.51 1382.01,1445.51 1383.02,1445.51 1384.03,1445.51 1385.05,1445.51 1386.06,1445.52 1387.07,1445.52 1388.08,1445.52 1389.09,1445.52 1390.1,1445.52 1391.11,1445.52 1392.12,1445.52 1393.13,1445.52 1394.15,1445.52 1395.16,1445.52 1396.17,1445.52 1397.18,1445.52 1398.19,1445.52 1399.2,1445.52 1400.21,1445.52 1401.22,1445.52 1402.24,1445.53 1403.25,1445.53 1404.26,1445.53 1405.27,1445.53 1406.28,1445.53 1407.29,1445.53 1408.3,1445.53 1409.31,1445.53 1410.32,1445.53 1411.34,1445.53 1412.35,1445.53 1413.36,1445.53 1414.37,1445.53 1415.38,1445.53 1416.39,1445.53 1417.4,1445.53 1418.41,1445.53 1419.43,1445.54 1420.44,1445.54 1421.45,1445.54 1422.46,1445.54 1423.47,1445.54 1424.48,1445.54 1425.49,1445.54 1426.5,1445.54 1427.52,1445.54 1428.53,1445.54 1429.54,1445.54 1430.55,1445.54 1431.56,1445.54 1432.57,1445.54 1433.58,1445.54 1434.59,1445.54 1435.6,1445.54 1436.62,1445.54 1437.63,1445.55 1438.64,1445.55 1439.65,1445.55 1440.66,1445.55 1441.67,1445.55 1442.68,1445.55 1443.69,1445.55 1444.71,1445.55 1445.72,1445.55 1446.73,1445.55 1447.74,1445.55 1448.75,1445.55 1449.76,1445.55 1450.77,1445.55 1451.78,1445.55 1452.79,1445.55 1453.81,1445.55 1454.82,1445.55 1455.83,1445.55 1456.84,1445.56 1457.85,1445.56 1458.86,1445.56 1459.87,1445.56 1460.88,1445.56 1461.9,1445.56 1462.91,1445.56 1463.92,1445.56 1464.93,1445.56 1465.94,1445.56 1466.95,1445.56 1467.96,1445.56 1468.97,1445.56 1469.99,1445.56 1471,1445.56 1472.01,1445.56 1473.02,1445.56 1474.03,1445.56 1475.04,1445.56 1476.05,1445.56 1477.06,1445.57 1478.07,1445.57 1479.09,1445.57 1480.1,1445.57 1481.11,1445.57 1482.12,1445.57 1483.13,1445.57 1484.14,1445.57 1485.15,1445.57 1486.16,1445.57 1487.18,1445.57 1488.19,1445.57 1489.2,1445.57 1490.21,1445.57 1491.22,1445.57 1492.23,1445.57 1493.24,1445.57 1494.25,1445.57 1495.26,1445.57 1496.28,1445.57 1497.29,1445.57 1498.3,1445.58 1499.31,1445.58 1500.32,1445.58 1501.33,1445.58 1502.34,1445.58 1503.35,1445.58 1504.37,1445.58 1505.38,1445.58 1506.39,1445.58 1507.4,1445.58 1508.41,1445.58 1509.42,1445.58 1510.43,1445.58 1511.44,1445.58 1512.46,1445.58 1513.47,1445.58 1514.48,1445.58 1515.49,1445.58 1516.5,1445.58 1517.51,1445.58 1518.52,1445.58 1519.53,1445.58 1520.54,1445.58 1521.56,1445.59 1522.57,1445.59 1523.58,1445.59 1524.59,1445.59 1525.6,1445.59 1526.61,1445.59 1527.62,1445.59 1528.63,1445.59 1529.65,1445.59 1530.66,1445.59 1531.67,1445.59 1532.68,1445.59 1533.69,1445.59 1534.7,1445.59 1535.71,1445.59 1536.72,1445.59 1537.74,1445.59 1538.75,1445.59 1539.76,1445.59 1540.77,1445.59 1541.78,1445.59 1542.79,1445.59 1543.8,1445.59 1544.81,1445.59 1545.82,1445.59 1546.84,1445.6 1547.85,1445.6 1548.86,1445.6 1549.87,1445.6 1550.88,1445.6 1551.89,1445.6 1552.9,1445.6 1553.91,1445.6 1554.93,1445.6 1555.94,1445.6 1556.95,1445.6 1557.96,1445.6 1558.97,1445.6 1559.98,1445.6 1560.99,1445.6 1562,1445.6 1563.01,1445.6 1564.03,1445.6 1565.04,1445.6 1566.05,1445.6 1567.06,1445.6 1568.07,1445.6 1569.08,1445.6 1570.09,1445.6 1571.1,1445.6 1572.12,1445.6 1573.13,1445.6 1574.14,1445.61 1575.15,1445.61 1576.16,1445.61 1577.17,1445.61 1578.18,1445.61 1579.19,1445.61 1580.21,1445.61 1581.22,1445.61 1582.23,1445.61 1583.24,1445.61 1584.25,1445.61 1585.26,1445.61 1586.27,1445.61 1587.28,1445.61 1588.29,1445.61 1589.31,1445.61 1590.32,1445.61 1591.33,1445.61 1592.34,1445.61 1593.35,1445.61 1594.36,1445.61 1595.37,1445.61 1596.38,1445.61 1597.4,1445.61 1598.41,1445.61 1599.42,1445.61 1600.43,1445.61 1601.44,1445.61 1602.45,1445.61 1603.46,1445.62 1604.47,1445.62 1605.48,1445.62 1606.5,1445.62 1607.51,1445.62 1608.52,1445.62 1609.53,1445.62 1610.54,1445.62 1611.55,1445.62 1612.56,1445.62 1613.57,1445.62 1614.59,1445.62 1615.6,1445.62 1616.61,1445.62 1617.62,1445.62 1618.63,1445.62 1619.64,1445.62 1620.65,1445.62 1621.66,1445.62 1622.68,1445.62 1623.69,1445.62 1624.7,1445.62 1625.71,1445.62 1626.72,1445.62 1627.73,1445.62 1628.74,1445.62 1629.75,1445.62 1630.76,1445.62 1631.78,1445.62 1632.79,1445.62 1633.8,1445.62 1634.81,1445.62 1635.82,1445.62 1636.83,1445.63 1637.84,1445.63 1638.85,1445.63 1639.87,1445.63 1640.88,1445.63 1641.89,1445.63 1642.9,1445.63 1643.91,1445.63 1644.92,1445.63 1645.93,1445.63 1646.94,1445.63 1647.95,1445.63 1648.97,1445.63 1649.98,1445.63 1650.99,1445.63 1652,1445.63 1653.01,1445.63 1654.02,1445.63 1655.03,1445.63 1656.04,1445.63 1657.06,1445.63 1658.07,1445.63 1659.08,1445.63 1660.09,1445.63 1661.1,1445.63 1662.11,1445.63 1663.12,1445.63 1664.13,1445.63 1665.15,1445.63 1666.16,1445.63 1667.17,1445.63 1668.18,1445.63 1669.19,1445.63 1670.2,1445.63 1671.21,1445.63 1672.22,1445.64 1673.23,1445.64 1674.25,1445.64 1675.26,1445.64 1676.27,1445.64 1677.28,1445.64 1678.29,1445.64 1679.3,1445.64 1680.31,1445.64 1681.32,1445.64 1682.34,1445.64 1683.35,1445.64 1684.36,1445.64 1685.37,1445.64 1686.38,1445.64 1687.39,1445.64 1688.4,1445.64 1689.41,1445.64 1690.43,1445.64 1691.44,1445.64 1692.45,1445.64 1693.46,1445.64 1694.47,1445.64 1695.48,1445.64 1696.49,1445.64 1697.5,1445.64 1698.51,1445.64 1699.53,1445.64 1700.54,1445.64 1701.55,1445.64 1702.56,1445.64 1703.57,1445.64 1704.58,1445.64 1705.59,1445.64 1706.6,1445.64 1707.62,1445.64 1708.63,1445.64 1709.64,1445.64 1710.65,1445.64 1711.66,1445.64 1712.67,1445.65 1713.68,1445.65 1714.69,1445.65 1715.7,1445.65 1716.72,1445.65 1717.73,1445.65 1718.74,1445.65 1719.75,1445.65 1720.76,1445.65 1721.77,1445.65 1722.78,1445.65 1723.79,1445.65 1724.81,1445.65 1725.82,1445.65 1726.83,1445.65 1727.84,1445.65 1728.85,1445.65 1729.86,1445.65 1730.87,1445.65 1731.88,1445.65 1732.9,1445.65 1733.91,1445.65 1734.92,1445.65 1735.93,1445.65 1736.94,1445.65 1737.95,1445.65 1738.96,1445.65 1739.97,1445.65 1740.98,1445.65 1742,1445.65 1743.01,1445.65 1744.02,1445.65 1745.03,1445.65 1746.04,1445.65 1747.05,1445.65 1748.06,1445.65 1749.07,1445.65 1750.09,1445.65 1751.1,1445.65 1752.11,1445.65 1753.12,1445.65 1754.13,1445.65 1755.14,1445.65 1756.15,1445.65 1757.16,1445.65 1758.17,1445.65 1759.19,1445.66 1760.2,1445.66 1761.21,1445.66 1762.22,1445.66 1763.23,1445.66 1764.24,1445.66 1765.25,1445.66 1766.26,1445.66 1767.28,1445.66 1768.29,1445.66 1769.3,1445.66 1770.31,1445.66 1771.32,1445.66 1772.33,1445.66 1773.34,1445.66 1774.35,1445.66 1775.37,1445.66 1776.38,1445.66 1777.39,1445.66 1778.4,1445.66 1779.41,1445.66 1780.42,1445.66 1781.43,1445.66 1782.44,1445.66 1783.45,1445.66 1784.47,1445.66 1785.48,1445.66 1786.49,1445.66 1787.5,1445.66 1788.51,1445.66 1789.52,1445.66 1790.53,1445.66 1791.54,1445.66 1792.56,1445.66 1793.57,1445.66 1794.58,1445.66 1795.59,1445.66 1796.6,1445.66 1797.61,1445.66 1798.62,1445.66 1799.63,1445.66 1800.64,1445.66 1801.66,1445.66 1802.67,1445.66 1803.68,1445.66 1804.69,1445.66 1805.7,1445.66 1806.71,1445.66 1807.72,1445.66 1808.73,1445.66 1809.75,1445.66 1810.76,1445.67 1811.77,1445.67 1812.78,1445.67 1813.79,1445.67 1814.8,1445.67 1815.81,1445.67 1816.82,1445.67 1817.84,1445.67 1818.85,1445.67 1819.86,1445.67 1820.87,1445.67 1821.88,1445.67 1822.89,1445.67 1823.9,1445.67 1824.91,1445.67 1825.92,1445.67 1826.94,1445.67 1827.95,1445.67 1828.96,1445.67 1829.97,1445.67 1830.98,1445.67 1831.99,1445.67 1833,1445.67 1834.01,1445.67 1835.03,1445.67 1836.04,1445.67 1837.05,1445.67 1838.06,1445.67 1839.07,1445.67 1840.08,1445.67 1841.09,1445.67 1842.1,1445.67 1843.12,1445.67 1844.13,1445.67 1845.14,1445.67 1846.15,1445.67 1847.16,1445.67 1848.17,1445.67 1849.18,1445.67 1850.19,1445.67 1851.2,1445.67 1852.22,1445.67 1853.23,1445.67 1854.24,1445.67 1855.25,1445.67 1856.26,1445.67 1857.27,1445.67 1858.28,1445.67 1859.29,1445.67 1860.31,1445.67 1861.32,1445.67 1862.33,1445.67 1863.34,1445.67 1864.35,1445.67 1865.36,1445.67 1866.37,1445.67 1867.38,1445.67 1868.39,1445.67 1869.41,1445.67 1870.42,1445.67 1871.43,1445.67 1872.44,1445.68 1873.45,1445.68 1874.46,1445.68 1875.47,1445.68 1876.48,1445.68 1877.5,1445.68 1878.51,1445.68 1879.52,1445.68 1880.53,1445.68 1881.54,1445.68 1882.55,1445.68 1883.56,1445.68 1884.57,1445.68 1885.59,1445.68 1886.6,1445.68 1887.61,1445.68 1888.62,1445.68 1889.63,1445.68 1890.64,1445.68 1891.65,1445.68 1892.66,1445.68 1893.67,1445.68 1894.69,1445.68 1895.7,1445.68 1896.71,1445.68 1897.72,1445.68 1898.73,1445.68 1899.74,1445.68 1900.75,1445.68 1901.76,1445.68 1902.78,1445.68 1903.79,1445.68 1904.8,1445.68 1905.81,1445.68 1906.82,1445.68 1907.83,1445.68 1908.84,1445.68 1909.85,1445.68 1910.86,1445.68 1911.88,1445.68 1912.89,1445.68 1913.9,1445.68 1914.91,1445.68 1915.92,1445.68 1916.93,1445.68 1917.94,1445.68 1918.95,1445.68 1919.97,1445.68 1920.98,1445.68 1921.99,1445.68 1923,1445.68 1924.01,1445.68 1925.02,1445.68 1926.03,1445.68 1927.04,1445.68 1928.06,1445.68 1929.07,1445.68 1930.08,1445.68 1931.09,1445.68 1932.1,1445.68 1933.11,1445.68 1934.12,1445.68 1935.13,1445.68 1936.14,1445.68 1937.16,1445.68 1938.17,1445.68 1939.18,1445.68 1940.19,1445.68 1941.2,1445.68 1942.21,1445.68 1943.22,1445.68 1944.23,1445.69 1945.25,1445.69 1946.26,1445.69 1947.27,1445.69 1948.28,1445.69 1949.29,1445.69 1950.3,1445.69 1951.31,1445.69 1952.32,1445.69 1953.33,1445.69 1954.35,1445.69 1955.36,1445.69 1956.37,1445.69 1957.38,1445.69 1958.39,1445.69 1959.4,1445.69 1960.41,1445.69 1961.42,1445.69 1962.44,1445.69 1963.45,1445.69 1964.46,1445.69 1965.47,1445.69 1966.48,1445.69 1967.49,1445.69 1968.5,1445.69 1969.51,1445.69 1970.53,1445.69 1971.54,1445.69 1972.55,1445.69 1973.56,1445.69 1974.57,1445.69 1975.58,1445.69 1976.59,1445.69 1977.6,1445.69 1978.61,1445.69 1979.63,1445.69 1980.64,1445.69 1981.65,1445.69 1982.66,1445.69 1983.67,1445.69 1984.68,1445.69 1985.69,1445.69 1986.7,1445.69 1987.72,1445.69 1988.73,1445.69 1989.74,1445.69 1990.75,1445.69 1991.76,1445.69 1992.77,1445.69 1993.78,1445.69 1994.79,1445.69 1995.81,1445.69 1996.82,1445.69 1997.83,1445.69 1998.84,1445.69 1999.85,1445.69 2000.86,1445.69 2001.87,1445.69 2002.88,1445.69 2003.89,1445.69 2004.91,1445.69 2005.92,1445.69 2006.93,1445.69 2007.94,1445.69 2008.95,1445.69 2009.96,1445.69 2010.97,1445.69 2011.98,1445.69 2013,1445.69 2014.01,1445.69 2015.02,1445.69 2016.03,1445.69 2017.04,1445.69 2018.05,1445.69 2019.06,1445.69 2020.07,1445.69 2021.08,1445.69 2022.1,1445.69 2023.11,1445.69 2024.12,1445.69 2025.13,1445.69 2026.14,1445.69 2027.15,1445.69 2028.16,1445.69 2029.17,1445.69 2030.19,1445.69 2031.2,1445.69 2032.21,1445.7 2033.22,1445.7 2034.23,1445.7 2035.24,1445.7 2036.25,1445.7 2037.26,1445.7 2038.28,1445.7 2039.29,1445.7 2040.3,1445.7 2041.31,1445.7 2042.32,1445.7 2043.33,1445.7 2044.34,1445.7 2045.35,1445.7 2046.36,1445.7 2047.38,1445.7 2048.39,1445.7 2049.4,1445.7 2050.41,1445.7 2051.42,1445.7 2052.43,1445.7 2053.44,1445.7 2054.45,1445.7 2055.47,1445.7 2056.48,1445.7 2057.49,1445.7 2058.5,1445.7 2059.51,1445.7 2060.52,1445.7 2061.53,1445.7 2062.54,1445.7 2063.55,1445.7 2064.57,1445.7 2065.58,1445.7 2066.59,1445.7 2067.6,1445.7 2068.61,1445.7 2069.62,1445.7 2070.63,1445.7 2071.64,1445.7 2072.66,1445.7 2073.67,1445.7 2074.68,1445.7 2075.69,1445.7 2076.7,1445.7 2077.71,1445.7 2078.72,1445.7 2079.73,1445.7 2080.75,1445.7 2081.76,1445.7 2082.77,1445.7 2083.78,1445.7 2084.79,1445.7 2085.8,1445.7 2086.81,1445.7 2087.82,1445.7 2088.83,1445.7 2089.85,1445.7 2090.86,1445.7 2091.87,1445.7 2092.88,1445.7 2093.89,1445.7 2094.9,1445.7 2095.91,1445.7 2096.92,1445.7 2097.94,1445.7 2098.95,1445.7 2099.96,1445.7 2100.97,1445.7 2101.98,1445.7 2102.99,1445.7 2104,1445.7 2105.01,1445.7 2106.03,1445.7 2107.04,1445.7 2108.05,1445.7 2109.06,1445.7 2110.07,1445.7 2111.08,1445.7 2112.09,1445.7 2113.1,1445.7 2114.11,1445.7 2115.13,1445.7 2116.14,1445.7 2117.15,1445.7 2118.16,1445.7 2119.17,1445.7 2120.18,1445.7 2121.19,1445.7 2122.2,1445.7 2123.22,1445.7 2124.23,1445.7 2125.24,1445.7 2126.25,1445.7 2127.26,1445.7 2128.27,1445.7 2129.28,1445.7 2130.29,1445.7 2131.3,1445.7 2132.32,1445.7 2133.33,1445.7 2134.34,1445.7 2135.35,1445.7 2136.36,1445.7 2137.37,1445.7 2138.38,1445.7 2139.39,1445.7 2140.41,1445.71 2141.42,1445.71 2142.43,1445.71 2143.44,1445.71 2144.45,1445.71 2145.46,1445.71 2146.47,1445.71 2147.48,1445.71 2148.5,1445.71 2149.51,1445.71 2150.52,1445.71 2151.53,1445.71 2152.54,1445.71 2153.55,1445.71 2154.56,1445.71 2155.57,1445.71 2156.58,1445.71 2157.6,1445.71 2158.61,1445.71 2159.62,1445.71 2160.63,1445.71 2161.64,1445.71 2162.65,1445.71 2163.66,1445.71 2164.67,1445.71 2165.69,1445.71 2166.7,1445.71 2167.71,1445.71 2168.72,1445.71 2169.73,1445.71 2170.74,1445.71 2171.75,1445.71 2172.76,1445.71 2173.77,1445.71 2174.79,1445.71 2175.8,1445.71 2176.81,1445.71 2177.82,1445.71 2178.83,1445.71 2179.84,1445.71 2180.85,1445.71 2181.86,1445.71 2182.88,1445.71 2183.89,1445.71 2184.9,1445.71 2185.91,1445.71 2186.92,1445.71 2187.93,1445.71 2188.94,1445.71 2189.95,1445.71 2190.97,1445.71 2191.98,1445.71 2192.99,1445.71 2194,1445.71 2195.01,1445.71 2196.02,1445.71 2197.03,1445.71 2198.04,1445.71 2199.05,1445.71 2200.07,1445.71 2201.08,1445.71 2202.09,1445.71 2203.1,1445.71 2204.11,1445.71 2205.12,1445.71 2206.13,1445.71 2207.14,1445.71 2208.16,1445.71 2209.17,1445.71 2210.18,1445.71 2211.19,1445.71 2212.2,1445.71 2213.21,1445.71 2214.22,1445.71 2215.23,1445.71 2216.24,1445.71 2217.26,1445.71 2218.27,1445.71 2219.28,1445.71 2220.29,1445.71 2221.3,1445.71 2222.31,1445.71 2223.32,1445.71 2224.33,1445.71 2225.35,1445.71 2226.36,1445.71 2227.37,1445.71 2228.38,1445.71 2229.39,1445.71 2230.4,1445.71 2231.41,1445.71 2232.42,1445.71 2233.44,1445.71 2234.45,1445.71 2235.46,1445.71 2236.47,1445.71 2237.48,1445.71 2238.49,1445.71 2239.5,1445.71 2240.51,1445.71 2241.52,1445.71 2242.54,1445.71 2243.55,1445.71 2244.56,1445.71 2245.57,1445.71 2246.58,1445.71 2247.59,1445.71 2248.6,1445.71 2249.61,1445.71 2250.63,1445.71 2251.64,1445.71 2252.65,1445.71 2253.66,1445.71 2254.67,1445.71 2255.68,1445.71 2256.69,1445.71 2257.7,1445.71 2258.72,1445.71 2259.73,1445.71 2260.74,1445.71 2261.75,1445.71 2262.76,1445.71 2263.77,1445.71 2264.78,1445.71 2265.79,1445.71 2266.8,1445.71 2267.82,1445.71 2268.83,1445.71 2269.84,1445.71 2270.85,1445.71 2271.86,1445.71 2272.87,1445.71 2273.88,1445.71 2274.89,1445.71 2275.91,1445.71 2276.92,1445.71 2277.93,1445.71 2278.94,1445.71 2279.95,1445.71 2280.96,1445.72 2281.97,1445.72 2282.98,1445.72 2283.99,1445.72 2285.01,1445.72 2286.02,1445.72 2287.03,1445.72 2288.04,1445.72 2289.05,1445.72 2290.06,1445.72 2291.07,1445.72 2292.08,1445.72 "/>
<path clip-path="url(#clip780)" d="M2014.5 198.898 L2281.3 198.898 L2281.3 95.2176 L2014.5 95.2176  Z" fill="#ffffff" fill-rule="evenodd" fill-opacity="1"/>
<polyline clip-path="url(#clip780)" style="stroke:#000000; stroke-linecap:round; stroke-linejoin:round; stroke-width:4; stroke-opacity:1; fill:none" points="2014.5,198.898 2281.3,198.898 2281.3,95.2176 2014.5,95.2176 2014.5,198.898 "/>
<polyline clip-path="url(#clip780)" style="stroke:#009af9; stroke-linecap:round; stroke-linejoin:round; stroke-width:4; stroke-opacity:1; fill:none" points="2038.31,147.058 2181.23,147.058 "/>
<path clip-path="url(#clip780)" d="M2218.89 166.745 Q2217.09 171.375 2215.37 172.787 Q2213.66 174.199 2210.79 174.199 L2207.39 174.199 L2207.39 170.634 L2209.89 170.634 Q2211.65 170.634 2212.62 169.8 Q2213.59 168.967 2214.77 165.865 L2215.53 163.921 L2205.05 138.412 L2209.56 138.412 L2217.66 158.689 L2225.77 138.412 L2230.28 138.412 L2218.89 166.745 Z" fill="#000000" fill-rule="nonzero" fill-opacity="1" /><path clip-path="url(#clip780)" d="M2237.57 160.402 L2245.21 160.402 L2245.21 134.037 L2236.9 135.703 L2236.9 131.444 L2245.16 129.778 L2249.84 129.778 L2249.84 160.402 L2257.48 160.402 L2257.48 164.338 L2237.57 164.338 L2237.57 160.402 Z" fill="#000000" fill-rule="nonzero" fill-opacity="1" /></svg>
