<?xml version="1.0" encoding="utf-8"?>
<svg xmlns="http://www.w3.org/2000/svg" xmlns:xlink="http://www.w3.org/1999/xlink" width="600" height="400" viewBox="0 0 2400 1600">
<defs>
  <clipPath id="clip910">
    <rect x="0" y="0" width="2400" height="1600"/>
  </clipPath>
</defs>
<path clip-path="url(#clip910)" d="M0 1600 L2400 1600 L2400 0 L0 0  Z" fill="#ffffff" fill-rule="evenodd" fill-opacity="1"/>
<defs>
  <clipPath id="clip911">
    <rect x="480" y="0" width="1681" height="1600"/>
  </clipPath>
</defs>
<path clip-path="url(#clip910)" d="M156.02 1486.45 L2352.76 1486.45 L2352.76 47.2441 L156.02 47.2441  Z" fill="#ffffff" fill-rule="evenodd" fill-opacity="1"/>
<defs>
  <clipPath id="clip912">
    <rect x="156" y="47" width="2198" height="1440"/>
  </clipPath>
</defs>
<polyline clip-path="url(#clip912)" style="stroke:#000000; stroke-linecap:round; stroke-linejoin:round; stroke-width:2; stroke-opacity:0.1; fill:none" points="218.191,1486.45 218.191,47.2441 "/>
<polyline clip-path="url(#clip912)" style="stroke:#000000; stroke-linecap:round; stroke-linejoin:round; stroke-width:2; stroke-opacity:0.1; fill:none" points="632.836,1486.45 632.836,47.2441 "/>
<polyline clip-path="url(#clip912)" style="stroke:#000000; stroke-linecap:round; stroke-linejoin:round; stroke-width:2; stroke-opacity:0.1; fill:none" points="1047.48,1486.45 1047.48,47.2441 "/>
<polyline clip-path="url(#clip912)" style="stroke:#000000; stroke-linecap:round; stroke-linejoin:round; stroke-width:2; stroke-opacity:0.1; fill:none" points="1462.12,1486.45 1462.12,47.2441 "/>
<polyline clip-path="url(#clip912)" style="stroke:#000000; stroke-linecap:round; stroke-linejoin:round; stroke-width:2; stroke-opacity:0.1; fill:none" points="1876.77,1486.45 1876.77,47.2441 "/>
<polyline clip-path="url(#clip912)" style="stroke:#000000; stroke-linecap:round; stroke-linejoin:round; stroke-width:2; stroke-opacity:0.1; fill:none" points="2291.41,1486.45 2291.41,47.2441 "/>
<polyline clip-path="url(#clip910)" style="stroke:#000000; stroke-linecap:round; stroke-linejoin:round; stroke-width:4; stroke-opacity:1; fill:none" points="156.02,1486.45 2352.76,1486.45 "/>
<polyline clip-path="url(#clip910)" style="stroke:#000000; stroke-linecap:round; stroke-linejoin:round; stroke-width:4; stroke-opacity:1; fill:none" points="218.191,1486.45 218.191,1467.55 "/>
<polyline clip-path="url(#clip910)" style="stroke:#000000; stroke-linecap:round; stroke-linejoin:round; stroke-width:4; stroke-opacity:1; fill:none" points="632.836,1486.45 632.836,1467.55 "/>
<polyline clip-path="url(#clip910)" style="stroke:#000000; stroke-linecap:round; stroke-linejoin:round; stroke-width:4; stroke-opacity:1; fill:none" points="1047.48,1486.45 1047.48,1467.55 "/>
<polyline clip-path="url(#clip910)" style="stroke:#000000; stroke-linecap:round; stroke-linejoin:round; stroke-width:4; stroke-opacity:1; fill:none" points="1462.12,1486.45 1462.12,1467.55 "/>
<polyline clip-path="url(#clip910)" style="stroke:#000000; stroke-linecap:round; stroke-linejoin:round; stroke-width:4; stroke-opacity:1; fill:none" points="1876.77,1486.45 1876.77,1467.55 "/>
<polyline clip-path="url(#clip910)" style="stroke:#000000; stroke-linecap:round; stroke-linejoin:round; stroke-width:4; stroke-opacity:1; fill:none" points="2291.41,1486.45 2291.41,1467.55 "/>
<path clip-path="url(#clip910)" d="M218.191 1517.37 Q214.58 1517.37 212.752 1520.93 Q210.946 1524.47 210.946 1531.6 Q210.946 1538.71 212.752 1542.27 Q214.58 1545.82 218.191 1545.82 Q221.826 1545.82 223.631 1542.27 Q225.46 1538.71 225.46 1531.6 Q225.46 1524.47 223.631 1520.93 Q221.826 1517.37 218.191 1517.37 M218.191 1513.66 Q224.001 1513.66 227.057 1518.27 Q230.136 1522.85 230.136 1531.6 Q230.136 1540.33 227.057 1544.94 Q224.001 1549.52 218.191 1549.52 Q212.381 1549.52 209.302 1544.94 Q206.247 1540.33 206.247 1531.6 Q206.247 1522.85 209.302 1518.27 Q212.381 1513.66 218.191 1513.66 Z" fill="#000000" fill-rule="nonzero" fill-opacity="1" /><path clip-path="url(#clip910)" d="M592.454 1514.29 L610.81 1514.29 L610.81 1518.22 L596.736 1518.22 L596.736 1526.7 Q597.755 1526.35 598.773 1526.19 Q599.792 1526 600.81 1526 Q606.597 1526 609.977 1529.17 Q613.357 1532.34 613.357 1537.76 Q613.357 1543.34 609.884 1546.44 Q606.412 1549.52 600.093 1549.52 Q597.917 1549.52 595.648 1549.15 Q593.403 1548.78 590.996 1548.04 L590.996 1543.34 Q593.079 1544.47 595.301 1545.03 Q597.523 1545.58 600 1545.58 Q604.005 1545.58 606.343 1543.48 Q608.681 1541.37 608.681 1537.76 Q608.681 1534.15 606.343 1532.04 Q604.005 1529.94 600 1529.94 Q598.125 1529.94 596.25 1530.35 Q594.398 1530.77 592.454 1531.65 L592.454 1514.29 Z" fill="#000000" fill-rule="nonzero" fill-opacity="1" /><path clip-path="url(#clip910)" d="M632.57 1517.37 Q628.958 1517.37 627.13 1520.93 Q625.324 1524.47 625.324 1531.6 Q625.324 1538.71 627.13 1542.27 Q628.958 1545.82 632.57 1545.82 Q636.204 1545.82 638.009 1542.27 Q639.838 1538.71 639.838 1531.6 Q639.838 1524.47 638.009 1520.93 Q636.204 1517.37 632.57 1517.37 M632.57 1513.66 Q638.38 1513.66 641.435 1518.27 Q644.514 1522.85 644.514 1531.6 Q644.514 1540.33 641.435 1544.94 Q638.38 1549.52 632.57 1549.52 Q626.759 1549.52 623.681 1544.94 Q620.625 1540.33 620.625 1531.6 Q620.625 1522.85 623.681 1518.27 Q626.759 1513.66 632.57 1513.66 Z" fill="#000000" fill-rule="nonzero" fill-opacity="1" /><path clip-path="url(#clip910)" d="M662.731 1517.37 Q659.12 1517.37 657.292 1520.93 Q655.486 1524.47 655.486 1531.6 Q655.486 1538.71 657.292 1542.27 Q659.12 1545.82 662.731 1545.82 Q666.366 1545.82 668.171 1542.27 Q670 1538.71 670 1531.6 Q670 1524.47 668.171 1520.93 Q666.366 1517.37 662.731 1517.37 M662.731 1513.66 Q668.542 1513.66 671.597 1518.27 Q674.676 1522.85 674.676 1531.6 Q674.676 1540.33 671.597 1544.94 Q668.542 1549.52 662.731 1549.52 Q656.921 1549.52 653.843 1544.94 Q650.787 1540.33 650.787 1531.6 Q650.787 1522.85 653.843 1518.27 Q656.921 1513.66 662.731 1513.66 Z" fill="#000000" fill-rule="nonzero" fill-opacity="1" /><path clip-path="url(#clip910)" d="M992.006 1544.91 L999.645 1544.91 L999.645 1518.55 L991.335 1520.21 L991.335 1515.95 L999.598 1514.29 L1004.27 1514.29 L1004.27 1544.91 L1011.91 1544.91 L1011.91 1548.85 L992.006 1548.85 L992.006 1544.91 Z" fill="#000000" fill-rule="nonzero" fill-opacity="1" /><path clip-path="url(#clip910)" d="M1031.36 1517.37 Q1027.75 1517.37 1025.92 1520.93 Q1024.11 1524.47 1024.11 1531.6 Q1024.11 1538.71 1025.92 1542.27 Q1027.75 1545.82 1031.36 1545.82 Q1034.99 1545.82 1036.8 1542.27 Q1038.63 1538.71 1038.63 1531.6 Q1038.63 1524.47 1036.8 1520.93 Q1034.99 1517.37 1031.36 1517.37 M1031.36 1513.66 Q1037.17 1513.66 1040.22 1518.27 Q1043.3 1522.85 1043.3 1531.6 Q1043.3 1540.33 1040.22 1544.94 Q1037.17 1549.52 1031.36 1549.52 Q1025.55 1549.52 1022.47 1544.94 Q1019.41 1540.33 1019.41 1531.6 Q1019.41 1522.85 1022.47 1518.27 Q1025.55 1513.66 1031.36 1513.66 Z" fill="#000000" fill-rule="nonzero" fill-opacity="1" /><path clip-path="url(#clip910)" d="M1061.52 1517.37 Q1057.91 1517.37 1056.08 1520.93 Q1054.27 1524.47 1054.27 1531.6 Q1054.27 1538.71 1056.08 1542.27 Q1057.91 1545.82 1061.52 1545.82 Q1065.15 1545.82 1066.96 1542.27 Q1068.79 1538.71 1068.79 1531.6 Q1068.79 1524.47 1066.96 1520.93 Q1065.15 1517.37 1061.52 1517.37 M1061.52 1513.66 Q1067.33 1513.66 1070.39 1518.27 Q1073.46 1522.85 1073.46 1531.6 Q1073.46 1540.33 1070.39 1544.94 Q1067.33 1549.52 1061.52 1549.52 Q1055.71 1549.52 1052.63 1544.94 Q1049.58 1540.33 1049.58 1531.6 Q1049.58 1522.85 1052.63 1518.27 Q1055.71 1513.66 1061.52 1513.66 Z" fill="#000000" fill-rule="nonzero" fill-opacity="1" /><path clip-path="url(#clip910)" d="M1091.68 1517.37 Q1088.07 1517.37 1086.24 1520.93 Q1084.44 1524.47 1084.44 1531.6 Q1084.44 1538.71 1086.24 1542.27 Q1088.07 1545.82 1091.68 1545.82 Q1095.32 1545.82 1097.12 1542.27 Q1098.95 1538.71 1098.95 1531.6 Q1098.95 1524.47 1097.12 1520.93 Q1095.32 1517.37 1091.68 1517.37 M1091.68 1513.66 Q1097.49 1513.66 1100.55 1518.27 Q1103.63 1522.85 1103.63 1531.6 Q1103.63 1540.33 1100.55 1544.94 Q1097.49 1549.52 1091.68 1549.52 Q1085.87 1549.52 1082.79 1544.94 Q1079.74 1540.33 1079.74 1531.6 Q1079.74 1522.85 1082.79 1518.27 Q1085.87 1513.66 1091.68 1513.66 Z" fill="#000000" fill-rule="nonzero" fill-opacity="1" /><path clip-path="url(#clip910)" d="M1406.65 1544.91 L1414.29 1544.91 L1414.29 1518.55 L1405.98 1520.21 L1405.98 1515.95 L1414.24 1514.29 L1418.92 1514.29 L1418.92 1544.91 L1426.56 1544.91 L1426.56 1548.85 L1406.65 1548.85 L1406.65 1544.91 Z" fill="#000000" fill-rule="nonzero" fill-opacity="1" /><path clip-path="url(#clip910)" d="M1436.05 1514.29 L1454.4 1514.29 L1454.4 1518.22 L1440.33 1518.22 L1440.33 1526.7 Q1441.35 1526.35 1442.37 1526.19 Q1443.39 1526 1444.4 1526 Q1450.19 1526 1453.57 1529.17 Q1456.95 1532.34 1456.95 1537.76 Q1456.95 1543.34 1453.48 1546.44 Q1450.01 1549.52 1443.69 1549.52 Q1441.51 1549.52 1439.24 1549.15 Q1437 1548.78 1434.59 1548.04 L1434.59 1543.34 Q1436.67 1544.47 1438.9 1545.03 Q1441.12 1545.58 1443.59 1545.58 Q1447.6 1545.58 1449.94 1543.48 Q1452.28 1541.37 1452.28 1537.76 Q1452.28 1534.15 1449.94 1532.04 Q1447.6 1529.94 1443.59 1529.94 Q1441.72 1529.94 1439.84 1530.35 Q1437.99 1530.77 1436.05 1531.65 L1436.05 1514.29 Z" fill="#000000" fill-rule="nonzero" fill-opacity="1" /><path clip-path="url(#clip910)" d="M1476.16 1517.37 Q1472.55 1517.37 1470.72 1520.93 Q1468.92 1524.47 1468.92 1531.6 Q1468.92 1538.71 1470.72 1542.27 Q1472.55 1545.82 1476.16 1545.82 Q1479.8 1545.82 1481.6 1542.27 Q1483.43 1538.71 1483.43 1531.6 Q1483.43 1524.47 1481.6 1520.93 Q1479.8 1517.37 1476.16 1517.37 M1476.16 1513.66 Q1481.97 1513.66 1485.03 1518.27 Q1488.11 1522.85 1488.11 1531.6 Q1488.11 1540.33 1485.03 1544.94 Q1481.97 1549.52 1476.16 1549.52 Q1470.35 1549.52 1467.28 1544.94 Q1464.22 1540.33 1464.22 1531.6 Q1464.22 1522.85 1467.28 1518.27 Q1470.35 1513.66 1476.16 1513.66 Z" fill="#000000" fill-rule="nonzero" fill-opacity="1" /><path clip-path="url(#clip910)" d="M1506.33 1517.37 Q1502.71 1517.37 1500.89 1520.93 Q1499.08 1524.47 1499.08 1531.6 Q1499.08 1538.71 1500.89 1542.27 Q1502.71 1545.82 1506.33 1545.82 Q1509.96 1545.82 1511.77 1542.27 Q1513.59 1538.71 1513.59 1531.6 Q1513.59 1524.47 1511.77 1520.93 Q1509.96 1517.37 1506.33 1517.37 M1506.33 1513.66 Q1512.14 1513.66 1515.19 1518.27 Q1518.27 1522.85 1518.27 1531.6 Q1518.27 1540.33 1515.19 1544.94 Q1512.14 1549.52 1506.33 1549.52 Q1500.52 1549.52 1497.44 1544.94 Q1494.38 1540.33 1494.38 1531.6 Q1494.38 1522.85 1497.44 1518.27 Q1500.52 1513.66 1506.33 1513.66 Z" fill="#000000" fill-rule="nonzero" fill-opacity="1" /><path clip-path="url(#clip910)" d="M1825.38 1544.91 L1841.7 1544.91 L1841.7 1548.85 L1819.76 1548.85 L1819.76 1544.91 Q1822.42 1542.16 1827 1537.53 Q1831.61 1532.88 1832.79 1531.53 Q1835.03 1529.01 1835.91 1527.27 Q1836.82 1525.51 1836.82 1523.82 Q1836.82 1521.07 1834.87 1519.33 Q1832.95 1517.6 1829.85 1517.6 Q1827.65 1517.6 1825.2 1518.36 Q1822.76 1519.13 1819.99 1520.68 L1819.99 1515.95 Q1822.81 1514.82 1825.26 1514.24 Q1827.72 1513.66 1829.76 1513.66 Q1835.13 1513.66 1838.32 1516.35 Q1841.51 1519.03 1841.51 1523.52 Q1841.51 1525.65 1840.7 1527.57 Q1839.92 1529.47 1837.81 1532.07 Q1837.23 1532.74 1834.13 1535.95 Q1831.03 1539.15 1825.38 1544.91 Z" fill="#000000" fill-rule="nonzero" fill-opacity="1" /><path clip-path="url(#clip910)" d="M1861.51 1517.37 Q1857.9 1517.37 1856.07 1520.93 Q1854.27 1524.47 1854.27 1531.6 Q1854.27 1538.71 1856.07 1542.27 Q1857.9 1545.82 1861.51 1545.82 Q1865.15 1545.82 1866.95 1542.27 Q1868.78 1538.71 1868.78 1531.6 Q1868.78 1524.47 1866.95 1520.93 Q1865.15 1517.37 1861.51 1517.37 M1861.51 1513.66 Q1867.32 1513.66 1870.38 1518.27 Q1873.46 1522.85 1873.46 1531.6 Q1873.46 1540.33 1870.38 1544.94 Q1867.32 1549.52 1861.51 1549.52 Q1855.7 1549.52 1852.63 1544.94 Q1849.57 1540.33 1849.57 1531.6 Q1849.57 1522.85 1852.63 1518.27 Q1855.7 1513.66 1861.51 1513.66 Z" fill="#000000" fill-rule="nonzero" fill-opacity="1" /><path clip-path="url(#clip910)" d="M1891.68 1517.37 Q1888.07 1517.37 1886.24 1520.93 Q1884.43 1524.47 1884.43 1531.6 Q1884.43 1538.71 1886.24 1542.27 Q1888.07 1545.82 1891.68 1545.82 Q1895.31 1545.82 1897.12 1542.27 Q1898.94 1538.71 1898.94 1531.6 Q1898.94 1524.47 1897.12 1520.93 Q1895.31 1517.37 1891.68 1517.37 M1891.68 1513.66 Q1897.49 1513.66 1900.54 1518.27 Q1903.62 1522.85 1903.62 1531.6 Q1903.62 1540.33 1900.54 1544.94 Q1897.49 1549.52 1891.68 1549.52 Q1885.87 1549.52 1882.79 1544.94 Q1879.73 1540.33 1879.73 1531.6 Q1879.73 1522.85 1882.79 1518.27 Q1885.87 1513.66 1891.68 1513.66 Z" fill="#000000" fill-rule="nonzero" fill-opacity="1" /><path clip-path="url(#clip910)" d="M1921.84 1517.37 Q1918.23 1517.37 1916.4 1520.93 Q1914.59 1524.47 1914.59 1531.6 Q1914.59 1538.71 1916.4 1542.27 Q1918.23 1545.82 1921.84 1545.82 Q1925.47 1545.82 1927.28 1542.27 Q1929.11 1538.71 1929.11 1531.6 Q1929.11 1524.47 1927.28 1520.93 Q1925.47 1517.37 1921.84 1517.37 M1921.84 1513.66 Q1927.65 1513.66 1930.7 1518.27 Q1933.78 1522.85 1933.78 1531.6 Q1933.78 1540.33 1930.7 1544.94 Q1927.65 1549.52 1921.84 1549.52 Q1916.03 1549.52 1912.95 1544.94 Q1909.89 1540.33 1909.89 1531.6 Q1909.89 1522.85 1912.95 1518.27 Q1916.03 1513.66 1921.84 1513.66 Z" fill="#000000" fill-rule="nonzero" fill-opacity="1" /><path clip-path="url(#clip910)" d="M2240.02 1544.91 L2256.34 1544.91 L2256.34 1548.85 L2234.4 1548.85 L2234.4 1544.91 Q2237.06 1542.16 2241.65 1537.53 Q2246.25 1532.88 2247.43 1531.53 Q2249.68 1529.01 2250.56 1527.27 Q2251.46 1525.51 2251.46 1523.82 Q2251.46 1521.07 2249.52 1519.33 Q2247.59 1517.6 2244.49 1517.6 Q2242.29 1517.6 2239.84 1518.36 Q2237.41 1519.13 2234.63 1520.68 L2234.63 1515.95 Q2237.46 1514.82 2239.91 1514.24 Q2242.36 1513.66 2244.4 1513.66 Q2249.77 1513.66 2252.96 1516.35 Q2256.16 1519.03 2256.16 1523.52 Q2256.16 1525.65 2255.35 1527.57 Q2254.56 1529.47 2252.46 1532.07 Q2251.88 1532.74 2248.77 1535.95 Q2245.67 1539.15 2240.02 1544.91 Z" fill="#000000" fill-rule="nonzero" fill-opacity="1" /><path clip-path="url(#clip910)" d="M2266.21 1514.29 L2284.56 1514.29 L2284.56 1518.22 L2270.49 1518.22 L2270.49 1526.7 Q2271.51 1526.35 2272.52 1526.19 Q2273.54 1526 2274.56 1526 Q2280.35 1526 2283.73 1529.17 Q2287.11 1532.34 2287.11 1537.76 Q2287.11 1543.34 2283.64 1546.44 Q2280.16 1549.52 2273.84 1549.52 Q2271.67 1549.52 2269.4 1549.15 Q2267.15 1548.78 2264.75 1548.04 L2264.75 1543.34 Q2266.83 1544.47 2269.05 1545.03 Q2271.27 1545.58 2273.75 1545.58 Q2277.76 1545.58 2280.09 1543.48 Q2282.43 1541.37 2282.43 1537.76 Q2282.43 1534.15 2280.09 1532.04 Q2277.76 1529.94 2273.75 1529.94 Q2271.88 1529.94 2270 1530.35 Q2268.15 1530.77 2266.21 1531.65 L2266.21 1514.29 Z" fill="#000000" fill-rule="nonzero" fill-opacity="1" /><path clip-path="url(#clip910)" d="M2306.32 1517.37 Q2302.71 1517.37 2300.88 1520.93 Q2299.08 1524.47 2299.08 1531.6 Q2299.08 1538.71 2300.88 1542.27 Q2302.71 1545.82 2306.32 1545.82 Q2309.95 1545.82 2311.76 1542.27 Q2313.59 1538.71 2313.59 1531.6 Q2313.59 1524.47 2311.76 1520.93 Q2309.95 1517.37 2306.32 1517.37 M2306.32 1513.66 Q2312.13 1513.66 2315.19 1518.27 Q2318.27 1522.85 2318.27 1531.6 Q2318.27 1540.33 2315.19 1544.94 Q2312.13 1549.52 2306.32 1549.52 Q2300.51 1549.52 2297.43 1544.94 Q2294.38 1540.33 2294.38 1531.6 Q2294.38 1522.85 2297.43 1518.27 Q2300.51 1513.66 2306.32 1513.66 Z" fill="#000000" fill-rule="nonzero" fill-opacity="1" /><path clip-path="url(#clip910)" d="M2336.48 1517.37 Q2332.87 1517.37 2331.04 1520.93 Q2329.24 1524.47 2329.24 1531.6 Q2329.24 1538.71 2331.04 1542.27 Q2332.87 1545.82 2336.48 1545.82 Q2340.12 1545.82 2341.92 1542.27 Q2343.75 1538.71 2343.75 1531.6 Q2343.75 1524.47 2341.92 1520.93 Q2340.12 1517.37 2336.48 1517.37 M2336.48 1513.66 Q2342.29 1513.66 2345.35 1518.27 Q2348.43 1522.85 2348.43 1531.6 Q2348.43 1540.33 2345.35 1544.94 Q2342.29 1549.52 2336.48 1549.52 Q2330.67 1549.52 2327.59 1544.94 Q2324.54 1540.33 2324.54 1531.6 Q2324.54 1522.85 2327.59 1518.27 Q2330.67 1513.66 2336.48 1513.66 Z" fill="#000000" fill-rule="nonzero" fill-opacity="1" /><polyline clip-path="url(#clip912)" style="stroke:#000000; stroke-linecap:round; stroke-linejoin:round; stroke-width:2; stroke-opacity:0.1; fill:none" points="156.02,1229.21 2352.76,1229.21 "/>
<polyline clip-path="url(#clip912)" style="stroke:#000000; stroke-linecap:round; stroke-linejoin:round; stroke-width:2; stroke-opacity:0.1; fill:none" points="156.02,848.8 2352.76,848.8 "/>
<polyline clip-path="url(#clip912)" style="stroke:#000000; stroke-linecap:round; stroke-linejoin:round; stroke-width:2; stroke-opacity:0.1; fill:none" points="156.02,468.388 2352.76,468.388 "/>
<polyline clip-path="url(#clip912)" style="stroke:#000000; stroke-linecap:round; stroke-linejoin:round; stroke-width:2; stroke-opacity:0.1; fill:none" points="156.02,87.9763 2352.76,87.9763 "/>
<polyline clip-path="url(#clip910)" style="stroke:#000000; stroke-linecap:round; stroke-linejoin:round; stroke-width:4; stroke-opacity:1; fill:none" points="156.02,1486.45 156.02,47.2441 "/>
<polyline clip-path="url(#clip910)" style="stroke:#000000; stroke-linecap:round; stroke-linejoin:round; stroke-width:4; stroke-opacity:1; fill:none" points="156.02,1229.21 174.917,1229.21 "/>
<polyline clip-path="url(#clip910)" style="stroke:#000000; stroke-linecap:round; stroke-linejoin:round; stroke-width:4; stroke-opacity:1; fill:none" points="156.02,848.8 174.917,848.8 "/>
<polyline clip-path="url(#clip910)" style="stroke:#000000; stroke-linecap:round; stroke-linejoin:round; stroke-width:4; stroke-opacity:1; fill:none" points="156.02,468.388 174.917,468.388 "/>
<polyline clip-path="url(#clip910)" style="stroke:#000000; stroke-linecap:round; stroke-linejoin:round; stroke-width:4; stroke-opacity:1; fill:none" points="156.02,87.9763 174.917,87.9763 "/>
<path clip-path="url(#clip910)" d="M63.7467 1215.01 Q60.1356 1215.01 58.3069 1218.57 Q56.5014 1222.12 56.5014 1229.25 Q56.5014 1236.35 58.3069 1239.92 Q60.1356 1243.46 63.7467 1243.46 Q67.3809 1243.46 69.1865 1239.92 Q71.0152 1236.35 71.0152 1229.25 Q71.0152 1222.12 69.1865 1218.57 Q67.3809 1215.01 63.7467 1215.01 M63.7467 1211.31 Q69.5568 1211.31 72.6124 1215.91 Q75.6911 1220.5 75.6911 1229.25 Q75.6911 1237.97 72.6124 1242.58 Q69.5568 1247.16 63.7467 1247.16 Q57.9365 1247.16 54.8578 1242.58 Q51.8023 1237.97 51.8023 1229.25 Q51.8023 1220.5 54.8578 1215.91 Q57.9365 1211.31 63.7467 1211.31 Z" fill="#000000" fill-rule="nonzero" fill-opacity="1" /><path clip-path="url(#clip910)" d="M83.9086 1240.61 L88.7928 1240.61 L88.7928 1246.49 L83.9086 1246.49 L83.9086 1240.61 Z" fill="#000000" fill-rule="nonzero" fill-opacity="1" /><path clip-path="url(#clip910)" d="M97.7974 1211.93 L120.02 1211.93 L120.02 1213.92 L107.473 1246.49 L102.589 1246.49 L114.395 1215.87 L97.7974 1215.87 L97.7974 1211.93 Z" fill="#000000" fill-rule="nonzero" fill-opacity="1" /><path clip-path="url(#clip910)" d="M62.9365 834.598 Q59.3254 834.598 57.4967 838.163 Q55.6912 841.705 55.6912 848.834 Q55.6912 855.941 57.4967 859.506 Q59.3254 863.047 62.9365 863.047 Q66.5707 863.047 68.3763 859.506 Q70.205 855.941 70.205 848.834 Q70.205 841.705 68.3763 838.163 Q66.5707 834.598 62.9365 834.598 M62.9365 830.895 Q68.7467 830.895 71.8022 835.501 Q74.8809 840.084 74.8809 848.834 Q74.8809 857.561 71.8022 862.168 Q68.7467 866.751 62.9365 866.751 Q57.1264 866.751 54.0477 862.168 Q50.9921 857.561 50.9921 848.834 Q50.9921 840.084 54.0477 835.501 Q57.1264 830.895 62.9365 830.895 Z" fill="#000000" fill-rule="nonzero" fill-opacity="1" /><path clip-path="url(#clip910)" d="M83.0984 860.2 L87.9827 860.2 L87.9827 866.08 L83.0984 866.08 L83.0984 860.2 Z" fill="#000000" fill-rule="nonzero" fill-opacity="1" /><path clip-path="url(#clip910)" d="M108.168 849.668 Q104.834 849.668 102.913 851.45 Q101.015 853.232 101.015 856.357 Q101.015 859.482 102.913 861.265 Q104.834 863.047 108.168 863.047 Q111.501 863.047 113.422 861.265 Q115.344 859.459 115.344 856.357 Q115.344 853.232 113.422 851.45 Q111.524 849.668 108.168 849.668 M103.492 847.677 Q100.483 846.936 98.7928 844.876 Q97.1261 842.816 97.1261 839.853 Q97.1261 835.709 100.066 833.302 Q103.029 830.895 108.168 830.895 Q113.33 830.895 116.27 833.302 Q119.209 835.709 119.209 839.853 Q119.209 842.816 117.52 844.876 Q115.853 846.936 112.867 847.677 Q116.246 848.464 118.121 850.756 Q120.02 853.047 120.02 856.357 Q120.02 861.381 116.941 864.066 Q113.885 866.751 108.168 866.751 Q102.45 866.751 99.3715 864.066 Q96.316 861.381 96.316 856.357 Q96.316 853.047 98.2141 850.756 Q100.112 848.464 103.492 847.677 M101.779 840.293 Q101.779 842.978 103.446 844.483 Q105.135 845.987 108.168 845.987 Q111.177 845.987 112.867 844.483 Q114.58 842.978 114.58 840.293 Q114.58 837.608 112.867 836.103 Q111.177 834.598 108.168 834.598 Q105.135 834.598 103.446 836.103 Q101.779 837.608 101.779 840.293 Z" fill="#000000" fill-rule="nonzero" fill-opacity="1" /><path clip-path="url(#clip910)" d="M63.0291 454.187 Q59.418 454.187 57.5893 457.751 Q55.7838 461.293 55.7838 468.423 Q55.7838 475.529 57.5893 479.094 Q59.418 482.636 63.0291 482.636 Q66.6633 482.636 68.4689 479.094 Q70.2976 475.529 70.2976 468.423 Q70.2976 461.293 68.4689 457.751 Q66.6633 454.187 63.0291 454.187 M63.0291 450.483 Q68.8393 450.483 71.8948 455.089 Q74.9735 459.673 74.9735 468.423 Q74.9735 477.149 71.8948 481.756 Q68.8393 486.339 63.0291 486.339 Q57.2189 486.339 54.1403 481.756 Q51.0847 477.149 51.0847 468.423 Q51.0847 459.673 54.1403 455.089 Q57.2189 450.483 63.0291 450.483 Z" fill="#000000" fill-rule="nonzero" fill-opacity="1" /><path clip-path="url(#clip910)" d="M83.191 479.788 L88.0753 479.788 L88.0753 485.668 L83.191 485.668 L83.191 479.788 Z" fill="#000000" fill-rule="nonzero" fill-opacity="1" /><path clip-path="url(#clip910)" d="M98.3993 484.95 L98.3993 480.691 Q100.159 481.524 101.964 481.964 Q103.77 482.404 105.506 482.404 Q110.135 482.404 112.566 479.302 Q115.02 476.177 115.367 469.835 Q114.024 471.825 111.964 472.89 Q109.904 473.955 107.404 473.955 Q102.219 473.955 99.1863 470.83 Q96.1771 467.682 96.1771 462.242 Q96.1771 456.918 99.3252 453.701 Q102.473 450.483 107.705 450.483 Q113.7 450.483 116.848 455.089 Q120.02 459.673 120.02 468.423 Q120.02 476.594 116.131 481.478 Q112.265 486.339 105.714 486.339 Q103.955 486.339 102.149 485.992 Q100.344 485.645 98.3993 484.95 M107.705 470.298 Q110.853 470.298 112.682 468.145 Q114.533 465.992 114.533 462.242 Q114.533 458.515 112.682 456.363 Q110.853 454.187 107.705 454.187 Q104.557 454.187 102.705 456.363 Q100.876 458.515 100.876 462.242 Q100.876 465.992 102.705 468.145 Q104.557 470.298 107.705 470.298 Z" fill="#000000" fill-rule="nonzero" fill-opacity="1" /><path clip-path="url(#clip910)" d="M53.6541 101.321 L61.293 101.321 L61.293 74.9555 L52.9829 76.6222 L52.9829 72.3629 L61.2467 70.6963 L65.9226 70.6963 L65.9226 101.321 L73.5614 101.321 L73.5614 105.256 L53.6541 105.256 L53.6541 101.321 Z" fill="#000000" fill-rule="nonzero" fill-opacity="1" /><path clip-path="url(#clip910)" d="M83.0058 99.3767 L87.8901 99.3767 L87.8901 105.256 L83.0058 105.256 L83.0058 99.3767 Z" fill="#000000" fill-rule="nonzero" fill-opacity="1" /><path clip-path="url(#clip910)" d="M108.075 73.775 Q104.464 73.775 102.635 77.3398 Q100.83 80.8814 100.83 88.011 Q100.83 95.1174 102.635 98.6822 Q104.464 102.224 108.075 102.224 Q111.709 102.224 113.515 98.6822 Q115.344 95.1174 115.344 88.011 Q115.344 80.8814 113.515 77.3398 Q111.709 73.775 108.075 73.775 M108.075 70.0713 Q113.885 70.0713 116.941 74.6777 Q120.02 79.261 120.02 88.011 Q120.02 96.7378 116.941 101.344 Q113.885 105.928 108.075 105.928 Q102.265 105.928 99.1863 101.344 Q96.1308 96.7378 96.1308 88.011 Q96.1308 79.261 99.1863 74.6777 Q102.265 70.0713 108.075 70.0713 Z" fill="#000000" fill-rule="nonzero" fill-opacity="1" /><polyline clip-path="url(#clip912)" style="stroke:#009af9; stroke-linecap:round; stroke-linejoin:round; stroke-width:4; stroke-opacity:1; fill:none" points="218.191,1445.72 219.021,1382.78 219.85,1415.45 220.679,1371.14 221.508,1291.88 222.338,1376.14 223.167,1410.61 223.996,1246.67 224.826,1284.75 225.655,1282.96 226.484,1273.98 227.313,1255.84 228.143,1224.41 228.972,1201.77 229.801,1233.73 230.631,1139.48 231.46,1151.37 232.289,1165.13 233.119,1163.17 233.948,1076.31 234.777,1065.85 235.606,1139.48 236.436,1067.95 237.265,983.747 238.094,999.229 238.924,972.587 239.753,983.747 240.582,940.878 241.411,940.878 242.241,954.551 243.07,965.849 243.899,979.293 244.729,938.586 245.558,894.365 246.387,917.803 247.216,816.817 248.046,872.953 248.875,816.817 249.704,870.555 250.534,796.799 251.363,924.763 252.192,796.799 253.021,763.708 253.851,776.518 254.68,892.001 255.509,806.84 256.339,858.507 257.168,721.996 257.997,771.407 258.826,829.197 259.656,768.844 260.485,727.27 261.314,732.528 262.144,729.901 262.973,735.15 263.802,796.799 264.631,670.995 265.461,698.04 266.29,637.93 267.119,684.575 267.949,679.157 268.778,698.04 269.607,687.277 270.437,615.507 271.266,646.26 272.095,673.72 272.924,687.277 273.754,732.528 274.583,635.144 275.412,621.141 276.242,607.018 277.071,646.26 277.9,676.441 278.729,629.557 279.559,549.284 280.388,575.513 281.217,692.668 282.047,592.772 282.876,695.356 283.705,578.402 284.534,575.513 285.364,569.72 286.193,540.448 287.022,643.488 287.852,592.772 288.681,531.566 289.51,615.507 290.339,572.619 291.169,543.399 291.998,635.144 292.827,587.039 293.657,566.816 294.486,507.648 295.315,540.448 296.144,578.402 296.974,522.636 297.803,575.513 298.632,587.039 299.462,595.631 300.291,555.149 301.12,510.656 301.949,534.532 302.779,510.656 303.608,489.484 304.437,486.438 305.267,492.525 306.096,522.636 306.925,501.615 307.755,489.484 308.584,489.484 309.413,546.344 310.242,549.284 311.072,543.399 311.901,504.634 312.73,575.513 313.56,513.659 314.389,492.525 315.218,522.636 316.047,507.648 316.877,492.525 317.706,480.329 318.535,513.659 319.365,421.184 320.194,504.634 321.023,528.595 321.852,483.386 322.682,449.453 323.511,498.59 324.34,510.656 325.17,510.656 325.999,507.648 326.828,455.673 327.657,446.335 328.487,468.046 329.316,455.673 330.145,436.946 330.975,398.873 331.804,477.266 332.633,446.335 333.462,486.438 334.292,461.871 335.121,446.335 335.95,461.871 336.78,486.438 337.609,433.805 338.438,421.184 339.267,376.273 340.097,395.662 340.926,443.211 341.755,427.506 342.585,430.658 343.414,343.477 344.243,382.76 345.073,373.021 345.902,363.228 346.731,389.223 347.56,398.873 348.39,389.223 349.219,346.784 350.048,392.446 350.878,346.784 351.707,385.995 352.536,356.669 353.365,385.995 354.195,373.021 355.024,316.795 355.853,376.273 356.683,366.498 357.512,418.014 358.341,356.669 359.17,363.228 360,359.951 360.829,330.186 361.658,389.223 362.488,369.763 363.317,343.477 364.146,340.163 364.975,336.844 365.805,333.518 366.634,320.152 367.463,408.47 368.293,363.228 369.122,376.273 369.951,306.686 370.78,326.848 371.61,313.432 372.439,310.062 373.268,366.498 374.098,363.228 374.927,336.844 375.756,330.186 376.585,313.432 377.415,293.118 378.244,279.447 379.073,359.951 379.903,346.784 380.732,306.686 381.561,303.304 382.391,320.152 383.22,306.686 384.049,237.802 384.878,293.118 385.708,323.503 386.537,279.447 387.366,346.784 388.196,323.503 389.025,299.915 389.854,276.012 390.683,330.186 391.513,340.163 392.342,340.163 393.171,316.795 394.001,269.125 394.83,323.503 395.659,289.71 396.488,306.686 397.318,289.71 398.147,310.062 398.976,306.686 399.806,282.874 400.635,299.915 401.464,293.118 402.293,269.125 403.123,241.309 403.952,272.572 404.781,269.125 405.611,293.118 406.44,255.27 407.269,303.304 408.098,241.309 408.928,234.288 409.757,248.303 410.586,248.303 411.416,262.211 412.245,286.295 413.074,262.211 413.903,230.768 414.733,258.744 415.562,255.27 416.391,241.309 417.221,306.686 418.05,244.809 418.879,269.125 419.709,255.27 420.538,223.707 421.367,293.118 422.196,237.802 423.026,237.802 423.855,296.52 424.684,265.671 425.514,223.707 426.343,241.309 427.172,303.304 428.001,237.802 428.831,248.303 429.66,216.618 430.489,187.987 431.319,241.309 432.148,213.063 432.977,223.707 433.806,237.802 434.636,255.27 435.465,213.063 436.294,237.802 437.124,234.288 437.953,255.27 438.782,209.502 439.611,248.303 440.441,237.802 441.27,276.012 442.099,205.933 442.929,202.358 443.758,198.776 444.587,269.125 445.416,244.809 446.246,237.802 447.075,248.303 447.904,205.933 448.734,220.166 449.563,251.79 450.392,220.166 451.221,220.166 452.051,234.288 452.88,198.776 453.709,202.358 454.539,230.768 455.368,230.768 456.197,255.27 457.027,230.768 457.856,223.707 458.685,195.187 459.514,205.933 460.344,234.288 461.173,213.063 462.002,202.358 462.832,209.502 463.661,162.567 464.49,177.135 465.319,230.768 466.149,209.502 466.978,213.063 467.807,202.358 468.637,237.802 469.466,241.309 470.295,248.303 471.124,223.707 471.954,187.987 472.783,213.063 473.612,237.802 474.442,227.241 475.271,198.776 476.1,223.707 476.929,234.288 477.759,230.768 478.588,241.309 479.417,205.933 480.247,216.618 481.076,213.063 481.905,209.502 482.734,151.565 483.564,213.063 484.393,230.768 485.222,191.59 486.052,209.502 486.881,237.802 487.71,198.776 488.539,198.776 489.369,184.377 490.198,244.809 491.027,162.567 491.857,198.776 492.686,216.618 493.515,234.288 494.345,248.303 495.174,184.377 496.003,205.933 496.832,213.063 497.662,227.241 498.491,216.618 499.32,209.502 500.15,202.358 500.979,209.502 501.808,198.776 502.637,213.063 503.467,187.987 504.296,198.776 505.125,255.27 505.955,169.865 506.784,187.987 507.613,241.309 508.442,191.59 509.272,223.707 510.101,244.809 510.93,180.76 511.76,184.377 512.589,158.907 513.418,169.865 514.247,155.24 515.077,177.135 515.906,216.618 516.735,205.933 517.565,173.504 518.394,166.22 519.223,195.187 520.052,158.907 520.882,195.187 521.711,187.987 522.54,169.865 523.37,180.76 524.199,147.884 525.028,184.377 525.857,191.59 526.687,151.565 527.516,158.907 528.345,180.76 529.175,202.358 530.004,202.358 530.833,220.166 531.662,166.22 532.492,191.59 533.321,205.933 534.15,177.135 534.98,209.502 535.809,166.22 536.638,227.241 537.468,166.22 538.297,151.565 539.126,191.59 539.955,195.187 540.785,180.76 541.614,202.358 542.443,202.358 543.273,177.135 544.102,198.776 544.931,202.358 545.76,184.377 546.59,169.865 547.419,202.358 548.248,184.377 549.078,187.987 549.907,177.135 550.736,144.195 551.565,166.22 552.395,173.504 553.224,187.987 554.053,177.135 554.883,202.358 555.712,169.865 556.541,198.776 557.37,169.865 558.2,184.377 559.029,191.59 559.858,191.59 560.688,184.377 561.517,202.358 562.346,162.567 563.175,184.377 564.005,158.907 564.834,184.377 565.663,195.187 566.493,195.187 567.322,195.187 568.151,195.187 568.98,155.24 569.81,184.377 570.639,166.22 571.468,177.135 572.298,173.504 573.127,187.987 573.956,151.565 574.786,158.907 575.615,191.59 576.444,147.884 577.273,177.135 578.103,180.76 578.932,198.776 579.761,155.24 580.591,184.377 581.42,162.567 582.249,136.795 583.078,151.565 583.908,169.865 584.737,191.59 585.566,187.987 586.396,209.502 587.225,173.504 588.054,195.187 588.883,177.135 589.713,169.865 590.542,177.135 591.371,144.195 592.201,162.567 593.03,169.865 593.859,184.377 594.688,151.565 595.518,158.907 596.347,155.24 597.176,187.987 598.006,144.195 598.835,169.865 599.664,177.135 600.493,151.565 601.323,177.135 602.152,144.195 602.981,169.865 603.811,133.084 604.64,177.135 605.469,169.865 606.298,151.565 607.128,147.884 607.957,187.987 608.786,184.377 609.616,169.865 610.445,133.084 611.274,187.987 612.104,177.135 612.933,177.135 613.762,184.377 614.591,144.195 615.421,147.884 616.25,140.499 617.079,155.24 617.909,173.504 618.738,169.865 619.567,184.377 620.396,151.565 621.226,177.135 622.055,169.865 622.884,151.565 623.714,155.24 624.543,155.24 625.372,147.884 626.201,155.24 627.031,184.377 627.86,151.565 628.689,144.195 629.519,162.567 630.348,187.987 631.177,151.565 632.006,169.865 632.836,144.195 633.665,169.865 634.494,158.907 635.324,151.565 636.153,158.907 636.982,158.907 637.811,133.084 638.641,147.884 639.47,166.22 640.299,136.795 641.129,166.22 641.958,162.567 642.787,140.499 643.616,140.499 644.446,169.865 645.275,110.665 646.104,187.987 646.934,155.24 647.763,155.24 648.592,147.884 649.422,166.22 650.251,129.366 651.08,162.567 651.909,151.565 652.739,144.195 653.568,147.884 654.397,162.567 655.227,191.59 656.056,162.567 656.885,147.884 657.714,144.195 658.544,155.24 659.373,147.884 660.202,158.907 661.032,158.907 661.861,147.884 662.69,177.135 663.519,155.24 664.349,140.499 665.178,155.24 666.007,162.567 666.837,166.22 667.666,147.884 668.495,158.907 669.324,155.24 670.154,144.195 670.983,133.084 671.812,155.24 672.642,180.76 673.471,155.24 674.3,158.907 675.129,155.24 675.959,158.907 676.788,133.084 677.617,140.499 678.447,155.24 679.276,136.795 680.105,129.366 680.934,158.907 681.764,136.795 682.593,155.24 683.422,158.907 684.252,129.366 685.081,162.567 685.91,121.908 686.74,147.884 687.569,144.195 688.398,169.865 689.227,133.084 690.057,144.195 690.886,147.884 691.715,162.567 692.545,147.884 693.374,151.565 694.203,147.884 695.032,118.168 695.862,147.884 696.691,147.884 697.52,151.565 698.35,129.366 699.179,158.907 700.008,162.567 700.837,144.195 701.667,151.565 702.496,151.565 703.325,140.499 704.155,133.084 704.984,166.22 705.813,151.565 706.642,173.504 707.472,118.168 708.301,133.084 709.13,158.907 709.96,144.195 710.789,133.084 711.618,166.22 712.447,155.24 713.277,151.565 714.106,155.24 714.935,129.366 715.765,133.084 716.594,136.795 717.423,144.195 718.252,140.499 719.082,140.499 719.911,125.641 720.74,169.865 721.57,140.499 722.399,136.795 723.228,184.377 724.058,147.884 724.887,158.907 725.716,136.795 726.545,151.565 727.375,136.795 728.204,158.907 729.033,155.24 729.863,155.24 730.692,162.567 731.521,155.24 732.35,140.499 733.18,129.366 734.009,129.366 734.838,155.24 735.668,147.884 736.497,136.795 737.326,151.565 738.155,155.24 738.985,125.641 739.814,133.084 740.643,129.366 741.473,177.135 742.302,147.884 743.131,129.366 743.96,121.908 744.79,144.195 745.619,147.884 746.448,140.499 747.278,151.565 748.107,173.504 748.936,144.195 749.765,140.499 750.595,121.908 751.424,169.865 752.253,114.42 753.083,144.195 753.912,136.795 754.741,144.195 755.57,133.084 756.4,151.565 757.229,151.565 758.058,114.42 758.888,147.884 759.717,144.195 760.546,140.499 761.376,129.366 762.205,125.641 763.034,140.499 763.863,166.22 764.693,129.366 765.522,133.084 766.351,125.641 767.181,133.084 768.01,129.366 768.839,129.366 769.668,155.24 770.498,118.168 771.327,125.641 772.156,166.22 772.986,136.795 773.815,121.908 774.644,136.795 775.473,140.499 776.303,151.565 777.132,133.084 777.961,121.908 778.791,151.565 779.62,136.795 780.449,136.795 781.278,144.195 782.108,144.195 782.937,118.168 783.766,125.641 784.596,121.908 785.425,140.499 786.254,144.195 787.083,140.499 787.913,129.366 788.742,155.24 789.571,155.24 790.401,129.366 791.23,151.565 792.059,114.42 792.888,166.22 793.718,144.195 794.547,129.366 795.376,133.084 796.206,144.195 797.035,136.795 797.864,133.084 798.694,125.641 799.523,136.795 800.352,169.865 801.181,147.884 802.011,133.084 802.84,133.084 803.669,118.168 804.499,121.908 805.328,133.084 806.157,129.366 806.986,136.795 807.816,151.565 808.645,110.665 809.474,144.195 810.304,114.42 811.133,136.795 811.962,129.366 812.791,118.168 813.621,129.366 814.45,125.641 815.279,136.795 816.109,129.366 816.938,136.795 817.767,121.908 818.596,114.42 819.426,99.3545 820.255,129.366 821.084,121.908 821.914,133.084 822.743,133.084 823.572,133.084 824.401,169.865 825.231,129.366 826.06,158.907 826.889,118.168 827.719,118.168 828.548,121.908 829.377,125.641 830.206,140.499 831.036,140.499 831.865,129.366 832.694,136.795 833.524,147.884 834.353,136.795 835.182,106.902 836.012,136.795 836.841,125.641 837.67,155.24 838.499,136.795 839.329,136.795 840.158,136.795 840.987,118.168 841.817,125.641 842.646,140.499 843.475,114.42 844.304,129.366 845.134,106.902 845.963,114.42 846.792,155.24 847.622,114.42 848.451,125.641 849.28,121.908 850.109,162.567 850.939,125.641 851.768,158.907 852.597,121.908 853.427,136.795 854.256,147.884 855.085,129.366 855.914,155.24 856.744,136.795 857.573,125.641 858.402,140.499 859.232,129.366 860.061,110.665 860.89,136.795 861.719,129.366 862.549,129.366 863.378,110.665 864.207,147.884 865.037,114.42 865.866,136.795 866.695,125.641 867.524,121.908 868.354,147.884 869.183,136.795 870.012,125.641 870.842,136.795 871.671,140.499 872.5,121.908 873.329,151.565 874.159,133.084 874.988,129.366 875.817,144.195 876.647,147.884 877.476,144.195 878.305,133.084 879.135,129.366 879.964,129.366 880.793,140.499 881.622,129.366 882.452,144.195 883.281,110.665 884.11,140.499 884.94,158.907 885.769,125.641 886.598,140.499 887.427,155.24 888.257,147.884 889.086,121.908 889.915,121.908 890.745,118.168 891.574,121.908 892.403,136.795 893.232,129.366 894.062,147.884 894.891,147.884 895.72,110.665 896.55,129.366 897.379,110.665 898.208,110.665 899.037,140.499 899.867,144.195 900.696,151.565 901.525,121.908 902.355,140.499 903.184,136.795 904.013,121.908 904.842,151.565 905.672,129.366 906.501,140.499 907.33,121.908 908.16,118.168 908.989,129.366 909.818,121.908 910.647,121.908 911.477,125.641 912.306,118.168 913.135,133.084 913.965,121.908 914.794,147.884 915.623,121.908 916.453,129.366 917.282,125.641 918.111,125.641 918.94,155.24 919.77,121.908 920.599,125.641 921.428,121.908 922.258,136.795 923.087,118.168 923.916,140.499 924.745,136.795 925.575,118.168 926.404,110.665 927.233,144.195 928.063,129.366 928.892,136.795 929.721,110.665 930.55,129.366 931.38,133.084 932.209,129.366 933.038,133.084 933.868,129.366 934.697,125.641 935.526,129.366 936.355,118.168 937.185,103.132 938.014,129.366 938.843,118.168 939.673,118.168 940.502,144.195 941.331,118.168 942.16,144.195 942.99,129.366 943.819,147.884 944.648,158.907 945.478,110.665 946.307,129.366 947.136,118.168 947.965,133.084 948.795,125.641 949.624,129.366 950.453,147.884 951.283,147.884 952.112,121.908 952.941,125.641 953.771,121.908 954.6,118.168 955.429,121.908 956.258,114.42 957.088,121.908 957.917,121.908 958.746,129.366 959.576,121.908 960.405,110.665 961.234,129.366 962.063,110.665 962.893,144.195 963.722,114.42 964.551,129.366 965.381,114.42 966.21,129.366 967.039,125.641 967.868,129.366 968.698,125.641 969.527,103.132 970.356,118.168 971.186,114.42 972.015,125.641 972.844,129.366 973.673,133.084 974.503,144.195 975.332,121.908 976.161,110.665 976.991,136.795 977.82,114.42 978.649,121.908 979.478,147.884 980.308,114.42 981.137,129.366 981.966,118.168 982.796,118.168 983.625,125.641 984.454,121.908 985.283,133.084 986.113,99.3545 986.942,140.499 987.771,144.195 988.601,140.499 989.43,118.168 990.259,133.084 991.089,136.795 991.918,121.908 992.747,129.366 993.576,133.084 994.406,140.499 995.235,136.795 996.064,129.366 996.894,118.168 997.723,118.168 998.552,118.168 999.381,129.366 1000.21,121.908 1001.04,110.665 1001.87,110.665 1002.7,125.641 1003.53,125.641 1004.36,133.084 1005.19,136.795 1006.02,125.641 1006.85,136.795 1007.67,125.641 1008.5,133.084 1009.33,125.641 1010.16,121.908 1010.99,133.084 1011.82,121.908 1012.65,99.3545 1013.48,110.665 1014.31,110.665 1015.14,136.795 1015.97,114.42 1016.8,121.908 1017.63,136.795 1018.46,147.884 1019.28,121.908 1020.11,118.168 1020.94,118.168 1021.77,129.366 1022.6,125.641 1023.43,106.902 1024.26,121.908 1025.09,147.884 1025.92,129.366 1026.75,151.565 1027.58,129.366 1028.41,125.641 1029.24,118.168 1030.07,121.908 1030.89,125.641 1031.72,140.499 1032.55,121.908 1033.38,110.665 1034.21,140.499 1035.04,125.641 1035.87,121.908 1036.7,114.42 1037.53,133.084 1038.36,125.641 1039.19,106.902 1040.02,103.132 1040.85,144.195 1041.68,125.641 1042.5,125.641 1043.33,121.908 1044.16,121.908 1044.99,125.641 1045.82,129.366 1046.65,118.168 1047.48,121.908 1048.31,129.366 1049.14,103.132 1049.97,121.908 1050.8,118.168 1051.63,114.42 1052.46,114.42 1053.29,129.366 1054.11,118.168 1054.94,136.795 1055.77,114.42 1056.6,125.641 1057.43,114.42 1058.26,121.908 1059.09,129.366 1059.92,129.366 1060.75,125.641 1061.58,114.42 1062.41,114.42 1063.24,110.665 1064.07,110.665 1064.9,125.641 1065.72,118.168 1066.55,110.665 1067.38,133.084 1068.21,125.641 1069.04,133.084 1069.87,114.42 1070.7,129.366 1071.53,121.908 1072.36,129.366 1073.19,136.795 1074.02,129.366 1074.85,99.3545 1075.68,147.884 1076.51,118.168 1077.33,133.084 1078.16,140.499 1078.99,125.641 1079.82,110.665 1080.65,133.084 1081.48,118.168 1082.31,118.168 1083.14,121.908 1083.97,121.908 1084.8,129.366 1085.63,125.641 1086.46,133.084 1087.29,110.665 1088.12,144.195 1088.94,114.42 1089.77,114.42 1090.6,99.3545 1091.43,133.084 1092.26,110.665 1093.09,121.908 1093.92,118.168 1094.75,133.084 1095.58,129.366 1096.41,110.665 1097.24,114.42 1098.07,133.084 1098.9,121.908 1099.73,103.132 1100.55,114.42 1101.38,129.366 1102.21,121.908 1103.04,110.665 1103.87,118.168 1104.7,125.641 1105.53,103.132 1106.36,114.42 1107.19,118.168 1108.02,114.42 1108.85,125.641 1109.68,106.902 1110.51,129.366 1111.34,121.908 1112.16,118.168 1112.99,114.42 1113.82,118.168 1114.65,110.665 1115.48,103.132 1116.31,114.42 1117.14,121.908 1117.97,133.084 1118.8,144.195 1119.63,103.132 1120.46,118.168 1121.29,106.902 1122.12,125.641 1122.95,136.795 1123.77,110.665 1124.6,140.499 1125.43,106.902 1126.26,114.42 1127.09,114.42 1127.92,114.42 1128.75,121.908 1129.58,133.084 1130.41,133.084 1131.24,125.641 1132.07,129.366 1132.9,99.3545 1133.73,95.5693 1134.56,118.168 1135.38,110.665 1136.21,121.908 1137.04,114.42 1137.87,114.42 1138.7,121.908 1139.53,114.42 1140.36,114.42 1141.19,118.168 1142.02,133.084 1142.85,110.665 1143.68,118.168 1144.51,99.3545 1145.34,118.168 1146.17,118.168 1146.99,121.908 1147.82,106.902 1148.65,129.366 1149.48,133.084 1150.31,110.665 1151.14,129.366 1151.97,106.902 1152.8,129.366 1153.63,114.42 1154.46,110.665 1155.29,136.795 1156.12,129.366 1156.95,118.168 1157.78,118.168 1158.6,106.902 1159.43,110.665 1160.26,110.665 1161.09,121.908 1161.92,118.168 1162.75,114.42 1163.58,121.908 1164.41,118.168 1165.24,118.168 1166.07,114.42 1166.9,106.902 1167.73,121.908 1168.56,133.084 1169.39,118.168 1170.21,114.42 1171.04,114.42 1171.87,114.42 1172.7,110.665 1173.53,114.42 1174.36,110.665 1175.19,103.132 1176.02,121.908 1176.85,129.366 1177.68,114.42 1178.51,121.908 1179.34,114.42 1180.17,118.168 1181,106.902 1181.82,110.665 1182.65,99.3545 1183.48,110.665 1184.31,114.42 1185.14,114.42 1185.97,125.641 1186.8,144.195 1187.63,110.665 1188.46,103.132 1189.29,147.884 1190.12,125.641 1190.95,106.902 1191.78,118.168 1192.61,118.168 1193.43,95.5693 1194.26,106.902 1195.09,121.908 1195.92,103.132 1196.75,110.665 1197.58,99.3545 1198.41,106.902 1199.24,118.168 1200.07,121.908 1200.9,125.641 1201.73,118.168 1202.56,110.665 1203.39,103.132 1204.22,118.168 1205.05,118.168 1205.87,118.168 1206.7,114.42 1207.53,121.908 1208.36,110.665 1209.19,114.42 1210.02,125.641 1210.85,125.641 1211.68,118.168 1212.51,103.132 1213.34,99.3545 1214.17,133.084 1215,125.641 1215.83,118.168 1216.66,114.42 1217.48,129.366 1218.31,114.42 1219.14,118.168 1219.97,99.3545 1220.8,114.42 1221.63,103.132 1222.46,114.42 1223.29,114.42 1224.12,110.665 1224.95,106.902 1225.78,121.908 1226.61,114.42 1227.44,110.665 1228.27,110.665 1229.09,118.168 1229.92,129.366 1230.75,103.132 1231.58,118.168 1232.41,118.168 1233.24,118.168 1234.07,136.795 1234.9,103.132 1235.73,114.42 1236.56,121.908 1237.39,118.168 1238.22,103.132 1239.05,110.665 1239.88,114.42 1240.7,106.902 1241.53,114.42 1242.36,114.42 1243.19,118.168 1244.02,121.908 1244.85,110.665 1245.68,118.168 1246.51,110.665 1247.34,121.908 1248.17,125.641 1249,125.641 1249.83,106.902 1250.66,121.908 1251.49,125.641 1252.31,118.168 1253.14,121.908 1253.97,114.42 1254.8,110.665 1255.63,103.132 1256.46,103.132 1257.29,103.132 1258.12,129.366 1258.95,110.665 1259.78,103.132 1260.61,133.084 1261.44,110.665 1262.27,125.641 1263.1,106.902 1263.92,140.499 1264.75,106.902 1265.58,133.084 1266.41,136.795 1267.24,118.168 1268.07,125.641 1268.9,136.795 1269.73,99.3545 1270.56,114.42 1271.39,114.42 1272.22,129.366 1273.05,118.168 1273.88,125.641 1274.71,121.908 1275.53,133.084 1276.36,118.168 1277.19,110.665 1278.02,118.168 1278.85,121.908 1279.68,114.42 1280.51,103.132 1281.34,129.366 1282.17,114.42 1283,103.132 1283.83,103.132 1284.66,110.665 1285.49,103.132 1286.32,110.665 1287.14,121.908 1287.97,106.902 1288.8,103.132 1289.63,114.42 1290.46,125.641 1291.29,110.665 1292.12,106.902 1292.95,121.908 1293.78,118.168 1294.61,106.902 1295.44,110.665 1296.27,121.908 1297.1,110.665 1297.93,121.908 1298.75,118.168 1299.58,95.5693 1300.41,103.132 1301.24,121.908 1302.07,110.665 1302.9,99.3545 1303.73,118.168 1304.56,129.366 1305.39,110.665 1306.22,99.3545 1307.05,106.902 1307.88,110.665 1308.71,106.902 1309.54,103.132 1310.36,103.132 1311.19,114.42 1312.02,136.795 1312.85,129.366 1313.68,125.641 1314.51,114.42 1315.34,106.902 1316.17,133.084 1317,106.902 1317.83,114.42 1318.66,99.3545 1319.49,118.168 1320.32,136.795 1321.15,118.168 1321.97,114.42 1322.8,99.3545 1323.63,106.902 1324.46,114.42 1325.29,133.084 1326.12,118.168 1326.95,125.641 1327.78,121.908 1328.61,118.168 1329.44,121.908 1330.27,99.3545 1331.1,121.908 1331.93,106.902 1332.76,110.665 1333.58,114.42 1334.41,114.42 1335.24,106.902 1336.07,114.42 1336.9,103.132 1337.73,106.902 1338.56,121.908 1339.39,114.42 1340.22,114.42 1341.05,110.665 1341.88,103.132 1342.71,118.168 1343.54,129.366 1344.37,110.665 1345.19,106.902 1346.02,118.168 1346.85,114.42 1347.68,103.132 1348.51,114.42 1349.34,110.665 1350.17,129.366 1351,118.168 1351.83,106.902 1352.66,136.795 1353.49,121.908 1354.32,121.908 1355.15,114.42 1355.98,106.902 1356.8,110.665 1357.63,106.902 1358.46,114.42 1359.29,121.908 1360.12,106.902 1360.95,99.3545 1361.78,110.665 1362.61,106.902 1363.44,110.665 1364.27,118.168 1365.1,118.168 1365.93,106.902 1366.76,103.132 1367.59,121.908 1368.41,99.3545 1369.24,99.3545 1370.07,129.366 1370.9,118.168 1371.73,121.908 1372.56,106.902 1373.39,133.084 1374.22,103.132 1375.05,106.902 1375.88,118.168 1376.71,106.902 1377.54,118.168 1378.37,99.3545 1379.2,110.665 1380.02,106.902 1380.85,133.084 1381.68,110.665 1382.51,114.42 1383.34,110.665 1384.17,110.665 1385,106.902 1385.83,106.902 1386.66,121.908 1387.49,118.168 1388.32,103.132 1389.15,110.665 1389.98,99.3545 1390.81,106.902 1391.64,118.168 1392.46,121.908 1393.29,95.5693 1394.12,99.3545 1394.95,114.42 1395.78,118.168 1396.61,99.3545 1397.44,114.42 1398.27,95.5693 1399.1,110.665 1399.93,125.641 1400.76,118.168 1401.59,118.168 1402.42,103.132 1403.25,114.42 1404.07,114.42 1404.9,118.168 1405.73,110.665 1406.56,110.665 1407.39,106.902 1408.22,110.665 1409.05,106.902 1409.88,114.42 1410.71,118.168 1411.54,114.42 1412.37,110.665 1413.2,106.902 1414.03,129.366 1414.86,95.5693 1415.68,103.132 1416.51,99.3545 1417.34,106.902 1418.17,95.5693 1419,114.42 1419.83,103.132 1420.66,110.665 1421.49,114.42 1422.32,125.641 1423.15,110.665 1423.98,110.665 1424.81,110.665 1425.64,95.5693 1426.47,121.908 1427.29,110.665 1428.12,114.42 1428.95,103.132 1429.78,103.132 1430.61,114.42 1431.44,110.665 1432.27,110.665 1433.1,125.641 1433.93,121.908 1434.76,114.42 1435.59,110.665 1436.42,99.3545 1437.25,125.641 1438.08,110.665 1438.9,106.902 1439.73,103.132 1440.56,121.908 1441.39,110.665 1442.22,99.3545 1443.05,103.132 1443.88,106.902 1444.71,95.5693 1445.54,103.132 1446.37,110.665 1447.2,118.168 1448.03,118.168 1448.86,103.132 1449.69,95.5693 1450.51,125.641 1451.34,95.5693 1452.17,87.9763 1453,118.168 1453.83,99.3545 1454.66,118.168 1455.49,99.3545 1456.32,103.132 1457.15,110.665 1457.98,106.902 1458.81,129.366 1459.64,114.42 1460.47,118.168 1461.3,106.902 1462.12,121.908 1462.95,99.3545 1463.78,114.42 1464.61,103.132 1465.44,99.3545 1466.27,114.42 1467.1,114.42 1467.93,121.908 1468.76,114.42 1469.59,103.132 1470.42,103.132 1471.25,110.665 1472.08,110.665 1472.91,114.42 1473.73,125.641 1474.56,114.42 1475.39,103.132 1476.22,110.665 1477.05,110.665 1477.88,133.084 1478.71,106.902 1479.54,118.168 1480.37,110.665 1481.2,114.42 1482.03,99.3545 1482.86,118.168 1483.69,106.902 1484.52,110.665 1485.34,106.902 1486.17,106.902 1487,99.3545 1487.83,106.902 1488.66,103.132 1489.49,110.665 1490.32,103.132 1491.15,106.902 1491.98,106.902 1492.81,110.665 1493.64,95.5693 1494.47,95.5693 1495.3,121.908 1496.13,118.168 1496.95,99.3545 1497.78,106.902 1498.61,110.665 1499.44,125.641 1500.27,106.902 1501.1,114.42 1501.93,114.42 1502.76,110.665 1503.59,106.902 1504.42,103.132 1505.25,91.7766 1506.08,114.42 1506.91,106.902 1507.74,118.168 1508.56,106.902 1509.39,110.665 1510.22,114.42 1511.05,106.902 1511.88,110.665 1512.71,110.665 1513.54,103.132 1514.37,118.168 1515.2,118.168 1516.03,106.902 1516.86,103.132 1517.69,106.902 1518.52,91.7766 1519.35,110.665 1520.17,110.665 1521,125.641 1521.83,103.132 1522.66,129.366 1523.49,99.3545 1524.32,103.132 1525.15,110.665 1525.98,106.902 1526.81,114.42 1527.64,103.132 1528.47,110.665 1529.3,106.902 1530.13,106.902 1530.96,110.665 1531.78,103.132 1532.61,121.908 1533.44,110.665 1534.27,121.908 1535.1,99.3545 1535.93,103.132 1536.76,121.908 1537.59,99.3545 1538.42,95.5693 1539.25,103.132 1540.08,121.908 1540.91,125.641 1541.74,114.42 1542.57,106.902 1543.39,99.3545 1544.22,114.42 1545.05,106.902 1545.88,110.665 1546.71,110.665 1547.54,99.3545 1548.37,106.902 1549.2,103.132 1550.03,121.908 1550.86,114.42 1551.69,106.902 1552.52,106.902 1553.35,106.902 1554.18,110.665 1555,114.42 1555.83,106.902 1556.66,99.3545 1557.49,118.168 1558.32,103.132 1559.15,110.665 1559.98,114.42 1560.81,103.132 1561.64,118.168 1562.47,99.3545 1563.3,118.168 1564.13,114.42 1564.96,103.132 1565.79,103.132 1566.61,99.3545 1567.44,103.132 1568.27,110.665 1569.1,103.132 1569.93,125.641 1570.76,129.366 1571.59,103.132 1572.42,114.42 1573.25,106.902 1574.08,91.7766 1574.91,103.132 1575.74,110.665 1576.57,99.3545 1577.4,118.168 1578.23,129.366 1579.05,106.902 1579.88,129.366 1580.71,87.9763 1581.54,110.665 1582.37,110.665 1583.2,106.902 1584.03,99.3545 1584.86,95.5693 1585.69,106.902 1586.52,118.168 1587.35,118.168 1588.18,106.902 1589.01,99.3545 1589.84,114.42 1590.66,106.902 1591.49,118.168 1592.32,95.5693 1593.15,114.42 1593.98,95.5693 1594.81,95.5693 1595.64,95.5693 1596.47,95.5693 1597.3,110.665 1598.13,136.795 1598.96,118.168 1599.79,110.665 1600.62,95.5693 1601.45,103.132 1602.27,110.665 1603.1,110.665 1603.93,121.908 1604.76,99.3545 1605.59,114.42 1606.42,114.42 1607.25,118.168 1608.08,114.42 1608.91,103.132 1609.74,95.5693 1610.57,103.132 1611.4,114.42 1612.23,106.902 1613.06,91.7766 1613.88,103.132 1614.71,99.3545 1615.54,114.42 1616.37,110.665 1617.2,103.132 1618.03,114.42 1618.86,103.132 1619.69,95.5693 1620.52,106.902 1621.35,106.902 1622.18,106.902 1623.01,95.5693 1623.84,110.665 1624.67,106.902 1625.49,110.665 1626.32,106.902 1627.15,106.902 1627.98,106.902 1628.81,95.5693 1629.64,95.5693 1630.47,99.3545 1631.3,103.132 1632.13,95.5693 1632.96,95.5693 1633.79,106.902 1634.62,121.908 1635.45,114.42 1636.28,110.665 1637.1,95.5693 1637.93,103.132 1638.76,125.641 1639.59,103.132 1640.42,110.665 1641.25,99.3545 1642.08,106.902 1642.91,110.665 1643.74,118.168 1644.57,114.42 1645.4,99.3545 1646.23,106.902 1647.06,121.908 1647.89,91.7766 1648.71,114.42 1649.54,103.132 1650.37,91.7766 1651.2,95.5693 1652.03,121.908 1652.86,99.3545 1653.69,118.168 1654.52,110.665 1655.35,95.5693 1656.18,106.902 1657.01,95.5693 1657.84,110.665 1658.67,121.908 1659.5,99.3545 1660.32,103.132 1661.15,91.7766 1661.98,110.665 1662.81,91.7766 1663.64,103.132 1664.47,103.132 1665.3,103.132 1666.13,106.902 1666.96,106.902 1667.79,103.132 1668.62,118.168 1669.45,125.641 1670.28,103.132 1671.11,110.665 1671.93,103.132 1672.76,99.3545 1673.59,99.3545 1674.42,133.084 1675.25,129.366 1676.08,99.3545 1676.91,95.5693 1677.74,110.665 1678.57,103.132 1679.4,87.9763 1680.23,133.084 1681.06,95.5693 1681.89,99.3545 1682.72,87.9763 1683.54,99.3545 1684.37,103.132 1685.2,118.168 1686.03,114.42 1686.86,99.3545 1687.69,95.5693 1688.52,99.3545 1689.35,103.132 1690.18,110.665 1691.01,103.132 1691.84,110.665 1692.67,99.3545 1693.5,95.5693 1694.33,103.132 1695.15,95.5693 1695.98,103.132 1696.81,114.42 1697.64,114.42 1698.47,118.168 1699.3,110.665 1700.13,99.3545 1700.96,99.3545 1701.79,99.3545 1702.62,103.132 1703.45,99.3545 1704.28,103.132 1705.11,95.5693 1705.94,121.908 1706.76,103.132 1707.59,99.3545 1708.42,95.5693 1709.25,103.132 1710.08,110.665 1710.91,106.902 1711.74,110.665 1712.57,106.902 1713.4,114.42 1714.23,125.641 1715.06,103.132 1715.89,99.3545 1716.72,95.5693 1717.55,106.902 1718.37,103.132 1719.2,103.132 1720.03,103.132 1720.86,95.5693 1721.69,110.665 1722.52,103.132 1723.35,99.3545 1724.18,114.42 1725.01,110.665 1725.84,110.665 1726.67,99.3545 1727.5,110.665 1728.33,121.908 1729.16,103.132 1729.98,103.132 1730.81,106.902 1731.64,95.5693 1732.47,129.366 1733.3,114.42 1734.13,106.902 1734.96,91.7766 1735.79,103.132 1736.62,110.665 1737.45,118.168 1738.28,103.132 1739.11,114.42 1739.94,106.902 1740.77,103.132 1741.59,106.902 1742.42,99.3545 1743.25,103.132 1744.08,99.3545 1744.91,103.132 1745.74,106.902 1746.57,99.3545 1747.4,110.665 1748.23,103.132 1749.06,118.168 1749.89,103.132 1750.72,103.132 1751.55,99.3545 1752.38,95.5693 1753.2,118.168 1754.03,103.132 1754.86,103.132 1755.69,103.132 1756.52,114.42 1757.35,110.665 1758.18,99.3545 1759.01,106.902 1759.84,99.3545 1760.67,110.665 1761.5,114.42 1762.33,99.3545 1763.16,114.42 1763.99,99.3545 1764.81,110.665 1765.64,99.3545 1766.47,99.3545 1767.3,95.5693 1768.13,99.3545 1768.96,106.902 1769.79,95.5693 1770.62,106.902 1771.45,118.168 1772.28,106.902 1773.11,103.132 1773.94,106.902 1774.77,103.132 1775.6,103.132 1776.43,103.132 1777.25,106.902 1778.08,106.902 1778.91,110.665 1779.74,106.902 1780.57,103.132 1781.4,110.665 1782.23,118.168 1783.06,118.168 1783.89,99.3545 1784.72,95.5693 1785.55,99.3545 1786.38,99.3545 1787.21,106.902 1788.04,110.665 1788.86,95.5693 1789.69,99.3545 1790.52,95.5693 1791.35,91.7766 1792.18,110.665 1793.01,106.902 1793.84,103.132 1794.67,103.132 1795.5,106.902 1796.33,110.665 1797.16,121.908 1797.99,118.168 1798.82,110.665 1799.65,103.132 1800.47,87.9763 1801.3,110.665 1802.13,103.132 1802.96,99.3545 1803.79,106.902 1804.62,118.168 1805.45,103.132 1806.28,121.908 1807.11,91.7766 1807.94,106.902 1808.77,103.132 1809.6,106.902 1810.43,106.902 1811.26,99.3545 1812.08,95.5693 1812.91,114.42 1813.74,106.902 1814.57,106.902 1815.4,99.3545 1816.23,110.665 1817.06,114.42 1817.89,110.665 1818.72,103.132 1819.55,110.665 1820.38,103.132 1821.21,114.42 1822.04,110.665 1822.87,103.132 1823.69,103.132 1824.52,99.3545 1825.35,103.132 1826.18,110.665 1827.01,110.665 1827.84,106.902 1828.67,110.665 1829.5,106.902 1830.33,110.665 1831.16,103.132 1831.99,99.3545 1832.82,99.3545 1833.65,103.132 1834.48,99.3545 1835.3,103.132 1836.13,95.5693 1836.96,103.132 1837.79,110.665 1838.62,106.902 1839.45,106.902 1840.28,103.132 1841.11,106.902 1841.94,114.42 1842.77,110.665 1843.6,110.665 1844.43,91.7766 1845.26,121.908 1846.09,125.641 1846.91,99.3545 1847.74,103.132 1848.57,110.665 1849.4,103.132 1850.23,95.5693 1851.06,99.3545 1851.89,110.665 1852.72,110.665 1853.55,99.3545 1854.38,106.902 1855.21,106.902 1856.04,106.902 1856.87,106.902 1857.7,99.3545 1858.52,103.132 1859.35,114.42 1860.18,99.3545 1861.01,106.902 1861.84,118.168 1862.67,110.665 1863.5,99.3545 1864.33,103.132 1865.16,99.3545 1865.99,95.5693 1866.82,91.7766 1867.65,103.132 1868.48,91.7766 1869.31,114.42 1870.13,106.902 1870.96,110.665 1871.79,110.665 1872.62,110.665 1873.45,99.3545 1874.28,106.902 1875.11,118.168 1875.94,103.132 1876.77,99.3545 1877.6,118.168 1878.43,99.3545 1879.26,106.902 1880.09,99.3545 1880.92,95.5693 1881.74,103.132 1882.57,110.665 1883.4,106.902 1884.23,114.42 1885.06,103.132 1885.89,118.168 1886.72,99.3545 1887.55,95.5693 1888.38,110.665 1889.21,110.665 1890.04,103.132 1890.87,103.132 1891.7,95.5693 1892.53,95.5693 1893.35,95.5693 1894.18,99.3545 1895.01,110.665 1895.84,95.5693 1896.67,95.5693 1897.5,103.132 1898.33,110.665 1899.16,103.132 1899.99,99.3545 1900.82,99.3545 1901.65,106.902 1902.48,95.5693 1903.31,99.3545 1904.14,106.902 1904.96,106.902 1905.79,103.132 1906.62,114.42 1907.45,114.42 1908.28,103.132 1909.11,106.902 1909.94,99.3545 1910.77,99.3545 1911.6,103.132 1912.43,99.3545 1913.26,110.665 1914.09,91.7766 1914.92,118.168 1915.75,106.902 1916.57,121.908 1917.4,91.7766 1918.23,103.132 1919.06,103.132 1919.89,103.132 1920.72,99.3545 1921.55,95.5693 1922.38,95.5693 1923.21,110.665 1924.04,99.3545 1924.87,114.42 1925.7,103.132 1926.53,99.3545 1927.36,106.902 1928.18,99.3545 1929.01,103.132 1929.84,106.902 1930.67,99.3545 1931.5,95.5693 1932.33,103.132 1933.16,103.132 1933.99,103.132 1934.82,91.7766 1935.65,110.665 1936.48,103.132 1937.31,103.132 1938.14,95.5693 1938.97,103.132 1939.79,103.132 1940.62,106.902 1941.45,103.132 1942.28,106.902 1943.11,114.42 1943.94,95.5693 1944.77,110.665 1945.6,103.132 1946.43,99.3545 1947.26,99.3545 1948.09,103.132 1948.92,106.902 1949.75,91.7766 1950.58,106.902 1951.4,103.132 1952.23,106.902 1953.06,99.3545 1953.89,91.7766 1954.72,95.5693 1955.55,106.902 1956.38,106.902 1957.21,110.665 1958.04,103.132 1958.87,106.902 1959.7,99.3545 1960.53,118.168 1961.36,114.42 1962.19,106.902 1963.02,95.5693 1963.84,91.7766 1964.67,114.42 1965.5,110.665 1966.33,99.3545 1967.16,106.902 1967.99,103.132 1968.82,103.132 1969.65,99.3545 1970.48,91.7766 1971.31,110.665 1972.14,110.665 1972.97,95.5693 1973.8,95.5693 1974.63,106.902 1975.45,103.132 1976.28,114.42 1977.11,87.9763 1977.94,95.5693 1978.77,99.3545 1979.6,95.5693 1980.43,99.3545 1981.26,95.5693 1982.09,99.3545 1982.92,99.3545 1983.75,99.3545 1984.58,103.132 1985.41,99.3545 1986.24,103.132 1987.06,91.7766 1987.89,95.5693 1988.72,110.665 1989.55,121.908 1990.38,103.132 1991.21,103.132 1992.04,114.42 1992.87,106.902 1993.7,110.665 1994.53,95.5693 1995.36,95.5693 1996.19,95.5693 1997.02,103.132 1997.85,110.665 1998.67,99.3545 1999.5,114.42 2000.33,110.665 2001.16,99.3545 2001.99,99.3545 2002.82,114.42 2003.65,99.3545 2004.48,95.5693 2005.31,106.902 2006.14,99.3545 2006.97,110.665 2007.8,103.132 2008.63,95.5693 2009.46,99.3545 2010.28,121.908 2011.11,99.3545 2011.94,106.902 2012.77,95.5693 2013.6,99.3545 2014.43,95.5693 2015.26,114.42 2016.09,99.3545 2016.92,95.5693 2017.75,103.132 2018.58,95.5693 2019.41,103.132 2020.24,106.902 2021.07,95.5693 2021.89,99.3545 2022.72,95.5693 2023.55,103.132 2024.38,95.5693 2025.21,114.42 2026.04,106.902 2026.87,99.3545 2027.7,114.42 2028.53,110.665 2029.36,118.168 2030.19,99.3545 2031.02,95.5693 2031.85,99.3545 2032.68,106.902 2033.5,103.132 2034.33,95.5693 2035.16,99.3545 2035.99,99.3545 2036.82,99.3545 2037.65,99.3545 2038.48,103.132 2039.31,99.3545 2040.14,106.902 2040.97,99.3545 2041.8,106.902 2042.63,95.5693 2043.46,103.132 2044.29,99.3545 2045.11,103.132 2045.94,114.42 2046.77,95.5693 2047.6,106.902 2048.43,118.168 2049.26,106.902 2050.09,110.665 2050.92,103.132 2051.75,99.3545 2052.58,103.132 2053.41,95.5693 2054.24,103.132 2055.07,95.5693 2055.9,91.7766 2056.72,99.3545 2057.55,114.42 2058.38,103.132 2059.21,99.3545 2060.04,95.5693 2060.87,95.5693 2061.7,95.5693 2062.53,95.5693 2063.36,103.132 2064.19,110.665 2065.02,103.132 2065.85,99.3545 2066.68,95.5693 2067.51,91.7766 2068.33,99.3545 2069.16,106.902 2069.99,103.132 2070.82,99.3545 2071.65,95.5693 2072.48,95.5693 2073.31,118.168 2074.14,99.3545 2074.97,99.3545 2075.8,99.3545 2076.63,99.3545 2077.46,103.132 2078.29,103.132 2079.12,99.3545 2079.94,114.42 2080.77,103.132 2081.6,95.5693 2082.43,99.3545 2083.26,103.132 2084.09,99.3545 2084.92,99.3545 2085.75,106.902 2086.58,103.132 2087.41,99.3545 2088.24,91.7766 2089.07,106.902 2089.9,99.3545 2090.73,95.5693 2091.55,110.665 2092.38,106.902 2093.21,99.3545 2094.04,99.3545 2094.87,110.665 2095.7,99.3545 2096.53,95.5693 2097.36,95.5693 2098.19,91.7766 2099.02,103.132 2099.85,110.665 2100.68,95.5693 2101.51,110.665 2102.34,106.902 2103.16,99.3545 2103.99,114.42 2104.82,106.902 2105.65,95.5693 2106.48,110.665 2107.31,103.132 2108.14,103.132 2108.97,99.3545 2109.8,99.3545 2110.63,99.3545 2111.46,95.5693 2112.29,95.5693 2113.12,110.665 2113.95,110.665 2114.77,99.3545 2115.6,99.3545 2116.43,95.5693 2117.26,95.5693 2118.09,110.665 2118.92,99.3545 2119.75,110.665 2120.58,91.7766 2121.41,106.902 2122.24,103.132 2123.07,118.168 2123.9,91.7766 2124.73,106.902 2125.56,110.665 2126.38,87.9763 2127.21,106.902 2128.04,99.3545 2128.87,103.132 2129.7,103.132 2130.53,99.3545 2131.36,118.168 2132.19,121.908 2133.02,99.3545 2133.85,99.3545 2134.68,99.3545 2135.51,91.7766 2136.34,103.132 2137.17,106.902 2137.99,103.132 2138.82,106.902 2139.65,106.902 2140.48,99.3545 2141.31,106.902 2142.14,95.5693 2142.97,110.665 2143.8,91.7766 2144.63,106.902 2145.46,99.3545 2146.29,103.132 2147.12,95.5693 2147.95,99.3545 2148.78,99.3545 2149.61,99.3545 2150.43,103.132 2151.26,99.3545 2152.09,106.902 2152.92,103.132 2153.75,103.132 2154.58,103.132 2155.41,106.902 2156.24,106.902 2157.07,110.665 2157.9,106.902 2158.73,118.168 2159.56,114.42 2160.39,95.5693 2161.22,114.42 2162.04,103.132 2162.87,99.3545 2163.7,95.5693 2164.53,91.7766 2165.36,118.168 2166.19,99.3545 2167.02,95.5693 2167.85,106.902 2168.68,95.5693 2169.51,110.665 2170.34,106.902 2171.17,103.132 2172,118.168 2172.83,106.902 2173.65,95.5693 2174.48,125.641 2175.31,91.7766 2176.14,103.132 2176.97,95.5693 2177.8,103.132 2178.63,95.5693 2179.46,95.5693 2180.29,95.5693 2181.12,95.5693 2181.95,95.5693 2182.78,110.665 2183.61,87.9763 2184.44,95.5693 2185.26,99.3545 2186.09,91.7766 2186.92,114.42 2187.75,118.168 2188.58,95.5693 2189.41,99.3545 2190.24,114.42 2191.07,106.902 2191.9,114.42 2192.73,118.168 2193.56,91.7766 2194.39,110.665 2195.22,95.5693 2196.05,103.132 2196.87,95.5693 2197.7,91.7766 2198.53,99.3545 2199.36,110.665 2200.19,99.3545 2201.02,103.132 2201.85,91.7766 2202.68,103.132 2203.51,103.132 2204.34,106.902 2205.17,99.3545 2206,99.3545 2206.83,106.902 2207.66,106.902 2208.48,103.132 2209.31,99.3545 2210.14,99.3545 2210.97,99.3545 2211.8,99.3545 2212.63,99.3545 2213.46,99.3545 2214.29,99.3545 2215.12,95.5693 2215.95,103.132 2216.78,106.902 2217.61,95.5693 2218.44,91.7766 2219.27,95.5693 2220.09,103.132 2220.92,95.5693 2221.75,103.132 2222.58,87.9763 2223.41,87.9763 2224.24,103.132 2225.07,87.9763 2225.9,106.902 2226.73,95.5693 2227.56,103.132 2228.39,103.132 2229.22,103.132 2230.05,106.902 2230.88,95.5693 2231.7,106.902 2232.53,103.132 2233.36,99.3545 2234.19,103.132 2235.02,103.132 2235.85,95.5693 2236.68,106.902 2237.51,106.902 2238.34,95.5693 2239.17,103.132 2240,99.3545 2240.83,95.5693 2241.66,95.5693 2242.49,95.5693 2243.31,91.7766 2244.14,87.9763 2244.97,95.5693 2245.8,99.3545 2246.63,103.132 2247.46,106.902 2248.29,103.132 2249.12,99.3545 2249.95,87.9763 2250.78,110.665 2251.61,103.132 2252.44,106.902 2253.27,91.7766 2254.1,99.3545 2254.92,114.42 2255.75,114.42 2256.58,95.5693 2257.41,103.132 2258.24,91.7766 2259.07,99.3545 2259.9,110.665 2260.73,95.5693 2261.56,95.5693 2262.39,118.168 2263.22,103.132 2264.05,103.132 2264.88,91.7766 2265.71,91.7766 2266.53,95.5693 2267.36,95.5693 2268.19,95.5693 2269.02,91.7766 2269.85,110.665 2270.68,106.902 2271.51,91.7766 2272.34,110.665 2273.17,103.132 2274,103.132 2274.83,121.908 2275.66,110.665 2276.49,106.902 2277.32,103.132 2278.14,95.5693 2278.97,91.7766 2279.8,118.168 2280.63,99.3545 2281.46,110.665 2282.29,99.3545 2283.12,103.132 2283.95,103.132 2284.78,106.902 2285.61,106.902 2286.44,99.3545 2287.27,106.902 2288.1,95.5693 2288.93,103.132 2289.75,99.3545 2290.58,110.665 "/>
<path clip-path="url(#clip910)" d="M2007.43 1438.47 L2279.53 1438.47 L2279.53 1334.79 L2007.43 1334.79  Z" fill="#ffffff" fill-rule="evenodd" fill-opacity="1"/>
<polyline clip-path="url(#clip910)" style="stroke:#000000; stroke-linecap:round; stroke-linejoin:round; stroke-width:4; stroke-opacity:1; fill:none" points="2007.43,1438.47 2279.53,1438.47 2279.53,1334.79 2007.43,1334.79 2007.43,1438.47 "/>
<polyline clip-path="url(#clip910)" style="stroke:#009af9; stroke-linecap:round; stroke-linejoin:round; stroke-width:4; stroke-opacity:1; fill:none" points="2031.84,1386.63 2178.28,1386.63 "/>
<path clip-path="url(#clip910)" d="M2216.54 1406.32 Q2214.73 1410.95 2213.02 1412.36 Q2211.3 1413.78 2208.43 1413.78 L2205.03 1413.78 L2205.03 1410.21 L2207.53 1410.21 Q2209.29 1410.21 2210.26 1409.38 Q2211.23 1408.54 2212.42 1405.44 L2213.18 1403.5 L2202.69 1377.99 L2207.21 1377.99 L2215.31 1398.27 L2223.41 1377.99 L2227.92 1377.99 L2216.54 1406.32 Z" fill="#000000" fill-rule="nonzero" fill-opacity="1" /><path clip-path="url(#clip910)" d="M2235.22 1399.98 L2242.85 1399.98 L2242.85 1373.61 L2234.54 1375.28 L2234.54 1371.02 L2242.81 1369.35 L2247.48 1369.35 L2247.48 1399.98 L2255.12 1399.98 L2255.12 1403.91 L2235.22 1403.91 L2235.22 1399.98 Z" fill="#000000" fill-rule="nonzero" fill-opacity="1" /></svg>
