<?xml version="1.0" encoding="utf-8"?>
<svg xmlns="http://www.w3.org/2000/svg" xmlns:xlink="http://www.w3.org/1999/xlink" width="600" height="400" viewBox="0 0 2400 1600">
<defs>
  <clipPath id="clip520">
    <rect x="0" y="0" width="2400" height="1600"/>
  </clipPath>
</defs>
<path clip-path="url(#clip520)" d="M0 1600 L2400 1600 L2400 0 L0 0  Z" fill="#ffffff" fill-rule="evenodd" fill-opacity="1"/>
<defs>
  <clipPath id="clip521">
    <rect x="480" y="0" width="1681" height="1600"/>
  </clipPath>
</defs>
<path clip-path="url(#clip520)" d="M156.274 1486.45 L2352.76 1486.45 L2352.76 47.2441 L156.274 47.2441  Z" fill="#ffffff" fill-rule="evenodd" fill-opacity="1"/>
<defs>
  <clipPath id="clip522">
    <rect x="156" y="47" width="2197" height="1440"/>
  </clipPath>
</defs>
<polyline clip-path="url(#clip522)" style="stroke:#000000; stroke-linecap:round; stroke-linejoin:round; stroke-width:2; stroke-opacity:0.1; fill:none" points="218.439,1486.45 218.439,47.2441 "/>
<polyline clip-path="url(#clip522)" style="stroke:#000000; stroke-linecap:round; stroke-linejoin:round; stroke-width:2; stroke-opacity:0.1; fill:none" points="633.035,1486.45 633.035,47.2441 "/>
<polyline clip-path="url(#clip522)" style="stroke:#000000; stroke-linecap:round; stroke-linejoin:round; stroke-width:2; stroke-opacity:0.1; fill:none" points="1047.63,1486.45 1047.63,47.2441 "/>
<polyline clip-path="url(#clip522)" style="stroke:#000000; stroke-linecap:round; stroke-linejoin:round; stroke-width:2; stroke-opacity:0.1; fill:none" points="1462.23,1486.45 1462.23,47.2441 "/>
<polyline clip-path="url(#clip522)" style="stroke:#000000; stroke-linecap:round; stroke-linejoin:round; stroke-width:2; stroke-opacity:0.1; fill:none" points="1876.82,1486.45 1876.82,47.2441 "/>
<polyline clip-path="url(#clip522)" style="stroke:#000000; stroke-linecap:round; stroke-linejoin:round; stroke-width:2; stroke-opacity:0.1; fill:none" points="2291.42,1486.45 2291.42,47.2441 "/>
<polyline clip-path="url(#clip520)" style="stroke:#000000; stroke-linecap:round; stroke-linejoin:round; stroke-width:4; stroke-opacity:1; fill:none" points="156.274,1486.45 2352.76,1486.45 "/>
<polyline clip-path="url(#clip520)" style="stroke:#000000; stroke-linecap:round; stroke-linejoin:round; stroke-width:4; stroke-opacity:1; fill:none" points="218.439,1486.45 218.439,1467.55 "/>
<polyline clip-path="url(#clip520)" style="stroke:#000000; stroke-linecap:round; stroke-linejoin:round; stroke-width:4; stroke-opacity:1; fill:none" points="633.035,1486.45 633.035,1467.55 "/>
<polyline clip-path="url(#clip520)" style="stroke:#000000; stroke-linecap:round; stroke-linejoin:round; stroke-width:4; stroke-opacity:1; fill:none" points="1047.63,1486.45 1047.63,1467.55 "/>
<polyline clip-path="url(#clip520)" style="stroke:#000000; stroke-linecap:round; stroke-linejoin:round; stroke-width:4; stroke-opacity:1; fill:none" points="1462.23,1486.45 1462.23,1467.55 "/>
<polyline clip-path="url(#clip520)" style="stroke:#000000; stroke-linecap:round; stroke-linejoin:round; stroke-width:4; stroke-opacity:1; fill:none" points="1876.82,1486.45 1876.82,1467.55 "/>
<polyline clip-path="url(#clip520)" style="stroke:#000000; stroke-linecap:round; stroke-linejoin:round; stroke-width:4; stroke-opacity:1; fill:none" points="2291.42,1486.45 2291.42,1467.55 "/>
<path clip-path="url(#clip520)" d="M218.439 1517.37 Q214.828 1517.37 212.999 1520.93 Q211.193 1524.47 211.193 1531.6 Q211.193 1538.71 212.999 1542.27 Q214.828 1545.82 218.439 1545.82 Q222.073 1545.82 223.879 1542.27 Q225.707 1538.71 225.707 1531.6 Q225.707 1524.47 223.879 1520.93 Q222.073 1517.37 218.439 1517.37 M218.439 1513.66 Q224.249 1513.66 227.304 1518.27 Q230.383 1522.85 230.383 1531.6 Q230.383 1540.33 227.304 1544.94 Q224.249 1549.52 218.439 1549.52 Q212.629 1549.52 209.55 1544.94 Q206.494 1540.33 206.494 1531.6 Q206.494 1522.85 209.55 1518.27 Q212.629 1513.66 218.439 1513.66 Z" fill="#000000" fill-rule="nonzero" fill-opacity="1" /><path clip-path="url(#clip520)" d="M592.653 1514.29 L611.01 1514.29 L611.01 1518.22 L596.936 1518.22 L596.936 1526.7 Q597.954 1526.35 598.973 1526.19 Q599.991 1526 601.01 1526 Q606.797 1526 610.176 1529.17 Q613.556 1532.34 613.556 1537.76 Q613.556 1543.34 610.084 1546.44 Q606.612 1549.52 600.292 1549.52 Q598.116 1549.52 595.848 1549.15 Q593.602 1548.78 591.195 1548.04 L591.195 1543.34 Q593.278 1544.47 595.501 1545.03 Q597.723 1545.58 600.2 1545.58 Q604.204 1545.58 606.542 1543.48 Q608.88 1541.37 608.88 1537.76 Q608.88 1534.15 606.542 1532.04 Q604.204 1529.94 600.2 1529.94 Q598.325 1529.94 596.45 1530.35 Q594.598 1530.77 592.653 1531.65 L592.653 1514.29 Z" fill="#000000" fill-rule="nonzero" fill-opacity="1" /><path clip-path="url(#clip520)" d="M632.769 1517.37 Q629.158 1517.37 627.329 1520.93 Q625.524 1524.47 625.524 1531.6 Q625.524 1538.71 627.329 1542.27 Q629.158 1545.82 632.769 1545.82 Q636.403 1545.82 638.209 1542.27 Q640.037 1538.71 640.037 1531.6 Q640.037 1524.47 638.209 1520.93 Q636.403 1517.37 632.769 1517.37 M632.769 1513.66 Q638.579 1513.66 641.635 1518.27 Q644.713 1522.85 644.713 1531.6 Q644.713 1540.33 641.635 1544.94 Q638.579 1549.52 632.769 1549.52 Q626.959 1549.52 623.88 1544.94 Q620.825 1540.33 620.825 1531.6 Q620.825 1522.85 623.88 1518.27 Q626.959 1513.66 632.769 1513.66 Z" fill="#000000" fill-rule="nonzero" fill-opacity="1" /><path clip-path="url(#clip520)" d="M662.931 1517.37 Q659.32 1517.37 657.491 1520.93 Q655.685 1524.47 655.685 1531.6 Q655.685 1538.71 657.491 1542.27 Q659.32 1545.82 662.931 1545.82 Q666.565 1545.82 668.371 1542.27 Q670.199 1538.71 670.199 1531.6 Q670.199 1524.47 668.371 1520.93 Q666.565 1517.37 662.931 1517.37 M662.931 1513.66 Q668.741 1513.66 671.796 1518.27 Q674.875 1522.85 674.875 1531.6 Q674.875 1540.33 671.796 1544.94 Q668.741 1549.52 662.931 1549.52 Q657.121 1549.52 654.042 1544.94 Q650.986 1540.33 650.986 1531.6 Q650.986 1522.85 654.042 1518.27 Q657.121 1513.66 662.931 1513.66 Z" fill="#000000" fill-rule="nonzero" fill-opacity="1" /><path clip-path="url(#clip520)" d="M992.157 1544.91 L999.796 1544.91 L999.796 1518.55 L991.486 1520.21 L991.486 1515.95 L999.75 1514.29 L1004.43 1514.29 L1004.43 1544.91 L1012.06 1544.91 L1012.06 1548.85 L992.157 1548.85 L992.157 1544.91 Z" fill="#000000" fill-rule="nonzero" fill-opacity="1" /><path clip-path="url(#clip520)" d="M1031.51 1517.37 Q1027.9 1517.37 1026.07 1520.93 Q1024.26 1524.47 1024.26 1531.6 Q1024.26 1538.71 1026.07 1542.27 Q1027.9 1545.82 1031.51 1545.82 Q1035.14 1545.82 1036.95 1542.27 Q1038.78 1538.71 1038.78 1531.6 Q1038.78 1524.47 1036.95 1520.93 Q1035.14 1517.37 1031.51 1517.37 M1031.51 1513.66 Q1037.32 1513.66 1040.37 1518.27 Q1043.45 1522.85 1043.45 1531.6 Q1043.45 1540.33 1040.37 1544.94 Q1037.32 1549.52 1031.51 1549.52 Q1025.7 1549.52 1022.62 1544.94 Q1019.56 1540.33 1019.56 1531.6 Q1019.56 1522.85 1022.62 1518.27 Q1025.7 1513.66 1031.51 1513.66 Z" fill="#000000" fill-rule="nonzero" fill-opacity="1" /><path clip-path="url(#clip520)" d="M1061.67 1517.37 Q1058.06 1517.37 1056.23 1520.93 Q1054.43 1524.47 1054.43 1531.6 Q1054.43 1538.71 1056.23 1542.27 Q1058.06 1545.82 1061.67 1545.82 Q1065.3 1545.82 1067.11 1542.27 Q1068.94 1538.71 1068.94 1531.6 Q1068.94 1524.47 1067.11 1520.93 Q1065.3 1517.37 1061.67 1517.37 M1061.67 1513.66 Q1067.48 1513.66 1070.54 1518.27 Q1073.62 1522.85 1073.62 1531.6 Q1073.62 1540.33 1070.54 1544.94 Q1067.48 1549.52 1061.67 1549.52 Q1055.86 1549.52 1052.78 1544.94 Q1049.73 1540.33 1049.73 1531.6 Q1049.73 1522.85 1052.78 1518.27 Q1055.86 1513.66 1061.67 1513.66 Z" fill="#000000" fill-rule="nonzero" fill-opacity="1" /><path clip-path="url(#clip520)" d="M1091.83 1517.37 Q1088.22 1517.37 1086.39 1520.93 Q1084.59 1524.47 1084.59 1531.6 Q1084.59 1538.71 1086.39 1542.27 Q1088.22 1545.82 1091.83 1545.82 Q1095.47 1545.82 1097.27 1542.27 Q1099.1 1538.71 1099.1 1531.6 Q1099.1 1524.47 1097.27 1520.93 Q1095.47 1517.37 1091.83 1517.37 M1091.83 1513.66 Q1097.64 1513.66 1100.7 1518.27 Q1103.78 1522.85 1103.78 1531.6 Q1103.78 1540.33 1100.7 1544.94 Q1097.64 1549.52 1091.83 1549.52 Q1086.02 1549.52 1082.94 1544.94 Q1079.89 1540.33 1079.89 1531.6 Q1079.89 1522.85 1082.94 1518.27 Q1086.02 1513.66 1091.83 1513.66 Z" fill="#000000" fill-rule="nonzero" fill-opacity="1" /><path clip-path="url(#clip520)" d="M1406.75 1544.91 L1414.39 1544.91 L1414.39 1518.55 L1406.08 1520.21 L1406.08 1515.95 L1414.35 1514.29 L1419.02 1514.29 L1419.02 1544.91 L1426.66 1544.91 L1426.66 1548.85 L1406.75 1548.85 L1406.75 1544.91 Z" fill="#000000" fill-rule="nonzero" fill-opacity="1" /><path clip-path="url(#clip520)" d="M1436.15 1514.29 L1454.51 1514.29 L1454.51 1518.22 L1440.43 1518.22 L1440.43 1526.7 Q1441.45 1526.35 1442.47 1526.19 Q1443.49 1526 1444.51 1526 Q1450.3 1526 1453.67 1529.17 Q1457.05 1532.34 1457.05 1537.76 Q1457.05 1543.34 1453.58 1546.44 Q1450.11 1549.52 1443.79 1549.52 Q1441.61 1549.52 1439.35 1549.15 Q1437.1 1548.78 1434.69 1548.04 L1434.69 1543.34 Q1436.78 1544.47 1439 1545.03 Q1441.22 1545.58 1443.7 1545.58 Q1447.7 1545.58 1450.04 1543.48 Q1452.38 1541.37 1452.38 1537.76 Q1452.38 1534.15 1450.04 1532.04 Q1447.7 1529.94 1443.7 1529.94 Q1441.82 1529.94 1439.95 1530.35 Q1438.1 1530.77 1436.15 1531.65 L1436.15 1514.29 Z" fill="#000000" fill-rule="nonzero" fill-opacity="1" /><path clip-path="url(#clip520)" d="M1476.27 1517.37 Q1472.66 1517.37 1470.83 1520.93 Q1469.02 1524.47 1469.02 1531.6 Q1469.02 1538.71 1470.83 1542.27 Q1472.66 1545.82 1476.27 1545.82 Q1479.9 1545.82 1481.71 1542.27 Q1483.54 1538.71 1483.54 1531.6 Q1483.54 1524.47 1481.71 1520.93 Q1479.9 1517.37 1476.27 1517.37 M1476.27 1513.66 Q1482.08 1513.66 1485.13 1518.27 Q1488.21 1522.85 1488.21 1531.6 Q1488.21 1540.33 1485.13 1544.94 Q1482.08 1549.52 1476.27 1549.52 Q1470.46 1549.52 1467.38 1544.94 Q1464.32 1540.33 1464.32 1531.6 Q1464.32 1522.85 1467.38 1518.27 Q1470.46 1513.66 1476.27 1513.66 Z" fill="#000000" fill-rule="nonzero" fill-opacity="1" /><path clip-path="url(#clip520)" d="M1506.43 1517.37 Q1502.82 1517.37 1500.99 1520.93 Q1499.18 1524.47 1499.18 1531.6 Q1499.18 1538.71 1500.99 1542.27 Q1502.82 1545.82 1506.43 1545.82 Q1510.06 1545.82 1511.87 1542.27 Q1513.7 1538.71 1513.7 1531.6 Q1513.7 1524.47 1511.87 1520.93 Q1510.06 1517.37 1506.43 1517.37 M1506.43 1513.66 Q1512.24 1513.66 1515.29 1518.27 Q1518.37 1522.85 1518.37 1531.6 Q1518.37 1540.33 1515.29 1544.94 Q1512.24 1549.52 1506.43 1549.52 Q1500.62 1549.52 1497.54 1544.94 Q1494.48 1540.33 1494.48 1531.6 Q1494.48 1522.85 1497.54 1518.27 Q1500.62 1513.66 1506.43 1513.66 Z" fill="#000000" fill-rule="nonzero" fill-opacity="1" /><path clip-path="url(#clip520)" d="M1825.44 1544.91 L1841.75 1544.91 L1841.75 1548.85 L1819.81 1548.85 L1819.81 1544.91 Q1822.47 1542.16 1827.06 1537.53 Q1831.66 1532.88 1832.84 1531.53 Q1835.09 1529.01 1835.97 1527.27 Q1836.87 1525.51 1836.87 1523.82 Q1836.87 1521.07 1834.93 1519.33 Q1833 1517.6 1829.9 1517.6 Q1827.7 1517.6 1825.25 1518.36 Q1822.82 1519.13 1820.04 1520.68 L1820.04 1515.95 Q1822.87 1514.82 1825.32 1514.24 Q1827.77 1513.66 1829.81 1513.66 Q1835.18 1513.66 1838.38 1516.35 Q1841.57 1519.03 1841.57 1523.52 Q1841.57 1525.65 1840.76 1527.57 Q1839.97 1529.47 1837.87 1532.07 Q1837.29 1532.74 1834.19 1535.95 Q1831.08 1539.15 1825.44 1544.91 Z" fill="#000000" fill-rule="nonzero" fill-opacity="1" /><path clip-path="url(#clip520)" d="M1861.57 1517.37 Q1857.96 1517.37 1856.13 1520.93 Q1854.32 1524.47 1854.32 1531.6 Q1854.32 1538.71 1856.13 1542.27 Q1857.96 1545.82 1861.57 1545.82 Q1865.2 1545.82 1867.01 1542.27 Q1868.84 1538.71 1868.84 1531.6 Q1868.84 1524.47 1867.01 1520.93 Q1865.2 1517.37 1861.57 1517.37 M1861.57 1513.66 Q1867.38 1513.66 1870.44 1518.27 Q1873.51 1522.85 1873.51 1531.6 Q1873.51 1540.33 1870.44 1544.94 Q1867.38 1549.52 1861.57 1549.52 Q1855.76 1549.52 1852.68 1544.94 Q1849.63 1540.33 1849.63 1531.6 Q1849.63 1522.85 1852.68 1518.27 Q1855.76 1513.66 1861.57 1513.66 Z" fill="#000000" fill-rule="nonzero" fill-opacity="1" /><path clip-path="url(#clip520)" d="M1891.73 1517.37 Q1888.12 1517.37 1886.29 1520.93 Q1884.49 1524.47 1884.49 1531.6 Q1884.49 1538.71 1886.29 1542.27 Q1888.12 1545.82 1891.73 1545.82 Q1895.37 1545.82 1897.17 1542.27 Q1899 1538.71 1899 1531.6 Q1899 1524.47 1897.17 1520.93 Q1895.37 1517.37 1891.73 1517.37 M1891.73 1513.66 Q1897.54 1513.66 1900.6 1518.27 Q1903.68 1522.85 1903.68 1531.6 Q1903.68 1540.33 1900.6 1544.94 Q1897.54 1549.52 1891.73 1549.52 Q1885.92 1549.52 1882.84 1544.94 Q1879.79 1540.33 1879.79 1531.6 Q1879.79 1522.85 1882.84 1518.27 Q1885.92 1513.66 1891.73 1513.66 Z" fill="#000000" fill-rule="nonzero" fill-opacity="1" /><path clip-path="url(#clip520)" d="M1921.89 1517.37 Q1918.28 1517.37 1916.45 1520.93 Q1914.65 1524.47 1914.65 1531.6 Q1914.65 1538.71 1916.45 1542.27 Q1918.28 1545.82 1921.89 1545.82 Q1925.53 1545.82 1927.33 1542.27 Q1929.16 1538.71 1929.16 1531.6 Q1929.16 1524.47 1927.33 1520.93 Q1925.53 1517.37 1921.89 1517.37 M1921.89 1513.66 Q1927.7 1513.66 1930.76 1518.27 Q1933.84 1522.85 1933.84 1531.6 Q1933.84 1540.33 1930.76 1544.94 Q1927.7 1549.52 1921.89 1549.52 Q1916.08 1549.52 1913 1544.94 Q1909.95 1540.33 1909.95 1531.6 Q1909.95 1522.85 1913 1518.27 Q1916.08 1513.66 1921.89 1513.66 Z" fill="#000000" fill-rule="nonzero" fill-opacity="1" /><path clip-path="url(#clip520)" d="M2240.03 1544.91 L2256.35 1544.91 L2256.35 1548.85 L2234.41 1548.85 L2234.41 1544.91 Q2237.07 1542.16 2241.65 1537.53 Q2246.26 1532.88 2247.44 1531.53 Q2249.68 1529.01 2250.56 1527.27 Q2251.47 1525.51 2251.47 1523.82 Q2251.47 1521.07 2249.52 1519.33 Q2247.6 1517.6 2244.5 1517.6 Q2242.3 1517.6 2239.85 1518.36 Q2237.42 1519.13 2234.64 1520.68 L2234.64 1515.95 Q2237.46 1514.82 2239.92 1514.24 Q2242.37 1513.66 2244.41 1513.66 Q2249.78 1513.66 2252.97 1516.35 Q2256.17 1519.03 2256.17 1523.52 Q2256.17 1525.65 2255.36 1527.57 Q2254.57 1529.47 2252.46 1532.07 Q2251.88 1532.74 2248.78 1535.95 Q2245.68 1539.15 2240.03 1544.91 Z" fill="#000000" fill-rule="nonzero" fill-opacity="1" /><path clip-path="url(#clip520)" d="M2266.21 1514.29 L2284.57 1514.29 L2284.57 1518.22 L2270.49 1518.22 L2270.49 1526.7 Q2271.51 1526.35 2272.53 1526.19 Q2273.55 1526 2274.57 1526 Q2280.36 1526 2283.74 1529.17 Q2287.11 1532.34 2287.11 1537.76 Q2287.11 1543.34 2283.64 1546.44 Q2280.17 1549.52 2273.85 1549.52 Q2271.68 1549.52 2269.41 1549.15 Q2267.16 1548.78 2264.75 1548.04 L2264.75 1543.34 Q2266.84 1544.47 2269.06 1545.03 Q2271.28 1545.58 2273.76 1545.58 Q2277.76 1545.58 2280.1 1543.48 Q2282.44 1541.37 2282.44 1537.76 Q2282.44 1534.15 2280.1 1532.04 Q2277.76 1529.94 2273.76 1529.94 Q2271.88 1529.94 2270.01 1530.35 Q2268.16 1530.77 2266.21 1531.65 L2266.21 1514.29 Z" fill="#000000" fill-rule="nonzero" fill-opacity="1" /><path clip-path="url(#clip520)" d="M2306.33 1517.37 Q2302.72 1517.37 2300.89 1520.93 Q2299.08 1524.47 2299.08 1531.6 Q2299.08 1538.71 2300.89 1542.27 Q2302.72 1545.82 2306.33 1545.82 Q2309.96 1545.82 2311.77 1542.27 Q2313.6 1538.71 2313.6 1531.6 Q2313.6 1524.47 2311.77 1520.93 Q2309.96 1517.37 2306.33 1517.37 M2306.33 1513.66 Q2312.14 1513.66 2315.19 1518.27 Q2318.27 1522.85 2318.27 1531.6 Q2318.27 1540.33 2315.19 1544.94 Q2312.14 1549.52 2306.33 1549.52 Q2300.52 1549.52 2297.44 1544.94 Q2294.38 1540.33 2294.38 1531.6 Q2294.38 1522.85 2297.44 1518.27 Q2300.52 1513.66 2306.33 1513.66 Z" fill="#000000" fill-rule="nonzero" fill-opacity="1" /><path clip-path="url(#clip520)" d="M2336.49 1517.37 Q2332.88 1517.37 2331.05 1520.93 Q2329.24 1524.47 2329.24 1531.6 Q2329.24 1538.71 2331.05 1542.27 Q2332.88 1545.82 2336.49 1545.82 Q2340.12 1545.82 2341.93 1542.27 Q2343.76 1538.71 2343.76 1531.6 Q2343.76 1524.47 2341.93 1520.93 Q2340.12 1517.37 2336.49 1517.37 M2336.49 1513.66 Q2342.3 1513.66 2345.36 1518.27 Q2348.43 1522.85 2348.43 1531.6 Q2348.43 1540.33 2345.36 1544.94 Q2342.3 1549.52 2336.49 1549.52 Q2330.68 1549.52 2327.6 1544.94 Q2324.55 1540.33 2324.55 1531.6 Q2324.55 1522.85 2327.6 1518.27 Q2330.68 1513.66 2336.49 1513.66 Z" fill="#000000" fill-rule="nonzero" fill-opacity="1" /><polyline clip-path="url(#clip522)" style="stroke:#000000; stroke-linecap:round; stroke-linejoin:round; stroke-width:2; stroke-opacity:0.1; fill:none" points="156.274,1248.94 2352.76,1248.94 "/>
<polyline clip-path="url(#clip522)" style="stroke:#000000; stroke-linecap:round; stroke-linejoin:round; stroke-width:2; stroke-opacity:0.1; fill:none" points="156.274,855.394 2352.76,855.394 "/>
<polyline clip-path="url(#clip522)" style="stroke:#000000; stroke-linecap:round; stroke-linejoin:round; stroke-width:2; stroke-opacity:0.1; fill:none" points="156.274,461.847 2352.76,461.847 "/>
<polyline clip-path="url(#clip522)" style="stroke:#000000; stroke-linecap:round; stroke-linejoin:round; stroke-width:2; stroke-opacity:0.1; fill:none" points="156.274,68.2989 2352.76,68.2989 "/>
<polyline clip-path="url(#clip520)" style="stroke:#000000; stroke-linecap:round; stroke-linejoin:round; stroke-width:4; stroke-opacity:1; fill:none" points="156.274,1486.45 156.274,47.2441 "/>
<polyline clip-path="url(#clip520)" style="stroke:#000000; stroke-linecap:round; stroke-linejoin:round; stroke-width:4; stroke-opacity:1; fill:none" points="156.274,1248.94 175.172,1248.94 "/>
<polyline clip-path="url(#clip520)" style="stroke:#000000; stroke-linecap:round; stroke-linejoin:round; stroke-width:4; stroke-opacity:1; fill:none" points="156.274,855.394 175.172,855.394 "/>
<polyline clip-path="url(#clip520)" style="stroke:#000000; stroke-linecap:round; stroke-linejoin:round; stroke-width:4; stroke-opacity:1; fill:none" points="156.274,461.847 175.172,461.847 "/>
<polyline clip-path="url(#clip520)" style="stroke:#000000; stroke-linecap:round; stroke-linejoin:round; stroke-width:4; stroke-opacity:1; fill:none" points="156.274,68.2989 175.172,68.2989 "/>
<path clip-path="url(#clip520)" d="M62.9365 1234.74 Q59.3254 1234.74 57.4967 1238.31 Q55.6912 1241.85 55.6912 1248.98 Q55.6912 1256.08 57.4967 1259.65 Q59.3254 1263.19 62.9365 1263.19 Q66.5707 1263.19 68.3763 1259.65 Q70.205 1256.08 70.205 1248.98 Q70.205 1241.85 68.3763 1238.31 Q66.5707 1234.74 62.9365 1234.74 M62.9365 1231.04 Q68.7467 1231.04 71.8022 1235.64 Q74.8809 1240.23 74.8809 1248.98 Q74.8809 1257.7 71.8022 1262.31 Q68.7467 1266.89 62.9365 1266.89 Q57.1264 1266.89 54.0477 1262.31 Q50.9921 1257.7 50.9921 1248.98 Q50.9921 1240.23 54.0477 1235.64 Q57.1264 1231.04 62.9365 1231.04 Z" fill="#000000" fill-rule="nonzero" fill-opacity="1" /><path clip-path="url(#clip520)" d="M83.0984 1260.34 L87.9827 1260.34 L87.9827 1266.22 L83.0984 1266.22 L83.0984 1260.34 Z" fill="#000000" fill-rule="nonzero" fill-opacity="1" /><path clip-path="url(#clip520)" d="M108.746 1247.08 Q105.598 1247.08 103.746 1249.23 Q101.918 1251.38 101.918 1255.13 Q101.918 1258.86 103.746 1261.04 Q105.598 1263.19 108.746 1263.19 Q111.895 1263.19 113.723 1261.04 Q115.575 1258.86 115.575 1255.13 Q115.575 1251.38 113.723 1249.23 Q111.895 1247.08 108.746 1247.08 M118.029 1232.43 L118.029 1236.68 Q116.27 1235.85 114.464 1235.41 Q112.682 1234.97 110.922 1234.97 Q106.293 1234.97 103.839 1238.1 Q101.409 1241.22 101.061 1247.54 Q102.427 1245.53 104.487 1244.46 Q106.547 1243.37 109.024 1243.37 Q114.233 1243.37 117.242 1246.55 Q120.274 1249.69 120.274 1255.13 Q120.274 1260.46 117.126 1263.68 Q113.978 1266.89 108.746 1266.89 Q102.751 1266.89 99.5798 1262.31 Q96.4085 1257.7 96.4085 1248.98 Q96.4085 1240.78 100.297 1235.92 Q104.186 1231.04 110.737 1231.04 Q112.496 1231.04 114.279 1231.38 Q116.084 1231.73 118.029 1232.43 Z" fill="#000000" fill-rule="nonzero" fill-opacity="1" /><path clip-path="url(#clip520)" d="M64.0013 841.193 Q60.3902 841.193 58.5615 844.758 Q56.756 848.299 56.756 855.429 Q56.756 862.535 58.5615 866.1 Q60.3902 869.642 64.0013 869.642 Q67.6356 869.642 69.4411 866.1 Q71.2698 862.535 71.2698 855.429 Q71.2698 848.299 69.4411 844.758 Q67.6356 841.193 64.0013 841.193 M64.0013 837.489 Q69.8115 837.489 72.867 842.096 Q75.9457 846.679 75.9457 855.429 Q75.9457 864.156 72.867 868.762 Q69.8115 873.345 64.0013 873.345 Q58.1912 873.345 55.1125 868.762 Q52.0569 864.156 52.0569 855.429 Q52.0569 846.679 55.1125 842.096 Q58.1912 837.489 64.0013 837.489 Z" fill="#000000" fill-rule="nonzero" fill-opacity="1" /><path clip-path="url(#clip520)" d="M84.1632 866.795 L89.0475 866.795 L89.0475 872.674 L84.1632 872.674 L84.1632 866.795 Z" fill="#000000" fill-rule="nonzero" fill-opacity="1" /><path clip-path="url(#clip520)" d="M98.0521 838.114 L120.274 838.114 L120.274 840.105 L107.728 872.674 L102.844 872.674 L114.649 842.049 L98.0521 842.049 L98.0521 838.114 Z" fill="#000000" fill-rule="nonzero" fill-opacity="1" /><path clip-path="url(#clip520)" d="M63.1911 447.645 Q59.58 447.645 57.7513 451.21 Q55.9458 454.752 55.9458 461.881 Q55.9458 468.988 57.7513 472.553 Q59.58 476.094 63.1911 476.094 Q66.8254 476.094 68.6309 472.553 Q70.4596 468.988 70.4596 461.881 Q70.4596 454.752 68.6309 451.21 Q66.8254 447.645 63.1911 447.645 M63.1911 443.942 Q69.0013 443.942 72.0568 448.548 Q75.1355 453.131 75.1355 461.881 Q75.1355 470.608 72.0568 475.215 Q69.0013 479.798 63.1911 479.798 Q57.381 479.798 54.3023 475.215 Q51.2468 470.608 51.2468 461.881 Q51.2468 453.131 54.3023 448.548 Q57.381 443.942 63.1911 443.942 Z" fill="#000000" fill-rule="nonzero" fill-opacity="1" /><path clip-path="url(#clip520)" d="M83.3531 473.247 L88.2373 473.247 L88.2373 479.127 L83.3531 479.127 L83.3531 473.247 Z" fill="#000000" fill-rule="nonzero" fill-opacity="1" /><path clip-path="url(#clip520)" d="M108.422 462.715 Q105.089 462.715 103.168 464.497 Q101.27 466.279 101.27 469.404 Q101.27 472.529 103.168 474.312 Q105.089 476.094 108.422 476.094 Q111.756 476.094 113.677 474.312 Q115.598 472.506 115.598 469.404 Q115.598 466.279 113.677 464.497 Q111.779 462.715 108.422 462.715 M103.746 460.724 Q100.737 459.983 99.0474 457.923 Q97.3808 455.863 97.3808 452.9 Q97.3808 448.756 100.321 446.349 Q103.284 443.942 108.422 443.942 Q113.584 443.942 116.524 446.349 Q119.464 448.756 119.464 452.9 Q119.464 455.863 117.774 457.923 Q116.108 459.983 113.121 460.724 Q116.501 461.511 118.376 463.803 Q120.274 466.094 120.274 469.404 Q120.274 474.428 117.195 477.113 Q114.14 479.798 108.422 479.798 Q102.705 479.798 99.6261 477.113 Q96.5706 474.428 96.5706 469.404 Q96.5706 466.094 98.4687 463.803 Q100.367 461.511 103.746 460.724 M102.034 453.34 Q102.034 456.025 103.7 457.529 Q105.39 459.034 108.422 459.034 Q111.432 459.034 113.121 457.529 Q114.834 456.025 114.834 453.34 Q114.834 450.654 113.121 449.15 Q111.432 447.645 108.422 447.645 Q105.39 447.645 103.7 449.15 Q102.034 450.654 102.034 453.34 Z" fill="#000000" fill-rule="nonzero" fill-opacity="1" /><path clip-path="url(#clip520)" d="M63.2837 54.0976 Q59.6726 54.0976 57.8439 57.6624 Q56.0384 61.204 56.0384 68.3336 Q56.0384 75.4401 57.8439 79.0049 Q59.6726 82.5465 63.2837 82.5465 Q66.918 82.5465 68.7235 79.0049 Q70.5522 75.4401 70.5522 68.3336 Q70.5522 61.204 68.7235 57.6624 Q66.918 54.0976 63.2837 54.0976 M63.2837 50.3939 Q69.0939 50.3939 72.1494 55.0004 Q75.2281 59.5837 75.2281 68.3336 Q75.2281 77.0604 72.1494 81.6669 Q69.0939 86.2502 63.2837 86.2502 Q57.4736 86.2502 54.3949 81.6669 Q51.3393 77.0604 51.3393 68.3336 Q51.3393 59.5837 54.3949 55.0004 Q57.4736 50.3939 63.2837 50.3939 Z" fill="#000000" fill-rule="nonzero" fill-opacity="1" /><path clip-path="url(#clip520)" d="M83.4457 79.6993 L88.3299 79.6993 L88.3299 85.5789 L83.4457 85.5789 L83.4457 79.6993 Z" fill="#000000" fill-rule="nonzero" fill-opacity="1" /><path clip-path="url(#clip520)" d="M98.6539 84.8613 L98.6539 80.6021 Q100.413 81.4354 102.219 81.8752 Q104.024 82.315 105.76 82.315 Q110.39 82.315 112.82 79.2132 Q115.274 76.0882 115.621 69.7456 Q114.279 71.7364 112.219 72.8012 Q110.158 73.866 107.658 73.866 Q102.473 73.866 99.4409 70.741 Q96.4317 67.5929 96.4317 62.1531 Q96.4317 56.829 99.5798 53.6115 Q102.728 50.3939 107.959 50.3939 Q113.955 50.3939 117.103 55.0004 Q120.274 59.5837 120.274 68.3336 Q120.274 76.5049 116.385 81.3891 Q112.52 86.2502 105.969 86.2502 Q104.209 86.2502 102.404 85.903 Q100.598 85.5557 98.6539 84.8613 M107.959 70.2086 Q111.108 70.2086 112.936 68.0558 Q114.788 65.9031 114.788 62.1531 Q114.788 58.4263 112.936 56.2735 Q111.108 54.0976 107.959 54.0976 Q104.811 54.0976 102.959 56.2735 Q101.131 58.4263 101.131 62.1531 Q101.131 65.9031 102.959 68.0558 Q104.811 70.2086 107.959 70.2086 Z" fill="#000000" fill-rule="nonzero" fill-opacity="1" /><polyline clip-path="url(#clip522)" style="stroke:#009af9; stroke-linecap:round; stroke-linejoin:round; stroke-width:4; stroke-opacity:1; fill:none" points="218.439,855.394 219.268,1150.55 220.097,1229.26 220.926,1209.59 221.756,1170.23 222.585,1071.85 223.414,1052.17 224.243,855.394 225.072,1091.52 225.901,953.781 226.731,855.394 227.56,1209.59 228.389,1071.85 229.218,1091.52 230.047,1012.81 230.877,993.136 231.706,875.072 232.535,816.039 233.364,1170.23 234.193,776.685 235.023,1386.68 235.852,757.007 236.681,1170.23 237.51,1052.17 238.339,1150.55 239.169,1032.49 239.998,796.362 240.827,1327.65 241.656,1189.91 242.485,1012.81 243.315,1012.81 244.144,914.426 244.973,1327.65 245.802,1367.01 246.631,1111.2 247.46,835.717 248.29,1130.88 249.119,914.426 249.948,1130.88 250.777,1150.55 251.606,973.459 252.436,1032.49 253.265,1386.68 254.094,993.136 254.923,1150.55 255.752,1248.94 256.582,1111.2 257.411,1071.85 258.24,1150.55 259.069,1071.85 259.898,1229.26 260.728,1091.52 261.557,1268.62 262.386,1071.85 263.215,1012.81 264.044,1268.62 264.874,1032.49 265.703,855.394 266.532,1091.52 267.361,953.781 268.19,1012.81 269.019,1111.2 269.849,1170.23 270.678,973.459 271.507,993.136 272.336,875.072 273.165,1091.52 273.995,855.394 274.824,993.136 275.653,1032.49 276.482,1032.49 277.311,1111.2 278.141,894.749 278.97,993.136 279.799,1150.55 280.628,953.781 281.457,953.781 282.287,993.136 283.116,1091.52 283.945,1012.81 284.774,1091.52 285.603,953.781 286.433,1209.59 287.262,1071.85 288.091,875.072 288.92,914.426 289.749,1307.97 290.579,934.104 291.408,1209.59 292.237,1032.49 293.066,1012.81 293.895,993.136 294.724,1209.59 295.554,1170.23 296.383,1150.55 297.212,1347.33 298.041,1012.81 298.87,855.394 299.7,993.136 300.529,1347.33 301.358,934.104 302.187,1071.85 303.016,1170.23 303.846,894.749 304.675,1170.23 305.504,835.717 306.333,1091.52 307.162,953.781 307.992,1189.91 308.821,894.749 309.65,1189.91 310.479,973.459 311.308,1052.17 312.138,1307.97 312.967,934.104 313.796,1111.2 314.625,1091.52 315.454,1091.52 316.283,973.459 317.113,835.717 317.942,1367.01 318.771,1091.52 319.6,835.717 320.429,1327.65 321.259,1327.65 322.088,1209.59 322.917,934.104 323.746,1012.81 324.575,1012.81 325.405,1052.17 326.234,816.039 327.063,894.749 327.892,973.459 328.721,1012.81 329.551,934.104 330.38,1012.81 331.209,1189.91 332.038,1130.88 332.867,1209.59 333.697,855.394 334.526,1012.81 335.355,1248.94 336.184,1150.55 337.013,894.749 337.842,934.104 338.672,1012.81 339.501,1012.81 340.33,993.136 341.159,1288.3 341.988,796.362 342.818,1012.81 343.647,1130.88 344.476,1032.49 345.305,894.749 346.134,776.685 346.964,875.072 347.793,993.136 348.622,1052.17 349.451,894.749 350.28,993.136 351.11,993.136 351.939,1130.88 352.768,1052.17 353.597,973.459 354.426,1091.52 355.256,1209.59 356.085,1071.85 356.914,1052.17 357.743,973.459 358.572,875.072 359.402,1170.23 360.231,1248.94 361.06,1091.52 361.889,894.749 362.718,1091.52 363.547,1111.2 364.377,1032.49 365.206,993.136 366.035,678.298 366.864,1032.49 367.693,1071.85 368.523,1091.52 369.352,1150.55 370.181,1012.81 371.01,1052.17 371.839,1189.91 372.669,1052.17 373.498,1130.88 374.327,953.781 375.156,1032.49 375.985,855.394 376.815,835.717 377.644,894.749 378.473,973.459 379.302,934.104 380.131,816.039 380.961,1268.62 381.79,1288.3 382.619,1229.26 383.448,875.072 384.277,1150.55 385.106,1032.49 385.936,1268.62 386.765,855.394 387.594,1111.2 388.423,776.685 389.252,894.749 390.082,1150.55 390.911,1071.85 391.74,1071.85 392.569,1012.81 393.398,1012.81 394.228,1170.23 395.057,1189.91 395.886,1229.26 396.715,875.072 397.544,1052.17 398.374,973.459 399.203,1150.55 400.032,953.781 400.861,1091.52 401.69,953.781 402.52,973.459 403.349,914.426 404.178,1052.17 405.007,1150.55 405.836,1189.91 406.665,1445.72 407.495,717.653 408.324,1150.55 409.153,1189.91 409.982,1170.23 410.811,953.781 411.641,1032.49 412.47,1248.94 413.299,1012.81 414.128,934.104 414.957,953.781 415.787,1091.52 416.616,973.459 417.445,1052.17 418.274,1091.52 419.103,1150.55 419.933,1189.91 420.762,1091.52 421.591,835.717 422.42,1209.59 423.249,1052.17 424.079,855.394 424.908,914.426 425.737,1012.81 426.566,1347.33 427.395,796.362 428.224,1268.62 429.054,1150.55 429.883,993.136 430.712,953.781 431.541,1150.55 432.37,934.104 433.2,1032.49 434.029,1032.49 434.858,1071.85 435.687,1071.85 436.516,776.685 437.346,1052.17 438.175,1012.81 439.004,835.717 439.833,875.072 440.662,1012.81 441.492,1012.81 442.321,855.394 443.15,914.426 443.979,993.136 444.808,1052.17 445.638,914.426 446.467,1012.81 447.296,993.136 448.125,1032.49 448.954,1032.49 449.784,1189.91 450.613,993.136 451.442,1032.49 452.271,1111.2 453.1,855.394 453.929,796.362 454.759,1209.59 455.588,1052.17 456.417,1032.49 457.246,796.362 458.075,1071.85 458.905,1012.81 459.734,993.136 460.563,914.426 461.392,1012.81 462.221,1229.26 463.051,757.007 463.88,1071.85 464.709,757.007 465.538,678.298 466.367,1209.59 467.197,1170.23 468.026,1111.2 468.855,855.394 469.684,1012.81 470.513,914.426 471.343,1012.81 472.172,894.749 473.001,776.685 473.83,855.394 474.659,1052.17 475.488,1288.3 476.318,855.394 477.147,1111.2 477.976,1091.52 478.805,1032.49 479.634,953.781 480.464,1111.2 481.293,934.104 482.122,1071.85 482.951,973.459 483.78,993.136 484.61,953.781 485.439,796.362 486.268,1229.26 487.097,1386.68 487.926,1052.17 488.756,875.072 489.585,816.039 490.414,914.426 491.243,894.749 492.072,1012.81 492.902,1091.52 493.731,993.136 494.56,1012.81 495.389,855.394 496.218,737.33 497.047,835.717 497.877,737.33 498.706,855.394 499.535,993.136 500.364,993.136 501.193,914.426 502.023,1091.52 502.852,1170.23 503.681,973.459 504.51,1170.23 505.339,953.781 506.169,1111.2 506.998,776.685 507.827,1071.85 508.656,1032.49 509.485,855.394 510.315,1032.49 511.144,1130.88 511.973,875.072 512.802,1012.81 513.631,1111.2 514.461,875.072 515.29,953.781 516.119,973.459 516.948,1209.59 517.777,1189.91 518.607,934.104 519.436,875.072 520.265,934.104 521.094,1052.17 521.923,1032.49 522.752,1071.85 523.582,953.781 524.411,579.911 525.24,1012.81 526.069,1091.52 526.898,697.975 527.728,1052.17 528.557,875.072 529.386,1268.62 530.215,993.136 531.044,875.072 531.874,1111.2 532.703,934.104 533.532,1012.81 534.361,757.007 535.19,855.394 536.02,697.975 536.849,796.362 537.678,894.749 538.507,1032.49 539.336,1111.2 540.166,638.943 540.995,1052.17 541.824,1012.81 542.653,855.394 543.482,1288.3 544.311,678.298 545.141,934.104 545.97,776.685 546.799,835.717 547.628,1012.81 548.457,875.072 549.287,1012.81 550.116,717.653 550.945,1052.17 551.774,1071.85 552.603,1032.49 553.433,1032.49 554.262,934.104 555.091,875.072 555.92,973.459 556.749,1111.2 557.579,796.362 558.408,1052.17 559.237,835.717 560.066,816.039 560.895,855.394 561.725,1012.81 562.554,835.717 563.383,914.426 564.212,855.394 565.041,993.136 565.87,796.362 566.7,953.781 567.529,835.717 568.358,993.136 569.187,1052.17 570.016,894.749 570.846,894.749 571.675,697.975 572.504,993.136 573.333,678.298 574.162,1032.49 574.992,1189.91 575.821,835.717 576.65,855.394 577.479,1091.52 578.308,1012.81 579.138,1052.17 579.967,737.33 580.796,1071.85 581.625,953.781 582.454,993.136 583.284,835.717 584.113,855.394 584.942,776.685 585.771,973.459 586.6,1111.2 587.429,894.749 588.259,757.007 589.088,894.749 589.917,953.781 590.746,1150.55 591.575,1091.52 592.405,1091.52 593.234,914.426 594.063,1032.49 594.892,953.781 595.721,973.459 596.551,1012.81 597.38,678.298 598.209,855.394 599.038,1170.23 599.867,1012.81 600.697,1111.2 601.526,678.298 602.355,1052.17 603.184,855.394 604.013,894.749 604.843,875.072 605.672,835.717 606.501,875.072 607.33,1091.52 608.159,914.426 608.989,776.685 609.818,796.362 610.647,835.717 611.476,953.781 612.305,894.749 613.134,1032.49 613.964,973.459 614.793,1032.49 615.622,835.717 616.451,737.33 617.28,993.136 618.11,737.33 618.939,1012.81 619.768,973.459 620.597,835.717 621.426,796.362 622.256,894.749 623.085,875.072 623.914,816.039 624.743,717.653 625.572,1130.88 626.402,1189.91 627.231,1071.85 628.06,894.749 628.889,737.33 629.718,894.749 630.548,816.039 631.377,816.039 632.206,796.362 633.035,953.781 633.864,894.749 634.693,1071.85 635.523,1150.55 636.352,973.459 637.181,993.136 638.01,934.104 638.839,697.975 639.669,875.072 640.498,914.426 641.327,914.426 642.156,934.104 642.985,993.136 643.815,914.426 644.644,855.394 645.473,894.749 646.302,875.072 647.131,894.749 647.961,1032.49 648.79,1052.17 649.619,894.749 650.448,835.717 651.277,697.975 652.107,776.685 652.936,914.426 653.765,1032.49 654.594,855.394 655.423,934.104 656.252,796.362 657.082,776.685 657.911,875.072 658.74,934.104 659.569,855.394 660.398,934.104 661.228,894.749 662.057,973.459 662.886,1052.17 663.715,993.136 664.544,934.104 665.374,875.072 666.203,855.394 667.032,796.362 667.861,914.426 668.69,816.039 669.52,757.007 670.349,894.749 671.178,934.104 672.007,796.362 672.836,1189.91 673.666,953.781 674.495,914.426 675.324,914.426 676.153,816.039 676.982,993.136 677.812,875.072 678.641,776.685 679.47,816.039 680.299,855.394 681.128,1111.2 681.957,1052.17 682.787,816.039 683.616,993.136 684.445,1012.81 685.274,875.072 686.103,796.362 686.933,757.007 687.762,1052.17 688.591,875.072 689.42,737.33 690.249,796.362 691.079,855.394 691.908,914.426 692.737,1012.81 693.566,697.975 694.395,875.072 695.225,835.717 696.054,697.975 696.883,914.426 697.712,737.33 698.541,658.62 699.371,855.394 700.2,816.039 701.029,1032.49 701.858,993.136 702.687,1091.52 703.516,737.33 704.346,796.362 705.175,599.588 706.004,1071.85 706.833,953.781 707.662,776.685 708.492,816.039 709.321,953.781 710.15,934.104 710.979,599.588 711.808,776.685 712.638,796.362 713.467,993.136 714.296,757.007 715.125,737.33 715.954,776.685 716.784,894.749 717.613,875.072 718.442,717.653 719.271,934.104 720.1,934.104 720.93,619.266 721.759,697.975 722.588,796.362 723.417,934.104 724.246,1012.81 725.075,1032.49 725.905,658.62 726.734,1012.81 727.563,1052.17 728.392,934.104 729.221,835.717 730.051,914.426 730.88,816.039 731.709,796.362 732.538,835.717 733.367,737.33 734.197,934.104 735.026,835.717 735.855,934.104 736.684,560.233 737.513,1170.23 738.343,894.749 739.172,855.394 740.001,914.426 740.83,875.072 741.659,579.911 742.489,796.362 743.318,934.104 744.147,934.104 744.976,835.717 745.805,934.104 746.634,973.459 747.464,855.394 748.293,816.039 749.122,993.136 749.951,993.136 750.78,1052.17 751.61,934.104 752.439,914.426 753.268,717.653 754.097,914.426 754.926,757.007 755.756,737.33 756.585,934.104 757.414,855.394 758.243,953.781 759.072,697.975 759.902,914.426 760.731,678.298 761.56,776.685 762.389,914.426 763.218,914.426 764.048,993.136 764.877,953.781 765.706,1032.49 766.535,914.426 767.364,678.298 768.194,875.072 769.023,737.33 769.852,1032.49 770.681,658.62 771.51,1052.17 772.339,855.394 773.169,1012.81 773.998,619.266 774.827,1052.17 775.656,914.426 776.485,757.007 777.315,973.459 778.144,757.007 778.973,796.362 779.802,717.653 780.631,796.362 781.461,816.039 782.29,855.394 783.119,914.426 783.948,737.33 784.777,953.781 785.607,796.362 786.436,697.975 787.265,993.136 788.094,796.362 788.923,973.459 789.753,953.781 790.582,835.717 791.411,855.394 792.24,835.717 793.069,658.62 793.898,776.685 794.728,757.007 795.557,776.685 796.386,658.62 797.215,855.394 798.044,855.394 798.874,993.136 799.703,737.33 800.532,993.136 801.361,934.104 802.19,737.33 803.02,993.136 803.849,717.653 804.678,914.426 805.507,914.426 806.336,894.749 807.166,875.072 807.995,934.104 808.824,697.975 809.653,796.362 810.482,599.588 811.312,737.33 812.141,757.007 812.97,875.072 813.799,835.717 814.628,757.007 815.457,855.394 816.287,776.685 817.116,678.298 817.945,953.781 818.774,855.394 819.603,757.007 820.433,855.394 821.262,875.072 822.091,776.685 822.92,697.975 823.749,717.653 824.579,894.749 825.408,737.33 826.237,737.33 827.066,835.717 827.895,894.749 828.725,875.072 829.554,1071.85 830.383,776.685 831.212,757.007 832.041,776.685 832.871,796.362 833.7,697.975 834.529,697.975 835.358,717.653 836.187,737.33 837.017,835.717 837.846,894.749 838.675,953.781 839.504,875.072 840.333,934.104 841.162,638.943 841.992,1012.81 842.821,894.749 843.65,796.362 844.479,855.394 845.308,934.104 846.138,894.749 846.967,638.943 847.796,816.039 848.625,717.653 849.454,737.33 850.284,1130.88 851.113,914.426 851.942,894.749 852.771,638.943 853.6,914.426 854.43,816.039 855.259,737.33 856.088,934.104 856.917,816.039 857.746,619.266 858.576,796.362 859.405,914.426 860.234,835.717 861.063,678.298 861.892,658.62 862.721,796.362 863.551,776.685 864.38,1071.85 865.209,560.233 866.038,619.266 866.867,953.781 867.697,914.426 868.526,894.749 869.355,953.781 870.184,894.749 871.013,914.426 871.843,776.685 872.672,757.007 873.501,776.685 874.33,638.943 875.159,953.781 875.989,934.104 876.818,875.072 877.647,697.975 878.476,658.62 879.305,1032.49 880.135,520.879 880.964,638.943 881.793,560.233 882.622,757.007 883.451,835.717 884.28,776.685 885.11,717.653 885.939,737.33 886.768,776.685 887.597,638.943 888.426,875.072 889.256,855.394 890.085,442.169 890.914,1012.81 891.743,875.072 892.572,619.266 893.402,796.362 894.231,757.007 895.06,894.749 895.889,776.685 896.718,717.653 897.548,835.717 898.377,678.298 899.206,816.039 900.035,737.33 900.864,934.104 901.694,737.33 902.523,855.394 903.352,973.459 904.181,953.781 905.01,579.911 905.839,757.007 906.669,757.007 907.498,737.33 908.327,678.298 909.156,737.33 909.985,757.007 910.815,934.104 911.644,697.975 912.473,934.104 913.302,894.749 914.131,816.039 914.961,796.362 915.79,894.749 916.619,579.911 917.448,717.653 918.277,835.717 919.107,520.879 919.936,796.362 920.765,855.394 921.594,619.266 922.423,717.653 923.253,560.233 924.082,776.685 924.911,835.717 925.74,953.781 926.569,776.685 927.399,875.072 928.228,855.394 929.057,757.007 929.886,934.104 930.715,855.394 931.544,658.62 932.374,697.975 933.203,717.653 934.032,717.653 934.861,776.685 935.69,796.362 936.52,678.298 937.349,717.653 938.178,619.266 939.007,501.201 939.836,875.072 940.666,520.879 941.495,855.394 942.324,816.039 943.153,697.975 943.982,658.62 944.812,816.039 945.641,855.394 946.47,658.62 947.299,678.298 948.128,678.298 948.958,776.685 949.787,619.266 950.616,658.62 951.445,796.362 952.274,678.298 953.103,638.943 953.933,757.007 954.762,737.33 955.591,638.943 956.42,717.653 957.249,599.588 958.079,599.588 958.908,579.911 959.737,934.104 960.566,461.847 961.395,599.588 962.225,757.007 963.054,697.975 963.883,914.426 964.712,776.685 965.541,816.039 966.371,501.201 967.2,619.266 968.029,855.394 968.858,579.911 969.687,776.685 970.517,638.943 971.346,914.426 972.175,757.007 973.004,678.298 973.833,638.943 974.662,619.266 975.492,481.524 976.321,855.394 977.15,678.298 977.979,875.072 978.808,776.685 979.638,855.394 980.467,855.394 981.296,1012.81 982.125,658.62 982.954,619.266 983.784,875.072 984.613,638.943 985.442,717.653 986.271,678.298 987.1,796.362 987.93,776.685 988.759,953.781 989.588,914.426 990.417,796.362 991.246,658.62 992.076,776.685 992.905,914.426 993.734,737.33 994.563,678.298 995.392,894.749 996.222,658.62 997.051,796.362 997.88,855.394 998.709,835.717 999.538,757.007 1000.37,757.007 1001.2,697.975 1002.03,619.266 1002.86,658.62 1003.68,875.072 1004.51,914.426 1005.34,816.039 1006.17,737.33 1007,697.975 1007.83,599.588 1008.66,953.781 1009.49,796.362 1010.32,816.039 1011.15,875.072 1011.98,422.492 1012.81,619.266 1013.63,757.007 1014.46,599.588 1015.29,894.749 1016.12,658.62 1016.95,678.298 1017.78,658.62 1018.61,914.426 1019.44,835.717 1020.27,796.362 1021.1,658.62 1021.93,835.717 1022.76,757.007 1023.58,442.169 1024.41,835.717 1025.24,737.33 1026.07,717.653 1026.9,855.394 1027.73,717.653 1028.56,796.362 1029.39,560.233 1030.22,619.266 1031.05,638.943 1031.88,776.685 1032.71,737.33 1033.54,717.653 1034.36,658.62 1035.19,520.879 1036.02,757.007 1036.85,855.394 1037.68,638.943 1038.51,796.362 1039.34,737.33 1040.17,678.298 1041,579.911 1041.83,757.007 1042.66,638.943 1043.49,776.685 1044.31,737.33 1045.14,658.62 1045.97,540.556 1046.8,875.072 1047.63,776.685 1048.46,717.653 1049.29,520.879 1050.12,697.975 1050.95,757.007 1051.78,638.943 1052.61,619.266 1053.44,757.007 1054.26,796.362 1055.09,717.653 1055.92,520.879 1056.75,776.685 1057.58,717.653 1058.41,658.62 1059.24,442.169 1060.07,835.717 1060.9,796.362 1061.73,461.847 1062.56,619.266 1063.39,816.039 1064.22,599.588 1065.04,717.653 1065.87,678.298 1066.7,875.072 1067.53,894.749 1068.36,638.943 1069.19,540.556 1070.02,717.653 1070.85,757.007 1071.68,304.427 1072.51,579.911 1073.34,776.685 1074.17,776.685 1074.99,383.137 1075.82,442.169 1076.65,816.039 1077.48,757.007 1078.31,796.362 1079.14,697.975 1079.97,1052.17 1080.8,816.039 1081.63,619.266 1082.46,717.653 1083.29,757.007 1084.12,678.298 1084.95,816.039 1085.77,757.007 1086.6,875.072 1087.43,619.266 1088.26,757.007 1089.09,816.039 1089.92,619.266 1090.75,619.266 1091.58,638.943 1092.41,914.426 1093.24,678.298 1094.07,717.653 1094.9,501.201 1095.72,875.072 1096.55,678.298 1097.38,796.362 1098.21,953.781 1099.04,540.556 1099.87,717.653 1100.7,501.201 1101.53,717.653 1102.36,599.588 1103.19,579.911 1104.02,737.33 1104.85,638.943 1105.67,757.007 1106.5,658.62 1107.33,579.911 1108.16,796.362 1108.99,757.007 1109.82,501.201 1110.65,737.33 1111.48,875.072 1112.31,619.266 1113.14,737.33 1113.97,737.33 1114.8,560.233 1115.63,717.653 1116.45,717.653 1117.28,678.298 1118.11,540.556 1118.94,796.362 1119.77,757.007 1120.6,717.653 1121.43,579.911 1122.26,697.975 1123.09,442.169 1123.92,737.33 1124.75,717.653 1125.58,520.879 1126.4,560.233 1127.23,599.588 1128.06,501.201 1128.89,697.975 1129.72,776.685 1130.55,678.298 1131.38,579.911 1132.21,678.298 1133.04,757.007 1133.87,757.007 1134.7,520.879 1135.53,638.943 1136.36,638.943 1137.18,658.62 1138.01,796.362 1138.84,560.233 1139.67,599.588 1140.5,757.007 1141.33,737.33 1142.16,697.975 1142.99,717.653 1143.82,678.298 1144.65,776.685 1145.48,579.911 1146.31,816.039 1147.13,717.653 1147.96,638.943 1148.79,658.62 1149.62,619.266 1150.45,638.943 1151.28,560.233 1152.11,678.298 1152.94,796.362 1153.77,757.007 1154.6,717.653 1155.43,776.685 1156.26,619.266 1157.08,757.007 1157.91,619.266 1158.74,737.33 1159.57,697.975 1160.4,697.975 1161.23,737.33 1162.06,638.943 1162.89,658.62 1163.72,835.717 1164.55,737.33 1165.38,638.943 1166.21,599.588 1167.04,579.911 1167.86,717.653 1168.69,757.007 1169.52,599.588 1170.35,520.879 1171.18,717.653 1172.01,560.233 1172.84,678.298 1173.67,678.298 1174.5,875.072 1175.33,855.394 1176.16,737.33 1176.99,796.362 1177.81,776.685 1178.64,737.33 1179.47,678.298 1180.3,737.33 1181.13,697.975 1181.96,461.847 1182.79,757.007 1183.62,579.911 1184.45,501.201 1185.28,816.039 1186.11,599.588 1186.94,678.298 1187.77,658.62 1188.59,461.847 1189.42,579.911 1190.25,757.007 1191.08,816.039 1191.91,501.201 1192.74,717.653 1193.57,737.33 1194.4,619.266 1195.23,717.653 1196.06,619.266 1196.89,796.362 1197.72,717.653 1198.54,835.717 1199.37,520.879 1200.2,658.62 1201.03,402.814 1201.86,520.879 1202.69,855.394 1203.52,737.33 1204.35,796.362 1205.18,737.33 1206.01,520.879 1206.84,678.298 1207.67,737.33 1208.49,619.266 1209.32,560.233 1210.15,717.653 1210.98,678.298 1211.81,678.298 1212.64,875.072 1213.47,678.298 1214.3,816.039 1215.13,678.298 1215.96,717.653 1216.79,560.233 1217.62,501.201 1218.45,481.524 1219.27,638.943 1220.1,540.556 1220.93,638.943 1221.76,697.975 1222.59,776.685 1223.42,678.298 1224.25,501.201 1225.08,579.911 1225.91,579.911 1226.74,619.266 1227.57,658.62 1228.4,697.975 1229.22,579.911 1230.05,501.201 1230.88,560.233 1231.71,678.298 1232.54,697.975 1233.37,343.782 1234.2,796.362 1235.03,599.588 1235.86,579.911 1236.69,658.62 1237.52,638.943 1238.35,579.911 1239.17,658.62 1240,599.588 1240.83,914.426 1241.66,658.62 1242.49,678.298 1243.32,757.007 1244.15,481.524 1244.98,540.556 1245.81,953.781 1246.64,560.233 1247.47,599.588 1248.3,638.943 1249.13,540.556 1249.95,717.653 1250.78,697.975 1251.61,560.233 1252.44,697.975 1253.27,501.201 1254.1,560.233 1254.93,835.717 1255.76,520.879 1256.59,638.943 1257.42,737.33 1258.25,697.975 1259.08,481.524 1259.9,501.201 1260.73,579.911 1261.56,619.266 1262.39,894.749 1263.22,481.524 1264.05,638.943 1264.88,501.201 1265.71,422.492 1266.54,678.298 1267.37,540.556 1268.2,678.298 1269.03,678.298 1269.86,658.62 1270.68,461.847 1271.51,422.492 1272.34,304.427 1273.17,697.975 1274,520.879 1274.83,481.524 1275.66,658.62 1276.49,540.556 1277.32,579.911 1278.15,599.588 1278.98,678.298 1279.81,953.781 1280.63,501.201 1281.46,579.911 1282.29,442.169 1283.12,816.039 1283.95,796.362 1284.78,717.653 1285.61,658.62 1286.44,658.62 1287.27,520.879 1288.1,697.975 1288.93,697.975 1289.76,638.943 1290.58,619.266 1291.41,461.847 1292.24,638.943 1293.07,520.879 1293.9,658.62 1294.73,540.556 1295.56,599.588 1296.39,481.524 1297.22,619.266 1298.05,678.298 1298.88,461.847 1299.71,520.879 1300.54,658.62 1301.36,835.717 1302.19,678.298 1303.02,658.62 1303.85,619.266 1304.68,481.524 1305.51,579.911 1306.34,658.62 1307.17,875.072 1308,560.233 1308.83,697.975 1309.66,619.266 1310.49,599.588 1311.31,540.556 1312.14,619.266 1312.97,520.879 1313.8,540.556 1314.63,599.588 1315.46,579.911 1316.29,599.588 1317.12,579.911 1317.95,599.588 1318.78,501.201 1319.61,737.33 1320.44,619.266 1321.27,737.33 1322.09,461.847 1322.92,520.879 1323.75,520.879 1324.58,540.556 1325.41,619.266 1326.24,776.685 1327.07,461.847 1327.9,619.266 1328.73,442.169 1329.56,383.137 1330.39,579.911 1331.22,757.007 1332.04,422.492 1332.87,442.169 1333.7,481.524 1334.53,678.298 1335.36,599.588 1336.19,501.201 1337.02,520.879 1337.85,520.879 1338.68,560.233 1339.51,697.975 1340.34,560.233 1341.17,560.233 1341.99,560.233 1342.82,461.847 1343.65,560.233 1344.48,599.588 1345.31,776.685 1346.14,619.266 1346.97,816.039 1347.8,776.685 1348.63,579.911 1349.46,402.814 1350.29,422.492 1351.12,520.879 1351.95,619.266 1352.77,402.814 1353.6,383.137 1354.43,599.588 1355.26,697.975 1356.09,442.169 1356.92,599.588 1357.75,560.233 1358.58,540.556 1359.41,442.169 1360.24,796.362 1361.07,501.201 1361.9,678.298 1362.72,757.007 1363.55,697.975 1364.38,638.943 1365.21,875.072 1366.04,422.492 1366.87,540.556 1367.7,776.685 1368.53,501.201 1369.36,658.62 1370.19,363.46 1371.02,520.879 1371.85,481.524 1372.67,599.588 1373.5,461.847 1374.33,697.975 1375.16,717.653 1375.99,638.943 1376.82,520.879 1377.65,619.266 1378.48,422.492 1379.31,540.556 1380.14,619.266 1380.97,678.298 1381.8,835.717 1382.63,579.911 1383.45,658.62 1384.28,638.943 1385.11,520.879 1385.94,540.556 1386.77,658.62 1387.6,697.975 1388.43,717.653 1389.26,461.847 1390.09,619.266 1390.92,481.524 1391.75,560.233 1392.58,619.266 1393.4,540.556 1394.23,619.266 1395.06,599.588 1395.89,579.911 1396.72,383.137 1397.55,402.814 1398.38,599.588 1399.21,520.879 1400.04,402.814 1400.87,520.879 1401.7,402.814 1402.53,658.62 1403.36,717.653 1404.18,383.137 1405.01,481.524 1405.84,363.46 1406.67,579.911 1407.5,638.943 1408.33,402.814 1409.16,304.427 1409.99,520.879 1410.82,324.105 1411.65,481.524 1412.48,638.943 1413.31,757.007 1414.13,461.847 1414.96,481.524 1415.79,501.201 1416.62,560.233 1417.45,402.814 1418.28,678.298 1419.11,422.492 1419.94,461.847 1420.77,658.62 1421.6,560.233 1422.43,599.588 1423.26,678.298 1424.08,402.814 1424.91,363.46 1425.74,481.524 1426.57,461.847 1427.4,461.847 1428.23,579.911 1429.06,579.911 1429.89,343.782 1430.72,422.492 1431.55,717.653 1432.38,579.911 1433.21,402.814 1434.04,501.201 1434.86,678.298 1435.69,560.233 1436.52,520.879 1437.35,619.266 1438.18,599.588 1439.01,520.879 1439.84,520.879 1440.67,363.46 1441.5,481.524 1442.33,579.911 1443.16,658.62 1443.99,619.266 1444.81,757.007 1445.64,520.879 1446.47,619.266 1447.3,560.233 1448.13,442.169 1448.96,383.137 1449.79,579.911 1450.62,461.847 1451.45,560.233 1452.28,501.201 1453.11,501.201 1453.94,442.169 1454.77,579.911 1455.59,560.233 1456.42,619.266 1457.25,520.879 1458.08,560.233 1458.91,599.588 1459.74,501.201 1460.57,717.653 1461.4,442.169 1462.23,619.266 1463.06,638.943 1463.89,579.911 1464.72,638.943 1465.54,658.62 1466.37,442.169 1467.2,520.879 1468.03,501.201 1468.86,816.039 1469.69,520.879 1470.52,560.233 1471.35,461.847 1472.18,717.653 1473.01,520.879 1473.84,383.137 1474.67,540.556 1475.49,697.975 1476.32,737.33 1477.15,697.975 1477.98,520.879 1478.81,461.847 1479.64,658.62 1480.47,697.975 1481.3,402.814 1482.13,461.847 1482.96,658.62 1483.79,540.556 1484.62,579.911 1485.45,540.556 1486.27,383.137 1487.1,579.911 1487.93,776.685 1488.76,619.266 1489.59,599.588 1490.42,284.75 1491.25,324.105 1492.08,619.266 1492.91,579.911 1493.74,599.588 1494.57,422.492 1495.4,481.524 1496.22,402.814 1497.05,501.201 1497.88,461.847 1498.71,579.911 1499.54,422.492 1500.37,206.041 1501.2,520.879 1502.03,520.879 1502.86,638.943 1503.69,619.266 1504.52,481.524 1505.35,579.911 1506.18,501.201 1507,422.492 1507.83,599.588 1508.66,422.492 1509.49,579.911 1510.32,619.266 1511.15,520.879 1511.98,599.588 1512.81,619.266 1513.64,560.233 1514.47,363.46 1515.3,520.879 1516.13,678.298 1516.95,402.814 1517.78,324.105 1518.61,383.137 1519.44,658.62 1520.27,520.879 1521.1,501.201 1521.93,481.524 1522.76,402.814 1523.59,717.653 1524.42,461.847 1525.25,461.847 1526.08,520.879 1526.9,520.879 1527.73,599.588 1528.56,461.847 1529.39,638.943 1530.22,442.169 1531.05,579.911 1531.88,501.201 1532.71,560.233 1533.54,324.105 1534.37,520.879 1535.2,520.879 1536.03,343.782 1536.86,461.847 1537.68,422.492 1538.51,481.524 1539.34,422.492 1540.17,638.943 1541,579.911 1541.83,619.266 1542.66,442.169 1543.49,579.911 1544.32,697.975 1545.15,422.492 1545.98,501.201 1546.81,422.492 1547.63,678.298 1548.46,383.137 1549.29,422.492 1550.12,481.524 1550.95,461.847 1551.78,402.814 1552.61,324.105 1553.44,619.266 1554.27,579.911 1555.1,501.201 1555.93,481.524 1556.76,422.492 1557.58,343.782 1558.41,324.105 1559.24,520.879 1560.07,599.588 1560.9,560.233 1561.73,579.911 1562.56,481.524 1563.39,520.879 1564.22,540.556 1565.05,540.556 1565.88,579.911 1566.71,363.46 1567.54,579.911 1568.36,501.201 1569.19,383.137 1570.02,343.782 1570.85,678.298 1571.68,402.814 1572.51,481.524 1573.34,461.847 1574.17,422.492 1575,402.814 1575.83,520.879 1576.66,520.879 1577.49,599.588 1578.31,481.524 1579.14,343.782 1579.97,461.847 1580.8,284.75 1581.63,343.782 1582.46,245.395 1583.29,697.975 1584.12,304.427 1584.95,383.137 1585.78,560.233 1586.61,461.847 1587.44,422.492 1588.27,540.556 1589.09,638.943 1589.92,461.847 1590.75,324.105 1591.58,422.492 1592.41,501.201 1593.24,619.266 1594.07,461.847 1594.9,363.46 1595.73,461.847 1596.56,520.879 1597.39,442.169 1598.22,461.847 1599.04,520.879 1599.87,442.169 1600.7,619.266 1601.53,540.556 1602.36,363.46 1603.19,638.943 1604.02,560.233 1604.85,422.492 1605.68,658.62 1606.51,461.847 1607.34,520.879 1608.17,481.524 1608.99,619.266 1609.82,481.524 1610.65,422.492 1611.48,383.137 1612.31,461.847 1613.14,402.814 1613.97,501.201 1614.8,658.62 1615.63,481.524 1616.46,402.814 1617.29,481.524 1618.12,225.718 1618.95,422.492 1619.77,501.201 1620.6,442.169 1621.43,481.524 1622.26,501.201 1623.09,343.782 1623.92,363.46 1624.75,442.169 1625.58,461.847 1626.41,501.201 1627.24,520.879 1628.07,678.298 1628.9,422.492 1629.72,442.169 1630.55,363.46 1631.38,619.266 1632.21,481.524 1633.04,422.492 1633.87,599.588 1634.7,284.75 1635.53,501.201 1636.36,520.879 1637.19,658.62 1638.02,619.266 1638.85,383.137 1639.68,501.201 1640.5,520.879 1641.33,737.33 1642.16,579.911 1642.99,461.847 1643.82,678.298 1644.65,560.233 1645.48,540.556 1646.31,560.233 1647.14,402.814 1647.97,402.814 1648.8,520.879 1649.63,540.556 1650.45,363.46 1651.28,520.879 1652.11,520.879 1652.94,363.46 1653.77,383.137 1654.6,619.266 1655.43,265.073 1656.26,343.782 1657.09,461.847 1657.92,442.169 1658.75,501.201 1659.58,461.847 1660.4,658.62 1661.23,560.233 1662.06,501.201 1662.89,697.975 1663.72,461.847 1664.55,619.266 1665.38,442.169 1666.21,638.943 1667.04,304.427 1667.87,520.879 1668.7,520.879 1669.53,245.395 1670.36,363.46 1671.18,461.847 1672.01,265.073 1672.84,560.233 1673.67,442.169 1674.5,383.137 1675.33,520.879 1676.16,461.847 1676.99,442.169 1677.82,638.943 1678.65,579.911 1679.48,501.201 1680.31,520.879 1681.13,520.879 1681.96,560.233 1682.79,284.75 1683.62,166.686 1684.45,520.879 1685.28,540.556 1686.11,560.233 1686.94,560.233 1687.77,717.653 1688.6,442.169 1689.43,363.46 1690.26,402.814 1691.08,481.524 1691.91,265.073 1692.74,540.556 1693.57,481.524 1694.4,442.169 1695.23,481.524 1696.06,481.524 1696.89,560.233 1697.72,461.847 1698.55,422.492 1699.38,481.524 1700.21,461.847 1701.04,638.943 1701.86,658.62 1702.69,383.137 1703.52,540.556 1704.35,481.524 1705.18,383.137 1706.01,560.233 1706.84,520.879 1707.67,481.524 1708.5,363.46 1709.33,501.201 1710.16,501.201 1710.99,540.556 1711.81,442.169 1712.64,481.524 1713.47,560.233 1714.3,383.137 1715.13,481.524 1715.96,599.588 1716.79,560.233 1717.62,560.233 1718.45,383.137 1719.28,343.782 1720.11,520.879 1720.94,599.588 1721.77,481.524 1722.59,619.266 1723.42,284.75 1724.25,402.814 1725.08,599.588 1725.91,560.233 1726.74,265.073 1727.57,324.105 1728.4,363.46 1729.23,461.847 1730.06,481.524 1730.89,540.556 1731.72,599.588 1732.54,225.718 1733.37,383.137 1734.2,560.233 1735.03,501.201 1735.86,540.556 1736.69,383.137 1737.52,579.911 1738.35,481.524 1739.18,579.911 1740.01,442.169 1740.84,540.556 1741.67,265.073 1742.49,717.653 1743.32,461.847 1744.15,619.266 1744.98,343.782 1745.81,225.718 1746.64,422.492 1747.47,520.879 1748.3,402.814 1749.13,540.556 1749.96,363.46 1750.79,638.943 1751.62,540.556 1752.45,383.137 1753.27,324.105 1754.1,442.169 1754.93,324.105 1755.76,540.556 1756.59,540.556 1757.42,520.879 1758.25,363.46 1759.08,442.169 1759.91,304.427 1760.74,540.556 1761.57,442.169 1762.4,383.137 1763.22,481.524 1764.05,402.814 1764.88,324.105 1765.71,461.847 1766.54,383.137 1767.37,383.137 1768.2,560.233 1769.03,422.492 1769.86,501.201 1770.69,520.879 1771.52,383.137 1772.35,284.75 1773.18,501.201 1774,442.169 1774.83,363.46 1775.66,560.233 1776.49,383.137 1777.32,383.137 1778.15,402.814 1778.98,599.588 1779.81,422.492 1780.64,501.201 1781.47,363.46 1782.3,638.943 1783.13,402.814 1783.95,284.75 1784.78,560.233 1785.61,442.169 1786.44,186.363 1787.27,284.75 1788.1,402.814 1788.93,540.556 1789.76,540.556 1790.59,265.073 1791.42,461.847 1792.25,442.169 1793.08,501.201 1793.9,343.782 1794.73,579.911 1795.56,383.137 1796.39,501.201 1797.22,422.492 1798.05,363.46 1798.88,422.492 1799.71,363.46 1800.54,383.137 1801.37,442.169 1802.2,383.137 1803.03,343.782 1803.86,284.75 1804.68,383.137 1805.51,186.363 1806.34,481.524 1807.17,619.266 1808,540.556 1808.83,324.105 1809.66,245.395 1810.49,363.46 1811.32,461.847 1812.15,383.137 1812.98,383.137 1813.81,206.041 1814.63,343.782 1815.46,540.556 1816.29,461.847 1817.12,520.879 1817.95,284.75 1818.78,402.814 1819.61,481.524 1820.44,324.105 1821.27,324.105 1822.1,304.427 1822.93,540.556 1823.76,363.46 1824.59,383.137 1825.41,383.137 1826.24,402.814 1827.07,422.492 1827.9,560.233 1828.73,324.105 1829.56,343.782 1830.39,225.718 1831.22,442.169 1832.05,343.782 1832.88,265.073 1833.71,678.298 1834.54,343.782 1835.36,206.041 1836.19,422.492 1837.02,442.169 1837.85,579.911 1838.68,324.105 1839.51,363.46 1840.34,304.427 1841.17,402.814 1842,501.201 1842.83,422.492 1843.66,461.847 1844.49,383.137 1845.31,363.46 1846.14,619.266 1846.97,343.782 1847.8,324.105 1848.63,540.556 1849.46,245.395 1850.29,658.62 1851.12,265.073 1851.95,206.041 1852.78,324.105 1853.61,481.524 1854.44,166.686 1855.27,540.556 1856.09,599.588 1856.92,324.105 1857.75,324.105 1858.58,343.782 1859.41,363.46 1860.24,481.524 1861.07,284.75 1861.9,442.169 1862.73,442.169 1863.56,402.814 1864.39,442.169 1865.22,599.588 1866.04,442.169 1866.87,324.105 1867.7,461.847 1868.53,363.46 1869.36,481.524 1870.19,402.814 1871.02,383.137 1871.85,284.75 1872.68,284.75 1873.51,304.427 1874.34,422.492 1875.17,383.137 1875.99,324.105 1876.82,520.879 1877.65,304.427 1878.48,402.814 1879.31,461.847 1880.14,422.492 1880.97,638.943 1881.8,245.395 1882.63,422.492 1883.46,442.169 1884.29,422.492 1885.12,422.492 1885.95,284.75 1886.77,343.782 1887.6,304.427 1888.43,363.46 1889.26,343.782 1890.09,304.427 1890.92,186.363 1891.75,560.233 1892.58,540.556 1893.41,560.233 1894.24,304.427 1895.07,442.169 1895.9,481.524 1896.72,284.75 1897.55,363.46 1898.38,383.137 1899.21,363.46 1900.04,461.847 1900.87,540.556 1901.7,422.492 1902.53,284.75 1903.36,461.847 1904.19,284.75 1905.02,402.814 1905.85,363.46 1906.68,265.073 1907.5,599.588 1908.33,265.073 1909.16,422.492 1909.99,599.588 1910.82,343.782 1911.65,402.814 1912.48,147.008 1913.31,540.556 1914.14,422.492 1914.97,363.46 1915.8,284.75 1916.63,678.298 1917.45,166.686 1918.28,461.847 1919.11,363.46 1919.94,147.008 1920.77,461.847 1921.6,343.782 1922.43,402.814 1923.26,520.879 1924.09,304.427 1924.92,619.266 1925.75,461.847 1926.58,402.814 1927.4,304.427 1928.23,265.073 1929.06,245.395 1929.89,579.911 1930.72,147.008 1931.55,107.654 1932.38,520.879 1933.21,324.105 1934.04,442.169 1934.87,579.911 1935.7,461.847 1936.53,481.524 1937.36,383.137 1938.18,501.201 1939.01,166.686 1939.84,481.524 1940.67,599.588 1941.5,166.686 1942.33,363.46 1943.16,422.492 1943.99,363.46 1944.82,324.105 1945.65,422.492 1946.48,501.201 1947.31,304.427 1948.13,599.588 1948.96,265.073 1949.79,343.782 1950.62,560.233 1951.45,107.654 1952.28,442.169 1953.11,284.75 1953.94,540.556 1954.77,225.718 1955.6,304.427 1956.43,245.395 1957.26,520.879 1958.09,304.427 1958.91,461.847 1959.74,461.847 1960.57,383.137 1961.4,363.46 1962.23,501.201 1963.06,540.556 1963.89,422.492 1964.72,304.427 1965.55,343.782 1966.38,324.105 1967.21,501.201 1968.04,501.201 1968.86,284.75 1969.69,383.137 1970.52,461.847 1971.35,284.75 1972.18,520.879 1973.01,599.588 1973.84,520.879 1974.67,461.847 1975.5,383.137 1976.33,206.041 1977.16,520.879 1977.99,284.75 1978.81,363.46 1979.64,304.427 1980.47,540.556 1981.3,343.782 1982.13,383.137 1982.96,324.105 1983.79,343.782 1984.62,402.814 1985.45,461.847 1986.28,442.169 1987.11,284.75 1987.94,461.847 1988.77,265.073 1989.59,363.46 1990.42,540.556 1991.25,324.105 1992.08,461.847 1992.91,402.814 1993.74,481.524 1994.57,265.073 1995.4,284.75 1996.23,284.75 1997.06,304.427 1997.89,383.137 1998.72,422.492 1999.54,481.524 2000.37,383.137 2001.2,304.427 2002.03,579.911 2002.86,363.46 2003.69,186.363 2004.52,363.46 2005.35,383.137 2006.18,265.073 2007.01,166.686 2007.84,402.814 2008.67,324.105 2009.49,363.46 2010.32,501.201 2011.15,343.782 2011.98,343.782 2012.81,245.395 2013.64,363.46 2014.47,304.427 2015.3,422.492 2016.13,324.105 2016.96,383.137 2017.79,284.75 2018.62,422.492 2019.45,245.395 2020.27,166.686 2021.1,383.137 2021.93,501.201 2022.76,304.427 2023.59,501.201 2024.42,383.137 2025.25,422.492 2026.08,402.814 2026.91,579.911 2027.74,560.233 2028.57,363.46 2029.4,225.718 2030.22,225.718 2031.05,343.782 2031.88,560.233 2032.71,461.847 2033.54,245.395 2034.37,520.879 2035.2,383.137 2036.03,520.879 2036.86,284.75 2037.69,245.395 2038.52,324.105 2039.35,304.427 2040.18,422.492 2041,402.814 2041.83,284.75 2042.66,363.46 2043.49,383.137 2044.32,343.782 2045.15,461.847 2045.98,304.427 2046.81,127.331 2047.64,461.847 2048.47,520.879 2049.3,265.073 2050.13,383.137 2050.95,324.105 2051.78,284.75 2052.61,520.879 2053.44,363.46 2054.27,127.331 2055.1,265.073 2055.93,265.073 2056.76,520.879 2057.59,245.395 2058.42,363.46 2059.25,304.427 2060.08,383.137 2060.9,343.782 2061.73,383.137 2062.56,324.105 2063.39,324.105 2064.22,206.041 2065.05,658.62 2065.88,324.105 2066.71,343.782 2067.54,383.137 2068.37,343.782 2069.2,363.46 2070.03,461.847 2070.86,481.524 2071.68,461.847 2072.51,540.556 2073.34,284.75 2074.17,422.492 2075,343.782 2075.83,461.847 2076.66,402.814 2077.49,343.782 2078.32,540.556 2079.15,461.847 2079.98,383.137 2080.81,324.105 2081.63,304.427 2082.46,206.041 2083.29,265.073 2084.12,304.427 2084.95,343.782 2085.78,265.073 2086.61,540.556 2087.44,304.427 2088.27,284.75 2089.1,304.427 2089.93,422.492 2090.76,402.814 2091.59,265.073 2092.41,540.556 2093.24,343.782 2094.07,324.105 2094.9,304.427 2095.73,225.718 2096.56,343.782 2097.39,304.427 2098.22,324.105 2099.05,265.073 2099.88,402.814 2100.71,245.395 2101.54,383.137 2102.36,284.75 2103.19,265.073 2104.02,166.686 2104.85,363.46 2105.68,383.137 2106.51,383.137 2107.34,442.169 2108.17,304.427 2109,324.105 2109.83,501.201 2110.66,324.105 2111.49,225.718 2112.31,206.041 2113.14,383.137 2113.97,147.008 2114.8,363.46 2115.63,245.395 2116.46,343.782 2117.29,324.105 2118.12,461.847 2118.95,540.556 2119.78,186.363 2120.61,363.46 2121.44,422.492 2122.27,383.137 2123.09,304.427 2123.92,363.46 2124.75,245.395 2125.58,363.46 2126.41,599.588 2127.24,225.718 2128.07,186.363 2128.9,383.137 2129.73,324.105 2130.56,442.169 2131.39,225.718 2132.22,343.782 2133.04,442.169 2133.87,402.814 2134.7,343.782 2135.53,304.427 2136.36,481.524 2137.19,501.201 2138.02,363.46 2138.85,324.105 2139.68,422.492 2140.51,422.492 2141.34,284.75 2142.17,363.46 2143,383.137 2143.82,304.427 2144.65,284.75 2145.48,343.782 2146.31,343.782 2147.14,383.137 2147.97,206.041 2148.8,304.427 2149.63,363.46 2150.46,324.105 2151.29,402.814 2152.12,442.169 2152.95,206.041 2153.77,284.75 2154.6,422.492 2155.43,284.75 2156.26,324.105 2157.09,166.686 2157.92,324.105 2158.75,363.46 2159.58,363.46 2160.41,206.041 2161.24,265.073 2162.07,225.718 2162.9,324.105 2163.72,284.75 2164.55,363.46 2165.38,461.847 2166.21,225.718 2167.04,225.718 2167.87,481.524 2168.7,245.395 2169.53,265.073 2170.36,186.363 2171.19,265.073 2172.02,579.911 2172.85,383.137 2173.68,422.492 2174.5,343.782 2175.33,343.782 2176.16,422.492 2176.99,324.105 2177.82,501.201 2178.65,422.492 2179.48,284.75 2180.31,363.46 2181.14,206.041 2181.97,206.041 2182.8,343.782 2183.63,383.137 2184.45,422.492 2185.28,304.427 2186.11,383.137 2186.94,363.46 2187.77,324.105 2188.6,481.524 2189.43,442.169 2190.26,363.46 2191.09,343.782 2191.92,343.782 2192.75,619.266 2193.58,186.363 2194.4,324.105 2195.23,284.75 2196.06,284.75 2196.89,225.718 2197.72,363.46 2198.55,304.427 2199.38,324.105 2200.21,520.879 2201.04,87.9763 2201.87,324.105 2202.7,304.427 2203.53,402.814 2204.36,225.718 2205.18,363.46 2206.01,363.46 2206.84,324.105 2207.67,442.169 2208.5,343.782 2209.33,481.524 2210.16,481.524 2210.99,442.169 2211.82,304.427 2212.65,304.427 2213.48,304.427 2214.31,186.363 2215.13,383.137 2215.96,127.331 2216.79,304.427 2217.62,245.395 2218.45,284.75 2219.28,245.395 2220.11,225.718 2220.94,442.169 2221.77,324.105 2222.6,206.041 2223.43,206.041 2224.26,422.492 2225.09,442.169 2225.91,166.686 2226.74,324.105 2227.57,225.718 2228.4,245.395 2229.23,343.782 2230.06,265.073 2230.89,520.879 2231.72,186.363 2232.55,206.041 2233.38,166.686 2234.21,304.427 2235.04,324.105 2235.86,206.041 2236.69,324.105 2237.52,265.073 2238.35,324.105 2239.18,442.169 2240.01,324.105 2240.84,461.847 2241.67,422.492 2242.5,402.814 2243.33,166.686 2244.16,245.395 2244.99,304.427 2245.81,540.556 2246.64,324.105 2247.47,304.427 2248.3,540.556 2249.13,284.75 2249.96,442.169 2250.79,324.105 2251.62,225.718 2252.45,186.363 2253.28,166.686 2254.11,304.427 2254.94,166.686 2255.77,442.169 2256.59,186.363 2257.42,265.073 2258.25,481.524 2259.08,206.041 2259.91,678.298 2260.74,245.395 2261.57,206.041 2262.4,383.137 2263.23,402.814 2264.06,245.395 2264.89,284.75 2265.72,383.137 2266.54,520.879 2267.37,363.46 2268.2,402.814 2269.03,245.395 2269.86,402.814 2270.69,540.556 2271.52,284.75 2272.35,540.556 2273.18,343.782 2274.01,284.75 2274.84,166.686 2275.67,245.395 2276.5,343.782 2277.32,304.427 2278.15,284.75 2278.98,147.008 2279.81,383.137 2280.64,599.588 2281.47,225.718 2282.3,225.718 2283.13,422.492 2283.96,383.137 2284.79,461.847 2285.62,284.75 2286.45,304.427 2287.27,225.718 2288.1,383.137 2288.93,245.395 2289.76,324.105 2290.59,343.782 "/>
<path clip-path="url(#clip520)" d="M229.49 198.898 L501.569 198.898 L501.569 95.2176 L229.49 95.2176  Z" fill="#ffffff" fill-rule="evenodd" fill-opacity="1"/>
<polyline clip-path="url(#clip520)" style="stroke:#000000; stroke-linecap:round; stroke-linejoin:round; stroke-width:4; stroke-opacity:1; fill:none" points="229.49,198.898 501.569,198.898 501.569,95.2176 229.49,95.2176 229.49,198.898 "/>
<polyline clip-path="url(#clip520)" style="stroke:#009af9; stroke-linecap:round; stroke-linejoin:round; stroke-width:4; stroke-opacity:1; fill:none" points="253.896,147.058 400.328,147.058 "/>
<path clip-path="url(#clip520)" d="M438.576 166.745 Q436.77 171.375 435.057 172.787 Q433.344 174.199 430.474 174.199 L427.071 174.199 L427.071 170.634 L429.571 170.634 Q431.33 170.634 432.302 169.8 Q433.275 168.967 434.455 165.865 L435.219 163.921 L424.733 138.412 L429.247 138.412 L437.349 158.689 L445.451 138.412 L449.964 138.412 L438.576 166.745 Z" fill="#000000" fill-rule="nonzero" fill-opacity="1" /><path clip-path="url(#clip520)" d="M457.256 160.402 L464.895 160.402 L464.895 134.037 L456.585 135.703 L456.585 131.444 L464.849 129.778 L469.524 129.778 L469.524 160.402 L477.163 160.402 L477.163 164.338 L457.256 164.338 L457.256 160.402 Z" fill="#000000" fill-rule="nonzero" fill-opacity="1" /></svg>
