<?xml version="1.0" encoding="utf-8"?>
<svg xmlns="http://www.w3.org/2000/svg" xmlns:xlink="http://www.w3.org/1999/xlink" width="600" height="400" viewBox="0 0 2400 1600">
<defs>
  <clipPath id="clip200">
    <rect x="0" y="0" width="2400" height="1600"/>
  </clipPath>
</defs>
<path clip-path="url(#clip200)" d="M0 1600 L2400 1600 L2400 0 L0 0  Z" fill="#ffffff" fill-rule="evenodd" fill-opacity="1"/>
<defs>
  <clipPath id="clip201">
    <rect x="480" y="0" width="1681" height="1600"/>
  </clipPath>
</defs>
<path clip-path="url(#clip200)" d="M201.019 1486.45 L2352.76 1486.45 L2352.76 47.2441 L201.019 47.2441  Z" fill="#ffffff" fill-rule="evenodd" fill-opacity="1"/>
<defs>
  <clipPath id="clip202">
    <rect x="201" y="47" width="2153" height="1440"/>
  </clipPath>
</defs>
<polyline clip-path="url(#clip202)" style="stroke:#000000; stroke-linecap:round; stroke-linejoin:round; stroke-width:2; stroke-opacity:0.1; fill:none" points="261.917,1486.45 261.917,47.2441 "/>
<polyline clip-path="url(#clip202)" style="stroke:#000000; stroke-linecap:round; stroke-linejoin:round; stroke-width:2; stroke-opacity:0.1; fill:none" points="769.403,1486.45 769.403,47.2441 "/>
<polyline clip-path="url(#clip202)" style="stroke:#000000; stroke-linecap:round; stroke-linejoin:round; stroke-width:2; stroke-opacity:0.1; fill:none" points="1276.89,1486.45 1276.89,47.2441 "/>
<polyline clip-path="url(#clip202)" style="stroke:#000000; stroke-linecap:round; stroke-linejoin:round; stroke-width:2; stroke-opacity:0.1; fill:none" points="1784.37,1486.45 1784.37,47.2441 "/>
<polyline clip-path="url(#clip202)" style="stroke:#000000; stroke-linecap:round; stroke-linejoin:round; stroke-width:2; stroke-opacity:0.1; fill:none" points="2291.86,1486.45 2291.86,47.2441 "/>
<polyline clip-path="url(#clip200)" style="stroke:#000000; stroke-linecap:round; stroke-linejoin:round; stroke-width:4; stroke-opacity:1; fill:none" points="201.019,1486.45 2352.76,1486.45 "/>
<polyline clip-path="url(#clip200)" style="stroke:#000000; stroke-linecap:round; stroke-linejoin:round; stroke-width:4; stroke-opacity:1; fill:none" points="261.917,1486.45 261.917,1467.55 "/>
<polyline clip-path="url(#clip200)" style="stroke:#000000; stroke-linecap:round; stroke-linejoin:round; stroke-width:4; stroke-opacity:1; fill:none" points="769.403,1486.45 769.403,1467.55 "/>
<polyline clip-path="url(#clip200)" style="stroke:#000000; stroke-linecap:round; stroke-linejoin:round; stroke-width:4; stroke-opacity:1; fill:none" points="1276.89,1486.45 1276.89,1467.55 "/>
<polyline clip-path="url(#clip200)" style="stroke:#000000; stroke-linecap:round; stroke-linejoin:round; stroke-width:4; stroke-opacity:1; fill:none" points="1784.37,1486.45 1784.37,1467.55 "/>
<polyline clip-path="url(#clip200)" style="stroke:#000000; stroke-linecap:round; stroke-linejoin:round; stroke-width:4; stroke-opacity:1; fill:none" points="2291.86,1486.45 2291.86,1467.55 "/>
<path clip-path="url(#clip200)" d="M261.917 1517.37 Q258.306 1517.37 256.478 1520.93 Q254.672 1524.47 254.672 1531.6 Q254.672 1538.71 256.478 1542.27 Q258.306 1545.82 261.917 1545.82 Q265.552 1545.82 267.357 1542.27 Q269.186 1538.71 269.186 1531.6 Q269.186 1524.47 267.357 1520.93 Q265.552 1517.37 261.917 1517.37 M261.917 1513.66 Q267.728 1513.66 270.783 1518.27 Q273.862 1522.85 273.862 1531.6 Q273.862 1540.33 270.783 1544.94 Q267.728 1549.52 261.917 1549.52 Q256.107 1549.52 253.029 1544.94 Q249.973 1540.33 249.973 1531.6 Q249.973 1522.85 253.029 1518.27 Q256.107 1513.66 261.917 1513.66 Z" fill="#000000" fill-rule="nonzero" fill-opacity="1" /><path clip-path="url(#clip200)" d="M729.021 1514.29 L747.377 1514.29 L747.377 1518.22 L733.303 1518.22 L733.303 1526.7 Q734.322 1526.35 735.34 1526.19 Q736.359 1526 737.377 1526 Q743.164 1526 746.544 1529.17 Q749.923 1532.34 749.923 1537.76 Q749.923 1543.34 746.451 1546.44 Q742.979 1549.52 736.66 1549.52 Q734.484 1549.52 732.215 1549.15 Q729.97 1548.78 727.562 1548.04 L727.562 1543.34 Q729.646 1544.47 731.868 1545.03 Q734.09 1545.58 736.567 1545.58 Q740.572 1545.58 742.91 1543.48 Q745.248 1541.37 745.248 1537.76 Q745.248 1534.15 742.91 1532.04 Q740.572 1529.94 736.567 1529.94 Q734.692 1529.94 732.817 1530.35 Q730.965 1530.77 729.021 1531.65 L729.021 1514.29 Z" fill="#000000" fill-rule="nonzero" fill-opacity="1" /><path clip-path="url(#clip200)" d="M769.136 1517.37 Q765.525 1517.37 763.697 1520.93 Q761.891 1524.47 761.891 1531.6 Q761.891 1538.71 763.697 1542.27 Q765.525 1545.82 769.136 1545.82 Q772.771 1545.82 774.576 1542.27 Q776.405 1538.71 776.405 1531.6 Q776.405 1524.47 774.576 1520.93 Q772.771 1517.37 769.136 1517.37 M769.136 1513.66 Q774.947 1513.66 778.002 1518.27 Q781.081 1522.85 781.081 1531.6 Q781.081 1540.33 778.002 1544.94 Q774.947 1549.52 769.136 1549.52 Q763.326 1549.52 760.248 1544.94 Q757.192 1540.33 757.192 1531.6 Q757.192 1522.85 760.248 1518.27 Q763.326 1513.66 769.136 1513.66 Z" fill="#000000" fill-rule="nonzero" fill-opacity="1" /><path clip-path="url(#clip200)" d="M799.298 1517.37 Q795.687 1517.37 793.858 1520.93 Q792.053 1524.47 792.053 1531.6 Q792.053 1538.71 793.858 1542.27 Q795.687 1545.82 799.298 1545.82 Q802.932 1545.82 804.738 1542.27 Q806.567 1538.71 806.567 1531.6 Q806.567 1524.47 804.738 1520.93 Q802.932 1517.37 799.298 1517.37 M799.298 1513.66 Q805.108 1513.66 808.164 1518.27 Q811.243 1522.85 811.243 1531.6 Q811.243 1540.33 808.164 1544.94 Q805.108 1549.52 799.298 1549.52 Q793.488 1549.52 790.409 1544.94 Q787.354 1540.33 787.354 1531.6 Q787.354 1522.85 790.409 1518.27 Q793.488 1513.66 799.298 1513.66 Z" fill="#000000" fill-rule="nonzero" fill-opacity="1" /><path clip-path="url(#clip200)" d="M1221.41 1544.91 L1229.05 1544.91 L1229.05 1518.55 L1220.74 1520.21 L1220.74 1515.95 L1229.01 1514.29 L1233.68 1514.29 L1233.68 1544.91 L1241.32 1544.91 L1241.32 1548.85 L1221.41 1548.85 L1221.41 1544.91 Z" fill="#000000" fill-rule="nonzero" fill-opacity="1" /><path clip-path="url(#clip200)" d="M1260.77 1517.37 Q1257.15 1517.37 1255.33 1520.93 Q1253.52 1524.47 1253.52 1531.6 Q1253.52 1538.71 1255.33 1542.27 Q1257.15 1545.82 1260.77 1545.82 Q1264.4 1545.82 1266.2 1542.27 Q1268.03 1538.71 1268.03 1531.6 Q1268.03 1524.47 1266.2 1520.93 Q1264.4 1517.37 1260.77 1517.37 M1260.77 1513.66 Q1266.58 1513.66 1269.63 1518.27 Q1272.71 1522.85 1272.71 1531.6 Q1272.71 1540.33 1269.63 1544.94 Q1266.58 1549.52 1260.77 1549.52 Q1254.95 1549.52 1251.88 1544.94 Q1248.82 1540.33 1248.82 1531.6 Q1248.82 1522.85 1251.88 1518.27 Q1254.95 1513.66 1260.77 1513.66 Z" fill="#000000" fill-rule="nonzero" fill-opacity="1" /><path clip-path="url(#clip200)" d="M1290.93 1517.37 Q1287.32 1517.37 1285.49 1520.93 Q1283.68 1524.47 1283.68 1531.6 Q1283.68 1538.71 1285.49 1542.27 Q1287.32 1545.82 1290.93 1545.82 Q1294.56 1545.82 1296.37 1542.27 Q1298.2 1538.71 1298.2 1531.6 Q1298.2 1524.47 1296.37 1520.93 Q1294.56 1517.37 1290.93 1517.37 M1290.93 1513.66 Q1296.74 1513.66 1299.79 1518.27 Q1302.87 1522.85 1302.87 1531.6 Q1302.87 1540.33 1299.79 1544.94 Q1296.74 1549.52 1290.93 1549.52 Q1285.12 1549.52 1282.04 1544.94 Q1278.98 1540.33 1278.98 1531.6 Q1278.98 1522.85 1282.04 1518.27 Q1285.12 1513.66 1290.93 1513.66 Z" fill="#000000" fill-rule="nonzero" fill-opacity="1" /><path clip-path="url(#clip200)" d="M1321.09 1517.37 Q1317.48 1517.37 1315.65 1520.93 Q1313.84 1524.47 1313.84 1531.6 Q1313.84 1538.71 1315.65 1542.27 Q1317.48 1545.82 1321.09 1545.82 Q1324.72 1545.82 1326.53 1542.27 Q1328.36 1538.71 1328.36 1531.6 Q1328.36 1524.47 1326.53 1520.93 Q1324.72 1517.37 1321.09 1517.37 M1321.09 1513.66 Q1326.9 1513.66 1329.95 1518.27 Q1333.03 1522.85 1333.03 1531.6 Q1333.03 1540.33 1329.95 1544.94 Q1326.9 1549.52 1321.09 1549.52 Q1315.28 1549.52 1312.2 1544.94 Q1309.14 1540.33 1309.14 1531.6 Q1309.14 1522.85 1312.2 1518.27 Q1315.28 1513.66 1321.09 1513.66 Z" fill="#000000" fill-rule="nonzero" fill-opacity="1" /><path clip-path="url(#clip200)" d="M1728.9 1544.91 L1736.54 1544.91 L1736.54 1518.55 L1728.23 1520.21 L1728.23 1515.95 L1736.49 1514.29 L1741.17 1514.29 L1741.17 1544.91 L1748.81 1544.91 L1748.81 1548.85 L1728.9 1548.85 L1728.9 1544.91 Z" fill="#000000" fill-rule="nonzero" fill-opacity="1" /><path clip-path="url(#clip200)" d="M1758.3 1514.29 L1776.65 1514.29 L1776.65 1518.22 L1762.58 1518.22 L1762.58 1526.7 Q1763.6 1526.35 1764.62 1526.19 Q1765.63 1526 1766.65 1526 Q1772.44 1526 1775.82 1529.17 Q1779.2 1532.34 1779.2 1537.76 Q1779.2 1543.34 1775.73 1546.44 Q1772.25 1549.52 1765.94 1549.52 Q1763.76 1549.52 1761.49 1549.15 Q1759.25 1548.78 1756.84 1548.04 L1756.84 1543.34 Q1758.92 1544.47 1761.14 1545.03 Q1763.37 1545.58 1765.84 1545.58 Q1769.85 1545.58 1772.19 1543.48 Q1774.52 1541.37 1774.52 1537.76 Q1774.52 1534.15 1772.19 1532.04 Q1769.85 1529.94 1765.84 1529.94 Q1763.97 1529.94 1762.09 1530.35 Q1760.24 1530.77 1758.3 1531.65 L1758.3 1514.29 Z" fill="#000000" fill-rule="nonzero" fill-opacity="1" /><path clip-path="url(#clip200)" d="M1798.41 1517.37 Q1794.8 1517.37 1792.97 1520.93 Q1791.17 1524.47 1791.17 1531.6 Q1791.17 1538.71 1792.97 1542.27 Q1794.8 1545.82 1798.41 1545.82 Q1802.05 1545.82 1803.85 1542.27 Q1805.68 1538.71 1805.68 1531.6 Q1805.68 1524.47 1803.85 1520.93 Q1802.05 1517.37 1798.41 1517.37 M1798.41 1513.66 Q1804.22 1513.66 1807.28 1518.27 Q1810.36 1522.85 1810.36 1531.6 Q1810.36 1540.33 1807.28 1544.94 Q1804.22 1549.52 1798.41 1549.52 Q1792.6 1549.52 1789.52 1544.94 Q1786.47 1540.33 1786.47 1531.6 Q1786.47 1522.85 1789.52 1518.27 Q1792.6 1513.66 1798.41 1513.66 Z" fill="#000000" fill-rule="nonzero" fill-opacity="1" /><path clip-path="url(#clip200)" d="M1828.57 1517.37 Q1824.96 1517.37 1823.13 1520.93 Q1821.33 1524.47 1821.33 1531.6 Q1821.33 1538.71 1823.13 1542.27 Q1824.96 1545.82 1828.57 1545.82 Q1832.21 1545.82 1834.01 1542.27 Q1835.84 1538.71 1835.84 1531.6 Q1835.84 1524.47 1834.01 1520.93 Q1832.21 1517.37 1828.57 1517.37 M1828.57 1513.66 Q1834.38 1513.66 1837.44 1518.27 Q1840.52 1522.85 1840.52 1531.6 Q1840.52 1540.33 1837.44 1544.94 Q1834.38 1549.52 1828.57 1549.52 Q1822.76 1549.52 1819.68 1544.94 Q1816.63 1540.33 1816.63 1531.6 Q1816.63 1522.85 1819.68 1518.27 Q1822.76 1513.66 1828.57 1513.66 Z" fill="#000000" fill-rule="nonzero" fill-opacity="1" /><path clip-path="url(#clip200)" d="M2240.47 1544.91 L2256.79 1544.91 L2256.79 1548.85 L2234.84 1548.85 L2234.84 1544.91 Q2237.51 1542.16 2242.09 1537.53 Q2246.7 1532.88 2247.88 1531.53 Q2250.12 1529.01 2251 1527.27 Q2251.9 1525.51 2251.9 1523.82 Q2251.9 1521.07 2249.96 1519.33 Q2248.04 1517.6 2244.94 1517.6 Q2242.74 1517.6 2240.28 1518.36 Q2237.85 1519.13 2235.08 1520.68 L2235.08 1515.95 Q2237.9 1514.82 2240.35 1514.24 Q2242.81 1513.66 2244.84 1513.66 Q2250.21 1513.66 2253.41 1516.35 Q2256.6 1519.03 2256.6 1523.52 Q2256.6 1525.65 2255.79 1527.57 Q2255.01 1529.47 2252.9 1532.07 Q2252.32 1532.74 2249.22 1535.95 Q2246.12 1539.15 2240.47 1544.91 Z" fill="#000000" fill-rule="nonzero" fill-opacity="1" /><path clip-path="url(#clip200)" d="M2276.6 1517.37 Q2272.99 1517.37 2271.16 1520.93 Q2269.36 1524.47 2269.36 1531.6 Q2269.36 1538.71 2271.16 1542.27 Q2272.99 1545.82 2276.6 1545.82 Q2280.24 1545.82 2282.04 1542.27 Q2283.87 1538.71 2283.87 1531.6 Q2283.87 1524.47 2282.04 1520.93 Q2280.24 1517.37 2276.6 1517.37 M2276.6 1513.66 Q2282.41 1513.66 2285.47 1518.27 Q2288.55 1522.85 2288.55 1531.6 Q2288.55 1540.33 2285.47 1544.94 Q2282.41 1549.52 2276.6 1549.52 Q2270.79 1549.52 2267.71 1544.94 Q2264.66 1540.33 2264.66 1531.6 Q2264.66 1522.85 2267.71 1518.27 Q2270.79 1513.66 2276.6 1513.66 Z" fill="#000000" fill-rule="nonzero" fill-opacity="1" /><path clip-path="url(#clip200)" d="M2306.77 1517.37 Q2303.15 1517.37 2301.33 1520.93 Q2299.52 1524.47 2299.52 1531.6 Q2299.52 1538.71 2301.33 1542.27 Q2303.15 1545.82 2306.77 1545.82 Q2310.4 1545.82 2312.2 1542.27 Q2314.03 1538.71 2314.03 1531.6 Q2314.03 1524.47 2312.2 1520.93 Q2310.4 1517.37 2306.77 1517.37 M2306.77 1513.66 Q2312.58 1513.66 2315.63 1518.27 Q2318.71 1522.85 2318.71 1531.6 Q2318.71 1540.33 2315.63 1544.94 Q2312.58 1549.52 2306.77 1549.52 Q2300.95 1549.52 2297.88 1544.94 Q2294.82 1540.33 2294.82 1531.6 Q2294.82 1522.85 2297.88 1518.27 Q2300.95 1513.66 2306.77 1513.66 Z" fill="#000000" fill-rule="nonzero" fill-opacity="1" /><path clip-path="url(#clip200)" d="M2336.93 1517.37 Q2333.32 1517.37 2331.49 1520.93 Q2329.68 1524.47 2329.68 1531.6 Q2329.68 1538.71 2331.49 1542.27 Q2333.32 1545.82 2336.93 1545.82 Q2340.56 1545.82 2342.37 1542.27 Q2344.2 1538.71 2344.2 1531.6 Q2344.2 1524.47 2342.37 1520.93 Q2340.56 1517.37 2336.93 1517.37 M2336.93 1513.66 Q2342.74 1513.66 2345.79 1518.27 Q2348.87 1522.85 2348.87 1531.6 Q2348.87 1540.33 2345.79 1544.94 Q2342.74 1549.52 2336.93 1549.52 Q2331.12 1549.52 2328.04 1544.94 Q2324.98 1540.33 2324.98 1531.6 Q2324.98 1522.85 2328.04 1518.27 Q2331.12 1513.66 2336.93 1513.66 Z" fill="#000000" fill-rule="nonzero" fill-opacity="1" /><polyline clip-path="url(#clip202)" style="stroke:#000000; stroke-linecap:round; stroke-linejoin:round; stroke-width:2; stroke-opacity:0.1; fill:none" points="201.019,1380.86 2352.76,1380.86 "/>
<polyline clip-path="url(#clip202)" style="stroke:#000000; stroke-linecap:round; stroke-linejoin:round; stroke-width:2; stroke-opacity:0.1; fill:none" points="201.019,1066.11 2352.76,1066.11 "/>
<polyline clip-path="url(#clip202)" style="stroke:#000000; stroke-linecap:round; stroke-linejoin:round; stroke-width:2; stroke-opacity:0.1; fill:none" points="201.019,751.367 2352.76,751.367 "/>
<polyline clip-path="url(#clip202)" style="stroke:#000000; stroke-linecap:round; stroke-linejoin:round; stroke-width:2; stroke-opacity:0.1; fill:none" points="201.019,436.621 2352.76,436.621 "/>
<polyline clip-path="url(#clip202)" style="stroke:#000000; stroke-linecap:round; stroke-linejoin:round; stroke-width:2; stroke-opacity:0.1; fill:none" points="201.019,121.876 2352.76,121.876 "/>
<polyline clip-path="url(#clip200)" style="stroke:#000000; stroke-linecap:round; stroke-linejoin:round; stroke-width:4; stroke-opacity:1; fill:none" points="201.019,1486.45 201.019,47.2441 "/>
<polyline clip-path="url(#clip200)" style="stroke:#000000; stroke-linecap:round; stroke-linejoin:round; stroke-width:4; stroke-opacity:1; fill:none" points="201.019,1380.86 219.917,1380.86 "/>
<polyline clip-path="url(#clip200)" style="stroke:#000000; stroke-linecap:round; stroke-linejoin:round; stroke-width:4; stroke-opacity:1; fill:none" points="201.019,1066.11 219.917,1066.11 "/>
<polyline clip-path="url(#clip200)" style="stroke:#000000; stroke-linecap:round; stroke-linejoin:round; stroke-width:4; stroke-opacity:1; fill:none" points="201.019,751.367 219.917,751.367 "/>
<polyline clip-path="url(#clip200)" style="stroke:#000000; stroke-linecap:round; stroke-linejoin:round; stroke-width:4; stroke-opacity:1; fill:none" points="201.019,436.621 219.917,436.621 "/>
<polyline clip-path="url(#clip200)" style="stroke:#000000; stroke-linecap:round; stroke-linejoin:round; stroke-width:4; stroke-opacity:1; fill:none" points="201.019,121.876 219.917,121.876 "/>
<path clip-path="url(#clip200)" d="M56.6171 1394.2 L72.9365 1394.2 L72.9365 1398.14 L50.9921 1398.14 L50.9921 1394.2 Q53.6541 1391.45 58.2375 1386.82 Q62.8439 1382.17 64.0245 1380.82 Q66.2698 1378.3 67.1494 1376.56 Q68.0522 1374.8 68.0522 1373.11 Q68.0522 1370.36 66.1078 1368.62 Q64.1865 1366.89 61.0847 1366.89 Q58.8856 1366.89 56.4319 1367.65 Q54.0014 1368.42 51.2236 1369.97 L51.2236 1365.24 Q54.0477 1364.11 56.5014 1363.53 Q58.955 1362.95 60.9921 1362.95 Q66.3624 1362.95 69.5568 1365.64 Q72.7513 1368.32 72.7513 1372.81 Q72.7513 1374.94 71.9411 1376.86 Q71.1541 1378.76 69.0476 1381.36 Q68.4689 1382.03 65.367 1385.24 Q62.2652 1388.44 56.6171 1394.2 Z" fill="#000000" fill-rule="nonzero" fill-opacity="1" /><path clip-path="url(#clip200)" d="M81.5707 1363.58 L103.793 1363.58 L103.793 1365.57 L91.2465 1398.14 L86.3623 1398.14 L98.1678 1367.51 L81.5707 1367.51 L81.5707 1363.58 Z" fill="#000000" fill-rule="nonzero" fill-opacity="1" /><path clip-path="url(#clip200)" d="M112.959 1363.58 L131.316 1363.58 L131.316 1367.51 L117.242 1367.51 L117.242 1375.98 Q118.26 1375.64 119.279 1375.48 Q120.297 1375.29 121.316 1375.29 Q127.103 1375.29 130.482 1378.46 Q133.862 1381.63 133.862 1387.05 Q133.862 1392.63 130.39 1395.73 Q126.918 1398.81 120.598 1398.81 Q118.422 1398.81 116.154 1398.44 Q113.908 1398.07 111.501 1397.33 L111.501 1392.63 Q113.584 1393.76 115.807 1394.32 Q118.029 1394.87 120.506 1394.87 Q124.51 1394.87 126.848 1392.77 Q129.186 1390.66 129.186 1387.05 Q129.186 1383.44 126.848 1381.33 Q124.51 1379.23 120.506 1379.23 Q118.631 1379.23 116.756 1379.64 Q114.904 1380.06 112.959 1380.94 L112.959 1363.58 Z" fill="#000000" fill-rule="nonzero" fill-opacity="1" /><path clip-path="url(#clip200)" d="M153.075 1366.66 Q149.464 1366.66 147.635 1370.22 Q145.83 1373.76 145.83 1380.89 Q145.83 1388 147.635 1391.56 Q149.464 1395.1 153.075 1395.1 Q156.709 1395.1 158.515 1391.56 Q160.343 1388 160.343 1380.89 Q160.343 1373.76 158.515 1370.22 Q156.709 1366.66 153.075 1366.66 M153.075 1362.95 Q158.885 1362.95 161.941 1367.56 Q165.019 1372.14 165.019 1380.89 Q165.019 1389.62 161.941 1394.23 Q158.885 1398.81 153.075 1398.81 Q147.265 1398.81 144.186 1394.23 Q141.131 1389.62 141.131 1380.89 Q141.131 1372.14 144.186 1367.56 Q147.265 1362.95 153.075 1362.95 Z" fill="#000000" fill-rule="nonzero" fill-opacity="1" /><path clip-path="url(#clip200)" d="M66.7559 1064.76 Q70.1124 1065.48 71.9874 1067.74 Q73.8855 1070.01 73.8855 1073.35 Q73.8855 1078.46 70.367 1081.26 Q66.8485 1084.06 60.3671 1084.06 Q58.1912 1084.06 55.8764 1083.62 Q53.5847 1083.21 51.131 1082.35 L51.131 1077.84 Q53.0754 1078.97 55.3903 1079.55 Q57.7051 1080.13 60.2282 1080.13 Q64.6263 1080.13 66.918 1078.39 Q69.2328 1076.66 69.2328 1073.35 Q69.2328 1070.29 67.08 1068.58 Q64.9504 1066.84 61.131 1066.84 L57.1032 1066.84 L57.1032 1063 L61.3161 1063 Q64.7652 1063 66.5939 1061.63 Q68.4226 1060.24 68.4226 1057.65 Q68.4226 1054.99 66.5245 1053.58 Q64.6495 1052.14 61.131 1052.14 Q59.2097 1052.14 57.0106 1052.56 Q54.8115 1052.98 52.1727 1053.86 L52.1727 1049.69 Q54.8347 1048.95 57.1495 1048.58 Q59.4875 1048.21 61.5476 1048.21 Q66.8717 1048.21 69.9735 1050.64 Q73.0753 1053.04 73.0753 1057.17 Q73.0753 1060.04 71.4318 1062.03 Q69.7883 1063.99 66.7559 1064.76 Z" fill="#000000" fill-rule="nonzero" fill-opacity="1" /><path clip-path="url(#clip200)" d="M92.7512 1051.91 Q89.1401 1051.91 87.3114 1055.48 Q85.5058 1059.02 85.5058 1066.15 Q85.5058 1073.25 87.3114 1076.82 Q89.1401 1080.36 92.7512 1080.36 Q96.3854 1080.36 98.1909 1076.82 Q100.02 1073.25 100.02 1066.15 Q100.02 1059.02 98.1909 1055.48 Q96.3854 1051.91 92.7512 1051.91 M92.7512 1048.21 Q98.5613 1048.21 101.617 1052.81 Q104.696 1057.4 104.696 1066.15 Q104.696 1074.87 101.617 1079.48 Q98.5613 1084.06 92.7512 1084.06 Q86.941 1084.06 83.8623 1079.48 Q80.8068 1074.87 80.8068 1066.15 Q80.8068 1057.4 83.8623 1052.81 Q86.941 1048.21 92.7512 1048.21 Z" fill="#000000" fill-rule="nonzero" fill-opacity="1" /><path clip-path="url(#clip200)" d="M122.913 1051.91 Q119.302 1051.91 117.473 1055.48 Q115.668 1059.02 115.668 1066.15 Q115.668 1073.25 117.473 1076.82 Q119.302 1080.36 122.913 1080.36 Q126.547 1080.36 128.353 1076.82 Q130.182 1073.25 130.182 1066.15 Q130.182 1059.02 128.353 1055.48 Q126.547 1051.91 122.913 1051.91 M122.913 1048.21 Q128.723 1048.21 131.779 1052.81 Q134.857 1057.4 134.857 1066.15 Q134.857 1074.87 131.779 1079.48 Q128.723 1084.06 122.913 1084.06 Q117.103 1084.06 114.024 1079.48 Q110.969 1074.87 110.969 1066.15 Q110.969 1057.4 114.024 1052.81 Q117.103 1048.21 122.913 1048.21 Z" fill="#000000" fill-rule="nonzero" fill-opacity="1" /><path clip-path="url(#clip200)" d="M153.075 1051.91 Q149.464 1051.91 147.635 1055.48 Q145.83 1059.02 145.83 1066.15 Q145.83 1073.25 147.635 1076.82 Q149.464 1080.36 153.075 1080.36 Q156.709 1080.36 158.515 1076.82 Q160.343 1073.25 160.343 1066.15 Q160.343 1059.02 158.515 1055.48 Q156.709 1051.91 153.075 1051.91 M153.075 1048.21 Q158.885 1048.21 161.941 1052.81 Q165.019 1057.4 165.019 1066.15 Q165.019 1074.87 161.941 1079.48 Q158.885 1084.06 153.075 1084.06 Q147.265 1084.06 144.186 1079.48 Q141.131 1074.87 141.131 1066.15 Q141.131 1057.4 144.186 1052.81 Q147.265 1048.21 153.075 1048.21 Z" fill="#000000" fill-rule="nonzero" fill-opacity="1" /><path clip-path="url(#clip200)" d="M66.7559 750.012 Q70.1124 750.73 71.9874 752.999 Q73.8855 755.267 73.8855 758.6 Q73.8855 763.716 70.367 766.517 Q66.8485 769.318 60.3671 769.318 Q58.1912 769.318 55.8764 768.878 Q53.5847 768.461 51.131 767.605 L51.131 763.091 Q53.0754 764.225 55.3903 764.804 Q57.7051 765.383 60.2282 765.383 Q64.6263 765.383 66.918 763.647 Q69.2328 761.911 69.2328 758.6 Q69.2328 755.545 67.08 753.832 Q64.9504 752.096 61.131 752.096 L57.1032 752.096 L57.1032 748.253 L61.3161 748.253 Q64.7652 748.253 66.5939 746.888 Q68.4226 745.499 68.4226 742.906 Q68.4226 740.244 66.5245 738.832 Q64.6495 737.397 61.131 737.397 Q59.2097 737.397 57.0106 737.813 Q54.8115 738.23 52.1727 739.11 L52.1727 734.943 Q54.8347 734.202 57.1495 733.832 Q59.4875 733.462 61.5476 733.462 Q66.8717 733.462 69.9735 735.892 Q73.0753 738.3 73.0753 742.42 Q73.0753 745.29 71.4318 747.281 Q69.7883 749.249 66.7559 750.012 Z" fill="#000000" fill-rule="nonzero" fill-opacity="1" /><path clip-path="url(#clip200)" d="M86.779 764.711 L103.098 764.711 L103.098 768.647 L81.154 768.647 L81.154 764.711 Q83.816 761.957 88.3993 757.327 Q93.0058 752.675 94.1863 751.332 Q96.4317 748.809 97.3113 747.073 Q98.2141 745.313 98.2141 743.624 Q98.2141 740.869 96.2697 739.133 Q94.3484 737.397 91.2465 737.397 Q89.0475 737.397 86.5938 738.161 Q84.1632 738.925 81.3855 740.476 L81.3855 735.753 Q84.2095 734.619 86.6632 734.04 Q89.1169 733.462 91.1539 733.462 Q96.5243 733.462 99.7187 736.147 Q102.913 738.832 102.913 743.323 Q102.913 745.452 102.103 747.374 Q101.316 749.272 99.2095 751.864 Q98.6308 752.536 95.5289 755.753 Q92.4271 758.948 86.779 764.711 Z" fill="#000000" fill-rule="nonzero" fill-opacity="1" /><path clip-path="url(#clip200)" d="M112.959 734.087 L131.316 734.087 L131.316 738.022 L117.242 738.022 L117.242 746.494 Q118.26 746.147 119.279 745.985 Q120.297 745.8 121.316 745.8 Q127.103 745.8 130.482 748.971 Q133.862 752.142 133.862 757.559 Q133.862 763.137 130.39 766.239 Q126.918 769.318 120.598 769.318 Q118.422 769.318 116.154 768.948 Q113.908 768.577 111.501 767.836 L111.501 763.137 Q113.584 764.272 115.807 764.827 Q118.029 765.383 120.506 765.383 Q124.51 765.383 126.848 763.276 Q129.186 761.17 129.186 757.559 Q129.186 753.948 126.848 751.841 Q124.51 749.735 120.506 749.735 Q118.631 749.735 116.756 750.151 Q114.904 750.568 112.959 751.448 L112.959 734.087 Z" fill="#000000" fill-rule="nonzero" fill-opacity="1" /><path clip-path="url(#clip200)" d="M153.075 737.165 Q149.464 737.165 147.635 740.73 Q145.83 744.272 145.83 751.401 Q145.83 758.508 147.635 762.073 Q149.464 765.614 153.075 765.614 Q156.709 765.614 158.515 762.073 Q160.343 758.508 160.343 751.401 Q160.343 744.272 158.515 740.73 Q156.709 737.165 153.075 737.165 M153.075 733.462 Q158.885 733.462 161.941 738.068 Q165.019 742.651 165.019 751.401 Q165.019 760.128 161.941 764.735 Q158.885 769.318 153.075 769.318 Q147.265 769.318 144.186 764.735 Q141.131 760.128 141.131 751.401 Q141.131 742.651 144.186 738.068 Q147.265 733.462 153.075 733.462 Z" fill="#000000" fill-rule="nonzero" fill-opacity="1" /><path clip-path="url(#clip200)" d="M66.7559 435.267 Q70.1124 435.985 71.9874 438.253 Q73.8855 440.522 73.8855 443.855 Q73.8855 448.971 70.367 451.772 Q66.8485 454.573 60.3671 454.573 Q58.1912 454.573 55.8764 454.133 Q53.5847 453.716 51.131 452.86 L51.131 448.346 Q53.0754 449.48 55.3903 450.059 Q57.7051 450.637 60.2282 450.637 Q64.6263 450.637 66.918 448.901 Q69.2328 447.165 69.2328 443.855 Q69.2328 440.8 67.08 439.087 Q64.9504 437.35 61.131 437.35 L57.1032 437.35 L57.1032 433.508 L61.3161 433.508 Q64.7652 433.508 66.5939 432.142 Q68.4226 430.753 68.4226 428.161 Q68.4226 425.499 66.5245 424.087 Q64.6495 422.651 61.131 422.651 Q59.2097 422.651 57.0106 423.068 Q54.8115 423.485 52.1727 424.364 L52.1727 420.198 Q54.8347 419.457 57.1495 419.087 Q59.4875 418.716 61.5476 418.716 Q66.8717 418.716 69.9735 421.147 Q73.0753 423.554 73.0753 427.675 Q73.0753 430.545 71.4318 432.536 Q69.7883 434.503 66.7559 435.267 Z" fill="#000000" fill-rule="nonzero" fill-opacity="1" /><path clip-path="url(#clip200)" d="M82.7975 419.341 L101.154 419.341 L101.154 423.276 L87.0799 423.276 L87.0799 431.749 Q88.0984 431.401 89.1169 431.239 Q90.1354 431.054 91.1539 431.054 Q96.941 431.054 100.321 434.225 Q103.7 437.397 103.7 442.813 Q103.7 448.392 100.228 451.494 Q96.7558 454.573 90.4364 454.573 Q88.2604 454.573 85.9919 454.202 Q83.7466 453.832 81.3392 453.091 L81.3392 448.392 Q83.4225 449.526 85.6447 450.082 Q87.8669 450.637 90.3438 450.637 Q94.3484 450.637 96.6863 448.531 Q99.0243 446.424 99.0243 442.813 Q99.0243 439.202 96.6863 437.096 Q94.3484 434.989 90.3438 434.989 Q88.4688 434.989 86.5938 435.406 Q84.7419 435.823 82.7975 436.702 L82.7975 419.341 Z" fill="#000000" fill-rule="nonzero" fill-opacity="1" /><path clip-path="url(#clip200)" d="M122.913 422.42 Q119.302 422.42 117.473 425.985 Q115.668 429.526 115.668 436.656 Q115.668 443.762 117.473 447.327 Q119.302 450.869 122.913 450.869 Q126.547 450.869 128.353 447.327 Q130.182 443.762 130.182 436.656 Q130.182 429.526 128.353 425.985 Q126.547 422.42 122.913 422.42 M122.913 418.716 Q128.723 418.716 131.779 423.323 Q134.857 427.906 134.857 436.656 Q134.857 445.383 131.779 449.989 Q128.723 454.573 122.913 454.573 Q117.103 454.573 114.024 449.989 Q110.969 445.383 110.969 436.656 Q110.969 427.906 114.024 423.323 Q117.103 418.716 122.913 418.716 Z" fill="#000000" fill-rule="nonzero" fill-opacity="1" /><path clip-path="url(#clip200)" d="M153.075 422.42 Q149.464 422.42 147.635 425.985 Q145.83 429.526 145.83 436.656 Q145.83 443.762 147.635 447.327 Q149.464 450.869 153.075 450.869 Q156.709 450.869 158.515 447.327 Q160.343 443.762 160.343 436.656 Q160.343 429.526 158.515 425.985 Q156.709 422.42 153.075 422.42 M153.075 418.716 Q158.885 418.716 161.941 423.323 Q165.019 427.906 165.019 436.656 Q165.019 445.383 161.941 449.989 Q158.885 454.573 153.075 454.573 Q147.265 454.573 144.186 449.989 Q141.131 445.383 141.131 436.656 Q141.131 427.906 144.186 423.323 Q147.265 418.716 153.075 418.716 Z" fill="#000000" fill-rule="nonzero" fill-opacity="1" /><path clip-path="url(#clip200)" d="M66.7559 120.522 Q70.1124 121.239 71.9874 123.508 Q73.8855 125.776 73.8855 129.11 Q73.8855 134.225 70.367 137.026 Q66.8485 139.827 60.3671 139.827 Q58.1912 139.827 55.8764 139.387 Q53.5847 138.971 51.131 138.114 L51.131 133.6 Q53.0754 134.735 55.3903 135.313 Q57.7051 135.892 60.2282 135.892 Q64.6263 135.892 66.918 134.156 Q69.2328 132.42 69.2328 129.11 Q69.2328 126.054 67.08 124.341 Q64.9504 122.605 61.131 122.605 L57.1032 122.605 L57.1032 118.763 L61.3161 118.763 Q64.7652 118.763 66.5939 117.397 Q68.4226 116.008 68.4226 113.415 Q68.4226 110.753 66.5245 109.341 Q64.6495 107.906 61.131 107.906 Q59.2097 107.906 57.0106 108.323 Q54.8115 108.739 52.1727 109.619 L52.1727 105.452 Q54.8347 104.712 57.1495 104.341 Q59.4875 103.971 61.5476 103.971 Q66.8717 103.971 69.9735 106.401 Q73.0753 108.809 73.0753 112.929 Q73.0753 115.8 71.4318 117.79 Q69.7883 119.758 66.7559 120.522 Z" fill="#000000" fill-rule="nonzero" fill-opacity="1" /><path clip-path="url(#clip200)" d="M81.5707 104.596 L103.793 104.596 L103.793 106.587 L91.2465 139.156 L86.3623 139.156 L98.1678 108.531 L81.5707 108.531 L81.5707 104.596 Z" fill="#000000" fill-rule="nonzero" fill-opacity="1" /><path clip-path="url(#clip200)" d="M112.959 104.596 L131.316 104.596 L131.316 108.531 L117.242 108.531 L117.242 117.003 Q118.26 116.656 119.279 116.494 Q120.297 116.309 121.316 116.309 Q127.103 116.309 130.482 119.48 Q133.862 122.651 133.862 128.068 Q133.862 133.647 130.39 136.749 Q126.918 139.827 120.598 139.827 Q118.422 139.827 116.154 139.457 Q113.908 139.086 111.501 138.346 L111.501 133.647 Q113.584 134.781 115.807 135.337 Q118.029 135.892 120.506 135.892 Q124.51 135.892 126.848 133.786 Q129.186 131.679 129.186 128.068 Q129.186 124.457 126.848 122.35 Q124.51 120.244 120.506 120.244 Q118.631 120.244 116.756 120.661 Q114.904 121.077 112.959 121.957 L112.959 104.596 Z" fill="#000000" fill-rule="nonzero" fill-opacity="1" /><path clip-path="url(#clip200)" d="M153.075 107.675 Q149.464 107.675 147.635 111.239 Q145.83 114.781 145.83 121.911 Q145.83 129.017 147.635 132.582 Q149.464 136.124 153.075 136.124 Q156.709 136.124 158.515 132.582 Q160.343 129.017 160.343 121.911 Q160.343 114.781 158.515 111.239 Q156.709 107.675 153.075 107.675 M153.075 103.971 Q158.885 103.971 161.941 108.577 Q165.019 113.161 165.019 121.911 Q165.019 130.637 161.941 135.244 Q158.885 139.827 153.075 139.827 Q147.265 139.827 144.186 135.244 Q141.131 130.637 141.131 121.911 Q141.131 113.161 144.186 108.577 Q147.265 103.971 153.075 103.971 Z" fill="#000000" fill-rule="nonzero" fill-opacity="1" /><polyline clip-path="url(#clip202)" style="stroke:#009af9; stroke-linecap:round; stroke-linejoin:round; stroke-width:4; stroke-opacity:1; fill:none" points="261.917,610.658 262.932,611.159 263.947,544.467 264.962,544.803 265.977,353.844 266.992,353.995 268.007,659.819 269.022,660.155 270.037,262.113 271.052,262.668 272.067,577.664 273.082,577.799 274.097,236.92 275.112,237.494 276.127,291.248 277.142,291.508 278.157,721.411 279.172,721.856 280.187,505.053 281.202,505.794 282.217,457.284 283.232,457.359 284.247,582.942 285.262,583.061 286.277,263.308 287.292,263.739 288.307,500.764 289.322,501.009 290.337,410.891 291.352,411.247 292.367,411.406 293.382,412.202 294.397,242.055 295.412,242.432 296.426,372.315 297.441,372.629 298.456,225.347 299.471,226.085 300.486,317.741 301.501,317.992 302.516,424.396 303.531,425.064 304.546,644.064 305.561,644.445 306.576,548.399 307.591,548.823 308.606,365.434 309.621,366.171 310.636,373.466 311.651,373.572 312.666,319.91 313.681,320.53 314.696,333.922 315.711,334.423 316.726,430.761 317.741,430.992 318.756,642.487 319.771,643.129 320.786,430.548 321.801,430.891 322.816,442.185 323.831,442.23 324.846,458.062 325.861,458.22 326.876,464.933 327.891,464.961 328.906,567.382 329.92,567.907 330.935,593.819 331.95,593.901 332.965,283.279 333.98,283.593 334.995,242.729 336.01,242.959 337.025,369.365 338.04,369.986 339.055,387.601 340.07,387.754 341.085,431.234 342.1,431.36 343.115,439.897 344.13,439.93 345.145,756.975 346.16,758.245 347.175,179.484 348.19,180.417 349.205,241.995 350.22,242.519 351.235,498.31 352.25,498.642 353.265,370.38 354.28,370.742 355.295,365.269 356.31,365.506 357.325,365.777 358.34,365.928 359.355,318.494 360.37,318.693 361.385,471.911 362.4,472.815 363.415,429.473 364.429,429.642 365.444,352.445 366.459,352.595 367.474,424.844 368.489,425.591 369.504,364.9 370.519,365.245 371.534,258.288 372.549,258.76 373.564,338.131 374.579,338.496 375.594,164.995 376.609,166.364 377.624,580.004 378.639,580.872 379.654,696.718 380.669,697.531 381.684,218.231 382.699,218.851 383.714,192.817 384.729,193.137 385.744,413.044 386.759,413.088 387.774,486.447 388.789,486.6 389.804,177.795 390.819,178.407 391.834,162.669 392.849,163.094 393.864,198.128 394.879,198.617 395.894,468.741 396.909,469.022 397.923,371.442 398.938,371.547 399.953,242.029 400.968,242.204 401.983,292.072 402.998,292.163 404.013,332.919 405.028,333.207 406.043,348.308 407.058,348.585 408.073,337.084 409.088,337.109 410.103,178.579 411.118,179.27 412.133,87.9763 413.148,88.3712 414.163,472.849 415.178,473.845 416.193,350.444 417.208,350.781 418.223,215.852 419.238,215.978 420.253,446.198 421.268,446.532 422.283,563.151 423.298,563.638 424.313,558.196 425.328,558.615 426.343,201.319 427.358,202.064 428.373,532.915 429.388,533.219 430.403,384.698 431.418,384.841 432.432,601.617 433.447,602.076 434.462,364.352 435.477,364.654 436.492,600.86 437.507,601.293 438.522,653.98 439.537,654.601 440.552,483.579 441.567,483.83 442.582,558.597 443.597,559.748 444.612,542.844 445.627,543.251 446.642,407.693 447.657,407.924 448.672,365.013 449.687,365.409 450.702,452.608 451.717,453.632 452.732,379.57 453.747,379.804 454.762,390.624 455.777,391.143 456.792,503.367 457.807,503.878 458.822,570.55 459.837,570.864 460.852,302.354 461.867,302.637 462.882,371.096 463.897,371.385 464.912,160.377 465.926,161.121 466.941,249.301 467.956,250.904 468.971,401.876 469.986,402.218 471.001,590.297 472.016,591.022 473.031,421.924 474.046,422.31 475.061,534.553 476.076,534.701 477.091,677.027 478.106,677.44 479.121,631.357 480.136,631.746 481.151,429.26 482.166,429.79 483.181,429.461 484.196,429.884 485.211,555.935 486.226,555.98 487.241,486.054 488.256,486.457 489.271,617.935 490.286,618.279 491.301,633.88 492.316,634.046 493.331,613.534 494.346,613.985 495.361,658.14 496.376,658.298 497.391,671.868 498.406,672.146 499.421,529.734 500.435,529.939 501.45,519.633 502.465,520.061 503.48,533.645 504.495,533.726 505.51,974.267 506.525,975.348 507.54,573.792 508.555,574.095 509.57,609.929 510.585,610.208 511.6,423.119 512.615,423.511 513.63,441.541 514.645,441.81 515.66,552.738 516.675,552.93 517.69,884.318 518.705,884.986 519.72,799.168 520.735,799.745 521.75,786.796 522.765,786.903 523.78,553.075 524.795,553.872 525.81,797.11 526.825,797.496 527.84,709.249 528.855,709.321 529.87,759.318 530.885,759.449 531.9,502.065 532.915,502.915 533.929,700.221 534.944,700.678 535.959,478.549 536.974,479.075 537.989,639.371 539.004,639.992 540.019,613.713 541.034,613.877 542.049,549.759 543.064,550.168 544.079,639.945 545.094,640.404 546.109,502.974 547.124,503.534 548.139,779.334 549.154,779.823 550.169,466.038 551.184,466.252 552.199,764.691 553.214,765.192 554.229,578.978 555.244,579.549 556.259,459.16 557.274,459.614 558.289,860.707 559.304,861.498 560.319,404.193 561.334,404.541 562.349,856.068 563.364,856.547 564.379,661.823 565.394,662.379 566.409,631.184 567.423,631.41 568.438,564.765 569.453,565.222 570.468,679.719 571.483,679.89 572.498,820.345 573.513,820.727 574.528,664.726 575.543,664.849 576.558,750.969 577.573,751.068 578.588,799.581 579.603,799.971 580.618,551.617 581.633,552.212 582.648,754.289 583.663,754.43 584.678,668.214 585.693,668.525 586.708,542.329 587.723,542.579 588.738,423.145 589.753,423.481 590.768,743.089 591.783,743.177 592.798,732.604 593.813,733.06 594.828,758.284 595.843,759.585 596.858,937.866 597.873,938.397 598.888,786.128 599.903,786.282 600.918,257.715 601.932,258.855 602.947,727.851 603.962,728.035 604.977,840.809 605.992,841.306 607.007,551.692 608.022,552.047 609.037,784.806 610.052,785.309 611.067,600.003 612.082,600.208 613.097,655.941 614.112,656.31 615.127,449.831 616.142,450.327 617.157,644.479 618.172,644.613 619.187,404.479 620.202,404.876 621.217,492.582 622.232,493.077 623.247,747.289 624.262,747.438 625.277,693.43 626.292,693.786 627.307,934.635 628.322,936.065 629.337,683.999 630.352,684.119 631.367,765.059 632.382,765.547 633.397,588.45 634.412,588.759 635.426,394.614 636.441,395.108 637.456,659.981 638.471,660.017 639.486,343.528 640.501,344.123 641.516,814.084 642.531,814.511 643.546,728.781 644.561,729.154 645.576,744.22 646.591,744.406 647.606,747.487 648.621,747.769 649.636,345.931 650.651,346.454 651.666,396.239 652.681,397.67 653.696,850.925 654.711,851.418 655.726,841.646 656.741,842.681 657.756,825.295 658.771,825.687 659.786,763.4 660.801,763.883 661.816,701.758 662.831,701.98 663.846,973.967 664.861,974.482 665.876,580.631 666.891,580.852 667.906,803.995 668.921,804.133 669.935,874.014 670.95,874.652 671.965,805.874 672.98,806.173 673.995,603.405 675.01,603.681 676.025,805.043 677.04,805.177 678.055,646.432 679.07,646.745 680.085,543.827 681.1,544.57 682.115,786.244 683.13,786.657 684.145,697.953 685.16,698.171 686.175,688.878 687.19,688.949 688.205,463.461 689.22,463.916 690.235,654.308 691.25,654.62 692.265,590.898 693.28,591.397 694.295,530.078 695.31,530.482 696.325,439.315 697.34,439.744 698.355,535.223 699.37,535.784 700.385,644.713 701.4,645.185 702.415,342.286 703.429,342.964 704.444,400.367 705.459,401.648 706.474,612.235 707.489,612.397 708.504,696.28 709.519,696.667 710.534,525.219 711.549,525.328 712.564,478.844 713.579,479.105 714.594,646.186 715.609,646.443 716.624,405.102 717.639,405.349 718.654,704.961 719.669,705.15 720.684,381.773 721.699,382.307 722.714,692.409 723.729,692.663 724.744,460.43 725.759,460.69 726.774,530.968 727.789,531.299 728.804,617.57 729.819,617.896 730.834,674.265 731.849,674.366 732.864,721.671 733.879,722.102 734.894,641.95 735.909,642.1 736.924,619.089 737.938,619.116 738.953,656.553 739.968,656.658 740.983,436.153 741.998,436.559 743.013,765.11 744.028,766.434 745.043,708.653 746.058,708.894 747.073,347.701 748.088,348.193 749.103,608.567 750.118,608.829 751.133,717.348 752.148,717.78 753.163,637.612 754.178,637.997 755.193,687.254 756.208,687.43 757.223,642.196 758.238,642.799 759.253,560.595 760.268,561 761.283,586.017 762.298,586.147 763.313,426.571 764.328,427.331 765.343,984.89 766.358,985.935 767.373,714.936 768.388,715.208 769.403,780.606 770.418,781.074 771.432,574.287 772.447,574.985 773.462,736.167 774.477,736.41 775.492,910.098 776.507,910.559 777.522,847.999 778.537,848.727 779.552,701.045 780.567,701.461 781.582,776.574 782.597,776.762 783.612,776.122 784.627,776.759 785.642,750.169 786.657,750.308 787.672,833.176 788.687,833.77 789.702,770.687 790.717,771.16 791.732,591.779 792.747,592.077 793.762,618.559 794.777,619.089 795.792,517.493 796.807,517.782 797.822,530.976 798.837,531.422 799.852,481.737 800.867,482.553 801.882,511.418 802.897,511.77 803.912,740.271 804.927,740.704 805.941,743.957 806.956,744.054 807.971,861.495 808.986,862.101 810.001,729.718 811.016,730.088 812.031,622.769 813.046,623.106 814.061,671.494 815.076,671.961 816.091,610.101 817.106,610.463 818.121,686.502 819.136,686.601 820.151,602.555 821.166,603.61 822.181,670.879 823.196,671.022 824.211,623.141 825.226,623.273 826.241,700.506 827.256,700.812 828.271,735.709 829.286,736.147 830.301,510.386 831.316,510.808 832.331,816.592 833.346,816.927 834.361,691.687 835.376,692.133 836.391,704.086 837.406,704.55 838.421,703.935 839.435,704.383 840.45,753.146 841.465,754.621 842.48,667.205 843.495,667.298 844.51,553.12 845.525,553.999 846.54,763.351 847.555,763.922 848.57,691.978 849.585,692.672 850.6,713.147 851.615,713.962 852.63,734.042 853.645,734.311 854.66,914.264 855.675,914.818 856.69,469.577 857.705,470.051 858.72,501.425 859.735,501.625 860.75,548.246 861.765,548.544 862.78,776.772 863.795,777.232 864.81,759.937 865.825,760.214 866.84,262.97 867.855,263.858 868.87,892.921 869.885,893.44 870.9,612.328 871.915,612.676 872.929,835.408 873.944,836.315 874.959,693.88 875.974,694.885 876.989,896.677 878.004,897.158 879.019,879.509 880.034,879.832 881.049,866.932 882.064,867.248 883.079,604.837 884.094,605.478 885.109,716.875 886.124,717.127 887.139,653.974 888.154,654.262 889.169,721.182 890.184,721.208 891.199,971.266 892.214,971.785 893.229,1142.93 894.244,1143.75 895.259,751.673 896.274,751.885 897.289,734.854 898.304,735.079 899.319,917.092 900.334,917.851 901.349,876.896 902.364,877.311 903.379,1081.58 904.394,1082.41 905.409,968.372 906.424,968.604 907.438,872.161 908.453,872.452 909.468,585.592 910.483,586.104 911.498,851.008 912.513,851.39 913.528,829.174 914.543,829.583 915.558,893.307 916.573,893.67 917.588,740.3 918.603,740.434 919.618,1229.38 920.633,1230.97 921.648,777.634 922.663,778.147 923.678,859.261 924.693,859.57 925.708,966.429 926.723,966.864 927.738,840.454 928.753,840.77 929.768,1082.64 930.783,1083.54 931.798,1003.97 932.813,1004.42 933.828,947.402 934.843,947.603 935.858,1170.13 936.873,1170.56 937.888,1002.83 938.903,1003.11 939.918,689.411 940.932,690.152 941.947,900.077 942.962,900.403 943.977,840.208 944.992,840.675 946.007,1161.22 947.022,1161.59 948.037,922.064 949.052,922.935 950.067,923.984 951.082,924.414 952.097,827.922 953.112,828.19 954.127,898.66 955.142,899.815 956.157,904.501 957.172,905.006 958.187,897.279 959.202,897.587 960.217,883.748 961.232,883.772 962.247,746.627 963.262,746.944 964.277,763.574 965.292,763.933 966.307,1012.85 967.322,1013.08 968.337,846.627 969.352,847.039 970.367,763.269 971.382,763.485 972.397,908.566 973.412,908.625 974.427,941.858 975.441,942.27 976.456,863.408 977.471,863.62 978.486,1178.45 979.501,1179.09 980.516,986.854 981.531,986.882 982.546,907.341 983.561,907.605 984.576,873.66 985.591,873.806 986.606,1019.12 987.621,1019.54 988.636,844.025 989.651,844.179 990.666,1000.56 991.681,1000.89 992.696,962.097 993.711,962.92 994.726,1023.08 995.741,1023.23 996.756,871.672 997.771,872.188 998.786,986.471 999.801,986.7 1000.82,867.933 1001.83,868.14 1002.85,1275.63 1003.86,1276.31 1004.88,791.422 1005.89,791.788 1006.91,837.867 1007.92,838.009 1008.94,858.551 1009.95,860.01 1010.97,1009.93 1011.98,1010.32 1013,886.038 1014.01,886.749 1015.03,842.462 1016.04,843.034 1017.06,767.488 1018.07,768.172 1019.09,921.376 1020.1,921.648 1021.12,848.61 1022.13,848.676 1023.15,809.282 1024.16,810.007 1025.18,751.989 1026.19,752.238 1027.2,657.311 1028.22,657.826 1029.23,866.355 1030.25,866.582 1031.26,853.692 1032.28,853.755 1033.29,776.868 1034.31,777.059 1035.32,898.999 1036.34,899.199 1037.35,696.986 1038.37,697.412 1039.38,856.563 1040.4,856.802 1041.41,900.889 1042.43,901.318 1043.44,530.605 1044.46,531.234 1045.47,716.796 1046.49,717.039 1047.5,686.941 1048.52,687.662 1049.53,948.307 1050.55,949.098 1051.56,825.217 1052.58,825.323 1053.59,826.368 1054.61,827.284 1055.62,842.064 1056.64,842.489 1057.65,845.627 1058.67,845.851 1059.68,775.848 1060.7,776.363 1061.71,1075.4 1062.73,1076.04 1063.74,870.3 1064.76,870.543 1065.77,1015.4 1066.79,1015.58 1067.8,832.363 1068.82,832.72 1069.83,1039.51 1070.85,1039.92 1071.86,923.948 1072.88,924.005 1073.89,988.6 1074.91,989.055 1075.92,835.199 1076.94,835.29 1077.95,1001.12 1078.97,1001.26 1079.98,978.091 1081,978.6 1082.01,682.721 1083.03,684.14 1084.04,995.01 1085.06,995.097 1086.07,1103.84 1087.09,1104.38 1088.1,956.948 1089.12,957.267 1090.13,1038.6 1091.15,1038.85 1092.16,972.653 1093.18,972.962 1094.19,985.062 1095.21,985.257 1096.22,930.89 1097.24,931.568 1098.25,1016.79 1099.27,1017.06 1100.28,1090.3 1101.3,1090.46 1102.31,1025.51 1103.33,1026.23 1104.34,1000.21 1105.36,1000.29 1106.37,886.538 1107.39,887.033 1108.4,1151.57 1109.42,1151.94 1110.43,1041.43 1111.45,1041.79 1112.46,1030.54 1113.48,1030.79 1114.49,936.702 1115.51,937.031 1116.52,1221 1117.54,1222.19 1118.55,813.487 1119.57,814.561 1120.58,1257.43 1121.6,1257.88 1122.61,1267.18 1123.63,1267.52 1124.64,1306.09 1125.66,1306.51 1126.67,1216.59 1127.69,1216.74 1128.7,989.108 1129.72,989.639 1130.73,1208.66 1131.75,1209.1 1132.76,1244.05 1133.78,1244.45 1134.79,1255.84 1135.81,1256.47 1136.82,1191.04 1137.84,1191.19 1138.85,1218.91 1139.87,1219.08 1140.88,1398.84 1141.9,1399.7 1142.91,1082.43 1143.93,1083.36 1144.94,1222.92 1145.96,1223.09 1146.97,1060.67 1147.99,1060.85 1149,1173.9 1150.02,1174.16 1151.03,1112.46 1152.05,1112.63 1153.06,1175.2 1154.08,1175.37 1155.09,1150.63 1156.11,1151.04 1157.12,1081.04 1158.14,1081.41 1159.15,1162.5 1160.17,1163.08 1161.18,1187.38 1162.2,1187.71 1163.21,1219.41 1164.23,1220.02 1165.24,994.848 1166.26,995.47 1167.27,1414.09 1168.29,1414.64 1169.3,1190.68 1170.32,1190.75 1171.33,1430.69 1172.35,1431.4 1173.36,1211.66 1174.38,1211.94 1175.39,1107.91 1176.41,1108.27 1177.42,1102.84 1178.44,1102.96 1179.45,1298.25 1180.47,1298.75 1181.48,1113.22 1182.5,1113.59 1183.51,1163.05 1184.53,1163.71 1185.54,1444.65 1186.56,1445.05 1187.57,973.825 1188.59,974.328 1189.6,1180.73 1190.62,1180.89 1191.63,1331.5 1192.65,1331.83 1193.66,1046.21 1194.68,1046.63 1195.69,1235.2 1196.7,1235.55 1197.72,1058.98 1198.73,1059.34 1199.75,1034.2 1200.76,1034.4 1201.78,1321.34 1202.79,1322.14 1203.81,876.33 1204.82,877.052 1205.84,978.664 1206.85,979.129 1207.87,1201.27 1208.88,1201.63 1209.9,1200.81 1210.91,1200.97 1211.93,1196.33 1212.94,1196.61 1213.96,1287.55 1214.97,1288.06 1215.99,1078.42 1217,1078.54 1218.02,1362.56 1219.03,1363.03 1220.05,1132.98 1221.06,1133.06 1222.08,1116.95 1223.09,1117.25 1224.11,1170.67 1225.12,1170.85 1226.14,1105.67 1227.15,1105.93 1228.17,1402.41 1229.18,1402.92 1230.2,1338.47 1231.21,1339.14 1232.23,1381.86 1233.24,1382.39 1234.26,1370.78 1235.27,1371.11 1236.29,1317.55 1237.3,1317.74 1238.32,1083.89 1239.33,1084.75 1240.35,1342.68 1241.36,1342.86 1242.38,1303.01 1243.39,1303.23 1244.41,1049.31 1245.42,1050.1 1246.44,1339.19 1247.45,1339.63 1248.47,1051.11 1249.48,1051.81 1250.5,1188.34 1251.51,1188.61 1252.53,1068.68 1253.54,1069.17 1254.56,1217.4 1255.57,1217.71 1256.59,1307.44 1257.6,1307.85 1258.62,1164.56 1259.63,1164.82 1260.65,1309.16 1261.66,1309.47 1262.68,1302.11 1263.69,1302.37 1264.71,1141.16 1265.72,1141.36 1266.74,1405.11 1267.75,1405.52 1268.77,1329.9 1269.78,1330.23 1270.8,1073.56 1271.81,1074.28 1272.83,1143.36 1273.84,1143.55 1274.86,1097.57 1275.87,1097.92 1276.89,1089.92 1277.9,1090.05 1278.92,1131.71 1279.93,1132.2 1280.95,1146.05 1281.96,1146.25 1282.98,1260.99 1283.99,1261.06 1285.01,904.807 1286.02,905.323 1287.04,1264.54 1288.05,1264.7 1289.07,1015.72 1290.08,1016.01 1291.1,1372.37 1292.11,1372.91 1293.13,1269.85 1294.14,1270.01 1295.16,1000.09 1296.17,1000.35 1297.19,992.941 1298.2,993.224 1299.22,902.21 1300.23,902.85 1301.25,1266.33 1302.26,1266.51 1303.28,1239.34 1304.29,1239.71 1305.31,1148.87 1306.32,1149.02 1307.34,1260.6 1308.35,1260.81 1309.37,1057.15 1310.38,1057.45 1311.4,1082.32 1312.41,1082.4 1313.43,1163.02 1314.44,1163.33 1315.46,1040.93 1316.47,1041.04 1317.49,1200.99 1318.5,1201.23 1319.52,1019.24 1320.53,1019.65 1321.55,1065.9 1322.56,1066.1 1323.58,963.839 1324.59,964.575 1325.61,1371.02 1326.62,1371.66 1327.64,990.988 1328.65,991.267 1329.67,842.366 1330.68,843.005 1331.7,1126.98 1332.71,1127.24 1333.73,1247.03 1334.74,1247.33 1335.76,1064.7 1336.77,1065.02 1337.79,1115.5 1338.8,1115.75 1339.82,911.403 1340.83,911.724 1341.85,1011.79 1342.86,1012.1 1343.88,966.056 1344.89,966.471 1345.91,1120.97 1346.92,1121.4 1347.94,814.89 1348.95,815.651 1349.97,1019.34 1350.98,1019.57 1352,1023.69 1353.01,1024.08 1354.03,1074.75 1355.04,1074.81 1356.06,1038.71 1357.07,1038.79 1358.09,883.078 1359.1,883.53 1360.12,801.831 1361.13,802.306 1362.15,1147.1 1363.16,1147.41 1364.18,1282.03 1365.19,1282.62 1366.2,932.395 1367.22,932.621 1368.23,938.387 1369.25,938.589 1370.26,1043.5 1371.28,1043.67 1372.29,941.626 1373.31,941.928 1374.32,1032.62 1375.34,1032.85 1376.35,966.468 1377.37,966.798 1378.38,879.742 1379.4,879.908 1380.41,1032.43 1381.43,1032.57 1382.44,1022.72 1383.46,1022.96 1384.47,1028.13 1385.49,1028.26 1386.5,1167.46 1387.52,1168.47 1388.53,882.68 1389.55,882.86 1390.56,872.253 1391.58,872.527 1392.59,952.613 1393.61,953.115 1394.62,1037.27 1395.64,1037.45 1396.65,998.192 1397.67,998.316 1398.68,807.902 1399.7,808.211 1400.71,781.56 1401.73,782.035 1402.74,1093.88 1403.76,1094.12 1404.77,1092.87 1405.79,1093.1 1406.8,1057.45 1407.82,1057.7 1408.83,966.299 1409.85,966.816 1410.86,790.518 1411.88,791.335 1412.89,1317.83 1413.91,1318.73 1414.92,1276.81 1415.94,1277.83 1416.95,1090.25 1417.97,1090.48 1418.98,984.907 1420,985.023 1421.01,823.461 1422.03,823.73 1423.04,1235.65 1424.06,1236.37 1425.07,1074.87 1426.09,1075 1427.1,1170.96 1428.12,1171.67 1429.13,955.966 1430.15,956.387 1431.16,969.796 1432.18,970.136 1433.19,938.785 1434.21,939.156 1435.22,1062.21 1436.24,1062.57 1437.25,777.445 1438.27,777.954 1439.28,857.126 1440.3,857.27 1441.31,976.789 1442.33,977.338 1443.34,938.946 1444.36,939.381 1445.37,1079.14 1446.39,1079.49 1447.4,688.709 1448.42,689.494 1449.43,1022.57 1450.45,1022.72 1451.46,993.339 1452.48,993.749 1453.49,951.29 1454.51,951.465 1455.52,766.126 1456.54,766.505 1457.55,993.677 1458.57,993.913 1459.58,883.701 1460.6,883.857 1461.61,933.683 1462.63,933.729 1463.64,849.254 1464.66,849.839 1465.67,847.778 1466.69,847.974 1467.7,1083.49 1468.72,1084.03 1469.73,940.727 1470.75,941.096 1471.76,637.181 1472.78,637.744 1473.79,806.811 1474.81,807.627 1475.82,875.395 1476.84,875.677 1477.85,580.461 1478.87,581.159 1479.88,882.426 1480.9,882.746 1481.91,774.649 1482.93,775.043 1483.94,885.101 1484.96,885.322 1485.97,962.725 1486.99,962.973 1488,899.078 1489.02,899.365 1490.03,857.848 1491.05,857.911 1492.06,717.201 1493.08,717.618 1494.09,916.614 1495.11,917.113 1496.12,801.071 1497.14,801.537 1498.15,704.588 1499.17,704.938 1500.18,828.95 1501.2,829.002 1502.21,743.717 1503.23,744.126 1504.24,656.699 1505.26,657.014 1506.27,919.743 1507.29,919.95 1508.3,664.753 1509.32,665.071 1510.33,821.245 1511.35,821.583 1512.36,807.295 1513.38,807.571 1514.39,858.111 1515.41,858.23 1516.42,775.487 1517.44,775.903 1518.45,774.927 1519.47,774.964 1520.48,813.975 1521.5,814.161 1522.51,1109.12 1523.53,1110.04 1524.54,996.34 1525.56,996.577 1526.57,1248.55 1527.59,1249.36 1528.6,962.431 1529.62,962.536 1530.63,1130.28 1531.65,1130.67 1532.66,1148.31 1533.68,1148.9 1534.69,745.323 1535.7,746.099 1536.72,838.151 1537.73,838.259 1538.75,1083.77 1539.76,1084.02 1540.78,734.658 1541.79,735.13 1542.81,1017.73 1543.82,1018.01 1544.84,798.59 1545.85,799.108 1546.87,974.545 1547.88,974.682 1548.9,1045.5 1549.91,1046.35 1550.93,821.456 1551.94,821.738 1552.96,1140.57 1553.97,1140.95 1554.99,825.85 1556,826.132 1557.02,966.241 1558.03,966.653 1559.05,942.495 1560.06,942.676 1561.08,1137.15 1562.09,1137.48 1563.11,993.733 1564.12,993.911 1565.14,1194.04 1566.15,1194.53 1567.17,1241.6 1568.18,1242.14 1569.2,996.778 1570.21,997.192 1571.23,1083.06 1572.24,1083.18 1573.26,1021.33 1574.27,1021.46 1575.29,1124.26 1576.3,1124.58 1577.32,843.371 1578.33,844.279 1579.35,1127.44 1580.36,1127.98 1581.38,1166.44 1582.39,1166.62 1583.41,1021.34 1584.42,1021.42 1585.44,1262.12 1586.45,1262.78 1587.47,1043.61 1588.48,1043.86 1589.5,999.888 1590.51,1000.29 1591.53,931.739 1592.54,931.908 1593.56,1093.67 1594.57,1093.9 1595.59,936.431 1596.6,937.017 1597.62,1121.14 1598.63,1121.95 1599.65,936.673 1600.66,936.902 1601.68,1048.51 1602.69,1048.77 1603.71,844.087 1604.72,844.561 1605.74,887.813 1606.75,888.907 1607.77,1124.53 1608.78,1124.78 1609.8,1001.98 1610.81,1002.15 1611.83,1063.93 1612.84,1064.03 1613.86,927.006 1614.87,927.429 1615.89,1052.73 1616.9,1052.77 1617.92,1050.68 1618.93,1050.73 1619.95,773.156 1620.96,774.016 1621.98,1042.53 1622.99,1042.62 1624.01,904.134 1625.02,904.391 1626.04,1061.29 1627.05,1061.55 1628.07,1023.19 1629.08,1023.3 1630.1,991.282 1631.11,991.374 1632.13,952.727 1633.14,953.416 1634.16,1135.35 1635.17,1135.61 1636.19,1130.15 1637.2,1130.75 1638.22,853.355 1639.23,853.823 1640.25,633.7 1641.26,634.407 1642.28,908.06 1643.29,908.31 1644.31,818.013 1645.32,819.395 1646.34,688.851 1647.35,689.547 1648.37,777.701 1649.38,777.942 1650.4,1186.07 1651.41,1186.71 1652.43,1112.81 1653.44,1113.48 1654.46,1004.41 1655.47,1004.61 1656.49,979.004 1657.5,979.443 1658.52,1070.6 1659.53,1070.73 1660.55,951.493 1661.56,951.565 1662.58,687.003 1663.59,687.524 1664.61,891.809 1665.62,892.416 1666.64,1021.07 1667.65,1021.37 1668.67,783.073 1669.68,783.634 1670.7,1015.33 1671.71,1015.6 1672.73,890.977 1673.74,891.391 1674.76,998.262 1675.77,998.751 1676.79,1166.15 1677.8,1166.63 1678.82,853.717 1679.83,854.082 1680.85,996.21 1681.86,996.394 1682.88,1163.13 1683.89,1163.87 1684.91,958.698 1685.92,959.055 1686.94,996.584 1687.95,996.734 1688.97,886.375 1689.98,886.688 1691,1053.39 1692.01,1053.94 1693.03,1152.01 1694.04,1152.75 1695.06,980.967 1696.07,981.859 1697.09,1041.01 1698.1,1041.25 1699.12,674.84 1700.13,675.397 1701.15,742.132 1702.16,743.043 1703.18,799.787 1704.19,800.005 1705.2,970.601 1706.22,970.849 1707.23,1127.36 1708.25,1128.06 1709.26,1158.65 1710.28,1158.97 1711.29,925.211 1712.31,925.625 1713.32,875.83 1714.34,876.344 1715.35,1022.4 1716.37,1022.82 1717.38,1311.83 1718.4,1312.67 1719.41,931.37 1720.43,932.146 1721.44,1139.33 1722.46,1139.49 1723.47,1262.53 1724.49,1263.36 1725.5,1065.77 1726.52,1066.09 1727.53,1027.6 1728.55,1027.78 1729.56,797.449 1730.58,797.925 1731.59,762.307 1732.61,762.959 1733.62,815.799 1734.64,816.033 1735.65,1209.8 1736.67,1210.49 1737.68,799.764 1738.7,800.291 1739.71,864.091 1740.73,864.518 1741.74,863.266 1742.76,863.938 1743.77,874.229 1744.79,874.305 1745.8,843.157 1746.82,843.824 1747.83,978.399 1748.85,978.691 1749.86,1187.43 1750.88,1187.91 1751.89,869.405 1752.91,869.791 1753.92,799.95 1754.94,801.188 1755.95,982.374 1756.97,982.777 1757.98,937.771 1759,938.561 1760.01,973.595 1761.03,974.209 1762.04,1220.93 1763.06,1221.66 1764.07,785.587 1765.09,785.913 1766.1,969.698 1767.12,970.177 1768.13,983.815 1769.15,983.977 1770.16,824.234 1771.18,824.336 1772.19,912.33 1773.21,912.39 1774.22,891.155 1775.24,891.465 1776.25,832.647 1777.27,832.913 1778.28,852.148 1779.3,852.315 1780.31,1050.97 1781.33,1051.46 1782.34,796.53 1783.36,796.703 1784.37,964.825 1785.39,965.105 1786.4,813.15 1787.42,813.358 1788.43,636.259 1789.45,637.236 1790.46,1189.14 1791.48,1189.99 1792.49,994.803 1793.51,994.908 1794.52,937.675 1795.54,937.957 1796.55,901.195 1797.57,901.453 1798.58,874.62 1799.6,874.953 1800.61,940.532 1801.63,940.919 1802.64,1046.1 1803.66,1046.5 1804.67,1082.01 1805.69,1082.45 1806.7,882.145 1807.72,882.695 1808.73,1074.5 1809.75,1074.85 1810.76,1074.92 1811.78,1075.25 1812.79,1190.67 1813.81,1191.99 1814.82,784.599 1815.84,785.267 1816.85,1108.18 1817.87,1108.51 1818.88,976.924 1819.9,978.047 1820.91,888.294 1821.93,888.527 1822.94,862.295 1823.96,862.983 1824.97,876.655 1825.99,876.911 1827,1012.1 1828.02,1012.46 1829.03,949.369 1830.05,949.758 1831.06,958.932 1832.08,959.349 1833.09,960.117 1834.11,960.656 1835.12,722.508 1836.14,722.895 1837.15,1017.86 1838.17,1018.12 1839.18,897.959 1840.2,898.307 1841.21,967.56 1842.23,967.694 1843.24,1088.22 1844.26,1088.46 1845.27,1021.07 1846.29,1021.41 1847.3,844.817 1848.32,844.971 1849.33,1035.53 1850.35,1035.84 1851.36,689.701 1852.38,690.114 1853.39,1148.98 1854.41,1149.37 1855.42,977.139 1856.44,977.649 1857.45,942.897 1858.47,943.478 1859.48,1021.53 1860.5,1021.98 1861.51,947.096 1862.53,947.218 1863.54,949.482 1864.56,949.61 1865.57,1132.75 1866.59,1133.07 1867.6,1127.21 1868.62,1127.48 1869.63,1115.36 1870.65,1115.5 1871.66,1034.23 1872.68,1034.49 1873.69,1094.78 1874.7,1094.83 1875.72,842.096 1876.73,842.324 1877.75,938.338 1878.76,938.901 1879.78,728.621 1880.79,729.063 1881.81,960.075 1882.82,960.223 1883.84,782.967 1884.85,783.349 1885.87,782.604 1886.88,783.695 1887.9,745.693 1888.91,746.058 1889.93,853.107 1890.94,853.66 1891.96,778.743 1892.97,779.222 1893.99,704.561 1895,704.872 1896.02,829.093 1897.03,829.121 1898.05,797.724 1899.06,798.107 1900.08,776.397 1901.09,777.394 1902.11,1074.64 1903.12,1075.31 1904.14,870.013 1905.15,870.126 1906.17,893.608 1907.18,893.926 1908.2,753.003 1909.21,753.189 1910.23,981.379 1911.24,981.608 1912.26,975.11 1913.27,975.233 1914.29,1031.81 1915.3,1032.45 1916.32,986.245 1917.33,986.511 1918.35,793.718 1919.36,793.998 1920.38,1045.59 1921.39,1046.06 1922.41,840.489 1923.42,841.691 1924.44,680.828 1925.45,681.282 1926.47,662.372 1927.48,662.674 1928.5,829.672 1929.51,829.82 1930.53,647.332 1931.54,647.772 1932.56,1017.35 1933.57,1018.23 1934.59,978.338 1935.6,978.536 1936.62,746.317 1937.63,746.709 1938.65,1062.75 1939.66,1063.27 1940.68,1112.26 1941.69,1112.7 1942.71,855.524 1943.72,855.678 1944.74,1005.3 1945.75,1005.48 1946.77,945.614 1947.78,946.266 1948.8,800.898 1949.81,801.404 1950.83,868.196 1951.84,868.401 1952.86,839.124 1953.87,839.22 1954.89,1071.16 1955.9,1071.39 1956.92,777.723 1957.93,777.854 1958.95,764.112 1959.96,764.402 1960.98,803.386 1961.99,803.627 1963.01,744.296 1964.02,744.498 1965.04,897.725 1966.05,897.797 1967.07,915.711 1968.08,915.972 1969.1,660.537 1970.11,661.23 1971.13,872.856 1972.14,873.361 1973.16,968.503 1974.17,969.044 1975.19,763.331 1976.2,763.623 1977.22,739.922 1978.23,740.086 1979.25,1001.77 1980.26,1002.34 1981.28,535.212 1982.29,535.773 1983.31,968.9 1984.32,969.244 1985.34,948.707 1986.35,949.282 1987.37,1024.02 1988.38,1024.28 1989.4,703.066 1990.41,703.719 1991.43,1011.27 1992.44,1011.57 1993.46,845.266 1994.47,845.481 1995.49,859.074 1996.5,859.115 1997.52,971.621 1998.53,972.253 1999.55,1000.19 2000.56,1000.46 2001.58,836.046 2002.59,836.432 2003.61,797.852 2004.62,798.033 2005.64,804.867 2006.65,805.996 2007.67,902.285 2008.68,902.531 2009.7,900.582 2010.71,901.102 2011.73,1124.47 2012.74,1124.99 2013.76,949.229 2014.77,949.45 2015.79,859.822 2016.8,860.001 2017.82,1025.21 2018.83,1025.83 2019.85,743.997 2020.86,744.451 2021.88,791.806 2022.89,792.342 2023.91,783.33 2024.92,783.66 2025.94,647.303 2026.95,647.741 2027.97,576.674 2028.98,577.119 2030,779.46 2031.01,779.737 2032.03,783.122 2033.04,783.189 2034.06,673.437 2035.07,673.737 2036.09,818.912 2037.1,819.031 2038.12,684.748 2039.13,685.159 2040.15,995.989 2041.16,996.358 2042.18,873.188 2043.19,873.375 2044.2,693.376 2045.22,693.635 2046.23,747.61 2047.25,747.879 2048.26,881.82 2049.28,881.972 2050.29,937.094 2051.31,937.366 2052.32,756.267 2053.34,756.787 2054.35,955.449 2055.37,956.085 2056.38,773.939 2057.4,774.084 2058.41,836.594 2059.43,836.793 2060.44,846.521 2061.46,846.768 2062.47,868.062 2063.49,868.532 2064.5,1080.73 2065.52,1081.44 2066.53,985.782 2067.55,986.341 2068.56,1046.79 2069.58,1047.14 2070.59,863.115 2071.61,863.384 2072.62,761.38 2073.64,761.525 2074.65,897.016 2075.67,897.407 2076.68,802.034 2077.7,802.471 2078.71,962.506 2079.73,963.117 2080.74,924.437 2081.76,925.322 2082.77,960.64 2083.79,960.878 2084.8,1004.85 2085.82,1005.04 2086.83,775.834 2087.85,776.154 2088.86,921.612 2089.88,922.357 2090.89,1070.28 2091.91,1070.65 2092.92,1109.99 2093.94,1110.36 2094.95,1110.69 2095.97,1111.04 2096.98,1138.99 2098,1139.34 2099.01,992.033 2100.03,992.143 2101.04,1086.7 2102.06,1087.27 2103.07,1045.84 2104.09,1046.31 2105.1,1172.36 2106.12,1172.58 2107.13,964.028 2108.15,964.2 2109.16,1123.53 2110.18,1123.65 2111.19,995.539 2112.21,995.565 2113.22,1277.94 2114.24,1278.87 2115.25,1351.57 2116.27,1352.27 2117.28,930.489 2118.3,931.2 2119.31,1134.58 2120.33,1134.99 2121.34,1000 2122.36,1000.39 2123.37,977.846 2124.39,978.148 2125.4,1030.18 2126.42,1030.41 2127.43,1391.61 2128.45,1392.26 2129.46,1137.93 2130.48,1138.13 2131.49,878.284 2132.51,878.996 2133.52,993.069 2134.54,993.487 2135.55,1159.29 2136.57,1159.8 2137.58,984.944 2138.6,985.173 2139.61,1202.31 2140.63,1202.69 2141.64,1067.7 2142.66,1067.87 2143.67,1221.71 2144.69,1222.86 2145.7,1191.75 2146.72,1192.02 2147.73,1013.63 2148.75,1013.72 2149.76,1012.78 2150.78,1012.86 2151.79,765.722 2152.81,766.431 2153.82,803.234 2154.84,803.687 2155.85,924.577 2156.87,924.902 2157.88,845.56 2158.9,845.708 2159.91,1211.8 2160.93,1212.22 2161.94,1022.84 2162.96,1023.48 2163.97,1158.8 2164.99,1159.45 2166,860.093 2167.02,860.586 2168.03,1328.19 2169.05,1329.13 2170.06,1031.52 2171.08,1031.6 2172.09,1230.25 2173.11,1230.51 2174.12,1207.87 2175.14,1208.58 2176.15,1357.86 2177.17,1358.61 2178.18,1209.43 2179.2,1209.64 2180.21,942.964 2181.23,943.62 2182.24,1073.52 2183.26,1073.67 2184.27,1072.35 2185.29,1072.44 2186.3,856.706 2187.32,857.159 2188.33,902.398 2189.35,902.653 2190.36,993.158 2191.38,993.403 2192.39,1265.02 2193.41,1265.72 2194.42,1302.48 2195.44,1303.46 2196.45,1191.21 2197.47,1191.5 2198.48,1359.52 2199.5,1360.55 2200.51,1332.06 2201.53,1332.5 2202.54,1156.45 2203.56,1156.6 2204.57,1237.05 2205.59,1237.2 2206.6,1133.79 2207.62,1134.22 2208.63,1056.1 2209.65,1056.44 2210.66,1302.58 2211.68,1303.59 2212.69,1134.95 2213.71,1135.24 2214.72,1263.44 2215.73,1263.69 2216.75,1123.32 2217.76,1123.64 2218.78,1150.32 2219.79,1150.98 2220.81,1137.23 2221.82,1137.69 2222.84,1414.97 2223.85,1415.72 2224.87,1100.23 2225.88,1100.49 2226.9,1380.36 2227.91,1380.7 2228.93,822.297 2229.94,823.274 2230.96,1445.25 2231.97,1445.72 2232.99,1180.44 2234,1181.19 2235.02,1099.3 2236.03,1099.78 2237.05,1307.07 2238.06,1307.39 2239.08,1208.43 2240.09,1208.67 2241.11,1346.74 2242.12,1347.22 2243.14,1073.92 2244.15,1074.12 2245.17,1416.57 2246.18,1416.95 2247.2,1251.82 2248.21,1252.45 2249.23,1072.12 2250.24,1072.52 2251.26,1419.59 2252.27,1419.87 2253.29,1309.11 2254.3,1309.56 2255.32,1334.01 2256.33,1334.56 2257.35,1238.43 2258.36,1239.02 2259.38,1274.2 2260.39,1274.26 2261.41,1215.9 2262.42,1216.28 2263.44,1222.93 2264.45,1223.14 2265.47,1202.48 2266.48,1203.08 2267.5,1172.67 2268.51,1172.98 2269.53,1118.31 2270.54,1118.43 2271.56,1189.11 2272.57,1189.44 2273.59,1381.1 2274.6,1381.56 2275.62,1119.09 2276.63,1119.51 2277.65,1080.44 2278.66,1080.72 2279.68,1174.76 2280.69,1175.21 2281.71,983.084 2282.72,984.553 2283.74,1264.56 2284.75,1265.01 2285.77,1327.37 2286.78,1327.74 2287.8,1212.91 2288.81,1213.37 2289.83,1305.97 2290.84,1306.18 2291.86,1306.37 "/>
<path clip-path="url(#clip200)" d="M2013.43 198.898 L2281.03 198.898 L2281.03 95.2176 L2013.43 95.2176  Z" fill="#ffffff" fill-rule="evenodd" fill-opacity="1"/>
<polyline clip-path="url(#clip200)" style="stroke:#000000; stroke-linecap:round; stroke-linejoin:round; stroke-width:4; stroke-opacity:1; fill:none" points="2013.43,198.898 2281.03,198.898 2281.03,95.2176 2013.43,95.2176 2013.43,198.898 "/>
<polyline clip-path="url(#clip200)" style="stroke:#009af9; stroke-linecap:round; stroke-linejoin:round; stroke-width:4; stroke-opacity:1; fill:none" points="2037.34,147.058 2180.78,147.058 "/>
<path clip-path="url(#clip200)" d="M2218.54 166.745 Q2216.73 171.375 2215.02 172.787 Q2213.3 174.199 2210.43 174.199 L2207.03 174.199 L2207.03 170.634 L2209.53 170.634 Q2211.29 170.634 2212.26 169.8 Q2213.23 168.967 2214.42 165.865 L2215.18 163.921 L2204.69 138.412 L2209.21 138.412 L2217.31 158.689 L2225.41 138.412 L2229.92 138.412 L2218.54 166.745 Z" fill="#000000" fill-rule="nonzero" fill-opacity="1" /><path clip-path="url(#clip200)" d="M2237.22 160.402 L2244.85 160.402 L2244.85 134.037 L2236.54 135.703 L2236.54 131.444 L2244.81 129.778 L2249.48 129.778 L2249.48 160.402 L2257.12 160.402 L2257.12 164.338 L2237.22 164.338 L2237.22 160.402 Z" fill="#000000" fill-rule="nonzero" fill-opacity="1" /></svg>
