<?xml version="1.0" encoding="utf-8"?>
<svg xmlns="http://www.w3.org/2000/svg" xmlns:xlink="http://www.w3.org/1999/xlink" width="600" height="400" viewBox="0 0 2400 1600">
<defs>
  <clipPath id="clip650">
    <rect x="0" y="0" width="2400" height="1600"/>
  </clipPath>
</defs>
<path clip-path="url(#clip650)" d="M0 1600 L2400 1600 L2400 0 L0 0  Z" fill="#ffffff" fill-rule="evenodd" fill-opacity="1"/>
<defs>
  <clipPath id="clip651">
    <rect x="480" y="0" width="1681" height="1600"/>
  </clipPath>
</defs>
<path clip-path="url(#clip650)" d="M186.274 1486.45 L2352.76 1486.45 L2352.76 47.2441 L186.274 47.2441  Z" fill="#ffffff" fill-rule="evenodd" fill-opacity="1"/>
<defs>
  <clipPath id="clip652">
    <rect x="186" y="47" width="2167" height="1440"/>
  </clipPath>
</defs>
<polyline clip-path="url(#clip652)" style="stroke:#000000; stroke-linecap:round; stroke-linejoin:round; stroke-width:2; stroke-opacity:0.1; fill:none" points="247.59,1486.45 247.59,47.2441 "/>
<polyline clip-path="url(#clip652)" style="stroke:#000000; stroke-linecap:round; stroke-linejoin:round; stroke-width:2; stroke-opacity:0.1; fill:none" points="758.552,1486.45 758.552,47.2441 "/>
<polyline clip-path="url(#clip652)" style="stroke:#000000; stroke-linecap:round; stroke-linejoin:round; stroke-width:2; stroke-opacity:0.1; fill:none" points="1269.51,1486.45 1269.51,47.2441 "/>
<polyline clip-path="url(#clip652)" style="stroke:#000000; stroke-linecap:round; stroke-linejoin:round; stroke-width:2; stroke-opacity:0.1; fill:none" points="1780.48,1486.45 1780.48,47.2441 "/>
<polyline clip-path="url(#clip652)" style="stroke:#000000; stroke-linecap:round; stroke-linejoin:round; stroke-width:2; stroke-opacity:0.1; fill:none" points="2291.44,1486.45 2291.44,47.2441 "/>
<polyline clip-path="url(#clip650)" style="stroke:#000000; stroke-linecap:round; stroke-linejoin:round; stroke-width:4; stroke-opacity:1; fill:none" points="186.274,1486.45 2352.76,1486.45 "/>
<polyline clip-path="url(#clip650)" style="stroke:#000000; stroke-linecap:round; stroke-linejoin:round; stroke-width:4; stroke-opacity:1; fill:none" points="247.59,1486.45 247.59,1467.55 "/>
<polyline clip-path="url(#clip650)" style="stroke:#000000; stroke-linecap:round; stroke-linejoin:round; stroke-width:4; stroke-opacity:1; fill:none" points="758.552,1486.45 758.552,1467.55 "/>
<polyline clip-path="url(#clip650)" style="stroke:#000000; stroke-linecap:round; stroke-linejoin:round; stroke-width:4; stroke-opacity:1; fill:none" points="1269.51,1486.45 1269.51,1467.55 "/>
<polyline clip-path="url(#clip650)" style="stroke:#000000; stroke-linecap:round; stroke-linejoin:round; stroke-width:4; stroke-opacity:1; fill:none" points="1780.48,1486.45 1780.48,1467.55 "/>
<polyline clip-path="url(#clip650)" style="stroke:#000000; stroke-linecap:round; stroke-linejoin:round; stroke-width:4; stroke-opacity:1; fill:none" points="2291.44,1486.45 2291.44,1467.55 "/>
<path clip-path="url(#clip650)" d="M247.59 1517.37 Q243.978 1517.37 242.15 1520.93 Q240.344 1524.47 240.344 1531.6 Q240.344 1538.71 242.15 1542.27 Q243.978 1545.82 247.59 1545.82 Q251.224 1545.82 253.029 1542.27 Q254.858 1538.71 254.858 1531.6 Q254.858 1524.47 253.029 1520.93 Q251.224 1517.37 247.59 1517.37 M247.59 1513.66 Q253.4 1513.66 256.455 1518.27 Q259.534 1522.85 259.534 1531.6 Q259.534 1540.33 256.455 1544.94 Q253.4 1549.52 247.59 1549.52 Q241.779 1549.52 238.701 1544.94 Q235.645 1540.33 235.645 1531.6 Q235.645 1522.85 238.701 1518.27 Q241.779 1513.66 247.59 1513.66 Z" fill="#000000" fill-rule="nonzero" fill-opacity="1" /><path clip-path="url(#clip650)" d="M718.171 1514.29 L736.527 1514.29 L736.527 1518.22 L722.453 1518.22 L722.453 1526.7 Q723.471 1526.35 724.49 1526.19 Q725.508 1526 726.527 1526 Q732.314 1526 735.694 1529.17 Q739.073 1532.34 739.073 1537.76 Q739.073 1543.34 735.601 1546.44 Q732.129 1549.52 725.809 1549.52 Q723.633 1549.52 721.365 1549.15 Q719.12 1548.78 716.712 1548.04 L716.712 1543.34 Q718.796 1544.47 721.018 1545.03 Q723.24 1545.58 725.717 1545.58 Q729.721 1545.58 732.059 1543.48 Q734.397 1541.37 734.397 1537.76 Q734.397 1534.15 732.059 1532.04 Q729.721 1529.94 725.717 1529.94 Q723.842 1529.94 721.967 1530.35 Q720.115 1530.77 718.171 1531.65 L718.171 1514.29 Z" fill="#000000" fill-rule="nonzero" fill-opacity="1" /><path clip-path="url(#clip650)" d="M758.286 1517.37 Q754.675 1517.37 752.846 1520.93 Q751.041 1524.47 751.041 1531.6 Q751.041 1538.71 752.846 1542.27 Q754.675 1545.82 758.286 1545.82 Q761.92 1545.82 763.726 1542.27 Q765.555 1538.71 765.555 1531.6 Q765.555 1524.47 763.726 1520.93 Q761.92 1517.37 758.286 1517.37 M758.286 1513.66 Q764.096 1513.66 767.152 1518.27 Q770.23 1522.85 770.23 1531.6 Q770.23 1540.33 767.152 1544.94 Q764.096 1549.52 758.286 1549.52 Q752.476 1549.52 749.397 1544.94 Q746.342 1540.33 746.342 1531.6 Q746.342 1522.85 749.397 1518.27 Q752.476 1513.66 758.286 1513.66 Z" fill="#000000" fill-rule="nonzero" fill-opacity="1" /><path clip-path="url(#clip650)" d="M788.448 1517.37 Q784.837 1517.37 783.008 1520.93 Q781.203 1524.47 781.203 1531.6 Q781.203 1538.71 783.008 1542.27 Q784.837 1545.82 788.448 1545.82 Q792.082 1545.82 793.888 1542.27 Q795.716 1538.71 795.716 1531.6 Q795.716 1524.47 793.888 1520.93 Q792.082 1517.37 788.448 1517.37 M788.448 1513.66 Q794.258 1513.66 797.314 1518.27 Q800.392 1522.85 800.392 1531.6 Q800.392 1540.33 797.314 1544.94 Q794.258 1549.52 788.448 1549.52 Q782.638 1549.52 779.559 1544.94 Q776.504 1540.33 776.504 1531.6 Q776.504 1522.85 779.559 1518.27 Q782.638 1513.66 788.448 1513.66 Z" fill="#000000" fill-rule="nonzero" fill-opacity="1" /><path clip-path="url(#clip650)" d="M1214.04 1544.91 L1221.68 1544.91 L1221.68 1518.55 L1213.37 1520.21 L1213.37 1515.95 L1221.63 1514.29 L1226.31 1514.29 L1226.31 1544.91 L1233.95 1544.91 L1233.95 1548.85 L1214.04 1548.85 L1214.04 1544.91 Z" fill="#000000" fill-rule="nonzero" fill-opacity="1" /><path clip-path="url(#clip650)" d="M1253.39 1517.37 Q1249.78 1517.37 1247.95 1520.93 Q1246.15 1524.47 1246.15 1531.6 Q1246.15 1538.71 1247.95 1542.27 Q1249.78 1545.82 1253.39 1545.82 Q1257.03 1545.82 1258.83 1542.27 Q1260.66 1538.71 1260.66 1531.6 Q1260.66 1524.47 1258.83 1520.93 Q1257.03 1517.37 1253.39 1517.37 M1253.39 1513.66 Q1259.2 1513.66 1262.26 1518.27 Q1265.34 1522.85 1265.34 1531.6 Q1265.34 1540.33 1262.26 1544.94 Q1259.2 1549.52 1253.39 1549.52 Q1247.58 1549.52 1244.5 1544.94 Q1241.45 1540.33 1241.45 1531.6 Q1241.45 1522.85 1244.5 1518.27 Q1247.58 1513.66 1253.39 1513.66 Z" fill="#000000" fill-rule="nonzero" fill-opacity="1" /><path clip-path="url(#clip650)" d="M1283.55 1517.37 Q1279.94 1517.37 1278.11 1520.93 Q1276.31 1524.47 1276.31 1531.6 Q1276.31 1538.71 1278.11 1542.27 Q1279.94 1545.82 1283.55 1545.82 Q1287.19 1545.82 1288.99 1542.27 Q1290.82 1538.71 1290.82 1531.6 Q1290.82 1524.47 1288.99 1520.93 Q1287.19 1517.37 1283.55 1517.37 M1283.55 1513.66 Q1289.36 1513.66 1292.42 1518.27 Q1295.5 1522.85 1295.5 1531.6 Q1295.5 1540.33 1292.42 1544.94 Q1289.36 1549.52 1283.55 1549.52 Q1277.74 1549.52 1274.67 1544.94 Q1271.61 1540.33 1271.61 1531.6 Q1271.61 1522.85 1274.67 1518.27 Q1277.74 1513.66 1283.55 1513.66 Z" fill="#000000" fill-rule="nonzero" fill-opacity="1" /><path clip-path="url(#clip650)" d="M1313.72 1517.37 Q1310.11 1517.37 1308.28 1520.93 Q1306.47 1524.47 1306.47 1531.6 Q1306.47 1538.71 1308.28 1542.27 Q1310.11 1545.82 1313.72 1545.82 Q1317.35 1545.82 1319.16 1542.27 Q1320.98 1538.71 1320.98 1531.6 Q1320.98 1524.47 1319.16 1520.93 Q1317.35 1517.37 1313.72 1517.37 M1313.72 1513.66 Q1319.53 1513.66 1322.58 1518.27 Q1325.66 1522.85 1325.66 1531.6 Q1325.66 1540.33 1322.58 1544.94 Q1319.53 1549.52 1313.72 1549.52 Q1307.91 1549.52 1304.83 1544.94 Q1301.77 1540.33 1301.77 1531.6 Q1301.77 1522.85 1304.83 1518.27 Q1307.91 1513.66 1313.72 1513.66 Z" fill="#000000" fill-rule="nonzero" fill-opacity="1" /><path clip-path="url(#clip650)" d="M1725 1544.91 L1732.64 1544.91 L1732.64 1518.55 L1724.33 1520.21 L1724.33 1515.95 L1732.6 1514.29 L1737.27 1514.29 L1737.27 1544.91 L1744.91 1544.91 L1744.91 1548.85 L1725 1548.85 L1725 1544.91 Z" fill="#000000" fill-rule="nonzero" fill-opacity="1" /><path clip-path="url(#clip650)" d="M1754.4 1514.29 L1772.76 1514.29 L1772.76 1518.22 L1758.68 1518.22 L1758.68 1526.7 Q1759.7 1526.35 1760.72 1526.19 Q1761.74 1526 1762.76 1526 Q1768.54 1526 1771.92 1529.17 Q1775.3 1532.34 1775.3 1537.76 Q1775.3 1543.34 1771.83 1546.44 Q1768.36 1549.52 1762.04 1549.52 Q1759.86 1549.52 1757.6 1549.15 Q1755.35 1548.78 1752.94 1548.04 L1752.94 1543.34 Q1755.03 1544.47 1757.25 1545.03 Q1759.47 1545.58 1761.95 1545.58 Q1765.95 1545.58 1768.29 1543.48 Q1770.63 1541.37 1770.63 1537.76 Q1770.63 1534.15 1768.29 1532.04 Q1765.95 1529.94 1761.95 1529.94 Q1760.07 1529.94 1758.2 1530.35 Q1756.35 1530.77 1754.4 1531.65 L1754.4 1514.29 Z" fill="#000000" fill-rule="nonzero" fill-opacity="1" /><path clip-path="url(#clip650)" d="M1794.52 1517.37 Q1790.91 1517.37 1789.08 1520.93 Q1787.27 1524.47 1787.27 1531.6 Q1787.27 1538.71 1789.08 1542.27 Q1790.91 1545.82 1794.52 1545.82 Q1798.15 1545.82 1799.96 1542.27 Q1801.79 1538.71 1801.79 1531.6 Q1801.79 1524.47 1799.96 1520.93 Q1798.15 1517.37 1794.52 1517.37 M1794.52 1513.66 Q1800.33 1513.66 1803.38 1518.27 Q1806.46 1522.85 1806.46 1531.6 Q1806.46 1540.33 1803.38 1544.94 Q1800.33 1549.52 1794.52 1549.52 Q1788.71 1549.52 1785.63 1544.94 Q1782.57 1540.33 1782.57 1531.6 Q1782.57 1522.85 1785.63 1518.27 Q1788.71 1513.66 1794.52 1513.66 Z" fill="#000000" fill-rule="nonzero" fill-opacity="1" /><path clip-path="url(#clip650)" d="M1824.68 1517.37 Q1821.07 1517.37 1819.24 1520.93 Q1817.43 1524.47 1817.43 1531.6 Q1817.43 1538.71 1819.24 1542.27 Q1821.07 1545.82 1824.68 1545.82 Q1828.31 1545.82 1830.12 1542.27 Q1831.95 1538.71 1831.95 1531.6 Q1831.95 1524.47 1830.12 1520.93 Q1828.31 1517.37 1824.68 1517.37 M1824.68 1513.66 Q1830.49 1513.66 1833.54 1518.27 Q1836.62 1522.85 1836.62 1531.6 Q1836.62 1540.33 1833.54 1544.94 Q1830.49 1549.52 1824.68 1549.52 Q1818.87 1549.52 1815.79 1544.94 Q1812.73 1540.33 1812.73 1531.6 Q1812.73 1522.85 1815.79 1518.27 Q1818.87 1513.66 1824.68 1513.66 Z" fill="#000000" fill-rule="nonzero" fill-opacity="1" /><path clip-path="url(#clip650)" d="M2240.05 1544.91 L2256.37 1544.91 L2256.37 1548.85 L2234.43 1548.85 L2234.43 1544.91 Q2237.09 1542.16 2241.67 1537.53 Q2246.28 1532.88 2247.46 1531.53 Q2249.7 1529.01 2250.58 1527.27 Q2251.49 1525.51 2251.49 1523.82 Q2251.49 1521.07 2249.54 1519.33 Q2247.62 1517.6 2244.52 1517.6 Q2242.32 1517.6 2239.87 1518.36 Q2237.44 1519.13 2234.66 1520.68 L2234.66 1515.95 Q2237.48 1514.82 2239.94 1514.24 Q2242.39 1513.66 2244.43 1513.66 Q2249.8 1513.66 2252.99 1516.35 Q2256.19 1519.03 2256.19 1523.52 Q2256.19 1525.65 2255.38 1527.57 Q2254.59 1529.47 2252.48 1532.07 Q2251.9 1532.74 2248.8 1535.95 Q2245.7 1539.15 2240.05 1544.91 Z" fill="#000000" fill-rule="nonzero" fill-opacity="1" /><path clip-path="url(#clip650)" d="M2276.19 1517.37 Q2272.57 1517.37 2270.75 1520.93 Q2268.94 1524.47 2268.94 1531.6 Q2268.94 1538.71 2270.75 1542.27 Q2272.57 1545.82 2276.19 1545.82 Q2279.82 1545.82 2281.63 1542.27 Q2283.45 1538.71 2283.45 1531.6 Q2283.45 1524.47 2281.63 1520.93 Q2279.82 1517.37 2276.19 1517.37 M2276.19 1513.66 Q2282 1513.66 2285.05 1518.27 Q2288.13 1522.85 2288.13 1531.6 Q2288.13 1540.33 2285.05 1544.94 Q2282 1549.52 2276.19 1549.52 Q2270.38 1549.52 2267.3 1544.94 Q2264.24 1540.33 2264.24 1531.6 Q2264.24 1522.85 2267.3 1518.27 Q2270.38 1513.66 2276.19 1513.66 Z" fill="#000000" fill-rule="nonzero" fill-opacity="1" /><path clip-path="url(#clip650)" d="M2306.35 1517.37 Q2302.74 1517.37 2300.91 1520.93 Q2299.1 1524.47 2299.1 1531.6 Q2299.1 1538.71 2300.91 1542.27 Q2302.74 1545.82 2306.35 1545.82 Q2309.98 1545.82 2311.79 1542.27 Q2313.62 1538.71 2313.62 1531.6 Q2313.62 1524.47 2311.79 1520.93 Q2309.98 1517.37 2306.35 1517.37 M2306.35 1513.66 Q2312.16 1513.66 2315.21 1518.27 Q2318.29 1522.85 2318.29 1531.6 Q2318.29 1540.33 2315.21 1544.94 Q2312.16 1549.52 2306.35 1549.52 Q2300.54 1549.52 2297.46 1544.94 Q2294.4 1540.33 2294.4 1531.6 Q2294.4 1522.85 2297.46 1518.27 Q2300.54 1513.66 2306.35 1513.66 Z" fill="#000000" fill-rule="nonzero" fill-opacity="1" /><path clip-path="url(#clip650)" d="M2336.51 1517.37 Q2332.9 1517.37 2331.07 1520.93 Q2329.26 1524.47 2329.26 1531.6 Q2329.26 1538.71 2331.07 1542.27 Q2332.9 1545.82 2336.51 1545.82 Q2340.14 1545.82 2341.95 1542.27 Q2343.78 1538.71 2343.78 1531.6 Q2343.78 1524.47 2341.95 1520.93 Q2340.14 1517.37 2336.51 1517.37 M2336.51 1513.66 Q2342.32 1513.66 2345.38 1518.27 Q2348.45 1522.85 2348.45 1531.6 Q2348.45 1540.33 2345.38 1544.94 Q2342.32 1549.52 2336.51 1549.52 Q2330.7 1549.52 2327.62 1544.94 Q2324.57 1540.33 2324.57 1531.6 Q2324.57 1522.85 2327.62 1518.27 Q2330.7 1513.66 2336.51 1513.66 Z" fill="#000000" fill-rule="nonzero" fill-opacity="1" /><polyline clip-path="url(#clip652)" style="stroke:#000000; stroke-linecap:round; stroke-linejoin:round; stroke-width:2; stroke-opacity:0.1; fill:none" points="186.274,1224.4 2352.76,1224.4 "/>
<polyline clip-path="url(#clip652)" style="stroke:#000000; stroke-linecap:round; stroke-linejoin:round; stroke-width:2; stroke-opacity:0.1; fill:none" points="186.274,949.893 2352.76,949.893 "/>
<polyline clip-path="url(#clip652)" style="stroke:#000000; stroke-linecap:round; stroke-linejoin:round; stroke-width:2; stroke-opacity:0.1; fill:none" points="186.274,675.391 2352.76,675.391 "/>
<polyline clip-path="url(#clip652)" style="stroke:#000000; stroke-linecap:round; stroke-linejoin:round; stroke-width:2; stroke-opacity:0.1; fill:none" points="186.274,400.889 2352.76,400.889 "/>
<polyline clip-path="url(#clip652)" style="stroke:#000000; stroke-linecap:round; stroke-linejoin:round; stroke-width:2; stroke-opacity:0.1; fill:none" points="186.274,126.386 2352.76,126.386 "/>
<polyline clip-path="url(#clip650)" style="stroke:#000000; stroke-linecap:round; stroke-linejoin:round; stroke-width:4; stroke-opacity:1; fill:none" points="186.274,1486.45 186.274,47.2441 "/>
<polyline clip-path="url(#clip650)" style="stroke:#000000; stroke-linecap:round; stroke-linejoin:round; stroke-width:4; stroke-opacity:1; fill:none" points="186.274,1224.4 205.172,1224.4 "/>
<polyline clip-path="url(#clip650)" style="stroke:#000000; stroke-linecap:round; stroke-linejoin:round; stroke-width:4; stroke-opacity:1; fill:none" points="186.274,949.893 205.172,949.893 "/>
<polyline clip-path="url(#clip650)" style="stroke:#000000; stroke-linecap:round; stroke-linejoin:round; stroke-width:4; stroke-opacity:1; fill:none" points="186.274,675.391 205.172,675.391 "/>
<polyline clip-path="url(#clip650)" style="stroke:#000000; stroke-linecap:round; stroke-linejoin:round; stroke-width:4; stroke-opacity:1; fill:none" points="186.274,400.889 205.172,400.889 "/>
<polyline clip-path="url(#clip650)" style="stroke:#000000; stroke-linecap:round; stroke-linejoin:round; stroke-width:4; stroke-opacity:1; fill:none" points="186.274,126.386 205.172,126.386 "/>
<path clip-path="url(#clip650)" d="M63.9319 1210.19 Q60.3208 1210.19 58.4921 1213.76 Q56.6865 1217.3 56.6865 1224.43 Q56.6865 1231.54 58.4921 1235.1 Q60.3208 1238.64 63.9319 1238.64 Q67.5661 1238.64 69.3717 1235.1 Q71.2004 1231.54 71.2004 1224.43 Q71.2004 1217.3 69.3717 1213.76 Q67.5661 1210.19 63.9319 1210.19 M63.9319 1206.49 Q69.742 1206.49 72.7976 1211.1 Q75.8763 1215.68 75.8763 1224.43 Q75.8763 1233.16 72.7976 1237.76 Q69.742 1242.35 63.9319 1242.35 Q58.1217 1242.35 55.043 1237.76 Q51.9875 1233.16 51.9875 1224.43 Q51.9875 1215.68 55.043 1211.1 Q58.1217 1206.49 63.9319 1206.49 Z" fill="#000000" fill-rule="nonzero" fill-opacity="1" /><path clip-path="url(#clip650)" d="M84.0938 1235.8 L88.978 1235.8 L88.978 1241.68 L84.0938 1241.68 L84.0938 1235.8 Z" fill="#000000" fill-rule="nonzero" fill-opacity="1" /><path clip-path="url(#clip650)" d="M109.163 1210.19 Q105.552 1210.19 103.723 1213.76 Q101.918 1217.3 101.918 1224.43 Q101.918 1231.54 103.723 1235.1 Q105.552 1238.64 109.163 1238.64 Q112.797 1238.64 114.603 1235.1 Q116.432 1231.54 116.432 1224.43 Q116.432 1217.3 114.603 1213.76 Q112.797 1210.19 109.163 1210.19 M109.163 1206.49 Q114.973 1206.49 118.029 1211.1 Q121.107 1215.68 121.107 1224.43 Q121.107 1233.16 118.029 1237.76 Q114.973 1242.35 109.163 1242.35 Q103.353 1242.35 100.274 1237.76 Q97.2187 1233.16 97.2187 1224.43 Q97.2187 1215.68 100.274 1211.1 Q103.353 1206.49 109.163 1206.49 Z" fill="#000000" fill-rule="nonzero" fill-opacity="1" /><path clip-path="url(#clip650)" d="M129.371 1207.12 L147.728 1207.12 L147.728 1211.05 L133.654 1211.05 L133.654 1219.52 Q134.672 1219.18 135.691 1219.01 Q136.709 1218.83 137.728 1218.83 Q143.515 1218.83 146.894 1222 Q150.274 1225.17 150.274 1230.59 Q150.274 1236.17 146.802 1239.27 Q143.33 1242.35 137.01 1242.35 Q134.834 1242.35 132.566 1241.98 Q130.32 1241.61 127.913 1240.87 L127.913 1236.17 Q129.996 1237.3 132.219 1237.86 Q134.441 1238.41 136.918 1238.41 Q140.922 1238.41 143.26 1236.31 Q145.598 1234.2 145.598 1230.59 Q145.598 1226.98 143.26 1224.87 Q140.922 1222.76 136.918 1222.76 Q135.043 1222.76 133.168 1223.18 Q131.316 1223.6 129.371 1224.48 L129.371 1207.12 Z" fill="#000000" fill-rule="nonzero" fill-opacity="1" /><path clip-path="url(#clip650)" d="M62.9365 935.692 Q59.3254 935.692 57.4967 939.257 Q55.6912 942.799 55.6912 949.928 Q55.6912 957.035 57.4967 960.599 Q59.3254 964.141 62.9365 964.141 Q66.5707 964.141 68.3763 960.599 Q70.205 957.035 70.205 949.928 Q70.205 942.799 68.3763 939.257 Q66.5707 935.692 62.9365 935.692 M62.9365 931.988 Q68.7467 931.988 71.8022 936.595 Q74.8809 941.178 74.8809 949.928 Q74.8809 958.655 71.8022 963.261 Q68.7467 967.845 62.9365 967.845 Q57.1264 967.845 54.0477 963.261 Q50.9921 958.655 50.9921 949.928 Q50.9921 941.178 54.0477 936.595 Q57.1264 931.988 62.9365 931.988 Z" fill="#000000" fill-rule="nonzero" fill-opacity="1" /><path clip-path="url(#clip650)" d="M83.0984 961.294 L87.9827 961.294 L87.9827 967.173 L83.0984 967.173 L83.0984 961.294 Z" fill="#000000" fill-rule="nonzero" fill-opacity="1" /><path clip-path="url(#clip650)" d="M98.978 963.238 L106.617 963.238 L106.617 936.873 L98.3067 938.539 L98.3067 934.28 L106.571 932.613 L111.246 932.613 L111.246 963.238 L118.885 963.238 L118.885 967.173 L98.978 967.173 L98.978 963.238 Z" fill="#000000" fill-rule="nonzero" fill-opacity="1" /><path clip-path="url(#clip650)" d="M138.33 935.692 Q134.719 935.692 132.89 939.257 Q131.084 942.799 131.084 949.928 Q131.084 957.035 132.89 960.599 Q134.719 964.141 138.33 964.141 Q141.964 964.141 143.769 960.599 Q145.598 957.035 145.598 949.928 Q145.598 942.799 143.769 939.257 Q141.964 935.692 138.33 935.692 M138.33 931.988 Q144.14 931.988 147.195 936.595 Q150.274 941.178 150.274 949.928 Q150.274 958.655 147.195 963.261 Q144.14 967.845 138.33 967.845 Q132.519 967.845 129.441 963.261 Q126.385 958.655 126.385 949.928 Q126.385 941.178 129.441 936.595 Q132.519 931.988 138.33 931.988 Z" fill="#000000" fill-rule="nonzero" fill-opacity="1" /><path clip-path="url(#clip650)" d="M63.9319 661.19 Q60.3208 661.19 58.4921 664.755 Q56.6865 668.296 56.6865 675.426 Q56.6865 682.532 58.4921 686.097 Q60.3208 689.639 63.9319 689.639 Q67.5661 689.639 69.3717 686.097 Q71.2004 682.532 71.2004 675.426 Q71.2004 668.296 69.3717 664.755 Q67.5661 661.19 63.9319 661.19 M63.9319 657.486 Q69.742 657.486 72.7976 662.093 Q75.8763 666.676 75.8763 675.426 Q75.8763 684.153 72.7976 688.759 Q69.742 693.342 63.9319 693.342 Q58.1217 693.342 55.043 688.759 Q51.9875 684.153 51.9875 675.426 Q51.9875 666.676 55.043 662.093 Q58.1217 657.486 63.9319 657.486 Z" fill="#000000" fill-rule="nonzero" fill-opacity="1" /><path clip-path="url(#clip650)" d="M84.0938 686.791 L88.978 686.791 L88.978 692.671 L84.0938 692.671 L84.0938 686.791 Z" fill="#000000" fill-rule="nonzero" fill-opacity="1" /><path clip-path="url(#clip650)" d="M99.9733 688.736 L107.612 688.736 L107.612 662.37 L99.3021 664.037 L99.3021 659.778 L107.566 658.111 L112.242 658.111 L112.242 688.736 L119.881 688.736 L119.881 692.671 L99.9733 692.671 L99.9733 688.736 Z" fill="#000000" fill-rule="nonzero" fill-opacity="1" /><path clip-path="url(#clip650)" d="M129.371 658.111 L147.728 658.111 L147.728 662.046 L133.654 662.046 L133.654 670.518 Q134.672 670.171 135.691 670.009 Q136.709 669.824 137.728 669.824 Q143.515 669.824 146.894 672.995 Q150.274 676.167 150.274 681.583 Q150.274 687.162 146.802 690.264 Q143.33 693.342 137.01 693.342 Q134.834 693.342 132.566 692.972 Q130.32 692.602 127.913 691.861 L127.913 687.162 Q129.996 688.296 132.219 688.852 Q134.441 689.407 136.918 689.407 Q140.922 689.407 143.26 687.301 Q145.598 685.194 145.598 681.583 Q145.598 677.972 143.26 675.866 Q140.922 673.759 136.918 673.759 Q135.043 673.759 133.168 674.176 Q131.316 674.592 129.371 675.472 L129.371 658.111 Z" fill="#000000" fill-rule="nonzero" fill-opacity="1" /><path clip-path="url(#clip650)" d="M62.9365 386.687 Q59.3254 386.687 57.4967 390.252 Q55.6912 393.794 55.6912 400.923 Q55.6912 408.03 57.4967 411.595 Q59.3254 415.136 62.9365 415.136 Q66.5707 415.136 68.3763 411.595 Q70.205 408.03 70.205 400.923 Q70.205 393.794 68.3763 390.252 Q66.5707 386.687 62.9365 386.687 M62.9365 382.984 Q68.7467 382.984 71.8022 387.59 Q74.8809 392.173 74.8809 400.923 Q74.8809 409.65 71.8022 414.257 Q68.7467 418.84 62.9365 418.84 Q57.1264 418.84 54.0477 414.257 Q50.9921 409.65 50.9921 400.923 Q50.9921 392.173 54.0477 387.59 Q57.1264 382.984 62.9365 382.984 Z" fill="#000000" fill-rule="nonzero" fill-opacity="1" /><path clip-path="url(#clip650)" d="M83.0984 412.289 L87.9827 412.289 L87.9827 418.169 L83.0984 418.169 L83.0984 412.289 Z" fill="#000000" fill-rule="nonzero" fill-opacity="1" /><path clip-path="url(#clip650)" d="M102.196 414.233 L118.515 414.233 L118.515 418.169 L96.5706 418.169 L96.5706 414.233 Q99.2326 411.479 103.816 406.849 Q108.422 402.196 109.603 400.854 Q111.848 398.331 112.728 396.595 Q113.631 394.835 113.631 393.146 Q113.631 390.391 111.686 388.655 Q109.765 386.919 106.663 386.919 Q104.464 386.919 102.01 387.683 Q99.5798 388.447 96.8021 389.997 L96.8021 385.275 Q99.6261 384.141 102.08 383.562 Q104.534 382.984 106.571 382.984 Q111.941 382.984 115.135 385.669 Q118.33 388.354 118.33 392.845 Q118.33 394.974 117.52 396.896 Q116.733 398.794 114.626 401.386 Q114.047 402.058 110.946 405.275 Q107.844 408.47 102.196 414.233 Z" fill="#000000" fill-rule="nonzero" fill-opacity="1" /><path clip-path="url(#clip650)" d="M138.33 386.687 Q134.719 386.687 132.89 390.252 Q131.084 393.794 131.084 400.923 Q131.084 408.03 132.89 411.595 Q134.719 415.136 138.33 415.136 Q141.964 415.136 143.769 411.595 Q145.598 408.03 145.598 400.923 Q145.598 393.794 143.769 390.252 Q141.964 386.687 138.33 386.687 M138.33 382.984 Q144.14 382.984 147.195 387.59 Q150.274 392.173 150.274 400.923 Q150.274 409.65 147.195 414.257 Q144.14 418.84 138.33 418.84 Q132.519 418.84 129.441 414.257 Q126.385 409.65 126.385 400.923 Q126.385 392.173 129.441 387.59 Q132.519 382.984 138.33 382.984 Z" fill="#000000" fill-rule="nonzero" fill-opacity="1" /><path clip-path="url(#clip650)" d="M63.9319 112.185 Q60.3208 112.185 58.4921 115.75 Q56.6865 119.291 56.6865 126.421 Q56.6865 133.527 58.4921 137.092 Q60.3208 140.634 63.9319 140.634 Q67.5661 140.634 69.3717 137.092 Q71.2004 133.527 71.2004 126.421 Q71.2004 119.291 69.3717 115.75 Q67.5661 112.185 63.9319 112.185 M63.9319 108.481 Q69.742 108.481 72.7976 113.088 Q75.8763 117.671 75.8763 126.421 Q75.8763 135.148 72.7976 139.754 Q69.742 144.337 63.9319 144.337 Q58.1217 144.337 55.043 139.754 Q51.9875 135.148 51.9875 126.421 Q51.9875 117.671 55.043 113.088 Q58.1217 108.481 63.9319 108.481 Z" fill="#000000" fill-rule="nonzero" fill-opacity="1" /><path clip-path="url(#clip650)" d="M84.0938 137.787 L88.978 137.787 L88.978 143.666 L84.0938 143.666 L84.0938 137.787 Z" fill="#000000" fill-rule="nonzero" fill-opacity="1" /><path clip-path="url(#clip650)" d="M103.191 139.731 L119.51 139.731 L119.51 143.666 L97.566 143.666 L97.566 139.731 Q100.228 136.976 104.811 132.347 Q109.418 127.694 110.598 126.351 Q112.844 123.828 113.723 122.092 Q114.626 120.333 114.626 118.643 Q114.626 115.889 112.682 114.152 Q110.76 112.416 107.658 112.416 Q105.459 112.416 103.006 113.18 Q100.575 113.944 97.7974 115.495 L97.7974 110.773 Q100.621 109.639 103.075 109.06 Q105.529 108.481 107.566 108.481 Q112.936 108.481 116.131 111.166 Q119.325 113.852 119.325 118.342 Q119.325 120.472 118.515 122.393 Q117.728 124.291 115.621 126.884 Q115.043 127.555 111.941 130.773 Q108.839 133.967 103.191 139.731 Z" fill="#000000" fill-rule="nonzero" fill-opacity="1" /><path clip-path="url(#clip650)" d="M129.371 109.106 L147.728 109.106 L147.728 113.041 L133.654 113.041 L133.654 121.514 Q134.672 121.166 135.691 121.004 Q136.709 120.819 137.728 120.819 Q143.515 120.819 146.894 123.99 Q150.274 127.162 150.274 132.578 Q150.274 138.157 146.802 141.259 Q143.33 144.337 137.01 144.337 Q134.834 144.337 132.566 143.967 Q130.32 143.597 127.913 142.856 L127.913 138.157 Q129.996 139.291 132.219 139.847 Q134.441 140.402 136.918 140.402 Q140.922 140.402 143.26 138.296 Q145.598 136.189 145.598 132.578 Q145.598 128.967 143.26 126.861 Q140.922 124.754 136.918 124.754 Q135.043 124.754 133.168 125.171 Q131.316 125.588 129.371 126.467 L129.371 109.106 Z" fill="#000000" fill-rule="nonzero" fill-opacity="1" /><polyline clip-path="url(#clip652)" style="stroke:#009af9; stroke-linecap:round; stroke-linejoin:round; stroke-width:4; stroke-opacity:1; fill:none" points="247.59,87.9763 248.611,91.0938 249.633,94.2151 250.655,97.3401 251.677,100.469 252.699,103.601 253.721,106.737 254.743,109.876 255.765,113.018 256.787,116.164 257.809,119.313 258.831,122.466 259.853,125.621 260.875,128.78 261.896,131.942 262.918,135.107 263.94,138.275 264.962,141.445 265.984,144.619 267.006,147.795 268.028,150.974 269.05,154.155 270.072,157.34 271.094,160.526 272.116,163.715 273.138,166.907 274.16,170.101 275.182,173.297 276.203,176.495 277.225,179.696 278.247,182.898 279.269,186.103 280.291,189.309 281.313,192.518 282.335,195.728 283.357,198.94 284.379,202.153 285.401,205.369 286.423,208.586 287.445,211.804 288.467,215.024 289.488,218.245 290.51,221.467 291.532,224.691 292.554,227.916 293.576,231.141 294.598,234.368 295.62,237.596 296.642,240.825 297.664,244.054 298.686,247.285 299.708,250.516 300.73,253.747 301.752,256.98 302.774,260.212 303.795,263.445 304.817,266.679 305.839,269.912 306.861,273.146 307.883,276.38 308.905,279.614 309.927,282.848 310.949,286.082 311.971,289.316 312.993,292.55 314.015,295.783 315.037,299.016 316.059,302.248 317.08,305.48 318.102,308.712 319.124,311.943 320.146,315.173 321.168,318.402 322.19,321.63 323.212,324.858 324.234,328.084 325.256,331.31 326.278,334.534 327.3,337.757 328.322,340.979 329.344,344.2 330.365,347.419 331.387,350.637 332.409,353.853 333.431,357.067 334.453,360.28 335.475,363.491 336.497,366.7 337.519,369.908 338.541,373.113 339.563,376.316 340.585,379.517 341.607,382.716 342.629,385.913 343.651,389.108 344.672,392.3 345.694,395.489 346.716,398.676 347.738,401.861 348.76,405.043 349.782,408.222 350.804,411.398 351.826,414.572 352.848,417.742 353.87,420.91 354.892,424.074 355.914,427.236 356.936,430.394 357.957,433.549 358.979,436.7 360.001,439.849 361.023,442.994 362.045,446.135 363.067,449.272 364.089,452.407 365.111,455.537 366.133,458.663 367.155,461.786 368.177,464.905 369.199,468.02 370.221,471.131 371.243,474.238 372.264,477.34 373.286,480.439 374.308,483.533 375.33,486.623 376.352,489.708 377.374,492.789 378.396,495.866 379.418,498.938 380.44,502.005 381.462,505.068 382.484,508.125 383.506,511.179 384.528,514.227 385.549,517.27 386.571,520.309 387.593,523.342 388.615,526.37 389.637,529.393 390.659,532.411 391.681,535.424 392.703,538.431 393.725,541.433 394.747,544.43 395.769,547.421 396.791,550.407 397.813,553.387 398.834,556.362 399.856,559.331 400.878,562.294 401.9,565.251 402.922,568.203 403.944,571.149 404.966,574.089 405.988,577.023 407.01,579.951 408.032,582.873 409.054,585.789 410.076,588.699 411.098,591.602 412.12,594.5 413.141,597.391 414.163,600.275 415.185,603.154 416.207,606.026 417.229,608.892 418.251,611.751 419.273,614.604 420.295,617.45 421.317,620.289 422.339,623.122 423.361,625.949 424.383,628.768 425.405,631.581 426.426,634.387 427.448,637.187 428.47,639.979 429.492,642.765 430.514,645.544 431.536,648.315 432.558,651.08 433.58,653.838 434.602,656.589 435.624,659.332 436.646,662.069 437.668,664.798 438.69,667.521 439.712,670.236 440.733,672.944 441.755,675.644 442.777,678.338 443.799,681.024 444.821,683.703 445.843,686.374 446.865,689.038 447.887,691.695 448.909,694.344 449.931,696.986 450.953,699.62 451.975,702.247 452.997,704.866 454.018,707.478 455.04,710.083 456.062,712.679 457.084,715.268 458.106,717.85 459.128,720.424 460.15,722.99 461.172,725.549 462.194,728.1 463.216,730.643 464.238,733.178 465.26,735.706 466.282,738.226 467.303,740.739 468.325,743.243 469.347,745.74 470.369,748.229 471.391,750.71 472.413,753.184 473.435,755.649 474.457,758.107 475.479,760.557 476.501,762.999 477.523,765.433 478.545,767.859 479.567,770.278 480.589,772.688 481.61,775.091 482.632,777.486 483.654,779.873 484.676,782.252 485.698,784.623 486.72,786.986 487.742,789.341 488.764,791.689 489.786,794.028 490.808,796.36 491.83,798.683 492.852,800.999 493.874,803.307 494.895,805.607 495.917,807.898 496.939,810.182 497.961,812.458 498.983,814.726 500.005,816.987 501.027,819.239 502.049,821.483 503.071,823.72 504.093,825.948 505.115,828.169 506.137,830.381 507.159,832.586 508.181,834.783 509.202,836.972 510.224,839.153 511.246,841.326 512.268,843.492 513.29,845.649 514.312,847.799 515.334,849.94 516.356,852.074 517.378,854.2 518.4,856.319 519.422,858.429 520.444,860.532 521.466,862.627 522.487,864.714 523.509,866.793 524.531,868.864 525.553,870.928 526.575,872.984 527.597,875.032 528.619,877.073 529.641,879.106 530.663,881.131 531.685,883.148 532.707,885.158 533.729,887.16 534.751,889.154 535.772,891.141 536.794,893.12 537.816,895.092 538.838,897.055 539.86,899.012 540.882,900.961 541.904,902.902 542.926,904.836 543.948,906.762 544.97,908.68 545.992,910.592 547.014,912.495 548.036,914.392 549.058,916.28 550.079,918.162 551.101,920.036 552.123,921.902 553.145,923.762 554.167,925.614 555.189,927.458 556.211,929.295 557.233,931.125 558.255,932.948 559.277,934.763 560.299,936.571 561.321,938.372 562.343,940.166 563.364,941.953 564.386,943.732 565.408,945.504 566.43,947.269 567.452,949.027 568.474,950.778 569.496,952.522 570.518,954.259 571.54,955.989 572.562,957.712 573.584,959.427 574.606,961.136 575.628,962.838 576.65,964.533 577.671,966.221 578.693,967.902 579.715,969.577 580.737,971.244 581.759,972.905 582.781,974.559 583.803,976.206 584.825,977.846 585.847,979.48 586.869,981.107 587.891,982.727 588.913,984.34 589.935,985.947 590.956,987.548 591.978,989.141 593,990.729 594.022,992.309 595.044,993.883 596.066,995.451 597.088,997.012 598.11,998.567 599.132,1000.11 600.154,1001.66 601.176,1003.19 602.198,1004.72 603.22,1006.24 604.242,1007.76 605.263,1009.27 606.285,1010.77 607.307,1012.27 608.329,1013.76 609.351,1015.25 610.373,1016.73 611.395,1018.2 612.417,1019.67 613.439,1021.13 614.461,1022.58 615.483,1024.03 616.505,1025.47 617.527,1026.91 618.548,1028.34 619.57,1029.76 620.592,1031.18 621.614,1032.59 622.636,1034 623.658,1035.4 624.68,1036.79 625.702,1038.18 626.724,1039.57 627.746,1040.94 628.768,1042.32 629.79,1043.68 630.812,1045.04 631.833,1046.4 632.855,1047.74 633.877,1049.09 634.899,1050.42 635.921,1051.76 636.943,1053.08 637.965,1054.4 638.987,1055.72 640.009,1057.03 641.031,1058.33 642.053,1059.63 643.075,1060.92 644.097,1062.21 645.119,1063.49 646.14,1064.77 647.162,1066.04 648.184,1067.31 649.206,1068.57 650.228,1069.83 651.25,1071.08 652.272,1072.32 653.294,1073.56 654.316,1074.8 655.338,1076.03 656.36,1077.25 657.382,1078.47 658.404,1079.69 659.425,1080.89 660.447,1082.1 661.469,1083.3 662.491,1084.49 663.513,1085.68 664.535,1086.87 665.557,1088.04 666.579,1089.22 667.601,1090.39 668.623,1091.55 669.645,1092.71 670.667,1093.87 671.689,1095.02 672.711,1096.16 673.732,1097.3 674.754,1098.44 675.776,1099.57 676.798,1100.69 677.82,1101.82 678.842,1102.93 679.864,1104.05 680.886,1105.15 681.908,1106.26 682.93,1107.35 683.952,1108.45 684.974,1109.54 685.996,1110.62 687.017,1111.7 688.039,1112.78 689.061,1113.85 690.083,1114.92 691.105,1115.98 692.127,1117.04 693.149,1118.09 694.171,1119.14 695.193,1120.18 696.215,1121.22 697.237,1122.26 698.259,1123.29 699.281,1124.32 700.302,1125.34 701.324,1126.36 702.346,1127.38 703.368,1128.39 704.39,1129.4 705.412,1130.4 706.434,1131.4 707.456,1132.39 708.478,1133.38 709.5,1134.37 710.522,1135.35 711.544,1136.33 712.566,1137.3 713.588,1138.27 714.609,1139.24 715.631,1140.2 716.653,1141.16 717.675,1142.11 718.697,1143.06 719.719,1144.01 720.741,1144.95 721.763,1145.89 722.785,1146.83 723.807,1147.76 724.829,1148.68 725.851,1149.61 726.873,1150.53 727.894,1151.44 728.916,1152.36 729.938,1153.27 730.96,1154.17 731.982,1155.07 733.004,1155.97 734.026,1156.86 735.048,1157.75 736.07,1158.64 737.092,1159.52 738.114,1160.4 739.136,1161.28 740.158,1162.15 741.18,1163.02 742.201,1163.89 743.223,1164.75 744.245,1165.61 745.267,1166.46 746.289,1167.32 747.311,1168.16 748.333,1169.01 749.355,1169.85 750.377,1170.69 751.399,1171.52 752.421,1172.36 753.443,1173.18 754.465,1174.01 755.486,1174.83 756.508,1175.65 757.53,1176.47 758.552,1177.28 759.574,1178.09 760.596,1178.89 761.618,1179.69 762.64,1180.49 763.662,1181.29 764.684,1182.08 765.706,1182.87 766.728,1183.66 767.75,1184.44 768.771,1185.22 769.793,1186 770.815,1186.77 771.837,1187.54 772.859,1188.31 773.881,1189.08 774.903,1189.84 775.925,1190.6 776.947,1191.36 777.969,1192.11 778.991,1192.86 780.013,1193.61 781.035,1194.35 782.057,1195.09 783.078,1195.83 784.1,1196.57 785.122,1197.3 786.144,1198.03 787.166,1198.76 788.188,1199.48 789.21,1200.2 790.232,1200.92 791.254,1201.64 792.276,1202.35 793.298,1203.06 794.32,1203.77 795.342,1204.48 796.363,1205.18 797.385,1205.88 798.407,1206.58 799.429,1207.27 800.451,1207.96 801.473,1208.65 802.495,1209.34 803.517,1210.02 804.539,1210.7 805.561,1211.38 806.583,1212.06 807.605,1212.73 808.627,1213.4 809.649,1214.07 810.67,1214.74 811.692,1215.4 812.714,1216.06 813.736,1216.72 814.758,1217.37 815.78,1218.03 816.802,1218.68 817.824,1219.33 818.846,1219.97 819.868,1220.62 820.89,1221.26 821.912,1221.9 822.934,1222.53 823.955,1223.17 824.977,1223.8 825.999,1224.43 827.021,1225.05 828.043,1225.68 829.065,1226.3 830.087,1226.92 831.109,1227.54 832.131,1228.15 833.153,1228.77 834.175,1229.38 835.197,1229.98 836.219,1230.59 837.24,1231.19 838.262,1231.8 839.284,1232.4 840.306,1232.99 841.328,1233.59 842.35,1234.18 843.372,1234.77 844.394,1235.36 845.416,1235.95 846.438,1236.53 847.46,1237.11 848.482,1237.69 849.504,1238.27 850.526,1238.85 851.547,1239.42 852.569,1239.99 853.591,1240.56 854.613,1241.13 855.635,1241.69 856.657,1242.26 857.679,1242.82 858.701,1243.38 859.723,1243.93 860.745,1244.49 861.767,1245.04 862.789,1245.59 863.811,1246.14 864.832,1246.69 865.854,1247.23 866.876,1247.78 867.898,1248.32 868.92,1248.86 869.942,1249.4 870.964,1249.93 871.986,1250.46 873.008,1251 874.03,1251.53 875.052,1252.05 876.074,1252.58 877.096,1253.1 878.118,1253.63 879.139,1254.15 880.161,1254.67 881.183,1255.18 882.205,1255.7 883.227,1256.21 884.249,1256.72 885.271,1257.23 886.293,1257.74 887.315,1258.25 888.337,1258.75 889.359,1259.25 890.381,1259.75 891.403,1260.25 892.424,1260.75 893.446,1261.24 894.468,1261.74 895.49,1262.23 896.512,1262.72 897.534,1263.21 898.556,1263.69 899.578,1264.18 900.6,1264.66 901.622,1265.15 902.644,1265.63 903.666,1266.1 904.688,1266.58 905.71,1267.06 906.731,1267.53 907.753,1268 908.775,1268.47 909.797,1268.94 910.819,1269.41 911.841,1269.87 912.863,1270.34 913.885,1270.8 914.907,1271.26 915.929,1271.72 916.951,1272.18 917.973,1272.63 918.995,1273.09 920.016,1273.54 921.038,1273.99 922.06,1274.44 923.082,1274.89 924.104,1275.34 925.126,1275.78 926.148,1276.22 927.17,1276.67 928.192,1277.11 929.214,1277.55 930.236,1277.98 931.258,1278.42 932.28,1278.86 933.301,1279.29 934.323,1279.72 935.345,1280.15 936.367,1280.58 937.389,1281.01 938.411,1281.43 939.433,1281.86 940.455,1282.28 941.477,1282.71 942.499,1283.13 943.521,1283.55 944.543,1283.96 945.565,1284.38 946.587,1284.79 947.608,1285.21 948.63,1285.62 949.652,1286.03 950.674,1286.44 951.696,1286.85 952.718,1287.26 953.74,1287.66 954.762,1288.07 955.784,1288.47 956.806,1288.87 957.828,1289.27 958.85,1289.67 959.872,1290.07 960.893,1290.46 961.915,1290.86 962.937,1291.25 963.959,1291.65 964.981,1292.04 966.003,1292.43 967.025,1292.82 968.047,1293.2 969.069,1293.59 970.091,1293.97 971.113,1294.36 972.135,1294.74 973.157,1295.12 974.179,1295.5 975.2,1295.88 976.222,1296.26 977.244,1296.64 978.266,1297.01 979.288,1297.39 980.31,1297.76 981.332,1298.13 982.354,1298.5 983.376,1298.87 984.398,1299.24 985.42,1299.6 986.442,1299.97 987.464,1300.34 988.485,1300.7 989.507,1301.06 990.529,1301.42 991.551,1301.78 992.573,1302.14 993.595,1302.5 994.617,1302.86 995.639,1303.21 996.661,1303.57 997.683,1303.92 998.705,1304.27 999.727,1304.62 1000.75,1304.97 1001.77,1305.32 1002.79,1305.67 1003.81,1306.02 1004.84,1306.36 1005.86,1306.71 1006.88,1307.05 1007.9,1307.39 1008.92,1307.73 1009.95,1308.08 1010.97,1308.41 1011.99,1308.75 1013.01,1309.09 1014.03,1309.43 1015.06,1309.76 1016.08,1310.1 1017.1,1310.43 1018.12,1310.76 1019.14,1311.09 1020.17,1311.42 1021.19,1311.75 1022.21,1312.08 1023.23,1312.41 1024.25,1312.73 1025.27,1313.06 1026.3,1313.38 1027.32,1313.71 1028.34,1314.03 1029.36,1314.35 1030.38,1314.67 1031.41,1314.99 1032.43,1315.31 1033.45,1315.62 1034.47,1315.94 1035.49,1316.26 1036.52,1316.57 1037.54,1316.88 1038.56,1317.2 1039.58,1317.51 1040.6,1317.82 1041.63,1318.13 1042.65,1318.44 1043.67,1318.75 1044.69,1319.05 1045.71,1319.36 1046.74,1319.66 1047.76,1319.97 1048.78,1320.27 1049.8,1320.57 1050.82,1320.88 1051.84,1321.18 1052.87,1321.48 1053.89,1321.78 1054.91,1322.07 1055.93,1322.37 1056.95,1322.67 1057.98,1322.96 1059,1323.26 1060.02,1323.55 1061.04,1323.84 1062.06,1324.14 1063.09,1324.43 1064.11,1324.72 1065.13,1325.01 1066.15,1325.3 1067.17,1325.58 1068.2,1325.87 1069.22,1326.16 1070.24,1326.44 1071.26,1326.73 1072.28,1327.01 1073.31,1327.29 1074.33,1327.58 1075.35,1327.86 1076.37,1328.14 1077.39,1328.42 1078.41,1328.7 1079.44,1328.97 1080.46,1329.25 1081.48,1329.53 1082.5,1329.8 1083.52,1330.08 1084.55,1330.35 1085.57,1330.62 1086.59,1330.9 1087.61,1331.17 1088.63,1331.44 1089.66,1331.71 1090.68,1331.98 1091.7,1332.25 1092.72,1332.52 1093.74,1332.78 1094.77,1333.05 1095.79,1333.31 1096.81,1333.58 1097.83,1333.84 1098.85,1334.11 1099.88,1334.37 1100.9,1334.63 1101.92,1334.89 1102.94,1335.15 1103.96,1335.41 1104.98,1335.67 1106.01,1335.93 1107.03,1336.19 1108.05,1336.44 1109.07,1336.7 1110.09,1336.96 1111.12,1337.21 1112.14,1337.46 1113.16,1337.72 1114.18,1337.97 1115.2,1338.22 1116.23,1338.47 1117.25,1338.72 1118.27,1338.97 1119.29,1339.22 1120.31,1339.47 1121.34,1339.72 1122.36,1339.97 1123.38,1340.21 1124.4,1340.46 1125.42,1340.7 1126.45,1340.95 1127.47,1341.19 1128.49,1341.43 1129.51,1341.68 1130.53,1341.92 1131.56,1342.16 1132.58,1342.4 1133.6,1342.64 1134.62,1342.88 1135.64,1343.12 1136.66,1343.35 1137.69,1343.59 1138.71,1343.83 1139.73,1344.06 1140.75,1344.3 1141.77,1344.53 1142.8,1344.77 1143.82,1345 1144.84,1345.23 1145.86,1345.47 1146.88,1345.7 1147.91,1345.93 1148.93,1346.16 1149.95,1346.39 1150.97,1346.62 1151.99,1346.85 1153.02,1347.07 1154.04,1347.3 1155.06,1347.53 1156.08,1347.75 1157.1,1347.98 1158.13,1348.2 1159.15,1348.43 1160.17,1348.65 1161.19,1348.87 1162.21,1349.1 1163.23,1349.32 1164.26,1349.54 1165.28,1349.76 1166.3,1349.98 1167.32,1350.2 1168.34,1350.42 1169.37,1350.64 1170.39,1350.85 1171.41,1351.07 1172.43,1351.29 1173.45,1351.5 1174.48,1351.72 1175.5,1351.93 1176.52,1352.15 1177.54,1352.36 1178.56,1352.58 1179.59,1352.79 1180.61,1353 1181.63,1353.21 1182.65,1353.42 1183.67,1353.63 1184.7,1353.84 1185.72,1354.05 1186.74,1354.26 1187.76,1354.47 1188.78,1354.68 1189.8,1354.89 1190.83,1355.09 1191.85,1355.3 1192.87,1355.5 1193.89,1355.71 1194.91,1355.91 1195.94,1356.12 1196.96,1356.32 1197.98,1356.53 1199,1356.73 1200.02,1356.93 1201.05,1357.13 1202.07,1357.33 1203.09,1357.53 1204.11,1357.73 1205.13,1357.93 1206.16,1358.13 1207.18,1358.33 1208.2,1358.53 1209.22,1358.73 1210.24,1358.92 1211.27,1359.12 1212.29,1359.32 1213.31,1359.51 1214.33,1359.71 1215.35,1359.9 1216.37,1360.09 1217.4,1360.29 1218.42,1360.48 1219.44,1360.67 1220.46,1360.87 1221.48,1361.06 1222.51,1361.25 1223.53,1361.44 1224.55,1361.63 1225.57,1361.82 1226.59,1362.01 1227.62,1362.2 1228.64,1362.39 1229.66,1362.57 1230.68,1362.76 1231.7,1362.95 1232.73,1363.13 1233.75,1363.32 1234.77,1363.51 1235.79,1363.69 1236.81,1363.88 1237.84,1364.06 1238.86,1364.24 1239.88,1364.43 1240.9,1364.61 1241.92,1364.79 1242.94,1364.98 1243.97,1365.16 1244.99,1365.34 1246.01,1365.52 1247.03,1365.7 1248.05,1365.88 1249.08,1366.06 1250.1,1366.24 1251.12,1366.42 1252.14,1366.59 1253.16,1366.77 1254.19,1366.95 1255.21,1367.12 1256.23,1367.3 1257.25,1367.48 1258.27,1367.65 1259.3,1367.83 1260.32,1368 1261.34,1368.18 1262.36,1368.35 1263.38,1368.52 1264.41,1368.7 1265.43,1368.87 1266.45,1369.04 1267.47,1369.21 1268.49,1369.38 1269.51,1369.56 1270.54,1369.73 1271.56,1369.9 1272.58,1370.07 1273.6,1370.24 1274.62,1370.4 1275.65,1370.57 1276.67,1370.74 1277.69,1370.91 1278.71,1371.08 1279.73,1371.24 1280.76,1371.41 1281.78,1371.58 1282.8,1371.74 1283.82,1371.91 1284.84,1372.07 1285.87,1372.24 1286.89,1372.4 1287.91,1372.56 1288.93,1372.73 1289.95,1372.89 1290.98,1373.05 1292,1373.22 1293.02,1373.38 1294.04,1373.54 1295.06,1373.7 1296.09,1373.86 1297.11,1374.02 1298.13,1374.18 1299.15,1374.34 1300.17,1374.5 1301.19,1374.66 1302.22,1374.82 1303.24,1374.98 1304.26,1375.13 1305.28,1375.29 1306.3,1375.45 1307.33,1375.61 1308.35,1375.76 1309.37,1375.92 1310.39,1376.07 1311.41,1376.23 1312.44,1376.38 1313.46,1376.54 1314.48,1376.69 1315.5,1376.85 1316.52,1377 1317.55,1377.15 1318.57,1377.31 1319.59,1377.46 1320.61,1377.61 1321.63,1377.76 1322.66,1377.91 1323.68,1378.07 1324.7,1378.22 1325.72,1378.37 1326.74,1378.52 1327.76,1378.67 1328.79,1378.82 1329.81,1378.97 1330.83,1379.11 1331.85,1379.26 1332.87,1379.41 1333.9,1379.56 1334.92,1379.71 1335.94,1379.85 1336.96,1380 1337.98,1380.15 1339.01,1380.29 1340.03,1380.44 1341.05,1380.58 1342.07,1380.73 1343.09,1380.87 1344.12,1381.02 1345.14,1381.16 1346.16,1381.31 1347.18,1381.45 1348.2,1381.59 1349.23,1381.74 1350.25,1381.88 1351.27,1382.02 1352.29,1382.16 1353.31,1382.3 1354.33,1382.45 1355.36,1382.59 1356.38,1382.73 1357.4,1382.87 1358.42,1383.01 1359.44,1383.15 1360.47,1383.29 1361.49,1383.43 1362.51,1383.57 1363.53,1383.7 1364.55,1383.84 1365.58,1383.98 1366.6,1384.12 1367.62,1384.26 1368.64,1384.39 1369.66,1384.53 1370.69,1384.67 1371.71,1384.8 1372.73,1384.94 1373.75,1385.07 1374.77,1385.21 1375.8,1385.34 1376.82,1385.48 1377.84,1385.61 1378.86,1385.75 1379.88,1385.88 1380.9,1386.01 1381.93,1386.15 1382.95,1386.28 1383.97,1386.41 1384.99,1386.55 1386.01,1386.68 1387.04,1386.81 1388.06,1386.94 1389.08,1387.07 1390.1,1387.2 1391.12,1387.33 1392.15,1387.46 1393.17,1387.59 1394.19,1387.72 1395.21,1387.85 1396.23,1387.98 1397.26,1388.11 1398.28,1388.24 1399.3,1388.37 1400.32,1388.5 1401.34,1388.63 1402.37,1388.75 1403.39,1388.88 1404.41,1389.01 1405.43,1389.14 1406.45,1389.26 1407.47,1389.39 1408.5,1389.51 1409.52,1389.64 1410.54,1389.77 1411.56,1389.89 1412.58,1390.02 1413.61,1390.14 1414.63,1390.27 1415.65,1390.39 1416.67,1390.51 1417.69,1390.64 1418.72,1390.76 1419.74,1390.88 1420.76,1391.01 1421.78,1391.13 1422.8,1391.25 1423.83,1391.37 1424.85,1391.5 1425.87,1391.62 1426.89,1391.74 1427.91,1391.86 1428.94,1391.98 1429.96,1392.1 1430.98,1392.22 1432,1392.34 1433.02,1392.46 1434.04,1392.58 1435.07,1392.7 1436.09,1392.82 1437.11,1392.94 1438.13,1393.06 1439.15,1393.18 1440.18,1393.3 1441.2,1393.41 1442.22,1393.53 1443.24,1393.65 1444.26,1393.77 1445.29,1393.88 1446.31,1394 1447.33,1394.12 1448.35,1394.23 1449.37,1394.35 1450.4,1394.47 1451.42,1394.58 1452.44,1394.7 1453.46,1394.81 1454.48,1394.93 1455.51,1395.04 1456.53,1395.16 1457.55,1395.27 1458.57,1395.38 1459.59,1395.5 1460.62,1395.61 1461.64,1395.73 1462.66,1395.84 1463.68,1395.95 1464.7,1396.06 1465.72,1396.18 1466.75,1396.29 1467.77,1396.4 1468.79,1396.51 1469.81,1396.62 1470.83,1396.73 1471.86,1396.85 1472.88,1396.96 1473.9,1397.07 1474.92,1397.18 1475.94,1397.29 1476.97,1397.4 1477.99,1397.51 1479.01,1397.62 1480.03,1397.73 1481.05,1397.84 1482.08,1397.94 1483.1,1398.05 1484.12,1398.16 1485.14,1398.27 1486.16,1398.38 1487.19,1398.49 1488.21,1398.59 1489.23,1398.7 1490.25,1398.81 1491.27,1398.92 1492.29,1399.02 1493.32,1399.13 1494.34,1399.23 1495.36,1399.34 1496.38,1399.45 1497.4,1399.55 1498.43,1399.66 1499.45,1399.76 1500.47,1399.87 1501.49,1399.97 1502.51,1400.08 1503.54,1400.18 1504.56,1400.29 1505.58,1400.39 1506.6,1400.5 1507.62,1400.6 1508.65,1400.7 1509.67,1400.81 1510.69,1400.91 1511.71,1401.01 1512.73,1401.11 1513.76,1401.22 1514.78,1401.32 1515.8,1401.42 1516.82,1401.52 1517.84,1401.62 1518.86,1401.73 1519.89,1401.83 1520.91,1401.93 1521.93,1402.03 1522.95,1402.13 1523.97,1402.23 1525,1402.33 1526.02,1402.43 1527.04,1402.53 1528.06,1402.63 1529.08,1402.73 1530.11,1402.83 1531.13,1402.93 1532.15,1403.03 1533.17,1403.13 1534.19,1403.23 1535.22,1403.32 1536.24,1403.42 1537.26,1403.52 1538.28,1403.62 1539.3,1403.72 1540.33,1403.81 1541.35,1403.91 1542.37,1404.01 1543.39,1404.11 1544.41,1404.2 1545.43,1404.3 1546.46,1404.4 1547.48,1404.49 1548.5,1404.59 1549.52,1404.68 1550.54,1404.78 1551.57,1404.88 1552.59,1404.97 1553.61,1405.07 1554.63,1405.16 1555.65,1405.26 1556.68,1405.35 1557.7,1405.44 1558.72,1405.54 1559.74,1405.63 1560.76,1405.73 1561.79,1405.82 1562.81,1405.91 1563.83,1406.01 1564.85,1406.1 1565.87,1406.19 1566.9,1406.29 1567.92,1406.38 1568.94,1406.47 1569.96,1406.57 1570.98,1406.66 1572,1406.75 1573.03,1406.84 1574.05,1406.93 1575.07,1407.02 1576.09,1407.12 1577.11,1407.21 1578.14,1407.3 1579.16,1407.39 1580.18,1407.48 1581.2,1407.57 1582.22,1407.66 1583.25,1407.75 1584.27,1407.84 1585.29,1407.93 1586.31,1408.02 1587.33,1408.11 1588.36,1408.2 1589.38,1408.29 1590.4,1408.38 1591.42,1408.47 1592.44,1408.56 1593.47,1408.64 1594.49,1408.73 1595.51,1408.82 1596.53,1408.91 1597.55,1409 1598.57,1409.09 1599.6,1409.17 1600.62,1409.26 1601.64,1409.35 1602.66,1409.43 1603.68,1409.52 1604.71,1409.61 1605.73,1409.7 1606.75,1409.78 1607.77,1409.87 1608.79,1409.95 1609.82,1410.04 1610.84,1410.13 1611.86,1410.21 1612.88,1410.3 1613.9,1410.38 1614.93,1410.47 1615.95,1410.55 1616.97,1410.64 1617.99,1410.72 1619.01,1410.81 1620.04,1410.89 1621.06,1410.98 1622.08,1411.06 1623.1,1411.15 1624.12,1411.23 1625.15,1411.31 1626.17,1411.4 1627.19,1411.48 1628.21,1411.56 1629.23,1411.65 1630.25,1411.73 1631.28,1411.81 1632.3,1411.9 1633.32,1411.98 1634.34,1412.06 1635.36,1412.14 1636.39,1412.23 1637.41,1412.31 1638.43,1412.39 1639.45,1412.47 1640.47,1412.55 1641.5,1412.64 1642.52,1412.72 1643.54,1412.8 1644.56,1412.88 1645.58,1412.96 1646.61,1413.04 1647.63,1413.12 1648.65,1413.2 1649.67,1413.28 1650.69,1413.36 1651.72,1413.44 1652.74,1413.52 1653.76,1413.6 1654.78,1413.68 1655.8,1413.76 1656.82,1413.84 1657.85,1413.92 1658.87,1414 1659.89,1414.08 1660.91,1414.16 1661.93,1414.24 1662.96,1414.31 1663.98,1414.39 1665,1414.47 1666.02,1414.55 1667.04,1414.63 1668.07,1414.71 1669.09,1414.78 1670.11,1414.86 1671.13,1414.94 1672.15,1415.02 1673.18,1415.09 1674.2,1415.17 1675.22,1415.25 1676.24,1415.32 1677.26,1415.4 1678.29,1415.48 1679.31,1415.55 1680.33,1415.63 1681.35,1415.71 1682.37,1415.78 1683.39,1415.86 1684.42,1415.93 1685.44,1416.01 1686.46,1416.09 1687.48,1416.16 1688.5,1416.24 1689.53,1416.31 1690.55,1416.39 1691.57,1416.46 1692.59,1416.54 1693.61,1416.61 1694.64,1416.69 1695.66,1416.76 1696.68,1416.83 1697.7,1416.91 1698.72,1416.98 1699.75,1417.06 1700.77,1417.13 1701.79,1417.2 1702.81,1417.28 1703.83,1417.35 1704.86,1417.42 1705.88,1417.5 1706.9,1417.57 1707.92,1417.64 1708.94,1417.72 1709.96,1417.79 1710.99,1417.86 1712.01,1417.93 1713.03,1418.01 1714.05,1418.08 1715.07,1418.15 1716.1,1418.22 1717.12,1418.29 1718.14,1418.37 1719.16,1418.44 1720.18,1418.51 1721.21,1418.58 1722.23,1418.65 1723.25,1418.72 1724.27,1418.79 1725.29,1418.87 1726.32,1418.94 1727.34,1419.01 1728.36,1419.08 1729.38,1419.15 1730.4,1419.22 1731.43,1419.29 1732.45,1419.36 1733.47,1419.43 1734.49,1419.5 1735.51,1419.57 1736.53,1419.64 1737.56,1419.71 1738.58,1419.78 1739.6,1419.85 1740.62,1419.92 1741.64,1419.98 1742.67,1420.05 1743.69,1420.12 1744.71,1420.19 1745.73,1420.26 1746.75,1420.33 1747.78,1420.4 1748.8,1420.47 1749.82,1420.53 1750.84,1420.6 1751.86,1420.67 1752.89,1420.74 1753.91,1420.8 1754.93,1420.87 1755.95,1420.94 1756.97,1421.01 1758,1421.07 1759.02,1421.14 1760.04,1421.21 1761.06,1421.28 1762.08,1421.34 1763.1,1421.41 1764.13,1421.48 1765.15,1421.54 1766.17,1421.61 1767.19,1421.68 1768.21,1421.74 1769.24,1421.81 1770.26,1421.87 1771.28,1421.94 1772.3,1422.01 1773.32,1422.07 1774.35,1422.14 1775.37,1422.2 1776.39,1422.27 1777.41,1422.33 1778.43,1422.4 1779.46,1422.46 1780.48,1422.53 1781.5,1422.59 1782.52,1422.66 1783.54,1422.72 1784.57,1422.79 1785.59,1422.85 1786.61,1422.92 1787.63,1422.98 1788.65,1423.05 1789.67,1423.11 1790.7,1423.17 1791.72,1423.24 1792.74,1423.3 1793.76,1423.37 1794.78,1423.43 1795.81,1423.49 1796.83,1423.56 1797.85,1423.62 1798.87,1423.68 1799.89,1423.75 1800.92,1423.81 1801.94,1423.87 1802.96,1423.93 1803.98,1424 1805,1424.06 1806.03,1424.12 1807.05,1424.18 1808.07,1424.25 1809.09,1424.31 1810.11,1424.37 1811.14,1424.43 1812.16,1424.49 1813.18,1424.56 1814.2,1424.62 1815.22,1424.68 1816.25,1424.74 1817.27,1424.8 1818.29,1424.86 1819.31,1424.93 1820.33,1424.99 1821.35,1425.05 1822.38,1425.11 1823.4,1425.17 1824.42,1425.23 1825.44,1425.29 1826.46,1425.35 1827.49,1425.41 1828.51,1425.47 1829.53,1425.53 1830.55,1425.59 1831.57,1425.65 1832.6,1425.71 1833.62,1425.77 1834.64,1425.83 1835.66,1425.89 1836.68,1425.95 1837.71,1426.01 1838.73,1426.07 1839.75,1426.13 1840.77,1426.19 1841.79,1426.25 1842.82,1426.31 1843.84,1426.37 1844.86,1426.43 1845.88,1426.49 1846.9,1426.54 1847.92,1426.6 1848.95,1426.66 1849.97,1426.72 1850.99,1426.78 1852.01,1426.84 1853.03,1426.9 1854.06,1426.95 1855.08,1427.01 1856.1,1427.07 1857.12,1427.13 1858.14,1427.19 1859.17,1427.24 1860.19,1427.3 1861.21,1427.36 1862.23,1427.42 1863.25,1427.47 1864.28,1427.53 1865.3,1427.59 1866.32,1427.65 1867.34,1427.7 1868.36,1427.76 1869.39,1427.82 1870.41,1427.87 1871.43,1427.93 1872.45,1427.99 1873.47,1428.04 1874.49,1428.1 1875.52,1428.16 1876.54,1428.21 1877.56,1428.27 1878.58,1428.32 1879.6,1428.38 1880.63,1428.44 1881.65,1428.49 1882.67,1428.55 1883.69,1428.6 1884.71,1428.66 1885.74,1428.71 1886.76,1428.77 1887.78,1428.83 1888.8,1428.88 1889.82,1428.94 1890.85,1428.99 1891.87,1429.05 1892.89,1429.1 1893.91,1429.16 1894.93,1429.21 1895.96,1429.27 1896.98,1429.32 1898,1429.37 1899.02,1429.43 1900.04,1429.48 1901.06,1429.54 1902.09,1429.59 1903.11,1429.65 1904.13,1429.7 1905.15,1429.75 1906.17,1429.81 1907.2,1429.86 1908.22,1429.92 1909.24,1429.97 1910.26,1430.02 1911.28,1430.08 1912.31,1430.13 1913.33,1430.18 1914.35,1430.24 1915.37,1430.29 1916.39,1430.34 1917.42,1430.4 1918.44,1430.45 1919.46,1430.5 1920.48,1430.56 1921.5,1430.61 1922.53,1430.66 1923.55,1430.71 1924.57,1430.77 1925.59,1430.82 1926.61,1430.87 1927.63,1430.92 1928.66,1430.98 1929.68,1431.03 1930.7,1431.08 1931.72,1431.13 1932.74,1431.18 1933.77,1431.24 1934.79,1431.29 1935.81,1431.34 1936.83,1431.39 1937.85,1431.44 1938.88,1431.49 1939.9,1431.54 1940.92,1431.6 1941.94,1431.65 1942.96,1431.7 1943.99,1431.75 1945.01,1431.8 1946.03,1431.85 1947.05,1431.9 1948.07,1431.95 1949.1,1432 1950.12,1432.06 1951.14,1432.11 1952.16,1432.16 1953.18,1432.21 1954.2,1432.26 1955.23,1432.31 1956.25,1432.36 1957.27,1432.41 1958.29,1432.46 1959.31,1432.51 1960.34,1432.56 1961.36,1432.61 1962.38,1432.66 1963.4,1432.71 1964.42,1432.76 1965.45,1432.81 1966.47,1432.86 1967.49,1432.91 1968.51,1432.96 1969.53,1433 1970.56,1433.05 1971.58,1433.1 1972.6,1433.15 1973.62,1433.2 1974.64,1433.25 1975.67,1433.3 1976.69,1433.35 1977.71,1433.4 1978.73,1433.45 1979.75,1433.49 1980.78,1433.54 1981.8,1433.59 1982.82,1433.64 1983.84,1433.69 1984.86,1433.74 1985.88,1433.79 1986.91,1433.83 1987.93,1433.88 1988.95,1433.93 1989.97,1433.98 1990.99,1434.03 1992.02,1434.07 1993.04,1434.12 1994.06,1434.17 1995.08,1434.22 1996.1,1434.26 1997.13,1434.31 1998.15,1434.36 1999.17,1434.41 2000.19,1434.45 2001.21,1434.5 2002.24,1434.55 2003.26,1434.6 2004.28,1434.64 2005.3,1434.69 2006.32,1434.74 2007.35,1434.78 2008.37,1434.83 2009.39,1434.88 2010.41,1434.92 2011.43,1434.97 2012.45,1435.02 2013.48,1435.06 2014.5,1435.11 2015.52,1435.16 2016.54,1435.2 2017.56,1435.25 2018.59,1435.3 2019.61,1435.34 2020.63,1435.39 2021.65,1435.43 2022.67,1435.48 2023.7,1435.53 2024.72,1435.57 2025.74,1435.62 2026.76,1435.66 2027.78,1435.71 2028.81,1435.75 2029.83,1435.8 2030.85,1435.84 2031.87,1435.89 2032.89,1435.94 2033.92,1435.98 2034.94,1436.03 2035.96,1436.07 2036.98,1436.12 2038,1436.16 2039.02,1436.21 2040.05,1436.25 2041.07,1436.3 2042.09,1436.34 2043.11,1436.39 2044.13,1436.43 2045.16,1436.47 2046.18,1436.52 2047.2,1436.56 2048.22,1436.61 2049.24,1436.65 2050.27,1436.7 2051.29,1436.74 2052.31,1436.78 2053.33,1436.83 2054.35,1436.87 2055.38,1436.92 2056.4,1436.96 2057.42,1437 2058.44,1437.05 2059.46,1437.09 2060.49,1437.14 2061.51,1437.18 2062.53,1437.22 2063.55,1437.27 2064.57,1437.31 2065.59,1437.35 2066.62,1437.4 2067.64,1437.44 2068.66,1437.48 2069.68,1437.53 2070.7,1437.57 2071.73,1437.61 2072.75,1437.66 2073.77,1437.7 2074.79,1437.74 2075.81,1437.79 2076.84,1437.83 2077.86,1437.87 2078.88,1437.91 2079.9,1437.96 2080.92,1438 2081.95,1438.04 2082.97,1438.08 2083.99,1438.13 2085.01,1438.17 2086.03,1438.21 2087.06,1438.25 2088.08,1438.29 2089.1,1438.34 2090.12,1438.38 2091.14,1438.42 2092.16,1438.46 2093.19,1438.51 2094.21,1438.55 2095.23,1438.59 2096.25,1438.63 2097.27,1438.67 2098.3,1438.71 2099.32,1438.76 2100.34,1438.8 2101.36,1438.84 2102.38,1438.88 2103.41,1438.92 2104.43,1438.96 2105.45,1439 2106.47,1439.05 2107.49,1439.09 2108.52,1439.13 2109.54,1439.17 2110.56,1439.21 2111.58,1439.25 2112.6,1439.29 2113.63,1439.33 2114.65,1439.37 2115.67,1439.41 2116.69,1439.45 2117.71,1439.49 2118.73,1439.54 2119.76,1439.58 2120.78,1439.62 2121.8,1439.66 2122.82,1439.7 2123.84,1439.74 2124.87,1439.78 2125.89,1439.82 2126.91,1439.86 2127.93,1439.9 2128.95,1439.94 2129.98,1439.98 2131,1440.02 2132.02,1440.06 2133.04,1440.1 2134.06,1440.14 2135.09,1440.18 2136.11,1440.22 2137.13,1440.26 2138.15,1440.3 2139.17,1440.34 2140.2,1440.38 2141.22,1440.42 2142.24,1440.45 2143.26,1440.49 2144.28,1440.53 2145.31,1440.57 2146.33,1440.61 2147.35,1440.65 2148.37,1440.69 2149.39,1440.73 2150.41,1440.77 2151.44,1440.81 2152.46,1440.85 2153.48,1440.88 2154.5,1440.92 2155.52,1440.96 2156.55,1441 2157.57,1441.04 2158.59,1441.08 2159.61,1441.12 2160.63,1441.16 2161.66,1441.19 2162.68,1441.23 2163.7,1441.27 2164.72,1441.31 2165.74,1441.35 2166.77,1441.39 2167.79,1441.42 2168.81,1441.46 2169.83,1441.5 2170.85,1441.54 2171.88,1441.58 2172.9,1441.61 2173.92,1441.65 2174.94,1441.69 2175.96,1441.73 2176.98,1441.77 2178.01,1441.8 2179.03,1441.84 2180.05,1441.88 2181.07,1441.92 2182.09,1441.95 2183.12,1441.99 2184.14,1442.03 2185.16,1442.07 2186.18,1442.1 2187.2,1442.14 2188.23,1442.18 2189.25,1442.21 2190.27,1442.25 2191.29,1442.29 2192.31,1442.33 2193.34,1442.36 2194.36,1442.4 2195.38,1442.44 2196.4,1442.47 2197.42,1442.51 2198.45,1442.55 2199.47,1442.58 2200.49,1442.62 2201.51,1442.66 2202.53,1442.69 2203.55,1442.73 2204.58,1442.77 2205.6,1442.8 2206.62,1442.84 2207.64,1442.88 2208.66,1442.91 2209.69,1442.95 2210.71,1442.99 2211.73,1443.02 2212.75,1443.06 2213.77,1443.09 2214.8,1443.13 2215.82,1443.17 2216.84,1443.2 2217.86,1443.24 2218.88,1443.27 2219.91,1443.31 2220.93,1443.35 2221.95,1443.38 2222.97,1443.42 2223.99,1443.45 2225.02,1443.49 2226.04,1443.52 2227.06,1443.56 2228.08,1443.59 2229.1,1443.63 2230.12,1443.67 2231.15,1443.7 2232.17,1443.74 2233.19,1443.77 2234.21,1443.81 2235.23,1443.84 2236.26,1443.88 2237.28,1443.91 2238.3,1443.95 2239.32,1443.98 2240.34,1444.02 2241.37,1444.05 2242.39,1444.09 2243.41,1444.12 2244.43,1444.16 2245.45,1444.19 2246.48,1444.23 2247.5,1444.26 2248.52,1444.3 2249.54,1444.33 2250.56,1444.37 2251.59,1444.4 2252.61,1444.43 2253.63,1444.47 2254.65,1444.5 2255.67,1444.54 2256.69,1444.57 2257.72,1444.61 2258.74,1444.64 2259.76,1444.67 2260.78,1444.71 2261.8,1444.74 2262.83,1444.78 2263.85,1444.81 2264.87,1444.85 2265.89,1444.88 2266.91,1444.91 2267.94,1444.95 2268.96,1444.98 2269.98,1445.01 2271,1445.05 2272.02,1445.08 2273.05,1445.12 2274.07,1445.15 2275.09,1445.18 2276.11,1445.22 2277.13,1445.25 2278.16,1445.28 2279.18,1445.32 2280.2,1445.35 2281.22,1445.38 2282.24,1445.42 2283.26,1445.45 2284.29,1445.48 2285.31,1445.52 2286.33,1445.55 2287.35,1445.58 2288.37,1445.62 2289.4,1445.65 2290.42,1445.68 2291.44,1445.72 "/>
<path clip-path="url(#clip650)" d="M2011.46 198.898 L2280.54 198.898 L2280.54 95.2176 L2011.46 95.2176  Z" fill="#ffffff" fill-rule="evenodd" fill-opacity="1"/>
<polyline clip-path="url(#clip650)" style="stroke:#000000; stroke-linecap:round; stroke-linejoin:round; stroke-width:4; stroke-opacity:1; fill:none" points="2011.46,198.898 2280.54,198.898 2280.54,95.2176 2011.46,95.2176 2011.46,198.898 "/>
<polyline clip-path="url(#clip650)" style="stroke:#009af9; stroke-linecap:round; stroke-linejoin:round; stroke-width:4; stroke-opacity:1; fill:none" points="2035.53,147.058 2179.97,147.058 "/>
<path clip-path="url(#clip650)" d="M2217.88 166.745 Q2216.07 171.375 2214.36 172.787 Q2212.65 174.199 2209.78 174.199 L2206.38 174.199 L2206.38 170.634 L2208.88 170.634 Q2210.63 170.634 2211.61 169.8 Q2212.58 168.967 2213.76 165.865 L2214.52 163.921 L2204.04 138.412 L2208.55 138.412 L2216.65 158.689 L2224.76 138.412 L2229.27 138.412 L2217.88 166.745 Z" fill="#000000" fill-rule="nonzero" fill-opacity="1" /><path clip-path="url(#clip650)" d="M2236.56 160.402 L2244.2 160.402 L2244.2 134.037 L2235.89 135.703 L2235.89 131.444 L2244.15 129.778 L2248.83 129.778 L2248.83 160.402 L2256.47 160.402 L2256.47 164.338 L2236.56 164.338 L2236.56 160.402 Z" fill="#000000" fill-rule="nonzero" fill-opacity="1" /></svg>
