<?xml version="1.0" encoding="utf-8"?>
<svg xmlns="http://www.w3.org/2000/svg" xmlns:xlink="http://www.w3.org/1999/xlink" width="600" height="400" viewBox="0 0 2400 1600">
<defs>
  <clipPath id="clip490">
    <rect x="0" y="0" width="2400" height="1600"/>
  </clipPath>
</defs>
<path clip-path="url(#clip490)" d="M0 1600 L2400 1600 L2400 0 L0 0  Z" fill="#ffffff" fill-rule="evenodd" fill-opacity="1"/>
<defs>
  <clipPath id="clip491">
    <rect x="480" y="0" width="1681" height="1600"/>
  </clipPath>
</defs>
<path clip-path="url(#clip490)" d="M202.177 1486.45 L2352.76 1486.45 L2352.76 47.2441 L202.177 47.2441  Z" fill="#ffffff" fill-rule="evenodd" fill-opacity="1"/>
<defs>
  <clipPath id="clip492">
    <rect x="202" y="47" width="2152" height="1440"/>
  </clipPath>
</defs>
<polyline clip-path="url(#clip492)" style="stroke:#000000; stroke-linecap:round; stroke-linejoin:round; stroke-width:2; stroke-opacity:0.1; fill:none" points="263.042,1486.45 263.042,47.2441 "/>
<polyline clip-path="url(#clip492)" style="stroke:#000000; stroke-linecap:round; stroke-linejoin:round; stroke-width:2; stroke-opacity:0.1; fill:none" points="770.254,1486.45 770.254,47.2441 "/>
<polyline clip-path="url(#clip492)" style="stroke:#000000; stroke-linecap:round; stroke-linejoin:round; stroke-width:2; stroke-opacity:0.1; fill:none" points="1277.47,1486.45 1277.47,47.2441 "/>
<polyline clip-path="url(#clip492)" style="stroke:#000000; stroke-linecap:round; stroke-linejoin:round; stroke-width:2; stroke-opacity:0.1; fill:none" points="1784.68,1486.45 1784.68,47.2441 "/>
<polyline clip-path="url(#clip492)" style="stroke:#000000; stroke-linecap:round; stroke-linejoin:round; stroke-width:2; stroke-opacity:0.1; fill:none" points="2291.89,1486.45 2291.89,47.2441 "/>
<polyline clip-path="url(#clip490)" style="stroke:#000000; stroke-linecap:round; stroke-linejoin:round; stroke-width:4; stroke-opacity:1; fill:none" points="202.177,1486.45 2352.76,1486.45 "/>
<polyline clip-path="url(#clip490)" style="stroke:#000000; stroke-linecap:round; stroke-linejoin:round; stroke-width:4; stroke-opacity:1; fill:none" points="263.042,1486.45 263.042,1467.55 "/>
<polyline clip-path="url(#clip490)" style="stroke:#000000; stroke-linecap:round; stroke-linejoin:round; stroke-width:4; stroke-opacity:1; fill:none" points="770.254,1486.45 770.254,1467.55 "/>
<polyline clip-path="url(#clip490)" style="stroke:#000000; stroke-linecap:round; stroke-linejoin:round; stroke-width:4; stroke-opacity:1; fill:none" points="1277.47,1486.45 1277.47,1467.55 "/>
<polyline clip-path="url(#clip490)" style="stroke:#000000; stroke-linecap:round; stroke-linejoin:round; stroke-width:4; stroke-opacity:1; fill:none" points="1784.68,1486.45 1784.68,1467.55 "/>
<polyline clip-path="url(#clip490)" style="stroke:#000000; stroke-linecap:round; stroke-linejoin:round; stroke-width:4; stroke-opacity:1; fill:none" points="2291.89,1486.45 2291.89,1467.55 "/>
<path clip-path="url(#clip490)" d="M263.042 1517.37 Q259.431 1517.37 257.602 1520.93 Q255.797 1524.47 255.797 1531.6 Q255.797 1538.71 257.602 1542.27 Q259.431 1545.82 263.042 1545.82 Q266.676 1545.82 268.482 1542.27 Q270.311 1538.71 270.311 1531.6 Q270.311 1524.47 268.482 1520.93 Q266.676 1517.37 263.042 1517.37 M263.042 1513.66 Q268.852 1513.66 271.908 1518.27 Q274.987 1522.85 274.987 1531.6 Q274.987 1540.33 271.908 1544.94 Q268.852 1549.52 263.042 1549.52 Q257.232 1549.52 254.153 1544.94 Q251.098 1540.33 251.098 1531.6 Q251.098 1522.85 254.153 1518.27 Q257.232 1513.66 263.042 1513.66 Z" fill="#000000" fill-rule="nonzero" fill-opacity="1" /><path clip-path="url(#clip490)" d="M729.872 1514.29 L748.229 1514.29 L748.229 1518.22 L734.155 1518.22 L734.155 1526.7 Q735.173 1526.35 736.192 1526.19 Q737.21 1526 738.229 1526 Q744.016 1526 747.396 1529.17 Q750.775 1532.34 750.775 1537.76 Q750.775 1543.34 747.303 1546.44 Q743.831 1549.52 737.511 1549.52 Q735.335 1549.52 733.067 1549.15 Q730.822 1548.78 728.414 1548.04 L728.414 1543.34 Q730.497 1544.47 732.72 1545.03 Q734.942 1545.58 737.419 1545.58 Q741.423 1545.58 743.761 1543.48 Q746.099 1541.37 746.099 1537.76 Q746.099 1534.15 743.761 1532.04 Q741.423 1529.94 737.419 1529.94 Q735.544 1529.94 733.669 1530.35 Q731.817 1530.77 729.872 1531.65 L729.872 1514.29 Z" fill="#000000" fill-rule="nonzero" fill-opacity="1" /><path clip-path="url(#clip490)" d="M769.988 1517.37 Q766.377 1517.37 764.548 1520.93 Q762.743 1524.47 762.743 1531.6 Q762.743 1538.71 764.548 1542.27 Q766.377 1545.82 769.988 1545.82 Q773.622 1545.82 775.428 1542.27 Q777.256 1538.71 777.256 1531.6 Q777.256 1524.47 775.428 1520.93 Q773.622 1517.37 769.988 1517.37 M769.988 1513.66 Q775.798 1513.66 778.854 1518.27 Q781.932 1522.85 781.932 1531.6 Q781.932 1540.33 778.854 1544.94 Q775.798 1549.52 769.988 1549.52 Q764.178 1549.52 761.099 1544.94 Q758.044 1540.33 758.044 1531.6 Q758.044 1522.85 761.099 1518.27 Q764.178 1513.66 769.988 1513.66 Z" fill="#000000" fill-rule="nonzero" fill-opacity="1" /><path clip-path="url(#clip490)" d="M800.15 1517.37 Q796.539 1517.37 794.71 1520.93 Q792.905 1524.47 792.905 1531.6 Q792.905 1538.71 794.71 1542.27 Q796.539 1545.82 800.15 1545.82 Q803.784 1545.82 805.59 1542.27 Q807.418 1538.71 807.418 1531.6 Q807.418 1524.47 805.59 1520.93 Q803.784 1517.37 800.15 1517.37 M800.15 1513.66 Q805.96 1513.66 809.016 1518.27 Q812.094 1522.85 812.094 1531.6 Q812.094 1540.33 809.016 1544.94 Q805.96 1549.52 800.15 1549.52 Q794.34 1549.52 791.261 1544.94 Q788.206 1540.33 788.206 1531.6 Q788.206 1522.85 791.261 1518.27 Q794.34 1513.66 800.15 1513.66 Z" fill="#000000" fill-rule="nonzero" fill-opacity="1" /><path clip-path="url(#clip490)" d="M1221.99 1544.91 L1229.63 1544.91 L1229.63 1518.55 L1221.32 1520.21 L1221.32 1515.95 L1229.58 1514.29 L1234.26 1514.29 L1234.26 1544.91 L1241.9 1544.91 L1241.9 1548.85 L1221.99 1548.85 L1221.99 1544.91 Z" fill="#000000" fill-rule="nonzero" fill-opacity="1" /><path clip-path="url(#clip490)" d="M1261.34 1517.37 Q1257.73 1517.37 1255.9 1520.93 Q1254.1 1524.47 1254.1 1531.6 Q1254.1 1538.71 1255.9 1542.27 Q1257.73 1545.82 1261.34 1545.82 Q1264.98 1545.82 1266.78 1542.27 Q1268.61 1538.71 1268.61 1531.6 Q1268.61 1524.47 1266.78 1520.93 Q1264.98 1517.37 1261.34 1517.37 M1261.34 1513.66 Q1267.15 1513.66 1270.21 1518.27 Q1273.29 1522.85 1273.29 1531.6 Q1273.29 1540.33 1270.21 1544.94 Q1267.15 1549.52 1261.34 1549.52 Q1255.53 1549.52 1252.45 1544.94 Q1249.4 1540.33 1249.4 1531.6 Q1249.4 1522.85 1252.45 1518.27 Q1255.53 1513.66 1261.34 1513.66 Z" fill="#000000" fill-rule="nonzero" fill-opacity="1" /><path clip-path="url(#clip490)" d="M1291.51 1517.37 Q1287.89 1517.37 1286.07 1520.93 Q1284.26 1524.47 1284.26 1531.6 Q1284.26 1538.71 1286.07 1542.27 Q1287.89 1545.82 1291.51 1545.82 Q1295.14 1545.82 1296.95 1542.27 Q1298.77 1538.71 1298.77 1531.6 Q1298.77 1524.47 1296.95 1520.93 Q1295.14 1517.37 1291.51 1517.37 M1291.51 1513.66 Q1297.32 1513.66 1300.37 1518.27 Q1303.45 1522.85 1303.45 1531.6 Q1303.45 1540.33 1300.37 1544.94 Q1297.32 1549.52 1291.51 1549.52 Q1285.7 1549.52 1282.62 1544.94 Q1279.56 1540.33 1279.56 1531.6 Q1279.56 1522.85 1282.62 1518.27 Q1285.7 1513.66 1291.51 1513.66 Z" fill="#000000" fill-rule="nonzero" fill-opacity="1" /><path clip-path="url(#clip490)" d="M1321.67 1517.37 Q1318.06 1517.37 1316.23 1520.93 Q1314.42 1524.47 1314.42 1531.6 Q1314.42 1538.71 1316.23 1542.27 Q1318.06 1545.82 1321.67 1545.82 Q1325.3 1545.82 1327.11 1542.27 Q1328.94 1538.71 1328.94 1531.6 Q1328.94 1524.47 1327.11 1520.93 Q1325.3 1517.37 1321.67 1517.37 M1321.67 1513.66 Q1327.48 1513.66 1330.53 1518.27 Q1333.61 1522.85 1333.61 1531.6 Q1333.61 1540.33 1330.53 1544.94 Q1327.48 1549.52 1321.67 1549.52 Q1315.86 1549.52 1312.78 1544.94 Q1309.72 1540.33 1309.72 1531.6 Q1309.72 1522.85 1312.78 1518.27 Q1315.86 1513.66 1321.67 1513.66 Z" fill="#000000" fill-rule="nonzero" fill-opacity="1" /><path clip-path="url(#clip490)" d="M1729.2 1544.91 L1736.84 1544.91 L1736.84 1518.55 L1728.53 1520.21 L1728.53 1515.95 L1736.8 1514.29 L1741.47 1514.29 L1741.47 1544.91 L1749.11 1544.91 L1749.11 1548.85 L1729.2 1548.85 L1729.2 1544.91 Z" fill="#000000" fill-rule="nonzero" fill-opacity="1" /><path clip-path="url(#clip490)" d="M1758.6 1514.29 L1776.96 1514.29 L1776.96 1518.22 L1762.88 1518.22 L1762.88 1526.7 Q1763.9 1526.35 1764.92 1526.19 Q1765.94 1526 1766.96 1526 Q1772.75 1526 1776.13 1529.17 Q1779.5 1532.34 1779.5 1537.76 Q1779.5 1543.34 1776.03 1546.44 Q1772.56 1549.52 1766.24 1549.52 Q1764.07 1549.52 1761.8 1549.15 Q1759.55 1548.78 1757.14 1548.04 L1757.14 1543.34 Q1759.23 1544.47 1761.45 1545.03 Q1763.67 1545.58 1766.15 1545.58 Q1770.15 1545.58 1772.49 1543.48 Q1774.83 1541.37 1774.83 1537.76 Q1774.83 1534.15 1772.49 1532.04 Q1770.15 1529.94 1766.15 1529.94 Q1764.27 1529.94 1762.4 1530.35 Q1760.55 1530.77 1758.6 1531.65 L1758.6 1514.29 Z" fill="#000000" fill-rule="nonzero" fill-opacity="1" /><path clip-path="url(#clip490)" d="M1798.72 1517.37 Q1795.11 1517.37 1793.28 1520.93 Q1791.47 1524.47 1791.47 1531.6 Q1791.47 1538.71 1793.28 1542.27 Q1795.11 1545.82 1798.72 1545.82 Q1802.35 1545.82 1804.16 1542.27 Q1805.99 1538.71 1805.99 1531.6 Q1805.99 1524.47 1804.16 1520.93 Q1802.35 1517.37 1798.72 1517.37 M1798.72 1513.66 Q1804.53 1513.66 1807.58 1518.27 Q1810.66 1522.85 1810.66 1531.6 Q1810.66 1540.33 1807.58 1544.94 Q1804.53 1549.52 1798.72 1549.52 Q1792.91 1549.52 1789.83 1544.94 Q1786.77 1540.33 1786.77 1531.6 Q1786.77 1522.85 1789.83 1518.27 Q1792.91 1513.66 1798.72 1513.66 Z" fill="#000000" fill-rule="nonzero" fill-opacity="1" /><path clip-path="url(#clip490)" d="M1828.88 1517.37 Q1825.27 1517.37 1823.44 1520.93 Q1821.63 1524.47 1821.63 1531.6 Q1821.63 1538.71 1823.44 1542.27 Q1825.27 1545.82 1828.88 1545.82 Q1832.51 1545.82 1834.32 1542.27 Q1836.15 1538.71 1836.15 1531.6 Q1836.15 1524.47 1834.32 1520.93 Q1832.51 1517.37 1828.88 1517.37 M1828.88 1513.66 Q1834.69 1513.66 1837.75 1518.27 Q1840.82 1522.85 1840.82 1531.6 Q1840.82 1540.33 1837.75 1544.94 Q1834.69 1549.52 1828.88 1549.52 Q1823.07 1549.52 1819.99 1544.94 Q1816.94 1540.33 1816.94 1531.6 Q1816.94 1522.85 1819.99 1518.27 Q1823.07 1513.66 1828.88 1513.66 Z" fill="#000000" fill-rule="nonzero" fill-opacity="1" /><path clip-path="url(#clip490)" d="M2240.5 1544.91 L2256.82 1544.91 L2256.82 1548.85 L2234.88 1548.85 L2234.88 1544.91 Q2237.54 1542.16 2242.12 1537.53 Q2246.73 1532.88 2247.91 1531.53 Q2250.15 1529.01 2251.03 1527.27 Q2251.94 1525.51 2251.94 1523.82 Q2251.94 1521.07 2249.99 1519.33 Q2248.07 1517.6 2244.97 1517.6 Q2242.77 1517.6 2240.32 1518.36 Q2237.89 1519.13 2235.11 1520.68 L2235.11 1515.95 Q2237.93 1514.82 2240.39 1514.24 Q2242.84 1513.66 2244.88 1513.66 Q2250.25 1513.66 2253.44 1516.35 Q2256.64 1519.03 2256.64 1523.52 Q2256.64 1525.65 2255.83 1527.57 Q2255.04 1529.47 2252.93 1532.07 Q2252.35 1532.74 2249.25 1535.95 Q2246.15 1539.15 2240.5 1544.91 Z" fill="#000000" fill-rule="nonzero" fill-opacity="1" /><path clip-path="url(#clip490)" d="M2276.64 1517.37 Q2273.02 1517.37 2271.2 1520.93 Q2269.39 1524.47 2269.39 1531.6 Q2269.39 1538.71 2271.2 1542.27 Q2273.02 1545.82 2276.64 1545.82 Q2280.27 1545.82 2282.08 1542.27 Q2283.9 1538.71 2283.9 1531.6 Q2283.9 1524.47 2282.08 1520.93 Q2280.27 1517.37 2276.64 1517.37 M2276.64 1513.66 Q2282.45 1513.66 2285.5 1518.27 Q2288.58 1522.85 2288.58 1531.6 Q2288.58 1540.33 2285.5 1544.94 Q2282.45 1549.52 2276.64 1549.52 Q2270.83 1549.52 2267.75 1544.94 Q2264.69 1540.33 2264.69 1531.6 Q2264.69 1522.85 2267.75 1518.27 Q2270.83 1513.66 2276.64 1513.66 Z" fill="#000000" fill-rule="nonzero" fill-opacity="1" /><path clip-path="url(#clip490)" d="M2306.8 1517.37 Q2303.19 1517.37 2301.36 1520.93 Q2299.55 1524.47 2299.55 1531.6 Q2299.55 1538.71 2301.36 1542.27 Q2303.19 1545.82 2306.8 1545.82 Q2310.43 1545.82 2312.24 1542.27 Q2314.07 1538.71 2314.07 1531.6 Q2314.07 1524.47 2312.24 1520.93 Q2310.43 1517.37 2306.8 1517.37 M2306.8 1513.66 Q2312.61 1513.66 2315.66 1518.27 Q2318.74 1522.85 2318.74 1531.6 Q2318.74 1540.33 2315.66 1544.94 Q2312.61 1549.52 2306.8 1549.52 Q2300.99 1549.52 2297.91 1544.94 Q2294.85 1540.33 2294.85 1531.6 Q2294.85 1522.85 2297.91 1518.27 Q2300.99 1513.66 2306.8 1513.66 Z" fill="#000000" fill-rule="nonzero" fill-opacity="1" /><path clip-path="url(#clip490)" d="M2336.96 1517.37 Q2333.35 1517.37 2331.52 1520.93 Q2329.71 1524.47 2329.71 1531.6 Q2329.71 1538.71 2331.52 1542.27 Q2333.35 1545.82 2336.96 1545.82 Q2340.59 1545.82 2342.4 1542.27 Q2344.23 1538.71 2344.23 1531.6 Q2344.23 1524.47 2342.4 1520.93 Q2340.59 1517.37 2336.96 1517.37 M2336.96 1513.66 Q2342.77 1513.66 2345.83 1518.27 Q2348.9 1522.85 2348.9 1531.6 Q2348.9 1540.33 2345.83 1544.94 Q2342.77 1549.52 2336.96 1549.52 Q2331.15 1549.52 2328.07 1544.94 Q2325.02 1540.33 2325.02 1531.6 Q2325.02 1522.85 2328.07 1518.27 Q2331.15 1513.66 2336.96 1513.66 Z" fill="#000000" fill-rule="nonzero" fill-opacity="1" /><polyline clip-path="url(#clip492)" style="stroke:#000000; stroke-linecap:round; stroke-linejoin:round; stroke-width:2; stroke-opacity:0.1; fill:none" points="202.177,1297.37 2352.76,1297.37 "/>
<polyline clip-path="url(#clip492)" style="stroke:#000000; stroke-linecap:round; stroke-linejoin:round; stroke-width:2; stroke-opacity:0.1; fill:none" points="202.177,1089.4 2352.76,1089.4 "/>
<polyline clip-path="url(#clip492)" style="stroke:#000000; stroke-linecap:round; stroke-linejoin:round; stroke-width:2; stroke-opacity:0.1; fill:none" points="202.177,881.436 2352.76,881.436 "/>
<polyline clip-path="url(#clip492)" style="stroke:#000000; stroke-linecap:round; stroke-linejoin:round; stroke-width:2; stroke-opacity:0.1; fill:none" points="202.177,673.466 2352.76,673.466 "/>
<polyline clip-path="url(#clip492)" style="stroke:#000000; stroke-linecap:round; stroke-linejoin:round; stroke-width:2; stroke-opacity:0.1; fill:none" points="202.177,465.497 2352.76,465.497 "/>
<polyline clip-path="url(#clip492)" style="stroke:#000000; stroke-linecap:round; stroke-linejoin:round; stroke-width:2; stroke-opacity:0.1; fill:none" points="202.177,257.528 2352.76,257.528 "/>
<polyline clip-path="url(#clip492)" style="stroke:#000000; stroke-linecap:round; stroke-linejoin:round; stroke-width:2; stroke-opacity:0.1; fill:none" points="202.177,49.5591 2352.76,49.5591 "/>
<polyline clip-path="url(#clip490)" style="stroke:#000000; stroke-linecap:round; stroke-linejoin:round; stroke-width:4; stroke-opacity:1; fill:none" points="202.177,1486.45 202.177,47.2441 "/>
<polyline clip-path="url(#clip490)" style="stroke:#000000; stroke-linecap:round; stroke-linejoin:round; stroke-width:4; stroke-opacity:1; fill:none" points="202.177,1297.37 221.074,1297.37 "/>
<polyline clip-path="url(#clip490)" style="stroke:#000000; stroke-linecap:round; stroke-linejoin:round; stroke-width:4; stroke-opacity:1; fill:none" points="202.177,1089.4 221.074,1089.4 "/>
<polyline clip-path="url(#clip490)" style="stroke:#000000; stroke-linecap:round; stroke-linejoin:round; stroke-width:4; stroke-opacity:1; fill:none" points="202.177,881.436 221.074,881.436 "/>
<polyline clip-path="url(#clip490)" style="stroke:#000000; stroke-linecap:round; stroke-linejoin:round; stroke-width:4; stroke-opacity:1; fill:none" points="202.177,673.466 221.074,673.466 "/>
<polyline clip-path="url(#clip490)" style="stroke:#000000; stroke-linecap:round; stroke-linejoin:round; stroke-width:4; stroke-opacity:1; fill:none" points="202.177,465.497 221.074,465.497 "/>
<polyline clip-path="url(#clip490)" style="stroke:#000000; stroke-linecap:round; stroke-linejoin:round; stroke-width:4; stroke-opacity:1; fill:none" points="202.177,257.528 221.074,257.528 "/>
<polyline clip-path="url(#clip490)" style="stroke:#000000; stroke-linecap:round; stroke-linejoin:round; stroke-width:4; stroke-opacity:1; fill:none" points="202.177,49.5591 221.074,49.5591 "/>
<path clip-path="url(#clip490)" d="M57.7745 1310.72 L74.0939 1310.72 L74.0939 1314.65 L52.1495 1314.65 L52.1495 1310.72 Q54.8115 1307.96 59.3949 1303.33 Q64.0013 1298.68 65.1819 1297.34 Q67.4272 1294.82 68.3068 1293.08 Q69.2096 1291.32 69.2096 1289.63 Q69.2096 1286.88 67.2652 1285.14 Q65.3439 1283.4 62.2421 1283.4 Q60.043 1283.4 57.5893 1284.17 Q55.1588 1284.93 52.381 1286.48 L52.381 1281.76 Q55.2051 1280.63 57.6588 1280.05 Q60.1124 1279.47 62.1495 1279.47 Q67.5198 1279.47 70.7142 1282.15 Q73.9087 1284.84 73.9087 1289.33 Q73.9087 1291.46 73.0985 1293.38 Q72.3115 1295.28 70.205 1297.87 Q69.6263 1298.54 66.5245 1301.76 Q63.4226 1304.95 57.7745 1310.72 Z" fill="#000000" fill-rule="nonzero" fill-opacity="1" /><path clip-path="url(#clip490)" d="M82.7281 1280.09 L104.95 1280.09 L104.95 1282.08 L92.4039 1314.65 L87.5197 1314.65 L99.3252 1284.03 L82.7281 1284.03 L82.7281 1280.09 Z" fill="#000000" fill-rule="nonzero" fill-opacity="1" /><path clip-path="url(#clip490)" d="M114.117 1280.09 L132.473 1280.09 L132.473 1284.03 L118.399 1284.03 L118.399 1292.5 Q119.418 1292.15 120.436 1291.99 Q121.455 1291.81 122.473 1291.81 Q128.26 1291.81 131.64 1294.98 Q135.019 1298.15 135.019 1303.57 Q135.019 1309.14 131.547 1312.25 Q128.075 1315.33 121.756 1315.33 Q119.58 1315.33 117.311 1314.95 Q115.066 1314.58 112.658 1313.84 L112.658 1309.14 Q114.742 1310.28 116.964 1310.83 Q119.186 1311.39 121.663 1311.39 Q125.668 1311.39 128.006 1309.28 Q130.344 1307.18 130.344 1303.57 Q130.344 1299.95 128.006 1297.85 Q125.668 1295.74 121.663 1295.74 Q119.788 1295.74 117.913 1296.16 Q116.061 1296.58 114.117 1297.45 L114.117 1280.09 Z" fill="#000000" fill-rule="nonzero" fill-opacity="1" /><path clip-path="url(#clip490)" d="M154.232 1283.17 Q150.621 1283.17 148.793 1286.74 Q146.987 1290.28 146.987 1297.41 Q146.987 1304.51 148.793 1308.08 Q150.621 1311.62 154.232 1311.62 Q157.867 1311.62 159.672 1308.08 Q161.501 1304.51 161.501 1297.41 Q161.501 1290.28 159.672 1286.74 Q157.867 1283.17 154.232 1283.17 M154.232 1279.47 Q160.042 1279.47 163.098 1284.08 Q166.177 1288.66 166.177 1297.41 Q166.177 1306.14 163.098 1310.74 Q160.042 1315.33 154.232 1315.33 Q148.422 1315.33 145.343 1310.74 Q142.288 1306.14 142.288 1297.41 Q142.288 1288.66 145.343 1284.08 Q148.422 1279.47 154.232 1279.47 Z" fill="#000000" fill-rule="nonzero" fill-opacity="1" /><path clip-path="url(#clip490)" d="M67.9133 1088.05 Q71.2698 1088.77 73.1448 1091.04 Q75.0429 1093.31 75.0429 1096.64 Q75.0429 1101.75 71.5244 1104.56 Q68.0059 1107.36 61.5245 1107.36 Q59.3486 1107.36 57.0338 1106.92 Q54.7421 1106.5 52.2884 1105.64 L52.2884 1101.13 Q54.2328 1102.26 56.5477 1102.84 Q58.8625 1103.42 61.3856 1103.42 Q65.7837 1103.42 68.0754 1101.68 Q70.3902 1099.95 70.3902 1096.64 Q70.3902 1093.58 68.2374 1091.87 Q66.1078 1090.13 62.2884 1090.13 L58.2606 1090.13 L58.2606 1086.29 L62.4735 1086.29 Q65.9226 1086.29 67.7513 1084.93 Q69.58 1083.54 69.58 1080.94 Q69.58 1078.28 67.6819 1076.87 Q65.8069 1075.43 62.2884 1075.43 Q60.3671 1075.43 58.168 1075.85 Q55.969 1076.27 53.3301 1077.15 L53.3301 1072.98 Q55.9921 1072.24 58.3069 1071.87 Q60.6449 1071.5 62.705 1071.5 Q68.0291 1071.5 71.1309 1073.93 Q74.2327 1076.34 74.2327 1080.46 Q74.2327 1083.33 72.5892 1085.32 Q70.9457 1087.29 67.9133 1088.05 Z" fill="#000000" fill-rule="nonzero" fill-opacity="1" /><path clip-path="url(#clip490)" d="M93.9086 1075.2 Q90.2975 1075.2 88.4688 1078.77 Q86.6632 1082.31 86.6632 1089.44 Q86.6632 1096.55 88.4688 1100.11 Q90.2975 1103.65 93.9086 1103.65 Q97.5428 1103.65 99.3483 1100.11 Q101.177 1096.55 101.177 1089.44 Q101.177 1082.31 99.3483 1078.77 Q97.5428 1075.2 93.9086 1075.2 M93.9086 1071.5 Q99.7187 1071.5 102.774 1076.11 Q105.853 1080.69 105.853 1089.44 Q105.853 1098.17 102.774 1102.77 Q99.7187 1107.36 93.9086 1107.36 Q88.0984 1107.36 85.0197 1102.77 Q81.9642 1098.17 81.9642 1089.44 Q81.9642 1080.69 85.0197 1076.11 Q88.0984 1071.5 93.9086 1071.5 Z" fill="#000000" fill-rule="nonzero" fill-opacity="1" /><path clip-path="url(#clip490)" d="M124.07 1075.2 Q120.459 1075.2 118.631 1078.77 Q116.825 1082.31 116.825 1089.44 Q116.825 1096.55 118.631 1100.11 Q120.459 1103.65 124.07 1103.65 Q127.705 1103.65 129.51 1100.11 Q131.339 1096.55 131.339 1089.44 Q131.339 1082.31 129.51 1078.77 Q127.705 1075.2 124.07 1075.2 M124.07 1071.5 Q129.881 1071.5 132.936 1076.11 Q136.015 1080.69 136.015 1089.44 Q136.015 1098.17 132.936 1102.77 Q129.881 1107.36 124.07 1107.36 Q118.26 1107.36 115.182 1102.77 Q112.126 1098.17 112.126 1089.44 Q112.126 1080.69 115.182 1076.11 Q118.26 1071.5 124.07 1071.5 Z" fill="#000000" fill-rule="nonzero" fill-opacity="1" /><path clip-path="url(#clip490)" d="M154.232 1075.2 Q150.621 1075.2 148.793 1078.77 Q146.987 1082.31 146.987 1089.44 Q146.987 1096.55 148.793 1100.11 Q150.621 1103.65 154.232 1103.65 Q157.867 1103.65 159.672 1100.11 Q161.501 1096.55 161.501 1089.44 Q161.501 1082.31 159.672 1078.77 Q157.867 1075.2 154.232 1075.2 M154.232 1071.5 Q160.042 1071.5 163.098 1076.11 Q166.177 1080.69 166.177 1089.44 Q166.177 1098.17 163.098 1102.77 Q160.042 1107.36 154.232 1107.36 Q148.422 1107.36 145.343 1102.77 Q142.288 1098.17 142.288 1089.44 Q142.288 1080.69 145.343 1076.11 Q148.422 1071.5 154.232 1071.5 Z" fill="#000000" fill-rule="nonzero" fill-opacity="1" /><path clip-path="url(#clip490)" d="M67.9133 880.081 Q71.2698 880.799 73.1448 883.067 Q75.0429 885.336 75.0429 888.669 Q75.0429 893.785 71.5244 896.586 Q68.0059 899.387 61.5245 899.387 Q59.3486 899.387 57.0338 898.947 Q54.7421 898.53 52.2884 897.674 L52.2884 893.16 Q54.2328 894.294 56.5477 894.873 Q58.8625 895.452 61.3856 895.452 Q65.7837 895.452 68.0754 893.716 Q70.3902 891.979 70.3902 888.669 Q70.3902 885.614 68.2374 883.901 Q66.1078 882.165 62.2884 882.165 L58.2606 882.165 L58.2606 878.322 L62.4735 878.322 Q65.9226 878.322 67.7513 876.956 Q69.58 875.567 69.58 872.975 Q69.58 870.313 67.6819 868.901 Q65.8069 867.466 62.2884 867.466 Q60.3671 867.466 58.168 867.882 Q55.969 868.299 53.3301 869.179 L53.3301 865.012 Q55.9921 864.271 58.3069 863.901 Q60.6449 863.531 62.705 863.531 Q68.0291 863.531 71.1309 865.961 Q74.2327 868.368 74.2327 872.489 Q74.2327 875.359 72.5892 877.35 Q70.9457 879.317 67.9133 880.081 Z" fill="#000000" fill-rule="nonzero" fill-opacity="1" /><path clip-path="url(#clip490)" d="M87.9364 894.78 L104.256 894.78 L104.256 898.716 L82.3114 898.716 L82.3114 894.78 Q84.9734 892.026 89.5567 887.396 Q94.1632 882.743 95.3437 881.401 Q97.5891 878.878 98.4687 877.142 Q99.3715 875.382 99.3715 873.693 Q99.3715 870.938 97.4271 869.202 Q95.5058 867.466 92.4039 867.466 Q90.2049 867.466 87.7512 868.23 Q85.3206 868.993 82.5429 870.544 L82.5429 865.822 Q85.3669 864.688 87.8206 864.109 Q90.2743 863.531 92.3113 863.531 Q97.6817 863.531 100.876 866.216 Q104.071 868.901 104.071 873.392 Q104.071 875.521 103.26 877.442 Q102.473 879.341 100.367 881.933 Q99.7882 882.604 96.6863 885.822 Q93.5845 889.016 87.9364 894.78 Z" fill="#000000" fill-rule="nonzero" fill-opacity="1" /><path clip-path="url(#clip490)" d="M114.117 864.156 L132.473 864.156 L132.473 868.091 L118.399 868.091 L118.399 876.563 Q119.418 876.216 120.436 876.054 Q121.455 875.868 122.473 875.868 Q128.26 875.868 131.64 879.04 Q135.019 882.211 135.019 887.628 Q135.019 893.206 131.547 896.308 Q128.075 899.387 121.756 899.387 Q119.58 899.387 117.311 899.016 Q115.066 898.646 112.658 897.905 L112.658 893.206 Q114.742 894.341 116.964 894.896 Q119.186 895.452 121.663 895.452 Q125.668 895.452 128.006 893.345 Q130.344 891.239 130.344 887.628 Q130.344 884.017 128.006 881.91 Q125.668 879.804 121.663 879.804 Q119.788 879.804 117.913 880.22 Q116.061 880.637 114.117 881.517 L114.117 864.156 Z" fill="#000000" fill-rule="nonzero" fill-opacity="1" /><path clip-path="url(#clip490)" d="M154.232 867.234 Q150.621 867.234 148.793 870.799 Q146.987 874.341 146.987 881.47 Q146.987 888.577 148.793 892.141 Q150.621 895.683 154.232 895.683 Q157.867 895.683 159.672 892.141 Q161.501 888.577 161.501 881.47 Q161.501 874.341 159.672 870.799 Q157.867 867.234 154.232 867.234 M154.232 863.531 Q160.042 863.531 163.098 868.137 Q166.177 872.72 166.177 881.47 Q166.177 890.197 163.098 894.804 Q160.042 899.387 154.232 899.387 Q148.422 899.387 145.343 894.804 Q142.288 890.197 142.288 881.47 Q142.288 872.72 145.343 868.137 Q148.422 863.531 154.232 863.531 Z" fill="#000000" fill-rule="nonzero" fill-opacity="1" /><path clip-path="url(#clip490)" d="M67.9133 672.112 Q71.2698 672.83 73.1448 675.098 Q75.0429 677.367 75.0429 680.7 Q75.0429 685.816 71.5244 688.617 Q68.0059 691.418 61.5245 691.418 Q59.3486 691.418 57.0338 690.978 Q54.7421 690.561 52.2884 689.705 L52.2884 685.191 Q54.2328 686.325 56.5477 686.904 Q58.8625 687.483 61.3856 687.483 Q65.7837 687.483 68.0754 685.746 Q70.3902 684.01 70.3902 680.7 Q70.3902 677.645 68.2374 675.932 Q66.1078 674.196 62.2884 674.196 L58.2606 674.196 L58.2606 670.353 L62.4735 670.353 Q65.9226 670.353 67.7513 668.987 Q69.58 667.598 69.58 665.006 Q69.58 662.344 67.6819 660.932 Q65.8069 659.497 62.2884 659.497 Q60.3671 659.497 58.168 659.913 Q55.969 660.33 53.3301 661.21 L53.3301 657.043 Q55.9921 656.302 58.3069 655.932 Q60.6449 655.561 62.705 655.561 Q68.0291 655.561 71.1309 657.992 Q74.2327 660.399 74.2327 664.52 Q74.2327 667.39 72.5892 669.381 Q70.9457 671.348 67.9133 672.112 Z" fill="#000000" fill-rule="nonzero" fill-opacity="1" /><path clip-path="url(#clip490)" d="M83.9549 656.186 L102.311 656.186 L102.311 660.122 L88.2373 660.122 L88.2373 668.594 Q89.2558 668.247 90.2743 668.085 Q91.2928 667.899 92.3113 667.899 Q98.0984 667.899 101.478 671.071 Q104.858 674.242 104.858 679.659 Q104.858 685.237 101.385 688.339 Q97.9132 691.418 91.5938 691.418 Q89.4178 691.418 87.1493 691.047 Q84.904 690.677 82.4966 689.936 L82.4966 685.237 Q84.5799 686.371 86.8021 686.927 Q89.0243 687.483 91.5012 687.483 Q95.5058 687.483 97.8437 685.376 Q100.182 683.27 100.182 679.659 Q100.182 676.047 97.8437 673.941 Q95.5058 671.834 91.5012 671.834 Q89.6262 671.834 87.7512 672.251 Q85.8993 672.668 83.9549 673.547 L83.9549 656.186 Z" fill="#000000" fill-rule="nonzero" fill-opacity="1" /><path clip-path="url(#clip490)" d="M124.07 659.265 Q120.459 659.265 118.631 662.83 Q116.825 666.372 116.825 673.501 Q116.825 680.608 118.631 684.172 Q120.459 687.714 124.07 687.714 Q127.705 687.714 129.51 684.172 Q131.339 680.608 131.339 673.501 Q131.339 666.372 129.51 662.83 Q127.705 659.265 124.07 659.265 M124.07 655.561 Q129.881 655.561 132.936 660.168 Q136.015 664.751 136.015 673.501 Q136.015 682.228 132.936 686.834 Q129.881 691.418 124.07 691.418 Q118.26 691.418 115.182 686.834 Q112.126 682.228 112.126 673.501 Q112.126 664.751 115.182 660.168 Q118.26 655.561 124.07 655.561 Z" fill="#000000" fill-rule="nonzero" fill-opacity="1" /><path clip-path="url(#clip490)" d="M154.232 659.265 Q150.621 659.265 148.793 662.83 Q146.987 666.372 146.987 673.501 Q146.987 680.608 148.793 684.172 Q150.621 687.714 154.232 687.714 Q157.867 687.714 159.672 684.172 Q161.501 680.608 161.501 673.501 Q161.501 666.372 159.672 662.83 Q157.867 659.265 154.232 659.265 M154.232 655.561 Q160.042 655.561 163.098 660.168 Q166.177 664.751 166.177 673.501 Q166.177 682.228 163.098 686.834 Q160.042 691.418 154.232 691.418 Q148.422 691.418 145.343 686.834 Q142.288 682.228 142.288 673.501 Q142.288 664.751 145.343 660.168 Q148.422 655.561 154.232 655.561 Z" fill="#000000" fill-rule="nonzero" fill-opacity="1" /><path clip-path="url(#clip490)" d="M67.9133 464.143 Q71.2698 464.861 73.1448 467.129 Q75.0429 469.398 75.0429 472.731 Q75.0429 477.847 71.5244 480.648 Q68.0059 483.449 61.5245 483.449 Q59.3486 483.449 57.0338 483.009 Q54.7421 482.592 52.2884 481.736 L52.2884 477.222 Q54.2328 478.356 56.5477 478.935 Q58.8625 479.513 61.3856 479.513 Q65.7837 479.513 68.0754 477.777 Q70.3902 476.041 70.3902 472.731 Q70.3902 469.676 68.2374 467.963 Q66.1078 466.226 62.2884 466.226 L58.2606 466.226 L58.2606 462.384 L62.4735 462.384 Q65.9226 462.384 67.7513 461.018 Q69.58 459.629 69.58 457.037 Q69.58 454.375 67.6819 452.963 Q65.8069 451.527 62.2884 451.527 Q60.3671 451.527 58.168 451.944 Q55.969 452.361 53.3301 453.24 L53.3301 449.074 Q55.9921 448.333 58.3069 447.963 Q60.6449 447.592 62.705 447.592 Q68.0291 447.592 71.1309 450.023 Q74.2327 452.43 74.2327 456.551 Q74.2327 459.421 72.5892 461.412 Q70.9457 463.379 67.9133 464.143 Z" fill="#000000" fill-rule="nonzero" fill-opacity="1" /><path clip-path="url(#clip490)" d="M82.7281 448.217 L104.95 448.217 L104.95 450.208 L92.4039 482.777 L87.5197 482.777 L99.3252 452.152 L82.7281 452.152 L82.7281 448.217 Z" fill="#000000" fill-rule="nonzero" fill-opacity="1" /><path clip-path="url(#clip490)" d="M114.117 448.217 L132.473 448.217 L132.473 452.152 L118.399 452.152 L118.399 460.625 Q119.418 460.277 120.436 460.115 Q121.455 459.93 122.473 459.93 Q128.26 459.93 131.64 463.101 Q135.019 466.273 135.019 471.689 Q135.019 477.268 131.547 480.37 Q128.075 483.449 121.756 483.449 Q119.58 483.449 117.311 483.078 Q115.066 482.708 112.658 481.967 L112.658 477.268 Q114.742 478.402 116.964 478.958 Q119.186 479.513 121.663 479.513 Q125.668 479.513 128.006 477.407 Q130.344 475.301 130.344 471.689 Q130.344 468.078 128.006 465.972 Q125.668 463.865 121.663 463.865 Q119.788 463.865 117.913 464.282 Q116.061 464.699 114.117 465.578 L114.117 448.217 Z" fill="#000000" fill-rule="nonzero" fill-opacity="1" /><path clip-path="url(#clip490)" d="M154.232 451.296 Q150.621 451.296 148.793 454.861 Q146.987 458.402 146.987 465.532 Q146.987 472.638 148.793 476.203 Q150.621 479.745 154.232 479.745 Q157.867 479.745 159.672 476.203 Q161.501 472.638 161.501 465.532 Q161.501 458.402 159.672 454.861 Q157.867 451.296 154.232 451.296 M154.232 447.592 Q160.042 447.592 163.098 452.199 Q166.177 456.782 166.177 465.532 Q166.177 474.259 163.098 478.865 Q160.042 483.449 154.232 483.449 Q148.422 483.449 145.343 478.865 Q142.288 474.259 142.288 465.532 Q142.288 456.782 145.343 452.199 Q148.422 447.592 154.232 447.592 Z" fill="#000000" fill-rule="nonzero" fill-opacity="1" /><path clip-path="url(#clip490)" d="M66.5939 244.322 L54.7884 262.771 L66.5939 262.771 L66.5939 244.322 M65.367 240.248 L71.2466 240.248 L71.2466 262.771 L76.1772 262.771 L76.1772 266.66 L71.2466 266.66 L71.2466 274.808 L66.5939 274.808 L66.5939 266.66 L50.9921 266.66 L50.9921 262.146 L65.367 240.248 Z" fill="#000000" fill-rule="nonzero" fill-opacity="1" /><path clip-path="url(#clip490)" d="M93.9086 243.327 Q90.2975 243.327 88.4688 246.892 Q86.6632 250.433 86.6632 257.563 Q86.6632 264.669 88.4688 268.234 Q90.2975 271.776 93.9086 271.776 Q97.5428 271.776 99.3483 268.234 Q101.177 264.669 101.177 257.563 Q101.177 250.433 99.3483 246.892 Q97.5428 243.327 93.9086 243.327 M93.9086 239.623 Q99.7187 239.623 102.774 244.23 Q105.853 248.813 105.853 257.563 Q105.853 266.29 102.774 270.896 Q99.7187 275.48 93.9086 275.48 Q88.0984 275.48 85.0197 270.896 Q81.9642 266.29 81.9642 257.563 Q81.9642 248.813 85.0197 244.23 Q88.0984 239.623 93.9086 239.623 Z" fill="#000000" fill-rule="nonzero" fill-opacity="1" /><path clip-path="url(#clip490)" d="M124.07 243.327 Q120.459 243.327 118.631 246.892 Q116.825 250.433 116.825 257.563 Q116.825 264.669 118.631 268.234 Q120.459 271.776 124.07 271.776 Q127.705 271.776 129.51 268.234 Q131.339 264.669 131.339 257.563 Q131.339 250.433 129.51 246.892 Q127.705 243.327 124.07 243.327 M124.07 239.623 Q129.881 239.623 132.936 244.23 Q136.015 248.813 136.015 257.563 Q136.015 266.29 132.936 270.896 Q129.881 275.48 124.07 275.48 Q118.26 275.48 115.182 270.896 Q112.126 266.29 112.126 257.563 Q112.126 248.813 115.182 244.23 Q118.26 239.623 124.07 239.623 Z" fill="#000000" fill-rule="nonzero" fill-opacity="1" /><path clip-path="url(#clip490)" d="M154.232 243.327 Q150.621 243.327 148.793 246.892 Q146.987 250.433 146.987 257.563 Q146.987 264.669 148.793 268.234 Q150.621 271.776 154.232 271.776 Q157.867 271.776 159.672 268.234 Q161.501 264.669 161.501 257.563 Q161.501 250.433 159.672 246.892 Q157.867 243.327 154.232 243.327 M154.232 239.623 Q160.042 239.623 163.098 244.23 Q166.177 248.813 166.177 257.563 Q166.177 266.29 163.098 270.896 Q160.042 275.48 154.232 275.48 Q148.422 275.48 145.343 270.896 Q142.288 266.29 142.288 257.563 Q142.288 248.813 145.343 244.23 Q148.422 239.623 154.232 239.623 Z" fill="#000000" fill-rule="nonzero" fill-opacity="1" /><path clip-path="url(#clip490)" d="M66.5939 36.3532 L54.7884 54.8021 L66.5939 54.8021 L66.5939 36.3532 M65.367 32.2791 L71.2466 32.2791 L71.2466 54.8021 L76.1772 54.8021 L76.1772 58.691 L71.2466 58.691 L71.2466 66.8391 L66.5939 66.8391 L66.5939 58.691 L50.9921 58.691 L50.9921 54.1771 L65.367 32.2791 Z" fill="#000000" fill-rule="nonzero" fill-opacity="1" /><path clip-path="url(#clip490)" d="M87.9364 62.904 L104.256 62.904 L104.256 66.8391 L82.3114 66.8391 L82.3114 62.904 Q84.9734 60.1493 89.5567 55.5197 Q94.1632 50.867 95.3437 49.5244 Q97.5891 47.0013 98.4687 45.2652 Q99.3715 43.5059 99.3715 41.8161 Q99.3715 39.0615 97.4271 37.3254 Q95.5058 35.5893 92.4039 35.5893 Q90.2049 35.5893 87.7512 36.3532 Q85.3206 37.1171 82.5429 38.668 L82.5429 33.9458 Q85.3669 32.8115 87.8206 32.2328 Q90.2743 31.6541 92.3113 31.6541 Q97.6817 31.6541 100.876 34.3393 Q104.071 37.0245 104.071 41.5152 Q104.071 43.6448 103.26 45.5661 Q102.473 47.4642 100.367 50.0568 Q99.7882 50.7281 96.6863 53.9457 Q93.5845 57.1401 87.9364 62.904 Z" fill="#000000" fill-rule="nonzero" fill-opacity="1" /><path clip-path="url(#clip490)" d="M114.117 32.2791 L132.473 32.2791 L132.473 36.2143 L118.399 36.2143 L118.399 44.6865 Q119.418 44.3392 120.436 44.1772 Q121.455 43.992 122.473 43.992 Q128.26 43.992 131.64 47.1633 Q135.019 50.3346 135.019 55.7512 Q135.019 61.3299 131.547 64.4317 Q128.075 67.5104 121.756 67.5104 Q119.58 67.5104 117.311 67.14 Q115.066 66.7697 112.658 66.0289 L112.658 61.3299 Q114.742 62.4641 116.964 63.0197 Q119.186 63.5752 121.663 63.5752 Q125.668 63.5752 128.006 61.4688 Q130.344 59.3623 130.344 55.7512 Q130.344 52.1401 128.006 50.0336 Q125.668 47.9272 121.663 47.9272 Q119.788 47.9272 117.913 48.3438 Q116.061 48.7605 114.117 49.6401 L114.117 32.2791 Z" fill="#000000" fill-rule="nonzero" fill-opacity="1" /><path clip-path="url(#clip490)" d="M154.232 35.3578 Q150.621 35.3578 148.793 38.9226 Q146.987 42.4642 146.987 49.5938 Q146.987 56.7003 148.793 60.2651 Q150.621 63.8067 154.232 63.8067 Q157.867 63.8067 159.672 60.2651 Q161.501 56.7003 161.501 49.5938 Q161.501 42.4642 159.672 38.9226 Q157.867 35.3578 154.232 35.3578 M154.232 31.6541 Q160.042 31.6541 163.098 36.2606 Q166.177 40.8439 166.177 49.5938 Q166.177 58.3206 163.098 62.9271 Q160.042 67.5104 154.232 67.5104 Q148.422 67.5104 145.343 62.9271 Q142.288 58.3206 142.288 49.5938 Q142.288 40.8439 145.343 36.2606 Q148.422 31.6541 154.232 31.6541 Z" fill="#000000" fill-rule="nonzero" fill-opacity="1" /><polyline clip-path="url(#clip492)" style="stroke:#009af9; stroke-linecap:round; stroke-linejoin:round; stroke-width:4; stroke-opacity:1; fill:none" points="263.042,716.962 264.057,717.536 265.071,717.562 266.085,717.563 267.1,717.563 268.114,717.563 269.129,717.563 270.143,717.563 271.158,717.563 272.172,717.563 273.186,717.563 274.201,717.563 275.215,717.563 276.23,717.563 277.244,717.563 278.259,717.563 279.273,717.563 280.287,717.563 281.302,717.563 282.316,717.563 283.331,717.563 284.345,717.563 285.359,717.563 286.374,717.563 287.388,717.563 288.403,717.563 289.417,717.563 290.432,717.563 291.446,717.563 292.46,717.563 293.475,717.563 294.489,717.563 295.504,717.563 296.518,717.563 297.533,717.563 298.547,717.563 299.561,717.563 300.576,717.563 301.59,717.563 302.605,717.563 303.619,717.563 304.634,717.563 305.648,717.563 306.662,717.563 307.677,717.563 308.691,717.563 309.706,717.563 310.72,717.563 311.735,717.563 312.749,717.563 313.763,693.434 314.778,696.069 315.792,696.171 316.807,696.175 317.821,696.175 318.835,696.175 319.85,696.175 320.864,696.175 321.879,696.175 322.893,696.175 323.908,696.175 324.922,696.175 325.936,696.175 326.951,696.175 327.965,696.175 328.98,696.175 329.994,696.175 331.009,696.175 332.023,696.175 333.037,696.175 334.052,696.175 335.066,696.175 336.081,696.175 337.095,696.175 338.11,696.175 339.124,696.175 340.138,696.175 341.153,696.175 342.167,696.175 343.182,696.175 344.196,696.175 345.211,696.175 346.225,696.175 347.239,696.175 348.254,696.175 349.268,696.175 350.283,696.175 351.297,696.175 352.311,696.175 353.326,696.175 354.34,696.175 355.355,696.175 356.369,696.175 357.384,696.175 358.398,696.175 359.412,696.175 360.427,696.175 361.441,696.175 362.456,696.175 363.47,696.175 364.485,533.47 365.499,535.049 366.513,535.103 367.528,535.105 368.542,535.105 369.557,535.105 370.571,535.105 371.586,535.105 372.6,535.105 373.614,535.105 374.629,535.105 375.643,535.105 376.658,535.105 377.672,535.105 378.686,535.105 379.701,535.105 380.715,535.105 381.73,535.105 382.744,535.105 383.759,535.105 384.773,535.105 385.787,535.105 386.802,535.105 387.816,535.105 388.831,535.105 389.845,535.105 390.86,535.105 391.874,535.105 392.888,535.105 393.903,535.105 394.917,535.105 395.932,535.105 396.946,535.105 397.961,535.105 398.975,535.105 399.989,535.105 401.004,535.105 402.018,535.105 403.033,535.105 404.047,535.105 405.062,535.105 406.076,535.105 407.09,535.105 408.105,535.105 409.119,535.105 410.134,535.105 411.148,535.105 412.162,535.105 413.177,535.105 414.191,535.105 415.206,544.817 416.22,545.849 417.235,545.879 418.249,545.88 419.263,545.88 420.278,545.88 421.292,545.88 422.307,545.88 423.321,545.88 424.336,545.88 425.35,545.88 426.364,545.88 427.379,545.88 428.393,545.88 429.408,545.88 430.422,545.88 431.437,545.88 432.451,545.88 433.465,545.88 434.48,545.88 435.494,545.88 436.509,545.88 437.523,545.88 438.538,545.88 439.552,545.88 440.566,545.88 441.581,545.88 442.595,545.88 443.61,545.88 444.624,545.88 445.638,545.88 446.653,545.88 447.667,545.88 448.682,545.88 449.696,545.88 450.711,545.88 451.725,545.88 452.739,545.88 453.754,545.88 454.768,545.88 455.783,545.88 456.797,545.88 457.812,545.88 458.826,545.88 459.84,545.88 460.855,545.88 461.869,545.88 462.884,545.88 463.898,545.88 464.913,545.88 465.927,489.583 466.941,490.763 467.956,490.786 468.97,490.787 469.985,490.787 470.999,490.787 472.014,490.787 473.028,490.787 474.042,490.787 475.057,490.787 476.071,490.787 477.086,490.787 478.1,490.787 479.114,490.787 480.129,490.787 481.143,490.787 482.158,490.787 483.172,490.787 484.187,490.787 485.201,490.787 486.215,490.787 487.23,490.787 488.244,490.787 489.259,490.787 490.273,490.787 491.288,490.787 492.302,490.787 493.316,490.787 494.331,490.787 495.345,490.787 496.36,490.787 497.374,490.787 498.389,490.787 499.403,490.787 500.417,490.787 501.432,490.787 502.446,490.787 503.461,490.787 504.475,490.787 505.49,490.787 506.504,490.787 507.518,490.787 508.533,490.787 509.547,490.787 510.562,490.787 511.576,490.787 512.59,490.787 513.605,490.787 514.619,490.787 515.634,490.787 516.648,587.227 517.663,588.004 518.677,588.027 519.691,588.028 520.706,588.028 521.72,588.028 522.735,588.028 523.749,588.028 524.764,588.028 525.778,588.028 526.792,588.028 527.807,588.028 528.821,588.028 529.836,588.028 530.85,588.028 531.865,588.028 532.879,588.028 533.893,588.028 534.908,588.028 535.922,588.028 536.937,588.028 537.951,588.028 538.966,588.028 539.98,588.028 540.994,588.028 542.009,588.028 543.023,588.028 544.038,588.028 545.052,588.028 546.066,588.028 547.081,588.028 548.095,588.028 549.11,588.028 550.124,588.028 551.139,588.028 552.153,588.028 553.167,588.028 554.182,588.028 555.196,588.028 556.211,588.028 557.225,588.028 558.24,588.028 559.254,588.028 560.268,588.028 561.283,588.028 562.297,588.028 563.312,588.028 564.326,588.028 565.341,588.028 566.355,588.028 567.369,733.413 568.384,735.511 569.398,735.576 570.413,735.579 571.427,735.579 572.442,735.579 573.456,735.579 574.47,735.579 575.485,735.579 576.499,735.579 577.514,735.579 578.528,735.579 579.542,735.579 580.557,735.579 581.571,735.579 582.586,735.579 583.6,735.579 584.615,735.579 585.629,735.579 586.643,735.579 587.658,735.579 588.672,735.579 589.687,735.579 590.701,735.579 591.716,735.579 592.73,735.579 593.744,735.579 594.759,735.579 595.773,735.579 596.788,735.579 597.802,735.579 598.817,735.579 599.831,735.579 600.845,735.579 601.86,735.579 602.874,735.579 603.889,735.579 604.903,735.579 605.918,735.579 606.932,735.579 607.946,735.579 608.961,735.579 609.975,735.579 610.99,735.579 612.004,735.579 613.018,735.579 614.033,735.579 615.047,735.579 616.062,735.579 617.076,735.579 618.091,548.303 619.105,550.734 620.119,550.804 621.134,550.806 622.148,550.806 623.163,550.806 624.177,550.806 625.192,550.806 626.206,550.806 627.22,550.806 628.235,550.806 629.249,550.806 630.264,550.806 631.278,550.806 632.293,550.806 633.307,550.806 634.321,550.806 635.336,550.806 636.35,550.806 637.365,550.806 638.379,550.806 639.394,550.806 640.408,550.806 641.422,550.806 642.437,550.806 643.451,550.806 644.466,550.806 645.48,550.806 646.494,550.806 647.509,550.806 648.523,550.806 649.538,550.806 650.552,550.806 651.567,550.806 652.581,550.806 653.595,550.806 654.61,550.806 655.624,550.806 656.639,550.806 657.653,550.806 658.668,550.806 659.682,550.806 660.696,550.806 661.711,550.806 662.725,550.806 663.74,550.806 664.754,550.806 665.769,550.806 666.783,550.806 667.797,550.806 668.812,471.199 669.826,472.272 670.841,472.294 671.855,472.295 672.87,472.295 673.884,472.295 674.898,472.295 675.913,472.295 676.927,472.295 677.942,472.295 678.956,472.295 679.97,472.295 680.985,472.295 681.999,472.295 683.014,472.295 684.028,472.295 685.043,472.295 686.057,472.295 687.071,472.295 688.086,472.295 689.1,472.295 690.115,472.295 691.129,472.295 692.144,472.295 693.158,472.295 694.172,472.295 695.187,472.295 696.201,472.295 697.216,472.295 698.23,472.295 699.245,472.295 700.259,472.295 701.273,472.295 702.288,472.295 703.302,472.295 704.317,472.295 705.331,472.295 706.345,472.295 707.36,472.295 708.374,472.295 709.389,472.295 710.403,472.295 711.418,472.295 712.432,472.295 713.446,472.295 714.461,472.295 715.475,472.295 716.49,472.295 717.504,472.295 718.519,472.295 719.533,369.027 720.547,372.656 721.562,372.697 722.576,372.698 723.591,372.698 724.605,372.698 725.62,372.698 726.634,372.698 727.648,372.698 728.663,372.698 729.677,372.698 730.692,372.698 731.706,372.698 732.721,372.698 733.735,372.698 734.749,372.698 735.764,372.698 736.778,372.698 737.793,372.698 738.807,372.698 739.821,372.698 740.836,372.698 741.85,372.698 742.865,372.698 743.879,372.698 744.894,372.698 745.908,372.698 746.922,372.698 747.937,372.698 748.951,372.698 749.966,372.698 750.98,372.698 751.995,372.698 753.009,372.698 754.023,372.698 755.038,372.698 756.052,372.698 757.067,372.698 758.081,372.698 759.096,372.698 760.11,372.698 761.124,372.698 762.139,372.698 763.153,372.698 764.168,372.698 765.182,372.698 766.197,372.698 767.211,372.698 768.225,372.698 769.24,372.698 770.254,277.175 771.269,279.178 772.283,279.208 773.297,279.209 774.312,279.209 775.326,279.209 776.341,279.209 777.355,279.209 778.37,279.209 779.384,279.209 780.398,279.209 781.413,279.209 782.427,279.209 783.442,279.209 784.456,279.209 785.471,279.209 786.485,279.209 787.499,279.209 788.514,279.209 789.528,279.209 790.543,279.209 791.557,279.209 792.572,279.209 793.586,279.209 794.6,279.209 795.615,279.209 796.629,279.209 797.644,279.209 798.658,279.209 799.673,279.209 800.687,279.209 801.701,279.209 802.716,279.209 803.73,279.209 804.745,279.209 805.759,279.209 806.773,279.209 807.788,279.209 808.802,279.209 809.817,279.209 810.831,279.209 811.846,279.209 812.86,279.209 813.874,279.209 814.889,279.209 815.903,279.209 816.918,279.209 817.932,279.209 818.947,279.209 819.961,279.209 820.975,188.712 821.99,191.816 823.004,191.896 824.019,191.899 825.033,191.9 826.048,191.9 827.062,191.9 828.076,191.9 829.091,191.9 830.105,191.9 831.12,191.9 832.134,191.9 833.149,191.9 834.163,191.9 835.177,191.9 836.192,191.9 837.206,191.9 838.221,191.9 839.235,191.9 840.249,191.9 841.264,191.9 842.278,191.9 843.293,191.9 844.307,191.9 845.322,191.9 846.336,191.9 847.35,191.9 848.365,191.9 849.379,191.9 850.394,191.9 851.408,191.9 852.423,191.9 853.437,191.9 854.451,191.9 855.466,191.9 856.48,191.9 857.495,191.9 858.509,191.9 859.524,191.9 860.538,191.9 861.552,191.9 862.567,191.9 863.581,191.9 864.596,191.9 865.61,191.9 866.625,191.9 867.639,191.9 868.653,191.9 869.668,191.9 870.682,191.9 871.697,105.998 872.711,108.355 873.725,108.371 874.74,108.372 875.754,108.372 876.769,108.372 877.783,108.372 878.798,108.372 879.812,108.372 880.826,108.372 881.841,108.372 882.855,108.372 883.87,108.372 884.884,108.372 885.899,108.372 886.913,108.372 887.927,108.372 888.942,108.372 889.956,108.372 890.971,108.372 891.985,108.372 893,108.372 894.014,108.372 895.028,108.372 896.043,108.372 897.057,108.372 898.072,108.372 899.086,108.372 900.101,108.372 901.115,108.372 902.129,108.372 903.144,108.372 904.158,108.372 905.173,108.372 906.187,108.372 907.201,108.372 908.216,108.372 909.23,108.372 910.245,108.372 911.259,108.372 912.274,108.372 913.288,108.372 914.302,108.372 915.317,108.372 916.331,108.372 917.346,108.372 918.36,108.372 919.375,108.372 920.389,108.372 921.403,108.372 922.418,87.9763 923.432,89.2321 924.447,89.2384 925.461,89.2386 926.476,89.2386 927.49,89.2386 928.504,89.2386 929.519,89.2386 930.533,89.2386 931.548,89.2386 932.562,89.2386 933.577,89.2386 934.591,89.2386 935.605,89.2386 936.62,89.2386 937.634,89.2386 938.649,89.2386 939.663,89.2386 940.677,89.2386 941.692,89.2386 942.706,89.2386 943.721,89.2386 944.735,89.2386 945.75,89.2386 946.764,89.2386 947.778,89.2386 948.793,89.2386 949.807,89.2386 950.822,89.2386 951.836,89.2386 952.851,89.2386 953.865,89.2386 954.879,89.2386 955.894,89.2386 956.908,89.2386 957.923,89.2386 958.937,89.2386 959.952,89.2386 960.966,89.2386 961.98,89.2386 962.995,89.2386 964.009,89.2386 965.024,89.2386 966.038,89.2386 967.053,89.2386 968.067,89.2386 969.081,89.2386 970.096,89.2386 971.11,89.2386 972.125,89.2386 973.139,137.407 974.153,139.879 975.168,139.898 976.182,139.899 977.197,139.899 978.211,139.899 979.226,139.899 980.24,139.899 981.254,139.899 982.269,139.899 983.283,139.899 984.298,139.899 985.312,139.899 986.327,139.899 987.341,139.899 988.355,139.899 989.37,139.899 990.384,139.899 991.399,139.899 992.413,139.899 993.428,139.899 994.442,139.899 995.456,139.899 996.471,139.899 997.485,139.899 998.5,139.899 999.514,139.899 1000.53,139.899 1001.54,139.899 1002.56,139.899 1003.57,139.899 1004.59,139.899 1005.6,139.899 1006.62,139.899 1007.63,139.899 1008.64,139.899 1009.66,139.899 1010.67,139.899 1011.69,139.899 1012.7,139.899 1013.72,139.899 1014.73,139.899 1015.74,139.899 1016.76,139.899 1017.77,139.899 1018.79,139.899 1019.8,139.899 1020.82,139.899 1021.83,139.899 1022.85,139.899 1023.86,138.537 1024.87,139.435 1025.89,139.443 1026.9,139.443 1027.92,139.443 1028.93,139.443 1029.95,139.443 1030.96,139.443 1031.98,139.443 1032.99,139.443 1034,139.443 1035.02,139.443 1036.03,139.443 1037.05,139.443 1038.06,139.443 1039.08,139.443 1040.09,139.443 1041.11,139.443 1042.12,139.443 1043.13,139.443 1044.15,139.443 1045.16,139.443 1046.18,139.443 1047.19,139.443 1048.21,139.443 1049.22,139.443 1050.24,139.443 1051.25,139.443 1052.26,139.443 1053.28,139.443 1054.29,139.443 1055.31,139.443 1056.32,139.443 1057.34,139.443 1058.35,139.443 1059.37,139.443 1060.38,139.443 1061.39,139.443 1062.41,139.443 1063.42,139.443 1064.44,139.443 1065.45,139.443 1066.47,139.443 1067.48,139.443 1068.49,139.443 1069.51,139.443 1070.52,139.443 1071.54,139.443 1072.55,139.443 1073.57,139.443 1074.58,272.674 1075.6,274.24 1076.61,274.293 1077.62,274.296 1078.64,274.296 1079.65,274.296 1080.67,274.296 1081.68,274.296 1082.7,274.296 1083.71,274.296 1084.73,274.296 1085.74,274.296 1086.75,274.296 1087.77,274.296 1088.78,274.296 1089.8,274.296 1090.81,274.296 1091.83,274.296 1092.84,274.296 1093.86,274.296 1094.87,274.296 1095.88,274.296 1096.9,274.296 1097.91,274.296 1098.93,274.296 1099.94,274.296 1100.96,274.296 1101.97,274.296 1102.99,274.296 1104,274.296 1105.01,274.296 1106.03,274.296 1107.04,274.296 1108.06,274.296 1109.07,274.296 1110.09,274.296 1111.1,274.296 1112.12,274.296 1113.13,274.296 1114.14,274.296 1115.16,274.296 1116.17,274.296 1117.19,274.296 1118.2,274.296 1119.22,274.296 1120.23,274.296 1121.24,274.296 1122.26,274.296 1123.27,274.296 1124.29,274.296 1125.3,256.354 1126.32,257.246 1127.33,257.253 1128.35,257.254 1129.36,257.254 1130.37,257.254 1131.39,257.254 1132.4,257.254 1133.42,257.254 1134.43,257.254 1135.45,257.254 1136.46,257.254 1137.48,257.254 1138.49,257.254 1139.5,257.254 1140.52,257.254 1141.53,257.254 1142.55,257.254 1143.56,257.254 1144.58,257.254 1145.59,257.254 1146.61,257.254 1147.62,257.254 1148.63,257.254 1149.65,257.254 1150.66,257.254 1151.68,257.254 1152.69,257.254 1153.71,257.254 1154.72,257.254 1155.74,257.254 1156.75,257.254 1157.76,257.254 1158.78,257.254 1159.79,257.254 1160.81,257.254 1161.82,257.254 1162.84,257.254 1163.85,257.254 1164.87,257.254 1165.88,257.254 1166.89,257.254 1167.91,257.254 1168.92,257.254 1169.94,257.254 1170.95,257.254 1171.97,257.254 1172.98,257.254 1174,257.254 1175.01,257.254 1176.02,367.7 1177.04,369.668 1178.05,369.714 1179.07,369.716 1180.08,369.716 1181.1,369.716 1182.11,369.716 1183.12,369.716 1184.14,369.716 1185.15,369.716 1186.17,369.716 1187.18,369.716 1188.2,369.716 1189.21,369.716 1190.23,369.716 1191.24,369.716 1192.25,369.716 1193.27,369.716 1194.28,369.716 1195.3,369.716 1196.31,369.716 1197.33,369.716 1198.34,369.716 1199.36,369.716 1200.37,369.716 1201.38,369.716 1202.4,369.716 1203.41,369.716 1204.43,369.716 1205.44,369.716 1206.46,369.716 1207.47,369.716 1208.49,369.716 1209.5,369.716 1210.51,369.716 1211.53,369.716 1212.54,369.716 1213.56,369.716 1214.57,369.716 1215.59,369.716 1216.6,369.716 1217.62,369.716 1218.63,369.716 1219.64,369.716 1220.66,369.716 1221.67,369.716 1222.69,369.716 1223.7,369.716 1224.72,369.716 1225.73,369.716 1226.75,587.697 1227.76,590.175 1228.77,590.292 1229.79,590.297 1230.8,590.298 1231.82,590.298 1232.83,590.298 1233.85,590.298 1234.86,590.298 1235.87,590.298 1236.89,590.298 1237.9,590.298 1238.92,590.298 1239.93,590.298 1240.95,590.298 1241.96,590.298 1242.98,590.298 1243.99,590.298 1245,590.298 1246.02,590.298 1247.03,590.298 1248.05,590.298 1249.06,590.298 1250.08,590.298 1251.09,590.298 1252.11,590.298 1253.12,590.298 1254.13,590.298 1255.15,590.298 1256.16,590.298 1257.18,590.298 1258.19,590.298 1259.21,590.298 1260.22,590.298 1261.24,590.298 1262.25,590.298 1263.26,590.298 1264.28,590.298 1265.29,590.298 1266.31,590.298 1267.32,590.298 1268.34,590.298 1269.35,590.298 1270.37,590.298 1271.38,590.298 1272.39,590.298 1273.41,590.298 1274.42,590.298 1275.44,590.298 1276.45,590.298 1277.47,598.62 1278.48,600.301 1279.5,600.361 1280.51,600.363 1281.52,600.363 1282.54,600.363 1283.55,600.363 1284.57,600.363 1285.58,600.363 1286.6,600.363 1287.61,600.363 1288.62,600.363 1289.64,600.363 1290.65,600.363 1291.67,600.363 1292.68,600.363 1293.7,600.363 1294.71,600.363 1295.73,600.363 1296.74,600.363 1297.75,600.363 1298.77,600.363 1299.78,600.363 1300.8,600.363 1301.81,600.363 1302.83,600.363 1303.84,600.363 1304.86,600.363 1305.87,600.363 1306.88,600.363 1307.9,600.363 1308.91,600.363 1309.93,600.363 1310.94,600.363 1311.96,600.363 1312.97,600.363 1313.99,600.363 1315,600.363 1316.01,600.363 1317.03,600.363 1318.04,600.363 1319.06,600.363 1320.07,600.363 1321.09,600.363 1322.1,600.363 1323.12,600.363 1324.13,600.363 1325.14,600.363 1326.16,600.363 1327.17,600.363 1328.19,726.48 1329.2,727.178 1330.22,727.21 1331.23,727.212 1332.25,727.212 1333.26,727.212 1334.27,727.212 1335.29,727.212 1336.3,727.212 1337.32,727.212 1338.33,727.212 1339.35,727.212 1340.36,727.212 1341.38,727.212 1342.39,727.212 1343.4,727.212 1344.42,727.212 1345.43,727.212 1346.45,727.212 1347.46,727.212 1348.48,727.212 1349.49,727.212 1350.5,727.212 1351.52,727.212 1352.53,727.212 1353.55,727.212 1354.56,727.212 1355.58,727.212 1356.59,727.212 1357.61,727.212 1358.62,727.212 1359.63,727.212 1360.65,727.212 1361.66,727.212 1362.68,727.212 1363.69,727.212 1364.71,727.212 1365.72,727.212 1366.74,727.212 1367.75,727.212 1368.76,727.212 1369.78,727.212 1370.79,727.212 1371.81,727.212 1372.82,727.212 1373.84,727.212 1374.85,727.212 1375.87,727.212 1376.88,727.212 1377.89,727.212 1378.91,683.225 1379.92,686.185 1380.94,686.338 1381.95,686.347 1382.97,686.348 1383.98,686.348 1385,686.348 1386.01,686.348 1387.02,686.348 1388.04,686.348 1389.05,686.348 1390.07,686.348 1391.08,686.348 1392.1,686.348 1393.11,686.348 1394.13,686.348 1395.14,686.348 1396.15,686.348 1397.17,686.348 1398.18,686.348 1399.2,686.348 1400.21,686.348 1401.23,686.348 1402.24,686.348 1403.25,686.348 1404.27,686.348 1405.28,686.348 1406.3,686.348 1407.31,686.348 1408.33,686.348 1409.34,686.348 1410.36,686.348 1411.37,686.348 1412.38,686.348 1413.4,686.348 1414.41,686.348 1415.43,686.348 1416.44,686.348 1417.46,686.348 1418.47,686.348 1419.49,686.348 1420.5,686.348 1421.51,686.348 1422.53,686.348 1423.54,686.348 1424.56,686.348 1425.57,686.348 1426.59,686.348 1427.6,686.348 1428.62,686.348 1429.63,772.646 1430.64,773.717 1431.66,773.783 1432.67,773.788 1433.69,773.788 1434.7,773.788 1435.72,773.788 1436.73,773.788 1437.75,773.788 1438.76,773.788 1439.77,773.788 1440.79,773.788 1441.8,773.788 1442.82,773.788 1443.83,773.788 1444.85,773.788 1445.86,773.788 1446.88,773.788 1447.89,773.788 1448.9,773.788 1449.92,773.788 1450.93,773.788 1451.95,773.788 1452.96,773.788 1453.98,773.788 1454.99,773.788 1456,773.788 1457.02,773.788 1458.03,773.788 1459.05,773.788 1460.06,773.788 1461.08,773.788 1462.09,773.788 1463.11,773.788 1464.12,773.788 1465.13,773.788 1466.15,773.788 1467.16,773.788 1468.18,773.788 1469.19,773.788 1470.21,773.788 1471.22,773.788 1472.24,773.788 1473.25,773.788 1474.26,773.788 1475.28,773.788 1476.29,773.788 1477.31,773.788 1478.32,773.788 1479.34,773.788 1480.35,844.741 1481.37,846.376 1482.38,846.48 1483.39,846.487 1484.41,846.487 1485.42,846.487 1486.44,846.487 1487.45,846.487 1488.47,846.487 1489.48,846.487 1490.5,846.487 1491.51,846.487 1492.52,846.487 1493.54,846.487 1494.55,846.487 1495.57,846.487 1496.58,846.487 1497.6,846.487 1498.61,846.487 1499.63,846.487 1500.64,846.487 1501.65,846.487 1502.67,846.487 1503.68,846.487 1504.7,846.487 1505.71,846.487 1506.73,846.487 1507.74,846.487 1508.76,846.487 1509.77,846.487 1510.78,846.487 1511.8,846.487 1512.81,846.487 1513.83,846.487 1514.84,846.487 1515.86,846.487 1516.87,846.487 1517.88,846.487 1518.9,846.487 1519.91,846.487 1520.93,846.487 1521.94,846.487 1522.96,846.487 1523.97,846.487 1524.99,846.487 1526,846.487 1527.01,846.487 1528.03,846.487 1529.04,846.487 1530.06,846.487 1531.07,958.793 1532.09,961.889 1533.1,962.155 1534.12,962.181 1535.13,962.184 1536.14,962.184 1537.16,962.184 1538.17,962.184 1539.19,962.184 1540.2,962.184 1541.22,962.184 1542.23,962.184 1543.25,962.184 1544.26,962.184 1545.27,962.184 1546.29,962.184 1547.3,962.184 1548.32,962.184 1549.33,962.184 1550.35,962.184 1551.36,962.184 1552.38,962.184 1553.39,962.184 1554.4,962.184 1555.42,962.184 1556.43,962.184 1557.45,962.184 1558.46,962.184 1559.48,962.184 1560.49,962.184 1561.51,962.184 1562.52,962.184 1563.53,962.184 1564.55,962.184 1565.56,962.184 1566.58,962.184 1567.59,962.184 1568.61,962.184 1569.62,962.184 1570.63,962.184 1571.65,962.184 1572.66,962.184 1573.68,962.184 1574.69,962.184 1575.71,962.184 1576.72,962.184 1577.74,962.184 1578.75,962.184 1579.76,962.184 1580.78,962.184 1581.79,830.379 1582.81,832.557 1583.82,832.706 1584.84,832.717 1585.85,832.718 1586.87,832.718 1587.88,832.718 1588.89,832.718 1589.91,832.718 1590.92,832.718 1591.94,832.718 1592.95,832.718 1593.97,832.718 1594.98,832.718 1596,832.718 1597.01,832.718 1598.02,832.718 1599.04,832.718 1600.05,832.718 1601.07,832.718 1602.08,832.718 1603.1,832.718 1604.11,832.718 1605.13,832.718 1606.14,832.718 1607.15,832.718 1608.17,832.718 1609.18,832.718 1610.2,832.718 1611.21,832.718 1612.23,832.718 1613.24,832.718 1614.26,832.718 1615.27,832.718 1616.28,832.718 1617.3,832.718 1618.31,832.718 1619.33,832.718 1620.34,832.718 1621.36,832.718 1622.37,832.718 1623.38,832.718 1624.4,832.718 1625.41,832.718 1626.43,832.718 1627.44,832.718 1628.46,832.718 1629.47,832.718 1630.49,832.718 1631.5,832.718 1632.51,1061.57 1633.53,1066.26 1634.54,1066.56 1635.56,1066.58 1636.57,1066.58 1637.59,1066.58 1638.6,1066.58 1639.62,1066.58 1640.63,1066.58 1641.64,1066.58 1642.66,1066.58 1643.67,1066.58 1644.69,1066.58 1645.7,1066.58 1646.72,1066.58 1647.73,1066.58 1648.75,1066.58 1649.76,1066.58 1650.77,1066.58 1651.79,1066.58 1652.8,1066.58 1653.82,1066.58 1654.83,1066.58 1655.85,1066.58 1656.86,1066.58 1657.88,1066.58 1658.89,1066.58 1659.9,1066.58 1660.92,1066.58 1661.93,1066.58 1662.95,1066.58 1663.96,1066.58 1664.98,1066.58 1665.99,1066.58 1667.01,1066.58 1668.02,1066.58 1669.03,1066.58 1670.05,1066.58 1671.06,1066.58 1672.08,1066.58 1673.09,1066.58 1674.11,1066.58 1675.12,1066.58 1676.13,1066.58 1677.15,1066.58 1678.16,1066.58 1679.18,1066.58 1680.19,1066.58 1681.21,1066.58 1682.22,1066.58 1683.24,1118.58 1684.25,1119.33 1685.26,1119.42 1686.28,1119.43 1687.29,1119.43 1688.31,1119.43 1689.32,1119.43 1690.34,1119.43 1691.35,1119.43 1692.37,1119.43 1693.38,1119.43 1694.39,1119.43 1695.41,1119.43 1696.42,1119.43 1697.44,1119.43 1698.45,1119.43 1699.47,1119.43 1700.48,1119.43 1701.5,1119.43 1702.51,1119.43 1703.52,1119.43 1704.54,1119.43 1705.55,1119.43 1706.57,1119.43 1707.58,1119.43 1708.6,1119.43 1709.61,1119.43 1710.63,1119.43 1711.64,1119.43 1712.65,1119.43 1713.67,1119.43 1714.68,1119.43 1715.7,1119.43 1716.71,1119.43 1717.73,1119.43 1718.74,1119.43 1719.76,1119.43 1720.77,1119.43 1721.78,1119.43 1722.8,1119.43 1723.81,1119.43 1724.83,1119.43 1725.84,1119.43 1726.86,1119.43 1727.87,1119.43 1728.89,1119.43 1729.9,1119.43 1730.91,1119.43 1731.93,1119.43 1732.94,1119.43 1733.96,1184.44 1734.97,1185.2 1735.99,1185.27 1737,1185.28 1738.01,1185.28 1739.03,1185.28 1740.04,1185.28 1741.06,1185.28 1742.07,1185.28 1743.09,1185.28 1744.1,1185.28 1745.12,1185.28 1746.13,1185.28 1747.14,1185.28 1748.16,1185.28 1749.17,1185.28 1750.19,1185.28 1751.2,1185.28 1752.22,1185.28 1753.23,1185.28 1754.25,1185.28 1755.26,1185.28 1756.27,1185.28 1757.29,1185.28 1758.3,1185.28 1759.32,1185.28 1760.33,1185.28 1761.35,1185.28 1762.36,1185.28 1763.38,1185.28 1764.39,1185.28 1765.4,1185.28 1766.42,1185.28 1767.43,1185.28 1768.45,1185.28 1769.46,1185.28 1770.48,1185.28 1771.49,1185.28 1772.51,1185.28 1773.52,1185.28 1774.53,1185.28 1775.55,1185.28 1776.56,1185.28 1777.58,1185.28 1778.59,1185.28 1779.61,1185.28 1780.62,1185.28 1781.64,1185.28 1782.65,1185.28 1783.66,1185.28 1784.68,1185.42 1785.69,1185.92 1786.71,1186 1787.72,1186.02 1788.74,1186.02 1789.75,1186.02 1790.76,1186.02 1791.78,1186.02 1792.79,1186.02 1793.81,1186.02 1794.82,1186.02 1795.84,1186.02 1796.85,1186.02 1797.87,1186.02 1798.88,1186.02 1799.89,1186.02 1800.91,1186.02 1801.92,1186.02 1802.94,1186.02 1803.95,1186.02 1804.97,1186.02 1805.98,1186.02 1807,1186.02 1808.01,1186.02 1809.02,1186.02 1810.04,1186.02 1811.05,1186.02 1812.07,1186.02 1813.08,1186.02 1814.1,1186.02 1815.11,1186.02 1816.13,1186.02 1817.14,1186.02 1818.15,1186.02 1819.17,1186.02 1820.18,1186.02 1821.2,1186.02 1822.21,1186.02 1823.23,1186.02 1824.24,1186.02 1825.26,1186.02 1826.27,1186.02 1827.28,1186.02 1828.3,1186.02 1829.31,1186.02 1830.33,1186.02 1831.34,1186.02 1832.36,1186.02 1833.37,1186.02 1834.39,1186.02 1835.4,1244.13 1836.41,1246.39 1837.43,1246.77 1838.44,1246.84 1839.46,1246.85 1840.47,1246.85 1841.49,1246.85 1842.5,1246.85 1843.51,1246.85 1844.53,1246.85 1845.54,1246.85 1846.56,1246.85 1847.57,1246.85 1848.59,1246.85 1849.6,1246.85 1850.62,1246.85 1851.63,1246.85 1852.64,1246.85 1853.66,1246.85 1854.67,1246.85 1855.69,1246.85 1856.7,1246.85 1857.72,1246.85 1858.73,1246.85 1859.75,1246.85 1860.76,1246.85 1861.77,1246.85 1862.79,1246.85 1863.8,1246.85 1864.82,1246.85 1865.83,1246.85 1866.85,1246.85 1867.86,1246.85 1868.88,1246.85 1869.89,1246.85 1870.9,1246.85 1871.92,1246.85 1872.93,1246.85 1873.95,1246.85 1874.96,1246.85 1875.98,1246.85 1876.99,1246.85 1878.01,1246.85 1879.02,1246.85 1880.03,1246.85 1881.05,1246.85 1882.06,1246.85 1883.08,1246.85 1884.09,1246.85 1885.11,1246.85 1886.12,1258.45 1887.14,1259.25 1888.15,1259.4 1889.16,1259.43 1890.18,1259.43 1891.19,1259.43 1892.21,1259.43 1893.22,1259.43 1894.24,1259.43 1895.25,1259.43 1896.27,1259.43 1897.28,1259.43 1898.29,1259.43 1899.31,1259.43 1900.32,1259.43 1901.34,1259.43 1902.35,1259.43 1903.37,1259.43 1904.38,1259.43 1905.39,1259.43 1906.41,1259.43 1907.42,1259.43 1908.44,1259.43 1909.45,1259.43 1910.47,1259.43 1911.48,1259.43 1912.5,1259.43 1913.51,1259.43 1914.52,1259.43 1915.54,1259.43 1916.55,1259.43 1917.57,1259.43 1918.58,1259.43 1919.6,1259.43 1920.61,1259.43 1921.63,1259.43 1922.64,1259.43 1923.65,1259.43 1924.67,1259.43 1925.68,1259.43 1926.7,1259.43 1927.71,1259.43 1928.73,1259.43 1929.74,1259.43 1930.76,1259.43 1931.77,1259.43 1932.78,1259.43 1933.8,1259.43 1934.81,1259.43 1935.83,1259.43 1936.84,1226.49 1937.86,1228.27 1938.87,1228.61 1939.89,1228.67 1940.9,1228.69 1941.91,1228.69 1942.93,1228.69 1943.94,1228.69 1944.96,1228.69 1945.97,1228.69 1946.99,1228.69 1948,1228.69 1949.02,1228.69 1950.03,1228.69 1951.04,1228.69 1952.06,1228.69 1953.07,1228.69 1954.09,1228.69 1955.1,1228.69 1956.12,1228.69 1957.13,1228.69 1958.14,1228.69 1959.16,1228.69 1960.17,1228.69 1961.19,1228.69 1962.2,1228.69 1963.22,1228.69 1964.23,1228.69 1965.25,1228.69 1966.26,1228.69 1967.27,1228.69 1968.29,1228.69 1969.3,1228.69 1970.32,1228.69 1971.33,1228.69 1972.35,1228.69 1973.36,1228.69 1974.38,1228.69 1975.39,1228.69 1976.4,1228.69 1977.42,1228.69 1978.43,1228.69 1979.45,1228.69 1980.46,1228.69 1981.48,1228.69 1982.49,1228.69 1983.51,1228.69 1984.52,1228.69 1985.53,1228.69 1986.55,1228.69 1987.56,1219.46 1988.58,1220.53 1989.59,1220.72 1990.61,1220.75 1991.62,1220.76 1992.64,1220.76 1993.65,1220.76 1994.66,1220.76 1995.68,1220.76 1996.69,1220.76 1997.71,1220.76 1998.72,1220.76 1999.74,1220.76 2000.75,1220.76 2001.77,1220.76 2002.78,1220.76 2003.79,1220.76 2004.81,1220.76 2005.82,1220.76 2006.84,1220.76 2007.85,1220.76 2008.87,1220.76 2009.88,1220.76 2010.89,1220.76 2011.91,1220.76 2012.92,1220.76 2013.94,1220.76 2014.95,1220.76 2015.97,1220.76 2016.98,1220.76 2018,1220.76 2019.01,1220.76 2020.02,1220.76 2021.04,1220.76 2022.05,1220.76 2023.07,1220.76 2024.08,1220.76 2025.1,1220.76 2026.11,1220.76 2027.13,1220.76 2028.14,1220.76 2029.15,1220.76 2030.17,1220.76 2031.18,1220.76 2032.2,1220.76 2033.21,1220.76 2034.23,1220.76 2035.24,1220.76 2036.26,1220.76 2037.27,1220.76 2038.28,1183.75 2039.3,1185.38 2040.31,1185.56 2041.33,1185.58 2042.34,1185.58 2043.36,1185.58 2044.37,1185.58 2045.39,1185.58 2046.4,1185.58 2047.41,1185.58 2048.43,1185.58 2049.44,1185.58 2050.46,1185.58 2051.47,1185.58 2052.49,1185.58 2053.5,1185.58 2054.52,1185.58 2055.53,1185.58 2056.54,1185.58 2057.56,1185.58 2058.57,1185.58 2059.59,1185.58 2060.6,1185.58 2061.62,1185.58 2062.63,1185.58 2063.65,1185.58 2064.66,1185.58 2065.67,1185.58 2066.69,1185.58 2067.7,1185.58 2068.72,1185.58 2069.73,1185.58 2070.75,1185.58 2071.76,1185.58 2072.77,1185.58 2073.79,1185.58 2074.8,1185.58 2075.82,1185.58 2076.83,1185.58 2077.85,1185.58 2078.86,1185.58 2079.88,1185.58 2080.89,1185.58 2081.9,1185.58 2082.92,1185.58 2083.93,1185.58 2084.95,1185.58 2085.96,1185.58 2086.98,1185.58 2087.99,1185.58 2089.01,1268.27 2090.02,1268.63 2091.03,1268.66 2092.05,1268.66 2093.06,1268.66 2094.08,1268.66 2095.09,1268.66 2096.11,1268.66 2097.12,1268.66 2098.14,1268.66 2099.15,1268.66 2100.16,1268.66 2101.18,1268.66 2102.19,1268.66 2103.21,1268.66 2104.22,1268.66 2105.24,1268.66 2106.25,1268.66 2107.27,1268.66 2108.28,1268.66 2109.29,1268.66 2110.31,1268.66 2111.32,1268.66 2112.34,1268.66 2113.35,1268.66 2114.37,1268.66 2115.38,1268.66 2116.4,1268.66 2117.41,1268.66 2118.42,1268.66 2119.44,1268.66 2120.45,1268.66 2121.47,1268.66 2122.48,1268.66 2123.5,1268.66 2124.51,1268.66 2125.52,1268.66 2126.54,1268.66 2127.55,1268.66 2128.57,1268.66 2129.58,1268.66 2130.6,1268.66 2131.61,1268.66 2132.63,1268.66 2133.64,1268.66 2134.65,1268.66 2135.67,1268.66 2136.68,1268.66 2137.7,1268.66 2138.71,1268.66 2139.73,1365.39 2140.74,1368.98 2141.76,1369.75 2142.77,1369.94 2143.78,1370 2144.8,1370.01 2145.81,1370.02 2146.83,1370.02 2147.84,1370.02 2148.86,1370.02 2149.87,1370.02 2150.89,1370.02 2151.9,1370.02 2152.91,1370.02 2153.93,1370.02 2154.94,1370.02 2155.96,1370.02 2156.97,1370.02 2157.99,1370.02 2159,1370.02 2160.02,1370.02 2161.03,1370.02 2162.04,1370.02 2163.06,1370.02 2164.07,1370.02 2165.09,1370.02 2166.1,1370.02 2167.12,1370.02 2168.13,1370.02 2169.15,1370.02 2170.16,1370.02 2171.17,1370.02 2172.19,1370.02 2173.2,1370.02 2174.22,1370.02 2175.23,1370.02 2176.25,1370.02 2177.26,1370.02 2178.27,1370.02 2179.29,1370.02 2180.3,1370.02 2181.32,1370.02 2182.33,1370.02 2183.35,1370.02 2184.36,1370.02 2185.38,1370.02 2186.39,1370.02 2187.4,1370.02 2188.42,1370.02 2189.43,1370.02 2190.45,1443.12 2191.46,1445.44 2192.48,1445.67 2193.49,1445.7 2194.51,1445.71 2195.52,1445.71 2196.53,1445.72 2197.55,1445.72 2198.56,1445.72 2199.58,1445.72 2200.59,1445.72 2201.61,1445.72 2202.62,1445.72 2203.64,1445.72 2204.65,1445.72 2205.66,1445.72 2206.68,1445.72 2207.69,1445.72 2208.71,1445.72 2209.72,1445.72 2210.74,1445.72 2211.75,1445.72 2212.77,1445.72 2213.78,1445.72 2214.79,1445.72 2215.81,1445.72 2216.82,1445.72 2217.84,1445.72 2218.85,1445.72 2219.87,1445.72 2220.88,1445.72 2221.9,1445.72 2222.91,1445.72 2223.92,1445.72 2224.94,1445.72 2225.95,1445.72 2226.97,1445.72 2227.98,1445.72 2229,1445.72 2230.01,1445.72 2231.03,1445.72 2232.04,1445.72 2233.05,1445.72 2234.07,1445.72 2235.08,1445.72 2236.1,1445.72 2237.11,1445.72 2238.13,1445.72 2239.14,1445.72 2240.15,1445.72 2241.17,1339.29 2242.18,1344.54 2243.2,1345.17 2244.21,1345.26 2245.23,1345.28 2246.24,1345.28 2247.26,1345.28 2248.27,1345.28 2249.28,1345.28 2250.3,1345.28 2251.31,1345.28 2252.33,1345.28 2253.34,1345.28 2254.36,1345.28 2255.37,1345.28 2256.39,1345.28 2257.4,1345.28 2258.41,1345.28 2259.43,1345.28 2260.44,1345.28 2261.46,1345.28 2262.47,1345.28 2263.49,1345.28 2264.5,1345.28 2265.52,1345.28 2266.53,1345.28 2267.54,1345.28 2268.56,1345.28 2269.57,1345.28 2270.59,1345.28 2271.6,1345.28 2272.62,1345.28 2273.63,1345.28 2274.65,1345.28 2275.66,1345.28 2276.67,1345.28 2277.69,1345.28 2278.7,1345.28 2279.72,1345.28 2280.73,1345.28 2281.75,1345.28 2282.76,1345.28 2283.78,1345.28 2284.79,1345.28 2285.8,1345.28 2286.82,1345.28 2287.83,1345.28 2288.85,1345.28 2289.86,1345.28 2290.88,1345.28 2291.89,1345.28 "/>
<path clip-path="url(#clip490)" d="M2013.58 198.898 L2281.07 198.898 L2281.07 95.2176 L2013.58 95.2176  Z" fill="#ffffff" fill-rule="evenodd" fill-opacity="1"/>
<polyline clip-path="url(#clip490)" style="stroke:#000000; stroke-linecap:round; stroke-linejoin:round; stroke-width:4; stroke-opacity:1; fill:none" points="2013.58,198.898 2281.07,198.898 2281.07,95.2176 2013.58,95.2176 2013.58,198.898 "/>
<polyline clip-path="url(#clip490)" style="stroke:#009af9; stroke-linecap:round; stroke-linejoin:round; stroke-width:4; stroke-opacity:1; fill:none" points="2037.48,147.058 2180.85,147.058 "/>
<path clip-path="url(#clip490)" d="M2218.59 166.745 Q2216.78 171.375 2215.07 172.787 Q2213.36 174.199 2210.49 174.199 L2207.08 174.199 L2207.08 170.634 L2209.58 170.634 Q2211.34 170.634 2212.31 169.8 Q2213.29 168.967 2214.47 165.865 L2215.23 163.921 L2204.74 138.412 L2209.26 138.412 L2217.36 158.689 L2225.46 138.412 L2229.98 138.412 L2218.59 166.745 Z" fill="#000000" fill-rule="nonzero" fill-opacity="1" /><path clip-path="url(#clip490)" d="M2237.27 160.402 L2244.91 160.402 L2244.91 134.037 L2236.6 135.703 L2236.6 131.444 L2244.86 129.778 L2249.54 129.778 L2249.54 160.402 L2257.17 160.402 L2257.17 164.338 L2237.27 164.338 L2237.27 160.402 Z" fill="#000000" fill-rule="nonzero" fill-opacity="1" /></svg>
