<?xml version="1.0" encoding="utf-8"?>
<svg xmlns="http://www.w3.org/2000/svg" xmlns:xlink="http://www.w3.org/1999/xlink" width="600" height="400" viewBox="0 0 2400 1600">
<defs>
  <clipPath id="clip200">
    <rect x="0" y="0" width="2400" height="1600"/>
  </clipPath>
</defs>
<path clip-path="url(#clip200)" d="M0 1600 L2400 1600 L2400 0 L0 0  Z" fill="#ffffff" fill-rule="evenodd" fill-opacity="1"/>
<defs>
  <clipPath id="clip201">
    <rect x="480" y="0" width="1681" height="1600"/>
  </clipPath>
</defs>
<path clip-path="url(#clip200)" d="M156.274 1486.45 L2352.76 1486.45 L2352.76 47.2441 L156.274 47.2441  Z" fill="#ffffff" fill-rule="evenodd" fill-opacity="1"/>
<defs>
  <clipPath id="clip202">
    <rect x="156" y="47" width="2197" height="1440"/>
  </clipPath>
</defs>
<polyline clip-path="url(#clip202)" style="stroke:#000000; stroke-linecap:round; stroke-linejoin:round; stroke-width:2; stroke-opacity:0.1; fill:none" points="218.439,1486.45 218.439,47.2441 "/>
<polyline clip-path="url(#clip202)" style="stroke:#000000; stroke-linecap:round; stroke-linejoin:round; stroke-width:2; stroke-opacity:0.1; fill:none" points="736.995,1486.45 736.995,47.2441 "/>
<polyline clip-path="url(#clip202)" style="stroke:#000000; stroke-linecap:round; stroke-linejoin:round; stroke-width:2; stroke-opacity:0.1; fill:none" points="1255.55,1486.45 1255.55,47.2441 "/>
<polyline clip-path="url(#clip202)" style="stroke:#000000; stroke-linecap:round; stroke-linejoin:round; stroke-width:2; stroke-opacity:0.1; fill:none" points="1774.11,1486.45 1774.11,47.2441 "/>
<polyline clip-path="url(#clip202)" style="stroke:#000000; stroke-linecap:round; stroke-linejoin:round; stroke-width:2; stroke-opacity:0.1; fill:none" points="2292.67,1486.45 2292.67,47.2441 "/>
<polyline clip-path="url(#clip200)" style="stroke:#000000; stroke-linecap:round; stroke-linejoin:round; stroke-width:4; stroke-opacity:1; fill:none" points="156.274,1486.45 2352.76,1486.45 "/>
<polyline clip-path="url(#clip200)" style="stroke:#000000; stroke-linecap:round; stroke-linejoin:round; stroke-width:4; stroke-opacity:1; fill:none" points="218.439,1486.45 218.439,1467.55 "/>
<polyline clip-path="url(#clip200)" style="stroke:#000000; stroke-linecap:round; stroke-linejoin:round; stroke-width:4; stroke-opacity:1; fill:none" points="736.995,1486.45 736.995,1467.55 "/>
<polyline clip-path="url(#clip200)" style="stroke:#000000; stroke-linecap:round; stroke-linejoin:round; stroke-width:4; stroke-opacity:1; fill:none" points="1255.55,1486.45 1255.55,1467.55 "/>
<polyline clip-path="url(#clip200)" style="stroke:#000000; stroke-linecap:round; stroke-linejoin:round; stroke-width:4; stroke-opacity:1; fill:none" points="1774.11,1486.45 1774.11,1467.55 "/>
<polyline clip-path="url(#clip200)" style="stroke:#000000; stroke-linecap:round; stroke-linejoin:round; stroke-width:4; stroke-opacity:1; fill:none" points="2292.67,1486.45 2292.67,1467.55 "/>
<path clip-path="url(#clip200)" d="M218.439 1517.37 Q214.828 1517.37 212.999 1520.93 Q211.193 1524.47 211.193 1531.6 Q211.193 1538.71 212.999 1542.27 Q214.828 1545.82 218.439 1545.82 Q222.073 1545.82 223.879 1542.27 Q225.707 1538.71 225.707 1531.6 Q225.707 1524.47 223.879 1520.93 Q222.073 1517.37 218.439 1517.37 M218.439 1513.66 Q224.249 1513.66 227.304 1518.27 Q230.383 1522.85 230.383 1531.6 Q230.383 1540.33 227.304 1544.94 Q224.249 1549.52 218.439 1549.52 Q212.629 1549.52 209.55 1544.94 Q206.494 1540.33 206.494 1531.6 Q206.494 1522.85 209.55 1518.27 Q212.629 1513.66 218.439 1513.66 Z" fill="#000000" fill-rule="nonzero" fill-opacity="1" /><path clip-path="url(#clip200)" d="M700.688 1544.91 L717.007 1544.91 L717.007 1548.85 L695.063 1548.85 L695.063 1544.91 Q697.725 1542.16 702.308 1537.53 Q706.915 1532.88 708.095 1531.53 Q710.34 1529.01 711.22 1527.27 Q712.123 1525.51 712.123 1523.82 Q712.123 1521.07 710.178 1519.33 Q708.257 1517.6 705.155 1517.6 Q702.956 1517.6 700.503 1518.36 Q698.072 1519.13 695.294 1520.68 L695.294 1515.95 Q698.118 1514.82 700.572 1514.24 Q703.026 1513.66 705.063 1513.66 Q710.433 1513.66 713.628 1516.35 Q716.822 1519.03 716.822 1523.52 Q716.822 1525.65 716.012 1527.57 Q715.225 1529.47 713.118 1532.07 Q712.54 1532.74 709.438 1535.95 Q706.336 1539.15 700.688 1544.91 Z" fill="#000000" fill-rule="nonzero" fill-opacity="1" /><path clip-path="url(#clip200)" d="M726.868 1514.29 L745.225 1514.29 L745.225 1518.22 L731.151 1518.22 L731.151 1526.7 Q732.169 1526.35 733.188 1526.19 Q734.206 1526 735.225 1526 Q741.012 1526 744.391 1529.17 Q747.771 1532.34 747.771 1537.76 Q747.771 1543.34 744.299 1546.44 Q740.826 1549.52 734.507 1549.52 Q732.331 1549.52 730.063 1549.15 Q727.817 1548.78 725.41 1548.04 L725.41 1543.34 Q727.493 1544.47 729.715 1545.03 Q731.938 1545.58 734.414 1545.58 Q738.419 1545.58 740.757 1543.48 Q743.095 1541.37 743.095 1537.76 Q743.095 1534.15 740.757 1532.04 Q738.419 1529.94 734.414 1529.94 Q732.539 1529.94 730.664 1530.35 Q728.813 1530.77 726.868 1531.65 L726.868 1514.29 Z" fill="#000000" fill-rule="nonzero" fill-opacity="1" /><path clip-path="url(#clip200)" d="M766.984 1517.37 Q763.373 1517.37 761.544 1520.93 Q759.738 1524.47 759.738 1531.6 Q759.738 1538.71 761.544 1542.27 Q763.373 1545.82 766.984 1545.82 Q770.618 1545.82 772.423 1542.27 Q774.252 1538.71 774.252 1531.6 Q774.252 1524.47 772.423 1520.93 Q770.618 1517.37 766.984 1517.37 M766.984 1513.66 Q772.794 1513.66 775.849 1518.27 Q778.928 1522.85 778.928 1531.6 Q778.928 1540.33 775.849 1544.94 Q772.794 1549.52 766.984 1549.52 Q761.174 1549.52 758.095 1544.94 Q755.039 1540.33 755.039 1531.6 Q755.039 1522.85 758.095 1518.27 Q761.174 1513.66 766.984 1513.66 Z" fill="#000000" fill-rule="nonzero" fill-opacity="1" /><path clip-path="url(#clip200)" d="M1215.17 1514.29 L1233.53 1514.29 L1233.53 1518.22 L1219.45 1518.22 L1219.45 1526.7 Q1220.47 1526.35 1221.49 1526.19 Q1222.51 1526 1223.53 1526 Q1229.31 1526 1232.69 1529.17 Q1236.07 1532.34 1236.07 1537.76 Q1236.07 1543.34 1232.6 1546.44 Q1229.13 1549.52 1222.81 1549.52 Q1220.63 1549.52 1218.36 1549.15 Q1216.12 1548.78 1213.71 1548.04 L1213.71 1543.34 Q1215.8 1544.47 1218.02 1545.03 Q1220.24 1545.58 1222.72 1545.58 Q1226.72 1545.58 1229.06 1543.48 Q1231.4 1541.37 1231.4 1537.76 Q1231.4 1534.15 1229.06 1532.04 Q1226.72 1529.94 1222.72 1529.94 Q1220.84 1529.94 1218.97 1530.35 Q1217.11 1530.77 1215.17 1531.65 L1215.17 1514.29 Z" fill="#000000" fill-rule="nonzero" fill-opacity="1" /><path clip-path="url(#clip200)" d="M1255.29 1517.37 Q1251.67 1517.37 1249.85 1520.93 Q1248.04 1524.47 1248.04 1531.6 Q1248.04 1538.71 1249.85 1542.27 Q1251.67 1545.82 1255.29 1545.82 Q1258.92 1545.82 1260.73 1542.27 Q1262.55 1538.71 1262.55 1531.6 Q1262.55 1524.47 1260.73 1520.93 Q1258.92 1517.37 1255.29 1517.37 M1255.29 1513.66 Q1261.1 1513.66 1264.15 1518.27 Q1267.23 1522.85 1267.23 1531.6 Q1267.23 1540.33 1264.15 1544.94 Q1261.1 1549.52 1255.29 1549.52 Q1249.48 1549.52 1246.4 1544.94 Q1243.34 1540.33 1243.34 1531.6 Q1243.34 1522.85 1246.4 1518.27 Q1249.48 1513.66 1255.29 1513.66 Z" fill="#000000" fill-rule="nonzero" fill-opacity="1" /><path clip-path="url(#clip200)" d="M1285.45 1517.37 Q1281.84 1517.37 1280.01 1520.93 Q1278.2 1524.47 1278.2 1531.6 Q1278.2 1538.71 1280.01 1542.27 Q1281.84 1545.82 1285.45 1545.82 Q1289.08 1545.82 1290.89 1542.27 Q1292.72 1538.71 1292.72 1531.6 Q1292.72 1524.47 1290.89 1520.93 Q1289.08 1517.37 1285.45 1517.37 M1285.45 1513.66 Q1291.26 1513.66 1294.31 1518.27 Q1297.39 1522.85 1297.39 1531.6 Q1297.39 1540.33 1294.31 1544.94 Q1291.26 1549.52 1285.45 1549.52 Q1279.64 1549.52 1276.56 1544.94 Q1273.5 1540.33 1273.5 1531.6 Q1273.5 1522.85 1276.56 1518.27 Q1279.64 1513.66 1285.45 1513.66 Z" fill="#000000" fill-rule="nonzero" fill-opacity="1" /><path clip-path="url(#clip200)" d="M1732.38 1514.29 L1754.61 1514.29 L1754.61 1516.28 L1742.06 1548.85 L1737.18 1548.85 L1748.98 1518.22 L1732.38 1518.22 L1732.38 1514.29 Z" fill="#000000" fill-rule="nonzero" fill-opacity="1" /><path clip-path="url(#clip200)" d="M1763.77 1514.29 L1782.13 1514.29 L1782.13 1518.22 L1768.06 1518.22 L1768.06 1526.7 Q1769.07 1526.35 1770.09 1526.19 Q1771.11 1526 1772.13 1526 Q1777.92 1526 1781.3 1529.17 Q1784.68 1532.34 1784.68 1537.76 Q1784.68 1543.34 1781.2 1546.44 Q1777.73 1549.52 1771.41 1549.52 Q1769.24 1549.52 1766.97 1549.15 Q1764.72 1548.78 1762.31 1548.04 L1762.31 1543.34 Q1764.4 1544.47 1766.62 1545.03 Q1768.84 1545.58 1771.32 1545.58 Q1775.32 1545.58 1777.66 1543.48 Q1780 1541.37 1780 1537.76 Q1780 1534.15 1777.66 1532.04 Q1775.32 1529.94 1771.32 1529.94 Q1769.44 1529.94 1767.57 1530.35 Q1765.72 1530.77 1763.77 1531.65 L1763.77 1514.29 Z" fill="#000000" fill-rule="nonzero" fill-opacity="1" /><path clip-path="url(#clip200)" d="M1803.89 1517.37 Q1800.28 1517.37 1798.45 1520.93 Q1796.64 1524.47 1796.64 1531.6 Q1796.64 1538.71 1798.45 1542.27 Q1800.28 1545.82 1803.89 1545.82 Q1807.52 1545.82 1809.33 1542.27 Q1811.16 1538.71 1811.16 1531.6 Q1811.16 1524.47 1809.33 1520.93 Q1807.52 1517.37 1803.89 1517.37 M1803.89 1513.66 Q1809.7 1513.66 1812.75 1518.27 Q1815.83 1522.85 1815.83 1531.6 Q1815.83 1540.33 1812.75 1544.94 Q1809.7 1549.52 1803.89 1549.52 Q1798.08 1549.52 1795 1544.94 Q1791.94 1540.33 1791.94 1531.6 Q1791.94 1522.85 1795 1518.27 Q1798.08 1513.66 1803.89 1513.66 Z" fill="#000000" fill-rule="nonzero" fill-opacity="1" /><path clip-path="url(#clip200)" d="M2237.19 1544.91 L2244.83 1544.91 L2244.83 1518.55 L2236.52 1520.21 L2236.52 1515.95 L2244.78 1514.29 L2249.46 1514.29 L2249.46 1544.91 L2257.1 1544.91 L2257.1 1548.85 L2237.19 1548.85 L2237.19 1544.91 Z" fill="#000000" fill-rule="nonzero" fill-opacity="1" /><path clip-path="url(#clip200)" d="M2276.54 1517.37 Q2272.93 1517.37 2271.1 1520.93 Q2269.3 1524.47 2269.3 1531.6 Q2269.3 1538.71 2271.1 1542.27 Q2272.93 1545.82 2276.54 1545.82 Q2280.18 1545.82 2281.98 1542.27 Q2283.81 1538.71 2283.81 1531.6 Q2283.81 1524.47 2281.98 1520.93 Q2280.18 1517.37 2276.54 1517.37 M2276.54 1513.66 Q2282.35 1513.66 2285.41 1518.27 Q2288.49 1522.85 2288.49 1531.6 Q2288.49 1540.33 2285.41 1544.94 Q2282.35 1549.52 2276.54 1549.52 Q2270.73 1549.52 2267.65 1544.94 Q2264.6 1540.33 2264.6 1531.6 Q2264.6 1522.85 2267.65 1518.27 Q2270.73 1513.66 2276.54 1513.66 Z" fill="#000000" fill-rule="nonzero" fill-opacity="1" /><path clip-path="url(#clip200)" d="M2306.7 1517.37 Q2303.09 1517.37 2301.27 1520.93 Q2299.46 1524.47 2299.46 1531.6 Q2299.46 1538.71 2301.27 1542.27 Q2303.09 1545.82 2306.7 1545.82 Q2310.34 1545.82 2312.14 1542.27 Q2313.97 1538.71 2313.97 1531.6 Q2313.97 1524.47 2312.14 1520.93 Q2310.34 1517.37 2306.7 1517.37 M2306.7 1513.66 Q2312.51 1513.66 2315.57 1518.27 Q2318.65 1522.85 2318.65 1531.6 Q2318.65 1540.33 2315.57 1544.94 Q2312.51 1549.52 2306.7 1549.52 Q2300.89 1549.52 2297.82 1544.94 Q2294.76 1540.33 2294.76 1531.6 Q2294.76 1522.85 2297.82 1518.27 Q2300.89 1513.66 2306.7 1513.66 Z" fill="#000000" fill-rule="nonzero" fill-opacity="1" /><path clip-path="url(#clip200)" d="M2336.87 1517.37 Q2333.26 1517.37 2331.43 1520.93 Q2329.62 1524.47 2329.62 1531.6 Q2329.62 1538.71 2331.43 1542.27 Q2333.26 1545.82 2336.87 1545.82 Q2340.5 1545.82 2342.31 1542.27 Q2344.14 1538.71 2344.14 1531.6 Q2344.14 1524.47 2342.31 1520.93 Q2340.5 1517.37 2336.87 1517.37 M2336.87 1513.66 Q2342.68 1513.66 2345.73 1518.27 Q2348.81 1522.85 2348.81 1531.6 Q2348.81 1540.33 2345.73 1544.94 Q2342.68 1549.52 2336.87 1549.52 Q2331.06 1549.52 2327.98 1544.94 Q2324.92 1540.33 2324.92 1531.6 Q2324.92 1522.85 2327.98 1518.27 Q2331.06 1513.66 2336.87 1513.66 Z" fill="#000000" fill-rule="nonzero" fill-opacity="1" /><polyline clip-path="url(#clip202)" style="stroke:#000000; stroke-linecap:round; stroke-linejoin:round; stroke-width:2; stroke-opacity:0.1; fill:none" points="156.274,1327.65 2352.76,1327.65 "/>
<polyline clip-path="url(#clip202)" style="stroke:#000000; stroke-linecap:round; stroke-linejoin:round; stroke-width:2; stroke-opacity:0.1; fill:none" points="156.274,1032.49 2352.76,1032.49 "/>
<polyline clip-path="url(#clip202)" style="stroke:#000000; stroke-linecap:round; stroke-linejoin:round; stroke-width:2; stroke-opacity:0.1; fill:none" points="156.274,737.33 2352.76,737.33 "/>
<polyline clip-path="url(#clip202)" style="stroke:#000000; stroke-linecap:round; stroke-linejoin:round; stroke-width:2; stroke-opacity:0.1; fill:none" points="156.274,442.169 2352.76,442.169 "/>
<polyline clip-path="url(#clip202)" style="stroke:#000000; stroke-linecap:round; stroke-linejoin:round; stroke-width:2; stroke-opacity:0.1; fill:none" points="156.274,147.008 2352.76,147.008 "/>
<polyline clip-path="url(#clip200)" style="stroke:#000000; stroke-linecap:round; stroke-linejoin:round; stroke-width:4; stroke-opacity:1; fill:none" points="156.274,1486.45 156.274,47.2441 "/>
<polyline clip-path="url(#clip200)" style="stroke:#000000; stroke-linecap:round; stroke-linejoin:round; stroke-width:4; stroke-opacity:1; fill:none" points="156.274,1327.65 175.172,1327.65 "/>
<polyline clip-path="url(#clip200)" style="stroke:#000000; stroke-linecap:round; stroke-linejoin:round; stroke-width:4; stroke-opacity:1; fill:none" points="156.274,1032.49 175.172,1032.49 "/>
<polyline clip-path="url(#clip200)" style="stroke:#000000; stroke-linecap:round; stroke-linejoin:round; stroke-width:4; stroke-opacity:1; fill:none" points="156.274,737.33 175.172,737.33 "/>
<polyline clip-path="url(#clip200)" style="stroke:#000000; stroke-linecap:round; stroke-linejoin:round; stroke-width:4; stroke-opacity:1; fill:none" points="156.274,442.169 175.172,442.169 "/>
<polyline clip-path="url(#clip200)" style="stroke:#000000; stroke-linecap:round; stroke-linejoin:round; stroke-width:4; stroke-opacity:1; fill:none" points="156.274,147.008 175.172,147.008 "/>
<path clip-path="url(#clip200)" d="M64.0939 1313.45 Q60.4828 1313.45 58.6541 1317.01 Q56.8486 1320.56 56.8486 1327.69 Q56.8486 1334.79 58.6541 1338.36 Q60.4828 1341.9 64.0939 1341.9 Q67.7281 1341.9 69.5337 1338.36 Q71.3624 1334.79 71.3624 1327.69 Q71.3624 1320.56 69.5337 1317.01 Q67.7281 1313.45 64.0939 1313.45 M64.0939 1309.75 Q69.9041 1309.75 72.9596 1314.35 Q76.0383 1318.94 76.0383 1327.69 Q76.0383 1336.41 72.9596 1341.02 Q69.9041 1345.6 64.0939 1345.6 Q58.2838 1345.6 55.2051 1341.02 Q52.1495 1336.41 52.1495 1327.69 Q52.1495 1318.94 55.2051 1314.35 Q58.2838 1309.75 64.0939 1309.75 Z" fill="#000000" fill-rule="nonzero" fill-opacity="1" /><path clip-path="url(#clip200)" d="M84.2558 1339.05 L89.1401 1339.05 L89.1401 1344.93 L84.2558 1344.93 L84.2558 1339.05 Z" fill="#000000" fill-rule="nonzero" fill-opacity="1" /><path clip-path="url(#clip200)" d="M99.3715 1310.37 L117.728 1310.37 L117.728 1314.31 L103.654 1314.31 L103.654 1322.78 Q104.672 1322.43 105.691 1322.27 Q106.709 1322.08 107.728 1322.08 Q113.515 1322.08 116.895 1325.26 Q120.274 1328.43 120.274 1333.84 Q120.274 1339.42 116.802 1342.52 Q113.33 1345.6 107.01 1345.6 Q104.834 1345.6 102.566 1345.23 Q100.321 1344.86 97.9132 1344.12 L97.9132 1339.42 Q99.9965 1340.56 102.219 1341.11 Q104.441 1341.67 106.918 1341.67 Q110.922 1341.67 113.26 1339.56 Q115.598 1337.45 115.598 1333.84 Q115.598 1330.23 113.26 1328.13 Q110.922 1326.02 106.918 1326.02 Q105.043 1326.02 103.168 1326.44 Q101.316 1326.85 99.3715 1327.73 L99.3715 1310.37 Z" fill="#000000" fill-rule="nonzero" fill-opacity="1" /><path clip-path="url(#clip200)" d="M62.9365 1018.29 Q59.3254 1018.29 57.4967 1021.85 Q55.6912 1025.4 55.6912 1032.53 Q55.6912 1039.63 57.4967 1043.2 Q59.3254 1046.74 62.9365 1046.74 Q66.5707 1046.74 68.3763 1043.2 Q70.205 1039.63 70.205 1032.53 Q70.205 1025.4 68.3763 1021.85 Q66.5707 1018.29 62.9365 1018.29 M62.9365 1014.59 Q68.7467 1014.59 71.8022 1019.19 Q74.8809 1023.78 74.8809 1032.53 Q74.8809 1041.25 71.8022 1045.86 Q68.7467 1050.44 62.9365 1050.44 Q57.1264 1050.44 54.0477 1045.86 Q50.9921 1041.25 50.9921 1032.53 Q50.9921 1023.78 54.0477 1019.19 Q57.1264 1014.59 62.9365 1014.59 Z" fill="#000000" fill-rule="nonzero" fill-opacity="1" /><path clip-path="url(#clip200)" d="M83.0984 1043.89 L87.9827 1043.89 L87.9827 1049.77 L83.0984 1049.77 L83.0984 1043.89 Z" fill="#000000" fill-rule="nonzero" fill-opacity="1" /><path clip-path="url(#clip200)" d="M108.746 1030.63 Q105.598 1030.63 103.746 1032.78 Q101.918 1034.93 101.918 1038.68 Q101.918 1042.41 103.746 1044.59 Q105.598 1046.74 108.746 1046.74 Q111.895 1046.74 113.723 1044.59 Q115.575 1042.41 115.575 1038.68 Q115.575 1034.93 113.723 1032.78 Q111.895 1030.63 108.746 1030.63 M118.029 1015.97 L118.029 1020.23 Q116.27 1019.4 114.464 1018.96 Q112.682 1018.52 110.922 1018.52 Q106.293 1018.52 103.839 1021.65 Q101.409 1024.77 101.061 1031.09 Q102.427 1029.08 104.487 1028.01 Q106.547 1026.92 109.024 1026.92 Q114.233 1026.92 117.242 1030.09 Q120.274 1033.24 120.274 1038.68 Q120.274 1044.01 117.126 1047.22 Q113.978 1050.44 108.746 1050.44 Q102.751 1050.44 99.5798 1045.86 Q96.4085 1041.25 96.4085 1032.53 Q96.4085 1024.33 100.297 1019.47 Q104.186 1014.59 110.737 1014.59 Q112.496 1014.59 114.279 1014.93 Q116.084 1015.28 118.029 1015.97 Z" fill="#000000" fill-rule="nonzero" fill-opacity="1" /><path clip-path="url(#clip200)" d="M64.0013 723.129 Q60.3902 723.129 58.5615 726.693 Q56.756 730.235 56.756 737.365 Q56.756 744.471 58.5615 748.036 Q60.3902 751.578 64.0013 751.578 Q67.6356 751.578 69.4411 748.036 Q71.2698 744.471 71.2698 737.365 Q71.2698 730.235 69.4411 726.693 Q67.6356 723.129 64.0013 723.129 M64.0013 719.425 Q69.8115 719.425 72.867 724.031 Q75.9457 728.615 75.9457 737.365 Q75.9457 746.091 72.867 750.698 Q69.8115 755.281 64.0013 755.281 Q58.1912 755.281 55.1125 750.698 Q52.0569 746.091 52.0569 737.365 Q52.0569 728.615 55.1125 724.031 Q58.1912 719.425 64.0013 719.425 Z" fill="#000000" fill-rule="nonzero" fill-opacity="1" /><path clip-path="url(#clip200)" d="M84.1632 748.73 L89.0475 748.73 L89.0475 754.61 L84.1632 754.61 L84.1632 748.73 Z" fill="#000000" fill-rule="nonzero" fill-opacity="1" /><path clip-path="url(#clip200)" d="M98.0521 720.05 L120.274 720.05 L120.274 722.041 L107.728 754.61 L102.844 754.61 L114.649 723.985 L98.0521 723.985 L98.0521 720.05 Z" fill="#000000" fill-rule="nonzero" fill-opacity="1" /><path clip-path="url(#clip200)" d="M63.1911 427.968 Q59.58 427.968 57.7513 431.533 Q55.9458 435.074 55.9458 442.204 Q55.9458 449.31 57.7513 452.875 Q59.58 456.417 63.1911 456.417 Q66.8254 456.417 68.6309 452.875 Q70.4596 449.31 70.4596 442.204 Q70.4596 435.074 68.6309 431.533 Q66.8254 427.968 63.1911 427.968 M63.1911 424.264 Q69.0013 424.264 72.0568 428.871 Q75.1355 433.454 75.1355 442.204 Q75.1355 450.931 72.0568 455.537 Q69.0013 460.12 63.1911 460.12 Q57.381 460.12 54.3023 455.537 Q51.2468 450.931 51.2468 442.204 Q51.2468 433.454 54.3023 428.871 Q57.381 424.264 63.1911 424.264 Z" fill="#000000" fill-rule="nonzero" fill-opacity="1" /><path clip-path="url(#clip200)" d="M83.3531 453.57 L88.2373 453.57 L88.2373 459.449 L83.3531 459.449 L83.3531 453.57 Z" fill="#000000" fill-rule="nonzero" fill-opacity="1" /><path clip-path="url(#clip200)" d="M108.422 443.037 Q105.089 443.037 103.168 444.82 Q101.27 446.602 101.27 449.727 Q101.27 452.852 103.168 454.634 Q105.089 456.417 108.422 456.417 Q111.756 456.417 113.677 454.634 Q115.598 452.829 115.598 449.727 Q115.598 446.602 113.677 444.82 Q111.779 443.037 108.422 443.037 M103.746 441.046 Q100.737 440.306 99.0474 438.246 Q97.3808 436.185 97.3808 433.222 Q97.3808 429.079 100.321 426.672 Q103.284 424.264 108.422 424.264 Q113.584 424.264 116.524 426.672 Q119.464 429.079 119.464 433.222 Q119.464 436.185 117.774 438.246 Q116.108 440.306 113.121 441.046 Q116.501 441.834 118.376 444.125 Q120.274 446.417 120.274 449.727 Q120.274 454.75 117.195 457.435 Q114.14 460.12 108.422 460.12 Q102.705 460.12 99.6261 457.435 Q96.5706 454.75 96.5706 449.727 Q96.5706 446.417 98.4687 444.125 Q100.367 441.834 103.746 441.046 M102.034 433.662 Q102.034 436.347 103.7 437.852 Q105.39 439.357 108.422 439.357 Q111.432 439.357 113.121 437.852 Q114.834 436.347 114.834 433.662 Q114.834 430.977 113.121 429.472 Q111.432 427.968 108.422 427.968 Q105.39 427.968 103.7 429.472 Q102.034 430.977 102.034 433.662 Z" fill="#000000" fill-rule="nonzero" fill-opacity="1" /><path clip-path="url(#clip200)" d="M63.2837 132.807 Q59.6726 132.807 57.8439 136.372 Q56.0384 139.914 56.0384 147.043 Q56.0384 154.15 57.8439 157.714 Q59.6726 161.256 63.2837 161.256 Q66.918 161.256 68.7235 157.714 Q70.5522 154.15 70.5522 147.043 Q70.5522 139.914 68.7235 136.372 Q66.918 132.807 63.2837 132.807 M63.2837 129.103 Q69.0939 129.103 72.1494 133.71 Q75.2281 138.293 75.2281 147.043 Q75.2281 155.77 72.1494 160.376 Q69.0939 164.96 63.2837 164.96 Q57.4736 164.96 54.3949 160.376 Q51.3393 155.77 51.3393 147.043 Q51.3393 138.293 54.3949 133.71 Q57.4736 129.103 63.2837 129.103 Z" fill="#000000" fill-rule="nonzero" fill-opacity="1" /><path clip-path="url(#clip200)" d="M83.4457 158.409 L88.3299 158.409 L88.3299 164.288 L83.4457 164.288 L83.4457 158.409 Z" fill="#000000" fill-rule="nonzero" fill-opacity="1" /><path clip-path="url(#clip200)" d="M98.6539 163.571 L98.6539 159.312 Q100.413 160.145 102.219 160.585 Q104.024 161.025 105.76 161.025 Q110.39 161.025 112.82 157.923 Q115.274 154.798 115.621 148.455 Q114.279 150.446 112.219 151.511 Q110.158 152.576 107.658 152.576 Q102.473 152.576 99.4409 149.451 Q96.4317 146.302 96.4317 140.863 Q96.4317 135.539 99.5798 132.321 Q102.728 129.103 107.959 129.103 Q113.955 129.103 117.103 133.71 Q120.274 138.293 120.274 147.043 Q120.274 155.214 116.385 160.099 Q112.52 164.96 105.969 164.96 Q104.209 164.96 102.404 164.612 Q100.598 164.265 98.6539 163.571 M107.959 148.918 Q111.108 148.918 112.936 146.765 Q114.788 144.613 114.788 140.863 Q114.788 137.136 112.936 134.983 Q111.108 132.807 107.959 132.807 Q104.811 132.807 102.959 134.983 Q101.131 137.136 101.131 140.863 Q101.131 144.613 102.959 146.765 Q104.811 148.918 107.959 148.918 Z" fill="#000000" fill-rule="nonzero" fill-opacity="1" /><polyline clip-path="url(#clip202)" style="stroke:#009af9; stroke-linecap:round; stroke-linejoin:round; stroke-width:4; stroke-opacity:1; fill:none" points="218.439,914.426 220.513,737.33 222.587,1268.62 224.661,1091.52 226.736,914.426 228.81,1032.49 230.884,678.298 232.958,737.33 235.033,1150.55 237.107,619.266 239.181,1150.55 241.255,1150.55 243.329,737.33 245.404,1445.72 247.478,855.394 249.552,796.362 251.626,914.426 253.701,914.426 255.775,1032.49 257.849,973.459 259.923,1327.65 261.998,1386.68 264.072,796.362 266.146,973.459 268.22,560.233 270.294,914.426 272.369,1032.49 274.443,855.394 276.517,796.362 278.591,678.298 280.666,619.266 282.74,855.394 284.814,1209.59 286.888,973.459 288.962,1032.49 291.037,1327.65 293.111,973.459 295.185,855.394 297.259,1091.52 299.334,1032.49 301.408,560.233 303.482,737.33 305.556,973.459 307.63,914.426 309.705,737.33 311.779,973.459 313.853,560.233 315.927,914.426 318.002,973.459 320.076,855.394 322.15,855.394 324.224,1209.59 326.299,1150.55 328.373,1209.59 330.447,1091.52 332.521,796.362 334.595,914.426 336.67,796.362 338.744,973.459 340.818,737.33 342.892,1032.49 344.967,501.201 347.041,973.459 349.115,1209.59 351.189,973.459 353.263,914.426 355.338,914.426 357.412,678.298 359.486,1209.59 361.56,855.394 363.635,855.394 365.709,1091.52 367.783,855.394 369.857,973.459 371.932,1150.55 374.006,855.394 376.08,973.459 378.154,914.426 380.228,1268.62 382.303,796.362 384.377,1032.49 386.451,796.362 388.525,1150.55 390.6,619.266 392.674,1091.52 394.748,737.33 396.822,796.362 398.896,914.426 400.971,1032.49 403.045,560.233 405.119,1150.55 407.193,1209.59 409.268,914.426 411.342,1032.49 413.416,796.362 415.49,1150.55 417.565,1268.62 419.639,442.169 421.713,796.362 423.787,1032.49 425.861,796.362 427.936,855.394 430.01,1150.55 432.084,855.394 434.158,973.459 436.233,619.266 438.307,855.394 440.381,914.426 442.455,914.426 444.529,973.459 446.604,560.233 448.678,501.201 450.752,973.459 452.826,619.266 454.901,737.33 456.975,1150.55 459.049,1150.55 461.123,796.362 463.198,973.459 465.272,973.459 467.346,737.33 469.42,1209.59 471.494,1032.49 473.569,855.394 475.643,442.169 477.717,678.298 479.791,1091.52 481.866,973.459 483.94,973.459 486.014,737.33 488.088,1032.49 490.162,973.459 492.237,1032.49 494.311,796.362 496.385,914.426 498.459,1150.55 500.534,1209.59 502.608,914.426 504.682,1032.49 506.756,737.33 508.83,1386.68 510.905,855.394 512.979,619.266 515.053,855.394 517.127,1032.49 519.202,973.459 521.276,973.459 523.35,619.266 525.424,737.33 527.499,914.426 529.573,1032.49 531.647,737.33 533.721,796.362 535.795,973.459 537.87,914.426 539.944,973.459 542.018,855.394 544.092,973.459 546.167,914.426 548.241,855.394 550.315,973.459 552.389,1091.52 554.463,973.459 556.538,737.33 558.612,855.394 560.686,973.459 562.76,1150.55 564.835,1032.49 566.909,1209.59 568.983,1150.55 571.057,914.426 573.132,737.33 575.206,737.33 577.28,796.362 579.354,383.137 581.428,796.362 583.503,560.233 585.577,1032.49 587.651,796.362 589.725,1327.65 591.8,737.33 593.874,855.394 595.948,914.426 598.022,796.362 600.096,737.33 602.171,1032.49 604.245,973.459 606.319,678.298 608.393,619.266 610.468,1268.62 612.542,914.426 614.616,737.33 616.69,737.33 618.765,796.362 620.839,914.426 622.913,560.233 624.987,560.233 627.061,855.394 629.136,560.233 631.21,796.362 633.284,796.362 635.358,973.459 637.433,855.394 639.507,914.426 641.581,737.33 643.655,914.426 645.729,973.459 647.804,796.362 649.878,1091.52 651.952,796.362 654.026,855.394 656.101,914.426 658.175,1032.49 660.249,737.33 662.323,1150.55 664.398,855.394 666.472,678.298 668.546,1032.49 670.62,796.362 672.694,796.362 674.769,914.426 676.843,501.201 678.917,442.169 680.991,501.201 683.066,619.266 685.14,855.394 687.214,855.394 689.288,796.362 691.362,501.201 693.437,1209.59 695.511,1150.55 697.585,1327.65 699.659,1032.49 701.734,973.459 703.808,1386.68 705.882,501.201 707.956,678.298 710.03,796.362 712.105,678.298 714.179,1209.59 716.253,914.426 718.327,678.298 720.402,1150.55 722.476,796.362 724.55,1032.49 726.624,1032.49 728.699,501.201 730.773,619.266 732.847,737.33 734.921,1150.55 736.995,855.394 739.07,1091.52 741.144,914.426 743.218,1209.59 745.292,855.394 747.367,737.33 749.441,1032.49 751.515,973.459 753.589,914.426 755.663,737.33 757.738,855.394 759.812,619.266 761.886,914.426 763.96,914.426 766.035,796.362 768.109,1032.49 770.183,501.201 772.257,914.426 774.332,796.362 776.406,1327.65 778.48,914.426 780.554,737.33 782.628,855.394 784.703,1032.49 786.777,855.394 788.851,914.426 790.925,973.459 793,678.298 795.074,737.33 797.148,619.266 799.222,914.426 801.296,796.362 803.371,914.426 805.445,1209.59 807.519,1032.49 809.593,619.266 811.668,973.459 813.742,855.394 815.816,619.266 817.89,973.459 819.965,973.459 822.039,1209.59 824.113,796.362 826.187,1032.49 828.261,619.266 830.336,796.362 832.41,619.266 834.484,1032.49 836.558,560.233 838.633,678.298 840.707,855.394 842.781,737.33 844.855,1091.52 846.929,737.33 849.004,973.459 851.078,1032.49 853.152,737.33 855.226,737.33 857.301,796.362 859.375,796.362 861.449,796.362 863.523,737.33 865.598,796.362 867.672,796.362 869.746,1032.49 871.82,796.362 873.894,560.233 875.969,914.426 878.043,855.394 880.117,1032.49 882.191,737.33 884.266,914.426 886.34,560.233 888.414,1091.52 890.488,678.298 892.562,973.459 894.637,619.266 896.711,914.426 898.785,796.362 900.859,855.394 902.934,737.33 905.008,914.426 907.082,914.426 909.156,855.394 911.23,914.426 913.305,501.201 915.379,737.33 917.453,914.426 919.527,737.33 921.602,1032.49 923.676,855.394 925.75,1091.52 927.824,737.33 929.899,737.33 931.973,678.298 934.047,855.394 936.121,1091.52 938.195,796.362 940.27,855.394 942.344,1386.68 944.418,442.169 946.492,560.233 948.567,1091.52 950.641,855.394 952.715,678.298 954.789,914.426 956.863,855.394 958.938,796.362 961.012,1091.52 963.086,1091.52 965.16,914.426 967.235,1150.55 969.309,855.394 971.383,737.33 973.457,737.33 975.532,619.266 977.606,619.266 979.68,796.362 981.754,442.169 983.828,619.266 985.903,737.33 987.977,855.394 990.051,1032.49 992.125,914.426 994.2,1091.52 996.274,383.137 998.348,973.459 1000.42,796.362 1002.5,619.266 1004.57,855.394 1006.64,1150.55 1008.72,796.362 1010.79,973.459 1012.87,560.233 1014.94,796.362 1017.02,560.233 1019.09,1209.59 1021.16,973.459 1023.24,973.459 1025.31,914.426 1027.39,855.394 1029.46,737.33 1031.54,678.298 1033.61,973.459 1035.68,560.233 1037.76,619.266 1039.83,737.33 1041.91,560.233 1043.98,737.33 1046.06,678.298 1048.13,678.298 1050.2,855.394 1052.28,619.266 1054.35,796.362 1056.43,560.233 1058.5,737.33 1060.57,442.169 1062.65,1091.52 1064.72,619.266 1066.8,678.298 1068.87,678.298 1070.95,678.298 1073.02,560.233 1075.09,678.298 1077.17,678.298 1079.24,1209.59 1081.32,796.362 1083.39,678.298 1085.47,678.298 1087.54,678.298 1089.61,796.362 1091.69,678.298 1093.76,678.298 1095.84,914.426 1097.91,1209.59 1099.99,1032.49 1102.06,678.298 1104.13,914.426 1106.21,737.33 1108.28,619.266 1110.36,796.362 1112.43,796.362 1114.5,442.169 1116.58,501.201 1118.65,1032.49 1120.73,1150.55 1122.8,796.362 1124.88,796.362 1126.95,442.169 1129.02,737.33 1131.1,737.33 1133.17,1091.52 1135.25,501.201 1137.32,973.459 1139.4,914.426 1141.47,855.394 1143.54,737.33 1145.62,678.298 1147.69,855.394 1149.77,560.233 1151.84,914.426 1153.92,619.266 1155.99,855.394 1158.06,737.33 1160.14,1032.49 1162.21,324.105 1164.29,855.394 1166.36,796.362 1168.43,855.394 1170.51,442.169 1172.58,442.169 1174.66,914.426 1176.73,737.33 1178.81,678.298 1180.88,678.298 1182.95,973.459 1185.03,914.426 1187.1,973.459 1189.18,619.266 1191.25,737.33 1193.33,678.298 1195.4,442.169 1197.47,619.266 1199.55,619.266 1201.62,1091.52 1203.7,737.33 1205.77,1032.49 1207.84,678.298 1209.92,737.33 1211.99,737.33 1214.07,678.298 1216.14,1150.55 1218.22,1032.49 1220.29,737.33 1222.36,501.201 1224.44,678.298 1226.51,796.362 1228.59,678.298 1230.66,855.394 1232.74,796.362 1234.81,1032.49 1236.88,855.394 1238.96,855.394 1241.03,442.169 1243.11,678.298 1245.18,796.362 1247.26,619.266 1249.33,501.201 1251.4,737.33 1253.48,796.362 1255.55,973.459 1257.63,1209.59 1259.7,737.33 1261.77,855.394 1263.85,1327.65 1265.92,855.394 1268,796.362 1270.07,1091.52 1272.15,796.362 1274.22,1091.52 1276.29,619.266 1278.37,560.233 1280.44,1327.65 1282.52,737.33 1284.59,914.426 1286.67,855.394 1288.74,619.266 1290.81,560.233 1292.89,855.394 1294.96,678.298 1297.04,914.426 1299.11,914.426 1301.19,678.298 1303.26,855.394 1305.33,1032.49 1307.41,796.362 1309.48,914.426 1311.56,737.33 1313.63,501.201 1315.7,855.394 1317.78,973.459 1319.85,796.362 1321.93,855.394 1324,560.233 1326.08,737.33 1328.15,678.298 1330.22,796.362 1332.3,855.394 1334.37,442.169 1336.45,914.426 1338.52,914.426 1340.6,796.362 1342.67,678.298 1344.74,737.33 1346.82,560.233 1348.89,796.362 1350.97,442.169 1353.04,678.298 1355.12,560.233 1357.19,855.394 1359.26,796.362 1361.34,973.459 1363.41,442.169 1365.49,1091.52 1367.56,914.426 1369.63,1032.49 1371.71,501.201 1373.78,973.459 1375.86,855.394 1377.93,855.394 1380.01,855.394 1382.08,796.362 1384.15,914.426 1386.23,737.33 1388.3,501.201 1390.38,914.426 1392.45,855.394 1394.53,855.394 1396.6,914.426 1398.67,973.459 1400.75,383.137 1402.82,855.394 1404.9,1150.55 1406.97,678.298 1409.04,501.201 1411.12,442.169 1413.19,619.266 1415.27,914.426 1417.34,1268.62 1419.42,1209.59 1421.49,560.233 1423.56,973.459 1425.64,973.459 1427.71,619.266 1429.79,737.33 1431.86,737.33 1433.94,1032.49 1436.01,737.33 1438.08,678.298 1440.16,796.362 1442.23,914.426 1444.31,619.266 1446.38,678.298 1448.46,855.394 1450.53,619.266 1452.6,914.426 1454.68,914.426 1456.75,501.201 1458.83,442.169 1460.9,619.266 1462.97,737.33 1465.05,737.33 1467.12,796.362 1469.2,973.459 1471.27,678.298 1473.35,737.33 1475.42,1209.59 1477.49,678.298 1479.57,914.426 1481.64,501.201 1483.72,855.394 1485.79,383.137 1487.87,796.362 1489.94,737.33 1492.01,796.362 1494.09,1150.55 1496.16,914.426 1498.24,796.362 1500.31,737.33 1502.39,560.233 1504.46,678.298 1506.53,1327.65 1508.61,855.394 1510.68,619.266 1512.76,324.105 1514.83,737.33 1516.9,914.426 1518.98,796.362 1521.05,737.33 1523.13,619.266 1525.2,855.394 1527.28,678.298 1529.35,914.426 1531.42,737.33 1533.5,619.266 1535.57,737.33 1537.65,383.137 1539.72,1032.49 1541.8,855.394 1543.87,560.233 1545.94,678.298 1548.02,796.362 1550.09,796.362 1552.17,1209.59 1554.24,501.201 1556.32,619.266 1558.39,678.298 1560.46,796.362 1562.54,855.394 1564.61,914.426 1566.69,737.33 1568.76,796.362 1570.83,619.266 1572.91,737.33 1574.98,855.394 1577.06,855.394 1579.13,914.426 1581.21,737.33 1583.28,678.298 1585.35,619.266 1587.43,678.298 1589.5,1268.62 1591.58,619.266 1593.65,619.266 1595.73,1032.49 1597.8,560.233 1599.87,442.169 1601.95,796.362 1604.02,796.362 1606.1,855.394 1608.17,914.426 1610.24,501.201 1612.32,737.33 1614.39,914.426 1616.47,737.33 1618.54,737.33 1620.62,678.298 1622.69,914.426 1624.76,855.394 1626.84,855.394 1628.91,796.362 1630.99,1032.49 1633.06,324.105 1635.14,678.298 1637.21,501.201 1639.28,855.394 1641.36,678.298 1643.43,678.298 1645.51,619.266 1647.58,855.394 1649.66,914.426 1651.73,678.298 1653.8,737.33 1655.88,737.33 1657.95,1032.49 1660.03,501.201 1662.1,678.298 1664.17,619.266 1666.25,619.266 1668.32,914.426 1670.4,737.33 1672.47,855.394 1674.55,796.362 1676.62,619.266 1678.69,914.426 1680.77,560.233 1682.84,678.298 1684.92,737.33 1686.99,619.266 1689.07,855.394 1691.14,442.169 1693.21,560.233 1695.29,796.362 1697.36,1150.55 1699.44,560.233 1701.51,737.33 1703.59,1268.62 1705.66,619.266 1707.73,855.394 1709.81,619.266 1711.88,678.298 1713.96,324.105 1716.03,855.394 1718.1,737.33 1720.18,560.233 1722.25,1032.49 1724.33,914.426 1726.4,678.298 1728.48,678.298 1730.55,855.394 1732.62,796.362 1734.7,442.169 1736.77,560.233 1738.85,560.233 1740.92,796.362 1743,796.362 1745.07,796.362 1747.14,737.33 1749.22,737.33 1751.29,560.233 1753.37,737.33 1755.44,501.201 1757.52,383.137 1759.59,796.362 1761.66,619.266 1763.74,855.394 1765.81,737.33 1767.89,619.266 1769.96,560.233 1772.03,678.298 1774.11,619.266 1776.18,560.233 1778.26,442.169 1780.33,442.169 1782.41,560.233 1784.48,796.362 1786.55,796.362 1788.63,914.426 1790.7,619.266 1792.78,265.073 1794.85,737.33 1796.93,855.394 1799,914.426 1801.07,737.33 1803.15,796.362 1805.22,796.362 1807.3,855.394 1809.37,501.201 1811.44,501.201 1813.52,973.459 1815.59,855.394 1817.67,914.426 1819.74,501.201 1821.82,914.426 1823.89,796.362 1825.96,914.426 1828.04,324.105 1830.11,383.137 1832.19,737.33 1834.26,560.233 1836.34,737.33 1838.41,324.105 1840.48,619.266 1842.56,560.233 1844.63,678.298 1846.71,560.233 1848.78,1032.49 1850.86,737.33 1852.93,383.137 1855,501.201 1857.08,619.266 1859.15,737.33 1861.23,1150.55 1863.3,796.362 1865.37,796.362 1867.45,973.459 1869.52,1032.49 1871.6,855.394 1873.67,560.233 1875.75,619.266 1877.82,855.394 1879.89,619.266 1881.97,619.266 1884.04,796.362 1886.12,855.394 1888.19,619.266 1890.27,678.298 1892.34,796.362 1894.41,796.362 1896.49,383.137 1898.56,442.169 1900.64,737.33 1902.71,737.33 1904.79,737.33 1906.86,442.169 1908.93,678.298 1911.01,560.233 1913.08,855.394 1915.16,737.33 1917.23,855.394 1919.3,855.394 1921.38,560.233 1923.45,501.201 1925.53,678.298 1927.6,737.33 1929.68,678.298 1931.75,855.394 1933.82,796.362 1935.9,383.137 1937.97,678.298 1940.05,914.426 1942.12,796.362 1944.2,1032.49 1946.27,855.394 1948.34,855.394 1950.42,678.298 1952.49,619.266 1954.57,619.266 1956.64,678.298 1958.72,619.266 1960.79,678.298 1962.86,678.298 1964.94,501.201 1967.01,619.266 1969.09,147.008 1971.16,206.041 1973.23,560.233 1975.31,678.298 1977.38,855.394 1979.46,855.394 1981.53,737.33 1983.61,501.201 1985.68,796.362 1987.75,501.201 1989.83,914.426 1991.9,678.298 1993.98,560.233 1996.05,619.266 1998.13,324.105 2000.2,678.298 2002.27,501.201 2004.35,206.041 2006.42,619.266 2008.5,914.426 2010.57,737.33 2012.64,1091.52 2014.72,619.266 2016.79,737.33 2018.87,737.33 2020.94,619.266 2023.02,619.266 2025.09,383.137 2027.16,501.201 2029.24,678.298 2031.31,737.33 2033.39,678.298 2035.46,737.33 2037.54,678.298 2039.61,501.201 2041.68,973.459 2043.76,383.137 2045.83,678.298 2047.91,737.33 2049.98,324.105 2052.06,796.362 2054.13,619.266 2056.2,973.459 2058.28,1150.55 2060.35,442.169 2062.43,737.33 2064.5,796.362 2066.57,914.426 2068.65,560.233 2070.72,501.201 2072.8,737.33 2074.87,442.169 2076.95,619.266 2079.02,87.9763 2081.09,796.362 2083.17,442.169 2085.24,383.137 2087.32,796.362 2089.39,560.233 2091.47,560.233 2093.54,855.394 2095.61,678.298 2097.69,383.137 2099.76,560.233 2101.84,501.201 2103.91,383.137 2105.99,914.426 2108.06,324.105 2110.13,560.233 2112.21,560.233 2114.28,560.233 2116.36,501.201 2118.43,383.137 2120.5,678.298 2122.58,678.298 2124.65,619.266 2126.73,560.233 2128.8,678.298 2130.88,678.298 2132.95,383.137 2135.02,501.201 2137.1,737.33 2139.17,560.233 2141.25,442.169 2143.32,383.137 2145.4,737.33 2147.47,383.137 2149.54,560.233 2151.62,442.169 2153.69,737.33 2155.77,560.233 2157.84,324.105 2159.92,265.073 2161.99,501.201 2164.06,1032.49 2166.14,560.233 2168.21,737.33 2170.29,442.169 2172.36,560.233 2174.43,855.394 2176.51,678.298 2178.58,678.298 2180.66,265.073 2182.73,619.266 2184.81,619.266 2186.88,619.266 2188.95,737.33 2191.03,501.201 2193.1,855.394 2195.18,678.298 2197.25,737.33 2199.33,442.169 2201.4,442.169 2203.47,678.298 2205.55,973.459 2207.62,678.298 2209.7,619.266 2211.77,560.233 2213.84,796.362 2215.92,442.169 2217.99,796.362 2220.07,678.298 2222.14,442.169 2224.22,383.137 2226.29,265.073 2228.36,796.362 2230.44,383.137 2232.51,737.33 2234.59,501.201 2236.66,678.298 2238.74,324.105 2240.81,855.394 2242.88,560.233 2244.96,796.362 2247.03,501.201 2249.11,678.298 2251.18,737.33 2253.26,914.426 2255.33,442.169 2257.4,973.459 2259.48,383.137 2261.55,501.201 2263.63,501.201 2265.7,501.201 2267.77,737.33 2269.85,973.459 2271.92,442.169 2274,737.33 2276.07,619.266 2278.15,737.33 2280.22,737.33 2282.29,560.233 2284.37,324.105 2286.44,442.169 2288.52,442.169 2290.59,560.233 "/>
<path clip-path="url(#clip200)" d="M229.49 198.898 L501.569 198.898 L501.569 95.2176 L229.49 95.2176  Z" fill="#ffffff" fill-rule="evenodd" fill-opacity="1"/>
<polyline clip-path="url(#clip200)" style="stroke:#000000; stroke-linecap:round; stroke-linejoin:round; stroke-width:4; stroke-opacity:1; fill:none" points="229.49,198.898 501.569,198.898 501.569,95.2176 229.49,95.2176 229.49,198.898 "/>
<polyline clip-path="url(#clip200)" style="stroke:#009af9; stroke-linecap:round; stroke-linejoin:round; stroke-width:4; stroke-opacity:1; fill:none" points="253.896,147.058 400.328,147.058 "/>
<path clip-path="url(#clip200)" d="M438.576 166.745 Q436.77 171.375 435.057 172.787 Q433.344 174.199 430.474 174.199 L427.071 174.199 L427.071 170.634 L429.571 170.634 Q431.33 170.634 432.302 169.8 Q433.275 168.967 434.455 165.865 L435.219 163.921 L424.733 138.412 L429.247 138.412 L437.349 158.689 L445.451 138.412 L449.964 138.412 L438.576 166.745 Z" fill="#000000" fill-rule="nonzero" fill-opacity="1" /><path clip-path="url(#clip200)" d="M457.256 160.402 L464.895 160.402 L464.895 134.037 L456.585 135.703 L456.585 131.444 L464.849 129.778 L469.524 129.778 L469.524 160.402 L477.163 160.402 L477.163 164.338 L457.256 164.338 L457.256 160.402 Z" fill="#000000" fill-rule="nonzero" fill-opacity="1" /></svg>
