<?xml version="1.0" encoding="utf-8"?>
<svg xmlns="http://www.w3.org/2000/svg" xmlns:xlink="http://www.w3.org/1999/xlink" width="600" height="400" viewBox="0 0 2400 1600">
<defs>
  <clipPath id="clip140">
    <rect x="0" y="0" width="2400" height="1600"/>
  </clipPath>
</defs>
<path clip-path="url(#clip140)" d="M0 1600 L2400 1600 L2400 0 L0 0  Z" fill="#ffffff" fill-rule="evenodd" fill-opacity="1"/>
<defs>
  <clipPath id="clip141">
    <rect x="480" y="0" width="1681" height="1600"/>
  </clipPath>
</defs>
<path clip-path="url(#clip140)" d="M155.765 1486.45 L2352.76 1486.45 L2352.76 47.2441 L155.765 47.2441  Z" fill="#ffffff" fill-rule="evenodd" fill-opacity="1"/>
<defs>
  <clipPath id="clip142">
    <rect x="155" y="47" width="2198" height="1440"/>
  </clipPath>
</defs>
<polyline clip-path="url(#clip142)" style="stroke:#000000; stroke-linecap:round; stroke-linejoin:round; stroke-width:2; stroke-opacity:0.1; fill:none" points="217.944,1486.45 217.944,47.2441 "/>
<polyline clip-path="url(#clip142)" style="stroke:#000000; stroke-linecap:round; stroke-linejoin:round; stroke-width:2; stroke-opacity:0.1; fill:none" points="736.102,1486.45 736.102,47.2441 "/>
<polyline clip-path="url(#clip142)" style="stroke:#000000; stroke-linecap:round; stroke-linejoin:round; stroke-width:2; stroke-opacity:0.1; fill:none" points="1254.26,1486.45 1254.26,47.2441 "/>
<polyline clip-path="url(#clip142)" style="stroke:#000000; stroke-linecap:round; stroke-linejoin:round; stroke-width:2; stroke-opacity:0.1; fill:none" points="1772.42,1486.45 1772.42,47.2441 "/>
<polyline clip-path="url(#clip142)" style="stroke:#000000; stroke-linecap:round; stroke-linejoin:round; stroke-width:2; stroke-opacity:0.1; fill:none" points="2290.58,1486.45 2290.58,47.2441 "/>
<polyline clip-path="url(#clip140)" style="stroke:#000000; stroke-linecap:round; stroke-linejoin:round; stroke-width:4; stroke-opacity:1; fill:none" points="155.765,1486.45 2352.76,1486.45 "/>
<polyline clip-path="url(#clip140)" style="stroke:#000000; stroke-linecap:round; stroke-linejoin:round; stroke-width:4; stroke-opacity:1; fill:none" points="217.944,1486.45 217.944,1467.55 "/>
<polyline clip-path="url(#clip140)" style="stroke:#000000; stroke-linecap:round; stroke-linejoin:round; stroke-width:4; stroke-opacity:1; fill:none" points="736.102,1486.45 736.102,1467.55 "/>
<polyline clip-path="url(#clip140)" style="stroke:#000000; stroke-linecap:round; stroke-linejoin:round; stroke-width:4; stroke-opacity:1; fill:none" points="1254.26,1486.45 1254.26,1467.55 "/>
<polyline clip-path="url(#clip140)" style="stroke:#000000; stroke-linecap:round; stroke-linejoin:round; stroke-width:4; stroke-opacity:1; fill:none" points="1772.42,1486.45 1772.42,1467.55 "/>
<polyline clip-path="url(#clip140)" style="stroke:#000000; stroke-linecap:round; stroke-linejoin:round; stroke-width:4; stroke-opacity:1; fill:none" points="2290.58,1486.45 2290.58,1467.55 "/>
<path clip-path="url(#clip140)" d="M217.944 1517.37 Q214.333 1517.37 212.504 1520.93 Q210.699 1524.47 210.699 1531.6 Q210.699 1538.71 212.504 1542.27 Q214.333 1545.82 217.944 1545.82 Q221.578 1545.82 223.384 1542.27 Q225.212 1538.71 225.212 1531.6 Q225.212 1524.47 223.384 1520.93 Q221.578 1517.37 217.944 1517.37 M217.944 1513.66 Q223.754 1513.66 226.81 1518.27 Q229.888 1522.85 229.888 1531.6 Q229.888 1540.33 226.81 1544.94 Q223.754 1549.52 217.944 1549.52 Q212.134 1549.52 209.055 1544.94 Q206 1540.33 206 1531.6 Q206 1522.85 209.055 1518.27 Q212.134 1513.66 217.944 1513.66 Z" fill="#000000" fill-rule="nonzero" fill-opacity="1" /><path clip-path="url(#clip140)" d="M695.72 1514.29 L714.077 1514.29 L714.077 1518.22 L700.003 1518.22 L700.003 1526.7 Q701.021 1526.35 702.04 1526.19 Q703.058 1526 704.077 1526 Q709.864 1526 713.243 1529.17 Q716.623 1532.34 716.623 1537.76 Q716.623 1543.34 713.151 1546.44 Q709.679 1549.52 703.359 1549.52 Q701.183 1549.52 698.915 1549.15 Q696.669 1548.78 694.262 1548.04 L694.262 1543.34 Q696.345 1544.47 698.568 1545.03 Q700.79 1545.58 703.267 1545.58 Q707.271 1545.58 709.609 1543.48 Q711.947 1541.37 711.947 1537.76 Q711.947 1534.15 709.609 1532.04 Q707.271 1529.94 703.267 1529.94 Q701.392 1529.94 699.517 1530.35 Q697.665 1530.77 695.72 1531.65 L695.72 1514.29 Z" fill="#000000" fill-rule="nonzero" fill-opacity="1" /><path clip-path="url(#clip140)" d="M735.836 1517.37 Q732.225 1517.37 730.396 1520.93 Q728.591 1524.47 728.591 1531.6 Q728.591 1538.71 730.396 1542.27 Q732.225 1545.82 735.836 1545.82 Q739.47 1545.82 741.276 1542.27 Q743.104 1538.71 743.104 1531.6 Q743.104 1524.47 741.276 1520.93 Q739.47 1517.37 735.836 1517.37 M735.836 1513.66 Q741.646 1513.66 744.702 1518.27 Q747.78 1522.85 747.78 1531.6 Q747.78 1540.33 744.702 1544.94 Q741.646 1549.52 735.836 1549.52 Q730.026 1549.52 726.947 1544.94 Q723.892 1540.33 723.892 1531.6 Q723.892 1522.85 726.947 1518.27 Q730.026 1513.66 735.836 1513.66 Z" fill="#000000" fill-rule="nonzero" fill-opacity="1" /><path clip-path="url(#clip140)" d="M765.998 1517.37 Q762.387 1517.37 760.558 1520.93 Q758.752 1524.47 758.752 1531.6 Q758.752 1538.71 760.558 1542.27 Q762.387 1545.82 765.998 1545.82 Q769.632 1545.82 771.438 1542.27 Q773.266 1538.71 773.266 1531.6 Q773.266 1524.47 771.438 1520.93 Q769.632 1517.37 765.998 1517.37 M765.998 1513.66 Q771.808 1513.66 774.864 1518.27 Q777.942 1522.85 777.942 1531.6 Q777.942 1540.33 774.864 1544.94 Q771.808 1549.52 765.998 1549.52 Q760.188 1549.52 757.109 1544.94 Q754.053 1540.33 754.053 1531.6 Q754.053 1522.85 757.109 1518.27 Q760.188 1513.66 765.998 1513.66 Z" fill="#000000" fill-rule="nonzero" fill-opacity="1" /><path clip-path="url(#clip140)" d="M1198.79 1544.91 L1206.43 1544.91 L1206.43 1518.55 L1198.11 1520.21 L1198.11 1515.95 L1206.38 1514.29 L1211.05 1514.29 L1211.05 1544.91 L1218.69 1544.91 L1218.69 1548.85 L1198.79 1548.85 L1198.79 1544.91 Z" fill="#000000" fill-rule="nonzero" fill-opacity="1" /><path clip-path="url(#clip140)" d="M1238.14 1517.37 Q1234.53 1517.37 1232.7 1520.93 Q1230.89 1524.47 1230.89 1531.6 Q1230.89 1538.71 1232.7 1542.27 Q1234.53 1545.82 1238.14 1545.82 Q1241.77 1545.82 1243.58 1542.27 Q1245.41 1538.71 1245.41 1531.6 Q1245.41 1524.47 1243.58 1520.93 Q1241.77 1517.37 1238.14 1517.37 M1238.14 1513.66 Q1243.95 1513.66 1247 1518.27 Q1250.08 1522.85 1250.08 1531.6 Q1250.08 1540.33 1247 1544.94 Q1243.95 1549.52 1238.14 1549.52 Q1232.33 1549.52 1229.25 1544.94 Q1226.19 1540.33 1226.19 1531.6 Q1226.19 1522.85 1229.25 1518.27 Q1232.33 1513.66 1238.14 1513.66 Z" fill="#000000" fill-rule="nonzero" fill-opacity="1" /><path clip-path="url(#clip140)" d="M1268.3 1517.37 Q1264.69 1517.37 1262.86 1520.93 Q1261.05 1524.47 1261.05 1531.6 Q1261.05 1538.71 1262.86 1542.27 Q1264.69 1545.82 1268.3 1545.82 Q1271.93 1545.82 1273.74 1542.27 Q1275.57 1538.71 1275.57 1531.6 Q1275.57 1524.47 1273.74 1520.93 Q1271.93 1517.37 1268.3 1517.37 M1268.3 1513.66 Q1274.11 1513.66 1277.17 1518.27 Q1280.24 1522.85 1280.24 1531.6 Q1280.24 1540.33 1277.17 1544.94 Q1274.11 1549.52 1268.3 1549.52 Q1262.49 1549.52 1259.41 1544.94 Q1256.36 1540.33 1256.36 1531.6 Q1256.36 1522.85 1259.41 1518.27 Q1262.49 1513.66 1268.3 1513.66 Z" fill="#000000" fill-rule="nonzero" fill-opacity="1" /><path clip-path="url(#clip140)" d="M1298.46 1517.37 Q1294.85 1517.37 1293.02 1520.93 Q1291.22 1524.47 1291.22 1531.6 Q1291.22 1538.71 1293.02 1542.27 Q1294.85 1545.82 1298.46 1545.82 Q1302.1 1545.82 1303.9 1542.27 Q1305.73 1538.71 1305.73 1531.6 Q1305.73 1524.47 1303.9 1520.93 Q1302.1 1517.37 1298.46 1517.37 M1298.46 1513.66 Q1304.27 1513.66 1307.33 1518.27 Q1310.41 1522.85 1310.41 1531.6 Q1310.41 1540.33 1307.33 1544.94 Q1304.27 1549.52 1298.46 1549.52 Q1292.65 1549.52 1289.57 1544.94 Q1286.52 1540.33 1286.52 1531.6 Q1286.52 1522.85 1289.57 1518.27 Q1292.65 1513.66 1298.46 1513.66 Z" fill="#000000" fill-rule="nonzero" fill-opacity="1" /><path clip-path="url(#clip140)" d="M1716.94 1544.91 L1724.58 1544.91 L1724.58 1518.55 L1716.27 1520.21 L1716.27 1515.95 L1724.54 1514.29 L1729.21 1514.29 L1729.21 1544.91 L1736.85 1544.91 L1736.85 1548.85 L1716.94 1548.85 L1716.94 1544.91 Z" fill="#000000" fill-rule="nonzero" fill-opacity="1" /><path clip-path="url(#clip140)" d="M1746.34 1514.29 L1764.7 1514.29 L1764.7 1518.22 L1750.62 1518.22 L1750.62 1526.7 Q1751.64 1526.35 1752.66 1526.19 Q1753.68 1526 1754.7 1526 Q1760.49 1526 1763.87 1529.17 Q1767.25 1532.34 1767.25 1537.76 Q1767.25 1543.34 1763.77 1546.44 Q1760.3 1549.52 1753.98 1549.52 Q1751.81 1549.52 1749.54 1549.15 Q1747.29 1548.78 1744.88 1548.04 L1744.88 1543.34 Q1746.97 1544.47 1749.19 1545.03 Q1751.41 1545.58 1753.89 1545.58 Q1757.89 1545.58 1760.23 1543.48 Q1762.57 1541.37 1762.57 1537.76 Q1762.57 1534.15 1760.23 1532.04 Q1757.89 1529.94 1753.89 1529.94 Q1752.01 1529.94 1750.14 1530.35 Q1748.29 1530.77 1746.34 1531.65 L1746.34 1514.29 Z" fill="#000000" fill-rule="nonzero" fill-opacity="1" /><path clip-path="url(#clip140)" d="M1786.46 1517.37 Q1782.85 1517.37 1781.02 1520.93 Q1779.21 1524.47 1779.21 1531.6 Q1779.21 1538.71 1781.02 1542.27 Q1782.85 1545.82 1786.46 1545.82 Q1790.09 1545.82 1791.9 1542.27 Q1793.73 1538.71 1793.73 1531.6 Q1793.73 1524.47 1791.9 1520.93 Q1790.09 1517.37 1786.46 1517.37 M1786.46 1513.66 Q1792.27 1513.66 1795.32 1518.27 Q1798.4 1522.85 1798.4 1531.6 Q1798.4 1540.33 1795.32 1544.94 Q1792.27 1549.52 1786.46 1549.52 Q1780.65 1549.52 1777.57 1544.94 Q1774.51 1540.33 1774.51 1531.6 Q1774.51 1522.85 1777.57 1518.27 Q1780.65 1513.66 1786.46 1513.66 Z" fill="#000000" fill-rule="nonzero" fill-opacity="1" /><path clip-path="url(#clip140)" d="M1816.62 1517.37 Q1813.01 1517.37 1811.18 1520.93 Q1809.37 1524.47 1809.37 1531.6 Q1809.37 1538.71 1811.18 1542.27 Q1813.01 1545.82 1816.62 1545.82 Q1820.25 1545.82 1822.06 1542.27 Q1823.89 1538.71 1823.89 1531.6 Q1823.89 1524.47 1822.06 1520.93 Q1820.25 1517.37 1816.62 1517.37 M1816.62 1513.66 Q1822.43 1513.66 1825.49 1518.27 Q1828.56 1522.85 1828.56 1531.6 Q1828.56 1540.33 1825.49 1544.94 Q1822.43 1549.52 1816.62 1549.52 Q1810.81 1549.52 1807.73 1544.94 Q1804.68 1540.33 1804.68 1531.6 Q1804.68 1522.85 1807.73 1518.27 Q1810.81 1513.66 1816.62 1513.66 Z" fill="#000000" fill-rule="nonzero" fill-opacity="1" /><path clip-path="url(#clip140)" d="M2239.19 1544.91 L2255.51 1544.91 L2255.51 1548.85 L2233.56 1548.85 L2233.56 1544.91 Q2236.23 1542.16 2240.81 1537.53 Q2245.42 1532.88 2246.6 1531.53 Q2248.84 1529.01 2249.72 1527.27 Q2250.62 1525.51 2250.62 1523.82 Q2250.62 1521.07 2248.68 1519.33 Q2246.76 1517.6 2243.66 1517.6 Q2241.46 1517.6 2239 1518.36 Q2236.57 1519.13 2233.79 1520.68 L2233.79 1515.95 Q2236.62 1514.82 2239.07 1514.24 Q2241.53 1513.66 2243.56 1513.66 Q2248.93 1513.66 2252.13 1516.35 Q2255.32 1519.03 2255.32 1523.52 Q2255.32 1525.65 2254.51 1527.57 Q2253.73 1529.47 2251.62 1532.07 Q2251.04 1532.74 2247.94 1535.95 Q2244.84 1539.15 2239.19 1544.91 Z" fill="#000000" fill-rule="nonzero" fill-opacity="1" /><path clip-path="url(#clip140)" d="M2275.32 1517.37 Q2271.71 1517.37 2269.88 1520.93 Q2268.08 1524.47 2268.08 1531.6 Q2268.08 1538.71 2269.88 1542.27 Q2271.71 1545.82 2275.32 1545.82 Q2278.96 1545.82 2280.76 1542.27 Q2282.59 1538.71 2282.59 1531.6 Q2282.59 1524.47 2280.76 1520.93 Q2278.96 1517.37 2275.32 1517.37 M2275.32 1513.66 Q2281.13 1513.66 2284.19 1518.27 Q2287.27 1522.85 2287.27 1531.6 Q2287.27 1540.33 2284.19 1544.94 Q2281.13 1549.52 2275.32 1549.52 Q2269.51 1549.52 2266.43 1544.94 Q2263.38 1540.33 2263.38 1531.6 Q2263.38 1522.85 2266.43 1518.27 Q2269.51 1513.66 2275.32 1513.66 Z" fill="#000000" fill-rule="nonzero" fill-opacity="1" /><path clip-path="url(#clip140)" d="M2305.48 1517.37 Q2301.87 1517.37 2300.04 1520.93 Q2298.24 1524.47 2298.24 1531.6 Q2298.24 1538.71 2300.04 1542.27 Q2301.87 1545.82 2305.48 1545.82 Q2309.12 1545.82 2310.92 1542.27 Q2312.75 1538.71 2312.75 1531.6 Q2312.75 1524.47 2310.92 1520.93 Q2309.12 1517.37 2305.48 1517.37 M2305.48 1513.66 Q2311.29 1513.66 2314.35 1518.27 Q2317.43 1522.85 2317.43 1531.6 Q2317.43 1540.33 2314.35 1544.94 Q2311.29 1549.52 2305.48 1549.52 Q2299.67 1549.52 2296.6 1544.94 Q2293.54 1540.33 2293.54 1531.6 Q2293.54 1522.85 2296.6 1518.27 Q2299.67 1513.66 2305.48 1513.66 Z" fill="#000000" fill-rule="nonzero" fill-opacity="1" /><path clip-path="url(#clip140)" d="M2335.65 1517.37 Q2332.04 1517.37 2330.21 1520.93 Q2328.4 1524.47 2328.4 1531.6 Q2328.4 1538.71 2330.21 1542.27 Q2332.04 1545.82 2335.65 1545.82 Q2339.28 1545.82 2341.09 1542.27 Q2342.91 1538.71 2342.91 1531.6 Q2342.91 1524.47 2341.09 1520.93 Q2339.28 1517.37 2335.65 1517.37 M2335.65 1513.66 Q2341.46 1513.66 2344.51 1518.27 Q2347.59 1522.85 2347.59 1531.6 Q2347.59 1540.33 2344.51 1544.94 Q2341.46 1549.52 2335.65 1549.52 Q2329.84 1549.52 2326.76 1544.94 Q2323.7 1540.33 2323.7 1531.6 Q2323.7 1522.85 2326.76 1518.27 Q2329.84 1513.66 2335.65 1513.66 Z" fill="#000000" fill-rule="nonzero" fill-opacity="1" /><polyline clip-path="url(#clip142)" style="stroke:#000000; stroke-linecap:round; stroke-linejoin:round; stroke-width:2; stroke-opacity:0.1; fill:none" points="155.765,1448.38 2352.76,1448.38 "/>
<polyline clip-path="url(#clip142)" style="stroke:#000000; stroke-linecap:round; stroke-linejoin:round; stroke-width:2; stroke-opacity:0.1; fill:none" points="155.765,1232.71 2352.76,1232.71 "/>
<polyline clip-path="url(#clip142)" style="stroke:#000000; stroke-linecap:round; stroke-linejoin:round; stroke-width:2; stroke-opacity:0.1; fill:none" points="155.765,1017.05 2352.76,1017.05 "/>
<polyline clip-path="url(#clip142)" style="stroke:#000000; stroke-linecap:round; stroke-linejoin:round; stroke-width:2; stroke-opacity:0.1; fill:none" points="155.765,801.381 2352.76,801.381 "/>
<polyline clip-path="url(#clip142)" style="stroke:#000000; stroke-linecap:round; stroke-linejoin:round; stroke-width:2; stroke-opacity:0.1; fill:none" points="155.765,585.715 2352.76,585.715 "/>
<polyline clip-path="url(#clip142)" style="stroke:#000000; stroke-linecap:round; stroke-linejoin:round; stroke-width:2; stroke-opacity:0.1; fill:none" points="155.765,370.049 2352.76,370.049 "/>
<polyline clip-path="url(#clip142)" style="stroke:#000000; stroke-linecap:round; stroke-linejoin:round; stroke-width:2; stroke-opacity:0.1; fill:none" points="155.765,154.382 2352.76,154.382 "/>
<polyline clip-path="url(#clip140)" style="stroke:#000000; stroke-linecap:round; stroke-linejoin:round; stroke-width:4; stroke-opacity:1; fill:none" points="155.765,1486.45 155.765,47.2441 "/>
<polyline clip-path="url(#clip140)" style="stroke:#000000; stroke-linecap:round; stroke-linejoin:round; stroke-width:4; stroke-opacity:1; fill:none" points="155.765,1448.38 174.663,1448.38 "/>
<polyline clip-path="url(#clip140)" style="stroke:#000000; stroke-linecap:round; stroke-linejoin:round; stroke-width:4; stroke-opacity:1; fill:none" points="155.765,1232.71 174.663,1232.71 "/>
<polyline clip-path="url(#clip140)" style="stroke:#000000; stroke-linecap:round; stroke-linejoin:round; stroke-width:4; stroke-opacity:1; fill:none" points="155.765,1017.05 174.663,1017.05 "/>
<polyline clip-path="url(#clip140)" style="stroke:#000000; stroke-linecap:round; stroke-linejoin:round; stroke-width:4; stroke-opacity:1; fill:none" points="155.765,801.381 174.663,801.381 "/>
<polyline clip-path="url(#clip140)" style="stroke:#000000; stroke-linecap:round; stroke-linejoin:round; stroke-width:4; stroke-opacity:1; fill:none" points="155.765,585.715 174.663,585.715 "/>
<polyline clip-path="url(#clip140)" style="stroke:#000000; stroke-linecap:round; stroke-linejoin:round; stroke-width:4; stroke-opacity:1; fill:none" points="155.765,370.049 174.663,370.049 "/>
<polyline clip-path="url(#clip140)" style="stroke:#000000; stroke-linecap:round; stroke-linejoin:round; stroke-width:4; stroke-opacity:1; fill:none" points="155.765,154.382 174.663,154.382 "/>
<path clip-path="url(#clip140)" d="M63.5847 1434.18 Q59.9736 1434.18 58.1449 1437.74 Q56.3393 1441.28 56.3393 1448.41 Q56.3393 1455.52 58.1449 1459.09 Q59.9736 1462.63 63.5847 1462.63 Q67.2189 1462.63 69.0244 1459.09 Q70.8531 1455.52 70.8531 1448.41 Q70.8531 1441.28 69.0244 1437.74 Q67.2189 1434.18 63.5847 1434.18 M63.5847 1430.47 Q69.3948 1430.47 72.4503 1435.08 Q75.529 1439.66 75.529 1448.41 Q75.529 1457.14 72.4503 1461.75 Q69.3948 1466.33 63.5847 1466.33 Q57.7745 1466.33 54.6958 1461.75 Q51.6403 1457.14 51.6403 1448.41 Q51.6403 1439.66 54.6958 1435.08 Q57.7745 1430.47 63.5847 1430.47 Z" fill="#000000" fill-rule="nonzero" fill-opacity="1" /><path clip-path="url(#clip140)" d="M83.7466 1459.78 L88.6308 1459.78 L88.6308 1465.66 L83.7466 1465.66 L83.7466 1459.78 Z" fill="#000000" fill-rule="nonzero" fill-opacity="1" /><path clip-path="url(#clip140)" d="M98.8622 1431.1 L117.219 1431.1 L117.219 1435.03 L103.145 1435.03 L103.145 1443.51 Q104.163 1443.16 105.182 1443 Q106.2 1442.81 107.219 1442.81 Q113.006 1442.81 116.385 1445.98 Q119.765 1449.16 119.765 1454.57 Q119.765 1460.15 116.293 1463.25 Q112.82 1466.33 106.501 1466.33 Q104.325 1466.33 102.057 1465.96 Q99.8113 1465.59 97.4039 1464.85 L97.4039 1460.15 Q99.4872 1461.28 101.709 1461.84 Q103.932 1462.4 106.408 1462.4 Q110.413 1462.4 112.751 1460.29 Q115.089 1458.18 115.089 1454.57 Q115.089 1450.96 112.751 1448.85 Q110.413 1446.75 106.408 1446.75 Q104.534 1446.75 102.659 1447.16 Q100.807 1447.58 98.8622 1448.46 L98.8622 1431.1 Z" fill="#000000" fill-rule="nonzero" fill-opacity="1" /><path clip-path="url(#clip140)" d="M53.3995 1246.06 L61.0384 1246.06 L61.0384 1219.69 L52.7282 1221.36 L52.7282 1217.1 L60.9921 1215.43 L65.668 1215.43 L65.668 1246.06 L73.3068 1246.06 L73.3068 1249.99 L53.3995 1249.99 L53.3995 1246.06 Z" fill="#000000" fill-rule="nonzero" fill-opacity="1" /><path clip-path="url(#clip140)" d="M82.7512 1244.11 L87.6354 1244.11 L87.6354 1249.99 L82.7512 1249.99 L82.7512 1244.11 Z" fill="#000000" fill-rule="nonzero" fill-opacity="1" /><path clip-path="url(#clip140)" d="M107.821 1218.51 Q104.209 1218.51 102.381 1222.08 Q100.575 1225.62 100.575 1232.75 Q100.575 1239.85 102.381 1243.42 Q104.209 1246.96 107.821 1246.96 Q111.455 1246.96 113.26 1243.42 Q115.089 1239.85 115.089 1232.75 Q115.089 1225.62 113.26 1222.08 Q111.455 1218.51 107.821 1218.51 M107.821 1214.81 Q113.631 1214.81 116.686 1219.41 Q119.765 1224 119.765 1232.75 Q119.765 1241.47 116.686 1246.08 Q113.631 1250.66 107.821 1250.66 Q102.01 1250.66 98.9317 1246.08 Q95.8761 1241.47 95.8761 1232.75 Q95.8761 1224 98.9317 1219.41 Q102.01 1214.81 107.821 1214.81 Z" fill="#000000" fill-rule="nonzero" fill-opacity="1" /><path clip-path="url(#clip140)" d="M54.3949 1030.39 L62.0337 1030.39 L62.0337 1004.03 L53.7236 1005.69 L53.7236 1001.43 L61.9874 999.767 L66.6633 999.767 L66.6633 1030.39 L74.3022 1030.39 L74.3022 1034.33 L54.3949 1034.33 L54.3949 1030.39 Z" fill="#000000" fill-rule="nonzero" fill-opacity="1" /><path clip-path="url(#clip140)" d="M83.7466 1028.45 L88.6308 1028.45 L88.6308 1034.33 L83.7466 1034.33 L83.7466 1028.45 Z" fill="#000000" fill-rule="nonzero" fill-opacity="1" /><path clip-path="url(#clip140)" d="M98.8622 999.767 L117.219 999.767 L117.219 1003.7 L103.145 1003.7 L103.145 1012.17 Q104.163 1011.83 105.182 1011.67 Q106.2 1011.48 107.219 1011.48 Q113.006 1011.48 116.385 1014.65 Q119.765 1017.82 119.765 1023.24 Q119.765 1028.82 116.293 1031.92 Q112.82 1035 106.501 1035 Q104.325 1035 102.057 1034.63 Q99.8113 1034.26 97.4039 1033.52 L97.4039 1028.82 Q99.4872 1029.95 101.709 1030.51 Q103.932 1031.06 106.408 1031.06 Q110.413 1031.06 112.751 1028.96 Q115.089 1026.85 115.089 1023.24 Q115.089 1019.63 112.751 1017.52 Q110.413 1015.42 106.408 1015.42 Q104.534 1015.42 102.659 1015.83 Q100.807 1016.25 98.8622 1017.13 L98.8622 999.767 Z" fill="#000000" fill-rule="nonzero" fill-opacity="1" /><path clip-path="url(#clip140)" d="M56.6171 814.726 L72.9365 814.726 L72.9365 818.661 L50.9921 818.661 L50.9921 814.726 Q53.6541 811.971 58.2375 807.342 Q62.8439 802.689 64.0245 801.346 Q66.2698 798.823 67.1494 797.087 Q68.0522 795.328 68.0522 793.638 Q68.0522 790.883 66.1078 789.147 Q64.1865 787.411 61.0847 787.411 Q58.8856 787.411 56.4319 788.175 Q54.0014 788.939 51.2236 790.49 L51.2236 785.768 Q54.0477 784.633 56.5014 784.055 Q58.955 783.476 60.9921 783.476 Q66.3624 783.476 69.5568 786.161 Q72.7513 788.846 72.7513 793.337 Q72.7513 795.467 71.9411 797.388 Q71.1541 799.286 69.0476 801.879 Q68.4689 802.55 65.367 805.768 Q62.2652 808.962 56.6171 814.726 Z" fill="#000000" fill-rule="nonzero" fill-opacity="1" /><path clip-path="url(#clip140)" d="M82.7512 812.781 L87.6354 812.781 L87.6354 818.661 L82.7512 818.661 L82.7512 812.781 Z" fill="#000000" fill-rule="nonzero" fill-opacity="1" /><path clip-path="url(#clip140)" d="M107.821 787.18 Q104.209 787.18 102.381 790.744 Q100.575 794.286 100.575 801.416 Q100.575 808.522 102.381 812.087 Q104.209 815.629 107.821 815.629 Q111.455 815.629 113.26 812.087 Q115.089 808.522 115.089 801.416 Q115.089 794.286 113.26 790.744 Q111.455 787.18 107.821 787.18 M107.821 783.476 Q113.631 783.476 116.686 788.082 Q119.765 792.666 119.765 801.416 Q119.765 810.142 116.686 814.749 Q113.631 819.332 107.821 819.332 Q102.01 819.332 98.9317 814.749 Q95.8761 810.142 95.8761 801.416 Q95.8761 792.666 98.9317 788.082 Q102.01 783.476 107.821 783.476 Z" fill="#000000" fill-rule="nonzero" fill-opacity="1" /><path clip-path="url(#clip140)" d="M57.6125 599.06 L73.9318 599.06 L73.9318 602.995 L51.9875 602.995 L51.9875 599.06 Q54.6495 596.305 59.2328 591.675 Q63.8393 587.023 65.0198 585.68 Q67.2652 583.157 68.1448 581.421 Q69.0476 579.662 69.0476 577.972 Q69.0476 575.217 67.1032 573.481 Q65.1819 571.745 62.08 571.745 Q59.881 571.745 57.4273 572.509 Q54.9967 573.273 52.219 574.824 L52.219 570.101 Q55.043 568.967 57.4967 568.388 Q59.9504 567.81 61.9874 567.81 Q67.3578 567.81 70.5522 570.495 Q73.7466 573.18 73.7466 577.671 Q73.7466 579.8 72.9365 581.722 Q72.1494 583.62 70.0429 586.212 Q69.4642 586.884 66.3624 590.101 Q63.2606 593.296 57.6125 599.06 Z" fill="#000000" fill-rule="nonzero" fill-opacity="1" /><path clip-path="url(#clip140)" d="M83.7466 597.115 L88.6308 597.115 L88.6308 602.995 L83.7466 602.995 L83.7466 597.115 Z" fill="#000000" fill-rule="nonzero" fill-opacity="1" /><path clip-path="url(#clip140)" d="M98.8622 568.435 L117.219 568.435 L117.219 572.37 L103.145 572.37 L103.145 580.842 Q104.163 580.495 105.182 580.333 Q106.2 580.148 107.219 580.148 Q113.006 580.148 116.385 583.319 Q119.765 586.49 119.765 591.907 Q119.765 597.486 116.293 600.587 Q112.82 603.666 106.501 603.666 Q104.325 603.666 102.057 603.296 Q99.8113 602.925 97.4039 602.185 L97.4039 597.486 Q99.4872 598.62 101.709 599.175 Q103.932 599.731 106.408 599.731 Q110.413 599.731 112.751 597.624 Q115.089 595.518 115.089 591.907 Q115.089 588.296 112.751 586.189 Q110.413 584.083 106.408 584.083 Q104.534 584.083 102.659 584.499 Q100.807 584.916 98.8622 585.796 L98.8622 568.435 Z" fill="#000000" fill-rule="nonzero" fill-opacity="1" /><path clip-path="url(#clip140)" d="M66.7559 368.694 Q70.1124 369.412 71.9874 371.68 Q73.8855 373.949 73.8855 377.282 Q73.8855 382.398 70.367 385.199 Q66.8485 388 60.3671 388 Q58.1912 388 55.8764 387.56 Q53.5847 387.143 51.131 386.287 L51.131 381.773 Q53.0754 382.907 55.3903 383.486 Q57.7051 384.065 60.2282 384.065 Q64.6263 384.065 66.918 382.329 Q69.2328 380.592 69.2328 377.282 Q69.2328 374.227 67.08 372.514 Q64.9504 370.778 61.131 370.778 L57.1032 370.778 L57.1032 366.935 L61.3161 366.935 Q64.7652 366.935 66.5939 365.569 Q68.4226 364.181 68.4226 361.588 Q68.4226 358.926 66.5245 357.514 Q64.6495 356.079 61.131 356.079 Q59.2097 356.079 57.0106 356.495 Q54.8115 356.912 52.1727 357.792 L52.1727 353.625 Q54.8347 352.884 57.1495 352.514 Q59.4875 352.144 61.5476 352.144 Q66.8717 352.144 69.9735 354.574 Q73.0753 356.981 73.0753 361.102 Q73.0753 363.972 71.4318 365.963 Q69.7883 367.931 66.7559 368.694 Z" fill="#000000" fill-rule="nonzero" fill-opacity="1" /><path clip-path="url(#clip140)" d="M82.7512 381.449 L87.6354 381.449 L87.6354 387.329 L82.7512 387.329 L82.7512 381.449 Z" fill="#000000" fill-rule="nonzero" fill-opacity="1" /><path clip-path="url(#clip140)" d="M107.821 355.847 Q104.209 355.847 102.381 359.412 Q100.575 362.954 100.575 370.083 Q100.575 377.19 102.381 380.755 Q104.209 384.296 107.821 384.296 Q111.455 384.296 113.26 380.755 Q115.089 377.19 115.089 370.083 Q115.089 362.954 113.26 359.412 Q111.455 355.847 107.821 355.847 M107.821 352.144 Q113.631 352.144 116.686 356.75 Q119.765 361.333 119.765 370.083 Q119.765 378.81 116.686 383.417 Q113.631 388 107.821 388 Q102.01 388 98.9317 383.417 Q95.8761 378.81 95.8761 370.083 Q95.8761 361.333 98.9317 356.75 Q102.01 352.144 107.821 352.144 Z" fill="#000000" fill-rule="nonzero" fill-opacity="1" /><path clip-path="url(#clip140)" d="M67.7513 153.028 Q71.1078 153.746 72.9827 156.014 Q74.8809 158.283 74.8809 161.616 Q74.8809 166.732 71.3624 169.533 Q67.8439 172.334 61.3624 172.334 Q59.1865 172.334 56.8717 171.894 Q54.5801 171.477 52.1264 170.621 L52.1264 166.107 Q54.0708 167.241 56.3856 167.82 Q58.7004 168.398 61.2236 168.398 Q65.6217 168.398 67.9133 166.662 Q70.2281 164.926 70.2281 161.616 Q70.2281 158.561 68.0754 156.848 Q65.9457 155.112 62.1263 155.112 L58.0986 155.112 L58.0986 151.269 L62.3115 151.269 Q65.7606 151.269 67.5893 149.903 Q69.418 148.514 69.418 145.922 Q69.418 143.26 67.5198 141.848 Q65.6448 140.413 62.1263 140.413 Q60.205 140.413 58.006 140.829 Q55.8069 141.246 53.168 142.125 L53.168 137.959 Q55.8301 137.218 58.1449 136.848 Q60.4828 136.477 62.543 136.477 Q67.867 136.477 70.9689 138.908 Q74.0707 141.315 74.0707 145.436 Q74.0707 148.306 72.4272 150.297 Q70.7837 152.264 67.7513 153.028 Z" fill="#000000" fill-rule="nonzero" fill-opacity="1" /><path clip-path="url(#clip140)" d="M83.7466 165.783 L88.6308 165.783 L88.6308 171.662 L83.7466 171.662 L83.7466 165.783 Z" fill="#000000" fill-rule="nonzero" fill-opacity="1" /><path clip-path="url(#clip140)" d="M98.8622 137.102 L117.219 137.102 L117.219 141.038 L103.145 141.038 L103.145 149.51 Q104.163 149.162 105.182 149 Q106.2 148.815 107.219 148.815 Q113.006 148.815 116.385 151.987 Q119.765 155.158 119.765 160.574 Q119.765 166.153 116.293 169.255 Q112.82 172.334 106.501 172.334 Q104.325 172.334 102.057 171.963 Q99.8113 171.593 97.4039 170.852 L97.4039 166.153 Q99.4872 167.287 101.709 167.843 Q103.932 168.398 106.408 168.398 Q110.413 168.398 112.751 166.292 Q115.089 164.186 115.089 160.574 Q115.089 156.963 112.751 154.857 Q110.413 152.75 106.408 152.75 Q104.534 152.75 102.659 153.167 Q100.807 153.584 98.8622 154.463 L98.8622 137.102 Z" fill="#000000" fill-rule="nonzero" fill-opacity="1" /><polyline clip-path="url(#clip142)" style="stroke:#009af9; stroke-linecap:round; stroke-linejoin:round; stroke-width:4; stroke-opacity:1; fill:none" points="217.944,1034.05 218.98,1034.19 220.017,649.507 221.053,649.984 222.089,1308.24 223.125,1308.27 224.162,1295.91 225.198,1295.95 226.234,1345.5 227.271,1345.54 228.307,1292.04 229.343,1292.08 230.38,944.562 231.416,944.737 232.452,949.093 233.489,949.182 234.525,868.37 235.561,868.655 236.598,1140.45 237.634,1140.53 238.67,1116.45 239.707,1116.55 240.743,1424.66 241.779,1424.69 242.815,841.693 243.852,841.955 244.888,1445.69 245.924,1445.72 246.961,1020.97 247.997,1021.05 249.033,1031.71 250.07,1031.85 251.106,719.022 252.142,719.274 253.179,949.919 254.215,950.056 255.251,1110.8 256.288,1110.92 257.324,908.6 258.36,908.72 259.397,934.096 260.433,934.233 261.469,1380.99 262.506,1381.01 263.542,1217.57 264.578,1217.65 265.614,1108.43 266.651,1108.55 267.687,1201 268.723,1201.09 269.76,1043.94 270.796,1044.07 271.832,838.377 272.869,838.509 273.905,1162.15 274.941,1162.23 275.978,1036.66 277.014,1036.78 278.05,677.453 279.087,677.68 280.123,721.636 281.159,722.003 282.196,1041.91 283.232,1042.08 284.268,1128.43 285.304,1128.53 286.341,1172.22 287.377,1172.3 288.413,996.064 289.45,996.253 290.486,1077.86 291.522,1078 292.559,1113.13 293.595,1113.23 294.631,1164.92 295.668,1165.04 296.704,1044.61 297.74,1044.68 298.777,680.889 299.813,681.278 300.849,827.78 301.886,827.924 302.922,960.608 303.958,960.696 304.994,1055.72 306.031,1055.84 307.067,1093.17 308.103,1093.25 309.14,1338.17 310.176,1338.22 311.212,1235.59 312.249,1235.65 313.285,1027.62 314.321,1027.75 315.358,1094.19 316.394,1094.24 317.43,1355.39 318.467,1355.43 319.503,733.045 320.539,733.336 321.576,912.78 322.612,912.975 323.648,1194.69 324.684,1194.76 325.721,992.916 326.757,993.008 327.793,659.281 328.83,659.51 329.866,1305.21 330.902,1305.24 331.939,515.445 332.975,515.719 334.011,800.919 335.048,801.137 336.084,851.726 337.12,851.867 338.157,983.425 339.193,983.524 340.229,1104.17 341.266,1104.26 342.302,1165.36 343.338,1165.43 344.375,1028.01 345.411,1028.13 346.447,1064.01 347.483,1064.16 348.52,1255.4 349.556,1255.47 350.592,1181.02 351.629,1181.09 352.665,1235.46 353.701,1235.51 354.738,999.16 355.774,999.445 356.81,691.583 357.847,692.002 358.883,1257.99 359.919,1258.03 360.956,976.984 361.992,977.095 363.028,1174.11 364.065,1174.18 365.101,1191.29 366.137,1191.36 367.173,1174.97 368.21,1175.03 369.246,1023.96 370.282,1024.04 371.319,1196.39 372.355,1196.45 373.391,1234.49 374.428,1234.61 375.464,929.167 376.5,929.29 377.537,889.414 378.573,889.653 379.609,1321.79 380.646,1321.83 381.682,1230.58 382.718,1230.63 383.755,1131.68 384.791,1131.77 385.827,1172.93 386.863,1172.99 387.9,1025.25 388.936,1025.43 389.972,849.823 391.009,850.007 392.045,1080.4 393.081,1080.55 394.118,940.264 395.154,940.484 396.19,1289.13 397.227,1289.18 398.263,928.669 399.299,928.788 400.336,1364.27 401.372,1364.31 402.408,985.342 403.445,985.483 404.481,1257.57 405.517,1257.64 406.554,1262.95 407.59,1262.99 408.626,1012.33 409.662,1012.48 410.699,1021.37 411.735,1021.52 412.771,1061.56 413.808,1061.68 414.844,1086.96 415.88,1087.12 416.917,1072.07 417.953,1072.12 418.989,1152 420.026,1152.07 421.062,754.136 422.098,754.397 423.135,1194.06 424.171,1194.16 425.207,950.085 426.244,950.272 427.28,1069.82 428.316,1069.96 429.352,1235.43 430.389,1235.46 431.425,1070.05 432.461,1070.16 433.498,1052.43 434.534,1052.5 435.57,801.902 436.607,802.137 437.643,791.97 438.679,792.121 439.716,993.56 440.752,993.651 441.788,1300.93 442.825,1301.01 443.861,1136.87 444.897,1136.95 445.934,855.795 446.97,855.933 448.006,881.096 449.042,881.208 450.079,1024.07 451.115,1024.23 452.151,1000.29 453.188,1000.44 454.224,927.186 455.26,927.358 456.297,1263.6 457.333,1263.64 458.369,1151.37 459.406,1151.46 460.442,1350.79 461.478,1350.83 462.515,1082.7 463.551,1082.81 464.587,1083.16 465.624,1083.27 466.66,1178.69 467.696,1178.76 468.732,1157.13 469.769,1157.21 470.805,977.97 471.841,978.236 472.878,938.529 473.914,938.7 474.95,824.527 475.987,824.78 477.023,1344.38 478.059,1344.45 479.096,1151.51 480.132,1151.61 481.168,1309.39 482.205,1309.42 483.241,891.807 484.277,891.935 485.314,847.53 486.35,847.644 487.386,1313.28 488.423,1313.33 489.459,866.154 490.495,866.429 491.531,1204.24 492.568,1204.31 493.604,965.782 494.64,965.957 495.677,1084.03 496.713,1084.15 497.749,1213.69 498.786,1213.76 499.822,1163.38 500.858,1163.48 501.895,1195.43 502.931,1195.5 503.967,1205.07 505.004,1205.13 506.04,1099.48 507.076,1099.52 508.113,1091 509.149,1091.06 510.185,1054.54 511.221,1054.62 512.258,896.938 513.294,897.029 514.33,583.202 515.367,583.469 516.403,1260.76 517.439,1260.8 518.476,1116.86 519.512,1116.9 520.548,1090.8 521.585,1090.94 522.621,1064.95 523.657,1065.14 524.694,856.393 525.73,856.649 526.766,949.145 527.803,949.251 528.839,741.877 529.875,742.196 530.911,1185.43 531.948,1185.52 532.984,779.135 534.02,779.323 535.057,1095.63 536.093,1095.73 537.129,1147.67 538.166,1147.8 539.202,1205.75 540.238,1205.81 541.275,622.907 542.311,623.252 543.347,937.455 544.384,937.772 545.42,845.194 546.456,845.345 547.493,951.35 548.529,951.467 549.565,1100.54 550.601,1100.68 551.638,1268.88 552.674,1268.92 553.71,883.596 554.747,883.845 555.783,1134.84 556.819,1134.93 557.856,87.9763 558.892,88.2226 559.928,834.965 560.965,835.373 562.001,866.325 563.037,866.483 564.074,966.467 565.11,966.561 566.146,1277.82 567.183,1277.88 568.219,1113.83 569.255,1113.94 570.292,1201.71 571.328,1201.85 572.364,975.712 573.4,975.949 574.437,675.939 575.473,676.335 576.509,929.94 577.546,930.151 578.582,953.166 579.618,953.347 580.655,1004.95 581.691,1005.03 582.727,1073.82 583.764,1073.92 584.8,1321.54 585.836,1321.57 586.873,1090.74 587.909,1090.92 588.945,1203.47 589.982,1203.5 591.018,930.82 592.054,931.06 593.09,991.984 594.127,992.134 595.163,1155 596.199,1155.07 597.236,1199.57 598.272,1199.62 599.308,985.103 600.345,985.258 601.381,1165.16 602.417,1165.23 603.454,845.46 604.49,845.748 605.526,875.825 606.563,876.084 607.599,1239.61 608.635,1239.68 609.672,1148.74 610.708,1148.82 611.744,895.308 612.78,895.548 613.817,1041.28 614.853,1041.41 615.889,885.397 616.926,885.653 617.962,1046.91 618.998,1047.04 620.035,1264.54 621.071,1264.6 622.107,589.618 623.144,589.859 624.18,1082.98 625.216,1083.1 626.253,1260.1 627.289,1260.15 628.325,1135.28 629.362,1135.37 630.398,1011.76 631.434,1011.84 632.47,892.736 633.507,892.956 634.543,1180.52 635.579,1180.56 636.616,950.349 637.652,950.531 638.688,1125.17 639.725,1125.22 640.761,1060.07 641.797,1060.12 642.834,970.063 643.87,970.148 644.906,909.622 645.943,909.856 646.979,808.013 648.015,808.191 649.052,1330.8 650.088,1330.83 651.124,1152.98 652.161,1153.06 653.197,1068.14 654.233,1068.2 655.269,969.956 656.306,970.049 657.342,825.482 658.378,825.661 659.415,1255.16 660.451,1255.22 661.487,1079.13 662.524,1079.25 663.56,865.386 664.596,865.518 665.633,800.171 666.669,800.356 667.705,1017.69 668.742,1017.97 669.778,1208.89 670.814,1208.95 671.851,1107.15 672.887,1107.25 673.923,1166.88 674.959,1166.94 675.996,995.477 677.032,995.552 678.068,619.86 679.105,620.121 680.141,1134.92 681.177,1135.01 682.214,1196.09 683.25,1196.15 684.286,869.871 685.323,870.004 686.359,1011.05 687.395,1011.19 688.432,1260.34 689.468,1260.38 690.504,594.684 691.541,595.234 692.577,1091.09 693.613,1091.22 694.649,1098.68 695.686,1098.79 696.722,1201.82 697.758,1201.9 698.795,1227.66 699.831,1227.72 700.867,1072.71 701.904,1072.82 702.94,1163.85 703.976,1163.88 705.013,1087.84 706.049,1087.93 707.085,950.983 708.122,951.149 709.158,1023.77 710.194,1023.91 711.231,1050.11 712.267,1050.26 713.303,1190.87 714.34,1190.98 715.376,359.289 716.412,359.696 717.448,620.547 718.485,620.76 719.521,1289.41 720.557,1289.44 721.594,964.076 722.63,964.241 723.666,709.715 724.703,709.94 725.739,849.983 726.775,850.094 727.812,703.215 728.848,703.442 729.884,957.847 730.921,957.961 731.957,1158.77 732.993,1158.85 734.03,1192.21 735.066,1192.27 736.102,1171.21 737.138,1171.29 738.175,1237.36 739.211,1237.4 740.247,984.548 741.284,984.626 742.32,1055.05 743.356,1055.11 744.393,1078.62 745.429,1078.67 746.465,723.975 747.502,724.199 748.538,895.898 749.574,896.028 750.611,934.67 751.647,934.881 752.683,1028.47 753.72,1028.6 754.756,1063.13 755.792,1063.25 756.828,981.706 757.865,981.778 758.901,479.282 759.937,479.608 760.974,936.593 762.01,936.914 763.046,1130.13 764.083,1130.21 765.119,882.099 766.155,882.218 767.192,1283.28 768.228,1283.33 769.264,948.969 770.301,949.17 771.337,1086.09 772.373,1086.13 773.41,881.461 774.446,881.786 775.482,1066.23 776.518,1066.38 777.555,563.258 778.591,563.525 779.627,1118.03 780.664,1118.1 781.7,1134.35 782.736,1134.42 783.773,1239.31 784.809,1239.36 785.845,1129.07 786.882,1129.15 787.918,1279.88 788.954,1279.94 789.991,1232.56 791.027,1232.62 792.063,1164 793.1,1164.07 794.136,1214.98 795.172,1215.03 796.209,1207.61 797.245,1207.66 798.281,1179.84 799.317,1179.92 800.354,1077.23 801.39,1077.33 802.426,1136.9 803.463,1137.01 804.499,1204.46 805.535,1204.52 806.572,905.195 807.608,905.315 808.644,1158.62 809.681,1158.7 810.717,805.222 811.753,805.405 812.79,989.129 813.826,989.295 814.862,874.462 815.899,874.678 816.935,898.225 817.971,898.51 819.007,903.708 820.044,903.823 821.08,1352.29 822.116,1352.33 823.153,936.252 824.189,936.443 825.225,1192.77 826.262,1192.84 827.298,1021.63 828.334,1021.75 829.371,1082.24 830.407,1082.29 831.443,1021.03 832.48,1021.15 833.516,1005.68 834.552,1005.75 835.589,874.209 836.625,874.42 837.661,1025.69 838.697,1025.81 839.734,946.351 840.77,946.436 841.806,1172.36 842.843,1172.44 843.879,1157.84 844.915,1157.98 845.952,988.832 846.988,989.018 848.024,1192.45 849.061,1192.51 850.097,1194.59 851.133,1194.7 852.17,1034.05 853.206,1034.16 854.242,1082.38 855.279,1082.45 856.315,757.401 857.351,757.582 858.387,850.783 859.424,850.896 860.46,897.129 861.496,897.234 862.533,796.349 863.569,796.551 864.605,1040.66 865.642,1040.73 866.678,1133.25 867.714,1133.33 868.751,1057.93 869.787,1057.98 870.823,1038.85 871.86,1038.99 872.896,977.137 873.932,977.223 874.969,912.719 876.005,912.88 877.041,1283.98 878.078,1284.07 879.114,1152.85 880.15,1152.92 881.186,940.334 882.223,940.438 883.259,954.913 884.295,954.99 885.332,1117.14 886.368,1117.22 887.404,1300.08 888.441,1300.11 889.477,1078.47 890.513,1078.51 891.55,1146.85 892.586,1146.99 893.622,796.764 894.659,796.92 895.695,1149.75 896.731,1149.85 897.768,857.132 898.804,857.261 899.84,670.798 900.876,670.981 901.913,1182.57 902.949,1182.64 903.985,957.295 905.022,957.591 906.058,821.168 907.094,821.332 908.131,1005.31 909.167,1005.45 910.203,588.93 911.24,589.197 912.276,607.17 913.312,607.434 914.349,674.481 915.385,674.761 916.421,919.215 917.458,919.441 918.494,946.676 919.53,946.775 920.566,705.735 921.603,705.926 922.639,1281.59 923.675,1281.64 924.712,1163.91 925.748,1163.98 926.784,1185.38 927.821,1185.45 928.857,867.119 929.893,867.38 930.93,1041.5 931.966,1041.61 933.002,737.803 934.039,738.127 935.075,842.572 936.111,842.74 937.148,1141.3 938.184,1141.39 939.22,682.247 940.257,682.429 941.293,1138.76 942.329,1138.8 943.365,887.658 944.402,887.887 945.438,663.261 946.474,663.442 947.511,1214.52 948.547,1214.57 949.583,746.973 950.62,747.369 951.656,679.575 952.692,679.755 953.729,1105.46 954.765,1105.52 955.801,456.155 956.838,456.475 957.874,1146.85 958.91,1146.91 959.947,1170.42 960.983,1170.48 962.019,1081.14 963.055,1081.25 964.092,1161.31 965.128,1161.44 966.164,866.927 967.201,867.262 968.237,1107.65 969.273,1107.73 970.31,1147.09 971.346,1147.18 972.382,1009.83 973.419,1009.96 974.455,951.636 975.491,951.74 976.528,720.096 977.564,720.26 978.6,1238.47 979.637,1238.51 980.673,1346.27 981.709,1346.36 982.745,992.873 983.782,992.931 984.818,1187.27 985.854,1187.34 986.891,787.606 987.927,787.808 988.963,1303.16 990,1303.19 991.036,897.899 992.072,898.153 993.109,766.323 994.145,766.555 995.181,854.164 996.218,854.367 997.254,1252.58 998.29,1252.62 999.327,967.504 1000.36,967.584 1001.4,864.043 1002.44,864.151 1003.47,843.844 1004.51,844.201 1005.54,1313.86 1006.58,1313.89 1007.62,1239.48 1008.65,1239.53 1009.69,659.355 1010.73,659.591 1011.76,1049.05 1012.8,1049.15 1013.83,1154.17 1014.87,1154.24 1015.91,500.772 1016.94,501.066 1017.98,692.369 1019.02,692.733 1020.05,1169.36 1021.09,1169.42 1022.13,1026.3 1023.16,1026.35 1024.2,1163.56 1025.23,1163.63 1026.27,1163.53 1027.31,1163.61 1028.34,1020.38 1029.38,1020.5 1030.42,688.186 1031.45,688.344 1032.49,997.647 1033.52,997.798 1034.56,1314.03 1035.6,1314.11 1036.63,968.348 1037.67,968.495 1038.71,1193.62 1039.74,1193.68 1040.78,1226.61 1041.82,1226.67 1042.85,656.528 1043.89,656.993 1044.92,786.364 1045.96,786.575 1047,932.035 1048.03,932.221 1049.07,1080.34 1050.11,1080.45 1051.14,1147.63 1052.18,1147.71 1053.22,1158.1 1054.25,1158.17 1055.29,1057.67 1056.32,1057.78 1057.36,1066.8 1058.4,1066.92 1059.43,1001.41 1060.47,1001.53 1061.51,1314.52 1062.54,1314.57 1063.58,1100.42 1064.61,1100.54 1065.65,1026.55 1066.69,1026.7 1067.72,895.823 1068.76,896.023 1069.8,983.134 1070.83,983.275 1071.87,1101.12 1072.91,1101.2 1073.94,1156.84 1074.98,1156.95 1076.01,713.438 1077.05,713.669 1078.09,1153.03 1079.12,1153.11 1080.16,699.874 1081.2,700.069 1082.23,1068.93 1083.27,1069.02 1084.3,1196.97 1085.34,1197.02 1086.38,1074.01 1087.41,1074.15 1088.45,724.327 1089.49,724.555 1090.52,1011.78 1091.56,1011.83 1092.6,1068.97 1093.63,1069.07 1094.67,1045.54 1095.7,1045.66 1096.74,1409.6 1097.78,1409.63 1098.81,826.848 1099.85,827.038 1100.89,657.322 1101.92,657.497 1102.96,1300.37 1103.99,1300.4 1105.03,1161.03 1106.07,1161.08 1107.1,883.505 1108.14,883.61 1109.18,854.121 1110.21,854.246 1111.25,1207.64 1112.29,1207.69 1113.32,912.75 1114.36,912.844 1115.39,542.097 1116.43,542.302 1117.47,1268.31 1118.5,1268.35 1119.54,1278.05 1120.58,1278.09 1121.61,1208.49 1122.65,1208.54 1123.68,1085.7 1124.72,1085.79 1125.76,1137.78 1126.79,1137.85 1127.83,1078.64 1128.87,1078.73 1129.9,770.667 1130.94,770.849 1131.98,1108.17 1133.01,1108.27 1134.05,1045.35 1135.08,1045.43 1136.12,1161.17 1137.16,1161.22 1138.19,868.179 1139.23,868.307 1140.27,1217.87 1141.3,1217.93 1142.34,983.848 1143.37,983.972 1144.41,1118.16 1145.45,1118.23 1146.48,908.334 1147.52,908.442 1148.56,779.134 1149.59,779.237 1150.63,1100.57 1151.67,1100.67 1152.7,1156.41 1153.74,1156.46 1154.77,1135.35 1155.81,1135.42 1156.85,1211.61 1157.88,1211.69 1158.92,1030.69 1159.96,1030.88 1160.99,886.463 1162.03,886.633 1163.06,1052.77 1164.1,1052.88 1165.14,579.574 1166.17,579.789 1167.21,1137.18 1168.25,1137.24 1169.28,671.296 1170.32,671.523 1171.36,919.221 1172.39,919.296 1173.43,1099.52 1174.46,1099.61 1175.5,1130.43 1176.54,1130.5 1177.57,877.668 1178.61,877.76 1179.65,658.486 1180.68,658.823 1181.72,1228.53 1182.75,1228.57 1183.79,1223.87 1184.83,1223.91 1185.86,1149.34 1186.9,1149.4 1187.94,1037.57 1188.97,1037.67 1190.01,655.778 1191.05,655.945 1192.08,862.032 1193.12,862.159 1194.15,1065.43 1195.19,1065.51 1196.23,850.705 1197.26,850.847 1198.3,1125.46 1199.34,1125.56 1200.37,1057.28 1201.41,1057.33 1202.44,968.638 1203.48,968.788 1204.52,997.116 1205.55,997.286 1206.59,902.347 1207.63,902.435 1208.66,764.4 1209.7,764.522 1210.74,1215.53 1211.77,1215.59 1212.81,1128.61 1213.84,1128.67 1214.88,1046.24 1215.92,1046.37 1216.95,1193.63 1217.99,1193.7 1219.03,985.389 1220.06,985.464 1221.1,709.268 1222.13,709.431 1223.17,1003.17 1224.21,1003.34 1225.24,1219.78 1226.28,1219.83 1227.32,1054.07 1228.35,1054.2 1229.39,1149 1230.43,1149.09 1231.46,913.721 1232.5,913.814 1233.53,890.839 1234.57,890.991 1235.61,673.572 1236.64,673.749 1237.68,868.595 1238.72,868.776 1239.75,1028.68 1240.79,1028.79 1241.82,822.248 1242.86,822.424 1243.9,983.032 1244.93,983.176 1245.97,1328.35 1247.01,1328.43 1248.04,1121.55 1249.08,1121.65 1250.12,892.369 1251.15,892.65 1252.19,999.497 1253.22,999.56 1254.26,1082.34 1255.3,1082.47 1256.33,1370.42 1257.37,1370.47 1258.41,1294.81 1259.44,1294.85 1260.48,977.321 1261.51,977.39 1262.55,1343.78 1263.59,1343.8 1264.62,1029.36 1265.66,1029.47 1266.7,1180.91 1267.73,1180.97 1268.77,732.381 1269.81,732.565 1270.84,578.827 1271.88,579.082 1272.91,906.868 1273.95,906.99 1274.99,828.019 1276.02,828.142 1277.06,1008.98 1278.1,1009.09 1279.13,1145.99 1280.17,1146.1 1281.2,1179.26 1282.24,1179.31 1283.28,1194.16 1284.31,1194.21 1285.35,969.407 1286.39,969.49 1287.42,1017.36 1288.46,1017.49 1289.5,798.275 1290.53,798.369 1291.57,814.379 1292.6,814.554 1293.64,938.043 1294.68,938.231 1295.71,1155.71 1296.75,1155.77 1297.79,1114.31 1298.82,1114.41 1299.86,839.372 1300.89,839.502 1301.93,1232.8 1302.97,1232.85 1304,1244.06 1305.04,1244.09 1306.08,1186.69 1307.11,1186.74 1308.15,792.095 1309.19,792.216 1310.22,964.798 1311.26,964.902 1312.29,1005.97 1313.33,1006.08 1314.37,1230.08 1315.4,1230.13 1316.44,1160.98 1317.48,1161.05 1318.51,1071.15 1319.55,1071.24 1320.58,1191.18 1321.62,1191.24 1322.66,827.482 1323.69,827.616 1324.73,954.427 1325.77,954.589 1326.8,1141.4 1327.84,1141.46 1328.88,994.27 1329.91,994.418 1330.95,935.957 1331.98,936.046 1333.02,849.692 1334.06,849.923 1335.09,1044.95 1336.13,1045.06 1337.17,753.588 1338.2,753.734 1339.24,1185.17 1340.27,1185.27 1341.31,959.692 1342.35,959.97 1343.38,1075.74 1344.42,1075.85 1345.46,764.045 1346.49,764.152 1347.53,667.635 1348.57,667.844 1349.6,930.218 1350.64,930.386 1351.67,1024.98 1352.71,1025.14 1353.75,1139.54 1354.78,1139.66 1355.82,1121.25 1356.86,1121.32 1357.89,1076.25 1358.93,1076.35 1359.96,992.217 1361,992.354 1362.04,741.403 1363.07,741.786 1364.11,1181.05 1365.15,1181.1 1366.18,903.181 1367.22,903.309 1368.26,1139.7 1369.29,1139.77 1370.33,1095.01 1371.36,1095.08 1372.4,875.637 1373.44,875.763 1374.47,1127.21 1375.51,1127.3 1376.55,866.452 1377.58,866.572 1378.62,1049.72 1379.65,1049.82 1380.69,795.788 1381.73,795.939 1382.76,1315.95 1383.8,1315.99 1384.84,1043.89 1385.87,1044.01 1386.91,984.383 1387.95,984.499 1388.98,1056.35 1390.02,1056.45 1391.05,1017.14 1392.09,1017.28 1393.13,1048.64 1394.16,1048.77 1395.2,987.156 1396.24,987.219 1397.27,1213.08 1398.31,1213.12 1399.34,830.201 1400.38,830.302 1401.42,1019.03 1402.45,1019.08 1403.49,1226.97 1404.53,1227.01 1405.56,959.559 1406.6,959.753 1407.64,808.481 1408.67,808.577 1409.71,904.256 1410.74,904.452 1411.78,1220.21 1412.82,1220.26 1413.85,979.871 1414.89,980.111 1415.93,1135.15 1416.96,1135.34 1418,1197.64 1419.03,1197.7 1420.07,1062.04 1421.11,1062.18 1422.14,1249.7 1423.18,1249.73 1424.22,662.696 1425.25,662.905 1426.29,709.741 1427.33,709.962 1428.36,901.211 1429.4,901.299 1430.43,1269.02 1431.47,1269.07 1432.51,1003.82 1433.54,1003.99 1434.58,1125.09 1435.62,1125.17 1436.65,350.865 1437.69,351.223 1438.72,1161.17 1439.76,1161.23 1440.8,1283.2 1441.83,1283.23 1442.87,853.623 1443.91,853.883 1444.94,1117.91 1445.98,1117.97 1447.02,767.356 1448.05,767.559 1449.09,1005.51 1450.12,1005.62 1451.16,990.883 1452.2,990.949 1453.23,886.511 1454.27,886.63 1455.31,1073.31 1456.34,1073.44 1457.38,488.138 1458.41,488.498 1459.45,462.947 1460.49,463.29 1461.52,1197.24 1462.56,1197.28 1463.6,943.436 1464.63,943.611 1465.67,734.241 1466.71,734.393 1467.74,1214.91 1468.78,1214.97 1469.81,866.313 1470.85,866.416 1471.89,906.799 1472.92,906.89 1473.96,1161.48 1475,1161.62 1476.03,1018.76 1477.07,1018.9 1478.1,703.663 1479.14,703.86 1480.18,1070.51 1481.21,1070.59 1482.25,1139.6 1483.29,1139.67 1484.32,774.915 1485.36,775.053 1486.4,1310.35 1487.43,1310.39 1488.47,1197.97 1489.5,1198.02 1490.54,961.505 1491.58,961.718 1492.61,948.933 1493.65,949.032 1494.69,927.25 1495.72,927.495 1496.76,1021.67 1497.79,1021.88 1498.83,1021.74 1499.87,1021.86 1500.9,1114.69 1501.94,1114.75 1502.98,1120.98 1504.01,1121.08 1505.05,818.018 1506.09,818.157 1507.12,854.958 1508.16,855.085 1509.19,1155.22 1510.23,1155.28 1511.27,780.917 1512.3,781.179 1513.34,1027.28 1514.38,1027.39 1515.41,1044.68 1516.45,1044.8 1517.48,1104.72 1518.52,1104.8 1519.56,774.375 1520.59,774.554 1521.63,1017.13 1522.67,1017.24 1523.7,1106.67 1524.74,1106.75 1525.78,840.429 1526.81,840.551 1527.85,1074.41 1528.88,1074.58 1529.92,996.342 1530.96,996.469 1531.99,987.703 1533.03,987.839 1534.07,1168.62 1535.1,1168.67 1536.14,715.694 1537.17,715.873 1538.21,934.471 1539.25,934.549 1540.28,938.323 1541.32,938.505 1542.36,1086.04 1543.39,1086.1 1544.43,916.954 1545.47,917.041 1546.5,925.086 1547.54,925.163 1548.57,857.902 1549.61,858.02 1550.65,1144.85 1551.68,1144.92 1552.72,763.779 1553.76,763.93 1554.79,958.565 1555.83,958.73 1556.86,916.279 1557.9,916.352 1558.94,1109.37 1559.97,1109.44 1561.01,753.174 1562.05,753.302 1563.08,1188.71 1564.12,1188.76 1565.16,1136.78 1566.19,1136.84 1567.23,713.928 1568.26,714.07 1569.3,626.221 1570.34,626.427 1571.37,1104.19 1572.41,1104.26 1573.45,1220.44 1574.48,1220.5 1575.52,1071.94 1576.55,1071.98 1577.59,1155.29 1578.63,1155.35 1579.66,709.216 1580.7,709.354 1581.74,713.266 1582.77,713.506 1583.81,701.177 1584.85,701.308 1585.88,1101.98 1586.92,1102.04 1587.95,1222.84 1588.99,1222.88 1590.03,967.738 1591.06,967.957 1592.1,1061.61 1593.14,1061.69 1594.17,1136.44 1595.21,1136.52 1596.24,720.427 1597.28,720.8 1598.32,881.235 1599.35,881.411 1600.39,785.694 1601.43,785.796 1602.46,1042.36 1603.5,1042.51 1604.54,1122.14 1605.57,1122.22 1606.61,1159.06 1607.64,1159.11 1608.68,1025.26 1609.72,1025.37 1610.75,1075.34 1611.79,1075.42 1612.83,1121.44 1613.86,1121.56 1614.9,731.302 1615.93,731.514 1616.97,1000.77 1618.01,1000.85 1619.04,789.277 1620.08,789.448 1621.12,1062.02 1622.15,1062.11 1623.19,1154.32 1624.23,1154.37 1625.26,978.538 1626.3,978.617 1627.33,1252.1 1628.37,1252.14 1629.41,1078.14 1630.44,1078.29 1631.48,628.478 1632.52,628.726 1633.55,1143.68 1634.59,1143.75 1635.62,1224.43 1636.66,1224.48 1637.7,1023.84 1638.73,1023.96 1639.77,1110.7 1640.81,1110.77 1641.84,1006.96 1642.88,1007.08 1643.92,824.893 1644.95,825.009 1645.99,912.521 1647.02,912.607 1648.06,1296.46 1649.1,1296.5 1650.13,916.731 1651.17,916.933 1652.21,1085.78 1653.24,1085.87 1654.28,1000.2 1655.31,1000.25 1656.35,1145.16 1657.39,1145.24 1658.42,849.958 1659.46,850.051 1660.5,1009.87 1661.53,1010 1662.57,1105.07 1663.61,1105.14 1664.64,916.193 1665.68,916.412 1666.71,1197.69 1667.75,1197.73 1668.79,958.207 1669.82,958.372 1670.86,1096.18 1671.9,1096.26 1672.93,1220.71 1673.97,1220.75 1675,1054.48 1676.04,1054.53 1677.08,892.089 1678.11,892.206 1679.15,828.539 1680.19,828.667 1681.22,1112.63 1682.26,1112.69 1683.3,994.067 1684.33,994.214 1685.37,980.408 1686.4,980.528 1687.44,1067.03 1688.48,1067.12 1689.51,970.157 1690.55,970.317 1691.59,1073.67 1692.62,1073.74 1693.66,1060.89 1694.69,1060.98 1695.73,1092.08 1696.77,1092.19 1697.8,733.368 1698.84,733.549 1699.88,928.665 1700.91,928.84 1701.95,1330.6 1702.99,1330.62 1704.02,931.907 1705.06,931.97 1706.09,1137.45 1707.13,1137.53 1708.17,1021.19 1709.2,1021.32 1710.24,965.297 1711.28,965.497 1712.31,987.436 1713.35,987.535 1714.38,746.182 1715.42,746.333 1716.46,1253.29 1717.49,1253.34 1718.53,682.963 1719.57,683.093 1720.6,1058.01 1721.64,1058.12 1722.68,1237.47 1723.71,1237.51 1724.75,1056.47 1725.78,1056.55 1726.82,848.307 1727.86,848.433 1728.89,865.253 1729.93,865.388 1730.97,829.782 1732,829.944 1733.04,946.606 1734.07,946.764 1735.11,779.251 1736.15,779.338 1737.18,1238.17 1738.22,1238.22 1739.26,1160.7 1740.29,1160.76 1741.33,1195.52 1742.37,1195.56 1743.4,914.387 1744.44,914.496 1745.47,1090.98 1746.51,1091.06 1747.55,1065.07 1748.58,1065.15 1749.62,1139.81 1750.66,1139.87 1751.69,1039.37 1752.73,1039.49 1753.76,336.876 1754.8,337.229 1755.84,1091.6 1756.87,1091.67 1757.91,1291.53 1758.95,1291.57 1759.98,940.336 1761.02,940.404 1762.06,1019.59 1763.09,1019.73 1764.13,1097.38 1765.16,1097.45 1766.2,1213.25 1767.24,1213.29 1768.27,869.326 1769.31,869.409 1770.35,1216.97 1771.38,1217.01 1772.42,845.235 1773.45,845.336 1774.49,1116.19 1775.53,1116.25 1776.56,1131.19 1777.6,1131.25 1778.64,647.478 1779.67,647.74 1780.71,1181.06 1781.75,1181.13 1782.78,869.839 1783.82,869.984 1784.85,1139.57 1785.89,1139.63 1786.93,1182.87 1787.96,1182.93 1789,242.25 1790.04,242.662 1791.07,691.821 1792.11,691.991 1793.14,1189.85 1794.18,1189.9 1795.22,1207.77 1796.25,1207.82 1797.29,1028.88 1798.33,1029.01 1799.36,597.342 1800.4,597.538 1801.44,1107.24 1802.47,1107.31 1803.51,1100.63 1804.54,1100.74 1805.58,1020.26 1806.62,1020.38 1807.65,842.054 1808.69,842.151 1809.73,990.005 1810.76,990.107 1811.8,1104.92 1812.84,1105.08 1813.87,1119.12 1814.91,1119.2 1815.94,1091.01 1816.98,1091.09 1818.02,1030.11 1819.05,1030.25 1820.09,1215.72 1821.13,1215.76 1822.16,867.363 1823.2,867.47 1824.23,1305.94 1825.27,1305.98 1826.31,973.428 1827.34,973.528 1828.38,467.154 1829.42,467.38 1830.45,976.675 1831.49,976.846 1832.53,815.095 1833.56,815.214 1834.6,810.277 1835.63,810.434 1836.67,709.023 1837.71,709.191 1838.74,1075.83 1839.78,1075.97 1840.82,1147.66 1841.85,1147.71 1842.89,1041.1 1843.92,1041.18 1844.96,1179.37 1846,1179.42 1847.03,900.765 1848.07,900.894 1849.11,923.534 1850.14,923.614 1851.18,715.056 1852.22,715.221 1853.25,812.577 1854.29,812.836 1855.32,941.999 1856.36,942.17 1857.4,1051.63 1858.43,1051.72 1859.47,850.029 1860.51,850.126 1861.54,1150.68 1862.58,1150.75 1863.61,795.799 1864.65,796.01 1865.69,1113.77 1866.72,1113.91 1867.76,1053.12 1868.8,1053.24 1869.83,860.239 1870.87,860.382 1871.91,971.471 1872.94,971.518 1873.98,983.753 1875.01,983.87 1876.05,800.795 1877.09,800.922 1878.12,839.235 1879.16,839.363 1880.2,1153.88 1881.23,1153.95 1882.27,1148.21 1883.3,1148.25 1884.34,977.365 1885.38,977.513 1886.41,896.752 1887.45,896.833 1888.49,1050.71 1889.52,1050.79 1890.56,967.844 1891.6,967.896 1892.63,802.631 1893.67,802.834 1894.7,1031.23 1895.74,1031.36 1896.78,703.055 1897.81,703.241 1898.85,1060.92 1899.89,1061.01 1900.92,939.081 1901.96,939.244 1902.99,930.438 1904.03,930.513 1905.07,758.028 1906.1,758.171 1907.14,1019.31 1908.18,1019.35 1909.21,1075.64 1910.25,1075.73 1911.29,1035.58 1912.32,1035.7 1913.36,999.669 1914.39,999.785 1915.43,1130.09 1916.47,1130.15 1917.5,1160.61 1918.54,1160.66 1919.58,1049.52 1920.61,1049.62 1921.65,859.775 1922.68,859.98 1923.72,1201.81 1924.76,1201.86 1925.79,274.597 1926.83,274.911 1927.87,738.566 1928.9,738.784 1929.94,1068.8 1930.98,1068.89 1932.01,805.971 1933.05,806.131 1934.08,1053.34 1935.12,1053.4 1936.16,785.939 1937.19,786.028 1938.23,878.833 1939.27,878.968 1940.3,1148.75 1941.34,1148.81 1942.37,1032.42 1943.41,1032.48 1944.45,1122.04 1945.48,1122.13 1946.52,922.791 1947.56,922.866 1948.59,1110.86 1949.63,1110.92 1950.67,805.002 1951.7,805.178 1952.74,900.491 1953.77,900.558 1954.81,914.251 1955.85,914.43 1956.88,963.125 1957.92,963.262 1958.96,586.406 1959.99,586.625 1961.03,614.886 1962.06,615.089 1963.1,858.025 1964.14,858.115 1965.17,904.849 1966.21,904.915 1967.25,665.108 1968.28,665.294 1969.32,927.239 1970.36,927.35 1971.39,790.235 1972.43,790.372 1973.46,914.719 1974.5,914.793 1975.54,1131.62 1976.57,1131.68 1977.61,1161.2 1978.65,1161.25 1979.68,913.211 1980.72,913.287 1981.75,1099.76 1982.79,1099.81 1983.83,1041.96 1984.86,1042.02 1985.9,993.641 1986.94,993.748 1987.97,1162.56 1989.01,1162.63 1990.05,964.247 1991.08,964.299 1992.12,1000.31 1993.15,1000.41 1994.19,1088.84 1995.23,1088.91 1996.26,627.385 1997.3,627.625 1998.34,1037.13 1999.37,1037.21 2000.41,1101.72 2001.44,1101.78 2002.48,757.402 2003.52,757.511 2004.55,872.744 2005.59,872.851 2006.63,1196.3 2007.66,1196.34 2008.7,895.641 2009.74,895.724 2010.77,1120.78 2011.81,1120.8 2012.84,635.277 2013.88,635.432 2014.92,1009.44 2015.95,1009.5 2016.99,1152.87 2018.03,1152.92 2019.06,1007.28 2020.1,1007.37 2021.13,916.824 2022.17,916.907 2023.21,955.501 2024.24,955.608 2025.28,991.205 2026.32,991.306 2027.35,1153.34 2028.39,1153.39 2029.43,989.294 2030.46,989.417 2031.5,866.523 2032.53,866.621 2033.57,1097.02 2034.61,1097.09 2035.64,916.536 2036.68,916.599 2037.72,985.179 2038.75,985.337 2039.79,1129.39 2040.82,1129.46 2041.86,896.255 2042.9,896.427 2043.93,1076.96 2044.97,1077.05 2046.01,1158.4 2047.04,1158.44 2048.08,839.734 2049.12,839.932 2050.15,1138.91 2051.19,1138.96 2052.22,842.079 2053.26,842.337 2054.3,943.59 2055.33,943.681 2056.37,941.075 2057.41,941.172 2058.44,885.407 2059.48,885.572 2060.51,1085.26 2061.55,1085.35 2062.59,1201.92 2063.62,1202 2064.66,1175.52 2065.7,1175.56 2066.73,939.253 2067.77,939.305 2068.81,1059.86 2069.84,1059.94 2070.88,1135.17 2071.91,1135.22 2072.95,619.857 2073.99,620.035 2075.02,1044.48 2076.06,1044.56 2077.1,1072.81 2078.13,1072.88 2079.17,1142.03 2080.2,1142.08 2081.24,1050.09 2082.28,1050.15 2083.31,790.487 2084.35,790.599 2085.39,1150.97 2086.42,1151.01 2087.46,1045.46 2088.5,1045.57 2089.53,1026.38 2090.57,1026.51 2091.6,737.8 2092.64,737.924 2093.68,1058.24 2094.71,1058.35 2095.75,758.807 2096.79,758.935 2097.82,954.728 2098.86,954.857 2099.89,940.529 2100.93,940.748 2101.97,665.333 2103,665.576 2104.04,960.091 2105.08,960.194 2106.11,968.962 2107.15,969.071 2108.19,1112.45 2109.22,1112.52 2110.26,1118.49 2111.29,1118.54 2112.33,1060.12 2113.37,1060.2 2114.4,1087.93 2115.44,1087.99 2116.48,970.656 2117.51,970.752 2118.55,748.577 2119.58,748.673 2120.62,982.192 2121.66,982.337 2122.69,1103.78 2123.73,1103.84 2124.77,912.727 2125.8,912.888 2126.84,1082.71 2127.88,1082.77 2128.91,1110.61 2129.95,1110.67 2130.98,849.469 2132.02,849.683 2133.06,1001.43 2134.09,1001.55 2135.13,787.075 2136.17,787.166 2137.2,1025.65 2138.24,1025.76 2139.27,264.915 2140.31,265.259 2141.35,1106.2 2142.38,1106.26 2143.42,965.606 2144.46,965.656 2145.49,1128.09 2146.53,1128.14 2147.57,1097.48 2148.6,1097.53 2149.64,1085.57 2150.67,1085.63 2151.71,1018.93 2152.75,1019.15 2153.78,1043.41 2154.82,1043.48 2155.86,817.622 2156.89,817.702 2157.93,452.006 2158.96,452.284 2160,724.893 2161.04,725.092 2162.07,1099.14 2163.11,1099.23 2164.15,1047.88 2165.18,1047.95 2166.22,1172.11 2167.26,1172.15 2168.29,1057.58 2169.33,1057.64 2170.36,930.099 2171.4,930.288 2172.44,1176.3 2173.47,1176.35 2174.51,1019.39 2175.55,1019.46 2176.58,1085.7 2177.62,1085.76 2178.65,932.139 2179.69,932.278 2180.73,1107.16 2181.76,1107.21 2182.8,1064.77 2183.84,1064.87 2184.87,1080.61 2185.91,1080.67 2186.95,909.906 2187.98,909.984 2189.02,1039.06 2190.05,1039.14 2191.09,1186.43 2192.13,1186.47 2193.16,1117.34 2194.2,1117.39 2195.24,1003.54 2196.27,1003.7 2197.31,985.943 2198.34,986.036 2199.38,838.567 2200.42,838.65 2201.45,961.924 2202.49,961.968 2203.53,1223.69 2204.56,1223.72 2205.6,968.031 2206.64,968.086 2207.67,959.197 2208.71,959.243 2209.74,831.102 2210.78,831.218 2211.82,1110.68 2212.85,1110.76 2213.89,680.863 2214.93,680.973 2215.96,948.745 2217,948.799 2218.03,995.209 2219.07,995.328 2220.11,835.322 2221.14,835.404 2222.18,811.822 2223.22,811.917 2224.25,920.994 2225.29,921.04 2226.33,1218.39 2227.36,1218.47 2228.4,933.389 2229.43,933.508 2230.47,1068.15 2231.51,1068.23 2232.54,591.97 2233.58,592.116 2234.62,1103.57 2235.65,1103.66 2236.69,893.077 2237.72,893.272 2238.76,1066.76 2239.8,1066.86 2240.83,1030.42 2241.87,1030.49 2242.91,986.849 2243.94,986.919 2244.98,1001.29 2246.02,1001.37 2247.05,969.044 2248.09,969.088 2249.12,855.501 2250.16,855.623 2251.2,1101.13 2252.23,1101.21 2253.27,969.956 2254.31,970.055 2255.34,1276.89 2256.38,1276.93 2257.41,767.06 2258.45,767.185 2259.49,643.367 2260.52,643.507 2261.56,1073.2 2262.6,1073.26 2263.63,983.699 2264.67,983.804 2265.71,1109.53 2266.74,1109.68 2267.78,946.706 2268.81,946.778 2269.85,804.406 2270.89,804.532 2271.92,800.742 2272.96,800.826 2274,840.985 2275.03,841.082 2276.07,1157.65 2277.1,1157.7 2278.14,1160.86 2279.18,1160.92 2280.21,1214.47 2281.25,1214.53 2282.29,1039.59 2283.32,1039.65 2284.36,971.008 2285.4,971.111 2286.43,1000.51 2287.47,1000.59 2288.5,839.516 2289.54,839.612 2290.58,839.709 "/>
<path clip-path="url(#clip140)" d="M228.998 198.898 L501.127 198.898 L501.127 95.2176 L228.998 95.2176  Z" fill="#ffffff" fill-rule="evenodd" fill-opacity="1"/>
<polyline clip-path="url(#clip140)" style="stroke:#000000; stroke-linecap:round; stroke-linejoin:round; stroke-width:4; stroke-opacity:1; fill:none" points="228.998,198.898 501.127,198.898 501.127,95.2176 228.998,95.2176 228.998,198.898 "/>
<polyline clip-path="url(#clip140)" style="stroke:#009af9; stroke-linecap:round; stroke-linejoin:round; stroke-width:4; stroke-opacity:1; fill:none" points="253.409,147.058 399.875,147.058 "/>
<path clip-path="url(#clip140)" d="M438.129 166.745 Q436.323 171.375 434.61 172.787 Q432.897 174.199 430.027 174.199 L426.624 174.199 L426.624 170.634 L429.124 170.634 Q430.883 170.634 431.855 169.8 Q432.828 168.967 434.008 165.865 L434.772 163.921 L424.286 138.412 L428.8 138.412 L436.902 158.689 L445.004 138.412 L449.517 138.412 L438.129 166.745 Z" fill="#000000" fill-rule="nonzero" fill-opacity="1" /><path clip-path="url(#clip140)" d="M456.809 160.402 L464.448 160.402 L464.448 134.037 L456.138 135.703 L456.138 131.444 L464.402 129.778 L469.077 129.778 L469.077 160.402 L476.716 160.402 L476.716 164.338 L456.809 164.338 L456.809 160.402 Z" fill="#000000" fill-rule="nonzero" fill-opacity="1" /></svg>
