<?xml version="1.0" encoding="utf-8"?>
<svg xmlns="http://www.w3.org/2000/svg" xmlns:xlink="http://www.w3.org/1999/xlink" width="600" height="400" viewBox="0 0 2400 1600">
<defs>
  <clipPath id="clip750">
    <rect x="0" y="0" width="2400" height="1600"/>
  </clipPath>
</defs>
<path clip-path="url(#clip750)" d="M0 1600 L2400 1600 L2400 0 L0 0  Z" fill="#ffffff" fill-rule="evenodd" fill-opacity="1"/>
<defs>
  <clipPath id="clip751">
    <rect x="480" y="0" width="1681" height="1600"/>
  </clipPath>
</defs>
<path clip-path="url(#clip750)" d="M186.274 1486.45 L2352.76 1486.45 L2352.76 47.2441 L186.274 47.2441  Z" fill="#ffffff" fill-rule="evenodd" fill-opacity="1"/>
<defs>
  <clipPath id="clip752">
    <rect x="186" y="47" width="2167" height="1440"/>
  </clipPath>
</defs>
<polyline clip-path="url(#clip752)" style="stroke:#000000; stroke-linecap:round; stroke-linejoin:round; stroke-width:2; stroke-opacity:0.1; fill:none" points="247.59,1486.45 247.59,47.2441 "/>
<polyline clip-path="url(#clip752)" style="stroke:#000000; stroke-linecap:round; stroke-linejoin:round; stroke-width:2; stroke-opacity:0.1; fill:none" points="758.552,1486.45 758.552,47.2441 "/>
<polyline clip-path="url(#clip752)" style="stroke:#000000; stroke-linecap:round; stroke-linejoin:round; stroke-width:2; stroke-opacity:0.1; fill:none" points="1269.51,1486.45 1269.51,47.2441 "/>
<polyline clip-path="url(#clip752)" style="stroke:#000000; stroke-linecap:round; stroke-linejoin:round; stroke-width:2; stroke-opacity:0.1; fill:none" points="1780.48,1486.45 1780.48,47.2441 "/>
<polyline clip-path="url(#clip752)" style="stroke:#000000; stroke-linecap:round; stroke-linejoin:round; stroke-width:2; stroke-opacity:0.1; fill:none" points="2291.44,1486.45 2291.44,47.2441 "/>
<polyline clip-path="url(#clip750)" style="stroke:#000000; stroke-linecap:round; stroke-linejoin:round; stroke-width:4; stroke-opacity:1; fill:none" points="186.274,1486.45 2352.76,1486.45 "/>
<polyline clip-path="url(#clip750)" style="stroke:#000000; stroke-linecap:round; stroke-linejoin:round; stroke-width:4; stroke-opacity:1; fill:none" points="247.59,1486.45 247.59,1467.55 "/>
<polyline clip-path="url(#clip750)" style="stroke:#000000; stroke-linecap:round; stroke-linejoin:round; stroke-width:4; stroke-opacity:1; fill:none" points="758.552,1486.45 758.552,1467.55 "/>
<polyline clip-path="url(#clip750)" style="stroke:#000000; stroke-linecap:round; stroke-linejoin:round; stroke-width:4; stroke-opacity:1; fill:none" points="1269.51,1486.45 1269.51,1467.55 "/>
<polyline clip-path="url(#clip750)" style="stroke:#000000; stroke-linecap:round; stroke-linejoin:round; stroke-width:4; stroke-opacity:1; fill:none" points="1780.48,1486.45 1780.48,1467.55 "/>
<polyline clip-path="url(#clip750)" style="stroke:#000000; stroke-linecap:round; stroke-linejoin:round; stroke-width:4; stroke-opacity:1; fill:none" points="2291.44,1486.45 2291.44,1467.55 "/>
<path clip-path="url(#clip750)" d="M247.59 1517.37 Q243.978 1517.37 242.15 1520.93 Q240.344 1524.47 240.344 1531.6 Q240.344 1538.71 242.15 1542.27 Q243.978 1545.82 247.59 1545.82 Q251.224 1545.82 253.029 1542.27 Q254.858 1538.71 254.858 1531.6 Q254.858 1524.47 253.029 1520.93 Q251.224 1517.37 247.59 1517.37 M247.59 1513.66 Q253.4 1513.66 256.455 1518.27 Q259.534 1522.85 259.534 1531.6 Q259.534 1540.33 256.455 1544.94 Q253.4 1549.52 247.59 1549.52 Q241.779 1549.52 238.701 1544.94 Q235.645 1540.33 235.645 1531.6 Q235.645 1522.85 238.701 1518.27 Q241.779 1513.66 247.59 1513.66 Z" fill="#000000" fill-rule="nonzero" fill-opacity="1" /><path clip-path="url(#clip750)" d="M718.171 1514.29 L736.527 1514.29 L736.527 1518.22 L722.453 1518.22 L722.453 1526.7 Q723.471 1526.35 724.49 1526.19 Q725.508 1526 726.527 1526 Q732.314 1526 735.694 1529.17 Q739.073 1532.34 739.073 1537.76 Q739.073 1543.34 735.601 1546.44 Q732.129 1549.52 725.809 1549.52 Q723.633 1549.52 721.365 1549.15 Q719.12 1548.78 716.712 1548.04 L716.712 1543.34 Q718.796 1544.47 721.018 1545.03 Q723.24 1545.58 725.717 1545.58 Q729.721 1545.58 732.059 1543.48 Q734.397 1541.37 734.397 1537.76 Q734.397 1534.15 732.059 1532.04 Q729.721 1529.94 725.717 1529.94 Q723.842 1529.94 721.967 1530.35 Q720.115 1530.77 718.171 1531.65 L718.171 1514.29 Z" fill="#000000" fill-rule="nonzero" fill-opacity="1" /><path clip-path="url(#clip750)" d="M758.286 1517.37 Q754.675 1517.37 752.846 1520.93 Q751.041 1524.47 751.041 1531.6 Q751.041 1538.71 752.846 1542.27 Q754.675 1545.82 758.286 1545.82 Q761.92 1545.82 763.726 1542.27 Q765.555 1538.71 765.555 1531.6 Q765.555 1524.47 763.726 1520.93 Q761.92 1517.37 758.286 1517.37 M758.286 1513.66 Q764.096 1513.66 767.152 1518.27 Q770.23 1522.85 770.23 1531.6 Q770.23 1540.33 767.152 1544.94 Q764.096 1549.52 758.286 1549.52 Q752.476 1549.52 749.397 1544.94 Q746.342 1540.33 746.342 1531.6 Q746.342 1522.85 749.397 1518.27 Q752.476 1513.66 758.286 1513.66 Z" fill="#000000" fill-rule="nonzero" fill-opacity="1" /><path clip-path="url(#clip750)" d="M788.448 1517.37 Q784.837 1517.37 783.008 1520.93 Q781.203 1524.47 781.203 1531.6 Q781.203 1538.71 783.008 1542.27 Q784.837 1545.82 788.448 1545.82 Q792.082 1545.82 793.888 1542.27 Q795.716 1538.71 795.716 1531.6 Q795.716 1524.47 793.888 1520.93 Q792.082 1517.37 788.448 1517.37 M788.448 1513.66 Q794.258 1513.66 797.314 1518.27 Q800.392 1522.85 800.392 1531.6 Q800.392 1540.33 797.314 1544.94 Q794.258 1549.52 788.448 1549.52 Q782.638 1549.52 779.559 1544.94 Q776.504 1540.33 776.504 1531.6 Q776.504 1522.85 779.559 1518.27 Q782.638 1513.66 788.448 1513.66 Z" fill="#000000" fill-rule="nonzero" fill-opacity="1" /><path clip-path="url(#clip750)" d="M1214.04 1544.91 L1221.68 1544.91 L1221.68 1518.55 L1213.37 1520.21 L1213.37 1515.95 L1221.63 1514.29 L1226.31 1514.29 L1226.31 1544.91 L1233.95 1544.91 L1233.95 1548.85 L1214.04 1548.85 L1214.04 1544.91 Z" fill="#000000" fill-rule="nonzero" fill-opacity="1" /><path clip-path="url(#clip750)" d="M1253.39 1517.37 Q1249.78 1517.37 1247.95 1520.93 Q1246.15 1524.47 1246.15 1531.6 Q1246.15 1538.71 1247.95 1542.27 Q1249.78 1545.82 1253.39 1545.82 Q1257.03 1545.82 1258.83 1542.27 Q1260.66 1538.71 1260.66 1531.6 Q1260.66 1524.47 1258.83 1520.93 Q1257.03 1517.37 1253.39 1517.37 M1253.39 1513.66 Q1259.2 1513.66 1262.26 1518.27 Q1265.34 1522.85 1265.34 1531.6 Q1265.34 1540.33 1262.26 1544.94 Q1259.2 1549.52 1253.39 1549.52 Q1247.58 1549.52 1244.5 1544.94 Q1241.45 1540.33 1241.45 1531.6 Q1241.45 1522.85 1244.5 1518.27 Q1247.58 1513.66 1253.39 1513.66 Z" fill="#000000" fill-rule="nonzero" fill-opacity="1" /><path clip-path="url(#clip750)" d="M1283.55 1517.37 Q1279.94 1517.37 1278.11 1520.93 Q1276.31 1524.47 1276.31 1531.6 Q1276.31 1538.71 1278.11 1542.27 Q1279.94 1545.82 1283.55 1545.82 Q1287.19 1545.82 1288.99 1542.27 Q1290.82 1538.71 1290.82 1531.6 Q1290.82 1524.47 1288.99 1520.93 Q1287.19 1517.37 1283.55 1517.37 M1283.55 1513.66 Q1289.36 1513.66 1292.42 1518.27 Q1295.5 1522.85 1295.5 1531.6 Q1295.5 1540.33 1292.42 1544.94 Q1289.36 1549.52 1283.55 1549.52 Q1277.74 1549.52 1274.67 1544.94 Q1271.61 1540.33 1271.61 1531.6 Q1271.61 1522.85 1274.67 1518.27 Q1277.74 1513.66 1283.55 1513.66 Z" fill="#000000" fill-rule="nonzero" fill-opacity="1" /><path clip-path="url(#clip750)" d="M1313.72 1517.37 Q1310.11 1517.37 1308.28 1520.93 Q1306.47 1524.47 1306.47 1531.6 Q1306.47 1538.71 1308.28 1542.27 Q1310.11 1545.82 1313.72 1545.82 Q1317.35 1545.82 1319.16 1542.27 Q1320.98 1538.71 1320.98 1531.6 Q1320.98 1524.47 1319.16 1520.93 Q1317.35 1517.37 1313.72 1517.37 M1313.72 1513.66 Q1319.53 1513.66 1322.58 1518.27 Q1325.66 1522.85 1325.66 1531.6 Q1325.66 1540.33 1322.58 1544.94 Q1319.53 1549.52 1313.72 1549.52 Q1307.91 1549.52 1304.83 1544.94 Q1301.77 1540.33 1301.77 1531.6 Q1301.77 1522.85 1304.83 1518.27 Q1307.91 1513.66 1313.72 1513.66 Z" fill="#000000" fill-rule="nonzero" fill-opacity="1" /><path clip-path="url(#clip750)" d="M1725 1544.91 L1732.64 1544.91 L1732.64 1518.55 L1724.33 1520.21 L1724.33 1515.95 L1732.6 1514.29 L1737.27 1514.29 L1737.27 1544.91 L1744.91 1544.91 L1744.91 1548.85 L1725 1548.85 L1725 1544.91 Z" fill="#000000" fill-rule="nonzero" fill-opacity="1" /><path clip-path="url(#clip750)" d="M1754.4 1514.29 L1772.76 1514.29 L1772.76 1518.22 L1758.68 1518.22 L1758.68 1526.7 Q1759.7 1526.35 1760.72 1526.19 Q1761.74 1526 1762.76 1526 Q1768.54 1526 1771.92 1529.17 Q1775.3 1532.34 1775.3 1537.76 Q1775.3 1543.34 1771.83 1546.44 Q1768.36 1549.52 1762.04 1549.52 Q1759.86 1549.52 1757.6 1549.15 Q1755.35 1548.78 1752.94 1548.04 L1752.94 1543.34 Q1755.03 1544.47 1757.25 1545.03 Q1759.47 1545.58 1761.95 1545.58 Q1765.95 1545.58 1768.29 1543.48 Q1770.63 1541.37 1770.63 1537.76 Q1770.63 1534.15 1768.29 1532.04 Q1765.95 1529.94 1761.95 1529.94 Q1760.07 1529.94 1758.2 1530.35 Q1756.35 1530.77 1754.4 1531.65 L1754.4 1514.29 Z" fill="#000000" fill-rule="nonzero" fill-opacity="1" /><path clip-path="url(#clip750)" d="M1794.52 1517.37 Q1790.91 1517.37 1789.08 1520.93 Q1787.27 1524.47 1787.27 1531.6 Q1787.27 1538.71 1789.08 1542.27 Q1790.91 1545.82 1794.52 1545.82 Q1798.15 1545.82 1799.96 1542.27 Q1801.79 1538.71 1801.79 1531.6 Q1801.79 1524.47 1799.96 1520.93 Q1798.15 1517.37 1794.52 1517.37 M1794.52 1513.66 Q1800.33 1513.66 1803.38 1518.27 Q1806.46 1522.85 1806.46 1531.6 Q1806.46 1540.33 1803.38 1544.94 Q1800.33 1549.52 1794.52 1549.52 Q1788.71 1549.52 1785.63 1544.94 Q1782.57 1540.33 1782.57 1531.6 Q1782.57 1522.85 1785.63 1518.27 Q1788.71 1513.66 1794.52 1513.66 Z" fill="#000000" fill-rule="nonzero" fill-opacity="1" /><path clip-path="url(#clip750)" d="M1824.68 1517.37 Q1821.07 1517.37 1819.24 1520.93 Q1817.43 1524.47 1817.43 1531.6 Q1817.43 1538.71 1819.24 1542.27 Q1821.07 1545.82 1824.68 1545.82 Q1828.31 1545.82 1830.12 1542.27 Q1831.95 1538.71 1831.95 1531.6 Q1831.95 1524.47 1830.12 1520.93 Q1828.31 1517.37 1824.68 1517.37 M1824.68 1513.66 Q1830.49 1513.66 1833.54 1518.27 Q1836.62 1522.85 1836.62 1531.6 Q1836.62 1540.33 1833.54 1544.94 Q1830.49 1549.52 1824.68 1549.52 Q1818.87 1549.52 1815.79 1544.94 Q1812.73 1540.33 1812.73 1531.6 Q1812.73 1522.85 1815.79 1518.27 Q1818.87 1513.66 1824.68 1513.66 Z" fill="#000000" fill-rule="nonzero" fill-opacity="1" /><path clip-path="url(#clip750)" d="M2240.05 1544.91 L2256.37 1544.91 L2256.37 1548.85 L2234.43 1548.85 L2234.43 1544.91 Q2237.09 1542.16 2241.67 1537.53 Q2246.28 1532.88 2247.46 1531.53 Q2249.7 1529.01 2250.58 1527.27 Q2251.49 1525.51 2251.49 1523.82 Q2251.49 1521.07 2249.54 1519.33 Q2247.62 1517.6 2244.52 1517.6 Q2242.32 1517.6 2239.87 1518.36 Q2237.44 1519.13 2234.66 1520.68 L2234.66 1515.95 Q2237.48 1514.82 2239.94 1514.24 Q2242.39 1513.66 2244.43 1513.66 Q2249.8 1513.66 2252.99 1516.35 Q2256.19 1519.03 2256.19 1523.52 Q2256.19 1525.65 2255.38 1527.57 Q2254.59 1529.47 2252.48 1532.07 Q2251.9 1532.74 2248.8 1535.95 Q2245.7 1539.15 2240.05 1544.91 Z" fill="#000000" fill-rule="nonzero" fill-opacity="1" /><path clip-path="url(#clip750)" d="M2276.19 1517.37 Q2272.57 1517.37 2270.75 1520.93 Q2268.94 1524.47 2268.94 1531.6 Q2268.94 1538.71 2270.75 1542.27 Q2272.57 1545.82 2276.19 1545.82 Q2279.82 1545.82 2281.63 1542.27 Q2283.45 1538.71 2283.45 1531.6 Q2283.45 1524.47 2281.63 1520.93 Q2279.82 1517.37 2276.19 1517.37 M2276.19 1513.66 Q2282 1513.66 2285.05 1518.27 Q2288.13 1522.85 2288.13 1531.6 Q2288.13 1540.33 2285.05 1544.94 Q2282 1549.52 2276.19 1549.52 Q2270.38 1549.52 2267.3 1544.94 Q2264.24 1540.33 2264.24 1531.6 Q2264.24 1522.85 2267.3 1518.27 Q2270.38 1513.66 2276.19 1513.66 Z" fill="#000000" fill-rule="nonzero" fill-opacity="1" /><path clip-path="url(#clip750)" d="M2306.35 1517.37 Q2302.74 1517.37 2300.91 1520.93 Q2299.1 1524.47 2299.1 1531.6 Q2299.1 1538.71 2300.91 1542.27 Q2302.74 1545.82 2306.35 1545.82 Q2309.98 1545.82 2311.79 1542.27 Q2313.62 1538.71 2313.62 1531.6 Q2313.62 1524.47 2311.79 1520.93 Q2309.98 1517.37 2306.35 1517.37 M2306.35 1513.66 Q2312.16 1513.66 2315.21 1518.27 Q2318.29 1522.85 2318.29 1531.6 Q2318.29 1540.33 2315.21 1544.94 Q2312.16 1549.52 2306.35 1549.52 Q2300.54 1549.52 2297.46 1544.94 Q2294.4 1540.33 2294.4 1531.6 Q2294.4 1522.85 2297.46 1518.27 Q2300.54 1513.66 2306.35 1513.66 Z" fill="#000000" fill-rule="nonzero" fill-opacity="1" /><path clip-path="url(#clip750)" d="M2336.51 1517.37 Q2332.9 1517.37 2331.07 1520.93 Q2329.26 1524.47 2329.26 1531.6 Q2329.26 1538.71 2331.07 1542.27 Q2332.9 1545.82 2336.51 1545.82 Q2340.14 1545.82 2341.95 1542.27 Q2343.78 1538.71 2343.78 1531.6 Q2343.78 1524.47 2341.95 1520.93 Q2340.14 1517.37 2336.51 1517.37 M2336.51 1513.66 Q2342.32 1513.66 2345.38 1518.27 Q2348.45 1522.85 2348.45 1531.6 Q2348.45 1540.33 2345.38 1544.94 Q2342.32 1549.52 2336.51 1549.52 Q2330.7 1549.52 2327.62 1544.94 Q2324.57 1540.33 2324.57 1531.6 Q2324.57 1522.85 2327.62 1518.27 Q2330.7 1513.66 2336.51 1513.66 Z" fill="#000000" fill-rule="nonzero" fill-opacity="1" /><polyline clip-path="url(#clip752)" style="stroke:#000000; stroke-linecap:round; stroke-linejoin:round; stroke-width:2; stroke-opacity:0.1; fill:none" points="186.274,1306.57 2352.76,1306.57 "/>
<polyline clip-path="url(#clip752)" style="stroke:#000000; stroke-linecap:round; stroke-linejoin:round; stroke-width:2; stroke-opacity:0.1; fill:none" points="186.274,1125.92 2352.76,1125.92 "/>
<polyline clip-path="url(#clip752)" style="stroke:#000000; stroke-linecap:round; stroke-linejoin:round; stroke-width:2; stroke-opacity:0.1; fill:none" points="186.274,945.258 2352.76,945.258 "/>
<polyline clip-path="url(#clip752)" style="stroke:#000000; stroke-linecap:round; stroke-linejoin:round; stroke-width:2; stroke-opacity:0.1; fill:none" points="186.274,764.601 2352.76,764.601 "/>
<polyline clip-path="url(#clip752)" style="stroke:#000000; stroke-linecap:round; stroke-linejoin:round; stroke-width:2; stroke-opacity:0.1; fill:none" points="186.274,583.945 2352.76,583.945 "/>
<polyline clip-path="url(#clip752)" style="stroke:#000000; stroke-linecap:round; stroke-linejoin:round; stroke-width:2; stroke-opacity:0.1; fill:none" points="186.274,403.288 2352.76,403.288 "/>
<polyline clip-path="url(#clip752)" style="stroke:#000000; stroke-linecap:round; stroke-linejoin:round; stroke-width:2; stroke-opacity:0.1; fill:none" points="186.274,222.631 2352.76,222.631 "/>
<polyline clip-path="url(#clip750)" style="stroke:#000000; stroke-linecap:round; stroke-linejoin:round; stroke-width:4; stroke-opacity:1; fill:none" points="186.274,1486.45 186.274,47.2441 "/>
<polyline clip-path="url(#clip750)" style="stroke:#000000; stroke-linecap:round; stroke-linejoin:round; stroke-width:4; stroke-opacity:1; fill:none" points="186.274,1306.57 205.172,1306.57 "/>
<polyline clip-path="url(#clip750)" style="stroke:#000000; stroke-linecap:round; stroke-linejoin:round; stroke-width:4; stroke-opacity:1; fill:none" points="186.274,1125.92 205.172,1125.92 "/>
<polyline clip-path="url(#clip750)" style="stroke:#000000; stroke-linecap:round; stroke-linejoin:round; stroke-width:4; stroke-opacity:1; fill:none" points="186.274,945.258 205.172,945.258 "/>
<polyline clip-path="url(#clip750)" style="stroke:#000000; stroke-linecap:round; stroke-linejoin:round; stroke-width:4; stroke-opacity:1; fill:none" points="186.274,764.601 205.172,764.601 "/>
<polyline clip-path="url(#clip750)" style="stroke:#000000; stroke-linecap:round; stroke-linejoin:round; stroke-width:4; stroke-opacity:1; fill:none" points="186.274,583.945 205.172,583.945 "/>
<polyline clip-path="url(#clip750)" style="stroke:#000000; stroke-linecap:round; stroke-linejoin:round; stroke-width:4; stroke-opacity:1; fill:none" points="186.274,403.288 205.172,403.288 "/>
<polyline clip-path="url(#clip750)" style="stroke:#000000; stroke-linecap:round; stroke-linejoin:round; stroke-width:4; stroke-opacity:1; fill:none" points="186.274,222.631 205.172,222.631 "/>
<path clip-path="url(#clip750)" d="M63.9319 1292.37 Q60.3208 1292.37 58.4921 1295.94 Q56.6865 1299.48 56.6865 1306.61 Q56.6865 1313.71 58.4921 1317.28 Q60.3208 1320.82 63.9319 1320.82 Q67.5661 1320.82 69.3717 1317.28 Q71.2004 1313.71 71.2004 1306.61 Q71.2004 1299.48 69.3717 1295.94 Q67.5661 1292.37 63.9319 1292.37 M63.9319 1288.67 Q69.742 1288.67 72.7976 1293.27 Q75.8763 1297.86 75.8763 1306.61 Q75.8763 1315.33 72.7976 1319.94 Q69.742 1324.52 63.9319 1324.52 Q58.1217 1324.52 55.043 1319.94 Q51.9875 1315.33 51.9875 1306.61 Q51.9875 1297.86 55.043 1293.27 Q58.1217 1288.67 63.9319 1288.67 Z" fill="#000000" fill-rule="nonzero" fill-opacity="1" /><path clip-path="url(#clip750)" d="M84.0938 1317.97 L88.978 1317.97 L88.978 1323.85 L84.0938 1323.85 L84.0938 1317.97 Z" fill="#000000" fill-rule="nonzero" fill-opacity="1" /><path clip-path="url(#clip750)" d="M109.163 1292.37 Q105.552 1292.37 103.723 1295.94 Q101.918 1299.48 101.918 1306.61 Q101.918 1313.71 103.723 1317.28 Q105.552 1320.82 109.163 1320.82 Q112.797 1320.82 114.603 1317.28 Q116.432 1313.71 116.432 1306.61 Q116.432 1299.48 114.603 1295.94 Q112.797 1292.37 109.163 1292.37 M109.163 1288.67 Q114.973 1288.67 118.029 1293.27 Q121.107 1297.86 121.107 1306.61 Q121.107 1315.33 118.029 1319.94 Q114.973 1324.52 109.163 1324.52 Q103.353 1324.52 100.274 1319.94 Q97.2187 1315.33 97.2187 1306.61 Q97.2187 1297.86 100.274 1293.27 Q103.353 1288.67 109.163 1288.67 Z" fill="#000000" fill-rule="nonzero" fill-opacity="1" /><path clip-path="url(#clip750)" d="M129.371 1289.29 L147.728 1289.29 L147.728 1293.23 L133.654 1293.23 L133.654 1301.7 Q134.672 1301.35 135.691 1301.19 Q136.709 1301.01 137.728 1301.01 Q143.515 1301.01 146.894 1304.18 Q150.274 1307.35 150.274 1312.76 Q150.274 1318.34 146.802 1321.44 Q143.33 1324.52 137.01 1324.52 Q134.834 1324.52 132.566 1324.15 Q130.32 1323.78 127.913 1323.04 L127.913 1318.34 Q129.996 1319.48 132.219 1320.03 Q134.441 1320.59 136.918 1320.59 Q140.922 1320.59 143.26 1318.48 Q145.598 1316.38 145.598 1312.76 Q145.598 1309.15 143.26 1307.05 Q140.922 1304.94 136.918 1304.94 Q135.043 1304.94 133.168 1305.36 Q131.316 1305.77 129.371 1306.65 L129.371 1289.29 Z" fill="#000000" fill-rule="nonzero" fill-opacity="1" /><path clip-path="url(#clip750)" d="M62.9365 1111.71 Q59.3254 1111.71 57.4967 1115.28 Q55.6912 1118.82 55.6912 1125.95 Q55.6912 1133.06 57.4967 1136.62 Q59.3254 1140.16 62.9365 1140.16 Q66.5707 1140.16 68.3763 1136.62 Q70.205 1133.06 70.205 1125.95 Q70.205 1118.82 68.3763 1115.28 Q66.5707 1111.71 62.9365 1111.71 M62.9365 1108.01 Q68.7467 1108.01 71.8022 1112.62 Q74.8809 1117.2 74.8809 1125.95 Q74.8809 1134.68 71.8022 1139.28 Q68.7467 1143.87 62.9365 1143.87 Q57.1264 1143.87 54.0477 1139.28 Q50.9921 1134.68 50.9921 1125.95 Q50.9921 1117.2 54.0477 1112.62 Q57.1264 1108.01 62.9365 1108.01 Z" fill="#000000" fill-rule="nonzero" fill-opacity="1" /><path clip-path="url(#clip750)" d="M83.0984 1137.32 L87.9827 1137.32 L87.9827 1143.2 L83.0984 1143.2 L83.0984 1137.32 Z" fill="#000000" fill-rule="nonzero" fill-opacity="1" /><path clip-path="url(#clip750)" d="M98.978 1139.26 L106.617 1139.26 L106.617 1112.89 L98.3067 1114.56 L98.3067 1110.3 L106.571 1108.64 L111.246 1108.64 L111.246 1139.26 L118.885 1139.26 L118.885 1143.2 L98.978 1143.2 L98.978 1139.26 Z" fill="#000000" fill-rule="nonzero" fill-opacity="1" /><path clip-path="url(#clip750)" d="M138.33 1111.71 Q134.719 1111.71 132.89 1115.28 Q131.084 1118.82 131.084 1125.95 Q131.084 1133.06 132.89 1136.62 Q134.719 1140.16 138.33 1140.16 Q141.964 1140.16 143.769 1136.62 Q145.598 1133.06 145.598 1125.95 Q145.598 1118.82 143.769 1115.28 Q141.964 1111.71 138.33 1111.71 M138.33 1108.01 Q144.14 1108.01 147.195 1112.62 Q150.274 1117.2 150.274 1125.95 Q150.274 1134.68 147.195 1139.28 Q144.14 1143.87 138.33 1143.87 Q132.519 1143.87 129.441 1139.28 Q126.385 1134.68 126.385 1125.95 Q126.385 1117.2 129.441 1112.62 Q132.519 1108.01 138.33 1108.01 Z" fill="#000000" fill-rule="nonzero" fill-opacity="1" /><path clip-path="url(#clip750)" d="M63.9319 931.057 Q60.3208 931.057 58.4921 934.622 Q56.6865 938.163 56.6865 945.293 Q56.6865 952.4 58.4921 955.964 Q60.3208 959.506 63.9319 959.506 Q67.5661 959.506 69.3717 955.964 Q71.2004 952.4 71.2004 945.293 Q71.2004 938.163 69.3717 934.622 Q67.5661 931.057 63.9319 931.057 M63.9319 927.353 Q69.742 927.353 72.7976 931.96 Q75.8763 936.543 75.8763 945.293 Q75.8763 954.02 72.7976 958.626 Q69.742 963.21 63.9319 963.21 Q58.1217 963.21 55.043 958.626 Q51.9875 954.02 51.9875 945.293 Q51.9875 936.543 55.043 931.96 Q58.1217 927.353 63.9319 927.353 Z" fill="#000000" fill-rule="nonzero" fill-opacity="1" /><path clip-path="url(#clip750)" d="M84.0938 956.659 L88.978 956.659 L88.978 962.538 L84.0938 962.538 L84.0938 956.659 Z" fill="#000000" fill-rule="nonzero" fill-opacity="1" /><path clip-path="url(#clip750)" d="M99.9733 958.603 L107.612 958.603 L107.612 932.238 L99.3021 933.904 L99.3021 929.645 L107.566 927.978 L112.242 927.978 L112.242 958.603 L119.881 958.603 L119.881 962.538 L99.9733 962.538 L99.9733 958.603 Z" fill="#000000" fill-rule="nonzero" fill-opacity="1" /><path clip-path="url(#clip750)" d="M129.371 927.978 L147.728 927.978 L147.728 931.914 L133.654 931.914 L133.654 940.386 Q134.672 940.038 135.691 939.876 Q136.709 939.691 137.728 939.691 Q143.515 939.691 146.894 942.863 Q150.274 946.034 150.274 951.45 Q150.274 957.029 146.802 960.131 Q143.33 963.21 137.01 963.21 Q134.834 963.21 132.566 962.839 Q130.32 962.469 127.913 961.728 L127.913 957.029 Q129.996 958.163 132.219 958.719 Q134.441 959.274 136.918 959.274 Q140.922 959.274 143.26 957.168 Q145.598 955.062 145.598 951.45 Q145.598 947.839 143.26 945.733 Q140.922 943.626 136.918 943.626 Q135.043 943.626 133.168 944.043 Q131.316 944.46 129.371 945.339 L129.371 927.978 Z" fill="#000000" fill-rule="nonzero" fill-opacity="1" /><path clip-path="url(#clip750)" d="M62.9365 750.4 Q59.3254 750.4 57.4967 753.965 Q55.6912 757.507 55.6912 764.636 Q55.6912 771.743 57.4967 775.307 Q59.3254 778.849 62.9365 778.849 Q66.5707 778.849 68.3763 775.307 Q70.205 771.743 70.205 764.636 Q70.205 757.507 68.3763 753.965 Q66.5707 750.4 62.9365 750.4 M62.9365 746.696 Q68.7467 746.696 71.8022 751.303 Q74.8809 755.886 74.8809 764.636 Q74.8809 773.363 71.8022 777.969 Q68.7467 782.553 62.9365 782.553 Q57.1264 782.553 54.0477 777.969 Q50.9921 773.363 50.9921 764.636 Q50.9921 755.886 54.0477 751.303 Q57.1264 746.696 62.9365 746.696 Z" fill="#000000" fill-rule="nonzero" fill-opacity="1" /><path clip-path="url(#clip750)" d="M83.0984 776.002 L87.9827 776.002 L87.9827 781.881 L83.0984 781.881 L83.0984 776.002 Z" fill="#000000" fill-rule="nonzero" fill-opacity="1" /><path clip-path="url(#clip750)" d="M102.196 777.946 L118.515 777.946 L118.515 781.881 L96.5706 781.881 L96.5706 777.946 Q99.2326 775.192 103.816 770.562 Q108.422 765.909 109.603 764.567 Q111.848 762.044 112.728 760.308 Q113.631 758.548 113.631 756.858 Q113.631 754.104 111.686 752.368 Q109.765 750.632 106.663 750.632 Q104.464 750.632 102.01 751.396 Q99.5798 752.159 96.8021 753.71 L96.8021 748.988 Q99.6261 747.854 102.08 747.275 Q104.534 746.696 106.571 746.696 Q111.941 746.696 115.135 749.382 Q118.33 752.067 118.33 756.558 Q118.33 758.687 117.52 760.608 Q116.733 762.507 114.626 765.099 Q114.047 765.77 110.946 768.988 Q107.844 772.182 102.196 777.946 Z" fill="#000000" fill-rule="nonzero" fill-opacity="1" /><path clip-path="url(#clip750)" d="M138.33 750.4 Q134.719 750.4 132.89 753.965 Q131.084 757.507 131.084 764.636 Q131.084 771.743 132.89 775.307 Q134.719 778.849 138.33 778.849 Q141.964 778.849 143.769 775.307 Q145.598 771.743 145.598 764.636 Q145.598 757.507 143.769 753.965 Q141.964 750.4 138.33 750.4 M138.33 746.696 Q144.14 746.696 147.195 751.303 Q150.274 755.886 150.274 764.636 Q150.274 773.363 147.195 777.969 Q144.14 782.553 138.33 782.553 Q132.519 782.553 129.441 777.969 Q126.385 773.363 126.385 764.636 Q126.385 755.886 129.441 751.303 Q132.519 746.696 138.33 746.696 Z" fill="#000000" fill-rule="nonzero" fill-opacity="1" /><path clip-path="url(#clip750)" d="M63.9319 569.743 Q60.3208 569.743 58.4921 573.308 Q56.6865 576.85 56.6865 583.979 Q56.6865 591.086 58.4921 594.651 Q60.3208 598.192 63.9319 598.192 Q67.5661 598.192 69.3717 594.651 Q71.2004 591.086 71.2004 583.979 Q71.2004 576.85 69.3717 573.308 Q67.5661 569.743 63.9319 569.743 M63.9319 566.04 Q69.742 566.04 72.7976 570.646 Q75.8763 575.229 75.8763 583.979 Q75.8763 592.706 72.7976 597.313 Q69.742 601.896 63.9319 601.896 Q58.1217 601.896 55.043 597.313 Q51.9875 592.706 51.9875 583.979 Q51.9875 575.229 55.043 570.646 Q58.1217 566.04 63.9319 566.04 Z" fill="#000000" fill-rule="nonzero" fill-opacity="1" /><path clip-path="url(#clip750)" d="M84.0938 595.345 L88.978 595.345 L88.978 601.225 L84.0938 601.225 L84.0938 595.345 Z" fill="#000000" fill-rule="nonzero" fill-opacity="1" /><path clip-path="url(#clip750)" d="M103.191 597.289 L119.51 597.289 L119.51 601.225 L97.566 601.225 L97.566 597.289 Q100.228 594.535 104.811 589.905 Q109.418 585.252 110.598 583.91 Q112.844 581.387 113.723 579.651 Q114.626 577.891 114.626 576.202 Q114.626 573.447 112.682 571.711 Q110.76 569.975 107.658 569.975 Q105.459 569.975 103.006 570.739 Q100.575 571.502 97.7974 573.053 L97.7974 568.331 Q100.621 567.197 103.075 566.618 Q105.529 566.04 107.566 566.04 Q112.936 566.04 116.131 568.725 Q119.325 571.41 119.325 575.901 Q119.325 578.03 118.515 579.952 Q117.728 581.85 115.621 584.442 Q115.043 585.114 111.941 588.331 Q108.839 591.526 103.191 597.289 Z" fill="#000000" fill-rule="nonzero" fill-opacity="1" /><path clip-path="url(#clip750)" d="M129.371 566.665 L147.728 566.665 L147.728 570.6 L133.654 570.6 L133.654 579.072 Q134.672 578.725 135.691 578.563 Q136.709 578.377 137.728 578.377 Q143.515 578.377 146.894 581.549 Q150.274 584.72 150.274 590.137 Q150.274 595.715 146.802 598.817 Q143.33 601.896 137.01 601.896 Q134.834 601.896 132.566 601.525 Q130.32 601.155 127.913 600.414 L127.913 595.715 Q129.996 596.85 132.219 597.405 Q134.441 597.961 136.918 597.961 Q140.922 597.961 143.26 595.854 Q145.598 593.748 145.598 590.137 Q145.598 586.526 143.26 584.419 Q140.922 582.313 136.918 582.313 Q135.043 582.313 133.168 582.729 Q131.316 583.146 129.371 584.026 L129.371 566.665 Z" fill="#000000" fill-rule="nonzero" fill-opacity="1" /><path clip-path="url(#clip750)" d="M62.9365 389.086 Q59.3254 389.086 57.4967 392.651 Q55.6912 396.193 55.6912 403.322 Q55.6912 410.429 57.4967 413.994 Q59.3254 417.535 62.9365 417.535 Q66.5707 417.535 68.3763 413.994 Q70.205 410.429 70.205 403.322 Q70.205 396.193 68.3763 392.651 Q66.5707 389.086 62.9365 389.086 M62.9365 385.383 Q68.7467 385.383 71.8022 389.989 Q74.8809 394.572 74.8809 403.322 Q74.8809 412.049 71.8022 416.656 Q68.7467 421.239 62.9365 421.239 Q57.1264 421.239 54.0477 416.656 Q50.9921 412.049 50.9921 403.322 Q50.9921 394.572 54.0477 389.989 Q57.1264 385.383 62.9365 385.383 Z" fill="#000000" fill-rule="nonzero" fill-opacity="1" /><path clip-path="url(#clip750)" d="M83.0984 414.688 L87.9827 414.688 L87.9827 420.568 L83.0984 420.568 L83.0984 414.688 Z" fill="#000000" fill-rule="nonzero" fill-opacity="1" /><path clip-path="url(#clip750)" d="M112.334 401.933 Q115.691 402.651 117.566 404.92 Q119.464 407.188 119.464 410.521 Q119.464 415.637 115.945 418.438 Q112.427 421.239 105.946 421.239 Q103.77 421.239 101.455 420.799 Q99.1632 420.382 96.7095 419.526 L96.7095 415.012 Q98.6539 416.146 100.969 416.725 Q103.284 417.304 105.807 417.304 Q110.205 417.304 112.496 415.568 Q114.811 413.832 114.811 410.521 Q114.811 407.466 112.658 405.753 Q110.529 404.017 106.709 404.017 L102.682 404.017 L102.682 400.174 L106.895 400.174 Q110.344 400.174 112.172 398.809 Q114.001 397.42 114.001 394.827 Q114.001 392.165 112.103 390.753 Q110.228 389.318 106.709 389.318 Q104.788 389.318 102.589 389.734 Q100.39 390.151 97.7511 391.031 L97.7511 386.864 Q100.413 386.123 102.728 385.753 Q105.066 385.383 107.126 385.383 Q112.45 385.383 115.552 387.813 Q118.654 390.221 118.654 394.341 Q118.654 397.211 117.01 399.202 Q115.367 401.17 112.334 401.933 Z" fill="#000000" fill-rule="nonzero" fill-opacity="1" /><path clip-path="url(#clip750)" d="M138.33 389.086 Q134.719 389.086 132.89 392.651 Q131.084 396.193 131.084 403.322 Q131.084 410.429 132.89 413.994 Q134.719 417.535 138.33 417.535 Q141.964 417.535 143.769 413.994 Q145.598 410.429 145.598 403.322 Q145.598 396.193 143.769 392.651 Q141.964 389.086 138.33 389.086 M138.33 385.383 Q144.14 385.383 147.195 389.989 Q150.274 394.572 150.274 403.322 Q150.274 412.049 147.195 416.656 Q144.14 421.239 138.33 421.239 Q132.519 421.239 129.441 416.656 Q126.385 412.049 126.385 403.322 Q126.385 394.572 129.441 389.989 Q132.519 385.383 138.33 385.383 Z" fill="#000000" fill-rule="nonzero" fill-opacity="1" /><path clip-path="url(#clip750)" d="M63.9319 208.429 Q60.3208 208.429 58.4921 211.994 Q56.6865 215.536 56.6865 222.665 Q56.6865 229.772 58.4921 233.337 Q60.3208 236.878 63.9319 236.878 Q67.5661 236.878 69.3717 233.337 Q71.2004 229.772 71.2004 222.665 Q71.2004 215.536 69.3717 211.994 Q67.5661 208.429 63.9319 208.429 M63.9319 204.726 Q69.742 204.726 72.7976 209.332 Q75.8763 213.916 75.8763 222.665 Q75.8763 231.392 72.7976 235.999 Q69.742 240.582 63.9319 240.582 Q58.1217 240.582 55.043 235.999 Q51.9875 231.392 51.9875 222.665 Q51.9875 213.916 55.043 209.332 Q58.1217 204.726 63.9319 204.726 Z" fill="#000000" fill-rule="nonzero" fill-opacity="1" /><path clip-path="url(#clip750)" d="M84.0938 234.031 L88.978 234.031 L88.978 239.911 L84.0938 239.911 L84.0938 234.031 Z" fill="#000000" fill-rule="nonzero" fill-opacity="1" /><path clip-path="url(#clip750)" d="M113.33 221.277 Q116.686 221.994 118.561 224.263 Q120.459 226.531 120.459 229.865 Q120.459 234.98 116.941 237.781 Q113.422 240.582 106.941 240.582 Q104.765 240.582 102.45 240.142 Q100.159 239.726 97.7048 238.869 L97.7048 234.355 Q99.6493 235.489 101.964 236.068 Q104.279 236.647 106.802 236.647 Q111.2 236.647 113.492 234.911 Q115.807 233.175 115.807 229.865 Q115.807 226.809 113.654 225.096 Q111.524 223.36 107.705 223.36 L103.677 223.36 L103.677 219.517 L107.89 219.517 Q111.339 219.517 113.168 218.152 Q114.996 216.763 114.996 214.17 Q114.996 211.508 113.098 210.096 Q111.223 208.661 107.705 208.661 Q105.783 208.661 103.584 209.078 Q101.385 209.494 98.7465 210.374 L98.7465 206.207 Q101.409 205.466 103.723 205.096 Q106.061 204.726 108.121 204.726 Q113.445 204.726 116.547 207.156 Q119.649 209.564 119.649 213.684 Q119.649 216.554 118.006 218.545 Q116.362 220.513 113.33 221.277 Z" fill="#000000" fill-rule="nonzero" fill-opacity="1" /><path clip-path="url(#clip750)" d="M129.371 205.351 L147.728 205.351 L147.728 209.286 L133.654 209.286 L133.654 217.758 Q134.672 217.411 135.691 217.249 Q136.709 217.064 137.728 217.064 Q143.515 217.064 146.894 220.235 Q150.274 223.406 150.274 228.823 Q150.274 234.402 146.802 237.503 Q143.33 240.582 137.01 240.582 Q134.834 240.582 132.566 240.212 Q130.32 239.841 127.913 239.101 L127.913 234.402 Q129.996 235.536 132.219 236.091 Q134.441 236.647 136.918 236.647 Q140.922 236.647 143.26 234.54 Q145.598 232.434 145.598 228.823 Q145.598 225.212 143.26 223.105 Q140.922 220.999 136.918 220.999 Q135.043 220.999 133.168 221.415 Q131.316 221.832 129.371 222.712 L129.371 205.351 Z" fill="#000000" fill-rule="nonzero" fill-opacity="1" /><polyline clip-path="url(#clip752)" style="stroke:#009af9; stroke-linecap:round; stroke-linejoin:round; stroke-width:4; stroke-opacity:1; fill:none" points="247.59,87.9763 248.611,97.785 249.633,107.499 250.655,117.118 251.677,126.645 252.699,136.079 253.721,145.423 254.743,154.676 255.765,163.84 256.787,172.917 257.809,181.905 258.831,190.808 259.853,199.625 260.875,208.358 261.896,217.007 262.918,225.574 263.94,234.059 264.962,242.464 265.984,250.788 267.006,259.033 268.028,267.2 269.05,275.29 270.072,283.303 271.094,291.24 272.116,299.103 273.138,306.892 274.16,314.607 275.182,322.25 276.203,329.821 277.225,337.321 278.247,344.752 279.269,352.113 280.291,359.405 281.313,366.629 282.335,373.787 283.357,380.878 284.379,387.903 285.401,394.864 286.423,401.76 287.445,408.592 288.467,415.362 289.488,422.07 290.51,428.716 291.532,435.302 292.554,441.827 293.576,448.293 294.598,454.699 295.62,461.048 296.642,467.339 297.664,473.573 298.686,479.751 299.708,485.873 300.73,491.94 301.752,497.953 302.774,503.911 303.795,509.816 304.817,515.669 305.839,521.469 306.861,527.218 307.883,532.915 308.905,538.562 309.927,544.159 310.949,549.706 311.971,555.205 312.993,560.655 314.015,566.057 315.037,571.412 316.059,576.72 317.08,581.981 318.102,587.197 319.124,592.367 320.146,597.493 321.168,602.574 322.19,607.611 323.212,612.605 324.234,617.555 325.256,622.464 326.278,627.329 327.3,632.154 328.322,636.937 329.344,641.679 330.365,646.381 331.387,651.043 332.409,655.666 333.431,660.249 334.453,664.794 335.475,669.3 336.497,673.769 337.519,678.2 338.541,682.594 339.563,686.952 340.585,691.273 341.607,695.558 342.629,699.807 343.651,704.022 344.672,708.201 345.694,712.346 346.716,716.457 347.738,720.534 348.76,724.578 349.782,728.589 350.804,732.567 351.826,736.512 352.848,740.426 353.87,744.308 354.892,748.158 355.914,751.977 356.936,755.766 357.957,759.524 358.979,763.252 360.001,766.95 361.023,770.619 362.045,774.258 363.067,777.868 364.089,781.45 365.111,785.004 366.133,788.529 367.155,792.027 368.177,795.497 369.199,798.939 370.221,802.355 371.243,805.745 372.264,809.107 373.286,812.444 374.308,815.755 375.33,819.04 376.352,822.299 377.374,825.534 378.396,828.743 379.418,831.928 380.44,835.089 381.462,838.226 382.484,841.338 383.506,844.427 384.528,847.492 385.549,850.534 386.571,853.554 387.593,856.55 388.615,859.524 389.637,862.475 390.659,865.405 391.681,868.312 392.703,871.198 393.725,874.062 394.747,876.905 395.769,879.727 396.791,882.528 397.813,885.308 398.834,888.068 399.856,890.808 400.878,893.528 401.9,896.227 402.922,898.907 403.944,901.568 404.966,904.209 405.988,906.831 407.01,909.434 408.032,912.018 409.054,914.584 410.076,917.131 411.098,919.66 412.12,922.171 413.141,924.663 414.163,927.139 415.185,929.596 416.207,932.036 417.229,934.459 418.251,936.865 419.273,939.254 420.295,941.626 421.317,943.981 422.339,946.32 423.361,948.642 424.383,950.949 425.405,953.239 426.426,955.513 427.448,957.772 428.47,960.015 429.492,962.243 430.514,964.455 431.536,966.652 432.558,968.834 433.58,971.001 434.602,973.154 435.624,975.291 436.646,977.415 437.668,979.524 438.69,981.618 439.712,983.699 440.733,985.765 441.755,987.818 442.777,989.857 443.799,991.882 444.821,993.893 445.843,995.892 446.865,997.877 447.887,999.849 448.909,1001.81 449.931,1003.75 450.953,1005.69 451.975,1007.61 452.997,1009.51 454.018,1011.41 455.04,1013.29 456.062,1015.16 457.084,1017.02 458.106,1018.87 459.128,1020.7 460.15,1022.53 461.172,1024.34 462.194,1026.14 463.216,1027.92 464.238,1029.7 465.26,1031.47 466.282,1033.22 467.303,1034.96 468.325,1036.69 469.347,1038.41 470.369,1040.12 471.391,1041.82 472.413,1043.51 473.435,1045.19 474.457,1046.85 475.479,1048.51 476.501,1050.16 477.523,1051.79 478.545,1053.42 479.567,1055.04 480.589,1056.64 481.61,1058.24 482.632,1059.82 483.654,1061.4 484.676,1062.97 485.698,1064.52 486.72,1066.07 487.742,1067.61 488.764,1069.14 489.786,1070.66 490.808,1072.17 491.83,1073.67 492.852,1075.16 493.874,1076.64 494.895,1078.12 495.917,1079.58 496.939,1081.04 497.961,1082.49 498.983,1083.92 500.005,1085.36 501.027,1086.78 502.049,1088.19 503.071,1089.6 504.093,1090.99 505.115,1092.38 506.137,1093.76 507.159,1095.14 508.181,1096.5 509.202,1097.86 510.224,1099.21 511.246,1100.55 512.268,1101.88 513.29,1103.2 514.312,1104.52 515.334,1105.83 516.356,1107.13 517.378,1108.43 518.4,1109.72 519.422,1111 520.444,1112.27 521.466,1113.54 522.487,1114.79 523.509,1116.05 524.531,1117.29 525.553,1118.53 526.575,1119.76 527.597,1120.98 528.619,1122.2 529.641,1123.41 530.663,1124.61 531.685,1125.81 532.707,1126.99 533.729,1128.18 534.751,1129.35 535.772,1130.52 536.794,1131.69 537.816,1132.84 538.838,1133.99 539.86,1135.14 540.882,1136.28 541.904,1137.41 542.926,1138.53 543.948,1139.65 544.97,1140.77 545.992,1141.87 547.014,1142.97 548.036,1144.07 549.058,1145.16 550.079,1146.24 551.101,1147.32 552.123,1148.39 553.145,1149.46 554.167,1150.52 555.189,1151.57 556.211,1152.62 557.233,1153.67 558.255,1154.7 559.277,1155.74 560.299,1156.76 561.321,1157.78 562.343,1158.8 563.364,1159.81 564.386,1160.82 565.408,1161.82 566.43,1162.81 567.452,1163.8 568.474,1164.79 569.496,1165.77 570.518,1166.74 571.54,1167.71 572.562,1168.68 573.584,1169.64 574.606,1170.59 575.628,1171.54 576.65,1172.48 577.671,1173.42 578.693,1174.36 579.715,1175.29 580.737,1176.22 581.759,1177.14 582.781,1178.05 583.803,1178.96 584.825,1179.87 585.847,1180.77 586.869,1181.67 587.891,1182.57 588.913,1183.45 589.935,1184.34 590.956,1185.22 591.978,1186.09 593,1186.97 594.022,1187.83 595.044,1188.7 596.066,1189.55 597.088,1190.41 598.11,1191.26 599.132,1192.1 600.154,1192.95 601.176,1193.78 602.198,1194.62 603.22,1195.45 604.242,1196.27 605.263,1197.09 606.285,1197.91 607.307,1198.72 608.329,1199.53 609.351,1200.34 610.373,1201.14 611.395,1201.94 612.417,1202.73 613.439,1203.52 614.461,1204.31 615.483,1205.09 616.505,1205.87 617.527,1206.65 618.548,1207.42 619.57,1208.19 620.592,1208.95 621.614,1209.71 622.636,1210.47 623.658,1211.22 624.68,1211.97 625.702,1212.72 626.724,1213.46 627.746,1214.2 628.768,1214.93 629.79,1215.67 630.812,1216.4 631.833,1217.12 632.855,1217.84 633.877,1218.56 634.899,1219.28 635.921,1219.99 636.943,1220.7 637.965,1221.41 638.987,1222.11 640.009,1222.81 641.031,1223.5 642.053,1224.2 643.075,1224.89 644.097,1225.57 645.119,1226.26 646.14,1226.94 647.162,1227.62 648.184,1228.29 649.206,1228.96 650.228,1229.63 651.25,1230.3 652.272,1230.96 653.294,1231.62 654.316,1232.27 655.338,1232.93 656.36,1233.58 657.382,1234.22 658.404,1234.87 659.425,1235.51 660.447,1236.15 661.469,1236.79 662.491,1237.42 663.513,1238.05 664.535,1238.68 665.557,1239.3 666.579,1239.93 667.601,1240.55 668.623,1241.16 669.645,1241.78 670.667,1242.39 671.689,1243 672.711,1243.6 673.732,1244.21 674.754,1244.81 675.776,1245.41 676.798,1246 677.82,1246.6 678.842,1247.19 679.864,1247.78 680.886,1248.36 681.908,1248.95 682.93,1249.53 683.952,1250.11 684.974,1250.68 685.996,1251.25 687.017,1251.83 688.039,1252.39 689.061,1252.96 690.083,1253.52 691.105,1254.09 692.127,1254.64 693.149,1255.2 694.171,1255.76 695.193,1256.31 696.215,1256.86 697.237,1257.41 698.259,1257.95 699.281,1258.49 700.302,1259.03 701.324,1259.57 702.346,1260.11 703.368,1260.64 704.39,1261.17 705.412,1261.7 706.434,1262.23 707.456,1262.76 708.478,1263.28 709.5,1263.8 710.522,1264.32 711.544,1264.84 712.566,1265.35 713.588,1265.86 714.609,1266.37 715.631,1266.88 716.653,1267.39 717.675,1267.89 718.697,1268.4 719.719,1268.9 720.741,1269.39 721.763,1269.89 722.785,1270.39 723.807,1270.88 724.829,1271.37 725.851,1271.86 726.873,1272.34 727.894,1272.83 728.916,1273.31 729.938,1273.79 730.96,1274.27 731.982,1274.75 733.004,1275.22 734.026,1275.7 735.048,1276.17 736.07,1276.64 737.092,1277.1 738.114,1277.57 739.136,1278.03 740.158,1278.5 741.18,1278.96 742.201,1279.41 743.223,1279.87 744.245,1280.33 745.267,1280.78 746.289,1281.23 747.311,1281.68 748.333,1282.13 749.355,1282.58 750.377,1283.02 751.399,1283.46 752.421,1283.9 753.443,1284.34 754.465,1284.78 755.486,1285.22 756.508,1285.65 757.53,1286.09 758.552,1286.52 759.574,1286.95 760.596,1287.37 761.618,1287.8 762.64,1288.23 763.662,1288.65 764.684,1289.07 765.706,1289.49 766.728,1289.91 767.75,1290.33 768.771,1290.74 769.793,1291.15 770.815,1291.57 771.837,1291.98 772.859,1292.39 773.881,1292.79 774.903,1293.2 775.925,1293.61 776.947,1294.01 777.969,1294.41 778.991,1294.81 780.013,1295.21 781.035,1295.61 782.057,1296 783.078,1296.4 784.1,1296.79 785.122,1297.18 786.144,1297.57 787.166,1297.96 788.188,1298.35 789.21,1298.73 790.232,1299.12 791.254,1299.5 792.276,1299.88 793.298,1300.26 794.32,1300.64 795.342,1301.02 796.363,1301.4 797.385,1301.77 798.407,1302.14 799.429,1302.52 800.451,1302.89 801.473,1303.26 802.495,1303.62 803.517,1303.99 804.539,1304.36 805.561,1304.72 806.583,1305.08 807.605,1305.45 808.627,1305.81 809.649,1306.17 810.67,1306.52 811.692,1306.88 812.714,1307.24 813.736,1307.59 814.758,1307.94 815.78,1308.29 816.802,1308.65 817.824,1308.99 818.846,1309.34 819.868,1309.69 820.89,1310.03 821.912,1310.38 822.934,1310.72 823.955,1311.06 824.977,1311.41 825.999,1311.75 827.021,1312.08 828.043,1312.42 829.065,1312.76 830.087,1313.09 831.109,1313.43 832.131,1313.76 833.153,1314.09 834.175,1314.42 835.197,1314.75 836.219,1315.08 837.24,1315.41 838.262,1315.73 839.284,1316.06 840.306,1316.38 841.328,1316.7 842.35,1317.03 843.372,1317.35 844.394,1317.67 845.416,1317.98 846.438,1318.3 847.46,1318.62 848.482,1318.93 849.504,1319.25 850.526,1319.56 851.547,1319.87 852.569,1320.18 853.591,1320.49 854.613,1320.8 855.635,1321.11 856.657,1321.42 857.679,1321.72 858.701,1322.03 859.723,1322.33 860.745,1322.64 861.767,1322.94 862.789,1323.24 863.811,1323.54 864.832,1323.84 865.854,1324.14 866.876,1324.43 867.898,1324.73 868.92,1325.02 869.942,1325.32 870.964,1325.61 871.986,1325.9 873.008,1326.2 874.03,1326.49 875.052,1326.78 876.074,1327.06 877.096,1327.35 878.118,1327.64 879.139,1327.92 880.161,1328.21 881.183,1328.49 882.205,1328.78 883.227,1329.06 884.249,1329.34 885.271,1329.62 886.293,1329.9 887.315,1330.18 888.337,1330.46 889.359,1330.73 890.381,1331.01 891.403,1331.28 892.424,1331.56 893.446,1331.83 894.468,1332.1 895.49,1332.37 896.512,1332.65 897.534,1332.92 898.556,1333.18 899.578,1333.45 900.6,1333.72 901.622,1333.99 902.644,1334.25 903.666,1334.52 904.688,1334.78 905.71,1335.04 906.731,1335.31 907.753,1335.57 908.775,1335.83 909.797,1336.09 910.819,1336.35 911.841,1336.61 912.863,1336.86 913.885,1337.12 914.907,1337.38 915.929,1337.63 916.951,1337.89 917.973,1338.14 918.995,1338.39 920.016,1338.65 921.038,1338.9 922.06,1339.15 923.082,1339.4 924.104,1339.65 925.126,1339.9 926.148,1340.14 927.17,1340.39 928.192,1340.64 929.214,1340.88 930.236,1341.13 931.258,1341.37 932.28,1341.61 933.301,1341.86 934.323,1342.1 935.345,1342.34 936.367,1342.58 937.389,1342.82 938.411,1343.06 939.433,1343.3 940.455,1343.53 941.477,1343.77 942.499,1344.01 943.521,1344.24 944.543,1344.48 945.565,1344.71 946.587,1344.94 947.608,1345.18 948.63,1345.41 949.652,1345.64 950.674,1345.87 951.696,1346.1 952.718,1346.33 953.74,1346.56 954.762,1346.78 955.784,1347.01 956.806,1347.24 957.828,1347.46 958.85,1347.69 959.872,1347.91 960.893,1348.14 961.915,1348.36 962.937,1348.58 963.959,1348.8 964.981,1349.03 966.003,1349.25 967.025,1349.47 968.047,1349.69 969.069,1349.91 970.091,1350.12 971.113,1350.34 972.135,1350.56 973.157,1350.77 974.179,1350.99 975.2,1351.2 976.222,1351.42 977.244,1351.63 978.266,1351.85 979.288,1352.06 980.31,1352.27 981.332,1352.48 982.354,1352.69 983.376,1352.9 984.398,1353.11 985.42,1353.32 986.442,1353.53 987.464,1353.74 988.485,1353.95 989.507,1354.15 990.529,1354.36 991.551,1354.56 992.573,1354.77 993.595,1354.97 994.617,1355.18 995.639,1355.38 996.661,1355.58 997.683,1355.79 998.705,1355.99 999.727,1356.19 1000.75,1356.39 1001.77,1356.59 1002.79,1356.79 1003.81,1356.99 1004.84,1357.18 1005.86,1357.38 1006.88,1357.58 1007.9,1357.78 1008.92,1357.97 1009.95,1358.17 1010.97,1358.36 1011.99,1358.56 1013.01,1358.75 1014.03,1358.94 1015.06,1359.14 1016.08,1359.33 1017.1,1359.52 1018.12,1359.71 1019.14,1359.9 1020.17,1360.09 1021.19,1360.28 1022.21,1360.47 1023.23,1360.66 1024.25,1360.85 1025.27,1361.04 1026.3,1361.22 1027.32,1361.41 1028.34,1361.6 1029.36,1361.78 1030.38,1361.97 1031.41,1362.15 1032.43,1362.34 1033.45,1362.52 1034.47,1362.7 1035.49,1362.89 1036.52,1363.07 1037.54,1363.25 1038.56,1363.43 1039.58,1363.61 1040.6,1363.79 1041.63,1363.97 1042.65,1364.15 1043.67,1364.33 1044.69,1364.51 1045.71,1364.69 1046.74,1364.87 1047.76,1365.04 1048.78,1365.22 1049.8,1365.4 1050.82,1365.57 1051.84,1365.75 1052.87,1365.92 1053.89,1366.1 1054.91,1366.27 1055.93,1366.44 1056.95,1366.62 1057.98,1366.79 1059,1366.96 1060.02,1367.13 1061.04,1367.3 1062.06,1367.47 1063.09,1367.64 1064.11,1367.81 1065.13,1367.98 1066.15,1368.15 1067.17,1368.32 1068.2,1368.49 1069.22,1368.66 1070.24,1368.82 1071.26,1368.99 1072.28,1369.16 1073.31,1369.32 1074.33,1369.49 1075.35,1369.65 1076.37,1369.82 1077.39,1369.98 1078.41,1370.15 1079.44,1370.31 1080.46,1370.47 1081.48,1370.64 1082.5,1370.8 1083.52,1370.96 1084.55,1371.12 1085.57,1371.28 1086.59,1371.44 1087.61,1371.6 1088.63,1371.76 1089.66,1371.92 1090.68,1372.08 1091.7,1372.24 1092.72,1372.4 1093.74,1372.56 1094.77,1372.71 1095.79,1372.87 1096.81,1373.03 1097.83,1373.18 1098.85,1373.34 1099.88,1373.49 1100.9,1373.65 1101.92,1373.8 1102.94,1373.96 1103.96,1374.11 1104.98,1374.26 1106.01,1374.42 1107.03,1374.57 1108.05,1374.72 1109.07,1374.88 1110.09,1375.03 1111.12,1375.18 1112.14,1375.33 1113.16,1375.48 1114.18,1375.63 1115.2,1375.78 1116.23,1375.93 1117.25,1376.08 1118.27,1376.23 1119.29,1376.37 1120.31,1376.52 1121.34,1376.67 1122.36,1376.82 1123.38,1376.96 1124.4,1377.11 1125.42,1377.26 1126.45,1377.4 1127.47,1377.55 1128.49,1377.69 1129.51,1377.84 1130.53,1377.98 1131.56,1378.13 1132.58,1378.27 1133.6,1378.41 1134.62,1378.56 1135.64,1378.7 1136.66,1378.84 1137.69,1378.98 1138.71,1379.13 1139.73,1379.27 1140.75,1379.41 1141.77,1379.55 1142.8,1379.69 1143.82,1379.83 1144.84,1379.97 1145.86,1380.11 1146.88,1380.25 1147.91,1380.39 1148.93,1380.52 1149.95,1380.66 1150.97,1380.8 1151.99,1380.94 1153.02,1381.07 1154.04,1381.21 1155.06,1381.35 1156.08,1381.48 1157.1,1381.62 1158.13,1381.75 1159.15,1381.89 1160.17,1382.02 1161.19,1382.16 1162.21,1382.29 1163.23,1382.43 1164.26,1382.56 1165.28,1382.69 1166.3,1382.83 1167.32,1382.96 1168.34,1383.09 1169.37,1383.22 1170.39,1383.36 1171.41,1383.49 1172.43,1383.62 1173.45,1383.75 1174.48,1383.88 1175.5,1384.01 1176.52,1384.14 1177.54,1384.27 1178.56,1384.4 1179.59,1384.53 1180.61,1384.66 1181.63,1384.78 1182.65,1384.91 1183.67,1385.04 1184.7,1385.17 1185.72,1385.29 1186.74,1385.42 1187.76,1385.55 1188.78,1385.67 1189.8,1385.8 1190.83,1385.93 1191.85,1386.05 1192.87,1386.18 1193.89,1386.3 1194.91,1386.43 1195.94,1386.55 1196.96,1386.68 1197.98,1386.8 1199,1386.92 1200.02,1387.05 1201.05,1387.17 1202.07,1387.29 1203.09,1387.41 1204.11,1387.54 1205.13,1387.66 1206.16,1387.78 1207.18,1387.9 1208.2,1388.02 1209.22,1388.14 1210.24,1388.26 1211.27,1388.38 1212.29,1388.5 1213.31,1388.62 1214.33,1388.74 1215.35,1388.86 1216.37,1388.98 1217.4,1389.1 1218.42,1389.22 1219.44,1389.34 1220.46,1389.45 1221.48,1389.57 1222.51,1389.69 1223.53,1389.81 1224.55,1389.92 1225.57,1390.04 1226.59,1390.16 1227.62,1390.27 1228.64,1390.39 1229.66,1390.5 1230.68,1390.62 1231.7,1390.73 1232.73,1390.85 1233.75,1390.96 1234.77,1391.08 1235.79,1391.19 1236.81,1391.31 1237.84,1391.42 1238.86,1391.53 1239.88,1391.65 1240.9,1391.76 1241.92,1391.87 1242.94,1391.98 1243.97,1392.1 1244.99,1392.21 1246.01,1392.32 1247.03,1392.43 1248.05,1392.54 1249.08,1392.65 1250.1,1392.76 1251.12,1392.87 1252.14,1392.98 1253.16,1393.09 1254.19,1393.2 1255.21,1393.31 1256.23,1393.42 1257.25,1393.53 1258.27,1393.64 1259.3,1393.75 1260.32,1393.86 1261.34,1393.97 1262.36,1394.07 1263.38,1394.18 1264.41,1394.29 1265.43,1394.4 1266.45,1394.5 1267.47,1394.61 1268.49,1394.72 1269.51,1394.82 1270.54,1394.93 1271.56,1395.03 1272.58,1395.14 1273.6,1395.24 1274.62,1395.35 1275.65,1395.45 1276.67,1395.56 1277.69,1395.66 1278.71,1395.77 1279.73,1395.87 1280.76,1395.98 1281.78,1396.08 1282.8,1396.18 1283.82,1396.29 1284.84,1396.39 1285.87,1396.49 1286.89,1396.59 1287.91,1396.7 1288.93,1396.8 1289.95,1396.9 1290.98,1397 1292,1397.1 1293.02,1397.21 1294.04,1397.31 1295.06,1397.41 1296.09,1397.51 1297.11,1397.61 1298.13,1397.71 1299.15,1397.81 1300.17,1397.91 1301.19,1398.01 1302.22,1398.11 1303.24,1398.21 1304.26,1398.31 1305.28,1398.41 1306.3,1398.5 1307.33,1398.6 1308.35,1398.7 1309.37,1398.8 1310.39,1398.9 1311.41,1398.99 1312.44,1399.09 1313.46,1399.19 1314.48,1399.29 1315.5,1399.38 1316.52,1399.48 1317.55,1399.58 1318.57,1399.67 1319.59,1399.77 1320.61,1399.86 1321.63,1399.96 1322.66,1400.05 1323.68,1400.15 1324.7,1400.25 1325.72,1400.34 1326.74,1400.43 1327.76,1400.53 1328.79,1400.62 1329.81,1400.72 1330.83,1400.81 1331.85,1400.91 1332.87,1401 1333.9,1401.09 1334.92,1401.19 1335.94,1401.28 1336.96,1401.37 1337.98,1401.46 1339.01,1401.56 1340.03,1401.65 1341.05,1401.74 1342.07,1401.83 1343.09,1401.92 1344.12,1402.02 1345.14,1402.11 1346.16,1402.2 1347.18,1402.29 1348.2,1402.38 1349.23,1402.47 1350.25,1402.56 1351.27,1402.65 1352.29,1402.74 1353.31,1402.83 1354.33,1402.92 1355.36,1403.01 1356.38,1403.1 1357.4,1403.19 1358.42,1403.28 1359.44,1403.37 1360.47,1403.46 1361.49,1403.55 1362.51,1403.63 1363.53,1403.72 1364.55,1403.81 1365.58,1403.9 1366.6,1403.99 1367.62,1404.07 1368.64,1404.16 1369.66,1404.25 1370.69,1404.33 1371.71,1404.42 1372.73,1404.51 1373.75,1404.59 1374.77,1404.68 1375.8,1404.77 1376.82,1404.85 1377.84,1404.94 1378.86,1405.02 1379.88,1405.11 1380.9,1405.2 1381.93,1405.28 1382.95,1405.37 1383.97,1405.45 1384.99,1405.54 1386.01,1405.62 1387.04,1405.7 1388.06,1405.79 1389.08,1405.87 1390.1,1405.96 1391.12,1406.04 1392.15,1406.12 1393.17,1406.21 1394.19,1406.29 1395.21,1406.37 1396.23,1406.46 1397.26,1406.54 1398.28,1406.62 1399.3,1406.7 1400.32,1406.79 1401.34,1406.87 1402.37,1406.95 1403.39,1407.03 1404.41,1407.11 1405.43,1407.2 1406.45,1407.28 1407.47,1407.36 1408.5,1407.44 1409.52,1407.52 1410.54,1407.6 1411.56,1407.68 1412.58,1407.76 1413.61,1407.84 1414.63,1407.92 1415.65,1408 1416.67,1408.08 1417.69,1408.16 1418.72,1408.24 1419.74,1408.32 1420.76,1408.4 1421.78,1408.48 1422.8,1408.56 1423.83,1408.64 1424.85,1408.72 1425.87,1408.8 1426.89,1408.87 1427.91,1408.95 1428.94,1409.03 1429.96,1409.11 1430.98,1409.19 1432,1409.26 1433.02,1409.34 1434.04,1409.42 1435.07,1409.5 1436.09,1409.57 1437.11,1409.65 1438.13,1409.73 1439.15,1409.8 1440.18,1409.88 1441.2,1409.96 1442.22,1410.03 1443.24,1410.11 1444.26,1410.18 1445.29,1410.26 1446.31,1410.34 1447.33,1410.41 1448.35,1410.49 1449.37,1410.56 1450.4,1410.64 1451.42,1410.71 1452.44,1410.79 1453.46,1410.86 1454.48,1410.94 1455.51,1411.01 1456.53,1411.09 1457.55,1411.16 1458.57,1411.23 1459.59,1411.31 1460.62,1411.38 1461.64,1411.46 1462.66,1411.53 1463.68,1411.6 1464.7,1411.68 1465.72,1411.75 1466.75,1411.82 1467.77,1411.9 1468.79,1411.97 1469.81,1412.04 1470.83,1412.11 1471.86,1412.19 1472.88,1412.26 1473.9,1412.33 1474.92,1412.4 1475.94,1412.47 1476.97,1412.55 1477.99,1412.62 1479.01,1412.69 1480.03,1412.76 1481.05,1412.83 1482.08,1412.9 1483.1,1412.97 1484.12,1413.04 1485.14,1413.12 1486.16,1413.19 1487.19,1413.26 1488.21,1413.33 1489.23,1413.4 1490.25,1413.47 1491.27,1413.54 1492.29,1413.61 1493.32,1413.68 1494.34,1413.75 1495.36,1413.82 1496.38,1413.89 1497.4,1413.95 1498.43,1414.02 1499.45,1414.09 1500.47,1414.16 1501.49,1414.23 1502.51,1414.3 1503.54,1414.37 1504.56,1414.44 1505.58,1414.5 1506.6,1414.57 1507.62,1414.64 1508.65,1414.71 1509.67,1414.78 1510.69,1414.84 1511.71,1414.91 1512.73,1414.98 1513.76,1415.05 1514.78,1415.11 1515.8,1415.18 1516.82,1415.25 1517.84,1415.31 1518.86,1415.38 1519.89,1415.45 1520.91,1415.51 1521.93,1415.58 1522.95,1415.65 1523.97,1415.71 1525,1415.78 1526.02,1415.85 1527.04,1415.91 1528.06,1415.98 1529.08,1416.04 1530.11,1416.11 1531.13,1416.17 1532.15,1416.24 1533.17,1416.3 1534.19,1416.37 1535.22,1416.43 1536.24,1416.5 1537.26,1416.56 1538.28,1416.63 1539.3,1416.69 1540.33,1416.76 1541.35,1416.82 1542.37,1416.89 1543.39,1416.95 1544.41,1417.01 1545.43,1417.08 1546.46,1417.14 1547.48,1417.21 1548.5,1417.27 1549.52,1417.33 1550.54,1417.4 1551.57,1417.46 1552.59,1417.52 1553.61,1417.59 1554.63,1417.65 1555.65,1417.71 1556.68,1417.77 1557.7,1417.84 1558.72,1417.9 1559.74,1417.96 1560.76,1418.02 1561.79,1418.09 1562.81,1418.15 1563.83,1418.21 1564.85,1418.27 1565.87,1418.33 1566.9,1418.4 1567.92,1418.46 1568.94,1418.52 1569.96,1418.58 1570.98,1418.64 1572,1418.7 1573.03,1418.76 1574.05,1418.82 1575.07,1418.88 1576.09,1418.95 1577.11,1419.01 1578.14,1419.07 1579.16,1419.13 1580.18,1419.19 1581.2,1419.25 1582.22,1419.31 1583.25,1419.37 1584.27,1419.43 1585.29,1419.49 1586.31,1419.55 1587.33,1419.61 1588.36,1419.67 1589.38,1419.73 1590.4,1419.79 1591.42,1419.85 1592.44,1419.9 1593.47,1419.96 1594.49,1420.02 1595.51,1420.08 1596.53,1420.14 1597.55,1420.2 1598.57,1420.26 1599.6,1420.32 1600.62,1420.37 1601.64,1420.43 1602.66,1420.49 1603.68,1420.55 1604.71,1420.61 1605.73,1420.67 1606.75,1420.72 1607.77,1420.78 1608.79,1420.84 1609.82,1420.9 1610.84,1420.95 1611.86,1421.01 1612.88,1421.07 1613.9,1421.13 1614.93,1421.18 1615.95,1421.24 1616.97,1421.3 1617.99,1421.35 1619.01,1421.41 1620.04,1421.47 1621.06,1421.52 1622.08,1421.58 1623.1,1421.64 1624.12,1421.69 1625.15,1421.75 1626.17,1421.8 1627.19,1421.86 1628.21,1421.92 1629.23,1421.97 1630.25,1422.03 1631.28,1422.08 1632.3,1422.14 1633.32,1422.2 1634.34,1422.25 1635.36,1422.31 1636.39,1422.36 1637.41,1422.42 1638.43,1422.47 1639.45,1422.53 1640.47,1422.58 1641.5,1422.64 1642.52,1422.69 1643.54,1422.75 1644.56,1422.8 1645.58,1422.85 1646.61,1422.91 1647.63,1422.96 1648.65,1423.02 1649.67,1423.07 1650.69,1423.13 1651.72,1423.18 1652.74,1423.23 1653.76,1423.29 1654.78,1423.34 1655.8,1423.39 1656.82,1423.45 1657.85,1423.5 1658.87,1423.55 1659.89,1423.61 1660.91,1423.66 1661.93,1423.71 1662.96,1423.77 1663.98,1423.82 1665,1423.87 1666.02,1423.93 1667.04,1423.98 1668.07,1424.03 1669.09,1424.08 1670.11,1424.14 1671.13,1424.19 1672.15,1424.24 1673.18,1424.29 1674.2,1424.34 1675.22,1424.4 1676.24,1424.45 1677.26,1424.5 1678.29,1424.55 1679.31,1424.6 1680.33,1424.66 1681.35,1424.71 1682.37,1424.76 1683.39,1424.81 1684.42,1424.86 1685.44,1424.91 1686.46,1424.96 1687.48,1425.02 1688.5,1425.07 1689.53,1425.12 1690.55,1425.17 1691.57,1425.22 1692.59,1425.27 1693.61,1425.32 1694.64,1425.37 1695.66,1425.42 1696.68,1425.47 1697.7,1425.52 1698.72,1425.57 1699.75,1425.62 1700.77,1425.67 1701.79,1425.72 1702.81,1425.77 1703.83,1425.82 1704.86,1425.87 1705.88,1425.92 1706.9,1425.97 1707.92,1426.02 1708.94,1426.07 1709.96,1426.12 1710.99,1426.17 1712.01,1426.22 1713.03,1426.27 1714.05,1426.32 1715.07,1426.37 1716.1,1426.41 1717.12,1426.46 1718.14,1426.51 1719.16,1426.56 1720.18,1426.61 1721.21,1426.66 1722.23,1426.71 1723.25,1426.76 1724.27,1426.8 1725.29,1426.85 1726.32,1426.9 1727.34,1426.95 1728.36,1427 1729.38,1427.04 1730.4,1427.09 1731.43,1427.14 1732.45,1427.19 1733.47,1427.24 1734.49,1427.28 1735.51,1427.33 1736.53,1427.38 1737.56,1427.43 1738.58,1427.47 1739.6,1427.52 1740.62,1427.57 1741.64,1427.62 1742.67,1427.66 1743.69,1427.71 1744.71,1427.76 1745.73,1427.8 1746.75,1427.85 1747.78,1427.9 1748.8,1427.94 1749.82,1427.99 1750.84,1428.04 1751.86,1428.08 1752.89,1428.13 1753.91,1428.18 1754.93,1428.22 1755.95,1428.27 1756.97,1428.32 1758,1428.36 1759.02,1428.41 1760.04,1428.45 1761.06,1428.5 1762.08,1428.55 1763.1,1428.59 1764.13,1428.64 1765.15,1428.68 1766.17,1428.73 1767.19,1428.77 1768.21,1428.82 1769.24,1428.86 1770.26,1428.91 1771.28,1428.95 1772.3,1429 1773.32,1429.04 1774.35,1429.09 1775.37,1429.13 1776.39,1429.18 1777.41,1429.22 1778.43,1429.27 1779.46,1429.31 1780.48,1429.36 1781.5,1429.4 1782.52,1429.45 1783.54,1429.49 1784.57,1429.54 1785.59,1429.58 1786.61,1429.63 1787.63,1429.67 1788.65,1429.71 1789.67,1429.76 1790.7,1429.8 1791.72,1429.85 1792.74,1429.89 1793.76,1429.93 1794.78,1429.98 1795.81,1430.02 1796.83,1430.06 1797.85,1430.11 1798.87,1430.15 1799.89,1430.19 1800.92,1430.24 1801.94,1430.28 1802.96,1430.32 1803.98,1430.37 1805,1430.41 1806.03,1430.45 1807.05,1430.5 1808.07,1430.54 1809.09,1430.58 1810.11,1430.63 1811.14,1430.67 1812.16,1430.71 1813.18,1430.75 1814.2,1430.8 1815.22,1430.84 1816.25,1430.88 1817.27,1430.92 1818.29,1430.97 1819.31,1431.01 1820.33,1431.05 1821.35,1431.09 1822.38,1431.14 1823.4,1431.18 1824.42,1431.22 1825.44,1431.26 1826.46,1431.3 1827.49,1431.34 1828.51,1431.39 1829.53,1431.43 1830.55,1431.47 1831.57,1431.51 1832.6,1431.55 1833.62,1431.59 1834.64,1431.64 1835.66,1431.68 1836.68,1431.72 1837.71,1431.76 1838.73,1431.8 1839.75,1431.84 1840.77,1431.88 1841.79,1431.92 1842.82,1431.97 1843.84,1432.01 1844.86,1432.05 1845.88,1432.09 1846.9,1432.13 1847.92,1432.17 1848.95,1432.21 1849.97,1432.25 1850.99,1432.29 1852.01,1432.33 1853.03,1432.37 1854.06,1432.41 1855.08,1432.45 1856.1,1432.49 1857.12,1432.53 1858.14,1432.57 1859.17,1432.61 1860.19,1432.65 1861.21,1432.69 1862.23,1432.73 1863.25,1432.77 1864.28,1432.81 1865.3,1432.85 1866.32,1432.89 1867.34,1432.93 1868.36,1432.97 1869.39,1433.01 1870.41,1433.05 1871.43,1433.09 1872.45,1433.13 1873.47,1433.17 1874.49,1433.21 1875.52,1433.25 1876.54,1433.29 1877.56,1433.32 1878.58,1433.36 1879.6,1433.4 1880.63,1433.44 1881.65,1433.48 1882.67,1433.52 1883.69,1433.56 1884.71,1433.6 1885.74,1433.64 1886.76,1433.67 1887.78,1433.71 1888.8,1433.75 1889.82,1433.79 1890.85,1433.83 1891.87,1433.87 1892.89,1433.9 1893.91,1433.94 1894.93,1433.98 1895.96,1434.02 1896.98,1434.06 1898,1434.1 1899.02,1434.13 1900.04,1434.17 1901.06,1434.21 1902.09,1434.25 1903.11,1434.29 1904.13,1434.32 1905.15,1434.36 1906.17,1434.4 1907.2,1434.44 1908.22,1434.47 1909.24,1434.51 1910.26,1434.55 1911.28,1434.59 1912.31,1434.62 1913.33,1434.66 1914.35,1434.7 1915.37,1434.73 1916.39,1434.77 1917.42,1434.81 1918.44,1434.85 1919.46,1434.88 1920.48,1434.92 1921.5,1434.96 1922.53,1434.99 1923.55,1435.03 1924.57,1435.07 1925.59,1435.1 1926.61,1435.14 1927.63,1435.18 1928.66,1435.21 1929.68,1435.25 1930.7,1435.29 1931.72,1435.32 1932.74,1435.36 1933.77,1435.4 1934.79,1435.43 1935.81,1435.47 1936.83,1435.5 1937.85,1435.54 1938.88,1435.58 1939.9,1435.61 1940.92,1435.65 1941.94,1435.68 1942.96,1435.72 1943.99,1435.76 1945.01,1435.79 1946.03,1435.83 1947.05,1435.86 1948.07,1435.9 1949.1,1435.94 1950.12,1435.97 1951.14,1436.01 1952.16,1436.04 1953.18,1436.08 1954.2,1436.11 1955.23,1436.15 1956.25,1436.18 1957.27,1436.22 1958.29,1436.25 1959.31,1436.29 1960.34,1436.32 1961.36,1436.36 1962.38,1436.39 1963.4,1436.43 1964.42,1436.46 1965.45,1436.5 1966.47,1436.53 1967.49,1436.57 1968.51,1436.6 1969.53,1436.64 1970.56,1436.67 1971.58,1436.71 1972.6,1436.74 1973.62,1436.78 1974.64,1436.81 1975.67,1436.85 1976.69,1436.88 1977.71,1436.91 1978.73,1436.95 1979.75,1436.98 1980.78,1437.02 1981.8,1437.05 1982.82,1437.09 1983.84,1437.12 1984.86,1437.15 1985.88,1437.19 1986.91,1437.22 1987.93,1437.26 1988.95,1437.29 1989.97,1437.32 1990.99,1437.36 1992.02,1437.39 1993.04,1437.42 1994.06,1437.46 1995.08,1437.49 1996.1,1437.52 1997.13,1437.56 1998.15,1437.59 1999.17,1437.63 2000.19,1437.66 2001.21,1437.69 2002.24,1437.73 2003.26,1437.76 2004.28,1437.79 2005.3,1437.83 2006.32,1437.86 2007.35,1437.89 2008.37,1437.92 2009.39,1437.96 2010.41,1437.99 2011.43,1438.02 2012.45,1438.06 2013.48,1438.09 2014.5,1438.12 2015.52,1438.15 2016.54,1438.19 2017.56,1438.22 2018.59,1438.25 2019.61,1438.29 2020.63,1438.32 2021.65,1438.35 2022.67,1438.38 2023.7,1438.42 2024.72,1438.45 2025.74,1438.48 2026.76,1438.51 2027.78,1438.55 2028.81,1438.58 2029.83,1438.61 2030.85,1438.64 2031.87,1438.67 2032.89,1438.71 2033.92,1438.74 2034.94,1438.77 2035.96,1438.8 2036.98,1438.83 2038,1438.87 2039.02,1438.9 2040.05,1438.93 2041.07,1438.96 2042.09,1438.99 2043.11,1439.02 2044.13,1439.06 2045.16,1439.09 2046.18,1439.12 2047.2,1439.15 2048.22,1439.18 2049.24,1439.21 2050.27,1439.25 2051.29,1439.28 2052.31,1439.31 2053.33,1439.34 2054.35,1439.37 2055.38,1439.4 2056.4,1439.43 2057.42,1439.46 2058.44,1439.5 2059.46,1439.53 2060.49,1439.56 2061.51,1439.59 2062.53,1439.62 2063.55,1439.65 2064.57,1439.68 2065.59,1439.71 2066.62,1439.74 2067.64,1439.77 2068.66,1439.8 2069.68,1439.84 2070.7,1439.87 2071.73,1439.9 2072.75,1439.93 2073.77,1439.96 2074.79,1439.99 2075.81,1440.02 2076.84,1440.05 2077.86,1440.08 2078.88,1440.11 2079.9,1440.14 2080.92,1440.17 2081.95,1440.2 2082.97,1440.23 2083.99,1440.26 2085.01,1440.29 2086.03,1440.32 2087.06,1440.35 2088.08,1440.38 2089.1,1440.41 2090.12,1440.44 2091.14,1440.47 2092.16,1440.5 2093.19,1440.53 2094.21,1440.56 2095.23,1440.59 2096.25,1440.62 2097.27,1440.65 2098.3,1440.68 2099.32,1440.71 2100.34,1440.74 2101.36,1440.77 2102.38,1440.8 2103.41,1440.83 2104.43,1440.86 2105.45,1440.89 2106.47,1440.92 2107.49,1440.95 2108.52,1440.98 2109.54,1441 2110.56,1441.03 2111.58,1441.06 2112.6,1441.09 2113.63,1441.12 2114.65,1441.15 2115.67,1441.18 2116.69,1441.21 2117.71,1441.24 2118.73,1441.27 2119.76,1441.3 2120.78,1441.32 2121.8,1441.35 2122.82,1441.38 2123.84,1441.41 2124.87,1441.44 2125.89,1441.47 2126.91,1441.5 2127.93,1441.53 2128.95,1441.55 2129.98,1441.58 2131,1441.61 2132.02,1441.64 2133.04,1441.67 2134.06,1441.7 2135.09,1441.73 2136.11,1441.75 2137.13,1441.78 2138.15,1441.81 2139.17,1441.84 2140.2,1441.87 2141.22,1441.9 2142.24,1441.92 2143.26,1441.95 2144.28,1441.98 2145.31,1442.01 2146.33,1442.04 2147.35,1442.06 2148.37,1442.09 2149.39,1442.12 2150.41,1442.15 2151.44,1442.18 2152.46,1442.2 2153.48,1442.23 2154.5,1442.26 2155.52,1442.29 2156.55,1442.32 2157.57,1442.34 2158.59,1442.37 2159.61,1442.4 2160.63,1442.43 2161.66,1442.45 2162.68,1442.48 2163.7,1442.51 2164.72,1442.54 2165.74,1442.56 2166.77,1442.59 2167.79,1442.62 2168.81,1442.65 2169.83,1442.67 2170.85,1442.7 2171.88,1442.73 2172.9,1442.76 2173.92,1442.78 2174.94,1442.81 2175.96,1442.84 2176.98,1442.86 2178.01,1442.89 2179.03,1442.92 2180.05,1442.95 2181.07,1442.97 2182.09,1443 2183.12,1443.03 2184.14,1443.05 2185.16,1443.08 2186.18,1443.11 2187.2,1443.13 2188.23,1443.16 2189.25,1443.19 2190.27,1443.21 2191.29,1443.24 2192.31,1443.27 2193.34,1443.29 2194.36,1443.32 2195.38,1443.35 2196.4,1443.37 2197.42,1443.4 2198.45,1443.43 2199.47,1443.45 2200.49,1443.48 2201.51,1443.51 2202.53,1443.53 2203.55,1443.56 2204.58,1443.58 2205.6,1443.61 2206.62,1443.64 2207.64,1443.66 2208.66,1443.69 2209.69,1443.72 2210.71,1443.74 2211.73,1443.77 2212.75,1443.79 2213.77,1443.82 2214.8,1443.85 2215.82,1443.87 2216.84,1443.9 2217.86,1443.92 2218.88,1443.95 2219.91,1443.98 2220.93,1444 2221.95,1444.03 2222.97,1444.05 2223.99,1444.08 2225.02,1444.1 2226.04,1444.13 2227.06,1444.16 2228.08,1444.18 2229.1,1444.21 2230.12,1444.23 2231.15,1444.26 2232.17,1444.28 2233.19,1444.31 2234.21,1444.33 2235.23,1444.36 2236.26,1444.39 2237.28,1444.41 2238.3,1444.44 2239.32,1444.46 2240.34,1444.49 2241.37,1444.51 2242.39,1444.54 2243.41,1444.56 2244.43,1444.59 2245.45,1444.61 2246.48,1444.64 2247.5,1444.66 2248.52,1444.69 2249.54,1444.71 2250.56,1444.74 2251.59,1444.76 2252.61,1444.79 2253.63,1444.81 2254.65,1444.84 2255.67,1444.86 2256.69,1444.89 2257.72,1444.91 2258.74,1444.94 2259.76,1444.96 2260.78,1444.99 2261.8,1445.01 2262.83,1445.04 2263.85,1445.06 2264.87,1445.08 2265.89,1445.11 2266.91,1445.13 2267.94,1445.16 2268.96,1445.18 2269.98,1445.21 2271,1445.23 2272.02,1445.26 2273.05,1445.28 2274.07,1445.31 2275.09,1445.33 2276.11,1445.35 2277.13,1445.38 2278.16,1445.4 2279.18,1445.43 2280.2,1445.45 2281.22,1445.48 2282.24,1445.5 2283.26,1445.52 2284.29,1445.55 2285.31,1445.57 2286.33,1445.6 2287.35,1445.62 2288.37,1445.64 2289.4,1445.67 2290.42,1445.69 2291.44,1445.72 "/>
<path clip-path="url(#clip750)" d="M2011.46 198.898 L2280.54 198.898 L2280.54 95.2176 L2011.46 95.2176  Z" fill="#ffffff" fill-rule="evenodd" fill-opacity="1"/>
<polyline clip-path="url(#clip750)" style="stroke:#000000; stroke-linecap:round; stroke-linejoin:round; stroke-width:4; stroke-opacity:1; fill:none" points="2011.46,198.898 2280.54,198.898 2280.54,95.2176 2011.46,95.2176 2011.46,198.898 "/>
<polyline clip-path="url(#clip750)" style="stroke:#009af9; stroke-linecap:round; stroke-linejoin:round; stroke-width:4; stroke-opacity:1; fill:none" points="2035.53,147.058 2179.97,147.058 "/>
<path clip-path="url(#clip750)" d="M2217.88 166.745 Q2216.07 171.375 2214.36 172.787 Q2212.65 174.199 2209.78 174.199 L2206.38 174.199 L2206.38 170.634 L2208.88 170.634 Q2210.63 170.634 2211.61 169.8 Q2212.58 168.967 2213.76 165.865 L2214.52 163.921 L2204.04 138.412 L2208.55 138.412 L2216.65 158.689 L2224.76 138.412 L2229.27 138.412 L2217.88 166.745 Z" fill="#000000" fill-rule="nonzero" fill-opacity="1" /><path clip-path="url(#clip750)" d="M2236.56 160.402 L2244.2 160.402 L2244.2 134.037 L2235.89 135.703 L2235.89 131.444 L2244.15 129.778 L2248.83 129.778 L2248.83 160.402 L2256.47 160.402 L2256.47 164.338 L2236.56 164.338 L2236.56 160.402 Z" fill="#000000" fill-rule="nonzero" fill-opacity="1" /></svg>
