<?xml version="1.0" encoding="utf-8"?>
<svg xmlns="http://www.w3.org/2000/svg" xmlns:xlink="http://www.w3.org/1999/xlink" width="600" height="400" viewBox="0 0 2400 1600">
<defs>
  <clipPath id="clip550">
    <rect x="0" y="0" width="2400" height="1600"/>
  </clipPath>
</defs>
<path clip-path="url(#clip550)" d="M0 1600 L2400 1600 L2400 0 L0 0  Z" fill="#ffffff" fill-rule="evenodd" fill-opacity="1"/>
<defs>
  <clipPath id="clip551">
    <rect x="480" y="0" width="1681" height="1600"/>
  </clipPath>
</defs>
<path clip-path="url(#clip550)" d="M112.177 1486.45 L2352.76 1486.45 L2352.76 47.2441 L112.177 47.2441  Z" fill="#ffffff" fill-rule="evenodd" fill-opacity="1"/>
<defs>
  <clipPath id="clip552">
    <rect x="112" y="47" width="2242" height="1440"/>
  </clipPath>
</defs>
<polyline clip-path="url(#clip552)" style="stroke:#000000; stroke-linecap:round; stroke-linejoin:round; stroke-width:2; stroke-opacity:0.1; fill:none" points="175.59,1486.45 175.59,47.2441 "/>
<polyline clip-path="url(#clip552)" style="stroke:#000000; stroke-linecap:round; stroke-linejoin:round; stroke-width:2; stroke-opacity:0.1; fill:none" points="704.028,1486.45 704.028,47.2441 "/>
<polyline clip-path="url(#clip552)" style="stroke:#000000; stroke-linecap:round; stroke-linejoin:round; stroke-width:2; stroke-opacity:0.1; fill:none" points="1232.47,1486.45 1232.47,47.2441 "/>
<polyline clip-path="url(#clip552)" style="stroke:#000000; stroke-linecap:round; stroke-linejoin:round; stroke-width:2; stroke-opacity:0.1; fill:none" points="1760.9,1486.45 1760.9,47.2441 "/>
<polyline clip-path="url(#clip552)" style="stroke:#000000; stroke-linecap:round; stroke-linejoin:round; stroke-width:2; stroke-opacity:0.1; fill:none" points="2289.34,1486.45 2289.34,47.2441 "/>
<polyline clip-path="url(#clip550)" style="stroke:#000000; stroke-linecap:round; stroke-linejoin:round; stroke-width:4; stroke-opacity:1; fill:none" points="112.177,1486.45 2352.76,1486.45 "/>
<polyline clip-path="url(#clip550)" style="stroke:#000000; stroke-linecap:round; stroke-linejoin:round; stroke-width:4; stroke-opacity:1; fill:none" points="175.59,1486.45 175.59,1467.55 "/>
<polyline clip-path="url(#clip550)" style="stroke:#000000; stroke-linecap:round; stroke-linejoin:round; stroke-width:4; stroke-opacity:1; fill:none" points="704.028,1486.45 704.028,1467.55 "/>
<polyline clip-path="url(#clip550)" style="stroke:#000000; stroke-linecap:round; stroke-linejoin:round; stroke-width:4; stroke-opacity:1; fill:none" points="1232.47,1486.45 1232.47,1467.55 "/>
<polyline clip-path="url(#clip550)" style="stroke:#000000; stroke-linecap:round; stroke-linejoin:round; stroke-width:4; stroke-opacity:1; fill:none" points="1760.9,1486.45 1760.9,1467.55 "/>
<polyline clip-path="url(#clip550)" style="stroke:#000000; stroke-linecap:round; stroke-linejoin:round; stroke-width:4; stroke-opacity:1; fill:none" points="2289.34,1486.45 2289.34,1467.55 "/>
<path clip-path="url(#clip550)" d="M175.59 1517.37 Q171.979 1517.37 170.15 1520.93 Q168.344 1524.47 168.344 1531.6 Q168.344 1538.71 170.15 1542.27 Q171.979 1545.82 175.59 1545.82 Q179.224 1545.82 181.03 1542.27 Q182.858 1538.71 182.858 1531.6 Q182.858 1524.47 181.03 1520.93 Q179.224 1517.37 175.59 1517.37 M175.59 1513.66 Q181.4 1513.66 184.455 1518.27 Q187.534 1522.85 187.534 1531.6 Q187.534 1540.33 184.455 1544.94 Q181.4 1549.52 175.59 1549.52 Q169.78 1549.52 166.701 1544.94 Q163.645 1540.33 163.645 1531.6 Q163.645 1522.85 166.701 1518.27 Q169.78 1513.66 175.59 1513.66 Z" fill="#000000" fill-rule="nonzero" fill-opacity="1" /><path clip-path="url(#clip550)" d="M663.646 1514.29 L682.003 1514.29 L682.003 1518.22 L667.929 1518.22 L667.929 1526.7 Q668.947 1526.35 669.966 1526.19 Q670.984 1526 672.003 1526 Q677.79 1526 681.169 1529.17 Q684.549 1532.34 684.549 1537.76 Q684.549 1543.34 681.077 1546.44 Q677.605 1549.52 671.285 1549.52 Q669.109 1549.52 666.841 1549.15 Q664.596 1548.78 662.188 1548.04 L662.188 1543.34 Q664.271 1544.47 666.494 1545.03 Q668.716 1545.58 671.193 1545.58 Q675.197 1545.58 677.535 1543.48 Q679.873 1541.37 679.873 1537.76 Q679.873 1534.15 677.535 1532.04 Q675.197 1529.94 671.193 1529.94 Q669.318 1529.94 667.443 1530.35 Q665.591 1530.77 663.646 1531.65 L663.646 1514.29 Z" fill="#000000" fill-rule="nonzero" fill-opacity="1" /><path clip-path="url(#clip550)" d="M703.762 1517.37 Q700.151 1517.37 698.322 1520.93 Q696.517 1524.47 696.517 1531.6 Q696.517 1538.71 698.322 1542.27 Q700.151 1545.82 703.762 1545.82 Q707.396 1545.82 709.202 1542.27 Q711.03 1538.71 711.03 1531.6 Q711.03 1524.47 709.202 1520.93 Q707.396 1517.37 703.762 1517.37 M703.762 1513.66 Q709.572 1513.66 712.628 1518.27 Q715.706 1522.85 715.706 1531.6 Q715.706 1540.33 712.628 1544.94 Q709.572 1549.52 703.762 1549.52 Q697.952 1549.52 694.873 1544.94 Q691.818 1540.33 691.818 1531.6 Q691.818 1522.85 694.873 1518.27 Q697.952 1513.66 703.762 1513.66 Z" fill="#000000" fill-rule="nonzero" fill-opacity="1" /><path clip-path="url(#clip550)" d="M733.924 1517.37 Q730.313 1517.37 728.484 1520.93 Q726.679 1524.47 726.679 1531.6 Q726.679 1538.71 728.484 1542.27 Q730.313 1545.82 733.924 1545.82 Q737.558 1545.82 739.364 1542.27 Q741.192 1538.71 741.192 1531.6 Q741.192 1524.47 739.364 1520.93 Q737.558 1517.37 733.924 1517.37 M733.924 1513.66 Q739.734 1513.66 742.79 1518.27 Q745.868 1522.85 745.868 1531.6 Q745.868 1540.33 742.79 1544.94 Q739.734 1549.52 733.924 1549.52 Q728.114 1549.52 725.035 1544.94 Q721.979 1540.33 721.979 1531.6 Q721.979 1522.85 725.035 1518.27 Q728.114 1513.66 733.924 1513.66 Z" fill="#000000" fill-rule="nonzero" fill-opacity="1" /><path clip-path="url(#clip550)" d="M1176.99 1544.91 L1184.63 1544.91 L1184.63 1518.55 L1176.32 1520.21 L1176.32 1515.95 L1184.58 1514.29 L1189.26 1514.29 L1189.26 1544.91 L1196.9 1544.91 L1196.9 1548.85 L1176.99 1548.85 L1176.99 1544.91 Z" fill="#000000" fill-rule="nonzero" fill-opacity="1" /><path clip-path="url(#clip550)" d="M1216.34 1517.37 Q1212.73 1517.37 1210.9 1520.93 Q1209.1 1524.47 1209.1 1531.6 Q1209.1 1538.71 1210.9 1542.27 Q1212.73 1545.82 1216.34 1545.82 Q1219.98 1545.82 1221.78 1542.27 Q1223.61 1538.71 1223.61 1531.6 Q1223.61 1524.47 1221.78 1520.93 Q1219.98 1517.37 1216.34 1517.37 M1216.34 1513.66 Q1222.15 1513.66 1225.21 1518.27 Q1228.29 1522.85 1228.29 1531.6 Q1228.29 1540.33 1225.21 1544.94 Q1222.15 1549.52 1216.34 1549.52 Q1210.53 1549.52 1207.46 1544.94 Q1204.4 1540.33 1204.4 1531.6 Q1204.4 1522.85 1207.46 1518.27 Q1210.53 1513.66 1216.34 1513.66 Z" fill="#000000" fill-rule="nonzero" fill-opacity="1" /><path clip-path="url(#clip550)" d="M1246.51 1517.37 Q1242.89 1517.37 1241.07 1520.93 Q1239.26 1524.47 1239.26 1531.6 Q1239.26 1538.71 1241.07 1542.27 Q1242.89 1545.82 1246.51 1545.82 Q1250.14 1545.82 1251.95 1542.27 Q1253.77 1538.71 1253.77 1531.6 Q1253.77 1524.47 1251.95 1520.93 Q1250.14 1517.37 1246.51 1517.37 M1246.51 1513.66 Q1252.32 1513.66 1255.37 1518.27 Q1258.45 1522.85 1258.45 1531.6 Q1258.45 1540.33 1255.37 1544.94 Q1252.32 1549.52 1246.51 1549.52 Q1240.7 1549.52 1237.62 1544.94 Q1234.56 1540.33 1234.56 1531.6 Q1234.56 1522.85 1237.62 1518.27 Q1240.7 1513.66 1246.51 1513.66 Z" fill="#000000" fill-rule="nonzero" fill-opacity="1" /><path clip-path="url(#clip550)" d="M1276.67 1517.37 Q1273.06 1517.37 1271.23 1520.93 Q1269.42 1524.47 1269.42 1531.6 Q1269.42 1538.71 1271.23 1542.27 Q1273.06 1545.82 1276.67 1545.82 Q1280.3 1545.82 1282.11 1542.27 Q1283.94 1538.71 1283.94 1531.6 Q1283.94 1524.47 1282.11 1520.93 Q1280.3 1517.37 1276.67 1517.37 M1276.67 1513.66 Q1282.48 1513.66 1285.53 1518.27 Q1288.61 1522.85 1288.61 1531.6 Q1288.61 1540.33 1285.53 1544.94 Q1282.48 1549.52 1276.67 1549.52 Q1270.86 1549.52 1267.78 1544.94 Q1264.72 1540.33 1264.72 1531.6 Q1264.72 1522.85 1267.78 1518.27 Q1270.86 1513.66 1276.67 1513.66 Z" fill="#000000" fill-rule="nonzero" fill-opacity="1" /><path clip-path="url(#clip550)" d="M1705.43 1544.91 L1713.07 1544.91 L1713.07 1518.55 L1704.76 1520.21 L1704.76 1515.95 L1713.02 1514.29 L1717.7 1514.29 L1717.7 1544.91 L1725.34 1544.91 L1725.34 1548.85 L1705.43 1548.85 L1705.43 1544.91 Z" fill="#000000" fill-rule="nonzero" fill-opacity="1" /><path clip-path="url(#clip550)" d="M1734.83 1514.29 L1753.19 1514.29 L1753.19 1518.22 L1739.11 1518.22 L1739.11 1526.7 Q1740.13 1526.35 1741.15 1526.19 Q1742.17 1526 1743.19 1526 Q1748.97 1526 1752.35 1529.17 Q1755.73 1532.34 1755.73 1537.76 Q1755.73 1543.34 1752.26 1546.44 Q1748.79 1549.52 1742.47 1549.52 Q1740.29 1549.52 1738.02 1549.15 Q1735.78 1548.78 1733.37 1548.04 L1733.37 1543.34 Q1735.45 1544.47 1737.68 1545.03 Q1739.9 1545.58 1742.37 1545.58 Q1746.38 1545.58 1748.72 1543.48 Q1751.06 1541.37 1751.06 1537.76 Q1751.06 1534.15 1748.72 1532.04 Q1746.38 1529.94 1742.37 1529.94 Q1740.5 1529.94 1738.62 1530.35 Q1736.77 1530.77 1734.83 1531.65 L1734.83 1514.29 Z" fill="#000000" fill-rule="nonzero" fill-opacity="1" /><path clip-path="url(#clip550)" d="M1774.94 1517.37 Q1771.33 1517.37 1769.5 1520.93 Q1767.7 1524.47 1767.7 1531.6 Q1767.7 1538.71 1769.5 1542.27 Q1771.33 1545.82 1774.94 1545.82 Q1778.58 1545.82 1780.38 1542.27 Q1782.21 1538.71 1782.21 1531.6 Q1782.21 1524.47 1780.38 1520.93 Q1778.58 1517.37 1774.94 1517.37 M1774.94 1513.66 Q1780.75 1513.66 1783.81 1518.27 Q1786.89 1522.85 1786.89 1531.6 Q1786.89 1540.33 1783.81 1544.94 Q1780.75 1549.52 1774.94 1549.52 Q1769.13 1549.52 1766.06 1544.94 Q1763 1540.33 1763 1531.6 Q1763 1522.85 1766.06 1518.27 Q1769.13 1513.66 1774.94 1513.66 Z" fill="#000000" fill-rule="nonzero" fill-opacity="1" /><path clip-path="url(#clip550)" d="M1805.11 1517.37 Q1801.49 1517.37 1799.67 1520.93 Q1797.86 1524.47 1797.86 1531.6 Q1797.86 1538.71 1799.67 1542.27 Q1801.49 1545.82 1805.11 1545.82 Q1808.74 1545.82 1810.55 1542.27 Q1812.37 1538.71 1812.37 1531.6 Q1812.37 1524.47 1810.55 1520.93 Q1808.74 1517.37 1805.11 1517.37 M1805.11 1513.66 Q1810.92 1513.66 1813.97 1518.27 Q1817.05 1522.85 1817.05 1531.6 Q1817.05 1540.33 1813.97 1544.94 Q1810.92 1549.52 1805.11 1549.52 Q1799.3 1549.52 1796.22 1544.94 Q1793.16 1540.33 1793.16 1531.6 Q1793.16 1522.85 1796.22 1518.27 Q1799.3 1513.66 1805.11 1513.66 Z" fill="#000000" fill-rule="nonzero" fill-opacity="1" /><path clip-path="url(#clip550)" d="M2237.95 1544.91 L2254.27 1544.91 L2254.27 1548.85 L2232.33 1548.85 L2232.33 1544.91 Q2234.99 1542.16 2239.58 1537.53 Q2244.18 1532.88 2245.36 1531.53 Q2247.61 1529.01 2248.49 1527.27 Q2249.39 1525.51 2249.39 1523.82 Q2249.39 1521.07 2247.45 1519.33 Q2245.52 1517.6 2242.42 1517.6 Q2240.22 1517.6 2237.77 1518.36 Q2235.34 1519.13 2232.56 1520.68 L2232.56 1515.95 Q2235.39 1514.82 2237.84 1514.24 Q2240.29 1513.66 2242.33 1513.66 Q2247.7 1513.66 2250.89 1516.35 Q2254.09 1519.03 2254.09 1523.52 Q2254.09 1525.65 2253.28 1527.57 Q2252.49 1529.47 2250.39 1532.07 Q2249.81 1532.74 2246.7 1535.95 Q2243.6 1539.15 2237.95 1544.91 Z" fill="#000000" fill-rule="nonzero" fill-opacity="1" /><path clip-path="url(#clip550)" d="M2274.09 1517.37 Q2270.48 1517.37 2268.65 1520.93 Q2266.84 1524.47 2266.84 1531.6 Q2266.84 1538.71 2268.65 1542.27 Q2270.48 1545.82 2274.09 1545.82 Q2277.72 1545.82 2279.53 1542.27 Q2281.36 1538.71 2281.36 1531.6 Q2281.36 1524.47 2279.53 1520.93 Q2277.72 1517.37 2274.09 1517.37 M2274.09 1513.66 Q2279.9 1513.66 2282.95 1518.27 Q2286.03 1522.85 2286.03 1531.6 Q2286.03 1540.33 2282.95 1544.94 Q2279.9 1549.52 2274.09 1549.52 Q2268.28 1549.52 2265.2 1544.94 Q2262.14 1540.33 2262.14 1531.6 Q2262.14 1522.85 2265.2 1518.27 Q2268.28 1513.66 2274.09 1513.66 Z" fill="#000000" fill-rule="nonzero" fill-opacity="1" /><path clip-path="url(#clip550)" d="M2304.25 1517.37 Q2300.64 1517.37 2298.81 1520.93 Q2297.01 1524.47 2297.01 1531.6 Q2297.01 1538.71 2298.81 1542.27 Q2300.64 1545.82 2304.25 1545.82 Q2307.88 1545.82 2309.69 1542.27 Q2311.52 1538.71 2311.52 1531.6 Q2311.52 1524.47 2309.69 1520.93 Q2307.88 1517.37 2304.25 1517.37 M2304.25 1513.66 Q2310.06 1513.66 2313.12 1518.27 Q2316.2 1522.85 2316.2 1531.6 Q2316.2 1540.33 2313.12 1544.94 Q2310.06 1549.52 2304.25 1549.52 Q2298.44 1549.52 2295.36 1544.94 Q2292.31 1540.33 2292.31 1531.6 Q2292.31 1522.85 2295.36 1518.27 Q2298.44 1513.66 2304.25 1513.66 Z" fill="#000000" fill-rule="nonzero" fill-opacity="1" /><path clip-path="url(#clip550)" d="M2334.41 1517.37 Q2330.8 1517.37 2328.97 1520.93 Q2327.17 1524.47 2327.17 1531.6 Q2327.17 1538.71 2328.97 1542.27 Q2330.8 1545.82 2334.41 1545.82 Q2338.05 1545.82 2339.85 1542.27 Q2341.68 1538.71 2341.68 1531.6 Q2341.68 1524.47 2339.85 1520.93 Q2338.05 1517.37 2334.41 1517.37 M2334.41 1513.66 Q2340.22 1513.66 2343.28 1518.27 Q2346.36 1522.85 2346.36 1531.6 Q2346.36 1540.33 2343.28 1544.94 Q2340.22 1549.52 2334.41 1549.52 Q2328.6 1549.52 2325.52 1544.94 Q2322.47 1540.33 2322.47 1531.6 Q2322.47 1522.85 2325.52 1518.27 Q2328.6 1513.66 2334.41 1513.66 Z" fill="#000000" fill-rule="nonzero" fill-opacity="1" /><polyline clip-path="url(#clip552)" style="stroke:#000000; stroke-linecap:round; stroke-linejoin:round; stroke-width:2; stroke-opacity:0.1; fill:none" points="112.177,1364.02 2352.76,1364.02 "/>
<polyline clip-path="url(#clip552)" style="stroke:#000000; stroke-linecap:round; stroke-linejoin:round; stroke-width:2; stroke-opacity:0.1; fill:none" points="112.177,1113.02 2352.76,1113.02 "/>
<polyline clip-path="url(#clip552)" style="stroke:#000000; stroke-linecap:round; stroke-linejoin:round; stroke-width:2; stroke-opacity:0.1; fill:none" points="112.177,862.025 2352.76,862.025 "/>
<polyline clip-path="url(#clip552)" style="stroke:#000000; stroke-linecap:round; stroke-linejoin:round; stroke-width:2; stroke-opacity:0.1; fill:none" points="112.177,611.024 2352.76,611.024 "/>
<polyline clip-path="url(#clip552)" style="stroke:#000000; stroke-linecap:round; stroke-linejoin:round; stroke-width:2; stroke-opacity:0.1; fill:none" points="112.177,360.024 2352.76,360.024 "/>
<polyline clip-path="url(#clip552)" style="stroke:#000000; stroke-linecap:round; stroke-linejoin:round; stroke-width:2; stroke-opacity:0.1; fill:none" points="112.177,109.024 2352.76,109.024 "/>
<polyline clip-path="url(#clip550)" style="stroke:#000000; stroke-linecap:round; stroke-linejoin:round; stroke-width:4; stroke-opacity:1; fill:none" points="112.177,1486.45 112.177,47.2441 "/>
<polyline clip-path="url(#clip550)" style="stroke:#000000; stroke-linecap:round; stroke-linejoin:round; stroke-width:4; stroke-opacity:1; fill:none" points="112.177,1364.02 131.075,1364.02 "/>
<polyline clip-path="url(#clip550)" style="stroke:#000000; stroke-linecap:round; stroke-linejoin:round; stroke-width:4; stroke-opacity:1; fill:none" points="112.177,1113.02 131.075,1113.02 "/>
<polyline clip-path="url(#clip550)" style="stroke:#000000; stroke-linecap:round; stroke-linejoin:round; stroke-width:4; stroke-opacity:1; fill:none" points="112.177,862.025 131.075,862.025 "/>
<polyline clip-path="url(#clip550)" style="stroke:#000000; stroke-linecap:round; stroke-linejoin:round; stroke-width:4; stroke-opacity:1; fill:none" points="112.177,611.024 131.075,611.024 "/>
<polyline clip-path="url(#clip550)" style="stroke:#000000; stroke-linecap:round; stroke-linejoin:round; stroke-width:4; stroke-opacity:1; fill:none" points="112.177,360.024 131.075,360.024 "/>
<polyline clip-path="url(#clip550)" style="stroke:#000000; stroke-linecap:round; stroke-linejoin:round; stroke-width:4; stroke-opacity:1; fill:none" points="112.177,109.024 131.075,109.024 "/>
<path clip-path="url(#clip550)" d="M56.2699 1377.37 L63.9087 1377.37 L63.9087 1351 L55.5986 1352.67 L55.5986 1348.41 L63.8624 1346.74 L68.5383 1346.74 L68.5383 1377.37 L76.1772 1377.37 L76.1772 1381.3 L56.2699 1381.3 L56.2699 1377.37 Z" fill="#000000" fill-rule="nonzero" fill-opacity="1" /><path clip-path="url(#clip550)" d="M59.8578 1126.37 L76.1772 1126.37 L76.1772 1130.3 L54.2328 1130.3 L54.2328 1126.37 Q56.8949 1123.61 61.4782 1118.99 Q66.0846 1114.33 67.2652 1112.99 Q69.5105 1110.47 70.3902 1108.73 Q71.2929 1106.97 71.2929 1105.28 Q71.2929 1102.53 69.3485 1100.79 Q67.4272 1099.05 64.3254 1099.05 Q62.1263 1099.05 59.6726 1099.82 Q57.2421 1100.58 54.4643 1102.13 L54.4643 1097.41 Q57.2884 1096.28 59.7421 1095.7 Q62.1958 1095.12 64.2328 1095.12 Q69.6031 1095.12 72.7976 1097.8 Q75.992 1100.49 75.992 1104.98 Q75.992 1107.11 75.1818 1109.03 Q74.3948 1110.93 72.2883 1113.52 Q71.7096 1114.19 68.6078 1117.41 Q65.5059 1120.61 59.8578 1126.37 Z" fill="#000000" fill-rule="nonzero" fill-opacity="1" /><path clip-path="url(#clip550)" d="M69.0476 860.67 Q72.404 861.388 74.279 863.656 Q76.1772 865.925 76.1772 869.258 Q76.1772 874.374 72.6587 877.175 Q69.1402 879.976 62.6587 879.976 Q60.4828 879.976 58.168 879.536 Q55.8764 879.119 53.4227 878.263 L53.4227 873.749 Q55.3671 874.883 57.6819 875.462 Q59.9967 876.041 62.5198 876.041 Q66.918 876.041 69.2096 874.305 Q71.5244 872.568 71.5244 869.258 Q71.5244 866.203 69.3717 864.49 Q67.242 862.754 63.4226 862.754 L59.3949 862.754 L59.3949 858.911 L63.6078 858.911 Q67.0569 858.911 68.8855 857.545 Q70.7142 856.157 70.7142 853.564 Q70.7142 850.902 68.8161 849.49 Q66.9411 848.055 63.4226 848.055 Q61.5013 848.055 59.3023 848.471 Q57.1032 848.888 54.4643 849.768 L54.4643 845.601 Q57.1264 844.86 59.4412 844.49 Q61.7791 844.12 63.8393 844.12 Q69.1633 844.12 72.2652 846.55 Q75.367 848.957 75.367 853.078 Q75.367 855.948 73.7235 857.939 Q72.08 859.906 69.0476 860.67 Z" fill="#000000" fill-rule="nonzero" fill-opacity="1" /><path clip-path="url(#clip550)" d="M66.5939 597.818 L54.7884 616.267 L66.5939 616.267 L66.5939 597.818 M65.367 593.744 L71.2466 593.744 L71.2466 616.267 L76.1772 616.267 L76.1772 620.156 L71.2466 620.156 L71.2466 628.304 L66.5939 628.304 L66.5939 620.156 L50.9921 620.156 L50.9921 615.642 L65.367 593.744 Z" fill="#000000" fill-rule="nonzero" fill-opacity="1" /><path clip-path="url(#clip550)" d="M55.2745 342.744 L73.6309 342.744 L73.6309 346.679 L59.5569 346.679 L59.5569 355.152 Q60.5754 354.804 61.5939 354.642 Q62.6124 354.457 63.6309 354.457 Q69.418 354.457 72.7976 357.628 Q76.1772 360.8 76.1772 366.216 Q76.1772 371.795 72.705 374.897 Q69.2328 377.976 62.9134 377.976 Q60.7374 377.976 58.4689 377.605 Q56.2236 377.235 53.8162 376.494 L53.8162 371.795 Q55.8995 372.929 58.1217 373.485 Q60.3439 374.04 62.8208 374.04 Q66.8254 374.04 69.1633 371.934 Q71.5013 369.827 71.5013 366.216 Q71.5013 362.605 69.1633 360.499 Q66.8254 358.392 62.8208 358.392 Q60.9458 358.392 59.0708 358.809 Q57.2189 359.226 55.2745 360.105 L55.2745 342.744 Z" fill="#000000" fill-rule="nonzero" fill-opacity="1" /><path clip-path="url(#clip550)" d="M64.6495 107.161 Q61.5013 107.161 59.6495 109.313 Q57.8208 111.466 57.8208 115.216 Q57.8208 118.943 59.6495 121.119 Q61.5013 123.272 64.6495 123.272 Q67.7976 123.272 69.6263 121.119 Q71.4781 118.943 71.4781 115.216 Q71.4781 111.466 69.6263 109.313 Q67.7976 107.161 64.6495 107.161 M73.9318 92.508 L73.9318 96.7672 Q72.1726 95.9339 70.367 95.4941 Q68.5846 95.0543 66.8254 95.0543 Q62.1958 95.0543 59.7421 98.1793 Q57.3115 101.304 56.9643 107.624 Q58.33 105.61 60.3902 104.545 Q62.4504 103.457 64.9272 103.457 Q70.1355 103.457 73.1448 106.628 Q76.1772 109.776 76.1772 115.216 Q76.1772 120.54 73.029 123.758 Q69.8809 126.975 64.6495 126.975 Q58.6541 126.975 55.4828 122.392 Q52.3116 117.786 52.3116 109.059 Q52.3116 100.864 56.2004 96.0033 Q60.0893 91.1191 66.6402 91.1191 Q68.3994 91.1191 70.1818 91.4663 Q71.9874 91.8135 73.9318 92.508 Z" fill="#000000" fill-rule="nonzero" fill-opacity="1" /><polyline clip-path="url(#clip552)" style="stroke:#009af9; stroke-linecap:round; stroke-linejoin:round; stroke-width:4; stroke-opacity:1; fill:none" points="175.59,1130.24 176.647,1130.58 177.704,1025.97 178.76,1026.89 179.817,1131.24 180.874,1131.54 181.931,1401.6 182.988,1401.67 184.045,1312.29 185.102,1312.38 186.159,1399.68 187.215,1399.75 188.272,1198.59 189.329,1198.92 190.386,1084.1 191.443,1084.38 192.5,915.862 193.557,916.573 194.614,1313.48 195.67,1313.62 196.727,1146.01 197.784,1146.31 198.841,1329.24 199.898,1329.32 200.955,1145.28 202.012,1145.77 203.069,1329.95 204.125,1330.04 205.182,1171.29 206.239,1171.48 207.296,1222.18 208.353,1222.53 209.41,1077.47 210.467,1077.92 211.524,1205.22 212.58,1205.47 213.637,1272.37 214.694,1272.69 215.751,657.098 216.808,657.677 217.865,511.39 218.922,512.374 219.979,1445.66 221.035,1445.72 222.092,1438.36 223.149,1438.43 224.206,1052.2 225.263,1052.55 226.32,1188.81 227.377,1189.08 228.434,890.195 229.49,890.671 230.547,1186.82 231.604,1187.25 232.661,1297.76 233.718,1297.85 234.775,1043.49 235.832,1044.04 236.889,1129.51 237.946,1129.79 239.002,1049.6 240.059,1050.24 241.116,1329.51 242.173,1329.66 243.23,873.859 244.287,874.652 245.344,1374.53 246.401,1374.62 247.457,1274.45 248.514,1274.67 249.571,923.181 250.628,923.789 251.685,986.952 252.742,987.338 253.799,1057.71 254.856,1058.21 255.912,678.61 256.969,679.179 258.026,1127.55 259.083,1127.9 260.14,1368.81 261.197,1368.9 262.254,1376.15 263.311,1376.24 264.367,1061.61 265.424,1062.07 266.481,1255.65 267.538,1255.85 268.595,1260.89 269.652,1261 270.709,1174.19 271.766,1174.46 272.822,1329.69 273.879,1329.89 274.936,934.091 275.993,934.63 277.05,1349.25 278.107,1349.43 279.164,1167.54 280.221,1167.86 281.277,1063.34 282.334,1063.72 283.391,690.856 284.448,691.37 285.505,1066.63 286.562,1066.97 287.619,1352.11 288.676,1352.21 289.732,1334.44 290.789,1334.58 291.846,712.56 292.903,713.681 293.96,1173.81 295.017,1174.02 296.074,1291.12 297.131,1291.47 298.187,1239.75 299.244,1239.96 300.301,1204.57 301.358,1204.78 302.415,1324.83 303.472,1324.97 304.529,1068.13 305.586,1068.86 306.642,1264.36 307.699,1264.51 308.756,1302.86 309.813,1302.99 310.87,1206.36 311.927,1206.51 312.984,1420.06 314.041,1420.19 315.098,1202.52 316.154,1202.89 317.211,1211.91 318.268,1212.2 319.325,1307.07 320.382,1307.25 321.439,1292.39 322.496,1292.56 323.553,1204.42 324.609,1204.56 325.666,1024.24 326.723,1024.61 327.78,462.992 328.837,465.589 329.894,1310.05 330.951,1310.12 332.008,1161.6 333.064,1161.9 334.121,1054.49 335.178,1054.91 336.235,1251.54 337.292,1251.83 338.349,1357.92 339.406,1358.08 340.463,1132.58 341.519,1132.89 342.576,876.665 343.633,877.451 344.69,967.162 345.747,967.691 346.804,1340.31 347.861,1340.49 348.918,1424.05 349.974,1424.1 351.031,1103.41 352.088,1103.77 353.145,1135.6 354.202,1135.88 355.259,1134.46 356.316,1135.01 357.373,1126.75 358.429,1126.99 359.486,673.556 360.543,674.07 361.6,1314.11 362.657,1314.21 363.714,1181.87 364.771,1182.03 365.828,1302.92 366.884,1303.07 367.941,1260.24 368.998,1260.5 370.055,1021.78 371.112,1022.35 372.169,963.405 373.226,964.152 374.283,1043.18 375.339,1043.78 376.396,990.75 377.453,991.216 378.51,1256.62 379.567,1256.85 380.624,1116.77 381.681,1117.35 382.738,1332.74 383.795,1332.86 384.851,1097.96 385.908,1098.47 386.965,1232.66 388.022,1232.81 389.079,917.309 390.136,917.683 391.193,1311.26 392.25,1311.39 393.306,1306.02 394.363,1306.15 395.42,1231.19 396.477,1231.33 397.534,1007.98 398.591,1008.34 399.648,1309.35 400.705,1309.49 401.761,1370.07 402.818,1370.16 403.875,695.194 404.932,695.692 405.989,1208.15 407.046,1208.3 408.103,1295.63 409.16,1295.8 410.216,1326.08 411.273,1326.23 412.33,1375.74 413.387,1375.88 414.444,1204.64 415.501,1204.98 416.558,940.297 417.615,940.736 418.671,1260.95 419.728,1261.04 420.785,1382.04 421.842,1382.13 422.899,1148.28 423.956,1148.49 425.013,1198.46 426.07,1198.65 427.126,1186.78 428.183,1186.93 429.24,1074.01 430.297,1074.4 431.354,1378.13 432.411,1378.22 433.468,1391.03 434.525,1391.12 435.581,1198.47 436.638,1198.61 437.695,864.104 438.752,864.698 439.809,1031.35 440.866,1031.7 441.923,1149.75 442.98,1150.02 444.036,932.431 445.093,932.795 446.15,986.854 447.207,987.305 448.264,1204.1 449.321,1204.46 450.378,1050.58 451.435,1050.92 452.491,1214.44 453.548,1214.67 454.605,1312.11 455.662,1312.24 456.719,1030.76 457.776,1031.11 458.833,1185.92 459.89,1186.22 460.947,1094.15 462.003,1094.37 463.06,1215.04 464.117,1215.37 465.174,1175.25 466.231,1175.43 467.288,1268.9 468.345,1269.04 469.402,1200.61 470.458,1200.76 471.515,1123.79 472.572,1124.24 473.629,1080.15 474.686,1080.46 475.743,1156.75 476.8,1157.01 477.857,1222.2 478.913,1222.32 479.97,1147.28 481.027,1147.49 482.084,1217.99 483.141,1218.16 484.198,1043.14 485.255,1043.44 486.312,1197.29 487.368,1197.5 488.425,1284.22 489.482,1284.41 490.539,772.583 491.596,773.464 492.653,1208.58 493.71,1208.74 494.767,1185.09 495.823,1185.3 496.88,1028.11 497.937,1028.43 498.994,990.725 500.051,991.097 501.108,1154.37 502.165,1154.64 503.222,996.662 504.278,997.02 505.335,1122.9 506.392,1123.12 507.449,1413.42 508.506,1413.49 509.563,1180.7 510.62,1180.87 511.677,1078.71 512.733,1078.95 513.79,1188.82 514.847,1188.98 515.904,1224.71 516.961,1224.93 518.018,1212.82 519.075,1213.12 520.132,1234.96 521.188,1235.19 522.245,1071.79 523.302,1072.05 524.359,1159.47 525.416,1159.64 526.473,1233.58 527.53,1233.68 528.587,1131.58 529.643,1131.86 530.7,1072.94 531.757,1073.19 532.814,1313.12 533.871,1313.24 534.928,1043.94 535.985,1044.31 537.042,1096.69 538.099,1097.01 539.155,845.776 540.212,846.756 541.269,780.919 542.326,781.835 543.383,1234.06 544.44,1234.32 545.497,1157.63 546.554,1157.83 547.61,1183.91 548.667,1184.05 549.724,1106.67 550.781,1106.84 551.838,1189.61 552.895,1189.95 553.952,1237.76 555.009,1238 556.065,1165.85 557.122,1166.24 558.179,1132.61 559.236,1132.76 560.293,1042.97 561.35,1043.27 562.407,1347.17 563.464,1347.29 564.52,1192.58 565.577,1192.89 566.634,1185.04 567.691,1185.17 568.748,1153.27 569.805,1153.57 570.862,1362.8 571.919,1362.88 572.975,1061.87 574.032,1062.28 575.089,1115.71 576.146,1116.06 577.203,1184.14 578.26,1184.29 579.317,958.955 580.374,959.467 581.43,1073.63 582.487,1073.88 583.544,1295.17 584.601,1295.35 585.658,1074.67 586.715,1074.87 587.772,838.805 588.829,839.514 589.885,1172.32 590.942,1172.74 591.999,1162.3 593.056,1162.48 594.113,1234.56 595.17,1234.71 596.227,1346.03 597.284,1346.21 598.34,1196.57 599.397,1196.78 600.454,1225.53 601.511,1225.65 602.568,1273.52 603.625,1273.68 604.682,1310.7 605.739,1310.88 606.795,733.155 607.852,734.179 608.909,994.117 609.966,994.505 611.023,1137.23 612.08,1137.66 613.137,821.977 614.194,822.767 615.251,944.775 616.307,945.203 617.364,746.746 618.421,747.291 619.478,1216.01 620.535,1216.26 621.592,554.89 622.649,556.374 623.706,1259.95 624.762,1260.11 625.819,1185.7 626.876,1185.92 627.933,1289.9 628.99,1290.03 630.047,964.218 631.104,964.604 632.161,954.773 633.217,955.194 634.274,1088.9 635.331,1089.2 636.388,1194.07 637.445,1194.19 638.502,918.594 639.559,919.127 640.616,898.361 641.672,898.772 642.729,1252.23 643.786,1252.41 644.843,1211.88 645.9,1211.98 646.957,911.015 648.014,911.35 649.071,1121.56 650.127,1121.78 651.184,1157.83 652.241,1158.02 653.298,1256.27 654.355,1256.42 655.412,1236.84 656.469,1236.96 657.526,1107.74 658.582,1107.9 659.639,860.08 660.696,860.68 661.753,1252.1 662.81,1252.34 663.867,1053.68 664.924,1053.96 665.981,1169.08 667.037,1169.29 668.094,1053.4 669.151,1053.64 670.208,1126.33 671.265,1126.49 672.322,1117.33 673.379,1117.5 674.436,1040.66 675.492,1040.98 676.549,1151.97 677.606,1152.38 678.663,1014.07 679.72,1014.53 680.777,1148.95 681.834,1149.13 682.891,1188.87 683.948,1188.97 685.004,845.982 686.061,846.553 687.118,1193.18 688.175,1193.38 689.232,1236.81 690.289,1237.03 691.346,1215.43 692.403,1215.68 693.459,1112.59 694.516,1112.78 695.573,1099.44 696.63,1099.71 697.687,1069.53 698.744,1069.73 699.801,1191.46 700.858,1191.79 701.914,1042.66 702.971,1042.94 704.028,1181.67 705.085,1181.81 706.142,1051.5 707.199,1051.75 708.256,826.785 709.313,827.652 710.369,1210.53 711.426,1210.75 712.483,1138.95 713.54,1139.31 714.597,1273.09 715.654,1273.16 716.711,533.23 717.768,534.091 718.824,1051.57 719.881,1052.05 720.938,1114.29 721.995,1114.51 723.052,1066.38 724.109,1066.59 725.166,1056.06 726.223,1056.25 727.279,1097.83 728.336,1098.03 729.393,1133.66 730.45,1133.82 731.507,1131.62 732.564,1131.82 733.621,833.768 734.678,834.405 735.734,979.94 736.791,980.36 737.848,1216.18 738.905,1216.29 739.962,1024.04 741.019,1024.3 742.076,980.497 743.133,980.788 744.189,1169.91 745.246,1170.18 746.303,1129.95 747.36,1130.08 748.417,1187.34 749.474,1187.56 750.531,1181.47 751.588,1181.6 752.644,1372.78 753.701,1372.86 754.758,965.449 755.815,965.705 756.872,1105.66 757.929,1105.78 758.986,835.848 760.043,836.562 761.1,1159.53 762.156,1159.71 763.213,1144.87 764.27,1144.99 765.327,971.036 766.384,971.341 767.441,1013 768.498,1013.35 769.555,1180.2 770.611,1180.37 771.668,1256.51 772.725,1256.68 773.782,1106.67 774.839,1106.92 775.896,739.71 776.953,740.185 778.01,1282.52 779.066,1282.66 780.123,1191.09 781.18,1191.2 782.237,982.765 783.294,983.109 784.351,1168.5 785.408,1168.72 786.465,1134.14 787.521,1134.34 788.578,1212.61 789.635,1212.84 790.692,892.985 791.749,893.388 792.806,1003.77 793.863,1004.06 794.92,1027.42 795.976,1027.75 797.033,892.783 798.09,893.342 799.147,984.322 800.204,984.589 801.261,1021.88 802.318,1022.16 803.375,1092.43 804.431,1092.7 805.488,967.621 806.545,967.968 807.602,1222.64 808.659,1222.93 809.716,1267.33 810.773,1267.4 811.83,1198.71 812.886,1198.96 813.943,1138.45 815,1138.65 816.057,478.758 817.114,479.359 818.171,1010.23 819.228,1010.54 820.285,1019.34 821.341,1019.83 822.398,1177.15 823.455,1177.3 824.512,1059.74 825.569,1059.94 826.626,1164.15 827.683,1164.25 828.74,1188 829.796,1188.26 830.853,1301.56 831.91,1301.64 832.967,1242.14 834.024,1242.32 835.081,1243.92 836.138,1244.08 837.195,1135.68 838.252,1135.81 839.308,1216.95 840.365,1217.13 841.422,1177.06 842.479,1177.23 843.536,1145.68 844.593,1145.86 845.65,1093.6 846.707,1093.81 847.763,1110.32 848.82,1110.5 849.877,1181.59 850.934,1181.67 851.991,1109.09 853.048,1109.39 854.105,1095.86 855.162,1096.08 856.218,1183.18 857.275,1183.31 858.332,956.336 859.389,956.641 860.446,1074.82 861.503,1074.97 862.56,1129.97 863.617,1130.15 864.673,657.686 865.73,658.151 866.787,1056.42 867.844,1056.58 868.901,1019.87 869.958,1020.2 871.015,1120.8 872.072,1120.91 873.128,1135.49 874.185,1135.65 875.242,1187.15 876.299,1187.39 877.356,1094.46 878.413,1094.75 879.47,1267.71 880.527,1267.83 881.583,1101.63 882.64,1101.89 883.697,1255.93 884.754,1256.11 885.811,1280.72 886.868,1280.83 887.925,1154.71 888.982,1154.85 890.038,1157.81 891.095,1157.94 892.152,1115.06 893.209,1115.35 894.266,883.293 895.323,883.659 896.38,1150.73 897.437,1151.11 898.493,1076.68 899.55,1076.85 900.607,1060.79 901.664,1061.02 902.721,1349.74 903.778,1349.82 904.835,1005.67 905.892,1005.91 906.948,1080.84 908.005,1081.13 909.062,1064.1 910.119,1064.31 911.176,1240.69 912.233,1240.76 913.29,662.489 914.347,662.96 915.404,1246.96 916.46,1247.18 917.517,1205.73 918.574,1205.83 919.631,1167.85 920.688,1167.98 921.745,665.403 922.802,666.394 923.859,845.803 924.915,846.364 925.972,1151.28 927.029,1151.41 928.086,974.504 929.143,974.771 930.2,800.434 931.257,800.938 932.314,893.44 933.37,893.782 934.427,1067.08 935.484,1067.26 936.541,1103.58 937.598,1103.7 938.655,1078.16 939.712,1078.54 940.769,1227.18 941.825,1227.33 942.882,981.259 943.939,981.54 944.996,996.583 946.053,996.842 947.11,1096.52 948.167,1096.87 949.224,1280.63 950.28,1280.79 951.337,1188.22 952.394,1188.39 953.451,1132.55 954.508,1132.74 955.565,1091.77 956.622,1091.87 957.679,1179.43 958.735,1179.56 959.792,816.145 960.849,816.656 961.906,1170.41 962.963,1170.58 964.02,1226.51 965.077,1226.66 966.134,906.02 967.19,906.318 968.247,1065.63 969.304,1065.84 970.361,1168.23 971.418,1168.42 972.475,1220.6 973.532,1220.67 974.589,1131.09 975.645,1131.18 976.702,1073.48 977.759,1073.62 978.816,1030.8 979.873,1031.01 980.93,1009.78 981.987,1009.98 983.044,1024.66 984.101,1024.85 985.157,1024.85 986.214,1025.1 987.271,1265.97 988.328,1266.14 989.385,1255.25 990.442,1255.38 991.499,1112.49 992.556,1112.64 993.612,1170.39 994.669,1170.67 995.726,1119.1 996.783,1119.58 997.84,790.917 998.897,791.437 999.954,1143.54 1001.01,1143.62 1002.07,992.47 1003.12,992.686 1004.18,1200.87 1005.24,1201.02 1006.29,969.439 1007.35,969.714 1008.41,1125.44 1009.47,1125.53 1010.52,934.05 1011.58,934.325 1012.64,1125.11 1013.69,1125.19 1014.75,1151.55 1015.81,1151.71 1016.86,1092.24 1017.92,1092.38 1018.98,1020.12 1020.03,1020.31 1021.09,1145.35 1022.15,1145.55 1023.2,727.462 1024.26,728.133 1025.32,1217.05 1026.38,1217.13 1027.43,1113.61 1028.49,1113.79 1029.55,1216.06 1030.6,1216.14 1031.66,1013.58 1032.72,1013.74 1033.77,1092.06 1034.83,1092.18 1035.89,1064.13 1036.94,1064.29 1038,1009.43 1039.06,1009.68 1040.11,844.537 1041.17,844.975 1042.23,1105.2 1043.29,1105.32 1044.34,1170.84 1045.4,1170.98 1046.46,1282.52 1047.51,1282.57 1048.57,1215.84 1049.63,1216.07 1050.68,1064.12 1051.74,1064.24 1052.8,1056.86 1053.85,1057.04 1054.91,1115.69 1055.97,1115.83 1057.02,1175.46 1058.08,1175.55 1059.14,1169.55 1060.2,1169.62 1061.25,1282.15 1062.31,1282.3 1063.37,1028.17 1064.42,1028.47 1065.48,1085.83 1066.54,1086 1067.59,1020.57 1068.65,1020.76 1069.71,942.318 1070.76,942.635 1071.82,1117.76 1072.88,1117.86 1073.94,1140.05 1074.99,1140.23 1076.05,1137.05 1077.11,1137.13 1078.16,1194.64 1079.22,1194.79 1080.28,596.782 1081.33,598.337 1082.39,1232.14 1083.45,1232.29 1084.5,1132.17 1085.56,1132.31 1086.62,1081.76 1087.67,1081.87 1088.73,1213.76 1089.79,1213.86 1090.85,1086.97 1091.9,1087.09 1092.96,1269.95 1094.02,1270.11 1095.07,1043.92 1096.13,1044.47 1097.19,1129.31 1098.24,1129.41 1099.3,1110.58 1100.36,1110.68 1101.41,1111.29 1102.47,1111.38 1103.53,996.553 1104.58,996.746 1105.64,1210.21 1106.7,1210.41 1107.76,1108.82 1108.81,1109.01 1109.87,1280 1110.93,1280.1 1111.98,923.659 1113.04,923.966 1114.1,986.574 1115.15,986.776 1116.21,1170.4 1117.27,1170.52 1118.32,1316.88 1119.38,1316.96 1120.44,981.634 1121.49,981.903 1122.55,943.123 1123.61,943.338 1124.67,1139.63 1125.72,1139.74 1126.78,1073.68 1127.84,1073.8 1128.89,1050.24 1129.95,1050.38 1131.01,1168.57 1132.06,1168.68 1133.12,1254.24 1134.18,1254.37 1135.23,1108.28 1136.29,1108.45 1137.35,1035.67 1138.4,1035.81 1139.46,862.561 1140.52,863.025 1141.58,925.007 1142.63,925.517 1143.69,1185.85 1144.75,1185.94 1145.8,1120.6 1146.86,1120.77 1147.92,1267.69 1148.97,1267.82 1150.03,1133.59 1151.09,1133.66 1152.14,1178.15 1153.2,1178.24 1154.26,936.487 1155.31,936.832 1156.37,1018.65 1157.43,1018.85 1158.49,1056.92 1159.54,1057.04 1160.6,1061.21 1161.66,1061.34 1162.71,1195.34 1163.77,1195.42 1164.83,1227.16 1165.88,1227.32 1166.94,1036.08 1168,1036.2 1169.05,958.59 1170.11,958.821 1171.17,1154.22 1172.22,1154.3 1173.28,999.051 1174.34,999.245 1175.4,1054.72 1176.45,1054.95 1177.51,858.989 1178.57,859.498 1179.62,1154.53 1180.68,1154.61 1181.74,1182.72 1182.79,1182.8 1183.85,1155.15 1184.91,1155.23 1185.96,1023.14 1187.02,1023.38 1188.08,1043.45 1189.13,1043.55 1190.19,1015.69 1191.25,1015.86 1192.31,1140.94 1193.36,1141.06 1194.42,973.359 1195.48,973.569 1196.53,1030.76 1197.59,1030.96 1198.65,1098.59 1199.7,1098.69 1200.76,1127.87 1201.82,1128.02 1202.87,1231.12 1203.93,1231.27 1204.99,1213.8 1206.04,1213.89 1207.1,1092.32 1208.16,1092.45 1209.22,1137.85 1210.27,1137.94 1211.33,1191.7 1212.39,1191.81 1213.44,954.729 1214.5,955.015 1215.56,1145.89 1216.61,1146.01 1217.67,1176.82 1218.73,1176.9 1219.78,1006.82 1220.84,1006.97 1221.9,835.625 1222.95,836.034 1224.01,1041.07 1225.07,1041.17 1226.13,1104.75 1227.18,1104.9 1228.24,1130.85 1229.3,1130.94 1230.35,1128.7 1231.41,1128.8 1232.47,1092.51 1233.52,1092.62 1234.58,1161.35 1235.64,1161.43 1236.69,1124.45 1237.75,1124.62 1238.81,1083.73 1239.86,1083.9 1240.92,1022.49 1241.98,1022.62 1243.04,1200.89 1244.09,1200.96 1245.15,1206.71 1246.21,1206.78 1247.26,784.688 1248.32,785.13 1249.38,1058.37 1250.43,1058.51 1251.49,1223.7 1252.55,1223.8 1253.6,993.884 1254.66,994.06 1255.72,966.054 1256.77,966.231 1257.83,946.572 1258.89,946.856 1259.95,1047.77 1261,1048.02 1262.06,787.589 1263.12,788.09 1264.17,1033.36 1265.23,1033.49 1266.29,953.002 1267.34,953.261 1268.4,820.975 1269.46,821.391 1270.51,1050.1 1271.57,1050.23 1272.63,922.837 1273.68,923.104 1274.74,1070.22 1275.8,1070.32 1276.86,1069.83 1277.91,1070 1278.97,1199.37 1280.03,1199.44 1281.08,1149.93 1282.14,1150.06 1283.2,1147.55 1284.25,1147.75 1285.31,1188.67 1286.37,1188.74 1287.42,1133.75 1288.48,1133.96 1289.54,1054.41 1290.59,1054.56 1291.65,1081.15 1292.71,1081.23 1293.77,1193.05 1294.82,1193.12 1295.88,1126.63 1296.94,1126.74 1297.99,1101.84 1299.05,1101.94 1300.11,1154.34 1301.16,1154.43 1302.22,1181.24 1303.28,1181.33 1304.33,927.318 1305.39,927.538 1306.45,1137.99 1307.5,1138.05 1308.56,1121.47 1309.62,1121.55 1310.68,950.998 1311.73,951.194 1312.79,1112.48 1313.85,1112.56 1314.9,1070.64 1315.96,1070.76 1317.02,1028.99 1318.07,1029.17 1319.13,1153.8 1320.19,1153.89 1321.24,1266.64 1322.3,1266.77 1323.36,1086.53 1324.41,1086.61 1325.47,891.925 1326.53,892.266 1327.59,853.027 1328.64,853.348 1329.7,1025.25 1330.76,1025.41 1331.81,928.777 1332.87,929.003 1333.93,915.408 1334.98,915.612 1336.04,1037.94 1337.1,1038.05 1338.15,1102.23 1339.21,1102.33 1340.27,1051.75 1341.32,1051.84 1342.38,1071.22 1343.44,1071.3 1344.5,1130.96 1345.55,1131.02 1346.61,861.611 1347.67,861.891 1348.72,1216.99 1349.78,1217.19 1350.84,1317.3 1351.89,1317.45 1352.95,1087.7 1354.01,1087.86 1355.06,1218.92 1356.12,1219.03 1357.18,966.116 1358.23,966.308 1359.29,1201.95 1360.35,1202.05 1361.41,1013.01 1362.46,1013.14 1363.52,918.714 1364.58,919.084 1365.63,964.222 1366.69,964.408 1367.75,979.948 1368.8,980.138 1369.86,1240.86 1370.92,1240.97 1371.97,931.395 1373.03,931.622 1374.09,1210.49 1375.14,1210.6 1376.2,1159.91 1377.26,1159.98 1378.32,1141.76 1379.37,1141.87 1380.43,635.198 1381.49,635.689 1382.54,1262.12 1383.6,1262.19 1384.66,679.829 1385.71,680.73 1386.77,1146.97 1387.83,1147.03 1388.88,992.265 1389.94,992.498 1391,1026.59 1392.05,1026.69 1393.11,1145.92 1394.17,1146.04 1395.23,1081.81 1396.28,1081.89 1397.34,917.848 1398.4,918.032 1399.45,1238.16 1400.51,1238.3 1401.57,1169.77 1402.62,1169.83 1403.68,1141.31 1404.74,1141.37 1405.79,778.466 1406.85,778.989 1407.91,1264.81 1408.96,1264.88 1410.02,995.422 1411.08,995.764 1412.14,1068.19 1413.19,1068.3 1414.25,1112 1415.31,1112.11 1416.36,1065.95 1417.42,1066.02 1418.48,1172.28 1419.53,1172.41 1420.59,1096.96 1421.65,1097.02 1422.7,931.445 1423.76,931.631 1424.82,1119.64 1425.87,1119.73 1426.93,1046.3 1427.99,1046.39 1429.05,1029.07 1430.1,1029.21 1431.16,799.727 1432.22,800.195 1433.27,949.363 1434.33,949.557 1435.39,977.041 1436.44,977.201 1437.5,1047.59 1438.56,1047.72 1439.61,789.188 1440.67,789.838 1441.73,1106.81 1442.79,1106.88 1443.84,1160.46 1444.9,1160.53 1445.96,994.529 1447.01,994.656 1448.07,1120.39 1449.13,1120.45 1450.18,860.062 1451.24,860.415 1452.3,1162.61 1453.35,1162.7 1454.41,995.385 1455.47,995.567 1456.52,1100.93 1457.58,1101.01 1458.64,1083.02 1459.7,1083.15 1460.75,1181.88 1461.81,1182.03 1462.87,996.552 1463.92,996.663 1464.98,893.465 1466.04,893.803 1467.09,994.143 1468.15,994.301 1469.21,1032.21 1470.26,1032.32 1471.32,964.183 1472.38,964.363 1473.43,979.615 1474.49,979.78 1475.55,781.925 1476.61,782.517 1477.66,1092.13 1478.72,1092.29 1479.78,1046.67 1480.83,1046.79 1481.89,1120.92 1482.95,1121 1484,1039.72 1485.06,1039.79 1486.12,1072.36 1487.17,1072.43 1488.23,955.311 1489.29,955.529 1490.34,1156.81 1491.4,1156.87 1492.46,860.578 1493.52,860.959 1494.57,1012.16 1495.63,1012.25 1496.69,802.59 1497.74,802.953 1498.8,1113.27 1499.86,1113.34 1500.91,1142.24 1501.97,1142.29 1503.03,946.955 1504.08,947.149 1505.14,1121.22 1506.2,1121.37 1507.25,923.028 1508.31,923.241 1509.37,1005.01 1510.43,1005.12 1511.48,1128.66 1512.54,1128.75 1513.6,732.853 1514.65,733.672 1515.71,867.79 1516.77,868.161 1517.82,1107.02 1518.88,1107.14 1519.94,1142.11 1520.99,1142.19 1522.05,881.541 1523.11,881.866 1524.16,1035.54 1525.22,1035.68 1526.28,1132.6 1527.34,1132.65 1528.39,746.403 1529.45,746.849 1530.51,1207.49 1531.56,1207.66 1532.62,958.615 1533.68,958.857 1534.73,1081.37 1535.79,1081.43 1536.85,1019.98 1537.9,1020.12 1538.96,1150.47 1540.02,1150.64 1541.07,1185.78 1542.13,1185.89 1543.19,1016.9 1544.25,1017.03 1545.3,1015.43 1546.36,1015.53 1547.42,973.124 1548.47,973.246 1549.53,1060.11 1550.59,1060.21 1551.64,983.554 1552.7,983.694 1553.76,1024.48 1554.81,1024.56 1555.87,1274.41 1556.93,1274.51 1557.98,1146.75 1559.04,1146.83 1560.1,978.452 1561.16,978.581 1562.21,700.776 1563.27,701.486 1564.33,888.876 1565.38,889.202 1566.44,1006.61 1567.5,1006.75 1568.55,1035.96 1569.61,1036.06 1570.67,1175.58 1571.72,1175.72 1572.78,850.573 1573.84,850.941 1574.89,919.304 1575.95,919.539 1577.01,1196.83 1578.07,1196.94 1579.12,972.592 1580.18,972.74 1581.24,962.456 1582.29,962.641 1583.35,906.598 1584.41,906.833 1585.46,1100.59 1586.52,1100.66 1587.58,720.476 1588.63,721.468 1589.69,1126.56 1590.75,1126.67 1591.8,1070.07 1592.86,1070.2 1593.92,1144.88 1594.98,1145.04 1596.03,1163.36 1597.09,1163.46 1598.15,1037.73 1599.2,1037.81 1600.26,1239.68 1601.32,1239.8 1602.37,1009.33 1603.43,1009.47 1604.49,1034.92 1605.54,1035 1606.6,811.192 1607.66,811.572 1608.71,1055.85 1609.77,1055.93 1610.83,958.386 1611.89,958.537 1612.94,984.089 1614,984.307 1615.06,1047.79 1616.11,1047.94 1617.17,914.43 1618.23,914.674 1619.28,1150.56 1620.34,1150.74 1621.4,858.089 1622.45,858.494 1623.51,883.258 1624.57,883.528 1625.62,1023.9 1626.68,1024 1627.74,744.193 1628.8,744.853 1629.85,907.823 1630.91,908.121 1631.97,882.145 1633.02,882.425 1634.08,1113.78 1635.14,1113.94 1636.19,980.459 1637.25,980.558 1638.31,1137.68 1639.36,1137.8 1640.42,980.91 1641.48,981.037 1642.53,1076.03 1643.59,1076.09 1644.65,1119.81 1645.71,1119.86 1646.76,1015.88 1647.82,1015.97 1648.88,1177.01 1649.93,1177.19 1650.99,998.79 1652.05,998.919 1653.1,883.507 1654.16,883.866 1655.22,1017.88 1656.27,1017.96 1657.33,1083.49 1658.39,1083.61 1659.44,1089.62 1660.5,1089.69 1661.56,924.857 1662.62,925.059 1663.67,1096.88 1664.73,1096.96 1665.79,990.566 1666.84,990.669 1667.9,1032.14 1668.96,1032.23 1670.01,887.965 1671.07,888.188 1672.13,1074.5 1673.18,1074.59 1674.24,976.357 1675.3,976.569 1676.35,982.651 1677.41,982.774 1678.47,718.914 1679.53,719.704 1680.58,1158.86 1681.64,1158.94 1682.7,936.562 1683.75,936.946 1684.81,1049.61 1685.87,1049.67 1686.92,884.507 1687.98,884.846 1689.04,971.87 1690.09,972.031 1691.15,1115.57 1692.21,1115.65 1693.26,1025.02 1694.32,1025.2 1695.38,933.189 1696.44,933.39 1697.49,1162.34 1698.55,1162.53 1699.61,797.616 1700.66,798.076 1701.72,861.209 1702.78,861.546 1703.83,1105.82 1704.89,1105.9 1705.95,1144.27 1707,1144.37 1708.06,1046.31 1709.12,1046.44 1710.17,1019.38 1711.23,1019.47 1712.29,1067.81 1713.35,1067.88 1714.4,965.506 1715.46,965.664 1716.52,1140.83 1717.57,1141 1718.63,1005.03 1719.69,1005.17 1720.74,967.905 1721.8,968.093 1722.86,1052.15 1723.91,1052.21 1724.97,1124.24 1726.03,1124.29 1727.08,909.614 1728.14,909.841 1729.2,696.841 1730.26,697.779 1731.31,1079.68 1732.37,1079.77 1733.43,1154.18 1734.48,1154.21 1735.54,876.95 1736.6,877.21 1737.65,1039.97 1738.71,1040.06 1739.77,1088.21 1740.82,1088.3 1741.88,897.338 1742.94,897.533 1743.99,1087.75 1745.05,1087.83 1746.11,1115.58 1747.17,1115.65 1748.22,1002.24 1749.28,1002.32 1750.34,803.856 1751.39,804.54 1752.45,1047.99 1753.51,1048.05 1754.56,1160.69 1755.62,1160.89 1756.68,719.779 1757.73,720.436 1758.79,1146.22 1759.85,1146.46 1760.9,1013.43 1761.96,1013.57 1763.02,1042.89 1764.08,1042.98 1765.13,1040.89 1766.19,1040.99 1767.25,1133.45 1768.3,1133.51 1769.36,966.923 1770.42,967.123 1771.47,1188.55 1772.53,1188.62 1773.59,805.561 1774.64,805.89 1775.7,1133.45 1776.76,1133.6 1777.81,934.473 1778.87,934.755 1779.93,949.587 1780.99,949.741 1782.04,1133.65 1783.1,1133.74 1784.16,936.709 1785.21,936.85 1786.27,917.309 1787.33,917.59 1788.38,1184.62 1789.44,1184.7 1790.5,1102.92 1791.55,1102.99 1792.61,939.698 1793.67,939.902 1794.72,914.741 1795.78,915.002 1796.84,1089.61 1797.9,1089.68 1798.95,1106.05 1800.01,1106.09 1801.07,1154.44 1802.12,1154.49 1803.18,1112 1804.24,1112.05 1805.29,798.127 1806.35,798.779 1807.41,919.448 1808.46,919.555 1809.52,1151.42 1810.58,1151.51 1811.64,1162.86 1812.69,1162.95 1813.75,1130.52 1814.81,1130.75 1815.86,1012.85 1816.92,1012.92 1817.98,1010.75 1819.03,1010.9 1820.09,876.52 1821.15,876.75 1822.2,946.917 1823.26,947.079 1824.32,805.906 1825.37,806.381 1826.43,1077.36 1827.49,1077.42 1828.55,976.367 1829.6,976.489 1830.66,1015.69 1831.72,1015.75 1832.77,693.645 1833.83,694.322 1834.89,1163.15 1835.94,1163.22 1837,1036.09 1838.06,1036.23 1839.11,874.479 1840.17,874.742 1841.23,894.371 1842.28,894.698 1843.34,1041.94 1844.4,1042.09 1845.46,917.58 1846.51,917.727 1847.57,1104.61 1848.63,1104.72 1849.68,904.077 1850.74,904.225 1851.8,949.664 1852.85,949.912 1853.91,892.131 1854.97,892.35 1856.02,1007.69 1857.08,1007.79 1858.14,839.976 1859.19,840.255 1860.25,823.849 1861.31,824.251 1862.37,997.513 1863.42,997.611 1864.48,863.643 1865.54,863.871 1866.59,1124.66 1867.65,1124.78 1868.71,1151.36 1869.76,1151.43 1870.82,1015.35 1871.88,1015.56 1872.93,1077.85 1873.99,1077.99 1875.05,967.362 1876.1,967.596 1877.16,906.773 1878.22,907.018 1879.28,1056.95 1880.33,1057.07 1881.39,1110.81 1882.45,1110.86 1883.5,870.184 1884.56,870.478 1885.62,1112.57 1886.67,1112.63 1887.73,896.716 1888.79,896.911 1889.84,1082.37 1890.9,1082.43 1891.96,1111.46 1893.01,1111.51 1894.07,939.1 1895.13,939.261 1896.19,794.214 1897.24,794.537 1898.3,1171.22 1899.36,1171.36 1900.41,1001.63 1901.47,1001.68 1902.53,1134.49 1903.58,1134.57 1904.64,848.291 1905.7,848.616 1906.75,918.978 1907.81,919.144 1908.87,1005.57 1909.92,1005.67 1910.98,999.523 1912.04,999.701 1913.1,945.861 1914.15,946.029 1915.21,590.836 1916.27,591.485 1917.32,909.931 1918.38,910.062 1919.44,988.621 1920.49,988.758 1921.55,1054.12 1922.61,1054.2 1923.66,971.657 1924.72,971.816 1925.78,945.083 1926.83,945.211 1927.89,907.06 1928.95,907.17 1930.01,964.284 1931.06,964.367 1932.12,1115.38 1933.18,1115.43 1934.23,834.089 1935.29,834.391 1936.35,318.422 1937.4,319.91 1938.46,1150.15 1939.52,1150.25 1940.57,1008.58 1941.63,1008.71 1942.69,1008.91 1943.74,1009.11 1944.8,505.976 1945.86,506.82 1946.92,1052.91 1947.97,1052.97 1949.03,864.078 1950.09,864.382 1951.14,943.048 1952.2,943.148 1953.26,995.918 1954.31,996.051 1955.37,1003.05 1956.43,1003.16 1957.48,1024.9 1958.54,1024.98 1959.6,1193.21 1960.65,1193.28 1961.71,983.394 1962.77,983.492 1963.83,924.254 1964.88,924.357 1965.94,833.317 1967,833.642 1968.05,1011.99 1969.11,1012.07 1970.17,823.757 1971.22,824.011 1972.28,910.573 1973.34,910.884 1974.39,1044.06 1975.45,1044.17 1976.51,891.801 1977.56,891.957 1978.62,1071.95 1979.68,1072.03 1980.74,1125.04 1981.79,1125.16 1982.85,1053.66 1983.91,1053.75 1984.96,1041.69 1986.02,1041.85 1987.08,969.041 1988.13,969.236 1989.19,1092.98 1990.25,1093.02 1991.3,988.809 1992.36,988.874 1993.42,1103.88 1994.47,1104 1995.53,853.013 1996.59,853.32 1997.65,964.967 1998.7,965.095 1999.76,994.794 2000.82,994.878 2001.87,1064.86 2002.93,1064.99 2003.99,1015.01 2005.04,1015.14 2006.1,997.055 2007.16,997.132 2008.21,1023.29 2009.27,1023.34 2010.33,897.427 2011.38,897.568 2012.44,892.837 2013.5,893.059 2014.56,955.158 2015.61,955.241 2016.67,824.488 2017.73,825.032 2018.78,1034.4 2019.84,1034.46 2020.9,967.488 2021.95,967.63 2023.01,1028.4 2024.07,1028.45 2025.12,1018.05 2026.18,1018.11 2027.24,993.289 2028.29,993.399 2029.35,977.752 2030.41,977.827 2031.47,960.749 2032.52,960.855 2033.58,821.498 2034.64,821.764 2035.69,920.837 2036.75,920.985 2037.81,821.814 2038.86,822.192 2039.92,918.927 2040.98,919.07 2042.03,1107.15 2043.09,1107.19 2044.15,884.657 2045.2,884.853 2046.26,737.519 2047.32,737.962 2048.38,967.456 2049.43,967.574 2050.49,1043.01 2051.55,1043.07 2052.6,1197.61 2053.66,1197.66 2054.72,1083.13 2055.77,1083.18 2056.83,890.368 2057.89,890.569 2058.94,983.992 2060,984.107 2061.06,1129.04 2062.11,1129.1 2063.17,1088.13 2064.23,1088.19 2065.29,1073.94 2066.34,1074.01 2067.4,1044.36 2068.46,1044.47 2069.51,1011.56 2070.57,1011.64 2071.63,1088.24 2072.68,1088.33 2073.74,1021.8 2074.8,1021.92 2075.85,951.212 2076.91,951.311 2077.97,1095.24 2079.02,1095.3 2080.08,1014.46 2081.14,1014.52 2082.2,1060.95 2083.25,1061.02 2084.31,764.737 2085.37,765.186 2086.42,1085.39 2087.48,1085.51 2088.54,963.807 2089.59,963.885 2090.65,1056.67 2091.71,1056.73 2092.76,953.753 2093.82,953.939 2094.88,776.137 2095.93,776.668 2096.99,1014.98 2098.05,1015.12 2099.11,1148.6 2100.16,1148.73 2101.22,910.447 2102.28,910.629 2103.33,781.672 2104.39,782.086 2105.45,963.138 2106.5,963.212 2107.56,1082.55 2108.62,1082.6 2109.67,960.693 2110.73,960.774 2111.79,928.459 2112.84,928.629 2113.9,982.763 2114.96,982.854 2116.02,934.168 2117.07,934.297 2118.13,849.731 2119.19,849.968 2120.24,1004.55 2121.3,1004.62 2122.36,737.059 2123.41,737.516 2124.47,1096.08 2125.53,1096.22 2126.58,1091.31 2127.64,1091.37 2128.7,953.324 2129.75,953.433 2130.81,847.589 2131.87,847.867 2132.93,950.383 2133.98,950.606 2135.04,996.93 2136.1,997.003 2137.15,874.168 2138.21,874.462 2139.27,1078.11 2140.32,1078.17 2141.38,841.151 2142.44,841.499 2143.49,888.623 2144.55,888.888 2145.61,930.234 2146.66,930.388 2147.72,738.725 2148.78,739.452 2149.84,1027.67 2150.89,1027.78 2151.95,865.151 2153.01,865.336 2154.06,942.224 2155.12,942.366 2156.18,878.031 2157.23,878.176 2158.29,1038.39 2159.35,1038.45 2160.4,896.369 2161.46,896.792 2162.52,1001.24 2163.57,1001.32 2164.63,824.503 2165.69,824.748 2166.75,1026 2167.8,1026.2 2168.86,1028.12 2169.92,1028.22 2170.97,1004.47 2172.03,1004.53 2173.09,995.498 2174.14,995.574 2175.2,974.782 2176.26,974.883 2177.31,792.606 2178.37,792.936 2179.43,955.685 2180.48,955.742 2181.54,949.815 2182.6,949.942 2183.66,1062.79 2184.71,1062.94 2185.77,1112.66 2186.83,1112.77 2187.88,981.829 2188.94,981.938 2190,865.881 2191.05,866.126 2192.11,941.639 2193.17,941.783 2194.22,848.165 2195.28,848.451 2196.34,894.889 2197.4,895.128 2198.45,875.665 2199.51,875.867 2200.57,965.069 2201.62,965.129 2202.68,87.9763 2203.74,89.6251 2204.79,1006.38 2205.85,1006.46 2206.91,892.91 2207.96,893.042 2209.02,1003.32 2210.08,1003.38 2211.13,1021.58 2212.19,1021.64 2213.25,893.392 2214.31,893.509 2215.36,1007.09 2216.42,1007.24 2217.48,1049.47 2218.53,1049.67 2219.59,993.039 2220.65,993.22 2221.7,898.241 2222.76,898.371 2223.82,826.192 2224.87,826.57 2225.93,971.472 2226.99,971.646 2228.04,836.835 2229.1,837.131 2230.16,922.184 2231.22,922.252 2232.27,1129.13 2233.33,1129.19 2234.39,892.91 2235.44,893.091 2236.5,740.78 2237.56,741.258 2238.61,972.856 2239.67,972.945 2240.73,1075.16 2241.78,1075.33 2242.84,880.251 2243.9,880.403 2244.95,976.628 2246.01,976.685 2247.07,803.135 2248.13,803.489 2249.18,854.488 2250.24,854.695 2251.3,1070.44 2252.35,1070.52 2253.41,921.135 2254.47,921.219 2255.52,956.668 2256.58,956.779 2257.64,1167.28 2258.69,1167.46 2259.75,928.201 2260.81,928.299 2261.86,986.187 2262.92,986.313 2263.98,949.801 2265.04,949.874 2266.09,885.855 2267.15,886.156 2268.21,1119.01 2269.26,1119.11 2270.32,909.52 2271.38,909.656 2272.43,907.659 2273.49,907.876 2274.55,972.992 2275.6,973.112 2276.66,878.594 2277.72,878.866 2278.77,858.404 2279.83,858.648 2280.89,966.663 2281.95,966.728 2283,877.497 2284.06,877.869 2285.12,975.611 2286.17,975.656 2287.23,921.797 2288.29,921.929 2289.34,922.061 "/>
<path clip-path="url(#clip550)" d="M186.863 198.898 L463.351 198.898 L463.351 95.2176 L186.863 95.2176  Z" fill="#ffffff" fill-rule="evenodd" fill-opacity="1"/>
<polyline clip-path="url(#clip550)" style="stroke:#000000; stroke-linecap:round; stroke-linejoin:round; stroke-width:4; stroke-opacity:1; fill:none" points="186.863,198.898 463.351,198.898 463.351,95.2176 186.863,95.2176 186.863,198.898 "/>
<polyline clip-path="url(#clip550)" style="stroke:#009af9; stroke-linecap:round; stroke-linejoin:round; stroke-width:4; stroke-opacity:1; fill:none" points="211.758,147.058 361.13,147.058 "/>
<path clip-path="url(#clip550)" d="M399.868 166.745 Q398.063 171.375 396.35 172.787 Q394.637 174.199 391.766 174.199 L388.364 174.199 L388.364 170.634 L390.864 170.634 Q392.623 170.634 393.595 169.8 Q394.567 168.967 395.748 165.865 L396.512 163.921 L386.026 138.412 L390.54 138.412 L398.641 158.689 L406.743 138.412 L411.257 138.412 L399.868 166.745 Z" fill="#000000" fill-rule="nonzero" fill-opacity="1" /><path clip-path="url(#clip550)" d="M418.549 160.402 L426.188 160.402 L426.188 134.037 L417.877 135.703 L417.877 131.444 L426.141 129.778 L430.817 129.778 L430.817 160.402 L438.456 160.402 L438.456 164.338 L418.549 164.338 L418.549 160.402 Z" fill="#000000" fill-rule="nonzero" fill-opacity="1" /></svg>
