<?xml version="1.0" encoding="utf-8"?>
<svg xmlns="http://www.w3.org/2000/svg" xmlns:xlink="http://www.w3.org/1999/xlink" width="600" height="400" viewBox="0 0 2400 1600">
<defs>
  <clipPath id="clip810">
    <rect x="0" y="0" width="2400" height="1600"/>
  </clipPath>
</defs>
<path clip-path="url(#clip810)" d="M0 1600 L2400 1600 L2400 0 L0 0  Z" fill="#ffffff" fill-rule="evenodd" fill-opacity="1"/>
<defs>
  <clipPath id="clip811">
    <rect x="480" y="0" width="1681" height="1600"/>
  </clipPath>
</defs>
<path clip-path="url(#clip810)" d="M209.029 1486.45 L2352.76 1486.45 L2352.76 47.2441 L209.029 47.2441  Z" fill="#ffffff" fill-rule="evenodd" fill-opacity="1"/>
<defs>
  <clipPath id="clip812">
    <rect x="209" y="47" width="2145" height="1440"/>
  </clipPath>
</defs>
<polyline clip-path="url(#clip812)" style="stroke:#000000; stroke-linecap:round; stroke-linejoin:round; stroke-width:2; stroke-opacity:0.1; fill:none" points="269.7,1486.45 269.7,47.2441 "/>
<polyline clip-path="url(#clip812)" style="stroke:#000000; stroke-linecap:round; stroke-linejoin:round; stroke-width:2; stroke-opacity:0.1; fill:none" points="775.296,1486.45 775.296,47.2441 "/>
<polyline clip-path="url(#clip812)" style="stroke:#000000; stroke-linecap:round; stroke-linejoin:round; stroke-width:2; stroke-opacity:0.1; fill:none" points="1280.89,1486.45 1280.89,47.2441 "/>
<polyline clip-path="url(#clip812)" style="stroke:#000000; stroke-linecap:round; stroke-linejoin:round; stroke-width:2; stroke-opacity:0.1; fill:none" points="1786.49,1486.45 1786.49,47.2441 "/>
<polyline clip-path="url(#clip812)" style="stroke:#000000; stroke-linecap:round; stroke-linejoin:round; stroke-width:2; stroke-opacity:0.1; fill:none" points="2292.08,1486.45 2292.08,47.2441 "/>
<polyline clip-path="url(#clip810)" style="stroke:#000000; stroke-linecap:round; stroke-linejoin:round; stroke-width:4; stroke-opacity:1; fill:none" points="209.029,1486.45 2352.76,1486.45 "/>
<polyline clip-path="url(#clip810)" style="stroke:#000000; stroke-linecap:round; stroke-linejoin:round; stroke-width:4; stroke-opacity:1; fill:none" points="269.7,1486.45 269.7,1467.55 "/>
<polyline clip-path="url(#clip810)" style="stroke:#000000; stroke-linecap:round; stroke-linejoin:round; stroke-width:4; stroke-opacity:1; fill:none" points="775.296,1486.45 775.296,1467.55 "/>
<polyline clip-path="url(#clip810)" style="stroke:#000000; stroke-linecap:round; stroke-linejoin:round; stroke-width:4; stroke-opacity:1; fill:none" points="1280.89,1486.45 1280.89,1467.55 "/>
<polyline clip-path="url(#clip810)" style="stroke:#000000; stroke-linecap:round; stroke-linejoin:round; stroke-width:4; stroke-opacity:1; fill:none" points="1786.49,1486.45 1786.49,1467.55 "/>
<polyline clip-path="url(#clip810)" style="stroke:#000000; stroke-linecap:round; stroke-linejoin:round; stroke-width:4; stroke-opacity:1; fill:none" points="2292.08,1486.45 2292.08,1467.55 "/>
<path clip-path="url(#clip810)" d="M269.7 1517.37 Q266.089 1517.37 264.26 1520.93 Q262.455 1524.47 262.455 1531.6 Q262.455 1538.71 264.26 1542.27 Q266.089 1545.82 269.7 1545.82 Q273.334 1545.82 275.14 1542.27 Q276.969 1538.71 276.969 1531.6 Q276.969 1524.47 275.14 1520.93 Q273.334 1517.37 269.7 1517.37 M269.7 1513.66 Q275.51 1513.66 278.566 1518.27 Q281.644 1522.85 281.644 1531.6 Q281.644 1540.33 278.566 1544.94 Q275.51 1549.52 269.7 1549.52 Q263.89 1549.52 260.811 1544.94 Q257.756 1540.33 257.756 1531.6 Q257.756 1522.85 260.811 1518.27 Q263.89 1513.66 269.7 1513.66 Z" fill="#000000" fill-rule="nonzero" fill-opacity="1" /><path clip-path="url(#clip810)" d="M734.914 1514.29 L753.271 1514.29 L753.271 1518.22 L739.197 1518.22 L739.197 1526.7 Q740.215 1526.35 741.234 1526.19 Q742.252 1526 743.271 1526 Q749.058 1526 752.437 1529.17 Q755.817 1532.34 755.817 1537.76 Q755.817 1543.34 752.345 1546.44 Q748.873 1549.52 742.553 1549.52 Q740.377 1549.52 738.109 1549.15 Q735.863 1548.78 733.456 1548.04 L733.456 1543.34 Q735.539 1544.47 737.762 1545.03 Q739.984 1545.58 742.461 1545.58 Q746.465 1545.58 748.803 1543.48 Q751.141 1541.37 751.141 1537.76 Q751.141 1534.15 748.803 1532.04 Q746.465 1529.94 742.461 1529.94 Q740.586 1529.94 738.711 1530.35 Q736.859 1530.77 734.914 1531.65 L734.914 1514.29 Z" fill="#000000" fill-rule="nonzero" fill-opacity="1" /><path clip-path="url(#clip810)" d="M775.03 1517.37 Q771.419 1517.37 769.59 1520.93 Q767.785 1524.47 767.785 1531.6 Q767.785 1538.71 769.59 1542.27 Q771.419 1545.82 775.03 1545.82 Q778.664 1545.82 780.47 1542.27 Q782.298 1538.71 782.298 1531.6 Q782.298 1524.47 780.47 1520.93 Q778.664 1517.37 775.03 1517.37 M775.03 1513.66 Q780.84 1513.66 783.896 1518.27 Q786.974 1522.85 786.974 1531.6 Q786.974 1540.33 783.896 1544.94 Q780.84 1549.52 775.03 1549.52 Q769.22 1549.52 766.141 1544.94 Q763.086 1540.33 763.086 1531.6 Q763.086 1522.85 766.141 1518.27 Q769.22 1513.66 775.03 1513.66 Z" fill="#000000" fill-rule="nonzero" fill-opacity="1" /><path clip-path="url(#clip810)" d="M805.192 1517.37 Q801.581 1517.37 799.752 1520.93 Q797.946 1524.47 797.946 1531.6 Q797.946 1538.71 799.752 1542.27 Q801.581 1545.82 805.192 1545.82 Q808.826 1545.82 810.632 1542.27 Q812.46 1538.71 812.46 1531.6 Q812.46 1524.47 810.632 1520.93 Q808.826 1517.37 805.192 1517.37 M805.192 1513.66 Q811.002 1513.66 814.057 1518.27 Q817.136 1522.85 817.136 1531.6 Q817.136 1540.33 814.057 1544.94 Q811.002 1549.52 805.192 1549.52 Q799.382 1549.52 796.303 1544.94 Q793.247 1540.33 793.247 1531.6 Q793.247 1522.85 796.303 1518.27 Q799.382 1513.66 805.192 1513.66 Z" fill="#000000" fill-rule="nonzero" fill-opacity="1" /><path clip-path="url(#clip810)" d="M1225.42 1544.91 L1233.06 1544.91 L1233.06 1518.55 L1224.75 1520.21 L1224.75 1515.95 L1233.01 1514.29 L1237.69 1514.29 L1237.69 1544.91 L1245.33 1544.91 L1245.33 1548.85 L1225.42 1548.85 L1225.42 1544.91 Z" fill="#000000" fill-rule="nonzero" fill-opacity="1" /><path clip-path="url(#clip810)" d="M1264.77 1517.37 Q1261.16 1517.37 1259.33 1520.93 Q1257.52 1524.47 1257.52 1531.6 Q1257.52 1538.71 1259.33 1542.27 Q1261.16 1545.82 1264.77 1545.82 Q1268.4 1545.82 1270.21 1542.27 Q1272.04 1538.71 1272.04 1531.6 Q1272.04 1524.47 1270.21 1520.93 Q1268.4 1517.37 1264.77 1517.37 M1264.77 1513.66 Q1270.58 1513.66 1273.64 1518.27 Q1276.71 1522.85 1276.71 1531.6 Q1276.71 1540.33 1273.64 1544.94 Q1270.58 1549.52 1264.77 1549.52 Q1258.96 1549.52 1255.88 1544.94 Q1252.83 1540.33 1252.83 1531.6 Q1252.83 1522.85 1255.88 1518.27 Q1258.96 1513.66 1264.77 1513.66 Z" fill="#000000" fill-rule="nonzero" fill-opacity="1" /><path clip-path="url(#clip810)" d="M1294.93 1517.37 Q1291.32 1517.37 1289.49 1520.93 Q1287.69 1524.47 1287.69 1531.6 Q1287.69 1538.71 1289.49 1542.27 Q1291.32 1545.82 1294.93 1545.82 Q1298.57 1545.82 1300.37 1542.27 Q1302.2 1538.71 1302.2 1531.6 Q1302.2 1524.47 1300.37 1520.93 Q1298.57 1517.37 1294.93 1517.37 M1294.93 1513.66 Q1300.74 1513.66 1303.8 1518.27 Q1306.88 1522.85 1306.88 1531.6 Q1306.88 1540.33 1303.8 1544.94 Q1300.74 1549.52 1294.93 1549.52 Q1289.12 1549.52 1286.04 1544.94 Q1282.99 1540.33 1282.99 1531.6 Q1282.99 1522.85 1286.04 1518.27 Q1289.12 1513.66 1294.93 1513.66 Z" fill="#000000" fill-rule="nonzero" fill-opacity="1" /><path clip-path="url(#clip810)" d="M1325.09 1517.37 Q1321.48 1517.37 1319.65 1520.93 Q1317.85 1524.47 1317.85 1531.6 Q1317.85 1538.71 1319.65 1542.27 Q1321.48 1545.82 1325.09 1545.82 Q1328.73 1545.82 1330.53 1542.27 Q1332.36 1538.71 1332.36 1531.6 Q1332.36 1524.47 1330.53 1520.93 Q1328.73 1517.37 1325.09 1517.37 M1325.09 1513.66 Q1330.9 1513.66 1333.96 1518.27 Q1337.04 1522.85 1337.04 1531.6 Q1337.04 1540.33 1333.96 1544.94 Q1330.9 1549.52 1325.09 1549.52 Q1319.28 1549.52 1316.2 1544.94 Q1313.15 1540.33 1313.15 1531.6 Q1313.15 1522.85 1316.2 1518.27 Q1319.28 1513.66 1325.09 1513.66 Z" fill="#000000" fill-rule="nonzero" fill-opacity="1" /><path clip-path="url(#clip810)" d="M1731.01 1544.91 L1738.65 1544.91 L1738.65 1518.55 L1730.34 1520.21 L1730.34 1515.95 L1738.61 1514.29 L1743.28 1514.29 L1743.28 1544.91 L1750.92 1544.91 L1750.92 1548.85 L1731.01 1548.85 L1731.01 1544.91 Z" fill="#000000" fill-rule="nonzero" fill-opacity="1" /><path clip-path="url(#clip810)" d="M1760.41 1514.29 L1778.77 1514.29 L1778.77 1518.22 L1764.69 1518.22 L1764.69 1526.7 Q1765.71 1526.35 1766.73 1526.19 Q1767.75 1526 1768.77 1526 Q1774.56 1526 1777.94 1529.17 Q1781.31 1532.34 1781.31 1537.76 Q1781.31 1543.34 1777.84 1546.44 Q1774.37 1549.52 1768.05 1549.52 Q1765.87 1549.52 1763.61 1549.15 Q1761.36 1548.78 1758.95 1548.04 L1758.95 1543.34 Q1761.04 1544.47 1763.26 1545.03 Q1765.48 1545.58 1767.96 1545.58 Q1771.96 1545.58 1774.3 1543.48 Q1776.64 1541.37 1776.64 1537.76 Q1776.64 1534.15 1774.3 1532.04 Q1771.96 1529.94 1767.96 1529.94 Q1766.08 1529.94 1764.21 1530.35 Q1762.36 1530.77 1760.41 1531.65 L1760.41 1514.29 Z" fill="#000000" fill-rule="nonzero" fill-opacity="1" /><path clip-path="url(#clip810)" d="M1800.53 1517.37 Q1796.92 1517.37 1795.09 1520.93 Q1793.28 1524.47 1793.28 1531.6 Q1793.28 1538.71 1795.09 1542.27 Q1796.92 1545.82 1800.53 1545.82 Q1804.16 1545.82 1805.97 1542.27 Q1807.8 1538.71 1807.8 1531.6 Q1807.8 1524.47 1805.97 1520.93 Q1804.16 1517.37 1800.53 1517.37 M1800.53 1513.66 Q1806.34 1513.66 1809.39 1518.27 Q1812.47 1522.85 1812.47 1531.6 Q1812.47 1540.33 1809.39 1544.94 Q1806.34 1549.52 1800.53 1549.52 Q1794.72 1549.52 1791.64 1544.94 Q1788.58 1540.33 1788.58 1531.6 Q1788.58 1522.85 1791.64 1518.27 Q1794.72 1513.66 1800.53 1513.66 Z" fill="#000000" fill-rule="nonzero" fill-opacity="1" /><path clip-path="url(#clip810)" d="M1830.69 1517.37 Q1827.08 1517.37 1825.25 1520.93 Q1823.44 1524.47 1823.44 1531.6 Q1823.44 1538.71 1825.25 1542.27 Q1827.08 1545.82 1830.69 1545.82 Q1834.32 1545.82 1836.13 1542.27 Q1837.96 1538.71 1837.96 1531.6 Q1837.96 1524.47 1836.13 1520.93 Q1834.32 1517.37 1830.69 1517.37 M1830.69 1513.66 Q1836.5 1513.66 1839.56 1518.27 Q1842.63 1522.85 1842.63 1531.6 Q1842.63 1540.33 1839.56 1544.94 Q1836.5 1549.52 1830.69 1549.52 Q1824.88 1549.52 1821.8 1544.94 Q1818.75 1540.33 1818.75 1531.6 Q1818.75 1522.85 1821.8 1518.27 Q1824.88 1513.66 1830.69 1513.66 Z" fill="#000000" fill-rule="nonzero" fill-opacity="1" /><path clip-path="url(#clip810)" d="M2240.7 1544.91 L2257.02 1544.91 L2257.02 1548.85 L2235.07 1548.85 L2235.07 1544.91 Q2237.73 1542.16 2242.32 1537.53 Q2246.92 1532.88 2248.1 1531.53 Q2250.35 1529.01 2251.23 1527.27 Q2252.13 1525.51 2252.13 1523.82 Q2252.13 1521.07 2250.19 1519.33 Q2248.27 1517.6 2245.16 1517.6 Q2242.96 1517.6 2240.51 1518.36 Q2238.08 1519.13 2235.3 1520.68 L2235.3 1515.95 Q2238.13 1514.82 2240.58 1514.24 Q2243.03 1513.66 2245.07 1513.66 Q2250.44 1513.66 2253.64 1516.35 Q2256.83 1519.03 2256.83 1523.52 Q2256.83 1525.65 2256.02 1527.57 Q2255.23 1529.47 2253.13 1532.07 Q2252.55 1532.74 2249.45 1535.95 Q2246.34 1539.15 2240.7 1544.91 Z" fill="#000000" fill-rule="nonzero" fill-opacity="1" /><path clip-path="url(#clip810)" d="M2276.83 1517.37 Q2273.22 1517.37 2271.39 1520.93 Q2269.58 1524.47 2269.58 1531.6 Q2269.58 1538.71 2271.39 1542.27 Q2273.22 1545.82 2276.83 1545.82 Q2280.46 1545.82 2282.27 1542.27 Q2284.1 1538.71 2284.1 1531.6 Q2284.1 1524.47 2282.27 1520.93 Q2280.46 1517.37 2276.83 1517.37 M2276.83 1513.66 Q2282.64 1513.66 2285.7 1518.27 Q2288.77 1522.85 2288.77 1531.6 Q2288.77 1540.33 2285.7 1544.94 Q2282.64 1549.52 2276.83 1549.52 Q2271.02 1549.52 2267.94 1544.94 Q2264.89 1540.33 2264.89 1531.6 Q2264.89 1522.85 2267.94 1518.27 Q2271.02 1513.66 2276.83 1513.66 Z" fill="#000000" fill-rule="nonzero" fill-opacity="1" /><path clip-path="url(#clip810)" d="M2306.99 1517.37 Q2303.38 1517.37 2301.55 1520.93 Q2299.75 1524.47 2299.75 1531.6 Q2299.75 1538.71 2301.55 1542.27 Q2303.38 1545.82 2306.99 1545.82 Q2310.63 1545.82 2312.43 1542.27 Q2314.26 1538.71 2314.26 1531.6 Q2314.26 1524.47 2312.43 1520.93 Q2310.63 1517.37 2306.99 1517.37 M2306.99 1513.66 Q2312.8 1513.66 2315.86 1518.27 Q2318.94 1522.85 2318.94 1531.6 Q2318.94 1540.33 2315.86 1544.94 Q2312.8 1549.52 2306.99 1549.52 Q2301.18 1549.52 2298.1 1544.94 Q2295.05 1540.33 2295.05 1531.6 Q2295.05 1522.85 2298.1 1518.27 Q2301.18 1513.66 2306.99 1513.66 Z" fill="#000000" fill-rule="nonzero" fill-opacity="1" /><path clip-path="url(#clip810)" d="M2337.15 1517.37 Q2333.54 1517.37 2331.71 1520.93 Q2329.91 1524.47 2329.91 1531.6 Q2329.91 1538.71 2331.71 1542.27 Q2333.54 1545.82 2337.15 1545.82 Q2340.79 1545.82 2342.59 1542.27 Q2344.42 1538.71 2344.42 1531.6 Q2344.42 1524.47 2342.59 1520.93 Q2340.79 1517.37 2337.15 1517.37 M2337.15 1513.66 Q2342.96 1513.66 2346.02 1518.27 Q2349.1 1522.85 2349.1 1531.6 Q2349.1 1540.33 2346.02 1544.94 Q2342.96 1549.52 2337.15 1549.52 Q2331.34 1549.52 2328.26 1544.94 Q2325.21 1540.33 2325.21 1531.6 Q2325.21 1522.85 2328.26 1518.27 Q2331.34 1513.66 2337.15 1513.66 Z" fill="#000000" fill-rule="nonzero" fill-opacity="1" /><polyline clip-path="url(#clip812)" style="stroke:#000000; stroke-linecap:round; stroke-linejoin:round; stroke-width:2; stroke-opacity:0.1; fill:none" points="209.029,1284.85 2352.76,1284.85 "/>
<polyline clip-path="url(#clip812)" style="stroke:#000000; stroke-linecap:round; stroke-linejoin:round; stroke-width:2; stroke-opacity:0.1; fill:none" points="209.029,1024.39 2352.76,1024.39 "/>
<polyline clip-path="url(#clip812)" style="stroke:#000000; stroke-linecap:round; stroke-linejoin:round; stroke-width:2; stroke-opacity:0.1; fill:none" points="209.029,763.939 2352.76,763.939 "/>
<polyline clip-path="url(#clip812)" style="stroke:#000000; stroke-linecap:round; stroke-linejoin:round; stroke-width:2; stroke-opacity:0.1; fill:none" points="209.029,503.484 2352.76,503.484 "/>
<polyline clip-path="url(#clip812)" style="stroke:#000000; stroke-linecap:round; stroke-linejoin:round; stroke-width:2; stroke-opacity:0.1; fill:none" points="209.029,243.029 2352.76,243.029 "/>
<polyline clip-path="url(#clip810)" style="stroke:#000000; stroke-linecap:round; stroke-linejoin:round; stroke-width:4; stroke-opacity:1; fill:none" points="209.029,1486.45 209.029,47.2441 "/>
<polyline clip-path="url(#clip810)" style="stroke:#000000; stroke-linecap:round; stroke-linejoin:round; stroke-width:4; stroke-opacity:1; fill:none" points="209.029,1284.85 227.926,1284.85 "/>
<polyline clip-path="url(#clip810)" style="stroke:#000000; stroke-linecap:round; stroke-linejoin:round; stroke-width:4; stroke-opacity:1; fill:none" points="209.029,1024.39 227.926,1024.39 "/>
<polyline clip-path="url(#clip810)" style="stroke:#000000; stroke-linecap:round; stroke-linejoin:round; stroke-width:4; stroke-opacity:1; fill:none" points="209.029,763.939 227.926,763.939 "/>
<polyline clip-path="url(#clip810)" style="stroke:#000000; stroke-linecap:round; stroke-linejoin:round; stroke-width:4; stroke-opacity:1; fill:none" points="209.029,503.484 227.926,503.484 "/>
<polyline clip-path="url(#clip810)" style="stroke:#000000; stroke-linecap:round; stroke-linejoin:round; stroke-width:4; stroke-opacity:1; fill:none" points="209.029,243.029 227.926,243.029 "/>
<path clip-path="url(#clip810)" d="M50.9921 1285.3 L80.6679 1285.3 L80.6679 1289.24 L50.9921 1289.24 L50.9921 1285.3 Z" fill="#000000" fill-rule="nonzero" fill-opacity="1" /><path clip-path="url(#clip810)" d="M104.927 1283.49 Q108.283 1284.21 110.158 1286.48 Q112.057 1288.75 112.057 1292.08 Q112.057 1297.2 108.538 1300 Q105.02 1302.8 98.5382 1302.8 Q96.3623 1302.8 94.0475 1302.36 Q91.7558 1301.94 89.3021 1301.09 L89.3021 1296.57 Q91.2465 1297.71 93.5613 1298.29 Q95.8761 1298.87 98.3993 1298.87 Q102.797 1298.87 105.089 1297.13 Q107.404 1295.39 107.404 1292.08 Q107.404 1289.03 105.251 1287.31 Q103.121 1285.58 99.3021 1285.58 L95.2743 1285.58 L95.2743 1281.74 L99.4872 1281.74 Q102.936 1281.74 104.765 1280.37 Q106.594 1278.98 106.594 1276.39 Q106.594 1273.73 104.696 1272.31 Q102.821 1270.88 99.3021 1270.88 Q97.3808 1270.88 95.1817 1271.3 Q92.9826 1271.71 90.3438 1272.59 L90.3438 1268.43 Q93.0058 1267.68 95.3206 1267.31 Q97.6585 1266.94 99.7187 1266.94 Q105.043 1266.94 108.145 1269.37 Q111.246 1271.78 111.246 1275.9 Q111.246 1278.77 109.603 1280.76 Q107.959 1282.73 104.927 1283.49 Z" fill="#000000" fill-rule="nonzero" fill-opacity="1" /><path clip-path="url(#clip810)" d="M135.089 1283.49 Q138.445 1284.21 140.32 1286.48 Q142.218 1288.75 142.218 1292.08 Q142.218 1297.2 138.7 1300 Q135.181 1302.8 128.7 1302.8 Q126.524 1302.8 124.209 1302.36 Q121.918 1301.94 119.464 1301.09 L119.464 1296.57 Q121.408 1297.71 123.723 1298.29 Q126.038 1298.87 128.561 1298.87 Q132.959 1298.87 135.251 1297.13 Q137.566 1295.39 137.566 1292.08 Q137.566 1289.03 135.413 1287.31 Q133.283 1285.58 129.464 1285.58 L125.436 1285.58 L125.436 1281.74 L129.649 1281.74 Q133.098 1281.74 134.927 1280.37 Q136.756 1278.98 136.756 1276.39 Q136.756 1273.73 134.857 1272.31 Q132.982 1270.88 129.464 1270.88 Q127.543 1270.88 125.344 1271.3 Q123.145 1271.71 120.506 1272.59 L120.506 1268.43 Q123.168 1267.68 125.482 1267.31 Q127.82 1266.94 129.881 1266.94 Q135.205 1266.94 138.306 1269.37 Q141.408 1271.78 141.408 1275.9 Q141.408 1278.77 139.765 1280.76 Q138.121 1282.73 135.089 1283.49 Z" fill="#000000" fill-rule="nonzero" fill-opacity="1" /><path clip-path="url(#clip810)" d="M161.084 1270.65 Q157.473 1270.65 155.644 1274.21 Q153.839 1277.75 153.839 1284.88 Q153.839 1291.99 155.644 1295.55 Q157.473 1299.1 161.084 1299.1 Q164.718 1299.1 166.524 1295.55 Q168.353 1291.99 168.353 1284.88 Q168.353 1277.75 166.524 1274.21 Q164.718 1270.65 161.084 1270.65 M161.084 1266.94 Q166.894 1266.94 169.95 1271.55 Q173.029 1276.13 173.029 1284.88 Q173.029 1293.61 169.95 1298.22 Q166.894 1302.8 161.084 1302.8 Q155.274 1302.8 152.195 1298.22 Q149.14 1293.61 149.14 1284.88 Q149.14 1276.13 152.195 1271.55 Q155.274 1266.94 161.084 1266.94 Z" fill="#000000" fill-rule="nonzero" fill-opacity="1" /><path clip-path="url(#clip810)" d="M50.9921 1024.85 L80.6679 1024.85 L80.6679 1028.78 L50.9921 1028.78 L50.9921 1024.85 Z" fill="#000000" fill-rule="nonzero" fill-opacity="1" /><path clip-path="url(#clip810)" d="M104.927 1023.04 Q108.283 1023.76 110.158 1026.03 Q112.057 1028.29 112.057 1031.63 Q112.057 1036.74 108.538 1039.54 Q105.02 1042.35 98.5382 1042.35 Q96.3623 1042.35 94.0475 1041.91 Q91.7558 1041.49 89.3021 1040.63 L89.3021 1036.12 Q91.2465 1037.25 93.5613 1037.83 Q95.8761 1038.41 98.3993 1038.41 Q102.797 1038.41 105.089 1036.67 Q107.404 1034.94 107.404 1031.63 Q107.404 1028.57 105.251 1026.86 Q103.121 1025.12 99.3021 1025.12 L95.2743 1025.12 L95.2743 1021.28 L99.4872 1021.28 Q102.936 1021.28 104.765 1019.91 Q106.594 1018.53 106.594 1015.93 Q106.594 1013.27 104.696 1011.86 Q102.821 1010.42 99.3021 1010.42 Q97.3808 1010.42 95.1817 1010.84 Q92.9826 1011.26 90.3438 1012.14 L90.3438 1007.97 Q93.0058 1007.23 95.3206 1006.86 Q97.6585 1006.49 99.7187 1006.49 Q105.043 1006.49 108.145 1008.92 Q111.246 1011.33 111.246 1015.45 Q111.246 1018.32 109.603 1020.31 Q107.959 1022.28 104.927 1023.04 Z" fill="#000000" fill-rule="nonzero" fill-opacity="1" /><path clip-path="url(#clip810)" d="M124.95 1037.74 L141.269 1037.74 L141.269 1041.67 L119.325 1041.67 L119.325 1037.74 Q121.987 1034.98 126.57 1030.35 Q131.177 1025.7 132.357 1024.36 Q134.603 1021.84 135.482 1020.1 Q136.385 1018.34 136.385 1016.65 Q136.385 1013.9 134.441 1012.16 Q132.519 1010.42 129.418 1010.42 Q127.219 1010.42 124.765 1011.19 Q122.334 1011.95 119.557 1013.5 L119.557 1008.78 Q122.381 1007.65 124.834 1007.07 Q127.288 1006.49 129.325 1006.49 Q134.695 1006.49 137.89 1009.17 Q141.084 1011.86 141.084 1016.35 Q141.084 1018.48 140.274 1020.4 Q139.487 1022.3 137.381 1024.89 Q136.802 1025.56 133.7 1028.78 Q130.598 1031.98 124.95 1037.74 Z" fill="#000000" fill-rule="nonzero" fill-opacity="1" /><path clip-path="url(#clip810)" d="M161.084 1010.19 Q157.473 1010.19 155.644 1013.76 Q153.839 1017.3 153.839 1024.43 Q153.839 1031.54 155.644 1035.1 Q157.473 1038.64 161.084 1038.64 Q164.718 1038.64 166.524 1035.1 Q168.353 1031.54 168.353 1024.43 Q168.353 1017.3 166.524 1013.76 Q164.718 1010.19 161.084 1010.19 M161.084 1006.49 Q166.894 1006.49 169.95 1011.1 Q173.029 1015.68 173.029 1024.43 Q173.029 1033.16 169.95 1037.76 Q166.894 1042.35 161.084 1042.35 Q155.274 1042.35 152.195 1037.76 Q149.14 1033.16 149.14 1024.43 Q149.14 1015.68 152.195 1011.1 Q155.274 1006.49 161.084 1006.49 Z" fill="#000000" fill-rule="nonzero" fill-opacity="1" /><path clip-path="url(#clip810)" d="M50.9921 764.391 L80.6679 764.391 L80.6679 768.326 L50.9921 768.326 L50.9921 764.391 Z" fill="#000000" fill-rule="nonzero" fill-opacity="1" /><path clip-path="url(#clip810)" d="M104.927 762.585 Q108.283 763.303 110.158 765.571 Q112.057 767.84 112.057 771.173 Q112.057 776.289 108.538 779.09 Q105.02 781.89 98.5382 781.89 Q96.3623 781.89 94.0475 781.451 Q91.7558 781.034 89.3021 780.178 L89.3021 775.664 Q91.2465 776.798 93.5613 777.377 Q95.8761 777.955 98.3993 777.955 Q102.797 777.955 105.089 776.219 Q107.404 774.483 107.404 771.173 Q107.404 768.117 105.251 766.404 Q103.121 764.668 99.3021 764.668 L95.2743 764.668 L95.2743 760.826 L99.4872 760.826 Q102.936 760.826 104.765 759.46 Q106.594 758.071 106.594 755.479 Q106.594 752.817 104.696 751.405 Q102.821 749.969 99.3021 749.969 Q97.3808 749.969 95.1817 750.386 Q92.9826 750.803 90.3438 751.682 L90.3438 747.516 Q93.0058 746.775 95.3206 746.405 Q97.6585 746.034 99.7187 746.034 Q105.043 746.034 108.145 748.465 Q111.246 750.872 111.246 754.992 Q111.246 757.863 109.603 759.854 Q107.959 761.821 104.927 762.585 Z" fill="#000000" fill-rule="nonzero" fill-opacity="1" /><path clip-path="url(#clip810)" d="M121.732 777.284 L129.371 777.284 L129.371 750.918 L121.061 752.585 L121.061 748.326 L129.325 746.659 L134.001 746.659 L134.001 777.284 L141.64 777.284 L141.64 781.219 L121.732 781.219 L121.732 777.284 Z" fill="#000000" fill-rule="nonzero" fill-opacity="1" /><path clip-path="url(#clip810)" d="M161.084 749.738 Q157.473 749.738 155.644 753.303 Q153.839 756.844 153.839 763.974 Q153.839 771.08 155.644 774.645 Q157.473 778.187 161.084 778.187 Q164.718 778.187 166.524 774.645 Q168.353 771.08 168.353 763.974 Q168.353 756.844 166.524 753.303 Q164.718 749.738 161.084 749.738 M161.084 746.034 Q166.894 746.034 169.95 750.641 Q173.029 755.224 173.029 763.974 Q173.029 772.701 169.95 777.307 Q166.894 781.89 161.084 781.89 Q155.274 781.89 152.195 777.307 Q149.14 772.701 149.14 763.974 Q149.14 755.224 152.195 750.641 Q155.274 746.034 161.084 746.034 Z" fill="#000000" fill-rule="nonzero" fill-opacity="1" /><path clip-path="url(#clip810)" d="M50.9921 503.936 L80.6679 503.936 L80.6679 507.871 L50.9921 507.871 L50.9921 503.936 Z" fill="#000000" fill-rule="nonzero" fill-opacity="1" /><path clip-path="url(#clip810)" d="M104.927 502.13 Q108.283 502.848 110.158 505.116 Q112.057 507.385 112.057 510.718 Q112.057 515.834 108.538 518.635 Q105.02 521.436 98.5382 521.436 Q96.3623 521.436 94.0475 520.996 Q91.7558 520.579 89.3021 519.723 L89.3021 515.209 Q91.2465 516.343 93.5613 516.922 Q95.8761 517.5 98.3993 517.5 Q102.797 517.5 105.089 515.764 Q107.404 514.028 107.404 510.718 Q107.404 507.662 105.251 505.95 Q103.121 504.213 99.3021 504.213 L95.2743 504.213 L95.2743 500.371 L99.4872 500.371 Q102.936 500.371 104.765 499.005 Q106.594 497.616 106.594 495.024 Q106.594 492.362 104.696 490.95 Q102.821 489.514 99.3021 489.514 Q97.3808 489.514 95.1817 489.931 Q92.9826 490.348 90.3438 491.227 L90.3438 487.061 Q93.0058 486.32 95.3206 485.95 Q97.6585 485.579 99.7187 485.579 Q105.043 485.579 108.145 488.01 Q111.246 490.417 111.246 494.538 Q111.246 497.408 109.603 499.399 Q107.959 501.366 104.927 502.13 Z" fill="#000000" fill-rule="nonzero" fill-opacity="1" /><path clip-path="url(#clip810)" d="M130.922 489.283 Q127.311 489.283 125.482 492.848 Q123.677 496.389 123.677 503.519 Q123.677 510.625 125.482 514.19 Q127.311 517.732 130.922 517.732 Q134.556 517.732 136.362 514.19 Q138.191 510.625 138.191 503.519 Q138.191 496.389 136.362 492.848 Q134.556 489.283 130.922 489.283 M130.922 485.579 Q136.732 485.579 139.788 490.186 Q142.867 494.769 142.867 503.519 Q142.867 512.246 139.788 516.852 Q136.732 521.436 130.922 521.436 Q125.112 521.436 122.033 516.852 Q118.978 512.246 118.978 503.519 Q118.978 494.769 122.033 490.186 Q125.112 485.579 130.922 485.579 Z" fill="#000000" fill-rule="nonzero" fill-opacity="1" /><path clip-path="url(#clip810)" d="M161.084 489.283 Q157.473 489.283 155.644 492.848 Q153.839 496.389 153.839 503.519 Q153.839 510.625 155.644 514.19 Q157.473 517.732 161.084 517.732 Q164.718 517.732 166.524 514.19 Q168.353 510.625 168.353 503.519 Q168.353 496.389 166.524 492.848 Q164.718 489.283 161.084 489.283 M161.084 485.579 Q166.894 485.579 169.95 490.186 Q173.029 494.769 173.029 503.519 Q173.029 512.246 169.95 516.852 Q166.894 521.436 161.084 521.436 Q155.274 521.436 152.195 516.852 Q149.14 512.246 149.14 503.519 Q149.14 494.769 152.195 490.186 Q155.274 485.579 161.084 485.579 Z" fill="#000000" fill-rule="nonzero" fill-opacity="1" /><path clip-path="url(#clip810)" d="M50.9921 243.481 L80.6679 243.481 L80.6679 247.416 L50.9921 247.416 L50.9921 243.481 Z" fill="#000000" fill-rule="nonzero" fill-opacity="1" /><path clip-path="url(#clip810)" d="M94.7882 256.374 L111.108 256.374 L111.108 260.309 L89.1632 260.309 L89.1632 256.374 Q91.8252 253.62 96.4085 248.99 Q101.015 244.337 102.196 242.995 Q104.441 240.472 105.321 238.735 Q106.223 236.976 106.223 235.286 Q106.223 232.532 104.279 230.796 Q102.358 229.06 99.2558 229.06 Q97.0567 229.06 94.603 229.823 Q92.1725 230.587 89.3947 232.138 L89.3947 227.416 Q92.2188 226.282 94.6724 225.703 Q97.1261 225.124 99.1632 225.124 Q104.534 225.124 107.728 227.81 Q110.922 230.495 110.922 234.985 Q110.922 237.115 110.112 239.036 Q109.325 240.934 107.219 243.527 Q106.64 244.198 103.538 247.416 Q100.436 250.61 94.7882 256.374 Z" fill="#000000" fill-rule="nonzero" fill-opacity="1" /><path clip-path="url(#clip810)" d="M121.061 259.592 L121.061 255.333 Q122.82 256.166 124.626 256.606 Q126.432 257.045 128.168 257.045 Q132.797 257.045 135.228 253.944 Q137.681 250.819 138.029 244.476 Q136.686 246.467 134.626 247.532 Q132.566 248.596 130.066 248.596 Q124.881 248.596 121.848 245.471 Q118.839 242.323 118.839 236.884 Q118.839 231.56 121.987 228.342 Q125.135 225.124 130.367 225.124 Q136.362 225.124 139.51 229.731 Q142.681 234.314 142.681 243.064 Q142.681 251.235 138.793 256.12 Q134.927 260.981 128.376 260.981 Q126.617 260.981 124.811 260.633 Q123.006 260.286 121.061 259.592 M130.367 244.939 Q133.515 244.939 135.344 242.786 Q137.195 240.634 137.195 236.884 Q137.195 233.157 135.344 231.004 Q133.515 228.828 130.367 228.828 Q127.219 228.828 125.367 231.004 Q123.538 233.157 123.538 236.884 Q123.538 240.634 125.367 242.786 Q127.219 244.939 130.367 244.939 Z" fill="#000000" fill-rule="nonzero" fill-opacity="1" /><path clip-path="url(#clip810)" d="M161.084 228.828 Q157.473 228.828 155.644 232.393 Q153.839 235.934 153.839 243.064 Q153.839 250.171 155.644 253.735 Q157.473 257.277 161.084 257.277 Q164.718 257.277 166.524 253.735 Q168.353 250.171 168.353 243.064 Q168.353 235.934 166.524 232.393 Q164.718 228.828 161.084 228.828 M161.084 225.124 Q166.894 225.124 169.95 229.731 Q173.029 234.314 173.029 243.064 Q173.029 251.791 169.95 256.397 Q166.894 260.981 161.084 260.981 Q155.274 260.981 152.195 256.397 Q149.14 251.791 149.14 243.064 Q149.14 234.314 152.195 229.731 Q155.274 225.124 161.084 225.124 Z" fill="#000000" fill-rule="nonzero" fill-opacity="1" /><polyline clip-path="url(#clip812)" style="stroke:#009af9; stroke-linecap:round; stroke-linejoin:round; stroke-width:4; stroke-opacity:1; fill:none" points="269.7,87.9763 270.711,880.466 271.722,963.355 272.734,1027.07 273.745,1085.8 274.756,1144.59 275.767,1204.11 276.778,1261.6 277.79,1311.95 278.801,1350.38 279.812,1375.54 280.823,1389.98 281.834,1397.65 282.846,1401.75 283.857,1404.17 284.868,1405.82 285.879,1407.12 286.89,1408.25 287.901,1409.27 288.913,1410.22 289.924,1411.11 290.935,1411.96 291.946,1412.78 292.957,1413.56 293.969,1414.3 294.98,1415.02 295.991,1415.71 297.002,1416.37 298.013,1417.01 299.025,1417.63 300.036,1418.22 301.047,1418.79 302.058,1419.35 303.069,1419.88 304.081,1420.4 305.092,1420.9 306.103,1421.38 307.114,1421.85 308.125,1422.31 309.137,1422.75 310.148,1423.17 311.159,1423.59 312.17,1423.99 313.181,1424.38 314.192,1424.75 315.204,1425.12 316.215,1425.48 317.226,1425.82 318.237,1426.16 319.248,1426.49 320.26,1426.81 321.271,1427.12 322.282,1427.42 323.293,1427.72 324.304,1428 325.316,1428.28 326.327,1428.56 327.338,1428.82 328.349,1429.08 329.36,1429.34 330.372,1429.58 331.383,1429.83 332.394,1430.06 333.405,1430.29 334.416,1430.52 335.428,1430.74 336.439,1430.95 337.45,1431.17 338.461,1431.37 339.472,1431.57 340.483,1431.77 341.495,1431.96 342.506,1432.15 343.517,1432.34 344.528,1432.52 345.539,1432.7 346.551,1432.88 347.562,1433.05 348.573,1433.22 349.584,1433.38 350.595,1433.54 351.607,1433.7 352.618,1433.86 353.629,1434.01 354.64,1434.16 355.651,1434.31 356.663,1434.45 357.674,1434.59 358.685,1434.73 359.696,1434.87 360.707,1435.01 361.719,1435.14 362.73,1435.27 363.741,1435.4 364.752,1435.52 365.763,1435.65 366.774,1435.77 367.786,1435.89 368.797,1436.01 369.808,1436.12 370.819,1436.24 371.83,1436.35 372.842,1436.46 373.853,1436.57 374.864,1436.68 375.875,1436.78 376.886,1436.89 377.898,1436.99 378.909,1437.09 379.92,1437.19 380.931,1437.29 381.942,1437.39 382.954,1437.48 383.965,1437.58 384.976,1437.67 385.987,1437.76 386.998,1437.85 388.01,1437.94 389.021,1438.02 390.032,1438.11 391.043,1438.19 392.054,1438.28 393.065,1438.36 394.077,1438.44 395.088,1438.52 396.099,1438.6 397.11,1438.68 398.121,1438.76 399.133,1438.83 400.144,1438.91 401.155,1438.98 402.166,1439.05 403.177,1439.12 404.189,1439.19 405.2,1439.26 406.211,1439.33 407.222,1439.4 408.233,1439.47 409.245,1439.53 410.256,1439.6 411.267,1439.66 412.278,1439.73 413.289,1439.79 414.301,1439.85 415.312,1439.91 416.323,1439.98 417.334,1440.03 418.345,1440.09 419.356,1440.15 420.368,1440.21 421.379,1440.27 422.39,1440.32 423.401,1440.38 424.412,1440.43 425.424,1440.49 426.435,1440.54 427.446,1440.59 428.457,1440.64 429.468,1440.69 430.48,1440.75 431.491,1440.8 432.502,1440.84 433.513,1440.89 434.524,1440.94 435.536,1440.99 436.547,1441.04 437.558,1441.08 438.569,1441.13 439.58,1441.17 440.592,1441.22 441.603,1441.26 442.614,1441.31 443.625,1441.35 444.636,1441.39 445.647,1441.43 446.659,1441.48 447.67,1441.52 448.681,1441.56 449.692,1441.6 450.703,1441.64 451.715,1441.68 452.726,1441.72 453.737,1441.75 454.748,1441.79 455.759,1441.83 456.771,1441.87 457.782,1441.9 458.793,1441.94 459.804,1441.97 460.815,1442.01 461.827,1442.04 462.838,1442.08 463.849,1442.11 464.86,1442.15 465.871,1442.18 466.883,1442.21 467.894,1442.25 468.905,1442.28 469.916,1442.31 470.927,1442.34 471.938,1442.37 472.95,1442.4 473.961,1442.43 474.972,1442.46 475.983,1442.49 476.994,1442.52 478.006,1442.55 479.017,1442.58 480.028,1442.61 481.039,1442.64 482.05,1442.67 483.062,1442.69 484.073,1442.72 485.084,1442.75 486.095,1442.77 487.106,1442.8 488.118,1442.83 489.129,1442.85 490.14,1442.88 491.151,1442.9 492.162,1442.93 493.174,1442.95 494.185,1442.98 495.196,1443 496.207,1443.02 497.218,1443.05 498.229,1443.07 499.241,1443.09 500.252,1443.12 501.263,1443.14 502.274,1443.16 503.285,1443.18 504.297,1443.21 505.308,1443.23 506.319,1443.25 507.33,1443.27 508.341,1443.29 509.353,1443.31 510.364,1443.33 511.375,1443.35 512.386,1443.37 513.397,1443.39 514.409,1443.41 515.42,1443.43 516.431,1443.45 517.442,1443.47 518.453,1443.49 519.465,1443.51 520.476,1443.53 521.487,1443.54 522.498,1443.56 523.509,1443.58 524.52,1443.6 525.532,1443.61 526.543,1443.63 527.554,1443.65 528.565,1443.67 529.576,1443.68 530.588,1443.7 531.599,1443.72 532.61,1443.73 533.621,1443.75 534.632,1443.77 535.644,1443.78 536.655,1443.8 537.666,1443.81 538.677,1443.83 539.688,1443.84 540.7,1443.86 541.711,1443.87 542.722,1443.89 543.733,1443.9 544.744,1443.92 545.756,1443.93 546.767,1443.95 547.778,1443.96 548.789,1443.97 549.8,1443.99 550.811,1444 551.823,1444.01 552.834,1444.03 553.845,1444.04 554.856,1444.05 555.867,1444.07 556.879,1444.08 557.89,1444.09 558.901,1444.11 559.912,1444.12 560.923,1444.13 561.935,1444.14 562.946,1444.15 563.957,1444.17 564.968,1444.18 565.979,1444.19 566.991,1444.2 568.002,1444.21 569.013,1444.23 570.024,1444.24 571.035,1444.25 572.046,1444.26 573.058,1444.27 574.069,1444.28 575.08,1444.29 576.091,1444.3 577.102,1444.31 578.114,1444.32 579.125,1444.33 580.136,1444.35 581.147,1444.36 582.158,1444.37 583.17,1444.38 584.181,1444.39 585.192,1444.4 586.203,1444.41 587.214,1444.42 588.226,1444.42 589.237,1444.43 590.248,1444.44 591.259,1444.45 592.27,1444.46 593.282,1444.47 594.293,1444.48 595.304,1444.49 596.315,1444.5 597.326,1444.51 598.337,1444.52 599.349,1444.53 600.36,1444.53 601.371,1444.54 602.382,1444.55 603.393,1444.56 604.405,1444.57 605.416,1444.58 606.427,1444.58 607.438,1444.59 608.449,1444.6 609.461,1444.61 610.472,1444.62 611.483,1444.62 612.494,1444.63 613.505,1444.64 614.517,1444.65 615.528,1444.65 616.539,1444.66 617.55,1444.67 618.561,1444.68 619.573,1444.68 620.584,1444.69 621.595,1444.7 622.606,1444.71 623.617,1444.71 624.628,1444.72 625.64,1444.73 626.651,1444.73 627.662,1444.74 628.673,1444.75 629.684,1444.75 630.696,1444.76 631.707,1444.77 632.718,1444.77 633.729,1444.78 634.74,1444.79 635.752,1444.79 636.763,1444.8 637.774,1444.81 638.785,1444.81 639.796,1444.82 640.808,1444.82 641.819,1444.83 642.83,1444.84 643.841,1444.84 644.852,1444.85 645.864,1444.85 646.875,1444.86 647.886,1444.87 648.897,1444.87 649.908,1444.88 650.919,1444.88 651.931,1444.89 652.942,1444.89 653.953,1444.9 654.964,1444.9 655.975,1444.91 656.987,1444.91 657.998,1444.92 659.009,1444.93 660.02,1444.93 661.031,1444.94 662.043,1444.94 663.054,1444.95 664.065,1444.95 665.076,1444.96 666.087,1444.96 667.099,1444.97 668.11,1444.97 669.121,1444.98 670.132,1444.98 671.143,1444.99 672.155,1444.99 673.166,1444.99 674.177,1445 675.188,1445 676.199,1445.01 677.21,1445.01 678.222,1445.02 679.233,1445.02 680.244,1445.03 681.255,1445.03 682.266,1445.04 683.278,1445.04 684.289,1445.04 685.3,1445.05 686.311,1445.05 687.322,1445.06 688.334,1445.06 689.345,1445.07 690.356,1445.07 691.367,1445.07 692.378,1445.08 693.39,1445.08 694.401,1445.09 695.412,1445.09 696.423,1445.09 697.434,1445.1 698.446,1445.1 699.457,1445.11 700.468,1445.11 701.479,1445.11 702.49,1445.12 703.501,1445.12 704.513,1445.12 705.524,1445.13 706.535,1445.13 707.546,1445.13 708.557,1445.14 709.569,1445.14 710.58,1445.15 711.591,1445.15 712.602,1445.15 713.613,1445.16 714.625,1445.16 715.636,1445.16 716.647,1445.17 717.658,1445.17 718.669,1445.17 719.681,1445.18 720.692,1445.18 721.703,1445.18 722.714,1445.19 723.725,1445.19 724.737,1445.19 725.748,1445.2 726.759,1445.2 727.77,1445.2 728.781,1445.2 729.792,1445.21 730.804,1445.21 731.815,1445.21 732.826,1445.22 733.837,1445.22 734.848,1445.22 735.86,1445.23 736.871,1445.23 737.882,1445.23 738.893,1445.23 739.904,1445.24 740.916,1445.24 741.927,1445.24 742.938,1445.25 743.949,1445.25 744.96,1445.25 745.972,1445.25 746.983,1445.26 747.994,1445.26 749.005,1445.26 750.016,1445.26 751.028,1445.27 752.039,1445.27 753.05,1445.27 754.061,1445.28 755.072,1445.28 756.083,1445.28 757.095,1445.28 758.106,1445.29 759.117,1445.29 760.128,1445.29 761.139,1445.29 762.151,1445.3 763.162,1445.3 764.173,1445.3 765.184,1445.3 766.195,1445.3 767.207,1445.31 768.218,1445.31 769.229,1445.31 770.24,1445.31 771.251,1445.32 772.263,1445.32 773.274,1445.32 774.285,1445.32 775.296,1445.33 776.307,1445.33 777.319,1445.33 778.33,1445.33 779.341,1445.33 780.352,1445.34 781.363,1445.34 782.374,1445.34 783.386,1445.34 784.397,1445.34 785.408,1445.35 786.419,1445.35 787.43,1445.35 788.442,1445.35 789.453,1445.36 790.464,1445.36 791.475,1445.36 792.486,1445.36 793.498,1445.36 794.509,1445.37 795.52,1445.37 796.531,1445.37 797.542,1445.37 798.554,1445.37 799.565,1445.37 800.576,1445.38 801.587,1445.38 802.598,1445.38 803.61,1445.38 804.621,1445.38 805.632,1445.39 806.643,1445.39 807.654,1445.39 808.665,1445.39 809.677,1445.39 810.688,1445.39 811.699,1445.4 812.71,1445.4 813.721,1445.4 814.733,1445.4 815.744,1445.4 816.755,1445.41 817.766,1445.41 818.777,1445.41 819.789,1445.41 820.8,1445.41 821.811,1445.41 822.822,1445.42 823.833,1445.42 824.845,1445.42 825.856,1445.42 826.867,1445.42 827.878,1445.42 828.889,1445.42 829.901,1445.43 830.912,1445.43 831.923,1445.43 832.934,1445.43 833.945,1445.43 834.956,1445.43 835.968,1445.44 836.979,1445.44 837.99,1445.44 839.001,1445.44 840.012,1445.44 841.024,1445.44 842.035,1445.44 843.046,1445.45 844.057,1445.45 845.068,1445.45 846.08,1445.45 847.091,1445.45 848.102,1445.45 849.113,1445.45 850.124,1445.46 851.136,1445.46 852.147,1445.46 853.158,1445.46 854.169,1445.46 855.18,1445.46 856.191,1445.46 857.203,1445.47 858.214,1445.47 859.225,1445.47 860.236,1445.47 861.247,1445.47 862.259,1445.47 863.27,1445.47 864.281,1445.47 865.292,1445.48 866.303,1445.48 867.315,1445.48 868.326,1445.48 869.337,1445.48 870.348,1445.48 871.359,1445.48 872.371,1445.48 873.382,1445.49 874.393,1445.49 875.404,1445.49 876.415,1445.49 877.427,1445.49 878.438,1445.49 879.449,1445.49 880.46,1445.49 881.471,1445.5 882.482,1445.5 883.494,1445.5 884.505,1445.5 885.516,1445.5 886.527,1445.5 887.538,1445.5 888.55,1445.5 889.561,1445.5 890.572,1445.51 891.583,1445.51 892.594,1445.51 893.606,1445.51 894.617,1445.51 895.628,1445.51 896.639,1445.51 897.65,1445.51 898.662,1445.51 899.673,1445.51 900.684,1445.52 901.695,1445.52 902.706,1445.52 903.718,1445.52 904.729,1445.52 905.74,1445.52 906.751,1445.52 907.762,1445.52 908.773,1445.52 909.785,1445.52 910.796,1445.53 911.807,1445.53 912.818,1445.53 913.829,1445.53 914.841,1445.53 915.852,1445.53 916.863,1445.53 917.874,1445.53 918.885,1445.53 919.897,1445.53 920.908,1445.54 921.919,1445.54 922.93,1445.54 923.941,1445.54 924.953,1445.54 925.964,1445.54 926.975,1445.54 927.986,1445.54 928.997,1445.54 930.009,1445.54 931.02,1445.54 932.031,1445.55 933.042,1445.55 934.053,1445.55 935.064,1445.55 936.076,1445.55 937.087,1445.55 938.098,1445.55 939.109,1445.55 940.12,1445.55 941.132,1445.55 942.143,1445.55 943.154,1445.55 944.165,1445.56 945.176,1445.56 946.188,1445.56 947.199,1445.56 948.21,1445.56 949.221,1445.56 950.232,1445.56 951.244,1445.56 952.255,1445.56 953.266,1445.56 954.277,1445.56 955.288,1445.56 956.3,1445.56 957.311,1445.57 958.322,1445.57 959.333,1445.57 960.344,1445.57 961.355,1445.57 962.367,1445.57 963.378,1445.57 964.389,1445.57 965.4,1445.57 966.411,1445.57 967.423,1445.57 968.434,1445.57 969.445,1445.57 970.456,1445.57 971.467,1445.58 972.479,1445.58 973.49,1445.58 974.501,1445.58 975.512,1445.58 976.523,1445.58 977.535,1445.58 978.546,1445.58 979.557,1445.58 980.568,1445.58 981.579,1445.58 982.591,1445.58 983.602,1445.58 984.613,1445.58 985.624,1445.59 986.635,1445.59 987.646,1445.59 988.658,1445.59 989.669,1445.59 990.68,1445.59 991.691,1445.59 992.702,1445.59 993.714,1445.59 994.725,1445.59 995.736,1445.59 996.747,1445.59 997.758,1445.59 998.77,1445.59 999.781,1445.59 1000.79,1445.59 1001.8,1445.6 1002.81,1445.6 1003.83,1445.6 1004.84,1445.6 1005.85,1445.6 1006.86,1445.6 1007.87,1445.6 1008.88,1445.6 1009.89,1445.6 1010.9,1445.6 1011.92,1445.6 1012.93,1445.6 1013.94,1445.6 1014.95,1445.6 1015.96,1445.6 1016.97,1445.6 1017.98,1445.6 1018.99,1445.6 1020,1445.61 1021.02,1445.61 1022.03,1445.61 1023.04,1445.61 1024.05,1445.61 1025.06,1445.61 1026.07,1445.61 1027.08,1445.61 1028.09,1445.61 1029.11,1445.61 1030.12,1445.61 1031.13,1445.61 1032.14,1445.61 1033.15,1445.61 1034.16,1445.61 1035.17,1445.61 1036.18,1445.61 1037.19,1445.61 1038.21,1445.61 1039.22,1445.62 1040.23,1445.62 1041.24,1445.62 1042.25,1445.62 1043.26,1445.62 1044.27,1445.62 1045.28,1445.62 1046.3,1445.62 1047.31,1445.62 1048.32,1445.62 1049.33,1445.62 1050.34,1445.62 1051.35,1445.62 1052.36,1445.62 1053.37,1445.62 1054.39,1445.62 1055.4,1445.62 1056.41,1445.62 1057.42,1445.62 1058.43,1445.62 1059.44,1445.62 1060.45,1445.63 1061.46,1445.63 1062.47,1445.63 1063.49,1445.63 1064.5,1445.63 1065.51,1445.63 1066.52,1445.63 1067.53,1445.63 1068.54,1445.63 1069.55,1445.63 1070.56,1445.63 1071.58,1445.63 1072.59,1445.63 1073.6,1445.63 1074.61,1445.63 1075.62,1445.63 1076.63,1445.63 1077.64,1445.63 1078.65,1445.63 1079.66,1445.63 1080.68,1445.63 1081.69,1445.63 1082.7,1445.63 1083.71,1445.63 1084.72,1445.64 1085.73,1445.64 1086.74,1445.64 1087.75,1445.64 1088.77,1445.64 1089.78,1445.64 1090.79,1445.64 1091.8,1445.64 1092.81,1445.64 1093.82,1445.64 1094.83,1445.64 1095.84,1445.64 1096.86,1445.64 1097.87,1445.64 1098.88,1445.64 1099.89,1445.64 1100.9,1445.64 1101.91,1445.64 1102.92,1445.64 1103.93,1445.64 1104.94,1445.64 1105.96,1445.64 1106.97,1445.64 1107.98,1445.64 1108.99,1445.64 1110,1445.64 1111.01,1445.64 1112.02,1445.65 1113.03,1445.65 1114.05,1445.65 1115.06,1445.65 1116.07,1445.65 1117.08,1445.65 1118.09,1445.65 1119.1,1445.65 1120.11,1445.65 1121.12,1445.65 1122.14,1445.65 1123.15,1445.65 1124.16,1445.65 1125.17,1445.65 1126.18,1445.65 1127.19,1445.65 1128.2,1445.65 1129.21,1445.65 1130.22,1445.65 1131.24,1445.65 1132.25,1445.65 1133.26,1445.65 1134.27,1445.65 1135.28,1445.65 1136.29,1445.65 1137.3,1445.65 1138.31,1445.65 1139.33,1445.65 1140.34,1445.65 1141.35,1445.65 1142.36,1445.65 1143.37,1445.66 1144.38,1445.66 1145.39,1445.66 1146.4,1445.66 1147.41,1445.66 1148.43,1445.66 1149.44,1445.66 1150.45,1445.66 1151.46,1445.66 1152.47,1445.66 1153.48,1445.66 1154.49,1445.66 1155.5,1445.66 1156.52,1445.66 1157.53,1445.66 1158.54,1445.66 1159.55,1445.66 1160.56,1445.66 1161.57,1445.66 1162.58,1445.66 1163.59,1445.66 1164.61,1445.66 1165.62,1445.66 1166.63,1445.66 1167.64,1445.66 1168.65,1445.66 1169.66,1445.66 1170.67,1445.66 1171.68,1445.66 1172.69,1445.66 1173.71,1445.66 1174.72,1445.66 1175.73,1445.66 1176.74,1445.66 1177.75,1445.66 1178.76,1445.66 1179.77,1445.66 1180.78,1445.67 1181.8,1445.67 1182.81,1445.67 1183.82,1445.67 1184.83,1445.67 1185.84,1445.67 1186.85,1445.67 1187.86,1445.67 1188.87,1445.67 1189.88,1445.67 1190.9,1445.67 1191.91,1445.67 1192.92,1445.67 1193.93,1445.67 1194.94,1445.67 1195.95,1445.67 1196.96,1445.67 1197.97,1445.67 1198.99,1445.67 1200,1445.67 1201.01,1445.67 1202.02,1445.67 1203.03,1445.67 1204.04,1445.67 1205.05,1445.67 1206.06,1445.67 1207.08,1445.67 1208.09,1445.67 1209.1,1445.67 1210.11,1445.67 1211.12,1445.67 1212.13,1445.67 1213.14,1445.67 1214.15,1445.67 1215.16,1445.67 1216.18,1445.67 1217.19,1445.67 1218.2,1445.67 1219.21,1445.67 1220.22,1445.67 1221.23,1445.67 1222.24,1445.67 1223.25,1445.67 1224.27,1445.67 1225.28,1445.67 1226.29,1445.68 1227.3,1445.68 1228.31,1445.68 1229.32,1445.68 1230.33,1445.68 1231.34,1445.68 1232.35,1445.68 1233.37,1445.68 1234.38,1445.68 1235.39,1445.68 1236.4,1445.68 1237.41,1445.68 1238.42,1445.68 1239.43,1445.68 1240.44,1445.68 1241.46,1445.68 1242.47,1445.68 1243.48,1445.68 1244.49,1445.68 1245.5,1445.68 1246.51,1445.68 1247.52,1445.68 1248.53,1445.68 1249.55,1445.68 1250.56,1445.68 1251.57,1445.68 1252.58,1445.68 1253.59,1445.68 1254.6,1445.68 1255.61,1445.68 1256.62,1445.68 1257.63,1445.68 1258.65,1445.68 1259.66,1445.68 1260.67,1445.68 1261.68,1445.68 1262.69,1445.68 1263.7,1445.68 1264.71,1445.68 1265.72,1445.68 1266.74,1445.68 1267.75,1445.68 1268.76,1445.68 1269.77,1445.68 1270.78,1445.68 1271.79,1445.68 1272.8,1445.68 1273.81,1445.68 1274.83,1445.68 1275.84,1445.68 1276.85,1445.68 1277.86,1445.68 1278.87,1445.68 1279.88,1445.68 1280.89,1445.68 1281.9,1445.68 1282.91,1445.68 1283.93,1445.68 1284.94,1445.69 1285.95,1445.69 1286.96,1445.69 1287.97,1445.69 1288.98,1445.69 1289.99,1445.69 1291,1445.69 1292.02,1445.69 1293.03,1445.69 1294.04,1445.69 1295.05,1445.69 1296.06,1445.69 1297.07,1445.69 1298.08,1445.69 1299.09,1445.69 1300.1,1445.69 1301.12,1445.69 1302.13,1445.69 1303.14,1445.69 1304.15,1445.69 1305.16,1445.69 1306.17,1445.69 1307.18,1445.69 1308.19,1445.69 1309.21,1445.69 1310.22,1445.69 1311.23,1445.69 1312.24,1445.69 1313.25,1445.69 1314.26,1445.69 1315.27,1445.69 1316.28,1445.69 1317.3,1445.69 1318.31,1445.69 1319.32,1445.69 1320.33,1445.69 1321.34,1445.69 1322.35,1445.69 1323.36,1445.69 1324.37,1445.69 1325.38,1445.69 1326.4,1445.69 1327.41,1445.69 1328.42,1445.69 1329.43,1445.69 1330.44,1445.69 1331.45,1445.69 1332.46,1445.69 1333.47,1445.69 1334.49,1445.69 1335.5,1445.69 1336.51,1445.69 1337.52,1445.69 1338.53,1445.69 1339.54,1445.69 1340.55,1445.69 1341.56,1445.69 1342.57,1445.69 1343.59,1445.69 1344.6,1445.69 1345.61,1445.69 1346.62,1445.69 1347.63,1445.69 1348.64,1445.69 1349.65,1445.69 1350.66,1445.69 1351.68,1445.69 1352.69,1445.69 1353.7,1445.69 1354.71,1445.69 1355.72,1445.69 1356.73,1445.69 1357.74,1445.69 1358.75,1445.69 1359.77,1445.69 1360.78,1445.69 1361.79,1445.69 1362.8,1445.69 1363.81,1445.69 1364.82,1445.69 1365.83,1445.69 1366.84,1445.7 1367.85,1445.7 1368.87,1445.7 1369.88,1445.7 1370.89,1445.7 1371.9,1445.7 1372.91,1445.7 1373.92,1445.7 1374.93,1445.7 1375.94,1445.7 1376.96,1445.7 1377.97,1445.7 1378.98,1445.7 1379.99,1445.7 1381,1445.7 1382.01,1445.7 1383.02,1445.7 1384.03,1445.7 1385.05,1445.7 1386.06,1445.7 1387.07,1445.7 1388.08,1445.7 1389.09,1445.7 1390.1,1445.7 1391.11,1445.7 1392.12,1445.7 1393.13,1445.7 1394.15,1445.7 1395.16,1445.7 1396.17,1445.7 1397.18,1445.7 1398.19,1445.7 1399.2,1445.7 1400.21,1445.7 1401.22,1445.7 1402.24,1445.7 1403.25,1445.7 1404.26,1445.7 1405.27,1445.7 1406.28,1445.7 1407.29,1445.7 1408.3,1445.7 1409.31,1445.7 1410.32,1445.7 1411.34,1445.7 1412.35,1445.7 1413.36,1445.7 1414.37,1445.7 1415.38,1445.7 1416.39,1445.7 1417.4,1445.7 1418.41,1445.7 1419.43,1445.7 1420.44,1445.7 1421.45,1445.7 1422.46,1445.7 1423.47,1445.7 1424.48,1445.7 1425.49,1445.7 1426.5,1445.7 1427.52,1445.7 1428.53,1445.7 1429.54,1445.7 1430.55,1445.7 1431.56,1445.7 1432.57,1445.7 1433.58,1445.7 1434.59,1445.7 1435.6,1445.7 1436.62,1445.7 1437.63,1445.7 1438.64,1445.7 1439.65,1445.7 1440.66,1445.7 1441.67,1445.7 1442.68,1445.7 1443.69,1445.7 1444.71,1445.7 1445.72,1445.7 1446.73,1445.7 1447.74,1445.7 1448.75,1445.7 1449.76,1445.7 1450.77,1445.7 1451.78,1445.7 1452.79,1445.7 1453.81,1445.7 1454.82,1445.7 1455.83,1445.7 1456.84,1445.7 1457.85,1445.7 1458.86,1445.7 1459.87,1445.7 1460.88,1445.7 1461.9,1445.7 1462.91,1445.7 1463.92,1445.7 1464.93,1445.7 1465.94,1445.7 1466.95,1445.7 1467.96,1445.7 1468.97,1445.7 1469.99,1445.7 1471,1445.7 1472.01,1445.7 1473.02,1445.7 1474.03,1445.7 1475.04,1445.7 1476.05,1445.7 1477.06,1445.7 1478.07,1445.7 1479.09,1445.7 1480.1,1445.7 1481.11,1445.7 1482.12,1445.7 1483.13,1445.7 1484.14,1445.7 1485.15,1445.7 1486.16,1445.7 1487.18,1445.7 1488.19,1445.7 1489.2,1445.7 1490.21,1445.7 1491.22,1445.7 1492.23,1445.7 1493.24,1445.7 1494.25,1445.7 1495.26,1445.7 1496.28,1445.7 1497.29,1445.7 1498.3,1445.7 1499.31,1445.7 1500.32,1445.7 1501.33,1445.7 1502.34,1445.71 1503.35,1445.71 1504.37,1445.71 1505.38,1445.71 1506.39,1445.71 1507.4,1445.71 1508.41,1445.71 1509.42,1445.71 1510.43,1445.71 1511.44,1445.71 1512.46,1445.71 1513.47,1445.71 1514.48,1445.71 1515.49,1445.71 1516.5,1445.71 1517.51,1445.71 1518.52,1445.71 1519.53,1445.71 1520.54,1445.71 1521.56,1445.71 1522.57,1445.71 1523.58,1445.71 1524.59,1445.71 1525.6,1445.71 1526.61,1445.71 1527.62,1445.71 1528.63,1445.71 1529.65,1445.71 1530.66,1445.71 1531.67,1445.71 1532.68,1445.71 1533.69,1445.71 1534.7,1445.71 1535.71,1445.71 1536.72,1445.71 1537.74,1445.71 1538.75,1445.71 1539.76,1445.71 1540.77,1445.71 1541.78,1445.71 1542.79,1445.71 1543.8,1445.71 1544.81,1445.71 1545.82,1445.71 1546.84,1445.71 1547.85,1445.71 1548.86,1445.71 1549.87,1445.71 1550.88,1445.71 1551.89,1445.71 1552.9,1445.71 1553.91,1445.71 1554.93,1445.71 1555.94,1445.71 1556.95,1445.71 1557.96,1445.71 1558.97,1445.71 1559.98,1445.71 1560.99,1445.71 1562,1445.71 1563.01,1445.71 1564.03,1445.71 1565.04,1445.71 1566.05,1445.71 1567.06,1445.71 1568.07,1445.71 1569.08,1445.71 1570.09,1445.71 1571.1,1445.71 1572.12,1445.71 1573.13,1445.71 1574.14,1445.71 1575.15,1445.71 1576.16,1445.71 1577.17,1445.71 1578.18,1445.71 1579.19,1445.71 1580.21,1445.71 1581.22,1445.71 1582.23,1445.71 1583.24,1445.71 1584.25,1445.71 1585.26,1445.71 1586.27,1445.71 1587.28,1445.71 1588.29,1445.71 1589.31,1445.71 1590.32,1445.71 1591.33,1445.71 1592.34,1445.71 1593.35,1445.71 1594.36,1445.71 1595.37,1445.71 1596.38,1445.71 1597.4,1445.71 1598.41,1445.71 1599.42,1445.71 1600.43,1445.71 1601.44,1445.71 1602.45,1445.71 1603.46,1445.71 1604.47,1445.71 1605.48,1445.71 1606.5,1445.71 1607.51,1445.71 1608.52,1445.71 1609.53,1445.71 1610.54,1445.71 1611.55,1445.71 1612.56,1445.71 1613.57,1445.71 1614.59,1445.71 1615.6,1445.71 1616.61,1445.71 1617.62,1445.71 1618.63,1445.71 1619.64,1445.71 1620.65,1445.71 1621.66,1445.71 1622.68,1445.71 1623.69,1445.71 1624.7,1445.71 1625.71,1445.71 1626.72,1445.71 1627.73,1445.71 1628.74,1445.71 1629.75,1445.71 1630.76,1445.71 1631.78,1445.71 1632.79,1445.71 1633.8,1445.71 1634.81,1445.71 1635.82,1445.71 1636.83,1445.71 1637.84,1445.71 1638.85,1445.71 1639.87,1445.71 1640.88,1445.71 1641.89,1445.71 1642.9,1445.71 1643.91,1445.71 1644.92,1445.71 1645.93,1445.71 1646.94,1445.71 1647.95,1445.71 1648.97,1445.71 1649.98,1445.71 1650.99,1445.71 1652,1445.71 1653.01,1445.71 1654.02,1445.71 1655.03,1445.71 1656.04,1445.71 1657.06,1445.71 1658.07,1445.71 1659.08,1445.71 1660.09,1445.71 1661.1,1445.71 1662.11,1445.71 1663.12,1445.71 1664.13,1445.71 1665.15,1445.71 1666.16,1445.71 1667.17,1445.71 1668.18,1445.71 1669.19,1445.71 1670.2,1445.71 1671.21,1445.71 1672.22,1445.71 1673.23,1445.71 1674.25,1445.71 1675.26,1445.71 1676.27,1445.71 1677.28,1445.71 1678.29,1445.71 1679.3,1445.71 1680.31,1445.71 1681.32,1445.71 1682.34,1445.71 1683.35,1445.71 1684.36,1445.71 1685.37,1445.71 1686.38,1445.71 1687.39,1445.71 1688.4,1445.71 1689.41,1445.71 1690.43,1445.71 1691.44,1445.71 1692.45,1445.71 1693.46,1445.71 1694.47,1445.71 1695.48,1445.71 1696.49,1445.71 1697.5,1445.71 1698.51,1445.71 1699.53,1445.71 1700.54,1445.71 1701.55,1445.71 1702.56,1445.71 1703.57,1445.71 1704.58,1445.71 1705.59,1445.71 1706.6,1445.71 1707.62,1445.71 1708.63,1445.71 1709.64,1445.71 1710.65,1445.71 1711.66,1445.71 1712.67,1445.71 1713.68,1445.71 1714.69,1445.71 1715.7,1445.71 1716.72,1445.71 1717.73,1445.71 1718.74,1445.71 1719.75,1445.71 1720.76,1445.71 1721.77,1445.71 1722.78,1445.71 1723.79,1445.71 1724.81,1445.71 1725.82,1445.71 1726.83,1445.71 1727.84,1445.71 1728.85,1445.71 1729.86,1445.71 1730.87,1445.71 1731.88,1445.71 1732.9,1445.71 1733.91,1445.71 1734.92,1445.71 1735.93,1445.71 1736.94,1445.71 1737.95,1445.71 1738.96,1445.71 1739.97,1445.71 1740.98,1445.71 1742,1445.71 1743.01,1445.71 1744.02,1445.71 1745.03,1445.71 1746.04,1445.71 1747.05,1445.71 1748.06,1445.71 1749.07,1445.71 1750.09,1445.71 1751.1,1445.71 1752.11,1445.71 1753.12,1445.71 1754.13,1445.71 1755.14,1445.71 1756.15,1445.71 1757.16,1445.71 1758.17,1445.71 1759.19,1445.71 1760.2,1445.71 1761.21,1445.71 1762.22,1445.71 1763.23,1445.71 1764.24,1445.71 1765.25,1445.71 1766.26,1445.71 1767.28,1445.71 1768.29,1445.71 1769.3,1445.71 1770.31,1445.71 1771.32,1445.71 1772.33,1445.71 1773.34,1445.71 1774.35,1445.71 1775.37,1445.71 1776.38,1445.71 1777.39,1445.71 1778.4,1445.71 1779.41,1445.71 1780.42,1445.71 1781.43,1445.71 1782.44,1445.71 1783.45,1445.71 1784.47,1445.71 1785.48,1445.71 1786.49,1445.71 1787.5,1445.71 1788.51,1445.71 1789.52,1445.71 1790.53,1445.71 1791.54,1445.71 1792.56,1445.71 1793.57,1445.71 1794.58,1445.71 1795.59,1445.71 1796.6,1445.71 1797.61,1445.71 1798.62,1445.71 1799.63,1445.71 1800.64,1445.71 1801.66,1445.71 1802.67,1445.71 1803.68,1445.71 1804.69,1445.71 1805.7,1445.71 1806.71,1445.71 1807.72,1445.71 1808.73,1445.71 1809.75,1445.71 1810.76,1445.71 1811.77,1445.71 1812.78,1445.71 1813.79,1445.71 1814.8,1445.71 1815.81,1445.71 1816.82,1445.71 1817.84,1445.71 1818.85,1445.71 1819.86,1445.71 1820.87,1445.71 1821.88,1445.71 1822.89,1445.71 1823.9,1445.71 1824.91,1445.71 1825.92,1445.71 1826.94,1445.71 1827.95,1445.71 1828.96,1445.71 1829.97,1445.71 1830.98,1445.71 1831.99,1445.71 1833,1445.71 1834.01,1445.71 1835.03,1445.71 1836.04,1445.71 1837.05,1445.71 1838.06,1445.71 1839.07,1445.71 1840.08,1445.71 1841.09,1445.71 1842.1,1445.71 1843.12,1445.71 1844.13,1445.71 1845.14,1445.71 1846.15,1445.71 1847.16,1445.71 1848.17,1445.71 1849.18,1445.71 1850.19,1445.71 1851.2,1445.71 1852.22,1445.71 1853.23,1445.71 1854.24,1445.71 1855.25,1445.71 1856.26,1445.71 1857.27,1445.71 1858.28,1445.71 1859.29,1445.71 1860.31,1445.71 1861.32,1445.71 1862.33,1445.71 1863.34,1445.71 1864.35,1445.71 1865.36,1445.71 1866.37,1445.71 1867.38,1445.71 1868.39,1445.71 1869.41,1445.71 1870.42,1445.71 1871.43,1445.71 1872.44,1445.71 1873.45,1445.71 1874.46,1445.71 1875.47,1445.71 1876.48,1445.71 1877.5,1445.71 1878.51,1445.71 1879.52,1445.71 1880.53,1445.71 1881.54,1445.71 1882.55,1445.71 1883.56,1445.71 1884.57,1445.71 1885.59,1445.71 1886.6,1445.71 1887.61,1445.71 1888.62,1445.71 1889.63,1445.71 1890.64,1445.71 1891.65,1445.71 1892.66,1445.71 1893.67,1445.71 1894.69,1445.71 1895.7,1445.71 1896.71,1445.71 1897.72,1445.71 1898.73,1445.71 1899.74,1445.71 1900.75,1445.71 1901.76,1445.71 1902.78,1445.71 1903.79,1445.71 1904.8,1445.71 1905.81,1445.71 1906.82,1445.71 1907.83,1445.71 1908.84,1445.71 1909.85,1445.71 1910.86,1445.71 1911.88,1445.71 1912.89,1445.71 1913.9,1445.71 1914.91,1445.71 1915.92,1445.71 1916.93,1445.71 1917.94,1445.71 1918.95,1445.71 1919.97,1445.71 1920.98,1445.71 1921.99,1445.71 1923,1445.71 1924.01,1445.71 1925.02,1445.71 1926.03,1445.71 1927.04,1445.71 1928.06,1445.71 1929.07,1445.71 1930.08,1445.71 1931.09,1445.71 1932.1,1445.71 1933.11,1445.71 1934.12,1445.71 1935.13,1445.71 1936.14,1445.71 1937.16,1445.71 1938.17,1445.71 1939.18,1445.71 1940.19,1445.71 1941.2,1445.71 1942.21,1445.71 1943.22,1445.71 1944.23,1445.71 1945.25,1445.71 1946.26,1445.71 1947.27,1445.71 1948.28,1445.71 1949.29,1445.71 1950.3,1445.71 1951.31,1445.71 1952.32,1445.71 1953.33,1445.71 1954.35,1445.71 1955.36,1445.71 1956.37,1445.71 1957.38,1445.71 1958.39,1445.71 1959.4,1445.71 1960.41,1445.71 1961.42,1445.71 1962.44,1445.71 1963.45,1445.71 1964.46,1445.71 1965.47,1445.71 1966.48,1445.71 1967.49,1445.71 1968.5,1445.71 1969.51,1445.71 1970.53,1445.71 1971.54,1445.71 1972.55,1445.71 1973.56,1445.71 1974.57,1445.71 1975.58,1445.71 1976.59,1445.71 1977.6,1445.71 1978.61,1445.71 1979.63,1445.71 1980.64,1445.71 1981.65,1445.71 1982.66,1445.71 1983.67,1445.71 1984.68,1445.71 1985.69,1445.71 1986.7,1445.71 1987.72,1445.71 1988.73,1445.71 1989.74,1445.71 1990.75,1445.71 1991.76,1445.71 1992.77,1445.71 1993.78,1445.71 1994.79,1445.71 1995.81,1445.71 1996.82,1445.71 1997.83,1445.71 1998.84,1445.71 1999.85,1445.71 2000.86,1445.71 2001.87,1445.71 2002.88,1445.71 2003.89,1445.71 2004.91,1445.71 2005.92,1445.71 2006.93,1445.71 2007.94,1445.71 2008.95,1445.71 2009.96,1445.71 2010.97,1445.71 2011.98,1445.71 2013,1445.71 2014.01,1445.71 2015.02,1445.71 2016.03,1445.72 2017.04,1445.72 2018.05,1445.72 2019.06,1445.72 2020.07,1445.72 2021.08,1445.72 2022.1,1445.72 2023.11,1445.72 2024.12,1445.72 2025.13,1445.72 2026.14,1445.72 2027.15,1445.72 2028.16,1445.72 2029.17,1445.72 2030.19,1445.72 2031.2,1445.72 2032.21,1445.72 2033.22,1445.72 2034.23,1445.72 2035.24,1445.72 2036.25,1445.72 2037.26,1445.72 2038.28,1445.72 2039.29,1445.72 2040.3,1445.72 2041.31,1445.72 2042.32,1445.72 2043.33,1445.72 2044.34,1445.72 2045.35,1445.72 2046.36,1445.72 2047.38,1445.72 2048.39,1445.72 2049.4,1445.72 2050.41,1445.72 2051.42,1445.72 2052.43,1445.72 2053.44,1445.72 2054.45,1445.72 2055.47,1445.72 2056.48,1445.72 2057.49,1445.72 2058.5,1445.72 2059.51,1445.72 2060.52,1445.72 2061.53,1445.72 2062.54,1445.72 2063.55,1445.72 2064.57,1445.72 2065.58,1445.72 2066.59,1445.72 2067.6,1445.72 2068.61,1445.72 2069.62,1445.72 2070.63,1445.72 2071.64,1445.72 2072.66,1445.72 2073.67,1445.72 2074.68,1445.72 2075.69,1445.72 2076.7,1445.72 2077.71,1445.72 2078.72,1445.72 2079.73,1445.72 2080.75,1445.72 2081.76,1445.72 2082.77,1445.72 2083.78,1445.72 2084.79,1445.72 2085.8,1445.72 2086.81,1445.72 2087.82,1445.72 2088.83,1445.72 2089.85,1445.72 2090.86,1445.72 2091.87,1445.72 2092.88,1445.72 2093.89,1445.72 2094.9,1445.72 2095.91,1445.72 2096.92,1445.72 2097.94,1445.72 2098.95,1445.72 2099.96,1445.72 2100.97,1445.72 2101.98,1445.72 2102.99,1445.72 2104,1445.72 2105.01,1445.72 2106.03,1445.72 2107.04,1445.72 2108.05,1445.72 2109.06,1445.72 2110.07,1445.72 2111.08,1445.72 2112.09,1445.72 2113.1,1445.72 2114.11,1445.72 2115.13,1445.72 2116.14,1445.72 2117.15,1445.72 2118.16,1445.72 2119.17,1445.72 2120.18,1445.72 2121.19,1445.72 2122.2,1445.72 2123.22,1445.72 2124.23,1445.72 2125.24,1445.72 2126.25,1445.72 2127.26,1445.72 2128.27,1445.72 2129.28,1445.72 2130.29,1445.72 2131.3,1445.72 2132.32,1445.72 2133.33,1445.72 2134.34,1445.72 2135.35,1445.72 2136.36,1445.72 2137.37,1445.72 2138.38,1445.72 2139.39,1445.72 2140.41,1445.72 2141.42,1445.72 2142.43,1445.72 2143.44,1445.72 2144.45,1445.72 2145.46,1445.72 2146.47,1445.72 2147.48,1445.72 2148.5,1445.72 2149.51,1445.72 2150.52,1445.72 2151.53,1445.72 2152.54,1445.72 2153.55,1445.72 2154.56,1445.72 2155.57,1445.72 2156.58,1445.72 2157.6,1445.72 2158.61,1445.72 2159.62,1445.72 2160.63,1445.72 2161.64,1445.72 2162.65,1445.72 2163.66,1445.72 2164.67,1445.72 2165.69,1445.72 2166.7,1445.72 2167.71,1445.72 2168.72,1445.72 2169.73,1445.72 2170.74,1445.72 2171.75,1445.72 2172.76,1445.72 2173.77,1445.72 2174.79,1445.72 2175.8,1445.72 2176.81,1445.72 2177.82,1445.72 2178.83,1445.72 2179.84,1445.72 2180.85,1445.72 2181.86,1445.72 2182.88,1445.72 2183.89,1445.72 2184.9,1445.72 2185.91,1445.72 2186.92,1445.72 2187.93,1445.72 2188.94,1445.72 2189.95,1445.72 2190.97,1445.72 2191.98,1445.72 2192.99,1445.72 2194,1445.72 2195.01,1445.72 2196.02,1445.72 2197.03,1445.72 2198.04,1445.72 2199.05,1445.72 2200.07,1445.72 2201.08,1445.72 2202.09,1445.72 2203.1,1445.72 2204.11,1445.72 2205.12,1445.72 2206.13,1445.72 2207.14,1445.72 2208.16,1445.72 2209.17,1445.72 2210.18,1445.72 2211.19,1445.72 2212.2,1445.72 2213.21,1445.72 2214.22,1445.72 2215.23,1445.72 2216.24,1445.72 2217.26,1445.72 2218.27,1445.72 2219.28,1445.72 2220.29,1445.72 2221.3,1445.72 2222.31,1445.72 2223.32,1445.72 2224.33,1445.72 2225.35,1445.72 2226.36,1445.72 2227.37,1445.72 2228.38,1445.72 2229.39,1445.72 2230.4,1445.72 2231.41,1445.72 2232.42,1445.72 2233.44,1445.72 2234.45,1445.72 2235.46,1445.72 2236.47,1445.72 2237.48,1445.72 2238.49,1445.72 2239.5,1445.72 2240.51,1445.72 2241.52,1445.72 2242.54,1445.72 2243.55,1445.72 2244.56,1445.72 2245.57,1445.72 2246.58,1445.72 2247.59,1445.72 2248.6,1445.72 2249.61,1445.72 2250.63,1445.72 2251.64,1445.72 2252.65,1445.72 2253.66,1445.72 2254.67,1445.72 2255.68,1445.72 2256.69,1445.72 2257.7,1445.72 2258.72,1445.72 2259.73,1445.72 2260.74,1445.72 2261.75,1445.72 2262.76,1445.72 2263.77,1445.72 2264.78,1445.72 2265.79,1445.72 2266.8,1445.72 2267.82,1445.72 2268.83,1445.72 2269.84,1445.72 2270.85,1445.72 2271.86,1445.72 2272.87,1445.72 2273.88,1445.72 2274.89,1445.72 2275.91,1445.72 2276.92,1445.72 2277.93,1445.72 2278.94,1445.72 2279.95,1445.72 2280.96,1445.72 2281.97,1445.72 2282.98,1445.72 2283.99,1445.72 2285.01,1445.72 2286.02,1445.72 2287.03,1445.72 2288.04,1445.72 2289.05,1445.72 2290.06,1445.72 2291.07,1445.72 2292.08,1445.72 "/>
<path clip-path="url(#clip810)" d="M2014.5 198.898 L2281.3 198.898 L2281.3 95.2176 L2014.5 95.2176  Z" fill="#ffffff" fill-rule="evenodd" fill-opacity="1"/>
<polyline clip-path="url(#clip810)" style="stroke:#000000; stroke-linecap:round; stroke-linejoin:round; stroke-width:4; stroke-opacity:1; fill:none" points="2014.5,198.898 2281.3,198.898 2281.3,95.2176 2014.5,95.2176 2014.5,198.898 "/>
<polyline clip-path="url(#clip810)" style="stroke:#009af9; stroke-linecap:round; stroke-linejoin:round; stroke-width:4; stroke-opacity:1; fill:none" points="2038.31,147.058 2181.23,147.058 "/>
<path clip-path="url(#clip810)" d="M2218.89 166.745 Q2217.09 171.375 2215.37 172.787 Q2213.66 174.199 2210.79 174.199 L2207.39 174.199 L2207.39 170.634 L2209.89 170.634 Q2211.65 170.634 2212.62 169.8 Q2213.59 168.967 2214.77 165.865 L2215.53 163.921 L2205.05 138.412 L2209.56 138.412 L2217.66 158.689 L2225.77 138.412 L2230.28 138.412 L2218.89 166.745 Z" fill="#000000" fill-rule="nonzero" fill-opacity="1" /><path clip-path="url(#clip810)" d="M2237.57 160.402 L2245.21 160.402 L2245.21 134.037 L2236.9 135.703 L2236.9 131.444 L2245.16 129.778 L2249.84 129.778 L2249.84 160.402 L2257.48 160.402 L2257.48 164.338 L2237.57 164.338 L2237.57 160.402 Z" fill="#000000" fill-rule="nonzero" fill-opacity="1" /></svg>
