<?xml version="1.0" encoding="utf-8"?>
<svg xmlns="http://www.w3.org/2000/svg" xmlns:xlink="http://www.w3.org/1999/xlink" width="600" height="400" viewBox="0 0 2400 1600">
<defs>
  <clipPath id="clip230">
    <rect x="0" y="0" width="2400" height="1600"/>
  </clipPath>
</defs>
<path clip-path="url(#clip230)" d="M0 1600 L2400 1600 L2400 0 L0 0  Z" fill="#ffffff" fill-rule="evenodd" fill-opacity="1"/>
<defs>
  <clipPath id="clip231">
    <rect x="480" y="0" width="1681" height="1600"/>
  </clipPath>
</defs>
<path clip-path="url(#clip230)" d="M112.177 1486.45 L2352.76 1486.45 L2352.76 47.2441 L112.177 47.2441  Z" fill="#ffffff" fill-rule="evenodd" fill-opacity="1"/>
<defs>
  <clipPath id="clip232">
    <rect x="112" y="47" width="2242" height="1440"/>
  </clipPath>
</defs>
<polyline clip-path="url(#clip232)" style="stroke:#000000; stroke-linecap:round; stroke-linejoin:round; stroke-width:2; stroke-opacity:0.1; fill:none" points="175.59,1486.45 175.59,47.2441 "/>
<polyline clip-path="url(#clip232)" style="stroke:#000000; stroke-linecap:round; stroke-linejoin:round; stroke-width:2; stroke-opacity:0.1; fill:none" points="704.028,1486.45 704.028,47.2441 "/>
<polyline clip-path="url(#clip232)" style="stroke:#000000; stroke-linecap:round; stroke-linejoin:round; stroke-width:2; stroke-opacity:0.1; fill:none" points="1232.47,1486.45 1232.47,47.2441 "/>
<polyline clip-path="url(#clip232)" style="stroke:#000000; stroke-linecap:round; stroke-linejoin:round; stroke-width:2; stroke-opacity:0.1; fill:none" points="1760.9,1486.45 1760.9,47.2441 "/>
<polyline clip-path="url(#clip232)" style="stroke:#000000; stroke-linecap:round; stroke-linejoin:round; stroke-width:2; stroke-opacity:0.1; fill:none" points="2289.34,1486.45 2289.34,47.2441 "/>
<polyline clip-path="url(#clip230)" style="stroke:#000000; stroke-linecap:round; stroke-linejoin:round; stroke-width:4; stroke-opacity:1; fill:none" points="112.177,1486.45 2352.76,1486.45 "/>
<polyline clip-path="url(#clip230)" style="stroke:#000000; stroke-linecap:round; stroke-linejoin:round; stroke-width:4; stroke-opacity:1; fill:none" points="175.59,1486.45 175.59,1467.55 "/>
<polyline clip-path="url(#clip230)" style="stroke:#000000; stroke-linecap:round; stroke-linejoin:round; stroke-width:4; stroke-opacity:1; fill:none" points="704.028,1486.45 704.028,1467.55 "/>
<polyline clip-path="url(#clip230)" style="stroke:#000000; stroke-linecap:round; stroke-linejoin:round; stroke-width:4; stroke-opacity:1; fill:none" points="1232.47,1486.45 1232.47,1467.55 "/>
<polyline clip-path="url(#clip230)" style="stroke:#000000; stroke-linecap:round; stroke-linejoin:round; stroke-width:4; stroke-opacity:1; fill:none" points="1760.9,1486.45 1760.9,1467.55 "/>
<polyline clip-path="url(#clip230)" style="stroke:#000000; stroke-linecap:round; stroke-linejoin:round; stroke-width:4; stroke-opacity:1; fill:none" points="2289.34,1486.45 2289.34,1467.55 "/>
<path clip-path="url(#clip230)" d="M175.59 1517.37 Q171.979 1517.37 170.15 1520.93 Q168.344 1524.47 168.344 1531.6 Q168.344 1538.71 170.15 1542.27 Q171.979 1545.82 175.59 1545.82 Q179.224 1545.82 181.03 1542.27 Q182.858 1538.71 182.858 1531.6 Q182.858 1524.47 181.03 1520.93 Q179.224 1517.37 175.59 1517.37 M175.59 1513.66 Q181.4 1513.66 184.455 1518.27 Q187.534 1522.85 187.534 1531.6 Q187.534 1540.33 184.455 1544.94 Q181.4 1549.52 175.59 1549.52 Q169.78 1549.52 166.701 1544.94 Q163.645 1540.33 163.645 1531.6 Q163.645 1522.85 166.701 1518.27 Q169.78 1513.66 175.59 1513.66 Z" fill="#000000" fill-rule="nonzero" fill-opacity="1" /><path clip-path="url(#clip230)" d="M663.646 1514.29 L682.003 1514.29 L682.003 1518.22 L667.929 1518.22 L667.929 1526.7 Q668.947 1526.35 669.966 1526.19 Q670.984 1526 672.003 1526 Q677.79 1526 681.169 1529.17 Q684.549 1532.34 684.549 1537.76 Q684.549 1543.34 681.077 1546.44 Q677.605 1549.52 671.285 1549.52 Q669.109 1549.52 666.841 1549.15 Q664.596 1548.78 662.188 1548.04 L662.188 1543.34 Q664.271 1544.47 666.494 1545.03 Q668.716 1545.58 671.193 1545.58 Q675.197 1545.58 677.535 1543.48 Q679.873 1541.37 679.873 1537.76 Q679.873 1534.15 677.535 1532.04 Q675.197 1529.94 671.193 1529.94 Q669.318 1529.94 667.443 1530.35 Q665.591 1530.77 663.646 1531.65 L663.646 1514.29 Z" fill="#000000" fill-rule="nonzero" fill-opacity="1" /><path clip-path="url(#clip230)" d="M703.762 1517.37 Q700.151 1517.37 698.322 1520.93 Q696.517 1524.47 696.517 1531.6 Q696.517 1538.71 698.322 1542.27 Q700.151 1545.82 703.762 1545.82 Q707.396 1545.82 709.202 1542.27 Q711.03 1538.71 711.03 1531.6 Q711.03 1524.47 709.202 1520.93 Q707.396 1517.37 703.762 1517.37 M703.762 1513.66 Q709.572 1513.66 712.628 1518.27 Q715.706 1522.85 715.706 1531.6 Q715.706 1540.33 712.628 1544.94 Q709.572 1549.52 703.762 1549.52 Q697.952 1549.52 694.873 1544.94 Q691.818 1540.33 691.818 1531.6 Q691.818 1522.85 694.873 1518.27 Q697.952 1513.66 703.762 1513.66 Z" fill="#000000" fill-rule="nonzero" fill-opacity="1" /><path clip-path="url(#clip230)" d="M733.924 1517.37 Q730.313 1517.37 728.484 1520.93 Q726.679 1524.47 726.679 1531.6 Q726.679 1538.71 728.484 1542.27 Q730.313 1545.82 733.924 1545.82 Q737.558 1545.82 739.364 1542.27 Q741.192 1538.71 741.192 1531.6 Q741.192 1524.47 739.364 1520.93 Q737.558 1517.37 733.924 1517.37 M733.924 1513.66 Q739.734 1513.66 742.79 1518.27 Q745.868 1522.85 745.868 1531.6 Q745.868 1540.33 742.79 1544.94 Q739.734 1549.52 733.924 1549.52 Q728.114 1549.52 725.035 1544.94 Q721.979 1540.33 721.979 1531.6 Q721.979 1522.85 725.035 1518.27 Q728.114 1513.66 733.924 1513.66 Z" fill="#000000" fill-rule="nonzero" fill-opacity="1" /><path clip-path="url(#clip230)" d="M1176.99 1544.91 L1184.63 1544.91 L1184.63 1518.55 L1176.32 1520.21 L1176.32 1515.95 L1184.58 1514.29 L1189.26 1514.29 L1189.26 1544.91 L1196.9 1544.91 L1196.9 1548.85 L1176.99 1548.85 L1176.99 1544.91 Z" fill="#000000" fill-rule="nonzero" fill-opacity="1" /><path clip-path="url(#clip230)" d="M1216.34 1517.37 Q1212.73 1517.37 1210.9 1520.93 Q1209.1 1524.47 1209.1 1531.6 Q1209.1 1538.71 1210.9 1542.27 Q1212.73 1545.82 1216.34 1545.82 Q1219.98 1545.82 1221.78 1542.27 Q1223.61 1538.71 1223.61 1531.6 Q1223.61 1524.47 1221.78 1520.93 Q1219.98 1517.37 1216.34 1517.37 M1216.34 1513.66 Q1222.15 1513.66 1225.21 1518.27 Q1228.29 1522.85 1228.29 1531.6 Q1228.29 1540.33 1225.21 1544.94 Q1222.15 1549.52 1216.34 1549.52 Q1210.53 1549.52 1207.46 1544.94 Q1204.4 1540.33 1204.4 1531.6 Q1204.4 1522.85 1207.46 1518.27 Q1210.53 1513.66 1216.34 1513.66 Z" fill="#000000" fill-rule="nonzero" fill-opacity="1" /><path clip-path="url(#clip230)" d="M1246.51 1517.37 Q1242.89 1517.37 1241.07 1520.93 Q1239.26 1524.47 1239.26 1531.6 Q1239.26 1538.71 1241.07 1542.27 Q1242.89 1545.82 1246.51 1545.82 Q1250.14 1545.82 1251.95 1542.27 Q1253.77 1538.71 1253.77 1531.6 Q1253.77 1524.47 1251.95 1520.93 Q1250.14 1517.37 1246.51 1517.37 M1246.51 1513.66 Q1252.32 1513.66 1255.37 1518.27 Q1258.45 1522.85 1258.45 1531.6 Q1258.45 1540.33 1255.37 1544.94 Q1252.32 1549.52 1246.51 1549.52 Q1240.7 1549.52 1237.62 1544.94 Q1234.56 1540.33 1234.56 1531.6 Q1234.56 1522.85 1237.62 1518.27 Q1240.7 1513.66 1246.51 1513.66 Z" fill="#000000" fill-rule="nonzero" fill-opacity="1" /><path clip-path="url(#clip230)" d="M1276.67 1517.37 Q1273.06 1517.37 1271.23 1520.93 Q1269.42 1524.47 1269.42 1531.6 Q1269.42 1538.71 1271.23 1542.27 Q1273.06 1545.82 1276.67 1545.82 Q1280.3 1545.82 1282.11 1542.27 Q1283.94 1538.71 1283.94 1531.6 Q1283.94 1524.47 1282.11 1520.93 Q1280.3 1517.37 1276.67 1517.37 M1276.67 1513.66 Q1282.48 1513.66 1285.53 1518.27 Q1288.61 1522.85 1288.61 1531.6 Q1288.61 1540.33 1285.53 1544.94 Q1282.48 1549.52 1276.67 1549.52 Q1270.86 1549.52 1267.78 1544.94 Q1264.72 1540.33 1264.72 1531.6 Q1264.72 1522.85 1267.78 1518.27 Q1270.86 1513.66 1276.67 1513.66 Z" fill="#000000" fill-rule="nonzero" fill-opacity="1" /><path clip-path="url(#clip230)" d="M1705.43 1544.91 L1713.07 1544.91 L1713.07 1518.55 L1704.76 1520.21 L1704.76 1515.95 L1713.02 1514.29 L1717.7 1514.29 L1717.7 1544.91 L1725.34 1544.91 L1725.34 1548.85 L1705.43 1548.85 L1705.43 1544.91 Z" fill="#000000" fill-rule="nonzero" fill-opacity="1" /><path clip-path="url(#clip230)" d="M1734.83 1514.29 L1753.19 1514.29 L1753.19 1518.22 L1739.11 1518.22 L1739.11 1526.7 Q1740.13 1526.35 1741.15 1526.19 Q1742.17 1526 1743.19 1526 Q1748.97 1526 1752.35 1529.17 Q1755.73 1532.34 1755.73 1537.76 Q1755.73 1543.34 1752.26 1546.44 Q1748.79 1549.52 1742.47 1549.52 Q1740.29 1549.52 1738.02 1549.15 Q1735.78 1548.78 1733.37 1548.04 L1733.37 1543.34 Q1735.45 1544.47 1737.68 1545.03 Q1739.9 1545.58 1742.37 1545.58 Q1746.38 1545.58 1748.72 1543.48 Q1751.06 1541.37 1751.06 1537.76 Q1751.06 1534.15 1748.72 1532.04 Q1746.38 1529.94 1742.37 1529.94 Q1740.5 1529.94 1738.62 1530.35 Q1736.77 1530.77 1734.83 1531.65 L1734.83 1514.29 Z" fill="#000000" fill-rule="nonzero" fill-opacity="1" /><path clip-path="url(#clip230)" d="M1774.94 1517.37 Q1771.33 1517.37 1769.5 1520.93 Q1767.7 1524.47 1767.7 1531.6 Q1767.7 1538.71 1769.5 1542.27 Q1771.33 1545.82 1774.94 1545.82 Q1778.58 1545.82 1780.38 1542.27 Q1782.21 1538.71 1782.21 1531.6 Q1782.21 1524.47 1780.38 1520.93 Q1778.58 1517.37 1774.94 1517.37 M1774.94 1513.66 Q1780.75 1513.66 1783.81 1518.27 Q1786.89 1522.85 1786.89 1531.6 Q1786.89 1540.33 1783.81 1544.94 Q1780.75 1549.52 1774.94 1549.52 Q1769.13 1549.52 1766.06 1544.94 Q1763 1540.33 1763 1531.6 Q1763 1522.85 1766.06 1518.27 Q1769.13 1513.66 1774.94 1513.66 Z" fill="#000000" fill-rule="nonzero" fill-opacity="1" /><path clip-path="url(#clip230)" d="M1805.11 1517.37 Q1801.49 1517.37 1799.67 1520.93 Q1797.86 1524.47 1797.86 1531.6 Q1797.86 1538.71 1799.67 1542.27 Q1801.49 1545.82 1805.11 1545.82 Q1808.74 1545.82 1810.55 1542.27 Q1812.37 1538.71 1812.37 1531.6 Q1812.37 1524.47 1810.55 1520.93 Q1808.74 1517.37 1805.11 1517.37 M1805.11 1513.66 Q1810.92 1513.66 1813.97 1518.27 Q1817.05 1522.85 1817.05 1531.6 Q1817.05 1540.33 1813.97 1544.94 Q1810.92 1549.52 1805.11 1549.52 Q1799.3 1549.52 1796.22 1544.94 Q1793.16 1540.33 1793.16 1531.6 Q1793.16 1522.85 1796.22 1518.27 Q1799.3 1513.66 1805.11 1513.66 Z" fill="#000000" fill-rule="nonzero" fill-opacity="1" /><path clip-path="url(#clip230)" d="M2237.95 1544.91 L2254.27 1544.91 L2254.27 1548.85 L2232.33 1548.85 L2232.33 1544.91 Q2234.99 1542.16 2239.58 1537.53 Q2244.18 1532.88 2245.36 1531.53 Q2247.61 1529.01 2248.49 1527.27 Q2249.39 1525.51 2249.39 1523.82 Q2249.39 1521.07 2247.45 1519.33 Q2245.52 1517.6 2242.42 1517.6 Q2240.22 1517.6 2237.77 1518.36 Q2235.34 1519.13 2232.56 1520.68 L2232.56 1515.95 Q2235.39 1514.82 2237.84 1514.24 Q2240.29 1513.66 2242.33 1513.66 Q2247.7 1513.66 2250.89 1516.35 Q2254.09 1519.03 2254.09 1523.52 Q2254.09 1525.65 2253.28 1527.57 Q2252.49 1529.47 2250.39 1532.07 Q2249.81 1532.74 2246.7 1535.95 Q2243.6 1539.15 2237.95 1544.91 Z" fill="#000000" fill-rule="nonzero" fill-opacity="1" /><path clip-path="url(#clip230)" d="M2274.09 1517.37 Q2270.48 1517.37 2268.65 1520.93 Q2266.84 1524.47 2266.84 1531.6 Q2266.84 1538.71 2268.65 1542.27 Q2270.48 1545.82 2274.09 1545.82 Q2277.72 1545.82 2279.53 1542.27 Q2281.36 1538.71 2281.36 1531.6 Q2281.36 1524.47 2279.53 1520.93 Q2277.72 1517.37 2274.09 1517.37 M2274.09 1513.66 Q2279.9 1513.66 2282.95 1518.27 Q2286.03 1522.85 2286.03 1531.6 Q2286.03 1540.33 2282.95 1544.94 Q2279.9 1549.52 2274.09 1549.52 Q2268.28 1549.52 2265.2 1544.94 Q2262.14 1540.33 2262.14 1531.6 Q2262.14 1522.85 2265.2 1518.27 Q2268.28 1513.66 2274.09 1513.66 Z" fill="#000000" fill-rule="nonzero" fill-opacity="1" /><path clip-path="url(#clip230)" d="M2304.25 1517.37 Q2300.64 1517.37 2298.81 1520.93 Q2297.01 1524.47 2297.01 1531.6 Q2297.01 1538.71 2298.81 1542.27 Q2300.64 1545.82 2304.25 1545.82 Q2307.88 1545.82 2309.69 1542.27 Q2311.52 1538.71 2311.52 1531.6 Q2311.52 1524.47 2309.69 1520.93 Q2307.88 1517.37 2304.25 1517.37 M2304.25 1513.66 Q2310.06 1513.66 2313.12 1518.27 Q2316.2 1522.85 2316.2 1531.6 Q2316.2 1540.33 2313.12 1544.94 Q2310.06 1549.52 2304.25 1549.52 Q2298.44 1549.52 2295.36 1544.94 Q2292.31 1540.33 2292.31 1531.6 Q2292.31 1522.85 2295.36 1518.27 Q2298.44 1513.66 2304.25 1513.66 Z" fill="#000000" fill-rule="nonzero" fill-opacity="1" /><path clip-path="url(#clip230)" d="M2334.41 1517.37 Q2330.8 1517.37 2328.97 1520.93 Q2327.17 1524.47 2327.17 1531.6 Q2327.17 1538.71 2328.97 1542.27 Q2330.8 1545.82 2334.41 1545.82 Q2338.05 1545.82 2339.85 1542.27 Q2341.68 1538.71 2341.68 1531.6 Q2341.68 1524.47 2339.85 1520.93 Q2338.05 1517.37 2334.41 1517.37 M2334.41 1513.66 Q2340.22 1513.66 2343.28 1518.27 Q2346.36 1522.85 2346.36 1531.6 Q2346.36 1540.33 2343.28 1544.94 Q2340.22 1549.52 2334.41 1549.52 Q2328.6 1549.52 2325.52 1544.94 Q2322.47 1540.33 2322.47 1531.6 Q2322.47 1522.85 2325.52 1518.27 Q2328.6 1513.66 2334.41 1513.66 Z" fill="#000000" fill-rule="nonzero" fill-opacity="1" /><polyline clip-path="url(#clip232)" style="stroke:#000000; stroke-linecap:round; stroke-linejoin:round; stroke-width:2; stroke-opacity:0.1; fill:none" points="112.177,1382.91 2352.76,1382.91 "/>
<polyline clip-path="url(#clip232)" style="stroke:#000000; stroke-linecap:round; stroke-linejoin:round; stroke-width:2; stroke-opacity:0.1; fill:none" points="112.177,1157.33 2352.76,1157.33 "/>
<polyline clip-path="url(#clip232)" style="stroke:#000000; stroke-linecap:round; stroke-linejoin:round; stroke-width:2; stroke-opacity:0.1; fill:none" points="112.177,931.751 2352.76,931.751 "/>
<polyline clip-path="url(#clip232)" style="stroke:#000000; stroke-linecap:round; stroke-linejoin:round; stroke-width:2; stroke-opacity:0.1; fill:none" points="112.177,706.172 2352.76,706.172 "/>
<polyline clip-path="url(#clip232)" style="stroke:#000000; stroke-linecap:round; stroke-linejoin:round; stroke-width:2; stroke-opacity:0.1; fill:none" points="112.177,480.593 2352.76,480.593 "/>
<polyline clip-path="url(#clip232)" style="stroke:#000000; stroke-linecap:round; stroke-linejoin:round; stroke-width:2; stroke-opacity:0.1; fill:none" points="112.177,255.013 2352.76,255.013 "/>
<polyline clip-path="url(#clip230)" style="stroke:#000000; stroke-linecap:round; stroke-linejoin:round; stroke-width:4; stroke-opacity:1; fill:none" points="112.177,1486.45 112.177,47.2441 "/>
<polyline clip-path="url(#clip230)" style="stroke:#000000; stroke-linecap:round; stroke-linejoin:round; stroke-width:4; stroke-opacity:1; fill:none" points="112.177,1382.91 131.075,1382.91 "/>
<polyline clip-path="url(#clip230)" style="stroke:#000000; stroke-linecap:round; stroke-linejoin:round; stroke-width:4; stroke-opacity:1; fill:none" points="112.177,1157.33 131.075,1157.33 "/>
<polyline clip-path="url(#clip230)" style="stroke:#000000; stroke-linecap:round; stroke-linejoin:round; stroke-width:4; stroke-opacity:1; fill:none" points="112.177,931.751 131.075,931.751 "/>
<polyline clip-path="url(#clip230)" style="stroke:#000000; stroke-linecap:round; stroke-linejoin:round; stroke-width:4; stroke-opacity:1; fill:none" points="112.177,706.172 131.075,706.172 "/>
<polyline clip-path="url(#clip230)" style="stroke:#000000; stroke-linecap:round; stroke-linejoin:round; stroke-width:4; stroke-opacity:1; fill:none" points="112.177,480.593 131.075,480.593 "/>
<polyline clip-path="url(#clip230)" style="stroke:#000000; stroke-linecap:round; stroke-linejoin:round; stroke-width:4; stroke-opacity:1; fill:none" points="112.177,255.013 131.075,255.013 "/>
<path clip-path="url(#clip230)" d="M56.2699 1396.25 L63.9087 1396.25 L63.9087 1369.89 L55.5986 1371.56 L55.5986 1367.3 L63.8624 1365.63 L68.5383 1365.63 L68.5383 1396.25 L76.1772 1396.25 L76.1772 1400.19 L56.2699 1400.19 L56.2699 1396.25 Z" fill="#000000" fill-rule="nonzero" fill-opacity="1" /><path clip-path="url(#clip230)" d="M59.8578 1170.67 L76.1772 1170.67 L76.1772 1174.61 L54.2328 1174.61 L54.2328 1170.67 Q56.8949 1167.92 61.4782 1163.29 Q66.0846 1158.64 67.2652 1157.3 Q69.5105 1154.77 70.3902 1153.04 Q71.2929 1151.28 71.2929 1149.59 Q71.2929 1146.83 69.3485 1145.1 Q67.4272 1143.36 64.3254 1143.36 Q62.1263 1143.36 59.6726 1144.12 Q57.2421 1144.89 54.4643 1146.44 L54.4643 1141.72 Q57.2884 1140.58 59.7421 1140 Q62.1958 1139.43 64.2328 1139.43 Q69.6031 1139.43 72.7976 1142.11 Q75.992 1144.8 75.992 1149.29 Q75.992 1151.42 75.1818 1153.34 Q74.3948 1155.24 72.2883 1157.83 Q71.7096 1158.5 68.6078 1161.72 Q65.5059 1164.91 59.8578 1170.67 Z" fill="#000000" fill-rule="nonzero" fill-opacity="1" /><path clip-path="url(#clip230)" d="M69.0476 930.397 Q72.404 931.114 74.279 933.383 Q76.1772 935.651 76.1772 938.985 Q76.1772 944.1 72.6587 946.901 Q69.1402 949.702 62.6587 949.702 Q60.4828 949.702 58.168 949.262 Q55.8764 948.846 53.4227 947.989 L53.4227 943.475 Q55.3671 944.61 57.6819 945.188 Q59.9967 945.767 62.5198 945.767 Q66.918 945.767 69.2096 944.031 Q71.5244 942.295 71.5244 938.985 Q71.5244 935.929 69.3717 934.216 Q67.242 932.48 63.4226 932.48 L59.3949 932.48 L59.3949 928.638 L63.6078 928.638 Q67.0569 928.638 68.8855 927.272 Q70.7142 925.883 70.7142 923.29 Q70.7142 920.628 68.8161 919.216 Q66.9411 917.781 63.4226 917.781 Q61.5013 917.781 59.3023 918.198 Q57.1032 918.614 54.4643 919.494 L54.4643 915.327 Q57.1264 914.587 59.4412 914.216 Q61.7791 913.846 63.8393 913.846 Q69.1633 913.846 72.2652 916.276 Q75.367 918.684 75.367 922.804 Q75.367 925.675 73.7235 927.665 Q72.08 929.633 69.0476 930.397 Z" fill="#000000" fill-rule="nonzero" fill-opacity="1" /><path clip-path="url(#clip230)" d="M66.5939 692.966 L54.7884 711.415 L66.5939 711.415 L66.5939 692.966 M65.367 688.892 L71.2466 688.892 L71.2466 711.415 L76.1772 711.415 L76.1772 715.304 L71.2466 715.304 L71.2466 723.452 L66.5939 723.452 L66.5939 715.304 L50.9921 715.304 L50.9921 710.79 L65.367 688.892 Z" fill="#000000" fill-rule="nonzero" fill-opacity="1" /><path clip-path="url(#clip230)" d="M55.2745 463.313 L73.6309 463.313 L73.6309 467.248 L59.5569 467.248 L59.5569 475.72 Q60.5754 475.373 61.5939 475.211 Q62.6124 475.025 63.6309 475.025 Q69.418 475.025 72.7976 478.197 Q76.1772 481.368 76.1772 486.785 Q76.1772 492.363 72.705 495.465 Q69.2328 498.544 62.9134 498.544 Q60.7374 498.544 58.4689 498.173 Q56.2236 497.803 53.8162 497.062 L53.8162 492.363 Q55.8995 493.498 58.1217 494.053 Q60.3439 494.609 62.8208 494.609 Q66.8254 494.609 69.1633 492.502 Q71.5013 490.396 71.5013 486.785 Q71.5013 483.174 69.1633 481.067 Q66.8254 478.961 62.8208 478.961 Q60.9458 478.961 59.0708 479.377 Q57.2189 479.794 55.2745 480.674 L55.2745 463.313 Z" fill="#000000" fill-rule="nonzero" fill-opacity="1" /><path clip-path="url(#clip230)" d="M64.6495 253.15 Q61.5013 253.15 59.6495 255.303 Q57.8208 257.456 57.8208 261.205 Q57.8208 264.932 59.6495 267.108 Q61.5013 269.261 64.6495 269.261 Q67.7976 269.261 69.6263 267.108 Q71.4781 264.932 71.4781 261.205 Q71.4781 257.456 69.6263 255.303 Q67.7976 253.15 64.6495 253.15 M73.9318 238.497 L73.9318 242.757 Q72.1726 241.923 70.367 241.483 Q68.5846 241.044 66.8254 241.044 Q62.1958 241.044 59.7421 244.169 Q57.3115 247.294 56.9643 253.613 Q58.33 251.599 60.3902 250.534 Q62.4504 249.446 64.9272 249.446 Q70.1355 249.446 73.1448 252.618 Q76.1772 255.766 76.1772 261.205 Q76.1772 266.53 73.029 269.747 Q69.8809 272.965 64.6495 272.965 Q58.6541 272.965 55.4828 268.381 Q52.3116 263.775 52.3116 255.048 Q52.3116 246.854 56.2004 241.993 Q60.0893 237.108 66.6402 237.108 Q68.3994 237.108 70.1818 237.456 Q71.9874 237.803 73.9318 238.497 Z" fill="#000000" fill-rule="nonzero" fill-opacity="1" /><polyline clip-path="url(#clip232)" style="stroke:#009af9; stroke-linecap:round; stroke-linejoin:round; stroke-width:4; stroke-opacity:1; fill:none" points="175.59,1332.62 176.647,1333.07 177.704,1165.5 178.76,1166.29 179.817,1343.02 180.874,1343.62 181.931,1347.29 182.988,1347.71 184.045,1384.96 185.102,1385.23 186.159,989.436 187.215,991.665 188.272,1180.97 189.329,1181.86 190.386,1296.27 191.443,1296.87 192.5,1143.96 193.557,1144.75 194.614,1367.74 195.67,1368.11 196.727,1417.79 197.784,1417.99 198.841,1349.57 199.898,1350.03 200.955,1156.49 202.012,1157.26 203.069,1395.8 204.125,1396.03 205.182,1445.49 206.239,1445.72 207.296,1257.42 208.353,1257.85 209.41,1221.1 210.467,1222.2 211.524,1204.7 212.58,1205.32 213.637,1090.58 214.694,1092.53 215.751,1292.48 216.808,1292.95 217.865,1407.85 218.922,1408.06 219.979,842.844 221.035,844.339 222.092,1234.33 223.149,1234.75 224.206,754.713 225.263,757.325 226.32,1089.09 227.377,1089.98 228.434,1049.59 229.49,1050.91 230.547,1259.5 231.604,1260.32 232.661,1205.77 233.718,1206.43 234.775,1268.75 235.832,1269.05 236.889,1206.46 237.946,1207.08 239.002,1194.6 240.059,1195.13 241.116,1198.76 242.173,1199.53 243.23,1372.14 244.287,1372.44 245.344,1141.25 246.401,1142.39 247.457,1111.6 248.514,1112.37 249.571,1211.3 250.628,1212.36 251.685,1275.89 252.742,1276.47 253.799,926.534 254.856,927.656 255.912,972.164 256.969,973.852 258.026,1111.16 259.083,1111.97 260.14,1250.5 261.197,1251.39 262.254,1171.51 263.311,1172.09 264.367,1199.44 265.424,1199.83 266.481,1220.28 267.538,1221.35 268.595,1168.62 269.652,1169.45 270.709,1107.61 271.766,1108.47 272.822,645.279 273.879,648.701 274.936,1319.98 275.993,1320.74 277.05,1134.75 278.107,1135.39 279.164,1130.19 280.221,1130.87 281.277,1014.22 282.334,1015.44 283.391,965.553 284.448,967.37 285.505,744.111 286.562,745.455 287.619,1318.27 288.676,1318.66 289.732,909.443 290.789,910.741 291.846,1305.58 292.903,1305.99 293.96,1229.81 295.017,1230.3 296.074,1124.75 297.131,1125.71 298.187,1243.6 299.244,1244 300.301,1033.33 301.358,1034.24 302.415,1232.39 303.472,1233.2 304.529,1330.77 305.586,1331.11 306.642,1152.09 307.699,1152.59 308.756,1110.85 309.813,1111.64 310.87,1397.36 311.927,1397.65 312.984,1174.61 314.041,1175.13 315.098,1080.72 316.154,1082.28 317.211,1240.14 318.268,1240.57 319.325,1022.65 320.382,1024.32 321.439,1208.15 322.496,1208.5 323.553,1261.49 324.609,1262.05 325.666,1235.53 326.723,1236.17 327.78,1243.6 328.837,1244.62 329.894,1068.82 330.951,1069.47 332.008,1011.11 333.064,1011.99 334.121,872.365 335.178,874.552 336.235,1077.98 337.292,1078.8 338.349,1181.32 339.406,1181.65 340.463,621.056 341.519,622.537 342.576,1054.55 343.633,1055.49 344.69,1295.79 345.747,1296.21 346.804,1163.92 347.861,1164.76 348.918,994.64 349.974,995.872 351.031,1183.74 352.088,1184.18 353.145,908.368 354.202,909.964 355.259,1029.59 356.316,1030.45 357.373,1316.47 358.429,1316.85 359.486,1042.93 360.543,1043.64 361.6,1069.12 362.657,1069.79 363.714,1164.24 364.771,1164.67 365.828,1006.99 366.884,1008.09 367.941,1237.32 368.998,1237.63 370.055,382.174 371.112,385.409 372.169,1131.88 373.226,1132.32 374.283,1236.82 375.339,1237.47 376.396,1211.17 377.453,1211.65 378.51,1035.84 379.567,1036.52 380.624,1318.13 381.681,1318.71 382.738,1258.67 383.795,1259.15 384.851,1247.86 385.908,1248.15 386.965,1080.44 388.022,1080.9 389.079,1071.54 390.136,1072.26 391.193,1244.4 392.25,1244.72 393.306,1188.86 394.363,1189.43 395.42,1066.48 396.477,1067.59 397.534,1257.91 398.591,1258.89 399.648,1218.79 400.705,1219.53 401.761,1299.03 402.818,1299.4 403.875,1212.92 404.932,1213.3 405.989,1010.73 407.046,1011.62 408.103,927.903 409.16,929.304 410.216,939.675 411.273,940.81 412.33,1250.2 413.387,1250.44 414.444,1247.07 415.501,1247.32 416.558,1131.44 417.615,1131.82 418.671,1183.3 419.728,1183.79 420.785,1204.48 421.842,1204.8 422.899,1143.76 423.956,1144.16 425.013,1160.63 426.07,1161.24 427.126,1093.75 428.183,1094.41 429.24,1160.45 430.297,1161.15 431.354,737.638 432.411,740.627 433.468,1143.62 434.525,1143.99 435.581,1103.87 436.638,1104.49 437.695,1105.39 438.752,1105.93 439.809,1070.14 440.866,1070.88 441.923,1170.61 442.98,1170.92 444.036,1215.51 445.093,1215.79 446.15,1155.48 447.207,1155.84 448.264,1082.12 449.321,1082.5 450.378,1285.88 451.435,1286.04 452.491,1285.01 453.548,1285.38 454.605,1248.28 455.662,1248.53 456.719,1171.32 457.776,1171.61 458.833,1071.66 459.89,1072.39 460.947,1056.11 462.003,1056.6 463.06,1147.88 464.117,1148.35 465.174,1104.87 466.231,1105.18 467.288,919.568 468.345,920.877 469.402,1177.81 470.458,1178.33 471.515,918.796 472.572,920.066 473.629,1211.21 474.686,1211.38 475.743,1126.08 476.8,1126.58 477.857,1179.62 478.913,1180.08 479.97,923.464 481.027,924.901 482.084,1211.7 483.141,1211.88 484.198,1042.85 485.255,1043.49 486.312,1169.64 487.368,1170.12 488.425,1158.07 489.482,1158.67 490.539,1133.47 491.596,1133.72 492.653,1326.88 493.71,1327.12 494.767,1259.07 495.823,1259.33 496.88,1012.29 497.937,1012.93 498.994,1204.87 500.051,1205.16 501.108,1153.67 502.165,1153.89 503.222,1049.86 504.278,1050.33 505.335,1226.94 506.392,1227.39 507.449,1106.4 508.506,1106.84 509.563,1154.97 510.62,1155.22 511.677,571.221 512.733,574.043 513.79,1151.92 514.847,1152.15 515.904,1130.42 516.961,1130.96 518.018,1220.47 519.075,1220.9 520.132,1226.22 521.188,1226.82 522.245,949.074 523.302,949.678 524.359,1234.57 525.416,1234.83 526.473,1143.7 527.53,1144.27 528.587,1182.63 529.643,1182.84 530.7,1248.6 531.757,1249.01 532.814,1149.53 533.871,1150.03 534.928,1199.43 535.985,1199.58 537.042,1229.89 538.099,1230.3 539.155,1220.13 540.212,1220.38 541.269,1127.77 542.326,1128.07 543.383,1011.41 544.44,1011.84 545.497,1140.66 546.554,1140.89 547.61,1080.46 548.667,1080.94 549.724,1161.58 550.781,1161.85 551.838,706.148 552.895,707.917 553.952,1275.63 555.009,1276.01 556.065,1168.44 557.122,1168.72 558.179,1195.54 559.236,1195.69 560.293,1118.59 561.35,1118.89 562.407,833.188 563.464,834.753 564.52,1260.62 565.577,1260.94 566.634,1229.08 567.691,1229.31 568.748,912.049 569.805,913.356 570.862,1137.39 571.919,1137.57 572.975,1017.88 574.032,1018.49 575.089,1046.14 576.146,1046.47 577.203,1267.34 578.26,1267.73 579.317,1019.87 580.374,1020.21 581.43,1159.4 582.487,1159.56 583.544,985.772 584.601,986.531 585.658,1145.34 586.715,1145.72 587.772,1263.21 588.829,1263.35 589.885,1181.64 590.942,1181.79 591.999,1048.65 593.056,1049.03 594.113,1214.21 595.17,1214.56 596.227,1208.71 597.284,1208.94 598.34,1084.67 599.397,1084.91 600.454,1256.47 601.511,1256.9 602.568,1151.16 603.625,1151.37 604.682,945.884 605.739,946.54 606.795,1125.81 607.852,1126.09 608.909,1174.95 609.966,1175.2 611.023,1107.54 612.08,1107.74 613.137,1082.46 614.194,1082.8 615.251,1166.62 616.307,1166.91 617.364,1147.74 618.421,1148.17 619.478,1228.33 620.535,1228.49 621.592,872.628 622.649,873.886 623.706,1129.28 624.762,1129.45 625.819,1129.66 626.876,1129.92 627.933,980.013 628.99,980.625 630.047,1036.67 631.104,1036.95 632.161,1150.59 633.217,1150.79 634.274,1018.48 635.331,1019.35 636.388,1087.7 637.445,1087.97 638.502,1193.78 639.559,1194.03 640.616,1232.86 641.672,1232.98 642.729,1221.14 643.786,1221.35 644.843,1115.03 645.9,1115.26 646.957,497.019 648.014,500.719 649.071,1007.24 650.127,1008.26 651.184,1176.65 652.241,1176.85 653.298,1056.75 654.355,1057.09 655.412,1188.16 656.469,1188.29 657.526,1069.96 658.582,1070.18 659.639,1069.88 660.696,1070.28 661.753,1063.02 662.81,1063.42 663.867,696.237 664.924,698.035 665.981,1113.74 667.037,1114.04 668.094,1096.54 669.151,1096.81 670.208,1173.43 671.265,1173.73 672.322,954.437 673.379,955.397 674.436,821.623 675.492,823.086 676.549,973.987 677.606,974.679 678.663,1151.28 679.72,1151.71 680.777,1064.88 681.834,1065.16 682.891,1102.55 683.948,1102.79 685.004,1071.67 686.061,1071.96 687.118,1101.5 688.175,1101.7 689.232,1111.82 690.289,1112.13 691.346,1242.95 692.403,1243.33 693.459,742.088 694.516,743.629 695.573,684.065 696.63,685.712 697.687,1031.92 698.744,1032.28 699.801,1092.88 700.858,1093.02 701.914,1192.56 702.971,1192.72 704.028,1024.44 705.085,1024.98 706.142,1157 707.199,1157.19 708.256,1144.7 709.313,1144.88 710.369,995.538 711.426,996.131 712.483,1118.75 713.54,1118.98 714.597,1124.29 715.654,1124.59 716.711,1086.99 717.768,1087.26 718.824,1264.36 719.881,1264.8 720.938,1010.6 721.995,1010.96 723.052,917.4 724.109,918.265 725.166,926.893 726.223,927.935 727.279,1100.6 728.336,1100.82 729.393,1125.7 730.45,1125.84 731.507,1137.69 732.564,1138.02 733.621,1206.41 734.678,1206.58 735.734,1000.76 736.791,1001.2 737.848,809.169 738.905,810.825 739.962,1069.02 741.019,1069.39 742.076,1119.61 743.133,1119.76 744.189,1042.9 745.246,1043.17 746.303,897.437 747.36,898.294 748.417,887.12 749.474,887.86 750.531,1102.65 751.588,1102.84 752.644,896.174 753.701,897.253 754.758,1070.22 755.815,1070.48 756.872,1057.41 757.929,1057.73 758.986,970.886 760.043,971.721 761.1,1038.55 762.156,1038.98 763.213,929.381 764.27,930.22 765.327,1071.65 766.384,1071.93 767.441,1196.6 768.498,1196.78 769.555,1105.06 770.611,1105.32 771.668,868.886 772.725,870.044 773.782,844.271 774.839,845.818 775.896,988.431 776.953,989.08 778.01,1009.61 779.066,1010.12 780.123,1148.99 781.18,1149.43 782.237,1146.04 783.294,1146.17 784.351,965.987 785.408,966.78 786.465,970.522 787.521,970.856 788.578,1062.03 789.635,1062.25 790.692,1146.48 791.749,1146.78 792.806,1235.02 793.863,1235.2 794.92,1106.08 795.976,1106.4 797.033,1027.1 798.09,1027.48 799.147,1015.79 800.204,1016.01 801.261,970.426 802.318,970.792 803.375,1090.11 804.431,1090.53 805.488,1105.6 806.545,1105.88 807.602,997.944 808.659,998.366 809.716,919.709 810.773,920.5 811.83,991.391 812.886,991.923 813.943,1165.89 815,1166.12 816.057,1085.44 817.114,1085.62 818.171,828.568 819.228,830.188 820.285,757.141 821.341,758.838 822.398,1143.64 823.455,1143.81 824.512,925.732 825.569,926.36 826.626,1102.63 827.683,1102.78 828.74,1057.55 829.796,1057.84 830.853,1147.81 831.91,1147.97 832.967,1194.11 834.024,1194.48 835.081,989.514 836.138,989.697 837.195,1006.77 838.252,1007.2 839.308,1011.27 840.365,1011.82 841.422,883.799 842.479,884.52 843.536,1045.22 844.593,1045.53 845.65,936.139 846.707,936.643 847.763,891.391 848.82,892.745 849.877,1104.14 850.934,1104.34 851.991,932.856 853.048,933.369 854.105,1048.04 855.162,1048.19 856.218,873.344 857.275,874.532 858.332,955.15 859.389,955.6 860.446,1014.36 861.503,1014.82 862.56,1031.75 863.617,1031.91 864.673,1020.2 865.73,1020.51 866.787,1016.7 867.844,1016.95 868.901,1012.1 869.958,1012.41 871.015,1073.11 872.072,1073.61 873.128,1092.66 874.185,1092.9 875.242,855.44 876.299,856.76 877.356,1141.95 878.413,1142.09 879.47,1055.17 880.527,1055.29 881.583,854.674 882.64,855.858 883.697,1041.85 884.754,1042.29 885.811,998.418 886.868,998.689 887.925,1054.2 888.982,1054.42 890.038,1122.69 891.095,1122.81 892.152,1006.4 893.209,1006.53 894.266,1109.37 895.323,1109.46 896.38,1080.89 897.437,1081 898.493,941.559 899.55,942.26 900.607,1052.59 901.664,1052.73 902.721,836.222 903.778,837.06 904.835,949.587 905.892,949.996 906.948,907.013 908.005,907.365 909.062,1114.58 910.119,1114.78 911.176,1094.19 912.233,1094.3 913.29,1113.56 914.347,1113.83 915.404,1089.12 916.46,1089.21 917.517,922.247 918.574,922.691 919.631,987.009 920.688,987.351 921.745,1001.19 922.802,1001.47 923.859,1031.96 924.915,1032.18 925.972,943.163 927.029,943.703 928.086,1051.85 929.143,1052.14 930.2,960.459 931.257,960.708 932.314,924.966 933.37,925.302 934.427,987.062 935.484,987.225 936.541,967.282 937.598,967.886 938.655,1016.9 939.712,1017.09 940.769,1088.82 941.825,1088.93 942.882,711.101 943.939,714.788 944.996,1095.71 946.053,1096.12 947.11,1022.48 948.167,1023.08 949.224,1018.49 950.28,1018.62 951.337,1055.46 952.394,1055.57 953.451,1047.45 954.508,1047.72 955.565,1025.07 956.622,1025.25 957.679,1116.45 958.735,1116.53 959.792,1105.52 960.849,1105.79 961.906,1123.45 962.963,1123.59 964.02,990.391 965.077,990.606 966.134,775.034 967.19,776.699 968.247,1081.13 969.304,1081.5 970.361,868.086 971.418,868.846 972.475,973.49 973.532,973.735 974.589,912.501 975.645,913.09 976.702,1003.01 977.759,1003.25 978.816,966.285 979.873,966.555 980.93,1011.79 981.987,1012.06 983.044,812.324 984.101,813.863 985.157,919.484 986.214,919.753 987.271,1047.67 988.328,1048.04 989.385,1027.15 990.442,1027.52 991.499,1006.58 992.556,1006.69 993.612,948.615 994.669,948.86 995.726,864.757 996.783,865.332 997.84,901.184 998.897,902.036 999.954,909.727 1001.01,910.463 1002.07,1044.16 1003.12,1044.57 1004.18,954.133 1005.24,954.595 1006.29,1050.38 1007.35,1050.67 1008.41,976.078 1009.47,976.236 1010.52,1005.73 1011.58,1005.84 1012.64,992.286 1013.69,992.45 1014.75,950.147 1015.81,950.638 1016.86,873.978 1017.92,874.845 1018.98,923.473 1020.03,923.768 1021.09,1076.82 1022.15,1077.24 1023.2,909.991 1024.26,910.834 1025.32,883.277 1026.38,883.709 1027.43,799.323 1028.49,800.681 1029.55,927.595 1030.6,927.976 1031.66,871.633 1032.72,872.08 1033.77,849.308 1034.83,849.939 1035.89,992.833 1036.94,993.21 1038,979.319 1039.06,979.437 1040.11,1009.46 1041.17,1009.77 1042.23,943.207 1043.29,944.067 1044.34,1032.12 1045.4,1032.32 1046.46,1012.07 1047.51,1012.18 1048.57,938.734 1049.63,938.989 1050.68,1030.07 1051.74,1030.26 1052.8,1031.48 1053.85,1031.8 1054.91,966.651 1055.97,966.792 1057.02,990.215 1058.08,990.471 1059.14,941.384 1060.2,941.552 1061.25,999.298 1062.31,999.537 1063.37,866.408 1064.42,867.006 1065.48,934.357 1066.54,934.91 1067.59,998.721 1068.65,998.906 1069.71,865.16 1070.76,865.636 1071.82,980.234 1072.88,980.363 1073.94,932.638 1074.99,932.968 1076.05,989.233 1077.11,989.39 1078.16,1002.66 1079.22,1002.9 1080.28,1059.36 1081.33,1060.02 1082.39,940.722 1083.45,941.165 1084.5,909.704 1085.56,910.232 1086.62,986.022 1087.67,986.118 1088.73,851.072 1089.79,852.04 1090.85,903.021 1091.9,903.229 1092.96,919.183 1094.02,919.632 1095.07,1021.7 1096.13,1021.87 1097.19,1011.14 1098.24,1011.26 1099.3,915.164 1100.36,915.377 1101.41,950.021 1102.47,950.629 1103.53,925.95 1104.58,926.83 1105.64,1073.42 1106.7,1073.65 1107.76,947.935 1108.81,948.087 1109.87,878.835 1110.93,879.344 1111.98,940.531 1113.04,940.704 1114.1,921.978 1115.15,922.262 1116.21,940.44 1117.27,940.681 1118.32,1028.4 1119.38,1028.61 1120.44,920.173 1121.49,920.377 1122.55,951.289 1123.61,951.486 1124.67,849.976 1125.72,850.556 1126.78,1059.82 1127.84,1060.07 1128.89,917 1129.95,917.469 1131.01,946.631 1132.06,947.093 1133.12,892.82 1134.18,893.386 1135.23,1060.96 1136.29,1061.32 1137.35,900.738 1138.4,901.075 1139.46,1007.73 1140.52,1007.94 1141.58,1022.86 1142.63,1023.08 1143.69,907.832 1144.75,908.106 1145.8,1032.36 1146.86,1032.63 1147.92,878.859 1148.97,879.297 1150.03,810.483 1151.09,811.657 1152.14,903.097 1153.2,903.515 1154.26,987.244 1155.31,987.549 1156.37,1011.93 1157.43,1012.21 1158.49,949.915 1159.54,950.062 1160.6,828.481 1161.66,829.361 1162.71,927.695 1163.77,928.065 1164.83,893.635 1165.88,894.452 1166.94,959.669 1168,959.847 1169.05,894.353 1170.11,894.56 1171.17,832.506 1172.22,833.02 1173.28,650.694 1174.34,652.054 1175.4,917.785 1176.45,918.412 1177.51,1012.8 1178.57,1013.09 1179.62,943.763 1180.68,944.126 1181.74,979.396 1182.79,979.559 1183.85,867.618 1184.91,868.448 1185.96,967.971 1187.02,968.156 1188.08,961.426 1189.13,961.653 1190.19,992.018 1191.25,992.647 1192.31,924.153 1193.36,924.268 1194.42,962.091 1195.48,962.391 1196.53,857.421 1197.59,857.797 1198.65,912.573 1199.7,912.701 1200.76,871.464 1201.82,871.898 1202.87,899.173 1203.93,899.344 1204.99,87.9763 1206.04,91.3587 1207.1,866.621 1208.16,867.849 1209.22,827.908 1210.27,828.575 1211.33,852.04 1212.39,852.711 1213.44,874.786 1214.5,875.117 1215.56,881.57 1216.61,882.065 1217.67,988.261 1218.73,988.621 1219.78,979.221 1220.84,979.324 1221.9,860.512 1222.95,861.107 1224.01,1040.28 1225.07,1040.63 1226.13,950.824 1227.18,951.134 1228.24,797.906 1229.3,798.836 1230.35,952.018 1231.41,952.195 1232.47,880.143 1233.52,880.506 1234.58,966.974 1235.64,967.258 1236.69,856.424 1237.75,856.722 1238.81,793.363 1239.86,794.445 1240.92,912.279 1241.98,912.487 1243.04,906.588 1244.09,907.144 1245.15,917.797 1246.21,918.106 1247.26,1037.77 1248.32,1038.2 1249.38,947.052 1250.43,947.226 1251.49,864.453 1252.55,865.313 1253.6,850.612 1254.66,850.972 1255.72,953.454 1256.77,953.628 1257.83,968.67 1258.89,968.991 1259.95,918.101 1261,918.275 1262.06,891.238 1263.12,891.466 1264.17,924.809 1265.23,924.993 1266.29,926.02 1267.34,926.307 1268.4,927.966 1269.46,928.14 1270.51,1002.44 1271.57,1002.79 1272.63,911.015 1273.68,911.401 1274.74,890.166 1275.8,890.259 1276.86,829.444 1277.91,829.832 1278.97,936.845 1280.03,937.111 1281.08,947.886 1282.14,948.063 1283.2,971.007 1284.25,971.474 1285.31,889.514 1286.37,889.685 1287.42,913.679 1288.48,913.824 1289.54,877.951 1290.59,878.223 1291.65,954.93 1292.71,955.173 1293.77,929.865 1294.82,930.208 1295.88,949.773 1296.94,950.042 1297.99,979.97 1299.05,980.042 1300.11,912.716 1301.16,913.007 1302.22,889.457 1303.28,889.822 1304.33,905.912 1305.39,906.018 1306.45,950.862 1307.5,951.17 1308.56,857.139 1309.62,857.74 1310.68,912.827 1311.73,912.928 1312.79,827.767 1313.85,828.515 1314.9,874.663 1315.96,875.043 1317.02,969.911 1318.07,970.1 1319.13,905.332 1320.19,905.42 1321.24,955.854 1322.3,955.984 1323.36,824.17 1324.41,824.808 1325.47,826.967 1326.53,827.586 1327.59,839.309 1328.64,839.668 1329.7,902.736 1330.76,903.142 1331.81,986.096 1332.87,986.217 1333.93,942.523 1334.98,942.624 1336.04,889.685 1337.1,889.83 1338.15,907.744 1339.21,908.673 1340.27,860.271 1341.32,860.88 1342.38,847.394 1343.44,847.671 1344.5,870.717 1345.55,871.235 1346.61,905.171 1347.67,905.337 1348.72,942.247 1349.78,942.494 1350.84,958.859 1351.89,958.946 1352.95,962.531 1354.01,962.654 1355.06,844.911 1356.12,845.039 1357.18,929.351 1358.23,929.43 1359.29,926.95 1360.35,927.06 1361.41,901.588 1362.46,901.701 1363.52,992.933 1364.58,993.06 1365.63,899.189 1366.69,899.569 1367.75,926.165 1368.8,926.261 1369.86,953.396 1370.92,953.632 1371.97,967.613 1373.03,968.188 1374.09,892.49 1375.14,893.059 1376.2,961.609 1377.26,961.731 1378.32,884.942 1379.37,885.369 1380.43,846.899 1381.49,847.123 1382.54,828.372 1383.6,828.863 1384.66,758.262 1385.71,760.105 1386.77,865.774 1387.83,865.986 1388.88,946.391 1389.94,946.521 1391,912.984 1392.05,913.084 1393.11,838.576 1394.17,838.791 1395.23,824.076 1396.28,824.49 1397.34,898.628 1398.4,898.757 1399.45,874.74 1400.51,875.062 1401.57,921.828 1402.62,922.182 1403.68,905.035 1404.74,905.306 1405.79,891.304 1406.85,891.426 1407.91,960.923 1408.96,961.324 1410.02,838.596 1411.08,838.675 1412.14,847.587 1413.19,848.046 1414.25,854.548 1415.31,854.84 1416.36,825.542 1417.42,826.092 1418.48,923.892 1419.53,924.479 1420.59,883.226 1421.65,883.749 1422.7,908.837 1423.76,909.115 1424.82,899.861 1425.87,899.989 1426.93,916.782 1427.99,917.044 1429.05,828.17 1430.1,828.695 1431.16,909.521 1432.22,909.615 1433.27,935.738 1434.33,935.873 1435.39,907.016 1436.44,907.154 1437.5,812.711 1438.56,813.227 1439.61,868.849 1440.67,870.527 1441.73,952.267 1442.79,952.512 1443.84,903.85 1444.9,903.991 1445.96,931.451 1447.01,932.147 1448.07,836.948 1449.13,837.532 1450.18,856.056 1451.24,856.755 1452.3,864.651 1453.35,864.854 1454.41,931.779 1455.47,932.105 1456.52,847.851 1457.58,848.394 1458.64,855.006 1459.7,855.229 1460.75,831.421 1461.81,831.886 1462.87,938.52 1463.92,938.789 1464.98,827.989 1466.04,828.163 1467.09,908.494 1468.15,908.563 1469.21,871.455 1470.26,871.59 1471.32,849.674 1472.38,849.891 1473.43,878.661 1474.49,879.654 1475.55,815.198 1476.61,815.774 1477.66,867.208 1478.72,867.372 1479.78,872.985 1480.83,873.502 1481.89,908.387 1482.95,908.8 1484,874.678 1485.06,874.762 1486.12,887.628 1487.17,888.028 1488.23,827.435 1489.29,827.554 1490.34,940.814 1491.4,941.113 1492.46,843.453 1493.52,844.202 1494.57,822.127 1495.63,823.463 1496.69,928.545 1497.74,928.975 1498.8,962.136 1499.86,962.765 1500.91,867.025 1501.97,867.142 1503.03,873.313 1504.08,873.838 1505.14,898.589 1506.2,899.315 1507.25,972.89 1508.31,973.047 1509.37,840.245 1510.43,840.654 1511.48,862.742 1512.54,863.44 1513.6,877.918 1514.65,878.427 1515.71,862.258 1516.77,862.563 1517.82,894.761 1518.88,894.909 1519.94,842.252 1520.99,842.532 1522.05,878.496 1523.11,878.63 1524.16,884.41 1525.22,884.633 1526.28,889.268 1527.34,889.338 1528.39,895.209 1529.45,895.438 1530.51,883.983 1531.56,884.246 1532.62,885.724 1533.68,885.797 1534.73,914.013 1535.79,914.487 1536.85,870.027 1537.9,870.245 1538.96,869.511 1540.02,869.687 1541.07,914.5 1542.13,914.887 1543.19,890.157 1544.25,890.32 1545.3,893.935 1546.36,894.595 1547.42,896.164 1548.47,896.237 1549.53,914.25 1550.59,914.421 1551.64,876.328 1552.7,876.625 1553.76,903.172 1554.81,903.521 1555.87,852.5 1556.93,852.589 1557.98,843.52 1559.04,843.582 1560.1,831.435 1561.16,832.958 1562.21,807.601 1563.27,807.874 1564.33,871.46 1565.38,871.845 1566.44,900.661 1567.5,901.083 1568.55,845.197 1569.61,845.625 1570.67,851.482 1571.72,851.814 1572.78,898.061 1573.84,898.217 1574.89,916.391 1575.95,916.543 1577.01,907.636 1578.07,907.998 1579.12,845.68 1580.18,846.68 1581.24,911.012 1582.29,911.188 1583.35,842.477 1584.41,842.814 1585.46,848.467 1586.52,848.779 1587.58,922.014 1588.63,922.386 1589.69,884.252 1590.75,884.567 1591.8,929.164 1592.86,929.697 1593.92,881.283 1594.98,881.686 1596.03,940.964 1597.09,941.38 1598.15,839.157 1599.2,839.52 1600.26,928.329 1601.32,928.51 1602.37,883.846 1603.43,884.184 1604.49,912.991 1605.54,913.24 1606.6,907.143 1607.66,907.277 1608.71,849.902 1609.77,850.707 1610.83,861.939 1611.89,862.115 1612.94,829.399 1614,829.575 1615.06,953.342 1616.11,953.629 1617.17,892.402 1618.23,892.638 1619.28,907.981 1620.34,908.028 1621.4,900.321 1622.45,900.5 1623.51,826.929 1624.57,827.209 1625.62,917.113 1626.68,917.204 1627.74,826.735 1628.8,827.306 1629.85,864.397 1630.91,865.2 1631.97,877.078 1633.02,877.279 1634.08,903.465 1635.14,903.828 1636.19,845.915 1637.25,846.369 1638.31,887.215 1639.36,887.291 1640.42,972.349 1641.48,972.764 1642.53,909.856 1643.59,910.252 1644.65,923.818 1645.71,924.648 1646.76,857.473 1647.82,857.645 1648.88,857.929 1649.93,858.176 1650.99,838.894 1652.05,839.188 1653.1,835.659 1654.16,836.059 1655.22,886.776 1656.27,886.978 1657.33,883.538 1658.39,883.901 1659.44,913.019 1660.5,913.416 1661.56,857.818 1662.62,858.449 1663.67,900.463 1664.73,900.883 1665.79,913.121 1666.84,913.264 1667.9,955.231 1668.96,955.442 1670.01,859.706 1671.07,859.76 1672.13,851.668 1673.18,851.791 1674.24,943.043 1675.3,943.179 1676.35,846.221 1677.41,846.361 1678.47,880.31 1679.53,880.363 1680.58,883.093 1681.64,883.422 1682.7,864.24 1683.75,864.407 1684.81,876.743 1685.87,876.822 1686.92,900.013 1687.98,901.797 1689.04,902.411 1690.09,903.04 1691.15,843.906 1692.21,844.268 1693.26,911.556 1694.32,911.751 1695.38,963.861 1696.44,964.074 1697.49,886.204 1698.55,886.399 1699.61,849.613 1700.66,850.468 1701.72,873.536 1702.78,873.853 1703.83,856.215 1704.89,856.357 1705.95,887.616 1707,887.806 1708.06,900.853 1709.12,901.138 1710.17,845.596 1711.23,845.916 1712.29,874.746 1713.35,875.237 1714.4,946.557 1715.46,946.799 1716.52,884.147 1717.57,884.225 1718.63,939.99 1719.69,940.062 1720.74,846.528 1721.8,846.612 1722.86,896.421 1723.91,896.734 1724.97,903.465 1726.03,903.496 1727.08,917.35 1728.14,918.026 1729.2,892.974 1730.26,893.092 1731.31,874.76 1732.37,874.99 1733.43,860.26 1734.48,860.535 1735.54,892.324 1736.6,892.691 1737.65,849.17 1738.71,849.243 1739.77,901.417 1740.82,901.639 1741.88,859.568 1742.94,859.77 1743.99,878.372 1745.05,878.521 1746.11,952.339 1747.17,952.998 1748.22,853.174 1749.28,853.23 1750.34,901.166 1751.39,901.981 1752.45,875.866 1753.51,876.066 1754.56,882.599 1755.62,882.829 1756.68,901.938 1757.73,902.204 1758.79,913.749 1759.85,913.807 1760.9,869.201 1761.96,869.284 1763.02,876.696 1764.08,876.9 1765.13,914.263 1766.19,914.6 1767.25,893.711 1768.3,893.829 1769.36,865.564 1770.42,866.098 1771.47,848.816 1772.53,849.311 1773.59,872.55 1774.64,872.946 1775.7,942.872 1776.76,943.47 1777.81,913.891 1778.87,914.676 1779.93,869.1 1780.99,869.318 1782.04,888.436 1783.1,888.764 1784.16,895.124 1785.21,895.841 1786.27,877.251 1787.33,877.327 1788.38,914.093 1789.44,914.324 1790.5,888.857 1791.55,889.851 1792.61,862.245 1793.67,862.628 1794.72,919.273 1795.78,919.353 1796.84,839.668 1797.9,840.01 1798.95,876.678 1800.01,877.213 1801.07,897.918 1802.12,898.123 1803.18,897.113 1804.24,897.33 1805.29,845.153 1806.35,845.975 1807.41,847.127 1808.46,847.202 1809.52,815.857 1810.58,817.808 1811.64,885.324 1812.69,885.413 1813.75,842.825 1814.81,842.952 1815.86,890.929 1816.92,891.068 1817.98,911.549 1819.03,911.618 1820.09,910.582 1821.15,910.918 1822.2,860.707 1823.26,860.971 1824.32,916.104 1825.37,916.21 1826.43,867.001 1827.49,867.236 1828.55,847.462 1829.6,847.793 1830.66,858.153 1831.72,858.356 1832.77,893.298 1833.83,893.595 1834.89,879.023 1835.94,879.509 1837,837.144 1838.06,837.239 1839.11,895.467 1840.17,895.795 1841.23,895.081 1842.28,895.188 1843.34,853.778 1844.4,853.958 1845.46,884.609 1846.51,884.754 1847.57,899.043 1848.63,899.222 1849.68,807.798 1850.74,808.464 1851.8,877.274 1852.85,877.348 1853.91,867.78 1854.97,868.037 1856.02,909.21 1857.08,909.309 1858.14,893.931 1859.19,894.12 1860.25,861.192 1861.31,861.302 1862.37,874.944 1863.42,875.494 1864.48,845.847 1865.54,846.054 1866.59,879.108 1867.65,879.152 1868.71,857.264 1869.76,857.988 1870.82,882.238 1871.88,882.32 1872.93,838.386 1873.99,838.78 1875.05,917.237 1876.1,917.397 1877.16,878.92 1878.22,880.112 1879.28,848.925 1880.33,849.537 1881.39,890.197 1882.45,890.3 1883.5,872.746 1884.56,873.203 1885.62,858.478 1886.67,858.588 1887.73,915.559 1888.79,915.612 1889.84,892.213 1890.9,892.579 1891.96,887.683 1893.01,887.928 1894.07,885.951 1895.13,886.054 1896.19,875.972 1897.24,876.047 1898.3,867.414 1899.36,867.517 1900.41,910.453 1901.47,910.807 1902.53,840.027 1903.58,840.216 1904.64,867.765 1905.7,868.245 1906.75,865.338 1907.81,865.439 1908.87,887.858 1909.92,888.059 1910.98,869.844 1912.04,870.27 1913.1,903.983 1914.15,904.119 1915.21,868.411 1916.27,868.843 1917.32,900.913 1918.38,901.314 1919.44,878.378 1920.49,878.64 1921.55,888.489 1922.61,888.543 1923.66,859.961 1924.72,860.431 1925.78,841.936 1926.83,842.301 1927.89,884.814 1928.95,885.038 1930.01,883.252 1931.06,883.674 1932.12,916.051 1933.18,917.248 1934.23,914.785 1935.29,914.959 1936.35,884.322 1937.4,884.598 1938.46,893.139 1939.52,893.359 1940.57,871.836 1941.63,872.027 1942.69,887.919 1943.74,888.033 1944.8,924.672 1945.86,924.793 1946.92,913.991 1947.97,914.128 1949.03,889.697 1950.09,889.773 1951.14,901.699 1952.2,902.108 1953.26,874.946 1954.31,875.483 1955.37,907.501 1956.43,907.821 1957.48,875.517 1958.54,876.448 1959.6,880.197 1960.65,880.499 1961.71,920.528 1962.77,921.07 1963.83,888.302 1964.88,888.5 1965.94,947.359 1967,947.653 1968.05,898.18 1969.11,898.221 1970.17,889.521 1971.22,890.017 1972.28,882.384 1973.34,882.758 1974.39,858.332 1975.45,858.594 1976.51,885.066 1977.56,885.647 1978.62,869.272 1979.68,869.327 1980.74,885.76 1981.79,885.871 1982.85,900.507 1983.91,901.004 1984.96,848.933 1986.02,849.145 1987.08,854.059 1988.13,854.148 1989.19,898.575 1990.25,898.748 1991.3,863.481 1992.36,863.945 1993.42,884.557 1994.47,884.717 1995.53,898.073 1996.59,898.604 1997.65,878.56 1998.7,878.758 1999.76,892.712 2000.82,892.976 2001.87,918.33 2002.93,919.012 2003.99,929.523 2005.04,929.623 2006.1,883.375 2007.16,883.443 2008.21,919.731 2009.27,919.856 2010.33,895.535 2011.38,895.563 2012.44,864.767 2013.5,864.887 2014.56,914.497 2015.61,914.893 2016.67,917.061 2017.73,917.226 2018.78,894.526 2019.84,894.886 2020.9,857.609 2021.95,857.743 2023.01,873.989 2024.07,874.461 2025.12,858.421 2026.18,858.814 2027.24,940.091 2028.29,940.111 2029.35,874.421 2030.41,874.578 2031.47,958.806 2032.52,958.856 2033.58,833.522 2034.64,834.401 2035.69,884.283 2036.75,884.446 2037.81,867.197 2038.86,867.262 2039.92,883.48 2040.98,883.748 2042.03,865.305 2043.09,865.569 2044.15,856.246 2045.2,856.374 2046.26,904.635 2047.32,905.046 2048.38,842.818 2049.43,842.919 2050.49,877.632 2051.55,878.088 2052.6,850.81 2053.66,850.929 2054.72,858.26 2055.77,858.391 2056.83,904.151 2057.89,904.273 2058.94,848.132 2060,848.275 2061.06,865.822 2062.11,865.929 2063.17,833.161 2064.23,833.379 2065.29,889.972 2066.34,890.116 2067.4,852.044 2068.46,852.238 2069.51,864.827 2070.57,865.413 2071.63,875.486 2072.68,875.6 2073.74,878.925 2074.8,879.32 2075.85,862.324 2076.91,862.417 2077.97,901.959 2079.02,902.012 2080.08,867.355 2081.14,867.506 2082.2,854.927 2083.25,855.834 2084.31,869.866 2085.37,869.923 2086.42,863.73 2087.48,863.893 2088.54,889.33 2089.59,889.644 2090.65,873.105 2091.71,873.246 2092.76,936.119 2093.82,936.399 2094.88,904.475 2095.93,904.544 2096.99,881.034 2098.05,881.177 2099.11,855.788 2100.16,856.104 2101.22,912.048 2102.28,912.272 2103.33,884.783 2104.39,885.061 2105.45,869.209 2106.5,869.651 2107.56,857.165 2108.62,857.431 2109.67,901.958 2110.73,902.007 2111.79,872.595 2112.84,872.687 2113.9,890.891 2114.96,891.062 2116.02,887.867 2117.07,888.551 2118.13,919.632 2119.19,919.961 2120.24,900.178 2121.3,900.475 2122.36,863.988 2123.41,864.428 2124.47,910.632 2125.53,910.818 2126.58,844.17 2127.64,844.483 2128.7,894.698 2129.75,894.86 2130.81,847.666 2131.87,847.8 2132.93,925.567 2133.98,925.637 2135.04,868.714 2136.1,869.267 2137.15,890.998 2138.21,891.148 2139.27,865.654 2140.32,865.956 2141.38,914.324 2142.44,914.399 2143.49,902.05 2144.55,902.181 2145.61,882.81 2146.66,882.905 2147.72,872.096 2148.78,872.215 2149.84,884.298 2150.89,884.515 2151.95,869.438 2153.01,869.68 2154.06,875.314 2155.12,875.673 2156.18,845.093 2157.23,845.207 2158.29,843.034 2159.35,843.269 2160.4,878.205 2161.46,878.55 2162.52,852.185 2163.57,852.827 2164.63,919.621 2165.69,919.893 2166.75,896.127 2167.8,896.338 2168.86,895.317 2169.92,895.526 2170.97,853.451 2172.03,853.589 2173.09,853.413 2174.14,853.716 2175.2,857.256 2176.26,857.447 2177.31,911.816 2178.37,911.966 2179.43,892.841 2180.48,893.135 2181.54,855.14 2182.6,855.263 2183.66,912.453 2184.71,912.658 2185.77,872.192 2186.83,872.648 2187.88,869.917 2188.94,870.046 2190,887.582 2191.05,887.741 2192.11,900.806 2193.17,901.404 2194.22,935.712 2195.28,935.893 2196.34,899.457 2197.4,899.848 2198.45,873.595 2199.51,873.966 2200.57,859.257 2201.62,859.458 2202.68,849.465 2203.74,849.569 2204.79,905.513 2205.85,905.602 2206.91,292.354 2207.96,295.955 2209.02,877.341 2210.08,877.442 2211.13,845.2 2212.19,845.516 2213.25,931.69 2214.31,932.105 2215.36,908.431 2216.42,908.6 2217.48,894.449 2218.53,894.777 2219.59,858.164 2220.65,858.295 2221.7,873.503 2222.76,873.672 2223.82,853.096 2224.87,853.254 2225.93,881.849 2226.99,882.285 2228.04,876.216 2229.1,876.311 2230.16,913.662 2231.22,914.379 2232.27,876.712 2233.33,877.2 2234.39,887.377 2235.44,887.679 2236.5,848.257 2237.56,848.687 2238.61,887.285 2239.67,887.58 2240.73,886.276 2241.78,886.461 2242.84,868.024 2243.9,869.014 2244.95,888.639 2246.01,888.844 2247.07,870.34 2248.13,870.542 2249.18,869.691 2250.24,870.33 2251.3,854.411 2252.35,854.758 2253.41,873.763 2254.47,873.868 2255.52,876.747 2256.58,876.88 2257.64,853.971 2258.69,854.373 2259.75,900.902 2260.81,900.99 2261.86,904.073 2262.92,904.207 2263.98,877.648 2265.04,878.015 2266.09,900.413 2267.15,900.449 2268.21,916.311 2269.26,916.708 2270.32,832.779 2271.38,833.623 2272.43,880.523 2273.49,880.96 2274.55,863.224 2275.6,863.373 2276.66,916.563 2277.72,916.805 2278.77,877.103 2279.83,877.261 2280.89,888.405 2281.95,888.701 2283,866.656 2284.06,867.179 2285.12,903.629 2286.17,903.707 2287.23,849.577 2288.29,850.216 2289.34,850.845 "/>
<path clip-path="url(#clip230)" d="M2001.58 1438.47 L2278.07 1438.47 L2278.07 1334.79 L2001.58 1334.79  Z" fill="#ffffff" fill-rule="evenodd" fill-opacity="1"/>
<polyline clip-path="url(#clip230)" style="stroke:#000000; stroke-linecap:round; stroke-linejoin:round; stroke-width:4; stroke-opacity:1; fill:none" points="2001.58,1438.47 2278.07,1438.47 2278.07,1334.79 2001.58,1334.79 2001.58,1438.47 "/>
<polyline clip-path="url(#clip230)" style="stroke:#009af9; stroke-linecap:round; stroke-linejoin:round; stroke-width:4; stroke-opacity:1; fill:none" points="2026.48,1386.63 2175.85,1386.63 "/>
<path clip-path="url(#clip230)" d="M2214.59 1406.32 Q2212.78 1410.95 2211.07 1412.36 Q2209.36 1413.78 2206.49 1413.78 L2203.08 1413.78 L2203.08 1410.21 L2205.58 1410.21 Q2207.34 1410.21 2208.31 1409.38 Q2209.29 1408.54 2210.47 1405.44 L2211.23 1403.5 L2200.74 1377.99 L2205.26 1377.99 L2213.36 1398.27 L2221.46 1377.99 L2225.98 1377.99 L2214.59 1406.32 Z" fill="#000000" fill-rule="nonzero" fill-opacity="1" /><path clip-path="url(#clip230)" d="M2233.27 1399.98 L2240.91 1399.98 L2240.91 1373.61 L2232.6 1375.28 L2232.6 1371.02 L2240.86 1369.35 L2245.54 1369.35 L2245.54 1399.98 L2253.17 1399.98 L2253.17 1403.91 L2233.27 1403.91 L2233.27 1399.98 Z" fill="#000000" fill-rule="nonzero" fill-opacity="1" /></svg>
