<?xml version="1.0" encoding="utf-8"?>
<svg xmlns="http://www.w3.org/2000/svg" xmlns:xlink="http://www.w3.org/1999/xlink" width="600" height="400" viewBox="0 0 2400 1600">
<defs>
  <clipPath id="clip810">
    <rect x="0" y="0" width="2400" height="1600"/>
  </clipPath>
</defs>
<path clip-path="url(#clip810)" d="M0 1600 L2400 1600 L2400 0 L0 0  Z" fill="#ffffff" fill-rule="evenodd" fill-opacity="1"/>
<defs>
  <clipPath id="clip811">
    <rect x="480" y="0" width="1681" height="1600"/>
  </clipPath>
</defs>
<path clip-path="url(#clip810)" d="M178.867 1486.45 L2352.76 1486.45 L2352.76 47.2441 L178.867 47.2441  Z" fill="#ffffff" fill-rule="evenodd" fill-opacity="1"/>
<defs>
  <clipPath id="clip812">
    <rect x="178" y="47" width="2175" height="1440"/>
  </clipPath>
</defs>
<polyline clip-path="url(#clip812)" style="stroke:#000000; stroke-linecap:round; stroke-linejoin:round; stroke-width:2; stroke-opacity:0.1; fill:none" points="240.392,1486.45 240.392,47.2441 "/>
<polyline clip-path="url(#clip812)" style="stroke:#000000; stroke-linecap:round; stroke-linejoin:round; stroke-width:2; stroke-opacity:0.1; fill:none" points="753.358,1486.45 753.358,47.2441 "/>
<polyline clip-path="url(#clip812)" style="stroke:#000000; stroke-linecap:round; stroke-linejoin:round; stroke-width:2; stroke-opacity:0.1; fill:none" points="1266.32,1486.45 1266.32,47.2441 "/>
<polyline clip-path="url(#clip812)" style="stroke:#000000; stroke-linecap:round; stroke-linejoin:round; stroke-width:2; stroke-opacity:0.1; fill:none" points="1779.29,1486.45 1779.29,47.2441 "/>
<polyline clip-path="url(#clip812)" style="stroke:#000000; stroke-linecap:round; stroke-linejoin:round; stroke-width:2; stroke-opacity:0.1; fill:none" points="2292.26,1486.45 2292.26,47.2441 "/>
<polyline clip-path="url(#clip810)" style="stroke:#000000; stroke-linecap:round; stroke-linejoin:round; stroke-width:4; stroke-opacity:1; fill:none" points="178.867,1486.45 2352.76,1486.45 "/>
<polyline clip-path="url(#clip810)" style="stroke:#000000; stroke-linecap:round; stroke-linejoin:round; stroke-width:4; stroke-opacity:1; fill:none" points="240.392,1486.45 240.392,1467.55 "/>
<polyline clip-path="url(#clip810)" style="stroke:#000000; stroke-linecap:round; stroke-linejoin:round; stroke-width:4; stroke-opacity:1; fill:none" points="753.358,1486.45 753.358,1467.55 "/>
<polyline clip-path="url(#clip810)" style="stroke:#000000; stroke-linecap:round; stroke-linejoin:round; stroke-width:4; stroke-opacity:1; fill:none" points="1266.32,1486.45 1266.32,1467.55 "/>
<polyline clip-path="url(#clip810)" style="stroke:#000000; stroke-linecap:round; stroke-linejoin:round; stroke-width:4; stroke-opacity:1; fill:none" points="1779.29,1486.45 1779.29,1467.55 "/>
<polyline clip-path="url(#clip810)" style="stroke:#000000; stroke-linecap:round; stroke-linejoin:round; stroke-width:4; stroke-opacity:1; fill:none" points="2292.26,1486.45 2292.26,1467.55 "/>
<path clip-path="url(#clip810)" d="M240.392 1517.37 Q236.781 1517.37 234.952 1520.93 Q233.146 1524.47 233.146 1531.6 Q233.146 1538.71 234.952 1542.27 Q236.781 1545.82 240.392 1545.82 Q244.026 1545.82 245.832 1542.27 Q247.66 1538.71 247.66 1531.6 Q247.66 1524.47 245.832 1520.93 Q244.026 1517.37 240.392 1517.37 M240.392 1513.66 Q246.202 1513.66 249.257 1518.27 Q252.336 1522.85 252.336 1531.6 Q252.336 1540.33 249.257 1544.94 Q246.202 1549.52 240.392 1549.52 Q234.582 1549.52 231.503 1544.94 Q228.447 1540.33 228.447 1531.6 Q228.447 1522.85 231.503 1518.27 Q234.582 1513.66 240.392 1513.66 Z" fill="#000000" fill-rule="nonzero" fill-opacity="1" /><path clip-path="url(#clip810)" d="M712.976 1514.29 L731.333 1514.29 L731.333 1518.22 L717.259 1518.22 L717.259 1526.7 Q718.277 1526.35 719.296 1526.19 Q720.314 1526 721.333 1526 Q727.12 1526 730.499 1529.17 Q733.879 1532.34 733.879 1537.76 Q733.879 1543.34 730.407 1546.44 Q726.935 1549.52 720.615 1549.52 Q718.439 1549.52 716.171 1549.15 Q713.925 1548.78 711.518 1548.04 L711.518 1543.34 Q713.601 1544.47 715.823 1545.03 Q718.046 1545.58 720.523 1545.58 Q724.527 1545.58 726.865 1543.48 Q729.203 1541.37 729.203 1537.76 Q729.203 1534.15 726.865 1532.04 Q724.527 1529.94 720.523 1529.94 Q718.648 1529.94 716.773 1530.35 Q714.921 1530.77 712.976 1531.65 L712.976 1514.29 Z" fill="#000000" fill-rule="nonzero" fill-opacity="1" /><path clip-path="url(#clip810)" d="M753.092 1517.37 Q749.481 1517.37 747.652 1520.93 Q745.846 1524.47 745.846 1531.6 Q745.846 1538.71 747.652 1542.27 Q749.481 1545.82 753.092 1545.82 Q756.726 1545.82 758.532 1542.27 Q760.36 1538.71 760.36 1531.6 Q760.36 1524.47 758.532 1520.93 Q756.726 1517.37 753.092 1517.37 M753.092 1513.66 Q758.902 1513.66 761.958 1518.27 Q765.036 1522.85 765.036 1531.6 Q765.036 1540.33 761.958 1544.94 Q758.902 1549.52 753.092 1549.52 Q747.282 1549.52 744.203 1544.94 Q741.147 1540.33 741.147 1531.6 Q741.147 1522.85 744.203 1518.27 Q747.282 1513.66 753.092 1513.66 Z" fill="#000000" fill-rule="nonzero" fill-opacity="1" /><path clip-path="url(#clip810)" d="M783.254 1517.37 Q779.643 1517.37 777.814 1520.93 Q776.008 1524.47 776.008 1531.6 Q776.008 1538.71 777.814 1542.27 Q779.643 1545.82 783.254 1545.82 Q786.888 1545.82 788.693 1542.27 Q790.522 1538.71 790.522 1531.6 Q790.522 1524.47 788.693 1520.93 Q786.888 1517.37 783.254 1517.37 M783.254 1513.66 Q789.064 1513.66 792.119 1518.27 Q795.198 1522.85 795.198 1531.6 Q795.198 1540.33 792.119 1544.94 Q789.064 1549.52 783.254 1549.52 Q777.444 1549.52 774.365 1544.94 Q771.309 1540.33 771.309 1531.6 Q771.309 1522.85 774.365 1518.27 Q777.444 1513.66 783.254 1513.66 Z" fill="#000000" fill-rule="nonzero" fill-opacity="1" /><path clip-path="url(#clip810)" d="M1210.85 1544.91 L1218.49 1544.91 L1218.49 1518.55 L1210.18 1520.21 L1210.18 1515.95 L1218.44 1514.29 L1223.12 1514.29 L1223.12 1544.91 L1230.76 1544.91 L1230.76 1548.85 L1210.85 1548.85 L1210.85 1544.91 Z" fill="#000000" fill-rule="nonzero" fill-opacity="1" /><path clip-path="url(#clip810)" d="M1250.2 1517.37 Q1246.59 1517.37 1244.76 1520.93 Q1242.96 1524.47 1242.96 1531.6 Q1242.96 1538.71 1244.76 1542.27 Q1246.59 1545.82 1250.2 1545.82 Q1253.84 1545.82 1255.64 1542.27 Q1257.47 1538.71 1257.47 1531.6 Q1257.47 1524.47 1255.64 1520.93 Q1253.84 1517.37 1250.2 1517.37 M1250.2 1513.66 Q1256.01 1513.66 1259.07 1518.27 Q1262.15 1522.85 1262.15 1531.6 Q1262.15 1540.33 1259.07 1544.94 Q1256.01 1549.52 1250.2 1549.52 Q1244.39 1549.52 1241.31 1544.94 Q1238.26 1540.33 1238.26 1531.6 Q1238.26 1522.85 1241.31 1518.27 Q1244.39 1513.66 1250.2 1513.66 Z" fill="#000000" fill-rule="nonzero" fill-opacity="1" /><path clip-path="url(#clip810)" d="M1280.36 1517.37 Q1276.75 1517.37 1274.92 1520.93 Q1273.12 1524.47 1273.12 1531.6 Q1273.12 1538.71 1274.92 1542.27 Q1276.75 1545.82 1280.36 1545.82 Q1284 1545.82 1285.8 1542.27 Q1287.63 1538.71 1287.63 1531.6 Q1287.63 1524.47 1285.8 1520.93 Q1284 1517.37 1280.36 1517.37 M1280.36 1513.66 Q1286.17 1513.66 1289.23 1518.27 Q1292.31 1522.85 1292.31 1531.6 Q1292.31 1540.33 1289.23 1544.94 Q1286.17 1549.52 1280.36 1549.52 Q1274.55 1549.52 1271.47 1544.94 Q1268.42 1540.33 1268.42 1531.6 Q1268.42 1522.85 1271.47 1518.27 Q1274.55 1513.66 1280.36 1513.66 Z" fill="#000000" fill-rule="nonzero" fill-opacity="1" /><path clip-path="url(#clip810)" d="M1310.53 1517.37 Q1306.91 1517.37 1305.09 1520.93 Q1303.28 1524.47 1303.28 1531.6 Q1303.28 1538.71 1305.09 1542.27 Q1306.91 1545.82 1310.53 1545.82 Q1314.16 1545.82 1315.97 1542.27 Q1317.79 1538.71 1317.79 1531.6 Q1317.79 1524.47 1315.97 1520.93 Q1314.16 1517.37 1310.53 1517.37 M1310.53 1513.66 Q1316.34 1513.66 1319.39 1518.27 Q1322.47 1522.85 1322.47 1531.6 Q1322.47 1540.33 1319.39 1544.94 Q1316.34 1549.52 1310.53 1549.52 Q1304.72 1549.52 1301.64 1544.94 Q1298.58 1540.33 1298.58 1531.6 Q1298.58 1522.85 1301.64 1518.27 Q1304.72 1513.66 1310.53 1513.66 Z" fill="#000000" fill-rule="nonzero" fill-opacity="1" /><path clip-path="url(#clip810)" d="M1723.82 1544.91 L1731.46 1544.91 L1731.46 1518.55 L1723.14 1520.21 L1723.14 1515.95 L1731.41 1514.29 L1736.08 1514.29 L1736.08 1544.91 L1743.72 1544.91 L1743.72 1548.85 L1723.82 1548.85 L1723.82 1544.91 Z" fill="#000000" fill-rule="nonzero" fill-opacity="1" /><path clip-path="url(#clip810)" d="M1753.21 1514.29 L1771.57 1514.29 L1771.57 1518.22 L1757.5 1518.22 L1757.5 1526.7 Q1758.52 1526.35 1759.53 1526.19 Q1760.55 1526 1761.57 1526 Q1767.36 1526 1770.74 1529.17 Q1774.12 1532.34 1774.12 1537.76 Q1774.12 1543.34 1770.64 1546.44 Q1767.17 1549.52 1760.85 1549.52 Q1758.68 1549.52 1756.41 1549.15 Q1754.16 1548.78 1751.76 1548.04 L1751.76 1543.34 Q1753.84 1544.47 1756.06 1545.03 Q1758.28 1545.58 1760.76 1545.58 Q1764.77 1545.58 1767.1 1543.48 Q1769.44 1541.37 1769.44 1537.76 Q1769.44 1534.15 1767.1 1532.04 Q1764.77 1529.94 1760.76 1529.94 Q1758.89 1529.94 1757.01 1530.35 Q1755.16 1530.77 1753.21 1531.65 L1753.21 1514.29 Z" fill="#000000" fill-rule="nonzero" fill-opacity="1" /><path clip-path="url(#clip810)" d="M1793.33 1517.37 Q1789.72 1517.37 1787.89 1520.93 Q1786.08 1524.47 1786.08 1531.6 Q1786.08 1538.71 1787.89 1542.27 Q1789.72 1545.82 1793.33 1545.82 Q1796.96 1545.82 1798.77 1542.27 Q1800.6 1538.71 1800.6 1531.6 Q1800.6 1524.47 1798.77 1520.93 Q1796.96 1517.37 1793.33 1517.37 M1793.33 1513.66 Q1799.14 1513.66 1802.2 1518.27 Q1805.27 1522.85 1805.27 1531.6 Q1805.27 1540.33 1802.2 1544.94 Q1799.14 1549.52 1793.33 1549.52 Q1787.52 1549.52 1784.44 1544.94 Q1781.39 1540.33 1781.39 1531.6 Q1781.39 1522.85 1784.44 1518.27 Q1787.52 1513.66 1793.33 1513.66 Z" fill="#000000" fill-rule="nonzero" fill-opacity="1" /><path clip-path="url(#clip810)" d="M1823.49 1517.37 Q1819.88 1517.37 1818.05 1520.93 Q1816.25 1524.47 1816.25 1531.6 Q1816.25 1538.71 1818.05 1542.27 Q1819.88 1545.82 1823.49 1545.82 Q1827.13 1545.82 1828.93 1542.27 Q1830.76 1538.71 1830.76 1531.6 Q1830.76 1524.47 1828.93 1520.93 Q1827.13 1517.37 1823.49 1517.37 M1823.49 1513.66 Q1829.3 1513.66 1832.36 1518.27 Q1835.44 1522.85 1835.44 1531.6 Q1835.44 1540.33 1832.36 1544.94 Q1829.3 1549.52 1823.49 1549.52 Q1817.68 1549.52 1814.6 1544.94 Q1811.55 1540.33 1811.55 1531.6 Q1811.55 1522.85 1814.6 1518.27 Q1817.68 1513.66 1823.49 1513.66 Z" fill="#000000" fill-rule="nonzero" fill-opacity="1" /><path clip-path="url(#clip810)" d="M2240.87 1544.91 L2257.19 1544.91 L2257.19 1548.85 L2235.24 1548.85 L2235.24 1544.91 Q2237.91 1542.16 2242.49 1537.53 Q2247.09 1532.88 2248.28 1531.53 Q2250.52 1529.01 2251.4 1527.27 Q2252.3 1525.51 2252.3 1523.82 Q2252.3 1521.07 2250.36 1519.33 Q2248.44 1517.6 2245.34 1517.6 Q2243.14 1517.6 2240.68 1518.36 Q2238.25 1519.13 2235.47 1520.68 L2235.47 1515.95 Q2238.3 1514.82 2240.75 1514.24 Q2243.21 1513.66 2245.24 1513.66 Q2250.61 1513.66 2253.81 1516.35 Q2257 1519.03 2257 1523.52 Q2257 1525.65 2256.19 1527.57 Q2255.41 1529.47 2253.3 1532.07 Q2252.72 1532.74 2249.62 1535.95 Q2246.52 1539.15 2240.87 1544.91 Z" fill="#000000" fill-rule="nonzero" fill-opacity="1" /><path clip-path="url(#clip810)" d="M2277 1517.37 Q2273.39 1517.37 2271.56 1520.93 Q2269.76 1524.47 2269.76 1531.6 Q2269.76 1538.71 2271.56 1542.27 Q2273.39 1545.82 2277 1545.82 Q2280.64 1545.82 2282.44 1542.27 Q2284.27 1538.71 2284.27 1531.6 Q2284.27 1524.47 2282.44 1520.93 Q2280.64 1517.37 2277 1517.37 M2277 1513.66 Q2282.81 1513.66 2285.87 1518.27 Q2288.95 1522.85 2288.95 1531.6 Q2288.95 1540.33 2285.87 1544.94 Q2282.81 1549.52 2277 1549.52 Q2271.19 1549.52 2268.11 1544.94 Q2265.06 1540.33 2265.06 1531.6 Q2265.06 1522.85 2268.11 1518.27 Q2271.19 1513.66 2277 1513.66 Z" fill="#000000" fill-rule="nonzero" fill-opacity="1" /><path clip-path="url(#clip810)" d="M2307.16 1517.37 Q2303.55 1517.37 2301.72 1520.93 Q2299.92 1524.47 2299.92 1531.6 Q2299.92 1538.71 2301.72 1542.27 Q2303.55 1545.82 2307.16 1545.82 Q2310.8 1545.82 2312.6 1542.27 Q2314.43 1538.71 2314.43 1531.6 Q2314.43 1524.47 2312.6 1520.93 Q2310.8 1517.37 2307.16 1517.37 M2307.16 1513.66 Q2312.97 1513.66 2316.03 1518.27 Q2319.11 1522.85 2319.11 1531.6 Q2319.11 1540.33 2316.03 1544.94 Q2312.97 1549.52 2307.16 1549.52 Q2301.35 1549.52 2298.28 1544.94 Q2295.22 1540.33 2295.22 1531.6 Q2295.22 1522.85 2298.28 1518.27 Q2301.35 1513.66 2307.16 1513.66 Z" fill="#000000" fill-rule="nonzero" fill-opacity="1" /><path clip-path="url(#clip810)" d="M2337.33 1517.37 Q2333.71 1517.37 2331.89 1520.93 Q2330.08 1524.47 2330.08 1531.6 Q2330.08 1538.71 2331.89 1542.27 Q2333.71 1545.82 2337.33 1545.82 Q2340.96 1545.82 2342.77 1542.27 Q2344.59 1538.71 2344.59 1531.6 Q2344.59 1524.47 2342.77 1520.93 Q2340.96 1517.37 2337.33 1517.37 M2337.33 1513.66 Q2343.14 1513.66 2346.19 1518.27 Q2349.27 1522.85 2349.27 1531.6 Q2349.27 1540.33 2346.19 1544.94 Q2343.14 1549.52 2337.33 1549.52 Q2331.52 1549.52 2328.44 1544.94 Q2325.38 1540.33 2325.38 1531.6 Q2325.38 1522.85 2328.44 1518.27 Q2331.52 1513.66 2337.33 1513.66 Z" fill="#000000" fill-rule="nonzero" fill-opacity="1" /><polyline clip-path="url(#clip812)" style="stroke:#000000; stroke-linecap:round; stroke-linejoin:round; stroke-width:2; stroke-opacity:0.1; fill:none" points="178.867,1371.52 2352.76,1371.52 "/>
<polyline clip-path="url(#clip812)" style="stroke:#000000; stroke-linecap:round; stroke-linejoin:round; stroke-width:2; stroke-opacity:0.1; fill:none" points="178.867,1163.25 2352.76,1163.25 "/>
<polyline clip-path="url(#clip812)" style="stroke:#000000; stroke-linecap:round; stroke-linejoin:round; stroke-width:2; stroke-opacity:0.1; fill:none" points="178.867,954.974 2352.76,954.974 "/>
<polyline clip-path="url(#clip812)" style="stroke:#000000; stroke-linecap:round; stroke-linejoin:round; stroke-width:2; stroke-opacity:0.1; fill:none" points="178.867,746.702 2352.76,746.702 "/>
<polyline clip-path="url(#clip812)" style="stroke:#000000; stroke-linecap:round; stroke-linejoin:round; stroke-width:2; stroke-opacity:0.1; fill:none" points="178.867,538.429 2352.76,538.429 "/>
<polyline clip-path="url(#clip812)" style="stroke:#000000; stroke-linecap:round; stroke-linejoin:round; stroke-width:2; stroke-opacity:0.1; fill:none" points="178.867,330.157 2352.76,330.157 "/>
<polyline clip-path="url(#clip812)" style="stroke:#000000; stroke-linecap:round; stroke-linejoin:round; stroke-width:2; stroke-opacity:0.1; fill:none" points="178.867,121.885 2352.76,121.885 "/>
<polyline clip-path="url(#clip810)" style="stroke:#000000; stroke-linecap:round; stroke-linejoin:round; stroke-width:4; stroke-opacity:1; fill:none" points="178.867,1486.45 178.867,47.2441 "/>
<polyline clip-path="url(#clip810)" style="stroke:#000000; stroke-linecap:round; stroke-linejoin:round; stroke-width:4; stroke-opacity:1; fill:none" points="178.867,1371.52 197.764,1371.52 "/>
<polyline clip-path="url(#clip810)" style="stroke:#000000; stroke-linecap:round; stroke-linejoin:round; stroke-width:4; stroke-opacity:1; fill:none" points="178.867,1163.25 197.764,1163.25 "/>
<polyline clip-path="url(#clip810)" style="stroke:#000000; stroke-linecap:round; stroke-linejoin:round; stroke-width:4; stroke-opacity:1; fill:none" points="178.867,954.974 197.764,954.974 "/>
<polyline clip-path="url(#clip810)" style="stroke:#000000; stroke-linecap:round; stroke-linejoin:round; stroke-width:4; stroke-opacity:1; fill:none" points="178.867,746.702 197.764,746.702 "/>
<polyline clip-path="url(#clip810)" style="stroke:#000000; stroke-linecap:round; stroke-linejoin:round; stroke-width:4; stroke-opacity:1; fill:none" points="178.867,538.429 197.764,538.429 "/>
<polyline clip-path="url(#clip810)" style="stroke:#000000; stroke-linecap:round; stroke-linejoin:round; stroke-width:4; stroke-opacity:1; fill:none" points="178.867,330.157 197.764,330.157 "/>
<polyline clip-path="url(#clip810)" style="stroke:#000000; stroke-linecap:round; stroke-linejoin:round; stroke-width:4; stroke-opacity:1; fill:none" points="178.867,121.885 197.764,121.885 "/>
<path clip-path="url(#clip810)" d="M50.9921 1371.97 L80.6679 1371.97 L80.6679 1375.9 L50.9921 1375.9 L50.9921 1371.97 Z" fill="#000000" fill-rule="nonzero" fill-opacity="1" /><path clip-path="url(#clip810)" d="M90.8993 1388.08 L90.8993 1383.82 Q92.6586 1384.65 94.4641 1385.09 Q96.2697 1385.53 98.0058 1385.53 Q102.635 1385.53 105.066 1382.43 Q107.52 1379.31 107.867 1372.97 Q106.524 1374.96 104.464 1376.02 Q102.404 1377.09 99.9039 1377.09 Q94.7187 1377.09 91.6864 1373.96 Q88.6771 1370.81 88.6771 1365.37 Q88.6771 1360.05 91.8252 1356.83 Q94.9734 1353.61 100.205 1353.61 Q106.2 1353.61 109.348 1358.22 Q112.52 1362.8 112.52 1371.55 Q112.52 1379.72 108.631 1384.61 Q104.765 1389.47 98.2141 1389.47 Q96.4548 1389.47 94.6493 1389.12 Q92.8438 1388.78 90.8993 1388.08 M100.205 1373.43 Q103.353 1373.43 105.182 1371.28 Q107.033 1369.12 107.033 1365.37 Q107.033 1361.65 105.182 1359.49 Q103.353 1357.32 100.205 1357.32 Q97.0567 1357.32 95.2049 1359.49 Q93.3762 1361.65 93.3762 1365.37 Q93.3762 1369.12 95.2049 1371.28 Q97.0567 1373.43 100.205 1373.43 Z" fill="#000000" fill-rule="nonzero" fill-opacity="1" /><path clip-path="url(#clip810)" d="M130.922 1357.32 Q127.311 1357.32 125.482 1360.88 Q123.677 1364.42 123.677 1371.55 Q123.677 1378.66 125.482 1382.22 Q127.311 1385.77 130.922 1385.77 Q134.556 1385.77 136.362 1382.22 Q138.191 1378.66 138.191 1371.55 Q138.191 1364.42 136.362 1360.88 Q134.556 1357.32 130.922 1357.32 M130.922 1353.61 Q136.732 1353.61 139.788 1358.22 Q142.867 1362.8 142.867 1371.55 Q142.867 1380.28 139.788 1384.89 Q136.732 1389.47 130.922 1389.47 Q125.112 1389.47 122.033 1384.89 Q118.978 1380.28 118.978 1371.55 Q118.978 1362.8 122.033 1358.22 Q125.112 1353.61 130.922 1353.61 Z" fill="#000000" fill-rule="nonzero" fill-opacity="1" /><path clip-path="url(#clip810)" d="M50.9921 1163.7 L80.6679 1163.7 L80.6679 1167.63 L50.9921 1167.63 L50.9921 1163.7 Z" fill="#000000" fill-rule="nonzero" fill-opacity="1" /><path clip-path="url(#clip810)" d="M100.76 1164.11 Q97.4271 1164.11 95.5058 1165.9 Q93.6076 1167.68 93.6076 1170.8 Q93.6076 1173.93 95.5058 1175.71 Q97.4271 1177.49 100.76 1177.49 Q104.094 1177.49 106.015 1175.71 Q107.936 1173.91 107.936 1170.8 Q107.936 1167.68 106.015 1165.9 Q104.117 1164.11 100.76 1164.11 M96.0845 1162.12 Q93.0752 1161.38 91.3854 1159.32 Q89.7188 1157.26 89.7188 1154.3 Q89.7188 1150.16 92.6586 1147.75 Q95.6215 1145.34 100.76 1145.34 Q105.922 1145.34 108.862 1147.75 Q111.802 1150.16 111.802 1154.3 Q111.802 1157.26 110.112 1159.32 Q108.446 1161.38 105.459 1162.12 Q108.839 1162.91 110.714 1165.2 Q112.612 1167.49 112.612 1170.8 Q112.612 1175.83 109.533 1178.51 Q106.478 1181.2 100.76 1181.2 Q95.0428 1181.2 91.9641 1178.51 Q88.9086 1175.83 88.9086 1170.8 Q88.9086 1167.49 90.8067 1165.2 Q92.7049 1162.91 96.0845 1162.12 M94.3715 1154.74 Q94.3715 1157.42 96.0382 1158.93 Q97.728 1160.43 100.76 1160.43 Q103.77 1160.43 105.459 1158.93 Q107.172 1157.42 107.172 1154.74 Q107.172 1152.05 105.459 1150.55 Q103.77 1149.04 100.76 1149.04 Q97.728 1149.04 96.0382 1150.55 Q94.3715 1152.05 94.3715 1154.74 Z" fill="#000000" fill-rule="nonzero" fill-opacity="1" /><path clip-path="url(#clip810)" d="M130.922 1149.04 Q127.311 1149.04 125.482 1152.61 Q123.677 1156.15 123.677 1163.28 Q123.677 1170.39 125.482 1173.95 Q127.311 1177.49 130.922 1177.49 Q134.556 1177.49 136.362 1173.95 Q138.191 1170.39 138.191 1163.28 Q138.191 1156.15 136.362 1152.61 Q134.556 1149.04 130.922 1149.04 M130.922 1145.34 Q136.732 1145.34 139.788 1149.95 Q142.867 1154.53 142.867 1163.28 Q142.867 1172.01 139.788 1176.61 Q136.732 1181.2 130.922 1181.2 Q125.112 1181.2 122.033 1176.61 Q118.978 1172.01 118.978 1163.28 Q118.978 1154.53 122.033 1149.95 Q125.112 1145.34 130.922 1145.34 Z" fill="#000000" fill-rule="nonzero" fill-opacity="1" /><path clip-path="url(#clip810)" d="M50.9921 955.425 L80.6679 955.425 L80.6679 959.36 L50.9921 959.36 L50.9921 955.425 Z" fill="#000000" fill-rule="nonzero" fill-opacity="1" /><path clip-path="url(#clip810)" d="M89.5799 937.694 L111.802 937.694 L111.802 939.685 L99.2558 972.254 L94.3715 972.254 L106.177 941.629 L89.5799 941.629 L89.5799 937.694 Z" fill="#000000" fill-rule="nonzero" fill-opacity="1" /><path clip-path="url(#clip810)" d="M130.922 940.773 Q127.311 940.773 125.482 944.337 Q123.677 947.879 123.677 955.009 Q123.677 962.115 125.482 965.68 Q127.311 969.221 130.922 969.221 Q134.556 969.221 136.362 965.68 Q138.191 962.115 138.191 955.009 Q138.191 947.879 136.362 944.337 Q134.556 940.773 130.922 940.773 M130.922 937.069 Q136.732 937.069 139.788 941.675 Q142.867 946.259 142.867 955.009 Q142.867 963.735 139.788 968.342 Q136.732 972.925 130.922 972.925 Q125.112 972.925 122.033 968.342 Q118.978 963.735 118.978 955.009 Q118.978 946.259 122.033 941.675 Q125.112 937.069 130.922 937.069 Z" fill="#000000" fill-rule="nonzero" fill-opacity="1" /><path clip-path="url(#clip810)" d="M50.9921 747.153 L80.6679 747.153 L80.6679 751.088 L50.9921 751.088 L50.9921 747.153 Z" fill="#000000" fill-rule="nonzero" fill-opacity="1" /><path clip-path="url(#clip810)" d="M101.339 744.838 Q98.1909 744.838 96.3391 746.991 Q94.5104 749.144 94.5104 752.894 Q94.5104 756.621 96.3391 758.796 Q98.1909 760.949 101.339 760.949 Q104.487 760.949 106.316 758.796 Q108.168 756.621 108.168 752.894 Q108.168 749.144 106.316 746.991 Q104.487 744.838 101.339 744.838 M110.621 730.186 L110.621 734.445 Q108.862 733.611 107.057 733.172 Q105.274 732.732 103.515 732.732 Q98.8854 732.732 96.4317 735.857 Q94.0012 738.982 93.6539 745.301 Q95.0197 743.287 97.0798 742.223 Q99.14 741.135 101.617 741.135 Q106.825 741.135 109.834 744.306 Q112.867 747.454 112.867 752.894 Q112.867 758.218 109.719 761.435 Q106.571 764.653 101.339 764.653 Q95.3437 764.653 92.1725 760.07 Q89.0012 755.463 89.0012 746.736 Q89.0012 738.542 92.89 733.681 Q96.7789 728.797 103.33 728.797 Q105.089 728.797 106.871 729.144 Q108.677 729.491 110.621 730.186 Z" fill="#000000" fill-rule="nonzero" fill-opacity="1" /><path clip-path="url(#clip810)" d="M130.922 732.5 Q127.311 732.5 125.482 736.065 Q123.677 739.607 123.677 746.736 Q123.677 753.843 125.482 757.408 Q127.311 760.949 130.922 760.949 Q134.556 760.949 136.362 757.408 Q138.191 753.843 138.191 746.736 Q138.191 739.607 136.362 736.065 Q134.556 732.5 130.922 732.5 M130.922 728.797 Q136.732 728.797 139.788 733.403 Q142.867 737.986 142.867 746.736 Q142.867 755.463 139.788 760.07 Q136.732 764.653 130.922 764.653 Q125.112 764.653 122.033 760.07 Q118.978 755.463 118.978 746.736 Q118.978 737.986 122.033 733.403 Q125.112 728.797 130.922 728.797 Z" fill="#000000" fill-rule="nonzero" fill-opacity="1" /><path clip-path="url(#clip810)" d="M50.9921 538.881 L80.6679 538.881 L80.6679 542.816 L50.9921 542.816 L50.9921 538.881 Z" fill="#000000" fill-rule="nonzero" fill-opacity="1" /><path clip-path="url(#clip810)" d="M90.8067 521.149 L109.163 521.149 L109.163 525.085 L95.0891 525.085 L95.0891 533.557 Q96.1076 533.21 97.1261 533.047 Q98.1447 532.862 99.1632 532.862 Q104.95 532.862 108.33 536.034 Q111.709 539.205 111.709 544.622 Q111.709 550.2 108.237 553.302 Q104.765 556.381 98.4456 556.381 Q96.2697 556.381 94.0012 556.01 Q91.7558 555.64 89.3484 554.899 L89.3484 550.2 Q91.4317 551.334 93.6539 551.89 Q95.8761 552.446 98.353 552.446 Q102.358 552.446 104.696 550.339 Q107.033 548.233 107.033 544.622 Q107.033 541.01 104.696 538.904 Q102.358 536.797 98.353 536.797 Q96.478 536.797 94.603 537.214 Q92.7512 537.631 90.8067 538.51 L90.8067 521.149 Z" fill="#000000" fill-rule="nonzero" fill-opacity="1" /><path clip-path="url(#clip810)" d="M130.922 524.228 Q127.311 524.228 125.482 527.793 Q123.677 531.335 123.677 538.464 Q123.677 545.571 125.482 549.135 Q127.311 552.677 130.922 552.677 Q134.556 552.677 136.362 549.135 Q138.191 545.571 138.191 538.464 Q138.191 531.335 136.362 527.793 Q134.556 524.228 130.922 524.228 M130.922 520.524 Q136.732 520.524 139.788 525.131 Q142.867 529.714 142.867 538.464 Q142.867 547.191 139.788 551.797 Q136.732 556.381 130.922 556.381 Q125.112 556.381 122.033 551.797 Q118.978 547.191 118.978 538.464 Q118.978 529.714 122.033 525.131 Q125.112 520.524 130.922 520.524 Z" fill="#000000" fill-rule="nonzero" fill-opacity="1" /><path clip-path="url(#clip810)" d="M50.9921 330.609 L80.6679 330.609 L80.6679 334.544 L50.9921 334.544 L50.9921 330.609 Z" fill="#000000" fill-rule="nonzero" fill-opacity="1" /><path clip-path="url(#clip810)" d="M103.608 316.951 L91.8021 335.4 L103.608 335.4 L103.608 316.951 M102.381 312.877 L108.26 312.877 L108.26 335.4 L113.191 335.4 L113.191 339.289 L108.26 339.289 L108.26 347.437 L103.608 347.437 L103.608 339.289 L88.0058 339.289 L88.0058 334.775 L102.381 312.877 Z" fill="#000000" fill-rule="nonzero" fill-opacity="1" /><path clip-path="url(#clip810)" d="M130.922 315.956 Q127.311 315.956 125.482 319.521 Q123.677 323.062 123.677 330.192 Q123.677 337.298 125.482 340.863 Q127.311 344.405 130.922 344.405 Q134.556 344.405 136.362 340.863 Q138.191 337.298 138.191 330.192 Q138.191 323.062 136.362 319.521 Q134.556 315.956 130.922 315.956 M130.922 312.252 Q136.732 312.252 139.788 316.859 Q142.867 321.442 142.867 330.192 Q142.867 338.919 139.788 343.525 Q136.732 348.108 130.922 348.108 Q125.112 348.108 122.033 343.525 Q118.978 338.919 118.978 330.192 Q118.978 321.442 122.033 316.859 Q125.112 312.252 130.922 312.252 Z" fill="#000000" fill-rule="nonzero" fill-opacity="1" /><path clip-path="url(#clip810)" d="M50.9921 122.336 L80.6679 122.336 L80.6679 126.272 L50.9921 126.272 L50.9921 122.336 Z" fill="#000000" fill-rule="nonzero" fill-opacity="1" /><path clip-path="url(#clip810)" d="M104.927 120.531 Q108.283 121.248 110.158 123.517 Q112.057 125.785 112.057 129.119 Q112.057 134.234 108.538 137.035 Q105.02 139.836 98.5382 139.836 Q96.3623 139.836 94.0475 139.396 Q91.7558 138.98 89.3021 138.123 L89.3021 133.609 Q91.2465 134.744 93.5613 135.322 Q95.8761 135.901 98.3993 135.901 Q102.797 135.901 105.089 134.165 Q107.404 132.429 107.404 129.119 Q107.404 126.063 105.251 124.35 Q103.121 122.614 99.3021 122.614 L95.2743 122.614 L95.2743 118.772 L99.4872 118.772 Q102.936 118.772 104.765 117.406 Q106.594 116.017 106.594 113.424 Q106.594 110.762 104.696 109.35 Q102.821 107.915 99.3021 107.915 Q97.3808 107.915 95.1817 108.332 Q92.9826 108.748 90.3438 109.628 L90.3438 105.461 Q93.0058 104.721 95.3206 104.35 Q97.6585 103.98 99.7187 103.98 Q105.043 103.98 108.145 106.41 Q111.246 108.818 111.246 112.938 Q111.246 115.809 109.603 117.799 Q107.959 119.767 104.927 120.531 Z" fill="#000000" fill-rule="nonzero" fill-opacity="1" /><path clip-path="url(#clip810)" d="M130.922 107.684 Q127.311 107.684 125.482 111.248 Q123.677 114.79 123.677 121.92 Q123.677 129.026 125.482 132.591 Q127.311 136.133 130.922 136.133 Q134.556 136.133 136.362 132.591 Q138.191 129.026 138.191 121.92 Q138.191 114.79 136.362 111.248 Q134.556 107.684 130.922 107.684 M130.922 103.98 Q136.732 103.98 139.788 108.586 Q142.867 113.17 142.867 121.92 Q142.867 130.646 139.788 135.253 Q136.732 139.836 130.922 139.836 Q125.112 139.836 122.033 135.253 Q118.978 130.646 118.978 121.92 Q118.978 113.17 122.033 108.586 Q125.112 103.98 130.922 103.98 Z" fill="#000000" fill-rule="nonzero" fill-opacity="1" /><polyline clip-path="url(#clip812)" style="stroke:#009af9; stroke-linecap:round; stroke-linejoin:round; stroke-width:4; stroke-opacity:1; fill:none" points="240.392,406.557 241.418,403.718 242.444,683.229 243.47,669.163 244.496,290.009 245.521,288.464 246.547,89.8915 247.573,87.9763 248.599,141.219 249.625,139.075 250.651,228.277 251.677,225.347 252.703,356.261 253.729,352.086 254.755,485.582 255.781,482.813 256.807,445.174 257.833,442.37 258.859,346.493 259.885,345.092 260.91,598.74 261.936,593.994 262.962,666.916 263.988,665.04 265.014,528.785 266.04,525.03 267.066,358.67 268.092,356.009 269.118,612.084 270.144,605.752 271.17,465.703 272.196,461.37 273.222,513.223 274.248,509.604 275.274,528.377 276.299,524.167 277.325,492.825 278.351,490.694 279.377,525.399 280.403,523.015 281.429,195.634 282.455,192.915 283.481,350.761 284.507,346.984 285.533,487.535 286.559,486.004 287.585,288.706 288.611,285.734 289.637,613.292 290.662,607.025 291.688,824.036 292.714,820.188 293.74,479.737 294.766,476.045 295.792,745.99 296.818,743.057 297.844,685.089 298.87,681.718 299.896,696.689 300.922,693.643 301.948,483.535 302.974,479.133 304,712.706 305.026,708.58 306.051,530.544 307.077,526.697 308.103,603.433 309.129,601.52 310.155,676.997 311.181,672.052 312.207,665.472 313.233,664.163 314.259,615.013 315.285,611.846 316.311,947.635 317.337,941.2 318.363,911.484 319.389,909.899 320.415,598.454 321.44,593.163 322.466,616.47 323.492,613.746 324.518,655.518 325.544,653.511 326.57,954.156 327.596,948.865 328.622,555.173 329.648,552.602 330.674,693.997 331.7,690.883 332.726,663.375 333.752,660.812 334.778,593.108 335.804,590.538 336.829,824.511 337.855,821.961 338.881,835.789 339.907,831.76 340.933,724.053 341.959,713.029 342.985,778.979 344.011,776.57 345.037,661.133 346.063,659.507 347.089,766.868 348.115,765.396 349.141,741.927 350.167,740.148 351.193,823.791 352.218,821.873 353.244,753.712 354.27,751.974 355.296,674.737 356.322,670.034 357.348,912.264 358.374,910.631 359.4,962.698 360.426,961.219 361.452,687.274 362.478,685.553 363.504,802.361 364.53,800.661 365.556,1048.22 366.581,1044.49 367.607,827.889 368.633,825.271 369.659,590.873 370.685,588.431 371.711,916.044 372.737,914.355 373.763,909.866 374.789,904.835 375.815,918.376 376.841,917.082 377.867,602.719 378.893,595.493 379.919,834.569 380.945,832.844 381.97,713.288 382.996,710.787 384.022,827.626 385.048,826.3 386.074,713.555 387.1,710.535 388.126,759.8 389.152,756.556 390.178,934.345 391.204,932.332 392.23,911.856 393.256,910.133 394.282,1001.49 395.308,1000.77 396.334,806.819 397.359,805.067 398.385,925.451 399.411,921.32 400.437,964.298 401.463,961.583 402.489,977.508 403.515,973.163 404.541,877.967 405.567,877.612 406.593,778.499 407.619,777.288 408.645,899.85 409.671,898.902 410.697,939.42 411.723,938.265 412.748,913.587 413.774,912.675 414.8,789.846 415.826,786.335 416.852,886.782 417.878,886.051 418.904,836.641 419.93,831.79 420.956,992.629 421.982,990.644 423.008,550.987 424.034,550.168 425.06,1048.87 426.086,1044.81 427.112,893.427 428.137,891.451 429.163,1040.92 430.189,1034.75 431.215,943.164 432.241,941.602 433.267,1048.52 434.293,1047.66 435.319,953.427 436.345,951.327 437.371,889.072 438.397,887.739 439.423,938.324 440.449,937.928 441.475,1122.89 442.5,1119.56 443.526,856.216 444.552,855.332 445.578,1127.56 446.604,1124.34 447.63,1081.07 448.656,1079.85 449.682,1192.38 450.708,1190.46 451.734,989.487 452.76,987.97 453.786,995.381 454.812,993.897 455.838,1037.76 456.864,1033.99 457.889,886.891 458.915,885.601 459.941,998.229 460.967,995.794 461.993,1087.24 463.019,1084.92 464.045,911.424 465.071,907.593 466.097,1089.88 467.123,1088.9 468.149,911.486 469.175,909.362 470.201,937.586 471.227,936.574 472.253,1072 473.278,1070.35 474.304,897.526 475.33,896.514 476.356,1001.99 477.382,1000.55 478.408,1133.87 479.434,1132.75 480.46,907.434 481.486,905.954 482.512,903.587 483.538,903.687 484.564,1073.71 485.59,1073.17 486.616,1084.03 487.642,1082.47 488.667,994.115 489.693,988.506 490.719,998.824 491.745,997.472 492.771,951.617 493.797,949.66 494.823,1061.17 495.849,1060.08 496.875,1051.75 497.901,1047.82 498.927,1028.33 499.953,1025.12 500.979,932.902 502.005,931.821 503.031,1199.18 504.056,1196.27 505.082,1071.54 506.108,1070.76 507.134,1025.13 508.16,1021.03 509.186,1156.85 510.212,1155.67 511.238,1341.7 512.264,1338.99 513.29,1005.39 514.316,1003.39 515.342,1119.04 516.368,1113.66 517.394,1166.88 518.419,1163.92 519.445,1229.5 520.471,1227.33 521.497,1038.99 522.523,1038.7 523.549,1099.46 524.575,1099.02 525.601,857.533 526.627,857.247 527.653,1316.41 528.679,1310.81 529.705,1147.66 530.731,1145.9 531.757,1263.36 532.783,1261.27 533.808,1201.13 534.834,1199.03 535.86,1134.02 536.886,1133.63 537.912,1169.36 538.938,1168.86 539.964,1223.98 540.99,1222.14 542.016,1353.52 543.042,1352.47 544.068,1189.6 545.094,1186.84 546.12,1178.85 547.146,1177.14 548.172,1133.81 549.197,1132.21 550.223,1224.61 551.249,1218.39 552.275,899.037 553.301,896.789 554.327,1218.62 555.353,1215.79 556.379,1230.57 557.405,1226.65 558.431,1272.39 559.457,1271.06 560.483,1160.26 561.509,1157.06 562.535,1200.93 563.561,1199.3 564.586,1167.45 565.612,1165.97 566.638,1143.43 567.664,1140.21 568.69,1136.78 569.716,1136.31 570.742,1307.38 571.768,1305.81 572.794,1336.56 573.82,1335.51 574.846,1394.34 575.872,1391.44 576.898,1228.03 577.924,1225.05 578.95,1259.7 579.975,1259.1 581.001,1248.66 582.027,1247.23 583.053,1091.34 584.079,1086.54 585.105,1109.39 586.131,1107.07 587.157,1347.29 588.183,1345.89 589.209,1165.72 590.235,1159.38 591.261,1268.53 592.287,1267.36 593.313,1239.37 594.338,1236.51 595.364,1238.24 596.39,1232.73 597.416,1207.2 598.442,1206.45 599.468,1314.39 600.494,1309.04 601.52,1351.5 602.546,1349.83 603.572,1160.03 604.598,1156.14 605.624,1401.33 606.65,1400.57 607.676,1320.73 608.702,1309.99 609.727,1435.1 610.753,1432 611.779,1354.42 612.805,1353.62 613.831,1241.08 614.857,1237.51 615.883,1148.63 616.909,1145.56 617.935,1282.55 618.961,1281.57 619.987,1348.67 621.013,1345.41 622.039,1230.78 623.065,1226.67 624.091,1248.52 625.116,1247.78 626.142,1254.8 627.168,1253.22 628.194,1248.93 629.22,1247.68 630.246,1277.55 631.272,1273.63 632.298,1348.16 633.324,1346.32 634.35,1212.51 635.376,1210.6 636.402,1211.73 637.428,1198.88 638.454,1403.24 639.48,1400.81 640.505,1309.58 641.531,1302.47 642.557,1116 643.583,1112.91 644.609,1169.04 645.635,1165.56 646.661,1368.72 647.687,1364.13 648.713,1224.94 649.739,1223.42 650.765,1351.37 651.791,1347.96 652.817,1258 653.843,1249.55 654.869,1261.41 655.894,1260.65 656.92,1255.68 657.946,1254.76 658.972,1365.41 659.998,1363.17 661.024,1396.42 662.05,1394.6 663.076,1249.42 664.102,1248.62 665.128,1352.47 666.154,1350.01 667.18,1220.16 668.206,1214.34 669.232,1274.52 670.257,1272.12 671.283,1208.41 672.309,1208.16 673.335,1445.72 674.361,1443.32 675.387,1301.77 676.413,1297.19 677.439,1239.26 678.465,1238.34 679.491,1400.04 680.517,1398.68 681.543,1411.38 682.569,1409.03 683.595,1334.59 684.621,1333.25 685.646,1351.33 686.672,1349.7 687.698,1216.85 688.724,1215.89 689.75,1380.27 690.776,1379.82 691.802,1409.28 692.828,1405.35 693.854,1270.71 694.88,1267.53 695.906,1389.04 696.932,1387.31 697.958,1321.14 698.984,1319.29 700.01,1275.01 701.035,1272.55 702.061,1293.63 703.087,1290.79 704.113,1346.5 705.139,1346.11 706.165,1324.89 707.191,1319.15 708.217,1265.7 709.243,1261.77 710.269,1262.64 711.295,1261.91 712.321,1294.34 713.347,1289.24 714.373,1325.75 715.399,1325.22 716.424,1324.43 717.45,1322.81 718.476,1155.48 719.502,1149.09 720.528,1314.54 721.554,1313.21 722.58,1222.54 723.606,1221.17 724.632,1242.78 725.658,1241.5 726.684,1235.25 727.71,1234.4 728.736,1302.26 729.762,1300.24 730.788,1218.12 731.813,1216.27 732.839,1269.3 733.865,1267.71 734.891,1335.3 735.917,1334 736.943,1230.87 737.969,1229.93 738.995,1270.36 740.021,1268.98 741.047,1325.6 742.073,1320.99 743.099,1269.01 744.125,1264.06 745.151,1331.46 746.176,1326.11 747.202,1128.22 748.228,1126.48 749.254,1241.26 750.28,1238.08 751.306,1342.19 752.332,1336.63 753.358,1177.58 754.384,1176.97 755.41,1284.52 756.436,1279.92 757.462,1319.55 758.488,1317.17 759.514,1300.58 760.54,1297.27 761.565,1344.91 762.591,1343.78 763.617,1248.12 764.643,1242.83 765.669,1342.01 766.695,1339.74 767.721,1242.68 768.747,1240.67 769.773,1390.1 770.799,1388.77 771.825,1284.25 772.851,1281.64 773.877,1369.43 774.903,1367.83 775.929,1412.39 776.954,1408.85 777.98,1323.81 779.006,1318.9 780.032,1227.97 781.058,1224.47 782.084,1317.83 783.11,1316.15 784.136,1251.86 785.162,1251.07 786.188,1394.34 787.214,1390.15 788.24,1312.92 789.266,1310.59 790.292,1288.34 791.318,1288.21 792.343,1340.4 793.369,1339.74 794.395,1412.04 795.421,1411.45 796.447,1383.74 797.473,1382.81 798.499,1279.16 799.525,1277.19 800.551,1385.43 801.577,1384.32 802.603,1255.24 803.629,1255.12 804.655,1287.65 805.681,1286.23 806.707,1364.43 807.732,1364.13 808.758,1335.81 809.784,1333.45 810.81,1251.16 811.836,1247.99 812.862,1320.49 813.888,1319.56 814.914,1373.55 815.94,1367.76 816.966,1341.65 817.992,1340.99 819.018,1339.95 820.044,1335.75 821.07,1216.85 822.095,1215.04 823.121,1310.87 824.147,1308.63 825.173,1315.76 826.199,1314.98 827.225,1340 828.251,1338.34 829.277,1405.26 830.303,1403.92 831.329,1307.48 832.355,1304.31 833.381,1234.36 834.407,1231.78 835.433,1356.93 836.459,1356.38 837.484,1321.45 838.51,1321.41 839.536,1215.86 840.562,1212.23 841.588,1371.09 842.614,1370.21 843.64,1356.93 844.666,1351.32 845.692,1341.33 846.718,1337.91 847.744,1345.9 848.77,1342.18 849.796,1295.66 850.822,1295.01 851.848,1190.88 852.873,1188.6 853.899,1387.26 854.925,1380.38 855.951,1236.84 856.977,1236.28 858.003,1392.58 859.029,1388.09 860.055,1278.84 861.081,1278.45 862.107,1380.51 863.133,1376.71 864.159,1225.41 865.185,1222.39 866.211,1284.05 867.237,1282.83 868.262,1315.44 869.288,1314.75 870.314,1313.98 871.34,1313.29 872.366,1400.54 873.392,1399.08 874.418,1305.07 875.444,1301.35 876.47,1198.25 877.496,1197.23 878.522,1273.47 879.548,1265.65 880.574,1197.17 881.6,1196.44 882.626,1304.73 883.651,1301.57 884.677,1301.8 885.703,1299.02 886.729,1287.82 887.755,1284.83 888.781,1322.49 889.807,1322.29 890.833,1339.41 891.859,1337.83 892.885,1356.17 893.911,1355.5 894.937,1274.16 895.963,1272.98 896.989,1353.67 898.014,1347.43 899.04,1404.88 900.066,1394.13 901.092,1315.56 902.118,1314.65 903.144,1394.13 904.17,1393.66 905.196,1378.41 906.222,1376.18 907.248,1346.98 908.274,1345.66 909.3,1353.35 910.326,1352.99 911.352,1335.29 912.378,1332.66 913.403,1327.37 914.429,1324.25 915.455,1291.97 916.481,1290.96 917.507,1339.92 918.533,1339.44 919.559,1229.01 920.585,1228.44 921.611,1344.86 922.637,1344.79 923.663,1318.6 924.689,1317.33 925.715,1314.4 926.741,1313.4 927.767,1283.57 928.792,1279.79 929.818,1385.22 930.844,1385.14 931.87,1327.41 932.896,1326.79 933.922,1327.02 934.948,1326.5 935.974,1325.37 937,1324.72 938.026,1335.96 939.052,1334.72 940.078,1309 941.104,1307.94 942.13,1419.73 943.156,1416.69 944.181,1319.57 945.207,1319.38 946.233,1389.15 947.259,1388.57 948.285,1373.88 949.311,1369.56 950.337,1237.23 951.363,1235.43 952.389,1362.08 953.415,1361.16 954.441,1332.7 955.467,1327.9 956.493,1369.43 957.519,1366.87 958.545,1393.36 959.57,1392.78 960.596,1355.74 961.622,1354.85 962.648,1401.48 963.674,1399.22 964.7,1370.95 965.726,1369.21 966.752,1362.9 967.778,1361.47 968.804,1326.22 969.83,1321.68 970.856,1407.57 971.882,1403.72 972.908,1316.32 973.933,1311.1 974.959,1351.06 975.985,1348.24 977.011,1275.3 978.037,1274.66 979.063,1360.04 980.089,1358.87 981.115,1306.51 982.141,1302.74 983.167,1198.95 984.193,1198.64 985.219,1354.48 986.245,1352.94 987.271,1243.02 988.297,1240.01 989.322,1318.62 990.348,1316.09 991.374,1360.7 992.4,1360.39 993.426,1353.04 994.452,1352.01 995.478,1299.94 996.504,1289.51 997.53,1323 998.556,1320.36 999.582,1346.49 1000.61,1340.92 1001.63,1307.76 1002.66,1306.65 1003.69,1272.75 1004.71,1270.21 1005.74,1288.46 1006.76,1285.34 1007.79,1235.74 1008.82,1234.92 1009.84,1316.82 1010.87,1312.42 1011.89,1351.66 1012.92,1351.23 1013.94,1273.25 1014.97,1272.84 1016,1402.86 1017.02,1391.78 1018.05,1349.86 1019.07,1348.9 1020.1,1305.87 1021.13,1303.63 1022.15,1375.34 1023.18,1372.01 1024.2,1340.16 1025.23,1333.1 1026.26,1322.46 1027.28,1321.81 1028.31,1360.62 1029.33,1358.32 1030.36,1276.93 1031.39,1276.34 1032.41,1353.88 1033.44,1352.34 1034.46,1283.74 1035.49,1280.7 1036.52,1349.14 1037.54,1348.17 1038.57,1394.41 1039.59,1391.65 1040.62,1274.59 1041.65,1274.12 1042.67,1400.07 1043.7,1399.18 1044.72,1272.19 1045.75,1271.17 1046.77,1398.74 1047.8,1397.76 1048.83,1314.85 1049.85,1314.66 1050.88,1357.7 1051.9,1355.84 1052.93,1386.3 1053.96,1384.93 1054.98,1282.23 1056.01,1280.14 1057.03,1344.51 1058.06,1343 1059.09,1344.59 1060.11,1342.96 1061.14,1384.33 1062.16,1383.07 1063.19,1315.62 1064.22,1315.08 1065.24,1327.88 1066.27,1324.8 1067.29,1343.79 1068.32,1340.5 1069.35,1276.6 1070.37,1275.27 1071.4,1352.13 1072.42,1351.65 1073.45,1252.49 1074.47,1246.75 1075.5,1295.49 1076.53,1291.6 1077.55,1347.19 1078.58,1345.49 1079.6,1306.61 1080.63,1305.79 1081.66,1362.51 1082.68,1361.17 1083.71,1243.83 1084.73,1241.39 1085.76,1344.73 1086.79,1344.32 1087.81,1326.68 1088.84,1323.33 1089.86,1382.37 1090.89,1372.19 1091.92,1278.84 1092.94,1277.65 1093.97,1322.36 1094.99,1321.07 1096.02,1393.8 1097.05,1393.56 1098.07,1391.14 1099.1,1388.83 1100.12,1316.03 1101.15,1315.92 1102.18,1272.78 1103.2,1272.19 1104.23,1284.78 1105.25,1281.89 1106.28,1283.1 1107.3,1280.58 1108.33,1308.95 1109.36,1307.93 1110.38,1396.8 1111.41,1395.3 1112.43,1397.13 1113.46,1394.46 1114.49,1390.82 1115.51,1390.74 1116.54,1316.53 1117.56,1315.17 1118.59,1273.49 1119.62,1272.85 1120.64,1380.08 1121.67,1371.26 1122.69,1306.76 1123.72,1305.74 1124.75,1364.58 1125.77,1361.64 1126.8,1311.07 1127.82,1307.33 1128.85,1350.67 1129.88,1349.78 1130.9,1350.96 1131.93,1349.42 1132.95,1391.21 1133.98,1390.69 1135,1347.46 1136.03,1342.98 1137.06,1382.65 1138.08,1380.08 1139.11,1258.69 1140.13,1252.16 1141.16,1297.73 1142.19,1294.98 1143.21,1306.43 1144.24,1304.77 1145.26,1337.26 1146.29,1334.94 1147.32,1276 1148.34,1274.12 1149.37,1347 1150.39,1346.85 1151.42,1228.65 1152.45,1227.5 1153.47,1346.85 1154.5,1346.2 1155.52,1350.71 1156.55,1349.62 1157.58,1341.65 1158.6,1338.84 1159.63,1332.97 1160.65,1330.07 1161.68,1322.31 1162.71,1317.68 1163.73,1352.35 1164.76,1349.46 1165.78,1316.63 1166.81,1315.72 1167.83,1385.43 1168.86,1385.19 1169.89,1350.28 1170.91,1347.35 1171.94,1401.13 1172.96,1398.1 1173.99,1346.74 1175.02,1345.62 1176.04,1339.02 1177.07,1338.21 1178.09,1359.8 1179.12,1357.18 1180.15,1267.09 1181.17,1265.66 1182.2,1301.73 1183.22,1299.28 1184.25,1336.86 1185.28,1336.45 1186.3,1349.1 1187.33,1346.64 1188.35,1355.25 1189.38,1354.55 1190.41,1337.82 1191.43,1335.35 1192.46,1407.96 1193.48,1403.15 1194.51,1194.45 1195.53,1191.31 1196.56,1352.33 1197.59,1349.12 1198.61,1312.13 1199.64,1309.54 1200.66,1304.22 1201.69,1303.33 1202.72,1341.89 1203.74,1339.26 1204.77,1391.03 1205.79,1390.17 1206.82,1347.49 1207.85,1345.97 1208.87,1347.58 1209.9,1344.58 1210.92,1349.42 1211.95,1349.22 1212.98,1394.9 1214,1392.58 1215.03,1311.34 1216.05,1311.14 1217.08,1305.61 1218.11,1304.33 1219.13,1400.7 1220.16,1396.8 1221.18,1380.11 1222.21,1378.25 1223.24,1334.49 1224.26,1331.68 1225.29,1388.21 1226.31,1388.04 1227.34,1348.81 1228.36,1347.05 1229.39,1347.81 1230.42,1344.25 1231.44,1344.42 1232.47,1344.35 1233.49,1354.5 1234.52,1353.14 1235.55,1378.02 1236.57,1370.77 1237.6,1304.97 1238.62,1303.93 1239.65,1221.23 1240.68,1220.18 1241.7,1338.25 1242.73,1337.84 1243.75,1325.38 1244.78,1323.25 1245.81,1341.33 1246.83,1340.64 1247.86,1328.53 1248.88,1326.82 1249.91,1311.06 1250.94,1310.18 1251.96,1373.54 1252.99,1372.99 1254.01,1392.07 1255.04,1391.31 1256.06,1368.59 1257.09,1366.34 1258.12,1301.32 1259.14,1298.88 1260.17,1335.08 1261.19,1334.09 1262.22,1368.17 1263.25,1365.49 1264.27,1339.35 1265.3,1334.38 1266.32,1313.02 1267.35,1310.77 1268.38,1343.15 1269.4,1341.73 1270.43,1331.26 1271.45,1327.41 1272.48,1392.12 1273.51,1387.91 1274.53,1375.83 1275.56,1374.34 1276.58,1342.45 1277.61,1341.76 1278.64,1378.92 1279.66,1377.24 1280.69,1290.65 1281.71,1288.99 1282.74,1370.05 1283.77,1369.33 1284.79,1378.75 1285.82,1378.46 1286.84,1344.08 1287.87,1337.44 1288.89,1314 1289.92,1312.54 1290.95,1341.19 1291.97,1340.94 1293,1334.35 1294.02,1330.53 1295.05,1383.29 1296.08,1381.73 1297.1,1329.43 1298.13,1327.6 1299.15,1346.61 1300.18,1346.22 1301.21,1348.48 1302.23,1346.82 1303.26,1340.61 1304.28,1340.08 1305.31,1339.93 1306.34,1336.98 1307.36,1308.01 1308.39,1305.58 1309.41,1381.71 1310.44,1374.39 1311.47,1339.32 1312.49,1338.31 1313.52,1344.55 1314.54,1341.87 1315.57,1379.31 1316.59,1378.52 1317.62,1319.66 1318.65,1318.13 1319.67,1372.89 1320.7,1371.1 1321.72,1319.34 1322.75,1313.34 1323.78,1367.89 1324.8,1367.52 1325.83,1389.5 1326.85,1388.84 1327.88,1354.8 1328.91,1353.24 1329.93,1376.93 1330.96,1374.54 1331.98,1342.22 1333.01,1340.68 1334.04,1372.6 1335.06,1370.91 1336.09,1370.95 1337.11,1370.1 1338.14,1372.81 1339.17,1370.59 1340.19,1281.96 1341.22,1279.53 1342.24,1319.47 1343.27,1317.21 1344.3,1367.67 1345.32,1367.74 1346.35,1241.13 1347.37,1238.83 1348.4,1309.93 1349.42,1308.23 1350.45,1291.31 1351.48,1290.43 1352.5,1331.35 1353.53,1329.07 1354.55,1335.76 1355.58,1334.37 1356.61,1374.8 1357.63,1374.63 1358.66,1308.89 1359.68,1306.15 1360.71,1294.7 1361.74,1292.11 1362.76,1322.19 1363.79,1321.76 1364.81,1290.67 1365.84,1290.3 1366.87,1326.17 1367.89,1325.85 1368.92,1377.74 1369.94,1376.89 1370.97,1328.32 1372,1325.76 1373.02,1310.91 1374.05,1310.09 1375.07,1389.37 1376.1,1385.85 1377.12,1252.89 1378.15,1252.13 1379.18,1306.65 1380.2,1302.54 1381.23,1350.99 1382.25,1348.79 1383.28,1373.31 1384.31,1372.54 1385.33,1316.72 1386.36,1314.56 1387.38,1333.7 1388.41,1332.31 1389.44,1256.6 1390.46,1255.57 1391.49,1383.7 1392.51,1382.06 1393.54,1349.74 1394.57,1347.52 1395.59,1397.36 1396.62,1393.13 1397.64,1261.68 1398.67,1259.59 1399.7,1385.46 1400.72,1384.76 1401.75,1308.22 1402.77,1307.97 1403.8,1342.02 1404.83,1340.22 1405.85,1303.11 1406.88,1302.66 1407.9,1388.07 1408.93,1386.86 1409.95,1344.09 1410.98,1343.36 1412.01,1339.18 1413.03,1336.89 1414.06,1329.46 1415.08,1325.15 1416.11,1375.14 1417.14,1373.96 1418.16,1379.72 1419.19,1377.68 1420.21,1339.14 1421.24,1338.3 1422.27,1275.6 1423.29,1273.98 1424.32,1359.36 1425.34,1352.54 1426.37,1310.13 1427.4,1307.02 1428.42,1270.23 1429.45,1267.89 1430.47,1340.42 1431.5,1339.09 1432.53,1259.62 1433.55,1253.81 1434.58,1389.14 1435.6,1387.75 1436.63,1338.6 1437.65,1335.19 1438.68,1381.46 1439.71,1381.3 1440.73,1376.3 1441.76,1375.93 1442.78,1346.2 1443.81,1342.6 1444.84,1389.3 1445.86,1387.23 1446.89,1301.13 1447.91,1299.57 1448.94,1370.24 1449.97,1367.63 1450.99,1296.2 1452.02,1290.57 1453.04,1329.95 1454.07,1327.99 1455.1,1355.59 1456.12,1353.4 1457.15,1391.7 1458.17,1389.7 1459.2,1363.22 1460.23,1354.18 1461.25,1342.83 1462.28,1342.32 1463.3,1381.85 1464.33,1381.28 1465.36,1336.51 1466.38,1336.39 1467.41,1386.31 1468.43,1383.14 1469.46,1354.3 1470.48,1351.77 1471.51,1334.94 1472.54,1332.12 1473.56,1385.47 1474.59,1380.69 1475.61,1379.55 1476.64,1379.35 1477.67,1386.33 1478.69,1384.86 1479.72,1311.11 1480.74,1309.3 1481.77,1342.48 1482.8,1342.34 1483.82,1381.41 1484.85,1379.97 1485.87,1379.9 1486.9,1378.47 1487.93,1376.09 1488.95,1374.6 1489.98,1379.36 1491,1376.56 1492.03,1307.89 1493.06,1306.33 1494.08,1383.72 1495.11,1382.33 1496.13,1342.44 1497.16,1341.68 1498.18,1341.81 1499.21,1341.1 1500.24,1382.42 1501.26,1381.8 1502.29,1305.09 1503.31,1304.16 1504.34,1391.54 1505.37,1383.33 1506.39,1340.34 1507.42,1339.48 1508.44,1341.37 1509.47,1337.86 1510.5,1380.77 1511.52,1378.58 1512.55,1378.29 1513.57,1375.69 1514.6,1371.51 1515.63,1369.93 1516.65,1379.43 1517.68,1375.53 1518.7,1270.43 1519.73,1269.19 1520.76,1336.96 1521.78,1335.14 1522.81,1378.22 1523.83,1377.6 1524.86,1343.11 1525.89,1341.1 1526.91,1349.24 1527.94,1346.81 1528.96,1374.81 1529.99,1374.47 1531.01,1338.07 1532.04,1336.53 1533.07,1351.83 1534.09,1349.54 1535.12,1374.9 1536.14,1373.29 1537.17,1343.31 1538.2,1342.78 1539.22,1381.73 1540.25,1380.27 1541.27,1303.8 1542.3,1303.05 1543.33,1345.95 1544.35,1343.51 1545.38,1342.06 1546.4,1340.05 1547.43,1380.76 1548.46,1379.01 1549.48,1349.41 1550.51,1346.14 1551.53,1340.34 1552.56,1339.33 1553.59,1304.8 1554.61,1303.56 1555.64,1345.82 1556.66,1344.54 1557.69,1343.95 1558.71,1342.33 1559.74,1379.29 1560.77,1379.16 1561.79,1344.01 1562.82,1342.28 1563.84,1266.17 1564.87,1264.46 1565.9,1375.74 1566.92,1373.62 1567.95,1299.01 1568.97,1298.39 1570,1336.44 1571.03,1333.93 1572.05,1389.3 1573.08,1384.67 1574.1,1378.1 1575.13,1375.86 1576.16,1383.89 1577.18,1381.55 1578.21,1382.32 1579.23,1381.21 1580.26,1336.67 1581.29,1334.5 1582.31,1302.47 1583.34,1299.5 1584.36,1340.34 1585.39,1339.26 1586.42,1378.85 1587.44,1377.7 1588.47,1383.57 1589.49,1382.82 1590.52,1376.96 1591.54,1374.22 1592.57,1296.84 1593.6,1295.75 1594.62,1384.66 1595.65,1383.62 1596.67,1337.29 1597.7,1335.85 1598.73,1381.73 1599.75,1377.76 1600.78,1351.34 1601.8,1348.78 1602.83,1377.51 1603.86,1373.85 1604.88,1339.22 1605.91,1338.57 1606.93,1390.01 1607.96,1386.8 1608.99,1376.36 1610.01,1375.99 1611.04,1384.75 1612.06,1380.66 1613.09,1380 1614.12,1379.64 1615.14,1380.49 1616.17,1378.41 1617.19,1340.61 1618.22,1340.08 1619.24,1303.04 1620.27,1302.41 1621.3,1341.63 1622.32,1341.27 1623.35,1345.53 1624.37,1330.89 1625.4,1331.08 1626.43,1329.58 1627.45,1340.26 1628.48,1337.61 1629.5,1380.68 1630.53,1379.64 1631.56,1381.38 1632.58,1379.62 1633.61,1342.04 1634.63,1339.3 1635.66,1337.66 1636.69,1337.32 1637.71,1313.05 1638.74,1308.1 1639.76,1379.87 1640.79,1379.34 1641.82,1304.74 1642.84,1304.11 1643.87,1372.92 1644.89,1365.61 1645.92,1371.02 1646.95,1370.56 1647.97,1293.39 1649,1292.61 1650.02,1382.03 1651.05,1380.5 1652.07,1351.38 1653.1,1341.12 1654.13,1333.73 1655.15,1331.23 1656.18,1325.62 1657.2,1321.05 1658.23,1385.07 1659.26,1383 1660.28,1335.27 1661.31,1332.73 1662.33,1308.07 1663.36,1300.55 1664.39,1307.65 1665.41,1306.68 1666.44,1386.83 1667.46,1381.35 1668.49,1337.35 1669.52,1337.12 1670.54,1383.15 1671.57,1382.3 1672.59,1340.06 1673.62,1328.7 1674.65,1333.48 1675.67,1332.79 1676.7,1382.32 1677.72,1379.39 1678.75,1354.23 1679.78,1349.39 1680.8,1337.63 1681.83,1331.96 1682.85,1332.66 1683.88,1327.9 1684.9,1380.92 1685.93,1379.84 1686.96,1299.12 1687.98,1298.55 1689.01,1343.21 1690.03,1342.88 1691.06,1337.71 1692.09,1337.51 1693.11,1385.44 1694.14,1381.08 1695.16,1373.42 1696.19,1371.14 1697.22,1381.32 1698.24,1378.07 1699.27,1377.84 1700.29,1376.91 1701.32,1366.37 1702.35,1363.83 1703.37,1368.5 1704.4,1366.58 1705.42,1297.11 1706.45,1297.04 1707.48,1355.14 1708.5,1351.31 1709.53,1366.59 1710.55,1366.39 1711.58,1393.08 1712.6,1380.33 1713.63,1370.5 1714.66,1369.7 1715.68,1341.86 1716.71,1340.83 1717.73,1373.13 1718.76,1372.66 1719.79,1380.17 1720.81,1379.49 1721.84,1355.29 1722.86,1351.01 1723.89,1374.19 1724.92,1369.65 1725.94,1369.86 1726.97,1369.58 1727.99,1369.43 1729.02,1368.67 1730.05,1357.85 1731.07,1352.11 1732.1,1363.84 1733.12,1361 1734.15,1327.66 1735.18,1327.11 1736.2,1398.01 1737.23,1394.29 1738.25,1349.96 1739.28,1345.19 1740.31,1360.6 1741.33,1360.03 1742.36,1376.85 1743.38,1374.96 1744.41,1260.15 1745.43,1259.65 1746.46,1321.91 1747.49,1320.15 1748.51,1369.03 1749.54,1368.77 1750.56,1362.94 1751.59,1355.69 1752.62,1385.26 1753.64,1383.66 1754.67,1297.3 1755.69,1296.75 1756.72,1384.63 1757.75,1379.56 1758.77,1331.8 1759.8,1325.62 1760.82,1382.12 1761.85,1380.64 1762.88,1372.58 1763.9,1371.24 1764.93,1352.92 1765.95,1350.09 1766.98,1373.74 1768.01,1371.94 1769.03,1373.3 1770.06,1373.18 1771.08,1303.03 1772.11,1302.56 1773.13,1348.39 1774.16,1346.53 1775.19,1374.26 1776.21,1373.83 1777.24,1382.43 1778.26,1378.46 1779.29,1302.32 1780.32,1301.79 1781.34,1338.56 1782.37,1338.06 1783.39,1297.08 1784.42,1296.01 1785.45,1367.08 1786.47,1364.46 1787.5,1374.84 1788.52,1373.69 1789.55,1328.9 1790.58,1327.6 1791.6,1344.19 1792.63,1339.78 1793.65,1377.01 1794.68,1373.8 1795.71,1385.86 1796.73,1384.03 1797.76,1339.33 1798.78,1339.12 1799.81,1380.8 1800.84,1379.4 1801.86,1378.8 1802.89,1377.67 1803.91,1339.01 1804.94,1336.55 1805.96,1372.56 1806.99,1372.16 1808.02,1383.03 1809.04,1380.77 1810.07,1300.2 1811.09,1298.91 1812.12,1337.87 1813.15,1337.55 1814.17,1371.61 1815.2,1370.64 1816.22,1372.39 1817.25,1368.44 1818.28,1370.02 1819.3,1364.43 1820.33,1375.44 1821.35,1373.31 1822.38,1337.65 1823.41,1337.06 1824.43,1330.81 1825.46,1330.04 1826.48,1310.2 1827.51,1308.41 1828.54,1384.45 1829.56,1382.54 1830.59,1376.89 1831.61,1375.77 1832.64,1225.1 1833.66,1225.03 1834.69,1331.32 1835.72,1319.11 1836.74,1325.85 1837.77,1324.31 1838.79,1332.34 1839.82,1331.59 1840.85,1337.56 1841.87,1335.27 1842.9,1328.8 1843.92,1325.4 1844.95,1332.53 1845.98,1331.96 1847,1324.03 1848.03,1323.04 1849.05,1369.5 1850.08,1368.94 1851.11,1333.49 1852.13,1333.35 1853.16,1395.6 1854.18,1392.97 1855.21,1384.34 1856.24,1381.97 1857.26,1380.65 1858.29,1379.3 1859.31,1375.64 1860.34,1375.51 1861.37,1378.78 1862.39,1376.58 1863.42,1377.9 1864.44,1377.33 1865.47,1340.56 1866.49,1338.98 1867.52,1380.39 1868.55,1375.26 1869.57,1383.12 1870.6,1380.12 1871.62,1301.91 1872.65,1301.36 1873.68,1337.87 1874.7,1335.86 1875.73,1378.86 1876.75,1375.97 1877.78,1373.07 1878.81,1370.81 1879.83,1375.15 1880.86,1374.76 1881.88,1299.57 1882.91,1299.24 1883.94,1371.38 1884.96,1370.2 1885.99,1370.88 1887.01,1370.24 1888.04,1290.06 1889.07,1286.81 1890.09,1351.4 1891.12,1346.88 1892.14,1365.1 1893.17,1361.47 1894.19,1368.52 1895.22,1368.09 1896.25,1385.96 1897.27,1382.71 1898.3,1359.07 1899.32,1357.91 1900.35,1373.26 1901.38,1372.61 1902.4,1361.72 1903.43,1361.27 1904.45,1376.12 1905.48,1375.78 1906.51,1357.37 1907.53,1355.5 1908.56,1370.96 1909.58,1370.46 1910.61,1354.4 1911.64,1351.99 1912.66,1358.14 1913.69,1357.4 1914.71,1335.45 1915.74,1326.7 1916.77,1383.59 1917.79,1382.03 1918.82,1330.62 1919.84,1330 1920.87,1384.97 1921.9,1382.76 1922.92,1370.77 1923.95,1370.23 1924.97,1373 1926,1372.99 1927.02,1330.64 1928.05,1329.51 1929.08,1346.31 1930.1,1343.84 1931.13,1303.86 1932.15,1303.01 1933.18,1371.24 1934.21,1366.2 1935.23,1325.02 1936.26,1322.35 1937.28,1258.16 1938.31,1257.51 1939.34,1348.39 1940.36,1345.61 1941.39,1366.76 1942.41,1363.87 1943.44,1369.3 1944.47,1369.17 1945.49,1392.78 1946.52,1388.83 1947.54,1338.58 1948.57,1336.6 1949.6,1376.17 1950.62,1374.98 1951.65,1342.27 1952.67,1339.77 1953.7,1334.87 1954.72,1334.56 1955.75,1374.53 1956.78,1374.22 1957.8,1336.03 1958.83,1333.84 1959.85,1327.51 1960.88,1322.45 1961.91,1305.74 1962.93,1304.78 1963.96,1341.24 1964.98,1340.13 1966.01,1270.2 1967.04,1266.34 1968.06,1379.58 1969.09,1371.78 1970.11,1337.22 1971.14,1335.16 1972.17,1385.23 1973.19,1381.08 1974.22,1376.83 1975.24,1374.96 1976.27,1339.11 1977.3,1336.54 1978.32,1371.22 1979.35,1364.36 1980.37,1377.65 1981.4,1376.93 1982.43,1369.78 1983.45,1368.51 1984.48,1297.7 1985.5,1297.62 1986.53,1367.37 1987.55,1365.6 1988.58,1382.2 1989.61,1380.09 1990.63,1378.54 1991.66,1375.66 1992.68,1377.29 1993.71,1375.14 1994.74,1340.81 1995.76,1340.01 1996.79,1377.24 1997.81,1373.46 1998.84,1376.4 1999.87,1375.66 2000.89,1375.76 2001.92,1375.33 2002.94,1336.7 2003.97,1329.39 2005,1371.14 2006.02,1370.56 2007.05,1331.71 2008.07,1328.2 2009.1,1369.84 2010.13,1366.84 2011.15,1381.22 2012.18,1379.39 2013.2,1371.77 2014.23,1371.11 2015.25,1370.44 2016.28,1367.95 2017.31,1320.35 2018.33,1317.48 2019.36,1372.37 2020.38,1370.71 2021.41,1356.81 2022.44,1353.81 2023.46,1382.32 2024.49,1379.73 2025.51,1370.66 2026.54,1370.52 2027.57,1339.99 2028.59,1337.58 2029.62,1321.87 2030.64,1319.35 2031.67,1364.14 2032.7,1361.73 2033.72,1396.62 2034.75,1389.29 2035.77,1295.39 2036.8,1293.25 2037.83,1365.01 2038.85,1361.91 2039.88,1375.44 2040.9,1373.71 2041.93,1360.04 2042.96,1358.35 2043.98,1375.89 2045.01,1373.63 2046.03,1375.03 2047.06,1374.87 2048.08,1328.13 2049.11,1326.05 2050.14,1291.6 2051.16,1289.01 2052.19,1288.71 2053.21,1285.37 2054.24,1386.95 2055.27,1384.93 2056.29,1375.66 2057.32,1374.93 2058.34,1356.07 2059.37,1351.48 2060.4,1370.11 2061.42,1369.47 2062.45,1367.61 2063.47,1366.88 2064.5,1370.69 2065.53,1370.42 2066.55,1353.24 2067.58,1349.72 2068.6,1290.33 2069.63,1288.35 2070.66,1375.46 2071.68,1370.97 2072.71,1340.12 2073.73,1339.49 2074.76,1305.2 2075.78,1303.85 2076.81,1301.01 2077.84,1300.19 2078.86,1371.47 2079.89,1366.13 2080.91,1336.41 2081.94,1335.54 2082.97,1364.33 2083.99,1362.75 2085.02,1374.08 2086.04,1373.65 2087.07,1287.11 2088.1,1281.36 2089.12,1338.39 2090.15,1337.36 2091.17,1334.63 2092.2,1332.15 2093.23,1371.1 2094.25,1369.84 2095.28,1366.02 2096.3,1361.55 2097.33,1379.57 2098.36,1376.9 2099.38,1385.38 2100.41,1377.84 2101.43,1376.74 2102.46,1376.3 2103.49,1367.21 2104.51,1365.99 2105.54,1380.96 2106.56,1380.04 2107.59,1364.89 2108.61,1360.15 2109.64,1363.6 2110.67,1360.86 2111.69,1331.88 2112.72,1331.42 2113.74,1359.54 2114.77,1357.49 2115.8,1263.15 2116.82,1250.13 2117.85,1366.77 2118.87,1365.11 2119.9,1333.4 2120.93,1333.24 2121.95,1331.62 2122.98,1331.45 2124,1301.9 2125.03,1298.2 2126.06,1368.65 2127.08,1368.41 2128.11,1356.23 2129.13,1352.22 2130.16,1331.94 2131.19,1331.34 2132.21,1375.66 2133.24,1375.1 2134.26,1360.2 2135.29,1358.63 2136.31,1383.49 2137.34,1381.09 2138.37,1301.87 2139.39,1297.43 2140.42,1317.88 2141.44,1312 2142.47,1357.08 2143.5,1349.78 2144.52,1333.43 2145.55,1331.11 2146.57,1373.13 2147.6,1372.15 2148.63,1372.75 2149.65,1366.57 2150.68,1331.15 2151.7,1330 2152.73,1362.64 2153.76,1361.5 2154.78,1365.22 2155.81,1363.9 2156.83,1383.13 2157.86,1381.19 2158.89,1324.4 2159.91,1323.6 2160.94,1335.36 2161.96,1335.12 2162.99,1373.21 2164.02,1373.03 2165.04,1313.51 2166.07,1309.69 2167.09,1377.1 2168.12,1376.08 2169.14,1334.03 2170.17,1333.31 2171.2,1371.21 2172.22,1371 2173.25,1362.64 2174.27,1355.16 2175.3,1371.24 2176.33,1369.85 2177.35,1342.86 2178.38,1340.97 2179.4,1342.36 2180.43,1340.86 2181.46,1376.81 2182.48,1376.36 2183.51,1333.14 2184.53,1331.52 2185.56,1323.94 2186.59,1319.53 2187.61,1296.93 2188.64,1295.65 2189.66,1368.94 2190.69,1367.12 2191.72,1375.26 2192.74,1375.03 2193.77,1381.62 2194.79,1379.94 2195.82,1367.27 2196.84,1363.23 2197.87,1331.71 2198.9,1331.12 2199.92,1374.1 2200.95,1373.95 2201.97,1376.07 2203,1374.09 2204.03,1358.97 2205.05,1355.68 2206.08,1367.86 2207.1,1367.54 2208.13,1288.62 2209.16,1288.18 2210.18,1320.62 2211.21,1315.03 2212.23,1373.64 2213.26,1373.22 2214.29,1354.55 2215.31,1352.16 2216.34,1335.31 2217.36,1334.91 2218.39,1370.79 2219.42,1369.31 2220.44,1361.76 2221.47,1360.52 2222.49,1326.65 2223.52,1326.33 2224.55,1371.79 2225.57,1371.34 2226.6,1334.45 2227.62,1327.2 2228.65,1334.53 2229.67,1333.64 2230.7,1288.94 2231.73,1288.32 2232.75,1349.95 2233.78,1348.85 2234.8,1351.19 2235.83,1350.78 2236.86,1361.93 2237.88,1361.28 2238.91,1319.63 2239.93,1313.74 2240.96,1393.42 2241.99,1390.47 2243.01,1362.13 2244.04,1360.01 2245.06,1376.87 2246.09,1375.3 2247.12,1388.47 2248.14,1380.72 2249.17,1335.22 2250.19,1335 2251.22,1373.65 2252.25,1372.56 2253.27,1257.51 2254.3,1256.66 2255.32,1360.93 2256.35,1359.45 2257.37,1367.93 2258.4,1364.69 2259.43,1375.16 2260.45,1371.69 2261.48,1375.89 2262.5,1375.11 2263.53,1374.63 2264.56,1373.39 2265.58,1371.42 2266.61,1366.63 2267.63,1329.5 2268.66,1329.18 2269.69,1367.04 2270.71,1366.74 2271.74,1363.03 2272.76,1361.98 2273.79,1289.9 2274.82,1287.34 2275.84,1383.74 2276.87,1377.46 2277.89,1335.81 2278.92,1334.38 2279.95,1331.6 2280.97,1331.29 2282,1353.57 2283.02,1350.37 2284.05,1387.38 2285.08,1384.45 2286.1,1376.28 2287.13,1375.54 2288.15,1301.35 2289.18,1300.17 2290.2,1394.05 2291.23,1385.55 "/>
<path clip-path="url(#clip810)" d="M2010.47 198.898 L2280.29 198.898 L2280.29 95.2176 L2010.47 95.2176  Z" fill="#ffffff" fill-rule="evenodd" fill-opacity="1"/>
<polyline clip-path="url(#clip810)" style="stroke:#000000; stroke-linecap:round; stroke-linejoin:round; stroke-width:4; stroke-opacity:1; fill:none" points="2010.47,198.898 2280.29,198.898 2280.29,95.2176 2010.47,95.2176 2010.47,198.898 "/>
<polyline clip-path="url(#clip810)" style="stroke:#009af9; stroke-linecap:round; stroke-linejoin:round; stroke-width:4; stroke-opacity:1; fill:none" points="2034.63,147.058 2179.55,147.058 "/>
<path clip-path="url(#clip810)" d="M2217.55 166.745 Q2215.75 171.375 2214.03 172.787 Q2212.32 174.199 2209.45 174.199 L2206.05 174.199 L2206.05 170.634 L2208.55 170.634 Q2210.31 170.634 2211.28 169.8 Q2212.25 168.967 2213.43 165.865 L2214.19 163.921 L2203.71 138.412 L2208.22 138.412 L2216.32 158.689 L2224.43 138.412 L2228.94 138.412 L2217.55 166.745 Z" fill="#000000" fill-rule="nonzero" fill-opacity="1" /><path clip-path="url(#clip810)" d="M2236.23 160.402 L2243.87 160.402 L2243.87 134.037 L2235.56 135.703 L2235.56 131.444 L2243.82 129.778 L2248.5 129.778 L2248.5 160.402 L2256.14 160.402 L2256.14 164.338 L2236.23 164.338 L2236.23 160.402 Z" fill="#000000" fill-rule="nonzero" fill-opacity="1" /></svg>
