<?xml version="1.0" encoding="utf-8"?>
<svg xmlns="http://www.w3.org/2000/svg" xmlns:xlink="http://www.w3.org/1999/xlink" width="600" height="400" viewBox="0 0 2400 1600">
<defs>
  <clipPath id="clip780">
    <rect x="0" y="0" width="2400" height="1600"/>
  </clipPath>
</defs>
<path clip-path="url(#clip780)" d="M0 1600 L2400 1600 L2400 0 L0 0  Z" fill="#ffffff" fill-rule="evenodd" fill-opacity="1"/>
<defs>
  <clipPath id="clip781">
    <rect x="480" y="0" width="1681" height="1600"/>
  </clipPath>
</defs>
<path clip-path="url(#clip780)" d="M155.765 1486.45 L2352.76 1486.45 L2352.76 47.2441 L155.765 47.2441  Z" fill="#ffffff" fill-rule="evenodd" fill-opacity="1"/>
<defs>
  <clipPath id="clip782">
    <rect x="155" y="47" width="2198" height="1440"/>
  </clipPath>
</defs>
<polyline clip-path="url(#clip782)" style="stroke:#000000; stroke-linecap:round; stroke-linejoin:round; stroke-width:2; stroke-opacity:0.1; fill:none" points="217.944,1486.45 217.944,47.2441 "/>
<polyline clip-path="url(#clip782)" style="stroke:#000000; stroke-linecap:round; stroke-linejoin:round; stroke-width:2; stroke-opacity:0.1; fill:none" points="736.102,1486.45 736.102,47.2441 "/>
<polyline clip-path="url(#clip782)" style="stroke:#000000; stroke-linecap:round; stroke-linejoin:round; stroke-width:2; stroke-opacity:0.1; fill:none" points="1254.26,1486.45 1254.26,47.2441 "/>
<polyline clip-path="url(#clip782)" style="stroke:#000000; stroke-linecap:round; stroke-linejoin:round; stroke-width:2; stroke-opacity:0.1; fill:none" points="1772.42,1486.45 1772.42,47.2441 "/>
<polyline clip-path="url(#clip782)" style="stroke:#000000; stroke-linecap:round; stroke-linejoin:round; stroke-width:2; stroke-opacity:0.1; fill:none" points="2290.58,1486.45 2290.58,47.2441 "/>
<polyline clip-path="url(#clip780)" style="stroke:#000000; stroke-linecap:round; stroke-linejoin:round; stroke-width:4; stroke-opacity:1; fill:none" points="155.765,1486.45 2352.76,1486.45 "/>
<polyline clip-path="url(#clip780)" style="stroke:#000000; stroke-linecap:round; stroke-linejoin:round; stroke-width:4; stroke-opacity:1; fill:none" points="217.944,1486.45 217.944,1467.55 "/>
<polyline clip-path="url(#clip780)" style="stroke:#000000; stroke-linecap:round; stroke-linejoin:round; stroke-width:4; stroke-opacity:1; fill:none" points="736.102,1486.45 736.102,1467.55 "/>
<polyline clip-path="url(#clip780)" style="stroke:#000000; stroke-linecap:round; stroke-linejoin:round; stroke-width:4; stroke-opacity:1; fill:none" points="1254.26,1486.45 1254.26,1467.55 "/>
<polyline clip-path="url(#clip780)" style="stroke:#000000; stroke-linecap:round; stroke-linejoin:round; stroke-width:4; stroke-opacity:1; fill:none" points="1772.42,1486.45 1772.42,1467.55 "/>
<polyline clip-path="url(#clip780)" style="stroke:#000000; stroke-linecap:round; stroke-linejoin:round; stroke-width:4; stroke-opacity:1; fill:none" points="2290.58,1486.45 2290.58,1467.55 "/>
<path clip-path="url(#clip780)" d="M217.944 1517.37 Q214.333 1517.37 212.504 1520.93 Q210.699 1524.47 210.699 1531.6 Q210.699 1538.71 212.504 1542.27 Q214.333 1545.82 217.944 1545.82 Q221.578 1545.82 223.384 1542.27 Q225.212 1538.71 225.212 1531.6 Q225.212 1524.47 223.384 1520.93 Q221.578 1517.37 217.944 1517.37 M217.944 1513.66 Q223.754 1513.66 226.81 1518.27 Q229.888 1522.85 229.888 1531.6 Q229.888 1540.33 226.81 1544.94 Q223.754 1549.52 217.944 1549.52 Q212.134 1549.52 209.055 1544.94 Q206 1540.33 206 1531.6 Q206 1522.85 209.055 1518.27 Q212.134 1513.66 217.944 1513.66 Z" fill="#000000" fill-rule="nonzero" fill-opacity="1" /><path clip-path="url(#clip780)" d="M695.72 1514.29 L714.077 1514.29 L714.077 1518.22 L700.003 1518.22 L700.003 1526.7 Q701.021 1526.35 702.04 1526.19 Q703.058 1526 704.077 1526 Q709.864 1526 713.243 1529.17 Q716.623 1532.34 716.623 1537.76 Q716.623 1543.34 713.151 1546.44 Q709.679 1549.52 703.359 1549.52 Q701.183 1549.52 698.915 1549.15 Q696.669 1548.78 694.262 1548.04 L694.262 1543.34 Q696.345 1544.47 698.568 1545.03 Q700.79 1545.58 703.267 1545.58 Q707.271 1545.58 709.609 1543.48 Q711.947 1541.37 711.947 1537.76 Q711.947 1534.15 709.609 1532.04 Q707.271 1529.94 703.267 1529.94 Q701.392 1529.94 699.517 1530.35 Q697.665 1530.77 695.72 1531.65 L695.72 1514.29 Z" fill="#000000" fill-rule="nonzero" fill-opacity="1" /><path clip-path="url(#clip780)" d="M735.836 1517.37 Q732.225 1517.37 730.396 1520.93 Q728.591 1524.47 728.591 1531.6 Q728.591 1538.71 730.396 1542.27 Q732.225 1545.82 735.836 1545.82 Q739.47 1545.82 741.276 1542.27 Q743.104 1538.71 743.104 1531.6 Q743.104 1524.47 741.276 1520.93 Q739.47 1517.37 735.836 1517.37 M735.836 1513.66 Q741.646 1513.66 744.702 1518.27 Q747.78 1522.85 747.78 1531.6 Q747.78 1540.33 744.702 1544.94 Q741.646 1549.52 735.836 1549.52 Q730.026 1549.52 726.947 1544.94 Q723.892 1540.33 723.892 1531.6 Q723.892 1522.85 726.947 1518.27 Q730.026 1513.66 735.836 1513.66 Z" fill="#000000" fill-rule="nonzero" fill-opacity="1" /><path clip-path="url(#clip780)" d="M765.998 1517.37 Q762.387 1517.37 760.558 1520.93 Q758.752 1524.47 758.752 1531.6 Q758.752 1538.71 760.558 1542.27 Q762.387 1545.82 765.998 1545.82 Q769.632 1545.82 771.438 1542.27 Q773.266 1538.71 773.266 1531.6 Q773.266 1524.47 771.438 1520.93 Q769.632 1517.37 765.998 1517.37 M765.998 1513.66 Q771.808 1513.66 774.864 1518.27 Q777.942 1522.85 777.942 1531.6 Q777.942 1540.33 774.864 1544.94 Q771.808 1549.52 765.998 1549.52 Q760.188 1549.52 757.109 1544.94 Q754.053 1540.33 754.053 1531.6 Q754.053 1522.85 757.109 1518.27 Q760.188 1513.66 765.998 1513.66 Z" fill="#000000" fill-rule="nonzero" fill-opacity="1" /><path clip-path="url(#clip780)" d="M1198.79 1544.91 L1206.43 1544.91 L1206.43 1518.55 L1198.11 1520.21 L1198.11 1515.95 L1206.38 1514.29 L1211.05 1514.29 L1211.05 1544.91 L1218.69 1544.91 L1218.69 1548.85 L1198.79 1548.85 L1198.79 1544.91 Z" fill="#000000" fill-rule="nonzero" fill-opacity="1" /><path clip-path="url(#clip780)" d="M1238.14 1517.37 Q1234.53 1517.37 1232.7 1520.93 Q1230.89 1524.47 1230.89 1531.6 Q1230.89 1538.71 1232.7 1542.27 Q1234.53 1545.82 1238.14 1545.82 Q1241.77 1545.82 1243.58 1542.27 Q1245.41 1538.71 1245.41 1531.6 Q1245.41 1524.47 1243.58 1520.93 Q1241.77 1517.37 1238.14 1517.37 M1238.14 1513.66 Q1243.95 1513.66 1247 1518.27 Q1250.08 1522.85 1250.08 1531.6 Q1250.08 1540.33 1247 1544.94 Q1243.95 1549.52 1238.14 1549.52 Q1232.33 1549.52 1229.25 1544.94 Q1226.19 1540.33 1226.19 1531.6 Q1226.19 1522.85 1229.25 1518.27 Q1232.33 1513.66 1238.14 1513.66 Z" fill="#000000" fill-rule="nonzero" fill-opacity="1" /><path clip-path="url(#clip780)" d="M1268.3 1517.37 Q1264.69 1517.37 1262.86 1520.93 Q1261.05 1524.47 1261.05 1531.6 Q1261.05 1538.71 1262.86 1542.27 Q1264.69 1545.82 1268.3 1545.82 Q1271.93 1545.82 1273.74 1542.27 Q1275.57 1538.71 1275.57 1531.6 Q1275.57 1524.47 1273.74 1520.93 Q1271.93 1517.37 1268.3 1517.37 M1268.3 1513.66 Q1274.11 1513.66 1277.17 1518.27 Q1280.24 1522.85 1280.24 1531.6 Q1280.24 1540.33 1277.17 1544.94 Q1274.11 1549.52 1268.3 1549.52 Q1262.49 1549.52 1259.41 1544.94 Q1256.36 1540.33 1256.36 1531.6 Q1256.36 1522.85 1259.41 1518.27 Q1262.49 1513.66 1268.3 1513.66 Z" fill="#000000" fill-rule="nonzero" fill-opacity="1" /><path clip-path="url(#clip780)" d="M1298.46 1517.37 Q1294.85 1517.37 1293.02 1520.93 Q1291.22 1524.47 1291.22 1531.6 Q1291.22 1538.71 1293.02 1542.27 Q1294.85 1545.82 1298.46 1545.82 Q1302.1 1545.82 1303.9 1542.27 Q1305.73 1538.71 1305.73 1531.6 Q1305.73 1524.47 1303.9 1520.93 Q1302.1 1517.37 1298.46 1517.37 M1298.46 1513.66 Q1304.27 1513.66 1307.33 1518.27 Q1310.41 1522.85 1310.41 1531.6 Q1310.41 1540.33 1307.33 1544.94 Q1304.27 1549.52 1298.46 1549.52 Q1292.65 1549.52 1289.57 1544.94 Q1286.52 1540.33 1286.52 1531.6 Q1286.52 1522.85 1289.57 1518.27 Q1292.65 1513.66 1298.46 1513.66 Z" fill="#000000" fill-rule="nonzero" fill-opacity="1" /><path clip-path="url(#clip780)" d="M1716.94 1544.91 L1724.58 1544.91 L1724.58 1518.55 L1716.27 1520.21 L1716.27 1515.95 L1724.54 1514.29 L1729.21 1514.29 L1729.21 1544.91 L1736.85 1544.91 L1736.85 1548.85 L1716.94 1548.85 L1716.94 1544.91 Z" fill="#000000" fill-rule="nonzero" fill-opacity="1" /><path clip-path="url(#clip780)" d="M1746.34 1514.29 L1764.7 1514.29 L1764.7 1518.22 L1750.62 1518.22 L1750.62 1526.7 Q1751.64 1526.35 1752.66 1526.19 Q1753.68 1526 1754.7 1526 Q1760.49 1526 1763.87 1529.17 Q1767.25 1532.34 1767.25 1537.76 Q1767.25 1543.34 1763.77 1546.44 Q1760.3 1549.52 1753.98 1549.52 Q1751.81 1549.52 1749.54 1549.15 Q1747.29 1548.78 1744.88 1548.04 L1744.88 1543.34 Q1746.97 1544.47 1749.19 1545.03 Q1751.41 1545.58 1753.89 1545.58 Q1757.89 1545.58 1760.23 1543.48 Q1762.57 1541.37 1762.57 1537.76 Q1762.57 1534.15 1760.23 1532.04 Q1757.89 1529.94 1753.89 1529.94 Q1752.01 1529.94 1750.14 1530.35 Q1748.29 1530.77 1746.34 1531.65 L1746.34 1514.29 Z" fill="#000000" fill-rule="nonzero" fill-opacity="1" /><path clip-path="url(#clip780)" d="M1786.46 1517.37 Q1782.85 1517.37 1781.02 1520.93 Q1779.21 1524.47 1779.21 1531.6 Q1779.21 1538.71 1781.02 1542.27 Q1782.85 1545.82 1786.46 1545.82 Q1790.09 1545.82 1791.9 1542.27 Q1793.73 1538.71 1793.73 1531.6 Q1793.73 1524.47 1791.9 1520.93 Q1790.09 1517.37 1786.46 1517.37 M1786.46 1513.66 Q1792.27 1513.66 1795.32 1518.27 Q1798.4 1522.85 1798.4 1531.6 Q1798.4 1540.33 1795.32 1544.94 Q1792.27 1549.52 1786.46 1549.52 Q1780.65 1549.52 1777.57 1544.94 Q1774.51 1540.33 1774.51 1531.6 Q1774.51 1522.85 1777.57 1518.27 Q1780.65 1513.66 1786.46 1513.66 Z" fill="#000000" fill-rule="nonzero" fill-opacity="1" /><path clip-path="url(#clip780)" d="M1816.62 1517.37 Q1813.01 1517.37 1811.18 1520.93 Q1809.37 1524.47 1809.37 1531.6 Q1809.37 1538.71 1811.18 1542.27 Q1813.01 1545.82 1816.62 1545.82 Q1820.25 1545.82 1822.06 1542.27 Q1823.89 1538.71 1823.89 1531.6 Q1823.89 1524.47 1822.06 1520.93 Q1820.25 1517.37 1816.62 1517.37 M1816.62 1513.66 Q1822.43 1513.66 1825.49 1518.27 Q1828.56 1522.85 1828.56 1531.6 Q1828.56 1540.33 1825.49 1544.94 Q1822.43 1549.52 1816.62 1549.52 Q1810.81 1549.52 1807.73 1544.94 Q1804.68 1540.33 1804.68 1531.6 Q1804.68 1522.85 1807.73 1518.27 Q1810.81 1513.66 1816.62 1513.66 Z" fill="#000000" fill-rule="nonzero" fill-opacity="1" /><path clip-path="url(#clip780)" d="M2239.19 1544.91 L2255.51 1544.91 L2255.51 1548.85 L2233.56 1548.85 L2233.56 1544.91 Q2236.23 1542.16 2240.81 1537.53 Q2245.42 1532.88 2246.6 1531.53 Q2248.84 1529.01 2249.72 1527.27 Q2250.62 1525.51 2250.62 1523.82 Q2250.62 1521.07 2248.68 1519.33 Q2246.76 1517.6 2243.66 1517.6 Q2241.46 1517.6 2239 1518.36 Q2236.57 1519.13 2233.79 1520.68 L2233.79 1515.95 Q2236.62 1514.82 2239.07 1514.24 Q2241.53 1513.66 2243.56 1513.66 Q2248.93 1513.66 2252.13 1516.35 Q2255.32 1519.03 2255.32 1523.52 Q2255.32 1525.65 2254.51 1527.57 Q2253.73 1529.47 2251.62 1532.07 Q2251.04 1532.74 2247.94 1535.95 Q2244.84 1539.15 2239.19 1544.91 Z" fill="#000000" fill-rule="nonzero" fill-opacity="1" /><path clip-path="url(#clip780)" d="M2275.32 1517.37 Q2271.71 1517.37 2269.88 1520.93 Q2268.08 1524.47 2268.08 1531.6 Q2268.08 1538.71 2269.88 1542.27 Q2271.71 1545.82 2275.32 1545.82 Q2278.96 1545.82 2280.76 1542.27 Q2282.59 1538.71 2282.59 1531.6 Q2282.59 1524.47 2280.76 1520.93 Q2278.96 1517.37 2275.32 1517.37 M2275.32 1513.66 Q2281.13 1513.66 2284.19 1518.27 Q2287.27 1522.85 2287.27 1531.6 Q2287.27 1540.33 2284.19 1544.94 Q2281.13 1549.52 2275.32 1549.52 Q2269.51 1549.52 2266.43 1544.94 Q2263.38 1540.33 2263.38 1531.6 Q2263.38 1522.85 2266.43 1518.27 Q2269.51 1513.66 2275.32 1513.66 Z" fill="#000000" fill-rule="nonzero" fill-opacity="1" /><path clip-path="url(#clip780)" d="M2305.48 1517.37 Q2301.87 1517.37 2300.04 1520.93 Q2298.24 1524.47 2298.24 1531.6 Q2298.24 1538.71 2300.04 1542.27 Q2301.87 1545.82 2305.48 1545.82 Q2309.12 1545.82 2310.92 1542.27 Q2312.75 1538.71 2312.75 1531.6 Q2312.75 1524.47 2310.92 1520.93 Q2309.12 1517.37 2305.48 1517.37 M2305.48 1513.66 Q2311.29 1513.66 2314.35 1518.27 Q2317.43 1522.85 2317.43 1531.6 Q2317.43 1540.33 2314.35 1544.94 Q2311.29 1549.52 2305.48 1549.52 Q2299.67 1549.52 2296.6 1544.94 Q2293.54 1540.33 2293.54 1531.6 Q2293.54 1522.85 2296.6 1518.27 Q2299.67 1513.66 2305.48 1513.66 Z" fill="#000000" fill-rule="nonzero" fill-opacity="1" /><path clip-path="url(#clip780)" d="M2335.65 1517.37 Q2332.04 1517.37 2330.21 1520.93 Q2328.4 1524.47 2328.4 1531.6 Q2328.4 1538.71 2330.21 1542.27 Q2332.04 1545.82 2335.65 1545.82 Q2339.28 1545.82 2341.09 1542.27 Q2342.91 1538.71 2342.91 1531.6 Q2342.91 1524.47 2341.09 1520.93 Q2339.28 1517.37 2335.65 1517.37 M2335.65 1513.66 Q2341.46 1513.66 2344.51 1518.27 Q2347.59 1522.85 2347.59 1531.6 Q2347.59 1540.33 2344.51 1544.94 Q2341.46 1549.52 2335.65 1549.52 Q2329.84 1549.52 2326.76 1544.94 Q2323.7 1540.33 2323.7 1531.6 Q2323.7 1522.85 2326.76 1518.27 Q2329.84 1513.66 2335.65 1513.66 Z" fill="#000000" fill-rule="nonzero" fill-opacity="1" /><polyline clip-path="url(#clip782)" style="stroke:#000000; stroke-linecap:round; stroke-linejoin:round; stroke-width:2; stroke-opacity:0.1; fill:none" points="155.765,1396.16 2352.76,1396.16 "/>
<polyline clip-path="url(#clip782)" style="stroke:#000000; stroke-linecap:round; stroke-linejoin:round; stroke-width:2; stroke-opacity:0.1; fill:none" points="155.765,1158.09 2352.76,1158.09 "/>
<polyline clip-path="url(#clip782)" style="stroke:#000000; stroke-linecap:round; stroke-linejoin:round; stroke-width:2; stroke-opacity:0.1; fill:none" points="155.765,920.024 2352.76,920.024 "/>
<polyline clip-path="url(#clip782)" style="stroke:#000000; stroke-linecap:round; stroke-linejoin:round; stroke-width:2; stroke-opacity:0.1; fill:none" points="155.765,681.957 2352.76,681.957 "/>
<polyline clip-path="url(#clip782)" style="stroke:#000000; stroke-linecap:round; stroke-linejoin:round; stroke-width:2; stroke-opacity:0.1; fill:none" points="155.765,443.891 2352.76,443.891 "/>
<polyline clip-path="url(#clip782)" style="stroke:#000000; stroke-linecap:round; stroke-linejoin:round; stroke-width:2; stroke-opacity:0.1; fill:none" points="155.765,205.824 2352.76,205.824 "/>
<polyline clip-path="url(#clip780)" style="stroke:#000000; stroke-linecap:round; stroke-linejoin:round; stroke-width:4; stroke-opacity:1; fill:none" points="155.765,1486.45 155.765,47.2441 "/>
<polyline clip-path="url(#clip780)" style="stroke:#000000; stroke-linecap:round; stroke-linejoin:round; stroke-width:4; stroke-opacity:1; fill:none" points="155.765,1396.16 174.663,1396.16 "/>
<polyline clip-path="url(#clip780)" style="stroke:#000000; stroke-linecap:round; stroke-linejoin:round; stroke-width:4; stroke-opacity:1; fill:none" points="155.765,1158.09 174.663,1158.09 "/>
<polyline clip-path="url(#clip780)" style="stroke:#000000; stroke-linecap:round; stroke-linejoin:round; stroke-width:4; stroke-opacity:1; fill:none" points="155.765,920.024 174.663,920.024 "/>
<polyline clip-path="url(#clip780)" style="stroke:#000000; stroke-linecap:round; stroke-linejoin:round; stroke-width:4; stroke-opacity:1; fill:none" points="155.765,681.957 174.663,681.957 "/>
<polyline clip-path="url(#clip780)" style="stroke:#000000; stroke-linecap:round; stroke-linejoin:round; stroke-width:4; stroke-opacity:1; fill:none" points="155.765,443.891 174.663,443.891 "/>
<polyline clip-path="url(#clip780)" style="stroke:#000000; stroke-linecap:round; stroke-linejoin:round; stroke-width:4; stroke-opacity:1; fill:none" points="155.765,205.824 174.663,205.824 "/>
<path clip-path="url(#clip780)" d="M53.3995 1409.5 L61.0384 1409.5 L61.0384 1383.14 L52.7282 1384.8 L52.7282 1380.54 L60.9921 1378.88 L65.668 1378.88 L65.668 1409.5 L73.3068 1409.5 L73.3068 1413.44 L53.3995 1413.44 L53.3995 1409.5 Z" fill="#000000" fill-rule="nonzero" fill-opacity="1" /><path clip-path="url(#clip780)" d="M82.7512 1407.56 L87.6354 1407.56 L87.6354 1413.44 L82.7512 1413.44 L82.7512 1407.56 Z" fill="#000000" fill-rule="nonzero" fill-opacity="1" /><path clip-path="url(#clip780)" d="M107.821 1381.96 Q104.209 1381.96 102.381 1385.52 Q100.575 1389.06 100.575 1396.19 Q100.575 1403.3 102.381 1406.86 Q104.209 1410.41 107.821 1410.41 Q111.455 1410.41 113.26 1406.86 Q115.089 1403.3 115.089 1396.19 Q115.089 1389.06 113.26 1385.52 Q111.455 1381.96 107.821 1381.96 M107.821 1378.25 Q113.631 1378.25 116.686 1382.86 Q119.765 1387.44 119.765 1396.19 Q119.765 1404.92 116.686 1409.53 Q113.631 1414.11 107.821 1414.11 Q102.01 1414.11 98.9317 1409.53 Q95.8761 1404.92 95.8761 1396.19 Q95.8761 1387.44 98.9317 1382.86 Q102.01 1378.25 107.821 1378.25 Z" fill="#000000" fill-rule="nonzero" fill-opacity="1" /><path clip-path="url(#clip780)" d="M54.3949 1171.44 L62.0337 1171.44 L62.0337 1145.07 L53.7236 1146.74 L53.7236 1142.48 L61.9874 1140.81 L66.6633 1140.81 L66.6633 1171.44 L74.3022 1171.44 L74.3022 1175.37 L54.3949 1175.37 L54.3949 1171.44 Z" fill="#000000" fill-rule="nonzero" fill-opacity="1" /><path clip-path="url(#clip780)" d="M83.7466 1169.49 L88.6308 1169.49 L88.6308 1175.37 L83.7466 1175.37 L83.7466 1169.49 Z" fill="#000000" fill-rule="nonzero" fill-opacity="1" /><path clip-path="url(#clip780)" d="M98.8622 1140.81 L117.219 1140.81 L117.219 1144.75 L103.145 1144.75 L103.145 1153.22 Q104.163 1152.87 105.182 1152.71 Q106.2 1152.52 107.219 1152.52 Q113.006 1152.52 116.385 1155.69 Q119.765 1158.87 119.765 1164.28 Q119.765 1169.86 116.293 1172.96 Q112.82 1176.04 106.501 1176.04 Q104.325 1176.04 102.057 1175.67 Q99.8113 1175.3 97.4039 1174.56 L97.4039 1169.86 Q99.4872 1171 101.709 1171.55 Q103.932 1172.11 106.408 1172.11 Q110.413 1172.11 112.751 1170 Q115.089 1167.89 115.089 1164.28 Q115.089 1160.67 112.751 1158.57 Q110.413 1156.46 106.408 1156.46 Q104.534 1156.46 102.659 1156.88 Q100.807 1157.29 98.8622 1158.17 L98.8622 1140.81 Z" fill="#000000" fill-rule="nonzero" fill-opacity="1" /><path clip-path="url(#clip780)" d="M56.6171 933.369 L72.9365 933.369 L72.9365 937.304 L50.9921 937.304 L50.9921 933.369 Q53.6541 930.614 58.2375 925.985 Q62.8439 921.332 64.0245 919.989 Q66.2698 917.466 67.1494 915.73 Q68.0522 913.971 68.0522 912.281 Q68.0522 909.526 66.1078 907.79 Q64.1865 906.054 61.0847 906.054 Q58.8856 906.054 56.4319 906.818 Q54.0014 907.582 51.2236 909.133 L51.2236 904.411 Q54.0477 903.276 56.5014 902.698 Q58.955 902.119 60.9921 902.119 Q66.3624 902.119 69.5568 904.804 Q72.7513 907.489 72.7513 911.98 Q72.7513 914.11 71.9411 916.031 Q71.1541 917.929 69.0476 920.522 Q68.4689 921.193 65.367 924.411 Q62.2652 927.605 56.6171 933.369 Z" fill="#000000" fill-rule="nonzero" fill-opacity="1" /><path clip-path="url(#clip780)" d="M82.7512 931.424 L87.6354 931.424 L87.6354 937.304 L82.7512 937.304 L82.7512 931.424 Z" fill="#000000" fill-rule="nonzero" fill-opacity="1" /><path clip-path="url(#clip780)" d="M107.821 905.823 Q104.209 905.823 102.381 909.388 Q100.575 912.929 100.575 920.059 Q100.575 927.165 102.381 930.73 Q104.209 934.272 107.821 934.272 Q111.455 934.272 113.26 930.73 Q115.089 927.165 115.089 920.059 Q115.089 912.929 113.26 909.388 Q111.455 905.823 107.821 905.823 M107.821 902.119 Q113.631 902.119 116.686 906.726 Q119.765 911.309 119.765 920.059 Q119.765 928.786 116.686 933.392 Q113.631 937.975 107.821 937.975 Q102.01 937.975 98.9317 933.392 Q95.8761 928.786 95.8761 920.059 Q95.8761 911.309 98.9317 906.726 Q102.01 902.119 107.821 902.119 Z" fill="#000000" fill-rule="nonzero" fill-opacity="1" /><path clip-path="url(#clip780)" d="M57.6125 695.302 L73.9318 695.302 L73.9318 699.237 L51.9875 699.237 L51.9875 695.302 Q54.6495 692.548 59.2328 687.918 Q63.8393 683.265 65.0198 681.923 Q67.2652 679.4 68.1448 677.663 Q69.0476 675.904 69.0476 674.214 Q69.0476 671.46 67.1032 669.724 Q65.1819 667.988 62.08 667.988 Q59.881 667.988 57.4273 668.751 Q54.9967 669.515 52.219 671.066 L52.219 666.344 Q55.043 665.21 57.4967 664.631 Q59.9504 664.052 61.9874 664.052 Q67.3578 664.052 70.5522 666.738 Q73.7466 669.423 73.7466 673.913 Q73.7466 676.043 72.9365 677.964 Q72.1494 679.862 70.0429 682.455 Q69.4642 683.126 66.3624 686.344 Q63.2606 689.538 57.6125 695.302 Z" fill="#000000" fill-rule="nonzero" fill-opacity="1" /><path clip-path="url(#clip780)" d="M83.7466 693.358 L88.6308 693.358 L88.6308 699.237 L83.7466 699.237 L83.7466 693.358 Z" fill="#000000" fill-rule="nonzero" fill-opacity="1" /><path clip-path="url(#clip780)" d="M98.8622 664.677 L117.219 664.677 L117.219 668.613 L103.145 668.613 L103.145 677.085 Q104.163 676.738 105.182 676.575 Q106.2 676.39 107.219 676.39 Q113.006 676.39 116.385 679.562 Q119.765 682.733 119.765 688.149 Q119.765 693.728 116.293 696.83 Q112.82 699.909 106.501 699.909 Q104.325 699.909 102.057 699.538 Q99.8113 699.168 97.4039 698.427 L97.4039 693.728 Q99.4872 694.862 101.709 695.418 Q103.932 695.974 106.408 695.974 Q110.413 695.974 112.751 693.867 Q115.089 691.761 115.089 688.149 Q115.089 684.538 112.751 682.432 Q110.413 680.325 106.408 680.325 Q104.534 680.325 102.659 680.742 Q100.807 681.159 98.8622 682.038 L98.8622 664.677 Z" fill="#000000" fill-rule="nonzero" fill-opacity="1" /><path clip-path="url(#clip780)" d="M66.7559 442.537 Q70.1124 443.254 71.9874 445.523 Q73.8855 447.791 73.8855 451.124 Q73.8855 456.24 70.367 459.041 Q66.8485 461.842 60.3671 461.842 Q58.1912 461.842 55.8764 461.402 Q53.5847 460.986 51.131 460.129 L51.131 455.615 Q53.0754 456.749 55.3903 457.328 Q57.7051 457.907 60.2282 457.907 Q64.6263 457.907 66.918 456.171 Q69.2328 454.435 69.2328 451.124 Q69.2328 448.069 67.08 446.356 Q64.9504 444.62 61.131 444.62 L57.1032 444.62 L57.1032 440.777 L61.3161 440.777 Q64.7652 440.777 66.5939 439.412 Q68.4226 438.023 68.4226 435.43 Q68.4226 432.768 66.5245 431.356 Q64.6495 429.921 61.131 429.921 Q59.2097 429.921 57.0106 430.338 Q54.8115 430.754 52.1727 431.634 L52.1727 427.467 Q54.8347 426.726 57.1495 426.356 Q59.4875 425.986 61.5476 425.986 Q66.8717 425.986 69.9735 428.416 Q73.0753 430.824 73.0753 434.944 Q73.0753 437.814 71.4318 439.805 Q69.7883 441.773 66.7559 442.537 Z" fill="#000000" fill-rule="nonzero" fill-opacity="1" /><path clip-path="url(#clip780)" d="M82.7512 455.291 L87.6354 455.291 L87.6354 461.171 L82.7512 461.171 L82.7512 455.291 Z" fill="#000000" fill-rule="nonzero" fill-opacity="1" /><path clip-path="url(#clip780)" d="M107.821 429.689 Q104.209 429.689 102.381 433.254 Q100.575 436.796 100.575 443.925 Q100.575 451.032 102.381 454.597 Q104.209 458.138 107.821 458.138 Q111.455 458.138 113.26 454.597 Q115.089 451.032 115.089 443.925 Q115.089 436.796 113.26 433.254 Q111.455 429.689 107.821 429.689 M107.821 425.986 Q113.631 425.986 116.686 430.592 Q119.765 435.175 119.765 443.925 Q119.765 452.652 116.686 457.259 Q113.631 461.842 107.821 461.842 Q102.01 461.842 98.9317 457.259 Q95.8761 452.652 95.8761 443.925 Q95.8761 435.175 98.9317 430.592 Q102.01 425.986 107.821 425.986 Z" fill="#000000" fill-rule="nonzero" fill-opacity="1" /><path clip-path="url(#clip780)" d="M67.7513 204.47 Q71.1078 205.187 72.9827 207.456 Q74.8809 209.724 74.8809 213.058 Q74.8809 218.174 71.3624 220.974 Q67.8439 223.775 61.3624 223.775 Q59.1865 223.775 56.8717 223.336 Q54.5801 222.919 52.1264 222.062 L52.1264 217.549 Q54.0708 218.683 56.3856 219.261 Q58.7004 219.84 61.2236 219.84 Q65.6217 219.84 67.9133 218.104 Q70.2281 216.368 70.2281 213.058 Q70.2281 210.002 68.0754 208.289 Q65.9457 206.553 62.1263 206.553 L58.0986 206.553 L58.0986 202.711 L62.3115 202.711 Q65.7606 202.711 67.5893 201.345 Q69.418 199.956 69.418 197.363 Q69.418 194.701 67.5198 193.289 Q65.6448 191.854 62.1263 191.854 Q60.205 191.854 58.006 192.271 Q55.8069 192.688 53.168 193.567 L53.168 189.401 Q55.8301 188.66 58.1449 188.289 Q60.4828 187.919 62.543 187.919 Q67.867 187.919 70.9689 190.35 Q74.0707 192.757 74.0707 196.877 Q74.0707 199.748 72.4272 201.738 Q70.7837 203.706 67.7513 204.47 Z" fill="#000000" fill-rule="nonzero" fill-opacity="1" /><path clip-path="url(#clip780)" d="M83.7466 217.224 L88.6308 217.224 L88.6308 223.104 L83.7466 223.104 L83.7466 217.224 Z" fill="#000000" fill-rule="nonzero" fill-opacity="1" /><path clip-path="url(#clip780)" d="M98.8622 188.544 L117.219 188.544 L117.219 192.479 L103.145 192.479 L103.145 200.951 Q104.163 200.604 105.182 200.442 Q106.2 200.257 107.219 200.257 Q113.006 200.257 116.385 203.428 Q119.765 206.6 119.765 212.016 Q119.765 217.595 116.293 220.697 Q112.82 223.775 106.501 223.775 Q104.325 223.775 102.057 223.405 Q99.8113 223.035 97.4039 222.294 L97.4039 217.595 Q99.4872 218.729 101.709 219.285 Q103.932 219.84 106.408 219.84 Q110.413 219.84 112.751 217.734 Q115.089 215.627 115.089 212.016 Q115.089 208.405 112.751 206.299 Q110.413 204.192 106.408 204.192 Q104.534 204.192 102.659 204.609 Q100.807 205.025 98.8622 205.905 L98.8622 188.544 Z" fill="#000000" fill-rule="nonzero" fill-opacity="1" /><polyline clip-path="url(#clip782)" style="stroke:#009af9; stroke-linecap:round; stroke-linejoin:round; stroke-width:4; stroke-opacity:1; fill:none" points="217.944,952.677 218.98,959.194 220.017,652.013 221.053,675.096 222.089,905.359 223.125,911.449 224.162,1444.2 225.198,1445.72 226.234,1383.52 227.271,1385.82 228.307,1362.79 229.343,1364.76 230.38,1080.72 231.416,1084.25 232.452,552.011 233.489,562.13 234.525,1003.47 235.561,1008.35 236.598,848.298 237.634,854.663 238.67,383.912 239.707,404.084 240.743,87.9763 241.779,98.0957 242.815,939.109 243.852,945.231 244.888,1055.69 245.924,1060.37 246.961,810.447 247.997,820.261 249.033,1106.74 250.07,1112.27 251.106,961.984 252.142,967.435 253.179,531.668 254.215,539.315 255.251,878.524 256.288,882.564 257.324,446.776 258.36,455.341 259.397,1413.86 260.433,1415.31 261.469,1241.28 262.506,1245.35 263.542,852.289 264.578,856.446 265.614,1347.16 266.651,1349.03 267.687,792.957 268.723,801.62 269.76,360.67 270.796,372.489 271.832,1195.64 272.869,1198.49 273.905,756.083 274.941,760.96 275.978,918.31 277.014,922.36 278.05,715.063 279.087,720.444 280.123,1165.76 281.159,1170.06 282.196,712.918 283.232,718.65 284.268,1118.07 285.304,1122.28 286.341,932.849 287.377,935.089 288.413,941.834 289.45,945.628 290.486,789.547 291.522,792.778 292.559,1018.97 293.595,1021.81 294.631,262.026 295.668,275.787 296.704,134.183 297.74,145.161 298.777,1072.21 299.813,1077.42 300.849,1050.25 301.886,1052.07 302.922,913.977 303.958,916.441 304.994,370.638 306.031,381.006 307.067,974.577 308.103,976.656 309.14,923.486 310.176,925.765 311.212,858.792 312.249,862.015 313.285,1047.33 314.321,1049.74 315.358,543.327 316.394,549.537 317.43,533.884 318.467,541.208 319.503,955.482 320.539,966.053 321.576,709.275 322.612,712.926 323.648,835.411 324.684,837.808 325.721,689.373 326.757,692.709 327.793,790.639 328.83,792.633 329.866,785.287 330.902,787.395 331.939,862.842 332.975,864.262 334.011,993.757 335.048,996.923 336.084,557.8 337.12,561.5 338.157,498.985 339.193,503.427 340.229,886.591 341.266,888.523 342.302,782.535 343.338,784.417 344.375,328.558 345.411,336.693 346.447,792.576 347.483,795.024 348.52,1059.94 349.556,1061.13 350.592,478.182 351.629,483.844 352.665,752.463 353.701,755.129 354.738,608.591 355.774,611.333 356.81,1081.1 357.847,1084.48 358.883,843.678 359.919,844.951 360.956,959.107 361.992,961.122 363.028,627.58 364.065,631.436 365.101,1002.04 366.137,1003.65 367.173,974.044 368.21,975.487 369.246,789.057 370.282,790.344 371.319,544.474 372.355,549.33 373.391,477.822 374.428,481.838 375.464,848.058 376.5,849.282 377.537,818.127 378.573,821.625 379.609,488.549 380.646,494.202 381.682,666.875 382.718,670.558 383.755,581.013 384.791,584.925 385.827,863.185 386.863,864.161 387.9,738.067 388.936,739.148 389.972,684.216 391.009,685.576 392.045,606.478 393.081,609.306 394.118,896.794 395.154,898.815 396.19,700.717 397.227,702.19 398.263,793.23 399.299,797.297 400.336,552.606 401.372,555.841 402.408,1022.4 403.445,1023.17 404.481,388.323 405.517,395.999 406.554,808.801 407.59,809.86 408.626,448.875 409.662,456.409 410.699,599.161 411.735,601.67 412.771,598.825 413.808,599.873 414.844,684.675 415.88,686.596 416.917,769.312 417.953,770.375 418.989,591.019 420.026,593.21 421.062,310.043 422.098,317.375 423.135,660.376 424.171,662.696 425.207,331.483 426.244,338.296 427.28,537.453 428.316,538.946 429.352,209.351 430.389,218.64 431.425,524.371 432.461,527.309 433.498,480.17 434.534,484.039 435.57,568.919 436.607,571.934 437.643,744.257 438.679,745.084 439.716,676.334 440.752,677.738 441.788,575.931 442.825,577.409 443.861,792.796 444.897,794.928 445.934,445.582 446.97,448.573 448.006,762.906 449.042,764.113 450.079,677.851 451.115,678.777 452.151,486.268 453.188,488.924 454.224,696.997 455.26,698.108 456.297,644.186 457.333,645.332 458.369,416.504 459.406,419.563 460.442,610.665 461.478,613.234 462.515,614.647 463.551,616.642 464.587,478.684 465.624,480.65 466.66,528.837 467.696,530.507 468.732,729.606 469.769,732.774 470.805,631.108 471.841,632.14 472.878,712.838 473.914,713.813 474.95,608.618 475.987,609.238 477.023,637.238 478.059,639.985 479.096,617.402 480.132,619.846 481.168,715.375 482.205,716.095 483.241,304.325 484.277,309.745 485.314,484.429 486.35,486.709 487.386,718.27 488.423,720.738 489.459,508.508 490.495,509.491 491.531,139.817 492.568,148.087 493.604,613.234 494.64,614.687 495.677,284.963 496.713,295.661 497.749,377.582 498.786,381.914 499.822,290.185 500.858,295.322 501.895,548.204 502.931,548.982 503.967,500.297 505.004,500.979 506.04,678.564 507.076,679.504 508.113,200.258 509.149,207.527 510.185,436.98 511.221,438.834 512.258,266.332 513.294,270.763 514.33,438.59 515.367,439.963 516.403,438.659 517.439,439.814 518.476,431.378 519.512,432.075 520.548,328.895 521.585,331.711 522.621,229.526 523.657,231.935 524.694,362.914 525.73,366.292 526.766,447.051 527.803,448.031 528.839,455.34 529.875,456.91 530.911,354.609 531.948,360.805 532.984,668.936 534.02,670.711 535.057,336.09 536.093,340.029 537.129,397.266 538.166,399.951 539.202,290.152 540.238,292.515 541.275,427.892 542.311,430.587 543.347,387.498 544.384,389.324 545.42,408.466 546.456,410.321 547.493,493.52 548.529,495.859 549.565,462.216 550.601,462.72 551.638,276.84 552.674,278.9 553.71,296.685 554.747,297.532 555.783,216.019 556.819,219.589 557.856,410.166 558.892,412.331 559.928,360.528 560.965,361.116 562.001,336.814 563.037,339.076 564.074,525.681 565.11,529.354 566.146,510.834 567.183,512.625 568.219,240.296 569.255,242.513 570.292,497.477 571.328,502.096 572.364,334.805 573.4,336.722 574.437,326.758 575.473,330.054 576.509,404.031 577.546,408.015 578.582,423.201 579.618,423.702 580.655,339.995 581.691,343.924 582.727,256.506 583.764,259.149 584.8,469.492 585.836,472.142 586.873,245.271 587.909,246.084 588.945,206.717 589.982,220.11 591.018,154.7 592.054,159.807 593.09,274.666 594.127,275.654 595.163,403.767 596.199,406.009 597.236,499.4 598.272,501.41 599.308,325.63 600.345,327.226 601.381,284.963 602.417,287.539 603.454,421.396 604.49,424.492 605.526,349.891 606.563,351.32 607.599,346.098 608.635,347.891 609.672,357.659 610.708,359.241 611.744,305.657 612.78,310.63 613.817,294.523 614.853,296.046 615.889,425.664 616.926,426.874 617.962,351.057 618.998,364.442 620.035,235.482 621.071,237.719 622.107,362.012 623.144,367.338 624.18,524.15 625.216,526.261 626.253,463.976 627.289,466.446 628.325,250.434 629.362,255.171 630.398,400.059 631.434,401.445 632.47,280.972 633.507,284.622 634.543,412.739 635.579,419.383 636.616,373.868 637.652,374.534 638.688,382.125 639.725,382.824 640.761,255.266 641.797,258.288 642.834,241.193 643.87,242.86 644.906,393.429 645.943,393.901 646.979,315.176 648.015,316.776 649.052,444.615 650.088,449.01 651.124,347.461 652.161,349.588 653.197,424.06 654.233,424.39 655.269,183.622 656.306,186.93 657.342,300.766 658.378,306.11 659.415,380.248 660.451,381.4 661.487,241.031 662.524,242.388 663.56,221.197 664.596,223.829 665.633,321.721 666.669,322.692 667.705,292.655 668.742,294.044 669.778,420.724 670.814,421.273 671.851,273.676 672.887,274.108 673.923,227.53 674.959,231.247 675.996,363.298 677.032,366.229 678.068,260.917 679.105,262.639 680.141,312.15 681.177,314.081 682.214,359.531 683.25,361.7 684.286,359.879 685.323,362.013 686.359,301.255 687.395,301.738 688.432,339.276 689.468,343.747 690.504,404.622 691.541,407.366 692.577,374.227 693.613,375.05 694.649,357.338 695.686,361.409 696.722,335.137 697.758,335.493 698.795,333.963 699.831,335.07 700.867,520.133 701.904,524.491 702.94,313.889 703.976,315.632 705.013,411.422 706.049,412.696 707.085,407.049 708.122,408.001 709.158,418.818 710.194,419.345 711.231,368.867 712.267,370.27 713.303,446.353 714.34,447.547 715.376,361.884 716.412,363.53 717.448,345.384 718.485,346.137 719.521,389.582 720.557,390.983 721.594,358.721 722.63,360.446 723.666,300.296 724.703,304.846 725.739,398.388 726.775,402.115 727.812,317.882 728.848,323.04 729.884,506.454 730.921,507.818 731.957,376.695 732.993,380.296 734.03,339.857 735.066,344.211 736.102,455.168 737.138,455.737 738.175,337.344 739.211,342.093 740.247,346.315 741.284,348.158 742.32,342.796 743.356,345.952 744.393,304.066 745.429,305.128 746.465,403.888 747.502,408.109 748.538,306.783 749.574,309.111 750.611,380.486 751.647,382.411 752.683,262.145 753.72,263.591 754.756,344.498 755.792,347.169 756.828,298.572 757.865,299.823 758.901,258.884 759.937,261.763 760.974,343.659 762.01,347.697 763.046,439.267 764.083,441.829 765.119,350.849 766.155,352.029 767.192,395.78 768.228,396.576 769.264,249.464 770.301,254.171 771.337,359.782 772.373,361.476 773.41,367.278 774.446,367.408 775.482,312.575 776.518,313.393 777.555,257.886 778.591,258.414 779.627,272.795 780.664,273.823 781.7,385.103 782.736,386.509 783.773,270.226 784.809,271.419 785.845,393.74 786.882,393.867 787.918,371.124 788.954,372.242 789.991,306.121 791.027,306.343 792.063,322.424 793.1,324.549 794.136,401.207 795.172,403.697 796.209,347.208 797.245,347.788 798.281,288.809 799.317,293.959 800.354,311.765 801.39,312.603 802.426,347.048 803.463,350.061 804.499,425.401 805.535,426.834 806.572,362.841 807.608,364.445 808.644,354.233 809.681,354.751 810.717,309.687 811.753,311.928 812.79,268.08 813.826,269.343 814.862,369.387 815.899,371.73 816.935,426.146 817.971,428.161 819.007,314.708 820.044,315.08 821.08,342.121 822.116,342.257 823.153,457.494 824.189,460.049 825.225,290.139 826.262,291.174 827.298,313.152 828.334,318.73 829.371,309.871 830.407,313.469 831.443,336.909 832.48,339.64 833.516,355.128 834.552,355.868 835.589,435.535 836.625,437.799 837.661,298.76 838.697,303.883 839.734,421.642 840.77,421.977 841.806,255.843 842.843,260.55 843.879,384.962 844.915,385.164 845.952,278.225 846.988,281.675 848.024,443.884 849.061,446.041 850.097,376.456 851.133,377.681 852.17,355.119 853.206,355.536 854.242,356.486 855.279,357.1 856.315,277.917 857.351,279.29 858.387,342.069 859.424,345.556 860.46,458.782 861.496,459.574 862.533,394.647 863.569,400.684 864.605,457.623 865.642,458.082 866.678,373.144 867.714,376.089 868.751,345.135 869.787,348.033 870.823,370.859 871.86,373.676 872.896,345.219 873.932,345.415 874.969,315.388 876.005,316.964 877.041,321.152 878.078,321.633 879.114,394.711 880.15,395.546 881.186,292.01 882.223,297.688 883.259,271.075 884.295,279.893 885.332,356.952 886.368,357.791 887.404,289.566 888.441,289.931 889.477,281.94 890.513,284.145 891.55,336.113 892.586,336.961 893.622,324.22 894.659,324.414 895.695,354.473 896.731,356.255 897.768,366.006 898.804,368.045 899.84,389.629 900.876,390.13 901.913,339.053 902.949,339.39 903.985,431.161 905.022,431.861 906.058,332.701 907.094,332.867 908.131,346.616 909.167,348.168 910.203,356.504 911.24,357.448 912.276,407.232 913.312,409.794 914.349,298.199 915.385,298.4 916.421,331.121 917.458,332.041 918.494,332.366 919.53,333.227 920.566,337.396 921.603,338.164 922.639,319.633 923.675,321.121 924.712,367.128 925.748,367.849 926.784,244.294 927.821,247.363 928.857,350.178 929.893,350.364 930.93,297.837 931.966,298.264 933.002,291.46 934.039,295.455 935.075,425.606 936.111,426.994 937.148,312.121 938.184,312.894 939.22,329.501 940.257,333.822 941.293,300.171 942.329,302.434 943.365,292.553 944.402,292.979 945.438,323.322 946.474,324.005 947.511,278.23 948.547,280.196 949.583,297.588 950.62,299.247 951.656,311.783 952.692,313.081 953.729,341.534 954.765,345.389 955.801,268.945 956.838,272.327 957.874,358.356 958.91,362.584 959.947,331.114 960.983,333.299 962.019,393.727 963.055,394.208 964.092,315.36 965.128,316.471 966.164,373.614 967.201,376.61 968.237,456.706 969.273,456.904 970.31,323.275 971.346,324.781 972.382,415.246 973.419,417.994 974.455,352.587 975.491,354.557 976.528,313.646 977.564,314.011 978.6,326.64 979.637,327.477 980.673,383.947 981.709,392.194 982.745,343.102 983.782,345.524 984.818,304.531 985.854,309.875 986.891,371.084 987.927,371.863 988.963,396.738 990,398.682 991.036,369.633 992.072,372.76 993.109,427.825 994.145,428.528 995.181,355.733 996.218,359.361 997.254,328.951 998.29,329.33 999.327,396.616 1000.36,396.919 1001.4,274.878 1002.44,284.916 1003.47,332.638 1004.51,333.363 1005.54,374.192 1006.58,375.953 1007.62,289.081 1008.65,292.194 1009.69,317.23 1010.73,323.432 1011.76,347.454 1012.8,348.084 1013.83,315.645 1014.87,317.742 1015.91,392.23 1016.94,392.688 1017.98,327.205 1019.02,328.496 1020.05,380.395 1021.09,383.008 1022.13,334.795 1023.16,335.533 1024.2,290.539 1025.23,292.899 1026.27,395.537 1027.31,395.883 1028.34,281.404 1029.38,282.22 1030.42,399.554 1031.45,400.311 1032.49,283.675 1033.52,284.56 1034.56,360.26 1035.6,360.395 1036.63,320.521 1037.67,322.165 1038.71,304.293 1039.74,305.34 1040.78,383.157 1041.82,384.921 1042.85,342.177 1043.89,343.294 1044.92,341.901 1045.96,343.225 1047,306.331 1048.03,307.281 1049.07,358.073 1050.11,358.545 1051.14,337.558 1052.18,340.208 1053.22,342.552 1054.25,345.117 1055.29,391.03 1056.32,392.117 1057.36,328.05 1058.4,328.573 1059.43,431.27 1060.47,435.666 1061.51,389.007 1062.54,391.975 1063.58,335.053 1064.61,336.403 1065.65,369.728 1066.69,370.361 1067.72,308.322 1068.76,309.764 1069.8,411.519 1070.83,414.058 1071.87,339.566 1072.91,339.82 1073.94,369.938 1074.98,372.397 1076.01,274.811 1077.05,284.393 1078.09,387.824 1079.12,388.888 1080.16,346.602 1081.2,347.85 1082.23,291.314 1083.27,291.583 1084.3,296.287 1085.34,298.3 1086.38,358.067 1087.41,358.189 1088.45,398.708 1089.49,399.17 1090.52,378.086 1091.56,380.65 1092.6,381.556 1093.63,383.758 1094.67,370.137 1095.7,370.914 1096.74,286.934 1097.78,288.297 1098.81,286.836 1099.85,289.121 1100.89,297.284 1101.92,297.373 1102.96,357.909 1103.99,359.088 1105.03,398.074 1106.07,398.563 1107.1,315.15 1108.14,322.329 1109.18,372.246 1110.21,372.988 1111.25,306.346 1112.29,309.349 1113.32,366.466 1114.36,369.541 1115.39,331.852 1116.43,332.558 1117.47,331.121 1118.5,332.451 1119.54,295.539 1120.58,296.112 1121.61,337.464 1122.65,340.959 1123.68,309.136 1124.72,311.117 1125.76,420.253 1126.79,425.136 1127.83,384.943 1128.87,387.115 1129.9,371.416 1130.94,372.904 1131.98,349.355 1133.01,351.298 1134.05,389.261 1135.08,391.285 1136.12,336.332 1137.16,336.528 1138.19,438.904 1139.23,439.772 1140.27,335.643 1141.3,336.282 1142.34,329.254 1143.37,330.362 1144.41,345.175 1145.45,347.365 1146.48,358.592 1147.52,360.751 1148.56,373.32 1149.59,376.598 1150.63,354.283 1151.67,356.143 1152.7,350.54 1153.74,351.751 1154.77,301.172 1155.81,301.592 1156.85,326.286 1157.88,329.39 1158.92,275.644 1159.96,278.882 1160.99,337.165 1162.03,338.177 1163.06,349.412 1164.1,350.076 1165.14,315.492 1166.17,318 1167.21,407.459 1168.25,408.522 1169.28,380.294 1170.32,382.063 1171.36,352.221 1172.39,352.446 1173.43,332.161 1174.46,334.282 1175.5,322.622 1176.54,323.408 1177.57,351.184 1178.61,353.15 1179.65,266.437 1180.68,270.965 1181.72,465.621 1182.75,468.386 1183.79,329.444 1184.83,332.181 1185.86,364.791 1186.9,366.971 1187.94,378.021 1188.97,378.739 1190.01,346.777 1191.05,348.978 1192.08,295.62 1193.12,296.409 1194.15,337.054 1195.19,338.343 1196.23,336.916 1197.26,339.371 1198.3,333.395 1199.34,333.618 1200.37,289.491 1201.41,291.551 1202.44,365.787 1203.48,365.967 1204.52,375.651 1205.55,376.745 1206.59,279.946 1207.63,283.426 1208.66,315.16 1209.7,316.685 1210.74,359.427 1211.77,361.68 1212.81,300.508 1213.84,300.704 1214.88,334.836 1215.92,336.308 1216.95,336.299 1217.99,339.221 1219.03,341.378 1220.06,341.419 1221.1,324.709 1222.13,326.098 1223.17,317.881 1224.21,323.555 1225.24,374.959 1226.28,375.95 1227.32,452.239 1228.35,453.045 1229.39,351.106 1230.43,351.358 1231.46,372.46 1232.5,374.158 1233.53,345.089 1234.57,345.841 1235.61,366.96 1236.64,368.154 1237.68,363.104 1238.72,363.963 1239.75,322.787 1240.79,323.131 1241.82,291.028 1242.86,291.921 1243.9,330.993 1244.93,332.556 1245.97,378.774 1247.01,381.268 1248.04,354.865 1249.08,355.508 1250.12,298.818 1251.15,301.546 1252.19,347.816 1253.22,351.698 1254.26,359.482 1255.3,361.837 1256.33,342.662 1257.37,343.906 1258.41,361.699 1259.44,364.647 1260.48,291.902 1261.51,295.936 1262.55,320.247 1263.59,321.511 1264.62,344.376 1265.66,344.986 1266.7,315.055 1267.73,316.4 1268.77,399.172 1269.81,400.512 1270.84,329.115 1271.88,329.589 1272.91,314.08 1273.95,314.324 1274.99,372.091 1276.02,377.041 1277.06,356.731 1278.1,358.272 1279.13,344.143 1280.17,344.402 1281.2,324.131 1282.24,327.757 1283.28,307.582 1284.31,308.93 1285.35,365.903 1286.39,367.333 1287.42,336.476 1288.46,336.877 1289.5,333.577 1290.53,335.003 1291.57,347.039 1292.6,347.521 1293.64,348.014 1294.68,350.356 1295.71,369.718 1296.75,371.887 1297.79,310.472 1298.82,316.491 1299.86,349.168 1300.89,350.058 1301.93,339.88 1302.97,342.062 1304,313.5 1305.04,314.23 1306.08,349.94 1307.11,351.462 1308.15,325.229 1309.19,326.619 1310.22,381.742 1311.26,386.109 1312.29,330.397 1313.33,330.616 1314.37,294.742 1315.4,295.597 1316.44,321.519 1317.48,323.277 1318.51,317.429 1319.55,319.31 1320.58,343.6 1321.62,345.147 1322.66,324.855 1323.69,326.078 1324.73,326.38 1325.77,327.003 1326.8,323.347 1327.84,325.155 1328.88,410.445 1329.91,412.027 1330.95,377.424 1331.98,378.941 1333.02,325.802 1334.06,325.966 1335.09,443.361 1336.13,444.792 1337.17,391.177 1338.2,392.348 1339.24,390.827 1340.27,391.564 1341.31,354.743 1342.35,356.666 1343.38,348.417 1344.42,349.834 1345.46,315.488 1346.49,315.94 1347.53,390.848 1348.57,392.518 1349.6,383.993 1350.64,386.588 1351.67,369.147 1352.71,369.635 1353.75,393.046 1354.78,393.379 1355.82,363.154 1356.86,363.408 1357.89,309.887 1358.93,310.885 1359.96,362.283 1361,364.396 1362.04,358.489 1363.07,359.808 1364.11,293.959 1365.15,297.647 1366.18,428.869 1367.22,429.397 1368.26,370.011 1369.29,373.519 1370.33,328.254 1371.36,330.469 1372.4,323.725 1373.44,324.348 1374.47,354.763 1375.51,357.009 1376.55,358.867 1377.58,359.83 1378.62,423.465 1379.65,424.132 1380.69,306.736 1381.73,308.312 1382.76,331.806 1383.8,333.796 1384.84,284.905 1385.87,288.762 1386.91,417.117 1387.95,418.754 1388.98,304.771 1390.02,305.565 1391.05,371.037 1392.09,371.317 1393.13,346.559 1394.16,347.928 1395.2,379.511 1396.24,379.857 1397.27,300.76 1398.31,302.02 1399.34,343.194 1400.38,343.846 1401.42,351.438 1402.45,353.169 1403.49,366.901 1404.53,370.131 1405.56,320.916 1406.6,321.926 1407.64,313.894 1408.67,315.648 1409.71,348.752 1410.74,349.412 1411.78,391.849 1412.82,393.606 1413.85,317.087 1414.89,323.253 1415.93,368.609 1416.96,371.223 1418,403.314 1419.03,405.345 1420.07,349.738 1421.11,350.801 1422.14,420.856 1423.18,425.454 1424.22,298.915 1425.25,300.28 1426.29,352.046 1427.33,354.727 1428.36,311.733 1429.4,311.937 1430.43,319.827 1431.47,320.096 1432.51,338.073 1433.54,341.451 1434.58,299.312 1435.62,301.215 1436.65,383.325 1437.69,384.527 1438.72,331.01 1439.76,332.973 1440.8,390.182 1441.83,394.663 1442.87,363.904 1443.91,365.51 1444.94,321.48 1445.98,323.666 1447.02,294.426 1448.05,296.376 1449.09,342.126 1450.12,349.077 1451.16,343.322 1452.2,343.9 1453.23,310.534 1454.27,311.082 1455.31,354.335 1456.34,354.393 1457.38,302.952 1458.41,305.744 1459.45,325 1460.49,327.453 1461.52,358.222 1462.56,360.478 1463.6,304.956 1464.63,309.034 1465.67,314.509 1466.71,314.767 1467.74,304.028 1468.78,305.454 1469.81,366.621 1470.85,368.304 1471.89,346.428 1472.92,346.541 1473.96,313.183 1475,314.368 1476.03,315.402 1477.07,316.583 1478.1,321.807 1479.14,322.983 1480.18,316.011 1481.21,318.399 1482.25,371.949 1483.29,373.274 1484.32,308.938 1485.36,310.165 1486.4,346.298 1487.43,346.935 1488.47,347.224 1489.5,347.784 1490.54,311.084 1491.58,311.676 1492.61,376.893 1493.65,377.656 1494.69,296.043 1495.72,303.113 1496.76,349.975 1497.79,350.66 1498.83,348.124 1499.87,351.04 1500.9,313.931 1501.94,315.786 1502.98,318.024 1504.01,320.122 1505.05,328.283 1506.09,329.341 1507.12,314.617 1508.16,317.972 1509.19,402.086 1510.23,403.257 1511.27,354.886 1512.3,356.319 1513.34,316.975 1514.38,317.567 1515.41,344.567 1516.45,346.223 1517.48,334.109 1518.52,336.215 1519.56,323.073 1520.59,323.276 1521.63,352.682 1522.67,353.842 1523.7,329.119 1524.74,331.404 1525.78,323.344 1526.81,324.542 1527.85,344.575 1528.88,345.051 1529.92,311.803 1530.96,313.126 1531.99,378.831 1533.03,379.469 1534.07,340.22 1535.1,342.388 1536.14,346.997 1537.17,348.687 1538.21,314.081 1539.25,315.568 1540.28,334.888 1541.32,337.641 1542.36,350.029 1543.39,350.854 1544.43,377.56 1545.47,378.594 1546.5,340.775 1547.54,341.895 1548.57,344.04 1549.61,345.413 1550.65,316.786 1551.68,316.89 1552.72,343.976 1553.76,345.422 1554.79,410.436 1555.83,411.85 1556.86,322.476 1557.9,324.149 1558.94,386.525 1559.97,386.963 1561.01,355.462 1562.05,357.406 1563.08,298.76 1564.12,302.983 1565.16,318.189 1566.19,320.023 1567.23,308.476 1568.26,310.552 1569.3,311.44 1570.34,312.416 1571.37,355.915 1572.41,357.645 1573.45,381.215 1574.48,383.673 1575.52,349.314 1576.55,350.231 1577.59,316.774 1578.63,317.758 1579.66,309.177 1580.7,309.852 1581.74,320.335 1582.77,322.635 1583.81,390.477 1584.85,391.346 1585.88,306.941 1586.92,307.9 1587.95,354.638 1588.99,355.793 1590.03,311.945 1591.06,315.304 1592.1,331.089 1593.14,333.337 1594.17,319.344 1595.21,322.332 1596.24,351.34 1597.28,351.855 1598.32,298.468 1599.35,301.237 1600.39,321.364 1601.43,321.63 1602.46,307.491 1603.5,310.962 1604.54,315.448 1605.57,315.761 1606.61,314.661 1607.64,316.463 1608.68,349.528 1609.72,349.97 1610.75,380.48 1611.79,381.003 1612.83,347.784 1613.86,348.092 1614.9,341.359 1615.93,353.464 1616.97,363.95 1618.01,364.985 1619.04,346.93 1620.08,349.377 1621.12,312.628 1622.15,313.708 1623.19,312.15 1624.23,313.808 1625.26,346.552 1626.3,348.858 1627.33,353.774 1628.37,354.001 1629.41,363.208 1630.44,367.638 1631.48,315.602 1632.52,316.065 1633.55,377.658 1634.59,378.197 1635.62,327.207 1636.66,333.106 1637.7,328.991 1638.73,329.262 1639.77,394.651 1640.81,395.182 1641.84,310.454 1642.88,311.933 1643.92,361.099 1644.95,368.808 1645.99,355.812 1647.02,358.229 1648.06,340.357 1649.1,344.65 1650.13,305.205 1651.17,307.235 1652.21,357.789 1653.24,359.942 1654.28,371.497 1655.31,377.741 1656.35,371.879 1657.39,372.819 1658.42,303.397 1659.46,308.18 1660.5,354.637 1661.53,354.811 1662.57,309.838 1663.61,310.617 1664.64,350.332 1665.68,359.721 1666.71,360.327 1667.75,360.793 1668.79,310.244 1669.82,312.864 1670.86,326.169 1671.9,330.41 1672.93,354.385 1673.97,359.111 1675,362.309 1676.04,366.25 1677.08,313.082 1678.11,314.022 1679.15,386.374 1680.19,386.828 1681.22,344.23 1682.26,344.569 1683.3,353.708 1684.33,353.855 1685.37,305.709 1686.4,309.42 1687.44,325.845 1688.48,327.665 1689.51,312.477 1690.55,315.257 1691.59,318.441 1692.62,319.237 1693.66,337.443 1694.69,339.446 1695.73,333.148 1696.77,334.637 1697.8,388.722 1698.84,388.76 1699.88,354.405 1700.91,357.254 1701.95,334.858 1702.99,334.976 1704.02,290.909 1705.06,301.805 1706.09,328.125 1707.13,328.767 1708.17,344.758 1709.2,345.646 1710.24,323.96 1711.28,324.392 1712.31,312.483 1713.35,313.233 1714.38,322.531 1715.42,326.732 1716.46,324.539 1717.49,328.166 1718.53,330.887 1719.57,331.067 1720.6,331.472 1721.64,332.011 1722.68,349.827 1723.71,354.135 1724.75,337.997 1725.78,340.201 1726.82,365.994 1727.86,366.503 1728.89,280.647 1729.93,284.451 1730.97,361.912 1732,365.208 1733.04,342.501 1734.07,342.932 1735.11,313.468 1736.15,315.79 1737.18,417.398 1738.22,417.911 1739.26,377.506 1740.29,378.746 1741.33,328.798 1742.37,329.138 1743.4,309.147 1744.44,315.888 1745.47,305.286 1746.51,306.818 1747.55,389.171 1748.58,389.579 1749.62,306.792 1750.66,311.155 1751.69,363.658 1752.73,368.781 1753.76,310.462 1754.8,311.875 1755.84,327.16 1756.87,328.276 1757.91,327.601 1758.95,330.218 1759.98,325.4 1761.02,326.864 1762.06,325.911 1763.09,325.997 1764.13,379.755 1765.16,380.173 1766.2,335.878 1767.24,337.584 1768.27,324.742 1769.31,325.064 1770.35,311.128 1771.38,314.552 1772.42,381.533 1773.45,381.974 1774.49,352.68 1775.53,353.087 1776.56,390.084 1777.6,390.903 1778.64,335.988 1779.67,337.975 1780.71,322.494 1781.75,323.559 1782.78,367.545 1783.82,368.52 1784.85,342.383 1785.89,346.299 1786.93,319.17 1787.96,321.837 1789,304.578 1790.04,306.294 1791.07,350.992 1792.11,351.216 1793.14,313.694 1794.18,314.941 1795.22,317.281 1796.25,318.25 1797.29,351.938 1798.33,354.014 1799.36,327.48 1800.4,327.763 1801.44,310.123 1802.47,312.109 1803.51,385.089 1804.54,386.152 1805.58,353.777 1806.62,354.04 1807.65,329.114 1808.69,329.872 1809.73,327.455 1810.76,330.674 1811.8,331.021 1812.84,335.445 1813.87,320.857 1814.91,322.745 1815.94,352.743 1816.98,353.315 1818.02,364.429 1819.05,364.972 1820.09,367.082 1821.13,368.703 1822.16,306.372 1823.2,308.367 1824.23,320.295 1825.27,321.259 1826.31,446.9 1827.34,446.956 1828.38,364.572 1829.42,374.503 1830.45,372.716 1831.49,373.851 1832.53,360.237 1833.56,360.917 1834.6,351.496 1835.63,353.641 1836.67,366.444 1837.71,369.251 1838.74,360.824 1839.78,361.28 1840.82,374.162 1841.85,374.841 1842.89,329.911 1843.92,330.385 1844.96,358.59 1846,358.722 1847.03,288.428 1848.07,290.777 1849.11,307.364 1850.14,309.429 1851.18,313.614 1852.22,314.846 1853.25,322.029 1854.29,322.152 1855.32,317.151 1856.36,318.999 1857.4,318.394 1858.43,318.921 1859.47,349.231 1860.51,350.593 1861.54,314.498 1862.58,318.852 1863.61,310.19 1864.65,312.759 1865.69,382.3 1866.72,382.765 1867.76,353.992 1868.8,355.66 1869.83,317.4 1870.87,319.791 1871.91,326.903 1872.94,328.727 1873.98,323.149 1875.01,323.484 1876.05,385.935 1877.09,386.214 1878.12,329.464 1879.16,330.397 1880.2,329.87 1881.23,330.376 1882.27,401.342 1883.3,403.919 1884.34,361.122 1885.38,364.496 1886.41,336.931 1887.45,339.776 1888.49,331.333 1889.52,331.674 1890.56,302.542 1891.6,305.455 1892.63,347.416 1893.67,348.153 1894.7,322.755 1895.74,323.46 1896.78,342.205 1897.81,342.501 1898.85,319.388 1899.89,319.78 1900.92,350.105 1901.96,351.397 1902.99,326.771 1904.03,327.199 1905.07,354.705 1906.1,356.511 1907.14,348.144 1908.18,348.627 1909.21,319.787 1910.25,328.577 1911.29,307.599 1912.32,309.102 1913.36,364.553 1914.39,365.034 1915.43,306.15 1916.47,308.054 1917.5,329.798 1918.54,330.199 1919.58,326.185 1920.61,326.198 1921.65,364.827 1922.68,365.644 1923.72,337.828 1924.76,340.307 1925.79,378.325 1926.83,379.058 1927.87,329.487 1928.9,333.572 1929.94,374.351 1930.98,376.388 1932.01,422.033 1933.05,422.561 1934.08,334.627 1935.12,337.266 1936.16,336.588 1937.19,338.871 1938.23,331.536 1939.27,331.614 1940.3,292.746 1941.34,296.281 1942.37,351.986 1943.41,353.717 1944.45,321.421 1945.48,322.391 1946.52,346.083 1947.56,348.336 1948.59,358.743 1949.63,358.977 1950.67,324.212 1951.7,324.47 1952.74,356.761 1953.77,358.521 1954.81,370.454 1955.85,374.399 1956.88,374.459 1957.92,375.413 1958.96,346.955 1959.99,348.078 1961.03,402.942 1962.06,406.351 1963.1,315.997 1964.14,322.631 1965.17,354.66 1966.21,356.297 1967.25,306.319 1968.28,309.996 1969.32,320.783 1970.36,322.382 1971.39,352.047 1972.43,354.185 1973.46,330.027 1974.5,335.56 1975.54,318.364 1976.57,319.1 1977.61,331.911 1978.65,332.884 1979.68,388.308 1980.72,388.398 1981.75,335.633 1982.79,336.951 1983.83,310.625 1984.86,312.55 1985.9,316.84 1986.94,319.475 1987.97,319.683 1989.01,321.54 1990.05,348.959 1991.08,349.674 1992.12,320.008 1993.15,323.173 1994.19,321.352 1995.23,322.004 1996.26,322.518 1997.3,322.892 1998.34,355.977 1999.37,362.018 2000.41,329.709 2001.44,330.141 2002.48,363.384 2003.52,366.219 2004.55,331.35 2005.59,333.695 2006.63,311.22 2007.66,313.098 2008.7,328.175 2009.74,328.662 2010.77,329.916 2011.81,332.001 2012.84,381.598 2013.88,383.701 2014.92,326.438 2015.95,327.85 2016.99,351.518 2018.03,353.657 2019.06,307.415 2020.1,310.11 2021.13,328.799 2022.17,328.906 2023.21,348.191 2024.24,350.402 2025.28,378.691 2026.32,380.577 2027.35,339.427 2028.39,341.303 2029.43,285.817 2030.46,292.102 2031.5,391.341 2032.53,393.163 2033.57,338.714 2034.61,341.097 2035.64,320.982 2036.68,322.47 2037.72,346.54 2038.75,347.803 2039.79,320.365 2040.82,322.223 2041.86,321.199 2042.9,321.454 2043.93,368.059 2044.97,369.693 2046.01,397.283 2047.04,399.265 2048.08,401.205 2049.12,403.964 2050.15,301.981 2051.19,303.781 2052.22,320.693 2053.26,321.394 2054.3,322.594 2055.33,326.72 2056.37,331.206 2057.41,331.711 2058.44,335.162 2059.48,335.714 2060.51,329.877 2061.55,330.087 2062.59,327.956 2063.62,331.019 2064.66,401.077 2065.7,402.604 2066.73,322.34 2067.77,326.066 2068.81,349.038 2069.84,349.657 2070.88,376.166 2071.91,377.428 2072.95,383.56 2073.99,384.276 2075.02,329.34 2076.06,333.699 2077.1,355.939 2078.13,356.692 2079.17,340.717 2080.2,341.899 2081.24,324.33 2082.28,324.722 2083.31,405.848 2084.35,410.509 2085.39,351.224 2086.42,352.126 2087.46,357.927 2088.5,359.874 2089.53,328.174 2090.57,329.159 2091.6,337.391 2092.64,340.996 2093.68,313.157 2094.71,315.688 2095.75,304.393 2096.79,311.185 2097.82,320.165 2098.86,320.573 2099.89,335.875 2100.93,336.828 2101.97,313.154 2103,313.997 2104.04,339.845 2105.08,343.679 2106.11,340.901 2107.15,342.914 2108.19,361.645 2109.22,362.058 2110.26,347.131 2111.29,348.62 2112.33,443.322 2113.37,453.112 2114.4,329.085 2115.44,330.847 2116.48,355.237 2117.51,355.61 2118.55,358.456 2119.58,358.794 2120.62,409.188 2121.66,411.758 2122.69,327.179 2123.73,327.637 2124.77,319.379 2125.8,323.199 2126.84,360.284 2127.88,360.794 2128.91,319.507 2129.95,320.193 2130.98,345.921 2132.02,346.995 2133.06,306.284 2134.09,308.69 2135.13,379.847 2136.17,383.869 2137.2,385.656 2138.24,390.263 2139.27,318.697 2140.31,325.61 2141.35,360.015 2142.38,361.995 2143.42,325.516 2144.46,326.347 2145.49,326.493 2146.53,331.637 2147.57,363.29 2148.6,364.122 2149.64,341.398 2150.67,342.206 2151.71,337.371 2152.75,338.425 2153.78,307.732 2154.82,309.643 2155.86,374.631 2156.89,375.155 2157.93,355.945 2158.96,356.245 2160,325.034 2161.04,325.226 2162.07,361.499 2163.11,365.062 2164.15,319.729 2165.18,320.67 2166.22,360.053 2167.26,360.632 2168.29,329.592 2169.33,329.747 2170.36,343.205 2171.4,349.177 2172.44,328.75 2173.47,329.911 2174.51,344.595 2175.55,346.327 2176.58,345.988 2177.62,347.304 2178.65,320.252 2179.69,320.687 2180.73,361.407 2181.76,362.744 2182.8,376.273 2183.84,379.729 2184.87,389.142 2185.91,390.278 2186.95,332.198 2187.98,333.712 2189.02,322.145 2190.05,322.388 2191.09,312.153 2192.13,313.616 2193.16,335.896 2194.2,339.162 2195.24,363.167 2196.27,363.62 2197.31,323.921 2198.34,324.106 2199.38,320.883 2200.42,322.589 2201.45,349.294 2202.49,351.835 2203.53,333.819 2204.56,334.08 2205.6,402.6 2206.64,402.882 2207.67,380.684 2208.71,385.152 2209.74,322.926 2210.78,323.379 2211.82,354.879 2212.85,356.603 2213.89,353.614 2214.93,354.216 2215.96,328.177 2217,329.381 2218.03,341.732 2219.07,342.762 2220.11,368.519 2221.14,368.845 2222.18,325.834 2223.22,326.255 2224.25,388.228 2225.29,393.784 2226.33,354.578 2227.36,355.403 2228.4,398.386 2229.43,398.943 2230.47,360.077 2231.51,360.83 2232.54,357.002 2233.58,357.179 2234.62,338.131 2235.65,338.843 2236.69,346.256 2237.72,352.08 2238.76,289.947 2239.8,292.778 2240.83,343.122 2241.87,344.708 2242.91,318.309 2243.94,319.641 2244.98,297.629 2246.02,304.859 2247.05,357.368 2248.09,357.555 2249.12,324.589 2250.16,325.633 2251.2,423.819 2252.23,424.514 2253.27,345.78 2254.31,346.842 2255.34,333.368 2256.38,336.148 2257.41,322.224 2258.45,325.172 2259.49,321.013 2260.52,321.703 2261.56,322.857 2262.6,324.056 2263.63,328.651 2264.67,332.689 2265.71,366.418 2266.74,366.636 2267.78,335.443 2268.81,335.66 2269.85,341.683 2270.89,342.453 2271.92,400.153 2272.96,402.136 2274,306.714 2275.03,312.36 2276.07,355.848 2277.1,357.07 2278.14,362.862 2279.18,363.112 2280.21,356.654 2281.25,359.014 2282.29,301.46 2283.32,304.141 2284.36,320.264 2285.4,320.949 2286.43,382.259 2287.47,383.315 2288.5,292.084 2289.54,299.218 2290.58,305.757 "/>
<path clip-path="url(#clip780)" d="M2007.39 1438.47 L2279.52 1438.47 L2279.52 1334.79 L2007.39 1334.79  Z" fill="#ffffff" fill-rule="evenodd" fill-opacity="1"/>
<polyline clip-path="url(#clip780)" style="stroke:#000000; stroke-linecap:round; stroke-linejoin:round; stroke-width:4; stroke-opacity:1; fill:none" points="2007.39,1438.47 2279.52,1438.47 2279.52,1334.79 2007.39,1334.79 2007.39,1438.47 "/>
<polyline clip-path="url(#clip780)" style="stroke:#009af9; stroke-linecap:round; stroke-linejoin:round; stroke-width:4; stroke-opacity:1; fill:none" points="2031.8,1386.63 2178.27,1386.63 "/>
<path clip-path="url(#clip780)" d="M2216.52 1406.32 Q2214.72 1410.95 2213.01 1412.36 Q2211.29 1413.78 2208.42 1413.78 L2205.02 1413.78 L2205.02 1410.21 L2207.52 1410.21 Q2209.28 1410.21 2210.25 1409.38 Q2211.22 1408.54 2212.4 1405.44 L2213.17 1403.5 L2202.68 1377.99 L2207.2 1377.99 L2215.3 1398.27 L2223.4 1377.99 L2227.91 1377.99 L2216.52 1406.32 Z" fill="#000000" fill-rule="nonzero" fill-opacity="1" /><path clip-path="url(#clip780)" d="M2235.2 1399.98 L2242.84 1399.98 L2242.84 1373.61 L2234.53 1375.28 L2234.53 1371.02 L2242.8 1369.35 L2247.47 1369.35 L2247.47 1399.98 L2255.11 1399.98 L2255.11 1403.91 L2235.2 1403.91 L2235.2 1399.98 Z" fill="#000000" fill-rule="nonzero" fill-opacity="1" /></svg>
