<?xml version="1.0" encoding="utf-8"?>
<svg xmlns="http://www.w3.org/2000/svg" xmlns:xlink="http://www.w3.org/1999/xlink" width="600" height="400" viewBox="0 0 2400 1600">
<defs>
  <clipPath id="clip490">
    <rect x="0" y="0" width="2400" height="1600"/>
  </clipPath>
</defs>
<path clip-path="url(#clip490)" d="M0 1600 L2400 1600 L2400 0 L0 0  Z" fill="#ffffff" fill-rule="evenodd" fill-opacity="1"/>
<defs>
  <clipPath id="clip491">
    <rect x="480" y="0" width="1681" height="1600"/>
  </clipPath>
</defs>
<path clip-path="url(#clip490)" d="M178.867 1486.45 L2352.76 1486.45 L2352.76 47.2441 L178.867 47.2441  Z" fill="#ffffff" fill-rule="evenodd" fill-opacity="1"/>
<defs>
  <clipPath id="clip492">
    <rect x="178" y="47" width="2175" height="1440"/>
  </clipPath>
</defs>
<polyline clip-path="url(#clip492)" style="stroke:#000000; stroke-linecap:round; stroke-linejoin:round; stroke-width:2; stroke-opacity:0.1; fill:none" points="240.392,1486.45 240.392,47.2441 "/>
<polyline clip-path="url(#clip492)" style="stroke:#000000; stroke-linecap:round; stroke-linejoin:round; stroke-width:2; stroke-opacity:0.1; fill:none" points="924.005,1486.45 924.005,47.2441 "/>
<polyline clip-path="url(#clip492)" style="stroke:#000000; stroke-linecap:round; stroke-linejoin:round; stroke-width:2; stroke-opacity:0.1; fill:none" points="1607.62,1486.45 1607.62,47.2441 "/>
<polyline clip-path="url(#clip492)" style="stroke:#000000; stroke-linecap:round; stroke-linejoin:round; stroke-width:2; stroke-opacity:0.1; fill:none" points="2291.23,1486.45 2291.23,47.2441 "/>
<polyline clip-path="url(#clip490)" style="stroke:#000000; stroke-linecap:round; stroke-linejoin:round; stroke-width:4; stroke-opacity:1; fill:none" points="178.867,1486.45 2352.76,1486.45 "/>
<polyline clip-path="url(#clip490)" style="stroke:#000000; stroke-linecap:round; stroke-linejoin:round; stroke-width:4; stroke-opacity:1; fill:none" points="240.392,1486.45 240.392,1467.55 "/>
<polyline clip-path="url(#clip490)" style="stroke:#000000; stroke-linecap:round; stroke-linejoin:round; stroke-width:4; stroke-opacity:1; fill:none" points="924.005,1486.45 924.005,1467.55 "/>
<polyline clip-path="url(#clip490)" style="stroke:#000000; stroke-linecap:round; stroke-linejoin:round; stroke-width:4; stroke-opacity:1; fill:none" points="1607.62,1486.45 1607.62,1467.55 "/>
<polyline clip-path="url(#clip490)" style="stroke:#000000; stroke-linecap:round; stroke-linejoin:round; stroke-width:4; stroke-opacity:1; fill:none" points="2291.23,1486.45 2291.23,1467.55 "/>
<path clip-path="url(#clip490)" d="M240.392 1517.37 Q236.781 1517.37 234.952 1520.93 Q233.146 1524.47 233.146 1531.6 Q233.146 1538.71 234.952 1542.27 Q236.781 1545.82 240.392 1545.82 Q244.026 1545.82 245.832 1542.27 Q247.66 1538.71 247.66 1531.6 Q247.66 1524.47 245.832 1520.93 Q244.026 1517.37 240.392 1517.37 M240.392 1513.66 Q246.202 1513.66 249.257 1518.27 Q252.336 1522.85 252.336 1531.6 Q252.336 1540.33 249.257 1544.94 Q246.202 1549.52 240.392 1549.52 Q234.582 1549.52 231.503 1544.94 Q228.447 1540.33 228.447 1531.6 Q228.447 1522.85 231.503 1518.27 Q234.582 1513.66 240.392 1513.66 Z" fill="#000000" fill-rule="nonzero" fill-opacity="1" /><path clip-path="url(#clip490)" d="M914.387 1544.91 L922.026 1544.91 L922.026 1518.55 L913.715 1520.21 L913.715 1515.95 L921.979 1514.29 L926.655 1514.29 L926.655 1544.91 L934.294 1544.91 L934.294 1548.85 L914.387 1548.85 L914.387 1544.91 Z" fill="#000000" fill-rule="nonzero" fill-opacity="1" /><path clip-path="url(#clip490)" d="M1602.27 1544.91 L1618.59 1544.91 L1618.59 1548.85 L1596.65 1548.85 L1596.65 1544.91 Q1599.31 1542.16 1603.89 1537.53 Q1608.5 1532.88 1609.68 1531.53 Q1611.92 1529.01 1612.8 1527.27 Q1613.71 1525.51 1613.71 1523.82 Q1613.71 1521.07 1611.76 1519.33 Q1609.84 1517.6 1606.74 1517.6 Q1604.54 1517.6 1602.09 1518.36 Q1599.65 1519.13 1596.88 1520.68 L1596.88 1515.95 Q1599.7 1514.82 1602.15 1514.24 Q1604.61 1513.66 1606.65 1513.66 Q1612.02 1513.66 1615.21 1516.35 Q1618.4 1519.03 1618.4 1523.52 Q1618.4 1525.65 1617.59 1527.57 Q1616.81 1529.47 1614.7 1532.07 Q1614.12 1532.74 1611.02 1535.95 Q1607.92 1539.15 1602.27 1544.91 Z" fill="#000000" fill-rule="nonzero" fill-opacity="1" /><path clip-path="url(#clip490)" d="M2295.48 1530.21 Q2298.83 1530.93 2300.71 1533.2 Q2302.61 1535.47 2302.61 1538.8 Q2302.61 1543.92 2299.09 1546.72 Q2295.57 1549.52 2289.09 1549.52 Q2286.91 1549.52 2284.6 1549.08 Q2282.31 1548.66 2279.85 1547.81 L2279.85 1543.29 Q2281.8 1544.43 2284.11 1545.01 Q2286.43 1545.58 2288.95 1545.58 Q2293.35 1545.58 2295.64 1543.85 Q2297.96 1542.11 2297.96 1538.8 Q2297.96 1535.75 2295.8 1534.03 Q2293.67 1532.3 2289.85 1532.3 L2285.83 1532.3 L2285.83 1528.45 L2290.04 1528.45 Q2293.49 1528.45 2295.32 1527.09 Q2297.15 1525.7 2297.15 1523.11 Q2297.15 1520.45 2295.25 1519.03 Q2293.37 1517.6 2289.85 1517.6 Q2287.93 1517.6 2285.73 1518.01 Q2283.53 1518.43 2280.9 1519.31 L2280.9 1515.14 Q2283.56 1514.4 2285.87 1514.03 Q2288.21 1513.66 2290.27 1513.66 Q2295.59 1513.66 2298.7 1516.09 Q2301.8 1518.5 2301.8 1522.62 Q2301.8 1525.49 2300.15 1527.48 Q2298.51 1529.45 2295.48 1530.21 Z" fill="#000000" fill-rule="nonzero" fill-opacity="1" /><polyline clip-path="url(#clip492)" style="stroke:#000000; stroke-linecap:round; stroke-linejoin:round; stroke-width:2; stroke-opacity:0.1; fill:none" points="178.867,1258.66 2352.76,1258.66 "/>
<polyline clip-path="url(#clip492)" style="stroke:#000000; stroke-linecap:round; stroke-linejoin:round; stroke-width:2; stroke-opacity:0.1; fill:none" points="178.867,864.233 2352.76,864.233 "/>
<polyline clip-path="url(#clip492)" style="stroke:#000000; stroke-linecap:round; stroke-linejoin:round; stroke-width:2; stroke-opacity:0.1; fill:none" points="178.867,469.802 2352.76,469.802 "/>
<polyline clip-path="url(#clip492)" style="stroke:#000000; stroke-linecap:round; stroke-linejoin:round; stroke-width:2; stroke-opacity:0.1; fill:none" points="178.867,75.3712 2352.76,75.3712 "/>
<polyline clip-path="url(#clip490)" style="stroke:#000000; stroke-linecap:round; stroke-linejoin:round; stroke-width:4; stroke-opacity:1; fill:none" points="178.867,1486.45 178.867,47.2441 "/>
<polyline clip-path="url(#clip490)" style="stroke:#000000; stroke-linecap:round; stroke-linejoin:round; stroke-width:4; stroke-opacity:1; fill:none" points="178.867,1258.66 197.764,1258.66 "/>
<polyline clip-path="url(#clip490)" style="stroke:#000000; stroke-linecap:round; stroke-linejoin:round; stroke-width:4; stroke-opacity:1; fill:none" points="178.867,864.233 197.764,864.233 "/>
<polyline clip-path="url(#clip490)" style="stroke:#000000; stroke-linecap:round; stroke-linejoin:round; stroke-width:4; stroke-opacity:1; fill:none" points="178.867,469.802 197.764,469.802 "/>
<polyline clip-path="url(#clip490)" style="stroke:#000000; stroke-linecap:round; stroke-linejoin:round; stroke-width:4; stroke-opacity:1; fill:none" points="178.867,75.3712 197.764,75.3712 "/>
<path clip-path="url(#clip490)" d="M50.9921 1259.11 L80.6679 1259.11 L80.6679 1263.05 L50.9921 1263.05 L50.9921 1259.11 Z" fill="#000000" fill-rule="nonzero" fill-opacity="1" /><path clip-path="url(#clip490)" d="M94.7882 1272.01 L111.108 1272.01 L111.108 1275.94 L89.1632 1275.94 L89.1632 1272.01 Q91.8252 1269.25 96.4085 1264.62 Q101.015 1259.97 102.196 1258.63 Q104.441 1256.11 105.321 1254.37 Q106.223 1252.61 106.223 1250.92 Q106.223 1248.17 104.279 1246.43 Q102.358 1244.69 99.2558 1244.69 Q97.0567 1244.69 94.603 1245.46 Q92.1725 1246.22 89.3947 1247.77 L89.3947 1243.05 Q92.2188 1241.92 94.6724 1241.34 Q97.1261 1240.76 99.1632 1240.76 Q104.534 1240.76 107.728 1243.44 Q110.922 1246.13 110.922 1250.62 Q110.922 1252.75 110.112 1254.67 Q109.325 1256.57 107.219 1259.16 Q106.64 1259.83 103.538 1263.05 Q100.436 1266.24 94.7882 1272.01 Z" fill="#000000" fill-rule="nonzero" fill-opacity="1" /><path clip-path="url(#clip490)" d="M130.922 1244.46 Q127.311 1244.46 125.482 1248.03 Q123.677 1251.57 123.677 1258.7 Q123.677 1265.8 125.482 1269.37 Q127.311 1272.91 130.922 1272.91 Q134.556 1272.91 136.362 1269.37 Q138.191 1265.8 138.191 1258.7 Q138.191 1251.57 136.362 1248.03 Q134.556 1244.46 130.922 1244.46 M130.922 1240.76 Q136.732 1240.76 139.788 1245.36 Q142.867 1249.95 142.867 1258.7 Q142.867 1267.42 139.788 1272.03 Q136.732 1276.61 130.922 1276.61 Q125.112 1276.61 122.033 1272.03 Q118.978 1267.42 118.978 1258.7 Q118.978 1249.95 122.033 1245.36 Q125.112 1240.76 130.922 1240.76 Z" fill="#000000" fill-rule="nonzero" fill-opacity="1" /><path clip-path="url(#clip490)" d="M51.9875 864.684 L81.6633 864.684 L81.6633 868.619 L51.9875 868.619 L51.9875 864.684 Z" fill="#000000" fill-rule="nonzero" fill-opacity="1" /><path clip-path="url(#clip490)" d="M92.566 877.577 L100.205 877.577 L100.205 851.212 L91.8947 852.878 L91.8947 848.619 L100.159 846.953 L104.834 846.953 L104.834 877.577 L112.473 877.577 L112.473 881.513 L92.566 881.513 L92.566 877.577 Z" fill="#000000" fill-rule="nonzero" fill-opacity="1" /><path clip-path="url(#clip490)" d="M121.964 846.953 L140.32 846.953 L140.32 850.888 L126.246 850.888 L126.246 859.36 Q127.265 859.013 128.283 858.851 Q129.302 858.665 130.32 858.665 Q136.107 858.665 139.487 861.837 Q142.867 865.008 142.867 870.425 Q142.867 876.003 139.394 879.105 Q135.922 882.184 129.603 882.184 Q127.427 882.184 125.158 881.814 Q122.913 881.443 120.506 880.702 L120.506 876.003 Q122.589 877.138 124.811 877.693 Q127.033 878.249 129.51 878.249 Q133.515 878.249 135.853 876.142 Q138.191 874.036 138.191 870.425 Q138.191 866.814 135.853 864.707 Q133.515 862.601 129.51 862.601 Q127.635 862.601 125.76 863.017 Q123.908 863.434 121.964 864.314 L121.964 846.953 Z" fill="#000000" fill-rule="nonzero" fill-opacity="1" /><path clip-path="url(#clip490)" d="M50.9921 470.253 L80.6679 470.253 L80.6679 474.188 L50.9921 474.188 L50.9921 470.253 Z" fill="#000000" fill-rule="nonzero" fill-opacity="1" /><path clip-path="url(#clip490)" d="M91.5706 483.147 L99.2095 483.147 L99.2095 456.781 L90.8993 458.448 L90.8993 454.189 L99.1632 452.522 L103.839 452.522 L103.839 483.147 L111.478 483.147 L111.478 487.082 L91.5706 487.082 L91.5706 483.147 Z" fill="#000000" fill-rule="nonzero" fill-opacity="1" /><path clip-path="url(#clip490)" d="M130.922 455.601 Q127.311 455.601 125.482 459.165 Q123.677 462.707 123.677 469.837 Q123.677 476.943 125.482 480.508 Q127.311 484.05 130.922 484.05 Q134.556 484.05 136.362 480.508 Q138.191 476.943 138.191 469.837 Q138.191 462.707 136.362 459.165 Q134.556 455.601 130.922 455.601 M130.922 451.897 Q136.732 451.897 139.788 456.503 Q142.867 461.087 142.867 469.837 Q142.867 478.563 139.788 483.17 Q136.732 487.753 130.922 487.753 Q125.112 487.753 122.033 483.17 Q118.978 478.563 118.978 469.837 Q118.978 461.087 122.033 456.503 Q125.112 451.897 130.922 451.897 Z" fill="#000000" fill-rule="nonzero" fill-opacity="1" /><path clip-path="url(#clip490)" d="M82.1494 75.8226 L111.825 75.8226 L111.825 79.7578 L82.1494 79.7578 L82.1494 75.8226 Z" fill="#000000" fill-rule="nonzero" fill-opacity="1" /><path clip-path="url(#clip490)" d="M121.964 58.0912 L140.32 58.0912 L140.32 62.0264 L126.246 62.0264 L126.246 70.4986 Q127.265 70.1514 128.283 69.9893 Q129.302 69.8042 130.32 69.8042 Q136.107 69.8042 139.487 72.9754 Q142.867 76.1467 142.867 81.5633 Q142.867 87.142 139.394 90.2439 Q135.922 93.3225 129.603 93.3225 Q127.427 93.3225 125.158 92.9522 Q122.913 92.5818 120.506 91.8411 L120.506 87.142 Q122.589 88.2763 124.811 88.8318 Q127.033 89.3874 129.51 89.3874 Q133.515 89.3874 135.853 87.2809 Q138.191 85.1744 138.191 81.5633 Q138.191 77.9523 135.853 75.8458 Q133.515 73.7393 129.51 73.7393 Q127.635 73.7393 125.76 74.156 Q123.908 74.5726 121.964 75.4523 L121.964 58.0912 Z" fill="#000000" fill-rule="nonzero" fill-opacity="1" /><polyline clip-path="url(#clip492)" style="stroke:#009af9; stroke-linecap:round; stroke-linejoin:round; stroke-width:4; stroke-opacity:1; fill:none" points="240.392,87.9763 924.005,127.658 1607.62,1445.72 "/>
<path clip-path="url(#clip490)" d="M251.33 1438.47 L521.149 1438.47 L521.149 1334.79 L251.33 1334.79  Z" fill="#ffffff" fill-rule="evenodd" fill-opacity="1"/>
<polyline clip-path="url(#clip490)" style="stroke:#000000; stroke-linecap:round; stroke-linejoin:round; stroke-width:4; stroke-opacity:1; fill:none" points="251.33,1438.47 521.149,1438.47 521.149,1334.79 251.33,1334.79 251.33,1438.47 "/>
<polyline clip-path="url(#clip490)" style="stroke:#009af9; stroke-linecap:round; stroke-linejoin:round; stroke-width:4; stroke-opacity:1; fill:none" points="275.484,1386.63 420.41,1386.63 "/>
<path clip-path="url(#clip490)" d="M458.407 1406.32 Q456.601 1410.95 454.888 1412.36 Q453.175 1413.78 450.305 1413.78 L446.902 1413.78 L446.902 1410.21 L449.402 1410.21 Q451.161 1410.21 452.134 1409.38 Q453.106 1408.54 454.286 1405.44 L455.05 1403.5 L444.564 1377.99 L449.078 1377.99 L457.18 1398.27 L465.282 1377.99 L469.796 1377.99 L458.407 1406.32 Z" fill="#000000" fill-rule="nonzero" fill-opacity="1" /><path clip-path="url(#clip490)" d="M477.087 1399.98 L484.726 1399.98 L484.726 1373.61 L476.416 1375.28 L476.416 1371.02 L484.68 1369.35 L489.356 1369.35 L489.356 1399.98 L496.994 1399.98 L496.994 1403.91 L477.087 1403.91 L477.087 1399.98 Z" fill="#000000" fill-rule="nonzero" fill-opacity="1" /></svg>
