<?xml version="1.0" encoding="utf-8"?>
<svg xmlns="http://www.w3.org/2000/svg" xmlns:xlink="http://www.w3.org/1999/xlink" width="600" height="400" viewBox="0 0 2400 1600">
<defs>
  <clipPath id="clip150">
    <rect x="0" y="0" width="2400" height="1600"/>
  </clipPath>
</defs>
<path clip-path="url(#clip150)" d="M0 1600 L2400 1600 L2400 0 L0 0  Z" fill="#ffffff" fill-rule="evenodd" fill-opacity="1"/>
<defs>
  <clipPath id="clip151">
    <rect x="480" y="0" width="1681" height="1600"/>
  </clipPath>
</defs>
<path clip-path="url(#clip150)" d="M154.515 1486.45 L2352.76 1486.45 L2352.76 47.2441 L154.515 47.2441  Z" fill="#ffffff" fill-rule="evenodd" fill-opacity="1"/>
<defs>
  <clipPath id="clip152">
    <rect x="154" y="47" width="2199" height="1440"/>
  </clipPath>
</defs>
<polyline clip-path="url(#clip152)" style="stroke:#000000; stroke-linecap:round; stroke-linejoin:round; stroke-width:2; stroke-opacity:0.1; fill:none" points="216.729,1486.45 216.729,47.2441 "/>
<polyline clip-path="url(#clip152)" style="stroke:#000000; stroke-linecap:round; stroke-linejoin:round; stroke-width:2; stroke-opacity:0.1; fill:none" points="735.182,1486.45 735.182,47.2441 "/>
<polyline clip-path="url(#clip152)" style="stroke:#000000; stroke-linecap:round; stroke-linejoin:round; stroke-width:2; stroke-opacity:0.1; fill:none" points="1253.64,1486.45 1253.64,47.2441 "/>
<polyline clip-path="url(#clip152)" style="stroke:#000000; stroke-linecap:round; stroke-linejoin:round; stroke-width:2; stroke-opacity:0.1; fill:none" points="1772.09,1486.45 1772.09,47.2441 "/>
<polyline clip-path="url(#clip152)" style="stroke:#000000; stroke-linecap:round; stroke-linejoin:round; stroke-width:2; stroke-opacity:0.1; fill:none" points="2290.54,1486.45 2290.54,47.2441 "/>
<polyline clip-path="url(#clip150)" style="stroke:#000000; stroke-linecap:round; stroke-linejoin:round; stroke-width:4; stroke-opacity:1; fill:none" points="154.515,1486.45 2352.76,1486.45 "/>
<polyline clip-path="url(#clip150)" style="stroke:#000000; stroke-linecap:round; stroke-linejoin:round; stroke-width:4; stroke-opacity:1; fill:none" points="216.729,1486.45 216.729,1467.55 "/>
<polyline clip-path="url(#clip150)" style="stroke:#000000; stroke-linecap:round; stroke-linejoin:round; stroke-width:4; stroke-opacity:1; fill:none" points="735.182,1486.45 735.182,1467.55 "/>
<polyline clip-path="url(#clip150)" style="stroke:#000000; stroke-linecap:round; stroke-linejoin:round; stroke-width:4; stroke-opacity:1; fill:none" points="1253.64,1486.45 1253.64,1467.55 "/>
<polyline clip-path="url(#clip150)" style="stroke:#000000; stroke-linecap:round; stroke-linejoin:round; stroke-width:4; stroke-opacity:1; fill:none" points="1772.09,1486.45 1772.09,1467.55 "/>
<polyline clip-path="url(#clip150)" style="stroke:#000000; stroke-linecap:round; stroke-linejoin:round; stroke-width:4; stroke-opacity:1; fill:none" points="2290.54,1486.45 2290.54,1467.55 "/>
<path clip-path="url(#clip150)" d="M216.729 1517.37 Q213.118 1517.37 211.289 1520.93 Q209.484 1524.47 209.484 1531.6 Q209.484 1538.71 211.289 1542.27 Q213.118 1545.82 216.729 1545.82 Q220.364 1545.82 222.169 1542.27 Q223.998 1538.71 223.998 1531.6 Q223.998 1524.47 222.169 1520.93 Q220.364 1517.37 216.729 1517.37 M216.729 1513.66 Q222.539 1513.66 225.595 1518.27 Q228.674 1522.85 228.674 1531.6 Q228.674 1540.33 225.595 1544.94 Q222.539 1549.52 216.729 1549.52 Q210.919 1549.52 207.84 1544.94 Q204.785 1540.33 204.785 1531.6 Q204.785 1522.85 207.84 1518.27 Q210.919 1513.66 216.729 1513.66 Z" fill="#000000" fill-rule="nonzero" fill-opacity="1" /><path clip-path="url(#clip150)" d="M694.801 1514.29 L713.157 1514.29 L713.157 1518.22 L699.083 1518.22 L699.083 1526.7 Q700.102 1526.35 701.12 1526.19 Q702.139 1526 703.157 1526 Q708.944 1526 712.324 1529.17 Q715.703 1532.34 715.703 1537.76 Q715.703 1543.34 712.231 1546.44 Q708.759 1549.52 702.439 1549.52 Q700.264 1549.52 697.995 1549.15 Q695.75 1548.78 693.342 1548.04 L693.342 1543.34 Q695.426 1544.47 697.648 1545.03 Q699.87 1545.58 702.347 1545.58 Q706.351 1545.58 708.689 1543.48 Q711.027 1541.37 711.027 1537.76 Q711.027 1534.15 708.689 1532.04 Q706.351 1529.94 702.347 1529.94 Q700.472 1529.94 698.597 1530.35 Q696.745 1530.77 694.801 1531.65 L694.801 1514.29 Z" fill="#000000" fill-rule="nonzero" fill-opacity="1" /><path clip-path="url(#clip150)" d="M734.916 1517.37 Q731.305 1517.37 729.476 1520.93 Q727.671 1524.47 727.671 1531.6 Q727.671 1538.71 729.476 1542.27 Q731.305 1545.82 734.916 1545.82 Q738.55 1545.82 740.356 1542.27 Q742.185 1538.71 742.185 1531.6 Q742.185 1524.47 740.356 1520.93 Q738.55 1517.37 734.916 1517.37 M734.916 1513.66 Q740.726 1513.66 743.782 1518.27 Q746.861 1522.85 746.861 1531.6 Q746.861 1540.33 743.782 1544.94 Q740.726 1549.52 734.916 1549.52 Q729.106 1549.52 726.027 1544.94 Q722.972 1540.33 722.972 1531.6 Q722.972 1522.85 726.027 1518.27 Q729.106 1513.66 734.916 1513.66 Z" fill="#000000" fill-rule="nonzero" fill-opacity="1" /><path clip-path="url(#clip150)" d="M765.078 1517.37 Q761.467 1517.37 759.638 1520.93 Q757.833 1524.47 757.833 1531.6 Q757.833 1538.71 759.638 1542.27 Q761.467 1545.82 765.078 1545.82 Q768.712 1545.82 770.518 1542.27 Q772.346 1538.71 772.346 1531.6 Q772.346 1524.47 770.518 1520.93 Q768.712 1517.37 765.078 1517.37 M765.078 1513.66 Q770.888 1513.66 773.944 1518.27 Q777.022 1522.85 777.022 1531.6 Q777.022 1540.33 773.944 1544.94 Q770.888 1549.52 765.078 1549.52 Q759.268 1549.52 756.189 1544.94 Q753.134 1540.33 753.134 1531.6 Q753.134 1522.85 756.189 1518.27 Q759.268 1513.66 765.078 1513.66 Z" fill="#000000" fill-rule="nonzero" fill-opacity="1" /><path clip-path="url(#clip150)" d="M1198.16 1544.91 L1205.8 1544.91 L1205.8 1518.55 L1197.49 1520.21 L1197.49 1515.95 L1205.75 1514.29 L1210.43 1514.29 L1210.43 1544.91 L1218.07 1544.91 L1218.07 1548.85 L1198.16 1548.85 L1198.16 1544.91 Z" fill="#000000" fill-rule="nonzero" fill-opacity="1" /><path clip-path="url(#clip150)" d="M1237.51 1517.37 Q1233.9 1517.37 1232.07 1520.93 Q1230.27 1524.47 1230.27 1531.6 Q1230.27 1538.71 1232.07 1542.27 Q1233.9 1545.82 1237.51 1545.82 Q1241.15 1545.82 1242.95 1542.27 Q1244.78 1538.71 1244.78 1531.6 Q1244.78 1524.47 1242.95 1520.93 Q1241.15 1517.37 1237.51 1517.37 M1237.51 1513.66 Q1243.32 1513.66 1246.38 1518.27 Q1249.46 1522.85 1249.46 1531.6 Q1249.46 1540.33 1246.38 1544.94 Q1243.32 1549.52 1237.51 1549.52 Q1231.7 1549.52 1228.62 1544.94 Q1225.57 1540.33 1225.57 1531.6 Q1225.57 1522.85 1228.62 1518.27 Q1231.7 1513.66 1237.51 1513.66 Z" fill="#000000" fill-rule="nonzero" fill-opacity="1" /><path clip-path="url(#clip150)" d="M1267.67 1517.37 Q1264.06 1517.37 1262.23 1520.93 Q1260.43 1524.47 1260.43 1531.6 Q1260.43 1538.71 1262.23 1542.27 Q1264.06 1545.82 1267.67 1545.82 Q1271.31 1545.82 1273.11 1542.27 Q1274.94 1538.71 1274.94 1531.6 Q1274.94 1524.47 1273.11 1520.93 Q1271.31 1517.37 1267.67 1517.37 M1267.67 1513.66 Q1273.48 1513.66 1276.54 1518.27 Q1279.62 1522.85 1279.62 1531.6 Q1279.62 1540.33 1276.54 1544.94 Q1273.48 1549.52 1267.67 1549.52 Q1261.86 1549.52 1258.79 1544.94 Q1255.73 1540.33 1255.73 1531.6 Q1255.73 1522.85 1258.79 1518.27 Q1261.86 1513.66 1267.67 1513.66 Z" fill="#000000" fill-rule="nonzero" fill-opacity="1" /><path clip-path="url(#clip150)" d="M1297.84 1517.37 Q1294.23 1517.37 1292.4 1520.93 Q1290.59 1524.47 1290.59 1531.6 Q1290.59 1538.71 1292.4 1542.27 Q1294.23 1545.82 1297.84 1545.82 Q1301.47 1545.82 1303.28 1542.27 Q1305.11 1538.71 1305.11 1531.6 Q1305.11 1524.47 1303.28 1520.93 Q1301.47 1517.37 1297.84 1517.37 M1297.84 1513.66 Q1303.65 1513.66 1306.7 1518.27 Q1309.78 1522.85 1309.78 1531.6 Q1309.78 1540.33 1306.7 1544.94 Q1303.65 1549.52 1297.84 1549.52 Q1292.03 1549.52 1288.95 1544.94 Q1285.89 1540.33 1285.89 1531.6 Q1285.89 1522.85 1288.95 1518.27 Q1292.03 1513.66 1297.84 1513.66 Z" fill="#000000" fill-rule="nonzero" fill-opacity="1" /><path clip-path="url(#clip150)" d="M1716.61 1544.91 L1724.25 1544.91 L1724.25 1518.55 L1715.94 1520.21 L1715.94 1515.95 L1724.21 1514.29 L1728.88 1514.29 L1728.88 1544.91 L1736.52 1544.91 L1736.52 1548.85 L1716.61 1548.85 L1716.61 1544.91 Z" fill="#000000" fill-rule="nonzero" fill-opacity="1" /><path clip-path="url(#clip150)" d="M1746.01 1514.29 L1764.37 1514.29 L1764.37 1518.22 L1750.29 1518.22 L1750.29 1526.7 Q1751.31 1526.35 1752.33 1526.19 Q1753.35 1526 1754.37 1526 Q1760.16 1526 1763.54 1529.17 Q1766.91 1532.34 1766.91 1537.76 Q1766.91 1543.34 1763.44 1546.44 Q1759.97 1549.52 1753.65 1549.52 Q1751.48 1549.52 1749.21 1549.15 Q1746.96 1548.78 1744.55 1548.04 L1744.55 1543.34 Q1746.64 1544.47 1748.86 1545.03 Q1751.08 1545.58 1753.56 1545.58 Q1757.56 1545.58 1759.9 1543.48 Q1762.24 1541.37 1762.24 1537.76 Q1762.24 1534.15 1759.9 1532.04 Q1757.56 1529.94 1753.56 1529.94 Q1751.68 1529.94 1749.81 1530.35 Q1747.96 1530.77 1746.01 1531.65 L1746.01 1514.29 Z" fill="#000000" fill-rule="nonzero" fill-opacity="1" /><path clip-path="url(#clip150)" d="M1786.13 1517.37 Q1782.52 1517.37 1780.69 1520.93 Q1778.88 1524.47 1778.88 1531.6 Q1778.88 1538.71 1780.69 1542.27 Q1782.52 1545.82 1786.13 1545.82 Q1789.76 1545.82 1791.57 1542.27 Q1793.4 1538.71 1793.4 1531.6 Q1793.4 1524.47 1791.57 1520.93 Q1789.76 1517.37 1786.13 1517.37 M1786.13 1513.66 Q1791.94 1513.66 1794.99 1518.27 Q1798.07 1522.85 1798.07 1531.6 Q1798.07 1540.33 1794.99 1544.94 Q1791.94 1549.52 1786.13 1549.52 Q1780.32 1549.52 1777.24 1544.94 Q1774.18 1540.33 1774.18 1531.6 Q1774.18 1522.85 1777.24 1518.27 Q1780.32 1513.66 1786.13 1513.66 Z" fill="#000000" fill-rule="nonzero" fill-opacity="1" /><path clip-path="url(#clip150)" d="M1816.29 1517.37 Q1812.68 1517.37 1810.85 1520.93 Q1809.04 1524.47 1809.04 1531.6 Q1809.04 1538.71 1810.85 1542.27 Q1812.68 1545.82 1816.29 1545.82 Q1819.92 1545.82 1821.73 1542.27 Q1823.56 1538.71 1823.56 1531.6 Q1823.56 1524.47 1821.73 1520.93 Q1819.92 1517.37 1816.29 1517.37 M1816.29 1513.66 Q1822.1 1513.66 1825.16 1518.27 Q1828.23 1522.85 1828.23 1531.6 Q1828.23 1540.33 1825.16 1544.94 Q1822.1 1549.52 1816.29 1549.52 Q1810.48 1549.52 1807.4 1544.94 Q1804.35 1540.33 1804.35 1531.6 Q1804.35 1522.85 1807.4 1518.27 Q1810.48 1513.66 1816.29 1513.66 Z" fill="#000000" fill-rule="nonzero" fill-opacity="1" /><path clip-path="url(#clip150)" d="M2239.15 1544.91 L2255.47 1544.91 L2255.47 1548.85 L2233.53 1548.85 L2233.53 1544.91 Q2236.19 1542.16 2240.77 1537.53 Q2245.38 1532.88 2246.56 1531.53 Q2248.81 1529.01 2249.69 1527.27 Q2250.59 1525.51 2250.59 1523.82 Q2250.59 1521.07 2248.64 1519.33 Q2246.72 1517.6 2243.62 1517.6 Q2241.42 1517.6 2238.97 1518.36 Q2236.54 1519.13 2233.76 1520.68 L2233.76 1515.95 Q2236.58 1514.82 2239.04 1514.24 Q2241.49 1513.66 2243.53 1513.66 Q2248.9 1513.66 2252.09 1516.35 Q2255.29 1519.03 2255.29 1523.52 Q2255.29 1525.65 2254.48 1527.57 Q2253.69 1529.47 2251.58 1532.07 Q2251 1532.74 2247.9 1535.95 Q2244.8 1539.15 2239.15 1544.91 Z" fill="#000000" fill-rule="nonzero" fill-opacity="1" /><path clip-path="url(#clip150)" d="M2275.29 1517.37 Q2271.68 1517.37 2269.85 1520.93 Q2268.04 1524.47 2268.04 1531.6 Q2268.04 1538.71 2269.85 1542.27 Q2271.68 1545.82 2275.29 1545.82 Q2278.92 1545.82 2280.73 1542.27 Q2282.56 1538.71 2282.56 1531.6 Q2282.56 1524.47 2280.73 1520.93 Q2278.92 1517.37 2275.29 1517.37 M2275.29 1513.66 Q2281.1 1513.66 2284.15 1518.27 Q2287.23 1522.85 2287.23 1531.6 Q2287.23 1540.33 2284.15 1544.94 Q2281.1 1549.52 2275.29 1549.52 Q2269.48 1549.52 2266.4 1544.94 Q2263.34 1540.33 2263.34 1531.6 Q2263.34 1522.85 2266.4 1518.27 Q2269.48 1513.66 2275.29 1513.66 Z" fill="#000000" fill-rule="nonzero" fill-opacity="1" /><path clip-path="url(#clip150)" d="M2305.45 1517.37 Q2301.84 1517.37 2300.01 1520.93 Q2298.2 1524.47 2298.2 1531.6 Q2298.2 1538.71 2300.01 1542.27 Q2301.84 1545.82 2305.45 1545.82 Q2309.08 1545.82 2310.89 1542.27 Q2312.72 1538.71 2312.72 1531.6 Q2312.72 1524.47 2310.89 1520.93 Q2309.08 1517.37 2305.45 1517.37 M2305.45 1513.66 Q2311.26 1513.66 2314.31 1518.27 Q2317.39 1522.85 2317.39 1531.6 Q2317.39 1540.33 2314.31 1544.94 Q2311.26 1549.52 2305.45 1549.52 Q2299.64 1549.52 2296.56 1544.94 Q2293.5 1540.33 2293.5 1531.6 Q2293.5 1522.85 2296.56 1518.27 Q2299.64 1513.66 2305.45 1513.66 Z" fill="#000000" fill-rule="nonzero" fill-opacity="1" /><path clip-path="url(#clip150)" d="M2335.61 1517.37 Q2332 1517.37 2330.17 1520.93 Q2328.37 1524.47 2328.37 1531.6 Q2328.37 1538.71 2330.17 1542.27 Q2332 1545.82 2335.61 1545.82 Q2339.24 1545.82 2341.05 1542.27 Q2342.88 1538.71 2342.88 1531.6 Q2342.88 1524.47 2341.05 1520.93 Q2339.24 1517.37 2335.61 1517.37 M2335.61 1513.66 Q2341.42 1513.66 2344.48 1518.27 Q2347.56 1522.85 2347.56 1531.6 Q2347.56 1540.33 2344.48 1544.94 Q2341.42 1549.52 2335.61 1549.52 Q2329.8 1549.52 2326.72 1544.94 Q2323.67 1540.33 2323.67 1531.6 Q2323.67 1522.85 2326.72 1518.27 Q2329.8 1513.66 2335.61 1513.66 Z" fill="#000000" fill-rule="nonzero" fill-opacity="1" /><polyline clip-path="url(#clip152)" style="stroke:#000000; stroke-linecap:round; stroke-linejoin:round; stroke-width:2; stroke-opacity:0.1; fill:none" points="154.515,1274.67 2352.76,1274.67 "/>
<polyline clip-path="url(#clip152)" style="stroke:#000000; stroke-linecap:round; stroke-linejoin:round; stroke-width:2; stroke-opacity:0.1; fill:none" points="154.515,962.273 2352.76,962.273 "/>
<polyline clip-path="url(#clip152)" style="stroke:#000000; stroke-linecap:round; stroke-linejoin:round; stroke-width:2; stroke-opacity:0.1; fill:none" points="154.515,649.878 2352.76,649.878 "/>
<polyline clip-path="url(#clip152)" style="stroke:#000000; stroke-linecap:round; stroke-linejoin:round; stroke-width:2; stroke-opacity:0.1; fill:none" points="154.515,337.482 2352.76,337.482 "/>
<polyline clip-path="url(#clip150)" style="stroke:#000000; stroke-linecap:round; stroke-linejoin:round; stroke-width:4; stroke-opacity:1; fill:none" points="154.515,1486.45 154.515,47.2441 "/>
<polyline clip-path="url(#clip150)" style="stroke:#000000; stroke-linecap:round; stroke-linejoin:round; stroke-width:4; stroke-opacity:1; fill:none" points="154.515,1274.67 173.413,1274.67 "/>
<polyline clip-path="url(#clip150)" style="stroke:#000000; stroke-linecap:round; stroke-linejoin:round; stroke-width:4; stroke-opacity:1; fill:none" points="154.515,962.273 173.413,962.273 "/>
<polyline clip-path="url(#clip150)" style="stroke:#000000; stroke-linecap:round; stroke-linejoin:round; stroke-width:4; stroke-opacity:1; fill:none" points="154.515,649.878 173.413,649.878 "/>
<polyline clip-path="url(#clip150)" style="stroke:#000000; stroke-linecap:round; stroke-linejoin:round; stroke-width:4; stroke-opacity:1; fill:none" points="154.515,337.482 173.413,337.482 "/>
<path clip-path="url(#clip150)" d="M51.6634 1288.01 L59.3023 1288.01 L59.3023 1261.65 L50.9921 1263.32 L50.9921 1259.06 L59.256 1257.39 L63.9319 1257.39 L63.9319 1288.01 L71.5707 1288.01 L71.5707 1291.95 L51.6634 1291.95 L51.6634 1288.01 Z" fill="#000000" fill-rule="nonzero" fill-opacity="1" /><path clip-path="url(#clip150)" d="M81.0151 1286.07 L85.8993 1286.07 L85.8993 1291.95 L81.0151 1291.95 L81.0151 1286.07 Z" fill="#000000" fill-rule="nonzero" fill-opacity="1" /><path clip-path="url(#clip150)" d="M108.932 1261.46 L97.1261 1279.91 L108.932 1279.91 L108.932 1261.46 M107.705 1257.39 L113.584 1257.39 L113.584 1279.91 L118.515 1279.91 L118.515 1283.8 L113.584 1283.8 L113.584 1291.95 L108.932 1291.95 L108.932 1283.8 L93.3299 1283.8 L93.3299 1279.29 L107.705 1257.39 Z" fill="#000000" fill-rule="nonzero" fill-opacity="1" /><path clip-path="url(#clip150)" d="M53.1449 975.618 L60.7837 975.618 L60.7837 949.253 L52.4736 950.919 L52.4736 946.66 L60.7374 944.993 L65.4133 944.993 L65.4133 975.618 L73.0522 975.618 L73.0522 979.553 L53.1449 979.553 L53.1449 975.618 Z" fill="#000000" fill-rule="nonzero" fill-opacity="1" /><path clip-path="url(#clip150)" d="M82.4966 973.674 L87.3808 973.674 L87.3808 979.553 L82.4966 979.553 L82.4966 973.674 Z" fill="#000000" fill-rule="nonzero" fill-opacity="1" /><path clip-path="url(#clip150)" d="M97.6122 944.993 L115.969 944.993 L115.969 948.929 L101.895 948.929 L101.895 957.401 Q102.913 957.054 103.932 956.892 Q104.95 956.706 105.969 956.706 Q111.756 956.706 115.135 959.878 Q118.515 963.049 118.515 968.466 Q118.515 974.044 115.043 977.146 Q111.571 980.225 105.251 980.225 Q103.075 980.225 100.807 979.854 Q98.5613 979.484 96.1539 978.743 L96.1539 974.044 Q98.2372 975.178 100.459 975.734 Q102.682 976.29 105.159 976.29 Q109.163 976.29 111.501 974.183 Q113.839 972.077 113.839 968.466 Q113.839 964.854 111.501 962.748 Q109.163 960.641 105.159 960.641 Q103.284 960.641 101.409 961.058 Q99.5567 961.475 97.6122 962.354 L97.6122 944.993 Z" fill="#000000" fill-rule="nonzero" fill-opacity="1" /><path clip-path="url(#clip150)" d="M51.9875 663.222 L59.6263 663.222 L59.6263 636.857 L51.3162 638.523 L51.3162 634.264 L59.58 632.598 L64.2559 632.598 L64.2559 663.222 L71.8948 663.222 L71.8948 667.158 L51.9875 667.158 L51.9875 663.222 Z" fill="#000000" fill-rule="nonzero" fill-opacity="1" /><path clip-path="url(#clip150)" d="M81.3392 661.278 L86.2234 661.278 L86.2234 667.158 L81.3392 667.158 L81.3392 661.278 Z" fill="#000000" fill-rule="nonzero" fill-opacity="1" /><path clip-path="url(#clip150)" d="M106.987 648.014 Q103.839 648.014 101.987 650.167 Q100.159 652.32 100.159 656.07 Q100.159 659.796 101.987 661.972 Q103.839 664.125 106.987 664.125 Q110.135 664.125 111.964 661.972 Q113.816 659.796 113.816 656.07 Q113.816 652.32 111.964 650.167 Q110.135 648.014 106.987 648.014 M116.27 633.361 L116.27 637.621 Q114.51 636.787 112.705 636.347 Q110.922 635.908 109.163 635.908 Q104.534 635.908 102.08 639.033 Q99.6493 642.158 99.3021 648.477 Q100.668 646.463 102.728 645.398 Q104.788 644.31 107.265 644.31 Q112.473 644.31 115.483 647.482 Q118.515 650.63 118.515 656.07 Q118.515 661.394 115.367 664.611 Q112.219 667.829 106.987 667.829 Q100.992 667.829 97.8206 663.246 Q94.6493 658.639 94.6493 649.912 Q94.6493 641.718 98.5382 636.857 Q102.427 631.973 108.978 631.973 Q110.737 631.973 112.52 632.32 Q114.325 632.667 116.27 633.361 Z" fill="#000000" fill-rule="nonzero" fill-opacity="1" /><path clip-path="url(#clip150)" d="M53.0523 350.826 L60.6911 350.826 L60.6911 324.461 L52.381 326.128 L52.381 321.868 L60.6449 320.202 L65.3208 320.202 L65.3208 350.826 L72.9596 350.826 L72.9596 354.762 L53.0523 354.762 L53.0523 350.826 Z" fill="#000000" fill-rule="nonzero" fill-opacity="1" /><path clip-path="url(#clip150)" d="M82.404 348.882 L87.2882 348.882 L87.2882 354.762 L82.404 354.762 L82.404 348.882 Z" fill="#000000" fill-rule="nonzero" fill-opacity="1" /><path clip-path="url(#clip150)" d="M96.2928 320.202 L118.515 320.202 L118.515 322.192 L105.969 354.762 L101.084 354.762 L112.89 324.137 L96.2928 324.137 L96.2928 320.202 Z" fill="#000000" fill-rule="nonzero" fill-opacity="1" /><polyline clip-path="url(#clip152)" style="stroke:#009af9; stroke-linecap:round; stroke-linejoin:round; stroke-width:4; stroke-opacity:1; fill:none" points="216.729,87.9763 217.766,92.7317 218.803,97.4651 219.84,102.177 220.877,106.867 221.914,111.535 222.951,116.181 223.988,120.807 225.025,125.411 226.061,129.993 227.098,134.555 228.135,139.096 229.172,143.616 230.209,148.115 231.246,152.593 232.283,157.051 233.32,161.489 234.357,165.906 235.394,170.303 236.43,174.68 237.467,179.037 238.504,183.374 239.541,187.691 240.578,191.988 241.615,196.266 242.652,200.525 243.689,204.764 244.726,208.983 245.763,213.184 246.8,217.365 247.836,221.528 248.873,225.671 249.91,229.796 250.947,233.902 251.984,237.99 253.021,242.059 254.058,246.11 255.095,250.142 256.132,254.156 257.169,258.152 258.206,262.13 259.242,266.09 260.279,270.032 261.316,273.957 262.353,277.864 263.39,281.753 264.427,285.625 265.464,289.479 266.501,293.317 267.538,297.137 268.575,300.94 269.611,304.725 270.648,308.494 271.685,312.247 272.722,315.982 273.759,319.701 274.796,323.403 275.833,327.089 276.87,330.758 277.907,334.411 278.944,338.048 279.981,341.668 281.017,345.273 282.054,348.861 283.091,352.434 284.128,355.991 285.165,359.532 286.202,363.058 287.239,366.568 288.276,370.062 289.313,373.541 290.35,377.005 291.387,380.453 292.423,383.887 293.46,387.305 294.497,390.708 295.534,394.096 296.571,397.47 297.608,400.829 298.645,404.173 299.682,407.502 300.719,410.817 301.756,414.117 302.792,417.403 303.829,420.675 304.866,423.932 305.903,427.175 306.94,430.405 307.977,433.62 309.014,436.821 310.051,440.008 311.088,443.182 312.125,446.341 313.162,449.487 314.198,452.62 315.235,455.739 316.272,458.844 317.309,461.937 318.346,465.015 319.383,468.081 320.42,471.133 321.457,474.173 322.494,477.199 323.531,480.212 324.568,483.212 325.604,486.2 326.641,489.175 327.678,492.137 328.715,495.086 329.752,498.023 330.789,500.947 331.826,503.859 332.863,506.758 333.9,509.645 334.937,512.52 335.973,515.383 337.01,518.233 338.047,521.072 339.084,523.898 340.121,526.713 341.158,529.515 342.195,532.306 343.232,535.085 344.269,537.852 345.306,540.608 346.343,543.352 347.379,546.085 348.416,548.806 349.453,551.516 350.49,554.214 351.527,556.901 352.564,559.577 353.601,562.241 354.638,564.895 355.675,567.537 356.712,570.169 357.749,572.789 358.785,575.399 359.822,577.997 360.859,580.585 361.896,583.163 362.933,585.729 363.97,588.285 365.007,590.83 366.044,593.365 367.081,595.89 368.118,598.404 369.154,600.907 370.191,603.4 371.228,605.884 372.265,608.356 373.302,610.819 374.339,613.272 375.376,615.714 376.413,618.147 377.45,620.569 378.487,622.982 379.524,625.385 380.56,627.778 381.597,630.161 382.634,632.535 383.671,634.899 384.708,637.253 385.745,639.598 386.782,641.934 387.819,644.259 388.856,646.576 389.893,648.883 390.93,651.181 391.966,653.469 393.003,655.749 394.04,658.019 395.077,660.28 396.114,662.532 397.151,664.775 398.188,667.008 399.225,669.233 400.262,671.449 401.299,673.657 402.335,675.855 403.372,678.045 404.409,680.225 405.446,682.398 406.483,684.561 407.52,686.716 408.557,688.862 409.594,691 410.631,693.13 411.668,695.251 412.705,697.363 413.741,699.467 414.778,701.563 415.815,703.651 416.852,705.73 417.889,707.802 418.926,709.865 419.963,711.92 421,713.967 422.037,716.005 423.074,718.036 424.111,720.059 425.147,722.074 426.184,724.082 427.221,726.081 428.258,728.073 429.295,730.057 430.332,732.033 431.369,734.001 432.406,735.962 433.443,737.915 434.48,739.861 435.516,741.799 436.553,743.73 437.59,745.653 438.627,747.569 439.664,749.477 440.701,751.378 441.738,753.272 442.775,755.158 443.812,757.037 444.849,758.909 445.886,760.774 446.922,762.632 447.959,764.483 448.996,766.326 450.033,768.163 451.07,769.992 452.107,771.815 453.144,773.63 454.181,775.439 455.218,777.241 456.255,779.036 457.292,780.824 458.328,782.606 459.365,784.381 460.402,786.149 461.439,787.91 462.476,789.665 463.513,791.413 464.55,793.155 465.587,794.89 466.624,796.618 467.661,798.34 468.697,800.056 469.734,801.765 470.771,803.468 471.808,805.165 472.845,806.855 473.882,808.539 474.919,810.216 475.956,811.888 476.993,813.553 478.03,815.212 479.067,816.865 480.103,818.511 481.14,820.152 482.177,821.787 483.214,823.415 484.251,825.038 485.288,826.654 486.325,828.265 487.362,829.87 488.399,831.469 489.436,833.062 490.472,834.649 491.509,836.23 492.546,837.806 493.583,839.376 494.62,840.94 495.657,842.498 496.694,844.051 497.731,845.598 498.768,847.139 499.805,848.675 500.842,850.206 501.878,851.73 502.915,853.25 503.952,854.763 504.989,856.272 506.026,857.775 507.063,859.272 508.1,860.764 509.137,862.251 510.174,863.732 511.211,865.209 512.248,866.679 513.284,868.145 514.321,869.605 515.358,871.06 516.395,872.51 517.432,873.955 518.469,875.395 519.506,876.829 520.543,878.259 521.58,879.683 522.617,881.102 523.653,882.517 524.69,883.926 525.727,885.33 526.764,886.73 527.801,888.124 528.838,889.514 529.875,890.898 530.912,892.278 531.949,893.653 532.986,895.023 534.023,896.388 535.059,897.749 536.096,899.105 537.133,900.456 538.17,901.802 539.207,903.144 540.244,904.481 541.281,905.813 542.318,907.141 543.355,908.464 544.392,909.783 545.429,911.097 546.465,912.406 547.502,913.711 548.539,915.012 549.576,916.308 550.613,917.599 551.65,918.886 552.687,920.169 553.724,921.447 554.761,922.721 555.798,923.991 556.834,925.256 557.871,926.517 558.908,927.773 559.945,929.026 560.982,930.274 562.019,931.518 563.056,932.757 564.093,933.993 565.13,935.224 566.167,936.451 567.204,937.674 568.24,938.892 569.277,940.107 570.314,941.318 571.351,942.524 572.388,943.727 573.425,944.925 574.462,946.119 575.499,947.31 576.536,948.496 577.573,949.679 578.61,950.857 579.646,952.032 580.683,953.202 581.72,954.369 582.757,955.532 583.794,956.691 584.831,957.846 585.868,958.997 586.905,960.145 587.942,961.289 588.979,962.429 590.015,963.565 591.052,964.697 592.089,965.826 593.126,966.951 594.163,968.072 595.2,969.19 596.237,970.304 597.274,971.414 598.311,972.521 599.348,973.624 600.385,974.723 601.421,975.819 602.458,976.912 603.495,978 604.532,979.086 605.569,980.167 606.606,981.246 607.643,982.32 608.68,983.392 609.717,984.46 610.754,985.524 611.791,986.585 612.827,987.642 613.864,988.696 614.901,989.747 615.938,990.795 616.975,991.839 618.012,992.879 619.049,993.917 620.086,994.951 621.123,995.981 622.16,997.009 623.196,998.033 624.233,999.054 625.27,1000.07 626.307,1001.09 627.344,1002.1 628.381,1003.11 629.418,1004.11 630.455,1005.11 631.492,1006.11 632.529,1007.11 633.566,1008.1 634.602,1009.09 635.639,1010.07 636.676,1011.06 637.713,1012.04 638.75,1013.01 639.787,1013.99 640.824,1014.96 641.861,1015.92 642.898,1016.89 643.935,1017.85 644.972,1018.81 646.008,1019.77 647.045,1020.72 648.082,1021.67 649.119,1022.61 650.156,1023.56 651.193,1024.5 652.23,1025.44 653.267,1026.37 654.304,1027.31 655.341,1028.23 656.377,1029.16 657.414,1030.08 658.451,1031.01 659.488,1031.92 660.525,1032.84 661.562,1033.75 662.599,1034.66 663.636,1035.57 664.673,1036.47 665.71,1037.37 666.747,1038.27 667.783,1039.17 668.82,1040.06 669.857,1040.95 670.894,1041.84 671.931,1042.73 672.968,1043.61 674.005,1044.49 675.042,1045.37 676.079,1046.24 677.116,1047.11 678.153,1047.98 679.189,1048.85 680.226,1049.71 681.263,1050.57 682.3,1051.43 683.337,1052.29 684.374,1053.14 685.411,1053.99 686.448,1054.84 687.485,1055.69 688.522,1056.53 689.558,1057.37 690.595,1058.21 691.632,1059.05 692.669,1059.88 693.706,1060.71 694.743,1061.54 695.78,1062.37 696.817,1063.19 697.854,1064.02 698.891,1064.84 699.928,1065.65 700.964,1066.47 702.001,1067.28 703.038,1068.09 704.075,1068.9 705.112,1069.7 706.149,1070.5 707.186,1071.3 708.223,1072.1 709.26,1072.9 710.297,1073.69 711.334,1074.48 712.37,1075.27 713.407,1076.06 714.444,1076.84 715.481,1077.62 716.518,1078.4 717.555,1079.18 718.592,1079.96 719.629,1080.73 720.666,1081.5 721.703,1082.27 722.739,1083.04 723.776,1083.8 724.813,1084.56 725.85,1085.32 726.887,1086.08 727.924,1086.84 728.961,1087.59 729.998,1088.34 731.035,1089.09 732.072,1089.84 733.109,1090.58 734.145,1091.32 735.182,1092.07 736.219,1092.8 737.256,1093.54 738.293,1094.28 739.33,1095.01 740.367,1095.74 741.404,1096.47 742.441,1097.19 743.478,1097.92 744.514,1098.64 745.551,1099.36 746.588,1100.08 747.625,1100.79 748.662,1101.51 749.699,1102.22 750.736,1102.93 751.773,1103.64 752.81,1104.35 753.847,1105.05 754.884,1105.75 755.92,1106.45 756.957,1107.15 757.994,1107.85 759.031,1108.55 760.068,1109.24 761.105,1109.93 762.142,1110.62 763.179,1111.31 764.216,1111.99 765.253,1112.67 766.29,1113.36 767.326,1114.04 768.363,1114.71 769.4,1115.39 770.437,1116.06 771.474,1116.74 772.511,1117.41 773.548,1118.08 774.585,1118.74 775.622,1119.41 776.659,1120.07 777.695,1120.73 778.732,1121.39 779.769,1122.05 780.806,1122.71 781.843,1123.36 782.88,1124.02 783.917,1124.67 784.954,1125.32 785.991,1125.97 787.028,1126.61 788.065,1127.26 789.101,1127.9 790.138,1128.54 791.175,1129.18 792.212,1129.82 793.249,1130.45 794.286,1131.09 795.323,1131.72 796.36,1132.35 797.397,1132.98 798.434,1133.61 799.471,1134.23 800.507,1134.86 801.544,1135.48 802.581,1136.1 803.618,1136.72 804.655,1137.34 805.692,1137.95 806.729,1138.57 807.766,1139.18 808.803,1139.79 809.84,1140.4 810.876,1141.01 811.913,1141.61 812.95,1142.22 813.987,1142.82 815.024,1143.42 816.061,1144.03 817.098,1144.62 818.135,1145.22 819.172,1145.82 820.209,1146.41 821.246,1147 822.282,1147.59 823.319,1148.18 824.356,1148.77 825.393,1149.36 826.43,1149.94 827.467,1150.53 828.504,1151.11 829.541,1151.69 830.578,1152.27 831.615,1152.85 832.652,1153.42 833.688,1154 834.725,1154.57 835.762,1155.14 836.799,1155.71 837.836,1156.28 838.873,1156.85 839.91,1157.42 840.947,1157.98 841.984,1158.54 843.021,1159.11 844.057,1159.67 845.094,1160.23 846.131,1160.78 847.168,1161.34 848.205,1161.9 849.242,1162.45 850.279,1163 851.316,1163.55 852.353,1164.1 853.39,1164.65 854.427,1165.2 855.463,1165.74 856.5,1166.29 857.537,1166.83 858.574,1167.37 859.611,1167.91 860.648,1168.45 861.685,1168.99 862.722,1169.52 863.759,1170.06 864.796,1170.59 865.833,1171.12 866.869,1171.65 867.906,1172.18 868.943,1172.71 869.98,1173.24 871.017,1173.76 872.054,1174.29 873.091,1174.81 874.128,1175.33 875.165,1175.85 876.202,1176.37 877.238,1176.89 878.275,1177.41 879.312,1177.92 880.349,1178.44 881.386,1178.95 882.423,1179.46 883.46,1179.97 884.497,1180.48 885.534,1180.99 886.571,1181.5 887.608,1182.01 888.644,1182.51 889.681,1183.01 890.718,1183.52 891.755,1184.02 892.792,1184.52 893.829,1185.02 894.866,1185.51 895.903,1186.01 896.94,1186.5 897.977,1187 899.014,1187.49 900.05,1187.98 901.087,1188.47 902.124,1188.96 903.161,1189.45 904.198,1189.94 905.235,1190.42 906.272,1190.91 907.309,1191.39 908.346,1191.88 909.383,1192.36 910.419,1192.84 911.456,1193.32 912.493,1193.79 913.53,1194.27 914.567,1194.75 915.604,1195.22 916.641,1195.7 917.678,1196.17 918.715,1196.64 919.752,1197.11 920.789,1197.58 921.825,1198.05 922.862,1198.52 923.899,1198.98 924.936,1199.45 925.973,1199.91 927.01,1200.37 928.047,1200.84 929.084,1201.3 930.121,1201.76 931.158,1202.21 932.195,1202.67 933.231,1203.13 934.268,1203.58 935.305,1204.04 936.342,1204.49 937.379,1204.95 938.416,1205.4 939.453,1205.85 940.49,1206.3 941.527,1206.75 942.564,1207.19 943.6,1207.64 944.637,1208.08 945.674,1208.53 946.711,1208.97 947.748,1209.41 948.785,1209.86 949.822,1210.3 950.859,1210.74 951.896,1211.17 952.933,1211.61 953.97,1212.05 955.006,1212.48 956.043,1212.92 957.08,1213.35 958.117,1213.79 959.154,1214.22 960.191,1214.65 961.228,1215.08 962.265,1215.51 963.302,1215.94 964.339,1216.36 965.376,1216.79 966.412,1217.21 967.449,1217.64 968.486,1218.06 969.523,1218.48 970.56,1218.91 971.597,1219.33 972.634,1219.75 973.671,1220.16 974.708,1220.58 975.745,1221 976.781,1221.41 977.818,1221.83 978.855,1222.24 979.892,1222.66 980.929,1223.07 981.966,1223.48 983.003,1223.89 984.04,1224.3 985.077,1224.71 986.114,1225.12 987.151,1225.53 988.187,1225.93 989.224,1226.34 990.261,1226.74 991.298,1227.15 992.335,1227.55 993.372,1227.95 994.409,1228.35 995.446,1228.75 996.483,1229.15 997.52,1229.55 998.557,1229.95 999.593,1230.34 1000.63,1230.74 1001.67,1231.14 1002.7,1231.53 1003.74,1231.92 1004.78,1232.32 1005.81,1232.71 1006.85,1233.1 1007.89,1233.49 1008.93,1233.88 1009.96,1234.27 1011,1234.66 1012.04,1235.04 1013.07,1235.43 1014.11,1235.81 1015.15,1236.2 1016.18,1236.58 1017.22,1236.97 1018.26,1237.35 1019.29,1237.73 1020.33,1238.11 1021.37,1238.49 1022.41,1238.87 1023.44,1239.25 1024.48,1239.62 1025.52,1240 1026.55,1240.38 1027.59,1240.75 1028.63,1241.13 1029.66,1241.5 1030.7,1241.87 1031.74,1242.24 1032.77,1242.62 1033.81,1242.99 1034.85,1243.36 1035.89,1243.73 1036.92,1244.09 1037.96,1244.46 1039,1244.83 1040.03,1245.19 1041.07,1245.56 1042.11,1245.92 1043.14,1246.29 1044.18,1246.65 1045.22,1247.01 1046.25,1247.37 1047.29,1247.74 1048.33,1248.1 1049.36,1248.46 1050.4,1248.81 1051.44,1249.17 1052.48,1249.53 1053.51,1249.89 1054.55,1250.24 1055.59,1250.6 1056.62,1250.95 1057.66,1251.31 1058.7,1251.66 1059.73,1252.01 1060.77,1252.36 1061.81,1252.71 1062.84,1253.06 1063.88,1253.41 1064.92,1253.76 1065.96,1254.11 1066.99,1254.46 1068.03,1254.8 1069.07,1255.15 1070.1,1255.5 1071.14,1255.84 1072.18,1256.18 1073.21,1256.53 1074.25,1256.87 1075.29,1257.21 1076.32,1257.55 1077.36,1257.9 1078.4,1258.24 1079.44,1258.57 1080.47,1258.91 1081.51,1259.25 1082.55,1259.59 1083.58,1259.93 1084.62,1260.26 1085.66,1260.6 1086.69,1260.93 1087.73,1261.27 1088.77,1261.6 1089.8,1261.93 1090.84,1262.26 1091.88,1262.6 1092.91,1262.93 1093.95,1263.26 1094.99,1263.59 1096.03,1263.92 1097.06,1264.24 1098.1,1264.57 1099.14,1264.9 1100.17,1265.23 1101.21,1265.55 1102.25,1265.88 1103.28,1266.2 1104.32,1266.53 1105.36,1266.85 1106.39,1267.17 1107.43,1267.49 1108.47,1267.82 1109.51,1268.14 1110.54,1268.46 1111.58,1268.78 1112.62,1269.1 1113.65,1269.42 1114.69,1269.73 1115.73,1270.05 1116.76,1270.37 1117.8,1270.68 1118.84,1271 1119.87,1271.31 1120.91,1271.63 1121.95,1271.94 1122.99,1272.26 1124.02,1272.57 1125.06,1272.88 1126.1,1273.19 1127.13,1273.5 1128.17,1273.81 1129.21,1274.12 1130.24,1274.43 1131.28,1274.74 1132.32,1275.05 1133.35,1275.36 1134.39,1275.66 1135.43,1275.97 1136.47,1276.28 1137.5,1276.58 1138.54,1276.89 1139.58,1277.19 1140.61,1277.49 1141.65,1277.8 1142.69,1278.1 1143.72,1278.4 1144.76,1278.7 1145.8,1279 1146.83,1279.3 1147.87,1279.6 1148.91,1279.9 1149.94,1280.2 1150.98,1280.5 1152.02,1280.8 1153.06,1281.09 1154.09,1281.39 1155.13,1281.68 1156.17,1281.98 1157.2,1282.28 1158.24,1282.57 1159.28,1282.86 1160.31,1283.16 1161.35,1283.45 1162.39,1283.74 1163.42,1284.03 1164.46,1284.32 1165.5,1284.61 1166.54,1284.9 1167.57,1285.19 1168.61,1285.48 1169.65,1285.77 1170.68,1286.06 1171.72,1286.35 1172.76,1286.63 1173.79,1286.92 1174.83,1287.21 1175.87,1287.49 1176.9,1287.78 1177.94,1288.06 1178.98,1288.35 1180.02,1288.63 1181.05,1288.91 1182.09,1289.19 1183.13,1289.48 1184.16,1289.76 1185.2,1290.04 1186.24,1290.32 1187.27,1290.6 1188.31,1290.88 1189.35,1291.16 1190.38,1291.44 1191.42,1291.71 1192.46,1291.99 1193.49,1292.27 1194.53,1292.55 1195.57,1292.82 1196.61,1293.1 1197.64,1293.37 1198.68,1293.65 1199.72,1293.92 1200.75,1294.19 1201.79,1294.47 1202.83,1294.74 1203.86,1295.01 1204.9,1295.28 1205.94,1295.56 1206.97,1295.83 1208.01,1296.1 1209.05,1296.37 1210.09,1296.64 1211.12,1296.91 1212.16,1297.17 1213.2,1297.44 1214.23,1297.71 1215.27,1297.98 1216.31,1298.24 1217.34,1298.51 1218.38,1298.78 1219.42,1299.04 1220.45,1299.31 1221.49,1299.57 1222.53,1299.83 1223.57,1300.1 1224.6,1300.36 1225.64,1300.62 1226.68,1300.89 1227.71,1301.15 1228.75,1301.41 1229.79,1301.67 1230.82,1301.93 1231.86,1302.19 1232.9,1302.45 1233.93,1302.71 1234.97,1302.97 1236.01,1303.23 1237.04,1303.48 1238.08,1303.74 1239.12,1304 1240.16,1304.25 1241.19,1304.51 1242.23,1304.77 1243.27,1305.02 1244.3,1305.28 1245.34,1305.53 1246.38,1305.78 1247.41,1306.04 1248.45,1306.29 1249.49,1306.54 1250.52,1306.8 1251.56,1307.05 1252.6,1307.3 1253.64,1307.55 1254.67,1307.8 1255.71,1308.05 1256.75,1308.3 1257.78,1308.55 1258.82,1308.8 1259.86,1309.05 1260.89,1309.3 1261.93,1309.54 1262.97,1309.79 1264,1310.04 1265.04,1310.28 1266.08,1310.53 1267.12,1310.78 1268.15,1311.02 1269.19,1311.27 1270.23,1311.51 1271.26,1311.75 1272.3,1312 1273.34,1312.24 1274.37,1312.48 1275.41,1312.73 1276.45,1312.97 1277.48,1313.21 1278.52,1313.45 1279.56,1313.69 1280.59,1313.93 1281.63,1314.17 1282.67,1314.41 1283.71,1314.65 1284.74,1314.89 1285.78,1315.13 1286.82,1315.37 1287.85,1315.61 1288.89,1315.84 1289.93,1316.08 1290.96,1316.32 1292,1316.55 1293.04,1316.79 1294.07,1317.03 1295.11,1317.26 1296.15,1317.5 1297.19,1317.73 1298.22,1317.97 1299.26,1318.2 1300.3,1318.43 1301.33,1318.67 1302.37,1318.9 1303.41,1319.13 1304.44,1319.36 1305.48,1319.59 1306.52,1319.82 1307.55,1320.06 1308.59,1320.29 1309.63,1320.52 1310.67,1320.75 1311.7,1320.97 1312.74,1321.2 1313.78,1321.43 1314.81,1321.66 1315.85,1321.89 1316.89,1322.12 1317.92,1322.34 1318.96,1322.57 1320,1322.8 1321.03,1323.02 1322.07,1323.25 1323.11,1323.47 1324.15,1323.7 1325.18,1323.92 1326.22,1324.15 1327.26,1324.37 1328.29,1324.6 1329.33,1324.82 1330.37,1325.04 1331.4,1325.26 1332.44,1325.49 1333.48,1325.71 1334.51,1325.93 1335.55,1326.15 1336.59,1326.37 1337.62,1326.59 1338.66,1326.81 1339.7,1327.03 1340.74,1327.25 1341.77,1327.47 1342.81,1327.69 1343.85,1327.91 1344.88,1328.13 1345.92,1328.35 1346.96,1328.56 1347.99,1328.78 1349.03,1329 1350.07,1329.21 1351.1,1329.43 1352.14,1329.65 1353.18,1329.86 1354.22,1330.08 1355.25,1330.29 1356.29,1330.51 1357.33,1330.72 1358.36,1330.93 1359.4,1331.15 1360.44,1331.36 1361.47,1331.57 1362.51,1331.79 1363.55,1332 1364.58,1332.21 1365.62,1332.42 1366.66,1332.63 1367.7,1332.85 1368.73,1333.06 1369.77,1333.27 1370.81,1333.48 1371.84,1333.69 1372.88,1333.9 1373.92,1334.11 1374.95,1334.31 1375.99,1334.52 1377.03,1334.73 1378.06,1334.94 1379.1,1335.15 1380.14,1335.35 1381.17,1335.56 1382.21,1335.77 1383.25,1335.97 1384.29,1336.18 1385.32,1336.39 1386.36,1336.59 1387.4,1336.8 1388.43,1337 1389.47,1337.21 1390.51,1337.41 1391.54,1337.61 1392.58,1337.82 1393.62,1338.02 1394.65,1338.22 1395.69,1338.43 1396.73,1338.63 1397.77,1338.83 1398.8,1339.03 1399.84,1339.23 1400.88,1339.44 1401.91,1339.64 1402.95,1339.84 1403.99,1340.04 1405.02,1340.24 1406.06,1340.44 1407.1,1340.64 1408.13,1340.84 1409.17,1341.04 1410.21,1341.23 1411.25,1341.43 1412.28,1341.63 1413.32,1341.83 1414.36,1342.03 1415.39,1342.22 1416.43,1342.42 1417.47,1342.62 1418.5,1342.81 1419.54,1343.01 1420.58,1343.2 1421.61,1343.4 1422.65,1343.6 1423.69,1343.79 1424.72,1343.99 1425.76,1344.18 1426.8,1344.37 1427.84,1344.57 1428.87,1344.76 1429.91,1344.95 1430.95,1345.15 1431.98,1345.34 1433.02,1345.53 1434.06,1345.72 1435.09,1345.92 1436.13,1346.11 1437.17,1346.3 1438.2,1346.49 1439.24,1346.68 1440.28,1346.87 1441.32,1347.06 1442.35,1347.25 1443.39,1347.44 1444.43,1347.63 1445.46,1347.82 1446.5,1348.01 1447.54,1348.2 1448.57,1348.39 1449.61,1348.57 1450.65,1348.76 1451.68,1348.95 1452.72,1349.14 1453.76,1349.32 1454.8,1349.51 1455.83,1349.7 1456.87,1349.88 1457.91,1350.07 1458.94,1350.26 1459.98,1350.44 1461.02,1350.63 1462.05,1350.81 1463.09,1351 1464.13,1351.18 1465.16,1351.36 1466.2,1351.55 1467.24,1351.73 1468.27,1351.92 1469.31,1352.1 1470.35,1352.28 1471.39,1352.46 1472.42,1352.65 1473.46,1352.83 1474.5,1353.01 1475.53,1353.19 1476.57,1353.37 1477.61,1353.56 1478.64,1353.74 1479.68,1353.92 1480.72,1354.1 1481.75,1354.28 1482.79,1354.46 1483.83,1354.64 1484.87,1354.82 1485.9,1355 1486.94,1355.17 1487.98,1355.35 1489.01,1355.53 1490.05,1355.71 1491.09,1355.89 1492.12,1356.07 1493.16,1356.24 1494.2,1356.42 1495.23,1356.6 1496.27,1356.77 1497.31,1356.95 1498.35,1357.13 1499.38,1357.3 1500.42,1357.48 1501.46,1357.65 1502.49,1357.83 1503.53,1358 1504.57,1358.18 1505.6,1358.35 1506.64,1358.53 1507.68,1358.7 1508.71,1358.88 1509.75,1359.05 1510.79,1359.22 1511.83,1359.4 1512.86,1359.57 1513.9,1359.74 1514.94,1359.91 1515.97,1360.09 1517.01,1360.26 1518.05,1360.43 1519.08,1360.6 1520.12,1360.77 1521.16,1360.94 1522.19,1361.11 1523.23,1361.29 1524.27,1361.46 1525.3,1361.63 1526.34,1361.8 1527.38,1361.97 1528.42,1362.14 1529.45,1362.3 1530.49,1362.47 1531.53,1362.64 1532.56,1362.81 1533.6,1362.98 1534.64,1363.15 1535.67,1363.32 1536.71,1363.48 1537.75,1363.65 1538.78,1363.82 1539.82,1363.98 1540.86,1364.15 1541.9,1364.32 1542.93,1364.48 1543.97,1364.65 1545.01,1364.82 1546.04,1364.98 1547.08,1365.15 1548.12,1365.31 1549.15,1365.48 1550.19,1365.64 1551.23,1365.81 1552.26,1365.97 1553.3,1366.14 1554.34,1366.3 1555.38,1366.46 1556.41,1366.63 1557.45,1366.79 1558.49,1366.95 1559.52,1367.12 1560.56,1367.28 1561.6,1367.44 1562.63,1367.6 1563.67,1367.77 1564.71,1367.93 1565.74,1368.09 1566.78,1368.25 1567.82,1368.41 1568.85,1368.57 1569.89,1368.73 1570.93,1368.89 1571.97,1369.06 1573,1369.22 1574.04,1369.38 1575.08,1369.54 1576.11,1369.69 1577.15,1369.85 1578.19,1370.01 1579.22,1370.17 1580.26,1370.33 1581.3,1370.49 1582.33,1370.65 1583.37,1370.81 1584.41,1370.96 1585.45,1371.12 1586.48,1371.28 1587.52,1371.44 1588.56,1371.59 1589.59,1371.75 1590.63,1371.91 1591.67,1372.06 1592.7,1372.22 1593.74,1372.38 1594.78,1372.53 1595.81,1372.69 1596.85,1372.84 1597.89,1373 1598.93,1373.15 1599.96,1373.31 1601,1373.46 1602.04,1373.62 1603.07,1373.77 1604.11,1373.93 1605.15,1374.08 1606.18,1374.23 1607.22,1374.39 1608.26,1374.54 1609.29,1374.69 1610.33,1374.85 1611.37,1375 1612.4,1375.15 1613.44,1375.3 1614.48,1375.46 1615.52,1375.61 1616.55,1375.76 1617.59,1375.91 1618.63,1376.06 1619.66,1376.21 1620.7,1376.37 1621.74,1376.52 1622.77,1376.67 1623.81,1376.82 1624.85,1376.97 1625.88,1377.12 1626.92,1377.27 1627.96,1377.42 1629,1377.57 1630.03,1377.72 1631.07,1377.87 1632.11,1378.02 1633.14,1378.16 1634.18,1378.31 1635.22,1378.46 1636.25,1378.61 1637.29,1378.76 1638.33,1378.91 1639.36,1379.05 1640.4,1379.2 1641.44,1379.35 1642.48,1379.49 1643.51,1379.64 1644.55,1379.79 1645.59,1379.94 1646.62,1380.08 1647.66,1380.23 1648.7,1380.37 1649.73,1380.52 1650.77,1380.67 1651.81,1380.81 1652.84,1380.96 1653.88,1381.1 1654.92,1381.25 1655.95,1381.39 1656.99,1381.54 1658.03,1381.68 1659.07,1381.82 1660.1,1381.97 1661.14,1382.11 1662.18,1382.26 1663.21,1382.4 1664.25,1382.54 1665.29,1382.69 1666.32,1382.83 1667.36,1382.97 1668.4,1383.12 1669.43,1383.26 1670.47,1383.4 1671.51,1383.54 1672.55,1383.68 1673.58,1383.83 1674.62,1383.97 1675.66,1384.11 1676.69,1384.25 1677.73,1384.39 1678.77,1384.53 1679.8,1384.67 1680.84,1384.81 1681.88,1384.95 1682.91,1385.09 1683.95,1385.23 1684.99,1385.37 1686.03,1385.51 1687.06,1385.65 1688.1,1385.79 1689.14,1385.93 1690.17,1386.07 1691.21,1386.21 1692.25,1386.35 1693.28,1386.49 1694.32,1386.63 1695.36,1386.77 1696.39,1386.9 1697.43,1387.04 1698.47,1387.18 1699.51,1387.32 1700.54,1387.45 1701.58,1387.59 1702.62,1387.73 1703.65,1387.87 1704.69,1388 1705.73,1388.14 1706.76,1388.28 1707.8,1388.41 1708.84,1388.55 1709.87,1388.68 1710.91,1388.82 1711.95,1388.96 1712.98,1389.09 1714.02,1389.23 1715.06,1389.36 1716.1,1389.5 1717.13,1389.63 1718.17,1389.77 1719.21,1389.9 1720.24,1390.03 1721.28,1390.17 1722.32,1390.3 1723.35,1390.44 1724.39,1390.57 1725.43,1390.7 1726.46,1390.84 1727.5,1390.97 1728.54,1391.1 1729.58,1391.24 1730.61,1391.37 1731.65,1391.5 1732.69,1391.63 1733.72,1391.77 1734.76,1391.9 1735.8,1392.03 1736.83,1392.16 1737.87,1392.29 1738.91,1392.43 1739.94,1392.56 1740.98,1392.69 1742.02,1392.82 1743.06,1392.95 1744.09,1393.08 1745.13,1393.21 1746.17,1393.34 1747.2,1393.47 1748.24,1393.6 1749.28,1393.73 1750.31,1393.86 1751.35,1393.99 1752.39,1394.12 1753.42,1394.25 1754.46,1394.38 1755.5,1394.51 1756.53,1394.64 1757.57,1394.77 1758.61,1394.9 1759.65,1395.03 1760.68,1395.15 1761.72,1395.28 1762.76,1395.41 1763.79,1395.54 1764.83,1395.67 1765.87,1395.79 1766.9,1395.92 1767.94,1396.05 1768.98,1396.18 1770.01,1396.3 1771.05,1396.43 1772.09,1396.56 1773.13,1396.68 1774.16,1396.81 1775.2,1396.94 1776.24,1397.06 1777.27,1397.19 1778.31,1397.31 1779.35,1397.44 1780.38,1397.57 1781.42,1397.69 1782.46,1397.82 1783.49,1397.94 1784.53,1398.07 1785.57,1398.19 1786.61,1398.32 1787.64,1398.44 1788.68,1398.57 1789.72,1398.69 1790.75,1398.81 1791.79,1398.94 1792.83,1399.06 1793.86,1399.19 1794.9,1399.31 1795.94,1399.43 1796.97,1399.56 1798.01,1399.68 1799.05,1399.8 1800.08,1399.92 1801.12,1400.05 1802.16,1400.17 1803.2,1400.29 1804.23,1400.42 1805.27,1400.54 1806.31,1400.66 1807.34,1400.78 1808.38,1400.9 1809.42,1401.02 1810.45,1401.15 1811.49,1401.27 1812.53,1401.39 1813.56,1401.51 1814.6,1401.63 1815.64,1401.75 1816.68,1401.87 1817.71,1401.99 1818.75,1402.11 1819.79,1402.23 1820.82,1402.35 1821.86,1402.47 1822.9,1402.59 1823.93,1402.71 1824.97,1402.83 1826.01,1402.95 1827.04,1403.07 1828.08,1403.19 1829.12,1403.31 1830.16,1403.43 1831.19,1403.55 1832.23,1403.67 1833.27,1403.79 1834.3,1403.9 1835.34,1404.02 1836.38,1404.14 1837.41,1404.26 1838.45,1404.38 1839.49,1404.49 1840.52,1404.61 1841.56,1404.73 1842.6,1404.85 1843.63,1404.96 1844.67,1405.08 1845.71,1405.2 1846.75,1405.32 1847.78,1405.43 1848.82,1405.55 1849.86,1405.67 1850.89,1405.78 1851.93,1405.9 1852.97,1406.01 1854,1406.13 1855.04,1406.25 1856.08,1406.36 1857.11,1406.48 1858.15,1406.59 1859.19,1406.71 1860.23,1406.82 1861.26,1406.94 1862.3,1407.05 1863.34,1407.17 1864.37,1407.28 1865.41,1407.4 1866.45,1407.51 1867.48,1407.63 1868.52,1407.74 1869.56,1407.86 1870.59,1407.97 1871.63,1408.08 1872.67,1408.2 1873.71,1408.31 1874.74,1408.42 1875.78,1408.54 1876.82,1408.65 1877.85,1408.76 1878.89,1408.88 1879.93,1408.99 1880.96,1409.1 1882,1409.21 1883.04,1409.33 1884.07,1409.44 1885.11,1409.55 1886.15,1409.66 1887.19,1409.78 1888.22,1409.89 1889.26,1410 1890.3,1410.11 1891.33,1410.22 1892.37,1410.33 1893.41,1410.45 1894.44,1410.56 1895.48,1410.67 1896.52,1410.78 1897.55,1410.89 1898.59,1411 1899.63,1411.11 1900.66,1411.22 1901.7,1411.33 1902.74,1411.44 1903.78,1411.55 1904.81,1411.66 1905.85,1411.77 1906.89,1411.88 1907.92,1411.99 1908.96,1412.1 1910,1412.21 1911.03,1412.32 1912.07,1412.43 1913.11,1412.54 1914.14,1412.65 1915.18,1412.75 1916.22,1412.86 1917.26,1412.97 1918.29,1413.08 1919.33,1413.19 1920.37,1413.3 1921.4,1413.41 1922.44,1413.51 1923.48,1413.62 1924.51,1413.73 1925.55,1413.84 1926.59,1413.94 1927.62,1414.05 1928.66,1414.16 1929.7,1414.27 1930.74,1414.37 1931.77,1414.48 1932.81,1414.59 1933.85,1414.69 1934.88,1414.8 1935.92,1414.91 1936.96,1415.01 1937.99,1415.12 1939.03,1415.23 1940.07,1415.33 1941.1,1415.44 1942.14,1415.54 1943.18,1415.65 1944.21,1415.75 1945.25,1415.86 1946.29,1415.97 1947.33,1416.07 1948.36,1416.18 1949.4,1416.28 1950.44,1416.39 1951.47,1416.49 1952.51,1416.6 1953.55,1416.7 1954.58,1416.8 1955.62,1416.91 1956.66,1417.01 1957.69,1417.12 1958.73,1417.22 1959.77,1417.33 1960.81,1417.43 1961.84,1417.53 1962.88,1417.64 1963.92,1417.74 1964.95,1417.84 1965.99,1417.95 1967.03,1418.05 1968.06,1418.15 1969.1,1418.26 1970.14,1418.36 1971.17,1418.46 1972.21,1418.56 1973.25,1418.67 1974.29,1418.77 1975.32,1418.87 1976.36,1418.97 1977.4,1419.08 1978.43,1419.18 1979.47,1419.28 1980.51,1419.38 1981.54,1419.48 1982.58,1419.59 1983.62,1419.69 1984.65,1419.79 1985.69,1419.89 1986.73,1419.99 1987.76,1420.09 1988.8,1420.19 1989.84,1420.29 1990.88,1420.39 1991.91,1420.5 1992.95,1420.6 1993.99,1420.7 1995.02,1420.8 1996.06,1420.9 1997.1,1421 1998.13,1421.1 1999.17,1421.2 2000.21,1421.3 2001.24,1421.4 2002.28,1421.5 2003.32,1421.6 2004.36,1421.7 2005.39,1421.79 2006.43,1421.89 2007.47,1421.99 2008.5,1422.09 2009.54,1422.19 2010.58,1422.29 2011.61,1422.39 2012.65,1422.49 2013.69,1422.59 2014.72,1422.68 2015.76,1422.78 2016.8,1422.88 2017.84,1422.98 2018.87,1423.08 2019.91,1423.17 2020.95,1423.27 2021.98,1423.37 2023.02,1423.47 2024.06,1423.57 2025.09,1423.66 2026.13,1423.76 2027.17,1423.86 2028.2,1423.95 2029.24,1424.05 2030.28,1424.15 2031.32,1424.25 2032.35,1424.34 2033.39,1424.44 2034.43,1424.54 2035.46,1424.63 2036.5,1424.73 2037.54,1424.82 2038.57,1424.92 2039.61,1425.02 2040.65,1425.11 2041.68,1425.21 2042.72,1425.3 2043.76,1425.4 2044.79,1425.5 2045.83,1425.59 2046.87,1425.69 2047.91,1425.78 2048.94,1425.88 2049.98,1425.97 2051.02,1426.07 2052.05,1426.16 2053.09,1426.26 2054.13,1426.35 2055.16,1426.45 2056.2,1426.54 2057.24,1426.64 2058.27,1426.73 2059.31,1426.82 2060.35,1426.92 2061.39,1427.01 2062.42,1427.11 2063.46,1427.2 2064.5,1427.29 2065.53,1427.39 2066.57,1427.48 2067.61,1427.57 2068.64,1427.67 2069.68,1427.76 2070.72,1427.85 2071.75,1427.95 2072.79,1428.04 2073.83,1428.13 2074.87,1428.23 2075.9,1428.32 2076.94,1428.41 2077.98,1428.5 2079.01,1428.6 2080.05,1428.69 2081.09,1428.78 2082.12,1428.87 2083.16,1428.97 2084.2,1429.06 2085.23,1429.15 2086.27,1429.24 2087.31,1429.33 2088.34,1429.42 2089.38,1429.52 2090.42,1429.61 2091.46,1429.7 2092.49,1429.79 2093.53,1429.88 2094.57,1429.97 2095.6,1430.06 2096.64,1430.15 2097.68,1430.25 2098.71,1430.34 2099.75,1430.43 2100.79,1430.52 2101.82,1430.61 2102.86,1430.7 2103.9,1430.79 2104.94,1430.88 2105.97,1430.97 2107.01,1431.06 2108.05,1431.15 2109.08,1431.24 2110.12,1431.33 2111.16,1431.42 2112.19,1431.51 2113.23,1431.6 2114.27,1431.69 2115.3,1431.78 2116.34,1431.87 2117.38,1431.96 2118.42,1432.04 2119.45,1432.13 2120.49,1432.22 2121.53,1432.31 2122.56,1432.4 2123.6,1432.49 2124.64,1432.58 2125.67,1432.67 2126.71,1432.75 2127.75,1432.84 2128.78,1432.93 2129.82,1433.02 2130.86,1433.11 2131.89,1433.19 2132.93,1433.28 2133.97,1433.37 2135.01,1433.46 2136.04,1433.55 2137.08,1433.63 2138.12,1433.72 2139.15,1433.81 2140.19,1433.9 2141.23,1433.98 2142.26,1434.07 2143.3,1434.16 2144.34,1434.24 2145.37,1434.33 2146.41,1434.42 2147.45,1434.5 2148.49,1434.59 2149.52,1434.68 2150.56,1434.76 2151.6,1434.85 2152.63,1434.94 2153.67,1435.02 2154.71,1435.11 2155.74,1435.19 2156.78,1435.28 2157.82,1435.37 2158.85,1435.45 2159.89,1435.54 2160.93,1435.62 2161.97,1435.71 2163,1435.79 2164.04,1435.88 2165.08,1435.97 2166.11,1436.05 2167.15,1436.14 2168.19,1436.22 2169.22,1436.31 2170.26,1436.39 2171.3,1436.48 2172.33,1436.56 2173.37,1436.64 2174.41,1436.73 2175.44,1436.81 2176.48,1436.9 2177.52,1436.98 2178.56,1437.07 2179.59,1437.15 2180.63,1437.23 2181.67,1437.32 2182.7,1437.4 2183.74,1437.49 2184.78,1437.57 2185.81,1437.65 2186.85,1437.74 2187.89,1437.82 2188.92,1437.9 2189.96,1437.99 2191,1438.07 2192.04,1438.15 2193.07,1438.24 2194.11,1438.32 2195.15,1438.4 2196.18,1438.49 2197.22,1438.57 2198.26,1438.65 2199.29,1438.73 2200.33,1438.82 2201.37,1438.9 2202.4,1438.98 2203.44,1439.06 2204.48,1439.15 2205.52,1439.23 2206.55,1439.31 2207.59,1439.39 2208.63,1439.48 2209.66,1439.56 2210.7,1439.64 2211.74,1439.72 2212.77,1439.8 2213.81,1439.88 2214.85,1439.97 2215.88,1440.05 2216.92,1440.13 2217.96,1440.21 2219,1440.29 2220.03,1440.37 2221.07,1440.45 2222.11,1440.53 2223.14,1440.61 2224.18,1440.7 2225.22,1440.78 2226.25,1440.86 2227.29,1440.94 2228.33,1441.02 2229.36,1441.1 2230.4,1441.18 2231.44,1441.26 2232.47,1441.34 2233.51,1441.42 2234.55,1441.5 2235.59,1441.58 2236.62,1441.66 2237.66,1441.74 2238.7,1441.82 2239.73,1441.9 2240.77,1441.98 2241.81,1442.06 2242.84,1442.14 2243.88,1442.22 2244.92,1442.3 2245.95,1442.38 2246.99,1442.45 2248.03,1442.53 2249.07,1442.61 2250.1,1442.69 2251.14,1442.77 2252.18,1442.85 2253.21,1442.93 2254.25,1443.01 2255.29,1443.09 2256.32,1443.16 2257.36,1443.24 2258.4,1443.32 2259.43,1443.4 2260.47,1443.48 2261.51,1443.56 2262.55,1443.63 2263.58,1443.71 2264.62,1443.79 2265.66,1443.87 2266.69,1443.95 2267.73,1444.02 2268.77,1444.1 2269.8,1444.18 2270.84,1444.26 2271.88,1444.33 2272.91,1444.41 2273.95,1444.49 2274.99,1444.57 2276.02,1444.64 2277.06,1444.72 2278.1,1444.8 2279.14,1444.87 2280.17,1444.95 2281.21,1445.03 2282.25,1445.1 2283.28,1445.18 2284.32,1445.26 2285.36,1445.33 2286.39,1445.41 2287.43,1445.49 2288.47,1445.56 2289.5,1445.64 2290.54,1445.72 "/>
<path clip-path="url(#clip150)" d="M2007.23 198.898 L2279.48 198.898 L2279.48 95.2176 L2007.23 95.2176  Z" fill="#ffffff" fill-rule="evenodd" fill-opacity="1"/>
<polyline clip-path="url(#clip150)" style="stroke:#000000; stroke-linecap:round; stroke-linejoin:round; stroke-width:4; stroke-opacity:1; fill:none" points="2007.23,198.898 2279.48,198.898 2279.48,95.2176 2007.23,95.2176 2007.23,198.898 "/>
<polyline clip-path="url(#clip150)" style="stroke:#009af9; stroke-linecap:round; stroke-linejoin:round; stroke-width:4; stroke-opacity:1; fill:none" points="2031.65,147.058 2178.2,147.058 "/>
<path clip-path="url(#clip150)" d="M2216.47 166.745 Q2214.66 171.375 2212.95 172.787 Q2211.24 174.199 2208.37 174.199 L2204.96 174.199 L2204.96 170.634 L2207.46 170.634 Q2209.22 170.634 2210.2 169.8 Q2211.17 168.967 2212.35 165.865 L2213.11 163.921 L2202.63 138.412 L2207.14 138.412 L2215.24 158.689 L2223.34 138.412 L2227.86 138.412 L2216.47 166.745 Z" fill="#000000" fill-rule="nonzero" fill-opacity="1" /><path clip-path="url(#clip150)" d="M2235.15 160.402 L2242.79 160.402 L2242.79 134.037 L2234.48 135.703 L2234.48 131.444 L2242.74 129.778 L2247.42 129.778 L2247.42 160.402 L2255.06 160.402 L2255.06 164.338 L2235.15 164.338 L2235.15 160.402 Z" fill="#000000" fill-rule="nonzero" fill-opacity="1" /></svg>
