<?xml version="1.0" encoding="utf-8"?>
<svg xmlns="http://www.w3.org/2000/svg" xmlns:xlink="http://www.w3.org/1999/xlink" width="600" height="400" viewBox="0 0 2400 1600">
<defs>
  <clipPath id="clip570">
    <rect x="0" y="0" width="2400" height="1600"/>
  </clipPath>
</defs>
<path clip-path="url(#clip570)" d="M0 1600 L2400 1600 L2400 0 L0 0  Z" fill="#ffffff" fill-rule="evenodd" fill-opacity="1"/>
<defs>
  <clipPath id="clip571">
    <rect x="480" y="0" width="1681" height="1600"/>
  </clipPath>
</defs>
<path clip-path="url(#clip570)" d="M112.177 1486.45 L2352.76 1486.45 L2352.76 47.2441 L112.177 47.2441  Z" fill="#ffffff" fill-rule="evenodd" fill-opacity="1"/>
<defs>
  <clipPath id="clip572">
    <rect x="112" y="47" width="2242" height="1440"/>
  </clipPath>
</defs>
<polyline clip-path="url(#clip572)" style="stroke:#000000; stroke-linecap:round; stroke-linejoin:round; stroke-width:2; stroke-opacity:0.1; fill:none" points="175.59,1486.45 175.59,47.2441 "/>
<polyline clip-path="url(#clip572)" style="stroke:#000000; stroke-linecap:round; stroke-linejoin:round; stroke-width:2; stroke-opacity:0.1; fill:none" points="704.028,1486.45 704.028,47.2441 "/>
<polyline clip-path="url(#clip572)" style="stroke:#000000; stroke-linecap:round; stroke-linejoin:round; stroke-width:2; stroke-opacity:0.1; fill:none" points="1232.47,1486.45 1232.47,47.2441 "/>
<polyline clip-path="url(#clip572)" style="stroke:#000000; stroke-linecap:round; stroke-linejoin:round; stroke-width:2; stroke-opacity:0.1; fill:none" points="1760.9,1486.45 1760.9,47.2441 "/>
<polyline clip-path="url(#clip572)" style="stroke:#000000; stroke-linecap:round; stroke-linejoin:round; stroke-width:2; stroke-opacity:0.1; fill:none" points="2289.34,1486.45 2289.34,47.2441 "/>
<polyline clip-path="url(#clip570)" style="stroke:#000000; stroke-linecap:round; stroke-linejoin:round; stroke-width:4; stroke-opacity:1; fill:none" points="112.177,1486.45 2352.76,1486.45 "/>
<polyline clip-path="url(#clip570)" style="stroke:#000000; stroke-linecap:round; stroke-linejoin:round; stroke-width:4; stroke-opacity:1; fill:none" points="175.59,1486.45 175.59,1467.55 "/>
<polyline clip-path="url(#clip570)" style="stroke:#000000; stroke-linecap:round; stroke-linejoin:round; stroke-width:4; stroke-opacity:1; fill:none" points="704.028,1486.45 704.028,1467.55 "/>
<polyline clip-path="url(#clip570)" style="stroke:#000000; stroke-linecap:round; stroke-linejoin:round; stroke-width:4; stroke-opacity:1; fill:none" points="1232.47,1486.45 1232.47,1467.55 "/>
<polyline clip-path="url(#clip570)" style="stroke:#000000; stroke-linecap:round; stroke-linejoin:round; stroke-width:4; stroke-opacity:1; fill:none" points="1760.9,1486.45 1760.9,1467.55 "/>
<polyline clip-path="url(#clip570)" style="stroke:#000000; stroke-linecap:round; stroke-linejoin:round; stroke-width:4; stroke-opacity:1; fill:none" points="2289.34,1486.45 2289.34,1467.55 "/>
<path clip-path="url(#clip570)" d="M175.59 1517.37 Q171.979 1517.37 170.15 1520.93 Q168.344 1524.47 168.344 1531.6 Q168.344 1538.71 170.15 1542.27 Q171.979 1545.82 175.59 1545.82 Q179.224 1545.82 181.03 1542.27 Q182.858 1538.71 182.858 1531.6 Q182.858 1524.47 181.03 1520.93 Q179.224 1517.37 175.59 1517.37 M175.59 1513.66 Q181.4 1513.66 184.455 1518.27 Q187.534 1522.85 187.534 1531.6 Q187.534 1540.33 184.455 1544.94 Q181.4 1549.52 175.59 1549.52 Q169.78 1549.52 166.701 1544.94 Q163.645 1540.33 163.645 1531.6 Q163.645 1522.85 166.701 1518.27 Q169.78 1513.66 175.59 1513.66 Z" fill="#000000" fill-rule="nonzero" fill-opacity="1" /><path clip-path="url(#clip570)" d="M663.646 1514.29 L682.003 1514.29 L682.003 1518.22 L667.929 1518.22 L667.929 1526.7 Q668.947 1526.35 669.966 1526.19 Q670.984 1526 672.003 1526 Q677.79 1526 681.169 1529.17 Q684.549 1532.34 684.549 1537.76 Q684.549 1543.34 681.077 1546.44 Q677.605 1549.52 671.285 1549.52 Q669.109 1549.52 666.841 1549.15 Q664.596 1548.78 662.188 1548.04 L662.188 1543.34 Q664.271 1544.47 666.494 1545.03 Q668.716 1545.58 671.193 1545.58 Q675.197 1545.58 677.535 1543.48 Q679.873 1541.37 679.873 1537.76 Q679.873 1534.15 677.535 1532.04 Q675.197 1529.94 671.193 1529.94 Q669.318 1529.94 667.443 1530.35 Q665.591 1530.77 663.646 1531.65 L663.646 1514.29 Z" fill="#000000" fill-rule="nonzero" fill-opacity="1" /><path clip-path="url(#clip570)" d="M703.762 1517.37 Q700.151 1517.37 698.322 1520.93 Q696.517 1524.47 696.517 1531.6 Q696.517 1538.71 698.322 1542.27 Q700.151 1545.82 703.762 1545.82 Q707.396 1545.82 709.202 1542.27 Q711.03 1538.71 711.03 1531.6 Q711.03 1524.47 709.202 1520.93 Q707.396 1517.37 703.762 1517.37 M703.762 1513.66 Q709.572 1513.66 712.628 1518.27 Q715.706 1522.85 715.706 1531.6 Q715.706 1540.33 712.628 1544.94 Q709.572 1549.52 703.762 1549.52 Q697.952 1549.52 694.873 1544.94 Q691.818 1540.33 691.818 1531.6 Q691.818 1522.85 694.873 1518.27 Q697.952 1513.66 703.762 1513.66 Z" fill="#000000" fill-rule="nonzero" fill-opacity="1" /><path clip-path="url(#clip570)" d="M733.924 1517.37 Q730.313 1517.37 728.484 1520.93 Q726.679 1524.47 726.679 1531.6 Q726.679 1538.71 728.484 1542.27 Q730.313 1545.82 733.924 1545.82 Q737.558 1545.82 739.364 1542.27 Q741.192 1538.71 741.192 1531.6 Q741.192 1524.47 739.364 1520.93 Q737.558 1517.37 733.924 1517.37 M733.924 1513.66 Q739.734 1513.66 742.79 1518.27 Q745.868 1522.85 745.868 1531.6 Q745.868 1540.33 742.79 1544.94 Q739.734 1549.52 733.924 1549.52 Q728.114 1549.52 725.035 1544.94 Q721.979 1540.33 721.979 1531.6 Q721.979 1522.85 725.035 1518.27 Q728.114 1513.66 733.924 1513.66 Z" fill="#000000" fill-rule="nonzero" fill-opacity="1" /><path clip-path="url(#clip570)" d="M1176.99 1544.91 L1184.63 1544.91 L1184.63 1518.55 L1176.32 1520.21 L1176.32 1515.95 L1184.58 1514.29 L1189.26 1514.29 L1189.26 1544.91 L1196.9 1544.91 L1196.9 1548.85 L1176.99 1548.85 L1176.99 1544.91 Z" fill="#000000" fill-rule="nonzero" fill-opacity="1" /><path clip-path="url(#clip570)" d="M1216.34 1517.37 Q1212.73 1517.37 1210.9 1520.93 Q1209.1 1524.47 1209.1 1531.6 Q1209.1 1538.71 1210.9 1542.27 Q1212.73 1545.82 1216.34 1545.82 Q1219.98 1545.82 1221.78 1542.27 Q1223.61 1538.71 1223.61 1531.6 Q1223.61 1524.47 1221.78 1520.93 Q1219.98 1517.37 1216.34 1517.37 M1216.34 1513.66 Q1222.15 1513.66 1225.21 1518.27 Q1228.29 1522.85 1228.29 1531.6 Q1228.29 1540.33 1225.21 1544.94 Q1222.15 1549.52 1216.34 1549.52 Q1210.53 1549.52 1207.46 1544.94 Q1204.4 1540.33 1204.4 1531.6 Q1204.4 1522.85 1207.46 1518.27 Q1210.53 1513.66 1216.34 1513.66 Z" fill="#000000" fill-rule="nonzero" fill-opacity="1" /><path clip-path="url(#clip570)" d="M1246.51 1517.37 Q1242.89 1517.37 1241.07 1520.93 Q1239.26 1524.47 1239.26 1531.6 Q1239.26 1538.71 1241.07 1542.27 Q1242.89 1545.82 1246.51 1545.82 Q1250.14 1545.82 1251.95 1542.27 Q1253.77 1538.71 1253.77 1531.6 Q1253.77 1524.47 1251.95 1520.93 Q1250.14 1517.37 1246.51 1517.37 M1246.51 1513.66 Q1252.32 1513.66 1255.37 1518.27 Q1258.45 1522.85 1258.45 1531.6 Q1258.45 1540.33 1255.37 1544.94 Q1252.32 1549.52 1246.51 1549.52 Q1240.7 1549.52 1237.62 1544.94 Q1234.56 1540.33 1234.56 1531.6 Q1234.56 1522.85 1237.62 1518.27 Q1240.7 1513.66 1246.51 1513.66 Z" fill="#000000" fill-rule="nonzero" fill-opacity="1" /><path clip-path="url(#clip570)" d="M1276.67 1517.37 Q1273.06 1517.37 1271.23 1520.93 Q1269.42 1524.47 1269.42 1531.6 Q1269.42 1538.71 1271.23 1542.27 Q1273.06 1545.82 1276.67 1545.82 Q1280.3 1545.82 1282.11 1542.27 Q1283.94 1538.71 1283.94 1531.6 Q1283.94 1524.47 1282.11 1520.93 Q1280.3 1517.37 1276.67 1517.37 M1276.67 1513.66 Q1282.48 1513.66 1285.53 1518.27 Q1288.61 1522.85 1288.61 1531.6 Q1288.61 1540.33 1285.53 1544.94 Q1282.48 1549.52 1276.67 1549.52 Q1270.86 1549.52 1267.78 1544.94 Q1264.72 1540.33 1264.72 1531.6 Q1264.72 1522.85 1267.78 1518.27 Q1270.86 1513.66 1276.67 1513.66 Z" fill="#000000" fill-rule="nonzero" fill-opacity="1" /><path clip-path="url(#clip570)" d="M1705.43 1544.91 L1713.07 1544.91 L1713.07 1518.55 L1704.76 1520.21 L1704.76 1515.95 L1713.02 1514.29 L1717.7 1514.29 L1717.7 1544.91 L1725.34 1544.91 L1725.34 1548.85 L1705.43 1548.85 L1705.43 1544.91 Z" fill="#000000" fill-rule="nonzero" fill-opacity="1" /><path clip-path="url(#clip570)" d="M1734.83 1514.29 L1753.19 1514.29 L1753.19 1518.22 L1739.11 1518.22 L1739.11 1526.7 Q1740.13 1526.35 1741.15 1526.19 Q1742.17 1526 1743.19 1526 Q1748.97 1526 1752.35 1529.17 Q1755.73 1532.34 1755.73 1537.76 Q1755.73 1543.34 1752.26 1546.44 Q1748.79 1549.52 1742.47 1549.52 Q1740.29 1549.52 1738.02 1549.15 Q1735.78 1548.78 1733.37 1548.04 L1733.37 1543.34 Q1735.45 1544.47 1737.68 1545.03 Q1739.9 1545.58 1742.37 1545.58 Q1746.38 1545.58 1748.72 1543.48 Q1751.06 1541.37 1751.06 1537.76 Q1751.06 1534.15 1748.72 1532.04 Q1746.38 1529.94 1742.37 1529.94 Q1740.5 1529.94 1738.62 1530.35 Q1736.77 1530.77 1734.83 1531.65 L1734.83 1514.29 Z" fill="#000000" fill-rule="nonzero" fill-opacity="1" /><path clip-path="url(#clip570)" d="M1774.94 1517.37 Q1771.33 1517.37 1769.5 1520.93 Q1767.7 1524.47 1767.7 1531.6 Q1767.7 1538.71 1769.5 1542.27 Q1771.33 1545.82 1774.94 1545.82 Q1778.58 1545.82 1780.38 1542.27 Q1782.21 1538.71 1782.21 1531.6 Q1782.21 1524.47 1780.38 1520.93 Q1778.58 1517.37 1774.94 1517.37 M1774.94 1513.66 Q1780.75 1513.66 1783.81 1518.27 Q1786.89 1522.85 1786.89 1531.6 Q1786.89 1540.33 1783.81 1544.94 Q1780.75 1549.52 1774.94 1549.52 Q1769.13 1549.52 1766.06 1544.94 Q1763 1540.33 1763 1531.6 Q1763 1522.85 1766.06 1518.27 Q1769.13 1513.66 1774.94 1513.66 Z" fill="#000000" fill-rule="nonzero" fill-opacity="1" /><path clip-path="url(#clip570)" d="M1805.11 1517.37 Q1801.49 1517.37 1799.67 1520.93 Q1797.86 1524.47 1797.86 1531.6 Q1797.86 1538.71 1799.67 1542.27 Q1801.49 1545.82 1805.11 1545.82 Q1808.74 1545.82 1810.55 1542.27 Q1812.37 1538.71 1812.37 1531.6 Q1812.37 1524.47 1810.55 1520.93 Q1808.74 1517.37 1805.11 1517.37 M1805.11 1513.66 Q1810.92 1513.66 1813.97 1518.27 Q1817.05 1522.85 1817.05 1531.6 Q1817.05 1540.33 1813.97 1544.94 Q1810.92 1549.52 1805.11 1549.52 Q1799.3 1549.52 1796.22 1544.94 Q1793.16 1540.33 1793.16 1531.6 Q1793.16 1522.85 1796.22 1518.27 Q1799.3 1513.66 1805.11 1513.66 Z" fill="#000000" fill-rule="nonzero" fill-opacity="1" /><path clip-path="url(#clip570)" d="M2237.95 1544.91 L2254.27 1544.91 L2254.27 1548.85 L2232.33 1548.85 L2232.33 1544.91 Q2234.99 1542.16 2239.58 1537.53 Q2244.18 1532.88 2245.36 1531.53 Q2247.61 1529.01 2248.49 1527.27 Q2249.39 1525.51 2249.39 1523.82 Q2249.39 1521.07 2247.45 1519.33 Q2245.52 1517.6 2242.42 1517.6 Q2240.22 1517.6 2237.77 1518.36 Q2235.34 1519.13 2232.56 1520.68 L2232.56 1515.95 Q2235.39 1514.82 2237.84 1514.24 Q2240.29 1513.66 2242.33 1513.66 Q2247.7 1513.66 2250.89 1516.35 Q2254.09 1519.03 2254.09 1523.52 Q2254.09 1525.65 2253.28 1527.57 Q2252.49 1529.47 2250.39 1532.07 Q2249.81 1532.74 2246.7 1535.95 Q2243.6 1539.15 2237.95 1544.91 Z" fill="#000000" fill-rule="nonzero" fill-opacity="1" /><path clip-path="url(#clip570)" d="M2274.09 1517.37 Q2270.48 1517.37 2268.65 1520.93 Q2266.84 1524.47 2266.84 1531.6 Q2266.84 1538.71 2268.65 1542.27 Q2270.48 1545.82 2274.09 1545.82 Q2277.72 1545.82 2279.53 1542.27 Q2281.36 1538.71 2281.36 1531.6 Q2281.36 1524.47 2279.53 1520.93 Q2277.72 1517.37 2274.09 1517.37 M2274.09 1513.66 Q2279.9 1513.66 2282.95 1518.27 Q2286.03 1522.85 2286.03 1531.6 Q2286.03 1540.33 2282.95 1544.94 Q2279.9 1549.52 2274.09 1549.52 Q2268.28 1549.52 2265.2 1544.94 Q2262.14 1540.33 2262.14 1531.6 Q2262.14 1522.85 2265.2 1518.27 Q2268.28 1513.66 2274.09 1513.66 Z" fill="#000000" fill-rule="nonzero" fill-opacity="1" /><path clip-path="url(#clip570)" d="M2304.25 1517.37 Q2300.64 1517.37 2298.81 1520.93 Q2297.01 1524.47 2297.01 1531.6 Q2297.01 1538.71 2298.81 1542.27 Q2300.64 1545.82 2304.25 1545.82 Q2307.88 1545.82 2309.69 1542.27 Q2311.52 1538.71 2311.52 1531.6 Q2311.52 1524.47 2309.69 1520.93 Q2307.88 1517.37 2304.25 1517.37 M2304.25 1513.66 Q2310.06 1513.66 2313.12 1518.27 Q2316.2 1522.85 2316.2 1531.6 Q2316.2 1540.33 2313.12 1544.94 Q2310.06 1549.52 2304.25 1549.52 Q2298.44 1549.52 2295.36 1544.94 Q2292.31 1540.33 2292.31 1531.6 Q2292.31 1522.85 2295.36 1518.27 Q2298.44 1513.66 2304.25 1513.66 Z" fill="#000000" fill-rule="nonzero" fill-opacity="1" /><path clip-path="url(#clip570)" d="M2334.41 1517.37 Q2330.8 1517.37 2328.97 1520.93 Q2327.17 1524.47 2327.17 1531.6 Q2327.17 1538.71 2328.97 1542.27 Q2330.8 1545.82 2334.41 1545.82 Q2338.05 1545.82 2339.85 1542.27 Q2341.68 1538.71 2341.68 1531.6 Q2341.68 1524.47 2339.85 1520.93 Q2338.05 1517.37 2334.41 1517.37 M2334.41 1513.66 Q2340.22 1513.66 2343.28 1518.27 Q2346.36 1522.85 2346.36 1531.6 Q2346.36 1540.33 2343.28 1544.94 Q2340.22 1549.52 2334.41 1549.52 Q2328.6 1549.52 2325.52 1544.94 Q2322.47 1540.33 2322.47 1531.6 Q2322.47 1522.85 2325.52 1518.27 Q2328.6 1513.66 2334.41 1513.66 Z" fill="#000000" fill-rule="nonzero" fill-opacity="1" /><polyline clip-path="url(#clip572)" style="stroke:#000000; stroke-linecap:round; stroke-linejoin:round; stroke-width:2; stroke-opacity:0.1; fill:none" points="112.177,1389.2 2352.76,1389.2 "/>
<polyline clip-path="url(#clip572)" style="stroke:#000000; stroke-linecap:round; stroke-linejoin:round; stroke-width:2; stroke-opacity:0.1; fill:none" points="112.177,1162.81 2352.76,1162.81 "/>
<polyline clip-path="url(#clip572)" style="stroke:#000000; stroke-linecap:round; stroke-linejoin:round; stroke-width:2; stroke-opacity:0.1; fill:none" points="112.177,936.42 2352.76,936.42 "/>
<polyline clip-path="url(#clip572)" style="stroke:#000000; stroke-linecap:round; stroke-linejoin:round; stroke-width:2; stroke-opacity:0.1; fill:none" points="112.177,710.028 2352.76,710.028 "/>
<polyline clip-path="url(#clip572)" style="stroke:#000000; stroke-linecap:round; stroke-linejoin:round; stroke-width:2; stroke-opacity:0.1; fill:none" points="112.177,483.637 2352.76,483.637 "/>
<polyline clip-path="url(#clip572)" style="stroke:#000000; stroke-linecap:round; stroke-linejoin:round; stroke-width:2; stroke-opacity:0.1; fill:none" points="112.177,257.245 2352.76,257.245 "/>
<polyline clip-path="url(#clip570)" style="stroke:#000000; stroke-linecap:round; stroke-linejoin:round; stroke-width:4; stroke-opacity:1; fill:none" points="112.177,1486.45 112.177,47.2441 "/>
<polyline clip-path="url(#clip570)" style="stroke:#000000; stroke-linecap:round; stroke-linejoin:round; stroke-width:4; stroke-opacity:1; fill:none" points="112.177,1389.2 131.075,1389.2 "/>
<polyline clip-path="url(#clip570)" style="stroke:#000000; stroke-linecap:round; stroke-linejoin:round; stroke-width:4; stroke-opacity:1; fill:none" points="112.177,1162.81 131.075,1162.81 "/>
<polyline clip-path="url(#clip570)" style="stroke:#000000; stroke-linecap:round; stroke-linejoin:round; stroke-width:4; stroke-opacity:1; fill:none" points="112.177,936.42 131.075,936.42 "/>
<polyline clip-path="url(#clip570)" style="stroke:#000000; stroke-linecap:round; stroke-linejoin:round; stroke-width:4; stroke-opacity:1; fill:none" points="112.177,710.028 131.075,710.028 "/>
<polyline clip-path="url(#clip570)" style="stroke:#000000; stroke-linecap:round; stroke-linejoin:round; stroke-width:4; stroke-opacity:1; fill:none" points="112.177,483.637 131.075,483.637 "/>
<polyline clip-path="url(#clip570)" style="stroke:#000000; stroke-linecap:round; stroke-linejoin:round; stroke-width:4; stroke-opacity:1; fill:none" points="112.177,257.245 131.075,257.245 "/>
<path clip-path="url(#clip570)" d="M56.2699 1402.55 L63.9087 1402.55 L63.9087 1376.18 L55.5986 1377.85 L55.5986 1373.59 L63.8624 1371.92 L68.5383 1371.92 L68.5383 1402.55 L76.1772 1402.55 L76.1772 1406.48 L56.2699 1406.48 L56.2699 1402.55 Z" fill="#000000" fill-rule="nonzero" fill-opacity="1" /><path clip-path="url(#clip570)" d="M59.8578 1176.16 L76.1772 1176.16 L76.1772 1180.09 L54.2328 1180.09 L54.2328 1176.16 Q56.8949 1173.4 61.4782 1168.77 Q66.0846 1164.12 67.2652 1162.78 Q69.5105 1160.25 70.3902 1158.52 Q71.2929 1156.76 71.2929 1155.07 Q71.2929 1152.31 69.3485 1150.58 Q67.4272 1148.84 64.3254 1148.84 Q62.1263 1148.84 59.6726 1149.61 Q57.2421 1150.37 54.4643 1151.92 L54.4643 1147.2 Q57.2884 1146.06 59.7421 1145.49 Q62.1958 1144.91 64.2328 1144.91 Q69.6031 1144.91 72.7976 1147.59 Q75.992 1150.28 75.992 1154.77 Q75.992 1156.9 75.1818 1158.82 Q74.3948 1160.72 72.2883 1163.31 Q71.7096 1163.98 68.6078 1167.2 Q65.5059 1170.39 59.8578 1176.16 Z" fill="#000000" fill-rule="nonzero" fill-opacity="1" /><path clip-path="url(#clip570)" d="M69.0476 935.066 Q72.404 935.783 74.279 938.052 Q76.1772 940.32 76.1772 943.654 Q76.1772 948.769 72.6587 951.57 Q69.1402 954.371 62.6587 954.371 Q60.4828 954.371 58.168 953.931 Q55.8764 953.515 53.4227 952.658 L53.4227 948.144 Q55.3671 949.279 57.6819 949.857 Q59.9967 950.436 62.5198 950.436 Q66.918 950.436 69.2096 948.7 Q71.5244 946.964 71.5244 943.654 Q71.5244 940.598 69.3717 938.885 Q67.242 937.149 63.4226 937.149 L59.3949 937.149 L59.3949 933.306 L63.6078 933.306 Q67.0569 933.306 68.8855 931.941 Q70.7142 930.552 70.7142 927.959 Q70.7142 925.297 68.8161 923.885 Q66.9411 922.45 63.4226 922.45 Q61.5013 922.45 59.3023 922.867 Q57.1032 923.283 54.4643 924.163 L54.4643 919.996 Q57.1264 919.256 59.4412 918.885 Q61.7791 918.515 63.8393 918.515 Q69.1633 918.515 72.2652 920.945 Q75.367 923.353 75.367 927.473 Q75.367 930.344 73.7235 932.334 Q72.08 934.302 69.0476 935.066 Z" fill="#000000" fill-rule="nonzero" fill-opacity="1" /><path clip-path="url(#clip570)" d="M66.5939 696.822 L54.7884 715.271 L66.5939 715.271 L66.5939 696.822 M65.367 692.748 L71.2466 692.748 L71.2466 715.271 L76.1772 715.271 L76.1772 719.16 L71.2466 719.16 L71.2466 727.308 L66.5939 727.308 L66.5939 719.16 L50.9921 719.16 L50.9921 714.646 L65.367 692.748 Z" fill="#000000" fill-rule="nonzero" fill-opacity="1" /><path clip-path="url(#clip570)" d="M55.2745 466.357 L73.6309 466.357 L73.6309 470.292 L59.5569 470.292 L59.5569 478.764 Q60.5754 478.417 61.5939 478.255 Q62.6124 478.07 63.6309 478.07 Q69.418 478.07 72.7976 481.241 Q76.1772 484.412 76.1772 489.829 Q76.1772 495.407 72.705 498.509 Q69.2328 501.588 62.9134 501.588 Q60.7374 501.588 58.4689 501.218 Q56.2236 500.847 53.8162 500.106 L53.8162 495.407 Q55.8995 496.542 58.1217 497.097 Q60.3439 497.653 62.8208 497.653 Q66.8254 497.653 69.1633 495.546 Q71.5013 493.44 71.5013 489.829 Q71.5013 486.218 69.1633 484.111 Q66.8254 482.005 62.8208 482.005 Q60.9458 482.005 59.0708 482.421 Q57.2189 482.838 55.2745 483.718 L55.2745 466.357 Z" fill="#000000" fill-rule="nonzero" fill-opacity="1" /><path clip-path="url(#clip570)" d="M64.6495 255.382 Q61.5013 255.382 59.6495 257.534 Q57.8208 259.687 57.8208 263.437 Q57.8208 267.164 59.6495 269.34 Q61.5013 271.493 64.6495 271.493 Q67.7976 271.493 69.6263 269.34 Q71.4781 267.164 71.4781 263.437 Q71.4781 259.687 69.6263 257.534 Q67.7976 255.382 64.6495 255.382 M73.9318 240.729 L73.9318 244.988 Q72.1726 244.155 70.367 243.715 Q68.5846 243.275 66.8254 243.275 Q62.1958 243.275 59.7421 246.4 Q57.3115 249.525 56.9643 255.845 Q58.33 253.831 60.3902 252.766 Q62.4504 251.678 64.9272 251.678 Q70.1355 251.678 73.1448 254.849 Q76.1772 257.997 76.1772 263.437 Q76.1772 268.761 73.029 271.979 Q69.8809 275.196 64.6495 275.196 Q58.6541 275.196 55.4828 270.613 Q52.3116 266.007 52.3116 257.28 Q52.3116 249.085 56.2004 244.224 Q60.0893 239.34 66.6402 239.34 Q68.3994 239.34 70.1818 239.687 Q71.9874 240.034 73.9318 240.729 Z" fill="#000000" fill-rule="nonzero" fill-opacity="1" /><polyline clip-path="url(#clip572)" style="stroke:#009af9; stroke-linecap:round; stroke-linejoin:round; stroke-width:4; stroke-opacity:1; fill:none" points="175.59,1333.43 176.647,1333.89 177.704,1165.71 178.76,1166.5 179.817,1342.65 180.874,1343.25 181.931,1346.12 182.988,1346.55 184.045,1383.11 185.102,1383.38 186.159,986.57 187.215,988.807 188.272,1180.42 189.329,1181.32 190.386,1294.51 191.443,1295.11 192.5,1143.69 193.557,1144.49 194.614,1364.61 195.67,1364.98 196.727,1416.88 197.784,1417.08 198.841,1344.74 199.898,1345.21 200.955,1155.04 202.012,1155.82 203.069,1393.99 204.125,1394.22 205.182,1445.49 206.239,1445.72 207.296,1257.15 208.353,1257.58 209.41,1219.48 210.467,1220.58 211.524,1203.83 212.58,1204.46 213.637,1088.89 214.694,1090.85 215.751,1289.08 216.808,1289.55 217.865,1404.87 218.922,1405.07 219.979,843.525 221.035,845.025 222.092,1231.94 223.149,1232.36 224.206,750.187 225.263,752.809 226.32,1089.03 227.377,1089.93 228.434,1047.75 229.49,1049.08 230.547,1260.05 231.604,1260.87 232.661,1204.09 233.718,1204.76 234.775,1269.75 235.832,1270.05 236.889,1205.2 237.946,1205.81 239.002,1195.73 240.059,1196.27 241.116,1195.43 242.173,1196.2 243.23,1372.69 244.287,1373 245.344,1138.11 246.401,1139.26 247.457,1112.03 248.514,1112.79 249.571,1210.45 250.628,1211.52 251.685,1276.91 252.742,1277.49 253.799,920.589 254.856,921.715 255.912,970.051 256.969,971.746 258.026,1109.95 259.083,1110.77 260.14,1249.38 261.197,1250.28 262.254,1168.9 263.311,1169.47 264.367,1199.77 265.424,1200.16 266.481,1221.1 267.538,1222.17 268.595,1167.62 269.652,1168.46 270.709,1105.99 271.766,1106.85 272.822,640.359 273.879,643.793 274.936,1317.08 275.993,1317.84 277.05,1133.23 278.107,1133.87 279.164,1129.87 280.221,1130.55 281.277,1011.85 282.334,1013.07 283.391,966.269 284.448,968.092 285.505,742.806 286.562,744.155 287.619,1317 288.676,1317.38 289.732,909.142 290.789,910.445 291.846,1306.3 292.903,1306.71 293.96,1227 295.017,1227.49 296.074,1122.37 297.131,1123.33 298.187,1242.06 299.244,1242.46 300.301,1030.62 301.358,1031.53 302.415,1230.4 303.472,1231.21 304.529,1331.58 305.586,1331.92 306.642,1151.84 307.699,1152.35 308.756,1109.24 309.813,1110.03 310.87,1396.78 311.927,1397.07 312.984,1172.41 314.041,1172.93 315.098,1079.81 316.154,1081.38 317.211,1238.59 318.268,1239.02 319.325,1023.57 320.382,1025.24 321.439,1207.29 322.496,1207.64 323.553,1261.64 324.609,1262.21 325.666,1237.22 326.723,1237.86 327.78,1243.28 328.837,1244.31 329.894,1069.5 330.951,1070.15 332.008,1012.4 333.064,1013.28 334.121,869.485 335.178,871.68 336.235,1079.11 337.292,1079.93 338.349,1180.77 339.406,1181.11 340.463,622.569 341.519,624.055 342.576,1054.37 343.633,1055.31 344.69,1295.66 345.747,1296.08 346.804,1162.5 347.861,1163.34 348.918,993.83 349.974,995.067 351.031,1180.76 352.088,1181.2 353.145,907.247 354.202,908.849 355.259,1030.13 356.316,1030.99 357.373,1317.22 358.429,1317.61 359.486,1043.11 360.543,1043.82 361.6,1068.58 362.657,1069.25 363.714,1164.86 364.771,1165.28 365.828,1004.59 366.884,1005.7 367.941,1239.42 368.998,1239.74 370.055,380.789 371.112,384.035 372.169,1132.79 373.226,1133.23 374.283,1236.88 375.339,1237.53 376.396,1211.14 377.453,1211.63 378.51,1036.8 379.567,1037.49 380.624,1316.45 381.681,1317.03 382.738,1259.62 383.795,1260.11 384.851,1247.15 385.908,1247.44 386.965,1081.98 388.022,1082.44 389.079,1070.2 390.136,1070.91 391.193,1242.45 392.25,1242.78 393.306,1187.94 394.363,1188.51 395.42,1065.11 396.477,1066.23 397.534,1258.87 398.591,1259.84 399.648,1220.42 400.705,1221.16 401.761,1300.13 402.818,1300.5 403.875,1212.49 404.932,1212.87 405.989,1009.98 407.046,1010.88 408.103,929.298 409.16,930.704 410.216,939.89 411.273,941.029 412.33,1250.71 413.387,1250.96 414.444,1247.98 415.501,1248.23 416.558,1132.34 417.615,1132.72 418.671,1184.39 419.728,1184.88 420.785,1205.24 421.842,1205.56 422.899,1141.86 423.956,1142.26 425.013,1161.64 426.07,1162.25 427.126,1095.74 428.183,1096.41 429.24,1160.65 430.297,1161.34 431.354,737.94 432.411,740.94 433.468,1144.98 434.525,1145.34 435.581,1101.83 436.638,1102.45 437.695,1104.16 438.752,1104.7 439.809,1069.2 440.866,1069.94 441.923,1170.03 442.98,1170.33 444.036,1216.32 445.093,1216.59 446.15,1155.25 447.207,1155.61 448.264,1083.26 449.321,1083.63 450.378,1284.9 451.435,1285.06 452.491,1285.25 453.548,1285.61 454.605,1249.61 455.662,1249.86 456.719,1171.14 457.776,1171.44 458.833,1071.94 459.89,1072.68 460.947,1056.75 462.003,1057.24 463.06,1147.22 464.117,1147.69 465.174,1106.09 466.231,1106.4 467.288,919.303 468.345,920.617 469.402,1178.48 470.458,1179 471.515,919.343 472.572,920.618 473.629,1210.37 474.686,1210.54 475.743,1127.78 476.8,1128.29 477.857,1180.7 478.913,1181.16 479.97,922.398 481.027,923.84 482.084,1210.86 483.141,1211.04 484.198,1042.21 485.255,1042.86 486.312,1171.09 487.368,1171.58 488.425,1157.44 489.482,1158.04 490.539,1133.57 491.596,1133.82 492.653,1325.64 493.71,1325.88 494.767,1259.21 495.823,1259.48 496.88,1013.18 497.937,1013.82 498.994,1206.04 500.051,1206.33 501.108,1155.47 502.165,1155.69 503.222,1050.07 504.278,1050.54 505.335,1226.16 506.392,1226.6 507.449,1108.43 508.506,1108.88 509.563,1157.6 510.62,1157.84 511.677,570.109 512.733,572.941 513.79,1153.31 514.847,1153.53 515.904,1130.92 516.961,1131.46 518.018,1223.74 519.075,1224.17 520.132,1229.1 521.188,1229.7 522.245,951.768 523.302,952.374 524.359,1235.03 525.416,1235.29 526.473,1145.87 527.53,1146.44 528.587,1183.31 529.643,1183.52 530.7,1250.34 531.757,1250.74 532.814,1150.09 533.871,1150.6 534.928,1199.76 535.985,1199.91 537.042,1232.78 538.099,1233.19 539.155,1221.35 540.212,1221.61 541.269,1129.89 542.326,1130.18 543.383,1013.93 544.44,1014.35 545.497,1142.82 546.554,1143.05 547.61,1081.18 548.667,1081.66 549.724,1164.22 550.781,1164.49 551.838,705.93 552.895,707.705 553.952,1277.46 555.009,1277.84 556.065,1168.67 557.122,1168.95 558.179,1196.27 559.236,1196.42 560.293,1119.85 561.35,1120.15 562.407,834.649 563.464,836.22 564.52,1263.21 565.577,1263.53 566.634,1231.16 567.691,1231.39 568.748,912.165 569.805,913.477 570.862,1138.32 571.919,1138.49 572.975,1017.96 574.032,1018.58 575.089,1047.96 576.146,1048.29 577.203,1268.74 578.26,1269.12 579.317,1022.82 580.374,1023.16 581.43,1159.59 582.487,1159.75 583.544,986.561 584.601,987.322 585.658,1148.74 586.715,1149.13 587.772,1263.37 588.829,1263.51 589.885,1182.73 590.942,1182.88 591.999,1050.48 593.056,1050.86 594.113,1215.41 595.17,1215.77 596.227,1211.52 597.284,1211.76 598.34,1087.44 599.397,1087.69 600.454,1258.64 601.511,1259.07 602.568,1154.58 603.625,1154.79 604.682,948.974 605.739,949.633 606.795,1128.73 607.852,1129.01 608.909,1176.42 609.966,1176.67 611.023,1109.99 612.08,1110.19 613.137,1082.78 614.194,1083.13 615.251,1167.65 616.307,1167.94 617.364,1147.89 618.421,1148.32 619.478,1229.99 620.535,1230.16 621.592,873.824 622.649,875.087 623.706,1130.59 624.762,1130.75 625.819,1129.74 626.876,1130 627.933,982.004 628.99,982.617 630.047,1040.09 631.104,1040.37 632.161,1151.57 633.217,1151.76 634.274,1019.39 635.331,1020.26 636.388,1088.45 637.445,1088.72 638.502,1197.35 639.559,1197.61 640.616,1232.91 641.672,1233.03 642.729,1222.77 643.786,1222.99 644.843,1116.69 645.9,1116.92 646.957,497.269 648.014,500.983 649.071,1006.07 650.127,1007.09 651.184,1179.35 652.241,1179.55 653.298,1060.24 654.355,1060.58 655.412,1189.68 656.469,1189.81 657.526,1072.27 658.582,1072.5 659.639,1070.97 660.696,1071.37 661.753,1064.9 662.81,1065.3 663.867,697.205 664.924,699.009 665.981,1114.17 667.037,1114.47 668.094,1099.36 669.151,1099.63 670.208,1173.67 671.265,1173.97 672.322,953.482 673.379,954.446 674.436,823.857 675.492,825.326 676.549,974.734 677.606,975.428 678.663,1153.07 679.72,1153.51 680.777,1066.77 681.834,1067.05 682.891,1104.98 683.948,1105.22 685.004,1073.18 686.061,1073.47 687.118,1104.33 688.175,1104.54 689.232,1113.88 690.289,1114.19 691.346,1244.66 692.403,1245.05 693.459,743.629 694.516,745.175 695.573,684.582 696.63,686.235 697.687,1032.87 698.744,1033.24 699.801,1094.87 700.858,1095.01 701.914,1194.5 702.971,1194.66 704.028,1024.96 705.085,1025.5 706.142,1159.63 707.199,1159.82 708.256,1148.1 709.313,1148.28 710.369,996.77 711.426,997.364 712.483,1120.42 713.54,1120.65 714.597,1126.39 715.654,1126.7 716.711,1088.55 717.768,1088.82 718.824,1266.15 719.881,1266.6 720.938,1012.7 721.995,1013.06 723.052,919.98 724.109,920.848 725.166,927.062 726.223,928.107 727.279,1103.83 728.336,1104.06 729.393,1128.21 730.45,1128.36 731.507,1139.02 732.564,1139.36 733.621,1206.77 734.678,1206.94 735.734,1003.64 736.791,1004.08 737.848,811.359 738.905,813.021 739.962,1071.33 741.019,1071.7 742.076,1122.51 743.133,1122.66 744.189,1044.3 745.246,1044.58 746.303,899.538 747.36,900.398 748.417,889.591 749.474,890.334 750.531,1103.46 751.588,1103.65 752.644,897.862 753.701,898.946 754.758,1072.13 755.815,1072.38 756.872,1060.9 757.929,1061.23 758.986,972.028 760.043,972.867 761.1,1039.12 762.156,1039.56 763.213,932.819 764.27,933.661 765.327,1074.38 766.384,1074.66 767.441,1198.15 768.498,1198.33 769.555,1108.32 770.611,1108.57 771.668,870.476 772.725,871.638 773.782,846.18 774.839,847.732 775.896,990.859 776.953,991.51 778.01,1010.08 779.066,1010.59 780.123,1152.81 781.18,1153.25 782.237,1148.22 783.294,1148.35 784.351,969.149 785.408,969.945 786.465,973.7 787.521,974.035 788.578,1064.72 789.635,1064.94 790.692,1148.66 791.749,1148.96 792.806,1235.48 793.863,1235.67 794.92,1109.34 795.976,1109.66 797.033,1028.86 798.09,1029.24 799.147,1019.13 800.204,1019.35 801.261,972.789 802.318,973.156 803.375,1092.91 804.431,1093.33 805.488,1107.64 806.545,1107.91 807.602,999.999 808.659,1000.42 809.716,922.705 810.773,923.499 811.83,994.237 812.886,994.771 813.943,1168.55 815,1168.78 816.057,1087.41 817.114,1087.58 818.171,830.013 819.228,831.639 820.285,760.366 821.341,762.07 822.398,1145.81 823.455,1145.98 824.512,928.342 825.569,928.972 826.626,1104.25 827.683,1104.4 828.74,1059.41 829.796,1059.7 830.853,1150.41 831.91,1150.57 832.967,1195.65 834.024,1196.02 835.081,993.169 836.138,993.352 837.195,1008.85 838.252,1009.29 839.308,1014.19 840.365,1014.74 841.422,887.073 842.479,887.797 843.536,1050.3 844.593,1050.61 845.65,940.416 846.707,940.922 847.763,891.432 848.82,892.791 849.877,1106.17 850.934,1106.37 851.991,935.899 853.048,936.414 854.105,1050.69 855.162,1050.84 856.218,874.135 857.275,875.328 858.332,957.458 859.389,957.91 860.446,1014.84 861.503,1015.3 862.56,1035.15 863.617,1035.31 864.673,1023.15 865.73,1023.47 866.787,1019.23 867.844,1019.48 868.901,1014.62 869.958,1014.93 871.015,1072.17 872.072,1072.68 873.128,1094.24 874.185,1094.48 875.242,857.796 876.299,859.122 877.356,1143.3 878.413,1143.44 879.47,1057.43 880.527,1057.55 881.583,856.621 882.64,857.809 883.697,1043.66 884.754,1044.1 885.811,1000.47 886.868,1000.75 887.925,1055.24 888.982,1055.46 890.038,1123.97 891.095,1124.09 892.152,1010.11 893.209,1010.25 894.266,1110.19 895.323,1110.28 896.38,1083.65 897.437,1083.76 898.493,942.596 899.55,943.3 900.607,1054.43 901.664,1054.57 902.721,838.917 903.778,839.758 904.835,951.468 905.892,951.878 906.948,910.371 908.005,910.724 909.062,1117.46 910.119,1117.66 911.176,1096.59 912.233,1096.7 913.29,1115.62 914.347,1115.89 915.404,1090.68 916.46,1090.78 917.517,924.844 918.574,925.289 919.631,989.432 920.688,989.776 921.745,1003.66 922.802,1003.94 923.859,1034.54 924.915,1034.76 925.972,945.02 927.029,945.563 928.086,1054.91 929.143,1055.21 930.2,963.602 931.257,963.851 932.314,927.98 933.37,928.318 934.427,989.893 935.484,990.056 936.541,969.634 937.598,970.24 938.655,1020.24 939.712,1020.44 940.769,1091.2 941.825,1091.32 942.882,712.123 943.939,715.823 944.996,1098.93 946.053,1099.34 947.11,1025.84 948.167,1026.45 949.224,1021.84 950.28,1021.97 951.337,1056.5 952.394,1056.61 953.451,1050.09 954.508,1050.36 955.565,1026 956.622,1026.18 957.679,1117.3 958.735,1117.38 959.792,1107.96 960.849,1108.23 961.906,1125.55 962.963,1125.69 964.02,992.419 965.077,992.635 966.134,777.508 967.19,779.18 968.247,1083.48 969.304,1083.86 970.361,870.896 971.418,871.659 972.475,976.679 973.532,976.925 974.589,914.655 975.645,915.246 976.702,1005.08 977.759,1005.32 978.816,969.448 979.873,969.719 980.93,1012.27 981.987,1012.54 983.044,814.525 984.101,816.07 985.157,923.702 986.214,923.972 987.271,1050.71 988.328,1051.09 989.385,1031.34 990.442,1031.72 991.499,1009.89 992.556,1010 993.612,952.122 994.669,952.368 995.726,867.555 996.783,868.132 997.84,903.298 998.897,904.153 999.954,911.056 1001.01,911.796 1002.07,1047.2 1003.12,1047.61 1004.18,955.216 1005.24,955.678 1006.29,1050.99 1007.35,1051.29 1008.41,978.87 1009.47,979.028 1010.52,1007.81 1011.58,1007.93 1012.64,995.95 1013.69,996.115 1014.75,951.622 1015.81,952.115 1016.86,876.402 1017.92,877.272 1018.98,926.075 1020.03,926.371 1021.09,1080.38 1022.15,1080.8 1023.2,911.729 1024.26,912.575 1025.32,887.364 1026.38,887.797 1027.43,801.885 1028.49,803.248 1029.55,929.804 1030.6,930.187 1031.66,874.456 1032.72,874.904 1033.77,853.273 1034.83,853.905 1035.89,995.684 1036.94,996.063 1038,982.122 1039.06,982.24 1040.11,1012.37 1041.17,1012.68 1042.23,945.065 1043.29,945.928 1044.34,1033.89 1045.4,1034.09 1046.46,1014.99 1047.51,1015.11 1048.57,941.391 1049.63,941.647 1050.68,1031.84 1051.74,1032.02 1052.8,1031.62 1053.85,1031.94 1054.91,969 1055.97,969.142 1057.02,991.019 1058.08,991.276 1059.14,944.05 1060.2,944.219 1061.25,1001.36 1062.31,1001.6 1063.37,869.212 1064.42,869.812 1065.48,936.183 1066.54,936.738 1067.59,1002 1068.65,1002.19 1069.71,867.959 1070.76,868.436 1071.82,982.225 1072.88,982.355 1073.94,934.458 1074.99,934.789 1076.05,991.664 1077.11,991.821 1078.16,1005.95 1079.22,1006.2 1080.28,1063.26 1081.33,1063.93 1082.39,941.756 1083.45,942.2 1084.5,911.849 1085.56,912.379 1086.62,988.849 1087.67,988.946 1088.73,852.597 1089.79,853.569 1090.85,906.364 1091.9,906.573 1092.96,920.954 1094.02,921.405 1095.07,1023.84 1096.13,1024.01 1097.19,1013.64 1098.24,1013.77 1099.3,918.143 1100.36,918.357 1101.41,951.903 1102.47,952.514 1103.53,926.523 1104.58,927.406 1105.64,1075.34 1106.7,1075.57 1107.76,950.625 1108.81,950.778 1109.87,881.276 1110.93,881.787 1111.98,943.194 1113.04,943.368 1114.1,924.167 1115.15,924.451 1116.21,943.103 1117.27,943.345 1118.32,1030.97 1119.38,1031.18 1120.44,922.763 1121.49,922.967 1122.55,953.176 1123.61,953.373 1124.67,852.313 1125.72,852.895 1126.78,1061.28 1127.84,1061.54 1128.89,920.394 1129.95,920.864 1131.01,947.686 1132.06,948.15 1133.12,895.311 1134.18,895.879 1135.23,1063.25 1136.29,1063.6 1137.35,902.85 1138.4,903.189 1139.46,1009.41 1140.52,1009.62 1141.58,1025.42 1142.63,1025.63 1143.69,910.377 1144.75,910.652 1145.8,1033.32 1146.86,1033.58 1147.92,882.115 1148.97,882.555 1150.03,812.27 1151.09,813.448 1152.14,906.033 1153.2,906.453 1154.26,988.037 1155.31,988.344 1156.37,1014.44 1157.43,1014.72 1158.49,952.204 1159.54,952.352 1160.6,830.74 1161.66,831.623 1162.71,929.904 1163.77,930.276 1164.83,894.091 1165.88,894.912 1166.94,961.586 1168,961.765 1169.05,897.257 1170.11,897.465 1171.17,835.187 1172.22,835.703 1173.28,651.498 1174.34,652.863 1175.4,919.958 1176.45,920.588 1177.51,1014.1 1178.57,1014.38 1179.62,945.216 1180.68,945.579 1181.74,981.791 1182.79,981.955 1183.85,870.426 1184.91,871.259 1185.96,969.918 1187.02,970.104 1188.08,962.127 1189.13,962.355 1190.19,992.829 1191.25,993.46 1192.31,926.757 1193.36,926.873 1194.42,964.424 1195.48,964.725 1196.53,860.192 1197.59,860.569 1198.65,915.543 1199.7,915.671 1200.76,873.47 1201.82,873.906 1202.87,902.095 1203.93,902.266 1204.99,87.9763 1206.04,91.3708 1207.1,867.388 1208.16,868.621 1209.22,830.573 1210.27,831.242 1211.33,854.792 1212.39,855.465 1213.44,877.213 1214.5,877.544 1215.56,884.428 1216.61,884.925 1217.67,990.689 1218.73,991.05 1219.78,980.801 1220.84,980.904 1221.9,863.702 1222.95,864.299 1224.01,1040.45 1225.07,1040.8 1226.13,953.117 1227.18,953.427 1228.24,801.278 1229.3,802.212 1230.35,954.315 1231.41,954.493 1232.47,882.181 1233.52,882.546 1234.58,968.917 1235.64,969.203 1236.69,860.007 1237.75,860.306 1238.81,796.311 1239.86,797.397 1240.92,914.841 1241.98,915.049 1243.04,907.906 1244.09,908.464 1245.15,919.156 1246.21,919.466 1247.26,1038.75 1248.32,1039.17 1249.38,948.516 1250.43,948.691 1251.49,865.619 1252.55,866.483 1253.6,853.359 1254.66,853.72 1255.72,955.756 1256.77,955.931 1257.83,970.619 1258.89,970.942 1259.95,919.869 1261,920.043 1262.06,893.724 1263.12,893.953 1264.17,926.6 1265.23,926.785 1266.29,928.63 1267.34,928.919 1268.4,930.176 1269.46,930.351 1270.51,1004.51 1271.57,1004.86 1272.63,915.201 1273.68,915.589 1274.74,893.463 1275.8,893.556 1276.86,832.522 1277.91,832.912 1278.97,938.68 1280.03,938.947 1281.08,949.761 1282.14,949.938 1283.2,974.188 1284.25,974.656 1285.31,893.623 1286.37,893.795 1287.42,916.652 1288.48,916.798 1289.54,880.796 1290.59,881.069 1291.65,957.645 1292.71,957.888 1293.77,931.675 1294.82,932.019 1295.88,952.062 1296.94,952.332 1297.99,981.145 1299.05,981.217 1300.11,915.279 1301.16,915.571 1302.22,892.344 1303.28,892.71 1304.33,908.858 1305.39,908.964 1306.45,953.155 1307.5,953.464 1308.56,859.501 1309.62,860.105 1310.68,915.39 1311.73,915.491 1312.79,831.247 1313.85,831.997 1314.9,877.089 1315.96,877.471 1317.02,972.273 1318.07,972.462 1319.13,908.683 1320.19,908.771 1321.24,958.572 1322.3,958.702 1323.36,826.821 1324.41,827.462 1325.47,829.628 1326.53,830.249 1327.59,843.237 1328.64,843.598 1329.7,904.448 1330.76,904.856 1331.81,987.7 1332.87,987.822 1333.93,945.193 1334.98,945.294 1336.04,892.98 1337.1,893.125 1338.15,910.289 1339.21,911.221 1340.27,862.645 1341.32,863.256 1342.38,850.537 1343.44,850.814 1344.5,873.943 1345.55,874.463 1346.61,907.707 1347.67,907.874 1348.72,945.323 1349.78,945.572 1350.84,960.773 1351.89,960.861 1352.95,964.05 1354.01,964.174 1355.06,848.86 1356.12,848.989 1357.18,931.566 1358.23,931.646 1359.29,928.75 1360.35,928.859 1361.41,904.111 1362.46,904.224 1363.52,993.34 1364.58,993.467 1365.63,900.889 1366.69,901.269 1367.75,928.369 1368.8,928.465 1369.86,954.882 1370.92,955.12 1371.97,969.966 1373.03,970.543 1374.09,895.795 1375.14,896.366 1376.2,963.941 1377.26,964.063 1378.32,887.812 1379.37,888.241 1380.43,850.448 1381.49,850.672 1382.54,831.853 1383.6,832.347 1384.66,761.491 1385.71,763.34 1386.77,868.983 1387.83,869.196 1388.88,948.261 1389.94,948.391 1391,915.956 1392.05,916.056 1393.11,842.094 1394.17,842.31 1395.23,827.542 1396.28,827.957 1397.34,901.548 1398.4,901.677 1399.45,877.573 1400.51,877.897 1401.57,924.424 1402.62,924.779 1403.68,907.163 1404.74,907.435 1405.79,894.198 1406.85,894.319 1407.91,963.252 1408.96,963.655 1410.02,842.929 1411.08,843.009 1412.14,850.322 1413.19,850.784 1414.25,857.716 1415.31,858.01 1416.36,828.606 1417.42,829.158 1418.48,927.31 1419.53,927.899 1420.59,885.683 1421.65,886.208 1422.7,910.978 1423.76,911.257 1424.82,902.377 1425.87,902.506 1426.93,919.767 1427.99,920.03 1429.05,832.058 1430.1,832.586 1431.16,912.48 1432.22,912.574 1433.27,937.976 1434.33,938.112 1435.39,909.559 1436.44,909.697 1437.5,816.136 1438.56,816.654 1439.61,870.031 1440.67,871.715 1441.73,954.157 1442.79,954.403 1443.84,905.973 1444.9,906.115 1445.96,934.489 1447.01,935.187 1448.07,839.646 1449.13,840.231 1450.18,858.415 1451.24,859.116 1452.3,867.448 1453.35,867.652 1454.41,932.781 1455.47,933.107 1456.52,851.81 1457.58,852.355 1458.64,858.176 1459.7,858.4 1460.75,834.506 1461.81,834.973 1462.87,941.175 1463.92,941.446 1464.98,831.877 1466.04,832.052 1467.09,911.042 1468.15,911.111 1469.21,874.684 1470.26,874.819 1471.32,852.825 1472.38,853.043 1473.43,881.916 1474.49,882.912 1475.55,818.632 1476.61,819.211 1477.66,870.83 1478.72,870.994 1479.78,875.405 1480.83,875.923 1481.89,910.527 1482.95,910.941 1484,877.919 1485.06,878.003 1486.12,890.1 1487.17,890.502 1488.23,831.321 1489.29,831.44 1490.34,941.848 1491.4,942.148 1492.46,846.174 1493.52,846.925 1494.57,824.771 1495.63,826.112 1496.69,931.165 1497.74,931.596 1498.8,964.47 1499.86,965.101 1500.91,870.238 1501.97,870.356 1503.03,875.734 1504.08,876.261 1505.14,901.508 1506.2,902.237 1507.25,974.04 1508.31,974.197 1509.37,844.177 1510.43,844.587 1511.48,865.125 1512.54,865.825 1513.6,881.578 1514.65,882.089 1515.71,865.862 1516.77,866.168 1517.82,897.26 1518.88,897.408 1519.94,845.376 1520.99,845.657 1522.05,881.343 1523.11,881.477 1524.16,887.686 1525.22,887.909 1526.28,892.154 1527.34,892.224 1528.39,897.301 1529.45,897.532 1530.51,887.257 1531.56,887.521 1532.62,888.597 1533.68,888.671 1534.73,916.989 1535.79,917.463 1536.85,872.843 1537.9,873.063 1538.96,872.326 1540.02,872.503 1541.07,917.477 1542.13,917.866 1543.19,893.454 1544.25,893.617 1545.3,896.838 1546.36,897.5 1547.42,899.075 1548.47,899.148 1549.53,916.411 1550.59,916.582 1551.64,879.575 1552.7,879.873 1553.76,906.108 1554.81,906.458 1555.87,856.069 1556.93,856.158 1557.98,847.464 1559.04,847.526 1560.1,834.112 1561.16,835.641 1562.21,811.823 1563.27,812.097 1564.33,875.097 1565.38,875.483 1566.44,903.995 1567.5,904.419 1568.55,848.332 1569.61,848.761 1570.67,854.639 1571.72,854.973 1572.78,900.571 1573.84,900.728 1574.89,918.967 1575.95,919.12 1577.01,910.18 1578.07,910.544 1579.12,848.816 1580.18,849.82 1581.24,913.569 1582.29,913.745 1583.35,846.009 1584.41,846.348 1585.46,852.836 1586.52,853.149 1587.58,925.018 1588.63,925.391 1589.69,887.527 1590.75,887.843 1591.8,930.563 1592.86,931.099 1593.92,884.955 1594.98,885.359 1596.03,943.629 1597.09,944.046 1598.15,842.678 1599.2,843.042 1600.26,930.133 1601.32,930.315 1602.37,887.12 1603.43,887.459 1604.49,915.148 1605.54,915.397 1606.6,909.685 1607.66,909.82 1608.71,854.276 1609.77,855.084 1610.83,865.949 1611.89,866.125 1612.94,833.291 1614,833.468 1615.06,955.236 1616.11,955.524 1617.17,894.892 1618.23,895.128 1619.28,910.527 1620.34,910.574 1621.4,903.247 1622.45,903.427 1623.51,830.813 1624.57,831.094 1625.62,919.284 1626.68,919.375 1627.74,830.21 1628.8,830.784 1629.85,868.008 1630.91,868.814 1631.97,879.92 1633.02,880.122 1634.08,906.402 1635.14,906.766 1636.19,849.46 1637.25,849.915 1638.31,890.501 1639.36,890.578 1640.42,974.312 1641.48,974.728 1642.53,913.223 1643.59,913.621 1644.65,926.42 1645.71,927.254 1646.76,861.059 1647.82,861.233 1648.88,862.332 1649.93,862.58 1650.99,842.821 1652.05,843.116 1653.1,839.166 1654.16,839.569 1655.22,890.468 1656.27,890.671 1657.33,886.403 1658.39,886.767 1659.44,915.583 1660.5,915.982 1661.56,860.998 1662.62,861.631 1663.67,903.389 1664.73,903.811 1665.79,916.093 1666.84,916.236 1667.9,956.317 1668.96,956.529 1670.01,863.301 1671.07,863.355 1672.13,855.233 1673.18,855.357 1674.24,945.308 1675.3,945.444 1676.35,850.175 1677.41,850.315 1678.47,883.572 1679.53,883.624 1680.58,886.365 1681.64,886.694 1682.7,867.851 1683.75,868.018 1684.81,880.399 1685.87,880.479 1686.92,903.345 1687.98,905.136 1689.04,905.752 1690.09,906.383 1691.15,847.443 1692.21,847.807 1693.26,914.522 1694.32,914.718 1695.38,965.793 1696.44,966.006 1697.49,889.486 1698.55,889.682 1699.61,853.172 1700.66,854.029 1701.72,877.18 1702.78,877.499 1703.83,860.205 1704.89,860.347 1705.95,891.311 1707,891.502 1708.06,903.781 1709.12,904.067 1710.17,849.547 1711.23,849.869 1712.29,877.987 1713.35,878.48 1714.4,948.835 1715.46,949.077 1716.52,887.422 1717.57,887.501 1718.63,941.836 1719.69,941.908 1720.74,850.483 1721.8,850.567 1722.86,899.741 1723.91,900.054 1724.97,906.402 1726.03,906.433 1727.08,921.153 1728.14,921.831 1729.2,896.281 1730.26,896.4 1731.31,878.409 1732.37,878.64 1733.43,863.449 1734.48,863.725 1735.54,894.814 1736.6,895.182 1737.65,853.542 1738.71,853.615 1739.77,904.754 1740.82,904.977 1741.88,863.57 1742.94,863.772 1743.99,881.627 1745.05,881.775 1746.11,955.044 1747.17,955.706 1748.22,857.152 1749.28,857.209 1750.34,903.687 1751.39,904.505 1752.45,879.926 1753.51,880.127 1754.56,885.868 1755.62,886.099 1756.68,905.277 1757.73,905.544 1758.79,916.724 1759.85,916.781 1760.9,872.83 1761.96,872.913 1763.02,880.351 1764.08,880.557 1765.13,917.646 1766.19,917.985 1767.25,896.613 1768.3,896.731 1769.36,868.772 1770.42,869.308 1771.47,852.778 1772.53,853.275 1773.59,875.376 1774.64,875.773 1775.7,945.951 1776.76,946.551 1777.81,917.273 1778.87,918.061 1779.93,872.321 1780.99,872.54 1782.04,891.726 1783.1,892.056 1784.16,897.216 1785.21,897.935 1786.27,880.501 1787.33,880.577 1788.38,917.476 1789.44,917.707 1790.5,892.964 1791.55,893.962 1792.61,865.441 1793.67,865.826 1794.72,922.267 1795.78,922.347 1796.84,844.005 1797.9,844.348 1798.95,879.926 1800.01,880.463 1801.07,900.427 1802.12,900.634 1803.18,900.434 1804.24,900.652 1805.29,848.287 1806.35,849.113 1807.41,851.084 1808.46,851.158 1809.52,819.701 1810.58,821.66 1811.64,888.603 1812.69,888.693 1813.75,846.766 1814.81,846.894 1815.86,893.821 1816.92,893.96 1817.98,914.515 1819.03,914.585 1820.09,913.952 1821.15,914.289 1822.2,864.306 1823.26,864.57 1824.32,918.679 1825.37,918.786 1826.43,870.622 1827.49,870.858 1828.55,851.42 1829.6,851.752 1830.66,862.149 1831.72,862.354 1832.77,897.014 1833.83,897.312 1834.89,882.28 1835.94,882.767 1837,841.472 1838.06,841.568 1839.11,899.19 1840.17,899.52 1841.23,897.988 1842.28,898.095 1843.34,857.759 1844.4,857.939 1845.46,888.294 1846.51,888.439 1847.57,902.372 1848.63,902.552 1849.68,812.021 1850.74,812.689 1851.8,880.932 1852.85,881.006 1853.91,871.811 1854.97,872.069 1856.02,912.168 1857.08,912.267 1858.14,896.833 1859.19,897.024 1860.25,865.199 1861.31,865.31 1862.37,878.185 1863.42,878.738 1864.48,849.799 1865.54,850.006 1866.59,882.772 1867.65,882.817 1868.71,861.257 1869.76,861.984 1870.82,885.914 1871.88,885.996 1872.93,842.311 1873.99,842.706 1875.05,919.816 1876.1,919.977 1877.16,882.991 1878.22,884.187 1879.28,852.48 1880.33,853.095 1881.39,893.086 1882.45,893.19 1883.5,876.387 1884.56,876.846 1885.62,862.475 1886.67,862.586 1887.73,918.132 1888.79,918.185 1889.84,895.925 1890.9,896.292 1891.96,890.97 1893.01,891.217 1894.07,889.64 1895.13,889.743 1896.19,879.625 1897.24,879.7 1898.3,871.444 1899.36,871.548 1900.41,913.416 1901.47,913.77 1902.53,844.366 1903.58,844.555 1904.64,870.981 1905.7,871.463 1906.75,868.953 1907.81,869.054 1908.87,890.739 1909.92,890.94 1910.98,873.883 1912.04,874.31 1913.1,906.922 1914.15,907.059 1915.21,871.63 1916.27,872.063 1917.32,904.655 1918.38,905.059 1919.44,882.04 1920.49,882.303 1921.55,891.779 1922.61,891.834 1923.66,863.964 1924.72,864.435 1925.78,845.874 1926.83,846.24 1927.89,888.092 1928.95,888.316 1930.01,886.524 1931.06,886.947 1932.12,918.626 1933.18,919.827 1934.23,917.763 1935.29,917.938 1936.35,888.412 1937.4,888.689 1938.46,896.039 1939.52,896.259 1940.57,875.474 1941.63,875.666 1942.69,891.615 1943.74,891.729 1944.8,926.87 1945.86,926.992 1946.92,916.966 1947.97,917.104 1949.03,892.992 1950.09,893.069 1951.14,904.63 1952.2,905.04 1953.26,879.003 1954.31,879.542 1955.37,910.045 1956.43,910.367 1957.48,878.761 1958.54,879.695 1959.6,883.458 1960.65,883.761 1961.71,923.526 1962.77,924.07 1963.83,891.592 1964.88,891.791 1965.94,950.047 1967,950.341 1968.05,901.505 1969.11,901.547 1970.17,893.222 1971.22,893.721 1972.28,886.06 1973.34,886.435 1974.39,861.921 1975.45,862.184 1976.51,889.159 1977.56,889.742 1978.62,872.901 1979.68,872.956 1980.74,889.04 1981.79,889.153 1982.85,903.433 1983.91,903.933 1984.96,852.896 1986.02,853.109 1987.08,858.04 1988.13,858.13 1989.19,901.495 1990.25,901.668 1991.3,866.682 1992.36,867.147 1993.42,888.241 1994.47,888.402 1995.53,900.583 1996.59,901.116 1997.65,881.815 1998.7,882.014 1999.76,895.611 2000.82,895.875 2001.87,921.321 2002.93,922.005 2003.99,932.146 2005.04,932.247 2006.1,887.055 2007.16,887.123 2008.21,922.726 2009.27,922.852 2010.33,898.851 2011.38,898.879 2012.44,868.379 2013.5,868.5 2014.56,917.473 2015.61,917.872 2016.67,919.639 2017.73,919.805 2018.78,897.839 2019.84,898.2 2020.9,861.604 2021.95,861.737 2023.01,878.043 2024.07,878.516 2025.12,862.419 2026.18,862.813 2027.24,942.345 2028.29,942.365 2029.35,878.476 2030.41,878.633 2031.47,960.72 2032.52,960.771 2033.58,837.429 2034.64,838.312 2035.69,887.559 2036.75,887.722 2037.81,871.226 2038.86,871.292 2039.92,887.16 2040.98,887.429 2042.03,868.92 2043.09,869.184 2044.15,860.236 2045.2,860.364 2046.26,907.983 2047.32,908.396 2048.38,847.167 2049.43,847.268 2050.49,881.291 2051.55,881.749 2052.6,854.78 2053.66,854.9 2054.72,862.257 2055.77,862.389 2056.83,907.09 2057.89,907.213 2058.94,852.092 2060,852.236 2061.06,869.846 2062.11,869.954 2063.17,837.474 2064.23,837.693 2065.29,893.676 2066.34,893.82 2067.4,856.426 2068.46,856.621 2069.51,868.44 2070.57,869.028 2071.63,879.137 2072.68,879.252 2073.74,882.996 2074.8,883.393 2075.85,866.336 2076.91,866.429 2077.97,904.891 2079.02,904.944 2080.08,870.977 2081.14,871.128 2082.2,858.912 2083.25,859.822 2084.31,873.497 2085.37,873.554 2086.42,867.747 2087.48,867.91 2088.54,892.624 2089.59,892.939 2090.65,877.155 2091.71,877.297 2092.76,938.766 2093.82,939.048 2094.88,907.416 2095.93,907.485 2096.99,884.705 2098.05,884.849 2099.11,859.776 2100.16,860.093 2101.22,915.424 2102.28,915.648 2103.33,888.468 2104.39,888.746 2105.45,872.838 2106.5,873.281 2107.56,861.157 2108.62,861.424 2109.67,905.297 2110.73,905.347 2111.79,876.644 2112.84,876.735 2113.9,894.191 2114.96,894.362 2116.02,891.155 2117.07,891.842 2118.13,922.627 2119.19,922.958 2120.24,903.918 2121.3,904.216 2122.36,868.413 2123.41,868.854 2124.47,914.003 2125.53,914.189 2126.58,848.116 2127.64,848.431 2128.7,898.419 2129.75,898.581 2130.81,852.032 2131.87,852.166 2132.93,928.176 2133.98,928.246 2135.04,873.156 2136.1,873.711 2137.15,894.705 2138.21,894.856 2139.27,869.27 2140.32,869.573 2141.38,917.3 2142.44,917.375 2143.49,905.39 2144.55,905.52 2145.61,886.488 2146.66,886.583 2147.72,875.735 2148.78,875.855 2149.84,888.389 2150.89,888.607 2151.95,873.067 2153.01,873.311 2154.06,878.965 2155.12,879.325 2156.18,849.45 2157.23,849.565 2158.29,847.383 2159.35,847.62 2160.4,881.866 2161.46,882.212 2162.52,856.16 2163.57,856.804 2164.63,923.024 2165.69,923.297 2166.75,899.038 2167.8,899.249 2168.86,898.632 2169.92,898.842 2170.97,857.431 2172.03,857.569 2173.09,857.8 2174.14,858.104 2175.2,861.657 2176.26,861.848 2177.31,915.19 2178.37,915.341 2179.43,896.147 2180.48,896.442 2181.54,859.126 2182.6,859.249 2183.66,915.015 2184.71,915.22 2185.77,876.646 2186.83,877.104 2187.88,873.548 2188.94,873.678 2190,890.869 2191.05,891.029 2192.11,904.141 2193.17,904.741 2194.22,937.951 2195.28,938.131 2196.34,903.195 2197.4,903.587 2198.45,876.832 2199.51,877.205 2200.57,863.257 2201.62,863.46 2202.68,853.837 2203.74,853.942 2204.79,908.864 2205.85,908.954 2206.91,294.313 2207.96,297.927 2209.02,880.999 2210.08,881.1 2211.13,849.557 2212.19,849.874 2213.25,934.729 2214.31,935.146 2215.36,911.793 2216.42,911.964 2217.48,898.169 2218.53,898.498 2219.59,862.16 2220.65,862.292 2221.7,877.148 2222.76,877.317 2223.82,857.074 2224.87,857.233 2225.93,885.116 2226.99,885.553 2228.04,879.87 2229.1,879.965 2230.16,916.636 2231.22,917.355 2232.27,880.775 2233.33,881.265 2234.39,891.478 2235.44,891.782 2236.5,852.218 2237.56,852.649 2238.61,890.571 2239.67,890.867 2240.73,889.559 2241.78,889.744 2242.84,872.056 2243.9,873.049 2244.95,892.338 2246.01,892.544 2247.07,873.973 2248.13,874.175 2249.18,873.729 2250.24,874.371 2251.3,858.394 2252.35,858.742 2253.41,877.408 2254.47,877.514 2255.52,880.403 2256.58,880.536 2257.64,857.952 2258.69,858.356 2259.75,904.237 2260.81,904.325 2261.86,907.419 2262.92,907.554 2263.98,881.715 2265.04,882.083 2266.09,903.746 2267.15,903.782 2268.21,918.887 2269.26,919.285 2270.32,837.091 2271.38,837.939 2272.43,884.6 2273.49,885.038 2274.55,867.239 2275.6,867.388 2276.66,919.548 2277.72,919.79 2278.77,880.76 2279.83,880.919 2280.89,892.103 2281.95,892.4 2283,871.091 2284.06,871.616 2285.12,906.567 2286.17,906.645 2287.23,853.542 2288.29,854.184 2289.34,854.815 "/>
<path clip-path="url(#clip570)" d="M2001.58 1438.47 L2278.07 1438.47 L2278.07 1334.79 L2001.58 1334.79  Z" fill="#ffffff" fill-rule="evenodd" fill-opacity="1"/>
<polyline clip-path="url(#clip570)" style="stroke:#000000; stroke-linecap:round; stroke-linejoin:round; stroke-width:4; stroke-opacity:1; fill:none" points="2001.58,1438.47 2278.07,1438.47 2278.07,1334.79 2001.58,1334.79 2001.58,1438.47 "/>
<polyline clip-path="url(#clip570)" style="stroke:#009af9; stroke-linecap:round; stroke-linejoin:round; stroke-width:4; stroke-opacity:1; fill:none" points="2026.48,1386.63 2175.85,1386.63 "/>
<path clip-path="url(#clip570)" d="M2214.59 1406.32 Q2212.78 1410.95 2211.07 1412.36 Q2209.36 1413.78 2206.49 1413.78 L2203.08 1413.78 L2203.08 1410.21 L2205.58 1410.21 Q2207.34 1410.21 2208.31 1409.38 Q2209.29 1408.54 2210.47 1405.44 L2211.23 1403.5 L2200.74 1377.99 L2205.26 1377.99 L2213.36 1398.27 L2221.46 1377.99 L2225.98 1377.99 L2214.59 1406.32 Z" fill="#000000" fill-rule="nonzero" fill-opacity="1" /><path clip-path="url(#clip570)" d="M2233.27 1399.98 L2240.91 1399.98 L2240.91 1373.61 L2232.6 1375.28 L2232.6 1371.02 L2240.86 1369.35 L2245.54 1369.35 L2245.54 1399.98 L2253.17 1399.98 L2253.17 1403.91 L2233.27 1403.91 L2233.27 1399.98 Z" fill="#000000" fill-rule="nonzero" fill-opacity="1" /></svg>
