<?xml version="1.0" encoding="utf-8"?>
<svg xmlns="http://www.w3.org/2000/svg" xmlns:xlink="http://www.w3.org/1999/xlink" width="600" height="400" viewBox="0 0 2400 1600">
<defs>
  <clipPath id="clip560">
    <rect x="0" y="0" width="2400" height="1600"/>
  </clipPath>
</defs>
<path clip-path="url(#clip560)" d="M0 1600 L2400 1600 L2400 0 L0 0  Z" fill="#ffffff" fill-rule="evenodd" fill-opacity="1"/>
<defs>
  <clipPath id="clip561">
    <rect x="480" y="0" width="1681" height="1600"/>
  </clipPath>
</defs>
<path clip-path="url(#clip560)" d="M284.422 1486.45 L2352.76 1486.45 L2352.76 47.2441 L284.422 47.2441  Z" fill="#ffffff" fill-rule="evenodd" fill-opacity="1"/>
<defs>
  <clipPath id="clip562">
    <rect x="284" y="47" width="2069" height="1440"/>
  </clipPath>
</defs>
<polyline clip-path="url(#clip562)" style="stroke:#000000; stroke-linecap:round; stroke-linejoin:round; stroke-width:2; stroke-opacity:0.1; fill:none" points="342.959,1486.45 342.959,47.2441 "/>
<polyline clip-path="url(#clip562)" style="stroke:#000000; stroke-linecap:round; stroke-linejoin:round; stroke-width:2; stroke-opacity:0.1; fill:none" points="830.774,1486.45 830.774,47.2441 "/>
<polyline clip-path="url(#clip562)" style="stroke:#000000; stroke-linecap:round; stroke-linejoin:round; stroke-width:2; stroke-opacity:0.1; fill:none" points="1318.59,1486.45 1318.59,47.2441 "/>
<polyline clip-path="url(#clip562)" style="stroke:#000000; stroke-linecap:round; stroke-linejoin:round; stroke-width:2; stroke-opacity:0.1; fill:none" points="1806.4,1486.45 1806.4,47.2441 "/>
<polyline clip-path="url(#clip562)" style="stroke:#000000; stroke-linecap:round; stroke-linejoin:round; stroke-width:2; stroke-opacity:0.1; fill:none" points="2294.22,1486.45 2294.22,47.2441 "/>
<polyline clip-path="url(#clip560)" style="stroke:#000000; stroke-linecap:round; stroke-linejoin:round; stroke-width:4; stroke-opacity:1; fill:none" points="284.422,1486.45 2352.76,1486.45 "/>
<polyline clip-path="url(#clip560)" style="stroke:#000000; stroke-linecap:round; stroke-linejoin:round; stroke-width:4; stroke-opacity:1; fill:none" points="342.959,1486.45 342.959,1467.55 "/>
<polyline clip-path="url(#clip560)" style="stroke:#000000; stroke-linecap:round; stroke-linejoin:round; stroke-width:4; stroke-opacity:1; fill:none" points="830.774,1486.45 830.774,1467.55 "/>
<polyline clip-path="url(#clip560)" style="stroke:#000000; stroke-linecap:round; stroke-linejoin:round; stroke-width:4; stroke-opacity:1; fill:none" points="1318.59,1486.45 1318.59,1467.55 "/>
<polyline clip-path="url(#clip560)" style="stroke:#000000; stroke-linecap:round; stroke-linejoin:round; stroke-width:4; stroke-opacity:1; fill:none" points="1806.4,1486.45 1806.4,1467.55 "/>
<polyline clip-path="url(#clip560)" style="stroke:#000000; stroke-linecap:round; stroke-linejoin:round; stroke-width:4; stroke-opacity:1; fill:none" points="2294.22,1486.45 2294.22,1467.55 "/>
<path clip-path="url(#clip560)" d="M342.959 1517.37 Q339.348 1517.37 337.52 1520.93 Q335.714 1524.47 335.714 1531.6 Q335.714 1538.71 337.52 1542.27 Q339.348 1545.82 342.959 1545.82 Q346.594 1545.82 348.399 1542.27 Q350.228 1538.71 350.228 1531.6 Q350.228 1524.47 348.399 1520.93 Q346.594 1517.37 342.959 1517.37 M342.959 1513.66 Q348.77 1513.66 351.825 1518.27 Q354.904 1522.85 354.904 1531.6 Q354.904 1540.33 351.825 1544.94 Q348.77 1549.52 342.959 1549.52 Q337.149 1549.52 334.071 1544.94 Q331.015 1540.33 331.015 1531.6 Q331.015 1522.85 334.071 1518.27 Q337.149 1513.66 342.959 1513.66 Z" fill="#000000" fill-rule="nonzero" fill-opacity="1" /><path clip-path="url(#clip560)" d="M790.392 1514.29 L808.749 1514.29 L808.749 1518.22 L794.675 1518.22 L794.675 1526.7 Q795.693 1526.35 796.712 1526.19 Q797.73 1526 798.749 1526 Q804.536 1526 807.915 1529.17 Q811.295 1532.34 811.295 1537.76 Q811.295 1543.34 807.823 1546.44 Q804.351 1549.52 798.031 1549.52 Q795.855 1549.52 793.587 1549.15 Q791.341 1548.78 788.934 1548.04 L788.934 1543.34 Q791.017 1544.47 793.24 1545.03 Q795.462 1545.58 797.939 1545.58 Q801.943 1545.58 804.281 1543.48 Q806.619 1541.37 806.619 1537.76 Q806.619 1534.15 804.281 1532.04 Q801.943 1529.94 797.939 1529.94 Q796.064 1529.94 794.189 1530.35 Q792.337 1530.77 790.392 1531.65 L790.392 1514.29 Z" fill="#000000" fill-rule="nonzero" fill-opacity="1" /><path clip-path="url(#clip560)" d="M830.508 1517.37 Q826.897 1517.37 825.068 1520.93 Q823.263 1524.47 823.263 1531.6 Q823.263 1538.71 825.068 1542.27 Q826.897 1545.82 830.508 1545.82 Q834.142 1545.82 835.948 1542.27 Q837.776 1538.71 837.776 1531.6 Q837.776 1524.47 835.948 1520.93 Q834.142 1517.37 830.508 1517.37 M830.508 1513.66 Q836.318 1513.66 839.374 1518.27 Q842.452 1522.85 842.452 1531.6 Q842.452 1540.33 839.374 1544.94 Q836.318 1549.52 830.508 1549.52 Q824.698 1549.52 821.619 1544.94 Q818.563 1540.33 818.563 1531.6 Q818.563 1522.85 821.619 1518.27 Q824.698 1513.66 830.508 1513.66 Z" fill="#000000" fill-rule="nonzero" fill-opacity="1" /><path clip-path="url(#clip560)" d="M860.67 1517.37 Q857.059 1517.37 855.23 1520.93 Q853.424 1524.47 853.424 1531.6 Q853.424 1538.71 855.23 1542.27 Q857.059 1545.82 860.67 1545.82 Q864.304 1545.82 866.11 1542.27 Q867.938 1538.71 867.938 1531.6 Q867.938 1524.47 866.11 1520.93 Q864.304 1517.37 860.67 1517.37 M860.67 1513.66 Q866.48 1513.66 869.535 1518.27 Q872.614 1522.85 872.614 1531.6 Q872.614 1540.33 869.535 1544.94 Q866.48 1549.52 860.67 1549.52 Q854.86 1549.52 851.781 1544.94 Q848.725 1540.33 848.725 1531.6 Q848.725 1522.85 851.781 1518.27 Q854.86 1513.66 860.67 1513.66 Z" fill="#000000" fill-rule="nonzero" fill-opacity="1" /><path clip-path="url(#clip560)" d="M1263.11 1544.91 L1270.75 1544.91 L1270.75 1518.55 L1262.44 1520.21 L1262.44 1515.95 L1270.71 1514.29 L1275.38 1514.29 L1275.38 1544.91 L1283.02 1544.91 L1283.02 1548.85 L1263.11 1548.85 L1263.11 1544.91 Z" fill="#000000" fill-rule="nonzero" fill-opacity="1" /><path clip-path="url(#clip560)" d="M1302.47 1517.37 Q1298.86 1517.37 1297.03 1520.93 Q1295.22 1524.47 1295.22 1531.6 Q1295.22 1538.71 1297.03 1542.27 Q1298.86 1545.82 1302.47 1545.82 Q1306.1 1545.82 1307.91 1542.27 Q1309.73 1538.71 1309.73 1531.6 Q1309.73 1524.47 1307.91 1520.93 Q1306.1 1517.37 1302.47 1517.37 M1302.47 1513.66 Q1308.28 1513.66 1311.33 1518.27 Q1314.41 1522.85 1314.41 1531.6 Q1314.41 1540.33 1311.33 1544.94 Q1308.28 1549.52 1302.47 1549.52 Q1296.66 1549.52 1293.58 1544.94 Q1290.52 1540.33 1290.52 1531.6 Q1290.52 1522.85 1293.58 1518.27 Q1296.66 1513.66 1302.47 1513.66 Z" fill="#000000" fill-rule="nonzero" fill-opacity="1" /><path clip-path="url(#clip560)" d="M1332.63 1517.37 Q1329.02 1517.37 1327.19 1520.93 Q1325.38 1524.47 1325.38 1531.6 Q1325.38 1538.71 1327.19 1542.27 Q1329.02 1545.82 1332.63 1545.82 Q1336.26 1545.82 1338.07 1542.27 Q1339.9 1538.71 1339.9 1531.6 Q1339.9 1524.47 1338.07 1520.93 Q1336.26 1517.37 1332.63 1517.37 M1332.63 1513.66 Q1338.44 1513.66 1341.49 1518.27 Q1344.57 1522.85 1344.57 1531.6 Q1344.57 1540.33 1341.49 1544.94 Q1338.44 1549.52 1332.63 1549.52 Q1326.82 1549.52 1323.74 1544.94 Q1320.68 1540.33 1320.68 1531.6 Q1320.68 1522.85 1323.74 1518.27 Q1326.82 1513.66 1332.63 1513.66 Z" fill="#000000" fill-rule="nonzero" fill-opacity="1" /><path clip-path="url(#clip560)" d="M1362.79 1517.37 Q1359.18 1517.37 1357.35 1520.93 Q1355.54 1524.47 1355.54 1531.6 Q1355.54 1538.71 1357.35 1542.27 Q1359.18 1545.82 1362.79 1545.82 Q1366.42 1545.82 1368.23 1542.27 Q1370.06 1538.71 1370.06 1531.6 Q1370.06 1524.47 1368.23 1520.93 Q1366.42 1517.37 1362.79 1517.37 M1362.79 1513.66 Q1368.6 1513.66 1371.66 1518.27 Q1374.73 1522.85 1374.73 1531.6 Q1374.73 1540.33 1371.66 1544.94 Q1368.6 1549.52 1362.79 1549.52 Q1356.98 1549.52 1353.9 1544.94 Q1350.85 1540.33 1350.85 1531.6 Q1350.85 1522.85 1353.9 1518.27 Q1356.98 1513.66 1362.79 1513.66 Z" fill="#000000" fill-rule="nonzero" fill-opacity="1" /><path clip-path="url(#clip560)" d="M1750.93 1544.91 L1758.57 1544.91 L1758.57 1518.55 L1750.26 1520.21 L1750.26 1515.95 L1758.52 1514.29 L1763.2 1514.29 L1763.2 1544.91 L1770.84 1544.91 L1770.84 1548.85 L1750.93 1548.85 L1750.93 1544.91 Z" fill="#000000" fill-rule="nonzero" fill-opacity="1" /><path clip-path="url(#clip560)" d="M1780.33 1514.29 L1798.68 1514.29 L1798.68 1518.22 L1784.61 1518.22 L1784.61 1526.7 Q1785.63 1526.35 1786.65 1526.19 Q1787.67 1526 1788.68 1526 Q1794.47 1526 1797.85 1529.17 Q1801.23 1532.34 1801.23 1537.76 Q1801.23 1543.34 1797.76 1546.44 Q1794.29 1549.52 1787.97 1549.52 Q1785.79 1549.52 1783.52 1549.15 Q1781.28 1548.78 1778.87 1548.04 L1778.87 1543.34 Q1780.95 1544.47 1783.17 1545.03 Q1785.4 1545.58 1787.87 1545.58 Q1791.88 1545.58 1794.22 1543.48 Q1796.55 1541.37 1796.55 1537.76 Q1796.55 1534.15 1794.22 1532.04 Q1791.88 1529.94 1787.87 1529.94 Q1786 1529.94 1784.12 1530.35 Q1782.27 1530.77 1780.33 1531.65 L1780.33 1514.29 Z" fill="#000000" fill-rule="nonzero" fill-opacity="1" /><path clip-path="url(#clip560)" d="M1820.44 1517.37 Q1816.83 1517.37 1815 1520.93 Q1813.2 1524.47 1813.2 1531.6 Q1813.2 1538.71 1815 1542.27 Q1816.83 1545.82 1820.44 1545.82 Q1824.08 1545.82 1825.88 1542.27 Q1827.71 1538.71 1827.71 1531.6 Q1827.71 1524.47 1825.88 1520.93 Q1824.08 1517.37 1820.44 1517.37 M1820.44 1513.66 Q1826.25 1513.66 1829.31 1518.27 Q1832.39 1522.85 1832.39 1531.6 Q1832.39 1540.33 1829.31 1544.94 Q1826.25 1549.52 1820.44 1549.52 Q1814.63 1549.52 1811.55 1544.94 Q1808.5 1540.33 1808.5 1531.6 Q1808.5 1522.85 1811.55 1518.27 Q1814.63 1513.66 1820.44 1513.66 Z" fill="#000000" fill-rule="nonzero" fill-opacity="1" /><path clip-path="url(#clip560)" d="M1850.6 1517.37 Q1846.99 1517.37 1845.16 1520.93 Q1843.36 1524.47 1843.36 1531.6 Q1843.36 1538.71 1845.16 1542.27 Q1846.99 1545.82 1850.6 1545.82 Q1854.24 1545.82 1856.04 1542.27 Q1857.87 1538.71 1857.87 1531.6 Q1857.87 1524.47 1856.04 1520.93 Q1854.24 1517.37 1850.6 1517.37 M1850.6 1513.66 Q1856.41 1513.66 1859.47 1518.27 Q1862.55 1522.85 1862.55 1531.6 Q1862.55 1540.33 1859.47 1544.94 Q1856.41 1549.52 1850.6 1549.52 Q1844.79 1549.52 1841.72 1544.94 Q1838.66 1540.33 1838.66 1531.6 Q1838.66 1522.85 1841.72 1518.27 Q1844.79 1513.66 1850.6 1513.66 Z" fill="#000000" fill-rule="nonzero" fill-opacity="1" /><path clip-path="url(#clip560)" d="M2242.83 1544.91 L2259.15 1544.91 L2259.15 1548.85 L2237.2 1548.85 L2237.2 1544.91 Q2239.87 1542.16 2244.45 1537.53 Q2249.06 1532.88 2250.24 1531.53 Q2252.48 1529.01 2253.36 1527.27 Q2254.26 1525.51 2254.26 1523.82 Q2254.26 1521.07 2252.32 1519.33 Q2250.4 1517.6 2247.3 1517.6 Q2245.1 1517.6 2242.64 1518.36 Q2240.21 1519.13 2237.44 1520.68 L2237.44 1515.95 Q2240.26 1514.82 2242.71 1514.24 Q2245.17 1513.66 2247.2 1513.66 Q2252.57 1513.66 2255.77 1516.35 Q2258.96 1519.03 2258.96 1523.52 Q2258.96 1525.65 2258.15 1527.57 Q2257.37 1529.47 2255.26 1532.07 Q2254.68 1532.74 2251.58 1535.95 Q2248.48 1539.15 2242.83 1544.91 Z" fill="#000000" fill-rule="nonzero" fill-opacity="1" /><path clip-path="url(#clip560)" d="M2278.96 1517.37 Q2275.35 1517.37 2273.52 1520.93 Q2271.72 1524.47 2271.72 1531.6 Q2271.72 1538.71 2273.52 1542.27 Q2275.35 1545.82 2278.96 1545.82 Q2282.6 1545.82 2284.4 1542.27 Q2286.23 1538.71 2286.23 1531.6 Q2286.23 1524.47 2284.4 1520.93 Q2282.6 1517.37 2278.96 1517.37 M2278.96 1513.66 Q2284.77 1513.66 2287.83 1518.27 Q2290.91 1522.85 2290.91 1531.6 Q2290.91 1540.33 2287.83 1544.94 Q2284.77 1549.52 2278.96 1549.52 Q2273.15 1549.52 2270.07 1544.94 Q2267.02 1540.33 2267.02 1531.6 Q2267.02 1522.85 2270.07 1518.27 Q2273.15 1513.66 2278.96 1513.66 Z" fill="#000000" fill-rule="nonzero" fill-opacity="1" /><path clip-path="url(#clip560)" d="M2309.13 1517.37 Q2305.51 1517.37 2303.69 1520.93 Q2301.88 1524.47 2301.88 1531.6 Q2301.88 1538.71 2303.69 1542.27 Q2305.51 1545.82 2309.13 1545.82 Q2312.76 1545.82 2314.57 1542.27 Q2316.39 1538.71 2316.39 1531.6 Q2316.39 1524.47 2314.57 1520.93 Q2312.76 1517.37 2309.13 1517.37 M2309.13 1513.66 Q2314.94 1513.66 2317.99 1518.27 Q2321.07 1522.85 2321.07 1531.6 Q2321.07 1540.33 2317.99 1544.94 Q2314.94 1549.52 2309.13 1549.52 Q2303.32 1549.52 2300.24 1544.94 Q2297.18 1540.33 2297.18 1531.6 Q2297.18 1522.85 2300.24 1518.27 Q2303.32 1513.66 2309.13 1513.66 Z" fill="#000000" fill-rule="nonzero" fill-opacity="1" /><path clip-path="url(#clip560)" d="M2339.29 1517.37 Q2335.68 1517.37 2333.85 1520.93 Q2332.04 1524.47 2332.04 1531.6 Q2332.04 1538.71 2333.85 1542.27 Q2335.68 1545.82 2339.29 1545.82 Q2342.92 1545.82 2344.73 1542.27 Q2346.56 1538.71 2346.56 1531.6 Q2346.56 1524.47 2344.73 1520.93 Q2342.92 1517.37 2339.29 1517.37 M2339.29 1513.66 Q2345.1 1513.66 2348.15 1518.27 Q2351.23 1522.85 2351.23 1531.6 Q2351.23 1540.33 2348.15 1544.94 Q2345.1 1549.52 2339.29 1549.52 Q2333.48 1549.52 2330.4 1544.94 Q2327.34 1540.33 2327.34 1531.6 Q2327.34 1522.85 2330.4 1518.27 Q2333.48 1513.66 2339.29 1513.66 Z" fill="#000000" fill-rule="nonzero" fill-opacity="1" /><polyline clip-path="url(#clip562)" style="stroke:#000000; stroke-linecap:round; stroke-linejoin:round; stroke-width:2; stroke-opacity:0.1; fill:none" points="284.422,1206.23 2352.76,1206.23 "/>
<polyline clip-path="url(#clip562)" style="stroke:#000000; stroke-linecap:round; stroke-linejoin:round; stroke-width:2; stroke-opacity:0.1; fill:none" points="284.422,866.799 2352.76,866.799 "/>
<polyline clip-path="url(#clip562)" style="stroke:#000000; stroke-linecap:round; stroke-linejoin:round; stroke-width:2; stroke-opacity:0.1; fill:none" points="284.422,527.364 2352.76,527.364 "/>
<polyline clip-path="url(#clip562)" style="stroke:#000000; stroke-linecap:round; stroke-linejoin:round; stroke-width:2; stroke-opacity:0.1; fill:none" points="284.422,187.93 2352.76,187.93 "/>
<polyline clip-path="url(#clip560)" style="stroke:#000000; stroke-linecap:round; stroke-linejoin:round; stroke-width:4; stroke-opacity:1; fill:none" points="284.422,1486.45 284.422,47.2441 "/>
<polyline clip-path="url(#clip560)" style="stroke:#000000; stroke-linecap:round; stroke-linejoin:round; stroke-width:4; stroke-opacity:1; fill:none" points="284.422,1206.23 303.319,1206.23 "/>
<polyline clip-path="url(#clip560)" style="stroke:#000000; stroke-linecap:round; stroke-linejoin:round; stroke-width:4; stroke-opacity:1; fill:none" points="284.422,866.799 303.319,866.799 "/>
<polyline clip-path="url(#clip560)" style="stroke:#000000; stroke-linecap:round; stroke-linejoin:round; stroke-width:4; stroke-opacity:1; fill:none" points="284.422,527.364 303.319,527.364 "/>
<polyline clip-path="url(#clip560)" style="stroke:#000000; stroke-linecap:round; stroke-linejoin:round; stroke-width:4; stroke-opacity:1; fill:none" points="284.422,187.93 303.319,187.93 "/>
<path clip-path="url(#clip560)" d="M50.9921 1206.69 L80.6679 1206.69 L80.6679 1210.62 L50.9921 1210.62 L50.9921 1206.69 Z" fill="#000000" fill-rule="nonzero" fill-opacity="1" /><path clip-path="url(#clip560)" d="M104.927 1204.88 Q108.283 1205.6 110.158 1207.87 Q112.057 1210.13 112.057 1213.47 Q112.057 1218.58 108.538 1221.38 Q105.02 1224.19 98.5382 1224.19 Q96.3623 1224.19 94.0475 1223.75 Q91.7558 1223.33 89.3021 1222.47 L89.3021 1217.96 Q91.2465 1219.09 93.5613 1219.67 Q95.8761 1220.25 98.3993 1220.25 Q102.797 1220.25 105.089 1218.51 Q107.404 1216.78 107.404 1213.47 Q107.404 1210.41 105.251 1208.7 Q103.121 1206.96 99.3021 1206.96 L95.2743 1206.96 L95.2743 1203.12 L99.4872 1203.12 Q102.936 1203.12 104.765 1201.75 Q106.594 1200.37 106.594 1197.77 Q106.594 1195.11 104.696 1193.7 Q102.821 1192.26 99.3021 1192.26 Q97.3808 1192.26 95.1817 1192.68 Q92.9826 1193.1 90.3438 1193.98 L90.3438 1189.81 Q93.0058 1189.07 95.3206 1188.7 Q97.6585 1188.33 99.7187 1188.33 Q105.043 1188.33 108.145 1190.76 Q111.246 1193.17 111.246 1197.29 Q111.246 1200.16 109.603 1202.15 Q107.959 1204.12 104.927 1204.88 Z" fill="#000000" fill-rule="nonzero" fill-opacity="1" /><path clip-path="url(#clip560)" d="M135.089 1204.88 Q138.445 1205.6 140.32 1207.87 Q142.218 1210.13 142.218 1213.47 Q142.218 1218.58 138.7 1221.38 Q135.181 1224.19 128.7 1224.19 Q126.524 1224.19 124.209 1223.75 Q121.918 1223.33 119.464 1222.47 L119.464 1217.96 Q121.408 1219.09 123.723 1219.67 Q126.038 1220.25 128.561 1220.25 Q132.959 1220.25 135.251 1218.51 Q137.566 1216.78 137.566 1213.47 Q137.566 1210.41 135.413 1208.7 Q133.283 1206.96 129.464 1206.96 L125.436 1206.96 L125.436 1203.12 L129.649 1203.12 Q133.098 1203.12 134.927 1201.75 Q136.756 1200.37 136.756 1197.77 Q136.756 1195.11 134.857 1193.7 Q132.982 1192.26 129.464 1192.26 Q127.543 1192.26 125.344 1192.68 Q123.145 1193.1 120.506 1193.98 L120.506 1189.81 Q123.168 1189.07 125.482 1188.7 Q127.82 1188.33 129.881 1188.33 Q135.205 1188.33 138.306 1190.76 Q141.408 1193.17 141.408 1197.29 Q141.408 1200.16 139.765 1202.15 Q138.121 1204.12 135.089 1204.88 Z" fill="#000000" fill-rule="nonzero" fill-opacity="1" /><path clip-path="url(#clip560)" d="M161.663 1204.37 Q158.515 1204.37 156.663 1206.52 Q154.834 1208.68 154.834 1212.43 Q154.834 1216.15 156.663 1218.33 Q158.515 1220.48 161.663 1220.48 Q164.811 1220.48 166.64 1218.33 Q168.491 1216.15 168.491 1212.43 Q168.491 1208.68 166.64 1206.52 Q164.811 1204.37 161.663 1204.37 M170.945 1189.72 L170.945 1193.98 Q169.186 1193.14 167.38 1192.7 Q165.598 1192.26 163.839 1192.26 Q159.209 1192.26 156.755 1195.39 Q154.325 1198.51 153.978 1204.83 Q155.343 1202.82 157.404 1201.75 Q159.464 1200.67 161.941 1200.67 Q167.149 1200.67 170.158 1203.84 Q173.191 1206.99 173.191 1212.43 Q173.191 1217.75 170.042 1220.97 Q166.894 1224.19 161.663 1224.19 Q155.667 1224.19 152.496 1219.6 Q149.325 1215 149.325 1206.27 Q149.325 1198.07 153.214 1193.21 Q157.103 1188.33 163.654 1188.33 Q165.413 1188.33 167.195 1188.68 Q169.001 1189.02 170.945 1189.72 Z" fill="#000000" fill-rule="nonzero" fill-opacity="1" /><path clip-path="url(#clip560)" d="M181.246 1217.63 L186.13 1217.63 L186.13 1223.51 L181.246 1223.51 L181.246 1217.63 Z" fill="#000000" fill-rule="nonzero" fill-opacity="1" /><path clip-path="url(#clip560)" d="M206.315 1192.03 Q202.704 1192.03 200.876 1195.6 Q199.07 1199.14 199.07 1206.27 Q199.07 1213.38 200.876 1216.94 Q202.704 1220.48 206.315 1220.48 Q209.95 1220.48 211.755 1216.94 Q213.584 1213.38 213.584 1206.27 Q213.584 1199.14 211.755 1195.6 Q209.95 1192.03 206.315 1192.03 M206.315 1188.33 Q212.126 1188.33 215.181 1192.94 Q218.26 1197.52 218.26 1206.27 Q218.26 1215 215.181 1219.6 Q212.126 1224.19 206.315 1224.19 Q200.505 1224.19 197.427 1219.6 Q194.371 1215 194.371 1206.27 Q194.371 1197.52 197.427 1192.94 Q200.505 1188.33 206.315 1188.33 Z" fill="#000000" fill-rule="nonzero" fill-opacity="1" /><path clip-path="url(#clip560)" d="M236.477 1192.03 Q232.866 1192.03 231.037 1195.6 Q229.232 1199.14 229.232 1206.27 Q229.232 1213.38 231.037 1216.94 Q232.866 1220.48 236.477 1220.48 Q240.111 1220.48 241.917 1216.94 Q243.746 1213.38 243.746 1206.27 Q243.746 1199.14 241.917 1195.6 Q240.111 1192.03 236.477 1192.03 M236.477 1188.33 Q242.287 1188.33 245.343 1192.94 Q248.422 1197.52 248.422 1206.27 Q248.422 1215 245.343 1219.6 Q242.287 1224.19 236.477 1224.19 Q230.667 1224.19 227.588 1219.6 Q224.533 1215 224.533 1206.27 Q224.533 1197.52 227.588 1192.94 Q230.667 1188.33 236.477 1188.33 Z" fill="#000000" fill-rule="nonzero" fill-opacity="1" /><path clip-path="url(#clip560)" d="M51.9875 867.251 L81.6633 867.251 L81.6633 871.186 L51.9875 871.186 L51.9875 867.251 Z" fill="#000000" fill-rule="nonzero" fill-opacity="1" /><path clip-path="url(#clip560)" d="M105.922 865.445 Q109.279 866.163 111.154 868.431 Q113.052 870.7 113.052 874.033 Q113.052 879.149 109.533 881.95 Q106.015 884.751 99.5335 884.751 Q97.3576 884.751 95.0428 884.311 Q92.7512 883.894 90.2975 883.038 L90.2975 878.524 Q92.2419 879.658 94.5567 880.237 Q96.8715 880.815 99.3946 880.815 Q103.793 880.815 106.084 879.079 Q108.399 877.343 108.399 874.033 Q108.399 870.977 106.246 869.265 Q104.117 867.528 100.297 867.528 L96.2697 867.528 L96.2697 863.686 L100.483 863.686 Q103.932 863.686 105.76 862.32 Q107.589 860.931 107.589 858.339 Q107.589 855.677 105.691 854.265 Q103.816 852.829 100.297 852.829 Q98.3761 852.829 96.1771 853.246 Q93.978 853.663 91.3391 854.542 L91.3391 850.376 Q94.0012 849.635 96.316 849.265 Q98.6539 848.894 100.714 848.894 Q106.038 848.894 109.14 851.325 Q112.242 853.732 112.242 857.853 Q112.242 860.723 110.598 862.714 Q108.955 864.681 105.922 865.445 Z" fill="#000000" fill-rule="nonzero" fill-opacity="1" /><path clip-path="url(#clip560)" d="M136.084 865.445 Q139.441 866.163 141.316 868.431 Q143.214 870.7 143.214 874.033 Q143.214 879.149 139.695 881.95 Q136.177 884.751 129.695 884.751 Q127.519 884.751 125.205 884.311 Q122.913 883.894 120.459 883.038 L120.459 878.524 Q122.404 879.658 124.719 880.237 Q127.033 880.815 129.557 880.815 Q133.955 880.815 136.246 879.079 Q138.561 877.343 138.561 874.033 Q138.561 870.977 136.408 869.265 Q134.279 867.528 130.459 867.528 L126.432 867.528 L126.432 863.686 L130.644 863.686 Q134.094 863.686 135.922 862.32 Q137.751 860.931 137.751 858.339 Q137.751 855.677 135.853 854.265 Q133.978 852.829 130.459 852.829 Q128.538 852.829 126.339 853.246 Q124.14 853.663 121.501 854.542 L121.501 850.376 Q124.163 849.635 126.478 849.265 Q128.816 848.894 130.876 848.894 Q136.2 848.894 139.302 851.325 Q142.404 853.732 142.404 857.853 Q142.404 860.723 140.76 862.714 Q139.117 864.681 136.084 865.445 Z" fill="#000000" fill-rule="nonzero" fill-opacity="1" /><path clip-path="url(#clip560)" d="M152.126 849.519 L170.482 849.519 L170.482 853.454 L156.408 853.454 L156.408 861.927 Q157.427 861.579 158.445 861.417 Q159.464 861.232 160.482 861.232 Q166.269 861.232 169.649 864.403 Q173.029 867.575 173.029 872.991 Q173.029 878.57 169.556 881.672 Q166.084 884.751 159.765 884.751 Q157.589 884.751 155.32 884.38 Q153.075 884.01 150.668 883.269 L150.668 878.57 Q152.751 879.704 154.973 880.26 Q157.195 880.815 159.672 880.815 Q163.677 880.815 166.015 878.709 Q168.353 876.602 168.353 872.991 Q168.353 869.38 166.015 867.274 Q163.677 865.167 159.672 865.167 Q157.797 865.167 155.922 865.584 Q154.07 866.001 152.126 866.88 L152.126 849.519 Z" fill="#000000" fill-rule="nonzero" fill-opacity="1" /><path clip-path="url(#clip560)" d="M182.241 878.2 L187.126 878.2 L187.126 884.079 L182.241 884.079 L182.241 878.2 Z" fill="#000000" fill-rule="nonzero" fill-opacity="1" /><path clip-path="url(#clip560)" d="M196.13 849.519 L218.352 849.519 L218.352 851.51 L205.806 884.079 L200.922 884.079 L212.727 853.454 L196.13 853.454 L196.13 849.519 Z" fill="#000000" fill-rule="nonzero" fill-opacity="1" /><path clip-path="url(#clip560)" d="M227.519 849.519 L245.875 849.519 L245.875 853.454 L231.801 853.454 L231.801 861.927 Q232.82 861.579 233.838 861.417 Q234.857 861.232 235.875 861.232 Q241.662 861.232 245.042 864.403 Q248.422 867.575 248.422 872.991 Q248.422 878.57 244.949 881.672 Q241.477 884.751 235.158 884.751 Q232.982 884.751 230.713 884.38 Q228.468 884.01 226.061 883.269 L226.061 878.57 Q228.144 879.704 230.366 880.26 Q232.588 880.815 235.065 880.815 Q239.07 880.815 241.408 878.709 Q243.746 876.602 243.746 872.991 Q243.746 869.38 241.408 867.274 Q239.07 865.167 235.065 865.167 Q233.19 865.167 231.315 865.584 Q229.463 866.001 227.519 866.88 L227.519 849.519 Z" fill="#000000" fill-rule="nonzero" fill-opacity="1" /><path clip-path="url(#clip560)" d="M50.9921 527.816 L80.6679 527.816 L80.6679 531.751 L50.9921 531.751 L50.9921 527.816 Z" fill="#000000" fill-rule="nonzero" fill-opacity="1" /><path clip-path="url(#clip560)" d="M104.927 526.01 Q108.283 526.728 110.158 528.996 Q112.057 531.265 112.057 534.598 Q112.057 539.714 108.538 542.515 Q105.02 545.316 98.5382 545.316 Q96.3623 545.316 94.0475 544.876 Q91.7558 544.459 89.3021 543.603 L89.3021 539.089 Q91.2465 540.223 93.5613 540.802 Q95.8761 541.381 98.3993 541.381 Q102.797 541.381 105.089 539.644 Q107.404 537.908 107.404 534.598 Q107.404 531.543 105.251 529.83 Q103.121 528.094 99.3021 528.094 L95.2743 528.094 L95.2743 524.251 L99.4872 524.251 Q102.936 524.251 104.765 522.885 Q106.594 521.496 106.594 518.904 Q106.594 516.242 104.696 514.83 Q102.821 513.395 99.3021 513.395 Q97.3808 513.395 95.1817 513.811 Q92.9826 514.228 90.3438 515.108 L90.3438 510.941 Q93.0058 510.2 95.3206 509.83 Q97.6585 509.459 99.7187 509.459 Q105.043 509.459 108.145 511.89 Q111.246 514.297 111.246 518.418 Q111.246 521.288 109.603 523.279 Q107.959 525.246 104.927 526.01 Z" fill="#000000" fill-rule="nonzero" fill-opacity="1" /><path clip-path="url(#clip560)" d="M135.089 526.01 Q138.445 526.728 140.32 528.996 Q142.218 531.265 142.218 534.598 Q142.218 539.714 138.7 542.515 Q135.181 545.316 128.7 545.316 Q126.524 545.316 124.209 544.876 Q121.918 544.459 119.464 543.603 L119.464 539.089 Q121.408 540.223 123.723 540.802 Q126.038 541.381 128.561 541.381 Q132.959 541.381 135.251 539.644 Q137.566 537.908 137.566 534.598 Q137.566 531.543 135.413 529.83 Q133.283 528.094 129.464 528.094 L125.436 528.094 L125.436 524.251 L129.649 524.251 Q133.098 524.251 134.927 522.885 Q136.756 521.496 136.756 518.904 Q136.756 516.242 134.857 514.83 Q132.982 513.395 129.464 513.395 Q127.543 513.395 125.344 513.811 Q123.145 514.228 120.506 515.108 L120.506 510.941 Q123.168 510.2 125.482 509.83 Q127.82 509.459 129.881 509.459 Q135.205 509.459 138.306 511.89 Q141.408 514.297 141.408 518.418 Q141.408 521.288 139.765 523.279 Q138.121 525.246 135.089 526.01 Z" fill="#000000" fill-rule="nonzero" fill-opacity="1" /><path clip-path="url(#clip560)" d="M151.13 510.084 L169.487 510.084 L169.487 514.02 L155.413 514.02 L155.413 522.492 Q156.431 522.145 157.45 521.982 Q158.468 521.797 159.487 521.797 Q165.274 521.797 168.654 524.969 Q172.033 528.14 172.033 533.557 Q172.033 539.135 168.561 542.237 Q165.089 545.316 158.769 545.316 Q156.593 545.316 154.325 544.945 Q152.08 544.575 149.672 543.834 L149.672 539.135 Q151.755 540.269 153.978 540.825 Q156.2 541.381 158.677 541.381 Q162.681 541.381 165.019 539.274 Q167.357 537.168 167.357 533.557 Q167.357 529.945 165.019 527.839 Q162.681 525.732 158.677 525.732 Q156.802 525.732 154.927 526.149 Q153.075 526.566 151.13 527.445 L151.13 510.084 Z" fill="#000000" fill-rule="nonzero" fill-opacity="1" /><path clip-path="url(#clip560)" d="M181.246 538.765 L186.13 538.765 L186.13 544.644 L181.246 544.644 L181.246 538.765 Z" fill="#000000" fill-rule="nonzero" fill-opacity="1" /><path clip-path="url(#clip560)" d="M196.362 510.084 L214.718 510.084 L214.718 514.02 L200.644 514.02 L200.644 522.492 Q201.663 522.145 202.681 521.982 Q203.7 521.797 204.718 521.797 Q210.505 521.797 213.885 524.969 Q217.264 528.14 217.264 533.557 Q217.264 539.135 213.792 542.237 Q210.32 545.316 204.001 545.316 Q201.825 545.316 199.556 544.945 Q197.311 544.575 194.903 543.834 L194.903 539.135 Q196.987 540.269 199.209 540.825 Q201.431 541.381 203.908 541.381 Q207.913 541.381 210.251 539.274 Q212.588 537.168 212.588 533.557 Q212.588 529.945 210.251 527.839 Q207.913 525.732 203.908 525.732 Q202.033 525.732 200.158 526.149 Q198.306 526.566 196.362 527.445 L196.362 510.084 Z" fill="#000000" fill-rule="nonzero" fill-opacity="1" /><path clip-path="url(#clip560)" d="M236.477 513.163 Q232.866 513.163 231.037 516.728 Q229.232 520.27 229.232 527.399 Q229.232 534.506 231.037 538.07 Q232.866 541.612 236.477 541.612 Q240.111 541.612 241.917 538.07 Q243.746 534.506 243.746 527.399 Q243.746 520.27 241.917 516.728 Q240.111 513.163 236.477 513.163 M236.477 509.459 Q242.287 509.459 245.343 514.066 Q248.422 518.649 248.422 527.399 Q248.422 536.126 245.343 540.732 Q242.287 545.316 236.477 545.316 Q230.667 545.316 227.588 540.732 Q224.533 536.126 224.533 527.399 Q224.533 518.649 227.588 514.066 Q230.667 509.459 236.477 509.459 Z" fill="#000000" fill-rule="nonzero" fill-opacity="1" /><path clip-path="url(#clip560)" d="M51.9875 188.381 L81.6633 188.381 L81.6633 192.316 L51.9875 192.316 L51.9875 188.381 Z" fill="#000000" fill-rule="nonzero" fill-opacity="1" /><path clip-path="url(#clip560)" d="M105.922 186.575 Q109.279 187.293 111.154 189.561 Q113.052 191.83 113.052 195.163 Q113.052 200.279 109.533 203.08 Q106.015 205.881 99.5335 205.881 Q97.3576 205.881 95.0428 205.441 Q92.7512 205.024 90.2975 204.168 L90.2975 199.654 Q92.2419 200.788 94.5567 201.367 Q96.8715 201.946 99.3946 201.946 Q103.793 201.946 106.084 200.21 Q108.399 198.473 108.399 195.163 Q108.399 192.108 106.246 190.395 Q104.117 188.659 100.297 188.659 L96.2697 188.659 L96.2697 184.816 L100.483 184.816 Q103.932 184.816 105.76 183.45 Q107.589 182.062 107.589 179.469 Q107.589 176.807 105.691 175.395 Q103.816 173.96 100.297 173.96 Q98.3761 173.96 96.1771 174.376 Q93.978 174.793 91.3391 175.673 L91.3391 171.506 Q94.0012 170.765 96.316 170.395 Q98.6539 170.025 100.714 170.025 Q106.038 170.025 109.14 172.455 Q112.242 174.863 112.242 178.983 Q112.242 181.853 110.598 183.844 Q108.955 185.812 105.922 186.575 Z" fill="#000000" fill-rule="nonzero" fill-opacity="1" /><path clip-path="url(#clip560)" d="M136.084 186.575 Q139.441 187.293 141.316 189.561 Q143.214 191.83 143.214 195.163 Q143.214 200.279 139.695 203.08 Q136.177 205.881 129.695 205.881 Q127.519 205.881 125.205 205.441 Q122.913 205.024 120.459 204.168 L120.459 199.654 Q122.404 200.788 124.719 201.367 Q127.033 201.946 129.557 201.946 Q133.955 201.946 136.246 200.21 Q138.561 198.473 138.561 195.163 Q138.561 192.108 136.408 190.395 Q134.279 188.659 130.459 188.659 L126.432 188.659 L126.432 184.816 L130.644 184.816 Q134.094 184.816 135.922 183.45 Q137.751 182.062 137.751 179.469 Q137.751 176.807 135.853 175.395 Q133.978 173.96 130.459 173.96 Q128.538 173.96 126.339 174.376 Q124.14 174.793 121.501 175.673 L121.501 171.506 Q124.163 170.765 126.478 170.395 Q128.816 170.025 130.876 170.025 Q136.2 170.025 139.302 172.455 Q142.404 174.863 142.404 178.983 Q142.404 181.853 140.76 183.844 Q139.117 185.812 136.084 186.575 Z" fill="#000000" fill-rule="nonzero" fill-opacity="1" /><path clip-path="url(#clip560)" d="M152.126 170.65 L170.482 170.65 L170.482 174.585 L156.408 174.585 L156.408 183.057 Q157.427 182.71 158.445 182.548 Q159.464 182.362 160.482 182.362 Q166.269 182.362 169.649 185.534 Q173.029 188.705 173.029 194.122 Q173.029 199.7 169.556 202.802 Q166.084 205.881 159.765 205.881 Q157.589 205.881 155.32 205.51 Q153.075 205.14 150.668 204.399 L150.668 199.7 Q152.751 200.835 154.973 201.39 Q157.195 201.946 159.672 201.946 Q163.677 201.946 166.015 199.839 Q168.353 197.733 168.353 194.122 Q168.353 190.511 166.015 188.404 Q163.677 186.298 159.672 186.298 Q157.797 186.298 155.922 186.714 Q154.07 187.131 152.126 188.011 L152.126 170.65 Z" fill="#000000" fill-rule="nonzero" fill-opacity="1" /><path clip-path="url(#clip560)" d="M182.241 199.33 L187.126 199.33 L187.126 205.21 L182.241 205.21 L182.241 199.33 Z" fill="#000000" fill-rule="nonzero" fill-opacity="1" /><path clip-path="url(#clip560)" d="M201.339 201.274 L217.658 201.274 L217.658 205.21 L195.714 205.21 L195.714 201.274 Q198.376 198.52 202.959 193.89 Q207.565 189.237 208.746 187.895 Q210.991 185.372 211.871 183.636 Q212.774 181.876 212.774 180.187 Q212.774 177.432 210.829 175.696 Q208.908 173.96 205.806 173.96 Q203.607 173.96 201.153 174.724 Q198.723 175.487 195.945 177.038 L195.945 172.316 Q198.769 171.182 201.223 170.603 Q203.676 170.025 205.714 170.025 Q211.084 170.025 214.278 172.71 Q217.473 175.395 217.473 179.886 Q217.473 182.015 216.663 183.937 Q215.876 185.835 213.769 188.427 Q213.19 189.099 210.088 192.316 Q206.987 195.511 201.339 201.274 Z" fill="#000000" fill-rule="nonzero" fill-opacity="1" /><path clip-path="url(#clip560)" d="M227.519 170.65 L245.875 170.65 L245.875 174.585 L231.801 174.585 L231.801 183.057 Q232.82 182.71 233.838 182.548 Q234.857 182.362 235.875 182.362 Q241.662 182.362 245.042 185.534 Q248.422 188.705 248.422 194.122 Q248.422 199.7 244.949 202.802 Q241.477 205.881 235.158 205.881 Q232.982 205.881 230.713 205.51 Q228.468 205.14 226.061 204.399 L226.061 199.7 Q228.144 200.835 230.366 201.39 Q232.588 201.946 235.065 201.946 Q239.07 201.946 241.408 199.839 Q243.746 197.733 243.746 194.122 Q243.746 190.511 241.408 188.404 Q239.07 186.298 235.065 186.298 Q233.19 186.298 231.315 186.714 Q229.463 187.131 227.519 188.011 L227.519 170.65 Z" fill="#000000" fill-rule="nonzero" fill-opacity="1" /><polyline clip-path="url(#clip562)" style="stroke:#009af9; stroke-linecap:round; stroke-linejoin:round; stroke-width:4; stroke-opacity:1; fill:none" points="342.959,1445.72 343.935,1445.72 344.911,1445.72 345.886,1445.72 346.862,1445.72 347.838,1445.72 348.813,1445.72 349.789,1445.72 350.764,1445.72 351.74,1445.72 352.716,1445.72 353.691,1445.72 354.667,1445.72 355.643,1445.72 356.618,1445.72 357.594,1445.72 358.569,1445.72 359.545,1445.72 360.521,1445.72 361.496,1445.72 362.472,1445.72 363.448,1445.72 364.423,1445.72 365.399,1445.72 366.374,1445.72 367.35,1445.72 368.326,1445.72 369.301,1445.72 370.277,1445.72 371.253,1445.72 372.228,1445.72 373.204,1445.72 374.18,1445.72 375.155,1445.72 376.131,1445.72 377.106,1445.72 378.082,1445.72 379.058,1445.72 380.033,1445.72 381.009,1445.72 381.985,1445.72 382.96,1445.72 383.936,1445.72 384.911,1445.72 385.887,1445.72 386.863,1445.72 387.838,1445.72 388.814,1445.72 389.79,1445.72 390.765,1445.72 391.741,1445.72 392.716,1445.72 393.692,1445.72 394.668,1445.72 395.643,1445.72 396.619,1445.72 397.595,1445.72 398.57,1445.72 399.546,1445.72 400.522,1445.72 401.497,1445.72 402.473,1445.72 403.448,1445.72 404.424,1445.72 405.4,1445.72 406.375,1445.72 407.351,1445.72 408.327,1445.72 409.302,1445.72 410.278,1445.72 411.253,1445.72 412.229,1445.72 413.205,1445.72 414.18,1445.72 415.156,1445.72 416.132,1445.72 417.107,1445.72 418.083,1445.72 419.058,1445.72 420.034,1445.72 421.01,1445.72 421.985,1445.72 422.961,1445.72 423.937,1445.72 424.912,1445.72 425.888,1445.72 426.864,1445.72 427.839,1445.72 428.815,1445.72 429.79,1445.72 430.766,1445.72 431.742,1445.72 432.717,1445.72 433.693,1445.72 434.669,1445.72 435.644,1445.72 436.62,1445.72 437.595,1445.72 438.571,1445.72 439.547,1445.72 440.522,1445.72 441.498,1445.72 442.474,1445.72 443.449,1445.72 444.425,1445.72 445.4,1445.72 446.376,1445.72 447.352,1445.72 448.327,1445.72 449.303,1445.72 450.279,1445.72 451.254,1445.72 452.23,1445.72 453.206,1445.72 454.181,1445.72 455.157,1445.72 456.132,1445.72 457.108,1445.72 458.084,1445.72 459.059,1445.72 460.035,1445.72 461.011,1445.72 461.986,1445.72 462.962,1445.72 463.937,1445.72 464.913,1445.72 465.889,1445.72 466.864,1445.72 467.84,1445.72 468.816,1445.72 469.791,1445.72 470.767,1445.72 471.742,1445.72 472.718,1445.72 473.694,1445.72 474.669,1445.72 475.645,1445.72 476.621,1445.72 477.596,1445.72 478.572,1445.72 479.547,1445.72 480.523,1445.72 481.499,1445.72 482.474,1445.72 483.45,1445.72 484.426,1445.72 485.401,1445.72 486.377,1445.72 487.353,1445.72 488.328,1445.72 489.304,1445.72 490.279,1445.72 491.255,1445.72 492.231,1445.72 493.206,1445.72 494.182,1445.72 495.158,1445.72 496.133,1445.72 497.109,1445.72 498.084,1445.72 499.06,1445.72 500.036,1445.72 501.011,1445.72 501.987,1445.72 502.963,1445.72 503.938,1445.72 504.914,1445.72 505.889,1445.72 506.865,1445.72 507.841,1445.72 508.816,1445.72 509.792,1445.72 510.768,1445.72 511.743,1445.72 512.719,1445.72 513.695,1445.72 514.67,1445.72 515.646,1445.72 516.621,1445.72 517.597,1445.72 518.573,1445.72 519.548,1445.72 520.524,1445.72 521.5,1445.72 522.475,1445.72 523.451,1445.72 524.426,1445.72 525.402,1445.72 526.378,1445.72 527.353,1445.72 528.329,1445.72 529.305,1445.72 530.28,1445.72 531.256,1445.72 532.231,1445.72 533.207,1445.72 534.183,1445.72 535.158,1445.72 536.134,1445.72 537.11,1445.72 538.085,1445.72 539.061,1445.72 540.037,1445.72 541.012,1445.72 541.988,1445.72 542.963,1445.72 543.939,1445.72 544.915,1445.72 545.89,1445.72 546.866,1445.72 547.842,1445.72 548.817,1445.72 549.793,1445.72 550.768,1445.72 551.744,1445.72 552.72,1445.72 553.695,1445.72 554.671,1445.72 555.647,1445.72 556.622,1445.72 557.598,1445.72 558.573,1445.72 559.549,1445.72 560.525,1445.72 561.5,1445.72 562.476,1445.72 563.452,1445.72 564.427,1445.72 565.403,1445.72 566.379,1445.72 567.354,1445.72 568.33,1445.72 569.305,1445.72 570.281,1445.72 571.257,1445.72 572.232,1445.72 573.208,1445.72 574.184,1445.72 575.159,1445.72 576.135,1445.72 577.11,1445.72 578.086,1445.72 579.062,1445.72 580.037,1445.72 581.013,1445.72 581.989,1445.72 582.964,1445.72 583.94,1445.72 584.915,1445.72 585.891,1445.72 586.867,1445.72 587.842,1445.72 588.818,1445.72 589.794,1445.72 590.769,1445.72 591.745,1445.72 592.721,1445.72 593.696,1445.72 594.672,1445.72 595.647,1445.72 596.623,1445.72 597.599,1445.72 598.574,1445.72 599.55,1445.72 600.526,1445.72 601.501,1445.72 602.477,1445.72 603.452,1445.72 604.428,1445.72 605.404,1445.72 606.379,1445.72 607.355,1445.72 608.331,1445.72 609.306,1445.72 610.282,1445.72 611.257,1445.72 612.233,1445.72 613.209,1445.72 614.184,1445.72 615.16,1445.72 616.136,1445.72 617.111,1445.72 618.087,1445.72 619.063,1445.72 620.038,1445.72 621.014,1445.72 621.989,1445.72 622.965,1445.72 623.941,1445.72 624.916,1445.72 625.892,1445.72 626.868,1445.72 627.843,1445.72 628.819,1445.72 629.794,1445.72 630.77,1445.72 631.746,1445.72 632.721,1445.72 633.697,1445.72 634.673,1445.72 635.648,1445.72 636.624,1445.72 637.599,1445.72 638.575,1445.72 639.551,1445.72 640.526,1445.72 641.502,1445.72 642.478,1445.72 643.453,1445.72 644.429,1445.72 645.404,1445.72 646.38,1445.72 647.356,1445.72 648.331,1445.72 649.307,1445.72 650.283,1445.72 651.258,1445.72 652.234,1445.72 653.21,1445.72 654.185,1445.72 655.161,1445.72 656.136,1445.72 657.112,1445.72 658.088,1445.72 659.063,1445.72 660.039,1445.72 661.015,1445.72 661.99,1445.72 662.966,1445.72 663.941,1445.72 664.917,1445.72 665.893,1445.72 666.868,1445.72 667.844,1445.72 668.82,1445.72 669.795,1445.72 670.771,1445.72 671.746,1445.72 672.722,1445.72 673.698,1445.72 674.673,1445.72 675.649,1445.72 676.625,1445.72 677.6,1445.72 678.576,1445.72 679.552,1445.72 680.527,1445.72 681.503,1445.72 682.478,1445.72 683.454,1445.72 684.43,1445.72 685.405,1445.72 686.381,1445.72 687.357,1445.72 688.332,1445.72 689.308,1445.72 690.283,1445.72 691.259,1445.72 692.235,1445.72 693.21,1445.72 694.186,1445.72 695.162,1445.72 696.137,1445.72 697.113,1445.72 698.088,1445.72 699.064,1445.72 700.04,1445.72 701.015,1445.72 701.991,1445.72 702.967,1445.72 703.942,1445.72 704.918,1445.72 705.894,1445.72 706.869,1445.72 707.845,1445.72 708.82,1445.72 709.796,1445.72 710.772,1445.72 711.747,1445.72 712.723,1445.72 713.699,1445.72 714.674,1445.72 715.65,1445.72 716.625,1445.72 717.601,1445.72 718.577,1445.72 719.552,1445.72 720.528,1445.72 721.504,1445.72 722.479,1445.72 723.455,1445.72 724.43,1445.72 725.406,1445.72 726.382,1445.72 727.357,1445.72 728.333,1445.72 729.309,1445.72 730.284,1445.72 731.26,1445.72 732.236,1445.72 733.211,1445.72 734.187,1445.72 735.162,1445.72 736.138,1445.72 737.114,1445.72 738.089,1445.72 739.065,1445.72 740.041,1445.72 741.016,1445.72 741.992,1445.72 742.967,1445.72 743.943,1445.72 744.919,1445.72 745.894,1445.72 746.87,1445.72 747.846,1445.72 748.821,1445.72 749.797,1445.72 750.772,1445.72 751.748,1445.72 752.724,1445.72 753.699,1445.72 754.675,1445.72 755.651,1445.72 756.626,1445.72 757.602,1445.72 758.578,1445.72 759.553,1445.72 760.529,1445.72 761.504,1445.72 762.48,1445.72 763.456,1445.72 764.431,1445.72 765.407,1445.72 766.383,1445.72 767.358,1445.72 768.334,1445.72 769.309,1445.72 770.285,1445.72 771.261,1445.72 772.236,1445.72 773.212,1445.72 774.188,1445.72 775.163,1445.72 776.139,1445.72 777.114,1445.72 778.09,1445.72 779.066,1445.72 780.041,1445.72 781.017,1445.72 781.993,1445.72 782.968,1445.72 783.944,1445.72 784.919,1445.72 785.895,1445.72 786.871,1445.72 787.846,1445.72 788.822,1445.72 789.798,1445.72 790.773,1445.72 791.749,1445.72 792.725,1445.72 793.7,1445.72 794.676,1445.72 795.651,1445.72 796.627,1445.72 797.603,1445.72 798.578,1445.72 799.554,1445.72 800.53,1445.72 801.505,1445.72 802.481,1445.72 803.456,1445.72 804.432,1445.72 805.408,1445.72 806.383,1445.72 807.359,1445.72 808.335,1445.72 809.31,1445.72 810.286,1445.72 811.261,1445.72 812.237,1445.72 813.213,1445.72 814.188,1445.72 815.164,1445.72 816.14,1445.72 817.115,1445.72 818.091,1445.72 819.067,1445.72 820.042,1445.72 821.018,1445.72 821.993,1445.72 822.969,1445.72 823.945,1445.72 824.92,1445.72 825.896,1445.72 826.872,1445.72 827.847,1445.72 828.823,1445.72 829.798,1445.72 830.774,1445.72 831.75,1445.72 832.725,1445.72 833.701,1445.72 834.677,1445.72 835.652,1445.72 836.628,1445.72 837.603,1445.72 838.579,1445.72 839.555,1445.72 840.53,1445.72 841.506,1445.72 842.482,1445.72 843.457,1445.72 844.433,1445.72 845.409,1445.72 846.384,1445.72 847.36,1445.72 848.335,1445.72 849.311,1445.72 850.287,1445.72 851.262,1445.72 852.238,1445.72 853.214,1445.72 854.189,1445.72 855.165,1445.72 856.14,1445.72 857.116,1445.72 858.092,1445.72 859.067,1445.72 860.043,1445.72 861.019,1445.72 861.994,1445.72 862.97,1445.72 863.945,1445.72 864.921,1445.72 865.897,1445.72 866.872,1445.72 867.848,1445.72 868.824,1445.72 869.799,1445.72 870.775,1445.72 871.751,1445.72 872.726,1445.72 873.702,1445.72 874.677,1445.72 875.653,1445.72 876.629,1445.72 877.604,1445.72 878.58,1445.72 879.556,1445.72 880.531,1445.72 881.507,1445.72 882.482,1445.72 883.458,1445.72 884.434,1445.72 885.409,1445.72 886.385,1445.72 887.361,1445.72 888.336,1445.72 889.312,1445.72 890.287,1445.72 891.263,1445.72 892.239,1445.72 893.214,1445.72 894.19,1445.72 895.166,1445.72 896.141,1445.72 897.117,1445.72 898.093,1445.72 899.068,1445.72 900.044,1445.72 901.019,1445.72 901.995,1445.72 902.971,1445.72 903.946,1445.72 904.922,1445.72 905.898,1445.72 906.873,1445.72 907.849,1445.72 908.824,1445.72 909.8,1445.72 910.776,1445.72 911.751,1445.72 912.727,1445.72 913.703,1445.72 914.678,1445.72 915.654,1445.72 916.629,1445.72 917.605,1445.72 918.581,1445.72 919.556,1445.72 920.532,1445.72 921.508,1445.72 922.483,1445.72 923.459,1445.72 924.434,1445.72 925.41,1445.72 926.386,1445.72 927.361,1445.72 928.337,1445.72 929.313,1445.72 930.288,1445.72 931.264,1445.72 932.24,1445.72 933.215,1445.72 934.191,1445.72 935.166,1445.72 936.142,1445.72 937.118,1445.72 938.093,1445.72 939.069,1445.72 940.045,1445.72 941.02,1445.72 941.996,1445.72 942.971,1445.72 943.947,1445.72 944.923,1445.72 945.898,1445.72 946.874,1445.72 947.85,1445.72 948.825,1445.72 949.801,1445.72 950.776,1445.72 951.752,1445.72 952.728,1445.72 953.703,1445.72 954.679,1445.72 955.655,1445.72 956.63,1445.72 957.606,1445.72 958.582,1445.72 959.557,1445.72 960.533,1445.72 961.508,1445.72 962.484,1445.72 963.46,1445.72 964.435,1445.72 965.411,1445.72 966.387,1445.72 967.362,1445.72 968.338,1445.72 969.313,1445.72 970.289,1445.72 971.265,1445.72 972.24,1445.72 973.216,1445.72 974.192,1445.72 975.167,1445.72 976.143,1445.72 977.118,1445.72 978.094,1445.72 979.07,1445.72 980.045,1445.72 981.021,1445.72 981.997,1445.72 982.972,1445.72 983.948,1445.72 984.924,1445.72 985.899,1445.72 986.875,1445.72 987.85,1445.72 988.826,1445.72 989.802,1445.72 990.777,1445.72 991.753,1445.72 992.729,1445.72 993.704,1445.72 994.68,1445.72 995.655,1445.72 996.631,1445.72 997.607,1445.72 998.582,1445.72 999.558,1445.72 1000.53,1445.72 1001.51,1445.72 1002.48,1445.72 1003.46,1445.72 1004.44,1445.72 1005.41,1445.72 1006.39,1445.72 1007.36,1445.72 1008.34,1445.72 1009.31,1445.72 1010.29,1445.72 1011.27,1445.72 1012.24,1445.72 1013.22,1445.72 1014.19,1445.72 1015.17,1445.72 1016.14,1445.72 1017.12,1445.72 1018.09,1445.72 1019.07,1445.72 1020.05,1445.72 1021.02,1445.72 1022,1445.72 1022.97,1445.72 1023.95,1445.72 1024.92,1445.72 1025.9,1445.72 1026.88,1445.72 1027.85,1445.72 1028.83,1445.72 1029.8,1445.72 1030.78,1445.72 1031.75,1445.72 1032.73,1445.72 1033.7,1445.72 1034.68,1445.72 1035.66,1445.72 1036.63,1445.72 1037.61,1445.72 1038.58,1445.72 1039.56,1445.72 1040.53,1445.72 1041.51,1445.72 1042.49,1445.72 1043.46,1445.72 1044.44,1445.72 1045.41,1445.72 1046.39,1445.72 1047.36,1445.72 1048.34,1445.72 1049.32,1445.72 1050.29,1445.72 1051.27,1445.72 1052.24,1445.72 1053.22,1445.72 1054.19,1445.72 1055.17,1445.72 1056.14,1445.72 1057.12,1445.72 1058.1,1445.72 1059.07,1445.72 1060.05,1445.72 1061.02,1445.72 1062,1445.72 1062.97,1445.72 1063.95,1445.72 1064.93,1445.72 1065.9,1445.72 1066.88,1445.72 1067.85,1445.72 1068.83,1445.72 1069.8,1445.72 1070.78,1445.72 1071.75,1445.72 1072.73,1445.72 1073.71,1445.72 1074.68,1445.72 1075.66,1445.72 1076.63,1445.72 1077.61,1445.72 1078.58,1445.72 1079.56,1445.72 1080.54,1445.72 1081.51,1445.72 1082.49,1445.72 1083.46,1445.72 1084.44,1445.72 1085.41,1445.72 1086.39,1445.72 1087.36,1445.72 1088.34,1445.72 1089.32,1445.72 1090.29,1445.72 1091.27,1445.72 1092.24,1445.72 1093.22,1445.72 1094.19,1445.72 1095.17,1445.72 1096.15,1445.72 1097.12,1445.72 1098.1,1445.72 1099.07,1445.72 1100.05,1445.72 1101.02,1445.72 1102,1445.72 1102.97,1445.72 1103.95,1445.72 1104.93,1445.72 1105.9,1445.72 1106.88,1445.72 1107.85,1445.72 1108.83,1445.72 1109.8,1445.72 1110.78,1445.72 1111.76,1445.72 1112.73,1445.72 1113.71,1445.72 1114.68,1445.72 1115.66,1445.72 1116.63,1445.72 1117.61,1445.72 1118.58,1445.72 1119.56,1445.72 1120.54,1445.72 1121.51,1445.72 1122.49,1445.72 1123.46,1445.72 1124.44,1445.72 1125.41,1445.72 1126.39,1445.72 1127.37,1445.72 1128.34,1445.72 1129.32,1445.72 1130.29,1445.72 1131.27,1445.72 1132.24,1445.72 1133.22,1445.72 1134.19,1445.72 1135.17,1445.72 1136.15,1445.72 1137.12,1445.72 1138.1,1445.72 1139.07,1445.72 1140.05,1445.72 1141.02,1445.72 1142,1445.72 1142.98,1445.72 1143.95,1445.72 1144.93,1445.72 1145.9,1445.72 1146.88,1445.72 1147.85,1445.72 1148.83,1445.72 1149.8,1445.72 1150.78,1445.72 1151.76,1445.72 1152.73,1445.72 1153.71,1445.72 1154.68,1445.72 1155.66,1445.72 1156.63,1445.72 1157.61,1445.72 1158.59,1445.72 1159.56,1445.72 1160.54,1445.72 1161.51,1445.72 1162.49,1445.72 1163.46,1445.72 1164.44,1445.72 1165.41,1445.72 1166.39,1445.72 1167.37,1445.72 1168.34,1445.72 1169.32,1445.72 1170.29,1445.72 1171.27,1445.72 1172.24,1445.72 1173.22,1445.72 1174.2,1445.72 1175.17,1445.72 1176.15,1445.72 1177.12,1445.72 1178.1,1445.72 1179.07,1445.72 1180.05,1445.72 1181.03,1445.72 1182,1445.72 1182.98,1445.72 1183.95,1445.72 1184.93,1445.72 1185.9,1445.72 1186.88,1445.72 1187.85,1445.72 1188.83,1445.72 1189.81,1445.72 1190.78,1445.72 1191.76,1445.72 1192.73,1445.72 1193.71,1445.72 1194.68,1445.72 1195.66,1445.72 1196.64,1445.72 1197.61,1445.72 1198.59,1445.72 1199.56,1445.72 1200.54,1445.72 1201.51,1445.72 1202.49,1445.72 1203.46,1445.72 1204.44,1445.72 1205.42,1445.72 1206.39,1445.72 1207.37,1445.72 1208.34,1445.72 1209.32,1445.72 1210.29,1445.72 1211.27,1445.72 1212.25,1445.72 1213.22,1445.72 1214.2,1445.72 1215.17,1445.72 1216.15,1445.72 1217.12,1445.72 1218.1,1445.72 1219.07,1445.72 1220.05,1445.72 1221.03,1445.72 1222,1445.72 1222.98,1445.72 1223.95,1445.72 1224.93,1445.72 1225.9,1445.72 1226.88,1445.72 1227.86,1445.72 1228.83,1445.72 1229.81,1445.72 1230.78,1445.72 1231.76,1445.72 1232.73,1445.72 1233.71,1445.72 1234.68,1445.72 1235.66,1445.72 1236.64,1445.72 1237.61,1445.72 1238.59,1445.72 1239.56,1445.72 1240.54,1445.72 1241.51,1445.72 1242.49,1445.72 1243.47,1445.72 1244.44,1445.72 1245.42,1445.72 1246.39,1445.72 1247.37,1445.72 1248.34,1445.72 1249.32,1445.72 1250.29,1445.72 1251.27,1445.72 1252.25,1445.72 1253.22,1445.72 1254.2,1445.72 1255.17,1445.72 1256.15,1445.72 1257.12,1445.72 1258.1,1445.72 1259.08,1445.72 1260.05,1445.72 1261.03,1445.72 1262,1445.72 1262.98,1445.72 1263.95,1445.72 1264.93,1445.72 1265.9,1445.72 1266.88,1445.72 1267.86,1445.72 1268.83,1445.72 1269.81,1445.72 1270.78,1445.72 1271.76,1445.72 1272.73,1445.72 1273.71,1445.72 1274.69,1445.72 1275.66,1445.72 1276.64,1445.72 1277.61,1445.72 1278.59,1445.72 1279.56,1445.72 1280.54,1445.72 1281.51,1445.72 1282.49,1445.72 1283.47,1445.72 1284.44,1445.72 1285.42,1445.72 1286.39,1445.72 1287.37,1445.72 1288.34,1445.72 1289.32,1445.72 1290.3,1445.72 1291.27,1445.72 1292.25,1445.72 1293.22,1445.72 1294.2,1445.72 1295.17,1445.72 1296.15,1445.72 1297.12,1445.72 1298.1,1445.72 1299.08,1445.72 1300.05,1445.72 1301.03,1445.72 1302,1445.72 1302.98,1445.72 1303.95,1445.72 1304.93,1445.72 1305.91,1445.72 1306.88,1445.72 1307.86,1445.72 1308.83,1445.72 1309.81,1445.72 1310.78,1445.72 1311.76,1445.72 1312.73,1445.72 1313.71,1445.72 1314.69,1445.72 1315.66,1445.72 1316.64,1445.72 1317.61,1445.72 1318.59,1445.72 1319.56,1445.72 1320.54,1445.72 1321.52,1445.72 1322.49,1445.72 1323.47,1445.72 1324.44,1445.72 1325.42,1445.72 1326.39,1445.72 1327.37,1445.72 1328.35,1445.72 1329.32,1445.72 1330.3,1445.72 1331.27,1445.72 1332.25,1445.72 1333.22,1445.72 1334.2,1445.72 1335.17,1445.72 1336.15,1445.72 1337.13,1445.72 1338.1,1445.72 1339.08,1445.72 1340.05,1445.72 1341.03,1445.72 1342,1445.72 1342.98,1445.72 1343.96,1445.72 1344.93,1445.72 1345.91,1445.72 1346.88,1445.72 1347.86,1445.72 1348.83,1445.72 1349.81,1445.72 1350.78,1445.72 1351.76,1445.72 1352.74,1445.72 1353.71,1445.72 1354.69,1445.72 1355.66,1445.72 1356.64,1445.72 1357.61,1445.72 1358.59,1445.72 1359.57,1445.72 1360.54,1445.72 1361.52,1445.72 1362.49,1445.72 1363.47,1445.72 1364.44,1445.72 1365.42,1445.72 1366.39,1445.72 1367.37,1445.72 1368.35,1445.72 1369.32,1445.72 1370.3,1445.72 1371.27,1445.72 1372.25,1445.72 1373.22,1445.72 1374.2,1445.72 1375.18,1445.72 1376.15,1445.72 1377.13,1445.72 1378.1,1445.72 1379.08,1445.72 1380.05,1445.72 1381.03,1445.72 1382,1445.72 1382.98,1445.72 1383.96,1445.72 1384.93,1445.72 1385.91,1445.72 1386.88,1445.72 1387.86,1445.72 1388.83,1445.72 1389.81,1445.72 1390.79,1445.72 1391.76,1445.72 1392.74,1445.72 1393.71,1445.72 1394.69,1445.72 1395.66,1445.72 1396.64,1445.72 1397.61,1445.72 1398.59,1445.72 1399.57,1445.72 1400.54,1445.72 1401.52,1445.72 1402.49,1445.72 1403.47,1445.72 1404.44,1445.72 1405.42,1445.72 1406.4,1445.72 1407.37,1445.72 1408.35,1445.72 1409.32,1445.72 1410.3,1445.72 1411.27,1445.72 1412.25,1445.72 1413.22,1445.72 1414.2,1445.72 1415.18,1445.72 1416.15,1445.72 1417.13,1445.72 1418.1,1445.72 1419.08,1445.72 1420.05,1445.72 1421.03,1445.72 1422.01,1445.72 1422.98,1445.72 1423.96,1445.72 1424.93,1445.72 1425.91,1445.72 1426.88,1445.72 1427.86,1445.72 1428.83,1445.72 1429.81,1445.72 1430.79,1445.72 1431.76,1445.72 1432.74,1445.72 1433.71,1445.72 1434.69,1445.72 1435.66,1445.72 1436.64,1445.72 1437.62,1445.72 1438.59,1445.72 1439.57,1445.72 1440.54,1445.72 1441.52,1445.72 1442.49,1445.72 1443.47,1445.72 1444.44,1445.72 1445.42,1445.72 1446.4,1445.72 1447.37,1445.72 1448.35,1445.72 1449.32,1445.72 1450.3,1445.72 1451.27,1445.72 1452.25,1445.72 1453.23,1445.72 1454.2,1445.72 1455.18,1445.72 1456.15,1445.72 1457.13,1445.72 1458.1,1445.72 1459.08,1445.72 1460.06,1445.72 1461.03,1445.72 1462.01,1445.72 1462.98,1445.72 1463.96,1445.72 1464.93,1445.72 1465.91,1445.72 1466.88,1445.72 1467.86,1445.72 1468.84,1445.72 1469.81,1445.72 1470.79,1445.72 1471.76,1445.72 1472.74,1445.72 1473.71,1445.72 1474.69,1445.72 1475.67,1445.72 1476.64,1445.72 1477.62,1445.72 1478.59,1445.72 1479.57,1445.72 1480.54,1445.72 1481.52,1445.72 1482.49,1445.72 1483.47,1445.72 1484.45,1445.72 1485.42,1445.72 1486.4,1445.72 1487.37,1445.72 1488.35,1445.72 1489.32,1445.72 1490.3,1445.72 1491.28,1445.72 1492.25,1445.72 1493.23,1445.72 1494.2,1445.72 1495.18,1445.72 1496.15,1445.72 1497.13,1445.72 1498.1,1445.72 1499.08,1445.72 1500.06,1445.72 1501.03,1445.72 1502.01,1445.72 1502.98,1445.72 1503.96,1445.72 1504.93,1445.72 1505.91,1445.72 1506.89,1445.72 1507.86,1445.72 1508.84,1445.72 1509.81,1445.72 1510.79,1445.72 1511.76,1445.72 1512.74,1445.72 1513.71,1445.72 1514.69,1445.72 1515.67,1445.72 1516.64,1445.72 1517.62,1445.72 1518.59,1445.72 1519.57,1445.72 1520.54,1445.72 1521.52,1445.72 1522.5,1445.72 1523.47,1445.72 1524.45,1445.72 1525.42,1445.72 1526.4,1445.72 1527.37,1445.72 1528.35,1445.72 1529.32,1445.72 1530.3,1445.72 1531.28,1445.72 1532.25,1445.72 1533.23,1445.72 1534.2,1445.72 1535.18,1445.72 1536.15,1445.72 1537.13,1445.72 1538.11,1445.72 1539.08,1445.72 1540.06,1445.72 1541.03,1445.72 1542.01,1445.72 1542.98,1445.72 1543.96,1445.72 1544.93,1445.72 1545.91,1445.72 1546.89,1445.72 1547.86,1445.72 1548.84,1445.72 1549.81,1445.72 1550.79,1445.72 1551.76,1445.72 1552.74,1445.72 1553.72,1445.72 1554.69,1445.72 1555.67,1445.72 1556.64,1445.72 1557.62,1445.72 1558.59,1445.72 1559.57,1445.72 1560.54,1445.72 1561.52,1445.72 1562.5,1445.72 1563.47,1445.72 1564.45,1445.72 1565.42,1445.72 1566.4,1445.72 1567.37,1445.72 1568.35,1445.72 1569.33,1445.72 1570.3,1445.72 1571.28,1445.72 1572.25,1445.72 1573.23,1445.72 1574.2,1445.72 1575.18,1445.72 1576.15,1445.72 1577.13,1445.72 1578.11,1445.72 1579.08,1445.72 1580.06,1445.72 1581.03,1445.72 1582.01,1445.72 1582.98,1445.72 1583.96,1445.72 1584.94,1445.72 1585.91,1445.72 1586.89,1445.72 1587.86,1445.72 1588.84,1445.72 1589.81,1445.72 1590.79,1445.72 1591.76,1445.72 1592.74,1445.72 1593.72,1445.72 1594.69,1445.72 1595.67,1445.72 1596.64,1445.72 1597.62,1445.72 1598.59,1445.72 1599.57,1445.72 1600.55,1445.72 1601.52,1445.72 1602.5,1445.72 1603.47,1445.72 1604.45,1445.72 1605.42,1445.72 1606.4,1445.72 1607.38,1445.72 1608.35,1445.72 1609.33,1445.72 1610.3,1445.72 1611.28,1445.72 1612.25,1445.72 1613.23,1445.72 1614.2,1445.72 1615.18,1445.72 1616.16,1445.72 1617.13,1445.72 1618.11,1445.72 1619.08,1445.72 1620.06,1445.72 1621.03,1445.72 1622.01,1445.72 1622.99,1445.72 1623.96,1445.72 1624.94,1445.72 1625.91,1445.72 1626.89,1445.72 1627.86,1445.72 1628.84,1445.72 1629.81,1445.72 1630.79,1445.72 1631.77,1445.72 1632.74,1445.72 1633.72,1445.72 1634.69,1445.72 1635.67,1445.72 1636.64,1445.72 1637.62,1445.72 1638.6,1445.72 1639.57,1445.72 1640.55,1445.72 1641.52,1445.72 1642.5,1445.72 1643.47,1445.72 1644.45,1445.72 1645.42,1445.72 1646.4,1445.72 1647.38,1445.72 1648.35,1445.72 1649.33,1445.72 1650.3,1445.72 1651.28,1445.72 1652.25,1445.72 1653.23,1445.72 1654.21,1445.72 1655.18,1445.72 1656.16,1445.72 1657.13,1445.72 1658.11,1445.72 1659.08,1445.72 1660.06,1445.72 1661.03,1445.72 1662.01,1445.72 1662.99,1445.72 1663.96,1445.72 1664.94,1445.72 1665.91,1445.72 1666.89,1445.72 1667.86,1445.72 1668.84,1445.72 1669.82,1445.72 1670.79,1445.72 1671.77,1445.72 1672.74,1445.72 1673.72,1445.72 1674.69,1445.72 1675.67,1445.72 1676.64,1445.72 1677.62,1445.72 1678.6,1445.72 1679.57,1445.72 1680.55,1445.72 1681.52,1445.72 1682.5,1445.72 1683.47,1445.72 1684.45,1445.72 1685.43,1445.72 1686.4,1445.72 1687.38,1445.72 1688.35,1445.72 1689.33,1445.72 1690.3,1445.72 1691.28,1445.72 1692.25,1445.72 1693.23,1445.72 1694.21,1445.72 1695.18,1445.72 1696.16,1445.72 1697.13,1445.72 1698.11,1445.72 1699.08,1445.72 1700.06,1445.72 1701.04,1445.72 1702.01,1445.72 1702.99,1445.72 1703.96,1445.72 1704.94,1445.72 1705.91,1445.72 1706.89,1445.72 1707.86,1445.72 1708.84,1445.72 1709.82,1445.72 1710.79,1445.72 1711.77,1445.72 1712.74,1445.72 1713.72,1445.72 1714.69,1445.72 1715.67,1445.72 1716.65,1445.72 1717.62,1445.72 1718.6,1445.72 1719.57,1445.72 1720.55,1445.72 1721.52,1445.72 1722.5,1445.72 1723.47,1445.72 1724.45,1445.72 1725.43,1445.72 1726.4,1445.72 1727.38,1445.72 1728.35,1445.72 1729.33,1445.72 1730.3,1445.72 1731.28,1445.72 1732.26,1445.72 1733.23,1445.72 1734.21,1445.72 1735.18,1445.72 1736.16,1445.72 1737.13,1445.72 1738.11,1445.72 1739.09,1445.72 1740.06,1445.72 1741.04,1445.72 1742.01,1445.72 1742.99,1445.72 1743.96,1445.72 1744.94,1445.72 1745.91,1445.72 1746.89,1445.72 1747.87,1445.72 1748.84,1445.72 1749.82,1445.72 1750.79,1445.72 1751.77,1445.72 1752.74,1445.72 1753.72,1445.72 1754.7,1445.72 1755.67,1445.72 1756.65,1445.72 1757.62,1445.72 1758.6,1445.72 1759.57,1445.72 1760.55,1445.72 1761.52,1445.72 1762.5,1445.72 1763.48,1445.72 1764.45,1445.72 1765.43,1445.72 1766.4,1445.72 1767.38,1445.72 1768.35,1445.72 1769.33,1445.72 1770.31,1445.72 1771.28,1445.72 1772.26,1445.72 1773.23,1445.72 1774.21,1445.72 1775.18,1445.72 1776.16,1445.72 1777.13,1445.72 1778.11,1445.72 1779.09,1445.72 1780.06,1445.72 1781.04,1445.72 1782.01,1445.72 1782.99,1445.72 1783.96,1445.72 1784.94,1445.72 1785.92,1445.72 1786.89,1445.72 1787.87,1445.72 1788.84,1445.72 1789.82,1445.72 1790.79,1445.72 1791.77,1445.72 1792.74,1445.72 1793.72,1445.72 1794.7,1445.72 1795.67,1445.72 1796.65,1445.72 1797.62,1445.72 1798.6,1445.72 1799.57,1445.72 1800.55,1445.72 1801.53,1445.72 1802.5,1445.72 1803.48,1445.72 1804.45,1445.72 1805.43,1445.72 1806.4,1445.72 1807.38,1445.72 1808.35,1445.72 1809.33,1445.72 1810.31,1445.72 1811.28,1445.72 1812.26,1445.72 1813.23,1445.72 1814.21,1445.72 1815.18,1445.72 1816.16,1445.72 1817.14,1445.72 1818.11,1445.72 1819.09,1445.72 1820.06,1445.72 1821.04,1445.72 1822.01,1445.72 1822.99,1445.72 1823.96,1445.72 1824.94,1445.72 1825.92,1445.72 1826.89,1445.72 1827.87,1445.72 1828.84,1445.72 1829.82,1445.72 1830.79,1445.72 1831.77,1445.72 1832.75,1445.72 1833.72,1445.72 1834.7,1445.72 1835.67,1445.72 1836.65,1445.72 1837.62,1445.72 1838.6,1445.72 1839.57,1445.72 1840.55,1445.72 1841.53,1445.72 1842.5,1445.72 1843.48,1445.72 1844.45,1445.72 1845.43,1445.72 1846.4,1445.72 1847.38,1445.72 1848.36,1445.72 1849.33,1445.72 1850.31,1445.72 1851.28,1445.72 1852.26,1445.72 1853.23,1445.72 1854.21,1445.72 1855.18,1445.72 1856.16,1445.72 1857.14,1445.72 1858.11,1445.72 1859.09,1445.72 1860.06,1445.72 1861.04,1445.72 1862.01,1445.72 1862.99,1445.72 1863.97,1445.72 1864.94,1445.72 1865.92,1445.72 1866.89,1445.72 1867.87,1445.72 1868.84,1445.72 1869.82,1445.72 1870.79,1445.72 1871.77,1445.72 1872.75,1445.72 1873.72,1445.72 1874.7,1445.72 1875.67,1445.72 1876.65,1445.72 1877.62,1445.72 1878.6,1445.72 1879.58,1445.72 1880.55,1445.72 1881.53,1445.72 1882.5,1445.72 1883.48,1445.72 1884.45,1445.72 1885.43,1445.72 1886.41,1445.72 1887.38,1445.72 1888.36,1445.72 1889.33,1445.72 1890.31,1445.72 1891.28,1445.72 1892.26,1445.72 1893.23,1445.72 1894.21,1445.72 1895.19,1445.72 1896.16,1445.72 1897.14,1445.72 1898.11,1445.72 1899.09,1445.72 1900.06,1445.72 1901.04,1445.72 1902.02,1445.72 1902.99,1445.72 1903.97,1445.72 1904.94,1445.72 1905.92,1445.72 1906.89,1445.72 1907.87,1445.72 1908.84,1445.72 1909.82,1445.72 1910.8,1445.72 1911.77,1445.72 1912.75,1445.72 1913.72,1445.72 1914.7,1445.72 1915.67,1445.72 1916.65,1445.72 1917.63,1445.72 1918.6,1445.72 1919.58,1445.72 1920.55,1445.72 1921.53,1445.72 1922.5,1445.72 1923.48,1445.72 1924.45,1445.72 1925.43,1445.72 1926.41,1445.72 1927.38,1445.72 1928.36,1445.72 1929.33,1445.72 1930.31,1445.72 1931.28,1445.72 1932.26,1445.72 1933.24,1445.72 1934.21,1445.72 1935.19,1445.72 1936.16,1445.72 1937.14,1445.72 1938.11,1445.72 1939.09,1445.72 1940.06,1445.72 1941.04,1445.72 1942.02,1445.72 1942.99,1445.72 1943.97,1445.72 1944.94,1445.72 1945.92,1445.72 1946.89,1445.72 1947.87,1445.72 1948.85,1445.72 1949.82,1445.72 1950.8,1445.72 1951.77,1445.72 1952.75,1445.72 1953.72,1445.72 1954.7,1445.72 1955.67,1445.72 1956.65,1445.72 1957.63,1445.72 1958.6,1445.72 1959.58,1445.72 1960.55,1445.72 1961.53,1445.72 1962.5,1445.72 1963.48,1445.72 1964.46,1445.72 1965.43,1445.72 1966.41,1445.72 1967.38,1445.72 1968.36,1445.72 1969.33,1445.72 1970.31,1445.72 1971.28,1445.72 1972.26,1445.72 1973.24,1445.72 1974.21,1445.72 1975.19,1445.72 1976.16,1445.72 1977.14,1445.72 1978.11,1445.72 1979.09,1445.72 1980.07,1445.72 1981.04,1445.72 1982.02,1445.72 1982.99,1445.72 1983.97,1445.72 1984.94,1445.72 1985.92,1445.72 1986.89,1445.72 1987.87,1445.72 1988.85,1445.72 1989.82,1445.72 1990.8,1445.72 1991.77,1445.72 1992.75,1445.72 1993.72,1445.72 1994.7,1445.72 1995.68,1445.72 1996.65,1445.72 1997.63,1445.72 1998.6,1445.72 1999.58,1445.72 2000.55,1445.72 2001.53,1445.72 2002.5,1445.72 2003.48,1445.72 2004.46,1445.72 2005.43,1445.72 2006.41,1445.72 2007.38,1445.72 2008.36,1445.72 2009.33,1445.72 2010.31,1445.72 2011.29,1445.72 2012.26,1445.72 2013.24,1445.72 2014.21,1445.72 2015.19,1445.72 2016.16,1445.72 2017.14,1445.72 2018.12,1445.72 2019.09,1445.72 2020.07,1445.72 2021.04,1445.72 2022.02,1445.72 2022.99,1445.72 2023.97,1445.72 2024.94,1445.72 2025.92,1445.72 2026.9,1445.72 2027.87,1445.72 2028.85,1445.72 2029.82,1445.72 2030.8,1445.72 2031.77,1445.72 2032.75,1445.72 2033.73,1445.72 2034.7,1445.72 2035.68,1445.72 2036.65,1445.72 2037.63,1445.72 2038.6,1445.72 2039.58,1445.72 2040.55,1445.72 2041.53,1445.72 2042.51,1445.72 2043.48,1445.72 2044.46,1445.72 2045.43,1445.72 2046.41,1445.72 2047.38,1445.72 2048.36,1445.72 2049.34,1445.72 2050.31,1445.72 2051.29,1445.72 2052.26,1445.72 2053.24,1445.72 2054.21,1445.72 2055.19,1445.72 2056.16,1445.72 2057.14,1445.72 2058.12,1445.72 2059.09,1445.72 2060.07,1445.72 2061.04,1445.72 2062.02,1445.72 2062.99,1445.72 2063.97,1445.72 2064.95,1445.72 2065.92,1445.72 2066.9,1445.72 2067.87,1445.72 2068.85,1445.72 2069.82,1445.72 2070.8,1445.72 2071.77,1445.72 2072.75,1445.72 2073.73,1445.72 2074.7,1445.72 2075.68,1445.72 2076.65,1445.72 2077.63,1445.72 2078.6,1445.72 2079.58,1445.72 2080.56,1445.72 2081.53,1445.72 2082.51,1445.72 2083.48,1445.72 2084.46,1445.72 2085.43,1445.72 2086.41,1445.72 2087.38,1445.72 2088.36,1445.72 2089.34,1445.72 2090.31,1445.72 2091.29,1445.72 2092.26,1445.72 2093.24,1445.72 2094.21,1445.72 2095.19,1445.72 2096.17,1445.72 2097.14,1445.72 2098.12,1445.72 2099.09,1445.72 2100.07,1445.72 2101.04,1445.72 2102.02,1445.72 2102.99,1445.72 2103.97,1445.72 2104.95,1445.72 2105.92,1445.72 2106.9,1445.72 2107.87,1445.72 2108.85,1445.72 2109.82,1445.72 2110.8,1445.72 2111.78,1445.72 2112.75,1445.72 2113.73,1445.72 2114.7,1445.72 2115.68,1445.72 2116.65,1445.72 2117.63,1445.72 2118.6,1445.72 2119.58,1445.72 2120.56,1445.72 2121.53,1445.72 2122.51,1445.72 2123.48,1445.72 2124.46,1445.72 2125.43,1445.72 2126.41,1445.72 2127.39,1445.72 2128.36,1445.72 2129.34,1445.72 2130.31,1445.72 2131.29,1445.72 2132.26,1445.72 2133.24,1445.72 2134.21,1445.72 2135.19,1445.72 2136.17,1445.72 2137.14,1445.72 2138.12,1445.72 2139.09,1445.72 2140.07,1445.72 2141.04,1445.72 2142.02,1445.72 2143,1445.72 2143.97,1445.72 2144.95,1445.72 2145.92,1445.72 2146.9,1445.72 2147.87,1445.72 2148.85,1445.72 2149.82,1445.72 2150.8,1445.72 2151.78,1445.72 2152.75,1445.72 2153.73,1445.72 2154.7,1445.72 2155.68,1445.72 2156.65,1445.72 2157.63,1445.72 2158.61,1445.72 2159.58,1445.72 2160.56,1445.72 2161.53,1445.72 2162.51,1445.72 2163.48,1445.72 2164.46,1445.72 2165.44,1445.72 2166.41,1445.72 2167.39,1445.72 2168.36,1445.72 2169.34,1445.72 2170.31,1445.72 2171.29,1445.72 2172.26,1445.72 2173.24,1445.72 2174.22,1445.72 2175.19,1445.72 2176.17,1445.72 2177.14,1445.72 2178.12,1445.72 2179.09,1445.72 2180.07,1445.72 2181.05,1445.72 2182.02,1445.72 2183,1445.72 2183.97,1445.72 2184.95,1445.72 2185.92,1445.72 2186.9,1445.72 2187.87,1445.72 2188.85,1445.72 2189.83,1445.72 2190.8,1445.72 2191.78,1445.72 2192.75,1445.72 2193.73,1445.72 2194.7,1445.72 2195.68,1445.72 2196.66,1445.72 2197.63,1445.72 2198.61,1445.72 2199.58,1445.72 2200.56,1445.72 2201.53,1445.72 2202.51,1445.72 2203.48,1445.72 2204.46,1445.72 2205.44,1445.72 2206.41,1445.72 2207.39,1445.72 2208.36,1445.72 2209.34,1445.72 2210.31,1445.72 2211.29,1445.72 2212.27,1445.72 2213.24,1445.72 2214.22,1445.72 2215.19,1445.72 2216.17,1445.72 2217.14,1445.72 2218.12,1445.72 2219.09,1445.72 2220.07,1445.72 2221.05,1445.72 2222.02,1445.72 2223,1445.72 2223.97,1445.72 2224.95,1445.72 2225.92,1445.72 2226.9,1445.72 2227.88,1445.72 2228.85,1445.72 2229.83,1445.72 2230.8,1445.72 2231.78,1445.72 2232.75,1445.72 2233.73,1445.72 2234.7,1445.72 2235.68,1445.72 2236.66,1445.72 2237.63,1445.72 2238.61,1445.72 2239.58,1445.72 2240.56,1445.72 2241.53,1445.72 2242.51,1445.72 2243.49,1445.72 2244.46,1445.72 2245.44,1445.72 2246.41,1445.72 2247.39,1445.72 2248.36,1445.72 2249.34,1445.72 2250.31,1445.72 2251.29,1445.72 2252.27,1445.72 2253.24,1445.72 2254.22,1445.72 2255.19,1445.72 2256.17,1445.72 2257.14,1445.72 2258.12,1445.72 2259.1,1445.72 2260.07,1445.72 2261.05,1445.72 2262.02,1445.72 2263,1445.72 2263.97,1445.72 2264.95,1445.72 2265.92,1445.72 2266.9,1445.72 2267.88,1445.72 2268.85,1445.72 2269.83,1445.72 2270.8,1445.72 2271.78,1445.72 2272.75,1445.72 2273.73,1445.72 2274.71,1445.72 2275.68,1445.72 2276.66,1445.72 2277.63,1445.72 2278.61,1445.72 2279.58,1445.72 2280.56,1445.72 2281.53,1445.72 2282.51,1445.72 2283.49,1445.72 2284.46,1445.72 2285.44,1445.72 2286.41,1445.72 2287.39,1445.72 2288.36,1445.72 2289.34,1445.72 2290.32,1445.72 2291.29,1445.72 2292.27,1445.72 2293.24,1445.72 2294.22,1445.72 "/>
<path clip-path="url(#clip560)" d="M2024.55 198.898 L2283.81 198.898 L2283.81 95.2176 L2024.55 95.2176  Z" fill="#ffffff" fill-rule="evenodd" fill-opacity="1"/>
<polyline clip-path="url(#clip560)" style="stroke:#000000; stroke-linecap:round; stroke-linejoin:round; stroke-width:4; stroke-opacity:1; fill:none" points="2024.55,198.898 2283.81,198.898 2283.81,95.2176 2024.55,95.2176 2024.55,198.898 "/>
<polyline clip-path="url(#clip560)" style="stroke:#009af9; stroke-linecap:round; stroke-linejoin:round; stroke-width:4; stroke-opacity:1; fill:none" points="2047.53,147.058 2185.42,147.058 "/>
<path clip-path="url(#clip560)" d="M2222.24 166.745 Q2220.44 171.375 2218.72 172.787 Q2217.01 174.199 2214.14 174.199 L2210.74 174.199 L2210.74 170.634 L2213.24 170.634 Q2215 170.634 2215.97 169.8 Q2216.94 168.967 2218.12 165.865 L2218.89 163.921 L2208.4 138.412 L2212.91 138.412 L2221.02 158.689 L2229.12 138.412 L2233.63 138.412 L2222.24 166.745 Z" fill="#000000" fill-rule="nonzero" fill-opacity="1" /><path clip-path="url(#clip560)" d="M2240.92 160.402 L2248.56 160.402 L2248.56 134.037 L2240.25 135.703 L2240.25 131.444 L2248.52 129.778 L2253.19 129.778 L2253.19 160.402 L2260.83 160.402 L2260.83 164.338 L2240.92 164.338 L2240.92 160.402 Z" fill="#000000" fill-rule="nonzero" fill-opacity="1" /></svg>
