<?xml version="1.0" encoding="utf-8"?>
<svg xmlns="http://www.w3.org/2000/svg" xmlns:xlink="http://www.w3.org/1999/xlink" width="600" height="400" viewBox="0 0 2400 1600">
<defs>
  <clipPath id="clip500">
    <rect x="0" y="0" width="2400" height="1600"/>
  </clipPath>
</defs>
<path clip-path="url(#clip500)" d="M0 1600 L2400 1600 L2400 0 L0 0  Z" fill="#ffffff" fill-rule="evenodd" fill-opacity="1"/>
<defs>
  <clipPath id="clip501">
    <rect x="480" y="0" width="1681" height="1600"/>
  </clipPath>
</defs>
<path clip-path="url(#clip500)" d="M186.274 1486.45 L2352.76 1486.45 L2352.76 47.2441 L186.274 47.2441  Z" fill="#ffffff" fill-rule="evenodd" fill-opacity="1"/>
<defs>
  <clipPath id="clip502">
    <rect x="186" y="47" width="2167" height="1440"/>
  </clipPath>
</defs>
<polyline clip-path="url(#clip502)" style="stroke:#000000; stroke-linecap:round; stroke-linejoin:round; stroke-width:2; stroke-opacity:0.1; fill:none" points="247.59,1486.45 247.59,47.2441 "/>
<polyline clip-path="url(#clip502)" style="stroke:#000000; stroke-linecap:round; stroke-linejoin:round; stroke-width:2; stroke-opacity:0.1; fill:none" points="758.552,1486.45 758.552,47.2441 "/>
<polyline clip-path="url(#clip502)" style="stroke:#000000; stroke-linecap:round; stroke-linejoin:round; stroke-width:2; stroke-opacity:0.1; fill:none" points="1269.51,1486.45 1269.51,47.2441 "/>
<polyline clip-path="url(#clip502)" style="stroke:#000000; stroke-linecap:round; stroke-linejoin:round; stroke-width:2; stroke-opacity:0.1; fill:none" points="1780.48,1486.45 1780.48,47.2441 "/>
<polyline clip-path="url(#clip502)" style="stroke:#000000; stroke-linecap:round; stroke-linejoin:round; stroke-width:2; stroke-opacity:0.1; fill:none" points="2291.44,1486.45 2291.44,47.2441 "/>
<polyline clip-path="url(#clip500)" style="stroke:#000000; stroke-linecap:round; stroke-linejoin:round; stroke-width:4; stroke-opacity:1; fill:none" points="186.274,1486.45 2352.76,1486.45 "/>
<polyline clip-path="url(#clip500)" style="stroke:#000000; stroke-linecap:round; stroke-linejoin:round; stroke-width:4; stroke-opacity:1; fill:none" points="247.59,1486.45 247.59,1467.55 "/>
<polyline clip-path="url(#clip500)" style="stroke:#000000; stroke-linecap:round; stroke-linejoin:round; stroke-width:4; stroke-opacity:1; fill:none" points="758.552,1486.45 758.552,1467.55 "/>
<polyline clip-path="url(#clip500)" style="stroke:#000000; stroke-linecap:round; stroke-linejoin:round; stroke-width:4; stroke-opacity:1; fill:none" points="1269.51,1486.45 1269.51,1467.55 "/>
<polyline clip-path="url(#clip500)" style="stroke:#000000; stroke-linecap:round; stroke-linejoin:round; stroke-width:4; stroke-opacity:1; fill:none" points="1780.48,1486.45 1780.48,1467.55 "/>
<polyline clip-path="url(#clip500)" style="stroke:#000000; stroke-linecap:round; stroke-linejoin:round; stroke-width:4; stroke-opacity:1; fill:none" points="2291.44,1486.45 2291.44,1467.55 "/>
<path clip-path="url(#clip500)" d="M247.59 1517.37 Q243.978 1517.37 242.15 1520.93 Q240.344 1524.47 240.344 1531.6 Q240.344 1538.71 242.15 1542.27 Q243.978 1545.82 247.59 1545.82 Q251.224 1545.82 253.029 1542.27 Q254.858 1538.71 254.858 1531.6 Q254.858 1524.47 253.029 1520.93 Q251.224 1517.37 247.59 1517.37 M247.59 1513.66 Q253.4 1513.66 256.455 1518.27 Q259.534 1522.85 259.534 1531.6 Q259.534 1540.33 256.455 1544.94 Q253.4 1549.52 247.59 1549.52 Q241.779 1549.52 238.701 1544.94 Q235.645 1540.33 235.645 1531.6 Q235.645 1522.85 238.701 1518.27 Q241.779 1513.66 247.59 1513.66 Z" fill="#000000" fill-rule="nonzero" fill-opacity="1" /><path clip-path="url(#clip500)" d="M718.171 1514.29 L736.527 1514.29 L736.527 1518.22 L722.453 1518.22 L722.453 1526.7 Q723.471 1526.35 724.49 1526.19 Q725.508 1526 726.527 1526 Q732.314 1526 735.694 1529.17 Q739.073 1532.34 739.073 1537.76 Q739.073 1543.34 735.601 1546.44 Q732.129 1549.52 725.809 1549.52 Q723.633 1549.52 721.365 1549.15 Q719.12 1548.78 716.712 1548.04 L716.712 1543.34 Q718.796 1544.47 721.018 1545.03 Q723.24 1545.58 725.717 1545.58 Q729.721 1545.58 732.059 1543.48 Q734.397 1541.37 734.397 1537.76 Q734.397 1534.15 732.059 1532.04 Q729.721 1529.94 725.717 1529.94 Q723.842 1529.94 721.967 1530.35 Q720.115 1530.77 718.171 1531.65 L718.171 1514.29 Z" fill="#000000" fill-rule="nonzero" fill-opacity="1" /><path clip-path="url(#clip500)" d="M758.286 1517.37 Q754.675 1517.37 752.846 1520.93 Q751.041 1524.47 751.041 1531.6 Q751.041 1538.71 752.846 1542.27 Q754.675 1545.82 758.286 1545.82 Q761.92 1545.82 763.726 1542.27 Q765.555 1538.71 765.555 1531.6 Q765.555 1524.47 763.726 1520.93 Q761.92 1517.37 758.286 1517.37 M758.286 1513.66 Q764.096 1513.66 767.152 1518.27 Q770.23 1522.85 770.23 1531.6 Q770.23 1540.33 767.152 1544.94 Q764.096 1549.52 758.286 1549.52 Q752.476 1549.52 749.397 1544.94 Q746.342 1540.33 746.342 1531.6 Q746.342 1522.85 749.397 1518.27 Q752.476 1513.66 758.286 1513.66 Z" fill="#000000" fill-rule="nonzero" fill-opacity="1" /><path clip-path="url(#clip500)" d="M788.448 1517.37 Q784.837 1517.37 783.008 1520.93 Q781.203 1524.47 781.203 1531.6 Q781.203 1538.71 783.008 1542.27 Q784.837 1545.82 788.448 1545.82 Q792.082 1545.82 793.888 1542.27 Q795.716 1538.71 795.716 1531.6 Q795.716 1524.47 793.888 1520.93 Q792.082 1517.37 788.448 1517.37 M788.448 1513.66 Q794.258 1513.66 797.314 1518.27 Q800.392 1522.85 800.392 1531.6 Q800.392 1540.33 797.314 1544.94 Q794.258 1549.52 788.448 1549.52 Q782.638 1549.52 779.559 1544.94 Q776.504 1540.33 776.504 1531.6 Q776.504 1522.85 779.559 1518.27 Q782.638 1513.66 788.448 1513.66 Z" fill="#000000" fill-rule="nonzero" fill-opacity="1" /><path clip-path="url(#clip500)" d="M1214.04 1544.91 L1221.68 1544.91 L1221.68 1518.55 L1213.37 1520.21 L1213.37 1515.95 L1221.63 1514.29 L1226.31 1514.29 L1226.31 1544.91 L1233.95 1544.91 L1233.95 1548.85 L1214.04 1548.85 L1214.04 1544.91 Z" fill="#000000" fill-rule="nonzero" fill-opacity="1" /><path clip-path="url(#clip500)" d="M1253.39 1517.37 Q1249.78 1517.37 1247.95 1520.93 Q1246.15 1524.47 1246.15 1531.6 Q1246.15 1538.71 1247.95 1542.27 Q1249.78 1545.82 1253.39 1545.82 Q1257.03 1545.82 1258.83 1542.27 Q1260.66 1538.71 1260.66 1531.6 Q1260.66 1524.47 1258.83 1520.93 Q1257.03 1517.37 1253.39 1517.37 M1253.39 1513.66 Q1259.2 1513.66 1262.26 1518.27 Q1265.34 1522.85 1265.34 1531.6 Q1265.34 1540.33 1262.26 1544.94 Q1259.2 1549.52 1253.39 1549.52 Q1247.58 1549.52 1244.5 1544.94 Q1241.45 1540.33 1241.45 1531.6 Q1241.45 1522.85 1244.5 1518.27 Q1247.58 1513.66 1253.39 1513.66 Z" fill="#000000" fill-rule="nonzero" fill-opacity="1" /><path clip-path="url(#clip500)" d="M1283.55 1517.37 Q1279.94 1517.37 1278.11 1520.93 Q1276.31 1524.47 1276.31 1531.6 Q1276.31 1538.71 1278.11 1542.27 Q1279.94 1545.82 1283.55 1545.82 Q1287.19 1545.82 1288.99 1542.27 Q1290.82 1538.71 1290.82 1531.6 Q1290.82 1524.47 1288.99 1520.93 Q1287.19 1517.37 1283.55 1517.37 M1283.55 1513.66 Q1289.36 1513.66 1292.42 1518.27 Q1295.5 1522.85 1295.5 1531.6 Q1295.5 1540.33 1292.42 1544.94 Q1289.36 1549.52 1283.55 1549.52 Q1277.74 1549.52 1274.67 1544.94 Q1271.61 1540.33 1271.61 1531.6 Q1271.61 1522.85 1274.67 1518.27 Q1277.74 1513.66 1283.55 1513.66 Z" fill="#000000" fill-rule="nonzero" fill-opacity="1" /><path clip-path="url(#clip500)" d="M1313.72 1517.37 Q1310.11 1517.37 1308.28 1520.93 Q1306.47 1524.47 1306.47 1531.6 Q1306.47 1538.71 1308.28 1542.27 Q1310.11 1545.82 1313.72 1545.82 Q1317.35 1545.82 1319.16 1542.27 Q1320.98 1538.71 1320.98 1531.6 Q1320.98 1524.47 1319.16 1520.93 Q1317.35 1517.37 1313.72 1517.37 M1313.72 1513.66 Q1319.53 1513.66 1322.58 1518.27 Q1325.66 1522.85 1325.66 1531.6 Q1325.66 1540.33 1322.58 1544.94 Q1319.53 1549.52 1313.72 1549.52 Q1307.91 1549.52 1304.83 1544.94 Q1301.77 1540.33 1301.77 1531.6 Q1301.77 1522.85 1304.83 1518.27 Q1307.91 1513.66 1313.72 1513.66 Z" fill="#000000" fill-rule="nonzero" fill-opacity="1" /><path clip-path="url(#clip500)" d="M1725 1544.91 L1732.64 1544.91 L1732.64 1518.55 L1724.33 1520.21 L1724.33 1515.95 L1732.6 1514.29 L1737.27 1514.29 L1737.27 1544.91 L1744.91 1544.91 L1744.91 1548.85 L1725 1548.85 L1725 1544.91 Z" fill="#000000" fill-rule="nonzero" fill-opacity="1" /><path clip-path="url(#clip500)" d="M1754.4 1514.29 L1772.76 1514.29 L1772.76 1518.22 L1758.68 1518.22 L1758.68 1526.7 Q1759.7 1526.35 1760.72 1526.19 Q1761.74 1526 1762.76 1526 Q1768.54 1526 1771.92 1529.17 Q1775.3 1532.34 1775.3 1537.76 Q1775.3 1543.34 1771.83 1546.44 Q1768.36 1549.52 1762.04 1549.52 Q1759.86 1549.52 1757.6 1549.15 Q1755.35 1548.78 1752.94 1548.04 L1752.94 1543.34 Q1755.03 1544.47 1757.25 1545.03 Q1759.47 1545.58 1761.95 1545.58 Q1765.95 1545.58 1768.29 1543.48 Q1770.63 1541.37 1770.63 1537.76 Q1770.63 1534.15 1768.29 1532.04 Q1765.95 1529.94 1761.95 1529.94 Q1760.07 1529.94 1758.2 1530.35 Q1756.35 1530.77 1754.4 1531.65 L1754.4 1514.29 Z" fill="#000000" fill-rule="nonzero" fill-opacity="1" /><path clip-path="url(#clip500)" d="M1794.52 1517.37 Q1790.91 1517.37 1789.08 1520.93 Q1787.27 1524.47 1787.27 1531.6 Q1787.27 1538.71 1789.08 1542.27 Q1790.91 1545.82 1794.52 1545.82 Q1798.15 1545.82 1799.96 1542.27 Q1801.79 1538.71 1801.79 1531.6 Q1801.79 1524.47 1799.96 1520.93 Q1798.15 1517.37 1794.52 1517.37 M1794.52 1513.66 Q1800.33 1513.66 1803.38 1518.27 Q1806.46 1522.85 1806.46 1531.6 Q1806.46 1540.33 1803.38 1544.94 Q1800.33 1549.52 1794.52 1549.52 Q1788.71 1549.52 1785.63 1544.94 Q1782.57 1540.33 1782.57 1531.6 Q1782.57 1522.85 1785.63 1518.27 Q1788.71 1513.66 1794.52 1513.66 Z" fill="#000000" fill-rule="nonzero" fill-opacity="1" /><path clip-path="url(#clip500)" d="M1824.68 1517.37 Q1821.07 1517.37 1819.24 1520.93 Q1817.43 1524.47 1817.43 1531.6 Q1817.43 1538.71 1819.24 1542.27 Q1821.07 1545.82 1824.68 1545.82 Q1828.31 1545.82 1830.12 1542.27 Q1831.95 1538.71 1831.95 1531.6 Q1831.95 1524.47 1830.12 1520.93 Q1828.31 1517.37 1824.68 1517.37 M1824.68 1513.66 Q1830.49 1513.66 1833.54 1518.27 Q1836.62 1522.85 1836.62 1531.6 Q1836.62 1540.33 1833.54 1544.94 Q1830.49 1549.52 1824.68 1549.52 Q1818.87 1549.52 1815.79 1544.94 Q1812.73 1540.33 1812.73 1531.6 Q1812.73 1522.85 1815.79 1518.27 Q1818.87 1513.66 1824.68 1513.66 Z" fill="#000000" fill-rule="nonzero" fill-opacity="1" /><path clip-path="url(#clip500)" d="M2240.05 1544.91 L2256.37 1544.91 L2256.37 1548.85 L2234.43 1548.85 L2234.43 1544.91 Q2237.09 1542.16 2241.67 1537.53 Q2246.28 1532.88 2247.46 1531.53 Q2249.7 1529.01 2250.58 1527.27 Q2251.49 1525.51 2251.49 1523.82 Q2251.49 1521.07 2249.54 1519.33 Q2247.62 1517.6 2244.52 1517.6 Q2242.32 1517.6 2239.87 1518.36 Q2237.44 1519.13 2234.66 1520.68 L2234.66 1515.95 Q2237.48 1514.82 2239.94 1514.24 Q2242.39 1513.66 2244.43 1513.66 Q2249.8 1513.66 2252.99 1516.35 Q2256.19 1519.03 2256.19 1523.52 Q2256.19 1525.65 2255.38 1527.57 Q2254.59 1529.47 2252.48 1532.07 Q2251.9 1532.74 2248.8 1535.95 Q2245.7 1539.15 2240.05 1544.91 Z" fill="#000000" fill-rule="nonzero" fill-opacity="1" /><path clip-path="url(#clip500)" d="M2276.19 1517.37 Q2272.57 1517.37 2270.75 1520.93 Q2268.94 1524.47 2268.94 1531.6 Q2268.94 1538.71 2270.75 1542.27 Q2272.57 1545.82 2276.19 1545.82 Q2279.82 1545.82 2281.63 1542.27 Q2283.45 1538.71 2283.45 1531.6 Q2283.45 1524.47 2281.63 1520.93 Q2279.82 1517.37 2276.19 1517.37 M2276.19 1513.66 Q2282 1513.66 2285.05 1518.27 Q2288.13 1522.85 2288.13 1531.6 Q2288.13 1540.33 2285.05 1544.94 Q2282 1549.52 2276.19 1549.52 Q2270.38 1549.52 2267.3 1544.94 Q2264.24 1540.33 2264.24 1531.6 Q2264.24 1522.85 2267.3 1518.27 Q2270.38 1513.66 2276.19 1513.66 Z" fill="#000000" fill-rule="nonzero" fill-opacity="1" /><path clip-path="url(#clip500)" d="M2306.35 1517.37 Q2302.74 1517.37 2300.91 1520.93 Q2299.1 1524.47 2299.1 1531.6 Q2299.1 1538.71 2300.91 1542.27 Q2302.74 1545.82 2306.35 1545.82 Q2309.98 1545.82 2311.79 1542.27 Q2313.62 1538.71 2313.62 1531.6 Q2313.62 1524.47 2311.79 1520.93 Q2309.98 1517.37 2306.35 1517.37 M2306.35 1513.66 Q2312.16 1513.66 2315.21 1518.27 Q2318.29 1522.85 2318.29 1531.6 Q2318.29 1540.33 2315.21 1544.94 Q2312.16 1549.52 2306.35 1549.52 Q2300.54 1549.52 2297.46 1544.94 Q2294.4 1540.33 2294.4 1531.6 Q2294.4 1522.85 2297.46 1518.27 Q2300.54 1513.66 2306.35 1513.66 Z" fill="#000000" fill-rule="nonzero" fill-opacity="1" /><path clip-path="url(#clip500)" d="M2336.51 1517.37 Q2332.9 1517.37 2331.07 1520.93 Q2329.26 1524.47 2329.26 1531.6 Q2329.26 1538.71 2331.07 1542.27 Q2332.9 1545.82 2336.51 1545.82 Q2340.14 1545.82 2341.95 1542.27 Q2343.78 1538.71 2343.78 1531.6 Q2343.78 1524.47 2341.95 1520.93 Q2340.14 1517.37 2336.51 1517.37 M2336.51 1513.66 Q2342.32 1513.66 2345.38 1518.27 Q2348.45 1522.85 2348.45 1531.6 Q2348.45 1540.33 2345.38 1544.94 Q2342.32 1549.52 2336.51 1549.52 Q2330.7 1549.52 2327.62 1544.94 Q2324.57 1540.33 2324.57 1531.6 Q2324.57 1522.85 2327.62 1518.27 Q2330.7 1513.66 2336.51 1513.66 Z" fill="#000000" fill-rule="nonzero" fill-opacity="1" /><polyline clip-path="url(#clip502)" style="stroke:#000000; stroke-linecap:round; stroke-linejoin:round; stroke-width:2; stroke-opacity:0.1; fill:none" points="186.274,1408.78 2352.76,1408.78 "/>
<polyline clip-path="url(#clip502)" style="stroke:#000000; stroke-linecap:round; stroke-linejoin:round; stroke-width:2; stroke-opacity:0.1; fill:none" points="186.274,1212.97 2352.76,1212.97 "/>
<polyline clip-path="url(#clip502)" style="stroke:#000000; stroke-linecap:round; stroke-linejoin:round; stroke-width:2; stroke-opacity:0.1; fill:none" points="186.274,1017.16 2352.76,1017.16 "/>
<polyline clip-path="url(#clip502)" style="stroke:#000000; stroke-linecap:round; stroke-linejoin:round; stroke-width:2; stroke-opacity:0.1; fill:none" points="186.274,821.352 2352.76,821.352 "/>
<polyline clip-path="url(#clip502)" style="stroke:#000000; stroke-linecap:round; stroke-linejoin:round; stroke-width:2; stroke-opacity:0.1; fill:none" points="186.274,625.543 2352.76,625.543 "/>
<polyline clip-path="url(#clip502)" style="stroke:#000000; stroke-linecap:round; stroke-linejoin:round; stroke-width:2; stroke-opacity:0.1; fill:none" points="186.274,429.734 2352.76,429.734 "/>
<polyline clip-path="url(#clip502)" style="stroke:#000000; stroke-linecap:round; stroke-linejoin:round; stroke-width:2; stroke-opacity:0.1; fill:none" points="186.274,233.925 2352.76,233.925 "/>
<polyline clip-path="url(#clip500)" style="stroke:#000000; stroke-linecap:round; stroke-linejoin:round; stroke-width:4; stroke-opacity:1; fill:none" points="186.274,1486.45 186.274,47.2441 "/>
<polyline clip-path="url(#clip500)" style="stroke:#000000; stroke-linecap:round; stroke-linejoin:round; stroke-width:4; stroke-opacity:1; fill:none" points="186.274,1408.78 205.172,1408.78 "/>
<polyline clip-path="url(#clip500)" style="stroke:#000000; stroke-linecap:round; stroke-linejoin:round; stroke-width:4; stroke-opacity:1; fill:none" points="186.274,1212.97 205.172,1212.97 "/>
<polyline clip-path="url(#clip500)" style="stroke:#000000; stroke-linecap:round; stroke-linejoin:round; stroke-width:4; stroke-opacity:1; fill:none" points="186.274,1017.16 205.172,1017.16 "/>
<polyline clip-path="url(#clip500)" style="stroke:#000000; stroke-linecap:round; stroke-linejoin:round; stroke-width:4; stroke-opacity:1; fill:none" points="186.274,821.352 205.172,821.352 "/>
<polyline clip-path="url(#clip500)" style="stroke:#000000; stroke-linecap:round; stroke-linejoin:round; stroke-width:4; stroke-opacity:1; fill:none" points="186.274,625.543 205.172,625.543 "/>
<polyline clip-path="url(#clip500)" style="stroke:#000000; stroke-linecap:round; stroke-linejoin:round; stroke-width:4; stroke-opacity:1; fill:none" points="186.274,429.734 205.172,429.734 "/>
<polyline clip-path="url(#clip500)" style="stroke:#000000; stroke-linecap:round; stroke-linejoin:round; stroke-width:4; stroke-opacity:1; fill:none" points="186.274,233.925 205.172,233.925 "/>
<path clip-path="url(#clip500)" d="M63.9319 1394.58 Q60.3208 1394.58 58.4921 1398.14 Q56.6865 1401.68 56.6865 1408.81 Q56.6865 1415.92 58.4921 1419.49 Q60.3208 1423.03 63.9319 1423.03 Q67.5661 1423.03 69.3717 1419.49 Q71.2004 1415.92 71.2004 1408.81 Q71.2004 1401.68 69.3717 1398.14 Q67.5661 1394.58 63.9319 1394.58 M63.9319 1390.87 Q69.742 1390.87 72.7976 1395.48 Q75.8763 1400.06 75.8763 1408.81 Q75.8763 1417.54 72.7976 1422.15 Q69.742 1426.73 63.9319 1426.73 Q58.1217 1426.73 55.043 1422.15 Q51.9875 1417.54 51.9875 1408.81 Q51.9875 1400.06 55.043 1395.48 Q58.1217 1390.87 63.9319 1390.87 Z" fill="#000000" fill-rule="nonzero" fill-opacity="1" /><path clip-path="url(#clip500)" d="M84.0938 1420.18 L88.978 1420.18 L88.978 1426.06 L84.0938 1426.06 L84.0938 1420.18 Z" fill="#000000" fill-rule="nonzero" fill-opacity="1" /><path clip-path="url(#clip500)" d="M109.163 1394.58 Q105.552 1394.58 103.723 1398.14 Q101.918 1401.68 101.918 1408.81 Q101.918 1415.92 103.723 1419.49 Q105.552 1423.03 109.163 1423.03 Q112.797 1423.03 114.603 1419.49 Q116.432 1415.92 116.432 1408.81 Q116.432 1401.68 114.603 1398.14 Q112.797 1394.58 109.163 1394.58 M109.163 1390.87 Q114.973 1390.87 118.029 1395.48 Q121.107 1400.06 121.107 1408.81 Q121.107 1417.54 118.029 1422.15 Q114.973 1426.73 109.163 1426.73 Q103.353 1426.73 100.274 1422.15 Q97.2187 1417.54 97.2187 1408.81 Q97.2187 1400.06 100.274 1395.48 Q103.353 1390.87 109.163 1390.87 Z" fill="#000000" fill-rule="nonzero" fill-opacity="1" /><path clip-path="url(#clip500)" d="M129.371 1391.5 L147.728 1391.5 L147.728 1395.43 L133.654 1395.43 L133.654 1403.91 Q134.672 1403.56 135.691 1403.4 Q136.709 1403.21 137.728 1403.21 Q143.515 1403.21 146.894 1406.38 Q150.274 1409.55 150.274 1414.97 Q150.274 1420.55 146.802 1423.65 Q143.33 1426.73 137.01 1426.73 Q134.834 1426.73 132.566 1426.36 Q130.32 1425.99 127.913 1425.25 L127.913 1420.55 Q129.996 1421.68 132.219 1422.24 Q134.441 1422.8 136.918 1422.8 Q140.922 1422.8 143.26 1420.69 Q145.598 1418.58 145.598 1414.97 Q145.598 1411.36 143.26 1409.25 Q140.922 1407.15 136.918 1407.15 Q135.043 1407.15 133.168 1407.56 Q131.316 1407.98 129.371 1408.86 L129.371 1391.5 Z" fill="#000000" fill-rule="nonzero" fill-opacity="1" /><path clip-path="url(#clip500)" d="M62.9365 1198.77 Q59.3254 1198.77 57.4967 1202.33 Q55.6912 1205.88 55.6912 1213 Q55.6912 1220.11 57.4967 1223.68 Q59.3254 1227.22 62.9365 1227.22 Q66.5707 1227.22 68.3763 1223.68 Q70.205 1220.11 70.205 1213 Q70.205 1205.88 68.3763 1202.33 Q66.5707 1198.77 62.9365 1198.77 M62.9365 1195.07 Q68.7467 1195.07 71.8022 1199.67 Q74.8809 1204.26 74.8809 1213 Q74.8809 1221.73 71.8022 1226.34 Q68.7467 1230.92 62.9365 1230.92 Q57.1264 1230.92 54.0477 1226.34 Q50.9921 1221.73 50.9921 1213 Q50.9921 1204.26 54.0477 1199.67 Q57.1264 1195.07 62.9365 1195.07 Z" fill="#000000" fill-rule="nonzero" fill-opacity="1" /><path clip-path="url(#clip500)" d="M83.0984 1224.37 L87.9827 1224.37 L87.9827 1230.25 L83.0984 1230.25 L83.0984 1224.37 Z" fill="#000000" fill-rule="nonzero" fill-opacity="1" /><path clip-path="url(#clip500)" d="M98.978 1226.32 L106.617 1226.32 L106.617 1199.95 L98.3067 1201.62 L98.3067 1197.36 L106.571 1195.69 L111.246 1195.69 L111.246 1226.32 L118.885 1226.32 L118.885 1230.25 L98.978 1230.25 L98.978 1226.32 Z" fill="#000000" fill-rule="nonzero" fill-opacity="1" /><path clip-path="url(#clip500)" d="M138.33 1198.77 Q134.719 1198.77 132.89 1202.33 Q131.084 1205.88 131.084 1213 Q131.084 1220.11 132.89 1223.68 Q134.719 1227.22 138.33 1227.22 Q141.964 1227.22 143.769 1223.68 Q145.598 1220.11 145.598 1213 Q145.598 1205.88 143.769 1202.33 Q141.964 1198.77 138.33 1198.77 M138.33 1195.07 Q144.14 1195.07 147.195 1199.67 Q150.274 1204.26 150.274 1213 Q150.274 1221.73 147.195 1226.34 Q144.14 1230.92 138.33 1230.92 Q132.519 1230.92 129.441 1226.34 Q126.385 1221.73 126.385 1213 Q126.385 1204.26 129.441 1199.67 Q132.519 1195.07 138.33 1195.07 Z" fill="#000000" fill-rule="nonzero" fill-opacity="1" /><path clip-path="url(#clip500)" d="M63.9319 1002.96 Q60.3208 1002.96 58.4921 1006.52 Q56.6865 1010.07 56.6865 1017.2 Q56.6865 1024.3 58.4921 1027.87 Q60.3208 1031.41 63.9319 1031.41 Q67.5661 1031.41 69.3717 1027.87 Q71.2004 1024.3 71.2004 1017.2 Q71.2004 1010.07 69.3717 1006.52 Q67.5661 1002.96 63.9319 1002.96 M63.9319 999.256 Q69.742 999.256 72.7976 1003.86 Q75.8763 1008.45 75.8763 1017.2 Q75.8763 1025.92 72.7976 1030.53 Q69.742 1035.11 63.9319 1035.11 Q58.1217 1035.11 55.043 1030.53 Q51.9875 1025.92 51.9875 1017.2 Q51.9875 1008.45 55.043 1003.86 Q58.1217 999.256 63.9319 999.256 Z" fill="#000000" fill-rule="nonzero" fill-opacity="1" /><path clip-path="url(#clip500)" d="M84.0938 1028.56 L88.978 1028.56 L88.978 1034.44 L84.0938 1034.44 L84.0938 1028.56 Z" fill="#000000" fill-rule="nonzero" fill-opacity="1" /><path clip-path="url(#clip500)" d="M99.9733 1030.51 L107.612 1030.51 L107.612 1004.14 L99.3021 1005.81 L99.3021 1001.55 L107.566 999.881 L112.242 999.881 L112.242 1030.51 L119.881 1030.51 L119.881 1034.44 L99.9733 1034.44 L99.9733 1030.51 Z" fill="#000000" fill-rule="nonzero" fill-opacity="1" /><path clip-path="url(#clip500)" d="M129.371 999.881 L147.728 999.881 L147.728 1003.82 L133.654 1003.82 L133.654 1012.29 Q134.672 1011.94 135.691 1011.78 Q136.709 1011.59 137.728 1011.59 Q143.515 1011.59 146.894 1014.77 Q150.274 1017.94 150.274 1023.35 Q150.274 1028.93 146.802 1032.03 Q143.33 1035.11 137.01 1035.11 Q134.834 1035.11 132.566 1034.74 Q130.32 1034.37 127.913 1033.63 L127.913 1028.93 Q129.996 1030.07 132.219 1030.62 Q134.441 1031.18 136.918 1031.18 Q140.922 1031.18 143.26 1029.07 Q145.598 1026.96 145.598 1023.35 Q145.598 1019.74 143.26 1017.64 Q140.922 1015.53 136.918 1015.53 Q135.043 1015.53 133.168 1015.95 Q131.316 1016.36 129.371 1017.24 L129.371 999.881 Z" fill="#000000" fill-rule="nonzero" fill-opacity="1" /><path clip-path="url(#clip500)" d="M62.9365 807.151 Q59.3254 807.151 57.4967 810.715 Q55.6912 814.257 55.6912 821.387 Q55.6912 828.493 57.4967 832.058 Q59.3254 835.6 62.9365 835.6 Q66.5707 835.6 68.3763 832.058 Q70.205 828.493 70.205 821.387 Q70.205 814.257 68.3763 810.715 Q66.5707 807.151 62.9365 807.151 M62.9365 803.447 Q68.7467 803.447 71.8022 808.053 Q74.8809 812.637 74.8809 821.387 Q74.8809 830.114 71.8022 834.72 Q68.7467 839.303 62.9365 839.303 Q57.1264 839.303 54.0477 834.72 Q50.9921 830.114 50.9921 821.387 Q50.9921 812.637 54.0477 808.053 Q57.1264 803.447 62.9365 803.447 Z" fill="#000000" fill-rule="nonzero" fill-opacity="1" /><path clip-path="url(#clip500)" d="M83.0984 832.752 L87.9827 832.752 L87.9827 838.632 L83.0984 838.632 L83.0984 832.752 Z" fill="#000000" fill-rule="nonzero" fill-opacity="1" /><path clip-path="url(#clip500)" d="M102.196 834.697 L118.515 834.697 L118.515 838.632 L96.5706 838.632 L96.5706 834.697 Q99.2326 831.942 103.816 827.313 Q108.422 822.66 109.603 821.317 Q111.848 818.794 112.728 817.058 Q113.631 815.299 113.631 813.609 Q113.631 810.854 111.686 809.118 Q109.765 807.382 106.663 807.382 Q104.464 807.382 102.01 808.146 Q99.5798 808.91 96.8021 810.461 L96.8021 805.739 Q99.6261 804.604 102.08 804.026 Q104.534 803.447 106.571 803.447 Q111.941 803.447 115.135 806.132 Q118.33 808.817 118.33 813.308 Q118.33 815.438 117.52 817.359 Q116.733 819.257 114.626 821.85 Q114.047 822.521 110.946 825.739 Q107.844 828.933 102.196 834.697 Z" fill="#000000" fill-rule="nonzero" fill-opacity="1" /><path clip-path="url(#clip500)" d="M138.33 807.151 Q134.719 807.151 132.89 810.715 Q131.084 814.257 131.084 821.387 Q131.084 828.493 132.89 832.058 Q134.719 835.6 138.33 835.6 Q141.964 835.6 143.769 832.058 Q145.598 828.493 145.598 821.387 Q145.598 814.257 143.769 810.715 Q141.964 807.151 138.33 807.151 M138.33 803.447 Q144.14 803.447 147.195 808.053 Q150.274 812.637 150.274 821.387 Q150.274 830.114 147.195 834.72 Q144.14 839.303 138.33 839.303 Q132.519 839.303 129.441 834.72 Q126.385 830.114 126.385 821.387 Q126.385 812.637 129.441 808.053 Q132.519 803.447 138.33 803.447 Z" fill="#000000" fill-rule="nonzero" fill-opacity="1" /><path clip-path="url(#clip500)" d="M63.9319 611.342 Q60.3208 611.342 58.4921 614.906 Q56.6865 618.448 56.6865 625.578 Q56.6865 632.684 58.4921 636.249 Q60.3208 639.79 63.9319 639.79 Q67.5661 639.79 69.3717 636.249 Q71.2004 632.684 71.2004 625.578 Q71.2004 618.448 69.3717 614.906 Q67.5661 611.342 63.9319 611.342 M63.9319 607.638 Q69.742 607.638 72.7976 612.244 Q75.8763 616.828 75.8763 625.578 Q75.8763 634.304 72.7976 638.911 Q69.742 643.494 63.9319 643.494 Q58.1217 643.494 55.043 638.911 Q51.9875 634.304 51.9875 625.578 Q51.9875 616.828 55.043 612.244 Q58.1217 607.638 63.9319 607.638 Z" fill="#000000" fill-rule="nonzero" fill-opacity="1" /><path clip-path="url(#clip500)" d="M84.0938 636.943 L88.978 636.943 L88.978 642.823 L84.0938 642.823 L84.0938 636.943 Z" fill="#000000" fill-rule="nonzero" fill-opacity="1" /><path clip-path="url(#clip500)" d="M103.191 638.888 L119.51 638.888 L119.51 642.823 L97.566 642.823 L97.566 638.888 Q100.228 636.133 104.811 631.503 Q109.418 626.851 110.598 625.508 Q112.844 622.985 113.723 621.249 Q114.626 619.49 114.626 617.8 Q114.626 615.045 112.682 613.309 Q110.76 611.573 107.658 611.573 Q105.459 611.573 103.006 612.337 Q100.575 613.101 97.7974 614.652 L97.7974 609.93 Q100.621 608.795 103.075 608.217 Q105.529 607.638 107.566 607.638 Q112.936 607.638 116.131 610.323 Q119.325 613.008 119.325 617.499 Q119.325 619.629 118.515 621.55 Q117.728 623.448 115.621 626.041 Q115.043 626.712 111.941 629.929 Q108.839 633.124 103.191 638.888 Z" fill="#000000" fill-rule="nonzero" fill-opacity="1" /><path clip-path="url(#clip500)" d="M129.371 608.263 L147.728 608.263 L147.728 612.198 L133.654 612.198 L133.654 620.67 Q134.672 620.323 135.691 620.161 Q136.709 619.976 137.728 619.976 Q143.515 619.976 146.894 623.147 Q150.274 626.318 150.274 631.735 Q150.274 637.314 146.802 640.415 Q143.33 643.494 137.01 643.494 Q134.834 643.494 132.566 643.124 Q130.32 642.753 127.913 642.013 L127.913 637.314 Q129.996 638.448 132.219 639.003 Q134.441 639.559 136.918 639.559 Q140.922 639.559 143.26 637.453 Q145.598 635.346 145.598 631.735 Q145.598 628.124 143.26 626.017 Q140.922 623.911 136.918 623.911 Q135.043 623.911 133.168 624.328 Q131.316 624.744 129.371 625.624 L129.371 608.263 Z" fill="#000000" fill-rule="nonzero" fill-opacity="1" /><path clip-path="url(#clip500)" d="M62.9365 415.532 Q59.3254 415.532 57.4967 419.097 Q55.6912 422.639 55.6912 429.768 Q55.6912 436.875 57.4967 440.44 Q59.3254 443.981 62.9365 443.981 Q66.5707 443.981 68.3763 440.44 Q70.205 436.875 70.205 429.768 Q70.205 422.639 68.3763 419.097 Q66.5707 415.532 62.9365 415.532 M62.9365 411.829 Q68.7467 411.829 71.8022 416.435 Q74.8809 421.019 74.8809 429.768 Q74.8809 438.495 71.8022 443.102 Q68.7467 447.685 62.9365 447.685 Q57.1264 447.685 54.0477 443.102 Q50.9921 438.495 50.9921 429.768 Q50.9921 421.019 54.0477 416.435 Q57.1264 411.829 62.9365 411.829 Z" fill="#000000" fill-rule="nonzero" fill-opacity="1" /><path clip-path="url(#clip500)" d="M83.0984 441.134 L87.9827 441.134 L87.9827 447.014 L83.0984 447.014 L83.0984 441.134 Z" fill="#000000" fill-rule="nonzero" fill-opacity="1" /><path clip-path="url(#clip500)" d="M112.334 428.38 Q115.691 429.097 117.566 431.366 Q119.464 433.634 119.464 436.967 Q119.464 442.083 115.945 444.884 Q112.427 447.685 105.946 447.685 Q103.77 447.685 101.455 447.245 Q99.1632 446.829 96.7095 445.972 L96.7095 441.458 Q98.6539 442.592 100.969 443.171 Q103.284 443.75 105.807 443.75 Q110.205 443.75 112.496 442.014 Q114.811 440.278 114.811 436.967 Q114.811 433.912 112.658 432.199 Q110.529 430.463 106.709 430.463 L102.682 430.463 L102.682 426.62 L106.895 426.62 Q110.344 426.62 112.172 425.255 Q114.001 423.866 114.001 421.273 Q114.001 418.611 112.103 417.199 Q110.228 415.764 106.709 415.764 Q104.788 415.764 102.589 416.181 Q100.39 416.597 97.7511 417.477 L97.7511 413.31 Q100.413 412.569 102.728 412.199 Q105.066 411.829 107.126 411.829 Q112.45 411.829 115.552 414.259 Q118.654 416.667 118.654 420.787 Q118.654 423.657 117.01 425.648 Q115.367 427.616 112.334 428.38 Z" fill="#000000" fill-rule="nonzero" fill-opacity="1" /><path clip-path="url(#clip500)" d="M138.33 415.532 Q134.719 415.532 132.89 419.097 Q131.084 422.639 131.084 429.768 Q131.084 436.875 132.89 440.44 Q134.719 443.981 138.33 443.981 Q141.964 443.981 143.769 440.44 Q145.598 436.875 145.598 429.768 Q145.598 422.639 143.769 419.097 Q141.964 415.532 138.33 415.532 M138.33 411.829 Q144.14 411.829 147.195 416.435 Q150.274 421.019 150.274 429.768 Q150.274 438.495 147.195 443.102 Q144.14 447.685 138.33 447.685 Q132.519 447.685 129.441 443.102 Q126.385 438.495 126.385 429.768 Q126.385 421.019 129.441 416.435 Q132.519 411.829 138.33 411.829 Z" fill="#000000" fill-rule="nonzero" fill-opacity="1" /><path clip-path="url(#clip500)" d="M63.9319 219.723 Q60.3208 219.723 58.4921 223.288 Q56.6865 226.83 56.6865 233.959 Q56.6865 241.066 58.4921 244.631 Q60.3208 248.172 63.9319 248.172 Q67.5661 248.172 69.3717 244.631 Q71.2004 241.066 71.2004 233.959 Q71.2004 226.83 69.3717 223.288 Q67.5661 219.723 63.9319 219.723 M63.9319 216.02 Q69.742 216.02 72.7976 220.626 Q75.8763 225.209 75.8763 233.959 Q75.8763 242.686 72.7976 247.293 Q69.742 251.876 63.9319 251.876 Q58.1217 251.876 55.043 247.293 Q51.9875 242.686 51.9875 233.959 Q51.9875 225.209 55.043 220.626 Q58.1217 216.02 63.9319 216.02 Z" fill="#000000" fill-rule="nonzero" fill-opacity="1" /><path clip-path="url(#clip500)" d="M84.0938 245.325 L88.978 245.325 L88.978 251.205 L84.0938 251.205 L84.0938 245.325 Z" fill="#000000" fill-rule="nonzero" fill-opacity="1" /><path clip-path="url(#clip500)" d="M113.33 232.57 Q116.686 233.288 118.561 235.557 Q120.459 237.825 120.459 241.158 Q120.459 246.274 116.941 249.075 Q113.422 251.876 106.941 251.876 Q104.765 251.876 102.45 251.436 Q100.159 251.019 97.7048 250.163 L97.7048 245.649 Q99.6493 246.783 101.964 247.362 Q104.279 247.941 106.802 247.941 Q111.2 247.941 113.492 246.205 Q115.807 244.469 115.807 241.158 Q115.807 238.103 113.654 236.39 Q111.524 234.654 107.705 234.654 L103.677 234.654 L103.677 230.811 L107.89 230.811 Q111.339 230.811 113.168 229.445 Q114.996 228.057 114.996 225.464 Q114.996 222.802 113.098 221.39 Q111.223 219.955 107.705 219.955 Q105.783 219.955 103.584 220.371 Q101.385 220.788 98.7465 221.668 L98.7465 217.501 Q101.409 216.76 103.723 216.39 Q106.061 216.02 108.121 216.02 Q113.445 216.02 116.547 218.45 Q119.649 220.858 119.649 224.978 Q119.649 227.848 118.006 229.839 Q116.362 231.807 113.33 232.57 Z" fill="#000000" fill-rule="nonzero" fill-opacity="1" /><path clip-path="url(#clip500)" d="M129.371 216.645 L147.728 216.645 L147.728 220.58 L133.654 220.58 L133.654 229.052 Q134.672 228.705 135.691 228.543 Q136.709 228.358 137.728 228.358 Q143.515 228.358 146.894 231.529 Q150.274 234.7 150.274 240.117 Q150.274 245.695 146.802 248.797 Q143.33 251.876 137.01 251.876 Q134.834 251.876 132.566 251.506 Q130.32 251.135 127.913 250.394 L127.913 245.695 Q129.996 246.83 132.219 247.385 Q134.441 247.941 136.918 247.941 Q140.922 247.941 143.26 245.834 Q145.598 243.728 145.598 240.117 Q145.598 236.506 143.26 234.399 Q140.922 232.293 136.918 232.293 Q135.043 232.293 133.168 232.709 Q131.316 233.126 129.371 234.006 L129.371 216.645 Z" fill="#000000" fill-rule="nonzero" fill-opacity="1" /><polyline clip-path="url(#clip502)" style="stroke:#009af9; stroke-linecap:round; stroke-linejoin:round; stroke-width:4; stroke-opacity:1; fill:none" points="247.59,87.9763 248.611,91.5259 249.633,95.0639 250.655,98.5906 251.677,102.106 252.699,105.61 253.721,109.102 254.743,112.583 255.765,116.053 256.787,119.512 257.809,122.96 258.831,126.396 259.853,129.822 260.875,133.236 261.896,136.639 262.918,140.032 263.94,143.413 264.962,146.784 265.984,150.143 267.006,153.492 268.028,156.83 269.05,160.157 270.072,163.474 271.094,166.78 272.116,170.076 273.138,173.36 274.16,176.635 275.182,179.898 276.203,183.152 277.225,186.394 278.247,189.627 279.269,192.849 280.291,196.061 281.313,199.262 282.335,202.453 283.357,205.635 284.379,208.805 285.401,211.966 286.423,215.117 287.445,218.257 288.467,221.388 289.488,224.509 290.51,227.619 291.532,230.72 292.554,233.811 293.576,236.892 294.598,239.963 295.62,243.024 296.642,246.076 297.664,249.118 298.686,252.15 299.708,255.173 300.73,258.186 301.752,261.19 302.774,264.184 303.795,267.168 304.817,270.143 305.839,273.109 306.861,276.065 307.883,279.012 308.905,281.949 309.927,284.878 310.949,287.797 311.971,290.706 312.993,293.607 314.015,296.498 315.037,299.381 316.059,302.254 317.08,305.118 318.102,307.973 319.124,310.819 320.146,313.657 321.168,316.485 322.19,319.304 323.212,322.115 324.234,324.917 325.256,327.71 326.278,330.494 327.3,333.269 328.322,336.036 329.344,338.794 330.365,341.543 331.387,344.284 332.409,347.016 333.431,349.74 334.453,352.455 335.475,355.162 336.497,357.86 337.519,360.55 338.541,363.232 339.563,365.905 340.585,368.57 341.607,371.226 342.629,373.874 343.651,376.514 344.672,379.146 345.694,381.77 346.716,384.385 347.738,386.992 348.76,389.592 349.782,392.183 350.804,394.766 351.826,397.341 352.848,399.908 353.87,402.468 354.892,405.019 355.914,407.562 356.936,410.098 357.957,412.626 358.979,415.146 360.001,417.658 361.023,420.162 362.045,422.659 363.067,425.148 364.089,427.63 365.111,430.103 366.133,432.57 367.155,435.028 368.177,437.479 369.199,439.923 370.221,442.359 371.243,444.787 372.264,447.208 373.286,449.622 374.308,452.029 375.33,454.428 376.352,456.819 377.374,459.204 378.396,461.581 379.418,463.95 380.44,466.313 381.462,468.668 382.484,471.017 383.506,473.358 384.528,475.692 385.549,478.019 386.571,480.338 387.593,482.651 388.615,484.957 389.637,487.256 390.659,489.547 391.681,491.832 392.703,494.11 393.725,496.381 394.747,498.645 395.769,500.903 396.791,503.153 397.813,505.397 398.834,507.634 399.856,509.864 400.878,512.087 401.9,514.304 402.922,516.514 403.944,518.718 404.966,520.915 405.988,523.105 407.01,525.288 408.032,527.466 409.054,529.636 410.076,531.8 411.098,533.958 412.12,536.109 413.141,538.254 414.163,540.392 415.185,542.524 416.207,544.649 417.229,546.769 418.251,548.882 419.273,550.988 420.295,553.088 421.317,555.183 422.339,557.27 423.361,559.352 424.383,561.427 425.405,563.497 426.426,565.56 427.448,567.617 428.47,569.668 429.492,571.713 430.514,573.752 431.536,575.784 432.558,577.811 433.58,579.832 434.602,581.847 435.624,583.856 436.646,585.859 437.668,587.856 438.69,589.847 439.712,591.832 440.733,593.812 441.755,595.786 442.777,597.753 443.799,599.716 444.821,601.672 445.843,603.623 446.865,605.567 447.887,607.507 448.909,609.44 449.931,611.368 450.953,613.29 451.975,615.207 452.997,617.118 454.018,619.024 455.04,620.923 456.062,622.818 457.084,624.707 458.106,626.59 459.128,628.468 460.15,630.341 461.172,632.208 462.194,634.069 463.216,635.925 464.238,637.776 465.26,639.622 466.282,641.462 467.303,643.297 468.325,645.126 469.347,646.951 470.369,648.77 471.391,650.583 472.413,652.392 473.435,654.195 474.457,655.993 475.479,657.786 476.501,659.574 477.523,661.357 478.545,663.134 479.567,664.907 480.589,666.674 481.61,668.437 482.632,670.194 483.654,671.946 484.676,673.693 485.698,675.436 486.72,677.173 487.742,678.905 488.764,680.633 489.786,682.355 490.808,684.073 491.83,685.786 492.852,687.493 493.874,689.196 494.895,690.894 495.917,692.588 496.939,694.276 497.961,695.96 498.983,697.639 500.005,699.313 501.027,700.983 502.049,702.648 503.071,704.308 504.093,705.963 505.115,707.614 506.137,709.26 507.159,710.901 508.181,712.538 509.202,714.17 510.224,715.798 511.246,717.421 512.268,719.04 513.29,720.654 514.312,722.263 515.334,723.868 516.356,725.469 517.378,727.065 518.4,728.656 519.422,730.243 520.444,731.826 521.466,733.404 522.487,734.978 523.509,736.547 524.531,738.113 525.553,739.673 526.575,741.23 527.597,742.782 528.619,744.33 529.641,745.873 530.663,747.412 531.685,748.947 532.707,750.478 533.729,752.005 534.751,753.527 535.772,755.045 536.794,756.559 537.816,758.069 538.838,759.574 539.86,761.076 540.882,762.573 541.904,764.066 542.926,765.555 543.948,767.04 544.97,768.521 545.992,769.998 547.014,771.471 548.036,772.94 549.058,774.404 550.079,775.865 551.101,777.322 552.123,778.775 553.145,780.223 554.167,781.668 555.189,783.109 556.211,784.546 557.233,785.979 558.255,787.409 559.277,788.834 560.299,790.255 561.321,791.673 562.343,793.087 563.364,794.497 564.386,795.903 565.408,797.305 566.43,798.704 567.452,800.099 568.474,801.49 569.496,802.877 570.518,804.26 571.54,805.64 572.562,807.016 573.584,808.389 574.606,809.757 575.628,811.122 576.65,812.484 577.671,813.841 578.693,815.195 579.715,816.546 580.737,817.893 581.759,819.236 582.781,820.575 583.803,821.912 584.825,823.244 585.847,824.573 586.869,825.898 587.891,827.22 588.913,828.539 589.935,829.854 590.956,831.165 591.978,832.473 593,833.777 594.022,835.078 595.044,836.376 596.066,837.67 597.088,838.96 598.11,840.248 599.132,841.532 600.154,842.812 601.176,844.089 602.198,845.363 603.22,846.633 604.242,847.9 605.263,849.164 606.285,850.424 607.307,851.681 608.329,852.935 609.351,854.186 610.373,855.433 611.395,856.677 612.417,857.918 613.439,859.155 614.461,860.389 615.483,861.62 616.505,862.848 617.527,864.073 618.548,865.294 619.57,866.512 620.592,867.727 621.614,868.939 622.636,870.148 623.658,871.354 624.68,872.556 625.702,873.755 626.724,874.952 627.746,876.145 628.768,877.335 629.79,878.522 630.812,879.706 631.833,880.887 632.855,882.065 633.877,883.239 634.899,884.411 635.921,885.58 636.943,886.746 637.965,887.909 638.987,889.068 640.009,890.225 641.031,891.379 642.053,892.53 643.075,893.678 644.097,894.823 645.119,895.965 646.14,897.104 647.162,898.24 648.184,899.374 649.206,900.504 650.228,901.632 651.25,902.757 652.272,903.879 653.294,904.998 654.316,906.114 655.338,907.227 656.36,908.338 657.382,909.445 658.404,910.55 659.425,911.652 660.447,912.752 661.469,913.848 662.491,914.942 663.513,916.033 664.535,917.122 665.557,918.207 666.579,919.29 667.601,920.37 668.623,921.447 669.645,922.522 670.667,923.594 671.689,924.663 672.711,925.73 673.732,926.794 674.754,927.855 675.776,928.914 676.798,929.97 677.82,931.023 678.842,932.074 679.864,933.122 680.886,934.168 681.908,935.21 682.93,936.251 683.952,937.288 684.974,938.324 685.996,939.356 687.017,940.386 688.039,941.414 689.061,942.439 690.083,943.461 691.105,944.481 692.127,945.498 693.149,946.513 694.171,947.525 695.193,948.535 696.215,949.542 697.237,950.547 698.259,951.55 699.281,952.55 700.302,953.547 701.324,954.542 702.346,955.535 703.368,956.525 704.39,957.513 705.412,958.498 706.434,959.481 707.456,960.461 708.478,961.439 709.5,962.415 710.522,963.388 711.544,964.359 712.566,965.328 713.588,966.294 714.609,967.258 715.631,968.22 716.653,969.179 717.675,970.136 718.697,971.09 719.719,972.043 720.741,972.993 721.763,973.94 722.785,974.886 723.807,975.829 724.829,976.77 725.851,977.708 726.873,978.644 727.894,979.578 728.916,980.51 729.938,981.44 730.96,982.367 731.982,983.292 733.004,984.215 734.026,985.136 735.048,986.054 736.07,986.97 737.092,987.885 738.114,988.796 739.136,989.706 740.158,990.614 741.18,991.519 742.201,992.422 743.223,993.323 744.245,994.222 745.267,995.119 746.289,996.014 747.311,996.906 748.333,997.797 749.355,998.685 750.377,999.571 751.399,1000.46 752.421,1001.34 753.443,1002.22 754.465,1003.09 755.486,1003.97 756.508,1004.84 757.53,1005.72 758.552,1006.59 759.574,1007.45 760.596,1008.32 761.618,1009.18 762.64,1010.04 763.662,1010.9 764.684,1011.76 765.706,1012.62 766.728,1013.47 767.75,1014.32 768.771,1015.17 769.793,1016.02 770.815,1016.86 771.837,1017.71 772.859,1018.55 773.881,1019.39 774.903,1020.22 775.925,1021.06 776.947,1021.89 777.969,1022.73 778.991,1023.56 780.013,1024.38 781.035,1025.21 782.057,1026.03 783.078,1026.86 784.1,1027.68 785.122,1028.49 786.144,1029.31 787.166,1030.13 788.188,1030.94 789.21,1031.75 790.232,1032.56 791.254,1033.37 792.276,1034.17 793.298,1034.97 794.32,1035.78 795.342,1036.58 796.363,1037.37 797.385,1038.17 798.407,1038.96 799.429,1039.76 800.451,1040.55 801.473,1041.34 802.495,1042.12 803.517,1042.91 804.539,1043.69 805.561,1044.47 806.583,1045.25 807.605,1046.03 808.627,1046.81 809.649,1047.58 810.67,1048.35 811.692,1049.13 812.714,1049.89 813.736,1050.66 814.758,1051.43 815.78,1052.19 816.802,1052.95 817.824,1053.72 818.846,1054.47 819.868,1055.23 820.89,1055.99 821.912,1056.74 822.934,1057.49 823.955,1058.24 824.977,1058.99 825.999,1059.74 827.021,1060.48 828.043,1061.23 829.065,1061.97 830.087,1062.71 831.109,1063.45 832.131,1064.19 833.153,1064.92 834.175,1065.66 835.197,1066.39 836.219,1067.12 837.24,1067.85 838.262,1068.57 839.284,1069.3 840.306,1070.02 841.328,1070.75 842.35,1071.47 843.372,1072.19 844.394,1072.9 845.416,1073.62 846.438,1074.34 847.46,1075.05 848.482,1075.76 849.504,1076.47 850.526,1077.18 851.547,1077.88 852.569,1078.59 853.591,1079.29 854.613,1079.99 855.635,1080.7 856.657,1081.39 857.679,1082.09 858.701,1082.79 859.723,1083.48 860.745,1084.17 861.767,1084.87 862.789,1085.56 863.811,1086.24 864.832,1086.93 865.854,1087.62 866.876,1088.3 867.898,1088.98 868.92,1089.66 869.942,1090.34 870.964,1091.02 871.986,1091.7 873.008,1092.37 874.03,1093.04 875.052,1093.72 876.074,1094.39 877.096,1095.06 878.118,1095.72 879.139,1096.39 880.161,1097.05 881.183,1097.72 882.205,1098.38 883.227,1099.04 884.249,1099.7 885.271,1100.36 886.293,1101.01 887.315,1101.67 888.337,1102.32 889.359,1102.97 890.381,1103.62 891.403,1104.27 892.424,1104.92 893.446,1105.57 894.468,1106.21 895.49,1106.86 896.512,1107.5 897.534,1108.14 898.556,1108.78 899.578,1109.42 900.6,1110.05 901.622,1110.69 902.644,1111.32 903.666,1111.95 904.688,1112.59 905.71,1113.22 906.731,1113.85 907.753,1114.47 908.775,1115.1 909.797,1115.72 910.819,1116.35 911.841,1116.97 912.863,1117.59 913.885,1118.21 914.907,1118.83 915.929,1119.44 916.951,1120.06 917.973,1120.67 918.995,1121.29 920.016,1121.9 921.038,1122.51 922.06,1123.12 923.082,1123.73 924.104,1124.33 925.126,1124.94 926.148,1125.54 927.17,1126.14 928.192,1126.75 929.214,1127.35 930.236,1127.95 931.258,1128.54 932.28,1129.14 933.301,1129.73 934.323,1130.33 935.345,1130.92 936.367,1131.51 937.389,1132.1 938.411,1132.69 939.433,1133.28 940.455,1133.87 941.477,1134.45 942.499,1135.04 943.521,1135.62 944.543,1136.2 945.565,1136.78 946.587,1137.36 947.608,1137.94 948.63,1138.52 949.652,1139.09 950.674,1139.67 951.696,1140.24 952.718,1140.81 953.74,1141.38 954.762,1141.95 955.784,1142.52 956.806,1143.09 957.828,1143.66 958.85,1144.22 959.872,1144.79 960.893,1145.35 961.915,1145.91 962.937,1146.47 963.959,1147.03 964.981,1147.59 966.003,1148.15 967.025,1148.7 968.047,1149.26 969.069,1149.81 970.091,1150.37 971.113,1150.92 972.135,1151.47 973.157,1152.02 974.179,1152.57 975.2,1153.11 976.222,1153.66 977.244,1154.2 978.266,1154.75 979.288,1155.29 980.31,1155.83 981.332,1156.37 982.354,1156.91 983.376,1157.45 984.398,1157.99 985.42,1158.52 986.442,1159.06 987.464,1159.59 988.485,1160.13 989.507,1160.66 990.529,1161.19 991.551,1161.72 992.573,1162.25 993.595,1162.78 994.617,1163.3 995.639,1163.83 996.661,1164.35 997.683,1164.88 998.705,1165.4 999.727,1165.92 1000.75,1166.44 1001.77,1166.96 1002.79,1167.48 1003.81,1168 1004.84,1168.51 1005.86,1169.03 1006.88,1169.54 1007.9,1170.06 1008.92,1170.57 1009.95,1171.08 1010.97,1171.59 1011.99,1172.1 1013.01,1172.61 1014.03,1173.11 1015.06,1173.62 1016.08,1174.13 1017.1,1174.63 1018.12,1175.13 1019.14,1175.63 1020.17,1176.14 1021.19,1176.64 1022.21,1177.14 1023.23,1177.63 1024.25,1178.13 1025.27,1178.63 1026.3,1179.12 1027.32,1179.62 1028.34,1180.11 1029.36,1180.6 1030.38,1181.09 1031.41,1181.59 1032.43,1182.07 1033.45,1182.56 1034.47,1183.05 1035.49,1183.54 1036.52,1184.02 1037.54,1184.51 1038.56,1184.99 1039.58,1185.48 1040.6,1185.96 1041.63,1186.44 1042.65,1186.92 1043.67,1187.4 1044.69,1187.88 1045.71,1188.35 1046.74,1188.83 1047.76,1189.31 1048.78,1189.78 1049.8,1190.25 1050.82,1190.73 1051.84,1191.2 1052.87,1191.67 1053.89,1192.14 1054.91,1192.61 1055.93,1193.08 1056.95,1193.55 1057.98,1194.01 1059,1194.48 1060.02,1194.94 1061.04,1195.41 1062.06,1195.87 1063.09,1196.33 1064.11,1196.79 1065.13,1197.25 1066.15,1197.71 1067.17,1198.17 1068.2,1198.63 1069.22,1199.09 1070.24,1199.54 1071.26,1200 1072.28,1200.45 1073.31,1200.9 1074.33,1201.36 1075.35,1201.81 1076.37,1202.26 1077.39,1202.71 1078.41,1203.16 1079.44,1203.61 1080.46,1204.05 1081.48,1204.5 1082.5,1204.95 1083.52,1205.39 1084.55,1205.84 1085.57,1206.28 1086.59,1206.72 1087.61,1207.16 1088.63,1207.6 1089.66,1208.04 1090.68,1208.48 1091.7,1208.92 1092.72,1209.36 1093.74,1209.8 1094.77,1210.23 1095.79,1210.67 1096.81,1211.1 1097.83,1211.53 1098.85,1211.97 1099.88,1212.4 1100.9,1212.83 1101.92,1213.26 1102.94,1213.69 1103.96,1214.12 1104.98,1214.55 1106.01,1214.97 1107.03,1215.4 1108.05,1215.82 1109.07,1216.25 1110.09,1216.67 1111.12,1217.1 1112.14,1217.52 1113.16,1217.94 1114.18,1218.36 1115.2,1218.78 1116.23,1219.2 1117.25,1219.62 1118.27,1220.03 1119.29,1220.45 1120.31,1220.87 1121.34,1221.28 1122.36,1221.7 1123.38,1222.11 1124.4,1222.52 1125.42,1222.94 1126.45,1223.35 1127.47,1223.76 1128.49,1224.17 1129.51,1224.58 1130.53,1224.99 1131.56,1225.39 1132.58,1225.8 1133.6,1226.21 1134.62,1226.61 1135.64,1227.02 1136.66,1227.42 1137.69,1227.83 1138.71,1228.23 1139.73,1228.63 1140.75,1229.03 1141.77,1229.43 1142.8,1229.83 1143.82,1230.23 1144.84,1230.63 1145.86,1231.03 1146.88,1231.42 1147.91,1231.82 1148.93,1232.22 1149.95,1232.61 1150.97,1233 1151.99,1233.4 1153.02,1233.79 1154.04,1234.18 1155.06,1234.57 1156.08,1234.96 1157.1,1235.35 1158.13,1235.74 1159.15,1236.13 1160.17,1236.52 1161.19,1236.9 1162.21,1237.29 1163.23,1237.68 1164.26,1238.06 1165.28,1238.45 1166.3,1238.83 1167.32,1239.21 1168.34,1239.59 1169.37,1239.98 1170.39,1240.36 1171.41,1240.74 1172.43,1241.12 1173.45,1241.5 1174.48,1241.87 1175.5,1242.25 1176.52,1242.63 1177.54,1243 1178.56,1243.38 1179.59,1243.75 1180.61,1244.13 1181.63,1244.5 1182.65,1244.87 1183.67,1245.25 1184.7,1245.62 1185.72,1245.99 1186.74,1246.36 1187.76,1246.73 1188.78,1247.1 1189.8,1247.47 1190.83,1247.83 1191.85,1248.2 1192.87,1248.57 1193.89,1248.93 1194.91,1249.3 1195.94,1249.66 1196.96,1250.02 1197.98,1250.39 1199,1250.75 1200.02,1251.11 1201.05,1251.47 1202.07,1251.83 1203.09,1252.19 1204.11,1252.55 1205.13,1252.91 1206.16,1253.27 1207.18,1253.63 1208.2,1253.98 1209.22,1254.34 1210.24,1254.7 1211.27,1255.05 1212.29,1255.4 1213.31,1255.76 1214.33,1256.11 1215.35,1256.46 1216.37,1256.82 1217.4,1257.17 1218.42,1257.52 1219.44,1257.87 1220.46,1258.22 1221.48,1258.57 1222.51,1258.91 1223.53,1259.26 1224.55,1259.61 1225.57,1259.96 1226.59,1260.3 1227.62,1260.65 1228.64,1260.99 1229.66,1261.34 1230.68,1261.68 1231.7,1262.02 1232.73,1262.36 1233.75,1262.71 1234.77,1263.05 1235.79,1263.39 1236.81,1263.73 1237.84,1264.07 1238.86,1264.41 1239.88,1264.74 1240.9,1265.08 1241.92,1265.42 1242.94,1265.76 1243.97,1266.09 1244.99,1266.43 1246.01,1266.76 1247.03,1267.1 1248.05,1267.43 1249.08,1267.76 1250.1,1268.1 1251.12,1268.43 1252.14,1268.76 1253.16,1269.09 1254.19,1269.42 1255.21,1269.75 1256.23,1270.08 1257.25,1270.41 1258.27,1270.74 1259.3,1271.06 1260.32,1271.39 1261.34,1271.72 1262.36,1272.04 1263.38,1272.37 1264.41,1272.69 1265.43,1273.02 1266.45,1273.34 1267.47,1273.66 1268.49,1273.99 1269.51,1274.31 1270.54,1274.63 1271.56,1274.95 1272.58,1275.27 1273.6,1275.59 1274.62,1275.91 1275.65,1276.23 1276.67,1276.55 1277.69,1276.87 1278.71,1277.18 1279.73,1277.5 1280.76,1277.82 1281.78,1278.13 1282.8,1278.45 1283.82,1278.76 1284.84,1279.08 1285.87,1279.39 1286.89,1279.7 1287.91,1280.02 1288.93,1280.33 1289.95,1280.64 1290.98,1280.95 1292,1281.26 1293.02,1281.57 1294.04,1281.88 1295.06,1282.19 1296.09,1282.5 1297.11,1282.81 1298.13,1283.11 1299.15,1283.42 1300.17,1283.73 1301.19,1284.03 1302.22,1284.34 1303.24,1284.64 1304.26,1284.95 1305.28,1285.25 1306.3,1285.56 1307.33,1285.86 1308.35,1286.16 1309.37,1286.46 1310.39,1286.76 1311.41,1287.07 1312.44,1287.37 1313.46,1287.67 1314.48,1287.97 1315.5,1288.26 1316.52,1288.56 1317.55,1288.86 1318.57,1289.16 1319.59,1289.46 1320.61,1289.75 1321.63,1290.05 1322.66,1290.34 1323.68,1290.64 1324.7,1290.93 1325.72,1291.23 1326.74,1291.52 1327.76,1291.82 1328.79,1292.11 1329.81,1292.4 1330.83,1292.69 1331.85,1292.98 1332.87,1293.27 1333.9,1293.56 1334.92,1293.85 1335.94,1294.14 1336.96,1294.43 1337.98,1294.72 1339.01,1295.01 1340.03,1295.3 1341.05,1295.58 1342.07,1295.87 1343.09,1296.16 1344.12,1296.44 1345.14,1296.73 1346.16,1297.01 1347.18,1297.3 1348.2,1297.58 1349.23,1297.87 1350.25,1298.15 1351.27,1298.43 1352.29,1298.71 1353.31,1299 1354.33,1299.28 1355.36,1299.56 1356.38,1299.84 1357.4,1300.12 1358.42,1300.4 1359.44,1300.68 1360.47,1300.96 1361.49,1301.23 1362.51,1301.51 1363.53,1301.79 1364.55,1302.07 1365.58,1302.34 1366.6,1302.62 1367.62,1302.89 1368.64,1303.17 1369.66,1303.44 1370.69,1303.72 1371.71,1303.99 1372.73,1304.26 1373.75,1304.54 1374.77,1304.81 1375.8,1305.08 1376.82,1305.35 1377.84,1305.63 1378.86,1305.9 1379.88,1306.17 1380.9,1306.44 1381.93,1306.71 1382.95,1306.98 1383.97,1307.24 1384.99,1307.51 1386.01,1307.78 1387.04,1308.05 1388.06,1308.31 1389.08,1308.58 1390.1,1308.85 1391.12,1309.11 1392.15,1309.38 1393.17,1309.64 1394.19,1309.91 1395.21,1310.17 1396.23,1310.44 1397.26,1310.7 1398.28,1310.96 1399.3,1311.23 1400.32,1311.49 1401.34,1311.75 1402.37,1312.01 1403.39,1312.27 1404.41,1312.53 1405.43,1312.79 1406.45,1313.05 1407.47,1313.31 1408.5,1313.57 1409.52,1313.83 1410.54,1314.09 1411.56,1314.34 1412.58,1314.6 1413.61,1314.86 1414.63,1315.11 1415.65,1315.37 1416.67,1315.63 1417.69,1315.88 1418.72,1316.14 1419.74,1316.39 1420.76,1316.65 1421.78,1316.9 1422.8,1317.15 1423.83,1317.41 1424.85,1317.66 1425.87,1317.91 1426.89,1318.16 1427.91,1318.41 1428.94,1318.66 1429.96,1318.92 1430.98,1319.17 1432,1319.42 1433.02,1319.67 1434.04,1319.91 1435.07,1320.16 1436.09,1320.41 1437.11,1320.66 1438.13,1320.91 1439.15,1321.15 1440.18,1321.4 1441.2,1321.65 1442.22,1321.89 1443.24,1322.14 1444.26,1322.39 1445.29,1322.63 1446.31,1322.88 1447.33,1323.12 1448.35,1323.36 1449.37,1323.61 1450.4,1323.85 1451.42,1324.09 1452.44,1324.34 1453.46,1324.58 1454.48,1324.82 1455.51,1325.06 1456.53,1325.3 1457.55,1325.54 1458.57,1325.78 1459.59,1326.02 1460.62,1326.26 1461.64,1326.5 1462.66,1326.74 1463.68,1326.98 1464.7,1327.22 1465.72,1327.46 1466.75,1327.69 1467.77,1327.93 1468.79,1328.17 1469.81,1328.4 1470.83,1328.64 1471.86,1328.87 1472.88,1329.11 1473.9,1329.35 1474.92,1329.58 1475.94,1329.81 1476.97,1330.05 1477.99,1330.28 1479.01,1330.51 1480.03,1330.75 1481.05,1330.98 1482.08,1331.21 1483.1,1331.44 1484.12,1331.68 1485.14,1331.91 1486.16,1332.14 1487.19,1332.37 1488.21,1332.6 1489.23,1332.83 1490.25,1333.06 1491.27,1333.29 1492.29,1333.52 1493.32,1333.74 1494.34,1333.97 1495.36,1334.2 1496.38,1334.43 1497.4,1334.66 1498.43,1334.88 1499.45,1335.11 1500.47,1335.33 1501.49,1335.56 1502.51,1335.79 1503.54,1336.01 1504.56,1336.24 1505.58,1336.46 1506.6,1336.68 1507.62,1336.91 1508.65,1337.13 1509.67,1337.36 1510.69,1337.58 1511.71,1337.8 1512.73,1338.02 1513.76,1338.24 1514.78,1338.47 1515.8,1338.69 1516.82,1338.91 1517.84,1339.13 1518.86,1339.35 1519.89,1339.57 1520.91,1339.79 1521.93,1340.01 1522.95,1340.23 1523.97,1340.45 1525,1340.66 1526.02,1340.88 1527.04,1341.1 1528.06,1341.32 1529.08,1341.54 1530.11,1341.75 1531.13,1341.97 1532.15,1342.18 1533.17,1342.4 1534.19,1342.62 1535.22,1342.83 1536.24,1343.05 1537.26,1343.26 1538.28,1343.48 1539.3,1343.69 1540.33,1343.9 1541.35,1344.12 1542.37,1344.33 1543.39,1344.54 1544.41,1344.76 1545.43,1344.97 1546.46,1345.18 1547.48,1345.39 1548.5,1345.6 1549.52,1345.81 1550.54,1346.02 1551.57,1346.23 1552.59,1346.44 1553.61,1346.65 1554.63,1346.86 1555.65,1347.07 1556.68,1347.28 1557.7,1347.49 1558.72,1347.7 1559.74,1347.91 1560.76,1348.11 1561.79,1348.32 1562.81,1348.53 1563.83,1348.74 1564.85,1348.94 1565.87,1349.15 1566.9,1349.36 1567.92,1349.56 1568.94,1349.77 1569.96,1349.97 1570.98,1350.18 1572,1350.38 1573.03,1350.59 1574.05,1350.79 1575.07,1350.99 1576.09,1351.2 1577.11,1351.4 1578.14,1351.6 1579.16,1351.8 1580.18,1352.01 1581.2,1352.21 1582.22,1352.41 1583.25,1352.61 1584.27,1352.81 1585.29,1353.01 1586.31,1353.21 1587.33,1353.41 1588.36,1353.61 1589.38,1353.81 1590.4,1354.01 1591.42,1354.21 1592.44,1354.41 1593.47,1354.61 1594.49,1354.81 1595.51,1355.01 1596.53,1355.2 1597.55,1355.4 1598.57,1355.6 1599.6,1355.8 1600.62,1355.99 1601.64,1356.19 1602.66,1356.39 1603.68,1356.58 1604.71,1356.78 1605.73,1356.97 1606.75,1357.17 1607.77,1357.36 1608.79,1357.56 1609.82,1357.75 1610.84,1357.95 1611.86,1358.14 1612.88,1358.33 1613.9,1358.53 1614.93,1358.72 1615.95,1358.91 1616.97,1359.1 1617.99,1359.3 1619.01,1359.49 1620.04,1359.68 1621.06,1359.87 1622.08,1360.06 1623.1,1360.25 1624.12,1360.44 1625.15,1360.63 1626.17,1360.82 1627.19,1361.01 1628.21,1361.2 1629.23,1361.39 1630.25,1361.58 1631.28,1361.77 1632.3,1361.96 1633.32,1362.15 1634.34,1362.33 1635.36,1362.52 1636.39,1362.71 1637.41,1362.9 1638.43,1363.08 1639.45,1363.27 1640.47,1363.46 1641.5,1363.64 1642.52,1363.83 1643.54,1364.01 1644.56,1364.2 1645.58,1364.39 1646.61,1364.57 1647.63,1364.76 1648.65,1364.94 1649.67,1365.12 1650.69,1365.31 1651.72,1365.49 1652.74,1365.67 1653.76,1365.86 1654.78,1366.04 1655.8,1366.22 1656.82,1366.41 1657.85,1366.59 1658.87,1366.77 1659.89,1366.95 1660.91,1367.13 1661.93,1367.31 1662.96,1367.5 1663.98,1367.68 1665,1367.86 1666.02,1368.04 1667.04,1368.22 1668.07,1368.4 1669.09,1368.58 1670.11,1368.76 1671.13,1368.94 1672.15,1369.11 1673.18,1369.29 1674.2,1369.47 1675.22,1369.65 1676.24,1369.83 1677.26,1370 1678.29,1370.18 1679.31,1370.36 1680.33,1370.54 1681.35,1370.71 1682.37,1370.89 1683.39,1371.07 1684.42,1371.24 1685.44,1371.42 1686.46,1371.59 1687.48,1371.77 1688.5,1371.94 1689.53,1372.12 1690.55,1372.29 1691.57,1372.47 1692.59,1372.64 1693.61,1372.81 1694.64,1372.99 1695.66,1373.16 1696.68,1373.34 1697.7,1373.51 1698.72,1373.68 1699.75,1373.85 1700.77,1374.03 1701.79,1374.2 1702.81,1374.37 1703.83,1374.54 1704.86,1374.71 1705.88,1374.88 1706.9,1375.06 1707.92,1375.23 1708.94,1375.4 1709.96,1375.57 1710.99,1375.74 1712.01,1375.91 1713.03,1376.08 1714.05,1376.25 1715.07,1376.41 1716.1,1376.58 1717.12,1376.75 1718.14,1376.92 1719.16,1377.09 1720.18,1377.26 1721.21,1377.43 1722.23,1377.59 1723.25,1377.76 1724.27,1377.93 1725.29,1378.09 1726.32,1378.26 1727.34,1378.43 1728.36,1378.59 1729.38,1378.76 1730.4,1378.93 1731.43,1379.09 1732.45,1379.26 1733.47,1379.42 1734.49,1379.59 1735.51,1379.75 1736.53,1379.92 1737.56,1380.08 1738.58,1380.25 1739.6,1380.41 1740.62,1380.57 1741.64,1380.74 1742.67,1380.9 1743.69,1381.06 1744.71,1381.23 1745.73,1381.39 1746.75,1381.55 1747.78,1381.71 1748.8,1381.88 1749.82,1382.04 1750.84,1382.2 1751.86,1382.36 1752.89,1382.52 1753.91,1382.68 1754.93,1382.84 1755.95,1383.01 1756.97,1383.17 1758,1383.33 1759.02,1383.49 1760.04,1383.65 1761.06,1383.81 1762.08,1383.96 1763.1,1384.12 1764.13,1384.28 1765.15,1384.44 1766.17,1384.6 1767.19,1384.76 1768.21,1384.92 1769.24,1385.08 1770.26,1385.23 1771.28,1385.39 1772.3,1385.55 1773.32,1385.71 1774.35,1385.86 1775.37,1386.02 1776.39,1386.18 1777.41,1386.33 1778.43,1386.49 1779.46,1386.64 1780.48,1386.8 1781.5,1386.96 1782.52,1387.11 1783.54,1387.27 1784.57,1387.42 1785.59,1387.58 1786.61,1387.73 1787.63,1387.89 1788.65,1388.04 1789.67,1388.19 1790.7,1388.35 1791.72,1388.5 1792.74,1388.65 1793.76,1388.81 1794.78,1388.96 1795.81,1389.11 1796.83,1389.27 1797.85,1389.42 1798.87,1389.57 1799.89,1389.72 1800.92,1389.88 1801.94,1390.03 1802.96,1390.18 1803.98,1390.33 1805,1390.48 1806.03,1390.63 1807.05,1390.78 1808.07,1390.93 1809.09,1391.08 1810.11,1391.23 1811.14,1391.38 1812.16,1391.53 1813.18,1391.68 1814.2,1391.83 1815.22,1391.98 1816.25,1392.13 1817.27,1392.28 1818.29,1392.43 1819.31,1392.58 1820.33,1392.73 1821.35,1392.88 1822.38,1393.02 1823.4,1393.17 1824.42,1393.32 1825.44,1393.47 1826.46,1393.61 1827.49,1393.76 1828.51,1393.91 1829.53,1394.05 1830.55,1394.2 1831.57,1394.35 1832.6,1394.49 1833.62,1394.64 1834.64,1394.79 1835.66,1394.93 1836.68,1395.08 1837.71,1395.22 1838.73,1395.37 1839.75,1395.51 1840.77,1395.66 1841.79,1395.8 1842.82,1395.95 1843.84,1396.09 1844.86,1396.23 1845.88,1396.38 1846.9,1396.52 1847.92,1396.67 1848.95,1396.81 1849.97,1396.95 1850.99,1397.1 1852.01,1397.24 1853.03,1397.38 1854.06,1397.52 1855.08,1397.67 1856.1,1397.81 1857.12,1397.95 1858.14,1398.09 1859.17,1398.23 1860.19,1398.37 1861.21,1398.52 1862.23,1398.66 1863.25,1398.8 1864.28,1398.94 1865.3,1399.08 1866.32,1399.22 1867.34,1399.36 1868.36,1399.5 1869.39,1399.64 1870.41,1399.78 1871.43,1399.92 1872.45,1400.06 1873.47,1400.2 1874.49,1400.34 1875.52,1400.48 1876.54,1400.61 1877.56,1400.75 1878.58,1400.89 1879.6,1401.03 1880.63,1401.17 1881.65,1401.31 1882.67,1401.44 1883.69,1401.58 1884.71,1401.72 1885.74,1401.86 1886.76,1401.99 1887.78,1402.13 1888.8,1402.27 1889.82,1402.4 1890.85,1402.54 1891.87,1402.68 1892.89,1402.81 1893.91,1402.95 1894.93,1403.08 1895.96,1403.22 1896.98,1403.35 1898,1403.49 1899.02,1403.63 1900.04,1403.76 1901.06,1403.9 1902.09,1404.03 1903.11,1404.16 1904.13,1404.3 1905.15,1404.43 1906.17,1404.57 1907.2,1404.7 1908.22,1404.83 1909.24,1404.97 1910.26,1405.1 1911.28,1405.23 1912.31,1405.37 1913.33,1405.5 1914.35,1405.63 1915.37,1405.77 1916.39,1405.9 1917.42,1406.03 1918.44,1406.16 1919.46,1406.29 1920.48,1406.43 1921.5,1406.56 1922.53,1406.69 1923.55,1406.82 1924.57,1406.95 1925.59,1407.08 1926.61,1407.21 1927.63,1407.34 1928.66,1407.48 1929.68,1407.61 1930.7,1407.74 1931.72,1407.87 1932.74,1408 1933.77,1408.13 1934.79,1408.26 1935.81,1408.38 1936.83,1408.51 1937.85,1408.64 1938.88,1408.77 1939.9,1408.9 1940.92,1409.03 1941.94,1409.16 1942.96,1409.29 1943.99,1409.42 1945.01,1409.54 1946.03,1409.67 1947.05,1409.8 1948.07,1409.93 1949.1,1410.05 1950.12,1410.18 1951.14,1410.31 1952.16,1410.44 1953.18,1410.56 1954.2,1410.69 1955.23,1410.82 1956.25,1410.94 1957.27,1411.07 1958.29,1411.2 1959.31,1411.32 1960.34,1411.45 1961.36,1411.57 1962.38,1411.7 1963.4,1411.82 1964.42,1411.95 1965.45,1412.08 1966.47,1412.2 1967.49,1412.33 1968.51,1412.45 1969.53,1412.57 1970.56,1412.7 1971.58,1412.82 1972.6,1412.95 1973.62,1413.07 1974.64,1413.2 1975.67,1413.32 1976.69,1413.44 1977.71,1413.57 1978.73,1413.69 1979.75,1413.81 1980.78,1413.94 1981.8,1414.06 1982.82,1414.18 1983.84,1414.3 1984.86,1414.43 1985.88,1414.55 1986.91,1414.67 1987.93,1414.79 1988.95,1414.92 1989.97,1415.04 1990.99,1415.16 1992.02,1415.28 1993.04,1415.4 1994.06,1415.52 1995.08,1415.64 1996.1,1415.76 1997.13,1415.89 1998.15,1416.01 1999.17,1416.13 2000.19,1416.25 2001.21,1416.37 2002.24,1416.49 2003.26,1416.61 2004.28,1416.73 2005.3,1416.85 2006.32,1416.97 2007.35,1417.09 2008.37,1417.21 2009.39,1417.32 2010.41,1417.44 2011.43,1417.56 2012.45,1417.68 2013.48,1417.8 2014.5,1417.92 2015.52,1418.04 2016.54,1418.16 2017.56,1418.27 2018.59,1418.39 2019.61,1418.51 2020.63,1418.63 2021.65,1418.74 2022.67,1418.86 2023.7,1418.98 2024.72,1419.1 2025.74,1419.21 2026.76,1419.33 2027.78,1419.45 2028.81,1419.56 2029.83,1419.68 2030.85,1419.8 2031.87,1419.91 2032.89,1420.03 2033.92,1420.14 2034.94,1420.26 2035.96,1420.38 2036.98,1420.49 2038,1420.61 2039.02,1420.72 2040.05,1420.84 2041.07,1420.95 2042.09,1421.07 2043.11,1421.18 2044.13,1421.3 2045.16,1421.41 2046.18,1421.53 2047.2,1421.64 2048.22,1421.76 2049.24,1421.87 2050.27,1421.98 2051.29,1422.1 2052.31,1422.21 2053.33,1422.32 2054.35,1422.44 2055.38,1422.55 2056.4,1422.66 2057.42,1422.78 2058.44,1422.89 2059.46,1423 2060.49,1423.12 2061.51,1423.23 2062.53,1423.34 2063.55,1423.45 2064.57,1423.57 2065.59,1423.68 2066.62,1423.79 2067.64,1423.9 2068.66,1424.01 2069.68,1424.12 2070.7,1424.24 2071.73,1424.35 2072.75,1424.46 2073.77,1424.57 2074.79,1424.68 2075.81,1424.79 2076.84,1424.9 2077.86,1425.01 2078.88,1425.12 2079.9,1425.23 2080.92,1425.34 2081.95,1425.45 2082.97,1425.56 2083.99,1425.67 2085.01,1425.78 2086.03,1425.89 2087.06,1426 2088.08,1426.11 2089.1,1426.22 2090.12,1426.33 2091.14,1426.44 2092.16,1426.55 2093.19,1426.66 2094.21,1426.76 2095.23,1426.87 2096.25,1426.98 2097.27,1427.09 2098.3,1427.2 2099.32,1427.31 2100.34,1427.41 2101.36,1427.52 2102.38,1427.63 2103.41,1427.74 2104.43,1427.85 2105.45,1427.95 2106.47,1428.06 2107.49,1428.17 2108.52,1428.27 2109.54,1428.38 2110.56,1428.49 2111.58,1428.59 2112.6,1428.7 2113.63,1428.81 2114.65,1428.91 2115.67,1429.02 2116.69,1429.13 2117.71,1429.23 2118.73,1429.34 2119.76,1429.44 2120.78,1429.55 2121.8,1429.65 2122.82,1429.76 2123.84,1429.87 2124.87,1429.97 2125.89,1430.08 2126.91,1430.18 2127.93,1430.29 2128.95,1430.39 2129.98,1430.49 2131,1430.6 2132.02,1430.7 2133.04,1430.81 2134.06,1430.91 2135.09,1431.02 2136.11,1431.12 2137.13,1431.22 2138.15,1431.33 2139.17,1431.43 2140.2,1431.53 2141.22,1431.64 2142.24,1431.74 2143.26,1431.84 2144.28,1431.95 2145.31,1432.05 2146.33,1432.15 2147.35,1432.26 2148.37,1432.36 2149.39,1432.46 2150.41,1432.56 2151.44,1432.67 2152.46,1432.77 2153.48,1432.87 2154.5,1432.97 2155.52,1433.07 2156.55,1433.18 2157.57,1433.28 2158.59,1433.38 2159.61,1433.48 2160.63,1433.58 2161.66,1433.68 2162.68,1433.78 2163.7,1433.88 2164.72,1433.99 2165.74,1434.09 2166.77,1434.19 2167.79,1434.29 2168.81,1434.39 2169.83,1434.49 2170.85,1434.59 2171.88,1434.69 2172.9,1434.79 2173.92,1434.89 2174.94,1434.99 2175.96,1435.09 2176.98,1435.19 2178.01,1435.29 2179.03,1435.39 2180.05,1435.49 2181.07,1435.59 2182.09,1435.68 2183.12,1435.78 2184.14,1435.88 2185.16,1435.98 2186.18,1436.08 2187.2,1436.18 2188.23,1436.28 2189.25,1436.38 2190.27,1436.47 2191.29,1436.57 2192.31,1436.67 2193.34,1436.77 2194.36,1436.87 2195.38,1436.96 2196.4,1437.06 2197.42,1437.16 2198.45,1437.26 2199.47,1437.35 2200.49,1437.45 2201.51,1437.55 2202.53,1437.64 2203.55,1437.74 2204.58,1437.84 2205.6,1437.94 2206.62,1438.03 2207.64,1438.13 2208.66,1438.22 2209.69,1438.32 2210.71,1438.42 2211.73,1438.51 2212.75,1438.61 2213.77,1438.71 2214.8,1438.8 2215.82,1438.9 2216.84,1438.99 2217.86,1439.09 2218.88,1439.18 2219.91,1439.28 2220.93,1439.37 2221.95,1439.47 2222.97,1439.56 2223.99,1439.66 2225.02,1439.75 2226.04,1439.85 2227.06,1439.94 2228.08,1440.04 2229.1,1440.13 2230.12,1440.23 2231.15,1440.32 2232.17,1440.42 2233.19,1440.51 2234.21,1440.6 2235.23,1440.7 2236.26,1440.79 2237.28,1440.88 2238.3,1440.98 2239.32,1441.07 2240.34,1441.17 2241.37,1441.26 2242.39,1441.35 2243.41,1441.44 2244.43,1441.54 2245.45,1441.63 2246.48,1441.72 2247.5,1441.82 2248.52,1441.91 2249.54,1442 2250.56,1442.09 2251.59,1442.19 2252.61,1442.28 2253.63,1442.37 2254.65,1442.46 2255.67,1442.55 2256.69,1442.65 2257.72,1442.74 2258.74,1442.83 2259.76,1442.92 2260.78,1443.01 2261.8,1443.1 2262.83,1443.2 2263.85,1443.29 2264.87,1443.38 2265.89,1443.47 2266.91,1443.56 2267.94,1443.65 2268.96,1443.74 2269.98,1443.83 2271,1443.92 2272.02,1444.01 2273.05,1444.1 2274.07,1444.19 2275.09,1444.28 2276.11,1444.37 2277.13,1444.46 2278.16,1444.55 2279.18,1444.64 2280.2,1444.73 2281.22,1444.82 2282.24,1444.91 2283.26,1445 2284.29,1445.09 2285.31,1445.18 2286.33,1445.27 2287.35,1445.36 2288.37,1445.45 2289.4,1445.54 2290.42,1445.63 2291.44,1445.72 "/>
<path clip-path="url(#clip500)" d="M2011.46 198.898 L2280.54 198.898 L2280.54 95.2176 L2011.46 95.2176  Z" fill="#ffffff" fill-rule="evenodd" fill-opacity="1"/>
<polyline clip-path="url(#clip500)" style="stroke:#000000; stroke-linecap:round; stroke-linejoin:round; stroke-width:4; stroke-opacity:1; fill:none" points="2011.46,198.898 2280.54,198.898 2280.54,95.2176 2011.46,95.2176 2011.46,198.898 "/>
<polyline clip-path="url(#clip500)" style="stroke:#009af9; stroke-linecap:round; stroke-linejoin:round; stroke-width:4; stroke-opacity:1; fill:none" points="2035.53,147.058 2179.97,147.058 "/>
<path clip-path="url(#clip500)" d="M2217.88 166.745 Q2216.07 171.375 2214.36 172.787 Q2212.65 174.199 2209.78 174.199 L2206.38 174.199 L2206.38 170.634 L2208.88 170.634 Q2210.63 170.634 2211.61 169.8 Q2212.58 168.967 2213.76 165.865 L2214.52 163.921 L2204.04 138.412 L2208.55 138.412 L2216.65 158.689 L2224.76 138.412 L2229.27 138.412 L2217.88 166.745 Z" fill="#000000" fill-rule="nonzero" fill-opacity="1" /><path clip-path="url(#clip500)" d="M2236.56 160.402 L2244.2 160.402 L2244.2 134.037 L2235.89 135.703 L2235.89 131.444 L2244.15 129.778 L2248.83 129.778 L2248.83 160.402 L2256.47 160.402 L2256.47 164.338 L2236.56 164.338 L2236.56 160.402 Z" fill="#000000" fill-rule="nonzero" fill-opacity="1" /></svg>
