<?xml version="1.0" encoding="utf-8"?>
<svg xmlns="http://www.w3.org/2000/svg" xmlns:xlink="http://www.w3.org/1999/xlink" width="600" height="400" viewBox="0 0 2400 1600">
<defs>
  <clipPath id="clip370">
    <rect x="0" y="0" width="2400" height="1600"/>
  </clipPath>
</defs>
<path clip-path="url(#clip370)" d="M0 1600 L2400 1600 L2400 0 L0 0  Z" fill="#ffffff" fill-rule="evenodd" fill-opacity="1"/>
<defs>
  <clipPath id="clip371">
    <rect x="480" y="0" width="1681" height="1600"/>
  </clipPath>
</defs>
<path clip-path="url(#clip370)" d="M194.422 1486.45 L2352.76 1486.45 L2352.76 47.2441 L194.422 47.2441  Z" fill="#ffffff" fill-rule="evenodd" fill-opacity="1"/>
<defs>
  <clipPath id="clip372">
    <rect x="194" y="47" width="2159" height="1440"/>
  </clipPath>
</defs>
<polyline clip-path="url(#clip372)" style="stroke:#000000; stroke-linecap:round; stroke-linejoin:round; stroke-width:2; stroke-opacity:0.1; fill:none" points="255.507,1486.45 255.507,47.2441 "/>
<polyline clip-path="url(#clip372)" style="stroke:#000000; stroke-linecap:round; stroke-linejoin:round; stroke-width:2; stroke-opacity:0.1; fill:none" points="764.548,1486.45 764.548,47.2441 "/>
<polyline clip-path="url(#clip372)" style="stroke:#000000; stroke-linecap:round; stroke-linejoin:round; stroke-width:2; stroke-opacity:0.1; fill:none" points="1273.59,1486.45 1273.59,47.2441 "/>
<polyline clip-path="url(#clip372)" style="stroke:#000000; stroke-linecap:round; stroke-linejoin:round; stroke-width:2; stroke-opacity:0.1; fill:none" points="1782.63,1486.45 1782.63,47.2441 "/>
<polyline clip-path="url(#clip372)" style="stroke:#000000; stroke-linecap:round; stroke-linejoin:round; stroke-width:2; stroke-opacity:0.1; fill:none" points="2291.67,1486.45 2291.67,47.2441 "/>
<polyline clip-path="url(#clip370)" style="stroke:#000000; stroke-linecap:round; stroke-linejoin:round; stroke-width:4; stroke-opacity:1; fill:none" points="194.422,1486.45 2352.76,1486.45 "/>
<polyline clip-path="url(#clip370)" style="stroke:#000000; stroke-linecap:round; stroke-linejoin:round; stroke-width:4; stroke-opacity:1; fill:none" points="255.507,1486.45 255.507,1467.55 "/>
<polyline clip-path="url(#clip370)" style="stroke:#000000; stroke-linecap:round; stroke-linejoin:round; stroke-width:4; stroke-opacity:1; fill:none" points="764.548,1486.45 764.548,1467.55 "/>
<polyline clip-path="url(#clip370)" style="stroke:#000000; stroke-linecap:round; stroke-linejoin:round; stroke-width:4; stroke-opacity:1; fill:none" points="1273.59,1486.45 1273.59,1467.55 "/>
<polyline clip-path="url(#clip370)" style="stroke:#000000; stroke-linecap:round; stroke-linejoin:round; stroke-width:4; stroke-opacity:1; fill:none" points="1782.63,1486.45 1782.63,1467.55 "/>
<polyline clip-path="url(#clip370)" style="stroke:#000000; stroke-linecap:round; stroke-linejoin:round; stroke-width:4; stroke-opacity:1; fill:none" points="2291.67,1486.45 2291.67,1467.55 "/>
<path clip-path="url(#clip370)" d="M255.507 1517.37 Q251.896 1517.37 250.067 1520.93 Q248.262 1524.47 248.262 1531.6 Q248.262 1538.71 250.067 1542.27 Q251.896 1545.82 255.507 1545.82 Q259.141 1545.82 260.947 1542.27 Q262.776 1538.71 262.776 1531.6 Q262.776 1524.47 260.947 1520.93 Q259.141 1517.37 255.507 1517.37 M255.507 1513.66 Q261.317 1513.66 264.373 1518.27 Q267.451 1522.85 267.451 1531.6 Q267.451 1540.33 264.373 1544.94 Q261.317 1549.52 255.507 1549.52 Q249.697 1549.52 246.618 1544.94 Q243.563 1540.33 243.563 1531.6 Q243.563 1522.85 246.618 1518.27 Q249.697 1513.66 255.507 1513.66 Z" fill="#000000" fill-rule="nonzero" fill-opacity="1" /><path clip-path="url(#clip370)" d="M724.166 1514.29 L742.523 1514.29 L742.523 1518.22 L728.449 1518.22 L728.449 1526.7 Q729.467 1526.35 730.486 1526.19 Q731.504 1526 732.523 1526 Q738.31 1526 741.689 1529.17 Q745.069 1532.34 745.069 1537.76 Q745.069 1543.34 741.597 1546.44 Q738.125 1549.52 731.805 1549.52 Q729.629 1549.52 727.361 1549.15 Q725.115 1548.78 722.708 1548.04 L722.708 1543.34 Q724.791 1544.47 727.013 1545.03 Q729.236 1545.58 731.713 1545.58 Q735.717 1545.58 738.055 1543.48 Q740.393 1541.37 740.393 1537.76 Q740.393 1534.15 738.055 1532.04 Q735.717 1529.94 731.713 1529.94 Q729.838 1529.94 727.963 1530.35 Q726.111 1530.77 724.166 1531.65 L724.166 1514.29 Z" fill="#000000" fill-rule="nonzero" fill-opacity="1" /><path clip-path="url(#clip370)" d="M764.282 1517.37 Q760.671 1517.37 758.842 1520.93 Q757.036 1524.47 757.036 1531.6 Q757.036 1538.71 758.842 1542.27 Q760.671 1545.82 764.282 1545.82 Q767.916 1545.82 769.722 1542.27 Q771.55 1538.71 771.55 1531.6 Q771.55 1524.47 769.722 1520.93 Q767.916 1517.37 764.282 1517.37 M764.282 1513.66 Q770.092 1513.66 773.148 1518.27 Q776.226 1522.85 776.226 1531.6 Q776.226 1540.33 773.148 1544.94 Q770.092 1549.52 764.282 1549.52 Q758.472 1549.52 755.393 1544.94 Q752.337 1540.33 752.337 1531.6 Q752.337 1522.85 755.393 1518.27 Q758.472 1513.66 764.282 1513.66 Z" fill="#000000" fill-rule="nonzero" fill-opacity="1" /><path clip-path="url(#clip370)" d="M794.444 1517.37 Q790.833 1517.37 789.004 1520.93 Q787.198 1524.47 787.198 1531.6 Q787.198 1538.71 789.004 1542.27 Q790.833 1545.82 794.444 1545.82 Q798.078 1545.82 799.883 1542.27 Q801.712 1538.71 801.712 1531.6 Q801.712 1524.47 799.883 1520.93 Q798.078 1517.37 794.444 1517.37 M794.444 1513.66 Q800.254 1513.66 803.309 1518.27 Q806.388 1522.85 806.388 1531.6 Q806.388 1540.33 803.309 1544.94 Q800.254 1549.52 794.444 1549.52 Q788.634 1549.52 785.555 1544.94 Q782.499 1540.33 782.499 1531.6 Q782.499 1522.85 785.555 1518.27 Q788.634 1513.66 794.444 1513.66 Z" fill="#000000" fill-rule="nonzero" fill-opacity="1" /><path clip-path="url(#clip370)" d="M1218.11 1544.91 L1225.75 1544.91 L1225.75 1518.55 L1217.44 1520.21 L1217.44 1515.95 L1225.71 1514.29 L1230.38 1514.29 L1230.38 1544.91 L1238.02 1544.91 L1238.02 1548.85 L1218.11 1548.85 L1218.11 1544.91 Z" fill="#000000" fill-rule="nonzero" fill-opacity="1" /><path clip-path="url(#clip370)" d="M1257.47 1517.37 Q1253.86 1517.37 1252.03 1520.93 Q1250.22 1524.47 1250.22 1531.6 Q1250.22 1538.71 1252.03 1542.27 Q1253.86 1545.82 1257.47 1545.82 Q1261.1 1545.82 1262.91 1542.27 Q1264.73 1538.71 1264.73 1531.6 Q1264.73 1524.47 1262.91 1520.93 Q1261.1 1517.37 1257.47 1517.37 M1257.47 1513.66 Q1263.28 1513.66 1266.33 1518.27 Q1269.41 1522.85 1269.41 1531.6 Q1269.41 1540.33 1266.33 1544.94 Q1263.28 1549.52 1257.47 1549.52 Q1251.66 1549.52 1248.58 1544.94 Q1245.52 1540.33 1245.52 1531.6 Q1245.52 1522.85 1248.58 1518.27 Q1251.66 1513.66 1257.47 1513.66 Z" fill="#000000" fill-rule="nonzero" fill-opacity="1" /><path clip-path="url(#clip370)" d="M1287.63 1517.37 Q1284.02 1517.37 1282.19 1520.93 Q1280.38 1524.47 1280.38 1531.6 Q1280.38 1538.71 1282.19 1542.27 Q1284.02 1545.82 1287.63 1545.82 Q1291.26 1545.82 1293.07 1542.27 Q1294.9 1538.71 1294.9 1531.6 Q1294.9 1524.47 1293.07 1520.93 Q1291.26 1517.37 1287.63 1517.37 M1287.63 1513.66 Q1293.44 1513.66 1296.49 1518.27 Q1299.57 1522.85 1299.57 1531.6 Q1299.57 1540.33 1296.49 1544.94 Q1293.44 1549.52 1287.63 1549.52 Q1281.82 1549.52 1278.74 1544.94 Q1275.68 1540.33 1275.68 1531.6 Q1275.68 1522.85 1278.74 1518.27 Q1281.82 1513.66 1287.63 1513.66 Z" fill="#000000" fill-rule="nonzero" fill-opacity="1" /><path clip-path="url(#clip370)" d="M1317.79 1517.37 Q1314.18 1517.37 1312.35 1520.93 Q1310.54 1524.47 1310.54 1531.6 Q1310.54 1538.71 1312.35 1542.27 Q1314.18 1545.82 1317.79 1545.82 Q1321.42 1545.82 1323.23 1542.27 Q1325.06 1538.71 1325.06 1531.6 Q1325.06 1524.47 1323.23 1520.93 Q1321.42 1517.37 1317.79 1517.37 M1317.79 1513.66 Q1323.6 1513.66 1326.66 1518.27 Q1329.73 1522.85 1329.73 1531.6 Q1329.73 1540.33 1326.66 1544.94 Q1323.6 1549.52 1317.79 1549.52 Q1311.98 1549.52 1308.9 1544.94 Q1305.85 1540.33 1305.85 1531.6 Q1305.85 1522.85 1308.9 1518.27 Q1311.98 1513.66 1317.79 1513.66 Z" fill="#000000" fill-rule="nonzero" fill-opacity="1" /><path clip-path="url(#clip370)" d="M1727.16 1544.91 L1734.79 1544.91 L1734.79 1518.55 L1726.48 1520.21 L1726.48 1515.95 L1734.75 1514.29 L1739.42 1514.29 L1739.42 1544.91 L1747.06 1544.91 L1747.06 1548.85 L1727.16 1548.85 L1727.16 1544.91 Z" fill="#000000" fill-rule="nonzero" fill-opacity="1" /><path clip-path="url(#clip370)" d="M1756.55 1514.29 L1774.91 1514.29 L1774.91 1518.22 L1760.84 1518.22 L1760.84 1526.7 Q1761.85 1526.35 1762.87 1526.19 Q1763.89 1526 1764.91 1526 Q1770.7 1526 1774.08 1529.17 Q1777.46 1532.34 1777.46 1537.76 Q1777.46 1543.34 1773.98 1546.44 Q1770.51 1549.52 1764.19 1549.52 Q1762.02 1549.52 1759.75 1549.15 Q1757.5 1548.78 1755.1 1548.04 L1755.1 1543.34 Q1757.18 1544.47 1759.4 1545.03 Q1761.62 1545.58 1764.1 1545.58 Q1768.1 1545.58 1770.44 1543.48 Q1772.78 1541.37 1772.78 1537.76 Q1772.78 1534.15 1770.44 1532.04 Q1768.1 1529.94 1764.1 1529.94 Q1762.23 1529.94 1760.35 1530.35 Q1758.5 1530.77 1756.55 1531.65 L1756.55 1514.29 Z" fill="#000000" fill-rule="nonzero" fill-opacity="1" /><path clip-path="url(#clip370)" d="M1796.67 1517.37 Q1793.06 1517.37 1791.23 1520.93 Q1789.42 1524.47 1789.42 1531.6 Q1789.42 1538.71 1791.23 1542.27 Q1793.06 1545.82 1796.67 1545.82 Q1800.3 1545.82 1802.11 1542.27 Q1803.94 1538.71 1803.94 1531.6 Q1803.94 1524.47 1802.11 1520.93 Q1800.3 1517.37 1796.67 1517.37 M1796.67 1513.66 Q1802.48 1513.66 1805.53 1518.27 Q1808.61 1522.85 1808.61 1531.6 Q1808.61 1540.33 1805.53 1544.94 Q1802.48 1549.52 1796.67 1549.52 Q1790.86 1549.52 1787.78 1544.94 Q1784.72 1540.33 1784.72 1531.6 Q1784.72 1522.85 1787.78 1518.27 Q1790.86 1513.66 1796.67 1513.66 Z" fill="#000000" fill-rule="nonzero" fill-opacity="1" /><path clip-path="url(#clip370)" d="M1826.83 1517.37 Q1823.22 1517.37 1821.39 1520.93 Q1819.59 1524.47 1819.59 1531.6 Q1819.59 1538.71 1821.39 1542.27 Q1823.22 1545.82 1826.83 1545.82 Q1830.47 1545.82 1832.27 1542.27 Q1834.1 1538.71 1834.1 1531.6 Q1834.1 1524.47 1832.27 1520.93 Q1830.47 1517.37 1826.83 1517.37 M1826.83 1513.66 Q1832.64 1513.66 1835.7 1518.27 Q1838.78 1522.85 1838.78 1531.6 Q1838.78 1540.33 1835.7 1544.94 Q1832.64 1549.52 1826.83 1549.52 Q1821.02 1549.52 1817.94 1544.94 Q1814.89 1540.33 1814.89 1531.6 Q1814.89 1522.85 1817.94 1518.27 Q1821.02 1513.66 1826.83 1513.66 Z" fill="#000000" fill-rule="nonzero" fill-opacity="1" /><path clip-path="url(#clip370)" d="M2240.28 1544.91 L2256.6 1544.91 L2256.6 1548.85 L2234.66 1548.85 L2234.66 1544.91 Q2237.32 1542.16 2241.9 1537.53 Q2246.51 1532.88 2247.69 1531.53 Q2249.94 1529.01 2250.81 1527.27 Q2251.72 1525.51 2251.72 1523.82 Q2251.72 1521.07 2249.77 1519.33 Q2247.85 1517.6 2244.75 1517.6 Q2242.55 1517.6 2240.1 1518.36 Q2237.67 1519.13 2234.89 1520.68 L2234.89 1515.95 Q2237.71 1514.82 2240.17 1514.24 Q2242.62 1513.66 2244.66 1513.66 Q2250.03 1513.66 2253.22 1516.35 Q2256.42 1519.03 2256.42 1523.52 Q2256.42 1525.65 2255.61 1527.57 Q2254.82 1529.47 2252.71 1532.07 Q2252.13 1532.74 2249.03 1535.95 Q2245.93 1539.15 2240.28 1544.91 Z" fill="#000000" fill-rule="nonzero" fill-opacity="1" /><path clip-path="url(#clip370)" d="M2276.42 1517.37 Q2272.81 1517.37 2270.98 1520.93 Q2269.17 1524.47 2269.17 1531.6 Q2269.17 1538.71 2270.98 1542.27 Q2272.81 1545.82 2276.42 1545.82 Q2280.05 1545.82 2281.86 1542.27 Q2283.68 1538.71 2283.68 1531.6 Q2283.68 1524.47 2281.86 1520.93 Q2280.05 1517.37 2276.42 1517.37 M2276.42 1513.66 Q2282.23 1513.66 2285.28 1518.27 Q2288.36 1522.85 2288.36 1531.6 Q2288.36 1540.33 2285.28 1544.94 Q2282.23 1549.52 2276.42 1549.52 Q2270.61 1549.52 2267.53 1544.94 Q2264.47 1540.33 2264.47 1531.6 Q2264.47 1522.85 2267.53 1518.27 Q2270.61 1513.66 2276.42 1513.66 Z" fill="#000000" fill-rule="nonzero" fill-opacity="1" /><path clip-path="url(#clip370)" d="M2306.58 1517.37 Q2302.97 1517.37 2301.14 1520.93 Q2299.33 1524.47 2299.33 1531.6 Q2299.33 1538.71 2301.14 1542.27 Q2302.97 1545.82 2306.58 1545.82 Q2310.21 1545.82 2312.02 1542.27 Q2313.85 1538.71 2313.85 1531.6 Q2313.85 1524.47 2312.02 1520.93 Q2310.21 1517.37 2306.58 1517.37 M2306.58 1513.66 Q2312.39 1513.66 2315.44 1518.27 Q2318.52 1522.85 2318.52 1531.6 Q2318.52 1540.33 2315.44 1544.94 Q2312.39 1549.52 2306.58 1549.52 Q2300.77 1549.52 2297.69 1544.94 Q2294.63 1540.33 2294.63 1531.6 Q2294.63 1522.85 2297.69 1518.27 Q2300.77 1513.66 2306.58 1513.66 Z" fill="#000000" fill-rule="nonzero" fill-opacity="1" /><path clip-path="url(#clip370)" d="M2336.74 1517.37 Q2333.13 1517.37 2331.3 1520.93 Q2329.49 1524.47 2329.49 1531.6 Q2329.49 1538.71 2331.3 1542.27 Q2333.13 1545.82 2336.74 1545.82 Q2340.37 1545.82 2342.18 1542.27 Q2344.01 1538.71 2344.01 1531.6 Q2344.01 1524.47 2342.18 1520.93 Q2340.37 1517.37 2336.74 1517.37 M2336.74 1513.66 Q2342.55 1513.66 2345.61 1518.27 Q2348.68 1522.85 2348.68 1531.6 Q2348.68 1540.33 2345.61 1544.94 Q2342.55 1549.52 2336.74 1549.52 Q2330.93 1549.52 2327.85 1544.94 Q2324.8 1540.33 2324.8 1531.6 Q2324.8 1522.85 2327.85 1518.27 Q2330.93 1513.66 2336.74 1513.66 Z" fill="#000000" fill-rule="nonzero" fill-opacity="1" /><polyline clip-path="url(#clip372)" style="stroke:#000000; stroke-linecap:round; stroke-linejoin:round; stroke-width:2; stroke-opacity:0.1; fill:none" points="194.422,1337.85 2352.76,1337.85 "/>
<polyline clip-path="url(#clip372)" style="stroke:#000000; stroke-linecap:round; stroke-linejoin:round; stroke-width:2; stroke-opacity:0.1; fill:none" points="194.422,1066.31 2352.76,1066.31 "/>
<polyline clip-path="url(#clip372)" style="stroke:#000000; stroke-linecap:round; stroke-linejoin:round; stroke-width:2; stroke-opacity:0.1; fill:none" points="194.422,794.759 2352.76,794.759 "/>
<polyline clip-path="url(#clip372)" style="stroke:#000000; stroke-linecap:round; stroke-linejoin:round; stroke-width:2; stroke-opacity:0.1; fill:none" points="194.422,523.211 2352.76,523.211 "/>
<polyline clip-path="url(#clip372)" style="stroke:#000000; stroke-linecap:round; stroke-linejoin:round; stroke-width:2; stroke-opacity:0.1; fill:none" points="194.422,251.663 2352.76,251.663 "/>
<polyline clip-path="url(#clip370)" style="stroke:#000000; stroke-linecap:round; stroke-linejoin:round; stroke-width:4; stroke-opacity:1; fill:none" points="194.422,1486.45 194.422,47.2441 "/>
<polyline clip-path="url(#clip370)" style="stroke:#000000; stroke-linecap:round; stroke-linejoin:round; stroke-width:4; stroke-opacity:1; fill:none" points="194.422,1337.85 213.32,1337.85 "/>
<polyline clip-path="url(#clip370)" style="stroke:#000000; stroke-linecap:round; stroke-linejoin:round; stroke-width:4; stroke-opacity:1; fill:none" points="194.422,1066.31 213.32,1066.31 "/>
<polyline clip-path="url(#clip370)" style="stroke:#000000; stroke-linecap:round; stroke-linejoin:round; stroke-width:4; stroke-opacity:1; fill:none" points="194.422,794.759 213.32,794.759 "/>
<polyline clip-path="url(#clip370)" style="stroke:#000000; stroke-linecap:round; stroke-linejoin:round; stroke-width:4; stroke-opacity:1; fill:none" points="194.422,523.211 213.32,523.211 "/>
<polyline clip-path="url(#clip370)" style="stroke:#000000; stroke-linecap:round; stroke-linejoin:round; stroke-width:4; stroke-opacity:1; fill:none" points="194.422,251.663 213.32,251.663 "/>
<path clip-path="url(#clip370)" d="M51.4782 1338.31 L81.154 1338.31 L81.154 1342.24 L51.4782 1342.24 L51.4782 1338.31 Z" fill="#000000" fill-rule="nonzero" fill-opacity="1" /><path clip-path="url(#clip370)" d="M95.2743 1351.2 L111.594 1351.2 L111.594 1355.13 L89.6493 1355.13 L89.6493 1351.2 Q92.3113 1348.45 96.8947 1343.82 Q101.501 1339.16 102.682 1337.82 Q104.927 1335.3 105.807 1333.56 Q106.709 1331.8 106.709 1330.11 Q106.709 1327.36 104.765 1325.62 Q102.844 1323.88 99.7419 1323.88 Q97.5428 1323.88 95.0891 1324.65 Q92.6586 1325.41 89.8808 1326.96 L89.8808 1322.24 Q92.7049 1321.11 95.1586 1320.53 Q97.6122 1319.95 99.6493 1319.95 Q105.02 1319.95 108.214 1322.63 Q111.408 1325.32 111.408 1329.81 Q111.408 1331.94 110.598 1333.86 Q109.811 1335.76 107.705 1338.35 Q107.126 1339.02 104.024 1342.24 Q100.922 1345.44 95.2743 1351.2 Z" fill="#000000" fill-rule="nonzero" fill-opacity="1" /><path clip-path="url(#clip370)" d="M121.408 1349.26 L126.293 1349.26 L126.293 1355.13 L121.408 1355.13 L121.408 1349.26 Z" fill="#000000" fill-rule="nonzero" fill-opacity="1" /><path clip-path="url(#clip370)" d="M146.478 1323.65 Q142.867 1323.65 141.038 1327.22 Q139.232 1330.76 139.232 1337.89 Q139.232 1345 141.038 1348.56 Q142.867 1352.1 146.478 1352.1 Q150.112 1352.1 151.918 1348.56 Q153.746 1345 153.746 1337.89 Q153.746 1330.76 151.918 1327.22 Q150.112 1323.65 146.478 1323.65 M146.478 1319.95 Q152.288 1319.95 155.343 1324.56 Q158.422 1329.14 158.422 1337.89 Q158.422 1346.62 155.343 1351.22 Q152.288 1355.81 146.478 1355.81 Q140.668 1355.81 137.589 1351.22 Q134.533 1346.62 134.533 1337.89 Q134.533 1329.14 137.589 1324.56 Q140.668 1319.95 146.478 1319.95 Z" fill="#000000" fill-rule="nonzero" fill-opacity="1" /><path clip-path="url(#clip370)" d="M51.5708 1066.76 L81.2466 1066.76 L81.2466 1070.69 L51.5708 1070.69 L51.5708 1066.76 Z" fill="#000000" fill-rule="nonzero" fill-opacity="1" /><path clip-path="url(#clip370)" d="M92.1493 1079.65 L99.7882 1079.65 L99.7882 1053.29 L91.478 1054.95 L91.478 1050.69 L99.7419 1049.03 L104.418 1049.03 L104.418 1079.65 L112.057 1079.65 L112.057 1083.59 L92.1493 1083.59 L92.1493 1079.65 Z" fill="#000000" fill-rule="nonzero" fill-opacity="1" /><path clip-path="url(#clip370)" d="M121.501 1077.71 L126.385 1077.71 L126.385 1083.59 L121.501 1083.59 L121.501 1077.71 Z" fill="#000000" fill-rule="nonzero" fill-opacity="1" /><path clip-path="url(#clip370)" d="M146.57 1067.17 Q143.237 1067.17 141.316 1068.96 Q139.418 1070.74 139.418 1073.86 Q139.418 1076.99 141.316 1078.77 Q143.237 1080.55 146.57 1080.55 Q149.904 1080.55 151.825 1078.77 Q153.746 1076.97 153.746 1073.86 Q153.746 1070.74 151.825 1068.96 Q149.927 1067.17 146.57 1067.17 M141.894 1065.18 Q138.885 1064.44 137.195 1062.38 Q135.529 1060.32 135.529 1057.36 Q135.529 1053.22 138.469 1050.81 Q141.431 1048.4 146.57 1048.4 Q151.732 1048.4 154.672 1050.81 Q157.612 1053.22 157.612 1057.36 Q157.612 1060.32 155.922 1062.38 Q154.255 1064.44 151.269 1065.18 Q154.649 1065.97 156.524 1068.26 Q158.422 1070.55 158.422 1073.86 Q158.422 1078.89 155.343 1081.57 Q152.288 1084.26 146.57 1084.26 Q140.853 1084.26 137.774 1081.57 Q134.719 1078.89 134.719 1073.86 Q134.719 1070.55 136.617 1068.26 Q138.515 1065.97 141.894 1065.18 M140.181 1057.8 Q140.181 1060.49 141.848 1061.99 Q143.538 1063.49 146.57 1063.49 Q149.58 1063.49 151.269 1061.99 Q152.982 1060.49 152.982 1057.8 Q152.982 1055.11 151.269 1053.61 Q149.58 1052.11 146.57 1052.11 Q143.538 1052.11 141.848 1053.61 Q140.181 1055.11 140.181 1057.8 Z" fill="#000000" fill-rule="nonzero" fill-opacity="1" /><path clip-path="url(#clip370)" d="M51.3162 795.21 L80.992 795.21 L80.992 799.146 L51.3162 799.146 L51.3162 795.21 Z" fill="#000000" fill-rule="nonzero" fill-opacity="1" /><path clip-path="url(#clip370)" d="M91.8947 808.104 L99.5335 808.104 L99.5335 781.738 L91.2234 783.405 L91.2234 779.146 L99.4872 777.479 L104.163 777.479 L104.163 808.104 L111.802 808.104 L111.802 812.039 L91.8947 812.039 L91.8947 808.104 Z" fill="#000000" fill-rule="nonzero" fill-opacity="1" /><path clip-path="url(#clip370)" d="M121.246 806.159 L126.131 806.159 L126.131 812.039 L121.246 812.039 L121.246 806.159 Z" fill="#000000" fill-rule="nonzero" fill-opacity="1" /><path clip-path="url(#clip370)" d="M146.894 792.896 Q143.746 792.896 141.894 795.048 Q140.066 797.201 140.066 800.951 Q140.066 804.678 141.894 806.854 Q143.746 809.007 146.894 809.007 Q150.043 809.007 151.871 806.854 Q153.723 804.678 153.723 800.951 Q153.723 797.201 151.871 795.048 Q150.043 792.896 146.894 792.896 M156.177 778.243 L156.177 782.502 Q154.417 781.669 152.612 781.229 Q150.83 780.789 149.07 780.789 Q144.441 780.789 141.987 783.914 Q139.556 787.039 139.209 793.359 Q140.575 791.345 142.635 790.28 Q144.695 789.192 147.172 789.192 Q152.38 789.192 155.39 792.363 Q158.422 795.511 158.422 800.951 Q158.422 806.275 155.274 809.493 Q152.126 812.71 146.894 812.71 Q140.899 812.71 137.728 808.127 Q134.556 803.521 134.556 794.794 Q134.556 786.599 138.445 781.738 Q142.334 776.854 148.885 776.854 Q150.644 776.854 152.427 777.201 Q154.232 777.548 156.177 778.243 Z" fill="#000000" fill-rule="nonzero" fill-opacity="1" /><path clip-path="url(#clip370)" d="M50.9921 523.663 L80.6679 523.663 L80.6679 527.598 L50.9921 527.598 L50.9921 523.663 Z" fill="#000000" fill-rule="nonzero" fill-opacity="1" /><path clip-path="url(#clip370)" d="M91.5706 536.556 L99.2095 536.556 L99.2095 510.19 L90.8993 511.857 L90.8993 507.598 L99.1632 505.931 L103.839 505.931 L103.839 536.556 L111.478 536.556 L111.478 540.491 L91.5706 540.491 L91.5706 536.556 Z" fill="#000000" fill-rule="nonzero" fill-opacity="1" /><path clip-path="url(#clip370)" d="M120.922 534.612 L125.807 534.612 L125.807 540.491 L120.922 540.491 L120.922 534.612 Z" fill="#000000" fill-rule="nonzero" fill-opacity="1" /><path clip-path="url(#clip370)" d="M148.839 510.005 L137.033 528.454 L148.839 528.454 L148.839 510.005 M147.612 505.931 L153.492 505.931 L153.492 528.454 L158.422 528.454 L158.422 532.343 L153.492 532.343 L153.492 540.491 L148.839 540.491 L148.839 532.343 L133.237 532.343 L133.237 527.829 L147.612 505.931 Z" fill="#000000" fill-rule="nonzero" fill-opacity="1" /><path clip-path="url(#clip370)" d="M53.0754 252.115 L82.7512 252.115 L82.7512 256.05 L53.0754 256.05 L53.0754 252.115 Z" fill="#000000" fill-rule="nonzero" fill-opacity="1" /><path clip-path="url(#clip370)" d="M93.6539 265.008 L101.293 265.008 L101.293 238.642 L92.9826 240.309 L92.9826 236.05 L101.246 234.383 L105.922 234.383 L105.922 265.008 L113.561 265.008 L113.561 268.943 L93.6539 268.943 L93.6539 265.008 Z" fill="#000000" fill-rule="nonzero" fill-opacity="1" /><path clip-path="url(#clip370)" d="M123.006 263.064 L127.89 263.064 L127.89 268.943 L123.006 268.943 L123.006 263.064 Z" fill="#000000" fill-rule="nonzero" fill-opacity="1" /><path clip-path="url(#clip370)" d="M142.103 265.008 L158.422 265.008 L158.422 268.943 L136.478 268.943 L136.478 265.008 Q139.14 262.253 143.723 257.624 Q148.33 252.971 149.51 251.629 Q151.755 249.105 152.635 247.369 Q153.538 245.61 153.538 243.92 Q153.538 241.166 151.593 239.43 Q149.672 237.693 146.57 237.693 Q144.371 237.693 141.918 238.457 Q139.487 239.221 136.709 240.772 L136.709 236.05 Q139.533 234.916 141.987 234.337 Q144.441 233.758 146.478 233.758 Q151.848 233.758 155.042 236.443 Q158.237 239.129 158.237 243.619 Q158.237 245.749 157.427 247.67 Q156.64 249.568 154.533 252.161 Q153.955 252.832 150.853 256.05 Q147.751 259.244 142.103 265.008 Z" fill="#000000" fill-rule="nonzero" fill-opacity="1" /><polyline clip-path="url(#clip372)" style="stroke:#009af9; stroke-linecap:round; stroke-linejoin:round; stroke-width:4; stroke-opacity:1; fill:none" points="255.507,1445.72 256.525,1445.72 257.543,1445.72 258.561,1445.72 259.579,1445.72 260.597,1445.72 261.616,1445.72 262.634,1445.72 263.652,1445.72 264.67,1445.72 265.688,1445.72 266.706,1445.72 267.724,1445.72 268.742,1445.72 269.76,1445.72 270.778,1445.72 271.796,1445.72 272.814,1445.72 273.833,1445.72 274.851,1445.72 275.869,1445.72 276.887,1445.72 277.905,1445.72 278.923,1445.72 279.941,1445.72 280.959,1445.72 281.977,1445.72 282.995,1445.72 284.013,1445.72 285.031,1445.72 286.049,1445.72 287.068,1445.72 288.086,1445.72 289.104,1445.72 290.122,1445.72 291.14,1445.72 292.158,1445.72 293.176,1445.72 294.194,1445.72 295.212,1445.72 296.23,1445.72 297.248,1445.72 298.266,1445.72 299.285,1445.72 300.303,1445.72 301.321,1445.72 302.339,1445.72 303.357,1445.72 304.375,1445.72 305.393,1445.72 306.411,1445.72 307.429,1445.72 308.447,1445.72 309.465,1445.72 310.483,1445.72 311.502,1445.72 312.52,1445.72 313.538,1445.72 314.556,1445.72 315.574,1445.72 316.592,1445.72 317.61,1445.72 318.628,1445.72 319.646,1445.72 320.664,1445.72 321.682,1445.72 322.7,1445.72 323.719,1445.72 324.737,1445.72 325.755,1445.72 326.773,1445.72 327.791,1445.72 328.809,1445.72 329.827,1445.72 330.845,1445.72 331.863,1445.72 332.881,1445.72 333.899,1445.72 334.917,1445.72 335.936,1445.72 336.954,1445.72 337.972,1445.72 338.99,1445.72 340.008,1445.72 341.026,1445.72 342.044,1445.72 343.062,1445.72 344.08,1445.72 345.098,1445.72 346.116,1445.72 347.134,1445.72 348.152,1445.72 349.171,1445.72 350.189,1445.72 351.207,1445.72 352.225,1445.72 353.243,1445.72 354.261,1445.72 355.279,1445.72 356.297,1445.72 357.315,1445.72 358.333,1445.72 359.351,1445.72 360.369,1445.72 361.388,1445.72 362.406,1445.72 363.424,1445.72 364.442,1445.72 365.46,1445.72 366.478,1445.72 367.496,1445.72 368.514,1445.72 369.532,1445.72 370.55,1445.72 371.568,1445.72 372.586,1445.72 373.605,1445.72 374.623,1445.72 375.641,1445.72 376.659,1445.72 377.677,1445.72 378.695,1445.72 379.713,1445.72 380.731,1445.72 381.749,1445.72 382.767,1445.72 383.785,1445.72 384.803,1445.72 385.822,1445.72 386.84,1445.72 387.858,1445.72 388.876,1445.72 389.894,1445.72 390.912,1445.72 391.93,1445.72 392.948,1445.72 393.966,1445.72 394.984,1445.72 396.002,1445.72 397.02,1445.72 398.039,1445.72 399.057,1445.72 400.075,1445.72 401.093,1445.72 402.111,1445.72 403.129,1445.72 404.147,1445.72 405.165,1445.72 406.183,1445.72 407.201,1445.72 408.219,1445.72 409.237,1445.72 410.255,1445.72 411.274,1445.72 412.292,1445.72 413.31,1445.72 414.328,1445.72 415.346,1445.72 416.364,1445.72 417.382,1445.72 418.4,1445.72 419.418,1445.72 420.436,1445.72 421.454,1445.72 422.472,1445.72 423.491,1445.72 424.509,1445.72 425.527,1445.72 426.545,1445.72 427.563,1445.72 428.581,1445.72 429.599,1445.72 430.617,1445.72 431.635,1445.72 432.653,1445.72 433.671,1445.72 434.689,1445.72 435.708,1445.72 436.726,1445.72 437.744,1445.72 438.762,1445.72 439.78,1445.72 440.798,1445.72 441.816,1445.72 442.834,1445.72 443.852,1445.72 444.87,1445.72 445.888,1445.72 446.906,1445.72 447.925,1445.72 448.943,1445.72 449.961,1445.72 450.979,1445.72 451.997,1445.72 453.015,1445.72 454.033,1445.72 455.051,1445.72 456.069,1445.72 457.087,1445.72 458.105,1445.72 459.123,1445.72 460.142,1445.72 461.16,1445.72 462.178,1445.72 463.196,1445.72 464.214,1445.72 465.232,1445.72 466.25,1445.72 467.268,1445.72 468.286,1445.72 469.304,1445.72 470.322,1445.72 471.34,1445.72 472.358,1445.72 473.377,1445.72 474.395,1445.72 475.413,1445.72 476.431,1445.72 477.449,1445.72 478.467,1445.72 479.485,1445.72 480.503,1445.72 481.521,1445.72 482.539,1445.72 483.557,1445.72 484.575,1445.72 485.594,1445.72 486.612,1445.72 487.63,1445.72 488.648,1445.72 489.666,1445.72 490.684,1445.72 491.702,1445.72 492.72,1445.72 493.738,1445.72 494.756,1445.72 495.774,1445.72 496.792,1445.72 497.811,1445.72 498.829,1445.72 499.847,1445.72 500.865,1445.72 501.883,1445.72 502.901,1445.72 503.919,1445.72 504.937,1445.72 505.955,1445.72 506.973,1445.72 507.991,1445.72 509.009,1445.72 510.028,1445.72 511.046,1445.72 512.064,1445.72 513.082,1445.72 514.1,1445.72 515.118,1445.72 516.136,1445.72 517.154,1445.72 518.172,1445.72 519.19,1445.72 520.208,1445.72 521.226,1445.72 522.245,1445.72 523.263,1445.72 524.281,1445.72 525.299,1445.72 526.317,1445.72 527.335,1445.72 528.353,1445.72 529.371,1445.72 530.389,1445.72 531.407,1445.72 532.425,1445.72 533.443,1445.72 534.461,1445.72 535.48,1445.72 536.498,1445.72 537.516,1445.72 538.534,1445.72 539.552,1445.72 540.57,1445.72 541.588,1445.72 542.606,1445.72 543.624,1445.72 544.642,1445.72 545.66,1445.72 546.678,1445.72 547.697,1445.72 548.715,1445.72 549.733,1445.72 550.751,1445.72 551.769,1445.72 552.787,1445.72 553.805,1445.72 554.823,1445.72 555.841,1445.72 556.859,1445.72 557.877,1445.72 558.895,1445.72 559.914,1445.72 560.932,1445.72 561.95,1445.72 562.968,1445.72 563.986,1445.72 565.004,1445.72 566.022,1445.72 567.04,1445.72 568.058,1445.72 569.076,1445.72 570.094,1445.72 571.112,1445.72 572.131,1445.72 573.149,1445.72 574.167,1445.72 575.185,1445.72 576.203,1445.72 577.221,1445.72 578.239,1445.72 579.257,1445.72 580.275,1445.72 581.293,1445.72 582.311,1445.72 583.329,1445.72 584.348,1445.72 585.366,1445.72 586.384,1445.72 587.402,1445.72 588.42,1445.72 589.438,1445.72 590.456,1445.72 591.474,1445.72 592.492,1445.72 593.51,1445.72 594.528,1445.72 595.546,1445.72 596.564,1445.72 597.583,1445.72 598.601,1445.72 599.619,1445.72 600.637,1445.72 601.655,1445.72 602.673,1445.72 603.691,1445.72 604.709,1445.72 605.727,1445.72 606.745,1445.72 607.763,1445.72 608.781,1445.72 609.8,1445.72 610.818,1445.72 611.836,1445.72 612.854,1445.72 613.872,1445.72 614.89,1445.72 615.908,1445.72 616.926,1445.72 617.944,1445.72 618.962,1445.72 619.98,1445.72 620.998,1445.72 622.017,1445.72 623.035,1445.72 624.053,1445.72 625.071,1445.72 626.089,1445.72 627.107,1445.72 628.125,1445.72 629.143,1445.72 630.161,1445.72 631.179,1445.72 632.197,1445.72 633.215,1445.72 634.234,1445.72 635.252,1445.72 636.27,1445.72 637.288,1445.72 638.306,1445.72 639.324,1445.72 640.342,1445.72 641.36,1445.72 642.378,1445.72 643.396,1445.72 644.414,1445.72 645.432,1445.72 646.451,1445.72 647.469,1445.72 648.487,1445.72 649.505,1445.72 650.523,1445.72 651.541,1445.72 652.559,1445.72 653.577,1445.72 654.595,1445.72 655.613,1445.72 656.631,1445.72 657.649,1445.72 658.667,1445.72 659.686,1445.72 660.704,1445.72 661.722,1445.72 662.74,1445.72 663.758,1445.72 664.776,1445.72 665.794,1445.72 666.812,1445.72 667.83,1445.72 668.848,1445.72 669.866,1445.72 670.884,1445.72 671.903,1445.72 672.921,1445.72 673.939,1445.72 674.957,1445.72 675.975,1445.72 676.993,1445.72 678.011,1445.72 679.029,1445.72 680.047,1445.72 681.065,1445.72 682.083,1445.72 683.101,1445.72 684.12,1445.72 685.138,1445.72 686.156,1445.72 687.174,1445.72 688.192,1445.72 689.21,1445.72 690.228,1445.72 691.246,1445.72 692.264,1445.72 693.282,1445.72 694.3,1445.72 695.318,1445.72 696.337,1445.72 697.355,1445.72 698.373,1445.72 699.391,1445.72 700.409,1445.72 701.427,1445.72 702.445,1445.72 703.463,1445.72 704.481,1445.72 705.499,1445.72 706.517,1445.72 707.535,1445.72 708.554,1445.72 709.572,1445.72 710.59,1445.72 711.608,1445.72 712.626,1445.72 713.644,1445.72 714.662,1445.72 715.68,1445.72 716.698,1445.72 717.716,1445.72 718.734,1445.72 719.752,1445.72 720.77,1445.72 721.789,1445.72 722.807,1445.72 723.825,1445.72 724.843,1445.72 725.861,1445.72 726.879,1445.72 727.897,1445.72 728.915,1445.72 729.933,1445.72 730.951,1445.72 731.969,1445.72 732.987,1445.72 734.006,1445.72 735.024,1445.72 736.042,1445.72 737.06,1445.72 738.078,1445.72 739.096,1445.72 740.114,1445.72 741.132,1445.72 742.15,1445.72 743.168,1445.72 744.186,1445.72 745.204,1445.72 746.223,1445.72 747.241,1445.72 748.259,1445.72 749.277,1445.72 750.295,1445.72 751.313,1445.72 752.331,1445.72 753.349,1445.72 754.367,1445.72 755.385,1445.72 756.403,1445.72 757.421,1445.72 758.44,1445.72 759.458,1445.72 760.476,1445.72 761.494,1445.72 762.512,1445.72 763.53,1445.72 764.548,1445.72 765.566,1445.72 766.584,1445.72 767.602,1445.72 768.62,1445.72 769.638,1445.72 770.657,1445.72 771.675,1445.72 772.693,1445.72 773.711,1445.72 774.729,1445.72 775.747,1445.72 776.765,1445.72 777.783,1445.72 778.801,1445.72 779.819,1445.72 780.837,1445.72 781.855,1445.72 782.873,1445.72 783.892,1445.72 784.91,1445.72 785.928,1445.72 786.946,1445.72 787.964,1445.72 788.982,1445.72 790,1445.72 791.018,1445.72 792.036,1445.72 793.054,1445.72 794.072,1445.72 795.09,1445.72 796.109,1445.72 797.127,1445.72 798.145,1445.72 799.163,1445.72 800.181,1445.72 801.199,1445.72 802.217,1445.72 803.235,1445.72 804.253,1445.72 805.271,1445.72 806.289,1445.72 807.307,1445.72 808.326,1445.72 809.344,1445.72 810.362,1445.72 811.38,1445.72 812.398,1445.72 813.416,1445.72 814.434,1445.72 815.452,1445.72 816.47,1445.72 817.488,1445.72 818.506,1445.72 819.524,1445.72 820.543,1445.72 821.561,1445.72 822.579,1445.72 823.597,1445.72 824.615,1445.72 825.633,1445.72 826.651,1445.72 827.669,1445.72 828.687,1445.72 829.705,1445.72 830.723,1445.72 831.741,1445.72 832.76,1445.72 833.778,1445.72 834.796,1445.72 835.814,1445.72 836.832,1445.72 837.85,1445.72 838.868,1445.72 839.886,1445.72 840.904,1445.72 841.922,1445.72 842.94,1445.72 843.958,1445.72 844.976,1445.72 845.995,1445.72 847.013,1445.72 848.031,1445.72 849.049,1445.72 850.067,1445.72 851.085,1445.72 852.103,1445.72 853.121,1445.72 854.139,1445.72 855.157,1445.72 856.175,1445.72 857.193,1445.72 858.212,1445.72 859.23,1445.72 860.248,1445.72 861.266,1445.72 862.284,1445.72 863.302,1445.72 864.32,1445.72 865.338,1445.72 866.356,1445.72 867.374,1445.72 868.392,1445.72 869.41,1445.72 870.429,1445.72 871.447,1445.72 872.465,1445.72 873.483,1445.72 874.501,1445.72 875.519,1445.72 876.537,1445.72 877.555,1445.72 878.573,1445.72 879.591,1445.72 880.609,1445.72 881.627,1445.72 882.646,1445.72 883.664,1445.72 884.682,1445.72 885.7,1445.72 886.718,1445.72 887.736,1445.72 888.754,1445.72 889.772,1445.72 890.79,1445.72 891.808,1445.72 892.826,1445.72 893.844,1445.72 894.863,1445.72 895.881,1445.72 896.899,1445.72 897.917,1445.72 898.935,1445.72 899.953,1445.72 900.971,1445.72 901.989,1445.72 903.007,1445.72 904.025,1445.72 905.043,1445.72 906.061,1445.72 907.079,1445.72 908.098,1445.72 909.116,1445.72 910.134,1445.72 911.152,1445.72 912.17,1445.72 913.188,1445.72 914.206,1445.72 915.224,1445.72 916.242,1445.72 917.26,1445.72 918.278,1445.72 919.296,1445.72 920.315,1445.72 921.333,1445.72 922.351,1445.72 923.369,1445.72 924.387,1445.72 925.405,1445.72 926.423,1445.72 927.441,1445.72 928.459,1445.72 929.477,1445.72 930.495,1445.72 931.513,1445.72 932.532,1445.72 933.55,1445.72 934.568,1445.72 935.586,1445.72 936.604,1445.72 937.622,1445.72 938.64,1445.72 939.658,1445.72 940.676,1445.72 941.694,1445.72 942.712,1445.72 943.73,1445.72 944.749,1445.72 945.767,1445.72 946.785,1445.72 947.803,1445.72 948.821,1445.72 949.839,1445.72 950.857,1445.72 951.875,1445.72 952.893,1445.72 953.911,1445.72 954.929,1445.72 955.947,1445.72 956.966,1445.72 957.984,1445.72 959.002,1445.72 960.02,1445.72 961.038,1445.72 962.056,1445.72 963.074,1445.72 964.092,1445.72 965.11,1445.72 966.128,1445.72 967.146,1445.72 968.164,1445.72 969.182,1445.72 970.201,1445.72 971.219,1445.72 972.237,1445.72 973.255,1445.72 974.273,1445.72 975.291,1445.72 976.309,1445.72 977.327,1445.72 978.345,1445.72 979.363,1445.72 980.381,1445.72 981.399,1445.72 982.418,1445.72 983.436,1445.72 984.454,1445.72 985.472,1445.72 986.49,1445.72 987.508,1445.72 988.526,1445.72 989.544,1445.72 990.562,1445.72 991.58,1445.72 992.598,1445.72 993.616,1445.72 994.635,1445.72 995.653,1445.72 996.671,1445.72 997.689,1445.72 998.707,1445.72 999.725,1445.72 1000.74,1445.72 1001.76,1445.72 1002.78,1445.72 1003.8,1445.72 1004.82,1445.72 1005.83,1445.72 1006.85,1445.72 1007.87,1445.72 1008.89,1445.72 1009.91,1445.72 1010.92,1445.72 1011.94,1445.72 1012.96,1445.72 1013.98,1445.72 1015,1445.72 1016.01,1445.72 1017.03,1445.72 1018.05,1445.72 1019.07,1445.72 1020.09,1445.72 1021.1,1445.72 1022.12,1445.72 1023.14,1445.72 1024.16,1445.72 1025.18,1445.72 1026.2,1445.72 1027.21,1445.72 1028.23,1445.72 1029.25,1445.72 1030.27,1445.72 1031.29,1445.72 1032.3,1445.72 1033.32,1445.72 1034.34,1445.72 1035.36,1445.72 1036.38,1445.72 1037.39,1445.72 1038.41,1445.72 1039.43,1445.72 1040.45,1445.72 1041.47,1445.72 1042.48,1445.72 1043.5,1445.72 1044.52,1445.72 1045.54,1445.72 1046.56,1445.72 1047.57,1445.72 1048.59,1445.72 1049.61,1445.72 1050.63,1445.72 1051.65,1445.72 1052.67,1445.72 1053.68,1445.72 1054.7,1445.72 1055.72,1445.72 1056.74,1445.72 1057.76,1445.72 1058.77,1445.72 1059.79,1445.72 1060.81,1445.72 1061.83,1445.72 1062.85,1445.72 1063.86,1445.72 1064.88,1445.72 1065.9,1445.72 1066.92,1445.72 1067.94,1445.72 1068.95,1445.72 1069.97,1445.72 1070.99,1445.72 1072.01,1445.72 1073.03,1445.72 1074.04,1445.72 1075.06,1445.72 1076.08,1445.72 1077.1,1445.72 1078.12,1445.72 1079.14,1445.72 1080.15,1445.72 1081.17,1445.72 1082.19,1445.72 1083.21,1445.72 1084.23,1445.72 1085.24,1445.72 1086.26,1445.72 1087.28,1445.72 1088.3,1445.72 1089.32,1445.72 1090.33,1445.72 1091.35,1445.72 1092.37,1445.72 1093.39,1445.72 1094.41,1445.72 1095.42,1445.72 1096.44,1445.72 1097.46,1445.72 1098.48,1445.72 1099.5,1445.72 1100.52,1445.72 1101.53,1445.72 1102.55,1445.72 1103.57,1445.72 1104.59,1445.72 1105.61,1445.72 1106.62,1445.72 1107.64,1445.72 1108.66,1445.72 1109.68,1445.72 1110.7,1445.72 1111.71,1445.72 1112.73,1445.72 1113.75,1445.72 1114.77,1445.72 1115.79,1445.72 1116.8,1445.72 1117.82,1445.72 1118.84,1445.72 1119.86,1445.72 1120.88,1445.72 1121.89,1445.72 1122.91,1445.72 1123.93,1445.72 1124.95,1445.72 1125.97,1445.72 1126.99,1445.72 1128,1445.72 1129.02,1445.72 1130.04,1445.72 1131.06,1445.72 1132.08,1445.72 1133.09,1445.72 1134.11,1445.72 1135.13,1445.72 1136.15,1445.72 1137.17,1445.72 1138.18,1445.72 1139.2,1445.72 1140.22,1445.72 1141.24,1445.72 1142.26,1445.72 1143.27,1445.72 1144.29,1445.72 1145.31,1445.72 1146.33,1445.72 1147.35,1445.72 1148.36,1445.72 1149.38,1445.72 1150.4,1445.72 1151.42,1445.72 1152.44,1445.72 1153.46,1445.72 1154.47,1445.72 1155.49,1445.72 1156.51,1445.72 1157.53,1445.72 1158.55,1445.72 1159.56,1445.72 1160.58,1445.72 1161.6,1445.72 1162.62,1445.72 1163.64,1445.72 1164.65,1445.72 1165.67,1445.72 1166.69,1445.72 1167.71,1445.72 1168.73,1445.72 1169.74,1445.72 1170.76,1445.72 1171.78,1445.72 1172.8,1445.72 1173.82,1445.72 1174.84,1445.72 1175.85,1445.72 1176.87,1445.72 1177.89,1445.72 1178.91,1445.72 1179.93,1445.72 1180.94,1445.72 1181.96,1445.72 1182.98,1445.72 1184,1445.72 1185.02,1445.72 1186.03,1445.72 1187.05,1445.72 1188.07,1445.72 1189.09,1445.72 1190.11,1445.72 1191.12,1445.72 1192.14,1445.72 1193.16,1445.72 1194.18,1445.72 1195.2,1445.72 1196.21,1445.72 1197.23,1445.72 1198.25,1445.72 1199.27,1445.72 1200.29,1445.72 1201.31,1445.72 1202.32,1445.72 1203.34,1445.72 1204.36,1445.72 1205.38,1445.72 1206.4,1445.72 1207.41,1445.72 1208.43,1445.72 1209.45,1445.72 1210.47,1445.72 1211.49,1445.72 1212.5,1445.72 1213.52,1445.72 1214.54,1445.72 1215.56,1445.72 1216.58,1445.72 1217.59,1445.72 1218.61,1445.72 1219.63,1445.72 1220.65,1445.72 1221.67,1445.72 1222.68,1445.72 1223.7,1445.72 1224.72,1445.72 1225.74,1445.72 1226.76,1445.72 1227.78,1445.72 1228.79,1445.72 1229.81,1445.72 1230.83,1445.72 1231.85,1445.72 1232.87,1445.72 1233.88,1445.72 1234.9,1445.72 1235.92,1445.72 1236.94,1445.72 1237.96,1445.72 1238.97,1445.72 1239.99,1445.72 1241.01,1445.72 1242.03,1445.72 1243.05,1445.72 1244.06,1445.72 1245.08,1445.72 1246.1,1445.72 1247.12,1445.72 1248.14,1445.72 1249.16,1445.72 1250.17,1445.72 1251.19,1445.72 1252.21,1445.72 1253.23,1445.72 1254.25,1445.72 1255.26,1445.72 1256.28,1445.72 1257.3,1445.72 1258.32,1445.72 1259.34,1445.72 1260.35,1445.72 1261.37,1445.72 1262.39,1445.72 1263.41,1445.72 1264.43,1445.72 1265.44,1445.72 1266.46,1445.72 1267.48,1445.72 1268.5,1445.72 1269.52,1445.72 1270.53,1445.72 1271.55,1445.72 1272.57,1445.72 1273.59,1445.72 1274.61,1445.72 1275.63,1445.72 1276.64,1445.72 1277.66,1445.72 1278.68,1445.72 1279.7,1445.72 1280.72,1445.72 1281.73,1445.72 1282.75,1445.72 1283.77,1445.72 1284.79,1445.72 1285.81,1445.72 1286.82,1445.72 1287.84,1445.72 1288.86,1445.72 1289.88,1445.72 1290.9,1445.72 1291.91,1445.72 1292.93,1445.72 1293.95,1445.72 1294.97,1445.72 1295.99,1445.72 1297,1445.72 1298.02,1445.72 1299.04,1445.72 1300.06,1445.72 1301.08,1445.72 1302.1,1445.72 1303.11,1445.72 1304.13,1445.72 1305.15,1445.72 1306.17,1445.72 1307.19,1445.72 1308.2,1445.72 1309.22,1445.72 1310.24,1445.72 1311.26,1445.72 1312.28,1445.72 1313.29,1445.72 1314.31,1445.72 1315.33,1445.72 1316.35,1445.72 1317.37,1445.72 1318.38,1445.72 1319.4,1445.72 1320.42,1445.72 1321.44,1445.72 1322.46,1445.72 1323.48,1445.72 1324.49,1445.72 1325.51,1445.72 1326.53,1445.72 1327.55,1445.72 1328.57,1445.72 1329.58,1445.72 1330.6,1445.72 1331.62,1445.72 1332.64,1445.72 1333.66,1445.72 1334.67,1445.72 1335.69,1445.72 1336.71,1445.72 1337.73,1445.72 1338.75,1445.72 1339.76,1445.72 1340.78,1445.72 1341.8,1445.72 1342.82,1445.72 1343.84,1445.72 1344.85,1445.72 1345.87,1445.72 1346.89,1445.72 1347.91,1445.72 1348.93,1445.72 1349.95,1445.72 1350.96,1445.72 1351.98,1445.72 1353,1445.72 1354.02,1445.72 1355.04,1445.72 1356.05,1445.72 1357.07,1445.72 1358.09,1445.72 1359.11,1445.72 1360.13,1445.72 1361.14,1445.72 1362.16,1445.72 1363.18,1445.72 1364.2,1445.72 1365.22,1445.72 1366.23,1445.72 1367.25,1445.72 1368.27,1445.72 1369.29,1445.72 1370.31,1445.72 1371.32,1445.72 1372.34,1445.72 1373.36,1445.72 1374.38,1445.72 1375.4,1445.72 1376.42,1445.72 1377.43,1445.72 1378.45,1445.72 1379.47,1445.72 1380.49,1445.72 1381.51,1445.72 1382.52,1445.72 1383.54,1445.72 1384.56,1445.72 1385.58,1445.72 1386.6,1445.72 1387.61,1445.72 1388.63,1445.72 1389.65,1445.72 1390.67,1445.72 1391.69,1445.72 1392.7,1445.72 1393.72,1445.72 1394.74,1445.72 1395.76,1445.72 1396.78,1445.72 1397.8,1445.72 1398.81,1445.72 1399.83,1445.72 1400.85,1445.72 1401.87,1445.72 1402.89,1445.72 1403.9,1445.72 1404.92,1445.72 1405.94,1445.72 1406.96,1445.72 1407.98,1445.72 1408.99,1445.72 1410.01,1445.72 1411.03,1445.72 1412.05,1445.72 1413.07,1445.72 1414.08,1445.72 1415.1,1445.72 1416.12,1445.72 1417.14,1445.72 1418.16,1445.72 1419.17,1445.72 1420.19,1445.72 1421.21,1445.72 1422.23,1445.72 1423.25,1445.72 1424.27,1445.72 1425.28,1445.72 1426.3,1445.72 1427.32,1445.72 1428.34,1445.72 1429.36,1445.72 1430.37,1445.72 1431.39,1445.72 1432.41,1445.72 1433.43,1445.72 1434.45,1445.72 1435.46,1445.72 1436.48,1445.72 1437.5,1445.72 1438.52,1445.72 1439.54,1445.72 1440.55,1445.72 1441.57,1445.72 1442.59,1445.72 1443.61,1445.72 1444.63,1445.72 1445.64,1445.72 1446.66,1445.72 1447.68,1445.72 1448.7,1445.72 1449.72,1445.72 1450.74,1445.72 1451.75,1445.72 1452.77,1445.72 1453.79,1445.72 1454.81,1445.72 1455.83,1445.72 1456.84,1445.72 1457.86,1445.72 1458.88,1445.72 1459.9,1445.72 1460.92,1445.72 1461.93,1445.72 1462.95,1445.72 1463.97,1445.72 1464.99,1445.72 1466.01,1445.72 1467.02,1445.72 1468.04,1445.72 1469.06,1445.72 1470.08,1445.72 1471.1,1445.72 1472.11,1445.72 1473.13,1445.72 1474.15,1445.72 1475.17,1445.72 1476.19,1445.72 1477.21,1445.72 1478.22,1445.72 1479.24,1445.72 1480.26,1445.72 1481.28,1445.72 1482.3,1445.72 1483.31,1445.72 1484.33,1445.72 1485.35,1445.72 1486.37,1445.72 1487.39,1445.72 1488.4,1445.72 1489.42,1445.72 1490.44,1445.72 1491.46,1445.72 1492.48,1445.72 1493.49,1445.72 1494.51,1445.72 1495.53,1445.72 1496.55,1445.72 1497.57,1445.72 1498.59,1445.72 1499.6,1445.72 1500.62,1445.72 1501.64,1445.72 1502.66,1445.72 1503.68,1445.72 1504.69,1445.72 1505.71,1445.72 1506.73,1445.72 1507.75,1445.72 1508.77,1445.72 1509.78,1445.72 1510.8,1445.72 1511.82,1445.72 1512.84,1445.72 1513.86,1445.72 1514.87,1445.72 1515.89,1445.72 1516.91,1445.72 1517.93,1445.72 1518.95,1445.72 1519.96,1445.72 1520.98,1445.72 1522,1445.72 1523.02,1445.72 1524.04,1445.72 1525.06,1445.72 1526.07,1445.72 1527.09,1445.72 1528.11,1445.72 1529.13,1445.72 1530.15,1445.72 1531.16,1445.72 1532.18,1445.72 1533.2,1445.72 1534.22,1445.72 1535.24,1445.72 1536.25,1445.72 1537.27,1445.72 1538.29,1445.72 1539.31,1445.72 1540.33,1445.72 1541.34,1445.72 1542.36,1445.72 1543.38,1445.72 1544.4,1445.72 1545.42,1445.72 1546.43,1445.72 1547.45,1445.72 1548.47,1445.72 1549.49,1445.72 1550.51,1445.72 1551.53,1445.72 1552.54,1445.72 1553.56,1445.72 1554.58,1445.72 1555.6,1445.72 1556.62,1445.72 1557.63,1445.72 1558.65,1445.72 1559.67,1445.72 1560.69,1445.72 1561.71,1445.72 1562.72,1445.72 1563.74,1445.72 1564.76,1445.72 1565.78,1445.72 1566.8,1445.72 1567.81,1445.72 1568.83,1445.72 1569.85,1445.72 1570.87,1445.72 1571.89,1445.72 1572.91,1445.72 1573.92,1445.72 1574.94,1445.72 1575.96,1445.72 1576.98,1445.72 1578,1445.72 1579.01,1445.72 1580.03,1445.72 1581.05,1445.72 1582.07,1445.72 1583.09,1445.72 1584.1,1445.72 1585.12,1445.72 1586.14,1445.72 1587.16,1445.72 1588.18,1445.72 1589.19,1445.72 1590.21,1445.72 1591.23,1445.72 1592.25,1445.72 1593.27,1445.72 1594.28,1445.72 1595.3,1445.72 1596.32,1445.72 1597.34,1445.72 1598.36,1445.72 1599.38,1445.72 1600.39,1445.72 1601.41,1445.72 1602.43,1445.72 1603.45,1445.72 1604.47,1445.72 1605.48,1445.72 1606.5,1445.72 1607.52,1445.72 1608.54,1445.72 1609.56,1445.72 1610.57,1445.72 1611.59,1445.72 1612.61,1445.72 1613.63,1445.72 1614.65,1445.72 1615.66,1445.72 1616.68,1445.72 1617.7,1445.72 1618.72,1445.72 1619.74,1445.72 1620.75,1445.72 1621.77,1445.72 1622.79,1445.72 1623.81,1445.72 1624.83,1445.72 1625.85,1445.72 1626.86,1445.72 1627.88,1445.72 1628.9,1445.72 1629.92,1445.72 1630.94,1445.72 1631.95,1445.72 1632.97,1445.72 1633.99,1445.72 1635.01,1445.72 1636.03,1445.72 1637.04,1445.72 1638.06,1445.72 1639.08,1445.72 1640.1,1445.72 1641.12,1445.72 1642.13,1445.72 1643.15,1445.72 1644.17,1445.72 1645.19,1445.72 1646.21,1445.72 1647.23,1445.72 1648.24,1445.72 1649.26,1445.72 1650.28,1445.72 1651.3,1445.72 1652.32,1445.72 1653.33,1445.72 1654.35,1445.72 1655.37,1445.72 1656.39,1445.72 1657.41,1445.72 1658.42,1445.72 1659.44,1445.72 1660.46,1445.72 1661.48,1445.72 1662.5,1445.72 1663.51,1445.72 1664.53,1445.72 1665.55,1445.72 1666.57,1445.72 1667.59,1445.72 1668.6,1445.72 1669.62,1445.72 1670.64,1445.72 1671.66,1445.72 1672.68,1445.72 1673.7,1445.72 1674.71,1445.72 1675.73,1445.72 1676.75,1445.72 1677.77,1445.72 1678.79,1445.72 1679.8,1445.72 1680.82,1445.72 1681.84,1445.72 1682.86,1445.72 1683.88,1445.72 1684.89,1445.72 1685.91,1445.72 1686.93,1445.72 1687.95,1445.72 1688.97,1445.72 1689.98,1445.72 1691,1445.72 1692.02,1445.72 1693.04,1445.72 1694.06,1445.72 1695.07,1445.72 1696.09,1445.72 1697.11,1445.72 1698.13,1445.72 1699.15,1445.72 1700.17,1445.72 1701.18,1445.72 1702.2,1445.72 1703.22,1445.72 1704.24,1445.72 1705.26,1445.72 1706.27,1445.72 1707.29,1445.72 1708.31,1445.72 1709.33,1445.72 1710.35,1445.72 1711.36,1445.72 1712.38,1445.72 1713.4,1445.72 1714.42,1445.72 1715.44,1445.72 1716.45,1445.72 1717.47,1445.72 1718.49,1445.72 1719.51,1445.72 1720.53,1445.72 1721.55,1445.72 1722.56,1445.72 1723.58,1445.72 1724.6,1445.72 1725.62,1445.72 1726.64,1445.72 1727.65,1445.72 1728.67,1445.72 1729.69,1445.72 1730.71,1445.72 1731.73,1445.72 1732.74,1445.72 1733.76,1445.72 1734.78,1445.72 1735.8,1445.72 1736.82,1445.72 1737.83,1445.72 1738.85,1445.72 1739.87,1445.72 1740.89,1445.72 1741.91,1445.72 1742.92,1445.72 1743.94,1445.72 1744.96,1445.72 1745.98,1445.72 1747,1445.72 1748.02,1445.72 1749.03,1445.72 1750.05,1445.72 1751.07,1445.72 1752.09,1445.72 1753.11,1445.72 1754.12,1445.72 1755.14,1445.72 1756.16,1445.72 1757.18,1445.72 1758.2,1445.72 1759.21,1445.72 1760.23,1445.72 1761.25,1445.72 1762.27,1445.72 1763.29,1445.72 1764.3,1445.72 1765.32,1445.72 1766.34,1445.72 1767.36,1445.72 1768.38,1445.72 1769.39,1445.72 1770.41,1445.72 1771.43,1445.72 1772.45,1445.72 1773.47,1445.72 1774.49,1445.72 1775.5,1445.72 1776.52,1445.72 1777.54,1445.72 1778.56,1445.72 1779.58,1445.72 1780.59,1445.72 1781.61,1445.72 1782.63,1445.72 1783.65,1445.72 1784.67,1445.72 1785.68,1445.72 1786.7,1445.72 1787.72,1445.72 1788.74,1445.72 1789.76,1445.72 1790.77,1445.72 1791.79,1445.72 1792.81,1445.72 1793.83,1445.72 1794.85,1445.72 1795.87,1445.72 1796.88,1445.72 1797.9,1445.72 1798.92,1445.72 1799.94,1445.72 1800.96,1445.72 1801.97,1445.72 1802.99,1445.72 1804.01,1445.72 1805.03,1445.72 1806.05,1445.72 1807.06,1445.72 1808.08,1445.72 1809.1,1445.72 1810.12,1445.72 1811.14,1445.72 1812.15,1445.72 1813.17,1445.72 1814.19,1445.72 1815.21,1445.72 1816.23,1445.72 1817.24,1445.72 1818.26,1445.72 1819.28,1445.72 1820.3,1445.72 1821.32,1445.72 1822.34,1445.72 1823.35,1445.72 1824.37,1445.72 1825.39,1445.72 1826.41,1445.72 1827.43,1445.72 1828.44,1445.72 1829.46,1445.72 1830.48,1445.72 1831.5,1445.72 1832.52,1445.72 1833.53,1445.72 1834.55,1445.72 1835.57,1445.72 1836.59,1445.72 1837.61,1445.72 1838.62,1445.72 1839.64,1445.72 1840.66,1445.72 1841.68,1445.72 1842.7,1445.72 1843.71,1445.72 1844.73,1445.72 1845.75,1445.72 1846.77,1445.72 1847.79,1445.72 1848.81,1445.72 1849.82,1445.72 1850.84,1445.72 1851.86,1445.72 1852.88,1445.72 1853.9,1445.72 1854.91,1445.72 1855.93,1445.72 1856.95,1445.72 1857.97,1445.72 1858.99,1445.72 1860,1445.72 1861.02,1445.72 1862.04,1445.72 1863.06,1445.72 1864.08,1445.72 1865.09,1445.72 1866.11,1445.72 1867.13,1445.72 1868.15,1445.72 1869.17,1445.72 1870.19,1445.72 1871.2,1445.72 1872.22,1445.72 1873.24,1445.72 1874.26,1445.72 1875.28,1445.72 1876.29,1445.72 1877.31,1445.72 1878.33,1445.72 1879.35,1445.72 1880.37,1445.72 1881.38,1445.72 1882.4,1445.72 1883.42,1445.72 1884.44,1445.72 1885.46,1445.72 1886.47,1445.72 1887.49,1445.72 1888.51,1445.72 1889.53,1445.72 1890.55,1445.72 1891.56,1445.72 1892.58,1445.72 1893.6,1445.72 1894.62,1445.72 1895.64,1445.72 1896.66,1445.72 1897.67,1445.72 1898.69,1445.72 1899.71,1445.72 1900.73,1445.72 1901.75,1445.72 1902.76,1445.72 1903.78,1445.72 1904.8,1445.72 1905.82,1445.72 1906.84,1445.72 1907.85,1445.72 1908.87,1445.72 1909.89,1445.72 1910.91,1445.72 1911.93,1445.72 1912.94,1445.72 1913.96,1445.72 1914.98,1445.72 1916,1445.72 1917.02,1445.72 1918.03,1445.72 1919.05,1445.72 1920.07,1445.72 1921.09,1445.72 1922.11,1445.72 1923.13,1445.72 1924.14,1445.72 1925.16,1445.72 1926.18,1445.72 1927.2,1445.72 1928.22,1445.72 1929.23,1445.72 1930.25,1445.72 1931.27,1445.72 1932.29,1445.72 1933.31,1445.72 1934.32,1445.72 1935.34,1445.72 1936.36,1445.72 1937.38,1445.72 1938.4,1445.72 1939.41,1445.72 1940.43,1445.72 1941.45,1445.72 1942.47,1445.72 1943.49,1445.72 1944.51,1445.72 1945.52,1445.72 1946.54,1445.72 1947.56,1445.72 1948.58,1445.72 1949.6,1445.72 1950.61,1445.72 1951.63,1445.72 1952.65,1445.72 1953.67,1445.72 1954.69,1445.72 1955.7,1445.72 1956.72,1445.72 1957.74,1445.72 1958.76,1445.72 1959.78,1445.72 1960.79,1445.72 1961.81,1445.72 1962.83,1445.72 1963.85,1445.72 1964.87,1445.72 1965.88,1445.72 1966.9,1445.72 1967.92,1445.72 1968.94,1445.72 1969.96,1445.72 1970.98,1445.72 1971.99,1445.72 1973.01,1445.72 1974.03,1445.72 1975.05,1445.72 1976.07,1445.72 1977.08,1445.72 1978.1,1445.72 1979.12,1445.72 1980.14,1445.72 1981.16,1445.72 1982.17,1445.72 1983.19,1445.72 1984.21,1445.72 1985.23,1445.72 1986.25,1445.72 1987.26,1445.72 1988.28,1445.72 1989.3,1445.72 1990.32,1445.72 1991.34,1445.72 1992.35,1445.72 1993.37,1445.72 1994.39,1445.72 1995.41,1445.72 1996.43,1445.72 1997.45,1445.72 1998.46,1445.72 1999.48,1445.72 2000.5,1445.72 2001.52,1445.72 2002.54,1445.72 2003.55,1445.72 2004.57,1445.72 2005.59,1445.72 2006.61,1445.72 2007.63,1445.72 2008.64,1445.72 2009.66,1445.72 2010.68,1445.72 2011.7,1445.72 2012.72,1445.72 2013.73,1445.72 2014.75,1445.72 2015.77,1445.72 2016.79,1445.72 2017.81,1445.72 2018.83,1445.72 2019.84,1445.72 2020.86,1445.72 2021.88,1445.72 2022.9,1445.72 2023.92,1445.72 2024.93,1445.72 2025.95,1445.72 2026.97,1445.72 2027.99,1445.72 2029.01,1445.72 2030.02,1445.72 2031.04,1445.72 2032.06,1445.72 2033.08,1445.72 2034.1,1445.72 2035.11,1445.72 2036.13,1445.72 2037.15,1445.72 2038.17,1445.72 2039.19,1445.72 2040.2,1445.72 2041.22,1445.72 2042.24,1445.72 2043.26,1445.72 2044.28,1445.72 2045.3,1445.72 2046.31,1445.72 2047.33,1445.72 2048.35,1445.72 2049.37,1445.72 2050.39,1445.72 2051.4,1445.72 2052.42,1445.72 2053.44,1445.72 2054.46,1445.72 2055.48,1445.72 2056.49,1445.72 2057.51,1445.72 2058.53,1445.72 2059.55,1445.72 2060.57,1445.72 2061.58,1445.72 2062.6,1445.72 2063.62,1445.72 2064.64,1445.72 2065.66,1445.72 2066.67,1445.72 2067.69,1445.72 2068.71,1445.72 2069.73,1445.72 2070.75,1445.72 2071.77,1445.72 2072.78,1445.72 2073.8,1445.72 2074.82,1445.72 2075.84,1445.72 2076.86,1445.72 2077.87,1445.72 2078.89,1445.72 2079.91,1445.72 2080.93,1445.72 2081.95,1445.72 2082.96,1445.72 2083.98,1445.72 2085,1445.72 2086.02,1445.72 2087.04,1445.72 2088.05,1445.72 2089.07,1445.72 2090.09,1445.72 2091.11,1445.72 2092.13,1445.72 2093.15,1445.72 2094.16,1445.72 2095.18,1445.72 2096.2,1445.72 2097.22,1445.72 2098.24,1445.72 2099.25,1445.72 2100.27,1445.72 2101.29,1445.72 2102.31,1445.72 2103.33,1445.72 2104.34,1445.72 2105.36,1445.72 2106.38,1445.72 2107.4,1445.72 2108.42,1445.72 2109.43,1445.72 2110.45,1445.72 2111.47,1445.72 2112.49,1445.72 2113.51,1445.72 2114.52,1445.72 2115.54,1445.72 2116.56,1445.72 2117.58,1445.72 2118.6,1445.72 2119.62,1445.72 2120.63,1445.72 2121.65,1445.72 2122.67,1445.72 2123.69,1445.72 2124.71,1445.72 2125.72,1445.72 2126.74,1445.72 2127.76,1445.72 2128.78,1445.72 2129.8,1445.72 2130.81,1445.72 2131.83,1445.72 2132.85,1445.72 2133.87,1445.72 2134.89,1445.72 2135.9,1445.72 2136.92,1445.72 2137.94,1445.72 2138.96,1445.72 2139.98,1445.72 2140.99,1445.72 2142.01,1445.72 2143.03,1445.72 2144.05,1445.72 2145.07,1445.72 2146.09,1445.72 2147.1,1445.72 2148.12,1445.72 2149.14,1445.72 2150.16,1445.72 2151.18,1445.72 2152.19,1445.72 2153.21,1445.72 2154.23,1445.72 2155.25,1445.72 2156.27,1445.72 2157.28,1445.72 2158.3,1445.72 2159.32,1445.72 2160.34,1445.72 2161.36,1445.72 2162.37,1445.72 2163.39,1445.72 2164.41,1445.72 2165.43,1445.72 2166.45,1445.72 2167.46,1445.72 2168.48,1445.72 2169.5,1445.72 2170.52,1445.72 2171.54,1445.72 2172.56,1445.72 2173.57,1445.72 2174.59,1445.72 2175.61,1445.72 2176.63,1445.72 2177.65,1445.72 2178.66,1445.72 2179.68,1445.72 2180.7,1445.72 2181.72,1445.72 2182.74,1445.72 2183.75,1445.72 2184.77,1445.72 2185.79,1445.72 2186.81,1445.72 2187.83,1445.72 2188.84,1445.72 2189.86,1445.72 2190.88,1445.72 2191.9,1445.72 2192.92,1445.72 2193.94,1445.72 2194.95,1445.72 2195.97,1445.72 2196.99,1445.72 2198.01,1445.72 2199.03,1445.72 2200.04,1445.72 2201.06,1445.72 2202.08,1445.72 2203.1,1445.72 2204.12,1445.72 2205.13,1445.72 2206.15,1445.72 2207.17,1445.72 2208.19,1445.72 2209.21,1445.72 2210.22,1445.72 2211.24,1445.72 2212.26,1445.72 2213.28,1445.72 2214.3,1445.72 2215.31,1445.72 2216.33,1445.72 2217.35,1445.72 2218.37,1445.72 2219.39,1445.72 2220.41,1445.72 2221.42,1445.72 2222.44,1445.72 2223.46,1445.72 2224.48,1445.72 2225.5,1445.72 2226.51,1445.72 2227.53,1445.72 2228.55,1445.72 2229.57,1445.72 2230.59,1445.72 2231.6,1445.72 2232.62,1445.72 2233.64,1445.72 2234.66,1445.72 2235.68,1445.72 2236.69,1445.72 2237.71,1445.72 2238.73,1445.72 2239.75,1445.72 2240.77,1445.72 2241.78,1445.72 2242.8,1445.72 2243.82,1445.72 2244.84,1445.72 2245.86,1445.72 2246.88,1445.72 2247.89,1445.72 2248.91,1445.72 2249.93,1445.72 2250.95,1445.72 2251.97,1445.72 2252.98,1445.72 2254,1445.72 2255.02,1445.72 2256.04,1445.72 2257.06,1445.72 2258.07,1445.72 2259.09,1445.72 2260.11,1445.72 2261.13,1445.72 2262.15,1445.72 2263.16,1445.72 2264.18,1445.72 2265.2,1445.72 2266.22,1445.72 2267.24,1445.72 2268.26,1445.72 2269.27,1445.72 2270.29,1445.72 2271.31,1445.72 2272.33,1445.72 2273.35,1445.72 2274.36,1445.72 2275.38,1445.72 2276.4,1445.72 2277.42,1445.72 2278.44,1445.72 2279.45,1445.72 2280.47,1445.72 2281.49,1445.72 2282.51,1445.72 2283.53,1445.72 2284.54,1445.72 2285.56,1445.72 2286.58,1445.72 2287.6,1445.72 2288.62,1445.72 2289.63,1445.72 2290.65,1445.72 2291.67,1445.72 "/>
<path clip-path="url(#clip370)" d="M2012.55 198.898 L2280.81 198.898 L2280.81 95.2176 L2012.55 95.2176  Z" fill="#ffffff" fill-rule="evenodd" fill-opacity="1"/>
<polyline clip-path="url(#clip370)" style="stroke:#000000; stroke-linecap:round; stroke-linejoin:round; stroke-width:4; stroke-opacity:1; fill:none" points="2012.55,198.898 2280.81,198.898 2280.81,95.2176 2012.55,95.2176 2012.55,198.898 "/>
<polyline clip-path="url(#clip370)" style="stroke:#009af9; stroke-linecap:round; stroke-linejoin:round; stroke-width:4; stroke-opacity:1; fill:none" points="2036.53,147.058 2180.42,147.058 "/>
<path clip-path="url(#clip370)" d="M2218.24 166.745 Q2216.44 171.375 2214.72 172.787 Q2213.01 174.199 2210.14 174.199 L2206.74 174.199 L2206.74 170.634 L2209.24 170.634 Q2211 170.634 2211.97 169.8 Q2212.94 168.967 2214.12 165.865 L2214.89 163.921 L2204.4 138.412 L2208.91 138.412 L2217.02 158.689 L2225.12 138.412 L2229.63 138.412 L2218.24 166.745 Z" fill="#000000" fill-rule="nonzero" fill-opacity="1" /><path clip-path="url(#clip370)" d="M2236.92 160.402 L2244.56 160.402 L2244.56 134.037 L2236.25 135.703 L2236.25 131.444 L2244.52 129.778 L2249.19 129.778 L2249.19 160.402 L2256.83 160.402 L2256.83 164.338 L2236.92 164.338 L2236.92 160.402 Z" fill="#000000" fill-rule="nonzero" fill-opacity="1" /></svg>
