<?xml version="1.0" encoding="utf-8"?>
<svg xmlns="http://www.w3.org/2000/svg" xmlns:xlink="http://www.w3.org/1999/xlink" width="600" height="400" viewBox="0 0 2400 1600">
<defs>
  <clipPath id="clip780">
    <rect x="0" y="0" width="2400" height="1600"/>
  </clipPath>
</defs>
<path clip-path="url(#clip780)" d="M0 1600 L2400 1600 L2400 0 L0 0  Z" fill="#ffffff" fill-rule="evenodd" fill-opacity="1"/>
<defs>
  <clipPath id="clip781">
    <rect x="480" y="0" width="1681" height="1600"/>
  </clipPath>
</defs>
<path clip-path="url(#clip780)" d="M193.936 1486.45 L2352.76 1486.45 L2352.76 47.2441 L193.936 47.2441  Z" fill="#ffffff" fill-rule="evenodd" fill-opacity="1"/>
<defs>
  <clipPath id="clip782">
    <rect x="193" y="47" width="2160" height="1440"/>
  </clipPath>
</defs>
<polyline clip-path="url(#clip782)" style="stroke:#000000; stroke-linecap:round; stroke-linejoin:round; stroke-width:2; stroke-opacity:0.1; fill:none" points="255.035,1486.45 255.035,47.2441 "/>
<polyline clip-path="url(#clip782)" style="stroke:#000000; stroke-linecap:round; stroke-linejoin:round; stroke-width:2; stroke-opacity:0.1; fill:none" points="764.19,1486.45 764.19,47.2441 "/>
<polyline clip-path="url(#clip782)" style="stroke:#000000; stroke-linecap:round; stroke-linejoin:round; stroke-width:2; stroke-opacity:0.1; fill:none" points="1273.35,1486.45 1273.35,47.2441 "/>
<polyline clip-path="url(#clip782)" style="stroke:#000000; stroke-linecap:round; stroke-linejoin:round; stroke-width:2; stroke-opacity:0.1; fill:none" points="1782.5,1486.45 1782.5,47.2441 "/>
<polyline clip-path="url(#clip782)" style="stroke:#000000; stroke-linecap:round; stroke-linejoin:round; stroke-width:2; stroke-opacity:0.1; fill:none" points="2291.66,1486.45 2291.66,47.2441 "/>
<polyline clip-path="url(#clip780)" style="stroke:#000000; stroke-linecap:round; stroke-linejoin:round; stroke-width:4; stroke-opacity:1; fill:none" points="193.936,1486.45 2352.76,1486.45 "/>
<polyline clip-path="url(#clip780)" style="stroke:#000000; stroke-linecap:round; stroke-linejoin:round; stroke-width:4; stroke-opacity:1; fill:none" points="255.035,1486.45 255.035,1467.55 "/>
<polyline clip-path="url(#clip780)" style="stroke:#000000; stroke-linecap:round; stroke-linejoin:round; stroke-width:4; stroke-opacity:1; fill:none" points="764.19,1486.45 764.19,1467.55 "/>
<polyline clip-path="url(#clip780)" style="stroke:#000000; stroke-linecap:round; stroke-linejoin:round; stroke-width:4; stroke-opacity:1; fill:none" points="1273.35,1486.45 1273.35,1467.55 "/>
<polyline clip-path="url(#clip780)" style="stroke:#000000; stroke-linecap:round; stroke-linejoin:round; stroke-width:4; stroke-opacity:1; fill:none" points="1782.5,1486.45 1782.5,1467.55 "/>
<polyline clip-path="url(#clip780)" style="stroke:#000000; stroke-linecap:round; stroke-linejoin:round; stroke-width:4; stroke-opacity:1; fill:none" points="2291.66,1486.45 2291.66,1467.55 "/>
<path clip-path="url(#clip780)" d="M232.419 1517.37 Q228.808 1517.37 226.979 1520.93 Q225.174 1524.47 225.174 1531.6 Q225.174 1538.71 226.979 1542.27 Q228.808 1545.82 232.419 1545.82 Q236.053 1545.82 237.859 1542.27 Q239.688 1538.71 239.688 1531.6 Q239.688 1524.47 237.859 1520.93 Q236.053 1517.37 232.419 1517.37 M232.419 1513.66 Q238.229 1513.66 241.285 1518.27 Q244.363 1522.85 244.363 1531.6 Q244.363 1540.33 241.285 1544.94 Q238.229 1549.52 232.419 1549.52 Q226.609 1549.52 223.53 1544.94 Q220.475 1540.33 220.475 1531.6 Q220.475 1522.85 223.53 1518.27 Q226.609 1513.66 232.419 1513.66 Z" fill="#000000" fill-rule="nonzero" fill-opacity="1" /><path clip-path="url(#clip780)" d="M252.581 1542.97 L257.465 1542.97 L257.465 1548.85 L252.581 1548.85 L252.581 1542.97 Z" fill="#000000" fill-rule="nonzero" fill-opacity="1" /><path clip-path="url(#clip780)" d="M277.65 1517.37 Q274.039 1517.37 272.211 1520.93 Q270.405 1524.47 270.405 1531.6 Q270.405 1538.71 272.211 1542.27 Q274.039 1545.82 277.65 1545.82 Q281.285 1545.82 283.09 1542.27 Q284.919 1538.71 284.919 1531.6 Q284.919 1524.47 283.09 1520.93 Q281.285 1517.37 277.65 1517.37 M277.65 1513.66 Q283.46 1513.66 286.516 1518.27 Q289.595 1522.85 289.595 1531.6 Q289.595 1540.33 286.516 1544.94 Q283.46 1549.52 277.65 1549.52 Q271.84 1549.52 268.761 1544.94 Q265.706 1540.33 265.706 1531.6 Q265.706 1522.85 268.761 1518.27 Q271.84 1513.66 277.65 1513.66 Z" fill="#000000" fill-rule="nonzero" fill-opacity="1" /><path clip-path="url(#clip780)" d="M742.072 1517.37 Q738.461 1517.37 736.633 1520.93 Q734.827 1524.47 734.827 1531.6 Q734.827 1538.71 736.633 1542.27 Q738.461 1545.82 742.072 1545.82 Q745.707 1545.82 747.512 1542.27 Q749.341 1538.71 749.341 1531.6 Q749.341 1524.47 747.512 1520.93 Q745.707 1517.37 742.072 1517.37 M742.072 1513.66 Q747.883 1513.66 750.938 1518.27 Q754.017 1522.85 754.017 1531.6 Q754.017 1540.33 750.938 1544.94 Q747.883 1549.52 742.072 1549.52 Q736.262 1549.52 733.184 1544.94 Q730.128 1540.33 730.128 1531.6 Q730.128 1522.85 733.184 1518.27 Q736.262 1513.66 742.072 1513.66 Z" fill="#000000" fill-rule="nonzero" fill-opacity="1" /><path clip-path="url(#clip780)" d="M762.234 1542.97 L767.119 1542.97 L767.119 1548.85 L762.234 1548.85 L762.234 1542.97 Z" fill="#000000" fill-rule="nonzero" fill-opacity="1" /><path clip-path="url(#clip780)" d="M777.35 1514.29 L795.706 1514.29 L795.706 1518.22 L781.632 1518.22 L781.632 1526.7 Q782.651 1526.35 783.669 1526.19 Q784.688 1526 785.706 1526 Q791.493 1526 794.873 1529.17 Q798.253 1532.34 798.253 1537.76 Q798.253 1543.34 794.78 1546.44 Q791.308 1549.52 784.989 1549.52 Q782.813 1549.52 780.544 1549.15 Q778.299 1548.78 775.892 1548.04 L775.892 1543.34 Q777.975 1544.47 780.197 1545.03 Q782.419 1545.58 784.896 1545.58 Q788.901 1545.58 791.239 1543.48 Q793.577 1541.37 793.577 1537.76 Q793.577 1534.15 791.239 1532.04 Q788.901 1529.94 784.896 1529.94 Q783.021 1529.94 781.146 1530.35 Q779.294 1530.77 777.35 1531.65 L777.35 1514.29 Z" fill="#000000" fill-rule="nonzero" fill-opacity="1" /><path clip-path="url(#clip780)" d="M1240.5 1544.91 L1248.14 1544.91 L1248.14 1518.55 L1239.83 1520.21 L1239.83 1515.95 L1248.09 1514.29 L1252.77 1514.29 L1252.77 1544.91 L1260.41 1544.91 L1260.41 1548.85 L1240.5 1548.85 L1240.5 1544.91 Z" fill="#000000" fill-rule="nonzero" fill-opacity="1" /><path clip-path="url(#clip780)" d="M1269.85 1542.97 L1274.73 1542.97 L1274.73 1548.85 L1269.85 1548.85 L1269.85 1542.97 Z" fill="#000000" fill-rule="nonzero" fill-opacity="1" /><path clip-path="url(#clip780)" d="M1294.92 1517.37 Q1291.31 1517.37 1289.48 1520.93 Q1287.67 1524.47 1287.67 1531.6 Q1287.67 1538.71 1289.48 1542.27 Q1291.31 1545.82 1294.92 1545.82 Q1298.55 1545.82 1300.36 1542.27 Q1302.19 1538.71 1302.19 1531.6 Q1302.19 1524.47 1300.36 1520.93 Q1298.55 1517.37 1294.92 1517.37 M1294.92 1513.66 Q1300.73 1513.66 1303.79 1518.27 Q1306.86 1522.85 1306.86 1531.6 Q1306.86 1540.33 1303.79 1544.94 Q1300.73 1549.52 1294.92 1549.52 Q1289.11 1549.52 1286.03 1544.94 Q1282.98 1540.33 1282.98 1531.6 Q1282.98 1522.85 1286.03 1518.27 Q1289.11 1513.66 1294.92 1513.66 Z" fill="#000000" fill-rule="nonzero" fill-opacity="1" /><path clip-path="url(#clip780)" d="M1750.15 1544.91 L1757.79 1544.91 L1757.79 1518.55 L1749.48 1520.21 L1749.48 1515.95 L1757.74 1514.29 L1762.42 1514.29 L1762.42 1544.91 L1770.06 1544.91 L1770.06 1548.85 L1750.15 1548.85 L1750.15 1544.91 Z" fill="#000000" fill-rule="nonzero" fill-opacity="1" /><path clip-path="url(#clip780)" d="M1779.5 1542.97 L1784.39 1542.97 L1784.39 1548.85 L1779.5 1548.85 L1779.5 1542.97 Z" fill="#000000" fill-rule="nonzero" fill-opacity="1" /><path clip-path="url(#clip780)" d="M1794.62 1514.29 L1812.98 1514.29 L1812.98 1518.22 L1798.9 1518.22 L1798.9 1526.7 Q1799.92 1526.35 1800.94 1526.19 Q1801.96 1526 1802.98 1526 Q1808.76 1526 1812.14 1529.17 Q1815.52 1532.34 1815.52 1537.76 Q1815.52 1543.34 1812.05 1546.44 Q1808.58 1549.52 1802.26 1549.52 Q1800.08 1549.52 1797.81 1549.15 Q1795.57 1548.78 1793.16 1548.04 L1793.16 1543.34 Q1795.24 1544.47 1797.47 1545.03 Q1799.69 1545.58 1802.17 1545.58 Q1806.17 1545.58 1808.51 1543.48 Q1810.85 1541.37 1810.85 1537.76 Q1810.85 1534.15 1808.51 1532.04 Q1806.17 1529.94 1802.17 1529.94 Q1800.29 1529.94 1798.42 1530.35 Q1796.56 1530.77 1794.62 1531.65 L1794.62 1514.29 Z" fill="#000000" fill-rule="nonzero" fill-opacity="1" /><path clip-path="url(#clip780)" d="M2262.9 1544.91 L2279.22 1544.91 L2279.22 1548.85 L2257.27 1548.85 L2257.27 1544.91 Q2259.93 1542.16 2264.52 1537.53 Q2269.12 1532.88 2270.3 1531.53 Q2272.55 1529.01 2273.43 1527.27 Q2274.33 1525.51 2274.33 1523.82 Q2274.33 1521.07 2272.39 1519.33 Q2270.47 1517.6 2267.36 1517.6 Q2265.16 1517.6 2262.71 1518.36 Q2260.28 1519.13 2257.5 1520.68 L2257.5 1515.95 Q2260.33 1514.82 2262.78 1514.24 Q2265.23 1513.66 2267.27 1513.66 Q2272.64 1513.66 2275.84 1516.35 Q2279.03 1519.03 2279.03 1523.52 Q2279.03 1525.65 2278.22 1527.57 Q2277.43 1529.47 2275.33 1532.07 Q2274.75 1532.74 2271.65 1535.95 Q2268.54 1539.15 2262.9 1544.91 Z" fill="#000000" fill-rule="nonzero" fill-opacity="1" /><path clip-path="url(#clip780)" d="M2289.03 1542.97 L2293.91 1542.97 L2293.91 1548.85 L2289.03 1548.85 L2289.03 1542.97 Z" fill="#000000" fill-rule="nonzero" fill-opacity="1" /><path clip-path="url(#clip780)" d="M2314.1 1517.37 Q2310.49 1517.37 2308.66 1520.93 Q2306.85 1524.47 2306.85 1531.6 Q2306.85 1538.71 2308.66 1542.27 Q2310.49 1545.82 2314.1 1545.82 Q2317.73 1545.82 2319.54 1542.27 Q2321.37 1538.71 2321.37 1531.6 Q2321.37 1524.47 2319.54 1520.93 Q2317.73 1517.37 2314.1 1517.37 M2314.1 1513.66 Q2319.91 1513.66 2322.96 1518.27 Q2326.04 1522.85 2326.04 1531.6 Q2326.04 1540.33 2322.96 1544.94 Q2319.91 1549.52 2314.1 1549.52 Q2308.29 1549.52 2305.21 1544.94 Q2302.15 1540.33 2302.15 1531.6 Q2302.15 1522.85 2305.21 1518.27 Q2308.29 1513.66 2314.1 1513.66 Z" fill="#000000" fill-rule="nonzero" fill-opacity="1" /><polyline clip-path="url(#clip782)" style="stroke:#000000; stroke-linecap:round; stroke-linejoin:round; stroke-width:2; stroke-opacity:0.1; fill:none" points="193.936,1414.45 2352.76,1414.45 "/>
<polyline clip-path="url(#clip782)" style="stroke:#000000; stroke-linecap:round; stroke-linejoin:round; stroke-width:2; stroke-opacity:0.1; fill:none" points="193.936,1180.94 2352.76,1180.94 "/>
<polyline clip-path="url(#clip782)" style="stroke:#000000; stroke-linecap:round; stroke-linejoin:round; stroke-width:2; stroke-opacity:0.1; fill:none" points="193.936,947.419 2352.76,947.419 "/>
<polyline clip-path="url(#clip782)" style="stroke:#000000; stroke-linecap:round; stroke-linejoin:round; stroke-width:2; stroke-opacity:0.1; fill:none" points="193.936,713.901 2352.76,713.901 "/>
<polyline clip-path="url(#clip782)" style="stroke:#000000; stroke-linecap:round; stroke-linejoin:round; stroke-width:2; stroke-opacity:0.1; fill:none" points="193.936,480.384 2352.76,480.384 "/>
<polyline clip-path="url(#clip782)" style="stroke:#000000; stroke-linecap:round; stroke-linejoin:round; stroke-width:2; stroke-opacity:0.1; fill:none" points="193.936,246.867 2352.76,246.867 "/>
<polyline clip-path="url(#clip780)" style="stroke:#000000; stroke-linecap:round; stroke-linejoin:round; stroke-width:4; stroke-opacity:1; fill:none" points="193.936,1486.45 193.936,47.2441 "/>
<polyline clip-path="url(#clip780)" style="stroke:#000000; stroke-linecap:round; stroke-linejoin:round; stroke-width:4; stroke-opacity:1; fill:none" points="193.936,1414.45 212.834,1414.45 "/>
<polyline clip-path="url(#clip780)" style="stroke:#000000; stroke-linecap:round; stroke-linejoin:round; stroke-width:4; stroke-opacity:1; fill:none" points="193.936,1180.94 212.834,1180.94 "/>
<polyline clip-path="url(#clip780)" style="stroke:#000000; stroke-linecap:round; stroke-linejoin:round; stroke-width:4; stroke-opacity:1; fill:none" points="193.936,947.419 212.834,947.419 "/>
<polyline clip-path="url(#clip780)" style="stroke:#000000; stroke-linecap:round; stroke-linejoin:round; stroke-width:4; stroke-opacity:1; fill:none" points="193.936,713.901 212.834,713.901 "/>
<polyline clip-path="url(#clip780)" style="stroke:#000000; stroke-linecap:round; stroke-linejoin:round; stroke-width:4; stroke-opacity:1; fill:none" points="193.936,480.384 212.834,480.384 "/>
<polyline clip-path="url(#clip780)" style="stroke:#000000; stroke-linecap:round; stroke-linejoin:round; stroke-width:4; stroke-opacity:1; fill:none" points="193.936,246.867 212.834,246.867 "/>
<path clip-path="url(#clip780)" d="M50.9921 1414.9 L80.6679 1414.9 L80.6679 1418.84 L50.9921 1418.84 L50.9921 1414.9 Z" fill="#000000" fill-rule="nonzero" fill-opacity="1" /><path clip-path="url(#clip780)" d="M100.76 1415.32 Q97.4271 1415.32 95.5058 1417.1 Q93.6076 1418.89 93.6076 1422.01 Q93.6076 1425.14 95.5058 1426.92 Q97.4271 1428.7 100.76 1428.7 Q104.094 1428.7 106.015 1426.92 Q107.936 1425.11 107.936 1422.01 Q107.936 1418.89 106.015 1417.1 Q104.117 1415.32 100.76 1415.32 M96.0845 1413.33 Q93.0752 1412.59 91.3854 1410.53 Q89.7188 1408.47 89.7188 1405.51 Q89.7188 1401.36 92.6586 1398.96 Q95.6215 1396.55 100.76 1396.55 Q105.922 1396.55 108.862 1398.96 Q111.802 1401.36 111.802 1405.51 Q111.802 1408.47 110.112 1410.53 Q108.446 1412.59 105.459 1413.33 Q108.839 1414.12 110.714 1416.41 Q112.612 1418.7 112.612 1422.01 Q112.612 1427.03 109.533 1429.72 Q106.478 1432.4 100.76 1432.4 Q95.0428 1432.4 91.9641 1429.72 Q88.9086 1427.03 88.9086 1422.01 Q88.9086 1418.7 90.8067 1416.41 Q92.7049 1414.12 96.0845 1413.33 M94.3715 1405.95 Q94.3715 1408.63 96.0382 1410.14 Q97.728 1411.64 100.76 1411.64 Q103.77 1411.64 105.459 1410.14 Q107.172 1408.63 107.172 1405.95 Q107.172 1403.26 105.459 1401.76 Q103.77 1400.25 100.76 1400.25 Q97.728 1400.25 96.0382 1401.76 Q94.3715 1403.26 94.3715 1405.95 Z" fill="#000000" fill-rule="nonzero" fill-opacity="1" /><path clip-path="url(#clip780)" d="M120.922 1425.85 L125.807 1425.85 L125.807 1431.73 L120.922 1431.73 L120.922 1425.85 Z" fill="#000000" fill-rule="nonzero" fill-opacity="1" /><path clip-path="url(#clip780)" d="M145.992 1400.25 Q142.381 1400.25 140.552 1403.82 Q138.746 1407.36 138.746 1414.49 Q138.746 1421.59 140.552 1425.16 Q142.381 1428.7 145.992 1428.7 Q149.626 1428.7 151.431 1425.16 Q153.26 1421.59 153.26 1414.49 Q153.26 1407.36 151.431 1403.82 Q149.626 1400.25 145.992 1400.25 M145.992 1396.55 Q151.802 1396.55 154.857 1401.15 Q157.936 1405.74 157.936 1414.49 Q157.936 1423.21 154.857 1427.82 Q151.802 1432.4 145.992 1432.4 Q140.181 1432.4 137.103 1427.82 Q134.047 1423.21 134.047 1414.49 Q134.047 1405.74 137.103 1401.15 Q140.181 1396.55 145.992 1396.55 Z" fill="#000000" fill-rule="nonzero" fill-opacity="1" /><path clip-path="url(#clip780)" d="M51.9875 1181.39 L81.6633 1181.39 L81.6633 1185.32 L51.9875 1185.32 L51.9875 1181.39 Z" fill="#000000" fill-rule="nonzero" fill-opacity="1" /><path clip-path="url(#clip780)" d="M90.5752 1163.66 L112.797 1163.66 L112.797 1165.65 L100.251 1198.22 L95.3669 1198.22 L107.172 1167.59 L90.5752 1167.59 L90.5752 1163.66 Z" fill="#000000" fill-rule="nonzero" fill-opacity="1" /><path clip-path="url(#clip780)" d="M121.918 1192.34 L126.802 1192.34 L126.802 1198.22 L121.918 1198.22 L121.918 1192.34 Z" fill="#000000" fill-rule="nonzero" fill-opacity="1" /><path clip-path="url(#clip780)" d="M137.033 1163.66 L155.39 1163.66 L155.39 1167.59 L141.316 1167.59 L141.316 1176.06 Q142.334 1175.72 143.353 1175.55 Q144.371 1175.37 145.39 1175.37 Q151.177 1175.37 154.556 1178.54 Q157.936 1181.71 157.936 1187.13 Q157.936 1192.71 154.464 1195.81 Q150.992 1198.89 144.672 1198.89 Q142.496 1198.89 140.228 1198.52 Q137.982 1198.15 135.575 1197.41 L135.575 1192.71 Q137.658 1193.84 139.881 1194.4 Q142.103 1194.95 144.58 1194.95 Q148.584 1194.95 150.922 1192.85 Q153.26 1190.74 153.26 1187.13 Q153.26 1183.52 150.922 1181.41 Q148.584 1179.3 144.58 1179.3 Q142.705 1179.3 140.83 1179.72 Q138.978 1180.14 137.033 1181.02 L137.033 1163.66 Z" fill="#000000" fill-rule="nonzero" fill-opacity="1" /><path clip-path="url(#clip780)" d="M50.9921 947.87 L80.6679 947.87 L80.6679 951.805 L50.9921 951.805 L50.9921 947.87 Z" fill="#000000" fill-rule="nonzero" fill-opacity="1" /><path clip-path="url(#clip780)" d="M89.5799 930.139 L111.802 930.139 L111.802 932.129 L99.2558 964.699 L94.3715 964.699 L106.177 934.074 L89.5799 934.074 L89.5799 930.139 Z" fill="#000000" fill-rule="nonzero" fill-opacity="1" /><path clip-path="url(#clip780)" d="M120.922 958.819 L125.807 958.819 L125.807 964.699 L120.922 964.699 L120.922 958.819 Z" fill="#000000" fill-rule="nonzero" fill-opacity="1" /><path clip-path="url(#clip780)" d="M145.992 933.217 Q142.381 933.217 140.552 936.782 Q138.746 940.324 138.746 947.453 Q138.746 954.56 140.552 958.125 Q142.381 961.666 145.992 961.666 Q149.626 961.666 151.431 958.125 Q153.26 954.56 153.26 947.453 Q153.26 940.324 151.431 936.782 Q149.626 933.217 145.992 933.217 M145.992 929.514 Q151.802 929.514 154.857 934.12 Q157.936 938.703 157.936 947.453 Q157.936 956.18 154.857 960.787 Q151.802 965.37 145.992 965.37 Q140.181 965.37 137.103 960.787 Q134.047 956.18 134.047 947.453 Q134.047 938.703 137.103 934.12 Q140.181 929.514 145.992 929.514 Z" fill="#000000" fill-rule="nonzero" fill-opacity="1" /><path clip-path="url(#clip780)" d="M51.9875 714.353 L81.6633 714.353 L81.6633 718.288 L51.9875 718.288 L51.9875 714.353 Z" fill="#000000" fill-rule="nonzero" fill-opacity="1" /><path clip-path="url(#clip780)" d="M102.334 712.038 Q99.1863 712.038 97.3345 714.191 Q95.5058 716.344 95.5058 720.094 Q95.5058 723.82 97.3345 725.996 Q99.1863 728.149 102.334 728.149 Q105.483 728.149 107.311 725.996 Q109.163 723.82 109.163 720.094 Q109.163 716.344 107.311 714.191 Q105.483 712.038 102.334 712.038 M111.617 697.385 L111.617 701.645 Q109.858 700.811 108.052 700.371 Q106.27 699.932 104.51 699.932 Q99.8808 699.932 97.4271 703.057 Q94.9965 706.182 94.6493 712.501 Q96.015 710.487 98.0752 709.422 Q100.135 708.334 102.612 708.334 Q107.821 708.334 110.83 711.506 Q113.862 714.654 113.862 720.094 Q113.862 725.418 110.714 728.635 Q107.566 731.853 102.334 731.853 Q96.3391 731.853 93.1678 727.269 Q89.9965 722.663 89.9965 713.936 Q89.9965 705.742 93.8854 700.881 Q97.7743 695.996 104.325 695.996 Q106.084 695.996 107.867 696.344 Q109.672 696.691 111.617 697.385 Z" fill="#000000" fill-rule="nonzero" fill-opacity="1" /><path clip-path="url(#clip780)" d="M121.918 725.302 L126.802 725.302 L126.802 731.181 L121.918 731.181 L121.918 725.302 Z" fill="#000000" fill-rule="nonzero" fill-opacity="1" /><path clip-path="url(#clip780)" d="M137.033 696.621 L155.39 696.621 L155.39 700.557 L141.316 700.557 L141.316 709.029 Q142.334 708.682 143.353 708.52 Q144.371 708.334 145.39 708.334 Q151.177 708.334 154.556 711.506 Q157.936 714.677 157.936 720.094 Q157.936 725.672 154.464 728.774 Q150.992 731.853 144.672 731.853 Q142.496 731.853 140.228 731.482 Q137.982 731.112 135.575 730.371 L135.575 725.672 Q137.658 726.806 139.881 727.362 Q142.103 727.918 144.58 727.918 Q148.584 727.918 150.922 725.811 Q153.26 723.705 153.26 720.094 Q153.26 716.482 150.922 714.376 Q148.584 712.269 144.58 712.269 Q142.705 712.269 140.83 712.686 Q138.978 713.103 137.033 713.982 L137.033 696.621 Z" fill="#000000" fill-rule="nonzero" fill-opacity="1" /><path clip-path="url(#clip780)" d="M50.9921 480.836 L80.6679 480.836 L80.6679 484.771 L50.9921 484.771 L50.9921 480.836 Z" fill="#000000" fill-rule="nonzero" fill-opacity="1" /><path clip-path="url(#clip780)" d="M101.339 478.521 Q98.1909 478.521 96.3391 480.674 Q94.5104 482.826 94.5104 486.576 Q94.5104 490.303 96.3391 492.479 Q98.1909 494.632 101.339 494.632 Q104.487 494.632 106.316 492.479 Q108.168 490.303 108.168 486.576 Q108.168 482.826 106.316 480.674 Q104.487 478.521 101.339 478.521 M110.621 463.868 L110.621 468.127 Q108.862 467.294 107.057 466.854 Q105.274 466.414 103.515 466.414 Q98.8854 466.414 96.4317 469.539 Q94.0012 472.664 93.6539 478.984 Q95.0197 476.97 97.0798 475.905 Q99.14 474.817 101.617 474.817 Q106.825 474.817 109.834 477.988 Q112.867 481.137 112.867 486.576 Q112.867 491.9 109.719 495.118 Q106.571 498.336 101.339 498.336 Q95.3437 498.336 92.1725 493.752 Q89.0012 489.146 89.0012 480.419 Q89.0012 472.225 92.89 467.364 Q96.7789 462.479 103.33 462.479 Q105.089 462.479 106.871 462.827 Q108.677 463.174 110.621 463.868 Z" fill="#000000" fill-rule="nonzero" fill-opacity="1" /><path clip-path="url(#clip780)" d="M120.922 491.785 L125.807 491.785 L125.807 497.664 L120.922 497.664 L120.922 491.785 Z" fill="#000000" fill-rule="nonzero" fill-opacity="1" /><path clip-path="url(#clip780)" d="M145.992 466.183 Q142.381 466.183 140.552 469.748 Q138.746 473.289 138.746 480.419 Q138.746 487.525 140.552 491.09 Q142.381 494.632 145.992 494.632 Q149.626 494.632 151.431 491.09 Q153.26 487.525 153.26 480.419 Q153.26 473.289 151.431 469.748 Q149.626 466.183 145.992 466.183 M145.992 462.479 Q151.802 462.479 154.857 467.086 Q157.936 471.669 157.936 480.419 Q157.936 489.146 154.857 493.752 Q151.802 498.336 145.992 498.336 Q140.181 498.336 137.103 493.752 Q134.047 489.146 134.047 480.419 Q134.047 471.669 137.103 467.086 Q140.181 462.479 145.992 462.479 Z" fill="#000000" fill-rule="nonzero" fill-opacity="1" /><path clip-path="url(#clip780)" d="M51.9875 247.319 L81.6633 247.319 L81.6633 251.254 L51.9875 251.254 L51.9875 247.319 Z" fill="#000000" fill-rule="nonzero" fill-opacity="1" /><path clip-path="url(#clip780)" d="M91.8021 229.587 L110.158 229.587 L110.158 233.522 L96.0845 233.522 L96.0845 241.994 Q97.103 241.647 98.1215 241.485 Q99.14 241.3 100.159 241.3 Q105.946 241.3 109.325 244.471 Q112.705 247.643 112.705 253.059 Q112.705 258.638 109.233 261.74 Q105.76 264.818 99.4409 264.818 Q97.265 264.818 94.9965 264.448 Q92.7512 264.078 90.3438 263.337 L90.3438 258.638 Q92.4271 259.772 94.6493 260.328 Q96.8715 260.883 99.3483 260.883 Q103.353 260.883 105.691 258.777 Q108.029 256.67 108.029 253.059 Q108.029 249.448 105.691 247.342 Q103.353 245.235 99.3483 245.235 Q97.4734 245.235 95.5984 245.652 Q93.7465 246.069 91.8021 246.948 L91.8021 229.587 Z" fill="#000000" fill-rule="nonzero" fill-opacity="1" /><path clip-path="url(#clip780)" d="M121.918 258.268 L126.802 258.268 L126.802 264.147 L121.918 264.147 L121.918 258.268 Z" fill="#000000" fill-rule="nonzero" fill-opacity="1" /><path clip-path="url(#clip780)" d="M137.033 229.587 L155.39 229.587 L155.39 233.522 L141.316 233.522 L141.316 241.994 Q142.334 241.647 143.353 241.485 Q144.371 241.3 145.39 241.3 Q151.177 241.3 154.556 244.471 Q157.936 247.643 157.936 253.059 Q157.936 258.638 154.464 261.74 Q150.992 264.818 144.672 264.818 Q142.496 264.818 140.228 264.448 Q137.982 264.078 135.575 263.337 L135.575 258.638 Q137.658 259.772 139.881 260.328 Q142.103 260.883 144.58 260.883 Q148.584 260.883 150.922 258.777 Q153.26 256.67 153.26 253.059 Q153.26 249.448 150.922 247.342 Q148.584 245.235 144.58 245.235 Q142.705 245.235 140.83 245.652 Q138.978 246.069 137.033 246.948 L137.033 229.587 Z" fill="#000000" fill-rule="nonzero" fill-opacity="1" /><polyline clip-path="url(#clip782)" style="stroke:#009af9; stroke-linecap:round; stroke-linejoin:round; stroke-width:4; stroke-opacity:1; fill:none" points="255.035,87.9763 1273.35,1445.72 "/>
<path clip-path="url(#clip780)" d="M265.897 1438.47 L534.209 1438.47 L534.209 1334.79 L265.897 1334.79  Z" fill="#ffffff" fill-rule="evenodd" fill-opacity="1"/>
<polyline clip-path="url(#clip780)" style="stroke:#000000; stroke-linecap:round; stroke-linejoin:round; stroke-width:4; stroke-opacity:1; fill:none" points="265.897,1438.47 534.209,1438.47 534.209,1334.79 265.897,1334.79 265.897,1438.47 "/>
<polyline clip-path="url(#clip780)" style="stroke:#009af9; stroke-linecap:round; stroke-linejoin:round; stroke-width:4; stroke-opacity:1; fill:none" points="289.884,1386.63 433.805,1386.63 "/>
<path clip-path="url(#clip780)" d="M471.634 1406.32 Q469.829 1410.95 468.116 1412.36 Q466.403 1413.78 463.532 1413.78 L460.13 1413.78 L460.13 1410.21 L462.63 1410.21 Q464.389 1410.21 465.361 1409.38 Q466.333 1408.54 467.514 1405.44 L468.278 1403.5 L457.792 1377.99 L462.306 1377.99 L470.407 1398.27 L478.509 1377.99 L483.023 1377.99 L471.634 1406.32 Z" fill="#000000" fill-rule="nonzero" fill-opacity="1" /><path clip-path="url(#clip780)" d="M490.315 1399.98 L497.954 1399.98 L497.954 1373.61 L489.643 1375.28 L489.643 1371.02 L497.907 1369.35 L502.583 1369.35 L502.583 1399.98 L510.222 1399.98 L510.222 1403.91 L490.315 1403.91 L490.315 1399.98 Z" fill="#000000" fill-rule="nonzero" fill-opacity="1" /></svg>
