<?xml version="1.0" encoding="utf-8"?>
<svg xmlns="http://www.w3.org/2000/svg" xmlns:xlink="http://www.w3.org/1999/xlink" width="600" height="400" viewBox="0 0 2400 1600">
<defs>
  <clipPath id="clip600">
    <rect x="0" y="0" width="2400" height="1600"/>
  </clipPath>
</defs>
<path clip-path="url(#clip600)" d="M0 1600 L2400 1600 L2400 0 L0 0  Z" fill="#ffffff" fill-rule="evenodd" fill-opacity="1"/>
<defs>
  <clipPath id="clip601">
    <rect x="480" y="0" width="1681" height="1600"/>
  </clipPath>
</defs>
<path clip-path="url(#clip600)" d="M156.598 1486.45 L2352.76 1486.45 L2352.76 47.2441 L156.598 47.2441  Z" fill="#ffffff" fill-rule="evenodd" fill-opacity="1"/>
<defs>
  <clipPath id="clip602">
    <rect x="156" y="47" width="2197" height="1440"/>
  </clipPath>
</defs>
<polyline clip-path="url(#clip602)" style="stroke:#000000; stroke-linecap:round; stroke-linejoin:round; stroke-width:2; stroke-opacity:0.1; fill:none" points="218.754,1486.45 218.754,47.2441 "/>
<polyline clip-path="url(#clip602)" style="stroke:#000000; stroke-linecap:round; stroke-linejoin:round; stroke-width:2; stroke-opacity:0.1; fill:none" points="736.715,1486.45 736.715,47.2441 "/>
<polyline clip-path="url(#clip602)" style="stroke:#000000; stroke-linecap:round; stroke-linejoin:round; stroke-width:2; stroke-opacity:0.1; fill:none" points="1254.68,1486.45 1254.68,47.2441 "/>
<polyline clip-path="url(#clip602)" style="stroke:#000000; stroke-linecap:round; stroke-linejoin:round; stroke-width:2; stroke-opacity:0.1; fill:none" points="1772.64,1486.45 1772.64,47.2441 "/>
<polyline clip-path="url(#clip602)" style="stroke:#000000; stroke-linecap:round; stroke-linejoin:round; stroke-width:2; stroke-opacity:0.1; fill:none" points="2290.6,1486.45 2290.6,47.2441 "/>
<polyline clip-path="url(#clip600)" style="stroke:#000000; stroke-linecap:round; stroke-linejoin:round; stroke-width:4; stroke-opacity:1; fill:none" points="156.598,1486.45 2352.76,1486.45 "/>
<polyline clip-path="url(#clip600)" style="stroke:#000000; stroke-linecap:round; stroke-linejoin:round; stroke-width:4; stroke-opacity:1; fill:none" points="218.754,1486.45 218.754,1467.55 "/>
<polyline clip-path="url(#clip600)" style="stroke:#000000; stroke-linecap:round; stroke-linejoin:round; stroke-width:4; stroke-opacity:1; fill:none" points="736.715,1486.45 736.715,1467.55 "/>
<polyline clip-path="url(#clip600)" style="stroke:#000000; stroke-linecap:round; stroke-linejoin:round; stroke-width:4; stroke-opacity:1; fill:none" points="1254.68,1486.45 1254.68,1467.55 "/>
<polyline clip-path="url(#clip600)" style="stroke:#000000; stroke-linecap:round; stroke-linejoin:round; stroke-width:4; stroke-opacity:1; fill:none" points="1772.64,1486.45 1772.64,1467.55 "/>
<polyline clip-path="url(#clip600)" style="stroke:#000000; stroke-linecap:round; stroke-linejoin:round; stroke-width:4; stroke-opacity:1; fill:none" points="2290.6,1486.45 2290.6,1467.55 "/>
<path clip-path="url(#clip600)" d="M218.754 1517.37 Q215.143 1517.37 213.314 1520.93 Q211.508 1524.47 211.508 1531.6 Q211.508 1538.71 213.314 1542.27 Q215.143 1545.82 218.754 1545.82 Q222.388 1545.82 224.193 1542.27 Q226.022 1538.71 226.022 1531.6 Q226.022 1524.47 224.193 1520.93 Q222.388 1517.37 218.754 1517.37 M218.754 1513.66 Q224.564 1513.66 227.619 1518.27 Q230.698 1522.85 230.698 1531.6 Q230.698 1540.33 227.619 1544.94 Q224.564 1549.52 218.754 1549.52 Q212.943 1549.52 209.865 1544.94 Q206.809 1540.33 206.809 1531.6 Q206.809 1522.85 209.865 1518.27 Q212.943 1513.66 218.754 1513.66 Z" fill="#000000" fill-rule="nonzero" fill-opacity="1" /><path clip-path="url(#clip600)" d="M696.334 1514.29 L714.69 1514.29 L714.69 1518.22 L700.616 1518.22 L700.616 1526.7 Q701.635 1526.35 702.653 1526.19 Q703.672 1526 704.69 1526 Q710.477 1526 713.857 1529.17 Q717.236 1532.34 717.236 1537.76 Q717.236 1543.34 713.764 1546.44 Q710.292 1549.52 703.972 1549.52 Q701.797 1549.52 699.528 1549.15 Q697.283 1548.78 694.875 1548.04 L694.875 1543.34 Q696.959 1544.47 699.181 1545.03 Q701.403 1545.58 703.88 1545.58 Q707.884 1545.58 710.222 1543.48 Q712.56 1541.37 712.56 1537.76 Q712.56 1534.15 710.222 1532.04 Q707.884 1529.94 703.88 1529.94 Q702.005 1529.94 700.13 1530.35 Q698.278 1530.77 696.334 1531.65 L696.334 1514.29 Z" fill="#000000" fill-rule="nonzero" fill-opacity="1" /><path clip-path="url(#clip600)" d="M736.449 1517.37 Q732.838 1517.37 731.009 1520.93 Q729.204 1524.47 729.204 1531.6 Q729.204 1538.71 731.009 1542.27 Q732.838 1545.82 736.449 1545.82 Q740.083 1545.82 741.889 1542.27 Q743.718 1538.71 743.718 1531.6 Q743.718 1524.47 741.889 1520.93 Q740.083 1517.37 736.449 1517.37 M736.449 1513.66 Q742.259 1513.66 745.315 1518.27 Q748.394 1522.85 748.394 1531.6 Q748.394 1540.33 745.315 1544.94 Q742.259 1549.52 736.449 1549.52 Q730.639 1549.52 727.56 1544.94 Q724.505 1540.33 724.505 1531.6 Q724.505 1522.85 727.56 1518.27 Q730.639 1513.66 736.449 1513.66 Z" fill="#000000" fill-rule="nonzero" fill-opacity="1" /><path clip-path="url(#clip600)" d="M766.611 1517.37 Q763 1517.37 761.171 1520.93 Q759.366 1524.47 759.366 1531.6 Q759.366 1538.71 761.171 1542.27 Q763 1545.82 766.611 1545.82 Q770.245 1545.82 772.051 1542.27 Q773.88 1538.71 773.88 1531.6 Q773.88 1524.47 772.051 1520.93 Q770.245 1517.37 766.611 1517.37 M766.611 1513.66 Q772.421 1513.66 775.477 1518.27 Q778.555 1522.85 778.555 1531.6 Q778.555 1540.33 775.477 1544.94 Q772.421 1549.52 766.611 1549.52 Q760.801 1549.52 757.722 1544.94 Q754.667 1540.33 754.667 1531.6 Q754.667 1522.85 757.722 1518.27 Q760.801 1513.66 766.611 1513.66 Z" fill="#000000" fill-rule="nonzero" fill-opacity="1" /><path clip-path="url(#clip600)" d="M1199.2 1544.91 L1206.84 1544.91 L1206.84 1518.55 L1198.53 1520.21 L1198.53 1515.95 L1206.8 1514.29 L1211.47 1514.29 L1211.47 1544.91 L1219.11 1544.91 L1219.11 1548.85 L1199.2 1548.85 L1199.2 1544.91 Z" fill="#000000" fill-rule="nonzero" fill-opacity="1" /><path clip-path="url(#clip600)" d="M1238.55 1517.37 Q1234.94 1517.37 1233.11 1520.93 Q1231.31 1524.47 1231.31 1531.6 Q1231.31 1538.71 1233.11 1542.27 Q1234.94 1545.82 1238.55 1545.82 Q1242.19 1545.82 1243.99 1542.27 Q1245.82 1538.71 1245.82 1531.6 Q1245.82 1524.47 1243.99 1520.93 Q1242.19 1517.37 1238.55 1517.37 M1238.55 1513.66 Q1244.36 1513.66 1247.42 1518.27 Q1250.5 1522.85 1250.5 1531.6 Q1250.5 1540.33 1247.42 1544.94 Q1244.36 1549.52 1238.55 1549.52 Q1232.74 1549.52 1229.67 1544.94 Q1226.61 1540.33 1226.61 1531.6 Q1226.61 1522.85 1229.67 1518.27 Q1232.74 1513.66 1238.55 1513.66 Z" fill="#000000" fill-rule="nonzero" fill-opacity="1" /><path clip-path="url(#clip600)" d="M1268.72 1517.37 Q1265.11 1517.37 1263.28 1520.93 Q1261.47 1524.47 1261.47 1531.6 Q1261.47 1538.71 1263.28 1542.27 Q1265.11 1545.82 1268.72 1545.82 Q1272.35 1545.82 1274.16 1542.27 Q1275.98 1538.71 1275.98 1531.6 Q1275.98 1524.47 1274.16 1520.93 Q1272.35 1517.37 1268.72 1517.37 M1268.72 1513.66 Q1274.53 1513.66 1277.58 1518.27 Q1280.66 1522.85 1280.66 1531.6 Q1280.66 1540.33 1277.58 1544.94 Q1274.53 1549.52 1268.72 1549.52 Q1262.91 1549.52 1259.83 1544.94 Q1256.77 1540.33 1256.77 1531.6 Q1256.77 1522.85 1259.83 1518.27 Q1262.91 1513.66 1268.72 1513.66 Z" fill="#000000" fill-rule="nonzero" fill-opacity="1" /><path clip-path="url(#clip600)" d="M1298.88 1517.37 Q1295.27 1517.37 1293.44 1520.93 Q1291.63 1524.47 1291.63 1531.6 Q1291.63 1538.71 1293.44 1542.27 Q1295.27 1545.82 1298.88 1545.82 Q1302.51 1545.82 1304.32 1542.27 Q1306.15 1538.71 1306.15 1531.6 Q1306.15 1524.47 1304.32 1520.93 Q1302.51 1517.37 1298.88 1517.37 M1298.88 1513.66 Q1304.69 1513.66 1307.74 1518.27 Q1310.82 1522.85 1310.82 1531.6 Q1310.82 1540.33 1307.74 1544.94 Q1304.69 1549.52 1298.88 1549.52 Q1293.07 1549.52 1289.99 1544.94 Q1286.93 1540.33 1286.93 1531.6 Q1286.93 1522.85 1289.99 1518.27 Q1293.07 1513.66 1298.88 1513.66 Z" fill="#000000" fill-rule="nonzero" fill-opacity="1" /><path clip-path="url(#clip600)" d="M1717.16 1544.91 L1724.8 1544.91 L1724.8 1518.55 L1716.49 1520.21 L1716.49 1515.95 L1724.76 1514.29 L1729.43 1514.29 L1729.43 1544.91 L1737.07 1544.91 L1737.07 1548.85 L1717.16 1548.85 L1717.16 1544.91 Z" fill="#000000" fill-rule="nonzero" fill-opacity="1" /><path clip-path="url(#clip600)" d="M1746.56 1514.29 L1764.92 1514.29 L1764.92 1518.22 L1750.84 1518.22 L1750.84 1526.7 Q1751.86 1526.35 1752.88 1526.19 Q1753.9 1526 1754.92 1526 Q1760.71 1526 1764.09 1529.17 Q1767.47 1532.34 1767.47 1537.76 Q1767.47 1543.34 1763.99 1546.44 Q1760.52 1549.52 1754.2 1549.52 Q1752.03 1549.52 1749.76 1549.15 Q1747.51 1548.78 1745.1 1548.04 L1745.1 1543.34 Q1747.19 1544.47 1749.41 1545.03 Q1751.63 1545.58 1754.11 1545.58 Q1758.11 1545.58 1760.45 1543.48 Q1762.79 1541.37 1762.79 1537.76 Q1762.79 1534.15 1760.45 1532.04 Q1758.11 1529.94 1754.11 1529.94 Q1752.23 1529.94 1750.36 1530.35 Q1748.51 1530.77 1746.56 1531.65 L1746.56 1514.29 Z" fill="#000000" fill-rule="nonzero" fill-opacity="1" /><path clip-path="url(#clip600)" d="M1786.68 1517.37 Q1783.07 1517.37 1781.24 1520.93 Q1779.43 1524.47 1779.43 1531.6 Q1779.43 1538.71 1781.24 1542.27 Q1783.07 1545.82 1786.68 1545.82 Q1790.31 1545.82 1792.12 1542.27 Q1793.95 1538.71 1793.95 1531.6 Q1793.95 1524.47 1792.12 1520.93 Q1790.31 1517.37 1786.68 1517.37 M1786.68 1513.66 Q1792.49 1513.66 1795.54 1518.27 Q1798.62 1522.85 1798.62 1531.6 Q1798.62 1540.33 1795.54 1544.94 Q1792.49 1549.52 1786.68 1549.52 Q1780.87 1549.52 1777.79 1544.94 Q1774.73 1540.33 1774.73 1531.6 Q1774.73 1522.85 1777.79 1518.27 Q1780.87 1513.66 1786.68 1513.66 Z" fill="#000000" fill-rule="nonzero" fill-opacity="1" /><path clip-path="url(#clip600)" d="M1816.84 1517.37 Q1813.23 1517.37 1811.4 1520.93 Q1809.59 1524.47 1809.59 1531.6 Q1809.59 1538.71 1811.4 1542.27 Q1813.23 1545.82 1816.84 1545.82 Q1820.47 1545.82 1822.28 1542.27 Q1824.11 1538.71 1824.11 1531.6 Q1824.11 1524.47 1822.28 1520.93 Q1820.47 1517.37 1816.84 1517.37 M1816.84 1513.66 Q1822.65 1513.66 1825.71 1518.27 Q1828.78 1522.85 1828.78 1531.6 Q1828.78 1540.33 1825.71 1544.94 Q1822.65 1549.52 1816.84 1549.52 Q1811.03 1549.52 1807.95 1544.94 Q1804.9 1540.33 1804.9 1531.6 Q1804.9 1522.85 1807.95 1518.27 Q1811.03 1513.66 1816.84 1513.66 Z" fill="#000000" fill-rule="nonzero" fill-opacity="1" /><path clip-path="url(#clip600)" d="M2239.21 1544.91 L2255.53 1544.91 L2255.53 1548.85 L2233.59 1548.85 L2233.59 1544.91 Q2236.25 1542.16 2240.83 1537.53 Q2245.44 1532.88 2246.62 1531.53 Q2248.86 1529.01 2249.74 1527.27 Q2250.65 1525.51 2250.65 1523.82 Q2250.65 1521.07 2248.7 1519.33 Q2246.78 1517.6 2243.68 1517.6 Q2241.48 1517.6 2239.03 1518.36 Q2236.6 1519.13 2233.82 1520.68 L2233.82 1515.95 Q2236.64 1514.82 2239.1 1514.24 Q2241.55 1513.66 2243.59 1513.66 Q2248.96 1513.66 2252.15 1516.35 Q2255.35 1519.03 2255.35 1523.52 Q2255.35 1525.65 2254.54 1527.57 Q2253.75 1529.47 2251.64 1532.07 Q2251.06 1532.74 2247.96 1535.95 Q2244.86 1539.15 2239.21 1544.91 Z" fill="#000000" fill-rule="nonzero" fill-opacity="1" /><path clip-path="url(#clip600)" d="M2275.35 1517.37 Q2271.73 1517.37 2269.91 1520.93 Q2268.1 1524.47 2268.1 1531.6 Q2268.1 1538.71 2269.91 1542.27 Q2271.73 1545.82 2275.35 1545.82 Q2278.98 1545.82 2280.79 1542.27 Q2282.61 1538.71 2282.61 1531.6 Q2282.61 1524.47 2280.79 1520.93 Q2278.98 1517.37 2275.35 1517.37 M2275.35 1513.66 Q2281.16 1513.66 2284.21 1518.27 Q2287.29 1522.85 2287.29 1531.6 Q2287.29 1540.33 2284.21 1544.94 Q2281.16 1549.52 2275.35 1549.52 Q2269.54 1549.52 2266.46 1544.94 Q2263.4 1540.33 2263.4 1531.6 Q2263.4 1522.85 2266.46 1518.27 Q2269.54 1513.66 2275.35 1513.66 Z" fill="#000000" fill-rule="nonzero" fill-opacity="1" /><path clip-path="url(#clip600)" d="M2305.51 1517.37 Q2301.9 1517.37 2300.07 1520.93 Q2298.26 1524.47 2298.26 1531.6 Q2298.26 1538.71 2300.07 1542.27 Q2301.9 1545.82 2305.51 1545.82 Q2309.14 1545.82 2310.95 1542.27 Q2312.78 1538.71 2312.78 1531.6 Q2312.78 1524.47 2310.95 1520.93 Q2309.14 1517.37 2305.51 1517.37 M2305.51 1513.66 Q2311.32 1513.66 2314.37 1518.27 Q2317.45 1522.85 2317.45 1531.6 Q2317.45 1540.33 2314.37 1544.94 Q2311.32 1549.52 2305.51 1549.52 Q2299.7 1549.52 2296.62 1544.94 Q2293.56 1540.33 2293.56 1531.6 Q2293.56 1522.85 2296.62 1518.27 Q2299.7 1513.66 2305.51 1513.66 Z" fill="#000000" fill-rule="nonzero" fill-opacity="1" /><path clip-path="url(#clip600)" d="M2335.67 1517.37 Q2332.06 1517.37 2330.23 1520.93 Q2328.42 1524.47 2328.42 1531.6 Q2328.42 1538.71 2330.23 1542.27 Q2332.06 1545.82 2335.67 1545.82 Q2339.3 1545.82 2341.11 1542.27 Q2342.94 1538.71 2342.94 1531.6 Q2342.94 1524.47 2341.11 1520.93 Q2339.3 1517.37 2335.67 1517.37 M2335.67 1513.66 Q2341.48 1513.66 2344.54 1518.27 Q2347.61 1522.85 2347.61 1531.6 Q2347.61 1540.33 2344.54 1544.94 Q2341.48 1549.52 2335.67 1549.52 Q2329.86 1549.52 2326.78 1544.94 Q2323.73 1540.33 2323.73 1531.6 Q2323.73 1522.85 2326.78 1518.27 Q2329.86 1513.66 2335.67 1513.66 Z" fill="#000000" fill-rule="nonzero" fill-opacity="1" /><polyline clip-path="url(#clip602)" style="stroke:#000000; stroke-linecap:round; stroke-linejoin:round; stroke-width:2; stroke-opacity:0.1; fill:none" points="156.598,1324.89 2352.76,1324.89 "/>
<polyline clip-path="url(#clip602)" style="stroke:#000000; stroke-linecap:round; stroke-linejoin:round; stroke-width:2; stroke-opacity:0.1; fill:none" points="156.598,964.771 2352.76,964.771 "/>
<polyline clip-path="url(#clip602)" style="stroke:#000000; stroke-linecap:round; stroke-linejoin:round; stroke-width:2; stroke-opacity:0.1; fill:none" points="156.598,604.648 2352.76,604.648 "/>
<polyline clip-path="url(#clip602)" style="stroke:#000000; stroke-linecap:round; stroke-linejoin:round; stroke-width:2; stroke-opacity:0.1; fill:none" points="156.598,244.525 2352.76,244.525 "/>
<polyline clip-path="url(#clip600)" style="stroke:#000000; stroke-linecap:round; stroke-linejoin:round; stroke-width:4; stroke-opacity:1; fill:none" points="156.598,1486.45 156.598,47.2441 "/>
<polyline clip-path="url(#clip600)" style="stroke:#000000; stroke-linecap:round; stroke-linejoin:round; stroke-width:4; stroke-opacity:1; fill:none" points="156.598,1324.89 175.496,1324.89 "/>
<polyline clip-path="url(#clip600)" style="stroke:#000000; stroke-linecap:round; stroke-linejoin:round; stroke-width:4; stroke-opacity:1; fill:none" points="156.598,964.771 175.496,964.771 "/>
<polyline clip-path="url(#clip600)" style="stroke:#000000; stroke-linecap:round; stroke-linejoin:round; stroke-width:4; stroke-opacity:1; fill:none" points="156.598,604.648 175.496,604.648 "/>
<polyline clip-path="url(#clip600)" style="stroke:#000000; stroke-linecap:round; stroke-linejoin:round; stroke-width:4; stroke-opacity:1; fill:none" points="156.598,244.525 175.496,244.525 "/>
<path clip-path="url(#clip600)" d="M65.0198 1310.69 Q61.4087 1310.69 59.58 1314.26 Q57.7745 1317.8 57.7745 1324.93 Q57.7745 1332.03 59.58 1335.6 Q61.4087 1339.14 65.0198 1339.14 Q68.6541 1339.14 70.4596 1335.6 Q72.2883 1332.03 72.2883 1324.93 Q72.2883 1317.8 70.4596 1314.26 Q68.6541 1310.69 65.0198 1310.69 M65.0198 1306.99 Q70.83 1306.99 73.8855 1311.6 Q76.9642 1316.18 76.9642 1324.93 Q76.9642 1333.66 73.8855 1338.26 Q70.83 1342.85 65.0198 1342.85 Q59.2097 1342.85 56.131 1338.26 Q53.0754 1333.66 53.0754 1324.93 Q53.0754 1316.18 56.131 1311.6 Q59.2097 1306.99 65.0198 1306.99 Z" fill="#000000" fill-rule="nonzero" fill-opacity="1" /><path clip-path="url(#clip600)" d="M85.1818 1336.29 L90.066 1336.29 L90.066 1342.17 L85.1818 1342.17 L85.1818 1336.29 Z" fill="#000000" fill-rule="nonzero" fill-opacity="1" /><path clip-path="url(#clip600)" d="M104.279 1338.24 L120.598 1338.24 L120.598 1342.17 L98.6539 1342.17 L98.6539 1338.24 Q101.316 1335.48 105.899 1330.85 Q110.506 1326.2 111.686 1324.86 Q113.932 1322.34 114.811 1320.6 Q115.714 1318.84 115.714 1317.15 Q115.714 1314.4 113.77 1312.66 Q111.848 1310.92 108.746 1310.92 Q106.547 1310.92 104.094 1311.69 Q101.663 1312.45 98.8854 1314 L98.8854 1309.28 Q101.709 1308.15 104.163 1307.57 Q106.617 1306.99 108.654 1306.99 Q114.024 1306.99 117.219 1309.67 Q120.413 1312.36 120.413 1316.85 Q120.413 1318.98 119.603 1320.9 Q118.816 1322.8 116.709 1325.39 Q116.131 1326.06 113.029 1329.28 Q109.927 1332.47 104.279 1338.24 Z" fill="#000000" fill-rule="nonzero" fill-opacity="1" /><path clip-path="url(#clip600)" d="M64.0708 950.57 Q60.4597 950.57 58.631 954.134 Q56.8254 957.676 56.8254 964.806 Q56.8254 971.912 58.631 975.477 Q60.4597 979.018 64.0708 979.018 Q67.705 979.018 69.5105 975.477 Q71.3392 971.912 71.3392 964.806 Q71.3392 957.676 69.5105 954.134 Q67.705 950.57 64.0708 950.57 M64.0708 946.866 Q69.8809 946.866 72.9365 951.472 Q76.0151 956.056 76.0151 964.806 Q76.0151 973.532 72.9365 978.139 Q69.8809 982.722 64.0708 982.722 Q58.2606 982.722 55.1819 978.139 Q52.1264 973.532 52.1264 964.806 Q52.1264 956.056 55.1819 951.472 Q58.2606 946.866 64.0708 946.866 Z" fill="#000000" fill-rule="nonzero" fill-opacity="1" /><path clip-path="url(#clip600)" d="M84.2327 976.171 L89.1169 976.171 L89.1169 982.051 L84.2327 982.051 L84.2327 976.171 Z" fill="#000000" fill-rule="nonzero" fill-opacity="1" /><path clip-path="url(#clip600)" d="M113.469 963.417 Q116.825 964.134 118.7 966.403 Q120.598 968.671 120.598 972.005 Q120.598 977.12 117.08 979.921 Q113.561 982.722 107.08 982.722 Q104.904 982.722 102.589 982.282 Q100.297 981.866 97.8437 981.009 L97.8437 976.495 Q99.7882 977.63 102.103 978.208 Q104.418 978.787 106.941 978.787 Q111.339 978.787 113.631 977.051 Q115.945 975.315 115.945 972.005 Q115.945 968.949 113.793 967.236 Q111.663 965.5 107.844 965.5 L103.816 965.5 L103.816 961.657 L108.029 961.657 Q111.478 961.657 113.307 960.292 Q115.135 958.903 115.135 956.31 Q115.135 953.648 113.237 952.236 Q111.362 950.801 107.844 950.801 Q105.922 950.801 103.723 951.218 Q101.524 951.634 98.8854 952.514 L98.8854 948.347 Q101.547 947.607 103.862 947.236 Q106.2 946.866 108.26 946.866 Q113.584 946.866 116.686 949.296 Q119.788 951.704 119.788 955.824 Q119.788 958.694 118.145 960.685 Q116.501 962.653 113.469 963.417 Z" fill="#000000" fill-rule="nonzero" fill-opacity="1" /><path clip-path="url(#clip600)" d="M62.9365 590.447 Q59.3254 590.447 57.4967 594.011 Q55.6912 597.553 55.6912 604.683 Q55.6912 611.789 57.4967 615.354 Q59.3254 618.896 62.9365 618.896 Q66.5707 618.896 68.3763 615.354 Q70.205 611.789 70.205 604.683 Q70.205 597.553 68.3763 594.011 Q66.5707 590.447 62.9365 590.447 M62.9365 586.743 Q68.7467 586.743 71.8022 591.349 Q74.8809 595.933 74.8809 604.683 Q74.8809 613.409 71.8022 618.016 Q68.7467 622.599 62.9365 622.599 Q57.1264 622.599 54.0477 618.016 Q50.9921 613.409 50.9921 604.683 Q50.9921 595.933 54.0477 591.349 Q57.1264 586.743 62.9365 586.743 Z" fill="#000000" fill-rule="nonzero" fill-opacity="1" /><path clip-path="url(#clip600)" d="M83.0984 616.048 L87.9827 616.048 L87.9827 621.928 L83.0984 621.928 L83.0984 616.048 Z" fill="#000000" fill-rule="nonzero" fill-opacity="1" /><path clip-path="url(#clip600)" d="M111.015 591.442 L99.2095 609.891 L111.015 609.891 L111.015 591.442 M109.788 587.368 L115.668 587.368 L115.668 609.891 L120.598 609.891 L120.598 613.78 L115.668 613.78 L115.668 621.928 L111.015 621.928 L111.015 613.78 L95.4132 613.78 L95.4132 609.266 L109.788 587.368 Z" fill="#000000" fill-rule="nonzero" fill-opacity="1" /><path clip-path="url(#clip600)" d="M64.418 230.324 Q60.8069 230.324 58.9782 233.888 Q57.1726 237.43 57.1726 244.56 Q57.1726 251.666 58.9782 255.231 Q60.8069 258.773 64.418 258.773 Q68.0522 258.773 69.8578 255.231 Q71.6865 251.666 71.6865 244.56 Q71.6865 237.43 69.8578 233.888 Q68.0522 230.324 64.418 230.324 M64.418 226.62 Q70.2281 226.62 73.2837 231.226 Q76.3624 235.81 76.3624 244.56 Q76.3624 253.287 73.2837 257.893 Q70.2281 262.476 64.418 262.476 Q58.6078 262.476 55.5291 257.893 Q52.4736 253.287 52.4736 244.56 Q52.4736 235.81 55.5291 231.226 Q58.6078 226.62 64.418 226.62 Z" fill="#000000" fill-rule="nonzero" fill-opacity="1" /><path clip-path="url(#clip600)" d="M84.5799 255.925 L89.4641 255.925 L89.4641 261.805 L84.5799 261.805 L84.5799 255.925 Z" fill="#000000" fill-rule="nonzero" fill-opacity="1" /><path clip-path="url(#clip600)" d="M99.6956 227.245 L118.052 227.245 L118.052 231.18 L103.978 231.18 L103.978 239.652 Q104.996 239.305 106.015 239.143 Q107.033 238.958 108.052 238.958 Q113.839 238.958 117.219 242.129 Q120.598 245.3 120.598 250.717 Q120.598 256.296 117.126 259.398 Q113.654 262.476 107.334 262.476 Q105.159 262.476 102.89 262.106 Q100.645 261.736 98.2372 260.995 L98.2372 256.296 Q100.321 257.43 102.543 257.986 Q104.765 258.541 107.242 258.541 Q111.246 258.541 113.584 256.435 Q115.922 254.328 115.922 250.717 Q115.922 247.106 113.584 245 Q111.246 242.893 107.242 242.893 Q105.367 242.893 103.492 243.31 Q101.64 243.726 99.6956 244.606 L99.6956 227.245 Z" fill="#000000" fill-rule="nonzero" fill-opacity="1" /><polyline clip-path="url(#clip602)" style="stroke:#009af9; stroke-linecap:round; stroke-linejoin:round; stroke-width:4; stroke-opacity:1; fill:none" points="218.754,87.9763 219.79,89.5653 220.825,91.1526 221.861,92.7383 222.897,94.3222 223.933,95.9044 224.969,97.4848 226.005,99.0636 227.041,100.641 228.077,102.216 229.113,103.79 230.149,105.362 231.185,106.932 232.221,108.501 233.257,110.068 234.292,111.633 235.328,113.196 236.364,114.758 237.4,116.318 238.436,117.877 239.472,119.434 240.508,120.989 241.544,122.542 242.58,124.094 243.616,125.644 244.652,127.192 245.688,128.739 246.724,130.284 247.759,131.828 248.795,133.369 249.831,134.909 250.867,136.448 251.903,137.984 252.939,139.52 253.975,141.053 255.011,142.585 256.047,144.115 257.083,145.643 258.119,147.17 259.155,148.695 260.191,150.219 261.227,151.741 262.262,153.261 263.298,154.779 264.334,156.296 265.37,157.812 266.406,159.325 267.442,160.837 268.478,162.348 269.514,163.857 270.55,165.364 271.586,166.869 272.622,168.373 273.658,169.875 274.694,171.376 275.729,172.875 276.765,174.372 277.801,175.868 278.837,177.362 279.873,178.855 280.909,180.346 281.945,181.835 282.981,183.323 284.017,184.809 285.053,186.293 286.089,187.776 287.125,189.258 288.161,190.737 289.196,192.215 290.232,193.692 291.268,195.167 292.304,196.64 293.34,198.112 294.376,199.582 295.412,201.05 296.448,202.517 297.484,203.983 298.52,205.447 299.556,206.909 300.592,208.369 301.628,209.828 302.663,211.286 303.699,212.742 304.735,214.196 305.771,215.649 306.807,217.1 307.843,218.549 308.879,219.997 309.915,221.444 310.951,222.889 311.987,224.332 313.023,225.774 314.059,227.214 315.095,228.653 316.13,230.09 317.166,231.525 318.202,232.959 319.238,234.392 320.274,235.823 321.31,237.252 322.346,238.68 323.382,240.106 324.418,241.531 325.454,242.954 326.49,244.376 327.526,245.796 328.562,247.214 329.597,248.631 330.633,250.047 331.669,251.461 332.705,252.873 333.741,254.284 334.777,255.693 335.813,257.101 336.849,258.508 337.885,259.913 338.921,261.316 339.957,262.718 340.993,264.118 342.029,265.517 343.064,266.914 344.1,268.31 345.136,269.704 346.172,271.096 347.208,272.488 348.244,273.877 349.28,275.266 350.316,276.652 351.352,278.037 352.388,279.421 353.424,280.803 354.46,282.184 355.496,283.563 356.531,284.941 357.567,286.317 358.603,287.692 359.639,289.065 360.675,290.437 361.711,291.807 362.747,293.176 363.783,294.543 364.819,295.909 365.855,297.274 366.891,298.637 367.927,299.998 368.963,301.358 369.998,302.716 371.034,304.074 372.07,305.429 373.106,306.783 374.142,308.136 375.178,309.487 376.214,310.837 377.25,312.185 378.286,313.532 379.322,314.877 380.358,316.221 381.394,317.563 382.43,318.904 383.465,320.244 384.501,321.582 385.537,322.919 386.573,324.254 387.609,325.587 388.645,326.92 389.681,328.251 390.717,329.58 391.753,330.908 392.789,332.235 393.825,333.56 394.861,334.883 395.897,336.206 396.932,337.527 397.968,338.846 399.004,340.164 400.04,341.481 401.076,342.796 402.112,344.109 403.148,345.422 404.184,346.733 405.22,348.042 406.256,349.35 407.292,350.657 408.328,351.962 409.364,353.266 410.399,354.568 411.435,355.869 412.471,357.169 413.507,358.467 414.543,359.764 415.579,361.059 416.615,362.353 417.651,363.646 418.687,364.937 419.723,366.227 420.759,367.515 421.795,368.802 422.831,370.088 423.866,371.372 424.902,372.655 425.938,373.937 426.974,375.217 428.01,376.496 429.046,377.773 430.082,379.049 431.118,380.323 432.154,381.597 433.19,382.869 434.226,384.139 435.262,385.408 436.298,386.676 437.333,387.942 438.369,389.207 439.405,390.471 440.441,391.733 441.477,392.994 442.513,394.254 443.549,395.512 444.585,396.769 445.621,398.024 446.657,399.278 447.693,400.531 448.729,401.783 449.765,403.033 450.8,404.281 451.836,405.529 452.872,406.775 453.908,408.02 454.944,409.263 455.98,410.505 457.016,411.746 458.052,412.985 459.088,414.223 460.124,415.46 461.16,416.695 462.196,417.929 463.232,419.162 464.267,420.393 465.303,421.623 466.339,422.852 467.375,424.079 468.411,425.305 469.447,426.53 470.483,427.754 471.519,428.976 472.555,430.197 473.591,431.416 474.627,432.634 475.663,433.851 476.699,435.067 477.734,436.281 478.77,437.494 479.806,438.706 480.842,439.916 481.878,441.125 482.914,442.333 483.95,443.539 484.986,444.744 486.022,445.948 487.058,447.151 488.094,448.352 489.13,449.552 490.166,450.751 491.202,451.948 492.237,453.144 493.273,454.339 494.309,455.533 495.345,456.725 496.381,457.916 497.417,459.106 498.453,460.294 499.489,461.481 500.525,462.667 501.561,463.852 502.597,465.035 503.633,466.217 504.669,467.398 505.704,468.577 506.74,469.756 507.776,470.933 508.812,472.108 509.848,473.283 510.884,474.456 511.92,475.628 512.956,476.799 513.992,477.968 515.028,479.136 516.064,480.303 517.1,481.469 518.136,482.633 519.171,483.797 520.207,484.958 521.243,486.119 522.279,487.279 523.315,488.437 524.351,489.594 525.387,490.749 526.423,491.904 527.459,493.057 528.495,494.209 529.531,495.36 530.567,496.51 531.603,497.658 532.638,498.805 533.674,499.951 534.71,501.095 535.746,502.239 536.782,503.381 537.818,504.522 538.854,505.662 539.89,506.8 540.926,507.938 541.962,509.074 542.998,510.208 544.034,511.342 545.07,512.475 546.105,513.606 547.141,514.736 548.177,515.865 549.213,516.992 550.249,518.119 551.285,519.244 552.321,520.368 553.357,521.491 554.393,522.612 555.429,523.733 556.465,524.852 557.501,525.97 558.537,527.087 559.572,528.202 560.608,529.317 561.644,530.43 562.68,531.542 563.716,532.653 564.752,533.762 565.788,534.871 566.824,535.978 567.86,537.084 568.896,538.189 569.932,539.293 570.968,540.396 572.004,541.497 573.039,542.597 574.075,543.696 575.111,544.794 576.147,545.891 577.183,546.986 578.219,548.081 579.255,549.174 580.291,550.266 581.327,551.357 582.363,552.447 583.399,553.535 584.435,554.623 585.471,555.709 586.506,556.794 587.542,557.878 588.578,558.961 589.614,560.042 590.65,561.123 591.686,562.202 592.722,563.28 593.758,564.357 594.794,565.433 595.83,566.508 596.866,567.581 597.902,568.654 598.938,569.725 599.973,570.795 601.009,571.864 602.045,572.932 603.081,573.999 604.117,575.065 605.153,576.129 606.189,577.192 607.225,578.255 608.261,579.316 609.297,580.376 610.333,581.435 611.369,582.492 612.405,583.549 613.44,584.604 614.476,585.659 615.512,586.712 616.548,587.764 617.584,588.815 618.62,589.865 619.656,590.914 620.692,591.961 621.728,593.008 622.764,594.053 623.8,595.098 624.836,596.141 625.872,597.183 626.907,598.224 627.943,599.264 628.979,600.303 630.015,601.341 631.051,602.377 632.087,603.413 633.123,604.447 634.159,605.48 635.195,606.513 636.231,607.544 637.267,608.574 638.303,609.603 639.339,610.631 640.374,611.657 641.41,612.683 642.446,613.708 643.482,614.731 644.518,615.754 645.554,616.775 646.59,617.795 647.626,618.814 648.662,619.833 649.698,620.85 650.734,621.866 651.77,622.88 652.806,623.894 653.841,624.907 654.877,625.919 655.913,626.929 656.949,627.939 657.985,628.947 659.021,629.955 660.057,630.961 661.093,631.966 662.129,632.971 663.165,633.974 664.201,634.976 665.237,635.977 666.273,636.977 667.308,637.976 668.344,638.974 669.38,639.97 670.416,640.966 671.452,641.961 672.488,642.955 673.524,643.947 674.56,644.939 675.596,645.929 676.632,646.919 677.668,647.907 678.704,648.895 679.74,649.881 680.775,650.867 681.811,651.851 682.847,652.834 683.883,653.816 684.919,654.798 685.955,655.778 686.991,656.757 688.027,657.735 689.063,658.712 690.099,659.688 691.135,660.663 692.171,661.637 693.207,662.61 694.242,663.582 695.278,664.553 696.314,665.523 697.35,666.492 698.386,667.46 699.422,668.427 700.458,669.392 701.494,670.357 702.53,671.321 703.566,672.284 704.602,673.246 705.638,674.206 706.674,675.166 707.709,676.125 708.745,677.083 709.781,678.04 710.817,678.995 711.853,679.95 712.889,680.904 713.925,681.857 714.961,682.808 715.997,683.759 717.033,684.709 718.069,685.658 719.105,686.605 720.141,687.552 721.177,688.498 722.212,689.443 723.248,690.387 724.284,691.33 725.32,692.271 726.356,693.212 727.392,694.152 728.428,695.091 729.464,696.029 730.5,696.966 731.536,697.902 732.572,698.837 733.608,699.771 734.644,700.704 735.679,701.636 736.715,702.567 737.751,703.497 738.787,704.426 739.823,705.354 740.859,706.282 741.895,707.208 742.931,708.133 743.967,709.057 745.003,709.981 746.039,710.903 747.075,711.825 748.111,712.745 749.146,713.665 750.182,714.583 751.218,715.501 752.254,716.417 753.29,717.333 754.326,718.248 755.362,719.161 756.398,720.074 757.434,720.986 758.47,721.897 759.506,722.807 760.542,723.716 761.578,724.624 762.613,725.531 763.649,726.437 764.685,727.343 765.721,728.247 766.757,729.15 767.793,730.053 768.829,730.954 769.865,731.855 770.901,732.754 771.937,733.653 772.973,734.551 774.009,735.448 775.045,736.344 776.08,737.239 777.116,738.133 778.152,739.026 779.188,739.918 780.224,740.809 781.26,741.699 782.296,742.589 783.332,743.477 784.368,744.365 785.404,745.252 786.44,746.137 787.476,747.022 788.512,747.906 789.547,748.789 790.583,749.671 791.619,750.552 792.655,751.432 793.691,752.312 794.727,753.19 795.763,754.068 796.799,754.944 797.835,755.82 798.871,756.695 799.907,757.569 800.943,758.442 801.979,759.314 803.014,760.185 804.05,761.055 805.086,761.925 806.122,762.793 807.158,763.661 808.194,764.527 809.23,765.393 810.266,766.258 811.302,767.122 812.338,767.985 813.374,768.848 814.41,769.709 815.446,770.569 816.481,771.429 817.517,772.288 818.553,773.145 819.589,774.002 820.625,774.858 821.661,775.714 822.697,776.568 823.733,777.421 824.769,778.274 825.805,779.125 826.841,779.976 827.877,780.826 828.913,781.675 829.948,782.523 830.984,783.37 832.02,784.217 833.056,785.062 834.092,785.907 835.128,786.751 836.164,787.594 837.2,788.436 838.236,789.277 839.272,790.117 840.308,790.957 841.344,791.795 842.38,792.633 843.415,793.47 844.451,794.306 845.487,795.141 846.523,795.976 847.559,796.809 848.595,797.642 849.631,798.474 850.667,799.304 851.703,800.134 852.739,800.964 853.775,801.792 854.811,802.62 855.847,803.446 856.882,804.272 857.918,805.097 858.954,805.921 859.99,806.744 861.026,807.567 862.062,808.389 863.098,809.209 864.134,810.029 865.17,810.848 866.206,811.667 867.242,812.484 868.278,813.301 869.314,814.116 870.349,814.931 871.385,815.745 872.421,816.559 873.457,817.371 874.493,818.183 875.529,818.993 876.565,819.803 877.601,820.612 878.637,821.421 879.673,822.228 880.709,823.035 881.745,823.841 882.781,824.646 883.816,825.45 884.852,826.253 885.888,827.056 886.924,827.858 887.96,828.658 888.996,829.459 890.032,830.258 891.068,831.056 892.104,831.854 893.14,832.651 894.176,833.447 895.212,834.242 896.248,835.037 897.283,835.83 898.319,836.623 899.355,837.415 900.391,838.206 901.427,838.997 902.463,839.786 903.499,840.575 904.535,841.363 905.571,842.15 906.607,842.937 907.643,843.722 908.679,844.507 909.715,845.291 910.75,846.074 911.786,846.857 912.822,847.638 913.858,848.419 914.894,849.199 915.93,849.979 916.966,850.757 918.002,851.535 919.038,852.312 920.074,853.088 921.11,853.863 922.146,854.638 923.182,855.412 924.217,856.185 925.253,856.957 926.289,857.728 927.325,858.499 928.361,859.269 929.397,860.038 930.433,860.806 931.469,861.574 932.505,862.34 933.541,863.106 934.577,863.872 935.613,864.636 936.649,865.4 937.685,866.163 938.72,866.925 939.756,867.686 940.792,868.447 941.828,869.207 942.864,869.966 943.9,870.724 944.936,871.482 945.972,872.239 947.008,872.995 948.044,873.75 949.08,874.504 950.116,875.258 951.152,876.011 952.187,876.763 953.223,877.515 954.259,878.266 955.295,879.016 956.331,879.765 957.367,880.513 958.403,881.261 959.439,882.008 960.475,882.754 961.511,883.5 962.547,884.244 963.583,884.988 964.619,885.732 965.654,886.474 966.69,887.216 967.726,887.957 968.762,888.697 969.798,889.437 970.834,890.175 971.87,890.914 972.906,891.651 973.942,892.387 974.978,893.123 976.014,893.858 977.05,894.593 978.086,895.326 979.121,896.059 980.157,896.791 981.193,897.523 982.229,898.254 983.265,898.984 984.301,899.713 985.337,900.441 986.373,901.169 987.409,901.896 988.445,902.622 989.481,903.348 990.517,904.073 991.553,904.797 992.588,905.521 993.624,906.243 994.66,906.965 995.696,907.687 996.732,908.407 997.768,909.127 998.804,909.846 999.84,910.565 1000.88,911.282 1001.91,911.999 1002.95,912.716 1003.98,913.431 1005.02,914.146 1006.06,914.86 1007.09,915.574 1008.13,916.286 1009.16,916.998 1010.2,917.71 1011.24,918.42 1012.27,919.13 1013.31,919.839 1014.34,920.548 1015.38,921.256 1016.41,921.963 1017.45,922.669 1018.49,923.375 1019.52,924.08 1020.56,924.784 1021.59,925.488 1022.63,926.191 1023.67,926.893 1024.7,927.594 1025.74,928.295 1026.77,928.995 1027.81,929.695 1028.85,930.394 1029.88,931.092 1030.92,931.789 1031.95,932.486 1032.99,933.182 1034.03,933.877 1035.06,934.572 1036.1,935.265 1037.13,935.959 1038.17,936.651 1039.2,937.343 1040.24,938.034 1041.28,938.725 1042.31,939.415 1043.35,940.104 1044.38,940.792 1045.42,941.48 1046.46,942.167 1047.49,942.854 1048.53,943.539 1049.56,944.224 1050.6,944.909 1051.64,945.593 1052.67,946.276 1053.71,946.958 1054.74,947.64 1055.78,948.321 1056.82,949.001 1057.85,949.681 1058.89,950.36 1059.92,951.038 1060.96,951.716 1062,952.393 1063.03,953.07 1064.07,953.745 1065.1,954.42 1066.14,955.095 1067.17,955.768 1068.21,956.442 1069.25,957.114 1070.28,957.786 1071.32,958.457 1072.35,959.127 1073.39,959.797 1074.43,960.466 1075.46,961.135 1076.5,961.802 1077.53,962.47 1078.57,963.136 1079.61,963.802 1080.64,964.467 1081.68,965.132 1082.71,965.796 1083.75,966.459 1084.79,967.122 1085.82,967.784 1086.86,968.445 1087.89,969.106 1088.93,969.766 1089.97,970.425 1091,971.084 1092.04,971.742 1093.07,972.399 1094.11,973.056 1095.14,973.712 1096.18,974.368 1097.22,975.023 1098.25,975.677 1099.29,976.331 1100.32,976.984 1101.36,977.636 1102.4,978.288 1103.43,978.939 1104.47,979.589 1105.5,980.239 1106.54,980.888 1107.58,981.537 1108.61,982.185 1109.65,982.832 1110.68,983.479 1111.72,984.125 1112.76,984.77 1113.79,985.415 1114.83,986.059 1115.86,986.703 1116.9,987.345 1117.94,987.988 1118.97,988.629 1120.01,989.27 1121.04,989.911 1122.08,990.551 1123.11,991.19 1124.15,991.828 1125.19,992.466 1126.22,993.104 1127.26,993.74 1128.29,994.377 1129.33,995.012 1130.37,995.647 1131.4,996.281 1132.44,996.915 1133.47,997.548 1134.51,998.18 1135.55,998.812 1136.58,999.443 1137.62,1000.07 1138.65,1000.7 1139.69,1001.33 1140.73,1001.96 1141.76,1002.59 1142.8,1003.22 1143.83,1003.84 1144.87,1004.47 1145.91,1005.1 1146.94,1005.72 1147.98,1006.35 1149.01,1006.97 1150.05,1007.59 1151.08,1008.22 1152.12,1008.84 1153.16,1009.46 1154.19,1010.08 1155.23,1010.7 1156.26,1011.32 1157.3,1011.94 1158.34,1012.56 1159.37,1013.18 1160.41,1013.79 1161.44,1014.41 1162.48,1015.03 1163.52,1015.64 1164.55,1016.26 1165.59,1016.87 1166.62,1017.49 1167.66,1018.1 1168.7,1018.71 1169.73,1019.32 1170.77,1019.94 1171.8,1020.55 1172.84,1021.16 1173.88,1021.77 1174.91,1022.38 1175.95,1022.98 1176.98,1023.59 1178.02,1024.2 1179.05,1024.81 1180.09,1025.41 1181.13,1026.02 1182.16,1026.62 1183.2,1027.23 1184.23,1027.83 1185.27,1028.43 1186.31,1029.04 1187.34,1029.64 1188.38,1030.24 1189.41,1030.84 1190.45,1031.44 1191.49,1032.04 1192.52,1032.64 1193.56,1033.24 1194.59,1033.84 1195.63,1034.44 1196.67,1035.03 1197.7,1035.63 1198.74,1036.23 1199.77,1036.82 1200.81,1037.42 1201.84,1038.01 1202.88,1038.6 1203.92,1039.2 1204.95,1039.79 1205.99,1040.38 1207.02,1040.97 1208.06,1041.56 1209.1,1042.15 1210.13,1042.74 1211.17,1043.33 1212.2,1043.92 1213.24,1044.51 1214.28,1045.1 1215.31,1045.68 1216.35,1046.27 1217.38,1046.86 1218.42,1047.44 1219.46,1048.03 1220.49,1048.61 1221.53,1049.19 1222.56,1049.78 1223.6,1050.36 1224.64,1050.94 1225.67,1051.52 1226.71,1052.1 1227.74,1052.68 1228.78,1053.26 1229.81,1053.84 1230.85,1054.42 1231.89,1055 1232.92,1055.58 1233.96,1056.15 1234.99,1056.73 1236.03,1057.31 1237.07,1057.88 1238.1,1058.46 1239.14,1059.03 1240.17,1059.6 1241.21,1060.18 1242.25,1060.75 1243.28,1061.32 1244.32,1061.89 1245.35,1062.46 1246.39,1063.03 1247.43,1063.6 1248.46,1064.17 1249.5,1064.74 1250.53,1065.31 1251.57,1065.88 1252.61,1066.45 1253.64,1067.01 1254.68,1067.58 1255.71,1068.15 1256.75,1068.71 1257.78,1069.27 1258.82,1069.84 1259.86,1070.4 1260.89,1070.97 1261.93,1071.53 1262.96,1072.09 1264,1072.65 1265.04,1073.21 1266.07,1073.77 1267.11,1074.33 1268.14,1074.89 1269.18,1075.45 1270.22,1076.01 1271.25,1076.57 1272.29,1077.12 1273.32,1077.68 1274.36,1078.24 1275.4,1078.79 1276.43,1079.35 1277.47,1079.9 1278.5,1080.46 1279.54,1081.01 1280.58,1081.56 1281.61,1082.12 1282.65,1082.67 1283.68,1083.22 1284.72,1083.77 1285.75,1084.32 1286.79,1084.87 1287.83,1085.42 1288.86,1085.97 1289.9,1086.52 1290.93,1087.07 1291.97,1087.61 1293.01,1088.16 1294.04,1088.71 1295.08,1089.25 1296.11,1089.8 1297.15,1090.34 1298.19,1090.89 1299.22,1091.43 1300.26,1091.98 1301.29,1092.52 1302.33,1093.06 1303.37,1093.6 1304.4,1094.14 1305.44,1094.69 1306.47,1095.23 1307.51,1095.77 1308.55,1096.3 1309.58,1096.84 1310.62,1097.38 1311.65,1097.92 1312.69,1098.46 1313.72,1098.99 1314.76,1099.53 1315.8,1100.07 1316.83,1100.6 1317.87,1101.14 1318.9,1101.67 1319.94,1102.21 1320.98,1102.74 1322.01,1103.27 1323.05,1103.8 1324.08,1104.34 1325.12,1104.87 1326.16,1105.4 1327.19,1105.93 1328.23,1106.46 1329.26,1106.99 1330.3,1107.52 1331.34,1108.05 1332.37,1108.57 1333.41,1109.1 1334.44,1109.63 1335.48,1110.15 1336.52,1110.68 1337.55,1111.21 1338.59,1111.73 1339.62,1112.26 1340.66,1112.78 1341.69,1113.3 1342.73,1113.83 1343.77,1114.35 1344.8,1114.87 1345.84,1115.39 1346.87,1115.92 1347.91,1116.44 1348.95,1116.96 1349.98,1117.48 1351.02,1118 1352.05,1118.51 1353.09,1119.03 1354.13,1119.55 1355.16,1120.07 1356.2,1120.59 1357.23,1121.1 1358.27,1121.62 1359.31,1122.13 1360.34,1122.65 1361.38,1123.16 1362.41,1123.68 1363.45,1124.19 1364.48,1124.7 1365.52,1125.22 1366.56,1125.73 1367.59,1126.24 1368.63,1126.75 1369.66,1127.26 1370.7,1127.77 1371.74,1128.28 1372.77,1128.79 1373.81,1129.3 1374.84,1129.81 1375.88,1130.32 1376.92,1130.83 1377.95,1131.33 1378.99,1131.84 1380.02,1132.35 1381.06,1132.85 1382.1,1133.36 1383.13,1133.86 1384.17,1134.37 1385.2,1134.87 1386.24,1135.37 1387.28,1135.88 1388.31,1136.38 1389.35,1136.88 1390.38,1137.38 1391.42,1137.88 1392.45,1138.39 1393.49,1138.89 1394.53,1139.39 1395.56,1139.88 1396.6,1140.38 1397.63,1140.88 1398.67,1141.38 1399.71,1141.88 1400.74,1142.37 1401.78,1142.87 1402.81,1143.37 1403.85,1143.86 1404.89,1144.36 1405.92,1144.85 1406.96,1145.35 1407.99,1145.84 1409.03,1146.34 1410.07,1146.83 1411.1,1147.32 1412.14,1147.81 1413.17,1148.3 1414.21,1148.8 1415.25,1149.29 1416.28,1149.78 1417.32,1150.27 1418.35,1150.76 1419.39,1151.25 1420.42,1151.73 1421.46,1152.22 1422.5,1152.71 1423.53,1153.2 1424.57,1153.68 1425.6,1154.17 1426.64,1154.66 1427.68,1155.14 1428.71,1155.63 1429.75,1156.11 1430.78,1156.6 1431.82,1157.08 1432.86,1157.56 1433.89,1158.05 1434.93,1158.53 1435.96,1159.01 1437,1159.49 1438.04,1159.97 1439.07,1160.45 1440.11,1160.94 1441.14,1161.42 1442.18,1161.89 1443.22,1162.37 1444.25,1162.85 1445.29,1163.33 1446.32,1163.81 1447.36,1164.29 1448.39,1164.76 1449.43,1165.24 1450.47,1165.71 1451.5,1166.19 1452.54,1166.67 1453.57,1167.14 1454.61,1167.61 1455.65,1168.09 1456.68,1168.56 1457.72,1169.04 1458.75,1169.51 1459.79,1169.98 1460.83,1170.45 1461.86,1170.92 1462.9,1171.39 1463.93,1171.86 1464.97,1172.34 1466.01,1172.8 1467.04,1173.27 1468.08,1173.74 1469.11,1174.21 1470.15,1174.68 1471.19,1175.15 1472.22,1175.61 1473.26,1176.08 1474.29,1176.55 1475.33,1177.01 1476.36,1177.48 1477.4,1177.94 1478.44,1178.41 1479.47,1178.87 1480.51,1179.34 1481.54,1179.8 1482.58,1180.26 1483.62,1180.73 1484.65,1181.19 1485.69,1181.65 1486.72,1182.11 1487.76,1182.57 1488.8,1183.03 1489.83,1183.49 1490.87,1183.95 1491.9,1184.41 1492.94,1184.87 1493.98,1185.33 1495.01,1185.79 1496.05,1186.25 1497.08,1186.7 1498.12,1187.16 1499.15,1187.62 1500.19,1188.07 1501.23,1188.53 1502.26,1188.98 1503.3,1189.44 1504.33,1189.89 1505.37,1190.35 1506.41,1190.8 1507.44,1191.25 1508.48,1191.71 1509.51,1192.16 1510.55,1192.61 1511.59,1193.06 1512.62,1193.52 1513.66,1193.97 1514.69,1194.42 1515.73,1194.87 1516.77,1195.32 1517.8,1195.77 1518.84,1196.21 1519.87,1196.66 1520.91,1197.11 1521.95,1197.56 1522.98,1198.01 1524.02,1198.45 1525.05,1198.9 1526.09,1199.35 1527.12,1199.79 1528.16,1200.24 1529.2,1200.68 1530.23,1201.13 1531.27,1201.57 1532.3,1202.02 1533.34,1202.46 1534.38,1202.9 1535.41,1203.34 1536.45,1203.79 1537.48,1204.23 1538.52,1204.67 1539.56,1205.11 1540.59,1205.55 1541.63,1205.99 1542.66,1206.43 1543.7,1206.87 1544.74,1207.31 1545.77,1207.75 1546.81,1208.19 1547.84,1208.63 1548.88,1209.06 1549.92,1209.5 1550.95,1209.94 1551.99,1210.37 1553.02,1210.81 1554.06,1211.25 1555.09,1211.68 1556.13,1212.12 1557.17,1212.55 1558.2,1212.99 1559.24,1213.42 1560.27,1213.85 1561.31,1214.29 1562.35,1214.72 1563.38,1215.15 1564.42,1215.58 1565.45,1216.02 1566.49,1216.45 1567.53,1216.88 1568.56,1217.31 1569.6,1217.74 1570.63,1218.17 1571.67,1218.6 1572.71,1219.03 1573.74,1219.45 1574.78,1219.88 1575.81,1220.31 1576.85,1220.74 1577.89,1221.17 1578.92,1221.59 1579.96,1222.02 1580.99,1222.44 1582.03,1222.87 1583.06,1223.3 1584.1,1223.72 1585.14,1224.14 1586.17,1224.57 1587.21,1224.99 1588.24,1225.42 1589.28,1225.84 1590.32,1226.26 1591.35,1226.68 1592.39,1227.11 1593.42,1227.53 1594.46,1227.95 1595.5,1228.37 1596.53,1228.79 1597.57,1229.21 1598.6,1229.63 1599.64,1230.05 1600.68,1230.47 1601.71,1230.89 1602.75,1231.31 1603.78,1231.72 1604.82,1232.14 1605.86,1232.56 1606.89,1232.98 1607.93,1233.39 1608.96,1233.81 1610,1234.22 1611.03,1234.64 1612.07,1235.06 1613.11,1235.47 1614.14,1235.88 1615.18,1236.3 1616.21,1236.71 1617.25,1237.13 1618.29,1237.54 1619.32,1237.95 1620.36,1238.36 1621.39,1238.78 1622.43,1239.19 1623.47,1239.6 1624.5,1240.01 1625.54,1240.42 1626.57,1240.83 1627.61,1241.24 1628.65,1241.65 1629.68,1242.06 1630.72,1242.47 1631.75,1242.88 1632.79,1243.28 1633.83,1243.69 1634.86,1244.1 1635.9,1244.51 1636.93,1244.91 1637.97,1245.32 1639,1245.72 1640.04,1246.13 1641.08,1246.54 1642.11,1246.94 1643.15,1247.34 1644.18,1247.75 1645.22,1248.15 1646.26,1248.56 1647.29,1248.96 1648.33,1249.36 1649.36,1249.77 1650.4,1250.17 1651.44,1250.57 1652.47,1250.97 1653.51,1251.37 1654.54,1251.77 1655.58,1252.17 1656.62,1252.57 1657.65,1252.97 1658.69,1253.37 1659.72,1253.77 1660.76,1254.17 1661.79,1254.57 1662.83,1254.97 1663.87,1255.36 1664.9,1255.76 1665.94,1256.16 1666.97,1256.56 1668.01,1256.95 1669.05,1257.35 1670.08,1257.74 1671.12,1258.14 1672.15,1258.53 1673.19,1258.93 1674.23,1259.32 1675.26,1259.72 1676.3,1260.11 1677.33,1260.51 1678.37,1260.9 1679.41,1261.29 1680.44,1261.68 1681.48,1262.08 1682.51,1262.47 1683.55,1262.86 1684.59,1263.25 1685.62,1263.64 1686.66,1264.03 1687.69,1264.42 1688.73,1264.81 1689.76,1265.2 1690.8,1265.59 1691.84,1265.98 1692.87,1266.37 1693.91,1266.75 1694.94,1267.14 1695.98,1267.53 1697.02,1267.92 1698.05,1268.3 1699.09,1268.69 1700.12,1269.08 1701.16,1269.46 1702.2,1269.85 1703.23,1270.23 1704.27,1270.62 1705.3,1271 1706.34,1271.39 1707.38,1271.77 1708.41,1272.15 1709.45,1272.54 1710.48,1272.92 1711.52,1273.3 1712.56,1273.69 1713.59,1274.07 1714.63,1274.45 1715.66,1274.83 1716.7,1275.21 1717.73,1275.59 1718.77,1275.97 1719.81,1276.35 1720.84,1276.73 1721.88,1277.11 1722.91,1277.49 1723.95,1277.87 1724.99,1278.25 1726.02,1278.63 1727.06,1279 1728.09,1279.38 1729.13,1279.76 1730.17,1280.14 1731.2,1280.51 1732.24,1280.89 1733.27,1281.27 1734.31,1281.64 1735.35,1282.02 1736.38,1282.39 1737.42,1282.77 1738.45,1283.14 1739.49,1283.51 1740.53,1283.89 1741.56,1284.26 1742.6,1284.63 1743.63,1285.01 1744.67,1285.38 1745.7,1285.75 1746.74,1286.12 1747.78,1286.5 1748.81,1286.87 1749.85,1287.24 1750.88,1287.61 1751.92,1287.98 1752.96,1288.35 1753.99,1288.72 1755.03,1289.09 1756.06,1289.46 1757.1,1289.83 1758.14,1290.2 1759.17,1290.56 1760.21,1290.93 1761.24,1291.3 1762.28,1291.67 1763.32,1292.03 1764.35,1292.4 1765.39,1292.77 1766.42,1293.13 1767.46,1293.5 1768.5,1293.86 1769.53,1294.23 1770.57,1294.59 1771.6,1294.96 1772.64,1295.32 1773.67,1295.69 1774.71,1296.05 1775.75,1296.41 1776.78,1296.78 1777.82,1297.14 1778.85,1297.5 1779.89,1297.86 1780.93,1298.23 1781.96,1298.59 1783,1298.95 1784.03,1299.31 1785.07,1299.67 1786.11,1300.03 1787.14,1300.39 1788.18,1300.75 1789.21,1301.11 1790.25,1301.47 1791.29,1301.83 1792.32,1302.19 1793.36,1302.55 1794.39,1302.9 1795.43,1303.26 1796.47,1303.62 1797.5,1303.98 1798.54,1304.33 1799.57,1304.69 1800.61,1305.05 1801.64,1305.4 1802.68,1305.76 1803.72,1306.11 1804.75,1306.47 1805.79,1306.82 1806.82,1307.18 1807.86,1307.53 1808.9,1307.89 1809.93,1308.24 1810.97,1308.59 1812,1308.95 1813.04,1309.3 1814.08,1309.65 1815.11,1310 1816.15,1310.36 1817.18,1310.71 1818.22,1311.06 1819.26,1311.41 1820.29,1311.76 1821.33,1312.11 1822.36,1312.46 1823.4,1312.81 1824.43,1313.16 1825.47,1313.51 1826.51,1313.86 1827.54,1314.21 1828.58,1314.56 1829.61,1314.91 1830.65,1315.25 1831.69,1315.6 1832.72,1315.95 1833.76,1316.3 1834.79,1316.64 1835.83,1316.99 1836.87,1317.34 1837.9,1317.68 1838.94,1318.03 1839.97,1318.37 1841.01,1318.72 1842.05,1319.06 1843.08,1319.41 1844.12,1319.75 1845.15,1320.1 1846.19,1320.44 1847.23,1320.78 1848.26,1321.13 1849.3,1321.47 1850.33,1321.81 1851.37,1322.15 1852.4,1322.5 1853.44,1322.84 1854.48,1323.18 1855.51,1323.52 1856.55,1323.86 1857.58,1324.2 1858.62,1324.54 1859.66,1324.88 1860.69,1325.22 1861.73,1325.56 1862.76,1325.9 1863.8,1326.24 1864.84,1326.58 1865.87,1326.92 1866.91,1327.26 1867.94,1327.6 1868.98,1327.93 1870.02,1328.27 1871.05,1328.61 1872.09,1328.94 1873.12,1329.28 1874.16,1329.62 1875.2,1329.95 1876.23,1330.29 1877.27,1330.63 1878.3,1330.96 1879.34,1331.3 1880.37,1331.63 1881.41,1331.96 1882.45,1332.3 1883.48,1332.63 1884.52,1332.97 1885.55,1333.3 1886.59,1333.63 1887.63,1333.97 1888.66,1334.3 1889.7,1334.63 1890.73,1334.96 1891.77,1335.29 1892.81,1335.63 1893.84,1335.96 1894.88,1336.29 1895.91,1336.62 1896.95,1336.95 1897.99,1337.28 1899.02,1337.61 1900.06,1337.94 1901.09,1338.27 1902.13,1338.6 1903.17,1338.93 1904.2,1339.26 1905.24,1339.58 1906.27,1339.91 1907.31,1340.24 1908.34,1340.57 1909.38,1340.89 1910.42,1341.22 1911.45,1341.55 1912.49,1341.88 1913.52,1342.2 1914.56,1342.53 1915.6,1342.85 1916.63,1343.18 1917.67,1343.5 1918.7,1343.83 1919.74,1344.15 1920.78,1344.48 1921.81,1344.8 1922.85,1345.13 1923.88,1345.45 1924.92,1345.77 1925.96,1346.1 1926.99,1346.42 1928.03,1346.74 1929.06,1347.06 1930.1,1347.39 1931.14,1347.71 1932.17,1348.03 1933.21,1348.35 1934.24,1348.67 1935.28,1348.99 1936.31,1349.31 1937.35,1349.64 1938.39,1349.96 1939.42,1350.28 1940.46,1350.59 1941.49,1350.91 1942.53,1351.23 1943.57,1351.55 1944.6,1351.87 1945.64,1352.19 1946.67,1352.51 1947.71,1352.83 1948.75,1353.14 1949.78,1353.46 1950.82,1353.78 1951.85,1354.09 1952.89,1354.41 1953.93,1354.73 1954.96,1355.04 1956,1355.36 1957.03,1355.67 1958.07,1355.99 1959.11,1356.31 1960.14,1356.62 1961.18,1356.93 1962.21,1357.25 1963.25,1357.56 1964.28,1357.88 1965.32,1358.19 1966.36,1358.5 1967.39,1358.82 1968.43,1359.13 1969.46,1359.44 1970.5,1359.76 1971.54,1360.07 1972.57,1360.38 1973.61,1360.69 1974.64,1361 1975.68,1361.31 1976.72,1361.62 1977.75,1361.94 1978.79,1362.25 1979.82,1362.56 1980.86,1362.87 1981.9,1363.18 1982.93,1363.49 1983.97,1363.79 1985,1364.1 1986.04,1364.41 1987.07,1364.72 1988.11,1365.03 1989.15,1365.34 1990.18,1365.64 1991.22,1365.95 1992.25,1366.26 1993.29,1366.57 1994.33,1366.87 1995.36,1367.18 1996.4,1367.49 1997.43,1367.79 1998.47,1368.1 1999.51,1368.4 2000.54,1368.71 2001.58,1369.01 2002.61,1369.32 2003.65,1369.62 2004.69,1369.93 2005.72,1370.23 2006.76,1370.54 2007.79,1370.84 2008.83,1371.14 2009.87,1371.45 2010.9,1371.75 2011.94,1372.05 2012.97,1372.36 2014.01,1372.66 2015.04,1372.96 2016.08,1373.26 2017.12,1373.56 2018.15,1373.87 2019.19,1374.17 2020.22,1374.47 2021.26,1374.77 2022.3,1375.07 2023.33,1375.37 2024.37,1375.67 2025.4,1375.97 2026.44,1376.27 2027.48,1376.57 2028.51,1376.87 2029.55,1377.17 2030.58,1377.46 2031.62,1377.76 2032.66,1378.06 2033.69,1378.36 2034.73,1378.66 2035.76,1378.95 2036.8,1379.25 2037.84,1379.55 2038.87,1379.85 2039.91,1380.14 2040.94,1380.44 2041.98,1380.73 2043.01,1381.03 2044.05,1381.33 2045.09,1381.62 2046.12,1381.92 2047.16,1382.21 2048.19,1382.51 2049.23,1382.8 2050.27,1383.1 2051.3,1383.39 2052.34,1383.68 2053.37,1383.98 2054.41,1384.27 2055.45,1384.56 2056.48,1384.86 2057.52,1385.15 2058.55,1385.44 2059.59,1385.73 2060.63,1386.03 2061.66,1386.32 2062.7,1386.61 2063.73,1386.9 2064.77,1387.19 2065.81,1387.48 2066.84,1387.77 2067.88,1388.06 2068.91,1388.35 2069.95,1388.64 2070.98,1388.93 2072.02,1389.22 2073.06,1389.51 2074.09,1389.8 2075.13,1390.09 2076.16,1390.38 2077.2,1390.67 2078.24,1390.96 2079.27,1391.24 2080.31,1391.53 2081.34,1391.82 2082.38,1392.11 2083.42,1392.39 2084.45,1392.68 2085.49,1392.97 2086.52,1393.25 2087.56,1393.54 2088.6,1393.83 2089.63,1394.11 2090.67,1394.4 2091.7,1394.68 2092.74,1394.97 2093.78,1395.25 2094.81,1395.54 2095.85,1395.82 2096.88,1396.11 2097.92,1396.39 2098.95,1396.68 2099.99,1396.96 2101.03,1397.24 2102.06,1397.53 2103.1,1397.81 2104.13,1398.09 2105.17,1398.37 2106.21,1398.66 2107.24,1398.94 2108.28,1399.22 2109.31,1399.5 2110.35,1399.78 2111.39,1400.07 2112.42,1400.35 2113.46,1400.63 2114.49,1400.91 2115.53,1401.19 2116.57,1401.47 2117.6,1401.75 2118.64,1402.03 2119.67,1402.31 2120.71,1402.59 2121.74,1402.87 2122.78,1403.15 2123.82,1403.43 2124.85,1403.7 2125.89,1403.98 2126.92,1404.26 2127.96,1404.54 2129,1404.82 2130.03,1405.09 2131.07,1405.37 2132.1,1405.65 2133.14,1405.93 2134.18,1406.2 2135.21,1406.48 2136.25,1406.76 2137.28,1407.03 2138.32,1407.31 2139.36,1407.58 2140.39,1407.86 2141.43,1408.13 2142.46,1408.41 2143.5,1408.68 2144.54,1408.96 2145.57,1409.23 2146.61,1409.51 2147.64,1409.78 2148.68,1410.05 2149.71,1410.33 2150.75,1410.6 2151.79,1410.87 2152.82,1411.15 2153.86,1411.42 2154.89,1411.69 2155.93,1411.97 2156.97,1412.24 2158,1412.51 2159.04,1412.78 2160.07,1413.05 2161.11,1413.32 2162.15,1413.6 2163.18,1413.87 2164.22,1414.14 2165.25,1414.41 2166.29,1414.68 2167.33,1414.95 2168.36,1415.22 2169.4,1415.49 2170.43,1415.76 2171.47,1416.03 2172.51,1416.3 2173.54,1416.57 2174.58,1416.83 2175.61,1417.1 2176.65,1417.37 2177.68,1417.64 2178.72,1417.91 2179.76,1418.17 2180.79,1418.44 2181.83,1418.71 2182.86,1418.98 2183.9,1419.24 2184.94,1419.51 2185.97,1419.78 2187.01,1420.04 2188.04,1420.31 2189.08,1420.58 2190.12,1420.84 2191.15,1421.11 2192.19,1421.37 2193.22,1421.64 2194.26,1421.9 2195.3,1422.17 2196.33,1422.43 2197.37,1422.7 2198.4,1422.96 2199.44,1423.22 2200.48,1423.49 2201.51,1423.75 2202.55,1424.02 2203.58,1424.28 2204.62,1424.54 2205.65,1424.8 2206.69,1425.07 2207.73,1425.33 2208.76,1425.59 2209.8,1425.85 2210.83,1426.12 2211.87,1426.38 2212.91,1426.64 2213.94,1426.9 2214.98,1427.16 2216.01,1427.42 2217.05,1427.68 2218.09,1427.94 2219.12,1428.2 2220.16,1428.46 2221.19,1428.72 2222.23,1428.98 2223.27,1429.24 2224.3,1429.5 2225.34,1429.76 2226.37,1430.02 2227.41,1430.28 2228.45,1430.54 2229.48,1430.8 2230.52,1431.06 2231.55,1431.31 2232.59,1431.57 2233.62,1431.83 2234.66,1432.09 2235.7,1432.34 2236.73,1432.6 2237.77,1432.86 2238.8,1433.11 2239.84,1433.37 2240.88,1433.63 2241.91,1433.88 2242.95,1434.14 2243.98,1434.4 2245.02,1434.65 2246.06,1434.91 2247.09,1435.16 2248.13,1435.42 2249.16,1435.67 2250.2,1435.93 2251.24,1436.18 2252.27,1436.44 2253.31,1436.69 2254.34,1436.94 2255.38,1437.2 2256.42,1437.45 2257.45,1437.7 2258.49,1437.96 2259.52,1438.21 2260.56,1438.46 2261.59,1438.72 2262.63,1438.97 2263.67,1439.22 2264.7,1439.47 2265.74,1439.72 2266.77,1439.98 2267.81,1440.23 2268.85,1440.48 2269.88,1440.73 2270.92,1440.98 2271.95,1441.23 2272.99,1441.48 2274.03,1441.73 2275.06,1441.98 2276.1,1442.23 2277.13,1442.48 2278.17,1442.73 2279.21,1442.98 2280.24,1443.23 2281.28,1443.48 2282.31,1443.73 2283.35,1443.98 2284.38,1444.23 2285.42,1444.48 2286.46,1444.72 2287.49,1444.97 2288.53,1445.22 2289.56,1445.47 2290.6,1445.72 "/>
<path clip-path="url(#clip600)" d="M2007.5 198.898 L2279.55 198.898 L2279.55 95.2176 L2007.5 95.2176  Z" fill="#ffffff" fill-rule="evenodd" fill-opacity="1"/>
<polyline clip-path="url(#clip600)" style="stroke:#000000; stroke-linecap:round; stroke-linejoin:round; stroke-width:4; stroke-opacity:1; fill:none" points="2007.5,198.898 2279.55,198.898 2279.55,95.2176 2007.5,95.2176 2007.5,198.898 "/>
<polyline clip-path="url(#clip600)" style="stroke:#009af9; stroke-linecap:round; stroke-linejoin:round; stroke-width:4; stroke-opacity:1; fill:none" points="2031.91,147.058 2178.32,147.058 "/>
<path clip-path="url(#clip600)" d="M2216.56 166.745 Q2214.76 171.375 2213.04 172.787 Q2211.33 174.199 2208.46 174.199 L2205.06 174.199 L2205.06 170.634 L2207.56 170.634 Q2209.32 170.634 2210.29 169.8 Q2211.26 168.967 2212.44 165.865 L2213.2 163.921 L2202.72 138.412 L2207.23 138.412 L2215.33 158.689 L2223.44 138.412 L2227.95 138.412 L2216.56 166.745 Z" fill="#000000" fill-rule="nonzero" fill-opacity="1" /><path clip-path="url(#clip600)" d="M2235.24 160.402 L2242.88 160.402 L2242.88 134.037 L2234.57 135.703 L2234.57 131.444 L2242.83 129.778 L2247.51 129.778 L2247.51 160.402 L2255.15 160.402 L2255.15 164.338 L2235.24 164.338 L2235.24 160.402 Z" fill="#000000" fill-rule="nonzero" fill-opacity="1" /></svg>
