<?xml version="1.0" encoding="utf-8"?>
<svg xmlns="http://www.w3.org/2000/svg" xmlns:xlink="http://www.w3.org/1999/xlink" width="600" height="400" viewBox="0 0 2400 1600">
<defs>
  <clipPath id="clip980">
    <rect x="0" y="0" width="2400" height="1600"/>
  </clipPath>
</defs>
<path clip-path="url(#clip980)" d="M0 1600 L2400 1600 L2400 0 L0 0  Z" fill="#ffffff" fill-rule="evenodd" fill-opacity="1"/>
<defs>
  <clipPath id="clip981">
    <rect x="480" y="0" width="1681" height="1600"/>
  </clipPath>
</defs>
<path clip-path="url(#clip980)" d="M186.274 1486.45 L2352.76 1486.45 L2352.76 47.2441 L186.274 47.2441  Z" fill="#ffffff" fill-rule="evenodd" fill-opacity="1"/>
<defs>
  <clipPath id="clip982">
    <rect x="186" y="47" width="2167" height="1440"/>
  </clipPath>
</defs>
<polyline clip-path="url(#clip982)" style="stroke:#000000; stroke-linecap:round; stroke-linejoin:round; stroke-width:2; stroke-opacity:0.1; fill:none" points="247.59,1486.45 247.59,47.2441 "/>
<polyline clip-path="url(#clip982)" style="stroke:#000000; stroke-linecap:round; stroke-linejoin:round; stroke-width:2; stroke-opacity:0.1; fill:none" points="758.552,1486.45 758.552,47.2441 "/>
<polyline clip-path="url(#clip982)" style="stroke:#000000; stroke-linecap:round; stroke-linejoin:round; stroke-width:2; stroke-opacity:0.1; fill:none" points="1269.51,1486.45 1269.51,47.2441 "/>
<polyline clip-path="url(#clip982)" style="stroke:#000000; stroke-linecap:round; stroke-linejoin:round; stroke-width:2; stroke-opacity:0.1; fill:none" points="1780.48,1486.45 1780.48,47.2441 "/>
<polyline clip-path="url(#clip982)" style="stroke:#000000; stroke-linecap:round; stroke-linejoin:round; stroke-width:2; stroke-opacity:0.1; fill:none" points="2291.44,1486.45 2291.44,47.2441 "/>
<polyline clip-path="url(#clip980)" style="stroke:#000000; stroke-linecap:round; stroke-linejoin:round; stroke-width:4; stroke-opacity:1; fill:none" points="186.274,1486.45 2352.76,1486.45 "/>
<polyline clip-path="url(#clip980)" style="stroke:#000000; stroke-linecap:round; stroke-linejoin:round; stroke-width:4; stroke-opacity:1; fill:none" points="247.59,1486.45 247.59,1467.55 "/>
<polyline clip-path="url(#clip980)" style="stroke:#000000; stroke-linecap:round; stroke-linejoin:round; stroke-width:4; stroke-opacity:1; fill:none" points="758.552,1486.45 758.552,1467.55 "/>
<polyline clip-path="url(#clip980)" style="stroke:#000000; stroke-linecap:round; stroke-linejoin:round; stroke-width:4; stroke-opacity:1; fill:none" points="1269.51,1486.45 1269.51,1467.55 "/>
<polyline clip-path="url(#clip980)" style="stroke:#000000; stroke-linecap:round; stroke-linejoin:round; stroke-width:4; stroke-opacity:1; fill:none" points="1780.48,1486.45 1780.48,1467.55 "/>
<polyline clip-path="url(#clip980)" style="stroke:#000000; stroke-linecap:round; stroke-linejoin:round; stroke-width:4; stroke-opacity:1; fill:none" points="2291.44,1486.45 2291.44,1467.55 "/>
<path clip-path="url(#clip980)" d="M247.59 1517.37 Q243.978 1517.37 242.15 1520.93 Q240.344 1524.47 240.344 1531.6 Q240.344 1538.71 242.15 1542.27 Q243.978 1545.82 247.59 1545.82 Q251.224 1545.82 253.029 1542.27 Q254.858 1538.71 254.858 1531.6 Q254.858 1524.47 253.029 1520.93 Q251.224 1517.37 247.59 1517.37 M247.59 1513.66 Q253.4 1513.66 256.455 1518.27 Q259.534 1522.85 259.534 1531.6 Q259.534 1540.33 256.455 1544.94 Q253.4 1549.52 247.59 1549.52 Q241.779 1549.52 238.701 1544.94 Q235.645 1540.33 235.645 1531.6 Q235.645 1522.85 238.701 1518.27 Q241.779 1513.66 247.59 1513.66 Z" fill="#000000" fill-rule="nonzero" fill-opacity="1" /><path clip-path="url(#clip980)" d="M718.171 1514.29 L736.527 1514.29 L736.527 1518.22 L722.453 1518.22 L722.453 1526.7 Q723.471 1526.35 724.49 1526.19 Q725.508 1526 726.527 1526 Q732.314 1526 735.694 1529.17 Q739.073 1532.34 739.073 1537.76 Q739.073 1543.34 735.601 1546.44 Q732.129 1549.52 725.809 1549.52 Q723.633 1549.52 721.365 1549.15 Q719.12 1548.78 716.712 1548.04 L716.712 1543.34 Q718.796 1544.47 721.018 1545.03 Q723.24 1545.58 725.717 1545.58 Q729.721 1545.58 732.059 1543.48 Q734.397 1541.37 734.397 1537.76 Q734.397 1534.15 732.059 1532.04 Q729.721 1529.94 725.717 1529.94 Q723.842 1529.94 721.967 1530.35 Q720.115 1530.77 718.171 1531.65 L718.171 1514.29 Z" fill="#000000" fill-rule="nonzero" fill-opacity="1" /><path clip-path="url(#clip980)" d="M758.286 1517.37 Q754.675 1517.37 752.846 1520.93 Q751.041 1524.47 751.041 1531.6 Q751.041 1538.71 752.846 1542.27 Q754.675 1545.82 758.286 1545.82 Q761.92 1545.82 763.726 1542.27 Q765.555 1538.71 765.555 1531.6 Q765.555 1524.47 763.726 1520.93 Q761.92 1517.37 758.286 1517.37 M758.286 1513.66 Q764.096 1513.66 767.152 1518.27 Q770.23 1522.85 770.23 1531.6 Q770.23 1540.33 767.152 1544.94 Q764.096 1549.52 758.286 1549.52 Q752.476 1549.52 749.397 1544.94 Q746.342 1540.33 746.342 1531.6 Q746.342 1522.85 749.397 1518.27 Q752.476 1513.66 758.286 1513.66 Z" fill="#000000" fill-rule="nonzero" fill-opacity="1" /><path clip-path="url(#clip980)" d="M788.448 1517.37 Q784.837 1517.37 783.008 1520.93 Q781.203 1524.47 781.203 1531.6 Q781.203 1538.71 783.008 1542.27 Q784.837 1545.82 788.448 1545.82 Q792.082 1545.82 793.888 1542.27 Q795.716 1538.71 795.716 1531.6 Q795.716 1524.47 793.888 1520.93 Q792.082 1517.37 788.448 1517.37 M788.448 1513.66 Q794.258 1513.66 797.314 1518.27 Q800.392 1522.85 800.392 1531.6 Q800.392 1540.33 797.314 1544.94 Q794.258 1549.52 788.448 1549.52 Q782.638 1549.52 779.559 1544.94 Q776.504 1540.33 776.504 1531.6 Q776.504 1522.85 779.559 1518.27 Q782.638 1513.66 788.448 1513.66 Z" fill="#000000" fill-rule="nonzero" fill-opacity="1" /><path clip-path="url(#clip980)" d="M1214.04 1544.91 L1221.68 1544.91 L1221.68 1518.55 L1213.37 1520.21 L1213.37 1515.95 L1221.63 1514.29 L1226.31 1514.29 L1226.31 1544.91 L1233.95 1544.91 L1233.95 1548.85 L1214.04 1548.85 L1214.04 1544.91 Z" fill="#000000" fill-rule="nonzero" fill-opacity="1" /><path clip-path="url(#clip980)" d="M1253.39 1517.37 Q1249.78 1517.37 1247.95 1520.93 Q1246.15 1524.47 1246.15 1531.6 Q1246.15 1538.71 1247.95 1542.27 Q1249.78 1545.82 1253.39 1545.82 Q1257.03 1545.82 1258.83 1542.27 Q1260.66 1538.71 1260.66 1531.6 Q1260.66 1524.47 1258.83 1520.93 Q1257.03 1517.37 1253.39 1517.37 M1253.39 1513.66 Q1259.2 1513.66 1262.26 1518.27 Q1265.34 1522.85 1265.34 1531.6 Q1265.34 1540.33 1262.26 1544.94 Q1259.2 1549.52 1253.39 1549.52 Q1247.58 1549.52 1244.5 1544.94 Q1241.45 1540.33 1241.45 1531.6 Q1241.45 1522.85 1244.5 1518.27 Q1247.58 1513.66 1253.39 1513.66 Z" fill="#000000" fill-rule="nonzero" fill-opacity="1" /><path clip-path="url(#clip980)" d="M1283.55 1517.37 Q1279.94 1517.37 1278.11 1520.93 Q1276.31 1524.47 1276.31 1531.6 Q1276.31 1538.71 1278.11 1542.27 Q1279.94 1545.82 1283.55 1545.82 Q1287.19 1545.82 1288.99 1542.27 Q1290.82 1538.71 1290.82 1531.6 Q1290.82 1524.47 1288.99 1520.93 Q1287.19 1517.37 1283.55 1517.37 M1283.55 1513.66 Q1289.36 1513.66 1292.42 1518.27 Q1295.5 1522.85 1295.5 1531.6 Q1295.5 1540.33 1292.42 1544.94 Q1289.36 1549.52 1283.55 1549.52 Q1277.74 1549.52 1274.67 1544.94 Q1271.61 1540.33 1271.61 1531.6 Q1271.61 1522.85 1274.67 1518.27 Q1277.74 1513.66 1283.55 1513.66 Z" fill="#000000" fill-rule="nonzero" fill-opacity="1" /><path clip-path="url(#clip980)" d="M1313.72 1517.37 Q1310.11 1517.37 1308.28 1520.93 Q1306.47 1524.47 1306.47 1531.6 Q1306.47 1538.71 1308.28 1542.27 Q1310.11 1545.82 1313.72 1545.82 Q1317.35 1545.82 1319.16 1542.27 Q1320.98 1538.71 1320.98 1531.6 Q1320.98 1524.47 1319.16 1520.93 Q1317.35 1517.37 1313.72 1517.37 M1313.72 1513.66 Q1319.53 1513.66 1322.58 1518.27 Q1325.66 1522.85 1325.66 1531.6 Q1325.66 1540.33 1322.58 1544.94 Q1319.53 1549.52 1313.72 1549.52 Q1307.91 1549.52 1304.83 1544.94 Q1301.77 1540.33 1301.77 1531.6 Q1301.77 1522.85 1304.83 1518.27 Q1307.91 1513.66 1313.72 1513.66 Z" fill="#000000" fill-rule="nonzero" fill-opacity="1" /><path clip-path="url(#clip980)" d="M1725 1544.91 L1732.64 1544.91 L1732.64 1518.55 L1724.33 1520.21 L1724.33 1515.95 L1732.6 1514.29 L1737.27 1514.29 L1737.27 1544.91 L1744.91 1544.91 L1744.91 1548.85 L1725 1548.85 L1725 1544.91 Z" fill="#000000" fill-rule="nonzero" fill-opacity="1" /><path clip-path="url(#clip980)" d="M1754.4 1514.29 L1772.76 1514.29 L1772.76 1518.22 L1758.68 1518.22 L1758.68 1526.7 Q1759.7 1526.35 1760.72 1526.19 Q1761.74 1526 1762.76 1526 Q1768.54 1526 1771.92 1529.17 Q1775.3 1532.34 1775.3 1537.76 Q1775.3 1543.34 1771.83 1546.44 Q1768.36 1549.52 1762.04 1549.52 Q1759.86 1549.52 1757.6 1549.15 Q1755.35 1548.78 1752.94 1548.04 L1752.94 1543.34 Q1755.03 1544.47 1757.25 1545.03 Q1759.47 1545.58 1761.95 1545.58 Q1765.95 1545.58 1768.29 1543.48 Q1770.63 1541.37 1770.63 1537.76 Q1770.63 1534.15 1768.29 1532.04 Q1765.95 1529.94 1761.95 1529.94 Q1760.07 1529.94 1758.2 1530.35 Q1756.35 1530.77 1754.4 1531.65 L1754.4 1514.29 Z" fill="#000000" fill-rule="nonzero" fill-opacity="1" /><path clip-path="url(#clip980)" d="M1794.52 1517.37 Q1790.91 1517.37 1789.08 1520.93 Q1787.27 1524.47 1787.27 1531.6 Q1787.27 1538.71 1789.08 1542.27 Q1790.91 1545.82 1794.52 1545.82 Q1798.15 1545.82 1799.96 1542.27 Q1801.79 1538.71 1801.79 1531.6 Q1801.79 1524.47 1799.96 1520.93 Q1798.15 1517.37 1794.52 1517.37 M1794.52 1513.66 Q1800.33 1513.66 1803.38 1518.27 Q1806.46 1522.85 1806.46 1531.6 Q1806.46 1540.33 1803.38 1544.94 Q1800.33 1549.52 1794.52 1549.52 Q1788.71 1549.52 1785.63 1544.94 Q1782.57 1540.33 1782.57 1531.6 Q1782.57 1522.85 1785.63 1518.27 Q1788.71 1513.66 1794.52 1513.66 Z" fill="#000000" fill-rule="nonzero" fill-opacity="1" /><path clip-path="url(#clip980)" d="M1824.68 1517.37 Q1821.07 1517.37 1819.24 1520.93 Q1817.43 1524.47 1817.43 1531.6 Q1817.43 1538.71 1819.24 1542.27 Q1821.07 1545.82 1824.68 1545.82 Q1828.31 1545.82 1830.12 1542.27 Q1831.95 1538.71 1831.95 1531.6 Q1831.95 1524.47 1830.12 1520.93 Q1828.31 1517.37 1824.68 1517.37 M1824.68 1513.66 Q1830.49 1513.66 1833.54 1518.27 Q1836.62 1522.85 1836.62 1531.6 Q1836.62 1540.33 1833.54 1544.94 Q1830.49 1549.52 1824.68 1549.52 Q1818.87 1549.52 1815.79 1544.94 Q1812.73 1540.33 1812.73 1531.6 Q1812.73 1522.85 1815.79 1518.27 Q1818.87 1513.66 1824.68 1513.66 Z" fill="#000000" fill-rule="nonzero" fill-opacity="1" /><path clip-path="url(#clip980)" d="M2240.05 1544.91 L2256.37 1544.91 L2256.37 1548.85 L2234.43 1548.85 L2234.43 1544.91 Q2237.09 1542.16 2241.67 1537.53 Q2246.28 1532.88 2247.46 1531.53 Q2249.7 1529.01 2250.58 1527.27 Q2251.49 1525.51 2251.49 1523.82 Q2251.49 1521.07 2249.54 1519.33 Q2247.62 1517.6 2244.52 1517.6 Q2242.32 1517.6 2239.87 1518.36 Q2237.44 1519.13 2234.66 1520.68 L2234.66 1515.95 Q2237.48 1514.82 2239.94 1514.24 Q2242.39 1513.66 2244.43 1513.66 Q2249.8 1513.66 2252.99 1516.35 Q2256.19 1519.03 2256.19 1523.52 Q2256.19 1525.65 2255.38 1527.57 Q2254.59 1529.47 2252.48 1532.07 Q2251.9 1532.74 2248.8 1535.95 Q2245.7 1539.15 2240.05 1544.91 Z" fill="#000000" fill-rule="nonzero" fill-opacity="1" /><path clip-path="url(#clip980)" d="M2276.19 1517.37 Q2272.57 1517.37 2270.75 1520.93 Q2268.94 1524.47 2268.94 1531.6 Q2268.94 1538.71 2270.75 1542.27 Q2272.57 1545.82 2276.19 1545.82 Q2279.82 1545.82 2281.63 1542.27 Q2283.45 1538.71 2283.45 1531.6 Q2283.45 1524.47 2281.63 1520.93 Q2279.82 1517.37 2276.19 1517.37 M2276.19 1513.66 Q2282 1513.66 2285.05 1518.27 Q2288.13 1522.85 2288.13 1531.6 Q2288.13 1540.33 2285.05 1544.94 Q2282 1549.52 2276.19 1549.52 Q2270.38 1549.52 2267.3 1544.94 Q2264.24 1540.33 2264.24 1531.6 Q2264.24 1522.85 2267.3 1518.27 Q2270.38 1513.66 2276.19 1513.66 Z" fill="#000000" fill-rule="nonzero" fill-opacity="1" /><path clip-path="url(#clip980)" d="M2306.35 1517.37 Q2302.74 1517.37 2300.91 1520.93 Q2299.1 1524.47 2299.1 1531.6 Q2299.1 1538.71 2300.91 1542.27 Q2302.74 1545.82 2306.35 1545.82 Q2309.98 1545.82 2311.79 1542.27 Q2313.62 1538.71 2313.62 1531.6 Q2313.62 1524.47 2311.79 1520.93 Q2309.98 1517.37 2306.35 1517.37 M2306.35 1513.66 Q2312.16 1513.66 2315.21 1518.27 Q2318.29 1522.85 2318.29 1531.6 Q2318.29 1540.33 2315.21 1544.94 Q2312.16 1549.52 2306.35 1549.52 Q2300.54 1549.52 2297.46 1544.94 Q2294.4 1540.33 2294.4 1531.6 Q2294.4 1522.85 2297.46 1518.27 Q2300.54 1513.66 2306.35 1513.66 Z" fill="#000000" fill-rule="nonzero" fill-opacity="1" /><path clip-path="url(#clip980)" d="M2336.51 1517.37 Q2332.9 1517.37 2331.07 1520.93 Q2329.26 1524.47 2329.26 1531.6 Q2329.26 1538.71 2331.07 1542.27 Q2332.9 1545.82 2336.51 1545.82 Q2340.14 1545.82 2341.95 1542.27 Q2343.78 1538.71 2343.78 1531.6 Q2343.78 1524.47 2341.95 1520.93 Q2340.14 1517.37 2336.51 1517.37 M2336.51 1513.66 Q2342.32 1513.66 2345.38 1518.27 Q2348.45 1522.85 2348.45 1531.6 Q2348.45 1540.33 2345.38 1544.94 Q2342.32 1549.52 2336.51 1549.52 Q2330.7 1549.52 2327.62 1544.94 Q2324.57 1540.33 2324.57 1531.6 Q2324.57 1522.85 2327.62 1518.27 Q2330.7 1513.66 2336.51 1513.66 Z" fill="#000000" fill-rule="nonzero" fill-opacity="1" /><polyline clip-path="url(#clip982)" style="stroke:#000000; stroke-linecap:round; stroke-linejoin:round; stroke-width:2; stroke-opacity:0.1; fill:none" points="186.274,1364.54 2352.76,1364.54 "/>
<polyline clip-path="url(#clip982)" style="stroke:#000000; stroke-linecap:round; stroke-linejoin:round; stroke-width:2; stroke-opacity:0.1; fill:none" points="186.274,1056.19 2352.76,1056.19 "/>
<polyline clip-path="url(#clip982)" style="stroke:#000000; stroke-linecap:round; stroke-linejoin:round; stroke-width:2; stroke-opacity:0.1; fill:none" points="186.274,747.833 2352.76,747.833 "/>
<polyline clip-path="url(#clip982)" style="stroke:#000000; stroke-linecap:round; stroke-linejoin:round; stroke-width:2; stroke-opacity:0.1; fill:none" points="186.274,439.478 2352.76,439.478 "/>
<polyline clip-path="url(#clip982)" style="stroke:#000000; stroke-linecap:round; stroke-linejoin:round; stroke-width:2; stroke-opacity:0.1; fill:none" points="186.274,131.123 2352.76,131.123 "/>
<polyline clip-path="url(#clip980)" style="stroke:#000000; stroke-linecap:round; stroke-linejoin:round; stroke-width:4; stroke-opacity:1; fill:none" points="186.274,1486.45 186.274,47.2441 "/>
<polyline clip-path="url(#clip980)" style="stroke:#000000; stroke-linecap:round; stroke-linejoin:round; stroke-width:4; stroke-opacity:1; fill:none" points="186.274,1364.54 205.172,1364.54 "/>
<polyline clip-path="url(#clip980)" style="stroke:#000000; stroke-linecap:round; stroke-linejoin:round; stroke-width:4; stroke-opacity:1; fill:none" points="186.274,1056.19 205.172,1056.19 "/>
<polyline clip-path="url(#clip980)" style="stroke:#000000; stroke-linecap:round; stroke-linejoin:round; stroke-width:4; stroke-opacity:1; fill:none" points="186.274,747.833 205.172,747.833 "/>
<polyline clip-path="url(#clip980)" style="stroke:#000000; stroke-linecap:round; stroke-linejoin:round; stroke-width:4; stroke-opacity:1; fill:none" points="186.274,439.478 205.172,439.478 "/>
<polyline clip-path="url(#clip980)" style="stroke:#000000; stroke-linecap:round; stroke-linejoin:round; stroke-width:4; stroke-opacity:1; fill:none" points="186.274,131.123 205.172,131.123 "/>
<path clip-path="url(#clip980)" d="M63.9319 1350.34 Q60.3208 1350.34 58.4921 1353.91 Q56.6865 1357.45 56.6865 1364.58 Q56.6865 1371.68 58.4921 1375.25 Q60.3208 1378.79 63.9319 1378.79 Q67.5661 1378.79 69.3717 1375.25 Q71.2004 1371.68 71.2004 1364.58 Q71.2004 1357.45 69.3717 1353.91 Q67.5661 1350.34 63.9319 1350.34 M63.9319 1346.64 Q69.742 1346.64 72.7976 1351.24 Q75.8763 1355.83 75.8763 1364.58 Q75.8763 1373.3 72.7976 1377.91 Q69.742 1382.49 63.9319 1382.49 Q58.1217 1382.49 55.043 1377.91 Q51.9875 1373.3 51.9875 1364.58 Q51.9875 1355.83 55.043 1351.24 Q58.1217 1346.64 63.9319 1346.64 Z" fill="#000000" fill-rule="nonzero" fill-opacity="1" /><path clip-path="url(#clip980)" d="M84.0938 1375.94 L88.978 1375.94 L88.978 1381.82 L84.0938 1381.82 L84.0938 1375.94 Z" fill="#000000" fill-rule="nonzero" fill-opacity="1" /><path clip-path="url(#clip980)" d="M109.163 1350.34 Q105.552 1350.34 103.723 1353.91 Q101.918 1357.45 101.918 1364.58 Q101.918 1371.68 103.723 1375.25 Q105.552 1378.79 109.163 1378.79 Q112.797 1378.79 114.603 1375.25 Q116.432 1371.68 116.432 1364.58 Q116.432 1357.45 114.603 1353.91 Q112.797 1350.34 109.163 1350.34 M109.163 1346.64 Q114.973 1346.64 118.029 1351.24 Q121.107 1355.83 121.107 1364.58 Q121.107 1373.3 118.029 1377.91 Q114.973 1382.49 109.163 1382.49 Q103.353 1382.49 100.274 1377.91 Q97.2187 1373.3 97.2187 1364.58 Q97.2187 1355.83 100.274 1351.24 Q103.353 1346.64 109.163 1346.64 Z" fill="#000000" fill-rule="nonzero" fill-opacity="1" /><path clip-path="url(#clip980)" d="M129.371 1347.26 L147.728 1347.26 L147.728 1351.2 L133.654 1351.2 L133.654 1359.67 Q134.672 1359.32 135.691 1359.16 Q136.709 1358.98 137.728 1358.98 Q143.515 1358.98 146.894 1362.15 Q150.274 1365.32 150.274 1370.73 Q150.274 1376.31 146.802 1379.42 Q143.33 1382.49 137.01 1382.49 Q134.834 1382.49 132.566 1382.12 Q130.32 1381.75 127.913 1381.01 L127.913 1376.31 Q129.996 1377.45 132.219 1378 Q134.441 1378.56 136.918 1378.56 Q140.922 1378.56 143.26 1376.45 Q145.598 1374.35 145.598 1370.73 Q145.598 1367.12 143.26 1365.02 Q140.922 1362.91 136.918 1362.91 Q135.043 1362.91 133.168 1363.33 Q131.316 1363.74 129.371 1364.62 L129.371 1347.26 Z" fill="#000000" fill-rule="nonzero" fill-opacity="1" /><path clip-path="url(#clip980)" d="M62.9365 1041.99 Q59.3254 1041.99 57.4967 1045.55 Q55.6912 1049.09 55.6912 1056.22 Q55.6912 1063.33 57.4967 1066.89 Q59.3254 1070.44 62.9365 1070.44 Q66.5707 1070.44 68.3763 1066.89 Q70.205 1063.33 70.205 1056.22 Q70.205 1049.09 68.3763 1045.55 Q66.5707 1041.99 62.9365 1041.99 M62.9365 1038.28 Q68.7467 1038.28 71.8022 1042.89 Q74.8809 1047.47 74.8809 1056.22 Q74.8809 1064.95 71.8022 1069.56 Q68.7467 1074.14 62.9365 1074.14 Q57.1264 1074.14 54.0477 1069.56 Q50.9921 1064.95 50.9921 1056.22 Q50.9921 1047.47 54.0477 1042.89 Q57.1264 1038.28 62.9365 1038.28 Z" fill="#000000" fill-rule="nonzero" fill-opacity="1" /><path clip-path="url(#clip980)" d="M83.0984 1067.59 L87.9827 1067.59 L87.9827 1073.47 L83.0984 1073.47 L83.0984 1067.59 Z" fill="#000000" fill-rule="nonzero" fill-opacity="1" /><path clip-path="url(#clip980)" d="M98.978 1069.53 L106.617 1069.53 L106.617 1043.17 L98.3067 1044.83 L98.3067 1040.57 L106.571 1038.91 L111.246 1038.91 L111.246 1069.53 L118.885 1069.53 L118.885 1073.47 L98.978 1073.47 L98.978 1069.53 Z" fill="#000000" fill-rule="nonzero" fill-opacity="1" /><path clip-path="url(#clip980)" d="M138.33 1041.99 Q134.719 1041.99 132.89 1045.55 Q131.084 1049.09 131.084 1056.22 Q131.084 1063.33 132.89 1066.89 Q134.719 1070.44 138.33 1070.44 Q141.964 1070.44 143.769 1066.89 Q145.598 1063.33 145.598 1056.22 Q145.598 1049.09 143.769 1045.55 Q141.964 1041.99 138.33 1041.99 M138.33 1038.28 Q144.14 1038.28 147.195 1042.89 Q150.274 1047.47 150.274 1056.22 Q150.274 1064.95 147.195 1069.56 Q144.14 1074.14 138.33 1074.14 Q132.519 1074.14 129.441 1069.56 Q126.385 1064.95 126.385 1056.22 Q126.385 1047.47 129.441 1042.89 Q132.519 1038.28 138.33 1038.28 Z" fill="#000000" fill-rule="nonzero" fill-opacity="1" /><path clip-path="url(#clip980)" d="M63.9319 733.632 Q60.3208 733.632 58.4921 737.196 Q56.6865 740.738 56.6865 747.868 Q56.6865 754.974 58.4921 758.539 Q60.3208 762.081 63.9319 762.081 Q67.5661 762.081 69.3717 758.539 Q71.2004 754.974 71.2004 747.868 Q71.2004 740.738 69.3717 737.196 Q67.5661 733.632 63.9319 733.632 M63.9319 729.928 Q69.742 729.928 72.7976 734.534 Q75.8763 739.118 75.8763 747.868 Q75.8763 756.594 72.7976 761.201 Q69.742 765.784 63.9319 765.784 Q58.1217 765.784 55.043 761.201 Q51.9875 756.594 51.9875 747.868 Q51.9875 739.118 55.043 734.534 Q58.1217 729.928 63.9319 729.928 Z" fill="#000000" fill-rule="nonzero" fill-opacity="1" /><path clip-path="url(#clip980)" d="M84.0938 759.233 L88.978 759.233 L88.978 765.113 L84.0938 765.113 L84.0938 759.233 Z" fill="#000000" fill-rule="nonzero" fill-opacity="1" /><path clip-path="url(#clip980)" d="M99.9733 761.178 L107.612 761.178 L107.612 734.812 L99.3021 736.479 L99.3021 732.22 L107.566 730.553 L112.242 730.553 L112.242 761.178 L119.881 761.178 L119.881 765.113 L99.9733 765.113 L99.9733 761.178 Z" fill="#000000" fill-rule="nonzero" fill-opacity="1" /><path clip-path="url(#clip980)" d="M129.371 730.553 L147.728 730.553 L147.728 734.488 L133.654 734.488 L133.654 742.96 Q134.672 742.613 135.691 742.451 Q136.709 742.266 137.728 742.266 Q143.515 742.266 146.894 745.437 Q150.274 748.608 150.274 754.025 Q150.274 759.604 146.802 762.706 Q143.33 765.784 137.01 765.784 Q134.834 765.784 132.566 765.414 Q130.32 765.043 127.913 764.303 L127.913 759.604 Q129.996 760.738 132.219 761.293 Q134.441 761.849 136.918 761.849 Q140.922 761.849 143.26 759.743 Q145.598 757.636 145.598 754.025 Q145.598 750.414 143.26 748.307 Q140.922 746.201 136.918 746.201 Q135.043 746.201 133.168 746.618 Q131.316 747.034 129.371 747.914 L129.371 730.553 Z" fill="#000000" fill-rule="nonzero" fill-opacity="1" /><path clip-path="url(#clip980)" d="M62.9365 425.277 Q59.3254 425.277 57.4967 428.841 Q55.6912 432.383 55.6912 439.513 Q55.6912 446.619 57.4967 450.184 Q59.3254 453.726 62.9365 453.726 Q66.5707 453.726 68.3763 450.184 Q70.205 446.619 70.205 439.513 Q70.205 432.383 68.3763 428.841 Q66.5707 425.277 62.9365 425.277 M62.9365 421.573 Q68.7467 421.573 71.8022 426.179 Q74.8809 430.763 74.8809 439.513 Q74.8809 448.239 71.8022 452.846 Q68.7467 457.429 62.9365 457.429 Q57.1264 457.429 54.0477 452.846 Q50.9921 448.239 50.9921 439.513 Q50.9921 430.763 54.0477 426.179 Q57.1264 421.573 62.9365 421.573 Z" fill="#000000" fill-rule="nonzero" fill-opacity="1" /><path clip-path="url(#clip980)" d="M83.0984 450.878 L87.9827 450.878 L87.9827 456.758 L83.0984 456.758 L83.0984 450.878 Z" fill="#000000" fill-rule="nonzero" fill-opacity="1" /><path clip-path="url(#clip980)" d="M102.196 452.823 L118.515 452.823 L118.515 456.758 L96.5706 456.758 L96.5706 452.823 Q99.2326 450.068 103.816 445.439 Q108.422 440.786 109.603 439.443 Q111.848 436.92 112.728 435.184 Q113.631 433.425 113.631 431.735 Q113.631 428.98 111.686 427.244 Q109.765 425.508 106.663 425.508 Q104.464 425.508 102.01 426.272 Q99.5798 427.036 96.8021 428.587 L96.8021 423.865 Q99.6261 422.73 102.08 422.152 Q104.534 421.573 106.571 421.573 Q111.941 421.573 115.135 424.258 Q118.33 426.943 118.33 431.434 Q118.33 433.564 117.52 435.485 Q116.733 437.383 114.626 439.976 Q114.047 440.647 110.946 443.865 Q107.844 447.059 102.196 452.823 Z" fill="#000000" fill-rule="nonzero" fill-opacity="1" /><path clip-path="url(#clip980)" d="M138.33 425.277 Q134.719 425.277 132.89 428.841 Q131.084 432.383 131.084 439.513 Q131.084 446.619 132.89 450.184 Q134.719 453.726 138.33 453.726 Q141.964 453.726 143.769 450.184 Q145.598 446.619 145.598 439.513 Q145.598 432.383 143.769 428.841 Q141.964 425.277 138.33 425.277 M138.33 421.573 Q144.14 421.573 147.195 426.179 Q150.274 430.763 150.274 439.513 Q150.274 448.239 147.195 452.846 Q144.14 457.429 138.33 457.429 Q132.519 457.429 129.441 452.846 Q126.385 448.239 126.385 439.513 Q126.385 430.763 129.441 426.179 Q132.519 421.573 138.33 421.573 Z" fill="#000000" fill-rule="nonzero" fill-opacity="1" /><path clip-path="url(#clip980)" d="M63.9319 116.922 Q60.3208 116.922 58.4921 120.487 Q56.6865 124.028 56.6865 131.158 Q56.6865 138.264 58.4921 141.829 Q60.3208 145.371 63.9319 145.371 Q67.5661 145.371 69.3717 141.829 Q71.2004 138.264 71.2004 131.158 Q71.2004 124.028 69.3717 120.487 Q67.5661 116.922 63.9319 116.922 M63.9319 113.218 Q69.742 113.218 72.7976 117.824 Q75.8763 122.408 75.8763 131.158 Q75.8763 139.885 72.7976 144.491 Q69.742 149.074 63.9319 149.074 Q58.1217 149.074 55.043 144.491 Q51.9875 139.885 51.9875 131.158 Q51.9875 122.408 55.043 117.824 Q58.1217 113.218 63.9319 113.218 Z" fill="#000000" fill-rule="nonzero" fill-opacity="1" /><path clip-path="url(#clip980)" d="M84.0938 142.523 L88.978 142.523 L88.978 148.403 L84.0938 148.403 L84.0938 142.523 Z" fill="#000000" fill-rule="nonzero" fill-opacity="1" /><path clip-path="url(#clip980)" d="M103.191 144.468 L119.51 144.468 L119.51 148.403 L97.566 148.403 L97.566 144.468 Q100.228 141.713 104.811 137.084 Q109.418 132.431 110.598 131.088 Q112.844 128.565 113.723 126.829 Q114.626 125.07 114.626 123.38 Q114.626 120.625 112.682 118.889 Q110.76 117.153 107.658 117.153 Q105.459 117.153 103.006 117.917 Q100.575 118.681 97.7974 120.232 L97.7974 115.51 Q100.621 114.375 103.075 113.797 Q105.529 113.218 107.566 113.218 Q112.936 113.218 116.131 115.903 Q119.325 118.588 119.325 123.079 Q119.325 125.209 118.515 127.13 Q117.728 129.028 115.621 131.621 Q115.043 132.292 111.941 135.51 Q108.839 138.704 103.191 144.468 Z" fill="#000000" fill-rule="nonzero" fill-opacity="1" /><path clip-path="url(#clip980)" d="M129.371 113.843 L147.728 113.843 L147.728 117.778 L133.654 117.778 L133.654 126.25 Q134.672 125.903 135.691 125.741 Q136.709 125.556 137.728 125.556 Q143.515 125.556 146.894 128.727 Q150.274 131.898 150.274 137.315 Q150.274 142.894 146.802 145.996 Q143.33 149.074 137.01 149.074 Q134.834 149.074 132.566 148.704 Q130.32 148.334 127.913 147.593 L127.913 142.894 Q129.996 144.028 132.219 144.584 Q134.441 145.139 136.918 145.139 Q140.922 145.139 143.26 143.033 Q145.598 140.926 145.598 137.315 Q145.598 133.704 143.26 131.598 Q140.922 129.491 136.918 129.491 Q135.043 129.491 133.168 129.908 Q131.316 130.324 129.371 131.204 L129.371 113.843 Z" fill="#000000" fill-rule="nonzero" fill-opacity="1" /><polyline clip-path="url(#clip982)" style="stroke:#009af9; stroke-linecap:round; stroke-linejoin:round; stroke-width:4; stroke-opacity:1; fill:none" points="247.59,87.9763 248.611,90.8734 249.633,93.7629 250.655,96.6446 251.677,99.5186 252.699,102.385 253.721,105.244 254.743,108.095 255.765,110.938 256.787,113.774 257.809,116.603 258.831,119.423 259.853,122.237 260.875,125.043 261.896,127.841 262.918,130.632 263.94,133.416 264.962,136.192 265.984,138.961 267.006,141.723 268.028,144.477 269.05,147.224 270.072,149.964 271.094,152.696 272.116,155.421 273.138,158.14 274.16,160.851 275.182,163.554 276.203,166.251 277.225,168.941 278.247,171.623 279.269,174.299 280.291,176.967 281.313,179.628 282.335,182.283 283.357,184.93 284.379,187.571 285.401,190.205 286.423,192.831 287.445,195.451 288.467,198.064 289.488,200.67 290.51,203.27 291.532,205.862 292.554,208.448 293.576,211.027 294.598,213.6 295.62,216.165 296.642,218.724 297.664,221.277 298.686,223.822 299.708,226.361 300.73,228.894 301.752,231.42 302.774,233.939 303.795,236.452 304.817,238.958 305.839,241.458 306.861,243.951 307.883,246.438 308.905,248.919 309.927,251.393 310.949,253.861 311.971,256.322 312.993,258.777 314.015,261.225 315.037,263.668 316.059,266.104 317.08,268.534 318.102,270.957 319.124,273.375 320.146,275.786 321.168,278.191 322.19,280.589 323.212,282.982 324.234,285.368 325.256,287.749 326.278,290.123 327.3,292.491 328.322,294.853 329.344,297.209 330.365,299.56 331.387,301.904 332.409,304.242 333.431,306.574 334.453,308.9 335.475,311.221 336.497,313.535 337.519,315.843 338.541,318.146 339.563,320.443 340.585,322.734 341.607,325.019 342.629,327.298 343.651,329.572 344.672,331.84 345.694,334.102 346.716,336.358 347.738,338.609 348.76,340.854 349.782,343.093 350.804,345.327 351.826,347.555 352.848,349.778 353.87,351.994 354.892,354.206 355.914,356.411 356.936,358.612 357.957,360.806 358.979,362.995 360.001,365.179 361.023,367.357 362.045,369.53 363.067,371.697 364.089,373.859 365.111,376.015 366.133,378.166 367.155,380.312 368.177,382.452 369.199,384.587 370.221,386.717 371.243,388.841 372.264,390.96 373.286,393.074 374.308,395.183 375.33,397.286 376.352,399.384 377.374,401.477 378.396,403.564 379.418,405.647 380.44,407.724 381.462,409.796 382.484,411.863 383.506,413.925 384.528,415.982 385.549,418.034 386.571,420.081 387.593,422.122 388.615,424.159 389.637,426.19 390.659,428.217 391.681,430.238 392.703,432.255 393.725,434.267 394.747,436.273 395.769,438.275 396.791,440.272 397.813,442.264 398.834,444.251 399.856,446.233 400.878,448.211 401.9,450.183 402.922,452.151 403.944,454.114 404.966,456.072 405.988,458.025 407.01,459.974 408.032,461.917 409.054,463.856 410.076,465.791 411.098,467.72 412.12,469.645 413.141,471.566 414.163,473.481 415.185,475.392 416.207,477.298 417.229,479.2 418.251,481.097 419.273,482.99 420.295,484.878 421.317,486.761 422.339,488.64 423.361,490.514 424.383,492.384 425.405,494.249 426.426,496.11 427.448,497.966 428.47,499.818 429.492,501.665 430.514,503.508 431.536,505.346 432.558,507.18 433.58,509.01 434.602,510.835 435.624,512.656 436.646,514.473 437.668,516.285 438.69,518.093 439.712,519.896 440.733,521.695 441.755,523.49 442.777,525.281 443.799,527.067 444.821,528.849 445.843,530.627 446.865,532.4 447.887,534.17 448.909,535.935 449.931,537.696 450.953,539.453 451.975,541.205 452.997,542.954 454.018,544.698 455.04,546.438 456.062,548.174 457.084,549.906 458.106,551.634 459.128,553.358 460.15,555.078 461.172,556.793 462.194,558.505 463.216,560.212 464.238,561.916 465.26,563.616 466.282,565.311 467.303,567.003 468.325,568.69 469.347,570.374 470.369,572.053 471.391,573.729 472.413,575.401 473.435,577.069 474.457,578.733 475.479,580.393 476.501,582.049 477.523,583.701 478.545,585.35 479.567,586.994 480.589,588.635 481.61,590.272 482.632,591.905 483.654,593.535 484.676,595.16 485.698,596.782 486.72,598.4 487.742,600.014 488.764,601.625 489.786,603.232 490.808,604.835 491.83,606.434 492.852,608.03 493.874,609.621 494.895,611.21 495.917,612.794 496.939,614.375 497.961,615.953 498.983,617.526 500.005,619.096 501.027,620.663 502.049,622.225 503.071,623.785 504.093,625.34 505.115,626.892 506.137,628.441 507.159,629.986 508.181,631.527 509.202,633.065 510.224,634.599 511.246,636.13 512.268,637.657 513.29,639.181 514.312,640.702 515.334,642.218 516.356,643.732 517.378,645.242 518.4,646.748 519.422,648.251 520.444,649.751 521.466,651.247 522.487,652.74 523.509,654.23 524.531,655.716 525.553,657.198 526.575,658.678 527.597,660.154 528.619,661.627 529.641,663.096 530.663,664.562 531.685,666.025 532.707,667.484 533.729,668.94 534.751,670.393 535.772,671.842 536.794,673.289 537.816,674.732 538.838,676.171 539.86,677.608 540.882,679.041 541.904,680.471 542.926,681.898 543.948,683.322 544.97,684.742 545.992,686.16 547.014,687.574 548.036,688.985 549.058,690.393 550.079,691.797 551.101,693.199 552.123,694.597 553.145,695.993 554.167,697.385 555.189,698.774 556.211,700.16 557.233,701.543 558.255,702.923 559.277,704.299 560.299,705.673 561.321,707.044 562.343,708.411 563.364,709.776 564.386,711.137 565.408,712.496 566.43,713.851 567.452,715.204 568.474,716.554 569.496,717.9 570.518,719.244 571.54,720.584 572.562,721.922 573.584,723.257 574.606,724.589 575.628,725.918 576.65,727.244 577.671,728.567 578.693,729.887 579.715,731.204 580.737,732.518 581.759,733.83 582.781,735.138 583.803,736.444 584.825,737.747 585.847,739.047 586.869,740.344 587.891,741.639 588.913,742.93 589.935,744.219 590.956,745.505 591.978,746.788 593,748.068 594.022,749.346 595.044,750.621 596.066,751.893 597.088,753.162 598.11,754.428 599.132,755.692 600.154,756.953 601.176,758.211 602.198,759.467 603.22,760.72 604.242,761.97 605.263,763.217 606.285,764.462 607.307,765.704 608.329,766.944 609.351,768.18 610.373,769.414 611.395,770.646 612.417,771.874 613.439,773.101 614.461,774.324 615.483,775.545 616.505,776.763 617.527,777.979 618.548,779.192 619.57,780.402 620.592,781.61 621.614,782.815 622.636,784.018 623.658,785.218 624.68,786.416 625.702,787.611 626.724,788.803 627.746,789.993 628.768,791.18 629.79,792.365 630.812,793.548 631.833,794.727 632.855,795.905 633.877,797.08 634.899,798.252 635.921,799.422 636.943,800.589 637.965,801.754 638.987,802.916 640.009,804.076 641.031,805.234 642.053,806.389 643.075,807.542 644.097,808.692 645.119,809.84 646.14,810.985 647.162,812.128 648.184,813.269 649.206,814.407 650.228,815.542 651.25,816.676 652.272,817.807 653.294,818.936 654.316,820.062 655.338,821.186 656.36,822.307 657.382,823.427 658.404,824.543 659.425,825.658 660.447,826.77 661.469,827.88 662.491,828.988 663.513,830.093 664.535,831.196 665.557,832.297 666.579,833.395 667.601,834.491 668.623,835.585 669.645,836.677 670.667,837.766 671.689,838.853 672.711,839.938 673.732,841.02 674.754,842.101 675.776,843.179 676.798,844.254 677.82,845.328 678.842,846.4 679.864,847.469 680.886,848.536 681.908,849.601 682.93,850.663 683.952,851.724 684.974,852.782 685.996,853.838 687.017,854.892 688.039,855.944 689.061,856.993 690.083,858.041 691.105,859.086 692.127,860.129 693.149,861.17 694.171,862.209 695.193,863.246 696.215,864.28 697.237,865.313 698.259,866.343 699.281,867.372 700.302,868.398 701.324,869.422 702.346,870.444 703.368,871.464 704.39,872.482 705.412,873.498 706.434,874.512 707.456,875.523 708.478,876.533 709.5,877.541 710.522,878.546 711.544,879.55 712.566,880.551 713.588,881.551 714.609,882.548 715.631,883.544 716.653,884.537 717.675,885.529 718.697,886.518 719.719,887.506 720.741,888.491 721.763,889.475 722.785,890.456 723.807,891.436 724.829,892.413 725.851,893.389 726.873,894.363 727.894,895.334 728.916,896.304 729.938,897.272 730.96,898.238 731.982,899.202 733.004,900.164 734.026,901.124 735.048,902.082 736.07,903.039 737.092,903.993 738.114,904.946 739.136,905.896 740.158,906.845 741.18,907.792 742.201,908.737 743.223,909.68 744.245,910.621 745.267,911.56 746.289,912.498 747.311,913.434 748.333,914.367 749.355,915.299 750.377,916.229 751.399,917.158 752.421,918.084 753.443,919.009 754.465,919.932 755.486,920.852 756.508,921.772 757.53,922.689 758.552,923.605 759.574,924.518 760.596,925.43 761.618,926.34 762.64,927.249 763.662,928.155 764.684,929.06 765.706,929.963 766.728,930.865 767.75,931.764 768.771,932.662 769.793,933.558 770.815,934.452 771.837,935.345 772.859,936.235 773.881,937.124 774.903,938.012 775.925,938.897 776.947,939.781 777.969,940.663 778.991,941.544 780.013,942.423 781.035,943.3 782.057,944.175 783.078,945.049 784.1,945.92 785.122,946.791 786.144,947.659 787.166,948.526 788.188,949.391 789.21,950.255 790.232,951.117 791.254,951.977 792.276,952.836 793.298,953.693 794.32,954.548 795.342,955.401 796.363,956.253 797.385,957.104 798.407,957.952 799.429,958.8 800.451,959.645 801.473,960.489 802.495,961.331 803.517,962.172 804.539,963.011 805.561,963.848 806.583,964.684 807.605,965.518 808.627,966.351 809.649,967.182 810.67,968.011 811.692,968.839 812.714,969.665 813.736,970.49 814.758,971.313 815.78,972.135 816.802,972.955 817.824,973.773 818.846,974.59 819.868,975.406 820.89,976.22 821.912,977.032 822.934,977.843 823.955,978.652 824.977,979.46 825.999,980.266 827.021,981.07 828.043,981.873 829.065,982.675 830.087,983.475 831.109,984.274 832.131,985.071 833.153,985.867 834.175,986.661 835.197,987.453 836.219,988.244 837.24,989.034 838.262,989.822 839.284,990.609 840.306,991.394 841.328,992.178 842.35,992.96 843.372,993.741 844.394,994.52 845.416,995.298 846.438,996.075 847.46,996.85 848.482,997.623 849.504,998.395 850.526,999.166 851.547,999.935 852.569,1000.7 853.591,1001.47 854.613,1002.23 855.635,1003 856.657,1003.76 857.679,1004.52 858.701,1005.28 859.723,1006.04 860.745,1006.79 861.767,1007.55 862.789,1008.3 863.811,1009.06 864.832,1009.81 865.854,1010.56 866.876,1011.3 867.898,1012.05 868.92,1012.8 869.942,1013.54 870.964,1014.28 871.986,1015.03 873.008,1015.77 874.03,1016.5 875.052,1017.24 876.074,1017.98 877.096,1018.71 878.118,1019.44 879.139,1020.18 880.161,1020.91 881.183,1021.64 882.205,1022.36 883.227,1023.09 884.249,1023.82 885.271,1024.54 886.293,1025.26 887.315,1025.98 888.337,1026.7 889.359,1027.42 890.381,1028.14 891.403,1028.86 892.424,1029.57 893.446,1030.28 894.468,1031 895.49,1031.71 896.512,1032.42 897.534,1033.12 898.556,1033.83 899.578,1034.54 900.6,1035.24 901.622,1035.95 902.644,1036.65 903.666,1037.35 904.688,1038.05 905.71,1038.75 906.731,1039.44 907.753,1040.14 908.775,1040.83 909.797,1041.53 910.819,1042.22 911.841,1042.91 912.863,1043.6 913.885,1044.29 914.907,1044.97 915.929,1045.66 916.951,1046.34 917.973,1047.03 918.995,1047.71 920.016,1048.39 921.038,1049.07 922.06,1049.75 923.082,1050.42 924.104,1051.1 925.126,1051.77 926.148,1052.45 927.17,1053.12 928.192,1053.79 929.214,1054.46 930.236,1055.13 931.258,1055.8 932.28,1056.46 933.301,1057.13 934.323,1057.79 935.345,1058.46 936.367,1059.12 937.389,1059.78 938.411,1060.44 939.433,1061.1 940.455,1061.75 941.477,1062.41 942.499,1063.06 943.521,1063.72 944.543,1064.37 945.565,1065.02 946.587,1065.67 947.608,1066.32 948.63,1066.97 949.652,1067.61 950.674,1068.26 951.696,1068.9 952.718,1069.55 953.74,1070.19 954.762,1070.83 955.784,1071.47 956.806,1072.11 957.828,1072.75 958.85,1073.38 959.872,1074.02 960.893,1074.65 961.915,1075.29 962.937,1075.92 963.959,1076.55 964.981,1077.18 966.003,1077.81 967.025,1078.44 968.047,1079.06 969.069,1079.69 970.091,1080.31 971.113,1080.94 972.135,1081.56 973.157,1082.18 974.179,1082.8 975.2,1083.42 976.222,1084.04 977.244,1084.66 978.266,1085.27 979.288,1085.89 980.31,1086.5 981.332,1087.11 982.354,1087.72 983.376,1088.34 984.398,1088.94 985.42,1089.55 986.442,1090.16 987.464,1090.77 988.485,1091.37 989.507,1091.98 990.529,1092.58 991.551,1093.18 992.573,1093.78 993.595,1094.38 994.617,1094.98 995.639,1095.58 996.661,1096.18 997.683,1096.77 998.705,1097.37 999.727,1097.96 1000.75,1098.56 1001.77,1099.15 1002.79,1099.74 1003.81,1100.33 1004.84,1100.92 1005.86,1101.51 1006.88,1102.09 1007.9,1102.68 1008.92,1103.27 1009.95,1103.85 1010.97,1104.43 1011.99,1105.02 1013.01,1105.6 1014.03,1106.18 1015.06,1106.76 1016.08,1107.33 1017.1,1107.91 1018.12,1108.49 1019.14,1109.06 1020.17,1109.64 1021.19,1110.21 1022.21,1110.78 1023.23,1111.35 1024.25,1111.92 1025.27,1112.49 1026.3,1113.06 1027.32,1113.63 1028.34,1114.2 1029.36,1114.76 1030.38,1115.33 1031.41,1115.89 1032.43,1116.45 1033.45,1117.02 1034.47,1117.58 1035.49,1118.14 1036.52,1118.7 1037.54,1119.25 1038.56,1119.81 1039.58,1120.37 1040.6,1120.92 1041.63,1121.48 1042.65,1122.03 1043.67,1122.58 1044.69,1123.13 1045.71,1123.68 1046.74,1124.23 1047.76,1124.78 1048.78,1125.33 1049.8,1125.88 1050.82,1126.42 1051.84,1126.97 1052.87,1127.51 1053.89,1128.06 1054.91,1128.6 1055.93,1129.14 1056.95,1129.68 1057.98,1130.22 1059,1130.76 1060.02,1131.3 1061.04,1131.84 1062.06,1132.37 1063.09,1132.91 1064.11,1133.44 1065.13,1133.98 1066.15,1134.51 1067.17,1135.04 1068.2,1135.57 1069.22,1136.1 1070.24,1136.63 1071.26,1137.16 1072.28,1137.69 1073.31,1138.22 1074.33,1138.74 1075.35,1139.27 1076.37,1139.79 1077.39,1140.31 1078.41,1140.84 1079.44,1141.36 1080.46,1141.88 1081.48,1142.4 1082.5,1142.92 1083.52,1143.44 1084.55,1143.95 1085.57,1144.47 1086.59,1144.99 1087.61,1145.5 1088.63,1146.01 1089.66,1146.53 1090.68,1147.04 1091.7,1147.55 1092.72,1148.06 1093.74,1148.57 1094.77,1149.08 1095.79,1149.59 1096.81,1150.1 1097.83,1150.6 1098.85,1151.11 1099.88,1151.61 1100.9,1152.12 1101.92,1152.62 1102.94,1153.12 1103.96,1153.63 1104.98,1154.13 1106.01,1154.63 1107.03,1155.13 1108.05,1155.62 1109.07,1156.12 1110.09,1156.62 1111.12,1157.11 1112.14,1157.61 1113.16,1158.1 1114.18,1158.6 1115.2,1159.09 1116.23,1159.58 1117.25,1160.07 1118.27,1160.56 1119.29,1161.05 1120.31,1161.54 1121.34,1162.03 1122.36,1162.52 1123.38,1163.01 1124.4,1163.49 1125.42,1163.98 1126.45,1164.46 1127.47,1164.94 1128.49,1165.43 1129.51,1165.91 1130.53,1166.39 1131.56,1166.87 1132.58,1167.35 1133.6,1167.83 1134.62,1168.31 1135.64,1168.79 1136.66,1169.26 1137.69,1169.74 1138.71,1170.21 1139.73,1170.69 1140.75,1171.16 1141.77,1171.63 1142.8,1172.11 1143.82,1172.58 1144.84,1173.05 1145.86,1173.52 1146.88,1173.99 1147.91,1174.46 1148.93,1174.92 1149.95,1175.39 1150.97,1175.86 1151.99,1176.32 1153.02,1176.79 1154.04,1177.25 1155.06,1177.72 1156.08,1178.18 1157.1,1178.64 1158.13,1179.1 1159.15,1179.56 1160.17,1180.02 1161.19,1180.48 1162.21,1180.94 1163.23,1181.4 1164.26,1181.85 1165.28,1182.31 1166.3,1182.77 1167.32,1183.22 1168.34,1183.67 1169.37,1184.13 1170.39,1184.58 1171.41,1185.03 1172.43,1185.48 1173.45,1185.93 1174.48,1186.38 1175.5,1186.83 1176.52,1187.28 1177.54,1187.73 1178.56,1188.18 1179.59,1188.62 1180.61,1189.07 1181.63,1189.51 1182.65,1189.96 1183.67,1190.4 1184.7,1190.85 1185.72,1191.29 1186.74,1191.73 1187.76,1192.17 1188.78,1192.61 1189.8,1193.05 1190.83,1193.49 1191.85,1193.93 1192.87,1194.37 1193.89,1194.8 1194.91,1195.24 1195.94,1195.67 1196.96,1196.11 1197.98,1196.54 1199,1196.98 1200.02,1197.41 1201.05,1197.84 1202.07,1198.27 1203.09,1198.7 1204.11,1199.13 1205.13,1199.56 1206.16,1199.99 1207.18,1200.42 1208.2,1200.85 1209.22,1201.28 1210.24,1201.7 1211.27,1202.13 1212.29,1202.55 1213.31,1202.98 1214.33,1203.4 1215.35,1203.82 1216.37,1204.25 1217.4,1204.67 1218.42,1205.09 1219.44,1205.51 1220.46,1205.93 1221.48,1206.35 1222.51,1206.77 1223.53,1207.19 1224.55,1207.6 1225.57,1208.02 1226.59,1208.44 1227.62,1208.85 1228.64,1209.27 1229.66,1209.68 1230.68,1210.1 1231.7,1210.51 1232.73,1210.92 1233.75,1211.33 1234.77,1211.74 1235.79,1212.15 1236.81,1212.56 1237.84,1212.97 1238.86,1213.38 1239.88,1213.79 1240.9,1214.2 1241.92,1214.61 1242.94,1215.01 1243.97,1215.42 1244.99,1215.82 1246.01,1216.23 1247.03,1216.63 1248.05,1217.03 1249.08,1217.44 1250.1,1217.84 1251.12,1218.24 1252.14,1218.64 1253.16,1219.04 1254.19,1219.44 1255.21,1219.84 1256.23,1220.24 1257.25,1220.64 1258.27,1221.03 1259.3,1221.43 1260.32,1221.83 1261.34,1222.22 1262.36,1222.62 1263.38,1223.01 1264.41,1223.41 1265.43,1223.8 1266.45,1224.19 1267.47,1224.58 1268.49,1224.97 1269.51,1225.37 1270.54,1225.76 1271.56,1226.15 1272.58,1226.53 1273.6,1226.92 1274.62,1227.31 1275.65,1227.7 1276.67,1228.09 1277.69,1228.47 1278.71,1228.86 1279.73,1229.24 1280.76,1229.63 1281.78,1230.01 1282.8,1230.4 1283.82,1230.78 1284.84,1231.16 1285.87,1231.54 1286.89,1231.92 1287.91,1232.3 1288.93,1232.68 1289.95,1233.06 1290.98,1233.44 1292,1233.82 1293.02,1234.2 1294.04,1234.58 1295.06,1234.95 1296.09,1235.33 1297.11,1235.71 1298.13,1236.08 1299.15,1236.46 1300.17,1236.83 1301.19,1237.2 1302.22,1237.58 1303.24,1237.95 1304.26,1238.32 1305.28,1238.69 1306.3,1239.06 1307.33,1239.43 1308.35,1239.8 1309.37,1240.17 1310.39,1240.54 1311.41,1240.91 1312.44,1241.28 1313.46,1241.65 1314.48,1242.01 1315.5,1242.38 1316.52,1242.74 1317.55,1243.11 1318.57,1243.47 1319.59,1243.84 1320.61,1244.2 1321.63,1244.56 1322.66,1244.93 1323.68,1245.29 1324.7,1245.65 1325.72,1246.01 1326.74,1246.37 1327.76,1246.73 1328.79,1247.09 1329.81,1247.45 1330.83,1247.81 1331.85,1248.17 1332.87,1248.52 1333.9,1248.88 1334.92,1249.24 1335.94,1249.59 1336.96,1249.95 1337.98,1250.3 1339.01,1250.66 1340.03,1251.01 1341.05,1251.36 1342.07,1251.72 1343.09,1252.07 1344.12,1252.42 1345.14,1252.77 1346.16,1253.12 1347.18,1253.47 1348.2,1253.82 1349.23,1254.17 1350.25,1254.52 1351.27,1254.87 1352.29,1255.22 1353.31,1255.56 1354.33,1255.91 1355.36,1256.26 1356.38,1256.6 1357.4,1256.95 1358.42,1257.29 1359.44,1257.64 1360.47,1257.98 1361.49,1258.32 1362.51,1258.67 1363.53,1259.01 1364.55,1259.35 1365.58,1259.69 1366.6,1260.03 1367.62,1260.37 1368.64,1260.71 1369.66,1261.05 1370.69,1261.39 1371.71,1261.73 1372.73,1262.07 1373.75,1262.41 1374.77,1262.75 1375.8,1263.08 1376.82,1263.42 1377.84,1263.75 1378.86,1264.09 1379.88,1264.42 1380.9,1264.76 1381.93,1265.09 1382.95,1265.43 1383.97,1265.76 1384.99,1266.09 1386.01,1266.42 1387.04,1266.76 1388.06,1267.09 1389.08,1267.42 1390.1,1267.75 1391.12,1268.08 1392.15,1268.41 1393.17,1268.74 1394.19,1269.06 1395.21,1269.39 1396.23,1269.72 1397.26,1270.05 1398.28,1270.37 1399.3,1270.7 1400.32,1271.03 1401.34,1271.35 1402.37,1271.68 1403.39,1272 1404.41,1272.32 1405.43,1272.65 1406.45,1272.97 1407.47,1273.29 1408.5,1273.62 1409.52,1273.94 1410.54,1274.26 1411.56,1274.58 1412.58,1274.9 1413.61,1275.22 1414.63,1275.54 1415.65,1275.86 1416.67,1276.18 1417.69,1276.5 1418.72,1276.81 1419.74,1277.13 1420.76,1277.45 1421.78,1277.76 1422.8,1278.08 1423.83,1278.4 1424.85,1278.71 1425.87,1279.03 1426.89,1279.34 1427.91,1279.65 1428.94,1279.97 1429.96,1280.28 1430.98,1280.59 1432,1280.9 1433.02,1281.22 1434.04,1281.53 1435.07,1281.84 1436.09,1282.15 1437.11,1282.46 1438.13,1282.77 1439.15,1283.08 1440.18,1283.39 1441.2,1283.7 1442.22,1284 1443.24,1284.31 1444.26,1284.62 1445.29,1284.93 1446.31,1285.23 1447.33,1285.54 1448.35,1285.84 1449.37,1286.15 1450.4,1286.45 1451.42,1286.76 1452.44,1287.06 1453.46,1287.36 1454.48,1287.67 1455.51,1287.97 1456.53,1288.27 1457.55,1288.57 1458.57,1288.88 1459.59,1289.18 1460.62,1289.48 1461.64,1289.78 1462.66,1290.08 1463.68,1290.38 1464.7,1290.68 1465.72,1290.98 1466.75,1291.27 1467.77,1291.57 1468.79,1291.87 1469.81,1292.17 1470.83,1292.46 1471.86,1292.76 1472.88,1293.05 1473.9,1293.35 1474.92,1293.65 1475.94,1293.94 1476.97,1294.23 1477.99,1294.53 1479.01,1294.82 1480.03,1295.11 1481.05,1295.41 1482.08,1295.7 1483.1,1295.99 1484.12,1296.28 1485.14,1296.57 1486.16,1296.87 1487.19,1297.16 1488.21,1297.45 1489.23,1297.74 1490.25,1298.02 1491.27,1298.31 1492.29,1298.6 1493.32,1298.89 1494.34,1299.18 1495.36,1299.47 1496.38,1299.75 1497.4,1300.04 1498.43,1300.33 1499.45,1300.61 1500.47,1300.9 1501.49,1301.18 1502.51,1301.47 1503.54,1301.75 1504.56,1302.04 1505.58,1302.32 1506.6,1302.6 1507.62,1302.88 1508.65,1303.17 1509.67,1303.45 1510.69,1303.73 1511.71,1304.01 1512.73,1304.29 1513.76,1304.57 1514.78,1304.85 1515.8,1305.13 1516.82,1305.41 1517.84,1305.69 1518.86,1305.97 1519.89,1306.25 1520.91,1306.53 1521.93,1306.81 1522.95,1307.08 1523.97,1307.36 1525,1307.64 1526.02,1307.91 1527.04,1308.19 1528.06,1308.47 1529.08,1308.74 1530.11,1309.02 1531.13,1309.29 1532.15,1309.57 1533.17,1309.84 1534.19,1310.11 1535.22,1310.39 1536.24,1310.66 1537.26,1310.93 1538.28,1311.2 1539.3,1311.47 1540.33,1311.75 1541.35,1312.02 1542.37,1312.29 1543.39,1312.56 1544.41,1312.83 1545.43,1313.1 1546.46,1313.37 1547.48,1313.64 1548.5,1313.9 1549.52,1314.17 1550.54,1314.44 1551.57,1314.71 1552.59,1314.98 1553.61,1315.24 1554.63,1315.51 1555.65,1315.78 1556.68,1316.04 1557.7,1316.31 1558.72,1316.57 1559.74,1316.84 1560.76,1317.1 1561.79,1317.37 1562.81,1317.63 1563.83,1317.89 1564.85,1318.16 1565.87,1318.42 1566.9,1318.68 1567.92,1318.94 1568.94,1319.21 1569.96,1319.47 1570.98,1319.73 1572,1319.99 1573.03,1320.25 1574.05,1320.51 1575.07,1320.77 1576.09,1321.03 1577.11,1321.29 1578.14,1321.55 1579.16,1321.81 1580.18,1322.06 1581.2,1322.32 1582.22,1322.58 1583.25,1322.84 1584.27,1323.09 1585.29,1323.35 1586.31,1323.61 1587.33,1323.86 1588.36,1324.12 1589.38,1324.37 1590.4,1324.63 1591.42,1324.88 1592.44,1325.14 1593.47,1325.39 1594.49,1325.64 1595.51,1325.9 1596.53,1326.15 1597.55,1326.4 1598.57,1326.66 1599.6,1326.91 1600.62,1327.16 1601.64,1327.41 1602.66,1327.66 1603.68,1327.91 1604.71,1328.16 1605.73,1328.41 1606.75,1328.66 1607.77,1328.91 1608.79,1329.16 1609.82,1329.41 1610.84,1329.66 1611.86,1329.91 1612.88,1330.16 1613.9,1330.41 1614.93,1330.65 1615.95,1330.9 1616.97,1331.15 1617.99,1331.39 1619.01,1331.64 1620.04,1331.89 1621.06,1332.13 1622.08,1332.38 1623.1,1332.62 1624.12,1332.87 1625.15,1333.11 1626.17,1333.35 1627.19,1333.6 1628.21,1333.84 1629.23,1334.08 1630.25,1334.33 1631.28,1334.57 1632.3,1334.81 1633.32,1335.05 1634.34,1335.3 1635.36,1335.54 1636.39,1335.78 1637.41,1336.02 1638.43,1336.26 1639.45,1336.5 1640.47,1336.74 1641.5,1336.98 1642.52,1337.22 1643.54,1337.46 1644.56,1337.7 1645.58,1337.94 1646.61,1338.17 1647.63,1338.41 1648.65,1338.65 1649.67,1338.89 1650.69,1339.12 1651.72,1339.36 1652.74,1339.6 1653.76,1339.83 1654.78,1340.07 1655.8,1340.3 1656.82,1340.54 1657.85,1340.77 1658.87,1341.01 1659.89,1341.24 1660.91,1341.48 1661.93,1341.71 1662.96,1341.94 1663.98,1342.18 1665,1342.41 1666.02,1342.64 1667.04,1342.88 1668.07,1343.11 1669.09,1343.34 1670.11,1343.57 1671.13,1343.8 1672.15,1344.03 1673.18,1344.26 1674.2,1344.49 1675.22,1344.72 1676.24,1344.95 1677.26,1345.18 1678.29,1345.41 1679.31,1345.64 1680.33,1345.87 1681.35,1346.1 1682.37,1346.33 1683.39,1346.56 1684.42,1346.78 1685.44,1347.01 1686.46,1347.24 1687.48,1347.47 1688.5,1347.69 1689.53,1347.92 1690.55,1348.14 1691.57,1348.37 1692.59,1348.6 1693.61,1348.82 1694.64,1349.05 1695.66,1349.27 1696.68,1349.49 1697.7,1349.72 1698.72,1349.94 1699.75,1350.17 1700.77,1350.39 1701.79,1350.61 1702.81,1350.84 1703.83,1351.06 1704.86,1351.28 1705.88,1351.5 1706.9,1351.72 1707.92,1351.95 1708.94,1352.17 1709.96,1352.39 1710.99,1352.61 1712.01,1352.83 1713.03,1353.05 1714.05,1353.27 1715.07,1353.49 1716.1,1353.71 1717.12,1353.93 1718.14,1354.15 1719.16,1354.36 1720.18,1354.58 1721.21,1354.8 1722.23,1355.02 1723.25,1355.24 1724.27,1355.45 1725.29,1355.67 1726.32,1355.89 1727.34,1356.1 1728.36,1356.32 1729.38,1356.54 1730.4,1356.75 1731.43,1356.97 1732.45,1357.18 1733.47,1357.4 1734.49,1357.61 1735.51,1357.83 1736.53,1358.04 1737.56,1358.26 1738.58,1358.47 1739.6,1358.68 1740.62,1358.9 1741.64,1359.11 1742.67,1359.32 1743.69,1359.53 1744.71,1359.75 1745.73,1359.96 1746.75,1360.17 1747.78,1360.38 1748.8,1360.59 1749.82,1360.8 1750.84,1361.02 1751.86,1361.23 1752.89,1361.44 1753.91,1361.65 1754.93,1361.86 1755.95,1362.07 1756.97,1362.27 1758,1362.48 1759.02,1362.69 1760.04,1362.9 1761.06,1363.11 1762.08,1363.32 1763.1,1363.53 1764.13,1363.73 1765.15,1363.94 1766.17,1364.15 1767.19,1364.35 1768.21,1364.56 1769.24,1364.77 1770.26,1364.97 1771.28,1365.18 1772.3,1365.39 1773.32,1365.59 1774.35,1365.8 1775.37,1366 1776.39,1366.21 1777.41,1366.41 1778.43,1366.61 1779.46,1366.82 1780.48,1367.02 1781.5,1367.23 1782.52,1367.43 1783.54,1367.63 1784.57,1367.83 1785.59,1368.04 1786.61,1368.24 1787.63,1368.44 1788.65,1368.64 1789.67,1368.85 1790.7,1369.05 1791.72,1369.25 1792.74,1369.45 1793.76,1369.65 1794.78,1369.85 1795.81,1370.05 1796.83,1370.25 1797.85,1370.45 1798.87,1370.65 1799.89,1370.85 1800.92,1371.05 1801.94,1371.25 1802.96,1371.45 1803.98,1371.64 1805,1371.84 1806.03,1372.04 1807.05,1372.24 1808.07,1372.44 1809.09,1372.63 1810.11,1372.83 1811.14,1373.03 1812.16,1373.22 1813.18,1373.42 1814.2,1373.62 1815.22,1373.81 1816.25,1374.01 1817.27,1374.2 1818.29,1374.4 1819.31,1374.6 1820.33,1374.79 1821.35,1374.98 1822.38,1375.18 1823.4,1375.37 1824.42,1375.57 1825.44,1375.76 1826.46,1375.95 1827.49,1376.15 1828.51,1376.34 1829.53,1376.53 1830.55,1376.73 1831.57,1376.92 1832.6,1377.11 1833.62,1377.3 1834.64,1377.5 1835.66,1377.69 1836.68,1377.88 1837.71,1378.07 1838.73,1378.26 1839.75,1378.45 1840.77,1378.64 1841.79,1378.83 1842.82,1379.02 1843.84,1379.21 1844.86,1379.4 1845.88,1379.59 1846.9,1379.78 1847.92,1379.97 1848.95,1380.16 1849.97,1380.35 1850.99,1380.54 1852.01,1380.72 1853.03,1380.91 1854.06,1381.1 1855.08,1381.29 1856.1,1381.47 1857.12,1381.66 1858.14,1381.85 1859.17,1382.04 1860.19,1382.22 1861.21,1382.41 1862.23,1382.59 1863.25,1382.78 1864.28,1382.97 1865.3,1383.15 1866.32,1383.34 1867.34,1383.52 1868.36,1383.71 1869.39,1383.89 1870.41,1384.08 1871.43,1384.26 1872.45,1384.44 1873.47,1384.63 1874.49,1384.81 1875.52,1384.99 1876.54,1385.18 1877.56,1385.36 1878.58,1385.54 1879.6,1385.73 1880.63,1385.91 1881.65,1386.09 1882.67,1386.27 1883.69,1386.45 1884.71,1386.64 1885.74,1386.82 1886.76,1387 1887.78,1387.18 1888.8,1387.36 1889.82,1387.54 1890.85,1387.72 1891.87,1387.9 1892.89,1388.08 1893.91,1388.26 1894.93,1388.44 1895.96,1388.62 1896.98,1388.8 1898,1388.98 1899.02,1389.16 1900.04,1389.34 1901.06,1389.52 1902.09,1389.69 1903.11,1389.87 1904.13,1390.05 1905.15,1390.23 1906.17,1390.4 1907.2,1390.58 1908.22,1390.76 1909.24,1390.94 1910.26,1391.11 1911.28,1391.29 1912.31,1391.47 1913.33,1391.64 1914.35,1391.82 1915.37,1391.99 1916.39,1392.17 1917.42,1392.34 1918.44,1392.52 1919.46,1392.69 1920.48,1392.87 1921.5,1393.04 1922.53,1393.22 1923.55,1393.39 1924.57,1393.57 1925.59,1393.74 1926.61,1393.91 1927.63,1394.09 1928.66,1394.26 1929.68,1394.43 1930.7,1394.61 1931.72,1394.78 1932.74,1394.95 1933.77,1395.12 1934.79,1395.3 1935.81,1395.47 1936.83,1395.64 1937.85,1395.81 1938.88,1395.98 1939.9,1396.15 1940.92,1396.33 1941.94,1396.5 1942.96,1396.67 1943.99,1396.84 1945.01,1397.01 1946.03,1397.18 1947.05,1397.35 1948.07,1397.52 1949.1,1397.69 1950.12,1397.86 1951.14,1398.03 1952.16,1398.19 1953.18,1398.36 1954.2,1398.53 1955.23,1398.7 1956.25,1398.87 1957.27,1399.04 1958.29,1399.2 1959.31,1399.37 1960.34,1399.54 1961.36,1399.71 1962.38,1399.87 1963.4,1400.04 1964.42,1400.21 1965.45,1400.38 1966.47,1400.54 1967.49,1400.71 1968.51,1400.87 1969.53,1401.04 1970.56,1401.21 1971.58,1401.37 1972.6,1401.54 1973.62,1401.7 1974.64,1401.87 1975.67,1402.03 1976.69,1402.2 1977.71,1402.36 1978.73,1402.53 1979.75,1402.69 1980.78,1402.85 1981.8,1403.02 1982.82,1403.18 1983.84,1403.35 1984.86,1403.51 1985.88,1403.67 1986.91,1403.84 1987.93,1404 1988.95,1404.16 1989.97,1404.32 1990.99,1404.49 1992.02,1404.65 1993.04,1404.81 1994.06,1404.97 1995.08,1405.13 1996.1,1405.29 1997.13,1405.46 1998.15,1405.62 1999.17,1405.78 2000.19,1405.94 2001.21,1406.1 2002.24,1406.26 2003.26,1406.42 2004.28,1406.58 2005.3,1406.74 2006.32,1406.9 2007.35,1407.06 2008.37,1407.22 2009.39,1407.38 2010.41,1407.54 2011.43,1407.7 2012.45,1407.86 2013.48,1408.01 2014.5,1408.17 2015.52,1408.33 2016.54,1408.49 2017.56,1408.65 2018.59,1408.8 2019.61,1408.96 2020.63,1409.12 2021.65,1409.28 2022.67,1409.43 2023.7,1409.59 2024.72,1409.75 2025.74,1409.9 2026.76,1410.06 2027.78,1410.22 2028.81,1410.37 2029.83,1410.53 2030.85,1410.68 2031.87,1410.84 2032.89,1411 2033.92,1411.15 2034.94,1411.31 2035.96,1411.46 2036.98,1411.62 2038,1411.77 2039.02,1411.93 2040.05,1412.08 2041.07,1412.23 2042.09,1412.39 2043.11,1412.54 2044.13,1412.7 2045.16,1412.85 2046.18,1413 2047.2,1413.16 2048.22,1413.31 2049.24,1413.46 2050.27,1413.61 2051.29,1413.77 2052.31,1413.92 2053.33,1414.07 2054.35,1414.22 2055.38,1414.38 2056.4,1414.53 2057.42,1414.68 2058.44,1414.83 2059.46,1414.98 2060.49,1415.13 2061.51,1415.29 2062.53,1415.44 2063.55,1415.59 2064.57,1415.74 2065.59,1415.89 2066.62,1416.04 2067.64,1416.19 2068.66,1416.34 2069.68,1416.49 2070.7,1416.64 2071.73,1416.79 2072.75,1416.94 2073.77,1417.09 2074.79,1417.24 2075.81,1417.38 2076.84,1417.53 2077.86,1417.68 2078.88,1417.83 2079.9,1417.98 2080.92,1418.13 2081.95,1418.27 2082.97,1418.42 2083.99,1418.57 2085.01,1418.72 2086.03,1418.86 2087.06,1419.01 2088.08,1419.16 2089.1,1419.31 2090.12,1419.45 2091.14,1419.6 2092.16,1419.75 2093.19,1419.89 2094.21,1420.04 2095.23,1420.18 2096.25,1420.33 2097.27,1420.48 2098.3,1420.62 2099.32,1420.77 2100.34,1420.91 2101.36,1421.06 2102.38,1421.2 2103.41,1421.35 2104.43,1421.49 2105.45,1421.64 2106.47,1421.78 2107.49,1421.93 2108.52,1422.07 2109.54,1422.21 2110.56,1422.36 2111.58,1422.5 2112.6,1422.65 2113.63,1422.79 2114.65,1422.93 2115.67,1423.08 2116.69,1423.22 2117.71,1423.36 2118.73,1423.5 2119.76,1423.65 2120.78,1423.79 2121.8,1423.93 2122.82,1424.07 2123.84,1424.22 2124.87,1424.36 2125.89,1424.5 2126.91,1424.64 2127.93,1424.78 2128.95,1424.92 2129.98,1425.06 2131,1425.21 2132.02,1425.35 2133.04,1425.49 2134.06,1425.63 2135.09,1425.77 2136.11,1425.91 2137.13,1426.05 2138.15,1426.19 2139.17,1426.33 2140.2,1426.47 2141.22,1426.61 2142.24,1426.75 2143.26,1426.89 2144.28,1427.03 2145.31,1427.16 2146.33,1427.3 2147.35,1427.44 2148.37,1427.58 2149.39,1427.72 2150.41,1427.86 2151.44,1428 2152.46,1428.13 2153.48,1428.27 2154.5,1428.41 2155.52,1428.55 2156.55,1428.69 2157.57,1428.82 2158.59,1428.96 2159.61,1429.1 2160.63,1429.23 2161.66,1429.37 2162.68,1429.51 2163.7,1429.64 2164.72,1429.78 2165.74,1429.92 2166.77,1430.05 2167.79,1430.19 2168.81,1430.33 2169.83,1430.46 2170.85,1430.6 2171.88,1430.73 2172.9,1430.87 2173.92,1431 2174.94,1431.14 2175.96,1431.27 2176.98,1431.41 2178.01,1431.54 2179.03,1431.68 2180.05,1431.81 2181.07,1431.95 2182.09,1432.08 2183.12,1432.21 2184.14,1432.35 2185.16,1432.48 2186.18,1432.62 2187.2,1432.75 2188.23,1432.88 2189.25,1433.02 2190.27,1433.15 2191.29,1433.28 2192.31,1433.41 2193.34,1433.55 2194.36,1433.68 2195.38,1433.81 2196.4,1433.95 2197.42,1434.08 2198.45,1434.21 2199.47,1434.34 2200.49,1434.47 2201.51,1434.61 2202.53,1434.74 2203.55,1434.87 2204.58,1435 2205.6,1435.13 2206.62,1435.26 2207.64,1435.39 2208.66,1435.52 2209.69,1435.65 2210.71,1435.79 2211.73,1435.92 2212.75,1436.05 2213.77,1436.18 2214.8,1436.31 2215.82,1436.44 2216.84,1436.57 2217.86,1436.7 2218.88,1436.83 2219.91,1436.95 2220.93,1437.08 2221.95,1437.21 2222.97,1437.34 2223.99,1437.47 2225.02,1437.6 2226.04,1437.73 2227.06,1437.86 2228.08,1437.99 2229.1,1438.11 2230.12,1438.24 2231.15,1438.37 2232.17,1438.5 2233.19,1438.63 2234.21,1438.75 2235.23,1438.88 2236.26,1439.01 2237.28,1439.14 2238.3,1439.26 2239.32,1439.39 2240.34,1439.52 2241.37,1439.64 2242.39,1439.77 2243.41,1439.9 2244.43,1440.02 2245.45,1440.15 2246.48,1440.28 2247.5,1440.4 2248.52,1440.53 2249.54,1440.66 2250.56,1440.78 2251.59,1440.91 2252.61,1441.03 2253.63,1441.16 2254.65,1441.28 2255.67,1441.41 2256.69,1441.53 2257.72,1441.66 2258.74,1441.78 2259.76,1441.91 2260.78,1442.03 2261.8,1442.16 2262.83,1442.28 2263.85,1442.41 2264.87,1442.53 2265.89,1442.65 2266.91,1442.78 2267.94,1442.9 2268.96,1443.02 2269.98,1443.15 2271,1443.27 2272.02,1443.4 2273.05,1443.52 2274.07,1443.64 2275.09,1443.76 2276.11,1443.89 2277.13,1444.01 2278.16,1444.13 2279.18,1444.25 2280.2,1444.38 2281.22,1444.5 2282.24,1444.62 2283.26,1444.74 2284.29,1444.87 2285.31,1444.99 2286.33,1445.11 2287.35,1445.23 2288.37,1445.35 2289.4,1445.47 2290.42,1445.59 2291.44,1445.72 "/>
<path clip-path="url(#clip980)" d="M2011.46 198.898 L2280.54 198.898 L2280.54 95.2176 L2011.46 95.2176  Z" fill="#ffffff" fill-rule="evenodd" fill-opacity="1"/>
<polyline clip-path="url(#clip980)" style="stroke:#000000; stroke-linecap:round; stroke-linejoin:round; stroke-width:4; stroke-opacity:1; fill:none" points="2011.46,198.898 2280.54,198.898 2280.54,95.2176 2011.46,95.2176 2011.46,198.898 "/>
<polyline clip-path="url(#clip980)" style="stroke:#009af9; stroke-linecap:round; stroke-linejoin:round; stroke-width:4; stroke-opacity:1; fill:none" points="2035.53,147.058 2179.97,147.058 "/>
<path clip-path="url(#clip980)" d="M2217.88 166.745 Q2216.07 171.375 2214.36 172.787 Q2212.65 174.199 2209.78 174.199 L2206.38 174.199 L2206.38 170.634 L2208.88 170.634 Q2210.63 170.634 2211.61 169.8 Q2212.58 168.967 2213.76 165.865 L2214.52 163.921 L2204.04 138.412 L2208.55 138.412 L2216.65 158.689 L2224.76 138.412 L2229.27 138.412 L2217.88 166.745 Z" fill="#000000" fill-rule="nonzero" fill-opacity="1" /><path clip-path="url(#clip980)" d="M2236.56 160.402 L2244.2 160.402 L2244.2 134.037 L2235.89 135.703 L2235.89 131.444 L2244.15 129.778 L2248.83 129.778 L2248.83 160.402 L2256.47 160.402 L2256.47 164.338 L2236.56 164.338 L2236.56 160.402 Z" fill="#000000" fill-rule="nonzero" fill-opacity="1" /></svg>
