<?xml version="1.0" encoding="utf-8"?>
<svg xmlns="http://www.w3.org/2000/svg" xmlns:xlink="http://www.w3.org/1999/xlink" width="600" height="400" viewBox="0 0 2400 1600">
<defs>
  <clipPath id="clip300">
    <rect x="0" y="0" width="2400" height="1600"/>
  </clipPath>
</defs>
<path clip-path="url(#clip300)" d="M0 1600 L2400 1600 L2400 0 L0 0  Z" fill="#ffffff" fill-rule="evenodd" fill-opacity="1"/>
<defs>
  <clipPath id="clip301">
    <rect x="480" y="0" width="1681" height="1600"/>
  </clipPath>
</defs>
<path clip-path="url(#clip300)" d="M156.274 1486.45 L2352.76 1486.45 L2352.76 47.2441 L156.274 47.2441  Z" fill="#ffffff" fill-rule="evenodd" fill-opacity="1"/>
<defs>
  <clipPath id="clip302">
    <rect x="156" y="47" width="2197" height="1440"/>
  </clipPath>
</defs>
<polyline clip-path="url(#clip302)" style="stroke:#000000; stroke-linecap:round; stroke-linejoin:round; stroke-width:2; stroke-opacity:0.1; fill:none" points="218.439,1486.45 218.439,47.2441 "/>
<polyline clip-path="url(#clip302)" style="stroke:#000000; stroke-linecap:round; stroke-linejoin:round; stroke-width:2; stroke-opacity:0.1; fill:none" points="633.035,1486.45 633.035,47.2441 "/>
<polyline clip-path="url(#clip302)" style="stroke:#000000; stroke-linecap:round; stroke-linejoin:round; stroke-width:2; stroke-opacity:0.1; fill:none" points="1047.63,1486.45 1047.63,47.2441 "/>
<polyline clip-path="url(#clip302)" style="stroke:#000000; stroke-linecap:round; stroke-linejoin:round; stroke-width:2; stroke-opacity:0.1; fill:none" points="1462.23,1486.45 1462.23,47.2441 "/>
<polyline clip-path="url(#clip302)" style="stroke:#000000; stroke-linecap:round; stroke-linejoin:round; stroke-width:2; stroke-opacity:0.1; fill:none" points="1876.82,1486.45 1876.82,47.2441 "/>
<polyline clip-path="url(#clip302)" style="stroke:#000000; stroke-linecap:round; stroke-linejoin:round; stroke-width:2; stroke-opacity:0.1; fill:none" points="2291.42,1486.45 2291.42,47.2441 "/>
<polyline clip-path="url(#clip300)" style="stroke:#000000; stroke-linecap:round; stroke-linejoin:round; stroke-width:4; stroke-opacity:1; fill:none" points="156.274,1486.45 2352.76,1486.45 "/>
<polyline clip-path="url(#clip300)" style="stroke:#000000; stroke-linecap:round; stroke-linejoin:round; stroke-width:4; stroke-opacity:1; fill:none" points="218.439,1486.45 218.439,1467.55 "/>
<polyline clip-path="url(#clip300)" style="stroke:#000000; stroke-linecap:round; stroke-linejoin:round; stroke-width:4; stroke-opacity:1; fill:none" points="633.035,1486.45 633.035,1467.55 "/>
<polyline clip-path="url(#clip300)" style="stroke:#000000; stroke-linecap:round; stroke-linejoin:round; stroke-width:4; stroke-opacity:1; fill:none" points="1047.63,1486.45 1047.63,1467.55 "/>
<polyline clip-path="url(#clip300)" style="stroke:#000000; stroke-linecap:round; stroke-linejoin:round; stroke-width:4; stroke-opacity:1; fill:none" points="1462.23,1486.45 1462.23,1467.55 "/>
<polyline clip-path="url(#clip300)" style="stroke:#000000; stroke-linecap:round; stroke-linejoin:round; stroke-width:4; stroke-opacity:1; fill:none" points="1876.82,1486.45 1876.82,1467.55 "/>
<polyline clip-path="url(#clip300)" style="stroke:#000000; stroke-linecap:round; stroke-linejoin:round; stroke-width:4; stroke-opacity:1; fill:none" points="2291.42,1486.45 2291.42,1467.55 "/>
<path clip-path="url(#clip300)" d="M218.439 1517.37 Q214.828 1517.37 212.999 1520.93 Q211.193 1524.47 211.193 1531.6 Q211.193 1538.71 212.999 1542.27 Q214.828 1545.82 218.439 1545.82 Q222.073 1545.82 223.879 1542.27 Q225.707 1538.71 225.707 1531.6 Q225.707 1524.47 223.879 1520.93 Q222.073 1517.37 218.439 1517.37 M218.439 1513.66 Q224.249 1513.66 227.304 1518.27 Q230.383 1522.85 230.383 1531.6 Q230.383 1540.33 227.304 1544.94 Q224.249 1549.52 218.439 1549.52 Q212.629 1549.52 209.55 1544.94 Q206.494 1540.33 206.494 1531.6 Q206.494 1522.85 209.55 1518.27 Q212.629 1513.66 218.439 1513.66 Z" fill="#000000" fill-rule="nonzero" fill-opacity="1" /><path clip-path="url(#clip300)" d="M592.653 1514.29 L611.01 1514.29 L611.01 1518.22 L596.936 1518.22 L596.936 1526.7 Q597.954 1526.35 598.973 1526.19 Q599.991 1526 601.01 1526 Q606.797 1526 610.176 1529.17 Q613.556 1532.34 613.556 1537.76 Q613.556 1543.34 610.084 1546.44 Q606.612 1549.52 600.292 1549.52 Q598.116 1549.52 595.848 1549.15 Q593.602 1548.78 591.195 1548.04 L591.195 1543.34 Q593.278 1544.47 595.501 1545.03 Q597.723 1545.58 600.2 1545.58 Q604.204 1545.58 606.542 1543.48 Q608.88 1541.37 608.88 1537.76 Q608.88 1534.15 606.542 1532.04 Q604.204 1529.94 600.2 1529.94 Q598.325 1529.94 596.45 1530.35 Q594.598 1530.77 592.653 1531.65 L592.653 1514.29 Z" fill="#000000" fill-rule="nonzero" fill-opacity="1" /><path clip-path="url(#clip300)" d="M632.769 1517.37 Q629.158 1517.37 627.329 1520.93 Q625.524 1524.47 625.524 1531.6 Q625.524 1538.71 627.329 1542.27 Q629.158 1545.82 632.769 1545.82 Q636.403 1545.82 638.209 1542.27 Q640.037 1538.71 640.037 1531.6 Q640.037 1524.47 638.209 1520.93 Q636.403 1517.37 632.769 1517.37 M632.769 1513.66 Q638.579 1513.66 641.635 1518.27 Q644.713 1522.85 644.713 1531.6 Q644.713 1540.33 641.635 1544.94 Q638.579 1549.52 632.769 1549.52 Q626.959 1549.52 623.88 1544.94 Q620.825 1540.33 620.825 1531.6 Q620.825 1522.85 623.88 1518.27 Q626.959 1513.66 632.769 1513.66 Z" fill="#000000" fill-rule="nonzero" fill-opacity="1" /><path clip-path="url(#clip300)" d="M662.931 1517.37 Q659.32 1517.37 657.491 1520.93 Q655.685 1524.47 655.685 1531.6 Q655.685 1538.71 657.491 1542.27 Q659.32 1545.82 662.931 1545.82 Q666.565 1545.82 668.371 1542.27 Q670.199 1538.71 670.199 1531.6 Q670.199 1524.47 668.371 1520.93 Q666.565 1517.37 662.931 1517.37 M662.931 1513.66 Q668.741 1513.66 671.796 1518.27 Q674.875 1522.85 674.875 1531.6 Q674.875 1540.33 671.796 1544.94 Q668.741 1549.52 662.931 1549.52 Q657.121 1549.52 654.042 1544.94 Q650.986 1540.33 650.986 1531.6 Q650.986 1522.85 654.042 1518.27 Q657.121 1513.66 662.931 1513.66 Z" fill="#000000" fill-rule="nonzero" fill-opacity="1" /><path clip-path="url(#clip300)" d="M992.157 1544.91 L999.796 1544.91 L999.796 1518.55 L991.486 1520.21 L991.486 1515.95 L999.75 1514.29 L1004.43 1514.29 L1004.43 1544.91 L1012.06 1544.91 L1012.06 1548.85 L992.157 1548.85 L992.157 1544.91 Z" fill="#000000" fill-rule="nonzero" fill-opacity="1" /><path clip-path="url(#clip300)" d="M1031.51 1517.37 Q1027.9 1517.37 1026.07 1520.93 Q1024.26 1524.47 1024.26 1531.6 Q1024.26 1538.71 1026.07 1542.27 Q1027.9 1545.82 1031.51 1545.82 Q1035.14 1545.82 1036.95 1542.27 Q1038.78 1538.71 1038.78 1531.6 Q1038.78 1524.47 1036.95 1520.93 Q1035.14 1517.37 1031.51 1517.37 M1031.51 1513.66 Q1037.32 1513.66 1040.37 1518.27 Q1043.45 1522.85 1043.45 1531.6 Q1043.45 1540.33 1040.37 1544.94 Q1037.32 1549.52 1031.51 1549.52 Q1025.7 1549.52 1022.62 1544.94 Q1019.56 1540.33 1019.56 1531.6 Q1019.56 1522.85 1022.62 1518.27 Q1025.7 1513.66 1031.51 1513.66 Z" fill="#000000" fill-rule="nonzero" fill-opacity="1" /><path clip-path="url(#clip300)" d="M1061.67 1517.37 Q1058.06 1517.37 1056.23 1520.93 Q1054.43 1524.47 1054.43 1531.6 Q1054.43 1538.71 1056.23 1542.27 Q1058.06 1545.82 1061.67 1545.82 Q1065.3 1545.82 1067.11 1542.27 Q1068.94 1538.71 1068.94 1531.6 Q1068.94 1524.47 1067.11 1520.93 Q1065.3 1517.37 1061.67 1517.37 M1061.67 1513.66 Q1067.48 1513.66 1070.54 1518.27 Q1073.62 1522.85 1073.62 1531.6 Q1073.62 1540.33 1070.54 1544.94 Q1067.48 1549.52 1061.67 1549.52 Q1055.86 1549.52 1052.78 1544.94 Q1049.73 1540.33 1049.73 1531.6 Q1049.73 1522.85 1052.78 1518.27 Q1055.86 1513.66 1061.67 1513.66 Z" fill="#000000" fill-rule="nonzero" fill-opacity="1" /><path clip-path="url(#clip300)" d="M1091.83 1517.37 Q1088.22 1517.37 1086.39 1520.93 Q1084.59 1524.47 1084.59 1531.6 Q1084.59 1538.71 1086.39 1542.27 Q1088.22 1545.82 1091.83 1545.82 Q1095.47 1545.82 1097.27 1542.27 Q1099.1 1538.71 1099.1 1531.6 Q1099.1 1524.47 1097.27 1520.93 Q1095.47 1517.37 1091.83 1517.37 M1091.83 1513.66 Q1097.64 1513.66 1100.7 1518.27 Q1103.78 1522.85 1103.78 1531.6 Q1103.78 1540.33 1100.7 1544.94 Q1097.64 1549.52 1091.83 1549.52 Q1086.02 1549.52 1082.94 1544.94 Q1079.89 1540.33 1079.89 1531.6 Q1079.89 1522.85 1082.94 1518.27 Q1086.02 1513.66 1091.83 1513.66 Z" fill="#000000" fill-rule="nonzero" fill-opacity="1" /><path clip-path="url(#clip300)" d="M1406.75 1544.91 L1414.39 1544.91 L1414.39 1518.55 L1406.08 1520.21 L1406.08 1515.95 L1414.35 1514.29 L1419.02 1514.29 L1419.02 1544.91 L1426.66 1544.91 L1426.66 1548.85 L1406.75 1548.85 L1406.75 1544.91 Z" fill="#000000" fill-rule="nonzero" fill-opacity="1" /><path clip-path="url(#clip300)" d="M1436.15 1514.29 L1454.51 1514.29 L1454.51 1518.22 L1440.43 1518.22 L1440.43 1526.7 Q1441.45 1526.35 1442.47 1526.19 Q1443.49 1526 1444.51 1526 Q1450.3 1526 1453.67 1529.17 Q1457.05 1532.34 1457.05 1537.76 Q1457.05 1543.34 1453.58 1546.44 Q1450.11 1549.52 1443.79 1549.52 Q1441.61 1549.52 1439.35 1549.15 Q1437.1 1548.78 1434.69 1548.04 L1434.69 1543.34 Q1436.78 1544.47 1439 1545.03 Q1441.22 1545.58 1443.7 1545.58 Q1447.7 1545.58 1450.04 1543.48 Q1452.38 1541.37 1452.38 1537.76 Q1452.38 1534.15 1450.04 1532.04 Q1447.7 1529.94 1443.7 1529.94 Q1441.82 1529.94 1439.95 1530.35 Q1438.1 1530.77 1436.15 1531.65 L1436.15 1514.29 Z" fill="#000000" fill-rule="nonzero" fill-opacity="1" /><path clip-path="url(#clip300)" d="M1476.27 1517.37 Q1472.66 1517.37 1470.83 1520.93 Q1469.02 1524.47 1469.02 1531.6 Q1469.02 1538.71 1470.83 1542.27 Q1472.66 1545.82 1476.27 1545.82 Q1479.9 1545.82 1481.71 1542.27 Q1483.54 1538.71 1483.54 1531.6 Q1483.54 1524.47 1481.71 1520.93 Q1479.9 1517.37 1476.27 1517.37 M1476.27 1513.66 Q1482.08 1513.66 1485.13 1518.27 Q1488.21 1522.85 1488.21 1531.6 Q1488.21 1540.33 1485.13 1544.94 Q1482.08 1549.52 1476.27 1549.52 Q1470.46 1549.52 1467.38 1544.94 Q1464.32 1540.33 1464.32 1531.6 Q1464.32 1522.85 1467.38 1518.27 Q1470.46 1513.66 1476.27 1513.66 Z" fill="#000000" fill-rule="nonzero" fill-opacity="1" /><path clip-path="url(#clip300)" d="M1506.43 1517.37 Q1502.82 1517.37 1500.99 1520.93 Q1499.18 1524.47 1499.18 1531.6 Q1499.18 1538.71 1500.99 1542.27 Q1502.82 1545.82 1506.43 1545.82 Q1510.06 1545.82 1511.87 1542.27 Q1513.7 1538.71 1513.7 1531.6 Q1513.7 1524.47 1511.87 1520.93 Q1510.06 1517.37 1506.43 1517.37 M1506.43 1513.66 Q1512.24 1513.66 1515.29 1518.27 Q1518.37 1522.85 1518.37 1531.6 Q1518.37 1540.33 1515.29 1544.94 Q1512.24 1549.52 1506.43 1549.52 Q1500.62 1549.52 1497.54 1544.94 Q1494.48 1540.33 1494.48 1531.6 Q1494.48 1522.85 1497.54 1518.27 Q1500.62 1513.66 1506.43 1513.66 Z" fill="#000000" fill-rule="nonzero" fill-opacity="1" /><path clip-path="url(#clip300)" d="M1825.44 1544.91 L1841.75 1544.91 L1841.75 1548.85 L1819.81 1548.85 L1819.81 1544.91 Q1822.47 1542.16 1827.06 1537.53 Q1831.66 1532.88 1832.84 1531.53 Q1835.09 1529.01 1835.97 1527.27 Q1836.87 1525.51 1836.87 1523.82 Q1836.87 1521.07 1834.93 1519.33 Q1833 1517.6 1829.9 1517.6 Q1827.7 1517.6 1825.25 1518.36 Q1822.82 1519.13 1820.04 1520.68 L1820.04 1515.95 Q1822.87 1514.82 1825.32 1514.24 Q1827.77 1513.66 1829.81 1513.66 Q1835.18 1513.66 1838.38 1516.35 Q1841.57 1519.03 1841.57 1523.52 Q1841.57 1525.65 1840.76 1527.57 Q1839.97 1529.47 1837.87 1532.07 Q1837.29 1532.74 1834.19 1535.95 Q1831.08 1539.15 1825.44 1544.91 Z" fill="#000000" fill-rule="nonzero" fill-opacity="1" /><path clip-path="url(#clip300)" d="M1861.57 1517.37 Q1857.96 1517.37 1856.13 1520.93 Q1854.32 1524.47 1854.32 1531.6 Q1854.32 1538.71 1856.13 1542.27 Q1857.96 1545.82 1861.57 1545.82 Q1865.2 1545.82 1867.01 1542.27 Q1868.84 1538.71 1868.84 1531.6 Q1868.84 1524.47 1867.01 1520.93 Q1865.2 1517.37 1861.57 1517.37 M1861.57 1513.66 Q1867.38 1513.66 1870.44 1518.27 Q1873.51 1522.85 1873.51 1531.6 Q1873.51 1540.33 1870.44 1544.94 Q1867.38 1549.52 1861.57 1549.52 Q1855.76 1549.52 1852.68 1544.94 Q1849.63 1540.33 1849.63 1531.6 Q1849.63 1522.85 1852.68 1518.27 Q1855.76 1513.66 1861.57 1513.66 Z" fill="#000000" fill-rule="nonzero" fill-opacity="1" /><path clip-path="url(#clip300)" d="M1891.73 1517.37 Q1888.12 1517.37 1886.29 1520.93 Q1884.49 1524.47 1884.49 1531.6 Q1884.49 1538.71 1886.29 1542.27 Q1888.12 1545.82 1891.73 1545.82 Q1895.37 1545.82 1897.17 1542.27 Q1899 1538.71 1899 1531.6 Q1899 1524.47 1897.17 1520.93 Q1895.37 1517.37 1891.73 1517.37 M1891.73 1513.66 Q1897.54 1513.66 1900.6 1518.27 Q1903.68 1522.85 1903.68 1531.6 Q1903.68 1540.33 1900.6 1544.94 Q1897.54 1549.52 1891.73 1549.52 Q1885.92 1549.52 1882.84 1544.94 Q1879.79 1540.33 1879.79 1531.6 Q1879.79 1522.85 1882.84 1518.27 Q1885.92 1513.66 1891.73 1513.66 Z" fill="#000000" fill-rule="nonzero" fill-opacity="1" /><path clip-path="url(#clip300)" d="M1921.89 1517.37 Q1918.28 1517.37 1916.45 1520.93 Q1914.65 1524.47 1914.65 1531.6 Q1914.65 1538.71 1916.45 1542.27 Q1918.28 1545.82 1921.89 1545.82 Q1925.53 1545.82 1927.33 1542.27 Q1929.16 1538.71 1929.16 1531.6 Q1929.16 1524.47 1927.33 1520.93 Q1925.53 1517.37 1921.89 1517.37 M1921.89 1513.66 Q1927.7 1513.66 1930.76 1518.27 Q1933.84 1522.85 1933.84 1531.6 Q1933.84 1540.33 1930.76 1544.94 Q1927.7 1549.52 1921.89 1549.52 Q1916.08 1549.52 1913 1544.94 Q1909.95 1540.33 1909.95 1531.6 Q1909.95 1522.85 1913 1518.27 Q1916.08 1513.66 1921.89 1513.66 Z" fill="#000000" fill-rule="nonzero" fill-opacity="1" /><path clip-path="url(#clip300)" d="M2240.03 1544.91 L2256.35 1544.91 L2256.35 1548.85 L2234.41 1548.85 L2234.41 1544.91 Q2237.07 1542.16 2241.65 1537.53 Q2246.26 1532.88 2247.44 1531.53 Q2249.68 1529.01 2250.56 1527.27 Q2251.47 1525.51 2251.47 1523.82 Q2251.47 1521.07 2249.52 1519.33 Q2247.6 1517.6 2244.5 1517.6 Q2242.3 1517.6 2239.85 1518.36 Q2237.42 1519.13 2234.64 1520.68 L2234.64 1515.95 Q2237.46 1514.82 2239.92 1514.24 Q2242.37 1513.66 2244.41 1513.66 Q2249.78 1513.66 2252.97 1516.35 Q2256.17 1519.03 2256.17 1523.52 Q2256.17 1525.65 2255.36 1527.57 Q2254.57 1529.47 2252.46 1532.07 Q2251.88 1532.74 2248.78 1535.95 Q2245.68 1539.15 2240.03 1544.91 Z" fill="#000000" fill-rule="nonzero" fill-opacity="1" /><path clip-path="url(#clip300)" d="M2266.21 1514.29 L2284.57 1514.29 L2284.57 1518.22 L2270.49 1518.22 L2270.49 1526.7 Q2271.51 1526.35 2272.53 1526.19 Q2273.55 1526 2274.57 1526 Q2280.36 1526 2283.74 1529.17 Q2287.11 1532.34 2287.11 1537.76 Q2287.11 1543.34 2283.64 1546.44 Q2280.17 1549.52 2273.85 1549.52 Q2271.68 1549.52 2269.41 1549.15 Q2267.16 1548.78 2264.75 1548.04 L2264.75 1543.34 Q2266.84 1544.47 2269.06 1545.03 Q2271.28 1545.58 2273.76 1545.58 Q2277.76 1545.58 2280.1 1543.48 Q2282.44 1541.37 2282.44 1537.76 Q2282.44 1534.15 2280.1 1532.04 Q2277.76 1529.94 2273.76 1529.94 Q2271.88 1529.94 2270.01 1530.35 Q2268.16 1530.77 2266.21 1531.65 L2266.21 1514.29 Z" fill="#000000" fill-rule="nonzero" fill-opacity="1" /><path clip-path="url(#clip300)" d="M2306.33 1517.37 Q2302.72 1517.37 2300.89 1520.93 Q2299.08 1524.47 2299.08 1531.6 Q2299.08 1538.71 2300.89 1542.27 Q2302.72 1545.82 2306.33 1545.82 Q2309.96 1545.82 2311.77 1542.27 Q2313.6 1538.71 2313.6 1531.6 Q2313.6 1524.47 2311.77 1520.93 Q2309.96 1517.37 2306.33 1517.37 M2306.33 1513.66 Q2312.14 1513.66 2315.19 1518.27 Q2318.27 1522.85 2318.27 1531.6 Q2318.27 1540.33 2315.19 1544.94 Q2312.14 1549.52 2306.33 1549.52 Q2300.52 1549.52 2297.44 1544.94 Q2294.38 1540.33 2294.38 1531.6 Q2294.38 1522.85 2297.44 1518.27 Q2300.52 1513.66 2306.33 1513.66 Z" fill="#000000" fill-rule="nonzero" fill-opacity="1" /><path clip-path="url(#clip300)" d="M2336.49 1517.37 Q2332.88 1517.37 2331.05 1520.93 Q2329.24 1524.47 2329.24 1531.6 Q2329.24 1538.71 2331.05 1542.27 Q2332.88 1545.82 2336.49 1545.82 Q2340.12 1545.82 2341.93 1542.27 Q2343.76 1538.71 2343.76 1531.6 Q2343.76 1524.47 2341.93 1520.93 Q2340.12 1517.37 2336.49 1517.37 M2336.49 1513.66 Q2342.3 1513.66 2345.36 1518.27 Q2348.43 1522.85 2348.43 1531.6 Q2348.43 1540.33 2345.36 1544.94 Q2342.3 1549.52 2336.49 1549.52 Q2330.68 1549.52 2327.6 1544.94 Q2324.55 1540.33 2324.55 1531.6 Q2324.55 1522.85 2327.6 1518.27 Q2330.68 1513.66 2336.49 1513.66 Z" fill="#000000" fill-rule="nonzero" fill-opacity="1" /><polyline clip-path="url(#clip302)" style="stroke:#000000; stroke-linecap:round; stroke-linejoin:round; stroke-width:2; stroke-opacity:0.1; fill:none" points="156.274,1323.5 2352.76,1323.5 "/>
<polyline clip-path="url(#clip302)" style="stroke:#000000; stroke-linecap:round; stroke-linejoin:round; stroke-width:2; stroke-opacity:0.1; fill:none" points="156.274,939.39 2352.76,939.39 "/>
<polyline clip-path="url(#clip302)" style="stroke:#000000; stroke-linecap:round; stroke-linejoin:round; stroke-width:2; stroke-opacity:0.1; fill:none" points="156.274,555.28 2352.76,555.28 "/>
<polyline clip-path="url(#clip302)" style="stroke:#000000; stroke-linecap:round; stroke-linejoin:round; stroke-width:2; stroke-opacity:0.1; fill:none" points="156.274,171.171 2352.76,171.171 "/>
<polyline clip-path="url(#clip300)" style="stroke:#000000; stroke-linecap:round; stroke-linejoin:round; stroke-width:4; stroke-opacity:1; fill:none" points="156.274,1486.45 156.274,47.2441 "/>
<polyline clip-path="url(#clip300)" style="stroke:#000000; stroke-linecap:round; stroke-linejoin:round; stroke-width:4; stroke-opacity:1; fill:none" points="156.274,1323.5 175.172,1323.5 "/>
<polyline clip-path="url(#clip300)" style="stroke:#000000; stroke-linecap:round; stroke-linejoin:round; stroke-width:4; stroke-opacity:1; fill:none" points="156.274,939.39 175.172,939.39 "/>
<polyline clip-path="url(#clip300)" style="stroke:#000000; stroke-linecap:round; stroke-linejoin:round; stroke-width:4; stroke-opacity:1; fill:none" points="156.274,555.28 175.172,555.28 "/>
<polyline clip-path="url(#clip300)" style="stroke:#000000; stroke-linecap:round; stroke-linejoin:round; stroke-width:4; stroke-opacity:1; fill:none" points="156.274,171.171 175.172,171.171 "/>
<path clip-path="url(#clip300)" d="M62.9365 1309.3 Q59.3254 1309.3 57.4967 1312.86 Q55.6912 1316.4 55.6912 1323.53 Q55.6912 1330.64 57.4967 1334.2 Q59.3254 1337.75 62.9365 1337.75 Q66.5707 1337.75 68.3763 1334.2 Q70.205 1330.64 70.205 1323.53 Q70.205 1316.4 68.3763 1312.86 Q66.5707 1309.3 62.9365 1309.3 M62.9365 1305.59 Q68.7467 1305.59 71.8022 1310.2 Q74.8809 1314.78 74.8809 1323.53 Q74.8809 1332.26 71.8022 1336.87 Q68.7467 1341.45 62.9365 1341.45 Q57.1264 1341.45 54.0477 1336.87 Q50.9921 1332.26 50.9921 1323.53 Q50.9921 1314.78 54.0477 1310.2 Q57.1264 1305.59 62.9365 1305.59 Z" fill="#000000" fill-rule="nonzero" fill-opacity="1" /><path clip-path="url(#clip300)" d="M83.0984 1334.9 L87.9827 1334.9 L87.9827 1340.78 L83.0984 1340.78 L83.0984 1334.9 Z" fill="#000000" fill-rule="nonzero" fill-opacity="1" /><path clip-path="url(#clip300)" d="M108.746 1321.64 Q105.598 1321.64 103.746 1323.79 Q101.918 1325.94 101.918 1329.69 Q101.918 1333.42 103.746 1335.59 Q105.598 1337.75 108.746 1337.75 Q111.895 1337.75 113.723 1335.59 Q115.575 1333.42 115.575 1329.69 Q115.575 1325.94 113.723 1323.79 Q111.895 1321.64 108.746 1321.64 M118.029 1306.98 L118.029 1311.24 Q116.27 1310.41 114.464 1309.97 Q112.682 1309.53 110.922 1309.53 Q106.293 1309.53 103.839 1312.65 Q101.409 1315.78 101.061 1322.1 Q102.427 1320.08 104.487 1319.02 Q106.547 1317.93 109.024 1317.93 Q114.233 1317.93 117.242 1321.1 Q120.274 1324.25 120.274 1329.69 Q120.274 1335.02 117.126 1338.23 Q113.978 1341.45 108.746 1341.45 Q102.751 1341.45 99.5798 1336.87 Q96.4085 1332.26 96.4085 1323.53 Q96.4085 1315.34 100.297 1310.48 Q104.186 1305.59 110.737 1305.59 Q112.496 1305.59 114.279 1305.94 Q116.084 1306.29 118.029 1306.98 Z" fill="#000000" fill-rule="nonzero" fill-opacity="1" /><path clip-path="url(#clip300)" d="M64.0013 925.188 Q60.3902 925.188 58.5615 928.753 Q56.756 932.295 56.756 939.424 Q56.756 946.531 58.5615 950.095 Q60.3902 953.637 64.0013 953.637 Q67.6356 953.637 69.4411 950.095 Q71.2698 946.531 71.2698 939.424 Q71.2698 932.295 69.4411 928.753 Q67.6356 925.188 64.0013 925.188 M64.0013 921.485 Q69.8115 921.485 72.867 926.091 Q75.9457 930.674 75.9457 939.424 Q75.9457 948.151 72.867 952.758 Q69.8115 957.341 64.0013 957.341 Q58.1912 957.341 55.1125 952.758 Q52.0569 948.151 52.0569 939.424 Q52.0569 930.674 55.1125 926.091 Q58.1912 921.485 64.0013 921.485 Z" fill="#000000" fill-rule="nonzero" fill-opacity="1" /><path clip-path="url(#clip300)" d="M84.1632 950.79 L89.0475 950.79 L89.0475 956.67 L84.1632 956.67 L84.1632 950.79 Z" fill="#000000" fill-rule="nonzero" fill-opacity="1" /><path clip-path="url(#clip300)" d="M98.0521 922.11 L120.274 922.11 L120.274 924.1 L107.728 956.67 L102.844 956.67 L114.649 926.045 L98.0521 926.045 L98.0521 922.11 Z" fill="#000000" fill-rule="nonzero" fill-opacity="1" /><path clip-path="url(#clip300)" d="M63.1911 541.079 Q59.58 541.079 57.7513 544.643 Q55.9458 548.185 55.9458 555.315 Q55.9458 562.421 57.7513 565.986 Q59.58 569.528 63.1911 569.528 Q66.8254 569.528 68.6309 565.986 Q70.4596 562.421 70.4596 555.315 Q70.4596 548.185 68.6309 544.643 Q66.8254 541.079 63.1911 541.079 M63.1911 537.375 Q69.0013 537.375 72.0568 541.981 Q75.1355 546.565 75.1355 555.315 Q75.1355 564.042 72.0568 568.648 Q69.0013 573.231 63.1911 573.231 Q57.381 573.231 54.3023 568.648 Q51.2468 564.042 51.2468 555.315 Q51.2468 546.565 54.3023 541.981 Q57.381 537.375 63.1911 537.375 Z" fill="#000000" fill-rule="nonzero" fill-opacity="1" /><path clip-path="url(#clip300)" d="M83.3531 566.68 L88.2373 566.68 L88.2373 572.56 L83.3531 572.56 L83.3531 566.68 Z" fill="#000000" fill-rule="nonzero" fill-opacity="1" /><path clip-path="url(#clip300)" d="M108.422 556.148 Q105.089 556.148 103.168 557.93 Q101.27 559.713 101.27 562.838 Q101.27 565.963 103.168 567.745 Q105.089 569.528 108.422 569.528 Q111.756 569.528 113.677 567.745 Q115.598 565.94 115.598 562.838 Q115.598 559.713 113.677 557.93 Q111.779 556.148 108.422 556.148 M103.746 554.157 Q100.737 553.417 99.0474 551.356 Q97.3808 549.296 97.3808 546.333 Q97.3808 542.19 100.321 539.782 Q103.284 537.375 108.422 537.375 Q113.584 537.375 116.524 539.782 Q119.464 542.19 119.464 546.333 Q119.464 549.296 117.774 551.356 Q116.108 553.417 113.121 554.157 Q116.501 554.944 118.376 557.236 Q120.274 559.528 120.274 562.838 Q120.274 567.861 117.195 570.546 Q114.14 573.231 108.422 573.231 Q102.705 573.231 99.6261 570.546 Q96.5706 567.861 96.5706 562.838 Q96.5706 559.528 98.4687 557.236 Q100.367 554.944 103.746 554.157 M102.034 546.773 Q102.034 549.458 103.7 550.963 Q105.39 552.468 108.422 552.468 Q111.432 552.468 113.121 550.963 Q114.834 549.458 114.834 546.773 Q114.834 544.088 113.121 542.583 Q111.432 541.079 108.422 541.079 Q105.39 541.079 103.7 542.583 Q102.034 544.088 102.034 546.773 Z" fill="#000000" fill-rule="nonzero" fill-opacity="1" /><path clip-path="url(#clip300)" d="M63.2837 156.969 Q59.6726 156.969 57.8439 160.534 Q56.0384 164.076 56.0384 171.205 Q56.0384 178.312 57.8439 181.876 Q59.6726 185.418 63.2837 185.418 Q66.918 185.418 68.7235 181.876 Q70.5522 178.312 70.5522 171.205 Q70.5522 164.076 68.7235 160.534 Q66.918 156.969 63.2837 156.969 M63.2837 153.266 Q69.0939 153.266 72.1494 157.872 Q75.2281 162.455 75.2281 171.205 Q75.2281 179.932 72.1494 184.538 Q69.0939 189.122 63.2837 189.122 Q57.4736 189.122 54.3949 184.538 Q51.3393 179.932 51.3393 171.205 Q51.3393 162.455 54.3949 157.872 Q57.4736 153.266 63.2837 153.266 Z" fill="#000000" fill-rule="nonzero" fill-opacity="1" /><path clip-path="url(#clip300)" d="M83.4457 182.571 L88.3299 182.571 L88.3299 188.451 L83.4457 188.451 L83.4457 182.571 Z" fill="#000000" fill-rule="nonzero" fill-opacity="1" /><path clip-path="url(#clip300)" d="M98.6539 187.733 L98.6539 183.474 Q100.413 184.307 102.219 184.747 Q104.024 185.187 105.76 185.187 Q110.39 185.187 112.82 182.085 Q115.274 178.96 115.621 172.617 Q114.279 174.608 112.219 175.673 Q110.158 176.738 107.658 176.738 Q102.473 176.738 99.4409 173.613 Q96.4317 170.464 96.4317 165.025 Q96.4317 159.701 99.5798 156.483 Q102.728 153.266 107.959 153.266 Q113.955 153.266 117.103 157.872 Q120.274 162.455 120.274 171.205 Q120.274 179.376 116.385 184.261 Q112.52 189.122 105.969 189.122 Q104.209 189.122 102.404 188.775 Q100.598 188.427 98.6539 187.733 M107.959 173.08 Q111.108 173.08 112.936 170.927 Q114.788 168.775 114.788 165.025 Q114.788 161.298 112.936 159.145 Q111.108 156.969 107.959 156.969 Q104.811 156.969 102.959 159.145 Q101.131 161.298 101.131 165.025 Q101.131 168.775 102.959 170.927 Q104.811 173.08 107.959 173.08 Z" fill="#000000" fill-rule="nonzero" fill-opacity="1" /><polyline clip-path="url(#clip302)" style="stroke:#009af9; stroke-linecap:round; stroke-linejoin:round; stroke-width:4; stroke-opacity:1; fill:none" points="218.439,1067.43 219.268,1271.66 220.097,1212.37 220.926,1189.37 221.756,1075.93 222.585,1101.12 223.414,979.125 224.243,1173.78 225.072,1181.6 225.901,1084.38 226.731,1006.25 227.56,894.281 228.389,1125.81 229.218,1257.11 230.047,1075.93 230.877,1173.78 231.706,1101.12 232.535,1084.38 233.364,1271.66 234.193,1158 235.023,988.228 235.852,1445.72 236.681,1084.38 237.51,1084.38 238.339,1101.12 239.169,1249.77 239.998,997.269 240.827,1375.31 241.656,1150.03 242.485,1173.78 243.315,1234.95 244.144,1165.92 244.973,1242.38 245.802,1278.86 246.631,1189.37 247.46,1197.08 248.29,1032.82 249.119,1092.78 249.948,1173.78 250.777,1092.78 251.606,1181.6 252.436,1041.56 253.265,969.959 254.094,1150.03 254.923,1092.78 255.752,1142.01 256.582,1050.24 257.411,1158 258.24,1117.64 259.069,1050.24 259.898,1117.64 260.728,1067.43 261.557,1075.93 262.386,1227.47 263.215,1092.78 264.044,997.269 264.874,1242.38 265.703,1189.37 266.532,1117.64 267.361,1075.93 268.19,1401.43 269.019,1271.66 269.849,988.228 270.678,1067.43 271.507,1234.95 272.336,1142.01 273.165,1150.03 273.995,1165.92 274.824,1006.25 275.653,1109.41 276.482,1084.38 277.311,1165.92 278.141,1150.03 278.97,1264.41 279.799,1032.82 280.628,1249.77 281.457,1067.43 282.287,1050.24 283.116,1286.02 283.945,1158 284.774,1271.66 285.603,1249.77 286.433,1015.17 287.262,1158 288.091,960.729 288.92,951.435 289.749,1101.12 290.579,1075.93 291.408,1158 292.237,1314.24 293.066,1032.82 293.895,1212.37 294.724,1109.41 295.554,1015.17 296.383,1058.86 297.212,1109.41 298.041,1133.94 298.87,1067.43 299.7,1150.03 300.529,997.269 301.358,894.281 302.187,1092.78 303.016,1032.82 303.846,1058.86 304.675,1117.64 305.504,1212.37 306.333,997.269 307.162,1249.77 307.992,1173.78 308.821,1032.82 309.65,1142.01 310.479,1227.47 311.308,1084.38 312.138,1142.01 312.967,1189.37 313.796,951.435 314.625,1041.56 315.454,1165.92 316.283,1219.95 317.113,1032.82 317.942,1242.38 318.771,1204.75 319.6,969.959 320.429,1058.86 321.259,969.959 322.088,1084.38 322.917,960.729 323.746,997.269 324.575,1414.27 325.405,1050.24 326.234,1189.37 327.063,1264.41 327.892,1006.25 328.721,1015.17 329.551,1032.82 330.38,1165.92 331.209,1067.43 332.038,1158 332.867,1219.95 333.697,1293.14 334.526,1067.43 335.355,1032.82 336.184,1133.94 337.013,1067.43 337.842,1150.03 338.672,942.076 339.501,1165.92 340.33,1414.27 341.159,979.125 341.988,1234.95 342.818,1227.47 343.647,1101.12 344.476,1242.38 345.305,1075.93 346.134,1067.43 346.964,988.228 347.793,1227.47 348.622,1173.78 349.451,1109.41 350.28,1058.86 351.11,1257.11 351.939,969.959 352.768,1032.82 353.597,1286.02 354.426,1050.24 355.256,1242.38 356.085,1125.81 356.914,1125.81 357.743,1142.01 358.572,1109.41 359.402,1142.01 360.231,1015.17 361.06,1067.43 361.889,942.076 362.718,913.601 363.547,1092.78 364.377,1015.17 365.206,1101.12 366.035,1050.24 366.864,1041.56 367.693,1067.43 368.523,1133.94 369.352,1165.92 370.181,1150.03 371.01,1006.25 371.839,960.729 372.669,1212.37 373.498,1075.93 374.327,997.269 375.156,1197.08 375.985,932.651 376.815,1133.94 377.644,1041.56 378.473,997.269 379.302,793.4 380.131,1227.47 380.961,1219.95 381.79,923.16 382.619,1092.78 383.448,1117.64 384.277,844.754 385.106,997.269 385.936,1189.37 386.765,1041.56 387.594,1234.95 388.423,1041.56 389.252,1158 390.082,951.435 390.911,1189.37 391.74,1032.82 392.569,942.076 393.398,1257.11 394.228,1328.1 395.057,942.076 395.886,932.651 396.715,1050.24 397.544,1109.41 398.374,1092.78 399.203,969.959 400.032,903.975 400.861,864.778 401.69,824.437 402.52,1165.92 403.349,969.959 404.178,1158 405.007,1092.78 405.836,1204.75 406.665,1125.81 407.495,923.16 408.324,903.975 409.153,1117.64 409.982,1067.43 410.811,1006.25 411.641,1165.92 412.47,988.228 413.299,1050.24 414.128,1328.1 414.957,960.729 415.787,1024.02 416.616,1173.78 417.445,1092.78 418.274,864.778 419.103,903.975 419.933,1142.01 420.762,903.975 421.591,1015.17 422.42,1242.38 423.249,1142.01 424.079,997.269 424.908,1041.56 425.737,894.281 426.566,814.167 427.395,1058.86 428.224,932.651 429.054,1109.41 429.883,932.651 430.712,1101.12 431.541,1150.03 432.37,903.975 433.2,951.435 434.029,864.778 434.858,1058.86 435.687,1032.82 436.516,864.778 437.346,1197.08 438.175,1109.41 439.004,1015.17 439.833,951.435 440.662,1197.08 441.492,979.125 442.321,979.125 443.15,932.651 443.979,1006.25 444.808,923.16 445.638,1006.25 446.467,1006.25 447.296,988.228 448.125,913.601 448.954,1133.94 449.784,988.228 450.613,864.778 451.442,1041.56 452.271,969.959 453.1,1067.43 453.929,969.959 454.759,1050.24 455.588,1084.38 456.417,969.959 457.246,1075.93 458.075,1075.93 458.905,903.975 459.734,997.269 460.563,932.651 461.392,1067.43 462.221,960.729 463.051,894.281 463.88,1227.47 464.709,1165.92 465.538,997.269 466.367,1101.12 467.197,1024.02 468.026,1015.17 468.855,834.632 469.684,1165.92 470.513,1197.08 471.343,951.435 472.172,884.517 473.001,1032.82 473.83,884.517 474.659,960.729 475.488,1133.94 476.318,844.754 477.147,903.975 477.976,1006.25 478.805,903.975 479.634,1142.01 480.464,1084.38 481.293,874.683 482.122,979.125 482.951,913.601 483.78,1109.41 484.61,729.216 485.439,1067.43 486.268,913.601 487.097,844.754 487.926,1197.08 488.756,1173.78 489.585,932.651 490.414,932.651 491.243,884.517 492.072,942.076 492.902,979.125 493.731,1032.82 494.56,1181.6 495.389,1058.86 496.218,1041.56 497.047,761.667 497.877,1050.24 498.706,960.729 499.535,1050.24 500.364,923.16 501.193,1058.86 502.023,951.435 502.852,997.269 503.681,1189.37 504.51,932.651 505.339,761.667 506.169,932.651 506.998,1050.24 507.827,913.601 508.656,913.601 509.485,854.802 510.315,1024.02 511.144,942.076 511.973,1024.02 512.802,997.269 513.631,1092.78 514.461,1158 515.29,913.601 516.119,969.959 516.948,864.778 517.777,969.959 518.607,942.076 519.436,969.959 520.265,1181.6 521.094,1006.25 521.923,932.651 522.752,979.125 523.582,1041.56 524.411,824.437 525.24,1032.82 526.069,1142.01 526.898,988.228 527.728,1006.25 528.557,1084.38 529.386,834.632 530.215,1050.24 531.044,997.269 531.874,844.754 532.703,864.778 533.532,1032.82 534.361,903.975 535.19,960.729 536.02,969.959 536.849,969.959 537.678,684.788 538.507,969.959 539.336,913.601 540.166,1075.93 540.995,1158 541.824,782.9 542.653,824.437 543.482,1015.17 544.311,834.632 545.141,942.076 545.97,923.16 546.799,814.167 547.628,969.959 548.457,988.228 549.287,854.802 550.116,844.754 550.945,913.601 551.774,932.651 552.603,913.601 553.433,874.683 554.262,761.667 555.091,932.651 555.92,1024.02 556.749,1024.02 557.579,1006.25 558.408,1173.78 559.237,854.802 560.066,988.228 560.895,844.754 561.725,951.435 562.554,932.651 563.383,960.729 564.212,942.076 565.041,814.167 565.87,1050.24 566.7,923.16 567.529,1015.17 568.358,750.931 569.187,903.975 570.016,1024.02 570.846,969.959 571.675,988.228 572.504,979.125 573.333,1101.12 574.162,1092.78 574.992,1032.82 575.821,942.076 576.65,894.281 577.479,951.435 578.308,844.754 579.138,969.959 579.967,951.435 580.796,913.601 581.625,793.4 582.454,923.16 583.284,1058.86 584.113,1032.82 584.942,1032.82 585.771,951.435 586.6,864.778 587.429,969.959 588.259,942.076 589.088,1142.01 589.917,969.959 590.746,772.323 591.575,1041.56 592.405,814.167 593.234,979.125 594.063,913.601 594.892,854.802 595.721,864.778 596.551,932.651 597.38,923.16 598.209,969.959 599.038,834.632 599.867,951.435 600.697,894.281 601.526,1101.12 602.355,913.601 603.184,979.125 604.013,772.323 604.843,740.115 605.672,932.651 606.501,750.931 607.33,932.651 608.159,1075.93 608.989,913.601 609.818,1015.17 610.647,969.959 611.476,913.601 612.305,997.269 613.134,1032.82 613.964,903.975 614.793,969.959 615.622,814.167 616.451,740.115 617.28,803.821 618.11,894.281 618.939,884.517 619.768,923.16 620.597,884.517 621.426,894.281 622.256,951.435 623.085,803.821 623.914,1041.56 624.743,834.632 625.572,814.167 626.402,803.821 627.231,761.667 628.06,988.228 628.889,894.281 629.718,1006.25 630.548,923.16 631.377,932.651 632.206,864.778 633.035,803.821 633.864,782.9 634.693,864.778 635.523,903.975 636.352,1067.43 637.181,960.729 638.01,834.632 638.839,1015.17 639.669,913.601 640.498,884.517 641.327,1024.02 642.156,824.437 642.985,951.435 643.815,803.821 644.644,1006.25 645.473,1075.93 646.302,718.236 647.131,942.076 647.961,894.281 648.79,960.729 649.619,844.754 650.448,854.802 651.277,951.435 652.107,814.167 652.936,793.4 653.765,854.802 654.594,1158 655.423,740.115 656.252,864.778 657.082,1109.41 657.911,903.975 658.74,1058.86 659.569,960.729 660.398,834.632 661.228,844.754 662.057,874.683 662.886,1024.02 663.715,884.517 664.544,740.115 665.374,932.651 666.203,684.788 667.032,673.468 667.861,923.16 668.69,824.437 669.52,824.437 670.349,793.4 671.178,824.437 672.007,884.517 672.836,696.022 673.666,988.228 674.495,782.9 675.324,803.821 676.153,803.821 676.982,1050.24 677.812,740.115 678.641,884.517 679.47,894.281 680.299,913.601 681.128,903.975 681.957,894.281 682.787,969.959 683.616,894.281 684.445,874.683 685.274,814.167 686.103,772.323 686.933,824.437 687.762,894.281 688.591,864.778 689.42,913.601 690.249,1006.25 691.079,903.975 691.908,803.821 692.737,854.802 693.566,761.667 694.395,854.802 695.225,814.167 696.054,772.323 696.883,729.216 697.712,854.802 698.541,923.16 699.371,932.651 700.2,903.975 701.029,913.601 701.858,951.435 702.687,854.802 703.516,761.667 704.346,750.931 705.175,932.651 706.004,793.4 706.833,844.754 707.662,761.667 708.492,638.977 709.321,844.754 710.15,803.821 710.979,844.754 711.808,782.9 712.638,903.975 713.467,834.632 714.296,750.931 715.125,854.802 715.954,729.216 716.784,740.115 717.613,942.076 718.442,750.931 719.271,750.931 720.1,874.683 720.93,627.301 721.759,761.667 722.588,707.171 723.417,793.4 724.246,684.788 725.075,650.563 725.905,854.802 726.734,951.435 727.563,942.076 728.392,673.468 729.221,696.022 730.051,854.802 730.88,750.931 731.709,782.9 732.538,894.281 733.367,854.802 734.197,673.468 735.026,673.468 735.855,793.4 736.684,854.802 737.513,903.975 738.343,960.729 739.172,942.076 740.001,854.802 740.83,864.778 741.659,615.532 742.489,894.281 743.318,854.802 744.147,729.216 744.976,1067.43 745.805,923.16 746.634,793.4 747.464,969.959 748.293,844.754 749.122,814.167 749.951,844.754 750.78,782.9 751.61,951.435 752.439,844.754 753.268,782.9 754.097,761.667 754.926,782.9 755.756,884.517 756.585,903.975 757.414,884.517 758.243,638.977 759.072,1041.56 759.902,834.632 760.731,913.601 761.56,684.788 762.389,684.788 763.218,772.323 764.048,932.651 764.877,782.9 765.706,707.171 766.535,960.729 767.364,844.754 768.194,884.517 769.023,793.4 769.852,761.667 770.681,844.754 771.51,844.754 772.339,834.632 773.169,844.754 773.998,834.632 774.827,707.171 775.656,696.022 776.485,844.754 777.315,854.802 778.144,718.236 778.973,729.216 779.802,864.778 780.631,803.821 781.461,874.683 782.29,772.323 783.119,638.977 783.948,814.167 784.777,874.683 785.607,814.167 786.436,591.717 787.265,884.517 788.094,803.821 788.923,740.115 789.753,761.667 790.582,874.683 791.411,603.672 792.24,874.683 793.069,793.4 793.898,650.563 794.728,772.323 795.557,750.931 796.386,650.563 797.215,874.683 798.044,729.216 798.874,627.301 799.703,903.975 800.532,684.788 801.361,803.821 802.19,969.959 803.02,874.683 803.849,638.977 804.678,761.667 805.507,673.468 806.336,579.668 807.166,793.4 807.995,772.323 808.824,517.958 809.653,772.323 810.482,923.16 811.312,782.9 812.141,1006.25 812.97,864.778 813.799,772.323 814.628,854.802 815.457,903.975 816.287,854.802 817.116,874.683 817.945,772.323 818.774,874.683 819.603,673.468 820.433,740.115 821.262,903.975 822.091,814.167 822.92,627.301 823.749,894.281 824.579,803.821 825.408,969.959 826.237,750.931 827.066,673.468 827.895,615.532 828.725,684.788 829.554,814.167 830.383,718.236 831.212,923.16 832.041,615.532 832.871,761.667 833.7,874.683 834.529,627.301 835.358,932.651 836.187,567.523 837.017,979.125 837.846,696.022 838.675,750.931 839.504,803.821 840.333,555.28 841.162,969.959 841.992,803.821 842.821,638.977 843.65,772.323 844.479,673.468 845.308,793.4 846.138,542.939 846.967,684.788 847.796,729.216 848.625,750.931 849.454,824.437 850.284,696.022 851.113,782.9 851.942,834.632 852.771,638.977 853.6,772.323 854.43,696.022 855.259,903.975 856.088,567.523 856.917,814.167 857.746,834.632 858.576,803.821 859.405,740.115 860.234,814.167 861.063,772.323 861.892,854.802 862.721,729.216 863.551,740.115 864.38,740.115 865.209,615.532 866.038,718.236 866.867,913.601 867.697,782.9 868.526,782.9 869.355,793.4 870.184,844.754 871.013,740.115 871.843,824.437 872.672,729.216 873.501,793.4 874.33,894.281 875.159,638.977 875.989,793.4 876.818,673.468 877.647,814.167 878.476,761.667 879.305,673.468 880.135,684.788 880.964,740.115 881.793,844.754 882.622,960.729 883.451,834.632 884.28,844.754 885.11,834.632 885.939,814.167 886.768,854.802 887.597,591.717 888.426,814.167 889.256,638.977 890.085,761.667 890.914,684.788 891.743,772.323 892.572,627.301 893.402,673.468 894.231,824.437 895.06,803.821 895.889,772.323 896.718,684.788 897.548,834.632 898.377,696.022 899.206,824.437 900.035,942.076 900.864,591.717 901.694,662.059 902.523,638.977 903.352,824.437 904.181,834.632 905.01,844.754 905.839,591.717 906.669,824.437 907.498,782.9 908.327,579.668 909.156,864.778 909.985,814.167 910.815,772.323 911.644,750.931 912.473,718.236 913.302,718.236 914.131,707.171 914.961,567.523 915.79,750.931 916.619,530.499 917.448,814.167 918.277,824.437 919.107,740.115 919.936,673.468 920.765,650.563 921.594,707.171 922.423,718.236 923.253,761.667 924.082,555.28 924.911,782.9 925.74,729.216 926.569,638.977 927.399,718.236 928.228,696.022 929.057,662.059 929.886,834.632 930.715,591.717 931.544,793.4 932.374,923.16 933.203,707.171 934.032,814.167 934.861,530.499 935.69,923.16 936.52,729.216 937.349,696.022 938.178,579.668 939.007,803.821 939.836,750.931 940.666,740.115 941.495,591.717 942.324,793.4 943.153,696.022 943.982,707.171 944.812,793.4 945.641,591.717 946.47,650.563 947.299,684.788 948.128,834.632 948.958,673.468 949.787,707.171 950.616,555.28 951.445,615.532 952.274,718.236 953.103,696.022 953.933,718.236 954.762,662.059 955.591,427.244 956.42,567.523 957.249,718.236 958.079,542.939 958.908,761.667 959.737,591.717 960.566,662.059 961.395,894.281 962.225,718.236 963.054,650.563 963.883,567.523 964.712,894.281 965.541,834.632 966.371,761.667 967.2,662.059 968.029,761.667 968.858,729.216 969.687,740.115 970.517,650.563 971.346,627.301 972.175,650.563 973.004,696.022 973.833,750.931 974.662,466.761 975.492,673.468 976.321,591.717 977.15,772.323 977.979,662.059 978.808,854.802 979.638,803.821 980.467,567.523 981.296,684.788 982.125,662.059 982.954,864.778 983.784,761.667 984.613,718.236 985.442,782.9 986.271,638.977 987.1,615.532 987.93,650.563 988.759,707.171 989.588,591.717 990.417,650.563 991.246,673.468 992.076,782.9 992.905,793.4 993.734,638.977 994.563,555.28 995.392,729.216 996.222,627.301 997.051,673.468 997.88,673.468 998.709,740.115 999.538,466.761 1000.37,591.717 1001.2,772.323 1002.03,615.532 1002.86,440.525 1003.68,740.115 1004.51,662.059 1005.34,627.301 1006.17,579.668 1007,696.022 1007.83,761.667 1008.66,615.532 1009.49,603.672 1010.32,542.939 1011.15,793.4 1011.98,729.216 1012.81,772.323 1013.63,854.802 1014.46,740.115 1015.29,466.761 1016.12,603.672 1016.95,638.977 1017.78,530.499 1018.61,603.672 1019.44,684.788 1020.27,591.717 1021.1,696.022 1021.93,591.717 1022.76,555.28 1023.58,803.821 1024.41,627.301 1025.24,874.683 1026.07,740.115 1026.9,814.167 1027.73,718.236 1028.56,579.668 1029.39,814.167 1030.22,729.216 1031.05,453.697 1031.88,591.717 1032.71,505.315 1033.54,684.788 1034.36,662.059 1035.19,814.167 1036.02,684.788 1036.85,627.301 1037.68,517.958 1038.51,662.059 1039.34,729.216 1040.17,884.517 1041,542.939 1041.83,814.167 1042.66,673.468 1043.49,555.28 1044.31,854.802 1045.14,729.216 1045.97,591.717 1046.8,662.059 1047.63,603.672 1048.46,729.216 1049.29,750.931 1050.12,555.28 1050.95,750.931 1051.78,453.697 1052.61,555.28 1053.44,627.301 1054.26,505.315 1055.09,567.523 1055.92,729.216 1056.75,707.171 1057.58,530.499 1058.41,453.697 1059.24,662.059 1060.07,650.563 1060.9,479.717 1061.73,386.726 1062.56,603.672 1063.39,567.523 1064.22,761.667 1065.04,707.171 1065.87,555.28 1066.7,603.672 1067.53,684.788 1068.36,615.532 1069.19,542.939 1070.02,591.717 1070.85,662.059 1071.68,707.171 1072.51,615.532 1073.34,359.139 1074.17,603.672 1074.99,517.958 1075.82,591.717 1076.65,729.216 1077.48,427.244 1078.31,555.28 1079.14,750.931 1079.97,638.977 1080.8,479.717 1081.63,750.931 1082.46,638.977 1083.29,627.301 1084.12,750.931 1084.95,627.301 1085.77,530.499 1086.6,542.939 1087.43,650.563 1088.26,718.236 1089.09,740.115 1089.92,750.931 1090.75,696.022 1091.58,567.523 1092.41,579.668 1093.24,567.523 1094.07,579.668 1094.9,603.672 1095.72,591.717 1096.55,603.672 1097.38,627.301 1098.21,707.171 1099.04,662.059 1099.87,603.672 1100.7,684.788 1101.53,740.115 1102.36,603.672 1103.19,662.059 1104.02,750.931 1104.85,729.216 1105.67,662.059 1106.5,479.717 1107.33,696.022 1108.16,696.022 1108.99,761.667 1109.82,517.958 1110.65,729.216 1111.48,603.672 1112.31,505.315 1113.14,772.323 1113.97,793.4 1114.8,729.216 1115.63,505.315 1116.45,729.216 1117.28,650.563 1118.11,603.672 1118.94,684.788 1119.77,684.788 1120.6,729.216 1121.43,453.697 1122.26,750.931 1123.09,718.236 1123.92,718.236 1124.75,359.139 1125.58,466.761 1126.4,684.788 1127.23,707.171 1128.06,505.315 1128.89,542.939 1129.72,615.532 1130.55,530.499 1131.38,579.668 1132.21,413.851 1133.04,453.697 1133.87,673.468 1134.7,729.216 1135.53,579.668 1136.36,638.977 1137.18,615.532 1138.01,579.668 1138.84,662.059 1139.67,542.939 1140.5,740.115 1141.33,650.563 1142.16,707.171 1142.99,615.532 1143.82,517.958 1144.65,579.668 1145.48,684.788 1146.31,400.345 1147.13,530.499 1147.96,684.788 1148.79,591.717 1149.62,579.668 1150.45,729.216 1151.28,684.788 1152.11,505.315 1152.94,615.532 1153.77,684.788 1154.6,591.717 1155.43,684.788 1156.26,542.939 1157.08,684.788 1157.91,615.532 1158.74,517.958 1159.57,479.717 1160.4,492.568 1161.23,579.668 1162.06,567.523 1162.89,542.939 1163.72,542.939 1164.55,782.9 1165.38,567.523 1166.21,591.717 1167.04,814.167 1167.86,627.301 1168.69,466.761 1169.52,718.236 1170.35,505.315 1171.18,530.499 1172.01,517.958 1172.84,579.668 1173.67,453.697 1174.5,627.301 1175.33,662.059 1176.16,555.28 1176.99,542.939 1177.81,359.139 1178.64,627.301 1179.47,517.958 1180.3,603.672 1181.13,729.216 1181.96,517.958 1182.79,696.022 1183.62,662.059 1184.45,517.958 1185.28,603.672 1186.11,627.301 1186.94,555.28 1187.77,427.244 1188.59,729.216 1189.42,505.315 1190.25,542.939 1191.08,555.28 1191.91,492.568 1192.74,579.668 1193.57,673.468 1194.4,579.668 1195.23,479.717 1196.06,453.697 1196.89,427.244 1197.72,427.244 1198.54,638.977 1199.37,427.244 1200.2,638.977 1201.03,530.499 1201.86,517.958 1202.69,707.171 1203.52,650.563 1204.35,492.568 1205.18,615.532 1206.01,615.532 1206.84,567.523 1207.67,517.958 1208.49,591.717 1209.32,466.761 1210.15,542.939 1210.98,729.216 1211.81,359.139 1212.64,750.931 1213.47,579.668 1214.3,615.532 1215.13,696.022 1215.96,673.468 1216.79,567.523 1217.62,650.563 1218.45,567.523 1219.27,638.977 1220.1,427.244 1220.93,603.672 1221.76,492.568 1222.59,603.672 1223.42,707.171 1224.25,542.939 1225.08,591.717 1225.91,345.169 1226.74,591.717 1227.57,555.28 1228.4,530.499 1229.22,555.28 1230.05,413.851 1230.88,603.672 1231.71,453.697 1232.54,603.672 1233.37,761.667 1234.2,567.523 1235.03,530.499 1235.86,466.761 1236.69,638.977 1237.52,603.672 1238.35,555.28 1239.17,440.525 1240,603.672 1240.83,729.216 1241.66,707.171 1242.49,517.958 1243.32,591.717 1244.15,761.667 1244.98,662.059 1245.81,638.977 1246.64,729.216 1247.47,555.28 1248.3,615.532 1249.13,579.668 1249.95,440.525 1250.78,673.468 1251.61,505.315 1252.44,615.532 1253.27,627.301 1254.1,466.761 1254.93,627.301 1255.76,331.079 1256.59,591.717 1257.42,492.568 1258.25,591.717 1259.08,530.499 1259.9,782.9 1260.73,615.532 1261.56,750.931 1262.39,579.668 1263.22,567.523 1264.05,696.022 1264.88,466.761 1265.71,615.532 1266.54,359.139 1267.37,479.717 1268.2,453.697 1269.03,555.28 1269.86,530.499 1270.68,505.315 1271.51,579.668 1272.34,555.28 1273.17,673.468 1274,627.301 1274.83,579.668 1275.66,662.059 1276.49,638.977 1277.32,400.345 1278.15,331.079 1278.98,579.668 1279.81,579.668 1280.63,803.821 1281.46,591.717 1282.29,479.717 1283.12,505.315 1283.95,555.28 1284.78,427.244 1285.61,627.301 1286.44,542.939 1287.27,567.523 1288.1,492.568 1288.93,707.171 1289.76,492.568 1290.58,579.668 1291.41,650.563 1292.24,718.236 1293.07,492.568 1293.9,603.672 1294.73,530.499 1295.56,542.939 1296.39,638.977 1297.22,567.523 1298.05,555.28 1298.88,505.315 1299.71,603.672 1300.54,673.468 1301.36,579.668 1302.19,542.939 1303.02,492.568 1303.85,782.9 1304.68,579.668 1305.51,453.697 1306.34,386.726 1307.17,673.468 1308,638.977 1308.83,673.468 1309.66,413.851 1310.49,567.523 1311.31,650.563 1312.14,440.525 1312.97,400.345 1313.8,466.761 1314.63,603.672 1315.46,627.301 1316.29,603.672 1317.12,413.851 1317.95,627.301 1318.78,530.499 1319.61,638.977 1320.44,479.717 1321.27,627.301 1322.09,684.788 1322.92,591.717 1323.75,427.244 1324.58,673.468 1325.41,638.977 1326.24,673.468 1327.07,302.533 1327.9,530.499 1328.73,542.939 1329.56,567.523 1330.39,427.244 1331.22,638.977 1332.04,696.022 1332.87,479.717 1333.7,453.697 1334.53,530.499 1335.36,505.315 1336.19,650.563 1337.02,603.672 1337.85,400.345 1338.68,492.568 1339.51,555.28 1340.34,505.315 1341.17,542.939 1341.99,555.28 1342.82,453.697 1343.65,479.717 1344.48,505.315 1345.31,530.499 1346.14,579.668 1346.97,542.939 1347.8,591.717 1348.63,427.244 1349.46,555.28 1350.29,517.958 1351.12,542.939 1351.95,505.315 1352.77,555.28 1353.6,517.958 1354.43,684.788 1355.26,505.315 1356.09,453.697 1356.92,662.059 1357.75,492.568 1358.58,517.958 1359.41,591.717 1360.24,331.079 1361.07,427.244 1361.9,650.563 1362.72,603.672 1363.55,427.244 1364.38,479.717 1365.21,684.788 1366.04,400.345 1366.87,591.717 1367.7,517.958 1368.53,517.958 1369.36,567.523 1370.19,492.568 1371.02,386.726 1371.85,542.939 1372.67,517.958 1373.5,453.697 1374.33,372.991 1375.16,579.668 1375.99,427.244 1376.82,662.059 1377.65,638.977 1378.48,372.991 1379.31,331.079 1380.14,567.523 1380.97,505.315 1381.8,505.315 1382.63,198.607 1383.45,615.532 1384.28,542.939 1385.11,627.301 1385.94,627.301 1386.77,627.301 1387.6,331.079 1388.43,427.244 1389.26,427.244 1390.09,542.939 1390.92,479.717 1391.75,505.315 1392.58,453.697 1393.4,567.523 1394.23,479.717 1395.06,492.568 1395.89,359.139 1396.72,517.958 1397.55,453.697 1398.38,555.28 1399.21,517.958 1400.04,288.073 1400.87,591.717 1401.7,555.28 1402.53,567.523 1403.36,413.851 1404.18,440.525 1405.01,567.523 1405.84,505.315 1406.67,517.958 1407.5,427.244 1408.33,555.28 1409.16,517.958 1409.99,372.991 1410.82,542.939 1411.65,530.499 1412.48,505.315 1413.31,386.726 1414.13,386.726 1414.96,530.499 1415.79,273.488 1416.62,662.059 1417.45,615.532 1418.28,372.991 1419.11,505.315 1419.94,479.717 1420.77,466.761 1421.6,492.568 1422.43,542.939 1423.26,542.939 1424.08,505.315 1424.91,542.939 1425.74,386.726 1426.57,579.668 1427.4,440.525 1428.23,505.315 1429.06,427.244 1429.89,400.345 1430.72,345.169 1431.55,466.761 1432.38,517.958 1433.21,413.851 1434.04,615.532 1434.86,427.244 1435.69,517.958 1436.52,492.568 1437.35,542.939 1438.18,427.244 1439.01,479.717 1439.84,579.668 1440.67,555.28 1441.5,345.169 1442.33,400.345 1443.16,440.525 1443.99,386.726 1444.81,427.244 1445.64,331.079 1446.47,615.532 1447.3,650.563 1448.13,466.761 1448.96,542.939 1449.79,517.958 1450.62,345.169 1451.45,530.499 1452.28,453.697 1453.11,603.672 1453.94,567.523 1454.77,386.726 1455.59,567.523 1456.42,440.525 1457.25,453.697 1458.08,359.139 1458.91,627.301 1459.74,372.991 1460.57,517.958 1461.4,555.28 1462.23,542.939 1463.06,288.073 1463.89,603.672 1464.72,579.668 1465.54,359.139 1466.37,662.059 1467.2,273.488 1468.03,638.977 1468.86,258.774 1469.69,466.761 1470.52,479.717 1471.35,555.28 1472.18,542.939 1473.01,440.525 1473.84,579.668 1474.67,440.525 1475.49,427.244 1476.32,372.991 1477.15,591.717 1477.98,273.488 1478.81,302.533 1479.64,530.499 1480.47,413.851 1481.3,718.236 1482.13,505.315 1482.96,517.958 1483.79,479.717 1484.62,466.761 1485.45,517.958 1486.27,555.28 1487.1,345.169 1487.93,440.525 1488.76,427.244 1489.59,440.525 1490.42,517.958 1491.25,517.958 1492.08,627.301 1492.91,345.169 1493.74,466.761 1494.57,505.315 1495.4,345.169 1496.22,427.244 1497.05,591.717 1497.88,258.774 1498.71,505.315 1499.54,400.345 1500.37,492.568 1501.2,517.958 1502.03,440.525 1502.86,413.851 1503.69,517.958 1504.52,615.532 1505.35,466.761 1506.18,386.726 1507,517.958 1507.83,505.315 1508.66,627.301 1509.49,413.851 1510.32,440.525 1511.15,400.345 1511.98,603.672 1512.81,603.672 1513.64,707.171 1514.47,440.525 1515.3,331.079 1516.13,555.28 1516.95,400.345 1517.78,492.568 1518.61,492.568 1519.44,517.958 1520.27,638.977 1521.1,413.851 1521.93,492.568 1522.76,555.28 1523.59,466.761 1524.42,542.939 1525.25,386.726 1526.08,453.697 1526.9,603.672 1527.73,466.761 1528.56,466.761 1529.39,555.28 1530.22,427.244 1531.05,372.991 1531.88,386.726 1532.71,479.717 1533.54,400.345 1534.37,615.532 1535.2,466.761 1536.03,505.315 1536.86,579.668 1537.68,258.774 1538.51,479.717 1539.34,427.244 1540.17,331.079 1541,413.851 1541.83,492.568 1542.66,453.697 1543.49,591.717 1544.32,427.244 1545.15,345.169 1545.98,453.697 1546.81,453.697 1547.63,440.525 1548.46,427.244 1549.29,359.139 1550.12,542.939 1550.95,345.169 1551.78,302.533 1552.61,505.315 1553.44,505.315 1554.27,591.717 1555.1,492.568 1555.93,505.315 1556.76,567.523 1557.58,684.788 1558.41,453.697 1559.24,136.251 1560.07,517.958 1560.9,567.523 1561.73,555.28 1562.56,466.761 1563.39,440.525 1564.22,615.532 1565.05,386.726 1565.88,331.079 1566.71,555.28 1567.54,359.139 1568.36,492.568 1569.19,413.851 1570.02,479.717 1570.85,453.697 1571.68,453.697 1572.51,453.697 1573.34,243.931 1574.17,517.958 1575,603.672 1575.83,331.079 1576.66,466.761 1577.49,400.345 1578.31,567.523 1579.14,400.345 1579.97,258.774 1580.8,345.169 1581.63,542.939 1582.46,427.244 1583.29,243.931 1584.12,603.672 1584.95,359.139 1585.78,479.717 1586.61,440.525 1587.44,359.139 1588.27,386.726 1589.09,615.532 1589.92,427.244 1590.75,466.761 1591.58,345.169 1592.41,662.059 1593.24,517.958 1594.07,530.499 1594.9,567.523 1595.73,345.169 1596.56,386.726 1597.39,505.315 1598.22,492.568 1599.04,530.499 1599.87,542.939 1600.7,530.499 1601.53,440.525 1602.36,372.991 1603.19,273.488 1604.02,400.345 1604.85,453.697 1605.68,440.525 1606.51,530.499 1607.34,440.525 1608.17,400.345 1608.99,440.525 1609.82,479.717 1610.65,400.345 1611.48,615.532 1612.31,400.345 1613.14,359.139 1613.97,359.139 1614.8,530.499 1615.63,331.079 1616.46,345.169 1617.29,542.939 1618.12,288.073 1618.95,440.525 1619.77,372.991 1620.6,331.079 1621.43,413.851 1622.26,530.499 1623.09,453.697 1623.92,517.958 1624.75,440.525 1625.58,542.939 1626.41,359.139 1627.24,440.525 1628.07,372.991 1628.9,288.073 1629.72,386.726 1630.55,359.139 1631.38,453.697 1632.21,466.761 1633.04,638.977 1633.87,345.169 1634.7,453.697 1635.53,466.761 1636.36,440.525 1637.19,505.315 1638.02,345.169 1638.85,479.717 1639.68,567.523 1640.5,302.533 1641.33,440.525 1642.16,359.139 1642.99,542.939 1643.82,386.726 1644.65,400.345 1645.48,542.939 1646.31,479.717 1647.14,479.717 1647.97,579.668 1648.8,386.726 1649.63,453.697 1650.45,530.499 1651.28,517.958 1652.11,302.533 1652.94,542.939 1653.77,400.345 1654.6,359.139 1655.43,386.726 1656.26,542.939 1657.09,316.867 1657.92,372.991 1658.75,517.958 1659.58,386.726 1660.4,579.668 1661.23,316.867 1662.06,413.851 1662.89,386.726 1663.72,413.851 1664.55,359.139 1665.38,427.244 1666.21,386.726 1667.04,479.717 1667.87,243.931 1668.7,288.073 1669.53,413.851 1670.36,386.726 1671.18,466.761 1672.01,555.28 1672.84,243.931 1673.67,440.525 1674.5,345.169 1675.33,331.079 1676.16,386.726 1676.99,345.169 1677.82,603.672 1678.65,505.315 1679.48,453.697 1680.31,427.244 1681.13,505.315 1681.96,517.958 1682.79,517.958 1683.62,413.851 1684.45,413.851 1685.28,316.867 1686.11,345.169 1686.94,505.315 1687.77,505.315 1688.6,359.139 1689.43,479.717 1690.26,453.697 1691.08,591.717 1691.91,466.761 1692.74,479.717 1693.57,440.525 1694.4,638.977 1695.23,359.139 1696.06,331.079 1696.89,453.697 1697.72,316.867 1698.55,372.991 1699.38,466.761 1700.21,466.761 1701.04,479.717 1701.86,288.073 1702.69,413.851 1703.52,466.761 1704.35,400.345 1705.18,466.761 1706.01,316.867 1706.84,479.717 1707.67,479.717 1708.5,505.315 1709.33,627.301 1710.16,413.851 1710.99,440.525 1711.81,453.697 1712.64,359.139 1713.47,331.079 1714.3,316.867 1715.13,288.073 1715.96,413.851 1716.79,345.169 1717.62,440.525 1718.45,453.697 1719.28,331.079 1720.11,288.073 1720.94,567.523 1721.77,345.169 1722.59,316.867 1723.42,400.345 1724.25,316.867 1725.08,427.244 1725.91,466.761 1726.74,427.244 1727.57,359.139 1728.4,228.957 1729.23,427.244 1730.06,372.991 1730.89,359.139 1731.72,386.726 1732.54,400.345 1733.37,505.315 1734.2,427.244 1735.03,479.717 1735.86,542.939 1736.69,372.991 1737.52,302.533 1738.35,479.717 1739.18,492.568 1740.01,400.345 1740.84,603.672 1741.67,413.851 1742.49,479.717 1743.32,331.079 1744.15,440.525 1744.98,87.9763 1745.81,440.525 1746.64,316.867 1747.47,479.717 1748.3,359.139 1749.13,440.525 1749.96,359.139 1750.79,684.788 1751.62,316.867 1752.45,258.774 1753.27,673.468 1754.1,258.774 1754.93,400.345 1755.76,479.717 1756.59,567.523 1757.42,440.525 1758.25,466.761 1759.08,466.761 1759.91,479.717 1760.74,517.958 1761.57,453.697 1762.4,427.244 1763.22,345.169 1764.05,243.931 1764.88,492.568 1765.71,345.169 1766.54,316.867 1767.37,479.717 1768.2,579.668 1769.03,316.867 1769.86,386.726 1770.69,517.958 1771.52,542.939 1772.35,372.991 1773.18,400.345 1774,427.244 1774.83,316.867 1775.66,359.139 1776.49,440.525 1777.32,288.073 1778.15,386.726 1778.98,258.774 1779.81,345.169 1780.64,440.525 1781.47,345.169 1782.3,542.939 1783.13,542.939 1783.95,440.525 1784.78,517.958 1785.61,400.345 1786.44,288.073 1787.27,440.525 1788.1,359.139 1788.93,345.169 1789.76,288.073 1790.59,386.726 1791.42,466.761 1792.25,466.761 1793.08,453.697 1793.9,492.568 1794.73,258.774 1795.56,331.079 1796.39,453.697 1797.22,453.697 1798.05,492.568 1798.88,258.774 1799.71,288.073 1800.54,542.939 1801.37,345.169 1802.2,427.244 1803.03,427.244 1803.86,331.079 1804.68,258.774 1805.51,386.726 1806.34,400.345 1807.17,372.991 1808,345.169 1808.83,213.849 1809.66,567.523 1810.49,386.726 1811.32,273.488 1812.15,359.139 1812.98,413.851 1813.81,413.851 1814.63,440.525 1815.46,400.345 1816.29,453.697 1817.12,372.991 1817.95,555.28 1818.78,359.139 1819.61,359.139 1820.44,440.525 1821.27,302.533 1822.1,492.568 1822.93,440.525 1823.76,372.991 1824.59,505.315 1825.41,400.345 1826.24,400.345 1827.07,372.991 1827.9,372.991 1828.73,427.244 1829.56,359.139 1830.39,372.991 1831.22,492.568 1832.05,427.244 1832.88,400.345 1833.71,316.867 1834.54,359.139 1835.36,372.991 1836.19,386.726 1837.02,386.726 1837.85,372.991 1838.68,316.867 1839.51,302.533 1840.34,288.073 1841.17,273.488 1842,427.244 1842.83,331.079 1843.66,386.726 1844.49,453.697 1845.31,273.488 1846.14,427.244 1846.97,453.697 1847.8,331.079 1848.63,372.991 1849.46,400.345 1850.29,466.761 1851.12,331.079 1851.95,505.315 1852.78,345.169 1853.61,345.169 1854.44,316.867 1855.27,517.958 1856.09,386.726 1856.92,517.958 1857.75,440.525 1858.58,466.761 1859.41,479.717 1860.24,479.717 1861.07,492.568 1861.9,427.244 1862.73,627.301 1863.56,479.717 1864.39,302.533 1865.22,302.533 1866.04,479.717 1866.87,479.717 1867.7,372.991 1868.53,316.867 1869.36,359.139 1870.19,413.851 1871.02,579.668 1871.85,453.697 1872.68,413.851 1873.51,386.726 1874.34,386.726 1875.17,359.139 1875.99,427.244 1876.82,258.774 1877.65,413.851 1878.48,505.315 1879.31,427.244 1880.14,440.525 1880.97,331.079 1881.8,372.991 1882.63,466.761 1883.46,243.931 1884.29,258.774 1885.12,479.717 1885.95,492.568 1886.77,258.774 1887.6,213.849 1888.43,427.244 1889.26,413.851 1890.09,492.568 1890.92,316.867 1891.75,466.761 1892.58,331.079 1893.41,400.345 1894.24,273.488 1895.07,492.568 1895.9,316.867 1896.72,331.079 1897.55,427.244 1898.38,345.169 1899.21,440.525 1900.04,372.991 1900.87,413.851 1901.7,479.717 1902.53,331.079 1903.36,492.568 1904.19,288.073 1905.02,453.697 1905.85,400.345 1906.68,453.697 1907.5,359.139 1908.33,288.073 1909.16,555.28 1909.99,316.867 1910.82,479.717 1911.65,213.849 1912.48,400.345 1913.31,288.073 1914.14,517.958 1914.97,198.607 1915.8,413.851 1916.63,413.851 1917.45,243.931 1918.28,453.697 1919.11,345.169 1919.94,427.244 1920.77,517.958 1921.6,579.668 1922.43,453.697 1923.26,372.991 1924.09,228.957 1924.92,213.849 1925.75,372.991 1926.58,386.726 1927.4,386.726 1928.23,288.073 1929.06,372.991 1929.89,359.139 1930.72,413.851 1931.55,453.697 1932.38,492.568 1933.21,345.169 1934.04,427.244 1934.87,427.244 1935.7,440.525 1936.53,167.71 1937.36,400.345 1938.18,331.079 1939.01,567.523 1939.84,302.533 1940.67,359.139 1941.5,466.761 1942.33,183.228 1943.16,316.867 1943.99,316.867 1944.82,359.139 1945.65,427.244 1946.48,288.073 1947.31,228.957 1948.13,331.079 1948.96,331.079 1949.79,662.059 1950.62,440.525 1951.45,273.488 1952.28,386.726 1953.11,372.991 1953.94,440.525 1954.77,213.849 1955.6,359.139 1956.43,302.533 1957.26,440.525 1958.09,345.169 1958.91,492.568 1959.74,453.697 1960.57,345.169 1961.4,505.315 1962.23,400.345 1963.06,302.533 1963.89,273.488 1964.72,359.139 1965.55,492.568 1966.38,213.849 1967.21,331.079 1968.04,413.851 1968.86,316.867 1969.69,372.991 1970.52,505.315 1971.35,302.533 1972.18,258.774 1973.01,345.169 1973.84,386.726 1974.67,453.697 1975.5,302.533 1976.33,167.71 1977.16,400.345 1977.99,372.991 1978.81,453.697 1979.64,258.774 1980.47,440.525 1981.3,213.849 1982.13,136.251 1982.96,627.301 1983.79,258.774 1984.62,400.345 1985.45,427.244 1986.28,331.079 1987.11,359.139 1987.94,400.345 1988.77,386.726 1989.59,228.957 1990.42,413.851 1991.25,288.073 1992.08,427.244 1992.91,273.488 1993.74,427.244 1994.57,466.761 1995.4,372.991 1996.23,492.568 1997.06,542.939 1997.89,302.533 1998.72,288.073 1999.54,453.697 2000.37,466.761 2001.2,492.568 2002.03,302.533 2002.86,505.315 2003.69,345.169 2004.52,302.533 2005.35,386.726 2006.18,386.726 2007.01,273.488 2007.84,542.939 2008.67,302.533 2009.49,400.345 2010.32,359.139 2011.15,413.851 2011.98,228.957 2012.81,542.939 2013.64,453.697 2014.47,453.697 2015.3,440.525 2016.13,316.867 2016.96,316.867 2017.79,440.525 2018.62,517.958 2019.45,466.761 2020.27,302.533 2021.1,440.525 2021.93,258.774 2022.76,331.079 2023.59,400.345 2024.42,359.139 2025.25,427.244 2026.08,258.774 2026.91,400.345 2027.74,331.079 2028.57,372.991 2029.4,372.991 2030.22,413.851 2031.05,316.867 2031.88,331.079 2032.71,331.079 2033.54,372.991 2034.37,359.139 2035.2,440.525 2036.03,316.867 2036.86,243.931 2037.69,273.488 2038.52,258.774 2039.35,413.851 2040.18,288.073 2041,359.139 2041.83,316.867 2042.66,331.079 2043.49,427.244 2044.32,453.697 2045.15,273.488 2045.98,372.991 2046.81,316.867 2047.64,386.726 2048.47,386.726 2049.3,273.488 2050.13,258.774 2050.95,302.533 2051.78,316.867 2052.61,440.525 2053.44,302.533 2054.27,302.533 2055.1,316.867 2055.93,440.525 2056.76,359.139 2057.59,505.315 2058.42,273.488 2059.25,479.717 2060.08,316.867 2060.9,359.139 2061.73,567.523 2062.56,400.345 2063.39,302.533 2064.22,331.079 2065.05,331.079 2065.88,183.228 2066.71,302.533 2067.54,345.169 2068.37,427.244 2069.2,517.958 2070.03,331.079 2070.86,316.867 2071.68,400.345 2072.51,492.568 2073.34,400.345 2074.17,400.345 2075,258.774 2075.83,413.851 2076.66,331.079 2077.49,288.073 2078.32,372.991 2079.15,258.774 2079.98,228.957 2080.81,198.607 2081.63,579.668 2082.46,288.073 2083.29,331.079 2084.12,243.931 2084.95,331.079 2085.78,331.079 2086.61,413.851 2087.44,492.568 2088.27,302.533 2089.1,331.079 2089.93,359.139 2090.76,427.244 2091.59,228.957 2092.41,258.774 2093.24,316.867 2094.07,331.079 2094.9,479.717 2095.73,386.726 2096.56,413.851 2097.39,273.488 2098.22,183.228 2099.05,198.607 2099.88,413.851 2100.71,243.931 2101.54,288.073 2102.36,213.849 2103.19,386.726 2104.02,243.931 2104.85,243.931 2105.68,345.169 2106.51,345.169 2107.34,345.169 2108.17,273.488 2109,359.139 2109.83,243.931 2110.66,453.697 2111.49,258.774 2112.31,492.568 2113.14,492.568 2113.97,359.139 2114.8,331.079 2115.63,331.079 2116.46,243.931 2117.29,372.991 2118.12,427.244 2118.95,213.849 2119.78,302.533 2120.61,228.957 2121.44,302.533 2122.27,228.957 2123.09,273.488 2123.92,258.774 2124.75,345.169 2125.58,228.957 2126.41,359.139 2127.24,386.726 2128.07,302.533 2128.9,331.079 2129.73,331.079 2130.56,198.607 2131.39,183.228 2132.22,167.71 2133.04,302.533 2133.87,316.867 2134.7,466.761 2135.53,359.139 2136.36,243.931 2137.19,273.488 2138.02,400.345 2138.85,345.169 2139.68,372.991 2140.51,288.073 2141.34,316.867 2142.17,345.169 2143,243.931 2143.82,400.345 2144.65,302.533 2145.48,258.774 2146.31,331.079 2147.14,288.073 2147.97,413.851 2148.8,466.761 2149.63,288.073 2150.46,413.851 2151.29,479.717 2152.12,288.073 2152.95,273.488 2153.77,228.957 2154.6,258.774 2155.43,359.139 2156.26,372.991 2157.09,427.244 2157.92,386.726 2158.75,359.139 2159.58,359.139 2160.41,492.568 2161.24,345.169 2162.07,331.079 2162.9,316.867 2163.72,258.774 2164.55,258.774 2165.38,413.851 2166.21,273.488 2167.04,386.726 2167.87,359.139 2168.7,492.568 2169.53,302.533 2170.36,213.849 2171.19,273.488 2172.02,372.991 2172.85,505.315 2173.68,345.169 2174.5,258.774 2175.33,288.073 2176.16,386.726 2176.99,427.244 2177.82,400.345 2178.65,228.957 2179.48,183.228 2180.31,413.851 2181.14,243.931 2181.97,258.774 2182.8,466.761 2183.63,359.139 2184.45,359.139 2185.28,359.139 2186.11,517.958 2186.94,492.568 2187.77,386.726 2188.6,359.139 2189.43,386.726 2190.26,302.533 2191.09,359.139 2191.92,345.169 2192.75,427.244 2193.58,258.774 2194.4,273.488 2195.23,479.717 2196.06,345.169 2196.89,413.851 2197.72,258.774 2198.55,316.867 2199.38,258.774 2200.21,386.726 2201.04,258.774 2201.87,386.726 2202.7,372.991 2203.53,400.345 2204.36,345.169 2205.18,413.851 2206.01,372.991 2206.84,359.139 2207.67,288.073 2208.5,427.244 2209.33,453.697 2210.16,345.169 2210.99,359.139 2211.82,453.697 2212.65,359.139 2213.48,316.867 2214.31,136.251 2215.13,316.867 2215.96,273.488 2216.79,345.169 2217.62,198.607 2218.45,302.533 2219.28,331.079 2220.11,152.052 2220.94,258.774 2221.77,413.851 2222.6,359.139 2223.43,372.991 2224.26,359.139 2225.09,345.169 2225.91,258.774 2226.74,316.867 2227.57,359.139 2228.4,359.139 2229.23,505.315 2230.06,413.851 2230.89,440.525 2231.72,413.851 2232.55,331.079 2233.38,359.139 2234.21,427.244 2235.04,243.931 2235.86,243.931 2236.69,427.244 2237.52,440.525 2238.35,273.488 2239.18,331.079 2240.01,427.244 2240.84,198.607 2241.67,198.607 2242.5,386.726 2243.33,400.345 2244.16,316.867 2244.99,183.228 2245.81,288.073 2246.64,243.931 2247.47,288.073 2248.3,427.244 2249.13,258.774 2249.96,386.726 2250.79,386.726 2251.62,152.052 2252.45,243.931 2253.28,345.169 2254.11,273.488 2254.94,413.851 2255.77,228.957 2256.59,400.345 2257.42,316.867 2258.25,453.697 2259.08,466.761 2259.91,302.533 2260.74,427.244 2261.57,288.073 2262.4,213.849 2263.23,228.957 2264.06,316.867 2264.89,345.169 2265.72,345.169 2266.54,372.991 2267.37,345.169 2268.2,228.957 2269.03,345.169 2269.86,492.568 2270.69,345.169 2271.52,302.533 2272.35,302.533 2273.18,427.244 2274.01,228.957 2274.84,331.079 2275.67,386.726 2276.5,372.991 2277.32,331.079 2278.15,372.991 2278.98,345.169 2279.81,345.169 2280.64,466.761 2281.47,152.052 2282.3,386.726 2283.13,213.849 2283.96,288.073 2284.79,258.774 2285.62,345.169 2286.45,167.71 2287.27,273.488 2288.1,198.607 2288.93,386.726 2289.76,288.073 2290.59,427.244 "/>
<path clip-path="url(#clip300)" d="M229.49 198.898 L501.569 198.898 L501.569 95.2176 L229.49 95.2176  Z" fill="#ffffff" fill-rule="evenodd" fill-opacity="1"/>
<polyline clip-path="url(#clip300)" style="stroke:#000000; stroke-linecap:round; stroke-linejoin:round; stroke-width:4; stroke-opacity:1; fill:none" points="229.49,198.898 501.569,198.898 501.569,95.2176 229.49,95.2176 229.49,198.898 "/>
<polyline clip-path="url(#clip300)" style="stroke:#009af9; stroke-linecap:round; stroke-linejoin:round; stroke-width:4; stroke-opacity:1; fill:none" points="253.896,147.058 400.328,147.058 "/>
<path clip-path="url(#clip300)" d="M438.576 166.745 Q436.77 171.375 435.057 172.787 Q433.344 174.199 430.474 174.199 L427.071 174.199 L427.071 170.634 L429.571 170.634 Q431.33 170.634 432.302 169.8 Q433.275 168.967 434.455 165.865 L435.219 163.921 L424.733 138.412 L429.247 138.412 L437.349 158.689 L445.451 138.412 L449.964 138.412 L438.576 166.745 Z" fill="#000000" fill-rule="nonzero" fill-opacity="1" /><path clip-path="url(#clip300)" d="M457.256 160.402 L464.895 160.402 L464.895 134.037 L456.585 135.703 L456.585 131.444 L464.849 129.778 L469.524 129.778 L469.524 160.402 L477.163 160.402 L477.163 164.338 L457.256 164.338 L457.256 160.402 Z" fill="#000000" fill-rule="nonzero" fill-opacity="1" /></svg>
