<?xml version="1.0" encoding="utf-8"?>
<svg xmlns="http://www.w3.org/2000/svg" xmlns:xlink="http://www.w3.org/1999/xlink" width="600" height="400" viewBox="0 0 2400 1600">
<defs>
  <clipPath id="clip390">
    <rect x="0" y="0" width="2400" height="1600"/>
  </clipPath>
</defs>
<path clip-path="url(#clip390)" d="M0 1600 L2400 1600 L2400 0 L0 0  Z" fill="#ffffff" fill-rule="evenodd" fill-opacity="1"/>
<defs>
  <clipPath id="clip391">
    <rect x="480" y="0" width="1681" height="1600"/>
  </clipPath>
</defs>
<path clip-path="url(#clip390)" d="M156.598 1486.45 L2352.76 1486.45 L2352.76 47.2441 L156.598 47.2441  Z" fill="#ffffff" fill-rule="evenodd" fill-opacity="1"/>
<defs>
  <clipPath id="clip392">
    <rect x="156" y="47" width="2197" height="1440"/>
  </clipPath>
</defs>
<polyline clip-path="url(#clip392)" style="stroke:#000000; stroke-linecap:round; stroke-linejoin:round; stroke-width:2; stroke-opacity:0.1; fill:none" points="218.754,1486.45 218.754,47.2441 "/>
<polyline clip-path="url(#clip392)" style="stroke:#000000; stroke-linecap:round; stroke-linejoin:round; stroke-width:2; stroke-opacity:0.1; fill:none" points="633.289,1486.45 633.289,47.2441 "/>
<polyline clip-path="url(#clip392)" style="stroke:#000000; stroke-linecap:round; stroke-linejoin:round; stroke-width:2; stroke-opacity:0.1; fill:none" points="1047.82,1486.45 1047.82,47.2441 "/>
<polyline clip-path="url(#clip392)" style="stroke:#000000; stroke-linecap:round; stroke-linejoin:round; stroke-width:2; stroke-opacity:0.1; fill:none" points="1462.36,1486.45 1462.36,47.2441 "/>
<polyline clip-path="url(#clip392)" style="stroke:#000000; stroke-linecap:round; stroke-linejoin:round; stroke-width:2; stroke-opacity:0.1; fill:none" points="1876.89,1486.45 1876.89,47.2441 "/>
<polyline clip-path="url(#clip392)" style="stroke:#000000; stroke-linecap:round; stroke-linejoin:round; stroke-width:2; stroke-opacity:0.1; fill:none" points="2291.43,1486.45 2291.43,47.2441 "/>
<polyline clip-path="url(#clip390)" style="stroke:#000000; stroke-linecap:round; stroke-linejoin:round; stroke-width:4; stroke-opacity:1; fill:none" points="156.598,1486.45 2352.76,1486.45 "/>
<polyline clip-path="url(#clip390)" style="stroke:#000000; stroke-linecap:round; stroke-linejoin:round; stroke-width:4; stroke-opacity:1; fill:none" points="218.754,1486.45 218.754,1467.55 "/>
<polyline clip-path="url(#clip390)" style="stroke:#000000; stroke-linecap:round; stroke-linejoin:round; stroke-width:4; stroke-opacity:1; fill:none" points="633.289,1486.45 633.289,1467.55 "/>
<polyline clip-path="url(#clip390)" style="stroke:#000000; stroke-linecap:round; stroke-linejoin:round; stroke-width:4; stroke-opacity:1; fill:none" points="1047.82,1486.45 1047.82,1467.55 "/>
<polyline clip-path="url(#clip390)" style="stroke:#000000; stroke-linecap:round; stroke-linejoin:round; stroke-width:4; stroke-opacity:1; fill:none" points="1462.36,1486.45 1462.36,1467.55 "/>
<polyline clip-path="url(#clip390)" style="stroke:#000000; stroke-linecap:round; stroke-linejoin:round; stroke-width:4; stroke-opacity:1; fill:none" points="1876.89,1486.45 1876.89,1467.55 "/>
<polyline clip-path="url(#clip390)" style="stroke:#000000; stroke-linecap:round; stroke-linejoin:round; stroke-width:4; stroke-opacity:1; fill:none" points="2291.43,1486.45 2291.43,1467.55 "/>
<path clip-path="url(#clip390)" d="M218.754 1517.37 Q215.143 1517.37 213.314 1520.93 Q211.508 1524.47 211.508 1531.6 Q211.508 1538.71 213.314 1542.27 Q215.143 1545.82 218.754 1545.82 Q222.388 1545.82 224.193 1542.27 Q226.022 1538.71 226.022 1531.6 Q226.022 1524.47 224.193 1520.93 Q222.388 1517.37 218.754 1517.37 M218.754 1513.66 Q224.564 1513.66 227.619 1518.27 Q230.698 1522.85 230.698 1531.6 Q230.698 1540.33 227.619 1544.94 Q224.564 1549.52 218.754 1549.52 Q212.943 1549.52 209.865 1544.94 Q206.809 1540.33 206.809 1531.6 Q206.809 1522.85 209.865 1518.27 Q212.943 1513.66 218.754 1513.66 Z" fill="#000000" fill-rule="nonzero" fill-opacity="1" /><path clip-path="url(#clip390)" d="M592.907 1514.29 L611.263 1514.29 L611.263 1518.22 L597.189 1518.22 L597.189 1526.7 Q598.208 1526.35 599.227 1526.19 Q600.245 1526 601.264 1526 Q607.051 1526 610.43 1529.17 Q613.81 1532.34 613.81 1537.76 Q613.81 1543.34 610.338 1546.44 Q606.865 1549.52 600.546 1549.52 Q598.37 1549.52 596.102 1549.15 Q593.856 1548.78 591.449 1548.04 L591.449 1543.34 Q593.532 1544.47 595.754 1545.03 Q597.977 1545.58 600.453 1545.58 Q604.458 1545.58 606.796 1543.48 Q609.134 1541.37 609.134 1537.76 Q609.134 1534.15 606.796 1532.04 Q604.458 1529.94 600.453 1529.94 Q598.578 1529.94 596.703 1530.35 Q594.852 1530.77 592.907 1531.65 L592.907 1514.29 Z" fill="#000000" fill-rule="nonzero" fill-opacity="1" /><path clip-path="url(#clip390)" d="M633.023 1517.37 Q629.412 1517.37 627.583 1520.93 Q625.777 1524.47 625.777 1531.6 Q625.777 1538.71 627.583 1542.27 Q629.412 1545.82 633.023 1545.82 Q636.657 1545.82 638.462 1542.27 Q640.291 1538.71 640.291 1531.6 Q640.291 1524.47 638.462 1520.93 Q636.657 1517.37 633.023 1517.37 M633.023 1513.66 Q638.833 1513.66 641.888 1518.27 Q644.967 1522.85 644.967 1531.6 Q644.967 1540.33 641.888 1544.94 Q638.833 1549.52 633.023 1549.52 Q627.212 1549.52 624.134 1544.94 Q621.078 1540.33 621.078 1531.6 Q621.078 1522.85 624.134 1518.27 Q627.212 1513.66 633.023 1513.66 Z" fill="#000000" fill-rule="nonzero" fill-opacity="1" /><path clip-path="url(#clip390)" d="M663.184 1517.37 Q659.573 1517.37 657.745 1520.93 Q655.939 1524.47 655.939 1531.6 Q655.939 1538.71 657.745 1542.27 Q659.573 1545.82 663.184 1545.82 Q666.819 1545.82 668.624 1542.27 Q670.453 1538.71 670.453 1531.6 Q670.453 1524.47 668.624 1520.93 Q666.819 1517.37 663.184 1517.37 M663.184 1513.66 Q668.995 1513.66 672.05 1518.27 Q675.129 1522.85 675.129 1531.6 Q675.129 1540.33 672.05 1544.94 Q668.995 1549.52 663.184 1549.52 Q657.374 1549.52 654.296 1544.94 Q651.24 1540.33 651.24 1531.6 Q651.24 1522.85 654.296 1518.27 Q657.374 1513.66 663.184 1513.66 Z" fill="#000000" fill-rule="nonzero" fill-opacity="1" /><path clip-path="url(#clip390)" d="M992.35 1544.91 L999.989 1544.91 L999.989 1518.55 L991.678 1520.21 L991.678 1515.95 L999.942 1514.29 L1004.62 1514.29 L1004.62 1544.91 L1012.26 1544.91 L1012.26 1548.85 L992.35 1548.85 L992.35 1544.91 Z" fill="#000000" fill-rule="nonzero" fill-opacity="1" /><path clip-path="url(#clip390)" d="M1031.7 1517.37 Q1028.09 1517.37 1026.26 1520.93 Q1024.46 1524.47 1024.46 1531.6 Q1024.46 1538.71 1026.26 1542.27 Q1028.09 1545.82 1031.7 1545.82 Q1035.34 1545.82 1037.14 1542.27 Q1038.97 1538.71 1038.97 1531.6 Q1038.97 1524.47 1037.14 1520.93 Q1035.34 1517.37 1031.7 1517.37 M1031.7 1513.66 Q1037.51 1513.66 1040.57 1518.27 Q1043.65 1522.85 1043.65 1531.6 Q1043.65 1540.33 1040.57 1544.94 Q1037.51 1549.52 1031.7 1549.52 Q1025.89 1549.52 1022.81 1544.94 Q1019.76 1540.33 1019.76 1531.6 Q1019.76 1522.85 1022.81 1518.27 Q1025.89 1513.66 1031.7 1513.66 Z" fill="#000000" fill-rule="nonzero" fill-opacity="1" /><path clip-path="url(#clip390)" d="M1061.86 1517.37 Q1058.25 1517.37 1056.42 1520.93 Q1054.62 1524.47 1054.62 1531.6 Q1054.62 1538.71 1056.42 1542.27 Q1058.25 1545.82 1061.86 1545.82 Q1065.5 1545.82 1067.3 1542.27 Q1069.13 1538.71 1069.13 1531.6 Q1069.13 1524.47 1067.3 1520.93 Q1065.5 1517.37 1061.86 1517.37 M1061.86 1513.66 Q1067.67 1513.66 1070.73 1518.27 Q1073.81 1522.85 1073.81 1531.6 Q1073.81 1540.33 1070.73 1544.94 Q1067.67 1549.52 1061.86 1549.52 Q1056.05 1549.52 1052.97 1544.94 Q1049.92 1540.33 1049.92 1531.6 Q1049.92 1522.85 1052.97 1518.27 Q1056.05 1513.66 1061.86 1513.66 Z" fill="#000000" fill-rule="nonzero" fill-opacity="1" /><path clip-path="url(#clip390)" d="M1092.03 1517.37 Q1088.41 1517.37 1086.59 1520.93 Q1084.78 1524.47 1084.78 1531.6 Q1084.78 1538.71 1086.59 1542.27 Q1088.41 1545.82 1092.03 1545.82 Q1095.66 1545.82 1097.46 1542.27 Q1099.29 1538.71 1099.29 1531.6 Q1099.29 1524.47 1097.46 1520.93 Q1095.66 1517.37 1092.03 1517.37 M1092.03 1513.66 Q1097.84 1513.66 1100.89 1518.27 Q1103.97 1522.85 1103.97 1531.6 Q1103.97 1540.33 1100.89 1544.94 Q1097.84 1549.52 1092.03 1549.52 Q1086.22 1549.52 1083.14 1544.94 Q1080.08 1540.33 1080.08 1531.6 Q1080.08 1522.85 1083.14 1518.27 Q1086.22 1513.66 1092.03 1513.66 Z" fill="#000000" fill-rule="nonzero" fill-opacity="1" /><path clip-path="url(#clip390)" d="M1406.88 1544.91 L1414.52 1544.91 L1414.52 1518.55 L1406.21 1520.21 L1406.21 1515.95 L1414.48 1514.29 L1419.15 1514.29 L1419.15 1544.91 L1426.79 1544.91 L1426.79 1548.85 L1406.88 1548.85 L1406.88 1544.91 Z" fill="#000000" fill-rule="nonzero" fill-opacity="1" /><path clip-path="url(#clip390)" d="M1436.28 1514.29 L1454.64 1514.29 L1454.64 1518.22 L1440.57 1518.22 L1440.57 1526.7 Q1441.58 1526.35 1442.6 1526.19 Q1443.62 1526 1444.64 1526 Q1450.43 1526 1453.81 1529.17 Q1457.19 1532.34 1457.19 1537.76 Q1457.19 1543.34 1453.71 1546.44 Q1450.24 1549.52 1443.92 1549.52 Q1441.75 1549.52 1439.48 1549.15 Q1437.23 1548.78 1434.82 1548.04 L1434.82 1543.34 Q1436.91 1544.47 1439.13 1545.03 Q1441.35 1545.58 1443.83 1545.58 Q1447.83 1545.58 1450.17 1543.48 Q1452.51 1541.37 1452.51 1537.76 Q1452.51 1534.15 1450.17 1532.04 Q1447.83 1529.94 1443.83 1529.94 Q1441.95 1529.94 1440.08 1530.35 Q1438.23 1530.77 1436.28 1531.65 L1436.28 1514.29 Z" fill="#000000" fill-rule="nonzero" fill-opacity="1" /><path clip-path="url(#clip390)" d="M1476.4 1517.37 Q1472.79 1517.37 1470.96 1520.93 Q1469.15 1524.47 1469.15 1531.6 Q1469.15 1538.71 1470.96 1542.27 Q1472.79 1545.82 1476.4 1545.82 Q1480.03 1545.82 1481.84 1542.27 Q1483.67 1538.71 1483.67 1531.6 Q1483.67 1524.47 1481.84 1520.93 Q1480.03 1517.37 1476.4 1517.37 M1476.4 1513.66 Q1482.21 1513.66 1485.26 1518.27 Q1488.34 1522.85 1488.34 1531.6 Q1488.34 1540.33 1485.26 1544.94 Q1482.21 1549.52 1476.4 1549.52 Q1470.59 1549.52 1467.51 1544.94 Q1464.45 1540.33 1464.45 1531.6 Q1464.45 1522.85 1467.51 1518.27 Q1470.59 1513.66 1476.4 1513.66 Z" fill="#000000" fill-rule="nonzero" fill-opacity="1" /><path clip-path="url(#clip390)" d="M1506.56 1517.37 Q1502.95 1517.37 1501.12 1520.93 Q1499.32 1524.47 1499.32 1531.6 Q1499.32 1538.71 1501.12 1542.27 Q1502.95 1545.82 1506.56 1545.82 Q1510.19 1545.82 1512 1542.27 Q1513.83 1538.71 1513.83 1531.6 Q1513.83 1524.47 1512 1520.93 Q1510.19 1517.37 1506.56 1517.37 M1506.56 1513.66 Q1512.37 1513.66 1515.43 1518.27 Q1518.5 1522.85 1518.5 1531.6 Q1518.5 1540.33 1515.43 1544.94 Q1512.37 1549.52 1506.56 1549.52 Q1500.75 1549.52 1497.67 1544.94 Q1494.62 1540.33 1494.62 1531.6 Q1494.62 1522.85 1497.67 1518.27 Q1500.75 1513.66 1506.56 1513.66 Z" fill="#000000" fill-rule="nonzero" fill-opacity="1" /><path clip-path="url(#clip390)" d="M1825.51 1544.91 L1841.83 1544.91 L1841.83 1548.85 L1819.88 1548.85 L1819.88 1544.91 Q1822.54 1542.16 1827.13 1537.53 Q1831.73 1532.88 1832.91 1531.53 Q1835.16 1529.01 1836.04 1527.27 Q1836.94 1525.51 1836.94 1523.82 Q1836.94 1521.07 1835 1519.33 Q1833.08 1517.6 1829.97 1517.6 Q1827.77 1517.6 1825.32 1518.36 Q1822.89 1519.13 1820.11 1520.68 L1820.11 1515.95 Q1822.94 1514.82 1825.39 1514.24 Q1827.84 1513.66 1829.88 1513.66 Q1835.25 1513.66 1838.45 1516.35 Q1841.64 1519.03 1841.64 1523.52 Q1841.64 1525.65 1840.83 1527.57 Q1840.04 1529.47 1837.94 1532.07 Q1837.36 1532.74 1834.26 1535.95 Q1831.15 1539.15 1825.51 1544.91 Z" fill="#000000" fill-rule="nonzero" fill-opacity="1" /><path clip-path="url(#clip390)" d="M1861.64 1517.37 Q1858.03 1517.37 1856.2 1520.93 Q1854.39 1524.47 1854.39 1531.6 Q1854.39 1538.71 1856.2 1542.27 Q1858.03 1545.82 1861.64 1545.82 Q1865.27 1545.82 1867.08 1542.27 Q1868.91 1538.71 1868.91 1531.6 Q1868.91 1524.47 1867.08 1520.93 Q1865.27 1517.37 1861.64 1517.37 M1861.64 1513.66 Q1867.45 1513.66 1870.51 1518.27 Q1873.58 1522.85 1873.58 1531.6 Q1873.58 1540.33 1870.51 1544.94 Q1867.45 1549.52 1861.64 1549.52 Q1855.83 1549.52 1852.75 1544.94 Q1849.7 1540.33 1849.7 1531.6 Q1849.7 1522.85 1852.75 1518.27 Q1855.83 1513.66 1861.64 1513.66 Z" fill="#000000" fill-rule="nonzero" fill-opacity="1" /><path clip-path="url(#clip390)" d="M1891.8 1517.37 Q1888.19 1517.37 1886.36 1520.93 Q1884.56 1524.47 1884.56 1531.6 Q1884.56 1538.71 1886.36 1542.27 Q1888.19 1545.82 1891.8 1545.82 Q1895.44 1545.82 1897.24 1542.27 Q1899.07 1538.71 1899.07 1531.6 Q1899.07 1524.47 1897.24 1520.93 Q1895.44 1517.37 1891.8 1517.37 M1891.8 1513.66 Q1897.61 1513.66 1900.67 1518.27 Q1903.75 1522.85 1903.75 1531.6 Q1903.75 1540.33 1900.67 1544.94 Q1897.61 1549.52 1891.8 1549.52 Q1885.99 1549.52 1882.91 1544.94 Q1879.86 1540.33 1879.86 1531.6 Q1879.86 1522.85 1882.91 1518.27 Q1885.99 1513.66 1891.8 1513.66 Z" fill="#000000" fill-rule="nonzero" fill-opacity="1" /><path clip-path="url(#clip390)" d="M1921.96 1517.37 Q1918.35 1517.37 1916.52 1520.93 Q1914.72 1524.47 1914.72 1531.6 Q1914.72 1538.71 1916.52 1542.27 Q1918.35 1545.82 1921.96 1545.82 Q1925.6 1545.82 1927.4 1542.27 Q1929.23 1538.71 1929.23 1531.6 Q1929.23 1524.47 1927.4 1520.93 Q1925.6 1517.37 1921.96 1517.37 M1921.96 1513.66 Q1927.77 1513.66 1930.83 1518.27 Q1933.91 1522.85 1933.91 1531.6 Q1933.91 1540.33 1930.83 1544.94 Q1927.77 1549.52 1921.96 1549.52 Q1916.15 1549.52 1913.07 1544.94 Q1910.02 1540.33 1910.02 1531.6 Q1910.02 1522.85 1913.07 1518.27 Q1916.15 1513.66 1921.96 1513.66 Z" fill="#000000" fill-rule="nonzero" fill-opacity="1" /><path clip-path="url(#clip390)" d="M2240.04 1544.91 L2256.36 1544.91 L2256.36 1548.85 L2234.42 1548.85 L2234.42 1544.91 Q2237.08 1542.16 2241.66 1537.53 Q2246.27 1532.88 2247.45 1531.53 Q2249.69 1529.01 2250.57 1527.27 Q2251.48 1525.51 2251.48 1523.82 Q2251.48 1521.07 2249.53 1519.33 Q2247.61 1517.6 2244.51 1517.6 Q2242.31 1517.6 2239.86 1518.36 Q2237.43 1519.13 2234.65 1520.68 L2234.65 1515.95 Q2237.47 1514.82 2239.93 1514.24 Q2242.38 1513.66 2244.42 1513.66 Q2249.79 1513.66 2252.98 1516.35 Q2256.18 1519.03 2256.18 1523.52 Q2256.18 1525.65 2255.36 1527.57 Q2254.58 1529.47 2252.47 1532.07 Q2251.89 1532.74 2248.79 1535.95 Q2245.69 1539.15 2240.04 1544.91 Z" fill="#000000" fill-rule="nonzero" fill-opacity="1" /><path clip-path="url(#clip390)" d="M2266.22 1514.29 L2284.58 1514.29 L2284.58 1518.22 L2270.5 1518.22 L2270.5 1526.7 Q2271.52 1526.35 2272.54 1526.19 Q2273.56 1526 2274.58 1526 Q2280.36 1526 2283.74 1529.17 Q2287.12 1532.34 2287.12 1537.76 Q2287.12 1543.34 2283.65 1546.44 Q2280.18 1549.52 2273.86 1549.52 Q2271.68 1549.52 2269.42 1549.15 Q2267.17 1548.78 2264.76 1548.04 L2264.76 1543.34 Q2266.85 1544.47 2269.07 1545.03 Q2271.29 1545.58 2273.77 1545.58 Q2277.77 1545.58 2280.11 1543.48 Q2282.45 1541.37 2282.45 1537.76 Q2282.45 1534.15 2280.11 1532.04 Q2277.77 1529.94 2273.77 1529.94 Q2271.89 1529.94 2270.02 1530.35 Q2268.17 1530.77 2266.22 1531.65 L2266.22 1514.29 Z" fill="#000000" fill-rule="nonzero" fill-opacity="1" /><path clip-path="url(#clip390)" d="M2306.34 1517.37 Q2302.73 1517.37 2300.9 1520.93 Q2299.09 1524.47 2299.09 1531.6 Q2299.09 1538.71 2300.9 1542.27 Q2302.73 1545.82 2306.34 1545.82 Q2309.97 1545.82 2311.78 1542.27 Q2313.61 1538.71 2313.61 1531.6 Q2313.61 1524.47 2311.78 1520.93 Q2309.97 1517.37 2306.34 1517.37 M2306.34 1513.66 Q2312.15 1513.66 2315.2 1518.27 Q2318.28 1522.85 2318.28 1531.6 Q2318.28 1540.33 2315.2 1544.94 Q2312.15 1549.52 2306.34 1549.52 Q2300.53 1549.52 2297.45 1544.94 Q2294.39 1540.33 2294.39 1531.6 Q2294.39 1522.85 2297.45 1518.27 Q2300.53 1513.66 2306.34 1513.66 Z" fill="#000000" fill-rule="nonzero" fill-opacity="1" /><path clip-path="url(#clip390)" d="M2336.5 1517.37 Q2332.89 1517.37 2331.06 1520.93 Q2329.25 1524.47 2329.25 1531.6 Q2329.25 1538.71 2331.06 1542.27 Q2332.89 1545.82 2336.5 1545.82 Q2340.13 1545.82 2341.94 1542.27 Q2343.77 1538.71 2343.77 1531.6 Q2343.77 1524.47 2341.94 1520.93 Q2340.13 1517.37 2336.5 1517.37 M2336.5 1513.66 Q2342.31 1513.66 2345.36 1518.27 Q2348.44 1522.85 2348.44 1531.6 Q2348.44 1540.33 2345.36 1544.94 Q2342.31 1549.52 2336.5 1549.52 Q2330.69 1549.52 2327.61 1544.94 Q2324.55 1540.33 2324.55 1531.6 Q2324.55 1522.85 2327.61 1518.27 Q2330.69 1513.66 2336.5 1513.66 Z" fill="#000000" fill-rule="nonzero" fill-opacity="1" /><polyline clip-path="url(#clip392)" style="stroke:#000000; stroke-linecap:round; stroke-linejoin:round; stroke-width:2; stroke-opacity:0.1; fill:none" points="156.598,1445.72 2352.76,1445.72 "/>
<polyline clip-path="url(#clip392)" style="stroke:#000000; stroke-linecap:round; stroke-linejoin:round; stroke-width:2; stroke-opacity:0.1; fill:none" points="156.598,1057.79 2352.76,1057.79 "/>
<polyline clip-path="url(#clip392)" style="stroke:#000000; stroke-linecap:round; stroke-linejoin:round; stroke-width:2; stroke-opacity:0.1; fill:none" points="156.598,669.865 2352.76,669.865 "/>
<polyline clip-path="url(#clip392)" style="stroke:#000000; stroke-linecap:round; stroke-linejoin:round; stroke-width:2; stroke-opacity:0.1; fill:none" points="156.598,281.939 2352.76,281.939 "/>
<polyline clip-path="url(#clip390)" style="stroke:#000000; stroke-linecap:round; stroke-linejoin:round; stroke-width:4; stroke-opacity:1; fill:none" points="156.598,1486.45 156.598,47.2441 "/>
<polyline clip-path="url(#clip390)" style="stroke:#000000; stroke-linecap:round; stroke-linejoin:round; stroke-width:4; stroke-opacity:1; fill:none" points="156.598,1445.72 175.496,1445.72 "/>
<polyline clip-path="url(#clip390)" style="stroke:#000000; stroke-linecap:round; stroke-linejoin:round; stroke-width:4; stroke-opacity:1; fill:none" points="156.598,1057.79 175.496,1057.79 "/>
<polyline clip-path="url(#clip390)" style="stroke:#000000; stroke-linecap:round; stroke-linejoin:round; stroke-width:4; stroke-opacity:1; fill:none" points="156.598,669.865 175.496,669.865 "/>
<polyline clip-path="url(#clip390)" style="stroke:#000000; stroke-linecap:round; stroke-linejoin:round; stroke-width:4; stroke-opacity:1; fill:none" points="156.598,281.939 175.496,281.939 "/>
<path clip-path="url(#clip390)" d="M63.4226 1431.51 Q59.8115 1431.51 57.9828 1435.08 Q56.1773 1438.62 56.1773 1445.75 Q56.1773 1452.86 57.9828 1456.42 Q59.8115 1459.96 63.4226 1459.96 Q67.0569 1459.96 68.8624 1456.42 Q70.6911 1452.86 70.6911 1445.75 Q70.6911 1438.62 68.8624 1435.08 Q67.0569 1431.51 63.4226 1431.51 M63.4226 1427.81 Q69.2328 1427.81 72.2883 1432.42 Q75.367 1437 75.367 1445.75 Q75.367 1454.48 72.2883 1459.08 Q69.2328 1463.67 63.4226 1463.67 Q57.6125 1463.67 54.5338 1459.08 Q51.4782 1454.48 51.4782 1445.75 Q51.4782 1437 54.5338 1432.42 Q57.6125 1427.81 63.4226 1427.81 Z" fill="#000000" fill-rule="nonzero" fill-opacity="1" /><path clip-path="url(#clip390)" d="M83.5845 1457.12 L88.4688 1457.12 L88.4688 1463 L83.5845 1463 L83.5845 1457.12 Z" fill="#000000" fill-rule="nonzero" fill-opacity="1" /><path clip-path="url(#clip390)" d="M108.654 1431.51 Q105.043 1431.51 103.214 1435.08 Q101.409 1438.62 101.409 1445.75 Q101.409 1452.86 103.214 1456.42 Q105.043 1459.96 108.654 1459.96 Q112.288 1459.96 114.094 1456.42 Q115.922 1452.86 115.922 1445.75 Q115.922 1438.62 114.094 1435.08 Q112.288 1431.51 108.654 1431.51 M108.654 1427.81 Q114.464 1427.81 117.52 1432.42 Q120.598 1437 120.598 1445.75 Q120.598 1454.48 117.52 1459.08 Q114.464 1463.67 108.654 1463.67 Q102.844 1463.67 99.765 1459.08 Q96.7095 1454.48 96.7095 1445.75 Q96.7095 1437 99.765 1432.42 Q102.844 1427.81 108.654 1427.81 Z" fill="#000000" fill-rule="nonzero" fill-opacity="1" /><path clip-path="url(#clip390)" d="M65.0198 1043.59 Q61.4087 1043.59 59.58 1047.15 Q57.7745 1050.7 57.7745 1057.82 Q57.7745 1064.93 59.58 1068.5 Q61.4087 1072.04 65.0198 1072.04 Q68.6541 1072.04 70.4596 1068.5 Q72.2883 1064.93 72.2883 1057.82 Q72.2883 1050.7 70.4596 1047.15 Q68.6541 1043.59 65.0198 1043.59 M65.0198 1039.89 Q70.83 1039.89 73.8855 1044.49 Q76.9642 1049.07 76.9642 1057.82 Q76.9642 1066.55 73.8855 1071.16 Q70.83 1075.74 65.0198 1075.74 Q59.2097 1075.74 56.131 1071.16 Q53.0754 1066.55 53.0754 1057.82 Q53.0754 1049.07 56.131 1044.49 Q59.2097 1039.89 65.0198 1039.89 Z" fill="#000000" fill-rule="nonzero" fill-opacity="1" /><path clip-path="url(#clip390)" d="M85.1818 1069.19 L90.066 1069.19 L90.066 1075.07 L85.1818 1075.07 L85.1818 1069.19 Z" fill="#000000" fill-rule="nonzero" fill-opacity="1" /><path clip-path="url(#clip390)" d="M104.279 1071.13 L120.598 1071.13 L120.598 1075.07 L98.6539 1075.07 L98.6539 1071.13 Q101.316 1068.38 105.899 1063.75 Q110.506 1059.1 111.686 1057.76 Q113.932 1055.23 114.811 1053.5 Q115.714 1051.74 115.714 1050.05 Q115.714 1047.29 113.77 1045.56 Q111.848 1043.82 108.746 1043.82 Q106.547 1043.82 104.094 1044.58 Q101.663 1045.35 98.8854 1046.9 L98.8854 1042.18 Q101.709 1041.04 104.163 1040.46 Q106.617 1039.89 108.654 1039.89 Q114.024 1039.89 117.219 1042.57 Q120.413 1045.26 120.413 1049.75 Q120.413 1051.88 119.603 1053.8 Q118.816 1055.7 116.709 1058.29 Q116.131 1058.96 113.029 1062.18 Q109.927 1065.37 104.279 1071.13 Z" fill="#000000" fill-rule="nonzero" fill-opacity="1" /><path clip-path="url(#clip390)" d="M62.9365 655.663 Q59.3254 655.663 57.4967 659.228 Q55.6912 662.77 55.6912 669.899 Q55.6912 677.006 57.4967 680.571 Q59.3254 684.112 62.9365 684.112 Q66.5707 684.112 68.3763 680.571 Q70.205 677.006 70.205 669.899 Q70.205 662.77 68.3763 659.228 Q66.5707 655.663 62.9365 655.663 M62.9365 651.96 Q68.7467 651.96 71.8022 656.566 Q74.8809 661.149 74.8809 669.899 Q74.8809 678.626 71.8022 683.233 Q68.7467 687.816 62.9365 687.816 Q57.1264 687.816 54.0477 683.233 Q50.9921 678.626 50.9921 669.899 Q50.9921 661.149 54.0477 656.566 Q57.1264 651.96 62.9365 651.96 Z" fill="#000000" fill-rule="nonzero" fill-opacity="1" /><path clip-path="url(#clip390)" d="M83.0984 681.265 L87.9827 681.265 L87.9827 687.145 L83.0984 687.145 L83.0984 681.265 Z" fill="#000000" fill-rule="nonzero" fill-opacity="1" /><path clip-path="url(#clip390)" d="M111.015 656.659 L99.2095 675.108 L111.015 675.108 L111.015 656.659 M109.788 652.585 L115.668 652.585 L115.668 675.108 L120.598 675.108 L120.598 678.996 L115.668 678.996 L115.668 687.145 L111.015 687.145 L111.015 678.996 L95.4132 678.996 L95.4132 674.483 L109.788 652.585 Z" fill="#000000" fill-rule="nonzero" fill-opacity="1" /><path clip-path="url(#clip390)" d="M63.2606 267.738 Q59.6495 267.738 57.8208 271.303 Q56.0152 274.844 56.0152 281.974 Q56.0152 289.08 57.8208 292.645 Q59.6495 296.187 63.2606 296.187 Q66.8948 296.187 68.7004 292.645 Q70.5291 289.08 70.5291 281.974 Q70.5291 274.844 68.7004 271.303 Q66.8948 267.738 63.2606 267.738 M63.2606 264.034 Q69.0707 264.034 72.1263 268.641 Q75.205 273.224 75.205 281.974 Q75.205 290.701 72.1263 295.307 Q69.0707 299.89 63.2606 299.89 Q57.4504 299.89 54.3717 295.307 Q51.3162 290.701 51.3162 281.974 Q51.3162 273.224 54.3717 268.641 Q57.4504 264.034 63.2606 264.034 Z" fill="#000000" fill-rule="nonzero" fill-opacity="1" /><path clip-path="url(#clip390)" d="M83.4225 293.339 L88.3067 293.339 L88.3067 299.219 L83.4225 299.219 L83.4225 293.339 Z" fill="#000000" fill-rule="nonzero" fill-opacity="1" /><path clip-path="url(#clip390)" d="M109.071 280.076 Q105.922 280.076 104.071 282.228 Q102.242 284.381 102.242 288.131 Q102.242 291.858 104.071 294.034 Q105.922 296.187 109.071 296.187 Q112.219 296.187 114.047 294.034 Q115.899 291.858 115.899 288.131 Q115.899 284.381 114.047 282.228 Q112.219 280.076 109.071 280.076 M118.353 265.423 L118.353 269.682 Q116.594 268.849 114.788 268.409 Q113.006 267.969 111.246 267.969 Q106.617 267.969 104.163 271.094 Q101.733 274.219 101.385 280.539 Q102.751 278.525 104.811 277.46 Q106.871 276.372 109.348 276.372 Q114.557 276.372 117.566 279.543 Q120.598 282.691 120.598 288.131 Q120.598 293.455 117.45 296.673 Q114.302 299.89 109.071 299.89 Q103.075 299.89 99.9039 295.307 Q96.7326 290.701 96.7326 281.974 Q96.7326 273.779 100.621 268.918 Q104.51 264.034 111.061 264.034 Q112.82 264.034 114.603 264.381 Q116.408 264.728 118.353 265.423 Z" fill="#000000" fill-rule="nonzero" fill-opacity="1" /><polyline clip-path="url(#clip392)" style="stroke:#009af9; stroke-linecap:round; stroke-linejoin:round; stroke-width:4; stroke-opacity:1; fill:none" points="218.754,87.9763 219.583,204.354 220.412,281.939 221.241,262.543 222.07,281.939 222.899,272.241 223.728,301.335 224.557,272.241 225.386,252.845 226.215,359.524 227.044,504.996 227.873,456.506 228.702,495.298 229.532,408.015 230.361,504.996 231.19,504.996 232.019,563.185 232.848,563.185 233.677,621.374 234.506,640.77 235.335,553.487 236.164,650.468 236.993,669.865 237.822,708.657 238.651,689.261 239.48,757.148 240.309,679.563 241.139,698.959 241.968,834.733 242.797,776.544 243.626,631.072 244.455,766.846 245.284,912.318 246.113,805.639 246.942,766.846 247.771,825.035 248.6,834.733 249.429,883.224 250.258,989.903 251.087,902.62 251.916,999.601 252.746,922.016 253.575,989.903 254.404,1057.79 255.233,1038.39 256.062,1057.79 256.891,1106.28 257.72,1028.7 258.549,1135.38 259.378,980.205 260.207,1086.88 261.036,1115.98 261.865,1203.26 262.694,1193.56 263.523,1242.05 264.353,1222.66 265.182,1164.47 266.011,1222.66 266.84,1164.47 267.669,1251.75 268.498,1183.87 269.327,1212.96 270.156,1261.45 270.985,1222.66 271.814,1280.85 272.643,1251.75 273.472,1300.24 274.301,1261.45 275.13,1183.87 275.959,1222.66 276.789,1271.15 277.618,1339.04 278.447,1271.15 279.276,1271.15 280.105,1212.96 280.934,1309.94 281.763,1242.05 282.592,1329.34 283.421,1309.94 284.25,1329.34 285.079,1232.36 285.908,1300.24 286.737,1212.96 287.566,1242.05 288.396,1261.45 289.225,1290.55 290.054,1377.83 290.883,1377.83 291.712,1377.83 292.541,1309.94 293.37,1329.34 294.199,1280.85 295.028,1329.34 295.857,1406.92 296.686,1368.13 297.515,1368.13 298.344,1406.92 299.173,1387.53 300.003,1348.73 300.832,1377.83 301.661,1290.55 302.49,1329.34 303.319,1368.13 304.148,1348.73 304.977,1309.94 305.806,1368.13 306.635,1358.43 307.464,1368.13 308.293,1309.94 309.122,1339.04 309.951,1329.34 310.78,1377.83 311.61,1368.13 312.439,1387.53 313.268,1387.53 314.097,1397.22 314.926,1397.22 315.755,1387.53 316.584,1416.62 317.413,1377.83 318.242,1387.53 319.071,1319.64 319.9,1397.22 320.729,1339.04 321.558,1377.83 322.387,1406.92 323.217,1348.73 324.046,1339.04 324.875,1358.43 325.704,1387.53 326.533,1358.43 327.362,1377.83 328.191,1416.62 329.02,1339.04 329.849,1387.53 330.678,1358.43 331.507,1406.92 332.336,1397.22 333.165,1416.62 333.994,1416.62 334.823,1358.43 335.653,1397.22 336.482,1406.92 337.311,1406.92 338.14,1406.92 338.969,1397.22 339.798,1368.13 340.627,1358.43 341.456,1377.83 342.285,1387.53 343.114,1387.53 343.943,1377.83 344.772,1445.72 345.601,1426.32 346.43,1368.13 347.26,1397.22 348.089,1387.53 348.918,1416.62 349.747,1387.53 350.576,1397.22 351.405,1436.02 352.234,1416.62 353.063,1416.62 353.892,1377.83 354.721,1387.53 355.55,1426.32 356.379,1387.53 357.208,1426.32 358.037,1445.72 358.867,1387.53 359.696,1426.32 360.525,1377.83 361.354,1406.92 362.183,1397.22 363.012,1426.32 363.841,1426.32 364.67,1416.62 365.499,1397.22 366.328,1416.62 367.157,1426.32 367.986,1426.32 368.815,1416.62 369.644,1426.32 370.474,1397.22 371.303,1406.92 372.132,1416.62 372.961,1397.22 373.79,1406.92 374.619,1397.22 375.448,1368.13 376.277,1426.32 377.106,1426.32 377.935,1416.62 378.764,1397.22 379.593,1406.92 380.422,1416.62 381.251,1416.62 382.081,1426.32 382.91,1406.92 383.739,1406.92 384.568,1426.32 385.397,1426.32 386.226,1397.22 387.055,1406.92 387.884,1406.92 388.713,1397.22 389.542,1426.32 390.371,1387.53 391.2,1436.02 392.029,1406.92 392.858,1397.22 393.687,1416.62 394.517,1436.02 395.346,1416.62 396.175,1426.32 397.004,1416.62 397.833,1387.53 398.662,1426.32 399.491,1445.72 400.32,1416.62 401.149,1445.72 401.978,1416.62 402.807,1426.32 403.636,1426.32 404.465,1436.02 405.294,1416.62 406.124,1426.32 406.953,1426.32 407.782,1377.83 408.611,1426.32 409.44,1436.02 410.269,1397.22 411.098,1436.02 411.927,1406.92 412.756,1445.72 413.585,1426.32 414.414,1436.02 415.243,1416.62 416.072,1377.83 416.901,1387.53 417.731,1416.62 418.56,1406.92 419.389,1416.62 420.218,1426.32 421.047,1406.92 421.876,1436.02 422.705,1426.32 423.534,1426.32 424.363,1416.62 425.192,1406.92 426.021,1426.32 426.85,1426.32 427.679,1416.62 428.508,1416.62 429.338,1416.62 430.167,1406.92 430.996,1416.62 431.825,1426.32 432.654,1387.53 433.483,1416.62 434.312,1436.02 435.141,1416.62 435.97,1426.32 436.799,1436.02 437.628,1445.72 438.457,1445.72 439.286,1426.32 440.115,1426.32 440.944,1445.72 441.774,1436.02 442.603,1426.32 443.432,1397.22 444.261,1426.32 445.09,1426.32 445.919,1406.92 446.748,1436.02 447.577,1426.32 448.406,1416.62 449.235,1426.32 450.064,1436.02 450.893,1406.92 451.722,1397.22 452.551,1416.62 453.381,1397.22 454.21,1426.32 455.039,1416.62 455.868,1426.32 456.697,1436.02 457.526,1445.72 458.355,1416.62 459.184,1426.32 460.013,1445.72 460.842,1445.72 461.671,1436.02 462.5,1436.02 463.329,1416.62 464.158,1436.02 464.988,1426.32 465.817,1436.02 466.646,1406.92 467.475,1436.02 468.304,1426.32 469.133,1426.32 469.962,1436.02 470.791,1426.32 471.62,1416.62 472.449,1436.02 473.278,1397.22 474.107,1436.02 474.936,1436.02 475.765,1436.02 476.595,1436.02 477.424,1436.02 478.253,1436.02 479.082,1436.02 479.911,1436.02 480.74,1416.62 481.569,1426.32 482.398,1445.72 483.227,1426.32 484.056,1436.02 484.885,1426.32 485.714,1436.02 486.543,1445.72 487.372,1426.32 488.202,1426.32 489.031,1436.02 489.86,1436.02 490.689,1426.32 491.518,1436.02 492.347,1416.62 493.176,1426.32 494.005,1436.02 494.834,1445.72 495.663,1436.02 496.492,1436.02 497.321,1445.72 498.15,1426.32 498.979,1436.02 499.808,1426.32 500.638,1436.02 501.467,1436.02 502.296,1436.02 503.125,1445.72 503.954,1436.02 504.783,1436.02 505.612,1445.72 506.441,1426.32 507.27,1436.02 508.099,1426.32 508.928,1426.32 509.757,1416.62 510.586,1436.02 511.415,1445.72 512.245,1426.32 513.074,1445.72 513.903,1436.02 514.732,1445.72 515.561,1426.32 516.39,1436.02 517.219,1416.62 518.048,1426.32 518.877,1416.62 519.706,1426.32 520.535,1445.72 521.364,1445.72 522.193,1436.02 523.022,1436.02 523.852,1445.72 524.681,1436.02 525.51,1436.02 526.339,1436.02 527.168,1445.72 527.997,1436.02 528.826,1397.22 529.655,1445.72 530.484,1426.32 531.313,1445.72 532.142,1416.62 532.971,1426.32 533.8,1436.02 534.629,1426.32 535.459,1426.32 536.288,1426.32 537.117,1426.32 537.946,1426.32 538.775,1445.72 539.604,1445.72 540.433,1426.32 541.262,1436.02 542.091,1445.72 542.92,1426.32 543.749,1436.02 544.578,1436.02 545.407,1416.62 546.236,1416.62 547.066,1406.92 547.895,1416.62 548.724,1406.92 549.553,1436.02 550.382,1426.32 551.211,1436.02 552.04,1436.02 552.869,1436.02 553.698,1416.62 554.527,1436.02 555.356,1426.32 556.185,1445.72 557.014,1445.72 557.843,1416.62 558.672,1426.32 559.502,1436.02 560.331,1436.02 561.16,1436.02 561.989,1445.72 562.818,1426.32 563.647,1416.62 564.476,1416.62 565.305,1426.32 566.134,1426.32 566.963,1445.72 567.792,1445.72 568.621,1436.02 569.45,1426.32 570.279,1397.22 571.109,1445.72 571.938,1416.62 572.767,1436.02 573.596,1445.72 574.425,1436.02 575.254,1397.22 576.083,1436.02 576.912,1436.02 577.741,1426.32 578.57,1436.02 579.399,1436.02 580.228,1436.02 581.057,1436.02 581.886,1426.32 582.716,1436.02 583.545,1426.32 584.374,1406.92 585.203,1436.02 586.032,1426.32 586.861,1416.62 587.69,1445.72 588.519,1445.72 589.348,1445.72 590.177,1445.72 591.006,1426.32 591.835,1445.72 592.664,1445.72 593.493,1436.02 594.323,1426.32 595.152,1445.72 595.981,1436.02 596.81,1445.72 597.639,1436.02 598.468,1445.72 599.297,1416.62 600.126,1445.72 600.955,1426.32 601.784,1436.02 602.613,1436.02 603.442,1436.02 604.271,1445.72 605.1,1445.72 605.93,1436.02 606.759,1445.72 607.588,1426.32 608.417,1436.02 609.246,1436.02 610.075,1436.02 610.904,1416.62 611.733,1436.02 612.562,1436.02 613.391,1445.72 614.22,1445.72 615.049,1426.32 615.878,1426.32 616.707,1436.02 617.536,1445.72 618.366,1426.32 619.195,1426.32 620.024,1436.02 620.853,1445.72 621.682,1436.02 622.511,1445.72 623.34,1445.72 624.169,1445.72 624.998,1445.72 625.827,1436.02 626.656,1445.72 627.485,1436.02 628.314,1445.72 629.143,1445.72 629.973,1436.02 630.802,1436.02 631.631,1445.72 632.46,1445.72 633.289,1406.92 634.118,1416.62 634.947,1426.32 635.776,1426.32 636.605,1445.72 637.434,1426.32 638.263,1445.72 639.092,1436.02 639.921,1436.02 640.75,1445.72 641.58,1445.72 642.409,1445.72 643.238,1445.72 644.067,1416.62 644.896,1436.02 645.725,1436.02 646.554,1416.62 647.383,1445.72 648.212,1436.02 649.041,1445.72 649.87,1426.32 650.699,1426.32 651.528,1426.32 652.357,1436.02 653.187,1436.02 654.016,1426.32 654.845,1436.02 655.674,1445.72 656.503,1445.72 657.332,1436.02 658.161,1426.32 658.99,1416.62 659.819,1436.02 660.648,1426.32 661.477,1436.02 662.306,1445.72 663.135,1445.72 663.964,1445.72 664.794,1445.72 665.623,1436.02 666.452,1436.02 667.281,1445.72 668.11,1445.72 668.939,1426.32 669.768,1436.02 670.597,1426.32 671.426,1445.72 672.255,1426.32 673.084,1436.02 673.913,1426.32 674.742,1445.72 675.571,1436.02 676.4,1436.02 677.23,1416.62 678.059,1436.02 678.888,1436.02 679.717,1436.02 680.546,1445.72 681.375,1445.72 682.204,1436.02 683.033,1445.72 683.862,1406.92 684.691,1445.72 685.52,1445.72 686.349,1436.02 687.178,1436.02 688.007,1445.72 688.837,1445.72 689.666,1445.72 690.495,1445.72 691.324,1445.72 692.153,1445.72 692.982,1445.72 693.811,1426.32 694.64,1445.72 695.469,1445.72 696.298,1445.72 697.127,1436.02 697.956,1445.72 698.785,1445.72 699.614,1426.32 700.444,1426.32 701.273,1445.72 702.102,1426.32 702.931,1436.02 703.76,1426.32 704.589,1445.72 705.418,1445.72 706.247,1436.02 707.076,1445.72 707.905,1436.02 708.734,1445.72 709.563,1445.72 710.392,1426.32 711.221,1416.62 712.051,1445.72 712.88,1426.32 713.709,1436.02 714.538,1445.72 715.367,1445.72 716.196,1445.72 717.025,1436.02 717.854,1436.02 718.683,1416.62 719.512,1436.02 720.341,1436.02 721.17,1436.02 721.999,1426.32 722.828,1436.02 723.657,1426.32 724.487,1445.72 725.316,1436.02 726.145,1445.72 726.974,1387.53 727.803,1436.02 728.632,1445.72 729.461,1445.72 730.29,1445.72 731.119,1445.72 731.948,1445.72 732.777,1436.02 733.606,1436.02 734.435,1436.02 735.264,1445.72 736.094,1436.02 736.923,1426.32 737.752,1445.72 738.581,1436.02 739.41,1436.02 740.239,1416.62 741.068,1445.72 741.897,1436.02 742.726,1445.72 743.555,1436.02 744.384,1436.02 745.213,1445.72 746.042,1445.72 746.871,1445.72 747.701,1436.02 748.53,1445.72 749.359,1445.72 750.188,1416.62 751.017,1406.92 751.846,1436.02 752.675,1436.02 753.504,1445.72 754.333,1426.32 755.162,1445.72 755.991,1436.02 756.82,1445.72 757.649,1445.72 758.478,1436.02 759.308,1426.32 760.137,1436.02 760.966,1436.02 761.795,1445.72 762.624,1436.02 763.453,1426.32 764.282,1416.62 765.111,1416.62 765.94,1426.32 766.769,1436.02 767.598,1436.02 768.427,1436.02 769.256,1445.72 770.085,1445.72 770.915,1426.32 771.744,1445.72 772.573,1436.02 773.402,1436.02 774.231,1445.72 775.06,1436.02 775.889,1445.72 776.718,1436.02 777.547,1445.72 778.376,1436.02 779.205,1445.72 780.034,1426.32 780.863,1445.72 781.692,1445.72 782.521,1436.02 783.351,1436.02 784.18,1445.72 785.009,1397.22 785.838,1445.72 786.667,1445.72 787.496,1416.62 788.325,1436.02 789.154,1436.02 789.983,1426.32 790.812,1416.62 791.641,1445.72 792.47,1445.72 793.299,1436.02 794.128,1445.72 794.958,1445.72 795.787,1436.02 796.616,1436.02 797.445,1445.72 798.274,1445.72 799.103,1436.02 799.932,1436.02 800.761,1445.72 801.59,1445.72 802.419,1436.02 803.248,1445.72 804.077,1445.72 804.906,1445.72 805.735,1445.72 806.565,1436.02 807.394,1436.02 808.223,1436.02 809.052,1436.02 809.881,1426.32 810.71,1445.72 811.539,1436.02 812.368,1445.72 813.197,1436.02 814.026,1436.02 814.855,1436.02 815.684,1436.02 816.513,1436.02 817.342,1445.72 818.172,1436.02 819.001,1436.02 819.83,1445.72 820.659,1445.72 821.488,1445.72 822.317,1445.72 823.146,1436.02 823.975,1445.72 824.804,1445.72 825.633,1445.72 826.462,1426.32 827.291,1445.72 828.12,1445.72 828.949,1445.72 829.779,1436.02 830.608,1445.72 831.437,1445.72 832.266,1436.02 833.095,1416.62 833.924,1436.02 834.753,1445.72 835.582,1416.62 836.411,1445.72 837.24,1436.02 838.069,1436.02 838.898,1436.02 839.727,1445.72 840.556,1436.02 841.385,1445.72 842.215,1445.72 843.044,1426.32 843.873,1445.72 844.702,1416.62 845.531,1426.32 846.36,1436.02 847.189,1445.72 848.018,1426.32 848.847,1445.72 849.676,1436.02 850.505,1436.02 851.334,1445.72 852.163,1445.72 852.992,1436.02 853.822,1445.72 854.651,1445.72 855.48,1445.72 856.309,1445.72 857.138,1436.02 857.967,1445.72 858.796,1445.72 859.625,1445.72 860.454,1445.72 861.283,1445.72 862.112,1436.02 862.941,1445.72 863.77,1445.72 864.599,1445.72 865.429,1445.72 866.258,1445.72 867.087,1445.72 867.916,1445.72 868.745,1436.02 869.574,1436.02 870.403,1445.72 871.232,1436.02 872.061,1436.02 872.89,1445.72 873.719,1445.72 874.548,1445.72 875.377,1436.02 876.206,1445.72 877.036,1436.02 877.865,1416.62 878.694,1445.72 879.523,1445.72 880.352,1436.02 881.181,1445.72 882.01,1436.02 882.839,1436.02 883.668,1436.02 884.497,1445.72 885.326,1445.72 886.155,1445.72 886.984,1445.72 887.813,1436.02 888.643,1445.72 889.472,1426.32 890.301,1445.72 891.13,1445.72 891.959,1436.02 892.788,1445.72 893.617,1445.72 894.446,1445.72 895.275,1445.72 896.104,1445.72 896.933,1445.72 897.762,1436.02 898.591,1445.72 899.42,1436.02 900.249,1436.02 901.079,1445.72 901.908,1436.02 902.737,1445.72 903.566,1426.32 904.395,1445.72 905.224,1445.72 906.053,1436.02 906.882,1445.72 907.711,1445.72 908.54,1426.32 909.369,1426.32 910.198,1436.02 911.027,1445.72 911.856,1445.72 912.686,1436.02 913.515,1445.72 914.344,1445.72 915.173,1445.72 916.002,1445.72 916.831,1436.02 917.66,1445.72 918.489,1445.72 919.318,1416.62 920.147,1436.02 920.976,1445.72 921.805,1445.72 922.634,1445.72 923.463,1445.72 924.293,1436.02 925.122,1436.02 925.951,1436.02 926.78,1445.72 927.609,1426.32 928.438,1436.02 929.267,1426.32 930.096,1445.72 930.925,1445.72 931.754,1436.02 932.583,1445.72 933.412,1445.72 934.241,1436.02 935.07,1445.72 935.9,1436.02 936.729,1445.72 937.558,1416.62 938.387,1445.72 939.216,1436.02 940.045,1445.72 940.874,1445.72 941.703,1436.02 942.532,1436.02 943.361,1445.72 944.19,1436.02 945.019,1426.32 945.848,1436.02 946.677,1445.72 947.506,1436.02 948.336,1426.32 949.165,1445.72 949.994,1436.02 950.823,1436.02 951.652,1445.72 952.481,1445.72 953.31,1436.02 954.139,1436.02 954.968,1436.02 955.797,1445.72 956.626,1445.72 957.455,1426.32 958.284,1445.72 959.113,1445.72 959.943,1426.32 960.772,1445.72 961.601,1445.72 962.43,1445.72 963.259,1445.72 964.088,1436.02 964.917,1445.72 965.746,1445.72 966.575,1436.02 967.404,1436.02 968.233,1436.02 969.062,1436.02 969.891,1426.32 970.72,1445.72 971.55,1445.72 972.379,1436.02 973.208,1445.72 974.037,1445.72 974.866,1445.72 975.695,1445.72 976.524,1445.72 977.353,1445.72 978.182,1445.72 979.011,1445.72 979.84,1445.72 980.669,1445.72 981.498,1436.02 982.327,1445.72 983.157,1436.02 983.986,1416.62 984.815,1445.72 985.644,1445.72 986.473,1436.02 987.302,1445.72 988.131,1436.02 988.96,1436.02 989.789,1445.72 990.618,1445.72 991.447,1436.02 992.276,1445.72 993.105,1426.32 993.934,1445.72 994.764,1445.72 995.593,1445.72 996.422,1426.32 997.251,1436.02 998.08,1436.02 998.909,1436.02 999.738,1445.72 1000.57,1436.02 1001.4,1416.62 1002.23,1436.02 1003.05,1445.72 1003.88,1436.02 1004.71,1436.02 1005.54,1445.72 1006.37,1445.72 1007.2,1445.72 1008.03,1445.72 1008.86,1426.32 1009.69,1436.02 1010.52,1445.72 1011.34,1445.72 1012.17,1426.32 1013,1436.02 1013.83,1436.02 1014.66,1445.72 1015.49,1445.72 1016.32,1426.32 1017.15,1406.92 1017.98,1445.72 1018.81,1445.72 1019.64,1445.72 1020.46,1445.72 1021.29,1436.02 1022.12,1436.02 1022.95,1445.72 1023.78,1445.72 1024.61,1445.72 1025.44,1445.72 1026.27,1426.32 1027.1,1445.72 1027.93,1445.72 1028.76,1445.72 1029.58,1445.72 1030.41,1445.72 1031.24,1445.72 1032.07,1445.72 1032.9,1436.02 1033.73,1426.32 1034.56,1436.02 1035.39,1445.72 1036.22,1426.32 1037.05,1445.72 1037.88,1445.72 1038.7,1436.02 1039.53,1426.32 1040.36,1445.72 1041.19,1445.72 1042.02,1445.72 1042.85,1426.32 1043.68,1426.32 1044.51,1436.02 1045.34,1445.72 1046.17,1436.02 1046.99,1445.72 1047.82,1445.72 1048.65,1445.72 1049.48,1436.02 1050.31,1445.72 1051.14,1445.72 1051.97,1436.02 1052.8,1445.72 1053.63,1445.72 1054.46,1426.32 1055.29,1426.32 1056.11,1426.32 1056.94,1436.02 1057.77,1436.02 1058.6,1426.32 1059.43,1445.72 1060.26,1445.72 1061.09,1445.72 1061.92,1426.32 1062.75,1436.02 1063.58,1445.72 1064.41,1445.72 1065.23,1445.72 1066.06,1445.72 1066.89,1445.72 1067.72,1445.72 1068.55,1445.72 1069.38,1445.72 1070.21,1426.32 1071.04,1445.72 1071.87,1445.72 1072.7,1445.72 1073.53,1445.72 1074.35,1445.72 1075.18,1445.72 1076.01,1445.72 1076.84,1436.02 1077.67,1445.72 1078.5,1445.72 1079.33,1445.72 1080.16,1436.02 1080.99,1445.72 1081.82,1445.72 1082.64,1436.02 1083.47,1445.72 1084.3,1436.02 1085.13,1436.02 1085.96,1445.72 1086.79,1445.72 1087.62,1445.72 1088.45,1445.72 1089.28,1426.32 1090.11,1445.72 1090.94,1445.72 1091.76,1445.72 1092.59,1445.72 1093.42,1445.72 1094.25,1445.72 1095.08,1445.72 1095.91,1445.72 1096.74,1416.62 1097.57,1445.72 1098.4,1445.72 1099.23,1445.72 1100.06,1436.02 1100.88,1426.32 1101.71,1436.02 1102.54,1445.72 1103.37,1436.02 1104.2,1445.72 1105.03,1445.72 1105.86,1436.02 1106.69,1436.02 1107.52,1445.72 1108.35,1445.72 1109.18,1445.72 1110,1445.72 1110.83,1436.02 1111.66,1445.72 1112.49,1445.72 1113.32,1445.72 1114.15,1436.02 1114.98,1445.72 1115.81,1445.72 1116.64,1445.72 1117.47,1436.02 1118.29,1436.02 1119.12,1445.72 1119.95,1445.72 1120.78,1416.62 1121.61,1445.72 1122.44,1445.72 1123.27,1445.72 1124.1,1445.72 1124.93,1445.72 1125.76,1445.72 1126.59,1436.02 1127.41,1445.72 1128.24,1445.72 1129.07,1436.02 1129.9,1445.72 1130.73,1445.72 1131.56,1436.02 1132.39,1445.72 1133.22,1445.72 1134.05,1436.02 1134.88,1445.72 1135.71,1426.32 1136.53,1445.72 1137.36,1436.02 1138.19,1445.72 1139.02,1436.02 1139.85,1426.32 1140.68,1436.02 1141.51,1445.72 1142.34,1445.72 1143.17,1445.72 1144,1436.02 1144.83,1445.72 1145.65,1445.72 1146.48,1445.72 1147.31,1445.72 1148.14,1436.02 1148.97,1436.02 1149.8,1445.72 1150.63,1436.02 1151.46,1436.02 1152.29,1416.62 1153.12,1445.72 1153.95,1436.02 1154.77,1445.72 1155.6,1445.72 1156.43,1436.02 1157.26,1445.72 1158.09,1445.72 1158.92,1436.02 1159.75,1445.72 1160.58,1426.32 1161.41,1445.72 1162.24,1436.02 1163.06,1436.02 1163.89,1445.72 1164.72,1426.32 1165.55,1445.72 1166.38,1445.72 1167.21,1445.72 1168.04,1445.72 1168.87,1445.72 1169.7,1445.72 1170.53,1436.02 1171.36,1445.72 1172.18,1426.32 1173.01,1445.72 1173.84,1445.72 1174.67,1445.72 1175.5,1445.72 1176.33,1445.72 1177.16,1445.72 1177.99,1445.72 1178.82,1445.72 1179.65,1445.72 1180.48,1445.72 1181.3,1445.72 1182.13,1436.02 1182.96,1436.02 1183.79,1445.72 1184.62,1445.72 1185.45,1436.02 1186.28,1436.02 1187.11,1416.62 1187.94,1445.72 1188.77,1445.72 1189.6,1445.72 1190.42,1436.02 1191.25,1445.72 1192.08,1445.72 1192.91,1445.72 1193.74,1445.72 1194.57,1445.72 1195.4,1445.72 1196.23,1445.72 1197.06,1445.72 1197.89,1426.32 1198.71,1445.72 1199.54,1445.72 1200.37,1436.02 1201.2,1445.72 1202.03,1436.02 1202.86,1445.72 1203.69,1445.72 1204.52,1445.72 1205.35,1445.72 1206.18,1445.72 1207.01,1445.72 1207.83,1445.72 1208.66,1445.72 1209.49,1445.72 1210.32,1426.32 1211.15,1445.72 1211.98,1436.02 1212.81,1436.02 1213.64,1445.72 1214.47,1445.72 1215.3,1445.72 1216.13,1445.72 1216.95,1445.72 1217.78,1445.72 1218.61,1445.72 1219.44,1445.72 1220.27,1445.72 1221.1,1445.72 1221.93,1445.72 1222.76,1445.72 1223.59,1445.72 1224.42,1445.72 1225.25,1436.02 1226.07,1445.72 1226.9,1436.02 1227.73,1445.72 1228.56,1445.72 1229.39,1445.72 1230.22,1436.02 1231.05,1436.02 1231.88,1445.72 1232.71,1426.32 1233.54,1445.72 1234.36,1445.72 1235.19,1445.72 1236.02,1445.72 1236.85,1445.72 1237.68,1436.02 1238.51,1436.02 1239.34,1436.02 1240.17,1445.72 1241,1445.72 1241.83,1436.02 1242.66,1436.02 1243.48,1436.02 1244.31,1445.72 1245.14,1445.72 1245.97,1436.02 1246.8,1445.72 1247.63,1445.72 1248.46,1445.72 1249.29,1445.72 1250.12,1445.72 1250.95,1445.72 1251.78,1445.72 1252.6,1445.72 1253.43,1436.02 1254.26,1445.72 1255.09,1445.72 1255.92,1445.72 1256.75,1445.72 1257.58,1426.32 1258.41,1445.72 1259.24,1436.02 1260.07,1436.02 1260.9,1445.72 1261.72,1445.72 1262.55,1445.72 1263.38,1445.72 1264.21,1445.72 1265.04,1436.02 1265.87,1445.72 1266.7,1445.72 1267.53,1436.02 1268.36,1436.02 1269.19,1445.72 1270.01,1436.02 1270.84,1445.72 1271.67,1436.02 1272.5,1445.72 1273.33,1445.72 1274.16,1445.72 1274.99,1445.72 1275.82,1445.72 1276.65,1436.02 1277.48,1445.72 1278.31,1445.72 1279.13,1445.72 1279.96,1436.02 1280.79,1445.72 1281.62,1445.72 1282.45,1445.72 1283.28,1445.72 1284.11,1445.72 1284.94,1445.72 1285.77,1445.72 1286.6,1436.02 1287.43,1445.72 1288.25,1445.72 1289.08,1436.02 1289.91,1436.02 1290.74,1445.72 1291.57,1445.72 1292.4,1445.72 1293.23,1445.72 1294.06,1426.32 1294.89,1445.72 1295.72,1445.72 1296.55,1445.72 1297.37,1445.72 1298.2,1445.72 1299.03,1445.72 1299.86,1436.02 1300.69,1445.72 1301.52,1426.32 1302.35,1445.72 1303.18,1445.72 1304.01,1436.02 1304.84,1445.72 1305.66,1445.72 1306.49,1445.72 1307.32,1436.02 1308.15,1436.02 1308.98,1426.32 1309.81,1445.72 1310.64,1445.72 1311.47,1445.72 1312.3,1445.72 1313.13,1445.72 1313.96,1445.72 1314.78,1445.72 1315.61,1445.72 1316.44,1436.02 1317.27,1445.72 1318.1,1445.72 1318.93,1436.02 1319.76,1445.72 1320.59,1436.02 1321.42,1436.02 1322.25,1445.72 1323.08,1445.72 1323.9,1445.72 1324.73,1445.72 1325.56,1426.32 1326.39,1436.02 1327.22,1445.72 1328.05,1436.02 1328.88,1445.72 1329.71,1436.02 1330.54,1436.02 1331.37,1445.72 1332.2,1445.72 1333.02,1445.72 1333.85,1445.72 1334.68,1445.72 1335.51,1436.02 1336.34,1436.02 1337.17,1436.02 1338,1445.72 1338.83,1445.72 1339.66,1436.02 1340.49,1436.02 1341.31,1436.02 1342.14,1436.02 1342.97,1445.72 1343.8,1436.02 1344.63,1445.72 1345.46,1445.72 1346.29,1445.72 1347.12,1445.72 1347.95,1445.72 1348.78,1445.72 1349.61,1445.72 1350.43,1445.72 1351.26,1445.72 1352.09,1436.02 1352.92,1445.72 1353.75,1445.72 1354.58,1445.72 1355.41,1445.72 1356.24,1445.72 1357.07,1445.72 1357.9,1445.72 1358.73,1445.72 1359.55,1436.02 1360.38,1436.02 1361.21,1445.72 1362.04,1445.72 1362.87,1445.72 1363.7,1445.72 1364.53,1445.72 1365.36,1436.02 1366.19,1436.02 1367.02,1445.72 1367.85,1436.02 1368.67,1436.02 1369.5,1445.72 1370.33,1445.72 1371.16,1436.02 1371.99,1426.32 1372.82,1445.72 1373.65,1445.72 1374.48,1445.72 1375.31,1436.02 1376.14,1445.72 1376.96,1436.02 1377.79,1445.72 1378.62,1436.02 1379.45,1445.72 1380.28,1445.72 1381.11,1445.72 1381.94,1445.72 1382.77,1445.72 1383.6,1436.02 1384.43,1436.02 1385.26,1445.72 1386.08,1445.72 1386.91,1445.72 1387.74,1445.72 1388.57,1436.02 1389.4,1436.02 1390.23,1445.72 1391.06,1445.72 1391.89,1445.72 1392.72,1426.32 1393.55,1426.32 1394.38,1445.72 1395.2,1445.72 1396.03,1445.72 1396.86,1445.72 1397.69,1445.72 1398.52,1436.02 1399.35,1445.72 1400.18,1445.72 1401.01,1445.72 1401.84,1445.72 1402.67,1445.72 1403.5,1445.72 1404.32,1445.72 1405.15,1426.32 1405.98,1436.02 1406.81,1445.72 1407.64,1436.02 1408.47,1445.72 1409.3,1445.72 1410.13,1445.72 1410.96,1445.72 1411.79,1445.72 1412.61,1445.72 1413.44,1445.72 1414.27,1436.02 1415.1,1436.02 1415.93,1445.72 1416.76,1436.02 1417.59,1445.72 1418.42,1445.72 1419.25,1445.72 1420.08,1445.72 1420.91,1445.72 1421.73,1445.72 1422.56,1445.72 1423.39,1436.02 1424.22,1445.72 1425.05,1445.72 1425.88,1445.72 1426.71,1445.72 1427.54,1445.72 1428.37,1445.72 1429.2,1436.02 1430.03,1436.02 1430.85,1436.02 1431.68,1436.02 1432.51,1445.72 1433.34,1445.72 1434.17,1445.72 1435,1445.72 1435.83,1436.02 1436.66,1445.72 1437.49,1445.72 1438.32,1445.72 1439.15,1426.32 1439.97,1445.72 1440.8,1445.72 1441.63,1445.72 1442.46,1445.72 1443.29,1445.72 1444.12,1445.72 1444.95,1436.02 1445.78,1445.72 1446.61,1436.02 1447.44,1436.02 1448.27,1445.72 1449.09,1436.02 1449.92,1445.72 1450.75,1445.72 1451.58,1445.72 1452.41,1445.72 1453.24,1445.72 1454.07,1436.02 1454.9,1436.02 1455.73,1445.72 1456.56,1445.72 1457.38,1445.72 1458.21,1445.72 1459.04,1445.72 1459.87,1436.02 1460.7,1445.72 1461.53,1445.72 1462.36,1445.72 1463.19,1445.72 1464.02,1445.72 1464.85,1445.72 1465.68,1445.72 1466.5,1445.72 1467.33,1445.72 1468.16,1445.72 1468.99,1445.72 1469.82,1436.02 1470.65,1445.72 1471.48,1445.72 1472.31,1445.72 1473.14,1436.02 1473.97,1436.02 1474.8,1445.72 1475.62,1445.72 1476.45,1445.72 1477.28,1445.72 1478.11,1445.72 1478.94,1445.72 1479.77,1445.72 1480.6,1445.72 1481.43,1445.72 1482.26,1445.72 1483.09,1445.72 1483.92,1445.72 1484.74,1445.72 1485.57,1445.72 1486.4,1445.72 1487.23,1445.72 1488.06,1445.72 1488.89,1436.02 1489.72,1436.02 1490.55,1445.72 1491.38,1445.72 1492.21,1436.02 1493.03,1436.02 1493.86,1445.72 1494.69,1436.02 1495.52,1445.72 1496.35,1445.72 1497.18,1445.72 1498.01,1445.72 1498.84,1445.72 1499.67,1445.72 1500.5,1445.72 1501.33,1445.72 1502.15,1445.72 1502.98,1445.72 1503.81,1436.02 1504.64,1445.72 1505.47,1445.72 1506.3,1445.72 1507.13,1445.72 1507.96,1445.72 1508.79,1445.72 1509.62,1445.72 1510.45,1436.02 1511.27,1445.72 1512.1,1445.72 1512.93,1445.72 1513.76,1445.72 1514.59,1445.72 1515.42,1445.72 1516.25,1445.72 1517.08,1445.72 1517.91,1445.72 1518.74,1426.32 1519.57,1445.72 1520.39,1445.72 1521.22,1436.02 1522.05,1426.32 1522.88,1436.02 1523.71,1445.72 1524.54,1436.02 1525.37,1445.72 1526.2,1445.72 1527.03,1436.02 1527.86,1436.02 1528.68,1436.02 1529.51,1445.72 1530.34,1445.72 1531.17,1445.72 1532,1445.72 1532.83,1445.72 1533.66,1436.02 1534.49,1436.02 1535.32,1445.72 1536.15,1445.72 1536.98,1445.72 1537.8,1445.72 1538.63,1445.72 1539.46,1445.72 1540.29,1436.02 1541.12,1436.02 1541.95,1445.72 1542.78,1445.72 1543.61,1445.72 1544.44,1445.72 1545.27,1445.72 1546.1,1445.72 1546.92,1445.72 1547.75,1445.72 1548.58,1445.72 1549.41,1445.72 1550.24,1445.72 1551.07,1445.72 1551.9,1445.72 1552.73,1445.72 1553.56,1445.72 1554.39,1445.72 1555.22,1445.72 1556.04,1436.02 1556.87,1445.72 1557.7,1445.72 1558.53,1436.02 1559.36,1436.02 1560.19,1445.72 1561.02,1445.72 1561.85,1445.72 1562.68,1445.72 1563.51,1436.02 1564.33,1436.02 1565.16,1436.02 1565.99,1445.72 1566.82,1445.72 1567.65,1436.02 1568.48,1445.72 1569.31,1436.02 1570.14,1445.72 1570.97,1426.32 1571.8,1436.02 1572.63,1445.72 1573.45,1445.72 1574.28,1445.72 1575.11,1436.02 1575.94,1445.72 1576.77,1445.72 1577.6,1445.72 1578.43,1445.72 1579.26,1445.72 1580.09,1445.72 1580.92,1445.72 1581.75,1445.72 1582.57,1445.72 1583.4,1445.72 1584.23,1445.72 1585.06,1436.02 1585.89,1445.72 1586.72,1445.72 1587.55,1445.72 1588.38,1445.72 1589.21,1445.72 1590.04,1436.02 1590.87,1445.72 1591.69,1445.72 1592.52,1436.02 1593.35,1445.72 1594.18,1436.02 1595.01,1445.72 1595.84,1445.72 1596.67,1445.72 1597.5,1436.02 1598.33,1445.72 1599.16,1426.32 1599.98,1436.02 1600.81,1445.72 1601.64,1436.02 1602.47,1445.72 1603.3,1436.02 1604.13,1445.72 1604.96,1445.72 1605.79,1426.32 1606.62,1445.72 1607.45,1436.02 1608.28,1436.02 1609.1,1436.02 1609.93,1445.72 1610.76,1436.02 1611.59,1445.72 1612.42,1436.02 1613.25,1445.72 1614.08,1445.72 1614.91,1445.72 1615.74,1445.72 1616.57,1445.72 1617.4,1445.72 1618.22,1436.02 1619.05,1445.72 1619.88,1445.72 1620.71,1445.72 1621.54,1445.72 1622.37,1445.72 1623.2,1436.02 1624.03,1445.72 1624.86,1445.72 1625.69,1445.72 1626.52,1436.02 1627.34,1445.72 1628.17,1445.72 1629,1445.72 1629.83,1436.02 1630.66,1445.72 1631.49,1445.72 1632.32,1436.02 1633.15,1445.72 1633.98,1445.72 1634.81,1436.02 1635.63,1445.72 1636.46,1436.02 1637.29,1445.72 1638.12,1445.72 1638.95,1436.02 1639.78,1436.02 1640.61,1445.72 1641.44,1445.72 1642.27,1445.72 1643.1,1436.02 1643.93,1445.72 1644.75,1445.72 1645.58,1445.72 1646.41,1445.72 1647.24,1445.72 1648.07,1445.72 1648.9,1445.72 1649.73,1445.72 1650.56,1445.72 1651.39,1436.02 1652.22,1436.02 1653.05,1436.02 1653.87,1445.72 1654.7,1436.02 1655.53,1445.72 1656.36,1436.02 1657.19,1445.72 1658.02,1445.72 1658.85,1436.02 1659.68,1436.02 1660.51,1445.72 1661.34,1416.62 1662.17,1445.72 1662.99,1445.72 1663.82,1445.72 1664.65,1445.72 1665.48,1445.72 1666.31,1445.72 1667.14,1445.72 1667.97,1445.72 1668.8,1445.72 1669.63,1436.02 1670.46,1436.02 1671.28,1445.72 1672.11,1445.72 1672.94,1436.02 1673.77,1445.72 1674.6,1436.02 1675.43,1436.02 1676.26,1445.72 1677.09,1445.72 1677.92,1445.72 1678.75,1445.72 1679.58,1436.02 1680.4,1445.72 1681.23,1445.72 1682.06,1445.72 1682.89,1426.32 1683.72,1445.72 1684.55,1445.72 1685.38,1445.72 1686.21,1445.72 1687.04,1436.02 1687.87,1426.32 1688.7,1445.72 1689.52,1445.72 1690.35,1445.72 1691.18,1445.72 1692.01,1445.72 1692.84,1436.02 1693.67,1445.72 1694.5,1445.72 1695.33,1445.72 1696.16,1445.72 1696.99,1445.72 1697.82,1445.72 1698.64,1426.32 1699.47,1445.72 1700.3,1445.72 1701.13,1445.72 1701.96,1445.72 1702.79,1445.72 1703.62,1436.02 1704.45,1445.72 1705.28,1445.72 1706.11,1445.72 1706.93,1445.72 1707.76,1445.72 1708.59,1436.02 1709.42,1445.72 1710.25,1445.72 1711.08,1445.72 1711.91,1445.72 1712.74,1436.02 1713.57,1445.72 1714.4,1445.72 1715.23,1445.72 1716.05,1445.72 1716.88,1445.72 1717.71,1445.72 1718.54,1445.72 1719.37,1436.02 1720.2,1445.72 1721.03,1436.02 1721.86,1445.72 1722.69,1445.72 1723.52,1445.72 1724.35,1445.72 1725.17,1436.02 1726,1445.72 1726.83,1445.72 1727.66,1445.72 1728.49,1445.72 1729.32,1445.72 1730.15,1445.72 1730.98,1436.02 1731.81,1445.72 1732.64,1445.72 1733.47,1445.72 1734.29,1445.72 1735.12,1436.02 1735.95,1436.02 1736.78,1445.72 1737.61,1445.72 1738.44,1445.72 1739.27,1445.72 1740.1,1436.02 1740.93,1445.72 1741.76,1445.72 1742.58,1436.02 1743.41,1445.72 1744.24,1445.72 1745.07,1445.72 1745.9,1445.72 1746.73,1436.02 1747.56,1445.72 1748.39,1445.72 1749.22,1445.72 1750.05,1436.02 1750.88,1445.72 1751.7,1445.72 1752.53,1445.72 1753.36,1436.02 1754.19,1436.02 1755.02,1445.72 1755.85,1445.72 1756.68,1436.02 1757.51,1445.72 1758.34,1436.02 1759.17,1445.72 1760,1436.02 1760.82,1445.72 1761.65,1436.02 1762.48,1445.72 1763.31,1445.72 1764.14,1436.02 1764.97,1445.72 1765.8,1445.72 1766.63,1445.72 1767.46,1445.72 1768.29,1445.72 1769.12,1445.72 1769.94,1445.72 1770.77,1445.72 1771.6,1436.02 1772.43,1445.72 1773.26,1445.72 1774.09,1445.72 1774.92,1445.72 1775.75,1445.72 1776.58,1436.02 1777.41,1445.72 1778.24,1445.72 1779.06,1445.72 1779.89,1445.72 1780.72,1445.72 1781.55,1445.72 1782.38,1445.72 1783.21,1436.02 1784.04,1445.72 1784.87,1445.72 1785.7,1445.72 1786.53,1445.72 1787.35,1445.72 1788.18,1445.72 1789.01,1445.72 1789.84,1445.72 1790.67,1445.72 1791.5,1445.72 1792.33,1445.72 1793.16,1445.72 1793.99,1445.72 1794.82,1445.72 1795.65,1445.72 1796.47,1436.02 1797.3,1445.72 1798.13,1445.72 1798.96,1445.72 1799.79,1445.72 1800.62,1445.72 1801.45,1445.72 1802.28,1445.72 1803.11,1445.72 1803.94,1445.72 1804.77,1445.72 1805.59,1445.72 1806.42,1436.02 1807.25,1445.72 1808.08,1445.72 1808.91,1445.72 1809.74,1445.72 1810.57,1445.72 1811.4,1436.02 1812.23,1445.72 1813.06,1445.72 1813.89,1445.72 1814.71,1436.02 1815.54,1445.72 1816.37,1445.72 1817.2,1445.72 1818.03,1445.72 1818.86,1445.72 1819.69,1436.02 1820.52,1445.72 1821.35,1445.72 1822.18,1445.72 1823,1436.02 1823.83,1445.72 1824.66,1445.72 1825.49,1436.02 1826.32,1445.72 1827.15,1436.02 1827.98,1445.72 1828.81,1436.02 1829.64,1445.72 1830.47,1445.72 1831.3,1445.72 1832.12,1445.72 1832.95,1445.72 1833.78,1445.72 1834.61,1445.72 1835.44,1436.02 1836.27,1445.72 1837.1,1445.72 1837.93,1445.72 1838.76,1445.72 1839.59,1445.72 1840.42,1445.72 1841.24,1426.32 1842.07,1436.02 1842.9,1445.72 1843.73,1445.72 1844.56,1436.02 1845.39,1445.72 1846.22,1445.72 1847.05,1436.02 1847.88,1445.72 1848.71,1426.32 1849.54,1436.02 1850.36,1436.02 1851.19,1445.72 1852.02,1445.72 1852.85,1445.72 1853.68,1445.72 1854.51,1445.72 1855.34,1426.32 1856.17,1445.72 1857,1445.72 1857.83,1445.72 1858.65,1445.72 1859.48,1445.72 1860.31,1445.72 1861.14,1445.72 1861.97,1445.72 1862.8,1436.02 1863.63,1445.72 1864.46,1445.72 1865.29,1436.02 1866.12,1436.02 1866.95,1436.02 1867.77,1445.72 1868.6,1445.72 1869.43,1445.72 1870.26,1445.72 1871.09,1445.72 1871.92,1445.72 1872.75,1436.02 1873.58,1445.72 1874.41,1445.72 1875.24,1436.02 1876.07,1445.72 1876.89,1436.02 1877.72,1445.72 1878.55,1445.72 1879.38,1445.72 1880.21,1445.72 1881.04,1445.72 1881.87,1445.72 1882.7,1436.02 1883.53,1445.72 1884.36,1436.02 1885.19,1445.72 1886.01,1445.72 1886.84,1445.72 1887.67,1445.72 1888.5,1445.72 1889.33,1445.72 1890.16,1445.72 1890.99,1445.72 1891.82,1436.02 1892.65,1445.72 1893.48,1445.72 1894.3,1445.72 1895.13,1436.02 1895.96,1445.72 1896.79,1445.72 1897.62,1445.72 1898.45,1445.72 1899.28,1445.72 1900.11,1445.72 1900.94,1445.72 1901.77,1436.02 1902.6,1436.02 1903.42,1445.72 1904.25,1445.72 1905.08,1445.72 1905.91,1436.02 1906.74,1436.02 1907.57,1426.32 1908.4,1445.72 1909.23,1445.72 1910.06,1445.72 1910.89,1445.72 1911.72,1445.72 1912.54,1445.72 1913.37,1445.72 1914.2,1445.72 1915.03,1445.72 1915.86,1436.02 1916.69,1436.02 1917.52,1445.72 1918.35,1445.72 1919.18,1445.72 1920.01,1445.72 1920.84,1445.72 1921.66,1445.72 1922.49,1445.72 1923.32,1445.72 1924.15,1445.72 1924.98,1445.72 1925.81,1436.02 1926.64,1445.72 1927.47,1445.72 1928.3,1445.72 1929.13,1445.72 1929.95,1445.72 1930.78,1445.72 1931.61,1445.72 1932.44,1445.72 1933.27,1445.72 1934.1,1445.72 1934.93,1445.72 1935.76,1445.72 1936.59,1445.72 1937.42,1445.72 1938.25,1445.72 1939.07,1445.72 1939.9,1445.72 1940.73,1445.72 1941.56,1436.02 1942.39,1445.72 1943.22,1445.72 1944.05,1445.72 1944.88,1445.72 1945.71,1436.02 1946.54,1436.02 1947.37,1436.02 1948.19,1445.72 1949.02,1445.72 1949.85,1436.02 1950.68,1445.72 1951.51,1445.72 1952.34,1445.72 1953.17,1445.72 1954,1445.72 1954.83,1445.72 1955.66,1436.02 1956.49,1445.72 1957.31,1436.02 1958.14,1436.02 1958.97,1445.72 1959.8,1445.72 1960.63,1445.72 1961.46,1445.72 1962.29,1445.72 1963.12,1445.72 1963.95,1436.02 1964.78,1445.72 1965.6,1445.72 1966.43,1436.02 1967.26,1436.02 1968.09,1445.72 1968.92,1436.02 1969.75,1445.72 1970.58,1445.72 1971.41,1436.02 1972.24,1445.72 1973.07,1445.72 1973.9,1436.02 1974.72,1445.72 1975.55,1445.72 1976.38,1445.72 1977.21,1436.02 1978.04,1445.72 1978.87,1436.02 1979.7,1445.72 1980.53,1445.72 1981.36,1445.72 1982.19,1445.72 1983.02,1445.72 1983.84,1445.72 1984.67,1445.72 1985.5,1436.02 1986.33,1445.72 1987.16,1436.02 1987.99,1445.72 1988.82,1445.72 1989.65,1445.72 1990.48,1445.72 1991.31,1445.72 1992.14,1436.02 1992.96,1445.72 1993.79,1445.72 1994.62,1436.02 1995.45,1436.02 1996.28,1445.72 1997.11,1445.72 1997.94,1445.72 1998.77,1445.72 1999.6,1445.72 2000.43,1445.72 2001.25,1445.72 2002.08,1436.02 2002.91,1445.72 2003.74,1445.72 2004.57,1445.72 2005.4,1445.72 2006.23,1436.02 2007.06,1436.02 2007.89,1445.72 2008.72,1445.72 2009.55,1445.72 2010.37,1445.72 2011.2,1445.72 2012.03,1445.72 2012.86,1445.72 2013.69,1445.72 2014.52,1445.72 2015.35,1436.02 2016.18,1445.72 2017.01,1436.02 2017.84,1445.72 2018.67,1445.72 2019.49,1445.72 2020.32,1436.02 2021.15,1436.02 2021.98,1436.02 2022.81,1445.72 2023.64,1445.72 2024.47,1445.72 2025.3,1445.72 2026.13,1445.72 2026.96,1445.72 2027.79,1445.72 2028.61,1445.72 2029.44,1445.72 2030.27,1445.72 2031.1,1436.02 2031.93,1445.72 2032.76,1445.72 2033.59,1445.72 2034.42,1445.72 2035.25,1445.72 2036.08,1445.72 2036.9,1445.72 2037.73,1445.72 2038.56,1445.72 2039.39,1445.72 2040.22,1445.72 2041.05,1445.72 2041.88,1445.72 2042.71,1436.02 2043.54,1445.72 2044.37,1445.72 2045.2,1445.72 2046.02,1445.72 2046.85,1436.02 2047.68,1436.02 2048.51,1445.72 2049.34,1445.72 2050.17,1436.02 2051,1445.72 2051.83,1445.72 2052.66,1426.32 2053.49,1445.72 2054.32,1445.72 2055.14,1445.72 2055.97,1445.72 2056.8,1445.72 2057.63,1445.72 2058.46,1445.72 2059.29,1445.72 2060.12,1445.72 2060.95,1445.72 2061.78,1445.72 2062.61,1436.02 2063.44,1436.02 2064.26,1445.72 2065.09,1445.72 2065.92,1445.72 2066.75,1445.72 2067.58,1445.72 2068.41,1445.72 2069.24,1436.02 2070.07,1436.02 2070.9,1445.72 2071.73,1445.72 2072.55,1445.72 2073.38,1445.72 2074.21,1445.72 2075.04,1445.72 2075.87,1445.72 2076.7,1436.02 2077.53,1436.02 2078.36,1445.72 2079.19,1445.72 2080.02,1445.72 2080.85,1445.72 2081.67,1445.72 2082.5,1445.72 2083.33,1445.72 2084.16,1436.02 2084.99,1445.72 2085.82,1436.02 2086.65,1445.72 2087.48,1445.72 2088.31,1445.72 2089.14,1436.02 2089.97,1445.72 2090.79,1445.72 2091.62,1445.72 2092.45,1445.72 2093.28,1445.72 2094.11,1445.72 2094.94,1436.02 2095.77,1445.72 2096.6,1445.72 2097.43,1445.72 2098.26,1445.72 2099.09,1445.72 2099.91,1445.72 2100.74,1445.72 2101.57,1445.72 2102.4,1436.02 2103.23,1445.72 2104.06,1445.72 2104.89,1445.72 2105.72,1445.72 2106.55,1445.72 2107.38,1445.72 2108.21,1445.72 2109.03,1445.72 2109.86,1445.72 2110.69,1445.72 2111.52,1445.72 2112.35,1445.72 2113.18,1445.72 2114.01,1445.72 2114.84,1445.72 2115.67,1436.02 2116.5,1445.72 2117.32,1445.72 2118.15,1445.72 2118.98,1445.72 2119.81,1445.72 2120.64,1445.72 2121.47,1445.72 2122.3,1445.72 2123.13,1445.72 2123.96,1445.72 2124.79,1445.72 2125.62,1436.02 2126.44,1445.72 2127.27,1445.72 2128.1,1445.72 2128.93,1445.72 2129.76,1445.72 2130.59,1436.02 2131.42,1445.72 2132.25,1436.02 2133.08,1445.72 2133.91,1445.72 2134.74,1445.72 2135.56,1445.72 2136.39,1445.72 2137.22,1445.72 2138.05,1445.72 2138.88,1445.72 2139.71,1445.72 2140.54,1445.72 2141.37,1445.72 2142.2,1436.02 2143.03,1445.72 2143.86,1445.72 2144.68,1445.72 2145.51,1436.02 2146.34,1445.72 2147.17,1445.72 2148,1445.72 2148.83,1445.72 2149.66,1445.72 2150.49,1445.72 2151.32,1445.72 2152.15,1445.72 2152.97,1445.72 2153.8,1436.02 2154.63,1445.72 2155.46,1445.72 2156.29,1445.72 2157.12,1445.72 2157.95,1445.72 2158.78,1445.72 2159.61,1436.02 2160.44,1436.02 2161.27,1445.72 2162.09,1436.02 2162.92,1436.02 2163.75,1436.02 2164.58,1445.72 2165.41,1445.72 2166.24,1436.02 2167.07,1445.72 2167.9,1436.02 2168.73,1445.72 2169.56,1436.02 2170.39,1445.72 2171.21,1445.72 2172.04,1445.72 2172.87,1445.72 2173.7,1445.72 2174.53,1436.02 2175.36,1445.72 2176.19,1445.72 2177.02,1445.72 2177.85,1445.72 2178.68,1445.72 2179.51,1445.72 2180.33,1436.02 2181.16,1445.72 2181.99,1445.72 2182.82,1445.72 2183.65,1445.72 2184.48,1445.72 2185.31,1445.72 2186.14,1445.72 2186.97,1445.72 2187.8,1445.72 2188.62,1445.72 2189.45,1445.72 2190.28,1445.72 2191.11,1445.72 2191.94,1445.72 2192.77,1445.72 2193.6,1436.02 2194.43,1445.72 2195.26,1445.72 2196.09,1445.72 2196.92,1445.72 2197.74,1445.72 2198.57,1445.72 2199.4,1445.72 2200.23,1445.72 2201.06,1445.72 2201.89,1445.72 2202.72,1436.02 2203.55,1445.72 2204.38,1436.02 2205.21,1445.72 2206.04,1445.72 2206.86,1445.72 2207.69,1436.02 2208.52,1445.72 2209.35,1445.72 2210.18,1445.72 2211.01,1445.72 2211.84,1445.72 2212.67,1445.72 2213.5,1436.02 2214.33,1445.72 2215.16,1445.72 2215.98,1445.72 2216.81,1445.72 2217.64,1445.72 2218.47,1445.72 2219.3,1445.72 2220.13,1445.72 2220.96,1445.72 2221.79,1445.72 2222.62,1445.72 2223.45,1445.72 2224.27,1445.72 2225.1,1436.02 2225.93,1445.72 2226.76,1436.02 2227.59,1436.02 2228.42,1445.72 2229.25,1445.72 2230.08,1445.72 2230.91,1445.72 2231.74,1445.72 2232.57,1426.32 2233.39,1436.02 2234.22,1445.72 2235.05,1436.02 2235.88,1445.72 2236.71,1445.72 2237.54,1445.72 2238.37,1445.72 2239.2,1436.02 2240.03,1445.72 2240.86,1436.02 2241.69,1445.72 2242.51,1445.72 2243.34,1445.72 2244.17,1445.72 2245,1445.72 2245.83,1445.72 2246.66,1445.72 2247.49,1436.02 2248.32,1445.72 2249.15,1445.72 2249.98,1445.72 2250.81,1445.72 2251.63,1436.02 2252.46,1445.72 2253.29,1445.72 2254.12,1445.72 2254.95,1445.72 2255.78,1445.72 2256.61,1445.72 2257.44,1436.02 2258.27,1445.72 2259.1,1445.72 2259.92,1445.72 2260.75,1445.72 2261.58,1445.72 2262.41,1445.72 2263.24,1445.72 2264.07,1445.72 2264.9,1445.72 2265.73,1445.72 2266.56,1445.72 2267.39,1445.72 2268.22,1445.72 2269.04,1445.72 2269.87,1445.72 2270.7,1445.72 2271.53,1445.72 2272.36,1445.72 2273.19,1445.72 2274.02,1445.72 2274.85,1445.72 2275.68,1445.72 2276.51,1436.02 2277.34,1445.72 2278.16,1445.72 2278.99,1445.72 2279.82,1445.72 2280.65,1445.72 2281.48,1445.72 2282.31,1445.72 2283.14,1445.72 2283.97,1436.02 2284.8,1445.72 2285.63,1445.72 2286.46,1445.72 2287.28,1445.72 2288.11,1445.72 2288.94,1445.72 2289.77,1436.02 2290.6,1445.72 "/>
<path clip-path="url(#clip390)" d="M2007.5 198.898 L2279.55 198.898 L2279.55 95.2176 L2007.5 95.2176  Z" fill="#ffffff" fill-rule="evenodd" fill-opacity="1"/>
<polyline clip-path="url(#clip390)" style="stroke:#000000; stroke-linecap:round; stroke-linejoin:round; stroke-width:4; stroke-opacity:1; fill:none" points="2007.5,198.898 2279.55,198.898 2279.55,95.2176 2007.5,95.2176 2007.5,198.898 "/>
<polyline clip-path="url(#clip390)" style="stroke:#009af9; stroke-linecap:round; stroke-linejoin:round; stroke-width:4; stroke-opacity:1; fill:none" points="2031.91,147.058 2178.32,147.058 "/>
<path clip-path="url(#clip390)" d="M2216.56 166.745 Q2214.76 171.375 2213.04 172.787 Q2211.33 174.199 2208.46 174.199 L2205.06 174.199 L2205.06 170.634 L2207.56 170.634 Q2209.32 170.634 2210.29 169.8 Q2211.26 168.967 2212.44 165.865 L2213.2 163.921 L2202.72 138.412 L2207.23 138.412 L2215.33 158.689 L2223.44 138.412 L2227.95 138.412 L2216.56 166.745 Z" fill="#000000" fill-rule="nonzero" fill-opacity="1" /><path clip-path="url(#clip390)" d="M2235.24 160.402 L2242.88 160.402 L2242.88 134.037 L2234.57 135.703 L2234.57 131.444 L2242.83 129.778 L2247.51 129.778 L2247.51 160.402 L2255.15 160.402 L2255.15 164.338 L2235.24 164.338 L2235.24 160.402 Z" fill="#000000" fill-rule="nonzero" fill-opacity="1" /></svg>
