<?xml version="1.0" encoding="utf-8"?>
<svg xmlns="http://www.w3.org/2000/svg" xmlns:xlink="http://www.w3.org/1999/xlink" width="600" height="400" viewBox="0 0 2400 1600">
<defs>
  <clipPath id="clip330">
    <rect x="0" y="0" width="2400" height="1600"/>
  </clipPath>
</defs>
<path clip-path="url(#clip330)" d="M0 1600 L2400 1600 L2400 0 L0 0  Z" fill="#ffffff" fill-rule="evenodd" fill-opacity="1"/>
<defs>
  <clipPath id="clip331">
    <rect x="480" y="0" width="1681" height="1600"/>
  </clipPath>
</defs>
<path clip-path="url(#clip330)" d="M216.436 1486.45 L2352.76 1486.45 L2352.76 47.2441 L216.436 47.2441  Z" fill="#ffffff" fill-rule="evenodd" fill-opacity="1"/>
<defs>
  <clipPath id="clip332">
    <rect x="216" y="47" width="2137" height="1440"/>
  </clipPath>
</defs>
<polyline clip-path="url(#clip332)" style="stroke:#000000; stroke-linecap:round; stroke-linejoin:round; stroke-width:2; stroke-opacity:0.1; fill:none" points="276.898,1486.45 276.898,47.2441 "/>
<polyline clip-path="url(#clip332)" style="stroke:#000000; stroke-linecap:round; stroke-linejoin:round; stroke-width:2; stroke-opacity:0.1; fill:none" points="780.747,1486.45 780.747,47.2441 "/>
<polyline clip-path="url(#clip332)" style="stroke:#000000; stroke-linecap:round; stroke-linejoin:round; stroke-width:2; stroke-opacity:0.1; fill:none" points="1284.6,1486.45 1284.6,47.2441 "/>
<polyline clip-path="url(#clip332)" style="stroke:#000000; stroke-linecap:round; stroke-linejoin:round; stroke-width:2; stroke-opacity:0.1; fill:none" points="1788.44,1486.45 1788.44,47.2441 "/>
<polyline clip-path="url(#clip332)" style="stroke:#000000; stroke-linecap:round; stroke-linejoin:round; stroke-width:2; stroke-opacity:0.1; fill:none" points="2292.29,1486.45 2292.29,47.2441 "/>
<polyline clip-path="url(#clip330)" style="stroke:#000000; stroke-linecap:round; stroke-linejoin:round; stroke-width:4; stroke-opacity:1; fill:none" points="216.436,1486.45 2352.76,1486.45 "/>
<polyline clip-path="url(#clip330)" style="stroke:#000000; stroke-linecap:round; stroke-linejoin:round; stroke-width:4; stroke-opacity:1; fill:none" points="276.898,1486.45 276.898,1467.55 "/>
<polyline clip-path="url(#clip330)" style="stroke:#000000; stroke-linecap:round; stroke-linejoin:round; stroke-width:4; stroke-opacity:1; fill:none" points="780.747,1486.45 780.747,1467.55 "/>
<polyline clip-path="url(#clip330)" style="stroke:#000000; stroke-linecap:round; stroke-linejoin:round; stroke-width:4; stroke-opacity:1; fill:none" points="1284.6,1486.45 1284.6,1467.55 "/>
<polyline clip-path="url(#clip330)" style="stroke:#000000; stroke-linecap:round; stroke-linejoin:round; stroke-width:4; stroke-opacity:1; fill:none" points="1788.44,1486.45 1788.44,1467.55 "/>
<polyline clip-path="url(#clip330)" style="stroke:#000000; stroke-linecap:round; stroke-linejoin:round; stroke-width:4; stroke-opacity:1; fill:none" points="2292.29,1486.45 2292.29,1467.55 "/>
<path clip-path="url(#clip330)" d="M276.898 1517.37 Q273.287 1517.37 271.458 1520.93 Q269.652 1524.47 269.652 1531.6 Q269.652 1538.71 271.458 1542.27 Q273.287 1545.82 276.898 1545.82 Q280.532 1545.82 282.338 1542.27 Q284.166 1538.71 284.166 1531.6 Q284.166 1524.47 282.338 1520.93 Q280.532 1517.37 276.898 1517.37 M276.898 1513.66 Q282.708 1513.66 285.763 1518.27 Q288.842 1522.85 288.842 1531.6 Q288.842 1540.33 285.763 1544.94 Q282.708 1549.52 276.898 1549.52 Q271.088 1549.52 268.009 1544.94 Q264.953 1540.33 264.953 1531.6 Q264.953 1522.85 268.009 1518.27 Q271.088 1513.66 276.898 1513.66 Z" fill="#000000" fill-rule="nonzero" fill-opacity="1" /><path clip-path="url(#clip330)" d="M740.365 1514.29 L758.721 1514.29 L758.721 1518.22 L744.647 1518.22 L744.647 1526.7 Q745.666 1526.35 746.685 1526.19 Q747.703 1526 748.722 1526 Q754.509 1526 757.888 1529.17 Q761.268 1532.34 761.268 1537.76 Q761.268 1543.34 757.796 1546.44 Q754.323 1549.52 748.004 1549.52 Q745.828 1549.52 743.56 1549.15 Q741.314 1548.78 738.907 1548.04 L738.907 1543.34 Q740.99 1544.47 743.212 1545.03 Q745.435 1545.58 747.911 1545.58 Q751.916 1545.58 754.254 1543.48 Q756.592 1541.37 756.592 1537.76 Q756.592 1534.15 754.254 1532.04 Q751.916 1529.94 747.911 1529.94 Q746.036 1529.94 744.161 1530.35 Q742.31 1530.77 740.365 1531.65 L740.365 1514.29 Z" fill="#000000" fill-rule="nonzero" fill-opacity="1" /><path clip-path="url(#clip330)" d="M780.481 1517.37 Q776.87 1517.37 775.041 1520.93 Q773.235 1524.47 773.235 1531.6 Q773.235 1538.71 775.041 1542.27 Q776.87 1545.82 780.481 1545.82 Q784.115 1545.82 785.92 1542.27 Q787.749 1538.71 787.749 1531.6 Q787.749 1524.47 785.92 1520.93 Q784.115 1517.37 780.481 1517.37 M780.481 1513.66 Q786.291 1513.66 789.346 1518.27 Q792.425 1522.85 792.425 1531.6 Q792.425 1540.33 789.346 1544.94 Q786.291 1549.52 780.481 1549.52 Q774.67 1549.52 771.592 1544.94 Q768.536 1540.33 768.536 1531.6 Q768.536 1522.85 771.592 1518.27 Q774.67 1513.66 780.481 1513.66 Z" fill="#000000" fill-rule="nonzero" fill-opacity="1" /><path clip-path="url(#clip330)" d="M810.643 1517.37 Q807.031 1517.37 805.203 1520.93 Q803.397 1524.47 803.397 1531.6 Q803.397 1538.71 805.203 1542.27 Q807.031 1545.82 810.643 1545.82 Q814.277 1545.82 816.082 1542.27 Q817.911 1538.71 817.911 1531.6 Q817.911 1524.47 816.082 1520.93 Q814.277 1517.37 810.643 1517.37 M810.643 1513.66 Q816.453 1513.66 819.508 1518.27 Q822.587 1522.85 822.587 1531.6 Q822.587 1540.33 819.508 1544.94 Q816.453 1549.52 810.643 1549.52 Q804.832 1549.52 801.754 1544.94 Q798.698 1540.33 798.698 1531.6 Q798.698 1522.85 801.754 1518.27 Q804.832 1513.66 810.643 1513.66 Z" fill="#000000" fill-rule="nonzero" fill-opacity="1" /><path clip-path="url(#clip330)" d="M1229.12 1544.91 L1236.76 1544.91 L1236.76 1518.55 L1228.45 1520.21 L1228.45 1515.95 L1236.71 1514.29 L1241.39 1514.29 L1241.39 1544.91 L1249.03 1544.91 L1249.03 1548.85 L1229.12 1548.85 L1229.12 1544.91 Z" fill="#000000" fill-rule="nonzero" fill-opacity="1" /><path clip-path="url(#clip330)" d="M1268.47 1517.37 Q1264.86 1517.37 1263.03 1520.93 Q1261.23 1524.47 1261.23 1531.6 Q1261.23 1538.71 1263.03 1542.27 Q1264.86 1545.82 1268.47 1545.82 Q1272.11 1545.82 1273.91 1542.27 Q1275.74 1538.71 1275.74 1531.6 Q1275.74 1524.47 1273.91 1520.93 Q1272.11 1517.37 1268.47 1517.37 M1268.47 1513.66 Q1274.28 1513.66 1277.34 1518.27 Q1280.42 1522.85 1280.42 1531.6 Q1280.42 1540.33 1277.34 1544.94 Q1274.28 1549.52 1268.47 1549.52 Q1262.66 1549.52 1259.58 1544.94 Q1256.53 1540.33 1256.53 1531.6 Q1256.53 1522.85 1259.58 1518.27 Q1262.66 1513.66 1268.47 1513.66 Z" fill="#000000" fill-rule="nonzero" fill-opacity="1" /><path clip-path="url(#clip330)" d="M1298.64 1517.37 Q1295.02 1517.37 1293.2 1520.93 Q1291.39 1524.47 1291.39 1531.6 Q1291.39 1538.71 1293.2 1542.27 Q1295.02 1545.82 1298.64 1545.82 Q1302.27 1545.82 1304.07 1542.27 Q1305.9 1538.71 1305.9 1531.6 Q1305.9 1524.47 1304.07 1520.93 Q1302.27 1517.37 1298.64 1517.37 M1298.64 1513.66 Q1304.45 1513.66 1307.5 1518.27 Q1310.58 1522.85 1310.58 1531.6 Q1310.58 1540.33 1307.5 1544.94 Q1304.45 1549.52 1298.64 1549.52 Q1292.83 1549.52 1289.75 1544.94 Q1286.69 1540.33 1286.69 1531.6 Q1286.69 1522.85 1289.75 1518.27 Q1292.83 1513.66 1298.64 1513.66 Z" fill="#000000" fill-rule="nonzero" fill-opacity="1" /><path clip-path="url(#clip330)" d="M1328.8 1517.37 Q1325.19 1517.37 1323.36 1520.93 Q1321.55 1524.47 1321.55 1531.6 Q1321.55 1538.71 1323.36 1542.27 Q1325.19 1545.82 1328.8 1545.82 Q1332.43 1545.82 1334.24 1542.27 Q1336.07 1538.71 1336.07 1531.6 Q1336.07 1524.47 1334.24 1520.93 Q1332.43 1517.37 1328.8 1517.37 M1328.8 1513.66 Q1334.61 1513.66 1337.66 1518.27 Q1340.74 1522.85 1340.74 1531.6 Q1340.74 1540.33 1337.66 1544.94 Q1334.61 1549.52 1328.8 1549.52 Q1322.99 1549.52 1319.91 1544.94 Q1316.85 1540.33 1316.85 1531.6 Q1316.85 1522.85 1319.91 1518.27 Q1322.99 1513.66 1328.8 1513.66 Z" fill="#000000" fill-rule="nonzero" fill-opacity="1" /><path clip-path="url(#clip330)" d="M1732.97 1544.91 L1740.61 1544.91 L1740.61 1518.55 L1732.3 1520.21 L1732.3 1515.95 L1740.56 1514.29 L1745.24 1514.29 L1745.24 1544.91 L1752.88 1544.91 L1752.88 1548.85 L1732.97 1548.85 L1732.97 1544.91 Z" fill="#000000" fill-rule="nonzero" fill-opacity="1" /><path clip-path="url(#clip330)" d="M1762.37 1514.29 L1780.73 1514.29 L1780.73 1518.22 L1766.65 1518.22 L1766.65 1526.7 Q1767.67 1526.35 1768.69 1526.19 Q1769.71 1526 1770.73 1526 Q1776.51 1526 1779.89 1529.17 Q1783.27 1532.34 1783.27 1537.76 Q1783.27 1543.34 1779.8 1546.44 Q1776.33 1549.52 1770.01 1549.52 Q1767.83 1549.52 1765.56 1549.15 Q1763.32 1548.78 1760.91 1548.04 L1760.91 1543.34 Q1762.99 1544.47 1765.22 1545.03 Q1767.44 1545.58 1769.91 1545.58 Q1773.92 1545.58 1776.26 1543.48 Q1778.6 1541.37 1778.6 1537.76 Q1778.6 1534.15 1776.26 1532.04 Q1773.92 1529.94 1769.91 1529.94 Q1768.04 1529.94 1766.16 1530.35 Q1764.31 1530.77 1762.37 1531.65 L1762.37 1514.29 Z" fill="#000000" fill-rule="nonzero" fill-opacity="1" /><path clip-path="url(#clip330)" d="M1802.48 1517.37 Q1798.87 1517.37 1797.04 1520.93 Q1795.24 1524.47 1795.24 1531.6 Q1795.24 1538.71 1797.04 1542.27 Q1798.87 1545.82 1802.48 1545.82 Q1806.12 1545.82 1807.92 1542.27 Q1809.75 1538.71 1809.75 1531.6 Q1809.75 1524.47 1807.92 1520.93 Q1806.12 1517.37 1802.48 1517.37 M1802.48 1513.66 Q1808.29 1513.66 1811.35 1518.27 Q1814.43 1522.85 1814.43 1531.6 Q1814.43 1540.33 1811.35 1544.94 Q1808.29 1549.52 1802.48 1549.52 Q1796.67 1549.52 1793.6 1544.94 Q1790.54 1540.33 1790.54 1531.6 Q1790.54 1522.85 1793.6 1518.27 Q1796.67 1513.66 1802.48 1513.66 Z" fill="#000000" fill-rule="nonzero" fill-opacity="1" /><path clip-path="url(#clip330)" d="M1832.65 1517.37 Q1829.04 1517.37 1827.21 1520.93 Q1825.4 1524.47 1825.4 1531.6 Q1825.4 1538.71 1827.21 1542.27 Q1829.04 1545.82 1832.65 1545.82 Q1836.28 1545.82 1838.09 1542.27 Q1839.91 1538.71 1839.91 1531.6 Q1839.91 1524.47 1838.09 1520.93 Q1836.28 1517.37 1832.65 1517.37 M1832.65 1513.66 Q1838.46 1513.66 1841.51 1518.27 Q1844.59 1522.85 1844.59 1531.6 Q1844.59 1540.33 1841.51 1544.94 Q1838.46 1549.52 1832.65 1549.52 Q1826.84 1549.52 1823.76 1544.94 Q1820.7 1540.33 1820.7 1531.6 Q1820.7 1522.85 1823.76 1518.27 Q1826.84 1513.66 1832.65 1513.66 Z" fill="#000000" fill-rule="nonzero" fill-opacity="1" /><path clip-path="url(#clip330)" d="M2240.91 1544.91 L2257.22 1544.91 L2257.22 1548.85 L2235.28 1548.85 L2235.28 1544.91 Q2237.94 1542.16 2242.53 1537.53 Q2247.13 1532.88 2248.31 1531.53 Q2250.56 1529.01 2251.44 1527.27 Q2252.34 1525.51 2252.34 1523.82 Q2252.34 1521.07 2250.4 1519.33 Q2248.47 1517.6 2245.37 1517.6 Q2243.17 1517.6 2240.72 1518.36 Q2238.29 1519.13 2235.51 1520.68 L2235.51 1515.95 Q2238.34 1514.82 2240.79 1514.24 Q2243.24 1513.66 2245.28 1513.66 Q2250.65 1513.66 2253.85 1516.35 Q2257.04 1519.03 2257.04 1523.52 Q2257.04 1525.65 2256.23 1527.57 Q2255.44 1529.47 2253.34 1532.07 Q2252.76 1532.74 2249.66 1535.95 Q2246.55 1539.15 2240.91 1544.91 Z" fill="#000000" fill-rule="nonzero" fill-opacity="1" /><path clip-path="url(#clip330)" d="M2277.04 1517.37 Q2273.43 1517.37 2271.6 1520.93 Q2269.79 1524.47 2269.79 1531.6 Q2269.79 1538.71 2271.6 1542.27 Q2273.43 1545.82 2277.04 1545.82 Q2280.67 1545.82 2282.48 1542.27 Q2284.31 1538.71 2284.31 1531.6 Q2284.31 1524.47 2282.48 1520.93 Q2280.67 1517.37 2277.04 1517.37 M2277.04 1513.66 Q2282.85 1513.66 2285.91 1518.27 Q2288.98 1522.85 2288.98 1531.6 Q2288.98 1540.33 2285.91 1544.94 Q2282.85 1549.52 2277.04 1549.52 Q2271.23 1549.52 2268.15 1544.94 Q2265.1 1540.33 2265.1 1531.6 Q2265.1 1522.85 2268.15 1518.27 Q2271.23 1513.66 2277.04 1513.66 Z" fill="#000000" fill-rule="nonzero" fill-opacity="1" /><path clip-path="url(#clip330)" d="M2307.2 1517.37 Q2303.59 1517.37 2301.76 1520.93 Q2299.96 1524.47 2299.96 1531.6 Q2299.96 1538.71 2301.76 1542.27 Q2303.59 1545.82 2307.2 1545.82 Q2310.84 1545.82 2312.64 1542.27 Q2314.47 1538.71 2314.47 1531.6 Q2314.47 1524.47 2312.64 1520.93 Q2310.84 1517.37 2307.2 1517.37 M2307.2 1513.66 Q2313.01 1513.66 2316.07 1518.27 Q2319.15 1522.85 2319.15 1531.6 Q2319.15 1540.33 2316.07 1544.94 Q2313.01 1549.52 2307.2 1549.52 Q2301.39 1549.52 2298.31 1544.94 Q2295.26 1540.33 2295.26 1531.6 Q2295.26 1522.85 2298.31 1518.27 Q2301.39 1513.66 2307.2 1513.66 Z" fill="#000000" fill-rule="nonzero" fill-opacity="1" /><path clip-path="url(#clip330)" d="M2337.36 1517.37 Q2333.75 1517.37 2331.92 1520.93 Q2330.12 1524.47 2330.12 1531.6 Q2330.12 1538.71 2331.92 1542.27 Q2333.75 1545.82 2337.36 1545.82 Q2341 1545.82 2342.8 1542.27 Q2344.63 1538.71 2344.63 1531.6 Q2344.63 1524.47 2342.8 1520.93 Q2341 1517.37 2337.36 1517.37 M2337.36 1513.66 Q2343.17 1513.66 2346.23 1518.27 Q2349.31 1522.85 2349.31 1531.6 Q2349.31 1540.33 2346.23 1544.94 Q2343.17 1549.52 2337.36 1549.52 Q2331.55 1549.52 2328.47 1544.94 Q2325.42 1540.33 2325.42 1531.6 Q2325.42 1522.85 2328.47 1518.27 Q2331.55 1513.66 2337.36 1513.66 Z" fill="#000000" fill-rule="nonzero" fill-opacity="1" /><polyline clip-path="url(#clip332)" style="stroke:#000000; stroke-linecap:round; stroke-linejoin:round; stroke-width:2; stroke-opacity:0.1; fill:none" points="216.436,1386.47 2352.76,1386.47 "/>
<polyline clip-path="url(#clip332)" style="stroke:#000000; stroke-linecap:round; stroke-linejoin:round; stroke-width:2; stroke-opacity:0.1; fill:none" points="216.436,1083.07 2352.76,1083.07 "/>
<polyline clip-path="url(#clip332)" style="stroke:#000000; stroke-linecap:round; stroke-linejoin:round; stroke-width:2; stroke-opacity:0.1; fill:none" points="216.436,779.675 2352.76,779.675 "/>
<polyline clip-path="url(#clip332)" style="stroke:#000000; stroke-linecap:round; stroke-linejoin:round; stroke-width:2; stroke-opacity:0.1; fill:none" points="216.436,476.278 2352.76,476.278 "/>
<polyline clip-path="url(#clip332)" style="stroke:#000000; stroke-linecap:round; stroke-linejoin:round; stroke-width:2; stroke-opacity:0.1; fill:none" points="216.436,172.882 2352.76,172.882 "/>
<polyline clip-path="url(#clip330)" style="stroke:#000000; stroke-linecap:round; stroke-linejoin:round; stroke-width:4; stroke-opacity:1; fill:none" points="216.436,1486.45 216.436,47.2441 "/>
<polyline clip-path="url(#clip330)" style="stroke:#000000; stroke-linecap:round; stroke-linejoin:round; stroke-width:4; stroke-opacity:1; fill:none" points="216.436,1386.47 235.334,1386.47 "/>
<polyline clip-path="url(#clip330)" style="stroke:#000000; stroke-linecap:round; stroke-linejoin:round; stroke-width:4; stroke-opacity:1; fill:none" points="216.436,1083.07 235.334,1083.07 "/>
<polyline clip-path="url(#clip330)" style="stroke:#000000; stroke-linecap:round; stroke-linejoin:round; stroke-width:4; stroke-opacity:1; fill:none" points="216.436,779.675 235.334,779.675 "/>
<polyline clip-path="url(#clip330)" style="stroke:#000000; stroke-linecap:round; stroke-linejoin:round; stroke-width:4; stroke-opacity:1; fill:none" points="216.436,476.278 235.334,476.278 "/>
<polyline clip-path="url(#clip330)" style="stroke:#000000; stroke-linecap:round; stroke-linejoin:round; stroke-width:4; stroke-opacity:1; fill:none" points="216.436,172.882 235.334,172.882 "/>
<path clip-path="url(#clip330)" d="M62.9365 1372.27 Q59.3254 1372.27 57.4967 1375.83 Q55.6912 1379.37 55.6912 1386.5 Q55.6912 1393.61 57.4967 1397.17 Q59.3254 1400.71 62.9365 1400.71 Q66.5707 1400.71 68.3763 1397.17 Q70.205 1393.61 70.205 1386.5 Q70.205 1379.37 68.3763 1375.83 Q66.5707 1372.27 62.9365 1372.27 M62.9365 1368.56 Q68.7467 1368.56 71.8022 1373.17 Q74.8809 1377.75 74.8809 1386.5 Q74.8809 1395.23 71.8022 1399.84 Q68.7467 1404.42 62.9365 1404.42 Q57.1264 1404.42 54.0477 1399.84 Q50.9921 1395.23 50.9921 1386.5 Q50.9921 1377.75 54.0477 1373.17 Q57.1264 1368.56 62.9365 1368.56 Z" fill="#000000" fill-rule="nonzero" fill-opacity="1" /><path clip-path="url(#clip330)" d="M83.0984 1397.87 L87.9827 1397.87 L87.9827 1403.75 L83.0984 1403.75 L83.0984 1397.87 Z" fill="#000000" fill-rule="nonzero" fill-opacity="1" /><path clip-path="url(#clip330)" d="M98.978 1399.81 L106.617 1399.81 L106.617 1373.45 L98.3067 1375.11 L98.3067 1370.85 L106.571 1369.19 L111.246 1369.19 L111.246 1399.81 L118.885 1399.81 L118.885 1403.75 L98.978 1403.75 L98.978 1399.81 Z" fill="#000000" fill-rule="nonzero" fill-opacity="1" /><path clip-path="url(#clip330)" d="M128.376 1369.19 L146.732 1369.19 L146.732 1373.12 L132.658 1373.12 L132.658 1381.59 Q133.677 1381.25 134.695 1381.09 Q135.714 1380.9 136.732 1380.9 Q142.519 1380.9 145.899 1384.07 Q149.279 1387.24 149.279 1392.66 Q149.279 1398.24 145.806 1401.34 Q142.334 1404.42 136.015 1404.42 Q133.839 1404.42 131.57 1404.05 Q129.325 1403.68 126.918 1402.94 L126.918 1398.24 Q129.001 1399.37 131.223 1399.93 Q133.445 1400.48 135.922 1400.48 Q139.927 1400.48 142.265 1398.38 Q144.603 1396.27 144.603 1392.66 Q144.603 1389.05 142.265 1386.94 Q139.927 1384.84 135.922 1384.84 Q134.047 1384.84 132.172 1385.25 Q130.32 1385.67 128.376 1386.55 L128.376 1369.19 Z" fill="#000000" fill-rule="nonzero" fill-opacity="1" /><path clip-path="url(#clip330)" d="M168.491 1372.27 Q164.88 1372.27 163.052 1375.83 Q161.246 1379.37 161.246 1386.5 Q161.246 1393.61 163.052 1397.17 Q164.88 1400.71 168.491 1400.71 Q172.126 1400.71 173.931 1397.17 Q175.76 1393.61 175.76 1386.5 Q175.76 1379.37 173.931 1375.83 Q172.126 1372.27 168.491 1372.27 M168.491 1368.56 Q174.302 1368.56 177.357 1373.17 Q180.436 1377.75 180.436 1386.5 Q180.436 1395.23 177.357 1399.84 Q174.302 1404.42 168.491 1404.42 Q162.681 1404.42 159.603 1399.84 Q156.547 1395.23 156.547 1386.5 Q156.547 1377.75 159.603 1373.17 Q162.681 1368.56 168.491 1368.56 Z" fill="#000000" fill-rule="nonzero" fill-opacity="1" /><path clip-path="url(#clip330)" d="M63.9319 1068.87 Q60.3208 1068.87 58.4921 1072.43 Q56.6865 1075.98 56.6865 1083.11 Q56.6865 1090.21 58.4921 1093.78 Q60.3208 1097.32 63.9319 1097.32 Q67.5661 1097.32 69.3717 1093.78 Q71.2004 1090.21 71.2004 1083.11 Q71.2004 1075.98 69.3717 1072.43 Q67.5661 1068.87 63.9319 1068.87 M63.9319 1065.17 Q69.742 1065.17 72.7976 1069.77 Q75.8763 1074.36 75.8763 1083.11 Q75.8763 1091.83 72.7976 1096.44 Q69.742 1101.02 63.9319 1101.02 Q58.1217 1101.02 55.043 1096.44 Q51.9875 1091.83 51.9875 1083.11 Q51.9875 1074.36 55.043 1069.77 Q58.1217 1065.17 63.9319 1065.17 Z" fill="#000000" fill-rule="nonzero" fill-opacity="1" /><path clip-path="url(#clip330)" d="M84.0938 1094.47 L88.978 1094.47 L88.978 1100.35 L84.0938 1100.35 L84.0938 1094.47 Z" fill="#000000" fill-rule="nonzero" fill-opacity="1" /><path clip-path="url(#clip330)" d="M99.9733 1096.42 L107.612 1096.42 L107.612 1070.05 L99.3021 1071.72 L99.3021 1067.46 L107.566 1065.79 L112.242 1065.79 L112.242 1096.42 L119.881 1096.42 L119.881 1100.35 L99.9733 1100.35 L99.9733 1096.42 Z" fill="#000000" fill-rule="nonzero" fill-opacity="1" /><path clip-path="url(#clip330)" d="M128.144 1065.79 L150.367 1065.79 L150.367 1067.78 L137.82 1100.35 L132.936 1100.35 L144.742 1069.73 L128.144 1069.73 L128.144 1065.79 Z" fill="#000000" fill-rule="nonzero" fill-opacity="1" /><path clip-path="url(#clip330)" d="M159.533 1065.79 L177.89 1065.79 L177.89 1069.73 L163.816 1069.73 L163.816 1078.2 Q164.834 1077.85 165.853 1077.69 Q166.871 1077.5 167.89 1077.5 Q173.677 1077.5 177.056 1080.68 Q180.436 1083.85 180.436 1089.26 Q180.436 1094.84 176.964 1097.94 Q173.491 1101.02 167.172 1101.02 Q164.996 1101.02 162.728 1100.65 Q160.482 1100.28 158.075 1099.54 L158.075 1094.84 Q160.158 1095.98 162.38 1096.53 Q164.603 1097.09 167.079 1097.09 Q171.084 1097.09 173.422 1094.98 Q175.76 1092.87 175.76 1089.26 Q175.76 1085.65 173.422 1083.55 Q171.084 1081.44 167.079 1081.44 Q165.204 1081.44 163.329 1081.86 Q161.478 1082.27 159.533 1083.15 L159.533 1065.79 Z" fill="#000000" fill-rule="nonzero" fill-opacity="1" /><path clip-path="url(#clip330)" d="M62.9365 765.473 Q59.3254 765.473 57.4967 769.038 Q55.6912 772.58 55.6912 779.709 Q55.6912 786.816 57.4967 790.381 Q59.3254 793.922 62.9365 793.922 Q66.5707 793.922 68.3763 790.381 Q70.205 786.816 70.205 779.709 Q70.205 772.58 68.3763 769.038 Q66.5707 765.473 62.9365 765.473 M62.9365 761.77 Q68.7467 761.77 71.8022 766.376 Q74.8809 770.959 74.8809 779.709 Q74.8809 788.436 71.8022 793.043 Q68.7467 797.626 62.9365 797.626 Q57.1264 797.626 54.0477 793.043 Q50.9921 788.436 50.9921 779.709 Q50.9921 770.959 54.0477 766.376 Q57.1264 761.77 62.9365 761.77 Z" fill="#000000" fill-rule="nonzero" fill-opacity="1" /><path clip-path="url(#clip330)" d="M83.0984 791.075 L87.9827 791.075 L87.9827 796.955 L83.0984 796.955 L83.0984 791.075 Z" fill="#000000" fill-rule="nonzero" fill-opacity="1" /><path clip-path="url(#clip330)" d="M102.196 793.02 L118.515 793.02 L118.515 796.955 L96.5706 796.955 L96.5706 793.02 Q99.2326 790.265 103.816 785.635 Q108.422 780.983 109.603 779.64 Q111.848 777.117 112.728 775.381 Q113.631 773.621 113.631 771.932 Q113.631 769.177 111.686 767.441 Q109.765 765.705 106.663 765.705 Q104.464 765.705 102.01 766.469 Q99.5798 767.233 96.8021 768.784 L96.8021 764.061 Q99.6261 762.927 102.08 762.348 Q104.534 761.77 106.571 761.77 Q111.941 761.77 115.135 764.455 Q118.33 767.14 118.33 771.631 Q118.33 773.76 117.52 775.682 Q116.733 777.58 114.626 780.172 Q114.047 780.844 110.946 784.061 Q107.844 787.256 102.196 793.02 Z" fill="#000000" fill-rule="nonzero" fill-opacity="1" /><path clip-path="url(#clip330)" d="M138.33 765.473 Q134.719 765.473 132.89 769.038 Q131.084 772.58 131.084 779.709 Q131.084 786.816 132.89 790.381 Q134.719 793.922 138.33 793.922 Q141.964 793.922 143.769 790.381 Q145.598 786.816 145.598 779.709 Q145.598 772.58 143.769 769.038 Q141.964 765.473 138.33 765.473 M138.33 761.77 Q144.14 761.77 147.195 766.376 Q150.274 770.959 150.274 779.709 Q150.274 788.436 147.195 793.043 Q144.14 797.626 138.33 797.626 Q132.519 797.626 129.441 793.043 Q126.385 788.436 126.385 779.709 Q126.385 770.959 129.441 766.376 Q132.519 761.77 138.33 761.77 Z" fill="#000000" fill-rule="nonzero" fill-opacity="1" /><path clip-path="url(#clip330)" d="M168.491 765.473 Q164.88 765.473 163.052 769.038 Q161.246 772.58 161.246 779.709 Q161.246 786.816 163.052 790.381 Q164.88 793.922 168.491 793.922 Q172.126 793.922 173.931 790.381 Q175.76 786.816 175.76 779.709 Q175.76 772.58 173.931 769.038 Q172.126 765.473 168.491 765.473 M168.491 761.77 Q174.302 761.77 177.357 766.376 Q180.436 770.959 180.436 779.709 Q180.436 788.436 177.357 793.043 Q174.302 797.626 168.491 797.626 Q162.681 797.626 159.603 793.043 Q156.547 788.436 156.547 779.709 Q156.547 770.959 159.603 766.376 Q162.681 761.77 168.491 761.77 Z" fill="#000000" fill-rule="nonzero" fill-opacity="1" /><path clip-path="url(#clip330)" d="M63.9319 462.077 Q60.3208 462.077 58.4921 465.642 Q56.6865 469.184 56.6865 476.313 Q56.6865 483.42 58.4921 486.984 Q60.3208 490.526 63.9319 490.526 Q67.5661 490.526 69.3717 486.984 Q71.2004 483.42 71.2004 476.313 Q71.2004 469.184 69.3717 465.642 Q67.5661 462.077 63.9319 462.077 M63.9319 458.373 Q69.742 458.373 72.7976 462.98 Q75.8763 467.563 75.8763 476.313 Q75.8763 485.04 72.7976 489.646 Q69.742 494.23 63.9319 494.23 Q58.1217 494.23 55.043 489.646 Q51.9875 485.04 51.9875 476.313 Q51.9875 467.563 55.043 462.98 Q58.1217 458.373 63.9319 458.373 Z" fill="#000000" fill-rule="nonzero" fill-opacity="1" /><path clip-path="url(#clip330)" d="M84.0938 487.679 L88.978 487.679 L88.978 493.558 L84.0938 493.558 L84.0938 487.679 Z" fill="#000000" fill-rule="nonzero" fill-opacity="1" /><path clip-path="url(#clip330)" d="M103.191 489.623 L119.51 489.623 L119.51 493.558 L97.566 493.558 L97.566 489.623 Q100.228 486.869 104.811 482.239 Q109.418 477.586 110.598 476.244 Q112.844 473.721 113.723 471.984 Q114.626 470.225 114.626 468.535 Q114.626 465.781 112.682 464.045 Q110.76 462.309 107.658 462.309 Q105.459 462.309 103.006 463.072 Q100.575 463.836 97.7974 465.387 L97.7974 460.665 Q100.621 459.531 103.075 458.952 Q105.529 458.373 107.566 458.373 Q112.936 458.373 116.131 461.059 Q119.325 463.744 119.325 468.234 Q119.325 470.364 118.515 472.285 Q117.728 474.183 115.621 476.776 Q115.043 477.447 111.941 480.665 Q108.839 483.859 103.191 489.623 Z" fill="#000000" fill-rule="nonzero" fill-opacity="1" /><path clip-path="url(#clip330)" d="M133.353 489.623 L149.672 489.623 L149.672 493.558 L127.728 493.558 L127.728 489.623 Q130.39 486.869 134.973 482.239 Q139.58 477.586 140.76 476.244 Q143.006 473.721 143.885 471.984 Q144.788 470.225 144.788 468.535 Q144.788 465.781 142.843 464.045 Q140.922 462.309 137.82 462.309 Q135.621 462.309 133.168 463.072 Q130.737 463.836 127.959 465.387 L127.959 460.665 Q130.783 459.531 133.237 458.952 Q135.691 458.373 137.728 458.373 Q143.098 458.373 146.293 461.059 Q149.487 463.744 149.487 468.234 Q149.487 470.364 148.677 472.285 Q147.89 474.183 145.783 476.776 Q145.205 477.447 142.103 480.665 Q139.001 483.859 133.353 489.623 Z" fill="#000000" fill-rule="nonzero" fill-opacity="1" /><path clip-path="url(#clip330)" d="M159.533 458.998 L177.89 458.998 L177.89 462.934 L163.816 462.934 L163.816 471.406 Q164.834 471.058 165.853 470.896 Q166.871 470.711 167.89 470.711 Q173.677 470.711 177.056 473.883 Q180.436 477.054 180.436 482.47 Q180.436 488.049 176.964 491.151 Q173.491 494.23 167.172 494.23 Q164.996 494.23 162.728 493.859 Q160.482 493.489 158.075 492.748 L158.075 488.049 Q160.158 489.183 162.38 489.739 Q164.603 490.295 167.079 490.295 Q171.084 490.295 173.422 488.188 Q175.76 486.082 175.76 482.47 Q175.76 478.859 173.422 476.753 Q171.084 474.646 167.079 474.646 Q165.204 474.646 163.329 475.063 Q161.478 475.48 159.533 476.359 L159.533 458.998 Z" fill="#000000" fill-rule="nonzero" fill-opacity="1" /><path clip-path="url(#clip330)" d="M62.9365 158.681 Q59.3254 158.681 57.4967 162.246 Q55.6912 165.787 55.6912 172.917 Q55.6912 180.023 57.4967 183.588 Q59.3254 187.13 62.9365 187.13 Q66.5707 187.13 68.3763 183.588 Q70.205 180.023 70.205 172.917 Q70.205 165.787 68.3763 162.246 Q66.5707 158.681 62.9365 158.681 M62.9365 154.977 Q68.7467 154.977 71.8022 159.584 Q74.8809 164.167 74.8809 172.917 Q74.8809 181.644 71.8022 186.25 Q68.7467 190.833 62.9365 190.833 Q57.1264 190.833 54.0477 186.25 Q50.9921 181.644 50.9921 172.917 Q50.9921 164.167 54.0477 159.584 Q57.1264 154.977 62.9365 154.977 Z" fill="#000000" fill-rule="nonzero" fill-opacity="1" /><path clip-path="url(#clip330)" d="M83.0984 184.282 L87.9827 184.282 L87.9827 190.162 L83.0984 190.162 L83.0984 184.282 Z" fill="#000000" fill-rule="nonzero" fill-opacity="1" /><path clip-path="url(#clip330)" d="M102.196 186.227 L118.515 186.227 L118.515 190.162 L96.5706 190.162 L96.5706 186.227 Q99.2326 183.472 103.816 178.843 Q108.422 174.19 109.603 172.847 Q111.848 170.324 112.728 168.588 Q113.631 166.829 113.631 165.139 Q113.631 162.384 111.686 160.648 Q109.765 158.912 106.663 158.912 Q104.464 158.912 102.01 159.676 Q99.5798 160.44 96.8021 161.991 L96.8021 157.269 Q99.6261 156.134 102.08 155.556 Q104.534 154.977 106.571 154.977 Q111.941 154.977 115.135 157.662 Q118.33 160.347 118.33 164.838 Q118.33 166.968 117.52 168.889 Q116.733 170.787 114.626 173.38 Q114.047 174.051 110.946 177.269 Q107.844 180.463 102.196 186.227 Z" fill="#000000" fill-rule="nonzero" fill-opacity="1" /><path clip-path="url(#clip330)" d="M128.376 155.602 L146.732 155.602 L146.732 159.537 L132.658 159.537 L132.658 168.009 Q133.677 167.662 134.695 167.5 Q135.714 167.315 136.732 167.315 Q142.519 167.315 145.899 170.486 Q149.279 173.658 149.279 179.074 Q149.279 184.653 145.806 187.755 Q142.334 190.833 136.015 190.833 Q133.839 190.833 131.57 190.463 Q129.325 190.093 126.918 189.352 L126.918 184.653 Q129.001 185.787 131.223 186.343 Q133.445 186.898 135.922 186.898 Q139.927 186.898 142.265 184.792 Q144.603 182.685 144.603 179.074 Q144.603 175.463 142.265 173.357 Q139.927 171.25 135.922 171.25 Q134.047 171.25 132.172 171.667 Q130.32 172.083 128.376 172.963 L128.376 155.602 Z" fill="#000000" fill-rule="nonzero" fill-opacity="1" /><path clip-path="url(#clip330)" d="M168.491 158.681 Q164.88 158.681 163.052 162.246 Q161.246 165.787 161.246 172.917 Q161.246 180.023 163.052 183.588 Q164.88 187.13 168.491 187.13 Q172.126 187.13 173.931 183.588 Q175.76 180.023 175.76 172.917 Q175.76 165.787 173.931 162.246 Q172.126 158.681 168.491 158.681 M168.491 154.977 Q174.302 154.977 177.357 159.584 Q180.436 164.167 180.436 172.917 Q180.436 181.644 177.357 186.25 Q174.302 190.833 168.491 190.833 Q162.681 190.833 159.603 186.25 Q156.547 181.644 156.547 172.917 Q156.547 164.167 159.603 159.584 Q162.681 154.977 168.491 154.977 Z" fill="#000000" fill-rule="nonzero" fill-opacity="1" /><polyline clip-path="url(#clip332)" style="stroke:#009af9; stroke-linecap:round; stroke-linejoin:round; stroke-width:4; stroke-opacity:1; fill:none" points="276.898,87.9763 277.905,88.6652 278.913,89.3543 279.921,90.0434 280.929,90.7326 281.936,91.4219 282.944,92.1112 283.952,92.8007 284.959,93.4902 285.967,94.1798 286.975,94.8695 287.982,95.5593 288.99,96.2492 289.998,96.9391 291.006,97.6292 292.013,98.3193 293.021,99.0095 294.029,99.6997 295.036,100.39 296.044,101.081 297.052,101.771 298.059,102.462 299.067,103.152 300.075,103.843 301.083,104.534 302.09,105.225 303.098,105.916 304.106,106.607 305.113,107.298 306.121,107.989 307.129,108.681 308.136,109.372 309.144,110.064 310.152,110.755 311.16,111.447 312.167,112.139 313.175,112.83 314.183,113.522 315.19,114.214 316.198,114.906 317.206,115.598 318.213,116.291 319.221,116.983 320.229,117.675 321.236,118.368 322.244,119.06 323.252,119.753 324.26,120.445 325.267,121.138 326.275,121.831 327.283,122.524 328.29,123.217 329.298,123.91 330.306,124.603 331.313,125.296 332.321,125.99 333.329,126.683 334.337,127.376 335.344,128.07 336.352,128.764 337.36,129.457 338.367,130.151 339.375,130.845 340.383,131.539 341.39,132.233 342.398,132.927 343.406,133.621 344.414,134.315 345.421,135.009 346.429,135.704 347.437,136.398 348.444,137.093 349.452,137.787 350.46,138.482 351.467,139.177 352.475,139.871 353.483,140.566 354.491,141.261 355.498,141.956 356.506,142.651 357.514,143.347 358.521,144.042 359.529,144.737 360.537,145.433 361.544,146.128 362.552,146.824 363.56,147.519 364.568,148.215 365.575,148.911 366.583,149.607 367.591,150.303 368.598,150.999 369.606,151.695 370.614,152.391 371.621,153.087 372.629,153.783 373.637,154.48 374.644,155.176 375.652,155.872 376.66,156.569 377.668,157.266 378.675,157.962 379.683,158.659 380.691,159.356 381.698,160.053 382.706,160.75 383.714,161.447 384.721,162.144 385.729,162.841 386.737,163.539 387.745,164.236 388.752,164.933 389.76,165.631 390.768,166.328 391.775,167.026 392.783,167.724 393.791,168.421 394.798,169.119 395.806,169.817 396.814,170.515 397.822,171.213 398.829,171.911 399.837,172.609 400.845,173.308 401.852,174.006 402.86,174.704 403.868,175.403 404.875,176.101 405.883,176.8 406.891,177.499 407.899,178.197 408.906,178.896 409.914,179.595 410.922,180.294 411.929,180.993 412.937,181.692 413.945,182.391 414.952,183.09 415.96,183.789 416.968,184.489 417.976,185.188 418.983,185.888 419.991,186.587 420.999,187.287 422.006,187.986 423.014,188.686 424.022,189.386 425.029,190.086 426.037,190.786 427.045,191.486 428.052,192.186 429.06,192.886 430.068,193.586 431.076,194.286 432.083,194.987 433.091,195.687 434.099,196.387 435.106,197.088 436.114,197.788 437.122,198.489 438.129,199.19 439.137,199.89 440.145,200.591 441.153,201.292 442.16,201.993 443.168,202.694 444.176,203.395 445.183,204.096 446.191,204.798 447.199,205.499 448.206,206.2 449.214,206.901 450.222,207.603 451.23,208.304 452.237,209.006 453.245,209.708 454.253,210.409 455.26,211.111 456.268,211.813 457.276,212.515 458.283,213.217 459.291,213.919 460.299,214.621 461.307,215.323 462.314,216.025 463.322,216.727 464.33,217.43 465.337,218.132 466.345,218.834 467.353,219.537 468.36,220.239 469.368,220.942 470.376,221.645 471.384,222.347 472.391,223.05 473.399,223.753 474.407,224.456 475.414,225.159 476.422,225.862 477.43,226.565 478.437,227.268 479.445,227.971 480.453,228.674 481.46,229.378 482.468,230.081 483.476,230.784 484.484,231.488 485.491,232.191 486.499,232.895 487.507,233.599 488.514,234.302 489.522,235.006 490.53,235.71 491.537,236.414 492.545,237.118 493.553,237.822 494.561,238.526 495.568,239.23 496.576,239.934 497.584,240.638 498.591,241.343 499.599,242.047 500.607,242.751 501.614,243.456 502.622,244.16 503.63,244.865 504.638,245.569 505.645,246.274 506.653,246.979 507.661,247.683 508.668,248.388 509.676,249.093 510.684,249.798 511.691,250.503 512.699,251.208 513.707,251.913 514.715,252.618 515.722,253.323 516.73,254.029 517.738,254.734 518.745,255.439 519.753,256.145 520.761,256.85 521.768,257.556 522.776,258.261 523.784,258.967 524.792,259.672 525.799,260.378 526.807,261.084 527.815,261.79 528.822,262.496 529.83,263.202 530.838,263.908 531.845,264.614 532.853,265.32 533.861,266.026 534.868,266.732 535.876,267.438 536.884,268.144 537.892,268.851 538.899,269.557 539.907,270.264 540.915,270.97 541.922,271.677 542.93,272.383 543.938,273.09 544.945,273.796 545.953,274.503 546.961,275.21 547.969,275.917 548.976,276.624 549.984,277.33 550.992,278.037 551.999,278.744 553.007,279.452 554.015,280.159 555.022,280.866 556.03,281.573 557.038,282.28 558.046,282.988 559.053,283.695 560.061,284.402 561.069,285.11 562.076,285.817 563.084,286.525 564.092,287.232 565.099,287.94 566.107,288.648 567.115,289.355 568.123,290.063 569.13,290.771 570.138,291.479 571.146,292.187 572.153,292.895 573.161,293.603 574.169,294.311 575.176,295.019 576.184,295.727 577.192,296.435 578.2,297.143 579.207,297.852 580.215,298.56 581.223,299.268 582.23,299.977 583.238,300.685 584.246,301.394 585.253,302.102 586.261,302.811 587.269,303.519 588.276,304.228 589.284,304.937 590.292,305.645 591.3,306.354 592.307,307.063 593.315,307.772 594.323,308.481 595.33,309.19 596.338,309.899 597.346,310.608 598.353,311.317 599.361,312.026 600.369,312.735 601.377,313.444 602.384,314.154 603.392,314.863 604.4,315.572 605.407,316.282 606.415,316.991 607.423,317.7 608.43,318.41 609.438,319.119 610.446,319.829 611.454,320.539 612.461,321.248 613.469,321.958 614.477,322.668 615.484,323.377 616.492,324.087 617.5,324.797 618.507,325.507 619.515,326.217 620.523,326.927 621.531,327.637 622.538,328.347 623.546,329.057 624.554,329.767 625.561,330.477 626.569,331.187 627.577,331.898 628.584,332.608 629.592,333.318 630.6,334.029 631.608,334.739 632.615,335.449 633.623,336.16 634.631,336.87 635.638,337.581 636.646,338.291 637.654,339.002 638.661,339.713 639.669,340.423 640.677,341.134 641.684,341.845 642.692,342.555 643.7,343.266 644.708,343.977 645.715,344.688 646.723,345.399 647.731,346.11 648.738,346.821 649.746,347.532 650.754,348.243 651.761,348.954 652.769,349.665 653.777,350.376 654.785,351.087 655.792,351.799 656.8,352.51 657.808,353.221 658.815,353.933 659.823,354.644 660.831,355.355 661.838,356.067 662.846,356.778 663.854,357.49 664.862,358.201 665.869,358.913 666.877,359.624 667.885,360.336 668.892,361.048 669.9,361.759 670.908,362.471 671.915,363.183 672.923,363.894 673.931,364.606 674.939,365.318 675.946,366.03 676.954,366.742 677.962,367.454 678.969,368.166 679.977,368.878 680.985,369.59 681.992,370.302 683,371.014 684.008,371.726 685.016,372.438 686.023,373.15 687.031,373.862 688.039,374.575 689.046,375.287 690.054,375.999 691.062,376.711 692.069,377.424 693.077,378.136 694.085,378.848 695.092,379.561 696.1,380.273 697.108,380.986 698.116,381.698 699.123,382.411 700.131,383.123 701.139,383.836 702.146,384.548 703.154,385.261 704.162,385.974 705.169,386.686 706.177,387.399 707.185,388.112 708.193,388.825 709.2,389.537 710.208,390.25 711.216,390.963 712.223,391.676 713.231,392.389 714.239,393.102 715.246,393.815 716.254,394.528 717.262,395.241 718.27,395.954 719.277,396.667 720.285,397.38 721.293,398.093 722.3,398.806 723.308,399.519 724.316,400.232 725.323,400.945 726.331,401.659 727.339,402.372 728.347,403.085 729.354,403.798 730.362,404.512 731.37,405.225 732.377,405.938 733.385,406.652 734.393,407.365 735.4,408.078 736.408,408.792 737.416,409.505 738.424,410.219 739.431,410.932 740.439,411.646 741.447,412.359 742.454,413.073 743.462,413.786 744.47,414.5 745.477,415.213 746.485,415.927 747.493,416.641 748.5,417.354 749.508,418.068 750.516,418.782 751.524,419.496 752.531,420.209 753.539,420.923 754.547,421.637 755.554,422.351 756.562,423.064 757.57,423.778 758.577,424.492 759.585,425.206 760.593,425.92 761.601,426.634 762.608,427.348 763.616,428.062 764.624,428.776 765.631,429.49 766.639,430.204 767.647,430.918 768.654,431.632 769.662,432.346 770.67,433.06 771.678,433.774 772.685,434.488 773.693,435.202 774.701,435.916 775.708,436.63 776.716,437.345 777.724,438.059 778.731,438.773 779.739,439.487 780.747,440.201 781.755,440.916 782.762,441.63 783.77,442.344 784.778,443.058 785.785,443.773 786.793,444.487 787.801,445.201 788.808,445.916 789.816,446.63 790.824,447.344 791.832,448.059 792.839,448.773 793.847,449.488 794.855,450.202 795.862,450.916 796.87,451.631 797.878,452.345 798.885,453.06 799.893,453.774 800.901,454.489 801.908,455.203 802.916,455.918 803.924,456.632 804.932,457.347 805.939,458.061 806.947,458.776 807.955,459.49 808.962,460.205 809.97,460.92 810.978,461.634 811.985,462.349 812.993,463.063 814.001,463.778 815.009,464.493 816.016,465.207 817.024,465.922 818.032,466.637 819.039,467.351 820.047,468.066 821.055,468.781 822.062,469.495 823.07,470.21 824.078,470.925 825.086,471.64 826.093,472.354 827.101,473.069 828.109,473.784 829.116,474.499 830.124,475.213 831.132,475.928 832.139,476.643 833.147,477.358 834.155,478.073 835.163,478.787 836.17,479.502 837.178,480.217 838.186,480.932 839.193,481.647 840.201,482.361 841.209,483.076 842.216,483.791 843.224,484.506 844.232,485.221 845.24,485.936 846.247,486.651 847.255,487.365 848.263,488.08 849.27,488.795 850.278,489.51 851.286,490.225 852.293,490.94 853.301,491.655 854.309,492.37 855.316,493.085 856.324,493.799 857.332,494.514 858.34,495.229 859.347,495.944 860.355,496.659 861.363,497.374 862.37,498.089 863.378,498.804 864.386,499.519 865.393,500.234 866.401,500.949 867.409,501.664 868.417,502.379 869.424,503.094 870.432,503.809 871.44,504.523 872.447,505.238 873.455,505.953 874.463,506.668 875.47,507.383 876.478,508.098 877.486,508.813 878.494,509.528 879.501,510.243 880.509,510.958 881.517,511.673 882.524,512.388 883.532,513.103 884.54,513.818 885.547,514.533 886.555,515.248 887.563,515.963 888.571,516.678 889.578,517.392 890.586,518.107 891.594,518.822 892.601,519.537 893.609,520.252 894.617,520.967 895.624,521.682 896.632,522.397 897.64,523.112 898.648,523.827 899.655,524.542 900.663,525.257 901.671,525.972 902.678,526.686 903.686,527.401 904.694,528.116 905.701,528.831 906.709,529.546 907.717,530.261 908.724,530.976 909.732,531.691 910.74,532.406 911.748,533.12 912.755,533.835 913.763,534.55 914.771,535.265 915.778,535.98 916.786,536.695 917.794,537.41 918.801,538.124 919.809,538.839 920.817,539.554 921.825,540.269 922.832,540.984 923.84,541.698 924.848,542.413 925.855,543.128 926.863,543.843 927.871,544.558 928.878,545.272 929.886,545.987 930.894,546.702 931.902,547.416 932.909,548.131 933.917,548.846 934.925,549.561 935.932,550.275 936.94,550.99 937.948,551.705 938.955,552.419 939.963,553.134 940.971,553.849 941.979,554.563 942.986,555.278 943.994,555.993 945.002,556.707 946.009,557.422 947.017,558.136 948.025,558.851 949.032,559.566 950.04,560.28 951.048,560.995 952.056,561.709 953.063,562.424 954.071,563.138 955.079,563.853 956.086,564.567 957.094,565.282 958.102,565.996 959.109,566.711 960.117,567.425 961.125,568.14 962.132,568.854 963.14,569.568 964.148,570.283 965.156,570.997 966.163,571.712 967.171,572.426 968.179,573.14 969.186,573.855 970.194,574.569 971.202,575.283 972.209,575.997 973.217,576.712 974.225,577.426 975.233,578.14 976.24,578.854 977.248,579.569 978.256,580.283 979.263,580.997 980.271,581.711 981.279,582.425 982.286,583.139 983.294,583.854 984.302,584.568 985.31,585.282 986.317,585.996 987.325,586.71 988.333,587.424 989.34,588.138 990.348,588.852 991.356,589.566 992.363,590.28 993.371,590.994 994.379,591.708 995.387,592.422 996.394,593.136 997.402,593.849 998.41,594.563 999.417,595.277 1000.43,595.991 1001.43,596.705 1002.44,597.419 1003.45,598.132 1004.46,598.846 1005.46,599.56 1006.47,600.273 1007.48,600.987 1008.49,601.701 1009.49,602.414 1010.5,603.128 1011.51,603.842 1012.52,604.555 1013.53,605.269 1014.53,605.982 1015.54,606.696 1016.55,607.409 1017.56,608.123 1018.56,608.836 1019.57,609.55 1020.58,610.263 1021.59,610.977 1022.59,611.69 1023.6,612.403 1024.61,613.117 1025.62,613.83 1026.63,614.543 1027.63,615.256 1028.64,615.97 1029.65,616.683 1030.66,617.396 1031.66,618.109 1032.67,618.822 1033.68,619.536 1034.69,620.249 1035.69,620.962 1036.7,621.675 1037.71,622.388 1038.72,623.101 1039.73,623.814 1040.73,624.527 1041.74,625.24 1042.75,625.953 1043.76,626.665 1044.76,627.378 1045.77,628.091 1046.78,628.804 1047.79,629.517 1048.79,630.229 1049.8,630.942 1050.81,631.655 1051.82,632.367 1052.83,633.08 1053.83,633.793 1054.84,634.505 1055.85,635.218 1056.86,635.93 1057.86,636.643 1058.87,637.355 1059.88,638.068 1060.89,638.78 1061.89,639.493 1062.9,640.205 1063.91,640.917 1064.92,641.63 1065.93,642.342 1066.93,643.054 1067.94,643.766 1068.95,644.479 1069.96,645.191 1070.96,645.903 1071.97,646.615 1072.98,647.327 1073.99,648.039 1074.99,648.751 1076,649.463 1077.01,650.175 1078.02,650.887 1079.03,651.599 1080.03,652.311 1081.04,653.022 1082.05,653.734 1083.06,654.446 1084.06,655.158 1085.07,655.869 1086.08,656.581 1087.09,657.293 1088.09,658.004 1089.1,658.716 1090.11,659.428 1091.12,660.139 1092.13,660.85 1093.13,661.562 1094.14,662.273 1095.15,662.985 1096.16,663.696 1097.16,664.407 1098.17,665.119 1099.18,665.83 1100.19,666.541 1101.19,667.252 1102.2,667.963 1103.21,668.675 1104.22,669.386 1105.23,670.097 1106.23,670.808 1107.24,671.519 1108.25,672.23 1109.26,672.94 1110.26,673.651 1111.27,674.362 1112.28,675.073 1113.29,675.784 1114.29,676.494 1115.3,677.205 1116.31,677.916 1117.32,678.626 1118.33,679.337 1119.33,680.047 1120.34,680.758 1121.35,681.468 1122.36,682.179 1123.36,682.889 1124.37,683.599 1125.38,684.31 1126.39,685.02 1127.39,685.73 1128.4,686.44 1129.41,687.151 1130.42,687.861 1131.43,688.571 1132.43,689.281 1133.44,689.991 1134.45,690.701 1135.46,691.411 1136.46,692.121 1137.47,692.83 1138.48,693.54 1139.49,694.25 1140.5,694.96 1141.5,695.669 1142.51,696.379 1143.52,697.089 1144.53,697.798 1145.53,698.508 1146.54,699.217 1147.55,699.927 1148.56,700.636 1149.56,701.345 1150.57,702.055 1151.58,702.764 1152.59,703.473 1153.6,704.182 1154.6,704.892 1155.61,705.601 1156.62,706.31 1157.63,707.019 1158.63,707.728 1159.64,708.437 1160.65,709.146 1161.66,709.854 1162.66,710.563 1163.67,711.272 1164.68,711.981 1165.69,712.689 1166.7,713.398 1167.7,714.107 1168.71,714.815 1169.72,715.524 1170.73,716.232 1171.73,716.94 1172.74,717.649 1173.75,718.357 1174.76,719.065 1175.76,719.774 1176.77,720.482 1177.78,721.19 1178.79,721.898 1179.8,722.606 1180.8,723.314 1181.81,724.022 1182.82,724.73 1183.83,725.438 1184.83,726.145 1185.84,726.853 1186.85,727.561 1187.86,728.269 1188.86,728.976 1189.87,729.684 1190.88,730.391 1191.89,731.099 1192.9,731.806 1193.9,732.514 1194.91,733.221 1195.92,733.928 1196.93,734.635 1197.93,735.343 1198.94,736.05 1199.95,736.757 1200.96,737.464 1201.96,738.171 1202.97,738.878 1203.98,739.585 1204.99,740.291 1206,740.998 1207,741.705 1208.01,742.412 1209.02,743.118 1210.03,743.825 1211.03,744.531 1212.04,745.238 1213.05,745.944 1214.06,746.651 1215.06,747.357 1216.07,748.063 1217.08,748.769 1218.09,749.476 1219.1,750.182 1220.1,750.888 1221.11,751.594 1222.12,752.3 1223.13,753.006 1224.13,753.712 1225.14,754.417 1226.15,755.123 1227.16,755.829 1228.16,756.534 1229.17,757.24 1230.18,757.946 1231.19,758.651 1232.2,759.356 1233.2,760.062 1234.21,760.767 1235.22,761.472 1236.23,762.178 1237.23,762.883 1238.24,763.588 1239.25,764.293 1240.26,764.998 1241.26,765.703 1242.27,766.408 1243.28,767.113 1244.29,767.817 1245.3,768.522 1246.3,769.227 1247.31,769.931 1248.32,770.636 1249.33,771.34 1250.33,772.045 1251.34,772.749 1252.35,773.453 1253.36,774.158 1254.36,774.862 1255.37,775.566 1256.38,776.27 1257.39,776.974 1258.4,777.678 1259.4,778.382 1260.41,779.086 1261.42,779.79 1262.43,780.493 1263.43,781.197 1264.44,781.901 1265.45,782.604 1266.46,783.308 1267.47,784.011 1268.47,784.715 1269.48,785.418 1270.49,786.121 1271.5,786.824 1272.5,787.528 1273.51,788.231 1274.52,788.934 1275.53,789.637 1276.53,790.34 1277.54,791.042 1278.55,791.745 1279.56,792.448 1280.57,793.151 1281.57,793.853 1282.58,794.556 1283.59,795.258 1284.6,795.961 1285.6,796.663 1286.61,797.365 1287.62,798.067 1288.63,798.77 1289.63,799.472 1290.64,800.174 1291.65,800.876 1292.66,801.578 1293.67,802.279 1294.67,802.981 1295.68,803.683 1296.69,804.385 1297.7,805.086 1298.7,805.788 1299.71,806.489 1300.72,807.191 1301.73,807.892 1302.73,808.593 1303.74,809.294 1304.75,809.996 1305.76,810.697 1306.77,811.398 1307.77,812.099 1308.78,812.8 1309.79,813.5 1310.8,814.201 1311.8,814.902 1312.81,815.602 1313.82,816.303 1314.83,817.003 1315.83,817.704 1316.84,818.404 1317.85,819.104 1318.86,819.805 1319.87,820.505 1320.87,821.205 1321.88,821.905 1322.89,822.605 1323.9,823.305 1324.9,824.005 1325.91,824.704 1326.92,825.404 1327.93,826.104 1328.93,826.803 1329.94,827.503 1330.95,828.202 1331.96,828.901 1332.97,829.601 1333.97,830.3 1334.98,830.999 1335.99,831.698 1337,832.397 1338,833.096 1339.01,833.795 1340.02,834.494 1341.03,835.192 1342.03,835.891 1343.04,836.59 1344.05,837.288 1345.06,837.987 1346.07,838.685 1347.07,839.383 1348.08,840.081 1349.09,840.78 1350.1,841.478 1351.1,842.176 1352.11,842.874 1353.12,843.571 1354.13,844.269 1355.13,844.967 1356.14,845.665 1357.15,846.362 1358.16,847.06 1359.17,847.757 1360.17,848.454 1361.18,849.152 1362.19,849.849 1363.2,850.546 1364.2,851.243 1365.21,851.94 1366.22,852.637 1367.23,853.334 1368.23,854.031 1369.24,854.727 1370.25,855.424 1371.26,856.12 1372.27,856.817 1373.27,857.513 1374.28,858.21 1375.29,858.906 1376.3,859.602 1377.3,860.298 1378.31,860.994 1379.32,861.69 1380.33,862.386 1381.33,863.082 1382.34,863.778 1383.35,864.473 1384.36,865.169 1385.37,865.864 1386.37,866.56 1387.38,867.255 1388.39,867.95 1389.4,868.645 1390.4,869.34 1391.41,870.036 1392.42,870.73 1393.43,871.425 1394.43,872.12 1395.44,872.815 1396.45,873.509 1397.46,874.204 1398.47,874.899 1399.47,875.593 1400.48,876.287 1401.49,876.981 1402.5,877.676 1403.5,878.37 1404.51,879.064 1405.52,879.758 1406.53,880.452 1407.54,881.145 1408.54,881.839 1409.55,882.533 1410.56,883.226 1411.57,883.92 1412.57,884.613 1413.58,885.306 1414.59,885.999 1415.6,886.693 1416.6,887.386 1417.61,888.079 1418.62,888.771 1419.63,889.464 1420.64,890.157 1421.64,890.85 1422.65,891.542 1423.66,892.235 1424.67,892.927 1425.67,893.619 1426.68,894.312 1427.69,895.004 1428.7,895.696 1429.7,896.388 1430.71,897.08 1431.72,897.772 1432.73,898.463 1433.74,899.155 1434.74,899.846 1435.75,900.538 1436.76,901.229 1437.77,901.921 1438.77,902.612 1439.78,903.303 1440.79,903.994 1441.8,904.685 1442.8,905.376 1443.81,906.067 1444.82,906.758 1445.83,907.448 1446.84,908.139 1447.84,908.829 1448.85,909.52 1449.86,910.21 1450.87,910.9 1451.87,911.59 1452.88,912.28 1453.89,912.97 1454.9,913.66 1455.9,914.35 1456.91,915.04 1457.92,915.729 1458.93,916.419 1459.94,917.108 1460.94,917.798 1461.95,918.487 1462.96,919.176 1463.97,919.865 1464.97,920.554 1465.98,921.243 1466.99,921.932 1468,922.621 1469,923.309 1470.01,923.998 1471.02,924.686 1472.03,925.375 1473.04,926.063 1474.04,926.751 1475.05,927.439 1476.06,928.127 1477.07,928.815 1478.07,929.503 1479.08,930.191 1480.09,930.879 1481.1,931.566 1482.1,932.254 1483.11,932.941 1484.12,933.628 1485.13,934.316 1486.14,935.003 1487.14,935.69 1488.15,936.377 1489.16,937.064 1490.17,937.75 1491.17,938.437 1492.18,939.124 1493.19,939.81 1494.2,940.496 1495.2,941.183 1496.21,941.869 1497.22,942.555 1498.23,943.241 1499.24,943.927 1500.24,944.613 1501.25,945.299 1502.26,945.984 1503.27,946.67 1504.27,947.355 1505.28,948.041 1506.29,948.726 1507.3,949.411 1508.3,950.096 1509.31,950.781 1510.32,951.466 1511.33,952.151 1512.34,952.836 1513.34,953.521 1514.35,954.205 1515.36,954.89 1516.37,955.574 1517.37,956.258 1518.38,956.942 1519.39,957.626 1520.4,958.31 1521.4,958.994 1522.41,959.678 1523.42,960.362 1524.43,961.045 1525.44,961.729 1526.44,962.412 1527.45,963.096 1528.46,963.779 1529.47,964.462 1530.47,965.145 1531.48,965.828 1532.49,966.511 1533.5,967.193 1534.51,967.876 1535.51,968.559 1536.52,969.241 1537.53,969.923 1538.54,970.606 1539.54,971.288 1540.55,971.97 1541.56,972.652 1542.57,973.334 1543.57,974.015 1544.58,974.697 1545.59,975.379 1546.6,976.06 1547.61,976.741 1548.61,977.423 1549.62,978.104 1550.63,978.785 1551.64,979.466 1552.64,980.147 1553.65,980.828 1554.66,981.508 1555.67,982.189 1556.67,982.869 1557.68,983.55 1558.69,984.23 1559.7,984.91 1560.71,985.59 1561.71,986.27 1562.72,986.95 1563.73,987.63 1564.74,988.309 1565.74,988.989 1566.75,989.668 1567.76,990.348 1568.77,991.027 1569.77,991.706 1570.78,992.385 1571.79,993.064 1572.8,993.743 1573.81,994.422 1574.81,995.1 1575.82,995.779 1576.83,996.457 1577.84,997.136 1578.84,997.814 1579.85,998.492 1580.86,999.17 1581.87,999.848 1582.87,1000.53 1583.88,1001.2 1584.89,1001.88 1585.9,1002.56 1586.91,1003.24 1587.91,1003.91 1588.92,1004.59 1589.93,1005.27 1590.94,1005.94 1591.94,1006.62 1592.95,1007.3 1593.96,1007.98 1594.97,1008.65 1595.97,1009.33 1596.98,1010 1597.99,1010.68 1599,1011.36 1600.01,1012.03 1601.01,1012.71 1602.02,1013.38 1603.03,1014.06 1604.04,1014.74 1605.04,1015.41 1606.05,1016.09 1607.06,1016.76 1608.07,1017.44 1609.07,1018.11 1610.08,1018.79 1611.09,1019.46 1612.1,1020.14 1613.11,1020.81 1614.11,1021.49 1615.12,1022.16 1616.13,1022.84 1617.14,1023.51 1618.14,1024.18 1619.15,1024.86 1620.16,1025.53 1621.17,1026.21 1622.17,1026.88 1623.18,1027.55 1624.19,1028.23 1625.2,1028.9 1626.21,1029.57 1627.21,1030.25 1628.22,1030.92 1629.23,1031.59 1630.24,1032.27 1631.24,1032.94 1632.25,1033.61 1633.26,1034.28 1634.27,1034.96 1635.27,1035.63 1636.28,1036.3 1637.29,1036.97 1638.3,1037.64 1639.31,1038.32 1640.31,1038.99 1641.32,1039.66 1642.33,1040.33 1643.34,1041 1644.34,1041.67 1645.35,1042.34 1646.36,1043.02 1647.37,1043.69 1648.37,1044.36 1649.38,1045.03 1650.39,1045.7 1651.4,1046.37 1652.41,1047.04 1653.41,1047.71 1654.42,1048.38 1655.43,1049.05 1656.44,1049.72 1657.44,1050.39 1658.45,1051.06 1659.46,1051.73 1660.47,1052.4 1661.47,1053.07 1662.48,1053.74 1663.49,1054.41 1664.5,1055.08 1665.51,1055.75 1666.51,1056.41 1667.52,1057.08 1668.53,1057.75 1669.54,1058.42 1670.54,1059.09 1671.55,1059.76 1672.56,1060.42 1673.57,1061.09 1674.58,1061.76 1675.58,1062.43 1676.59,1063.1 1677.6,1063.76 1678.61,1064.43 1679.61,1065.1 1680.62,1065.77 1681.63,1066.43 1682.64,1067.1 1683.64,1067.77 1684.65,1068.43 1685.66,1069.1 1686.67,1069.77 1687.68,1070.43 1688.68,1071.1 1689.69,1071.77 1690.7,1072.43 1691.71,1073.1 1692.71,1073.76 1693.72,1074.43 1694.73,1075.09 1695.74,1075.76 1696.74,1076.43 1697.75,1077.09 1698.76,1077.76 1699.77,1078.42 1700.78,1079.09 1701.78,1079.75 1702.79,1080.42 1703.8,1081.08 1704.81,1081.74 1705.81,1082.41 1706.82,1083.07 1707.83,1083.74 1708.84,1084.4 1709.84,1085.06 1710.85,1085.73 1711.86,1086.39 1712.87,1087.06 1713.88,1087.72 1714.88,1088.38 1715.89,1089.05 1716.9,1089.71 1717.91,1090.37 1718.91,1091.03 1719.92,1091.7 1720.93,1092.36 1721.94,1093.02 1722.94,1093.68 1723.95,1094.35 1724.96,1095.01 1725.97,1095.67 1726.98,1096.33 1727.98,1096.99 1728.99,1097.66 1730,1098.32 1731.01,1098.98 1732.01,1099.64 1733.02,1100.3 1734.03,1100.96 1735.04,1101.62 1736.04,1102.28 1737.05,1102.94 1738.06,1103.6 1739.07,1104.26 1740.08,1104.92 1741.08,1105.58 1742.09,1106.24 1743.1,1106.9 1744.11,1107.56 1745.11,1108.22 1746.12,1108.88 1747.13,1109.54 1748.14,1110.2 1749.14,1110.86 1750.15,1111.52 1751.16,1112.18 1752.17,1112.84 1753.18,1113.5 1754.18,1114.15 1755.19,1114.81 1756.2,1115.47 1757.21,1116.13 1758.21,1116.79 1759.22,1117.45 1760.23,1118.1 1761.24,1118.76 1762.24,1119.42 1763.25,1120.08 1764.26,1120.73 1765.27,1121.39 1766.28,1122.05 1767.28,1122.7 1768.29,1123.36 1769.3,1124.02 1770.31,1124.67 1771.31,1125.33 1772.32,1125.99 1773.33,1126.64 1774.34,1127.3 1775.34,1127.95 1776.35,1128.61 1777.36,1129.27 1778.37,1129.92 1779.38,1130.58 1780.38,1131.23 1781.39,1131.89 1782.4,1132.54 1783.41,1133.2 1784.41,1133.85 1785.42,1134.51 1786.43,1135.16 1787.44,1135.82 1788.44,1136.47 1789.45,1137.12 1790.46,1137.78 1791.47,1138.43 1792.48,1139.09 1793.48,1139.74 1794.49,1140.39 1795.5,1141.05 1796.51,1141.7 1797.51,1142.35 1798.52,1143.01 1799.53,1143.66 1800.54,1144.31 1801.55,1144.96 1802.55,1145.62 1803.56,1146.27 1804.57,1146.92 1805.58,1147.57 1806.58,1148.22 1807.59,1148.88 1808.6,1149.53 1809.61,1150.18 1810.61,1150.83 1811.62,1151.48 1812.63,1152.13 1813.64,1152.78 1814.65,1153.44 1815.65,1154.09 1816.66,1154.74 1817.67,1155.39 1818.68,1156.04 1819.68,1156.69 1820.69,1157.34 1821.7,1157.99 1822.71,1158.64 1823.71,1159.29 1824.72,1159.94 1825.73,1160.59 1826.74,1161.24 1827.75,1161.89 1828.75,1162.53 1829.76,1163.18 1830.77,1163.83 1831.78,1164.48 1832.78,1165.13 1833.79,1165.78 1834.8,1166.43 1835.81,1167.07 1836.81,1167.72 1837.82,1168.37 1838.83,1169.02 1839.84,1169.67 1840.85,1170.31 1841.85,1170.96 1842.86,1171.61 1843.87,1172.25 1844.88,1172.9 1845.88,1173.55 1846.89,1174.2 1847.9,1174.84 1848.91,1175.49 1849.91,1176.13 1850.92,1176.78 1851.93,1177.43 1852.94,1178.07 1853.95,1178.72 1854.95,1179.36 1855.96,1180.01 1856.97,1180.65 1857.98,1181.3 1858.98,1181.95 1859.99,1182.59 1861,1183.23 1862.01,1183.88 1863.01,1184.52 1864.02,1185.17 1865.03,1185.81 1866.04,1186.46 1867.05,1187.1 1868.05,1187.74 1869.06,1188.39 1870.07,1189.03 1871.08,1189.68 1872.08,1190.32 1873.09,1190.96 1874.1,1191.61 1875.11,1192.25 1876.11,1192.89 1877.12,1193.53 1878.13,1194.18 1879.14,1194.82 1880.15,1195.46 1881.15,1196.1 1882.16,1196.74 1883.17,1197.39 1884.18,1198.03 1885.18,1198.67 1886.19,1199.31 1887.2,1199.95 1888.21,1200.59 1889.21,1201.23 1890.22,1201.88 1891.23,1202.52 1892.24,1203.16 1893.25,1203.8 1894.25,1204.44 1895.26,1205.08 1896.27,1205.72 1897.28,1206.36 1898.28,1207 1899.29,1207.64 1900.3,1208.28 1901.31,1208.92 1902.31,1209.56 1903.32,1210.19 1904.33,1210.83 1905.34,1211.47 1906.35,1212.11 1907.35,1212.75 1908.36,1213.39 1909.37,1214.03 1910.38,1214.66 1911.38,1215.3 1912.39,1215.94 1913.4,1216.58 1914.41,1217.21 1915.41,1217.85 1916.42,1218.49 1917.43,1219.13 1918.44,1219.76 1919.45,1220.4 1920.45,1221.04 1921.46,1221.67 1922.47,1222.31 1923.48,1222.95 1924.48,1223.58 1925.49,1224.22 1926.5,1224.85 1927.51,1225.49 1928.51,1226.13 1929.52,1226.76 1930.53,1227.4 1931.54,1228.03 1932.55,1228.67 1933.55,1229.3 1934.56,1229.94 1935.57,1230.57 1936.58,1231.21 1937.58,1231.84 1938.59,1232.47 1939.6,1233.11 1940.61,1233.74 1941.62,1234.38 1942.62,1235.01 1943.63,1235.64 1944.64,1236.28 1945.65,1236.91 1946.65,1237.54 1947.66,1238.17 1948.67,1238.81 1949.68,1239.44 1950.68,1240.07 1951.69,1240.7 1952.7,1241.34 1953.71,1241.97 1954.72,1242.6 1955.72,1243.23 1956.73,1243.86 1957.74,1244.5 1958.75,1245.13 1959.75,1245.76 1960.76,1246.39 1961.77,1247.02 1962.78,1247.65 1963.78,1248.28 1964.79,1248.91 1965.8,1249.54 1966.81,1250.17 1967.82,1250.8 1968.82,1251.43 1969.83,1252.06 1970.84,1252.69 1971.85,1253.32 1972.85,1253.95 1973.86,1254.58 1974.87,1255.21 1975.88,1255.84 1976.88,1256.47 1977.89,1257.09 1978.9,1257.72 1979.91,1258.35 1980.92,1258.98 1981.92,1259.61 1982.93,1260.23 1983.94,1260.86 1984.95,1261.49 1985.95,1262.12 1986.96,1262.74 1987.97,1263.37 1988.98,1264 1989.98,1264.63 1990.99,1265.25 1992,1265.88 1993.01,1266.5 1994.02,1267.13 1995.02,1267.76 1996.03,1268.38 1997.04,1269.01 1998.05,1269.63 1999.05,1270.26 2000.06,1270.89 2001.07,1271.51 2002.08,1272.14 2003.08,1272.76 2004.09,1273.38 2005.1,1274.01 2006.11,1274.63 2007.12,1275.26 2008.12,1275.88 2009.13,1276.51 2010.14,1277.13 2011.15,1277.75 2012.15,1278.38 2013.16,1279 2014.17,1279.62 2015.18,1280.25 2016.18,1280.87 2017.19,1281.49 2018.2,1282.12 2019.21,1282.74 2020.22,1283.36 2021.22,1283.98 2022.23,1284.6 2023.24,1285.23 2024.25,1285.85 2025.25,1286.47 2026.26,1287.09 2027.27,1287.71 2028.28,1288.33 2029.28,1288.96 2030.29,1289.58 2031.3,1290.2 2032.31,1290.82 2033.32,1291.44 2034.32,1292.06 2035.33,1292.68 2036.34,1293.3 2037.35,1293.92 2038.35,1294.54 2039.36,1295.16 2040.37,1295.78 2041.38,1296.4 2042.38,1297.01 2043.39,1297.63 2044.4,1298.25 2045.41,1298.87 2046.42,1299.49 2047.42,1300.11 2048.43,1300.73 2049.44,1301.34 2050.45,1301.96 2051.45,1302.58 2052.46,1303.2 2053.47,1303.81 2054.48,1304.43 2055.48,1305.05 2056.49,1305.67 2057.5,1306.28 2058.51,1306.9 2059.52,1307.52 2060.52,1308.13 2061.53,1308.75 2062.54,1309.36 2063.55,1309.98 2064.55,1310.6 2065.56,1311.21 2066.57,1311.83 2067.58,1312.44 2068.59,1313.06 2069.59,1313.67 2070.6,1314.29 2071.61,1314.9 2072.62,1315.52 2073.62,1316.13 2074.63,1316.75 2075.64,1317.36 2076.65,1317.97 2077.65,1318.59 2078.66,1319.2 2079.67,1319.81 2080.68,1320.43 2081.69,1321.04 2082.69,1321.65 2083.7,1322.27 2084.71,1322.88 2085.72,1323.49 2086.72,1324.1 2087.73,1324.72 2088.74,1325.33 2089.75,1325.94 2090.75,1326.55 2091.76,1327.16 2092.77,1327.77 2093.78,1328.39 2094.79,1329 2095.79,1329.61 2096.8,1330.22 2097.81,1330.83 2098.82,1331.44 2099.82,1332.05 2100.83,1332.66 2101.84,1333.27 2102.85,1333.88 2103.85,1334.49 2104.86,1335.1 2105.87,1335.71 2106.88,1336.32 2107.89,1336.93 2108.89,1337.54 2109.9,1338.15 2110.91,1338.75 2111.92,1339.36 2112.92,1339.97 2113.93,1340.58 2114.94,1341.19 2115.95,1341.8 2116.95,1342.4 2117.96,1343.01 2118.97,1343.62 2119.98,1344.23 2120.99,1344.83 2121.99,1345.44 2123,1346.05 2124.01,1346.65 2125.02,1347.26 2126.02,1347.87 2127.03,1348.47 2128.04,1349.08 2129.05,1349.68 2130.05,1350.29 2131.06,1350.89 2132.07,1351.5 2133.08,1352.11 2134.09,1352.71 2135.09,1353.32 2136.1,1353.92 2137.11,1354.52 2138.12,1355.13 2139.12,1355.73 2140.13,1356.34 2141.14,1356.94 2142.15,1357.55 2143.15,1358.15 2144.16,1358.75 2145.17,1359.36 2146.18,1359.96 2147.19,1360.56 2148.19,1361.16 2149.2,1361.77 2150.21,1362.37 2151.22,1362.97 2152.22,1363.57 2153.23,1364.18 2154.24,1364.78 2155.25,1365.38 2156.25,1365.98 2157.26,1366.58 2158.27,1367.18 2159.28,1367.79 2160.29,1368.39 2161.29,1368.99 2162.3,1369.59 2163.31,1370.19 2164.32,1370.79 2165.32,1371.39 2166.33,1371.99 2167.34,1372.59 2168.35,1373.19 2169.35,1373.79 2170.36,1374.39 2171.37,1374.99 2172.38,1375.59 2173.39,1376.18 2174.39,1376.78 2175.4,1377.38 2176.41,1377.98 2177.42,1378.58 2178.42,1379.18 2179.43,1379.77 2180.44,1380.37 2181.45,1380.97 2182.45,1381.57 2183.46,1382.16 2184.47,1382.76 2185.48,1383.36 2186.49,1383.96 2187.49,1384.55 2188.5,1385.15 2189.51,1385.74 2190.52,1386.34 2191.52,1386.94 2192.53,1387.53 2193.54,1388.13 2194.55,1388.72 2195.55,1389.32 2196.56,1389.91 2197.57,1390.51 2198.58,1391.1 2199.59,1391.7 2200.59,1392.29 2201.6,1392.89 2202.61,1393.48 2203.62,1394.08 2204.62,1394.67 2205.63,1395.26 2206.64,1395.86 2207.65,1396.45 2208.66,1397.04 2209.66,1397.64 2210.67,1398.23 2211.68,1398.82 2212.69,1399.42 2213.69,1400.01 2214.7,1400.6 2215.71,1401.19 2216.72,1401.78 2217.72,1402.38 2218.73,1402.97 2219.74,1403.56 2220.75,1404.15 2221.76,1404.74 2222.76,1405.33 2223.77,1405.92 2224.78,1406.51 2225.79,1407.1 2226.79,1407.7 2227.8,1408.29 2228.81,1408.88 2229.82,1409.47 2230.82,1410.05 2231.83,1410.64 2232.84,1411.23 2233.85,1411.82 2234.86,1412.41 2235.86,1413 2236.87,1413.59 2237.88,1414.18 2238.89,1414.77 2239.89,1415.35 2240.9,1415.94 2241.91,1416.53 2242.92,1417.12 2243.92,1417.71 2244.93,1418.29 2245.94,1418.88 2246.95,1419.47 2247.96,1420.05 2248.96,1420.64 2249.97,1421.23 2250.98,1421.81 2251.99,1422.4 2252.99,1422.99 2254,1423.57 2255.01,1424.16 2256.02,1424.74 2257.02,1425.33 2258.03,1425.91 2259.04,1426.5 2260.05,1427.08 2261.06,1427.67 2262.06,1428.25 2263.07,1428.84 2264.08,1429.42 2265.09,1430.01 2266.09,1430.59 2267.1,1431.17 2268.11,1431.76 2269.12,1432.34 2270.12,1432.93 2271.13,1433.51 2272.14,1434.09 2273.15,1434.67 2274.16,1435.26 2275.16,1435.84 2276.17,1436.42 2277.18,1437 2278.19,1437.59 2279.19,1438.17 2280.2,1438.75 2281.21,1439.33 2282.22,1439.91 2283.22,1440.49 2284.23,1441.07 2285.24,1441.65 2286.25,1442.24 2287.26,1442.82 2288.26,1443.4 2289.27,1443.98 2290.28,1444.56 2291.29,1445.14 2292.29,1445.72 "/>
<path clip-path="url(#clip330)" d="M2015.48 198.898 L2281.55 198.898 L2281.55 95.2176 L2015.48 95.2176  Z" fill="#ffffff" fill-rule="evenodd" fill-opacity="1"/>
<polyline clip-path="url(#clip330)" style="stroke:#000000; stroke-linecap:round; stroke-linejoin:round; stroke-width:4; stroke-opacity:1; fill:none" points="2015.48,198.898 2281.55,198.898 2281.55,95.2176 2015.48,95.2176 2015.48,198.898 "/>
<polyline clip-path="url(#clip330)" style="stroke:#009af9; stroke-linecap:round; stroke-linejoin:round; stroke-width:4; stroke-opacity:1; fill:none" points="2039.22,147.058 2181.64,147.058 "/>
<path clip-path="url(#clip330)" d="M2219.22 166.745 Q2217.42 171.375 2215.7 172.787 Q2213.99 174.199 2211.12 174.199 L2207.72 174.199 L2207.72 170.634 L2210.22 170.634 Q2211.98 170.634 2212.95 169.8 Q2213.92 168.967 2215.1 165.865 L2215.86 163.921 L2205.38 138.412 L2209.89 138.412 L2217.99 158.689 L2226.1 138.412 L2230.61 138.412 L2219.22 166.745 Z" fill="#000000" fill-rule="nonzero" fill-opacity="1" /><path clip-path="url(#clip330)" d="M2237.9 160.402 L2245.54 160.402 L2245.54 134.037 L2237.23 135.703 L2237.23 131.444 L2245.49 129.778 L2250.17 129.778 L2250.17 160.402 L2257.81 160.402 L2257.81 164.338 L2237.9 164.338 L2237.9 160.402 Z" fill="#000000" fill-rule="nonzero" fill-opacity="1" /></svg>
