<?xml version="1.0" encoding="utf-8"?>
<svg xmlns="http://www.w3.org/2000/svg" xmlns:xlink="http://www.w3.org/1999/xlink" width="600" height="400" viewBox="0 0 2400 1600">
<defs>
  <clipPath id="clip120">
    <rect x="0" y="0" width="2400" height="1600"/>
  </clipPath>
</defs>
<path clip-path="url(#clip120)" d="M0 1600 L2400 1600 L2400 0 L0 0  Z" fill="#ffffff" fill-rule="evenodd" fill-opacity="1"/>
<defs>
  <clipPath id="clip121">
    <rect x="480" y="0" width="1681" height="1600"/>
  </clipPath>
</defs>
<path clip-path="url(#clip120)" d="M156.02 1486.45 L2352.76 1486.45 L2352.76 47.2441 L156.02 47.2441  Z" fill="#ffffff" fill-rule="evenodd" fill-opacity="1"/>
<defs>
  <clipPath id="clip122">
    <rect x="156" y="47" width="2198" height="1440"/>
  </clipPath>
</defs>
<polyline clip-path="url(#clip122)" style="stroke:#000000; stroke-linecap:round; stroke-linejoin:round; stroke-width:2; stroke-opacity:0.1; fill:none" points="218.191,1486.45 218.191,47.2441 "/>
<polyline clip-path="url(#clip122)" style="stroke:#000000; stroke-linecap:round; stroke-linejoin:round; stroke-width:2; stroke-opacity:0.1; fill:none" points="632.836,1486.45 632.836,47.2441 "/>
<polyline clip-path="url(#clip122)" style="stroke:#000000; stroke-linecap:round; stroke-linejoin:round; stroke-width:2; stroke-opacity:0.1; fill:none" points="1047.48,1486.45 1047.48,47.2441 "/>
<polyline clip-path="url(#clip122)" style="stroke:#000000; stroke-linecap:round; stroke-linejoin:round; stroke-width:2; stroke-opacity:0.1; fill:none" points="1462.12,1486.45 1462.12,47.2441 "/>
<polyline clip-path="url(#clip122)" style="stroke:#000000; stroke-linecap:round; stroke-linejoin:round; stroke-width:2; stroke-opacity:0.1; fill:none" points="1876.77,1486.45 1876.77,47.2441 "/>
<polyline clip-path="url(#clip122)" style="stroke:#000000; stroke-linecap:round; stroke-linejoin:round; stroke-width:2; stroke-opacity:0.1; fill:none" points="2291.41,1486.45 2291.41,47.2441 "/>
<polyline clip-path="url(#clip120)" style="stroke:#000000; stroke-linecap:round; stroke-linejoin:round; stroke-width:4; stroke-opacity:1; fill:none" points="156.02,1486.45 2352.76,1486.45 "/>
<polyline clip-path="url(#clip120)" style="stroke:#000000; stroke-linecap:round; stroke-linejoin:round; stroke-width:4; stroke-opacity:1; fill:none" points="218.191,1486.45 218.191,1467.55 "/>
<polyline clip-path="url(#clip120)" style="stroke:#000000; stroke-linecap:round; stroke-linejoin:round; stroke-width:4; stroke-opacity:1; fill:none" points="632.836,1486.45 632.836,1467.55 "/>
<polyline clip-path="url(#clip120)" style="stroke:#000000; stroke-linecap:round; stroke-linejoin:round; stroke-width:4; stroke-opacity:1; fill:none" points="1047.48,1486.45 1047.48,1467.55 "/>
<polyline clip-path="url(#clip120)" style="stroke:#000000; stroke-linecap:round; stroke-linejoin:round; stroke-width:4; stroke-opacity:1; fill:none" points="1462.12,1486.45 1462.12,1467.55 "/>
<polyline clip-path="url(#clip120)" style="stroke:#000000; stroke-linecap:round; stroke-linejoin:round; stroke-width:4; stroke-opacity:1; fill:none" points="1876.77,1486.45 1876.77,1467.55 "/>
<polyline clip-path="url(#clip120)" style="stroke:#000000; stroke-linecap:round; stroke-linejoin:round; stroke-width:4; stroke-opacity:1; fill:none" points="2291.41,1486.45 2291.41,1467.55 "/>
<path clip-path="url(#clip120)" d="M218.191 1517.37 Q214.58 1517.37 212.752 1520.93 Q210.946 1524.47 210.946 1531.6 Q210.946 1538.71 212.752 1542.27 Q214.58 1545.82 218.191 1545.82 Q221.826 1545.82 223.631 1542.27 Q225.46 1538.71 225.46 1531.6 Q225.46 1524.47 223.631 1520.93 Q221.826 1517.37 218.191 1517.37 M218.191 1513.66 Q224.001 1513.66 227.057 1518.27 Q230.136 1522.85 230.136 1531.6 Q230.136 1540.33 227.057 1544.94 Q224.001 1549.52 218.191 1549.52 Q212.381 1549.52 209.302 1544.94 Q206.247 1540.33 206.247 1531.6 Q206.247 1522.85 209.302 1518.27 Q212.381 1513.66 218.191 1513.66 Z" fill="#000000" fill-rule="nonzero" fill-opacity="1" /><path clip-path="url(#clip120)" d="M592.454 1514.29 L610.81 1514.29 L610.81 1518.22 L596.736 1518.22 L596.736 1526.7 Q597.755 1526.35 598.773 1526.19 Q599.792 1526 600.81 1526 Q606.597 1526 609.977 1529.17 Q613.357 1532.34 613.357 1537.76 Q613.357 1543.34 609.884 1546.44 Q606.412 1549.52 600.093 1549.52 Q597.917 1549.52 595.648 1549.15 Q593.403 1548.78 590.996 1548.04 L590.996 1543.34 Q593.079 1544.47 595.301 1545.03 Q597.523 1545.58 600 1545.58 Q604.005 1545.58 606.343 1543.48 Q608.681 1541.37 608.681 1537.76 Q608.681 1534.15 606.343 1532.04 Q604.005 1529.94 600 1529.94 Q598.125 1529.94 596.25 1530.35 Q594.398 1530.77 592.454 1531.65 L592.454 1514.29 Z" fill="#000000" fill-rule="nonzero" fill-opacity="1" /><path clip-path="url(#clip120)" d="M632.57 1517.37 Q628.958 1517.37 627.13 1520.93 Q625.324 1524.47 625.324 1531.6 Q625.324 1538.71 627.13 1542.27 Q628.958 1545.82 632.57 1545.82 Q636.204 1545.82 638.009 1542.27 Q639.838 1538.71 639.838 1531.6 Q639.838 1524.47 638.009 1520.93 Q636.204 1517.37 632.57 1517.37 M632.57 1513.66 Q638.38 1513.66 641.435 1518.27 Q644.514 1522.85 644.514 1531.6 Q644.514 1540.33 641.435 1544.94 Q638.38 1549.52 632.57 1549.52 Q626.759 1549.52 623.681 1544.94 Q620.625 1540.33 620.625 1531.6 Q620.625 1522.85 623.681 1518.27 Q626.759 1513.66 632.57 1513.66 Z" fill="#000000" fill-rule="nonzero" fill-opacity="1" /><path clip-path="url(#clip120)" d="M662.731 1517.37 Q659.12 1517.37 657.292 1520.93 Q655.486 1524.47 655.486 1531.6 Q655.486 1538.71 657.292 1542.27 Q659.12 1545.82 662.731 1545.82 Q666.366 1545.82 668.171 1542.27 Q670 1538.71 670 1531.6 Q670 1524.47 668.171 1520.93 Q666.366 1517.37 662.731 1517.37 M662.731 1513.66 Q668.542 1513.66 671.597 1518.27 Q674.676 1522.85 674.676 1531.6 Q674.676 1540.33 671.597 1544.94 Q668.542 1549.52 662.731 1549.52 Q656.921 1549.52 653.843 1544.94 Q650.787 1540.33 650.787 1531.6 Q650.787 1522.85 653.843 1518.27 Q656.921 1513.66 662.731 1513.66 Z" fill="#000000" fill-rule="nonzero" fill-opacity="1" /><path clip-path="url(#clip120)" d="M992.006 1544.91 L999.645 1544.91 L999.645 1518.55 L991.335 1520.21 L991.335 1515.95 L999.598 1514.29 L1004.27 1514.29 L1004.27 1544.91 L1011.91 1544.91 L1011.91 1548.85 L992.006 1548.85 L992.006 1544.91 Z" fill="#000000" fill-rule="nonzero" fill-opacity="1" /><path clip-path="url(#clip120)" d="M1031.36 1517.37 Q1027.75 1517.37 1025.92 1520.93 Q1024.11 1524.47 1024.11 1531.6 Q1024.11 1538.71 1025.92 1542.27 Q1027.75 1545.82 1031.36 1545.82 Q1034.99 1545.82 1036.8 1542.27 Q1038.63 1538.71 1038.63 1531.6 Q1038.63 1524.47 1036.8 1520.93 Q1034.99 1517.37 1031.36 1517.37 M1031.36 1513.66 Q1037.17 1513.66 1040.22 1518.27 Q1043.3 1522.85 1043.3 1531.6 Q1043.3 1540.33 1040.22 1544.94 Q1037.17 1549.52 1031.36 1549.52 Q1025.55 1549.52 1022.47 1544.94 Q1019.41 1540.33 1019.41 1531.6 Q1019.41 1522.85 1022.47 1518.27 Q1025.55 1513.66 1031.36 1513.66 Z" fill="#000000" fill-rule="nonzero" fill-opacity="1" /><path clip-path="url(#clip120)" d="M1061.52 1517.37 Q1057.91 1517.37 1056.08 1520.93 Q1054.27 1524.47 1054.27 1531.6 Q1054.27 1538.71 1056.08 1542.27 Q1057.91 1545.82 1061.52 1545.82 Q1065.15 1545.82 1066.96 1542.27 Q1068.79 1538.71 1068.79 1531.6 Q1068.79 1524.47 1066.96 1520.93 Q1065.15 1517.37 1061.52 1517.37 M1061.52 1513.66 Q1067.33 1513.66 1070.39 1518.27 Q1073.46 1522.85 1073.46 1531.6 Q1073.46 1540.33 1070.39 1544.94 Q1067.33 1549.52 1061.52 1549.52 Q1055.71 1549.52 1052.63 1544.94 Q1049.58 1540.33 1049.58 1531.6 Q1049.58 1522.85 1052.63 1518.27 Q1055.71 1513.66 1061.52 1513.66 Z" fill="#000000" fill-rule="nonzero" fill-opacity="1" /><path clip-path="url(#clip120)" d="M1091.68 1517.37 Q1088.07 1517.37 1086.24 1520.93 Q1084.44 1524.47 1084.44 1531.6 Q1084.44 1538.71 1086.24 1542.27 Q1088.07 1545.82 1091.68 1545.82 Q1095.32 1545.82 1097.12 1542.27 Q1098.95 1538.71 1098.95 1531.6 Q1098.95 1524.47 1097.12 1520.93 Q1095.32 1517.37 1091.68 1517.37 M1091.68 1513.66 Q1097.49 1513.66 1100.55 1518.27 Q1103.63 1522.85 1103.63 1531.6 Q1103.63 1540.33 1100.55 1544.94 Q1097.49 1549.52 1091.68 1549.52 Q1085.87 1549.52 1082.79 1544.94 Q1079.74 1540.33 1079.74 1531.6 Q1079.74 1522.85 1082.79 1518.27 Q1085.87 1513.66 1091.68 1513.66 Z" fill="#000000" fill-rule="nonzero" fill-opacity="1" /><path clip-path="url(#clip120)" d="M1406.65 1544.91 L1414.29 1544.91 L1414.29 1518.55 L1405.98 1520.21 L1405.98 1515.95 L1414.24 1514.29 L1418.92 1514.29 L1418.92 1544.91 L1426.56 1544.91 L1426.56 1548.85 L1406.65 1548.85 L1406.65 1544.91 Z" fill="#000000" fill-rule="nonzero" fill-opacity="1" /><path clip-path="url(#clip120)" d="M1436.05 1514.29 L1454.4 1514.29 L1454.4 1518.22 L1440.33 1518.22 L1440.33 1526.7 Q1441.35 1526.35 1442.37 1526.19 Q1443.39 1526 1444.4 1526 Q1450.19 1526 1453.57 1529.17 Q1456.95 1532.34 1456.95 1537.76 Q1456.95 1543.34 1453.48 1546.44 Q1450.01 1549.52 1443.69 1549.52 Q1441.51 1549.52 1439.24 1549.15 Q1437 1548.78 1434.59 1548.04 L1434.59 1543.34 Q1436.67 1544.47 1438.9 1545.03 Q1441.12 1545.58 1443.59 1545.58 Q1447.6 1545.58 1449.94 1543.48 Q1452.28 1541.37 1452.28 1537.76 Q1452.28 1534.15 1449.94 1532.04 Q1447.6 1529.94 1443.59 1529.94 Q1441.72 1529.94 1439.84 1530.35 Q1437.99 1530.77 1436.05 1531.65 L1436.05 1514.29 Z" fill="#000000" fill-rule="nonzero" fill-opacity="1" /><path clip-path="url(#clip120)" d="M1476.16 1517.37 Q1472.55 1517.37 1470.72 1520.93 Q1468.92 1524.47 1468.92 1531.6 Q1468.92 1538.71 1470.72 1542.27 Q1472.55 1545.82 1476.16 1545.82 Q1479.8 1545.82 1481.6 1542.27 Q1483.43 1538.71 1483.43 1531.6 Q1483.43 1524.47 1481.6 1520.93 Q1479.8 1517.37 1476.16 1517.37 M1476.16 1513.66 Q1481.97 1513.66 1485.03 1518.27 Q1488.11 1522.85 1488.11 1531.6 Q1488.11 1540.33 1485.03 1544.94 Q1481.97 1549.52 1476.16 1549.52 Q1470.35 1549.52 1467.28 1544.94 Q1464.22 1540.33 1464.22 1531.6 Q1464.22 1522.85 1467.28 1518.27 Q1470.35 1513.66 1476.16 1513.66 Z" fill="#000000" fill-rule="nonzero" fill-opacity="1" /><path clip-path="url(#clip120)" d="M1506.33 1517.37 Q1502.71 1517.37 1500.89 1520.93 Q1499.08 1524.47 1499.08 1531.6 Q1499.08 1538.71 1500.89 1542.27 Q1502.71 1545.82 1506.33 1545.82 Q1509.96 1545.82 1511.77 1542.27 Q1513.59 1538.71 1513.59 1531.6 Q1513.59 1524.47 1511.77 1520.93 Q1509.96 1517.37 1506.33 1517.37 M1506.33 1513.66 Q1512.14 1513.66 1515.19 1518.27 Q1518.27 1522.85 1518.27 1531.6 Q1518.27 1540.33 1515.19 1544.94 Q1512.14 1549.52 1506.33 1549.52 Q1500.52 1549.52 1497.44 1544.94 Q1494.38 1540.33 1494.38 1531.6 Q1494.38 1522.85 1497.44 1518.27 Q1500.52 1513.66 1506.33 1513.66 Z" fill="#000000" fill-rule="nonzero" fill-opacity="1" /><path clip-path="url(#clip120)" d="M1825.38 1544.91 L1841.7 1544.91 L1841.7 1548.85 L1819.76 1548.85 L1819.76 1544.91 Q1822.42 1542.16 1827 1537.53 Q1831.61 1532.88 1832.79 1531.53 Q1835.03 1529.01 1835.91 1527.27 Q1836.82 1525.51 1836.82 1523.82 Q1836.82 1521.07 1834.87 1519.33 Q1832.95 1517.6 1829.85 1517.6 Q1827.65 1517.6 1825.2 1518.36 Q1822.76 1519.13 1819.99 1520.68 L1819.99 1515.95 Q1822.81 1514.82 1825.26 1514.24 Q1827.72 1513.66 1829.76 1513.66 Q1835.13 1513.66 1838.32 1516.35 Q1841.51 1519.03 1841.51 1523.52 Q1841.51 1525.65 1840.7 1527.57 Q1839.92 1529.47 1837.81 1532.07 Q1837.23 1532.74 1834.13 1535.95 Q1831.03 1539.15 1825.38 1544.91 Z" fill="#000000" fill-rule="nonzero" fill-opacity="1" /><path clip-path="url(#clip120)" d="M1861.51 1517.37 Q1857.9 1517.37 1856.07 1520.93 Q1854.27 1524.47 1854.27 1531.6 Q1854.27 1538.71 1856.07 1542.27 Q1857.9 1545.82 1861.51 1545.82 Q1865.15 1545.82 1866.95 1542.27 Q1868.78 1538.71 1868.78 1531.6 Q1868.78 1524.47 1866.95 1520.93 Q1865.15 1517.37 1861.51 1517.37 M1861.51 1513.66 Q1867.32 1513.66 1870.38 1518.27 Q1873.46 1522.85 1873.46 1531.6 Q1873.46 1540.33 1870.38 1544.94 Q1867.32 1549.52 1861.51 1549.52 Q1855.7 1549.52 1852.63 1544.94 Q1849.57 1540.33 1849.57 1531.6 Q1849.57 1522.85 1852.63 1518.27 Q1855.7 1513.66 1861.51 1513.66 Z" fill="#000000" fill-rule="nonzero" fill-opacity="1" /><path clip-path="url(#clip120)" d="M1891.68 1517.37 Q1888.07 1517.37 1886.24 1520.93 Q1884.43 1524.47 1884.43 1531.6 Q1884.43 1538.71 1886.24 1542.27 Q1888.07 1545.82 1891.68 1545.82 Q1895.31 1545.82 1897.12 1542.27 Q1898.94 1538.71 1898.94 1531.6 Q1898.94 1524.47 1897.12 1520.93 Q1895.31 1517.37 1891.68 1517.37 M1891.68 1513.66 Q1897.49 1513.66 1900.54 1518.27 Q1903.62 1522.85 1903.62 1531.6 Q1903.62 1540.33 1900.54 1544.94 Q1897.49 1549.52 1891.68 1549.52 Q1885.87 1549.52 1882.79 1544.94 Q1879.73 1540.33 1879.73 1531.6 Q1879.73 1522.85 1882.79 1518.27 Q1885.87 1513.66 1891.68 1513.66 Z" fill="#000000" fill-rule="nonzero" fill-opacity="1" /><path clip-path="url(#clip120)" d="M1921.84 1517.37 Q1918.23 1517.37 1916.4 1520.93 Q1914.59 1524.47 1914.59 1531.6 Q1914.59 1538.71 1916.4 1542.27 Q1918.23 1545.82 1921.84 1545.82 Q1925.47 1545.82 1927.28 1542.27 Q1929.11 1538.71 1929.11 1531.6 Q1929.11 1524.47 1927.28 1520.93 Q1925.47 1517.37 1921.84 1517.37 M1921.84 1513.66 Q1927.65 1513.66 1930.7 1518.27 Q1933.78 1522.85 1933.78 1531.6 Q1933.78 1540.33 1930.7 1544.94 Q1927.65 1549.52 1921.84 1549.52 Q1916.03 1549.52 1912.95 1544.94 Q1909.89 1540.33 1909.89 1531.6 Q1909.89 1522.85 1912.95 1518.27 Q1916.03 1513.66 1921.84 1513.66 Z" fill="#000000" fill-rule="nonzero" fill-opacity="1" /><path clip-path="url(#clip120)" d="M2240.02 1544.91 L2256.34 1544.91 L2256.34 1548.85 L2234.4 1548.85 L2234.4 1544.91 Q2237.06 1542.16 2241.65 1537.53 Q2246.25 1532.88 2247.43 1531.53 Q2249.68 1529.01 2250.56 1527.27 Q2251.46 1525.51 2251.46 1523.82 Q2251.46 1521.07 2249.52 1519.33 Q2247.59 1517.6 2244.49 1517.6 Q2242.29 1517.6 2239.84 1518.36 Q2237.41 1519.13 2234.63 1520.68 L2234.63 1515.95 Q2237.46 1514.82 2239.91 1514.24 Q2242.36 1513.66 2244.4 1513.66 Q2249.77 1513.66 2252.96 1516.35 Q2256.16 1519.03 2256.16 1523.52 Q2256.16 1525.65 2255.35 1527.57 Q2254.56 1529.47 2252.46 1532.07 Q2251.88 1532.74 2248.77 1535.95 Q2245.67 1539.15 2240.02 1544.91 Z" fill="#000000" fill-rule="nonzero" fill-opacity="1" /><path clip-path="url(#clip120)" d="M2266.21 1514.29 L2284.56 1514.29 L2284.56 1518.22 L2270.49 1518.22 L2270.49 1526.7 Q2271.51 1526.35 2272.52 1526.19 Q2273.54 1526 2274.56 1526 Q2280.35 1526 2283.73 1529.17 Q2287.11 1532.34 2287.11 1537.76 Q2287.11 1543.34 2283.64 1546.44 Q2280.16 1549.52 2273.84 1549.52 Q2271.67 1549.52 2269.4 1549.15 Q2267.15 1548.78 2264.75 1548.04 L2264.75 1543.34 Q2266.83 1544.47 2269.05 1545.03 Q2271.27 1545.58 2273.75 1545.58 Q2277.76 1545.58 2280.09 1543.48 Q2282.43 1541.37 2282.43 1537.76 Q2282.43 1534.15 2280.09 1532.04 Q2277.76 1529.94 2273.75 1529.94 Q2271.88 1529.94 2270 1530.35 Q2268.15 1530.77 2266.21 1531.65 L2266.21 1514.29 Z" fill="#000000" fill-rule="nonzero" fill-opacity="1" /><path clip-path="url(#clip120)" d="M2306.32 1517.37 Q2302.71 1517.37 2300.88 1520.93 Q2299.08 1524.47 2299.08 1531.6 Q2299.08 1538.71 2300.88 1542.27 Q2302.71 1545.82 2306.32 1545.82 Q2309.95 1545.82 2311.76 1542.27 Q2313.59 1538.71 2313.59 1531.6 Q2313.59 1524.47 2311.76 1520.93 Q2309.95 1517.37 2306.32 1517.37 M2306.32 1513.66 Q2312.13 1513.66 2315.19 1518.27 Q2318.27 1522.85 2318.27 1531.6 Q2318.27 1540.33 2315.19 1544.94 Q2312.13 1549.52 2306.32 1549.52 Q2300.51 1549.52 2297.43 1544.94 Q2294.38 1540.33 2294.38 1531.6 Q2294.38 1522.85 2297.43 1518.27 Q2300.51 1513.66 2306.32 1513.66 Z" fill="#000000" fill-rule="nonzero" fill-opacity="1" /><path clip-path="url(#clip120)" d="M2336.48 1517.37 Q2332.87 1517.37 2331.04 1520.93 Q2329.24 1524.47 2329.24 1531.6 Q2329.24 1538.71 2331.04 1542.27 Q2332.87 1545.82 2336.48 1545.82 Q2340.12 1545.82 2341.92 1542.27 Q2343.75 1538.71 2343.75 1531.6 Q2343.75 1524.47 2341.92 1520.93 Q2340.12 1517.37 2336.48 1517.37 M2336.48 1513.66 Q2342.29 1513.66 2345.35 1518.27 Q2348.43 1522.85 2348.43 1531.6 Q2348.43 1540.33 2345.35 1544.94 Q2342.29 1549.52 2336.48 1549.52 Q2330.67 1549.52 2327.59 1544.94 Q2324.54 1540.33 2324.54 1531.6 Q2324.54 1522.85 2327.59 1518.27 Q2330.67 1513.66 2336.48 1513.66 Z" fill="#000000" fill-rule="nonzero" fill-opacity="1" /><polyline clip-path="url(#clip122)" style="stroke:#000000; stroke-linecap:round; stroke-linejoin:round; stroke-width:2; stroke-opacity:0.1; fill:none" points="156.02,1343.89 2352.76,1343.89 "/>
<polyline clip-path="url(#clip122)" style="stroke:#000000; stroke-linecap:round; stroke-linejoin:round; stroke-width:2; stroke-opacity:0.1; fill:none" points="156.02,925.249 2352.76,925.249 "/>
<polyline clip-path="url(#clip122)" style="stroke:#000000; stroke-linecap:round; stroke-linejoin:round; stroke-width:2; stroke-opacity:0.1; fill:none" points="156.02,506.613 2352.76,506.613 "/>
<polyline clip-path="url(#clip122)" style="stroke:#000000; stroke-linecap:round; stroke-linejoin:round; stroke-width:2; stroke-opacity:0.1; fill:none" points="156.02,87.9763 2352.76,87.9763 "/>
<polyline clip-path="url(#clip120)" style="stroke:#000000; stroke-linecap:round; stroke-linejoin:round; stroke-width:4; stroke-opacity:1; fill:none" points="156.02,1486.45 156.02,47.2441 "/>
<polyline clip-path="url(#clip120)" style="stroke:#000000; stroke-linecap:round; stroke-linejoin:round; stroke-width:4; stroke-opacity:1; fill:none" points="156.02,1343.89 174.917,1343.89 "/>
<polyline clip-path="url(#clip120)" style="stroke:#000000; stroke-linecap:round; stroke-linejoin:round; stroke-width:4; stroke-opacity:1; fill:none" points="156.02,925.249 174.917,925.249 "/>
<polyline clip-path="url(#clip120)" style="stroke:#000000; stroke-linecap:round; stroke-linejoin:round; stroke-width:4; stroke-opacity:1; fill:none" points="156.02,506.613 174.917,506.613 "/>
<polyline clip-path="url(#clip120)" style="stroke:#000000; stroke-linecap:round; stroke-linejoin:round; stroke-width:4; stroke-opacity:1; fill:none" points="156.02,87.9763 174.917,87.9763 "/>
<path clip-path="url(#clip120)" d="M63.7467 1329.68 Q60.1356 1329.68 58.3069 1333.25 Q56.5014 1336.79 56.5014 1343.92 Q56.5014 1351.03 58.3069 1354.59 Q60.1356 1358.13 63.7467 1358.13 Q67.3809 1358.13 69.1865 1354.59 Q71.0152 1351.03 71.0152 1343.92 Q71.0152 1336.79 69.1865 1333.25 Q67.3809 1329.68 63.7467 1329.68 M63.7467 1325.98 Q69.5568 1325.98 72.6124 1330.59 Q75.6911 1335.17 75.6911 1343.92 Q75.6911 1352.65 72.6124 1357.25 Q69.5568 1361.84 63.7467 1361.84 Q57.9365 1361.84 54.8578 1357.25 Q51.8023 1352.65 51.8023 1343.92 Q51.8023 1335.17 54.8578 1330.59 Q57.9365 1325.98 63.7467 1325.98 Z" fill="#000000" fill-rule="nonzero" fill-opacity="1" /><path clip-path="url(#clip120)" d="M83.9086 1355.29 L88.7928 1355.29 L88.7928 1361.17 L83.9086 1361.17 L83.9086 1355.29 Z" fill="#000000" fill-rule="nonzero" fill-opacity="1" /><path clip-path="url(#clip120)" d="M97.7974 1326.61 L120.02 1326.61 L120.02 1328.6 L107.473 1361.17 L102.589 1361.17 L114.395 1330.54 L97.7974 1330.54 L97.7974 1326.61 Z" fill="#000000" fill-rule="nonzero" fill-opacity="1" /><path clip-path="url(#clip120)" d="M62.9365 911.048 Q59.3254 911.048 57.4967 914.612 Q55.6912 918.154 55.6912 925.284 Q55.6912 932.39 57.4967 935.955 Q59.3254 939.497 62.9365 939.497 Q66.5707 939.497 68.3763 935.955 Q70.205 932.39 70.205 925.284 Q70.205 918.154 68.3763 914.612 Q66.5707 911.048 62.9365 911.048 M62.9365 907.344 Q68.7467 907.344 71.8022 911.95 Q74.8809 916.534 74.8809 925.284 Q74.8809 934.01 71.8022 938.617 Q68.7467 943.2 62.9365 943.2 Q57.1264 943.2 54.0477 938.617 Q50.9921 934.01 50.9921 925.284 Q50.9921 916.534 54.0477 911.95 Q57.1264 907.344 62.9365 907.344 Z" fill="#000000" fill-rule="nonzero" fill-opacity="1" /><path clip-path="url(#clip120)" d="M83.0984 936.649 L87.9827 936.649 L87.9827 942.529 L83.0984 942.529 L83.0984 936.649 Z" fill="#000000" fill-rule="nonzero" fill-opacity="1" /><path clip-path="url(#clip120)" d="M108.168 926.117 Q104.834 926.117 102.913 927.899 Q101.015 929.682 101.015 932.807 Q101.015 935.932 102.913 937.714 Q104.834 939.497 108.168 939.497 Q111.501 939.497 113.422 937.714 Q115.344 935.909 115.344 932.807 Q115.344 929.682 113.422 927.899 Q111.524 926.117 108.168 926.117 M103.492 924.126 Q100.483 923.386 98.7928 921.325 Q97.1261 919.265 97.1261 916.302 Q97.1261 912.159 100.066 909.751 Q103.029 907.344 108.168 907.344 Q113.33 907.344 116.27 909.751 Q119.209 912.159 119.209 916.302 Q119.209 919.265 117.52 921.325 Q115.853 923.386 112.867 924.126 Q116.246 924.913 118.121 927.205 Q120.02 929.497 120.02 932.807 Q120.02 937.83 116.941 940.515 Q113.885 943.2 108.168 943.2 Q102.45 943.2 99.3715 940.515 Q96.316 937.83 96.316 932.807 Q96.316 929.497 98.2141 927.205 Q100.112 924.913 103.492 924.126 M101.779 916.742 Q101.779 919.427 103.446 920.932 Q105.135 922.436 108.168 922.436 Q111.177 922.436 112.867 920.932 Q114.58 919.427 114.58 916.742 Q114.58 914.057 112.867 912.552 Q111.177 911.048 108.168 911.048 Q105.135 911.048 103.446 912.552 Q101.779 914.057 101.779 916.742 Z" fill="#000000" fill-rule="nonzero" fill-opacity="1" /><path clip-path="url(#clip120)" d="M63.0291 492.411 Q59.418 492.411 57.5893 495.976 Q55.7838 499.518 55.7838 506.647 Q55.7838 513.754 57.5893 517.319 Q59.418 520.86 63.0291 520.86 Q66.6633 520.86 68.4689 517.319 Q70.2976 513.754 70.2976 506.647 Q70.2976 499.518 68.4689 495.976 Q66.6633 492.411 63.0291 492.411 M63.0291 488.708 Q68.8393 488.708 71.8948 493.314 Q74.9735 497.897 74.9735 506.647 Q74.9735 515.374 71.8948 519.981 Q68.8393 524.564 63.0291 524.564 Q57.2189 524.564 54.1403 519.981 Q51.0847 515.374 51.0847 506.647 Q51.0847 497.897 54.1403 493.314 Q57.2189 488.708 63.0291 488.708 Z" fill="#000000" fill-rule="nonzero" fill-opacity="1" /><path clip-path="url(#clip120)" d="M83.191 518.013 L88.0753 518.013 L88.0753 523.893 L83.191 523.893 L83.191 518.013 Z" fill="#000000" fill-rule="nonzero" fill-opacity="1" /><path clip-path="url(#clip120)" d="M98.3993 523.175 L98.3993 518.916 Q100.159 519.749 101.964 520.189 Q103.77 520.629 105.506 520.629 Q110.135 520.629 112.566 517.527 Q115.02 514.402 115.367 508.059 Q114.024 510.05 111.964 511.115 Q109.904 512.18 107.404 512.18 Q102.219 512.18 99.1863 509.055 Q96.1771 505.907 96.1771 500.467 Q96.1771 495.143 99.3252 491.925 Q102.473 488.708 107.705 488.708 Q113.7 488.708 116.848 493.314 Q120.02 497.897 120.02 506.647 Q120.02 514.819 116.131 519.703 Q112.265 524.564 105.714 524.564 Q103.955 524.564 102.149 524.217 Q100.344 523.869 98.3993 523.175 M107.705 508.522 Q110.853 508.522 112.682 506.37 Q114.533 504.217 114.533 500.467 Q114.533 496.74 112.682 494.587 Q110.853 492.411 107.705 492.411 Q104.557 492.411 102.705 494.587 Q100.876 496.74 100.876 500.467 Q100.876 504.217 102.705 506.37 Q104.557 508.522 107.705 508.522 Z" fill="#000000" fill-rule="nonzero" fill-opacity="1" /><path clip-path="url(#clip120)" d="M53.6541 101.321 L61.293 101.321 L61.293 74.9555 L52.9829 76.6222 L52.9829 72.3629 L61.2467 70.6963 L65.9226 70.6963 L65.9226 101.321 L73.5614 101.321 L73.5614 105.256 L53.6541 105.256 L53.6541 101.321 Z" fill="#000000" fill-rule="nonzero" fill-opacity="1" /><path clip-path="url(#clip120)" d="M83.0058 99.3767 L87.8901 99.3767 L87.8901 105.256 L83.0058 105.256 L83.0058 99.3767 Z" fill="#000000" fill-rule="nonzero" fill-opacity="1" /><path clip-path="url(#clip120)" d="M108.075 73.775 Q104.464 73.775 102.635 77.3398 Q100.83 80.8814 100.83 88.011 Q100.83 95.1174 102.635 98.6822 Q104.464 102.224 108.075 102.224 Q111.709 102.224 113.515 98.6822 Q115.344 95.1174 115.344 88.011 Q115.344 80.8814 113.515 77.3398 Q111.709 73.775 108.075 73.775 M108.075 70.0713 Q113.885 70.0713 116.941 74.6777 Q120.02 79.261 120.02 88.011 Q120.02 96.7378 116.941 101.344 Q113.885 105.928 108.075 105.928 Q102.265 105.928 99.1863 101.344 Q96.1308 96.7378 96.1308 88.011 Q96.1308 79.261 99.1863 74.6777 Q102.265 70.0713 108.075 70.0713 Z" fill="#000000" fill-rule="nonzero" fill-opacity="1" /><polyline clip-path="url(#clip122)" style="stroke:#009af9; stroke-linecap:round; stroke-linejoin:round; stroke-width:4; stroke-opacity:1; fill:none" points="218.191,1367.14 219.021,1196.13 219.85,1326.2 220.679,1196.13 221.508,951.829 222.338,1406.97 223.167,1284.08 223.996,1406.97 224.826,1406.97 225.655,1284.08 226.484,1150.19 227.313,1003.74 228.143,1054.06 228.972,1406.97 229.801,1445.72 230.631,1102.85 231.46,1196.13 232.289,1150.19 233.119,1150.19 233.948,1406.97 234.777,1284.08 235.606,785.703 236.436,1196.13 237.265,1003.74 238.094,1326.2 238.924,1054.06 239.753,1102.85 240.582,1196.13 241.411,842.894 242.241,1196.13 243.07,785.703 243.899,951.829 244.729,665.406 245.558,1406.97 246.387,842.894 247.216,898.24 248.046,726.574 248.875,1102.85 249.704,842.894 250.534,1003.74 251.363,785.703 252.192,1102.85 253.021,898.24 253.851,665.406 254.68,898.24 255.509,602.091 256.339,785.703 257.168,602.091 257.997,951.829 258.826,726.574 259.656,726.574 260.485,468.555 261.314,898.24 262.144,324.94 262.973,785.703 263.802,398.077 264.631,951.829 265.461,248.99 266.29,785.703 267.119,665.406 267.949,665.406 268.778,602.091 269.607,665.406 270.437,536.515 271.266,842.894 272.095,898.24 272.924,785.703 273.754,468.555 274.583,468.555 275.412,1003.74 276.242,536.515 277.071,665.406 277.9,785.703 278.729,665.406 279.559,536.515 280.388,665.406 281.217,898.24 282.047,602.091 282.876,468.555 283.705,951.829 284.534,398.077 285.364,726.574 286.193,842.894 287.022,665.406 287.852,1003.74 288.681,468.555 289.51,602.091 290.339,726.574 291.169,536.515 291.998,951.829 292.827,665.406 293.657,468.555 294.486,602.091 295.315,536.515 296.144,726.574 296.974,468.555 297.803,785.703 298.632,898.24 299.462,536.515 300.291,536.515 301.12,468.555 301.949,602.091 302.779,665.406 303.608,468.555 304.437,602.091 305.267,602.091 306.096,536.515 306.925,785.703 307.755,602.091 308.584,898.24 309.413,536.515 310.242,398.077 311.072,536.515 311.901,842.894 312.73,602.091 313.56,398.077 314.389,665.406 315.218,898.24 316.047,398.077 316.877,248.99 317.706,398.077 318.535,602.091 319.365,248.99 320.194,602.091 321.023,170.062 321.852,665.406 322.682,398.077 323.511,468.555 324.34,898.24 325.17,726.574 325.999,898.24 326.828,398.077 327.657,665.406 328.487,536.515 329.316,665.406 330.145,536.515 330.975,602.091 331.804,726.574 332.633,324.94 333.462,665.406 334.292,785.703 335.121,726.574 335.95,398.077 336.78,324.94 337.609,726.574 338.438,536.515 339.267,398.077 340.097,324.94 340.926,536.515 341.755,324.94 342.585,536.515 343.414,665.406 344.243,324.94 345.073,468.555 345.902,324.94 346.731,398.077 347.56,536.515 348.39,398.077 349.219,398.077 350.048,398.077 350.878,468.555 351.707,398.077 352.536,398.077 353.365,398.077 354.195,665.406 355.024,536.515 355.853,324.94 356.683,398.077 357.512,170.062 358.341,324.94 359.17,324.94 360,324.94 360.829,398.077 361.658,602.091 362.488,468.555 363.317,398.077 364.146,468.555 364.975,602.091 365.805,170.062 366.634,170.062 367.463,324.94 368.293,536.515 369.122,324.94 369.951,324.94 370.78,324.94 371.61,468.555 372.439,324.94 373.268,248.99 374.098,324.94 374.927,248.99 375.756,324.94 376.585,468.555 377.415,324.94 378.244,170.062 379.073,87.9763 379.903,324.94 380.732,248.99 381.561,248.99 382.391,87.9763 383.22,170.062 384.049,248.99 384.878,170.062 385.708,87.9763 386.537,170.062 387.366,324.94 388.196,398.077 389.025,536.515 389.854,398.077 390.683,468.555 391.513,324.94 392.342,87.9763 393.171,324.94 394.001,248.99 394.83,324.94 395.659,398.077 396.488,324.94 397.318,324.94 398.147,170.062 398.976,398.077 399.806,536.515 400.635,324.94 401.464,248.99 402.293,536.515 403.123,324.94 403.952,248.99 404.781,170.062 405.611,248.99 406.44,468.555 407.269,170.062 408.098,324.94 408.928,248.99 409.757,468.555 410.586,248.99 411.416,324.94 412.245,398.077 413.074,324.94 413.903,170.062 414.733,170.062 415.562,324.94 416.391,170.062 417.221,248.99 418.05,324.94 418.879,248.99 419.709,170.062 420.538,248.99 421.367,170.062 422.196,87.9763 423.026,324.94 423.855,324.94 424.684,536.515 425.514,468.555 426.343,324.94 427.172,87.9763 428.001,248.99 428.831,248.99 429.66,170.062 430.489,248.99 431.319,248.99 432.148,324.94 432.977,170.062 433.806,170.062 434.636,324.94 435.465,398.077 436.294,248.99 437.124,324.94 437.953,248.99 438.782,398.077 439.611,398.077 440.441,248.99 441.27,248.99 442.099,248.99 442.929,87.9763 443.758,87.9763 444.587,170.062 445.416,324.94 446.246,170.062 447.075,170.062 447.904,87.9763 448.734,170.062 449.563,248.99 450.392,170.062 451.221,398.077 452.051,170.062 452.88,87.9763 453.709,324.94 454.539,87.9763 455.368,87.9763 456.197,398.077 457.027,324.94 457.856,248.99 458.685,324.94 459.514,87.9763 460.344,248.99 461.173,170.062 462.002,248.99 462.832,248.99 463.661,248.99 464.49,87.9763 465.319,87.9763 466.149,468.555 466.978,87.9763 467.807,170.062 468.637,170.062 469.466,398.077 470.295,87.9763 471.124,324.94 471.954,248.99 472.783,248.99 473.612,170.062 474.442,324.94 475.271,536.515 476.1,324.94 476.929,324.94 477.759,248.99 478.588,170.062 479.417,87.9763 480.247,87.9763 481.076,170.062 481.905,248.99 482.734,170.062 483.564,170.062 484.393,170.062 485.222,324.94 486.052,170.062 486.881,248.99 487.71,170.062 488.539,87.9763 489.369,87.9763 490.198,248.99 491.027,324.94 491.857,87.9763 492.686,324.94 493.515,170.062 494.345,87.9763 495.174,170.062 496.003,170.062 496.832,248.99 497.662,324.94 498.491,87.9763 499.32,324.94 500.15,170.062 500.979,398.077 501.808,170.062 502.637,248.99 503.467,248.99 504.296,170.062 505.125,170.062 505.955,87.9763 506.784,87.9763 507.613,170.062 508.442,170.062 509.272,248.99 510.101,87.9763 510.93,170.062 511.76,87.9763 512.589,170.062 513.418,87.9763 514.247,170.062 515.077,170.062 515.906,324.94 516.735,248.99 517.565,170.062 518.394,248.99 519.223,248.99 520.052,87.9763 520.882,248.99 521.711,248.99 522.54,87.9763 523.37,248.99 524.199,324.94 525.028,324.94 525.857,248.99 526.687,468.555 527.516,170.062 528.345,248.99 529.175,170.062 530.004,170.062 530.833,248.99 531.662,87.9763 532.492,87.9763 533.321,170.062 534.15,248.99 534.98,87.9763 535.809,248.99 536.638,87.9763 537.468,248.99 538.297,87.9763 539.126,248.99 539.955,324.94 540.785,87.9763 541.614,324.94 542.443,170.062 543.273,248.99 544.102,170.062 544.931,87.9763 545.76,170.062 546.59,170.062 547.419,170.062 548.248,324.94 549.078,87.9763 549.907,170.062 550.736,170.062 551.565,248.99 552.395,87.9763 553.224,87.9763 554.053,87.9763 554.883,324.94 555.712,248.99 556.541,87.9763 557.37,87.9763 558.2,170.062 559.029,170.062 559.858,324.94 560.688,87.9763 561.517,87.9763 562.346,248.99 563.175,87.9763 564.005,248.99 564.834,324.94 565.663,87.9763 566.493,170.062 567.322,170.062 568.151,170.062 568.98,398.077 569.81,170.062 570.639,87.9763 571.468,170.062 572.298,170.062 573.127,170.062 573.956,248.99 574.786,248.99 575.615,170.062 576.444,324.94 577.273,87.9763 578.103,248.99 578.932,324.94 579.761,248.99 580.591,398.077 581.42,170.062 582.249,170.062 583.078,87.9763 583.908,248.99 584.737,248.99 585.566,87.9763 586.396,87.9763 587.225,87.9763 588.054,87.9763 588.883,170.062 589.713,87.9763 590.542,170.062 591.371,170.062 592.201,170.062 593.03,87.9763 593.859,170.062 594.688,87.9763 595.518,87.9763 596.347,170.062 597.176,87.9763 598.006,170.062 598.835,170.062 599.664,87.9763 600.493,324.94 601.323,248.99 602.152,170.062 602.981,87.9763 603.811,170.062 604.64,248.99 605.469,170.062 606.298,398.077 607.128,87.9763 607.957,324.94 608.786,170.062 609.616,87.9763 610.445,248.99 611.274,170.062 612.104,87.9763 612.933,170.062 613.762,87.9763 614.591,170.062 615.421,87.9763 616.25,87.9763 617.079,170.062 617.909,87.9763 618.738,87.9763 619.567,87.9763 620.396,170.062 621.226,248.99 622.055,87.9763 622.884,87.9763 623.714,87.9763 624.543,170.062 625.372,87.9763 626.201,170.062 627.031,87.9763 627.86,248.99 628.689,170.062 629.519,87.9763 630.348,248.99 631.177,170.062 632.006,248.99 632.836,170.062 633.665,248.99 634.494,87.9763 635.324,87.9763 636.153,170.062 636.982,248.99 637.811,87.9763 638.641,248.99 639.47,170.062 640.299,87.9763 641.129,170.062 641.958,170.062 642.787,170.062 643.616,170.062 644.446,248.99 645.275,170.062 646.104,87.9763 646.934,248.99 647.763,87.9763 648.592,248.99 649.422,324.94 650.251,87.9763 651.08,87.9763 651.909,170.062 652.739,398.077 653.568,170.062 654.397,170.062 655.227,87.9763 656.056,87.9763 656.885,170.062 657.714,170.062 658.544,170.062 659.373,87.9763 660.202,87.9763 661.032,87.9763 661.861,87.9763 662.69,87.9763 663.519,170.062 664.349,87.9763 665.178,170.062 666.007,87.9763 666.837,170.062 667.666,170.062 668.495,170.062 669.324,170.062 670.154,87.9763 670.983,87.9763 671.812,87.9763 672.642,248.99 673.471,87.9763 674.3,87.9763 675.129,87.9763 675.959,398.077 676.788,248.99 677.617,248.99 678.447,87.9763 679.276,248.99 680.105,87.9763 680.934,87.9763 681.764,170.062 682.593,87.9763 683.422,170.062 684.252,87.9763 685.081,248.99 685.91,87.9763 686.74,170.062 687.569,170.062 688.398,87.9763 689.227,87.9763 690.057,87.9763 690.886,87.9763 691.715,87.9763 692.545,87.9763 693.374,170.062 694.203,324.94 695.032,248.99 695.862,170.062 696.691,87.9763 697.52,248.99 698.35,87.9763 699.179,87.9763 700.008,170.062 700.837,87.9763 701.667,87.9763 702.496,248.99 703.325,248.99 704.155,248.99 704.984,87.9763 705.813,87.9763 706.642,87.9763 707.472,170.062 708.301,248.99 709.13,87.9763 709.96,170.062 710.789,87.9763 711.618,87.9763 712.447,170.062 713.277,170.062 714.106,170.062 714.935,87.9763 715.765,170.062 716.594,170.062 717.423,87.9763 718.252,87.9763 719.082,170.062 719.911,87.9763 720.74,87.9763 721.57,170.062 722.399,87.9763 723.228,248.99 724.058,170.062 724.887,87.9763 725.716,87.9763 726.545,170.062 727.375,170.062 728.204,248.99 729.033,248.99 729.863,248.99 730.692,248.99 731.521,248.99 732.35,324.94 733.18,87.9763 734.009,87.9763 734.838,170.062 735.668,87.9763 736.497,248.99 737.326,87.9763 738.155,170.062 738.985,248.99 739.814,170.062 740.643,87.9763 741.473,170.062 742.302,324.94 743.131,87.9763 743.96,170.062 744.79,170.062 745.619,170.062 746.448,170.062 747.278,87.9763 748.107,170.062 748.936,87.9763 749.765,87.9763 750.595,87.9763 751.424,170.062 752.253,87.9763 753.083,170.062 753.912,87.9763 754.741,248.99 755.57,87.9763 756.4,87.9763 757.229,248.99 758.058,170.062 758.888,87.9763 759.717,87.9763 760.546,87.9763 761.376,87.9763 762.205,170.062 763.034,87.9763 763.863,87.9763 764.693,87.9763 765.522,87.9763 766.351,87.9763 767.181,170.062 768.01,170.062 768.839,248.99 769.668,324.94 770.498,87.9763 771.327,248.99 772.156,324.94 772.986,248.99 773.815,87.9763 774.644,87.9763 775.473,87.9763 776.303,87.9763 777.132,324.94 777.961,87.9763 778.791,170.062 779.62,87.9763 780.449,87.9763 781.278,170.062 782.108,170.062 782.937,170.062 783.766,87.9763 784.596,87.9763 785.425,170.062 786.254,87.9763 787.083,87.9763 787.913,87.9763 788.742,87.9763 789.571,248.99 790.401,87.9763 791.23,87.9763 792.059,170.062 792.888,170.062 793.718,87.9763 794.547,170.062 795.376,248.99 796.206,248.99 797.035,87.9763 797.864,87.9763 798.694,170.062 799.523,170.062 800.352,87.9763 801.181,248.99 802.011,248.99 802.84,170.062 803.669,170.062 804.499,170.062 805.328,87.9763 806.157,87.9763 806.986,170.062 807.816,87.9763 808.645,87.9763 809.474,87.9763 810.304,170.062 811.133,170.062 811.962,87.9763 812.791,170.062 813.621,87.9763 814.45,87.9763 815.279,87.9763 816.109,170.062 816.938,87.9763 817.767,170.062 818.596,87.9763 819.426,87.9763 820.255,248.99 821.084,170.062 821.914,87.9763 822.743,170.062 823.572,87.9763 824.401,87.9763 825.231,170.062 826.06,87.9763 826.889,87.9763 827.719,87.9763 828.548,87.9763 829.377,87.9763 830.206,87.9763 831.036,248.99 831.865,87.9763 832.694,87.9763 833.524,170.062 834.353,87.9763 835.182,170.062 836.012,170.062 836.841,248.99 837.67,248.99 838.499,170.062 839.329,170.062 840.158,87.9763 840.987,248.99 841.817,87.9763 842.646,170.062 843.475,170.062 844.304,87.9763 845.134,87.9763 845.963,248.99 846.792,170.062 847.622,87.9763 848.451,87.9763 849.28,87.9763 850.109,170.062 850.939,170.062 851.768,170.062 852.597,87.9763 853.427,248.99 854.256,170.062 855.085,87.9763 855.914,87.9763 856.744,87.9763 857.573,87.9763 858.402,248.99 859.232,248.99 860.061,170.062 860.89,248.99 861.719,170.062 862.549,170.062 863.378,248.99 864.207,87.9763 865.037,87.9763 865.866,87.9763 866.695,87.9763 867.524,87.9763 868.354,170.062 869.183,170.062 870.012,170.062 870.842,248.99 871.671,87.9763 872.5,87.9763 873.329,170.062 874.159,87.9763 874.988,248.99 875.817,170.062 876.647,248.99 877.476,87.9763 878.305,87.9763 879.135,170.062 879.964,170.062 880.793,87.9763 881.622,248.99 882.452,170.062 883.281,87.9763 884.11,170.062 884.94,87.9763 885.769,170.062 886.598,248.99 887.427,87.9763 888.257,87.9763 889.086,87.9763 889.915,87.9763 890.745,170.062 891.574,87.9763 892.403,170.062 893.232,87.9763 894.062,87.9763 894.891,170.062 895.72,87.9763 896.55,170.062 897.379,87.9763 898.208,170.062 899.037,170.062 899.867,170.062 900.696,87.9763 901.525,170.062 902.355,87.9763 903.184,87.9763 904.013,87.9763 904.842,87.9763 905.672,248.99 906.501,248.99 907.33,87.9763 908.16,87.9763 908.989,87.9763 909.818,87.9763 910.647,87.9763 911.477,170.062 912.306,87.9763 913.135,87.9763 913.965,248.99 914.794,87.9763 915.623,170.062 916.453,170.062 917.282,87.9763 918.111,87.9763 918.94,248.99 919.77,87.9763 920.599,248.99 921.428,87.9763 922.258,87.9763 923.087,170.062 923.916,87.9763 924.745,170.062 925.575,87.9763 926.404,87.9763 927.233,87.9763 928.063,87.9763 928.892,87.9763 929.721,170.062 930.55,87.9763 931.38,87.9763 932.209,87.9763 933.038,87.9763 933.868,87.9763 934.697,248.99 935.526,87.9763 936.355,87.9763 937.185,87.9763 938.014,170.062 938.843,87.9763 939.673,170.062 940.502,87.9763 941.331,324.94 942.16,87.9763 942.99,87.9763 943.819,170.062 944.648,170.062 945.478,87.9763 946.307,170.062 947.136,87.9763 947.965,87.9763 948.795,170.062 949.624,87.9763 950.453,87.9763 951.283,87.9763 952.112,170.062 952.941,87.9763 953.771,170.062 954.6,170.062 955.429,87.9763 956.258,87.9763 957.088,170.062 957.917,87.9763 958.746,170.062 959.576,87.9763 960.405,170.062 961.234,87.9763 962.063,170.062 962.893,87.9763 963.722,248.99 964.551,170.062 965.381,170.062 966.21,248.99 967.039,170.062 967.868,170.062 968.698,170.062 969.527,87.9763 970.356,170.062 971.186,87.9763 972.015,87.9763 972.844,170.062 973.673,87.9763 974.503,87.9763 975.332,87.9763 976.161,87.9763 976.991,87.9763 977.82,170.062 978.649,87.9763 979.478,170.062 980.308,87.9763 981.137,87.9763 981.966,170.062 982.796,87.9763 983.625,170.062 984.454,87.9763 985.283,87.9763 986.113,87.9763 986.942,170.062 987.771,87.9763 988.601,87.9763 989.43,87.9763 990.259,87.9763 991.089,170.062 991.918,87.9763 992.747,248.99 993.576,170.062 994.406,87.9763 995.235,170.062 996.064,324.94 996.894,87.9763 997.723,170.062 998.552,87.9763 999.381,170.062 1000.21,87.9763 1001.04,87.9763 1001.87,170.062 1002.7,170.062 1003.53,87.9763 1004.36,87.9763 1005.19,170.062 1006.02,87.9763 1006.85,170.062 1007.67,87.9763 1008.5,87.9763 1009.33,170.062 1010.16,87.9763 1010.99,87.9763 1011.82,87.9763 1012.65,248.99 1013.48,87.9763 1014.31,170.062 1015.14,87.9763 1015.97,87.9763 1016.8,87.9763 1017.63,87.9763 1018.46,87.9763 1019.28,87.9763 1020.11,87.9763 1020.94,87.9763 1021.77,170.062 1022.6,87.9763 1023.43,87.9763 1024.26,170.062 1025.09,170.062 1025.92,87.9763 1026.75,87.9763 1027.58,170.062 1028.41,87.9763 1029.24,87.9763 1030.07,87.9763 1030.89,248.99 1031.72,170.062 1032.55,87.9763 1033.38,170.062 1034.21,87.9763 1035.04,87.9763 1035.87,87.9763 1036.7,170.062 1037.53,170.062 1038.36,170.062 1039.19,87.9763 1040.02,87.9763 1040.85,87.9763 1041.68,170.062 1042.5,87.9763 1043.33,87.9763 1044.16,170.062 1044.99,170.062 1045.82,170.062 1046.65,87.9763 1047.48,170.062 1048.31,87.9763 1049.14,170.062 1049.97,87.9763 1050.8,87.9763 1051.63,87.9763 1052.46,170.062 1053.29,87.9763 1054.11,87.9763 1054.94,170.062 1055.77,87.9763 1056.6,87.9763 1057.43,87.9763 1058.26,87.9763 1059.09,87.9763 1059.92,87.9763 1060.75,87.9763 1061.58,170.062 1062.41,87.9763 1063.24,87.9763 1064.07,170.062 1064.9,170.062 1065.72,170.062 1066.55,87.9763 1067.38,248.99 1068.21,87.9763 1069.04,87.9763 1069.87,87.9763 1070.7,170.062 1071.53,87.9763 1072.36,170.062 1073.19,87.9763 1074.02,87.9763 1074.85,87.9763 1075.68,170.062 1076.51,87.9763 1077.33,87.9763 1078.16,87.9763 1078.99,248.99 1079.82,87.9763 1080.65,87.9763 1081.48,87.9763 1082.31,248.99 1083.14,170.062 1083.97,87.9763 1084.8,87.9763 1085.63,87.9763 1086.46,87.9763 1087.29,170.062 1088.12,87.9763 1088.94,87.9763 1089.77,87.9763 1090.6,170.062 1091.43,170.062 1092.26,87.9763 1093.09,87.9763 1093.92,87.9763 1094.75,87.9763 1095.58,87.9763 1096.41,248.99 1097.24,248.99 1098.07,87.9763 1098.9,87.9763 1099.73,87.9763 1100.55,87.9763 1101.38,170.062 1102.21,87.9763 1103.04,87.9763 1103.87,87.9763 1104.7,324.94 1105.53,87.9763 1106.36,87.9763 1107.19,87.9763 1108.02,170.062 1108.85,87.9763 1109.68,87.9763 1110.51,170.062 1111.34,87.9763 1112.16,87.9763 1112.99,248.99 1113.82,87.9763 1114.65,248.99 1115.48,87.9763 1116.31,87.9763 1117.14,170.062 1117.97,170.062 1118.8,170.062 1119.63,170.062 1120.46,87.9763 1121.29,170.062 1122.12,87.9763 1122.95,87.9763 1123.77,87.9763 1124.6,87.9763 1125.43,87.9763 1126.26,87.9763 1127.09,87.9763 1127.92,170.062 1128.75,87.9763 1129.58,87.9763 1130.41,170.062 1131.24,170.062 1132.07,248.99 1132.9,170.062 1133.73,87.9763 1134.56,87.9763 1135.38,87.9763 1136.21,87.9763 1137.04,87.9763 1137.87,87.9763 1138.7,170.062 1139.53,87.9763 1140.36,170.062 1141.19,87.9763 1142.02,87.9763 1142.85,87.9763 1143.68,87.9763 1144.51,87.9763 1145.34,87.9763 1146.17,87.9763 1146.99,87.9763 1147.82,170.062 1148.65,87.9763 1149.48,87.9763 1150.31,87.9763 1151.14,87.9763 1151.97,170.062 1152.8,87.9763 1153.63,87.9763 1154.46,87.9763 1155.29,87.9763 1156.12,170.062 1156.95,87.9763 1157.78,170.062 1158.6,87.9763 1159.43,87.9763 1160.26,87.9763 1161.09,248.99 1161.92,87.9763 1162.75,170.062 1163.58,87.9763 1164.41,170.062 1165.24,87.9763 1166.07,170.062 1166.9,87.9763 1167.73,87.9763 1168.56,87.9763 1169.39,87.9763 1170.21,87.9763 1171.04,87.9763 1171.87,87.9763 1172.7,87.9763 1173.53,87.9763 1174.36,87.9763 1175.19,170.062 1176.02,170.062 1176.85,87.9763 1177.68,87.9763 1178.51,87.9763 1179.34,87.9763 1180.17,248.99 1181,87.9763 1181.82,248.99 1182.65,87.9763 1183.48,87.9763 1184.31,87.9763 1185.14,87.9763 1185.97,87.9763 1186.8,170.062 1187.63,87.9763 1188.46,87.9763 1189.29,170.062 1190.12,87.9763 1190.95,170.062 1191.78,87.9763 1192.61,170.062 1193.43,87.9763 1194.26,248.99 1195.09,248.99 1195.92,87.9763 1196.75,87.9763 1197.58,87.9763 1198.41,170.062 1199.24,170.062 1200.07,87.9763 1200.9,87.9763 1201.73,87.9763 1202.56,170.062 1203.39,170.062 1204.22,87.9763 1205.05,87.9763 1205.87,87.9763 1206.7,87.9763 1207.53,87.9763 1208.36,87.9763 1209.19,87.9763 1210.02,170.062 1210.85,87.9763 1211.68,87.9763 1212.51,170.062 1213.34,87.9763 1214.17,87.9763 1215,170.062 1215.83,87.9763 1216.66,87.9763 1217.48,87.9763 1218.31,87.9763 1219.14,87.9763 1219.97,87.9763 1220.8,87.9763 1221.63,87.9763 1222.46,170.062 1223.29,87.9763 1224.12,87.9763 1224.95,87.9763 1225.78,87.9763 1226.61,87.9763 1227.44,87.9763 1228.27,87.9763 1229.09,87.9763 1229.92,87.9763 1230.75,87.9763 1231.58,87.9763 1232.41,170.062 1233.24,87.9763 1234.07,87.9763 1234.9,87.9763 1235.73,248.99 1236.56,87.9763 1237.39,170.062 1238.22,87.9763 1239.05,87.9763 1239.88,170.062 1240.7,170.062 1241.53,87.9763 1242.36,87.9763 1243.19,170.062 1244.02,87.9763 1244.85,170.062 1245.68,87.9763 1246.51,87.9763 1247.34,87.9763 1248.17,248.99 1249,87.9763 1249.83,87.9763 1250.66,87.9763 1251.49,170.062 1252.31,87.9763 1253.14,170.062 1253.97,87.9763 1254.8,87.9763 1255.63,87.9763 1256.46,87.9763 1257.29,87.9763 1258.12,87.9763 1258.95,87.9763 1259.78,87.9763 1260.61,87.9763 1261.44,170.062 1262.27,87.9763 1263.1,87.9763 1263.92,87.9763 1264.75,170.062 1265.58,87.9763 1266.41,87.9763 1267.24,87.9763 1268.07,170.062 1268.9,87.9763 1269.73,87.9763 1270.56,87.9763 1271.39,87.9763 1272.22,170.062 1273.05,87.9763 1273.88,87.9763 1274.71,87.9763 1275.53,87.9763 1276.36,87.9763 1277.19,87.9763 1278.02,170.062 1278.85,87.9763 1279.68,87.9763 1280.51,87.9763 1281.34,87.9763 1282.17,87.9763 1283,87.9763 1283.83,170.062 1284.66,170.062 1285.49,87.9763 1286.32,170.062 1287.14,87.9763 1287.97,87.9763 1288.8,87.9763 1289.63,87.9763 1290.46,324.94 1291.29,87.9763 1292.12,87.9763 1292.95,87.9763 1293.78,170.062 1294.61,87.9763 1295.44,87.9763 1296.27,87.9763 1297.1,87.9763 1297.93,87.9763 1298.75,170.062 1299.58,87.9763 1300.41,87.9763 1301.24,87.9763 1302.07,87.9763 1302.9,87.9763 1303.73,87.9763 1304.56,87.9763 1305.39,87.9763 1306.22,170.062 1307.05,87.9763 1307.88,87.9763 1308.71,170.062 1309.54,87.9763 1310.36,324.94 1311.19,170.062 1312.02,87.9763 1312.85,87.9763 1313.68,248.99 1314.51,248.99 1315.34,87.9763 1316.17,87.9763 1317,87.9763 1317.83,87.9763 1318.66,87.9763 1319.49,87.9763 1320.32,87.9763 1321.15,87.9763 1321.97,87.9763 1322.8,87.9763 1323.63,170.062 1324.46,87.9763 1325.29,170.062 1326.12,87.9763 1326.95,170.062 1327.78,170.062 1328.61,87.9763 1329.44,87.9763 1330.27,87.9763 1331.1,87.9763 1331.93,87.9763 1332.76,248.99 1333.58,324.94 1334.41,170.062 1335.24,87.9763 1336.07,87.9763 1336.9,87.9763 1337.73,87.9763 1338.56,87.9763 1339.39,87.9763 1340.22,87.9763 1341.05,87.9763 1341.88,87.9763 1342.71,87.9763 1343.54,87.9763 1344.37,87.9763 1345.19,170.062 1346.02,87.9763 1346.85,87.9763 1347.68,87.9763 1348.51,87.9763 1349.34,170.062 1350.17,87.9763 1351,87.9763 1351.83,87.9763 1352.66,87.9763 1353.49,87.9763 1354.32,170.062 1355.15,87.9763 1355.98,87.9763 1356.8,87.9763 1357.63,87.9763 1358.46,87.9763 1359.29,87.9763 1360.12,87.9763 1360.95,87.9763 1361.78,170.062 1362.61,170.062 1363.44,87.9763 1364.27,87.9763 1365.1,87.9763 1365.93,170.062 1366.76,87.9763 1367.59,170.062 1368.41,87.9763 1369.24,248.99 1370.07,87.9763 1370.9,87.9763 1371.73,87.9763 1372.56,87.9763 1373.39,87.9763 1374.22,87.9763 1375.05,87.9763 1375.88,170.062 1376.71,87.9763 1377.54,87.9763 1378.37,87.9763 1379.2,87.9763 1380.02,170.062 1380.85,87.9763 1381.68,170.062 1382.51,87.9763 1383.34,170.062 1384.17,170.062 1385,87.9763 1385.83,87.9763 1386.66,87.9763 1387.49,170.062 1388.32,87.9763 1389.15,87.9763 1389.98,87.9763 1390.81,87.9763 1391.64,248.99 1392.46,87.9763 1393.29,87.9763 1394.12,87.9763 1394.95,170.062 1395.78,87.9763 1396.61,170.062 1397.44,87.9763 1398.27,87.9763 1399.1,170.062 1399.93,87.9763 1400.76,87.9763 1401.59,87.9763 1402.42,170.062 1403.25,87.9763 1404.07,87.9763 1404.9,87.9763 1405.73,87.9763 1406.56,170.062 1407.39,87.9763 1408.22,87.9763 1409.05,87.9763 1409.88,87.9763 1410.71,170.062 1411.54,170.062 1412.37,87.9763 1413.2,87.9763 1414.03,170.062 1414.86,87.9763 1415.68,87.9763 1416.51,170.062 1417.34,87.9763 1418.17,87.9763 1419,87.9763 1419.83,87.9763 1420.66,87.9763 1421.49,87.9763 1422.32,87.9763 1423.15,87.9763 1423.98,87.9763 1424.81,87.9763 1425.64,87.9763 1426.47,87.9763 1427.29,87.9763 1428.12,87.9763 1428.95,170.062 1429.78,170.062 1430.61,170.062 1431.44,170.062 1432.27,87.9763 1433.1,87.9763 1433.93,87.9763 1434.76,87.9763 1435.59,170.062 1436.42,87.9763 1437.25,87.9763 1438.08,170.062 1438.9,170.062 1439.73,87.9763 1440.56,170.062 1441.39,87.9763 1442.22,87.9763 1443.05,87.9763 1443.88,87.9763 1444.71,170.062 1445.54,87.9763 1446.37,170.062 1447.2,87.9763 1448.03,87.9763 1448.86,87.9763 1449.69,87.9763 1450.51,87.9763 1451.34,87.9763 1452.17,87.9763 1453,87.9763 1453.83,170.062 1454.66,170.062 1455.49,87.9763 1456.32,170.062 1457.15,87.9763 1457.98,170.062 1458.81,170.062 1459.64,87.9763 1460.47,87.9763 1461.3,87.9763 1462.12,248.99 1462.95,170.062 1463.78,87.9763 1464.61,87.9763 1465.44,87.9763 1466.27,87.9763 1467.1,87.9763 1467.93,170.062 1468.76,87.9763 1469.59,87.9763 1470.42,87.9763 1471.25,87.9763 1472.08,87.9763 1472.91,87.9763 1473.73,170.062 1474.56,170.062 1475.39,87.9763 1476.22,87.9763 1477.05,87.9763 1477.88,170.062 1478.71,87.9763 1479.54,87.9763 1480.37,87.9763 1481.2,170.062 1482.03,87.9763 1482.86,87.9763 1483.69,87.9763 1484.52,170.062 1485.34,87.9763 1486.17,170.062 1487,87.9763 1487.83,87.9763 1488.66,170.062 1489.49,87.9763 1490.32,170.062 1491.15,87.9763 1491.98,87.9763 1492.81,170.062 1493.64,87.9763 1494.47,87.9763 1495.3,87.9763 1496.13,87.9763 1496.95,170.062 1497.78,87.9763 1498.61,87.9763 1499.44,87.9763 1500.27,170.062 1501.1,87.9763 1501.93,87.9763 1502.76,248.99 1503.59,170.062 1504.42,87.9763 1505.25,87.9763 1506.08,87.9763 1506.91,87.9763 1507.74,87.9763 1508.56,87.9763 1509.39,170.062 1510.22,87.9763 1511.05,248.99 1511.88,87.9763 1512.71,87.9763 1513.54,170.062 1514.37,87.9763 1515.2,87.9763 1516.03,87.9763 1516.86,87.9763 1517.69,87.9763 1518.52,170.062 1519.35,87.9763 1520.17,87.9763 1521,87.9763 1521.83,87.9763 1522.66,87.9763 1523.49,170.062 1524.32,87.9763 1525.15,87.9763 1525.98,87.9763 1526.81,87.9763 1527.64,87.9763 1528.47,170.062 1529.3,87.9763 1530.13,170.062 1530.96,87.9763 1531.78,170.062 1532.61,87.9763 1533.44,87.9763 1534.27,87.9763 1535.1,87.9763 1535.93,87.9763 1536.76,170.062 1537.59,87.9763 1538.42,87.9763 1539.25,87.9763 1540.08,87.9763 1540.91,87.9763 1541.74,87.9763 1542.57,87.9763 1543.39,87.9763 1544.22,248.99 1545.05,87.9763 1545.88,87.9763 1546.71,87.9763 1547.54,87.9763 1548.37,87.9763 1549.2,87.9763 1550.03,87.9763 1550.86,87.9763 1551.69,87.9763 1552.52,87.9763 1553.35,87.9763 1554.18,87.9763 1555,87.9763 1555.83,87.9763 1556.66,87.9763 1557.49,87.9763 1558.32,87.9763 1559.15,87.9763 1559.98,248.99 1560.81,170.062 1561.64,87.9763 1562.47,87.9763 1563.3,87.9763 1564.13,87.9763 1564.96,87.9763 1565.79,87.9763 1566.61,87.9763 1567.44,87.9763 1568.27,87.9763 1569.1,87.9763 1569.93,87.9763 1570.76,87.9763 1571.59,87.9763 1572.42,87.9763 1573.25,87.9763 1574.08,87.9763 1574.91,87.9763 1575.74,87.9763 1576.57,170.062 1577.4,87.9763 1578.23,170.062 1579.05,87.9763 1579.88,87.9763 1580.71,87.9763 1581.54,170.062 1582.37,87.9763 1583.2,87.9763 1584.03,170.062 1584.86,87.9763 1585.69,170.062 1586.52,87.9763 1587.35,170.062 1588.18,170.062 1589.01,87.9763 1589.84,87.9763 1590.66,87.9763 1591.49,87.9763 1592.32,87.9763 1593.15,87.9763 1593.98,248.99 1594.81,87.9763 1595.64,170.062 1596.47,87.9763 1597.3,87.9763 1598.13,87.9763 1598.96,87.9763 1599.79,87.9763 1600.62,87.9763 1601.45,87.9763 1602.27,248.99 1603.1,87.9763 1603.93,87.9763 1604.76,170.062 1605.59,87.9763 1606.42,87.9763 1607.25,87.9763 1608.08,170.062 1608.91,87.9763 1609.74,87.9763 1610.57,87.9763 1611.4,87.9763 1612.23,87.9763 1613.06,87.9763 1613.88,87.9763 1614.71,87.9763 1615.54,170.062 1616.37,248.99 1617.2,87.9763 1618.03,87.9763 1618.86,87.9763 1619.69,87.9763 1620.52,87.9763 1621.35,170.062 1622.18,87.9763 1623.01,170.062 1623.84,87.9763 1624.67,87.9763 1625.49,170.062 1626.32,87.9763 1627.15,87.9763 1627.98,87.9763 1628.81,87.9763 1629.64,87.9763 1630.47,87.9763 1631.3,87.9763 1632.13,87.9763 1632.96,87.9763 1633.79,87.9763 1634.62,87.9763 1635.45,87.9763 1636.28,87.9763 1637.1,87.9763 1637.93,87.9763 1638.76,87.9763 1639.59,87.9763 1640.42,87.9763 1641.25,87.9763 1642.08,87.9763 1642.91,87.9763 1643.74,87.9763 1644.57,87.9763 1645.4,87.9763 1646.23,87.9763 1647.06,87.9763 1647.89,87.9763 1648.71,87.9763 1649.54,87.9763 1650.37,170.062 1651.2,87.9763 1652.03,87.9763 1652.86,87.9763 1653.69,87.9763 1654.52,170.062 1655.35,87.9763 1656.18,170.062 1657.01,87.9763 1657.84,87.9763 1658.67,87.9763 1659.5,87.9763 1660.32,170.062 1661.15,87.9763 1661.98,87.9763 1662.81,87.9763 1663.64,87.9763 1664.47,87.9763 1665.3,170.062 1666.13,87.9763 1666.96,87.9763 1667.79,87.9763 1668.62,87.9763 1669.45,170.062 1670.28,87.9763 1671.11,87.9763 1671.93,87.9763 1672.76,87.9763 1673.59,87.9763 1674.42,87.9763 1675.25,170.062 1676.08,170.062 1676.91,87.9763 1677.74,87.9763 1678.57,87.9763 1679.4,87.9763 1680.23,87.9763 1681.06,87.9763 1681.89,170.062 1682.72,87.9763 1683.54,87.9763 1684.37,170.062 1685.2,87.9763 1686.03,87.9763 1686.86,87.9763 1687.69,87.9763 1688.52,87.9763 1689.35,87.9763 1690.18,87.9763 1691.01,87.9763 1691.84,87.9763 1692.67,87.9763 1693.5,170.062 1694.33,87.9763 1695.15,87.9763 1695.98,87.9763 1696.81,87.9763 1697.64,170.062 1698.47,170.062 1699.3,170.062 1700.13,170.062 1700.96,87.9763 1701.79,87.9763 1702.62,87.9763 1703.45,87.9763 1704.28,87.9763 1705.11,87.9763 1705.94,87.9763 1706.76,87.9763 1707.59,87.9763 1708.42,87.9763 1709.25,170.062 1710.08,87.9763 1710.91,87.9763 1711.74,170.062 1712.57,87.9763 1713.4,87.9763 1714.23,170.062 1715.06,170.062 1715.89,87.9763 1716.72,170.062 1717.55,170.062 1718.37,87.9763 1719.2,87.9763 1720.03,170.062 1720.86,170.062 1721.69,87.9763 1722.52,87.9763 1723.35,87.9763 1724.18,87.9763 1725.01,87.9763 1725.84,87.9763 1726.67,87.9763 1727.5,87.9763 1728.33,87.9763 1729.16,87.9763 1729.98,87.9763 1730.81,87.9763 1731.64,87.9763 1732.47,170.062 1733.3,87.9763 1734.13,87.9763 1734.96,87.9763 1735.79,87.9763 1736.62,87.9763 1737.45,87.9763 1738.28,87.9763 1739.11,87.9763 1739.94,87.9763 1740.77,87.9763 1741.59,87.9763 1742.42,170.062 1743.25,87.9763 1744.08,87.9763 1744.91,87.9763 1745.74,87.9763 1746.57,170.062 1747.4,87.9763 1748.23,170.062 1749.06,87.9763 1749.89,87.9763 1750.72,87.9763 1751.55,87.9763 1752.38,87.9763 1753.2,87.9763 1754.03,87.9763 1754.86,170.062 1755.69,87.9763 1756.52,87.9763 1757.35,248.99 1758.18,87.9763 1759.01,87.9763 1759.84,87.9763 1760.67,87.9763 1761.5,170.062 1762.33,87.9763 1763.16,87.9763 1763.99,87.9763 1764.81,87.9763 1765.64,87.9763 1766.47,87.9763 1767.3,87.9763 1768.13,170.062 1768.96,87.9763 1769.79,87.9763 1770.62,87.9763 1771.45,87.9763 1772.28,87.9763 1773.11,87.9763 1773.94,87.9763 1774.77,87.9763 1775.6,87.9763 1776.43,170.062 1777.25,87.9763 1778.08,87.9763 1778.91,87.9763 1779.74,87.9763 1780.57,170.062 1781.4,87.9763 1782.23,87.9763 1783.06,87.9763 1783.89,87.9763 1784.72,87.9763 1785.55,87.9763 1786.38,87.9763 1787.21,87.9763 1788.04,170.062 1788.86,87.9763 1789.69,87.9763 1790.52,87.9763 1791.35,87.9763 1792.18,170.062 1793.01,87.9763 1793.84,248.99 1794.67,87.9763 1795.5,87.9763 1796.33,170.062 1797.16,170.062 1797.99,87.9763 1798.82,87.9763 1799.65,87.9763 1800.47,87.9763 1801.3,87.9763 1802.13,87.9763 1802.96,87.9763 1803.79,87.9763 1804.62,170.062 1805.45,87.9763 1806.28,170.062 1807.11,87.9763 1807.94,87.9763 1808.77,87.9763 1809.6,87.9763 1810.43,87.9763 1811.26,87.9763 1812.08,87.9763 1812.91,87.9763 1813.74,87.9763 1814.57,87.9763 1815.4,87.9763 1816.23,170.062 1817.06,87.9763 1817.89,170.062 1818.72,87.9763 1819.55,87.9763 1820.38,87.9763 1821.21,87.9763 1822.04,87.9763 1822.87,248.99 1823.69,87.9763 1824.52,87.9763 1825.35,87.9763 1826.18,87.9763 1827.01,87.9763 1827.84,87.9763 1828.67,87.9763 1829.5,87.9763 1830.33,87.9763 1831.16,87.9763 1831.99,87.9763 1832.82,87.9763 1833.65,248.99 1834.48,87.9763 1835.3,87.9763 1836.13,87.9763 1836.96,87.9763 1837.79,87.9763 1838.62,170.062 1839.45,87.9763 1840.28,87.9763 1841.11,87.9763 1841.94,87.9763 1842.77,87.9763 1843.6,87.9763 1844.43,87.9763 1845.26,87.9763 1846.09,170.062 1846.91,87.9763 1847.74,87.9763 1848.57,170.062 1849.4,87.9763 1850.23,87.9763 1851.06,87.9763 1851.89,87.9763 1852.72,87.9763 1853.55,87.9763 1854.38,87.9763 1855.21,87.9763 1856.04,87.9763 1856.87,170.062 1857.7,87.9763 1858.52,87.9763 1859.35,87.9763 1860.18,87.9763 1861.01,87.9763 1861.84,170.062 1862.67,324.94 1863.5,87.9763 1864.33,87.9763 1865.16,170.062 1865.99,170.062 1866.82,87.9763 1867.65,87.9763 1868.48,87.9763 1869.31,87.9763 1870.13,87.9763 1870.96,87.9763 1871.79,87.9763 1872.62,170.062 1873.45,87.9763 1874.28,87.9763 1875.11,170.062 1875.94,87.9763 1876.77,87.9763 1877.6,87.9763 1878.43,87.9763 1879.26,87.9763 1880.09,87.9763 1880.92,87.9763 1881.74,87.9763 1882.57,87.9763 1883.4,87.9763 1884.23,87.9763 1885.06,87.9763 1885.89,87.9763 1886.72,248.99 1887.55,170.062 1888.38,87.9763 1889.21,87.9763 1890.04,87.9763 1890.87,87.9763 1891.7,87.9763 1892.53,87.9763 1893.35,87.9763 1894.18,87.9763 1895.01,87.9763 1895.84,87.9763 1896.67,170.062 1897.5,87.9763 1898.33,87.9763 1899.16,87.9763 1899.99,87.9763 1900.82,87.9763 1901.65,87.9763 1902.48,87.9763 1903.31,87.9763 1904.14,87.9763 1904.96,87.9763 1905.79,87.9763 1906.62,87.9763 1907.45,87.9763 1908.28,170.062 1909.11,87.9763 1909.94,87.9763 1910.77,87.9763 1911.6,87.9763 1912.43,87.9763 1913.26,87.9763 1914.09,87.9763 1914.92,87.9763 1915.75,170.062 1916.57,87.9763 1917.4,87.9763 1918.23,87.9763 1919.06,87.9763 1919.89,87.9763 1920.72,87.9763 1921.55,87.9763 1922.38,87.9763 1923.21,170.062 1924.04,87.9763 1924.87,87.9763 1925.7,87.9763 1926.53,87.9763 1927.36,87.9763 1928.18,87.9763 1929.01,87.9763 1929.84,170.062 1930.67,170.062 1931.5,170.062 1932.33,170.062 1933.16,170.062 1933.99,87.9763 1934.82,87.9763 1935.65,248.99 1936.48,87.9763 1937.31,87.9763 1938.14,87.9763 1938.97,87.9763 1939.79,87.9763 1940.62,248.99 1941.45,170.062 1942.28,170.062 1943.11,170.062 1943.94,87.9763 1944.77,87.9763 1945.6,87.9763 1946.43,87.9763 1947.26,87.9763 1948.09,87.9763 1948.92,87.9763 1949.75,87.9763 1950.58,87.9763 1951.4,87.9763 1952.23,87.9763 1953.06,87.9763 1953.89,87.9763 1954.72,170.062 1955.55,87.9763 1956.38,87.9763 1957.21,87.9763 1958.04,87.9763 1958.87,87.9763 1959.7,87.9763 1960.53,87.9763 1961.36,87.9763 1962.19,87.9763 1963.02,87.9763 1963.84,170.062 1964.67,87.9763 1965.5,87.9763 1966.33,87.9763 1967.16,87.9763 1967.99,87.9763 1968.82,87.9763 1969.65,87.9763 1970.48,87.9763 1971.31,87.9763 1972.14,87.9763 1972.97,87.9763 1973.8,170.062 1974.63,87.9763 1975.45,87.9763 1976.28,87.9763 1977.11,87.9763 1977.94,87.9763 1978.77,87.9763 1979.6,87.9763 1980.43,87.9763 1981.26,87.9763 1982.09,87.9763 1982.92,170.062 1983.75,87.9763 1984.58,170.062 1985.41,170.062 1986.24,87.9763 1987.06,87.9763 1987.89,170.062 1988.72,170.062 1989.55,87.9763 1990.38,87.9763 1991.21,87.9763 1992.04,170.062 1992.87,170.062 1993.7,87.9763 1994.53,87.9763 1995.36,87.9763 1996.19,87.9763 1997.02,87.9763 1997.85,87.9763 1998.67,87.9763 1999.5,87.9763 2000.33,87.9763 2001.16,87.9763 2001.99,87.9763 2002.82,87.9763 2003.65,170.062 2004.48,87.9763 2005.31,87.9763 2006.14,87.9763 2006.97,87.9763 2007.8,87.9763 2008.63,87.9763 2009.46,87.9763 2010.28,87.9763 2011.11,87.9763 2011.94,87.9763 2012.77,87.9763 2013.6,87.9763 2014.43,87.9763 2015.26,87.9763 2016.09,87.9763 2016.92,87.9763 2017.75,87.9763 2018.58,87.9763 2019.41,87.9763 2020.24,87.9763 2021.07,87.9763 2021.89,87.9763 2022.72,87.9763 2023.55,170.062 2024.38,170.062 2025.21,87.9763 2026.04,87.9763 2026.87,170.062 2027.7,87.9763 2028.53,87.9763 2029.36,87.9763 2030.19,87.9763 2031.02,87.9763 2031.85,87.9763 2032.68,87.9763 2033.5,87.9763 2034.33,170.062 2035.16,87.9763 2035.99,170.062 2036.82,170.062 2037.65,87.9763 2038.48,87.9763 2039.31,87.9763 2040.14,87.9763 2040.97,87.9763 2041.8,87.9763 2042.63,87.9763 2043.46,87.9763 2044.29,170.062 2045.11,87.9763 2045.94,87.9763 2046.77,87.9763 2047.6,87.9763 2048.43,87.9763 2049.26,87.9763 2050.09,87.9763 2050.92,87.9763 2051.75,170.062 2052.58,87.9763 2053.41,87.9763 2054.24,87.9763 2055.07,87.9763 2055.9,87.9763 2056.72,87.9763 2057.55,87.9763 2058.38,87.9763 2059.21,87.9763 2060.04,170.062 2060.87,87.9763 2061.7,87.9763 2062.53,170.062 2063.36,87.9763 2064.19,87.9763 2065.02,170.062 2065.85,87.9763 2066.68,87.9763 2067.51,87.9763 2068.33,87.9763 2069.16,87.9763 2069.99,170.062 2070.82,87.9763 2071.65,87.9763 2072.48,87.9763 2073.31,87.9763 2074.14,87.9763 2074.97,87.9763 2075.8,170.062 2076.63,87.9763 2077.46,87.9763 2078.29,87.9763 2079.12,87.9763 2079.94,87.9763 2080.77,87.9763 2081.6,87.9763 2082.43,170.062 2083.26,87.9763 2084.09,170.062 2084.92,87.9763 2085.75,87.9763 2086.58,87.9763 2087.41,87.9763 2088.24,87.9763 2089.07,87.9763 2089.9,170.062 2090.73,87.9763 2091.55,87.9763 2092.38,87.9763 2093.21,87.9763 2094.04,170.062 2094.87,87.9763 2095.7,248.99 2096.53,87.9763 2097.36,87.9763 2098.19,87.9763 2099.02,170.062 2099.85,87.9763 2100.68,87.9763 2101.51,87.9763 2102.34,170.062 2103.16,87.9763 2103.99,170.062 2104.82,170.062 2105.65,87.9763 2106.48,87.9763 2107.31,87.9763 2108.14,87.9763 2108.97,87.9763 2109.8,87.9763 2110.63,87.9763 2111.46,87.9763 2112.29,87.9763 2113.12,87.9763 2113.95,87.9763 2114.77,87.9763 2115.6,87.9763 2116.43,87.9763 2117.26,87.9763 2118.09,87.9763 2118.92,170.062 2119.75,87.9763 2120.58,170.062 2121.41,87.9763 2122.24,87.9763 2123.07,87.9763 2123.9,87.9763 2124.73,87.9763 2125.56,87.9763 2126.38,170.062 2127.21,87.9763 2128.04,170.062 2128.87,87.9763 2129.7,87.9763 2130.53,87.9763 2131.36,87.9763 2132.19,87.9763 2133.02,87.9763 2133.85,87.9763 2134.68,87.9763 2135.51,87.9763 2136.34,87.9763 2137.17,87.9763 2137.99,87.9763 2138.82,170.062 2139.65,248.99 2140.48,87.9763 2141.31,87.9763 2142.14,87.9763 2142.97,87.9763 2143.8,87.9763 2144.63,87.9763 2145.46,87.9763 2146.29,87.9763 2147.12,87.9763 2147.95,87.9763 2148.78,87.9763 2149.61,170.062 2150.43,87.9763 2151.26,248.99 2152.09,170.062 2152.92,87.9763 2153.75,87.9763 2154.58,87.9763 2155.41,87.9763 2156.24,87.9763 2157.07,87.9763 2157.9,87.9763 2158.73,87.9763 2159.56,87.9763 2160.39,87.9763 2161.22,87.9763 2162.04,87.9763 2162.87,87.9763 2163.7,87.9763 2164.53,170.062 2165.36,87.9763 2166.19,87.9763 2167.02,87.9763 2167.85,87.9763 2168.68,87.9763 2169.51,87.9763 2170.34,87.9763 2171.17,87.9763 2172,87.9763 2172.83,87.9763 2173.65,87.9763 2174.48,87.9763 2175.31,87.9763 2176.14,87.9763 2176.97,87.9763 2177.8,87.9763 2178.63,87.9763 2179.46,87.9763 2180.29,87.9763 2181.12,87.9763 2181.95,170.062 2182.78,87.9763 2183.61,170.062 2184.44,87.9763 2185.26,87.9763 2186.09,87.9763 2186.92,87.9763 2187.75,87.9763 2188.58,87.9763 2189.41,87.9763 2190.24,87.9763 2191.07,87.9763 2191.9,87.9763 2192.73,87.9763 2193.56,87.9763 2194.39,170.062 2195.22,87.9763 2196.05,87.9763 2196.87,87.9763 2197.7,87.9763 2198.53,87.9763 2199.36,87.9763 2200.19,87.9763 2201.02,87.9763 2201.85,87.9763 2202.68,87.9763 2203.51,87.9763 2204.34,87.9763 2205.17,87.9763 2206,170.062 2206.83,170.062 2207.66,87.9763 2208.48,87.9763 2209.31,87.9763 2210.14,170.062 2210.97,87.9763 2211.8,87.9763 2212.63,87.9763 2213.46,87.9763 2214.29,248.99 2215.12,87.9763 2215.95,87.9763 2216.78,87.9763 2217.61,87.9763 2218.44,87.9763 2219.27,87.9763 2220.09,87.9763 2220.92,87.9763 2221.75,87.9763 2222.58,87.9763 2223.41,87.9763 2224.24,87.9763 2225.07,87.9763 2225.9,87.9763 2226.73,87.9763 2227.56,170.062 2228.39,87.9763 2229.22,87.9763 2230.05,87.9763 2230.88,87.9763 2231.7,87.9763 2232.53,87.9763 2233.36,87.9763 2234.19,87.9763 2235.02,87.9763 2235.85,87.9763 2236.68,87.9763 2237.51,87.9763 2238.34,87.9763 2239.17,87.9763 2240,87.9763 2240.83,170.062 2241.66,170.062 2242.49,87.9763 2243.31,87.9763 2244.14,87.9763 2244.97,87.9763 2245.8,87.9763 2246.63,87.9763 2247.46,170.062 2248.29,87.9763 2249.12,87.9763 2249.95,87.9763 2250.78,87.9763 2251.61,87.9763 2252.44,87.9763 2253.27,248.99 2254.1,87.9763 2254.92,87.9763 2255.75,87.9763 2256.58,87.9763 2257.41,87.9763 2258.24,87.9763 2259.07,248.99 2259.9,170.062 2260.73,87.9763 2261.56,87.9763 2262.39,170.062 2263.22,87.9763 2264.05,87.9763 2264.88,87.9763 2265.71,87.9763 2266.53,87.9763 2267.36,87.9763 2268.19,87.9763 2269.02,87.9763 2269.85,87.9763 2270.68,87.9763 2271.51,170.062 2272.34,87.9763 2273.17,87.9763 2274,170.062 2274.83,87.9763 2275.66,87.9763 2276.49,87.9763 2277.32,87.9763 2278.14,87.9763 2278.97,87.9763 2279.8,87.9763 2280.63,87.9763 2281.46,87.9763 2282.29,87.9763 2283.12,87.9763 2283.95,87.9763 2284.78,170.062 2285.61,87.9763 2286.44,87.9763 2287.27,87.9763 2288.1,87.9763 2288.93,87.9763 2289.75,87.9763 2290.58,87.9763 "/>
<path clip-path="url(#clip120)" d="M2007.43 1438.47 L2279.53 1438.47 L2279.53 1334.79 L2007.43 1334.79  Z" fill="#ffffff" fill-rule="evenodd" fill-opacity="1"/>
<polyline clip-path="url(#clip120)" style="stroke:#000000; stroke-linecap:round; stroke-linejoin:round; stroke-width:4; stroke-opacity:1; fill:none" points="2007.43,1438.47 2279.53,1438.47 2279.53,1334.79 2007.43,1334.79 2007.43,1438.47 "/>
<polyline clip-path="url(#clip120)" style="stroke:#009af9; stroke-linecap:round; stroke-linejoin:round; stroke-width:4; stroke-opacity:1; fill:none" points="2031.84,1386.63 2178.28,1386.63 "/>
<path clip-path="url(#clip120)" d="M2216.54 1406.32 Q2214.73 1410.95 2213.02 1412.36 Q2211.3 1413.78 2208.43 1413.78 L2205.03 1413.78 L2205.03 1410.21 L2207.53 1410.21 Q2209.29 1410.21 2210.26 1409.38 Q2211.23 1408.54 2212.42 1405.44 L2213.18 1403.5 L2202.69 1377.99 L2207.21 1377.99 L2215.31 1398.27 L2223.41 1377.99 L2227.92 1377.99 L2216.54 1406.32 Z" fill="#000000" fill-rule="nonzero" fill-opacity="1" /><path clip-path="url(#clip120)" d="M2235.22 1399.98 L2242.85 1399.98 L2242.85 1373.61 L2234.54 1375.28 L2234.54 1371.02 L2242.81 1369.35 L2247.48 1369.35 L2247.48 1399.98 L2255.12 1399.98 L2255.12 1403.91 L2235.22 1403.91 L2235.22 1399.98 Z" fill="#000000" fill-rule="nonzero" fill-opacity="1" /></svg>
