<?xml version="1.0" encoding="utf-8"?>
<svg xmlns="http://www.w3.org/2000/svg" xmlns:xlink="http://www.w3.org/1999/xlink" width="600" height="400" viewBox="0 0 2400 1600">
<defs>
  <clipPath id="clip460">
    <rect x="0" y="0" width="2400" height="1600"/>
  </clipPath>
</defs>
<path clip-path="url(#clip460)" d="M0 1600 L2400 1600 L2400 0 L0 0  Z" fill="#ffffff" fill-rule="evenodd" fill-opacity="1"/>
<defs>
  <clipPath id="clip461">
    <rect x="480" y="0" width="1681" height="1600"/>
  </clipPath>
</defs>
<path clip-path="url(#clip460)" d="M112.177 1486.45 L2352.76 1486.45 L2352.76 47.2441 L112.177 47.2441  Z" fill="#ffffff" fill-rule="evenodd" fill-opacity="1"/>
<defs>
  <clipPath id="clip462">
    <rect x="112" y="47" width="2242" height="1440"/>
  </clipPath>
</defs>
<polyline clip-path="url(#clip462)" style="stroke:#000000; stroke-linecap:round; stroke-linejoin:round; stroke-width:2; stroke-opacity:0.1; fill:none" points="175.59,1486.45 175.59,47.2441 "/>
<polyline clip-path="url(#clip462)" style="stroke:#000000; stroke-linecap:round; stroke-linejoin:round; stroke-width:2; stroke-opacity:0.1; fill:none" points="704.028,1486.45 704.028,47.2441 "/>
<polyline clip-path="url(#clip462)" style="stroke:#000000; stroke-linecap:round; stroke-linejoin:round; stroke-width:2; stroke-opacity:0.1; fill:none" points="1232.47,1486.45 1232.47,47.2441 "/>
<polyline clip-path="url(#clip462)" style="stroke:#000000; stroke-linecap:round; stroke-linejoin:round; stroke-width:2; stroke-opacity:0.1; fill:none" points="1760.9,1486.45 1760.9,47.2441 "/>
<polyline clip-path="url(#clip462)" style="stroke:#000000; stroke-linecap:round; stroke-linejoin:round; stroke-width:2; stroke-opacity:0.1; fill:none" points="2289.34,1486.45 2289.34,47.2441 "/>
<polyline clip-path="url(#clip460)" style="stroke:#000000; stroke-linecap:round; stroke-linejoin:round; stroke-width:4; stroke-opacity:1; fill:none" points="112.177,1486.45 2352.76,1486.45 "/>
<polyline clip-path="url(#clip460)" style="stroke:#000000; stroke-linecap:round; stroke-linejoin:round; stroke-width:4; stroke-opacity:1; fill:none" points="175.59,1486.45 175.59,1467.55 "/>
<polyline clip-path="url(#clip460)" style="stroke:#000000; stroke-linecap:round; stroke-linejoin:round; stroke-width:4; stroke-opacity:1; fill:none" points="704.028,1486.45 704.028,1467.55 "/>
<polyline clip-path="url(#clip460)" style="stroke:#000000; stroke-linecap:round; stroke-linejoin:round; stroke-width:4; stroke-opacity:1; fill:none" points="1232.47,1486.45 1232.47,1467.55 "/>
<polyline clip-path="url(#clip460)" style="stroke:#000000; stroke-linecap:round; stroke-linejoin:round; stroke-width:4; stroke-opacity:1; fill:none" points="1760.9,1486.45 1760.9,1467.55 "/>
<polyline clip-path="url(#clip460)" style="stroke:#000000; stroke-linecap:round; stroke-linejoin:round; stroke-width:4; stroke-opacity:1; fill:none" points="2289.34,1486.45 2289.34,1467.55 "/>
<path clip-path="url(#clip460)" d="M175.59 1517.37 Q171.979 1517.37 170.15 1520.93 Q168.344 1524.47 168.344 1531.6 Q168.344 1538.71 170.15 1542.27 Q171.979 1545.82 175.59 1545.82 Q179.224 1545.82 181.03 1542.27 Q182.858 1538.71 182.858 1531.6 Q182.858 1524.47 181.03 1520.93 Q179.224 1517.37 175.59 1517.37 M175.59 1513.66 Q181.4 1513.66 184.455 1518.27 Q187.534 1522.85 187.534 1531.6 Q187.534 1540.33 184.455 1544.94 Q181.4 1549.52 175.59 1549.52 Q169.78 1549.52 166.701 1544.94 Q163.645 1540.33 163.645 1531.6 Q163.645 1522.85 166.701 1518.27 Q169.78 1513.66 175.59 1513.66 Z" fill="#000000" fill-rule="nonzero" fill-opacity="1" /><path clip-path="url(#clip460)" d="M663.646 1514.29 L682.003 1514.29 L682.003 1518.22 L667.929 1518.22 L667.929 1526.7 Q668.947 1526.35 669.966 1526.19 Q670.984 1526 672.003 1526 Q677.79 1526 681.169 1529.17 Q684.549 1532.34 684.549 1537.76 Q684.549 1543.34 681.077 1546.44 Q677.605 1549.52 671.285 1549.52 Q669.109 1549.52 666.841 1549.15 Q664.596 1548.78 662.188 1548.04 L662.188 1543.34 Q664.271 1544.47 666.494 1545.03 Q668.716 1545.58 671.193 1545.58 Q675.197 1545.58 677.535 1543.48 Q679.873 1541.37 679.873 1537.76 Q679.873 1534.15 677.535 1532.04 Q675.197 1529.94 671.193 1529.94 Q669.318 1529.94 667.443 1530.35 Q665.591 1530.77 663.646 1531.65 L663.646 1514.29 Z" fill="#000000" fill-rule="nonzero" fill-opacity="1" /><path clip-path="url(#clip460)" d="M703.762 1517.37 Q700.151 1517.37 698.322 1520.93 Q696.517 1524.47 696.517 1531.6 Q696.517 1538.71 698.322 1542.27 Q700.151 1545.82 703.762 1545.82 Q707.396 1545.82 709.202 1542.27 Q711.03 1538.71 711.03 1531.6 Q711.03 1524.47 709.202 1520.93 Q707.396 1517.37 703.762 1517.37 M703.762 1513.66 Q709.572 1513.66 712.628 1518.27 Q715.706 1522.85 715.706 1531.6 Q715.706 1540.33 712.628 1544.94 Q709.572 1549.52 703.762 1549.52 Q697.952 1549.52 694.873 1544.94 Q691.818 1540.33 691.818 1531.6 Q691.818 1522.85 694.873 1518.27 Q697.952 1513.66 703.762 1513.66 Z" fill="#000000" fill-rule="nonzero" fill-opacity="1" /><path clip-path="url(#clip460)" d="M733.924 1517.37 Q730.313 1517.37 728.484 1520.93 Q726.679 1524.47 726.679 1531.6 Q726.679 1538.71 728.484 1542.27 Q730.313 1545.82 733.924 1545.82 Q737.558 1545.82 739.364 1542.27 Q741.192 1538.71 741.192 1531.6 Q741.192 1524.47 739.364 1520.93 Q737.558 1517.37 733.924 1517.37 M733.924 1513.66 Q739.734 1513.66 742.79 1518.27 Q745.868 1522.85 745.868 1531.6 Q745.868 1540.33 742.79 1544.94 Q739.734 1549.52 733.924 1549.52 Q728.114 1549.52 725.035 1544.94 Q721.979 1540.33 721.979 1531.6 Q721.979 1522.85 725.035 1518.27 Q728.114 1513.66 733.924 1513.66 Z" fill="#000000" fill-rule="nonzero" fill-opacity="1" /><path clip-path="url(#clip460)" d="M1176.99 1544.91 L1184.63 1544.91 L1184.63 1518.55 L1176.32 1520.21 L1176.32 1515.95 L1184.58 1514.29 L1189.26 1514.29 L1189.26 1544.91 L1196.9 1544.91 L1196.9 1548.85 L1176.99 1548.85 L1176.99 1544.91 Z" fill="#000000" fill-rule="nonzero" fill-opacity="1" /><path clip-path="url(#clip460)" d="M1216.34 1517.37 Q1212.73 1517.37 1210.9 1520.93 Q1209.1 1524.47 1209.1 1531.6 Q1209.1 1538.71 1210.9 1542.27 Q1212.73 1545.82 1216.34 1545.82 Q1219.98 1545.82 1221.78 1542.27 Q1223.61 1538.71 1223.61 1531.6 Q1223.61 1524.47 1221.78 1520.93 Q1219.98 1517.37 1216.34 1517.37 M1216.34 1513.66 Q1222.15 1513.66 1225.21 1518.27 Q1228.29 1522.85 1228.29 1531.6 Q1228.29 1540.33 1225.21 1544.94 Q1222.15 1549.52 1216.34 1549.52 Q1210.53 1549.52 1207.46 1544.94 Q1204.4 1540.33 1204.4 1531.6 Q1204.4 1522.85 1207.46 1518.27 Q1210.53 1513.66 1216.34 1513.66 Z" fill="#000000" fill-rule="nonzero" fill-opacity="1" /><path clip-path="url(#clip460)" d="M1246.51 1517.37 Q1242.89 1517.37 1241.07 1520.93 Q1239.26 1524.47 1239.26 1531.6 Q1239.26 1538.71 1241.07 1542.27 Q1242.89 1545.82 1246.51 1545.82 Q1250.14 1545.82 1251.95 1542.27 Q1253.77 1538.71 1253.77 1531.6 Q1253.77 1524.47 1251.95 1520.93 Q1250.14 1517.37 1246.51 1517.37 M1246.51 1513.66 Q1252.32 1513.66 1255.37 1518.27 Q1258.45 1522.85 1258.45 1531.6 Q1258.45 1540.33 1255.37 1544.94 Q1252.32 1549.52 1246.51 1549.52 Q1240.7 1549.52 1237.62 1544.94 Q1234.56 1540.33 1234.56 1531.6 Q1234.56 1522.85 1237.62 1518.27 Q1240.7 1513.66 1246.51 1513.66 Z" fill="#000000" fill-rule="nonzero" fill-opacity="1" /><path clip-path="url(#clip460)" d="M1276.67 1517.37 Q1273.06 1517.37 1271.23 1520.93 Q1269.42 1524.47 1269.42 1531.6 Q1269.42 1538.71 1271.23 1542.27 Q1273.06 1545.82 1276.67 1545.82 Q1280.3 1545.82 1282.11 1542.27 Q1283.94 1538.71 1283.94 1531.6 Q1283.94 1524.47 1282.11 1520.93 Q1280.3 1517.37 1276.67 1517.37 M1276.67 1513.66 Q1282.48 1513.66 1285.53 1518.27 Q1288.61 1522.85 1288.61 1531.6 Q1288.61 1540.33 1285.53 1544.94 Q1282.48 1549.52 1276.67 1549.52 Q1270.86 1549.52 1267.78 1544.94 Q1264.72 1540.33 1264.72 1531.6 Q1264.72 1522.85 1267.78 1518.27 Q1270.86 1513.66 1276.67 1513.66 Z" fill="#000000" fill-rule="nonzero" fill-opacity="1" /><path clip-path="url(#clip460)" d="M1705.43 1544.91 L1713.07 1544.91 L1713.07 1518.55 L1704.76 1520.21 L1704.76 1515.95 L1713.02 1514.29 L1717.7 1514.29 L1717.7 1544.91 L1725.34 1544.91 L1725.34 1548.85 L1705.43 1548.85 L1705.43 1544.91 Z" fill="#000000" fill-rule="nonzero" fill-opacity="1" /><path clip-path="url(#clip460)" d="M1734.83 1514.29 L1753.19 1514.29 L1753.19 1518.22 L1739.11 1518.22 L1739.11 1526.7 Q1740.13 1526.35 1741.15 1526.19 Q1742.17 1526 1743.19 1526 Q1748.97 1526 1752.35 1529.17 Q1755.73 1532.34 1755.73 1537.76 Q1755.73 1543.34 1752.26 1546.44 Q1748.79 1549.52 1742.47 1549.52 Q1740.29 1549.52 1738.02 1549.15 Q1735.78 1548.78 1733.37 1548.04 L1733.37 1543.34 Q1735.45 1544.47 1737.68 1545.03 Q1739.9 1545.58 1742.37 1545.58 Q1746.38 1545.58 1748.72 1543.48 Q1751.06 1541.37 1751.06 1537.76 Q1751.06 1534.15 1748.72 1532.04 Q1746.38 1529.94 1742.37 1529.94 Q1740.5 1529.94 1738.62 1530.35 Q1736.77 1530.77 1734.83 1531.65 L1734.83 1514.29 Z" fill="#000000" fill-rule="nonzero" fill-opacity="1" /><path clip-path="url(#clip460)" d="M1774.94 1517.37 Q1771.33 1517.37 1769.5 1520.93 Q1767.7 1524.47 1767.7 1531.6 Q1767.7 1538.71 1769.5 1542.27 Q1771.33 1545.82 1774.94 1545.82 Q1778.58 1545.82 1780.38 1542.27 Q1782.21 1538.71 1782.21 1531.6 Q1782.21 1524.47 1780.38 1520.93 Q1778.58 1517.37 1774.94 1517.37 M1774.94 1513.66 Q1780.75 1513.66 1783.81 1518.27 Q1786.89 1522.85 1786.89 1531.6 Q1786.89 1540.33 1783.81 1544.94 Q1780.75 1549.52 1774.94 1549.52 Q1769.13 1549.52 1766.06 1544.94 Q1763 1540.33 1763 1531.6 Q1763 1522.85 1766.06 1518.27 Q1769.13 1513.66 1774.94 1513.66 Z" fill="#000000" fill-rule="nonzero" fill-opacity="1" /><path clip-path="url(#clip460)" d="M1805.11 1517.37 Q1801.49 1517.37 1799.67 1520.93 Q1797.86 1524.47 1797.86 1531.6 Q1797.86 1538.71 1799.67 1542.27 Q1801.49 1545.82 1805.11 1545.82 Q1808.74 1545.82 1810.55 1542.27 Q1812.37 1538.71 1812.37 1531.6 Q1812.37 1524.47 1810.55 1520.93 Q1808.74 1517.37 1805.11 1517.37 M1805.11 1513.66 Q1810.92 1513.66 1813.97 1518.27 Q1817.05 1522.85 1817.05 1531.6 Q1817.05 1540.33 1813.97 1544.94 Q1810.92 1549.52 1805.11 1549.52 Q1799.3 1549.52 1796.22 1544.94 Q1793.16 1540.33 1793.16 1531.6 Q1793.16 1522.85 1796.22 1518.27 Q1799.3 1513.66 1805.11 1513.66 Z" fill="#000000" fill-rule="nonzero" fill-opacity="1" /><path clip-path="url(#clip460)" d="M2237.95 1544.91 L2254.27 1544.91 L2254.27 1548.85 L2232.33 1548.85 L2232.33 1544.91 Q2234.99 1542.16 2239.58 1537.53 Q2244.18 1532.88 2245.36 1531.53 Q2247.61 1529.01 2248.49 1527.27 Q2249.39 1525.51 2249.39 1523.82 Q2249.39 1521.07 2247.45 1519.33 Q2245.52 1517.6 2242.42 1517.6 Q2240.22 1517.6 2237.77 1518.36 Q2235.34 1519.13 2232.56 1520.68 L2232.56 1515.95 Q2235.39 1514.82 2237.84 1514.24 Q2240.29 1513.66 2242.33 1513.66 Q2247.7 1513.66 2250.89 1516.35 Q2254.09 1519.03 2254.09 1523.52 Q2254.09 1525.65 2253.28 1527.57 Q2252.49 1529.47 2250.39 1532.07 Q2249.81 1532.74 2246.7 1535.95 Q2243.6 1539.15 2237.95 1544.91 Z" fill="#000000" fill-rule="nonzero" fill-opacity="1" /><path clip-path="url(#clip460)" d="M2274.09 1517.37 Q2270.48 1517.37 2268.65 1520.93 Q2266.84 1524.47 2266.84 1531.6 Q2266.84 1538.71 2268.65 1542.27 Q2270.48 1545.82 2274.09 1545.82 Q2277.72 1545.82 2279.53 1542.27 Q2281.36 1538.71 2281.36 1531.6 Q2281.36 1524.47 2279.53 1520.93 Q2277.72 1517.37 2274.09 1517.37 M2274.09 1513.66 Q2279.9 1513.66 2282.95 1518.27 Q2286.03 1522.85 2286.03 1531.6 Q2286.03 1540.33 2282.95 1544.94 Q2279.9 1549.52 2274.09 1549.52 Q2268.28 1549.52 2265.2 1544.94 Q2262.14 1540.33 2262.14 1531.6 Q2262.14 1522.85 2265.2 1518.27 Q2268.28 1513.66 2274.09 1513.66 Z" fill="#000000" fill-rule="nonzero" fill-opacity="1" /><path clip-path="url(#clip460)" d="M2304.25 1517.37 Q2300.64 1517.37 2298.81 1520.93 Q2297.01 1524.47 2297.01 1531.6 Q2297.01 1538.71 2298.81 1542.27 Q2300.64 1545.82 2304.25 1545.82 Q2307.88 1545.82 2309.69 1542.27 Q2311.52 1538.71 2311.52 1531.6 Q2311.52 1524.47 2309.69 1520.93 Q2307.88 1517.37 2304.25 1517.37 M2304.25 1513.66 Q2310.06 1513.66 2313.12 1518.27 Q2316.2 1522.85 2316.2 1531.6 Q2316.2 1540.33 2313.12 1544.94 Q2310.06 1549.52 2304.25 1549.52 Q2298.44 1549.52 2295.36 1544.94 Q2292.31 1540.33 2292.31 1531.6 Q2292.31 1522.85 2295.36 1518.27 Q2298.44 1513.66 2304.25 1513.66 Z" fill="#000000" fill-rule="nonzero" fill-opacity="1" /><path clip-path="url(#clip460)" d="M2334.41 1517.37 Q2330.8 1517.37 2328.97 1520.93 Q2327.17 1524.47 2327.17 1531.6 Q2327.17 1538.71 2328.97 1542.27 Q2330.8 1545.82 2334.41 1545.82 Q2338.05 1545.82 2339.85 1542.27 Q2341.68 1538.71 2341.68 1531.6 Q2341.68 1524.47 2339.85 1520.93 Q2338.05 1517.37 2334.41 1517.37 M2334.41 1513.66 Q2340.22 1513.66 2343.28 1518.27 Q2346.36 1522.85 2346.36 1531.6 Q2346.36 1540.33 2343.28 1544.94 Q2340.22 1549.52 2334.41 1549.52 Q2328.6 1549.52 2325.52 1544.94 Q2322.47 1540.33 2322.47 1531.6 Q2322.47 1522.85 2325.52 1518.27 Q2328.6 1513.66 2334.41 1513.66 Z" fill="#000000" fill-rule="nonzero" fill-opacity="1" /><polyline clip-path="url(#clip462)" style="stroke:#000000; stroke-linecap:round; stroke-linejoin:round; stroke-width:2; stroke-opacity:0.1; fill:none" points="112.177,1451.97 2352.76,1451.97 "/>
<polyline clip-path="url(#clip462)" style="stroke:#000000; stroke-linecap:round; stroke-linejoin:round; stroke-width:2; stroke-opacity:0.1; fill:none" points="112.177,1135.91 2352.76,1135.91 "/>
<polyline clip-path="url(#clip462)" style="stroke:#000000; stroke-linecap:round; stroke-linejoin:round; stroke-width:2; stroke-opacity:0.1; fill:none" points="112.177,819.837 2352.76,819.837 "/>
<polyline clip-path="url(#clip462)" style="stroke:#000000; stroke-linecap:round; stroke-linejoin:round; stroke-width:2; stroke-opacity:0.1; fill:none" points="112.177,503.769 2352.76,503.769 "/>
<polyline clip-path="url(#clip462)" style="stroke:#000000; stroke-linecap:round; stroke-linejoin:round; stroke-width:2; stroke-opacity:0.1; fill:none" points="112.177,187.7 2352.76,187.7 "/>
<polyline clip-path="url(#clip460)" style="stroke:#000000; stroke-linecap:round; stroke-linejoin:round; stroke-width:4; stroke-opacity:1; fill:none" points="112.177,1486.45 112.177,47.2441 "/>
<polyline clip-path="url(#clip460)" style="stroke:#000000; stroke-linecap:round; stroke-linejoin:round; stroke-width:4; stroke-opacity:1; fill:none" points="112.177,1451.97 131.075,1451.97 "/>
<polyline clip-path="url(#clip460)" style="stroke:#000000; stroke-linecap:round; stroke-linejoin:round; stroke-width:4; stroke-opacity:1; fill:none" points="112.177,1135.91 131.075,1135.91 "/>
<polyline clip-path="url(#clip460)" style="stroke:#000000; stroke-linecap:round; stroke-linejoin:round; stroke-width:4; stroke-opacity:1; fill:none" points="112.177,819.837 131.075,819.837 "/>
<polyline clip-path="url(#clip460)" style="stroke:#000000; stroke-linecap:round; stroke-linejoin:round; stroke-width:4; stroke-opacity:1; fill:none" points="112.177,503.769 131.075,503.769 "/>
<polyline clip-path="url(#clip460)" style="stroke:#000000; stroke-linecap:round; stroke-linejoin:round; stroke-width:4; stroke-opacity:1; fill:none" points="112.177,187.7 131.075,187.7 "/>
<path clip-path="url(#clip460)" d="M56.2699 1465.32 L63.9087 1465.32 L63.9087 1438.95 L55.5986 1440.62 L55.5986 1436.36 L63.8624 1434.69 L68.5383 1434.69 L68.5383 1465.32 L76.1772 1465.32 L76.1772 1469.25 L56.2699 1469.25 L56.2699 1465.32 Z" fill="#000000" fill-rule="nonzero" fill-opacity="1" /><path clip-path="url(#clip460)" d="M59.8578 1149.25 L76.1772 1149.25 L76.1772 1153.19 L54.2328 1153.19 L54.2328 1149.25 Q56.8949 1146.5 61.4782 1141.87 Q66.0846 1137.21 67.2652 1135.87 Q69.5105 1133.35 70.3902 1131.61 Q71.2929 1129.85 71.2929 1128.16 Q71.2929 1125.41 69.3485 1123.67 Q67.4272 1121.94 64.3254 1121.94 Q62.1263 1121.94 59.6726 1122.7 Q57.2421 1123.46 54.4643 1125.01 L54.4643 1120.29 Q57.2884 1119.16 59.7421 1118.58 Q62.1958 1118 64.2328 1118 Q69.6031 1118 72.7976 1120.69 Q75.992 1123.37 75.992 1127.86 Q75.992 1129.99 75.1818 1131.91 Q74.3948 1133.81 72.2883 1136.4 Q71.7096 1137.07 68.6078 1140.29 Q65.5059 1143.49 59.8578 1149.25 Z" fill="#000000" fill-rule="nonzero" fill-opacity="1" /><path clip-path="url(#clip460)" d="M69.0476 818.483 Q72.404 819.201 74.279 821.469 Q76.1772 823.738 76.1772 827.071 Q76.1772 832.187 72.6587 834.987 Q69.1402 837.788 62.6587 837.788 Q60.4828 837.788 58.168 837.349 Q55.8764 836.932 53.4227 836.075 L53.4227 831.562 Q55.3671 832.696 57.6819 833.274 Q59.9967 833.853 62.5198 833.853 Q66.918 833.853 69.2096 832.117 Q71.5244 830.381 71.5244 827.071 Q71.5244 824.015 69.3717 822.302 Q67.242 820.566 63.4226 820.566 L59.3949 820.566 L59.3949 816.724 L63.6078 816.724 Q67.0569 816.724 68.8855 815.358 Q70.7142 813.969 70.7142 811.376 Q70.7142 808.714 68.8161 807.302 Q66.9411 805.867 63.4226 805.867 Q61.5013 805.867 59.3023 806.284 Q57.1032 806.701 54.4643 807.58 L54.4643 803.414 Q57.1264 802.673 59.4412 802.302 Q61.7791 801.932 63.8393 801.932 Q69.1633 801.932 72.2652 804.363 Q75.367 806.77 75.367 810.89 Q75.367 813.761 73.7235 815.751 Q72.08 817.719 69.0476 818.483 Z" fill="#000000" fill-rule="nonzero" fill-opacity="1" /><path clip-path="url(#clip460)" d="M66.5939 490.563 L54.7884 509.012 L66.5939 509.012 L66.5939 490.563 M65.367 486.489 L71.2466 486.489 L71.2466 509.012 L76.1772 509.012 L76.1772 512.901 L71.2466 512.901 L71.2466 521.049 L66.5939 521.049 L66.5939 512.901 L50.9921 512.901 L50.9921 508.387 L65.367 486.489 Z" fill="#000000" fill-rule="nonzero" fill-opacity="1" /><path clip-path="url(#clip460)" d="M55.2745 170.42 L73.6309 170.42 L73.6309 174.355 L59.5569 174.355 L59.5569 182.828 Q60.5754 182.48 61.5939 182.318 Q62.6124 182.133 63.6309 182.133 Q69.418 182.133 72.7976 185.305 Q76.1772 188.476 76.1772 193.892 Q76.1772 199.471 72.705 202.573 Q69.2328 205.652 62.9134 205.652 Q60.7374 205.652 58.4689 205.281 Q56.2236 204.911 53.8162 204.17 L53.8162 199.471 Q55.8995 200.605 58.1217 201.161 Q60.3439 201.716 62.8208 201.716 Q66.8254 201.716 69.1633 199.61 Q71.5013 197.504 71.5013 193.892 Q71.5013 190.281 69.1633 188.175 Q66.8254 186.068 62.8208 186.068 Q60.9458 186.068 59.0708 186.485 Q57.2189 186.902 55.2745 187.781 L55.2745 170.42 Z" fill="#000000" fill-rule="nonzero" fill-opacity="1" /><polyline clip-path="url(#clip462)" style="stroke:#009af9; stroke-linecap:round; stroke-linejoin:round; stroke-width:4; stroke-opacity:1; fill:none" points="175.59,1381.51 176.647,1383.61 177.704,1153.59 178.76,1157.11 179.817,1319.69 180.874,1323.36 181.931,1407.05 182.988,1408.86 184.045,1031.16 185.102,1035.96 186.159,1078.89 187.215,1082.88 188.272,1232 189.329,1233.92 190.386,1249.21 191.443,1253.94 192.5,1192.56 193.557,1195.26 194.614,1250.11 195.67,1252.24 196.727,1376.94 197.784,1378.57 198.841,1054.98 199.898,1061.01 200.955,1444.62 202.012,1445.72 203.069,1327.32 204.125,1329.98 205.182,1250.23 206.239,1252.06 207.296,1089.39 208.353,1093.63 209.41,1439.89 210.467,1441.28 211.524,1093.49 212.58,1097.93 213.637,1172.12 214.694,1173.99 215.751,1068.03 216.808,1071.51 217.865,802.828 218.922,811.29 219.979,1197.24 221.035,1199.02 222.092,1233.81 223.149,1236.57 224.206,1404.04 225.263,1405.32 226.32,1172.43 227.377,1175.13 228.434,1213.63 229.49,1215.8 230.547,1339.73 231.604,1340.74 232.661,1194.89 233.718,1197.29 234.775,1042 235.832,1045.44 236.889,1354.65 237.946,1356 239.002,1295.79 240.059,1297.65 241.116,1372.2 242.173,1373.6 243.23,1058.8 244.287,1061.28 245.344,1141.77 246.401,1143.76 247.457,1356.62 248.514,1358.46 249.571,1287.82 250.628,1288.59 251.685,1291.73 252.742,1294.01 253.799,1070.01 254.856,1072.92 255.912,1068.96 256.969,1071.6 258.026,1409.26 259.083,1410.66 260.14,1048.14 261.197,1051.84 262.254,1180.05 263.311,1181.95 264.367,1342.79 265.424,1344.98 266.481,957.891 267.538,961.189 268.595,1040.2 269.652,1044.72 270.709,1081.18 271.766,1082.88 272.822,1069.88 273.879,1072.26 274.936,665.641 275.993,674.649 277.05,1180.76 278.107,1181.63 279.164,1077.46 280.221,1078.78 281.277,1321.05 282.334,1322.34 283.391,1078.04 284.448,1080.97 285.505,1209.36 286.562,1210.43 287.619,861.284 288.676,865.729 289.732,1028 290.789,1029.72 291.846,1019 292.903,1021.2 293.96,1263.75 295.017,1265.67 296.074,1123.87 297.131,1125.19 298.187,1258.6 299.244,1260.11 300.301,1146.4 301.358,1147.24 302.415,1176.31 303.472,1177.37 304.529,1050.21 305.586,1051.86 306.642,1214.65 307.699,1215.62 308.756,1001.15 309.813,1002.89 310.87,980.711 311.927,982.926 312.984,966.417 314.041,968.103 315.098,1127.57 316.154,1128.29 317.211,1035.32 318.268,1037.16 319.325,1290.08 320.382,1291.3 321.439,1227.35 322.496,1229.51 323.553,1235.13 324.609,1236.02 325.666,818.767 326.723,822.989 327.78,914.855 328.837,917.785 329.894,1036.32 330.951,1037.56 332.008,1121.55 333.064,1122.37 334.121,810.379 335.178,815.393 336.235,965.009 337.292,966.894 338.349,1177.43 339.406,1178.04 340.463,1143.14 341.519,1144.64 342.576,1002.8 343.633,1004.82 344.69,1107.27 345.747,1107.98 346.804,878.958 347.861,881.357 348.918,882.846 349.974,886.193 351.031,1044.7 352.088,1045.76 353.145,1037.57 354.202,1038.82 355.259,605.398 356.316,614.738 357.373,830.422 358.429,833.257 359.486,969.884 360.543,971.149 361.6,988.412 362.657,989.185 363.714,738.003 364.771,742.832 365.828,894.058 366.884,896.263 367.941,884.958 368.998,887.342 370.055,968.944 371.112,969.997 372.169,925.586 373.226,927.036 374.283,845.106 375.339,847.201 376.396,1095.58 377.453,1096.8 378.51,818.817 379.567,820.573 380.624,547.302 381.681,558.77 382.738,939.19 383.795,940.249 384.851,885.1 385.908,887.297 386.965,846.287 388.022,847.782 389.079,1026.61 390.136,1028.01 391.193,967.447 392.25,968.83 393.306,879.106 394.363,880.803 395.42,1057.04 396.477,1058.04 397.534,694.953 398.591,698.567 399.648,1032.97 400.705,1033.9 401.761,1014.06 402.818,1014.76 403.875,1106.86 404.932,1109.29 405.989,952.744 407.046,953.605 408.103,1047.06 409.16,1049.24 410.216,934.04 411.273,935.415 412.33,943.475 413.387,945.807 414.444,1028.09 415.501,1028.79 416.558,935.986 417.615,937.637 418.671,718.568 419.728,722.635 420.785,861.204 421.842,863.114 422.899,922.297 423.956,923.243 425.013,735.328 426.07,739.337 427.126,792.251 428.183,793.827 429.24,952.709 430.297,953.808 431.354,903.031 432.411,904.295 433.468,980.445 434.525,981.039 435.581,872.002 436.638,873.386 437.695,675.367 438.752,679.148 439.809,733.275 440.866,738.776 441.923,923.776 442.98,925.098 444.036,873.491 445.093,874.095 446.15,1026.39 447.207,1028.9 448.264,792.916 449.321,794.713 450.378,944.398 451.435,945.338 452.491,733.091 453.548,737.047 454.605,1085.27 455.662,1087.37 456.719,934.021 457.776,934.822 458.833,761.252 459.89,766.154 460.947,942.074 462.003,942.427 463.06,901.711 464.117,902.121 465.174,850.868 466.231,852.28 467.288,956.846 468.345,958.307 469.402,831.953 470.458,833.07 471.515,838.088 472.572,839.229 473.629,929.468 474.686,929.934 475.743,768.401 476.8,770.034 477.857,815.598 478.913,817.127 479.97,740.023 481.027,741.926 482.084,842.924 483.141,844.494 484.198,795.538 485.255,796.575 486.312,867.755 487.368,869.005 488.425,743.91 489.482,745.868 490.539,825.835 491.596,827.316 492.653,674.331 493.71,676.976 494.767,922.143 495.823,924.277 496.88,889.374 497.937,891.346 498.994,635.288 500.051,640.432 501.108,859.807 502.165,860.852 503.222,751.016 504.278,755.86 505.335,920.274 506.392,920.726 507.449,838.918 508.506,840.273 509.563,770.902 510.62,774.453 511.677,693.432 512.733,696.362 513.79,784.56 514.847,786.119 515.904,860.011 516.961,861.231 518.018,844.118 519.075,845.043 520.132,683.816 521.188,685.403 522.245,780.897 523.302,781.456 524.359,790.063 525.416,791.958 526.473,690.151 527.53,694.452 528.587,893.766 529.643,895.111 530.7,792.934 531.757,794.493 532.814,764.203 533.871,766.295 534.928,728.128 535.985,730.277 537.042,733.273 538.099,735.017 539.155,739.345 540.212,740.037 541.269,760.008 542.326,760.741 543.383,765.421 544.44,767.771 545.497,698.759 546.554,700.3 547.61,792.92 548.667,798.555 549.724,721.381 550.781,722.574 551.838,806.251 552.895,807.126 553.952,763.577 555.009,766.961 556.065,744.109 557.122,748.14 558.179,773.661 559.236,775.879 560.293,798.064 561.35,798.886 562.407,87.9763 563.464,99.9911 564.52,771.692 565.577,773.185 566.634,725.994 567.691,727.052 568.748,767.557 569.805,768.383 570.862,709.02 571.919,710.092 572.975,735.921 574.032,737.165 575.089,666.803 576.146,671.508 577.203,724.919 578.26,725.673 579.317,768.334 580.374,768.722 581.43,738.46 582.487,739.177 583.544,758.024 584.601,758.982 585.658,833.409 586.715,834.441 587.772,821.752 588.829,823.796 589.885,808.973 590.942,812.289 591.999,673.8 593.056,674.474 594.113,732.341 595.17,734.514 596.227,787.17 597.284,787.793 598.34,720.951 599.397,721.326 600.454,698.344 601.511,702.442 602.568,761.246 603.625,762.426 604.682,753.357 605.739,757.091 606.795,723.547 607.852,724.18 608.909,833.994 609.966,834.513 611.023,779.736 612.08,780.698 613.137,739.754 614.194,740.231 615.251,818.178 616.307,819.237 617.364,809.29 618.421,810.461 619.478,733.385 620.535,734.264 621.592,688.119 622.649,691.33 623.706,696.485 624.762,699.001 625.819,777.648 626.876,778.06 627.933,788.745 628.99,790.046 630.047,741.293 631.104,743.356 632.161,719.286 633.217,719.657 634.274,764.962 635.331,767.911 636.388,728.501 637.445,730.676 638.502,776.37 639.559,777.32 640.616,685.088 641.672,686.861 642.729,735.25 643.786,737.476 644.843,709.48 645.9,710.315 646.957,769.074 648.014,769.944 649.071,743.464 650.127,744.001 651.184,798.741 652.241,801.424 653.298,738.09 654.355,740.987 655.412,741.072 656.469,744.348 657.526,718.058 658.582,718.317 659.639,777.234 660.696,777.715 661.753,696.583 662.81,698.805 663.867,733.553 664.924,734.837 665.981,718.477 667.037,721.168 668.094,743.308 669.151,744.781 670.208,727.784 671.265,728.883 672.322,764.113 673.379,765.246 674.436,761.078 675.492,762.629 676.549,762.849 677.606,763.433 678.663,779.979 679.72,780.669 680.777,863.999 681.834,866.732 682.891,725.251 683.948,730.632 685.004,845.978 686.061,846.749 687.118,739.59 688.175,742.648 689.232,768.787 690.289,770.466 691.346,717.719 692.403,718.143 693.459,728.18 694.516,728.859 695.573,779.633 696.63,780.323 697.687,721.596 698.744,722.362 699.801,854.438 700.858,855.293 701.914,743.193 702.971,743.44 704.028,789.537 705.085,791.075 706.142,729.014 707.199,731.228 708.256,748.58 709.313,749.936 710.369,768.903 711.426,770.923 712.483,799.407 713.54,799.69 714.597,774.865 715.654,775.042 716.711,757.453 717.768,757.688 718.824,820.633 719.881,821.081 720.938,766.085 721.995,767.581 723.052,695.386 724.109,697.797 725.166,679.194 726.223,682.666 727.279,715.383 728.336,718.502 729.393,759.167 730.45,761.422 731.507,732.439 732.564,732.75 733.621,766.114 734.678,766.612 735.734,709.632 736.791,710.676 737.848,795.783 738.905,797.249 739.962,729.013 741.019,731.415 742.076,746.025 743.133,748.237 744.189,743.418 745.246,744.675 746.303,792.806 747.36,793.801 748.417,732.51 749.474,734.151 750.531,734.118 751.588,735.103 752.644,718.241 753.701,719.258 754.758,765.972 755.815,767.316 756.872,723.225 757.929,723.939 758.986,734.83 760.043,735.115 761.1,736.367 762.156,736.676 763.213,766.055 764.27,768.887 765.327,718.688 766.384,719.043 767.441,711.312 768.498,712.692 769.555,727.974 770.611,731.758 771.668,696.93 772.725,697.857 773.782,776.787 774.839,781.247 775.896,767.519 776.953,769.166 778.01,763.941 779.066,766.385 780.123,866.02 781.18,866.523 782.237,739.17 783.294,743.679 784.351,751.953 785.408,755.513 786.465,715.292 787.521,716.846 788.578,756.852 789.635,757.353 790.692,782.135 791.749,783.02 792.806,748.603 793.863,748.837 794.92,742.156 795.976,742.836 797.033,756.477 798.09,757.246 799.147,768.243 800.204,769.694 801.261,721.169 802.318,721.656 803.375,729.097 804.431,729.852 805.488,773.147 806.545,774.642 807.602,819.912 808.659,820.886 809.716,732.297 810.773,733.964 811.83,778.71 812.886,779.462 813.943,760.8 815,761.733 816.057,839.646 817.114,841.966 818.171,759.427 819.228,760.365 820.285,778.409 821.341,779.106 822.398,745.686 823.455,746.329 824.512,774.974 825.569,775.233 826.626,762.046 827.683,765.733 828.74,753.36 829.796,757.041 830.853,791.786 831.91,795.859 832.967,757.691 834.024,758.68 835.081,844.389 836.138,845.813 837.195,765.039 838.252,765.868 839.308,744.183 840.365,744.928 841.422,719.9 842.479,720.508 843.536,739.688 844.593,740.638 845.65,785.786 846.707,786.934 847.763,712.317 848.82,713.735 849.877,819.822 850.934,820.523 851.991,757.153 853.048,757.544 854.105,710.588 855.162,711.542 856.218,787.978 857.275,788.212 858.332,750.79 859.389,752.068 860.446,781.807 861.503,782.419 862.56,795.977 863.617,796.602 864.673,833.739 865.73,835.942 866.787,780.446 867.844,781.134 868.901,801.587 869.958,802.344 871.015,725.833 872.072,726.599 873.128,791.154 874.185,791.99 875.242,762.707 876.299,764.204 877.356,741.663 878.413,744.01 879.47,786.787 880.527,787.069 881.583,713.235 882.64,716.608 883.697,738.806 884.754,743.352 885.811,732.597 886.868,732.768 887.925,868.674 888.982,870.004 890.038,718.297 891.095,720.725 892.152,779.878 893.209,781.193 894.266,717.499 895.323,719.927 896.38,758.227 897.437,760.09 898.493,722.932 899.55,723.873 900.607,768.193 901.664,768.397 902.721,751.403 903.778,752.161 904.835,806.686 905.892,807.195 906.948,746.705 908.005,747.287 909.062,797.053 910.119,798.293 911.176,820.74 912.233,821.667 913.29,798.173 914.347,798.915 915.404,783.022 916.46,784.515 917.517,804.304 918.574,804.575 919.631,798.485 920.688,799.158 921.745,732.477 922.802,733.764 923.859,758.951 924.915,760.796 925.972,720.798 927.029,721.443 928.086,731.746 929.143,732.508 930.2,765.439 931.257,765.673 932.314,786.846 933.37,789.753 934.427,708.982 935.484,712.242 936.541,757.375 937.598,757.86 938.655,789.74 939.712,790.819 940.769,739.69 941.825,740.882 942.882,779.889 943.939,780.09 944.996,662.37 946.053,668.088 947.11,726.144 948.167,727.11 949.224,720.899 950.28,721.741 951.337,727.188 952.394,727.959 953.451,753.944 954.508,754.522 955.565,756.472 956.622,758.822 957.679,788.938 958.735,789.458 959.792,736.775 960.849,737.29 961.906,706.926 962.963,709.005 964.02,728.508 965.077,730.105 966.134,739.464 967.19,741.487 968.247,764.708 969.304,766.161 970.361,789.685 971.418,790.28 972.475,726.122 973.532,727.609 974.589,763.999 975.645,764.369 976.702,753.904 977.759,754.36 978.816,760.993 979.873,761.166 980.93,777.562 981.987,779.317 983.044,743.5 984.101,743.636 985.157,725.711 986.214,727.199 987.271,768.276 988.328,769.691 989.385,753.347 990.442,755.006 991.499,723.701 992.556,724.619 993.612,716.919 994.669,719.496 995.726,711.625 996.783,712.311 997.84,738.554 998.897,738.797 999.954,721.616 1001.01,724.567 1002.07,770.665 1003.12,770.993 1004.18,715.42 1005.24,716.3 1006.29,713.139 1007.35,718.744 1008.41,714.39 1009.47,715.29 1010.52,739.176 1011.58,739.382 1012.64,718.57 1013.69,718.924 1014.75,738.44 1015.81,738.817 1016.86,739.611 1017.92,739.873 1018.98,807.981 1020.03,811.144 1021.09,767.555 1022.15,769.068 1023.2,727.384 1024.26,728.691 1025.32,794.386 1026.38,795.467 1027.43,769.384 1028.49,772.336 1029.55,745.955 1030.6,747.696 1031.66,719.444 1032.72,721.974 1033.77,741.111 1034.83,742.938 1035.89,755.516 1036.94,758.014 1038,757.928 1039.06,758.991 1040.11,770.841 1041.17,772.776 1042.23,755.975 1043.29,756.993 1044.34,784.13 1045.4,785.51 1046.46,833.536 1047.51,833.726 1048.57,725.95 1049.63,728.633 1050.68,714.951 1051.74,716.056 1052.8,783.201 1053.85,783.703 1054.91,749.114 1055.97,749.84 1057.02,747.796 1058.08,748.937 1059.14,766.425 1060.2,766.895 1061.25,721.59 1062.31,722.51 1063.37,722.013 1064.42,722.488 1065.48,755.117 1066.54,756.615 1067.59,716.139 1068.65,720.489 1069.71,755.57 1070.76,757.563 1071.82,745.259 1072.88,745.604 1073.94,706.658 1074.99,709.216 1076.05,763.916 1077.11,767.093 1078.16,731.095 1079.22,731.754 1080.28,779.331 1081.33,780.174 1082.39,777.379 1083.45,778.703 1084.5,727.63 1085.56,728.438 1086.62,753.783 1087.67,760.578 1088.73,745.444 1089.79,746.216 1090.85,789.219 1091.9,790.251 1092.96,747.833 1094.02,748.391 1095.07,717.392 1096.13,718.661 1097.19,741.188 1098.24,742.683 1099.3,717.071 1100.36,718.851 1101.41,776.473 1102.47,779.415 1103.53,786.478 1104.58,787.176 1105.64,729.715 1106.7,734.304 1107.76,760.466 1108.81,761.297 1109.87,767.341 1110.93,768.205 1111.98,765.118 1113.04,766.242 1114.1,713.497 1115.15,714.733 1116.21,719.972 1117.27,721.076 1118.32,732.555 1119.38,733.693 1120.44,739.843 1121.49,744.573 1122.55,761.387 1123.61,767.938 1124.67,726.999 1125.72,728.863 1126.78,730.237 1127.84,730.768 1128.89,742.675 1129.95,743.149 1131.01,749.35 1132.06,750.367 1133.12,745.196 1134.18,746.01 1135.23,794.6 1136.29,795.139 1137.35,743.68 1138.4,743.961 1139.46,752.383 1140.52,755.329 1141.58,725.977 1142.63,727.584 1143.69,726.085 1144.75,727.207 1145.8,789.387 1146.86,789.776 1147.92,760.719 1148.97,762.553 1150.03,720.934 1151.09,722.876 1152.14,765.036 1153.2,765.759 1154.26,721.751 1155.31,723.72 1156.37,788.817 1157.43,789.485 1158.49,768.321 1159.54,768.461 1160.6,751.005 1161.66,751.371 1162.71,725.078 1163.77,730.178 1164.83,766.501 1165.88,767.069 1166.94,730.178 1168,735.584 1169.05,756.975 1170.11,757.801 1171.17,751.309 1172.22,752.906 1173.28,773.369 1174.34,773.818 1175.4,763.138 1176.45,764.298 1177.51,797.801 1178.57,798.283 1179.62,722.104 1180.68,722.407 1181.74,771.309 1182.79,772.175 1183.85,778.41 1184.91,779.274 1185.96,762.532 1187.02,763.593 1188.08,800.811 1189.13,801.511 1190.19,760.224 1191.25,760.748 1192.31,752.882 1193.36,753.278 1194.42,723.503 1195.48,723.857 1196.53,746.363 1197.59,746.797 1198.65,797.202 1199.7,797.493 1200.76,744.345 1201.82,745.874 1202.87,765.02 1203.93,772.648 1204.99,738.174 1206.04,738.194 1207.1,700.361 1208.16,705.973 1209.22,748.034 1210.27,748.207 1211.33,718.509 1212.39,719.041 1213.44,732.178 1214.5,733.398 1215.56,744.34 1216.61,746.256 1217.67,752.309 1218.73,752.392 1219.78,716.115 1220.84,717.487 1221.9,760.773 1222.95,761.708 1224.01,726.13 1225.07,726.98 1226.13,731.534 1227.18,732.025 1228.24,751.24 1229.3,751.27 1230.35,730.703 1231.41,730.736 1232.47,753.688 1233.52,754.958 1234.58,741.444 1235.64,741.959 1236.69,743.441 1237.75,745.978 1238.81,783.272 1239.86,783.744 1240.92,804.484 1241.98,806.39 1243.04,742.925 1244.09,744.331 1245.15,742.669 1246.21,744.204 1247.26,719.24 1248.32,721.466 1249.38,747.441 1250.43,747.849 1251.49,777.017 1252.55,777.689 1253.6,749.744 1254.66,752.332 1255.72,788.986 1256.77,790.121 1257.83,754.579 1258.89,757.109 1259.95,778.919 1261,781.956 1262.06,736.505 1263.12,736.657 1264.17,738.488 1265.23,739.375 1266.29,754.71 1267.34,757.604 1268.4,754.3 1269.46,754.331 1270.51,735.554 1271.57,735.646 1272.63,751.332 1273.68,751.77 1274.74,726.997 1275.8,727.783 1276.86,756.259 1277.91,756.725 1278.97,712.812 1280.03,714.463 1281.08,722.243 1282.14,725.115 1283.2,756.109 1284.25,757.374 1285.31,722.374 1286.37,723.272 1287.42,732.023 1288.48,732.364 1289.54,736.132 1290.59,736.509 1291.65,751.546 1292.71,751.832 1293.77,775.497 1294.82,775.623 1295.88,727.341 1296.94,728.469 1297.99,746.897 1299.05,748.578 1300.11,729.014 1301.16,729.329 1302.22,759.869 1303.28,759.989 1304.33,716.887 1305.39,720.376 1306.45,739.186 1307.5,741.472 1308.56,740.053 1309.62,743.128 1310.68,790.599 1311.73,791.885 1312.79,746.009 1313.85,746.66 1314.9,734.35 1315.96,734.972 1317.02,774.064 1318.07,775.168 1319.13,731.978 1320.19,734.449 1321.24,768.44 1322.3,771.307 1323.36,727.454 1324.41,727.769 1325.47,776.94 1326.53,777.647 1327.59,754.93 1328.64,755.555 1329.7,730.298 1330.76,730.459 1331.81,754.904 1332.87,755.021 1333.93,764.164 1334.98,765.616 1336.04,734.763 1337.1,735.676 1338.15,778.196 1339.21,779.682 1340.27,754.135 1341.32,755.353 1342.38,737.559 1343.44,739.162 1344.5,731.289 1345.55,731.352 1346.61,770.548 1347.67,770.742 1348.72,724.679 1349.78,725.346 1350.84,774.72 1351.89,775.333 1352.95,730.556 1354.01,730.841 1355.06,794.688 1356.12,796.856 1357.18,725.315 1358.23,725.812 1359.29,779.313 1360.35,780.021 1361.41,729.495 1362.46,730.103 1363.52,783.734 1364.58,784.284 1365.63,775.573 1366.69,775.599 1367.75,761.886 1368.8,764.007 1369.86,718.906 1370.92,719.801 1371.97,768.025 1373.03,768.935 1374.09,769.817 1375.14,771.263 1376.2,783.562 1377.26,785.377 1378.32,736.074 1379.37,737.528 1380.43,751.553 1381.49,752.403 1382.54,720.714 1383.6,723.146 1384.66,729.929 1385.71,731.098 1386.77,753.912 1387.83,754.254 1388.88,749.656 1389.94,749.998 1391,758.466 1392.05,759.838 1393.11,736.814 1394.17,737.032 1395.23,715.039 1396.28,719.309 1397.34,739.866 1398.4,741.57 1399.45,736.196 1400.51,736.88 1401.57,727.981 1402.62,728.465 1403.68,758.026 1404.74,759.132 1405.79,745.413 1406.85,747.269 1407.91,757.853 1408.96,758.3 1410.02,714.173 1411.08,716.14 1412.14,756.04 1413.19,756.961 1414.25,772.282 1415.31,774.233 1416.36,750.46 1417.42,751.434 1418.48,735.473 1419.53,739.985 1420.59,723.244 1421.65,724.206 1422.7,734.29 1423.76,734.982 1424.82,736.379 1425.87,737.126 1426.93,769.341 1427.99,769.66 1429.05,730.776 1430.1,730.992 1431.16,739.968 1432.22,741.69 1433.27,740.511 1434.33,741.338 1435.39,810.091 1436.44,811.212 1437.5,762.728 1438.56,763.288 1439.61,816.49 1440.67,819.868 1441.73,733.23 1442.79,737.827 1443.84,736.625 1444.9,737.646 1445.96,774.315 1447.01,774.506 1448.07,747.587 1449.13,748.04 1450.18,769.774 1451.24,770.72 1452.3,733.97 1453.35,734.41 1454.41,764.789 1455.47,765.803 1456.52,771.496 1457.58,773.889 1458.64,734.42 1459.7,742.046 1460.75,726.938 1461.81,728.767 1462.87,757.514 1463.92,757.892 1464.98,713.624 1466.04,716.795 1467.09,772.899 1468.15,774.992 1469.21,747.782 1470.26,748.517 1471.32,743.561 1472.38,744.212 1473.43,737.375 1474.49,737.76 1475.55,749.058 1476.61,749.819 1477.66,722.955 1478.72,725.271 1479.78,769.713 1480.83,770.056 1481.89,788.045 1482.95,788.898 1484,805.532 1485.06,806.101 1486.12,758.254 1487.17,758.528 1488.23,716.984 1489.29,720.967 1490.34,752.31 1491.4,753.017 1492.46,784.38 1493.52,784.618 1494.57,723.506 1495.63,724.781 1496.69,733.342 1497.74,733.737 1498.8,750.485 1499.86,752.541 1500.91,739.689 1501.97,739.734 1503.03,769.266 1504.08,770.279 1505.14,785.331 1506.2,785.721 1507.25,770.503 1508.31,773.041 1509.37,791.439 1510.43,791.615 1511.48,738.967 1512.54,739.459 1513.6,778.855 1514.65,779.416 1515.71,738.188 1516.77,739.201 1517.82,772.604 1518.88,773.056 1519.94,748.277 1520.99,749.953 1522.05,759.077 1523.11,759.277 1524.16,735.147 1525.22,735.775 1526.28,757.474 1527.34,759.559 1528.39,746.874 1529.45,747.788 1530.51,722.286 1531.56,723.608 1532.62,745.806 1533.68,747.069 1534.73,752.367 1535.79,752.976 1536.85,761.38 1537.9,762.063 1538.96,720.527 1540.02,724.367 1541.07,761.412 1542.13,761.76 1543.19,738.942 1544.25,742.428 1545.3,738.072 1546.36,738.565 1547.42,754.483 1548.47,754.754 1549.53,740.815 1550.59,742.017 1551.64,743.339 1552.7,745.912 1553.76,738.101 1554.81,738.493 1555.87,736.979 1556.93,737.914 1557.98,775.858 1559.04,776.583 1560.1,763.894 1561.16,764.691 1562.21,744.978 1563.27,748.825 1564.33,718.493 1565.38,720.141 1566.44,752.41 1567.5,753.819 1568.55,759.716 1569.61,759.812 1570.67,766.182 1571.72,769.932 1572.78,773.558 1573.84,774.523 1574.89,775.859 1575.95,776.612 1577.01,779.871 1578.07,781.282 1579.12,780.087 1580.18,781.505 1581.24,780.906 1582.29,781.645 1583.35,746.44 1584.41,747.222 1585.46,733.587 1586.52,733.701 1587.58,765.014 1588.63,767.027 1589.69,724.616 1590.75,728.961 1591.8,745.334 1592.86,747.113 1593.92,763.552 1594.98,764.09 1596.03,759.563 1597.09,760.614 1598.15,780.056 1599.2,780.471 1600.26,739.186 1601.32,739.43 1602.37,749.179 1603.43,749.87 1604.49,734.259 1605.54,736.064 1606.6,777.035 1607.66,777.341 1608.71,761.749 1609.77,762.545 1610.83,760.565 1611.89,760.71 1612.94,719.568 1614,722.272 1615.06,756.061 1616.11,756.349 1617.17,757.995 1618.23,758.61 1619.28,756.615 1620.34,757.533 1621.4,742.848 1622.45,748.46 1623.51,736.679 1624.57,737.726 1625.62,734.172 1626.68,734.962 1627.74,738.369 1628.8,738.64 1629.85,740.316 1630.91,741.87 1631.97,742.238 1633.02,743.258 1634.08,773.121 1635.14,774.452 1636.19,749.235 1637.25,750.425 1638.31,737.936 1639.36,738.59 1640.42,766.528 1641.48,767.939 1642.53,728.325 1643.59,730.606 1644.65,736.829 1645.71,737.091 1646.76,784.443 1647.82,786.157 1648.88,757.14 1649.93,758.596 1650.99,735.818 1652.05,736.681 1653.1,740.569 1654.16,741.624 1655.22,735.399 1656.27,736.096 1657.33,732.122 1658.39,732.563 1659.44,760.042 1660.5,763.23 1661.56,738.436 1662.62,738.999 1663.67,736.216 1664.73,736.369 1665.79,743.996 1666.84,744.247 1667.9,730.523 1668.96,731.698 1670.01,764.009 1671.07,764.971 1672.13,728.122 1673.18,729.602 1674.24,782.155 1675.3,783.358 1676.35,766.317 1677.41,767.686 1678.47,805.38 1679.53,805.973 1680.58,734.151 1681.64,735.133 1682.7,794.661 1683.75,795.85 1684.81,780.209 1685.87,784.286 1686.92,767.663 1687.98,769.018 1689.04,740.051 1690.09,740.707 1691.15,756.486 1692.21,757.654 1693.26,748.454 1694.32,749.273 1695.38,765.099 1696.44,766.01 1697.49,790.504 1698.55,791.288 1699.61,733.136 1700.66,735.273 1701.72,777.966 1702.78,779.25 1703.83,746.857 1704.89,747.393 1705.95,764.393 1707,766.036 1708.06,749.892 1709.12,750.685 1710.17,760.249 1711.23,762.142 1712.29,748.065 1713.35,749.278 1714.4,720.949 1715.46,723.549 1716.52,738.462 1717.57,739.515 1718.63,735.31 1719.69,735.875 1720.74,760.529 1721.8,761.205 1722.86,732.745 1723.91,734.21 1724.97,731.551 1726.03,732.921 1727.08,736.764 1728.14,738.74 1729.2,771.008 1730.26,773.009 1731.31,731.221 1732.37,732.329 1733.43,738.351 1734.48,738.594 1735.54,753.276 1736.6,756.439 1737.65,758.606 1738.71,759.188 1739.77,736.521 1740.82,736.697 1741.88,737.728 1742.94,738.203 1743.99,783.208 1745.05,784.538 1746.11,798.182 1747.17,799.397 1748.22,734.031 1749.28,740.872 1750.34,748.318 1751.39,748.971 1752.45,769.544 1753.51,770.932 1754.56,736.833 1755.62,738.178 1756.68,757.379 1757.73,757.539 1758.79,749.158 1759.85,750.256 1760.9,795.867 1761.96,796.212 1763.02,769.533 1764.08,770.852 1765.13,710.531 1766.19,717.403 1767.25,763.059 1768.3,763.821 1769.36,759.824 1770.42,765.795 1771.47,741.747 1772.53,742.038 1773.59,768.091 1774.64,769.207 1775.7,755.726 1776.76,756.871 1777.81,739.256 1778.87,740.028 1779.93,747.779 1780.99,748.045 1782.04,752.365 1783.1,752.882 1784.16,770.374 1785.21,771.467 1786.27,728.581 1787.33,731.753 1788.38,762.56 1789.44,762.883 1790.5,737.107 1791.55,737.404 1792.61,735.986 1793.67,736.923 1794.72,741.964 1795.78,742.535 1796.84,733.95 1797.9,735.136 1798.95,748.501 1800.01,749.568 1801.07,756.338 1802.12,756.664 1803.18,739.899 1804.24,740.242 1805.29,736.828 1806.35,737.236 1807.41,758.131 1808.46,758.818 1809.52,775.715 1810.58,779.504 1811.64,750.155 1812.69,753.171 1813.75,733.115 1814.81,733.536 1815.86,778.176 1816.92,778.749 1817.98,747.482 1819.03,748.066 1820.09,734.404 1821.15,734.765 1822.2,751.772 1823.26,752.734 1824.32,741.123 1825.37,743.177 1826.43,740.054 1827.49,740.267 1828.55,740.034 1829.6,740.32 1830.66,738.908 1831.72,739.547 1832.77,734.669 1833.83,735.007 1834.89,740.475 1835.94,740.535 1837,782.375 1838.06,782.998 1839.11,746.414 1840.17,747.315 1841.23,745.695 1842.28,747.691 1843.34,743.583 1844.4,744.675 1845.46,727.845 1846.51,729.735 1847.57,762.617 1848.63,762.761 1849.68,760.031 1850.74,761.244 1851.8,779.292 1852.85,779.702 1853.91,771.92 1854.97,773.957 1856.02,759.505 1857.08,760.514 1858.14,756.965 1859.19,757.402 1860.25,733.85 1861.31,737.076 1862.37,774.709 1863.42,777.789 1864.48,736.764 1865.54,737.517 1866.59,762.847 1867.65,763.244 1868.71,751.221 1869.76,752.99 1870.82,741.293 1871.88,741.786 1872.93,734.086 1873.99,735.276 1875.05,779.219 1876.1,780.364 1877.16,759.834 1878.22,760.525 1879.28,737.958 1880.33,739.567 1881.39,737.557 1882.45,739.568 1883.5,746.49 1884.56,747.808 1885.62,754.669 1886.67,755.334 1887.73,752.396 1888.79,753.874 1889.84,755.366 1890.9,756.556 1891.96,739.449 1893.01,741.768 1894.07,782.054 1895.13,782.411 1896.19,756.19 1897.24,757.005 1898.3,751.768 1899.36,757.628 1900.41,758.174 1901.47,759.884 1902.53,718.659 1903.58,720.884 1904.64,748.531 1905.7,749.037 1906.75,782.154 1907.81,782.875 1908.87,765.367 1909.92,766.485 1910.98,798.354 1912.04,799.521 1913.1,786.463 1914.15,787.099 1915.21,736.328 1916.27,737.526 1917.32,750.746 1918.38,752.674 1919.44,783.384 1920.49,784.594 1921.55,743.714 1922.61,747.739 1923.66,736.488 1924.72,737.312 1925.78,733.009 1926.83,735.092 1927.89,736.257 1928.95,738.506 1930.01,745.588 1931.06,746.594 1932.12,745.193 1933.18,745.374 1934.23,752.742 1935.29,756.765 1936.35,760.729 1937.4,762.157 1938.46,760.32 1939.52,760.867 1940.57,785.982 1941.63,787.418 1942.69,729.727 1943.74,734.136 1944.8,758.35 1945.86,758.573 1946.92,741.331 1947.97,745.005 1949.03,752.653 1950.09,753.632 1951.14,775.262 1952.2,778.451 1953.26,764.049 1954.31,764.259 1955.37,785.139 1956.43,785.292 1957.48,753.765 1958.54,755.303 1959.6,758.18 1960.65,758.537 1961.71,730.018 1962.77,731.171 1963.83,766.794 1964.88,767.067 1965.94,729.161 1967,730.257 1968.05,779.775 1969.11,780.925 1970.17,774.09 1971.22,775.661 1972.28,740.203 1973.34,741.245 1974.39,759.482 1975.45,759.684 1976.51,744.426 1977.56,744.803 1978.62,783.759 1979.68,786.306 1980.74,756.654 1981.79,757.812 1982.85,737.17 1983.91,738.457 1984.96,730.5 1986.02,732.099 1987.08,748.892 1988.13,749.636 1989.19,762.719 1990.25,763.845 1991.3,732.454 1992.36,734.05 1993.42,726.355 1994.47,728.382 1995.53,759.621 1996.59,759.782 1997.65,736.806 1998.7,737.689 1999.76,744.622 2000.82,746.237 2001.87,771.26 2002.93,772.791 2003.99,729.06 2005.04,731.025 2006.1,765.158 2007.16,765.314 2008.21,741.718 2009.27,744.165 2010.33,758.802 2011.38,759.959 2012.44,759.361 2013.5,759.756 2014.56,754.132 2015.61,755.759 2016.67,731.008 2017.73,735.174 2018.78,756.038 2019.84,757.899 2020.9,724.965 2021.95,729.841 2023.01,737.176 2024.07,739.776 2025.12,744.599 2026.18,747.211 2027.24,742.562 2028.29,742.641 2029.35,775.116 2030.41,777.535 2031.47,782.599 2032.52,782.635 2033.58,737.719 2034.64,738.677 2035.69,742.307 2036.75,743.547 2037.81,758.111 2038.86,760.147 2039.92,753.094 2040.98,754.544 2042.03,744.152 2043.09,745.042 2044.15,734.931 2045.2,737.234 2046.26,739.803 2047.32,740.273 2048.38,738.681 2049.43,739.307 2050.49,757.195 2051.55,758.832 2052.6,766.549 2053.66,768.276 2054.72,767.073 2055.77,767.781 2056.83,749.54 2057.89,752.584 2058.94,740.993 2060,741.581 2061.06,745.406 2062.11,747.169 2063.17,788.752 2064.23,789.246 2065.29,736.845 2066.34,737.229 2067.4,759.763 2068.46,760.111 2069.51,760.173 2070.57,760.324 2071.63,740.954 2072.68,741.895 2073.74,761.638 2074.8,761.987 2075.85,740.44 2076.91,742.975 2077.97,763.398 2079.02,764.36 2080.08,745.218 2081.14,747.091 2082.2,738.471 2083.25,740.658 2084.31,749.057 2085.37,749.525 2086.42,752.094 2087.48,752.561 2088.54,757.309 2089.59,757.844 2090.65,742.451 2091.71,744.554 2092.76,782.062 2093.82,783.622 2094.88,740.005 2095.93,740.355 2096.99,729.706 2098.05,732.563 2099.11,735.118 2100.16,736.267 2101.22,733.304 2102.28,733.91 2103.33,756.524 2104.39,757.228 2105.45,758.359 2106.5,760.064 2107.56,749.536 2108.62,750.299 2109.67,728.354 2110.73,729.619 2111.79,746.611 2112.84,746.91 2113.9,757.573 2114.96,757.931 2116.02,764.714 2117.07,765.87 2118.13,733.446 2119.19,733.983 2120.24,753.771 2121.3,754.491 2122.36,782.077 2123.41,782.109 2124.47,737.161 2125.53,738.77 2126.58,764.241 2127.64,764.634 2128.7,764.443 2129.75,765.523 2130.81,743.227 2131.87,743.467 2132.93,737.774 2133.98,738.915 2135.04,767.32 2136.1,768.004 2137.15,750.863 2138.21,751.945 2139.27,748.438 2140.32,749.856 2141.38,744.414 2142.44,744.574 2143.49,740.39 2144.55,740.551 2145.61,747.237 2146.66,747.894 2147.72,742.614 2148.78,743.012 2149.84,766.301 2150.89,767.77 2151.95,747.192 2153.01,748.2 2154.06,755.204 2155.12,756.198 2156.18,769.005 2157.23,769.534 2158.29,738.363 2159.35,738.515 2160.4,763.587 2161.46,764.549 2162.52,731.028 2163.57,731.961 2164.63,736.94 2165.69,738.006 2166.75,758.902 2167.8,759.285 2168.86,745.326 2169.92,748.284 2170.97,760.173 2172.03,760.402 2173.09,739.006 2174.14,739.683 2175.2,764.801 2176.26,765.036 2177.31,767.51 2178.37,768.302 2179.43,764.705 2180.48,764.798 2181.54,764.221 2182.6,764.522 2183.66,765.698 2184.71,765.97 2185.77,779.011 2186.83,779.424 2187.88,763.997 2188.94,764.312 2190,765.868 2191.05,766.45 2192.11,771.809 2193.17,772.945 2194.22,734.446 2195.28,735.401 2196.34,772.159 2197.4,773.268 2198.45,734.869 2199.51,736.716 2200.57,754.697 2201.62,755.834 2202.68,770.438 2203.74,770.852 2204.79,718.443 2205.85,722.569 2206.91,737.89 2207.96,738.498 2209.02,746.767 2210.08,747.425 2211.13,737.773 2212.19,738.729 2213.25,741.057 2214.31,746.427 2215.36,752.66 2216.42,753.715 2217.48,748.592 2218.53,750.863 2219.59,767.765 2220.65,767.839 2221.7,733.783 2222.76,735.556 2223.82,743.044 2224.87,743.162 2225.93,753.345 2226.99,755.18 2228.04,743.356 2229.1,745.729 2230.16,765.172 2231.22,766.756 2232.27,723.118 2233.33,728.492 2234.39,743.113 2235.44,743.428 2236.5,747.966 2237.56,751.591 2238.61,753.35 2239.67,754.903 2240.73,744.382 2241.78,744.901 2242.84,738.266 2243.9,739.316 2244.95,743.216 2246.01,743.89 2247.07,735.642 2248.13,736.819 2249.18,764.613 2250.24,765.545 2251.3,738.575 2252.35,739.531 2253.41,782.364 2254.47,783.467 2255.52,740.577 2256.58,740.836 2257.64,763.73 2258.69,764.474 2259.75,767.592 2260.81,773.617 2261.86,805.591 2262.92,808.224 2263.98,752.446 2265.04,753.291 2266.09,749.199 2267.15,750.652 2268.21,747.58 2269.26,747.896 2270.32,768.25 2271.38,769.112 2272.43,746.328 2273.49,746.792 2274.55,740.047 2275.6,742.23 2276.66,737.528 2277.72,739.64 2278.77,767.89 2279.83,769.587 2280.89,747.27 2281.95,747.692 2283,748.677 2284.06,749.377 2285.12,750.593 2286.17,752.269 2287.23,745.53 2288.29,746.704 2289.34,747.747 "/>
<path clip-path="url(#clip460)" d="M2001.58 198.898 L2278.07 198.898 L2278.07 95.2176 L2001.58 95.2176  Z" fill="#ffffff" fill-rule="evenodd" fill-opacity="1"/>
<polyline clip-path="url(#clip460)" style="stroke:#000000; stroke-linecap:round; stroke-linejoin:round; stroke-width:4; stroke-opacity:1; fill:none" points="2001.58,198.898 2278.07,198.898 2278.07,95.2176 2001.58,95.2176 2001.58,198.898 "/>
<polyline clip-path="url(#clip460)" style="stroke:#009af9; stroke-linecap:round; stroke-linejoin:round; stroke-width:4; stroke-opacity:1; fill:none" points="2026.48,147.058 2175.85,147.058 "/>
<path clip-path="url(#clip460)" d="M2214.59 166.745 Q2212.78 171.375 2211.07 172.787 Q2209.36 174.199 2206.49 174.199 L2203.08 174.199 L2203.08 170.634 L2205.58 170.634 Q2207.34 170.634 2208.31 169.8 Q2209.29 168.967 2210.47 165.865 L2211.23 163.921 L2200.74 138.412 L2205.26 138.412 L2213.36 158.689 L2221.46 138.412 L2225.98 138.412 L2214.59 166.745 Z" fill="#000000" fill-rule="nonzero" fill-opacity="1" /><path clip-path="url(#clip460)" d="M2233.27 160.402 L2240.91 160.402 L2240.91 134.037 L2232.6 135.703 L2232.6 131.444 L2240.86 129.778 L2245.54 129.778 L2245.54 160.402 L2253.17 160.402 L2253.17 164.338 L2233.27 164.338 L2233.27 160.402 Z" fill="#000000" fill-rule="nonzero" fill-opacity="1" /></svg>
