<?xml version="1.0" encoding="utf-8"?>
<svg xmlns="http://www.w3.org/2000/svg" xmlns:xlink="http://www.w3.org/1999/xlink" width="600" height="400" viewBox="0 0 2400 1600">
<defs>
  <clipPath id="clip100">
    <rect x="0" y="0" width="2400" height="1600"/>
  </clipPath>
</defs>
<path clip-path="url(#clip100)" d="M0 1600 L2400 1600 L2400 0 L0 0  Z" fill="#ffffff" fill-rule="evenodd" fill-opacity="1"/>
<defs>
  <clipPath id="clip101">
    <rect x="480" y="0" width="1681" height="1600"/>
  </clipPath>
</defs>
<path clip-path="url(#clip100)" d="M230.996 1486.45 L2352.76 1486.45 L2352.76 47.2441 L230.996 47.2441  Z" fill="#ffffff" fill-rule="evenodd" fill-opacity="1"/>
<defs>
  <clipPath id="clip102">
    <rect x="230" y="47" width="2123" height="1440"/>
  </clipPath>
</defs>
<polyline clip-path="url(#clip102)" style="stroke:#000000; stroke-linecap:round; stroke-linejoin:round; stroke-width:2; stroke-opacity:0.1; fill:none" points="291.046,1486.45 291.046,47.2441 "/>
<polyline clip-path="url(#clip102)" style="stroke:#000000; stroke-linecap:round; stroke-linejoin:round; stroke-width:2; stroke-opacity:0.1; fill:none" points="791.461,1486.45 791.461,47.2441 "/>
<polyline clip-path="url(#clip102)" style="stroke:#000000; stroke-linecap:round; stroke-linejoin:round; stroke-width:2; stroke-opacity:0.1; fill:none" points="1291.88,1486.45 1291.88,47.2441 "/>
<polyline clip-path="url(#clip102)" style="stroke:#000000; stroke-linecap:round; stroke-linejoin:round; stroke-width:2; stroke-opacity:0.1; fill:none" points="1792.29,1486.45 1792.29,47.2441 "/>
<polyline clip-path="url(#clip102)" style="stroke:#000000; stroke-linecap:round; stroke-linejoin:round; stroke-width:2; stroke-opacity:0.1; fill:none" points="2292.71,1486.45 2292.71,47.2441 "/>
<polyline clip-path="url(#clip100)" style="stroke:#000000; stroke-linecap:round; stroke-linejoin:round; stroke-width:4; stroke-opacity:1; fill:none" points="230.996,1486.45 2352.76,1486.45 "/>
<polyline clip-path="url(#clip100)" style="stroke:#000000; stroke-linecap:round; stroke-linejoin:round; stroke-width:4; stroke-opacity:1; fill:none" points="291.046,1486.45 291.046,1467.55 "/>
<polyline clip-path="url(#clip100)" style="stroke:#000000; stroke-linecap:round; stroke-linejoin:round; stroke-width:4; stroke-opacity:1; fill:none" points="791.461,1486.45 791.461,1467.55 "/>
<polyline clip-path="url(#clip100)" style="stroke:#000000; stroke-linecap:round; stroke-linejoin:round; stroke-width:4; stroke-opacity:1; fill:none" points="1291.88,1486.45 1291.88,1467.55 "/>
<polyline clip-path="url(#clip100)" style="stroke:#000000; stroke-linecap:round; stroke-linejoin:round; stroke-width:4; stroke-opacity:1; fill:none" points="1792.29,1486.45 1792.29,1467.55 "/>
<polyline clip-path="url(#clip100)" style="stroke:#000000; stroke-linecap:round; stroke-linejoin:round; stroke-width:4; stroke-opacity:1; fill:none" points="2292.71,1486.45 2292.71,1467.55 "/>
<path clip-path="url(#clip100)" d="M291.046 1517.37 Q287.435 1517.37 285.606 1520.93 Q283.8 1524.47 283.8 1531.6 Q283.8 1538.71 285.606 1542.27 Q287.435 1545.82 291.046 1545.82 Q294.68 1545.82 296.486 1542.27 Q298.314 1538.71 298.314 1531.6 Q298.314 1524.47 296.486 1520.93 Q294.68 1517.37 291.046 1517.37 M291.046 1513.66 Q296.856 1513.66 299.911 1518.27 Q302.99 1522.85 302.99 1531.6 Q302.99 1540.33 299.911 1544.94 Q296.856 1549.52 291.046 1549.52 Q285.236 1549.52 282.157 1544.94 Q279.101 1540.33 279.101 1531.6 Q279.101 1522.85 282.157 1518.27 Q285.236 1513.66 291.046 1513.66 Z" fill="#000000" fill-rule="nonzero" fill-opacity="1" /><path clip-path="url(#clip100)" d="M751.079 1514.29 L769.436 1514.29 L769.436 1518.22 L755.362 1518.22 L755.362 1526.7 Q756.38 1526.35 757.399 1526.19 Q758.417 1526 759.436 1526 Q765.223 1526 768.602 1529.17 Q771.982 1532.34 771.982 1537.76 Q771.982 1543.34 768.51 1546.44 Q765.037 1549.52 758.718 1549.52 Q756.542 1549.52 754.274 1549.15 Q752.028 1548.78 749.621 1548.04 L749.621 1543.34 Q751.704 1544.47 753.926 1545.03 Q756.149 1545.58 758.625 1545.58 Q762.63 1545.58 764.968 1543.48 Q767.306 1541.37 767.306 1537.76 Q767.306 1534.15 764.968 1532.04 Q762.63 1529.94 758.625 1529.94 Q756.75 1529.94 754.875 1530.35 Q753.024 1530.77 751.079 1531.65 L751.079 1514.29 Z" fill="#000000" fill-rule="nonzero" fill-opacity="1" /><path clip-path="url(#clip100)" d="M791.195 1517.37 Q787.584 1517.37 785.755 1520.93 Q783.949 1524.47 783.949 1531.6 Q783.949 1538.71 785.755 1542.27 Q787.584 1545.82 791.195 1545.82 Q794.829 1545.82 796.634 1542.27 Q798.463 1538.71 798.463 1531.6 Q798.463 1524.47 796.634 1520.93 Q794.829 1517.37 791.195 1517.37 M791.195 1513.66 Q797.005 1513.66 800.06 1518.27 Q803.139 1522.85 803.139 1531.6 Q803.139 1540.33 800.06 1544.94 Q797.005 1549.52 791.195 1549.52 Q785.385 1549.52 782.306 1544.94 Q779.25 1540.33 779.25 1531.6 Q779.25 1522.85 782.306 1518.27 Q785.385 1513.66 791.195 1513.66 Z" fill="#000000" fill-rule="nonzero" fill-opacity="1" /><path clip-path="url(#clip100)" d="M821.357 1517.37 Q817.745 1517.37 815.917 1520.93 Q814.111 1524.47 814.111 1531.6 Q814.111 1538.71 815.917 1542.27 Q817.745 1545.82 821.357 1545.82 Q824.991 1545.82 826.796 1542.27 Q828.625 1538.71 828.625 1531.6 Q828.625 1524.47 826.796 1520.93 Q824.991 1517.37 821.357 1517.37 M821.357 1513.66 Q827.167 1513.66 830.222 1518.27 Q833.301 1522.85 833.301 1531.6 Q833.301 1540.33 830.222 1544.94 Q827.167 1549.52 821.357 1549.52 Q815.546 1549.52 812.468 1544.94 Q809.412 1540.33 809.412 1531.6 Q809.412 1522.85 812.468 1518.27 Q815.546 1513.66 821.357 1513.66 Z" fill="#000000" fill-rule="nonzero" fill-opacity="1" /><path clip-path="url(#clip100)" d="M1236.4 1544.91 L1244.04 1544.91 L1244.04 1518.55 L1235.73 1520.21 L1235.73 1515.95 L1243.99 1514.29 L1248.67 1514.29 L1248.67 1544.91 L1256.31 1544.91 L1256.31 1548.85 L1236.4 1548.85 L1236.4 1544.91 Z" fill="#000000" fill-rule="nonzero" fill-opacity="1" /><path clip-path="url(#clip100)" d="M1275.75 1517.37 Q1272.14 1517.37 1270.31 1520.93 Q1268.51 1524.47 1268.51 1531.6 Q1268.51 1538.71 1270.31 1542.27 Q1272.14 1545.82 1275.75 1545.82 Q1279.39 1545.82 1281.19 1542.27 Q1283.02 1538.71 1283.02 1531.6 Q1283.02 1524.47 1281.19 1520.93 Q1279.39 1517.37 1275.75 1517.37 M1275.75 1513.66 Q1281.56 1513.66 1284.62 1518.27 Q1287.7 1522.85 1287.7 1531.6 Q1287.7 1540.33 1284.62 1544.94 Q1281.56 1549.52 1275.75 1549.52 Q1269.94 1549.52 1266.86 1544.94 Q1263.81 1540.33 1263.81 1531.6 Q1263.81 1522.85 1266.86 1518.27 Q1269.94 1513.66 1275.75 1513.66 Z" fill="#000000" fill-rule="nonzero" fill-opacity="1" /><path clip-path="url(#clip100)" d="M1305.92 1517.37 Q1302.3 1517.37 1300.48 1520.93 Q1298.67 1524.47 1298.67 1531.6 Q1298.67 1538.71 1300.48 1542.27 Q1302.3 1545.82 1305.92 1545.82 Q1309.55 1545.82 1311.36 1542.27 Q1313.18 1538.71 1313.18 1531.6 Q1313.18 1524.47 1311.36 1520.93 Q1309.55 1517.37 1305.92 1517.37 M1305.92 1513.66 Q1311.73 1513.66 1314.78 1518.27 Q1317.86 1522.85 1317.86 1531.6 Q1317.86 1540.33 1314.78 1544.94 Q1311.73 1549.52 1305.92 1549.52 Q1300.11 1549.52 1297.03 1544.94 Q1293.97 1540.33 1293.97 1531.6 Q1293.97 1522.85 1297.03 1518.27 Q1300.11 1513.66 1305.92 1513.66 Z" fill="#000000" fill-rule="nonzero" fill-opacity="1" /><path clip-path="url(#clip100)" d="M1336.08 1517.37 Q1332.47 1517.37 1330.64 1520.93 Q1328.83 1524.47 1328.83 1531.6 Q1328.83 1538.71 1330.64 1542.27 Q1332.47 1545.82 1336.08 1545.82 Q1339.71 1545.82 1341.52 1542.27 Q1343.35 1538.71 1343.35 1531.6 Q1343.35 1524.47 1341.52 1520.93 Q1339.71 1517.37 1336.08 1517.37 M1336.08 1513.66 Q1341.89 1513.66 1344.94 1518.27 Q1348.02 1522.85 1348.02 1531.6 Q1348.02 1540.33 1344.94 1544.94 Q1341.89 1549.52 1336.08 1549.52 Q1330.27 1549.52 1327.19 1544.94 Q1324.13 1540.33 1324.13 1531.6 Q1324.13 1522.85 1327.19 1518.27 Q1330.27 1513.66 1336.08 1513.66 Z" fill="#000000" fill-rule="nonzero" fill-opacity="1" /><path clip-path="url(#clip100)" d="M1736.82 1544.91 L1744.46 1544.91 L1744.46 1518.55 L1736.15 1520.21 L1736.15 1515.95 L1744.41 1514.29 L1749.09 1514.29 L1749.09 1544.91 L1756.72 1544.91 L1756.72 1548.85 L1736.82 1548.85 L1736.82 1544.91 Z" fill="#000000" fill-rule="nonzero" fill-opacity="1" /><path clip-path="url(#clip100)" d="M1766.21 1514.29 L1784.57 1514.29 L1784.57 1518.22 L1770.5 1518.22 L1770.5 1526.7 Q1771.52 1526.35 1772.53 1526.19 Q1773.55 1526 1774.57 1526 Q1780.36 1526 1783.74 1529.17 Q1787.12 1532.34 1787.12 1537.76 Q1787.12 1543.34 1783.65 1546.44 Q1780.17 1549.52 1773.85 1549.52 Q1771.68 1549.52 1769.41 1549.15 Q1767.16 1548.78 1764.76 1548.04 L1764.76 1543.34 Q1766.84 1544.47 1769.06 1545.03 Q1771.28 1545.58 1773.76 1545.58 Q1777.77 1545.58 1780.1 1543.48 Q1782.44 1541.37 1782.44 1537.76 Q1782.44 1534.15 1780.1 1532.04 Q1777.77 1529.94 1773.76 1529.94 Q1771.89 1529.94 1770.01 1530.35 Q1768.16 1530.77 1766.21 1531.65 L1766.21 1514.29 Z" fill="#000000" fill-rule="nonzero" fill-opacity="1" /><path clip-path="url(#clip100)" d="M1806.33 1517.37 Q1802.72 1517.37 1800.89 1520.93 Q1799.08 1524.47 1799.08 1531.6 Q1799.08 1538.71 1800.89 1542.27 Q1802.72 1545.82 1806.33 1545.82 Q1809.96 1545.82 1811.77 1542.27 Q1813.6 1538.71 1813.6 1531.6 Q1813.6 1524.47 1811.77 1520.93 Q1809.96 1517.37 1806.33 1517.37 M1806.33 1513.66 Q1812.14 1513.66 1815.2 1518.27 Q1818.27 1522.85 1818.27 1531.6 Q1818.27 1540.33 1815.2 1544.94 Q1812.14 1549.52 1806.33 1549.52 Q1800.52 1549.52 1797.44 1544.94 Q1794.39 1540.33 1794.39 1531.6 Q1794.39 1522.85 1797.44 1518.27 Q1800.52 1513.66 1806.33 1513.66 Z" fill="#000000" fill-rule="nonzero" fill-opacity="1" /><path clip-path="url(#clip100)" d="M1836.49 1517.37 Q1832.88 1517.37 1831.05 1520.93 Q1829.25 1524.47 1829.25 1531.6 Q1829.25 1538.71 1831.05 1542.27 Q1832.88 1545.82 1836.49 1545.82 Q1840.13 1545.82 1841.93 1542.27 Q1843.76 1538.71 1843.76 1531.6 Q1843.76 1524.47 1841.93 1520.93 Q1840.13 1517.37 1836.49 1517.37 M1836.49 1513.66 Q1842.3 1513.66 1845.36 1518.27 Q1848.44 1522.85 1848.44 1531.6 Q1848.44 1540.33 1845.36 1544.94 Q1842.3 1549.52 1836.49 1549.52 Q1830.68 1549.52 1827.6 1544.94 Q1824.55 1540.33 1824.55 1531.6 Q1824.55 1522.85 1827.6 1518.27 Q1830.68 1513.66 1836.49 1513.66 Z" fill="#000000" fill-rule="nonzero" fill-opacity="1" /><path clip-path="url(#clip100)" d="M2241.32 1544.91 L2257.64 1544.91 L2257.64 1548.85 L2235.69 1548.85 L2235.69 1544.91 Q2238.35 1542.16 2242.94 1537.53 Q2247.54 1532.88 2248.72 1531.53 Q2250.97 1529.01 2251.85 1527.27 Q2252.75 1525.51 2252.75 1523.82 Q2252.75 1521.07 2250.81 1519.33 Q2248.89 1517.6 2245.79 1517.6 Q2243.59 1517.6 2241.13 1518.36 Q2238.7 1519.13 2235.92 1520.68 L2235.92 1515.95 Q2238.75 1514.82 2241.2 1514.24 Q2243.66 1513.66 2245.69 1513.66 Q2251.06 1513.66 2254.26 1516.35 Q2257.45 1519.03 2257.45 1523.52 Q2257.45 1525.65 2256.64 1527.57 Q2255.85 1529.47 2253.75 1532.07 Q2253.17 1532.74 2250.07 1535.95 Q2246.97 1539.15 2241.32 1544.91 Z" fill="#000000" fill-rule="nonzero" fill-opacity="1" /><path clip-path="url(#clip100)" d="M2277.45 1517.37 Q2273.84 1517.37 2272.01 1520.93 Q2270.21 1524.47 2270.21 1531.6 Q2270.21 1538.71 2272.01 1542.27 Q2273.84 1545.82 2277.45 1545.82 Q2281.09 1545.82 2282.89 1542.27 Q2284.72 1538.71 2284.72 1531.6 Q2284.72 1524.47 2282.89 1520.93 Q2281.09 1517.37 2277.45 1517.37 M2277.45 1513.66 Q2283.26 1513.66 2286.32 1518.27 Q2289.4 1522.85 2289.4 1531.6 Q2289.4 1540.33 2286.32 1544.94 Q2283.26 1549.52 2277.45 1549.52 Q2271.64 1549.52 2268.56 1544.94 Q2265.51 1540.33 2265.51 1531.6 Q2265.51 1522.85 2268.56 1518.27 Q2271.64 1513.66 2277.45 1513.66 Z" fill="#000000" fill-rule="nonzero" fill-opacity="1" /><path clip-path="url(#clip100)" d="M2307.61 1517.37 Q2304 1517.37 2302.17 1520.93 Q2300.37 1524.47 2300.37 1531.6 Q2300.37 1538.71 2302.17 1542.27 Q2304 1545.82 2307.61 1545.82 Q2311.25 1545.82 2313.05 1542.27 Q2314.88 1538.71 2314.88 1531.6 Q2314.88 1524.47 2313.05 1520.93 Q2311.25 1517.37 2307.61 1517.37 M2307.61 1513.66 Q2313.42 1513.66 2316.48 1518.27 Q2319.56 1522.85 2319.56 1531.6 Q2319.56 1540.33 2316.48 1544.94 Q2313.42 1549.52 2307.61 1549.52 Q2301.8 1549.52 2298.72 1544.94 Q2295.67 1540.33 2295.67 1531.6 Q2295.67 1522.85 2298.72 1518.27 Q2301.8 1513.66 2307.61 1513.66 Z" fill="#000000" fill-rule="nonzero" fill-opacity="1" /><path clip-path="url(#clip100)" d="M2337.78 1517.37 Q2334.16 1517.37 2332.34 1520.93 Q2330.53 1524.47 2330.53 1531.6 Q2330.53 1538.71 2332.34 1542.27 Q2334.16 1545.82 2337.78 1545.82 Q2341.41 1545.82 2343.22 1542.27 Q2345.04 1538.71 2345.04 1531.6 Q2345.04 1524.47 2343.22 1520.93 Q2341.41 1517.37 2337.78 1517.37 M2337.78 1513.66 Q2343.59 1513.66 2346.64 1518.27 Q2349.72 1522.85 2349.72 1531.6 Q2349.72 1540.33 2346.64 1544.94 Q2343.59 1549.52 2337.78 1549.52 Q2331.97 1549.52 2328.89 1544.94 Q2325.83 1540.33 2325.83 1531.6 Q2325.83 1522.85 2328.89 1518.27 Q2331.97 1513.66 2337.78 1513.66 Z" fill="#000000" fill-rule="nonzero" fill-opacity="1" /><polyline clip-path="url(#clip102)" style="stroke:#000000; stroke-linecap:round; stroke-linejoin:round; stroke-width:2; stroke-opacity:0.1; fill:none" points="230.996,1440.21 2352.76,1440.21 "/>
<polyline clip-path="url(#clip102)" style="stroke:#000000; stroke-linecap:round; stroke-linejoin:round; stroke-width:2; stroke-opacity:0.1; fill:none" points="230.996,1097.33 2352.76,1097.33 "/>
<polyline clip-path="url(#clip102)" style="stroke:#000000; stroke-linecap:round; stroke-linejoin:round; stroke-width:2; stroke-opacity:0.1; fill:none" points="230.996,754.456 2352.76,754.456 "/>
<polyline clip-path="url(#clip102)" style="stroke:#000000; stroke-linecap:round; stroke-linejoin:round; stroke-width:2; stroke-opacity:0.1; fill:none" points="230.996,411.581 2352.76,411.581 "/>
<polyline clip-path="url(#clip102)" style="stroke:#000000; stroke-linecap:round; stroke-linejoin:round; stroke-width:2; stroke-opacity:0.1; fill:none" points="230.996,68.7059 2352.76,68.7059 "/>
<polyline clip-path="url(#clip100)" style="stroke:#000000; stroke-linecap:round; stroke-linejoin:round; stroke-width:4; stroke-opacity:1; fill:none" points="230.996,1486.45 230.996,47.2441 "/>
<polyline clip-path="url(#clip100)" style="stroke:#000000; stroke-linecap:round; stroke-linejoin:round; stroke-width:4; stroke-opacity:1; fill:none" points="230.996,1440.21 249.894,1440.21 "/>
<polyline clip-path="url(#clip100)" style="stroke:#000000; stroke-linecap:round; stroke-linejoin:round; stroke-width:4; stroke-opacity:1; fill:none" points="230.996,1097.33 249.894,1097.33 "/>
<polyline clip-path="url(#clip100)" style="stroke:#000000; stroke-linecap:round; stroke-linejoin:round; stroke-width:4; stroke-opacity:1; fill:none" points="230.996,754.456 249.894,754.456 "/>
<polyline clip-path="url(#clip100)" style="stroke:#000000; stroke-linecap:round; stroke-linejoin:round; stroke-width:4; stroke-opacity:1; fill:none" points="230.996,411.581 249.894,411.581 "/>
<polyline clip-path="url(#clip100)" style="stroke:#000000; stroke-linecap:round; stroke-linejoin:round; stroke-width:4; stroke-opacity:1; fill:none" points="230.996,68.7059 249.894,68.7059 "/>
<path clip-path="url(#clip100)" d="M52.4505 1422.93 L70.8068 1422.93 L70.8068 1426.86 L56.7328 1426.86 L56.7328 1435.33 Q57.7513 1434.99 58.7699 1434.82 Q59.7884 1434.64 60.8069 1434.64 Q66.5939 1434.64 69.9735 1437.81 Q73.3531 1440.98 73.3531 1446.4 Q73.3531 1451.98 69.8809 1455.08 Q66.4087 1458.16 60.0893 1458.16 Q57.9134 1458.16 55.6449 1457.79 Q53.3995 1457.42 50.9921 1456.68 L50.9921 1451.98 Q53.0754 1453.11 55.2977 1453.67 Q57.5199 1454.22 59.9967 1454.22 Q64.0013 1454.22 66.3393 1452.12 Q68.6772 1450.01 68.6772 1446.4 Q68.6772 1442.79 66.3393 1440.68 Q64.0013 1438.57 59.9967 1438.57 Q58.1217 1438.57 56.2467 1438.99 Q54.3949 1439.41 52.4505 1440.29 L52.4505 1422.93 Z" fill="#000000" fill-rule="nonzero" fill-opacity="1" /><path clip-path="url(#clip100)" d="M92.566 1426 Q88.9549 1426 87.1262 1429.57 Q85.3206 1433.11 85.3206 1440.24 Q85.3206 1447.35 87.1262 1450.91 Q88.9549 1454.45 92.566 1454.45 Q96.2002 1454.45 98.0058 1450.91 Q99.8345 1447.35 99.8345 1440.24 Q99.8345 1433.11 98.0058 1429.57 Q96.2002 1426 92.566 1426 M92.566 1422.3 Q98.3761 1422.3 101.432 1426.91 Q104.51 1431.49 104.51 1440.24 Q104.51 1448.97 101.432 1453.57 Q98.3761 1458.16 92.566 1458.16 Q86.7558 1458.16 83.6771 1453.57 Q80.6216 1448.97 80.6216 1440.24 Q80.6216 1431.49 83.6771 1426.91 Q86.7558 1422.3 92.566 1422.3 Z" fill="#000000" fill-rule="nonzero" fill-opacity="1" /><path clip-path="url(#clip100)" d="M122.728 1426 Q119.117 1426 117.288 1429.57 Q115.483 1433.11 115.483 1440.24 Q115.483 1447.35 117.288 1450.91 Q119.117 1454.45 122.728 1454.45 Q126.362 1454.45 128.168 1450.91 Q129.996 1447.35 129.996 1440.24 Q129.996 1433.11 128.168 1429.57 Q126.362 1426 122.728 1426 M122.728 1422.3 Q128.538 1422.3 131.594 1426.91 Q134.672 1431.49 134.672 1440.24 Q134.672 1448.97 131.594 1453.57 Q128.538 1458.16 122.728 1458.16 Q116.918 1458.16 113.839 1453.57 Q110.783 1448.97 110.783 1440.24 Q110.783 1431.49 113.839 1426.91 Q116.918 1422.3 122.728 1422.3 Z" fill="#000000" fill-rule="nonzero" fill-opacity="1" /><path clip-path="url(#clip100)" d="M152.89 1426 Q149.279 1426 147.45 1429.57 Q145.644 1433.11 145.644 1440.24 Q145.644 1447.35 147.45 1450.91 Q149.279 1454.45 152.89 1454.45 Q156.524 1454.45 158.33 1450.91 Q160.158 1447.35 160.158 1440.24 Q160.158 1433.11 158.33 1429.57 Q156.524 1426 152.89 1426 M152.89 1422.3 Q158.7 1422.3 161.755 1426.91 Q164.834 1431.49 164.834 1440.24 Q164.834 1448.97 161.755 1453.57 Q158.7 1458.16 152.89 1458.16 Q147.08 1458.16 144.001 1453.57 Q140.945 1448.97 140.945 1440.24 Q140.945 1431.49 144.001 1426.91 Q147.08 1422.3 152.89 1422.3 Z" fill="#000000" fill-rule="nonzero" fill-opacity="1" /><path clip-path="url(#clip100)" d="M183.052 1426 Q179.441 1426 177.612 1429.57 Q175.806 1433.11 175.806 1440.24 Q175.806 1447.35 177.612 1450.91 Q179.441 1454.45 183.052 1454.45 Q186.686 1454.45 188.491 1450.91 Q190.32 1447.35 190.32 1440.24 Q190.32 1433.11 188.491 1429.57 Q186.686 1426 183.052 1426 M183.052 1422.3 Q188.862 1422.3 191.917 1426.91 Q194.996 1431.49 194.996 1440.24 Q194.996 1448.97 191.917 1453.57 Q188.862 1458.16 183.052 1458.16 Q177.241 1458.16 174.163 1453.57 Q171.107 1448.97 171.107 1440.24 Q171.107 1431.49 174.163 1426.91 Q177.241 1422.3 183.052 1422.3 Z" fill="#000000" fill-rule="nonzero" fill-opacity="1" /><path clip-path="url(#clip100)" d="M52.4505 1080.05 L70.8068 1080.05 L70.8068 1083.99 L56.7328 1083.99 L56.7328 1092.46 Q57.7513 1092.11 58.7699 1091.95 Q59.7884 1091.76 60.8069 1091.76 Q66.5939 1091.76 69.9735 1094.94 Q73.3531 1098.11 73.3531 1103.52 Q73.3531 1109.1 69.8809 1112.2 Q66.4087 1115.28 60.0893 1115.28 Q57.9134 1115.28 55.6449 1114.91 Q53.3995 1114.54 50.9921 1113.8 L50.9921 1109.1 Q53.0754 1110.24 55.2977 1110.79 Q57.5199 1111.35 59.9967 1111.35 Q64.0013 1111.35 66.3393 1109.24 Q68.6772 1107.13 68.6772 1103.52 Q68.6772 1099.91 66.3393 1097.81 Q64.0013 1095.7 59.9967 1095.7 Q58.1217 1095.7 56.2467 1096.12 Q54.3949 1096.53 52.4505 1097.41 L52.4505 1080.05 Z" fill="#000000" fill-rule="nonzero" fill-opacity="1" /><path clip-path="url(#clip100)" d="M83.3762 1110.68 L91.0151 1110.68 L91.0151 1084.31 L82.7049 1085.98 L82.7049 1081.72 L90.9688 1080.05 L95.6447 1080.05 L95.6447 1110.68 L103.284 1110.68 L103.284 1114.61 L83.3762 1114.61 L83.3762 1110.68 Z" fill="#000000" fill-rule="nonzero" fill-opacity="1" /><path clip-path="url(#clip100)" d="M122.728 1083.13 Q119.117 1083.13 117.288 1086.69 Q115.483 1090.24 115.483 1097.37 Q115.483 1104.47 117.288 1108.04 Q119.117 1111.58 122.728 1111.58 Q126.362 1111.58 128.168 1108.04 Q129.996 1104.47 129.996 1097.37 Q129.996 1090.24 128.168 1086.69 Q126.362 1083.13 122.728 1083.13 M122.728 1079.43 Q128.538 1079.43 131.594 1084.03 Q134.672 1088.62 134.672 1097.37 Q134.672 1106.09 131.594 1110.7 Q128.538 1115.28 122.728 1115.28 Q116.918 1115.28 113.839 1110.7 Q110.783 1106.09 110.783 1097.37 Q110.783 1088.62 113.839 1084.03 Q116.918 1079.43 122.728 1079.43 Z" fill="#000000" fill-rule="nonzero" fill-opacity="1" /><path clip-path="url(#clip100)" d="M152.89 1083.13 Q149.279 1083.13 147.45 1086.69 Q145.644 1090.24 145.644 1097.37 Q145.644 1104.47 147.45 1108.04 Q149.279 1111.58 152.89 1111.58 Q156.524 1111.58 158.33 1108.04 Q160.158 1104.47 160.158 1097.37 Q160.158 1090.24 158.33 1086.69 Q156.524 1083.13 152.89 1083.13 M152.89 1079.43 Q158.7 1079.43 161.755 1084.03 Q164.834 1088.62 164.834 1097.37 Q164.834 1106.09 161.755 1110.7 Q158.7 1115.28 152.89 1115.28 Q147.08 1115.28 144.001 1110.7 Q140.945 1106.09 140.945 1097.37 Q140.945 1088.62 144.001 1084.03 Q147.08 1079.43 152.89 1079.43 Z" fill="#000000" fill-rule="nonzero" fill-opacity="1" /><path clip-path="url(#clip100)" d="M183.052 1083.13 Q179.441 1083.13 177.612 1086.69 Q175.806 1090.24 175.806 1097.37 Q175.806 1104.47 177.612 1108.04 Q179.441 1111.58 183.052 1111.58 Q186.686 1111.58 188.491 1108.04 Q190.32 1104.47 190.32 1097.37 Q190.32 1090.24 188.491 1086.69 Q186.686 1083.13 183.052 1083.13 M183.052 1079.43 Q188.862 1079.43 191.917 1084.03 Q194.996 1088.62 194.996 1097.37 Q194.996 1106.09 191.917 1110.7 Q188.862 1115.28 183.052 1115.28 Q177.241 1115.28 174.163 1110.7 Q171.107 1106.09 171.107 1097.37 Q171.107 1088.62 174.163 1084.03 Q177.241 1079.43 183.052 1079.43 Z" fill="#000000" fill-rule="nonzero" fill-opacity="1" /><path clip-path="url(#clip100)" d="M52.4505 737.176 L70.8068 737.176 L70.8068 741.111 L56.7328 741.111 L56.7328 749.583 Q57.7513 749.236 58.7699 749.074 Q59.7884 748.889 60.8069 748.889 Q66.5939 748.889 69.9735 752.06 Q73.3531 755.231 73.3531 760.648 Q73.3531 766.227 69.8809 769.329 Q66.4087 772.407 60.0893 772.407 Q57.9134 772.407 55.6449 772.037 Q53.3995 771.667 50.9921 770.926 L50.9921 766.227 Q53.0754 767.361 55.2977 767.917 Q57.5199 768.472 59.9967 768.472 Q64.0013 768.472 66.3393 766.366 Q68.6772 764.259 68.6772 760.648 Q68.6772 757.037 66.3393 754.931 Q64.0013 752.824 59.9967 752.824 Q58.1217 752.824 56.2467 753.241 Q54.3949 753.657 52.4505 754.537 L52.4505 737.176 Z" fill="#000000" fill-rule="nonzero" fill-opacity="1" /><path clip-path="url(#clip100)" d="M86.5938 767.801 L102.913 767.801 L102.913 771.736 L80.9688 771.736 L80.9688 767.801 Q83.6308 765.046 88.2141 760.417 Q92.8206 755.764 94.0012 754.421 Q96.2465 751.898 97.1261 750.162 Q98.0289 748.403 98.0289 746.713 Q98.0289 743.958 96.0845 742.222 Q94.1632 740.486 91.0614 740.486 Q88.8623 740.486 86.4086 741.25 Q83.9781 742.014 81.2003 743.565 L81.2003 738.843 Q84.0244 737.708 86.478 737.13 Q88.9317 736.551 90.9688 736.551 Q96.3391 736.551 99.5335 739.236 Q102.728 741.921 102.728 746.412 Q102.728 748.542 101.918 750.463 Q101.131 752.361 99.0243 754.954 Q98.4456 755.625 95.3437 758.843 Q92.2419 762.037 86.5938 767.801 Z" fill="#000000" fill-rule="nonzero" fill-opacity="1" /><path clip-path="url(#clip100)" d="M122.728 740.255 Q119.117 740.255 117.288 743.819 Q115.483 747.361 115.483 754.491 Q115.483 761.597 117.288 765.162 Q119.117 768.704 122.728 768.704 Q126.362 768.704 128.168 765.162 Q129.996 761.597 129.996 754.491 Q129.996 747.361 128.168 743.819 Q126.362 740.255 122.728 740.255 M122.728 736.551 Q128.538 736.551 131.594 741.157 Q134.672 745.741 134.672 754.491 Q134.672 763.218 131.594 767.824 Q128.538 772.407 122.728 772.407 Q116.918 772.407 113.839 767.824 Q110.783 763.218 110.783 754.491 Q110.783 745.741 113.839 741.157 Q116.918 736.551 122.728 736.551 Z" fill="#000000" fill-rule="nonzero" fill-opacity="1" /><path clip-path="url(#clip100)" d="M152.89 740.255 Q149.279 740.255 147.45 743.819 Q145.644 747.361 145.644 754.491 Q145.644 761.597 147.45 765.162 Q149.279 768.704 152.89 768.704 Q156.524 768.704 158.33 765.162 Q160.158 761.597 160.158 754.491 Q160.158 747.361 158.33 743.819 Q156.524 740.255 152.89 740.255 M152.89 736.551 Q158.7 736.551 161.755 741.157 Q164.834 745.741 164.834 754.491 Q164.834 763.218 161.755 767.824 Q158.7 772.407 152.89 772.407 Q147.08 772.407 144.001 767.824 Q140.945 763.218 140.945 754.491 Q140.945 745.741 144.001 741.157 Q147.08 736.551 152.89 736.551 Z" fill="#000000" fill-rule="nonzero" fill-opacity="1" /><path clip-path="url(#clip100)" d="M183.052 740.255 Q179.441 740.255 177.612 743.819 Q175.806 747.361 175.806 754.491 Q175.806 761.597 177.612 765.162 Q179.441 768.704 183.052 768.704 Q186.686 768.704 188.491 765.162 Q190.32 761.597 190.32 754.491 Q190.32 747.361 188.491 743.819 Q186.686 740.255 183.052 740.255 M183.052 736.551 Q188.862 736.551 191.917 741.157 Q194.996 745.741 194.996 754.491 Q194.996 763.218 191.917 767.824 Q188.862 772.407 183.052 772.407 Q177.241 772.407 174.163 767.824 Q171.107 763.218 171.107 754.491 Q171.107 745.741 174.163 741.157 Q177.241 736.551 183.052 736.551 Z" fill="#000000" fill-rule="nonzero" fill-opacity="1" /><path clip-path="url(#clip100)" d="M52.4505 394.301 L70.8068 394.301 L70.8068 398.236 L56.7328 398.236 L56.7328 406.708 Q57.7513 406.361 58.7699 406.199 Q59.7884 406.014 60.8069 406.014 Q66.5939 406.014 69.9735 409.185 Q73.3531 412.356 73.3531 417.773 Q73.3531 423.352 69.8809 426.454 Q66.4087 429.532 60.0893 429.532 Q57.9134 429.532 55.6449 429.162 Q53.3995 428.792 50.9921 428.051 L50.9921 423.352 Q53.0754 424.486 55.2977 425.042 Q57.5199 425.597 59.9967 425.597 Q64.0013 425.597 66.3393 423.491 Q68.6772 421.384 68.6772 417.773 Q68.6772 414.162 66.3393 412.055 Q64.0013 409.949 59.9967 409.949 Q58.1217 409.949 56.2467 410.366 Q54.3949 410.782 52.4505 411.662 L52.4505 394.301 Z" fill="#000000" fill-rule="nonzero" fill-opacity="1" /><path clip-path="url(#clip100)" d="M96.7326 410.227 Q100.089 410.944 101.964 413.213 Q103.862 415.481 103.862 418.815 Q103.862 423.93 100.344 426.731 Q96.8252 429.532 90.3438 429.532 Q88.1679 429.532 85.8531 429.092 Q83.5614 428.676 81.1077 427.819 L81.1077 423.305 Q83.0521 424.44 85.3669 425.018 Q87.6817 425.597 90.2049 425.597 Q94.603 425.597 96.8947 423.861 Q99.2095 422.125 99.2095 418.815 Q99.2095 415.759 97.0567 414.046 Q94.9271 412.31 91.1077 412.31 L87.0799 412.31 L87.0799 408.468 L91.2928 408.468 Q94.7419 408.468 96.5706 407.102 Q98.3993 405.713 98.3993 403.12 Q98.3993 400.458 96.5011 399.046 Q94.6262 397.611 91.1077 397.611 Q89.1864 397.611 86.9873 398.028 Q84.7882 398.444 82.1494 399.324 L82.1494 395.157 Q84.8114 394.417 87.1262 394.046 Q89.4641 393.676 91.5243 393.676 Q96.8484 393.676 99.9502 396.107 Q103.052 398.514 103.052 402.634 Q103.052 405.505 101.409 407.495 Q99.765 409.463 96.7326 410.227 Z" fill="#000000" fill-rule="nonzero" fill-opacity="1" /><path clip-path="url(#clip100)" d="M122.728 397.38 Q119.117 397.38 117.288 400.944 Q115.483 404.486 115.483 411.616 Q115.483 418.722 117.288 422.287 Q119.117 425.829 122.728 425.829 Q126.362 425.829 128.168 422.287 Q129.996 418.722 129.996 411.616 Q129.996 404.486 128.168 400.944 Q126.362 397.38 122.728 397.38 M122.728 393.676 Q128.538 393.676 131.594 398.282 Q134.672 402.866 134.672 411.616 Q134.672 420.342 131.594 424.949 Q128.538 429.532 122.728 429.532 Q116.918 429.532 113.839 424.949 Q110.783 420.342 110.783 411.616 Q110.783 402.866 113.839 398.282 Q116.918 393.676 122.728 393.676 Z" fill="#000000" fill-rule="nonzero" fill-opacity="1" /><path clip-path="url(#clip100)" d="M152.89 397.38 Q149.279 397.38 147.45 400.944 Q145.644 404.486 145.644 411.616 Q145.644 418.722 147.45 422.287 Q149.279 425.829 152.89 425.829 Q156.524 425.829 158.33 422.287 Q160.158 418.722 160.158 411.616 Q160.158 404.486 158.33 400.944 Q156.524 397.38 152.89 397.38 M152.89 393.676 Q158.7 393.676 161.755 398.282 Q164.834 402.866 164.834 411.616 Q164.834 420.342 161.755 424.949 Q158.7 429.532 152.89 429.532 Q147.08 429.532 144.001 424.949 Q140.945 420.342 140.945 411.616 Q140.945 402.866 144.001 398.282 Q147.08 393.676 152.89 393.676 Z" fill="#000000" fill-rule="nonzero" fill-opacity="1" /><path clip-path="url(#clip100)" d="M183.052 397.38 Q179.441 397.38 177.612 400.944 Q175.806 404.486 175.806 411.616 Q175.806 418.722 177.612 422.287 Q179.441 425.829 183.052 425.829 Q186.686 425.829 188.491 422.287 Q190.32 418.722 190.32 411.616 Q190.32 404.486 188.491 400.944 Q186.686 397.38 183.052 397.38 M183.052 393.676 Q188.862 393.676 191.917 398.282 Q194.996 402.866 194.996 411.616 Q194.996 420.342 191.917 424.949 Q188.862 429.532 183.052 429.532 Q177.241 429.532 174.163 424.949 Q171.107 420.342 171.107 411.616 Q171.107 402.866 174.163 398.282 Q177.241 393.676 183.052 393.676 Z" fill="#000000" fill-rule="nonzero" fill-opacity="1" /><path clip-path="url(#clip100)" d="M52.4505 51.4259 L70.8068 51.4259 L70.8068 55.3611 L56.7328 55.3611 L56.7328 63.8333 Q57.7513 63.486 58.7699 63.324 Q59.7884 63.1388 60.8069 63.1388 Q66.5939 63.1388 69.9735 66.3101 Q73.3531 69.4814 73.3531 74.898 Q73.3531 80.4767 69.8809 83.5785 Q66.4087 86.6572 60.0893 86.6572 Q57.9134 86.6572 55.6449 86.2868 Q53.3995 85.9165 50.9921 85.1757 L50.9921 80.4767 Q53.0754 81.6109 55.2977 82.1665 Q57.5199 82.7221 59.9967 82.7221 Q64.0013 82.7221 66.3393 80.6156 Q68.6772 78.5091 68.6772 74.898 Q68.6772 71.2869 66.3393 69.1805 Q64.0013 67.074 59.9967 67.074 Q58.1217 67.074 56.2467 67.4907 Q54.3949 67.9073 52.4505 68.7869 L52.4505 51.4259 Z" fill="#000000" fill-rule="nonzero" fill-opacity="1" /><path clip-path="url(#clip100)" d="M95.4132 55.5 L83.6077 73.949 L95.4132 73.949 L95.4132 55.5 M94.1863 51.4259 L100.066 51.4259 L100.066 73.949 L104.996 73.949 L104.996 77.8378 L100.066 77.8378 L100.066 85.9859 L95.4132 85.9859 L95.4132 77.8378 L79.8114 77.8378 L79.8114 73.324 L94.1863 51.4259 Z" fill="#000000" fill-rule="nonzero" fill-opacity="1" /><path clip-path="url(#clip100)" d="M122.728 54.5046 Q119.117 54.5046 117.288 58.0694 Q115.483 61.6111 115.483 68.7406 Q115.483 75.8471 117.288 79.4119 Q119.117 82.9535 122.728 82.9535 Q126.362 82.9535 128.168 79.4119 Q129.996 75.8471 129.996 68.7406 Q129.996 61.6111 128.168 58.0694 Q126.362 54.5046 122.728 54.5046 M122.728 50.8009 Q128.538 50.8009 131.594 55.4074 Q134.672 59.9907 134.672 68.7406 Q134.672 77.4675 131.594 82.0739 Q128.538 86.6572 122.728 86.6572 Q116.918 86.6572 113.839 82.0739 Q110.783 77.4675 110.783 68.7406 Q110.783 59.9907 113.839 55.4074 Q116.918 50.8009 122.728 50.8009 Z" fill="#000000" fill-rule="nonzero" fill-opacity="1" /><path clip-path="url(#clip100)" d="M152.89 54.5046 Q149.279 54.5046 147.45 58.0694 Q145.644 61.6111 145.644 68.7406 Q145.644 75.8471 147.45 79.4119 Q149.279 82.9535 152.89 82.9535 Q156.524 82.9535 158.33 79.4119 Q160.158 75.8471 160.158 68.7406 Q160.158 61.6111 158.33 58.0694 Q156.524 54.5046 152.89 54.5046 M152.89 50.8009 Q158.7 50.8009 161.755 55.4074 Q164.834 59.9907 164.834 68.7406 Q164.834 77.4675 161.755 82.0739 Q158.7 86.6572 152.89 86.6572 Q147.08 86.6572 144.001 82.0739 Q140.945 77.4675 140.945 68.7406 Q140.945 59.9907 144.001 55.4074 Q147.08 50.8009 152.89 50.8009 Z" fill="#000000" fill-rule="nonzero" fill-opacity="1" /><path clip-path="url(#clip100)" d="M183.052 54.5046 Q179.441 54.5046 177.612 58.0694 Q175.806 61.6111 175.806 68.7406 Q175.806 75.8471 177.612 79.4119 Q179.441 82.9535 183.052 82.9535 Q186.686 82.9535 188.491 79.4119 Q190.32 75.8471 190.32 68.7406 Q190.32 61.6111 188.491 58.0694 Q186.686 54.5046 183.052 54.5046 M183.052 50.8009 Q188.862 50.8009 191.917 55.4074 Q194.996 59.9907 194.996 68.7406 Q194.996 77.4675 191.917 82.0739 Q188.862 86.6572 183.052 86.6572 Q177.241 86.6572 174.163 82.0739 Q171.107 77.4675 171.107 68.7406 Q171.107 59.9907 174.163 55.4074 Q177.241 50.8009 183.052 50.8009 Z" fill="#000000" fill-rule="nonzero" fill-opacity="1" /><polyline clip-path="url(#clip102)" style="stroke:#009af9; stroke-linecap:round; stroke-linejoin:round; stroke-width:4; stroke-opacity:1; fill:none" points="291.046,486.168 292.047,486.18 293.047,486.191 294.048,486.201 295.049,486.211 296.05,956.252 297.051,956.281 298.052,956.308 299.052,956.332 300.053,956.355 301.054,1009.57 302.055,1009.59 303.056,1009.6 304.057,1009.62 305.057,1009.63 306.058,696.63 307.059,696.691 308.06,696.749 309.061,696.802 310.062,696.851 311.062,1155.84 312.063,1155.91 313.064,1155.98 314.065,1156.04 315.066,1156.1 316.067,893.707 317.067,893.756 318.068,893.802 319.069,893.845 320.07,893.884 321.071,782.692 322.072,782.744 323.072,782.791 324.073,782.836 325.074,782.877 326.075,1165.29 327.076,1165.37 328.077,1165.45 329.077,1165.52 330.078,1165.58 331.079,94.8066 332.08,94.8312 333.081,94.8539 334.081,94.8749 335.082,94.8943 336.083,361.617 337.084,361.66 338.085,361.7 339.086,361.737 340.086,361.771 341.087,789.931 342.088,789.969 343.089,790.004 344.09,790.037 345.091,790.068 346.091,585.618 347.092,585.634 348.093,585.648 349.094,585.661 350.095,585.674 351.096,706.496 352.096,706.59 353.097,706.677 354.098,706.758 355.099,706.832 356.1,404.066 357.101,404.111 358.101,404.153 359.102,404.191 360.103,404.227 361.104,818.613 362.105,818.639 363.106,818.664 364.106,818.687 365.107,818.708 366.108,851.968 367.109,852.128 368.11,852.277 369.111,852.415 370.111,852.542 371.112,783.939 372.113,784.007 373.114,784.069 374.115,784.127 375.116,784.181 376.116,693.052 377.117,693.129 378.118,693.2 379.119,693.266 380.12,693.327 381.121,737.452 382.121,737.518 383.122,737.579 384.123,737.635 385.124,737.687 386.125,1077.41 387.125,1077.46 388.126,1077.5 389.127,1077.54 390.128,1077.58 391.129,849.606 392.13,849.653 393.13,849.696 394.131,849.737 395.132,849.774 396.133,784.397 397.134,784.554 398.135,784.699 399.135,784.834 400.136,784.959 401.137,739.542 402.138,739.571 403.139,739.597 404.14,739.621 405.14,739.644 406.141,587.723 407.142,587.781 408.143,587.836 409.144,587.886 410.145,587.932 411.145,765.311 412.146,765.328 413.147,765.344 414.148,765.359 415.149,765.373 416.15,611.701 417.15,611.763 418.151,611.82 419.152,611.873 420.153,611.922 421.154,589.253 422.155,589.266 423.155,589.277 424.156,589.288 425.157,589.297 426.158,1064.46 427.159,1064.54 428.16,1064.62 429.16,1064.69 430.161,1064.75 431.162,578.21 432.163,578.261 433.164,578.307 434.165,578.351 435.165,578.391 436.166,1385.52 437.167,1385.56 438.168,1385.59 439.169,1385.62 440.169,1385.65 441.17,917.595 442.171,917.633 443.172,917.667 444.173,917.699 445.174,917.729 446.174,632.709 447.175,632.787 448.176,632.86 449.177,632.928 450.178,632.99 451.179,700.469 452.179,700.525 453.18,700.576 454.181,700.623 455.182,700.667 456.183,262.28 457.184,262.335 458.184,262.384 459.185,262.431 460.186,262.473 461.187,538.434 462.188,538.495 463.189,538.552 464.189,538.604 465.19,538.653 466.191,555.721 467.192,555.733 468.193,555.745 469.194,555.755 470.194,555.765 471.195,693.201 472.196,693.244 473.197,693.284 474.198,693.321 475.199,693.355 476.199,691.581 477.2,691.591 478.201,691.6 479.202,691.608 480.203,691.615 481.204,346.373 482.204,346.379 483.205,346.386 484.206,346.391 485.207,346.397 486.208,664.619 487.209,664.642 488.209,664.662 489.21,664.681 490.211,664.699 491.212,904.947 492.213,904.962 493.213,904.975 494.214,904.988 495.215,904.999 496.216,978.904 497.217,979.03 498.218,979.146 499.218,979.254 500.219,979.354 501.22,782.091 502.221,782.188 503.222,782.277 504.223,782.36 505.223,782.437 506.224,579.848 507.225,579.881 508.226,579.912 509.227,579.941 510.228,579.968 511.228,473.416 512.229,473.464 513.23,473.509 514.231,473.55 515.232,473.588 516.233,495.506 517.233,495.579 518.234,495.647 519.235,495.71 520.236,495.768 521.237,1002.23 522.238,1002.32 523.238,1002.4 524.239,1002.48 525.24,1002.55 526.241,714.224 527.242,714.279 528.243,714.329 529.243,714.376 530.244,714.42 531.245,746.322 532.246,746.362 533.247,746.398 534.248,746.432 535.248,746.464 536.249,364.154 537.25,364.193 538.251,364.229 539.252,364.262 540.253,364.293 541.253,842.302 542.254,842.341 543.255,842.376 544.256,842.41 545.257,842.44 546.257,486.48 547.258,486.541 548.259,486.597 549.26,486.649 550.261,486.697 551.262,720.379 552.262,720.422 553.263,720.461 554.264,720.497 555.265,720.531 556.266,1043.1 557.267,1043.18 558.267,1043.25 559.268,1043.31 560.269,1043.38 561.27,783.579 562.271,783.631 563.272,783.678 564.272,783.722 565.273,783.763 566.274,750.068 567.275,750.094 568.276,750.117 569.277,750.139 570.277,750.16 571.278,1061.32 572.279,1061.39 573.28,1061.46 574.281,1061.51 575.282,1061.57 576.282,675.601 577.283,675.616 578.284,675.629 579.285,675.641 580.286,675.653 581.287,689.166 582.287,689.195 583.288,689.221 584.289,689.246 585.29,689.269 586.291,739.761 587.292,739.789 588.292,739.815 589.293,739.839 590.294,739.861 591.295,1058.55 592.296,1058.6 593.296,1058.64 594.297,1058.68 595.298,1058.71 596.299,1051.86 597.3,1051.9 598.301,1051.95 599.301,1051.99 600.302,1052.03 601.303,908.049 602.304,908.143 603.305,908.229 604.306,908.31 605.306,908.384 606.307,952.203 607.308,952.259 608.309,952.311 609.31,952.359 610.311,952.404 611.311,848.009 612.312,848.038 613.313,848.065 614.314,848.089 615.315,848.112 616.316,941.508 617.316,941.676 618.317,941.831 619.318,941.975 620.319,942.108 621.32,938.069 622.321,938.179 623.321,938.282 624.322,938.376 625.323,938.464 626.324,697.649 627.325,697.749 628.326,697.841 629.326,697.927 630.327,698.006 631.328,1057.6 632.329,1057.65 633.33,1057.69 634.331,1057.73 635.331,1057.77 636.332,416.46 637.333,416.569 638.334,416.669 639.335,416.762 640.336,416.848 641.336,898.88 642.337,898.938 643.338,898.992 644.339,899.042 645.34,899.088 646.34,865.386 647.341,865.402 648.342,865.416 649.343,865.43 650.344,865.443 651.345,897.881 652.345,897.916 653.346,897.948 654.347,897.978 655.348,898.006 656.349,816.224 657.35,816.328 658.35,816.426 659.351,816.515 660.352,816.599 661.353,1019.73 662.354,1019.8 663.355,1019.86 664.355,1019.92 665.356,1019.98 666.357,954.776 667.358,954.798 668.359,954.818 669.36,954.836 670.36,954.853 671.361,996.53 672.362,996.55 673.363,996.568 674.364,996.585 675.365,996.6 676.365,857.012 677.366,857.091 678.367,857.163 679.368,857.231 680.369,857.293 681.37,718.862 682.37,718.894 683.371,718.924 684.372,718.952 685.373,718.978 686.374,734.606 687.375,734.739 688.375,734.862 689.376,734.976 690.377,735.081 691.378,740.979 692.379,741.006 693.38,741.031 694.38,741.055 695.381,741.076 696.382,846.591 697.383,846.718 698.384,846.835 699.384,846.944 700.385,847.046 701.386,525.037 702.387,525.114 703.388,525.185 704.389,525.251 705.389,525.312 706.39,826.597 707.391,826.647 708.392,826.693 709.393,826.735 710.394,826.775 711.394,759.337 712.395,759.403 713.396,759.463 714.397,759.519 715.398,759.571 716.399,730.934 717.399,730.982 718.4,731.026 719.401,731.067 720.402,731.105 721.403,131.847 722.404,131.969 723.404,132.081 724.405,132.184 725.406,132.279 726.407,1010.88 727.408,1010.98 728.409,1011.07 729.409,1011.15 730.41,1011.23 731.411,797.295 732.412,797.387 733.413,797.472 734.414,797.551 735.414,797.624 736.415,754.487 737.416,754.598 738.417,754.701 739.418,754.797 740.419,754.885 741.419,792.135 742.42,792.211 743.421,792.281 744.422,792.346 745.423,792.406 746.424,652.28 747.424,652.36 748.425,652.434 749.426,652.503 750.427,652.566 751.428,648.055 752.428,648.069 753.429,648.082 754.43,648.094 755.431,648.105 756.432,866.61 757.433,866.659 758.433,866.705 759.434,866.748 760.435,866.787 761.436,580.532 762.437,580.546 763.438,580.559 764.438,580.571 765.439,580.583 766.44,817.582 767.441,817.65 768.442,817.713 769.443,817.772 770.443,817.826 771.444,746.472 772.445,746.52 773.446,746.565 774.447,746.607 775.448,746.645 776.448,1078.3 777.449,1078.34 778.45,1078.38 779.451,1078.42 780.452,1078.45 781.453,1006.01 782.453,1006.08 783.454,1006.15 784.455,1006.21 785.456,1006.27 786.457,768.527 787.458,768.568 788.458,768.607 789.459,768.642 790.46,768.675 791.461,220.541 792.462,220.68 793.463,220.808 794.463,220.926 795.464,221.035 796.465,623.757 797.466,623.805 798.467,623.849 799.468,623.891 800.468,623.929 801.469,631.816 802.47,631.919 803.471,632.014 804.472,632.102 805.472,632.183 806.473,526.557 807.474,526.717 808.475,526.864 809.476,527.001 810.477,527.127 811.477,502.579 812.478,502.643 813.479,502.702 814.48,502.757 815.481,502.808 816.482,1121.05 817.482,1121.12 818.483,1121.17 819.484,1121.23 820.485,1121.28 821.486,582.016 822.487,582.148 823.487,582.27 824.488,582.382 825.489,582.486 826.49,931.956 827.491,932.02 828.492,932.08 829.492,932.135 830.493,932.187 831.494,1218.08 832.495,1218.12 833.496,1218.15 834.497,1218.19 835.497,1218.22 836.498,1071.23 837.499,1071.29 838.5,1071.36 839.501,1071.42 840.502,1071.47 841.502,897.781 842.503,897.837 843.504,897.89 844.505,897.938 845.506,897.983 846.507,717.319 847.507,717.425 848.508,717.523 849.509,717.614 850.51,717.698 851.511,243.973 852.512,244.069 853.512,244.158 854.513,244.24 855.514,244.316 856.515,507.072 857.516,507.122 858.516,507.168 859.517,507.211 860.518,507.251 861.519,911.014 862.52,911.09 863.521,911.16 864.521,911.225 865.522,911.286 866.523,662.981 867.524,663.174 868.525,663.353 869.526,663.518 870.526,663.672 871.527,714.569 872.528,714.597 873.529,714.624 874.53,714.649 875.531,714.672 876.531,986.524 877.532,986.601 878.533,986.672 879.534,986.737 880.535,986.798 881.536,583.69 882.536,583.711 883.537,583.732 884.538,583.75 885.539,583.767 886.54,586.559 887.541,586.583 888.541,586.606 889.542,586.627 890.543,586.647 891.544,1114.88 892.545,1114.9 893.546,1114.92 894.546,1114.94 895.547,1114.96 896.548,302.917 897.549,302.941 898.55,302.963 899.551,302.983 900.551,303.002 901.552,989.598 902.553,989.625 903.554,989.651 904.555,989.675 905.556,989.697 906.556,645.289 907.557,645.393 908.558,645.489 909.559,645.578 910.56,645.66 911.56,611.244 912.561,611.309 913.562,611.368 914.563,611.423 915.564,611.474 916.565,849.943 917.565,850.013 918.566,850.077 919.567,850.137 920.568,850.193 921.569,709.573 922.57,709.617 923.57,709.658 924.571,709.695 925.572,709.73 926.573,717.754 927.574,717.787 928.575,717.819 929.575,717.848 930.576,717.875 931.577,945.977 932.578,946.047 933.579,946.111 934.58,946.171 935.58,946.227 936.581,738.633 937.582,738.699 938.583,738.759 939.584,738.816 940.585,738.868 941.585,791.047 942.586,791.101 943.587,791.151 944.588,791.197 945.589,791.24 946.59,970.301 947.59,970.374 948.591,970.442 949.592,970.504 950.593,970.562 951.594,835.126 952.595,835.155 953.595,835.181 954.596,835.205 955.597,835.227 956.598,721.941 957.599,722.001 958.6,722.055 959.6,722.106 960.601,722.153 961.602,710.423 962.603,710.429 963.604,710.435 964.604,710.441 965.605,710.446 966.606,349.325 967.607,349.384 968.608,349.438 969.609,349.488 970.609,349.534 971.61,543.961 972.611,544.013 973.612,544.061 974.613,544.106 975.614,544.148 976.614,746.049 977.615,746.062 978.616,746.074 979.617,746.084 980.618,746.094 981.619,485.344 982.619,485.428 983.62,485.506 984.621,485.578 985.622,485.645 986.623,506.429 987.624,506.499 988.624,506.564 989.625,506.624 990.626,506.68 991.627,779.782 992.628,779.9 993.629,780.01 994.629,780.112 995.63,780.206 996.631,887.923 997.632,887.991 998.633,888.054 999.634,888.112 1000.63,888.167 1001.64,633.785 1002.64,633.905 1003.64,634.016 1004.64,634.119 1005.64,634.214 1006.64,674.455 1007.64,674.517 1008.64,674.574 1009.64,674.628 1010.64,674.677 1011.64,676.579 1012.64,676.629 1013.65,676.676 1014.65,676.719 1015.65,676.758 1016.65,932.73 1017.65,932.827 1018.65,932.917 1019.65,933 1020.65,933.078 1021.65,762.118 1022.65,762.183 1023.65,762.242 1024.65,762.298 1025.66,762.349 1026.66,657.299 1027.66,657.354 1028.66,657.406 1029.66,657.453 1030.66,657.497 1031.66,954.107 1032.66,954.152 1033.66,954.193 1034.66,954.231 1035.66,954.267 1036.66,1126.48 1037.67,1126.52 1038.67,1126.56 1039.67,1126.6 1040.67,1126.63 1041.67,725.065 1042.67,725.139 1043.67,725.207 1044.67,725.27 1045.67,725.329 1046.67,854.945 1047.67,854.962 1048.67,854.978 1049.68,854.993 1050.68,855.007 1051.68,699.167 1052.68,699.213 1053.68,699.255 1054.68,699.294 1055.68,699.33 1056.68,657.792 1057.68,657.818 1058.68,657.842 1059.68,657.864 1060.68,657.884 1061.69,884.425 1062.69,884.515 1063.69,884.599 1064.69,884.676 1065.69,884.747 1066.69,344.009 1067.69,344.098 1068.69,344.179 1069.69,344.255 1070.69,344.325 1071.69,808.615 1072.69,808.781 1073.69,808.934 1074.7,809.076 1075.7,809.208 1076.7,754.865 1077.7,754.932 1078.7,754.994 1079.7,755.052 1080.7,755.105 1081.7,413.289 1082.7,413.348 1083.7,413.403 1084.7,413.454 1085.7,413.501 1086.71,1144.07 1087.71,1144.09 1088.71,1144.1 1089.71,1144.11 1090.71,1144.12 1091.71,340.836 1092.71,340.894 1093.71,340.947 1094.71,340.996 1095.71,341.042 1096.71,721.259 1097.71,721.276 1098.72,721.291 1099.72,721.305 1100.72,721.318 1101.72,583.931 1102.72,584.087 1103.72,584.232 1104.72,584.366 1105.72,584.489 1106.72,800.41 1107.72,800.436 1108.72,800.46 1109.72,800.482 1110.73,800.502 1111.73,964.122 1112.73,964.159 1113.73,964.192 1114.73,964.223 1115.73,964.252 1116.73,713.467 1117.73,713.532 1118.73,713.591 1119.73,713.647 1120.73,713.698 1121.73,867.194 1122.74,867.285 1123.74,867.369 1124.74,867.446 1125.74,867.518 1126.74,701.652 1127.74,701.709 1128.74,701.761 1129.74,701.81 1130.74,701.856 1131.74,969.643 1132.74,969.647 1133.74,969.65 1134.75,969.654 1135.75,969.657 1136.75,1130.27 1137.75,1130.3 1138.75,1130.33 1139.75,1130.35 1140.75,1130.38 1141.75,854.39 1142.75,854.413 1143.75,854.435 1144.75,854.455 1145.75,854.473 1146.76,1192.32 1147.76,1192.44 1148.76,1192.57 1149.76,1192.68 1150.76,1192.78 1151.76,594.294 1152.76,594.33 1153.76,594.363 1154.76,594.394 1155.76,594.422 1156.76,809.219 1157.76,809.302 1158.77,809.379 1159.77,809.45 1160.77,809.515 1161.77,742.142 1162.77,742.173 1163.77,742.202 1164.77,742.229 1165.77,742.254 1166.77,817.172 1167.77,817.32 1168.77,817.458 1169.77,817.586 1170.78,817.705 1171.78,1176.67 1172.78,1176.7 1173.78,1176.73 1174.78,1176.76 1175.78,1176.79 1176.78,355.743 1177.78,355.791 1178.78,355.835 1179.78,355.876 1180.78,355.914 1181.78,905.152 1182.79,905.206 1183.79,905.257 1184.79,905.303 1185.79,905.347 1186.79,479.079 1187.79,479.09 1188.79,479.099 1189.79,479.108 1190.79,479.117 1191.79,704.269 1192.79,704.315 1193.79,704.358 1194.8,704.397 1195.8,704.434 1196.8,1009.66 1197.8,1009.73 1198.8,1009.81 1199.8,1009.88 1200.8,1009.94 1201.8,874.359 1202.8,874.4 1203.8,874.438 1204.8,874.473 1205.8,874.505 1206.81,1109.99 1207.81,1110.05 1208.81,1110.12 1209.81,1110.17 1210.81,1110.23 1211.81,624.599 1212.81,624.644 1213.81,624.687 1214.81,624.726 1215.81,624.762 1216.81,522.748 1217.81,522.966 1218.82,523.168 1219.82,523.356 1220.82,523.529 1221.82,484.907 1222.82,485.117 1223.82,485.311 1224.82,485.491 1225.82,485.657 1226.82,698.393 1227.82,698.424 1228.82,698.453 1229.82,698.48 1230.83,698.505 1231.83,1221.55 1232.83,1221.61 1233.83,1221.66 1234.83,1221.71 1235.83,1221.76 1236.83,703.587 1237.83,703.646 1238.83,703.701 1239.83,703.752 1240.83,703.799 1241.83,830.414 1242.84,830.459 1243.84,830.5 1244.84,830.538 1245.84,830.574 1246.84,677.842 1247.84,677.871 1248.84,677.898 1249.84,677.922 1250.84,677.945 1251.84,195.552 1252.84,195.585 1253.84,195.616 1254.85,195.644 1255.85,195.671 1256.85,902.991 1257.85,903.067 1258.85,903.137 1259.85,903.202 1260.85,903.262 1261.85,1063.15 1262.85,1063.16 1263.85,1063.17 1264.85,1063.18 1265.85,1063.19 1266.86,855.956 1267.86,856.033 1268.86,856.105 1269.86,856.171 1270.86,856.233 1271.86,787.807 1272.86,787.92 1273.86,788.024 1274.86,788.12 1275.86,788.21 1276.86,751.284 1277.86,751.307 1278.87,751.328 1279.87,751.348 1280.87,751.366 1281.87,512.72 1282.87,512.758 1283.87,512.794 1284.87,512.828 1285.87,512.858 1286.87,1006.81 1287.87,1006.86 1288.87,1006.9 1289.87,1006.94 1290.88,1006.98 1291.88,548.611 1292.88,548.678 1293.88,548.741 1294.88,548.798 1295.88,548.852 1296.88,852.043 1297.88,852.063 1298.88,852.081 1299.88,852.099 1300.88,852.115 1301.88,700.806 1302.89,700.871 1303.89,700.931 1304.89,700.986 1305.89,701.037 1306.89,531.721 1307.89,531.739 1308.89,531.756 1309.89,531.771 1310.89,531.785 1311.89,771.167 1312.89,771.231 1313.89,771.29 1314.9,771.344 1315.9,771.395 1316.9,394.814 1317.9,394.888 1318.9,394.957 1319.9,395.021 1320.9,395.08 1321.9,753.584 1322.9,753.739 1323.9,753.883 1324.9,754.017 1325.9,754.14 1326.91,919.998 1327.91,920.019 1328.91,920.039 1329.91,920.058 1330.91,920.075 1331.91,682.263 1332.91,682.419 1333.91,682.562 1334.91,682.696 1335.91,682.819 1336.91,408.088 1337.91,408.129 1338.91,408.166 1339.92,408.201 1340.92,408.233 1341.92,660.312 1342.92,660.471 1343.92,660.618 1344.92,660.754 1345.92,660.881 1346.92,898.974 1347.92,899.059 1348.92,899.137 1349.92,899.21 1350.92,899.278 1351.93,893.444 1352.93,893.48 1353.93,893.513 1354.93,893.544 1355.93,893.572 1356.93,827.495 1357.93,827.54 1358.93,827.581 1359.93,827.62 1360.93,827.656 1361.93,1102.09 1362.93,1102.16 1363.94,1102.22 1364.94,1102.28 1365.94,1102.33 1366.94,504.465 1367.94,504.561 1368.94,504.65 1369.94,504.732 1370.94,504.808 1371.94,887.053 1372.94,887.13 1373.94,887.201 1374.94,887.267 1375.95,887.328 1376.95,844.447 1377.95,844.478 1378.95,844.508 1379.95,844.535 1380.95,844.56 1381.95,732.118 1382.95,732.165 1383.95,732.209 1384.95,732.25 1385.95,732.288 1386.95,944.281 1387.96,944.328 1388.96,944.371 1389.96,944.412 1390.96,944.449 1391.96,936.035 1392.96,936.207 1393.96,936.367 1394.96,936.515 1395.96,936.652 1396.96,743.252 1397.96,743.345 1398.96,743.431 1399.97,743.511 1400.97,743.585 1401.97,668.039 1402.97,668.053 1403.97,668.066 1404.97,668.079 1405.97,668.09 1406.97,714.59 1407.97,714.628 1408.97,714.664 1409.97,714.697 1410.97,714.728 1411.98,1002.82 1412.98,1002.88 1413.98,1002.94 1414.98,1003 1415.98,1003.05 1416.98,821.512 1417.98,821.558 1418.98,821.6 1419.98,821.64 1420.98,821.676 1421.98,720.175 1422.98,720.258 1423.99,720.334 1424.99,720.405 1425.99,720.471 1426.99,829.587 1427.99,829.787 1428.99,829.971 1429.99,830.142 1430.99,830.301 1431.99,484.042 1432.99,484.092 1433.99,484.138 1434.99,484.181 1436,484.221 1437,834.144 1438,834.193 1439,834.238 1440,834.28 1441,834.319 1442,684.667 1443,684.762 1444,684.849 1445,684.93 1446,685.005 1447,673.201 1448.01,673.222 1449.01,673.241 1450.01,673.259 1451.01,673.276 1452.01,1117.92 1453.01,1118 1454.01,1118.07 1455.01,1118.14 1456.01,1118.2 1457.01,528.24 1458.01,528.255 1459.01,528.269 1460.02,528.282 1461.02,528.294 1462.02,762.351 1463.02,762.39 1464.02,762.427 1465.02,762.46 1466.02,762.492 1467.02,1033.07 1468.02,1033.13 1469.02,1033.19 1470.02,1033.24 1471.02,1033.28 1472.03,555.962 1473.03,556.012 1474.03,556.058 1475.03,556.1 1476.03,556.14 1477.03,838.522 1478.03,838.647 1479.03,838.763 1480.03,838.871 1481.03,838.971 1482.03,559.107 1483.03,559.228 1484.04,559.341 1485.04,559.445 1486.04,559.541 1487.04,921.245 1488.04,921.29 1489.04,921.331 1490.04,921.37 1491.04,921.406 1492.04,891.063 1493.04,891.103 1494.04,891.14 1495.04,891.175 1496.05,891.207 1497.05,750.919 1498.05,750.946 1499.05,750.972 1500.05,750.996 1501.05,751.018 1502.05,987.81 1503.05,987.93 1504.05,988.041 1505.05,988.145 1506.05,988.241 1507.05,1073.8 1508.06,1073.98 1509.06,1074.14 1510.06,1074.3 1511.06,1074.44 1512.06,677.546 1513.06,677.598 1514.06,677.645 1515.06,677.689 1516.06,677.73 1517.06,951.057 1518.06,951.075 1519.06,951.091 1520.07,951.106 1521.07,951.12 1522.07,796.809 1523.07,796.881 1524.07,796.948 1525.07,797.01 1526.07,797.067 1527.07,87.9763 1528.07,88.0668 1529.07,88.1503 1530.07,88.2274 1531.07,88.2985 1532.08,852.579 1533.08,852.628 1534.08,852.673 1535.08,852.716 1536.08,852.755 1537.08,929.03 1538.08,929.072 1539.08,929.11 1540.08,929.146 1541.08,929.179 1542.08,873.349 1543.08,873.372 1544.09,873.394 1545.09,873.414 1546.09,873.433 1547.09,784.697 1548.09,784.818 1549.09,784.929 1550.09,785.033 1551.09,785.129 1552.09,997.683 1553.09,997.712 1554.09,997.74 1555.09,997.765 1556.1,997.788 1557.1,685.829 1558.1,685.899 1559.1,685.964 1560.1,686.024 1561.1,686.08 1562.1,1084.53 1563.1,1084.55 1564.1,1084.57 1565.1,1084.59 1566.1,1084.61 1567.1,1032.78 1568.11,1032.93 1569.11,1033.07 1570.11,1033.2 1571.11,1033.32 1572.11,693.991 1573.11,694.02 1574.11,694.047 1575.11,694.072 1576.11,694.095 1577.11,880.487 1578.11,880.517 1579.11,880.544 1580.12,880.57 1581.12,880.594 1582.12,514.794 1583.12,514.86 1584.12,514.921 1585.12,514.977 1586.12,515.03 1587.12,830.104 1588.12,830.259 1589.12,830.403 1590.12,830.537 1591.12,830.661 1592.12,488.762 1593.13,488.813 1594.13,488.86 1595.13,488.904 1596.13,488.945 1597.13,1221.32 1598.13,1221.53 1599.13,1221.73 1600.13,1221.91 1601.13,1222.08 1602.13,906.016 1603.13,906.092 1604.13,906.163 1605.14,906.228 1606.14,906.289 1607.14,791.482 1608.14,791.59 1609.14,791.689 1610.14,791.781 1611.14,791.867 1612.14,1445.58 1613.14,1445.62 1614.14,1445.65 1615.14,1445.68 1616.14,1445.72 1617.15,235.74 1618.15,235.792 1619.15,235.839 1620.15,235.883 1621.15,235.924 1622.15,868.599 1623.15,868.644 1624.15,868.686 1625.15,868.725 1626.15,868.761 1627.15,1183.59 1628.15,1183.63 1629.16,1183.67 1630.16,1183.71 1631.16,1183.74 1632.16,695.765 1633.16,695.863 1634.16,695.954 1635.16,696.039 1636.16,696.117 1637.16,477.204 1638.16,477.237 1639.16,477.267 1640.16,477.295 1641.17,477.321 1642.17,843.957 1643.17,844.003 1644.17,844.045 1645.17,844.084 1646.17,844.12 1647.17,948.869 1648.17,948.949 1649.17,949.023 1650.17,949.091 1651.17,949.155 1652.17,1002.59 1653.18,1002.63 1654.18,1002.67 1655.18,1002.71 1656.18,1002.74 1657.18,557.581 1658.18,557.698 1659.18,557.807 1660.18,557.907 1661.18,558 1662.18,518.979 1663.18,519.039 1664.18,519.095 1665.19,519.147 1666.19,519.195 1667.19,653.215 1668.19,653.253 1669.19,653.289 1670.19,653.322 1671.19,653.353 1672.19,860.638 1673.19,860.645 1674.19,860.652 1675.19,860.659 1676.19,860.665 1677.2,1048.88 1678.2,1048.92 1679.2,1048.95 1680.2,1048.99 1681.2,1049.02 1682.2,472.192 1683.2,472.27 1684.2,472.342 1685.2,472.408 1686.2,472.47 1687.2,404.225 1688.2,404.437 1689.21,404.634 1690.21,404.815 1691.21,404.984 1692.21,913.098 1693.21,913.118 1694.21,913.137 1695.21,913.155 1696.21,913.172 1697.21,233.778 1698.21,233.784 1699.21,233.789 1700.21,233.795 1701.22,233.8 1702.22,948.412 1703.22,948.505 1704.22,948.592 1705.22,948.672 1706.22,948.747 1707.22,947.631 1708.22,947.67 1709.22,947.706 1710.22,947.739 1711.22,947.769 1712.22,919.721 1713.23,919.771 1714.23,919.818 1715.23,919.861 1716.23,919.9 1717.23,901.191 1718.23,901.214 1719.23,901.235 1720.23,901.255 1721.23,901.273 1722.23,993.734 1723.23,993.793 1724.23,993.847 1725.24,993.898 1726.24,993.945 1727.24,1028.42 1728.24,1028.44 1729.24,1028.46 1730.24,1028.48 1731.24,1028.5 1732.24,715.877 1733.24,715.933 1734.24,715.984 1735.24,716.032 1736.24,716.076 1737.25,571.776 1738.25,571.803 1739.25,571.828 1740.25,571.852 1741.25,571.873 1742.25,632.943 1743.25,633.015 1744.25,633.081 1745.25,633.142 1746.25,633.199 1747.25,923.046 1748.25,923.055 1749.26,923.062 1750.26,923.07 1751.26,923.076 1752.26,695.432 1753.26,695.498 1754.26,695.559 1755.26,695.615 1756.26,695.667 1757.26,513.29 1758.26,513.388 1759.26,513.477 1760.26,513.561 1761.27,513.637 1762.27,922.086 1763.27,922.164 1764.27,922.236 1765.27,922.303 1766.27,922.365 1767.27,870.62 1768.27,870.726 1769.27,870.824 1770.27,870.915 1771.27,871 1772.27,815.353 1773.28,815.43 1774.28,815.501 1775.28,815.566 1776.28,815.627 1777.28,766.441 1778.28,766.567 1779.28,766.685 1780.28,766.793 1781.28,766.894 1782.28,840.543 1783.28,840.586 1784.28,840.626 1785.29,840.663 1786.29,840.697 1787.29,824.622 1788.29,824.727 1789.29,824.825 1790.29,824.915 1791.29,824.999 1792.29,597.114 1793.29,597.134 1794.29,597.153 1795.29,597.171 1796.29,597.187 1797.3,711.674 1798.3,711.689 1799.3,711.703 1800.3,711.716 1801.3,711.728 1802.3,744.948 1803.3,744.96 1804.3,744.971 1805.3,744.982 1806.3,744.991 1807.3,984.933 1808.3,984.994 1809.31,985.05 1810.31,985.101 1811.31,985.149 1812.31,611.134 1813.31,611.169 1814.31,611.201 1815.31,611.231 1816.31,611.258 1817.31,967.204 1818.31,967.256 1819.31,967.304 1820.31,967.349 1821.32,967.391 1822.32,881.266 1823.32,881.292 1824.32,881.316 1825.32,881.339 1826.32,881.359 1827.32,803.601 1828.32,803.672 1829.32,803.738 1830.32,803.799 1831.32,803.855 1832.32,681.821 1833.33,681.986 1834.33,682.138 1835.33,682.279 1836.33,682.41 1837.33,855.952 1838.33,856.018 1839.33,856.078 1840.33,856.134 1841.33,856.186 1842.33,409.236 1843.33,409.407 1844.33,409.565 1845.34,409.711 1846.34,409.846 1847.34,847.732 1848.34,847.785 1849.34,847.834 1850.34,847.88 1851.34,847.922 1852.34,799.078 1853.34,799.212 1854.34,799.336 1855.34,799.451 1856.34,799.558 1857.34,969.507 1858.35,969.626 1859.35,969.737 1860.35,969.84 1861.35,969.935 1862.35,726.177 1863.35,726.266 1864.35,726.349 1865.35,726.425 1866.35,726.496 1867.35,1054.98 1868.35,1055.01 1869.35,1055.04 1870.36,1055.06 1871.36,1055.08 1872.36,387.55 1873.36,387.564 1874.36,387.577 1875.36,387.589 1876.36,387.6 1877.36,526.138 1878.36,526.236 1879.36,526.327 1880.36,526.411 1881.36,526.488 1882.37,828.037 1883.37,828.077 1884.37,828.113 1885.37,828.147 1886.37,828.179 1887.37,906.617 1888.37,906.645 1889.37,906.671 1890.37,906.694 1891.37,906.716 1892.37,710.528 1893.37,710.565 1894.38,710.6 1895.38,710.632 1896.38,710.661 1897.38,1020.68 1898.38,1020.86 1899.38,1021.02 1900.38,1021.17 1901.38,1021.31 1902.38,1059.7 1903.38,1059.77 1904.38,1059.84 1905.38,1059.91 1906.39,1059.97 1907.39,799.927 1908.39,800.027 1909.39,800.119 1910.39,800.204 1911.39,800.283 1912.39,913.428 1913.39,913.452 1914.39,913.474 1915.39,913.494 1916.39,913.512 1917.39,949.416 1918.4,949.545 1919.4,949.664 1920.4,949.774 1921.4,949.877 1922.4,346.396 1923.4,346.441 1924.4,346.483 1925.4,346.522 1926.4,346.557 1927.4,682.841 1928.4,682.914 1929.4,682.983 1930.41,683.046 1931.41,683.105 1932.41,533.589 1933.41,533.655 1934.41,533.717 1935.41,533.774 1936.41,533.826 1937.41,929.018 1938.41,929.297 1939.41,929.555 1940.41,929.794 1941.41,930.016 1942.42,554.015 1943.42,554.056 1944.42,554.094 1945.42,554.129 1946.42,554.161 1947.42,991.185 1948.42,991.228 1949.42,991.268 1950.42,991.306 1951.42,991.34 1952.42,836.772 1953.42,836.854 1954.43,836.93 1955.43,837 1956.43,837.065 1957.43,800.912 1958.43,800.926 1959.43,800.939 1960.43,800.951 1961.43,800.962 1962.43,861.007 1963.43,861.032 1964.43,861.056 1965.43,861.077 1966.44,861.097 1967.44,427.015 1968.44,427.054 1969.44,427.091 1970.44,427.125 1971.44,427.157 1972.44,861.473 1973.44,861.483 1974.44,861.492 1975.44,861.5 1976.44,861.508 1977.44,958.698 1978.45,958.73 1979.45,958.759 1980.45,958.786 1981.45,958.811 1982.45,527.204 1983.45,527.272 1984.45,527.334 1985.45,527.392 1986.45,527.446 1987.45,1024.57 1988.45,1024.62 1989.45,1024.67 1990.46,1024.71 1991.46,1024.75 1992.46,1146.63 1993.46,1146.69 1994.46,1146.74 1995.46,1146.8 1996.46,1146.84 1997.46,385.566 1998.46,385.62 1999.46,385.67 2000.46,385.716 2001.46,385.758 2002.47,799.722 2003.47,799.82 2004.47,799.911 2005.47,799.995 2006.47,800.072 2007.47,998.359 2008.47,998.433 2009.47,998.502 2010.47,998.565 2011.47,998.624 2012.47,697.404 2013.47,697.487 2014.48,697.564 2015.48,697.635 2016.48,697.701 2017.48,1277.89 2018.48,1277.94 2019.48,1277.99 2020.48,1278.03 2021.48,1278.07 2022.48,995.928 2023.48,996.041 2024.48,996.145 2025.48,996.241 2026.49,996.331 2027.49,732.996 2028.49,733.003 2029.49,733.009 2030.49,733.014 2031.49,733.019 2032.49,666.018 2033.49,666.058 2034.49,666.095 2035.49,666.13 2036.49,666.162 2037.49,982.713 2038.5,982.733 2039.5,982.751 2040.5,982.768 2041.5,982.783 2042.5,874.383 2043.5,874.445 2044.5,874.504 2045.5,874.557 2046.5,874.607 2047.5,1115.65 2048.5,1115.67 2049.5,1115.69 2050.51,1115.71 2051.51,1115.73 2052.51,850.875 2053.51,850.905 2054.51,850.934 2055.51,850.96 2056.51,850.984 2057.51,790.449 2058.51,790.499 2059.51,790.545 2060.51,790.588 2061.51,790.627 2062.52,898.769 2063.52,898.857 2064.52,898.938 2065.52,899.013 2066.52,899.082 2067.52,415.305 2068.52,415.367 2069.52,415.424 2070.52,415.476 2071.52,415.525 2072.52,405.189 2073.52,405.23 2074.53,405.269 2075.53,405.305 2076.53,405.338 2077.53,868.932 2078.53,868.954 2079.53,868.975 2080.53,868.994 2081.53,869.012 2082.53,938.557 2083.53,938.639 2084.53,938.714 2085.53,938.784 2086.54,938.848 2087.54,268.511 2088.54,268.542 2089.54,268.57 2090.54,268.596 2091.54,268.62 2092.54,981.156 2093.54,981.213 2094.54,981.267 2095.54,981.316 2096.54,981.362 2097.54,1084.26 2098.55,1084.29 2099.55,1084.32 2100.55,1084.35 2101.55,1084.38 2102.55,1147.78 2103.55,1147.84 2104.55,1147.89 2105.55,1147.94 2106.55,1147.99 2107.55,396.761 2108.55,396.781 2109.55,396.799 2110.56,396.816 2111.56,396.831 2112.56,744.663 2113.56,744.801 2114.56,744.93 2115.56,745.049 2116.56,745.159 2117.56,535.659 2118.56,535.69 2119.56,535.718 2120.56,535.744 2121.56,535.769 2122.56,679.443 2123.57,679.497 2124.57,679.546 2125.57,679.592 2126.57,679.635 2127.57,748.542 2128.57,748.632 2129.57,748.716 2130.57,748.793 2131.57,748.865 2132.57,799.679 2133.57,799.716 2134.57,799.75 2135.58,799.782 2136.58,799.811 2137.58,626.117 2138.58,626.181 2139.58,626.241 2140.58,626.296 2141.58,626.347 2142.58,1213.76 2143.58,1213.86 2144.58,1213.96 2145.58,1214.04 2146.58,1214.13 2147.59,710.097 2148.59,710.118 2149.59,710.137 2150.59,710.155 2151.59,710.172 2152.59,895.496 2153.59,895.594 2154.59,895.685 2155.59,895.769 2156.59,895.847 2157.59,755.092 2158.59,755.206 2159.6,755.312 2160.6,755.41 2161.6,755.5 2162.6,628.936 2163.6,629.097 2164.6,629.247 2165.6,629.385 2166.6,629.513 2167.6,1130.56 2168.6,1130.59 2169.6,1130.62 2170.6,1130.65 2171.61,1130.67 2172.61,563.679 2173.61,563.783 2174.61,563.879 2175.61,563.968 2176.61,564.05 2177.61,469.422 2178.61,469.432 2179.61,469.441 2180.61,469.449 2181.61,469.457 2182.61,815.287 2183.62,815.379 2184.62,815.464 2185.62,815.543 2186.62,815.616 2187.62,691.618 2188.62,691.661 2189.62,691.701 2190.62,691.738 2191.62,691.772 2192.62,519.638 2193.62,519.661 2194.62,519.682 2195.63,519.701 2196.63,519.719 2197.63,724.409 2198.63,724.453 2199.63,724.493 2200.63,724.53 2201.63,724.565 2202.63,645.104 2203.63,645.171 2204.63,645.234 2205.63,645.292 2206.63,645.346 2207.64,524.956 2208.64,524.981 2209.64,525.004 2210.64,525.026 2211.64,525.046 2212.64,1001.79 2213.64,1001.88 2214.64,1001.98 2215.64,1002.06 2216.64,1002.14 2217.64,677.857 2218.64,677.904 2219.65,677.947 2220.65,677.987 2221.65,678.024 2222.65,489.932 2223.65,489.971 2224.65,490.007 2225.65,490.04 2226.65,490.071 2227.65,1203.81 2228.65,1203.85 2229.65,1203.88 2230.65,1203.91 2231.66,1203.94 2232.66,909.258 2233.66,909.288 2234.66,909.316 2235.66,909.342 2236.66,909.366 2237.66,787.519 2238.66,787.545 2239.66,787.57 2240.66,787.592 2241.66,787.613 2242.66,306.8 2243.67,306.81 2244.67,306.819 2245.67,306.827 2246.67,306.835 2247.67,752.711 2248.67,752.749 2249.67,752.785 2250.67,752.818 2251.67,752.849 2252.67,1045.96 2253.67,1046.07 2254.67,1046.17 2255.68,1046.27 2256.68,1046.36 2257.68,683.981 2258.68,684.014 2259.68,684.045 2260.68,684.073 2261.68,684.099 2262.68,944.009 2263.68,944.083 2264.68,944.152 2265.68,944.216 2266.68,944.275 2267.69,1096.12 2268.69,1096.21 2269.69,1096.3 2270.69,1096.38 2271.69,1096.45 2272.69,672.092 2273.69,672.186 2274.69,672.274 2275.69,672.355 2276.69,672.43 2277.69,656.094 2278.69,656.138 2279.7,656.179 2280.7,656.216 2281.7,656.251 2282.7,544.846 2283.7,544.922 2284.7,544.992 2285.7,545.057 2286.7,545.117 2287.7,572.888 2288.7,572.969 2289.7,573.043 2290.7,573.112 2291.71,573.175 2292.71,573.234 "/>
<path clip-path="url(#clip100)" d="M301.721 1438.47 L566.328 1438.47 L566.328 1334.79 L301.721 1334.79  Z" fill="#ffffff" fill-rule="evenodd" fill-opacity="1"/>
<polyline clip-path="url(#clip100)" style="stroke:#000000; stroke-linecap:round; stroke-linejoin:round; stroke-width:4; stroke-opacity:1; fill:none" points="301.721,1438.47 566.328,1438.47 566.328,1334.79 301.721,1334.79 301.721,1438.47 "/>
<polyline clip-path="url(#clip100)" style="stroke:#009af9; stroke-linecap:round; stroke-linejoin:round; stroke-width:4; stroke-opacity:1; fill:none" points="325.296,1386.63 466.747,1386.63 "/>
<path clip-path="url(#clip100)" d="M504.165 1406.32 Q502.359 1410.95 500.646 1412.36 Q498.933 1413.78 496.063 1413.78 L492.66 1413.78 L492.66 1410.21 L495.16 1410.21 Q496.919 1410.21 497.892 1409.38 Q498.864 1408.54 500.044 1405.44 L500.808 1403.5 L490.322 1377.99 L494.836 1377.99 L502.938 1398.27 L511.04 1377.99 L515.554 1377.99 L504.165 1406.32 Z" fill="#000000" fill-rule="nonzero" fill-opacity="1" /><path clip-path="url(#clip100)" d="M522.845 1399.98 L530.484 1399.98 L530.484 1373.61 L522.174 1375.28 L522.174 1371.02 L530.438 1369.35 L535.114 1369.35 L535.114 1399.98 L542.752 1399.98 L542.752 1403.91 L522.845 1403.91 L522.845 1399.98 Z" fill="#000000" fill-rule="nonzero" fill-opacity="1" /></svg>
