<?xml version="1.0" encoding="utf-8"?>
<svg xmlns="http://www.w3.org/2000/svg" xmlns:xlink="http://www.w3.org/1999/xlink" width="600" height="400" viewBox="0 0 2400 1600">
<defs>
  <clipPath id="clip480">
    <rect x="0" y="0" width="2400" height="1600"/>
  </clipPath>
</defs>
<path clip-path="url(#clip480)" d="M0 1600 L2400 1600 L2400 0 L0 0  Z" fill="#ffffff" fill-rule="evenodd" fill-opacity="1"/>
<defs>
  <clipPath id="clip481">
    <rect x="480" y="0" width="1681" height="1600"/>
  </clipPath>
</defs>
<path clip-path="url(#clip480)" d="M172.015 1486.45 L2352.76 1486.45 L2352.76 47.2441 L172.015 47.2441  Z" fill="#ffffff" fill-rule="evenodd" fill-opacity="1"/>
<defs>
  <clipPath id="clip482">
    <rect x="172" y="47" width="2182" height="1440"/>
  </clipPath>
</defs>
<polyline clip-path="url(#clip482)" style="stroke:#000000; stroke-linecap:round; stroke-linejoin:round; stroke-width:2; stroke-opacity:0.1; fill:none" points="233.734,1486.45 233.734,47.2441 "/>
<polyline clip-path="url(#clip482)" style="stroke:#000000; stroke-linecap:round; stroke-linejoin:round; stroke-width:2; stroke-opacity:0.1; fill:none" points="748.06,1486.45 748.06,47.2441 "/>
<polyline clip-path="url(#clip482)" style="stroke:#000000; stroke-linecap:round; stroke-linejoin:round; stroke-width:2; stroke-opacity:0.1; fill:none" points="1262.39,1486.45 1262.39,47.2441 "/>
<polyline clip-path="url(#clip482)" style="stroke:#000000; stroke-linecap:round; stroke-linejoin:round; stroke-width:2; stroke-opacity:0.1; fill:none" points="1776.71,1486.45 1776.71,47.2441 "/>
<polyline clip-path="url(#clip482)" style="stroke:#000000; stroke-linecap:round; stroke-linejoin:round; stroke-width:2; stroke-opacity:0.1; fill:none" points="2291.04,1486.45 2291.04,47.2441 "/>
<polyline clip-path="url(#clip480)" style="stroke:#000000; stroke-linecap:round; stroke-linejoin:round; stroke-width:4; stroke-opacity:1; fill:none" points="172.015,1486.45 2352.76,1486.45 "/>
<polyline clip-path="url(#clip480)" style="stroke:#000000; stroke-linecap:round; stroke-linejoin:round; stroke-width:4; stroke-opacity:1; fill:none" points="233.734,1486.45 233.734,1467.55 "/>
<polyline clip-path="url(#clip480)" style="stroke:#000000; stroke-linecap:round; stroke-linejoin:round; stroke-width:4; stroke-opacity:1; fill:none" points="748.06,1486.45 748.06,1467.55 "/>
<polyline clip-path="url(#clip480)" style="stroke:#000000; stroke-linecap:round; stroke-linejoin:round; stroke-width:4; stroke-opacity:1; fill:none" points="1262.39,1486.45 1262.39,1467.55 "/>
<polyline clip-path="url(#clip480)" style="stroke:#000000; stroke-linecap:round; stroke-linejoin:round; stroke-width:4; stroke-opacity:1; fill:none" points="1776.71,1486.45 1776.71,1467.55 "/>
<polyline clip-path="url(#clip480)" style="stroke:#000000; stroke-linecap:round; stroke-linejoin:round; stroke-width:4; stroke-opacity:1; fill:none" points="2291.04,1486.45 2291.04,1467.55 "/>
<path clip-path="url(#clip480)" d="M233.734 1517.37 Q230.123 1517.37 228.294 1520.93 Q226.489 1524.47 226.489 1531.6 Q226.489 1538.71 228.294 1542.27 Q230.123 1545.82 233.734 1545.82 Q237.368 1545.82 239.174 1542.27 Q241.002 1538.71 241.002 1531.6 Q241.002 1524.47 239.174 1520.93 Q237.368 1517.37 233.734 1517.37 M233.734 1513.66 Q239.544 1513.66 242.6 1518.27 Q245.678 1522.85 245.678 1531.6 Q245.678 1540.33 242.6 1544.94 Q239.544 1549.52 233.734 1549.52 Q227.924 1549.52 224.845 1544.94 Q221.79 1540.33 221.79 1531.6 Q221.79 1522.85 224.845 1518.27 Q227.924 1513.66 233.734 1513.66 Z" fill="#000000" fill-rule="nonzero" fill-opacity="1" /><path clip-path="url(#clip480)" d="M707.678 1514.29 L726.034 1514.29 L726.034 1518.22 L711.96 1518.22 L711.96 1526.7 Q712.979 1526.35 713.997 1526.19 Q715.016 1526 716.034 1526 Q721.821 1526 725.201 1529.17 Q728.581 1532.34 728.581 1537.76 Q728.581 1543.34 725.108 1546.44 Q721.636 1549.52 715.317 1549.52 Q713.141 1549.52 710.872 1549.15 Q708.627 1548.78 706.22 1548.04 L706.22 1543.34 Q708.303 1544.47 710.525 1545.03 Q712.747 1545.58 715.224 1545.58 Q719.229 1545.58 721.567 1543.48 Q723.905 1541.37 723.905 1537.76 Q723.905 1534.15 721.567 1532.04 Q719.229 1529.94 715.224 1529.94 Q713.349 1529.94 711.474 1530.35 Q709.622 1530.77 707.678 1531.65 L707.678 1514.29 Z" fill="#000000" fill-rule="nonzero" fill-opacity="1" /><path clip-path="url(#clip480)" d="M747.793 1517.37 Q744.182 1517.37 742.354 1520.93 Q740.548 1524.47 740.548 1531.6 Q740.548 1538.71 742.354 1542.27 Q744.182 1545.82 747.793 1545.82 Q751.428 1545.82 753.233 1542.27 Q755.062 1538.71 755.062 1531.6 Q755.062 1524.47 753.233 1520.93 Q751.428 1517.37 747.793 1517.37 M747.793 1513.66 Q753.604 1513.66 756.659 1518.27 Q759.738 1522.85 759.738 1531.6 Q759.738 1540.33 756.659 1544.94 Q753.604 1549.52 747.793 1549.52 Q741.983 1549.52 738.905 1544.94 Q735.849 1540.33 735.849 1531.6 Q735.849 1522.85 738.905 1518.27 Q741.983 1513.66 747.793 1513.66 Z" fill="#000000" fill-rule="nonzero" fill-opacity="1" /><path clip-path="url(#clip480)" d="M777.955 1517.37 Q774.344 1517.37 772.516 1520.93 Q770.71 1524.47 770.71 1531.6 Q770.71 1538.71 772.516 1542.27 Q774.344 1545.82 777.955 1545.82 Q781.59 1545.82 783.395 1542.27 Q785.224 1538.71 785.224 1531.6 Q785.224 1524.47 783.395 1520.93 Q781.59 1517.37 777.955 1517.37 M777.955 1513.66 Q783.765 1513.66 786.821 1518.27 Q789.9 1522.85 789.9 1531.6 Q789.9 1540.33 786.821 1544.94 Q783.765 1549.52 777.955 1549.52 Q772.145 1549.52 769.066 1544.94 Q766.011 1540.33 766.011 1531.6 Q766.011 1522.85 769.066 1518.27 Q772.145 1513.66 777.955 1513.66 Z" fill="#000000" fill-rule="nonzero" fill-opacity="1" /><path clip-path="url(#clip480)" d="M1206.91 1544.91 L1214.55 1544.91 L1214.55 1518.55 L1206.24 1520.21 L1206.24 1515.95 L1214.5 1514.29 L1219.18 1514.29 L1219.18 1544.91 L1226.82 1544.91 L1226.82 1548.85 L1206.91 1548.85 L1206.91 1544.91 Z" fill="#000000" fill-rule="nonzero" fill-opacity="1" /><path clip-path="url(#clip480)" d="M1246.26 1517.37 Q1242.65 1517.37 1240.82 1520.93 Q1239.02 1524.47 1239.02 1531.6 Q1239.02 1538.71 1240.82 1542.27 Q1242.65 1545.82 1246.26 1545.82 Q1249.9 1545.82 1251.7 1542.27 Q1253.53 1538.71 1253.53 1531.6 Q1253.53 1524.47 1251.7 1520.93 Q1249.9 1517.37 1246.26 1517.37 M1246.26 1513.66 Q1252.07 1513.66 1255.13 1518.27 Q1258.21 1522.85 1258.21 1531.6 Q1258.21 1540.33 1255.13 1544.94 Q1252.07 1549.52 1246.26 1549.52 Q1240.45 1549.52 1237.37 1544.94 Q1234.32 1540.33 1234.32 1531.6 Q1234.32 1522.85 1237.37 1518.27 Q1240.45 1513.66 1246.26 1513.66 Z" fill="#000000" fill-rule="nonzero" fill-opacity="1" /><path clip-path="url(#clip480)" d="M1276.42 1517.37 Q1272.81 1517.37 1270.98 1520.93 Q1269.18 1524.47 1269.18 1531.6 Q1269.18 1538.71 1270.98 1542.27 Q1272.81 1545.82 1276.42 1545.82 Q1280.06 1545.82 1281.86 1542.27 Q1283.69 1538.71 1283.69 1531.6 Q1283.69 1524.47 1281.86 1520.93 Q1280.06 1517.37 1276.42 1517.37 M1276.42 1513.66 Q1282.23 1513.66 1285.29 1518.27 Q1288.37 1522.85 1288.37 1531.6 Q1288.37 1540.33 1285.29 1544.94 Q1282.23 1549.52 1276.42 1549.52 Q1270.61 1549.52 1267.54 1544.94 Q1264.48 1540.33 1264.48 1531.6 Q1264.48 1522.85 1267.54 1518.27 Q1270.61 1513.66 1276.42 1513.66 Z" fill="#000000" fill-rule="nonzero" fill-opacity="1" /><path clip-path="url(#clip480)" d="M1306.59 1517.37 Q1302.98 1517.37 1301.15 1520.93 Q1299.34 1524.47 1299.34 1531.6 Q1299.34 1538.71 1301.15 1542.27 Q1302.98 1545.82 1306.59 1545.82 Q1310.22 1545.82 1312.03 1542.27 Q1313.85 1538.71 1313.85 1531.6 Q1313.85 1524.47 1312.03 1520.93 Q1310.22 1517.37 1306.59 1517.37 M1306.59 1513.66 Q1312.4 1513.66 1315.45 1518.27 Q1318.53 1522.85 1318.53 1531.6 Q1318.53 1540.33 1315.45 1544.94 Q1312.4 1549.52 1306.59 1549.52 Q1300.78 1549.52 1297.7 1544.94 Q1294.64 1540.33 1294.64 1531.6 Q1294.64 1522.85 1297.7 1518.27 Q1300.78 1513.66 1306.59 1513.66 Z" fill="#000000" fill-rule="nonzero" fill-opacity="1" /><path clip-path="url(#clip480)" d="M1721.24 1544.91 L1728.88 1544.91 L1728.88 1518.55 L1720.57 1520.21 L1720.57 1515.95 L1728.83 1514.29 L1733.51 1514.29 L1733.51 1544.91 L1741.14 1544.91 L1741.14 1548.85 L1721.24 1548.85 L1721.24 1544.91 Z" fill="#000000" fill-rule="nonzero" fill-opacity="1" /><path clip-path="url(#clip480)" d="M1750.63 1514.29 L1768.99 1514.29 L1768.99 1518.22 L1754.92 1518.22 L1754.92 1526.7 Q1755.94 1526.35 1756.95 1526.19 Q1757.97 1526 1758.99 1526 Q1764.78 1526 1768.16 1529.17 Q1771.54 1532.34 1771.54 1537.76 Q1771.54 1543.34 1768.07 1546.44 Q1764.59 1549.52 1758.27 1549.52 Q1756.1 1549.52 1753.83 1549.15 Q1751.58 1548.78 1749.18 1548.04 L1749.18 1543.34 Q1751.26 1544.47 1753.48 1545.03 Q1755.7 1545.58 1758.18 1545.58 Q1762.19 1545.58 1764.52 1543.48 Q1766.86 1541.37 1766.86 1537.76 Q1766.86 1534.15 1764.52 1532.04 Q1762.19 1529.94 1758.18 1529.94 Q1756.31 1529.94 1754.43 1530.35 Q1752.58 1530.77 1750.63 1531.65 L1750.63 1514.29 Z" fill="#000000" fill-rule="nonzero" fill-opacity="1" /><path clip-path="url(#clip480)" d="M1790.75 1517.37 Q1787.14 1517.37 1785.31 1520.93 Q1783.51 1524.47 1783.51 1531.6 Q1783.51 1538.71 1785.31 1542.27 Q1787.14 1545.82 1790.75 1545.82 Q1794.38 1545.82 1796.19 1542.27 Q1798.02 1538.71 1798.02 1531.6 Q1798.02 1524.47 1796.19 1520.93 Q1794.38 1517.37 1790.75 1517.37 M1790.75 1513.66 Q1796.56 1513.66 1799.62 1518.27 Q1802.69 1522.85 1802.69 1531.6 Q1802.69 1540.33 1799.62 1544.94 Q1796.56 1549.52 1790.75 1549.52 Q1784.94 1549.52 1781.86 1544.94 Q1778.81 1540.33 1778.81 1531.6 Q1778.81 1522.85 1781.86 1518.27 Q1784.94 1513.66 1790.75 1513.66 Z" fill="#000000" fill-rule="nonzero" fill-opacity="1" /><path clip-path="url(#clip480)" d="M1820.91 1517.37 Q1817.3 1517.37 1815.47 1520.93 Q1813.67 1524.47 1813.67 1531.6 Q1813.67 1538.71 1815.47 1542.27 Q1817.3 1545.82 1820.91 1545.82 Q1824.55 1545.82 1826.35 1542.27 Q1828.18 1538.71 1828.18 1531.6 Q1828.18 1524.47 1826.35 1520.93 Q1824.55 1517.37 1820.91 1517.37 M1820.91 1513.66 Q1826.72 1513.66 1829.78 1518.27 Q1832.86 1522.85 1832.86 1531.6 Q1832.86 1540.33 1829.78 1544.94 Q1826.72 1549.52 1820.91 1549.52 Q1815.1 1549.52 1812.02 1544.94 Q1808.97 1540.33 1808.97 1531.6 Q1808.97 1522.85 1812.02 1518.27 Q1815.1 1513.66 1820.91 1513.66 Z" fill="#000000" fill-rule="nonzero" fill-opacity="1" /><path clip-path="url(#clip480)" d="M2239.65 1544.91 L2255.97 1544.91 L2255.97 1548.85 L2234.02 1548.85 L2234.02 1544.91 Q2236.69 1542.16 2241.27 1537.53 Q2245.88 1532.88 2247.06 1531.53 Q2249.3 1529.01 2250.18 1527.27 Q2251.08 1525.51 2251.08 1523.82 Q2251.08 1521.07 2249.14 1519.33 Q2247.22 1517.6 2244.12 1517.6 Q2241.92 1517.6 2239.46 1518.36 Q2237.03 1519.13 2234.25 1520.68 L2234.25 1515.95 Q2237.08 1514.82 2239.53 1514.24 Q2241.99 1513.66 2244.02 1513.66 Q2249.39 1513.66 2252.59 1516.35 Q2255.78 1519.03 2255.78 1523.52 Q2255.78 1525.65 2254.97 1527.57 Q2254.19 1529.47 2252.08 1532.07 Q2251.5 1532.74 2248.4 1535.95 Q2245.3 1539.15 2239.65 1544.91 Z" fill="#000000" fill-rule="nonzero" fill-opacity="1" /><path clip-path="url(#clip480)" d="M2275.78 1517.37 Q2272.17 1517.37 2270.34 1520.93 Q2268.54 1524.47 2268.54 1531.6 Q2268.54 1538.71 2270.34 1542.27 Q2272.17 1545.82 2275.78 1545.82 Q2279.42 1545.82 2281.22 1542.27 Q2283.05 1538.71 2283.05 1531.6 Q2283.05 1524.47 2281.22 1520.93 Q2279.42 1517.37 2275.78 1517.37 M2275.78 1513.66 Q2281.59 1513.66 2284.65 1518.27 Q2287.73 1522.85 2287.73 1531.6 Q2287.73 1540.33 2284.65 1544.94 Q2281.59 1549.52 2275.78 1549.52 Q2269.97 1549.52 2266.89 1544.94 Q2263.84 1540.33 2263.84 1531.6 Q2263.84 1522.85 2266.89 1518.27 Q2269.97 1513.66 2275.78 1513.66 Z" fill="#000000" fill-rule="nonzero" fill-opacity="1" /><path clip-path="url(#clip480)" d="M2305.94 1517.37 Q2302.33 1517.37 2300.5 1520.93 Q2298.7 1524.47 2298.7 1531.6 Q2298.7 1538.71 2300.5 1542.27 Q2302.33 1545.82 2305.94 1545.82 Q2309.58 1545.82 2311.38 1542.27 Q2313.21 1538.71 2313.21 1531.6 Q2313.21 1524.47 2311.38 1520.93 Q2309.58 1517.37 2305.94 1517.37 M2305.94 1513.66 Q2311.75 1513.66 2314.81 1518.27 Q2317.89 1522.85 2317.89 1531.6 Q2317.89 1540.33 2314.81 1544.94 Q2311.75 1549.52 2305.94 1549.52 Q2300.13 1549.52 2297.06 1544.94 Q2294 1540.33 2294 1531.6 Q2294 1522.85 2297.06 1518.27 Q2300.13 1513.66 2305.94 1513.66 Z" fill="#000000" fill-rule="nonzero" fill-opacity="1" /><path clip-path="url(#clip480)" d="M2336.11 1517.37 Q2332.49 1517.37 2330.67 1520.93 Q2328.86 1524.47 2328.86 1531.6 Q2328.86 1538.71 2330.67 1542.27 Q2332.49 1545.82 2336.11 1545.82 Q2339.74 1545.82 2341.55 1542.27 Q2343.37 1538.71 2343.37 1531.6 Q2343.37 1524.47 2341.55 1520.93 Q2339.74 1517.37 2336.11 1517.37 M2336.11 1513.66 Q2341.92 1513.66 2344.97 1518.27 Q2348.05 1522.85 2348.05 1531.6 Q2348.05 1540.33 2344.97 1544.94 Q2341.92 1549.52 2336.11 1549.52 Q2330.3 1549.52 2327.22 1544.94 Q2324.16 1540.33 2324.16 1531.6 Q2324.16 1522.85 2327.22 1518.27 Q2330.3 1513.66 2336.11 1513.66 Z" fill="#000000" fill-rule="nonzero" fill-opacity="1" /><polyline clip-path="url(#clip482)" style="stroke:#000000; stroke-linecap:round; stroke-linejoin:round; stroke-width:2; stroke-opacity:0.1; fill:none" points="172.015,1270.46 2352.76,1270.46 "/>
<polyline clip-path="url(#clip482)" style="stroke:#000000; stroke-linecap:round; stroke-linejoin:round; stroke-width:2; stroke-opacity:0.1; fill:none" points="172.015,1032.9 2352.76,1032.9 "/>
<polyline clip-path="url(#clip482)" style="stroke:#000000; stroke-linecap:round; stroke-linejoin:round; stroke-width:2; stroke-opacity:0.1; fill:none" points="172.015,795.349 2352.76,795.349 "/>
<polyline clip-path="url(#clip482)" style="stroke:#000000; stroke-linecap:round; stroke-linejoin:round; stroke-width:2; stroke-opacity:0.1; fill:none" points="172.015,557.795 2352.76,557.795 "/>
<polyline clip-path="url(#clip482)" style="stroke:#000000; stroke-linecap:round; stroke-linejoin:round; stroke-width:2; stroke-opacity:0.1; fill:none" points="172.015,320.241 2352.76,320.241 "/>
<polyline clip-path="url(#clip482)" style="stroke:#000000; stroke-linecap:round; stroke-linejoin:round; stroke-width:2; stroke-opacity:0.1; fill:none" points="172.015,82.6869 2352.76,82.6869 "/>
<polyline clip-path="url(#clip480)" style="stroke:#000000; stroke-linecap:round; stroke-linejoin:round; stroke-width:4; stroke-opacity:1; fill:none" points="172.015,1486.45 172.015,47.2441 "/>
<polyline clip-path="url(#clip480)" style="stroke:#000000; stroke-linecap:round; stroke-linejoin:round; stroke-width:4; stroke-opacity:1; fill:none" points="172.015,1270.46 190.912,1270.46 "/>
<polyline clip-path="url(#clip480)" style="stroke:#000000; stroke-linecap:round; stroke-linejoin:round; stroke-width:4; stroke-opacity:1; fill:none" points="172.015,1032.9 190.912,1032.9 "/>
<polyline clip-path="url(#clip480)" style="stroke:#000000; stroke-linecap:round; stroke-linejoin:round; stroke-width:4; stroke-opacity:1; fill:none" points="172.015,795.349 190.912,795.349 "/>
<polyline clip-path="url(#clip480)" style="stroke:#000000; stroke-linecap:round; stroke-linejoin:round; stroke-width:4; stroke-opacity:1; fill:none" points="172.015,557.795 190.912,557.795 "/>
<polyline clip-path="url(#clip480)" style="stroke:#000000; stroke-linecap:round; stroke-linejoin:round; stroke-width:4; stroke-opacity:1; fill:none" points="172.015,320.241 190.912,320.241 "/>
<polyline clip-path="url(#clip480)" style="stroke:#000000; stroke-linecap:round; stroke-linejoin:round; stroke-width:4; stroke-opacity:1; fill:none" points="172.015,82.6869 190.912,82.6869 "/>
<path clip-path="url(#clip480)" d="M57.7745 1283.8 L74.0939 1283.8 L74.0939 1287.74 L52.1495 1287.74 L52.1495 1283.8 Q54.8115 1281.05 59.3949 1276.42 Q64.0013 1271.77 65.1819 1270.42 Q67.4272 1267.9 68.3068 1266.16 Q69.2096 1264.4 69.2096 1262.71 Q69.2096 1259.96 67.2652 1258.22 Q65.3439 1256.49 62.2421 1256.49 Q60.043 1256.49 57.5893 1257.25 Q55.1588 1258.02 52.381 1259.57 L52.381 1254.84 Q55.2051 1253.71 57.6588 1253.13 Q60.1124 1252.55 62.1495 1252.55 Q67.5198 1252.55 70.7142 1255.24 Q73.9087 1257.92 73.9087 1262.41 Q73.9087 1264.54 73.0985 1266.46 Q72.3115 1268.36 70.205 1270.96 Q69.6263 1271.63 66.5245 1274.84 Q63.4226 1278.04 57.7745 1283.8 Z" fill="#000000" fill-rule="nonzero" fill-opacity="1" /><path clip-path="url(#clip480)" d="M83.9549 1253.18 L102.311 1253.18 L102.311 1257.11 L88.2373 1257.11 L88.2373 1265.58 Q89.2558 1265.24 90.2743 1265.08 Q91.2928 1264.89 92.3113 1264.89 Q98.0984 1264.89 101.478 1268.06 Q104.858 1271.23 104.858 1276.65 Q104.858 1282.23 101.385 1285.33 Q97.9132 1288.41 91.5938 1288.41 Q89.4178 1288.41 87.1493 1288.04 Q84.904 1287.67 82.4966 1286.93 L82.4966 1282.23 Q84.5799 1283.36 86.8021 1283.92 Q89.0243 1284.47 91.5012 1284.47 Q95.5058 1284.47 97.8437 1282.37 Q100.182 1280.26 100.182 1276.65 Q100.182 1273.04 97.8437 1270.93 Q95.5058 1268.83 91.5012 1268.83 Q89.6262 1268.83 87.7512 1269.24 Q85.8993 1269.66 83.9549 1270.54 L83.9549 1253.18 Z" fill="#000000" fill-rule="nonzero" fill-opacity="1" /><path clip-path="url(#clip480)" d="M124.07 1256.26 Q120.459 1256.26 118.631 1259.82 Q116.825 1263.36 116.825 1270.49 Q116.825 1277.6 118.631 1281.16 Q120.459 1284.71 124.07 1284.71 Q127.705 1284.71 129.51 1281.16 Q131.339 1277.6 131.339 1270.49 Q131.339 1263.36 129.51 1259.82 Q127.705 1256.26 124.07 1256.26 M124.07 1252.55 Q129.881 1252.55 132.936 1257.16 Q136.015 1261.74 136.015 1270.49 Q136.015 1279.22 132.936 1283.83 Q129.881 1288.41 124.07 1288.41 Q118.26 1288.41 115.182 1283.83 Q112.126 1279.22 112.126 1270.49 Q112.126 1261.74 115.182 1257.16 Q118.26 1252.55 124.07 1252.55 Z" fill="#000000" fill-rule="nonzero" fill-opacity="1" /><path clip-path="url(#clip480)" d="M67.9133 1031.55 Q71.2698 1032.27 73.1448 1034.54 Q75.0429 1036.8 75.0429 1040.14 Q75.0429 1045.25 71.5244 1048.05 Q68.0059 1050.85 61.5245 1050.85 Q59.3486 1050.85 57.0338 1050.41 Q54.7421 1050 52.2884 1049.14 L52.2884 1044.63 Q54.2328 1045.76 56.5477 1046.34 Q58.8625 1046.92 61.3856 1046.92 Q65.7837 1046.92 68.0754 1045.18 Q70.3902 1043.45 70.3902 1040.14 Q70.3902 1037.08 68.2374 1035.37 Q66.1078 1033.63 62.2884 1033.63 L58.2606 1033.63 L58.2606 1029.79 L62.4735 1029.79 Q65.9226 1029.79 67.7513 1028.42 Q69.58 1027.04 69.58 1024.44 Q69.58 1021.78 67.6819 1020.37 Q65.8069 1018.93 62.2884 1018.93 Q60.3671 1018.93 58.168 1019.35 Q55.969 1019.77 53.3301 1020.65 L53.3301 1016.48 Q55.9921 1015.74 58.3069 1015.37 Q60.6449 1015 62.705 1015 Q68.0291 1015 71.1309 1017.43 Q74.2327 1019.84 74.2327 1023.96 Q74.2327 1026.83 72.5892 1028.82 Q70.9457 1030.79 67.9133 1031.55 Z" fill="#000000" fill-rule="nonzero" fill-opacity="1" /><path clip-path="url(#clip480)" d="M93.9086 1018.7 Q90.2975 1018.7 88.4688 1022.27 Q86.6632 1025.81 86.6632 1032.94 Q86.6632 1040.04 88.4688 1043.61 Q90.2975 1047.15 93.9086 1047.15 Q97.5428 1047.15 99.3483 1043.61 Q101.177 1040.04 101.177 1032.94 Q101.177 1025.81 99.3483 1022.27 Q97.5428 1018.7 93.9086 1018.7 M93.9086 1015 Q99.7187 1015 102.774 1019.6 Q105.853 1024.19 105.853 1032.94 Q105.853 1041.66 102.774 1046.27 Q99.7187 1050.85 93.9086 1050.85 Q88.0984 1050.85 85.0197 1046.27 Q81.9642 1041.66 81.9642 1032.94 Q81.9642 1024.19 85.0197 1019.6 Q88.0984 1015 93.9086 1015 Z" fill="#000000" fill-rule="nonzero" fill-opacity="1" /><path clip-path="url(#clip480)" d="M124.07 1018.7 Q120.459 1018.7 118.631 1022.27 Q116.825 1025.81 116.825 1032.94 Q116.825 1040.04 118.631 1043.61 Q120.459 1047.15 124.07 1047.15 Q127.705 1047.15 129.51 1043.61 Q131.339 1040.04 131.339 1032.94 Q131.339 1025.81 129.51 1022.27 Q127.705 1018.7 124.07 1018.7 M124.07 1015 Q129.881 1015 132.936 1019.6 Q136.015 1024.19 136.015 1032.94 Q136.015 1041.66 132.936 1046.27 Q129.881 1050.85 124.07 1050.85 Q118.26 1050.85 115.182 1046.27 Q112.126 1041.66 112.126 1032.94 Q112.126 1024.19 115.182 1019.6 Q118.26 1015 124.07 1015 Z" fill="#000000" fill-rule="nonzero" fill-opacity="1" /><path clip-path="url(#clip480)" d="M67.9133 793.995 Q71.2698 794.713 73.1448 796.981 Q75.0429 799.25 75.0429 802.583 Q75.0429 807.699 71.5244 810.5 Q68.0059 813.301 61.5245 813.301 Q59.3486 813.301 57.0338 812.861 Q54.7421 812.444 52.2884 811.588 L52.2884 807.074 Q54.2328 808.208 56.5477 808.787 Q58.8625 809.365 61.3856 809.365 Q65.7837 809.365 68.0754 807.629 Q70.3902 805.893 70.3902 802.583 Q70.3902 799.527 68.2374 797.814 Q66.1078 796.078 62.2884 796.078 L58.2606 796.078 L58.2606 792.236 L62.4735 792.236 Q65.9226 792.236 67.7513 790.87 Q69.58 789.481 69.58 786.889 Q69.58 784.227 67.6819 782.815 Q65.8069 781.379 62.2884 781.379 Q60.3671 781.379 58.168 781.796 Q55.969 782.213 53.3301 783.092 L53.3301 778.926 Q55.9921 778.185 58.3069 777.815 Q60.6449 777.444 62.705 777.444 Q68.0291 777.444 71.1309 779.875 Q74.2327 782.282 74.2327 786.402 Q74.2327 789.273 72.5892 791.264 Q70.9457 793.231 67.9133 793.995 Z" fill="#000000" fill-rule="nonzero" fill-opacity="1" /><path clip-path="url(#clip480)" d="M83.9549 778.069 L102.311 778.069 L102.311 782.004 L88.2373 782.004 L88.2373 790.477 Q89.2558 790.129 90.2743 789.967 Q91.2928 789.782 92.3113 789.782 Q98.0984 789.782 101.478 792.953 Q104.858 796.125 104.858 801.541 Q104.858 807.12 101.385 810.222 Q97.9132 813.301 91.5938 813.301 Q89.4178 813.301 87.1493 812.93 Q84.904 812.56 82.4966 811.819 L82.4966 807.12 Q84.5799 808.254 86.8021 808.81 Q89.0243 809.365 91.5012 809.365 Q95.5058 809.365 97.8437 807.259 Q100.182 805.152 100.182 801.541 Q100.182 797.93 97.8437 795.824 Q95.5058 793.717 91.5012 793.717 Q89.6262 793.717 87.7512 794.134 Q85.8993 794.551 83.9549 795.43 L83.9549 778.069 Z" fill="#000000" fill-rule="nonzero" fill-opacity="1" /><path clip-path="url(#clip480)" d="M124.07 781.148 Q120.459 781.148 118.631 784.713 Q116.825 788.254 116.825 795.384 Q116.825 802.49 118.631 806.055 Q120.459 809.597 124.07 809.597 Q127.705 809.597 129.51 806.055 Q131.339 802.49 131.339 795.384 Q131.339 788.254 129.51 784.713 Q127.705 781.148 124.07 781.148 M124.07 777.444 Q129.881 777.444 132.936 782.051 Q136.015 786.634 136.015 795.384 Q136.015 804.111 132.936 808.717 Q129.881 813.301 124.07 813.301 Q118.26 813.301 115.182 808.717 Q112.126 804.111 112.126 795.384 Q112.126 786.634 115.182 782.051 Q118.26 777.444 124.07 777.444 Z" fill="#000000" fill-rule="nonzero" fill-opacity="1" /><path clip-path="url(#clip480)" d="M66.5939 544.589 L54.7884 563.038 L66.5939 563.038 L66.5939 544.589 M65.367 540.515 L71.2466 540.515 L71.2466 563.038 L76.1772 563.038 L76.1772 566.927 L71.2466 566.927 L71.2466 575.075 L66.5939 575.075 L66.5939 566.927 L50.9921 566.927 L50.9921 562.413 L65.367 540.515 Z" fill="#000000" fill-rule="nonzero" fill-opacity="1" /><path clip-path="url(#clip480)" d="M93.9086 543.594 Q90.2975 543.594 88.4688 547.159 Q86.6632 550.7 86.6632 557.83 Q86.6632 564.936 88.4688 568.501 Q90.2975 572.043 93.9086 572.043 Q97.5428 572.043 99.3483 568.501 Q101.177 564.936 101.177 557.83 Q101.177 550.7 99.3483 547.159 Q97.5428 543.594 93.9086 543.594 M93.9086 539.89 Q99.7187 539.89 102.774 544.497 Q105.853 549.08 105.853 557.83 Q105.853 566.557 102.774 571.163 Q99.7187 575.746 93.9086 575.746 Q88.0984 575.746 85.0197 571.163 Q81.9642 566.557 81.9642 557.83 Q81.9642 549.08 85.0197 544.497 Q88.0984 539.89 93.9086 539.89 Z" fill="#000000" fill-rule="nonzero" fill-opacity="1" /><path clip-path="url(#clip480)" d="M124.07 543.594 Q120.459 543.594 118.631 547.159 Q116.825 550.7 116.825 557.83 Q116.825 564.936 118.631 568.501 Q120.459 572.043 124.07 572.043 Q127.705 572.043 129.51 568.501 Q131.339 564.936 131.339 557.83 Q131.339 550.7 129.51 547.159 Q127.705 543.594 124.07 543.594 M124.07 539.89 Q129.881 539.89 132.936 544.497 Q136.015 549.08 136.015 557.83 Q136.015 566.557 132.936 571.163 Q129.881 575.746 124.07 575.746 Q118.26 575.746 115.182 571.163 Q112.126 566.557 112.126 557.83 Q112.126 549.08 115.182 544.497 Q118.26 539.89 124.07 539.89 Z" fill="#000000" fill-rule="nonzero" fill-opacity="1" /><path clip-path="url(#clip480)" d="M66.5939 307.035 L54.7884 325.484 L66.5939 325.484 L66.5939 307.035 M65.367 302.961 L71.2466 302.961 L71.2466 325.484 L76.1772 325.484 L76.1772 329.373 L71.2466 329.373 L71.2466 337.521 L66.5939 337.521 L66.5939 329.373 L50.9921 329.373 L50.9921 324.859 L65.367 302.961 Z" fill="#000000" fill-rule="nonzero" fill-opacity="1" /><path clip-path="url(#clip480)" d="M83.9549 302.961 L102.311 302.961 L102.311 306.896 L88.2373 306.896 L88.2373 315.368 Q89.2558 315.021 90.2743 314.859 Q91.2928 314.674 92.3113 314.674 Q98.0984 314.674 101.478 317.845 Q104.858 321.016 104.858 326.433 Q104.858 332.012 101.385 335.114 Q97.9132 338.192 91.5938 338.192 Q89.4178 338.192 87.1493 337.822 Q84.904 337.452 82.4966 336.711 L82.4966 332.012 Q84.5799 333.146 86.8021 333.702 Q89.0243 334.257 91.5012 334.257 Q95.5058 334.257 97.8437 332.151 Q100.182 330.044 100.182 326.433 Q100.182 322.822 97.8437 320.716 Q95.5058 318.609 91.5012 318.609 Q89.6262 318.609 87.7512 319.026 Q85.8993 319.442 83.9549 320.322 L83.9549 302.961 Z" fill="#000000" fill-rule="nonzero" fill-opacity="1" /><path clip-path="url(#clip480)" d="M124.07 306.04 Q120.459 306.04 118.631 309.604 Q116.825 313.146 116.825 320.276 Q116.825 327.382 118.631 330.947 Q120.459 334.489 124.07 334.489 Q127.705 334.489 129.51 330.947 Q131.339 327.382 131.339 320.276 Q131.339 313.146 129.51 309.604 Q127.705 306.04 124.07 306.04 M124.07 302.336 Q129.881 302.336 132.936 306.942 Q136.015 311.526 136.015 320.276 Q136.015 329.003 132.936 333.609 Q129.881 338.192 124.07 338.192 Q118.26 338.192 115.182 333.609 Q112.126 329.003 112.126 320.276 Q112.126 311.526 115.182 306.942 Q118.26 302.336 124.07 302.336 Z" fill="#000000" fill-rule="nonzero" fill-opacity="1" /><path clip-path="url(#clip480)" d="M53.793 65.4069 L72.1494 65.4069 L72.1494 69.3421 L58.0754 69.3421 L58.0754 77.8143 Q59.0939 77.467 60.1124 77.305 Q61.131 77.1198 62.1495 77.1198 Q67.9365 77.1198 71.3161 80.2911 Q74.6957 83.4624 74.6957 88.879 Q74.6957 94.4577 71.2235 97.5595 Q67.7513 100.638 61.4319 100.638 Q59.256 100.638 56.9875 100.268 Q54.7421 99.8975 52.3347 99.1567 L52.3347 94.4577 Q54.418 95.5919 56.6402 96.1475 Q58.8625 96.703 61.3393 96.703 Q65.3439 96.703 67.6819 94.5966 Q70.0198 92.4901 70.0198 88.879 Q70.0198 85.2679 67.6819 83.1614 Q65.3439 81.055 61.3393 81.055 Q59.4643 81.055 57.5893 81.4716 Q55.7375 81.8883 53.793 82.7679 L53.793 65.4069 Z" fill="#000000" fill-rule="nonzero" fill-opacity="1" /><path clip-path="url(#clip480)" d="M93.9086 68.4856 Q90.2975 68.4856 88.4688 72.0504 Q86.6632 75.592 86.6632 82.7216 Q86.6632 89.8281 88.4688 93.3929 Q90.2975 96.9345 93.9086 96.9345 Q97.5428 96.9345 99.3483 93.3929 Q101.177 89.8281 101.177 82.7216 Q101.177 75.592 99.3483 72.0504 Q97.5428 68.4856 93.9086 68.4856 M93.9086 64.7819 Q99.7187 64.7819 102.774 69.3884 Q105.853 73.9717 105.853 82.7216 Q105.853 91.4484 102.774 96.0549 Q99.7187 100.638 93.9086 100.638 Q88.0984 100.638 85.0197 96.0549 Q81.9642 91.4484 81.9642 82.7216 Q81.9642 73.9717 85.0197 69.3884 Q88.0984 64.7819 93.9086 64.7819 Z" fill="#000000" fill-rule="nonzero" fill-opacity="1" /><path clip-path="url(#clip480)" d="M124.07 68.4856 Q120.459 68.4856 118.631 72.0504 Q116.825 75.592 116.825 82.7216 Q116.825 89.8281 118.631 93.3929 Q120.459 96.9345 124.07 96.9345 Q127.705 96.9345 129.51 93.3929 Q131.339 89.8281 131.339 82.7216 Q131.339 75.592 129.51 72.0504 Q127.705 68.4856 124.07 68.4856 M124.07 64.7819 Q129.881 64.7819 132.936 69.3884 Q136.015 73.9717 136.015 82.7216 Q136.015 91.4484 132.936 96.0549 Q129.881 100.638 124.07 100.638 Q118.26 100.638 115.182 96.0549 Q112.126 91.4484 112.126 82.7216 Q112.126 73.9717 115.182 69.3884 Q118.26 64.7819 124.07 64.7819 Z" fill="#000000" fill-rule="nonzero" fill-opacity="1" /><polyline clip-path="url(#clip482)" style="stroke:#009af9; stroke-linecap:round; stroke-linejoin:round; stroke-width:4; stroke-opacity:1; fill:none" points="233.734,831.388 234.763,660.15 235.791,752.352 236.82,712.991 237.849,936.774 238.877,883.588 239.906,805.094 240.934,647.271 241.963,706.691 242.992,857.355 244.02,818.223 245.049,719.302 246.078,812.441 247.106,1126.6 248.135,864.373 249.164,948.701 250.192,514.53 251.221,910.669 252.25,711.971 253.278,1114.32 254.307,844.62 255.336,699.615 256.364,838.032 257.393,699.965 258.422,917.145 259.45,672.941 260.479,903.999 261.507,916.79 262.536,666.989 263.565,687.269 264.593,660.814 265.622,963.11 266.651,831.802 267.679,962.677 268.708,889.395 269.737,838.411 270.765,857.051 271.794,764.411 272.823,1167.14 273.851,982.677 274.88,930.522 275.909,851.413 276.937,778.979 277.966,773.112 278.995,1028.84 280.023,998.275 281.052,759.79 282.081,620.673 283.109,740.664 284.138,1030.8 285.166,1011.53 286.195,824.96 287.224,1042.74 288.252,566.708 289.281,923.317 290.31,609.655 291.338,1055.95 292.367,1062.69 293.396,803.421 294.424,909.518 295.453,832.389 296.482,764.812 297.51,743.413 298.539,923.798 299.568,658.782 300.596,825.343 301.625,838.531 302.654,917.614 303.682,1130.31 304.711,911.568 305.74,461.972 306.768,387.704 307.797,569.615 308.825,771.388 309.854,307.996 310.883,691.667 311.911,869.626 312.94,955.801 313.969,681.369 314.997,824.636 316.026,771.35 317.055,580.966 318.083,936.704 319.112,469.343 320.141,700.72 321.169,712.748 322.198,659.626 323.227,910.876 324.255,734.357 325.284,966.447 326.313,824.205 327.341,732.672 328.37,1002.31 329.398,669.437 330.427,832.311 331.456,547.432 332.484,796.997 333.513,731.524 334.542,640.447 335.57,778.546 336.599,687.903 337.628,535.385 338.656,830.478 339.685,922.02 340.714,1002.83 341.742,772.237 342.771,721.031 343.8,909.67 344.828,701.284 345.857,837.032 346.886,744.043 347.914,338.27 348.943,652.531 349.972,804.616 351,920.882 352.029,752.721 353.057,818.665 354.086,1027.27 355.115,1014.42 356.143,534.528 357.172,837.834 358.201,903.469 359.229,916.064 360.258,870.59 361.287,746.405 362.315,634.478 363.344,719.211 364.373,541.859 365.401,909.906 366.43,876.344 367.459,738.975 368.487,1198.41 369.516,738.883 370.545,725.341 371.573,654.479 372.602,956.218 373.631,1002.27 374.659,1093.8 375.688,916.369 376.716,878.198 377.745,921.869 378.774,837.637 379.802,831.659 380.831,897.158 381.86,606.743 382.888,733.188 383.917,804.478 384.946,791.758 385.974,719.654 387.003,646.925 388.032,574.714 389.06,648.326 390.089,536.223 391.118,771.852 392.146,909.731 393.175,988.443 394.204,745.99 395.232,731.655 396.261,877.06 397.289,562.426 398.318,949.77 399.347,700.562 400.375,621.065 401.404,806.887 402.433,1027.05 403.461,778.302 404.49,955.998 405.519,714.052 406.547,1009.71 407.576,780.324 408.605,766.399 409.633,748.123 410.662,846.901 411.691,891.873 412.719,514.594 413.748,857.688 414.777,819.68 415.805,697.29 416.834,1020.45 417.863,759.96 418.891,797.719 419.92,664.842 420.948,693.939 421.977,759.58 423.006,839.287 424.034,695.133 425.063,1226.88 426.092,1042.83 427.12,891.436 428.149,661.495 429.178,706.571 430.206,1207.5 431.235,880.36 432.264,883.871 433.292,778.055 434.321,1127.49 435.35,620.847 436.378,622.801 437.407,1123.74 438.436,1002.97 439.464,918.038 440.493,733.182 441.522,916.491 442.55,863.793 443.579,936.666 444.607,1035.94 445.636,820.597 446.665,818.357 447.693,913.16 448.722,904.537 449.751,799.539 450.779,793.236 451.808,764.814 452.837,861.303 453.865,926.666 454.894,716.952 455.923,929.658 456.951,728.686 457.98,913.988 459.009,619.371 460.037,707.422 461.066,753.725 462.095,818.116 463.123,790.169 464.152,759.435 465.18,663.052 466.209,625.912 467.238,860.081 468.266,460.021 469.295,594.233 470.324,665.703 471.352,333.522 472.381,970.362 473.41,910.003 474.438,727.381 475.467,685.115 476.496,727.323 477.524,692.435 478.553,1116.2 479.582,767.341 480.61,1002.42 481.639,756.69 482.668,956.129 483.696,614.674 484.725,992.381 485.754,458.904 486.782,346.495 487.811,656.641 488.839,754.471 489.868,700.497 490.897,932.983 491.925,1178.3 492.954,701.242 493.983,817.616 495.011,667.965 496.04,967.581 497.069,517.778 498.097,918.127 499.126,886.913 500.155,703.958 501.183,1030 502.212,968.434 503.241,922.3 504.269,981.396 505.298,877.107 506.327,881.367 507.355,881.772 508.384,877.897 509.412,571.173 510.441,928.737 511.47,821.582 512.498,915.535 513.527,1115.89 514.556,1005.03 515.584,873.073 516.613,525.306 517.642,775.012 518.67,870.724 519.699,823.508 520.728,689.281 521.756,482.977 522.785,845.451 523.814,1007.11 524.842,785.214 525.871,897.325 526.9,842.594 527.928,626.348 528.957,962.593 529.986,752.004 531.014,836.132 532.043,719.453 533.071,1069.31 534.1,797.976 535.129,780.913 536.157,954.454 537.186,1009.95 538.215,996.045 539.243,712.239 540.272,903.146 541.301,799.305 542.329,720.822 543.358,851.362 544.387,597.26 545.415,1150.45 546.444,578.285 547.473,628.342 548.501,722.222 549.53,731.698 550.559,767.367 551.587,923.533 552.616,1051.28 553.645,947.943 554.673,1055.89 555.702,563.129 556.73,926.898 557.759,780.319 558.788,917.523 559.816,875.944 560.845,788.781 561.874,915.661 562.902,900.005 563.931,740.446 564.96,517.52 565.988,1194.17 567.017,545.367 568.046,675.928 569.074,707.464 570.103,1032.53 571.132,756.388 572.16,1179.75 573.189,655.767 574.218,723.203 575.246,558.869 576.275,926.943 577.303,703.821 578.332,767.743 579.361,983.693 580.389,709.554 581.418,856.813 582.447,668.253 583.475,822.824 584.504,763.219 585.533,889.772 586.561,827.231 587.59,938.445 588.619,956.556 589.647,964.947 590.676,754.948 591.705,827.544 592.733,809.707 593.762,743.378 594.791,1108.43 595.819,829.498 596.848,566.381 597.877,799.977 598.905,688.273 599.934,703.509 600.962,404.823 601.991,886.69 603.02,708.769 604.048,924.231 605.077,686.187 606.106,948.825 607.134,577.007 608.163,798.96 609.192,1152.02 610.22,1034.98 611.249,722.177 612.278,843.86 613.306,701.779 614.335,587.019 615.364,1076.77 616.392,743.939 617.421,742.553 618.45,847.891 619.478,644.607 620.507,727.581 621.536,980.798 622.564,794.533 623.593,578.395 624.621,839.149 625.65,720.969 626.679,907.342 627.707,547.105 628.736,636.927 629.765,243.608 630.793,585.059 631.822,568.034 632.851,903.093 633.879,1099.61 634.908,798.057 635.937,750.843 636.965,689.801 637.994,835.742 639.023,789.181 640.051,721.006 641.08,898.76 642.109,588.001 643.137,360.801 644.166,865.379 645.194,1043.83 646.223,669.975 647.252,655.527 648.28,1121.99 649.309,636.481 650.338,552.338 651.366,549.322 652.395,799.749 653.424,518.805 654.452,786.73 655.481,792.572 656.51,925.271 657.538,815.609 658.567,949.371 659.596,774.702 660.624,810.541 661.653,688.928 662.682,778.926 663.71,970.515 664.739,993.007 665.768,789.601 666.796,954.966 667.825,922.933 668.853,627.113 669.882,933.06 670.911,576.13 671.939,814.448 672.968,749.783 673.997,178.005 675.025,727.867 676.054,989.447 677.083,999.01 678.111,861.071 679.14,814.848 680.169,688.943 681.197,509.627 682.226,870.529 683.255,990.447 684.283,751.317 685.312,936.562 686.341,845.806 687.369,674.778 688.398,947.836 689.427,896.691 690.455,723.987 691.484,592.737 692.512,772.298 693.541,577.837 694.57,698.649 695.598,777.032 696.627,1135.88 697.656,623.623 698.684,551.169 699.713,836.994 700.742,1065.77 701.77,956.399 702.799,997.787 703.828,762.91 704.856,723.393 705.885,787.374 706.914,1036.59 707.942,1024.2 708.971,519.259 710,905.008 711.028,563.747 712.057,808.585 713.085,1048.27 714.114,902.566 715.143,1095.45 716.171,885.527 717.2,706.471 718.229,785.316 719.257,719.942 720.286,822.306 721.315,730.31 722.343,783.216 723.372,596.138 724.401,767.295 725.429,698.947 726.458,711.525 727.487,871.259 728.515,312.686 729.544,1034 730.573,701.236 731.601,990.118 732.63,675.576 733.659,978.781 734.687,590.36 735.716,467.025 736.744,1039.86 737.773,964.451 738.802,842.403 739.83,657.772 740.859,927.688 741.888,880.299 742.916,874.192 743.945,641.37 744.974,480.403 746.002,885.227 747.031,780.458 748.06,601.799 749.088,852.266 750.117,696.671 751.146,658.053 752.174,656.007 753.203,1038.77 754.232,1048.01 755.26,452.33 756.289,680.465 757.317,492.973 758.346,956.949 759.375,853.488 760.403,554.589 761.432,939.547 762.461,660.709 763.489,859.405 764.518,592.416 765.547,754.66 766.575,1032.31 767.604,666.287 768.633,848.771 769.661,647.294 770.69,529.37 771.719,1008.39 772.747,733.235 773.776,789.816 774.805,783.282 775.833,788.678 776.862,981.481 777.891,817.45 778.919,913.759 779.948,994.504 780.976,681.137 782.005,809.458 783.034,888.62 784.062,859.3 785.091,1064.4 786.12,913.965 787.148,646.593 788.177,758.759 789.206,866.685 790.234,962.333 791.263,975.342 792.292,1138.21 793.32,572.613 794.349,845.49 795.378,669.006 796.406,1152.74 797.435,914.83 798.464,604.381 799.492,694.193 800.521,932.975 801.55,581.635 802.578,684.874 803.607,986.356 804.635,933.858 805.664,1079.21 806.693,664.903 807.721,871.484 808.75,820.77 809.779,693.193 810.807,991.644 811.836,940.722 812.865,711.743 813.893,779.344 814.922,795.553 815.951,708.453 816.979,852.637 818.008,1182.63 819.037,936.837 820.065,996.041 821.094,993.188 822.123,733.251 823.151,885.268 824.18,979.437 825.208,767.205 826.237,847.397 827.266,715.246 828.294,964.74 829.323,615.973 830.352,699.713 831.38,1236.3 832.409,907.369 833.438,1160.52 834.466,782.284 835.495,942.739 836.524,962.917 837.552,932.529 838.581,786.003 839.61,1152.9 840.638,1270.23 841.667,761.589 842.696,947.468 843.724,728.287 844.753,844.653 845.782,960.834 846.81,960.407 847.839,568.561 848.867,1038.73 849.896,724.941 850.925,1023.59 851.953,684.797 852.982,712.441 854.011,997.223 855.039,889.804 856.068,897.655 857.097,502.748 858.125,764.395 859.154,975.78 860.183,892.002 861.211,853.716 862.24,813.882 863.269,607.828 864.297,842.437 865.326,698.037 866.355,1062.1 867.383,1049.08 868.412,1064.75 869.441,1170.6 870.469,907.212 871.498,633.29 872.526,770.547 873.555,693.699 874.584,795.241 875.612,579.861 876.641,757.521 877.67,967.444 878.698,596.916 879.727,688.282 880.756,973.28 881.784,893.221 882.813,810.186 883.842,788.972 884.87,756.198 885.899,694.352 886.928,878.574 887.956,804.633 888.985,914.239 890.014,931.396 891.042,632.701 892.071,716.974 893.099,1120.27 894.128,578.494 895.157,427.117 896.185,1020.49 897.214,587.512 898.243,1100.49 899.271,712.615 900.3,775.828 901.329,910.516 902.357,1024.79 903.386,821.412 904.415,898.921 905.443,746.676 906.472,818.391 907.501,959.057 908.529,659.915 909.558,455.546 910.587,625.235 911.615,615.139 912.644,948.58 913.673,1099.84 914.701,678.164 915.73,676.063 916.758,808.326 917.787,591.522 918.816,693.459 919.844,704.016 920.873,617.204 921.902,1226.25 922.93,709.493 923.959,1045.43 924.988,913.167 926.016,798.823 927.045,1009.77 928.074,752.517 929.102,896.546 930.131,754.294 931.16,1024.08 932.188,823.77 933.217,786.871 934.246,881.635 935.274,790.099 936.303,736.998 937.332,624.754 938.36,907.307 939.389,864.726 940.417,721.208 941.446,468.667 942.475,794.863 943.503,576.848 944.532,729.796 945.561,994.674 946.589,777.815 947.618,950.267 948.647,790.165 949.675,788.905 950.704,1026.42 951.733,1114.5 952.761,843.323 953.79,795.394 954.819,838.943 955.847,881.201 956.876,1039.12 957.905,623.001 958.933,806.478 959.962,928.739 960.99,812.638 962.019,869.894 963.048,818.523 964.076,682.257 965.105,1014.02 966.134,746.5 967.162,954.152 968.191,756.18 969.22,716.904 970.248,851.003 971.277,844.671 972.306,707.389 973.334,810.489 974.363,523.434 975.392,717.364 976.42,1124.55 977.449,1098.81 978.478,919.364 979.506,964.125 980.535,948.106 981.564,773.718 982.592,987.251 983.621,818.315 984.649,703.948 985.678,1053.87 986.707,962.213 987.735,634.355 988.764,780.695 989.793,1166.55 990.821,670.429 991.85,617.468 992.879,786.789 993.907,790.564 994.936,905.891 995.965,645.083 996.993,429.297 998.022,694.629 999.051,566.911 1000.08,1062.44 1001.11,683.386 1002.14,803.058 1003.17,396.165 1004.19,631.878 1005.22,660.851 1006.25,919.713 1007.28,604.012 1008.31,823.079 1009.34,865.565 1010.37,844.813 1011.39,758.586 1012.42,885.883 1013.45,761.752 1014.48,868.887 1015.51,852.01 1016.54,1129.84 1017.57,803.335 1018.59,1189.8 1019.62,884.688 1020.65,742.959 1021.68,585.501 1022.71,686.807 1023.74,924.092 1024.77,764.002 1025.8,933.761 1026.82,1058.95 1027.85,951.035 1028.88,697.065 1029.91,574.456 1030.94,870.638 1031.97,1027.12 1033,746.624 1034.02,1091.17 1035.05,886.93 1036.08,1064.27 1037.11,1101.38 1038.14,791.232 1039.17,790.074 1040.2,858.928 1041.23,925.314 1042.25,963.537 1043.28,954.31 1044.31,781.148 1045.34,726.618 1046.37,834.256 1047.4,921.737 1048.43,923.685 1049.45,536.191 1050.48,828.376 1051.51,786.042 1052.54,1064.12 1053.57,1046.37 1054.6,655.385 1055.63,632.575 1056.66,738.448 1057.68,895.14 1058.71,1063.21 1059.74,1173.82 1060.77,727.705 1061.8,500.025 1062.83,848.695 1063.86,1047.78 1064.88,942.445 1065.91,737.405 1066.94,702.108 1067.97,880.847 1069,593.177 1070.03,1032.5 1071.06,624.769 1072.08,979.72 1073.11,943.819 1074.14,800.808 1075.17,1074.23 1076.2,912.787 1077.23,1170.26 1078.26,1372.32 1079.29,916.708 1080.31,792.62 1081.34,928.713 1082.37,804.632 1083.4,728.605 1084.43,783.409 1085.46,1274.19 1086.49,1011.72 1087.51,680.376 1088.54,570.894 1089.57,859.759 1090.6,899.775 1091.63,793.957 1092.66,885.247 1093.69,859.402 1094.72,940.624 1095.74,1081.02 1096.77,1134.86 1097.8,1012.59 1098.83,943.062 1099.86,882.429 1100.89,956.392 1101.92,1006.32 1102.94,928.87 1103.97,1139.85 1105,640.528 1106.03,925.305 1107.06,930.364 1108.09,1021.36 1109.12,754.522 1110.14,749.863 1111.17,952.445 1112.2,1229.08 1113.23,626.46 1114.26,839.105 1115.29,575.401 1116.32,764.774 1117.35,946.923 1118.37,974.75 1119.4,1006.38 1120.43,1321.86 1121.46,1047.6 1122.49,889.387 1123.52,696.523 1124.55,531.988 1125.57,997.121 1126.6,960.056 1127.63,469.793 1128.66,728.472 1129.69,1124.27 1130.72,802.712 1131.75,904.67 1132.78,713.855 1133.8,739.822 1134.83,612.453 1135.86,882.976 1136.89,633.836 1137.92,877.598 1138.95,878.469 1139.98,1007.9 1141,878.794 1142.03,608.858 1143.06,711.433 1144.09,684.134 1145.12,907.064 1146.15,751.417 1147.18,1034.43 1148.21,793.606 1149.23,858.451 1150.26,1037.03 1151.29,717.179 1152.32,1005.49 1153.35,972.799 1154.38,839.529 1155.41,810.589 1156.43,441.342 1157.46,1055.12 1158.49,568.433 1159.52,891.139 1160.55,863.653 1161.58,906.135 1162.61,936.996 1163.63,918.455 1164.66,742.021 1165.69,1061.38 1166.72,638.817 1167.75,771.725 1168.78,786.965 1169.81,739.357 1170.84,738.181 1171.86,836.968 1172.89,868.591 1173.92,592.886 1174.95,865.612 1175.98,988.802 1177.01,818.966 1178.04,763.457 1179.06,1118.55 1180.09,703.884 1181.12,777.743 1182.15,602.996 1183.18,891.443 1184.21,791.439 1185.24,793.747 1186.27,897.669 1187.29,672.253 1188.32,840.834 1189.35,956.786 1190.38,860.592 1191.41,976.078 1192.44,1172.81 1193.47,1086.57 1194.49,945.235 1195.52,679.442 1196.55,712.678 1197.58,959.481 1198.61,834.646 1199.64,958.871 1200.67,670.867 1201.69,939.464 1202.72,1154.06 1203.75,462.145 1204.78,988.152 1205.81,507.839 1206.84,713.92 1207.87,664.992 1208.9,1165.85 1209.92,838.537 1210.95,974.124 1211.98,873.003 1213.01,783.354 1214.04,954.374 1215.07,848.79 1216.1,989.781 1217.12,757.78 1218.15,767.46 1219.18,902.853 1220.21,873.326 1221.24,594.357 1222.27,917.567 1223.3,679.706 1224.33,546.939 1225.35,933.631 1226.38,763.07 1227.41,993.169 1228.44,952.558 1229.47,545.993 1230.5,898.721 1231.53,1116.67 1232.55,1014.03 1233.58,537.185 1234.61,1001.92 1235.64,808.641 1236.67,980.466 1237.7,864.704 1238.73,998.04 1239.76,781.547 1240.78,937.313 1241.81,591.754 1242.84,892.108 1243.87,1115.35 1244.9,1000.26 1245.93,909.524 1246.96,820.018 1247.98,994.179 1249.01,1050.93 1250.04,729.417 1251.07,1081.45 1252.1,975.017 1253.13,883.447 1254.16,741.247 1255.18,834.42 1256.21,779.263 1257.24,757.989 1258.27,737.417 1259.3,849.869 1260.33,737.287 1261.36,733.256 1262.39,630.204 1263.41,1337.28 1264.44,877.568 1265.47,947.665 1266.5,979.626 1267.53,614.144 1268.56,552.125 1269.59,743.113 1270.61,1005.07 1271.64,947.896 1272.67,665.687 1273.7,735.758 1274.73,917.634 1275.76,857.864 1276.79,1137.31 1277.82,905.547 1278.84,971.318 1279.87,920.944 1280.9,876.6 1281.93,639.163 1282.96,810.324 1283.99,793.339 1285.02,875.007 1286.04,772.187 1287.07,1109.48 1288.1,843.464 1289.13,637.469 1290.16,1109.59 1291.19,938.329 1292.22,511.401 1293.24,886.142 1294.27,1118.95 1295.3,882.646 1296.33,1118.82 1297.36,1038.46 1298.39,697.234 1299.42,948.753 1300.45,811.716 1301.47,997.983 1302.5,771.971 1303.53,916.026 1304.56,1060.34 1305.59,411.915 1306.62,728.16 1307.65,968.734 1308.67,955.605 1309.7,997.217 1310.73,862.948 1311.76,893.016 1312.79,709.388 1313.82,973.596 1314.85,1008.37 1315.88,776.917 1316.9,1112.06 1317.93,1040.69 1318.96,998.802 1319.99,1077.14 1321.02,756.507 1322.05,1211.18 1323.08,938.396 1324.1,1237.34 1325.13,847.267 1326.16,968.945 1327.19,1165.7 1328.22,967.127 1329.25,1095.47 1330.28,862.122 1331.31,744.655 1332.33,879.126 1333.36,1084.53 1334.39,597.328 1335.42,964.747 1336.45,1010.14 1337.48,457.372 1338.51,887.901 1339.53,729.403 1340.56,1445.72 1341.59,918.099 1342.62,1007.65 1343.65,933.025 1344.68,1012.02 1345.71,481.328 1346.73,735.788 1347.76,940.637 1348.79,1020.33 1349.82,1014.03 1350.85,952.307 1351.88,535.621 1352.91,949.706 1353.94,950.031 1354.96,1204.19 1355.99,871.013 1357.02,635.34 1358.05,1070.95 1359.08,880.29 1360.11,635.365 1361.14,851.246 1362.16,1025.49 1363.19,1063.5 1364.22,1069.75 1365.25,884.669 1366.28,626.448 1367.31,722.378 1368.34,950.878 1369.37,775.475 1370.39,782.623 1371.42,811.131 1372.45,909.727 1373.48,1033.6 1374.51,939.373 1375.54,1071.28 1376.57,986.289 1377.59,735.957 1378.62,981.216 1379.65,939.688 1380.68,744.438 1381.71,1099.65 1382.74,965.923 1383.77,1034.31 1384.79,815.767 1385.82,858.464 1386.85,1096.74 1387.88,1107.45 1388.91,879.219 1389.94,949.233 1390.97,1076.21 1392,947.253 1393.02,1000.26 1394.05,735.343 1395.08,1071.41 1396.11,911.52 1397.14,934.862 1398.17,803.305 1399.2,920.138 1400.22,720.884 1401.25,1129.97 1402.28,696.757 1403.31,820.987 1404.34,716.553 1405.37,1059.68 1406.4,765.307 1407.43,938.812 1408.45,810.455 1409.48,808.102 1410.51,878.585 1411.54,745.742 1412.57,692.894 1413.6,1199.3 1414.63,1044.84 1415.65,844.278 1416.68,876.163 1417.71,1037.02 1418.74,919.601 1419.77,950.081 1420.8,866.599 1421.83,874.648 1422.85,725.936 1423.88,1024.61 1424.91,568.358 1425.94,889.354 1426.97,956.682 1428,948.317 1429.03,1027.15 1430.06,895.556 1431.08,991.853 1432.11,1033.82 1433.14,735.446 1434.17,808.706 1435.2,871.613 1436.23,813.841 1437.26,986.659 1438.28,660.211 1439.31,967.932 1440.34,730.386 1441.37,1087.4 1442.4,873.125 1443.43,657.729 1444.46,636.291 1445.49,791.315 1446.51,499.154 1447.54,667.199 1448.57,992.676 1449.6,736.909 1450.63,1108.16 1451.66,996.363 1452.69,1012.56 1453.71,923.492 1454.74,983.51 1455.77,626.387 1456.8,897.686 1457.83,884.22 1458.86,693.39 1459.89,620.518 1460.92,859.764 1461.94,909.368 1462.97,450.82 1464,850.915 1465.03,1149.94 1466.06,650.153 1467.09,1111.76 1468.12,991.698 1469.14,868.245 1470.17,1061.84 1471.2,813.357 1472.23,855.45 1473.26,1069.07 1474.29,944.954 1475.32,932.926 1476.34,715.246 1477.37,916.404 1478.4,1125.66 1479.43,783.326 1480.46,380.23 1481.49,720.865 1482.52,719.577 1483.55,944.572 1484.57,875.598 1485.6,926.306 1486.63,1054.01 1487.66,1333.83 1488.69,1080.66 1489.72,783.368 1490.75,1102.38 1491.77,442.646 1492.8,914.521 1493.83,946.568 1494.86,413.285 1495.89,921.003 1496.92,945.588 1497.95,963.672 1498.98,916.667 1500,746.568 1501.03,1120.21 1502.06,843.953 1503.09,617.083 1504.12,1055.39 1505.15,1051.66 1506.18,915.75 1507.2,891.671 1508.23,478.796 1509.26,989.005 1510.29,1127.72 1511.32,856.542 1512.35,1208.88 1513.38,768.277 1514.4,844.829 1515.43,612.703 1516.46,927.465 1517.49,736.484 1518.52,939.068 1519.55,832.032 1520.58,798.982 1521.61,1024.82 1522.63,819.352 1523.66,927.916 1524.69,988.06 1525.72,566.541 1526.75,685.785 1527.78,836.011 1528.81,1095.05 1529.83,936.696 1530.86,575.884 1531.89,952 1532.92,1060.17 1533.95,777.719 1534.98,581.901 1536.01,942.695 1537.04,810.22 1538.06,908.436 1539.09,801.639 1540.12,1050.58 1541.15,902.629 1542.18,826.635 1543.21,757.565 1544.24,719.406 1545.26,939.538 1546.29,698.792 1547.32,741.858 1548.35,706.341 1549.38,866.605 1550.41,793.279 1551.44,786.722 1552.47,392.861 1553.49,654.768 1554.52,1037.57 1555.55,654.699 1556.58,902.62 1557.61,587.682 1558.64,1081.96 1559.67,950.315 1560.69,1040.71 1561.72,453.08 1562.75,875.6 1563.78,913.199 1564.81,1109.57 1565.84,995.706 1566.87,803.683 1567.89,921.989 1568.92,796.617 1569.95,674.806 1570.98,655.854 1572.01,915.341 1573.04,928.05 1574.07,772.55 1575.1,697.678 1576.12,619.797 1577.15,667.79 1578.18,599.4 1579.21,979.258 1580.24,994.168 1581.27,777.398 1582.3,1125.75 1583.32,678.081 1584.35,918.778 1585.38,545.622 1586.41,808.425 1587.44,1005.56 1588.47,767.552 1589.5,825.197 1590.53,715.304 1591.55,958.967 1592.58,810.262 1593.61,591.473 1594.64,458.686 1595.67,813.471 1596.7,486.215 1597.73,739.082 1598.75,906.185 1599.78,725.046 1600.81,587.241 1601.84,721.454 1602.87,758.399 1603.9,921.723 1604.93,644.811 1605.95,793.133 1606.98,679.104 1608.01,750.425 1609.04,653.645 1610.07,768.004 1611.1,887.863 1612.13,1015.1 1613.16,910.383 1614.18,965.047 1615.21,734.309 1616.24,930.155 1617.27,813.276 1618.3,736.539 1619.33,565.861 1620.36,891.715 1621.38,815.832 1622.41,502.554 1623.44,775.916 1624.47,422.946 1625.5,946.513 1626.53,1111.44 1627.56,887.217 1628.59,687.909 1629.61,692.666 1630.64,605.474 1631.67,704.24 1632.7,484.865 1633.73,729.216 1634.76,739.986 1635.79,900.864 1636.81,617.94 1637.84,933.779 1638.87,934.125 1639.9,754.427 1640.93,955.876 1641.96,908.53 1642.99,859.469 1644.02,898.677 1645.04,802.621 1646.07,600.776 1647.1,820.742 1648.13,836.87 1649.16,749.112 1650.19,1066.41 1651.22,661.441 1652.24,1109.39 1653.27,869.245 1654.3,977.293 1655.33,684.555 1656.36,867.972 1657.39,569.666 1658.42,1125.12 1659.44,653.889 1660.47,751.785 1661.5,584.091 1662.53,767.83 1663.56,448.14 1664.59,609.707 1665.62,724.021 1666.65,893.954 1667.67,516.397 1668.7,476.909 1669.73,195.835 1670.76,817.693 1671.79,232.433 1672.82,801.507 1673.85,838.851 1674.87,872.634 1675.9,693.181 1676.93,696.786 1677.96,726.872 1678.99,737.275 1680.02,526.243 1681.05,639.831 1682.08,1015.06 1683.1,347.378 1684.13,859.695 1685.16,587.187 1686.19,699.419 1687.22,935.07 1688.25,706.679 1689.28,856.973 1690.3,677.79 1691.33,723.743 1692.36,430.981 1693.39,685.086 1694.42,822.128 1695.45,473.423 1696.48,383.366 1697.5,507.321 1698.53,386.011 1699.56,861.285 1700.59,1067.67 1701.62,831.574 1702.65,977.125 1703.68,469.683 1704.71,897.05 1705.73,805.602 1706.76,999.505 1707.79,599.256 1708.82,753.416 1709.85,757.431 1710.88,528.174 1711.91,621.924 1712.93,670.127 1713.96,441.598 1714.99,677.873 1716.02,565.313 1717.05,830.129 1718.08,776.762 1719.11,896.012 1720.14,799.883 1721.16,852.509 1722.19,533.966 1723.22,697.621 1724.25,782.334 1725.28,994.863 1726.31,801.258 1727.34,531.509 1728.36,690.289 1729.39,1059.33 1730.42,585.244 1731.45,882.345 1732.48,753.722 1733.51,965.348 1734.54,696.094 1735.57,285.89 1736.59,632.883 1737.62,649.019 1738.65,600.24 1739.68,762.582 1740.71,464.621 1741.74,921 1742.77,557.916 1743.79,173.9 1744.82,971.891 1745.85,713.045 1746.88,857.259 1747.91,623.554 1748.94,939.151 1749.97,490.47 1750.99,493.032 1752.02,658.043 1753.05,650.065 1754.08,860.483 1755.11,520.416 1756.14,671.252 1757.17,681.047 1758.2,954.811 1759.22,492.008 1760.25,876.472 1761.28,650.957 1762.31,406.276 1763.34,926.497 1764.37,1167.57 1765.4,863.458 1766.42,518.339 1767.45,869.177 1768.48,921.092 1769.51,975.789 1770.54,729.848 1771.57,479.365 1772.6,549.202 1773.63,711.091 1774.65,611.492 1775.68,516.008 1776.71,866.244 1777.74,806.562 1778.77,1058.44 1779.8,804.132 1780.83,454.813 1781.85,714.013 1782.88,716.064 1783.91,535.324 1784.94,787.285 1785.97,725.867 1787,449.701 1788.03,736.381 1789.05,743.827 1790.08,1031.54 1791.11,705.767 1792.14,804.599 1793.17,521.522 1794.2,703.104 1795.23,812.664 1796.26,772.336 1797.28,741.129 1798.31,406.919 1799.34,526.29 1800.37,711.073 1801.4,332.328 1802.43,911.708 1803.46,602.312 1804.48,551.239 1805.51,588.672 1806.54,826.422 1807.57,368.879 1808.6,705.685 1809.63,811.22 1810.66,935.191 1811.69,469.272 1812.71,669.498 1813.74,557.993 1814.77,787.548 1815.8,592.348 1816.83,721.203 1817.86,541.716 1818.89,581.948 1819.91,504.486 1820.94,739.173 1821.97,805.419 1823,673.788 1824.03,435.008 1825.06,452.991 1826.09,407.59 1827.12,870.269 1828.14,546.891 1829.17,861.989 1830.2,390.534 1831.23,338.727 1832.26,496.557 1833.29,749.162 1834.32,531.435 1835.34,788.57 1836.37,673.812 1837.4,480.824 1838.43,918.564 1839.46,611.731 1840.49,488.391 1841.52,817.9 1842.54,665.184 1843.57,842.162 1844.6,629.17 1845.63,854.429 1846.66,648.549 1847.69,635.611 1848.72,936.126 1849.75,591.056 1850.77,548.748 1851.8,493.343 1852.83,775.29 1853.86,746.221 1854.89,338.44 1855.92,855.552 1856.95,799.537 1857.97,839.871 1859,249.093 1860.03,588.54 1861.06,743.348 1862.09,911.255 1863.12,764.3 1864.15,786.492 1865.18,902.831 1866.2,791.196 1867.23,743.661 1868.26,929.499 1869.29,765.056 1870.32,849.125 1871.35,839.323 1872.38,815.883 1873.4,870.407 1874.43,565.31 1875.46,532.205 1876.49,759.899 1877.52,740.298 1878.55,601.568 1879.58,573.143 1880.6,622.989 1881.63,826.049 1882.66,899.796 1883.69,852.522 1884.72,308.552 1885.75,753.91 1886.78,470.862 1887.81,610.057 1888.83,846.659 1889.86,758.391 1890.89,517.463 1891.92,1015.83 1892.95,818.923 1893.98,380.49 1895.01,713.104 1896.03,544.524 1897.06,592.974 1898.09,807.83 1899.12,614.001 1900.15,684.228 1901.18,838.502 1902.21,700.033 1903.24,735.378 1904.26,797.222 1905.29,403.703 1906.32,1212.88 1907.35,325.403 1908.38,839.478 1909.41,922.007 1910.44,444.364 1911.46,693.77 1912.49,614.75 1913.52,714.261 1914.55,617.529 1915.58,986.595 1916.61,378.572 1917.64,545.278 1918.66,671.853 1919.69,895.242 1920.72,781.433 1921.75,884.866 1922.78,660.122 1923.81,719.384 1924.84,871.076 1925.87,575.806 1926.89,1037.93 1927.92,964.907 1928.95,601.894 1929.98,705.632 1931.01,706.057 1932.04,683.475 1933.07,849.209 1934.09,694.617 1935.12,704.312 1936.15,858.747 1937.18,857.999 1938.21,453.782 1939.24,829.124 1940.27,796.071 1941.3,837.979 1942.32,593.798 1943.35,469.682 1944.38,848.757 1945.41,1107.38 1946.44,740.236 1947.47,901.811 1948.5,616.403 1949.52,638.107 1950.55,789.902 1951.58,744.886 1952.61,779.373 1953.64,1053.85 1954.67,734.497 1955.7,488.801 1956.73,610.775 1957.75,477.708 1958.78,673.215 1959.81,808.028 1960.84,750.698 1961.87,813.692 1962.9,918.165 1963.93,721.162 1964.95,784.136 1965.98,503.346 1967.01,862.994 1968.04,884.771 1969.07,601.225 1970.1,649.61 1971.13,653.23 1972.15,630.7 1973.18,681.133 1974.21,471.299 1975.24,469.581 1976.27,785.146 1977.3,911.902 1978.33,518.772 1979.36,739.216 1980.38,741.369 1981.41,475.958 1982.44,645.83 1983.47,641.72 1984.5,327.252 1985.53,812.239 1986.56,508.54 1987.58,833.938 1988.61,87.9763 1989.64,298.689 1990.67,734.303 1991.7,798.68 1992.73,587.253 1993.76,679.541 1994.79,906.752 1995.81,847.63 1996.84,491.605 1997.87,849.15 1998.9,757.81 1999.93,767.539 2000.96,557.201 2001.99,878.283 2003.01,694.309 2004.04,920.623 2005.07,881.97 2006.1,806.551 2007.13,723.815 2008.16,1243.14 2009.19,349.901 2010.21,847.247 2011.24,898.145 2012.27,821.231 2013.3,539.16 2014.33,556.58 2015.36,281.856 2016.39,835.701 2017.42,623.369 2018.44,823.202 2019.47,825.053 2020.5,633.646 2021.53,661.95 2022.56,791.284 2023.59,833.604 2024.62,729.05 2025.64,756.02 2026.67,703.893 2027.7,756.016 2028.73,784.263 2029.76,668.233 2030.79,775.55 2031.82,658.143 2032.85,484.915 2033.87,742.824 2034.9,862.045 2035.93,699.151 2036.96,825.617 2037.99,945.088 2039.02,650.512 2040.05,530.767 2041.07,440.532 2042.1,813.95 2043.13,649.298 2044.16,837.391 2045.19,773.587 2046.22,631.098 2047.25,944.5 2048.28,817.386 2049.3,754.323 2050.33,474.964 2051.36,839.694 2052.39,658.157 2053.42,622.225 2054.45,403.478 2055.48,490.934 2056.5,883.727 2057.53,540.242 2058.56,759.491 2059.59,450.879 2060.62,421.436 2061.65,658.339 2062.68,468.253 2063.7,490.115 2064.73,692.464 2065.76,771.803 2066.79,736.963 2067.82,712.189 2068.85,535.522 2069.88,517.161 2070.91,831.051 2071.93,682.745 2072.96,618.253 2073.99,943.753 2075.02,743.372 2076.05,490.517 2077.08,798.303 2078.11,832.473 2079.13,793.884 2080.16,418.083 2081.19,678.059 2082.22,1132.17 2083.25,746.808 2084.28,837.657 2085.31,523.364 2086.34,490.692 2087.36,1014.07 2088.39,561.207 2089.42,683.46 2090.45,735.217 2091.48,770.167 2092.51,638.337 2093.54,572.342 2094.56,867.081 2095.59,631.207 2096.62,789.785 2097.65,737.516 2098.68,728.128 2099.71,700.904 2100.74,821.84 2101.76,1075.72 2102.79,780.628 2103.82,719.906 2104.85,1013.9 2105.88,957.411 2106.91,335.269 2107.94,233.282 2108.97,664.061 2109.99,720.811 2111.02,447.901 2112.05,346.956 2113.08,373.552 2114.11,712.091 2115.14,605.878 2116.17,547.151 2117.19,769.694 2118.22,856.047 2119.25,669.235 2120.28,714.505 2121.31,794.416 2122.34,504.952 2123.37,759.434 2124.4,887.843 2125.42,711.53 2126.45,605.412 2127.48,828.02 2128.51,1018.95 2129.54,913.006 2130.57,658.107 2131.6,464.762 2132.62,611.972 2133.65,314.848 2134.68,566.178 2135.71,770.13 2136.74,555.478 2137.77,703.514 2138.8,605.858 2139.83,560.278 2140.85,799.341 2141.88,1009.09 2142.91,799.139 2143.94,654.64 2144.97,747.89 2146,808.57 2147.03,822.215 2148.05,365.987 2149.08,717.363 2150.11,670.709 2151.14,469.517 2152.17,530.848 2153.2,710.8 2154.23,961.816 2155.25,542.964 2156.28,823.571 2157.31,570.835 2158.34,877.484 2159.37,793.584 2160.4,106.828 2161.43,875.892 2162.46,651.926 2163.48,818.939 2164.51,999.394 2165.54,598.767 2166.57,695.496 2167.6,713.168 2168.63,343.601 2169.66,819.02 2170.68,832.327 2171.71,429.189 2172.74,727.069 2173.77,507.809 2174.8,692.728 2175.83,587.442 2176.86,851.165 2177.89,545.545 2178.91,547.679 2179.94,398.233 2180.97,664.337 2182,749.695 2183.03,960.85 2184.06,514.055 2185.09,698.05 2186.11,624.819 2187.14,691.692 2188.17,556.677 2189.2,869.689 2190.23,640.573 2191.26,728.217 2192.29,519.39 2193.31,824.339 2194.34,121.231 2195.37,570.234 2196.4,780.074 2197.43,743.993 2198.46,837.553 2199.49,968.796 2200.52,281.885 2201.54,877.678 2202.57,994.711 2203.6,562.537 2204.63,735.756 2205.66,903.781 2206.69,591.484 2207.72,808.976 2208.74,191.479 2209.77,730.119 2210.8,692.433 2211.83,816.992 2212.86,699.258 2213.89,557.997 2214.92,657.629 2215.95,761.925 2216.97,408.745 2218,871.51 2219.03,855.172 2220.06,562.855 2221.09,776.312 2222.12,484.97 2223.15,878.2 2224.17,607.472 2225.2,887.713 2226.23,459.506 2227.26,978.061 2228.29,543.07 2229.32,786.322 2230.35,628.99 2231.38,877.148 2232.4,561.71 2233.43,481.029 2234.46,827.799 2235.49,538.376 2236.52,707.695 2237.55,800.449 2238.58,434.54 2239.6,649.12 2240.63,620.874 2241.66,458.388 2242.69,468.733 2243.72,519.309 2244.75,631.754 2245.78,537.744 2246.8,362.981 2247.83,752.624 2248.86,256.111 2249.89,381.93 2250.92,971.788 2251.95,878.682 2252.98,478.244 2254.01,158.405 2255.03,147.286 2256.06,734.025 2257.09,278.26 2258.12,906.108 2259.15,661.758 2260.18,442.828 2261.21,714.976 2262.23,761.016 2263.26,1076.45 2264.29,785.169 2265.32,767.976 2266.35,483.057 2267.38,928.411 2268.41,868.006 2269.44,500.461 2270.46,309.484 2271.49,744.79 2272.52,858.99 2273.55,577.602 2274.58,503.537 2275.61,589.206 2276.64,494.528 2277.66,758.581 2278.69,402.633 2279.72,625.699 2280.75,664.495 2281.78,806.046 2282.81,700.535 2283.84,1013.16 2284.86,461.133 2285.89,851.4 2286.92,861.313 2287.95,820.62 2288.98,752.039 2290.01,851.958 2291.04,852.142 "/>
<path clip-path="url(#clip480)" d="M2009.56 1438.47 L2280.06 1438.47 L2280.06 1334.79 L2009.56 1334.79  Z" fill="#ffffff" fill-rule="evenodd" fill-opacity="1"/>
<polyline clip-path="url(#clip480)" style="stroke:#000000; stroke-linecap:round; stroke-linejoin:round; stroke-width:4; stroke-opacity:1; fill:none" points="2009.56,1438.47 2280.06,1438.47 2280.06,1334.79 2009.56,1334.79 2009.56,1438.47 "/>
<polyline clip-path="url(#clip480)" style="stroke:#009af9; stroke-linecap:round; stroke-linejoin:round; stroke-width:4; stroke-opacity:1; fill:none" points="2033.79,1386.63 2179.17,1386.63 "/>
<path clip-path="url(#clip480)" d="M2217.25 1406.32 Q2215.44 1410.95 2213.73 1412.36 Q2212.01 1413.78 2209.14 1413.78 L2205.74 1413.78 L2205.74 1410.21 L2208.24 1410.21 Q2210 1410.21 2210.97 1409.38 Q2211.95 1408.54 2213.13 1405.44 L2213.89 1403.5 L2203.4 1377.99 L2207.92 1377.99 L2216.02 1398.27 L2224.12 1377.99 L2228.64 1377.99 L2217.25 1406.32 Z" fill="#000000" fill-rule="nonzero" fill-opacity="1" /><path clip-path="url(#clip480)" d="M2235.93 1399.98 L2243.57 1399.98 L2243.57 1373.61 L2235.26 1375.28 L2235.26 1371.02 L2243.52 1369.35 L2248.2 1369.35 L2248.2 1399.98 L2255.83 1399.98 L2255.83 1403.91 L2235.93 1403.91 L2235.93 1399.98 Z" fill="#000000" fill-rule="nonzero" fill-opacity="1" /></svg>
