<svg xmlns="http://www.w3.org/2000/svg" xmlns:xlink="http://www.w3.org/1999/xlink" width="600" height="400" viewBox="0 0 2400 1600">
<defs>
  <clipPath id="clip120">
    <rect x="0" y="0" width="2400" height="1600"></rect>
  </clipPath>
</defs>
<path clip-path="url(#clip120)" d="M0 1600 L2400 1600 L2400 0 L0 0  Z" fill="#ffffff" fill-rule="evenodd" fill-opacity="1"></path>
<defs>
  <clipPath id="clip121">
    <rect x="480" y="0" width="1681" height="1600"></rect>
  </clipPath>
</defs>
<path clip-path="url(#clip120)" d="M232.389 1423.18 L2352.76 1423.18 L2352.76 47.2441 L232.389 47.2441  Z" fill="#ffffff" fill-rule="evenodd" fill-opacity="1"></path>
<defs>
  <clipPath id="clip122">
    <rect x="232" y="47" width="2121" height="1377"></rect>
  </clipPath>
</defs>
<polyline clip-path="url(#clip122)" style="stroke:#000000; stroke-linecap:round; stroke-linejoin:round; stroke-width:2; stroke-opacity:0.1; fill:none" points="292.4,1423.18 292.4,47.2441 "></polyline>
<polyline clip-path="url(#clip122)" style="stroke:#000000; stroke-linecap:round; stroke-linejoin:round; stroke-width:2; stroke-opacity:0.1; fill:none" points="625.791,1423.18 625.791,47.2441 "></polyline>
<polyline clip-path="url(#clip122)" style="stroke:#000000; stroke-linecap:round; stroke-linejoin:round; stroke-width:2; stroke-opacity:0.1; fill:none" points="959.182,1423.18 959.182,47.2441 "></polyline>
<polyline clip-path="url(#clip122)" style="stroke:#000000; stroke-linecap:round; stroke-linejoin:round; stroke-width:2; stroke-opacity:0.1; fill:none" points="1292.57,1423.18 1292.57,47.2441 "></polyline>
<polyline clip-path="url(#clip122)" style="stroke:#000000; stroke-linecap:round; stroke-linejoin:round; stroke-width:2; stroke-opacity:0.1; fill:none" points="1625.96,1423.18 1625.96,47.2441 "></polyline>
<polyline clip-path="url(#clip122)" style="stroke:#000000; stroke-linecap:round; stroke-linejoin:round; stroke-width:2; stroke-opacity:0.1; fill:none" points="1959.35,1423.18 1959.35,47.2441 "></polyline>
<polyline clip-path="url(#clip122)" style="stroke:#000000; stroke-linecap:round; stroke-linejoin:round; stroke-width:2; stroke-opacity:0.1; fill:none" points="2292.75,1423.18 2292.75,47.2441 "></polyline>
<polyline clip-path="url(#clip120)" style="stroke:#000000; stroke-linecap:round; stroke-linejoin:round; stroke-width:4; stroke-opacity:1; fill:none" points="232.389,1423.18 2352.76,1423.18 "></polyline>
<polyline clip-path="url(#clip120)" style="stroke:#000000; stroke-linecap:round; stroke-linejoin:round; stroke-width:4; stroke-opacity:1; fill:none" points="292.4,1423.18 292.4,1404.28 "></polyline>
<polyline clip-path="url(#clip120)" style="stroke:#000000; stroke-linecap:round; stroke-linejoin:round; stroke-width:4; stroke-opacity:1; fill:none" points="625.791,1423.18 625.791,1404.28 "></polyline>
<polyline clip-path="url(#clip120)" style="stroke:#000000; stroke-linecap:round; stroke-linejoin:round; stroke-width:4; stroke-opacity:1; fill:none" points="959.182,1423.18 959.182,1404.28 "></polyline>
<polyline clip-path="url(#clip120)" style="stroke:#000000; stroke-linecap:round; stroke-linejoin:round; stroke-width:4; stroke-opacity:1; fill:none" points="1292.57,1423.18 1292.57,1404.28 "></polyline>
<polyline clip-path="url(#clip120)" style="stroke:#000000; stroke-linecap:round; stroke-linejoin:round; stroke-width:4; stroke-opacity:1; fill:none" points="1625.96,1423.18 1625.96,1404.28 "></polyline>
<polyline clip-path="url(#clip120)" style="stroke:#000000; stroke-linecap:round; stroke-linejoin:round; stroke-width:4; stroke-opacity:1; fill:none" points="1959.35,1423.18 1959.35,1404.28 "></polyline>
<polyline clip-path="url(#clip120)" style="stroke:#000000; stroke-linecap:round; stroke-linejoin:round; stroke-width:4; stroke-opacity:1; fill:none" points="2292.75,1423.18 2292.75,1404.28 "></polyline>
<path clip-path="url(#clip120)" d="M282.782 1481.64 L290.421 1481.64 L290.421 1455.28 L282.11 1456.95 L282.11 1452.69 L290.374 1451.02 L295.05 1451.02 L295.05 1481.64 L302.689 1481.64 L302.689 1485.58 L282.782 1485.58 L282.782 1481.64 Z" fill="#000000" fill-rule="nonzero" fill-opacity="1"></path><path clip-path="url(#clip120)" d="M620.443 1481.64 L636.763 1481.64 L636.763 1485.58 L614.819 1485.58 L614.819 1481.64 Q617.481 1478.89 622.064 1474.26 Q626.67 1469.61 627.851 1468.27 Q630.096 1465.74 630.976 1464.01 Q631.879 1462.25 631.879 1460.56 Q631.879 1457.8 629.934 1456.07 Q628.013 1454.33 624.911 1454.33 Q622.712 1454.33 620.258 1455.09 Q617.828 1455.86 615.05 1457.41 L615.05 1452.69 Q617.874 1451.55 620.328 1450.97 Q622.781 1450.39 624.818 1450.39 Q630.189 1450.39 633.383 1453.08 Q636.578 1455.77 636.578 1460.26 Q636.578 1462.39 635.767 1464.31 Q634.98 1466.2 632.874 1468.8 Q632.295 1469.47 629.193 1472.69 Q626.092 1475.88 620.443 1481.64 Z" fill="#000000" fill-rule="nonzero" fill-opacity="1"></path><path clip-path="url(#clip120)" d="M963.429 1466.95 Q966.786 1467.66 968.661 1469.93 Q970.559 1472.2 970.559 1475.53 Q970.559 1480.65 967.04 1483.45 Q963.522 1486.25 957.04 1486.25 Q954.865 1486.25 952.55 1485.81 Q950.258 1485.39 947.804 1484.54 L947.804 1480.02 Q949.749 1481.16 952.064 1481.74 Q954.378 1482.32 956.902 1482.32 Q961.3 1482.32 963.591 1480.58 Q965.906 1478.84 965.906 1475.53 Q965.906 1472.48 963.753 1470.77 Q961.624 1469.03 957.804 1469.03 L953.777 1469.03 L953.777 1465.19 L957.99 1465.19 Q961.439 1465.19 963.267 1463.82 Q965.096 1462.43 965.096 1459.84 Q965.096 1457.18 963.198 1455.77 Q961.323 1454.33 957.804 1454.33 Q955.883 1454.33 953.684 1454.75 Q951.485 1455.16 948.846 1456.04 L948.846 1451.88 Q951.508 1451.14 953.823 1450.77 Q956.161 1450.39 958.221 1450.39 Q963.545 1450.39 966.647 1452.83 Q969.749 1455.23 969.749 1459.35 Q969.749 1462.22 968.105 1464.21 Q966.462 1466.18 963.429 1466.95 Z" fill="#000000" fill-rule="nonzero" fill-opacity="1"></path><path clip-path="url(#clip120)" d="M1295.58 1455.09 L1283.78 1473.54 L1295.58 1473.54 L1295.58 1455.09 M1294.36 1451.02 L1300.23 1451.02 L1300.23 1473.54 L1305.17 1473.54 L1305.17 1477.43 L1300.23 1477.43 L1300.23 1485.58 L1295.58 1485.58 L1295.58 1477.43 L1279.98 1477.43 L1279.98 1472.92 L1294.36 1451.02 Z" fill="#000000" fill-rule="nonzero" fill-opacity="1"></path><path clip-path="url(#clip120)" d="M1616.24 1451.02 L1634.6 1451.02 L1634.6 1454.96 L1620.52 1454.96 L1620.52 1463.43 Q1621.54 1463.08 1622.56 1462.92 Q1623.58 1462.73 1624.6 1462.73 Q1630.38 1462.73 1633.76 1465.9 Q1637.14 1469.08 1637.14 1474.49 Q1637.14 1480.07 1633.67 1483.17 Q1630.2 1486.25 1623.88 1486.25 Q1621.7 1486.25 1619.44 1485.88 Q1617.19 1485.51 1614.78 1484.77 L1614.78 1480.07 Q1616.87 1481.2 1619.09 1481.76 Q1621.31 1482.32 1623.79 1482.32 Q1627.79 1482.32 1630.13 1480.21 Q1632.47 1478.1 1632.47 1474.49 Q1632.47 1470.88 1630.13 1468.77 Q1627.79 1466.67 1623.79 1466.67 Q1621.91 1466.67 1620.04 1467.08 Q1618.19 1467.5 1616.24 1468.38 L1616.24 1451.02 Z" fill="#000000" fill-rule="nonzero" fill-opacity="1"></path><path clip-path="url(#clip120)" d="M1959.76 1466.44 Q1956.61 1466.44 1954.76 1468.59 Q1952.93 1470.74 1952.93 1474.49 Q1952.93 1478.22 1954.76 1480.39 Q1956.61 1482.55 1959.76 1482.55 Q1962.91 1482.55 1964.74 1480.39 Q1966.59 1478.22 1966.59 1474.49 Q1966.59 1470.74 1964.74 1468.59 Q1962.91 1466.44 1959.76 1466.44 M1969.04 1451.78 L1969.04 1456.04 Q1967.28 1455.21 1965.48 1454.77 Q1963.69 1454.33 1961.94 1454.33 Q1957.31 1454.33 1954.85 1457.45 Q1952.42 1460.58 1952.07 1466.9 Q1953.44 1464.89 1955.5 1463.82 Q1957.56 1462.73 1960.04 1462.73 Q1965.25 1462.73 1968.25 1465.9 Q1971.29 1469.05 1971.29 1474.49 Q1971.29 1479.82 1968.14 1483.03 Q1964.99 1486.25 1959.76 1486.25 Q1953.76 1486.25 1950.59 1481.67 Q1947.42 1477.06 1947.42 1468.33 Q1947.42 1460.14 1951.31 1455.28 Q1955.2 1450.39 1961.75 1450.39 Q1963.51 1450.39 1965.29 1450.74 Q1967.1 1451.09 1969.04 1451.78 Z" fill="#000000" fill-rule="nonzero" fill-opacity="1"></path><path clip-path="url(#clip120)" d="M2281.63 1451.02 L2303.86 1451.02 L2303.86 1453.01 L2291.31 1485.58 L2286.43 1485.58 L2298.23 1454.96 L2281.63 1454.96 L2281.63 1451.02 Z" fill="#000000" fill-rule="nonzero" fill-opacity="1"></path><path clip-path="url(#clip120)" d="M1079.62 1539.37 L1070.36 1539.37 L1067.69 1550 L1077.01 1550 L1079.62 1539.37 M1074.85 1521.26 L1071.54 1534.46 L1080.83 1534.46 L1084.18 1521.26 L1089.27 1521.26 L1085.99 1534.46 L1095.92 1534.46 L1095.92 1539.37 L1084.75 1539.37 L1082.14 1550 L1092.26 1550 L1092.26 1554.87 L1080.9 1554.87 L1077.59 1568.04 L1072.49 1568.04 L1075.77 1554.87 L1066.45 1554.87 L1063.17 1568.04 L1058.04 1568.04 L1061.35 1554.87 L1051.33 1554.87 L1051.33 1550 L1062.53 1550 L1065.21 1539.37 L1054.96 1539.37 L1054.96 1534.46 L1066.45 1534.46 L1069.69 1521.26 L1074.85 1521.26 Z" fill="#000000" fill-rule="nonzero" fill-opacity="1"></path><path clip-path="url(#clip120)" d="M1153.37 1550.25 Q1153.37 1543.79 1150.7 1540.13 Q1148.06 1536.44 1143.41 1536.44 Q1138.76 1536.44 1136.09 1540.13 Q1133.45 1543.79 1133.45 1550.25 Q1133.45 1556.71 1136.09 1560.4 Q1138.76 1564.07 1143.41 1564.07 Q1148.06 1564.07 1150.7 1560.4 Q1153.37 1556.71 1153.37 1550.25 M1133.45 1537.81 Q1135.29 1534.62 1138.09 1533.1 Q1140.93 1531.54 1144.84 1531.54 Q1151.33 1531.54 1155.38 1536.69 Q1159.45 1541.85 1159.45 1550.25 Q1159.45 1558.65 1155.38 1563.81 Q1151.33 1568.97 1144.84 1568.97 Q1140.93 1568.97 1138.09 1567.44 Q1135.29 1565.88 1133.45 1562.7 L1133.45 1568.04 L1127.56 1568.04 L1127.56 1518.52 L1133.45 1518.52 L1133.45 1537.81 Z" fill="#000000" fill-rule="nonzero" fill-opacity="1"></path><path clip-path="url(#clip120)" d="M1169.16 1532.4 L1175.01 1532.4 L1175.01 1568.04 L1169.16 1568.04 L1169.16 1532.4 M1169.16 1518.52 L1175.01 1518.52 L1175.01 1525.93 L1169.16 1525.93 L1169.16 1518.52 Z" fill="#000000" fill-rule="nonzero" fill-opacity="1"></path><path clip-path="url(#clip120)" d="M1193.06 1522.27 L1193.06 1532.4 L1205.12 1532.4 L1205.12 1536.95 L1193.06 1536.95 L1193.06 1556.3 Q1193.06 1560.66 1194.24 1561.9 Q1195.45 1563.14 1199.11 1563.14 L1205.12 1563.14 L1205.12 1568.04 L1199.11 1568.04 Q1192.33 1568.04 1189.75 1565.53 Q1187.17 1562.98 1187.17 1556.3 L1187.17 1536.95 L1182.88 1536.95 L1182.88 1532.4 L1187.17 1532.4 L1187.17 1522.27 L1193.06 1522.27 Z" fill="#000000" fill-rule="nonzero" fill-opacity="1"></path><path clip-path="url(#clip120)" d="M1235.55 1533.45 L1235.55 1538.98 Q1233.07 1537.71 1230.4 1537.07 Q1227.72 1536.44 1224.86 1536.44 Q1220.5 1536.44 1218.3 1537.77 Q1216.14 1539.11 1216.14 1541.79 Q1216.14 1543.82 1217.7 1545 Q1219.26 1546.15 1223.97 1547.2 L1225.97 1547.64 Q1232.21 1548.98 1234.82 1551.43 Q1237.46 1553.85 1237.46 1558.21 Q1237.46 1563.17 1233.51 1566.07 Q1229.6 1568.97 1222.72 1568.97 Q1219.86 1568.97 1216.74 1568.39 Q1213.65 1567.85 1210.22 1566.74 L1210.22 1560.69 Q1213.46 1562.38 1216.61 1563.24 Q1219.76 1564.07 1222.85 1564.07 Q1226.99 1564.07 1229.22 1562.66 Q1231.45 1561.23 1231.45 1558.65 Q1231.45 1556.27 1229.82 1554.99 Q1228.23 1553.72 1222.79 1552.54 L1220.75 1552.07 Q1215.31 1550.92 1212.89 1548.56 Q1210.47 1546.18 1210.47 1542.04 Q1210.47 1537.01 1214.04 1534.27 Q1217.6 1531.54 1224.16 1531.54 Q1227.4 1531.54 1230.27 1532.01 Q1233.13 1532.49 1235.55 1533.45 Z" fill="#000000" fill-rule="nonzero" fill-opacity="1"></path><path clip-path="url(#clip120)" d="M1290.23 1533.45 L1290.23 1538.98 Q1287.75 1537.71 1285.08 1537.07 Q1282.4 1536.44 1279.54 1536.44 Q1275.18 1536.44 1272.98 1537.77 Q1270.82 1539.11 1270.82 1541.79 Q1270.82 1543.82 1272.38 1545 Q1273.94 1546.15 1278.65 1547.2 L1280.65 1547.64 Q1286.89 1548.98 1289.5 1551.43 Q1292.14 1553.85 1292.14 1558.21 Q1292.14 1563.17 1288.2 1566.07 Q1284.28 1568.97 1277.41 1568.97 Q1274.54 1568.97 1271.42 1568.39 Q1268.34 1567.85 1264.9 1566.74 L1264.9 1560.69 Q1268.14 1562.38 1271.3 1563.24 Q1274.45 1564.07 1277.53 1564.07 Q1281.67 1564.07 1283.9 1562.66 Q1286.13 1561.23 1286.13 1558.65 Q1286.13 1556.27 1284.5 1554.99 Q1282.91 1553.72 1277.47 1552.54 L1275.43 1552.07 Q1269.99 1550.92 1267.57 1548.56 Q1265.15 1546.18 1265.15 1542.04 Q1265.15 1537.01 1268.72 1534.27 Q1272.28 1531.54 1278.84 1531.54 Q1282.09 1531.54 1284.95 1532.01 Q1287.81 1532.49 1290.23 1533.45 Z" fill="#000000" fill-rule="nonzero" fill-opacity="1"></path><path clip-path="url(#clip120)" d="M1317.67 1550.12 Q1310.57 1550.12 1307.83 1551.75 Q1305.1 1553.37 1305.1 1557.29 Q1305.1 1560.4 1307.13 1562.25 Q1309.2 1564.07 1312.74 1564.07 Q1317.61 1564.07 1320.53 1560.63 Q1323.49 1557.16 1323.49 1551.43 L1323.49 1550.12 L1317.67 1550.12 M1329.35 1547.71 L1329.35 1568.04 L1323.49 1568.04 L1323.49 1562.63 Q1321.49 1565.88 1318.5 1567.44 Q1315.51 1568.97 1311.18 1568.97 Q1305.7 1568.97 1302.46 1565.91 Q1299.24 1562.82 1299.24 1557.67 Q1299.24 1551.65 1303.25 1548.6 Q1307.29 1545.54 1315.28 1545.54 L1323.49 1545.54 L1323.49 1544.97 Q1323.49 1540.93 1320.82 1538.73 Q1318.18 1536.5 1313.37 1536.5 Q1310.32 1536.5 1307.42 1537.23 Q1304.52 1537.97 1301.85 1539.43 L1301.85 1534.02 Q1305.07 1532.78 1308.09 1532.17 Q1311.11 1531.54 1313.98 1531.54 Q1321.71 1531.54 1325.53 1535.55 Q1329.35 1539.56 1329.35 1547.71 Z" fill="#000000" fill-rule="nonzero" fill-opacity="1"></path><path clip-path="url(#clip120)" d="M1369.17 1539.24 Q1371.36 1535.29 1374.42 1533.41 Q1377.48 1531.54 1381.61 1531.54 Q1387.18 1531.54 1390.21 1535.45 Q1393.23 1539.33 1393.23 1546.53 L1393.23 1568.04 L1387.34 1568.04 L1387.34 1546.72 Q1387.34 1541.59 1385.53 1539.11 Q1383.71 1536.63 1379.99 1536.63 Q1375.44 1536.63 1372.8 1539.65 Q1370.15 1542.68 1370.15 1547.9 L1370.15 1568.04 L1364.27 1568.04 L1364.27 1546.72 Q1364.27 1541.56 1362.45 1539.11 Q1360.64 1536.63 1356.85 1536.63 Q1352.36 1536.63 1349.72 1539.68 Q1347.08 1542.71 1347.08 1547.9 L1347.08 1568.04 L1341.19 1568.04 L1341.19 1532.4 L1347.08 1532.4 L1347.08 1537.93 Q1349.08 1534.66 1351.89 1533.1 Q1354.69 1531.54 1358.54 1531.54 Q1362.42 1531.54 1365.13 1533.51 Q1367.86 1535.48 1369.17 1539.24 Z" fill="#000000" fill-rule="nonzero" fill-opacity="1"></path><path clip-path="url(#clip120)" d="M1410.58 1562.7 L1410.58 1581.6 L1404.69 1581.6 L1404.69 1532.4 L1410.58 1532.4 L1410.58 1537.81 Q1412.42 1534.62 1415.22 1533.1 Q1418.06 1531.54 1421.97 1531.54 Q1428.46 1531.54 1432.51 1536.69 Q1436.58 1541.85 1436.58 1550.25 Q1436.58 1558.65 1432.51 1563.81 Q1428.46 1568.97 1421.97 1568.97 Q1418.06 1568.97 1415.22 1567.44 Q1412.42 1565.88 1410.58 1562.7 M1430.5 1550.25 Q1430.5 1543.79 1427.83 1540.13 Q1425.19 1536.44 1420.54 1536.44 Q1415.89 1536.44 1413.22 1540.13 Q1410.58 1543.79 1410.58 1550.25 Q1410.58 1556.71 1413.22 1560.4 Q1415.89 1564.07 1420.54 1564.07 Q1425.19 1564.07 1427.83 1560.4 Q1430.5 1556.71 1430.5 1550.25 Z" fill="#000000" fill-rule="nonzero" fill-opacity="1"></path><path clip-path="url(#clip120)" d="M1446.29 1518.52 L1452.14 1518.52 L1452.14 1568.04 L1446.29 1568.04 L1446.29 1518.52 Z" fill="#000000" fill-rule="nonzero" fill-opacity="1"></path><path clip-path="url(#clip120)" d="M1494.89 1548.76 L1494.89 1551.62 L1467.96 1551.62 Q1468.35 1557.67 1471.59 1560.85 Q1474.87 1564 1480.7 1564 Q1484.07 1564 1487.22 1563.17 Q1490.4 1562.35 1493.52 1560.69 L1493.52 1566.23 Q1490.37 1567.57 1487.06 1568.27 Q1483.75 1568.97 1480.35 1568.97 Q1471.82 1568.97 1466.82 1564 Q1461.85 1559.04 1461.85 1550.57 Q1461.85 1541.82 1466.56 1536.69 Q1471.31 1531.54 1479.33 1531.54 Q1486.52 1531.54 1490.69 1536.18 Q1494.89 1540.8 1494.89 1548.76 M1489.03 1547.04 Q1488.97 1542.23 1486.33 1539.37 Q1483.72 1536.5 1479.39 1536.5 Q1474.49 1536.5 1471.53 1539.27 Q1468.6 1542.04 1468.15 1547.07 L1489.03 1547.04 Z" fill="#000000" fill-rule="nonzero" fill-opacity="1"></path><path clip-path="url(#clip120)" d="M1527.96 1537.81 L1527.96 1518.52 L1533.82 1518.52 L1533.82 1568.04 L1527.96 1568.04 L1527.96 1562.7 Q1526.11 1565.88 1523.28 1567.44 Q1520.48 1568.97 1516.53 1568.97 Q1510.07 1568.97 1506 1563.81 Q1501.96 1558.65 1501.96 1550.25 Q1501.96 1541.85 1506 1536.69 Q1510.07 1531.54 1516.53 1531.54 Q1520.48 1531.54 1523.28 1533.1 Q1526.11 1534.62 1527.96 1537.81 M1508 1550.25 Q1508 1556.71 1510.65 1560.4 Q1513.32 1564.07 1517.97 1564.07 Q1522.61 1564.07 1525.29 1560.4 Q1527.96 1556.71 1527.96 1550.25 Q1527.96 1543.79 1525.29 1540.13 Q1522.61 1536.44 1517.97 1536.44 Q1513.32 1536.44 1510.65 1540.13 Q1508 1543.79 1508 1550.25 Z" fill="#000000" fill-rule="nonzero" fill-opacity="1"></path><polyline clip-path="url(#clip122)" style="stroke:#000000; stroke-linecap:round; stroke-linejoin:round; stroke-width:2; stroke-opacity:0.1; fill:none" points="232.389,1384.24 2352.76,1384.24 "></polyline>
<polyline clip-path="url(#clip122)" style="stroke:#000000; stroke-linecap:round; stroke-linejoin:round; stroke-width:2; stroke-opacity:0.1; fill:none" points="232.389,1059.73 2352.76,1059.73 "></polyline>
<polyline clip-path="url(#clip122)" style="stroke:#000000; stroke-linecap:round; stroke-linejoin:round; stroke-width:2; stroke-opacity:0.1; fill:none" points="232.389,735.212 2352.76,735.212 "></polyline>
<polyline clip-path="url(#clip122)" style="stroke:#000000; stroke-linecap:round; stroke-linejoin:round; stroke-width:2; stroke-opacity:0.1; fill:none" points="232.389,410.699 2352.76,410.699 "></polyline>
<polyline clip-path="url(#clip122)" style="stroke:#000000; stroke-linecap:round; stroke-linejoin:round; stroke-width:2; stroke-opacity:0.1; fill:none" points="232.389,86.1857 2352.76,86.1857 "></polyline>
<polyline clip-path="url(#clip120)" style="stroke:#000000; stroke-linecap:round; stroke-linejoin:round; stroke-width:4; stroke-opacity:1; fill:none" points="232.389,1423.18 232.389,47.2441 "></polyline>
<polyline clip-path="url(#clip120)" style="stroke:#000000; stroke-linecap:round; stroke-linejoin:round; stroke-width:4; stroke-opacity:1; fill:none" points="232.389,1384.24 251.287,1384.24 "></polyline>
<polyline clip-path="url(#clip120)" style="stroke:#000000; stroke-linecap:round; stroke-linejoin:round; stroke-width:4; stroke-opacity:1; fill:none" points="232.389,1059.73 251.287,1059.73 "></polyline>
<polyline clip-path="url(#clip120)" style="stroke:#000000; stroke-linecap:round; stroke-linejoin:round; stroke-width:4; stroke-opacity:1; fill:none" points="232.389,735.212 251.287,735.212 "></polyline>
<polyline clip-path="url(#clip120)" style="stroke:#000000; stroke-linecap:round; stroke-linejoin:round; stroke-width:4; stroke-opacity:1; fill:none" points="232.389,410.699 251.287,410.699 "></polyline>
<polyline clip-path="url(#clip120)" style="stroke:#000000; stroke-linecap:round; stroke-linejoin:round; stroke-width:4; stroke-opacity:1; fill:none" points="232.389,86.1857 251.287,86.1857 "></polyline>
<path clip-path="url(#clip120)" d="M184.445 1370.04 Q180.834 1370.04 179.005 1373.6 Q177.2 1377.14 177.2 1384.27 Q177.2 1391.38 179.005 1394.94 Q180.834 1398.49 184.445 1398.49 Q188.079 1398.49 189.885 1394.94 Q191.713 1391.38 191.713 1384.27 Q191.713 1377.14 189.885 1373.6 Q188.079 1370.04 184.445 1370.04 M184.445 1366.33 Q190.255 1366.33 193.311 1370.94 Q196.389 1375.52 196.389 1384.27 Q196.389 1393 193.311 1397.61 Q190.255 1402.19 184.445 1402.19 Q178.635 1402.19 175.556 1397.61 Q172.501 1393 172.501 1384.27 Q172.501 1375.52 175.556 1370.94 Q178.635 1366.33 184.445 1366.33 Z" fill="#000000" fill-rule="nonzero" fill-opacity="1"></path><path clip-path="url(#clip120)" d="M149.306 1073.07 L165.626 1073.07 L165.626 1077.01 L143.681 1077.01 L143.681 1073.07 Q146.343 1070.32 150.927 1065.69 Q155.533 1061.03 156.714 1059.69 Q158.959 1057.17 159.839 1055.43 Q160.741 1053.67 160.741 1051.98 Q160.741 1049.23 158.797 1047.49 Q156.876 1045.76 153.774 1045.76 Q151.575 1045.76 149.121 1046.52 Q146.691 1047.28 143.913 1048.83 L143.913 1044.11 Q146.737 1042.98 149.191 1042.4 Q151.644 1041.82 153.681 1041.82 Q159.052 1041.82 162.246 1044.51 Q165.44 1047.19 165.44 1051.68 Q165.44 1053.81 164.63 1055.73 Q163.843 1057.63 161.737 1060.22 Q161.158 1060.89 158.056 1064.11 Q154.954 1067.31 149.306 1073.07 Z" fill="#000000" fill-rule="nonzero" fill-opacity="1"></path><path clip-path="url(#clip120)" d="M175.487 1042.45 L193.843 1042.45 L193.843 1046.38 L179.769 1046.38 L179.769 1054.85 Q180.788 1054.51 181.806 1054.34 Q182.825 1054.16 183.843 1054.16 Q189.63 1054.16 193.01 1057.33 Q196.389 1060.5 196.389 1065.92 Q196.389 1071.5 192.917 1074.6 Q189.445 1077.68 183.126 1077.68 Q180.95 1077.68 178.681 1077.31 Q176.436 1076.94 174.028 1076.19 L174.028 1071.5 Q176.112 1072.63 178.334 1073.19 Q180.556 1073.74 183.033 1073.74 Q187.038 1073.74 189.375 1071.63 Q191.713 1069.53 191.713 1065.92 Q191.713 1062.31 189.375 1060.2 Q187.038 1058.09 183.033 1058.09 Q181.158 1058.09 179.283 1058.51 Q177.431 1058.93 175.487 1059.81 L175.487 1042.45 Z" fill="#000000" fill-rule="nonzero" fill-opacity="1"></path><path clip-path="url(#clip120)" d="M144.329 717.932 L162.686 717.932 L162.686 721.867 L148.612 721.867 L148.612 730.339 Q149.63 729.992 150.649 729.83 Q151.667 729.645 152.686 729.645 Q158.473 729.645 161.852 732.816 Q165.232 735.987 165.232 741.404 Q165.232 746.983 161.76 750.085 Q158.288 753.163 151.968 753.163 Q149.792 753.163 147.524 752.793 Q145.279 752.423 142.871 751.682 L142.871 746.983 Q144.954 748.117 147.177 748.673 Q149.399 749.228 151.876 749.228 Q155.88 749.228 158.218 747.122 Q160.556 745.015 160.556 741.404 Q160.556 737.793 158.218 735.687 Q155.88 733.58 151.876 733.58 Q150.001 733.58 148.126 733.997 Q146.274 734.413 144.329 735.293 L144.329 717.932 Z" fill="#000000" fill-rule="nonzero" fill-opacity="1"></path><path clip-path="url(#clip120)" d="M184.445 721.011 Q180.834 721.011 179.005 724.575 Q177.2 728.117 177.2 735.247 Q177.2 742.353 179.005 745.918 Q180.834 749.46 184.445 749.46 Q188.079 749.46 189.885 745.918 Q191.713 742.353 191.713 735.247 Q191.713 728.117 189.885 724.575 Q188.079 721.011 184.445 721.011 M184.445 717.307 Q190.255 717.307 193.311 721.913 Q196.389 726.497 196.389 735.247 Q196.389 743.973 193.311 748.58 Q190.255 753.163 184.445 753.163 Q178.635 753.163 175.556 748.58 Q172.501 743.973 172.501 735.247 Q172.501 726.497 175.556 721.913 Q178.635 717.307 184.445 717.307 Z" fill="#000000" fill-rule="nonzero" fill-opacity="1"></path><path clip-path="url(#clip120)" d="M144.098 393.419 L166.32 393.419 L166.32 395.41 L153.774 427.979 L148.89 427.979 L160.695 397.354 L144.098 397.354 L144.098 393.419 Z" fill="#000000" fill-rule="nonzero" fill-opacity="1"></path><path clip-path="url(#clip120)" d="M175.487 393.419 L193.843 393.419 L193.843 397.354 L179.769 397.354 L179.769 405.826 Q180.788 405.479 181.806 405.317 Q182.825 405.132 183.843 405.132 Q189.63 405.132 193.01 408.303 Q196.389 411.474 196.389 416.891 Q196.389 422.47 192.917 425.571 Q189.445 428.65 183.126 428.65 Q180.95 428.65 178.681 428.28 Q176.436 427.909 174.028 427.169 L174.028 422.47 Q176.112 423.604 178.334 424.159 Q180.556 424.715 183.033 424.715 Q187.038 424.715 189.375 422.608 Q191.713 420.502 191.713 416.891 Q191.713 413.28 189.375 411.173 Q187.038 409.067 183.033 409.067 Q181.158 409.067 179.283 409.484 Q177.431 409.9 175.487 410.78 L175.487 393.419 Z" fill="#000000" fill-rule="nonzero" fill-opacity="1"></path><path clip-path="url(#clip120)" d="M114.931 99.5305 L122.57 99.5305 L122.57 73.1649 L114.26 74.8316 L114.26 70.5723 L122.524 68.9057 L127.2 68.9057 L127.2 99.5305 L134.839 99.5305 L134.839 103.466 L114.931 103.466 L114.931 99.5305 Z" fill="#000000" fill-rule="nonzero" fill-opacity="1"></path><path clip-path="url(#clip120)" d="M154.283 71.9844 Q150.672 71.9844 148.843 75.5492 Q147.038 79.0908 147.038 86.2204 Q147.038 93.3268 148.843 96.8916 Q150.672 100.433 154.283 100.433 Q157.917 100.433 159.723 96.8916 Q161.552 93.3268 161.552 86.2204 Q161.552 79.0908 159.723 75.5492 Q157.917 71.9844 154.283 71.9844 M154.283 68.2807 Q160.093 68.2807 163.149 72.8871 Q166.227 77.4704 166.227 86.2204 Q166.227 94.9472 163.149 99.5537 Q160.093 104.137 154.283 104.137 Q148.473 104.137 145.394 99.5537 Q142.339 94.9472 142.339 86.2204 Q142.339 77.4704 145.394 72.8871 Q148.473 68.2807 154.283 68.2807 Z" fill="#000000" fill-rule="nonzero" fill-opacity="1"></path><path clip-path="url(#clip120)" d="M184.445 71.9844 Q180.834 71.9844 179.005 75.5492 Q177.2 79.0908 177.2 86.2204 Q177.2 93.3268 179.005 96.8916 Q180.834 100.433 184.445 100.433 Q188.079 100.433 189.885 96.8916 Q191.713 93.3268 191.713 86.2204 Q191.713 79.0908 189.885 75.5492 Q188.079 71.9844 184.445 71.9844 M184.445 68.2807 Q190.255 68.2807 193.311 72.8871 Q196.389 77.4704 196.389 86.2204 Q196.389 94.9472 193.311 99.5537 Q190.255 104.137 184.445 104.137 Q178.635 104.137 175.556 99.5537 Q172.501 94.9472 172.501 86.2204 Q172.501 77.4704 175.556 72.8871 Q178.635 68.2807 184.445 68.2807 Z" fill="#000000" fill-rule="nonzero" fill-opacity="1"></path><path clip-path="url(#clip120)" d="M35.3266 1220.49 L35.3266 1229.75 L45.9574 1232.42 L45.9574 1223.1 L35.3266 1220.49 M17.2162 1225.26 L30.4251 1228.57 L30.4251 1219.28 L17.2162 1215.93 L17.2162 1210.84 L30.4251 1214.12 L30.4251 1204.19 L35.3266 1204.19 L35.3266 1215.36 L45.9574 1217.97 L45.9574 1207.85 L50.8271 1207.85 L50.8271 1219.21 L64.0042 1222.52 L64.0042 1227.62 L50.8271 1224.34 L50.8271 1233.66 L64.0042 1236.94 L64.0042 1242.07 L50.8271 1238.76 L50.8271 1248.78 L45.9574 1248.78 L45.9574 1237.58 L35.3266 1234.9 L35.3266 1245.15 L30.4251 1245.15 L30.4251 1233.66 L17.2162 1230.42 L17.2162 1225.26 Z" fill="#000000" fill-rule="nonzero" fill-opacity="1"></path><path clip-path="url(#clip120)" d="M29.4065 1149.6 L34.9447 1149.6 Q33.6716 1152.09 33.035 1154.76 Q32.3984 1157.43 32.3984 1160.3 Q32.3984 1164.66 33.7352 1166.85 Q35.072 1169.02 37.7456 1169.02 Q39.7826 1169.02 40.9603 1167.46 Q42.1061 1165.9 43.1565 1161.19 L43.6021 1159.18 Q44.9389 1152.95 47.3897 1150.34 Q49.8086 1147.69 54.1691 1147.69 Q59.1344 1147.69 62.0308 1151.64 Q64.9272 1155.56 64.9272 1162.43 Q64.9272 1165.3 64.3543 1168.41 Q63.8132 1171.5 62.6992 1174.94 L56.6518 1174.94 Q58.3387 1171.69 59.198 1168.54 Q60.0256 1165.39 60.0256 1162.3 Q60.0256 1158.17 58.6251 1155.94 Q57.1929 1153.71 54.6147 1153.71 Q52.2276 1153.71 50.9545 1155.33 Q49.6813 1156.92 48.5037 1162.37 L48.0262 1164.4 Q46.8804 1169.85 44.5251 1172.27 Q42.138 1174.68 38.0002 1174.68 Q32.9713 1174.68 30.2341 1171.12 Q27.4968 1167.55 27.4968 1161 Q27.4968 1157.75 27.9743 1154.89 Q28.4517 1152.02 29.4065 1149.6 Z" fill="#000000" fill-rule="nonzero" fill-opacity="1"></path><path clip-path="url(#clip120)" d="M46.0847 1122.17 Q46.0847 1129.27 47.7079 1132 Q49.3312 1134.74 53.2461 1134.74 Q56.3653 1134.74 58.2114 1132.7 Q60.0256 1130.63 60.0256 1127.1 Q60.0256 1122.23 56.5881 1119.3 Q53.1188 1116.34 47.3897 1116.34 L46.0847 1116.34 L46.0847 1122.17 M43.6657 1110.49 L64.0042 1110.49 L64.0042 1116.34 L58.5933 1116.34 Q61.8398 1118.35 63.3994 1121.34 Q64.9272 1124.33 64.9272 1128.66 Q64.9272 1134.13 61.8716 1137.38 Q58.7843 1140.6 53.6281 1140.6 Q47.6125 1140.6 44.5569 1136.59 Q41.5014 1132.54 41.5014 1124.55 L41.5014 1116.34 L40.9285 1116.34 Q36.8862 1116.34 34.6901 1119.02 Q32.4621 1121.66 32.4621 1126.46 Q32.4621 1129.52 33.1941 1132.42 Q33.9262 1135.31 35.3903 1137.99 L29.9795 1137.99 Q28.7381 1134.77 28.1334 1131.75 Q27.4968 1128.72 27.4968 1125.86 Q27.4968 1118.13 31.5072 1114.31 Q35.5176 1110.49 43.6657 1110.49 Z" fill="#000000" fill-rule="nonzero" fill-opacity="1"></path><path clip-path="url(#clip120)" d="M35.1993 1070.67 Q31.2526 1068.47 29.3747 1065.42 Q27.4968 1062.36 27.4968 1058.22 Q27.4968 1052.65 31.4117 1049.63 Q35.2948 1046.61 42.4881 1046.61 L64.0042 1046.61 L64.0042 1052.49 L42.679 1052.49 Q37.5546 1052.49 35.072 1054.31 Q32.5894 1056.12 32.5894 1059.85 Q32.5894 1064.4 35.6131 1067.04 Q38.6368 1069.68 43.8567 1069.68 L64.0042 1069.68 L64.0042 1075.57 L42.679 1075.57 Q37.5228 1075.57 35.072 1077.38 Q32.5894 1079.2 32.5894 1082.99 Q32.5894 1087.47 35.6449 1090.12 Q38.6686 1092.76 43.8567 1092.76 L64.0042 1092.76 L64.0042 1098.65 L28.3562 1098.65 L28.3562 1092.76 L33.8944 1092.76 Q30.616 1090.75 29.0564 1087.95 Q27.4968 1085.15 27.4968 1081.3 Q27.4968 1077.42 29.4702 1074.71 Q31.4436 1071.97 35.1993 1070.67 Z" fill="#000000" fill-rule="nonzero" fill-opacity="1"></path><path clip-path="url(#clip120)" d="M58.657 1029.26 L77.5631 1029.26 L77.5631 1035.15 L28.3562 1035.15 L28.3562 1029.26 L33.7671 1029.26 Q30.5842 1027.41 29.0564 1024.61 Q27.4968 1021.78 27.4968 1017.87 Q27.4968 1011.37 32.6531 1007.33 Q37.8093 1003.26 46.212 1003.26 Q54.6147 1003.26 59.771 1007.33 Q64.9272 1011.37 64.9272 1017.87 Q64.9272 1021.78 63.3994 1024.61 Q61.8398 1027.41 58.657 1029.26 M46.212 1009.34 Q39.7508 1009.34 36.0905 1012.01 Q32.3984 1014.65 32.3984 1019.3 Q32.3984 1023.94 36.0905 1026.62 Q39.7508 1029.26 46.212 1029.26 Q52.6732 1029.26 56.3653 1026.62 Q60.0256 1023.94 60.0256 1019.3 Q60.0256 1014.65 56.3653 1012.01 Q52.6732 1009.34 46.212 1009.34 Z" fill="#000000" fill-rule="nonzero" fill-opacity="1"></path><path clip-path="url(#clip120)" d="M14.479 993.548 L14.479 987.692 L64.0042 987.692 L64.0042 993.548 L14.479 993.548 Z" fill="#000000" fill-rule="nonzero" fill-opacity="1"></path><path clip-path="url(#clip120)" d="M44.7161 944.946 L47.5806 944.946 L47.5806 971.873 Q53.6281 971.491 56.8109 968.245 Q59.9619 964.966 59.9619 959.142 Q59.9619 955.768 59.1344 952.617 Q58.3069 949.434 56.6518 946.315 L62.1899 946.315 Q63.5267 949.466 64.227 952.776 Q64.9272 956.086 64.9272 959.492 Q64.9272 968.022 59.9619 973.019 Q54.9967 977.984 46.5303 977.984 Q37.7774 977.984 32.6531 973.273 Q27.4968 968.531 27.4968 960.51 Q27.4968 953.317 32.1438 949.147 Q36.7589 944.946 44.7161 944.946 M42.9973 950.803 Q38.1912 950.866 35.3266 953.508 Q32.4621 956.118 32.4621 960.447 Q32.4621 965.348 35.2312 968.308 Q38.0002 971.236 43.0292 971.682 L42.9973 950.803 Z" fill="#000000" fill-rule="nonzero" fill-opacity="1"></path><path clip-path="url(#clip120)" d="M29.4065 912.608 L34.9447 912.608 Q33.6716 915.091 33.035 917.765 Q32.3984 920.438 32.3984 923.303 Q32.3984 927.663 33.7352 929.859 Q35.072 932.024 37.7456 932.024 Q39.7826 932.024 40.9603 930.464 Q42.1061 928.905 43.1565 924.194 L43.6021 922.189 Q44.9389 915.95 47.3897 913.34 Q49.8086 910.699 54.1691 910.699 Q59.1344 910.699 62.0308 914.645 Q64.9272 918.56 64.9272 925.435 Q64.9272 928.3 64.3543 931.419 Q63.8132 934.506 62.6992 937.944 L56.6518 937.944 Q58.3387 934.697 59.198 931.546 Q60.0256 928.395 60.0256 925.308 Q60.0256 921.17 58.6251 918.942 Q57.1929 916.714 54.6147 916.714 Q52.2276 916.714 50.9545 918.337 Q49.6813 919.929 48.5037 925.372 L48.0262 927.409 Q46.8804 932.851 44.5251 935.27 Q42.138 937.689 38.0002 937.689 Q32.9713 937.689 30.2341 934.124 Q27.4968 930.56 27.4968 924.003 Q27.4968 920.756 27.9743 917.892 Q28.4517 915.027 29.4065 912.608 Z" fill="#000000" fill-rule="nonzero" fill-opacity="1"></path><path clip-path="url(#clip120)" d="M28.3562 884.058 L28.3562 878.202 L56.1743 870.881 L28.3562 863.592 L28.3562 856.686 L56.1743 849.365 L28.3562 842.076 L28.3562 836.22 L64.0042 845.546 L64.0042 852.452 L34.7856 860.123 L64.0042 867.826 L64.0042 874.732 L28.3562 884.058 Z" fill="#000000" fill-rule="nonzero" fill-opacity="1"></path><path clip-path="url(#clip120)" d="M28.3562 827.34 L28.3562 821.483 L64.0042 821.483 L64.0042 827.34 L28.3562 827.34 M14.479 827.34 L14.479 821.483 L21.895 821.483 L21.895 827.34 L14.479 827.34 Z" fill="#000000" fill-rule="nonzero" fill-opacity="1"></path><path clip-path="url(#clip120)" d="M18.2347 803.436 L28.3562 803.436 L28.3562 791.373 L32.9077 791.373 L32.9077 803.436 L52.2594 803.436 Q56.6199 803.436 57.8613 802.259 Q59.1026 801.049 59.1026 797.389 L59.1026 791.373 L64.0042 791.373 L64.0042 797.389 Q64.0042 804.168 61.4897 806.747 Q58.9434 809.325 52.2594 809.325 L32.9077 809.325 L32.9077 813.622 L28.3562 813.622 L28.3562 809.325 L18.2347 809.325 L18.2347 803.436 Z" fill="#000000" fill-rule="nonzero" fill-opacity="1"></path><path clip-path="url(#clip120)" d="M42.4881 754.039 L64.0042 754.039 L64.0042 759.895 L42.679 759.895 Q37.6183 759.895 35.1038 761.868 Q32.5894 763.842 32.5894 767.788 Q32.5894 772.531 35.6131 775.268 Q38.6368 778.005 43.8567 778.005 L64.0042 778.005 L64.0042 783.894 L14.479 783.894 L14.479 778.005 L33.8944 778.005 Q30.6797 775.905 29.0883 773.072 Q27.4968 770.207 27.4968 766.484 Q27.4968 760.341 31.3163 757.19 Q35.1038 754.039 42.4881 754.039 Z" fill="#000000" fill-rule="nonzero" fill-opacity="1"></path><path clip-path="url(#clip120)" d="M28.3562 724.183 L28.3562 696.365 L33.7034 696.365 L59.3254 718.391 L59.3254 696.365 L64.0042 696.365 L64.0042 724.979 L58.657 724.979 L33.035 702.954 L33.035 724.183 L28.3562 724.183 Z" fill="#000000" fill-rule="nonzero" fill-opacity="1"></path><path clip-path="url(#clip120)" d="M44.7161 656.93 L47.5806 656.93 L47.5806 683.857 Q53.6281 683.475 56.8109 680.228 Q59.9619 676.95 59.9619 671.125 Q59.9619 667.751 59.1344 664.6 Q58.3069 661.418 56.6518 658.298 L62.1899 658.298 Q63.5267 661.449 64.227 664.76 Q64.9272 668.07 64.9272 671.475 Q64.9272 680.005 59.9619 685.002 Q54.9967 689.968 46.5303 689.968 Q37.7774 689.968 32.6531 685.257 Q27.4968 680.515 27.4968 672.494 Q27.4968 665.301 32.1438 661.131 Q36.7589 656.93 44.7161 656.93 M42.9973 662.786 Q38.1912 662.85 35.3266 665.492 Q32.4621 668.102 32.4621 672.43 Q32.4621 677.332 35.2312 680.292 Q38.0002 683.22 43.0292 683.666 L42.9973 662.786 Z" fill="#000000" fill-rule="nonzero" fill-opacity="1"></path><path clip-path="url(#clip120)" d="M33.8307 626.661 Q33.2578 627.647 33.0032 628.825 Q32.7167 629.971 32.7167 631.371 Q32.7167 636.337 35.9632 639.01 Q39.1779 641.652 45.2253 641.652 L64.0042 641.652 L64.0042 647.54 L28.3562 647.54 L28.3562 641.652 L33.8944 641.652 Q30.6479 639.806 29.0883 636.846 Q27.4968 633.886 27.4968 629.653 Q27.4968 629.048 27.5923 628.316 Q27.656 627.584 27.8151 626.693 L33.8307 626.661 Z" fill="#000000" fill-rule="nonzero" fill-opacity="1"></path><path clip-path="url(#clip120)" d="M32.4621 608.137 Q32.4621 612.847 36.1542 615.584 Q39.8145 618.322 46.212 618.322 Q52.6095 618.322 56.3017 615.616 Q59.9619 612.879 59.9619 608.137 Q59.9619 603.458 56.2698 600.721 Q52.5777 597.983 46.212 597.983 Q39.8781 597.983 36.186 600.721 Q32.4621 603.458 32.4621 608.137 M27.4968 608.137 Q27.4968 600.498 32.4621 596.137 Q37.4273 591.777 46.212 591.777 Q54.9649 591.777 59.9619 596.137 Q64.9272 600.498 64.9272 608.137 Q64.9272 615.807 59.9619 620.168 Q54.9649 624.496 46.212 624.496 Q37.4273 624.496 32.4621 620.168 Q27.4968 615.807 27.4968 608.137 Z" fill="#000000" fill-rule="nonzero" fill-opacity="1"></path><path clip-path="url(#clip120)" d="M58.657 555.683 L77.5631 555.683 L77.5631 561.571 L28.3562 561.571 L28.3562 555.683 L33.7671 555.683 Q30.5842 553.837 29.0564 551.036 Q27.4968 548.203 27.4968 544.289 Q27.4968 537.795 32.6531 533.753 Q37.8093 529.679 46.212 529.679 Q54.6147 529.679 59.771 533.753 Q64.9272 537.795 64.9272 544.289 Q64.9272 548.203 63.3994 551.036 Q61.8398 553.837 58.657 555.683 M46.212 535.758 Q39.7508 535.758 36.0905 538.432 Q32.3984 541.074 32.3984 545.721 Q32.3984 550.368 36.0905 553.041 Q39.7508 555.683 46.212 555.683 Q52.6732 555.683 56.3653 553.041 Q60.0256 550.368 60.0256 545.721 Q60.0256 541.074 56.3653 538.432 Q52.6732 535.758 46.212 535.758 Z" fill="#000000" fill-rule="nonzero" fill-opacity="1"></path><path clip-path="url(#clip120)" d="M33.8307 499.315 Q33.2578 500.301 33.0032 501.479 Q32.7167 502.625 32.7167 504.025 Q32.7167 508.991 35.9632 511.664 Q39.1779 514.306 45.2253 514.306 L64.0042 514.306 L64.0042 520.194 L28.3562 520.194 L28.3562 514.306 L33.8944 514.306 Q30.6479 512.46 29.0883 509.5 Q27.4968 506.54 27.4968 502.307 Q27.4968 501.702 27.5923 500.97 Q27.656 500.238 27.8151 499.347 L33.8307 499.315 Z" fill="#000000" fill-rule="nonzero" fill-opacity="1"></path><path clip-path="url(#clip120)" d="M32.4621 480.791 Q32.4621 485.501 36.1542 488.238 Q39.8145 490.976 46.212 490.976 Q52.6095 490.976 56.3017 488.27 Q59.9619 485.533 59.9619 480.791 Q59.9619 476.112 56.2698 473.375 Q52.5777 470.637 46.212 470.637 Q39.8781 470.637 36.186 473.375 Q32.4621 476.112 32.4621 480.791 M27.4968 480.791 Q27.4968 473.152 32.4621 468.791 Q37.4273 464.431 46.212 464.431 Q54.9649 464.431 59.9619 468.791 Q64.9272 473.152 64.9272 480.791 Q64.9272 488.461 59.9619 492.822 Q54.9649 497.15 46.212 497.15 Q37.4273 497.15 32.4621 492.822 Q27.4968 488.461 27.4968 480.791 Z" fill="#000000" fill-rule="nonzero" fill-opacity="1"></path><path clip-path="url(#clip120)" d="M46.212 429.133 Q39.7508 429.133 36.0905 431.806 Q32.3984 434.448 32.3984 439.095 Q32.3984 443.742 36.0905 446.416 Q39.7508 449.058 46.212 449.058 Q52.6732 449.058 56.3653 446.416 Q60.0256 443.742 60.0256 439.095 Q60.0256 434.448 56.3653 431.806 Q52.6732 429.133 46.212 429.133 M33.7671 449.058 Q30.5842 447.211 29.0564 444.411 Q27.4968 441.578 27.4968 437.663 Q27.4968 431.17 32.6531 427.128 Q37.8093 423.054 46.212 423.054 Q54.6147 423.054 59.771 427.128 Q64.9272 431.17 64.9272 437.663 Q64.9272 441.578 63.3994 444.411 Q61.8398 447.211 58.657 449.058 L64.0042 449.058 L64.0042 454.946 L14.479 454.946 L14.479 449.058 L33.7671 449.058 Z" fill="#000000" fill-rule="nonzero" fill-opacity="1"></path><path clip-path="url(#clip120)" d="M46.0847 397.145 Q46.0847 404.243 47.7079 406.98 Q49.3312 409.717 53.2461 409.717 Q56.3653 409.717 58.2114 407.68 Q60.0256 405.612 60.0256 402.079 Q60.0256 397.209 56.5881 394.281 Q53.1188 391.321 47.3897 391.321 L46.0847 391.321 L46.0847 397.145 M43.6657 385.464 L64.0042 385.464 L64.0042 391.321 L58.5933 391.321 Q61.8398 393.326 63.3994 396.318 Q64.9272 399.31 64.9272 403.638 Q64.9272 409.113 61.8716 412.359 Q58.7843 415.574 53.6281 415.574 Q47.6125 415.574 44.5569 411.564 Q41.5014 407.521 41.5014 399.532 L41.5014 391.321 L40.9285 391.321 Q36.8862 391.321 34.6901 393.994 Q32.4621 396.636 32.4621 401.442 Q32.4621 404.498 33.1941 407.394 Q33.9262 410.29 35.3903 412.964 L29.9795 412.964 Q28.7381 409.749 28.1334 406.726 Q27.4968 403.702 27.4968 400.837 Q27.4968 393.103 31.5072 389.284 Q35.5176 385.464 43.6657 385.464 Z" fill="#000000" fill-rule="nonzero" fill-opacity="1"></path><path clip-path="url(#clip120)" d="M46.212 347.811 Q39.7508 347.811 36.0905 350.485 Q32.3984 353.126 32.3984 357.773 Q32.3984 362.42 36.0905 365.094 Q39.7508 367.736 46.212 367.736 Q52.6732 367.736 56.3653 365.094 Q60.0256 362.42 60.0256 357.773 Q60.0256 353.126 56.3653 350.485 Q52.6732 347.811 46.212 347.811 M33.7671 367.736 Q30.5842 365.89 29.0564 363.089 Q27.4968 360.256 27.4968 356.341 Q27.4968 349.848 32.6531 345.806 Q37.8093 341.732 46.212 341.732 Q54.6147 341.732 59.771 345.806 Q64.9272 349.848 64.9272 356.341 Q64.9272 360.256 63.3994 363.089 Q61.8398 365.89 58.657 367.736 L64.0042 367.736 L64.0042 373.624 L14.479 373.624 L14.479 367.736 L33.7671 367.736 Z" fill="#000000" fill-rule="nonzero" fill-opacity="1"></path><path clip-path="url(#clip120)" d="M28.3562 332.024 L28.3562 326.168 L64.0042 326.168 L64.0042 332.024 L28.3562 332.024 M14.479 332.024 L14.479 326.168 L21.895 326.168 L21.895 332.024 L14.479 332.024 Z" fill="#000000" fill-rule="nonzero" fill-opacity="1"></path><path clip-path="url(#clip120)" d="M14.479 313.914 L14.479 308.057 L64.0042 308.057 L64.0042 313.914 L14.479 313.914 Z" fill="#000000" fill-rule="nonzero" fill-opacity="1"></path><path clip-path="url(#clip120)" d="M28.3562 295.803 L28.3562 289.947 L64.0042 289.947 L64.0042 295.803 L28.3562 295.803 M14.479 295.803 L14.479 289.947 L21.895 289.947 L21.895 295.803 L14.479 295.803 Z" fill="#000000" fill-rule="nonzero" fill-opacity="1"></path><path clip-path="url(#clip120)" d="M18.2347 271.9 L28.3562 271.9 L28.3562 259.837 L32.9077 259.837 L32.9077 271.9 L52.2594 271.9 Q56.6199 271.9 57.8613 270.722 Q59.1026 269.513 59.1026 265.853 L59.1026 259.837 L64.0042 259.837 L64.0042 265.853 Q64.0042 272.632 61.4897 275.21 Q58.9434 277.788 52.2594 277.788 L32.9077 277.788 L32.9077 282.085 L28.3562 282.085 L28.3562 277.788 L18.2347 277.788 L18.2347 271.9 Z" fill="#000000" fill-rule="nonzero" fill-opacity="1"></path><path clip-path="url(#clip120)" d="M67.3143 237.302 Q73.68 239.785 75.6216 242.14 Q77.5631 244.496 77.5631 248.442 L77.5631 253.121 L72.6615 253.121 L72.6615 249.684 Q72.6615 247.265 71.5157 245.928 Q70.3699 244.591 66.1048 242.968 L63.4312 241.917 L28.3562 256.336 L28.3562 250.129 L56.238 238.989 L28.3562 227.849 L28.3562 221.643 L67.3143 237.302 Z" fill="#000000" fill-rule="nonzero" fill-opacity="1"></path><polyline clip-path="url(#clip122)" style="stroke:#009af9; stroke-linecap:round; stroke-linejoin:round; stroke-width:4; stroke-opacity:1; fill:none" points="292.4,994.822 625.791,125.127 959.182,86.1857 1292.57,86.1857 1625.96,86.1857 1959.35,86.1857 2292.75,86.1857 "></polyline>
<circle clip-path="url(#clip122)" cx="292.4" cy="994.822" r="14.4" fill="#009af9" fill-rule="evenodd" fill-opacity="1" stroke="#000000" stroke-opacity="1" stroke-width="3.2"></circle>
<circle clip-path="url(#clip122)" cx="625.791" cy="125.127" r="14.4" fill="#009af9" fill-rule="evenodd" fill-opacity="1" stroke="#000000" stroke-opacity="1" stroke-width="3.2"></circle>
<circle clip-path="url(#clip122)" cx="959.182" cy="86.1857" r="14.4" fill="#009af9" fill-rule="evenodd" fill-opacity="1" stroke="#000000" stroke-opacity="1" stroke-width="3.2"></circle>
<circle clip-path="url(#clip122)" cx="1292.57" cy="86.1857" r="14.4" fill="#009af9" fill-rule="evenodd" fill-opacity="1" stroke="#000000" stroke-opacity="1" stroke-width="3.2"></circle>
<circle clip-path="url(#clip122)" cx="1625.96" cy="86.1857" r="14.4" fill="#009af9" fill-rule="evenodd" fill-opacity="1" stroke="#000000" stroke-opacity="1" stroke-width="3.2"></circle>
<circle clip-path="url(#clip122)" cx="1959.35" cy="86.1857" r="14.4" fill="#009af9" fill-rule="evenodd" fill-opacity="1" stroke="#000000" stroke-opacity="1" stroke-width="3.2"></circle>
<circle clip-path="url(#clip122)" cx="2292.75" cy="86.1857" r="14.4" fill="#009af9" fill-rule="evenodd" fill-opacity="1" stroke="#000000" stroke-opacity="1" stroke-width="3.2"></circle>
<polyline clip-path="url(#clip122)" style="stroke:#e26f46; stroke-linecap:round; stroke-linejoin:round; stroke-width:4; stroke-opacity:1; fill:none" points="292.4,1384.24 625.791,1384.24 959.182,1384.24 1292.57,371.757 1625.96,99.1662 1959.35,86.1857 2292.75,86.1857 "></polyline>
<circle clip-path="url(#clip122)" cx="292.4" cy="1384.24" r="14.4" fill="#e26f46" fill-rule="evenodd" fill-opacity="1" stroke="#000000" stroke-opacity="1" stroke-width="3.2"></circle>
<circle clip-path="url(#clip122)" cx="625.791" cy="1384.24" r="14.4" fill="#e26f46" fill-rule="evenodd" fill-opacity="1" stroke="#000000" stroke-opacity="1" stroke-width="3.2"></circle>
<circle clip-path="url(#clip122)" cx="959.182" cy="1384.24" r="14.4" fill="#e26f46" fill-rule="evenodd" fill-opacity="1" stroke="#000000" stroke-opacity="1" stroke-width="3.2"></circle>
<circle clip-path="url(#clip122)" cx="1292.57" cy="371.757" r="14.4" fill="#e26f46" fill-rule="evenodd" fill-opacity="1" stroke="#000000" stroke-opacity="1" stroke-width="3.2"></circle>
<circle clip-path="url(#clip122)" cx="1625.96" cy="99.1662" r="14.4" fill="#e26f46" fill-rule="evenodd" fill-opacity="1" stroke="#000000" stroke-opacity="1" stroke-width="3.2"></circle>
<circle clip-path="url(#clip122)" cx="1959.35" cy="86.1857" r="14.4" fill="#e26f46" fill-rule="evenodd" fill-opacity="1" stroke="#000000" stroke-opacity="1" stroke-width="3.2"></circle>
<circle clip-path="url(#clip122)" cx="2292.75" cy="86.1857" r="14.4" fill="#e26f46" fill-rule="evenodd" fill-opacity="1" stroke="#000000" stroke-opacity="1" stroke-width="3.2"></circle>
<path clip-path="url(#clip120)" d="M1454.3 1377.32 L2282.08 1377.32 L2282.08 1221.8 L1454.3 1221.8  Z" fill="#ffffff" fill-rule="evenodd" fill-opacity="1"></path>
<polyline clip-path="url(#clip120)" style="stroke:#000000; stroke-linecap:round; stroke-linejoin:round; stroke-width:4; stroke-opacity:1; fill:none" points="1454.3,1377.32 2282.08,1377.32 2282.08,1221.8 1454.3,1221.8 1454.3,1377.32 "></polyline>
<polyline clip-path="url(#clip120)" style="stroke:#009af9; stroke-linecap:round; stroke-linejoin:round; stroke-width:4; stroke-opacity:1; fill:none" points="1477.86,1273.64 1619.22,1273.64 "></polyline>
<circle clip-path="url(#clip120)" cx="1548.54" cy="1273.64" r="19.633" fill="#009af9" fill-rule="evenodd" fill-opacity="1" stroke="#000000" stroke-opacity="1" stroke-width="4.55111"></circle>
<path clip-path="url(#clip120)" d="M1648.4 1286.98 L1664.72 1286.98 L1664.72 1290.92 L1642.78 1290.92 L1642.78 1286.98 Q1645.44 1284.23 1650.03 1279.6 Q1654.63 1274.94 1655.81 1273.6 Q1658.06 1271.08 1658.94 1269.34 Q1659.84 1267.58 1659.84 1265.89 Q1659.84 1263.14 1657.9 1261.4 Q1655.97 1259.67 1652.87 1259.67 Q1650.67 1259.67 1648.22 1260.43 Q1645.79 1261.19 1643.01 1262.74 L1643.01 1258.02 Q1645.84 1256.89 1648.29 1256.31 Q1650.74 1255.73 1652.78 1255.73 Q1658.15 1255.73 1661.34 1258.42 Q1664.54 1261.1 1664.54 1265.59 Q1664.54 1267.72 1663.73 1269.64 Q1662.94 1271.54 1660.84 1274.13 Q1660.26 1274.8 1657.15 1278.02 Q1654.05 1281.22 1648.4 1286.98 Z" fill="#000000" fill-rule="nonzero" fill-opacity="1"></path><path clip-path="url(#clip120)" d="M1702.13 1254.9 L1702.13 1258.44 L1698.06 1258.44 Q1695.77 1258.44 1694.86 1259.36 Q1693.98 1260.29 1693.98 1262.7 L1693.98 1264.99 L1701 1264.99 L1701 1268.3 L1693.98 1268.3 L1693.98 1290.92 L1689.7 1290.92 L1689.7 1268.3 L1685.63 1268.3 L1685.63 1264.99 L1689.7 1264.99 L1689.7 1263.18 Q1689.7 1258.86 1691.71 1256.89 Q1693.73 1254.9 1698.1 1254.9 L1702.13 1254.9 Z" fill="#000000" fill-rule="nonzero" fill-opacity="1"></path><path clip-path="url(#clip120)" d="M1727.87 1276.89 L1727.87 1278.97 L1708.29 1278.97 Q1708.57 1283.37 1710.93 1285.68 Q1713.31 1287.98 1717.55 1287.98 Q1720 1287.98 1722.29 1287.37 Q1724.61 1286.77 1726.88 1285.57 L1726.88 1289.6 Q1724.59 1290.57 1722.18 1291.08 Q1719.77 1291.59 1717.29 1291.59 Q1711.09 1291.59 1707.46 1287.98 Q1703.84 1284.36 1703.84 1278.21 Q1703.84 1271.84 1707.27 1268.11 Q1710.72 1264.36 1716.55 1264.36 Q1721.78 1264.36 1724.82 1267.74 Q1727.87 1271.1 1727.87 1276.89 M1723.61 1275.64 Q1723.57 1272.14 1721.65 1270.06 Q1719.75 1267.98 1716.6 1267.98 Q1713.03 1267.98 1710.88 1269.99 Q1708.75 1272 1708.43 1275.66 L1723.61 1275.64 Z" fill="#000000" fill-rule="nonzero" fill-opacity="1"></path><path clip-path="url(#clip120)" d="M1746.65 1277.88 Q1741.48 1277.88 1739.49 1279.06 Q1737.5 1280.24 1737.5 1283.09 Q1737.5 1285.36 1738.98 1286.7 Q1740.49 1288.02 1743.06 1288.02 Q1746.6 1288.02 1748.73 1285.52 Q1750.88 1283 1750.88 1278.83 L1750.88 1277.88 L1746.65 1277.88 M1755.14 1276.12 L1755.14 1290.92 L1750.88 1290.92 L1750.88 1286.98 Q1749.42 1289.34 1747.25 1290.48 Q1745.07 1291.59 1741.92 1291.59 Q1737.94 1291.59 1735.58 1289.36 Q1733.24 1287.12 1733.24 1283.37 Q1733.24 1278.99 1736.16 1276.77 Q1739.1 1274.55 1744.91 1274.55 L1750.88 1274.55 L1750.88 1274.13 Q1750.88 1271.19 1748.94 1269.6 Q1747.02 1267.98 1743.52 1267.98 Q1741.3 1267.98 1739.19 1268.51 Q1737.09 1269.04 1735.14 1270.11 L1735.14 1266.17 Q1737.48 1265.27 1739.68 1264.83 Q1741.88 1264.36 1743.96 1264.36 Q1749.58 1264.36 1752.36 1267.28 Q1755.14 1270.2 1755.14 1276.12 Z" fill="#000000" fill-rule="nonzero" fill-opacity="1"></path><path clip-path="url(#clip120)" d="M1768.13 1257.63 L1768.13 1264.99 L1776.9 1264.99 L1776.9 1268.3 L1768.13 1268.3 L1768.13 1282.37 Q1768.13 1285.54 1768.98 1286.45 Q1769.86 1287.35 1772.52 1287.35 L1776.9 1287.35 L1776.9 1290.92 L1772.52 1290.92 Q1767.59 1290.92 1765.72 1289.09 Q1763.84 1287.23 1763.84 1282.37 L1763.84 1268.3 L1760.72 1268.3 L1760.72 1264.99 L1763.84 1264.99 L1763.84 1257.63 L1768.13 1257.63 Z" fill="#000000" fill-rule="nonzero" fill-opacity="1"></path><path clip-path="url(#clip120)" d="M1782.06 1280.68 L1782.06 1264.99 L1786.32 1264.99 L1786.32 1280.52 Q1786.32 1284.2 1787.76 1286.05 Q1789.19 1287.88 1792.06 1287.88 Q1795.51 1287.88 1797.5 1285.68 Q1799.52 1283.48 1799.52 1279.69 L1799.52 1264.99 L1803.77 1264.99 L1803.77 1290.92 L1799.52 1290.92 L1799.52 1286.93 Q1797.96 1289.29 1795.9 1290.45 Q1793.87 1291.59 1791.16 1291.59 Q1786.69 1291.59 1784.38 1288.81 Q1782.06 1286.03 1782.06 1280.68 M1792.78 1264.36 L1792.78 1264.36 Z" fill="#000000" fill-rule="nonzero" fill-opacity="1"></path><path clip-path="url(#clip120)" d="M1827.57 1268.97 Q1826.85 1268.55 1826 1268.37 Q1825.16 1268.16 1824.14 1268.16 Q1820.53 1268.16 1818.59 1270.52 Q1816.67 1272.86 1816.67 1277.26 L1816.67 1290.92 L1812.39 1290.92 L1812.39 1264.99 L1816.67 1264.99 L1816.67 1269.02 Q1818.01 1266.66 1820.16 1265.52 Q1822.32 1264.36 1825.39 1264.36 Q1825.83 1264.36 1826.37 1264.43 Q1826.9 1264.48 1827.55 1264.6 L1827.57 1268.97 Z" fill="#000000" fill-rule="nonzero" fill-opacity="1"></path><path clip-path="url(#clip120)" d="M1853.17 1276.89 L1853.17 1278.97 L1833.59 1278.97 Q1833.87 1283.37 1836.23 1285.68 Q1838.61 1287.98 1842.85 1287.98 Q1845.3 1287.98 1847.59 1287.37 Q1849.91 1286.77 1852.18 1285.57 L1852.18 1289.6 Q1849.89 1290.57 1847.48 1291.08 Q1845.07 1291.59 1842.59 1291.59 Q1836.39 1291.59 1832.76 1287.98 Q1829.14 1284.36 1829.14 1278.21 Q1829.14 1271.84 1832.57 1268.11 Q1836.02 1264.36 1841.85 1264.36 Q1847.08 1264.36 1850.12 1267.74 Q1853.17 1271.1 1853.17 1276.89 M1848.91 1275.64 Q1848.87 1272.14 1846.95 1270.06 Q1845.05 1267.98 1841.9 1267.98 Q1838.33 1267.98 1836.18 1269.99 Q1834.05 1272 1833.73 1275.66 L1848.91 1275.64 Z" fill="#000000" fill-rule="nonzero" fill-opacity="1"></path><path clip-path="url(#clip120)" d="M1876.69 1265.75 L1876.69 1269.78 Q1874.89 1268.86 1872.94 1268.39 Q1871 1267.93 1868.91 1267.93 Q1865.74 1267.93 1864.14 1268.9 Q1862.57 1269.87 1862.57 1271.82 Q1862.57 1273.3 1863.7 1274.16 Q1864.84 1274.99 1868.26 1275.75 L1869.72 1276.08 Q1874.26 1277.05 1876.16 1278.83 Q1878.08 1280.59 1878.08 1283.76 Q1878.08 1287.37 1875.21 1289.48 Q1872.36 1291.59 1867.36 1291.59 Q1865.28 1291.59 1863.01 1291.17 Q1860.76 1290.78 1858.26 1289.97 L1858.26 1285.57 Q1860.63 1286.79 1862.92 1287.42 Q1865.21 1288.02 1867.45 1288.02 Q1870.46 1288.02 1872.08 1287 Q1873.7 1285.96 1873.7 1284.09 Q1873.7 1282.35 1872.52 1281.42 Q1871.37 1280.5 1867.41 1279.64 L1865.93 1279.3 Q1861.97 1278.46 1860.21 1276.75 Q1858.45 1275.01 1858.45 1272 Q1858.45 1268.35 1861.04 1266.36 Q1863.64 1264.36 1868.4 1264.36 Q1870.76 1264.36 1872.85 1264.71 Q1874.93 1265.06 1876.69 1265.75 Z" fill="#000000" fill-rule="nonzero" fill-opacity="1"></path><path clip-path="url(#clip120)" d="M1885.95 1285.04 L1890.83 1285.04 L1890.83 1289.02 L1887.04 1296.42 L1884.05 1296.42 L1885.95 1289.02 L1885.95 1285.04 Z" fill="#000000" fill-rule="nonzero" fill-opacity="1"></path><path clip-path="url(#clip120)" d="M1915.65 1256.36 L1934.01 1256.36 L1934.01 1260.29 L1919.93 1260.29 L1919.93 1268.76 Q1920.95 1268.42 1921.97 1268.25 Q1922.99 1268.07 1924.01 1268.07 Q1929.79 1268.07 1933.17 1271.24 Q1936.55 1274.41 1936.55 1279.83 Q1936.55 1285.41 1933.08 1288.51 Q1929.61 1291.59 1923.29 1291.59 Q1921.11 1291.59 1918.84 1291.22 Q1916.6 1290.85 1914.19 1290.11 L1914.19 1285.41 Q1916.27 1286.54 1918.5 1287.1 Q1920.72 1287.65 1923.2 1287.65 Q1927.2 1287.65 1929.54 1285.54 Q1931.88 1283.44 1931.88 1279.83 Q1931.88 1276.22 1929.54 1274.11 Q1927.2 1272 1923.2 1272 Q1921.32 1272 1919.45 1272.42 Q1917.59 1272.84 1915.65 1273.72 L1915.65 1256.36 Z" fill="#000000" fill-rule="nonzero" fill-opacity="1"></path><path clip-path="url(#clip120)" d="M1970.28 1267.98 Q1966.85 1267.98 1964.86 1270.66 Q1962.87 1273.32 1962.87 1277.98 Q1962.87 1282.63 1964.84 1285.31 Q1966.83 1287.98 1970.28 1287.98 Q1973.68 1287.98 1975.67 1285.29 Q1977.66 1282.61 1977.66 1277.98 Q1977.66 1273.37 1975.67 1270.68 Q1973.68 1267.98 1970.28 1267.98 M1970.28 1264.36 Q1975.83 1264.36 1979.01 1267.98 Q1982.18 1271.59 1982.18 1277.98 Q1982.18 1284.34 1979.01 1287.98 Q1975.83 1291.59 1970.28 1291.59 Q1964.7 1291.59 1961.53 1287.98 Q1958.38 1284.34 1958.38 1277.98 Q1958.38 1271.59 1961.53 1267.98 Q1964.7 1264.36 1970.28 1264.36 Z" fill="#000000" fill-rule="nonzero" fill-opacity="1"></path><path clip-path="url(#clip120)" d="M2007.85 1277.98 Q2007.85 1273.28 2005.9 1270.61 Q2003.98 1267.93 2000.6 1267.93 Q1997.22 1267.93 1995.28 1270.61 Q1993.36 1273.28 1993.36 1277.98 Q1993.36 1282.67 1995.28 1285.36 Q1997.22 1288.02 2000.6 1288.02 Q2003.98 1288.02 2005.9 1285.36 Q2007.85 1282.67 2007.85 1277.98 M1993.36 1268.92 Q1994.7 1266.61 1996.74 1265.5 Q1998.8 1264.36 2001.64 1264.36 Q2006.37 1264.36 2009.31 1268.11 Q2012.27 1271.86 2012.27 1277.98 Q2012.27 1284.09 2009.31 1287.84 Q2006.37 1291.59 2001.64 1291.59 Q1998.8 1291.59 1996.74 1290.48 Q1994.7 1289.34 1993.36 1287.03 L1993.36 1290.92 L1989.07 1290.92 L1989.07 1254.9 L1993.36 1254.9 L1993.36 1268.92 Z" fill="#000000" fill-rule="nonzero" fill-opacity="1"></path><path clip-path="url(#clip120)" d="M2035.86 1265.75 L2035.86 1269.78 Q2034.05 1268.86 2032.11 1268.39 Q2030.16 1267.93 2028.08 1267.93 Q2024.91 1267.93 2023.31 1268.9 Q2021.74 1269.87 2021.74 1271.82 Q2021.74 1273.3 2022.87 1274.16 Q2024 1274.99 2027.43 1275.75 L2028.89 1276.08 Q2033.43 1277.05 2035.32 1278.83 Q2037.25 1280.59 2037.25 1283.76 Q2037.25 1287.37 2034.38 1289.48 Q2031.53 1291.59 2026.53 1291.59 Q2024.44 1291.59 2022.18 1291.17 Q2019.93 1290.78 2017.43 1289.97 L2017.43 1285.57 Q2019.79 1286.79 2022.08 1287.42 Q2024.38 1288.02 2026.62 1288.02 Q2029.63 1288.02 2031.25 1287 Q2032.87 1285.96 2032.87 1284.09 Q2032.87 1282.35 2031.69 1281.42 Q2030.53 1280.5 2026.57 1279.64 L2025.09 1279.3 Q2021.13 1278.46 2019.38 1276.75 Q2017.62 1275.01 2017.62 1272 Q2017.62 1268.35 2020.21 1266.36 Q2022.8 1264.36 2027.57 1264.36 Q2029.93 1264.36 2032.01 1264.71 Q2034.1 1265.06 2035.86 1265.75 Z" fill="#000000" fill-rule="nonzero" fill-opacity="1"></path><path clip-path="url(#clip120)" d="M2066.2 1276.89 L2066.2 1278.97 L2046.62 1278.97 Q2046.9 1283.37 2049.26 1285.68 Q2051.64 1287.98 2055.88 1287.98 Q2058.33 1287.98 2060.62 1287.37 Q2062.94 1286.77 2065.21 1285.57 L2065.21 1289.6 Q2062.92 1290.57 2060.51 1291.08 Q2058.1 1291.59 2055.62 1291.59 Q2049.42 1291.59 2045.79 1287.98 Q2042.18 1284.36 2042.18 1278.21 Q2042.18 1271.84 2045.6 1268.11 Q2049.05 1264.36 2054.88 1264.36 Q2060.12 1264.36 2063.15 1267.74 Q2066.2 1271.1 2066.2 1276.89 M2061.94 1275.64 Q2061.9 1272.14 2059.98 1270.06 Q2058.08 1267.98 2054.93 1267.98 Q2051.37 1267.98 2049.21 1269.99 Q2047.08 1272 2046.76 1275.66 L2061.94 1275.64 Z" fill="#000000" fill-rule="nonzero" fill-opacity="1"></path><path clip-path="url(#clip120)" d="M2088.22 1268.97 Q2087.5 1268.55 2086.64 1268.37 Q2085.81 1268.16 2084.79 1268.16 Q2081.18 1268.16 2079.24 1270.52 Q2077.31 1272.86 2077.31 1277.26 L2077.31 1290.92 L2073.03 1290.92 L2073.03 1264.99 L2077.31 1264.99 L2077.31 1269.02 Q2078.66 1266.66 2080.81 1265.52 Q2082.96 1264.36 2086.04 1264.36 Q2086.48 1264.36 2087.01 1264.43 Q2087.55 1264.48 2088.19 1264.6 L2088.22 1268.97 Z" fill="#000000" fill-rule="nonzero" fill-opacity="1"></path><path clip-path="url(#clip120)" d="M2089.63 1264.99 L2094.14 1264.99 L2102.25 1286.75 L2110.35 1264.99 L2114.86 1264.99 L2105.14 1290.92 L2099.35 1290.92 L2089.63 1264.99 Z" fill="#000000" fill-rule="nonzero" fill-opacity="1"></path><path clip-path="url(#clip120)" d="M2132.52 1277.88 Q2127.36 1277.88 2125.37 1279.06 Q2123.38 1280.24 2123.38 1283.09 Q2123.38 1285.36 2124.86 1286.7 Q2126.37 1288.02 2128.93 1288.02 Q2132.48 1288.02 2134.61 1285.52 Q2136.76 1283 2136.76 1278.83 L2136.76 1277.88 L2132.52 1277.88 M2141.02 1276.12 L2141.02 1290.92 L2136.76 1290.92 L2136.76 1286.98 Q2135.3 1289.34 2133.12 1290.48 Q2130.95 1291.59 2127.8 1291.59 Q2123.82 1291.59 2121.46 1289.36 Q2119.12 1287.12 2119.12 1283.37 Q2119.12 1278.99 2122.04 1276.77 Q2124.98 1274.55 2130.79 1274.55 L2136.76 1274.55 L2136.76 1274.13 Q2136.76 1271.19 2134.81 1269.6 Q2132.89 1267.98 2129.4 1267.98 Q2127.18 1267.98 2125.07 1268.51 Q2122.96 1269.04 2121.02 1270.11 L2121.02 1266.17 Q2123.36 1265.27 2125.56 1264.83 Q2127.75 1264.36 2129.84 1264.36 Q2135.46 1264.36 2138.24 1267.28 Q2141.02 1270.2 2141.02 1276.12 Z" fill="#000000" fill-rule="nonzero" fill-opacity="1"></path><path clip-path="url(#clip120)" d="M2154 1257.63 L2154 1264.99 L2162.78 1264.99 L2162.78 1268.3 L2154 1268.3 L2154 1282.37 Q2154 1285.54 2154.86 1286.45 Q2155.74 1287.35 2158.4 1287.35 L2162.78 1287.35 L2162.78 1290.92 L2158.4 1290.92 Q2153.47 1290.92 2151.6 1289.09 Q2149.72 1287.23 2149.72 1282.37 L2149.72 1268.3 L2146.6 1268.3 L2146.6 1264.99 L2149.72 1264.99 L2149.72 1257.63 L2154 1257.63 Z" fill="#000000" fill-rule="nonzero" fill-opacity="1"></path><path clip-path="url(#clip120)" d="M2168.38 1264.99 L2172.64 1264.99 L2172.64 1290.92 L2168.38 1290.92 L2168.38 1264.99 M2168.38 1254.9 L2172.64 1254.9 L2172.64 1260.29 L2168.38 1260.29 L2168.38 1254.9 Z" fill="#000000" fill-rule="nonzero" fill-opacity="1"></path><path clip-path="url(#clip120)" d="M2191.6 1267.98 Q2188.17 1267.98 2186.18 1270.66 Q2184.19 1273.32 2184.19 1277.98 Q2184.19 1282.63 2186.16 1285.31 Q2188.15 1287.98 2191.6 1287.98 Q2195 1287.98 2196.99 1285.29 Q2198.98 1282.61 2198.98 1277.98 Q2198.98 1273.37 2196.99 1270.68 Q2195 1267.98 2191.6 1267.98 M2191.6 1264.36 Q2197.15 1264.36 2200.32 1267.98 Q2203.49 1271.59 2203.49 1277.98 Q2203.49 1284.34 2200.32 1287.98 Q2197.15 1291.59 2191.6 1291.59 Q2186.02 1291.59 2182.85 1287.98 Q2179.7 1284.34 2179.7 1277.98 Q2179.7 1271.59 2182.85 1267.98 Q2186.02 1264.36 2191.6 1264.36 Z" fill="#000000" fill-rule="nonzero" fill-opacity="1"></path><path clip-path="url(#clip120)" d="M2232.11 1275.27 L2232.11 1290.92 L2227.85 1290.92 L2227.85 1275.41 Q2227.85 1271.73 2226.41 1269.9 Q2224.98 1268.07 2222.11 1268.07 Q2218.66 1268.07 2216.67 1270.27 Q2214.68 1272.47 2214.68 1276.26 L2214.68 1290.92 L2210.39 1290.92 L2210.39 1264.99 L2214.68 1264.99 L2214.68 1269.02 Q2216.2 1266.68 2218.26 1265.52 Q2220.35 1264.36 2223.05 1264.36 Q2227.52 1264.36 2229.81 1267.14 Q2232.11 1269.9 2232.11 1275.27 Z" fill="#000000" fill-rule="nonzero" fill-opacity="1"></path><path clip-path="url(#clip120)" d="M2257.13 1265.75 L2257.13 1269.78 Q2255.32 1268.86 2253.38 1268.39 Q2251.43 1267.93 2249.35 1267.93 Q2246.18 1267.93 2244.58 1268.9 Q2243.01 1269.87 2243.01 1271.82 Q2243.01 1273.3 2244.14 1274.16 Q2245.28 1274.99 2248.7 1275.75 L2250.16 1276.08 Q2254.7 1277.05 2256.6 1278.83 Q2258.52 1280.59 2258.52 1283.76 Q2258.52 1287.37 2255.65 1289.48 Q2252.8 1291.59 2247.8 1291.59 Q2245.72 1291.59 2243.45 1291.17 Q2241.2 1290.78 2238.7 1289.97 L2238.7 1285.57 Q2241.06 1286.79 2243.36 1287.42 Q2245.65 1288.02 2247.89 1288.02 Q2250.9 1288.02 2252.52 1287 Q2254.14 1285.96 2254.14 1284.09 Q2254.14 1282.35 2252.96 1281.42 Q2251.8 1280.5 2247.85 1279.64 L2246.36 1279.3 Q2242.41 1278.46 2240.65 1276.75 Q2238.89 1275.01 2238.89 1272 Q2238.89 1268.35 2241.48 1266.36 Q2244.07 1264.36 2248.84 1264.36 Q2251.2 1264.36 2253.29 1264.71 Q2255.37 1265.06 2257.13 1265.75 Z" fill="#000000" fill-rule="nonzero" fill-opacity="1"></path><polyline clip-path="url(#clip120)" style="stroke:#e26f46; stroke-linecap:round; stroke-linejoin:round; stroke-width:4; stroke-opacity:1; fill:none" points="1477.86,1325.48 1619.22,1325.48 "></polyline>
<circle clip-path="url(#clip120)" cx="1548.54" cy="1325.48" r="19.633" fill="#e26f46" fill-rule="evenodd" fill-opacity="1" stroke="#000000" stroke-opacity="1" stroke-width="4.55111"></circle>
<path clip-path="url(#clip120)" d="M1644.24 1308.2 L1662.59 1308.2 L1662.59 1312.13 L1648.52 1312.13 L1648.52 1320.6 Q1649.54 1320.26 1650.56 1320.09 Q1651.58 1319.91 1652.59 1319.91 Q1658.38 1319.91 1661.76 1323.08 Q1665.14 1326.25 1665.14 1331.67 Q1665.14 1337.25 1661.67 1340.35 Q1658.2 1343.43 1651.88 1343.43 Q1649.7 1343.43 1647.43 1343.06 Q1645.19 1342.69 1642.78 1341.95 L1642.78 1337.25 Q1644.86 1338.38 1647.09 1338.94 Q1649.31 1339.49 1651.78 1339.49 Q1655.79 1339.49 1658.13 1337.38 Q1660.47 1335.28 1660.47 1331.67 Q1660.47 1328.06 1658.13 1325.95 Q1655.79 1323.84 1651.78 1323.84 Q1649.91 1323.84 1648.03 1324.26 Q1646.18 1324.68 1644.24 1325.56 L1644.24 1308.2 Z" fill="#000000" fill-rule="nonzero" fill-opacity="1"></path><path clip-path="url(#clip120)" d="M1701.95 1306.74 L1701.95 1310.28 L1697.87 1310.28 Q1695.58 1310.28 1694.68 1311.2 Q1693.8 1312.13 1693.8 1314.54 L1693.8 1316.83 L1700.81 1316.83 L1700.81 1320.14 L1693.8 1320.14 L1693.8 1342.76 L1689.52 1342.76 L1689.52 1320.14 L1685.44 1320.14 L1685.44 1316.83 L1689.52 1316.83 L1689.52 1315.02 Q1689.52 1310.7 1691.53 1308.73 Q1693.54 1306.74 1697.92 1306.74 L1701.95 1306.74 Z" fill="#000000" fill-rule="nonzero" fill-opacity="1"></path><path clip-path="url(#clip120)" d="M1727.69 1328.73 L1727.69 1330.81 L1708.1 1330.81 Q1708.38 1335.21 1710.74 1337.52 Q1713.13 1339.82 1717.36 1339.82 Q1719.82 1339.82 1722.11 1339.21 Q1724.42 1338.61 1726.69 1337.41 L1726.69 1341.44 Q1724.4 1342.41 1721.99 1342.92 Q1719.59 1343.43 1717.11 1343.43 Q1710.9 1343.43 1707.27 1339.82 Q1703.66 1336.2 1703.66 1330.05 Q1703.66 1323.68 1707.09 1319.95 Q1710.53 1316.2 1716.37 1316.2 Q1721.6 1316.2 1724.63 1319.58 Q1727.69 1322.94 1727.69 1328.73 M1723.43 1327.48 Q1723.38 1323.98 1721.46 1321.9 Q1719.56 1319.82 1716.41 1319.82 Q1712.85 1319.82 1710.7 1321.83 Q1708.57 1323.84 1708.24 1327.5 L1723.43 1327.48 Z" fill="#000000" fill-rule="nonzero" fill-opacity="1"></path><path clip-path="url(#clip120)" d="M1746.46 1329.72 Q1741.3 1329.72 1739.31 1330.9 Q1737.32 1332.08 1737.32 1334.93 Q1737.32 1337.2 1738.8 1338.54 Q1740.3 1339.86 1742.87 1339.86 Q1746.41 1339.86 1748.54 1337.36 Q1750.7 1334.84 1750.7 1330.67 L1750.7 1329.72 L1746.46 1329.72 M1754.96 1327.96 L1754.96 1342.76 L1750.7 1342.76 L1750.7 1338.82 Q1749.24 1341.18 1747.06 1342.32 Q1744.89 1343.43 1741.74 1343.43 Q1737.76 1343.43 1735.4 1341.2 Q1733.06 1338.96 1733.06 1335.21 Q1733.06 1330.83 1735.97 1328.61 Q1738.91 1326.39 1744.72 1326.39 L1750.7 1326.39 L1750.7 1325.97 Q1750.7 1323.03 1748.75 1321.44 Q1746.83 1319.82 1743.33 1319.82 Q1741.11 1319.82 1739.01 1320.35 Q1736.9 1320.88 1734.96 1321.95 L1734.96 1318.01 Q1737.29 1317.11 1739.49 1316.67 Q1741.69 1316.2 1743.77 1316.2 Q1749.4 1316.2 1752.18 1319.12 Q1754.96 1322.04 1754.96 1327.96 Z" fill="#000000" fill-rule="nonzero" fill-opacity="1"></path><path clip-path="url(#clip120)" d="M1767.94 1309.47 L1767.94 1316.83 L1776.71 1316.83 L1776.71 1320.14 L1767.94 1320.14 L1767.94 1334.21 Q1767.94 1337.38 1768.8 1338.29 Q1769.68 1339.19 1772.34 1339.19 L1776.71 1339.19 L1776.71 1342.76 L1772.34 1342.76 Q1767.41 1342.76 1765.53 1340.93 Q1763.66 1339.07 1763.66 1334.21 L1763.66 1320.14 L1760.53 1320.14 L1760.53 1316.83 L1763.66 1316.83 L1763.66 1309.47 L1767.94 1309.47 Z" fill="#000000" fill-rule="nonzero" fill-opacity="1"></path><path clip-path="url(#clip120)" d="M1781.88 1332.52 L1781.88 1316.83 L1786.14 1316.83 L1786.14 1332.36 Q1786.14 1336.04 1787.57 1337.89 Q1789.01 1339.72 1791.88 1339.72 Q1795.33 1339.72 1797.32 1337.52 Q1799.33 1335.32 1799.33 1331.53 L1799.33 1316.83 L1803.59 1316.83 L1803.59 1342.76 L1799.33 1342.76 L1799.33 1338.77 Q1797.78 1341.13 1795.72 1342.29 Q1793.68 1343.43 1790.97 1343.43 Q1786.51 1343.43 1784.19 1340.65 Q1781.88 1337.87 1781.88 1332.52 M1792.59 1316.2 L1792.59 1316.2 Z" fill="#000000" fill-rule="nonzero" fill-opacity="1"></path><path clip-path="url(#clip120)" d="M1827.39 1320.81 Q1826.67 1320.39 1825.81 1320.21 Q1824.98 1320 1823.96 1320 Q1820.35 1320 1818.4 1322.36 Q1816.48 1324.7 1816.48 1329.1 L1816.48 1342.76 L1812.2 1342.76 L1812.2 1316.83 L1816.48 1316.83 L1816.48 1320.86 Q1817.83 1318.5 1819.98 1317.36 Q1822.13 1316.2 1825.21 1316.2 Q1825.65 1316.2 1826.18 1316.27 Q1826.71 1316.32 1827.36 1316.44 L1827.39 1320.81 Z" fill="#000000" fill-rule="nonzero" fill-opacity="1"></path><path clip-path="url(#clip120)" d="M1852.99 1328.73 L1852.99 1330.81 L1833.4 1330.81 Q1833.68 1335.21 1836.04 1337.52 Q1838.43 1339.82 1842.66 1339.82 Q1845.12 1339.82 1847.41 1339.21 Q1849.72 1338.61 1851.99 1337.41 L1851.99 1341.44 Q1849.7 1342.41 1847.29 1342.92 Q1844.89 1343.43 1842.41 1343.43 Q1836.2 1343.43 1832.57 1339.82 Q1828.96 1336.2 1828.96 1330.05 Q1828.96 1323.68 1832.39 1319.95 Q1835.83 1316.2 1841.67 1316.2 Q1846.9 1316.2 1849.93 1319.58 Q1852.99 1322.94 1852.99 1328.73 M1848.73 1327.48 Q1848.68 1323.98 1846.76 1321.9 Q1844.86 1319.82 1841.71 1319.82 Q1838.15 1319.82 1836 1321.83 Q1833.87 1323.84 1833.54 1327.5 L1848.73 1327.48 Z" fill="#000000" fill-rule="nonzero" fill-opacity="1"></path><path clip-path="url(#clip120)" d="M1876.51 1317.59 L1876.51 1321.62 Q1874.7 1320.7 1872.76 1320.23 Q1870.81 1319.77 1868.73 1319.77 Q1865.56 1319.77 1863.96 1320.74 Q1862.39 1321.71 1862.39 1323.66 Q1862.39 1325.14 1863.52 1326 Q1864.65 1326.83 1868.08 1327.59 L1869.54 1327.92 Q1874.08 1328.89 1875.97 1330.67 Q1877.89 1332.43 1877.89 1335.6 Q1877.89 1339.21 1875.02 1341.32 Q1872.18 1343.43 1867.18 1343.43 Q1865.09 1343.43 1862.83 1343.01 Q1860.58 1342.62 1858.08 1341.81 L1858.08 1337.41 Q1860.44 1338.63 1862.73 1339.26 Q1865.02 1339.86 1867.27 1339.86 Q1870.28 1339.86 1871.9 1338.84 Q1873.52 1337.8 1873.52 1335.93 Q1873.52 1334.19 1872.34 1333.26 Q1871.18 1332.34 1867.22 1331.48 L1865.74 1331.14 Q1861.78 1330.3 1860.02 1328.59 Q1858.26 1326.85 1858.26 1323.84 Q1858.26 1320.19 1860.86 1318.2 Q1863.45 1316.2 1868.22 1316.2 Q1870.58 1316.2 1872.66 1316.55 Q1874.75 1316.9 1876.51 1317.59 Z" fill="#000000" fill-rule="nonzero" fill-opacity="1"></path><path clip-path="url(#clip120)" d="M1885.76 1336.88 L1890.65 1336.88 L1890.65 1340.86 L1886.85 1348.26 L1883.87 1348.26 L1885.76 1340.86 L1885.76 1336.88 Z" fill="#000000" fill-rule="nonzero" fill-opacity="1"></path><path clip-path="url(#clip120)" d="M1919.45 1338.82 L1935.76 1338.82 L1935.76 1342.76 L1913.82 1342.76 L1913.82 1338.82 Q1916.48 1336.07 1921.07 1331.44 Q1925.67 1326.78 1926.85 1325.44 Q1929.1 1322.92 1929.98 1321.18 Q1930.88 1319.42 1930.88 1317.73 Q1930.88 1314.98 1928.94 1313.24 Q1927.01 1311.51 1923.91 1311.51 Q1921.71 1311.51 1919.26 1312.27 Q1916.83 1313.03 1914.05 1314.58 L1914.05 1309.86 Q1916.88 1308.73 1919.33 1308.15 Q1921.78 1307.57 1923.82 1307.57 Q1929.19 1307.57 1932.38 1310.26 Q1935.58 1312.94 1935.58 1317.43 Q1935.58 1319.56 1934.77 1321.48 Q1933.98 1323.38 1931.88 1325.97 Q1931.3 1326.64 1928.2 1329.86 Q1925.09 1333.06 1919.45 1338.82 Z" fill="#000000" fill-rule="nonzero" fill-opacity="1"></path><path clip-path="url(#clip120)" d="M1970.09 1319.82 Q1966.67 1319.82 1964.68 1322.5 Q1962.69 1325.16 1962.69 1329.82 Q1962.69 1334.47 1964.65 1337.15 Q1966.64 1339.82 1970.09 1339.82 Q1973.5 1339.82 1975.49 1337.13 Q1977.48 1334.45 1977.48 1329.82 Q1977.48 1325.21 1975.49 1322.52 Q1973.5 1319.82 1970.09 1319.82 M1970.09 1316.2 Q1975.65 1316.2 1978.82 1319.82 Q1981.99 1323.43 1981.99 1329.82 Q1981.99 1336.18 1978.82 1339.82 Q1975.65 1343.43 1970.09 1343.43 Q1964.51 1343.43 1961.34 1339.82 Q1958.19 1336.18 1958.19 1329.82 Q1958.19 1323.43 1961.34 1319.82 Q1964.51 1316.2 1970.09 1316.2 Z" fill="#000000" fill-rule="nonzero" fill-opacity="1"></path><path clip-path="url(#clip120)" d="M2007.66 1329.82 Q2007.66 1325.12 2005.72 1322.45 Q2003.8 1319.77 2000.42 1319.77 Q1997.04 1319.77 1995.09 1322.45 Q1993.17 1325.12 1993.17 1329.82 Q1993.17 1334.51 1995.09 1337.2 Q1997.04 1339.86 2000.42 1339.86 Q2003.8 1339.86 2005.72 1337.2 Q2007.66 1334.51 2007.66 1329.82 M1993.17 1320.76 Q1994.51 1318.45 1996.55 1317.34 Q1998.61 1316.2 2001.46 1316.2 Q2006.18 1316.2 2009.12 1319.95 Q2012.08 1323.7 2012.08 1329.82 Q2012.08 1335.93 2009.12 1339.68 Q2006.18 1343.43 2001.46 1343.43 Q1998.61 1343.43 1996.55 1342.32 Q1994.51 1341.18 1993.17 1338.87 L1993.17 1342.76 L1988.89 1342.76 L1988.89 1306.74 L1993.17 1306.74 L1993.17 1320.76 Z" fill="#000000" fill-rule="nonzero" fill-opacity="1"></path><path clip-path="url(#clip120)" d="M2035.67 1317.59 L2035.67 1321.62 Q2033.87 1320.7 2031.92 1320.23 Q2029.98 1319.77 2027.89 1319.77 Q2024.72 1319.77 2023.13 1320.74 Q2021.55 1321.71 2021.55 1323.66 Q2021.55 1325.14 2022.69 1326 Q2023.82 1326.83 2027.25 1327.59 L2028.7 1327.92 Q2033.24 1328.89 2035.14 1330.67 Q2037.06 1332.43 2037.06 1335.6 Q2037.06 1339.21 2034.19 1341.32 Q2031.34 1343.43 2026.34 1343.43 Q2024.26 1343.43 2021.99 1343.01 Q2019.75 1342.62 2017.25 1341.81 L2017.25 1337.41 Q2019.61 1338.63 2021.9 1339.26 Q2024.19 1339.86 2026.44 1339.86 Q2029.44 1339.86 2031.06 1338.84 Q2032.69 1337.8 2032.69 1335.93 Q2032.69 1334.19 2031.5 1333.26 Q2030.35 1332.34 2026.39 1331.48 L2024.91 1331.14 Q2020.95 1330.3 2019.19 1328.59 Q2017.43 1326.85 2017.43 1323.84 Q2017.43 1320.19 2020.02 1318.2 Q2022.62 1316.2 2027.38 1316.2 Q2029.75 1316.2 2031.83 1316.55 Q2033.91 1316.9 2035.67 1317.59 Z" fill="#000000" fill-rule="nonzero" fill-opacity="1"></path><path clip-path="url(#clip120)" d="M2066.02 1328.73 L2066.02 1330.81 L2046.44 1330.81 Q2046.71 1335.21 2049.07 1337.52 Q2051.46 1339.82 2055.69 1339.82 Q2058.15 1339.82 2060.44 1339.21 Q2062.75 1338.61 2065.02 1337.41 L2065.02 1341.44 Q2062.73 1342.41 2060.32 1342.92 Q2057.92 1343.43 2055.44 1343.43 Q2049.24 1343.43 2045.6 1339.82 Q2041.99 1336.2 2041.99 1330.05 Q2041.99 1323.68 2045.42 1319.95 Q2048.87 1316.2 2054.7 1316.2 Q2059.93 1316.2 2062.96 1319.58 Q2066.02 1322.94 2066.02 1328.73 M2061.76 1327.48 Q2061.71 1323.98 2059.79 1321.9 Q2057.89 1319.82 2054.75 1319.82 Q2051.18 1319.82 2049.03 1321.83 Q2046.9 1323.84 2046.57 1327.5 L2061.76 1327.48 Z" fill="#000000" fill-rule="nonzero" fill-opacity="1"></path><path clip-path="url(#clip120)" d="M2088.03 1320.81 Q2087.31 1320.39 2086.46 1320.21 Q2085.62 1320 2084.61 1320 Q2081 1320 2079.05 1322.36 Q2077.13 1324.7 2077.13 1329.1 L2077.13 1342.76 L2072.85 1342.76 L2072.85 1316.83 L2077.13 1316.83 L2077.13 1320.86 Q2078.47 1318.5 2080.62 1317.36 Q2082.78 1316.2 2085.86 1316.2 Q2086.3 1316.2 2086.83 1316.27 Q2087.36 1316.32 2088.01 1316.44 L2088.03 1320.81 Z" fill="#000000" fill-rule="nonzero" fill-opacity="1"></path><path clip-path="url(#clip120)" d="M2089.44 1316.83 L2093.96 1316.83 L2102.06 1338.59 L2110.16 1316.83 L2114.68 1316.83 L2104.95 1342.76 L2099.17 1342.76 L2089.44 1316.83 Z" fill="#000000" fill-rule="nonzero" fill-opacity="1"></path><path clip-path="url(#clip120)" d="M2132.34 1329.72 Q2127.18 1329.72 2125.18 1330.9 Q2123.19 1332.08 2123.19 1334.93 Q2123.19 1337.2 2124.68 1338.54 Q2126.18 1339.86 2128.75 1339.86 Q2132.29 1339.86 2134.42 1337.36 Q2136.57 1334.84 2136.57 1330.67 L2136.57 1329.72 L2132.34 1329.72 M2140.83 1327.96 L2140.83 1342.76 L2136.57 1342.76 L2136.57 1338.82 Q2135.12 1341.18 2132.94 1342.32 Q2130.76 1343.43 2127.62 1343.43 Q2123.63 1343.43 2121.27 1341.2 Q2118.93 1338.96 2118.93 1335.21 Q2118.93 1330.83 2121.85 1328.61 Q2124.79 1326.39 2130.6 1326.39 L2136.57 1326.39 L2136.57 1325.97 Q2136.57 1323.03 2134.63 1321.44 Q2132.71 1319.82 2129.21 1319.82 Q2126.99 1319.82 2124.88 1320.35 Q2122.78 1320.88 2120.83 1321.95 L2120.83 1318.01 Q2123.17 1317.11 2125.37 1316.67 Q2127.57 1316.2 2129.65 1316.2 Q2135.28 1316.2 2138.06 1319.12 Q2140.83 1322.04 2140.83 1327.96 Z" fill="#000000" fill-rule="nonzero" fill-opacity="1"></path><path clip-path="url(#clip120)" d="M2153.82 1309.47 L2153.82 1316.83 L2162.59 1316.83 L2162.59 1320.14 L2153.82 1320.14 L2153.82 1334.21 Q2153.82 1337.38 2154.68 1338.29 Q2155.55 1339.19 2158.22 1339.19 L2162.59 1339.19 L2162.59 1342.76 L2158.22 1342.76 Q2153.29 1342.76 2151.41 1340.93 Q2149.54 1339.07 2149.54 1334.21 L2149.54 1320.14 L2146.41 1320.14 L2146.41 1316.83 L2149.54 1316.83 L2149.54 1309.47 L2153.82 1309.47 Z" fill="#000000" fill-rule="nonzero" fill-opacity="1"></path><path clip-path="url(#clip120)" d="M2168.19 1316.83 L2172.45 1316.83 L2172.45 1342.76 L2168.19 1342.76 L2168.19 1316.83 M2168.19 1306.74 L2172.45 1306.74 L2172.45 1312.13 L2168.19 1312.13 L2168.19 1306.74 Z" fill="#000000" fill-rule="nonzero" fill-opacity="1"></path><path clip-path="url(#clip120)" d="M2191.41 1319.82 Q2187.99 1319.82 2185.99 1322.5 Q2184 1325.16 2184 1329.82 Q2184 1334.47 2185.97 1337.15 Q2187.96 1339.82 2191.41 1339.82 Q2194.81 1339.82 2196.8 1337.13 Q2198.8 1334.45 2198.8 1329.82 Q2198.8 1325.21 2196.8 1322.52 Q2194.81 1319.82 2191.41 1319.82 M2191.41 1316.2 Q2196.97 1316.2 2200.14 1319.82 Q2203.31 1323.43 2203.31 1329.82 Q2203.31 1336.18 2200.14 1339.82 Q2196.97 1343.43 2191.41 1343.43 Q2185.83 1343.43 2182.66 1339.82 Q2179.51 1336.18 2179.51 1329.82 Q2179.51 1323.43 2182.66 1319.82 Q2185.83 1316.2 2191.41 1316.2 Z" fill="#000000" fill-rule="nonzero" fill-opacity="1"></path><path clip-path="url(#clip120)" d="M2231.92 1327.11 L2231.92 1342.76 L2227.66 1342.76 L2227.66 1327.25 Q2227.66 1323.57 2226.23 1321.74 Q2224.79 1319.91 2221.92 1319.91 Q2218.47 1319.91 2216.48 1322.11 Q2214.49 1324.31 2214.49 1328.1 L2214.49 1342.76 L2210.21 1342.76 L2210.21 1316.83 L2214.49 1316.83 L2214.49 1320.86 Q2216.02 1318.52 2218.08 1317.36 Q2220.16 1316.2 2222.87 1316.2 Q2227.34 1316.2 2229.63 1318.98 Q2231.92 1321.74 2231.92 1327.11 Z" fill="#000000" fill-rule="nonzero" fill-opacity="1"></path><path clip-path="url(#clip120)" d="M2256.94 1317.59 L2256.94 1321.62 Q2255.14 1320.7 2253.19 1320.23 Q2251.25 1319.77 2249.17 1319.77 Q2245.99 1319.77 2244.4 1320.74 Q2242.82 1321.71 2242.82 1323.66 Q2242.82 1325.14 2243.96 1326 Q2245.09 1326.83 2248.52 1327.59 L2249.98 1327.92 Q2254.51 1328.89 2256.41 1330.67 Q2258.33 1332.43 2258.33 1335.6 Q2258.33 1339.21 2255.46 1341.32 Q2252.61 1343.43 2247.61 1343.43 Q2245.53 1343.43 2243.26 1343.01 Q2241.02 1342.62 2238.52 1341.81 L2238.52 1337.41 Q2240.88 1338.63 2243.17 1339.26 Q2245.46 1339.86 2247.71 1339.86 Q2250.72 1339.86 2252.34 1338.84 Q2253.96 1337.8 2253.96 1335.93 Q2253.96 1334.19 2252.78 1333.26 Q2251.62 1332.34 2247.66 1331.48 L2246.18 1331.14 Q2242.22 1330.3 2240.46 1328.59 Q2238.7 1326.85 2238.7 1323.84 Q2238.7 1320.19 2241.3 1318.2 Q2243.89 1316.2 2248.66 1316.2 Q2251.02 1316.2 2253.1 1316.55 Q2255.18 1316.9 2256.94 1317.59 Z" fill="#000000" fill-rule="nonzero" fill-opacity="1"></path></svg>