<?xml version="1.0" encoding="utf-8"?>
<svg xmlns="http://www.w3.org/2000/svg" xmlns:xlink="http://www.w3.org/1999/xlink" width="600" height="400" viewBox="0 0 2400 1600">
<defs>
  <clipPath id="clip260">
    <rect x="0" y="0" width="2400" height="1600"/>
  </clipPath>
</defs>
<path clip-path="url(#clip260)" d="M0 1600 L2400 1600 L2400 0 L0 0  Z" fill="#ffffff" fill-rule="evenodd" fill-opacity="1"/>
<defs>
  <clipPath id="clip261">
    <rect x="480" y="0" width="1681" height="1600"/>
  </clipPath>
</defs>
<path clip-path="url(#clip260)" d="M156.274 1486.45 L2352.76 1486.45 L2352.76 47.2441 L156.274 47.2441  Z" fill="#ffffff" fill-rule="evenodd" fill-opacity="1"/>
<defs>
  <clipPath id="clip262">
    <rect x="156" y="47" width="2197" height="1440"/>
  </clipPath>
</defs>
<polyline clip-path="url(#clip262)" style="stroke:#000000; stroke-linecap:round; stroke-linejoin:round; stroke-width:2; stroke-opacity:0.1; fill:none" points="218.439,1486.45 218.439,47.2441 "/>
<polyline clip-path="url(#clip262)" style="stroke:#000000; stroke-linecap:round; stroke-linejoin:round; stroke-width:2; stroke-opacity:0.1; fill:none" points="633.035,1486.45 633.035,47.2441 "/>
<polyline clip-path="url(#clip262)" style="stroke:#000000; stroke-linecap:round; stroke-linejoin:round; stroke-width:2; stroke-opacity:0.1; fill:none" points="1047.63,1486.45 1047.63,47.2441 "/>
<polyline clip-path="url(#clip262)" style="stroke:#000000; stroke-linecap:round; stroke-linejoin:round; stroke-width:2; stroke-opacity:0.1; fill:none" points="1462.23,1486.45 1462.23,47.2441 "/>
<polyline clip-path="url(#clip262)" style="stroke:#000000; stroke-linecap:round; stroke-linejoin:round; stroke-width:2; stroke-opacity:0.1; fill:none" points="1876.82,1486.45 1876.82,47.2441 "/>
<polyline clip-path="url(#clip262)" style="stroke:#000000; stroke-linecap:round; stroke-linejoin:round; stroke-width:2; stroke-opacity:0.1; fill:none" points="2291.42,1486.45 2291.42,47.2441 "/>
<polyline clip-path="url(#clip260)" style="stroke:#000000; stroke-linecap:round; stroke-linejoin:round; stroke-width:4; stroke-opacity:1; fill:none" points="156.274,1486.45 2352.76,1486.45 "/>
<polyline clip-path="url(#clip260)" style="stroke:#000000; stroke-linecap:round; stroke-linejoin:round; stroke-width:4; stroke-opacity:1; fill:none" points="218.439,1486.45 218.439,1467.55 "/>
<polyline clip-path="url(#clip260)" style="stroke:#000000; stroke-linecap:round; stroke-linejoin:round; stroke-width:4; stroke-opacity:1; fill:none" points="633.035,1486.45 633.035,1467.55 "/>
<polyline clip-path="url(#clip260)" style="stroke:#000000; stroke-linecap:round; stroke-linejoin:round; stroke-width:4; stroke-opacity:1; fill:none" points="1047.63,1486.45 1047.63,1467.55 "/>
<polyline clip-path="url(#clip260)" style="stroke:#000000; stroke-linecap:round; stroke-linejoin:round; stroke-width:4; stroke-opacity:1; fill:none" points="1462.23,1486.45 1462.23,1467.55 "/>
<polyline clip-path="url(#clip260)" style="stroke:#000000; stroke-linecap:round; stroke-linejoin:round; stroke-width:4; stroke-opacity:1; fill:none" points="1876.82,1486.45 1876.82,1467.55 "/>
<polyline clip-path="url(#clip260)" style="stroke:#000000; stroke-linecap:round; stroke-linejoin:round; stroke-width:4; stroke-opacity:1; fill:none" points="2291.42,1486.45 2291.42,1467.55 "/>
<path clip-path="url(#clip260)" d="M218.439 1517.37 Q214.828 1517.37 212.999 1520.93 Q211.193 1524.47 211.193 1531.6 Q211.193 1538.71 212.999 1542.27 Q214.828 1545.82 218.439 1545.82 Q222.073 1545.82 223.879 1542.27 Q225.707 1538.71 225.707 1531.6 Q225.707 1524.47 223.879 1520.93 Q222.073 1517.37 218.439 1517.37 M218.439 1513.66 Q224.249 1513.66 227.304 1518.27 Q230.383 1522.85 230.383 1531.6 Q230.383 1540.33 227.304 1544.94 Q224.249 1549.52 218.439 1549.52 Q212.629 1549.52 209.55 1544.94 Q206.494 1540.33 206.494 1531.6 Q206.494 1522.85 209.55 1518.27 Q212.629 1513.66 218.439 1513.66 Z" fill="#000000" fill-rule="nonzero" fill-opacity="1" /><path clip-path="url(#clip260)" d="M592.653 1514.29 L611.01 1514.29 L611.01 1518.22 L596.936 1518.22 L596.936 1526.7 Q597.954 1526.35 598.973 1526.19 Q599.991 1526 601.01 1526 Q606.797 1526 610.176 1529.17 Q613.556 1532.34 613.556 1537.76 Q613.556 1543.34 610.084 1546.44 Q606.612 1549.52 600.292 1549.52 Q598.116 1549.52 595.848 1549.15 Q593.602 1548.78 591.195 1548.04 L591.195 1543.34 Q593.278 1544.47 595.501 1545.03 Q597.723 1545.58 600.2 1545.58 Q604.204 1545.58 606.542 1543.48 Q608.88 1541.37 608.88 1537.76 Q608.88 1534.15 606.542 1532.04 Q604.204 1529.94 600.2 1529.94 Q598.325 1529.94 596.45 1530.35 Q594.598 1530.77 592.653 1531.65 L592.653 1514.29 Z" fill="#000000" fill-rule="nonzero" fill-opacity="1" /><path clip-path="url(#clip260)" d="M632.769 1517.37 Q629.158 1517.37 627.329 1520.93 Q625.524 1524.47 625.524 1531.6 Q625.524 1538.71 627.329 1542.27 Q629.158 1545.82 632.769 1545.82 Q636.403 1545.82 638.209 1542.27 Q640.037 1538.71 640.037 1531.6 Q640.037 1524.47 638.209 1520.93 Q636.403 1517.37 632.769 1517.37 M632.769 1513.66 Q638.579 1513.66 641.635 1518.27 Q644.713 1522.85 644.713 1531.6 Q644.713 1540.33 641.635 1544.94 Q638.579 1549.52 632.769 1549.52 Q626.959 1549.52 623.88 1544.94 Q620.825 1540.33 620.825 1531.6 Q620.825 1522.85 623.88 1518.27 Q626.959 1513.66 632.769 1513.66 Z" fill="#000000" fill-rule="nonzero" fill-opacity="1" /><path clip-path="url(#clip260)" d="M662.931 1517.37 Q659.32 1517.37 657.491 1520.93 Q655.685 1524.47 655.685 1531.6 Q655.685 1538.71 657.491 1542.27 Q659.32 1545.82 662.931 1545.82 Q666.565 1545.82 668.371 1542.27 Q670.199 1538.71 670.199 1531.6 Q670.199 1524.47 668.371 1520.93 Q666.565 1517.37 662.931 1517.37 M662.931 1513.66 Q668.741 1513.66 671.796 1518.27 Q674.875 1522.85 674.875 1531.6 Q674.875 1540.33 671.796 1544.94 Q668.741 1549.52 662.931 1549.52 Q657.121 1549.52 654.042 1544.94 Q650.986 1540.33 650.986 1531.6 Q650.986 1522.85 654.042 1518.27 Q657.121 1513.66 662.931 1513.66 Z" fill="#000000" fill-rule="nonzero" fill-opacity="1" /><path clip-path="url(#clip260)" d="M992.157 1544.91 L999.796 1544.91 L999.796 1518.55 L991.486 1520.21 L991.486 1515.95 L999.75 1514.29 L1004.43 1514.29 L1004.43 1544.91 L1012.06 1544.91 L1012.06 1548.85 L992.157 1548.85 L992.157 1544.91 Z" fill="#000000" fill-rule="nonzero" fill-opacity="1" /><path clip-path="url(#clip260)" d="M1031.51 1517.37 Q1027.9 1517.37 1026.07 1520.93 Q1024.26 1524.47 1024.26 1531.6 Q1024.26 1538.71 1026.07 1542.27 Q1027.9 1545.82 1031.51 1545.82 Q1035.14 1545.82 1036.95 1542.27 Q1038.78 1538.71 1038.78 1531.6 Q1038.78 1524.47 1036.95 1520.93 Q1035.14 1517.37 1031.51 1517.37 M1031.51 1513.66 Q1037.32 1513.66 1040.37 1518.27 Q1043.45 1522.85 1043.45 1531.6 Q1043.45 1540.33 1040.37 1544.94 Q1037.32 1549.52 1031.51 1549.52 Q1025.7 1549.52 1022.62 1544.94 Q1019.56 1540.33 1019.56 1531.6 Q1019.56 1522.85 1022.62 1518.27 Q1025.7 1513.66 1031.51 1513.66 Z" fill="#000000" fill-rule="nonzero" fill-opacity="1" /><path clip-path="url(#clip260)" d="M1061.67 1517.37 Q1058.06 1517.37 1056.23 1520.93 Q1054.43 1524.47 1054.43 1531.6 Q1054.43 1538.71 1056.23 1542.27 Q1058.06 1545.82 1061.67 1545.82 Q1065.3 1545.82 1067.11 1542.27 Q1068.94 1538.71 1068.94 1531.6 Q1068.94 1524.47 1067.11 1520.93 Q1065.3 1517.37 1061.67 1517.37 M1061.67 1513.66 Q1067.48 1513.66 1070.54 1518.27 Q1073.62 1522.85 1073.62 1531.6 Q1073.62 1540.33 1070.54 1544.94 Q1067.48 1549.52 1061.67 1549.52 Q1055.86 1549.52 1052.78 1544.94 Q1049.73 1540.33 1049.73 1531.6 Q1049.73 1522.85 1052.78 1518.27 Q1055.86 1513.66 1061.67 1513.66 Z" fill="#000000" fill-rule="nonzero" fill-opacity="1" /><path clip-path="url(#clip260)" d="M1091.83 1517.37 Q1088.22 1517.37 1086.39 1520.93 Q1084.59 1524.47 1084.59 1531.6 Q1084.59 1538.71 1086.39 1542.27 Q1088.22 1545.82 1091.83 1545.82 Q1095.47 1545.82 1097.27 1542.27 Q1099.1 1538.71 1099.1 1531.6 Q1099.1 1524.47 1097.27 1520.93 Q1095.47 1517.37 1091.83 1517.37 M1091.83 1513.66 Q1097.64 1513.66 1100.7 1518.27 Q1103.78 1522.85 1103.78 1531.6 Q1103.78 1540.33 1100.7 1544.94 Q1097.64 1549.52 1091.83 1549.52 Q1086.02 1549.52 1082.94 1544.94 Q1079.89 1540.33 1079.89 1531.6 Q1079.89 1522.85 1082.94 1518.27 Q1086.02 1513.66 1091.83 1513.66 Z" fill="#000000" fill-rule="nonzero" fill-opacity="1" /><path clip-path="url(#clip260)" d="M1406.75 1544.91 L1414.39 1544.91 L1414.39 1518.55 L1406.08 1520.21 L1406.08 1515.95 L1414.35 1514.29 L1419.02 1514.29 L1419.02 1544.91 L1426.66 1544.91 L1426.66 1548.85 L1406.75 1548.85 L1406.75 1544.91 Z" fill="#000000" fill-rule="nonzero" fill-opacity="1" /><path clip-path="url(#clip260)" d="M1436.15 1514.29 L1454.51 1514.29 L1454.51 1518.22 L1440.43 1518.22 L1440.43 1526.7 Q1441.45 1526.35 1442.47 1526.19 Q1443.49 1526 1444.51 1526 Q1450.3 1526 1453.67 1529.17 Q1457.05 1532.34 1457.05 1537.76 Q1457.05 1543.34 1453.58 1546.44 Q1450.11 1549.52 1443.79 1549.52 Q1441.61 1549.52 1439.35 1549.15 Q1437.1 1548.78 1434.69 1548.04 L1434.69 1543.34 Q1436.78 1544.47 1439 1545.03 Q1441.22 1545.58 1443.7 1545.58 Q1447.7 1545.58 1450.04 1543.48 Q1452.38 1541.37 1452.38 1537.76 Q1452.38 1534.15 1450.04 1532.04 Q1447.7 1529.94 1443.7 1529.94 Q1441.82 1529.94 1439.95 1530.35 Q1438.1 1530.77 1436.15 1531.65 L1436.15 1514.29 Z" fill="#000000" fill-rule="nonzero" fill-opacity="1" /><path clip-path="url(#clip260)" d="M1476.27 1517.37 Q1472.66 1517.37 1470.83 1520.93 Q1469.02 1524.47 1469.02 1531.6 Q1469.02 1538.71 1470.83 1542.27 Q1472.66 1545.82 1476.27 1545.82 Q1479.9 1545.82 1481.71 1542.27 Q1483.54 1538.71 1483.54 1531.6 Q1483.54 1524.47 1481.71 1520.93 Q1479.9 1517.37 1476.27 1517.37 M1476.27 1513.66 Q1482.08 1513.66 1485.13 1518.27 Q1488.21 1522.85 1488.21 1531.6 Q1488.21 1540.33 1485.13 1544.94 Q1482.08 1549.52 1476.27 1549.52 Q1470.46 1549.52 1467.38 1544.94 Q1464.32 1540.33 1464.32 1531.6 Q1464.32 1522.85 1467.38 1518.27 Q1470.46 1513.66 1476.27 1513.66 Z" fill="#000000" fill-rule="nonzero" fill-opacity="1" /><path clip-path="url(#clip260)" d="M1506.43 1517.37 Q1502.82 1517.37 1500.99 1520.93 Q1499.18 1524.47 1499.18 1531.6 Q1499.18 1538.71 1500.99 1542.27 Q1502.82 1545.82 1506.43 1545.82 Q1510.06 1545.82 1511.87 1542.27 Q1513.7 1538.71 1513.7 1531.6 Q1513.7 1524.47 1511.87 1520.93 Q1510.06 1517.37 1506.43 1517.37 M1506.43 1513.66 Q1512.24 1513.66 1515.29 1518.27 Q1518.37 1522.85 1518.37 1531.6 Q1518.37 1540.33 1515.29 1544.94 Q1512.24 1549.52 1506.43 1549.52 Q1500.62 1549.52 1497.54 1544.94 Q1494.48 1540.33 1494.48 1531.6 Q1494.48 1522.85 1497.54 1518.27 Q1500.62 1513.66 1506.43 1513.66 Z" fill="#000000" fill-rule="nonzero" fill-opacity="1" /><path clip-path="url(#clip260)" d="M1825.44 1544.91 L1841.75 1544.91 L1841.75 1548.85 L1819.81 1548.85 L1819.81 1544.91 Q1822.47 1542.16 1827.06 1537.53 Q1831.66 1532.88 1832.84 1531.53 Q1835.09 1529.01 1835.97 1527.27 Q1836.87 1525.51 1836.87 1523.82 Q1836.87 1521.07 1834.93 1519.33 Q1833 1517.6 1829.9 1517.6 Q1827.7 1517.6 1825.25 1518.36 Q1822.82 1519.13 1820.04 1520.68 L1820.04 1515.95 Q1822.87 1514.82 1825.32 1514.24 Q1827.77 1513.66 1829.81 1513.66 Q1835.18 1513.66 1838.38 1516.35 Q1841.57 1519.03 1841.57 1523.52 Q1841.57 1525.65 1840.76 1527.57 Q1839.97 1529.47 1837.87 1532.07 Q1837.29 1532.74 1834.19 1535.95 Q1831.08 1539.15 1825.44 1544.91 Z" fill="#000000" fill-rule="nonzero" fill-opacity="1" /><path clip-path="url(#clip260)" d="M1861.57 1517.37 Q1857.96 1517.37 1856.13 1520.93 Q1854.32 1524.47 1854.32 1531.6 Q1854.32 1538.71 1856.13 1542.27 Q1857.96 1545.82 1861.57 1545.82 Q1865.2 1545.82 1867.01 1542.27 Q1868.84 1538.71 1868.84 1531.6 Q1868.84 1524.47 1867.01 1520.93 Q1865.2 1517.37 1861.57 1517.37 M1861.57 1513.66 Q1867.38 1513.66 1870.44 1518.27 Q1873.51 1522.85 1873.51 1531.6 Q1873.51 1540.33 1870.44 1544.94 Q1867.38 1549.52 1861.57 1549.52 Q1855.76 1549.52 1852.68 1544.94 Q1849.63 1540.33 1849.63 1531.6 Q1849.63 1522.85 1852.68 1518.27 Q1855.76 1513.66 1861.57 1513.66 Z" fill="#000000" fill-rule="nonzero" fill-opacity="1" /><path clip-path="url(#clip260)" d="M1891.73 1517.37 Q1888.12 1517.37 1886.29 1520.93 Q1884.49 1524.47 1884.49 1531.6 Q1884.49 1538.71 1886.29 1542.27 Q1888.12 1545.82 1891.73 1545.82 Q1895.37 1545.82 1897.17 1542.27 Q1899 1538.71 1899 1531.6 Q1899 1524.47 1897.17 1520.93 Q1895.37 1517.37 1891.73 1517.37 M1891.73 1513.66 Q1897.54 1513.66 1900.6 1518.27 Q1903.68 1522.85 1903.68 1531.6 Q1903.68 1540.33 1900.6 1544.94 Q1897.54 1549.52 1891.73 1549.52 Q1885.92 1549.52 1882.84 1544.94 Q1879.79 1540.33 1879.79 1531.6 Q1879.79 1522.85 1882.84 1518.27 Q1885.92 1513.66 1891.73 1513.66 Z" fill="#000000" fill-rule="nonzero" fill-opacity="1" /><path clip-path="url(#clip260)" d="M1921.89 1517.37 Q1918.28 1517.37 1916.45 1520.93 Q1914.65 1524.47 1914.65 1531.6 Q1914.65 1538.71 1916.45 1542.27 Q1918.28 1545.82 1921.89 1545.82 Q1925.53 1545.82 1927.33 1542.27 Q1929.16 1538.71 1929.16 1531.6 Q1929.16 1524.47 1927.33 1520.93 Q1925.53 1517.37 1921.89 1517.37 M1921.89 1513.66 Q1927.7 1513.66 1930.76 1518.27 Q1933.84 1522.85 1933.84 1531.6 Q1933.84 1540.33 1930.76 1544.94 Q1927.7 1549.52 1921.89 1549.52 Q1916.08 1549.52 1913 1544.94 Q1909.95 1540.33 1909.95 1531.6 Q1909.95 1522.85 1913 1518.27 Q1916.08 1513.66 1921.89 1513.66 Z" fill="#000000" fill-rule="nonzero" fill-opacity="1" /><path clip-path="url(#clip260)" d="M2240.03 1544.91 L2256.35 1544.91 L2256.35 1548.85 L2234.41 1548.85 L2234.41 1544.91 Q2237.07 1542.16 2241.65 1537.53 Q2246.26 1532.88 2247.44 1531.53 Q2249.68 1529.01 2250.56 1527.27 Q2251.47 1525.51 2251.47 1523.82 Q2251.47 1521.07 2249.52 1519.33 Q2247.6 1517.6 2244.5 1517.6 Q2242.3 1517.6 2239.85 1518.36 Q2237.42 1519.13 2234.64 1520.68 L2234.64 1515.95 Q2237.46 1514.82 2239.92 1514.24 Q2242.37 1513.66 2244.41 1513.66 Q2249.78 1513.66 2252.97 1516.35 Q2256.17 1519.03 2256.17 1523.52 Q2256.17 1525.65 2255.36 1527.57 Q2254.57 1529.47 2252.46 1532.07 Q2251.88 1532.74 2248.78 1535.95 Q2245.68 1539.15 2240.03 1544.91 Z" fill="#000000" fill-rule="nonzero" fill-opacity="1" /><path clip-path="url(#clip260)" d="M2266.21 1514.29 L2284.57 1514.29 L2284.57 1518.22 L2270.49 1518.22 L2270.49 1526.7 Q2271.51 1526.35 2272.53 1526.19 Q2273.55 1526 2274.57 1526 Q2280.36 1526 2283.74 1529.17 Q2287.11 1532.34 2287.11 1537.76 Q2287.11 1543.34 2283.64 1546.44 Q2280.17 1549.52 2273.85 1549.52 Q2271.68 1549.52 2269.41 1549.15 Q2267.16 1548.78 2264.75 1548.04 L2264.75 1543.34 Q2266.84 1544.47 2269.06 1545.03 Q2271.28 1545.58 2273.76 1545.58 Q2277.76 1545.58 2280.1 1543.48 Q2282.44 1541.37 2282.44 1537.76 Q2282.44 1534.15 2280.1 1532.04 Q2277.76 1529.94 2273.76 1529.94 Q2271.88 1529.94 2270.01 1530.35 Q2268.16 1530.77 2266.21 1531.65 L2266.21 1514.29 Z" fill="#000000" fill-rule="nonzero" fill-opacity="1" /><path clip-path="url(#clip260)" d="M2306.33 1517.37 Q2302.72 1517.37 2300.89 1520.93 Q2299.08 1524.47 2299.08 1531.6 Q2299.08 1538.71 2300.89 1542.27 Q2302.72 1545.82 2306.33 1545.82 Q2309.96 1545.82 2311.77 1542.27 Q2313.6 1538.71 2313.6 1531.6 Q2313.6 1524.47 2311.77 1520.93 Q2309.96 1517.37 2306.33 1517.37 M2306.33 1513.66 Q2312.14 1513.66 2315.19 1518.27 Q2318.27 1522.85 2318.27 1531.6 Q2318.27 1540.33 2315.19 1544.94 Q2312.14 1549.52 2306.33 1549.52 Q2300.52 1549.52 2297.44 1544.94 Q2294.38 1540.33 2294.38 1531.6 Q2294.38 1522.85 2297.44 1518.27 Q2300.52 1513.66 2306.33 1513.66 Z" fill="#000000" fill-rule="nonzero" fill-opacity="1" /><path clip-path="url(#clip260)" d="M2336.49 1517.37 Q2332.88 1517.37 2331.05 1520.93 Q2329.24 1524.47 2329.24 1531.6 Q2329.24 1538.71 2331.05 1542.27 Q2332.88 1545.82 2336.49 1545.82 Q2340.12 1545.82 2341.93 1542.27 Q2343.76 1538.71 2343.76 1531.6 Q2343.76 1524.47 2341.93 1520.93 Q2340.12 1517.37 2336.49 1517.37 M2336.49 1513.66 Q2342.3 1513.66 2345.36 1518.27 Q2348.43 1522.85 2348.43 1531.6 Q2348.43 1540.33 2345.36 1544.94 Q2342.3 1549.52 2336.49 1549.52 Q2330.68 1549.52 2327.6 1544.94 Q2324.55 1540.33 2324.55 1531.6 Q2324.55 1522.85 2327.6 1518.27 Q2330.68 1513.66 2336.49 1513.66 Z" fill="#000000" fill-rule="nonzero" fill-opacity="1" /><polyline clip-path="url(#clip262)" style="stroke:#000000; stroke-linecap:round; stroke-linejoin:round; stroke-width:2; stroke-opacity:0.1; fill:none" points="156.274,1294.86 2352.76,1294.86 "/>
<polyline clip-path="url(#clip262)" style="stroke:#000000; stroke-linecap:round; stroke-linejoin:round; stroke-width:2; stroke-opacity:0.1; fill:none" points="156.274,993.136 2352.76,993.136 "/>
<polyline clip-path="url(#clip262)" style="stroke:#000000; stroke-linecap:round; stroke-linejoin:round; stroke-width:2; stroke-opacity:0.1; fill:none" points="156.274,691.416 2352.76,691.416 "/>
<polyline clip-path="url(#clip262)" style="stroke:#000000; stroke-linecap:round; stroke-linejoin:round; stroke-width:2; stroke-opacity:0.1; fill:none" points="156.274,389.696 2352.76,389.696 "/>
<polyline clip-path="url(#clip262)" style="stroke:#000000; stroke-linecap:round; stroke-linejoin:round; stroke-width:2; stroke-opacity:0.1; fill:none" points="156.274,87.9763 2352.76,87.9763 "/>
<polyline clip-path="url(#clip260)" style="stroke:#000000; stroke-linecap:round; stroke-linejoin:round; stroke-width:4; stroke-opacity:1; fill:none" points="156.274,1486.45 156.274,47.2441 "/>
<polyline clip-path="url(#clip260)" style="stroke:#000000; stroke-linecap:round; stroke-linejoin:round; stroke-width:4; stroke-opacity:1; fill:none" points="156.274,1294.86 175.172,1294.86 "/>
<polyline clip-path="url(#clip260)" style="stroke:#000000; stroke-linecap:round; stroke-linejoin:round; stroke-width:4; stroke-opacity:1; fill:none" points="156.274,993.136 175.172,993.136 "/>
<polyline clip-path="url(#clip260)" style="stroke:#000000; stroke-linecap:round; stroke-linejoin:round; stroke-width:4; stroke-opacity:1; fill:none" points="156.274,691.416 175.172,691.416 "/>
<polyline clip-path="url(#clip260)" style="stroke:#000000; stroke-linecap:round; stroke-linejoin:round; stroke-width:4; stroke-opacity:1; fill:none" points="156.274,389.696 175.172,389.696 "/>
<polyline clip-path="url(#clip260)" style="stroke:#000000; stroke-linecap:round; stroke-linejoin:round; stroke-width:4; stroke-opacity:1; fill:none" points="156.274,87.9763 175.172,87.9763 "/>
<path clip-path="url(#clip260)" d="M62.9365 1280.65 Q59.3254 1280.65 57.4967 1284.22 Q55.6912 1287.76 55.6912 1294.89 Q55.6912 1302 57.4967 1305.56 Q59.3254 1309.1 62.9365 1309.1 Q66.5707 1309.1 68.3763 1305.56 Q70.205 1302 70.205 1294.89 Q70.205 1287.76 68.3763 1284.22 Q66.5707 1280.65 62.9365 1280.65 M62.9365 1276.95 Q68.7467 1276.95 71.8022 1281.56 Q74.8809 1286.14 74.8809 1294.89 Q74.8809 1303.62 71.8022 1308.22 Q68.7467 1312.81 62.9365 1312.81 Q57.1264 1312.81 54.0477 1308.22 Q50.9921 1303.62 50.9921 1294.89 Q50.9921 1286.14 54.0477 1281.56 Q57.1264 1276.95 62.9365 1276.95 Z" fill="#000000" fill-rule="nonzero" fill-opacity="1" /><path clip-path="url(#clip260)" d="M83.0984 1306.26 L87.9827 1306.26 L87.9827 1312.14 L83.0984 1312.14 L83.0984 1306.26 Z" fill="#000000" fill-rule="nonzero" fill-opacity="1" /><path clip-path="url(#clip260)" d="M108.746 1292.99 Q105.598 1292.99 103.746 1295.15 Q101.918 1297.3 101.918 1301.05 Q101.918 1304.77 103.746 1306.95 Q105.598 1309.1 108.746 1309.1 Q111.895 1309.1 113.723 1306.95 Q115.575 1304.77 115.575 1301.05 Q115.575 1297.3 113.723 1295.15 Q111.895 1292.99 108.746 1292.99 M118.029 1278.34 L118.029 1282.6 Q116.27 1281.77 114.464 1281.33 Q112.682 1280.89 110.922 1280.89 Q106.293 1280.89 103.839 1284.01 Q101.409 1287.14 101.061 1293.46 Q102.427 1291.44 104.487 1290.38 Q106.547 1289.29 109.024 1289.29 Q114.233 1289.29 117.242 1292.46 Q120.274 1295.61 120.274 1301.05 Q120.274 1306.37 117.126 1309.59 Q113.978 1312.81 108.746 1312.81 Q102.751 1312.81 99.5798 1308.22 Q96.4085 1303.62 96.4085 1294.89 Q96.4085 1286.7 100.297 1281.83 Q104.186 1276.95 110.737 1276.95 Q112.496 1276.95 114.279 1277.3 Q116.084 1277.65 118.029 1278.34 Z" fill="#000000" fill-rule="nonzero" fill-opacity="1" /><path clip-path="url(#clip260)" d="M64.0013 978.935 Q60.3902 978.935 58.5615 982.499 Q56.756 986.041 56.756 993.171 Q56.756 1000.28 58.5615 1003.84 Q60.3902 1007.38 64.0013 1007.38 Q67.6356 1007.38 69.4411 1003.84 Q71.2698 1000.28 71.2698 993.171 Q71.2698 986.041 69.4411 982.499 Q67.6356 978.935 64.0013 978.935 M64.0013 975.231 Q69.8115 975.231 72.867 979.837 Q75.9457 984.421 75.9457 993.171 Q75.9457 1001.9 72.867 1006.5 Q69.8115 1011.09 64.0013 1011.09 Q58.1912 1011.09 55.1125 1006.5 Q52.0569 1001.9 52.0569 993.171 Q52.0569 984.421 55.1125 979.837 Q58.1912 975.231 64.0013 975.231 Z" fill="#000000" fill-rule="nonzero" fill-opacity="1" /><path clip-path="url(#clip260)" d="M84.1632 1004.54 L89.0475 1004.54 L89.0475 1010.42 L84.1632 1010.42 L84.1632 1004.54 Z" fill="#000000" fill-rule="nonzero" fill-opacity="1" /><path clip-path="url(#clip260)" d="M98.0521 975.856 L120.274 975.856 L120.274 977.847 L107.728 1010.42 L102.844 1010.42 L114.649 979.791 L98.0521 979.791 L98.0521 975.856 Z" fill="#000000" fill-rule="nonzero" fill-opacity="1" /><path clip-path="url(#clip260)" d="M63.1911 677.215 Q59.58 677.215 57.7513 680.779 Q55.9458 684.321 55.9458 691.451 Q55.9458 698.557 57.7513 702.122 Q59.58 705.664 63.1911 705.664 Q66.8254 705.664 68.6309 702.122 Q70.4596 698.557 70.4596 691.451 Q70.4596 684.321 68.6309 680.779 Q66.8254 677.215 63.1911 677.215 M63.1911 673.511 Q69.0013 673.511 72.0568 678.117 Q75.1355 682.701 75.1355 691.451 Q75.1355 700.178 72.0568 704.784 Q69.0013 709.367 63.1911 709.367 Q57.381 709.367 54.3023 704.784 Q51.2468 700.178 51.2468 691.451 Q51.2468 682.701 54.3023 678.117 Q57.381 673.511 63.1911 673.511 Z" fill="#000000" fill-rule="nonzero" fill-opacity="1" /><path clip-path="url(#clip260)" d="M83.3531 702.816 L88.2373 702.816 L88.2373 708.696 L83.3531 708.696 L83.3531 702.816 Z" fill="#000000" fill-rule="nonzero" fill-opacity="1" /><path clip-path="url(#clip260)" d="M108.422 692.284 Q105.089 692.284 103.168 694.066 Q101.27 695.849 101.27 698.974 Q101.27 702.099 103.168 703.881 Q105.089 705.664 108.422 705.664 Q111.756 705.664 113.677 703.881 Q115.598 702.076 115.598 698.974 Q115.598 695.849 113.677 694.066 Q111.779 692.284 108.422 692.284 M103.746 690.293 Q100.737 689.553 99.0474 687.492 Q97.3808 685.432 97.3808 682.469 Q97.3808 678.326 100.321 675.918 Q103.284 673.511 108.422 673.511 Q113.584 673.511 116.524 675.918 Q119.464 678.326 119.464 682.469 Q119.464 685.432 117.774 687.492 Q116.108 689.553 113.121 690.293 Q116.501 691.08 118.376 693.372 Q120.274 695.664 120.274 698.974 Q120.274 703.997 117.195 706.682 Q114.14 709.367 108.422 709.367 Q102.705 709.367 99.6261 706.682 Q96.5706 703.997 96.5706 698.974 Q96.5706 695.664 98.4687 693.372 Q100.367 691.08 103.746 690.293 M102.034 682.909 Q102.034 685.594 103.7 687.099 Q105.39 688.604 108.422 688.604 Q111.432 688.604 113.121 687.099 Q114.834 685.594 114.834 682.909 Q114.834 680.224 113.121 678.719 Q111.432 677.215 108.422 677.215 Q105.39 677.215 103.7 678.719 Q102.034 680.224 102.034 682.909 Z" fill="#000000" fill-rule="nonzero" fill-opacity="1" /><path clip-path="url(#clip260)" d="M63.2837 375.495 Q59.6726 375.495 57.8439 379.06 Q56.0384 382.601 56.0384 389.731 Q56.0384 396.837 57.8439 400.402 Q59.6726 403.944 63.2837 403.944 Q66.918 403.944 68.7235 400.402 Q70.5522 396.837 70.5522 389.731 Q70.5522 382.601 68.7235 379.06 Q66.918 375.495 63.2837 375.495 M63.2837 371.791 Q69.0939 371.791 72.1494 376.398 Q75.2281 380.981 75.2281 389.731 Q75.2281 398.458 72.1494 403.064 Q69.0939 407.647 63.2837 407.647 Q57.4736 407.647 54.3949 403.064 Q51.3393 398.458 51.3393 389.731 Q51.3393 380.981 54.3949 376.398 Q57.4736 371.791 63.2837 371.791 Z" fill="#000000" fill-rule="nonzero" fill-opacity="1" /><path clip-path="url(#clip260)" d="M83.4457 401.097 L88.3299 401.097 L88.3299 406.976 L83.4457 406.976 L83.4457 401.097 Z" fill="#000000" fill-rule="nonzero" fill-opacity="1" /><path clip-path="url(#clip260)" d="M98.6539 406.259 L98.6539 401.999 Q100.413 402.833 102.219 403.272 Q104.024 403.712 105.76 403.712 Q110.39 403.712 112.82 400.61 Q115.274 397.485 115.621 391.143 Q114.279 393.134 112.219 394.198 Q110.158 395.263 107.658 395.263 Q102.473 395.263 99.4409 392.138 Q96.4317 388.99 96.4317 383.55 Q96.4317 378.226 99.5798 375.009 Q102.728 371.791 107.959 371.791 Q113.955 371.791 117.103 376.398 Q120.274 380.981 120.274 389.731 Q120.274 397.902 116.385 402.786 Q112.52 407.647 105.969 407.647 Q104.209 407.647 102.404 407.3 Q100.598 406.953 98.6539 406.259 M107.959 391.606 Q111.108 391.606 112.936 389.453 Q114.788 387.3 114.788 383.55 Q114.788 379.824 112.936 377.671 Q111.108 375.495 107.959 375.495 Q104.811 375.495 102.959 377.671 Q101.131 379.824 101.131 383.55 Q101.131 387.3 102.959 389.453 Q104.811 391.606 107.959 391.606 Z" fill="#000000" fill-rule="nonzero" fill-opacity="1" /><path clip-path="url(#clip260)" d="M53.9088 101.321 L61.5476 101.321 L61.5476 74.9555 L53.2375 76.6222 L53.2375 72.3629 L61.5013 70.6963 L66.1772 70.6963 L66.1772 101.321 L73.8161 101.321 L73.8161 105.256 L53.9088 105.256 L53.9088 101.321 Z" fill="#000000" fill-rule="nonzero" fill-opacity="1" /><path clip-path="url(#clip260)" d="M83.2605 99.3767 L88.1447 99.3767 L88.1447 105.256 L83.2605 105.256 L83.2605 99.3767 Z" fill="#000000" fill-rule="nonzero" fill-opacity="1" /><path clip-path="url(#clip260)" d="M108.33 73.775 Q104.719 73.775 102.89 77.3398 Q101.084 80.8814 101.084 88.011 Q101.084 95.1174 102.89 98.6822 Q104.719 102.224 108.33 102.224 Q111.964 102.224 113.77 98.6822 Q115.598 95.1174 115.598 88.011 Q115.598 80.8814 113.77 77.3398 Q111.964 73.775 108.33 73.775 M108.33 70.0713 Q114.14 70.0713 117.195 74.6777 Q120.274 79.261 120.274 88.011 Q120.274 96.7378 117.195 101.344 Q114.14 105.928 108.33 105.928 Q102.52 105.928 99.4409 101.344 Q96.3854 96.7378 96.3854 88.011 Q96.3854 79.261 99.4409 74.6777 Q102.52 70.0713 108.33 70.0713 Z" fill="#000000" fill-rule="nonzero" fill-opacity="1" /><polyline clip-path="url(#clip262)" style="stroke:#009af9; stroke-linecap:round; stroke-linejoin:round; stroke-width:4; stroke-opacity:1; fill:none" points="218.439,1264.68 219.268,1098.74 220.097,1264.68 220.926,1234.51 221.756,1264.68 222.585,1340.11 223.414,1159.08 224.243,1068.57 225.072,1294.86 225.901,1264.68 226.731,1098.74 227.56,1098.74 228.389,1279.77 229.218,1309.94 230.047,1038.39 230.877,1083.65 231.706,1053.48 232.535,1098.74 233.364,1234.51 234.193,1355.2 235.023,1023.31 235.852,1264.68 236.681,1144 237.51,1083.65 238.339,1174.17 239.169,1128.91 239.998,1159.08 240.827,932.792 241.656,1204.34 242.485,1400.46 243.315,1445.72 244.144,1189.25 244.973,1083.65 245.802,1340.11 246.631,1264.68 247.46,1355.2 248.29,1249.6 249.119,1189.25 249.948,1189.25 250.777,1355.2 251.606,1038.39 252.436,1083.65 253.265,1023.31 254.094,1249.6 254.923,1249.6 255.752,1234.51 256.582,1219.43 257.411,978.05 258.24,1128.91 259.069,1098.74 259.898,1083.65 260.728,1340.11 261.557,1098.74 262.386,1174.17 263.215,1174.17 264.044,978.05 264.874,1098.74 265.703,1279.77 266.532,947.878 267.361,1023.31 268.19,1038.39 269.019,1189.25 269.849,1325.03 270.678,1053.48 271.507,1264.68 272.336,1098.74 273.165,978.05 273.995,1144 274.824,1068.57 275.653,1128.91 276.482,1098.74 277.311,1083.65 278.141,1113.82 278.97,1219.43 279.799,1098.74 280.628,932.792 281.457,978.05 282.287,1008.22 283.116,1128.91 283.945,1113.82 284.774,1204.34 285.603,1264.68 286.433,1008.22 287.262,1128.91 288.091,1174.17 288.92,1008.22 289.749,1023.31 290.579,1144 291.408,1023.31 292.237,1159.08 293.066,978.05 293.895,736.674 294.724,1128.91 295.554,1053.48 296.383,1038.39 297.212,1113.82 298.041,993.136 298.87,857.362 299.7,902.62 300.529,993.136 301.358,827.19 302.187,1053.48 303.016,887.534 303.846,993.136 304.675,872.448 305.504,1023.31 306.333,978.05 307.162,1008.22 307.992,1249.6 308.821,978.05 309.65,1053.48 310.479,993.136 311.308,902.62 312.138,797.018 312.967,917.706 313.796,902.62 314.625,812.104 315.454,1053.48 316.283,827.19 317.113,932.792 317.942,917.706 318.771,917.706 319.6,646.158 320.429,902.62 321.259,993.136 322.088,766.846 322.917,902.62 323.746,917.706 324.575,1023.31 325.405,781.932 326.234,857.362 327.063,947.878 327.892,781.932 328.721,902.62 329.551,993.136 330.38,766.846 331.209,721.588 332.038,857.362 332.867,902.62 333.697,766.846 334.526,902.62 335.355,1038.39 336.184,736.674 337.013,932.792 337.842,781.932 338.672,751.76 339.501,751.76 340.33,917.706 341.159,676.33 341.988,766.846 342.818,721.588 343.647,797.018 344.476,827.19 345.305,721.588 346.134,721.588 346.964,751.76 347.793,812.104 348.622,661.244 349.451,721.588 350.28,827.19 351.11,706.502 351.939,691.416 352.768,751.76 353.597,691.416 354.426,691.416 355.256,585.814 356.085,751.76 356.914,797.018 357.743,766.846 358.572,676.33 359.402,812.104 360.231,585.814 361.06,676.33 361.889,646.158 362.718,706.502 363.547,570.728 364.377,661.244 365.206,661.244 366.035,631.072 366.864,615.986 367.693,631.072 368.523,661.244 369.352,646.158 370.181,691.416 371.01,615.986 371.839,585.814 372.669,661.244 373.498,631.072 374.327,585.814 375.156,721.588 375.985,646.158 376.815,691.416 377.644,676.33 378.473,691.416 379.302,585.814 380.131,465.126 380.961,419.868 381.79,615.986 382.619,766.846 383.448,751.76 384.277,465.126 385.106,615.986 385.936,525.47 386.765,691.416 387.594,615.986 388.423,631.072 389.252,540.556 390.082,540.556 390.911,585.814 391.74,525.47 392.569,691.416 393.398,570.728 394.228,525.47 395.057,646.158 395.886,555.642 396.715,540.556 397.544,510.384 398.374,676.33 399.203,480.212 400.032,615.986 400.861,510.384 401.69,419.868 402.52,646.158 403.349,480.212 404.178,525.47 405.007,570.728 405.836,525.47 406.665,600.9 407.495,525.47 408.324,600.9 409.153,450.04 409.982,495.298 410.811,585.814 411.641,600.9 412.47,570.728 413.299,495.298 414.128,495.298 414.957,570.728 415.787,389.696 416.616,540.556 417.445,389.696 418.274,510.384 419.103,540.556 419.933,389.696 420.762,465.126 421.591,555.642 422.42,389.696 423.249,540.556 424.079,450.04 424.908,495.298 425.737,525.47 426.566,434.954 427.395,480.212 428.224,540.556 429.054,434.954 429.883,540.556 430.712,374.61 431.541,631.072 432.37,404.782 433.2,525.47 434.029,404.782 434.858,329.352 435.687,450.04 436.516,555.642 437.346,419.868 438.175,329.352 439.004,510.384 439.833,450.04 440.662,480.212 441.492,389.696 442.321,389.696 443.15,389.696 443.979,540.556 444.808,465.126 445.638,434.954 446.467,404.782 447.296,419.868 448.125,314.266 448.954,480.212 449.784,465.126 450.613,389.696 451.442,465.126 452.271,570.728 453.1,434.954 453.929,329.352 454.759,374.61 455.588,404.782 456.417,389.696 457.246,510.384 458.075,419.868 458.905,495.298 459.734,389.696 460.563,434.954 461.392,525.47 462.221,434.954 463.051,404.782 463.88,480.212 464.709,389.696 465.538,465.126 466.367,404.782 467.197,314.266 468.026,450.04 468.855,404.782 469.684,419.868 470.513,314.266 471.343,615.986 472.172,450.04 473.001,329.352 473.83,450.04 474.659,510.384 475.488,374.61 476.318,344.438 477.147,404.782 477.976,374.61 478.805,419.868 479.634,253.922 480.464,299.18 481.293,389.696 482.122,374.61 482.951,359.524 483.78,404.782 484.61,344.438 485.439,314.266 486.268,329.352 487.097,374.61 487.926,314.266 488.756,344.438 489.585,480.212 490.414,359.524 491.243,344.438 492.072,495.298 492.902,299.18 493.731,570.728 494.56,374.61 495.389,344.438 496.218,253.922 497.047,434.954 497.877,434.954 498.706,450.04 499.535,434.954 500.364,223.75 501.193,344.438 502.023,419.868 502.852,419.868 503.681,344.438 504.51,344.438 505.339,133.234 506.169,374.61 506.998,434.954 507.827,374.61 508.656,299.18 509.485,284.094 510.315,404.782 511.144,284.094 511.973,314.266 512.802,389.696 513.631,389.696 514.461,359.524 515.29,419.868 516.119,344.438 516.948,299.18 517.777,419.868 518.607,419.868 519.436,374.61 520.265,374.61 521.094,299.18 521.923,359.524 522.752,389.696 523.582,359.524 524.411,193.578 525.24,434.954 526.069,238.836 526.898,284.094 527.728,238.836 528.557,434.954 529.386,434.954 530.215,253.922 531.044,314.266 531.874,389.696 532.703,314.266 533.532,374.61 534.361,389.696 535.19,344.438 536.02,404.782 536.849,359.524 537.678,253.922 538.507,284.094 539.336,223.75 540.166,404.782 540.995,359.524 541.824,329.352 542.653,299.18 543.482,269.008 544.311,238.836 545.141,374.61 545.97,389.696 546.799,284.094 547.628,314.266 548.457,299.18 549.287,344.438 550.116,253.922 550.945,299.18 551.774,253.922 552.603,329.352 553.433,314.266 554.262,299.18 555.091,284.094 555.92,238.836 556.749,299.18 557.579,193.578 558.408,314.266 559.237,299.18 560.066,314.266 560.895,344.438 561.725,374.61 562.554,269.008 563.383,344.438 564.212,404.782 565.041,238.836 565.87,389.696 566.7,374.61 567.529,284.094 568.358,299.18 569.187,238.836 570.016,374.61 570.846,299.18 571.675,299.18 572.504,314.266 573.333,314.266 574.162,269.008 574.992,238.836 575.821,299.18 576.65,238.836 577.479,329.352 578.308,253.922 579.138,299.18 579.967,299.18 580.796,269.008 581.625,299.18 582.454,284.094 583.284,253.922 584.113,193.578 584.942,253.922 585.771,238.836 586.6,299.18 587.429,299.18 588.259,344.438 589.088,253.922 589.917,329.352 590.746,299.18 591.575,404.782 592.405,284.094 593.234,314.266 594.063,299.18 594.892,269.008 595.721,465.126 596.551,208.664 597.38,284.094 598.209,434.954 599.038,344.438 599.867,223.75 600.697,238.836 601.526,193.578 602.355,253.922 603.184,193.578 604.013,284.094 604.843,344.438 605.672,253.922 606.501,389.696 607.33,253.922 608.159,344.438 608.989,299.18 609.818,223.75 610.647,359.524 611.476,284.094 612.305,284.094 613.134,269.008 613.964,238.836 614.793,193.578 615.622,284.094 616.451,193.578 617.28,253.922 618.11,238.836 618.939,299.18 619.768,269.008 620.597,284.094 621.426,253.922 622.256,269.008 623.085,253.922 623.914,299.18 624.743,374.61 625.572,314.266 626.402,253.922 627.231,238.836 628.06,284.094 628.889,253.922 629.718,253.922 630.548,223.75 631.377,238.836 632.206,208.664 633.035,208.664 633.864,253.922 634.693,253.922 635.523,299.18 636.352,223.75 637.181,238.836 638.01,299.18 638.839,314.266 639.669,314.266 640.498,193.578 641.327,253.922 642.156,284.094 642.985,299.18 643.815,178.492 644.644,223.75 645.473,178.492 646.302,238.836 647.131,314.266 647.961,223.75 648.79,253.922 649.619,284.094 650.448,223.75 651.277,404.782 652.107,253.922 652.936,238.836 653.765,299.18 654.594,148.32 655.423,238.836 656.252,223.75 657.082,314.266 657.911,253.922 658.74,299.18 659.569,329.352 660.398,223.75 661.228,284.094 662.057,269.008 662.886,269.008 663.715,269.008 664.544,284.094 665.374,178.492 666.203,253.922 667.032,299.18 667.861,299.18 668.69,284.094 669.52,253.922 670.349,238.836 671.178,329.352 672.007,269.008 672.836,223.75 673.666,238.836 674.495,269.008 675.324,223.75 676.153,253.922 676.982,389.696 677.812,284.094 678.641,208.664 679.47,223.75 680.299,238.836 681.128,193.578 681.957,208.664 682.787,344.438 683.616,284.094 684.445,299.18 685.274,208.664 686.103,193.578 686.933,253.922 687.762,269.008 688.591,253.922 689.42,208.664 690.249,253.922 691.079,163.406 691.908,314.266 692.737,269.008 693.566,238.836 694.395,284.094 695.225,269.008 696.054,299.18 696.883,253.922 697.712,148.32 698.541,208.664 699.371,148.32 700.2,314.266 701.029,359.524 701.858,253.922 702.687,178.492 703.516,344.438 704.346,223.75 705.175,193.578 706.004,208.664 706.833,253.922 707.662,253.922 708.492,253.922 709.321,223.75 710.15,223.75 710.979,329.352 711.808,148.32 712.638,208.664 713.467,178.492 714.296,163.406 715.125,208.664 715.954,223.75 716.784,178.492 717.613,269.008 718.442,163.406 719.271,253.922 720.1,284.094 720.93,178.492 721.759,178.492 722.588,253.922 723.417,223.75 724.246,208.664 725.075,329.352 725.905,208.664 726.734,223.75 727.563,284.094 728.392,284.094 729.221,269.008 730.051,284.094 730.88,223.75 731.709,193.578 732.538,208.664 733.367,193.578 734.197,253.922 735.026,208.664 735.855,193.578 736.684,223.75 737.513,253.922 738.343,193.578 739.172,163.406 740.001,178.492 740.83,118.148 741.659,223.75 742.489,193.578 743.318,314.266 744.147,178.492 744.976,223.75 745.805,208.664 746.634,178.492 747.464,223.75 748.293,193.578 749.122,208.664 749.951,269.008 750.78,253.922 751.61,163.406 752.439,193.578 753.268,178.492 754.097,193.578 754.926,208.664 755.756,238.836 756.585,208.664 757.414,208.664 758.243,223.75 759.072,238.836 759.902,269.008 760.731,253.922 761.56,208.664 762.389,223.75 763.218,253.922 764.048,238.836 764.877,223.75 765.706,223.75 766.535,208.664 767.364,223.75 768.194,238.836 769.023,193.578 769.852,178.492 770.681,253.922 771.51,253.922 772.339,193.578 773.169,208.664 773.998,178.492 774.827,208.664 775.656,269.008 776.485,208.664 777.315,208.664 778.144,238.836 778.973,208.664 779.802,223.75 780.631,314.266 781.461,253.922 782.29,118.148 783.119,284.094 783.948,178.492 784.777,178.492 785.607,238.836 786.436,253.922 787.265,178.492 788.094,269.008 788.923,284.094 789.753,178.492 790.582,163.406 791.411,148.32 792.24,208.664 793.069,148.32 793.898,163.406 794.728,253.922 795.557,208.664 796.386,253.922 797.215,284.094 798.044,178.492 798.874,178.492 799.703,178.492 800.532,163.406 801.361,223.75 802.19,269.008 803.02,238.836 803.849,163.406 804.678,193.578 805.507,193.578 806.336,103.062 807.166,223.75 807.995,178.492 808.824,193.578 809.653,163.406 810.482,178.492 811.312,223.75 812.141,163.406 812.97,253.922 813.799,148.32 814.628,253.922 815.457,208.664 816.287,238.836 817.116,148.32 817.945,193.578 818.774,269.008 819.603,148.32 820.433,238.836 821.262,163.406 822.091,163.406 822.92,208.664 823.749,223.75 824.579,253.922 825.408,238.836 826.237,238.836 827.066,148.32 827.895,253.922 828.725,208.664 829.554,193.578 830.383,208.664 831.212,193.578 832.041,269.008 832.871,178.492 833.7,208.664 834.529,208.664 835.358,193.578 836.187,223.75 837.017,208.664 837.846,148.32 838.675,208.664 839.504,118.148 840.333,223.75 841.162,163.406 841.992,193.578 842.821,238.836 843.65,208.664 844.479,178.492 845.308,238.836 846.138,133.234 846.967,223.75 847.796,148.32 848.625,133.234 849.454,223.75 850.284,193.578 851.113,148.32 851.942,223.75 852.771,178.492 853.6,223.75 854.43,208.664 855.259,148.32 856.088,238.836 856.917,253.922 857.746,238.836 858.576,238.836 859.405,193.578 860.234,208.664 861.063,269.008 861.892,163.406 862.721,284.094 863.551,223.75 864.38,208.664 865.209,193.578 866.038,238.836 866.867,223.75 867.697,208.664 868.526,253.922 869.355,163.406 870.184,193.578 871.013,223.75 871.843,133.234 872.672,193.578 873.501,223.75 874.33,223.75 875.159,178.492 875.989,208.664 876.818,238.836 877.647,163.406 878.476,253.922 879.305,223.75 880.135,314.266 880.964,208.664 881.793,163.406 882.622,178.492 883.451,238.836 884.28,208.664 885.11,148.32 885.939,238.836 886.768,178.492 887.597,133.234 888.426,253.922 889.256,284.094 890.085,223.75 890.914,163.406 891.743,163.406 892.572,314.266 893.402,133.234 894.231,163.406 895.06,148.32 895.889,163.406 896.718,253.922 897.548,163.406 898.377,148.32 899.206,223.75 900.035,193.578 900.864,208.664 901.694,238.836 902.523,238.836 903.352,238.836 904.181,238.836 905.01,238.836 905.839,163.406 906.669,148.32 907.498,193.578 908.327,178.492 909.156,178.492 909.985,163.406 910.815,178.492 911.644,178.492 912.473,178.492 913.302,208.664 914.131,178.492 914.961,238.836 915.79,208.664 916.619,299.18 917.448,238.836 918.277,178.492 919.107,178.492 919.936,269.008 920.765,253.922 921.594,163.406 922.423,193.578 923.253,163.406 924.082,163.406 924.911,163.406 925.74,148.32 926.569,133.234 927.399,163.406 928.228,178.492 929.057,178.492 929.886,253.922 930.715,193.578 931.544,163.406 932.374,178.492 933.203,208.664 934.032,193.578 934.861,103.062 935.69,329.352 936.52,193.578 937.349,223.75 938.178,163.406 939.007,193.578 939.836,223.75 940.666,178.492 941.495,193.578 942.324,238.836 943.153,163.406 943.982,193.578 944.812,133.234 945.641,178.492 946.47,103.062 947.299,148.32 948.128,178.492 948.958,223.75 949.787,193.578 950.616,208.664 951.445,148.32 952.274,163.406 953.103,208.664 953.933,163.406 954.762,208.664 955.591,208.664 956.42,133.234 957.249,87.9763 958.079,178.492 958.908,178.492 959.737,163.406 960.566,148.32 961.395,253.922 962.225,223.75 963.054,238.836 963.883,163.406 964.712,193.578 965.541,178.492 966.371,163.406 967.2,223.75 968.029,193.578 968.858,148.32 969.687,163.406 970.517,163.406 971.346,193.578 972.175,253.922 973.004,148.32 973.833,193.578 974.662,163.406 975.492,269.008 976.321,148.32 977.15,208.664 977.979,163.406 978.808,178.492 979.638,178.492 980.467,148.32 981.296,253.922 982.125,163.406 982.954,148.32 983.784,193.578 984.613,178.492 985.442,148.32 986.271,103.062 987.1,118.148 987.93,223.75 988.759,148.32 989.588,118.148 990.417,178.492 991.246,148.32 992.076,193.578 992.905,118.148 993.734,193.578 994.563,193.578 995.392,148.32 996.222,208.664 997.051,87.9763 997.88,163.406 998.709,148.32 999.538,163.406 1000.37,133.234 1001.2,269.008 1002.03,163.406 1002.86,178.492 1003.68,178.492 1004.51,163.406 1005.34,163.406 1006.17,148.32 1007,178.492 1007.83,133.234 1008.66,163.406 1009.49,148.32 1010.32,103.062 1011.15,178.492 1011.98,208.664 1012.81,178.492 1013.63,163.406 1014.46,133.234 1015.29,163.406 1016.12,163.406 1016.95,133.234 1017.78,133.234 1018.61,223.75 1019.44,148.32 1020.27,178.492 1021.1,163.406 1021.93,163.406 1022.76,148.32 1023.58,178.492 1024.41,148.32 1025.24,193.578 1026.07,163.406 1026.9,163.406 1027.73,148.32 1028.56,133.234 1029.39,148.32 1030.22,163.406 1031.05,148.32 1031.88,193.578 1032.71,208.664 1033.54,163.406 1034.36,193.578 1035.19,193.578 1036.02,163.406 1036.85,253.922 1037.68,178.492 1038.51,163.406 1039.34,178.492 1040.17,148.32 1041,163.406 1041.83,178.492 1042.66,163.406 1043.49,208.664 1044.31,178.492 1045.14,208.664 1045.97,148.32 1046.8,163.406 1047.63,163.406 1048.46,163.406 1049.29,193.578 1050.12,269.008 1050.95,193.578 1051.78,178.492 1052.61,238.836 1053.44,223.75 1054.26,133.234 1055.09,208.664 1055.92,118.148 1056.75,193.578 1057.58,193.578 1058.41,118.148 1059.24,133.234 1060.07,163.406 1060.9,133.234 1061.73,223.75 1062.56,133.234 1063.39,148.32 1064.22,208.664 1065.04,118.148 1065.87,163.406 1066.7,178.492 1067.53,163.406 1068.36,133.234 1069.19,238.836 1070.02,238.836 1070.85,148.32 1071.68,148.32 1072.51,118.148 1073.34,163.406 1074.17,163.406 1074.99,118.148 1075.82,163.406 1076.65,163.406 1077.48,133.234 1078.31,133.234 1079.14,133.234 1079.97,223.75 1080.8,253.922 1081.63,163.406 1082.46,133.234 1083.29,118.148 1084.12,118.148 1084.95,103.062 1085.77,148.32 1086.6,178.492 1087.43,148.32 1088.26,118.148 1089.09,178.492 1089.92,133.234 1090.75,148.32 1091.58,223.75 1092.41,178.492 1093.24,163.406 1094.07,178.492 1094.9,148.32 1095.72,118.148 1096.55,148.32 1097.38,118.148 1098.21,133.234 1099.04,178.492 1099.87,148.32 1100.7,148.32 1101.53,178.492 1102.36,208.664 1103.19,178.492 1104.02,178.492 1104.85,208.664 1105.67,118.148 1106.5,178.492 1107.33,133.234 1108.16,148.32 1108.99,163.406 1109.82,148.32 1110.65,223.75 1111.48,178.492 1112.31,178.492 1113.14,163.406 1113.97,163.406 1114.8,163.406 1115.63,193.578 1116.45,193.578 1117.28,208.664 1118.11,178.492 1118.94,208.664 1119.77,163.406 1120.6,118.148 1121.43,178.492 1122.26,208.664 1123.09,163.406 1123.92,163.406 1124.75,133.234 1125.58,148.32 1126.4,208.664 1127.23,148.32 1128.06,178.492 1128.89,148.32 1129.72,148.32 1130.55,178.492 1131.38,238.836 1132.21,178.492 1133.04,148.32 1133.87,148.32 1134.7,133.234 1135.53,118.148 1136.36,193.578 1137.18,163.406 1138.01,208.664 1138.84,133.234 1139.67,193.578 1140.5,208.664 1141.33,163.406 1142.16,193.578 1142.99,118.148 1143.82,148.32 1144.65,163.406 1145.48,163.406 1146.31,118.148 1147.13,178.492 1147.96,133.234 1148.79,148.32 1149.62,238.836 1150.45,103.062 1151.28,148.32 1152.11,163.406 1152.94,148.32 1153.77,223.75 1154.6,118.148 1155.43,148.32 1156.26,208.664 1157.08,148.32 1157.91,148.32 1158.74,133.234 1159.57,208.664 1160.4,208.664 1161.23,118.148 1162.06,133.234 1162.89,253.922 1163.72,193.578 1164.55,193.578 1165.38,223.75 1166.21,163.406 1167.04,163.406 1167.86,193.578 1168.69,148.32 1169.52,163.406 1170.35,223.75 1171.18,133.234 1172.01,118.148 1172.84,103.062 1173.67,148.32 1174.5,193.578 1175.33,163.406 1176.16,178.492 1176.99,118.148 1177.81,133.234 1178.64,118.148 1179.47,223.75 1180.3,163.406 1181.13,148.32 1181.96,193.578 1182.79,208.664 1183.62,178.492 1184.45,163.406 1185.28,208.664 1186.11,148.32 1186.94,163.406 1187.77,148.32 1188.59,163.406 1189.42,118.148 1190.25,163.406 1191.08,148.32 1191.91,178.492 1192.74,223.75 1193.57,178.492 1194.4,178.492 1195.23,238.836 1196.06,118.148 1196.89,118.148 1197.72,193.578 1198.54,148.32 1199.37,103.062 1200.2,148.32 1201.03,118.148 1201.86,148.32 1202.69,118.148 1203.52,118.148 1204.35,163.406 1205.18,133.234 1206.01,133.234 1206.84,163.406 1207.67,208.664 1208.49,118.148 1209.32,163.406 1210.15,118.148 1210.98,193.578 1211.81,133.234 1212.64,193.578 1213.47,133.234 1214.3,208.664 1215.13,208.664 1215.96,148.32 1216.79,163.406 1217.62,178.492 1218.45,148.32 1219.27,178.492 1220.1,103.062 1220.93,223.75 1221.76,163.406 1222.59,118.148 1223.42,193.578 1224.25,163.406 1225.08,193.578 1225.91,193.578 1226.74,163.406 1227.57,178.492 1228.4,208.664 1229.22,103.062 1230.05,148.32 1230.88,163.406 1231.71,163.406 1232.54,163.406 1233.37,148.32 1234.2,148.32 1235.03,193.578 1235.86,163.406 1236.69,178.492 1237.52,103.062 1238.35,178.492 1239.17,133.234 1240,178.492 1240.83,118.148 1241.66,208.664 1242.49,148.32 1243.32,208.664 1244.15,193.578 1244.98,193.578 1245.81,148.32 1246.64,208.664 1247.47,118.148 1248.3,148.32 1249.13,133.234 1249.95,133.234 1250.78,163.406 1251.61,148.32 1252.44,103.062 1253.27,193.578 1254.1,118.148 1254.93,133.234 1255.76,178.492 1256.59,223.75 1257.42,148.32 1258.25,133.234 1259.08,118.148 1259.9,133.234 1260.73,118.148 1261.56,103.062 1262.39,133.234 1263.22,118.148 1264.05,133.234 1264.88,148.32 1265.71,178.492 1266.54,103.062 1267.37,163.406 1268.2,148.32 1269.03,148.32 1269.86,133.234 1270.68,163.406 1271.51,148.32 1272.34,178.492 1273.17,178.492 1274,193.578 1274.83,118.148 1275.66,118.148 1276.49,87.9763 1277.32,133.234 1278.15,133.234 1278.98,223.75 1279.81,163.406 1280.63,178.492 1281.46,118.148 1282.29,178.492 1283.12,118.148 1283.95,103.062 1284.78,133.234 1285.61,133.234 1286.44,193.578 1287.27,178.492 1288.1,133.234 1288.93,208.664 1289.76,133.234 1290.58,118.148 1291.41,118.148 1292.24,148.32 1293.07,148.32 1293.9,148.32 1294.73,118.148 1295.56,163.406 1296.39,133.234 1297.22,133.234 1298.05,163.406 1298.88,148.32 1299.71,133.234 1300.54,118.148 1301.36,133.234 1302.19,163.406 1303.02,163.406 1303.85,163.406 1304.68,133.234 1305.51,118.148 1306.34,178.492 1307.17,133.234 1308,148.32 1308.83,163.406 1309.66,223.75 1310.49,118.148 1311.31,163.406 1312.14,223.75 1312.97,103.062 1313.8,133.234 1314.63,133.234 1315.46,193.578 1316.29,163.406 1317.12,163.406 1317.95,178.492 1318.78,133.234 1319.61,238.836 1320.44,178.492 1321.27,163.406 1322.09,133.234 1322.92,193.578 1323.75,133.234 1324.58,148.32 1325.41,163.406 1326.24,178.492 1327.07,118.148 1327.9,148.32 1328.73,178.492 1329.56,133.234 1330.39,178.492 1331.22,163.406 1332.04,133.234 1332.87,118.148 1333.7,118.148 1334.53,163.406 1335.36,133.234 1336.19,178.492 1337.02,148.32 1337.85,133.234 1338.68,118.148 1339.51,118.148 1340.34,163.406 1341.17,118.148 1341.99,133.234 1342.82,118.148 1343.65,193.578 1344.48,163.406 1345.31,163.406 1346.14,148.32 1346.97,223.75 1347.8,118.148 1348.63,148.32 1349.46,193.578 1350.29,118.148 1351.12,133.234 1351.95,178.492 1352.77,148.32 1353.6,148.32 1354.43,118.148 1355.26,133.234 1356.09,133.234 1356.92,133.234 1357.75,193.578 1358.58,163.406 1359.41,163.406 1360.24,118.148 1361.07,133.234 1361.9,118.148 1362.72,208.664 1363.55,133.234 1364.38,118.148 1365.21,163.406 1366.04,148.32 1366.87,148.32 1367.7,118.148 1368.53,148.32 1369.36,133.234 1370.19,148.32 1371.02,178.492 1371.85,133.234 1372.67,178.492 1373.5,208.664 1374.33,118.148 1375.16,148.32 1375.99,163.406 1376.82,148.32 1377.65,163.406 1378.48,118.148 1379.31,163.406 1380.14,163.406 1380.97,103.062 1381.8,118.148 1382.63,193.578 1383.45,133.234 1384.28,118.148 1385.11,163.406 1385.94,163.406 1386.77,178.492 1387.6,148.32 1388.43,103.062 1389.26,148.32 1390.09,103.062 1390.92,103.062 1391.75,178.492 1392.58,163.406 1393.4,118.148 1394.23,118.148 1395.06,148.32 1395.89,163.406 1396.72,133.234 1397.55,118.148 1398.38,178.492 1399.21,103.062 1400.04,178.492 1400.87,163.406 1401.7,148.32 1402.53,163.406 1403.36,118.148 1404.18,163.406 1405.01,163.406 1405.84,118.148 1406.67,148.32 1407.5,118.148 1408.33,178.492 1409.16,148.32 1409.99,133.234 1410.82,148.32 1411.65,118.148 1412.48,178.492 1413.31,163.406 1414.13,178.492 1414.96,163.406 1415.79,163.406 1416.62,118.148 1417.45,148.32 1418.28,118.148 1419.11,148.32 1419.94,148.32 1420.77,103.062 1421.6,148.32 1422.43,133.234 1423.26,223.75 1424.08,193.578 1424.91,163.406 1425.74,163.406 1426.57,163.406 1427.4,163.406 1428.23,133.234 1429.06,178.492 1429.89,133.234 1430.72,103.062 1431.55,148.32 1432.38,148.32 1433.21,133.234 1434.04,148.32 1434.86,133.234 1435.69,118.148 1436.52,133.234 1437.35,163.406 1438.18,163.406 1439.01,178.492 1439.84,178.492 1440.67,178.492 1441.5,118.148 1442.33,118.148 1443.16,148.32 1443.99,193.578 1444.81,118.148 1445.64,118.148 1446.47,163.406 1447.3,148.32 1448.13,103.062 1448.96,193.578 1449.79,163.406 1450.62,87.9763 1451.45,148.32 1452.28,103.062 1453.11,178.492 1453.94,193.578 1454.77,148.32 1455.59,133.234 1456.42,178.492 1457.25,163.406 1458.08,193.578 1458.91,118.148 1459.74,118.148 1460.57,163.406 1461.4,103.062 1462.23,148.32 1463.06,118.148 1463.89,163.406 1464.72,148.32 1465.54,193.578 1466.37,118.148 1467.2,163.406 1468.03,103.062 1468.86,163.406 1469.69,133.234 1470.52,148.32 1471.35,178.492 1472.18,133.234 1473.01,133.234 1473.84,148.32 1474.67,178.492 1475.49,193.578 1476.32,148.32 1477.15,178.492 1477.98,118.148 1478.81,148.32 1479.64,163.406 1480.47,163.406 1481.3,148.32 1482.13,148.32 1482.96,148.32 1483.79,148.32 1484.62,133.234 1485.45,118.148 1486.27,118.148 1487.1,133.234 1487.93,148.32 1488.76,133.234 1489.59,118.148 1490.42,133.234 1491.25,133.234 1492.08,178.492 1492.91,118.148 1493.74,133.234 1494.57,178.492 1495.4,103.062 1496.22,133.234 1497.05,148.32 1497.88,148.32 1498.71,163.406 1499.54,178.492 1500.37,133.234 1501.2,133.234 1502.03,193.578 1502.86,133.234 1503.69,163.406 1504.52,118.148 1505.35,133.234 1506.18,193.578 1507,133.234 1507.83,133.234 1508.66,133.234 1509.49,163.406 1510.32,133.234 1511.15,103.062 1511.98,163.406 1512.81,148.32 1513.64,103.062 1514.47,193.578 1515.3,148.32 1516.13,163.406 1516.95,103.062 1517.78,133.234 1518.61,193.578 1519.44,163.406 1520.27,118.148 1521.1,133.234 1521.93,178.492 1522.76,163.406 1523.59,133.234 1524.42,148.32 1525.25,178.492 1526.08,118.148 1526.9,178.492 1527.73,133.234 1528.56,103.062 1529.39,178.492 1530.22,193.578 1531.05,163.406 1531.88,118.148 1532.71,103.062 1533.54,118.148 1534.37,103.062 1535.2,118.148 1536.03,133.234 1536.86,148.32 1537.68,163.406 1538.51,133.234 1539.34,133.234 1540.17,163.406 1541,178.492 1541.83,148.32 1542.66,103.062 1543.49,118.148 1544.32,103.062 1545.15,103.062 1545.98,163.406 1546.81,103.062 1547.63,148.32 1548.46,133.234 1549.29,118.148 1550.12,118.148 1550.95,133.234 1551.78,118.148 1552.61,178.492 1553.44,118.148 1554.27,103.062 1555.1,163.406 1555.93,193.578 1556.76,103.062 1557.58,148.32 1558.41,103.062 1559.24,118.148 1560.07,208.664 1560.9,118.148 1561.73,133.234 1562.56,163.406 1563.39,118.148 1564.22,148.32 1565.05,118.148 1565.88,163.406 1566.71,148.32 1567.54,148.32 1568.36,118.148 1569.19,148.32 1570.02,118.148 1570.85,133.234 1571.68,118.148 1572.51,193.578 1573.34,133.234 1574.17,148.32 1575,118.148 1575.83,148.32 1576.66,163.406 1577.49,133.234 1578.31,133.234 1579.14,103.062 1579.97,148.32 1580.8,103.062 1581.63,193.578 1582.46,148.32 1583.29,178.492 1584.12,148.32 1584.95,193.578 1585.78,148.32 1586.61,148.32 1587.44,148.32 1588.27,103.062 1589.09,148.32 1589.92,103.062 1590.75,118.148 1591.58,87.9763 1592.41,148.32 1593.24,148.32 1594.07,118.148 1594.9,87.9763 1595.73,148.32 1596.56,103.062 1597.39,87.9763 1598.22,133.234 1599.04,133.234 1599.87,133.234 1600.7,178.492 1601.53,178.492 1602.36,148.32 1603.19,103.062 1604.02,103.062 1604.85,133.234 1605.68,133.234 1606.51,148.32 1607.34,148.32 1608.17,163.406 1608.99,148.32 1609.82,118.148 1610.65,163.406 1611.48,103.062 1612.31,133.234 1613.14,148.32 1613.97,133.234 1614.8,133.234 1615.63,103.062 1616.46,148.32 1617.29,163.406 1618.12,118.148 1618.95,148.32 1619.77,178.492 1620.6,148.32 1621.43,133.234 1622.26,133.234 1623.09,163.406 1623.92,133.234 1624.75,148.32 1625.58,148.32 1626.41,178.492 1627.24,208.664 1628.07,193.578 1628.9,148.32 1629.72,118.148 1630.55,163.406 1631.38,133.234 1632.21,148.32 1633.04,163.406 1633.87,118.148 1634.7,118.148 1635.53,148.32 1636.36,118.148 1637.19,208.664 1638.02,133.234 1638.85,148.32 1639.68,118.148 1640.5,178.492 1641.33,163.406 1642.16,118.148 1642.99,133.234 1643.82,133.234 1644.65,133.234 1645.48,193.578 1646.31,163.406 1647.14,148.32 1647.97,148.32 1648.8,148.32 1649.63,163.406 1650.45,118.148 1651.28,163.406 1652.11,133.234 1652.94,118.148 1653.77,148.32 1654.6,118.148 1655.43,133.234 1656.26,118.148 1657.09,163.406 1657.92,148.32 1658.75,133.234 1659.58,133.234 1660.4,178.492 1661.23,148.32 1662.06,163.406 1662.89,118.148 1663.72,118.148 1664.55,103.062 1665.38,103.062 1666.21,178.492 1667.04,178.492 1667.87,163.406 1668.7,118.148 1669.53,148.32 1670.36,133.234 1671.18,118.148 1672.01,208.664 1672.84,148.32 1673.67,133.234 1674.5,163.406 1675.33,148.32 1676.16,118.148 1676.99,148.32 1677.82,133.234 1678.65,103.062 1679.48,148.32 1680.31,163.406 1681.13,148.32 1681.96,118.148 1682.79,118.148 1683.62,118.148 1684.45,148.32 1685.28,133.234 1686.11,133.234 1686.94,148.32 1687.77,148.32 1688.6,133.234 1689.43,148.32 1690.26,118.148 1691.08,163.406 1691.91,148.32 1692.74,193.578 1693.57,133.234 1694.4,103.062 1695.23,163.406 1696.06,118.148 1696.89,148.32 1697.72,178.492 1698.55,148.32 1699.38,133.234 1700.21,103.062 1701.04,103.062 1701.86,118.148 1702.69,133.234 1703.52,133.234 1704.35,163.406 1705.18,178.492 1706.01,133.234 1706.84,163.406 1707.67,133.234 1708.5,133.234 1709.33,103.062 1710.16,118.148 1710.99,133.234 1711.81,133.234 1712.64,87.9763 1713.47,133.234 1714.3,118.148 1715.13,163.406 1715.96,118.148 1716.79,178.492 1717.62,118.148 1718.45,133.234 1719.28,133.234 1720.11,148.32 1720.94,133.234 1721.77,118.148 1722.59,148.32 1723.42,178.492 1724.25,118.148 1725.08,223.75 1725.91,193.578 1726.74,103.062 1727.57,148.32 1728.4,103.062 1729.23,103.062 1730.06,133.234 1730.89,118.148 1731.72,208.664 1732.54,178.492 1733.37,87.9763 1734.2,118.148 1735.03,103.062 1735.86,163.406 1736.69,133.234 1737.52,148.32 1738.35,133.234 1739.18,148.32 1740.01,118.148 1740.84,133.234 1741.67,133.234 1742.49,103.062 1743.32,103.062 1744.15,133.234 1744.98,133.234 1745.81,178.492 1746.64,193.578 1747.47,103.062 1748.3,87.9763 1749.13,118.148 1749.96,163.406 1750.79,178.492 1751.62,148.32 1752.45,148.32 1753.27,148.32 1754.1,118.148 1754.93,148.32 1755.76,87.9763 1756.59,148.32 1757.42,133.234 1758.25,133.234 1759.08,178.492 1759.91,133.234 1760.74,87.9763 1761.57,163.406 1762.4,133.234 1763.22,118.148 1764.05,103.062 1764.88,178.492 1765.71,118.148 1766.54,118.148 1767.37,148.32 1768.2,103.062 1769.03,133.234 1769.86,118.148 1770.69,118.148 1771.52,148.32 1772.35,148.32 1773.18,133.234 1774,118.148 1774.83,118.148 1775.66,118.148 1776.49,133.234 1777.32,133.234 1778.15,103.062 1778.98,163.406 1779.81,133.234 1780.64,133.234 1781.47,87.9763 1782.3,118.148 1783.13,193.578 1783.95,148.32 1784.78,133.234 1785.61,133.234 1786.44,133.234 1787.27,148.32 1788.1,148.32 1788.93,148.32 1789.76,133.234 1790.59,103.062 1791.42,163.406 1792.25,133.234 1793.08,118.148 1793.9,148.32 1794.73,223.75 1795.56,163.406 1796.39,193.578 1797.22,133.234 1798.05,118.148 1798.88,163.406 1799.71,133.234 1800.54,163.406 1801.37,118.148 1802.2,118.148 1803.03,178.492 1803.86,118.148 1804.68,133.234 1805.51,148.32 1806.34,133.234 1807.17,208.664 1808,163.406 1808.83,103.062 1809.66,118.148 1810.49,163.406 1811.32,103.062 1812.15,163.406 1812.98,133.234 1813.81,148.32 1814.63,193.578 1815.46,133.234 1816.29,118.148 1817.12,118.148 1817.95,208.664 1818.78,148.32 1819.61,163.406 1820.44,118.148 1821.27,103.062 1822.1,133.234 1822.93,118.148 1823.76,87.9763 1824.59,118.148 1825.41,133.234 1826.24,148.32 1827.07,118.148 1827.9,133.234 1828.73,103.062 1829.56,133.234 1830.39,118.148 1831.22,87.9763 1832.05,133.234 1832.88,133.234 1833.71,133.234 1834.54,87.9763 1835.36,118.148 1836.19,133.234 1837.02,133.234 1837.85,103.062 1838.68,118.148 1839.51,133.234 1840.34,118.148 1841.17,103.062 1842,148.32 1842.83,133.234 1843.66,118.148 1844.49,178.492 1845.31,118.148 1846.14,118.148 1846.97,103.062 1847.8,133.234 1848.63,118.148 1849.46,148.32 1850.29,163.406 1851.12,118.148 1851.95,103.062 1852.78,118.148 1853.61,163.406 1854.44,193.578 1855.27,103.062 1856.09,148.32 1856.92,118.148 1857.75,133.234 1858.58,118.148 1859.41,133.234 1860.24,118.148 1861.07,148.32 1861.9,163.406 1862.73,103.062 1863.56,178.492 1864.39,133.234 1865.22,118.148 1866.04,163.406 1866.87,148.32 1867.7,133.234 1868.53,148.32 1869.36,178.492 1870.19,163.406 1871.02,178.492 1871.85,133.234 1872.68,193.578 1873.51,163.406 1874.34,103.062 1875.17,118.148 1875.99,103.062 1876.82,193.578 1877.65,118.148 1878.48,148.32 1879.31,103.062 1880.14,118.148 1880.97,148.32 1881.8,133.234 1882.63,133.234 1883.46,118.148 1884.29,133.234 1885.12,118.148 1885.95,118.148 1886.77,148.32 1887.6,148.32 1888.43,163.406 1889.26,87.9763 1890.09,148.32 1890.92,163.406 1891.75,118.148 1892.58,178.492 1893.41,133.234 1894.24,118.148 1895.07,178.492 1895.9,133.234 1896.72,163.406 1897.55,118.148 1898.38,133.234 1899.21,87.9763 1900.04,178.492 1900.87,103.062 1901.7,163.406 1902.53,148.32 1903.36,133.234 1904.19,163.406 1905.02,148.32 1905.85,163.406 1906.68,148.32 1907.5,118.148 1908.33,103.062 1909.16,133.234 1909.99,163.406 1910.82,148.32 1911.65,148.32 1912.48,118.148 1913.31,148.32 1914.14,133.234 1914.97,133.234 1915.8,118.148 1916.63,133.234 1917.45,133.234 1918.28,163.406 1919.11,118.148 1919.94,133.234 1920.77,163.406 1921.6,118.148 1922.43,103.062 1923.26,133.234 1924.09,133.234 1924.92,87.9763 1925.75,148.32 1926.58,103.062 1927.4,148.32 1928.23,118.148 1929.06,118.148 1929.89,163.406 1930.72,133.234 1931.55,148.32 1932.38,118.148 1933.21,118.148 1934.04,148.32 1934.87,118.148 1935.7,148.32 1936.53,193.578 1937.36,118.148 1938.18,118.148 1939.01,103.062 1939.84,118.148 1940.67,133.234 1941.5,133.234 1942.33,148.32 1943.16,103.062 1943.99,148.32 1944.82,103.062 1945.65,103.062 1946.48,133.234 1947.31,133.234 1948.13,118.148 1948.96,87.9763 1949.79,178.492 1950.62,148.32 1951.45,178.492 1952.28,103.062 1953.11,103.062 1953.94,118.148 1954.77,133.234 1955.6,118.148 1956.43,193.578 1957.26,133.234 1958.09,148.32 1958.91,118.148 1959.74,133.234 1960.57,148.32 1961.4,103.062 1962.23,103.062 1963.06,148.32 1963.89,118.148 1964.72,148.32 1965.55,178.492 1966.38,148.32 1967.21,133.234 1968.04,87.9763 1968.86,148.32 1969.69,133.234 1970.52,148.32 1971.35,103.062 1972.18,103.062 1973.01,163.406 1973.84,103.062 1974.67,163.406 1975.5,118.148 1976.33,178.492 1977.16,163.406 1977.99,103.062 1978.81,103.062 1979.64,148.32 1980.47,87.9763 1981.3,103.062 1982.13,118.148 1982.96,148.32 1983.79,118.148 1984.62,133.234 1985.45,103.062 1986.28,118.148 1987.11,163.406 1987.94,87.9763 1988.77,148.32 1989.59,118.148 1990.42,133.234 1991.25,103.062 1992.08,148.32 1992.91,133.234 1993.74,118.148 1994.57,133.234 1995.4,148.32 1996.23,118.148 1997.06,103.062 1997.89,133.234 1998.72,118.148 1999.54,133.234 2000.37,87.9763 2001.2,118.148 2002.03,133.234 2002.86,118.148 2003.69,103.062 2004.52,148.32 2005.35,103.062 2006.18,118.148 2007.01,118.148 2007.84,87.9763 2008.67,133.234 2009.49,133.234 2010.32,103.062 2011.15,133.234 2011.98,103.062 2012.81,118.148 2013.64,118.148 2014.47,103.062 2015.3,87.9763 2016.13,178.492 2016.96,133.234 2017.79,148.32 2018.62,118.148 2019.45,133.234 2020.27,148.32 2021.1,118.148 2021.93,103.062 2022.76,118.148 2023.59,118.148 2024.42,103.062 2025.25,163.406 2026.08,87.9763 2026.91,118.148 2027.74,118.148 2028.57,148.32 2029.4,87.9763 2030.22,163.406 2031.05,133.234 2031.88,148.32 2032.71,148.32 2033.54,163.406 2034.37,133.234 2035.2,163.406 2036.03,103.062 2036.86,163.406 2037.69,133.234 2038.52,118.148 2039.35,118.148 2040.18,148.32 2041,103.062 2041.83,103.062 2042.66,148.32 2043.49,118.148 2044.32,148.32 2045.15,163.406 2045.98,103.062 2046.81,103.062 2047.64,133.234 2048.47,103.062 2049.3,148.32 2050.13,118.148 2050.95,148.32 2051.78,133.234 2052.61,148.32 2053.44,148.32 2054.27,103.062 2055.1,133.234 2055.93,87.9763 2056.76,103.062 2057.59,133.234 2058.42,118.148 2059.25,87.9763 2060.08,133.234 2060.9,103.062 2061.73,133.234 2062.56,103.062 2063.39,133.234 2064.22,118.148 2065.05,103.062 2065.88,103.062 2066.71,103.062 2067.54,87.9763 2068.37,133.234 2069.2,148.32 2070.03,87.9763 2070.86,133.234 2071.68,148.32 2072.51,87.9763 2073.34,148.32 2074.17,148.32 2075,118.148 2075.83,118.148 2076.66,103.062 2077.49,103.062 2078.32,118.148 2079.15,133.234 2079.98,133.234 2080.81,87.9763 2081.63,133.234 2082.46,133.234 2083.29,103.062 2084.12,133.234 2084.95,103.062 2085.78,118.148 2086.61,103.062 2087.44,103.062 2088.27,118.148 2089.1,103.062 2089.93,118.148 2090.76,118.148 2091.59,118.148 2092.41,87.9763 2093.24,118.148 2094.07,118.148 2094.9,118.148 2095.73,148.32 2096.56,118.148 2097.39,87.9763 2098.22,118.148 2099.05,133.234 2099.88,118.148 2100.71,87.9763 2101.54,133.234 2102.36,118.148 2103.19,118.148 2104.02,178.492 2104.85,178.492 2105.68,118.148 2106.51,87.9763 2107.34,133.234 2108.17,133.234 2109,163.406 2109.83,103.062 2110.66,103.062 2111.49,118.148 2112.31,133.234 2113.14,163.406 2113.97,148.32 2114.8,118.148 2115.63,148.32 2116.46,118.148 2117.29,133.234 2118.12,148.32 2118.95,118.148 2119.78,178.492 2120.61,118.148 2121.44,163.406 2122.27,148.32 2123.09,103.062 2123.92,118.148 2124.75,103.062 2125.58,103.062 2126.41,118.148 2127.24,148.32 2128.07,103.062 2128.9,133.234 2129.73,118.148 2130.56,103.062 2131.39,133.234 2132.22,163.406 2133.04,87.9763 2133.87,103.062 2134.7,103.062 2135.53,148.32 2136.36,103.062 2137.19,133.234 2138.02,103.062 2138.85,133.234 2139.68,87.9763 2140.51,87.9763 2141.34,118.148 2142.17,133.234 2143,118.148 2143.82,118.148 2144.65,118.148 2145.48,163.406 2146.31,148.32 2147.14,133.234 2147.97,148.32 2148.8,118.148 2149.63,103.062 2150.46,178.492 2151.29,103.062 2152.12,133.234 2152.95,133.234 2153.77,133.234 2154.6,103.062 2155.43,133.234 2156.26,133.234 2157.09,118.148 2157.92,118.148 2158.75,148.32 2159.58,148.32 2160.41,193.578 2161.24,133.234 2162.07,118.148 2162.9,148.32 2163.72,133.234 2164.55,103.062 2165.38,118.148 2166.21,148.32 2167.04,133.234 2167.87,103.062 2168.7,148.32 2169.53,163.406 2170.36,163.406 2171.19,103.062 2172.02,118.148 2172.85,87.9763 2173.68,148.32 2174.5,133.234 2175.33,133.234 2176.16,118.148 2176.99,133.234 2177.82,133.234 2178.65,103.062 2179.48,133.234 2180.31,87.9763 2181.14,103.062 2181.97,103.062 2182.8,133.234 2183.63,118.148 2184.45,103.062 2185.28,148.32 2186.11,163.406 2186.94,148.32 2187.77,133.234 2188.6,103.062 2189.43,118.148 2190.26,118.148 2191.09,118.148 2191.92,118.148 2192.75,133.234 2193.58,133.234 2194.4,118.148 2195.23,163.406 2196.06,103.062 2196.89,148.32 2197.72,118.148 2198.55,103.062 2199.38,148.32 2200.21,103.062 2201.04,87.9763 2201.87,148.32 2202.7,118.148 2203.53,87.9763 2204.36,118.148 2205.18,103.062 2206.01,118.148 2206.84,103.062 2207.67,148.32 2208.5,118.148 2209.33,133.234 2210.16,103.062 2210.99,103.062 2211.82,103.062 2212.65,103.062 2213.48,118.148 2214.31,118.148 2215.13,118.148 2215.96,133.234 2216.79,178.492 2217.62,133.234 2218.45,103.062 2219.28,148.32 2220.11,148.32 2220.94,103.062 2221.77,133.234 2222.6,103.062 2223.43,133.234 2224.26,103.062 2225.09,118.148 2225.91,103.062 2226.74,118.148 2227.57,133.234 2228.4,103.062 2229.23,148.32 2230.06,118.148 2230.89,148.32 2231.72,103.062 2232.55,103.062 2233.38,163.406 2234.21,118.148 2235.04,103.062 2235.86,133.234 2236.69,118.148 2237.52,148.32 2238.35,118.148 2239.18,133.234 2240.01,118.148 2240.84,118.148 2241.67,87.9763 2242.5,148.32 2243.33,148.32 2244.16,87.9763 2244.99,118.148 2245.81,133.234 2246.64,133.234 2247.47,103.062 2248.3,133.234 2249.13,103.062 2249.96,103.062 2250.79,163.406 2251.62,103.062 2252.45,103.062 2253.28,133.234 2254.11,148.32 2254.94,118.148 2255.77,87.9763 2256.59,133.234 2257.42,133.234 2258.25,148.32 2259.08,103.062 2259.91,148.32 2260.74,133.234 2261.57,148.32 2262.4,87.9763 2263.23,148.32 2264.06,133.234 2264.89,103.062 2265.72,103.062 2266.54,118.148 2267.37,103.062 2268.2,163.406 2269.03,118.148 2269.86,118.148 2270.69,118.148 2271.52,148.32 2272.35,103.062 2273.18,118.148 2274.01,103.062 2274.84,103.062 2275.67,133.234 2276.5,148.32 2277.32,133.234 2278.15,118.148 2278.98,148.32 2279.81,103.062 2280.64,148.32 2281.47,118.148 2282.3,118.148 2283.13,163.406 2283.96,133.234 2284.79,118.148 2285.62,87.9763 2286.45,118.148 2287.27,133.234 2288.1,103.062 2288.93,118.148 2289.76,148.32 2290.59,148.32 "/>
<path clip-path="url(#clip260)" d="M2007.46 1438.47 L2279.54 1438.47 L2279.54 1334.79 L2007.46 1334.79  Z" fill="#ffffff" fill-rule="evenodd" fill-opacity="1"/>
<polyline clip-path="url(#clip260)" style="stroke:#000000; stroke-linecap:round; stroke-linejoin:round; stroke-width:4; stroke-opacity:1; fill:none" points="2007.46,1438.47 2279.54,1438.47 2279.54,1334.79 2007.46,1334.79 2007.46,1438.47 "/>
<polyline clip-path="url(#clip260)" style="stroke:#009af9; stroke-linecap:round; stroke-linejoin:round; stroke-width:4; stroke-opacity:1; fill:none" points="2031.87,1386.63 2178.3,1386.63 "/>
<path clip-path="url(#clip260)" d="M2216.55 1406.32 Q2214.74 1410.95 2213.03 1412.36 Q2211.32 1413.78 2208.44 1413.78 L2205.04 1413.78 L2205.04 1410.21 L2207.54 1410.21 Q2209.3 1410.21 2210.27 1409.38 Q2211.25 1408.54 2212.43 1405.44 L2213.19 1403.5 L2202.7 1377.99 L2207.22 1377.99 L2215.32 1398.27 L2223.42 1377.99 L2227.94 1377.99 L2216.55 1406.32 Z" fill="#000000" fill-rule="nonzero" fill-opacity="1" /><path clip-path="url(#clip260)" d="M2235.23 1399.98 L2242.87 1399.98 L2242.87 1373.61 L2234.56 1375.28 L2234.56 1371.02 L2242.82 1369.35 L2247.5 1369.35 L2247.5 1399.98 L2255.13 1399.98 L2255.13 1403.91 L2235.23 1403.91 L2235.23 1399.98 Z" fill="#000000" fill-rule="nonzero" fill-opacity="1" /></svg>
