<?xml version="1.0" encoding="utf-8"?>
<svg xmlns="http://www.w3.org/2000/svg" xmlns:xlink="http://www.w3.org/1999/xlink" width="600" height="400" viewBox="0 0 2400 1600">
<defs>
  <clipPath id="clip010">
    <rect x="0" y="0" width="2400" height="1600"/>
  </clipPath>
</defs>
<path clip-path="url(#clip010)" d="M0 1600 L2400 1600 L2400 0 L0 0  Z" fill="#ffffff" fill-rule="evenodd" fill-opacity="1"/>
<defs>
  <clipPath id="clip011">
    <rect x="480" y="0" width="1681" height="1600"/>
  </clipPath>
</defs>
<path clip-path="url(#clip010)" d="M156.274 1486.45 L2352.76 1486.45 L2352.76 47.2441 L156.274 47.2441  Z" fill="#ffffff" fill-rule="evenodd" fill-opacity="1"/>
<defs>
  <clipPath id="clip012">
    <rect x="156" y="47" width="2197" height="1440"/>
  </clipPath>
</defs>
<polyline clip-path="url(#clip012)" style="stroke:#000000; stroke-linecap:round; stroke-linejoin:round; stroke-width:2; stroke-opacity:0.1; fill:none" points="218.439,1486.45 218.439,47.2441 "/>
<polyline clip-path="url(#clip012)" style="stroke:#000000; stroke-linecap:round; stroke-linejoin:round; stroke-width:2; stroke-opacity:0.1; fill:none" points="736.995,1486.45 736.995,47.2441 "/>
<polyline clip-path="url(#clip012)" style="stroke:#000000; stroke-linecap:round; stroke-linejoin:round; stroke-width:2; stroke-opacity:0.1; fill:none" points="1255.55,1486.45 1255.55,47.2441 "/>
<polyline clip-path="url(#clip012)" style="stroke:#000000; stroke-linecap:round; stroke-linejoin:round; stroke-width:2; stroke-opacity:0.1; fill:none" points="1774.11,1486.45 1774.11,47.2441 "/>
<polyline clip-path="url(#clip012)" style="stroke:#000000; stroke-linecap:round; stroke-linejoin:round; stroke-width:2; stroke-opacity:0.1; fill:none" points="2292.67,1486.45 2292.67,47.2441 "/>
<polyline clip-path="url(#clip010)" style="stroke:#000000; stroke-linecap:round; stroke-linejoin:round; stroke-width:4; stroke-opacity:1; fill:none" points="156.274,1486.45 2352.76,1486.45 "/>
<polyline clip-path="url(#clip010)" style="stroke:#000000; stroke-linecap:round; stroke-linejoin:round; stroke-width:4; stroke-opacity:1; fill:none" points="218.439,1486.45 218.439,1467.55 "/>
<polyline clip-path="url(#clip010)" style="stroke:#000000; stroke-linecap:round; stroke-linejoin:round; stroke-width:4; stroke-opacity:1; fill:none" points="736.995,1486.45 736.995,1467.55 "/>
<polyline clip-path="url(#clip010)" style="stroke:#000000; stroke-linecap:round; stroke-linejoin:round; stroke-width:4; stroke-opacity:1; fill:none" points="1255.55,1486.45 1255.55,1467.55 "/>
<polyline clip-path="url(#clip010)" style="stroke:#000000; stroke-linecap:round; stroke-linejoin:round; stroke-width:4; stroke-opacity:1; fill:none" points="1774.11,1486.45 1774.11,1467.55 "/>
<polyline clip-path="url(#clip010)" style="stroke:#000000; stroke-linecap:round; stroke-linejoin:round; stroke-width:4; stroke-opacity:1; fill:none" points="2292.67,1486.45 2292.67,1467.55 "/>
<path clip-path="url(#clip010)" d="M218.439 1517.37 Q214.828 1517.37 212.999 1520.93 Q211.193 1524.47 211.193 1531.6 Q211.193 1538.71 212.999 1542.27 Q214.828 1545.82 218.439 1545.82 Q222.073 1545.82 223.879 1542.27 Q225.707 1538.71 225.707 1531.6 Q225.707 1524.47 223.879 1520.93 Q222.073 1517.37 218.439 1517.37 M218.439 1513.66 Q224.249 1513.66 227.304 1518.27 Q230.383 1522.85 230.383 1531.6 Q230.383 1540.33 227.304 1544.94 Q224.249 1549.52 218.439 1549.52 Q212.629 1549.52 209.55 1544.94 Q206.494 1540.33 206.494 1531.6 Q206.494 1522.85 209.55 1518.27 Q212.629 1513.66 218.439 1513.66 Z" fill="#000000" fill-rule="nonzero" fill-opacity="1" /><path clip-path="url(#clip010)" d="M700.688 1544.91 L717.007 1544.91 L717.007 1548.85 L695.063 1548.85 L695.063 1544.91 Q697.725 1542.16 702.308 1537.53 Q706.915 1532.88 708.095 1531.53 Q710.34 1529.01 711.22 1527.27 Q712.123 1525.51 712.123 1523.82 Q712.123 1521.07 710.178 1519.33 Q708.257 1517.6 705.155 1517.6 Q702.956 1517.6 700.503 1518.36 Q698.072 1519.13 695.294 1520.68 L695.294 1515.95 Q698.118 1514.82 700.572 1514.24 Q703.026 1513.66 705.063 1513.66 Q710.433 1513.66 713.628 1516.35 Q716.822 1519.03 716.822 1523.52 Q716.822 1525.65 716.012 1527.57 Q715.225 1529.47 713.118 1532.07 Q712.54 1532.74 709.438 1535.95 Q706.336 1539.15 700.688 1544.91 Z" fill="#000000" fill-rule="nonzero" fill-opacity="1" /><path clip-path="url(#clip010)" d="M726.868 1514.29 L745.225 1514.29 L745.225 1518.22 L731.151 1518.22 L731.151 1526.7 Q732.169 1526.35 733.188 1526.19 Q734.206 1526 735.225 1526 Q741.012 1526 744.391 1529.17 Q747.771 1532.34 747.771 1537.76 Q747.771 1543.34 744.299 1546.44 Q740.826 1549.52 734.507 1549.52 Q732.331 1549.52 730.063 1549.15 Q727.817 1548.78 725.41 1548.04 L725.41 1543.34 Q727.493 1544.47 729.715 1545.03 Q731.938 1545.58 734.414 1545.58 Q738.419 1545.58 740.757 1543.48 Q743.095 1541.37 743.095 1537.76 Q743.095 1534.15 740.757 1532.04 Q738.419 1529.94 734.414 1529.94 Q732.539 1529.94 730.664 1530.35 Q728.813 1530.77 726.868 1531.65 L726.868 1514.29 Z" fill="#000000" fill-rule="nonzero" fill-opacity="1" /><path clip-path="url(#clip010)" d="M766.984 1517.37 Q763.373 1517.37 761.544 1520.93 Q759.738 1524.47 759.738 1531.6 Q759.738 1538.71 761.544 1542.27 Q763.373 1545.82 766.984 1545.82 Q770.618 1545.82 772.423 1542.27 Q774.252 1538.71 774.252 1531.6 Q774.252 1524.47 772.423 1520.93 Q770.618 1517.37 766.984 1517.37 M766.984 1513.66 Q772.794 1513.66 775.849 1518.27 Q778.928 1522.85 778.928 1531.6 Q778.928 1540.33 775.849 1544.94 Q772.794 1549.52 766.984 1549.52 Q761.174 1549.52 758.095 1544.94 Q755.039 1540.33 755.039 1531.6 Q755.039 1522.85 758.095 1518.27 Q761.174 1513.66 766.984 1513.66 Z" fill="#000000" fill-rule="nonzero" fill-opacity="1" /><path clip-path="url(#clip010)" d="M1215.17 1514.29 L1233.53 1514.29 L1233.53 1518.22 L1219.45 1518.22 L1219.45 1526.7 Q1220.47 1526.35 1221.49 1526.19 Q1222.51 1526 1223.53 1526 Q1229.31 1526 1232.69 1529.17 Q1236.07 1532.34 1236.07 1537.76 Q1236.07 1543.34 1232.6 1546.44 Q1229.13 1549.52 1222.81 1549.52 Q1220.63 1549.52 1218.36 1549.15 Q1216.12 1548.78 1213.71 1548.04 L1213.71 1543.34 Q1215.8 1544.47 1218.02 1545.03 Q1220.24 1545.58 1222.72 1545.58 Q1226.72 1545.58 1229.06 1543.48 Q1231.4 1541.37 1231.4 1537.76 Q1231.4 1534.15 1229.06 1532.04 Q1226.72 1529.94 1222.72 1529.94 Q1220.84 1529.94 1218.97 1530.35 Q1217.11 1530.77 1215.17 1531.65 L1215.17 1514.29 Z" fill="#000000" fill-rule="nonzero" fill-opacity="1" /><path clip-path="url(#clip010)" d="M1255.29 1517.37 Q1251.67 1517.37 1249.85 1520.93 Q1248.04 1524.47 1248.04 1531.6 Q1248.04 1538.71 1249.85 1542.27 Q1251.67 1545.82 1255.29 1545.82 Q1258.92 1545.82 1260.73 1542.27 Q1262.55 1538.71 1262.55 1531.6 Q1262.55 1524.47 1260.73 1520.93 Q1258.92 1517.37 1255.29 1517.37 M1255.29 1513.66 Q1261.1 1513.66 1264.15 1518.27 Q1267.23 1522.85 1267.23 1531.6 Q1267.23 1540.33 1264.15 1544.94 Q1261.1 1549.52 1255.29 1549.52 Q1249.48 1549.52 1246.4 1544.94 Q1243.34 1540.33 1243.34 1531.6 Q1243.34 1522.85 1246.4 1518.27 Q1249.48 1513.66 1255.29 1513.66 Z" fill="#000000" fill-rule="nonzero" fill-opacity="1" /><path clip-path="url(#clip010)" d="M1285.45 1517.37 Q1281.84 1517.37 1280.01 1520.93 Q1278.2 1524.47 1278.2 1531.6 Q1278.2 1538.71 1280.01 1542.27 Q1281.84 1545.82 1285.45 1545.82 Q1289.08 1545.82 1290.89 1542.27 Q1292.72 1538.71 1292.72 1531.6 Q1292.72 1524.47 1290.89 1520.93 Q1289.08 1517.37 1285.45 1517.37 M1285.45 1513.66 Q1291.26 1513.66 1294.31 1518.27 Q1297.39 1522.85 1297.39 1531.6 Q1297.39 1540.33 1294.31 1544.94 Q1291.26 1549.52 1285.45 1549.52 Q1279.64 1549.52 1276.56 1544.94 Q1273.5 1540.33 1273.5 1531.6 Q1273.5 1522.85 1276.56 1518.27 Q1279.64 1513.66 1285.45 1513.66 Z" fill="#000000" fill-rule="nonzero" fill-opacity="1" /><path clip-path="url(#clip010)" d="M1732.38 1514.29 L1754.61 1514.29 L1754.61 1516.28 L1742.06 1548.85 L1737.18 1548.85 L1748.98 1518.22 L1732.38 1518.22 L1732.38 1514.29 Z" fill="#000000" fill-rule="nonzero" fill-opacity="1" /><path clip-path="url(#clip010)" d="M1763.77 1514.29 L1782.13 1514.29 L1782.13 1518.22 L1768.06 1518.22 L1768.06 1526.7 Q1769.07 1526.35 1770.09 1526.19 Q1771.11 1526 1772.13 1526 Q1777.92 1526 1781.3 1529.17 Q1784.68 1532.34 1784.68 1537.76 Q1784.68 1543.34 1781.2 1546.44 Q1777.73 1549.52 1771.41 1549.52 Q1769.24 1549.52 1766.97 1549.15 Q1764.72 1548.78 1762.31 1548.04 L1762.31 1543.34 Q1764.4 1544.47 1766.62 1545.03 Q1768.84 1545.58 1771.32 1545.58 Q1775.32 1545.58 1777.66 1543.48 Q1780 1541.37 1780 1537.76 Q1780 1534.15 1777.66 1532.04 Q1775.32 1529.94 1771.32 1529.94 Q1769.44 1529.94 1767.57 1530.35 Q1765.72 1530.77 1763.77 1531.65 L1763.77 1514.29 Z" fill="#000000" fill-rule="nonzero" fill-opacity="1" /><path clip-path="url(#clip010)" d="M1803.89 1517.37 Q1800.28 1517.37 1798.45 1520.93 Q1796.64 1524.47 1796.64 1531.6 Q1796.64 1538.71 1798.45 1542.27 Q1800.28 1545.82 1803.89 1545.82 Q1807.52 1545.82 1809.33 1542.27 Q1811.16 1538.71 1811.16 1531.6 Q1811.16 1524.47 1809.33 1520.93 Q1807.52 1517.37 1803.89 1517.37 M1803.89 1513.66 Q1809.7 1513.66 1812.75 1518.27 Q1815.83 1522.85 1815.83 1531.6 Q1815.83 1540.33 1812.75 1544.94 Q1809.7 1549.52 1803.89 1549.52 Q1798.08 1549.52 1795 1544.94 Q1791.94 1540.33 1791.94 1531.6 Q1791.94 1522.85 1795 1518.27 Q1798.08 1513.66 1803.89 1513.66 Z" fill="#000000" fill-rule="nonzero" fill-opacity="1" /><path clip-path="url(#clip010)" d="M2237.19 1544.91 L2244.83 1544.91 L2244.83 1518.55 L2236.52 1520.21 L2236.52 1515.95 L2244.78 1514.29 L2249.46 1514.29 L2249.46 1544.91 L2257.1 1544.91 L2257.1 1548.85 L2237.19 1548.85 L2237.19 1544.91 Z" fill="#000000" fill-rule="nonzero" fill-opacity="1" /><path clip-path="url(#clip010)" d="M2276.54 1517.37 Q2272.93 1517.37 2271.1 1520.93 Q2269.3 1524.47 2269.3 1531.6 Q2269.3 1538.71 2271.1 1542.27 Q2272.93 1545.82 2276.54 1545.82 Q2280.18 1545.82 2281.98 1542.27 Q2283.81 1538.71 2283.81 1531.6 Q2283.81 1524.47 2281.98 1520.93 Q2280.18 1517.37 2276.54 1517.37 M2276.54 1513.66 Q2282.35 1513.66 2285.41 1518.27 Q2288.49 1522.85 2288.49 1531.6 Q2288.49 1540.33 2285.41 1544.94 Q2282.35 1549.52 2276.54 1549.52 Q2270.73 1549.52 2267.65 1544.94 Q2264.6 1540.33 2264.6 1531.6 Q2264.6 1522.85 2267.65 1518.27 Q2270.73 1513.66 2276.54 1513.66 Z" fill="#000000" fill-rule="nonzero" fill-opacity="1" /><path clip-path="url(#clip010)" d="M2306.7 1517.37 Q2303.09 1517.37 2301.27 1520.93 Q2299.46 1524.47 2299.46 1531.6 Q2299.46 1538.71 2301.27 1542.27 Q2303.09 1545.82 2306.7 1545.82 Q2310.34 1545.82 2312.14 1542.27 Q2313.97 1538.71 2313.97 1531.6 Q2313.97 1524.47 2312.14 1520.93 Q2310.34 1517.37 2306.7 1517.37 M2306.7 1513.66 Q2312.51 1513.66 2315.57 1518.27 Q2318.65 1522.85 2318.65 1531.6 Q2318.65 1540.33 2315.57 1544.94 Q2312.51 1549.52 2306.7 1549.52 Q2300.89 1549.52 2297.82 1544.94 Q2294.76 1540.33 2294.76 1531.6 Q2294.76 1522.85 2297.82 1518.27 Q2300.89 1513.66 2306.7 1513.66 Z" fill="#000000" fill-rule="nonzero" fill-opacity="1" /><path clip-path="url(#clip010)" d="M2336.87 1517.37 Q2333.26 1517.37 2331.43 1520.93 Q2329.62 1524.47 2329.62 1531.6 Q2329.62 1538.71 2331.43 1542.27 Q2333.26 1545.82 2336.87 1545.82 Q2340.5 1545.82 2342.31 1542.27 Q2344.14 1538.71 2344.14 1531.6 Q2344.14 1524.47 2342.31 1520.93 Q2340.5 1517.37 2336.87 1517.37 M2336.87 1513.66 Q2342.68 1513.66 2345.73 1518.27 Q2348.81 1522.85 2348.81 1531.6 Q2348.81 1540.33 2345.73 1544.94 Q2342.68 1549.52 2336.87 1549.52 Q2331.06 1549.52 2327.98 1544.94 Q2324.92 1540.33 2324.92 1531.6 Q2324.92 1522.85 2327.98 1518.27 Q2331.06 1513.66 2336.87 1513.66 Z" fill="#000000" fill-rule="nonzero" fill-opacity="1" /><polyline clip-path="url(#clip012)" style="stroke:#000000; stroke-linecap:round; stroke-linejoin:round; stroke-width:2; stroke-opacity:0.1; fill:none" points="156.274,1294.86 2352.76,1294.86 "/>
<polyline clip-path="url(#clip012)" style="stroke:#000000; stroke-linecap:round; stroke-linejoin:round; stroke-width:2; stroke-opacity:0.1; fill:none" points="156.274,1043.42 2352.76,1043.42 "/>
<polyline clip-path="url(#clip012)" style="stroke:#000000; stroke-linecap:round; stroke-linejoin:round; stroke-width:2; stroke-opacity:0.1; fill:none" points="156.274,791.989 2352.76,791.989 "/>
<polyline clip-path="url(#clip012)" style="stroke:#000000; stroke-linecap:round; stroke-linejoin:round; stroke-width:2; stroke-opacity:0.1; fill:none" points="156.274,540.556 2352.76,540.556 "/>
<polyline clip-path="url(#clip012)" style="stroke:#000000; stroke-linecap:round; stroke-linejoin:round; stroke-width:2; stroke-opacity:0.1; fill:none" points="156.274,289.123 2352.76,289.123 "/>
<polyline clip-path="url(#clip010)" style="stroke:#000000; stroke-linecap:round; stroke-linejoin:round; stroke-width:4; stroke-opacity:1; fill:none" points="156.274,1486.45 156.274,47.2441 "/>
<polyline clip-path="url(#clip010)" style="stroke:#000000; stroke-linecap:round; stroke-linejoin:round; stroke-width:4; stroke-opacity:1; fill:none" points="156.274,1294.86 175.172,1294.86 "/>
<polyline clip-path="url(#clip010)" style="stroke:#000000; stroke-linecap:round; stroke-linejoin:round; stroke-width:4; stroke-opacity:1; fill:none" points="156.274,1043.42 175.172,1043.42 "/>
<polyline clip-path="url(#clip010)" style="stroke:#000000; stroke-linecap:round; stroke-linejoin:round; stroke-width:4; stroke-opacity:1; fill:none" points="156.274,791.989 175.172,791.989 "/>
<polyline clip-path="url(#clip010)" style="stroke:#000000; stroke-linecap:round; stroke-linejoin:round; stroke-width:4; stroke-opacity:1; fill:none" points="156.274,540.556 175.172,540.556 "/>
<polyline clip-path="url(#clip010)" style="stroke:#000000; stroke-linecap:round; stroke-linejoin:round; stroke-width:4; stroke-opacity:1; fill:none" points="156.274,289.123 175.172,289.123 "/>
<path clip-path="url(#clip010)" d="M64.0939 1280.65 Q60.4828 1280.65 58.6541 1284.22 Q56.8486 1287.76 56.8486 1294.89 Q56.8486 1302 58.6541 1305.56 Q60.4828 1309.1 64.0939 1309.1 Q67.7281 1309.1 69.5337 1305.56 Q71.3624 1302 71.3624 1294.89 Q71.3624 1287.76 69.5337 1284.22 Q67.7281 1280.65 64.0939 1280.65 M64.0939 1276.95 Q69.9041 1276.95 72.9596 1281.56 Q76.0383 1286.14 76.0383 1294.89 Q76.0383 1303.62 72.9596 1308.22 Q69.9041 1312.81 64.0939 1312.81 Q58.2838 1312.81 55.2051 1308.22 Q52.1495 1303.62 52.1495 1294.89 Q52.1495 1286.14 55.2051 1281.56 Q58.2838 1276.95 64.0939 1276.95 Z" fill="#000000" fill-rule="nonzero" fill-opacity="1" /><path clip-path="url(#clip010)" d="M84.2558 1306.26 L89.1401 1306.26 L89.1401 1312.14 L84.2558 1312.14 L84.2558 1306.26 Z" fill="#000000" fill-rule="nonzero" fill-opacity="1" /><path clip-path="url(#clip010)" d="M99.3715 1277.58 L117.728 1277.58 L117.728 1281.51 L103.654 1281.51 L103.654 1289.98 Q104.672 1289.64 105.691 1289.47 Q106.709 1289.29 107.728 1289.29 Q113.515 1289.29 116.895 1292.46 Q120.274 1295.63 120.274 1301.05 Q120.274 1306.63 116.802 1309.73 Q113.33 1312.81 107.01 1312.81 Q104.834 1312.81 102.566 1312.44 Q100.321 1312.07 97.9132 1311.33 L97.9132 1306.63 Q99.9965 1307.76 102.219 1308.32 Q104.441 1308.87 106.918 1308.87 Q110.922 1308.87 113.26 1306.77 Q115.598 1304.66 115.598 1301.05 Q115.598 1297.44 113.26 1295.33 Q110.922 1293.22 106.918 1293.22 Q105.043 1293.22 103.168 1293.64 Q101.316 1294.06 99.3715 1294.94 L99.3715 1277.58 Z" fill="#000000" fill-rule="nonzero" fill-opacity="1" /><path clip-path="url(#clip010)" d="M62.9365 1029.22 Q59.3254 1029.22 57.4967 1032.79 Q55.6912 1036.33 55.6912 1043.46 Q55.6912 1050.56 57.4967 1054.13 Q59.3254 1057.67 62.9365 1057.67 Q66.5707 1057.67 68.3763 1054.13 Q70.205 1050.56 70.205 1043.46 Q70.205 1036.33 68.3763 1032.79 Q66.5707 1029.22 62.9365 1029.22 M62.9365 1025.52 Q68.7467 1025.52 71.8022 1030.12 Q74.8809 1034.71 74.8809 1043.46 Q74.8809 1052.18 71.8022 1056.79 Q68.7467 1061.37 62.9365 1061.37 Q57.1264 1061.37 54.0477 1056.79 Q50.9921 1052.18 50.9921 1043.46 Q50.9921 1034.71 54.0477 1030.12 Q57.1264 1025.52 62.9365 1025.52 Z" fill="#000000" fill-rule="nonzero" fill-opacity="1" /><path clip-path="url(#clip010)" d="M83.0984 1054.82 L87.9827 1054.82 L87.9827 1060.7 L83.0984 1060.7 L83.0984 1054.82 Z" fill="#000000" fill-rule="nonzero" fill-opacity="1" /><path clip-path="url(#clip010)" d="M108.746 1041.56 Q105.598 1041.56 103.746 1043.71 Q101.918 1045.86 101.918 1049.61 Q101.918 1053.34 103.746 1055.52 Q105.598 1057.67 108.746 1057.67 Q111.895 1057.67 113.723 1055.52 Q115.575 1053.34 115.575 1049.61 Q115.575 1045.86 113.723 1043.71 Q111.895 1041.56 108.746 1041.56 M118.029 1026.91 L118.029 1031.17 Q116.27 1030.33 114.464 1029.89 Q112.682 1029.45 110.922 1029.45 Q106.293 1029.45 103.839 1032.58 Q101.409 1035.7 101.061 1042.02 Q102.427 1040.01 104.487 1038.94 Q106.547 1037.86 109.024 1037.86 Q114.233 1037.86 117.242 1041.03 Q120.274 1044.17 120.274 1049.61 Q120.274 1054.94 117.126 1058.16 Q113.978 1061.37 108.746 1061.37 Q102.751 1061.37 99.5798 1056.79 Q96.4085 1052.18 96.4085 1043.46 Q96.4085 1035.26 100.297 1030.4 Q104.186 1025.52 110.737 1025.52 Q112.496 1025.52 114.279 1025.86 Q116.084 1026.21 118.029 1026.91 Z" fill="#000000" fill-rule="nonzero" fill-opacity="1" /><path clip-path="url(#clip010)" d="M64.0013 777.788 Q60.3902 777.788 58.5615 781.353 Q56.756 784.894 56.756 792.024 Q56.756 799.13 58.5615 802.695 Q60.3902 806.237 64.0013 806.237 Q67.6356 806.237 69.4411 802.695 Q71.2698 799.13 71.2698 792.024 Q71.2698 784.894 69.4411 781.353 Q67.6356 777.788 64.0013 777.788 M64.0013 774.084 Q69.8115 774.084 72.867 778.691 Q75.9457 783.274 75.9457 792.024 Q75.9457 800.751 72.867 805.357 Q69.8115 809.941 64.0013 809.941 Q58.1912 809.941 55.1125 805.357 Q52.0569 800.751 52.0569 792.024 Q52.0569 783.274 55.1125 778.691 Q58.1912 774.084 64.0013 774.084 Z" fill="#000000" fill-rule="nonzero" fill-opacity="1" /><path clip-path="url(#clip010)" d="M84.1632 803.39 L89.0475 803.39 L89.0475 809.269 L84.1632 809.269 L84.1632 803.39 Z" fill="#000000" fill-rule="nonzero" fill-opacity="1" /><path clip-path="url(#clip010)" d="M98.0521 774.709 L120.274 774.709 L120.274 776.7 L107.728 809.269 L102.844 809.269 L114.649 778.644 L98.0521 778.644 L98.0521 774.709 Z" fill="#000000" fill-rule="nonzero" fill-opacity="1" /><path clip-path="url(#clip010)" d="M63.1911 526.355 Q59.58 526.355 57.7513 529.92 Q55.9458 533.461 55.9458 540.591 Q55.9458 547.697 57.7513 551.262 Q59.58 554.804 63.1911 554.804 Q66.8254 554.804 68.6309 551.262 Q70.4596 547.697 70.4596 540.591 Q70.4596 533.461 68.6309 529.92 Q66.8254 526.355 63.1911 526.355 M63.1911 522.651 Q69.0013 522.651 72.0568 527.258 Q75.1355 531.841 75.1355 540.591 Q75.1355 549.318 72.0568 553.924 Q69.0013 558.507 63.1911 558.507 Q57.381 558.507 54.3023 553.924 Q51.2468 549.318 51.2468 540.591 Q51.2468 531.841 54.3023 527.258 Q57.381 522.651 63.1911 522.651 Z" fill="#000000" fill-rule="nonzero" fill-opacity="1" /><path clip-path="url(#clip010)" d="M83.3531 551.956 L88.2373 551.956 L88.2373 557.836 L83.3531 557.836 L83.3531 551.956 Z" fill="#000000" fill-rule="nonzero" fill-opacity="1" /><path clip-path="url(#clip010)" d="M108.422 541.424 Q105.089 541.424 103.168 543.207 Q101.27 544.989 101.27 548.114 Q101.27 551.239 103.168 553.021 Q105.089 554.804 108.422 554.804 Q111.756 554.804 113.677 553.021 Q115.598 551.216 115.598 548.114 Q115.598 544.989 113.677 543.207 Q111.779 541.424 108.422 541.424 M103.746 539.433 Q100.737 538.693 99.0474 536.632 Q97.3808 534.572 97.3808 531.609 Q97.3808 527.466 100.321 525.058 Q103.284 522.651 108.422 522.651 Q113.584 522.651 116.524 525.058 Q119.464 527.466 119.464 531.609 Q119.464 534.572 117.774 536.632 Q116.108 538.693 113.121 539.433 Q116.501 540.22 118.376 542.512 Q120.274 544.804 120.274 548.114 Q120.274 553.137 117.195 555.822 Q114.14 558.507 108.422 558.507 Q102.705 558.507 99.6261 555.822 Q96.5706 553.137 96.5706 548.114 Q96.5706 544.804 98.4687 542.512 Q100.367 540.22 103.746 539.433 M102.034 532.049 Q102.034 534.734 103.7 536.239 Q105.39 537.744 108.422 537.744 Q111.432 537.744 113.121 536.239 Q114.834 534.734 114.834 532.049 Q114.834 529.364 113.121 527.859 Q111.432 526.355 108.422 526.355 Q105.39 526.355 103.7 527.859 Q102.034 529.364 102.034 532.049 Z" fill="#000000" fill-rule="nonzero" fill-opacity="1" /><path clip-path="url(#clip010)" d="M63.2837 274.922 Q59.6726 274.922 57.8439 278.486 Q56.0384 282.028 56.0384 289.158 Q56.0384 296.264 57.8439 299.829 Q59.6726 303.37 63.2837 303.37 Q66.918 303.37 68.7235 299.829 Q70.5522 296.264 70.5522 289.158 Q70.5522 282.028 68.7235 278.486 Q66.918 274.922 63.2837 274.922 M63.2837 271.218 Q69.0939 271.218 72.1494 275.824 Q75.2281 280.408 75.2281 289.158 Q75.2281 297.884 72.1494 302.491 Q69.0939 307.074 63.2837 307.074 Q57.4736 307.074 54.3949 302.491 Q51.3393 297.884 51.3393 289.158 Q51.3393 280.408 54.3949 275.824 Q57.4736 271.218 63.2837 271.218 Z" fill="#000000" fill-rule="nonzero" fill-opacity="1" /><path clip-path="url(#clip010)" d="M83.4457 300.523 L88.3299 300.523 L88.3299 306.403 L83.4457 306.403 L83.4457 300.523 Z" fill="#000000" fill-rule="nonzero" fill-opacity="1" /><path clip-path="url(#clip010)" d="M98.6539 305.685 L98.6539 301.426 Q100.413 302.259 102.219 302.699 Q104.024 303.139 105.76 303.139 Q110.39 303.139 112.82 300.037 Q115.274 296.912 115.621 290.57 Q114.279 292.56 112.219 293.625 Q110.158 294.69 107.658 294.69 Q102.473 294.69 99.4409 291.565 Q96.4317 288.417 96.4317 282.977 Q96.4317 277.653 99.5798 274.435 Q102.728 271.218 107.959 271.218 Q113.955 271.218 117.103 275.824 Q120.274 280.408 120.274 289.158 Q120.274 297.329 116.385 302.213 Q112.52 307.074 105.969 307.074 Q104.209 307.074 102.404 306.727 Q100.598 306.38 98.6539 305.685 M107.959 291.033 Q111.108 291.033 112.936 288.88 Q114.788 286.727 114.788 282.977 Q114.788 279.25 112.936 277.097 Q111.108 274.922 107.959 274.922 Q104.811 274.922 102.959 277.097 Q101.131 279.25 101.131 282.977 Q101.131 286.727 102.959 288.88 Q104.811 291.033 107.959 291.033 Z" fill="#000000" fill-rule="nonzero" fill-opacity="1" /><polyline clip-path="url(#clip012)" style="stroke:#009af9; stroke-linecap:round; stroke-linejoin:round; stroke-width:4; stroke-opacity:1; fill:none" points="218.439,892.563 220.513,791.989 222.587,1194.28 224.661,1093.71 226.736,892.563 228.81,1043.42 230.884,741.703 232.958,741.703 235.033,1093.71 237.107,741.703 239.181,1043.42 241.255,1144 243.329,791.989 245.404,1194.28 247.478,993.136 249.552,892.563 251.626,942.849 253.701,942.849 255.775,1144 257.849,892.563 259.923,1093.71 261.998,1194.28 264.072,1043.42 266.146,892.563 268.22,993.136 270.294,942.849 272.369,691.416 274.443,1043.42 276.517,1043.42 278.591,1093.71 280.666,842.276 282.74,892.563 284.814,1043.42 286.888,1043.42 288.962,993.136 291.037,993.136 293.111,942.849 295.185,993.136 297.259,842.276 299.334,842.276 301.408,892.563 303.482,1043.42 305.556,892.563 307.63,892.563 309.705,842.276 311.779,1244.57 313.853,741.703 315.927,892.563 318.002,1043.42 320.076,1093.71 322.15,942.849 324.224,942.849 326.299,842.276 328.373,1043.42 330.447,791.989 332.521,691.416 334.595,641.129 336.67,1043.42 338.744,842.276 340.818,942.849 342.892,1093.71 344.967,842.276 347.041,942.849 349.115,1445.72 351.189,842.276 353.263,540.556 355.338,1093.71 357.412,590.843 359.486,741.703 361.56,791.989 363.635,942.849 365.709,791.989 367.783,1043.42 369.857,1093.71 371.932,942.849 374.006,1093.71 376.08,993.136 378.154,691.416 380.228,1244.57 382.303,942.849 384.377,993.136 386.451,691.416 388.525,1043.42 390.6,842.276 392.674,1093.71 394.748,791.989 396.822,1043.42 398.896,1144 400.971,993.136 403.045,842.276 405.119,892.563 407.193,1244.57 409.268,641.129 411.342,691.416 413.416,942.849 415.49,1194.28 417.565,1093.71 419.639,892.563 421.713,1194.28 423.787,993.136 425.861,842.276 427.936,641.129 430.01,1244.57 432.084,1043.42 434.158,942.849 436.233,691.416 438.307,942.849 440.381,791.989 442.455,741.703 444.529,942.849 446.604,590.843 448.678,892.563 450.752,540.556 452.826,741.703 454.901,993.136 456.975,1194.28 459.049,1194.28 461.123,842.276 463.198,993.136 465.272,641.129 467.346,942.849 469.42,1093.71 471.494,993.136 473.569,1194.28 475.643,791.989 477.717,691.416 479.791,1043.42 481.866,439.983 483.94,741.703 486.014,993.136 488.088,993.136 490.162,842.276 492.237,791.989 494.311,1043.42 496.385,641.129 498.459,942.849 500.534,1194.28 502.608,1043.42 504.682,1093.71 506.756,892.563 508.83,842.276 510.905,741.703 512.979,1093.71 515.053,842.276 517.127,892.563 519.202,892.563 521.276,641.129 523.35,791.989 525.424,641.129 527.499,590.843 529.573,942.849 531.647,892.563 533.721,1194.28 535.795,741.703 537.87,993.136 539.944,892.563 542.018,590.843 544.092,1194.28 546.167,993.136 548.241,892.563 550.315,892.563 552.389,691.416 554.463,892.563 556.538,691.416 558.612,942.849 560.686,942.849 562.76,1194.28 564.835,691.416 566.909,942.849 568.983,1144 571.057,691.416 573.132,741.703 575.206,691.416 577.28,842.276 579.354,1244.57 581.428,791.989 583.503,993.136 585.577,791.989 587.651,993.136 589.725,1144 591.8,892.563 593.874,791.989 595.948,993.136 598.022,1093.71 600.096,942.849 602.171,741.703 604.245,1043.42 606.319,1043.42 608.393,842.276 610.468,791.989 612.542,1144 614.616,791.989 616.69,1144 618.765,791.989 620.839,791.989 622.913,691.416 624.987,942.849 627.061,842.276 629.136,993.136 631.21,1093.71 633.284,1093.71 635.358,1294.86 637.433,942.849 639.507,791.989 641.581,892.563 643.655,741.703 645.729,942.849 647.804,641.129 649.878,942.849 651.952,741.703 654.026,1043.42 656.101,741.703 658.175,1144 660.249,993.136 662.323,1043.42 664.398,942.849 666.472,942.849 668.546,791.989 670.62,993.136 672.694,741.703 674.769,590.843 676.843,791.989 678.917,741.703 680.991,741.703 683.066,942.849 685.14,842.276 687.214,842.276 689.288,791.989 691.362,842.276 693.437,892.563 695.511,1144 697.585,791.989 699.659,1144 701.734,842.276 703.808,791.989 705.882,691.416 707.956,892.563 710.03,791.989 712.105,590.843 714.179,691.416 716.253,892.563 718.327,691.416 720.402,892.563 722.476,1194.28 724.55,791.989 726.624,942.849 728.699,942.849 730.773,942.849 732.847,892.563 734.921,993.136 736.995,590.843 739.07,791.989 741.144,1093.71 743.218,791.989 745.292,993.136 747.367,892.563 749.441,791.989 751.515,993.136 753.589,1093.71 755.663,842.276 757.738,691.416 759.812,791.989 761.886,1093.71 763.96,942.849 766.035,741.703 768.109,842.276 770.183,791.989 772.257,490.269 774.332,842.276 776.406,993.136 778.48,993.136 780.554,741.703 782.628,741.703 784.703,1043.42 786.777,691.416 788.851,439.983 790.925,892.563 793,892.563 795.074,993.136 797.148,993.136 799.222,993.136 801.296,641.129 803.371,791.989 805.445,892.563 807.519,1043.42 809.593,641.129 811.668,842.276 813.742,791.989 815.816,741.703 817.89,1043.42 819.965,942.849 822.039,842.276 824.113,741.703 826.187,942.849 828.261,641.129 830.336,590.843 832.41,892.563 834.484,791.989 836.558,791.989 838.633,993.136 840.707,993.136 842.781,741.703 844.855,691.416 846.929,842.276 849.004,842.276 851.078,641.129 853.152,791.989 855.226,741.703 857.301,993.136 859.375,741.703 861.449,993.136 863.523,791.989 865.598,691.416 867.672,641.129 869.746,993.136 871.82,641.129 873.894,1043.42 875.969,842.276 878.043,1144 880.117,842.276 882.191,842.276 884.266,993.136 886.34,741.703 888.414,691.416 890.488,942.849 892.562,641.129 894.637,942.849 896.711,741.703 898.785,540.556 900.859,892.563 902.934,942.849 905.008,1093.71 907.082,942.849 909.156,1043.42 911.23,1043.42 913.305,490.269 915.379,842.276 917.453,741.703 919.527,590.843 921.602,842.276 923.676,741.703 925.75,942.849 927.824,590.843 929.899,691.416 931.973,1093.71 934.047,741.703 936.121,490.269 938.195,691.416 940.27,641.129 942.344,791.989 944.418,691.416 946.492,691.416 948.567,1194.28 950.641,641.129 952.715,842.276 954.789,439.983 956.863,842.276 958.938,842.276 961.012,289.123 963.086,741.703 965.16,691.416 967.235,1043.42 969.309,691.416 971.383,892.563 973.457,791.989 975.532,892.563 977.606,942.849 979.68,741.703 981.754,641.129 983.828,540.556 985.903,892.563 987.977,791.989 990.051,791.989 992.125,842.276 994.2,590.843 996.274,691.416 998.348,540.556 1000.42,892.563 1002.5,691.416 1004.57,540.556 1006.64,741.703 1008.72,691.416 1010.79,791.989 1012.87,741.703 1014.94,892.563 1017.02,641.129 1019.09,490.269 1021.16,641.129 1023.24,540.556 1025.31,842.276 1027.39,842.276 1029.46,842.276 1031.54,641.129 1033.61,791.989 1035.68,641.129 1037.76,490.269 1039.83,892.563 1041.91,892.563 1043.98,641.129 1046.06,641.129 1048.13,691.416 1050.2,490.269 1052.28,741.703 1054.35,540.556 1056.43,892.563 1058.5,791.989 1060.57,791.989 1062.65,1093.71 1064.72,842.276 1066.8,842.276 1068.87,791.989 1070.95,590.843 1073.02,590.843 1075.09,842.276 1077.17,540.556 1079.24,490.269 1081.32,993.136 1083.39,691.416 1085.47,791.989 1087.54,641.129 1089.61,540.556 1091.69,641.129 1093.76,691.416 1095.84,641.129 1097.91,691.416 1099.99,741.703 1102.06,691.416 1104.13,741.703 1106.21,590.843 1108.28,741.703 1110.36,942.849 1112.43,590.843 1114.5,490.269 1116.58,490.269 1118.65,641.129 1120.73,741.703 1122.8,540.556 1124.88,540.556 1126.95,691.416 1129.02,590.843 1131.1,842.276 1133.17,641.129 1135.25,842.276 1137.32,641.129 1139.4,590.843 1141.47,590.843 1143.54,892.563 1145.62,791.989 1147.69,641.129 1149.77,339.41 1151.84,741.703 1153.92,741.703 1155.99,741.703 1158.06,741.703 1160.14,439.983 1162.21,490.269 1164.29,590.843 1166.36,540.556 1168.43,641.129 1170.51,490.269 1172.58,540.556 1174.66,540.556 1176.73,540.556 1178.81,641.129 1180.88,741.703 1182.95,691.416 1185.03,590.843 1187.1,993.136 1189.18,892.563 1191.25,590.843 1193.33,590.843 1195.4,691.416 1197.47,289.123 1199.55,540.556 1201.62,691.416 1203.7,490.269 1205.77,691.416 1207.84,641.129 1209.92,490.269 1211.99,540.556 1214.07,590.843 1216.14,791.989 1218.22,339.41 1220.29,590.843 1222.36,590.843 1224.44,641.129 1226.51,540.556 1228.59,490.269 1230.66,590.843 1232.74,590.843 1234.81,490.269 1236.88,791.989 1238.96,590.843 1241.03,691.416 1243.11,389.696 1245.18,641.129 1247.26,339.41 1249.33,691.416 1251.4,741.703 1253.48,490.269 1255.55,439.983 1257.63,791.989 1259.7,389.696 1261.77,540.556 1263.85,238.836 1265.92,490.269 1268,389.696 1270.07,540.556 1272.15,289.123 1274.22,590.843 1276.29,540.556 1278.37,691.416 1280.44,439.983 1282.52,741.703 1284.59,791.989 1286.67,641.129 1288.74,741.703 1290.81,791.989 1292.89,540.556 1294.96,641.129 1297.04,389.696 1299.11,791.989 1301.19,641.129 1303.26,741.703 1305.33,741.703 1307.41,590.843 1309.48,540.556 1311.56,590.843 1313.63,339.41 1315.7,842.276 1317.78,490.269 1319.85,641.129 1321.93,590.843 1324,741.703 1326.08,590.843 1328.15,439.983 1330.22,741.703 1332.3,339.41 1334.37,791.989 1336.45,641.129 1338.52,540.556 1340.6,439.983 1342.67,540.556 1344.74,540.556 1346.82,439.983 1348.89,691.416 1350.97,540.556 1353.04,691.416 1355.12,590.843 1357.19,238.836 1359.26,389.696 1361.34,741.703 1363.41,490.269 1365.49,993.136 1367.56,339.41 1369.63,289.123 1371.71,439.983 1373.78,641.129 1375.86,791.989 1377.93,490.269 1380.01,590.843 1382.08,641.129 1384.15,791.989 1386.23,490.269 1388.3,490.269 1390.38,590.843 1392.45,289.123 1394.53,289.123 1396.6,389.696 1398.67,791.989 1400.75,641.129 1402.82,439.983 1404.9,540.556 1406.97,741.703 1409.04,490.269 1411.12,490.269 1413.19,490.269 1415.27,87.9763 1417.34,540.556 1419.42,590.843 1421.49,439.983 1423.56,439.983 1425.64,339.41 1427.71,590.843 1429.79,540.556 1431.86,590.843 1433.94,439.983 1436.01,439.983 1438.08,389.696 1440.16,641.129 1442.23,389.696 1444.31,942.849 1446.38,339.41 1448.46,590.843 1450.53,289.123 1452.6,741.703 1454.68,490.269 1456.75,439.983 1458.83,490.269 1460.9,590.843 1462.97,641.129 1465.05,238.836 1467.12,842.276 1469.2,490.269 1471.27,641.129 1473.35,590.843 1475.42,641.129 1477.49,439.983 1479.57,439.983 1481.64,339.41 1483.72,540.556 1485.79,590.843 1487.87,590.843 1489.94,439.983 1492.01,741.703 1494.09,540.556 1496.16,791.989 1498.24,741.703 1500.31,691.416 1502.39,540.556 1504.46,339.41 1506.53,439.983 1508.61,641.129 1510.68,389.696 1512.76,389.696 1514.83,490.269 1516.9,641.129 1518.98,439.983 1521.05,741.703 1523.13,389.696 1525.2,389.696 1527.28,439.983 1529.35,439.983 1531.42,540.556 1533.5,439.983 1535.57,641.129 1537.65,389.696 1539.72,641.129 1541.8,439.983 1543.87,389.696 1545.94,490.269 1548.02,540.556 1550.09,389.696 1552.17,641.129 1554.24,791.989 1556.32,590.843 1558.39,540.556 1560.46,741.703 1562.54,490.269 1564.61,389.696 1566.69,540.556 1568.76,389.696 1570.83,490.269 1572.91,339.41 1574.98,691.416 1577.06,339.41 1579.13,641.129 1581.21,590.843 1583.28,389.696 1585.35,691.416 1587.43,389.696 1589.5,540.556 1591.58,289.123 1593.65,439.983 1595.73,439.983 1597.8,389.696 1599.87,590.843 1601.95,339.41 1604.02,540.556 1606.1,540.556 1608.17,490.269 1610.24,590.843 1612.32,339.41 1614.39,289.123 1616.47,641.129 1618.54,339.41 1620.62,289.123 1622.69,691.416 1624.76,339.41 1626.84,389.696 1628.91,389.696 1630.99,691.416 1633.06,540.556 1635.14,439.983 1637.21,540.556 1639.28,389.696 1641.36,339.41 1643.43,490.269 1645.51,339.41 1647.58,490.269 1649.66,590.843 1651.73,439.983 1653.8,389.696 1655.88,389.696 1657.95,490.269 1660.03,439.983 1662.1,540.556 1664.17,641.129 1666.25,691.416 1668.32,238.836 1670.4,339.41 1672.47,691.416 1674.55,339.41 1676.62,339.41 1678.69,540.556 1680.77,439.983 1682.84,540.556 1684.92,289.123 1686.99,490.269 1689.07,339.41 1691.14,439.983 1693.21,238.836 1695.29,490.269 1697.36,339.41 1699.44,490.269 1701.51,339.41 1703.59,389.696 1705.66,439.983 1707.73,590.843 1709.81,439.983 1711.88,439.983 1713.96,439.983 1716.03,439.983 1718.1,389.696 1720.18,490.269 1722.25,540.556 1724.33,439.983 1726.4,490.269 1728.48,339.41 1730.55,339.41 1732.62,439.983 1734.7,590.843 1736.77,339.41 1738.85,691.416 1740.92,439.983 1743,439.983 1745.07,741.703 1747.14,590.843 1749.22,138.263 1751.29,188.55 1753.37,389.696 1755.44,641.129 1757.52,289.123 1759.59,389.696 1761.66,389.696 1763.74,490.269 1765.81,490.269 1767.89,238.836 1769.96,590.843 1772.03,339.41 1774.11,389.696 1776.18,389.696 1778.26,540.556 1780.33,439.983 1782.41,389.696 1784.48,439.983 1786.55,641.129 1788.63,540.556 1790.7,540.556 1792.78,540.556 1794.85,641.129 1796.93,490.269 1799,439.983 1801.07,289.123 1803.15,188.55 1805.22,540.556 1807.3,490.269 1809.37,741.703 1811.44,490.269 1813.52,540.556 1815.59,641.129 1817.67,339.41 1819.74,289.123 1821.82,188.55 1823.89,590.843 1825.96,540.556 1828.04,439.983 1830.11,238.836 1832.19,490.269 1834.26,389.696 1836.34,540.556 1838.41,540.556 1840.48,540.556 1842.56,439.983 1844.63,439.983 1846.71,389.696 1848.78,439.983 1850.86,439.983 1852.93,289.123 1855,791.989 1857.08,691.416 1859.15,339.41 1861.23,439.983 1863.3,289.123 1865.37,439.983 1867.45,439.983 1869.52,439.983 1871.6,691.416 1873.67,389.696 1875.75,289.123 1877.82,188.55 1879.89,490.269 1881.97,490.269 1884.04,289.123 1886.12,590.843 1888.19,439.983 1890.27,339.41 1892.34,490.269 1894.41,389.696 1896.49,339.41 1898.56,389.696 1900.64,439.983 1902.71,590.843 1904.79,490.269 1906.86,389.696 1908.93,289.123 1911.01,289.123 1913.08,490.269 1915.16,289.123 1917.23,490.269 1919.3,238.836 1921.38,540.556 1923.45,439.983 1925.53,490.269 1927.6,641.129 1929.68,389.696 1931.75,339.41 1933.82,439.983 1935.9,238.836 1937.97,590.843 1940.05,439.983 1942.12,540.556 1944.2,389.696 1946.27,389.696 1948.34,289.123 1950.42,389.696 1952.49,238.836 1954.57,339.41 1956.64,490.269 1958.72,188.55 1960.79,590.843 1962.86,439.983 1964.94,238.836 1967.01,389.696 1969.09,540.556 1971.16,238.836 1973.23,439.983 1975.31,490.269 1977.38,791.989 1979.46,439.983 1981.53,439.983 1983.61,439.983 1985.68,289.123 1987.75,339.41 1989.83,339.41 1991.9,439.983 1993.98,389.696 1996.05,188.55 1998.13,439.983 2000.2,490.269 2002.27,238.836 2004.35,590.843 2006.42,540.556 2008.5,490.269 2010.57,439.983 2012.64,339.41 2014.72,389.696 2016.79,590.843 2018.87,389.696 2020.94,238.836 2023.02,289.123 2025.09,238.836 2027.16,540.556 2029.24,540.556 2031.31,590.843 2033.39,389.696 2035.46,188.55 2037.54,389.696 2039.61,238.836 2041.68,389.696 2043.76,590.843 2045.83,439.983 2047.91,490.269 2049.98,188.55 2052.06,289.123 2054.13,238.836 2056.2,339.41 2058.28,188.55 2060.35,289.123 2062.43,590.843 2064.5,289.123 2066.57,490.269 2068.65,439.983 2070.72,389.696 2072.8,590.843 2074.87,439.983 2076.95,289.123 2079.02,490.269 2081.09,389.696 2083.17,238.836 2085.24,289.123 2087.32,389.696 2089.39,339.41 2091.47,188.55 2093.54,540.556 2095.61,389.696 2097.69,389.696 2099.76,339.41 2101.84,289.123 2103.91,389.696 2105.99,289.123 2108.06,540.556 2110.13,389.696 2112.21,590.843 2114.28,439.983 2116.36,439.983 2118.43,289.123 2120.5,339.41 2122.58,540.556 2124.65,289.123 2126.73,490.269 2128.8,439.983 2130.88,540.556 2132.95,238.836 2135.02,339.41 2137.1,490.269 2139.17,339.41 2141.25,289.123 2143.32,389.696 2145.4,289.123 2147.47,389.696 2149.54,138.263 2151.62,389.696 2153.69,339.41 2155.77,289.123 2157.84,188.55 2159.92,389.696 2161.99,289.123 2164.06,389.696 2166.14,389.696 2168.21,389.696 2170.29,188.55 2172.36,289.123 2174.43,289.123 2176.51,389.696 2178.58,339.41 2180.66,389.696 2182.73,339.41 2184.81,691.416 2186.88,87.9763 2188.95,138.263 2191.03,238.836 2193.1,389.696 2195.18,490.269 2197.25,439.983 2199.33,540.556 2201.4,389.696 2203.47,188.55 2205.55,238.836 2207.62,339.41 2209.7,289.123 2211.77,389.696 2213.84,439.983 2215.92,540.556 2217.99,540.556 2220.07,389.696 2222.14,389.696 2224.22,439.983 2226.29,188.55 2228.36,490.269 2230.44,389.696 2232.51,389.696 2234.59,188.55 2236.66,590.843 2238.74,641.129 2240.81,389.696 2242.88,289.123 2244.96,540.556 2247.03,439.983 2249.11,741.703 2251.18,389.696 2253.26,339.41 2255.33,238.836 2257.4,188.55 2259.48,490.269 2261.55,289.123 2263.63,289.123 2265.7,389.696 2267.77,289.123 2269.85,339.41 2271.92,339.41 2274,540.556 2276.07,289.123 2278.15,389.696 2280.22,439.983 2282.29,289.123 2284.37,389.696 2286.44,339.41 2288.52,289.123 2290.59,289.123 "/>
<path clip-path="url(#clip010)" d="M229.49 198.898 L501.569 198.898 L501.569 95.2176 L229.49 95.2176  Z" fill="#ffffff" fill-rule="evenodd" fill-opacity="1"/>
<polyline clip-path="url(#clip010)" style="stroke:#000000; stroke-linecap:round; stroke-linejoin:round; stroke-width:4; stroke-opacity:1; fill:none" points="229.49,198.898 501.569,198.898 501.569,95.2176 229.49,95.2176 229.49,198.898 "/>
<polyline clip-path="url(#clip010)" style="stroke:#009af9; stroke-linecap:round; stroke-linejoin:round; stroke-width:4; stroke-opacity:1; fill:none" points="253.896,147.058 400.328,147.058 "/>
<path clip-path="url(#clip010)" d="M438.576 166.745 Q436.77 171.375 435.057 172.787 Q433.344 174.199 430.474 174.199 L427.071 174.199 L427.071 170.634 L429.571 170.634 Q431.33 170.634 432.302 169.8 Q433.275 168.967 434.455 165.865 L435.219 163.921 L424.733 138.412 L429.247 138.412 L437.349 158.689 L445.451 138.412 L449.964 138.412 L438.576 166.745 Z" fill="#000000" fill-rule="nonzero" fill-opacity="1" /><path clip-path="url(#clip010)" d="M457.256 160.402 L464.895 160.402 L464.895 134.037 L456.585 135.703 L456.585 131.444 L464.849 129.778 L469.524 129.778 L469.524 160.402 L477.163 160.402 L477.163 164.338 L457.256 164.338 L457.256 160.402 Z" fill="#000000" fill-rule="nonzero" fill-opacity="1" /></svg>
