<?xml version="1.0" encoding="utf-8"?>
<svg xmlns="http://www.w3.org/2000/svg" xmlns:xlink="http://www.w3.org/1999/xlink" width="600" height="400" viewBox="0 0 2400 1600">
<defs>
  <clipPath id="clip950">
    <rect x="0" y="0" width="2400" height="1600"/>
  </clipPath>
</defs>
<path clip-path="url(#clip950)" d="M0 1600 L2400 1600 L2400 0 L0 0  Z" fill="#ffffff" fill-rule="evenodd" fill-opacity="1"/>
<defs>
  <clipPath id="clip951">
    <rect x="480" y="0" width="1681" height="1600"/>
  </clipPath>
</defs>
<path clip-path="url(#clip950)" d="M141.853 1486.45 L2352.76 1486.45 L2352.76 47.2441 L141.853 47.2441  Z" fill="#ffffff" fill-rule="evenodd" fill-opacity="1"/>
<defs>
  <clipPath id="clip952">
    <rect x="141" y="47" width="2212" height="1440"/>
  </clipPath>
</defs>
<polyline clip-path="url(#clip952)" style="stroke:#000000; stroke-linecap:round; stroke-linejoin:round; stroke-width:2; stroke-opacity:0.1; fill:none" points="204.426,1486.45 204.426,47.2441 "/>
<polyline clip-path="url(#clip952)" style="stroke:#000000; stroke-linecap:round; stroke-linejoin:round; stroke-width:2; stroke-opacity:0.1; fill:none" points="725.865,1486.45 725.865,47.2441 "/>
<polyline clip-path="url(#clip952)" style="stroke:#000000; stroke-linecap:round; stroke-linejoin:round; stroke-width:2; stroke-opacity:0.1; fill:none" points="1247.3,1486.45 1247.3,47.2441 "/>
<polyline clip-path="url(#clip952)" style="stroke:#000000; stroke-linecap:round; stroke-linejoin:round; stroke-width:2; stroke-opacity:0.1; fill:none" points="1768.74,1486.45 1768.74,47.2441 "/>
<polyline clip-path="url(#clip952)" style="stroke:#000000; stroke-linecap:round; stroke-linejoin:round; stroke-width:2; stroke-opacity:0.1; fill:none" points="2290.18,1486.45 2290.18,47.2441 "/>
<polyline clip-path="url(#clip950)" style="stroke:#000000; stroke-linecap:round; stroke-linejoin:round; stroke-width:4; stroke-opacity:1; fill:none" points="141.853,1486.45 2352.76,1486.45 "/>
<polyline clip-path="url(#clip950)" style="stroke:#000000; stroke-linecap:round; stroke-linejoin:round; stroke-width:4; stroke-opacity:1; fill:none" points="204.426,1486.45 204.426,1467.55 "/>
<polyline clip-path="url(#clip950)" style="stroke:#000000; stroke-linecap:round; stroke-linejoin:round; stroke-width:4; stroke-opacity:1; fill:none" points="725.865,1486.45 725.865,1467.55 "/>
<polyline clip-path="url(#clip950)" style="stroke:#000000; stroke-linecap:round; stroke-linejoin:round; stroke-width:4; stroke-opacity:1; fill:none" points="1247.3,1486.45 1247.3,1467.55 "/>
<polyline clip-path="url(#clip950)" style="stroke:#000000; stroke-linecap:round; stroke-linejoin:round; stroke-width:4; stroke-opacity:1; fill:none" points="1768.74,1486.45 1768.74,1467.55 "/>
<polyline clip-path="url(#clip950)" style="stroke:#000000; stroke-linecap:round; stroke-linejoin:round; stroke-width:4; stroke-opacity:1; fill:none" points="2290.18,1486.45 2290.18,1467.55 "/>
<path clip-path="url(#clip950)" d="M204.426 1517.37 Q200.815 1517.37 198.986 1520.93 Q197.18 1524.47 197.18 1531.6 Q197.18 1538.71 198.986 1542.27 Q200.815 1545.82 204.426 1545.82 Q208.06 1545.82 209.865 1542.27 Q211.694 1538.71 211.694 1531.6 Q211.694 1524.47 209.865 1520.93 Q208.06 1517.37 204.426 1517.37 M204.426 1513.66 Q210.236 1513.66 213.291 1518.27 Q216.37 1522.85 216.37 1531.6 Q216.37 1540.33 213.291 1544.94 Q210.236 1549.52 204.426 1549.52 Q198.616 1549.52 195.537 1544.94 Q192.481 1540.33 192.481 1531.6 Q192.481 1522.85 195.537 1518.27 Q198.616 1513.66 204.426 1513.66 Z" fill="#000000" fill-rule="nonzero" fill-opacity="1" /><path clip-path="url(#clip950)" d="M685.483 1514.29 L703.84 1514.29 L703.84 1518.22 L689.766 1518.22 L689.766 1526.7 Q690.784 1526.35 691.803 1526.19 Q692.821 1526 693.84 1526 Q699.627 1526 703.006 1529.17 Q706.386 1532.34 706.386 1537.76 Q706.386 1543.34 702.914 1546.44 Q699.442 1549.52 693.122 1549.52 Q690.946 1549.52 688.678 1549.15 Q686.432 1548.78 684.025 1548.04 L684.025 1543.34 Q686.108 1544.47 688.331 1545.03 Q690.553 1545.58 693.03 1545.58 Q697.034 1545.58 699.372 1543.48 Q701.71 1541.37 701.71 1537.76 Q701.71 1534.15 699.372 1532.04 Q697.034 1529.94 693.03 1529.94 Q691.155 1529.94 689.28 1530.35 Q687.428 1530.77 685.483 1531.65 L685.483 1514.29 Z" fill="#000000" fill-rule="nonzero" fill-opacity="1" /><path clip-path="url(#clip950)" d="M725.599 1517.37 Q721.988 1517.37 720.159 1520.93 Q718.354 1524.47 718.354 1531.6 Q718.354 1538.71 720.159 1542.27 Q721.988 1545.82 725.599 1545.82 Q729.233 1545.82 731.039 1542.27 Q732.867 1538.71 732.867 1531.6 Q732.867 1524.47 731.039 1520.93 Q729.233 1517.37 725.599 1517.37 M725.599 1513.66 Q731.409 1513.66 734.465 1518.27 Q737.543 1522.85 737.543 1531.6 Q737.543 1540.33 734.465 1544.94 Q731.409 1549.52 725.599 1549.52 Q719.789 1549.52 716.71 1544.94 Q713.654 1540.33 713.654 1531.6 Q713.654 1522.85 716.71 1518.27 Q719.789 1513.66 725.599 1513.66 Z" fill="#000000" fill-rule="nonzero" fill-opacity="1" /><path clip-path="url(#clip950)" d="M755.761 1517.37 Q752.15 1517.37 750.321 1520.93 Q748.515 1524.47 748.515 1531.6 Q748.515 1538.71 750.321 1542.27 Q752.15 1545.82 755.761 1545.82 Q759.395 1545.82 761.201 1542.27 Q763.029 1538.71 763.029 1531.6 Q763.029 1524.47 761.201 1520.93 Q759.395 1517.37 755.761 1517.37 M755.761 1513.66 Q761.571 1513.66 764.626 1518.27 Q767.705 1522.85 767.705 1531.6 Q767.705 1540.33 764.626 1544.94 Q761.571 1549.52 755.761 1549.52 Q749.951 1549.52 746.872 1544.94 Q743.816 1540.33 743.816 1531.6 Q743.816 1522.85 746.872 1518.27 Q749.951 1513.66 755.761 1513.66 Z" fill="#000000" fill-rule="nonzero" fill-opacity="1" /><path clip-path="url(#clip950)" d="M1191.83 1544.91 L1199.47 1544.91 L1199.47 1518.55 L1191.16 1520.21 L1191.16 1515.95 L1199.42 1514.29 L1204.1 1514.29 L1204.1 1544.91 L1211.74 1544.91 L1211.74 1548.85 L1191.83 1548.85 L1191.83 1544.91 Z" fill="#000000" fill-rule="nonzero" fill-opacity="1" /><path clip-path="url(#clip950)" d="M1231.18 1517.37 Q1227.57 1517.37 1225.74 1520.93 Q1223.94 1524.47 1223.94 1531.6 Q1223.94 1538.71 1225.74 1542.27 Q1227.57 1545.82 1231.18 1545.82 Q1234.82 1545.82 1236.62 1542.27 Q1238.45 1538.71 1238.45 1531.6 Q1238.45 1524.47 1236.62 1520.93 Q1234.82 1517.37 1231.18 1517.37 M1231.18 1513.66 Q1236.99 1513.66 1240.05 1518.27 Q1243.13 1522.85 1243.13 1531.6 Q1243.13 1540.33 1240.05 1544.94 Q1236.99 1549.52 1231.18 1549.52 Q1225.37 1549.52 1222.29 1544.94 Q1219.24 1540.33 1219.24 1531.6 Q1219.24 1522.85 1222.29 1518.27 Q1225.37 1513.66 1231.18 1513.66 Z" fill="#000000" fill-rule="nonzero" fill-opacity="1" /><path clip-path="url(#clip950)" d="M1261.34 1517.37 Q1257.73 1517.37 1255.9 1520.93 Q1254.1 1524.47 1254.1 1531.6 Q1254.1 1538.71 1255.9 1542.27 Q1257.73 1545.82 1261.34 1545.82 Q1264.98 1545.82 1266.78 1542.27 Q1268.61 1538.71 1268.61 1531.6 Q1268.61 1524.47 1266.78 1520.93 Q1264.98 1517.37 1261.34 1517.37 M1261.34 1513.66 Q1267.15 1513.66 1270.21 1518.27 Q1273.29 1522.85 1273.29 1531.6 Q1273.29 1540.33 1270.21 1544.94 Q1267.15 1549.52 1261.34 1549.52 Q1255.53 1549.52 1252.45 1544.94 Q1249.4 1540.33 1249.4 1531.6 Q1249.4 1522.85 1252.45 1518.27 Q1255.53 1513.66 1261.34 1513.66 Z" fill="#000000" fill-rule="nonzero" fill-opacity="1" /><path clip-path="url(#clip950)" d="M1291.51 1517.37 Q1287.89 1517.37 1286.07 1520.93 Q1284.26 1524.47 1284.26 1531.6 Q1284.26 1538.71 1286.07 1542.27 Q1287.89 1545.82 1291.51 1545.82 Q1295.14 1545.82 1296.95 1542.27 Q1298.77 1538.71 1298.77 1531.6 Q1298.77 1524.47 1296.95 1520.93 Q1295.14 1517.37 1291.51 1517.37 M1291.51 1513.66 Q1297.32 1513.66 1300.37 1518.27 Q1303.45 1522.85 1303.45 1531.6 Q1303.45 1540.33 1300.37 1544.94 Q1297.32 1549.52 1291.51 1549.52 Q1285.7 1549.52 1282.62 1544.94 Q1279.56 1540.33 1279.56 1531.6 Q1279.56 1522.85 1282.62 1518.27 Q1285.7 1513.66 1291.51 1513.66 Z" fill="#000000" fill-rule="nonzero" fill-opacity="1" /><path clip-path="url(#clip950)" d="M1713.27 1544.91 L1720.91 1544.91 L1720.91 1518.55 L1712.6 1520.21 L1712.6 1515.95 L1720.86 1514.29 L1725.54 1514.29 L1725.54 1544.91 L1733.18 1544.91 L1733.18 1548.85 L1713.27 1548.85 L1713.27 1544.91 Z" fill="#000000" fill-rule="nonzero" fill-opacity="1" /><path clip-path="url(#clip950)" d="M1742.67 1514.29 L1761.02 1514.29 L1761.02 1518.22 L1746.95 1518.22 L1746.95 1526.7 Q1747.97 1526.35 1748.99 1526.19 Q1750.01 1526 1751.02 1526 Q1756.81 1526 1760.19 1529.17 Q1763.57 1532.34 1763.57 1537.76 Q1763.57 1543.34 1760.1 1546.44 Q1756.63 1549.52 1750.31 1549.52 Q1748.13 1549.52 1745.86 1549.15 Q1743.62 1548.78 1741.21 1548.04 L1741.21 1543.34 Q1743.29 1544.47 1745.51 1545.03 Q1747.74 1545.58 1750.21 1545.58 Q1754.22 1545.58 1756.56 1543.48 Q1758.89 1541.37 1758.89 1537.76 Q1758.89 1534.15 1756.56 1532.04 Q1754.22 1529.94 1750.21 1529.94 Q1748.34 1529.94 1746.46 1530.35 Q1744.61 1530.77 1742.67 1531.65 L1742.67 1514.29 Z" fill="#000000" fill-rule="nonzero" fill-opacity="1" /><path clip-path="url(#clip950)" d="M1782.78 1517.37 Q1779.17 1517.37 1777.34 1520.93 Q1775.54 1524.47 1775.54 1531.6 Q1775.54 1538.71 1777.34 1542.27 Q1779.17 1545.82 1782.78 1545.82 Q1786.42 1545.82 1788.22 1542.27 Q1790.05 1538.71 1790.05 1531.6 Q1790.05 1524.47 1788.22 1520.93 Q1786.42 1517.37 1782.78 1517.37 M1782.78 1513.66 Q1788.59 1513.66 1791.65 1518.27 Q1794.73 1522.85 1794.73 1531.6 Q1794.73 1540.33 1791.65 1544.94 Q1788.59 1549.52 1782.78 1549.52 Q1776.97 1549.52 1773.89 1544.94 Q1770.84 1540.33 1770.84 1531.6 Q1770.84 1522.85 1773.89 1518.27 Q1776.97 1513.66 1782.78 1513.66 Z" fill="#000000" fill-rule="nonzero" fill-opacity="1" /><path clip-path="url(#clip950)" d="M1812.94 1517.37 Q1809.33 1517.37 1807.51 1520.93 Q1805.7 1524.47 1805.7 1531.6 Q1805.7 1538.71 1807.51 1542.27 Q1809.33 1545.82 1812.94 1545.82 Q1816.58 1545.82 1818.38 1542.27 Q1820.21 1538.71 1820.21 1531.6 Q1820.21 1524.47 1818.38 1520.93 Q1816.58 1517.37 1812.94 1517.37 M1812.94 1513.66 Q1818.76 1513.66 1821.81 1518.27 Q1824.89 1522.85 1824.89 1531.6 Q1824.89 1540.33 1821.81 1544.94 Q1818.76 1549.52 1812.94 1549.52 Q1807.13 1549.52 1804.06 1544.94 Q1801 1540.33 1801 1531.6 Q1801 1522.85 1804.06 1518.27 Q1807.13 1513.66 1812.94 1513.66 Z" fill="#000000" fill-rule="nonzero" fill-opacity="1" /><path clip-path="url(#clip950)" d="M2238.79 1544.91 L2255.11 1544.91 L2255.11 1548.85 L2233.17 1548.85 L2233.17 1544.91 Q2235.83 1542.16 2240.41 1537.53 Q2245.02 1532.88 2246.2 1531.53 Q2248.45 1529.01 2249.33 1527.27 Q2250.23 1525.51 2250.23 1523.82 Q2250.23 1521.07 2248.29 1519.33 Q2246.36 1517.6 2243.26 1517.6 Q2241.06 1517.6 2238.61 1518.36 Q2236.18 1519.13 2233.4 1520.68 L2233.4 1515.95 Q2236.23 1514.82 2238.68 1514.24 Q2241.13 1513.66 2243.17 1513.66 Q2248.54 1513.66 2251.73 1516.35 Q2254.93 1519.03 2254.93 1523.52 Q2254.93 1525.65 2254.12 1527.57 Q2253.33 1529.47 2251.23 1532.07 Q2250.65 1532.74 2247.54 1535.95 Q2244.44 1539.15 2238.79 1544.91 Z" fill="#000000" fill-rule="nonzero" fill-opacity="1" /><path clip-path="url(#clip950)" d="M2274.93 1517.37 Q2271.32 1517.37 2269.49 1520.93 Q2267.68 1524.47 2267.68 1531.6 Q2267.68 1538.71 2269.49 1542.27 Q2271.32 1545.82 2274.93 1545.82 Q2278.56 1545.82 2280.37 1542.27 Q2282.2 1538.71 2282.2 1531.6 Q2282.2 1524.47 2280.37 1520.93 Q2278.56 1517.37 2274.93 1517.37 M2274.93 1513.66 Q2280.74 1513.66 2283.79 1518.27 Q2286.87 1522.85 2286.87 1531.6 Q2286.87 1540.33 2283.79 1544.94 Q2280.74 1549.52 2274.93 1549.52 Q2269.12 1549.52 2266.04 1544.94 Q2262.98 1540.33 2262.98 1531.6 Q2262.98 1522.85 2266.04 1518.27 Q2269.12 1513.66 2274.93 1513.66 Z" fill="#000000" fill-rule="nonzero" fill-opacity="1" /><path clip-path="url(#clip950)" d="M2305.09 1517.37 Q2301.48 1517.37 2299.65 1520.93 Q2297.85 1524.47 2297.85 1531.6 Q2297.85 1538.71 2299.65 1542.27 Q2301.48 1545.82 2305.09 1545.82 Q2308.72 1545.82 2310.53 1542.27 Q2312.36 1538.71 2312.36 1531.6 Q2312.36 1524.47 2310.53 1520.93 Q2308.72 1517.37 2305.09 1517.37 M2305.09 1513.66 Q2310.9 1513.66 2313.96 1518.27 Q2317.03 1522.85 2317.03 1531.6 Q2317.03 1540.33 2313.96 1544.94 Q2310.9 1549.52 2305.09 1549.52 Q2299.28 1549.52 2296.2 1544.94 Q2293.15 1540.33 2293.15 1531.6 Q2293.15 1522.85 2296.2 1518.27 Q2299.28 1513.66 2305.09 1513.66 Z" fill="#000000" fill-rule="nonzero" fill-opacity="1" /><path clip-path="url(#clip950)" d="M2335.25 1517.37 Q2331.64 1517.37 2329.81 1520.93 Q2328.01 1524.47 2328.01 1531.6 Q2328.01 1538.71 2329.81 1542.27 Q2331.64 1545.82 2335.25 1545.82 Q2338.89 1545.82 2340.69 1542.27 Q2342.52 1538.71 2342.52 1531.6 Q2342.52 1524.47 2340.69 1520.93 Q2338.89 1517.37 2335.25 1517.37 M2335.25 1513.66 Q2341.06 1513.66 2344.12 1518.27 Q2347.2 1522.85 2347.2 1531.6 Q2347.2 1540.33 2344.12 1544.94 Q2341.06 1549.52 2335.25 1549.52 Q2329.44 1549.52 2326.36 1544.94 Q2323.31 1540.33 2323.31 1531.6 Q2323.31 1522.85 2326.36 1518.27 Q2329.44 1513.66 2335.25 1513.66 Z" fill="#000000" fill-rule="nonzero" fill-opacity="1" /><polyline clip-path="url(#clip952)" style="stroke:#000000; stroke-linecap:round; stroke-linejoin:round; stroke-width:2; stroke-opacity:0.1; fill:none" points="141.853,1298.01 2352.76,1298.01 "/>
<polyline clip-path="url(#clip952)" style="stroke:#000000; stroke-linecap:round; stroke-linejoin:round; stroke-width:2; stroke-opacity:0.1; fill:none" points="141.853,1103.37 2352.76,1103.37 "/>
<polyline clip-path="url(#clip952)" style="stroke:#000000; stroke-linecap:round; stroke-linejoin:round; stroke-width:2; stroke-opacity:0.1; fill:none" points="141.853,908.725 2352.76,908.725 "/>
<polyline clip-path="url(#clip952)" style="stroke:#000000; stroke-linecap:round; stroke-linejoin:round; stroke-width:2; stroke-opacity:0.1; fill:none" points="141.853,714.083 2352.76,714.083 "/>
<polyline clip-path="url(#clip952)" style="stroke:#000000; stroke-linecap:round; stroke-linejoin:round; stroke-width:2; stroke-opacity:0.1; fill:none" points="141.853,519.441 2352.76,519.441 "/>
<polyline clip-path="url(#clip952)" style="stroke:#000000; stroke-linecap:round; stroke-linejoin:round; stroke-width:2; stroke-opacity:0.1; fill:none" points="141.853,324.799 2352.76,324.799 "/>
<polyline clip-path="url(#clip952)" style="stroke:#000000; stroke-linecap:round; stroke-linejoin:round; stroke-width:2; stroke-opacity:0.1; fill:none" points="141.853,130.157 2352.76,130.157 "/>
<polyline clip-path="url(#clip950)" style="stroke:#000000; stroke-linecap:round; stroke-linejoin:round; stroke-width:4; stroke-opacity:1; fill:none" points="141.853,1486.45 141.853,47.2441 "/>
<polyline clip-path="url(#clip950)" style="stroke:#000000; stroke-linecap:round; stroke-linejoin:round; stroke-width:4; stroke-opacity:1; fill:none" points="141.853,1298.01 160.751,1298.01 "/>
<polyline clip-path="url(#clip950)" style="stroke:#000000; stroke-linecap:round; stroke-linejoin:round; stroke-width:4; stroke-opacity:1; fill:none" points="141.853,1103.37 160.751,1103.37 "/>
<polyline clip-path="url(#clip950)" style="stroke:#000000; stroke-linecap:round; stroke-linejoin:round; stroke-width:4; stroke-opacity:1; fill:none" points="141.853,908.725 160.751,908.725 "/>
<polyline clip-path="url(#clip950)" style="stroke:#000000; stroke-linecap:round; stroke-linejoin:round; stroke-width:4; stroke-opacity:1; fill:none" points="141.853,714.083 160.751,714.083 "/>
<polyline clip-path="url(#clip950)" style="stroke:#000000; stroke-linecap:round; stroke-linejoin:round; stroke-width:4; stroke-opacity:1; fill:none" points="141.853,519.441 160.751,519.441 "/>
<polyline clip-path="url(#clip950)" style="stroke:#000000; stroke-linecap:round; stroke-linejoin:round; stroke-width:4; stroke-opacity:1; fill:none" points="141.853,324.799 160.751,324.799 "/>
<polyline clip-path="url(#clip950)" style="stroke:#000000; stroke-linecap:round; stroke-linejoin:round; stroke-width:4; stroke-opacity:1; fill:none" points="141.853,130.157 160.751,130.157 "/>
<path clip-path="url(#clip950)" d="M54.5569 1311.35 L62.1958 1311.35 L62.1958 1284.99 L53.8856 1286.66 L53.8856 1282.4 L62.1495 1280.73 L66.8254 1280.73 L66.8254 1311.35 L74.4642 1311.35 L74.4642 1315.29 L54.5569 1315.29 L54.5569 1311.35 Z" fill="#000000" fill-rule="nonzero" fill-opacity="1" /><path clip-path="url(#clip950)" d="M93.9086 1283.81 Q90.2975 1283.81 88.4688 1287.37 Q86.6632 1290.91 86.6632 1298.04 Q86.6632 1305.15 88.4688 1308.72 Q90.2975 1312.26 93.9086 1312.26 Q97.5428 1312.26 99.3483 1308.72 Q101.177 1305.15 101.177 1298.04 Q101.177 1290.91 99.3483 1287.37 Q97.5428 1283.81 93.9086 1283.81 M93.9086 1280.1 Q99.7187 1280.1 102.774 1284.71 Q105.853 1289.29 105.853 1298.04 Q105.853 1306.77 102.774 1311.38 Q99.7187 1315.96 93.9086 1315.96 Q88.0984 1315.96 85.0197 1311.38 Q81.9642 1306.77 81.9642 1298.04 Q81.9642 1289.29 85.0197 1284.71 Q88.0984 1280.1 93.9086 1280.1 Z" fill="#000000" fill-rule="nonzero" fill-opacity="1" /><path clip-path="url(#clip950)" d="M57.7745 1116.71 L74.0939 1116.71 L74.0939 1120.65 L52.1495 1120.65 L52.1495 1116.71 Q54.8115 1113.96 59.3949 1109.33 Q64.0013 1104.68 65.1819 1103.33 Q67.4272 1100.81 68.3068 1099.07 Q69.2096 1097.31 69.2096 1095.62 Q69.2096 1092.87 67.2652 1091.13 Q65.3439 1089.4 62.2421 1089.4 Q60.043 1089.4 57.5893 1090.16 Q55.1588 1090.93 52.381 1092.48 L52.381 1087.75 Q55.2051 1086.62 57.6588 1086.04 Q60.1124 1085.46 62.1495 1085.46 Q67.5198 1085.46 70.7142 1088.15 Q73.9087 1090.83 73.9087 1095.32 Q73.9087 1097.45 73.0985 1099.37 Q72.3115 1101.27 70.205 1103.87 Q69.6263 1104.54 66.5245 1107.75 Q63.4226 1110.95 57.7745 1116.71 Z" fill="#000000" fill-rule="nonzero" fill-opacity="1" /><path clip-path="url(#clip950)" d="M93.9086 1089.17 Q90.2975 1089.17 88.4688 1092.73 Q86.6632 1096.27 86.6632 1103.4 Q86.6632 1110.51 88.4688 1114.07 Q90.2975 1117.62 93.9086 1117.62 Q97.5428 1117.62 99.3483 1114.07 Q101.177 1110.51 101.177 1103.4 Q101.177 1096.27 99.3483 1092.73 Q97.5428 1089.17 93.9086 1089.17 M93.9086 1085.46 Q99.7187 1085.46 102.774 1090.07 Q105.853 1094.65 105.853 1103.4 Q105.853 1112.13 102.774 1116.74 Q99.7187 1121.32 93.9086 1121.32 Q88.0984 1121.32 85.0197 1116.74 Q81.9642 1112.13 81.9642 1103.4 Q81.9642 1094.65 85.0197 1090.07 Q88.0984 1085.46 93.9086 1085.46 Z" fill="#000000" fill-rule="nonzero" fill-opacity="1" /><path clip-path="url(#clip950)" d="M67.9133 907.371 Q71.2698 908.089 73.1448 910.357 Q75.0429 912.626 75.0429 915.959 Q75.0429 921.075 71.5244 923.876 Q68.0059 926.677 61.5245 926.677 Q59.3486 926.677 57.0338 926.237 Q54.7421 925.82 52.2884 924.964 L52.2884 920.45 Q54.2328 921.584 56.5477 922.163 Q58.8625 922.741 61.3856 922.741 Q65.7837 922.741 68.0754 921.005 Q70.3902 919.269 70.3902 915.959 Q70.3902 912.904 68.2374 911.191 Q66.1078 909.455 62.2884 909.455 L58.2606 909.455 L58.2606 905.612 L62.4735 905.612 Q65.9226 905.612 67.7513 904.246 Q69.58 902.857 69.58 900.265 Q69.58 897.603 67.6819 896.191 Q65.8069 894.756 62.2884 894.756 Q60.3671 894.756 58.168 895.172 Q55.969 895.589 53.3301 896.468 L53.3301 892.302 Q55.9921 891.561 58.3069 891.191 Q60.6449 890.82 62.705 890.82 Q68.0291 890.82 71.1309 893.251 Q74.2327 895.658 74.2327 899.779 Q74.2327 902.649 72.5892 904.64 Q70.9457 906.607 67.9133 907.371 Z" fill="#000000" fill-rule="nonzero" fill-opacity="1" /><path clip-path="url(#clip950)" d="M93.9086 894.524 Q90.2975 894.524 88.4688 898.089 Q86.6632 901.63 86.6632 908.76 Q86.6632 915.867 88.4688 919.431 Q90.2975 922.973 93.9086 922.973 Q97.5428 922.973 99.3483 919.431 Q101.177 915.867 101.177 908.76 Q101.177 901.63 99.3483 898.089 Q97.5428 894.524 93.9086 894.524 M93.9086 890.82 Q99.7187 890.82 102.774 895.427 Q105.853 900.01 105.853 908.76 Q105.853 917.487 102.774 922.093 Q99.7187 926.677 93.9086 926.677 Q88.0984 926.677 85.0197 922.093 Q81.9642 917.487 81.9642 908.76 Q81.9642 900.01 85.0197 895.427 Q88.0984 890.82 93.9086 890.82 Z" fill="#000000" fill-rule="nonzero" fill-opacity="1" /><path clip-path="url(#clip950)" d="M66.5939 700.877 L54.7884 719.326 L66.5939 719.326 L66.5939 700.877 M65.367 696.803 L71.2466 696.803 L71.2466 719.326 L76.1772 719.326 L76.1772 723.215 L71.2466 723.215 L71.2466 731.363 L66.5939 731.363 L66.5939 723.215 L50.9921 723.215 L50.9921 718.701 L65.367 696.803 Z" fill="#000000" fill-rule="nonzero" fill-opacity="1" /><path clip-path="url(#clip950)" d="M93.9086 699.882 Q90.2975 699.882 88.4688 703.447 Q86.6632 706.988 86.6632 714.118 Q86.6632 721.224 88.4688 724.789 Q90.2975 728.331 93.9086 728.331 Q97.5428 728.331 99.3483 724.789 Q101.177 721.224 101.177 714.118 Q101.177 706.988 99.3483 703.447 Q97.5428 699.882 93.9086 699.882 M93.9086 696.178 Q99.7187 696.178 102.774 700.785 Q105.853 705.368 105.853 714.118 Q105.853 722.845 102.774 727.451 Q99.7187 732.034 93.9086 732.034 Q88.0984 732.034 85.0197 727.451 Q81.9642 722.845 81.9642 714.118 Q81.9642 705.368 85.0197 700.785 Q88.0984 696.178 93.9086 696.178 Z" fill="#000000" fill-rule="nonzero" fill-opacity="1" /><path clip-path="url(#clip950)" d="M53.793 502.161 L72.1494 502.161 L72.1494 506.096 L58.0754 506.096 L58.0754 514.568 Q59.0939 514.221 60.1124 514.059 Q61.131 513.874 62.1495 513.874 Q67.9365 513.874 71.3161 517.045 Q74.6957 520.216 74.6957 525.633 Q74.6957 531.212 71.2235 534.314 Q67.7513 537.392 61.4319 537.392 Q59.256 537.392 56.9875 537.022 Q54.7421 536.652 52.3347 535.911 L52.3347 531.212 Q54.418 532.346 56.6402 532.902 Q58.8625 533.457 61.3393 533.457 Q65.3439 533.457 67.6819 531.351 Q70.0198 529.244 70.0198 525.633 Q70.0198 522.022 67.6819 519.915 Q65.3439 517.809 61.3393 517.809 Q59.4643 517.809 57.5893 518.226 Q55.7375 518.642 53.793 519.522 L53.793 502.161 Z" fill="#000000" fill-rule="nonzero" fill-opacity="1" /><path clip-path="url(#clip950)" d="M93.9086 505.24 Q90.2975 505.24 88.4688 508.804 Q86.6632 512.346 86.6632 519.476 Q86.6632 526.582 88.4688 530.147 Q90.2975 533.689 93.9086 533.689 Q97.5428 533.689 99.3483 530.147 Q101.177 526.582 101.177 519.476 Q101.177 512.346 99.3483 508.804 Q97.5428 505.24 93.9086 505.24 M93.9086 501.536 Q99.7187 501.536 102.774 506.142 Q105.853 510.726 105.853 519.476 Q105.853 528.202 102.774 532.809 Q99.7187 537.392 93.9086 537.392 Q88.0984 537.392 85.0197 532.809 Q81.9642 528.202 81.9642 519.476 Q81.9642 510.726 85.0197 506.142 Q88.0984 501.536 93.9086 501.536 Z" fill="#000000" fill-rule="nonzero" fill-opacity="1" /><path clip-path="url(#clip950)" d="M64.3254 322.935 Q61.1773 322.935 59.3254 325.088 Q57.4967 327.241 57.4967 330.991 Q57.4967 334.718 59.3254 336.894 Q61.1773 339.046 64.3254 339.046 Q67.4735 339.046 69.3022 336.894 Q71.1541 334.718 71.1541 330.991 Q71.1541 327.241 69.3022 325.088 Q67.4735 322.935 64.3254 322.935 M73.6077 308.283 L73.6077 312.542 Q71.8485 311.709 70.0429 311.269 Q68.2606 310.829 66.5013 310.829 Q61.8717 310.829 59.418 313.954 Q56.9875 317.079 56.6402 323.398 Q58.006 321.384 60.0662 320.32 Q62.1263 319.232 64.6032 319.232 Q69.8115 319.232 72.8207 322.403 Q75.8531 325.551 75.8531 330.991 Q75.8531 336.315 72.705 339.532 Q69.5568 342.75 64.3254 342.75 Q58.33 342.75 55.1588 338.167 Q51.9875 333.56 51.9875 324.833 Q51.9875 316.639 55.8764 311.778 Q59.7652 306.894 66.3161 306.894 Q68.0754 306.894 69.8578 307.241 Q71.6633 307.588 73.6077 308.283 Z" fill="#000000" fill-rule="nonzero" fill-opacity="1" /><path clip-path="url(#clip950)" d="M93.9086 310.597 Q90.2975 310.597 88.4688 314.162 Q86.6632 317.704 86.6632 324.833 Q86.6632 331.94 88.4688 335.505 Q90.2975 339.046 93.9086 339.046 Q97.5428 339.046 99.3483 335.505 Q101.177 331.94 101.177 324.833 Q101.177 317.704 99.3483 314.162 Q97.5428 310.597 93.9086 310.597 M93.9086 306.894 Q99.7187 306.894 102.774 311.5 Q105.853 316.084 105.853 324.833 Q105.853 333.56 102.774 338.167 Q99.7187 342.75 93.9086 342.75 Q88.0984 342.75 85.0197 338.167 Q81.9642 333.56 81.9642 324.833 Q81.9642 316.084 85.0197 311.5 Q88.0984 306.894 93.9086 306.894 Z" fill="#000000" fill-rule="nonzero" fill-opacity="1" /><path clip-path="url(#clip950)" d="M52.5662 112.877 L74.7883 112.877 L74.7883 114.867 L62.2421 147.437 L57.3578 147.437 L69.1633 116.812 L52.5662 116.812 L52.5662 112.877 Z" fill="#000000" fill-rule="nonzero" fill-opacity="1" /><path clip-path="url(#clip950)" d="M93.9086 115.955 Q90.2975 115.955 88.4688 119.52 Q86.6632 123.062 86.6632 130.191 Q86.6632 137.298 88.4688 140.863 Q90.2975 144.404 93.9086 144.404 Q97.5428 144.404 99.3483 140.863 Q101.177 137.298 101.177 130.191 Q101.177 123.062 99.3483 119.52 Q97.5428 115.955 93.9086 115.955 M93.9086 112.252 Q99.7187 112.252 102.774 116.858 Q105.853 121.441 105.853 130.191 Q105.853 138.918 102.774 143.525 Q99.7187 148.108 93.9086 148.108 Q88.0984 148.108 85.0197 143.525 Q81.9642 138.918 81.9642 130.191 Q81.9642 121.441 85.0197 116.858 Q88.0984 112.252 93.9086 112.252 Z" fill="#000000" fill-rule="nonzero" fill-opacity="1" /><polyline clip-path="url(#clip952)" style="stroke:#009af9; stroke-linecap:round; stroke-linejoin:round; stroke-width:4; stroke-opacity:1; fill:none" points="204.426,1241.67 205.469,1241.74 206.511,1192.46 207.554,1192.63 208.597,1215.47 209.64,1215.54 210.683,1403.52 211.726,1403.53 212.769,1346.99 213.812,1347 214.854,1403.4 215.897,1403.41 216.94,1283.84 217.983,1283.9 219.026,1207.38 220.069,1207.45 221.112,1090.62 222.155,1090.76 223.197,1360.95 224.24,1360.97 225.283,1244.13 226.326,1244.2 227.369,1445.71 228.412,1445.72 229.455,1257.74 230.498,1257.83 231.541,1348.79 232.583,1348.81 233.626,1250.94 234.669,1250.99 235.712,1300.09 236.755,1300.16 237.798,1203.56 238.841,1203.66 239.884,1271.85 240.926,1271.9 241.969,1322.41 243.012,1322.47 244.055,896.301 245.098,896.44 246.141,786.463 247.184,786.687 248.227,1425.62 249.269,1425.63 250.312,1425.03 251.355,1425.04 252.398,1175.02 253.441,1175.1 254.484,1266.98 255.527,1267.04 256.57,1049.96 257.612,1050.07 258.655,1280.68 259.698,1280.77 260.741,1252.84 261.784,1252.88 262.827,1171.57 263.87,1171.67 264.913,1213 265.956,1213.08 266.998,1186.36 268.041,1186.49 269.084,1343.29 270.127,1343.33 271.17,1056.64 272.213,1056.81 273.256,1384.94 274.299,1384.95 275.341,1324.52 276.384,1324.58 277.427,1082.7 278.47,1082.84 279.513,1101.75 280.556,1101.84 281.599,1108.81 282.642,1108.97 283.684,990.765 284.727,990.887 285.77,1229.12 286.813,1229.2 287.856,1404.99 288.899,1405 289.942,1365.29 290.985,1365.31 292.027,1209.47 293.07,1209.56 294.113,1309.49 295.156,1309.53 296.199,1290.02 297.242,1290.06 298.285,1291.95 299.328,1291.99 300.371,1344.16 301.413,1344.21 302.456,1118.13 303.499,1118.24 304.542,1346.03 305.585,1346.07 306.628,1239.3 307.671,1239.37 308.714,1175.71 309.756,1175.79 310.799,1330.71 311.842,1330.73 312.885,1290.57 313.928,1290.6 314.971,1137 316.014,1137.12 317.057,1178.71 318.099,1178.79 319.142,1305.77 320.185,1305.82 321.228,1030.7 322.271,1030.88 323.314,1219.48 324.357,1219.54 325.4,1197.22 326.442,1197.29 327.485,1213.59 328.528,1213.7 329.571,1367.43 330.614,1367.45 331.657,1189.4 332.7,1189.55 333.743,1273.43 334.786,1273.49 335.828,1318.71 336.871,1318.74 337.914,1272.67 338.957,1272.71 340,1404.48 341.043,1404.49 342.086,1270.12 343.129,1270.2 344.171,1287.51 345.214,1287.57 346.257,1179.81 347.3,1179.88 348.343,1289.16 349.386,1289.22 350.429,1199.77 351.472,1199.83 352.514,860.331 353.557,860.542 354.6,1329.58 355.643,1329.62 356.686,1314.31 357.729,1314.33 358.772,1232.64 359.815,1232.75 360.857,1213.93 361.9,1214.07 362.943,1105.25 363.986,1105.42 365.029,1235.55 366.072,1235.6 367.115,1016.65 368.158,1016.77 369.201,818.737 370.243,819.256 371.286,1238.5 372.329,1238.57 373.372,1368.15 374.415,1368.17 375.458,1292.69 376.501,1292.75 377.544,1180.44 378.586,1180.54 379.629,1056.41 380.672,1056.55 381.715,1219.42 382.758,1219.5 383.801,1332.4 384.844,1332.43 385.887,1278.82 386.929,1278.87 387.972,1278.2 389.015,1278.24 390.058,1092.34 391.101,1092.46 392.144,1201.31 393.187,1201.39 394.23,1296.32 395.272,1296.38 396.315,1124.35 397.358,1124.5 398.401,1183.23 399.444,1183.33 400.487,1185 401.53,1185.11 402.573,1222.8 403.616,1222.88 404.658,1093.35 405.701,1093.44 406.744,1314.09 407.787,1314.13 408.83,1372.07 409.873,1372.09 410.916,1279.31 411.959,1279.43 413.001,1204.15 414.044,1204.22 415.087,1094.52 416.13,1094.63 417.173,1318.25 418.216,1318.28 419.259,1152.9 420.302,1152.98 421.344,1263.24 422.387,1263.27 423.43,1223.67 424.473,1223.74 425.516,1184.73 426.559,1184.79 427.602,1001.37 428.645,1001.48 429.687,872.437 430.73,872.578 431.773,1279.29 432.816,1279.35 433.859,1150.01 434.902,1150.09 435.945,1003.15 436.988,1003.25 438.031,1203.07 439.073,1203.18 440.116,1025.75 441.159,1025.9 442.202,1262 443.245,1262.06 444.288,1265.17 445.331,1265.21 446.374,683.078 447.416,683.68 448.459,1206.89 449.502,1206.96 450.545,1135.71 451.588,1135.8 452.631,1207.19 453.674,1207.26 454.717,1282.49 455.759,1282.56 456.802,1282.22 457.845,1282.28 458.888,1373.49 459.931,1373.51 460.974,1266.28 462.017,1266.3 463.06,1064.73 464.102,1064.9 465.145,1100.22 466.188,1100.33 467.231,1210.82 468.274,1210.88 469.317,1021.15 470.36,1021.3 471.403,1117.95 472.446,1118.06 473.488,1230.27 474.531,1230.37 475.574,1102.94 476.617,1103.05 477.66,1191.95 478.703,1192.01 479.746,1212.32 480.789,1212.39 481.831,1122.74 482.874,1122.82 483.917,1174.88 484.96,1174.96 486.003,1159.53 487.046,1159.6 488.089,1250.8 489.132,1250.88 490.174,1178.38 491.217,1178.44 492.26,1106.28 493.303,1106.39 494.346,1231.41 495.389,1231.46 496.432,1197.64 497.475,1197.75 498.517,1134.23 499.56,1134.31 500.603,1288.15 501.646,1288.19 502.689,1106.78 503.732,1106.87 504.775,1197.32 505.818,1197.39 506.861,1143 507.903,1143.07 508.946,1142.84 509.989,1142.92 511.032,1196.82 512.075,1196.88 513.118,1230.68 514.161,1230.77 515.204,1160.64 516.246,1160.72 517.289,1170.94 518.332,1171.01 519.375,1216.49 520.418,1216.59 521.461,1324.57 522.504,1324.6 523.547,1303.69 524.589,1303.73 525.632,794.91 526.675,795.066 527.718,1110.76 528.761,1110.86 529.804,1072.79 530.847,1072.91 531.89,1378.67 532.932,1378.68 533.975,1288.39 535.018,1288.44 536.061,1092.21 537.104,1092.32 538.147,1235.26 539.19,1235.3 540.233,1182.55 541.276,1182.62 542.318,1288.28 543.361,1288.33 544.404,1236.9 545.447,1236.98 546.49,1147.71 547.533,1147.78 548.576,1041.45 549.619,1041.57 550.661,1061.4 551.704,1061.52 552.747,1185.37 553.79,1185.46 554.833,1147.34 555.876,1147.4 556.919,1323.58 557.962,1323.6 559.004,1098.37 560.047,1098.5 561.09,1148.83 562.133,1148.92 563.176,970.612 564.219,970.835 565.262,931.768 566.305,931.955 567.347,1259.28 568.39,1259.34 569.433,1011.11 570.476,1011.25 571.519,1292.81 572.562,1292.85 573.605,1225.01 574.648,1225.11 575.691,1225.58 576.733,1225.67 577.776,1293.21 578.819,1293.26 579.862,1121.6 580.905,1121.72 581.948,1115.27 582.991,1115.34 584.034,1082.42 585.076,1082.51 586.119,1296.34 587.162,1296.39 588.205,1226.07 589.248,1226.15 590.291,1255.46 591.334,1255.49 592.377,1105.68 593.419,1105.79 594.462,1344.79 595.505,1344.81 596.548,1151.57 597.591,1151.64 598.634,777.319 599.677,777.611 600.72,1206.43 601.762,1206.47 602.805,1139.69 603.848,1139.78 604.891,950.382 605.934,950.511 606.977,1084.12 608.02,1084.21 609.063,1153.54 610.106,1153.59 611.148,1014.48 612.191,1014.61 613.234,1241.44 614.277,1241.47 615.32,1174.53 616.363,1174.6 617.406,968.307 618.449,968.406 619.491,1137.84 620.534,1137.93 621.577,1224.08 622.62,1224.11 623.663,1210.26 624.706,1210.3 625.749,1243.72 626.792,1243.75 627.834,1178.16 628.877,1178.25 629.92,1001.44 630.963,1001.56 632.006,1329.75 633.049,1329.78 634.092,1077.58 635.135,1077.73 636.177,902.837 637.22,903.047 638.263,1023.1 639.306,1023.19 640.349,830.781 641.392,830.947 642.435,1248.49 643.478,1248.55 644.521,696.551 645.563,696.867 646.606,1314.61 647.649,1314.64 648.692,1143.05 649.735,1143.11 650.778,1130.19 651.821,1130.29 652.864,1244.27 653.906,1244.3 654.949,1079.19 655.992,1079.29 657.035,1145.7 658.078,1145.78 659.121,1144.25 660.164,1144.3 661.207,1091.58 662.249,1091.66 663.292,956.642 664.335,956.757 665.378,1061.9 666.421,1062 667.464,1158.79 668.507,1158.84 669.55,1024.86 670.592,1024.94 671.635,1114.15 672.678,1114.23 673.721,1057.28 674.764,1057.37 675.807,1198.34 676.85,1198.39 677.893,970.25 678.936,970.386 679.978,1246.93 681.021,1246.96 682.064,1164.46 683.107,1164.53 684.15,1138.83 685.193,1138.95 686.236,974.778 687.279,974.941 688.321,1178.05 689.364,1178.1 690.407,1062.9 691.45,1062.99 692.493,1031.7 693.536,1031.82 694.579,1063.41 695.622,1063.5 696.664,1008.19 697.707,1008.3 698.75,1140.73 699.793,1140.87 700.836,714.094 701.879,714.429 702.922,880.761 703.965,880.939 705.007,1180.33 706.05,1180.37 707.093,930.13 708.136,930.269 709.179,1050.6 710.222,1050.7 711.265,1191.5 712.308,1191.58 713.351,1203.96 714.393,1204.04 715.436,695.712 716.479,695.933 717.522,1238.62 718.565,1238.67 719.608,1031.06 720.651,1031.15 721.694,1204.03 722.736,1204.12 723.779,1303.06 724.822,1303.09 725.865,851.726 726.908,851.929 727.951,1054.86 728.994,1054.95 730.037,987.531 731.079,987.648 732.122,1110.6 733.165,1110.71 734.208,1114.07 735.251,1114.19 736.294,1088.78 737.337,1088.85 738.38,949.046 739.422,949.141 740.465,1076.09 741.508,1076.17 742.551,1011.07 743.594,1011.19 744.637,1207.91 745.68,1207.98 746.723,970.372 747.766,970.483 748.808,1009.99 749.851,1010.11 750.894,1175.23 751.937,1175.29 752.98,835.48 754.023,835.578 755.066,896.686 756.109,896.867 757.151,899.663 758.194,899.831 759.237,1001.57 760.28,1001.72 761.323,717.296 762.366,717.411 763.409,1021.91 764.452,1022.08 765.494,1117.07 766.537,1117.16 767.58,1122.73 768.623,1122.79 769.666,1206.16 770.709,1206.25 771.752,1175.63 772.795,1175.68 773.837,1292.94 774.88,1292.97 775.923,891.509 776.966,891.654 778.009,1138.76 779.052,1138.82 780.095,1126.01 781.138,1126.06 782.18,1068.05 783.223,1068.16 784.266,1288.64 785.309,1288.68 786.352,1172.78 787.395,1172.89 788.438,1154.11 789.481,1154.16 790.524,878.906 791.566,879.072 792.609,1052.41 793.652,1052.51 794.695,1182.78 795.738,1182.85 796.781,1163.48 797.824,1163.54 798.867,996.21 799.909,996.296 800.952,1050.96 801.995,1051.04 803.038,965.427 804.081,965.552 805.124,1050.45 806.167,1050.53 807.21,1099.24 808.252,1099.3 809.295,1217.89 810.338,1217.95 811.381,986.987 812.424,987.087 813.467,1122.51 814.51,1122.61 815.553,984.43 816.595,984.539 817.638,1075.06 818.681,1075.16 819.724,968.629 820.767,968.724 821.81,1025.8 822.853,1025.9 823.896,960.811 824.939,960.937 825.981,914.666 827.024,914.811 828.067,1091.16 829.11,1091.25 830.153,1227.64 831.196,1227.66 832.239,1170.34 833.282,1170.42 834.324,1170.02 835.367,1170.1 836.41,1073.84 837.453,1073.91 838.496,1151.32 839.539,1151.37 840.582,948.96 841.625,949.054 842.667,1090.46 843.71,1090.55 844.753,1084.4 845.796,1084.46 846.839,1041.62 847.882,1041.71 848.925,1091.74 849.968,1091.82 851.01,981.798 852.053,981.892 853.096,1132.95 854.139,1133.05 855.182,910.166 856.225,910.255 857.268,919.349 858.311,919.447 859.354,1000.84 860.396,1000.92 861.439,875.208 862.482,875.361 863.525,1090.21 864.568,1090.27 865.611,1060.69 866.654,1060.76 867.697,1133.23 868.739,1133.31 869.782,1026.97 870.825,1027.05 871.868,1068.79 872.911,1068.88 873.954,1025.35 874.997,1025.48 876.04,857.895 877.082,858.049 878.125,1015.16 879.168,1015.23 880.211,997.096 881.254,997.175 882.297,1130.81 883.34,1130.9 884.383,729.647 885.425,729.759 886.468,1015.22 887.511,1015.31 888.554,885.148 889.597,885.264 890.64,1157.97 891.683,1158.01 892.726,1083.08 893.769,1083.15 894.811,1105.73 895.854,1105.8 896.897,1053.45 897.94,1053.53 898.983,1240.19 900.026,1240.23 901.069,1251.59 902.112,1251.64 903.154,873.261 904.197,873.439 905.24,982.029 906.283,982.143 907.326,804.883 908.369,805.023 909.412,1160.63 910.455,1160.71 911.497,1147.96 912.54,1148.01 913.583,1071.72 914.626,1071.79 915.669,1028.36 916.712,1028.46 917.755,1044.31 918.798,1044.38 919.84,944.895 920.883,945 921.926,1122.93 922.969,1122.98 924.012,1074.14 925.055,1074.19 926.098,922.375 927.141,922.513 928.184,1048.2 929.226,1048.29 930.269,1081.91 931.312,1081.99 932.355,1069.01 933.398,1069.07 934.441,1093.69 935.484,1093.77 936.527,1127.9 937.569,1127.95 938.612,1084.58 939.655,1084.66 940.698,803.016 941.741,803.168 942.784,1003.02 943.827,1003.08 944.87,910.93 945.912,911.025 946.955,1012.12 947.998,1012.2 949.041,991.721 950.084,991.791 951.127,766.588 952.17,766.731 953.213,1039.68 954.255,1039.74 955.298,1028.23 956.341,1028.28 957.384,1025.4 958.427,1025.47 959.47,1072.94 960.513,1073.06 961.556,1037.72 962.599,1037.84 963.641,1085.85 964.684,1085.96 965.727,1112.49 966.77,1112.55 967.813,1235.74 968.856,1235.79 969.899,1025.35 970.942,1025.41 971.984,1122.41 973.027,1122.46 974.07,929.798 975.113,929.882 976.156,976.858 977.199,976.932 978.242,870.872 979.285,870.987 980.327,995.842 981.37,995.91 982.413,1163.5 983.456,1163.57 984.499,996.704 985.542,996.776 986.585,1024.21 987.628,1024.28 988.67,763.282 989.713,763.416 990.756,1151.39 991.799,1151.42 992.842,1014.55 993.885,1014.61 994.928,978.819 995.971,978.929 997.014,992.335 998.056,992.391 999.099,1059.21 1000.14,1059.25 1001.19,1032.02 1002.23,1032.07 1003.27,964.581 1004.31,964.675 1005.36,1093.83 1006.4,1093.93 1007.44,1017.21 1008.49,1017.27 1009.53,1039.01 1010.57,1039.08 1011.61,858.577 1012.66,858.681 1013.7,1078.96 1014.74,1079.06 1015.79,834.63 1016.83,834.794 1017.87,1023.53 1018.91,1023.57 1019.96,995.929 1021,996.006 1022.04,1040.14 1023.09,1040.22 1024.13,1054.6 1025.17,1054.68 1026.21,992.583 1027.26,992.636 1028.3,887.801 1029.34,887.88 1030.39,1003.79 1031.43,1003.86 1032.47,988.532 1033.51,988.589 1034.56,1133 1035.6,1133.07 1036.64,816.075 1037.69,816.204 1038.73,1031.24 1039.77,1031.32 1040.81,667.923 1041.86,668.114 1042.9,1142.53 1043.94,1142.56 1044.99,763.893 1046.03,764.051 1047.07,1162.72 1048.11,1162.78 1049.16,1011.3 1050.2,1011.35 1051.24,973.392 1052.29,973.453 1053.33,1035.94 1054.37,1035.99 1055.41,1130.91 1056.46,1130.95 1057.5,1142.62 1058.54,1142.68 1059.59,969.275 1060.63,969.361 1061.67,893.961 1062.71,894.059 1063.76,864.539 1064.8,864.712 1065.84,990.682 1066.89,990.734 1067.93,1022.91 1068.97,1022.96 1070.02,812.239 1071.06,812.327 1072.1,846.78 1073.14,846.953 1074.19,1063.09 1075.23,1063.15 1076.27,835.262 1077.32,835.382 1078.36,838.51 1079.4,838.628 1080.44,974.378 1081.49,974.431 1082.53,677.112 1083.57,677.234 1084.62,669.87 1085.66,670.085 1086.7,1091.69 1087.74,1091.8 1088.79,992.236 1089.83,992.289 1090.87,922.821 1091.92,922.893 1092.96,883.844 1094,883.919 1095.04,930.464 1096.09,930.535 1097.13,906.665 1098.17,906.738 1099.22,976.6 1100.26,976.662 1101.3,1147.43 1102.34,1147.49 1103.39,681.016 1104.43,681.189 1105.47,1021.15 1106.52,1021.21 1107.56,974.599 1108.6,974.714 1109.64,1081.63 1110.69,1081.74 1111.73,743.787 1112.77,743.967 1113.82,813.523 1114.86,813.651 1115.9,1003.44 1116.94,1003.54 1117.99,896.537 1119.03,896.637 1120.07,874.317 1121.12,874.388 1122.16,1040.34 1123.2,1040.42 1124.24,907.18 1125.29,907.257 1126.33,1021.81 1127.37,1021.86 1128.42,752.019 1129.46,752.146 1130.5,1080.3 1131.54,1080.32 1132.59,1040.31 1133.63,1040.33 1134.67,1249.15 1135.72,1249.18 1136.76,904.377 1137.8,904.494 1138.85,959.445 1139.89,959.5 1140.93,745.476 1141.97,745.62 1143.02,996.753 1144.06,996.794 1145.1,956.778 1146.15,956.83 1147.19,850.674 1148.23,850.76 1149.27,1126.09 1150.32,1126.17 1151.36,982.562 1152.4,982.616 1153.45,1002.92 1154.49,1002.96 1155.53,804.732 1156.57,804.834 1157.62,829.053 1158.66,829.158 1159.7,681.419 1160.75,681.61 1161.79,963.703 1162.83,963.798 1163.87,940.687 1164.92,940.758 1165.96,746.172 1167,746.306 1168.05,845.471 1169.09,845.552 1170.13,877.725 1171.17,877.836 1172.22,1053.41 1173.26,1053.49 1174.3,1005.68 1175.35,1005.75 1176.39,946.754 1177.43,946.833 1178.47,1110.38 1179.52,1110.42 1180.56,1060.36 1181.6,1060.41 1182.65,1033.8 1183.69,1033.86 1184.73,496.431 1185.77,496.563 1186.82,941.974 1187.86,942.027 1188.9,728.702 1189.95,728.815 1190.99,1083.01 1192.03,1083.04 1193.07,763.499 1194.12,763.593 1195.16,869.689 1196.2,869.75 1197.25,820.898 1198.29,820.982 1199.33,927.447 1200.37,927.516 1201.42,1043.67 1202.46,1043.76 1203.5,937.616 1204.55,937.673 1205.59,829.803 1206.63,829.88 1207.68,961.678 1208.72,961.721 1209.76,811.378 1210.8,811.509 1211.85,1052.27 1212.89,1052.32 1213.93,1019.78 1214.98,1019.82 1216.02,989.796 1217.06,989.854 1218.1,787.365 1219.15,787.456 1220.19,1042.21 1221.23,1042.3 1222.28,1054.96 1223.32,1055.01 1224.36,995.021 1225.4,995.061 1226.45,603.536 1227.49,603.77 1228.53,1029.18 1229.58,1029.21 1230.62,867.782 1231.66,867.88 1232.7,1015.33 1233.75,1015.36 1234.79,404.612 1235.83,404.819 1236.88,927.235 1237.92,927.286 1238.96,954.904 1240,954.949 1241.05,822.824 1242.09,822.924 1243.13,993.854 1244.18,993.905 1245.22,875.856 1246.26,875.925 1247.3,944.335 1248.35,944.387 1249.39,970.926 1250.43,970.97 1251.48,953.177 1252.52,953.226 1253.56,928.436 1254.6,928.486 1255.65,659.38 1256.69,659.504 1257.73,1096.78 1258.78,1096.84 1259.82,897.802 1260.86,897.876 1261.9,951.601 1262.95,951.674 1263.99,868.773 1265.03,868.854 1266.08,804.996 1267.12,805.088 1268.16,639.564 1269.2,639.769 1270.25,809.075 1271.29,809.165 1272.33,864.018 1273.38,864.082 1274.42,824.689 1275.46,824.77 1276.51,982.81 1277.55,982.841 1278.59,869.89 1279.63,869.947 1280.68,839.631 1281.72,839.7 1282.76,713.29 1283.81,713.418 1284.85,876.556 1285.89,876.61 1286.93,1027.49 1287.98,1027.51 1289.02,714.698 1290.06,714.817 1291.11,1004.44 1292.15,1004.47 1293.19,901.958 1294.23,902.037 1295.28,976.517 1296.32,976.568 1297.36,1103.11 1298.41,1103.13 1299.45,923.481 1300.49,923.527 1301.53,983.462 1302.58,983.504 1303.62,809.839 1304.66,809.92 1305.71,579.925 1306.75,580.054 1307.79,1022.21 1308.83,1022.24 1309.88,929.726 1310.92,929.763 1311.96,951 1313.01,951.07 1314.05,1038.98 1315.09,1039.02 1316.13,970.672 1317.18,970.702 1318.22,960.86 1319.26,960.912 1320.31,860.914 1321.35,860.976 1322.39,825.16 1323.43,825.24 1324.48,868.8 1325.52,868.847 1326.56,952.007 1327.61,952.049 1328.65,923.564 1329.69,923.603 1330.73,1059.14 1331.78,1059.22 1332.82,943.497 1333.86,943.546 1334.91,978.12 1335.95,978.155 1336.99,864.917 1338.03,864.979 1339.08,759.655 1340.12,759.728 1341.16,906.509 1342.21,906.587 1343.25,908.818 1344.29,908.859 1345.34,926.246 1346.38,926.29 1347.42,798.212 1348.46,798.275 1349.51,778.352 1350.55,778.412 1351.59,1019.8 1352.64,1019.85 1353.68,1051.69 1354.72,1051.73 1355.76,771.097 1356.81,771.195 1357.85,881.607 1358.89,881.664 1359.94,606.651 1360.98,606.789 1362.02,696.803 1363.06,696.911 1364.11,629.17 1365.15,629.328 1366.19,970.575 1367.24,970.633 1368.28,926.567 1369.32,926.615 1370.36,801.419 1371.41,801.495 1372.45,1012.83 1373.49,1012.89 1374.54,859.928 1375.58,859.996 1376.62,880.184 1377.66,880.23 1378.71,1066.14 1379.75,1066.23 1380.79,856.891 1381.84,856.932 1382.88,1020.98 1383.92,1021.05 1384.96,587.112 1386.01,587.289 1387.05,908.431 1388.09,908.49 1389.14,842.982 1390.18,843.041 1391.22,965.76 1392.26,965.788 1393.31,1030.91 1394.35,1030.97 1395.39,867.813 1396.44,867.875 1397.48,990.481 1398.52,990.522 1399.56,768.98 1400.61,769.058 1401.65,831.349 1402.69,831.473 1403.74,865.8 1404.78,865.852 1405.82,849.862 1406.86,849.902 1407.91,451.9 1408.95,452.157 1409.99,872.211 1411.04,872.261 1412.08,1015.55 1413.12,1015.6 1414.17,798.775 1415.21,798.83 1416.25,878.58 1417.29,878.626 1418.34,650.009 1419.38,650.124 1420.42,702.671 1421.47,702.806 1422.51,744.05 1423.55,744.12 1424.59,884.955 1425.64,885 1426.68,558.886 1427.72,559.104 1428.77,930.392 1429.81,930.438 1430.85,848.389 1431.89,848.428 1432.94,900.13 1433.98,900.162 1435.02,763.591 1436.07,763.644 1437.11,972.31 1438.15,972.374 1439.19,850.3 1440.24,850.349 1441.28,997.133 1442.32,997.186 1443.37,786.005 1444.41,786.054 1445.45,969.837 1446.49,969.862 1447.54,909.047 1448.58,909.112 1449.62,864.789 1450.67,864.821 1451.71,798.227 1452.75,798.28 1453.79,851.202 1454.84,851.245 1455.88,857.23 1456.92,857.271 1457.97,825.537 1459.01,825.587 1460.05,997.448 1461.09,997.47 1462.14,909.195 1463.18,909.237 1464.22,997.689 1465.27,997.745 1466.31,650.62 1467.35,650.789 1468.39,785.723 1469.44,785.811 1470.48,521.61 1471.52,521.849 1472.57,873.925 1473.61,873.967 1474.65,794.309 1475.69,794.356 1476.74,563.764 1477.78,563.936 1478.82,749.397 1479.87,749.502 1480.91,893.733 1481.95,893.771 1483,772.918 1484.04,772.974 1485.08,1028.74 1486.12,1028.76 1487.17,621.875 1488.21,622.026 1489.25,852.094 1490.3,852.163 1491.34,824.216 1492.38,824.288 1493.42,815.118 1494.47,815.193 1495.51,881.723 1496.55,881.75 1497.6,730.745 1498.64,730.814 1499.68,407.545 1500.72,407.888 1501.77,922.472 1502.81,922.502 1503.85,758.705 1504.9,758.753 1505.94,800.706 1506.98,800.754 1508.02,651.652 1509.07,651.766 1510.11,877.523 1511.15,877.556 1512.2,833.799 1513.24,833.854 1514.28,873.974 1515.32,874.011 1516.37,898.743 1517.41,898.783 1518.45,923.052 1519.5,923.106 1520.54,701.261 1521.58,701.338 1522.62,860.769 1523.67,860.804 1524.71,895.701 1525.75,895.76 1526.8,770.312 1527.84,770.36 1528.88,1085.99 1529.92,1086.04 1530.97,815.441 1532.01,815.484 1533.05,912.995 1534.1,913.019 1535.14,918.652 1536.18,918.696 1537.22,646.089 1538.27,646.185 1539.31,919.296 1540.35,919.366 1541.4,935.533 1542.44,935.563 1543.48,967.981 1544.52,968.012 1545.57,834.161 1546.61,834.202 1547.65,910.296 1548.7,910.329 1549.74,869.205 1550.78,869.245 1551.83,821.642 1552.87,821.689 1553.91,889.046 1554.95,889.075 1556,900.905 1557.04,900.979 1558.08,746.225 1559.13,746.276 1560.17,581.917 1561.21,582.091 1562.25,747.508 1563.3,747.559 1564.34,945.147 1565.38,945.182 1566.43,824.305 1567.47,824.336 1568.51,962.632 1569.55,962.651 1570.6,628.867 1571.64,629 1572.68,902.949 1573.73,902.985 1574.77,926.313 1575.81,926.335 1576.85,721.118 1577.9,721.169 1578.94,894.45 1579.98,894.485 1581.03,964.15 1582.07,964.204 1583.11,731.248 1584.15,731.311 1585.2,989.185 1586.24,989.23 1587.28,717.69 1588.33,717.755 1589.37,861.742 1590.41,861.792 1591.45,860.173 1592.5,860.231 1593.54,794.71 1594.58,794.75 1595.63,857.238 1596.67,857.288 1597.71,692.196 1598.75,692.297 1599.8,609.071 1600.84,609.239 1601.88,591.203 1602.93,591.334 1603.97,690.024 1605.01,690.113 1606.05,824.841 1607.1,824.889 1608.14,749.436 1609.18,749.486 1610.23,868.085 1611.27,868.113 1612.31,769.395 1613.35,769.431 1614.4,662.584 1615.44,662.668 1616.48,988.222 1617.53,988.279 1618.57,757.009 1619.61,757.046 1620.66,760.428 1621.7,760.471 1622.74,839.53 1623.78,839.556 1624.83,905.829 1625.87,905.874 1626.91,583.863 1627.96,583.989 1629,751.02 1630.04,751.066 1631.08,866.043 1632.13,866.07 1633.17,505.564 1634.21,505.762 1635.26,761.139 1636.3,761.182 1637.34,893.017 1638.38,893.108 1639.43,495.916 1640.47,496.065 1641.51,301.944 1642.56,302.444 1643.6,948.868 1644.64,948.904 1645.68,613.87 1646.73,613.977 1647.77,560.802 1648.81,560.919 1649.86,535.275 1650.9,535.414 1651.94,878.432 1652.98,878.464 1654.03,797.681 1655.07,797.712 1656.11,818.165 1657.16,818.21 1658.2,907.1 1659.24,907.129 1660.28,838.875 1661.33,838.904 1662.37,970.97 1663.41,971.017 1664.46,793.346 1665.5,793.373 1666.54,890.516 1667.58,890.543 1668.63,631.707 1669.67,631.77 1670.71,752.039 1671.76,752.077 1672.8,793.019 1673.84,793.061 1674.88,964.616 1675.93,964.651 1676.97,796.305 1678.01,796.34 1679.06,707.875 1680.1,707.918 1681.14,895.514 1682.18,895.534 1683.23,625.115 1684.27,625.215 1685.31,691.528 1686.36,691.613 1687.4,829.554 1688.44,829.578 1689.49,656.42 1690.53,656.485 1691.57,908.123 1692.61,908.179 1693.66,1039.09 1694.7,1039.12 1695.74,687.044 1696.79,687.097 1697.83,753.705 1698.87,753.741 1699.91,613.945 1700.96,614.032 1702,605.297 1703.04,605.408 1704.09,776.347 1705.13,776.378 1706.17,631.795 1707.21,631.926 1708.26,528.754 1709.3,528.922 1710.34,641.522 1711.39,641.583 1712.43,968.894 1713.47,968.942 1714.51,742.883 1715.56,742.921 1716.6,900.788 1717.64,900.82 1718.69,720.46 1719.73,720.507 1720.77,945.109 1721.81,945.144 1722.86,661.374 1723.9,661.443 1724.94,756.272 1725.99,756.337 1727.03,656.146 1728.07,656.217 1729.11,813.299 1730.16,813.339 1731.2,565.477 1732.24,565.603 1733.29,704.323 1734.33,704.403 1735.37,580.745 1736.41,580.87 1737.46,794.025 1738.5,794.081 1739.54,942.134 1740.59,942.159 1741.63,630.164 1742.67,630.258 1743.71,430.838 1744.76,431.019 1745.8,332.516 1746.84,332.798 1747.89,842.916 1748.93,842.958 1749.97,913.315 1751.01,913.342 1752.06,723.357 1753.1,723.397 1754.14,764.185 1755.19,764.243 1756.23,610.644 1757.27,610.708 1758.32,442.613 1759.36,442.853 1760.4,779.54 1761.44,779.579 1762.49,531.462 1763.53,531.569 1764.57,680.071 1765.62,680.137 1766.66,406.088 1767.7,406.407 1768.74,770.949 1769.79,770.977 1770.83,620.236 1771.87,620.328 1772.92,890.112 1773.96,890.145 1775,878.325 1776.04,878.357 1777.09,638.249 1778.13,638.306 1779.17,648.44 1780.22,648.512 1781.26,828.541 1782.3,828.567 1783.34,830.072 1784.39,830.099 1785.43,685.446 1786.47,685.517 1787.52,498.712 1788.56,498.892 1789.6,589.398 1790.64,589.495 1791.69,612.134 1792.73,612.22 1793.77,623.715 1794.82,623.774 1795.86,835.551 1796.9,835.594 1797.94,594.189 1798.99,594.24 1800.03,684.047 1801.07,684.109 1802.12,623.652 1803.16,623.73 1804.2,781.451 1805.24,781.484 1806.29,616.893 1807.33,616.974 1808.37,763.81 1809.42,763.838 1810.46,530.522 1811.5,530.712 1812.54,401.243 1813.59,401.453 1814.63,778.004 1815.67,778.027 1816.72,687.314 1817.76,687.357 1818.8,711.463 1819.84,711.518 1820.89,702.369 1821.93,702.421 1822.97,899.039 1824.02,899.069 1825.06,801.482 1826.1,801.517 1827.15,863.632 1828.19,863.685 1829.23,912.55 1830.27,912.571 1831.32,733.518 1832.36,733.57 1833.4,650.579 1834.45,650.636 1835.49,744.56 1836.53,744.593 1837.57,624.799 1838.62,624.869 1839.66,704.539 1840.7,704.592 1841.75,729.842 1842.79,729.87 1843.83,680.289 1844.87,680.329 1845.92,766.66 1846.96,766.692 1848,745.442 1849.05,745.471 1850.09,870.932 1851.13,870.955 1852.17,759.292 1853.22,759.334 1854.26,629.22 1855.3,629.285 1856.35,761.644 1857.39,761.69 1858.43,728.724 1859.47,728.761 1860.52,658.411 1861.56,658.459 1862.6,626.595 1863.65,626.702 1864.69,570.338 1865.73,570.426 1866.77,784.921 1867.82,784.95 1868.86,579.188 1869.9,579.288 1870.95,634.926 1871.99,635.012 1873.03,756.542 1874.07,756.565 1875.12,820.086 1876.16,820.117 1877.2,885.896 1878.25,885.911 1879.29,680.232 1880.33,680.267 1881.37,1000.28 1882.42,1000.33 1883.46,863.883 1884.5,863.92 1885.55,838.729 1886.59,838.771 1887.63,787.126 1888.67,787.149 1889.72,812.563 1890.76,812.595 1891.8,606.499 1892.85,606.562 1893.89,884.079 1894.93,884.138 1895.98,597.823 1897.02,597.911 1898.06,451.129 1899.1,451.376 1900.15,776.19 1901.19,776.211 1902.23,728.322 1903.28,728.356 1904.32,867.876 1905.36,867.906 1906.4,662.443 1907.45,662.474 1908.49,733.321 1909.53,733.358 1910.58,684.952 1911.62,684.993 1912.66,538.897 1913.7,539.011 1914.75,580.121 1915.79,580.176 1916.83,742.228 1917.88,742.263 1918.92,508.321 1919.96,508.437 1921,843.444 1922.05,843.482 1923.09,697.468 1924.13,697.539 1925.18,690.119 1926.22,690.147 1927.26,628.413 1928.3,628.487 1929.35,653.306 1930.39,653.348 1931.43,546.727 1932.48,546.801 1933.52,887.288 1934.56,887.308 1935.6,757.937 1936.65,757.958 1937.69,624.23 1938.73,624.29 1939.78,591.443 1940.82,591.503 1941.86,601.842 1942.9,601.917 1943.95,529.535 1944.99,529.674 1946.03,560.909 1947.08,561.012 1948.12,600.895 1949.16,600.954 1950.2,553.414 1951.25,553.524 1952.29,738.371 1953.33,738.412 1954.38,405.574 1955.42,405.723 1956.46,487.25 1957.5,487.416 1958.55,715.497 1959.59,715.527 1960.63,372.831 1961.68,373.009 1962.72,593.34 1963.76,593.43 1964.81,870.464 1965.85,870.483 1966.89,619.269 1967.93,619.309 1968.98,594.848 1970.02,594.901 1971.06,748.738 1972.11,748.761 1973.15,782.951 1974.19,782.984 1975.23,632.872 1976.28,632.909 1977.32,620.539 1978.36,620.579 1979.41,688.715 1980.45,688.745 1981.49,509.07 1982.53,509.151 1983.58,580.512 1984.62,580.591 1985.66,466.03 1986.71,466.14 1987.75,647.62 1988.79,647.658 1989.83,743.049 1990.88,743.074 1991.92,404.735 1992.96,404.833 1994.01,515.348 1995.05,515.427 1996.09,777.661 1997.13,777.694 1998.18,398.219 1999.22,398.364 2000.26,768.623 2001.31,768.644 2002.35,782.178 2003.39,782.201 2004.43,647.587 2005.48,647.631 2006.52,566.691 2007.56,566.792 2008.61,780.888 2009.65,780.913 2010.69,625.488 2011.73,625.542 2012.78,826.948 2013.82,826.972 2014.86,779.258 2015.91,779.299 2016.95,583.786 2017.99,583.842 2019.03,799.544 2020.08,799.567 2021.12,464.051 2022.16,464.121 2023.21,878.747 2024.25,878.801 2025.29,657.212 2026.33,657.258 2027.38,527.164 2028.42,527.303 2029.46,497.301 2030.51,497.402 2031.55,681.172 2032.59,681.205 2033.64,619.136 2034.68,619.171 2035.72,476.446 2036.76,476.527 2037.81,583.913 2038.85,583.964 2039.89,884.075 2040.94,884.093 2041.98,479.599 2043.02,479.736 2044.06,502.128 2045.11,502.258 2046.15,539.363 2047.19,539.4 2048.24,618.399 2049.28,618.443 2050.32,706.144 2051.36,706.173 2052.41,424.422 2053.45,424.585 2054.49,418.831 2055.54,418.986 2056.58,465.074 2057.62,465.191 2058.66,770.037 2059.71,770.054 2060.75,415.79 2061.79,415.895 2062.84,657.392 2063.88,657.421 2064.92,673.797 2065.96,673.831 2067.01,735.649 2068.05,735.678 2069.09,836.193 2070.14,836.22 2071.18,573.366 2072.22,573.419 2073.26,677.992 2074.31,678.053 2075.35,568.238 2076.39,568.309 2077.44,645.112 2078.48,645.151 2079.52,415.834 2080.56,415.958 2081.61,631.026 2082.65,631.06 2083.69,703.329 2084.74,703.351 2085.78,646.741 2086.82,646.765 2087.86,341.47 2088.91,341.601 2089.95,491.047 2090.99,491.142 2092.04,358.398 2093.08,358.626 2094.12,674.377 2095.16,674.401 2096.21,475.773 2097.25,475.877 2098.29,510.481 2099.34,510.535 2100.38,426.829 2101.42,426.935 2102.47,569.574 2103.51,569.611 2104.55,596.405 2105.59,596.45 2106.64,580.496 2107.68,580.567 2108.72,841.432 2109.77,841.461 2110.81,668.073 2111.85,668.099 2112.89,518.227 2113.94,518.312 2114.98,514.652 2116.02,514.702 2117.07,455.306 2118.11,455.414 2119.15,579.43 2120.19,579.503 2121.24,468.469 2122.28,468.538 2123.32,337.405 2124.37,337.662 2125.41,377.178 2126.45,377.332 2127.49,536.719 2128.54,536.798 2129.58,733.653 2130.62,733.67 2131.67,735.928 2132.71,735.976 2133.75,639.035 2134.79,639.074 2135.84,534.742 2136.88,534.792 2137.92,562.023 2138.97,562.058 2140.01,493.403 2141.05,493.467 2142.09,348.602 2143.14,348.729 2144.18,693.744 2145.22,693.819 2146.27,428.819 2147.31,428.9 2148.35,405.851 2149.39,405.98 2150.44,571.323 2151.48,571.355 2152.52,636.048 2153.57,636.069 2154.61,614.003 2155.65,614.029 2156.69,724.22 2157.74,724.252 2158.78,382.896 2159.82,382.999 2160.87,440.636 2161.91,440.702 2162.95,529.132 2163.99,529.183 2165.04,360.337 2166.08,360.467 2167.12,436.733 2168.17,436.781 2169.21,191.577 2170.25,191.828 2171.3,597.028 2172.34,597.074 2173.38,397.452 2174.42,397.551 2175.47,580.578 2176.51,580.64 2177.55,403.625 2178.6,403.713 2179.64,386.387 2180.68,386.471 2181.72,639.721 2182.77,639.781 2183.81,383.612 2184.85,383.726 2185.9,484.64 2186.94,484.69 2187.98,365.484 2189.02,365.632 2190.07,645.925 2191.11,645.944 2192.15,283.139 2193.2,283.359 2194.24,732.492 2195.28,732.525 2196.32,641.523 2197.37,641.546 2198.41,566.035 2199.45,566.094 2200.5,361.903 2201.54,361.971 2202.58,314.181 2203.62,314.301 2204.67,490.241 2205.71,490.291 2206.75,181.266 2207.8,181.532 2208.84,498.408 2209.88,498.48 2210.92,316.074 2211.97,316.308 2213.01,701.761 2214.05,701.777 2215.1,489.197 2216.14,489.29 2217.18,680.155 2218.22,680.174 2219.27,169.836 2220.31,170.207 2221.35,596.42 2222.4,596.455 2223.44,465.097 2224.48,465.142 2225.52,372.537 2226.57,372.66 2227.61,177.955 2228.65,178.288 2229.7,257.438 2230.74,257.597 2231.78,295.091 2232.82,295.183 2233.87,591.858 2234.91,591.888 2235.95,658.668 2237,658.693 2238.04,601.814 2239.08,601.837 2240.12,379.447 2241.17,379.525 2242.21,462.361 2243.25,462.417 2244.3,624.916 2245.34,624.948 2246.38,581.444 2247.43,581.519 2248.47,398.93 2249.51,399.01 2250.55,193.786 2251.6,193.956 2252.64,321.717 2253.68,321.786 2254.73,287.555 2255.77,287.669 2256.81,563.233 2257.85,563.263 2258.9,431.367 2259.94,431.452 2260.98,361.97 2262.03,362.022 2263.07,276.875 2264.11,277.048 2265.15,433.407 2266.2,433.449 2267.24,295.633 2268.28,295.787 2269.33,804.559 2270.37,804.599 2271.41,624.606 2272.45,624.642 2273.5,345.149 2274.54,345.248 2275.58,435.828 2276.63,435.907 2277.67,87.9763 2278.71,88.2925 2279.75,325.991 2280.8,326.066 2281.84,353.823 2282.88,353.904 2283.93,262.905 2284.97,263.002 2286.01,251.458 2287.05,251.631 2288.1,356.302 2289.14,356.36 2290.18,356.417 "/>
<path clip-path="url(#clip950)" d="M215.55 198.898 L489.07 198.898 L489.07 95.2176 L215.55 95.2176  Z" fill="#ffffff" fill-rule="evenodd" fill-opacity="1"/>
<polyline clip-path="url(#clip950)" style="stroke:#000000; stroke-linecap:round; stroke-linejoin:round; stroke-width:4; stroke-opacity:1; fill:none" points="215.55,198.898 489.07,198.898 489.07,95.2176 215.55,95.2176 215.55,198.898 "/>
<polyline clip-path="url(#clip950)" style="stroke:#009af9; stroke-linecap:round; stroke-linejoin:round; stroke-width:4; stroke-opacity:1; fill:none" points="240.115,147.058 387.509,147.058 "/>
<path clip-path="url(#clip950)" d="M425.917 166.745 Q424.111 171.375 422.398 172.787 Q420.685 174.199 417.815 174.199 L414.412 174.199 L414.412 170.634 L416.912 170.634 Q418.672 170.634 419.644 169.8 Q420.616 168.967 421.797 165.865 L422.56 163.921 L412.074 138.412 L416.588 138.412 L424.69 158.689 L432.792 138.412 L437.306 138.412 L425.917 166.745 Z" fill="#000000" fill-rule="nonzero" fill-opacity="1" /><path clip-path="url(#clip950)" d="M444.597 160.402 L452.236 160.402 L452.236 134.037 L443.926 135.703 L443.926 131.444 L452.19 129.778 L456.866 129.778 L456.866 160.402 L464.505 160.402 L464.505 164.338 L444.597 164.338 L444.597 160.402 Z" fill="#000000" fill-rule="nonzero" fill-opacity="1" /></svg>
