<?xml version="1.0" encoding="utf-8"?>
<svg xmlns="http://www.w3.org/2000/svg" xmlns:xlink="http://www.w3.org/1999/xlink" width="600" height="400" viewBox="0 0 2400 1600">
<defs>
  <clipPath id="clip450">
    <rect x="0" y="0" width="2400" height="1600"/>
  </clipPath>
</defs>
<path clip-path="url(#clip450)" d="M0 1600 L2400 1600 L2400 0 L0 0  Z" fill="#ffffff" fill-rule="evenodd" fill-opacity="1"/>
<defs>
  <clipPath id="clip451">
    <rect x="480" y="0" width="1681" height="1600"/>
  </clipPath>
</defs>
<path clip-path="url(#clip450)" d="M112.177 1486.45 L2352.76 1486.45 L2352.76 47.2441 L112.177 47.2441  Z" fill="#ffffff" fill-rule="evenodd" fill-opacity="1"/>
<defs>
  <clipPath id="clip452">
    <rect x="112" y="47" width="2242" height="1440"/>
  </clipPath>
</defs>
<polyline clip-path="url(#clip452)" style="stroke:#000000; stroke-linecap:round; stroke-linejoin:round; stroke-width:2; stroke-opacity:0.1; fill:none" points="175.59,1486.45 175.59,47.2441 "/>
<polyline clip-path="url(#clip452)" style="stroke:#000000; stroke-linecap:round; stroke-linejoin:round; stroke-width:2; stroke-opacity:0.1; fill:none" points="704.028,1486.45 704.028,47.2441 "/>
<polyline clip-path="url(#clip452)" style="stroke:#000000; stroke-linecap:round; stroke-linejoin:round; stroke-width:2; stroke-opacity:0.1; fill:none" points="1232.47,1486.45 1232.47,47.2441 "/>
<polyline clip-path="url(#clip452)" style="stroke:#000000; stroke-linecap:round; stroke-linejoin:round; stroke-width:2; stroke-opacity:0.1; fill:none" points="1760.9,1486.45 1760.9,47.2441 "/>
<polyline clip-path="url(#clip452)" style="stroke:#000000; stroke-linecap:round; stroke-linejoin:round; stroke-width:2; stroke-opacity:0.1; fill:none" points="2289.34,1486.45 2289.34,47.2441 "/>
<polyline clip-path="url(#clip450)" style="stroke:#000000; stroke-linecap:round; stroke-linejoin:round; stroke-width:4; stroke-opacity:1; fill:none" points="112.177,1486.45 2352.76,1486.45 "/>
<polyline clip-path="url(#clip450)" style="stroke:#000000; stroke-linecap:round; stroke-linejoin:round; stroke-width:4; stroke-opacity:1; fill:none" points="175.59,1486.45 175.59,1467.55 "/>
<polyline clip-path="url(#clip450)" style="stroke:#000000; stroke-linecap:round; stroke-linejoin:round; stroke-width:4; stroke-opacity:1; fill:none" points="704.028,1486.45 704.028,1467.55 "/>
<polyline clip-path="url(#clip450)" style="stroke:#000000; stroke-linecap:round; stroke-linejoin:round; stroke-width:4; stroke-opacity:1; fill:none" points="1232.47,1486.45 1232.47,1467.55 "/>
<polyline clip-path="url(#clip450)" style="stroke:#000000; stroke-linecap:round; stroke-linejoin:round; stroke-width:4; stroke-opacity:1; fill:none" points="1760.9,1486.45 1760.9,1467.55 "/>
<polyline clip-path="url(#clip450)" style="stroke:#000000; stroke-linecap:round; stroke-linejoin:round; stroke-width:4; stroke-opacity:1; fill:none" points="2289.34,1486.45 2289.34,1467.55 "/>
<path clip-path="url(#clip450)" d="M175.59 1517.37 Q171.979 1517.37 170.15 1520.93 Q168.344 1524.47 168.344 1531.6 Q168.344 1538.71 170.15 1542.27 Q171.979 1545.82 175.59 1545.82 Q179.224 1545.82 181.03 1542.27 Q182.858 1538.71 182.858 1531.6 Q182.858 1524.47 181.03 1520.93 Q179.224 1517.37 175.59 1517.37 M175.59 1513.66 Q181.4 1513.66 184.455 1518.27 Q187.534 1522.85 187.534 1531.6 Q187.534 1540.33 184.455 1544.94 Q181.4 1549.52 175.59 1549.52 Q169.78 1549.52 166.701 1544.94 Q163.645 1540.33 163.645 1531.6 Q163.645 1522.85 166.701 1518.27 Q169.78 1513.66 175.59 1513.66 Z" fill="#000000" fill-rule="nonzero" fill-opacity="1" /><path clip-path="url(#clip450)" d="M663.646 1514.29 L682.003 1514.29 L682.003 1518.22 L667.929 1518.22 L667.929 1526.7 Q668.947 1526.35 669.966 1526.19 Q670.984 1526 672.003 1526 Q677.79 1526 681.169 1529.17 Q684.549 1532.34 684.549 1537.76 Q684.549 1543.34 681.077 1546.44 Q677.605 1549.52 671.285 1549.52 Q669.109 1549.52 666.841 1549.15 Q664.596 1548.78 662.188 1548.04 L662.188 1543.34 Q664.271 1544.47 666.494 1545.03 Q668.716 1545.58 671.193 1545.58 Q675.197 1545.58 677.535 1543.48 Q679.873 1541.37 679.873 1537.76 Q679.873 1534.15 677.535 1532.04 Q675.197 1529.94 671.193 1529.94 Q669.318 1529.94 667.443 1530.35 Q665.591 1530.77 663.646 1531.65 L663.646 1514.29 Z" fill="#000000" fill-rule="nonzero" fill-opacity="1" /><path clip-path="url(#clip450)" d="M703.762 1517.37 Q700.151 1517.37 698.322 1520.93 Q696.517 1524.47 696.517 1531.6 Q696.517 1538.71 698.322 1542.27 Q700.151 1545.82 703.762 1545.82 Q707.396 1545.82 709.202 1542.27 Q711.03 1538.71 711.03 1531.6 Q711.03 1524.47 709.202 1520.93 Q707.396 1517.37 703.762 1517.37 M703.762 1513.66 Q709.572 1513.66 712.628 1518.27 Q715.706 1522.85 715.706 1531.6 Q715.706 1540.33 712.628 1544.94 Q709.572 1549.52 703.762 1549.52 Q697.952 1549.52 694.873 1544.94 Q691.818 1540.33 691.818 1531.6 Q691.818 1522.85 694.873 1518.27 Q697.952 1513.66 703.762 1513.66 Z" fill="#000000" fill-rule="nonzero" fill-opacity="1" /><path clip-path="url(#clip450)" d="M733.924 1517.37 Q730.313 1517.37 728.484 1520.93 Q726.679 1524.47 726.679 1531.6 Q726.679 1538.71 728.484 1542.27 Q730.313 1545.82 733.924 1545.82 Q737.558 1545.82 739.364 1542.27 Q741.192 1538.71 741.192 1531.6 Q741.192 1524.47 739.364 1520.93 Q737.558 1517.37 733.924 1517.37 M733.924 1513.66 Q739.734 1513.66 742.79 1518.27 Q745.868 1522.85 745.868 1531.6 Q745.868 1540.33 742.79 1544.94 Q739.734 1549.52 733.924 1549.52 Q728.114 1549.52 725.035 1544.94 Q721.979 1540.33 721.979 1531.6 Q721.979 1522.85 725.035 1518.27 Q728.114 1513.66 733.924 1513.66 Z" fill="#000000" fill-rule="nonzero" fill-opacity="1" /><path clip-path="url(#clip450)" d="M1176.99 1544.91 L1184.63 1544.91 L1184.63 1518.55 L1176.32 1520.21 L1176.32 1515.95 L1184.58 1514.29 L1189.26 1514.29 L1189.26 1544.91 L1196.9 1544.91 L1196.9 1548.85 L1176.99 1548.85 L1176.99 1544.91 Z" fill="#000000" fill-rule="nonzero" fill-opacity="1" /><path clip-path="url(#clip450)" d="M1216.34 1517.37 Q1212.73 1517.37 1210.9 1520.93 Q1209.1 1524.47 1209.1 1531.6 Q1209.1 1538.71 1210.9 1542.27 Q1212.73 1545.82 1216.34 1545.82 Q1219.98 1545.82 1221.78 1542.27 Q1223.61 1538.71 1223.61 1531.6 Q1223.61 1524.47 1221.78 1520.93 Q1219.98 1517.37 1216.34 1517.37 M1216.34 1513.66 Q1222.15 1513.66 1225.21 1518.27 Q1228.29 1522.85 1228.29 1531.6 Q1228.29 1540.33 1225.21 1544.94 Q1222.15 1549.52 1216.34 1549.52 Q1210.53 1549.52 1207.46 1544.94 Q1204.4 1540.33 1204.4 1531.6 Q1204.4 1522.85 1207.46 1518.27 Q1210.53 1513.66 1216.34 1513.66 Z" fill="#000000" fill-rule="nonzero" fill-opacity="1" /><path clip-path="url(#clip450)" d="M1246.51 1517.37 Q1242.89 1517.37 1241.07 1520.93 Q1239.26 1524.47 1239.26 1531.6 Q1239.26 1538.71 1241.07 1542.27 Q1242.89 1545.82 1246.51 1545.82 Q1250.14 1545.82 1251.95 1542.27 Q1253.77 1538.71 1253.77 1531.6 Q1253.77 1524.47 1251.95 1520.93 Q1250.14 1517.37 1246.51 1517.37 M1246.51 1513.66 Q1252.32 1513.66 1255.37 1518.27 Q1258.45 1522.85 1258.45 1531.6 Q1258.45 1540.33 1255.37 1544.94 Q1252.32 1549.52 1246.51 1549.52 Q1240.7 1549.52 1237.62 1544.94 Q1234.56 1540.33 1234.56 1531.6 Q1234.56 1522.85 1237.62 1518.27 Q1240.7 1513.66 1246.51 1513.66 Z" fill="#000000" fill-rule="nonzero" fill-opacity="1" /><path clip-path="url(#clip450)" d="M1276.67 1517.37 Q1273.06 1517.37 1271.23 1520.93 Q1269.42 1524.47 1269.42 1531.6 Q1269.42 1538.71 1271.23 1542.27 Q1273.06 1545.82 1276.67 1545.82 Q1280.3 1545.82 1282.11 1542.27 Q1283.94 1538.71 1283.94 1531.6 Q1283.94 1524.47 1282.11 1520.93 Q1280.3 1517.37 1276.67 1517.37 M1276.67 1513.66 Q1282.48 1513.66 1285.53 1518.27 Q1288.61 1522.85 1288.61 1531.6 Q1288.61 1540.33 1285.53 1544.94 Q1282.48 1549.52 1276.67 1549.52 Q1270.86 1549.52 1267.78 1544.94 Q1264.72 1540.33 1264.72 1531.6 Q1264.72 1522.85 1267.78 1518.27 Q1270.86 1513.66 1276.67 1513.66 Z" fill="#000000" fill-rule="nonzero" fill-opacity="1" /><path clip-path="url(#clip450)" d="M1705.43 1544.91 L1713.07 1544.91 L1713.07 1518.55 L1704.76 1520.21 L1704.76 1515.95 L1713.02 1514.29 L1717.7 1514.29 L1717.7 1544.91 L1725.34 1544.91 L1725.34 1548.85 L1705.43 1548.85 L1705.43 1544.91 Z" fill="#000000" fill-rule="nonzero" fill-opacity="1" /><path clip-path="url(#clip450)" d="M1734.83 1514.29 L1753.19 1514.29 L1753.19 1518.22 L1739.11 1518.22 L1739.11 1526.7 Q1740.13 1526.35 1741.15 1526.19 Q1742.17 1526 1743.19 1526 Q1748.97 1526 1752.35 1529.17 Q1755.73 1532.34 1755.73 1537.76 Q1755.73 1543.34 1752.26 1546.44 Q1748.79 1549.52 1742.47 1549.52 Q1740.29 1549.52 1738.02 1549.15 Q1735.78 1548.78 1733.37 1548.04 L1733.37 1543.34 Q1735.45 1544.47 1737.68 1545.03 Q1739.9 1545.58 1742.37 1545.58 Q1746.38 1545.58 1748.72 1543.48 Q1751.06 1541.37 1751.06 1537.76 Q1751.06 1534.15 1748.72 1532.04 Q1746.38 1529.94 1742.37 1529.94 Q1740.5 1529.94 1738.62 1530.35 Q1736.77 1530.77 1734.83 1531.65 L1734.83 1514.29 Z" fill="#000000" fill-rule="nonzero" fill-opacity="1" /><path clip-path="url(#clip450)" d="M1774.94 1517.37 Q1771.33 1517.37 1769.5 1520.93 Q1767.7 1524.47 1767.7 1531.6 Q1767.7 1538.71 1769.5 1542.27 Q1771.33 1545.82 1774.94 1545.82 Q1778.58 1545.82 1780.38 1542.27 Q1782.21 1538.71 1782.21 1531.6 Q1782.21 1524.47 1780.38 1520.93 Q1778.58 1517.37 1774.94 1517.37 M1774.94 1513.66 Q1780.75 1513.66 1783.81 1518.27 Q1786.89 1522.85 1786.89 1531.6 Q1786.89 1540.33 1783.81 1544.94 Q1780.75 1549.52 1774.94 1549.52 Q1769.13 1549.52 1766.06 1544.94 Q1763 1540.33 1763 1531.6 Q1763 1522.85 1766.06 1518.27 Q1769.13 1513.66 1774.94 1513.66 Z" fill="#000000" fill-rule="nonzero" fill-opacity="1" /><path clip-path="url(#clip450)" d="M1805.11 1517.37 Q1801.49 1517.37 1799.67 1520.93 Q1797.86 1524.47 1797.86 1531.6 Q1797.86 1538.71 1799.67 1542.27 Q1801.49 1545.82 1805.11 1545.82 Q1808.74 1545.82 1810.55 1542.27 Q1812.37 1538.71 1812.37 1531.6 Q1812.37 1524.47 1810.55 1520.93 Q1808.74 1517.37 1805.11 1517.37 M1805.11 1513.66 Q1810.92 1513.66 1813.97 1518.27 Q1817.05 1522.85 1817.05 1531.6 Q1817.05 1540.33 1813.97 1544.94 Q1810.92 1549.52 1805.11 1549.52 Q1799.3 1549.52 1796.22 1544.94 Q1793.16 1540.33 1793.16 1531.6 Q1793.16 1522.85 1796.22 1518.27 Q1799.3 1513.66 1805.11 1513.66 Z" fill="#000000" fill-rule="nonzero" fill-opacity="1" /><path clip-path="url(#clip450)" d="M2237.95 1544.91 L2254.27 1544.91 L2254.27 1548.85 L2232.33 1548.85 L2232.33 1544.91 Q2234.99 1542.16 2239.58 1537.53 Q2244.18 1532.88 2245.36 1531.53 Q2247.61 1529.01 2248.49 1527.27 Q2249.39 1525.51 2249.39 1523.82 Q2249.39 1521.07 2247.45 1519.33 Q2245.52 1517.6 2242.42 1517.6 Q2240.22 1517.6 2237.77 1518.36 Q2235.34 1519.13 2232.56 1520.68 L2232.56 1515.95 Q2235.39 1514.82 2237.84 1514.24 Q2240.29 1513.66 2242.33 1513.66 Q2247.7 1513.66 2250.89 1516.35 Q2254.09 1519.03 2254.09 1523.52 Q2254.09 1525.65 2253.28 1527.57 Q2252.49 1529.47 2250.39 1532.07 Q2249.81 1532.74 2246.7 1535.95 Q2243.6 1539.15 2237.95 1544.91 Z" fill="#000000" fill-rule="nonzero" fill-opacity="1" /><path clip-path="url(#clip450)" d="M2274.09 1517.37 Q2270.48 1517.37 2268.65 1520.93 Q2266.84 1524.47 2266.84 1531.6 Q2266.84 1538.71 2268.65 1542.27 Q2270.48 1545.82 2274.09 1545.82 Q2277.72 1545.82 2279.53 1542.27 Q2281.36 1538.71 2281.36 1531.6 Q2281.36 1524.47 2279.53 1520.93 Q2277.72 1517.37 2274.09 1517.37 M2274.09 1513.66 Q2279.9 1513.66 2282.95 1518.27 Q2286.03 1522.85 2286.03 1531.6 Q2286.03 1540.33 2282.95 1544.94 Q2279.9 1549.52 2274.09 1549.52 Q2268.28 1549.52 2265.2 1544.94 Q2262.14 1540.33 2262.14 1531.6 Q2262.14 1522.85 2265.2 1518.27 Q2268.28 1513.66 2274.09 1513.66 Z" fill="#000000" fill-rule="nonzero" fill-opacity="1" /><path clip-path="url(#clip450)" d="M2304.25 1517.37 Q2300.64 1517.37 2298.81 1520.93 Q2297.01 1524.47 2297.01 1531.6 Q2297.01 1538.71 2298.81 1542.27 Q2300.64 1545.82 2304.25 1545.82 Q2307.88 1545.82 2309.69 1542.27 Q2311.52 1538.71 2311.52 1531.6 Q2311.52 1524.47 2309.69 1520.93 Q2307.88 1517.37 2304.25 1517.37 M2304.25 1513.66 Q2310.06 1513.66 2313.12 1518.27 Q2316.2 1522.85 2316.2 1531.6 Q2316.2 1540.33 2313.12 1544.94 Q2310.06 1549.52 2304.25 1549.52 Q2298.44 1549.52 2295.36 1544.94 Q2292.31 1540.33 2292.31 1531.6 Q2292.31 1522.85 2295.36 1518.27 Q2298.44 1513.66 2304.25 1513.66 Z" fill="#000000" fill-rule="nonzero" fill-opacity="1" /><path clip-path="url(#clip450)" d="M2334.41 1517.37 Q2330.8 1517.37 2328.97 1520.93 Q2327.17 1524.47 2327.17 1531.6 Q2327.17 1538.71 2328.97 1542.27 Q2330.8 1545.82 2334.41 1545.82 Q2338.05 1545.82 2339.85 1542.27 Q2341.68 1538.71 2341.68 1531.6 Q2341.68 1524.47 2339.85 1520.93 Q2338.05 1517.37 2334.41 1517.37 M2334.41 1513.66 Q2340.22 1513.66 2343.28 1518.27 Q2346.36 1522.85 2346.36 1531.6 Q2346.36 1540.33 2343.28 1544.94 Q2340.22 1549.52 2334.41 1549.52 Q2328.6 1549.52 2325.52 1544.94 Q2322.47 1540.33 2322.47 1531.6 Q2322.47 1522.85 2325.52 1518.27 Q2328.6 1513.66 2334.41 1513.66 Z" fill="#000000" fill-rule="nonzero" fill-opacity="1" /><polyline clip-path="url(#clip452)" style="stroke:#000000; stroke-linecap:round; stroke-linejoin:round; stroke-width:2; stroke-opacity:0.1; fill:none" points="112.177,1307.05 2352.76,1307.05 "/>
<polyline clip-path="url(#clip452)" style="stroke:#000000; stroke-linecap:round; stroke-linejoin:round; stroke-width:2; stroke-opacity:0.1; fill:none" points="112.177,1071.04 2352.76,1071.04 "/>
<polyline clip-path="url(#clip452)" style="stroke:#000000; stroke-linecap:round; stroke-linejoin:round; stroke-width:2; stroke-opacity:0.1; fill:none" points="112.177,835.02 2352.76,835.02 "/>
<polyline clip-path="url(#clip452)" style="stroke:#000000; stroke-linecap:round; stroke-linejoin:round; stroke-width:2; stroke-opacity:0.1; fill:none" points="112.177,599.002 2352.76,599.002 "/>
<polyline clip-path="url(#clip452)" style="stroke:#000000; stroke-linecap:round; stroke-linejoin:round; stroke-width:2; stroke-opacity:0.1; fill:none" points="112.177,362.985 2352.76,362.985 "/>
<polyline clip-path="url(#clip452)" style="stroke:#000000; stroke-linecap:round; stroke-linejoin:round; stroke-width:2; stroke-opacity:0.1; fill:none" points="112.177,126.967 2352.76,126.967 "/>
<polyline clip-path="url(#clip450)" style="stroke:#000000; stroke-linecap:round; stroke-linejoin:round; stroke-width:4; stroke-opacity:1; fill:none" points="112.177,1486.45 112.177,47.2441 "/>
<polyline clip-path="url(#clip450)" style="stroke:#000000; stroke-linecap:round; stroke-linejoin:round; stroke-width:4; stroke-opacity:1; fill:none" points="112.177,1307.05 131.075,1307.05 "/>
<polyline clip-path="url(#clip450)" style="stroke:#000000; stroke-linecap:round; stroke-linejoin:round; stroke-width:4; stroke-opacity:1; fill:none" points="112.177,1071.04 131.075,1071.04 "/>
<polyline clip-path="url(#clip450)" style="stroke:#000000; stroke-linecap:round; stroke-linejoin:round; stroke-width:4; stroke-opacity:1; fill:none" points="112.177,835.02 131.075,835.02 "/>
<polyline clip-path="url(#clip450)" style="stroke:#000000; stroke-linecap:round; stroke-linejoin:round; stroke-width:4; stroke-opacity:1; fill:none" points="112.177,599.002 131.075,599.002 "/>
<polyline clip-path="url(#clip450)" style="stroke:#000000; stroke-linecap:round; stroke-linejoin:round; stroke-width:4; stroke-opacity:1; fill:none" points="112.177,362.985 131.075,362.985 "/>
<polyline clip-path="url(#clip450)" style="stroke:#000000; stroke-linecap:round; stroke-linejoin:round; stroke-width:4; stroke-opacity:1; fill:none" points="112.177,126.967 131.075,126.967 "/>
<path clip-path="url(#clip450)" d="M56.2699 1320.4 L63.9087 1320.4 L63.9087 1294.03 L55.5986 1295.7 L55.5986 1291.44 L63.8624 1289.77 L68.5383 1289.77 L68.5383 1320.4 L76.1772 1320.4 L76.1772 1324.33 L56.2699 1324.33 L56.2699 1320.4 Z" fill="#000000" fill-rule="nonzero" fill-opacity="1" /><path clip-path="url(#clip450)" d="M59.8578 1084.38 L76.1772 1084.38 L76.1772 1088.32 L54.2328 1088.32 L54.2328 1084.38 Q56.8949 1081.63 61.4782 1077 Q66.0846 1072.35 67.2652 1071 Q69.5105 1068.48 70.3902 1066.74 Q71.2929 1064.98 71.2929 1063.29 Q71.2929 1060.54 69.3485 1058.8 Q67.4272 1057.07 64.3254 1057.07 Q62.1263 1057.07 59.6726 1057.83 Q57.2421 1058.6 54.4643 1060.15 L54.4643 1055.42 Q57.2884 1054.29 59.7421 1053.71 Q62.1958 1053.13 64.2328 1053.13 Q69.6031 1053.13 72.7976 1055.82 Q75.992 1058.5 75.992 1062.99 Q75.992 1065.12 75.1818 1067.04 Q74.3948 1068.94 72.2883 1071.53 Q71.7096 1072.21 68.6078 1075.42 Q65.5059 1078.62 59.8578 1084.38 Z" fill="#000000" fill-rule="nonzero" fill-opacity="1" /><path clip-path="url(#clip450)" d="M69.0476 833.666 Q72.404 834.383 74.279 836.652 Q76.1772 838.92 76.1772 842.253 Q76.1772 847.369 72.6587 850.17 Q69.1402 852.971 62.6587 852.971 Q60.4828 852.971 58.168 852.531 Q55.8764 852.115 53.4227 851.258 L53.4227 846.744 Q55.3671 847.878 57.6819 848.457 Q59.9967 849.036 62.5198 849.036 Q66.918 849.036 69.2096 847.3 Q71.5244 845.564 71.5244 842.253 Q71.5244 839.198 69.3717 837.485 Q67.242 835.749 63.4226 835.749 L59.3949 835.749 L59.3949 831.906 L63.6078 831.906 Q67.0569 831.906 68.8855 830.541 Q70.7142 829.152 70.7142 826.559 Q70.7142 823.897 68.8161 822.485 Q66.9411 821.05 63.4226 821.05 Q61.5013 821.05 59.3023 821.467 Q57.1032 821.883 54.4643 822.763 L54.4643 818.596 Q57.1264 817.855 59.4412 817.485 Q61.7791 817.115 63.8393 817.115 Q69.1633 817.115 72.2652 819.545 Q75.367 821.953 75.367 826.073 Q75.367 828.943 73.7235 830.934 Q72.08 832.902 69.0476 833.666 Z" fill="#000000" fill-rule="nonzero" fill-opacity="1" /><path clip-path="url(#clip450)" d="M66.5939 585.796 L54.7884 604.245 L66.5939 604.245 L66.5939 585.796 M65.367 581.722 L71.2466 581.722 L71.2466 604.245 L76.1772 604.245 L76.1772 608.134 L71.2466 608.134 L71.2466 616.282 L66.5939 616.282 L66.5939 608.134 L50.9921 608.134 L50.9921 603.62 L65.367 581.722 Z" fill="#000000" fill-rule="nonzero" fill-opacity="1" /><path clip-path="url(#clip450)" d="M55.2745 345.705 L73.6309 345.705 L73.6309 349.64 L59.5569 349.64 L59.5569 358.112 Q60.5754 357.765 61.5939 357.603 Q62.6124 357.418 63.6309 357.418 Q69.418 357.418 72.7976 360.589 Q76.1772 363.76 76.1772 369.177 Q76.1772 374.756 72.705 377.857 Q69.2328 380.936 62.9134 380.936 Q60.7374 380.936 58.4689 380.566 Q56.2236 380.195 53.8162 379.455 L53.8162 374.756 Q55.8995 375.89 58.1217 376.445 Q60.3439 377.001 62.8208 377.001 Q66.8254 377.001 69.1633 374.894 Q71.5013 372.788 71.5013 369.177 Q71.5013 365.566 69.1633 363.459 Q66.8254 361.353 62.8208 361.353 Q60.9458 361.353 59.0708 361.769 Q57.2189 362.186 55.2745 363.066 L55.2745 345.705 Z" fill="#000000" fill-rule="nonzero" fill-opacity="1" /><path clip-path="url(#clip450)" d="M64.6495 125.104 Q61.5013 125.104 59.6495 127.257 Q57.8208 129.409 57.8208 133.159 Q57.8208 136.886 59.6495 139.062 Q61.5013 141.215 64.6495 141.215 Q67.7976 141.215 69.6263 139.062 Q71.4781 136.886 71.4781 133.159 Q71.4781 129.409 69.6263 127.257 Q67.7976 125.104 64.6495 125.104 M73.9318 110.451 L73.9318 114.71 Q72.1726 113.877 70.367 113.437 Q68.5846 112.997 66.8254 112.997 Q62.1958 112.997 59.7421 116.122 Q57.3115 119.247 56.9643 125.567 Q58.33 123.553 60.3902 122.488 Q62.4504 121.4 64.9272 121.4 Q70.1355 121.4 73.1448 124.571 Q76.1772 127.72 76.1772 133.159 Q76.1772 138.483 73.029 141.701 Q69.8809 144.919 64.6495 144.919 Q58.6541 144.919 55.4828 140.335 Q52.3116 135.729 52.3116 127.002 Q52.3116 118.808 56.2004 113.946 Q60.0893 109.062 66.6402 109.062 Q68.3994 109.062 70.1818 109.409 Q71.9874 109.757 73.9318 110.451 Z" fill="#000000" fill-rule="nonzero" fill-opacity="1" /><polyline clip-path="url(#clip452)" style="stroke:#009af9; stroke-linecap:round; stroke-linejoin:round; stroke-width:4; stroke-opacity:1; fill:none" points="175.59,1254.99 176.647,1255.03 177.704,1078.3 178.76,1078.38 179.817,1262.21 180.874,1262.27 181.931,1266.74 182.988,1266.78 184.045,1305.38 185.102,1305.41 186.159,918.494 187.215,918.699 188.272,1264.92 189.329,1264.98 190.386,1236.04 191.443,1236.1 192.5,1080.06 193.557,1080.15 194.614,1344.36 195.67,1344.39 196.727,1330.89 197.784,1330.91 198.841,1107.85 199.898,1107.95 200.955,1157.41 202.012,1157.46 203.069,1356.13 204.125,1356.15 205.182,1328.99 206.239,1329.03 207.296,1114.11 208.353,1114.17 209.41,1167.99 210.467,1168.08 211.524,1016.15 212.58,1016.25 213.637,984.306 214.694,984.554 215.751,998.589 216.808,998.708 217.865,896.367 218.922,896.505 219.979,835.393 221.035,835.556 222.092,937.289 223.149,937.424 224.206,1132.78 225.263,1132.91 226.32,1232.01 227.377,1232.08 228.434,1025.15 229.49,1025.25 230.547,964.87 231.604,965.02 232.661,1146.94 233.718,1147.02 234.775,1233.39 235.832,1233.42 236.889,1410.03 237.946,1410.04 239.002,1051.19 240.059,1051.31 241.116,1080.32 242.173,1080.41 243.23,1297.96 244.287,1297.98 245.344,1445.69 246.401,1445.72 247.457,1007.06 248.514,1007.19 249.571,1205.55 250.628,1205.61 251.685,1022.89 252.742,1023.01 253.799,870.739 254.856,870.842 255.912,812.147 256.969,812.411 258.026,1036.8 259.083,1036.9 260.14,938.242 261.197,938.369 262.254,1115.52 263.311,1115.59 264.367,914.712 265.424,914.873 266.481,1168.69 267.538,1168.79 268.595,1270.51 269.652,1270.54 270.709,1172.13 271.766,1172.19 272.822,1274.72 273.879,1274.76 274.936,1212.19 275.993,1212.23 277.05,1123.85 278.107,1123.91 279.164,1238.24 280.221,1238.27 281.277,1335.95 282.334,1335.98 283.391,1266.14 284.448,1266.18 285.505,1301.35 286.562,1301.4 287.619,1210.5 288.676,1210.59 289.732,1299 290.789,1299.05 291.846,857.128 292.903,857.265 293.96,1001.47 295.017,1001.64 296.074,760.265 297.131,760.437 298.187,1032.77 299.244,1032.92 300.301,1132.78 301.358,1132.84 302.415,1216.18 303.472,1216.3 304.529,976.276 305.586,976.385 306.642,1311.59 307.699,1311.62 308.756,990.698 309.813,990.812 310.87,1392.59 311.927,1392.6 312.984,1161.69 314.041,1161.74 315.098,961.299 316.154,961.492 317.211,979.851 318.268,980.006 319.325,1243.08 320.382,1243.14 321.439,1374.36 322.496,1374.38 323.553,886.375 324.609,886.563 325.666,1131.15 326.723,1131.25 327.78,1032.56 328.837,1032.68 329.894,1204.74 330.951,1204.77 332.008,1133.32 333.064,1133.37 334.121,1136.42 335.178,1136.48 336.235,1109.34 337.292,1109.42 338.349,1274.49 339.406,1274.52 340.463,1019.73 341.519,1019.82 342.576,727.155 343.633,727.3 344.69,1247.75 345.747,1247.79 346.804,939.209 347.861,939.382 348.918,1154.45 349.974,1154.51 351.031,1282.39 352.088,1282.43 353.145,702.988 354.202,703.2 355.259,1304.89 356.316,1304.92 357.373,1134.41 358.429,1134.53 359.486,1036.98 360.543,1037.1 361.6,997.711 362.657,997.843 363.714,858.456 364.771,858.571 365.828,735.254 366.884,735.461 367.941,561.221 368.998,561.523 370.055,923.946 371.112,924.099 372.169,1104.13 373.226,1104.22 374.283,630.635 375.339,630.875 376.396,1279.84 377.453,1279.87 378.51,1118.66 379.567,1118.77 380.624,1257.55 381.681,1257.59 382.738,1241.16 383.795,1241.2 384.851,1207.76 385.908,1207.83 386.965,751.271 388.022,751.489 389.079,966.398 390.136,966.525 391.193,1132.92 392.25,1132.99 393.306,1411.64 394.363,1411.67 395.42,1120.06 396.477,1120.19 397.534,1173.48 398.591,1173.52 399.648,730.808 400.705,730.941 401.761,1271.45 402.818,1271.48 403.875,1323.65 404.932,1323.68 405.989,1078.68 407.046,1078.79 408.103,1101.66 409.16,1101.76 410.216,1243.3 411.273,1243.32 412.33,1179.22 413.387,1179.27 414.444,1250.46 415.501,1250.5 416.558,985.431 417.615,985.525 418.671,326.978 419.728,327.73 420.785,1134.63 421.842,1134.68 422.899,1210.65 423.956,1210.69 425.013,1175.05 426.07,1175.16 427.126,1109.17 428.183,1109.23 429.24,1282.06 430.297,1282.09 431.354,1093.18 432.411,1093.35 433.468,863.992 434.525,864.104 435.581,1244.7 436.638,1244.74 437.695,920.992 438.752,921.128 439.809,1089.05 440.866,1089.13 441.923,1252.28 442.98,1252.34 444.036,1130.52 445.093,1130.65 446.15,1276.02 447.207,1276.06 448.264,1013.61 449.321,1013.7 450.378,831.453 451.435,831.57 452.491,1095.74 453.548,1095.84 454.605,1442.69 455.662,1442.71 456.719,1055.57 457.776,1055.69 458.833,1086.41 459.89,1086.49 460.947,1181.03 462.003,1181.12 463.06,1042.39 464.117,1042.52 465.174,1178.1 466.231,1178.14 467.288,1180.66 468.345,1180.7 469.402,1138.63 470.458,1138.68 471.515,1229.25 472.572,1229.3 473.629,1125.85 474.686,1125.93 475.743,1074.36 476.8,1074.53 477.857,1199.99 478.913,1200.06 479.97,710.23 481.027,710.425 482.084,1188.33 483.141,1188.41 484.198,1327.7 485.255,1327.76 486.312,1368.24 487.368,1368.27 488.425,1131.48 489.482,1131.62 490.539,1087.33 491.596,1087.41 492.653,1191.76 493.71,1191.83 494.767,1189.67 495.823,1189.75 496.88,1178.02 497.937,1178.06 498.994,1187.5 500.051,1187.58 501.108,1205.84 502.165,1205.89 503.222,1059.26 504.278,1059.4 505.335,1316.82 506.392,1316.84 507.449,1175.64 508.506,1175.73 509.563,1257.58 510.62,1257.62 511.677,1164.1 512.733,1164.19 513.79,1085.63 514.847,1085.7 515.904,1159.55 516.961,1159.61 518.018,950.92 519.075,951.063 520.132,1288.12 521.188,1288.15 522.245,1315.32 523.302,1315.36 524.359,781.837 525.416,782.08 526.473,1104.74 527.53,1104.87 528.587,1325.09 529.643,1325.12 530.7,1100.87 531.757,1101.04 532.814,1068.57 533.871,1068.67 534.928,1230.96 535.985,1231.03 537.042,1218.18 538.099,1218.23 539.155,1315.76 540.212,1315.8 541.269,711.364 542.326,711.597 543.383,1071.88 544.44,1072.05 545.497,1103.18 546.554,1103.23 547.61,1079.23 548.667,1079.29 549.724,868.301 550.781,868.433 551.838,748.078 552.895,748.401 553.952,1061.36 555.009,1061.48 556.065,943.567 557.122,943.734 558.179,1174.22 559.236,1174.3 560.293,1133.2 561.35,1133.24 562.407,1106.04 563.464,1106.12 564.52,1201.6 565.577,1201.69 566.634,937.772 567.691,937.889 568.748,1230.17 569.805,1230.24 570.862,1134.17 571.919,1134.28 572.975,1236.05 574.032,1236.11 575.089,1155.16 576.146,1155.2 577.203,784.654 578.26,784.953 579.317,696.047 580.374,696.334 581.43,1284.02 582.487,1284.05 583.544,1098.66 584.601,1098.73 585.658,1166.53 586.715,1166.59 587.772,1344.04 588.829,1344.07 589.885,1033.27 590.942,1033.36 591.999,993.524 593.056,993.672 594.113,1083.84 595.17,1083.9 596.227,905.668 597.284,905.765 598.34,1260.57 599.397,1260.64 600.454,1263.61 601.511,1263.66 602.568,916.432 603.625,916.627 604.682,1009.58 605.739,1009.7 606.795,1041.7 607.852,1041.78 608.909,1066.27 609.966,1066.4 611.023,1085.19 612.08,1085.25 613.137,1208.4 614.194,1208.48 615.251,766.272 616.307,766.457 617.364,1173.83 618.421,1173.89 619.478,1019 620.535,1019.09 621.592,1204.19 622.649,1204.26 623.706,1142.19 624.762,1142.28 625.819,1079.96 626.876,1080.05 627.933,1096.88 628.99,1096.94 630.047,1170.14 631.104,1170.18 632.161,975.932 633.217,976.066 634.274,1234.5 635.331,1234.57 636.388,1082.57 637.445,1082.7 638.502,959.382 639.559,959.505 640.616,1095.41 641.672,1095.49 642.729,1152.58 643.786,1152.68 644.843,1109.48 645.9,1109.57 646.957,1264.71 648.014,1264.75 649.071,1138.84 650.127,1138.89 651.184,1169.2 652.241,1169.24 653.298,940.486 654.355,940.624 655.412,978.694 656.469,978.814 657.526,1166.13 658.582,1166.21 659.639,228.614 660.696,228.948 661.753,1223.11 662.81,1223.16 663.867,1065.6 664.924,1065.67 665.981,996.377 667.037,996.486 668.094,1227.44 669.151,1227.49 670.208,1190.6 671.265,1190.63 672.322,1092.41 673.379,1092.5 674.436,1224.54 675.492,1224.58 676.549,1156.48 677.606,1156.57 678.663,1132.02 679.72,1132.08 680.777,1284.74 681.834,1284.77 682.891,954.2 683.948,954.341 685.004,1332.67 686.061,1332.7 687.118,974.327 688.175,974.446 689.232,1197.03 690.289,1197.07 691.346,863.878 692.403,864.223 693.459,979.154 694.516,979.265 695.573,1128.6 696.63,1128.71 697.687,1232.62 698.744,1232.67 699.801,1242.11 700.858,1242.17 701.914,1020.04 702.971,1020.14 704.028,1173.25 705.085,1173.34 706.142,941.45 707.199,941.588 708.256,1243.23 709.313,1243.29 710.369,956.175 711.426,956.274 712.483,1062.05 713.54,1062.16 714.597,1065.58 715.654,1065.67 716.711,1250.02 717.768,1250.07 718.824,1255.16 719.881,1255.23 720.938,1198.79 721.995,1198.83 723.052,993.266 724.109,993.36 725.166,1281.46 726.223,1281.52 727.279,1155.16 728.336,1155.21 729.393,1234.64 730.45,1234.66 731.507,1195.69 732.564,1195.73 733.621,1350.15 734.678,1350.17 735.734,1173.09 736.791,1173.13 737.848,940.012 738.905,940.261 739.962,1267.72 741.019,1267.76 742.076,1208.16 743.133,1208.24 744.189,1158.59 745.246,1158.67 746.303,1207.08 747.36,1207.11 748.417,1208.36 749.474,1208.43 750.531,290.729 751.588,291.49 752.644,1290.25 753.701,1290.3 754.758,1280.92 755.815,1280.97 756.872,845.173 757.929,845.291 758.986,679.01 760.043,679.14 761.1,1163.31 762.156,1163.4 763.213,1120.36 764.27,1120.43 765.327,883.196 766.384,883.309 767.441,1050.82 768.498,1050.9 769.555,1425.06 770.611,1425.08 771.668,965.493 772.725,965.657 773.782,1124.78 774.839,1124.87 775.896,1089.24 776.953,1089.32 778.01,1251.09 779.066,1251.13 780.123,1248.06 781.18,1248.08 782.237,997.48 783.294,997.563 784.351,1120.19 785.408,1120.26 786.465,1006.86 787.521,1007.12 788.578,1036.26 789.635,1036.38 790.692,1054.11 791.749,1054.21 792.806,1008.07 793.863,1008.18 794.92,948.075 795.976,948.25 797.033,1087.88 798.09,1087.96 799.147,1171.17 800.204,1171.21 801.261,1160.75 802.318,1160.8 803.375,1088.61 804.431,1088.67 805.488,1103.29 806.545,1103.41 807.602,1115.36 808.659,1115.42 809.716,707.162 810.773,707.335 811.83,1093.07 812.886,1093.16 813.943,723.941 815,724.125 816.057,1008.2 817.114,1008.33 818.171,1097.55 819.228,1097.7 820.285,1169.99 821.341,1170.11 822.398,963.051 823.455,963.176 824.512,1127.29 825.569,1127.35 826.626,1066.7 827.683,1066.78 828.74,989.262 829.796,989.363 830.853,1034.25 831.91,1034.41 832.967,880.316 834.024,880.496 835.081,1119.53 836.138,1119.61 837.195,1154.78 838.252,1154.83 839.308,626.7 840.365,626.887 841.422,968.169 842.479,968.282 843.536,1015.86 844.593,1015.99 845.65,840.993 846.707,841.102 847.763,1213.91 848.82,1213.98 849.877,1070.13 850.934,1070.22 851.991,1122.7 853.048,1122.8 854.105,1148.18 855.162,1148.28 856.218,772.61 857.275,772.837 858.332,1044.01 859.389,1044.08 860.446,1148.12 861.503,1148.16 862.56,981.396 863.617,981.542 864.673,1211.22 865.73,1211.25 866.787,1112.15 867.844,1112.2 868.901,1065.19 869.958,1065.27 871.015,1256.28 872.072,1256.32 873.128,1071.06 874.185,1071.18 875.242,1086.53 876.299,1086.58 877.356,328.294 878.413,328.693 879.47,1011.21 880.527,1011.33 881.583,1187.68 882.64,1187.8 883.697,1126.58 884.754,1126.64 885.811,1281.56 886.868,1281.59 887.925,1265.92 888.982,1265.94 890.038,1320.57 891.095,1320.59 892.152,1155.96 893.209,1156 894.266,1129.89 895.323,1129.95 896.38,1151.76 897.437,1151.8 898.493,1052.35 899.55,1052.41 900.607,1118.81 901.664,1118.86 902.721,895.958 903.778,896.157 904.835,1255.64 905.892,1255.68 906.948,1079.34 908.005,1079.43 909.062,1071.69 910.119,1071.76 911.176,1199.72 912.233,1199.78 913.29,1068.65 914.347,1068.73 915.404,1217.71 916.46,1217.75 917.517,968.703 918.574,968.808 919.631,1199.5 920.688,1199.56 921.745,1205.82 922.802,1205.9 923.859,1250.87 924.915,1250.92 925.972,1007.33 927.029,1007.5 928.086,1117.6 929.143,1117.67 930.2,849.833 931.257,850.035 932.314,1099.36 933.37,1099.45 934.427,1038.09 935.484,1038.28 936.541,1194.39 937.598,1194.43 938.655,1159.6 939.712,1159.71 940.769,1247.45 941.825,1247.49 942.882,746.651 943.939,746.946 944.996,1154.34 946.053,1154.41 947.11,1315.69 948.167,1315.73 949.224,836.791 950.28,836.956 951.337,1090.37 952.394,1090.55 953.451,1222.28 954.508,1222.34 955.565,1022.25 956.622,1022.38 957.679,1096.68 958.735,1096.77 959.792,642.818 960.849,642.955 961.906,1316.13 962.963,1316.17 964.02,1108.92 965.077,1109.06 966.134,1125.99 967.19,1126.05 968.247,862.207 969.304,862.375 970.361,1157.05 971.418,1157.16 972.475,1216.11 973.532,1216.13 974.589,1123.87 975.645,1123.94 976.702,1145.62 977.759,1145.67 978.816,1166.11 979.873,1166.2 980.93,1017.62 981.987,1017.75 983.044,885.64 984.101,885.831 985.157,1093.68 986.214,1093.75 987.271,1019.99 988.328,1020.11 989.385,949.58 990.442,949.693 991.499,1015.78 992.556,1015.91 993.612,613.389 994.669,613.653 995.726,1064.45 996.783,1064.69 997.84,1149.52 998.897,1149.57 999.954,1223.86 1001.01,1223.92 1002.07,1171.6 1003.12,1171.65 1004.18,1353.42 1005.24,1353.44 1006.29,927.992 1007.35,928.261 1008.41,720.61 1009.47,720.809 1010.52,1256.51 1011.58,1256.56 1012.64,936.341 1013.69,936.488 1014.75,909.012 1015.81,909.22 1016.86,934.567 1017.92,934.711 1018.98,1128.32 1020.03,1128.45 1021.09,1138.05 1022.15,1138.12 1023.2,1115.46 1024.26,1115.58 1025.32,1160.52 1026.38,1160.56 1027.43,1072.12 1028.49,1072.2 1029.55,1197.11 1030.6,1197.18 1031.66,1086.43 1032.72,1086.54 1033.77,1118.24 1034.83,1118.36 1035.89,1314.8 1036.94,1314.83 1038,1120.76 1039.06,1120.82 1040.11,1129.83 1041.17,1129.89 1042.23,807.381 1043.29,807.592 1044.34,1268.1 1045.4,1268.13 1046.46,1213.85 1047.51,1213.9 1048.57,1212.77 1049.63,1212.82 1050.68,480.484 1051.74,480.807 1052.8,1223.74 1053.85,1223.76 1054.91,1021.39 1055.97,1021.51 1057.02,1191.89 1058.08,1191.92 1059.14,505.97 1060.2,506.387 1061.25,1057.54 1062.31,1057.61 1063.37,934.065 1064.42,934.209 1065.48,675.492 1066.54,675.86 1067.59,1078.84 1068.65,1078.93 1069.71,1205.37 1070.76,1205.4 1071.82,1336.3 1072.88,1336.32 1073.94,1158.21 1074.99,1158.25 1076.05,1110.31 1077.11,1110.5 1078.16,1061.07 1079.22,1061.15 1080.28,1197.9 1081.33,1197.97 1082.39,1266.65 1083.45,1266.69 1084.5,1135.62 1085.56,1135.7 1086.62,1028.8 1087.67,1028.92 1088.73,1292.04 1089.79,1292.07 1090.85,1201.95 1091.9,1202.01 1092.96,1145.9 1094.02,1145.95 1095.07,886.099 1096.13,886.241 1097.19,890.534 1098.24,890.676 1099.3,1030.86 1100.36,1030.97 1101.41,966.37 1102.47,966.493 1103.53,916.703 1104.58,916.826 1105.64,1128.54 1106.7,1128.59 1107.76,1104.22 1108.81,1104.27 1109.87,1042.77 1110.93,1042.86 1111.98,815.785 1113.04,815.983 1114.1,1002.38 1115.15,1002.48 1116.21,1187.11 1117.27,1187.19 1118.32,1146.89 1119.38,1146.98 1120.44,1216.23 1121.49,1216.28 1122.55,958.637 1123.61,958.731 1124.67,1233.17 1125.72,1233.21 1126.78,1167.98 1127.84,1168.08 1128.89,1205.03 1129.95,1205.07 1131.01,1158.5 1132.06,1158.59 1133.12,1136.59 1134.18,1136.66 1135.23,942.309 1136.29,942.44 1137.35,1301.78 1138.4,1301.81 1139.46,1108.29 1140.52,1108.35 1141.58,957.319 1142.63,957.431 1143.69,1211.28 1144.75,1211.34 1145.8,1170.2 1146.86,1170.23 1147.92,1133.72 1148.97,1133.77 1150.03,1130.32 1151.09,1130.36 1152.14,1029.62 1153.2,1029.69 1154.26,969.943 1155.31,970.053 1156.37,792.204 1157.43,792.322 1158.49,1168.85 1159.54,1168.89 1160.6,1149.63 1161.66,1149.72 1162.71,1155.99 1163.77,1156.07 1164.83,1204.01 1165.88,1204.09 1166.94,778.56 1168,778.813 1169.05,912.671 1170.11,912.862 1171.17,1022.71 1172.22,1022.83 1173.28,1314.05 1174.34,1314.08 1175.4,1037.18 1176.45,1037.24 1177.51,1206.52 1178.57,1206.54 1179.62,1049.89 1180.68,1049.96 1181.74,669.246 1182.79,669.392 1183.85,1174.67 1184.91,1174.75 1185.96,1028.49 1187.02,1028.58 1188.08,1185.35 1189.13,1185.47 1190.19,1201.2 1191.25,1201.23 1192.31,1140.54 1193.36,1140.59 1194.42,996.947 1195.48,997.034 1196.53,1328.14 1197.59,1328.16 1198.65,1045.09 1199.7,1045.25 1200.76,1258.98 1201.82,1259.01 1202.87,1178.38 1203.93,1178.42 1204.99,1090.49 1206.04,1090.54 1207.1,1352.08 1208.16,1352.12 1209.22,1103.61 1210.27,1103.67 1211.33,1282.07 1212.39,1282.13 1213.44,1081.75 1214.5,1081.84 1215.56,1198.04 1216.61,1198.07 1217.67,795.463 1218.73,795.616 1219.78,334.07 1220.84,334.803 1221.9,1090.77 1222.95,1090.87 1224.01,1010.76 1225.07,1010.83 1226.13,1213.28 1227.18,1213.33 1228.24,1138.57 1229.3,1138.67 1230.35,1064.23 1231.41,1064.29 1232.47,1360.48 1233.52,1360.52 1234.58,1042.43 1235.64,1042.5 1236.69,1301.62 1237.75,1301.64 1238.81,1349.95 1239.86,1349.97 1240.92,801.414 1241.98,801.561 1243.04,1045.09 1244.09,1045.18 1245.15,1052.18 1246.21,1052.25 1247.26,985.714 1248.32,985.82 1249.38,1145.98 1250.43,1146.07 1251.49,1153.41 1252.55,1153.45 1253.6,1253.87 1254.66,1253.94 1255.72,1001.78 1256.77,1001.86 1257.83,1091.58 1258.89,1091.67 1259.95,1149.61 1261,1149.7 1262.06,1073.64 1263.12,1073.72 1264.17,843.154 1265.23,843.316 1266.29,851.38 1267.34,851.578 1268.4,917.406 1269.46,917.506 1270.51,978.713 1271.57,978.81 1272.63,1149.76 1273.68,1149.86 1274.74,1046.33 1275.8,1046.42 1276.86,1234.37 1277.91,1234.43 1278.97,1112.63 1280.03,1112.7 1281.08,1085.47 1282.14,1085.64 1283.2,1073.69 1284.25,1073.77 1285.31,814.894 1286.37,815.009 1287.42,926.552 1288.48,926.733 1289.54,1266.26 1290.59,1266.3 1291.65,1192.2 1292.71,1192.28 1293.77,1045.68 1294.82,1045.73 1295.88,1007.49 1296.94,1007.67 1297.99,1252.27 1299.05,1252.34 1300.11,642.427 1301.16,642.573 1302.22,873.536 1303.28,873.685 1304.33,997.395 1305.39,997.55 1306.45,1148.89 1307.5,1148.94 1308.56,1068.56 1309.62,1068.61 1310.68,1274 1311.73,1274.03 1312.79,1259.91 1313.85,1259.95 1314.9,1123.08 1315.96,1123.18 1317.02,1096.93 1318.07,1096.99 1319.13,1171.01 1320.19,1171.04 1321.24,1160.71 1322.3,1160.78 1323.36,1077.56 1324.41,1077.62 1325.47,978.032 1326.53,978.2 1327.59,1045.46 1328.64,1045.52 1329.7,726.664 1330.76,726.796 1331.81,985.876 1332.87,986.035 1333.93,1129.58 1334.98,1129.66 1336.04,1100.99 1337.1,1101.03 1338.15,1213.99 1339.21,1214.04 1340.27,1014.61 1341.32,1014.73 1342.38,1155.43 1343.44,1155.52 1344.5,1167.19 1345.55,1167.28 1346.61,1128.31 1347.67,1128.35 1348.72,841.309 1349.78,841.485 1350.84,1178.48 1351.89,1178.52 1352.95,1326.11 1354.01,1326.13 1355.06,812.013 1356.12,812.213 1357.18,876.295 1358.23,876.473 1359.29,1101.34 1360.35,1101.39 1361.41,1154.76 1362.46,1154.8 1363.52,1272.83 1364.58,1272.88 1365.63,966.897 1366.69,967.006 1367.75,1241.99 1368.8,1242.04 1369.86,1279.06 1370.92,1279.09 1371.97,1060.42 1373.03,1060.56 1374.09,268.116 1375.14,268.52 1376.2,1008.93 1377.26,1009.04 1378.32,832.744 1379.37,832.863 1380.43,1111.84 1381.49,1111.9 1382.54,972.339 1383.6,972.426 1384.66,1146.56 1385.71,1146.61 1386.77,727.71 1387.83,727.849 1388.88,1127.59 1389.94,1127.64 1391,616.83 1392.05,616.989 1393.11,963.675 1394.17,963.819 1395.23,1286.93 1396.28,1286.97 1397.34,1015.37 1398.4,1015.45 1399.45,87.9763 1400.51,88.796 1401.57,1046.42 1402.62,1046.48 1403.68,754.255 1404.74,754.514 1405.79,1240.09 1406.85,1240.12 1407.91,1170.95 1408.96,1170.98 1410.02,1194.02 1411.08,1194.08 1412.14,860.31 1413.19,860.489 1414.25,1290.03 1415.31,1290.06 1416.36,1124.59 1417.42,1124.64 1418.48,931.253 1419.53,931.369 1420.59,674.963 1421.65,675.086 1422.7,1239.96 1423.76,1239.98 1424.82,1218.93 1425.87,1218.97 1426.93,960.823 1427.99,960.935 1429.05,1002.19 1430.1,1002.29 1431.16,1249.18 1432.22,1249.21 1433.27,1185.18 1434.33,1185.21 1435.39,1094.35 1436.44,1094.41 1437.5,1117.52 1438.56,1117.57 1439.61,1110.15 1440.67,1110.25 1441.73,1088.16 1442.79,1088.25 1443.84,926.949 1444.9,927.133 1445.96,1129.36 1447.01,1129.42 1448.07,586.224 1449.13,586.424 1450.18,1117.93 1451.24,1117.97 1452.3,1114.87 1453.35,1114.93 1454.41,987.761 1455.47,987.855 1456.52,1211.69 1457.58,1211.74 1458.64,971.454 1459.7,971.62 1460.75,1093 1461.81,1093.08 1462.87,1223.34 1463.92,1223.39 1464.98,983.52 1466.04,983.635 1467.09,1023.68 1468.15,1023.81 1469.21,1393.82 1470.26,1393.84 1471.32,1009.2 1472.38,1009.28 1473.43,961.654 1474.49,961.735 1475.55,1291.49 1476.61,1291.52 1477.66,1021.01 1478.72,1021.09 1479.78,1130.22 1480.83,1130.35 1481.89,1014.26 1482.95,1014.34 1484,889.787 1485.06,889.961 1486.12,848.205 1487.17,848.378 1488.23,1250.33 1489.29,1250.37 1490.34,1136.03 1491.4,1136.07 1492.46,1184.94 1493.52,1184.98 1494.57,1077.14 1495.63,1077.19 1496.69,1056.48 1497.74,1056.53 1498.8,1115.88 1499.86,1115.93 1500.91,902.15 1501.97,902.293 1503.03,999.7 1504.08,999.844 1505.14,1078.25 1506.2,1078.3 1507.25,1005.04 1508.31,1005.11 1509.37,960.796 1510.43,960.905 1511.48,1084.16 1512.54,1084.22 1513.6,957.181 1514.65,957.336 1515.71,1168.31 1516.77,1168.34 1517.82,1299.21 1518.88,1299.24 1519.94,868.91 1520.99,869.053 1522.05,892.664 1523.11,892.826 1524.16,1189.67 1525.22,1189.69 1526.28,1210.19 1527.34,1210.24 1528.39,1062.17 1529.45,1062.26 1530.51,1188.71 1531.56,1188.73 1532.62,1223.86 1533.68,1223.9 1534.73,1004.52 1535.79,1004.61 1536.85,1098.1 1537.9,1098.16 1538.96,1063.79 1540.02,1063.85 1541.07,1225.62 1542.13,1225.64 1543.19,1170.63 1544.25,1170.69 1545.3,1214.96 1546.36,1215.03 1547.42,1122.35 1548.47,1122.39 1549.53,1071.24 1550.59,1071.3 1551.64,889.284 1552.7,889.442 1553.76,1041.94 1554.81,1042.02 1555.87,1164.76 1556.93,1164.79 1557.98,1299.71 1559.04,1299.73 1560.1,1117.18 1561.16,1117.23 1562.21,1063 1563.27,1063.07 1564.33,1093.51 1565.38,1093.58 1566.44,1225.12 1567.5,1225.17 1568.55,1071.64 1569.61,1071.7 1570.67,855.075 1571.72,855.189 1572.78,919.032 1573.84,919.213 1574.89,1194.15 1575.95,1194.18 1577.01,1117 1578.07,1117.05 1579.12,1045.48 1580.18,1045.53 1581.24,1214.84 1582.29,1214.88 1583.35,686.344 1584.41,686.558 1585.46,963.379 1586.52,963.494 1587.58,1290.79 1588.63,1290.81 1589.69,1151.24 1590.75,1151.31 1591.8,1147.01 1592.86,1147.05 1593.92,1040.43 1594.98,1040.53 1596.03,1176.67 1597.09,1176.71 1598.15,1172.82 1599.2,1172.88 1600.26,1127.74 1601.32,1127.78 1602.37,1111.54 1603.43,1111.61 1604.49,916.24 1605.54,916.358 1606.6,942.375 1607.66,942.51 1608.71,901.312 1609.77,901.454 1610.83,947.267 1611.89,947.387 1612.94,1012.8 1614,1012.92 1615.06,1131.89 1616.11,1131.94 1617.17,1033.02 1618.23,1033.14 1619.28,869.586 1620.34,869.756 1621.4,1108.05 1622.45,1108.18 1623.51,1033.73 1624.57,1033.83 1625.62,1286.44 1626.68,1286.48 1627.74,1119.06 1628.8,1119.11 1629.85,1137.99 1630.91,1138.04 1631.97,1169.65 1633.02,1169.71 1634.08,1041.4 1635.14,1041.52 1636.19,1156.8 1637.25,1156.86 1638.31,1067.7 1639.36,1067.78 1640.42,772.887 1641.48,773.023 1642.53,1016.19 1643.59,1016.33 1644.65,1140.17 1645.71,1140.21 1646.76,1092.73 1647.82,1092.83 1648.88,1017.42 1649.93,1017.51 1650.99,1081.44 1652.05,1081.51 1653.1,1238.46 1654.16,1238.49 1655.22,1035.55 1656.27,1035.62 1657.33,1165.02 1658.39,1165.07 1659.44,952.087 1660.5,952.233 1661.56,1040.96 1662.62,1041.06 1663.67,298.927 1664.73,299.208 1665.79,818.099 1666.84,818.282 1667.9,1186.96 1668.96,1186.98 1670.01,1053.65 1671.07,1053.72 1672.13,1057.39 1673.18,1057.47 1674.24,314.169 1675.3,314.485 1676.35,1184.66 1677.41,1184.72 1678.47,1095.54 1679.53,1095.58 1680.58,1162.19 1681.64,1162.23 1682.7,1136.49 1683.75,1136.57 1684.81,1140.26 1685.87,1140.34 1686.92,1219.35 1687.98,1219.4 1689.04,1146.3 1690.09,1146.33 1691.15,890.138 1692.21,890.263 1693.26,1252.5 1694.32,1252.54 1695.38,1058.64 1696.44,1058.71 1697.49,916.665 1698.55,916.78 1699.61,1077.61 1700.66,1077.7 1701.72,1111.96 1702.78,1111.99 1703.83,1255.47 1704.89,1255.5 1705.95,995.483 1707,995.554 1708.06,1084.09 1709.12,1084.2 1710.17,1230.35 1711.23,1230.39 1712.29,1128.1 1713.35,1128.17 1714.4,747.089 1715.46,747.352 1716.52,1039.71 1717.57,1039.77 1718.63,1037.42 1719.69,1037.5 1720.74,1212.17 1721.8,1212.19 1722.86,1125.18 1723.91,1125.22 1724.97,1033.52 1726.03,1033.57 1727.08,669.088 1728.14,669.269 1729.2,1176.92 1730.26,1176.98 1731.31,907.097 1732.37,907.215 1733.43,985.22 1734.48,985.289 1735.54,1184.67 1736.6,1184.72 1737.65,630.206 1738.71,630.392 1739.77,1059.45 1740.82,1059.5 1741.88,960.607 1742.94,960.697 1743.99,890.533 1745.05,890.693 1746.11,1011.99 1747.17,1012.06 1748.22,1154.91 1749.28,1154.98 1750.34,1090.02 1751.39,1090.08 1752.45,1096.54 1753.51,1096.62 1754.56,1336.11 1755.62,1336.13 1756.68,606.003 1757.73,606.28 1758.79,950.58 1759.85,950.674 1760.9,1220.92 1761.96,1220.95 1763.02,978.92 1764.08,979.015 1765.13,1097.75 1766.19,1097.79 1767.25,1109.43 1768.3,1109.54 1769.36,843.547 1770.42,843.656 1771.47,921.339 1772.53,921.457 1773.59,1205.99 1774.64,1206.01 1775.7,1168.19 1776.76,1168.22 1777.81,1198.33 1778.87,1198.38 1779.93,1095.93 1780.99,1096.06 1782.04,1248.66 1783.1,1248.69 1784.16,689.641 1785.21,689.833 1786.27,1174.19 1787.33,1174.22 1788.38,1198.99 1789.44,1199.02 1790.5,1001.87 1791.55,1001.94 1792.61,1111.18 1793.67,1111.24 1794.72,1106.42 1795.78,1106.47 1796.84,704.308 1797.9,704.548 1798.95,1081.93 1800.01,1082.08 1801.07,1302.92 1802.12,1302.95 1803.18,1127.35 1804.24,1127.39 1805.29,1199.52 1806.35,1199.58 1807.41,1209.95 1808.46,1209.99 1809.52,1005.74 1810.58,1005.84 1811.64,1041.93 1812.69,1041.99 1813.75,1174.24 1814.81,1174.29 1815.86,1232.88 1816.92,1232.92 1817.98,941.23 1819.03,941.355 1820.09,1168.67 1821.15,1168.7 1822.2,733.936 1823.26,734.165 1824.32,1019.21 1825.37,1019.3 1826.43,934.957 1827.49,935.049 1828.55,1144.57 1829.6,1144.61 1830.66,1128.04 1831.72,1128.1 1832.77,1129.49 1833.83,1129.54 1834.89,1093.64 1835.94,1093.7 1837,835.337 1838.06,835.459 1839.11,981.239 1840.17,981.337 1841.23,1221.88 1842.28,1221.91 1843.34,1223.85 1844.4,1223.89 1845.46,1053.49 1846.51,1053.54 1847.57,1156.41 1848.63,1156.5 1849.68,1105.03 1850.74,1105.09 1851.8,974.287 1852.85,974.377 1853.91,1198.2 1854.97,1198.22 1856.02,1263.24 1857.08,1263.27 1858.14,1072.31 1859.19,1072.39 1860.25,1118.13 1861.31,1118.19 1862.37,1141.14 1863.42,1141.17 1864.48,1116.15 1865.54,1116.24 1866.59,1044.31 1867.65,1044.37 1868.71,1148.08 1869.76,1148.2 1870.82,1235.22 1871.88,1235.24 1872.93,1132.2 1873.99,1132.24 1875.05,1100.86 1876.1,1100.94 1877.16,1034.45 1878.22,1034.52 1879.28,1167.76 1880.33,1167.82 1881.39,1054.72 1882.45,1054.85 1883.5,979.747 1884.56,979.831 1885.62,1167.6 1886.67,1167.63 1887.73,1044.72 1888.79,1044.77 1889.84,1162.03 1890.9,1162.07 1891.96,791.459 1893.01,791.568 1894.07,991.02 1895.13,991.08 1896.19,1149.43 1897.24,1149.46 1898.3,985.045 1899.36,985.115 1900.41,974.051 1901.47,974.127 1902.53,1224.88 1903.58,1224.94 1904.64,968.297 1905.7,968.439 1906.75,1106.05 1907.81,1106.12 1908.87,1120.32 1909.92,1120.35 1910.98,999.591 1912.04,999.659 1913.1,1164.39 1914.15,1164.46 1915.21,594.566 1916.27,594.73 1917.32,1144.56 1918.38,1144.59 1919.44,758.513 1920.49,758.69 1921.55,943.981 1922.61,944.094 1923.66,1225.08 1924.72,1225.12 1925.78,1229.54 1926.83,1229.58 1927.89,1124.95 1928.95,1125 1930.01,990.715 1931.06,990.783 1932.12,1231.17 1933.18,1231.21 1934.23,1026.67 1935.29,1026.77 1936.35,790.384 1937.4,790.537 1938.46,823.163 1939.52,823.277 1940.57,1094.02 1941.63,1094.07 1942.69,1252.56 1943.74,1252.6 1944.8,1042.53 1945.86,1042.63 1946.92,1131.44 1947.97,1131.48 1949.03,1121.72 1950.09,1121.76 1951.14,943.533 1952.2,943.634 1953.26,895.182 1954.31,895.402 1955.37,1153.64 1956.43,1153.67 1957.48,1116.81 1958.54,1116.86 1959.6,1111.79 1960.65,1111.84 1961.71,1246.06 1962.77,1246.1 1963.83,1009.29 1964.88,1009.39 1965.94,964.789 1967,964.849 1968.05,1021.48 1969.11,1021.57 1970.17,1141.19 1971.22,1141.26 1972.28,1209.01 1973.34,1209.07 1974.39,1004.77 1975.45,1004.82 1976.51,1085.11 1977.56,1085.18 1978.62,924.867 1979.68,924.956 1980.74,1141.93 1981.79,1141.98 1982.85,1283.09 1983.91,1283.11 1984.96,1022.89 1986.02,1022.97 1987.08,967.471 1988.13,967.57 1989.19,862.11 1990.25,862.235 1991.3,1020.14 1992.36,1020.24 1993.42,670.429 1994.47,670.556 1995.53,1167.9 1996.59,1167.93 1997.65,950.306 1998.7,950.409 1999.76,909.269 2000.82,909.397 2001.87,1058.15 2002.93,1058.21 2003.99,990.975 2005.04,991.062 2006.1,511.26 2007.16,511.402 2008.21,1051.67 2009.27,1051.73 2010.33,1019.62 2011.38,1019.69 2012.44,978.381 2013.5,978.468 2014.56,886.66 2015.61,886.771 2016.67,1156.51 2017.73,1156.54 2018.78,1139.73 2019.84,1139.77 2020.9,1017.04 2021.95,1017.11 2023.01,938.885 2024.07,938.963 2025.12,791.294 2026.18,791.484 2027.24,1140.97 2028.29,1141.05 2029.35,994.131 2030.41,994.251 2031.47,1020.79 2032.52,1020.91 2033.58,759.099 2034.64,759.206 2035.69,1084.64 2036.75,1084.72 2037.81,892.698 2038.86,892.798 2039.92,1044.88 2040.98,1044.95 2042.03,852.35 2043.09,852.463 2044.15,1029.05 2045.2,1029.1 2046.26,1094.07 2047.32,1094.12 2048.38,871.899 2049.43,872.017 2050.49,954.166 2051.55,954.317 2052.6,875.409 2053.66,875.517 2054.72,1000.52 2055.77,1000.64 2056.83,1113.03 2057.89,1113.08 2058.94,1142.52 2060,1142.55 2061.06,1198.05 2062.11,1198.11 2063.17,1144.16 2064.23,1144.2 2065.29,1060.68 2066.34,1060.73 2067.4,1110.86 2068.46,1110.9 2069.51,1135.68 2070.57,1135.73 2071.63,1065.59 2072.68,1065.64 2073.74,1173.57 2074.8,1173.63 2075.85,1185.33 2076.91,1185.39 2077.97,1105.71 2079.02,1105.78 2080.08,1046.62 2081.14,1046.68 2082.2,1150.25 2083.25,1150.33 2084.31,1237.09 2085.37,1237.13 2086.42,1067.49 2087.48,1067.56 2088.54,958.522 2089.59,958.676 2090.65,1052.67 2091.71,1052.77 2092.76,1117.73 2093.82,1117.81 2094.88,1123.95 2095.93,1123.99 2096.99,853.457 2098.05,853.59 2099.11,1156.28 2100.16,1156.32 2101.22,1027.35 2102.28,1027.45 2103.33,1103.44 2104.39,1103.5 2105.45,1248.33 2106.5,1248.36 2107.56,905.224 2108.62,905.32 2109.67,1057.04 2110.73,1057.12 2111.79,1131.05 2112.84,1131.09 2113.9,1131.37 2114.96,1131.47 2116.02,1261.32 2117.07,1261.35 2118.13,1288.67 2119.19,1288.71 2120.24,961.396 2121.3,961.458 2122.36,1016.13 2123.41,1016.18 2124.47,915.392 2125.53,915.482 2126.58,1139.6 2127.64,1139.64 2128.7,1131.89 2129.75,1131.96 2130.81,1102.6 2131.87,1102.64 2132.93,1213.29 2133.98,1213.33 2135.04,1019.8 2136.1,1019.89 2137.15,921.238 2138.21,921.347 2139.27,718.58 2140.32,718.775 2141.38,1134.19 2142.44,1134.28 2143.49,1110.88 2144.55,1110.93 2145.61,978.594 2146.66,978.651 2147.72,1076.59 2148.78,1076.66 2149.84,986.378 2150.89,986.493 2151.95,827.636 2153.01,827.822 2154.06,1084.9 2155.12,1084.94 2156.18,956.672 2157.23,956.746 2158.29,1031.08 2159.35,1031.18 2160.4,1028.76 2161.46,1028.85 2162.52,853.376 2163.57,853.48 2164.63,1024.16 2165.69,1024.21 2166.75,1187.73 2167.8,1187.79 2168.86,1132.71 2169.92,1132.74 2170.97,1117.93 2172.03,1117.97 2173.09,1160.5 2174.14,1160.56 2175.2,1152.87 2176.26,1152.9 2177.31,1013.1 2178.37,1013.16 2179.43,1103.88 2180.48,1103.97 2181.54,1143.92 2182.6,1143.97 2183.66,936.842 2184.71,936.903 2185.77,1141.58 2186.83,1141.61 2187.88,1024.6 2188.94,1024.64 2190,1165.95 2191.05,1166 2192.11,886.386 2193.17,886.51 2194.22,1046.62 2195.28,1046.72 2196.34,1000.26 2197.4,1000.33 2198.45,1133.57 2199.51,1133.68 2200.57,962.432 2201.62,962.543 2202.68,1057.99 2203.74,1058.04 2204.79,839.068 2205.85,839.191 2206.91,833.275 2207.96,833.433 2209.02,905.77 2210.08,905.895 2211.13,1185.49 2212.19,1185.52 2213.25,1205.71 2214.31,1205.75 2215.36,1193 2216.42,1193.07 2217.48,1168.69 2218.53,1168.72 2219.59,819.043 2220.65,819.163 2221.7,1203.4 2222.76,1203.45 2223.82,1127.32 2224.87,1127.37 2225.93,1095.18 2226.99,1095.22 2228.04,1134.5 2229.1,1134.52 2230.16,891.196 2231.22,891.311 2232.27,1038.45 2233.33,1038.54 2234.39,967.619 2235.44,967.689 2236.5,1109.7 2237.56,1109.77 2238.61,1024.98 2239.67,1025.02 2240.73,1028.04 2241.78,1028.09 2242.84,990.34 2243.9,990.405 2244.95,1180.64 2246.01,1180.69 2247.07,1117.07 2248.13,1117.11 2249.18,989.45 2250.24,989.525 2251.3,1074.66 2252.35,1074.75 2253.41,1163.85 2254.47,1163.91 2255.52,1174.55 2256.58,1174.57 2257.64,1125.54 2258.69,1125.66 2259.75,1172.01 2260.81,1172.06 2261.86,1210.73 2262.92,1210.76 2263.98,1062.92 2265.04,1062.97 2266.09,842.572 2267.15,842.706 2268.21,1064.02 2269.26,1064.06 2270.32,1229.13 2271.38,1229.18 2272.43,1157.87 2273.49,1157.91 2274.55,610.653 2275.6,610.787 2276.66,1181.72 2277.72,1181.81 2278.77,845.454 2279.83,845.65 2280.89,736.189 2281.95,736.31 2283,981.007 2284.06,981.069 2285.12,1055.93 2286.17,1055.99 2287.23,961.674 2288.29,961.75 2289.34,961.826 "/>
<path clip-path="url(#clip450)" d="M2001.58 198.898 L2278.07 198.898 L2278.07 95.2176 L2001.58 95.2176  Z" fill="#ffffff" fill-rule="evenodd" fill-opacity="1"/>
<polyline clip-path="url(#clip450)" style="stroke:#000000; stroke-linecap:round; stroke-linejoin:round; stroke-width:4; stroke-opacity:1; fill:none" points="2001.58,198.898 2278.07,198.898 2278.07,95.2176 2001.58,95.2176 2001.58,198.898 "/>
<polyline clip-path="url(#clip450)" style="stroke:#009af9; stroke-linecap:round; stroke-linejoin:round; stroke-width:4; stroke-opacity:1; fill:none" points="2026.48,147.058 2175.85,147.058 "/>
<path clip-path="url(#clip450)" d="M2214.59 166.745 Q2212.78 171.375 2211.07 172.787 Q2209.36 174.199 2206.49 174.199 L2203.08 174.199 L2203.08 170.634 L2205.58 170.634 Q2207.34 170.634 2208.31 169.8 Q2209.29 168.967 2210.47 165.865 L2211.23 163.921 L2200.74 138.412 L2205.26 138.412 L2213.36 158.689 L2221.46 138.412 L2225.98 138.412 L2214.59 166.745 Z" fill="#000000" fill-rule="nonzero" fill-opacity="1" /><path clip-path="url(#clip450)" d="M2233.27 160.402 L2240.91 160.402 L2240.91 134.037 L2232.6 135.703 L2232.6 131.444 L2240.86 129.778 L2245.54 129.778 L2245.54 160.402 L2253.17 160.402 L2253.17 164.338 L2233.27 164.338 L2233.27 160.402 Z" fill="#000000" fill-rule="nonzero" fill-opacity="1" /></svg>
