<?xml version="1.0" encoding="utf-8"?>
<svg xmlns="http://www.w3.org/2000/svg" xmlns:xlink="http://www.w3.org/1999/xlink" width="600" height="400" viewBox="0 0 2400 1600">
<defs>
  <clipPath id="clip160">
    <rect x="0" y="0" width="2400" height="1600"/>
  </clipPath>
</defs>
<path clip-path="url(#clip160)" d="M0 1600 L2400 1600 L2400 0 L0 0  Z" fill="#ffffff" fill-rule="evenodd" fill-opacity="1"/>
<defs>
  <clipPath id="clip161">
    <rect x="480" y="0" width="1681" height="1600"/>
  </clipPath>
</defs>
<path clip-path="url(#clip160)" d="M178.867 1486.45 L2352.76 1486.45 L2352.76 47.2441 L178.867 47.2441  Z" fill="#ffffff" fill-rule="evenodd" fill-opacity="1"/>
<defs>
  <clipPath id="clip162">
    <rect x="178" y="47" width="2175" height="1440"/>
  </clipPath>
</defs>
<polyline clip-path="url(#clip162)" style="stroke:#000000; stroke-linecap:round; stroke-linejoin:round; stroke-width:2; stroke-opacity:0.1; fill:none" points="240.392,1486.45 240.392,47.2441 "/>
<polyline clip-path="url(#clip162)" style="stroke:#000000; stroke-linecap:round; stroke-linejoin:round; stroke-width:2; stroke-opacity:0.1; fill:none" points="753.358,1486.45 753.358,47.2441 "/>
<polyline clip-path="url(#clip162)" style="stroke:#000000; stroke-linecap:round; stroke-linejoin:round; stroke-width:2; stroke-opacity:0.1; fill:none" points="1266.32,1486.45 1266.32,47.2441 "/>
<polyline clip-path="url(#clip162)" style="stroke:#000000; stroke-linecap:round; stroke-linejoin:round; stroke-width:2; stroke-opacity:0.1; fill:none" points="1779.29,1486.45 1779.29,47.2441 "/>
<polyline clip-path="url(#clip162)" style="stroke:#000000; stroke-linecap:round; stroke-linejoin:round; stroke-width:2; stroke-opacity:0.1; fill:none" points="2292.26,1486.45 2292.26,47.2441 "/>
<polyline clip-path="url(#clip160)" style="stroke:#000000; stroke-linecap:round; stroke-linejoin:round; stroke-width:4; stroke-opacity:1; fill:none" points="178.867,1486.45 2352.76,1486.45 "/>
<polyline clip-path="url(#clip160)" style="stroke:#000000; stroke-linecap:round; stroke-linejoin:round; stroke-width:4; stroke-opacity:1; fill:none" points="240.392,1486.45 240.392,1467.55 "/>
<polyline clip-path="url(#clip160)" style="stroke:#000000; stroke-linecap:round; stroke-linejoin:round; stroke-width:4; stroke-opacity:1; fill:none" points="753.358,1486.45 753.358,1467.55 "/>
<polyline clip-path="url(#clip160)" style="stroke:#000000; stroke-linecap:round; stroke-linejoin:round; stroke-width:4; stroke-opacity:1; fill:none" points="1266.32,1486.45 1266.32,1467.55 "/>
<polyline clip-path="url(#clip160)" style="stroke:#000000; stroke-linecap:round; stroke-linejoin:round; stroke-width:4; stroke-opacity:1; fill:none" points="1779.29,1486.45 1779.29,1467.55 "/>
<polyline clip-path="url(#clip160)" style="stroke:#000000; stroke-linecap:round; stroke-linejoin:round; stroke-width:4; stroke-opacity:1; fill:none" points="2292.26,1486.45 2292.26,1467.55 "/>
<path clip-path="url(#clip160)" d="M240.392 1517.37 Q236.781 1517.37 234.952 1520.93 Q233.146 1524.47 233.146 1531.6 Q233.146 1538.71 234.952 1542.27 Q236.781 1545.82 240.392 1545.82 Q244.026 1545.82 245.832 1542.27 Q247.66 1538.71 247.66 1531.6 Q247.66 1524.47 245.832 1520.93 Q244.026 1517.37 240.392 1517.37 M240.392 1513.66 Q246.202 1513.66 249.257 1518.27 Q252.336 1522.85 252.336 1531.6 Q252.336 1540.33 249.257 1544.94 Q246.202 1549.52 240.392 1549.52 Q234.582 1549.52 231.503 1544.94 Q228.447 1540.33 228.447 1531.6 Q228.447 1522.85 231.503 1518.27 Q234.582 1513.66 240.392 1513.66 Z" fill="#000000" fill-rule="nonzero" fill-opacity="1" /><path clip-path="url(#clip160)" d="M712.976 1514.29 L731.333 1514.29 L731.333 1518.22 L717.259 1518.22 L717.259 1526.7 Q718.277 1526.35 719.296 1526.19 Q720.314 1526 721.333 1526 Q727.12 1526 730.499 1529.17 Q733.879 1532.34 733.879 1537.76 Q733.879 1543.34 730.407 1546.44 Q726.935 1549.52 720.615 1549.52 Q718.439 1549.52 716.171 1549.15 Q713.925 1548.78 711.518 1548.04 L711.518 1543.34 Q713.601 1544.47 715.823 1545.03 Q718.046 1545.58 720.523 1545.58 Q724.527 1545.58 726.865 1543.48 Q729.203 1541.37 729.203 1537.76 Q729.203 1534.15 726.865 1532.04 Q724.527 1529.94 720.523 1529.94 Q718.648 1529.94 716.773 1530.35 Q714.921 1530.77 712.976 1531.65 L712.976 1514.29 Z" fill="#000000" fill-rule="nonzero" fill-opacity="1" /><path clip-path="url(#clip160)" d="M753.092 1517.37 Q749.481 1517.37 747.652 1520.93 Q745.846 1524.47 745.846 1531.6 Q745.846 1538.71 747.652 1542.27 Q749.481 1545.82 753.092 1545.82 Q756.726 1545.82 758.532 1542.27 Q760.36 1538.71 760.36 1531.6 Q760.36 1524.47 758.532 1520.93 Q756.726 1517.37 753.092 1517.37 M753.092 1513.66 Q758.902 1513.66 761.958 1518.27 Q765.036 1522.85 765.036 1531.6 Q765.036 1540.33 761.958 1544.94 Q758.902 1549.52 753.092 1549.52 Q747.282 1549.52 744.203 1544.94 Q741.147 1540.33 741.147 1531.6 Q741.147 1522.85 744.203 1518.27 Q747.282 1513.66 753.092 1513.66 Z" fill="#000000" fill-rule="nonzero" fill-opacity="1" /><path clip-path="url(#clip160)" d="M783.254 1517.37 Q779.643 1517.37 777.814 1520.93 Q776.008 1524.47 776.008 1531.6 Q776.008 1538.71 777.814 1542.27 Q779.643 1545.82 783.254 1545.82 Q786.888 1545.82 788.693 1542.27 Q790.522 1538.71 790.522 1531.6 Q790.522 1524.47 788.693 1520.93 Q786.888 1517.37 783.254 1517.37 M783.254 1513.66 Q789.064 1513.66 792.119 1518.27 Q795.198 1522.85 795.198 1531.6 Q795.198 1540.33 792.119 1544.94 Q789.064 1549.52 783.254 1549.52 Q777.444 1549.52 774.365 1544.94 Q771.309 1540.33 771.309 1531.6 Q771.309 1522.85 774.365 1518.27 Q777.444 1513.66 783.254 1513.66 Z" fill="#000000" fill-rule="nonzero" fill-opacity="1" /><path clip-path="url(#clip160)" d="M1210.85 1544.91 L1218.49 1544.91 L1218.49 1518.55 L1210.18 1520.21 L1210.18 1515.95 L1218.44 1514.29 L1223.12 1514.29 L1223.12 1544.91 L1230.76 1544.91 L1230.76 1548.85 L1210.85 1548.85 L1210.85 1544.91 Z" fill="#000000" fill-rule="nonzero" fill-opacity="1" /><path clip-path="url(#clip160)" d="M1250.2 1517.37 Q1246.59 1517.37 1244.76 1520.93 Q1242.96 1524.47 1242.96 1531.6 Q1242.96 1538.71 1244.76 1542.27 Q1246.59 1545.82 1250.2 1545.82 Q1253.84 1545.82 1255.64 1542.27 Q1257.47 1538.71 1257.47 1531.6 Q1257.47 1524.47 1255.64 1520.93 Q1253.84 1517.37 1250.2 1517.37 M1250.2 1513.66 Q1256.01 1513.66 1259.07 1518.27 Q1262.15 1522.85 1262.15 1531.6 Q1262.15 1540.33 1259.07 1544.94 Q1256.01 1549.52 1250.2 1549.52 Q1244.39 1549.52 1241.31 1544.94 Q1238.26 1540.33 1238.26 1531.6 Q1238.26 1522.85 1241.31 1518.27 Q1244.39 1513.66 1250.2 1513.66 Z" fill="#000000" fill-rule="nonzero" fill-opacity="1" /><path clip-path="url(#clip160)" d="M1280.36 1517.37 Q1276.75 1517.37 1274.92 1520.93 Q1273.12 1524.47 1273.12 1531.6 Q1273.12 1538.71 1274.92 1542.27 Q1276.75 1545.82 1280.36 1545.82 Q1284 1545.82 1285.8 1542.27 Q1287.63 1538.71 1287.63 1531.6 Q1287.63 1524.47 1285.8 1520.93 Q1284 1517.37 1280.36 1517.37 M1280.36 1513.66 Q1286.17 1513.66 1289.23 1518.27 Q1292.31 1522.85 1292.31 1531.6 Q1292.31 1540.33 1289.23 1544.94 Q1286.17 1549.52 1280.36 1549.52 Q1274.55 1549.52 1271.47 1544.94 Q1268.42 1540.33 1268.42 1531.6 Q1268.42 1522.85 1271.47 1518.27 Q1274.55 1513.66 1280.36 1513.66 Z" fill="#000000" fill-rule="nonzero" fill-opacity="1" /><path clip-path="url(#clip160)" d="M1310.53 1517.37 Q1306.91 1517.37 1305.09 1520.93 Q1303.28 1524.47 1303.28 1531.6 Q1303.28 1538.71 1305.09 1542.27 Q1306.91 1545.82 1310.53 1545.82 Q1314.16 1545.82 1315.97 1542.27 Q1317.79 1538.71 1317.79 1531.6 Q1317.79 1524.47 1315.97 1520.93 Q1314.16 1517.37 1310.53 1517.37 M1310.53 1513.66 Q1316.34 1513.66 1319.39 1518.27 Q1322.47 1522.85 1322.47 1531.6 Q1322.47 1540.33 1319.39 1544.94 Q1316.34 1549.52 1310.53 1549.52 Q1304.72 1549.52 1301.64 1544.94 Q1298.58 1540.33 1298.58 1531.6 Q1298.58 1522.85 1301.64 1518.27 Q1304.72 1513.66 1310.53 1513.66 Z" fill="#000000" fill-rule="nonzero" fill-opacity="1" /><path clip-path="url(#clip160)" d="M1723.82 1544.91 L1731.46 1544.91 L1731.46 1518.55 L1723.14 1520.21 L1723.14 1515.95 L1731.41 1514.29 L1736.08 1514.29 L1736.08 1544.91 L1743.72 1544.91 L1743.72 1548.85 L1723.82 1548.85 L1723.82 1544.91 Z" fill="#000000" fill-rule="nonzero" fill-opacity="1" /><path clip-path="url(#clip160)" d="M1753.21 1514.29 L1771.57 1514.29 L1771.57 1518.22 L1757.5 1518.22 L1757.5 1526.7 Q1758.52 1526.35 1759.53 1526.19 Q1760.55 1526 1761.57 1526 Q1767.36 1526 1770.74 1529.17 Q1774.12 1532.34 1774.12 1537.76 Q1774.12 1543.34 1770.64 1546.44 Q1767.17 1549.52 1760.85 1549.52 Q1758.68 1549.52 1756.41 1549.15 Q1754.16 1548.78 1751.76 1548.04 L1751.76 1543.34 Q1753.84 1544.47 1756.06 1545.03 Q1758.28 1545.58 1760.76 1545.58 Q1764.77 1545.58 1767.1 1543.48 Q1769.44 1541.37 1769.44 1537.76 Q1769.44 1534.15 1767.1 1532.04 Q1764.77 1529.94 1760.76 1529.94 Q1758.89 1529.94 1757.01 1530.35 Q1755.16 1530.77 1753.21 1531.65 L1753.21 1514.29 Z" fill="#000000" fill-rule="nonzero" fill-opacity="1" /><path clip-path="url(#clip160)" d="M1793.33 1517.37 Q1789.72 1517.37 1787.89 1520.93 Q1786.08 1524.47 1786.08 1531.6 Q1786.08 1538.71 1787.89 1542.27 Q1789.72 1545.82 1793.33 1545.82 Q1796.96 1545.82 1798.77 1542.27 Q1800.6 1538.71 1800.6 1531.6 Q1800.6 1524.47 1798.77 1520.93 Q1796.96 1517.37 1793.33 1517.37 M1793.33 1513.66 Q1799.14 1513.66 1802.2 1518.27 Q1805.27 1522.85 1805.27 1531.6 Q1805.27 1540.33 1802.2 1544.94 Q1799.14 1549.52 1793.33 1549.52 Q1787.52 1549.52 1784.44 1544.94 Q1781.39 1540.33 1781.39 1531.6 Q1781.39 1522.85 1784.44 1518.27 Q1787.52 1513.66 1793.33 1513.66 Z" fill="#000000" fill-rule="nonzero" fill-opacity="1" /><path clip-path="url(#clip160)" d="M1823.49 1517.37 Q1819.88 1517.37 1818.05 1520.93 Q1816.25 1524.47 1816.25 1531.6 Q1816.25 1538.71 1818.05 1542.27 Q1819.88 1545.82 1823.49 1545.82 Q1827.13 1545.82 1828.93 1542.27 Q1830.76 1538.71 1830.76 1531.6 Q1830.76 1524.47 1828.93 1520.93 Q1827.13 1517.37 1823.49 1517.37 M1823.49 1513.66 Q1829.3 1513.66 1832.36 1518.27 Q1835.44 1522.85 1835.44 1531.6 Q1835.44 1540.33 1832.36 1544.94 Q1829.3 1549.52 1823.49 1549.52 Q1817.68 1549.52 1814.6 1544.94 Q1811.55 1540.33 1811.55 1531.6 Q1811.55 1522.85 1814.6 1518.27 Q1817.68 1513.66 1823.49 1513.66 Z" fill="#000000" fill-rule="nonzero" fill-opacity="1" /><path clip-path="url(#clip160)" d="M2240.87 1544.91 L2257.19 1544.91 L2257.19 1548.85 L2235.24 1548.85 L2235.24 1544.91 Q2237.91 1542.16 2242.49 1537.53 Q2247.09 1532.88 2248.28 1531.53 Q2250.52 1529.01 2251.4 1527.27 Q2252.3 1525.51 2252.3 1523.82 Q2252.3 1521.07 2250.36 1519.33 Q2248.44 1517.6 2245.34 1517.6 Q2243.14 1517.6 2240.68 1518.36 Q2238.25 1519.13 2235.47 1520.68 L2235.47 1515.95 Q2238.3 1514.82 2240.75 1514.24 Q2243.21 1513.66 2245.24 1513.66 Q2250.61 1513.66 2253.81 1516.35 Q2257 1519.03 2257 1523.52 Q2257 1525.65 2256.19 1527.57 Q2255.41 1529.47 2253.3 1532.07 Q2252.72 1532.74 2249.62 1535.95 Q2246.52 1539.15 2240.87 1544.91 Z" fill="#000000" fill-rule="nonzero" fill-opacity="1" /><path clip-path="url(#clip160)" d="M2277 1517.37 Q2273.39 1517.37 2271.56 1520.93 Q2269.76 1524.47 2269.76 1531.6 Q2269.76 1538.71 2271.56 1542.27 Q2273.39 1545.82 2277 1545.82 Q2280.64 1545.82 2282.44 1542.27 Q2284.27 1538.71 2284.27 1531.6 Q2284.27 1524.47 2282.44 1520.93 Q2280.64 1517.37 2277 1517.37 M2277 1513.66 Q2282.81 1513.66 2285.87 1518.27 Q2288.95 1522.85 2288.95 1531.6 Q2288.95 1540.33 2285.87 1544.94 Q2282.81 1549.52 2277 1549.52 Q2271.19 1549.52 2268.11 1544.94 Q2265.06 1540.33 2265.06 1531.6 Q2265.06 1522.85 2268.11 1518.27 Q2271.19 1513.66 2277 1513.66 Z" fill="#000000" fill-rule="nonzero" fill-opacity="1" /><path clip-path="url(#clip160)" d="M2307.16 1517.37 Q2303.55 1517.37 2301.72 1520.93 Q2299.92 1524.47 2299.92 1531.6 Q2299.92 1538.71 2301.72 1542.27 Q2303.55 1545.82 2307.16 1545.82 Q2310.8 1545.82 2312.6 1542.27 Q2314.43 1538.71 2314.43 1531.6 Q2314.43 1524.47 2312.6 1520.93 Q2310.8 1517.37 2307.16 1517.37 M2307.16 1513.66 Q2312.97 1513.66 2316.03 1518.27 Q2319.11 1522.85 2319.11 1531.6 Q2319.11 1540.33 2316.03 1544.94 Q2312.97 1549.52 2307.16 1549.52 Q2301.35 1549.52 2298.28 1544.94 Q2295.22 1540.33 2295.22 1531.6 Q2295.22 1522.85 2298.28 1518.27 Q2301.35 1513.66 2307.16 1513.66 Z" fill="#000000" fill-rule="nonzero" fill-opacity="1" /><path clip-path="url(#clip160)" d="M2337.33 1517.37 Q2333.71 1517.37 2331.89 1520.93 Q2330.08 1524.47 2330.08 1531.6 Q2330.08 1538.71 2331.89 1542.27 Q2333.71 1545.82 2337.33 1545.82 Q2340.96 1545.82 2342.77 1542.27 Q2344.59 1538.71 2344.59 1531.6 Q2344.59 1524.47 2342.77 1520.93 Q2340.96 1517.37 2337.33 1517.37 M2337.33 1513.66 Q2343.14 1513.66 2346.19 1518.27 Q2349.27 1522.85 2349.27 1531.6 Q2349.27 1540.33 2346.19 1544.94 Q2343.14 1549.52 2337.33 1549.52 Q2331.52 1549.52 2328.44 1544.94 Q2325.38 1540.33 2325.38 1531.6 Q2325.38 1522.85 2328.44 1518.27 Q2331.52 1513.66 2337.33 1513.66 Z" fill="#000000" fill-rule="nonzero" fill-opacity="1" /><polyline clip-path="url(#clip162)" style="stroke:#000000; stroke-linecap:round; stroke-linejoin:round; stroke-width:2; stroke-opacity:0.1; fill:none" points="178.867,1185.82 2352.76,1185.82 "/>
<polyline clip-path="url(#clip162)" style="stroke:#000000; stroke-linecap:round; stroke-linejoin:round; stroke-width:2; stroke-opacity:0.1; fill:none" points="178.867,879.309 2352.76,879.309 "/>
<polyline clip-path="url(#clip162)" style="stroke:#000000; stroke-linecap:round; stroke-linejoin:round; stroke-width:2; stroke-opacity:0.1; fill:none" points="178.867,572.797 2352.76,572.797 "/>
<polyline clip-path="url(#clip162)" style="stroke:#000000; stroke-linecap:round; stroke-linejoin:round; stroke-width:2; stroke-opacity:0.1; fill:none" points="178.867,266.285 2352.76,266.285 "/>
<polyline clip-path="url(#clip160)" style="stroke:#000000; stroke-linecap:round; stroke-linejoin:round; stroke-width:4; stroke-opacity:1; fill:none" points="178.867,1486.45 178.867,47.2441 "/>
<polyline clip-path="url(#clip160)" style="stroke:#000000; stroke-linecap:round; stroke-linejoin:round; stroke-width:4; stroke-opacity:1; fill:none" points="178.867,1185.82 197.764,1185.82 "/>
<polyline clip-path="url(#clip160)" style="stroke:#000000; stroke-linecap:round; stroke-linejoin:round; stroke-width:4; stroke-opacity:1; fill:none" points="178.867,879.309 197.764,879.309 "/>
<polyline clip-path="url(#clip160)" style="stroke:#000000; stroke-linecap:round; stroke-linejoin:round; stroke-width:4; stroke-opacity:1; fill:none" points="178.867,572.797 197.764,572.797 "/>
<polyline clip-path="url(#clip160)" style="stroke:#000000; stroke-linecap:round; stroke-linejoin:round; stroke-width:4; stroke-opacity:1; fill:none" points="178.867,266.285 197.764,266.285 "/>
<path clip-path="url(#clip160)" d="M50.9921 1186.27 L80.6679 1186.27 L80.6679 1190.21 L50.9921 1190.21 L50.9921 1186.27 Z" fill="#000000" fill-rule="nonzero" fill-opacity="1" /><path clip-path="url(#clip160)" d="M101.339 1183.96 Q98.1909 1183.96 96.3391 1186.11 Q94.5104 1188.26 94.5104 1192.01 Q94.5104 1195.74 96.3391 1197.92 Q98.1909 1200.07 101.339 1200.07 Q104.487 1200.07 106.316 1197.92 Q108.168 1195.74 108.168 1192.01 Q108.168 1188.26 106.316 1186.11 Q104.487 1183.96 101.339 1183.96 M110.621 1169.3 L110.621 1173.56 Q108.862 1172.73 107.057 1172.29 Q105.274 1171.85 103.515 1171.85 Q98.8854 1171.85 96.4317 1174.98 Q94.0012 1178.1 93.6539 1184.42 Q95.0197 1182.41 97.0798 1181.34 Q99.14 1180.25 101.617 1180.25 Q106.825 1180.25 109.834 1183.42 Q112.867 1186.57 112.867 1192.01 Q112.867 1197.34 109.719 1200.55 Q106.571 1203.77 101.339 1203.77 Q95.3437 1203.77 92.1725 1199.19 Q89.0012 1194.58 89.0012 1185.86 Q89.0012 1177.66 92.89 1172.8 Q96.7789 1167.92 103.33 1167.92 Q105.089 1167.92 106.871 1168.26 Q108.677 1168.61 110.621 1169.3 Z" fill="#000000" fill-rule="nonzero" fill-opacity="1" /><path clip-path="url(#clip160)" d="M130.922 1171.62 Q127.311 1171.62 125.482 1175.18 Q123.677 1178.73 123.677 1185.86 Q123.677 1192.96 125.482 1196.53 Q127.311 1200.07 130.922 1200.07 Q134.556 1200.07 136.362 1196.53 Q138.191 1192.96 138.191 1185.86 Q138.191 1178.73 136.362 1175.18 Q134.556 1171.62 130.922 1171.62 M130.922 1167.92 Q136.732 1167.92 139.788 1172.52 Q142.867 1177.11 142.867 1185.86 Q142.867 1194.58 139.788 1199.19 Q136.732 1203.77 130.922 1203.77 Q125.112 1203.77 122.033 1199.19 Q118.978 1194.58 118.978 1185.86 Q118.978 1177.11 122.033 1172.52 Q125.112 1167.92 130.922 1167.92 Z" fill="#000000" fill-rule="nonzero" fill-opacity="1" /><path clip-path="url(#clip160)" d="M50.9921 879.76 L80.6679 879.76 L80.6679 883.695 L50.9921 883.695 L50.9921 879.76 Z" fill="#000000" fill-rule="nonzero" fill-opacity="1" /><path clip-path="url(#clip160)" d="M90.8067 862.029 L109.163 862.029 L109.163 865.964 L95.0891 865.964 L95.0891 874.436 Q96.1076 874.089 97.1261 873.927 Q98.1447 873.742 99.1632 873.742 Q104.95 873.742 108.33 876.913 Q111.709 880.084 111.709 885.501 Q111.709 891.08 108.237 894.182 Q104.765 897.26 98.4456 897.26 Q96.2697 897.26 94.0012 896.89 Q91.7558 896.519 89.3484 895.779 L89.3484 891.08 Q91.4317 892.214 93.6539 892.769 Q95.8761 893.325 98.353 893.325 Q102.358 893.325 104.696 891.219 Q107.033 889.112 107.033 885.501 Q107.033 881.89 104.696 879.783 Q102.358 877.677 98.353 877.677 Q96.478 877.677 94.603 878.094 Q92.7512 878.51 90.8067 879.39 L90.8067 862.029 Z" fill="#000000" fill-rule="nonzero" fill-opacity="1" /><path clip-path="url(#clip160)" d="M130.922 865.108 Q127.311 865.108 125.482 868.672 Q123.677 872.214 123.677 879.344 Q123.677 886.45 125.482 890.015 Q127.311 893.557 130.922 893.557 Q134.556 893.557 136.362 890.015 Q138.191 886.45 138.191 879.344 Q138.191 872.214 136.362 868.672 Q134.556 865.108 130.922 865.108 M130.922 861.404 Q136.732 861.404 139.788 866.01 Q142.867 870.594 142.867 879.344 Q142.867 888.07 139.788 892.677 Q136.732 897.26 130.922 897.26 Q125.112 897.26 122.033 892.677 Q118.978 888.07 118.978 879.344 Q118.978 870.594 122.033 866.01 Q125.112 861.404 130.922 861.404 Z" fill="#000000" fill-rule="nonzero" fill-opacity="1" /><path clip-path="url(#clip160)" d="M50.9921 573.248 L80.6679 573.248 L80.6679 577.184 L50.9921 577.184 L50.9921 573.248 Z" fill="#000000" fill-rule="nonzero" fill-opacity="1" /><path clip-path="url(#clip160)" d="M103.608 559.591 L91.8021 578.04 L103.608 578.04 L103.608 559.591 M102.381 555.517 L108.26 555.517 L108.26 578.04 L113.191 578.04 L113.191 581.929 L108.26 581.929 L108.26 590.077 L103.608 590.077 L103.608 581.929 L88.0058 581.929 L88.0058 577.415 L102.381 555.517 Z" fill="#000000" fill-rule="nonzero" fill-opacity="1" /><path clip-path="url(#clip160)" d="M130.922 558.596 Q127.311 558.596 125.482 562.16 Q123.677 565.702 123.677 572.832 Q123.677 579.938 125.482 583.503 Q127.311 587.045 130.922 587.045 Q134.556 587.045 136.362 583.503 Q138.191 579.938 138.191 572.832 Q138.191 565.702 136.362 562.16 Q134.556 558.596 130.922 558.596 M130.922 554.892 Q136.732 554.892 139.788 559.498 Q142.867 564.082 142.867 572.832 Q142.867 581.559 139.788 586.165 Q136.732 590.748 130.922 590.748 Q125.112 590.748 122.033 586.165 Q118.978 581.559 118.978 572.832 Q118.978 564.082 122.033 559.498 Q125.112 554.892 130.922 554.892 Z" fill="#000000" fill-rule="nonzero" fill-opacity="1" /><path clip-path="url(#clip160)" d="M50.9921 266.737 L80.6679 266.737 L80.6679 270.672 L50.9921 270.672 L50.9921 266.737 Z" fill="#000000" fill-rule="nonzero" fill-opacity="1" /><path clip-path="url(#clip160)" d="M104.927 264.931 Q108.283 265.649 110.158 267.917 Q112.057 270.186 112.057 273.519 Q112.057 278.635 108.538 281.436 Q105.02 284.236 98.5382 284.236 Q96.3623 284.236 94.0475 283.797 Q91.7558 283.38 89.3021 282.523 L89.3021 278.01 Q91.2465 279.144 93.5613 279.723 Q95.8761 280.301 98.3993 280.301 Q102.797 280.301 105.089 278.565 Q107.404 276.829 107.404 273.519 Q107.404 270.463 105.251 268.75 Q103.121 267.014 99.3021 267.014 L95.2743 267.014 L95.2743 263.172 L99.4872 263.172 Q102.936 263.172 104.765 261.806 Q106.594 260.417 106.594 257.825 Q106.594 255.162 104.696 253.75 Q102.821 252.315 99.3021 252.315 Q97.3808 252.315 95.1817 252.732 Q92.9826 253.149 90.3438 254.028 L90.3438 249.862 Q93.0058 249.121 95.3206 248.75 Q97.6585 248.38 99.7187 248.38 Q105.043 248.38 108.145 250.811 Q111.246 253.218 111.246 257.338 Q111.246 260.209 109.603 262.199 Q107.959 264.167 104.927 264.931 Z" fill="#000000" fill-rule="nonzero" fill-opacity="1" /><path clip-path="url(#clip160)" d="M130.922 252.084 Q127.311 252.084 125.482 255.649 Q123.677 259.19 123.677 266.32 Q123.677 273.426 125.482 276.991 Q127.311 280.533 130.922 280.533 Q134.556 280.533 136.362 276.991 Q138.191 273.426 138.191 266.32 Q138.191 259.19 136.362 255.649 Q134.556 252.084 130.922 252.084 M130.922 248.38 Q136.732 248.38 139.788 252.987 Q142.867 257.57 142.867 266.32 Q142.867 275.047 139.788 279.653 Q136.732 284.236 130.922 284.236 Q125.112 284.236 122.033 279.653 Q118.978 275.047 118.978 266.32 Q118.978 257.57 122.033 252.987 Q125.112 248.38 130.922 248.38 Z" fill="#000000" fill-rule="nonzero" fill-opacity="1" /><polyline clip-path="url(#clip162)" style="stroke:#009af9; stroke-linecap:round; stroke-linejoin:round; stroke-width:4; stroke-opacity:1; fill:none" points="240.392,536.513 241.418,536.055 242.444,980.995 243.47,979.551 244.496,217.427 245.521,217.183 246.547,217.861 247.573,217.519 248.599,218.066 249.625,217.501 250.651,237.484 251.677,237.113 252.703,617.895 253.729,617.216 254.755,596.09 255.781,595.812 256.807,633.804 257.833,632.971 258.859,511.085 259.885,510.591 260.91,464.667 261.936,464.294 262.962,236.879 263.988,236.651 265.014,778.19 266.04,777.475 267.066,88.3048 268.092,87.9763 269.118,362.063 270.144,361.839 271.17,629.795 272.196,629.219 273.222,775.08 274.248,774.524 275.274,470.199 276.299,469.741 277.325,459.431 278.351,458.88 279.377,714.821 280.403,714.554 281.429,437.573 282.455,437.299 283.481,217.658 284.507,217.075 285.533,385.4 286.559,384.933 287.585,358.906 288.611,358.48 289.637,483.098 290.662,482.593 291.688,229.273 292.714,229.018 293.74,745.992 294.766,745.262 295.792,189.544 296.818,189.186 297.844,206.932 298.87,206.606 299.896,890.584 300.922,889.647 301.948,296.568 302.974,295.888 304,617.71 305.026,617.259 306.051,569.708 307.077,569.163 308.103,350.23 309.129,349.939 310.155,610.218 311.181,609.651 312.207,403.797 313.233,403.426 314.259,723.807 315.285,723.478 316.311,372.567 317.337,372.408 318.363,224.436 319.389,224.182 320.415,671.628 321.44,670.94 322.466,670.123 323.492,669.402 324.518,590.266 325.544,589.572 326.57,713.82 327.596,713.47 328.622,501.011 329.648,500.501 330.674,499.668 331.7,499.361 332.726,551.189 333.752,550.954 334.778,656.754 335.804,656.222 336.829,578.239 337.855,577.702 338.881,1415.8 339.907,1414.09 340.933,216.294 341.959,215.682 342.985,665.244 344.011,664.683 345.037,495.495 346.063,495.1 347.089,415.528 348.115,415.221 349.141,616.497 350.167,616.028 351.193,379.033 352.218,378.746 353.244,726.218 354.27,725.895 355.296,902.823 356.322,902.525 357.348,409.227 358.374,408.802 359.4,711.103 360.426,710.615 361.452,720.631 362.478,719.984 363.504,476.205 364.53,475.88 365.556,665.983 366.581,665.418 367.607,350.773 368.633,350.232 369.659,439.483 370.685,439.066 371.711,406.964 372.737,406.635 373.763,629.546 374.789,628.94 375.815,538.804 376.841,538.396 377.867,1025.09 378.893,1023.7 379.919,485.461 380.945,485.241 381.97,669.303 382.996,668.818 384.022,660.734 385.048,660.361 386.074,612.829 387.1,612.42 388.126,250.738 389.152,250.23 390.178,336.813 391.204,336.513 392.23,554.356 393.256,553.896 394.282,597.721 395.308,597.304 396.334,590.341 397.359,590 398.385,596.317 399.411,595.904 400.437,573.203 401.463,572.647 402.489,218.643 403.515,217.986 404.541,628.725 405.567,628.308 406.593,608.933 407.619,608.256 408.645,537.762 409.671,537.336 410.697,741.051 411.723,740.694 412.748,341.888 413.774,341.41 414.8,850.045 415.826,849.732 416.852,699.861 417.878,699.278 418.904,610.639 419.93,610.203 420.956,353.708 421.982,353.341 423.008,869.905 424.034,869.303 425.06,255.083 426.086,254.683 427.112,465.857 428.137,465.461 429.163,1055.29 430.189,1054.52 431.215,841.045 432.241,840.719 433.267,575.358 434.293,574.921 435.319,329.533 436.345,329.228 437.371,521.915 438.397,521.527 439.423,693.524 440.449,692.772 441.475,550.039 442.5,549.624 443.526,579.776 444.552,579.084 445.578,746.164 446.604,745.865 447.63,731.705 448.656,731.031 449.682,321.365 450.708,320.911 451.734,643.448 452.76,643.059 453.786,878.001 454.812,877.67 455.838,641.956 456.864,641.267 457.889,793.443 458.915,792.829 459.941,571.647 460.967,571.204 461.993,954.212 463.019,953.793 464.045,741.11 465.071,740.471 466.097,406.337 467.123,405.433 468.149,582.37 469.175,581.899 470.201,266.826 471.227,266.471 472.253,1272.46 473.278,1270.42 474.304,549.798 475.33,549.373 476.356,301.634 477.382,301.348 478.408,581.245 479.434,580.503 480.46,877.598 481.486,877.033 482.512,784.617 483.538,783.872 484.564,395.427 485.59,395.113 486.616,570.284 487.642,569.852 488.667,914.621 489.693,913.577 490.719,998.687 491.745,997.144 492.771,461.023 493.797,460.234 494.823,938.685 495.849,938.336 496.875,680.44 497.901,680.203 498.927,702.975 499.953,702.523 500.979,487.203 502.005,486.869 503.031,756.186 504.056,755.648 505.082,891.306 506.108,890.94 507.134,626.943 508.16,626.547 509.186,508.097 510.212,507.599 511.238,250.192 512.264,249.614 513.29,412.101 514.316,411.622 515.342,367.839 516.368,367.581 517.394,855.112 518.419,854.589 519.445,626.45 520.471,625.889 521.497,556.321 522.523,555.517 523.549,530.201 524.575,529.865 525.601,837.056 526.627,836.613 527.653,811.233 528.679,810.918 529.705,910.137 530.731,909.897 531.757,583.839 532.783,583.559 533.808,781.574 534.834,781.104 535.86,769.41 536.886,769.215 537.912,410.109 538.938,409.819 539.964,549.164 540.99,548.708 542.016,456.536 543.042,456.101 544.068,825.982 545.094,825.257 546.12,570.354 547.146,569.99 548.172,737.057 549.197,736.789 550.223,988.891 551.249,988.255 552.275,1003.3 553.301,1002.05 554.327,799.398 555.353,798.906 556.379,779.536 557.405,779.194 558.431,975.666 559.457,974.707 560.483,690.944 561.509,690.65 562.535,815.306 563.561,815.044 564.586,270.831 565.612,270.524 566.638,407.792 567.664,407.278 568.69,687.737 569.716,687.518 570.742,703.259 571.768,702.81 572.794,811.778 573.82,811.233 574.846,770.021 575.872,769.226 576.898,697.308 577.924,696.901 578.95,1008.65 579.975,1007.61 581.001,720.053 582.027,719.667 583.053,783.47 584.079,782.966 585.105,961.853 586.131,960.955 587.157,733.289 588.183,732.751 589.209,988.698 590.235,988.127 591.261,244.583 592.287,244.325 593.313,933.234 594.338,932.467 595.364,681.366 596.39,681.081 597.416,944.084 598.442,942.806 599.468,862.706 600.494,862.35 601.52,825.227 602.546,824.938 603.572,596.547 604.598,596.17 605.624,456.213 606.65,455.915 607.676,786.486 608.702,786.198 609.727,591.66 610.753,590.9 611.779,887.739 612.805,887.391 613.831,926.438 614.857,925.8 615.883,660.63 616.909,660.057 617.935,664.973 618.961,664.516 619.987,348.578 621.013,347.933 622.039,661.149 623.065,660.804 624.091,393.565 625.116,393.287 626.142,782.463 627.168,781.872 628.194,806.323 629.22,805.795 630.246,818.834 631.272,818.352 632.298,743.8 633.324,743.568 634.35,801.299 635.376,800.641 636.402,522.382 637.428,521.713 638.454,912.03 639.48,911.729 640.505,566.311 641.531,565.765 642.557,638.955 643.583,638.487 644.609,790.294 645.635,789.988 646.661,878.342 647.687,878.111 648.713,701.03 649.739,700.65 650.765,604.427 651.791,604.115 652.817,644.35 653.843,644.161 654.869,973.746 655.894,973.194 656.92,931.794 657.946,930.873 658.972,895.504 659.998,894.866 661.024,952.688 662.05,952.333 663.076,881.863 664.102,881.294 665.128,733.884 666.154,733.219 667.18,632.114 668.206,631.727 669.232,697.06 670.257,696.706 671.283,718.42 672.309,718.18 673.335,580.605 674.361,580.147 675.387,776.273 676.413,775.646 677.439,705.538 678.465,705.054 679.491,898.25 680.517,897.926 681.543,816.979 682.569,816.624 683.595,765.949 684.621,765.369 685.646,662.272 686.672,661.706 687.698,673.133 688.724,672.645 689.75,589.779 690.776,589.133 691.802,950.519 692.828,950.125 693.854,503.918 694.88,503.567 695.906,679.342 696.932,679.004 697.958,932.481 698.984,931.461 700.01,845.391 701.035,845.105 702.061,889.195 703.087,888.483 704.113,1066.49 705.139,1065.96 706.165,598.47 707.191,598.185 708.217,936.401 709.243,935.925 710.269,909.584 711.295,909.248 712.321,671.932 713.347,671.48 714.373,785.64 715.399,785.124 716.424,1027.87 717.45,1027.51 718.476,776.004 719.502,775.428 720.528,729.867 721.554,729.538 722.58,701.663 723.606,701.211 724.632,750.63 725.658,750.125 726.684,682.632 727.71,682.097 728.736,942.03 729.762,941.511 730.788,913.629 731.813,913.074 732.839,741.124 733.865,740.726 734.891,683.812 735.917,683.463 736.943,969.135 737.969,968.767 738.995,862.683 740.021,862.15 741.047,848.612 742.073,848.159 743.099,993.632 744.125,993.226 745.151,841.201 746.176,840.751 747.202,588.942 748.228,588.462 749.254,577.372 750.28,577.026 751.306,610.473 752.332,610.042 753.358,698.653 754.384,698.068 755.41,667.366 756.436,666.913 757.462,1030.3 758.488,1029.74 759.514,811.624 760.54,811.111 761.565,828.941 762.591,828.76 763.617,768.513 764.643,768.292 765.669,980.918 766.695,980.311 767.721,487.893 768.747,487.397 769.773,625.79 770.799,625.358 771.825,582.721 772.851,582.307 773.877,640.083 774.903,639.702 775.929,750.549 776.954,750.155 777.98,631.437 779.006,631.154 780.032,705.962 781.058,705.597 782.084,742.603 783.11,742.252 784.136,884.847 785.162,884.609 786.188,1040.83 787.214,1040.14 788.24,663.162 789.266,662.862 790.292,798.875 791.318,798.257 792.343,640.484 793.369,639.978 794.395,906.644 795.421,906.471 796.447,509.131 797.473,508.492 798.499,483.371 799.525,483.145 800.551,887.678 801.577,887.248 802.603,814.962 803.629,814.598 804.655,727.455 805.681,727.26 806.707,777.371 807.732,777.119 808.758,575.536 809.784,575.141 810.81,978.797 811.836,978.538 812.862,721.078 813.888,720.621 814.914,1213.48 815.94,1212.61 816.966,985.689 817.992,984.825 819.018,758.28 820.044,757.949 821.07,622.385 822.095,622.116 823.121,699.154 824.147,698.832 825.173,912.517 826.199,912.056 827.225,1024.41 828.251,1024 829.277,912.161 830.303,911.973 831.329,930.917 832.355,930.504 833.381,915.81 834.407,915.266 835.433,690.318 836.459,689.919 837.484,619.074 838.51,618.809 839.536,767.531 840.562,767.108 841.588,922.918 842.614,922.681 843.64,733.156 844.666,732.844 845.692,636.352 846.718,636.019 847.744,815.809 848.77,815.596 849.796,525.466 850.822,525.163 851.848,1001.93 852.873,1001.63 853.899,917.563 854.925,917.171 855.951,783.814 856.977,783.324 858.003,436.859 859.029,436.534 860.055,859.527 861.081,859.199 862.107,750.763 863.133,750.368 864.159,874.91 865.185,874.592 866.211,579.053 867.237,578.724 868.262,664.756 869.288,664.463 870.314,664.953 871.34,664.534 872.366,674.363 873.392,673.736 874.418,555.195 875.444,554.966 876.47,1057.63 877.496,1056.99 878.522,900.232 879.548,899.741 880.574,998.4 881.6,997.987 882.626,715.403 883.651,715.195 884.677,1023 885.703,1022.68 886.729,1018.9 887.755,1018.43 888.781,1102.37 889.807,1101.63 890.833,899.388 891.859,898.795 892.885,1121.52 893.911,1121.2 894.937,658.686 895.963,658.31 896.989,661.069 898.014,660.861 899.04,823.39 900.066,822.669 901.092,639.55 902.118,639.279 903.144,598.031 904.17,597.66 905.196,648.479 906.222,647.992 907.248,719.541 908.274,719.228 909.3,578.756 910.326,578.525 911.352,739.658 912.378,739.142 913.403,835.624 914.429,835.389 915.455,715.405 916.481,715.171 917.507,1241.97 918.533,1241.6 919.559,762.217 920.585,761.798 921.611,851.721 922.637,851.386 923.663,999.819 924.689,999.054 925.715,982.02 926.741,981.54 927.767,1034.79 928.792,1034.28 929.818,1111.48 930.844,1110.95 931.87,630.905 932.896,630.305 933.922,596.987 934.948,596.683 935.974,756.835 937,756.241 938.026,1074.53 939.052,1074.34 940.078,738.13 941.104,737.846 942.13,1008.71 943.156,1008.33 944.181,924.886 945.207,924.496 946.233,649.237 947.259,648.882 948.285,737.518 949.311,737.169 950.337,897.691 951.363,897.287 952.389,1120.95 953.415,1120.69 954.441,542.411 955.467,542.146 956.493,735.342 957.519,735.147 958.545,925.672 959.57,925.275 960.596,891.388 961.622,890.957 962.648,949.982 963.674,949.278 964.7,1160.49 965.726,1158.62 966.752,926.192 967.778,925.866 968.804,1038.51 969.83,1038.24 970.856,1044.56 971.882,1044.08 972.908,866.549 973.933,866.141 974.959,811.939 975.985,811.508 977.011,700.969 978.037,700.669 979.063,934.825 980.089,934.659 981.115,1173.21 982.141,1172.41 983.167,1119.03 984.193,1118.57 985.219,862.034 986.245,861.658 987.271,813.411 988.297,813.069 989.322,1169.5 990.348,1169.08 991.374,916.029 992.4,915.608 993.426,734.026 994.452,733.505 995.478,940.461 996.504,939.96 997.53,980.617 998.556,980.329 999.582,673.982 1000.61,673.712 1001.63,1235.93 1002.66,1235.69 1003.69,857.715 1004.71,857.337 1005.74,938.923 1006.76,938.525 1007.79,1078.04 1008.82,1077.36 1009.84,873.705 1010.87,873.306 1011.89,803.744 1012.92,803.386 1013.94,758.704 1014.97,758.201 1016,728.702 1017.02,728.322 1018.05,490.966 1019.07,490.681 1020.1,827.755 1021.13,827.442 1022.15,1045.15 1023.18,1044.76 1024.2,725.363 1025.23,724.937 1026.26,1017.26 1027.28,1016.8 1028.31,1023.02 1029.33,1022.77 1030.36,747.793 1031.39,747.53 1032.41,926.745 1033.44,926.2 1034.46,854.879 1035.49,854.442 1036.52,865.588 1037.54,865.255 1038.57,1094.46 1039.59,1094.05 1040.62,1200.09 1041.65,1199.78 1042.67,913.174 1043.7,912.905 1044.72,1153.64 1045.75,1153.38 1046.77,852.151 1047.8,851.843 1048.83,965.826 1049.85,965.639 1050.88,1093.16 1051.9,1092.76 1052.93,966.832 1053.96,966.613 1054.98,870.755 1056.01,870.418 1057.03,954.82 1058.06,954.486 1059.09,858.19 1060.11,857.52 1061.14,926.702 1062.16,926.32 1063.19,1166.43 1064.22,1166.03 1065.24,840.397 1066.27,839.999 1067.29,965.868 1068.32,965.236 1069.35,847.769 1070.37,847.364 1071.4,630.002 1072.42,629.767 1073.45,864.778 1074.47,864.457 1075.5,745.391 1076.53,745.051 1077.55,891.455 1078.58,891.132 1079.6,989.325 1080.63,988.819 1081.66,830.69 1082.68,830.518 1083.71,912.314 1084.73,912.108 1085.76,983.603 1086.79,983.307 1087.81,774.753 1088.84,774.305 1089.86,1039.6 1090.89,1039.4 1091.92,870.916 1092.94,870.727 1093.97,1075.36 1094.99,1075.04 1096.02,970.903 1097.05,970.44 1098.07,828.275 1099.1,827.928 1100.12,899.601 1101.15,899.115 1102.18,945.844 1103.2,945.449 1104.23,884.386 1105.25,884.138 1106.28,948.997 1107.3,948.468 1108.33,1025.03 1109.36,1024.64 1110.38,878.773 1111.41,878.394 1112.43,793.764 1113.46,793.39 1114.49,989.605 1115.51,989.261 1116.54,665.146 1117.56,664.689 1118.59,824.622 1119.62,824.024 1120.64,854.178 1121.67,853.802 1122.69,1057.95 1123.72,1057.72 1124.75,966.582 1125.77,966.23 1126.8,1116.92 1127.82,1116.51 1128.85,1039.15 1129.88,1038.77 1130.9,915.935 1131.93,915.224 1132.95,1100.55 1133.98,1100.28 1135,1055.42 1136.03,1055 1137.06,957.675 1138.08,957.325 1139.11,514.572 1140.13,513.93 1141.16,1079.82 1142.19,1079.34 1143.21,764.028 1144.24,763.741 1145.26,1015.07 1146.29,1014.48 1147.32,1018.76 1148.34,1018.47 1149.37,957.618 1150.39,957.462 1151.42,970.561 1152.45,970.168 1153.47,833.595 1154.5,833.296 1155.52,768.589 1156.55,768.346 1157.58,1114.52 1158.6,1114.35 1159.63,1323.32 1160.65,1323 1161.68,825.221 1162.71,824.6 1163.73,833.974 1164.76,833.634 1165.78,999.033 1166.81,998.695 1167.83,1118.85 1168.86,1118.69 1169.89,929.113 1170.91,928.739 1171.94,1118.76 1172.96,1118.29 1173.99,725.975 1175.02,725.709 1176.04,666.356 1177.07,666.149 1178.09,916.192 1179.12,915.784 1180.15,746.151 1181.17,745.753 1182.2,999.076 1183.22,998.747 1184.25,1018.25 1185.28,1017.42 1186.3,1079.52 1187.33,1079.25 1188.35,1118.22 1189.38,1117.95 1190.41,919.331 1191.43,919.046 1192.46,741.567 1193.48,740.974 1194.51,939.134 1195.53,938.557 1196.56,1242.77 1197.59,1242.5 1198.61,896.997 1199.64,896.72 1200.66,812.59 1201.69,812.447 1202.72,955.735 1203.74,955.556 1204.77,905.868 1205.79,905.463 1206.82,1080.79 1207.85,1079.94 1208.87,1131.03 1209.9,1130.64 1210.92,848.945 1211.95,848.69 1212.98,586.744 1214,586.473 1215.03,988.675 1216.05,988.345 1217.08,1182.25 1218.11,1182.09 1219.13,977.713 1220.16,977.223 1221.18,931.792 1222.21,931.096 1223.24,946.558 1224.26,945.996 1225.29,1091.67 1226.31,1091.38 1227.34,816.15 1228.36,815.628 1229.39,842.108 1230.42,841.687 1231.44,673.385 1232.47,673.129 1233.49,1142.32 1234.52,1142.08 1235.55,1023.42 1236.57,1023.07 1237.6,989.625 1238.62,989.35 1239.65,765.745 1240.68,765.492 1241.7,976.096 1242.73,975.951 1243.75,1296.83 1244.78,1296.57 1245.81,700.73 1246.83,700.465 1247.86,1154.71 1248.88,1154.34 1249.91,1445.72 1250.94,1445.42 1251.96,917.264 1252.99,916.8 1254.01,842.698 1255.04,842.421 1256.06,974.849 1257.09,974.526 1258.12,780.144 1259.14,779.693 1260.17,1003.18 1261.19,1003.03 1262.22,1093.3 1263.25,1093.06 1264.27,748.225 1265.3,747.778 1266.32,741.417 1267.35,740.932 1268.38,1129.02 1269.4,1128.65 1270.43,924.095 1271.45,923.695 1272.48,986.606 1273.51,986.311 1274.53,1092.57 1275.56,1092.44 1276.58,698.942 1277.61,698.552 1278.64,905.194 1279.66,905.03 1280.69,1082.21 1281.71,1081.73 1282.74,1101.45 1283.77,1100.87 1284.79,964.963 1285.82,964.847 1286.84,1172.99 1287.87,1172.81 1288.89,901.267 1289.92,900.873 1290.95,828.472 1291.97,828.033 1293,1246.03 1294.02,1245.81 1295.05,905.974 1296.08,905.697 1297.1,1054.77 1298.13,1054.33 1299.15,1064.81 1300.18,1064.36 1301.21,1004.88 1302.23,1004.54 1303.26,1166.91 1304.28,1166.78 1305.31,944.985 1306.34,944.62 1307.36,1050.51 1308.39,1050.31 1309.41,1142.17 1310.44,1141.95 1311.47,908.675 1312.49,908.528 1313.52,1020.12 1314.54,1019.75 1315.57,974.04 1316.59,973.243 1317.62,786.63 1318.65,786.344 1319.67,670.512 1320.7,670.3 1321.72,1111.72 1322.75,1111.25 1323.78,1002.81 1324.8,1002.5 1325.83,1009.63 1326.85,1009.29 1327.88,895.635 1328.91,895.383 1329.93,1230.42 1330.96,1230.22 1331.98,976.854 1333.01,976.713 1334.04,1209.8 1335.06,1208.88 1336.09,875.174 1337.11,874.982 1338.14,1035.36 1339.17,1035.03 1340.19,905.384 1341.22,905.154 1342.24,768.624 1343.27,768.399 1344.3,1026.3 1345.32,1026.15 1346.35,926.3 1347.37,926.023 1348.4,1044.71 1349.42,1043.92 1350.45,932.681 1351.48,932.408 1352.5,1184.73 1353.53,1184.28 1354.55,904.264 1355.58,903.92 1356.61,748.561 1357.63,748.291 1358.66,916.857 1359.68,916.52 1360.71,1114.61 1361.74,1114.12 1362.76,998.69 1363.79,998.396 1364.81,1143.13 1365.84,1142.99 1366.87,1077.38 1367.89,1077.17 1368.92,976.685 1369.94,976.24 1370.97,861.429 1372,861.161 1373.02,840.313 1374.05,839.939 1375.07,1041.84 1376.1,1041.37 1377.12,1076.51 1378.15,1075.92 1379.18,827.272 1380.2,827.061 1381.23,790.575 1382.25,790.301 1383.28,1004.33 1384.31,1003.7 1385.33,1351.38 1386.36,1350.66 1387.38,849.269 1388.41,848.857 1389.44,775.472 1390.46,775.32 1391.49,1089.31 1392.51,1088.66 1393.54,1085.01 1394.57,1084.86 1395.59,1048.26 1396.62,1048.1 1397.64,886.888 1398.67,886.51 1399.7,848.619 1400.72,848.316 1401.75,845.866 1402.77,845.414 1403.8,743.401 1404.83,743.129 1405.85,873.463 1406.88,873.241 1407.9,983.195 1408.93,982.957 1409.95,952.678 1410.98,952.253 1412.01,937.76 1413.03,937.31 1414.06,787.247 1415.08,786.969 1416.11,1024.03 1417.14,1023.89 1418.16,689.028 1419.19,688.745 1420.21,1170.84 1421.24,1170.49 1422.27,895.249 1423.29,895.027 1424.32,1043.67 1425.34,1043.34 1426.37,1093.17 1427.4,1093.03 1428.42,1067.85 1429.45,1067.63 1430.47,862.788 1431.5,862.439 1432.53,718.256 1433.55,718.048 1434.58,1115.16 1435.6,1114.96 1436.63,919.11 1437.65,918.717 1438.68,729.338 1439.71,729.076 1440.73,929.724 1441.76,929.401 1442.78,964.4 1443.81,963.794 1444.84,980.96 1445.86,980.821 1446.89,968.437 1447.91,968.17 1448.94,929.294 1449.97,929.157 1450.99,963.92 1452.02,963.716 1453.04,843.422 1454.07,843.262 1455.1,845.22 1456.12,844.391 1457.15,796.445 1458.17,796.185 1459.2,1044.58 1460.23,1044.17 1461.25,1166.33 1462.28,1166.05 1463.3,938.456 1464.33,938.165 1465.36,1142.14 1466.38,1141.87 1467.41,1029.07 1468.43,1028.82 1469.46,961.584 1470.48,961.179 1471.51,1177.72 1472.54,1177.44 1473.56,1069.12 1474.59,1068.67 1475.61,1009.45 1476.64,1008.93 1477.67,1101.78 1478.69,1101.48 1479.72,950.646 1480.74,950.187 1481.77,1138.1 1482.8,1137.9 1483.82,998.475 1484.85,998.346 1485.87,840.521 1486.9,840.25 1487.93,1097.76 1488.95,1097.66 1489.98,986.683 1491,986.352 1492.03,822.784 1493.06,822.555 1494.08,1003.06 1495.11,1002.64 1496.13,1115.84 1497.16,1115.72 1498.18,1112.83 1499.21,1112.32 1500.24,1090.52 1501.26,1090.15 1502.29,1059.07 1503.31,1058.8 1504.34,1009.71 1505.37,1009.54 1506.39,1116.67 1507.42,1116.51 1508.44,925.017 1509.47,924.692 1510.5,1131.22 1511.52,1131.05 1512.55,965.26 1513.57,964.65 1514.6,945.254 1515.63,944.985 1516.65,1142.58 1517.68,1142.26 1518.7,902.599 1519.73,902.336 1520.76,909.802 1521.78,909.557 1522.81,806.266 1523.83,805.758 1524.86,1081.4 1525.89,1081.05 1526.91,957.191 1527.94,956.873 1528.96,1345.55 1529.99,1345.26 1531.01,1175.38 1532.04,1175.11 1533.07,889.039 1534.09,888.788 1535.12,988.76 1536.14,988.6 1537.17,1176.93 1538.2,1176.54 1539.22,1001.59 1540.25,1001.35 1541.27,1136.86 1542.3,1136.52 1543.33,1127.41 1544.35,1127.1 1545.38,876.066 1546.4,875.652 1547.43,750.258 1548.46,750.001 1549.48,1165.95 1550.51,1165.65 1551.53,922.916 1552.56,922.515 1553.59,1022.37 1554.61,1022.26 1555.64,965.249 1556.66,964.845 1557.69,1131.57 1558.71,1131.01 1559.74,1192.37 1560.77,1192.13 1561.79,978.468 1562.82,977.99 1563.84,979.929 1564.87,979.614 1565.9,1118.89 1566.92,1118.62 1567.95,878.81 1568.97,878.484 1570,1056.65 1571.03,1056.2 1572.05,960.492 1573.08,960.148 1574.1,823.907 1575.13,823.234 1576.16,1068.26 1577.18,1067.96 1578.21,928.515 1579.23,928.197 1580.26,1079.61 1581.29,1079.29 1582.31,881.025 1583.34,880.715 1584.36,1209.24 1585.39,1208.78 1586.42,1062.3 1587.44,1062.01 1588.47,1005.51 1589.49,1005.27 1590.52,818.721 1591.54,818.511 1592.57,915.747 1593.6,915.385 1594.62,1134.19 1595.65,1133.67 1596.67,1300.69 1597.7,1300.56 1598.73,959.64 1599.75,959.287 1600.78,862.167 1601.8,861.341 1602.83,1015.78 1603.86,1014.99 1604.88,1088.92 1605.91,1088.81 1606.93,775.076 1607.96,774.636 1608.99,1103.66 1610.01,1103.3 1611.04,1168.29 1612.06,1167.97 1613.09,941.34 1614.12,941.06 1615.14,955.858 1616.17,955.492 1617.19,1216.66 1618.22,1216.49 1619.24,1083.89 1620.27,1083.68 1621.3,934.573 1622.32,934.343 1623.35,1055.03 1624.37,1054.45 1625.4,810.643 1626.43,810.394 1627.45,1026.9 1628.48,1026.62 1629.5,1280.21 1630.53,1280.1 1631.56,848.82 1632.58,848.632 1633.61,1090.15 1634.63,1089.66 1635.66,889.931 1636.69,889.488 1637.71,911.277 1638.74,910.832 1639.76,990.677 1640.79,990.278 1641.82,1252.44 1642.84,1252.02 1643.87,1229.63 1644.89,1229.42 1645.92,1149.38 1646.95,1149.23 1647.97,1139.44 1649,1139.22 1650.02,788.414 1651.05,788.219 1652.07,1056.68 1653.1,1056.47 1654.13,990.404 1655.15,990.314 1656.18,1082.2 1657.2,1081.93 1658.23,1160.51 1659.26,1160.17 1660.28,880.866 1661.31,880.611 1662.33,1109.3 1663.36,1108.99 1664.39,1135.58 1665.41,1135.1 1666.44,1175.73 1667.46,1175.61 1668.49,1137.78 1669.52,1137.56 1670.54,1055.62 1671.57,1055.52 1672.59,944.211 1673.62,943.977 1674.65,1361.19 1675.67,1360.77 1676.7,1074.04 1677.72,1073.72 1678.75,1088.01 1679.78,1087.38 1680.8,1068.72 1681.83,1068.34 1682.85,1089.35 1683.88,1089.22 1684.9,963.344 1685.93,962.901 1686.96,987.5 1687.98,987.251 1689.01,1079.05 1690.03,1078.68 1691.06,1115.44 1692.09,1115.23 1693.11,1114.92 1694.14,1114.52 1695.16,1046.46 1696.19,1046.18 1697.22,987.008 1698.24,986.622 1699.27,1221.33 1700.29,1221.17 1701.32,993.767 1702.35,993.179 1703.37,995.207 1704.4,994.808 1705.42,953.423 1706.45,953.219 1707.48,1014.62 1708.5,1014.08 1709.53,1019.27 1710.55,1018.89 1711.58,1165.18 1712.6,1164.88 1713.63,1227.4 1714.66,1227.08 1715.68,1131.71 1716.71,1131.35 1717.73,1001.18 1718.76,1000.58 1719.79,1114.66 1720.81,1114.29 1721.84,951.354 1722.86,951.152 1723.89,1187.14 1724.92,1187 1725.94,1111.17 1726.97,1110.83 1727.99,1012.75 1729.02,1012.53 1730.05,844.198 1731.07,843.892 1732.1,1054.27 1733.12,1053.8 1734.15,849.096 1735.18,848.648 1736.2,974.784 1737.23,974.537 1738.25,960.577 1739.28,960.396 1740.31,1133.81 1741.33,1133.59 1742.36,837.51 1743.38,836.859 1744.41,1160.47 1745.43,1160.21 1746.46,1375.11 1747.49,1374.8 1748.51,1017.81 1749.54,1017.58 1750.56,1074.9 1751.59,1074.59 1752.62,1081.68 1753.64,1081.39 1754.67,1227.2 1755.69,1227.07 1756.72,861.291 1757.75,861.083 1758.77,1087.16 1759.8,1087.04 1760.82,1134.3 1761.85,1133.98 1762.88,1261.43 1763.9,1261.11 1764.93,1000.14 1765.95,999.748 1766.98,1161.12 1768.01,1160.92 1769.03,952.339 1770.06,952.079 1771.08,1022.89 1772.11,1022.65 1773.13,995.263 1774.16,994.912 1775.19,1228.37 1776.21,1227.88 1777.24,1138.51 1778.26,1138.4 1779.29,979.984 1780.32,979.042 1781.34,1081.34 1782.37,1080.98 1783.39,1017.68 1784.42,1017.48 1785.45,1287.4 1786.47,1287.27 1787.5,899.556 1788.52,899.019 1789.55,1032.34 1790.58,1032.06 1791.6,1175.94 1792.63,1175.72 1793.65,931.107 1794.68,930.641 1795.71,961.194 1796.73,960.895 1797.76,955.781 1798.78,955.206 1799.81,1164.16 1800.84,1164.02 1801.86,910.992 1802.89,910.64 1803.91,1091.85 1804.94,1091.66 1805.96,1106.39 1806.99,1106.08 1808.02,1033.13 1809.04,1032.94 1810.07,1070.69 1811.09,1070.29 1812.12,1117.82 1813.15,1117.41 1814.17,967.058 1815.2,966.652 1816.22,982.456 1817.25,982.053 1818.28,1087.81 1819.3,1087.36 1820.33,1066.33 1821.35,1065.83 1822.38,1000.4 1823.41,1000.08 1824.43,874.82 1825.46,874.478 1826.48,986.372 1827.51,986.064 1828.54,947.38 1829.56,947.176 1830.59,1008.98 1831.61,1008.9 1832.64,1000.83 1833.66,999.996 1834.69,1009.73 1835.72,1009.34 1836.74,948.585 1837.77,948.421 1838.79,869.494 1839.82,869.22 1840.85,1263.57 1841.87,1263.27 1842.9,1228.22 1843.92,1228.09 1844.95,1237.73 1845.98,1237.5 1847,818.299 1848.03,817.929 1849.05,1090.08 1850.08,1090.01 1851.11,1087.57 1852.13,1087.49 1853.16,984.747 1854.18,984.461 1855.21,1033.39 1856.24,1033.29 1857.26,1015.83 1858.29,1015.56 1859.31,868.7 1860.34,868.481 1861.37,966.431 1862.39,966.228 1863.42,1117.01 1864.44,1116.28 1865.47,1153.37 1866.49,1153.01 1867.52,802.177 1868.55,801.955 1869.57,1094.83 1870.6,1094.63 1871.62,1152.36 1872.65,1152.2 1873.68,943.259 1874.7,943.138 1875.73,996.936 1876.75,996.704 1877.78,878.29 1878.81,878.035 1879.83,989.44 1880.86,989.133 1881.88,1071.14 1882.91,1070.96 1883.94,1088.47 1884.96,1088.11 1885.99,1075.41 1887.01,1075.19 1888.04,1110.56 1889.07,1110.17 1890.09,1109.45 1891.12,1109.34 1892.14,869.78 1893.17,869.665 1894.19,1201.31 1895.22,1201 1896.25,1093.36 1897.27,1093.15 1898.3,993.72 1899.32,993.398 1900.35,951.725 1901.38,951.473 1902.4,1050.13 1903.43,1049.95 1904.45,1229.96 1905.48,1229.45 1906.51,1022.66 1907.53,1022.33 1908.56,1022.11 1909.58,1021.8 1910.61,1385.16 1911.64,1384.89 1912.66,1120.22 1913.69,1119.82 1914.71,1068.27 1915.74,1067.91 1916.77,1065.54 1917.79,1065.15 1918.82,842.574 1919.84,842.16 1920.87,1103.37 1921.9,1103.11 1922.92,1009.91 1923.95,1009.36 1924.97,837.817 1926,837.537 1927.02,818.827 1928.05,818.669 1929.08,1217.49 1930.1,1216.83 1931.13,1083.02 1932.15,1082.81 1933.18,1008.32 1934.21,1007.88 1935.23,913.501 1936.26,913.354 1937.28,1188.62 1938.31,1188.49 1939.34,1055.29 1940.36,1054.99 1941.39,994.444 1942.41,994.254 1943.44,1061.4 1944.47,1061.23 1945.49,1111.83 1946.52,1110.97 1947.54,1213.44 1948.57,1213.35 1949.6,987.807 1950.62,987.654 1951.65,1027.35 1952.67,1027.17 1953.7,1114.61 1954.72,1114.43 1955.75,1263.94 1956.78,1263.76 1957.8,943.297 1958.83,942.968 1959.85,1027.34 1960.88,1027.23 1961.91,1265.49 1962.93,1265.23 1963.96,1244.61 1964.98,1244.38 1966.01,1195.44 1967.04,1195.23 1968.06,1009.68 1969.09,1009.44 1970.11,1189.55 1971.14,1189.04 1972.17,1046.05 1973.19,1045.79 1974.22,1167.36 1975.24,1167.27 1976.27,964.926 1977.3,964.52 1978.32,1072.52 1979.35,1072.35 1980.37,1086.82 1981.4,1086.6 1982.43,1138.02 1983.45,1137.93 1984.48,982.907 1985.5,982.663 1986.53,1039.63 1987.55,1039.3 1988.58,1180.51 1989.61,1180.18 1990.63,980.743 1991.66,980.684 1992.68,1185.22 1993.71,1185.07 1994.74,1273.62 1995.76,1273.44 1996.79,1119.66 1997.81,1119.42 1998.84,981.842 1999.87,981.676 2000.89,1188.03 2001.92,1187.97 2002.94,1087.74 2003.97,1087.53 2005,984.779 2006.02,984.287 2007.05,1165.81 2008.07,1165.72 2009.1,1065.46 2010.13,1065.34 2011.15,1163.86 2012.18,1163.77 2013.2,1056.37 2014.23,1056.2 2015.25,1064.12 2016.28,1063.67 2017.31,931.096 2018.33,930.855 2019.36,1085.91 2020.38,1085.67 2021.41,1038.3 2022.44,1037.89 2023.46,979.835 2024.49,979.63 2025.51,790.252 2026.54,790.131 2027.57,1009.6 2028.59,1009.41 2029.62,1331.64 2030.64,1331.36 2031.67,1043.7 2032.7,1043.33 2033.72,1113.23 2034.75,1112.89 2035.77,1144.05 2036.8,1143.92 2037.83,928.72 2038.85,928.518 2039.88,884.837 2040.9,884.661 2041.93,982.547 2042.96,982.202 2043.98,999.197 2045.01,998.885 2046.03,1118.95 2047.06,1118.53 2048.08,1225.64 2049.11,1225.49 2050.14,1158.87 2051.16,1158.38 2052.19,880.285 2053.21,880.073 2054.24,1088.09 2055.27,1088.02 2056.29,1081 2057.32,1080.84 2058.34,992.4 2059.37,992.212 2060.4,1170.05 2061.42,1169.96 2062.45,900.361 2063.47,900.196 2064.5,988.45 2065.53,988.271 2066.55,962.974 2067.58,962.349 2068.6,1044.02 2069.63,1043.84 2070.66,1119.05 2071.68,1118.85 2072.71,954.127 2073.73,953.892 2074.76,1014.49 2075.78,1014.32 2076.81,1074.56 2077.84,1074.3 2078.86,1141.74 2079.89,1141.6 2080.91,948.229 2081.94,947.874 2082.97,1120.48 2083.99,1120.24 2085.02,929.032 2086.04,928.867 2087.07,984.607 2088.1,984.463 2089.12,961.071 2090.15,960.798 2091.17,1013.75 2092.2,1013.47 2093.23,1134.75 2094.25,1134.38 2095.28,1058.98 2096.3,1058.6 2097.33,1228.97 2098.36,1228.89 2099.38,1039.08 2100.41,1038.82 2101.43,1048.31 2102.46,1048.08 2103.49,1014.05 2104.51,1013.9 2105.54,1113.53 2106.56,1113.2 2107.59,1013.48 2108.61,1013.33 2109.64,1077.28 2110.67,1077.08 2111.69,945.17 2112.72,944.988 2113.74,899.292 2114.77,899.227 2115.8,930.593 2116.82,930.03 2117.85,923.998 2118.87,923.838 2119.9,675.906 2120.93,675.816 2121.95,846.62 2122.98,846.423 2124,938.657 2125.03,938.53 2126.06,938.578 2127.08,938.298 2128.11,966.402 2129.13,966.153 2130.16,1150.71 2131.19,1150.43 2132.21,1068.55 2133.24,1068.34 2134.26,1043.77 2135.29,1043.45 2136.31,1022.89 2137.34,1022.71 2138.37,1113.43 2139.39,1113.18 2140.42,1014.72 2141.44,1014.57 2142.47,1096.98 2143.5,1096.68 2144.52,1139.64 2145.55,1139.41 2146.57,984.052 2147.6,983.958 2148.63,913.594 2149.65,913.447 2150.68,1013.73 2151.7,1013.39 2152.73,869.177 2153.76,868.978 2154.78,900.061 2155.81,899.927 2156.83,1018.72 2157.86,1018.43 2158.89,1149.38 2159.91,1149.27 2160.94,1053.73 2161.96,1053.55 2162.99,930.435 2164.02,930.264 2165.04,1346.35 2166.07,1346.26 2167.09,917.383 2168.12,917.119 2169.14,890.962 2170.17,890.803 2171.2,879.812 2172.22,879.575 2173.25,1048.3 2174.27,1048.17 2175.3,1236.99 2176.33,1236.87 2177.35,993.498 2178.38,993.251 2179.4,946.288 2180.43,946.049 2181.46,1122.38 2182.48,1122.23 2183.51,727.265 2184.53,727.079 2185.56,903.493 2186.59,903.24 2187.61,1023.07 2188.64,1022.85 2189.66,1086.36 2190.69,1085.99 2191.72,986.13 2192.74,985.929 2193.77,997.953 2194.79,997.729 2195.82,1060.55 2196.84,1060.29 2197.87,1175.28 2198.9,1174.83 2199.92,1248.16 2200.95,1247.69 2201.97,1118.58 2203,1118.52 2204.03,1028.19 2205.05,1028.01 2206.08,1017.52 2207.1,1017.37 2208.13,1076.01 2209.16,1075.61 2210.18,1269.86 2211.21,1269.73 2212.23,1013.25 2213.26,1013.12 2214.29,1195.44 2215.31,1195.21 2216.34,844.965 2217.36,844.8 2218.39,1012.2 2219.42,1011.88 2220.44,936.264 2221.47,936.083 2222.49,1129.45 2223.52,1129.06 2224.55,1043.75 2225.57,1043.52 2226.6,972.583 2227.62,972.266 2228.65,1098.21 2229.67,1098.09 2230.7,934.411 2231.73,934.288 2232.75,1103.4 2233.78,1103.21 2234.8,1032.67 2235.83,1032.63 2236.86,1186.45 2237.88,1186.26 2238.91,1097.17 2239.93,1097 2240.96,917.962 2241.99,917.786 2243.01,923.632 2244.04,923.214 2245.06,968.381 2246.09,968.143 2247.12,1188.82 2248.14,1188.76 2249.17,989.55 2250.19,989.368 2251.22,833.97 2252.25,833.797 2253.27,951.283 2254.3,951.048 2255.32,1290.48 2256.35,1290.27 2257.37,1041.22 2258.4,1041.1 2259.43,1056.93 2260.45,1056.69 2261.48,1098.64 2262.5,1098.36 2263.53,931.628 2264.56,931.276 2265.58,1195.01 2266.61,1194.92 2267.63,1047.02 2268.66,1046.76 2269.69,1034.02 2270.71,1033.67 2271.74,818.511 2272.76,818.229 2273.79,1100.31 2274.82,1100 2275.84,1280.92 2276.87,1280.7 2277.89,1195.62 2278.92,1195.5 2279.95,1038.64 2280.97,1038.33 2282,990.238 2283.02,990.025 2284.05,1171.43 2285.08,1171.27 2286.1,908.16 2287.13,907.951 2288.15,919.178 2289.18,919.052 2290.2,1114.56 2291.23,1114.12 "/>
<path clip-path="url(#clip160)" d="M2010.47 198.898 L2280.29 198.898 L2280.29 95.2176 L2010.47 95.2176  Z" fill="#ffffff" fill-rule="evenodd" fill-opacity="1"/>
<polyline clip-path="url(#clip160)" style="stroke:#000000; stroke-linecap:round; stroke-linejoin:round; stroke-width:4; stroke-opacity:1; fill:none" points="2010.47,198.898 2280.29,198.898 2280.29,95.2176 2010.47,95.2176 2010.47,198.898 "/>
<polyline clip-path="url(#clip160)" style="stroke:#009af9; stroke-linecap:round; stroke-linejoin:round; stroke-width:4; stroke-opacity:1; fill:none" points="2034.63,147.058 2179.55,147.058 "/>
<path clip-path="url(#clip160)" d="M2217.55 166.745 Q2215.75 171.375 2214.03 172.787 Q2212.32 174.199 2209.45 174.199 L2206.05 174.199 L2206.05 170.634 L2208.55 170.634 Q2210.31 170.634 2211.28 169.8 Q2212.25 168.967 2213.43 165.865 L2214.19 163.921 L2203.71 138.412 L2208.22 138.412 L2216.32 158.689 L2224.43 138.412 L2228.94 138.412 L2217.55 166.745 Z" fill="#000000" fill-rule="nonzero" fill-opacity="1" /><path clip-path="url(#clip160)" d="M2236.23 160.402 L2243.87 160.402 L2243.87 134.037 L2235.56 135.703 L2235.56 131.444 L2243.82 129.778 L2248.5 129.778 L2248.5 160.402 L2256.14 160.402 L2256.14 164.338 L2236.23 164.338 L2236.23 160.402 Z" fill="#000000" fill-rule="nonzero" fill-opacity="1" /></svg>
