<?xml version="1.0" encoding="utf-8"?>
<svg xmlns="http://www.w3.org/2000/svg" xmlns:xlink="http://www.w3.org/1999/xlink" width="600" height="400" viewBox="0 0 2400 1600">
<defs>
  <clipPath id="clip130">
    <rect x="0" y="0" width="2400" height="1600"/>
  </clipPath>
</defs>
<path clip-path="url(#clip130)" d="M0 1600 L2400 1600 L2400 0 L0 0  Z" fill="#ffffff" fill-rule="evenodd" fill-opacity="1"/>
<defs>
  <clipPath id="clip131">
    <rect x="480" y="0" width="1681" height="1600"/>
  </clipPath>
</defs>
<path clip-path="url(#clip130)" d="M112.177 1486.45 L2352.76 1486.45 L2352.76 47.2441 L112.177 47.2441  Z" fill="#ffffff" fill-rule="evenodd" fill-opacity="1"/>
<defs>
  <clipPath id="clip132">
    <rect x="112" y="47" width="2242" height="1440"/>
  </clipPath>
</defs>
<polyline clip-path="url(#clip132)" style="stroke:#000000; stroke-linecap:round; stroke-linejoin:round; stroke-width:2; stroke-opacity:0.1; fill:none" points="175.59,1486.45 175.59,47.2441 "/>
<polyline clip-path="url(#clip132)" style="stroke:#000000; stroke-linecap:round; stroke-linejoin:round; stroke-width:2; stroke-opacity:0.1; fill:none" points="704.028,1486.45 704.028,47.2441 "/>
<polyline clip-path="url(#clip132)" style="stroke:#000000; stroke-linecap:round; stroke-linejoin:round; stroke-width:2; stroke-opacity:0.1; fill:none" points="1232.47,1486.45 1232.47,47.2441 "/>
<polyline clip-path="url(#clip132)" style="stroke:#000000; stroke-linecap:round; stroke-linejoin:round; stroke-width:2; stroke-opacity:0.1; fill:none" points="1760.9,1486.45 1760.9,47.2441 "/>
<polyline clip-path="url(#clip132)" style="stroke:#000000; stroke-linecap:round; stroke-linejoin:round; stroke-width:2; stroke-opacity:0.1; fill:none" points="2289.34,1486.45 2289.34,47.2441 "/>
<polyline clip-path="url(#clip130)" style="stroke:#000000; stroke-linecap:round; stroke-linejoin:round; stroke-width:4; stroke-opacity:1; fill:none" points="112.177,1486.45 2352.76,1486.45 "/>
<polyline clip-path="url(#clip130)" style="stroke:#000000; stroke-linecap:round; stroke-linejoin:round; stroke-width:4; stroke-opacity:1; fill:none" points="175.59,1486.45 175.59,1467.55 "/>
<polyline clip-path="url(#clip130)" style="stroke:#000000; stroke-linecap:round; stroke-linejoin:round; stroke-width:4; stroke-opacity:1; fill:none" points="704.028,1486.45 704.028,1467.55 "/>
<polyline clip-path="url(#clip130)" style="stroke:#000000; stroke-linecap:round; stroke-linejoin:round; stroke-width:4; stroke-opacity:1; fill:none" points="1232.47,1486.45 1232.47,1467.55 "/>
<polyline clip-path="url(#clip130)" style="stroke:#000000; stroke-linecap:round; stroke-linejoin:round; stroke-width:4; stroke-opacity:1; fill:none" points="1760.9,1486.45 1760.9,1467.55 "/>
<polyline clip-path="url(#clip130)" style="stroke:#000000; stroke-linecap:round; stroke-linejoin:round; stroke-width:4; stroke-opacity:1; fill:none" points="2289.34,1486.45 2289.34,1467.55 "/>
<path clip-path="url(#clip130)" d="M175.59 1517.37 Q171.979 1517.37 170.15 1520.93 Q168.344 1524.47 168.344 1531.6 Q168.344 1538.71 170.15 1542.27 Q171.979 1545.82 175.59 1545.82 Q179.224 1545.82 181.03 1542.27 Q182.858 1538.71 182.858 1531.6 Q182.858 1524.47 181.03 1520.93 Q179.224 1517.37 175.59 1517.37 M175.59 1513.66 Q181.4 1513.66 184.455 1518.27 Q187.534 1522.85 187.534 1531.6 Q187.534 1540.33 184.455 1544.94 Q181.4 1549.52 175.59 1549.52 Q169.78 1549.52 166.701 1544.94 Q163.645 1540.33 163.645 1531.6 Q163.645 1522.85 166.701 1518.27 Q169.78 1513.66 175.59 1513.66 Z" fill="#000000" fill-rule="nonzero" fill-opacity="1" /><path clip-path="url(#clip130)" d="M663.646 1514.29 L682.003 1514.29 L682.003 1518.22 L667.929 1518.22 L667.929 1526.7 Q668.947 1526.35 669.966 1526.19 Q670.984 1526 672.003 1526 Q677.79 1526 681.169 1529.17 Q684.549 1532.34 684.549 1537.76 Q684.549 1543.34 681.077 1546.44 Q677.605 1549.52 671.285 1549.52 Q669.109 1549.52 666.841 1549.15 Q664.596 1548.78 662.188 1548.04 L662.188 1543.34 Q664.271 1544.47 666.494 1545.03 Q668.716 1545.58 671.193 1545.58 Q675.197 1545.58 677.535 1543.48 Q679.873 1541.37 679.873 1537.76 Q679.873 1534.15 677.535 1532.04 Q675.197 1529.94 671.193 1529.94 Q669.318 1529.94 667.443 1530.35 Q665.591 1530.77 663.646 1531.65 L663.646 1514.29 Z" fill="#000000" fill-rule="nonzero" fill-opacity="1" /><path clip-path="url(#clip130)" d="M703.762 1517.37 Q700.151 1517.37 698.322 1520.93 Q696.517 1524.47 696.517 1531.6 Q696.517 1538.71 698.322 1542.27 Q700.151 1545.82 703.762 1545.82 Q707.396 1545.82 709.202 1542.27 Q711.03 1538.71 711.03 1531.6 Q711.03 1524.47 709.202 1520.93 Q707.396 1517.37 703.762 1517.37 M703.762 1513.66 Q709.572 1513.66 712.628 1518.27 Q715.706 1522.85 715.706 1531.6 Q715.706 1540.33 712.628 1544.94 Q709.572 1549.52 703.762 1549.52 Q697.952 1549.52 694.873 1544.94 Q691.818 1540.33 691.818 1531.6 Q691.818 1522.85 694.873 1518.27 Q697.952 1513.66 703.762 1513.66 Z" fill="#000000" fill-rule="nonzero" fill-opacity="1" /><path clip-path="url(#clip130)" d="M733.924 1517.37 Q730.313 1517.37 728.484 1520.93 Q726.679 1524.47 726.679 1531.6 Q726.679 1538.71 728.484 1542.27 Q730.313 1545.82 733.924 1545.82 Q737.558 1545.82 739.364 1542.27 Q741.192 1538.71 741.192 1531.6 Q741.192 1524.47 739.364 1520.93 Q737.558 1517.37 733.924 1517.37 M733.924 1513.66 Q739.734 1513.66 742.79 1518.27 Q745.868 1522.85 745.868 1531.6 Q745.868 1540.33 742.79 1544.94 Q739.734 1549.52 733.924 1549.52 Q728.114 1549.52 725.035 1544.94 Q721.979 1540.33 721.979 1531.6 Q721.979 1522.85 725.035 1518.27 Q728.114 1513.66 733.924 1513.66 Z" fill="#000000" fill-rule="nonzero" fill-opacity="1" /><path clip-path="url(#clip130)" d="M1176.99 1544.91 L1184.63 1544.91 L1184.63 1518.55 L1176.32 1520.21 L1176.32 1515.95 L1184.58 1514.29 L1189.26 1514.29 L1189.26 1544.91 L1196.9 1544.91 L1196.9 1548.85 L1176.99 1548.85 L1176.99 1544.91 Z" fill="#000000" fill-rule="nonzero" fill-opacity="1" /><path clip-path="url(#clip130)" d="M1216.34 1517.37 Q1212.73 1517.37 1210.9 1520.93 Q1209.1 1524.47 1209.1 1531.6 Q1209.1 1538.71 1210.9 1542.27 Q1212.73 1545.82 1216.34 1545.82 Q1219.98 1545.82 1221.78 1542.27 Q1223.61 1538.71 1223.61 1531.6 Q1223.61 1524.47 1221.78 1520.93 Q1219.98 1517.37 1216.34 1517.37 M1216.34 1513.66 Q1222.15 1513.66 1225.21 1518.27 Q1228.29 1522.85 1228.29 1531.6 Q1228.29 1540.33 1225.21 1544.94 Q1222.15 1549.52 1216.34 1549.52 Q1210.53 1549.52 1207.46 1544.94 Q1204.4 1540.33 1204.4 1531.6 Q1204.4 1522.85 1207.46 1518.27 Q1210.53 1513.66 1216.34 1513.66 Z" fill="#000000" fill-rule="nonzero" fill-opacity="1" /><path clip-path="url(#clip130)" d="M1246.51 1517.37 Q1242.89 1517.37 1241.07 1520.93 Q1239.26 1524.47 1239.26 1531.6 Q1239.26 1538.71 1241.07 1542.27 Q1242.89 1545.82 1246.51 1545.82 Q1250.14 1545.82 1251.95 1542.27 Q1253.77 1538.71 1253.77 1531.6 Q1253.77 1524.47 1251.95 1520.93 Q1250.14 1517.37 1246.51 1517.37 M1246.51 1513.66 Q1252.32 1513.66 1255.37 1518.27 Q1258.45 1522.85 1258.45 1531.6 Q1258.45 1540.33 1255.37 1544.94 Q1252.32 1549.52 1246.51 1549.52 Q1240.7 1549.52 1237.62 1544.94 Q1234.56 1540.33 1234.56 1531.6 Q1234.56 1522.85 1237.62 1518.27 Q1240.7 1513.66 1246.51 1513.66 Z" fill="#000000" fill-rule="nonzero" fill-opacity="1" /><path clip-path="url(#clip130)" d="M1276.67 1517.37 Q1273.06 1517.37 1271.23 1520.93 Q1269.42 1524.47 1269.42 1531.6 Q1269.42 1538.71 1271.23 1542.27 Q1273.06 1545.82 1276.67 1545.82 Q1280.3 1545.82 1282.11 1542.27 Q1283.94 1538.71 1283.94 1531.6 Q1283.94 1524.47 1282.11 1520.93 Q1280.3 1517.37 1276.67 1517.37 M1276.67 1513.66 Q1282.48 1513.66 1285.53 1518.27 Q1288.61 1522.85 1288.61 1531.6 Q1288.61 1540.33 1285.53 1544.94 Q1282.48 1549.52 1276.67 1549.52 Q1270.86 1549.52 1267.78 1544.94 Q1264.72 1540.33 1264.72 1531.6 Q1264.72 1522.85 1267.78 1518.27 Q1270.86 1513.66 1276.67 1513.66 Z" fill="#000000" fill-rule="nonzero" fill-opacity="1" /><path clip-path="url(#clip130)" d="M1705.43 1544.91 L1713.07 1544.91 L1713.07 1518.55 L1704.76 1520.21 L1704.76 1515.95 L1713.02 1514.29 L1717.7 1514.29 L1717.7 1544.91 L1725.34 1544.91 L1725.34 1548.85 L1705.43 1548.85 L1705.43 1544.91 Z" fill="#000000" fill-rule="nonzero" fill-opacity="1" /><path clip-path="url(#clip130)" d="M1734.83 1514.29 L1753.19 1514.29 L1753.19 1518.22 L1739.11 1518.22 L1739.11 1526.7 Q1740.13 1526.35 1741.15 1526.19 Q1742.17 1526 1743.19 1526 Q1748.97 1526 1752.35 1529.17 Q1755.73 1532.34 1755.73 1537.76 Q1755.73 1543.34 1752.26 1546.44 Q1748.79 1549.52 1742.47 1549.52 Q1740.29 1549.52 1738.02 1549.15 Q1735.78 1548.78 1733.37 1548.04 L1733.37 1543.34 Q1735.45 1544.47 1737.68 1545.03 Q1739.9 1545.58 1742.37 1545.58 Q1746.38 1545.58 1748.72 1543.48 Q1751.06 1541.37 1751.06 1537.76 Q1751.06 1534.15 1748.72 1532.04 Q1746.38 1529.94 1742.37 1529.94 Q1740.5 1529.94 1738.62 1530.35 Q1736.77 1530.77 1734.83 1531.65 L1734.83 1514.29 Z" fill="#000000" fill-rule="nonzero" fill-opacity="1" /><path clip-path="url(#clip130)" d="M1774.94 1517.37 Q1771.33 1517.37 1769.5 1520.93 Q1767.7 1524.47 1767.7 1531.6 Q1767.7 1538.71 1769.5 1542.27 Q1771.33 1545.82 1774.94 1545.82 Q1778.58 1545.82 1780.38 1542.27 Q1782.21 1538.71 1782.21 1531.6 Q1782.21 1524.47 1780.38 1520.93 Q1778.58 1517.37 1774.94 1517.37 M1774.94 1513.66 Q1780.75 1513.66 1783.81 1518.27 Q1786.89 1522.85 1786.89 1531.6 Q1786.89 1540.33 1783.81 1544.94 Q1780.75 1549.52 1774.94 1549.52 Q1769.13 1549.52 1766.06 1544.94 Q1763 1540.33 1763 1531.6 Q1763 1522.85 1766.06 1518.27 Q1769.13 1513.66 1774.94 1513.66 Z" fill="#000000" fill-rule="nonzero" fill-opacity="1" /><path clip-path="url(#clip130)" d="M1805.11 1517.37 Q1801.49 1517.37 1799.67 1520.93 Q1797.86 1524.47 1797.86 1531.6 Q1797.86 1538.71 1799.67 1542.27 Q1801.49 1545.82 1805.11 1545.82 Q1808.74 1545.82 1810.55 1542.27 Q1812.37 1538.71 1812.37 1531.6 Q1812.37 1524.47 1810.55 1520.93 Q1808.74 1517.37 1805.11 1517.37 M1805.11 1513.66 Q1810.92 1513.66 1813.97 1518.27 Q1817.05 1522.85 1817.05 1531.6 Q1817.05 1540.33 1813.97 1544.94 Q1810.92 1549.52 1805.11 1549.52 Q1799.3 1549.52 1796.22 1544.94 Q1793.16 1540.33 1793.16 1531.6 Q1793.16 1522.85 1796.22 1518.27 Q1799.3 1513.66 1805.11 1513.66 Z" fill="#000000" fill-rule="nonzero" fill-opacity="1" /><path clip-path="url(#clip130)" d="M2237.95 1544.91 L2254.27 1544.91 L2254.27 1548.85 L2232.33 1548.85 L2232.33 1544.91 Q2234.99 1542.16 2239.58 1537.53 Q2244.18 1532.88 2245.36 1531.53 Q2247.61 1529.01 2248.49 1527.27 Q2249.39 1525.51 2249.39 1523.82 Q2249.39 1521.07 2247.45 1519.33 Q2245.52 1517.6 2242.42 1517.6 Q2240.22 1517.6 2237.77 1518.36 Q2235.34 1519.13 2232.56 1520.68 L2232.56 1515.95 Q2235.39 1514.82 2237.84 1514.24 Q2240.29 1513.66 2242.33 1513.66 Q2247.7 1513.66 2250.89 1516.35 Q2254.09 1519.03 2254.09 1523.52 Q2254.09 1525.65 2253.28 1527.57 Q2252.49 1529.47 2250.39 1532.07 Q2249.81 1532.74 2246.7 1535.95 Q2243.6 1539.15 2237.95 1544.91 Z" fill="#000000" fill-rule="nonzero" fill-opacity="1" /><path clip-path="url(#clip130)" d="M2274.09 1517.37 Q2270.48 1517.37 2268.65 1520.93 Q2266.84 1524.47 2266.84 1531.6 Q2266.84 1538.71 2268.65 1542.27 Q2270.48 1545.82 2274.09 1545.82 Q2277.72 1545.82 2279.53 1542.27 Q2281.36 1538.71 2281.36 1531.6 Q2281.36 1524.47 2279.53 1520.93 Q2277.72 1517.37 2274.09 1517.37 M2274.09 1513.66 Q2279.9 1513.66 2282.95 1518.27 Q2286.03 1522.85 2286.03 1531.6 Q2286.03 1540.33 2282.95 1544.94 Q2279.9 1549.52 2274.09 1549.52 Q2268.28 1549.52 2265.2 1544.94 Q2262.14 1540.33 2262.14 1531.6 Q2262.14 1522.85 2265.2 1518.27 Q2268.28 1513.66 2274.09 1513.66 Z" fill="#000000" fill-rule="nonzero" fill-opacity="1" /><path clip-path="url(#clip130)" d="M2304.25 1517.37 Q2300.64 1517.37 2298.81 1520.93 Q2297.01 1524.47 2297.01 1531.6 Q2297.01 1538.71 2298.81 1542.27 Q2300.64 1545.82 2304.25 1545.82 Q2307.88 1545.82 2309.69 1542.27 Q2311.52 1538.71 2311.52 1531.6 Q2311.52 1524.47 2309.69 1520.93 Q2307.88 1517.37 2304.25 1517.37 M2304.25 1513.66 Q2310.06 1513.66 2313.12 1518.27 Q2316.2 1522.85 2316.2 1531.6 Q2316.2 1540.33 2313.12 1544.94 Q2310.06 1549.52 2304.25 1549.52 Q2298.44 1549.52 2295.36 1544.94 Q2292.31 1540.33 2292.31 1531.6 Q2292.31 1522.85 2295.36 1518.27 Q2298.44 1513.66 2304.25 1513.66 Z" fill="#000000" fill-rule="nonzero" fill-opacity="1" /><path clip-path="url(#clip130)" d="M2334.41 1517.37 Q2330.8 1517.37 2328.97 1520.93 Q2327.17 1524.47 2327.17 1531.6 Q2327.17 1538.71 2328.97 1542.27 Q2330.8 1545.82 2334.41 1545.82 Q2338.05 1545.82 2339.85 1542.27 Q2341.68 1538.71 2341.68 1531.6 Q2341.68 1524.47 2339.85 1520.93 Q2338.05 1517.37 2334.41 1517.37 M2334.41 1513.66 Q2340.22 1513.66 2343.28 1518.27 Q2346.36 1522.85 2346.36 1531.6 Q2346.36 1540.33 2343.28 1544.94 Q2340.22 1549.52 2334.41 1549.52 Q2328.6 1549.52 2325.52 1544.94 Q2322.47 1540.33 2322.47 1531.6 Q2322.47 1522.85 2325.52 1518.27 Q2328.6 1513.66 2334.41 1513.66 Z" fill="#000000" fill-rule="nonzero" fill-opacity="1" /><polyline clip-path="url(#clip132)" style="stroke:#000000; stroke-linecap:round; stroke-linejoin:round; stroke-width:2; stroke-opacity:0.1; fill:none" points="112.177,1315.54 2352.76,1315.54 "/>
<polyline clip-path="url(#clip132)" style="stroke:#000000; stroke-linecap:round; stroke-linejoin:round; stroke-width:2; stroke-opacity:0.1; fill:none" points="112.177,923.782 2352.76,923.782 "/>
<polyline clip-path="url(#clip132)" style="stroke:#000000; stroke-linecap:round; stroke-linejoin:round; stroke-width:2; stroke-opacity:0.1; fill:none" points="112.177,532.023 2352.76,532.023 "/>
<polyline clip-path="url(#clip132)" style="stroke:#000000; stroke-linecap:round; stroke-linejoin:round; stroke-width:2; stroke-opacity:0.1; fill:none" points="112.177,140.265 2352.76,140.265 "/>
<polyline clip-path="url(#clip130)" style="stroke:#000000; stroke-linecap:round; stroke-linejoin:round; stroke-width:4; stroke-opacity:1; fill:none" points="112.177,1486.45 112.177,47.2441 "/>
<polyline clip-path="url(#clip130)" style="stroke:#000000; stroke-linecap:round; stroke-linejoin:round; stroke-width:4; stroke-opacity:1; fill:none" points="112.177,1315.54 131.075,1315.54 "/>
<polyline clip-path="url(#clip130)" style="stroke:#000000; stroke-linecap:round; stroke-linejoin:round; stroke-width:4; stroke-opacity:1; fill:none" points="112.177,923.782 131.075,923.782 "/>
<polyline clip-path="url(#clip130)" style="stroke:#000000; stroke-linecap:round; stroke-linejoin:round; stroke-width:4; stroke-opacity:1; fill:none" points="112.177,532.023 131.075,532.023 "/>
<polyline clip-path="url(#clip130)" style="stroke:#000000; stroke-linecap:round; stroke-linejoin:round; stroke-width:4; stroke-opacity:1; fill:none" points="112.177,140.265 131.075,140.265 "/>
<path clip-path="url(#clip130)" d="M56.2699 1328.89 L63.9087 1328.89 L63.9087 1302.52 L55.5986 1304.19 L55.5986 1299.93 L63.8624 1298.26 L68.5383 1298.26 L68.5383 1328.89 L76.1772 1328.89 L76.1772 1332.82 L56.2699 1332.82 L56.2699 1328.89 Z" fill="#000000" fill-rule="nonzero" fill-opacity="1" /><path clip-path="url(#clip130)" d="M59.8578 937.127 L76.1772 937.127 L76.1772 941.062 L54.2328 941.062 L54.2328 937.127 Q56.8949 934.373 61.4782 929.743 Q66.0846 925.09 67.2652 923.748 Q69.5105 921.224 70.3902 919.488 Q71.2929 917.729 71.2929 916.039 Q71.2929 913.285 69.3485 911.549 Q67.4272 909.812 64.3254 909.812 Q62.1263 909.812 59.6726 910.576 Q57.2421 911.34 54.4643 912.891 L54.4643 908.169 Q57.2884 907.035 59.7421 906.456 Q62.1958 905.877 64.2328 905.877 Q69.6031 905.877 72.7976 908.562 Q75.992 911.248 75.992 915.738 Q75.992 917.868 75.1818 919.789 Q74.3948 921.687 72.2883 924.28 Q71.7096 924.951 68.6078 928.169 Q65.5059 931.363 59.8578 937.127 Z" fill="#000000" fill-rule="nonzero" fill-opacity="1" /><path clip-path="url(#clip130)" d="M69.0476 530.669 Q72.404 531.387 74.279 533.655 Q76.1772 535.924 76.1772 539.257 Q76.1772 544.373 72.6587 547.174 Q69.1402 549.975 62.6587 549.975 Q60.4828 549.975 58.168 549.535 Q55.8764 549.118 53.4227 548.262 L53.4227 543.748 Q55.3671 544.882 57.6819 545.461 Q59.9967 546.04 62.5198 546.04 Q66.918 546.04 69.2096 544.303 Q71.5244 542.567 71.5244 539.257 Q71.5244 536.202 69.3717 534.489 Q67.242 532.753 63.4226 532.753 L59.3949 532.753 L59.3949 528.91 L63.6078 528.91 Q67.0569 528.91 68.8855 527.544 Q70.7142 526.155 70.7142 523.563 Q70.7142 520.901 68.8161 519.489 Q66.9411 518.054 63.4226 518.054 Q61.5013 518.054 59.3023 518.47 Q57.1032 518.887 54.4643 519.767 L54.4643 515.6 Q57.1264 514.859 59.4412 514.489 Q61.7791 514.118 63.8393 514.118 Q69.1633 514.118 72.2652 516.549 Q75.367 518.956 75.367 523.077 Q75.367 525.947 73.7235 527.938 Q72.08 529.905 69.0476 530.669 Z" fill="#000000" fill-rule="nonzero" fill-opacity="1" /><path clip-path="url(#clip130)" d="M66.5939 127.059 L54.7884 145.508 L66.5939 145.508 L66.5939 127.059 M65.367 122.985 L71.2466 122.985 L71.2466 145.508 L76.1772 145.508 L76.1772 149.396 L71.2466 149.396 L71.2466 157.545 L66.5939 157.545 L66.5939 149.396 L50.9921 149.396 L50.9921 144.883 L65.367 122.985 Z" fill="#000000" fill-rule="nonzero" fill-opacity="1" /><polyline clip-path="url(#clip132)" style="stroke:#009af9; stroke-linecap:round; stroke-linejoin:round; stroke-width:4; stroke-opacity:1; fill:none" points="175.59,1135.11 176.647,1135.54 177.704,787.771 178.76,789.205 179.817,1329.68 180.874,1329.84 181.931,1374.55 182.988,1374.66 184.045,1419.2 185.102,1419.32 186.159,1371.61 187.215,1371.73 188.272,1057.69 189.329,1058.21 190.386,1062.38 191.443,1062.65 192.5,993.722 193.557,994.558 194.614,1237.59 195.67,1237.8 196.727,1159.14 197.784,1159.52 198.841,1260.86 199.898,1260.99 200.955,974.909 202.012,975.661 203.069,1445.63 204.125,1445.72 205.182,1196.76 206.239,1196.9 207.296,1091.47 208.353,1092.01 209.41,867.163 210.467,867.873 211.524,1065.22 212.58,1065.62 213.637,1168.46 214.694,1168.95 215.751,854.062 216.808,854.578 217.865,1061.53 218.922,1061.91 219.979,1425.16 221.035,1425.27 222.092,1240.21 223.149,1240.35 224.206,1316.76 225.263,1316.91 226.32,1253.34 227.377,1253.57 228.434,1340.41 229.49,1340.55 230.547,1041.11 231.604,1041.77 232.661,1389.98 233.718,1390.11 234.775,1345.49 235.832,1345.69 236.889,863.473 237.946,864.418 239.002,1371.36 240.059,1371.61 241.116,1109.84 242.173,1110.27 243.23,1079.25 244.287,1079.81 245.344,1283.44 246.401,1283.62 247.457,1075.54 248.514,1076.11 249.571,1195.37 250.628,1195.73 251.685,982.959 252.742,983.343 253.799,1167.87 254.856,1168.03 255.912,1350.2 256.969,1350.33 258.026,957.516 259.083,958.233 260.14,1074.36 261.197,1074.79 262.254,1125.89 263.311,1126.47 264.367,952.345 265.424,952.814 266.481,1148.51 267.538,1148.82 268.595,1150.16 269.652,1150.34 270.709,1063.36 271.766,1063.66 272.822,1159.98 273.879,1160.3 274.936,1096.86 275.993,1097.39 277.05,295.189 278.107,297.2 279.164,1435.14 280.221,1435.25 281.277,971.122 282.334,971.714 283.391,1156.82 284.448,1157.2 285.505,1210.64 286.562,1210.93 287.619,1099.83 288.676,1100.29 289.732,1257.2 290.789,1257.41 291.846,967.71 292.903,968.125 293.96,822.245 295.017,822.714 296.074,1290.99 297.131,1291.18 298.187,1011.34 299.244,1011.79 300.301,1088.84 301.358,1089.37 302.415,1207.71 303.472,1207.97 304.529,1064.18 305.586,1064.73 306.642,1342.51 307.699,1342.69 308.756,1254.29 309.813,1254.54 310.87,1224.58 311.927,1224.86 312.984,1110.43 314.041,1110.96 315.098,1201.26 316.154,1201.54 317.211,827.072 318.268,828.331 319.325,1133.95 320.382,1134.14 321.439,1110.31 322.496,1110.73 323.553,1032.63 324.609,1032.99 325.666,1158.55 326.723,1158.86 327.78,1400.89 328.837,1401.01 329.894,1315.54 330.951,1315.67 332.008,1136.55 333.064,1136.98 334.121,1130.02 335.178,1130.41 336.235,1050.89 337.292,1051.25 338.349,1132.79 339.406,1133.17 340.463,1138.56 341.519,1139.04 342.576,1443.62 343.633,1443.74 344.69,1163.63 345.747,1163.92 346.804,1236.49 347.861,1236.74 348.918,1182.54 349.974,1182.89 351.031,1028.19 352.088,1028.48 353.145,1286.95 354.202,1287.26 355.259,825.977 356.316,826.494 357.373,1122.7 358.429,1123.14 359.486,1139.89 360.543,1140.27 361.6,1321.47 362.657,1321.62 363.714,1027.93 364.771,1028.45 365.828,1374.45 366.884,1374.59 367.941,1203.26 368.998,1203.6 370.055,664.059 371.112,665.004 372.169,954.281 373.226,954.655 374.283,1187.4 375.339,1187.71 376.396,1330.54 377.453,1330.66 378.51,1230.99 379.567,1231.21 380.624,1133.85 381.681,1134.38 382.738,1195.26 383.795,1195.56 384.851,1157.55 385.908,1158.07 386.965,978.948 388.022,979.324 389.079,1037.62 390.136,1038.24 391.193,1367.72 392.25,1367.84 393.306,1150.86 394.363,1151.17 395.42,958.646 396.477,958.982 397.534,1153.34 398.591,1153.83 399.648,1033.01 400.705,1033.58 401.761,1082.26 402.818,1082.63 403.875,887.461 404.932,887.954 405.989,1077.37 407.046,1077.91 408.103,1385.98 409.16,1386.14 410.216,1231.74 411.273,1231.95 412.33,1290.7 413.387,1290.98 414.444,739.153 415.501,740.802 416.558,1150.8 417.615,1151.19 418.671,1347.97 419.728,1348.08 420.785,1236.06 421.842,1236.42 422.899,913.51 423.956,914.091 425.013,1022.22 426.07,1022.88 427.126,1302.88 428.183,1303.02 429.24,974.635 430.297,975.139 431.354,943.551 432.411,944.335 433.468,896.324 434.525,897.536 435.581,1295.69 436.638,1296.06 437.695,939.631 438.752,939.973 439.809,1048.27 440.866,1048.52 441.923,1106.02 442.98,1106.41 444.036,1262.2 445.093,1262.37 446.15,948.944 447.207,949.483 448.264,926.623 449.321,927.045 450.378,1182.47 451.435,1182.73 452.491,1288.58 453.548,1288.73 454.605,1421.67 455.662,1421.79 456.719,1335.9 457.776,1336.02 458.833,1289.62 459.89,1289.8 460.947,1085.7 462.003,1086.06 463.06,1155.29 464.117,1155.71 465.174,1196.68 466.231,1197.22 467.288,1205.02 468.345,1205.28 469.402,971.645 470.458,972.055 471.515,1006.44 472.572,1006.73 473.629,840.649 474.686,841.057 475.743,1040.86 476.8,1041.11 477.857,1107.15 478.913,1107.5 479.97,924.899 481.027,925.204 482.084,1288.05 483.141,1288.21 484.198,1260.77 485.255,1260.94 486.312,1198.58 487.368,1198.94 488.425,1101.45 489.482,1101.92 490.539,1232.45 491.596,1232.63 492.653,1054.82 493.71,1055.03 494.767,848.343 495.823,848.991 496.88,942.105 497.937,943.068 498.994,1139.8 500.051,1140.06 501.108,999.208 502.165,999.557 503.222,952.984 504.278,953.769 505.335,1095.39 506.392,1095.55 507.449,781.203 508.506,781.765 509.563,1373.64 510.62,1373.74 511.677,1295.13 512.733,1295.41 513.79,1072.36 514.847,1072.55 515.904,1163.58 516.961,1163.86 518.018,1068.48 519.075,1068.94 520.132,1154.59 521.188,1155.02 522.245,1143.69 523.302,1144 524.359,934.293 525.416,935.12 526.473,1141.44 527.53,1141.73 528.587,1080.74 529.643,1081.17 530.7,1000.23 531.757,1000.91 532.814,1094.62 533.871,1095.07 534.928,1021.22 535.985,1021.67 537.042,1385.75 538.099,1385.83 539.155,673.839 540.212,674.773 541.269,1058.51 542.326,1058.76 543.383,939.118 544.44,940.045 545.497,1004.51 546.554,1004.79 547.61,916.561 548.667,916.905 549.724,1176.19 550.781,1176.49 551.838,1230.1 552.895,1230.35 553.952,997.249 555.009,997.557 556.065,1154.34 557.122,1154.88 558.179,1001.88 559.236,1002.12 560.293,1025 561.35,1025.51 562.407,1172.93 563.464,1173.3 564.52,1168.41 565.577,1168.72 566.634,1392.66 567.691,1392.78 568.748,1172.12 569.805,1172.37 570.862,1293.04 571.919,1293.2 572.975,1082.89 574.032,1083.35 575.089,1078.85 576.146,1079.27 577.203,1123.17 578.26,1123.48 579.317,1061.46 580.374,1061.64 581.43,1085.06 582.487,1085.55 583.544,1254.48 584.601,1254.84 585.658,964.277 586.715,964.578 587.772,1286.33 588.829,1286.47 589.885,1140.94 590.942,1141.31 591.999,990.085 593.056,990.411 594.113,872.982 595.17,873.336 596.227,1175.81 597.284,1176.04 598.34,1194.96 599.397,1195.19 600.454,1087.03 601.511,1087.21 602.568,1079.91 603.625,1080.21 604.682,930.214 605.739,930.901 606.795,1072.14 607.852,1072.58 608.909,967.204 609.966,967.497 611.023,1058.25 612.08,1058.69 613.137,1089.98 614.194,1090.47 615.251,1218.88 616.307,1219.07 617.364,1183.67 618.421,1183.87 619.478,1036.9 620.535,1037.15 621.592,1269.68 622.649,1269.82 623.706,1084.6 624.762,1084.86 625.819,1166.35 626.876,1166.66 627.933,985.032 628.99,985.316 630.047,979.294 631.104,979.645 632.161,1137.18 633.217,1137.56 634.274,1133.74 635.331,1134.15 636.388,1152.27 637.445,1152.62 638.502,1292.17 639.559,1292.31 640.616,935.823 641.672,936.198 642.729,1290.27 643.786,1290.39 644.843,1175.46 645.9,1175.69 646.957,1003.88 648.014,1004.59 649.071,1040.89 650.127,1041.05 651.184,1037.84 652.241,1038.37 653.298,882.351 654.355,882.829 655.412,1092.51 656.469,1092.75 657.526,1070.6 658.582,1070.94 659.639,853.948 660.696,854.379 661.753,1187.06 662.81,1187.33 663.867,1103.86 664.924,1104.24 665.981,661.094 667.037,661.855 668.094,1202.8 669.151,1202.97 670.208,716.159 671.265,717.014 672.322,1217.9 673.379,1218.06 674.436,1168.99 675.492,1169.27 676.549,1207.26 677.606,1207.52 678.663,1057.84 679.72,1058.22 680.777,1066.9 681.834,1067.3 682.891,1140.17 683.948,1140.46 685.004,1207.44 686.061,1207.6 687.118,934.984 688.175,935.336 689.232,1119.14 690.289,1119.46 691.346,1103.55 692.403,1103.87 693.459,707.225 694.516,707.863 695.573,1122.1 696.63,1122.38 697.687,1264.73 698.744,1264.9 699.801,1236.07 700.858,1236.27 701.914,1263.03 702.971,1263.16 704.028,1224.41 705.085,1224.63 706.142,1235.46 707.199,1235.62 708.256,895.091 709.313,895.563 710.369,1131.79 711.426,1132.11 712.483,920.255 713.54,920.524 714.597,1058.49 715.654,1058.67 716.711,1063.26 717.768,1063.65 718.824,1326.94 719.881,1327.05 720.938,1178.12 721.995,1178.43 723.052,1272.06 724.109,1272.19 725.166,1244.36 726.223,1244.49 727.279,1153.47 728.336,1153.73 729.393,1212.9 730.45,1213.07 731.507,1198.61 732.564,1198.8 733.621,1171.94 734.678,1172.15 735.734,1002.37 736.791,1002.59 737.848,1024.04 738.905,1024.51 739.962,1192.07 741.019,1192.28 742.076,1096.09 743.133,1096.51 744.189,1246.44 745.246,1246.63 746.303,894.429 747.36,894.695 748.417,1328.2 749.474,1328.36 750.531,1282.39 751.588,1282.5 752.644,1098.11 753.701,1098.41 754.758,1054.21 755.815,1054.42 756.872,1091.7 757.929,1091.82 758.986,1082.12 760.043,1082.24 761.1,1281.36 762.156,1281.47 763.213,990.291 764.27,990.471 765.327,1154.4 766.384,1154.71 767.441,825.136 768.498,825.78 769.555,912.968 770.611,913.574 771.668,1180.33 772.725,1180.5 773.782,1225.63 774.839,1225.79 775.896,1209.63 776.953,1209.78 778.01,1085.29 779.066,1085.62 780.123,936.755 781.18,937.092 782.237,750.719 783.294,751.262 784.351,1099.18 785.408,1099.44 786.465,1072.8 787.521,1073.18 788.578,1231.48 789.635,1231.61 790.692,1230.81 791.749,1230.95 792.806,1151.93 793.863,1152.2 794.92,1011.42 795.976,1011.59 797.033,1177.03 798.09,1177.22 799.147,1245.24 800.204,1245.37 801.261,1037.17 802.318,1037.36 803.375,1285.58 804.431,1285.69 805.488,982.959 806.545,983.166 807.602,1124.66 808.659,1124.86 809.716,1156.43 810.773,1156.72 811.83,1335.06 812.886,1335.14 813.943,937.611 815,937.91 816.057,1191.02 817.114,1191.21 818.171,890.091 819.228,890.469 820.285,1262.44 821.341,1262.58 822.398,1227.11 823.455,1227.24 824.512,1215.76 825.569,1215.98 826.626,1270.65 827.683,1270.79 828.74,1050.69 829.796,1050.94 830.853,1042.94 831.91,1043.35 832.967,1089.38 834.024,1089.72 835.081,1084.27 836.138,1084.52 837.195,1110.69 838.252,1110.8 839.308,972.875 840.365,973.105 841.422,660.34 842.479,661.183 843.536,891.349 844.593,891.873 845.65,1091.77 846.707,1092.15 847.763,690.042 848.82,690.6 849.877,1247.5 850.934,1247.62 851.991,1126.47 853.048,1126.59 854.105,1194.85 855.162,1195.11 856.218,1211.69 857.275,1211.87 858.332,1277.8 859.389,1277.91 860.446,1268.02 861.503,1268.15 862.56,1181.66 863.617,1181.86 864.673,1253.73 865.73,1253.85 866.787,1086 867.844,1086.31 868.901,1018.59 869.958,1018.81 871.015,1113.59 872.072,1113.7 873.128,875.907 874.185,876.212 875.242,1215.21 876.299,1215.34 877.356,1141.74 878.413,1141.94 879.47,1063.2 880.527,1063.66 881.583,1126.58 882.64,1126.77 883.697,672.454 884.754,673.167 885.811,905.247 886.868,905.645 887.925,1257.09 888.982,1257.33 890.038,1269.63 891.095,1269.73 892.152,1210.27 893.209,1210.52 894.266,547.334 895.323,548.011 896.38,1197.22 897.437,1197.37 898.493,1003.08 899.55,1003.28 900.607,1131.89 901.664,1132.09 902.721,1258.71 903.778,1258.81 904.835,1174.29 905.892,1174.52 906.948,1126.78 908.005,1127.02 909.062,950.884 910.119,951.057 911.176,1259.63 912.233,1259.79 913.29,1104.88 914.347,1104.98 915.404,1131.91 916.46,1132.11 917.517,1168.54 918.574,1168.69 919.631,1080.84 920.688,1081.26 921.745,946.79 922.802,947.811 923.859,1001.48 924.915,1001.73 925.972,877.595 927.029,877.862 928.086,944.107 929.143,944.451 930.2,1127.53 931.257,1127.78 932.314,1140.62 933.37,1140.89 934.427,1228.58 935.484,1228.7 936.541,911.937 937.598,912.149 938.655,860.096 939.712,860.629 940.769,802.319 941.825,802.773 942.882,1145.81 943.939,1146.02 944.996,1165.44 946.053,1165.63 947.11,819.047 948.167,819.423 949.224,1109.73 950.28,1109.99 951.337,1232.08 952.394,1232.25 953.451,1093.82 954.508,1094.13 955.565,981.419 956.622,981.645 957.679,1212.9 958.735,1213.06 959.792,677.802 960.849,678.256 961.906,1139.18 962.963,1139.41 964.02,1108.98 965.077,1109.22 966.134,1038.48 967.19,1038.9 968.247,1031.08 969.304,1031.33 970.361,1189.69 971.418,1189.85 972.475,1206 973.532,1206.21 974.589,1214.51 975.645,1214.67 976.702,1218.06 977.759,1218.14 978.816,1161.06 979.873,1161.24 980.93,1087.78 981.987,1087.99 983.044,1242.66 984.101,1242.77 985.157,949.13 986.214,949.467 987.271,969.703 988.328,969.909 989.385,1203.79 990.442,1203.92 991.499,1096.09 992.556,1096.41 993.612,1143.82 994.669,1144.07 995.726,1077.59 996.783,1077.71 997.84,1069.17 998.897,1069.4 999.954,840.054 1001.01,840.259 1002.07,1008.34 1003.12,1008.55 1004.18,933.305 1005.24,933.501 1006.29,1172.41 1007.35,1172.55 1008.41,1011.25 1009.47,1011.39 1010.52,1084.04 1011.58,1084.23 1012.64,1023.29 1013.69,1023.41 1014.75,1148.75 1015.81,1148.94 1016.86,1128.9 1017.92,1129.07 1018.98,1121.7 1020.03,1122.07 1021.09,1149.06 1022.15,1149.22 1023.2,915.551 1024.26,915.841 1025.32,1171.32 1026.38,1171.51 1027.43,1112.52 1028.49,1112.85 1029.55,1190.93 1030.6,1191.07 1031.66,1238.07 1032.72,1238.2 1033.77,1155.31 1034.83,1155.48 1035.89,1221.95 1036.94,1222.07 1038,1149.93 1039.06,1150.1 1040.11,1084.49 1041.17,1084.79 1042.23,1067.55 1043.29,1067.66 1044.34,1050.1 1045.4,1050.19 1046.46,989.798 1047.51,990.013 1048.57,1228.06 1049.63,1228.17 1050.68,989.655 1051.74,989.791 1052.8,1042.63 1053.85,1042.78 1054.91,881.786 1055.97,882.035 1057.02,1109.36 1058.08,1109.62 1059.14,1057.75 1060.2,1057.95 1061.25,1183.26 1062.31,1183.4 1063.37,1152.43 1064.42,1152.58 1065.48,1070.33 1066.54,1070.41 1067.59,1062.72 1068.65,1062.86 1069.71,963.851 1070.76,964.129 1071.82,1136.14 1072.88,1136.37 1073.94,1217.1 1074.99,1217.2 1076.05,1111.19 1077.11,1111.39 1078.16,1265.82 1079.22,1265.95 1080.28,1147.69 1081.33,1148.02 1082.39,1153.12 1083.45,1153.33 1084.5,704.868 1085.56,705.433 1086.62,1140.52 1087.67,1140.67 1088.73,991.118 1089.79,991.272 1090.85,957.461 1091.9,957.734 1092.96,1127.5 1094.02,1127.86 1095.07,953.739 1096.13,953.939 1097.19,1083.19 1098.24,1083.43 1099.3,1136.34 1100.36,1136.5 1101.41,1344.46 1102.47,1344.6 1103.53,1066.61 1104.58,1066.89 1105.64,1192.28 1106.7,1192.44 1107.76,1087.3 1108.81,1087.62 1109.87,863.212 1110.93,863.533 1111.98,903.369 1113.04,903.588 1114.1,1117.52 1115.15,1117.74 1116.21,1195.75 1117.27,1195.86 1118.32,1202.72 1119.38,1202.84 1120.44,848.681 1121.49,848.911 1122.55,650.283 1123.61,650.783 1124.67,1212.83 1125.72,1213.02 1126.78,1160.08 1127.84,1160.28 1128.89,1111.64 1129.95,1111.82 1131.01,859.875 1132.06,860.069 1133.12,1158.9 1134.18,1159.05 1135.23,1057.54 1136.29,1057.8 1137.35,1231.94 1138.4,1232.04 1139.46,1247.48 1140.52,1247.56 1141.58,1179.44 1142.63,1179.55 1143.69,1195.93 1144.75,1196.13 1145.8,1125.5 1146.86,1125.65 1147.92,1126.67 1148.97,1127.01 1150.03,961.259 1151.09,961.464 1152.14,959.784 1153.2,959.966 1154.26,1154.71 1155.31,1154.84 1156.37,1259.77 1157.43,1259.9 1158.49,1154.97 1159.54,1155.22 1160.6,914.467 1161.66,914.658 1162.71,1169.56 1163.77,1169.67 1164.83,1089.63 1165.88,1089.7 1166.94,1019.47 1168,1019.61 1169.05,1139.34 1170.11,1139.56 1171.17,964.617 1172.22,965.065 1173.28,818.402 1174.34,818.761 1175.4,1091.66 1176.45,1091.73 1177.51,1290.94 1178.57,1291.02 1179.62,1122.38 1180.68,1122.55 1181.74,833.825 1182.79,834.033 1183.85,1033.36 1184.91,1033.6 1185.96,1162.67 1187.02,1162.96 1188.08,1173.88 1189.13,1174.04 1190.19,979.872 1191.25,980.034 1192.31,1163.52 1193.36,1163.79 1194.42,1159.25 1195.48,1159.48 1196.53,1247.47 1197.59,1247.58 1198.65,850.584 1199.7,850.839 1200.76,1125.21 1201.82,1125.36 1202.87,1014.18 1203.93,1014.35 1204.99,1222.5 1206.04,1222.59 1207.1,1022.06 1208.16,1022.16 1209.22,798.651 1210.27,798.911 1211.33,1228.9 1212.39,1229.03 1213.44,1065.06 1214.5,1065.26 1215.56,87.9763 1216.61,89.556 1217.67,1135.82 1218.73,1136.06 1219.78,1197.68 1220.84,1197.77 1221.9,1136.06 1222.95,1136.22 1224.01,1239.19 1225.07,1239.3 1226.13,1018.12 1227.18,1018.22 1228.24,849.33 1229.3,849.612 1230.35,1248.69 1231.41,1248.81 1232.47,1230.02 1233.52,1230.21 1234.58,962.061 1235.64,962.285 1236.69,1168.25 1237.75,1168.39 1238.81,1140.28 1239.86,1140.41 1240.92,874.214 1241.98,874.398 1243.04,1255.51 1244.09,1255.63 1245.15,1058.76 1246.21,1058.85 1247.26,1078.19 1248.32,1078.45 1249.38,1065.92 1250.43,1066.22 1251.49,922.354 1252.55,922.525 1253.6,957.689 1254.66,957.81 1255.72,1087.26 1256.77,1087.36 1257.83,1210.11 1258.89,1210.27 1259.95,934.624 1261,934.762 1262.06,1170.07 1263.12,1170.19 1264.17,1021.65 1265.23,1021.8 1266.29,1113.89 1267.34,1114.08 1268.4,1118.63 1269.46,1118.8 1270.51,851.291 1271.57,851.47 1272.63,1134.12 1273.68,1134.31 1274.74,1014.99 1275.8,1015.09 1276.86,869.087 1277.91,869.287 1278.97,1046.95 1280.03,1047.05 1281.08,1134.21 1282.14,1134.36 1283.2,1019.62 1284.25,1020.01 1285.31,1200.98 1286.37,1201.12 1287.42,1242.03 1288.48,1242.14 1289.54,1099.79 1290.59,1099.98 1291.65,1145.85 1292.71,1145.96 1293.77,1140.35 1294.82,1140.48 1295.88,1179.55 1296.94,1179.65 1297.99,934.839 1299.05,934.981 1300.11,1028.43 1301.16,1028.53 1302.22,899.958 1303.28,900.432 1304.33,1083.18 1305.39,1083.25 1306.45,1137.06 1307.5,1137.17 1308.56,1064.28 1309.62,1064.4 1310.68,1227.12 1311.73,1227.2 1312.79,1008.66 1313.85,1008.77 1314.9,1161.31 1315.96,1161.44 1317.02,1083.09 1318.07,1083.48 1319.13,1156.71 1320.19,1156.84 1321.24,1053.7 1322.3,1053.93 1323.36,1152.16 1324.41,1152.34 1325.47,1241.63 1326.53,1241.71 1327.59,1167.17 1328.64,1167.31 1329.7,1110.65 1330.76,1110.82 1331.81,1151.06 1332.87,1151.16 1333.93,858.752 1334.98,858.949 1336.04,1012.57 1337.1,1012.64 1338.15,1152.31 1339.21,1152.48 1340.27,1181.09 1341.32,1181.22 1342.38,1217.75 1343.44,1217.84 1344.5,1099.64 1345.55,1099.89 1346.61,1136.03 1347.67,1136.2 1348.72,1203.12 1349.78,1203.21 1350.84,1227.11 1351.89,1227.2 1352.95,1137.93 1354.01,1138.2 1355.06,885.324 1356.12,885.696 1357.18,1199.84 1358.23,1199.99 1359.29,1088.8 1360.35,1088.92 1361.41,1081.32 1362.46,1081.64 1363.52,872.49 1364.58,872.692 1365.63,885.8 1366.69,886.014 1367.75,1201.08 1368.8,1201.18 1369.86,1189.74 1370.92,1189.88 1371.97,1169.18 1373.03,1169.4 1374.09,1247.13 1375.14,1247.21 1376.2,1186.56 1377.26,1186.65 1378.32,1016.45 1379.37,1016.61 1380.43,1170.71 1381.49,1170.85 1382.54,1182.23 1383.6,1182.37 1384.66,1231.12 1385.71,1231.21 1386.77,1025.48 1387.83,1025.55 1388.88,1257.53 1389.94,1257.63 1391,979.271 1392.05,979.428 1393.11,1073.53 1394.17,1073.63 1395.23,1124.41 1396.28,1124.56 1397.34,868.76 1398.4,868.969 1399.45,998.578 1400.51,998.719 1401.57,1183.73 1402.62,1183.89 1403.68,1239.7 1404.74,1239.79 1405.79,1003.24 1406.85,1003.31 1407.91,1181.22 1408.96,1181.36 1410.02,1221.7 1411.08,1221.83 1412.14,1152.19 1413.19,1152.36 1414.25,1189.77 1415.31,1189.92 1416.36,1029.97 1417.42,1030.07 1418.48,1163.34 1419.53,1163.44 1420.59,1063.65 1421.65,1063.71 1422.7,1052.71 1423.76,1052.79 1424.82,1071.16 1425.87,1071.27 1426.93,1241.82 1427.99,1242 1429.05,1226.51 1430.1,1226.6 1431.16,1114.78 1432.22,1114.98 1433.27,969.78 1434.33,969.924 1435.39,1182.27 1436.44,1182.35 1437.5,963.187 1438.56,963.367 1439.61,1136.63 1440.67,1136.73 1441.73,1180.42 1442.79,1180.53 1443.84,951.572 1444.9,951.753 1445.96,1146.93 1447.01,1147.05 1448.07,925.155 1449.13,925.475 1450.18,1013.67 1451.24,1013.77 1452.3,1140.26 1453.35,1140.48 1454.41,866.464 1455.47,866.683 1456.52,1033.01 1457.58,1033.1 1458.64,1076.11 1459.7,1076.27 1460.75,880.978 1461.81,881.147 1462.87,1163.91 1463.92,1164.01 1464.98,1211.26 1466.04,1211.35 1467.09,1166.91 1468.15,1167.03 1469.21,880.67 1470.26,880.826 1471.32,1094.5 1472.38,1094.74 1473.43,1133.26 1474.49,1133.37 1475.55,1129.89 1476.61,1130 1477.66,1038.43 1478.72,1038.51 1479.78,868.408 1480.83,868.605 1481.89,1180.07 1482.95,1180.19 1484,996.441 1485.06,996.528 1486.12,1008.35 1487.17,1008.65 1488.23,1180.61 1489.29,1180.69 1490.34,1001.93 1491.4,1002.05 1492.46,1195.57 1493.52,1195.64 1494.57,1180.07 1495.63,1180.18 1496.69,1245.93 1497.74,1246.05 1498.8,1140.33 1499.86,1140.42 1500.91,1149.35 1501.97,1149.51 1503.03,782.78 1504.08,783.062 1505.14,956.993 1506.2,957.163 1507.25,1192.6 1508.31,1192.69 1509.37,1041.63 1510.43,1041.72 1511.48,1079.45 1512.54,1079.64 1513.6,1157.31 1514.65,1157.4 1515.71,970.987 1516.77,971.185 1517.82,998.757 1518.88,998.873 1519.94,1214.72 1520.99,1214.83 1522.05,1236.29 1523.11,1236.39 1524.16,1088 1525.22,1088.15 1526.28,1182.83 1527.34,1182.97 1528.39,1031.72 1529.45,1031.79 1530.51,1179.85 1531.56,1179.96 1532.62,962.959 1533.68,963.246 1534.73,834.602 1535.79,834.856 1536.85,1184.16 1537.9,1184.27 1538.96,1172.52 1540.02,1172.61 1541.07,1106.81 1542.13,1106.94 1543.19,1213.06 1544.25,1213.14 1545.3,1133.31 1546.36,1133.49 1547.42,1159.85 1548.47,1160 1549.53,1247.65 1550.59,1247.8 1551.64,1003.59 1552.7,1003.76 1553.76,1192.45 1554.81,1192.53 1555.87,1132.85 1556.93,1132.97 1557.98,1200.85 1559.04,1200.96 1560.1,1074.24 1561.16,1074.45 1562.21,1132.4 1563.27,1132.53 1564.33,1144.63 1565.38,1144.75 1566.44,1215.83 1567.5,1215.92 1568.55,1202.32 1569.61,1202.42 1570.67,1086.71 1571.72,1086.95 1572.78,823.068 1573.84,823.22 1574.89,1172.88 1575.95,1173.01 1577.01,1179.43 1578.07,1179.76 1579.12,1172.02 1580.18,1172.24 1581.24,887.255 1582.29,887.418 1583.35,1256.07 1584.41,1256.17 1585.46,1106.54 1586.52,1106.71 1587.58,963.885 1588.63,964.071 1589.69,1186.92 1590.75,1187.01 1591.8,1188.09 1592.86,1188.18 1593.92,966.911 1594.98,966.999 1596.03,1016.05 1597.09,1016.13 1598.15,1178.25 1599.2,1178.35 1600.26,987.933 1601.32,988.221 1602.37,1234.64 1603.43,1234.71 1604.49,1155.04 1605.54,1155.14 1606.6,824.894 1607.66,825.056 1608.71,1210.71 1609.77,1210.78 1610.83,1150.25 1611.89,1150.36 1612.94,1219.08 1614,1219.18 1615.06,1204.49 1616.11,1204.61 1617.17,1167.94 1618.23,1168.08 1619.28,932.398 1620.34,932.629 1621.4,948.105 1622.45,948.247 1623.51,998.981 1624.57,999.04 1625.62,1004.89 1626.68,1004.96 1627.74,1237.4 1628.8,1237.46 1629.85,1137.26 1630.91,1137.36 1631.97,1041.79 1633.02,1041.86 1634.08,1133.44 1635.14,1133.54 1636.19,968.15 1637.25,968.338 1638.31,1190.07 1639.36,1190.18 1640.42,1000.54 1641.48,1000.68 1642.53,1098.72 1643.59,1098.94 1644.65,982.916 1645.71,982.985 1646.76,1006.81 1647.82,1006.87 1648.88,1024.08 1649.93,1024.14 1650.99,1174.83 1652.05,1174.93 1653.1,775.449 1654.16,775.782 1655.22,1126.94 1656.27,1127.08 1657.33,1154.58 1658.39,1154.75 1659.44,1153.69 1660.5,1153.79 1661.56,1003.56 1662.62,1003.66 1663.67,1173.18 1664.73,1173.34 1665.79,1170.26 1666.84,1170.34 1667.9,1135.32 1668.96,1135.46 1670.01,986.962 1671.07,987.101 1672.13,861.948 1673.18,862.268 1674.24,1134.07 1675.3,1134.19 1676.35,1148.16 1677.41,1148.34 1678.47,853.475 1679.53,853.653 1680.58,1031.46 1681.64,1031.74 1682.7,1143.68 1683.75,1143.86 1684.81,1181.72 1685.87,1181.78 1686.92,1177.56 1687.98,1177.7 1689.04,1140.86 1690.09,1141.02 1691.15,969.021 1692.21,969.194 1693.26,965.658 1694.32,965.817 1695.38,991.405 1696.44,991.589 1697.49,1174.44 1698.55,1174.62 1699.61,1139.29 1700.66,1139.39 1701.72,1183.42 1702.78,1183.49 1703.83,864.397 1704.89,864.574 1705.95,878.49 1707,878.773 1708.06,1157.12 1709.12,1157.2 1710.17,1228.7 1711.23,1228.79 1712.29,1131.52 1713.35,1131.72 1714.4,1226.35 1715.46,1226.49 1716.52,1067 1717.57,1067.08 1718.63,1177.97 1719.69,1178.04 1720.74,988.773 1721.8,988.899 1722.86,1243.66 1723.91,1243.81 1724.97,1007.34 1726.03,1007.41 1727.08,791.472 1728.14,791.708 1729.2,1165.6 1730.26,1165.67 1731.31,1129.9 1732.37,1130.04 1733.43,1125.09 1734.48,1125.23 1735.54,966.09 1736.6,966.177 1737.65,1217.56 1738.71,1217.62 1739.77,892.622 1740.82,892.782 1741.88,1116.35 1742.94,1116.48 1743.99,943.864 1745.05,944.033 1746.11,1153.15 1747.17,1153.32 1748.22,984.204 1749.28,984.314 1750.34,1172.23 1751.39,1172.35 1752.45,1162.87 1753.51,1162.95 1754.56,1066.29 1755.62,1066.38 1756.68,828.829 1757.73,829.175 1758.79,999.892 1759.85,999.961 1760.9,1201.15 1761.96,1201.38 1763.02,1125.91 1764.08,1126.07 1765.13,1155.27 1766.19,1155.36 1767.25,952.478 1768.3,952.551 1769.36,1218.62 1770.42,1218.77 1771.47,1030.45 1772.53,1030.58 1773.59,999.551 1774.64,999.629 1775.7,1187.52 1776.76,1187.7 1777.81,1076.56 1778.87,1076.65 1779.93,1205.79 1780.99,1205.93 1782.04,994.236 1783.1,994.302 1784.16,1210.95 1785.21,1211.05 1786.27,1028.49 1787.33,1028.55 1788.38,1145.55 1789.44,1145.64 1790.5,1156.96 1791.55,1157.03 1792.61,1042.35 1793.67,1042.47 1794.72,988.085 1795.78,988.29 1796.84,1164.45 1797.9,1164.62 1798.95,1189.45 1800.01,1189.56 1801.07,1135.34 1802.12,1135.51 1803.18,1043.69 1804.24,1043.81 1805.29,1153.82 1806.35,1153.97 1807.41,1197.79 1808.46,1197.93 1809.52,1186.69 1810.58,1186.77 1811.64,1072.23 1812.69,1072.3 1813.75,749.812 1814.81,750.282 1815.86,1187.56 1816.92,1187.78 1817.98,1170.68 1819.03,1170.81 1820.09,1186.79 1821.15,1186.85 1822.2,1224.96 1823.26,1225.03 1824.32,714.659 1825.37,715.089 1826.43,852.377 1827.49,852.555 1828.55,960.071 1829.6,960.195 1830.66,1245.5 1831.72,1245.59 1832.77,1018.61 1833.83,1018.66 1834.89,1020.51 1835.94,1020.57 1837,1165.12 1838.06,1165.24 1839.11,1043.11 1840.17,1043.16 1841.23,1167.56 1842.28,1167.65 1843.34,1203.21 1844.4,1203.31 1845.46,1187.65 1846.51,1187.71 1847.57,1104.29 1848.63,1104.6 1849.68,1014.63 1850.74,1014.74 1851.8,1244.94 1852.85,1245 1853.91,1141.8 1854.97,1141.87 1856.02,888.473 1857.08,888.623 1858.14,1065.52 1859.19,1065.6 1860.25,1180.19 1861.31,1180.25 1862.37,1197.38 1863.42,1197.5 1864.48,1184.64 1865.54,1184.72 1866.59,1145.4 1867.65,1145.47 1868.71,1007.51 1869.76,1007.68 1870.82,1142.54 1871.88,1142.63 1872.93,1120.43 1873.99,1120.61 1875.05,1006.94 1876.1,1007.02 1877.16,1099.9 1878.22,1099.95 1879.28,1099.62 1880.33,1099.75 1881.39,1006.25 1882.45,1006.37 1883.5,1170.83 1884.56,1170.95 1885.62,1197.91 1886.67,1197.97 1887.73,1044.66 1888.79,1044.72 1889.84,1082.13 1890.9,1082.34 1891.96,1153.04 1893.01,1153.19 1894.07,1177.34 1895.13,1177.42 1896.19,686.124 1897.24,686.511 1898.3,1128.16 1899.36,1128.31 1900.41,1044.65 1901.47,1044.73 1902.53,1137.68 1903.58,1137.85 1904.64,1208.22 1905.7,1208.39 1906.75,1000.29 1907.81,1000.44 1908.87,1174.8 1909.92,1174.98 1910.98,1235.7 1912.04,1235.78 1913.1,1235.8 1914.15,1235.85 1915.21,1078.86 1916.27,1079.12 1917.32,1139.88 1918.38,1139.97 1919.44,1164.47 1920.49,1164.63 1921.55,1199.97 1922.61,1200.02 1923.66,981.607 1924.72,981.691 1925.78,1146.38 1926.83,1146.5 1927.89,1172.85 1928.95,1172.93 1930.01,1153.85 1931.06,1153.91 1932.12,1111.42 1933.18,1111.74 1934.23,863.094 1935.29,863.234 1936.35,1177.03 1937.4,1177.09 1938.46,1037.77 1939.52,1037.87 1940.57,1132.37 1941.63,1132.44 1942.69,831.885 1943.74,832.09 1944.8,1182.7 1945.86,1182.83 1946.92,1049.4 1947.97,1049.45 1949.03,832.19 1950.09,832.43 1951.14,959.975 1952.2,960.101 1953.26,979.892 1954.31,980.01 1955.37,1164.49 1956.43,1164.59 1957.48,858.405 1958.54,858.739 1959.6,1050.34 1960.65,1050.41 1961.71,997.403 1962.77,997.456 1963.83,1168.67 1964.88,1168.84 1965.94,1148.1 1967,1148.17 1968.05,1139.44 1969.11,1139.53 1970.17,1004.68 1971.22,1004.74 1972.28,1169.61 1973.34,1169.71 1974.39,1156.75 1975.45,1156.88 1976.51,1127.5 1977.56,1127.59 1978.62,1056.63 1979.68,1056.68 1980.74,986.348 1981.79,986.43 1982.85,725.812 1983.91,726.136 1984.96,1142.14 1986.02,1142.21 1987.08,1182.44 1988.13,1182.5 1989.19,871.035 1990.25,871.173 1991.3,1151.04 1992.36,1151.1 1993.42,1077.75 1994.47,1077.87 1995.53,999.477 1996.59,999.535 1997.65,1039.16 1998.7,1039.21 1999.76,1000.36 2000.82,1000.41 2001.87,1158.83 2002.93,1158.88 2003.99,1141.48 2005.04,1141.66 2006.1,1202.01 2007.16,1202.08 2008.21,1037.44 2009.27,1037.51 2010.33,1157.56 2011.38,1157.71 2012.44,1183.12 2013.5,1183.19 2014.56,1244.39 2015.61,1244.43 2016.67,1176.25 2017.73,1176.31 2018.78,942.244 2019.84,942.383 2020.9,1154.5 2021.95,1154.65 2023.01,1135.69 2024.07,1135.82 2025.12,1012.47 2026.18,1012.52 2027.24,1192.88 2028.29,1192.96 2029.35,1081.87 2030.41,1081.97 2031.47,1193.54 2032.52,1193.63 2033.58,1171.1 2034.64,1171.22 2035.69,1132.42 2036.75,1132.58 2037.81,973.259 2038.86,973.349 2039.92,1117.62 2040.98,1117.8 2042.03,1223.19 2043.09,1223.25 2044.15,1024.76 2045.2,1024.81 2046.26,1028.65 2047.32,1028.72 2048.38,1176.03 2049.43,1176.1 2050.49,996.819 2051.55,996.882 2052.6,1210.53 2053.66,1210.58 2054.72,1063.45 2055.77,1063.51 2056.83,1172.31 2057.89,1172.54 2058.94,1167.44 2060,1167.49 2061.06,1143.6 2062.11,1143.66 2063.17,1200.31 2064.23,1200.37 2065.29,1174.5 2066.34,1174.56 2067.4,1147.92 2068.46,1148.02 2069.51,1002.85 2070.57,1002.94 2071.63,1180.92 2072.68,1181.07 2073.74,1027.6 2074.8,1027.67 2075.85,1204.58 2076.91,1204.62 2077.97,1065.8 2079.02,1065.85 2080.08,1069.94 2081.14,1070.06 2082.2,1163.62 2083.25,1163.73 2084.31,1133.47 2085.37,1133.6 2086.42,1170.29 2087.48,1170.4 2088.54,855.872 2089.59,856.022 2090.65,1158.86 2091.71,1158.96 2092.76,1049.94 2093.82,1050.02 2094.88,1174.96 2095.93,1175.01 2096.99,1136.45 2098.05,1136.57 2099.11,1175.42 2100.16,1175.47 2101.22,1158.8 2102.28,1158.86 2103.33,1068.21 2104.39,1068.31 2105.45,1084.76 2106.5,1084.81 2107.56,1216.19 2108.62,1216.34 2109.67,1208.05 2110.73,1208.1 2111.79,1282.11 2112.84,1282.14 2113.9,1232.93 2114.96,1232.99 2116.02,1198.95 2117.07,1198.99 2118.13,1187.5 2119.19,1187.61 2120.24,1182.04 2121.3,1182.14 2122.36,1124.17 2123.41,1124.28 2124.47,1164.43 2125.53,1164.49 2126.58,1156.27 2127.64,1156.4 2128.7,1170.09 2129.75,1170.16 2130.81,1136.25 2131.87,1136.35 2132.93,1058.83 2133.98,1058.88 2135.04,1158.13 2136.1,1158.2 2137.15,1131.31 2138.21,1131.39 2139.27,1054.49 2140.32,1054.56 2141.38,1203.38 2142.44,1203.44 2143.49,1175.08 2144.55,1175.19 2145.61,1219.32 2146.66,1219.4 2147.72,1212.18 2148.78,1212.23 2149.84,1172.17 2150.89,1172.27 2151.95,1009.27 2153.01,1009.34 2154.06,1162.67 2155.12,1162.73 2156.18,1204.97 2157.23,1205.02 2158.29,815.584 2159.35,815.746 2160.4,1201.82 2161.46,1201.92 2162.52,1217.65 2163.57,1217.7 2164.63,1225.18 2165.69,1225.25 2166.75,1165.99 2167.8,1166.03 2168.86,977.888 2169.92,977.961 2170.97,1188.99 2172.03,1189.06 2173.09,1206.35 2174.14,1206.41 2175.2,1142.81 2176.26,1142.86 2177.31,1273.44 2178.37,1273.49 2179.43,1221.45 2180.48,1221.51 2181.54,1170.44 2182.6,1170.53 2183.66,1164.97 2184.71,1165.06 2185.77,1181.25 2186.83,1181.33 2187.88,1174.15 2188.94,1174.24 2190,1169.6 2191.05,1169.66 2192.11,733.996 2193.17,734.478 2194.22,971.231 2195.28,971.436 2196.34,1016.74 2197.4,1016.79 2198.45,1167.22 2199.51,1167.3 2200.57,1174.07 2201.62,1174.13 2202.68,1159.95 2203.74,1160.08 2204.79,968.331 2205.85,968.395 2206.91,1176.59 2207.96,1176.64 2209.02,992.457 2210.08,992.57 2211.13,1235.64 2212.19,1235.69 2213.25,1189 2214.31,1189.08 2215.36,1201.22 2216.42,1201.28 2217.48,1138.28 2218.53,1138.42 2219.59,1168.85 2220.65,1168.93 2221.7,1189.99 2222.76,1190.1 2223.82,1028.72 2224.87,1028.77 2225.93,1202.88 2226.99,1202.92 2228.04,1155.07 2229.1,1155.12 2230.16,1046.7 2231.22,1046.74 2232.27,878.952 2233.33,879.099 2234.39,1147.57 2235.44,1147.64 2236.5,1212.77 2237.56,1212.82 2238.61,1220.92 2239.67,1221.02 2240.73,1192.65 2241.78,1192.73 2242.84,995.3 2243.9,995.346 2244.95,1191.21 2246.01,1191.26 2247.07,1241.99 2248.13,1242.04 2249.18,1203.3 2250.24,1203.36 2251.3,954.932 2252.35,955.045 2253.41,1041.42 2254.47,1041.5 2255.52,1043.37 2256.58,1043.47 2257.64,1157.72 2258.69,1157.8 2259.75,1193.05 2260.81,1193.18 2261.86,991.547 2262.92,991.605 2263.98,1037.38 2265.04,1037.49 2266.09,1163.83 2267.15,1163.96 2268.21,1241.04 2269.26,1241.13 2270.32,1145.66 2271.38,1145.78 2272.43,648.574 2273.49,649.112 2274.55,991.872 2275.6,991.937 2276.66,1055.37 2277.72,1055.48 2278.77,1191.23 2279.83,1191.29 2280.89,995.691 2281.95,995.784 2283,1219.37 2284.06,1219.43 2285.12,1212.64 2286.17,1212.68 2287.23,1159.91 2288.29,1160.02 2289.34,1160.13 "/>
<path clip-path="url(#clip130)" d="M2001.58 198.898 L2278.07 198.898 L2278.07 95.2176 L2001.58 95.2176  Z" fill="#ffffff" fill-rule="evenodd" fill-opacity="1"/>
<polyline clip-path="url(#clip130)" style="stroke:#000000; stroke-linecap:round; stroke-linejoin:round; stroke-width:4; stroke-opacity:1; fill:none" points="2001.58,198.898 2278.07,198.898 2278.07,95.2176 2001.58,95.2176 2001.58,198.898 "/>
<polyline clip-path="url(#clip130)" style="stroke:#009af9; stroke-linecap:round; stroke-linejoin:round; stroke-width:4; stroke-opacity:1; fill:none" points="2026.48,147.058 2175.85,147.058 "/>
<path clip-path="url(#clip130)" d="M2214.59 166.745 Q2212.78 171.375 2211.07 172.787 Q2209.36 174.199 2206.49 174.199 L2203.08 174.199 L2203.08 170.634 L2205.58 170.634 Q2207.34 170.634 2208.31 169.8 Q2209.29 168.967 2210.47 165.865 L2211.23 163.921 L2200.74 138.412 L2205.26 138.412 L2213.36 158.689 L2221.46 138.412 L2225.98 138.412 L2214.59 166.745 Z" fill="#000000" fill-rule="nonzero" fill-opacity="1" /><path clip-path="url(#clip130)" d="M2233.27 160.402 L2240.91 160.402 L2240.91 134.037 L2232.6 135.703 L2232.6 131.444 L2240.86 129.778 L2245.54 129.778 L2245.54 160.402 L2253.17 160.402 L2253.17 164.338 L2233.27 164.338 L2233.27 160.402 Z" fill="#000000" fill-rule="nonzero" fill-opacity="1" /></svg>
