<?xml version="1.0" encoding="utf-8"?>
<svg xmlns="http://www.w3.org/2000/svg" xmlns:xlink="http://www.w3.org/1999/xlink" width="600" height="400" viewBox="0 0 2400 1600">
<defs>
  <clipPath id="clip100">
    <rect x="0" y="0" width="2400" height="1600"/>
  </clipPath>
</defs>
<path clip-path="url(#clip100)" d="M0 1600 L2400 1600 L2400 0 L0 0  Z" fill="#ffffff" fill-rule="evenodd" fill-opacity="1"/>
<defs>
  <clipPath id="clip101">
    <rect x="480" y="0" width="1681" height="1600"/>
  </clipPath>
</defs>
<path clip-path="url(#clip100)" d="M112.177 1486.45 L2352.76 1486.45 L2352.76 47.2441 L112.177 47.2441  Z" fill="#ffffff" fill-rule="evenodd" fill-opacity="1"/>
<defs>
  <clipPath id="clip102">
    <rect x="112" y="47" width="2242" height="1440"/>
  </clipPath>
</defs>
<polyline clip-path="url(#clip102)" style="stroke:#000000; stroke-linecap:round; stroke-linejoin:round; stroke-width:2; stroke-opacity:0.1; fill:none" points="175.59,1486.45 175.59,47.2441 "/>
<polyline clip-path="url(#clip102)" style="stroke:#000000; stroke-linecap:round; stroke-linejoin:round; stroke-width:2; stroke-opacity:0.1; fill:none" points="704.028,1486.45 704.028,47.2441 "/>
<polyline clip-path="url(#clip102)" style="stroke:#000000; stroke-linecap:round; stroke-linejoin:round; stroke-width:2; stroke-opacity:0.1; fill:none" points="1232.47,1486.45 1232.47,47.2441 "/>
<polyline clip-path="url(#clip102)" style="stroke:#000000; stroke-linecap:round; stroke-linejoin:round; stroke-width:2; stroke-opacity:0.1; fill:none" points="1760.9,1486.45 1760.9,47.2441 "/>
<polyline clip-path="url(#clip102)" style="stroke:#000000; stroke-linecap:round; stroke-linejoin:round; stroke-width:2; stroke-opacity:0.1; fill:none" points="2289.34,1486.45 2289.34,47.2441 "/>
<polyline clip-path="url(#clip100)" style="stroke:#000000; stroke-linecap:round; stroke-linejoin:round; stroke-width:4; stroke-opacity:1; fill:none" points="112.177,1486.45 2352.76,1486.45 "/>
<polyline clip-path="url(#clip100)" style="stroke:#000000; stroke-linecap:round; stroke-linejoin:round; stroke-width:4; stroke-opacity:1; fill:none" points="175.59,1486.45 175.59,1467.55 "/>
<polyline clip-path="url(#clip100)" style="stroke:#000000; stroke-linecap:round; stroke-linejoin:round; stroke-width:4; stroke-opacity:1; fill:none" points="704.028,1486.45 704.028,1467.55 "/>
<polyline clip-path="url(#clip100)" style="stroke:#000000; stroke-linecap:round; stroke-linejoin:round; stroke-width:4; stroke-opacity:1; fill:none" points="1232.47,1486.45 1232.47,1467.55 "/>
<polyline clip-path="url(#clip100)" style="stroke:#000000; stroke-linecap:round; stroke-linejoin:round; stroke-width:4; stroke-opacity:1; fill:none" points="1760.9,1486.45 1760.9,1467.55 "/>
<polyline clip-path="url(#clip100)" style="stroke:#000000; stroke-linecap:round; stroke-linejoin:round; stroke-width:4; stroke-opacity:1; fill:none" points="2289.34,1486.45 2289.34,1467.55 "/>
<path clip-path="url(#clip100)" d="M175.59 1517.37 Q171.979 1517.37 170.15 1520.93 Q168.344 1524.47 168.344 1531.6 Q168.344 1538.71 170.15 1542.27 Q171.979 1545.82 175.59 1545.82 Q179.224 1545.82 181.03 1542.27 Q182.858 1538.71 182.858 1531.6 Q182.858 1524.47 181.03 1520.93 Q179.224 1517.37 175.59 1517.37 M175.59 1513.66 Q181.4 1513.66 184.455 1518.27 Q187.534 1522.85 187.534 1531.6 Q187.534 1540.33 184.455 1544.94 Q181.4 1549.52 175.59 1549.52 Q169.78 1549.52 166.701 1544.94 Q163.645 1540.33 163.645 1531.6 Q163.645 1522.85 166.701 1518.27 Q169.78 1513.66 175.59 1513.66 Z" fill="#000000" fill-rule="nonzero" fill-opacity="1" /><path clip-path="url(#clip100)" d="M663.646 1514.29 L682.003 1514.29 L682.003 1518.22 L667.929 1518.22 L667.929 1526.7 Q668.947 1526.35 669.966 1526.19 Q670.984 1526 672.003 1526 Q677.79 1526 681.169 1529.17 Q684.549 1532.34 684.549 1537.76 Q684.549 1543.34 681.077 1546.44 Q677.605 1549.52 671.285 1549.52 Q669.109 1549.52 666.841 1549.15 Q664.596 1548.78 662.188 1548.04 L662.188 1543.34 Q664.271 1544.47 666.494 1545.03 Q668.716 1545.58 671.193 1545.58 Q675.197 1545.58 677.535 1543.48 Q679.873 1541.37 679.873 1537.76 Q679.873 1534.15 677.535 1532.04 Q675.197 1529.94 671.193 1529.94 Q669.318 1529.94 667.443 1530.35 Q665.591 1530.77 663.646 1531.65 L663.646 1514.29 Z" fill="#000000" fill-rule="nonzero" fill-opacity="1" /><path clip-path="url(#clip100)" d="M703.762 1517.37 Q700.151 1517.37 698.322 1520.93 Q696.517 1524.47 696.517 1531.6 Q696.517 1538.71 698.322 1542.27 Q700.151 1545.82 703.762 1545.82 Q707.396 1545.82 709.202 1542.27 Q711.03 1538.71 711.03 1531.6 Q711.03 1524.47 709.202 1520.93 Q707.396 1517.37 703.762 1517.37 M703.762 1513.66 Q709.572 1513.66 712.628 1518.27 Q715.706 1522.85 715.706 1531.6 Q715.706 1540.33 712.628 1544.94 Q709.572 1549.52 703.762 1549.52 Q697.952 1549.52 694.873 1544.94 Q691.818 1540.33 691.818 1531.6 Q691.818 1522.85 694.873 1518.27 Q697.952 1513.66 703.762 1513.66 Z" fill="#000000" fill-rule="nonzero" fill-opacity="1" /><path clip-path="url(#clip100)" d="M733.924 1517.37 Q730.313 1517.37 728.484 1520.93 Q726.679 1524.47 726.679 1531.6 Q726.679 1538.71 728.484 1542.27 Q730.313 1545.82 733.924 1545.82 Q737.558 1545.82 739.364 1542.27 Q741.192 1538.71 741.192 1531.6 Q741.192 1524.47 739.364 1520.93 Q737.558 1517.37 733.924 1517.37 M733.924 1513.66 Q739.734 1513.66 742.79 1518.27 Q745.868 1522.85 745.868 1531.6 Q745.868 1540.33 742.79 1544.94 Q739.734 1549.52 733.924 1549.52 Q728.114 1549.52 725.035 1544.94 Q721.979 1540.33 721.979 1531.6 Q721.979 1522.85 725.035 1518.27 Q728.114 1513.66 733.924 1513.66 Z" fill="#000000" fill-rule="nonzero" fill-opacity="1" /><path clip-path="url(#clip100)" d="M1176.99 1544.91 L1184.63 1544.91 L1184.63 1518.55 L1176.32 1520.21 L1176.32 1515.95 L1184.58 1514.29 L1189.26 1514.29 L1189.26 1544.91 L1196.9 1544.91 L1196.9 1548.85 L1176.99 1548.85 L1176.99 1544.91 Z" fill="#000000" fill-rule="nonzero" fill-opacity="1" /><path clip-path="url(#clip100)" d="M1216.34 1517.37 Q1212.73 1517.37 1210.9 1520.93 Q1209.1 1524.47 1209.1 1531.6 Q1209.1 1538.71 1210.9 1542.27 Q1212.73 1545.82 1216.34 1545.82 Q1219.98 1545.82 1221.78 1542.27 Q1223.61 1538.71 1223.61 1531.6 Q1223.61 1524.47 1221.78 1520.93 Q1219.98 1517.37 1216.34 1517.37 M1216.34 1513.66 Q1222.15 1513.66 1225.21 1518.27 Q1228.29 1522.85 1228.29 1531.6 Q1228.29 1540.33 1225.21 1544.94 Q1222.15 1549.52 1216.34 1549.52 Q1210.53 1549.52 1207.46 1544.94 Q1204.4 1540.33 1204.4 1531.6 Q1204.4 1522.85 1207.46 1518.27 Q1210.53 1513.66 1216.34 1513.66 Z" fill="#000000" fill-rule="nonzero" fill-opacity="1" /><path clip-path="url(#clip100)" d="M1246.51 1517.37 Q1242.89 1517.37 1241.07 1520.93 Q1239.26 1524.47 1239.26 1531.6 Q1239.26 1538.71 1241.07 1542.27 Q1242.89 1545.82 1246.51 1545.82 Q1250.14 1545.82 1251.95 1542.27 Q1253.77 1538.71 1253.77 1531.6 Q1253.77 1524.47 1251.95 1520.93 Q1250.14 1517.37 1246.51 1517.37 M1246.51 1513.66 Q1252.32 1513.66 1255.37 1518.27 Q1258.45 1522.85 1258.45 1531.6 Q1258.45 1540.33 1255.37 1544.94 Q1252.32 1549.52 1246.51 1549.52 Q1240.7 1549.52 1237.62 1544.94 Q1234.56 1540.33 1234.56 1531.6 Q1234.56 1522.85 1237.62 1518.27 Q1240.7 1513.66 1246.51 1513.66 Z" fill="#000000" fill-rule="nonzero" fill-opacity="1" /><path clip-path="url(#clip100)" d="M1276.67 1517.37 Q1273.06 1517.37 1271.23 1520.93 Q1269.42 1524.47 1269.42 1531.6 Q1269.42 1538.71 1271.23 1542.27 Q1273.06 1545.82 1276.67 1545.82 Q1280.3 1545.82 1282.11 1542.27 Q1283.94 1538.71 1283.94 1531.6 Q1283.94 1524.47 1282.11 1520.93 Q1280.3 1517.37 1276.67 1517.37 M1276.67 1513.66 Q1282.48 1513.66 1285.53 1518.27 Q1288.61 1522.85 1288.61 1531.6 Q1288.61 1540.33 1285.53 1544.94 Q1282.48 1549.52 1276.67 1549.52 Q1270.86 1549.52 1267.78 1544.94 Q1264.72 1540.33 1264.72 1531.6 Q1264.72 1522.85 1267.78 1518.27 Q1270.86 1513.66 1276.67 1513.66 Z" fill="#000000" fill-rule="nonzero" fill-opacity="1" /><path clip-path="url(#clip100)" d="M1705.43 1544.91 L1713.07 1544.91 L1713.07 1518.55 L1704.76 1520.21 L1704.76 1515.95 L1713.02 1514.29 L1717.7 1514.29 L1717.7 1544.91 L1725.34 1544.91 L1725.34 1548.85 L1705.43 1548.85 L1705.43 1544.91 Z" fill="#000000" fill-rule="nonzero" fill-opacity="1" /><path clip-path="url(#clip100)" d="M1734.83 1514.29 L1753.19 1514.29 L1753.19 1518.22 L1739.11 1518.22 L1739.11 1526.7 Q1740.13 1526.35 1741.15 1526.19 Q1742.17 1526 1743.19 1526 Q1748.97 1526 1752.35 1529.17 Q1755.73 1532.34 1755.73 1537.76 Q1755.73 1543.34 1752.26 1546.44 Q1748.79 1549.52 1742.47 1549.52 Q1740.29 1549.52 1738.02 1549.15 Q1735.78 1548.78 1733.37 1548.04 L1733.37 1543.34 Q1735.45 1544.47 1737.68 1545.03 Q1739.9 1545.58 1742.37 1545.58 Q1746.38 1545.58 1748.72 1543.48 Q1751.06 1541.37 1751.06 1537.76 Q1751.06 1534.15 1748.72 1532.04 Q1746.38 1529.94 1742.37 1529.94 Q1740.5 1529.94 1738.62 1530.35 Q1736.77 1530.77 1734.83 1531.65 L1734.83 1514.29 Z" fill="#000000" fill-rule="nonzero" fill-opacity="1" /><path clip-path="url(#clip100)" d="M1774.94 1517.37 Q1771.33 1517.37 1769.5 1520.93 Q1767.7 1524.47 1767.7 1531.6 Q1767.7 1538.71 1769.5 1542.27 Q1771.33 1545.82 1774.94 1545.82 Q1778.58 1545.82 1780.38 1542.27 Q1782.21 1538.71 1782.21 1531.6 Q1782.21 1524.47 1780.38 1520.93 Q1778.58 1517.37 1774.94 1517.37 M1774.94 1513.66 Q1780.75 1513.66 1783.81 1518.27 Q1786.89 1522.85 1786.89 1531.6 Q1786.89 1540.33 1783.81 1544.94 Q1780.75 1549.52 1774.94 1549.52 Q1769.13 1549.52 1766.06 1544.94 Q1763 1540.33 1763 1531.6 Q1763 1522.85 1766.06 1518.27 Q1769.13 1513.66 1774.94 1513.66 Z" fill="#000000" fill-rule="nonzero" fill-opacity="1" /><path clip-path="url(#clip100)" d="M1805.11 1517.37 Q1801.49 1517.37 1799.67 1520.93 Q1797.86 1524.47 1797.86 1531.6 Q1797.86 1538.71 1799.67 1542.27 Q1801.49 1545.82 1805.11 1545.82 Q1808.74 1545.82 1810.55 1542.27 Q1812.37 1538.71 1812.37 1531.6 Q1812.37 1524.47 1810.55 1520.93 Q1808.74 1517.37 1805.11 1517.37 M1805.11 1513.66 Q1810.92 1513.66 1813.97 1518.27 Q1817.05 1522.85 1817.05 1531.6 Q1817.05 1540.33 1813.97 1544.94 Q1810.92 1549.52 1805.11 1549.52 Q1799.3 1549.52 1796.22 1544.94 Q1793.16 1540.33 1793.16 1531.6 Q1793.16 1522.85 1796.22 1518.27 Q1799.3 1513.66 1805.11 1513.66 Z" fill="#000000" fill-rule="nonzero" fill-opacity="1" /><path clip-path="url(#clip100)" d="M2237.95 1544.91 L2254.27 1544.91 L2254.27 1548.85 L2232.33 1548.85 L2232.33 1544.91 Q2234.99 1542.16 2239.58 1537.53 Q2244.18 1532.88 2245.36 1531.53 Q2247.61 1529.01 2248.49 1527.27 Q2249.39 1525.51 2249.39 1523.82 Q2249.39 1521.07 2247.45 1519.33 Q2245.52 1517.6 2242.42 1517.6 Q2240.22 1517.6 2237.77 1518.36 Q2235.34 1519.13 2232.56 1520.68 L2232.56 1515.95 Q2235.39 1514.82 2237.84 1514.24 Q2240.29 1513.66 2242.33 1513.66 Q2247.7 1513.66 2250.89 1516.35 Q2254.09 1519.03 2254.09 1523.52 Q2254.09 1525.65 2253.28 1527.57 Q2252.49 1529.47 2250.39 1532.07 Q2249.81 1532.74 2246.7 1535.95 Q2243.6 1539.15 2237.95 1544.91 Z" fill="#000000" fill-rule="nonzero" fill-opacity="1" /><path clip-path="url(#clip100)" d="M2274.09 1517.37 Q2270.48 1517.37 2268.65 1520.93 Q2266.84 1524.47 2266.84 1531.6 Q2266.84 1538.71 2268.65 1542.27 Q2270.48 1545.82 2274.09 1545.82 Q2277.72 1545.82 2279.53 1542.27 Q2281.36 1538.71 2281.36 1531.6 Q2281.36 1524.47 2279.53 1520.93 Q2277.72 1517.37 2274.09 1517.37 M2274.09 1513.66 Q2279.9 1513.66 2282.95 1518.27 Q2286.03 1522.85 2286.03 1531.6 Q2286.03 1540.33 2282.95 1544.94 Q2279.9 1549.52 2274.09 1549.52 Q2268.28 1549.52 2265.2 1544.94 Q2262.14 1540.33 2262.14 1531.6 Q2262.14 1522.85 2265.2 1518.27 Q2268.28 1513.66 2274.09 1513.66 Z" fill="#000000" fill-rule="nonzero" fill-opacity="1" /><path clip-path="url(#clip100)" d="M2304.25 1517.37 Q2300.64 1517.37 2298.81 1520.93 Q2297.01 1524.47 2297.01 1531.6 Q2297.01 1538.71 2298.81 1542.27 Q2300.64 1545.82 2304.25 1545.82 Q2307.88 1545.82 2309.69 1542.27 Q2311.52 1538.71 2311.52 1531.6 Q2311.52 1524.47 2309.69 1520.93 Q2307.88 1517.37 2304.25 1517.37 M2304.25 1513.66 Q2310.06 1513.66 2313.12 1518.27 Q2316.2 1522.85 2316.2 1531.6 Q2316.2 1540.33 2313.12 1544.94 Q2310.06 1549.52 2304.25 1549.52 Q2298.44 1549.52 2295.36 1544.94 Q2292.31 1540.33 2292.31 1531.6 Q2292.31 1522.85 2295.36 1518.27 Q2298.44 1513.66 2304.25 1513.66 Z" fill="#000000" fill-rule="nonzero" fill-opacity="1" /><path clip-path="url(#clip100)" d="M2334.41 1517.37 Q2330.8 1517.37 2328.97 1520.93 Q2327.17 1524.47 2327.17 1531.6 Q2327.17 1538.71 2328.97 1542.27 Q2330.8 1545.82 2334.41 1545.82 Q2338.05 1545.82 2339.85 1542.27 Q2341.68 1538.71 2341.68 1531.6 Q2341.68 1524.47 2339.85 1520.93 Q2338.05 1517.37 2334.41 1517.37 M2334.41 1513.66 Q2340.22 1513.66 2343.28 1518.27 Q2346.36 1522.85 2346.36 1531.6 Q2346.36 1540.33 2343.28 1544.94 Q2340.22 1549.52 2334.41 1549.52 Q2328.6 1549.52 2325.52 1544.94 Q2322.47 1540.33 2322.47 1531.6 Q2322.47 1522.85 2325.52 1518.27 Q2328.6 1513.66 2334.41 1513.66 Z" fill="#000000" fill-rule="nonzero" fill-opacity="1" /><polyline clip-path="url(#clip102)" style="stroke:#000000; stroke-linecap:round; stroke-linejoin:round; stroke-width:2; stroke-opacity:0.1; fill:none" points="112.177,1355.97 2352.76,1355.97 "/>
<polyline clip-path="url(#clip102)" style="stroke:#000000; stroke-linecap:round; stroke-linejoin:round; stroke-width:2; stroke-opacity:0.1; fill:none" points="112.177,1061.63 2352.76,1061.63 "/>
<polyline clip-path="url(#clip102)" style="stroke:#000000; stroke-linecap:round; stroke-linejoin:round; stroke-width:2; stroke-opacity:0.1; fill:none" points="112.177,767.289 2352.76,767.289 "/>
<polyline clip-path="url(#clip102)" style="stroke:#000000; stroke-linecap:round; stroke-linejoin:round; stroke-width:2; stroke-opacity:0.1; fill:none" points="112.177,472.948 2352.76,472.948 "/>
<polyline clip-path="url(#clip102)" style="stroke:#000000; stroke-linecap:round; stroke-linejoin:round; stroke-width:2; stroke-opacity:0.1; fill:none" points="112.177,178.608 2352.76,178.608 "/>
<polyline clip-path="url(#clip100)" style="stroke:#000000; stroke-linecap:round; stroke-linejoin:round; stroke-width:4; stroke-opacity:1; fill:none" points="112.177,1486.45 112.177,47.2441 "/>
<polyline clip-path="url(#clip100)" style="stroke:#000000; stroke-linecap:round; stroke-linejoin:round; stroke-width:4; stroke-opacity:1; fill:none" points="112.177,1355.97 131.075,1355.97 "/>
<polyline clip-path="url(#clip100)" style="stroke:#000000; stroke-linecap:round; stroke-linejoin:round; stroke-width:4; stroke-opacity:1; fill:none" points="112.177,1061.63 131.075,1061.63 "/>
<polyline clip-path="url(#clip100)" style="stroke:#000000; stroke-linecap:round; stroke-linejoin:round; stroke-width:4; stroke-opacity:1; fill:none" points="112.177,767.289 131.075,767.289 "/>
<polyline clip-path="url(#clip100)" style="stroke:#000000; stroke-linecap:round; stroke-linejoin:round; stroke-width:4; stroke-opacity:1; fill:none" points="112.177,472.948 131.075,472.948 "/>
<polyline clip-path="url(#clip100)" style="stroke:#000000; stroke-linecap:round; stroke-linejoin:round; stroke-width:4; stroke-opacity:1; fill:none" points="112.177,178.608 131.075,178.608 "/>
<path clip-path="url(#clip100)" d="M56.2699 1369.31 L63.9087 1369.31 L63.9087 1342.95 L55.5986 1344.62 L55.5986 1340.36 L63.8624 1338.69 L68.5383 1338.69 L68.5383 1369.31 L76.1772 1369.31 L76.1772 1373.25 L56.2699 1373.25 L56.2699 1369.31 Z" fill="#000000" fill-rule="nonzero" fill-opacity="1" /><path clip-path="url(#clip100)" d="M59.8578 1074.97 L76.1772 1074.97 L76.1772 1078.91 L54.2328 1078.91 L54.2328 1074.97 Q56.8949 1072.22 61.4782 1067.59 Q66.0846 1062.94 67.2652 1061.59 Q69.5105 1059.07 70.3902 1057.34 Q71.2929 1055.58 71.2929 1053.89 Q71.2929 1051.13 69.3485 1049.4 Q67.4272 1047.66 64.3254 1047.66 Q62.1263 1047.66 59.6726 1048.42 Q57.2421 1049.19 54.4643 1050.74 L54.4643 1046.02 Q57.2884 1044.88 59.7421 1044.3 Q62.1958 1043.72 64.2328 1043.72 Q69.6031 1043.72 72.7976 1046.41 Q75.992 1049.09 75.992 1053.59 Q75.992 1055.72 75.1818 1057.64 Q74.3948 1059.53 72.2883 1062.13 Q71.7096 1062.8 68.6078 1066.02 Q65.5059 1069.21 59.8578 1074.97 Z" fill="#000000" fill-rule="nonzero" fill-opacity="1" /><path clip-path="url(#clip100)" d="M69.0476 765.935 Q72.404 766.652 74.279 768.921 Q76.1772 771.189 76.1772 774.523 Q76.1772 779.638 72.6587 782.439 Q69.1402 785.24 62.6587 785.24 Q60.4828 785.24 58.168 784.8 Q55.8764 784.384 53.4227 783.527 L53.4227 779.013 Q55.3671 780.148 57.6819 780.726 Q59.9967 781.305 62.5198 781.305 Q66.918 781.305 69.2096 779.569 Q71.5244 777.833 71.5244 774.523 Q71.5244 771.467 69.3717 769.754 Q67.242 768.018 63.4226 768.018 L59.3949 768.018 L59.3949 764.175 L63.6078 764.175 Q67.0569 764.175 68.8855 762.81 Q70.7142 761.421 70.7142 758.828 Q70.7142 756.166 68.8161 754.754 Q66.9411 753.319 63.4226 753.319 Q61.5013 753.319 59.3023 753.736 Q57.1032 754.152 54.4643 755.032 L54.4643 750.865 Q57.1264 750.125 59.4412 749.754 Q61.7791 749.384 63.8393 749.384 Q69.1633 749.384 72.2652 751.814 Q75.367 754.222 75.367 758.342 Q75.367 761.213 73.7235 763.203 Q72.08 765.171 69.0476 765.935 Z" fill="#000000" fill-rule="nonzero" fill-opacity="1" /><path clip-path="url(#clip100)" d="M66.5939 459.742 L54.7884 478.191 L66.5939 478.191 L66.5939 459.742 M65.367 455.668 L71.2466 455.668 L71.2466 478.191 L76.1772 478.191 L76.1772 482.08 L71.2466 482.08 L71.2466 490.228 L66.5939 490.228 L66.5939 482.08 L50.9921 482.08 L50.9921 477.566 L65.367 455.668 Z" fill="#000000" fill-rule="nonzero" fill-opacity="1" /><path clip-path="url(#clip100)" d="M55.2745 161.328 L73.6309 161.328 L73.6309 165.263 L59.5569 165.263 L59.5569 173.735 Q60.5754 173.388 61.5939 173.226 Q62.6124 173.041 63.6309 173.041 Q69.418 173.041 72.7976 176.212 Q76.1772 179.383 76.1772 184.8 Q76.1772 190.379 72.705 193.48 Q69.2328 196.559 62.9134 196.559 Q60.7374 196.559 58.4689 196.189 Q56.2236 195.818 53.8162 195.078 L53.8162 190.379 Q55.8995 191.513 58.1217 192.068 Q60.3439 192.624 62.8208 192.624 Q66.8254 192.624 69.1633 190.517 Q71.5013 188.411 71.5013 184.8 Q71.5013 181.189 69.1633 179.082 Q66.8254 176.976 62.8208 176.976 Q60.9458 176.976 59.0708 177.392 Q57.2189 177.809 55.2745 178.689 L55.2745 161.328 Z" fill="#000000" fill-rule="nonzero" fill-opacity="1" /><polyline clip-path="url(#clip102)" style="stroke:#009af9; stroke-linecap:round; stroke-linejoin:round; stroke-width:4; stroke-opacity:1; fill:none" points="175.59,1290.35 176.647,1290.54 177.704,1070.59 178.76,1070.94 179.817,1300.43 180.874,1300.7 181.931,1305.99 182.988,1306.18 184.045,1354.37 185.102,1354.49 186.159,874.505 187.215,875.344 188.272,1305.03 189.329,1305.29 190.386,1270.63 191.443,1270.9 192.5,1077.78 193.557,1078.12 194.614,1357.15 195.67,1357.32 196.727,1387.93 197.784,1388.03 198.841,1157.66 199.898,1157.95 200.955,1130.96 202.012,1131.23 203.069,1419.79 204.125,1419.86 205.182,1345.84 206.239,1345.97 207.296,1076.84 208.353,1077.09 209.41,1195.25 210.467,1195.61 211.524,871.993 212.58,872.672 213.637,997.616 214.694,998.421 215.751,970.337 216.808,970.834 217.865,851.841 218.922,852.405 219.979,689.834 221.035,690.556 222.092,1007.9 223.149,1008.35 224.206,740.196 225.263,741.021 226.32,1235.59 227.377,1235.94 228.434,1021.55 229.49,1021.93 230.547,944.1 231.604,944.685 232.661,1067.25 233.718,1067.61 234.775,1264.24 235.832,1264.35 236.889,1282.4 237.946,1282.56 239.002,906.751 240.059,907.615 241.116,1235.55 242.173,1235.69 243.23,1399.53 244.287,1399.71 245.344,1443.46 246.401,1443.59 247.457,937.246 248.514,937.755 249.571,1231.97 250.628,1232.09 251.685,1356.28 252.742,1356.39 253.799,839.535 254.856,839.953 255.912,826.603 256.969,827.578 258.026,1152.54 259.083,1152.78 260.14,917.707 261.197,918.239 262.254,1142.95 263.311,1143.16 264.367,880.141 265.424,880.703 266.481,825.342 267.538,826.307 268.595,1445.63 269.652,1445.72 270.709,1286.31 271.766,1286.75 272.822,693.469 273.879,694.332 274.936,1130.26 275.993,1130.66 277.05,975.09 278.107,975.871 279.164,1276.95 280.221,1277.05 281.277,998.309 282.334,998.706 283.391,885.226 284.448,885.854 285.505,1162.74 286.562,1162.93 287.619,1078.7 288.676,1079.01 289.732,1307.89 290.789,1308.06 291.846,1243.66 292.903,1244.07 293.96,1075.45 295.017,1076.1 296.074,593.487 297.131,594.272 298.187,664.202 299.244,664.842 300.301,1090.12 301.358,1090.38 302.415,908.262 303.472,908.909 304.529,919.445 305.586,919.923 306.642,980.062 307.699,980.509 308.756,1196.02 309.813,1196.51 310.87,873.801 311.927,874.503 312.984,1262.99 314.041,1263.12 315.098,929.624 316.154,930.224 317.211,1290.2 318.268,1290.39 319.325,1036.56 320.382,1037.02 321.439,1131.23 322.496,1131.71 323.553,1269.73 324.609,1269.92 325.666,316.587 326.723,317.553 327.78,717.522 328.837,718.212 329.894,835.104 330.951,835.801 332.008,627.756 333.064,629.004 334.121,1393.42 335.178,1393.63 336.235,934.931 337.292,935.359 338.349,1314.04 339.406,1314.18 340.463,1189.62 341.519,1190.08 342.576,1271.14 343.633,1271.4 344.69,820.247 345.747,820.673 346.804,1273.86 347.861,1273.98 348.918,911.292 349.974,911.681 351.031,1268.07 352.088,1268.19 353.145,1231.95 354.202,1232.18 355.259,858.761 356.316,859.172 357.373,1011.19 358.429,1011.58 359.486,1124.4 360.543,1124.72 361.6,1115.13 362.657,1115.69 363.714,1217.5 364.771,1217.66 365.828,1267.01 366.884,1267.11 367.941,1354.97 368.998,1355.15 370.055,1297.42 371.112,1297.62 372.169,928.415 373.226,928.906 374.283,1155.81 375.339,1156.23 376.396,1202.92 377.453,1203.06 378.51,905.716 379.567,906.257 380.624,1323.98 381.681,1324.11 382.738,1192.03 383.795,1192.39 384.851,972.492 385.908,973.057 386.965,837.603 388.022,838.325 389.079,1223.49 390.136,1223.8 391.193,1139 392.25,1139.27 393.306,1000.52 394.363,1000.93 395.42,1168.28 396.477,1168.65 397.534,1159.34 398.591,1159.51 399.648,1167.46 400.705,1167.96 401.761,1339.95 402.818,1340.07 403.875,1238.34 404.932,1238.48 405.989,691.077 407.046,691.816 408.103,1030.34 409.16,1030.73 410.216,1119.76 411.273,1120.03 412.33,1152.31 413.387,1152.84 414.444,1199.8 415.501,1200.09 416.558,1336.74 417.615,1336.86 418.671,1120.34 419.728,1120.97 420.785,1367.75 421.842,1367.85 422.899,1269.05 423.956,1269.14 425.013,1161.65 426.07,1161.87 427.126,1181.25 428.183,1181.43 429.24,909.306 430.297,910.019 431.354,937.422 432.411,938.071 433.468,774.126 434.525,774.573 435.581,677.111 436.638,678.465 437.695,1126.98 438.752,1127.25 439.809,975.848 440.866,976.239 441.923,1057.91 442.98,1058.25 444.036,1112.02 445.093,1112.38 446.15,1272.07 447.207,1272.32 448.264,1261.82 449.321,1262.05 450.378,679.995 451.435,680.426 452.491,1249.02 453.548,1249.23 454.605,1238.53 455.662,1238.76 456.719,1243.13 457.776,1243.35 458.833,885.644 459.89,886.086 460.947,902.334 462.003,902.919 463.06,1154.13 464.117,1154.41 465.174,990.903 466.231,991.309 467.288,1180.9 468.345,1181.08 469.402,278.708 470.458,280.124 471.515,1167.46 472.572,1167.97 473.629,934.257 474.686,934.719 475.743,903.639 476.8,904.441 477.857,1175.43 478.913,1175.57 479.97,1053.6 481.027,1053.84 482.084,1149.08 483.141,1149.3 484.198,676.563 485.255,677.502 486.312,953.768 487.368,954.129 488.425,775.394 489.482,776.185 490.539,1042.95 491.596,1043.38 492.653,732.418 493.71,733.016 494.767,1295.9 495.823,1296.04 496.88,1119.49 497.937,1120.08 498.994,861.79 500.051,862.41 501.108,843.635 502.165,844.209 503.222,1096.02 504.278,1096.4 505.335,1331.18 506.392,1331.4 507.449,1149.22 508.506,1149.47 509.563,1014.82 510.62,1015.35 511.677,1131.52 512.733,1131.75 513.79,982.517 514.847,982.823 515.904,1134.54 516.961,1134.85 518.018,1295.19 519.075,1295.29 520.132,1176.46 521.188,1176.6 522.245,1286.37 523.302,1286.54 524.359,895.029 525.416,895.539 526.473,1054.82 527.53,1055.18 528.587,1008.34 529.643,1008.64 530.7,1164.13 531.757,1164.57 532.814,860.391 533.871,860.9 534.928,913.042 535.985,913.474 537.042,1191.68 538.099,1192.01 539.155,294.557 540.212,295.891 541.269,764.201 542.326,764.946 543.383,903.304 544.44,903.874 545.497,1112.02 546.554,1112.22 547.61,945.008 548.667,945.507 549.724,1078.97 550.781,1079.22 551.838,638.59 552.895,639.1 553.952,1025.24 555.009,1025.7 556.065,1315.23 557.122,1315.38 558.179,1299.69 559.236,1299.83 560.293,928.595 561.35,928.931 562.407,886.62 563.464,887.16 564.52,850.905 565.577,851.423 566.634,1201.82 567.691,1202.14 568.748,1094.19 569.805,1094.44 570.862,995.509 571.919,995.969 572.975,949.284 574.032,949.681 575.089,1213.59 576.146,1213.96 577.203,663.735 578.26,664.655 579.317,500.021 580.374,500.698 581.43,1092.73 582.487,1093.02 583.544,1168.35 584.601,1168.66 585.658,1302.91 586.715,1303.05 587.772,1166.21 588.829,1166.42 589.885,1061.54 590.942,1061.87 591.999,1041.62 593.056,1042.02 594.113,925.694 595.17,926.004 596.227,1122.89 597.284,1123.07 598.34,885.273 599.397,885.708 600.454,1284.24 601.511,1284.39 602.568,970.152 603.625,970.583 604.682,1120.39 605.739,1120.63 606.795,1159.17 607.852,1159.44 608.909,911.301 609.966,911.768 611.023,968.448 612.08,968.759 613.137,1175.72 614.194,1175.87 615.251,1023.47 616.307,1023.87 617.364,1053.34 618.421,1053.96 619.478,1157.46 620.535,1157.64 621.592,1148.27 622.649,1148.41 623.706,1034.9 624.762,1035.14 625.819,1186.35 626.876,1186.82 627.933,1268.16 628.99,1268.37 630.047,1133.53 631.104,1133.89 632.161,1122.25 633.217,1122.78 634.274,123.337 635.331,124.654 636.388,1079.87 637.445,1080.14 638.502,1237.07 639.559,1237.39 640.616,797.725 641.672,798.145 642.729,976.44 643.786,976.696 644.843,1141.73 645.9,1141.98 646.957,756.52 648.014,757.209 649.071,967.835 650.127,968.13 651.184,1106.5 652.241,1106.67 653.298,1038.11 654.355,1038.63 655.412,1136.2 656.469,1136.38 657.526,849.517 658.582,850.278 659.639,1012.13 660.696,1012.57 661.753,764.955 662.81,765.475 663.867,896.695 664.924,897.074 665.981,1191.58 667.037,1191.94 668.094,1064.44 669.151,1064.85 670.208,1141.31 671.265,1141.53 672.322,1117.3 673.379,1117.58 674.436,875.573 675.492,876.044 676.549,848.341 677.606,848.788 678.663,1168.7 679.72,1168.85 680.777,1186.2 681.834,1186.37 682.891,1177.32 683.948,1177.47 685.004,1000.91 686.061,1001.21 687.118,1186.27 688.175,1186.53 689.232,1158.71 690.289,1158.89 691.346,1111.21 692.403,1111.35 693.459,1094.62 694.516,1094.91 695.573,1111.42 696.63,1111.57 697.687,843.884 698.744,844.347 699.801,1251.5 700.858,1251.58 701.914,929.23 702.971,929.602 704.028,1088.84 705.085,1089.02 706.142,1321.22 707.199,1321.33 708.256,942.155 709.313,942.564 710.369,686.253 711.426,686.684 712.483,508.53 713.54,510.417 714.597,650.954 715.654,651.39 716.711,828.295 717.768,828.731 718.824,960.355 719.881,960.725 720.938,1193.26 721.995,1193.6 723.052,865.669 724.109,866.098 725.166,1295.7 726.223,1295.84 727.279,805.379 728.336,806.048 729.393,764.359 730.45,764.856 731.507,1216.71 732.564,1216.92 733.621,1183.94 734.678,1184.09 735.734,969.309 736.791,969.564 737.848,1111.06 738.905,1111.28 739.962,1068.32 741.019,1068.48 742.076,1045.2 743.133,1045.4 744.189,1010.51 745.246,1010.69 746.303,1165.3 747.36,1165.59 748.417,1023 749.474,1023.3 750.531,1120.21 751.588,1120.36 752.644,1021.22 753.701,1021.69 754.758,1173.83 755.815,1173.96 756.872,1012.91 757.929,1013.14 758.986,1037.37 760.043,1037.68 761.1,1150.85 762.156,1151 763.213,1005.81 764.27,1006.21 765.327,1050.47 766.384,1050.73 767.441,955.208 768.498,955.532 769.555,468.274 770.611,469.029 771.668,910.376 772.725,910.657 773.782,1093.73 774.839,1093.94 775.896,852.803 776.953,853.16 778.01,895.652 779.066,895.975 780.123,1201.46 781.18,1201.57 782.237,858.326 783.294,858.768 784.351,1034.27 785.408,1034.53 786.465,735.77 787.521,736.38 788.578,948.242 789.635,948.909 790.692,1146.79 791.749,1147.12 792.806,1061.26 793.863,1061.44 794.92,962.502 795.976,962.764 797.033,614.128 798.09,614.601 799.147,1139.25 800.204,1139.39 801.261,854.308 802.318,854.921 803.375,296.833 804.431,298.248 805.488,907.29 806.545,907.662 807.602,1136.62 808.659,1136.78 809.716,968.814 810.773,969.082 811.83,1249.95 812.886,1250.13 813.943,1214.61 815,1214.71 816.057,1168.98 817.114,1169.09 818.171,997.01 819.228,997.234 820.285,1070.72 821.341,1070.99 822.398,650.384 823.455,651.158 824.512,1290.79 825.569,1290.94 826.626,908.996 827.683,909.294 828.74,849.44 829.796,849.885 830.853,1090.05 831.91,1090.18 832.967,1267.4 834.024,1267.53 835.081,796.066 836.138,796.557 837.195,1016.29 838.252,1016.51 839.308,853.45 840.365,853.998 841.422,1095.33 842.479,1095.61 843.536,1035.51 844.593,1035.78 845.65,823.102 846.707,823.578 847.763,1143.52 848.82,1143.72 849.877,1307.68 850.934,1307.78 851.991,1032.06 853.048,1032.3 854.105,1080.59 855.162,1080.78 856.218,1023.36 857.275,1023.6 858.332,1085 859.389,1085.19 860.446,1179.48 861.503,1179.86 862.56,523.547 863.617,524.357 864.673,1012.84 865.73,1013.18 866.787,1098.04 867.844,1098.29 868.901,1082.94 869.958,1083.12 871.015,1181.83 872.072,1182.1 873.128,1077.69 874.185,1077.94 875.242,1194.26 876.299,1194.44 877.356,1144.31 878.413,1144.5 879.47,949.295 880.527,949.659 881.583,1158.36 882.64,1158.49 883.697,1186.07 884.754,1186.3 885.811,1175.84 886.868,1175.96 887.925,1083.38 888.982,1083.53 890.038,810.507 891.095,810.978 892.152,944.707 893.209,944.96 894.266,1270.11 895.323,1270.25 896.38,1221.14 897.437,1221.31 898.493,1009.96 899.55,1010.17 900.607,909.433 901.664,909.772 902.721,1085.11 903.778,1085.4 904.835,1105.91 905.892,1106.09 906.948,1154.01 908.005,1154.21 909.062,471.746 910.119,473.311 911.176,1141.88 912.233,1142.16 913.29,958.938 914.347,959.339 915.404,867.906 916.46,868.327 917.517,1144.06 918.574,1144.18 919.631,981.041 920.688,981.307 921.745,1193.83 922.802,1193.92 923.859,1120.01 924.915,1120.18 925.972,858.46 927.029,858.765 928.086,952.001 929.143,952.204 930.2,1110.66 931.257,1110.81 932.314,1222.74 933.37,1222.9 934.427,1171.99 935.484,1172.14 936.541,1159.24 937.598,1159.34 938.655,1009.54 939.712,1009.75 940.769,1161.56 941.825,1161.67 942.882,1003.84 943.939,1004.23 944.996,980.624 946.053,980.848 947.11,1154.04 948.167,1154.27 949.224,1032.82 950.28,1032.96 951.337,1138.87 952.394,1139.02 953.451,1089.62 954.508,1089.74 955.565,1012.75 956.622,1012.98 957.679,1144.96 958.735,1145.17 959.792,944.351 960.849,944.609 961.906,1098.5 962.963,1098.93 964.02,952.904 965.077,953.088 966.134,1068.83 967.19,1068.95 968.247,1164.23 969.304,1164.34 970.361,1124.24 971.418,1124.5 972.475,1042.09 973.532,1042.36 974.589,1115.16 975.645,1115.54 976.702,1004.46 977.759,1004.82 978.816,1172.29 979.873,1172.39 980.93,769.709 981.987,770.372 983.044,1025 984.101,1025.22 985.157,1191.44 986.214,1191.64 987.271,1135.69 988.328,1135.85 989.385,1179.54 990.442,1179.66 991.499,1027.58 992.556,1027.82 993.612,994.473 994.669,994.822 995.726,1112.87 996.783,1112.96 997.84,887.636 998.897,888.043 999.954,1157.83 1001.01,1158.06 1002.07,1038.49 1003.12,1038.64 1004.18,1020.17 1005.24,1020.48 1006.29,920.967 1007.35,921.232 1008.41,1030.7 1009.47,1030.87 1010.52,917.651 1011.58,917.91 1012.64,430.657 1013.69,431.529 1014.75,814.272 1015.81,814.631 1016.86,1151.34 1017.92,1151.52 1018.98,910.347 1020.03,910.598 1021.09,899.652 1022.15,900.057 1023.2,1165.44 1024.26,1165.55 1025.32,715.836 1026.38,716.566 1027.43,856.025 1028.49,856.385 1029.55,1086.45 1030.6,1086.58 1031.66,1105.32 1032.72,1105.41 1033.77,908.212 1034.83,908.73 1035.89,757.42 1036.94,757.931 1038,811.621 1039.06,812.152 1040.11,1029.46 1041.17,1029.6 1042.23,1021.74 1043.29,1021.89 1044.34,808.59 1045.4,808.979 1046.46,934.373 1047.51,934.604 1048.57,1046.77 1049.63,1046.98 1050.68,373.755 1051.74,375.408 1052.8,913.206 1053.85,913.414 1054.91,1055.54 1055.97,1055.86 1057.02,885.975 1058.08,886.41 1059.14,768.63 1060.2,769.107 1061.25,981.064 1062.31,981.24 1063.37,1155.81 1064.42,1156.04 1065.48,1130.29 1066.54,1130.4 1067.59,1006.45 1068.65,1006.66 1069.71,1196.18 1070.76,1196.27 1071.82,905.795 1072.88,906.142 1073.94,946.058 1074.99,946.275 1076.05,924.589 1077.11,924.93 1078.16,969.105 1079.22,969.246 1080.28,1047.93 1081.33,1048.05 1082.39,876.721 1083.45,877.037 1084.5,1061.67 1085.56,1061.77 1086.62,392.729 1087.67,393.38 1088.73,985.878 1089.79,986.007 1090.85,1023.66 1091.9,1023.79 1092.96,908.494 1094.02,908.7 1095.07,1061.29 1096.13,1061.41 1097.19,1044.6 1098.24,1044.74 1099.3,821.662 1100.36,822.132 1101.41,1158.14 1102.47,1158.24 1103.53,1173.87 1104.58,1174.07 1105.64,1238.93 1106.7,1239.06 1107.76,1044.96 1108.81,1045.07 1109.87,1051.91 1110.93,1052.04 1111.98,1097.04 1113.04,1097.24 1114.1,962.066 1115.15,962.286 1116.21,1230.98 1117.27,1231.13 1118.32,967.242 1119.38,967.39 1120.44,850.834 1121.49,851.151 1122.55,1105.93 1123.61,1106.02 1124.67,1081.3 1125.72,1081.39 1126.78,1199.22 1127.84,1199.38 1128.89,867.015 1129.95,867.346 1131.01,1054.93 1132.06,1055.06 1133.12,725.918 1134.18,726.427 1135.23,660.998 1136.29,661.738 1137.35,769.386 1138.4,769.785 1139.46,1326.11 1140.52,1326.21 1141.58,1068.83 1142.63,1069.11 1143.69,1054.53 1144.75,1054.66 1145.8,1164.75 1146.86,1164.95 1147.92,843.47 1148.97,843.925 1150.03,972.681 1151.09,972.807 1152.14,1022.8 1153.2,1022.92 1154.26,802.836 1155.31,803.175 1156.37,1106.23 1157.43,1106.31 1158.49,1088.23 1159.54,1088.43 1160.6,801.096 1161.66,801.512 1162.71,1169.6 1163.77,1169.68 1164.83,1061.64 1165.88,1061.78 1166.94,755.315 1168,755.805 1169.05,1197.89 1170.11,1198.01 1171.17,1083.59 1172.22,1083.67 1173.28,759.627 1174.34,760.121 1175.4,811.16 1176.45,811.597 1177.51,856.43 1178.57,856.711 1179.62,1069.23 1180.68,1069.32 1181.74,814.663 1182.79,815.04 1183.85,875.055 1184.91,875.404 1185.96,1117.87 1187.02,1117.95 1188.08,929.647 1189.13,929.822 1190.19,1169.87 1191.25,1170.13 1192.31,1181.67 1193.36,1181.76 1194.42,915.512 1195.48,915.812 1196.53,866.691 1197.59,867.049 1198.65,766.582 1199.7,767.029 1200.76,930.133 1201.82,930.344 1202.87,1132.05 1203.93,1132.18 1204.99,752.899 1206.04,753.521 1207.1,691.277 1208.16,691.845 1209.22,801.079 1210.27,801.477 1211.33,1023.01 1212.39,1023.16 1213.44,1007.62 1214.5,1007.75 1215.56,909.615 1216.61,909.855 1217.67,1093.56 1218.73,1093.69 1219.78,948.185 1220.84,948.394 1221.9,1057.92 1222.95,1058.03 1224.01,962.72 1225.07,962.943 1226.13,951.1 1227.18,951.25 1228.24,1042.25 1229.3,1042.43 1230.35,746.547 1231.41,746.959 1232.47,700.832 1233.52,701.362 1234.58,1155.22 1235.64,1155.37 1236.69,973.976 1237.75,974.187 1238.81,747.644 1239.86,748.18 1240.92,385.484 1241.98,386.146 1243.04,509.612 1244.09,510.606 1245.15,949.239 1246.21,949.578 1247.26,953.042 1248.32,953.185 1249.38,1023.45 1250.43,1023.63 1251.49,999.01 1252.55,999.122 1253.6,969.949 1254.66,970.123 1255.72,333.464 1256.77,334.213 1257.83,780.264 1258.89,780.964 1259.95,1004.97 1261,1005.07 1262.06,500.935 1263.12,502.184 1264.17,899.067 1265.23,899.27 1266.29,849.412 1267.34,849.791 1268.4,1004.82 1269.46,1004.95 1270.51,740.043 1271.57,740.488 1272.63,1154.64 1273.68,1154.9 1274.74,1068.75 1275.8,1068.84 1276.86,1017.16 1277.91,1017.27 1278.97,914.656 1280.03,914.815 1281.08,888.175 1282.14,888.417 1283.2,1023.19 1284.25,1023.39 1285.31,1115.19 1286.37,1115.38 1287.42,942.181 1288.48,942.504 1289.54,827.583 1290.59,828.025 1291.65,1130.42 1292.71,1130.51 1293.77,728.023 1294.82,728.608 1295.88,1074.07 1296.94,1074.22 1297.99,802.015 1299.05,802.434 1300.11,796.042 1301.16,796.502 1302.22,1050.17 1303.28,1050.3 1304.33,821.676 1305.39,822.122 1306.45,1030.45 1307.5,1030.53 1308.56,955.767 1309.62,955.916 1310.68,907.296 1311.73,907.531 1312.79,1114.21 1313.85,1114.28 1314.9,686.163 1315.96,686.654 1317.02,929.757 1318.07,929.916 1319.13,992.724 1320.19,992.835 1321.24,1189.92 1322.3,1190 1323.36,594.955 1324.41,595.697 1325.47,1100.9 1326.53,1101 1327.59,1091.28 1328.64,1091.35 1329.7,1128.73 1330.76,1128.85 1331.81,1162.05 1332.87,1162.33 1333.93,970.541 1334.98,970.674 1336.04,799.714 1337.1,800.114 1338.15,1154.37 1339.21,1154.59 1340.27,919.32 1341.32,919.604 1342.38,1078.45 1343.44,1078.54 1344.5,888.348 1345.55,888.55 1346.61,422.001 1347.67,422.998 1348.72,766.962 1349.78,767.304 1350.84,1198.8 1351.89,1198.96 1352.95,654.224 1354.01,655.147 1355.06,964.473 1356.12,964.665 1357.18,879.39 1358.23,879.654 1359.29,966.104 1360.35,966.242 1361.41,1219.97 1362.46,1220.09 1363.52,655.917 1364.58,656.532 1365.63,981.099 1366.69,981.297 1367.75,898.854 1368.8,899.09 1369.86,1044.48 1370.92,1044.62 1371.97,1094.6 1373.03,1094.7 1374.09,991.209 1375.14,991.329 1376.2,856.571 1377.26,856.849 1378.32,1024.7 1379.37,1024.78 1380.43,1100.96 1381.49,1101.16 1382.54,933.592 1383.6,933.812 1384.66,1009.72 1385.71,1009.8 1386.77,926.601 1387.83,926.79 1388.88,949.618 1389.94,949.772 1391,853.037 1392.05,853.2 1393.11,1165.7 1394.17,1165.86 1395.23,971.004 1396.28,971.137 1397.34,1054.25 1398.4,1054.32 1399.45,859.844 1400.51,860.033 1401.57,898.28 1402.62,898.458 1403.68,802.066 1404.74,802.363 1405.79,875.878 1406.85,876.164 1407.91,841.869 1408.96,842.126 1410.02,886.38 1411.08,886.604 1412.14,911.88 1413.19,912.198 1414.25,933.507 1415.31,933.649 1416.36,889.585 1417.42,889.748 1418.48,1167.42 1419.53,1167.62 1420.59,879.227 1421.65,879.447 1422.7,866.175 1423.76,866.394 1424.82,1022.2 1425.87,1022.36 1426.93,917.697 1427.99,917.812 1429.05,935.887 1430.1,935.994 1431.16,768.953 1432.22,769.342 1433.27,778.969 1434.33,779.498 1435.39,892.573 1436.44,892.743 1437.5,985.158 1438.56,985.247 1439.61,813.445 1440.67,813.655 1441.73,923.523 1442.79,923.783 1443.84,1060.65 1444.9,1060.75 1445.96,366.621 1447.01,367.431 1448.07,895.919 1449.13,896.082 1450.18,903.482 1451.24,903.633 1452.3,972.68 1453.35,972.77 1454.41,931.808 1455.47,931.972 1456.52,857.147 1457.58,857.439 1458.64,1031.14 1459.7,1031.27 1460.75,1006.46 1461.81,1006.55 1462.87,810.33 1463.92,810.592 1464.98,840.578 1466.04,840.786 1467.09,899.285 1468.15,899.411 1469.21,1061.69 1470.26,1061.76 1471.32,965.275 1472.38,965.391 1473.43,953.536 1474.49,953.659 1475.55,663.53 1476.61,664.21 1477.66,1018.3 1478.72,1018.46 1479.78,701.572 1480.83,702.118 1481.89,933.492 1482.95,933.597 1484,993.37 1485.06,993.481 1486.12,1133.67 1487.17,1133.8 1488.23,911.996 1489.29,912.205 1490.34,855.556 1491.4,855.735 1492.46,841.405 1493.52,841.624 1494.57,640.529 1495.63,640.999 1496.69,986.726 1497.74,986.908 1498.8,815.951 1499.86,816.186 1500.91,975.522 1501.97,975.606 1503.03,1014.93 1504.08,1015.04 1505.14,804.128 1506.2,804.436 1507.25,918.798 1508.31,919.154 1509.37,842.374 1510.43,842.76 1511.48,813.556 1512.54,813.736 1513.6,886.495 1514.65,886.653 1515.71,785.009 1516.77,785.306 1517.82,842.623 1518.88,842.797 1519.94,1125.51 1520.99,1125.69 1522.05,463.969 1523.11,464.841 1524.16,996.675 1525.22,996.78 1526.28,1082.43 1527.34,1082.57 1528.39,831.577 1529.45,831.839 1530.51,1029.12 1531.56,1029.25 1532.62,1002.68 1533.68,1002.78 1534.73,1062.8 1535.79,1062.88 1536.85,993.103 1537.9,993.223 1538.96,1057.02 1540.02,1057.17 1541.07,1247.28 1542.13,1247.42 1543.19,890.442 1544.25,890.667 1545.3,1073.67 1546.36,1073.76 1547.42,988.145 1548.47,988.313 1549.53,865.921 1550.59,866.108 1551.64,959.488 1552.7,959.625 1553.76,750.348 1554.81,750.866 1555.87,815.106 1556.93,815.354 1557.98,803.024 1559.04,803.322 1560.1,1004.36 1561.16,1004.47 1562.21,1042.92 1563.27,1043.08 1564.33,977.256 1565.38,977.424 1566.44,765.041 1567.5,765.504 1568.55,956.726 1569.61,956.828 1570.67,832.099 1571.72,832.317 1572.78,1099.6 1573.84,1099.86 1574.89,1098.43 1575.95,1098.48 1577.01,302.98 1578.07,303.761 1579.12,828.854 1580.18,829.005 1581.24,898.399 1582.29,898.587 1583.35,906.098 1584.41,906.372 1585.46,906.128 1586.52,906.296 1587.58,1075.14 1588.63,1075.25 1589.69,1011.1 1590.75,1011.2 1591.8,1074.19 1592.86,1074.27 1593.92,797.378 1594.98,797.736 1596.03,859.261 1597.09,859.436 1598.15,1182.62 1599.2,1182.8 1600.26,1027.89 1601.32,1028.1 1602.37,994.05 1603.43,994.251 1604.49,1020.06 1605.54,1020.14 1606.6,909.018 1607.66,909.213 1608.71,560.448 1609.77,561.549 1610.83,822.769 1611.89,823.069 1612.94,800.309 1614,800.507 1615.06,866.788 1616.11,866.957 1617.17,897.301 1618.23,897.444 1619.28,1040.39 1620.34,1040.45 1621.4,1016.26 1622.45,1016.57 1623.51,1064.34 1624.57,1064.5 1625.62,1015.82 1626.68,1015.89 1627.74,660 1628.8,660.587 1629.85,907.2 1630.91,907.334 1631.97,1012.85 1633.02,1013 1634.08,929.85 1635.14,930.005 1636.19,1085.16 1637.25,1085.45 1638.31,937.327 1639.36,937.419 1640.42,940.7 1641.48,940.816 1642.53,960.039 1643.59,960.112 1644.65,865.903 1645.71,866.078 1646.76,1103.64 1647.82,1103.81 1648.88,644.508 1649.93,645.166 1650.99,880.135 1652.05,880.268 1653.1,1061.74 1654.16,1061.79 1655.22,817.766 1656.27,817.966 1657.33,796.989 1658.39,797.166 1659.44,922.827 1660.5,922.938 1661.56,1086.11 1662.62,1086.29 1663.67,712.18 1664.73,712.622 1665.79,1011.52 1666.84,1011.8 1667.9,368.138 1668.96,368.846 1670.01,961.061 1671.07,961.152 1672.13,944.593 1673.18,944.777 1674.24,998.3 1675.3,998.4 1676.35,927.884 1677.41,928.072 1678.47,821.558 1679.53,821.792 1680.58,106.753 1681.64,107.936 1682.7,875.14 1683.75,875.262 1684.81,1049.06 1685.87,1049.18 1686.92,781.897 1687.98,782.179 1689.04,1013.51 1690.09,1013.59 1691.15,910.891 1692.21,911.292 1693.26,678.588 1694.32,679.074 1695.38,985.633 1696.44,985.72 1697.49,1035.62 1698.55,1035.69 1699.61,994.023 1700.66,994.12 1701.72,1021.04 1702.78,1021.12 1703.83,1059.5 1704.89,1059.57 1705.95,978.514 1707,978.644 1708.06,1071.19 1709.12,1071.27 1710.17,790.336 1711.23,790.575 1712.29,979.213 1713.35,979.299 1714.4,794.397 1715.46,794.738 1716.52,845.688 1717.57,845.858 1718.63,972.524 1719.69,972.601 1720.74,1026.18 1721.8,1026.3 1722.86,1028.23 1723.91,1028.3 1724.97,1072.64 1726.03,1072.78 1727.08,914.587 1728.14,914.903 1729.2,862.724 1730.26,862.913 1731.31,1041.25 1732.37,1041.32 1733.43,901.437 1734.48,901.553 1735.54,933.893 1736.6,934 1737.65,1076.27 1738.71,1076.35 1739.77,820.38 1740.82,820.568 1741.88,728.397 1742.94,728.769 1743.99,996.131 1745.05,996.237 1746.11,526.327 1747.17,526.938 1748.22,1017.41 1749.28,1017.6 1750.34,836.375 1751.39,836.545 1752.45,1020.8 1753.51,1020.87 1754.56,994.256 1755.62,994.314 1756.68,958.05 1757.73,958.123 1758.79,875.046 1759.85,875.271 1760.9,1019.72 1761.96,1019.8 1763.02,930.722 1764.08,930.81 1765.13,833.516 1766.19,833.756 1767.25,974.267 1768.3,974.4 1769.36,1073.38 1770.42,1073.46 1771.47,1193.4 1772.53,1193.5 1773.59,821.643 1774.64,821.988 1775.7,766.343 1776.76,766.782 1777.81,856.932 1778.87,857.128 1779.93,1048.72 1780.99,1048.85 1782.04,1026.43 1783.1,1026.54 1784.16,927.712 1785.21,927.869 1786.27,1017.95 1787.33,1018.12 1788.38,906.413 1789.44,906.618 1790.5,709.393 1791.55,709.911 1792.61,747.552 1793.67,747.829 1794.72,1061.2 1795.78,1061.28 1796.84,881.407 1797.9,881.558 1798.95,834.227 1800.01,834.469 1801.07,976.554 1802.12,976.66 1803.18,1074.29 1804.24,1074.41 1805.29,1028 1806.35,1028.14 1807.41,976.34 1808.46,976.409 1809.52,960.514 1810.58,960.586 1811.64,1012.66 1812.69,1012.73 1813.75,1086.59 1814.81,1086.64 1815.86,855.848 1816.92,855.985 1817.98,715.59 1819.03,715.979 1820.09,1094.19 1821.15,1094.3 1822.2,846.656 1823.26,846.871 1824.32,876.088 1825.37,876.291 1826.43,943.196 1827.49,943.282 1828.55,1125.74 1829.6,1125.84 1830.66,1053.67 1831.72,1053.75 1832.77,963.972 1833.83,964.12 1834.89,923.178 1835.94,923.252 1837,897.579 1838.06,897.673 1839.11,1050.71 1840.17,1050.79 1841.23,975.827 1842.28,975.896 1843.34,927.341 1844.4,927.513 1845.46,829.769 1846.51,829.893 1847.57,854.081 1848.63,854.32 1849.68,824.781 1850.74,825.049 1851.8,945.818 1852.85,945.951 1853.91,1089.03 1854.97,1089.09 1856.02,1116.03 1857.08,1116.11 1858.14,939.303 1859.19,939.538 1860.25,786.688 1861.31,786.91 1862.37,1003.09 1863.42,1003.15 1864.48,613.548 1865.54,614.131 1866.59,890.728 1867.65,890.981 1868.71,1019.32 1869.76,1019.39 1870.82,1019.29 1871.88,1019.35 1872.93,878.844 1873.99,879.018 1875.05,938.846 1876.1,938.925 1877.16,1004.41 1878.22,1004.49 1879.28,1116.28 1880.33,1116.37 1881.39,925.223 1882.45,925.333 1883.5,962.957 1884.56,963.016 1885.62,1041.12 1886.67,1041.19 1887.73,925.374 1888.79,925.459 1889.84,683.67 1890.9,684.108 1891.96,984.369 1893.01,984.45 1894.07,644.519 1895.13,645.461 1896.19,802.884 1897.24,803.035 1898.3,840.604 1899.36,840.84 1900.41,952.995 1901.47,953.108 1902.53,772.735 1903.58,772.968 1904.64,876.552 1905.7,876.69 1906.75,1023.97 1907.81,1024.03 1908.87,888.775 1909.92,888.915 1910.98,992.646 1912.04,992.731 1913.1,887.198 1914.15,887.332 1915.21,1011.83 1916.27,1011.99 1917.32,831.473 1918.38,831.725 1919.44,525.562 1920.49,526.739 1921.55,654.723 1922.61,655.397 1923.66,838.865 1924.72,839.022 1925.78,903.305 1926.83,903.421 1927.89,849.376 1928.95,849.555 1930.01,853.126 1931.06,853.349 1932.12,933.842 1933.18,933.912 1934.23,1086.54 1935.29,1086.63 1936.35,816.282 1937.4,816.526 1938.46,1013.77 1939.52,1013.84 1940.57,950.836 1941.63,950.942 1942.69,921.394 1943.74,921.508 1944.8,1086.79 1945.86,1086.97 1946.92,983.225 1947.97,983.316 1949.03,1068.78 1950.09,1068.85 1951.14,971.85 1952.2,971.928 1953.26,810.084 1954.31,810.293 1955.37,779.952 1956.43,780.151 1957.48,942.219 1958.54,942.315 1959.6,915.676 1960.65,915.751 1961.71,921.336 1962.77,921.443 1963.83,1106.97 1964.88,1107.08 1965.94,862.219 1967,862.328 1968.05,968.063 1969.11,968.118 1970.17,961.171 1971.22,961.235 1972.28,1011.34 1973.34,1011.39 1974.39,987.443 1975.45,987.54 1976.51,983.704 1977.56,983.762 1978.62,1041.8 1979.68,1041.86 1980.74,1091.44 1981.79,1091.51 1982.85,1037.46 1983.91,1037.53 1984.96,1047.16 1986.02,1047.33 1987.08,729.709 1988.13,729.982 1989.19,970.006 1990.25,970.06 1991.3,969.896 1992.36,969.961 1993.42,907.048 1994.47,907.245 1995.53,938.859 1996.59,938.97 1997.65,914.998 1998.7,915.181 1999.76,937.806 2000.82,937.9 2001.87,744.266 2002.93,744.524 2003.99,805.831 2005.04,805.971 2006.1,1041.22 2007.16,1041.33 2008.21,1038.53 2009.27,1038.62 2010.33,628.855 2011.38,629.48 2012.44,983.905 2013.5,983.995 2014.56,864.502 2015.61,864.728 2016.67,895.514 2017.73,895.633 2018.78,882.986 2019.84,883.074 2020.9,855.241 2021.95,855.405 2023.01,566.887 2024.07,567.599 2025.12,993.937 2026.18,994.105 2027.24,730.174 2028.29,730.49 2029.35,861.039 2030.41,861.181 2031.47,632.468 2032.52,633.076 2033.58,915.256 2034.64,915.376 2035.69,592.303 2036.75,593.157 2037.81,705.9 2038.86,706.363 2039.92,828.994 2040.98,829.281 2042.03,906.193 2043.09,906.405 2044.15,975.108 2045.2,975.161 2046.26,919.123 2047.32,919.201 2048.38,920.072 2049.43,920.154 2050.49,999.458 2051.55,999.52 2052.6,866.193 2053.66,866.356 2054.72,857.487 2055.77,857.601 2056.83,975.465 2057.89,975.54 2058.94,872.739 2060,872.817 2061.06,929.596 2062.11,929.689 2063.17,861.201 2064.23,861.362 2065.29,835.412 2066.34,835.516 2067.4,1132.36 2068.46,1132.46 2069.51,827.775 2070.57,828.019 2071.63,693.029 2072.68,693.424 2073.74,981.144 2074.8,981.205 2075.85,975.03 2076.91,975.114 2077.97,1005.42 2079.02,1005.58 2080.08,984.181 2081.14,984.263 2082.2,992.651 2083.25,992.705 2084.31,872.275 2085.37,872.414 2086.42,830.783 2087.48,830.938 2088.54,932.43 2089.59,932.525 2090.65,928.368 2091.71,928.436 2092.76,747.139 2093.82,747.417 2094.88,1086.03 2095.93,1086.22 2096.99,837.632 2098.05,837.783 2099.11,982.22 2100.16,982.289 2101.22,822.154 2102.28,822.336 2103.33,846.134 2104.39,846.295 2105.45,942.492 2106.5,942.564 2107.56,889.605 2108.62,889.692 2109.67,959.601 2110.73,959.664 2111.79,787.577 2112.84,787.889 2113.9,909.159 2114.96,909.249 2116.02,781.256 2117.07,781.462 2118.13,738.073 2119.19,738.441 2120.24,1003.03 2121.3,1003.11 2122.36,889.117 2123.41,889.221 2124.47,767.12 2125.53,767.351 2126.58,989.822 2127.64,989.873 2128.7,1087.93 2129.75,1088 2130.81,806.986 2131.87,807.187 2132.93,518.265 2133.98,518.956 2135.04,896.795 2136.1,896.976 2137.15,600.37 2138.21,601.189 2139.27,907.993 2140.32,908.086 2141.38,925.501 2142.44,925.632 2143.49,990.479 2144.55,990.64 2145.61,771.818 2146.66,771.932 2147.72,962.884 2148.78,962.936 2149.84,733.98 2150.89,734.254 2151.95,888.077 2153.01,888.233 2154.06,925.074 2155.12,925.18 2156.18,781.52 2157.23,781.827 2158.29,808.366 2159.35,808.522 2160.4,921.246 2161.46,921.323 2162.52,1006.59 2163.57,1006.71 2164.63,824.752 2165.69,825.109 2166.75,764.391 2167.8,764.558 2168.86,974.886 2169.92,974.98 2170.97,928.431 2172.03,928.497 2173.09,760.169 2174.14,760.572 2175.2,888.514 2176.26,888.661 2177.31,765.055 2178.37,765.414 2179.43,724.884 2180.48,725.283 2181.54,991.572 2182.6,991.628 2183.66,924.283 2184.71,924.413 2185.77,816.669 2186.83,816.94 2187.88,884.706 2188.94,884.763 2190,1169.48 2191.05,1169.89 2192.11,891.146 2193.17,891.287 2194.22,660.555 2195.28,660.876 2196.34,699.174 2197.4,699.71 2198.45,971.49 2199.51,971.544 2200.57,789.289 2201.62,789.535 2202.68,897.094 2203.74,897.212 2204.79,809.954 2205.85,810.066 2206.91,957.898 2207.96,957.973 2209.02,1020.89 2210.08,1020.96 2211.13,622.209 2212.19,622.784 2213.25,1009.36 2214.31,1009.48 2215.36,625.852 2216.42,626.43 2217.48,936.658 2218.53,936.717 2219.59,894.629 2220.65,894.719 2221.7,947.515 2222.76,947.579 2223.82,867.443 2224.87,867.544 2225.93,657.451 2226.99,657.847 2228.04,988.024 2229.1,988.298 2230.16,799.562 2231.22,799.772 2232.27,782.642 2233.33,783.044 2234.39,908.773 2235.44,908.864 2236.5,824.072 2237.56,824.168 2238.61,821.196 2239.67,821.323 2240.73,964.135 2241.78,964.184 2242.84,852.83 2243.9,852.916 2244.95,970.659 2246.01,970.732 2247.07,861.332 2248.13,861.405 2249.18,864.717 2250.24,864.964 2251.3,770.295 2252.35,770.654 2253.41,936.783 2254.47,936.905 2255.52,891.172 2256.58,891.31 2257.64,797.296 2258.69,797.52 2259.75,788.084 2260.81,788.267 2261.86,900.099 2262.92,900.185 2263.98,924.244 2265.04,924.362 2266.09,947.563 2267.15,947.649 2268.21,917.839 2269.26,917.916 2270.32,87.9763 2271.38,88.9222 2272.43,962.89 2273.49,962.944 2274.55,964.5 2275.6,964.564 2276.66,1089.34 2277.72,1089.55 2278.77,921.319 2279.83,921.384 2280.89,756.424 2281.95,757.108 2283,801.297 2284.06,801.477 2285.12,862.676 2286.17,862.768 2287.23,800.182 2288.29,800.296 2289.34,800.409 "/>
<path clip-path="url(#clip100)" d="M2001.58 1438.47 L2278.07 1438.47 L2278.07 1334.79 L2001.58 1334.79  Z" fill="#ffffff" fill-rule="evenodd" fill-opacity="1"/>
<polyline clip-path="url(#clip100)" style="stroke:#000000; stroke-linecap:round; stroke-linejoin:round; stroke-width:4; stroke-opacity:1; fill:none" points="2001.58,1438.47 2278.07,1438.47 2278.07,1334.79 2001.58,1334.79 2001.58,1438.47 "/>
<polyline clip-path="url(#clip100)" style="stroke:#009af9; stroke-linecap:round; stroke-linejoin:round; stroke-width:4; stroke-opacity:1; fill:none" points="2026.48,1386.63 2175.85,1386.63 "/>
<path clip-path="url(#clip100)" d="M2214.59 1406.32 Q2212.78 1410.95 2211.07 1412.36 Q2209.36 1413.78 2206.49 1413.78 L2203.08 1413.78 L2203.08 1410.21 L2205.58 1410.21 Q2207.34 1410.21 2208.31 1409.38 Q2209.29 1408.54 2210.47 1405.44 L2211.23 1403.5 L2200.74 1377.99 L2205.26 1377.99 L2213.36 1398.27 L2221.46 1377.99 L2225.98 1377.99 L2214.59 1406.32 Z" fill="#000000" fill-rule="nonzero" fill-opacity="1" /><path clip-path="url(#clip100)" d="M2233.27 1399.98 L2240.91 1399.98 L2240.91 1373.61 L2232.6 1375.28 L2232.6 1371.02 L2240.86 1369.35 L2245.54 1369.35 L2245.54 1399.98 L2253.17 1399.98 L2253.17 1403.91 L2233.27 1403.91 L2233.27 1399.98 Z" fill="#000000" fill-rule="nonzero" fill-opacity="1" /></svg>
