<?xml version="1.0" encoding="utf-8"?>
<svg xmlns="http://www.w3.org/2000/svg" xmlns:xlink="http://www.w3.org/1999/xlink" width="600" height="400" viewBox="0 0 2400 1600">
<defs>
  <clipPath id="clip050">
    <rect x="0" y="0" width="2400" height="1600"/>
  </clipPath>
</defs>
<path clip-path="url(#clip050)" d="M0 1600 L2400 1600 L2400 0 L0 0  Z" fill="#ffffff" fill-rule="evenodd" fill-opacity="1"/>
<defs>
  <clipPath id="clip051">
    <rect x="480" y="0" width="1681" height="1600"/>
  </clipPath>
</defs>
<path clip-path="url(#clip050)" d="M178.867 1486.45 L2352.76 1486.45 L2352.76 47.2441 L178.867 47.2441  Z" fill="#ffffff" fill-rule="evenodd" fill-opacity="1"/>
<defs>
  <clipPath id="clip052">
    <rect x="178" y="47" width="2175" height="1440"/>
  </clipPath>
</defs>
<polyline clip-path="url(#clip052)" style="stroke:#000000; stroke-linecap:round; stroke-linejoin:round; stroke-width:2; stroke-opacity:0.1; fill:none" points="240.392,1486.45 240.392,47.2441 "/>
<polyline clip-path="url(#clip052)" style="stroke:#000000; stroke-linecap:round; stroke-linejoin:round; stroke-width:2; stroke-opacity:0.1; fill:none" points="753.358,1486.45 753.358,47.2441 "/>
<polyline clip-path="url(#clip052)" style="stroke:#000000; stroke-linecap:round; stroke-linejoin:round; stroke-width:2; stroke-opacity:0.1; fill:none" points="1266.32,1486.45 1266.32,47.2441 "/>
<polyline clip-path="url(#clip052)" style="stroke:#000000; stroke-linecap:round; stroke-linejoin:round; stroke-width:2; stroke-opacity:0.1; fill:none" points="1779.29,1486.45 1779.29,47.2441 "/>
<polyline clip-path="url(#clip052)" style="stroke:#000000; stroke-linecap:round; stroke-linejoin:round; stroke-width:2; stroke-opacity:0.1; fill:none" points="2292.26,1486.45 2292.26,47.2441 "/>
<polyline clip-path="url(#clip050)" style="stroke:#000000; stroke-linecap:round; stroke-linejoin:round; stroke-width:4; stroke-opacity:1; fill:none" points="178.867,1486.45 2352.76,1486.45 "/>
<polyline clip-path="url(#clip050)" style="stroke:#000000; stroke-linecap:round; stroke-linejoin:round; stroke-width:4; stroke-opacity:1; fill:none" points="240.392,1486.45 240.392,1467.55 "/>
<polyline clip-path="url(#clip050)" style="stroke:#000000; stroke-linecap:round; stroke-linejoin:round; stroke-width:4; stroke-opacity:1; fill:none" points="753.358,1486.45 753.358,1467.55 "/>
<polyline clip-path="url(#clip050)" style="stroke:#000000; stroke-linecap:round; stroke-linejoin:round; stroke-width:4; stroke-opacity:1; fill:none" points="1266.32,1486.45 1266.32,1467.55 "/>
<polyline clip-path="url(#clip050)" style="stroke:#000000; stroke-linecap:round; stroke-linejoin:round; stroke-width:4; stroke-opacity:1; fill:none" points="1779.29,1486.45 1779.29,1467.55 "/>
<polyline clip-path="url(#clip050)" style="stroke:#000000; stroke-linecap:round; stroke-linejoin:round; stroke-width:4; stroke-opacity:1; fill:none" points="2292.26,1486.45 2292.26,1467.55 "/>
<path clip-path="url(#clip050)" d="M240.392 1517.37 Q236.781 1517.37 234.952 1520.93 Q233.146 1524.47 233.146 1531.6 Q233.146 1538.71 234.952 1542.27 Q236.781 1545.82 240.392 1545.82 Q244.026 1545.82 245.832 1542.27 Q247.66 1538.71 247.66 1531.6 Q247.66 1524.47 245.832 1520.93 Q244.026 1517.37 240.392 1517.37 M240.392 1513.66 Q246.202 1513.66 249.257 1518.27 Q252.336 1522.85 252.336 1531.6 Q252.336 1540.33 249.257 1544.94 Q246.202 1549.52 240.392 1549.52 Q234.582 1549.52 231.503 1544.94 Q228.447 1540.33 228.447 1531.6 Q228.447 1522.85 231.503 1518.27 Q234.582 1513.66 240.392 1513.66 Z" fill="#000000" fill-rule="nonzero" fill-opacity="1" /><path clip-path="url(#clip050)" d="M712.976 1514.29 L731.333 1514.29 L731.333 1518.22 L717.259 1518.22 L717.259 1526.7 Q718.277 1526.35 719.296 1526.19 Q720.314 1526 721.333 1526 Q727.12 1526 730.499 1529.17 Q733.879 1532.34 733.879 1537.76 Q733.879 1543.34 730.407 1546.44 Q726.935 1549.52 720.615 1549.52 Q718.439 1549.52 716.171 1549.15 Q713.925 1548.78 711.518 1548.04 L711.518 1543.34 Q713.601 1544.47 715.823 1545.03 Q718.046 1545.58 720.523 1545.58 Q724.527 1545.58 726.865 1543.48 Q729.203 1541.37 729.203 1537.76 Q729.203 1534.15 726.865 1532.04 Q724.527 1529.94 720.523 1529.94 Q718.648 1529.94 716.773 1530.35 Q714.921 1530.77 712.976 1531.65 L712.976 1514.29 Z" fill="#000000" fill-rule="nonzero" fill-opacity="1" /><path clip-path="url(#clip050)" d="M753.092 1517.37 Q749.481 1517.37 747.652 1520.93 Q745.846 1524.47 745.846 1531.6 Q745.846 1538.71 747.652 1542.27 Q749.481 1545.82 753.092 1545.82 Q756.726 1545.82 758.532 1542.27 Q760.36 1538.71 760.36 1531.6 Q760.36 1524.47 758.532 1520.93 Q756.726 1517.37 753.092 1517.37 M753.092 1513.66 Q758.902 1513.66 761.958 1518.27 Q765.036 1522.85 765.036 1531.6 Q765.036 1540.33 761.958 1544.94 Q758.902 1549.52 753.092 1549.52 Q747.282 1549.52 744.203 1544.94 Q741.147 1540.33 741.147 1531.6 Q741.147 1522.85 744.203 1518.27 Q747.282 1513.66 753.092 1513.66 Z" fill="#000000" fill-rule="nonzero" fill-opacity="1" /><path clip-path="url(#clip050)" d="M783.254 1517.37 Q779.643 1517.37 777.814 1520.93 Q776.008 1524.47 776.008 1531.6 Q776.008 1538.71 777.814 1542.27 Q779.643 1545.82 783.254 1545.82 Q786.888 1545.82 788.693 1542.27 Q790.522 1538.71 790.522 1531.6 Q790.522 1524.47 788.693 1520.93 Q786.888 1517.37 783.254 1517.37 M783.254 1513.66 Q789.064 1513.66 792.119 1518.27 Q795.198 1522.85 795.198 1531.6 Q795.198 1540.33 792.119 1544.94 Q789.064 1549.52 783.254 1549.52 Q777.444 1549.52 774.365 1544.94 Q771.309 1540.33 771.309 1531.6 Q771.309 1522.85 774.365 1518.27 Q777.444 1513.66 783.254 1513.66 Z" fill="#000000" fill-rule="nonzero" fill-opacity="1" /><path clip-path="url(#clip050)" d="M1210.85 1544.91 L1218.49 1544.91 L1218.49 1518.55 L1210.18 1520.21 L1210.18 1515.95 L1218.44 1514.29 L1223.12 1514.29 L1223.12 1544.91 L1230.76 1544.91 L1230.76 1548.85 L1210.85 1548.85 L1210.85 1544.91 Z" fill="#000000" fill-rule="nonzero" fill-opacity="1" /><path clip-path="url(#clip050)" d="M1250.2 1517.37 Q1246.59 1517.37 1244.76 1520.93 Q1242.96 1524.47 1242.96 1531.6 Q1242.96 1538.71 1244.76 1542.27 Q1246.59 1545.82 1250.2 1545.82 Q1253.84 1545.82 1255.64 1542.27 Q1257.47 1538.71 1257.47 1531.6 Q1257.47 1524.47 1255.64 1520.93 Q1253.84 1517.37 1250.2 1517.37 M1250.2 1513.66 Q1256.01 1513.66 1259.07 1518.27 Q1262.15 1522.85 1262.15 1531.6 Q1262.15 1540.33 1259.07 1544.94 Q1256.01 1549.52 1250.2 1549.52 Q1244.39 1549.52 1241.31 1544.94 Q1238.26 1540.33 1238.26 1531.6 Q1238.26 1522.85 1241.31 1518.27 Q1244.39 1513.66 1250.2 1513.66 Z" fill="#000000" fill-rule="nonzero" fill-opacity="1" /><path clip-path="url(#clip050)" d="M1280.36 1517.37 Q1276.75 1517.37 1274.92 1520.93 Q1273.12 1524.47 1273.12 1531.6 Q1273.12 1538.71 1274.92 1542.27 Q1276.75 1545.82 1280.36 1545.82 Q1284 1545.82 1285.8 1542.27 Q1287.63 1538.71 1287.63 1531.6 Q1287.63 1524.47 1285.8 1520.93 Q1284 1517.37 1280.36 1517.37 M1280.36 1513.66 Q1286.17 1513.66 1289.23 1518.27 Q1292.31 1522.85 1292.31 1531.6 Q1292.31 1540.33 1289.23 1544.94 Q1286.17 1549.52 1280.36 1549.52 Q1274.55 1549.52 1271.47 1544.94 Q1268.42 1540.33 1268.42 1531.6 Q1268.42 1522.85 1271.47 1518.27 Q1274.55 1513.66 1280.36 1513.66 Z" fill="#000000" fill-rule="nonzero" fill-opacity="1" /><path clip-path="url(#clip050)" d="M1310.53 1517.37 Q1306.91 1517.37 1305.09 1520.93 Q1303.28 1524.47 1303.28 1531.6 Q1303.28 1538.71 1305.09 1542.27 Q1306.91 1545.82 1310.53 1545.82 Q1314.16 1545.82 1315.97 1542.27 Q1317.79 1538.71 1317.79 1531.6 Q1317.79 1524.47 1315.97 1520.93 Q1314.16 1517.37 1310.53 1517.37 M1310.53 1513.66 Q1316.34 1513.66 1319.39 1518.27 Q1322.47 1522.85 1322.47 1531.6 Q1322.47 1540.33 1319.39 1544.94 Q1316.34 1549.52 1310.53 1549.52 Q1304.72 1549.52 1301.64 1544.94 Q1298.58 1540.33 1298.58 1531.6 Q1298.58 1522.85 1301.64 1518.27 Q1304.72 1513.66 1310.53 1513.66 Z" fill="#000000" fill-rule="nonzero" fill-opacity="1" /><path clip-path="url(#clip050)" d="M1723.82 1544.91 L1731.46 1544.91 L1731.46 1518.55 L1723.14 1520.21 L1723.14 1515.95 L1731.41 1514.29 L1736.08 1514.29 L1736.08 1544.91 L1743.72 1544.91 L1743.72 1548.85 L1723.82 1548.85 L1723.82 1544.91 Z" fill="#000000" fill-rule="nonzero" fill-opacity="1" /><path clip-path="url(#clip050)" d="M1753.21 1514.29 L1771.57 1514.29 L1771.57 1518.22 L1757.5 1518.22 L1757.5 1526.7 Q1758.52 1526.35 1759.53 1526.19 Q1760.55 1526 1761.57 1526 Q1767.36 1526 1770.74 1529.17 Q1774.12 1532.34 1774.12 1537.76 Q1774.12 1543.34 1770.64 1546.44 Q1767.17 1549.52 1760.85 1549.52 Q1758.68 1549.52 1756.41 1549.15 Q1754.16 1548.78 1751.76 1548.04 L1751.76 1543.34 Q1753.84 1544.47 1756.06 1545.03 Q1758.28 1545.58 1760.76 1545.58 Q1764.77 1545.58 1767.1 1543.48 Q1769.44 1541.37 1769.44 1537.76 Q1769.44 1534.15 1767.1 1532.04 Q1764.77 1529.94 1760.76 1529.94 Q1758.89 1529.94 1757.01 1530.35 Q1755.16 1530.77 1753.21 1531.65 L1753.21 1514.29 Z" fill="#000000" fill-rule="nonzero" fill-opacity="1" /><path clip-path="url(#clip050)" d="M1793.33 1517.37 Q1789.72 1517.37 1787.89 1520.93 Q1786.08 1524.47 1786.08 1531.6 Q1786.08 1538.71 1787.89 1542.27 Q1789.72 1545.82 1793.33 1545.82 Q1796.96 1545.82 1798.77 1542.27 Q1800.6 1538.71 1800.6 1531.6 Q1800.6 1524.47 1798.77 1520.93 Q1796.96 1517.37 1793.33 1517.37 M1793.33 1513.66 Q1799.14 1513.66 1802.2 1518.27 Q1805.27 1522.85 1805.27 1531.6 Q1805.27 1540.33 1802.2 1544.94 Q1799.14 1549.52 1793.33 1549.52 Q1787.52 1549.52 1784.44 1544.94 Q1781.39 1540.33 1781.39 1531.6 Q1781.39 1522.85 1784.44 1518.27 Q1787.52 1513.66 1793.33 1513.66 Z" fill="#000000" fill-rule="nonzero" fill-opacity="1" /><path clip-path="url(#clip050)" d="M1823.49 1517.37 Q1819.88 1517.37 1818.05 1520.93 Q1816.25 1524.47 1816.25 1531.6 Q1816.25 1538.71 1818.05 1542.27 Q1819.88 1545.82 1823.49 1545.82 Q1827.13 1545.82 1828.93 1542.27 Q1830.76 1538.71 1830.76 1531.6 Q1830.76 1524.47 1828.93 1520.93 Q1827.13 1517.37 1823.49 1517.37 M1823.49 1513.66 Q1829.3 1513.66 1832.36 1518.27 Q1835.44 1522.85 1835.44 1531.6 Q1835.44 1540.33 1832.36 1544.94 Q1829.3 1549.52 1823.49 1549.52 Q1817.68 1549.52 1814.6 1544.94 Q1811.55 1540.33 1811.55 1531.6 Q1811.55 1522.85 1814.6 1518.27 Q1817.68 1513.66 1823.49 1513.66 Z" fill="#000000" fill-rule="nonzero" fill-opacity="1" /><path clip-path="url(#clip050)" d="M2240.87 1544.91 L2257.19 1544.91 L2257.19 1548.85 L2235.24 1548.85 L2235.24 1544.91 Q2237.91 1542.16 2242.49 1537.53 Q2247.09 1532.88 2248.28 1531.53 Q2250.52 1529.01 2251.4 1527.27 Q2252.3 1525.51 2252.3 1523.82 Q2252.3 1521.07 2250.36 1519.33 Q2248.44 1517.6 2245.34 1517.6 Q2243.14 1517.6 2240.68 1518.36 Q2238.25 1519.13 2235.47 1520.68 L2235.47 1515.95 Q2238.3 1514.82 2240.75 1514.24 Q2243.21 1513.66 2245.24 1513.66 Q2250.61 1513.66 2253.81 1516.35 Q2257 1519.03 2257 1523.52 Q2257 1525.65 2256.19 1527.57 Q2255.41 1529.47 2253.3 1532.07 Q2252.72 1532.74 2249.62 1535.95 Q2246.52 1539.15 2240.87 1544.91 Z" fill="#000000" fill-rule="nonzero" fill-opacity="1" /><path clip-path="url(#clip050)" d="M2277 1517.37 Q2273.39 1517.37 2271.56 1520.93 Q2269.76 1524.47 2269.76 1531.6 Q2269.76 1538.71 2271.56 1542.27 Q2273.39 1545.82 2277 1545.82 Q2280.64 1545.82 2282.44 1542.27 Q2284.27 1538.71 2284.27 1531.6 Q2284.27 1524.47 2282.44 1520.93 Q2280.64 1517.37 2277 1517.37 M2277 1513.66 Q2282.81 1513.66 2285.87 1518.27 Q2288.95 1522.85 2288.95 1531.6 Q2288.95 1540.33 2285.87 1544.94 Q2282.81 1549.52 2277 1549.52 Q2271.19 1549.52 2268.11 1544.94 Q2265.06 1540.33 2265.06 1531.6 Q2265.06 1522.85 2268.11 1518.27 Q2271.19 1513.66 2277 1513.66 Z" fill="#000000" fill-rule="nonzero" fill-opacity="1" /><path clip-path="url(#clip050)" d="M2307.16 1517.37 Q2303.55 1517.37 2301.72 1520.93 Q2299.92 1524.47 2299.92 1531.6 Q2299.92 1538.71 2301.72 1542.27 Q2303.55 1545.82 2307.16 1545.82 Q2310.8 1545.82 2312.6 1542.27 Q2314.43 1538.71 2314.43 1531.6 Q2314.43 1524.47 2312.6 1520.93 Q2310.8 1517.37 2307.16 1517.37 M2307.16 1513.66 Q2312.97 1513.66 2316.03 1518.27 Q2319.11 1522.85 2319.11 1531.6 Q2319.11 1540.33 2316.03 1544.94 Q2312.97 1549.52 2307.16 1549.52 Q2301.35 1549.52 2298.28 1544.94 Q2295.22 1540.33 2295.22 1531.6 Q2295.22 1522.85 2298.28 1518.27 Q2301.35 1513.66 2307.16 1513.66 Z" fill="#000000" fill-rule="nonzero" fill-opacity="1" /><path clip-path="url(#clip050)" d="M2337.33 1517.37 Q2333.71 1517.37 2331.89 1520.93 Q2330.08 1524.47 2330.08 1531.6 Q2330.08 1538.71 2331.89 1542.27 Q2333.71 1545.82 2337.33 1545.82 Q2340.96 1545.82 2342.77 1542.27 Q2344.59 1538.71 2344.59 1531.6 Q2344.59 1524.47 2342.77 1520.93 Q2340.96 1517.37 2337.33 1517.37 M2337.33 1513.66 Q2343.14 1513.66 2346.19 1518.27 Q2349.27 1522.85 2349.27 1531.6 Q2349.27 1540.33 2346.19 1544.94 Q2343.14 1549.52 2337.33 1549.52 Q2331.52 1549.52 2328.44 1544.94 Q2325.38 1540.33 2325.38 1531.6 Q2325.38 1522.85 2328.44 1518.27 Q2331.52 1513.66 2337.33 1513.66 Z" fill="#000000" fill-rule="nonzero" fill-opacity="1" /><polyline clip-path="url(#clip052)" style="stroke:#000000; stroke-linecap:round; stroke-linejoin:round; stroke-width:2; stroke-opacity:0.1; fill:none" points="178.867,1418.74 2352.76,1418.74 "/>
<polyline clip-path="url(#clip052)" style="stroke:#000000; stroke-linecap:round; stroke-linejoin:round; stroke-width:2; stroke-opacity:0.1; fill:none" points="178.867,1115.05 2352.76,1115.05 "/>
<polyline clip-path="url(#clip052)" style="stroke:#000000; stroke-linecap:round; stroke-linejoin:round; stroke-width:2; stroke-opacity:0.1; fill:none" points="178.867,811.372 2352.76,811.372 "/>
<polyline clip-path="url(#clip052)" style="stroke:#000000; stroke-linecap:round; stroke-linejoin:round; stroke-width:2; stroke-opacity:0.1; fill:none" points="178.867,507.689 2352.76,507.689 "/>
<polyline clip-path="url(#clip052)" style="stroke:#000000; stroke-linecap:round; stroke-linejoin:round; stroke-width:2; stroke-opacity:0.1; fill:none" points="178.867,204.006 2352.76,204.006 "/>
<polyline clip-path="url(#clip050)" style="stroke:#000000; stroke-linecap:round; stroke-linejoin:round; stroke-width:4; stroke-opacity:1; fill:none" points="178.867,1486.45 178.867,47.2441 "/>
<polyline clip-path="url(#clip050)" style="stroke:#000000; stroke-linecap:round; stroke-linejoin:round; stroke-width:4; stroke-opacity:1; fill:none" points="178.867,1418.74 197.764,1418.74 "/>
<polyline clip-path="url(#clip050)" style="stroke:#000000; stroke-linecap:round; stroke-linejoin:round; stroke-width:4; stroke-opacity:1; fill:none" points="178.867,1115.05 197.764,1115.05 "/>
<polyline clip-path="url(#clip050)" style="stroke:#000000; stroke-linecap:round; stroke-linejoin:round; stroke-width:4; stroke-opacity:1; fill:none" points="178.867,811.372 197.764,811.372 "/>
<polyline clip-path="url(#clip050)" style="stroke:#000000; stroke-linecap:round; stroke-linejoin:round; stroke-width:4; stroke-opacity:1; fill:none" points="178.867,507.689 197.764,507.689 "/>
<polyline clip-path="url(#clip050)" style="stroke:#000000; stroke-linecap:round; stroke-linejoin:round; stroke-width:4; stroke-opacity:1; fill:none" points="178.867,204.006 197.764,204.006 "/>
<path clip-path="url(#clip050)" d="M50.9921 1419.19 L80.6679 1419.19 L80.6679 1423.12 L50.9921 1423.12 L50.9921 1419.19 Z" fill="#000000" fill-rule="nonzero" fill-opacity="1" /><path clip-path="url(#clip050)" d="M89.5799 1401.46 L111.802 1401.46 L111.802 1403.45 L99.2558 1436.02 L94.3715 1436.02 L106.177 1405.39 L89.5799 1405.39 L89.5799 1401.46 Z" fill="#000000" fill-rule="nonzero" fill-opacity="1" /><path clip-path="url(#clip050)" d="M130.922 1404.54 Q127.311 1404.54 125.482 1408.1 Q123.677 1411.64 123.677 1418.77 Q123.677 1425.88 125.482 1429.44 Q127.311 1432.99 130.922 1432.99 Q134.556 1432.99 136.362 1429.44 Q138.191 1425.88 138.191 1418.77 Q138.191 1411.64 136.362 1408.1 Q134.556 1404.54 130.922 1404.54 M130.922 1400.83 Q136.732 1400.83 139.788 1405.44 Q142.867 1410.02 142.867 1418.77 Q142.867 1427.5 139.788 1432.11 Q136.732 1436.69 130.922 1436.69 Q125.112 1436.69 122.033 1432.11 Q118.978 1427.5 118.978 1418.77 Q118.978 1410.02 122.033 1405.44 Q125.112 1400.83 130.922 1400.83 Z" fill="#000000" fill-rule="nonzero" fill-opacity="1" /><path clip-path="url(#clip050)" d="M50.9921 1115.51 L80.6679 1115.51 L80.6679 1119.44 L50.9921 1119.44 L50.9921 1115.51 Z" fill="#000000" fill-rule="nonzero" fill-opacity="1" /><path clip-path="url(#clip050)" d="M101.339 1113.19 Q98.1909 1113.19 96.3391 1115.34 Q94.5104 1117.5 94.5104 1121.25 Q94.5104 1124.97 96.3391 1127.15 Q98.1909 1129.3 101.339 1129.3 Q104.487 1129.3 106.316 1127.15 Q108.168 1124.97 108.168 1121.25 Q108.168 1117.5 106.316 1115.34 Q104.487 1113.19 101.339 1113.19 M110.621 1098.54 L110.621 1102.8 Q108.862 1101.96 107.057 1101.52 Q105.274 1101.09 103.515 1101.09 Q98.8854 1101.09 96.4317 1104.21 Q94.0012 1107.34 93.6539 1113.65 Q95.0197 1111.64 97.0798 1110.58 Q99.14 1109.49 101.617 1109.49 Q106.825 1109.49 109.834 1112.66 Q112.867 1115.81 112.867 1121.25 Q112.867 1126.57 109.719 1129.79 Q106.571 1133.01 101.339 1133.01 Q95.3437 1133.01 92.1725 1128.42 Q89.0012 1123.82 89.0012 1115.09 Q89.0012 1106.9 92.89 1102.03 Q96.7789 1097.15 103.33 1097.15 Q105.089 1097.15 106.871 1097.5 Q108.677 1097.84 110.621 1098.54 Z" fill="#000000" fill-rule="nonzero" fill-opacity="1" /><path clip-path="url(#clip050)" d="M130.922 1100.85 Q127.311 1100.85 125.482 1104.42 Q123.677 1107.96 123.677 1115.09 Q123.677 1122.2 125.482 1125.76 Q127.311 1129.3 130.922 1129.3 Q134.556 1129.3 136.362 1125.76 Q138.191 1122.2 138.191 1115.09 Q138.191 1107.96 136.362 1104.42 Q134.556 1100.85 130.922 1100.85 M130.922 1097.15 Q136.732 1097.15 139.788 1101.76 Q142.867 1106.34 142.867 1115.09 Q142.867 1123.82 139.788 1128.42 Q136.732 1133.01 130.922 1133.01 Q125.112 1133.01 122.033 1128.42 Q118.978 1123.82 118.978 1115.09 Q118.978 1106.34 122.033 1101.76 Q125.112 1097.15 130.922 1097.15 Z" fill="#000000" fill-rule="nonzero" fill-opacity="1" /><path clip-path="url(#clip050)" d="M50.9921 811.823 L80.6679 811.823 L80.6679 815.759 L50.9921 815.759 L50.9921 811.823 Z" fill="#000000" fill-rule="nonzero" fill-opacity="1" /><path clip-path="url(#clip050)" d="M90.8067 794.092 L109.163 794.092 L109.163 798.027 L95.0891 798.027 L95.0891 806.499 Q96.1076 806.152 97.1261 805.99 Q98.1447 805.805 99.1632 805.805 Q104.95 805.805 108.33 808.976 Q111.709 812.148 111.709 817.564 Q111.709 823.143 108.237 826.245 Q104.765 829.323 98.4456 829.323 Q96.2697 829.323 94.0012 828.953 Q91.7558 828.583 89.3484 827.842 L89.3484 823.143 Q91.4317 824.277 93.6539 824.833 Q95.8761 825.388 98.353 825.388 Q102.358 825.388 104.696 823.282 Q107.033 821.175 107.033 817.564 Q107.033 813.953 104.696 811.847 Q102.358 809.74 98.353 809.74 Q96.478 809.74 94.603 810.157 Q92.7512 810.573 90.8067 811.453 L90.8067 794.092 Z" fill="#000000" fill-rule="nonzero" fill-opacity="1" /><path clip-path="url(#clip050)" d="M130.922 797.171 Q127.311 797.171 125.482 800.736 Q123.677 804.277 123.677 811.407 Q123.677 818.513 125.482 822.078 Q127.311 825.62 130.922 825.62 Q134.556 825.62 136.362 822.078 Q138.191 818.513 138.191 811.407 Q138.191 804.277 136.362 800.736 Q134.556 797.171 130.922 797.171 M130.922 793.467 Q136.732 793.467 139.788 798.074 Q142.867 802.657 142.867 811.407 Q142.867 820.134 139.788 824.74 Q136.732 829.323 130.922 829.323 Q125.112 829.323 122.033 824.74 Q118.978 820.134 118.978 811.407 Q118.978 802.657 122.033 798.074 Q125.112 793.467 130.922 793.467 Z" fill="#000000" fill-rule="nonzero" fill-opacity="1" /><path clip-path="url(#clip050)" d="M50.9921 508.141 L80.6679 508.141 L80.6679 512.076 L50.9921 512.076 L50.9921 508.141 Z" fill="#000000" fill-rule="nonzero" fill-opacity="1" /><path clip-path="url(#clip050)" d="M103.608 494.483 L91.8021 512.932 L103.608 512.932 L103.608 494.483 M102.381 490.409 L108.26 490.409 L108.26 512.932 L113.191 512.932 L113.191 516.821 L108.26 516.821 L108.26 524.969 L103.608 524.969 L103.608 516.821 L88.0058 516.821 L88.0058 512.307 L102.381 490.409 Z" fill="#000000" fill-rule="nonzero" fill-opacity="1" /><path clip-path="url(#clip050)" d="M130.922 493.488 Q127.311 493.488 125.482 497.053 Q123.677 500.594 123.677 507.724 Q123.677 514.83 125.482 518.395 Q127.311 521.937 130.922 521.937 Q134.556 521.937 136.362 518.395 Q138.191 514.83 138.191 507.724 Q138.191 500.594 136.362 497.053 Q134.556 493.488 130.922 493.488 M130.922 489.784 Q136.732 489.784 139.788 494.391 Q142.867 498.974 142.867 507.724 Q142.867 516.451 139.788 521.057 Q136.732 525.64 130.922 525.64 Q125.112 525.64 122.033 521.057 Q118.978 516.451 118.978 507.724 Q118.978 498.974 122.033 494.391 Q125.112 489.784 130.922 489.784 Z" fill="#000000" fill-rule="nonzero" fill-opacity="1" /><path clip-path="url(#clip050)" d="M50.9921 204.458 L80.6679 204.458 L80.6679 208.393 L50.9921 208.393 L50.9921 204.458 Z" fill="#000000" fill-rule="nonzero" fill-opacity="1" /><path clip-path="url(#clip050)" d="M104.927 202.652 Q108.283 203.37 110.158 205.638 Q112.057 207.907 112.057 211.24 Q112.057 216.356 108.538 219.157 Q105.02 221.958 98.5382 221.958 Q96.3623 221.958 94.0475 221.518 Q91.7558 221.101 89.3021 220.245 L89.3021 215.731 Q91.2465 216.865 93.5613 217.444 Q95.8761 218.022 98.3993 218.022 Q102.797 218.022 105.089 216.286 Q107.404 214.55 107.404 211.24 Q107.404 208.184 105.251 206.472 Q103.121 204.735 99.3021 204.735 L95.2743 204.735 L95.2743 200.893 L99.4872 200.893 Q102.936 200.893 104.765 199.527 Q106.594 198.138 106.594 195.546 Q106.594 192.884 104.696 191.472 Q102.821 190.036 99.3021 190.036 Q97.3808 190.036 95.1817 190.453 Q92.9826 190.87 90.3438 191.749 L90.3438 187.583 Q93.0058 186.842 95.3206 186.472 Q97.6585 186.101 99.7187 186.101 Q105.043 186.101 108.145 188.532 Q111.246 190.939 111.246 195.06 Q111.246 197.93 109.603 199.921 Q107.959 201.888 104.927 202.652 Z" fill="#000000" fill-rule="nonzero" fill-opacity="1" /><path clip-path="url(#clip050)" d="M130.922 189.805 Q127.311 189.805 125.482 193.37 Q123.677 196.911 123.677 204.041 Q123.677 211.147 125.482 214.712 Q127.311 218.254 130.922 218.254 Q134.556 218.254 136.362 214.712 Q138.191 211.147 138.191 204.041 Q138.191 196.911 136.362 193.37 Q134.556 189.805 130.922 189.805 M130.922 186.101 Q136.732 186.101 139.788 190.708 Q142.867 195.291 142.867 204.041 Q142.867 212.768 139.788 217.374 Q136.732 221.958 130.922 221.958 Q125.112 221.958 122.033 217.374 Q118.978 212.768 118.978 204.041 Q118.978 195.291 122.033 190.708 Q125.112 186.101 130.922 186.101 Z" fill="#000000" fill-rule="nonzero" fill-opacity="1" /><polyline clip-path="url(#clip052)" style="stroke:#009af9; stroke-linecap:round; stroke-linejoin:round; stroke-width:4; stroke-opacity:1; fill:none" points="240.392,471.74 241.418,467.234 242.444,897.43 243.47,884.112 244.496,130.762 245.521,128.397 246.547,90.7915 247.573,87.9763 248.599,294.329 249.625,289.812 250.651,342.361 251.677,338.746 252.703,328.829 253.729,321.457 254.755,353.483 255.781,350.432 256.807,668.669 257.833,663.515 258.859,269.174 259.885,266.916 260.91,569.67 261.936,564.985 262.962,841.874 263.988,838.967 265.014,434.724 266.04,431.212 267.066,666.92 268.092,664.655 269.118,601.728 270.144,599.048 271.17,392.225 272.196,389.649 273.222,814.058 274.248,807.79 275.274,507.395 276.299,500.705 277.325,534.272 278.351,530.932 279.377,306.626 280.403,302.063 281.429,386.854 282.455,384.602 283.481,323.868 284.507,321.342 285.533,664.55 286.559,661.952 287.585,798.058 288.611,794.069 289.637,357.706 290.662,353.804 291.688,563.797 292.714,560.607 293.74,547.029 294.766,545.902 295.792,842.79 296.818,837.908 297.844,952.825 298.87,943.762 299.896,571.251 300.922,568.455 301.948,731.395 302.974,727.485 304,780.742 305.026,775.63 306.051,878.66 307.077,874.388 308.103,510.321 309.129,505.043 310.155,651.265 311.181,647.403 312.207,900.169 313.233,896.084 314.259,916.582 315.285,910.267 316.311,976.16 317.337,970.621 318.363,733.357 319.389,728.007 320.415,706.771 321.44,704.207 322.466,863.319 323.492,859.196 324.518,715.438 325.544,712.412 326.57,1153.88 327.596,1150.52 328.622,916.359 329.648,910.244 330.674,701.292 331.7,695.125 332.726,639.717 333.752,636.417 334.778,804.386 335.804,801.894 336.829,923.56 337.855,922.058 338.881,490.687 339.907,487.977 340.933,1067.04 341.959,1062.91 342.985,1023.52 344.011,1022.21 345.037,726.256 346.063,723.506 347.089,964.406 348.115,958.604 349.141,692.364 350.167,685.849 351.193,923.099 352.218,919.456 353.244,924.526 354.27,921.32 355.296,1004.8 356.322,1003.13 357.348,761.463 358.374,759.445 359.4,1168.42 360.426,1164.12 361.452,816.145 362.478,813.845 363.504,1048.45 364.53,1044.58 365.556,830.505 366.581,828.071 367.607,911.76 368.633,909.389 369.659,835.641 370.685,833.078 371.711,1171.74 372.737,1169.34 373.763,1162.21 374.789,1157.79 375.815,920.635 376.841,917.217 377.867,1040.16 378.893,1035.67 379.919,918.236 380.945,915.726 381.97,1038.94 382.996,1036.48 384.022,1025.76 385.048,1024.44 386.074,989.559 387.1,988.45 388.126,1012.7 389.152,1009.89 390.178,922.306 391.204,918.772 392.23,947.916 393.256,945.811 394.282,976.374 395.308,973.472 396.334,894.428 397.359,892.054 398.385,948.942 399.411,946.992 400.437,1011.9 401.463,1008.28 402.489,1050.74 403.515,1047.28 404.541,989.386 405.567,987.296 406.593,1133.65 407.619,1128.81 408.645,824.119 409.671,821.571 410.697,988.233 411.723,985.424 412.748,1031.58 413.774,1029.91 414.8,1199.55 415.826,1197.56 416.852,912.037 417.878,910.298 418.904,948.75 419.93,946.879 420.956,889.82 421.982,886.163 423.008,1125.79 424.034,1123.8 425.06,839.541 426.086,838.322 427.112,847.356 428.137,845.272 429.163,945.314 430.189,938.383 431.215,1107.03 432.241,1106.47 433.267,987.871 434.293,986.131 435.319,954.589 436.345,950.057 437.371,945.878 438.397,942.744 439.423,982.354 440.449,978.787 441.475,835.591 442.5,834.425 443.526,1292.51 444.552,1289.79 445.578,916.219 446.604,915.127 447.63,1006.61 448.656,1004.66 449.682,919.135 450.708,918.03 451.734,979.999 452.76,978.453 453.786,1173.53 454.812,1172.48 455.838,975.288 456.864,973.324 457.889,1107.69 458.915,1106.9 459.941,979.997 460.967,976.538 461.993,940.654 463.019,938.546 464.045,915.399 465.071,914.324 466.097,1003.25 467.123,1001.15 468.149,963.711 469.175,962.292 470.201,1114.25 471.227,1113.37 472.253,1026.74 473.278,1025.47 474.304,1044.69 475.33,1043.9 476.356,948.723 477.382,945.824 478.408,1034.22 479.434,1032.68 480.46,1225.66 481.486,1222.54 482.512,1014.27 483.538,1012.67 484.564,983.818 485.59,982.871 486.616,1000.63 487.642,997.74 488.667,932.154 489.693,931.242 490.719,974.349 491.745,972.007 492.771,1162.8 493.797,1162.09 494.823,1002.74 495.849,999.817 496.875,1110.93 497.901,1110.32 498.927,982.29 499.953,981.033 500.979,940.142 502.005,939 503.031,1018.04 504.056,1016.92 505.082,985.692 506.108,984.894 507.134,1000.98 508.16,999.652 509.186,941.499 510.212,937.164 511.238,1308 512.264,1306.31 513.29,1242.76 514.316,1240.29 515.342,1179.43 516.368,1176.51 517.394,998.704 518.419,996.337 519.445,956.562 520.471,954.67 521.497,966.161 522.523,962.827 523.549,994.882 524.575,993.134 525.601,1022.81 526.627,1019.96 527.653,999.953 528.679,999.013 529.705,1141.8 530.731,1141.17 531.757,948.708 532.783,945.83 533.808,959.826 534.834,958.867 535.86,977.143 536.886,974.888 537.912,968.325 538.938,966.206 539.964,952.693 540.99,951.831 542.016,891.317 543.042,890.362 544.068,967.901 545.094,965.885 546.12,920.585 547.146,919.558 548.172,1032.74 549.197,1032.45 550.223,908.321 551.249,905.698 552.275,1087.12 553.301,1083.59 554.327,907.536 555.353,906.474 556.379,1175.63 557.405,1173.54 558.431,1024.23 559.457,1023.57 560.483,988.188 561.509,986.391 562.535,899.27 563.561,896.284 564.586,949.213 565.612,948.543 566.638,980.361 567.664,979.726 568.69,779.932 569.716,778.259 570.742,985.727 571.768,985.287 572.794,937.037 573.82,935.48 574.846,1036.59 575.872,1034.31 576.898,939.194 577.924,932.572 578.95,1099.86 579.975,1098.43 581.001,941.616 582.027,940.745 583.053,1009.98 584.079,1009.16 585.105,1075.39 586.131,1072.91 587.157,1015.59 588.183,1014.74 589.209,903.045 590.235,902.379 591.261,913.763 592.287,911.317 593.313,908.096 594.338,904.851 595.364,895.93 596.39,894.797 597.416,976.886 598.442,974.956 599.468,976.229 600.494,974.541 601.52,939.801 602.546,939.528 603.572,1044.4 604.598,1043.08 605.624,899.009 606.65,898.388 607.676,993.893 608.702,991.679 609.727,977.919 610.753,972.325 611.779,951.22 612.805,950.059 613.831,914.543 614.857,912.884 615.883,809.808 616.909,803.579 617.935,929.605 618.961,928.989 619.987,903.621 621.013,902.547 622.039,970.49 623.065,969.662 624.091,886.425 625.116,885.776 626.142,1065.47 627.168,1064.89 628.194,1101.51 629.22,1101.45 630.246,888.153 631.272,887.757 632.298,936.044 633.324,934.296 634.35,976.407 635.376,974.061 636.402,1058.82 637.428,1056.89 638.454,1047.28 639.48,1045.12 640.505,979.592 641.531,977.967 642.557,1071.7 643.583,1071.69 644.609,1010.28 645.635,1006.62 646.661,982.912 647.687,981.721 648.713,998.198 649.739,997.607 650.765,1122.65 651.791,1119.57 652.817,928.99 653.843,928.285 654.869,1069.85 655.894,1068.68 656.92,776.521 657.946,776.14 658.972,1018.06 659.998,1017.25 661.024,1037.95 662.05,1037.64 663.076,1245.88 664.102,1244.04 665.128,983.643 666.154,981.2 667.18,1116.85 668.206,1116.15 669.232,1013.76 670.257,1012.3 671.283,928.424 672.309,927.698 673.335,903.958 674.361,902.429 675.387,835.153 676.413,834.343 677.439,1106.85 678.465,1106.57 679.491,969.898 680.517,967.84 681.543,1013.14 682.569,1011.56 683.595,1103.36 684.621,1102.92 685.646,951.536 686.672,950.975 687.698,979.749 688.724,976.221 689.75,941.373 690.776,940.121 691.802,1041.3 692.828,1038.69 693.854,1132.92 694.88,1131.88 695.906,1108.68 696.932,1108.36 697.958,1039.62 698.984,1036.55 700.01,1144.59 701.035,1142.2 702.061,993.335 703.087,992.434 704.113,1031.27 705.139,1027.79 706.165,1028.72 707.191,1027.16 708.217,954.082 709.243,952.101 710.269,984.258 711.295,982.398 712.321,992.853 713.347,990.205 714.373,954.112 715.399,950.908 716.424,1098.41 717.45,1096.83 718.476,990.725 719.502,989.206 720.528,1057.23 721.554,1056.42 722.58,1172.06 723.606,1171.41 724.632,915.549 725.658,910.568 726.684,1062.58 727.71,1062.46 728.736,1021.19 729.762,1020.05 730.788,911.94 731.813,911.488 732.839,1098.17 733.865,1098.16 734.891,1015.8 735.917,1014.3 736.943,1176.79 737.969,1176.4 738.995,1055.1 740.021,1053.39 741.047,942.565 742.073,939.746 743.099,991.986 744.125,987.113 745.151,1052.95 746.176,1052.5 747.202,911.633 748.228,910.414 749.254,1129.39 750.28,1129.01 751.306,1070.37 752.332,1068.48 753.358,1026.15 754.384,1026.01 755.41,949.316 756.436,948.801 757.462,1131.21 758.488,1131.1 759.514,945.245 760.54,944.608 761.565,986.46 762.591,984.976 763.617,947.027 764.643,943.132 765.669,975.746 766.695,973.331 767.721,973.02 768.747,970.031 769.773,947.001 770.799,946.183 771.825,944.619 772.851,943.98 773.877,938.019 774.903,936.98 775.929,970.303 776.954,969.344 777.98,907.068 779.006,905.974 780.032,1087.5 781.058,1083.15 782.084,1161.67 783.11,1159.38 784.136,981.333 785.162,980.406 786.188,1008.44 787.214,1007.37 788.24,1004.71 789.266,1004.23 790.292,976.334 791.318,975.998 792.343,1150.58 793.369,1148.79 794.395,822.248 795.421,819.871 796.447,1015.05 797.473,1009.27 798.499,864.433 799.525,863.363 800.551,1011 801.577,1010.24 802.603,1008.29 803.629,1007.88 804.655,1016.58 805.681,1015.44 806.707,931.402 807.732,930.724 808.758,926.635 809.784,923.787 810.81,980.044 811.836,979.126 812.862,961.559 813.888,960.11 814.914,1017.72 815.94,1016.84 816.966,1043.96 817.992,1041.47 819.018,1020.89 820.044,1017.44 821.07,1128.24 822.095,1127.62 823.121,928.374 824.147,925.29 825.173,1071.34 826.199,1068.76 827.225,957.037 828.251,955.462 829.277,1163.16 830.303,1162.29 831.329,954.082 832.355,952.677 833.381,971.374 834.407,970.977 835.433,1007.32 836.459,1006.96 837.484,932.675 838.51,932.364 839.536,1032.84 840.562,1032.5 841.588,889.371 842.614,888.754 843.64,970.397 844.666,969.311 845.692,967.153 846.718,966.835 847.744,932.06 848.77,931.343 849.796,1010.9 850.822,1009.91 851.848,1114.49 852.873,1114.39 853.899,1078.4 854.925,1078.04 855.951,998.385 856.977,996.953 858.003,897.469 859.029,896.564 860.055,1003.2 861.081,999.244 862.107,1114.11 863.133,1113.9 864.159,1015.13 865.185,1014.61 866.211,1010.76 867.237,1010.21 868.262,1057.47 869.288,1056.66 870.314,1179.53 871.34,1177.76 872.366,1119.53 873.392,1119.46 874.418,984.817 875.444,982.345 876.47,789.132 877.496,787.276 878.522,935.403 879.548,933.925 880.574,977.644 881.6,975.89 882.626,967.332 883.651,966.098 884.677,894.523 885.703,894.011 886.729,1075.46 887.755,1073.11 888.781,971.696 889.807,971.222 890.833,997.207 891.859,996.128 892.885,896.13 893.911,895.876 894.937,934.984 895.963,934.503 896.989,1002.11 898.014,1001.66 899.04,1044.9 900.066,1044.78 901.092,910.19 902.118,907.711 903.144,998.671 904.17,998.356 905.196,997.823 906.222,997.396 907.248,1043.89 908.274,1042.11 909.3,1086.51 910.326,1085.23 911.352,965.374 912.378,963.182 913.403,858.078 914.429,857.549 915.455,964.088 916.481,961.633 917.507,1043.5 918.533,1043.32 919.559,1141.67 920.585,1139.98 921.611,1008.22 922.637,1007.05 923.663,1049.44 924.689,1048.39 925.715,1077.13 926.741,1076.07 927.767,1071.63 928.792,1068.16 929.818,1028.53 930.844,1027.87 931.87,934.636 932.896,931.513 933.922,846.32 934.948,841.935 935.974,759.041 937,758.086 938.026,895.28 939.052,894.891 940.078,967.373 941.104,966.754 942.13,994.938 943.156,993.26 944.181,1266.77 945.207,1265.86 946.233,785.641 947.259,784.963 948.285,925.729 949.311,923.213 950.337,1080.96 951.363,1080.91 952.389,1375.17 953.415,1369.74 954.441,885.398 955.467,884.04 956.493,1044.77 957.519,1044.55 958.545,1069.98 959.57,1064.48 960.596,988.813 961.622,985.839 962.648,928.382 963.674,926.967 964.7,978.279 965.726,976.355 966.752,1014 967.778,1011.35 968.804,1150.02 969.83,1149.99 970.856,1034.69 971.882,1034.23 972.908,1135.2 973.933,1132.93 974.959,1259.09 975.985,1256.51 977.011,1272.91 978.037,1269.65 979.063,1012.4 980.089,1011.46 981.115,839.314 982.141,835.874 983.167,1142.82 984.193,1142.25 985.219,972.838 986.245,972.264 987.271,993.116 988.297,990.823 989.322,1040.45 990.348,1037.44 991.374,1104.93 992.4,1104.57 993.426,997.178 994.452,996.573 995.478,1088.99 996.504,1088.27 997.53,1079.09 998.556,1077.9 999.582,938.899 1000.61,938.328 1001.63,1026.75 1002.66,1025.07 1003.69,974.546 1004.71,973.822 1005.74,1345.71 1006.76,1340.76 1007.79,1166.34 1008.82,1163.22 1009.84,1117.26 1010.87,1117.04 1011.89,1049.84 1012.92,1047.92 1013.94,1007.6 1014.97,997.769 1016,1019.71 1017.02,1010.1 1018.05,981.021 1019.07,977.786 1020.1,1078.21 1021.13,1075.49 1022.15,982.207 1023.18,978.02 1024.2,1040.15 1025.23,1037.48 1026.26,1049.92 1027.28,1049.09 1028.31,958.209 1029.33,957.439 1030.36,1061.99 1031.39,1059.11 1032.41,1128.79 1033.44,1127.81 1034.46,1024.06 1035.49,1022.58 1036.52,954.361 1037.54,952.911 1038.57,1072.12 1039.59,1070.9 1040.62,1036.99 1041.65,1036.72 1042.67,891.752 1043.7,891.201 1044.72,1112.88 1045.75,1112.71 1046.77,993.131 1047.8,992.387 1048.83,991.375 1049.85,988.395 1050.88,1003.22 1051.9,1002.94 1052.93,975.67 1053.96,974.882 1054.98,994.496 1056.01,993.528 1057.03,959.391 1058.06,956.977 1059.09,1335.88 1060.11,1332.14 1061.14,942.679 1062.16,940.296 1063.19,921.57 1064.22,917.04 1065.24,973.291 1066.27,972.732 1067.29,1035.45 1068.32,1034.17 1069.35,1180.06 1070.37,1178.99 1071.4,932.962 1072.42,932.469 1073.45,1171.52 1074.47,1170.15 1075.5,1044.15 1076.53,1043.51 1077.55,866.669 1078.58,866.226 1079.6,972.909 1080.63,972.198 1081.66,975.174 1082.68,973.909 1083.71,1000.18 1084.73,999.412 1085.76,977.788 1086.79,974.121 1087.81,1000.55 1088.84,999.687 1089.86,863.771 1090.89,862.684 1091.92,1112.58 1092.94,1110.36 1093.97,1002.84 1094.99,1001.92 1096.02,956.784 1097.05,946.219 1098.07,866.94 1099.1,866.267 1100.12,1145.22 1101.15,1144.78 1102.18,991.053 1103.2,988.2 1104.23,951.03 1105.25,947.893 1106.28,1045.29 1107.3,1043.92 1108.33,924.635 1109.36,923.292 1110.38,1000.9 1111.41,1000.49 1112.43,852.899 1113.46,850.601 1114.49,1129.16 1115.51,1123.03 1116.54,1140.31 1117.56,1140.38 1118.59,1069.52 1119.62,1069.07 1120.64,1137.73 1121.67,1137.56 1122.69,1002.47 1123.72,1001.91 1124.75,1173.65 1125.77,1173.1 1126.8,1143.74 1127.82,1142.65 1128.85,971.31 1129.88,970.594 1130.9,935.962 1131.93,934.837 1132.95,1000.95 1133.98,999.72 1135,895.925 1136.03,895.26 1137.06,966.82 1138.08,966.538 1139.11,1038.61 1140.13,1037.09 1141.16,926.759 1142.19,923.441 1143.21,1028.14 1144.24,1026.59 1145.26,896.889 1146.29,896.478 1147.32,989.297 1148.34,987.279 1149.37,983.96 1150.39,981.187 1151.42,942.955 1152.45,940.159 1153.47,966.913 1154.5,965.74 1155.52,1128.71 1156.55,1128.49 1157.58,1163.52 1158.6,1162.89 1159.63,913.683 1160.65,912.672 1161.68,990.231 1162.71,989.193 1163.73,1016.39 1164.76,1015.6 1165.78,1062.65 1166.81,1062.53 1167.83,1046.92 1168.86,1045.45 1169.89,1037.86 1170.91,1037.31 1171.94,962.248 1172.96,961.317 1173.99,949.298 1175.02,948.349 1176.04,1082.59 1177.07,1081.04 1178.09,1002.66 1179.12,1001.54 1180.15,931.393 1181.17,930.573 1182.2,962.574 1183.22,962.328 1184.25,959.839 1185.28,959.611 1186.3,1019.8 1187.33,1017.58 1188.35,889.849 1189.38,889.665 1190.41,1029.96 1191.43,1029.4 1192.46,1034.64 1193.48,1034.49 1194.51,1003.18 1195.53,1001.54 1196.56,994.449 1197.59,994.358 1198.61,898.149 1199.64,896.325 1200.66,1067.96 1201.69,1067.51 1202.72,1134.02 1203.74,1133.69 1204.77,959.456 1205.79,959.149 1206.82,992.648 1207.85,991.826 1208.87,1001.72 1209.9,1000.16 1210.92,993.042 1211.95,992.391 1212.98,997.768 1214,997.181 1215.03,922.107 1216.05,921.464 1217.08,991.688 1218.11,990.463 1219.13,883.747 1220.16,882.697 1221.18,1000.33 1222.21,999.249 1223.24,1021.92 1224.26,1017.79 1225.29,941.515 1226.31,938.593 1227.34,961.563 1228.36,961.119 1229.39,957.685 1230.42,957.461 1231.44,982.446 1232.47,981.608 1233.49,920.885 1234.52,919.034 1235.55,1204.86 1236.57,1202.98 1237.6,997.012 1238.62,995.013 1239.65,1139.25 1240.68,1136.39 1241.7,1135.09 1242.73,1135.01 1243.75,980.112 1244.78,975.203 1245.81,1027.46 1246.83,1026.54 1247.86,1103.86 1248.88,1103.49 1249.91,993.595 1250.94,993.355 1251.96,984.774 1252.99,983.799 1254.01,1055.68 1255.04,1055.15 1256.06,968.087 1257.09,965.544 1258.12,1058.85 1259.14,1058.62 1260.17,1061.8 1261.19,1060.67 1262.22,1067.93 1263.25,1067.76 1264.27,959.162 1265.3,958.934 1266.32,943.731 1267.35,939.453 1268.38,1100.88 1269.4,1100.68 1270.43,1092.96 1271.45,1092.61 1272.48,1223.32 1273.51,1221.45 1274.53,1072.45 1275.56,1071.83 1276.58,971.789 1277.61,970.073 1278.64,1101.32 1279.66,1100.7 1280.69,947.772 1281.71,943.081 1282.74,1183.65 1283.77,1180.65 1284.79,933.517 1285.82,932.213 1286.84,1198.27 1287.87,1195.82 1288.89,922.155 1289.92,920.127 1290.95,1065.62 1291.97,1063.91 1293,991.674 1294.02,990.977 1295.05,998.831 1296.08,993.951 1297.1,949.777 1298.13,947.24 1299.15,1034.98 1300.18,1028.28 1301.21,983.981 1302.23,984.059 1303.26,1031.38 1304.28,1030.82 1305.31,932.185 1306.34,926.845 1307.36,979.53 1308.39,976.94 1309.41,1030.28 1310.44,1029.09 1311.47,986.608 1312.49,985.538 1313.52,1030.23 1314.54,1029.59 1315.57,957.66 1316.59,957.467 1317.62,967.763 1318.65,967.079 1319.67,1141.32 1320.7,1139.51 1321.72,934.371 1322.75,932.988 1323.78,1198.95 1324.8,1197.23 1325.83,922.537 1326.85,922.01 1327.88,983.484 1328.91,978.589 1329.93,1301.94 1330.96,1298.25 1331.98,1020.91 1333.01,1019.78 1334.04,1030.67 1335.06,1030.18 1336.09,964.985 1337.11,964.171 1338.14,931.019 1339.17,929.159 1340.19,1007.27 1341.22,1005.42 1342.24,1093.51 1343.27,1093.34 1344.3,1031.17 1345.32,1030.84 1346.35,992.87 1347.37,991.921 1348.4,1027.57 1349.42,1024.92 1350.45,997.738 1351.48,997.321 1352.5,993.365 1353.53,993.148 1354.55,961.036 1355.58,959.988 1356.61,1031.6 1357.63,1030.77 1358.66,944.32 1359.68,939.639 1360.71,988.483 1361.74,988.179 1362.76,1096.28 1363.79,1096.3 1364.81,1059.93 1365.84,1059.92 1366.87,1003.95 1367.89,998.581 1368.92,1087.08 1369.94,1085.91 1370.97,1095.02 1372,1094.85 1373.02,950.304 1374.05,949.457 1375.07,996.389 1376.1,995.941 1377.12,1036.51 1378.15,1034.58 1379.18,944.569 1380.2,942.034 1381.23,978.426 1382.25,976.439 1383.28,1015.3 1384.31,1011.62 1385.33,1080.74 1386.36,1078.85 1387.38,1091.34 1388.41,1091.22 1389.44,965.983 1390.46,964.654 1391.49,1105.02 1392.51,1103.31 1393.54,956.684 1394.57,956.002 1395.59,1012.14 1396.62,1007.54 1397.64,1009.35 1398.67,1006.68 1399.7,1353.26 1400.72,1348.1 1401.75,1142.92 1402.77,1140.66 1403.8,994.361 1404.83,993.986 1405.85,1102.85 1406.88,1102.24 1407.9,1134.65 1408.93,1134.51 1409.95,992.228 1410.98,990.9 1412.01,1044.45 1413.03,1036.98 1414.06,993.525 1415.08,992.153 1416.11,999.047 1417.14,997.167 1418.16,1026.96 1419.19,1025.08 1420.21,1030.61 1421.24,1028.23 1422.27,926.165 1423.29,924.9 1424.32,1095.81 1425.34,1094.68 1426.37,1067.01 1427.4,1064.64 1428.42,996.344 1429.45,994.477 1430.47,957.581 1431.5,956.759 1432.53,991.711 1433.55,990.936 1434.58,922.075 1435.6,921.247 1436.63,1022.93 1437.65,1022.08 1438.68,1052.64 1439.71,1051.24 1440.73,959.203 1441.76,957.41 1442.78,1037.98 1443.81,1035.01 1444.84,885.409 1445.86,885.064 1446.89,959.6 1447.91,957.028 1448.94,991.195 1449.97,990.052 1450.99,1130.79 1452.02,1129.85 1453.04,1126.06 1454.07,1125.17 1455.1,1024.95 1456.12,1023.65 1457.15,983.649 1458.17,982.059 1459.2,1082.51 1460.23,1078.84 1461.25,908.483 1462.28,906.729 1463.3,984.312 1464.33,984.028 1465.36,990.834 1466.38,990.515 1467.41,927.762 1468.43,925.097 1469.46,987.442 1470.48,985.07 1471.51,1351.39 1472.54,1348.15 1473.56,990.131 1474.59,987.801 1475.61,1124.65 1476.64,1124.51 1477.67,1021.83 1478.69,1021.23 1479.72,1087.92 1480.74,1086.63 1481.77,909.361 1482.8,907.621 1483.82,978.166 1484.85,973.557 1485.87,971.286 1486.9,969.567 1487.93,989.232 1488.95,988.967 1489.98,1033.78 1491,1032.27 1492.03,1107 1493.06,1104.53 1494.08,959.845 1495.11,958.841 1496.13,921.212 1497.16,920.892 1498.18,1229.12 1499.21,1228.45 1500.24,1099.68 1501.26,1099.06 1502.29,1060.78 1503.31,1060.69 1504.34,1097.77 1505.37,1097.29 1506.39,1027.51 1507.42,1026.62 1508.44,989.413 1509.47,987.823 1510.5,955.567 1511.52,954.839 1512.55,929.868 1513.57,928.106 1514.6,993.133 1515.63,992.69 1516.65,892.228 1517.68,888.96 1518.7,957.055 1519.73,955.576 1520.76,1095.04 1521.78,1093.87 1522.81,887.485 1523.83,887.052 1524.86,1201.24 1525.89,1197.02 1526.91,991.604 1527.94,990.295 1528.96,1264.33 1529.99,1260.25 1531.01,920.078 1532.04,919.414 1533.07,1029.65 1534.09,1028.6 1535.12,1189.39 1536.14,1186.33 1537.17,958.39 1538.2,956.989 1539.22,1057.46 1540.25,1057.28 1541.27,951.121 1542.3,949.992 1543.33,952.103 1544.35,951.628 1545.38,992.876 1546.4,992.555 1547.43,909.577 1548.46,908.212 1549.48,959.496 1550.51,959.16 1551.53,979.429 1552.56,978.019 1553.59,1234.18 1554.61,1234.03 1555.64,1103.27 1556.66,1102.39 1557.69,1111.78 1558.71,1109.67 1559.74,1142.93 1560.77,1140.65 1561.79,997.315 1562.82,996.849 1563.84,959.429 1564.87,958.546 1565.9,995.666 1566.92,994.447 1567.95,993.074 1568.97,992.823 1570,1165.86 1571.03,1164.29 1572.05,1031.74 1573.08,1029.75 1574.1,1092.89 1575.13,1091.89 1576.16,1001.34 1577.18,998.597 1578.21,1026.53 1579.23,1026.1 1580.26,992.857 1581.29,991.202 1582.31,1060.53 1583.34,1059.66 1584.36,894.789 1585.39,886.595 1586.42,950.255 1587.44,944.216 1588.47,1232.88 1589.49,1232.34 1590.52,1122.78 1591.54,1121.91 1592.57,1020.5 1593.6,1019.58 1594.62,959.425 1595.65,959.177 1596.67,909.019 1597.7,906.883 1598.73,1057.76 1599.75,1057.61 1600.78,1048.02 1601.8,1047.59 1602.83,990.465 1603.86,990.161 1604.88,989.595 1605.91,987.947 1606.93,1075.06 1607.96,1072.6 1608.99,1223.16 1610.01,1223.13 1611.04,922.706 1612.06,921.974 1613.09,995.647 1614.12,995.126 1615.14,1060.78 1616.17,1060.7 1617.19,921.6 1618.22,921.221 1619.24,998.004 1620.27,997.057 1621.3,1191.62 1622.32,1191.57 1623.35,969.26 1624.37,967.48 1625.4,959.049 1626.43,957.462 1627.45,863.425 1628.48,861.349 1629.5,1088.98 1630.53,1088.89 1631.56,924.688 1632.58,921.859 1633.61,1159.37 1634.63,1158.61 1635.66,1130.62 1636.69,1130.42 1637.71,963.795 1638.74,963.377 1639.76,1125.67 1640.79,1122.53 1641.82,927.576 1642.84,927.076 1643.87,956.102 1644.89,954.732 1645.92,993.104 1646.95,992.731 1647.97,986.408 1649,984.912 1650.02,1004.52 1651.05,1002.33 1652.07,858.741 1653.1,858.276 1654.13,1024.76 1655.15,1022.42 1656.18,993.681 1657.2,990.753 1658.23,954.442 1659.26,953.071 1660.28,1322.88 1661.31,1321.97 1662.33,957.928 1663.36,957.51 1664.39,978.02 1665.41,973.525 1666.44,956.911 1667.46,955.305 1668.49,1004.84 1669.52,1001.07 1670.54,963.963 1671.57,960.897 1672.59,1023.73 1673.62,1023.38 1674.65,1326.64 1675.67,1325.45 1676.7,1091.36 1677.72,1089.73 1678.75,1028.4 1679.78,1027.22 1680.8,955.737 1681.83,954.388 1682.85,1194.05 1683.88,1193.52 1684.9,927.335 1685.93,927.051 1686.96,1094.99 1687.98,1094.89 1689.01,990.05 1690.03,987.845 1691.06,1058.68 1692.09,1058.42 1693.11,926.592 1694.14,926.27 1695.16,1093.61 1696.19,1092.7 1697.22,987.146 1698.24,986.357 1699.27,1099.5 1700.29,1099.18 1701.32,1049.85 1702.35,1045.46 1703.37,976.399 1704.4,974.132 1705.42,968.726 1706.45,965.734 1707.48,1134.31 1708.5,1131.33 1709.53,1027.27 1710.55,1027.23 1711.58,1004.02 1712.6,1001.53 1713.63,1097.64 1714.66,1096.78 1715.68,1132.12 1716.71,1129.68 1717.73,964.524 1718.76,963.707 1719.79,1033.13 1720.81,1031.6 1721.84,1033.51 1722.86,1032.67 1723.89,1030.34 1724.92,1028.47 1725.94,993.432 1726.97,992.351 1727.99,1151.69 1729.02,1150.49 1730.05,961.31 1731.07,960.198 1732.1,958.367 1733.12,957.874 1734.15,1259.87 1735.18,1256.1 1736.2,1129.74 1737.23,1129.82 1738.25,1284.98 1739.28,1284.16 1740.31,991.71 1741.33,991.504 1742.36,934.556 1743.38,933.395 1744.41,1026.18 1745.43,1025.79 1746.46,1025.43 1747.49,1025.1 1748.51,935.109 1749.54,932.014 1750.56,1097.89 1751.59,1097.26 1752.62,1130.99 1753.64,1130.98 1754.67,1060.84 1755.69,1059.35 1756.72,931.267 1757.75,929.745 1758.77,1089.11 1759.8,1086.94 1760.82,1131.78 1761.85,1130.79 1762.88,1041.19 1763.9,1038.97 1764.93,966.309 1765.95,965.706 1766.98,1132.01 1768.01,1131.79 1769.03,929.66 1770.06,929.139 1771.08,969.869 1772.11,967.826 1773.13,992.628 1774.16,987.945 1775.19,1080.38 1776.21,1073.87 1777.24,1035.18 1778.26,1034.73 1779.29,1100.59 1780.32,1097.35 1781.34,896.535 1782.37,895.734 1783.39,1060.4 1784.42,1060.08 1785.45,1036.73 1786.47,1033.81 1787.5,988.671 1788.52,988.471 1789.55,999.281 1790.58,995.293 1791.6,965.24 1792.63,961.87 1793.65,997.961 1794.68,997.612 1795.71,1154.22 1796.73,1150.53 1797.76,967.009 1798.78,965.794 1799.81,961.172 1800.84,959.755 1801.86,1051.13 1802.89,1050.37 1803.91,967.062 1804.94,965.247 1805.96,1028.6 1806.99,1027.79 1808.02,1093.51 1809.04,1091.23 1810.07,966.125 1811.09,965.31 1812.12,1225.96 1813.15,1225.3 1814.17,1134.5 1815.2,1132.72 1816.22,1125.58 1817.25,1122.88 1818.28,1031.79 1819.3,1030.53 1820.33,1125.17 1821.35,1124.54 1822.38,862.939 1823.41,862.27 1824.43,1091.67 1825.46,1091.31 1826.48,1221.57 1827.51,1217.41 1828.54,1047.19 1829.56,1047.07 1830.59,1035.82 1831.61,1034.61 1832.64,974.186 1833.66,972.636 1834.69,904.408 1835.72,902.313 1836.74,1095.57 1837.77,1093.07 1838.79,1003.43 1839.82,1002.56 1840.85,1063.08 1841.87,1062.33 1842.9,1058.09 1843.92,1054.4 1844.95,1018.32 1845.98,1015.29 1847,1051.67 1848.03,1050.66 1849.05,1016.26 1850.08,1015.65 1851.11,999.829 1852.13,999.267 1853.16,922.987 1854.18,921.505 1855.21,1117.2 1856.24,1116.59 1857.26,1141.37 1858.29,1140.79 1859.31,1045.55 1860.34,1042.99 1861.37,1227.36 1862.39,1227.05 1863.42,982.102 1864.44,980.444 1865.47,935.419 1866.49,934.848 1867.52,982.058 1868.55,980.513 1869.57,1004.07 1870.6,1000.72 1871.62,1026.81 1872.65,1026.12 1873.68,936.141 1874.7,933.863 1875.73,1094.79 1876.75,1091.83 1877.78,1143.81 1878.81,1140.25 1879.83,1132.34 1880.86,1132.32 1881.88,1064.37 1882.91,1061.85 1883.94,1152.98 1884.96,1152.59 1885.99,1099.43 1887.01,1098.96 1888.04,1059.91 1889.07,1057.21 1890.09,1009.22 1891.12,1005.62 1892.14,1063.22 1893.17,1063.18 1894.19,974.843 1895.22,974.429 1896.25,1154.7 1897.27,1154.22 1898.3,1133.15 1899.32,1133.01 1900.35,1363.71 1901.38,1358.66 1902.4,1085.41 1903.43,1085.37 1904.45,1129.03 1905.48,1126.19 1906.51,878.448 1907.53,877.1 1908.56,1102.81 1909.58,1102.85 1910.61,917.342 1911.64,915.79 1912.66,1157.93 1913.69,1157.43 1914.71,1018.67 1915.74,1016.96 1916.77,1153.92 1917.79,1153.89 1918.82,980.476 1919.84,979.371 1920.87,993.371 1921.9,992.671 1922.92,1023.58 1923.95,1022.06 1924.97,1098.74 1926,1097.52 1927.02,1134.28 1928.05,1134.16 1929.08,1035.74 1930.1,1035.2 1931.13,1169.15 1932.15,1165.77 1933.18,1243.25 1934.21,1242.46 1935.23,1072.25 1936.26,1070.73 1937.28,849.074 1938.31,847.166 1939.34,1029.89 1940.36,1024.37 1941.39,1187.67 1942.41,1187.09 1943.44,1056.53 1944.47,1055.82 1945.49,1072.54 1946.52,1071.31 1947.54,985.947 1948.57,985.376 1949.6,1321.78 1950.62,1318.69 1951.65,1035.23 1952.67,1034.68 1953.7,1007.51 1954.72,1006.04 1955.75,1273.89 1956.78,1272.33 1957.8,1105.05 1958.83,1104.03 1959.85,998.372 1960.88,996.314 1961.91,994.327 1962.93,992.451 1963.96,954.453 1964.98,953.68 1966.01,1023.45 1967.04,1022.08 1968.06,1155.17 1969.09,1154.81 1970.11,1059.27 1971.14,1056.96 1972.17,1068.85 1973.19,1068.53 1974.22,991.009 1975.24,989.467 1976.27,1138.52 1977.3,1137.44 1978.32,1048.28 1979.35,1048.4 1980.37,950.117 1981.4,947.601 1982.43,956.423 1983.45,953.86 1984.48,1111.74 1985.5,1110.18 1986.53,1092.51 1987.55,1090.86 1988.58,1139.71 1989.61,1139.45 1990.63,1147.18 1991.66,1146.99 1992.68,1196.68 1993.71,1196.08 1994.74,1060.96 1995.76,1059.47 1996.79,1445.72 1997.81,1443.42 1998.84,1005.56 1999.87,1005.45 2000.89,922.279 2001.92,921.516 2002.94,1008.12 2003.97,1005.66 2005,1084.3 2006.02,1083.2 2007.05,1201.55 2008.07,1201.58 2009.1,1122.06 2010.13,1120.59 2011.15,1047.36 2012.18,1044.88 2013.2,1037.2 2014.23,1034.5 2015.25,1074.84 2016.28,1074.54 2017.31,1091.79 2018.33,1090.53 2019.36,1273.53 2020.38,1273.18 2021.41,1039.35 2022.44,1036.67 2023.46,960.472 2024.49,959.07 2025.51,1071.93 2026.54,1070.85 2027.57,961.926 2028.59,961.188 2029.62,973.013 2030.64,972.306 2031.67,1122.24 2032.7,1121.11 2033.72,1277.53 2034.75,1276.94 2035.77,998.256 2036.8,996.869 2037.83,1307.71 2038.85,1307.11 2039.88,997.735 2040.9,995.252 2041.93,1320.14 2042.96,1319.12 2043.98,1010.28 2045.01,1008.76 2046.03,1157.71 2047.06,1155.94 2048.08,970.921 2049.11,970.444 2050.14,1039.84 2051.16,1038.85 2052.19,1046.44 2053.21,1044.9 2054.24,1037.4 2055.27,1036.4 2056.29,1044.9 2057.32,1039.64 2058.34,1119.6 2059.37,1119.37 2060.4,1267.24 2061.42,1265.85 2062.45,1073.15 2063.47,1070.63 2064.5,1001.03 2065.53,999.476 2066.55,1120.54 2067.58,1119.84 2068.6,1157.44 2069.63,1156.1 2070.66,1269.2 2071.68,1268.57 2072.71,1009.79 2073.73,1008.66 2074.76,1232.99 2075.78,1232.42 2076.81,911.233 2077.84,909.243 2078.86,1168.18 2079.89,1167.04 2080.91,1086.75 2081.94,1086.19 2082.97,1159.5 2083.99,1159.58 2085.02,1012.62 2086.04,1012.36 2087.07,1090.34 2088.1,1089.1 2089.12,977.635 2090.15,972.736 2091.17,1154.22 2092.2,1152.98 2093.23,1127.81 2094.25,1124.46 2095.28,1054.98 2096.3,1049.72 2097.33,1008.32 2098.36,1007.32 2099.38,1082.95 2100.41,1082.04 2101.43,934.999 2102.46,933.445 2103.49,1082.03 2104.51,1081.32 2105.54,1039.67 2106.56,1038.51 2107.59,1085.39 2108.61,1084.86 2109.64,1114.5 2110.67,1113.98 2111.69,1078.1 2112.72,1077.5 2113.74,1197.31 2114.77,1195.62 2115.8,968.391 2116.82,967.549 2117.85,1078.14 2118.87,1076.72 2119.9,1003.62 2120.93,1002.69 2121.95,1150.33 2122.98,1150.17 2124,1148.35 2125.03,1147.18 2126.06,997.883 2127.08,996.65 2128.11,1076.49 2129.13,1076.21 2130.16,1113.85 2131.19,1113.63 2132.21,1072.29 2133.24,1071.19 2134.26,1035.51 2135.29,1032.23 2136.31,1223.06 2137.34,1223.33 2138.37,1079.36 2139.39,1079.04 2140.42,1095.42 2141.44,1090.55 2142.47,1150.79 2143.5,1149.74 2144.52,1215.37 2145.55,1215.11 2146.57,997.877 2147.6,997.565 2148.63,1036.2 2149.65,1035.05 2150.68,1012.38 2151.7,1011.92 2152.73,1083.07 2153.76,1083.25 2154.78,1146.63 2155.81,1146.08 2156.83,1110.73 2157.86,1109.32 2158.89,1070.06 2159.91,1069.42 2160.94,1025.69 2161.96,1024.27 2162.99,1039.1 2164.02,1035.93 2165.04,1016.28 2166.07,1016.21 2167.09,1045.31 2168.12,1044.83 2169.14,1081.2 2170.17,1080.96 2171.2,848.31 2172.22,844.982 2173.25,1076.05 2174.27,1075.01 2175.3,1071.87 2176.33,1071.75 2177.35,1073.85 2178.38,1073.82 2179.4,1168.9 2180.43,1166.56 2181.46,1014.72 2182.48,1010.88 2183.51,1127.17 2184.53,1122.48 2185.56,1030.04 2186.59,1025.74 2187.61,1228.67 2188.64,1228.85 2189.66,1002.21 2190.69,1001.39 2191.72,1233.52 2192.74,1231.1 2193.77,1222.5 2194.79,1222.45 2195.82,1108.55 2196.84,1107.84 2197.87,1069.46 2198.9,1066.99 2199.92,1233.74 2200.95,1233.92 2201.97,984.14 2203,982.795 2204.03,1096.26 2205.05,1095.09 2206.08,934.896 2207.1,933.796 2208.13,1147.33 2209.16,1146.39 2210.18,1053.63 2211.21,1053.54 2212.23,1086.41 2213.26,1086.64 2214.29,1007.13 2215.31,1006.79 2216.34,1145.18 2217.36,1141.4 2218.39,1102.34 2219.42,1100.74 2220.44,1046.41 2221.47,1046.09 2222.49,1049.67 2223.52,1046.28 2224.55,1110.57 2225.57,1110.26 2226.6,1089.9 2227.62,1085.25 2228.65,1113.93 2229.67,1113.74 2230.7,1135.75 2231.73,1133.32 2232.75,911.59 2233.78,909.893 2234.8,988.838 2235.83,984.056 2236.86,1333.74 2237.88,1333.37 2238.91,1123.88 2239.93,1122.74 2240.96,1111.73 2241.99,1110.62 2243.01,1425.59 2244.04,1423.84 2245.06,1002.13 2246.09,1001.7 2247.12,970.564 2248.14,969.595 2249.17,1127.42 2250.19,1125.91 2251.22,1011.06 2252.25,1009.85 2253.27,1058.58 2254.3,1056.04 2255.32,1071.3 2256.35,1066.41 2257.37,970.211 2258.4,969.339 2259.43,1044.65 2260.45,1043.53 2261.48,1142.81 2262.5,1142.45 2263.53,1195.63 2264.56,1194.78 2265.58,1028.61 2266.61,1026.43 2267.63,1009.04 2268.66,1007.88 2269.69,1184.32 2270.71,1184.21 2271.74,1194.46 2272.76,1194.59 2273.79,883.251 2274.82,881.488 2275.84,1003.6 2276.87,1002.48 2277.89,1411.74 2278.92,1409.48 2279.95,1021.71 2280.97,1021.08 2282,1122.66 2283.02,1122.16 2284.05,1015.29 2285.08,1014.14 2286.1,1126.56 2287.13,1126.39 2288.15,1121.88 2289.18,1122.07 2290.2,1169.66 2291.23,1167.96 "/>
<path clip-path="url(#clip050)" d="M2010.47 198.898 L2280.29 198.898 L2280.29 95.2176 L2010.47 95.2176  Z" fill="#ffffff" fill-rule="evenodd" fill-opacity="1"/>
<polyline clip-path="url(#clip050)" style="stroke:#000000; stroke-linecap:round; stroke-linejoin:round; stroke-width:4; stroke-opacity:1; fill:none" points="2010.47,198.898 2280.29,198.898 2280.29,95.2176 2010.47,95.2176 2010.47,198.898 "/>
<polyline clip-path="url(#clip050)" style="stroke:#009af9; stroke-linecap:round; stroke-linejoin:round; stroke-width:4; stroke-opacity:1; fill:none" points="2034.63,147.058 2179.55,147.058 "/>
<path clip-path="url(#clip050)" d="M2217.55 166.745 Q2215.75 171.375 2214.03 172.787 Q2212.32 174.199 2209.45 174.199 L2206.05 174.199 L2206.05 170.634 L2208.55 170.634 Q2210.31 170.634 2211.28 169.8 Q2212.25 168.967 2213.43 165.865 L2214.19 163.921 L2203.71 138.412 L2208.22 138.412 L2216.32 158.689 L2224.43 138.412 L2228.94 138.412 L2217.55 166.745 Z" fill="#000000" fill-rule="nonzero" fill-opacity="1" /><path clip-path="url(#clip050)" d="M2236.23 160.402 L2243.87 160.402 L2243.87 134.037 L2235.56 135.703 L2235.56 131.444 L2243.82 129.778 L2248.5 129.778 L2248.5 160.402 L2256.14 160.402 L2256.14 164.338 L2236.23 164.338 L2236.23 160.402 Z" fill="#000000" fill-rule="nonzero" fill-opacity="1" /></svg>
