<?xml version="1.0" encoding="utf-8"?>
<svg xmlns="http://www.w3.org/2000/svg" xmlns:xlink="http://www.w3.org/1999/xlink" width="600" height="400" viewBox="0 0 2400 1600">
<defs>
  <clipPath id="clip080">
    <rect x="0" y="0" width="2400" height="1600"/>
  </clipPath>
</defs>
<path clip-path="url(#clip080)" d="M0 1600 L2400 1600 L2400 0 L0 0  Z" fill="#ffffff" fill-rule="evenodd" fill-opacity="1"/>
<defs>
  <clipPath id="clip081">
    <rect x="480" y="0" width="1681" height="1600"/>
  </clipPath>
</defs>
<path clip-path="url(#clip080)" d="M156.274 1486.45 L2352.76 1486.45 L2352.76 47.2441 L156.274 47.2441  Z" fill="#ffffff" fill-rule="evenodd" fill-opacity="1"/>
<defs>
  <clipPath id="clip082">
    <rect x="156" y="47" width="2197" height="1440"/>
  </clipPath>
</defs>
<polyline clip-path="url(#clip082)" style="stroke:#000000; stroke-linecap:round; stroke-linejoin:round; stroke-width:2; stroke-opacity:0.1; fill:none" points="218.439,1486.45 218.439,47.2441 "/>
<polyline clip-path="url(#clip082)" style="stroke:#000000; stroke-linecap:round; stroke-linejoin:round; stroke-width:2; stroke-opacity:0.1; fill:none" points="736.995,1486.45 736.995,47.2441 "/>
<polyline clip-path="url(#clip082)" style="stroke:#000000; stroke-linecap:round; stroke-linejoin:round; stroke-width:2; stroke-opacity:0.1; fill:none" points="1255.55,1486.45 1255.55,47.2441 "/>
<polyline clip-path="url(#clip082)" style="stroke:#000000; stroke-linecap:round; stroke-linejoin:round; stroke-width:2; stroke-opacity:0.1; fill:none" points="1774.11,1486.45 1774.11,47.2441 "/>
<polyline clip-path="url(#clip082)" style="stroke:#000000; stroke-linecap:round; stroke-linejoin:round; stroke-width:2; stroke-opacity:0.1; fill:none" points="2292.67,1486.45 2292.67,47.2441 "/>
<polyline clip-path="url(#clip080)" style="stroke:#000000; stroke-linecap:round; stroke-linejoin:round; stroke-width:4; stroke-opacity:1; fill:none" points="156.274,1486.45 2352.76,1486.45 "/>
<polyline clip-path="url(#clip080)" style="stroke:#000000; stroke-linecap:round; stroke-linejoin:round; stroke-width:4; stroke-opacity:1; fill:none" points="218.439,1486.45 218.439,1467.55 "/>
<polyline clip-path="url(#clip080)" style="stroke:#000000; stroke-linecap:round; stroke-linejoin:round; stroke-width:4; stroke-opacity:1; fill:none" points="736.995,1486.45 736.995,1467.55 "/>
<polyline clip-path="url(#clip080)" style="stroke:#000000; stroke-linecap:round; stroke-linejoin:round; stroke-width:4; stroke-opacity:1; fill:none" points="1255.55,1486.45 1255.55,1467.55 "/>
<polyline clip-path="url(#clip080)" style="stroke:#000000; stroke-linecap:round; stroke-linejoin:round; stroke-width:4; stroke-opacity:1; fill:none" points="1774.11,1486.45 1774.11,1467.55 "/>
<polyline clip-path="url(#clip080)" style="stroke:#000000; stroke-linecap:round; stroke-linejoin:round; stroke-width:4; stroke-opacity:1; fill:none" points="2292.67,1486.45 2292.67,1467.55 "/>
<path clip-path="url(#clip080)" d="M218.439 1517.37 Q214.828 1517.37 212.999 1520.93 Q211.193 1524.47 211.193 1531.6 Q211.193 1538.71 212.999 1542.27 Q214.828 1545.82 218.439 1545.82 Q222.073 1545.82 223.879 1542.27 Q225.707 1538.71 225.707 1531.6 Q225.707 1524.47 223.879 1520.93 Q222.073 1517.37 218.439 1517.37 M218.439 1513.66 Q224.249 1513.66 227.304 1518.27 Q230.383 1522.85 230.383 1531.6 Q230.383 1540.33 227.304 1544.94 Q224.249 1549.52 218.439 1549.52 Q212.629 1549.52 209.55 1544.94 Q206.494 1540.33 206.494 1531.6 Q206.494 1522.85 209.55 1518.27 Q212.629 1513.66 218.439 1513.66 Z" fill="#000000" fill-rule="nonzero" fill-opacity="1" /><path clip-path="url(#clip080)" d="M700.688 1544.91 L717.007 1544.91 L717.007 1548.85 L695.063 1548.85 L695.063 1544.91 Q697.725 1542.16 702.308 1537.53 Q706.915 1532.88 708.095 1531.53 Q710.34 1529.01 711.22 1527.27 Q712.123 1525.51 712.123 1523.82 Q712.123 1521.07 710.178 1519.33 Q708.257 1517.6 705.155 1517.6 Q702.956 1517.6 700.503 1518.36 Q698.072 1519.13 695.294 1520.68 L695.294 1515.95 Q698.118 1514.82 700.572 1514.24 Q703.026 1513.66 705.063 1513.66 Q710.433 1513.66 713.628 1516.35 Q716.822 1519.03 716.822 1523.52 Q716.822 1525.65 716.012 1527.57 Q715.225 1529.47 713.118 1532.07 Q712.54 1532.74 709.438 1535.95 Q706.336 1539.15 700.688 1544.91 Z" fill="#000000" fill-rule="nonzero" fill-opacity="1" /><path clip-path="url(#clip080)" d="M726.868 1514.29 L745.225 1514.29 L745.225 1518.22 L731.151 1518.22 L731.151 1526.7 Q732.169 1526.35 733.188 1526.19 Q734.206 1526 735.225 1526 Q741.012 1526 744.391 1529.17 Q747.771 1532.34 747.771 1537.76 Q747.771 1543.34 744.299 1546.44 Q740.826 1549.52 734.507 1549.52 Q732.331 1549.52 730.063 1549.15 Q727.817 1548.78 725.41 1548.04 L725.41 1543.34 Q727.493 1544.47 729.715 1545.03 Q731.938 1545.58 734.414 1545.58 Q738.419 1545.58 740.757 1543.48 Q743.095 1541.37 743.095 1537.76 Q743.095 1534.15 740.757 1532.04 Q738.419 1529.94 734.414 1529.94 Q732.539 1529.94 730.664 1530.35 Q728.813 1530.77 726.868 1531.65 L726.868 1514.29 Z" fill="#000000" fill-rule="nonzero" fill-opacity="1" /><path clip-path="url(#clip080)" d="M766.984 1517.37 Q763.373 1517.37 761.544 1520.93 Q759.738 1524.47 759.738 1531.6 Q759.738 1538.71 761.544 1542.27 Q763.373 1545.82 766.984 1545.82 Q770.618 1545.82 772.423 1542.27 Q774.252 1538.71 774.252 1531.6 Q774.252 1524.47 772.423 1520.93 Q770.618 1517.37 766.984 1517.37 M766.984 1513.66 Q772.794 1513.66 775.849 1518.27 Q778.928 1522.85 778.928 1531.6 Q778.928 1540.33 775.849 1544.94 Q772.794 1549.52 766.984 1549.52 Q761.174 1549.52 758.095 1544.94 Q755.039 1540.33 755.039 1531.6 Q755.039 1522.85 758.095 1518.27 Q761.174 1513.66 766.984 1513.66 Z" fill="#000000" fill-rule="nonzero" fill-opacity="1" /><path clip-path="url(#clip080)" d="M1215.17 1514.29 L1233.53 1514.29 L1233.53 1518.22 L1219.45 1518.22 L1219.45 1526.7 Q1220.47 1526.35 1221.49 1526.19 Q1222.51 1526 1223.53 1526 Q1229.31 1526 1232.69 1529.17 Q1236.07 1532.34 1236.07 1537.76 Q1236.07 1543.34 1232.6 1546.44 Q1229.13 1549.52 1222.81 1549.52 Q1220.63 1549.52 1218.36 1549.15 Q1216.12 1548.78 1213.71 1548.04 L1213.71 1543.34 Q1215.8 1544.47 1218.02 1545.03 Q1220.24 1545.58 1222.72 1545.58 Q1226.72 1545.58 1229.06 1543.48 Q1231.4 1541.37 1231.4 1537.76 Q1231.4 1534.15 1229.06 1532.04 Q1226.72 1529.94 1222.72 1529.94 Q1220.84 1529.94 1218.97 1530.35 Q1217.11 1530.77 1215.17 1531.65 L1215.17 1514.29 Z" fill="#000000" fill-rule="nonzero" fill-opacity="1" /><path clip-path="url(#clip080)" d="M1255.29 1517.37 Q1251.67 1517.37 1249.85 1520.93 Q1248.04 1524.47 1248.04 1531.6 Q1248.04 1538.71 1249.85 1542.27 Q1251.67 1545.82 1255.29 1545.82 Q1258.92 1545.82 1260.73 1542.27 Q1262.55 1538.71 1262.55 1531.6 Q1262.55 1524.47 1260.73 1520.93 Q1258.92 1517.37 1255.29 1517.37 M1255.29 1513.66 Q1261.1 1513.66 1264.15 1518.27 Q1267.23 1522.85 1267.23 1531.6 Q1267.23 1540.33 1264.15 1544.94 Q1261.1 1549.52 1255.29 1549.52 Q1249.48 1549.52 1246.4 1544.94 Q1243.34 1540.33 1243.34 1531.6 Q1243.34 1522.85 1246.4 1518.27 Q1249.48 1513.66 1255.29 1513.66 Z" fill="#000000" fill-rule="nonzero" fill-opacity="1" /><path clip-path="url(#clip080)" d="M1285.45 1517.37 Q1281.84 1517.37 1280.01 1520.93 Q1278.2 1524.47 1278.2 1531.6 Q1278.2 1538.71 1280.01 1542.27 Q1281.84 1545.82 1285.45 1545.82 Q1289.08 1545.82 1290.89 1542.27 Q1292.72 1538.71 1292.72 1531.6 Q1292.72 1524.47 1290.89 1520.93 Q1289.08 1517.37 1285.45 1517.37 M1285.45 1513.66 Q1291.26 1513.66 1294.31 1518.27 Q1297.39 1522.85 1297.39 1531.6 Q1297.39 1540.33 1294.31 1544.94 Q1291.26 1549.52 1285.45 1549.52 Q1279.64 1549.52 1276.56 1544.94 Q1273.5 1540.33 1273.5 1531.6 Q1273.5 1522.85 1276.56 1518.27 Q1279.64 1513.66 1285.45 1513.66 Z" fill="#000000" fill-rule="nonzero" fill-opacity="1" /><path clip-path="url(#clip080)" d="M1732.38 1514.29 L1754.61 1514.29 L1754.61 1516.28 L1742.06 1548.85 L1737.18 1548.85 L1748.98 1518.22 L1732.38 1518.22 L1732.38 1514.29 Z" fill="#000000" fill-rule="nonzero" fill-opacity="1" /><path clip-path="url(#clip080)" d="M1763.77 1514.29 L1782.13 1514.29 L1782.13 1518.22 L1768.06 1518.22 L1768.06 1526.7 Q1769.07 1526.35 1770.09 1526.19 Q1771.11 1526 1772.13 1526 Q1777.92 1526 1781.3 1529.17 Q1784.68 1532.34 1784.68 1537.76 Q1784.68 1543.34 1781.2 1546.44 Q1777.73 1549.52 1771.41 1549.52 Q1769.24 1549.52 1766.97 1549.15 Q1764.72 1548.78 1762.31 1548.04 L1762.31 1543.34 Q1764.4 1544.47 1766.62 1545.03 Q1768.84 1545.58 1771.32 1545.58 Q1775.32 1545.58 1777.66 1543.48 Q1780 1541.37 1780 1537.76 Q1780 1534.15 1777.66 1532.04 Q1775.32 1529.94 1771.32 1529.94 Q1769.44 1529.94 1767.57 1530.35 Q1765.72 1530.77 1763.77 1531.65 L1763.77 1514.29 Z" fill="#000000" fill-rule="nonzero" fill-opacity="1" /><path clip-path="url(#clip080)" d="M1803.89 1517.37 Q1800.28 1517.37 1798.45 1520.93 Q1796.64 1524.47 1796.64 1531.6 Q1796.64 1538.71 1798.45 1542.27 Q1800.28 1545.82 1803.89 1545.82 Q1807.52 1545.82 1809.33 1542.27 Q1811.16 1538.71 1811.16 1531.6 Q1811.16 1524.47 1809.33 1520.93 Q1807.52 1517.37 1803.89 1517.37 M1803.89 1513.66 Q1809.7 1513.66 1812.75 1518.27 Q1815.83 1522.85 1815.83 1531.6 Q1815.83 1540.33 1812.75 1544.94 Q1809.7 1549.52 1803.89 1549.52 Q1798.08 1549.52 1795 1544.94 Q1791.94 1540.33 1791.94 1531.6 Q1791.94 1522.85 1795 1518.27 Q1798.08 1513.66 1803.89 1513.66 Z" fill="#000000" fill-rule="nonzero" fill-opacity="1" /><path clip-path="url(#clip080)" d="M2237.19 1544.91 L2244.83 1544.91 L2244.83 1518.55 L2236.52 1520.21 L2236.52 1515.95 L2244.78 1514.29 L2249.46 1514.29 L2249.46 1544.91 L2257.1 1544.91 L2257.1 1548.85 L2237.19 1548.85 L2237.19 1544.91 Z" fill="#000000" fill-rule="nonzero" fill-opacity="1" /><path clip-path="url(#clip080)" d="M2276.54 1517.37 Q2272.93 1517.37 2271.1 1520.93 Q2269.3 1524.47 2269.3 1531.6 Q2269.3 1538.71 2271.1 1542.27 Q2272.93 1545.82 2276.54 1545.82 Q2280.18 1545.82 2281.98 1542.27 Q2283.81 1538.71 2283.81 1531.6 Q2283.81 1524.47 2281.98 1520.93 Q2280.18 1517.37 2276.54 1517.37 M2276.54 1513.66 Q2282.35 1513.66 2285.41 1518.27 Q2288.49 1522.85 2288.49 1531.6 Q2288.49 1540.33 2285.41 1544.94 Q2282.35 1549.52 2276.54 1549.52 Q2270.73 1549.52 2267.65 1544.94 Q2264.6 1540.33 2264.6 1531.6 Q2264.6 1522.85 2267.65 1518.27 Q2270.73 1513.66 2276.54 1513.66 Z" fill="#000000" fill-rule="nonzero" fill-opacity="1" /><path clip-path="url(#clip080)" d="M2306.7 1517.37 Q2303.09 1517.37 2301.27 1520.93 Q2299.46 1524.47 2299.46 1531.6 Q2299.46 1538.71 2301.27 1542.27 Q2303.09 1545.82 2306.7 1545.82 Q2310.34 1545.82 2312.14 1542.27 Q2313.97 1538.71 2313.97 1531.6 Q2313.97 1524.47 2312.14 1520.93 Q2310.34 1517.37 2306.7 1517.37 M2306.7 1513.66 Q2312.51 1513.66 2315.57 1518.27 Q2318.65 1522.85 2318.65 1531.6 Q2318.65 1540.33 2315.57 1544.94 Q2312.51 1549.52 2306.7 1549.52 Q2300.89 1549.52 2297.82 1544.94 Q2294.76 1540.33 2294.76 1531.6 Q2294.76 1522.85 2297.82 1518.27 Q2300.89 1513.66 2306.7 1513.66 Z" fill="#000000" fill-rule="nonzero" fill-opacity="1" /><path clip-path="url(#clip080)" d="M2336.87 1517.37 Q2333.26 1517.37 2331.43 1520.93 Q2329.62 1524.47 2329.62 1531.6 Q2329.62 1538.71 2331.43 1542.27 Q2333.26 1545.82 2336.87 1545.82 Q2340.5 1545.82 2342.31 1542.27 Q2344.14 1538.71 2344.14 1531.6 Q2344.14 1524.47 2342.31 1520.93 Q2340.5 1517.37 2336.87 1517.37 M2336.87 1513.66 Q2342.68 1513.66 2345.73 1518.27 Q2348.81 1522.85 2348.81 1531.6 Q2348.81 1540.33 2345.73 1544.94 Q2342.68 1549.52 2336.87 1549.52 Q2331.06 1549.52 2327.98 1544.94 Q2324.92 1540.33 2324.92 1531.6 Q2324.92 1522.85 2327.98 1518.27 Q2331.06 1513.66 2336.87 1513.66 Z" fill="#000000" fill-rule="nonzero" fill-opacity="1" /><polyline clip-path="url(#clip082)" style="stroke:#000000; stroke-linecap:round; stroke-linejoin:round; stroke-width:2; stroke-opacity:0.1; fill:none" points="156.274,1445.72 2352.76,1445.72 "/>
<polyline clip-path="url(#clip082)" style="stroke:#000000; stroke-linecap:round; stroke-linejoin:round; stroke-width:2; stroke-opacity:0.1; fill:none" points="156.274,1174.17 2352.76,1174.17 "/>
<polyline clip-path="url(#clip082)" style="stroke:#000000; stroke-linecap:round; stroke-linejoin:round; stroke-width:2; stroke-opacity:0.1; fill:none" points="156.274,902.62 2352.76,902.62 "/>
<polyline clip-path="url(#clip082)" style="stroke:#000000; stroke-linecap:round; stroke-linejoin:round; stroke-width:2; stroke-opacity:0.1; fill:none" points="156.274,631.072 2352.76,631.072 "/>
<polyline clip-path="url(#clip082)" style="stroke:#000000; stroke-linecap:round; stroke-linejoin:round; stroke-width:2; stroke-opacity:0.1; fill:none" points="156.274,359.524 2352.76,359.524 "/>
<polyline clip-path="url(#clip082)" style="stroke:#000000; stroke-linecap:round; stroke-linejoin:round; stroke-width:2; stroke-opacity:0.1; fill:none" points="156.274,87.9763 2352.76,87.9763 "/>
<polyline clip-path="url(#clip080)" style="stroke:#000000; stroke-linecap:round; stroke-linejoin:round; stroke-width:4; stroke-opacity:1; fill:none" points="156.274,1486.45 156.274,47.2441 "/>
<polyline clip-path="url(#clip080)" style="stroke:#000000; stroke-linecap:round; stroke-linejoin:round; stroke-width:4; stroke-opacity:1; fill:none" points="156.274,1445.72 175.172,1445.72 "/>
<polyline clip-path="url(#clip080)" style="stroke:#000000; stroke-linecap:round; stroke-linejoin:round; stroke-width:4; stroke-opacity:1; fill:none" points="156.274,1174.17 175.172,1174.17 "/>
<polyline clip-path="url(#clip080)" style="stroke:#000000; stroke-linecap:round; stroke-linejoin:round; stroke-width:4; stroke-opacity:1; fill:none" points="156.274,902.62 175.172,902.62 "/>
<polyline clip-path="url(#clip080)" style="stroke:#000000; stroke-linecap:round; stroke-linejoin:round; stroke-width:4; stroke-opacity:1; fill:none" points="156.274,631.072 175.172,631.072 "/>
<polyline clip-path="url(#clip080)" style="stroke:#000000; stroke-linecap:round; stroke-linejoin:round; stroke-width:4; stroke-opacity:1; fill:none" points="156.274,359.524 175.172,359.524 "/>
<polyline clip-path="url(#clip080)" style="stroke:#000000; stroke-linecap:round; stroke-linejoin:round; stroke-width:4; stroke-opacity:1; fill:none" points="156.274,87.9763 175.172,87.9763 "/>
<path clip-path="url(#clip080)" d="M64.0939 1431.51 Q60.4828 1431.51 58.6541 1435.08 Q56.8486 1438.62 56.8486 1445.75 Q56.8486 1452.86 58.6541 1456.42 Q60.4828 1459.96 64.0939 1459.96 Q67.7281 1459.96 69.5337 1456.42 Q71.3624 1452.86 71.3624 1445.75 Q71.3624 1438.62 69.5337 1435.08 Q67.7281 1431.51 64.0939 1431.51 M64.0939 1427.81 Q69.9041 1427.81 72.9596 1432.42 Q76.0383 1437 76.0383 1445.75 Q76.0383 1454.48 72.9596 1459.08 Q69.9041 1463.67 64.0939 1463.67 Q58.2838 1463.67 55.2051 1459.08 Q52.1495 1454.48 52.1495 1445.75 Q52.1495 1437 55.2051 1432.42 Q58.2838 1427.81 64.0939 1427.81 Z" fill="#000000" fill-rule="nonzero" fill-opacity="1" /><path clip-path="url(#clip080)" d="M84.2558 1457.12 L89.1401 1457.12 L89.1401 1463 L84.2558 1463 L84.2558 1457.12 Z" fill="#000000" fill-rule="nonzero" fill-opacity="1" /><path clip-path="url(#clip080)" d="M99.3715 1428.44 L117.728 1428.44 L117.728 1432.37 L103.654 1432.37 L103.654 1440.84 Q104.672 1440.5 105.691 1440.33 Q106.709 1440.15 107.728 1440.15 Q113.515 1440.15 116.895 1443.32 Q120.274 1446.49 120.274 1451.91 Q120.274 1457.49 116.802 1460.59 Q113.33 1463.67 107.01 1463.67 Q104.834 1463.67 102.566 1463.3 Q100.321 1462.93 97.9132 1462.19 L97.9132 1457.49 Q99.9965 1458.62 102.219 1459.18 Q104.441 1459.73 106.918 1459.73 Q110.922 1459.73 113.26 1457.63 Q115.598 1455.52 115.598 1451.91 Q115.598 1448.3 113.26 1446.19 Q110.922 1444.08 106.918 1444.08 Q105.043 1444.08 103.168 1444.5 Q101.316 1444.92 99.3715 1445.8 L99.3715 1428.44 Z" fill="#000000" fill-rule="nonzero" fill-opacity="1" /><path clip-path="url(#clip080)" d="M62.9365 1159.97 Q59.3254 1159.97 57.4967 1163.53 Q55.6912 1167.07 55.6912 1174.2 Q55.6912 1181.31 57.4967 1184.87 Q59.3254 1188.42 62.9365 1188.42 Q66.5707 1188.42 68.3763 1184.87 Q70.205 1181.31 70.205 1174.2 Q70.205 1167.07 68.3763 1163.53 Q66.5707 1159.97 62.9365 1159.97 M62.9365 1156.26 Q68.7467 1156.26 71.8022 1160.87 Q74.8809 1165.45 74.8809 1174.2 Q74.8809 1182.93 71.8022 1187.54 Q68.7467 1192.12 62.9365 1192.12 Q57.1264 1192.12 54.0477 1187.54 Q50.9921 1182.93 50.9921 1174.2 Q50.9921 1165.45 54.0477 1160.87 Q57.1264 1156.26 62.9365 1156.26 Z" fill="#000000" fill-rule="nonzero" fill-opacity="1" /><path clip-path="url(#clip080)" d="M83.0984 1185.57 L87.9827 1185.57 L87.9827 1191.45 L83.0984 1191.45 L83.0984 1185.57 Z" fill="#000000" fill-rule="nonzero" fill-opacity="1" /><path clip-path="url(#clip080)" d="M108.746 1172.3 Q105.598 1172.3 103.746 1174.46 Q101.918 1176.61 101.918 1180.36 Q101.918 1184.09 103.746 1186.26 Q105.598 1188.42 108.746 1188.42 Q111.895 1188.42 113.723 1186.26 Q115.575 1184.09 115.575 1180.36 Q115.575 1176.61 113.723 1174.46 Q111.895 1172.3 108.746 1172.3 M118.029 1157.65 L118.029 1161.91 Q116.27 1161.08 114.464 1160.64 Q112.682 1160.2 110.922 1160.2 Q106.293 1160.2 103.839 1163.32 Q101.409 1166.45 101.061 1172.77 Q102.427 1170.75 104.487 1169.69 Q106.547 1168.6 109.024 1168.6 Q114.233 1168.6 117.242 1171.77 Q120.274 1174.92 120.274 1180.36 Q120.274 1185.68 117.126 1188.9 Q113.978 1192.12 108.746 1192.12 Q102.751 1192.12 99.5798 1187.54 Q96.4085 1182.93 96.4085 1174.2 Q96.4085 1166.01 100.297 1161.15 Q104.186 1156.26 110.737 1156.26 Q112.496 1156.26 114.279 1156.61 Q116.084 1156.96 118.029 1157.65 Z" fill="#000000" fill-rule="nonzero" fill-opacity="1" /><path clip-path="url(#clip080)" d="M64.0013 888.419 Q60.3902 888.419 58.5615 891.983 Q56.756 895.525 56.756 902.655 Q56.756 909.761 58.5615 913.326 Q60.3902 916.868 64.0013 916.868 Q67.6356 916.868 69.4411 913.326 Q71.2698 909.761 71.2698 902.655 Q71.2698 895.525 69.4411 891.983 Q67.6356 888.419 64.0013 888.419 M64.0013 884.715 Q69.8115 884.715 72.867 889.321 Q75.9457 893.905 75.9457 902.655 Q75.9457 911.381 72.867 915.988 Q69.8115 920.571 64.0013 920.571 Q58.1912 920.571 55.1125 915.988 Q52.0569 911.381 52.0569 902.655 Q52.0569 893.905 55.1125 889.321 Q58.1912 884.715 64.0013 884.715 Z" fill="#000000" fill-rule="nonzero" fill-opacity="1" /><path clip-path="url(#clip080)" d="M84.1632 914.02 L89.0475 914.02 L89.0475 919.9 L84.1632 919.9 L84.1632 914.02 Z" fill="#000000" fill-rule="nonzero" fill-opacity="1" /><path clip-path="url(#clip080)" d="M98.0521 885.34 L120.274 885.34 L120.274 887.331 L107.728 919.9 L102.844 919.9 L114.649 889.275 L98.0521 889.275 L98.0521 885.34 Z" fill="#000000" fill-rule="nonzero" fill-opacity="1" /><path clip-path="url(#clip080)" d="M63.1911 616.871 Q59.58 616.871 57.7513 620.436 Q55.9458 623.977 55.9458 631.107 Q55.9458 638.213 57.7513 641.778 Q59.58 645.32 63.1911 645.32 Q66.8254 645.32 68.6309 641.778 Q70.4596 638.213 70.4596 631.107 Q70.4596 623.977 68.6309 620.436 Q66.8254 616.871 63.1911 616.871 M63.1911 613.167 Q69.0013 613.167 72.0568 617.774 Q75.1355 622.357 75.1355 631.107 Q75.1355 639.834 72.0568 644.44 Q69.0013 649.023 63.1911 649.023 Q57.381 649.023 54.3023 644.44 Q51.2468 639.834 51.2468 631.107 Q51.2468 622.357 54.3023 617.774 Q57.381 613.167 63.1911 613.167 Z" fill="#000000" fill-rule="nonzero" fill-opacity="1" /><path clip-path="url(#clip080)" d="M83.3531 642.472 L88.2373 642.472 L88.2373 648.352 L83.3531 648.352 L83.3531 642.472 Z" fill="#000000" fill-rule="nonzero" fill-opacity="1" /><path clip-path="url(#clip080)" d="M108.422 631.94 Q105.089 631.94 103.168 633.722 Q101.27 635.505 101.27 638.63 Q101.27 641.755 103.168 643.537 Q105.089 645.32 108.422 645.32 Q111.756 645.32 113.677 643.537 Q115.598 641.732 115.598 638.63 Q115.598 635.505 113.677 633.722 Q111.779 631.94 108.422 631.94 M103.746 629.949 Q100.737 629.209 99.0474 627.148 Q97.3808 625.088 97.3808 622.125 Q97.3808 617.982 100.321 615.574 Q103.284 613.167 108.422 613.167 Q113.584 613.167 116.524 615.574 Q119.464 617.982 119.464 622.125 Q119.464 625.088 117.774 627.148 Q116.108 629.209 113.121 629.949 Q116.501 630.736 118.376 633.028 Q120.274 635.32 120.274 638.63 Q120.274 643.653 117.195 646.338 Q114.14 649.023 108.422 649.023 Q102.705 649.023 99.6261 646.338 Q96.5706 643.653 96.5706 638.63 Q96.5706 635.32 98.4687 633.028 Q100.367 630.736 103.746 629.949 M102.034 622.565 Q102.034 625.25 103.7 626.755 Q105.39 628.26 108.422 628.26 Q111.432 628.26 113.121 626.755 Q114.834 625.25 114.834 622.565 Q114.834 619.88 113.121 618.375 Q111.432 616.871 108.422 616.871 Q105.39 616.871 103.7 618.375 Q102.034 619.88 102.034 622.565 Z" fill="#000000" fill-rule="nonzero" fill-opacity="1" /><path clip-path="url(#clip080)" d="M63.2837 345.323 Q59.6726 345.323 57.8439 348.888 Q56.0384 352.429 56.0384 359.559 Q56.0384 366.665 57.8439 370.23 Q59.6726 373.772 63.2837 373.772 Q66.918 373.772 68.7235 370.23 Q70.5522 366.665 70.5522 359.559 Q70.5522 352.429 68.7235 348.888 Q66.918 345.323 63.2837 345.323 M63.2837 341.619 Q69.0939 341.619 72.1494 346.226 Q75.2281 350.809 75.2281 359.559 Q75.2281 368.286 72.1494 372.892 Q69.0939 377.475 63.2837 377.475 Q57.4736 377.475 54.3949 372.892 Q51.3393 368.286 51.3393 359.559 Q51.3393 350.809 54.3949 346.226 Q57.4736 341.619 63.2837 341.619 Z" fill="#000000" fill-rule="nonzero" fill-opacity="1" /><path clip-path="url(#clip080)" d="M83.4457 370.925 L88.3299 370.925 L88.3299 376.804 L83.4457 376.804 L83.4457 370.925 Z" fill="#000000" fill-rule="nonzero" fill-opacity="1" /><path clip-path="url(#clip080)" d="M98.6539 376.087 L98.6539 371.827 Q100.413 372.661 102.219 373.1 Q104.024 373.54 105.76 373.54 Q110.39 373.54 112.82 370.438 Q115.274 367.313 115.621 360.971 Q114.279 362.962 112.219 364.026 Q110.158 365.091 107.658 365.091 Q102.473 365.091 99.4409 361.966 Q96.4317 358.818 96.4317 353.378 Q96.4317 348.054 99.5798 344.837 Q102.728 341.619 107.959 341.619 Q113.955 341.619 117.103 346.226 Q120.274 350.809 120.274 359.559 Q120.274 367.73 116.385 372.614 Q112.52 377.475 105.969 377.475 Q104.209 377.475 102.404 377.128 Q100.598 376.781 98.6539 376.087 M107.959 361.434 Q111.108 361.434 112.936 359.281 Q114.788 357.128 114.788 353.378 Q114.788 349.652 112.936 347.499 Q111.108 345.323 107.959 345.323 Q104.811 345.323 102.959 347.499 Q101.131 349.652 101.131 353.378 Q101.131 357.128 102.959 359.281 Q104.811 361.434 107.959 361.434 Z" fill="#000000" fill-rule="nonzero" fill-opacity="1" /><path clip-path="url(#clip080)" d="M53.9088 101.321 L61.5476 101.321 L61.5476 74.9555 L53.2375 76.6222 L53.2375 72.3629 L61.5013 70.6963 L66.1772 70.6963 L66.1772 101.321 L73.8161 101.321 L73.8161 105.256 L53.9088 105.256 L53.9088 101.321 Z" fill="#000000" fill-rule="nonzero" fill-opacity="1" /><path clip-path="url(#clip080)" d="M83.2605 99.3767 L88.1447 99.3767 L88.1447 105.256 L83.2605 105.256 L83.2605 99.3767 Z" fill="#000000" fill-rule="nonzero" fill-opacity="1" /><path clip-path="url(#clip080)" d="M108.33 73.775 Q104.719 73.775 102.89 77.3398 Q101.084 80.8814 101.084 88.011 Q101.084 95.1174 102.89 98.6822 Q104.719 102.224 108.33 102.224 Q111.964 102.224 113.77 98.6822 Q115.598 95.1174 115.598 88.011 Q115.598 80.8814 113.77 77.3398 Q111.964 73.775 108.33 73.775 M108.33 70.0713 Q114.14 70.0713 117.195 74.6777 Q120.274 79.261 120.274 88.011 Q120.274 96.7378 117.195 101.344 Q114.14 105.928 108.33 105.928 Q102.52 105.928 99.4409 101.344 Q96.3854 96.7378 96.3854 88.011 Q96.3854 79.261 99.4409 74.6777 Q102.52 70.0713 108.33 70.0713 Z" fill="#000000" fill-rule="nonzero" fill-opacity="1" /><polyline clip-path="url(#clip082)" style="stroke:#009af9; stroke-linecap:round; stroke-linejoin:round; stroke-width:4; stroke-opacity:1; fill:none" points="218.439,1065.55 220.513,902.62 222.587,1445.72 224.661,1391.41 226.736,1011.24 228.81,1011.24 230.884,739.691 232.958,1228.48 235.033,1011.24 237.107,1282.79 239.181,794.001 241.255,576.762 243.329,1011.24 245.404,1119.86 247.478,956.93 249.552,1174.17 251.626,1011.24 253.701,685.382 255.775,902.62 257.849,1011.24 259.923,1119.86 261.998,1174.17 264.072,848.31 266.146,522.453 268.22,956.93 270.294,739.691 272.369,956.93 274.443,848.31 276.517,739.691 278.591,902.62 280.666,848.31 282.74,794.001 284.814,576.762 286.888,794.001 288.962,739.691 291.037,794.001 293.111,685.382 295.185,794.001 297.259,576.762 299.334,794.001 301.408,468.143 303.482,685.382 305.556,413.834 307.63,522.453 309.705,631.072 311.779,902.62 313.853,685.382 315.927,631.072 318.002,956.93 320.076,576.762 322.15,576.762 324.224,739.691 326.299,576.762 328.373,631.072 330.447,468.143 332.521,522.453 334.595,739.691 336.67,739.691 338.744,250.905 340.818,631.072 342.892,413.834 344.967,685.382 347.041,685.382 349.115,576.762 351.189,359.524 353.263,359.524 355.338,576.762 357.412,250.905 359.486,522.453 361.56,305.215 363.635,522.453 365.709,522.453 367.783,413.834 369.857,413.834 371.932,468.143 374.006,468.143 376.08,739.691 378.154,468.143 380.228,413.834 382.303,250.905 384.377,576.762 386.451,196.595 388.525,576.762 390.6,359.524 392.674,305.215 394.748,250.905 396.822,468.143 398.896,413.834 400.971,468.143 403.045,413.834 405.119,576.762 407.193,522.453 409.268,305.215 411.342,305.215 413.416,305.215 415.49,305.215 417.565,413.834 419.639,250.905 421.713,522.453 423.787,250.905 425.861,413.834 427.936,305.215 430.01,413.834 432.084,305.215 434.158,196.595 436.233,359.524 438.307,305.215 440.381,468.143 442.455,413.834 444.529,413.834 446.604,250.905 448.678,359.524 450.752,250.905 452.826,250.905 454.901,359.524 456.975,305.215 459.049,413.834 461.123,250.905 463.198,250.905 465.272,305.215 467.346,250.905 469.42,359.524 471.494,305.215 473.569,196.595 475.643,468.143 477.717,250.905 479.791,305.215 481.866,359.524 483.94,250.905 486.014,468.143 488.088,413.834 490.162,305.215 492.237,142.286 494.311,87.9763 496.385,196.595 498.459,250.905 500.534,305.215 502.608,305.215 504.682,250.905 506.756,250.905 508.83,250.905 510.905,196.595 512.979,305.215 515.053,305.215 517.127,305.215 519.202,305.215 521.276,305.215 523.35,413.834 525.424,305.215 527.499,359.524 529.573,359.524 531.647,359.524 533.721,250.905 535.795,359.524 537.87,305.215 539.944,196.595 542.018,250.905 544.092,359.524 546.167,305.215 548.241,250.905 550.315,576.762 552.389,413.834 554.463,305.215 556.538,142.286 558.612,359.524 560.686,250.905 562.76,305.215 564.835,196.595 566.909,250.905 568.983,196.595 571.057,359.524 573.132,359.524 575.206,522.453 577.28,359.524 579.354,250.905 581.428,250.905 583.503,468.143 585.577,142.286 587.651,359.524 589.725,196.595 591.8,196.595 593.874,250.905 595.948,305.215 598.022,413.834 600.096,305.215 602.171,305.215 604.245,250.905 606.319,359.524 608.393,87.9763 610.468,196.595 612.542,359.524 614.616,305.215 616.69,196.595 618.765,305.215 620.839,305.215 622.913,196.595 624.987,250.905 627.061,196.595 629.136,196.595 631.21,196.595 633.284,142.286 635.358,305.215 637.433,87.9763 639.507,522.453 641.581,142.286 643.655,305.215 645.729,142.286 647.804,196.595 649.878,359.524 651.952,142.286 654.026,305.215 656.101,305.215 658.175,413.834 660.249,196.595 662.323,196.595 664.398,305.215 666.472,196.595 668.546,250.905 670.62,250.905 672.694,250.905 674.769,142.286 676.843,142.286 678.917,196.595 680.991,142.286 683.066,142.286 685.14,196.595 687.214,142.286 689.288,142.286 691.362,250.905 693.437,196.595 695.511,196.595 697.585,250.905 699.659,196.595 701.734,196.595 703.808,87.9763 705.882,87.9763 707.956,305.215 710.03,250.905 712.105,142.286 714.179,305.215 716.253,196.595 718.327,142.286 720.402,250.905 722.476,87.9763 724.55,250.905 726.624,196.595 728.699,87.9763 730.773,305.215 732.847,142.286 734.921,250.905 736.995,305.215 739.07,250.905 741.144,142.286 743.218,250.905 745.292,196.595 747.367,250.905 749.441,196.595 751.515,196.595 753.589,250.905 755.663,250.905 757.738,250.905 759.812,196.595 761.886,305.215 763.96,196.595 766.035,87.9763 768.109,196.595 770.183,142.286 772.257,142.286 774.332,196.595 776.406,305.215 778.48,413.834 780.554,142.286 782.628,359.524 784.703,142.286 786.777,142.286 788.851,142.286 790.925,250.905 793,250.905 795.074,196.595 797.148,196.595 799.222,305.215 801.296,87.9763 803.371,142.286 805.445,142.286 807.519,250.905 809.593,196.595 811.668,196.595 813.742,250.905 815.816,196.595 817.89,196.595 819.965,142.286 822.039,250.905 824.113,87.9763 826.187,305.215 828.261,196.595 830.336,196.595 832.41,250.905 834.484,142.286 836.558,142.286 838.633,196.595 840.707,142.286 842.781,305.215 844.855,142.286 846.929,142.286 849.004,305.215 851.078,305.215 853.152,250.905 855.226,250.905 857.301,142.286 859.375,196.595 861.449,468.143 863.523,250.905 865.598,196.595 867.672,196.595 869.746,305.215 871.82,196.595 873.894,196.595 875.969,142.286 878.043,305.215 880.117,250.905 882.191,142.286 884.266,250.905 886.34,305.215 888.414,142.286 890.488,142.286 892.562,87.9763 894.637,196.595 896.711,196.595 898.785,359.524 900.859,196.595 902.934,250.905 905.008,87.9763 907.082,142.286 909.156,250.905 911.23,196.595 913.305,196.595 915.379,87.9763 917.453,250.905 919.527,413.834 921.602,522.453 923.676,305.215 925.75,196.595 927.824,142.286 929.899,87.9763 931.973,468.143 934.047,250.905 936.121,196.595 938.195,87.9763 940.27,305.215 942.344,250.905 944.418,250.905 946.492,142.286 948.567,250.905 950.641,196.595 952.715,305.215 954.789,87.9763 956.863,87.9763 958.938,87.9763 961.012,87.9763 963.086,250.905 965.16,142.286 967.235,413.834 969.309,87.9763 971.383,196.595 973.457,142.286 975.532,87.9763 977.606,142.286 979.68,305.215 981.754,196.595 983.828,196.595 985.903,250.905 987.977,87.9763 990.051,196.595 992.125,305.215 994.2,87.9763 996.274,142.286 998.348,87.9763 1000.42,305.215 1002.5,250.905 1004.57,142.286 1006.64,196.595 1008.72,142.286 1010.79,250.905 1012.87,250.905 1014.94,196.595 1017.02,87.9763 1019.09,87.9763 1021.16,87.9763 1023.24,196.595 1025.31,196.595 1027.39,87.9763 1029.46,305.215 1031.54,142.286 1033.61,142.286 1035.68,196.595 1037.76,142.286 1039.83,196.595 1041.91,142.286 1043.98,196.595 1046.06,142.286 1048.13,250.905 1050.2,250.905 1052.28,196.595 1054.35,87.9763 1056.43,196.595 1058.5,250.905 1060.57,196.595 1062.65,87.9763 1064.72,359.524 1066.8,196.595 1068.87,196.595 1070.95,142.286 1073.02,196.595 1075.09,142.286 1077.17,359.524 1079.24,142.286 1081.32,142.286 1083.39,196.595 1085.47,359.524 1087.54,87.9763 1089.61,142.286 1091.69,196.595 1093.76,87.9763 1095.84,250.905 1097.91,142.286 1099.99,359.524 1102.06,142.286 1104.13,87.9763 1106.21,196.595 1108.28,87.9763 1110.36,142.286 1112.43,196.595 1114.5,250.905 1116.58,196.595 1118.65,250.905 1120.73,142.286 1122.8,305.215 1124.88,196.595 1126.95,87.9763 1129.02,250.905 1131.1,87.9763 1133.17,305.215 1135.25,142.286 1137.32,142.286 1139.4,196.595 1141.47,196.595 1143.54,87.9763 1145.62,196.595 1147.69,250.905 1149.77,305.215 1151.84,250.905 1153.92,196.595 1155.99,87.9763 1158.06,87.9763 1160.14,196.595 1162.21,196.595 1164.29,196.595 1166.36,142.286 1168.43,250.905 1170.51,196.595 1172.58,196.595 1174.66,87.9763 1176.73,305.215 1178.81,87.9763 1180.88,250.905 1182.95,142.286 1185.03,305.215 1187.1,305.215 1189.18,196.595 1191.25,87.9763 1193.33,359.524 1195.4,142.286 1197.47,142.286 1199.55,142.286 1201.62,142.286 1203.7,250.905 1205.77,142.286 1207.84,305.215 1209.92,142.286 1211.99,87.9763 1214.07,196.595 1216.14,196.595 1218.22,196.595 1220.29,142.286 1222.36,250.905 1224.44,142.286 1226.51,142.286 1228.59,87.9763 1230.66,87.9763 1232.74,142.286 1234.81,87.9763 1236.88,142.286 1238.96,142.286 1241.03,142.286 1243.11,196.595 1245.18,196.595 1247.26,196.595 1249.33,196.595 1251.4,196.595 1253.48,196.595 1255.55,196.595 1257.63,142.286 1259.7,142.286 1261.77,87.9763 1263.85,196.595 1265.92,196.595 1268,142.286 1270.07,196.595 1272.15,196.595 1274.22,250.905 1276.29,142.286 1278.37,250.905 1280.44,196.595 1282.52,142.286 1284.59,142.286 1286.67,196.595 1288.74,196.595 1290.81,305.215 1292.89,87.9763 1294.96,413.834 1297.04,142.286 1299.11,250.905 1301.19,142.286 1303.26,87.9763 1305.33,196.595 1307.41,196.595 1309.48,87.9763 1311.56,250.905 1313.63,142.286 1315.7,250.905 1317.78,142.286 1319.85,142.286 1321.93,87.9763 1324,87.9763 1326.08,196.595 1328.15,250.905 1330.22,142.286 1332.3,142.286 1334.37,87.9763 1336.45,142.286 1338.52,87.9763 1340.6,142.286 1342.67,142.286 1344.74,196.595 1346.82,87.9763 1348.89,196.595 1350.97,142.286 1353.04,142.286 1355.12,196.595 1357.19,142.286 1359.26,142.286 1361.34,142.286 1363.41,196.595 1365.49,142.286 1367.56,87.9763 1369.63,359.524 1371.71,142.286 1373.78,87.9763 1375.86,196.595 1377.93,142.286 1380.01,196.595 1382.08,142.286 1384.15,196.595 1386.23,87.9763 1388.3,142.286 1390.38,87.9763 1392.45,87.9763 1394.53,142.286 1396.6,142.286 1398.67,87.9763 1400.75,142.286 1402.82,87.9763 1404.9,142.286 1406.97,142.286 1409.04,87.9763 1411.12,87.9763 1413.19,250.905 1415.27,142.286 1417.34,196.595 1419.42,142.286 1421.49,196.595 1423.56,142.286 1425.64,250.905 1427.71,87.9763 1429.79,196.595 1431.86,196.595 1433.94,87.9763 1436.01,305.215 1438.08,196.595 1440.16,142.286 1442.23,87.9763 1444.31,87.9763 1446.38,87.9763 1448.46,305.215 1450.53,142.286 1452.6,250.905 1454.68,142.286 1456.75,142.286 1458.83,250.905 1460.9,142.286 1462.97,87.9763 1465.05,142.286 1467.12,250.905 1469.2,87.9763 1471.27,142.286 1473.35,250.905 1475.42,142.286 1477.49,196.595 1479.57,142.286 1481.64,87.9763 1483.72,142.286 1485.79,196.595 1487.87,250.905 1489.94,87.9763 1492.01,142.286 1494.09,196.595 1496.16,142.286 1498.24,87.9763 1500.31,142.286 1502.39,196.595 1504.46,250.905 1506.53,142.286 1508.61,305.215 1510.68,196.595 1512.76,142.286 1514.83,305.215 1516.9,142.286 1518.98,142.286 1521.05,196.595 1523.13,250.905 1525.2,87.9763 1527.28,142.286 1529.35,196.595 1531.42,196.595 1533.5,196.595 1535.57,196.595 1537.65,305.215 1539.72,250.905 1541.8,196.595 1543.87,142.286 1545.94,87.9763 1548.02,142.286 1550.09,142.286 1552.17,87.9763 1554.24,142.286 1556.32,196.595 1558.39,142.286 1560.46,142.286 1562.54,196.595 1564.61,87.9763 1566.69,142.286 1568.76,142.286 1570.83,250.905 1572.91,142.286 1574.98,196.595 1577.06,305.215 1579.13,196.595 1581.21,87.9763 1583.28,87.9763 1585.35,87.9763 1587.43,196.595 1589.5,250.905 1591.58,196.595 1593.65,196.595 1595.73,142.286 1597.8,142.286 1599.87,196.595 1601.95,87.9763 1604.02,250.905 1606.1,142.286 1608.17,196.595 1610.24,250.905 1612.32,142.286 1614.39,142.286 1616.47,196.595 1618.54,196.595 1620.62,359.524 1622.69,305.215 1624.76,250.905 1626.84,196.595 1628.91,87.9763 1630.99,196.595 1633.06,87.9763 1635.14,250.905 1637.21,196.595 1639.28,142.286 1641.36,142.286 1643.43,142.286 1645.51,359.524 1647.58,87.9763 1649.66,142.286 1651.73,196.595 1653.8,87.9763 1655.88,196.595 1657.95,196.595 1660.03,196.595 1662.1,142.286 1664.17,196.595 1666.25,250.905 1668.32,87.9763 1670.4,142.286 1672.47,87.9763 1674.55,196.595 1676.62,142.286 1678.69,250.905 1680.77,142.286 1682.84,305.215 1684.92,196.595 1686.99,250.905 1689.07,142.286 1691.14,305.215 1693.21,142.286 1695.29,196.595 1697.36,196.595 1699.44,196.595 1701.51,87.9763 1703.59,250.905 1705.66,142.286 1707.73,142.286 1709.81,87.9763 1711.88,196.595 1713.96,87.9763 1716.03,87.9763 1718.1,87.9763 1720.18,142.286 1722.25,196.595 1724.33,196.595 1726.4,196.595 1728.48,196.595 1730.55,87.9763 1732.62,142.286 1734.7,305.215 1736.77,250.905 1738.85,250.905 1740.92,250.905 1743,250.905 1745.07,142.286 1747.14,87.9763 1749.22,196.595 1751.29,250.905 1753.37,142.286 1755.44,87.9763 1757.52,87.9763 1759.59,196.595 1761.66,87.9763 1763.74,250.905 1765.81,196.595 1767.89,142.286 1769.96,196.595 1772.03,87.9763 1774.11,142.286 1776.18,305.215 1778.26,196.595 1780.33,87.9763 1782.41,305.215 1784.48,142.286 1786.55,196.595 1788.63,142.286 1790.7,196.595 1792.78,196.595 1794.85,196.595 1796.93,196.595 1799,196.595 1801.07,250.905 1803.15,142.286 1805.22,196.595 1807.3,87.9763 1809.37,87.9763 1811.44,87.9763 1813.52,87.9763 1815.59,87.9763 1817.67,359.524 1819.74,142.286 1821.82,250.905 1823.89,359.524 1825.96,87.9763 1828.04,196.595 1830.11,305.215 1832.19,142.286 1834.26,142.286 1836.34,196.595 1838.41,196.595 1840.48,250.905 1842.56,196.595 1844.63,250.905 1846.71,142.286 1848.78,250.905 1850.86,250.905 1852.93,196.595 1855,250.905 1857.08,87.9763 1859.15,305.215 1861.23,250.905 1863.3,196.595 1865.37,142.286 1867.45,250.905 1869.52,250.905 1871.6,305.215 1873.67,87.9763 1875.75,87.9763 1877.82,196.595 1879.89,196.595 1881.97,142.286 1884.04,196.595 1886.12,142.286 1888.19,196.595 1890.27,196.595 1892.34,196.595 1894.41,87.9763 1896.49,142.286 1898.56,305.215 1900.64,87.9763 1902.71,359.524 1904.79,142.286 1906.86,305.215 1908.93,196.595 1911.01,142.286 1913.08,196.595 1915.16,196.595 1917.23,305.215 1919.3,250.905 1921.38,142.286 1923.45,87.9763 1925.53,250.905 1927.6,196.595 1929.68,196.595 1931.75,196.595 1933.82,413.834 1935.9,142.286 1937.97,142.286 1940.05,87.9763 1942.12,196.595 1944.2,196.595 1946.27,196.595 1948.34,250.905 1950.42,305.215 1952.49,142.286 1954.57,142.286 1956.64,196.595 1958.72,196.595 1960.79,250.905 1962.86,142.286 1964.94,196.595 1967.01,87.9763 1969.09,196.595 1971.16,196.595 1973.23,87.9763 1975.31,359.524 1977.38,250.905 1979.46,359.524 1981.53,250.905 1983.61,305.215 1985.68,87.9763 1987.75,196.595 1989.83,250.905 1991.9,196.595 1993.98,142.286 1996.05,305.215 1998.13,305.215 2000.2,196.595 2002.27,196.595 2004.35,250.905 2006.42,142.286 2008.5,250.905 2010.57,142.286 2012.64,196.595 2014.72,305.215 2016.79,142.286 2018.87,250.905 2020.94,250.905 2023.02,87.9763 2025.09,250.905 2027.16,359.524 2029.24,250.905 2031.31,250.905 2033.39,196.595 2035.46,87.9763 2037.54,196.595 2039.61,196.595 2041.68,196.595 2043.76,87.9763 2045.83,359.524 2047.91,142.286 2049.98,250.905 2052.06,142.286 2054.13,142.286 2056.2,250.905 2058.28,142.286 2060.35,196.595 2062.43,196.595 2064.5,250.905 2066.57,305.215 2068.65,250.905 2070.72,196.595 2072.8,87.9763 2074.87,359.524 2076.95,196.595 2079.02,196.595 2081.09,196.595 2083.17,305.215 2085.24,196.595 2087.32,250.905 2089.39,196.595 2091.47,142.286 2093.54,250.905 2095.61,196.595 2097.69,196.595 2099.76,305.215 2101.84,196.595 2103.91,142.286 2105.99,305.215 2108.06,142.286 2110.13,196.595 2112.21,142.286 2114.28,250.905 2116.36,196.595 2118.43,196.595 2120.5,87.9763 2122.58,87.9763 2124.65,196.595 2126.73,196.595 2128.8,142.286 2130.88,196.595 2132.95,250.905 2135.02,87.9763 2137.1,305.215 2139.17,142.286 2141.25,196.595 2143.32,87.9763 2145.4,305.215 2147.47,142.286 2149.54,305.215 2151.62,305.215 2153.69,196.595 2155.77,250.905 2157.84,196.595 2159.92,250.905 2161.99,142.286 2164.06,413.834 2166.14,250.905 2168.21,196.595 2170.29,413.834 2172.36,196.595 2174.43,196.595 2176.51,196.595 2178.58,142.286 2180.66,250.905 2182.73,250.905 2184.81,196.595 2186.88,196.595 2188.95,196.595 2191.03,413.834 2193.1,196.595 2195.18,250.905 2197.25,250.905 2199.33,196.595 2201.4,250.905 2203.47,196.595 2205.55,305.215 2207.62,87.9763 2209.7,359.524 2211.77,305.215 2213.84,305.215 2215.92,87.9763 2217.99,142.286 2220.07,250.905 2222.14,142.286 2224.22,142.286 2226.29,142.286 2228.36,142.286 2230.44,196.595 2232.51,305.215 2234.59,250.905 2236.66,142.286 2238.74,142.286 2240.81,142.286 2242.88,142.286 2244.96,305.215 2247.03,250.905 2249.11,142.286 2251.18,196.595 2253.26,305.215 2255.33,142.286 2257.4,250.905 2259.48,142.286 2261.55,196.595 2263.63,250.905 2265.7,305.215 2267.77,305.215 2269.85,142.286 2271.92,142.286 2274,522.453 2276.07,196.595 2278.15,142.286 2280.22,305.215 2282.29,142.286 2284.37,196.595 2286.44,250.905 2288.52,250.905 2290.59,196.595 "/>
<path clip-path="url(#clip080)" d="M2007.46 1438.47 L2279.54 1438.47 L2279.54 1334.79 L2007.46 1334.79  Z" fill="#ffffff" fill-rule="evenodd" fill-opacity="1"/>
<polyline clip-path="url(#clip080)" style="stroke:#000000; stroke-linecap:round; stroke-linejoin:round; stroke-width:4; stroke-opacity:1; fill:none" points="2007.46,1438.47 2279.54,1438.47 2279.54,1334.79 2007.46,1334.79 2007.46,1438.47 "/>
<polyline clip-path="url(#clip080)" style="stroke:#009af9; stroke-linecap:round; stroke-linejoin:round; stroke-width:4; stroke-opacity:1; fill:none" points="2031.87,1386.63 2178.3,1386.63 "/>
<path clip-path="url(#clip080)" d="M2216.55 1406.32 Q2214.74 1410.95 2213.03 1412.36 Q2211.32 1413.78 2208.44 1413.78 L2205.04 1413.78 L2205.04 1410.21 L2207.54 1410.21 Q2209.3 1410.21 2210.27 1409.38 Q2211.25 1408.54 2212.43 1405.44 L2213.19 1403.5 L2202.7 1377.99 L2207.22 1377.99 L2215.32 1398.27 L2223.42 1377.99 L2227.94 1377.99 L2216.55 1406.32 Z" fill="#000000" fill-rule="nonzero" fill-opacity="1" /><path clip-path="url(#clip080)" d="M2235.23 1399.98 L2242.87 1399.98 L2242.87 1373.61 L2234.56 1375.28 L2234.56 1371.02 L2242.82 1369.35 L2247.5 1369.35 L2247.5 1399.98 L2255.13 1399.98 L2255.13 1403.91 L2235.23 1403.91 L2235.23 1399.98 Z" fill="#000000" fill-rule="nonzero" fill-opacity="1" /></svg>
