<?xml version="1.0" encoding="utf-8"?>
<svg xmlns="http://www.w3.org/2000/svg" xmlns:xlink="http://www.w3.org/1999/xlink" width="600" height="400" viewBox="0 0 2400 1600">
<defs>
  <clipPath id="clip020">
    <rect x="0" y="0" width="2400" height="1600"/>
  </clipPath>
</defs>
<path clip-path="url(#clip020)" d="M0 1600 L2400 1600 L2400 0 L0 0  Z" fill="#ffffff" fill-rule="evenodd" fill-opacity="1"/>
<defs>
  <clipPath id="clip021">
    <rect x="480" y="0" width="1681" height="1600"/>
  </clipPath>
</defs>
<path clip-path="url(#clip020)" d="M155.765 1486.45 L2352.76 1486.45 L2352.76 47.2441 L155.765 47.2441  Z" fill="#ffffff" fill-rule="evenodd" fill-opacity="1"/>
<defs>
  <clipPath id="clip022">
    <rect x="155" y="47" width="2198" height="1440"/>
  </clipPath>
</defs>
<polyline clip-path="url(#clip022)" style="stroke:#000000; stroke-linecap:round; stroke-linejoin:round; stroke-width:2; stroke-opacity:0.1; fill:none" points="217.944,1486.45 217.944,47.2441 "/>
<polyline clip-path="url(#clip022)" style="stroke:#000000; stroke-linecap:round; stroke-linejoin:round; stroke-width:2; stroke-opacity:0.1; fill:none" points="736.102,1486.45 736.102,47.2441 "/>
<polyline clip-path="url(#clip022)" style="stroke:#000000; stroke-linecap:round; stroke-linejoin:round; stroke-width:2; stroke-opacity:0.1; fill:none" points="1254.26,1486.45 1254.26,47.2441 "/>
<polyline clip-path="url(#clip022)" style="stroke:#000000; stroke-linecap:round; stroke-linejoin:round; stroke-width:2; stroke-opacity:0.1; fill:none" points="1772.42,1486.45 1772.42,47.2441 "/>
<polyline clip-path="url(#clip022)" style="stroke:#000000; stroke-linecap:round; stroke-linejoin:round; stroke-width:2; stroke-opacity:0.1; fill:none" points="2290.58,1486.45 2290.58,47.2441 "/>
<polyline clip-path="url(#clip020)" style="stroke:#000000; stroke-linecap:round; stroke-linejoin:round; stroke-width:4; stroke-opacity:1; fill:none" points="155.765,1486.45 2352.76,1486.45 "/>
<polyline clip-path="url(#clip020)" style="stroke:#000000; stroke-linecap:round; stroke-linejoin:round; stroke-width:4; stroke-opacity:1; fill:none" points="217.944,1486.45 217.944,1467.55 "/>
<polyline clip-path="url(#clip020)" style="stroke:#000000; stroke-linecap:round; stroke-linejoin:round; stroke-width:4; stroke-opacity:1; fill:none" points="736.102,1486.45 736.102,1467.55 "/>
<polyline clip-path="url(#clip020)" style="stroke:#000000; stroke-linecap:round; stroke-linejoin:round; stroke-width:4; stroke-opacity:1; fill:none" points="1254.26,1486.45 1254.26,1467.55 "/>
<polyline clip-path="url(#clip020)" style="stroke:#000000; stroke-linecap:round; stroke-linejoin:round; stroke-width:4; stroke-opacity:1; fill:none" points="1772.42,1486.45 1772.42,1467.55 "/>
<polyline clip-path="url(#clip020)" style="stroke:#000000; stroke-linecap:round; stroke-linejoin:round; stroke-width:4; stroke-opacity:1; fill:none" points="2290.58,1486.45 2290.58,1467.55 "/>
<path clip-path="url(#clip020)" d="M217.944 1517.37 Q214.333 1517.37 212.504 1520.93 Q210.699 1524.47 210.699 1531.6 Q210.699 1538.71 212.504 1542.27 Q214.333 1545.82 217.944 1545.82 Q221.578 1545.82 223.384 1542.27 Q225.212 1538.71 225.212 1531.6 Q225.212 1524.47 223.384 1520.93 Q221.578 1517.37 217.944 1517.37 M217.944 1513.66 Q223.754 1513.66 226.81 1518.27 Q229.888 1522.85 229.888 1531.6 Q229.888 1540.33 226.81 1544.94 Q223.754 1549.52 217.944 1549.52 Q212.134 1549.52 209.055 1544.94 Q206 1540.33 206 1531.6 Q206 1522.85 209.055 1518.27 Q212.134 1513.66 217.944 1513.66 Z" fill="#000000" fill-rule="nonzero" fill-opacity="1" /><path clip-path="url(#clip020)" d="M695.72 1514.29 L714.077 1514.29 L714.077 1518.22 L700.003 1518.22 L700.003 1526.7 Q701.021 1526.35 702.04 1526.19 Q703.058 1526 704.077 1526 Q709.864 1526 713.243 1529.17 Q716.623 1532.34 716.623 1537.76 Q716.623 1543.34 713.151 1546.44 Q709.679 1549.52 703.359 1549.52 Q701.183 1549.52 698.915 1549.15 Q696.669 1548.78 694.262 1548.04 L694.262 1543.34 Q696.345 1544.47 698.568 1545.03 Q700.79 1545.58 703.267 1545.58 Q707.271 1545.58 709.609 1543.48 Q711.947 1541.37 711.947 1537.76 Q711.947 1534.15 709.609 1532.04 Q707.271 1529.94 703.267 1529.94 Q701.392 1529.94 699.517 1530.35 Q697.665 1530.77 695.72 1531.65 L695.72 1514.29 Z" fill="#000000" fill-rule="nonzero" fill-opacity="1" /><path clip-path="url(#clip020)" d="M735.836 1517.37 Q732.225 1517.37 730.396 1520.93 Q728.591 1524.47 728.591 1531.6 Q728.591 1538.71 730.396 1542.27 Q732.225 1545.82 735.836 1545.82 Q739.47 1545.82 741.276 1542.27 Q743.104 1538.71 743.104 1531.6 Q743.104 1524.47 741.276 1520.93 Q739.47 1517.37 735.836 1517.37 M735.836 1513.66 Q741.646 1513.66 744.702 1518.27 Q747.78 1522.85 747.78 1531.6 Q747.78 1540.33 744.702 1544.94 Q741.646 1549.52 735.836 1549.52 Q730.026 1549.52 726.947 1544.94 Q723.892 1540.33 723.892 1531.6 Q723.892 1522.85 726.947 1518.27 Q730.026 1513.66 735.836 1513.66 Z" fill="#000000" fill-rule="nonzero" fill-opacity="1" /><path clip-path="url(#clip020)" d="M765.998 1517.37 Q762.387 1517.37 760.558 1520.93 Q758.752 1524.47 758.752 1531.6 Q758.752 1538.71 760.558 1542.27 Q762.387 1545.82 765.998 1545.82 Q769.632 1545.82 771.438 1542.27 Q773.266 1538.71 773.266 1531.6 Q773.266 1524.47 771.438 1520.93 Q769.632 1517.37 765.998 1517.37 M765.998 1513.66 Q771.808 1513.66 774.864 1518.27 Q777.942 1522.85 777.942 1531.6 Q777.942 1540.33 774.864 1544.94 Q771.808 1549.52 765.998 1549.52 Q760.188 1549.52 757.109 1544.94 Q754.053 1540.33 754.053 1531.6 Q754.053 1522.85 757.109 1518.27 Q760.188 1513.66 765.998 1513.66 Z" fill="#000000" fill-rule="nonzero" fill-opacity="1" /><path clip-path="url(#clip020)" d="M1198.79 1544.91 L1206.43 1544.91 L1206.43 1518.55 L1198.11 1520.21 L1198.11 1515.95 L1206.38 1514.29 L1211.05 1514.29 L1211.05 1544.91 L1218.69 1544.91 L1218.69 1548.85 L1198.79 1548.85 L1198.79 1544.91 Z" fill="#000000" fill-rule="nonzero" fill-opacity="1" /><path clip-path="url(#clip020)" d="M1238.14 1517.37 Q1234.53 1517.37 1232.7 1520.93 Q1230.89 1524.47 1230.89 1531.6 Q1230.89 1538.71 1232.7 1542.27 Q1234.53 1545.82 1238.14 1545.82 Q1241.77 1545.82 1243.58 1542.27 Q1245.41 1538.71 1245.41 1531.6 Q1245.41 1524.47 1243.58 1520.93 Q1241.77 1517.37 1238.14 1517.37 M1238.14 1513.66 Q1243.95 1513.66 1247 1518.27 Q1250.08 1522.85 1250.08 1531.6 Q1250.08 1540.33 1247 1544.94 Q1243.95 1549.52 1238.14 1549.52 Q1232.33 1549.52 1229.25 1544.94 Q1226.19 1540.33 1226.19 1531.6 Q1226.19 1522.85 1229.25 1518.27 Q1232.33 1513.66 1238.14 1513.66 Z" fill="#000000" fill-rule="nonzero" fill-opacity="1" /><path clip-path="url(#clip020)" d="M1268.3 1517.37 Q1264.69 1517.37 1262.86 1520.93 Q1261.05 1524.47 1261.05 1531.6 Q1261.05 1538.71 1262.86 1542.27 Q1264.69 1545.82 1268.3 1545.82 Q1271.93 1545.82 1273.74 1542.27 Q1275.57 1538.71 1275.57 1531.6 Q1275.57 1524.47 1273.74 1520.93 Q1271.93 1517.37 1268.3 1517.37 M1268.3 1513.66 Q1274.11 1513.66 1277.17 1518.27 Q1280.24 1522.85 1280.24 1531.6 Q1280.24 1540.33 1277.17 1544.94 Q1274.11 1549.52 1268.3 1549.52 Q1262.49 1549.52 1259.41 1544.94 Q1256.36 1540.33 1256.36 1531.6 Q1256.36 1522.85 1259.41 1518.27 Q1262.49 1513.66 1268.3 1513.66 Z" fill="#000000" fill-rule="nonzero" fill-opacity="1" /><path clip-path="url(#clip020)" d="M1298.46 1517.37 Q1294.85 1517.37 1293.02 1520.93 Q1291.22 1524.47 1291.22 1531.6 Q1291.22 1538.71 1293.02 1542.27 Q1294.85 1545.82 1298.46 1545.82 Q1302.1 1545.82 1303.9 1542.27 Q1305.73 1538.71 1305.73 1531.6 Q1305.73 1524.47 1303.9 1520.93 Q1302.1 1517.37 1298.46 1517.37 M1298.46 1513.66 Q1304.27 1513.66 1307.33 1518.27 Q1310.41 1522.85 1310.41 1531.6 Q1310.41 1540.33 1307.33 1544.94 Q1304.27 1549.52 1298.46 1549.52 Q1292.65 1549.52 1289.57 1544.94 Q1286.52 1540.33 1286.52 1531.6 Q1286.52 1522.85 1289.57 1518.27 Q1292.65 1513.66 1298.46 1513.66 Z" fill="#000000" fill-rule="nonzero" fill-opacity="1" /><path clip-path="url(#clip020)" d="M1716.94 1544.91 L1724.58 1544.91 L1724.58 1518.55 L1716.27 1520.21 L1716.27 1515.95 L1724.54 1514.29 L1729.21 1514.29 L1729.21 1544.91 L1736.85 1544.91 L1736.85 1548.85 L1716.94 1548.85 L1716.94 1544.91 Z" fill="#000000" fill-rule="nonzero" fill-opacity="1" /><path clip-path="url(#clip020)" d="M1746.34 1514.29 L1764.7 1514.29 L1764.7 1518.22 L1750.62 1518.22 L1750.62 1526.7 Q1751.64 1526.35 1752.66 1526.19 Q1753.68 1526 1754.7 1526 Q1760.49 1526 1763.87 1529.17 Q1767.25 1532.34 1767.25 1537.76 Q1767.25 1543.34 1763.77 1546.44 Q1760.3 1549.52 1753.98 1549.52 Q1751.81 1549.52 1749.54 1549.15 Q1747.29 1548.78 1744.88 1548.04 L1744.88 1543.34 Q1746.97 1544.47 1749.19 1545.03 Q1751.41 1545.58 1753.89 1545.58 Q1757.89 1545.58 1760.23 1543.48 Q1762.57 1541.37 1762.57 1537.76 Q1762.57 1534.15 1760.23 1532.04 Q1757.89 1529.94 1753.89 1529.94 Q1752.01 1529.94 1750.14 1530.35 Q1748.29 1530.77 1746.34 1531.65 L1746.34 1514.29 Z" fill="#000000" fill-rule="nonzero" fill-opacity="1" /><path clip-path="url(#clip020)" d="M1786.46 1517.37 Q1782.85 1517.37 1781.02 1520.93 Q1779.21 1524.47 1779.21 1531.6 Q1779.21 1538.71 1781.02 1542.27 Q1782.85 1545.82 1786.46 1545.82 Q1790.09 1545.82 1791.9 1542.27 Q1793.73 1538.71 1793.73 1531.6 Q1793.73 1524.47 1791.9 1520.93 Q1790.09 1517.37 1786.46 1517.37 M1786.46 1513.66 Q1792.27 1513.66 1795.32 1518.27 Q1798.4 1522.85 1798.4 1531.6 Q1798.4 1540.33 1795.32 1544.94 Q1792.27 1549.52 1786.46 1549.52 Q1780.65 1549.52 1777.57 1544.94 Q1774.51 1540.33 1774.51 1531.6 Q1774.51 1522.85 1777.57 1518.27 Q1780.65 1513.66 1786.46 1513.66 Z" fill="#000000" fill-rule="nonzero" fill-opacity="1" /><path clip-path="url(#clip020)" d="M1816.62 1517.37 Q1813.01 1517.37 1811.18 1520.93 Q1809.37 1524.47 1809.37 1531.6 Q1809.37 1538.71 1811.18 1542.27 Q1813.01 1545.82 1816.62 1545.82 Q1820.25 1545.82 1822.06 1542.27 Q1823.89 1538.71 1823.89 1531.6 Q1823.89 1524.47 1822.06 1520.93 Q1820.25 1517.37 1816.62 1517.37 M1816.62 1513.66 Q1822.43 1513.66 1825.49 1518.27 Q1828.56 1522.85 1828.56 1531.6 Q1828.56 1540.33 1825.49 1544.94 Q1822.43 1549.52 1816.62 1549.52 Q1810.81 1549.52 1807.73 1544.94 Q1804.68 1540.33 1804.68 1531.6 Q1804.68 1522.85 1807.73 1518.27 Q1810.81 1513.66 1816.62 1513.66 Z" fill="#000000" fill-rule="nonzero" fill-opacity="1" /><path clip-path="url(#clip020)" d="M2239.19 1544.91 L2255.51 1544.91 L2255.51 1548.85 L2233.56 1548.85 L2233.56 1544.91 Q2236.23 1542.16 2240.81 1537.53 Q2245.42 1532.88 2246.6 1531.53 Q2248.84 1529.01 2249.72 1527.27 Q2250.62 1525.51 2250.62 1523.82 Q2250.62 1521.07 2248.68 1519.33 Q2246.76 1517.6 2243.66 1517.6 Q2241.46 1517.6 2239 1518.36 Q2236.57 1519.13 2233.79 1520.68 L2233.79 1515.95 Q2236.62 1514.82 2239.07 1514.24 Q2241.53 1513.66 2243.56 1513.66 Q2248.93 1513.66 2252.13 1516.35 Q2255.32 1519.03 2255.32 1523.52 Q2255.32 1525.65 2254.51 1527.57 Q2253.73 1529.47 2251.62 1532.07 Q2251.04 1532.74 2247.94 1535.95 Q2244.84 1539.15 2239.19 1544.91 Z" fill="#000000" fill-rule="nonzero" fill-opacity="1" /><path clip-path="url(#clip020)" d="M2275.32 1517.37 Q2271.71 1517.37 2269.88 1520.93 Q2268.08 1524.47 2268.08 1531.6 Q2268.08 1538.71 2269.88 1542.27 Q2271.71 1545.82 2275.32 1545.82 Q2278.96 1545.82 2280.76 1542.27 Q2282.59 1538.71 2282.59 1531.6 Q2282.59 1524.47 2280.76 1520.93 Q2278.96 1517.37 2275.32 1517.37 M2275.32 1513.66 Q2281.13 1513.66 2284.19 1518.27 Q2287.27 1522.85 2287.27 1531.6 Q2287.27 1540.33 2284.19 1544.94 Q2281.13 1549.52 2275.32 1549.52 Q2269.51 1549.52 2266.43 1544.94 Q2263.38 1540.33 2263.38 1531.6 Q2263.38 1522.85 2266.43 1518.27 Q2269.51 1513.66 2275.32 1513.66 Z" fill="#000000" fill-rule="nonzero" fill-opacity="1" /><path clip-path="url(#clip020)" d="M2305.48 1517.37 Q2301.87 1517.37 2300.04 1520.93 Q2298.24 1524.47 2298.24 1531.6 Q2298.24 1538.71 2300.04 1542.27 Q2301.87 1545.82 2305.48 1545.82 Q2309.12 1545.82 2310.92 1542.27 Q2312.75 1538.71 2312.75 1531.6 Q2312.75 1524.47 2310.92 1520.93 Q2309.12 1517.37 2305.48 1517.37 M2305.48 1513.66 Q2311.29 1513.66 2314.35 1518.27 Q2317.43 1522.85 2317.43 1531.6 Q2317.43 1540.33 2314.35 1544.94 Q2311.29 1549.52 2305.48 1549.52 Q2299.67 1549.52 2296.6 1544.94 Q2293.54 1540.33 2293.54 1531.6 Q2293.54 1522.85 2296.6 1518.27 Q2299.67 1513.66 2305.48 1513.66 Z" fill="#000000" fill-rule="nonzero" fill-opacity="1" /><path clip-path="url(#clip020)" d="M2335.65 1517.37 Q2332.04 1517.37 2330.21 1520.93 Q2328.4 1524.47 2328.4 1531.6 Q2328.4 1538.71 2330.21 1542.27 Q2332.04 1545.82 2335.65 1545.82 Q2339.28 1545.82 2341.09 1542.27 Q2342.91 1538.71 2342.91 1531.6 Q2342.91 1524.47 2341.09 1520.93 Q2339.28 1517.37 2335.65 1517.37 M2335.65 1513.66 Q2341.46 1513.66 2344.51 1518.27 Q2347.59 1522.85 2347.59 1531.6 Q2347.59 1540.33 2344.51 1544.94 Q2341.46 1549.52 2335.65 1549.52 Q2329.84 1549.52 2326.76 1544.94 Q2323.7 1540.33 2323.7 1531.6 Q2323.7 1522.85 2326.76 1518.27 Q2329.84 1513.66 2335.65 1513.66 Z" fill="#000000" fill-rule="nonzero" fill-opacity="1" /><polyline clip-path="url(#clip022)" style="stroke:#000000; stroke-linecap:round; stroke-linejoin:round; stroke-width:2; stroke-opacity:0.1; fill:none" points="155.765,1299.47 2352.76,1299.47 "/>
<polyline clip-path="url(#clip022)" style="stroke:#000000; stroke-linecap:round; stroke-linejoin:round; stroke-width:2; stroke-opacity:0.1; fill:none" points="155.765,981.154 2352.76,981.154 "/>
<polyline clip-path="url(#clip022)" style="stroke:#000000; stroke-linecap:round; stroke-linejoin:round; stroke-width:2; stroke-opacity:0.1; fill:none" points="155.765,662.838 2352.76,662.838 "/>
<polyline clip-path="url(#clip022)" style="stroke:#000000; stroke-linecap:round; stroke-linejoin:round; stroke-width:2; stroke-opacity:0.1; fill:none" points="155.765,344.522 2352.76,344.522 "/>
<polyline clip-path="url(#clip020)" style="stroke:#000000; stroke-linecap:round; stroke-linejoin:round; stroke-width:4; stroke-opacity:1; fill:none" points="155.765,1486.45 155.765,47.2441 "/>
<polyline clip-path="url(#clip020)" style="stroke:#000000; stroke-linecap:round; stroke-linejoin:round; stroke-width:4; stroke-opacity:1; fill:none" points="155.765,1299.47 174.663,1299.47 "/>
<polyline clip-path="url(#clip020)" style="stroke:#000000; stroke-linecap:round; stroke-linejoin:round; stroke-width:4; stroke-opacity:1; fill:none" points="155.765,981.154 174.663,981.154 "/>
<polyline clip-path="url(#clip020)" style="stroke:#000000; stroke-linecap:round; stroke-linejoin:round; stroke-width:4; stroke-opacity:1; fill:none" points="155.765,662.838 174.663,662.838 "/>
<polyline clip-path="url(#clip020)" style="stroke:#000000; stroke-linecap:round; stroke-linejoin:round; stroke-width:4; stroke-opacity:1; fill:none" points="155.765,344.522 174.663,344.522 "/>
<path clip-path="url(#clip020)" d="M53.3995 1312.82 L61.0384 1312.82 L61.0384 1286.45 L52.7282 1288.12 L52.7282 1283.86 L60.9921 1282.19 L65.668 1282.19 L65.668 1312.82 L73.3068 1312.82 L73.3068 1316.75 L53.3995 1316.75 L53.3995 1312.82 Z" fill="#000000" fill-rule="nonzero" fill-opacity="1" /><path clip-path="url(#clip020)" d="M82.7512 1310.87 L87.6354 1310.87 L87.6354 1316.75 L82.7512 1316.75 L82.7512 1310.87 Z" fill="#000000" fill-rule="nonzero" fill-opacity="1" /><path clip-path="url(#clip020)" d="M107.821 1285.27 Q104.209 1285.27 102.381 1288.83 Q100.575 1292.38 100.575 1299.5 Q100.575 1306.61 102.381 1310.18 Q104.209 1313.72 107.821 1313.72 Q111.455 1313.72 113.26 1310.18 Q115.089 1306.61 115.089 1299.5 Q115.089 1292.38 113.26 1288.83 Q111.455 1285.27 107.821 1285.27 M107.821 1281.57 Q113.631 1281.57 116.686 1286.17 Q119.765 1290.75 119.765 1299.5 Q119.765 1308.23 116.686 1312.84 Q113.631 1317.42 107.821 1317.42 Q102.01 1317.42 98.9317 1312.84 Q95.8761 1308.23 95.8761 1299.5 Q95.8761 1290.75 98.9317 1286.17 Q102.01 1281.57 107.821 1281.57 Z" fill="#000000" fill-rule="nonzero" fill-opacity="1" /><path clip-path="url(#clip020)" d="M54.3949 994.499 L62.0337 994.499 L62.0337 968.133 L53.7236 969.8 L53.7236 965.541 L61.9874 963.874 L66.6633 963.874 L66.6633 994.499 L74.3022 994.499 L74.3022 998.434 L54.3949 998.434 L54.3949 994.499 Z" fill="#000000" fill-rule="nonzero" fill-opacity="1" /><path clip-path="url(#clip020)" d="M83.7466 992.555 L88.6308 992.555 L88.6308 998.434 L83.7466 998.434 L83.7466 992.555 Z" fill="#000000" fill-rule="nonzero" fill-opacity="1" /><path clip-path="url(#clip020)" d="M98.8622 963.874 L117.219 963.874 L117.219 967.809 L103.145 967.809 L103.145 976.281 Q104.163 975.934 105.182 975.772 Q106.2 975.587 107.219 975.587 Q113.006 975.587 116.385 978.758 Q119.765 981.93 119.765 987.346 Q119.765 992.925 116.293 996.027 Q112.82 999.105 106.501 999.105 Q104.325 999.105 102.057 998.735 Q99.8113 998.365 97.4039 997.624 L97.4039 992.925 Q99.4872 994.059 101.709 994.615 Q103.932 995.17 106.408 995.17 Q110.413 995.17 112.751 993.064 Q115.089 990.957 115.089 987.346 Q115.089 983.735 112.751 981.629 Q110.413 979.522 106.408 979.522 Q104.534 979.522 102.659 979.939 Q100.807 980.356 98.8622 981.235 L98.8622 963.874 Z" fill="#000000" fill-rule="nonzero" fill-opacity="1" /><path clip-path="url(#clip020)" d="M56.6171 676.183 L72.9365 676.183 L72.9365 680.118 L50.9921 680.118 L50.9921 676.183 Q53.6541 673.428 58.2375 668.799 Q62.8439 664.146 64.0245 662.803 Q66.2698 660.28 67.1494 658.544 Q68.0522 656.785 68.0522 655.095 Q68.0522 652.34 66.1078 650.604 Q64.1865 648.868 61.0847 648.868 Q58.8856 648.868 56.4319 649.632 Q54.0014 650.396 51.2236 651.947 L51.2236 647.225 Q54.0477 646.09 56.5014 645.512 Q58.955 644.933 60.9921 644.933 Q66.3624 644.933 69.5568 647.618 Q72.7513 650.303 72.7513 654.794 Q72.7513 656.924 71.9411 658.845 Q71.1541 660.743 69.0476 663.336 Q68.4689 664.007 65.367 667.225 Q62.2652 670.419 56.6171 676.183 Z" fill="#000000" fill-rule="nonzero" fill-opacity="1" /><path clip-path="url(#clip020)" d="M82.7512 674.238 L87.6354 674.238 L87.6354 680.118 L82.7512 680.118 L82.7512 674.238 Z" fill="#000000" fill-rule="nonzero" fill-opacity="1" /><path clip-path="url(#clip020)" d="M107.821 648.637 Q104.209 648.637 102.381 652.201 Q100.575 655.743 100.575 662.873 Q100.575 669.979 102.381 673.544 Q104.209 677.086 107.821 677.086 Q111.455 677.086 113.26 673.544 Q115.089 669.979 115.089 662.873 Q115.089 655.743 113.26 652.201 Q111.455 648.637 107.821 648.637 M107.821 644.933 Q113.631 644.933 116.686 649.539 Q119.765 654.123 119.765 662.873 Q119.765 671.6 116.686 676.206 Q113.631 680.789 107.821 680.789 Q102.01 680.789 98.9317 676.206 Q95.8761 671.6 95.8761 662.873 Q95.8761 654.123 98.9317 649.539 Q102.01 644.933 107.821 644.933 Z" fill="#000000" fill-rule="nonzero" fill-opacity="1" /><path clip-path="url(#clip020)" d="M57.6125 357.867 L73.9318 357.867 L73.9318 361.802 L51.9875 361.802 L51.9875 357.867 Q54.6495 355.112 59.2328 350.482 Q63.8393 345.83 65.0198 344.487 Q67.2652 341.964 68.1448 340.228 Q69.0476 338.469 69.0476 336.779 Q69.0476 334.024 67.1032 332.288 Q65.1819 330.552 62.08 330.552 Q59.881 330.552 57.4273 331.316 Q54.9967 332.08 52.219 333.631 L52.219 328.909 Q55.043 327.774 57.4967 327.196 Q59.9504 326.617 61.9874 326.617 Q67.3578 326.617 70.5522 329.302 Q73.7466 331.987 73.7466 336.478 Q73.7466 338.608 72.9365 340.529 Q72.1494 342.427 70.0429 345.02 Q69.4642 345.691 66.3624 348.908 Q63.2606 352.103 57.6125 357.867 Z" fill="#000000" fill-rule="nonzero" fill-opacity="1" /><path clip-path="url(#clip020)" d="M83.7466 355.922 L88.6308 355.922 L88.6308 361.802 L83.7466 361.802 L83.7466 355.922 Z" fill="#000000" fill-rule="nonzero" fill-opacity="1" /><path clip-path="url(#clip020)" d="M98.8622 327.242 L117.219 327.242 L117.219 331.177 L103.145 331.177 L103.145 339.649 Q104.163 339.302 105.182 339.14 Q106.2 338.955 107.219 338.955 Q113.006 338.955 116.385 342.126 Q119.765 345.297 119.765 350.714 Q119.765 356.293 116.293 359.394 Q112.82 362.473 106.501 362.473 Q104.325 362.473 102.057 362.103 Q99.8113 361.732 97.4039 360.992 L97.4039 356.293 Q99.4872 357.427 101.709 357.982 Q103.932 358.538 106.408 358.538 Q110.413 358.538 112.751 356.432 Q115.089 354.325 115.089 350.714 Q115.089 347.103 112.751 344.996 Q110.413 342.89 106.408 342.89 Q104.534 342.89 102.659 343.307 Q100.807 343.723 98.8622 344.603 L98.8622 327.242 Z" fill="#000000" fill-rule="nonzero" fill-opacity="1" /><polyline clip-path="url(#clip022)" style="stroke:#009af9; stroke-linecap:round; stroke-linejoin:round; stroke-width:4; stroke-opacity:1; fill:none" points="217.944,1006.25 218.98,1013.26 220.017,481.032 221.053,502.637 222.089,1363.06 223.125,1365.16 224.162,1444.29 225.198,1445.72 226.234,1324.66 227.271,1326.96 228.307,1255.2 229.343,1257.81 230.38,1388.67 231.416,1390.96 232.452,1142.44 233.489,1147.26 234.525,693.5 235.561,703.365 236.598,1259.75 237.634,1262.52 238.67,1062.34 239.707,1067.7 240.743,550.617 241.779,557.41 242.815,1050.19 243.852,1053.89 244.888,582.974 245.924,590.398 246.961,878.97 247.997,883.496 249.033,1185.01 250.07,1188.24 251.106,597.462 252.142,607.89 253.179,1259.85 254.215,1262.35 255.251,1135.73 256.288,1139.01 257.324,1380.15 258.36,1381.9 259.397,1233.85 260.433,1236.22 261.469,1289.82 262.506,1292.06 263.542,870.592 264.578,874.661 265.614,971.162 266.651,975.644 267.687,1347.4 268.723,1348.94 269.76,1045.2 270.796,1046.86 271.832,986.65 272.869,988.805 273.905,676.163 274.941,684.296 275.978,736.969 277.014,748.465 278.05,1145.45 279.087,1148.18 280.123,984.957 281.159,990.038 282.196,959.887 283.232,965.879 284.268,935.111 285.304,939.903 286.341,1284.5 287.377,1286.35 288.413,1141.7 289.45,1144.55 290.486,703.007 291.522,709.089 292.559,878.15 293.595,885.116 294.631,642.156 295.668,649.133 296.704,1147.24 297.74,1149.44 298.777,1093.14 299.813,1095.49 300.849,1039.59 301.886,1042.09 302.922,1128.61 303.958,1130.5 304.994,595.678 306.031,600.698 307.067,687.168 308.103,692.094 309.14,1025.41 310.176,1027.45 311.212,1140.07 312.249,1143.11 313.285,1036.97 314.321,1039.7 315.358,786.059 316.394,788.553 317.43,1291.39 318.467,1292.48 319.503,653.894 320.539,659.235 321.576,572.538 322.612,576.062 323.648,1120.72 324.684,1122.73 325.721,923.553 326.757,929.047 327.793,1203.61 328.83,1206.19 329.866,1015.36 330.902,1018.18 331.939,994.239 332.975,997.211 334.011,392.56 335.048,399.099 336.084,1100.54 337.12,1102.31 338.157,843.605 339.193,847.661 340.229,1087.68 341.266,1089.29 342.302,922.142 343.338,925.604 344.375,1060.56 345.411,1062.69 346.447,827.825 347.483,830.153 348.52,1098.85 349.556,1100.19 350.592,673.52 351.629,676.339 352.665,690.471 353.701,694.414 354.738,1016.98 355.774,1019.65 356.81,1011.19 357.847,1013.06 358.883,1041.9 359.919,1043.69 360.956,993.571 361.992,994.974 363.028,778.652 364.065,780.32 365.101,819.263 366.137,820.272 367.173,985.829 368.21,987.978 369.246,1082.25 370.282,1083.66 371.319,1035.19 372.355,1036.72 373.391,1008.13 374.428,1010.33 375.464,843.798 376.5,846.115 377.537,1041.57 378.573,1042.89 379.609,997.413 380.646,999.866 381.682,1016.33 382.718,1017.85 383.755,805.131 384.791,807.071 385.827,949.612 386.863,952.556 387.9,1137.37 388.936,1138.49 389.972,1043.1 391.009,1044.59 392.045,1017.79 393.081,1018.76 394.118,700.328 395.154,702.338 396.19,1086.11 397.227,1087.04 398.263,1067.52 399.299,1068.55 400.336,1108.36 401.372,1110.1 402.408,551.118 403.445,554.154 404.481,1121.7 405.517,1122.48 406.554,1132.58 407.59,1133.51 408.626,1106.34 409.662,1109.17 410.699,771.455 411.735,772.248 412.771,1061.27 413.808,1062.11 414.844,1093.62 415.88,1095.51 416.917,1066.16 417.953,1068.22 418.989,1084.46 420.026,1085.82 421.062,1139.99 422.098,1140.65 423.135,423.365 424.171,428.078 425.207,1098.36 426.244,1098.97 427.28,1043.58 428.316,1044.86 429.352,1096.79 430.389,1097.45 431.425,1072.19 432.461,1072.97 433.498,740.329 434.534,741.621 435.57,1059.04 436.607,1060.38 437.643,773.037 438.679,774.19 439.716,850.518 440.752,853.071 441.788,1077.45 442.825,1078.85 443.861,1104.75 444.897,1105.34 445.934,1070.85 446.97,1071.7 448.006,1073.35 449.042,1074.29 450.079,786.28 451.115,787.023 452.151,1046.71 453.188,1047.5 454.224,819.745 455.26,820.426 456.297,1107.38 457.333,1108.53 458.369,811.655 459.406,813.331 460.442,506.944 461.478,511.268 462.515,1059.39 463.551,1060.21 464.587,1072.39 465.624,1072.98 466.66,1074.99 467.696,1076.44 468.732,1106.45 469.769,1106.9 470.805,1082.96 471.841,1084.22 472.878,758.652 473.914,759.425 474.95,829.549 475.987,831.658 477.023,796.798 478.059,797.374 479.096,1075.84 480.132,1076.59 481.168,1100.51 482.205,1101.15 483.241,1058.55 484.277,1059.24 485.314,849.19 486.35,850.136 487.386,854.219 488.423,855.055 489.459,1118.28 490.495,1120.18 491.531,467.454 492.568,470.851 493.604,724.425 494.64,726.351 495.677,753.623 496.713,755.651 497.749,1080.03 498.786,1081.11 499.822,1103.72 500.858,1104.55 501.895,1093.01 502.931,1094.64 503.967,1082.96 505.004,1083.82 506.04,1054.47 507.076,1056.15 508.113,1078.22 509.149,1078.7 510.185,786.074 511.221,786.86 512.258,1111.42 513.294,1112.7 514.33,1099.58 515.367,1100.08 516.403,1082.28 517.439,1083.64 518.476,1091.8 519.512,1092.99 520.548,1107.97 521.585,1108.36 522.621,1133.1 523.657,1133.66 524.694,1093.01 525.73,1094.15 526.766,1122.6 527.803,1123.14 528.839,833.566 529.875,834.254 530.911,1134.99 531.948,1136.19 532.984,815.621 534.02,817.846 535.057,1134.75 536.093,1135.21 537.129,534.12 538.166,537.904 539.202,1072.32 540.238,1072.67 541.275,1090.15 542.311,1091.06 543.347,1142.84 544.384,1144.16 545.42,1110.75 546.456,1111.13 547.493,1097.67 548.529,1097.99 549.565,1189.93 550.601,1190.91 551.638,861.252 552.674,861.85 553.71,1123.43 554.747,1124.12 555.783,1077.67 556.819,1078.66 557.856,1103.15 558.892,1106.76 559.928,799.979 560.965,801.226 562.001,1119.68 563.037,1120.1 564.074,1087.36 565.11,1087.72 566.146,823.408 567.183,824.788 568.219,1081.19 569.255,1081.67 570.292,1139.52 571.328,1139.86 572.364,1129.18 573.4,1130.5 574.437,899.154 575.473,901.466 576.509,1146.86 577.546,1147.35 578.582,1102 579.618,1103.02 580.655,1102.79 581.691,1103.68 582.727,885.74 583.764,886.268 584.8,1070.89 585.836,1071.57 586.873,1143.96 587.909,1144.27 588.945,1103.06 589.982,1104.02 591.018,1118.08 592.054,1120.52 593.09,1125.67 594.127,1126.12 595.163,1143.64 596.199,1144.34 597.236,1210.85 598.272,1213.42 599.308,1126.95 600.345,1127.4 601.381,1152.62 602.417,1153.02 603.454,1104.47 604.49,1105.09 605.526,1152.98 606.563,1153.37 607.599,1064.05 608.635,1064.43 609.672,800.93 610.708,801.463 611.744,1151.76 612.78,1152.02 613.817,1122.55 614.853,1123.62 615.889,1117.86 616.926,1118.89 617.962,807.459 618.998,809.458 620.035,822.686 621.071,824.311 622.107,1116.01 623.144,1116.66 624.18,816.113 625.216,816.729 626.253,1085.92 627.289,1087.94 628.325,1113.11 629.362,1113.59 630.398,1097.97 631.434,1098.34 632.47,802.603 633.507,804.139 634.543,1130.67 635.579,1131.13 636.616,1062.49 637.652,1063.17 638.688,1211.32 639.725,1211.5 640.761,1096.03 641.797,1096.37 642.834,832.851 643.87,833.696 644.906,494.739 645.943,498.152 646.979,1111.81 648.015,1112.92 649.052,557.54 650.088,560.509 651.124,1099.81 652.161,1100.4 653.197,1131.13 654.233,1131.6 655.269,1155.35 656.306,1155.96 657.342,1187.59 658.378,1187.9 659.415,805.622 660.451,806.265 661.487,1124.6 662.524,1125.41 663.56,862.72 664.596,864.039 665.633,810.589 666.669,811.254 667.705,1125.03 668.742,1125.36 669.778,1097.84 670.814,1099.84 671.851,1135.98 672.887,1136.49 673.923,1072.44 674.959,1073.96 675.996,799.881 677.032,801.032 678.068,808.641 679.105,809.351 680.141,1075.13 681.177,1076.84 682.214,792.239 683.25,794.195 684.286,1104.01 685.323,1104.49 686.359,1084.32 687.395,1086.08 688.432,1087.01 689.468,1087.82 690.504,1125.5 691.541,1126.48 692.577,1113.28 693.613,1114.16 694.649,1104.76 695.686,1106.11 696.722,1125.45 697.758,1127.05 698.795,817.185 699.831,818.502 700.867,1106.8 701.904,1107.6 702.94,1076.55 703.976,1076.96 705.013,779.726 706.049,780.487 707.085,1145.9 708.122,1148.33 709.158,834.22 710.194,834.726 711.231,1094.39 712.267,1094.96 713.303,1149.3 714.34,1149.51 715.376,816.438 716.412,816.949 717.448,1099.64 718.485,1100.34 719.521,538.372 720.557,540.884 721.594,1078.47 722.63,1079.31 723.666,1136.48 724.703,1137.78 725.739,1105.35 726.775,1107.83 727.812,1080.44 728.848,1080.67 729.884,1149.46 730.921,1150.07 731.957,806.344 732.993,807.057 734.03,831.499 735.066,832.781 736.102,858.763 737.138,859.333 738.175,1130.03 739.211,1130.3 740.247,808.913 741.284,809.441 742.32,1134.03 743.356,1134.32 744.393,1110.97 745.429,1111.74 746.465,1132.35 747.502,1134.26 748.538,1121.45 749.574,1122.6 750.611,1123.92 751.647,1125.32 752.683,1131.81 753.72,1132.24 754.756,1134.21 755.792,1134.54 756.828,1140.76 757.865,1141.23 758.901,1126.32 759.937,1126.74 760.974,1153.33 762.01,1153.86 763.046,827.923 764.083,830.846 765.119,792.901 766.155,794.625 767.192,1114.95 768.228,1115.46 769.264,1105.86 770.301,1106.37 771.337,1109.46 772.373,1109.66 773.41,1119.91 774.446,1120.11 775.482,553.687 776.518,556.418 777.555,1201.47 778.591,1202.51 779.627,1099.17 780.664,1102.15 781.7,1177.46 782.736,1177.97 783.773,1103.26 784.809,1103.66 785.845,1105.97 786.882,1106.18 787.918,1097.87 788.954,1098.53 789.991,1146.82 791.027,1147.11 792.063,1151.43 793.1,1152.76 794.136,1116.09 795.172,1116.64 796.209,1134.52 797.245,1135.16 798.281,859.181 799.317,859.893 800.354,1088.1 801.39,1089.32 802.426,1093.35 803.463,1095.22 804.499,800.935 805.535,801.837 806.572,1149.96 807.608,1151.36 808.644,839.308 809.681,840.994 810.717,1138.4 811.753,1139.09 812.79,547.871 813.826,550.796 814.862,1141 815.899,1141.59 816.935,1123.58 817.971,1123.83 819.007,1105.87 820.044,1106.12 821.08,1144.63 822.116,1144.8 823.153,1098.56 824.189,1098.7 825.225,1169.64 826.262,1169.89 827.298,1124.85 828.334,1125.44 829.371,1128.16 830.407,1128.34 831.443,1145.25 832.48,1145.61 833.516,1102.84 834.552,1103.45 835.589,814.228 836.625,814.717 837.661,834.024 838.697,834.742 839.734,1115.26 840.77,1115.94 841.806,1161.99 842.843,1162.45 843.879,1110.84 844.915,1112.73 845.952,816.354 846.988,816.978 848.024,863.347 849.061,864.166 850.097,869.827 851.133,870.641 852.17,843.625 853.206,844.502 854.242,548.683 855.279,551.415 856.315,823.243 857.351,823.625 858.387,1111.84 859.424,1113.18 860.46,1216.83 861.496,1217.67 862.533,1142.91 863.569,1143.64 864.605,1119.05 865.642,1120 866.678,1129.27 867.714,1129.87 868.751,1165.77 869.787,1165.99 870.823,845.753 871.86,847.452 872.896,1124.55 873.932,1124.83 874.969,1116.88 876.005,1117.38 877.041,1163.82 878.078,1163.96 879.114,1143.21 880.15,1143.48 881.186,1112.29 882.223,1112.54 883.259,856.512 884.295,857.027 885.332,1150.49 886.368,1151.8 887.404,1115.94 888.441,1116.08 889.477,1116.7 890.513,1116.9 891.55,1089.13 892.586,1090.07 893.622,831.067 894.659,831.925 895.695,1131.48 896.731,1132.53 897.768,1184.37 898.804,1184.6 899.84,1132.53 900.876,1133.73 901.913,855.547 902.949,856.117 903.985,813.208 905.022,814.594 906.058,1106.36 907.094,1107 908.131,852.84 909.167,853.653 910.203,844.128 911.24,845.01 912.276,850.709 913.312,853.018 914.349,1103.25 915.385,1103.55 916.421,1143.04 917.458,1144.63 918.494,1178.33 919.53,1180.58 920.566,1229.12 921.603,1229.62 922.639,1165.17 923.675,1165.37 924.712,1129.37 925.748,1129.7 926.784,1119.69 927.821,1120.48 928.857,511.511 929.893,514.037 930.93,1220.33 931.966,1220.63 933.002,1152.38 934.039,1153.57 935.075,841.827 936.111,842.21 937.148,240.614 938.184,248.126 939.22,1173.92 940.257,1174.52 941.293,866.785 942.329,867.199 943.365,843.919 944.402,846.618 945.438,1125.04 946.474,1126.36 947.511,1149.43 948.547,1150.12 949.583,1117.81 950.62,1118.89 951.656,879.4 952.692,880.807 953.729,815.89 954.765,816.273 955.801,1097.79 956.838,1098.01 957.874,830.764 958.91,832.165 959.947,543.607 960.983,547.11 962.019,324.417 963.055,330.445 964.092,1101.89 965.128,1102.42 966.164,1185.13 967.201,1186.85 968.237,831.882 969.273,832.57 970.31,1123.47 971.346,1123.8 972.382,1120.91 973.419,1121.92 974.455,1091.97 975.491,1093.47 976.528,850.906 977.564,851.441 978.6,905.831 979.637,906.459 980.673,852.025 981.709,852.651 982.745,862.845 983.782,863.567 984.818,1139.04 985.854,1139.37 986.891,1105.2 987.927,1105.93 988.963,1121.25 990,1121.68 991.036,87.9763 992.072,98.2706 993.109,817.52 994.145,819.317 995.181,849.081 996.218,849.441 997.254,1083.46 998.29,1084.45 999.327,903.901 1000.36,908.571 1001.4,908.329 1002.44,912.723 1003.47,1131.43 1004.51,1132.77 1005.54,865.265 1006.58,866.75 1007.62,1129.04 1008.65,1130.83 1009.69,883.1 1010.73,884.676 1011.76,874.893 1012.8,875.865 1013.83,1136.08 1014.87,1136.36 1015.91,1069.81 1016.94,1071.45 1017.98,850.522 1019.02,851.052 1020.05,1106.31 1021.09,1106.88 1022.13,1139.5 1023.16,1140.11 1024.2,868.329 1025.23,869.551 1026.27,1093.38 1027.31,1093.55 1028.34,1166.32 1029.38,1166.56 1030.42,847.318 1031.45,847.907 1032.49,1119.34 1033.52,1119.62 1034.56,1104.52 1035.6,1106.2 1036.63,1110.51 1037.67,1110.66 1038.71,1120.45 1039.74,1120.92 1040.78,1119.29 1041.82,1119.67 1042.85,1135.91 1043.89,1137.01 1044.92,313.128 1045.96,319.854 1047,1136.01 1048.03,1137.25 1049.07,1156.52 1050.11,1158.56 1051.14,1122.88 1052.18,1123.21 1053.22,1096.72 1054.25,1097.32 1055.29,610.802 1056.32,613.366 1057.36,1145.26 1058.4,1145.49 1059.43,624.87 1060.47,627.273 1061.51,1088.33 1062.54,1088.7 1063.58,1175.56 1064.61,1175.8 1065.65,1123.7 1066.69,1124.08 1067.72,1121.7 1068.76,1122.38 1069.8,1114.58 1070.83,1114.91 1071.87,1119.3 1072.91,1121.16 1073.94,1114.37 1074.98,1114.76 1076.01,1178.79 1077.05,1179.32 1078.09,849.992 1079.12,851.425 1080.16,1112.21 1081.2,1112.65 1082.23,1139.72 1083.27,1144.66 1084.3,1175.19 1085.34,1175.58 1086.38,833.429 1087.41,834.039 1088.45,1123.16 1089.49,1124.43 1090.52,1144.45 1091.56,1145.85 1092.6,1086.75 1093.63,1087.56 1094.67,1152.96 1095.7,1153.57 1096.74,1113.03 1097.78,1113.28 1098.81,1188.61 1099.85,1189.7 1100.89,827.262 1101.92,831.156 1102.96,836.713 1103.99,837.06 1105.03,872.79 1106.07,873.371 1107.1,842.111 1108.14,842.41 1109.18,1112.34 1110.21,1112.64 1111.25,618.499 1112.29,620.12 1113.32,635.963 1114.36,638.433 1115.39,1125.67 1116.43,1126.05 1117.47,1143.04 1118.5,1143.61 1119.54,1114.12 1120.58,1114.7 1121.61,1164.81 1122.65,1165.12 1123.68,1130.06 1124.72,1130.21 1125.76,1094.53 1126.79,1095.29 1127.83,1151.92 1128.87,1153.47 1129.9,1104.34 1130.94,1105.01 1131.98,1163.42 1133.01,1163.65 1134.05,1124.81 1135.08,1125.7 1136.12,1129.56 1137.16,1130.79 1138.19,1151.56 1139.23,1152.71 1140.27,1128.25 1141.3,1128.92 1142.34,846.603 1143.37,847.065 1144.41,622.939 1145.45,624.94 1146.48,1162.54 1147.52,1162.93 1148.56,915.816 1149.59,916.403 1150.63,907.803 1151.67,908.265 1152.7,880.779 1153.74,881.295 1154.77,1083.65 1155.81,1084.59 1156.85,1093.25 1157.88,1093.62 1158.92,1132.75 1159.96,1133.23 1160.99,1145.35 1162.03,1145.71 1163.06,860.668 1164.1,861.979 1165.14,1111.16 1166.17,1111.79 1167.21,1146.57 1168.25,1147.02 1169.28,1133.52 1170.32,1133.66 1171.36,1136.21 1172.39,1136.31 1173.43,1111.87 1174.46,1112.82 1175.5,1169.6 1176.54,1169.71 1177.57,1101.81 1178.61,1102.11 1179.65,886.705 1180.68,887.198 1181.72,1111.32 1182.75,1112.2 1183.79,909.946 1184.83,910.241 1185.86,1162.4 1186.9,1163.33 1187.94,873.638 1188.97,874.202 1190.01,844.946 1191.05,845.298 1192.08,929.875 1193.12,930.223 1194.15,1121.83 1195.19,1122.18 1196.23,1112.98 1197.26,1113.78 1198.3,1121.5 1199.34,1121.79 1200.37,1116.83 1201.41,1117.13 1202.44,1156.21 1203.48,1156.5 1204.52,1122.64 1205.55,1123.2 1206.59,1176.08 1207.63,1176.53 1208.66,1113.91 1209.7,1114.51 1210.74,1110.05 1211.77,1111.94 1212.81,1153.41 1213.84,1154.64 1214.88,1133.78 1215.92,1134.07 1216.95,1137.76 1217.99,1137.9 1219.03,1130.63 1220.06,1130.96 1221.1,1156.29 1222.13,1157.23 1223.17,584.065 1224.21,586.543 1225.24,1116.71 1226.28,1117.75 1227.32,833.808 1228.35,835.965 1229.39,840.673 1230.43,841.025 1231.46,1133.45 1232.5,1135.65 1233.53,1104.13 1234.57,1104.62 1235.61,852.62 1236.64,853.259 1237.68,1120.47 1238.72,1120.61 1239.75,1128.95 1240.79,1129.35 1241.82,882.358 1242.86,882.777 1243.9,1128.08 1244.93,1129.42 1245.97,881.012 1247.01,881.369 1248.04,879.102 1249.08,879.765 1250.12,873.817 1251.15,874.327 1252.19,1136.96 1253.22,1137.08 1254.26,1151.67 1255.3,1153.55 1256.33,857.525 1257.37,858.016 1258.41,866.575 1259.44,867.095 1260.48,602.647 1261.51,604.897 1262.55,873.603 1263.59,874.415 1264.62,1124.53 1265.66,1125.48 1266.7,864.666 1267.73,865.172 1268.77,1147.92 1269.81,1150.01 1270.84,613.743 1271.88,617.188 1272.91,1145.13 1273.95,1145.82 1274.99,623.557 1276.02,626.128 1277.06,1155.91 1278.1,1156.82 1279.13,885.503 1280.17,886.492 1281.2,1122.38 1282.24,1122.66 1283.28,1115.53 1284.31,1117.93 1285.35,1145.81 1286.39,1146.91 1287.42,910.925 1288.46,913.845 1289.5,925.524 1290.53,925.772 1291.57,1098.92 1292.6,1099.26 1293.64,943.744 1294.68,946.685 1295.71,1132.92 1296.75,1133.99 1297.79,898.2 1298.82,899.357 1299.86,1126.02 1300.89,1126.5 1301.93,1100.64 1302.97,1101 1304,1137.07 1305.04,1137.18 1306.08,1127.36 1307.11,1127.8 1308.15,841.858 1309.19,843.448 1310.22,1143.65 1311.26,1144.41 1312.29,623.06 1313.33,625.68 1314.37,1155.33 1315.4,1155.55 1316.44,1129.84 1317.48,1132.06 1318.51,375.213 1319.55,381.48 1320.58,1110.26 1321.62,1110.7 1322.66,1100.51 1323.69,1100.77 1324.73,1130.39 1325.77,1130.85 1326.8,1146.6 1327.84,1147.58 1328.88,1107.01 1329.91,1108.04 1330.95,877.041 1331.98,877.367 1333.02,1101.03 1334.06,1101.2 1335.09,1121.15 1336.13,1121.59 1337.17,1104.49 1338.2,1105.78 1339.24,1116.29 1340.27,1116.54 1341.31,1120.67 1342.35,1120.78 1343.38,1134.97 1344.42,1135.5 1345.46,1100.71 1346.49,1101.15 1347.53,1151.14 1348.57,1153.21 1349.6,1124.8 1350.64,1124.93 1351.67,868.584 1352.71,868.9 1353.75,888.117 1354.78,888.507 1355.82,1110.49 1356.86,1113.19 1357.89,881.617 1358.93,882.418 1359.96,874.901 1361,875.358 1362.04,1145.12 1363.07,1145.47 1364.11,1117.22 1365.15,1117.49 1366.18,1095.58 1367.22,1096.61 1368.26,952.929 1369.29,954.357 1370.33,1134.71 1371.36,1135.59 1372.4,1115.51 1373.44,1117.15 1374.47,870.072 1375.51,871.423 1376.55,878.433 1377.58,878.681 1378.62,1129.33 1379.65,1130.06 1380.69,865.109 1381.73,866.455 1382.76,1139.16 1383.8,1139.49 1384.84,1119.41 1385.87,1121.49 1386.91,1104.29 1387.95,1105.79 1388.98,345.02 1390.02,351.706 1391.05,850.433 1392.09,851.568 1393.13,1120.16 1394.16,1120.34 1395.2,871.935 1396.24,872.408 1397.27,858.802 1398.31,859.135 1399.34,1122.38 1400.38,1122.99 1401.42,1088.77 1402.45,1092.51 1403.49,1121.23 1404.53,1121.87 1405.56,1115.8 1406.6,1116.76 1407.64,1105.83 1408.67,1106.71 1409.71,1102.19 1410.74,1103.38 1411.78,1152.44 1412.82,1153.07 1413.85,874.285 1414.89,875.277 1415.93,886.957 1416.96,888.482 1418,1118.52 1419.03,1119.43 1420.07,1139.07 1421.11,1139.45 1422.14,1122.92 1423.18,1123.28 1424.22,1156.36 1425.25,1156.75 1426.29,1109.54 1427.33,1109.92 1428.36,896.262 1429.4,897.042 1430.43,1137.09 1431.47,1137.98 1432.51,1094.81 1433.54,1096.35 1434.58,1174.86 1435.62,1175.01 1436.65,1136.93 1437.69,1138.2 1438.72,1123.35 1439.76,1123.91 1440.8,853.114 1441.83,854.062 1442.87,859.531 1443.91,860.209 1444.94,1107.48 1445.98,1108.11 1447.02,929.012 1448.05,929.823 1449.09,884.243 1450.12,886.249 1451.16,1168.45 1452.2,1169.19 1453.23,1128.59 1454.27,1128.71 1455.31,1122.31 1456.34,1122.51 1457.38,1149.7 1458.41,1151.12 1459.45,1126.04 1460.49,1127.19 1461.52,335.614 1462.56,340.948 1463.6,1123.93 1464.63,1125.07 1465.67,662.442 1466.71,663.949 1467.74,1110.17 1468.78,1110.41 1469.81,882.476 1470.85,883.456 1471.89,1167.65 1472.92,1168.37 1473.96,1134.65 1475,1136.81 1476.03,1124.07 1477.07,1125.08 1478.1,1124.13 1479.14,1124.27 1480.18,1098.2 1481.21,1099.01 1482.25,863.634 1483.29,865.122 1484.32,1136.56 1485.36,1137.07 1486.4,1157.01 1487.43,1157.17 1488.47,615.029 1489.5,616.577 1490.54,873.243 1491.58,873.859 1492.61,895.143 1493.65,895.525 1494.69,877.623 1495.72,878.012 1496.76,1105.22 1497.79,1105.64 1498.83,1125.06 1499.87,1125.79 1500.9,1140.71 1501.94,1141.05 1502.98,1148.56 1504.01,1149.49 1505.05,1121.49 1506.09,1121.72 1507.12,1168.37 1508.16,1169.99 1509.19,1139.58 1510.23,1140.3 1511.27,876.742 1512.3,877.528 1513.34,1172.95 1514.38,1173.17 1515.41,628.58 1516.45,631.77 1517.48,1123.01 1518.52,1123.63 1519.56,407.429 1520.59,413.7 1521.63,1158.1 1522.67,1158.39 1523.7,1102.74 1524.74,1103.28 1525.78,651.133 1526.81,654.366 1527.85,1137.56 1528.88,1138.24 1529.92,904.281 1530.96,904.559 1531.99,1144.4 1533.03,1144.89 1534.07,1143.1 1535.1,1143.29 1536.14,932.339 1537.17,932.646 1538.21,1167.35 1539.25,1167.91 1540.28,1135.49 1541.32,1135.71 1542.36,1133.28 1543.39,1133.87 1544.43,627.508 1545.47,628.768 1546.5,877.504 1547.54,878.201 1548.57,870.529 1549.61,871.673 1550.65,857.66 1551.68,858.934 1552.72,1117.22 1553.76,1117.48 1554.79,1137.04 1555.83,1137.46 1556.86,1118.91 1557.9,1119.51 1558.94,1121.42 1559.97,1121.54 1561.01,659.639 1562.05,661.746 1563.08,1101.06 1564.12,1102.06 1565.16,887.904 1566.19,888.718 1567.23,1113.52 1568.26,1114.91 1569.3,918.14 1570.34,918.598 1571.37,1121.81 1572.41,1122.59 1573.45,902.631 1574.48,903.343 1575.52,1165.8 1576.55,1169.81 1577.59,1145.82 1578.63,1148.62 1579.66,628.769 1580.7,630.535 1581.74,876.775 1582.77,877.25 1583.81,1111.21 1584.85,1111.59 1585.88,1136.18 1586.92,1136.32 1587.95,1168.03 1588.99,1168.93 1590.03,903.171 1591.06,903.425 1592.1,913.295 1593.14,913.604 1594.17,1122.34 1595.21,1122.5 1596.24,1122.99 1597.28,1123.76 1598.32,885.473 1599.35,887.102 1600.39,640.011 1601.43,641.228 1602.46,1154.94 1603.5,1155.29 1604.54,1118.11 1605.57,1118.4 1606.61,902.11 1607.64,902.408 1608.68,1156.21 1609.72,1156.38 1610.75,1116.22 1611.79,1116.73 1612.83,656.861 1613.86,658.227 1614.9,1127.22 1615.93,1128.17 1616.97,1137.33 1618.01,1138.08 1619.04,1179.11 1620.08,1180.17 1621.12,706.26 1622.15,707.513 1623.19,1153.84 1624.23,1155.17 1625.26,673.3 1626.3,675.255 1627.33,873.333 1628.37,873.743 1629.41,1133 1630.44,1133.22 1631.48,878.574 1632.52,880.469 1633.55,1150.9 1634.59,1151.14 1635.62,1140.25 1636.66,1140.88 1637.7,1121.2 1638.73,1121.36 1639.77,1127.62 1640.81,1128.29 1641.84,1109.82 1642.88,1110.96 1643.92,1183.39 1644.95,1183.65 1645.99,1107.62 1647.02,1108.71 1648.06,1120.66 1649.1,1122.05 1650.13,1141.49 1651.17,1142.11 1652.21,408.481 1653.24,412.204 1654.28,1137.93 1655.31,1138.14 1656.35,1118.4 1657.39,1120.78 1658.42,1139.39 1659.46,1140.13 1660.5,1109.93 1661.53,1111.88 1662.57,1132.87 1663.61,1134.39 1664.64,921.024 1665.68,921.521 1666.71,408.405 1667.75,411.759 1668.79,894.404 1669.82,895.4 1670.86,1104.28 1671.9,1104.81 1672.93,1140.52 1673.97,1141.12 1675,659.583 1676.04,661 1677.08,1151.12 1678.11,1151.27 1679.15,890.949 1680.19,891.302 1681.22,942.862 1682.26,944.4 1683.3,912.113 1684.33,912.516 1685.37,1151.89 1686.4,1152.04 1687.44,895.648 1688.48,896.164 1689.51,948.089 1690.55,948.797 1691.59,891.496 1692.62,891.796 1693.66,923.056 1694.69,925.58 1695.73,1120.24 1696.77,1121.44 1697.8,1128.03 1698.84,1129.51 1699.88,874.139 1700.91,875.932 1701.95,928.201 1702.99,928.358 1704.02,1111 1705.06,1112.25 1706.09,893.034 1707.13,893.616 1708.17,877.241 1709.2,878.448 1710.24,1132.4 1711.28,1132.8 1712.31,1099.92 1713.35,1100.65 1714.38,1099.51 1715.42,1099.93 1716.46,1102.59 1717.49,1103.47 1718.53,1121.21 1719.57,1121.71 1720.6,687.337 1721.64,689.127 1722.68,1135.18 1723.71,1135.72 1724.75,1137.95 1725.78,1138.16 1726.82,452.063 1727.86,457.864 1728.89,879.964 1729.93,880.134 1730.97,462.428 1732,465.26 1733.04,949.766 1734.07,950.144 1735.11,1144.43 1736.15,1145.01 1737.18,933.917 1738.22,934.22 1739.26,935.089 1740.29,935.356 1741.33,1143.86 1742.37,1145.38 1743.4,897.715 1744.44,898.361 1745.47,883.931 1746.51,884.068 1747.55,918.424 1748.58,919.168 1749.62,1147.6 1750.66,1148.31 1751.69,907.124 1752.73,908.219 1753.76,883.031 1754.8,883.856 1755.84,1091.7 1756.87,1092.84 1757.91,1130.41 1758.95,1130.69 1759.98,882.25 1761.02,882.51 1762.06,1148.97 1763.09,1149.2 1764.13,1126.99 1765.16,1128.02 1766.2,1121.88 1767.24,1124.04 1768.27,895.855 1769.31,899.492 1770.35,1097.88 1771.38,1098.09 1772.42,894.045 1773.45,896.013 1774.49,1164.31 1775.53,1164.69 1776.56,916.503 1777.6,916.948 1778.64,1096.47 1779.67,1097.89 1780.71,951.678 1781.75,951.962 1782.78,1115.62 1783.82,1117.53 1784.85,1131.53 1785.89,1133.16 1786.93,1116.71 1787.96,1116.88 1789,695.974 1790.04,698.934 1791.07,1129.67 1792.11,1130.28 1793.14,1135.36 1794.18,1136.01 1795.22,922.674 1796.25,923.069 1797.29,1129.29 1798.33,1130.22 1799.36,927.921 1800.4,928.718 1801.44,900.541 1802.47,902.077 1803.51,1130.53 1804.54,1130.94 1805.58,666.551 1806.62,668.152 1807.65,880.87 1808.69,881.752 1809.73,889.514 1810.76,890.786 1811.8,1100.86 1812.84,1101.42 1813.87,888.252 1814.91,888.578 1815.94,1179.36 1816.98,1179.71 1818.02,903.143 1819.05,903.557 1820.09,501.197 1821.13,506.715 1822.16,766.879 1823.2,767.975 1824.23,1097.2 1825.27,1097.76 1826.31,1122.74 1827.34,1123.54 1828.38,1156.53 1829.42,1157.6 1830.45,904.597 1831.49,905.728 1832.53,1111.65 1833.56,1112.07 1834.6,917.928 1835.63,918.63 1836.67,924.048 1837.71,925.766 1838.74,945.183 1839.78,946.718 1840.82,930.06 1841.85,930.625 1842.89,947.663 1843.92,948.047 1844.96,1114.16 1846,1114.41 1847.03,1154.55 1848.07,1155.19 1849.11,732.024 1850.14,733.58 1851.18,730.265 1852.22,731.284 1853.25,922.3 1854.29,923.884 1855.32,685.783 1856.36,686.927 1857.4,970.162 1858.43,971.138 1859.47,1142.63 1860.51,1142.9 1861.54,1114.22 1862.58,1115.12 1863.61,1110.38 1864.65,1111.97 1865.69,941.481 1866.72,942.087 1867.76,1142.07 1868.8,1143.19 1869.83,744.831 1870.87,747.543 1871.91,881.255 1872.94,883.169 1873.98,892.97 1875.01,893.073 1876.05,925.205 1877.09,926.329 1878.12,507.069 1879.16,510.561 1880.2,910.872 1881.23,911.291 1882.27,932.873 1883.3,934.078 1884.34,1105.76 1885.38,1107.52 1886.41,927.343 1887.45,927.539 1888.49,1122.02 1889.52,1122.21 1890.56,729.485 1891.6,730.857 1892.63,895.763 1893.67,895.865 1894.7,334.962 1895.74,342.53 1896.78,777.104 1897.81,777.827 1898.85,906.252 1899.89,907.616 1900.92,1164.22 1901.96,1164.89 1902.99,914.151 1904.03,914.226 1905.07,1143.46 1906.1,1144.29 1907.14,741.429 1908.18,742.321 1909.21,1096.73 1910.25,1097.57 1911.29,745.135 1912.32,745.804 1913.36,1116.86 1914.39,1117.37 1915.43,969.114 1916.47,969.589 1917.5,957.351 1918.54,958.13 1919.58,918.658 1920.61,919.433 1921.65,901.757 1922.68,901.829 1923.72,946.301 1924.76,946.722 1925.79,735.76 1926.83,737.871 1927.87,567.702 1928.9,569.857 1929.94,932.009 1930.98,932.664 1932.01,1176.11 1933.05,1177.06 1934.08,1085.86 1935.12,1088.67 1936.16,736.698 1937.19,737.507 1938.23,1077.24 1939.27,1077.58 1940.3,929.581 1941.34,930.4 1942.37,1111.67 1943.41,1111.95 1944.45,393.86 1945.48,399.533 1946.52,952.756 1947.56,953.097 1948.59,962.832 1949.63,963.508 1950.67,567.459 1951.7,569.816 1952.74,921.202 1953.77,921.81 1954.81,1099.27 1955.85,1100.33 1956.88,1103.41 1957.92,1104.36 1958.96,1125.17 1959.99,1125.55 1961.03,1092.34 1962.06,1093 1963.1,756.439 1964.14,757.082 1965.17,1074.61 1966.21,1075.74 1967.25,936.016 1968.28,936.262 1969.32,1106.59 1970.36,1107.38 1971.39,901.687 1972.43,902.364 1973.46,809.225 1974.5,809.814 1975.54,1129.26 1976.57,1130.47 1977.61,994.086 1978.65,995.515 1979.68,784.356 1980.72,785.692 1981.75,787.948 1982.79,789.087 1983.83,903.74 1984.86,903.846 1985.9,770.345 1986.94,771.012 1987.97,616.64 1989.01,618.724 1990.05,949.309 1991.08,950.073 1992.12,241.364 1993.15,247.066 1994.19,972.673 1995.23,972.749 1996.26,1137.87 1997.3,1138.24 1998.34,1088.55 1999.37,1089.88 2000.41,928.396 2001.44,928.992 2002.48,624.272 2003.52,625.677 2004.55,910.778 2005.59,911.499 2006.63,949.129 2007.66,950.367 2008.7,1078.61 2009.74,1079.98 2010.77,938.518 2011.81,938.676 2012.84,801.369 2013.88,802.283 2014.92,591.296 2015.95,592.679 2016.99,958.231 2018.03,959.657 2019.06,1118.95 2020.1,1119.61 2021.13,1061.71 2022.17,1062.27 2023.21,1117.52 2024.24,1117.88 2025.28,986.163 2026.32,986.516 2027.35,788.834 2028.39,789.818 2029.43,468.196 2030.46,471.409 2031.5,1099.31 2032.53,1099.98 2033.57,581.606 2034.61,583.297 2035.64,1099.61 2036.68,1100.8 2037.72,456.363 2038.75,459.197 2039.79,1087.26 2040.82,1088.07 2041.86,896.967 2042.9,897.793 2043.93,992.821 2044.97,993.087 2046.01,1075.93 2047.04,1076.44 2048.08,952.67 2049.12,953.412 2050.15,1078.47 2051.19,1078.97 2052.22,1071.13 2053.26,1073.8 2054.3,793.195 2055.33,793.934 2056.37,601.914 2057.41,604.309 2058.44,944.492 2059.48,945.764 2060.51,1096.26 2061.55,1097.04 2062.59,797.924 2063.62,798.647 2064.66,497.864 2065.7,502.21 2066.73,502.441 2067.77,505.292 2068.81,1086.9 2069.84,1087.51 2070.88,749.494 2071.91,750.153 2072.95,1131.6 2073.99,1132.7 2075.02,777.745 2076.06,778.485 2077.1,935.335 2078.13,935.587 2079.17,786.568 2080.2,786.879 2081.24,973.804 2082.28,973.901 2083.31,932.238 2084.35,932.772 2085.39,1102.24 2086.42,1104.73 2087.46,789.41 2088.5,790.577 2089.53,912.097 2090.57,913.792 2091.6,948.742 2092.64,951.224 2093.68,1089.66 2094.71,1090.17 2095.75,937.062 2096.79,937.426 2097.82,1126.81 2098.86,1127.59 2099.89,937.081 2100.93,937.391 2101.97,1076.45 2103,1077.02 2104.04,816.793 2105.08,817.407 2106.11,922.46 2107.15,922.718 2108.19,940.739 2109.22,940.987 2110.26,760.325 2111.29,761.43 2112.33,1111.48 2113.37,1111.9 2114.4,940.255 2115.44,941.057 2116.48,1094.25 2117.51,1094.72 2118.55,903.577 2119.58,903.63 2120.62,905.415 2121.66,905.9 2122.69,1099.88 2123.73,1100.47 2124.77,939.568 2125.8,939.658 2126.84,920.154 2127.88,920.288 2128.91,943.607 2129.95,944.155 2130.98,962.201 2132.02,963.577 2133.06,745.828 2134.09,746.204 2135.13,819.074 2136.17,819.53 2137.2,938.789 2138.24,940.807 2139.27,783.084 2140.31,784.352 2141.35,757.298 2142.38,757.871 2143.42,983.183 2144.46,983.276 2145.49,1077.84 2146.53,1078.43 2147.57,967.625 2148.6,967.982 2149.64,817.243 2150.67,817.721 2151.71,792.021 2152.75,792.833 2153.78,812.031 2154.82,813.355 2155.86,949.678 2156.89,949.879 2157.93,975.614 2158.96,976.249 2160,1074.32 2161.04,1075.88 2162.07,850.514 2163.11,851.026 2164.15,955.271 2165.18,955.616 2166.22,937.795 2167.26,937.973 2168.29,1175.72 2169.33,1177.22 2170.36,941.002 2171.4,941.422 2172.44,944.916 2173.47,944.939 2174.51,942.891 2175.55,942.921 2176.58,786.79 2177.62,788.485 2178.65,984.198 2179.69,985.687 2180.73,793.329 2181.76,796.634 2182.8,1065.12 2183.84,1067.62 2184.87,634.606 2185.91,635.823 2186.95,1094.17 2187.98,1094.59 2189.02,406.164 2190.05,412.035 2191.09,654.101 2192.13,655.265 2193.16,826.1 2194.2,826.832 2195.24,937.453 2196.27,938.697 2197.31,648.276 2198.34,649.227 2199.38,1094.27 2200.42,1095.03 2201.45,929.291 2202.49,929.883 2203.53,1126.14 2204.56,1126.66 2205.6,913.351 2206.64,913.702 2207.67,843.254 2208.71,843.708 2209.74,830.188 2210.78,830.39 2211.82,982.214 2212.85,982.337 2213.89,916.479 2214.93,918.143 2215.96,940.161 2217,940.886 2218.03,959.482 2219.07,959.659 2220.11,1064.52 2221.14,1066.23 2222.18,930.184 2223.22,930.253 2224.25,950.601 2225.29,952.583 2226.33,925.021 2227.36,925.155 2228.4,811.034 2229.43,812.187 2230.47,1147.07 2231.51,1147.79 2232.54,1087.43 2233.58,1090.03 2234.62,479.212 2235.65,481.903 2236.69,916.451 2237.72,917.147 2238.76,929.312 2239.8,929.712 2240.83,322.364 2241.87,327.16 2242.91,987.613 2243.94,987.751 2244.98,1107.01 2246.02,1107.49 2247.05,915.242 2248.09,915.917 2249.12,1084.87 2250.16,1085.54 2251.2,856.427 2252.23,858.082 2253.27,1041.99 2254.31,1044.72 2255.34,1107.98 2256.38,1108.44 2257.41,1069.74 2258.45,1070.37 2259.49,803.756 2260.52,804.296 2261.56,660.009 2262.6,661.781 2263.63,959.219 2264.67,960.373 2265.71,978.764 2266.74,979.377 2267.78,785.107 2268.81,785.499 2269.85,776.416 2270.89,776.64 2271.92,1033.86 2272.96,1034.72 2274,1093.63 2275.03,1094.15 2276.07,186.116 2277.1,194.555 2278.14,970.593 2279.18,970.858 2280.21,923.622 2281.25,923.794 2282.29,1082.05 2283.32,1082.65 2284.36,811.681 2285.4,812.028 2286.43,817.314 2287.47,817.51 2288.5,788.943 2289.54,789.926 2290.58,790.876 "/>
<path clip-path="url(#clip020)" d="M228.998 198.898 L501.127 198.898 L501.127 95.2176 L228.998 95.2176  Z" fill="#ffffff" fill-rule="evenodd" fill-opacity="1"/>
<polyline clip-path="url(#clip020)" style="stroke:#000000; stroke-linecap:round; stroke-linejoin:round; stroke-width:4; stroke-opacity:1; fill:none" points="228.998,198.898 501.127,198.898 501.127,95.2176 228.998,95.2176 228.998,198.898 "/>
<polyline clip-path="url(#clip020)" style="stroke:#009af9; stroke-linecap:round; stroke-linejoin:round; stroke-width:4; stroke-opacity:1; fill:none" points="253.409,147.058 399.875,147.058 "/>
<path clip-path="url(#clip020)" d="M438.129 166.745 Q436.323 171.375 434.61 172.787 Q432.897 174.199 430.027 174.199 L426.624 174.199 L426.624 170.634 L429.124 170.634 Q430.883 170.634 431.855 169.8 Q432.828 168.967 434.008 165.865 L434.772 163.921 L424.286 138.412 L428.8 138.412 L436.902 158.689 L445.004 138.412 L449.517 138.412 L438.129 166.745 Z" fill="#000000" fill-rule="nonzero" fill-opacity="1" /><path clip-path="url(#clip020)" d="M456.809 160.402 L464.448 160.402 L464.448 134.037 L456.138 135.703 L456.138 131.444 L464.402 129.778 L469.077 129.778 L469.077 160.402 L476.716 160.402 L476.716 164.338 L456.809 164.338 L456.809 160.402 Z" fill="#000000" fill-rule="nonzero" fill-opacity="1" /></svg>
