<?xml version="1.0" encoding="utf-8"?>
<svg xmlns="http://www.w3.org/2000/svg" xmlns:xlink="http://www.w3.org/1999/xlink" width="600" height="400" viewBox="0 0 2400 1600">
<defs>
  <clipPath id="clip410">
    <rect x="0" y="0" width="2400" height="1600"/>
  </clipPath>
</defs>
<path clip-path="url(#clip410)" d="M0 1600 L2400 1600 L2400 0 L0 0  Z" fill="#ffffff" fill-rule="evenodd" fill-opacity="1"/>
<defs>
  <clipPath id="clip411">
    <rect x="480" y="0" width="1681" height="1600"/>
  </clipPath>
</defs>
<path clip-path="url(#clip410)" d="M186.76 1486.45 L2352.76 1486.45 L2352.76 47.2441 L186.76 47.2441  Z" fill="#ffffff" fill-rule="evenodd" fill-opacity="1"/>
<defs>
  <clipPath id="clip412">
    <rect x="186" y="47" width="2167" height="1440"/>
  </clipPath>
</defs>
<polyline clip-path="url(#clip412)" style="stroke:#000000; stroke-linecap:round; stroke-linejoin:round; stroke-width:2; stroke-opacity:0.1; fill:none" points="248.062,1486.45 248.062,47.2441 "/>
<polyline clip-path="url(#clip412)" style="stroke:#000000; stroke-linecap:round; stroke-linejoin:round; stroke-width:2; stroke-opacity:0.1; fill:none" points="758.91,1486.45 758.91,47.2441 "/>
<polyline clip-path="url(#clip412)" style="stroke:#000000; stroke-linecap:round; stroke-linejoin:round; stroke-width:2; stroke-opacity:0.1; fill:none" points="1269.76,1486.45 1269.76,47.2441 "/>
<polyline clip-path="url(#clip412)" style="stroke:#000000; stroke-linecap:round; stroke-linejoin:round; stroke-width:2; stroke-opacity:0.1; fill:none" points="1780.61,1486.45 1780.61,47.2441 "/>
<polyline clip-path="url(#clip412)" style="stroke:#000000; stroke-linecap:round; stroke-linejoin:round; stroke-width:2; stroke-opacity:0.1; fill:none" points="2291.45,1486.45 2291.45,47.2441 "/>
<polyline clip-path="url(#clip410)" style="stroke:#000000; stroke-linecap:round; stroke-linejoin:round; stroke-width:4; stroke-opacity:1; fill:none" points="186.76,1486.45 2352.76,1486.45 "/>
<polyline clip-path="url(#clip410)" style="stroke:#000000; stroke-linecap:round; stroke-linejoin:round; stroke-width:4; stroke-opacity:1; fill:none" points="248.062,1486.45 248.062,1467.55 "/>
<polyline clip-path="url(#clip410)" style="stroke:#000000; stroke-linecap:round; stroke-linejoin:round; stroke-width:4; stroke-opacity:1; fill:none" points="758.91,1486.45 758.91,1467.55 "/>
<polyline clip-path="url(#clip410)" style="stroke:#000000; stroke-linecap:round; stroke-linejoin:round; stroke-width:4; stroke-opacity:1; fill:none" points="1269.76,1486.45 1269.76,1467.55 "/>
<polyline clip-path="url(#clip410)" style="stroke:#000000; stroke-linecap:round; stroke-linejoin:round; stroke-width:4; stroke-opacity:1; fill:none" points="1780.61,1486.45 1780.61,1467.55 "/>
<polyline clip-path="url(#clip410)" style="stroke:#000000; stroke-linecap:round; stroke-linejoin:round; stroke-width:4; stroke-opacity:1; fill:none" points="2291.45,1486.45 2291.45,1467.55 "/>
<path clip-path="url(#clip410)" d="M248.062 1517.37 Q244.451 1517.37 242.622 1520.93 Q240.817 1524.47 240.817 1531.6 Q240.817 1538.71 242.622 1542.27 Q244.451 1545.82 248.062 1545.82 Q251.696 1545.82 253.502 1542.27 Q255.33 1538.71 255.33 1531.6 Q255.33 1524.47 253.502 1520.93 Q251.696 1517.37 248.062 1517.37 M248.062 1513.66 Q253.872 1513.66 256.928 1518.27 Q260.006 1522.85 260.006 1531.6 Q260.006 1540.33 256.928 1544.94 Q253.872 1549.52 248.062 1549.52 Q242.252 1549.52 239.173 1544.94 Q236.117 1540.33 236.117 1531.6 Q236.117 1522.85 239.173 1518.27 Q242.252 1513.66 248.062 1513.66 Z" fill="#000000" fill-rule="nonzero" fill-opacity="1" /><path clip-path="url(#clip410)" d="M718.528 1514.29 L736.885 1514.29 L736.885 1518.22 L722.811 1518.22 L722.811 1526.7 Q723.829 1526.35 724.848 1526.19 Q725.866 1526 726.885 1526 Q732.672 1526 736.051 1529.17 Q739.431 1532.34 739.431 1537.76 Q739.431 1543.34 735.959 1546.44 Q732.486 1549.52 726.167 1549.52 Q723.991 1549.52 721.723 1549.15 Q719.477 1548.78 717.07 1548.04 L717.07 1543.34 Q719.153 1544.47 721.375 1545.03 Q723.598 1545.58 726.074 1545.58 Q730.079 1545.58 732.417 1543.48 Q734.755 1541.37 734.755 1537.76 Q734.755 1534.15 732.417 1532.04 Q730.079 1529.94 726.074 1529.94 Q724.199 1529.94 722.324 1530.35 Q720.473 1530.77 718.528 1531.65 L718.528 1514.29 Z" fill="#000000" fill-rule="nonzero" fill-opacity="1" /><path clip-path="url(#clip410)" d="M758.644 1517.37 Q755.033 1517.37 753.204 1520.93 Q751.398 1524.47 751.398 1531.6 Q751.398 1538.71 753.204 1542.27 Q755.033 1545.82 758.644 1545.82 Q762.278 1545.82 764.084 1542.27 Q765.912 1538.71 765.912 1531.6 Q765.912 1524.47 764.084 1520.93 Q762.278 1517.37 758.644 1517.37 M758.644 1513.66 Q764.454 1513.66 767.509 1518.27 Q770.588 1522.85 770.588 1531.6 Q770.588 1540.33 767.509 1544.94 Q764.454 1549.52 758.644 1549.52 Q752.834 1549.52 749.755 1544.94 Q746.699 1540.33 746.699 1531.6 Q746.699 1522.85 749.755 1518.27 Q752.834 1513.66 758.644 1513.66 Z" fill="#000000" fill-rule="nonzero" fill-opacity="1" /><path clip-path="url(#clip410)" d="M788.806 1517.37 Q785.195 1517.37 783.366 1520.93 Q781.56 1524.47 781.56 1531.6 Q781.56 1538.71 783.366 1542.27 Q785.195 1545.82 788.806 1545.82 Q792.44 1545.82 794.245 1542.27 Q796.074 1538.71 796.074 1531.6 Q796.074 1524.47 794.245 1520.93 Q792.44 1517.37 788.806 1517.37 M788.806 1513.66 Q794.616 1513.66 797.671 1518.27 Q800.75 1522.85 800.75 1531.6 Q800.75 1540.33 797.671 1544.94 Q794.616 1549.52 788.806 1549.52 Q782.995 1549.52 779.917 1544.94 Q776.861 1540.33 776.861 1531.6 Q776.861 1522.85 779.917 1518.27 Q782.995 1513.66 788.806 1513.66 Z" fill="#000000" fill-rule="nonzero" fill-opacity="1" /><path clip-path="url(#clip410)" d="M1214.28 1544.91 L1221.92 1544.91 L1221.92 1518.55 L1213.61 1520.21 L1213.61 1515.95 L1221.88 1514.29 L1226.55 1514.29 L1226.55 1544.91 L1234.19 1544.91 L1234.19 1548.85 L1214.28 1548.85 L1214.28 1544.91 Z" fill="#000000" fill-rule="nonzero" fill-opacity="1" /><path clip-path="url(#clip410)" d="M1253.64 1517.37 Q1250.02 1517.37 1248.2 1520.93 Q1246.39 1524.47 1246.39 1531.6 Q1246.39 1538.71 1248.2 1542.27 Q1250.02 1545.82 1253.64 1545.82 Q1257.27 1545.82 1259.08 1542.27 Q1260.9 1538.71 1260.9 1531.6 Q1260.9 1524.47 1259.08 1520.93 Q1257.27 1517.37 1253.64 1517.37 M1253.64 1513.66 Q1259.45 1513.66 1262.5 1518.27 Q1265.58 1522.85 1265.58 1531.6 Q1265.58 1540.33 1262.5 1544.94 Q1259.45 1549.52 1253.64 1549.52 Q1247.83 1549.52 1244.75 1544.94 Q1241.69 1540.33 1241.69 1531.6 Q1241.69 1522.85 1244.75 1518.27 Q1247.83 1513.66 1253.64 1513.66 Z" fill="#000000" fill-rule="nonzero" fill-opacity="1" /><path clip-path="url(#clip410)" d="M1283.8 1517.37 Q1280.19 1517.37 1278.36 1520.93 Q1276.55 1524.47 1276.55 1531.6 Q1276.55 1538.71 1278.36 1542.27 Q1280.19 1545.82 1283.8 1545.82 Q1287.43 1545.82 1289.24 1542.27 Q1291.07 1538.71 1291.07 1531.6 Q1291.07 1524.47 1289.24 1520.93 Q1287.43 1517.37 1283.8 1517.37 M1283.8 1513.66 Q1289.61 1513.66 1292.66 1518.27 Q1295.74 1522.85 1295.74 1531.6 Q1295.74 1540.33 1292.66 1544.94 Q1289.61 1549.52 1283.8 1549.52 Q1277.99 1549.52 1274.91 1544.94 Q1271.85 1540.33 1271.85 1531.6 Q1271.85 1522.85 1274.91 1518.27 Q1277.99 1513.66 1283.8 1513.66 Z" fill="#000000" fill-rule="nonzero" fill-opacity="1" /><path clip-path="url(#clip410)" d="M1313.96 1517.37 Q1310.35 1517.37 1308.52 1520.93 Q1306.71 1524.47 1306.71 1531.6 Q1306.71 1538.71 1308.52 1542.27 Q1310.35 1545.82 1313.96 1545.82 Q1317.59 1545.82 1319.4 1542.27 Q1321.23 1538.71 1321.23 1531.6 Q1321.23 1524.47 1319.4 1520.93 Q1317.59 1517.37 1313.96 1517.37 M1313.96 1513.66 Q1319.77 1513.66 1322.82 1518.27 Q1325.9 1522.85 1325.9 1531.6 Q1325.9 1540.33 1322.82 1544.94 Q1319.77 1549.52 1313.96 1549.52 Q1308.15 1549.52 1305.07 1544.94 Q1302.01 1540.33 1302.01 1531.6 Q1302.01 1522.85 1305.07 1518.27 Q1308.15 1513.66 1313.96 1513.66 Z" fill="#000000" fill-rule="nonzero" fill-opacity="1" /><path clip-path="url(#clip410)" d="M1725.13 1544.91 L1732.77 1544.91 L1732.77 1518.55 L1724.46 1520.21 L1724.46 1515.95 L1732.72 1514.29 L1737.4 1514.29 L1737.4 1544.91 L1745.04 1544.91 L1745.04 1548.85 L1725.13 1548.85 L1725.13 1544.91 Z" fill="#000000" fill-rule="nonzero" fill-opacity="1" /><path clip-path="url(#clip410)" d="M1754.53 1514.29 L1772.89 1514.29 L1772.89 1518.22 L1758.81 1518.22 L1758.81 1526.7 Q1759.83 1526.35 1760.85 1526.19 Q1761.87 1526 1762.89 1526 Q1768.67 1526 1772.05 1529.17 Q1775.43 1532.34 1775.43 1537.76 Q1775.43 1543.34 1771.96 1546.44 Q1768.49 1549.52 1762.17 1549.52 Q1759.99 1549.52 1757.72 1549.15 Q1755.48 1548.78 1753.07 1548.04 L1753.07 1543.34 Q1755.15 1544.47 1757.38 1545.03 Q1759.6 1545.58 1762.08 1545.58 Q1766.08 1545.58 1768.42 1543.48 Q1770.76 1541.37 1770.76 1537.76 Q1770.76 1534.15 1768.42 1532.04 Q1766.08 1529.94 1762.08 1529.94 Q1760.2 1529.94 1758.33 1530.35 Q1756.47 1530.77 1754.53 1531.65 L1754.53 1514.29 Z" fill="#000000" fill-rule="nonzero" fill-opacity="1" /><path clip-path="url(#clip410)" d="M1794.65 1517.37 Q1791.03 1517.37 1789.21 1520.93 Q1787.4 1524.47 1787.4 1531.6 Q1787.4 1538.71 1789.21 1542.27 Q1791.03 1545.82 1794.65 1545.82 Q1798.28 1545.82 1800.09 1542.27 Q1801.91 1538.71 1801.91 1531.6 Q1801.91 1524.47 1800.09 1520.93 Q1798.28 1517.37 1794.65 1517.37 M1794.65 1513.66 Q1800.46 1513.66 1803.51 1518.27 Q1806.59 1522.85 1806.59 1531.6 Q1806.59 1540.33 1803.51 1544.94 Q1800.46 1549.52 1794.65 1549.52 Q1788.84 1549.52 1785.76 1544.94 Q1782.7 1540.33 1782.7 1531.6 Q1782.7 1522.85 1785.76 1518.27 Q1788.84 1513.66 1794.65 1513.66 Z" fill="#000000" fill-rule="nonzero" fill-opacity="1" /><path clip-path="url(#clip410)" d="M1824.81 1517.37 Q1821.2 1517.37 1819.37 1520.93 Q1817.56 1524.47 1817.56 1531.6 Q1817.56 1538.71 1819.37 1542.27 Q1821.2 1545.82 1824.81 1545.82 Q1828.44 1545.82 1830.25 1542.27 Q1832.08 1538.71 1832.08 1531.6 Q1832.08 1524.47 1830.25 1520.93 Q1828.44 1517.37 1824.81 1517.37 M1824.81 1513.66 Q1830.62 1513.66 1833.67 1518.27 Q1836.75 1522.85 1836.75 1531.6 Q1836.75 1540.33 1833.67 1544.94 Q1830.62 1549.52 1824.81 1549.52 Q1819 1549.52 1815.92 1544.94 Q1812.86 1540.33 1812.86 1531.6 Q1812.86 1522.85 1815.92 1518.27 Q1819 1513.66 1824.81 1513.66 Z" fill="#000000" fill-rule="nonzero" fill-opacity="1" /><path clip-path="url(#clip410)" d="M2240.07 1544.91 L2256.38 1544.91 L2256.38 1548.85 L2234.44 1548.85 L2234.44 1544.91 Q2237.1 1542.16 2241.69 1537.53 Q2246.29 1532.88 2247.47 1531.53 Q2249.72 1529.01 2250.6 1527.27 Q2251.5 1525.51 2251.5 1523.82 Q2251.5 1521.07 2249.56 1519.33 Q2247.63 1517.6 2244.53 1517.6 Q2242.33 1517.6 2239.88 1518.36 Q2237.45 1519.13 2234.67 1520.68 L2234.67 1515.95 Q2237.5 1514.82 2239.95 1514.24 Q2242.4 1513.66 2244.44 1513.66 Q2249.81 1513.66 2253.01 1516.35 Q2256.2 1519.03 2256.2 1523.52 Q2256.2 1525.65 2255.39 1527.57 Q2254.6 1529.47 2252.5 1532.07 Q2251.92 1532.74 2248.82 1535.95 Q2245.71 1539.15 2240.07 1544.91 Z" fill="#000000" fill-rule="nonzero" fill-opacity="1" /><path clip-path="url(#clip410)" d="M2276.2 1517.37 Q2272.59 1517.37 2270.76 1520.93 Q2268.95 1524.47 2268.95 1531.6 Q2268.95 1538.71 2270.76 1542.27 Q2272.59 1545.82 2276.2 1545.82 Q2279.83 1545.82 2281.64 1542.27 Q2283.47 1538.71 2283.47 1531.6 Q2283.47 1524.47 2281.64 1520.93 Q2279.83 1517.37 2276.2 1517.37 M2276.2 1513.66 Q2282.01 1513.66 2285.07 1518.27 Q2288.14 1522.85 2288.14 1531.6 Q2288.14 1540.33 2285.07 1544.94 Q2282.01 1549.52 2276.2 1549.52 Q2270.39 1549.52 2267.31 1544.94 Q2264.26 1540.33 2264.26 1531.6 Q2264.26 1522.85 2267.31 1518.27 Q2270.39 1513.66 2276.2 1513.66 Z" fill="#000000" fill-rule="nonzero" fill-opacity="1" /><path clip-path="url(#clip410)" d="M2306.36 1517.37 Q2302.75 1517.37 2300.92 1520.93 Q2299.12 1524.47 2299.12 1531.6 Q2299.12 1538.71 2300.92 1542.27 Q2302.75 1545.82 2306.36 1545.82 Q2310 1545.82 2311.8 1542.27 Q2313.63 1538.71 2313.63 1531.6 Q2313.63 1524.47 2311.8 1520.93 Q2310 1517.37 2306.36 1517.37 M2306.36 1513.66 Q2312.17 1513.66 2315.23 1518.27 Q2318.31 1522.85 2318.31 1531.6 Q2318.31 1540.33 2315.23 1544.94 Q2312.17 1549.52 2306.36 1549.52 Q2300.55 1549.52 2297.47 1544.94 Q2294.42 1540.33 2294.42 1531.6 Q2294.42 1522.85 2297.47 1518.27 Q2300.55 1513.66 2306.36 1513.66 Z" fill="#000000" fill-rule="nonzero" fill-opacity="1" /><path clip-path="url(#clip410)" d="M2336.52 1517.37 Q2332.91 1517.37 2331.08 1520.93 Q2329.28 1524.47 2329.28 1531.6 Q2329.28 1538.71 2331.08 1542.27 Q2332.91 1545.82 2336.52 1545.82 Q2340.16 1545.82 2341.96 1542.27 Q2343.79 1538.71 2343.79 1531.6 Q2343.79 1524.47 2341.96 1520.93 Q2340.16 1517.37 2336.52 1517.37 M2336.52 1513.66 Q2342.33 1513.66 2345.39 1518.27 Q2348.47 1522.85 2348.47 1531.6 Q2348.47 1540.33 2345.39 1544.94 Q2342.33 1549.52 2336.52 1549.52 Q2330.71 1549.52 2327.63 1544.94 Q2324.58 1540.33 2324.58 1531.6 Q2324.58 1522.85 2327.63 1518.27 Q2330.71 1513.66 2336.52 1513.66 Z" fill="#000000" fill-rule="nonzero" fill-opacity="1" /><polyline clip-path="url(#clip412)" style="stroke:#000000; stroke-linecap:round; stroke-linejoin:round; stroke-width:2; stroke-opacity:0.1; fill:none" points="186.76,1336.68 2352.76,1336.68 "/>
<polyline clip-path="url(#clip412)" style="stroke:#000000; stroke-linecap:round; stroke-linejoin:round; stroke-width:2; stroke-opacity:0.1; fill:none" points="186.76,1063.24 2352.76,1063.24 "/>
<polyline clip-path="url(#clip412)" style="stroke:#000000; stroke-linecap:round; stroke-linejoin:round; stroke-width:2; stroke-opacity:0.1; fill:none" points="186.76,789.789 2352.76,789.789 "/>
<polyline clip-path="url(#clip412)" style="stroke:#000000; stroke-linecap:round; stroke-linejoin:round; stroke-width:2; stroke-opacity:0.1; fill:none" points="186.76,516.342 2352.76,516.342 "/>
<polyline clip-path="url(#clip412)" style="stroke:#000000; stroke-linecap:round; stroke-linejoin:round; stroke-width:2; stroke-opacity:0.1; fill:none" points="186.76,242.895 2352.76,242.895 "/>
<polyline clip-path="url(#clip410)" style="stroke:#000000; stroke-linecap:round; stroke-linejoin:round; stroke-width:4; stroke-opacity:1; fill:none" points="186.76,1486.45 186.76,47.2441 "/>
<polyline clip-path="url(#clip410)" style="stroke:#000000; stroke-linecap:round; stroke-linejoin:round; stroke-width:4; stroke-opacity:1; fill:none" points="186.76,1336.68 205.658,1336.68 "/>
<polyline clip-path="url(#clip410)" style="stroke:#000000; stroke-linecap:round; stroke-linejoin:round; stroke-width:4; stroke-opacity:1; fill:none" points="186.76,1063.24 205.658,1063.24 "/>
<polyline clip-path="url(#clip410)" style="stroke:#000000; stroke-linecap:round; stroke-linejoin:round; stroke-width:4; stroke-opacity:1; fill:none" points="186.76,789.789 205.658,789.789 "/>
<polyline clip-path="url(#clip410)" style="stroke:#000000; stroke-linecap:round; stroke-linejoin:round; stroke-width:4; stroke-opacity:1; fill:none" points="186.76,516.342 205.658,516.342 "/>
<polyline clip-path="url(#clip410)" style="stroke:#000000; stroke-linecap:round; stroke-linejoin:round; stroke-width:4; stroke-opacity:1; fill:none" points="186.76,242.895 205.658,242.895 "/>
<path clip-path="url(#clip410)" d="M65.0198 1322.48 Q61.4087 1322.48 59.58 1326.05 Q57.7745 1329.59 57.7745 1336.72 Q57.7745 1343.82 59.58 1347.39 Q61.4087 1350.93 65.0198 1350.93 Q68.6541 1350.93 70.4596 1347.39 Q72.2883 1343.82 72.2883 1336.72 Q72.2883 1329.59 70.4596 1326.05 Q68.6541 1322.48 65.0198 1322.48 M65.0198 1318.78 Q70.83 1318.78 73.8855 1323.38 Q76.9642 1327.97 76.9642 1336.72 Q76.9642 1345.44 73.8855 1350.05 Q70.83 1354.63 65.0198 1354.63 Q59.2097 1354.63 56.131 1350.05 Q53.0754 1345.44 53.0754 1336.72 Q53.0754 1327.97 56.131 1323.38 Q59.2097 1318.78 65.0198 1318.78 Z" fill="#000000" fill-rule="nonzero" fill-opacity="1" /><path clip-path="url(#clip410)" d="M85.1818 1348.08 L90.066 1348.08 L90.066 1353.96 L85.1818 1353.96 L85.1818 1348.08 Z" fill="#000000" fill-rule="nonzero" fill-opacity="1" /><path clip-path="url(#clip410)" d="M101.061 1350.03 L108.7 1350.03 L108.7 1323.66 L100.39 1325.33 L100.39 1321.07 L108.654 1319.4 L113.33 1319.4 L113.33 1350.03 L120.969 1350.03 L120.969 1353.96 L101.061 1353.96 L101.061 1350.03 Z" fill="#000000" fill-rule="nonzero" fill-opacity="1" /><path clip-path="url(#clip410)" d="M134.441 1350.03 L150.76 1350.03 L150.76 1353.96 L128.816 1353.96 L128.816 1350.03 Q131.478 1347.27 136.061 1342.64 Q140.668 1337.99 141.848 1336.65 Q144.093 1334.12 144.973 1332.39 Q145.876 1330.63 145.876 1328.94 Q145.876 1326.18 143.931 1324.45 Q142.01 1322.71 138.908 1322.71 Q136.709 1322.71 134.256 1323.48 Q131.825 1324.24 129.047 1325.79 L129.047 1321.07 Q131.871 1319.93 134.325 1319.36 Q136.779 1318.78 138.816 1318.78 Q144.186 1318.78 147.38 1321.46 Q150.575 1324.15 150.575 1328.64 Q150.575 1330.77 149.765 1332.69 Q148.978 1334.59 146.871 1337.18 Q146.293 1337.85 143.191 1341.07 Q140.089 1344.26 134.441 1350.03 Z" fill="#000000" fill-rule="nonzero" fill-opacity="1" /><path clip-path="url(#clip410)" d="M64.418 1049.03 Q60.8069 1049.03 58.9782 1052.6 Q57.1726 1056.14 57.1726 1063.27 Q57.1726 1070.38 58.9782 1073.94 Q60.8069 1077.48 64.418 1077.48 Q68.0522 1077.48 69.8578 1073.94 Q71.6865 1070.38 71.6865 1063.27 Q71.6865 1056.14 69.8578 1052.6 Q68.0522 1049.03 64.418 1049.03 M64.418 1045.33 Q70.2281 1045.33 73.2837 1049.94 Q76.3624 1054.52 76.3624 1063.27 Q76.3624 1072 73.2837 1076.6 Q70.2281 1081.19 64.418 1081.19 Q58.6078 1081.19 55.5291 1076.6 Q52.4736 1072 52.4736 1063.27 Q52.4736 1054.52 55.5291 1049.94 Q58.6078 1045.33 64.418 1045.33 Z" fill="#000000" fill-rule="nonzero" fill-opacity="1" /><path clip-path="url(#clip410)" d="M84.5799 1074.64 L89.4641 1074.64 L89.4641 1080.52 L84.5799 1080.52 L84.5799 1074.64 Z" fill="#000000" fill-rule="nonzero" fill-opacity="1" /><path clip-path="url(#clip410)" d="M100.459 1076.58 L108.098 1076.58 L108.098 1050.21 L99.7882 1051.88 L99.7882 1047.62 L108.052 1045.96 L112.728 1045.96 L112.728 1076.58 L120.367 1076.58 L120.367 1080.52 L100.459 1080.52 L100.459 1076.58 Z" fill="#000000" fill-rule="nonzero" fill-opacity="1" /><path clip-path="url(#clip410)" d="M129.857 1045.96 L148.214 1045.96 L148.214 1049.89 L134.14 1049.89 L134.14 1058.36 Q135.158 1058.02 136.177 1057.85 Q137.195 1057.67 138.214 1057.67 Q144.001 1057.67 147.38 1060.84 Q150.76 1064.01 150.76 1069.43 Q150.76 1075.01 147.288 1078.11 Q143.816 1081.19 137.496 1081.19 Q135.32 1081.19 133.052 1080.82 Q130.807 1080.45 128.399 1079.71 L128.399 1075.01 Q130.482 1076.14 132.705 1076.7 Q134.927 1077.25 137.404 1077.25 Q141.408 1077.25 143.746 1075.15 Q146.084 1073.04 146.084 1069.43 Q146.084 1065.82 143.746 1063.71 Q141.408 1061.6 137.404 1061.6 Q135.529 1061.6 133.654 1062.02 Q131.802 1062.44 129.857 1063.32 L129.857 1045.96 Z" fill="#000000" fill-rule="nonzero" fill-opacity="1" /><path clip-path="url(#clip410)" d="M63.5152 775.588 Q59.9041 775.588 58.0754 779.152 Q56.2699 782.694 56.2699 789.824 Q56.2699 796.93 58.0754 800.495 Q59.9041 804.036 63.5152 804.036 Q67.1494 804.036 68.955 800.495 Q70.7837 796.93 70.7837 789.824 Q70.7837 782.694 68.955 779.152 Q67.1494 775.588 63.5152 775.588 M63.5152 771.884 Q69.3254 771.884 72.3809 776.49 Q75.4596 781.074 75.4596 789.824 Q75.4596 798.55 72.3809 803.157 Q69.3254 807.74 63.5152 807.74 Q57.7051 807.74 54.6264 803.157 Q51.5708 798.55 51.5708 789.824 Q51.5708 781.074 54.6264 776.49 Q57.7051 771.884 63.5152 771.884 Z" fill="#000000" fill-rule="nonzero" fill-opacity="1" /><path clip-path="url(#clip410)" d="M83.6771 801.189 L88.5614 801.189 L88.5614 807.069 L83.6771 807.069 L83.6771 801.189 Z" fill="#000000" fill-rule="nonzero" fill-opacity="1" /><path clip-path="url(#clip410)" d="M99.5567 803.134 L107.196 803.134 L107.196 776.768 L98.8854 778.435 L98.8854 774.176 L107.149 772.509 L111.825 772.509 L111.825 803.134 L119.464 803.134 L119.464 807.069 L99.5567 807.069 L99.5567 803.134 Z" fill="#000000" fill-rule="nonzero" fill-opacity="1" /><path clip-path="url(#clip410)" d="M138.908 790.657 Q135.575 790.657 133.654 792.439 Q131.756 794.222 131.756 797.347 Q131.756 800.472 133.654 802.254 Q135.575 804.036 138.908 804.036 Q142.242 804.036 144.163 802.254 Q146.084 800.449 146.084 797.347 Q146.084 794.222 144.163 792.439 Q142.265 790.657 138.908 790.657 M134.232 788.666 Q131.223 787.925 129.533 785.865 Q127.867 783.805 127.867 780.842 Q127.867 776.699 130.807 774.291 Q133.769 771.884 138.908 771.884 Q144.07 771.884 147.01 774.291 Q149.95 776.699 149.95 780.842 Q149.95 783.805 148.26 785.865 Q146.593 787.925 143.607 788.666 Q146.987 789.453 148.862 791.745 Q150.76 794.037 150.76 797.347 Q150.76 802.37 147.681 805.055 Q144.626 807.74 138.908 807.74 Q133.191 807.74 130.112 805.055 Q127.057 802.37 127.057 797.347 Q127.057 794.037 128.955 791.745 Q130.853 789.453 134.232 788.666 M132.519 781.282 Q132.519 783.967 134.186 785.472 Q135.876 786.976 138.908 786.976 Q141.918 786.976 143.607 785.472 Q145.32 783.967 145.32 781.282 Q145.32 778.597 143.607 777.092 Q141.918 775.588 138.908 775.588 Q135.876 775.588 134.186 777.092 Q132.519 778.597 132.519 781.282 Z" fill="#000000" fill-rule="nonzero" fill-opacity="1" /><path clip-path="url(#clip410)" d="M64.6495 502.141 Q61.0384 502.141 59.2097 505.706 Q57.4041 509.247 57.4041 516.377 Q57.4041 523.483 59.2097 527.048 Q61.0384 530.59 64.6495 530.59 Q68.2837 530.59 70.0892 527.048 Q71.9179 523.483 71.9179 516.377 Q71.9179 509.247 70.0892 505.706 Q68.2837 502.141 64.6495 502.141 M64.6495 498.437 Q70.4596 498.437 73.5152 503.044 Q76.5938 507.627 76.5938 516.377 Q76.5938 525.104 73.5152 529.71 Q70.4596 534.293 64.6495 534.293 Q58.8393 534.293 55.7606 529.71 Q52.7051 525.104 52.7051 516.377 Q52.7051 507.627 55.7606 503.044 Q58.8393 498.437 64.6495 498.437 Z" fill="#000000" fill-rule="nonzero" fill-opacity="1" /><path clip-path="url(#clip410)" d="M84.8114 527.743 L89.6956 527.743 L89.6956 533.622 L84.8114 533.622 L84.8114 527.743 Z" fill="#000000" fill-rule="nonzero" fill-opacity="1" /><path clip-path="url(#clip410)" d="M103.909 529.687 L120.228 529.687 L120.228 533.622 L98.2835 533.622 L98.2835 529.687 Q100.946 526.932 105.529 522.303 Q110.135 517.65 111.316 516.307 Q113.561 513.784 114.441 512.048 Q115.344 510.289 115.344 508.599 Q115.344 505.845 113.399 504.108 Q111.478 502.372 108.376 502.372 Q106.177 502.372 103.723 503.136 Q101.293 503.9 98.515 505.451 L98.515 500.729 Q101.339 499.595 103.793 499.016 Q106.246 498.437 108.283 498.437 Q113.654 498.437 116.848 501.122 Q120.043 503.808 120.043 508.298 Q120.043 510.428 119.233 512.349 Q118.445 514.247 116.339 516.84 Q115.76 517.511 112.658 520.729 Q109.557 523.923 103.909 529.687 Z" fill="#000000" fill-rule="nonzero" fill-opacity="1" /><path clip-path="url(#clip410)" d="M130.853 529.687 L138.492 529.687 L138.492 503.321 L130.182 504.988 L130.182 500.729 L138.445 499.062 L143.121 499.062 L143.121 529.687 L150.76 529.687 L150.76 533.622 L130.853 533.622 L130.853 529.687 Z" fill="#000000" fill-rule="nonzero" fill-opacity="1" /><path clip-path="url(#clip410)" d="M62.9365 228.694 Q59.3254 228.694 57.4967 232.259 Q55.6912 235.801 55.6912 242.93 Q55.6912 250.037 57.4967 253.601 Q59.3254 257.143 62.9365 257.143 Q66.5707 257.143 68.3763 253.601 Q70.205 250.037 70.205 242.93 Q70.205 235.801 68.3763 232.259 Q66.5707 228.694 62.9365 228.694 M62.9365 224.99 Q68.7467 224.99 71.8022 229.597 Q74.8809 234.18 74.8809 242.93 Q74.8809 251.657 71.8022 256.263 Q68.7467 260.847 62.9365 260.847 Q57.1264 260.847 54.0477 256.263 Q50.9921 251.657 50.9921 242.93 Q50.9921 234.18 54.0477 229.597 Q57.1264 224.99 62.9365 224.99 Z" fill="#000000" fill-rule="nonzero" fill-opacity="1" /><path clip-path="url(#clip410)" d="M83.0984 254.296 L87.9827 254.296 L87.9827 260.175 L83.0984 260.175 L83.0984 254.296 Z" fill="#000000" fill-rule="nonzero" fill-opacity="1" /><path clip-path="url(#clip410)" d="M102.196 256.24 L118.515 256.24 L118.515 260.175 L96.5706 260.175 L96.5706 256.24 Q99.2326 253.486 103.816 248.856 Q108.422 244.203 109.603 242.861 Q111.848 240.338 112.728 238.602 Q113.631 236.842 113.631 235.152 Q113.631 232.398 111.686 230.662 Q109.765 228.926 106.663 228.926 Q104.464 228.926 102.01 229.69 Q99.5798 230.453 96.8021 232.004 L96.8021 227.282 Q99.6261 226.148 102.08 225.569 Q104.534 224.99 106.571 224.99 Q111.941 224.99 115.135 227.676 Q118.33 230.361 118.33 234.852 Q118.33 236.981 117.52 238.902 Q116.733 240.801 114.626 243.393 Q114.047 244.064 110.946 247.282 Q107.844 250.476 102.196 256.24 Z" fill="#000000" fill-rule="nonzero" fill-opacity="1" /><path clip-path="url(#clip410)" d="M141.177 229.69 L129.371 248.139 L141.177 248.139 L141.177 229.69 M139.95 225.615 L145.83 225.615 L145.83 248.139 L150.76 248.139 L150.76 252.027 L145.83 252.027 L145.83 260.175 L141.177 260.175 L141.177 252.027 L125.575 252.027 L125.575 247.514 L139.95 225.615 Z" fill="#000000" fill-rule="nonzero" fill-opacity="1" /><polyline clip-path="url(#clip412)" style="stroke:#009af9; stroke-linecap:round; stroke-linejoin:round; stroke-width:4; stroke-opacity:1; fill:none" points="248.062,87.9763 249.084,89.2615 250.105,90.5456 251.127,91.8288 252.149,93.1109 253.17,94.3919 254.192,95.672 255.214,96.951 256.235,98.229 257.257,99.506 258.279,100.782 259.301,102.057 260.322,103.331 261.344,104.604 262.366,105.876 263.387,107.146 264.409,108.416 265.431,109.685 266.452,110.953 267.474,112.22 268.496,113.485 269.517,114.75 270.539,116.014 271.561,117.277 272.583,118.538 273.604,119.799 274.626,121.059 275.648,122.318 276.669,123.575 277.691,124.832 278.713,126.088 279.734,127.342 280.756,128.596 281.778,129.849 282.8,131.1 283.821,132.351 284.843,133.601 285.865,134.85 286.886,136.097 287.908,137.344 288.93,138.59 289.951,139.834 290.973,141.078 291.995,142.321 293.017,143.563 294.038,144.803 295.06,146.043 296.082,147.282 297.103,148.52 298.125,149.757 299.147,150.992 300.168,152.227 301.19,153.461 302.212,154.694 303.233,155.926 304.255,157.157 305.277,158.387 306.299,159.616 307.32,160.844 308.342,162.071 309.364,163.297 310.385,164.522 311.407,165.746 312.429,166.969 313.45,168.191 314.472,169.412 315.494,170.633 316.516,171.852 317.537,173.07 318.559,174.287 319.581,175.504 320.602,176.719 321.624,177.934 322.646,179.147 323.667,180.36 324.689,181.571 325.711,182.782 326.732,183.991 327.754,185.2 328.776,186.408 329.798,187.614 330.819,188.82 331.841,190.025 332.863,191.229 333.884,192.432 334.906,193.634 335.928,194.835 336.949,196.035 337.971,197.234 338.993,198.432 340.015,199.63 341.036,200.826 342.058,202.021 343.08,203.216 344.101,204.409 345.123,205.602 346.145,206.793 347.166,207.984 348.188,209.173 349.21,210.362 350.231,211.55 351.253,212.737 352.275,213.923 353.297,215.108 354.318,216.292 355.34,217.475 356.362,218.657 357.383,219.839 358.405,221.019 359.427,222.198 360.448,223.377 361.47,224.554 362.492,225.731 363.514,226.907 364.535,228.081 365.557,229.255 366.579,230.428 367.6,231.6 368.622,232.771 369.644,233.941 370.665,235.111 371.687,236.279 372.709,237.446 373.731,238.613 374.752,239.779 375.774,240.943 376.796,242.107 377.817,243.27 378.839,244.432 379.861,245.593 380.882,246.753 381.904,247.912 382.926,249.07 383.947,250.228 384.969,251.384 385.991,252.54 387.013,253.694 388.034,254.848 389.056,256.001 390.078,257.153 391.099,258.304 392.121,259.454 393.143,260.603 394.164,261.751 395.186,262.899 396.208,264.045 397.23,265.191 398.251,266.336 399.273,267.48 400.295,268.623 401.316,269.765 402.338,270.906 403.36,272.046 404.381,273.185 405.403,274.324 406.425,275.462 407.446,276.598 408.468,277.734 409.49,278.869 410.512,280.003 411.533,281.136 412.555,282.268 413.577,283.4 414.598,284.53 415.62,285.66 416.642,286.789 417.663,287.917 418.685,289.044 419.707,290.17 420.729,291.295 421.75,292.419 422.772,293.543 423.794,294.665 424.815,295.787 425.837,296.908 426.859,298.028 427.88,299.147 428.902,300.265 429.924,301.383 430.945,302.499 431.967,303.615 432.989,304.729 434.011,305.843 435.032,306.956 436.054,308.069 437.076,309.18 438.097,310.29 439.119,311.4 440.141,312.509 441.162,313.616 442.184,314.723 443.206,315.829 444.228,316.935 445.249,318.039 446.271,319.143 447.293,320.245 448.314,321.347 449.336,322.448 450.358,323.548 451.379,324.648 452.401,325.746 453.423,326.844 454.444,327.94 455.466,329.036 456.488,330.131 457.51,331.225 458.531,332.319 459.553,333.411 460.575,334.503 461.596,335.594 462.618,336.684 463.64,337.773 464.661,338.861 465.683,339.948 466.705,341.035 467.727,342.121 468.748,343.206 469.77,344.29 470.792,345.373 471.813,346.455 472.835,347.537 473.857,348.617 474.878,349.697 475.9,350.776 476.922,351.855 477.944,352.932 478.965,354.008 479.987,355.084 481.009,356.159 482.03,357.233 483.052,358.306 484.074,359.379 485.095,360.45 486.117,361.521 487.139,362.591 488.16,363.66 489.182,364.728 490.204,365.796 491.226,366.862 492.247,367.928 493.269,368.993 494.291,370.057 495.312,371.121 496.334,372.183 497.356,373.245 498.377,374.306 499.399,375.366 500.421,376.425 501.443,377.484 502.464,378.541 503.486,379.598 504.508,380.654 505.529,381.709 506.551,382.764 507.573,383.817 508.594,384.87 509.616,385.922 510.638,386.973 511.659,388.024 512.681,389.073 513.703,390.122 514.725,391.17 515.746,392.217 516.768,393.263 517.79,394.309 518.811,395.353 519.833,396.397 520.855,397.44 521.876,398.483 522.898,399.524 523.92,400.565 524.942,401.605 525.963,402.644 526.985,403.682 528.007,404.72 529.028,405.757 530.05,406.793 531.072,407.828 532.093,408.862 533.115,409.896 534.137,410.929 535.158,411.961 536.18,412.992 537.202,414.022 538.224,415.052 539.245,416.081 540.267,417.109 541.289,418.136 542.31,419.163 543.332,420.188 544.354,421.213 545.375,422.237 546.397,423.261 547.419,424.283 548.441,425.305 549.462,426.326 550.484,427.346 551.506,428.366 552.527,429.385 553.549,430.402 554.571,431.42 555.592,432.436 556.614,433.452 557.636,434.466 558.658,435.48 559.679,436.494 560.701,437.506 561.723,438.518 562.744,439.529 563.766,440.539 564.788,441.549 565.809,442.557 566.831,443.565 567.853,444.572 568.874,445.579 569.896,446.584 570.918,447.589 571.94,448.593 572.961,449.596 573.983,450.599 575.005,451.601 576.026,452.602 577.048,453.602 578.07,454.602 579.091,455.6 580.113,456.598 581.135,457.596 582.157,458.592 583.178,459.588 584.2,460.583 585.222,461.577 586.243,462.57 587.265,463.563 588.287,464.555 589.308,465.546 590.33,466.537 591.352,467.526 592.373,468.515 593.395,469.504 594.417,470.491 595.439,471.478 596.46,472.464 597.482,473.449 598.504,474.434 599.525,475.417 600.547,476.4 601.569,477.383 602.59,478.364 603.612,479.345 604.634,480.325 605.656,481.304 606.677,482.283 607.699,483.26 608.721,484.238 609.742,485.214 610.764,486.19 611.786,487.164 612.807,488.139 613.829,489.112 614.851,490.085 615.872,491.056 616.894,492.028 617.916,492.998 618.938,493.968 619.959,494.937 620.981,495.905 622.003,496.873 623.024,497.84 624.046,498.806 625.068,499.771 626.089,500.736 627.111,501.7 628.133,502.663 629.155,503.625 630.176,504.587 631.198,505.548 632.22,506.508 633.241,507.468 634.263,508.427 635.285,509.385 636.306,510.342 637.328,511.299 638.35,512.255 639.371,513.21 640.393,514.165 641.415,515.119 642.437,516.072 643.458,517.024 644.48,517.976 645.502,518.927 646.523,519.877 647.545,520.827 648.567,521.775 649.588,522.723 650.61,523.671 651.632,524.618 652.654,525.564 653.675,526.509 654.697,527.453 655.719,528.397 656.74,529.34 657.762,530.283 658.784,531.225 659.805,532.166 660.827,533.106 661.849,534.046 662.871,534.985 663.892,535.923 664.914,536.86 665.936,537.797 666.957,538.733 667.979,539.669 669.001,540.604 670.022,541.538 671.044,542.471 672.066,543.404 673.087,544.336 674.109,545.267 675.131,546.198 676.153,547.127 677.174,548.057 678.196,548.985 679.218,549.913 680.239,550.84 681.261,551.766 682.283,552.692 683.304,553.617 684.326,554.542 685.348,555.465 686.37,556.388 687.391,557.31 688.413,558.232 689.435,559.153 690.456,560.073 691.478,560.993 692.5,561.912 693.521,562.83 694.543,563.747 695.565,564.664 696.586,565.58 697.608,566.496 698.63,567.41 699.652,568.325 700.673,569.238 701.695,570.151 702.717,571.063 703.738,571.974 704.76,572.885 705.782,573.795 706.803,574.704 707.825,575.613 708.847,576.521 709.869,577.428 710.89,578.335 711.912,579.241 712.934,580.146 713.955,581.051 714.977,581.955 715.999,582.858 717.02,583.761 718.042,584.663 719.064,585.564 720.085,586.465 721.107,587.365 722.129,588.264 723.151,589.163 724.172,590.061 725.194,590.958 726.216,591.855 727.237,592.751 728.259,593.646 729.281,594.541 730.302,595.435 731.324,596.328 732.346,597.221 733.368,598.113 734.389,599.004 735.411,599.895 736.433,600.785 737.454,601.674 738.476,602.563 739.498,603.451 740.519,604.339 741.541,605.226 742.563,606.112 743.585,606.997 744.606,607.882 745.628,608.766 746.65,609.65 747.671,610.533 748.693,611.415 749.715,612.296 750.736,613.177 751.758,614.058 752.78,614.937 753.801,615.816 754.823,616.695 755.845,617.572 756.867,618.449 757.888,619.326 758.91,620.202 759.932,621.077 760.953,621.951 761.975,622.825 762.997,623.698 764.018,624.571 765.04,625.443 766.062,626.314 767.084,627.185 768.105,628.055 769.127,628.924 770.149,629.793 771.17,630.661 772.192,631.528 773.214,632.395 774.235,633.261 775.257,634.127 776.279,634.992 777.3,635.856 778.322,636.72 779.344,637.583 780.366,638.445 781.387,639.307 782.409,640.168 783.431,641.028 784.452,641.888 785.474,642.747 786.496,643.606 787.517,644.464 788.539,645.321 789.561,646.178 790.583,647.034 791.604,647.89 792.626,648.745 793.648,649.599 794.669,650.452 795.691,651.305 796.713,652.158 797.734,653.01 798.756,653.861 799.778,654.711 800.799,655.561 801.821,656.41 802.843,657.259 803.865,658.107 804.886,658.954 805.908,659.801 806.93,660.647 807.951,661.493 808.973,662.338 809.995,663.182 811.016,664.026 812.038,664.869 813.06,665.711 814.082,666.553 815.103,667.395 816.125,668.235 817.147,669.075 818.168,669.915 819.19,670.753 820.212,671.592 821.233,672.429 822.255,673.266 823.277,674.103 824.298,674.938 825.32,675.774 826.342,676.608 827.364,677.442 828.385,678.275 829.407,679.108 830.429,679.94 831.45,680.772 832.472,681.603 833.494,682.433 834.515,683.263 835.537,684.092 836.559,684.921 837.581,685.748 838.602,686.576 839.624,687.403 840.646,688.229 841.667,689.054 842.689,689.879 843.711,690.704 844.732,691.527 845.754,692.35 846.776,693.173 847.798,693.995 848.819,694.816 849.841,695.637 850.863,696.457 851.884,697.277 852.906,698.096 853.928,698.914 854.949,699.732 855.971,700.549 856.993,701.366 858.014,702.182 859.036,702.998 860.058,703.812 861.08,704.627 862.101,705.44 863.123,706.253 864.145,707.066 865.166,707.878 866.188,708.689 867.21,709.5 868.231,710.31 869.253,711.12 870.275,711.929 871.297,712.737 872.318,713.545 873.34,714.352 874.362,715.159 875.383,715.965 876.405,716.771 877.427,717.576 878.448,718.38 879.47,719.184 880.492,719.987 881.513,720.79 882.535,721.592 883.557,722.393 884.579,723.194 885.6,723.995 886.622,724.794 887.644,725.594 888.665,726.392 889.687,727.19 890.709,727.988 891.73,728.785 892.752,729.581 893.774,730.377 894.796,731.172 895.817,731.967 896.839,732.761 897.861,733.554 898.882,734.347 899.904,735.139 900.926,735.931 901.947,736.722 902.969,737.513 903.991,738.303 905.012,739.093 906.034,739.882 907.056,740.67 908.078,741.458 909.099,742.245 910.121,743.032 911.143,743.818 912.164,744.604 913.186,745.389 914.208,746.173 915.229,746.957 916.251,747.74 917.273,748.523 918.295,749.305 919.316,750.087 920.338,750.868 921.36,751.649 922.381,752.429 923.403,753.208 924.425,753.987 925.446,754.765 926.468,755.543 927.49,756.32 928.512,757.097 929.533,757.873 930.555,758.649 931.577,759.424 932.598,760.198 933.62,760.972 934.642,761.745 935.663,762.518 936.685,763.29 937.707,764.062 938.728,764.833 939.75,765.604 940.772,766.374 941.794,767.143 942.815,767.912 943.837,768.681 944.859,769.449 945.88,770.216 946.902,770.983 947.924,771.749 948.945,772.515 949.967,773.28 950.989,774.045 952.011,774.809 953.032,775.572 954.054,776.335 955.076,777.098 956.097,777.86 957.119,778.621 958.141,779.382 959.162,780.142 960.184,780.902 961.206,781.661 962.227,782.42 963.249,783.178 964.271,783.935 965.293,784.692 966.314,785.449 967.336,786.205 968.358,786.96 969.379,787.715 970.401,788.47 971.423,789.224 972.444,789.977 973.466,790.73 974.488,791.482 975.51,792.234 976.531,792.985 977.553,793.736 978.575,794.486 979.596,795.235 980.618,795.985 981.64,796.733 982.661,797.481 983.683,798.229 984.705,798.976 985.726,799.722 986.748,800.468 987.77,801.213 988.792,801.958 989.813,802.703 990.835,803.446 991.857,804.19 992.878,804.933 993.9,805.675 994.922,806.417 995.943,807.158 996.965,807.898 997.987,808.639 999.009,809.378 1000.03,810.117 1001.05,810.856 1002.07,811.594 1003.1,812.332 1004.12,813.069 1005.14,813.805 1006.16,814.541 1007.18,815.277 1008.2,816.012 1009.23,816.746 1010.25,817.48 1011.27,818.214 1012.29,818.947 1013.31,819.679 1014.33,820.411 1015.36,821.142 1016.38,821.873 1017.4,822.604 1018.42,823.333 1019.44,824.063 1020.46,824.792 1021.49,825.52 1022.51,826.248 1023.53,826.975 1024.55,827.702 1025.57,828.428 1026.59,829.154 1027.62,829.879 1028.64,830.604 1029.66,831.328 1030.68,832.052 1031.7,832.775 1032.72,833.498 1033.75,834.22 1034.77,834.942 1035.79,835.663 1036.81,836.384 1037.83,837.104 1038.85,837.824 1039.88,838.543 1040.9,839.262 1041.92,839.98 1042.94,840.698 1043.96,841.415 1044.98,842.132 1046.01,842.848 1047.03,843.563 1048.05,844.279 1049.07,844.993 1050.09,845.708 1051.12,846.421 1052.14,847.135 1053.16,847.847 1054.18,848.56 1055.2,849.271 1056.22,849.983 1057.25,850.693 1058.27,851.404 1059.29,852.113 1060.31,852.823 1061.33,853.531 1062.35,854.24 1063.38,854.947 1064.4,855.655 1065.42,856.361 1066.44,857.068 1067.46,857.774 1068.48,858.479 1069.51,859.184 1070.53,859.888 1071.55,860.592 1072.57,861.295 1073.59,861.998 1074.61,862.701 1075.64,863.403 1076.66,864.104 1077.68,864.805 1078.7,865.505 1079.72,866.205 1080.74,866.905 1081.77,867.604 1082.79,868.302 1083.81,869.001 1084.83,869.698 1085.85,870.395 1086.87,871.092 1087.9,871.788 1088.92,872.483 1089.94,873.179 1090.96,873.873 1091.98,874.567 1093,875.261 1094.03,875.954 1095.05,876.647 1096.07,877.339 1097.09,878.031 1098.11,878.723 1099.13,879.413 1100.16,880.104 1101.18,880.794 1102.2,881.483 1103.22,882.172 1104.24,882.86 1105.26,883.548 1106.29,884.236 1107.31,884.923 1108.33,885.61 1109.35,886.296 1110.37,886.981 1111.4,887.666 1112.42,888.351 1113.44,889.035 1114.46,889.719 1115.48,890.402 1116.5,891.085 1117.53,891.767 1118.55,892.449 1119.57,893.131 1120.59,893.812 1121.61,894.492 1122.63,895.172 1123.66,895.852 1124.68,896.531 1125.7,897.209 1126.72,897.887 1127.74,898.565 1128.76,899.242 1129.79,899.919 1130.81,900.595 1131.83,901.271 1132.85,901.946 1133.87,902.621 1134.89,903.296 1135.92,903.969 1136.94,904.643 1137.96,905.316 1138.98,905.989 1140,906.661 1141.02,907.332 1142.05,908.003 1143.07,908.674 1144.09,909.344 1145.11,910.014 1146.13,910.684 1147.15,911.352 1148.18,912.021 1149.2,912.689 1150.22,913.356 1151.24,914.023 1152.26,914.69 1153.28,915.356 1154.31,916.022 1155.33,916.687 1156.35,917.352 1157.37,918.016 1158.39,918.68 1159.41,919.344 1160.44,920.006 1161.46,920.669 1162.48,921.331 1163.5,921.993 1164.52,922.654 1165.55,923.315 1166.57,923.975 1167.59,924.635 1168.61,925.294 1169.63,925.953 1170.65,926.611 1171.68,927.269 1172.7,927.927 1173.72,928.584 1174.74,929.241 1175.76,929.897 1176.78,930.553 1177.81,931.208 1178.83,931.863 1179.85,932.517 1180.87,933.171 1181.89,933.825 1182.91,934.478 1183.94,935.131 1184.96,935.783 1185.98,936.435 1187,937.086 1188.02,937.737 1189.04,938.388 1190.07,939.038 1191.09,939.687 1192.11,940.336 1193.13,940.985 1194.15,941.633 1195.17,942.281 1196.2,942.928 1197.22,943.575 1198.24,944.222 1199.26,944.868 1200.28,945.513 1201.3,946.159 1202.33,946.803 1203.35,947.448 1204.37,948.092 1205.39,948.735 1206.41,949.378 1207.43,950.021 1208.46,950.663 1209.48,951.304 1210.5,951.946 1211.52,952.587 1212.54,953.227 1213.56,953.867 1214.59,954.506 1215.61,955.146 1216.63,955.784 1217.65,956.422 1218.67,957.06 1219.69,957.698 1220.72,958.335 1221.74,958.971 1222.76,959.607 1223.78,960.243 1224.8,960.878 1225.83,961.513 1226.85,962.147 1227.87,962.781 1228.89,963.415 1229.91,964.048 1230.93,964.681 1231.96,965.313 1232.98,965.945 1234,966.576 1235.02,967.207 1236.04,967.838 1237.06,968.468 1238.09,969.097 1239.11,969.727 1240.13,970.355 1241.15,970.984 1242.17,971.612 1243.19,972.239 1244.22,972.867 1245.24,973.493 1246.26,974.12 1247.28,974.746 1248.3,975.371 1249.32,975.996 1250.35,976.621 1251.37,977.245 1252.39,977.869 1253.41,978.492 1254.43,979.115 1255.45,979.738 1256.48,980.36 1257.5,980.982 1258.52,981.603 1259.54,982.224 1260.56,982.844 1261.58,983.464 1262.61,984.084 1263.63,984.703 1264.65,985.322 1265.67,985.94 1266.69,986.558 1267.71,987.176 1268.74,987.793 1269.76,988.41 1270.78,989.026 1271.8,989.642 1272.82,990.257 1273.84,990.873 1274.87,991.487 1275.89,992.102 1276.91,992.715 1277.93,993.329 1278.95,993.942 1279.97,994.555 1281,995.167 1282.02,995.779 1283.04,996.39 1284.06,997.001 1285.08,997.612 1286.11,998.222 1287.13,998.832 1288.15,999.441 1289.17,1000.05 1290.19,1000.66 1291.21,1001.27 1292.24,1001.87 1293.26,1002.48 1294.28,1003.09 1295.3,1003.7 1296.32,1004.3 1297.34,1004.91 1298.37,1005.51 1299.39,1006.12 1300.41,1006.72 1301.43,1007.33 1302.45,1007.93 1303.47,1008.53 1304.5,1009.14 1305.52,1009.74 1306.54,1010.34 1307.56,1010.94 1308.58,1011.54 1309.6,1012.14 1310.63,1012.75 1311.65,1013.35 1312.67,1013.94 1313.69,1014.54 1314.71,1015.14 1315.73,1015.74 1316.76,1016.34 1317.78,1016.94 1318.8,1017.53 1319.82,1018.13 1320.84,1018.73 1321.86,1019.32 1322.89,1019.92 1323.91,1020.52 1324.93,1021.11 1325.95,1021.71 1326.97,1022.3 1327.99,1022.89 1329.02,1023.49 1330.04,1024.08 1331.06,1024.67 1332.08,1025.26 1333.1,1025.86 1334.12,1026.45 1335.15,1027.04 1336.17,1027.63 1337.19,1028.22 1338.21,1028.81 1339.23,1029.4 1340.26,1029.99 1341.28,1030.58 1342.3,1031.17 1343.32,1031.75 1344.34,1032.34 1345.36,1032.93 1346.39,1033.51 1347.41,1034.1 1348.43,1034.69 1349.45,1035.27 1350.47,1035.86 1351.49,1036.44 1352.52,1037.03 1353.54,1037.61 1354.56,1038.2 1355.58,1038.78 1356.6,1039.36 1357.62,1039.94 1358.65,1040.53 1359.67,1041.11 1360.69,1041.69 1361.71,1042.27 1362.73,1042.85 1363.75,1043.43 1364.78,1044.01 1365.8,1044.59 1366.82,1045.17 1367.84,1045.75 1368.86,1046.33 1369.88,1046.9 1370.91,1047.48 1371.93,1048.06 1372.95,1048.64 1373.97,1049.21 1374.99,1049.79 1376.01,1050.36 1377.04,1050.94 1378.06,1051.51 1379.08,1052.09 1380.1,1052.66 1381.12,1053.24 1382.14,1053.81 1383.17,1054.38 1384.19,1054.96 1385.21,1055.53 1386.23,1056.1 1387.25,1056.67 1388.27,1057.24 1389.3,1057.81 1390.32,1058.38 1391.34,1058.95 1392.36,1059.52 1393.38,1060.09 1394.4,1060.66 1395.43,1061.23 1396.45,1061.8 1397.47,1062.37 1398.49,1062.93 1399.51,1063.5 1400.54,1064.07 1401.56,1064.64 1402.58,1065.2 1403.6,1065.77 1404.62,1066.33 1405.64,1066.9 1406.67,1067.46 1407.69,1068.03 1408.71,1068.59 1409.73,1069.15 1410.75,1069.72 1411.77,1070.28 1412.8,1070.84 1413.82,1071.4 1414.84,1071.96 1415.86,1072.53 1416.88,1073.09 1417.9,1073.65 1418.93,1074.21 1419.95,1074.77 1420.97,1075.33 1421.99,1075.89 1423.01,1076.44 1424.03,1077 1425.06,1077.56 1426.08,1078.12 1427.1,1078.67 1428.12,1079.23 1429.14,1079.79 1430.16,1080.34 1431.19,1080.9 1432.21,1081.46 1433.23,1082.01 1434.25,1082.57 1435.27,1083.12 1436.29,1083.67 1437.32,1084.23 1438.34,1084.78 1439.36,1085.33 1440.38,1085.89 1441.4,1086.44 1442.42,1086.99 1443.45,1087.54 1444.47,1088.09 1445.49,1088.64 1446.51,1089.19 1447.53,1089.74 1448.55,1090.29 1449.58,1090.84 1450.6,1091.39 1451.62,1091.94 1452.64,1092.49 1453.66,1093.04 1454.69,1093.58 1455.71,1094.13 1456.73,1094.68 1457.75,1095.22 1458.77,1095.77 1459.79,1096.32 1460.82,1096.86 1461.84,1097.41 1462.86,1097.95 1463.88,1098.5 1464.9,1099.04 1465.92,1099.58 1466.95,1100.13 1467.97,1100.67 1468.99,1101.21 1470.01,1101.76 1471.03,1102.3 1472.05,1102.84 1473.08,1103.38 1474.1,1103.92 1475.12,1104.46 1476.14,1105 1477.16,1105.54 1478.18,1106.08 1479.21,1106.62 1480.23,1107.16 1481.25,1107.7 1482.27,1108.24 1483.29,1108.77 1484.31,1109.31 1485.34,1109.85 1486.36,1110.38 1487.38,1110.92 1488.4,1111.46 1489.42,1111.99 1490.44,1112.53 1491.47,1113.06 1492.49,1113.6 1493.51,1114.13 1494.53,1114.67 1495.55,1115.2 1496.57,1115.73 1497.6,1116.27 1498.62,1116.8 1499.64,1117.33 1500.66,1117.86 1501.68,1118.39 1502.7,1118.93 1503.73,1119.46 1504.75,1119.99 1505.77,1120.52 1506.79,1121.05 1507.81,1121.58 1508.83,1122.11 1509.86,1122.63 1510.88,1123.16 1511.9,1123.69 1512.92,1124.22 1513.94,1124.75 1514.97,1125.27 1515.99,1125.8 1517.01,1126.33 1518.03,1126.85 1519.05,1127.38 1520.07,1127.9 1521.1,1128.43 1522.12,1128.95 1523.14,1129.48 1524.16,1130 1525.18,1130.53 1526.2,1131.05 1527.23,1131.57 1528.25,1132.1 1529.27,1132.62 1530.29,1133.14 1531.31,1133.66 1532.33,1134.18 1533.36,1134.71 1534.38,1135.23 1535.4,1135.75 1536.42,1136.27 1537.44,1136.79 1538.46,1137.31 1539.49,1137.83 1540.51,1138.34 1541.53,1138.86 1542.55,1139.38 1543.57,1139.9 1544.59,1140.42 1545.62,1140.93 1546.64,1141.45 1547.66,1141.97 1548.68,1142.48 1549.7,1143 1550.72,1143.52 1551.75,1144.03 1552.77,1144.55 1553.79,1145.06 1554.81,1145.57 1555.83,1146.09 1556.85,1146.6 1557.88,1147.11 1558.9,1147.63 1559.92,1148.14 1560.94,1148.65 1561.96,1149.16 1562.98,1149.68 1564.01,1150.19 1565.03,1150.7 1566.05,1151.21 1567.07,1151.72 1568.09,1152.23 1569.11,1152.74 1570.14,1153.25 1571.16,1153.76 1572.18,1154.27 1573.2,1154.78 1574.22,1155.28 1575.25,1155.79 1576.27,1156.3 1577.29,1156.81 1578.31,1157.31 1579.33,1157.82 1580.35,1158.33 1581.38,1158.83 1582.4,1159.34 1583.42,1159.84 1584.44,1160.35 1585.46,1160.85 1586.48,1161.36 1587.51,1161.86 1588.53,1162.36 1589.55,1162.87 1590.57,1163.37 1591.59,1163.87 1592.61,1164.37 1593.64,1164.88 1594.66,1165.38 1595.68,1165.88 1596.7,1166.38 1597.72,1166.88 1598.74,1167.38 1599.77,1167.88 1600.79,1168.38 1601.81,1168.88 1602.83,1169.38 1603.85,1169.88 1604.87,1170.38 1605.9,1170.88 1606.92,1171.37 1607.94,1171.87 1608.96,1172.37 1609.98,1172.87 1611,1173.36 1612.03,1173.86 1613.05,1174.36 1614.07,1174.85 1615.09,1175.35 1616.11,1175.84 1617.13,1176.34 1618.16,1176.83 1619.18,1177.33 1620.2,1177.82 1621.22,1178.31 1622.24,1178.81 1623.26,1179.3 1624.29,1179.79 1625.31,1180.29 1626.33,1180.78 1627.35,1181.27 1628.37,1181.76 1629.4,1182.25 1630.42,1182.74 1631.44,1183.23 1632.46,1183.72 1633.48,1184.21 1634.5,1184.7 1635.53,1185.19 1636.55,1185.68 1637.57,1186.17 1638.59,1186.66 1639.61,1187.15 1640.63,1187.63 1641.66,1188.12 1642.68,1188.61 1643.7,1189.1 1644.72,1189.58 1645.74,1190.07 1646.76,1190.55 1647.79,1191.04 1648.81,1191.53 1649.83,1192.01 1650.85,1192.49 1651.87,1192.98 1652.89,1193.46 1653.92,1193.95 1654.94,1194.43 1655.96,1194.91 1656.98,1195.4 1658,1195.88 1659.02,1196.36 1660.05,1196.84 1661.07,1197.33 1662.09,1197.81 1663.11,1198.29 1664.13,1198.77 1665.15,1199.25 1666.18,1199.73 1667.2,1200.21 1668.22,1200.69 1669.24,1201.17 1670.26,1201.65 1671.28,1202.13 1672.31,1202.61 1673.33,1203.08 1674.35,1203.56 1675.37,1204.04 1676.39,1204.52 1677.41,1204.99 1678.44,1205.47 1679.46,1205.95 1680.48,1206.42 1681.5,1206.9 1682.52,1207.37 1683.54,1207.85 1684.57,1208.32 1685.59,1208.8 1686.61,1209.27 1687.63,1209.75 1688.65,1210.22 1689.68,1210.69 1690.7,1211.17 1691.72,1211.64 1692.74,1212.11 1693.76,1212.58 1694.78,1213.06 1695.81,1213.53 1696.83,1214 1697.85,1214.47 1698.87,1214.94 1699.89,1215.41 1700.91,1215.88 1701.94,1216.35 1702.96,1216.82 1703.98,1217.29 1705,1217.76 1706.02,1218.23 1707.04,1218.7 1708.07,1219.17 1709.09,1219.63 1710.11,1220.1 1711.13,1220.57 1712.15,1221.04 1713.17,1221.5 1714.2,1221.97 1715.22,1222.44 1716.24,1222.9 1717.26,1223.37 1718.28,1223.83 1719.3,1224.3 1720.33,1224.76 1721.35,1225.23 1722.37,1225.69 1723.39,1226.15 1724.41,1226.62 1725.43,1227.08 1726.46,1227.54 1727.48,1228.01 1728.5,1228.47 1729.52,1228.93 1730.54,1229.39 1731.56,1229.86 1732.59,1230.32 1733.61,1230.78 1734.63,1231.24 1735.65,1231.7 1736.67,1232.16 1737.69,1232.62 1738.72,1233.08 1739.74,1233.54 1740.76,1234 1741.78,1234.46 1742.8,1234.92 1743.83,1235.37 1744.85,1235.83 1745.87,1236.29 1746.89,1236.75 1747.91,1237.2 1748.93,1237.66 1749.96,1238.12 1750.98,1238.57 1752,1239.03 1753.02,1239.48 1754.04,1239.94 1755.06,1240.4 1756.09,1240.85 1757.11,1241.31 1758.13,1241.76 1759.15,1242.21 1760.17,1242.67 1761.19,1243.12 1762.22,1243.57 1763.24,1244.03 1764.26,1244.48 1765.28,1244.93 1766.3,1245.38 1767.32,1245.84 1768.35,1246.29 1769.37,1246.74 1770.39,1247.19 1771.41,1247.64 1772.43,1248.09 1773.45,1248.54 1774.48,1248.99 1775.5,1249.44 1776.52,1249.89 1777.54,1250.34 1778.56,1250.79 1779.58,1251.24 1780.61,1251.69 1781.63,1252.13 1782.65,1252.58 1783.67,1253.03 1784.69,1253.48 1785.71,1253.92 1786.74,1254.37 1787.76,1254.82 1788.78,1255.26 1789.8,1255.71 1790.82,1256.15 1791.84,1256.6 1792.87,1257.04 1793.89,1257.49 1794.91,1257.93 1795.93,1258.38 1796.95,1258.82 1797.97,1259.26 1799,1259.71 1800.02,1260.15 1801.04,1260.59 1802.06,1261.04 1803.08,1261.48 1804.11,1261.92 1805.13,1262.36 1806.15,1262.8 1807.17,1263.25 1808.19,1263.69 1809.21,1264.13 1810.24,1264.57 1811.26,1265.01 1812.28,1265.45 1813.3,1265.89 1814.32,1266.33 1815.34,1266.77 1816.37,1267.2 1817.39,1267.64 1818.41,1268.08 1819.43,1268.52 1820.45,1268.96 1821.47,1269.4 1822.5,1269.83 1823.52,1270.27 1824.54,1270.71 1825.56,1271.14 1826.58,1271.58 1827.6,1272.02 1828.63,1272.45 1829.65,1272.89 1830.67,1273.32 1831.69,1273.76 1832.71,1274.19 1833.73,1274.63 1834.76,1275.06 1835.78,1275.49 1836.8,1275.93 1837.82,1276.36 1838.84,1276.79 1839.86,1277.23 1840.89,1277.66 1841.91,1278.09 1842.93,1278.52 1843.95,1278.95 1844.97,1279.39 1845.99,1279.82 1847.02,1280.25 1848.04,1280.68 1849.06,1281.11 1850.08,1281.54 1851.1,1281.97 1852.12,1282.4 1853.15,1282.83 1854.17,1283.26 1855.19,1283.69 1856.21,1284.12 1857.23,1284.54 1858.25,1284.97 1859.28,1285.4 1860.3,1285.83 1861.32,1286.26 1862.34,1286.68 1863.36,1287.11 1864.39,1287.54 1865.41,1287.96 1866.43,1288.39 1867.45,1288.81 1868.47,1289.24 1869.49,1289.67 1870.52,1290.09 1871.54,1290.52 1872.56,1290.94 1873.58,1291.36 1874.6,1291.79 1875.62,1292.21 1876.65,1292.64 1877.67,1293.06 1878.69,1293.48 1879.71,1293.91 1880.73,1294.33 1881.75,1294.75 1882.78,1295.17 1883.8,1295.59 1884.82,1296.02 1885.84,1296.44 1886.86,1296.86 1887.88,1297.28 1888.91,1297.7 1889.93,1298.12 1890.95,1298.54 1891.97,1298.96 1892.99,1299.38 1894.01,1299.8 1895.04,1300.22 1896.06,1300.64 1897.08,1301.05 1898.1,1301.47 1899.12,1301.89 1900.14,1302.31 1901.17,1302.73 1902.19,1303.14 1903.21,1303.56 1904.23,1303.98 1905.25,1304.39 1906.27,1304.81 1907.3,1305.23 1908.32,1305.64 1909.34,1306.06 1910.36,1306.47 1911.38,1306.89 1912.4,1307.3 1913.43,1307.72 1914.45,1308.13 1915.47,1308.55 1916.49,1308.96 1917.51,1309.37 1918.54,1309.79 1919.56,1310.2 1920.58,1310.61 1921.6,1311.03 1922.62,1311.44 1923.64,1311.85 1924.67,1312.26 1925.69,1312.67 1926.71,1313.09 1927.73,1313.5 1928.75,1313.91 1929.77,1314.32 1930.8,1314.73 1931.82,1315.14 1932.84,1315.55 1933.86,1315.96 1934.88,1316.37 1935.9,1316.78 1936.93,1317.19 1937.95,1317.59 1938.97,1318 1939.99,1318.41 1941.01,1318.82 1942.03,1319.23 1943.06,1319.63 1944.08,1320.04 1945.1,1320.45 1946.12,1320.86 1947.14,1321.26 1948.16,1321.67 1949.19,1322.07 1950.21,1322.48 1951.23,1322.89 1952.25,1323.29 1953.27,1323.7 1954.29,1324.1 1955.32,1324.51 1956.34,1324.91 1957.36,1325.32 1958.38,1325.72 1959.4,1326.12 1960.42,1326.53 1961.45,1326.93 1962.47,1327.33 1963.49,1327.74 1964.51,1328.14 1965.53,1328.54 1966.55,1328.94 1967.58,1329.34 1968.6,1329.75 1969.62,1330.15 1970.64,1330.55 1971.66,1330.95 1972.68,1331.35 1973.71,1331.75 1974.73,1332.15 1975.75,1332.55 1976.77,1332.95 1977.79,1333.35 1978.82,1333.75 1979.84,1334.15 1980.86,1334.55 1981.88,1334.94 1982.9,1335.34 1983.92,1335.74 1984.95,1336.14 1985.97,1336.54 1986.99,1336.93 1988.01,1337.33 1989.03,1337.73 1990.05,1338.12 1991.08,1338.52 1992.1,1338.92 1993.12,1339.31 1994.14,1339.71 1995.16,1340.1 1996.18,1340.5 1997.21,1340.89 1998.23,1341.29 1999.25,1341.68 2000.27,1342.08 2001.29,1342.47 2002.31,1342.87 2003.34,1343.26 2004.36,1343.65 2005.38,1344.05 2006.4,1344.44 2007.42,1344.83 2008.44,1345.22 2009.47,1345.62 2010.49,1346.01 2011.51,1346.4 2012.53,1346.79 2013.55,1347.18 2014.57,1347.57 2015.6,1347.97 2016.62,1348.36 2017.64,1348.75 2018.66,1349.14 2019.68,1349.53 2020.7,1349.92 2021.73,1350.31 2022.75,1350.7 2023.77,1351.08 2024.79,1351.47 2025.81,1351.86 2026.83,1352.25 2027.86,1352.64 2028.88,1353.03 2029.9,1353.41 2030.92,1353.8 2031.94,1354.19 2032.97,1354.58 2033.99,1354.96 2035.01,1355.35 2036.03,1355.74 2037.05,1356.12 2038.07,1356.51 2039.1,1356.89 2040.12,1357.28 2041.14,1357.66 2042.16,1358.05 2043.18,1358.43 2044.2,1358.82 2045.23,1359.2 2046.25,1359.59 2047.27,1359.97 2048.29,1360.35 2049.31,1360.74 2050.33,1361.12 2051.36,1361.5 2052.38,1361.89 2053.4,1362.27 2054.42,1362.65 2055.44,1363.03 2056.46,1363.42 2057.49,1363.8 2058.51,1364.18 2059.53,1364.56 2060.55,1364.94 2061.57,1365.32 2062.59,1365.7 2063.62,1366.08 2064.64,1366.46 2065.66,1366.84 2066.68,1367.22 2067.7,1367.6 2068.72,1367.98 2069.75,1368.36 2070.77,1368.74 2071.79,1369.12 2072.81,1369.5 2073.83,1369.88 2074.85,1370.25 2075.88,1370.63 2076.9,1371.01 2077.92,1371.39 2078.94,1371.76 2079.96,1372.14 2080.98,1372.52 2082.01,1372.89 2083.03,1373.27 2084.05,1373.65 2085.07,1374.02 2086.09,1374.4 2087.11,1374.77 2088.14,1375.15 2089.16,1375.52 2090.18,1375.9 2091.2,1376.27 2092.22,1376.65 2093.25,1377.02 2094.27,1377.39 2095.29,1377.77 2096.31,1378.14 2097.33,1378.51 2098.35,1378.89 2099.38,1379.26 2100.4,1379.63 2101.42,1380.01 2102.44,1380.38 2103.46,1380.75 2104.48,1381.12 2105.51,1381.49 2106.53,1381.86 2107.55,1382.23 2108.57,1382.61 2109.59,1382.98 2110.61,1383.35 2111.64,1383.72 2112.66,1384.09 2113.68,1384.46 2114.7,1384.83 2115.72,1385.2 2116.74,1385.56 2117.77,1385.93 2118.79,1386.3 2119.81,1386.67 2120.83,1387.04 2121.85,1387.41 2122.87,1387.78 2123.9,1388.14 2124.92,1388.51 2125.94,1388.88 2126.96,1389.25 2127.98,1389.61 2129,1389.98 2130.03,1390.35 2131.05,1390.71 2132.07,1391.08 2133.09,1391.44 2134.11,1391.81 2135.13,1392.17 2136.16,1392.54 2137.18,1392.9 2138.2,1393.27 2139.22,1393.63 2140.24,1394 2141.26,1394.36 2142.29,1394.73 2143.31,1395.09 2144.33,1395.45 2145.35,1395.82 2146.37,1396.18 2147.39,1396.54 2148.42,1396.91 2149.44,1397.27 2150.46,1397.63 2151.48,1397.99 2152.5,1398.35 2153.53,1398.72 2154.55,1399.08 2155.57,1399.44 2156.59,1399.8 2157.61,1400.16 2158.63,1400.52 2159.66,1400.88 2160.68,1401.24 2161.7,1401.6 2162.72,1401.96 2163.74,1402.32 2164.76,1402.68 2165.79,1403.04 2166.81,1403.4 2167.83,1403.76 2168.85,1404.12 2169.87,1404.47 2170.89,1404.83 2171.92,1405.19 2172.94,1405.55 2173.96,1405.91 2174.98,1406.26 2176,1406.62 2177.02,1406.98 2178.05,1407.33 2179.07,1407.69 2180.09,1408.05 2181.11,1408.4 2182.13,1408.76 2183.15,1409.12 2184.18,1409.47 2185.2,1409.83 2186.22,1410.18 2187.24,1410.54 2188.26,1410.89 2189.28,1411.25 2190.31,1411.6 2191.33,1411.95 2192.35,1412.31 2193.37,1412.66 2194.39,1413.02 2195.41,1413.37 2196.44,1413.72 2197.46,1414.08 2198.48,1414.43 2199.5,1414.78 2200.52,1415.13 2201.54,1415.49 2202.57,1415.84 2203.59,1416.19 2204.61,1416.54 2205.63,1416.89 2206.65,1417.24 2207.68,1417.59 2208.7,1417.94 2209.72,1418.3 2210.74,1418.65 2211.76,1419 2212.78,1419.35 2213.81,1419.7 2214.83,1420.05 2215.85,1420.39 2216.87,1420.74 2217.89,1421.09 2218.91,1421.44 2219.94,1421.79 2220.96,1422.14 2221.98,1422.49 2223,1422.84 2224.02,1423.18 2225.04,1423.53 2226.07,1423.88 2227.09,1424.23 2228.11,1424.57 2229.13,1424.92 2230.15,1425.27 2231.17,1425.61 2232.2,1425.96 2233.22,1426.3 2234.24,1426.65 2235.26,1427 2236.28,1427.34 2237.3,1427.69 2238.33,1428.03 2239.35,1428.38 2240.37,1428.72 2241.39,1429.07 2242.41,1429.41 2243.43,1429.76 2244.46,1430.1 2245.48,1430.44 2246.5,1430.79 2247.52,1431.13 2248.54,1431.47 2249.56,1431.82 2250.59,1432.16 2251.61,1432.5 2252.63,1432.84 2253.65,1433.19 2254.67,1433.53 2255.69,1433.87 2256.72,1434.21 2257.74,1434.55 2258.76,1434.89 2259.78,1435.24 2260.8,1435.58 2261.82,1435.92 2262.85,1436.26 2263.87,1436.6 2264.89,1436.94 2265.91,1437.28 2266.93,1437.62 2267.96,1437.96 2268.98,1438.3 2270,1438.64 2271.02,1438.97 2272.04,1439.31 2273.06,1439.65 2274.09,1439.99 2275.11,1440.33 2276.13,1440.67 2277.15,1441.01 2278.17,1441.34 2279.19,1441.68 2280.22,1442.02 2281.24,1442.35 2282.26,1442.69 2283.28,1443.03 2284.3,1443.36 2285.32,1443.7 2286.35,1444.04 2287.37,1444.37 2288.39,1444.71 2289.41,1445.04 2290.43,1445.38 2291.45,1445.72 "/>
<path clip-path="url(#clip410)" d="M2011.53 198.898 L2280.56 198.898 L2280.56 95.2176 L2011.53 95.2176  Z" fill="#ffffff" fill-rule="evenodd" fill-opacity="1"/>
<polyline clip-path="url(#clip410)" style="stroke:#000000; stroke-linecap:round; stroke-linejoin:round; stroke-width:4; stroke-opacity:1; fill:none" points="2011.53,198.898 2280.56,198.898 2280.56,95.2176 2011.53,95.2176 2011.53,198.898 "/>
<polyline clip-path="url(#clip410)" style="stroke:#009af9; stroke-linecap:round; stroke-linejoin:round; stroke-width:4; stroke-opacity:1; fill:none" points="2035.59,147.058 2179.99,147.058 "/>
<path clip-path="url(#clip410)" d="M2217.9 166.745 Q2216.1 171.375 2214.38 172.787 Q2212.67 174.199 2209.8 174.199 L2206.4 174.199 L2206.4 170.634 L2208.9 170.634 Q2210.66 170.634 2211.63 169.8 Q2212.6 168.967 2213.78 165.865 L2214.55 163.921 L2204.06 138.412 L2208.57 138.412 L2216.67 158.689 L2224.78 138.412 L2229.29 138.412 L2217.9 166.745 Z" fill="#000000" fill-rule="nonzero" fill-opacity="1" /><path clip-path="url(#clip410)" d="M2236.58 160.402 L2244.22 160.402 L2244.22 134.037 L2235.91 135.703 L2235.91 131.444 L2244.17 129.778 L2248.85 129.778 L2248.85 160.402 L2256.49 160.402 L2256.49 164.338 L2236.58 164.338 L2236.58 160.402 Z" fill="#000000" fill-rule="nonzero" fill-opacity="1" /></svg>
