<?xml version="1.0" encoding="utf-8"?>
<svg xmlns="http://www.w3.org/2000/svg" xmlns:xlink="http://www.w3.org/1999/xlink" width="600" height="400" viewBox="0 0 2400 1600">
<defs>
  <clipPath id="clip920">
    <rect x="0" y="0" width="2400" height="1600"/>
  </clipPath>
</defs>
<path clip-path="url(#clip920)" d="M0 1600 L2400 1600 L2400 0 L0 0  Z" fill="#ffffff" fill-rule="evenodd" fill-opacity="1"/>
<defs>
  <clipPath id="clip921">
    <rect x="480" y="0" width="1681" height="1600"/>
  </clipPath>
</defs>
<path clip-path="url(#clip920)" d="M209.029 1486.45 L2352.76 1486.45 L2352.76 47.2441 L209.029 47.2441  Z" fill="#ffffff" fill-rule="evenodd" fill-opacity="1"/>
<defs>
  <clipPath id="clip922">
    <rect x="209" y="47" width="2145" height="1440"/>
  </clipPath>
</defs>
<polyline clip-path="url(#clip922)" style="stroke:#000000; stroke-linecap:round; stroke-linejoin:round; stroke-width:2; stroke-opacity:0.1; fill:none" points="269.7,1486.45 269.7,47.2441 "/>
<polyline clip-path="url(#clip922)" style="stroke:#000000; stroke-linecap:round; stroke-linejoin:round; stroke-width:2; stroke-opacity:0.1; fill:none" points="775.549,1486.45 775.549,47.2441 "/>
<polyline clip-path="url(#clip922)" style="stroke:#000000; stroke-linecap:round; stroke-linejoin:round; stroke-width:2; stroke-opacity:0.1; fill:none" points="1281.4,1486.45 1281.4,47.2441 "/>
<polyline clip-path="url(#clip922)" style="stroke:#000000; stroke-linecap:round; stroke-linejoin:round; stroke-width:2; stroke-opacity:0.1; fill:none" points="1787.25,1486.45 1787.25,47.2441 "/>
<polyline clip-path="url(#clip922)" style="stroke:#000000; stroke-linecap:round; stroke-linejoin:round; stroke-width:2; stroke-opacity:0.1; fill:none" points="2293.1,1486.45 2293.1,47.2441 "/>
<polyline clip-path="url(#clip920)" style="stroke:#000000; stroke-linecap:round; stroke-linejoin:round; stroke-width:4; stroke-opacity:1; fill:none" points="209.029,1486.45 2352.76,1486.45 "/>
<polyline clip-path="url(#clip920)" style="stroke:#000000; stroke-linecap:round; stroke-linejoin:round; stroke-width:4; stroke-opacity:1; fill:none" points="269.7,1486.45 269.7,1467.55 "/>
<polyline clip-path="url(#clip920)" style="stroke:#000000; stroke-linecap:round; stroke-linejoin:round; stroke-width:4; stroke-opacity:1; fill:none" points="775.549,1486.45 775.549,1467.55 "/>
<polyline clip-path="url(#clip920)" style="stroke:#000000; stroke-linecap:round; stroke-linejoin:round; stroke-width:4; stroke-opacity:1; fill:none" points="1281.4,1486.45 1281.4,1467.55 "/>
<polyline clip-path="url(#clip920)" style="stroke:#000000; stroke-linecap:round; stroke-linejoin:round; stroke-width:4; stroke-opacity:1; fill:none" points="1787.25,1486.45 1787.25,1467.55 "/>
<polyline clip-path="url(#clip920)" style="stroke:#000000; stroke-linecap:round; stroke-linejoin:round; stroke-width:4; stroke-opacity:1; fill:none" points="2293.1,1486.45 2293.1,1467.55 "/>
<path clip-path="url(#clip920)" d="M269.7 1517.37 Q266.089 1517.37 264.26 1520.93 Q262.455 1524.47 262.455 1531.6 Q262.455 1538.71 264.26 1542.27 Q266.089 1545.82 269.7 1545.82 Q273.334 1545.82 275.14 1542.27 Q276.969 1538.71 276.969 1531.6 Q276.969 1524.47 275.14 1520.93 Q273.334 1517.37 269.7 1517.37 M269.7 1513.66 Q275.51 1513.66 278.566 1518.27 Q281.644 1522.85 281.644 1531.6 Q281.644 1540.33 278.566 1544.94 Q275.51 1549.52 269.7 1549.52 Q263.89 1549.52 260.811 1544.94 Q257.756 1540.33 257.756 1531.6 Q257.756 1522.85 260.811 1518.27 Q263.89 1513.66 269.7 1513.66 Z" fill="#000000" fill-rule="nonzero" fill-opacity="1" /><path clip-path="url(#clip920)" d="M735.167 1514.29 L753.524 1514.29 L753.524 1518.22 L739.45 1518.22 L739.45 1526.7 Q740.468 1526.35 741.487 1526.19 Q742.505 1526 743.524 1526 Q749.311 1526 752.69 1529.17 Q756.07 1532.34 756.07 1537.76 Q756.07 1543.34 752.598 1546.44 Q749.126 1549.52 742.806 1549.52 Q740.63 1549.52 738.362 1549.15 Q736.116 1548.78 733.709 1548.04 L733.709 1543.34 Q735.792 1544.47 738.015 1545.03 Q740.237 1545.58 742.714 1545.58 Q746.718 1545.58 749.056 1543.48 Q751.394 1541.37 751.394 1537.76 Q751.394 1534.15 749.056 1532.04 Q746.718 1529.94 742.714 1529.94 Q740.839 1529.94 738.964 1530.35 Q737.112 1530.77 735.167 1531.65 L735.167 1514.29 Z" fill="#000000" fill-rule="nonzero" fill-opacity="1" /><path clip-path="url(#clip920)" d="M775.283 1517.37 Q771.672 1517.37 769.843 1520.93 Q768.038 1524.47 768.038 1531.6 Q768.038 1538.71 769.843 1542.27 Q771.672 1545.82 775.283 1545.82 Q778.917 1545.82 780.723 1542.27 Q782.551 1538.71 782.551 1531.6 Q782.551 1524.47 780.723 1520.93 Q778.917 1517.37 775.283 1517.37 M775.283 1513.66 Q781.093 1513.66 784.149 1518.27 Q787.227 1522.85 787.227 1531.6 Q787.227 1540.33 784.149 1544.94 Q781.093 1549.52 775.283 1549.52 Q769.473 1549.52 766.394 1544.94 Q763.338 1540.33 763.338 1531.6 Q763.338 1522.85 766.394 1518.27 Q769.473 1513.66 775.283 1513.66 Z" fill="#000000" fill-rule="nonzero" fill-opacity="1" /><path clip-path="url(#clip920)" d="M805.445 1517.37 Q801.834 1517.37 800.005 1520.93 Q798.199 1524.47 798.199 1531.6 Q798.199 1538.71 800.005 1542.27 Q801.834 1545.82 805.445 1545.82 Q809.079 1545.82 810.885 1542.27 Q812.713 1538.71 812.713 1531.6 Q812.713 1524.47 810.885 1520.93 Q809.079 1517.37 805.445 1517.37 M805.445 1513.66 Q811.255 1513.66 814.31 1518.27 Q817.389 1522.85 817.389 1531.6 Q817.389 1540.33 814.31 1544.94 Q811.255 1549.52 805.445 1549.52 Q799.635 1549.52 796.556 1544.94 Q793.5 1540.33 793.5 1531.6 Q793.5 1522.85 796.556 1518.27 Q799.635 1513.66 805.445 1513.66 Z" fill="#000000" fill-rule="nonzero" fill-opacity="1" /><path clip-path="url(#clip920)" d="M1225.92 1544.91 L1233.56 1544.91 L1233.56 1518.55 L1225.25 1520.21 L1225.25 1515.95 L1233.52 1514.29 L1238.19 1514.29 L1238.19 1544.91 L1245.83 1544.91 L1245.83 1548.85 L1225.92 1548.85 L1225.92 1544.91 Z" fill="#000000" fill-rule="nonzero" fill-opacity="1" /><path clip-path="url(#clip920)" d="M1265.28 1517.37 Q1261.66 1517.37 1259.84 1520.93 Q1258.03 1524.47 1258.03 1531.6 Q1258.03 1538.71 1259.84 1542.27 Q1261.66 1545.82 1265.28 1545.82 Q1268.91 1545.82 1270.72 1542.27 Q1272.54 1538.71 1272.54 1531.6 Q1272.54 1524.47 1270.72 1520.93 Q1268.91 1517.37 1265.28 1517.37 M1265.28 1513.66 Q1271.09 1513.66 1274.14 1518.27 Q1277.22 1522.85 1277.22 1531.6 Q1277.22 1540.33 1274.14 1544.94 Q1271.09 1549.52 1265.28 1549.52 Q1259.47 1549.52 1256.39 1544.94 Q1253.33 1540.33 1253.33 1531.6 Q1253.33 1522.85 1256.39 1518.27 Q1259.47 1513.66 1265.28 1513.66 Z" fill="#000000" fill-rule="nonzero" fill-opacity="1" /><path clip-path="url(#clip920)" d="M1295.44 1517.37 Q1291.83 1517.37 1290 1520.93 Q1288.19 1524.47 1288.19 1531.6 Q1288.19 1538.71 1290 1542.27 Q1291.83 1545.82 1295.44 1545.82 Q1299.07 1545.82 1300.88 1542.27 Q1302.71 1538.71 1302.71 1531.6 Q1302.71 1524.47 1300.88 1520.93 Q1299.07 1517.37 1295.44 1517.37 M1295.44 1513.66 Q1301.25 1513.66 1304.3 1518.27 Q1307.38 1522.85 1307.38 1531.6 Q1307.38 1540.33 1304.3 1544.94 Q1301.25 1549.52 1295.44 1549.52 Q1289.63 1549.52 1286.55 1544.94 Q1283.49 1540.33 1283.49 1531.6 Q1283.49 1522.85 1286.55 1518.27 Q1289.63 1513.66 1295.44 1513.66 Z" fill="#000000" fill-rule="nonzero" fill-opacity="1" /><path clip-path="url(#clip920)" d="M1325.6 1517.37 Q1321.99 1517.37 1320.16 1520.93 Q1318.35 1524.47 1318.35 1531.6 Q1318.35 1538.71 1320.16 1542.27 Q1321.99 1545.82 1325.6 1545.82 Q1329.23 1545.82 1331.04 1542.27 Q1332.87 1538.71 1332.87 1531.6 Q1332.87 1524.47 1331.04 1520.93 Q1329.23 1517.37 1325.6 1517.37 M1325.6 1513.66 Q1331.41 1513.66 1334.46 1518.27 Q1337.54 1522.85 1337.54 1531.6 Q1337.54 1540.33 1334.46 1544.94 Q1331.41 1549.52 1325.6 1549.52 Q1319.79 1549.52 1316.71 1544.94 Q1313.65 1540.33 1313.65 1531.6 Q1313.65 1522.85 1316.71 1518.27 Q1319.79 1513.66 1325.6 1513.66 Z" fill="#000000" fill-rule="nonzero" fill-opacity="1" /><path clip-path="url(#clip920)" d="M1731.77 1544.91 L1739.41 1544.91 L1739.41 1518.55 L1731.1 1520.21 L1731.1 1515.95 L1739.37 1514.29 L1744.04 1514.29 L1744.04 1544.91 L1751.68 1544.91 L1751.68 1548.85 L1731.77 1548.85 L1731.77 1544.91 Z" fill="#000000" fill-rule="nonzero" fill-opacity="1" /><path clip-path="url(#clip920)" d="M1761.17 1514.29 L1779.53 1514.29 L1779.53 1518.22 L1765.45 1518.22 L1765.45 1526.7 Q1766.47 1526.35 1767.49 1526.19 Q1768.51 1526 1769.53 1526 Q1775.31 1526 1778.69 1529.17 Q1782.07 1532.34 1782.07 1537.76 Q1782.07 1543.34 1778.6 1546.44 Q1775.13 1549.52 1768.81 1549.52 Q1766.63 1549.52 1764.37 1549.15 Q1762.12 1548.78 1759.71 1548.04 L1759.71 1543.34 Q1761.8 1544.47 1764.02 1545.03 Q1766.24 1545.58 1768.72 1545.58 Q1772.72 1545.58 1775.06 1543.48 Q1777.4 1541.37 1777.4 1537.76 Q1777.4 1534.15 1775.06 1532.04 Q1772.72 1529.94 1768.72 1529.94 Q1766.84 1529.94 1764.97 1530.35 Q1763.12 1530.77 1761.17 1531.65 L1761.17 1514.29 Z" fill="#000000" fill-rule="nonzero" fill-opacity="1" /><path clip-path="url(#clip920)" d="M1801.29 1517.37 Q1797.68 1517.37 1795.85 1520.93 Q1794.04 1524.47 1794.04 1531.6 Q1794.04 1538.71 1795.85 1542.27 Q1797.68 1545.82 1801.29 1545.82 Q1804.92 1545.82 1806.73 1542.27 Q1808.55 1538.71 1808.55 1531.6 Q1808.55 1524.47 1806.73 1520.93 Q1804.92 1517.37 1801.29 1517.37 M1801.29 1513.66 Q1807.1 1513.66 1810.15 1518.27 Q1813.23 1522.85 1813.23 1531.6 Q1813.23 1540.33 1810.15 1544.94 Q1807.1 1549.52 1801.29 1549.52 Q1795.48 1549.52 1792.4 1544.94 Q1789.34 1540.33 1789.34 1531.6 Q1789.34 1522.85 1792.4 1518.27 Q1795.48 1513.66 1801.29 1513.66 Z" fill="#000000" fill-rule="nonzero" fill-opacity="1" /><path clip-path="url(#clip920)" d="M1831.45 1517.37 Q1827.84 1517.37 1826.01 1520.93 Q1824.2 1524.47 1824.2 1531.6 Q1824.2 1538.71 1826.01 1542.27 Q1827.84 1545.82 1831.45 1545.82 Q1835.08 1545.82 1836.89 1542.27 Q1838.72 1538.71 1838.72 1531.6 Q1838.72 1524.47 1836.89 1520.93 Q1835.08 1517.37 1831.45 1517.37 M1831.45 1513.66 Q1837.26 1513.66 1840.31 1518.27 Q1843.39 1522.85 1843.39 1531.6 Q1843.39 1540.33 1840.31 1544.94 Q1837.26 1549.52 1831.45 1549.52 Q1825.64 1549.52 1822.56 1544.94 Q1819.5 1540.33 1819.5 1531.6 Q1819.5 1522.85 1822.56 1518.27 Q1825.64 1513.66 1831.45 1513.66 Z" fill="#000000" fill-rule="nonzero" fill-opacity="1" /><path clip-path="url(#clip920)" d="M2241.71 1544.91 L2258.03 1544.91 L2258.03 1548.85 L2236.08 1548.85 L2236.08 1544.91 Q2238.74 1542.16 2243.33 1537.53 Q2247.93 1532.88 2249.11 1531.53 Q2251.36 1529.01 2252.24 1527.27 Q2253.14 1525.51 2253.14 1523.82 Q2253.14 1521.07 2251.2 1519.33 Q2249.28 1517.6 2246.18 1517.6 Q2243.98 1517.6 2241.52 1518.36 Q2239.09 1519.13 2236.31 1520.68 L2236.31 1515.95 Q2239.14 1514.82 2241.59 1514.24 Q2244.05 1513.66 2246.08 1513.66 Q2251.45 1513.66 2254.65 1516.35 Q2257.84 1519.03 2257.84 1523.52 Q2257.84 1525.65 2257.03 1527.57 Q2256.24 1529.47 2254.14 1532.07 Q2253.56 1532.74 2250.46 1535.95 Q2247.36 1539.15 2241.71 1544.91 Z" fill="#000000" fill-rule="nonzero" fill-opacity="1" /><path clip-path="url(#clip920)" d="M2277.84 1517.37 Q2274.23 1517.37 2272.4 1520.93 Q2270.6 1524.47 2270.6 1531.6 Q2270.6 1538.71 2272.4 1542.27 Q2274.23 1545.82 2277.84 1545.82 Q2281.48 1545.82 2283.28 1542.27 Q2285.11 1538.71 2285.11 1531.6 Q2285.11 1524.47 2283.28 1520.93 Q2281.48 1517.37 2277.84 1517.37 M2277.84 1513.66 Q2283.65 1513.66 2286.71 1518.27 Q2289.79 1522.85 2289.79 1531.6 Q2289.79 1540.33 2286.71 1544.94 Q2283.65 1549.52 2277.84 1549.52 Q2272.03 1549.52 2268.95 1544.94 Q2265.9 1540.33 2265.9 1531.6 Q2265.9 1522.85 2268.95 1518.27 Q2272.03 1513.66 2277.84 1513.66 Z" fill="#000000" fill-rule="nonzero" fill-opacity="1" /><path clip-path="url(#clip920)" d="M2308 1517.37 Q2304.39 1517.37 2302.56 1520.93 Q2300.76 1524.47 2300.76 1531.6 Q2300.76 1538.71 2302.56 1542.27 Q2304.39 1545.82 2308 1545.82 Q2311.64 1545.82 2313.44 1542.27 Q2315.27 1538.71 2315.27 1531.6 Q2315.27 1524.47 2313.44 1520.93 Q2311.64 1517.37 2308 1517.37 M2308 1513.66 Q2313.81 1513.66 2316.87 1518.27 Q2319.95 1522.85 2319.95 1531.6 Q2319.95 1540.33 2316.87 1544.94 Q2313.81 1549.52 2308 1549.52 Q2302.19 1549.52 2299.11 1544.94 Q2296.06 1540.33 2296.06 1531.6 Q2296.06 1522.85 2299.11 1518.27 Q2302.19 1513.66 2308 1513.66 Z" fill="#000000" fill-rule="nonzero" fill-opacity="1" /><path clip-path="url(#clip920)" d="M2338.17 1517.37 Q2334.55 1517.37 2332.73 1520.93 Q2330.92 1524.47 2330.92 1531.6 Q2330.92 1538.71 2332.73 1542.27 Q2334.55 1545.82 2338.17 1545.82 Q2341.8 1545.82 2343.61 1542.27 Q2345.43 1538.71 2345.43 1531.6 Q2345.43 1524.47 2343.61 1520.93 Q2341.8 1517.37 2338.17 1517.37 M2338.17 1513.66 Q2343.98 1513.66 2347.03 1518.27 Q2350.11 1522.85 2350.11 1531.6 Q2350.11 1540.33 2347.03 1544.94 Q2343.98 1549.52 2338.17 1549.52 Q2332.36 1549.52 2329.28 1544.94 Q2326.22 1540.33 2326.22 1531.6 Q2326.22 1522.85 2329.28 1518.27 Q2332.36 1513.66 2338.17 1513.66 Z" fill="#000000" fill-rule="nonzero" fill-opacity="1" /><polyline clip-path="url(#clip922)" style="stroke:#000000; stroke-linecap:round; stroke-linejoin:round; stroke-width:2; stroke-opacity:0.1; fill:none" points="209.029,1209.25 2352.76,1209.25 "/>
<polyline clip-path="url(#clip922)" style="stroke:#000000; stroke-linecap:round; stroke-linejoin:round; stroke-width:2; stroke-opacity:0.1; fill:none" points="209.029,887.973 2352.76,887.973 "/>
<polyline clip-path="url(#clip922)" style="stroke:#000000; stroke-linecap:round; stroke-linejoin:round; stroke-width:2; stroke-opacity:0.1; fill:none" points="209.029,566.699 2352.76,566.699 "/>
<polyline clip-path="url(#clip922)" style="stroke:#000000; stroke-linecap:round; stroke-linejoin:round; stroke-width:2; stroke-opacity:0.1; fill:none" points="209.029,245.426 2352.76,245.426 "/>
<polyline clip-path="url(#clip920)" style="stroke:#000000; stroke-linecap:round; stroke-linejoin:round; stroke-width:4; stroke-opacity:1; fill:none" points="209.029,1486.45 209.029,47.2441 "/>
<polyline clip-path="url(#clip920)" style="stroke:#000000; stroke-linecap:round; stroke-linejoin:round; stroke-width:4; stroke-opacity:1; fill:none" points="209.029,1209.25 227.926,1209.25 "/>
<polyline clip-path="url(#clip920)" style="stroke:#000000; stroke-linecap:round; stroke-linejoin:round; stroke-width:4; stroke-opacity:1; fill:none" points="209.029,887.973 227.926,887.973 "/>
<polyline clip-path="url(#clip920)" style="stroke:#000000; stroke-linecap:round; stroke-linejoin:round; stroke-width:4; stroke-opacity:1; fill:none" points="209.029,566.699 227.926,566.699 "/>
<polyline clip-path="url(#clip920)" style="stroke:#000000; stroke-linecap:round; stroke-linejoin:round; stroke-width:4; stroke-opacity:1; fill:none" points="209.029,245.426 227.926,245.426 "/>
<path clip-path="url(#clip920)" d="M50.9921 1209.7 L80.6679 1209.7 L80.6679 1213.63 L50.9921 1213.63 L50.9921 1209.7 Z" fill="#000000" fill-rule="nonzero" fill-opacity="1" /><path clip-path="url(#clip920)" d="M94.7882 1222.59 L111.108 1222.59 L111.108 1226.53 L89.1632 1226.53 L89.1632 1222.59 Q91.8252 1219.84 96.4085 1215.21 Q101.015 1210.55 102.196 1209.21 Q104.441 1206.69 105.321 1204.95 Q106.223 1203.19 106.223 1201.5 Q106.223 1198.75 104.279 1197.01 Q102.358 1195.28 99.2558 1195.28 Q97.0567 1195.28 94.603 1196.04 Q92.1725 1196.8 89.3947 1198.35 L89.3947 1193.63 Q92.2188 1192.5 94.6724 1191.92 Q97.1261 1191.34 99.1632 1191.34 Q104.534 1191.34 107.728 1194.03 Q110.922 1196.71 110.922 1201.2 Q110.922 1203.33 110.112 1205.25 Q109.325 1207.15 107.219 1209.74 Q106.64 1210.41 103.538 1213.63 Q100.436 1216.83 94.7882 1222.59 Z" fill="#000000" fill-rule="nonzero" fill-opacity="1" /><path clip-path="url(#clip920)" d="M120.969 1191.97 L139.325 1191.97 L139.325 1195.9 L125.251 1195.9 L125.251 1204.37 Q126.27 1204.03 127.288 1203.86 Q128.307 1203.68 129.325 1203.68 Q135.112 1203.68 138.492 1206.85 Q141.871 1210.02 141.871 1215.44 Q141.871 1221.02 138.399 1224.12 Q134.927 1227.2 128.607 1227.2 Q126.432 1227.2 124.163 1226.83 Q121.918 1226.46 119.51 1225.72 L119.51 1221.02 Q121.594 1222.15 123.816 1222.71 Q126.038 1223.26 128.515 1223.26 Q132.519 1223.26 134.857 1221.16 Q137.195 1219.05 137.195 1215.44 Q137.195 1211.83 134.857 1209.72 Q132.519 1207.61 128.515 1207.61 Q126.64 1207.61 124.765 1208.03 Q122.913 1208.45 120.969 1209.33 L120.969 1191.97 Z" fill="#000000" fill-rule="nonzero" fill-opacity="1" /><path clip-path="url(#clip920)" d="M161.084 1195.04 Q157.473 1195.04 155.644 1198.61 Q153.839 1202.15 153.839 1209.28 Q153.839 1216.39 155.644 1219.95 Q157.473 1223.49 161.084 1223.49 Q164.718 1223.49 166.524 1219.95 Q168.353 1216.39 168.353 1209.28 Q168.353 1202.15 166.524 1198.61 Q164.718 1195.04 161.084 1195.04 M161.084 1191.34 Q166.894 1191.34 169.95 1195.95 Q173.029 1200.53 173.029 1209.28 Q173.029 1218.01 169.95 1222.61 Q166.894 1227.2 161.084 1227.2 Q155.274 1227.2 152.195 1222.61 Q149.14 1218.01 149.14 1209.28 Q149.14 1200.53 152.195 1195.95 Q155.274 1191.34 161.084 1191.34 Z" fill="#000000" fill-rule="nonzero" fill-opacity="1" /><path clip-path="url(#clip920)" d="M50.9921 888.424 L80.6679 888.424 L80.6679 892.359 L50.9921 892.359 L50.9921 888.424 Z" fill="#000000" fill-rule="nonzero" fill-opacity="1" /><path clip-path="url(#clip920)" d="M94.7882 901.317 L111.108 901.317 L111.108 905.253 L89.1632 905.253 L89.1632 901.317 Q91.8252 898.563 96.4085 893.933 Q101.015 889.28 102.196 887.938 Q104.441 885.415 105.321 883.679 Q106.223 881.919 106.223 880.23 Q106.223 877.475 104.279 875.739 Q102.358 874.003 99.2558 874.003 Q97.0567 874.003 94.603 874.767 Q92.1725 875.53 89.3947 877.081 L89.3947 872.359 Q92.2188 871.225 94.6724 870.646 Q97.1261 870.068 99.1632 870.068 Q104.534 870.068 107.728 872.753 Q110.922 875.438 110.922 879.929 Q110.922 882.058 110.112 883.98 Q109.325 885.878 107.219 888.47 Q106.64 889.142 103.538 892.359 Q100.436 895.554 94.7882 901.317 Z" fill="#000000" fill-rule="nonzero" fill-opacity="1" /><path clip-path="url(#clip920)" d="M130.922 873.771 Q127.311 873.771 125.482 877.336 Q123.677 880.878 123.677 888.007 Q123.677 895.114 125.482 898.679 Q127.311 902.22 130.922 902.22 Q134.556 902.22 136.362 898.679 Q138.191 895.114 138.191 888.007 Q138.191 880.878 136.362 877.336 Q134.556 873.771 130.922 873.771 M130.922 870.068 Q136.732 870.068 139.788 874.674 Q142.867 879.257 142.867 888.007 Q142.867 896.734 139.788 901.341 Q136.732 905.924 130.922 905.924 Q125.112 905.924 122.033 901.341 Q118.978 896.734 118.978 888.007 Q118.978 879.257 122.033 874.674 Q125.112 870.068 130.922 870.068 Z" fill="#000000" fill-rule="nonzero" fill-opacity="1" /><path clip-path="url(#clip920)" d="M161.084 873.771 Q157.473 873.771 155.644 877.336 Q153.839 880.878 153.839 888.007 Q153.839 895.114 155.644 898.679 Q157.473 902.22 161.084 902.22 Q164.718 902.22 166.524 898.679 Q168.353 895.114 168.353 888.007 Q168.353 880.878 166.524 877.336 Q164.718 873.771 161.084 873.771 M161.084 870.068 Q166.894 870.068 169.95 874.674 Q173.029 879.257 173.029 888.007 Q173.029 896.734 169.95 901.341 Q166.894 905.924 161.084 905.924 Q155.274 905.924 152.195 901.341 Q149.14 896.734 149.14 888.007 Q149.14 879.257 152.195 874.674 Q155.274 870.068 161.084 870.068 Z" fill="#000000" fill-rule="nonzero" fill-opacity="1" /><path clip-path="url(#clip920)" d="M50.9921 567.151 L80.6679 567.151 L80.6679 571.086 L50.9921 571.086 L50.9921 567.151 Z" fill="#000000" fill-rule="nonzero" fill-opacity="1" /><path clip-path="url(#clip920)" d="M91.5706 580.044 L99.2095 580.044 L99.2095 553.679 L90.8993 555.345 L90.8993 551.086 L99.1632 549.419 L103.839 549.419 L103.839 580.044 L111.478 580.044 L111.478 583.979 L91.5706 583.979 L91.5706 580.044 Z" fill="#000000" fill-rule="nonzero" fill-opacity="1" /><path clip-path="url(#clip920)" d="M120.969 549.419 L139.325 549.419 L139.325 553.355 L125.251 553.355 L125.251 561.827 Q126.27 561.48 127.288 561.317 Q128.307 561.132 129.325 561.132 Q135.112 561.132 138.492 564.304 Q141.871 567.475 141.871 572.892 Q141.871 578.47 138.399 581.572 Q134.927 584.651 128.607 584.651 Q126.432 584.651 124.163 584.28 Q121.918 583.91 119.51 583.169 L119.51 578.47 Q121.594 579.604 123.816 580.16 Q126.038 580.716 128.515 580.716 Q132.519 580.716 134.857 578.609 Q137.195 576.503 137.195 572.892 Q137.195 569.28 134.857 567.174 Q132.519 565.067 128.515 565.067 Q126.64 565.067 124.765 565.484 Q122.913 565.901 120.969 566.78 L120.969 549.419 Z" fill="#000000" fill-rule="nonzero" fill-opacity="1" /><path clip-path="url(#clip920)" d="M161.084 552.498 Q157.473 552.498 155.644 556.063 Q153.839 559.605 153.839 566.734 Q153.839 573.841 155.644 577.405 Q157.473 580.947 161.084 580.947 Q164.718 580.947 166.524 577.405 Q168.353 573.841 168.353 566.734 Q168.353 559.605 166.524 556.063 Q164.718 552.498 161.084 552.498 M161.084 548.794 Q166.894 548.794 169.95 553.401 Q173.029 557.984 173.029 566.734 Q173.029 575.461 169.95 580.067 Q166.894 584.651 161.084 584.651 Q155.274 584.651 152.195 580.067 Q149.14 575.461 149.14 566.734 Q149.14 557.984 152.195 553.401 Q155.274 548.794 161.084 548.794 Z" fill="#000000" fill-rule="nonzero" fill-opacity="1" /><path clip-path="url(#clip920)" d="M50.9921 245.878 L80.6679 245.878 L80.6679 249.813 L50.9921 249.813 L50.9921 245.878 Z" fill="#000000" fill-rule="nonzero" fill-opacity="1" /><path clip-path="url(#clip920)" d="M91.5706 258.771 L99.2095 258.771 L99.2095 232.406 L90.8993 234.072 L90.8993 229.813 L99.1632 228.146 L103.839 228.146 L103.839 258.771 L111.478 258.771 L111.478 262.706 L91.5706 262.706 L91.5706 258.771 Z" fill="#000000" fill-rule="nonzero" fill-opacity="1" /><path clip-path="url(#clip920)" d="M130.922 231.225 Q127.311 231.225 125.482 234.79 Q123.677 238.331 123.677 245.461 Q123.677 252.567 125.482 256.132 Q127.311 259.674 130.922 259.674 Q134.556 259.674 136.362 256.132 Q138.191 252.567 138.191 245.461 Q138.191 238.331 136.362 234.79 Q134.556 231.225 130.922 231.225 M130.922 227.521 Q136.732 227.521 139.788 232.128 Q142.867 236.711 142.867 245.461 Q142.867 254.188 139.788 258.794 Q136.732 263.378 130.922 263.378 Q125.112 263.378 122.033 258.794 Q118.978 254.188 118.978 245.461 Q118.978 236.711 122.033 232.128 Q125.112 227.521 130.922 227.521 Z" fill="#000000" fill-rule="nonzero" fill-opacity="1" /><path clip-path="url(#clip920)" d="M161.084 231.225 Q157.473 231.225 155.644 234.79 Q153.839 238.331 153.839 245.461 Q153.839 252.567 155.644 256.132 Q157.473 259.674 161.084 259.674 Q164.718 259.674 166.524 256.132 Q168.353 252.567 168.353 245.461 Q168.353 238.331 166.524 234.79 Q164.718 231.225 161.084 231.225 M161.084 227.521 Q166.894 227.521 169.95 232.128 Q173.029 236.711 173.029 245.461 Q173.029 254.188 169.95 258.794 Q166.894 263.378 161.084 263.378 Q155.274 263.378 152.195 258.794 Q149.14 254.188 149.14 245.461 Q149.14 236.711 152.195 232.128 Q155.274 227.521 161.084 227.521 Z" fill="#000000" fill-rule="nonzero" fill-opacity="1" /><polyline clip-path="url(#clip922)" style="stroke:#009af9; stroke-linecap:round; stroke-linejoin:round; stroke-width:4; stroke-opacity:1; fill:none" points="269.7,89.0151 270.712,87.9763 271.723,492.094 272.735,481.963 273.747,184.74 274.759,182.3 275.77,169.958 276.782,167.911 277.794,327.759 278.805,323.445 279.817,134.544 280.829,133.92 281.84,579.58 282.852,574.465 283.864,389.71 284.876,387.947 285.887,527.73 286.899,521.999 287.911,604.617 288.922,602.052 289.934,864.126 290.946,858.697 291.957,828.334 292.969,824.482 293.981,851.448 294.992,850.654 296.004,801.735 297.016,797.079 298.028,687.337 299.039,685.326 300.051,1090.82 301.063,1086.29 302.074,931.859 303.086,928.17 304.098,997.381 305.109,994.623 306.121,1096.4 307.133,1095.42 308.145,1132.01 309.156,1129.26 310.168,1047.04 311.18,1043.86 312.191,1037.84 313.203,1036.93 314.215,987.19 315.226,985.642 316.238,1138.49 317.25,1136.87 318.262,1147.13 319.273,1143.33 320.285,949.623 321.297,948.698 322.308,1137.33 323.32,1136.88 324.332,973.631 325.343,971.946 326.355,989.735 327.367,988.682 328.379,1013.33 329.39,1012.49 330.402,1290.87 331.414,1288.71 332.425,1139.37 333.437,1137.81 334.449,1168.36 335.46,1167.57 336.472,968.605 337.484,967.492 338.496,1147.09 339.507,1145.76 340.519,1256.65 341.531,1255.41 342.542,1037.08 343.554,1036.19 344.566,1127.82 345.577,1127.24 346.589,1176.64 347.601,1176.08 348.612,1062.21 349.624,1059.26 350.636,1108.55 351.648,1108.16 352.659,1217.96 353.671,1216.66 354.683,1268.95 355.694,1268.07 356.706,1088.02 357.718,1087.4 358.729,1175 359.741,1174.54 360.753,1087.14 361.765,1086.81 362.776,1226.35 363.788,1225.96 364.8,1246.79 365.811,1245.52 366.823,1156.89 367.835,1156.56 368.846,1241.72 369.858,1241.28 370.87,1327.85 371.882,1327.17 372.893,1188.33 373.905,1187.54 374.917,1186.1 375.928,1185.67 376.94,1077.01 377.952,1071.51 378.963,1287.42 379.975,1286.89 380.987,1282.8 381.999,1282.28 383.01,1229.4 384.022,1227.44 385.034,1186.44 386.045,1185.16 387.057,1157.34 388.069,1154.17 389.08,1320.83 390.092,1320.49 391.104,1208.09 392.115,1207.84 393.127,1242.03 394.139,1241.16 395.151,1132.43 396.162,1126.94 397.174,1153.62 398.186,1153.24 399.197,1317.27 400.209,1315.06 401.221,1315.57 402.232,1314.9 403.244,1250.49 404.256,1249.99 405.268,1201.06 406.279,1200.81 407.291,1246.42 408.303,1245.97 409.314,1314.75 410.326,1314.4 411.338,1218.84 412.349,1216.77 413.361,1202.81 414.373,1201.86 415.385,1203.37 416.396,1203.04 417.408,1283.7 418.42,1283.33 419.431,1274.5 420.443,1274.35 421.455,1302.48 422.466,1301.94 423.478,1123.98 424.49,1123.9 425.502,1276.35 426.513,1276.12 427.525,1237.62 428.537,1237.46 429.548,1270.65 430.56,1270.46 431.572,1232.89 432.583,1229.93 433.595,1247.72 434.607,1246.6 435.619,1168.01 436.63,1167.76 437.642,1142.42 438.654,1141.9 439.665,1271.95 440.677,1271.86 441.689,1212.68 442.7,1211.72 443.712,1215.95 444.724,1215.74 445.735,1240.48 446.747,1240.39 447.759,1234.48 448.771,1233.9 449.782,1367.65 450.794,1367.5 451.806,1233.75 452.817,1233.57 453.829,1273.9 454.841,1273.82 455.852,1267.62 456.864,1267.24 457.876,1270.64 458.888,1270.02 459.899,1244.03 460.911,1243.19 461.923,1187.27 462.934,1186.8 463.946,1283.04 464.958,1282.86 465.969,1310.47 466.981,1310.26 467.993,1308.31 469.005,1308.25 470.016,1228.9 471.028,1226.34 472.04,1315.83 473.051,1314.48 474.063,1248.5 475.075,1248.35 476.086,1183.07 477.098,1182.81 478.11,1326.77 479.122,1324.82 480.133,1299.89 481.145,1299.81 482.157,1282.03 483.168,1281.01 484.18,1240.13 485.192,1240.08 486.203,1288.19 487.215,1287.43 488.227,1203.59 489.239,1202.81 490.25,1310.96 491.262,1308.99 492.274,1278.71 493.285,1274.21 494.297,1317.7 495.309,1317.47 496.32,1284.42 497.332,1284.29 498.344,1246.63 499.355,1245.84 500.367,1310.22 501.379,1308.19 502.391,1307.95 503.402,1307.09 504.414,1319.76 505.426,1319.42 506.437,1320.52 507.449,1319.7 508.461,1247.97 509.472,1244.15 510.484,1297.52 511.496,1297.26 512.508,1304.65 513.519,1300.27 514.531,1283.06 515.543,1282.62 516.554,1286.41 517.566,1285.49 518.578,1341.63 519.589,1340.74 520.601,1285.94 521.613,1285.09 522.625,1251.46 523.636,1249.8 524.648,1282.99 525.66,1282.61 526.671,1241.63 527.683,1241.23 528.695,1301.74 529.706,1300.48 530.718,1276.09 531.73,1275.53 532.742,1283.37 533.753,1281.93 534.765,1267.96 535.777,1267.44 536.788,1282.14 537.8,1280.99 538.812,1316.07 539.823,1315.97 540.835,1272.36 541.847,1271.94 542.859,1307.42 543.87,1307.39 544.882,1303.23 545.894,1302.02 546.905,1247.26 547.917,1247.09 548.929,1276.5 549.94,1275.99 550.952,1324.04 551.964,1321.19 552.975,1301.03 553.987,1300.91 554.999,1282.66 556.011,1282.34 557.022,1306.48 558.034,1305.1 559.046,1236.47 560.057,1236.04 561.069,1297.44 562.081,1297.24 563.092,1324.97 564.104,1323.72 565.116,1258.35 566.128,1256.01 567.139,1212.43 568.151,1211.83 569.163,1277.51 570.174,1276.41 571.186,1310.34 572.198,1310.22 573.209,1308.12 574.221,1307.85 575.233,1307.62 576.245,1307.43 577.256,1251.94 578.268,1251.67 579.28,1307.35 580.291,1307.21 581.303,1333.73 582.315,1332.95 583.326,1274.65 584.338,1274.48 585.35,1261.17 586.362,1260.29 587.373,1267.25 588.385,1267.24 589.397,1208.36 590.408,1207.4 591.42,1230.44 592.432,1229.97 593.443,1273.93 594.455,1273.5 595.467,1301.07 596.478,1300.87 597.49,1260.58 598.502,1260.49 599.514,1209.58 600.525,1209.51 601.537,1333.57 602.549,1333.28 603.56,1232.41 604.572,1230.93 605.584,1303.95 606.595,1302.2 607.607,1372.97 608.619,1372.52 609.631,1238.59 610.642,1238.42 611.654,1271.43 612.666,1271.23 613.677,1262.42 614.689,1261.14 615.701,1197.01 616.712,1196.7 617.724,1278.38 618.736,1278.25 619.748,1296.84 620.759,1296.12 621.771,1319.39 622.783,1315.78 623.794,1267.21 624.806,1266.54 625.818,1313.13 626.829,1313.03 627.841,1291.61 628.853,1290.65 629.865,1287.36 630.876,1287.1 631.888,1240.62 632.9,1240.53 633.911,1238.33 634.923,1238.09 635.935,1275.65 636.946,1275.59 637.958,1282.63 638.97,1277.45 639.982,1221 640.993,1220.73 642.005,1285.96 643.017,1285.58 644.028,1278.74 645.04,1276.83 646.052,1260.71 647.063,1260.63 648.075,1299.95 649.087,1299.72 650.098,1305.35 651.11,1304.98 652.122,1282.87 653.134,1281.97 654.145,1290.06 655.157,1289.39 656.169,1309.01 657.18,1308.32 658.192,1316.23 659.204,1315.65 660.215,1267.94 661.227,1267.64 662.239,1272.32 663.251,1272.18 664.262,1285.15 665.274,1284.05 666.286,1312.57 667.297,1312.46 668.309,1310.68 669.321,1310.62 670.332,1242.19 671.344,1241.19 672.356,1312.32 673.368,1312.25 674.379,1268.25 675.391,1267.82 676.403,1372.1 677.414,1371.94 678.426,1307.78 679.438,1307.21 680.449,1305.82 681.461,1305.71 682.473,1305.68 683.485,1304.81 684.496,1293.83 685.508,1293.7 686.52,1272.78 687.531,1272.65 688.543,1254.59 689.555,1251.86 690.566,1309.34 691.578,1308.65 692.59,1267.52 693.602,1265.76 694.613,1278.22 695.625,1278.14 696.637,1315.79 697.648,1315.18 698.66,1219.44 699.672,1217.78 700.683,1263.77 701.695,1261.87 702.707,1307.97 703.718,1305.5 704.73,1306.86 705.742,1306.4 706.754,1309.35 707.765,1308.57 708.777,1299.51 709.789,1298.7 710.8,1225.08 711.812,1224.86 712.824,1313.4 713.835,1311.37 714.847,1273.8 715.859,1273.39 716.871,1277.34 717.882,1277.11 718.894,1364.67 719.906,1364.33 720.917,1298.91 721.929,1297.37 722.941,1373.14 723.952,1372.55 724.964,1270.57 725.976,1270.43 726.988,1315.72 727.999,1315.06 729.011,1309.68 730.023,1308.83 731.034,1303.29 732.046,1302.91 733.058,1291.07 734.069,1289.13 735.081,1317.55 736.093,1316.42 737.105,1254.55 738.116,1254.17 739.128,1293.1 740.14,1289.6 741.151,1308.54 742.163,1307.76 743.175,1343.42 744.186,1343.22 745.198,1302.32 746.21,1301.27 747.222,1307.2 748.233,1304.96 749.245,1208.03 750.257,1207.98 751.268,1297.14 752.28,1297.05 753.292,1270 754.303,1269.99 755.315,1302.07 756.327,1301.92 757.338,1303.41 758.35,1303.4 759.362,1316.25 760.374,1315.46 761.385,1276.76 762.397,1276.63 763.409,1307.01 764.42,1303.27 765.432,1313.42 766.444,1313.35 767.455,1305.51 768.467,1304.97 769.479,1310.7 770.491,1309.83 771.502,1336.14 772.514,1335.68 773.526,1293.04 774.537,1292.33 775.549,1267.44 776.561,1265.91 777.572,1372.51 778.584,1368.14 779.596,1307.62 780.608,1307.26 781.619,1295.23 782.631,1294.61 783.643,1275.34 784.654,1274.41 785.666,1299.73 786.678,1299.45 787.689,1314.78 788.701,1314.39 789.713,1313.54 790.725,1313.48 791.736,1272.25 792.748,1272.21 793.76,1298.47 794.771,1297.99 795.783,1304.73 796.795,1304.37 797.806,1278.89 798.818,1278.84 799.83,1292.7 800.841,1289.11 801.853,1259.7 802.865,1259.54 803.877,1296.38 804.888,1296.28 805.9,1318.2 806.912,1316.81 807.923,1304.61 808.935,1304.6 809.947,1295.48 810.958,1295.2 811.97,1232.22 812.982,1231.65 813.994,1309.4 815.005,1308.43 816.017,1293.1 817.029,1292.12 818.04,1306 819.052,1305.8 820.064,1306.4 821.075,1305.19 822.087,1257.32 823.099,1257.01 824.111,1280.31 825.122,1279.81 826.134,1267.77 827.146,1267.74 828.157,1306.31 829.169,1305.87 830.181,1302 831.192,1300.93 832.204,1289.07 833.216,1287.29 834.228,1307.5 835.239,1307.42 836.251,1300.22 837.263,1299.5 838.274,1297.36 839.286,1297.19 840.298,1290.07 841.309,1288.91 842.321,1307.72 843.333,1307.61 844.345,1265.36 845.356,1265.29 846.368,1220.35 847.38,1219.99 848.391,1313.32 849.403,1313.04 850.415,1304.13 851.426,1304.1 852.438,1304.07 853.45,1304.06 854.461,1300.09 855.473,1299.61 856.485,1229.06 857.497,1228.39 858.508,1269.21 859.52,1269.13 860.532,1307.61 861.543,1307.48 862.555,1267.21 863.567,1267.21 864.578,1302.43 865.59,1302.42 866.602,1290.14 867.614,1289.73 868.625,1262.27 869.637,1262.05 870.649,1288.05 871.66,1287.28 872.672,1305.09 873.684,1304.92 874.695,1302.45 875.707,1302.12 876.719,1299.31 877.731,1298.8 878.742,1222.44 879.754,1222.37 880.766,1282 881.777,1280.9 882.789,1269.51 883.801,1269.17 884.812,1382.99 885.824,1380.51 886.836,1254.32 887.848,1253.03 888.859,1298.68 889.871,1297.29 890.883,1292.16 891.894,1288.07 892.906,1318.48 893.918,1316.64 894.929,1317.75 895.941,1314.75 896.953,1278.7 897.965,1278.49 898.976,1312.89 899.988,1312.73 901,1278.42 902.011,1278.36 903.023,1353.58 904.035,1352.02 905.046,1313.97 906.058,1313.36 907.07,1271.19 908.081,1269.67 909.093,1313.92 910.105,1313.49 911.117,1306.91 912.128,1305.75 913.14,1305.95 914.152,1305.71 915.163,1312.55 916.175,1311.55 917.187,1278.95 918.198,1278.74 919.21,1305.56 920.222,1305.55 921.234,1307.46 922.245,1304.22 923.257,1257.86 924.269,1257.5 925.28,1315.21 926.292,1312.91 927.304,1306.06 928.315,1305.75 929.327,1381.06 930.339,1380.73 931.351,1304.29 932.362,1302.73 933.374,1308.98 934.386,1308.33 935.397,1281.74 936.409,1280.6 937.421,1269.15 938.432,1268.73 939.444,1301.11 940.456,1300.37 941.468,1276.15 942.479,1274.6 943.491,1377.52 944.503,1376.4 945.514,1305.41 946.526,1305.31 947.538,1272.66 948.549,1272.33 949.561,1381.72 950.573,1381.18 951.585,1375.89 952.596,1373.97 953.608,1271.33 954.62,1270.36 955.631,1203.56 956.643,1203.48 957.655,1315.33 958.666,1312.29 959.678,1273.7 960.69,1272.1 961.701,1312.7 962.713,1312.55 963.725,1299.4 964.737,1298.3 965.748,1312.25 966.76,1312.21 967.772,1276.35 968.783,1275.55 969.795,1274.24 970.807,1273.27 971.818,1286.82 972.83,1286.02 973.842,1305.79 974.854,1305.73 975.865,1312.54 976.877,1312.5 977.889,1278.29 978.9,1277.83 979.912,1315.02 980.924,1310.25 981.935,1276.78 982.947,1276.7 983.959,1309.56 984.971,1307.71 985.982,1312.59 986.994,1312.18 988.006,1311.57 989.017,1310.63 990.029,1300.78 991.041,1297.39 992.052,1280.82 993.064,1279.95 994.076,1294.2 995.088,1293.1 996.099,1300.95 997.111,1300.82 998.123,1300.71 999.134,1300.63 1000.15,1271.04 1001.16,1270.78 1002.17,1276.49 1003.18,1276.32 1004.19,1299.15 1005.2,1297.24 1006.22,1310.09 1007.23,1309.83 1008.24,1289.95 1009.25,1288.14 1010.26,1278.6 1011.27,1275.4 1012.29,1280.02 1013.3,1279.29 1014.31,1298.9 1015.32,1298.83 1016.33,1317.35 1017.34,1315.34 1018.36,1287.76 1019.37,1286.09 1020.38,1305.7 1021.39,1305.4 1022.4,1302.06 1023.42,1302.04 1024.43,1261.77 1025.44,1261.78 1026.45,1245.64 1027.46,1241.9 1028.47,1290.61 1029.49,1290.63 1030.5,1324.79 1031.51,1320.98 1032.52,1267.39 1033.53,1267.29 1034.54,1317.36 1035.56,1313.79 1036.57,1311.13 1037.58,1309.26 1038.59,1313.28 1039.6,1312.51 1040.61,1299.62 1041.63,1299.35 1042.64,1296.07 1043.65,1291.7 1044.66,1313.58 1045.67,1312.96 1046.68,1306.23 1047.7,1305.25 1048.71,1304.5 1049.72,1303.95 1050.73,1335.73 1051.74,1335.58 1052.75,1305.84 1053.77,1305.59 1054.78,1311.93 1055.79,1311.67 1056.8,1301.8 1057.81,1301.48 1058.82,1294.77 1059.84,1294.34 1060.85,1295.63 1061.86,1295.5 1062.87,1319.4 1063.88,1316.65 1064.89,1309.68 1065.91,1309.54 1066.92,1309.87 1067.93,1307.96 1068.94,1310.53 1069.95,1309.7 1070.96,1308.38 1071.98,1307.53 1072.99,1313.06 1074,1309.16 1075.01,1271.11 1076.02,1270.2 1077.04,1308.83 1078.05,1307.17 1079.06,1258.61 1080.07,1256.66 1081.08,1272.23 1082.09,1272.16 1083.11,1305.4 1084.12,1305.29 1085.13,1301.29 1086.14,1300.7 1087.15,1307.12 1088.16,1306.49 1089.18,1310.81 1090.19,1310.59 1091.2,1305.76 1092.21,1305.53 1093.22,1305.34 1094.23,1305.2 1095.25,1297.55 1096.26,1295.85 1097.27,1300.33 1098.28,1300.31 1099.29,1306.94 1100.3,1306.88 1101.32,1298.29 1102.33,1298.07 1103.34,1288.62 1104.35,1285.89 1105.36,1299.04 1106.37,1298.92 1107.39,1280.37 1108.4,1278.24 1109.41,1297.48 1110.42,1296.83 1111.43,1307.86 1112.44,1307.5 1113.46,1274.3 1114.47,1274.04 1115.48,1300.2 1116.49,1300.2 1117.5,1307.06 1118.51,1306.43 1119.53,1305.12 1120.54,1305.01 1121.55,1279.41 1122.56,1278.64 1123.57,1304.27 1124.58,1303.68 1125.6,1308.61 1126.61,1308.56 1127.62,1313.51 1128.63,1312.73 1129.64,1269.29 1130.66,1269.25 1131.67,1306.12 1132.68,1305.71 1133.69,1273.66 1134.7,1273.07 1135.71,1305.16 1136.73,1305.12 1137.74,1308.81 1138.75,1308.72 1139.76,1312.97 1140.77,1312.28 1141.78,1279.85 1142.8,1277.7 1143.81,1305.96 1144.82,1305.74 1145.83,1379.89 1146.84,1379.25 1147.85,1271.51 1148.87,1271.48 1149.88,1311.91 1150.89,1310.98 1151.9,1301.45 1152.91,1300.64 1153.92,1300.27 1154.94,1300.02 1155.95,1306.55 1156.96,1306.15 1157.97,1305.85 1158.98,1305.63 1159.99,1339.52 1161.01,1338.13 1162.02,1309.54 1163.03,1309.31 1164.04,1303.45 1165.05,1303.22 1166.06,1308.22 1167.08,1307.39 1168.09,1274.07 1169.1,1272.8 1170.11,1298.2 1171.12,1298.04 1172.13,1313.51 1173.15,1312.73 1174.16,1305.74 1175.17,1305.67 1176.18,1267.69 1177.19,1265.46 1178.2,1272.49 1179.22,1272.26 1180.23,1299.37 1181.24,1298.98 1182.25,1379.71 1183.26,1377.52 1184.28,1294.19 1185.29,1293.85 1186.3,1309.27 1187.31,1309.16 1188.32,1274.37 1189.33,1274.21 1190.35,1313.58 1191.36,1312.8 1192.37,1307.84 1193.38,1306.85 1194.39,1304.55 1195.4,1302.84 1196.42,1294.74 1197.43,1292.8 1198.44,1301.19 1199.45,1299.64 1200.46,1300.55 1201.47,1300.07 1202.49,1291.23 1203.5,1290.84 1204.51,1302.19 1205.52,1302.13 1206.53,1370.41 1207.54,1370.2 1208.56,1300.65 1209.57,1300.16 1210.58,1288.89 1211.59,1288.38 1212.6,1303.65 1213.61,1303.62 1214.63,1317.93 1215.64,1315.59 1216.65,1297.56 1217.66,1297.27 1218.67,1302.91 1219.68,1302.7 1220.7,1301.47 1221.71,1301.11 1222.72,1310.24 1223.73,1308.49 1224.74,1305.51 1225.75,1300.64 1226.77,1305.17 1227.78,1303.17 1228.79,1307.52 1229.8,1306.93 1230.81,1318.63 1231.82,1315.66 1232.84,1270.78 1233.85,1270.77 1234.86,1313.48 1235.87,1311.92 1236.88,1311.27 1237.9,1311.22 1238.91,1380.73 1239.92,1379.44 1240.93,1311.63 1241.94,1311.48 1242.95,1311.28 1243.97,1311.18 1244.98,1305.2 1245.99,1305.1 1247,1293.94 1248.01,1293.55 1249.02,1305.93 1250.04,1305 1251.05,1311.54 1252.06,1311.47 1253.07,1311.85 1254.08,1311.41 1255.09,1311.41 1256.11,1311.29 1257.12,1311.4 1258.13,1310.27 1259.14,1268.47 1260.15,1266.81 1261.16,1297.27 1262.18,1297.13 1263.19,1308.99 1264.2,1308.94 1265.21,1298.65 1266.22,1297.62 1267.23,1305.49 1268.25,1303.51 1269.26,1303.64 1270.27,1303.62 1271.28,1317.41 1272.29,1314.15 1273.3,1305.67 1274.32,1304.29 1275.33,1311.53 1276.34,1311.42 1277.35,1303.83 1278.36,1302.94 1279.37,1315.14 1280.39,1312.98 1281.4,1310.76 1282.41,1307.76 1283.42,1273.63 1284.43,1273.19 1285.44,1260.12 1286.46,1259.43 1287.47,1300.59 1288.48,1300.49 1289.49,1231.98 1290.5,1230.64 1291.52,1304.84 1292.53,1304.82 1293.54,1302.29 1294.55,1302.22 1295.56,1307 1296.57,1306.97 1297.59,1294.52 1298.6,1293.85 1299.61,1304.11 1300.62,1303.65 1301.63,1300.18 1302.64,1300.16 1303.66,1292.49 1304.67,1291.17 1305.68,1290.31 1306.69,1289.9 1307.7,1293.92 1308.71,1292.08 1309.73,1285.82 1310.74,1284.96 1311.75,1311.78 1312.76,1310.84 1313.77,1304.78 1314.78,1304.73 1315.8,1261.51 1316.81,1260.81 1317.82,1294.36 1318.83,1294.35 1319.84,1284.39 1320.85,1282.1 1321.87,1298.35 1322.88,1298.34 1323.89,1272.54 1324.9,1271.34 1325.91,1329.88 1326.92,1324.49 1327.94,1315.16 1328.95,1313.8 1329.96,1222.77 1330.97,1222.39 1331.98,1253.36 1332.99,1251.42 1334.01,1267.19 1335.02,1266.99 1336.03,1327.87 1337.04,1322.11 1338.05,1285.22 1339.06,1284.58 1340.08,1260.23 1341.09,1259.93 1342.1,1296.18 1343.11,1296.09 1344.12,1280 1345.14,1279.14 1346.15,1306.31 1347.16,1305.31 1348.17,1248.42 1349.18,1246.42 1350.19,1288.52 1351.21,1283.74 1352.22,1292.61 1353.23,1292.2 1354.24,1300.53 1355.25,1300.18 1356.26,1275.15 1357.28,1274.69 1358.29,1291.81 1359.3,1290.45 1360.31,1311.2 1361.32,1310.4 1362.33,1289.31 1363.35,1288.67 1364.36,1260.13 1365.37,1259.72 1366.38,1327.31 1367.39,1322.45 1368.4,1269.6 1369.42,1269.47 1370.43,1312.49 1371.44,1310.25 1372.45,1309.94 1373.46,1309.87 1374.47,1296.92 1375.49,1296.8 1376.5,1308.19 1377.51,1307.13 1378.52,1273.47 1379.53,1272.38 1380.54,1308.02 1381.56,1307.01 1382.57,1309.33 1383.58,1309.14 1384.59,1308.98 1385.6,1308.86 1386.61,1299.59 1387.63,1298.31 1388.64,1303.37 1389.65,1303.33 1390.66,1374.48 1391.67,1373.5 1392.68,1296.95 1393.7,1296.82 1394.71,1300.09 1395.72,1300.03 1396.73,1263.34 1397.74,1263.17 1398.76,1310.3 1399.77,1310.14 1400.78,1303.3 1401.79,1303.29 1402.8,1301.98 1403.81,1301.94 1404.83,1304.64 1405.84,1304.51 1406.85,1309.94 1407.86,1309.9 1408.87,1271.81 1409.88,1271.49 1410.9,1278.42 1411.91,1277.78 1412.92,1265.07 1413.93,1264.88 1414.94,1305.48 1415.95,1304.49 1416.97,1303.1 1417.98,1301.58 1418.99,1311.73 1420,1311.46 1421.01,1305.54 1422.02,1305.32 1423.04,1274.98 1424.05,1274.08 1425.06,1368.73 1426.07,1368.37 1427.08,1313.81 1428.09,1312 1429.11,1310.71 1430.12,1310.18 1431.13,1304.87 1432.14,1304.85 1433.15,1302.69 1434.16,1300.59 1435.18,1308.81 1436.19,1308.75 1437.2,1309.84 1438.21,1309.8 1439.22,1305.49 1440.23,1305.29 1441.25,1309.01 1442.26,1308.88 1443.27,1307.83 1444.28,1307.56 1445.29,1374.86 1446.3,1373.68 1447.32,1300.23 1448.33,1300.17 1449.34,1312.07 1450.35,1311.55 1451.36,1271.37 1452.38,1271.14 1453.39,1307.45 1454.4,1307.26 1455.41,1300.65 1456.42,1298.15 1457.43,1273.3 1458.45,1273.25 1459.46,1272.54 1460.47,1272 1461.48,1300.8 1462.49,1299.29 1463.5,1304.12 1464.52,1303.91 1465.53,1273.18 1466.54,1273.16 1467.55,1299.62 1468.56,1298.39 1469.57,1293.5 1470.59,1293.38 1471.6,1255.65 1472.61,1255.27 1473.62,1289.95 1474.63,1289.19 1475.64,1309.96 1476.66,1309.39 1477.67,1304.57 1478.68,1304.19 1479.69,1270.69 1480.7,1270.4 1481.71,1303.9 1482.73,1302.51 1483.74,1308.55 1484.75,1308.5 1485.76,1301.08 1486.77,1300.8 1487.78,1274.85 1488.8,1274.81 1489.81,1371.81 1490.82,1369.57 1491.83,1318.81 1492.84,1316.21 1493.85,1304.69 1494.87,1304.62 1495.88,1307.47 1496.89,1307.25 1497.9,1246.09 1498.91,1244.75 1499.92,1445.72 1500.94,1444.67 1501.95,1311.81 1502.96,1311.18 1503.97,1305.32 1504.98,1305.28 1506,1271.21 1507.01,1267.13 1508.02,1308.59 1509.03,1308.52 1510.04,1304.81 1511.05,1304.76 1512.07,1307.65 1513.08,1307.39 1514.09,1316.62 1515.1,1313.86 1516.11,1270.61 1517.12,1270.49 1518.14,1298.88 1519.15,1298.51 1520.16,1311.79 1521.17,1311.34 1522.18,1277.04 1523.19,1276.67 1524.21,1305.08 1525.22,1304.73 1526.23,1311.67 1527.24,1310.72 1528.25,1304.77 1529.26,1304.08 1530.28,1309.06 1531.29,1305.37 1532.3,1306.47 1533.31,1305.7 1534.32,1310.4 1535.33,1309.79 1536.35,1272.56 1537.36,1267.69 1538.37,1357.28 1539.38,1350.62 1540.39,1275.87 1541.4,1275.14 1542.42,1297.95 1543.43,1296.82 1544.44,1305.23 1545.45,1304.24 1546.46,1288.75 1547.47,1286.31 1548.49,1292.8 1549.5,1290.93 1550.51,1297.1 1551.52,1297.1 1552.53,1320.47 1553.54,1317.56 1554.56,1296.43 1555.57,1295.93 1556.58,1306.16 1557.59,1306.14 1558.6,1318.37 1559.62,1315.87 1560.63,1303.28 1561.64,1301.95 1562.65,1298.53 1563.66,1298.28 1564.67,1298.25 1565.69,1297.23 1566.7,1297.45 1567.71,1297.42 1568.72,1309.59 1569.73,1308.32 1570.74,1259.62 1571.76,1258.36 1572.77,1291.14 1573.78,1290.91 1574.79,1283.05 1575.8,1281.11 1576.81,1309.64 1577.83,1309.48 1578.84,1272.99 1579.85,1272.45 1580.86,1308.18 1581.87,1308.11 1582.88,1301.3 1583.9,1300.98 1584.91,1273.04 1585.92,1272.99 1586.93,1270.08 1587.94,1270.02 1588.95,1311.83 1589.97,1311.35 1590.98,1275.45 1591.99,1275.42 1593,1314.25 1594.01,1312.12 1595.02,1309.84 1596.04,1309.3 1597.05,1301.21 1598.06,1300.86 1599.07,1276.36 1600.08,1276.12 1601.09,1310.13 1602.11,1310.11 1603.12,1310.09 1604.13,1310.06 1605.14,1266.48 1606.15,1266.34 1607.16,1310.2 1608.18,1310.08 1609.19,1379.43 1610.2,1379.12 1611.21,1304.92 1612.22,1304.61 1613.24,1309.85 1614.25,1309.83 1615.26,1272.65 1616.27,1269.86 1617.28,1235.49 1618.29,1234.72 1619.31,1367.9 1620.32,1367.6 1621.33,1300.61 1622.34,1299.89 1623.35,1258.29 1624.36,1257.4 1625.38,1300.88 1626.39,1300.85 1627.4,1298.2 1628.41,1298.03 1629.42,1262.22 1630.43,1261.97 1631.45,1303.45 1632.46,1303.38 1633.47,1300.22 1634.48,1300.15 1635.49,1289.93 1636.5,1289.2 1637.52,1300.52 1638.53,1300.52 1639.54,1294.82 1640.55,1294.52 1641.56,1300.4 1642.57,1300.4 1643.59,1282.7 1644.6,1281.35 1645.61,1300.46 1646.62,1300.39 1647.63,1303.6 1648.64,1303.42 1649.66,1309.44 1650.67,1307.1 1651.68,1294.98 1652.69,1293.62 1653.7,1302.85 1654.71,1302.61 1655.73,1305.71 1656.74,1305.65 1657.75,1294.64 1658.76,1293.35 1659.77,1294.52 1660.78,1294.39 1661.8,1311.1 1662.81,1310.37 1663.82,1302.27 1664.83,1302.23 1665.84,1301.74 1666.86,1301.49 1667.87,1301.28 1668.88,1301.12 1669.89,1294.07 1670.9,1292.91 1671.91,1287.08 1672.93,1283.78 1673.94,1304.12 1674.95,1304.02 1675.96,1277.2 1676.97,1276.7 1677.98,1300.14 1679,1297.43 1680.01,1298.32 1681.02,1298.18 1682.03,1314.08 1683.04,1312.8 1684.05,1276.92 1685.07,1276.48 1686.08,1309.73 1687.09,1309.59 1688.1,1306.64 1689.11,1306.36 1690.12,1310.89 1691.14,1310.49 1692.15,1307.66 1693.16,1307.55 1694.17,1308.15 1695.18,1307.35 1696.19,1309.26 1697.21,1309.24 1698.22,1309.73 1699.23,1309.65 1700.24,1307.17 1701.25,1306.03 1702.26,1375.48 1703.28,1375.28 1704.29,1271.72 1705.3,1271.69 1706.31,1305.09 1707.32,1303.36 1708.33,1311.07 1709.35,1310.58 1710.36,1308.12 1711.37,1307.51 1712.38,1307.64 1713.39,1306.96 1714.4,1275.8 1715.42,1275.67 1716.43,1310.96 1717.44,1307.39 1718.45,1277.82 1719.46,1276.77 1720.47,1307.37 1721.49,1304.29 1722.5,1311.3 1723.51,1310.53 1724.52,1308.33 1725.53,1306.37 1726.55,1303.99 1727.56,1302.35 1728.57,1301.31 1729.58,1301.19 1730.59,1312.2 1731.6,1311.39 1732.62,1300.82 1733.63,1300.21 1734.64,1275.31 1735.65,1275.12 1736.66,1305.97 1737.67,1305.85 1738.69,1272.29 1739.7,1272.26 1740.71,1315.87 1741.72,1311.2 1742.73,1302.47 1743.74,1302.29 1744.76,1378.93 1745.77,1378.69 1746.78,1307.03 1747.79,1306.28 1748.8,1309.52 1749.81,1309.5 1750.83,1309.34 1751.84,1308.32 1752.85,1275.31 1753.86,1275.27 1754.87,1304.03 1755.88,1303.17 1756.9,1313.82 1757.91,1311.62 1758.92,1309.97 1759.93,1308.82 1760.94,1308.76 1761.95,1308.67 1762.97,1307.06 1763.98,1306.58 1764.99,1309.97 1766,1309.21 1767.01,1273.84 1768.02,1272.23 1769.04,1307.37 1770.05,1307.28 1771.06,1303.36 1772.07,1303.21 1773.08,1306.63 1774.09,1306.38 1775.11,1270.05 1776.12,1268.64 1777.13,1274.98 1778.14,1274.83 1779.15,1305.74 1780.17,1305.6 1781.18,1263.61 1782.19,1260.76 1783.2,1300.8 1784.21,1288.17 1785.22,1305.98 1786.24,1305.95 1787.25,1309.32 1788.26,1309.28 1789.27,1308.77 1790.28,1308.61 1791.29,1308.16 1792.31,1306.31 1793.32,1294 1794.33,1292.11 1795.34,1309.99 1796.35,1308.83 1797.36,1309.18 1798.38,1309.17 1799.39,1301.07 1800.4,1300.63 1801.41,1313.95 1802.42,1310.38 1803.43,1306.19 1804.45,1305.89 1805.46,1275.54 1806.47,1270.9 1807.48,1308.44 1808.49,1308.42 1809.5,1269.54 1810.52,1269.47 1811.53,1304.06 1812.54,1303.2 1813.55,1305.6 1814.56,1305.55 1815.57,1378.66 1816.59,1378.4 1817.6,1307.15 1818.61,1307.13 1819.62,1298.58 1820.63,1297.77 1821.64,1232.43 1822.66,1232.37 1823.67,1293.97 1824.68,1291.68 1825.69,1318.77 1826.7,1316.04 1827.71,1274.52 1828.73,1273.71 1829.74,1312.11 1830.75,1311.26 1831.76,1310.62 1832.77,1310.18 1833.79,1309.46 1834.8,1309.4 1835.81,1309.62 1836.82,1309.44 1837.83,1271.76 1838.84,1271.74 1839.86,1306.01 1840.87,1303.98 1841.88,1294.06 1842.89,1291.21 1843.9,1378.33 1844.91,1378.02 1845.93,1307.23 1846.94,1307.2 1847.95,1299.24 1848.96,1298.17 1849.97,1263.56 1850.98,1261.9 1852,1309.83 1853.01,1309.34 1854.02,1279.52 1855.03,1278.3 1856.04,1307.04 1857.05,1307.03 1858.07,1298.63 1859.08,1298.35 1860.09,1311.38 1861.1,1310.8 1862.11,1300.99 1863.12,1300.84 1864.14,1306.38 1865.15,1306.12 1866.16,1294.18 1867.17,1290.04 1868.18,1302.43 1869.19,1302.35 1870.21,1300.26 1871.22,1300.25 1872.23,1298.19 1873.24,1298.06 1874.25,1276.48 1875.26,1275.94 1876.28,1273.8 1877.29,1273.72 1878.3,1305.5 1879.31,1305.45 1880.32,1305.8 1881.33,1304.51 1882.35,1312.6 1883.36,1311.48 1884.37,1374.29 1885.38,1374.04 1886.39,1308.74 1887.41,1308.67 1888.42,1308.61 1889.43,1308.57 1890.44,1314.97 1891.45,1310.39 1892.46,1310.39 1893.48,1309.86 1894.49,1275.31 1895.5,1275.27 1896.51,1308.95 1897.52,1305.89 1898.53,1313.03 1899.55,1311.46 1900.56,1309.12 1901.57,1309.1 1902.58,1304.71 1903.59,1304.17 1904.6,1272.05 1905.62,1271.92 1906.63,1310.09 1907.64,1309.82 1908.65,1305.44 1909.66,1305.35 1910.67,1303.45 1911.69,1301.29 1912.7,1308.41 1913.71,1307.51 1914.72,1309.12 1915.73,1309.11 1916.74,1304.11 1917.76,1299.07 1918.77,1315.32 1919.78,1313.4 1920.79,1276.43 1921.8,1276.06 1922.81,1308.4 1923.83,1308.35 1924.84,1309.68 1925.85,1309.54 1926.86,1311.41 1927.87,1309.81 1928.88,1310.17 1929.9,1307.56 1930.91,1311.55 1931.92,1310.33 1932.93,1305.5 1933.94,1304.27 1934.95,1307.84 1935.97,1306.9 1936.98,1309.79 1937.99,1308.62 1939,1307.74 1940.01,1307.11 1941.03,1307.42 1942.04,1307.3 1943.05,1272.6 1944.06,1272.44 1945.07,1307.01 1946.08,1306.98 1947.1,1316.2 1948.11,1312.61 1949.12,1303.33 1950.13,1302.8 1951.14,1309.26 1952.15,1309.15 1953.17,1309.01 1954.18,1308.46 1955.19,1310.8 1956.2,1309.27 1957.21,1308.36 1958.22,1307.93 1959.24,1309.84 1960.25,1309.54 1961.26,1308.77 1962.27,1308.74 1963.28,1307.92 1964.29,1305.5 1965.31,1309.68 1966.32,1309.4 1967.33,1309.59 1968.34,1308.81 1969.35,1309.73 1970.36,1308.95 1971.38,1308.56 1972.39,1308.39 1973.4,1268.64 1974.41,1264.36 1975.42,1303.82 1976.43,1303.57 1977.45,1305.01 1978.46,1304.98 1979.47,1263.3 1980.48,1261.67 1981.49,1251.94 1982.5,1249.27 1983.52,1314.89 1984.53,1313.05 1985.54,1304.85 1986.55,1304.81 1987.56,1289.93 1988.57,1287.2 1989.59,1268.65 1990.6,1267.39 1991.61,1300.22 1992.62,1300.15 1993.63,1307.45 1994.65,1307.15 1995.66,1304.83 1996.67,1304.81 1997.68,1308.81 1998.69,1308.48 1999.7,1296.3 2000.72,1295.24 2001.73,1314.02 2002.74,1310.39 2003.75,1244.24 2004.76,1243.01 2005.77,1306.98 2006.79,1306.48 2007.8,1309.7 2008.81,1309.44 2009.82,1310.52 2010.83,1309.78 2011.84,1308.86 2012.86,1308.84 2013.87,1309.07 2014.88,1308.72 2015.89,1308.11 2016.9,1307.24 2017.91,1308.49 2018.93,1308.47 2019.94,1303.81 2020.95,1299.91 2021.96,1314.15 2022.97,1312.38 2023.98,1302.54 2025,1300.05 2026.01,1307.92 2027.02,1307.8 2028.03,1272.54 2029.04,1272.31 2030.05,1301.49 2031.07,1301.29 2032.08,1305.28 2033.09,1305.13 2034.1,1312.64 2035.11,1310.08 2036.12,1306.57 2037.14,1306.39 2038.15,1271.02 2039.16,1270.63 2040.17,1375.75 2041.18,1373.82 2042.19,1312.56 2043.21,1311.28 2044.22,1304.98 2045.23,1302.83 2046.24,1309.1 2047.25,1308.9 2048.27,1306.63 2049.28,1306.59 2050.29,1302.47 2051.3,1302.3 2052.31,1267.57 2053.32,1267.02 2054.34,1313.58 2055.35,1312.01 2056.36,1309.34 2057.37,1309.18 2058.38,1300.86 2059.39,1299.7 2060.41,1304.72 2061.42,1304.18 2062.43,1305.63 2063.44,1305.5 2064.45,1267.16 2065.46,1266.68 2066.48,1268.65 2067.49,1268.25 2068.5,1306.13 2069.51,1305.84 2070.52,1273.1 2071.53,1273.08 2072.55,1277.15 2073.56,1276.46 2074.57,1305.99 2075.58,1305.69 2076.59,1388.94 2077.6,1382.5 2078.62,1303.88 2079.63,1297.44 2080.64,1306.64 2081.65,1306.64 2082.66,1276.69 2083.67,1275.11 2084.69,1276.5 2085.7,1275.87 2086.71,1305.25 2087.72,1305.03 2088.73,1308.66 2089.74,1308.65 2090.76,1307.09 2091.77,1306.56 2092.78,1306.15 2093.79,1305.85 2094.8,1263.06 2095.81,1260.16 2096.83,1310.67 2097.84,1310.03 2098.85,1320.07 2099.86,1314.65 2100.87,1307.41 2101.89,1305.7 2102.9,1274.64 2103.91,1274.62 2104.92,1308.56 2105.93,1308.55 2106.94,1308.53 2107.96,1308.51 2108.97,1305.61 2109.98,1305.55 2110.99,1313.28 2112,1306.94 2113.01,1308.62 2114.03,1308.58 2115.04,1301.13 2116.05,1300.55 2117.06,1305.82 2118.07,1305.6 2119.08,1307.84 2120.1,1307.81 2121.11,1303.36 2122.12,1302.51 2123.13,1301.42 2124.14,1301.3 2125.15,1311.54 2126.17,1310.73 2127.18,1299.57 2128.19,1296.87 2129.2,1304.89 2130.21,1304.71 2131.22,1304.58 2132.24,1304.49 2133.25,1305.96 2134.26,1305.75 2135.27,1316.87 2136.28,1313.03 2137.29,1305.88 2138.31,1305.85 2139.32,1307.79 2140.33,1303.64 2141.34,1312.55 2142.35,1310.52 2143.36,1308.85 2144.38,1308.77 2145.39,1306.13 2146.4,1305.63 2147.41,1309.12 2148.42,1308.96 2149.43,1306.04 2150.45,1305.59 2151.46,1309.16 2152.47,1308.98 2153.48,1308.73 2154.49,1308.67 2155.51,1305.52 2156.52,1305.21 2157.53,1306.25 2158.54,1306.1 2159.55,1307.92 2160.56,1307.15 2161.58,1301.92 2162.59,1300.25 2163.6,1307.9 2164.61,1307.85 2165.62,1268.33 2166.63,1268.15 2167.65,1274.74 2168.66,1273.81 2169.67,1317.04 2170.68,1309.6 2171.69,1304.63 2172.7,1304.48 2173.72,1272.66 2174.73,1272.38 2175.74,1310.66 2176.75,1310.07 2177.76,1305.77 2178.77,1305.72 2179.79,1306.21 2180.8,1304.57 2181.81,1311.81 2182.82,1308.89 2183.83,1306.06 2184.84,1305.81 2185.86,1308.85 2186.87,1308.83 2187.88,1274.8 2188.89,1273.45 2189.9,1305.16 2190.91,1305.13 2191.93,1306.9 2192.94,1306.41 2193.95,1307.23 2194.96,1304.12 2195.97,1274.53 2196.98,1272.67 2198,1274.8 2199.01,1274.77 2200.02,1308.76 2201.03,1307.78 2202.04,1310.18 2203.05,1309.54 2204.07,1309.28 2205.08,1308.1 2206.09,1306.93 2207.1,1306.19 2208.11,1302.44 2209.13,1302.23 2210.14,1308.79 2211.15,1308.75 2212.16,1308.71 2213.17,1308.68 2214.18,1308.38 2215.2,1308.25 2216.21,1310.36 2217.22,1309.34 2218.23,1271.45 2219.24,1271.38 2220.25,1305.9 2221.27,1305.66 2222.28,1309.19 2223.29,1306.76 2224.3,1307.86 2225.31,1307.83 2226.32,1305.48 2227.34,1304.74 2228.35,1306.54 2229.36,1306.51 2230.37,1305.26 2231.38,1305.12 2232.39,1304.03 2233.41,1304 2234.42,1302.52 2235.43,1301.83 2236.44,1294.51 2237.45,1291.82 2238.46,1304.65 2239.48,1304.57 2240.49,1307.18 2241.5,1306.54 2242.51,1291.85 2243.52,1288.51 2244.53,1299.44 2245.55,1299.43 2246.56,1259.45 2247.57,1259.26 2248.58,1316.4 2249.59,1314.18 2250.6,1294.43 2251.62,1293.68 2252.63,1302.18 2253.64,1302.19 2254.65,1312.07 2255.66,1310.26 2256.67,1271.36 2257.69,1271.35 2258.7,1301.5 2259.71,1301.04 2260.72,1300.57 2261.73,1300.53 2262.75,1263.4 2263.76,1263.1 2264.77,1313.18 2265.78,1311.87 2266.79,1304.78 2267.8,1304.73 2268.82,1306.29 2269.83,1306.28 2270.84,1310.82 2271.85,1310.18 2272.86,1304.32 2273.87,1303.83 2274.89,1306.25 2275.9,1306.24 2276.91,1302.1 2277.92,1301.47 2278.93,1314.93 2279.94,1312.9 2280.96,1266.78 2281.97,1265.71 2282.98,1275.72 2283.99,1275.32 2285,1309.71 2286.01,1309.36 2287.03,1306.1 2288.04,1305.99 2289.05,1303.23 2290.06,1299.44 2291.07,1304.55 2292.08,1304.52 "/>
<path clip-path="url(#clip920)" d="M2014.5 198.898 L2281.3 198.898 L2281.3 95.2176 L2014.5 95.2176  Z" fill="#ffffff" fill-rule="evenodd" fill-opacity="1"/>
<polyline clip-path="url(#clip920)" style="stroke:#000000; stroke-linecap:round; stroke-linejoin:round; stroke-width:4; stroke-opacity:1; fill:none" points="2014.5,198.898 2281.3,198.898 2281.3,95.2176 2014.5,95.2176 2014.5,198.898 "/>
<polyline clip-path="url(#clip920)" style="stroke:#009af9; stroke-linecap:round; stroke-linejoin:round; stroke-width:4; stroke-opacity:1; fill:none" points="2038.31,147.058 2181.23,147.058 "/>
<path clip-path="url(#clip920)" d="M2218.89 166.745 Q2217.09 171.375 2215.37 172.787 Q2213.66 174.199 2210.79 174.199 L2207.39 174.199 L2207.39 170.634 L2209.89 170.634 Q2211.65 170.634 2212.62 169.8 Q2213.59 168.967 2214.77 165.865 L2215.53 163.921 L2205.05 138.412 L2209.56 138.412 L2217.66 158.689 L2225.77 138.412 L2230.28 138.412 L2218.89 166.745 Z" fill="#000000" fill-rule="nonzero" fill-opacity="1" /><path clip-path="url(#clip920)" d="M2237.57 160.402 L2245.21 160.402 L2245.21 134.037 L2236.9 135.703 L2236.9 131.444 L2245.16 129.778 L2249.84 129.778 L2249.84 160.402 L2257.48 160.402 L2257.48 164.338 L2237.57 164.338 L2237.57 160.402 Z" fill="#000000" fill-rule="nonzero" fill-opacity="1" /></svg>
