<?xml version="1.0" encoding="utf-8"?>
<svg xmlns="http://www.w3.org/2000/svg" xmlns:xlink="http://www.w3.org/1999/xlink" width="600" height="400" viewBox="0 0 2400 1600">
<defs>
  <clipPath id="clip950">
    <rect x="0" y="0" width="2400" height="1600"/>
  </clipPath>
</defs>
<path clip-path="url(#clip950)" d="M0 1600 L2400 1600 L2400 0 L0 0  Z" fill="#ffffff" fill-rule="evenodd" fill-opacity="1"/>
<defs>
  <clipPath id="clip951">
    <rect x="480" y="0" width="1681" height="1600"/>
  </clipPath>
</defs>
<path clip-path="url(#clip950)" d="M156.274 1486.45 L2352.76 1486.45 L2352.76 47.2441 L156.274 47.2441  Z" fill="#ffffff" fill-rule="evenodd" fill-opacity="1"/>
<defs>
  <clipPath id="clip952">
    <rect x="156" y="47" width="2197" height="1440"/>
  </clipPath>
</defs>
<polyline clip-path="url(#clip952)" style="stroke:#000000; stroke-linecap:round; stroke-linejoin:round; stroke-width:2; stroke-opacity:0.1; fill:none" points="218.439,1486.45 218.439,47.2441 "/>
<polyline clip-path="url(#clip952)" style="stroke:#000000; stroke-linecap:round; stroke-linejoin:round; stroke-width:2; stroke-opacity:0.1; fill:none" points="736.995,1486.45 736.995,47.2441 "/>
<polyline clip-path="url(#clip952)" style="stroke:#000000; stroke-linecap:round; stroke-linejoin:round; stroke-width:2; stroke-opacity:0.1; fill:none" points="1255.55,1486.45 1255.55,47.2441 "/>
<polyline clip-path="url(#clip952)" style="stroke:#000000; stroke-linecap:round; stroke-linejoin:round; stroke-width:2; stroke-opacity:0.1; fill:none" points="1774.11,1486.45 1774.11,47.2441 "/>
<polyline clip-path="url(#clip952)" style="stroke:#000000; stroke-linecap:round; stroke-linejoin:round; stroke-width:2; stroke-opacity:0.1; fill:none" points="2292.67,1486.45 2292.67,47.2441 "/>
<polyline clip-path="url(#clip950)" style="stroke:#000000; stroke-linecap:round; stroke-linejoin:round; stroke-width:4; stroke-opacity:1; fill:none" points="156.274,1486.45 2352.76,1486.45 "/>
<polyline clip-path="url(#clip950)" style="stroke:#000000; stroke-linecap:round; stroke-linejoin:round; stroke-width:4; stroke-opacity:1; fill:none" points="218.439,1486.45 218.439,1467.55 "/>
<polyline clip-path="url(#clip950)" style="stroke:#000000; stroke-linecap:round; stroke-linejoin:round; stroke-width:4; stroke-opacity:1; fill:none" points="736.995,1486.45 736.995,1467.55 "/>
<polyline clip-path="url(#clip950)" style="stroke:#000000; stroke-linecap:round; stroke-linejoin:round; stroke-width:4; stroke-opacity:1; fill:none" points="1255.55,1486.45 1255.55,1467.55 "/>
<polyline clip-path="url(#clip950)" style="stroke:#000000; stroke-linecap:round; stroke-linejoin:round; stroke-width:4; stroke-opacity:1; fill:none" points="1774.11,1486.45 1774.11,1467.55 "/>
<polyline clip-path="url(#clip950)" style="stroke:#000000; stroke-linecap:round; stroke-linejoin:round; stroke-width:4; stroke-opacity:1; fill:none" points="2292.67,1486.45 2292.67,1467.55 "/>
<path clip-path="url(#clip950)" d="M218.439 1517.37 Q214.828 1517.37 212.999 1520.93 Q211.193 1524.47 211.193 1531.6 Q211.193 1538.71 212.999 1542.27 Q214.828 1545.82 218.439 1545.82 Q222.073 1545.82 223.879 1542.27 Q225.707 1538.71 225.707 1531.6 Q225.707 1524.47 223.879 1520.93 Q222.073 1517.37 218.439 1517.37 M218.439 1513.66 Q224.249 1513.66 227.304 1518.27 Q230.383 1522.85 230.383 1531.6 Q230.383 1540.33 227.304 1544.94 Q224.249 1549.52 218.439 1549.52 Q212.629 1549.52 209.55 1544.94 Q206.494 1540.33 206.494 1531.6 Q206.494 1522.85 209.55 1518.27 Q212.629 1513.66 218.439 1513.66 Z" fill="#000000" fill-rule="nonzero" fill-opacity="1" /><path clip-path="url(#clip950)" d="M700.688 1544.91 L717.007 1544.91 L717.007 1548.85 L695.063 1548.85 L695.063 1544.91 Q697.725 1542.16 702.308 1537.53 Q706.915 1532.88 708.095 1531.53 Q710.34 1529.01 711.22 1527.27 Q712.123 1525.51 712.123 1523.82 Q712.123 1521.07 710.178 1519.33 Q708.257 1517.6 705.155 1517.6 Q702.956 1517.6 700.503 1518.36 Q698.072 1519.13 695.294 1520.68 L695.294 1515.95 Q698.118 1514.82 700.572 1514.24 Q703.026 1513.66 705.063 1513.66 Q710.433 1513.66 713.628 1516.35 Q716.822 1519.03 716.822 1523.52 Q716.822 1525.65 716.012 1527.57 Q715.225 1529.47 713.118 1532.07 Q712.54 1532.74 709.438 1535.95 Q706.336 1539.15 700.688 1544.91 Z" fill="#000000" fill-rule="nonzero" fill-opacity="1" /><path clip-path="url(#clip950)" d="M726.868 1514.29 L745.225 1514.29 L745.225 1518.22 L731.151 1518.22 L731.151 1526.7 Q732.169 1526.35 733.188 1526.19 Q734.206 1526 735.225 1526 Q741.012 1526 744.391 1529.17 Q747.771 1532.34 747.771 1537.76 Q747.771 1543.34 744.299 1546.44 Q740.826 1549.52 734.507 1549.52 Q732.331 1549.52 730.063 1549.15 Q727.817 1548.78 725.41 1548.04 L725.41 1543.34 Q727.493 1544.47 729.715 1545.03 Q731.938 1545.58 734.414 1545.58 Q738.419 1545.58 740.757 1543.48 Q743.095 1541.37 743.095 1537.76 Q743.095 1534.15 740.757 1532.04 Q738.419 1529.94 734.414 1529.94 Q732.539 1529.94 730.664 1530.35 Q728.813 1530.77 726.868 1531.65 L726.868 1514.29 Z" fill="#000000" fill-rule="nonzero" fill-opacity="1" /><path clip-path="url(#clip950)" d="M766.984 1517.37 Q763.373 1517.37 761.544 1520.93 Q759.738 1524.47 759.738 1531.6 Q759.738 1538.71 761.544 1542.27 Q763.373 1545.82 766.984 1545.82 Q770.618 1545.82 772.423 1542.27 Q774.252 1538.71 774.252 1531.6 Q774.252 1524.47 772.423 1520.93 Q770.618 1517.37 766.984 1517.37 M766.984 1513.66 Q772.794 1513.66 775.849 1518.27 Q778.928 1522.85 778.928 1531.6 Q778.928 1540.33 775.849 1544.94 Q772.794 1549.52 766.984 1549.52 Q761.174 1549.52 758.095 1544.94 Q755.039 1540.33 755.039 1531.6 Q755.039 1522.85 758.095 1518.27 Q761.174 1513.66 766.984 1513.66 Z" fill="#000000" fill-rule="nonzero" fill-opacity="1" /><path clip-path="url(#clip950)" d="M1215.17 1514.29 L1233.53 1514.29 L1233.53 1518.22 L1219.45 1518.22 L1219.45 1526.7 Q1220.47 1526.35 1221.49 1526.19 Q1222.51 1526 1223.53 1526 Q1229.31 1526 1232.69 1529.17 Q1236.07 1532.34 1236.07 1537.76 Q1236.07 1543.34 1232.6 1546.44 Q1229.13 1549.52 1222.81 1549.52 Q1220.63 1549.52 1218.36 1549.15 Q1216.12 1548.78 1213.71 1548.04 L1213.71 1543.34 Q1215.8 1544.47 1218.02 1545.03 Q1220.24 1545.58 1222.72 1545.58 Q1226.72 1545.58 1229.06 1543.48 Q1231.4 1541.37 1231.4 1537.76 Q1231.4 1534.15 1229.06 1532.04 Q1226.72 1529.94 1222.72 1529.94 Q1220.84 1529.94 1218.97 1530.35 Q1217.11 1530.77 1215.17 1531.65 L1215.17 1514.29 Z" fill="#000000" fill-rule="nonzero" fill-opacity="1" /><path clip-path="url(#clip950)" d="M1255.29 1517.37 Q1251.67 1517.37 1249.85 1520.93 Q1248.04 1524.47 1248.04 1531.6 Q1248.04 1538.71 1249.85 1542.27 Q1251.67 1545.82 1255.29 1545.82 Q1258.92 1545.82 1260.73 1542.27 Q1262.55 1538.71 1262.55 1531.6 Q1262.55 1524.47 1260.73 1520.93 Q1258.92 1517.37 1255.29 1517.37 M1255.29 1513.66 Q1261.1 1513.66 1264.15 1518.27 Q1267.23 1522.85 1267.23 1531.6 Q1267.23 1540.33 1264.15 1544.94 Q1261.1 1549.52 1255.29 1549.52 Q1249.48 1549.52 1246.4 1544.94 Q1243.34 1540.33 1243.34 1531.6 Q1243.34 1522.85 1246.4 1518.27 Q1249.48 1513.66 1255.29 1513.66 Z" fill="#000000" fill-rule="nonzero" fill-opacity="1" /><path clip-path="url(#clip950)" d="M1285.45 1517.37 Q1281.84 1517.37 1280.01 1520.93 Q1278.2 1524.47 1278.2 1531.6 Q1278.2 1538.71 1280.01 1542.27 Q1281.84 1545.82 1285.45 1545.82 Q1289.08 1545.82 1290.89 1542.27 Q1292.72 1538.71 1292.72 1531.6 Q1292.72 1524.47 1290.89 1520.93 Q1289.08 1517.37 1285.45 1517.37 M1285.45 1513.66 Q1291.26 1513.66 1294.31 1518.27 Q1297.39 1522.85 1297.39 1531.6 Q1297.39 1540.33 1294.31 1544.94 Q1291.26 1549.52 1285.45 1549.52 Q1279.64 1549.52 1276.56 1544.94 Q1273.5 1540.33 1273.5 1531.6 Q1273.5 1522.85 1276.56 1518.27 Q1279.64 1513.66 1285.45 1513.66 Z" fill="#000000" fill-rule="nonzero" fill-opacity="1" /><path clip-path="url(#clip950)" d="M1732.38 1514.29 L1754.61 1514.29 L1754.61 1516.28 L1742.06 1548.85 L1737.18 1548.85 L1748.98 1518.22 L1732.38 1518.22 L1732.38 1514.29 Z" fill="#000000" fill-rule="nonzero" fill-opacity="1" /><path clip-path="url(#clip950)" d="M1763.77 1514.29 L1782.13 1514.29 L1782.13 1518.22 L1768.06 1518.22 L1768.06 1526.7 Q1769.07 1526.35 1770.09 1526.19 Q1771.11 1526 1772.13 1526 Q1777.92 1526 1781.3 1529.17 Q1784.68 1532.34 1784.68 1537.76 Q1784.68 1543.34 1781.2 1546.44 Q1777.73 1549.52 1771.41 1549.52 Q1769.24 1549.52 1766.97 1549.15 Q1764.72 1548.78 1762.31 1548.04 L1762.31 1543.34 Q1764.4 1544.47 1766.62 1545.03 Q1768.84 1545.58 1771.32 1545.58 Q1775.32 1545.58 1777.66 1543.48 Q1780 1541.37 1780 1537.76 Q1780 1534.15 1777.66 1532.04 Q1775.32 1529.94 1771.32 1529.94 Q1769.44 1529.94 1767.57 1530.35 Q1765.72 1530.77 1763.77 1531.65 L1763.77 1514.29 Z" fill="#000000" fill-rule="nonzero" fill-opacity="1" /><path clip-path="url(#clip950)" d="M1803.89 1517.37 Q1800.28 1517.37 1798.45 1520.93 Q1796.64 1524.47 1796.64 1531.6 Q1796.64 1538.71 1798.45 1542.27 Q1800.28 1545.82 1803.89 1545.82 Q1807.52 1545.82 1809.33 1542.27 Q1811.16 1538.71 1811.16 1531.6 Q1811.16 1524.47 1809.33 1520.93 Q1807.52 1517.37 1803.89 1517.37 M1803.89 1513.66 Q1809.7 1513.66 1812.75 1518.27 Q1815.83 1522.85 1815.83 1531.6 Q1815.83 1540.33 1812.75 1544.94 Q1809.7 1549.52 1803.89 1549.52 Q1798.08 1549.52 1795 1544.94 Q1791.94 1540.33 1791.94 1531.6 Q1791.94 1522.85 1795 1518.27 Q1798.08 1513.66 1803.89 1513.66 Z" fill="#000000" fill-rule="nonzero" fill-opacity="1" /><path clip-path="url(#clip950)" d="M2237.19 1544.91 L2244.83 1544.91 L2244.83 1518.55 L2236.52 1520.21 L2236.52 1515.95 L2244.78 1514.29 L2249.46 1514.29 L2249.46 1544.91 L2257.1 1544.91 L2257.1 1548.85 L2237.19 1548.85 L2237.19 1544.91 Z" fill="#000000" fill-rule="nonzero" fill-opacity="1" /><path clip-path="url(#clip950)" d="M2276.54 1517.37 Q2272.93 1517.37 2271.1 1520.93 Q2269.3 1524.47 2269.3 1531.6 Q2269.3 1538.71 2271.1 1542.27 Q2272.93 1545.82 2276.54 1545.82 Q2280.18 1545.82 2281.98 1542.27 Q2283.81 1538.71 2283.81 1531.6 Q2283.81 1524.47 2281.98 1520.93 Q2280.18 1517.37 2276.54 1517.37 M2276.54 1513.66 Q2282.35 1513.66 2285.41 1518.27 Q2288.49 1522.85 2288.49 1531.6 Q2288.49 1540.33 2285.41 1544.94 Q2282.35 1549.52 2276.54 1549.52 Q2270.73 1549.52 2267.65 1544.94 Q2264.6 1540.33 2264.6 1531.6 Q2264.6 1522.85 2267.65 1518.27 Q2270.73 1513.66 2276.54 1513.66 Z" fill="#000000" fill-rule="nonzero" fill-opacity="1" /><path clip-path="url(#clip950)" d="M2306.7 1517.37 Q2303.09 1517.37 2301.27 1520.93 Q2299.46 1524.47 2299.46 1531.6 Q2299.46 1538.71 2301.27 1542.27 Q2303.09 1545.82 2306.7 1545.82 Q2310.34 1545.82 2312.14 1542.27 Q2313.97 1538.71 2313.97 1531.6 Q2313.97 1524.47 2312.14 1520.93 Q2310.34 1517.37 2306.7 1517.37 M2306.7 1513.66 Q2312.51 1513.66 2315.57 1518.27 Q2318.65 1522.85 2318.65 1531.6 Q2318.65 1540.33 2315.57 1544.94 Q2312.51 1549.52 2306.7 1549.52 Q2300.89 1549.52 2297.82 1544.94 Q2294.76 1540.33 2294.76 1531.6 Q2294.76 1522.85 2297.82 1518.27 Q2300.89 1513.66 2306.7 1513.66 Z" fill="#000000" fill-rule="nonzero" fill-opacity="1" /><path clip-path="url(#clip950)" d="M2336.87 1517.37 Q2333.26 1517.37 2331.43 1520.93 Q2329.62 1524.47 2329.62 1531.6 Q2329.62 1538.71 2331.43 1542.27 Q2333.26 1545.82 2336.87 1545.82 Q2340.5 1545.82 2342.31 1542.27 Q2344.14 1538.71 2344.14 1531.6 Q2344.14 1524.47 2342.31 1520.93 Q2340.5 1517.37 2336.87 1517.37 M2336.87 1513.66 Q2342.68 1513.66 2345.73 1518.27 Q2348.81 1522.85 2348.81 1531.6 Q2348.81 1540.33 2345.73 1544.94 Q2342.68 1549.52 2336.87 1549.52 Q2331.06 1549.52 2327.98 1544.94 Q2324.92 1540.33 2324.92 1531.6 Q2324.92 1522.85 2327.98 1518.27 Q2331.06 1513.66 2336.87 1513.66 Z" fill="#000000" fill-rule="nonzero" fill-opacity="1" /><polyline clip-path="url(#clip952)" style="stroke:#000000; stroke-linecap:round; stroke-linejoin:round; stroke-width:2; stroke-opacity:0.1; fill:none" points="156.274,1268.62 2352.76,1268.62 "/>
<polyline clip-path="url(#clip952)" style="stroke:#000000; stroke-linecap:round; stroke-linejoin:round; stroke-width:2; stroke-opacity:0.1; fill:none" points="156.274,973.459 2352.76,973.459 "/>
<polyline clip-path="url(#clip952)" style="stroke:#000000; stroke-linecap:round; stroke-linejoin:round; stroke-width:2; stroke-opacity:0.1; fill:none" points="156.274,678.298 2352.76,678.298 "/>
<polyline clip-path="url(#clip952)" style="stroke:#000000; stroke-linecap:round; stroke-linejoin:round; stroke-width:2; stroke-opacity:0.1; fill:none" points="156.274,383.137 2352.76,383.137 "/>
<polyline clip-path="url(#clip952)" style="stroke:#000000; stroke-linecap:round; stroke-linejoin:round; stroke-width:2; stroke-opacity:0.1; fill:none" points="156.274,87.9763 2352.76,87.9763 "/>
<polyline clip-path="url(#clip950)" style="stroke:#000000; stroke-linecap:round; stroke-linejoin:round; stroke-width:4; stroke-opacity:1; fill:none" points="156.274,1486.45 156.274,47.2441 "/>
<polyline clip-path="url(#clip950)" style="stroke:#000000; stroke-linecap:round; stroke-linejoin:round; stroke-width:4; stroke-opacity:1; fill:none" points="156.274,1268.62 175.172,1268.62 "/>
<polyline clip-path="url(#clip950)" style="stroke:#000000; stroke-linecap:round; stroke-linejoin:round; stroke-width:4; stroke-opacity:1; fill:none" points="156.274,973.459 175.172,973.459 "/>
<polyline clip-path="url(#clip950)" style="stroke:#000000; stroke-linecap:round; stroke-linejoin:round; stroke-width:4; stroke-opacity:1; fill:none" points="156.274,678.298 175.172,678.298 "/>
<polyline clip-path="url(#clip950)" style="stroke:#000000; stroke-linecap:round; stroke-linejoin:round; stroke-width:4; stroke-opacity:1; fill:none" points="156.274,383.137 175.172,383.137 "/>
<polyline clip-path="url(#clip950)" style="stroke:#000000; stroke-linecap:round; stroke-linejoin:round; stroke-width:4; stroke-opacity:1; fill:none" points="156.274,87.9763 175.172,87.9763 "/>
<path clip-path="url(#clip950)" d="M62.9365 1254.42 Q59.3254 1254.42 57.4967 1257.98 Q55.6912 1261.52 55.6912 1268.65 Q55.6912 1275.76 57.4967 1279.33 Q59.3254 1282.87 62.9365 1282.87 Q66.5707 1282.87 68.3763 1279.33 Q70.205 1275.76 70.205 1268.65 Q70.205 1261.52 68.3763 1257.98 Q66.5707 1254.42 62.9365 1254.42 M62.9365 1250.71 Q68.7467 1250.71 71.8022 1255.32 Q74.8809 1259.9 74.8809 1268.65 Q74.8809 1277.38 71.8022 1281.99 Q68.7467 1286.57 62.9365 1286.57 Q57.1264 1286.57 54.0477 1281.99 Q50.9921 1277.38 50.9921 1268.65 Q50.9921 1259.9 54.0477 1255.32 Q57.1264 1250.71 62.9365 1250.71 Z" fill="#000000" fill-rule="nonzero" fill-opacity="1" /><path clip-path="url(#clip950)" d="M83.0984 1280.02 L87.9827 1280.02 L87.9827 1285.9 L83.0984 1285.9 L83.0984 1280.02 Z" fill="#000000" fill-rule="nonzero" fill-opacity="1" /><path clip-path="url(#clip950)" d="M108.746 1266.76 Q105.598 1266.76 103.746 1268.91 Q101.918 1271.06 101.918 1274.81 Q101.918 1278.54 103.746 1280.71 Q105.598 1282.87 108.746 1282.87 Q111.895 1282.87 113.723 1280.71 Q115.575 1278.54 115.575 1274.81 Q115.575 1271.06 113.723 1268.91 Q111.895 1266.76 108.746 1266.76 M118.029 1252.1 L118.029 1256.36 Q116.27 1255.53 114.464 1255.09 Q112.682 1254.65 110.922 1254.65 Q106.293 1254.65 103.839 1257.77 Q101.409 1260.9 101.061 1267.22 Q102.427 1265.2 104.487 1264.14 Q106.547 1263.05 109.024 1263.05 Q114.233 1263.05 117.242 1266.22 Q120.274 1269.37 120.274 1274.81 Q120.274 1280.14 117.126 1283.35 Q113.978 1286.57 108.746 1286.57 Q102.751 1286.57 99.5798 1281.99 Q96.4085 1277.38 96.4085 1268.65 Q96.4085 1260.46 100.297 1255.6 Q104.186 1250.71 110.737 1250.71 Q112.496 1250.71 114.279 1251.06 Q116.084 1251.41 118.029 1252.1 Z" fill="#000000" fill-rule="nonzero" fill-opacity="1" /><path clip-path="url(#clip950)" d="M64.0013 959.257 Q60.3902 959.257 58.5615 962.822 Q56.756 966.364 56.756 973.493 Q56.756 980.6 58.5615 984.164 Q60.3902 987.706 64.0013 987.706 Q67.6356 987.706 69.4411 984.164 Q71.2698 980.6 71.2698 973.493 Q71.2698 966.364 69.4411 962.822 Q67.6356 959.257 64.0013 959.257 M64.0013 955.554 Q69.8115 955.554 72.867 960.16 Q75.9457 964.743 75.9457 973.493 Q75.9457 982.22 72.867 986.826 Q69.8115 991.41 64.0013 991.41 Q58.1912 991.41 55.1125 986.826 Q52.0569 982.22 52.0569 973.493 Q52.0569 964.743 55.1125 960.16 Q58.1912 955.554 64.0013 955.554 Z" fill="#000000" fill-rule="nonzero" fill-opacity="1" /><path clip-path="url(#clip950)" d="M84.1632 984.859 L89.0475 984.859 L89.0475 990.739 L84.1632 990.739 L84.1632 984.859 Z" fill="#000000" fill-rule="nonzero" fill-opacity="1" /><path clip-path="url(#clip950)" d="M98.0521 956.179 L120.274 956.179 L120.274 958.169 L107.728 990.739 L102.844 990.739 L114.649 960.114 L98.0521 960.114 L98.0521 956.179 Z" fill="#000000" fill-rule="nonzero" fill-opacity="1" /><path clip-path="url(#clip950)" d="M63.1911 664.096 Q59.58 664.096 57.7513 667.661 Q55.9458 671.203 55.9458 678.332 Q55.9458 685.439 57.7513 689.004 Q59.58 692.545 63.1911 692.545 Q66.8254 692.545 68.6309 689.004 Q70.4596 685.439 70.4596 678.332 Q70.4596 671.203 68.6309 667.661 Q66.8254 664.096 63.1911 664.096 M63.1911 660.393 Q69.0013 660.393 72.0568 664.999 Q75.1355 669.583 75.1355 678.332 Q75.1355 687.059 72.0568 691.666 Q69.0013 696.249 63.1911 696.249 Q57.381 696.249 54.3023 691.666 Q51.2468 687.059 51.2468 678.332 Q51.2468 669.583 54.3023 664.999 Q57.381 660.393 63.1911 660.393 Z" fill="#000000" fill-rule="nonzero" fill-opacity="1" /><path clip-path="url(#clip950)" d="M83.3531 689.698 L88.2373 689.698 L88.2373 695.578 L83.3531 695.578 L83.3531 689.698 Z" fill="#000000" fill-rule="nonzero" fill-opacity="1" /><path clip-path="url(#clip950)" d="M108.422 679.166 Q105.089 679.166 103.168 680.948 Q101.27 682.731 101.27 685.856 Q101.27 688.981 103.168 690.763 Q105.089 692.545 108.422 692.545 Q111.756 692.545 113.677 690.763 Q115.598 688.957 115.598 685.856 Q115.598 682.731 113.677 680.948 Q111.779 679.166 108.422 679.166 M103.746 677.175 Q100.737 676.434 99.0474 674.374 Q97.3808 672.314 97.3808 669.351 Q97.3808 665.208 100.321 662.8 Q103.284 660.393 108.422 660.393 Q113.584 660.393 116.524 662.8 Q119.464 665.208 119.464 669.351 Q119.464 672.314 117.774 674.374 Q116.108 676.434 113.121 677.175 Q116.501 677.962 118.376 680.254 Q120.274 682.545 120.274 685.856 Q120.274 690.879 117.195 693.564 Q114.14 696.249 108.422 696.249 Q102.705 696.249 99.6261 693.564 Q96.5706 690.879 96.5706 685.856 Q96.5706 682.545 98.4687 680.254 Q100.367 677.962 103.746 677.175 M102.034 669.791 Q102.034 672.476 103.7 673.981 Q105.39 675.485 108.422 675.485 Q111.432 675.485 113.121 673.981 Q114.834 672.476 114.834 669.791 Q114.834 667.106 113.121 665.601 Q111.432 664.096 108.422 664.096 Q105.39 664.096 103.7 665.601 Q102.034 667.106 102.034 669.791 Z" fill="#000000" fill-rule="nonzero" fill-opacity="1" /><path clip-path="url(#clip950)" d="M63.2837 368.936 Q59.6726 368.936 57.8439 372.501 Q56.0384 376.042 56.0384 383.172 Q56.0384 390.278 57.8439 393.843 Q59.6726 397.385 63.2837 397.385 Q66.918 397.385 68.7235 393.843 Q70.5522 390.278 70.5522 383.172 Q70.5522 376.042 68.7235 372.501 Q66.918 368.936 63.2837 368.936 M63.2837 365.232 Q69.0939 365.232 72.1494 369.838 Q75.2281 374.422 75.2281 383.172 Q75.2281 391.899 72.1494 396.505 Q69.0939 401.088 63.2837 401.088 Q57.4736 401.088 54.3949 396.505 Q51.3393 391.899 51.3393 383.172 Q51.3393 374.422 54.3949 369.838 Q57.4736 365.232 63.2837 365.232 Z" fill="#000000" fill-rule="nonzero" fill-opacity="1" /><path clip-path="url(#clip950)" d="M83.4457 394.537 L88.3299 394.537 L88.3299 400.417 L83.4457 400.417 L83.4457 394.537 Z" fill="#000000" fill-rule="nonzero" fill-opacity="1" /><path clip-path="url(#clip950)" d="M98.6539 399.699 L98.6539 395.44 Q100.413 396.274 102.219 396.713 Q104.024 397.153 105.76 397.153 Q110.39 397.153 112.82 394.051 Q115.274 390.926 115.621 384.584 Q114.279 386.575 112.219 387.639 Q110.158 388.704 107.658 388.704 Q102.473 388.704 99.4409 385.579 Q96.4317 382.431 96.4317 376.991 Q96.4317 371.667 99.5798 368.45 Q102.728 365.232 107.959 365.232 Q113.955 365.232 117.103 369.838 Q120.274 374.422 120.274 383.172 Q120.274 391.343 116.385 396.227 Q112.52 401.088 105.969 401.088 Q104.209 401.088 102.404 400.741 Q100.598 400.394 98.6539 399.699 M107.959 385.047 Q111.108 385.047 112.936 382.894 Q114.788 380.741 114.788 376.991 Q114.788 373.264 112.936 371.112 Q111.108 368.936 107.959 368.936 Q104.811 368.936 102.959 371.112 Q101.131 373.264 101.131 376.991 Q101.131 380.741 102.959 382.894 Q104.811 385.047 107.959 385.047 Z" fill="#000000" fill-rule="nonzero" fill-opacity="1" /><path clip-path="url(#clip950)" d="M53.9088 101.321 L61.5476 101.321 L61.5476 74.9555 L53.2375 76.6222 L53.2375 72.3629 L61.5013 70.6963 L66.1772 70.6963 L66.1772 101.321 L73.8161 101.321 L73.8161 105.256 L53.9088 105.256 L53.9088 101.321 Z" fill="#000000" fill-rule="nonzero" fill-opacity="1" /><path clip-path="url(#clip950)" d="M83.2605 99.3767 L88.1447 99.3767 L88.1447 105.256 L83.2605 105.256 L83.2605 99.3767 Z" fill="#000000" fill-rule="nonzero" fill-opacity="1" /><path clip-path="url(#clip950)" d="M108.33 73.775 Q104.719 73.775 102.89 77.3398 Q101.084 80.8814 101.084 88.011 Q101.084 95.1174 102.89 98.6822 Q104.719 102.224 108.33 102.224 Q111.964 102.224 113.77 98.6822 Q115.598 95.1174 115.598 88.011 Q115.598 80.8814 113.77 77.3398 Q111.964 73.775 108.33 73.775 M108.33 70.0713 Q114.14 70.0713 117.195 74.6777 Q120.274 79.261 120.274 88.011 Q120.274 96.7378 117.195 101.344 Q114.14 105.928 108.33 105.928 Q102.52 105.928 99.4409 101.344 Q96.3854 96.7378 96.3854 88.011 Q96.3854 79.261 99.4409 74.6777 Q102.52 70.0713 108.33 70.0713 Z" fill="#000000" fill-rule="nonzero" fill-opacity="1" /><polyline clip-path="url(#clip952)" style="stroke:#009af9; stroke-linecap:round; stroke-linejoin:round; stroke-width:4; stroke-opacity:1; fill:none" points="218.439,1150.55 220.513,796.362 222.587,1386.68 224.661,1091.52 226.736,1386.68 228.81,1445.72 230.884,1032.49 232.958,737.33 235.033,1209.59 237.107,796.362 239.181,796.362 241.255,442.169 243.329,560.233 245.404,914.426 247.478,737.33 249.552,560.233 251.626,678.298 253.701,560.233 255.775,324.105 257.849,619.266 259.923,501.201 261.998,560.233 264.072,442.169 266.146,324.105 268.22,324.105 270.294,501.201 272.369,383.137 274.443,560.233 276.517,619.266 278.591,560.233 280.666,383.137 282.74,383.137 284.814,265.073 286.888,501.201 288.962,324.105 291.037,206.041 293.111,383.137 295.185,383.137 297.259,206.041 299.334,442.169 301.408,383.137 303.482,206.041 305.556,206.041 307.63,442.169 309.705,206.041 311.779,442.169 313.853,206.041 315.927,206.041 318.002,324.105 320.076,206.041 322.15,87.9763 324.224,265.073 326.299,324.105 328.373,442.169 330.447,147.008 332.521,147.008 334.595,206.041 336.67,324.105 338.744,324.105 340.818,87.9763 342.892,383.137 344.967,147.008 347.041,324.105 349.115,265.073 351.189,206.041 353.263,87.9763 355.338,206.041 357.412,265.073 359.486,206.041 361.56,87.9763 363.635,265.073 365.709,265.073 367.783,265.073 369.857,206.041 371.932,147.008 374.006,87.9763 376.08,383.137 378.154,147.008 380.228,206.041 382.303,147.008 384.377,265.073 386.451,206.041 388.525,324.105 390.6,383.137 392.674,147.008 394.748,265.073 396.822,206.041 398.896,206.041 400.971,206.041 403.045,87.9763 405.119,324.105 407.193,147.008 409.268,147.008 411.342,147.008 413.416,206.041 415.49,265.073 417.565,147.008 419.639,87.9763 421.713,87.9763 423.787,206.041 425.861,87.9763 427.936,206.041 430.01,324.105 432.084,87.9763 434.158,87.9763 436.233,147.008 438.307,206.041 440.381,147.008 442.455,265.073 444.529,87.9763 446.604,147.008 448.678,87.9763 450.752,147.008 452.826,206.041 454.901,206.041 456.975,87.9763 459.049,87.9763 461.123,87.9763 463.198,206.041 465.272,87.9763 467.346,87.9763 469.42,147.008 471.494,147.008 473.569,147.008 475.643,147.008 477.717,206.041 479.791,147.008 481.866,206.041 483.94,87.9763 486.014,147.008 488.088,147.008 490.162,147.008 492.237,147.008 494.311,87.9763 496.385,147.008 498.459,87.9763 500.534,87.9763 502.608,206.041 504.682,147.008 506.756,87.9763 508.83,87.9763 510.905,147.008 512.979,87.9763 515.053,206.041 517.127,87.9763 519.202,147.008 521.276,147.008 523.35,206.041 525.424,147.008 527.499,87.9763 529.573,87.9763 531.647,87.9763 533.721,147.008 535.795,87.9763 537.87,147.008 539.944,147.008 542.018,147.008 544.092,147.008 546.167,265.073 548.241,206.041 550.315,147.008 552.389,87.9763 554.463,147.008 556.538,265.073 558.612,147.008 560.686,206.041 562.76,206.041 564.835,87.9763 566.909,206.041 568.983,147.008 571.057,147.008 573.132,265.073 575.206,147.008 577.28,87.9763 579.354,87.9763 581.428,147.008 583.503,87.9763 585.577,87.9763 587.651,87.9763 589.725,206.041 591.8,206.041 593.874,147.008 595.948,87.9763 598.022,206.041 600.096,87.9763 602.171,147.008 604.245,147.008 606.319,206.041 608.393,87.9763 610.468,147.008 612.542,87.9763 614.616,87.9763 616.69,87.9763 618.765,147.008 620.839,147.008 622.913,87.9763 624.987,87.9763 627.061,87.9763 629.136,206.041 631.21,87.9763 633.284,147.008 635.358,87.9763 637.433,87.9763 639.507,87.9763 641.581,87.9763 643.655,87.9763 645.729,147.008 647.804,206.041 649.878,87.9763 651.952,147.008 654.026,147.008 656.101,87.9763 658.175,206.041 660.249,147.008 662.323,87.9763 664.398,87.9763 666.472,87.9763 668.546,87.9763 670.62,206.041 672.694,87.9763 674.769,147.008 676.843,147.008 678.917,87.9763 680.991,87.9763 683.066,87.9763 685.14,147.008 687.214,87.9763 689.288,87.9763 691.362,87.9763 693.437,87.9763 695.511,87.9763 697.585,147.008 699.659,87.9763 701.734,87.9763 703.808,147.008 705.882,87.9763 707.956,87.9763 710.03,265.073 712.105,87.9763 714.179,147.008 716.253,87.9763 718.327,87.9763 720.402,87.9763 722.476,147.008 724.55,87.9763 726.624,87.9763 728.699,87.9763 730.773,87.9763 732.847,147.008 734.921,87.9763 736.995,147.008 739.07,87.9763 741.144,87.9763 743.218,87.9763 745.292,147.008 747.367,87.9763 749.441,87.9763 751.515,87.9763 753.589,147.008 755.663,87.9763 757.738,87.9763 759.812,147.008 761.886,87.9763 763.96,147.008 766.035,87.9763 768.109,87.9763 770.183,87.9763 772.257,87.9763 774.332,206.041 776.406,87.9763 778.48,87.9763 780.554,87.9763 782.628,87.9763 784.703,147.008 786.777,147.008 788.851,147.008 790.925,87.9763 793,87.9763 795.074,87.9763 797.148,87.9763 799.222,87.9763 801.296,87.9763 803.371,87.9763 805.445,87.9763 807.519,147.008 809.593,206.041 811.668,87.9763 813.742,87.9763 815.816,87.9763 817.89,87.9763 819.965,206.041 822.039,147.008 824.113,87.9763 826.187,147.008 828.261,87.9763 830.336,87.9763 832.41,147.008 834.484,87.9763 836.558,87.9763 838.633,87.9763 840.707,87.9763 842.781,206.041 844.855,147.008 846.929,147.008 849.004,87.9763 851.078,147.008 853.152,87.9763 855.226,147.008 857.301,87.9763 859.375,87.9763 861.449,147.008 863.523,87.9763 865.598,147.008 867.672,87.9763 869.746,87.9763 871.82,147.008 873.894,87.9763 875.969,87.9763 878.043,87.9763 880.117,87.9763 882.191,147.008 884.266,87.9763 886.34,87.9763 888.414,147.008 890.488,87.9763 892.562,87.9763 894.637,87.9763 896.711,87.9763 898.785,87.9763 900.859,147.008 902.934,147.008 905.008,87.9763 907.082,147.008 909.156,87.9763 911.23,87.9763 913.305,147.008 915.379,87.9763 917.453,87.9763 919.527,147.008 921.602,265.073 923.676,87.9763 925.75,147.008 927.824,87.9763 929.899,87.9763 931.973,87.9763 934.047,147.008 936.121,147.008 938.195,87.9763 940.27,87.9763 942.344,87.9763 944.418,147.008 946.492,87.9763 948.567,147.008 950.641,87.9763 952.715,87.9763 954.789,87.9763 956.863,87.9763 958.938,147.008 961.012,87.9763 963.086,87.9763 965.16,87.9763 967.235,147.008 969.309,147.008 971.383,87.9763 973.457,87.9763 975.532,87.9763 977.606,87.9763 979.68,87.9763 981.754,87.9763 983.828,87.9763 985.903,87.9763 987.977,87.9763 990.051,87.9763 992.125,147.008 994.2,147.008 996.274,87.9763 998.348,87.9763 1000.42,147.008 1002.5,87.9763 1004.57,87.9763 1006.64,87.9763 1008.72,87.9763 1010.79,87.9763 1012.87,87.9763 1014.94,87.9763 1017.02,87.9763 1019.09,147.008 1021.16,87.9763 1023.24,87.9763 1025.31,87.9763 1027.39,87.9763 1029.46,87.9763 1031.54,87.9763 1033.61,87.9763 1035.68,87.9763 1037.76,87.9763 1039.83,87.9763 1041.91,87.9763 1043.98,265.073 1046.06,87.9763 1048.13,147.008 1050.2,147.008 1052.28,87.9763 1054.35,87.9763 1056.43,87.9763 1058.5,87.9763 1060.57,87.9763 1062.65,87.9763 1064.72,87.9763 1066.8,87.9763 1068.87,87.9763 1070.95,87.9763 1073.02,87.9763 1075.09,87.9763 1077.17,87.9763 1079.24,87.9763 1081.32,87.9763 1083.39,147.008 1085.47,87.9763 1087.54,87.9763 1089.61,87.9763 1091.69,147.008 1093.76,87.9763 1095.84,87.9763 1097.91,87.9763 1099.99,147.008 1102.06,87.9763 1104.13,147.008 1106.21,87.9763 1108.28,87.9763 1110.36,87.9763 1112.43,147.008 1114.5,87.9763 1116.58,87.9763 1118.65,147.008 1120.73,87.9763 1122.8,87.9763 1124.88,87.9763 1126.95,87.9763 1129.02,87.9763 1131.1,147.008 1133.17,87.9763 1135.25,87.9763 1137.32,87.9763 1139.4,147.008 1141.47,87.9763 1143.54,87.9763 1145.62,87.9763 1147.69,147.008 1149.77,147.008 1151.84,87.9763 1153.92,87.9763 1155.99,87.9763 1158.06,87.9763 1160.14,147.008 1162.21,87.9763 1164.29,87.9763 1166.36,87.9763 1168.43,87.9763 1170.51,87.9763 1172.58,87.9763 1174.66,87.9763 1176.73,87.9763 1178.81,87.9763 1180.88,87.9763 1182.95,87.9763 1185.03,87.9763 1187.1,87.9763 1189.18,87.9763 1191.25,87.9763 1193.33,87.9763 1195.4,87.9763 1197.47,87.9763 1199.55,87.9763 1201.62,87.9763 1203.7,87.9763 1205.77,147.008 1207.84,87.9763 1209.92,87.9763 1211.99,87.9763 1214.07,87.9763 1216.14,87.9763 1218.22,87.9763 1220.29,87.9763 1222.36,87.9763 1224.44,87.9763 1226.51,87.9763 1228.59,87.9763 1230.66,87.9763 1232.74,147.008 1234.81,87.9763 1236.88,87.9763 1238.96,87.9763 1241.03,87.9763 1243.11,87.9763 1245.18,87.9763 1247.26,87.9763 1249.33,87.9763 1251.4,87.9763 1253.48,87.9763 1255.55,87.9763 1257.63,147.008 1259.7,147.008 1261.77,87.9763 1263.85,206.041 1265.92,87.9763 1268,87.9763 1270.07,87.9763 1272.15,87.9763 1274.22,87.9763 1276.29,87.9763 1278.37,87.9763 1280.44,87.9763 1282.52,87.9763 1284.59,87.9763 1286.67,87.9763 1288.74,87.9763 1290.81,147.008 1292.89,87.9763 1294.96,87.9763 1297.04,87.9763 1299.11,87.9763 1301.19,87.9763 1303.26,87.9763 1305.33,206.041 1307.41,147.008 1309.48,147.008 1311.56,87.9763 1313.63,87.9763 1315.7,147.008 1317.78,87.9763 1319.85,147.008 1321.93,87.9763 1324,147.008 1326.08,87.9763 1328.15,87.9763 1330.22,87.9763 1332.3,147.008 1334.37,87.9763 1336.45,87.9763 1338.52,87.9763 1340.6,147.008 1342.67,87.9763 1344.74,147.008 1346.82,87.9763 1348.89,87.9763 1350.97,87.9763 1353.04,87.9763 1355.12,147.008 1357.19,87.9763 1359.26,87.9763 1361.34,87.9763 1363.41,87.9763 1365.49,87.9763 1367.56,87.9763 1369.63,87.9763 1371.71,87.9763 1373.78,147.008 1375.86,87.9763 1377.93,87.9763 1380.01,87.9763 1382.08,87.9763 1384.15,87.9763 1386.23,147.008 1388.3,147.008 1390.38,147.008 1392.45,87.9763 1394.53,87.9763 1396.6,87.9763 1398.67,87.9763 1400.75,147.008 1402.82,87.9763 1404.9,87.9763 1406.97,87.9763 1409.04,87.9763 1411.12,87.9763 1413.19,87.9763 1415.27,87.9763 1417.34,87.9763 1419.42,87.9763 1421.49,87.9763 1423.56,87.9763 1425.64,87.9763 1427.71,87.9763 1429.79,147.008 1431.86,87.9763 1433.94,87.9763 1436.01,147.008 1438.08,147.008 1440.16,87.9763 1442.23,87.9763 1444.31,147.008 1446.38,87.9763 1448.46,87.9763 1450.53,147.008 1452.6,87.9763 1454.68,87.9763 1456.75,87.9763 1458.83,147.008 1460.9,87.9763 1462.97,87.9763 1465.05,87.9763 1467.12,147.008 1469.2,87.9763 1471.27,87.9763 1473.35,87.9763 1475.42,87.9763 1477.49,206.041 1479.57,87.9763 1481.64,87.9763 1483.72,87.9763 1485.79,147.008 1487.87,87.9763 1489.94,87.9763 1492.01,87.9763 1494.09,87.9763 1496.16,147.008 1498.24,87.9763 1500.31,87.9763 1502.39,147.008 1504.46,87.9763 1506.53,87.9763 1508.61,87.9763 1510.68,87.9763 1512.76,87.9763 1514.83,87.9763 1516.9,147.008 1518.98,147.008 1521.05,147.008 1523.13,87.9763 1525.2,87.9763 1527.28,87.9763 1529.35,87.9763 1531.42,87.9763 1533.5,87.9763 1535.57,87.9763 1537.65,87.9763 1539.72,87.9763 1541.8,87.9763 1543.87,87.9763 1545.94,87.9763 1548.02,87.9763 1550.09,87.9763 1552.17,147.008 1554.24,87.9763 1556.32,147.008 1558.39,87.9763 1560.46,147.008 1562.54,87.9763 1564.61,87.9763 1566.69,147.008 1568.76,147.008 1570.83,87.9763 1572.91,147.008 1574.98,87.9763 1577.06,87.9763 1579.13,87.9763 1581.21,147.008 1583.28,87.9763 1585.35,87.9763 1587.43,147.008 1589.5,87.9763 1591.58,87.9763 1593.65,87.9763 1595.73,87.9763 1597.8,147.008 1599.87,206.041 1601.95,87.9763 1604.02,87.9763 1606.1,147.008 1608.17,87.9763 1610.24,87.9763 1612.32,147.008 1614.39,87.9763 1616.47,87.9763 1618.54,87.9763 1620.62,87.9763 1622.69,87.9763 1624.76,87.9763 1626.84,87.9763 1628.91,87.9763 1630.99,87.9763 1633.06,87.9763 1635.14,87.9763 1637.21,87.9763 1639.28,87.9763 1641.36,87.9763 1643.43,87.9763 1645.51,87.9763 1647.58,87.9763 1649.66,87.9763 1651.73,87.9763 1653.8,87.9763 1655.88,147.008 1657.95,87.9763 1660.03,147.008 1662.1,87.9763 1664.17,87.9763 1666.25,87.9763 1668.32,147.008 1670.4,87.9763 1672.47,87.9763 1674.55,87.9763 1676.62,87.9763 1678.69,87.9763 1680.77,87.9763 1682.84,87.9763 1684.92,87.9763 1686.99,87.9763 1689.07,147.008 1691.14,87.9763 1693.21,87.9763 1695.29,87.9763 1697.36,87.9763 1699.44,147.008 1701.51,87.9763 1703.59,147.008 1705.66,87.9763 1707.73,87.9763 1709.81,87.9763 1711.88,87.9763 1713.96,87.9763 1716.03,87.9763 1718.1,87.9763 1720.18,147.008 1722.25,87.9763 1724.33,147.008 1726.4,87.9763 1728.48,87.9763 1730.55,87.9763 1732.62,87.9763 1734.7,87.9763 1736.77,87.9763 1738.85,147.008 1740.92,87.9763 1743,87.9763 1745.07,87.9763 1747.14,87.9763 1749.22,87.9763 1751.29,87.9763 1753.37,147.008 1755.44,87.9763 1757.52,87.9763 1759.59,87.9763 1761.66,147.008 1763.74,147.008 1765.81,87.9763 1767.89,147.008 1769.96,147.008 1772.03,87.9763 1774.11,87.9763 1776.18,87.9763 1778.26,87.9763 1780.33,87.9763 1782.41,87.9763 1784.48,87.9763 1786.55,87.9763 1788.63,87.9763 1790.7,87.9763 1792.78,147.008 1794.85,87.9763 1796.93,147.008 1799,87.9763 1801.07,87.9763 1803.15,87.9763 1805.22,87.9763 1807.3,87.9763 1809.37,206.041 1811.44,87.9763 1813.52,87.9763 1815.59,147.008 1817.67,87.9763 1819.74,87.9763 1821.82,87.9763 1823.89,87.9763 1825.96,147.008 1828.04,87.9763 1830.11,87.9763 1832.19,87.9763 1834.26,87.9763 1836.34,87.9763 1838.41,147.008 1840.48,87.9763 1842.56,147.008 1844.63,87.9763 1846.71,87.9763 1848.78,87.9763 1850.86,87.9763 1852.93,87.9763 1855,87.9763 1857.08,87.9763 1859.15,87.9763 1861.23,87.9763 1863.3,147.008 1865.37,147.008 1867.45,87.9763 1869.52,87.9763 1871.6,87.9763 1873.67,87.9763 1875.75,87.9763 1877.82,87.9763 1879.89,87.9763 1881.97,87.9763 1884.04,147.008 1886.12,87.9763 1888.19,87.9763 1890.27,87.9763 1892.34,87.9763 1894.41,147.008 1896.49,87.9763 1898.56,87.9763 1900.64,87.9763 1902.71,87.9763 1904.79,87.9763 1906.86,87.9763 1908.93,87.9763 1911.01,147.008 1913.08,87.9763 1915.16,87.9763 1917.23,87.9763 1919.3,87.9763 1921.38,87.9763 1923.45,87.9763 1925.53,87.9763 1927.6,87.9763 1929.68,87.9763 1931.75,87.9763 1933.82,147.008 1935.9,87.9763 1937.97,87.9763 1940.05,87.9763 1942.12,87.9763 1944.2,87.9763 1946.27,87.9763 1948.34,87.9763 1950.42,87.9763 1952.49,87.9763 1954.57,87.9763 1956.64,87.9763 1958.72,87.9763 1960.79,87.9763 1962.86,87.9763 1964.94,147.008 1967.01,87.9763 1969.09,87.9763 1971.16,147.008 1973.23,147.008 1975.31,87.9763 1977.38,87.9763 1979.46,87.9763 1981.53,147.008 1983.61,87.9763 1985.68,87.9763 1987.75,87.9763 1989.83,87.9763 1991.9,87.9763 1993.98,87.9763 1996.05,206.041 1998.13,87.9763 2000.2,87.9763 2002.27,87.9763 2004.35,87.9763 2006.42,87.9763 2008.5,87.9763 2010.57,87.9763 2012.64,87.9763 2014.72,87.9763 2016.79,87.9763 2018.87,87.9763 2020.94,147.008 2023.02,87.9763 2025.09,87.9763 2027.16,87.9763 2029.24,87.9763 2031.31,147.008 2033.39,87.9763 2035.46,87.9763 2037.54,87.9763 2039.61,87.9763 2041.68,87.9763 2043.76,87.9763 2045.83,147.008 2047.91,87.9763 2049.98,87.9763 2052.06,87.9763 2054.13,87.9763 2056.2,87.9763 2058.28,147.008 2060.35,147.008 2062.43,87.9763 2064.5,147.008 2066.57,147.008 2068.65,87.9763 2070.72,87.9763 2072.8,87.9763 2074.87,87.9763 2076.95,147.008 2079.02,147.008 2081.09,87.9763 2083.17,87.9763 2085.24,87.9763 2087.32,87.9763 2089.39,147.008 2091.47,87.9763 2093.54,87.9763 2095.61,87.9763 2097.69,147.008 2099.76,87.9763 2101.84,87.9763 2103.91,87.9763 2105.99,87.9763 2108.06,87.9763 2110.13,87.9763 2112.21,87.9763 2114.28,87.9763 2116.36,87.9763 2118.43,87.9763 2120.5,87.9763 2122.58,87.9763 2124.65,87.9763 2126.73,87.9763 2128.8,87.9763 2130.88,87.9763 2132.95,87.9763 2135.02,87.9763 2137.1,87.9763 2139.17,87.9763 2141.25,87.9763 2143.32,87.9763 2145.4,87.9763 2147.47,87.9763 2149.54,87.9763 2151.62,87.9763 2153.69,87.9763 2155.77,87.9763 2157.84,87.9763 2159.92,87.9763 2161.99,147.008 2164.06,147.008 2166.14,87.9763 2168.21,87.9763 2170.29,147.008 2172.36,87.9763 2174.43,87.9763 2176.51,87.9763 2178.58,87.9763 2180.66,87.9763 2182.73,87.9763 2184.81,147.008 2186.88,87.9763 2188.95,87.9763 2191.03,87.9763 2193.1,147.008 2195.18,147.008 2197.25,87.9763 2199.33,87.9763 2201.4,87.9763 2203.47,87.9763 2205.55,87.9763 2207.62,87.9763 2209.7,87.9763 2211.77,87.9763 2213.84,87.9763 2215.92,147.008 2217.99,87.9763 2220.07,87.9763 2222.14,87.9763 2224.22,87.9763 2226.29,87.9763 2228.36,87.9763 2230.44,87.9763 2232.51,87.9763 2234.59,87.9763 2236.66,87.9763 2238.74,87.9763 2240.81,87.9763 2242.88,87.9763 2244.96,147.008 2247.03,87.9763 2249.11,87.9763 2251.18,87.9763 2253.26,87.9763 2255.33,147.008 2257.4,87.9763 2259.48,87.9763 2261.55,147.008 2263.63,87.9763 2265.7,87.9763 2267.77,87.9763 2269.85,87.9763 2271.92,87.9763 2274,87.9763 2276.07,87.9763 2278.15,87.9763 2280.22,147.008 2282.29,147.008 2284.37,87.9763 2286.44,87.9763 2288.52,87.9763 2290.59,87.9763 "/>
<path clip-path="url(#clip950)" d="M2007.46 1438.47 L2279.54 1438.47 L2279.54 1334.79 L2007.46 1334.79  Z" fill="#ffffff" fill-rule="evenodd" fill-opacity="1"/>
<polyline clip-path="url(#clip950)" style="stroke:#000000; stroke-linecap:round; stroke-linejoin:round; stroke-width:4; stroke-opacity:1; fill:none" points="2007.46,1438.47 2279.54,1438.47 2279.54,1334.79 2007.46,1334.79 2007.46,1438.47 "/>
<polyline clip-path="url(#clip950)" style="stroke:#009af9; stroke-linecap:round; stroke-linejoin:round; stroke-width:4; stroke-opacity:1; fill:none" points="2031.87,1386.63 2178.3,1386.63 "/>
<path clip-path="url(#clip950)" d="M2216.55 1406.32 Q2214.74 1410.95 2213.03 1412.36 Q2211.32 1413.78 2208.44 1413.78 L2205.04 1413.78 L2205.04 1410.21 L2207.54 1410.21 Q2209.3 1410.21 2210.27 1409.38 Q2211.25 1408.54 2212.43 1405.44 L2213.19 1403.5 L2202.7 1377.99 L2207.22 1377.99 L2215.32 1398.27 L2223.42 1377.99 L2227.94 1377.99 L2216.55 1406.32 Z" fill="#000000" fill-rule="nonzero" fill-opacity="1" /><path clip-path="url(#clip950)" d="M2235.23 1399.98 L2242.87 1399.98 L2242.87 1373.61 L2234.56 1375.28 L2234.56 1371.02 L2242.82 1369.35 L2247.5 1369.35 L2247.5 1399.98 L2255.13 1399.98 L2255.13 1403.91 L2235.23 1403.91 L2235.23 1399.98 Z" fill="#000000" fill-rule="nonzero" fill-opacity="1" /></svg>
