<?xml version="1.0" encoding="utf-8"?>
<svg xmlns="http://www.w3.org/2000/svg" xmlns:xlink="http://www.w3.org/1999/xlink" width="600" height="400" viewBox="0 0 2400 1600">
<defs>
  <clipPath id="clip890">
    <rect x="0" y="0" width="2400" height="1600"/>
  </clipPath>
</defs>
<path clip-path="url(#clip890)" d="M0 1600 L2400 1600 L2400 0 L0 0  Z" fill="#ffffff" fill-rule="evenodd" fill-opacity="1"/>
<defs>
  <clipPath id="clip891">
    <rect x="480" y="0" width="1681" height="1600"/>
  </clipPath>
</defs>
<path clip-path="url(#clip890)" d="M140.696 1486.45 L2352.76 1486.45 L2352.76 47.2441 L140.696 47.2441  Z" fill="#ffffff" fill-rule="evenodd" fill-opacity="1"/>
<defs>
  <clipPath id="clip892">
    <rect x="140" y="47" width="2213" height="1440"/>
  </clipPath>
</defs>
<polyline clip-path="url(#clip892)" style="stroke:#000000; stroke-linecap:round; stroke-linejoin:round; stroke-width:2; stroke-opacity:0.1; fill:none" points="203.301,1486.45 203.301,47.2441 "/>
<polyline clip-path="url(#clip892)" style="stroke:#000000; stroke-linecap:round; stroke-linejoin:round; stroke-width:2; stroke-opacity:0.1; fill:none" points="725.013,1486.45 725.013,47.2441 "/>
<polyline clip-path="url(#clip892)" style="stroke:#000000; stroke-linecap:round; stroke-linejoin:round; stroke-width:2; stroke-opacity:0.1; fill:none" points="1246.73,1486.45 1246.73,47.2441 "/>
<polyline clip-path="url(#clip892)" style="stroke:#000000; stroke-linecap:round; stroke-linejoin:round; stroke-width:2; stroke-opacity:0.1; fill:none" points="1768.44,1486.45 1768.44,47.2441 "/>
<polyline clip-path="url(#clip892)" style="stroke:#000000; stroke-linecap:round; stroke-linejoin:round; stroke-width:2; stroke-opacity:0.1; fill:none" points="2290.15,1486.45 2290.15,47.2441 "/>
<polyline clip-path="url(#clip890)" style="stroke:#000000; stroke-linecap:round; stroke-linejoin:round; stroke-width:4; stroke-opacity:1; fill:none" points="140.696,1486.45 2352.76,1486.45 "/>
<polyline clip-path="url(#clip890)" style="stroke:#000000; stroke-linecap:round; stroke-linejoin:round; stroke-width:4; stroke-opacity:1; fill:none" points="203.301,1486.45 203.301,1467.55 "/>
<polyline clip-path="url(#clip890)" style="stroke:#000000; stroke-linecap:round; stroke-linejoin:round; stroke-width:4; stroke-opacity:1; fill:none" points="725.013,1486.45 725.013,1467.55 "/>
<polyline clip-path="url(#clip890)" style="stroke:#000000; stroke-linecap:round; stroke-linejoin:round; stroke-width:4; stroke-opacity:1; fill:none" points="1246.73,1486.45 1246.73,1467.55 "/>
<polyline clip-path="url(#clip890)" style="stroke:#000000; stroke-linecap:round; stroke-linejoin:round; stroke-width:4; stroke-opacity:1; fill:none" points="1768.44,1486.45 1768.44,1467.55 "/>
<polyline clip-path="url(#clip890)" style="stroke:#000000; stroke-linecap:round; stroke-linejoin:round; stroke-width:4; stroke-opacity:1; fill:none" points="2290.15,1486.45 2290.15,1467.55 "/>
<path clip-path="url(#clip890)" d="M203.301 1517.37 Q199.69 1517.37 197.861 1520.93 Q196.056 1524.47 196.056 1531.6 Q196.056 1538.71 197.861 1542.27 Q199.69 1545.82 203.301 1545.82 Q206.935 1545.82 208.741 1542.27 Q210.57 1538.71 210.57 1531.6 Q210.57 1524.47 208.741 1520.93 Q206.935 1517.37 203.301 1517.37 M203.301 1513.66 Q209.111 1513.66 212.167 1518.27 Q215.245 1522.85 215.245 1531.6 Q215.245 1540.33 212.167 1544.94 Q209.111 1549.52 203.301 1549.52 Q197.491 1549.52 194.412 1544.94 Q191.357 1540.33 191.357 1531.6 Q191.357 1522.85 194.412 1518.27 Q197.491 1513.66 203.301 1513.66 Z" fill="#000000" fill-rule="nonzero" fill-opacity="1" /><path clip-path="url(#clip890)" d="M684.632 1514.29 L702.988 1514.29 L702.988 1518.22 L688.914 1518.22 L688.914 1526.7 Q689.933 1526.35 690.951 1526.19 Q691.97 1526 692.988 1526 Q698.775 1526 702.155 1529.17 Q705.534 1532.34 705.534 1537.76 Q705.534 1543.34 702.062 1546.44 Q698.59 1549.52 692.27 1549.52 Q690.095 1549.52 687.826 1549.15 Q685.581 1548.78 683.173 1548.04 L683.173 1543.34 Q685.257 1544.47 687.479 1545.03 Q689.701 1545.58 692.178 1545.58 Q696.183 1545.58 698.52 1543.48 Q700.858 1541.37 700.858 1537.76 Q700.858 1534.15 698.52 1532.04 Q696.183 1529.94 692.178 1529.94 Q690.303 1529.94 688.428 1530.35 Q686.576 1530.77 684.632 1531.65 L684.632 1514.29 Z" fill="#000000" fill-rule="nonzero" fill-opacity="1" /><path clip-path="url(#clip890)" d="M724.747 1517.37 Q721.136 1517.37 719.307 1520.93 Q717.502 1524.47 717.502 1531.6 Q717.502 1538.71 719.307 1542.27 Q721.136 1545.82 724.747 1545.82 Q728.381 1545.82 730.187 1542.27 Q732.016 1538.71 732.016 1531.6 Q732.016 1524.47 730.187 1520.93 Q728.381 1517.37 724.747 1517.37 M724.747 1513.66 Q730.557 1513.66 733.613 1518.27 Q736.692 1522.85 736.692 1531.6 Q736.692 1540.33 733.613 1544.94 Q730.557 1549.52 724.747 1549.52 Q718.937 1549.52 715.858 1544.94 Q712.803 1540.33 712.803 1531.6 Q712.803 1522.85 715.858 1518.27 Q718.937 1513.66 724.747 1513.66 Z" fill="#000000" fill-rule="nonzero" fill-opacity="1" /><path clip-path="url(#clip890)" d="M754.909 1517.37 Q751.298 1517.37 749.469 1520.93 Q747.664 1524.47 747.664 1531.6 Q747.664 1538.71 749.469 1542.27 Q751.298 1545.82 754.909 1545.82 Q758.543 1545.82 760.349 1542.27 Q762.178 1538.71 762.178 1531.6 Q762.178 1524.47 760.349 1520.93 Q758.543 1517.37 754.909 1517.37 M754.909 1513.66 Q760.719 1513.66 763.775 1518.27 Q766.853 1522.85 766.853 1531.6 Q766.853 1540.33 763.775 1544.94 Q760.719 1549.52 754.909 1549.52 Q749.099 1549.52 746.02 1544.94 Q742.965 1540.33 742.965 1531.6 Q742.965 1522.85 746.02 1518.27 Q749.099 1513.66 754.909 1513.66 Z" fill="#000000" fill-rule="nonzero" fill-opacity="1" /><path clip-path="url(#clip890)" d="M1191.25 1544.91 L1198.89 1544.91 L1198.89 1518.55 L1190.58 1520.21 L1190.58 1515.95 L1198.84 1514.29 L1203.52 1514.29 L1203.52 1544.91 L1211.16 1544.91 L1211.16 1548.85 L1191.25 1548.85 L1191.25 1544.91 Z" fill="#000000" fill-rule="nonzero" fill-opacity="1" /><path clip-path="url(#clip890)" d="M1230.6 1517.37 Q1226.99 1517.37 1225.16 1520.93 Q1223.36 1524.47 1223.36 1531.6 Q1223.36 1538.71 1225.16 1542.27 Q1226.99 1545.82 1230.6 1545.82 Q1234.24 1545.82 1236.04 1542.27 Q1237.87 1538.71 1237.87 1531.6 Q1237.87 1524.47 1236.04 1520.93 Q1234.24 1517.37 1230.6 1517.37 M1230.6 1513.66 Q1236.41 1513.66 1239.47 1518.27 Q1242.55 1522.85 1242.55 1531.6 Q1242.55 1540.33 1239.47 1544.94 Q1236.41 1549.52 1230.6 1549.52 Q1224.79 1549.52 1221.71 1544.94 Q1218.66 1540.33 1218.66 1531.6 Q1218.66 1522.85 1221.71 1518.27 Q1224.79 1513.66 1230.6 1513.66 Z" fill="#000000" fill-rule="nonzero" fill-opacity="1" /><path clip-path="url(#clip890)" d="M1260.77 1517.37 Q1257.15 1517.37 1255.33 1520.93 Q1253.52 1524.47 1253.52 1531.6 Q1253.52 1538.71 1255.33 1542.27 Q1257.15 1545.82 1260.77 1545.82 Q1264.4 1545.82 1266.2 1542.27 Q1268.03 1538.71 1268.03 1531.6 Q1268.03 1524.47 1266.2 1520.93 Q1264.4 1517.37 1260.77 1517.37 M1260.77 1513.66 Q1266.58 1513.66 1269.63 1518.27 Q1272.71 1522.85 1272.71 1531.6 Q1272.71 1540.33 1269.63 1544.94 Q1266.58 1549.52 1260.77 1549.52 Q1254.95 1549.52 1251.88 1544.94 Q1248.82 1540.33 1248.82 1531.6 Q1248.82 1522.85 1251.88 1518.27 Q1254.95 1513.66 1260.77 1513.66 Z" fill="#000000" fill-rule="nonzero" fill-opacity="1" /><path clip-path="url(#clip890)" d="M1290.93 1517.37 Q1287.32 1517.37 1285.49 1520.93 Q1283.68 1524.47 1283.68 1531.6 Q1283.68 1538.71 1285.49 1542.27 Q1287.32 1545.82 1290.93 1545.82 Q1294.56 1545.82 1296.37 1542.27 Q1298.2 1538.71 1298.2 1531.6 Q1298.2 1524.47 1296.37 1520.93 Q1294.56 1517.37 1290.93 1517.37 M1290.93 1513.66 Q1296.74 1513.66 1299.79 1518.27 Q1302.87 1522.85 1302.87 1531.6 Q1302.87 1540.33 1299.79 1544.94 Q1296.74 1549.52 1290.93 1549.52 Q1285.12 1549.52 1282.04 1544.94 Q1278.98 1540.33 1278.98 1531.6 Q1278.98 1522.85 1282.04 1518.27 Q1285.12 1513.66 1290.93 1513.66 Z" fill="#000000" fill-rule="nonzero" fill-opacity="1" /><path clip-path="url(#clip890)" d="M1712.96 1544.91 L1720.6 1544.91 L1720.6 1518.55 L1712.29 1520.21 L1712.29 1515.95 L1720.56 1514.29 L1725.23 1514.29 L1725.23 1544.91 L1732.87 1544.91 L1732.87 1548.85 L1712.96 1548.85 L1712.96 1544.91 Z" fill="#000000" fill-rule="nonzero" fill-opacity="1" /><path clip-path="url(#clip890)" d="M1742.36 1514.29 L1760.72 1514.29 L1760.72 1518.22 L1746.64 1518.22 L1746.64 1526.7 Q1747.66 1526.35 1748.68 1526.19 Q1749.7 1526 1750.72 1526 Q1756.51 1526 1759.88 1529.17 Q1763.26 1532.34 1763.26 1537.76 Q1763.26 1543.34 1759.79 1546.44 Q1756.32 1549.52 1750 1549.52 Q1747.82 1549.52 1745.56 1549.15 Q1743.31 1548.78 1740.9 1548.04 L1740.9 1543.34 Q1742.99 1544.47 1745.21 1545.03 Q1747.43 1545.58 1749.91 1545.58 Q1753.91 1545.58 1756.25 1543.48 Q1758.59 1541.37 1758.59 1537.76 Q1758.59 1534.15 1756.25 1532.04 Q1753.91 1529.94 1749.91 1529.94 Q1748.03 1529.94 1746.16 1530.35 Q1744.31 1530.77 1742.36 1531.65 L1742.36 1514.29 Z" fill="#000000" fill-rule="nonzero" fill-opacity="1" /><path clip-path="url(#clip890)" d="M1782.48 1517.37 Q1778.87 1517.37 1777.04 1520.93 Q1775.23 1524.47 1775.23 1531.6 Q1775.23 1538.71 1777.04 1542.27 Q1778.87 1545.82 1782.48 1545.82 Q1786.11 1545.82 1787.92 1542.27 Q1789.75 1538.71 1789.75 1531.6 Q1789.75 1524.47 1787.92 1520.93 Q1786.11 1517.37 1782.48 1517.37 M1782.48 1513.66 Q1788.29 1513.66 1791.34 1518.27 Q1794.42 1522.85 1794.42 1531.6 Q1794.42 1540.33 1791.34 1544.94 Q1788.29 1549.52 1782.48 1549.52 Q1776.67 1549.52 1773.59 1544.94 Q1770.53 1540.33 1770.53 1531.6 Q1770.53 1522.85 1773.59 1518.27 Q1776.67 1513.66 1782.48 1513.66 Z" fill="#000000" fill-rule="nonzero" fill-opacity="1" /><path clip-path="url(#clip890)" d="M1812.64 1517.37 Q1809.03 1517.37 1807.2 1520.93 Q1805.39 1524.47 1805.39 1531.6 Q1805.39 1538.71 1807.2 1542.27 Q1809.03 1545.82 1812.64 1545.82 Q1816.27 1545.82 1818.08 1542.27 Q1819.91 1538.71 1819.91 1531.6 Q1819.91 1524.47 1818.08 1520.93 Q1816.27 1517.37 1812.64 1517.37 M1812.64 1513.66 Q1818.45 1513.66 1821.5 1518.27 Q1824.58 1522.85 1824.58 1531.6 Q1824.58 1540.33 1821.5 1544.94 Q1818.45 1549.52 1812.64 1549.52 Q1806.83 1549.52 1803.75 1544.94 Q1800.69 1540.33 1800.69 1531.6 Q1800.69 1522.85 1803.75 1518.27 Q1806.83 1513.66 1812.64 1513.66 Z" fill="#000000" fill-rule="nonzero" fill-opacity="1" /><path clip-path="url(#clip890)" d="M2238.76 1544.91 L2255.08 1544.91 L2255.08 1548.85 L2233.14 1548.85 L2233.14 1544.91 Q2235.8 1542.16 2240.38 1537.53 Q2244.99 1532.88 2246.17 1531.53 Q2248.41 1529.01 2249.29 1527.27 Q2250.2 1525.51 2250.2 1523.82 Q2250.2 1521.07 2248.25 1519.33 Q2246.33 1517.6 2243.23 1517.6 Q2241.03 1517.6 2238.58 1518.36 Q2236.15 1519.13 2233.37 1520.68 L2233.37 1515.95 Q2236.19 1514.82 2238.65 1514.24 Q2241.1 1513.66 2243.14 1513.66 Q2248.51 1513.66 2251.7 1516.35 Q2254.9 1519.03 2254.9 1523.52 Q2254.9 1525.65 2254.09 1527.57 Q2253.3 1529.47 2251.19 1532.07 Q2250.61 1532.74 2247.51 1535.95 Q2244.41 1539.15 2238.76 1544.91 Z" fill="#000000" fill-rule="nonzero" fill-opacity="1" /><path clip-path="url(#clip890)" d="M2274.9 1517.37 Q2271.28 1517.37 2269.46 1520.93 Q2267.65 1524.47 2267.65 1531.6 Q2267.65 1538.71 2269.46 1542.27 Q2271.28 1545.82 2274.9 1545.82 Q2278.53 1545.82 2280.34 1542.27 Q2282.16 1538.71 2282.16 1531.6 Q2282.16 1524.47 2280.34 1520.93 Q2278.53 1517.37 2274.9 1517.37 M2274.9 1513.66 Q2280.71 1513.66 2283.76 1518.27 Q2286.84 1522.85 2286.84 1531.6 Q2286.84 1540.33 2283.76 1544.94 Q2280.71 1549.52 2274.9 1549.52 Q2269.09 1549.52 2266.01 1544.94 Q2262.95 1540.33 2262.95 1531.6 Q2262.95 1522.85 2266.01 1518.27 Q2269.09 1513.66 2274.9 1513.66 Z" fill="#000000" fill-rule="nonzero" fill-opacity="1" /><path clip-path="url(#clip890)" d="M2305.06 1517.37 Q2301.45 1517.37 2299.62 1520.93 Q2297.81 1524.47 2297.81 1531.6 Q2297.81 1538.71 2299.62 1542.27 Q2301.45 1545.82 2305.06 1545.82 Q2308.69 1545.82 2310.5 1542.27 Q2312.33 1538.71 2312.33 1531.6 Q2312.33 1524.47 2310.5 1520.93 Q2308.69 1517.37 2305.06 1517.37 M2305.06 1513.66 Q2310.87 1513.66 2313.92 1518.27 Q2317 1522.85 2317 1531.6 Q2317 1540.33 2313.92 1544.94 Q2310.87 1549.52 2305.06 1549.52 Q2299.25 1549.52 2296.17 1544.94 Q2293.11 1540.33 2293.11 1531.6 Q2293.11 1522.85 2296.17 1518.27 Q2299.25 1513.66 2305.06 1513.66 Z" fill="#000000" fill-rule="nonzero" fill-opacity="1" /><path clip-path="url(#clip890)" d="M2335.22 1517.37 Q2331.61 1517.37 2329.78 1520.93 Q2327.97 1524.47 2327.97 1531.6 Q2327.97 1538.71 2329.78 1542.27 Q2331.61 1545.82 2335.22 1545.82 Q2338.85 1545.82 2340.66 1542.27 Q2342.49 1538.71 2342.49 1531.6 Q2342.49 1524.47 2340.66 1520.93 Q2338.85 1517.37 2335.22 1517.37 M2335.22 1513.66 Q2341.03 1513.66 2344.09 1518.27 Q2347.16 1522.85 2347.16 1531.6 Q2347.16 1540.33 2344.09 1544.94 Q2341.03 1549.52 2335.22 1549.52 Q2329.41 1549.52 2326.33 1544.94 Q2323.28 1540.33 2323.28 1531.6 Q2323.28 1522.85 2326.33 1518.27 Q2329.41 1513.66 2335.22 1513.66 Z" fill="#000000" fill-rule="nonzero" fill-opacity="1" /><polyline clip-path="url(#clip892)" style="stroke:#000000; stroke-linecap:round; stroke-linejoin:round; stroke-width:2; stroke-opacity:0.1; fill:none" points="140.696,1390.89 2352.76,1390.89 "/>
<polyline clip-path="url(#clip892)" style="stroke:#000000; stroke-linecap:round; stroke-linejoin:round; stroke-width:2; stroke-opacity:0.1; fill:none" points="140.696,1153.12 2352.76,1153.12 "/>
<polyline clip-path="url(#clip892)" style="stroke:#000000; stroke-linecap:round; stroke-linejoin:round; stroke-width:2; stroke-opacity:0.1; fill:none" points="140.696,915.351 2352.76,915.351 "/>
<polyline clip-path="url(#clip892)" style="stroke:#000000; stroke-linecap:round; stroke-linejoin:round; stroke-width:2; stroke-opacity:0.1; fill:none" points="140.696,677.582 2352.76,677.582 "/>
<polyline clip-path="url(#clip892)" style="stroke:#000000; stroke-linecap:round; stroke-linejoin:round; stroke-width:2; stroke-opacity:0.1; fill:none" points="140.696,439.813 2352.76,439.813 "/>
<polyline clip-path="url(#clip892)" style="stroke:#000000; stroke-linecap:round; stroke-linejoin:round; stroke-width:2; stroke-opacity:0.1; fill:none" points="140.696,202.044 2352.76,202.044 "/>
<polyline clip-path="url(#clip890)" style="stroke:#000000; stroke-linecap:round; stroke-linejoin:round; stroke-width:4; stroke-opacity:1; fill:none" points="140.696,1486.45 140.696,47.2441 "/>
<polyline clip-path="url(#clip890)" style="stroke:#000000; stroke-linecap:round; stroke-linejoin:round; stroke-width:4; stroke-opacity:1; fill:none" points="140.696,1390.89 159.593,1390.89 "/>
<polyline clip-path="url(#clip890)" style="stroke:#000000; stroke-linecap:round; stroke-linejoin:round; stroke-width:4; stroke-opacity:1; fill:none" points="140.696,1153.12 159.593,1153.12 "/>
<polyline clip-path="url(#clip890)" style="stroke:#000000; stroke-linecap:round; stroke-linejoin:round; stroke-width:4; stroke-opacity:1; fill:none" points="140.696,915.351 159.593,915.351 "/>
<polyline clip-path="url(#clip890)" style="stroke:#000000; stroke-linecap:round; stroke-linejoin:round; stroke-width:4; stroke-opacity:1; fill:none" points="140.696,677.582 159.593,677.582 "/>
<polyline clip-path="url(#clip890)" style="stroke:#000000; stroke-linecap:round; stroke-linejoin:round; stroke-width:4; stroke-opacity:1; fill:none" points="140.696,439.813 159.593,439.813 "/>
<polyline clip-path="url(#clip890)" style="stroke:#000000; stroke-linecap:round; stroke-linejoin:round; stroke-width:4; stroke-opacity:1; fill:none" points="140.696,202.044 159.593,202.044 "/>
<path clip-path="url(#clip890)" d="M53.3995 1404.23 L61.0384 1404.23 L61.0384 1377.87 L52.7282 1379.53 L52.7282 1375.28 L60.9921 1373.61 L65.668 1373.61 L65.668 1404.23 L73.3068 1404.23 L73.3068 1408.17 L53.3995 1408.17 L53.3995 1404.23 Z" fill="#000000" fill-rule="nonzero" fill-opacity="1" /><path clip-path="url(#clip890)" d="M92.7512 1376.69 Q89.1401 1376.69 87.3114 1380.25 Q85.5058 1383.79 85.5058 1390.92 Q85.5058 1398.03 87.3114 1401.59 Q89.1401 1405.14 92.7512 1405.14 Q96.3854 1405.14 98.1909 1401.59 Q100.02 1398.03 100.02 1390.92 Q100.02 1383.79 98.1909 1380.25 Q96.3854 1376.69 92.7512 1376.69 M92.7512 1372.98 Q98.5613 1372.98 101.617 1377.59 Q104.696 1382.17 104.696 1390.92 Q104.696 1399.65 101.617 1404.26 Q98.5613 1408.84 92.7512 1408.84 Q86.941 1408.84 83.8623 1404.26 Q80.8068 1399.65 80.8068 1390.92 Q80.8068 1382.17 83.8623 1377.59 Q86.941 1372.98 92.7512 1372.98 Z" fill="#000000" fill-rule="nonzero" fill-opacity="1" /><path clip-path="url(#clip890)" d="M54.3949 1166.46 L62.0337 1166.46 L62.0337 1140.1 L53.7236 1141.77 L53.7236 1137.51 L61.9874 1135.84 L66.6633 1135.84 L66.6633 1166.46 L74.3022 1166.46 L74.3022 1170.4 L54.3949 1170.4 L54.3949 1166.46 Z" fill="#000000" fill-rule="nonzero" fill-opacity="1" /><path clip-path="url(#clip890)" d="M83.7929 1135.84 L102.149 1135.84 L102.149 1139.77 L88.0753 1139.77 L88.0753 1148.25 Q89.0938 1147.9 90.1123 1147.74 Q91.1308 1147.55 92.1493 1147.55 Q97.9363 1147.55 101.316 1150.72 Q104.696 1153.9 104.696 1159.31 Q104.696 1164.89 101.223 1167.99 Q97.7511 1171.07 91.4317 1171.07 Q89.2558 1171.07 86.9873 1170.7 Q84.7419 1170.33 82.3346 1169.59 L82.3346 1164.89 Q84.4179 1166.02 86.6401 1166.58 Q88.8623 1167.14 91.3391 1167.14 Q95.3437 1167.14 97.6817 1165.03 Q100.02 1162.92 100.02 1159.31 Q100.02 1155.7 97.6817 1153.59 Q95.3437 1151.49 91.3391 1151.49 Q89.4641 1151.49 87.5892 1151.9 Q85.7373 1152.32 83.7929 1153.2 L83.7929 1135.84 Z" fill="#000000" fill-rule="nonzero" fill-opacity="1" /><path clip-path="url(#clip890)" d="M56.6171 928.696 L72.9365 928.696 L72.9365 932.631 L50.9921 932.631 L50.9921 928.696 Q53.6541 925.941 58.2375 921.312 Q62.8439 916.659 64.0245 915.316 Q66.2698 912.793 67.1494 911.057 Q68.0522 909.298 68.0522 907.608 Q68.0522 904.853 66.1078 903.117 Q64.1865 901.381 61.0847 901.381 Q58.8856 901.381 56.4319 902.145 Q54.0014 902.909 51.2236 904.46 L51.2236 899.738 Q54.0477 898.603 56.5014 898.025 Q58.955 897.446 60.9921 897.446 Q66.3624 897.446 69.5568 900.131 Q72.7513 902.816 72.7513 907.307 Q72.7513 909.437 71.9411 911.358 Q71.1541 913.256 69.0476 915.849 Q68.4689 916.52 65.367 919.738 Q62.2652 922.932 56.6171 928.696 Z" fill="#000000" fill-rule="nonzero" fill-opacity="1" /><path clip-path="url(#clip890)" d="M92.7512 901.15 Q89.1401 901.15 87.3114 904.714 Q85.5058 908.256 85.5058 915.386 Q85.5058 922.492 87.3114 926.057 Q89.1401 929.599 92.7512 929.599 Q96.3854 929.599 98.1909 926.057 Q100.02 922.492 100.02 915.386 Q100.02 908.256 98.1909 904.714 Q96.3854 901.15 92.7512 901.15 M92.7512 897.446 Q98.5613 897.446 101.617 902.052 Q104.696 906.636 104.696 915.386 Q104.696 924.113 101.617 928.719 Q98.5613 933.302 92.7512 933.302 Q86.941 933.302 83.8623 928.719 Q80.8068 924.113 80.8068 915.386 Q80.8068 906.636 83.8623 902.052 Q86.941 897.446 92.7512 897.446 Z" fill="#000000" fill-rule="nonzero" fill-opacity="1" /><path clip-path="url(#clip890)" d="M57.6125 690.927 L73.9318 690.927 L73.9318 694.862 L51.9875 694.862 L51.9875 690.927 Q54.6495 688.172 59.2328 683.543 Q63.8393 678.89 65.0198 677.547 Q67.2652 675.024 68.1448 673.288 Q69.0476 671.529 69.0476 669.839 Q69.0476 667.085 67.1032 665.348 Q65.1819 663.612 62.08 663.612 Q59.881 663.612 57.4273 664.376 Q54.9967 665.14 52.219 666.691 L52.219 661.969 Q55.043 660.835 57.4967 660.256 Q59.9504 659.677 61.9874 659.677 Q67.3578 659.677 70.5522 662.362 Q73.7466 665.047 73.7466 669.538 Q73.7466 671.668 72.9365 673.589 Q72.1494 675.487 70.0429 678.08 Q69.4642 678.751 66.3624 681.969 Q63.2606 685.163 57.6125 690.927 Z" fill="#000000" fill-rule="nonzero" fill-opacity="1" /><path clip-path="url(#clip890)" d="M83.7929 660.302 L102.149 660.302 L102.149 664.237 L88.0753 664.237 L88.0753 672.709 Q89.0938 672.362 90.1123 672.2 Q91.1308 672.015 92.1493 672.015 Q97.9363 672.015 101.316 675.186 Q104.696 678.358 104.696 683.774 Q104.696 689.353 101.223 692.455 Q97.7511 695.533 91.4317 695.533 Q89.2558 695.533 86.9873 695.163 Q84.7419 694.793 82.3346 694.052 L82.3346 689.353 Q84.4179 690.487 86.6401 691.043 Q88.8623 691.598 91.3391 691.598 Q95.3437 691.598 97.6817 689.492 Q100.02 687.385 100.02 683.774 Q100.02 680.163 97.6817 678.057 Q95.3437 675.95 91.3391 675.95 Q89.4641 675.95 87.5892 676.367 Q85.7373 676.784 83.7929 677.663 L83.7929 660.302 Z" fill="#000000" fill-rule="nonzero" fill-opacity="1" /><path clip-path="url(#clip890)" d="M66.7559 438.459 Q70.1124 439.177 71.9874 441.445 Q73.8855 443.714 73.8855 447.047 Q73.8855 452.163 70.367 454.964 Q66.8485 457.765 60.3671 457.765 Q58.1912 457.765 55.8764 457.325 Q53.5847 456.908 51.131 456.052 L51.131 451.538 Q53.0754 452.672 55.3903 453.251 Q57.7051 453.829 60.2282 453.829 Q64.6263 453.829 66.918 452.093 Q69.2328 450.357 69.2328 447.047 Q69.2328 443.992 67.08 442.279 Q64.9504 440.542 61.131 440.542 L57.1032 440.542 L57.1032 436.7 L61.3161 436.7 Q64.7652 436.7 66.5939 435.334 Q68.4226 433.945 68.4226 431.353 Q68.4226 428.691 66.5245 427.279 Q64.6495 425.843 61.131 425.843 Q59.2097 425.843 57.0106 426.26 Q54.8115 426.677 52.1727 427.556 L52.1727 423.39 Q54.8347 422.649 57.1495 422.279 Q59.4875 421.908 61.5476 421.908 Q66.8717 421.908 69.9735 424.339 Q73.0753 426.746 73.0753 430.867 Q73.0753 433.737 71.4318 435.728 Q69.7883 437.695 66.7559 438.459 Z" fill="#000000" fill-rule="nonzero" fill-opacity="1" /><path clip-path="url(#clip890)" d="M92.7512 425.612 Q89.1401 425.612 87.3114 429.177 Q85.5058 432.718 85.5058 439.848 Q85.5058 446.954 87.3114 450.519 Q89.1401 454.061 92.7512 454.061 Q96.3854 454.061 98.1909 450.519 Q100.02 446.954 100.02 439.848 Q100.02 432.718 98.1909 429.177 Q96.3854 425.612 92.7512 425.612 M92.7512 421.908 Q98.5613 421.908 101.617 426.515 Q104.696 431.098 104.696 439.848 Q104.696 448.575 101.617 453.181 Q98.5613 457.765 92.7512 457.765 Q86.941 457.765 83.8623 453.181 Q80.8068 448.575 80.8068 439.848 Q80.8068 431.098 83.8623 426.515 Q86.941 421.908 92.7512 421.908 Z" fill="#000000" fill-rule="nonzero" fill-opacity="1" /><path clip-path="url(#clip890)" d="M67.7513 200.69 Q71.1078 201.408 72.9827 203.676 Q74.8809 205.945 74.8809 209.278 Q74.8809 214.394 71.3624 217.195 Q67.8439 219.996 61.3624 219.996 Q59.1865 219.996 56.8717 219.556 Q54.5801 219.139 52.1264 218.283 L52.1264 213.769 Q54.0708 214.903 56.3856 215.482 Q58.7004 216.061 61.2236 216.061 Q65.6217 216.061 67.9133 214.324 Q70.2281 212.588 70.2281 209.278 Q70.2281 206.223 68.0754 204.51 Q65.9457 202.774 62.1263 202.774 L58.0986 202.774 L58.0986 198.931 L62.3115 198.931 Q65.7606 198.931 67.5893 197.565 Q69.418 196.176 69.418 193.584 Q69.418 190.922 67.5198 189.51 Q65.6448 188.075 62.1263 188.075 Q60.205 188.075 58.006 188.491 Q55.8069 188.908 53.168 189.788 L53.168 185.621 Q55.8301 184.88 58.1449 184.51 Q60.4828 184.139 62.543 184.139 Q67.867 184.139 70.9689 186.57 Q74.0707 188.977 74.0707 193.098 Q74.0707 195.968 72.4272 197.959 Q70.7837 199.926 67.7513 200.69 Z" fill="#000000" fill-rule="nonzero" fill-opacity="1" /><path clip-path="url(#clip890)" d="M83.7929 184.764 L102.149 184.764 L102.149 188.7 L88.0753 188.7 L88.0753 197.172 Q89.0938 196.825 90.1123 196.663 Q91.1308 196.477 92.1493 196.477 Q97.9363 196.477 101.316 199.649 Q104.696 202.82 104.696 208.237 Q104.696 213.815 101.223 216.917 Q97.7511 219.996 91.4317 219.996 Q89.2558 219.996 86.9873 219.625 Q84.7419 219.255 82.3346 218.514 L82.3346 213.815 Q84.4179 214.949 86.6401 215.505 Q88.8623 216.061 91.3391 216.061 Q95.3437 216.061 97.6817 213.954 Q100.02 211.848 100.02 208.237 Q100.02 204.625 97.6817 202.519 Q95.3437 200.413 91.3391 200.413 Q89.4641 200.413 87.5892 200.829 Q85.7373 201.246 83.7929 202.125 L83.7929 184.764 Z" fill="#000000" fill-rule="nonzero" fill-opacity="1" /><polyline clip-path="url(#clip892)" style="stroke:#009af9; stroke-linecap:round; stroke-linejoin:round; stroke-width:4; stroke-opacity:1; fill:none" points="203.301,1441.31 204.344,1445.72 205.388,1010 206.431,1027.9 207.475,1352.52 208.518,1357.81 209.562,1414.33 210.605,1418.7 211.648,1212.85 212.692,1220 213.735,1441.33 214.779,1443.41 215.822,903.709 216.866,912.75 217.909,1264.48 218.952,1267.98 219.996,1061.88 221.039,1069.49 222.083,1046.41 223.126,1051.31 224.17,679.855 225.213,687.308 226.256,880.742 227.3,886.431 228.343,657.218 229.387,660.999 230.43,857.049 231.473,862.327 232.517,1023.88 233.56,1026.39 234.604,510.572 235.647,515.804 236.691,772.757 237.734,776.838 238.777,727.623 239.821,730.776 240.864,566.856 241.908,568.667 242.951,381.22 243.995,385.196 245.038,695.922 246.081,699.094 247.125,605.524 248.168,606.866 249.212,784.155 250.255,785.641 251.299,537.923 252.342,539.718 253.385,624.437 254.429,628.052 255.472,822.24 256.516,823.036 257.559,532.576 258.603,533.463 259.646,785.356 260.689,786.949 261.733,659.335 262.776,660.449 263.82,740.74 264.863,741.682 265.907,258.93 266.95,262.231 267.993,633.404 269.037,634.904 270.08,627.837 271.124,628.657 272.167,813.949 273.21,814.68 274.254,642.207 275.297,643.43 276.341,538.16 277.384,539.354 278.428,762.951 279.471,763.457 280.514,654.072 281.558,654.676 282.601,638.135 283.645,638.614 284.688,717.298 285.732,719.879 286.775,678.778 287.818,679.213 288.862,488.178 289.905,489.571 290.949,429.117 291.992,430.273 293.036,691.584 294.079,692.161 295.122,643.431 296.166,643.771 297.209,693.239 298.253,693.604 299.296,581.988 300.34,582.411 301.383,556.228 302.426,557.431 303.47,638.815 304.513,639.174 305.557,565.261 306.6,565.695 307.643,489.392 308.687,490.007 309.73,617.839 310.774,618.509 311.817,605.285 312.861,605.688 313.904,713.279 314.947,717.606 315.991,525.874 317.034,526.394 318.078,533.642 319.121,534.064 320.165,580.918 321.208,582.721 322.251,605.186 323.295,606.334 324.338,642.077 325.382,644.709 326.425,501.812 327.469,502.116 328.512,456.995 329.555,457.547 330.599,586.136 331.642,586.787 332.686,677.915 333.729,682.161 334.773,666.135 335.816,666.313 336.859,362.482 337.903,365.152 338.946,510.143 339.99,510.662 341.033,558.667 342.077,559.158 343.12,605.767 344.163,606.021 345.207,565.621 346.25,565.981 347.294,511.832 348.337,512.107 349.38,586.172 350.424,587.708 351.467,607.184 352.511,607.856 353.554,605.919 354.598,606.15 355.641,409.909 356.684,410.465 357.728,547.336 358.771,547.498 359.815,530.441 360.858,530.799 361.902,673.384 362.945,673.487 363.988,544.419 365.032,544.703 366.075,578.99 367.119,579.113 368.162,553.873 369.206,554.013 370.249,562.358 371.292,565.061 372.336,567.291 373.379,568.073 374.423,635.573 375.466,635.736 376.51,651.839 377.553,652.178 378.596,552.162 379.64,552.261 380.683,591.704 381.727,592.66 382.77,608.696 383.813,608.797 384.857,575.452 385.9,575.561 386.944,585.119 387.987,585.507 389.031,333.337 390.074,333.866 391.117,438.22 392.161,438.895 393.204,549.959 394.248,550.039 395.291,557.239 396.335,557.63 397.378,555.514 398.421,555.935 399.465,572.874 400.508,573.433 401.552,627.318 402.595,627.741 403.639,538.213 404.682,538.352 405.725,519.35 406.769,519.599 407.812,523.066 408.856,523.138 409.899,594.528 410.943,596.387 411.986,510.325 413.029,511.648 414.073,565.853 415.116,565.968 416.16,615.052 417.203,615.321 418.247,496.505 419.29,498.236 420.333,535.096 421.377,535.145 422.42,540.666 423.464,541.414 424.507,577.321 425.55,577.372 426.594,530.661 427.637,531.348 428.681,608.351 429.724,608.918 430.768,521.82 431.811,523.251 432.854,540.988 433.898,544.869 434.941,511.42 435.985,511.585 437.028,536.847 438.072,536.959 439.115,569.521 440.158,570.088 441.202,369.74 442.245,372.191 443.289,525.103 444.332,525.749 445.376,508.109 446.419,508.42 447.462,507.029 448.506,507.729 449.549,567.599 450.593,570.585 451.636,539.724 452.68,539.877 453.723,531.71 454.766,534.97 455.81,537.642 456.853,538.113 457.897,532.777 458.94,533.67 459.984,346.443 461.027,347.87 462.07,534.444 463.114,535.183 464.157,562.029 465.201,563.395 466.244,539.373 467.287,539.668 468.331,576.14 469.374,576.477 470.418,533.939 471.461,534.924 472.505,548.734 473.548,549.202 474.591,538.783 475.635,539.926 476.678,560.162 477.722,560.582 478.765,540.719 479.809,541.617 480.852,514.084 481.895,514.157 482.939,554.64 483.982,554.94 485.026,526.176 486.069,526.205 487.113,532.802 488.156,533.678 489.199,568.084 490.243,568.26 491.286,549.122 492.33,549.463 493.373,500.805 494.417,503.293 495.46,535.227 496.503,535.318 497.547,539.776 498.59,540.055 499.634,528.027 500.677,529.078 501.72,584.243 502.764,584.534 503.807,540.599 504.851,540.718 505.894,372.348 506.938,373.748 507.981,575.926 509.024,577.583 510.068,616.52 511.111,616.945 512.155,544.838 513.198,545.921 514.242,522.22 515.285,522.297 516.328,525.658 517.372,525.818 518.415,526.24 519.459,526.35 520.502,583 521.546,583.153 522.589,526.483 523.632,526.566 524.676,358.081 525.719,359.041 526.763,551.438 527.806,551.539 528.85,571.255 529.893,571.825 530.936,561.095 531.98,561.138 533.023,600.11 534.067,601.059 535.11,592.952 536.154,593.244 537.197,550.947 538.24,551.407 539.284,535.577 540.327,535.684 541.371,570.927 542.414,570.978 543.457,600.085 544.501,600.178 545.544,359.115 546.588,359.715 547.631,591.017 548.675,592.032 549.718,378.706 550.761,380.456 551.805,327.89 552.848,328.578 553.892,581.039 554.935,581.136 555.979,556.059 557.022,556.172 558.065,566.342 559.109,567.501 560.152,618.679 561.196,618.861 562.239,545.315 563.283,545.485 564.326,542.164 565.369,542.625 566.413,506.011 567.456,509.248 568.5,562.481 569.543,562.932 570.587,517.991 571.63,518.102 572.673,549.579 573.717,550.222 574.76,554.489 575.804,554.639 576.847,578.087 577.89,578.148 578.934,581.648 579.977,581.787 581.021,549.547 582.064,549.618 583.108,564.451 584.151,568.224 585.194,606.172 586.238,606.308 587.281,557.294 588.325,557.483 589.368,540.983 590.412,542.925 591.455,570.998 592.498,571.032 593.542,384.852 594.585,385.398 595.629,527.594 596.672,528.042 597.716,537.84 598.759,538.748 599.802,551.739 600.846,552.154 601.889,522.583 602.933,523.296 603.976,513 605.02,513.579 606.063,561.345 607.106,561.533 608.15,554.238 609.193,554.395 610.237,558.696 611.28,559.426 612.324,518.743 613.367,518.879 614.41,521.903 615.454,521.951 616.497,574.703 617.541,575.625 618.584,519.744 619.627,519.794 620.671,561.03 621.714,561.314 622.758,323.895 623.801,324.38 624.845,526.678 625.888,527.053 626.931,528.273 627.975,528.419 629.018,529.882 630.062,530.473 631.105,545.876 632.149,545.943 633.192,554.299 634.235,554.372 635.279,555.837 636.322,558.281 637.366,523.212 638.409,523.843 639.453,562.452 640.496,563.76 641.539,546.283 642.583,546.367 643.626,514.1 644.67,514.67 645.713,609.144 646.757,610.321 647.8,565.603 648.843,567.201 649.887,526.778 650.93,528.623 651.974,527.999 653.017,528.295 654.06,522.617 655.104,523.377 656.147,538.608 657.191,539.162 658.234,600.526 659.278,600.639 660.321,516.099 661.364,517.935 662.408,552.271 663.451,552.654 664.495,548.092 665.538,548.247 666.582,332.178 667.625,332.833 668.668,539.639 669.712,540.746 670.755,322.866 671.799,323.701 672.842,556.521 673.886,556.699 674.929,513.684 675.972,514.343 677.016,522.512 678.059,523.297 679.103,532.937 680.146,533.198 681.19,550.885 682.233,552.282 683.276,510.799 684.32,511.86 685.363,580.277 686.407,580.496 687.45,548.596 688.494,551.163 689.537,523.219 690.58,524.019 691.624,342.622 692.667,343.131 693.711,534.896 694.754,535.601 695.797,524.293 696.841,526.332 697.884,602.98 698.928,603.017 699.971,541.043 701.015,541.106 702.058,558.035 703.101,558.052 704.145,534.487 705.188,534.567 706.232,532.237 707.275,532.249 708.319,513.209 709.362,513.942 710.405,548.865 711.449,548.948 712.492,525.765 713.536,528.88 714.579,518.376 715.623,518.423 716.666,529.68 717.709,530.085 718.753,522.555 719.796,523.198 720.84,351.908 721.883,352.693 722.927,547.724 723.97,548.194 725.013,563.061 726.057,564.127 727.1,320.758 728.144,324.507 729.187,525.83 730.23,526.175 731.274,544.363 732.317,544.786 733.361,549.687 734.404,550.529 735.448,537.28 736.491,537.508 737.534,516.138 738.578,516.476 739.621,518.179 740.665,518.224 741.708,555.077 742.752,555.115 743.795,539.507 744.838,539.857 745.882,530.755 746.925,531.016 747.969,545.662 749.012,545.71 750.056,548.451 751.099,551.155 752.142,572.826 753.186,572.903 754.229,541.77 755.273,541.864 756.316,510.048 757.36,511.304 758.403,530.667 759.446,530.676 760.49,543.764 761.533,543.938 762.577,590.697 763.62,591.082 764.664,522.655 765.707,523.551 766.75,547.43 767.794,548.117 768.837,528.057 769.881,528.269 770.924,529 771.967,529.859 773.011,576.352 774.054,576.523 775.098,542.494 776.141,543.003 777.185,561.345 778.228,561.361 779.271,528.826 780.315,529.102 781.358,532.764 782.402,533.75 783.445,553.596 784.489,554.86 785.532,526.588 786.575,526.637 787.619,535.369 788.662,536.057 789.706,540.278 790.749,540.44 791.793,551.872 792.836,552.671 793.879,526.364 794.923,526.428 795.966,564.736 797.01,564.763 798.053,605.89 799.097,606.185 800.14,517.596 801.183,517.894 802.227,530.931 803.27,530.989 804.314,531.136 805.357,531.169 806.401,537.49 807.444,537.811 808.487,595.303 809.531,595.748 810.574,558.588 811.618,558.704 812.661,526.602 813.704,526.676 814.748,561.88 815.791,561.89 816.835,533.333 817.878,533.371 818.922,551.459 819.965,551.704 821.008,568.088 822.052,568.317 823.095,554.615 824.139,555.11 825.182,530.191 826.226,530.284 827.269,534.194 828.312,534.386 829.356,538.882 830.399,539.178 831.443,603.101 832.486,603.181 833.53,538.895 834.573,539.999 835.616,559.424 836.66,559.617 837.703,300.375 838.747,302.712 839.79,581.292 840.834,582.178 841.877,540.415 842.92,541.349 843.964,522.918 845.007,526.594 846.051,509.715 847.094,511.342 848.137,511.364 849.181,513.841 850.224,546.153 851.268,546.316 852.311,519.223 853.355,519.353 854.398,546.597 855.441,546.64 856.485,342.264 857.528,343.981 858.572,517.467 859.615,517.975 860.659,556.798 861.702,557.99 862.745,517.47 863.789,517.843 864.832,527.454 865.876,528.395 866.919,528.985 867.963,529.179 869.006,519.755 870.049,520.545 871.093,545.67 872.136,545.856 873.18,529.652 874.223,529.66 875.267,526.651 876.31,529.244 877.353,575.547 878.397,575.794 879.44,515.498 880.484,517.371 881.527,528.806 882.571,529.061 883.614,303.725 884.657,304.457 885.701,531.636 886.744,532.837 887.788,525.162 888.831,525.627 889.874,540.922 890.918,541.923 891.961,559.997 893.005,560.299 894.048,536.439 895.092,536.959 896.135,548.545 897.178,549.902 898.222,311 899.265,312.393 900.309,529.51 901.352,529.62 902.396,554.284 903.439,554.598 904.482,305.61 905.526,306.323 906.569,314.916 907.613,316.582 908.656,556.727 909.7,557.487 910.743,609.53 911.786,609.607 912.83,515.321 913.873,517.773 914.917,552.969 915.96,554.271 917.004,519.502 918.047,519.631 919.09,538.499 920.134,539.352 921.177,520.158 922.221,520.192 923.264,549.785 924.307,550.392 925.351,551.975 926.394,552.811 927.438,556.349 928.481,556.886 929.525,529.326 930.568,529.371 931.611,519.768 932.655,519.802 933.698,546.792 934.742,547.16 935.785,515.832 936.829,519.65 937.872,548.997 938.915,549.049 939.959,523.281 941.002,524.831 942.046,519.693 943.089,520.023 944.133,521.299 945.176,522.023 946.219,537.259 947.263,539.844 948.306,542.141 949.35,542.941 950.393,546.556 951.437,547.33 952.48,536.439 953.523,536.511 954.567,536.688 955.61,536.727 956.654,557.352 957.697,557.507 958.741,548.547 959.784,548.752 960.827,540.025 961.871,541.366 962.914,522.008 963.958,522.323 965.001,553.343 966.044,554.578 967.088,570.479 968.131,572.697 969.175,566.874 970.218,567.284 971.262,537.09 972.305,537.257 973.348,508.238 974.392,510.291 975.435,556.579 976.479,557.66 977.522,527.176 978.566,527.592 979.609,533.572 980.652,533.645 981.696,569.662 982.739,569.679 983.783,596.019 984.826,598.624 985.87,549.625 986.913,549.668 987.956,496.358 989,500.005 990.043,561.301 991.087,561.465 992.13,509.716 993.174,512.913 994.217,520.668 995.26,522.29 996.304,518.464 997.347,519.123 998.391,538.622 999.434,538.803 1000.48,544.09 1001.52,547.448 1002.56,517.518 1003.61,518.103 1004.65,529.407 1005.69,530.101 1006.74,531.792 1007.78,532.153 1008.82,343.366 1009.87,343.967 1010.91,528.751 1011.96,529.018 1013,520.168 1014.04,520.432 1015.09,535.573 1016.13,535.784 1017.17,545.716 1018.22,545.983 1019.26,544.078 1020.3,544.15 1021.35,508.123 1022.39,510.522 1023.43,524.088 1024.48,524.18 1025.52,522.924 1026.56,524.534 1027.61,522.921 1028.65,523.554 1029.69,526.185 1030.74,526.809 1031.78,517.839 1032.82,521.083 1033.87,395.517 1034.91,396.441 1035.95,525.55 1037,526.815 1038.04,575.957 1039.08,577.374 1040.13,555.466 1041.17,555.506 1042.21,530.052 1043.26,530.111 1044.3,536.429 1045.34,536.794 1046.39,526.108 1047.43,526.759 1048.48,521.536 1049.52,521.789 1050.56,529.771 1051.61,529.905 1052.65,530.241 1053.69,530.319 1054.74,542.396 1055.78,543.566 1056.82,536.639 1057.87,536.697 1058.91,527.008 1059.95,527.118 1061,539.609 1062.04,539.838 1063.08,555.717 1064.13,557.653 1065.17,538.93 1066.21,538.985 1067.26,567.636 1068.3,569.054 1069.34,538.736 1070.39,539.466 1071.43,524.479 1072.47,524.931 1073.52,551.053 1074.56,551.383 1075.6,536.947 1076.65,536.984 1077.69,526.238 1078.73,526.892 1079.78,530.511 1080.82,530.57 1081.86,543.965 1082.91,544.719 1083.95,532.194 1084.99,532.588 1086.04,525.034 1087.08,525.112 1088.13,517.445 1089.17,518.182 1090.21,559.981 1091.26,559.999 1092.3,529.452 1093.34,529.716 1094.39,552.841 1095.43,553.402 1096.47,530.441 1097.52,530.492 1098.56,525.375 1099.6,525.427 1100.65,518.759 1101.69,519.373 1102.73,544.226 1103.78,545.995 1104.82,529.566 1105.86,529.739 1106.91,304.218 1107.95,305.265 1108.99,556.893 1110.04,556.907 1111.08,520.743 1112.12,521.494 1113.17,536.118 1114.21,536.744 1115.25,537.895 1116.3,538.065 1117.34,528.52 1118.38,528.854 1119.43,529.668 1120.47,529.841 1121.51,341.066 1122.56,342.309 1123.6,524.389 1124.65,524.55 1125.69,533.251 1126.73,533.407 1127.78,525.627 1128.82,526.356 1129.86,553.358 1130.91,554.313 1131.95,540.734 1132.99,540.826 1134.04,517.844 1135.08,518.542 1136.12,529.684 1137.17,529.748 1138.21,562.729 1139.25,564.417 1140.3,555.437 1141.34,555.584 1142.38,539.213 1143.43,539.451 1144.47,301.489 1145.51,304.208 1146.56,546.394 1147.6,546.616 1148.64,524.689 1149.69,524.763 1150.73,552.683 1151.77,552.785 1152.82,517.741 1153.86,518.436 1154.9,526.34 1155.95,527.173 1156.99,531.65 1158.03,532.976 1159.08,546.202 1160.12,547.626 1161.16,537.005 1162.21,538.094 1163.25,537.43 1164.3,537.713 1165.34,549.693 1166.38,550.024 1167.43,533.968 1168.47,534.065 1169.51,315.852 1170.56,316.594 1171.6,536.071 1172.64,536.53 1173.69,554.017 1174.73,554.329 1175.77,532.162 1176.82,532.22 1177.86,510.665 1178.9,512.695 1179.95,541.488 1180.99,541.676 1182.03,533.814 1183.08,533.951 1184.12,535.969 1185.16,536.207 1186.21,521.952 1187.25,523.469 1188.29,530.719 1189.34,534.449 1190.38,528.721 1191.42,530.469 1192.47,527.398 1193.51,527.81 1194.55,509.65 1195.6,512.185 1196.64,557.671 1197.68,557.676 1198.73,518.228 1199.77,519.508 1200.82,521.758 1201.86,521.797 1202.9,305.259 1203.95,306.453 1204.99,521.186 1206.03,521.315 1207.08,521.761 1208.12,521.833 1209.16,530.534 1210.21,530.612 1211.25,546.663 1212.29,546.92 1213.34,529.317 1214.38,530.058 1215.42,521.317 1216.47,521.375 1217.51,520.852 1218.55,521.206 1219.6,521.545 1220.64,521.641 1221.68,521.57 1222.73,522.462 1223.77,561.42 1224.81,562.673 1225.86,541.902 1226.9,541.981 1227.94,524.954 1228.99,524.982 1230.03,540.414 1231.07,541.138 1232.12,528.431 1233.16,530.162 1234.2,532.665 1235.25,532.676 1236.29,511.8 1237.33,514.515 1238.38,529.752 1239.42,530.846 1240.47,521.298 1241.51,521.397 1242.55,532.633 1243.6,533.312 1244.64,515.486 1245.68,517.283 1246.73,522.57 1247.77,524.925 1248.81,553.902 1249.86,554.204 1250.9,573.485 1251.94,573.947 1252.99,537.102 1254.03,537.148 1255.07,592.038 1256.12,592.963 1257.16,530.487 1258.2,530.512 1259.25,533.777 1260.29,533.901 1261.33,527.343 1262.38,527.389 1263.42,544.893 1264.46,545.469 1265.51,532.334 1266.55,532.627 1267.59,537.46 1268.64,537.468 1269.68,549.556 1270.72,550.446 1271.77,550.752 1272.81,551.106 1273.85,547.762 1274.9,549.014 1275.94,558.86 1276.99,559.379 1278.03,517.961 1279.07,518.977 1280.12,529.974 1281.16,530.065 1282.2,571.489 1283.25,571.916 1284.29,545.33 1285.33,545.336 1286.38,561.884 1287.42,563.415 1288.46,538.568 1289.51,538.653 1290.55,578.251 1291.59,578.97 1292.64,487.878 1293.68,492.938 1294.72,513.621 1295.77,514.958 1296.81,604.768 1297.85,604.994 1298.9,583.958 1299.94,585.294 1300.98,561.234 1302.03,561.512 1303.07,493.638 1304.11,498.71 1305.16,559.19 1306.2,559.59 1307.24,572.976 1308.29,573.161 1309.33,543.037 1310.37,543.1 1311.42,543.481 1312.46,544.268 1313.5,529.315 1314.55,530.028 1315.59,590.538 1316.64,591.934 1317.68,556.441 1318.72,559.906 1319.77,548.512 1320.81,548.727 1321.85,534.601 1322.9,535.068 1323.94,549.251 1324.98,549.797 1326.03,550.604 1327.07,551.491 1328.11,519.122 1329.16,520.002 1330.2,553.69 1331.24,554.072 1332.29,573.096 1333.33,573.32 1334.37,493.476 1335.42,497.926 1336.46,559.375 1337.5,559.447 1338.55,517.752 1339.59,519.78 1340.63,523.376 1341.68,523.456 1342.72,542.415 1343.76,542.483 1344.81,525.367 1345.85,526.306 1346.89,554.259 1347.94,555.062 1348.98,525.684 1350.02,526.578 1351.07,524.708 1352.11,524.841 1353.16,525.176 1354.2,525.254 1355.24,539.122 1356.29,540.054 1357.33,532.796 1358.37,532.846 1359.42,310.52 1360.46,311.731 1361.5,541.833 1362.55,541.96 1363.59,537.757 1364.63,537.781 1365.68,567.838 1366.72,567.999 1367.76,522.557 1368.81,522.735 1369.85,532.943 1370.89,532.971 1371.94,535.091 1372.98,535.11 1374.02,530.842 1375.07,530.98 1376.11,523.475 1377.15,523.524 1378.2,555.85 1379.24,556.147 1380.28,546.421 1381.33,546.979 1382.37,565.942 1383.41,566.086 1384.46,530.033 1385.5,530.82 1386.54,533.752 1387.59,534.916 1388.63,520.799 1389.67,521.05 1390.72,529.822 1391.76,530.022 1392.81,551.962 1393.85,552.636 1394.89,314.895 1395.94,315.681 1396.98,517.668 1398.02,519.154 1399.07,522.649 1400.11,523.067 1401.15,530.981 1402.2,530.998 1403.24,534.424 1404.28,536.031 1405.33,525.318 1406.37,525.353 1407.41,523.654 1408.46,523.7 1409.5,529.771 1410.54,529.963 1411.59,525.148 1412.63,525.23 1413.67,526.933 1414.72,527.113 1415.76,310.686 1416.8,312.084 1417.85,537.622 1418.89,537.648 1419.93,519.593 1420.98,520.113 1422.02,556.448 1423.06,556.677 1424.11,527.433 1425.15,527.551 1426.19,538.014 1427.24,539.844 1428.28,553.476 1429.33,553.563 1430.37,554.179 1431.41,554.72 1432.46,537.629 1433.5,538.687 1434.54,531.175 1435.59,531.425 1436.63,553.944 1437.67,553.979 1438.72,539.291 1439.76,540.129 1440.8,547.132 1441.85,547.205 1442.89,579.786 1443.93,579.998 1444.98,553.01 1446.02,553.475 1447.06,521.544 1448.11,522.186 1449.15,530.017 1450.19,530.448 1451.24,556.928 1452.28,557.248 1453.32,531.14 1454.37,532.373 1455.41,525.713 1456.45,525.745 1457.5,536.71 1458.54,536.893 1459.58,551.679 1460.63,551.722 1461.67,315.19 1462.71,317.449 1463.76,508.677 1464.8,511.003 1465.84,531.056 1466.89,531.137 1467.93,527.445 1468.98,527.591 1470.02,570.177 1471.06,571.343 1472.11,87.9763 1473.15,90.1757 1474.19,520.855 1475.24,521.382 1476.28,530.492 1477.32,530.527 1478.37,557.285 1479.41,560.494 1480.45,525.702 1481.5,525.741 1482.54,530.975 1483.58,531.033 1484.63,527.211 1485.67,527.383 1486.71,512.956 1487.76,515.287 1488.8,558.238 1489.84,558.325 1490.89,539.968 1491.93,540.222 1492.97,520.812 1494.02,521.2 1495.06,548.73 1496.1,549.036 1497.15,530.886 1498.19,531.158 1499.23,521.104 1500.28,521.88 1501.32,531.378 1502.36,531.913 1503.41,524.542 1504.45,527.526 1505.5,528.634 1506.54,529.267 1507.58,523.149 1508.63,523.623 1509.67,555.766 1510.71,559.537 1511.76,309.042 1512.8,315.616 1513.84,550.605 1514.89,551.173 1515.93,541.505 1516.97,542.338 1518.02,530.979 1519.06,531.683 1520.1,555.416 1521.15,557.168 1522.19,549.479 1523.23,550.753 1524.28,541.2 1525.32,541.241 1526.36,505.042 1527.41,507.744 1528.45,543.601 1529.49,543.909 1530.54,528.505 1531.58,528.56 1532.62,509.386 1533.67,511.627 1534.71,533.939 1535.75,534.894 1536.8,540.414 1537.84,540.558 1538.88,541.209 1539.93,541.881 1540.97,541.374 1542.01,541.383 1543.06,522.169 1544.1,523.397 1545.15,574.733 1546.19,575.588 1547.23,550.819 1548.28,550.94 1549.32,537.583 1550.36,539.399 1551.41,523.519 1552.45,523.706 1553.49,553.956 1554.54,554.471 1555.58,526.326 1556.62,526.364 1557.67,536.513 1558.71,536.721 1559.75,554.521 1560.8,554.547 1561.84,558.575 1562.88,558.647 1563.93,520.414 1564.97,520.865 1566.01,551.03 1567.06,551.06 1568.1,516.869 1569.14,518.647 1570.19,524.022 1571.23,524.439 1572.27,536.503 1573.32,536.778 1574.36,549.817 1575.4,550.018 1576.45,523.567 1577.49,523.585 1578.53,523.637 1579.58,523.654 1580.62,564.356 1581.67,564.447 1582.71,523.464 1583.75,523.553 1584.8,303.047 1585.84,303.604 1586.88,531.239 1587.93,531.471 1588.97,523.941 1590.01,523.958 1591.06,555.606 1592.1,557.748 1593.14,586.814 1594.19,587.344 1595.23,318.328 1596.27,318.869 1597.32,537.661 1598.36,538.127 1599.4,576.551 1600.45,577.124 1601.49,536.258 1602.53,536.275 1603.58,540.455 1604.62,540.536 1605.66,570.046 1606.71,570.166 1607.75,531.657 1608.79,531.803 1609.84,536.656 1610.88,536.786 1611.92,553.173 1612.97,553.615 1614.01,536.332 1615.05,536.361 1616.1,545.448 1617.14,545.597 1618.18,536.292 1619.23,536.342 1620.27,564.041 1621.32,564.895 1622.36,535.463 1623.4,535.63 1624.45,530.901 1625.49,531.177 1626.53,521.403 1627.58,523.589 1628.62,546.145 1629.66,547.054 1630.71,532.621 1631.75,532.923 1632.79,528.948 1633.84,529.052 1634.88,546.614 1635.92,547.467 1636.97,545.329 1638.01,545.456 1639.05,520.096 1640.1,520.874 1641.14,534.266 1642.18,534.345 1643.23,535.695 1644.27,535.835 1645.31,536.185 1646.36,536.264 1647.4,547.374 1648.44,548.128 1649.49,530.714 1650.53,533.744 1651.57,531.72 1652.62,531.845 1653.66,547.771 1654.7,548.263 1655.75,538.871 1656.79,540.853 1657.84,540.655 1658.88,540.72 1659.92,516.013 1660.97,517.228 1662.01,548.299 1663.05,548.733 1664.1,523.813 1665.14,523.957 1666.18,528.799 1667.23,528.986 1668.27,521.963 1669.31,522.338 1670.36,527.241 1671.4,527.314 1672.44,526.086 1673.49,526.779 1674.53,524.864 1675.57,524.877 1676.62,524.133 1677.66,524.206 1678.7,527.875 1679.75,528.799 1680.79,309.272 1681.83,309.784 1682.88,556.795 1683.92,556.819 1684.96,531.142 1686.01,532.49 1687.05,521.911 1688.09,522.338 1689.14,526.673 1690.18,527.13 1691.22,526.973 1692.27,527.554 1693.31,550.682 1694.35,550.791 1695.4,522.259 1696.44,525.09 1697.49,547.366 1698.53,548.255 1699.57,527.58 1700.62,530.031 1701.66,521.601 1702.7,522.255 1703.75,526.394 1704.79,527.91 1705.83,532.995 1706.88,534.199 1707.92,536.502 1708.96,536.568 1710.01,519.528 1711.05,520.289 1712.09,537.538 1713.14,537.955 1714.18,550.827 1715.22,551.037 1716.27,529.656 1717.31,529.721 1718.35,555.69 1719.4,555.706 1720.44,513.667 1721.48,517.587 1722.53,535.023 1723.57,535.153 1724.61,304.023 1725.66,304.636 1726.7,528.09 1727.74,528.704 1728.79,524.53 1729.83,524.542 1730.87,524.812 1731.92,525.613 1732.96,551.41 1734.01,551.444 1735.05,532.823 1736.09,533.459 1737.14,517.52 1738.18,519.362 1739.22,523.808 1740.27,524.729 1741.31,525.676 1742.35,525.738 1743.4,528.054 1744.44,528.452 1745.48,523.804 1746.53,524.421 1747.57,553.772 1748.61,555.019 1749.66,527.672 1750.7,527.732 1751.74,533.668 1752.79,533.761 1753.83,528.424 1754.87,528.663 1755.92,559.534 1756.96,560.562 1758,551.38 1759.05,551.553 1760.09,530.029 1761.13,530.108 1762.18,569.356 1763.22,571.429 1764.26,509.908 1765.31,520.522 1766.35,529.83 1767.39,529.849 1768.44,524.804 1769.48,524.84 1770.52,525.689 1771.57,525.811 1772.61,526.394 1773.66,527.888 1774.7,547.748 1775.74,549.145 1776.79,523.786 1777.83,524.709 1778.87,525.012 1779.92,525.024 1780.96,537.169 1782,537.479 1783.05,517.43 1784.09,520.339 1785.13,529.419 1786.18,529.658 1787.22,551.126 1788.26,554.775 1789.31,525.908 1790.35,525.932 1791.39,559.971 1792.44,560.012 1793.48,532.774 1794.52,533.381 1795.57,530.03 1796.61,530.051 1797.65,304.699 1798.7,305.237 1799.74,527.634 1800.78,527.657 1801.83,540.893 1802.87,541.439 1803.91,590.894 1804.96,590.92 1806,547.996 1807.04,549.6 1808.09,507.956 1809.13,510.483 1810.18,551.626 1811.22,552.386 1812.26,520.012 1813.31,520.78 1814.35,522.64 1815.39,523.028 1816.44,524.573 1817.48,524.628 1818.52,524.353 1819.57,524.502 1820.61,556.806 1821.65,556.822 1822.7,529.768 1823.74,531.366 1824.78,547.863 1825.83,549.99 1826.87,300.92 1827.91,301.745 1828.96,527.744 1830,527.764 1831.04,539.979 1832.09,540.735 1833.13,569.189 1834.17,570.342 1835.22,522.514 1836.26,523.048 1837.3,543.851 1838.35,544.982 1839.39,527.945 1840.43,527.957 1841.48,540.627 1842.52,540.799 1843.56,520.988 1844.61,521.544 1845.65,537.04 1846.69,537.143 1847.74,529.183 1848.78,529.348 1849.83,547.917 1850.87,550.992 1851.91,533.974 1852.96,534.088 1854,537.588 1855.04,537.599 1856.09,540.846 1857.13,540.907 1858.17,548.324 1859.22,548.889 1860.26,553.012 1861.3,553.118 1862.35,530.158 1863.39,530.181 1864.43,528.97 1865.48,530.107 1866.52,519.375 1867.56,520.341 1868.61,309.352 1869.65,309.877 1870.69,525.669 1871.74,525.715 1872.78,525.833 1873.82,525.862 1874.87,515.815 1875.91,519.537 1876.95,523.112 1878,523.556 1879.04,551.487 1880.08,551.515 1881.13,525.424 1882.17,527.823 1883.21,518.748 1884.26,520.08 1885.3,525.128 1886.35,525.147 1887.39,531.77 1888.43,532.172 1889.48,556.179 1890.52,556.304 1891.56,523.559 1892.61,523.794 1893.65,530.625 1894.69,530.69 1895.74,533.725 1896.78,535.383 1897.82,525.617 1898.87,526.405 1899.91,525.05 1900.95,525.068 1902,532.945 1903.04,536.819 1904.08,514.595 1905.13,516.301 1906.17,549.479 1907.21,549.819 1908.26,526.182 1909.3,526.215 1910.34,524.136 1911.39,524.266 1912.43,521.491 1913.47,522.799 1914.52,523.496 1915.56,525.566 1916.6,521.215 1917.65,522.231 1918.69,530.598 1919.73,531.56 1920.78,526.805 1921.82,527.588 1922.86,524.101 1923.91,525.033 1924.95,527.284 1926,527.754 1927.04,527.655 1928.08,527.73 1929.13,555.51 1930.17,555.611 1931.21,528.124 1932.26,528.143 1933.3,513.638 1934.34,516.64 1935.39,533.829 1936.43,534.235 1937.47,524.932 1938.52,525.024 1939.56,525.325 1940.6,525.756 1941.65,522.475 1942.69,523.716 1943.73,526.337 1944.78,526.658 1945.82,523.939 1946.86,524.201 1947.91,525.688 1948.95,525.707 1949.99,526.822 1951.04,528.76 1952.08,524.217 1953.12,524.452 1954.17,524.412 1955.21,525.034 1956.25,524.175 1957.3,524.809 1958.34,526.031 1959.38,526.152 1960.43,561.749 1961.47,565.057 1962.52,532.916 1963.56,533.068 1964.6,530.86 1965.65,530.871 1966.69,569.622 1967.73,570.759 1968.78,586.742 1969.82,588.603 1970.86,513.399 1971.91,515.211 1972.95,530.403 1973.99,530.49 1975.04,554.111 1976.08,556.029 1977.12,559.262 1978.17,560.437 1979.21,537.581 1980.25,537.606 1981.3,526.082 1982.34,526.44 1983.38,530.643 1984.43,530.69 1985.47,524.502 1986.51,524.859 1987.56,544.378 1988.6,545.095 1989.64,515.782 1990.69,518.949 1991.73,573.141 1992.77,574.206 1993.82,528.427 1994.86,528.793 1995.9,524.017 1996.95,524.252 1997.99,522.842 1999.03,523.464 2000.08,525.548 2001.12,525.568 2002.17,525.229 2003.21,525.51 2004.25,526.732 2005.3,527.405 2006.34,526.034 2007.38,526.051 2008.43,533.414 2009.47,536.393 2010.51,516.539 2011.56,518.103 2012.6,535.292 2013.64,537.152 2014.69,526.281 2015.73,526.435 2016.77,555.161 2017.82,555.398 2018.86,536.51 2019.9,536.643 2020.95,530.771 2021.99,530.858 2023.03,518.931 2024.08,521.113 2025.12,528.911 2026.16,529.067 2027.21,558.028 2028.25,558.318 2029.29,303.439 2030.34,305.007 2031.38,519.328 2032.42,520.453 2033.47,531.567 2034.51,533.189 2035.55,524.683 2036.6,524.891 2037.64,528.741 2038.69,528.767 2039.73,534.947 2040.77,535.077 2041.82,563.159 2042.86,563.532 2043.9,517.567 2044.95,518.949 2045.99,524.647 2047.03,524.8 2048.08,537.706 2049.12,538.568 2050.16,531.774 2051.21,532.142 2052.25,529.928 2053.29,530.064 2054.34,563.72 2055.38,564.039 2056.42,561.347 2057.47,561.6 2058.51,528.767 2059.55,529.081 2060.6,554.366 2061.64,554.402 2062.68,548.072 2063.73,548.709 2064.77,529.847 2065.81,530.046 2066.86,281.987 2067.9,288.299 2068.94,533.198 2069.99,538.214 2071.03,528.42 2072.07,528.44 2073.12,548.563 2074.16,549.941 2075.2,549.456 2076.25,550 2077.29,531.012 2078.34,531.17 2079.38,525.782 2080.42,525.797 2081.47,528.27 2082.51,528.663 2083.55,529.617 2084.6,529.818 2085.64,570.233 2086.68,572.375 2087.73,521.633 2088.77,522.264 2089.81,507.27 2090.86,511.822 2091.9,527.644 2092.94,529.012 2093.99,552.501 2095.03,552.515 2096.07,525.998 2097.12,526.011 2098.16,526.046 2099.2,526.057 2100.25,530.462 2101.29,530.5 2102.33,518.554 2103.38,523.634 2104.42,525.755 2105.46,525.805 2106.51,537.258 2107.55,537.672 2108.59,530.054 2109.64,530.2 2110.68,526.745 2111.72,526.789 2112.77,533.859 2113.81,534.454 2114.86,536.428 2115.9,536.495 2116.94,520.549 2117.99,521.315 2119.03,539.786 2120.07,541.768 2121.12,530.551 2122.16,530.764 2123.2,531.291 2124.25,531.409 2125.29,529.277 2126.33,529.497 2127.38,512.488 2128.42,515.716 2129.46,530.049 2130.51,530.066 2131.55,527.03 2132.59,530.332 2133.64,519.59 2134.68,521.274 2135.72,525.577 2136.77,525.644 2137.81,529.67 2138.85,530.061 2139.9,525.134 2140.94,525.266 2141.98,529.805 2143.03,530.161 2144.07,525.079 2145.11,525.227 2146.16,525.77 2147.2,525.814 2148.24,530.623 2149.29,530.858 2150.33,529.409 2151.37,529.539 2152.42,527.022 2153.46,527.615 2154.51,536.153 2155.55,537.396 2156.59,526.584 2157.64,526.648 2158.68,561.876 2159.72,561.988 2160.77,551.666 2161.81,552.495 2162.85,512.496 2163.9,518.534 2164.94,531.916 2165.98,532.01 2167.03,555.512 2168.07,555.702 2169.11,522.472 2170.16,522.993 2171.2,530.126 2172.24,530.169 2173.29,529.665 2174.33,530.907 2175.37,520.37 2176.42,522.814 2177.46,529.729 2178.5,529.933 2179.55,525.587 2180.59,525.598 2181.63,552.292 2182.68,553.355 2183.72,531.068 2184.76,531.086 2185.81,528.325 2186.85,528.737 2187.89,527.88 2188.94,530.354 2189.98,552.35 2191.03,553.88 2192.07,552.289 2193.11,552.315 2194.16,525.714 2195.2,526.487 2196.24,523.411 2197.29,523.949 2198.33,524.904 2199.37,525.836 2200.42,528.315 2201.46,528.928 2202.5,535.188 2203.55,535.341 2204.59,525.668 2205.63,525.701 2206.68,525.786 2207.72,525.808 2208.76,526.294 2209.81,526.394 2210.85,523.156 2211.89,523.991 2212.94,557.321 2213.98,557.374 2215.02,529.966 2216.07,530.159 2217.11,525.051 2218.15,526.963 2219.2,526.99 2220.24,527.006 2221.28,530.702 2222.33,531.241 2223.37,528.809 2224.41,528.823 2225.46,530.791 2226.5,530.874 2227.54,532.42 2228.59,532.452 2229.63,535.041 2230.68,535.512 2231.72,547.327 2232.76,549.251 2233.81,530.443 2234.85,530.584 2235.89,526.552 2236.94,527.21 2237.98,551.398 2239.02,553.801 2240.07,538.359 2241.11,538.368 2242.15,574.32 2243.2,574.409 2244.24,511.361 2245.28,513.476 2246.33,546.95 2247.37,547.43 2248.41,534.441 2249.46,534.459 2250.5,518.75 2251.54,520.43 2252.59,556.976 2253.63,556.985 2254.67,536.407 2255.72,536.697 2256.76,537.398 2257.8,537.417 2258.85,568.994 2259.89,569.171 2260.93,517.42 2261.98,518.657 2263.02,531.312 2264.06,531.334 2265.11,528.875 2266.15,528.904 2267.2,521.815 2268.24,522.426 2269.28,532.365 2270.33,532.701 2271.37,529.108 2272.41,529.119 2273.46,535.65 2274.5,536.072 2275.54,515.135 2276.59,516.945 2277.63,564.468 2278.67,565.237 2279.72,550.221 2280.76,550.622 2281.8,523.869 2282.85,524.202 2283.89,529.577 2284.93,529.674 2285.98,534.306 2287.02,537.191 2288.06,531.608 2289.11,531.623 2290.15,531.636 "/>
<path clip-path="url(#clip890)" d="M2005.38 1438.47 L2279.02 1438.47 L2279.02 1334.79 L2005.38 1334.79  Z" fill="#ffffff" fill-rule="evenodd" fill-opacity="1"/>
<polyline clip-path="url(#clip890)" style="stroke:#000000; stroke-linecap:round; stroke-linejoin:round; stroke-width:4; stroke-opacity:1; fill:none" points="2005.38,1438.47 2279.02,1438.47 2279.02,1334.79 2005.38,1334.79 2005.38,1438.47 "/>
<polyline clip-path="url(#clip890)" style="stroke:#009af9; stroke-linecap:round; stroke-linejoin:round; stroke-width:4; stroke-opacity:1; fill:none" points="2029.96,1386.63 2177.43,1386.63 "/>
<path clip-path="url(#clip890)" d="M2215.85 1406.32 Q2214.05 1410.95 2212.34 1412.36 Q2210.62 1413.78 2207.75 1413.78 L2204.35 1413.78 L2204.35 1410.21 L2206.85 1410.21 Q2208.61 1410.21 2209.58 1409.38 Q2210.55 1408.54 2211.73 1405.44 L2212.5 1403.5 L2202.01 1377.99 L2206.53 1377.99 L2214.63 1398.27 L2222.73 1377.99 L2227.24 1377.99 L2215.85 1406.32 Z" fill="#000000" fill-rule="nonzero" fill-opacity="1" /><path clip-path="url(#clip890)" d="M2234.53 1399.98 L2242.17 1399.98 L2242.17 1373.61 L2233.86 1375.28 L2233.86 1371.02 L2242.13 1369.35 L2246.8 1369.35 L2246.8 1399.98 L2254.44 1399.98 L2254.44 1403.91 L2234.53 1403.91 L2234.53 1399.98 Z" fill="#000000" fill-rule="nonzero" fill-opacity="1" /></svg>
