<?xml version="1.0" encoding="utf-8"?>
<svg xmlns="http://www.w3.org/2000/svg" xmlns:xlink="http://www.w3.org/1999/xlink" width="600" height="400" viewBox="0 0 2400 1600">
<defs>
  <clipPath id="clip280">
    <rect x="0" y="0" width="2400" height="1600"/>
  </clipPath>
</defs>
<path clip-path="url(#clip280)" d="M0 1600 L2400 1600 L2400 0 L0 0  Z" fill="#ffffff" fill-rule="evenodd" fill-opacity="1"/>
<defs>
  <clipPath id="clip281">
    <rect x="480" y="0" width="1681" height="1600"/>
  </clipPath>
</defs>
<path clip-path="url(#clip280)" d="M199.283 1486.45 L2352.76 1486.45 L2352.76 47.2441 L199.283 47.2441  Z" fill="#ffffff" fill-rule="evenodd" fill-opacity="1"/>
<defs>
  <clipPath id="clip282">
    <rect x="199" y="47" width="2154" height="1440"/>
  </clipPath>
</defs>
<polyline clip-path="url(#clip282)" style="stroke:#000000; stroke-linecap:round; stroke-linejoin:round; stroke-width:2; stroke-opacity:0.1; fill:none" points="260.231,1486.45 260.231,47.2441 "/>
<polyline clip-path="url(#clip282)" style="stroke:#000000; stroke-linecap:round; stroke-linejoin:round; stroke-width:2; stroke-opacity:0.1; fill:none" points="768.125,1486.45 768.125,47.2441 "/>
<polyline clip-path="url(#clip282)" style="stroke:#000000; stroke-linecap:round; stroke-linejoin:round; stroke-width:2; stroke-opacity:0.1; fill:none" points="1276.02,1486.45 1276.02,47.2441 "/>
<polyline clip-path="url(#clip282)" style="stroke:#000000; stroke-linecap:round; stroke-linejoin:round; stroke-width:2; stroke-opacity:0.1; fill:none" points="1783.91,1486.45 1783.91,47.2441 "/>
<polyline clip-path="url(#clip282)" style="stroke:#000000; stroke-linecap:round; stroke-linejoin:round; stroke-width:2; stroke-opacity:0.1; fill:none" points="2291.81,1486.45 2291.81,47.2441 "/>
<polyline clip-path="url(#clip280)" style="stroke:#000000; stroke-linecap:round; stroke-linejoin:round; stroke-width:4; stroke-opacity:1; fill:none" points="199.283,1486.45 2352.76,1486.45 "/>
<polyline clip-path="url(#clip280)" style="stroke:#000000; stroke-linecap:round; stroke-linejoin:round; stroke-width:4; stroke-opacity:1; fill:none" points="260.231,1486.45 260.231,1467.55 "/>
<polyline clip-path="url(#clip280)" style="stroke:#000000; stroke-linecap:round; stroke-linejoin:round; stroke-width:4; stroke-opacity:1; fill:none" points="768.125,1486.45 768.125,1467.55 "/>
<polyline clip-path="url(#clip280)" style="stroke:#000000; stroke-linecap:round; stroke-linejoin:round; stroke-width:4; stroke-opacity:1; fill:none" points="1276.02,1486.45 1276.02,1467.55 "/>
<polyline clip-path="url(#clip280)" style="stroke:#000000; stroke-linecap:round; stroke-linejoin:round; stroke-width:4; stroke-opacity:1; fill:none" points="1783.91,1486.45 1783.91,1467.55 "/>
<polyline clip-path="url(#clip280)" style="stroke:#000000; stroke-linecap:round; stroke-linejoin:round; stroke-width:4; stroke-opacity:1; fill:none" points="2291.81,1486.45 2291.81,1467.55 "/>
<path clip-path="url(#clip280)" d="M260.231 1517.37 Q256.619 1517.37 254.791 1520.93 Q252.985 1524.47 252.985 1531.6 Q252.985 1538.71 254.791 1542.27 Q256.619 1545.82 260.231 1545.82 Q263.865 1545.82 265.67 1542.27 Q267.499 1538.71 267.499 1531.6 Q267.499 1524.47 265.67 1520.93 Q263.865 1517.37 260.231 1517.37 M260.231 1513.66 Q266.041 1513.66 269.096 1518.27 Q272.175 1522.85 272.175 1531.6 Q272.175 1540.33 269.096 1544.94 Q266.041 1549.52 260.231 1549.52 Q254.42 1549.52 251.342 1544.94 Q248.286 1540.33 248.286 1531.6 Q248.286 1522.85 251.342 1518.27 Q254.42 1513.66 260.231 1513.66 Z" fill="#000000" fill-rule="nonzero" fill-opacity="1" /><path clip-path="url(#clip280)" d="M727.743 1514.29 L746.1 1514.29 L746.1 1518.22 L732.026 1518.22 L732.026 1526.7 Q733.044 1526.35 734.063 1526.19 Q735.081 1526 736.1 1526 Q741.887 1526 745.266 1529.17 Q748.646 1532.34 748.646 1537.76 Q748.646 1543.34 745.174 1546.44 Q741.702 1549.52 735.382 1549.52 Q733.206 1549.52 730.938 1549.15 Q728.692 1548.78 726.285 1548.04 L726.285 1543.34 Q728.368 1544.47 730.591 1545.03 Q732.813 1545.58 735.29 1545.58 Q739.294 1545.58 741.632 1543.48 Q743.97 1541.37 743.97 1537.76 Q743.97 1534.15 741.632 1532.04 Q739.294 1529.94 735.29 1529.94 Q733.415 1529.94 731.54 1530.35 Q729.688 1530.77 727.743 1531.65 L727.743 1514.29 Z" fill="#000000" fill-rule="nonzero" fill-opacity="1" /><path clip-path="url(#clip280)" d="M767.859 1517.37 Q764.248 1517.37 762.419 1520.93 Q760.614 1524.47 760.614 1531.6 Q760.614 1538.71 762.419 1542.27 Q764.248 1545.82 767.859 1545.82 Q771.493 1545.82 773.299 1542.27 Q775.127 1538.71 775.127 1531.6 Q775.127 1524.47 773.299 1520.93 Q771.493 1517.37 767.859 1517.37 M767.859 1513.66 Q773.669 1513.66 776.725 1518.27 Q779.803 1522.85 779.803 1531.6 Q779.803 1540.33 776.725 1544.94 Q773.669 1549.52 767.859 1549.52 Q762.049 1549.52 758.97 1544.94 Q755.914 1540.33 755.914 1531.6 Q755.914 1522.85 758.97 1518.27 Q762.049 1513.66 767.859 1513.66 Z" fill="#000000" fill-rule="nonzero" fill-opacity="1" /><path clip-path="url(#clip280)" d="M798.021 1517.37 Q794.41 1517.37 792.581 1520.93 Q790.775 1524.47 790.775 1531.6 Q790.775 1538.71 792.581 1542.27 Q794.41 1545.82 798.021 1545.82 Q801.655 1545.82 803.46 1542.27 Q805.289 1538.71 805.289 1531.6 Q805.289 1524.47 803.46 1520.93 Q801.655 1517.37 798.021 1517.37 M798.021 1513.66 Q803.831 1513.66 806.886 1518.27 Q809.965 1522.85 809.965 1531.6 Q809.965 1540.33 806.886 1544.94 Q803.831 1549.52 798.021 1549.52 Q792.211 1549.52 789.132 1544.94 Q786.076 1540.33 786.076 1531.6 Q786.076 1522.85 789.132 1518.27 Q792.211 1513.66 798.021 1513.66 Z" fill="#000000" fill-rule="nonzero" fill-opacity="1" /><path clip-path="url(#clip280)" d="M1220.55 1544.91 L1228.18 1544.91 L1228.18 1518.55 L1219.87 1520.21 L1219.87 1515.95 L1228.14 1514.29 L1232.81 1514.29 L1232.81 1544.91 L1240.45 1544.91 L1240.45 1548.85 L1220.55 1548.85 L1220.55 1544.91 Z" fill="#000000" fill-rule="nonzero" fill-opacity="1" /><path clip-path="url(#clip280)" d="M1259.9 1517.37 Q1256.29 1517.37 1254.46 1520.93 Q1252.65 1524.47 1252.65 1531.6 Q1252.65 1538.71 1254.46 1542.27 Q1256.29 1545.82 1259.9 1545.82 Q1263.53 1545.82 1265.34 1542.27 Q1267.17 1538.71 1267.17 1531.6 Q1267.17 1524.47 1265.34 1520.93 Q1263.53 1517.37 1259.9 1517.37 M1259.9 1513.66 Q1265.71 1513.66 1268.76 1518.27 Q1271.84 1522.85 1271.84 1531.6 Q1271.84 1540.33 1268.76 1544.94 Q1265.71 1549.52 1259.9 1549.52 Q1254.09 1549.52 1251.01 1544.94 Q1247.95 1540.33 1247.95 1531.6 Q1247.95 1522.85 1251.01 1518.27 Q1254.09 1513.66 1259.9 1513.66 Z" fill="#000000" fill-rule="nonzero" fill-opacity="1" /><path clip-path="url(#clip280)" d="M1290.06 1517.37 Q1286.45 1517.37 1284.62 1520.93 Q1282.81 1524.47 1282.81 1531.6 Q1282.81 1538.71 1284.62 1542.27 Q1286.45 1545.82 1290.06 1545.82 Q1293.69 1545.82 1295.5 1542.27 Q1297.33 1538.71 1297.33 1531.6 Q1297.33 1524.47 1295.5 1520.93 Q1293.69 1517.37 1290.06 1517.37 M1290.06 1513.66 Q1295.87 1513.66 1298.92 1518.27 Q1302 1522.85 1302 1531.6 Q1302 1540.33 1298.92 1544.94 Q1295.87 1549.52 1290.06 1549.52 Q1284.25 1549.52 1281.17 1544.94 Q1278.11 1540.33 1278.11 1531.6 Q1278.11 1522.85 1281.17 1518.27 Q1284.25 1513.66 1290.06 1513.66 Z" fill="#000000" fill-rule="nonzero" fill-opacity="1" /><path clip-path="url(#clip280)" d="M1320.22 1517.37 Q1316.61 1517.37 1314.78 1520.93 Q1312.98 1524.47 1312.98 1531.6 Q1312.98 1538.71 1314.78 1542.27 Q1316.61 1545.82 1320.22 1545.82 Q1323.85 1545.82 1325.66 1542.27 Q1327.49 1538.71 1327.49 1531.6 Q1327.49 1524.47 1325.66 1520.93 Q1323.85 1517.37 1320.22 1517.37 M1320.22 1513.66 Q1326.03 1513.66 1329.09 1518.27 Q1332.17 1522.85 1332.17 1531.6 Q1332.17 1540.33 1329.09 1544.94 Q1326.03 1549.52 1320.22 1549.52 Q1314.41 1549.52 1311.33 1544.94 Q1308.28 1540.33 1308.28 1531.6 Q1308.28 1522.85 1311.33 1518.27 Q1314.41 1513.66 1320.22 1513.66 Z" fill="#000000" fill-rule="nonzero" fill-opacity="1" /><path clip-path="url(#clip280)" d="M1728.44 1544.91 L1736.08 1544.91 L1736.08 1518.55 L1727.77 1520.21 L1727.77 1515.95 L1736.03 1514.29 L1740.71 1514.29 L1740.71 1544.91 L1748.35 1544.91 L1748.35 1548.85 L1728.44 1548.85 L1728.44 1544.91 Z" fill="#000000" fill-rule="nonzero" fill-opacity="1" /><path clip-path="url(#clip280)" d="M1757.84 1514.29 L1776.19 1514.29 L1776.19 1518.22 L1762.12 1518.22 L1762.12 1526.7 Q1763.14 1526.35 1764.16 1526.19 Q1765.18 1526 1766.19 1526 Q1771.98 1526 1775.36 1529.17 Q1778.74 1532.34 1778.74 1537.76 Q1778.74 1543.34 1775.27 1546.44 Q1771.8 1549.52 1765.48 1549.52 Q1763.3 1549.52 1761.03 1549.15 Q1758.79 1548.78 1756.38 1548.04 L1756.38 1543.34 Q1758.46 1544.47 1760.69 1545.03 Q1762.91 1545.58 1765.38 1545.58 Q1769.39 1545.58 1771.73 1543.48 Q1774.06 1541.37 1774.06 1537.76 Q1774.06 1534.15 1771.73 1532.04 Q1769.39 1529.94 1765.38 1529.94 Q1763.51 1529.94 1761.63 1530.35 Q1759.78 1530.77 1757.84 1531.65 L1757.84 1514.29 Z" fill="#000000" fill-rule="nonzero" fill-opacity="1" /><path clip-path="url(#clip280)" d="M1797.95 1517.37 Q1794.34 1517.37 1792.51 1520.93 Q1790.71 1524.47 1790.71 1531.6 Q1790.71 1538.71 1792.51 1542.27 Q1794.34 1545.82 1797.95 1545.82 Q1801.59 1545.82 1803.39 1542.27 Q1805.22 1538.71 1805.22 1531.6 Q1805.22 1524.47 1803.39 1520.93 Q1801.59 1517.37 1797.95 1517.37 M1797.95 1513.66 Q1803.76 1513.66 1806.82 1518.27 Q1809.9 1522.85 1809.9 1531.6 Q1809.9 1540.33 1806.82 1544.94 Q1803.76 1549.52 1797.95 1549.52 Q1792.14 1549.52 1789.06 1544.94 Q1786.01 1540.33 1786.01 1531.6 Q1786.01 1522.85 1789.06 1518.27 Q1792.14 1513.66 1797.95 1513.66 Z" fill="#000000" fill-rule="nonzero" fill-opacity="1" /><path clip-path="url(#clip280)" d="M1828.12 1517.37 Q1824.5 1517.37 1822.68 1520.93 Q1820.87 1524.47 1820.87 1531.6 Q1820.87 1538.71 1822.68 1542.27 Q1824.5 1545.82 1828.12 1545.82 Q1831.75 1545.82 1833.55 1542.27 Q1835.38 1538.71 1835.38 1531.6 Q1835.38 1524.47 1833.55 1520.93 Q1831.75 1517.37 1828.12 1517.37 M1828.12 1513.66 Q1833.93 1513.66 1836.98 1518.27 Q1840.06 1522.85 1840.06 1531.6 Q1840.06 1540.33 1836.98 1544.94 Q1833.93 1549.52 1828.12 1549.52 Q1822.31 1549.52 1819.23 1544.94 Q1816.17 1540.33 1816.17 1531.6 Q1816.17 1522.85 1819.23 1518.27 Q1822.31 1513.66 1828.12 1513.66 Z" fill="#000000" fill-rule="nonzero" fill-opacity="1" /><path clip-path="url(#clip280)" d="M2240.42 1544.91 L2256.74 1544.91 L2256.74 1548.85 L2234.79 1548.85 L2234.79 1544.91 Q2237.46 1542.16 2242.04 1537.53 Q2246.65 1532.88 2247.83 1531.53 Q2250.07 1529.01 2250.95 1527.27 Q2251.86 1525.51 2251.86 1523.82 Q2251.86 1521.07 2249.91 1519.33 Q2247.99 1517.6 2244.89 1517.6 Q2242.69 1517.6 2240.23 1518.36 Q2237.8 1519.13 2235.03 1520.68 L2235.03 1515.95 Q2237.85 1514.82 2240.3 1514.24 Q2242.76 1513.66 2244.79 1513.66 Q2250.17 1513.66 2253.36 1516.35 Q2256.55 1519.03 2256.55 1523.52 Q2256.55 1525.65 2255.74 1527.57 Q2254.96 1529.47 2252.85 1532.07 Q2252.27 1532.74 2249.17 1535.95 Q2246.07 1539.15 2240.42 1544.91 Z" fill="#000000" fill-rule="nonzero" fill-opacity="1" /><path clip-path="url(#clip280)" d="M2276.55 1517.37 Q2272.94 1517.37 2271.11 1520.93 Q2269.31 1524.47 2269.31 1531.6 Q2269.31 1538.71 2271.11 1542.27 Q2272.94 1545.82 2276.55 1545.82 Q2280.19 1545.82 2281.99 1542.27 Q2283.82 1538.71 2283.82 1531.6 Q2283.82 1524.47 2281.99 1520.93 Q2280.19 1517.37 2276.55 1517.37 M2276.55 1513.66 Q2282.36 1513.66 2285.42 1518.27 Q2288.5 1522.85 2288.5 1531.6 Q2288.5 1540.33 2285.42 1544.94 Q2282.36 1549.52 2276.55 1549.52 Q2270.74 1549.52 2267.67 1544.94 Q2264.61 1540.33 2264.61 1531.6 Q2264.61 1522.85 2267.67 1518.27 Q2270.74 1513.66 2276.55 1513.66 Z" fill="#000000" fill-rule="nonzero" fill-opacity="1" /><path clip-path="url(#clip280)" d="M2306.72 1517.37 Q2303.1 1517.37 2301.28 1520.93 Q2299.47 1524.47 2299.47 1531.6 Q2299.47 1538.71 2301.28 1542.27 Q2303.1 1545.82 2306.72 1545.82 Q2310.35 1545.82 2312.16 1542.27 Q2313.98 1538.71 2313.98 1531.6 Q2313.98 1524.47 2312.16 1520.93 Q2310.35 1517.37 2306.72 1517.37 M2306.72 1513.66 Q2312.53 1513.66 2315.58 1518.27 Q2318.66 1522.85 2318.66 1531.6 Q2318.66 1540.33 2315.58 1544.94 Q2312.53 1549.52 2306.72 1549.52 Q2300.91 1549.52 2297.83 1544.94 Q2294.77 1540.33 2294.77 1531.6 Q2294.77 1522.85 2297.83 1518.27 Q2300.91 1513.66 2306.72 1513.66 Z" fill="#000000" fill-rule="nonzero" fill-opacity="1" /><path clip-path="url(#clip280)" d="M2336.88 1517.37 Q2333.27 1517.37 2331.44 1520.93 Q2329.63 1524.47 2329.63 1531.6 Q2329.63 1538.71 2331.44 1542.27 Q2333.27 1545.82 2336.88 1545.82 Q2340.51 1545.82 2342.32 1542.27 Q2344.15 1538.71 2344.15 1531.6 Q2344.15 1524.47 2342.32 1520.93 Q2340.51 1517.37 2336.88 1517.37 M2336.88 1513.66 Q2342.69 1513.66 2345.74 1518.27 Q2348.82 1522.85 2348.82 1531.6 Q2348.82 1540.33 2345.74 1544.94 Q2342.69 1549.52 2336.88 1549.52 Q2331.07 1549.52 2327.99 1544.94 Q2324.93 1540.33 2324.93 1531.6 Q2324.93 1522.85 2327.99 1518.27 Q2331.07 1513.66 2336.88 1513.66 Z" fill="#000000" fill-rule="nonzero" fill-opacity="1" /><polyline clip-path="url(#clip282)" style="stroke:#000000; stroke-linecap:round; stroke-linejoin:round; stroke-width:2; stroke-opacity:0.1; fill:none" points="199.283,1344.35 2352.76,1344.35 "/>
<polyline clip-path="url(#clip282)" style="stroke:#000000; stroke-linecap:round; stroke-linejoin:round; stroke-width:2; stroke-opacity:0.1; fill:none" points="199.283,1125.2 2352.76,1125.2 "/>
<polyline clip-path="url(#clip282)" style="stroke:#000000; stroke-linecap:round; stroke-linejoin:round; stroke-width:2; stroke-opacity:0.1; fill:none" points="199.283,906.039 2352.76,906.039 "/>
<polyline clip-path="url(#clip282)" style="stroke:#000000; stroke-linecap:round; stroke-linejoin:round; stroke-width:2; stroke-opacity:0.1; fill:none" points="199.283,686.882 2352.76,686.882 "/>
<polyline clip-path="url(#clip282)" style="stroke:#000000; stroke-linecap:round; stroke-linejoin:round; stroke-width:2; stroke-opacity:0.1; fill:none" points="199.283,467.725 2352.76,467.725 "/>
<polyline clip-path="url(#clip282)" style="stroke:#000000; stroke-linecap:round; stroke-linejoin:round; stroke-width:2; stroke-opacity:0.1; fill:none" points="199.283,248.567 2352.76,248.567 "/>
<polyline clip-path="url(#clip280)" style="stroke:#000000; stroke-linecap:round; stroke-linejoin:round; stroke-width:4; stroke-opacity:1; fill:none" points="199.283,1486.45 199.283,47.2441 "/>
<polyline clip-path="url(#clip280)" style="stroke:#000000; stroke-linecap:round; stroke-linejoin:round; stroke-width:4; stroke-opacity:1; fill:none" points="199.283,1344.35 218.181,1344.35 "/>
<polyline clip-path="url(#clip280)" style="stroke:#000000; stroke-linecap:round; stroke-linejoin:round; stroke-width:4; stroke-opacity:1; fill:none" points="199.283,1125.2 218.181,1125.2 "/>
<polyline clip-path="url(#clip280)" style="stroke:#000000; stroke-linecap:round; stroke-linejoin:round; stroke-width:4; stroke-opacity:1; fill:none" points="199.283,906.039 218.181,906.039 "/>
<polyline clip-path="url(#clip280)" style="stroke:#000000; stroke-linecap:round; stroke-linejoin:round; stroke-width:4; stroke-opacity:1; fill:none" points="199.283,686.882 218.181,686.882 "/>
<polyline clip-path="url(#clip280)" style="stroke:#000000; stroke-linecap:round; stroke-linejoin:round; stroke-width:4; stroke-opacity:1; fill:none" points="199.283,467.725 218.181,467.725 "/>
<polyline clip-path="url(#clip280)" style="stroke:#000000; stroke-linecap:round; stroke-linejoin:round; stroke-width:4; stroke-opacity:1; fill:none" points="199.283,248.567 218.181,248.567 "/>
<path clip-path="url(#clip280)" d="M51.6634 1357.7 L59.3023 1357.7 L59.3023 1331.33 L50.9921 1333 L50.9921 1328.74 L59.256 1327.07 L63.9319 1327.07 L63.9319 1357.7 L71.5707 1357.7 L71.5707 1361.63 L51.6634 1361.63 L51.6634 1357.7 Z" fill="#000000" fill-rule="nonzero" fill-opacity="1" /><path clip-path="url(#clip280)" d="M95.1817 1343 Q98.5382 1343.72 100.413 1345.99 Q102.311 1348.25 102.311 1351.59 Q102.311 1356.7 98.7928 1359.5 Q95.2743 1362.31 88.7928 1362.31 Q86.6169 1362.31 84.3021 1361.87 Q82.0105 1361.45 79.5568 1360.59 L79.5568 1356.08 Q81.5012 1357.21 83.816 1357.79 Q86.1308 1358.37 88.654 1358.37 Q93.0521 1358.37 95.3437 1356.63 Q97.6585 1354.9 97.6585 1351.59 Q97.6585 1348.53 95.5058 1346.82 Q93.3762 1345.08 89.5567 1345.08 L85.529 1345.08 L85.529 1341.24 L89.7419 1341.24 Q93.191 1341.24 95.0197 1339.87 Q96.8484 1338.49 96.8484 1335.89 Q96.8484 1333.23 94.9502 1331.82 Q93.0752 1330.38 89.5567 1330.38 Q87.6354 1330.38 85.4364 1330.8 Q83.2373 1331.22 80.5984 1332.1 L80.5984 1327.93 Q83.2605 1327.19 85.5753 1326.82 Q87.9132 1326.45 89.9734 1326.45 Q95.2974 1326.45 98.3993 1328.88 Q101.501 1331.29 101.501 1335.41 Q101.501 1338.28 99.8576 1340.27 Q98.2141 1342.24 95.1817 1343 Z" fill="#000000" fill-rule="nonzero" fill-opacity="1" /><path clip-path="url(#clip280)" d="M121.177 1330.15 Q117.566 1330.15 115.737 1333.72 Q113.932 1337.26 113.932 1344.39 Q113.932 1351.5 115.737 1355.06 Q117.566 1358.6 121.177 1358.6 Q124.811 1358.6 126.617 1355.06 Q128.445 1351.5 128.445 1344.39 Q128.445 1337.26 126.617 1333.72 Q124.811 1330.15 121.177 1330.15 M121.177 1326.45 Q126.987 1326.45 130.043 1331.06 Q133.121 1335.64 133.121 1344.39 Q133.121 1353.12 130.043 1357.72 Q126.987 1362.31 121.177 1362.31 Q115.367 1362.31 112.288 1357.72 Q109.233 1353.12 109.233 1344.39 Q109.233 1335.64 112.288 1331.06 Q115.367 1326.45 121.177 1326.45 Z" fill="#000000" fill-rule="nonzero" fill-opacity="1" /><path clip-path="url(#clip280)" d="M151.339 1330.15 Q147.728 1330.15 145.899 1333.72 Q144.093 1337.26 144.093 1344.39 Q144.093 1351.5 145.899 1355.06 Q147.728 1358.6 151.339 1358.6 Q154.973 1358.6 156.779 1355.06 Q158.607 1351.5 158.607 1344.39 Q158.607 1337.26 156.779 1333.72 Q154.973 1330.15 151.339 1330.15 M151.339 1326.45 Q157.149 1326.45 160.205 1331.06 Q163.283 1335.64 163.283 1344.39 Q163.283 1353.12 160.205 1357.72 Q157.149 1362.31 151.339 1362.31 Q145.529 1362.31 142.45 1357.72 Q139.394 1353.12 139.394 1344.39 Q139.394 1335.64 142.45 1331.06 Q145.529 1326.45 151.339 1326.45 Z" fill="#000000" fill-rule="nonzero" fill-opacity="1" /><path clip-path="url(#clip280)" d="M51.6634 1138.54 L59.3023 1138.54 L59.3023 1112.18 L50.9921 1113.84 L50.9921 1109.58 L59.256 1107.92 L63.9319 1107.92 L63.9319 1138.54 L71.5707 1138.54 L71.5707 1142.48 L51.6634 1142.48 L51.6634 1138.54 Z" fill="#000000" fill-rule="nonzero" fill-opacity="1" /><path clip-path="url(#clip280)" d="M93.8623 1111.99 L82.0568 1130.44 L93.8623 1130.44 L93.8623 1111.99 M92.6354 1107.92 L98.515 1107.92 L98.515 1130.44 L103.446 1130.44 L103.446 1134.33 L98.515 1134.33 L98.515 1142.48 L93.8623 1142.48 L93.8623 1134.33 L78.2605 1134.33 L78.2605 1129.81 L92.6354 1107.92 Z" fill="#000000" fill-rule="nonzero" fill-opacity="1" /><path clip-path="url(#clip280)" d="M121.177 1111 Q117.566 1111 115.737 1114.56 Q113.932 1118.1 113.932 1125.23 Q113.932 1132.34 115.737 1135.9 Q117.566 1139.44 121.177 1139.44 Q124.811 1139.44 126.617 1135.9 Q128.445 1132.34 128.445 1125.23 Q128.445 1118.1 126.617 1114.56 Q124.811 1111 121.177 1111 M121.177 1107.29 Q126.987 1107.29 130.043 1111.9 Q133.121 1116.48 133.121 1125.23 Q133.121 1133.96 130.043 1138.56 Q126.987 1143.15 121.177 1143.15 Q115.367 1143.15 112.288 1138.56 Q109.233 1133.96 109.233 1125.23 Q109.233 1116.48 112.288 1111.9 Q115.367 1107.29 121.177 1107.29 Z" fill="#000000" fill-rule="nonzero" fill-opacity="1" /><path clip-path="url(#clip280)" d="M151.339 1111 Q147.728 1111 145.899 1114.56 Q144.093 1118.1 144.093 1125.23 Q144.093 1132.34 145.899 1135.9 Q147.728 1139.44 151.339 1139.44 Q154.973 1139.44 156.779 1135.9 Q158.607 1132.34 158.607 1125.23 Q158.607 1118.1 156.779 1114.56 Q154.973 1111 151.339 1111 M151.339 1107.29 Q157.149 1107.29 160.205 1111.9 Q163.283 1116.48 163.283 1125.23 Q163.283 1133.96 160.205 1138.56 Q157.149 1143.15 151.339 1143.15 Q145.529 1143.15 142.45 1138.56 Q139.394 1133.96 139.394 1125.23 Q139.394 1116.48 142.45 1111.9 Q145.529 1107.29 151.339 1107.29 Z" fill="#000000" fill-rule="nonzero" fill-opacity="1" /><path clip-path="url(#clip280)" d="M51.6634 919.384 L59.3023 919.384 L59.3023 893.019 L50.9921 894.685 L50.9921 890.426 L59.256 888.759 L63.9319 888.759 L63.9319 919.384 L71.5707 919.384 L71.5707 923.319 L51.6634 923.319 L51.6634 919.384 Z" fill="#000000" fill-rule="nonzero" fill-opacity="1" /><path clip-path="url(#clip280)" d="M81.0614 888.759 L99.4178 888.759 L99.4178 892.695 L85.3438 892.695 L85.3438 901.167 Q86.3623 900.819 87.3808 900.657 Q88.3993 900.472 89.4178 900.472 Q95.2049 900.472 98.5845 903.644 Q101.964 906.815 101.964 912.231 Q101.964 917.81 98.4919 920.912 Q95.0197 923.991 88.7003 923.991 Q86.5243 923.991 84.2558 923.62 Q82.0105 923.25 79.6031 922.509 L79.6031 917.81 Q81.6864 918.944 83.9086 919.5 Q86.1308 920.055 88.6077 920.055 Q92.6123 920.055 94.9502 917.949 Q97.2882 915.843 97.2882 912.231 Q97.2882 908.62 94.9502 906.514 Q92.6123 904.407 88.6077 904.407 Q86.7327 904.407 84.8577 904.824 Q83.0058 905.241 81.0614 906.12 L81.0614 888.759 Z" fill="#000000" fill-rule="nonzero" fill-opacity="1" /><path clip-path="url(#clip280)" d="M121.177 891.838 Q117.566 891.838 115.737 895.403 Q113.932 898.944 113.932 906.074 Q113.932 913.181 115.737 916.745 Q117.566 920.287 121.177 920.287 Q124.811 920.287 126.617 916.745 Q128.445 913.181 128.445 906.074 Q128.445 898.944 126.617 895.403 Q124.811 891.838 121.177 891.838 M121.177 888.134 Q126.987 888.134 130.043 892.741 Q133.121 897.324 133.121 906.074 Q133.121 914.801 130.043 919.407 Q126.987 923.991 121.177 923.991 Q115.367 923.991 112.288 919.407 Q109.233 914.801 109.233 906.074 Q109.233 897.324 112.288 892.741 Q115.367 888.134 121.177 888.134 Z" fill="#000000" fill-rule="nonzero" fill-opacity="1" /><path clip-path="url(#clip280)" d="M151.339 891.838 Q147.728 891.838 145.899 895.403 Q144.093 898.944 144.093 906.074 Q144.093 913.181 145.899 916.745 Q147.728 920.287 151.339 920.287 Q154.973 920.287 156.779 916.745 Q158.607 913.181 158.607 906.074 Q158.607 898.944 156.779 895.403 Q154.973 891.838 151.339 891.838 M151.339 888.134 Q157.149 888.134 160.205 892.741 Q163.283 897.324 163.283 906.074 Q163.283 914.801 160.205 919.407 Q157.149 923.991 151.339 923.991 Q145.529 923.991 142.45 919.407 Q139.394 914.801 139.394 906.074 Q139.394 897.324 142.45 892.741 Q145.529 888.134 151.339 888.134 Z" fill="#000000" fill-rule="nonzero" fill-opacity="1" /><path clip-path="url(#clip280)" d="M51.6634 700.227 L59.3023 700.227 L59.3023 673.861 L50.9921 675.528 L50.9921 671.269 L59.256 669.602 L63.9319 669.602 L63.9319 700.227 L71.5707 700.227 L71.5707 704.162 L51.6634 704.162 L51.6634 700.227 Z" fill="#000000" fill-rule="nonzero" fill-opacity="1" /><path clip-path="url(#clip280)" d="M91.5938 685.019 Q88.4456 685.019 86.5938 687.171 Q84.7651 689.324 84.7651 693.074 Q84.7651 696.801 86.5938 698.977 Q88.4456 701.13 91.5938 701.13 Q94.7419 701.13 96.5706 698.977 Q98.4224 696.801 98.4224 693.074 Q98.4224 689.324 96.5706 687.171 Q94.7419 685.019 91.5938 685.019 M100.876 670.366 L100.876 674.625 Q99.1169 673.792 97.3113 673.352 Q95.5289 672.912 93.7697 672.912 Q89.1401 672.912 86.6864 676.037 Q84.2558 679.162 83.9086 685.482 Q85.2743 683.468 87.3345 682.403 Q89.3947 681.315 91.8715 681.315 Q97.0798 681.315 100.089 684.486 Q103.121 687.634 103.121 693.074 Q103.121 698.398 99.9733 701.616 Q96.8252 704.833 91.5938 704.833 Q85.5984 704.833 82.4271 700.25 Q79.2559 695.643 79.2559 686.917 Q79.2559 678.722 83.1447 673.861 Q87.0336 668.977 93.5845 668.977 Q95.3437 668.977 97.1261 669.324 Q98.9317 669.671 100.876 670.366 Z" fill="#000000" fill-rule="nonzero" fill-opacity="1" /><path clip-path="url(#clip280)" d="M121.177 672.681 Q117.566 672.681 115.737 676.245 Q113.932 679.787 113.932 686.917 Q113.932 694.023 115.737 697.588 Q117.566 701.13 121.177 701.13 Q124.811 701.13 126.617 697.588 Q128.445 694.023 128.445 686.917 Q128.445 679.787 126.617 676.245 Q124.811 672.681 121.177 672.681 M121.177 668.977 Q126.987 668.977 130.043 673.583 Q133.121 678.167 133.121 686.917 Q133.121 695.643 130.043 700.25 Q126.987 704.833 121.177 704.833 Q115.367 704.833 112.288 700.25 Q109.233 695.643 109.233 686.917 Q109.233 678.167 112.288 673.583 Q115.367 668.977 121.177 668.977 Z" fill="#000000" fill-rule="nonzero" fill-opacity="1" /><path clip-path="url(#clip280)" d="M151.339 672.681 Q147.728 672.681 145.899 676.245 Q144.093 679.787 144.093 686.917 Q144.093 694.023 145.899 697.588 Q147.728 701.13 151.339 701.13 Q154.973 701.13 156.779 697.588 Q158.607 694.023 158.607 686.917 Q158.607 679.787 156.779 676.245 Q154.973 672.681 151.339 672.681 M151.339 668.977 Q157.149 668.977 160.205 673.583 Q163.283 678.167 163.283 686.917 Q163.283 695.643 160.205 700.25 Q157.149 704.833 151.339 704.833 Q145.529 704.833 142.45 700.25 Q139.394 695.643 139.394 686.917 Q139.394 678.167 142.45 673.583 Q145.529 668.977 151.339 668.977 Z" fill="#000000" fill-rule="nonzero" fill-opacity="1" /><path clip-path="url(#clip280)" d="M51.6634 481.069 L59.3023 481.069 L59.3023 454.704 L50.9921 456.37 L50.9921 452.111 L59.256 450.445 L63.9319 450.445 L63.9319 481.069 L71.5707 481.069 L71.5707 485.005 L51.6634 485.005 L51.6634 481.069 Z" fill="#000000" fill-rule="nonzero" fill-opacity="1" /><path clip-path="url(#clip280)" d="M79.8346 450.445 L102.057 450.445 L102.057 452.435 L89.5104 485.005 L84.6262 485.005 L96.4317 454.38 L79.8346 454.38 L79.8346 450.445 Z" fill="#000000" fill-rule="nonzero" fill-opacity="1" /><path clip-path="url(#clip280)" d="M121.177 453.523 Q117.566 453.523 115.737 457.088 Q113.932 460.63 113.932 467.759 Q113.932 474.866 115.737 478.431 Q117.566 481.972 121.177 481.972 Q124.811 481.972 126.617 478.431 Q128.445 474.866 128.445 467.759 Q128.445 460.63 126.617 457.088 Q124.811 453.523 121.177 453.523 M121.177 449.82 Q126.987 449.82 130.043 454.426 Q133.121 459.009 133.121 467.759 Q133.121 476.486 130.043 481.093 Q126.987 485.676 121.177 485.676 Q115.367 485.676 112.288 481.093 Q109.233 476.486 109.233 467.759 Q109.233 459.009 112.288 454.426 Q115.367 449.82 121.177 449.82 Z" fill="#000000" fill-rule="nonzero" fill-opacity="1" /><path clip-path="url(#clip280)" d="M151.339 453.523 Q147.728 453.523 145.899 457.088 Q144.093 460.63 144.093 467.759 Q144.093 474.866 145.899 478.431 Q147.728 481.972 151.339 481.972 Q154.973 481.972 156.779 478.431 Q158.607 474.866 158.607 467.759 Q158.607 460.63 156.779 457.088 Q154.973 453.523 151.339 453.523 M151.339 449.82 Q157.149 449.82 160.205 454.426 Q163.283 459.009 163.283 467.759 Q163.283 476.486 160.205 481.093 Q157.149 485.676 151.339 485.676 Q145.529 485.676 142.45 481.093 Q139.394 476.486 139.394 467.759 Q139.394 459.009 142.45 454.426 Q145.529 449.82 151.339 449.82 Z" fill="#000000" fill-rule="nonzero" fill-opacity="1" /><path clip-path="url(#clip280)" d="M51.6634 261.912 L59.3023 261.912 L59.3023 235.546 L50.9921 237.213 L50.9921 232.954 L59.256 231.287 L63.9319 231.287 L63.9319 261.912 L71.5707 261.912 L71.5707 265.847 L51.6634 265.847 L51.6634 261.912 Z" fill="#000000" fill-rule="nonzero" fill-opacity="1" /><path clip-path="url(#clip280)" d="M91.0151 249.435 Q87.6817 249.435 85.7605 251.218 Q83.8623 253 83.8623 256.125 Q83.8623 259.25 85.7605 261.032 Q87.6817 262.815 91.0151 262.815 Q94.3484 262.815 96.2697 261.032 Q98.1909 259.227 98.1909 256.125 Q98.1909 253 96.2697 251.218 Q94.3715 249.435 91.0151 249.435 M86.3392 247.445 Q83.3299 246.704 81.6401 244.644 Q79.9735 242.583 79.9735 239.62 Q79.9735 235.477 82.9133 233.07 Q85.8762 230.662 91.0151 230.662 Q96.1771 230.662 99.1169 233.07 Q102.057 235.477 102.057 239.62 Q102.057 242.583 100.367 244.644 Q98.7002 246.704 95.7141 247.445 Q99.0937 248.232 100.969 250.523 Q102.867 252.815 102.867 256.125 Q102.867 261.148 99.7882 263.833 Q96.7326 266.518 91.0151 266.518 Q85.2975 266.518 82.2188 263.833 Q79.1633 261.148 79.1633 256.125 Q79.1633 252.815 81.0614 250.523 Q82.9595 248.232 86.3392 247.445 M84.6262 240.06 Q84.6262 242.745 86.2929 244.25 Q87.9827 245.755 91.0151 245.755 Q94.0243 245.755 95.7141 244.25 Q97.4271 242.745 97.4271 240.06 Q97.4271 237.375 95.7141 235.871 Q94.0243 234.366 91.0151 234.366 Q87.9827 234.366 86.2929 235.871 Q84.6262 237.375 84.6262 240.06 Z" fill="#000000" fill-rule="nonzero" fill-opacity="1" /><path clip-path="url(#clip280)" d="M121.177 234.366 Q117.566 234.366 115.737 237.931 Q113.932 241.472 113.932 248.602 Q113.932 255.708 115.737 259.273 Q117.566 262.815 121.177 262.815 Q124.811 262.815 126.617 259.273 Q128.445 255.708 128.445 248.602 Q128.445 241.472 126.617 237.931 Q124.811 234.366 121.177 234.366 M121.177 230.662 Q126.987 230.662 130.043 235.269 Q133.121 239.852 133.121 248.602 Q133.121 257.329 130.043 261.935 Q126.987 266.518 121.177 266.518 Q115.367 266.518 112.288 261.935 Q109.233 257.329 109.233 248.602 Q109.233 239.852 112.288 235.269 Q115.367 230.662 121.177 230.662 Z" fill="#000000" fill-rule="nonzero" fill-opacity="1" /><path clip-path="url(#clip280)" d="M151.339 234.366 Q147.728 234.366 145.899 237.931 Q144.093 241.472 144.093 248.602 Q144.093 255.708 145.899 259.273 Q147.728 262.815 151.339 262.815 Q154.973 262.815 156.779 259.273 Q158.607 255.708 158.607 248.602 Q158.607 241.472 156.779 237.931 Q154.973 234.366 151.339 234.366 M151.339 230.662 Q157.149 230.662 160.205 235.269 Q163.283 239.852 163.283 248.602 Q163.283 257.329 160.205 261.935 Q157.149 266.518 151.339 266.518 Q145.529 266.518 142.45 261.935 Q139.394 257.329 139.394 248.602 Q139.394 239.852 142.45 235.269 Q145.529 230.662 151.339 230.662 Z" fill="#000000" fill-rule="nonzero" fill-opacity="1" /><polyline clip-path="url(#clip282)" style="stroke:#009af9; stroke-linecap:round; stroke-linejoin:round; stroke-width:4; stroke-opacity:1; fill:none" points="260.231,770.906 261.246,771.252 262.262,771.59 263.278,771.919 264.294,772.241 265.309,741.323 266.325,741.736 267.341,742.138 268.357,742.53 269.373,742.913 270.388,945.256 271.404,945.333 272.42,945.408 273.436,945.482 274.452,945.554 275.467,834.765 276.483,835.092 277.499,835.411 278.515,835.722 279.531,836.025 280.546,812.425 281.562,812.658 282.578,812.885 283.594,813.106 284.609,813.323 285.625,1195.26 286.641,1195.56 287.657,1195.85 288.673,1196.13 289.688,1196.41 290.704,378.064 291.72,378.168 292.736,378.268 293.752,378.366 294.767,378.46 295.783,1003.38 296.799,1003.57 297.815,1003.74 298.831,1003.92 299.846,1004.08 300.862,882.615 301.878,882.717 302.894,882.817 303.909,882.914 304.925,883.009 305.941,817.988 306.957,818.066 307.973,818.142 308.988,818.216 310.004,818.288 311.02,671.047 312.036,671.13 313.052,671.21 314.067,671.289 315.083,671.365 316.099,402.865 317.115,402.893 318.131,402.921 319.146,402.948 320.162,402.974 321.178,1274.02 322.194,1274.18 323.209,1274.34 324.225,1274.5 325.241,1274.65 326.257,1027.52 327.273,1027.62 328.288,1027.72 329.304,1027.82 330.32,1027.92 331.336,689.476 332.352,689.624 333.367,689.768 334.383,689.908 335.399,690.045 336.415,598.884 337.43,598.97 338.446,599.054 339.462,599.136 340.478,599.215 341.494,653.746 342.509,653.894 343.525,654.037 344.541,654.177 345.557,654.313 346.573,554.644 347.588,554.653 348.604,554.661 349.62,554.668 350.636,554.676 351.652,781.95 352.667,782.056 353.683,782.159 354.699,782.26 355.715,782.359 356.73,701.249 357.746,701.503 358.762,701.751 359.778,701.993 360.794,702.229 361.809,829.724 362.825,829.844 363.841,829.961 364.857,830.075 365.873,830.186 366.888,794.612 367.904,794.674 368.92,794.735 369.936,794.795 370.952,794.853 371.967,367.455 372.983,367.653 373.999,367.844 375.015,368.03 376.03,368.211 377.046,848.417 378.062,848.642 379.078,848.861 380.094,849.076 381.109,849.285 382.125,768.248 383.141,768.35 384.157,768.449 385.173,768.546 386.188,768.64 387.204,1013.32 388.22,1013.38 389.236,1013.44 390.252,1013.5 391.267,1013.56 392.283,669.46 393.299,669.583 394.315,669.703 395.33,669.82 396.346,669.934 397.362,563.302 398.378,563.408 399.394,563.51 400.409,563.61 401.425,563.708 402.441,645.518 403.457,645.594 404.473,645.668 405.488,645.741 406.504,645.811 407.52,630.743 408.536,630.795 409.552,630.845 410.567,630.894 411.583,630.942 412.599,1089.53 413.615,1089.8 414.63,1090.06 415.646,1090.32 416.662,1090.57 417.678,622.587 418.694,622.766 419.709,622.941 420.725,623.112 421.741,623.278 422.757,1205.73 423.773,1205.82 424.788,1205.91 425.804,1205.99 426.82,1206.08 427.836,717.744 428.852,717.837 429.867,717.927 430.883,718.015 431.899,718.101 432.915,1168.13 433.93,1168.36 434.946,1168.58 435.962,1168.79 436.978,1169 437.994,688.124 439.009,688.202 440.025,688.277 441.041,688.351 442.057,688.422 443.073,788.285 444.088,788.537 445.104,788.783 446.12,789.023 447.136,789.257 448.151,1085.32 449.167,1085.5 450.183,1085.67 451.199,1085.83 452.215,1085.99 453.23,807.88 454.246,807.973 455.262,808.063 456.278,808.152 457.294,808.238 458.309,595.46 459.325,595.564 460.341,595.666 461.357,595.765 462.373,595.862 463.388,972.232 464.404,972.503 465.42,972.768 466.436,973.028 467.451,973.282 468.467,664.021 469.483,664.185 470.499,664.345 471.515,664.501 472.53,664.653 473.546,920.196 474.562,920.246 475.578,920.295 476.594,920.343 477.609,920.389 478.625,641.492 479.641,641.624 480.657,641.752 481.673,641.877 482.688,641.999 483.704,793.842 484.72,793.937 485.736,794.03 486.751,794.121 487.767,794.209 488.783,827.205 489.799,827.345 490.815,827.482 491.83,827.615 492.846,827.746 493.862,1131.02 494.878,1131.14 495.894,1131.26 496.909,1131.38 497.925,1131.5 498.941,373.652 499.957,373.771 500.973,373.886 501.988,373.997 503.004,374.106 504.02,1135.68 505.036,1136.02 506.051,1136.35 507.067,1136.68 508.083,1137 509.099,680.727 510.115,680.8 511.13,680.871 512.146,680.94 513.162,681.008 514.178,556.729 515.194,556.81 516.209,556.889 517.225,556.966 518.241,557.04 519.257,800.192 520.273,800.323 521.288,800.451 522.304,800.577 523.32,800.699 524.336,1038.48 525.351,1038.55 526.367,1038.62 527.383,1038.69 528.399,1038.75 529.415,482.774 530.43,482.833 531.446,482.89 532.462,482.946 533.478,483 534.494,762.267 535.509,762.538 536.525,762.803 537.541,763.06 538.557,763.311 539.573,854.793 540.588,854.863 541.604,854.931 542.62,854.998 543.636,855.063 544.651,595.408 545.667,595.566 546.683,595.721 547.699,595.871 548.715,596.017 549.73,810.587 550.746,810.645 551.762,810.702 552.778,810.757 553.794,810.81 554.809,585.53 555.825,585.594 556.841,585.656 557.857,585.717 558.873,585.776 559.888,292.575 560.904,292.895 561.92,293.205 562.936,293.505 563.951,293.796 564.967,590.187 565.983,590.344 566.999,590.497 568.015,590.646 569.03,590.791 570.046,1115.3 571.062,1115.43 572.078,1115.57 573.094,1115.7 574.109,1115.82 575.125,928.82 576.141,928.865 577.157,928.909 578.172,928.952 579.188,928.995 580.204,564.766 581.22,564.86 582.236,564.951 583.251,565.04 584.267,565.127 585.283,891.269 586.299,891.499 587.315,891.722 588.33,891.94 589.346,892.152 590.362,664.708 591.378,664.859 592.394,665.005 593.409,665.148 594.425,665.287 595.441,636.558 596.457,636.629 597.472,636.699 598.488,636.768 599.504,636.834 600.52,1220.21 601.536,1220.3 602.551,1220.39 603.567,1220.48 604.583,1220.57 605.599,771.993 606.615,772.228 607.63,772.458 608.646,772.683 609.662,772.902 610.678,573.093 611.694,573.286 612.709,573.474 613.725,573.656 614.741,573.833 615.757,272.49 616.772,272.705 617.788,272.913 618.804,273.115 619.82,273.312 620.836,795.644 621.851,795.779 622.867,795.911 623.883,796.039 624.899,796.165 625.915,739.936 626.93,740.064 627.946,740.188 628.962,740.31 629.978,740.428 630.994,677.986 632.009,678.176 633.025,678.361 634.041,678.541 635.057,678.717 636.072,1291.23 637.088,1291.29 638.104,1291.36 639.12,1291.42 640.136,1291.48 641.151,815.313 642.167,815.428 643.183,815.539 644.199,815.648 645.215,815.754 646.23,443.655 647.246,443.874 648.262,444.087 649.278,444.294 650.294,444.496 651.309,550.111 652.325,550.146 653.341,550.18 654.357,550.213 655.372,550.245 656.388,919.231 657.404,919.288 658.42,919.344 659.436,919.398 660.451,919.451 661.467,674.297 662.483,674.458 663.499,674.615 664.515,674.769 665.53,674.918 666.546,532.235 667.562,532.336 668.578,532.434 669.594,532.53 670.609,532.623 671.625,1152.21 672.641,1152.26 673.657,1152.31 674.672,1152.35 675.688,1152.4 676.704,717.176 677.72,717.252 678.736,717.325 679.751,717.397 680.767,717.467 681.783,693.677 682.799,693.973 683.815,694.262 684.83,694.543 685.846,694.817 686.862,974.49 687.878,974.545 688.893,974.6 689.909,974.653 690.925,974.705 691.941,663.791 692.957,663.889 693.972,663.985 694.988,664.078 696.004,664.169 697.02,931.209 698.036,931.384 699.051,931.555 700.067,931.722 701.083,931.885 702.099,623.393 703.115,623.468 704.13,623.541 705.146,623.612 706.162,623.682 707.178,704.669 708.193,704.738 709.209,704.805 710.225,704.87 711.241,704.933 712.257,1206.04 713.272,1206.07 714.288,1206.1 715.304,1206.13 716.32,1206.15 717.336,467.186 718.351,467.324 719.367,467.459 720.383,467.59 721.399,467.718 722.415,622.133 723.43,622.438 724.446,622.734 725.462,623.023 726.478,623.304 727.493,917.269 728.509,917.429 729.525,917.585 730.541,917.737 731.557,917.886 732.572,762.355 733.588,762.448 734.604,762.539 735.62,762.627 736.636,762.714 737.651,583.056 738.667,583.127 739.683,583.196 740.699,583.263 741.715,583.329 742.73,1024.45 743.746,1024.52 744.762,1024.59 745.778,1024.66 746.793,1024.72 747.809,306.902 748.825,307.099 749.841,307.291 750.857,307.476 751.872,307.656 752.888,889.488 753.904,889.542 754.92,889.595 755.936,889.647 756.951,889.697 757.967,663.212 758.983,663.291 759.999,663.369 761.015,663.444 762.03,663.518 763.046,947.887 764.062,947.962 765.078,948.034 766.093,948.104 767.109,948.173 768.125,483.257 769.141,483.332 770.157,483.405 771.172,483.476 772.188,483.545 773.204,453.041 774.22,453.129 775.236,453.215 776.251,453.297 777.267,453.378 778.283,812.684 779.299,812.818 780.315,812.948 781.33,813.074 782.346,813.198 783.362,603.207 784.378,603.376 785.393,603.54 786.409,603.7 787.425,603.855 788.441,670.294 789.457,670.567 790.472,670.832 791.488,671.09 792.504,671.342 793.52,1162.2 794.536,1162.31 795.551,1162.41 796.567,1162.52 797.583,1162.62 798.599,1031.59 799.614,1031.64 800.63,1031.7 801.646,1031.75 802.662,1031.8 803.678,959.762 804.693,959.82 805.709,959.877 806.725,959.932 807.741,959.986 808.757,404.597 809.772,404.71 810.788,404.819 811.804,404.925 812.82,405.029 813.836,1114.91 814.851,1115.02 815.867,1115.13 816.883,1115.24 817.899,1115.34 818.914,692.056 819.93,692.175 820.946,692.291 821.962,692.404 822.978,692.513 823.993,756.326 825.009,756.546 826.025,756.761 827.041,756.97 828.057,757.174 829.072,971.194 830.088,971.228 831.104,971.262 832.12,971.296 833.136,971.328 834.151,833.191 835.167,833.546 836.183,833.893 837.199,834.232 838.214,834.562 839.23,824.11 840.246,824.253 841.262,824.393 842.278,824.529 843.293,824.662 844.309,935.726 845.325,935.749 846.341,935.771 847.357,935.793 848.372,935.814 849.388,823.458 850.404,823.617 851.42,823.771 852.436,823.922 853.451,824.07 854.467,943.427 855.483,943.569 856.499,943.708 857.514,943.844 858.53,943.976 859.546,956.316 860.562,956.457 861.578,956.594 862.593,956.729 863.609,956.86 864.625,423.905 865.641,424.024 866.657,424.141 867.672,424.254 868.688,424.363 869.704,925.935 870.72,925.967 871.736,925.999 872.751,926.029 873.767,926.059 874.783,623.543 875.799,623.659 876.814,623.772 877.83,623.881 878.846,623.988 879.862,846.288 880.878,846.369 881.893,846.448 882.909,846.525 883.925,846.601 884.941,1070.08 885.957,1070.22 886.972,1070.37 887.988,1070.51 889.004,1070.65 890.02,608.314 891.036,608.507 892.051,608.695 893.067,608.878 894.083,609.056 895.099,1045.97 896.114,1046.19 897.13,1046.4 898.146,1046.61 899.162,1046.82 900.178,899.281 901.193,899.371 902.209,899.458 903.225,899.544 904.241,899.627 905.257,849.386 906.272,849.449 907.288,849.51 908.304,849.571 909.32,849.629 910.336,623.626 911.351,623.813 912.367,623.995 913.383,624.172 914.399,624.345 915.414,87.9763 916.43,88.0481 917.446,88.1175 918.462,88.1847 919.478,88.2497 920.493,842.345 921.509,842.385 922.525,842.425 923.541,842.463 924.557,842.501 925.572,757.224 926.588,757.244 927.604,757.265 928.62,757.284 929.635,757.304 930.651,398.97 931.667,399.021 932.683,399.071 933.699,399.119 934.714,399.166 935.73,778.293 936.746,778.532 937.762,778.766 938.778,778.994 939.793,779.217 940.809,266.802 941.825,266.994 942.841,267.18 943.857,267.36 944.872,267.535 945.888,484.711 946.904,484.789 947.92,484.865 948.935,484.938 949.951,485.01 950.967,874.949 951.983,875.006 952.999,875.061 954.014,875.115 955.03,875.168 956.046,1195.21 957.062,1195.39 958.078,1195.56 959.093,1195.73 960.109,1195.9 961.125,992.123 962.141,992.286 963.157,992.445 964.172,992.601 965.188,992.753 966.204,801.927 967.22,802.222 968.235,802.511 969.251,802.792 970.267,803.067 971.283,958.921 972.299,959.013 973.314,959.104 974.33,959.192 975.346,959.279 976.362,898.431 977.378,898.5 978.393,898.567 979.409,898.633 980.425,898.697 981.441,992.881 982.457,992.988 983.472,993.092 984.488,993.194 985.504,993.294 986.52,532.123 987.535,532.282 988.551,532.437 989.567,532.587 990.583,532.734 991.599,882.788 992.614,882.936 993.63,883.08 994.646,883.221 995.662,883.359 996.678,995.902 997.693,995.971 998.709,996.038 999.725,996.103 1000.74,996.167 1001.76,1001.45 1002.77,1001.55 1003.79,1001.64 1004.8,1001.73 1005.82,1001.82 1006.84,538.37 1007.85,538.41 1008.87,538.45 1009.88,538.489 1010.9,538.526 1011.91,943.281 1012.93,943.47 1013.95,943.655 1014.96,943.836 1015.98,944.012 1016.99,141.012 1018.01,141.24 1019.02,141.461 1020.04,141.676 1021.06,141.884 1022.07,927.443 1023.09,927.476 1024.1,927.509 1025.12,927.54 1026.14,927.571 1027.15,567.46 1028.17,567.598 1029.18,567.733 1030.2,567.864 1031.21,567.991 1032.23,833.652 1033.25,833.878 1034.26,834.097 1035.28,834.312 1036.29,834.521 1037.31,799.489 1038.32,799.74 1039.34,799.985 1040.36,800.224 1041.37,800.457 1042.39,1011.83 1043.4,1012.03 1044.42,1012.22 1045.44,1012.4 1046.45,1012.58 1047.47,752.965 1048.48,753.011 1049.5,753.056 1050.51,753.1 1051.53,753.142 1052.55,1157.02 1053.56,1157.12 1054.58,1157.21 1055.59,1157.31 1056.61,1157.4 1057.62,614.459 1058.64,614.611 1059.66,614.759 1060.67,614.902 1061.69,615.043 1062.7,822.856 1063.72,822.895 1064.74,822.932 1065.75,822.969 1066.77,823.005 1067.78,571.908 1068.8,571.993 1069.81,572.076 1070.83,572.156 1071.85,572.234 1072.86,723.212 1073.88,723.307 1074.89,723.4 1075.91,723.491 1076.92,723.579 1077.94,911.268 1078.96,911.423 1079.97,911.575 1080.99,911.723 1082,911.868 1083.02,746.449 1084.04,746.579 1085.05,746.706 1086.07,746.829 1087.08,746.95 1088.1,378.488 1089.11,378.571 1090.13,378.651 1091.15,378.729 1092.16,378.804 1093.18,675.883 1094.19,676.063 1095.21,676.239 1096.22,676.41 1097.24,676.577 1098.26,417.644 1099.27,417.817 1100.29,417.985 1101.3,418.148 1102.32,418.307 1103.34,1026.64 1104.35,1026.72 1105.37,1026.79 1106.38,1026.87 1107.4,1026.94 1108.41,986.816 1109.43,986.915 1110.45,987.012 1111.46,987.107 1112.48,987.199 1113.49,527.467 1114.51,527.627 1115.52,527.782 1116.54,527.934 1117.56,528.081 1118.57,991.682 1119.59,991.753 1120.6,991.821 1121.62,991.889 1122.64,991.954 1123.65,216.41 1124.67,216.628 1125.68,216.839 1126.7,217.043 1127.71,217.242 1128.73,896.552 1129.75,896.626 1130.76,896.698 1131.78,896.768 1132.79,896.836 1133.81,560.96 1134.82,561.053 1135.84,561.143 1136.86,561.23 1137.87,561.315 1138.89,778.586 1139.9,778.637 1140.92,778.686 1141.94,778.734 1142.95,778.78 1143.97,928.615 1144.98,928.779 1146,928.938 1147.01,929.094 1148.03,929.247 1149.05,717.043 1150.06,717.097 1151.08,717.149 1152.09,717.2 1153.11,717.25 1154.12,579.339 1155.14,579.7 1156.16,580.051 1157.17,580.392 1158.19,580.724 1159.2,759.54 1160.22,759.805 1161.24,760.063 1162.25,760.315 1163.27,760.56 1164.28,664.214 1165.3,664.267 1166.31,664.319 1167.33,664.37 1168.35,664.42 1169.36,1035.65 1170.38,1035.86 1171.39,1036.06 1172.41,1036.26 1173.42,1036.46 1174.44,477.591 1175.46,477.677 1176.47,477.759 1177.49,477.84 1178.5,477.918 1179.52,623.744 1180.54,623.793 1181.55,623.84 1182.57,623.885 1183.58,623.93 1184.6,1325.25 1185.61,1325.31 1186.63,1325.38 1187.65,1325.44 1188.66,1325.5 1189.68,771.248 1190.69,771.365 1191.71,771.479 1192.72,771.59 1193.74,771.698 1194.76,998.941 1195.77,998.971 1196.79,998.999 1197.8,999.028 1198.82,999.055 1199.84,1262.15 1200.85,1262.29 1201.87,1262.42 1202.88,1262.56 1203.9,1262.69 1204.91,1006.19 1205.93,1006.25 1206.95,1006.31 1207.96,1006.37 1208.98,1006.43 1209.99,961.622 1211.01,961.867 1212.02,962.106 1213.04,962.34 1214.06,962.568 1215.07,897.592 1216.09,897.668 1217.1,897.742 1218.12,897.814 1219.14,897.885 1220.15,429.031 1221.17,429.279 1222.18,429.52 1223.2,429.754 1224.21,429.982 1225.23,764.308 1226.25,764.575 1227.26,764.835 1228.28,765.088 1229.29,765.336 1230.31,913.479 1231.32,913.582 1232.34,913.683 1233.36,913.781 1234.37,913.877 1235.39,730.197 1236.4,730.478 1237.42,730.752 1238.44,731.02 1239.45,731.28 1240.47,837.147 1241.48,837.226 1242.5,837.304 1243.51,837.38 1244.53,837.454 1245.55,632.35 1246.56,632.542 1247.58,632.729 1248.59,632.91 1249.61,633.088 1250.62,942.598 1251.64,942.641 1252.66,942.683 1253.67,942.724 1254.69,942.764 1255.7,894.819 1256.72,894.892 1257.74,894.964 1258.75,895.035 1259.77,895.103 1260.78,1061.28 1261.8,1061.35 1262.81,1061.41 1263.83,1061.48 1264.85,1061.54 1265.86,608.175 1266.88,608.187 1267.89,608.199 1268.91,608.211 1269.92,608.223 1270.94,342.819 1271.96,342.888 1272.97,342.955 1273.99,343.02 1275,343.083 1276.02,598.604 1277.04,598.671 1278.05,598.736 1279.07,598.799 1280.08,598.861 1281.1,666.791 1282.11,666.834 1283.13,666.876 1284.15,666.917 1285.16,666.957 1286.18,482.002 1287.19,482.2 1288.21,482.391 1289.22,482.578 1290.24,482.759 1291.26,747.55 1292.27,747.805 1293.29,748.053 1294.3,748.294 1295.32,748.53 1296.34,647.976 1297.35,648.078 1298.37,648.177 1299.38,648.274 1300.4,648.368 1301.41,762.801 1302.43,762.826 1303.45,762.851 1304.46,762.876 1305.48,762.9 1306.49,1006.14 1307.51,1006.22 1308.52,1006.3 1309.54,1006.38 1310.56,1006.46 1311.57,700.973 1312.59,701.156 1313.6,701.334 1314.62,701.508 1315.64,701.677 1316.65,758.001 1317.67,758.076 1318.68,758.15 1319.7,758.221 1320.71,758.291 1321.73,531.034 1322.75,531.204 1323.76,531.37 1324.78,531.531 1325.79,531.687 1326.81,554.063 1327.82,554.13 1328.84,554.196 1329.86,554.259 1330.87,554.321 1331.89,799.776 1332.9,799.81 1333.92,799.842 1334.94,799.873 1335.95,799.904 1336.97,1353.81 1337.98,1354.05 1339,1354.28 1340.01,1354.5 1341.03,1354.72 1342.05,846.227 1343.06,846.365 1344.08,846.499 1345.09,846.631 1346.11,846.759 1347.12,671.027 1348.14,671.181 1349.16,671.33 1350.17,671.475 1351.19,671.617 1352.2,1089.59 1353.22,1089.64 1354.24,1089.69 1355.25,1089.73 1356.27,1089.77 1357.28,661.816 1358.3,662.05 1359.31,662.278 1360.33,662.501 1361.35,662.718 1362.36,520.667 1363.38,520.95 1364.39,521.225 1365.41,521.493 1366.42,521.754 1367.44,786.552 1368.46,786.808 1369.47,787.059 1370.49,787.303 1371.5,787.541 1372.52,719.524 1373.54,719.6 1374.55,719.675 1375.57,719.747 1376.58,719.818 1377.6,881.007 1378.61,881.086 1379.63,881.163 1380.65,881.238 1381.66,881.311 1382.68,608.904 1383.69,608.987 1384.71,609.068 1385.72,609.147 1386.74,609.223 1387.76,406.921 1388.77,407.001 1389.79,407.078 1390.8,407.153 1391.82,407.226 1392.84,687.486 1393.85,687.622 1394.87,687.756 1395.88,687.885 1396.9,688.012 1397.91,1096.6 1398.93,1096.64 1399.95,1096.68 1400.96,1096.71 1401.98,1096.75 1402.99,830.99 1404.01,831.02 1405.02,831.049 1406.04,831.077 1407.06,831.105 1408.07,592.681 1409.09,592.989 1410.1,593.289 1411.12,593.58 1412.14,593.864 1413.15,1064.5 1414.17,1064.64 1415.18,1064.78 1416.2,1064.92 1417.21,1065.05 1418.23,698.173 1419.25,698.258 1420.26,698.342 1421.28,698.423 1422.29,698.503 1423.31,851.667 1424.32,851.845 1425.34,852.019 1426.36,852.188 1427.37,852.354 1428.39,349.336 1429.4,349.483 1430.42,349.626 1431.44,349.764 1432.45,349.899 1433.47,222.936 1434.48,223.085 1435.5,223.229 1436.51,223.369 1437.53,223.504 1438.55,520.368 1439.56,520.509 1440.58,520.646 1441.59,520.78 1442.61,520.91 1443.62,843.894 1444.64,843.975 1445.66,844.054 1446.67,844.131 1447.69,844.207 1448.7,687.981 1449.72,688.137 1450.74,688.29 1451.75,688.438 1452.77,688.582 1453.78,893.095 1454.8,893.241 1455.81,893.384 1456.83,893.523 1457.85,893.659 1458.86,759.257 1459.88,759.422 1460.89,759.582 1461.91,759.739 1462.92,759.891 1463.94,842.445 1464.96,842.474 1465.97,842.503 1466.99,842.53 1468,842.558 1469.02,915.663 1470.04,915.756 1471.05,915.846 1472.07,915.935 1473.08,916.021 1474.1,1099.49 1475.11,1099.54 1476.13,1099.59 1477.15,1099.64 1478.16,1099.68 1479.18,649.292 1480.19,649.34 1481.21,649.386 1482.22,649.431 1483.24,649.475 1484.26,805.755 1485.27,805.858 1486.29,805.958 1487.3,806.056 1488.32,806.152 1489.34,450.826 1490.35,450.916 1491.37,451.005 1492.38,451.091 1493.4,451.174 1494.41,627.311 1495.43,627.445 1496.45,627.574 1497.46,627.701 1498.48,627.825 1499.49,804.511 1500.51,804.687 1501.52,804.858 1502.54,805.026 1503.56,805.189 1504.57,723.522 1505.59,723.763 1506.6,723.997 1507.62,724.226 1508.64,724.449 1509.65,553.336 1510.67,553.486 1511.68,553.631 1512.7,553.773 1513.71,553.911 1514.73,366.729 1515.75,366.87 1516.76,367.006 1517.78,367.138 1518.79,367.267 1519.81,1006.75 1520.82,1007.09 1521.84,1007.41 1522.86,1007.73 1523.87,1008.04 1524.89,876.118 1525.9,876.268 1526.92,876.414 1527.94,876.557 1528.95,876.696 1529.97,934.154 1530.98,934.322 1532,934.487 1533.01,934.647 1534.03,934.804 1535.05,550.19 1536.06,550.298 1537.08,550.404 1538.09,550.506 1539.11,550.606 1540.12,969.853 1541.14,970.006 1542.16,970.155 1543.17,970.3 1544.19,970.443 1545.2,543.988 1546.22,544.433 1547.24,544.867 1548.25,545.289 1549.27,545.7 1550.28,680.965 1551.3,681.03 1552.31,681.094 1553.33,681.156 1554.35,681.217 1555.36,373.918 1556.38,374.151 1557.39,374.377 1558.41,374.596 1559.42,374.809 1560.44,606.519 1561.46,606.581 1562.47,606.641 1563.49,606.7 1564.5,606.757 1565.52,994.689 1566.54,994.891 1567.55,995.089 1568.57,995.282 1569.58,995.47 1570.6,842.718 1571.61,842.941 1572.63,843.159 1573.65,843.372 1574.66,843.58 1575.68,1281.78 1576.69,1281.91 1577.71,1282.04 1578.72,1282.17 1579.74,1282.29 1580.76,679.03 1581.77,679.143 1582.79,679.254 1583.8,679.361 1584.82,679.466 1585.84,604.651 1586.85,604.889 1587.87,605.121 1588.88,605.346 1589.9,605.564 1590.91,822.593 1591.93,822.903 1592.95,823.206 1593.96,823.501 1594.98,823.79 1595.99,689.62 1597.01,689.734 1598.02,689.846 1599.04,689.954 1600.06,690.061 1601.07,897.21 1602.09,897.49 1603.1,897.764 1604.12,898.032 1605.14,898.293 1606.15,1070.62 1607.17,1070.7 1608.18,1070.79 1609.2,1070.87 1610.21,1070.95 1611.23,416.758 1612.25,416.803 1613.26,416.846 1614.28,416.888 1615.29,416.93 1616.31,916.953 1617.32,917.08 1618.34,917.203 1619.36,917.324 1620.37,917.441 1621.39,888.366 1622.4,888.555 1623.42,888.74 1624.44,888.92 1625.45,889.096 1626.47,613.224 1627.48,613.421 1628.5,613.613 1629.51,613.799 1630.53,613.981 1631.55,415.63 1632.56,415.758 1633.58,415.882 1634.59,416.003 1635.61,416.12 1636.62,675.108 1637.64,675.153 1638.66,675.197 1639.67,675.24 1640.69,675.282 1641.7,838.163 1642.72,838.224 1643.74,838.284 1644.75,838.342 1645.77,838.399 1646.78,747.554 1647.8,747.748 1648.81,747.936 1649.83,748.12 1650.85,748.299 1651.86,739.064 1652.88,739.191 1653.89,739.314 1654.91,739.435 1655.92,739.552 1656.94,882.179 1657.96,882.432 1658.97,882.679 1659.99,882.92 1661,883.156 1662.02,751.606 1663.04,751.625 1664.05,751.642 1665.07,751.659 1666.08,751.676 1667.1,1136.73 1668.11,1136.84 1669.13,1136.94 1670.15,1137.03 1671.16,1137.13 1672.18,429.342 1673.19,429.513 1674.21,429.679 1675.22,429.84 1676.24,429.997 1677.26,568.39 1678.27,568.416 1679.29,568.442 1680.3,568.466 1681.32,568.49 1682.34,897.602 1683.35,897.693 1684.37,897.783 1685.38,897.87 1686.4,897.955 1687.41,345.79 1688.43,345.841 1689.45,345.891 1690.46,345.939 1691.48,345.986 1692.49,617.133 1693.51,617.42 1694.52,617.698 1695.54,617.97 1696.56,618.234 1697.57,811.07 1698.59,811.096 1699.6,811.121 1700.62,811.146 1701.64,811.17 1702.65,747.652 1703.67,747.872 1704.68,748.087 1705.7,748.297 1706.71,748.502 1707.73,800.756 1708.75,800.868 1709.76,800.977 1710.78,801.085 1711.79,801.189 1712.81,899.343 1713.82,899.525 1714.84,899.704 1715.86,899.879 1716.87,900.05 1717.89,646.36 1718.9,646.557 1719.92,646.75 1720.94,646.937 1721.95,647.12 1722.97,613.279 1723.98,613.412 1725,613.543 1726.01,613.67 1727.03,613.794 1728.05,777.034 1729.06,777.181 1730.08,777.325 1731.09,777.465 1732.11,777.602 1733.12,775.465 1734.14,775.826 1735.16,776.178 1736.17,776.521 1737.19,776.855 1738.2,1075.88 1739.22,1076.2 1740.24,1076.52 1741.25,1076.83 1742.27,1077.13 1743.28,987.522 1744.3,987.598 1745.31,987.671 1746.33,987.743 1747.35,987.813 1748.36,598.01 1749.38,598.137 1750.39,598.26 1751.41,598.38 1752.42,598.497 1753.44,1027.96 1754.46,1028.14 1755.47,1028.31 1756.49,1028.48 1757.5,1028.65 1758.52,690.704 1759.54,690.9 1760.55,691.091 1761.57,691.277 1762.58,691.458 1763.6,720.744 1764.61,720.845 1765.63,720.944 1766.65,721.04 1767.66,721.134 1768.68,770.351 1769.69,770.572 1770.71,770.788 1771.72,770.999 1772.74,771.204 1773.76,948.297 1774.77,948.446 1775.79,948.592 1776.8,948.735 1777.82,948.874 1778.84,1045.07 1779.85,1045.13 1780.87,1045.19 1781.88,1045.25 1782.9,1045.31 1783.91,958.911 1784.93,958.972 1785.95,959.032 1786.96,959.091 1787.98,959.148 1788.99,849.755 1790.01,849.788 1791.02,849.821 1792.04,849.853 1793.06,849.884 1794.07,1041.77 1795.09,1041.95 1796.1,1042.12 1797.12,1042.29 1798.14,1042.46 1799.15,1156.56 1800.17,1156.65 1801.18,1156.74 1802.2,1156.82 1803.21,1156.91 1804.23,350.632 1805.25,350.684 1806.26,350.734 1807.28,350.784 1808.29,350.832 1809.31,1161.97 1810.32,1162.05 1811.34,1162.12 1812.36,1162.2 1813.37,1162.27 1814.39,1092.51 1815.4,1092.76 1816.42,1093.01 1817.44,1093.25 1818.45,1093.49 1819.47,983.428 1820.48,983.596 1821.5,983.759 1822.51,983.919 1823.53,984.075 1824.55,943.437 1825.56,943.685 1826.58,943.927 1827.59,944.164 1828.61,944.395 1829.62,1074.29 1830.64,1074.41 1831.66,1074.52 1832.67,1074.64 1833.69,1074.75 1834.7,726.913 1835.72,726.959 1836.74,727.003 1837.75,727.047 1838.77,727.089 1839.78,1251.47 1840.8,1251.54 1841.81,1251.6 1842.83,1251.66 1843.85,1251.72 1844.86,851.571 1845.88,851.72 1846.89,851.866 1847.91,852.009 1848.92,852.148 1849.94,802.988 1850.96,803.103 1851.97,803.216 1852.99,803.326 1854,803.434 1855.02,1028.76 1856.04,1028.93 1857.05,1029.1 1858.07,1029.26 1859.08,1029.42 1860.1,720.6 1861.11,720.747 1862.13,720.89 1863.15,721.029 1864.16,721.165 1865.18,866.196 1866.19,866.393 1867.21,866.586 1868.22,866.775 1869.24,866.959 1870.26,547.317 1871.27,547.434 1872.29,547.547 1873.3,547.657 1874.32,547.765 1875.34,814.901 1876.35,815.204 1877.37,815.5 1878.38,815.789 1879.4,816.072 1880.41,731.81 1881.43,731.92 1882.45,732.027 1883.46,732.131 1884.48,732.233 1885.49,886.614 1886.51,886.738 1887.52,886.859 1888.54,886.977 1889.56,887.092 1890.57,616.206 1891.59,616.288 1892.6,616.368 1893.62,616.446 1894.64,616.521 1895.65,750.596 1896.67,750.846 1897.68,751.09 1898.7,751.328 1899.71,751.56 1900.73,700.617 1901.75,700.715 1902.76,700.81 1903.78,700.903 1904.79,700.994 1905.81,978.512 1906.82,978.593 1907.84,978.673 1908.86,978.75 1909.87,978.826 1910.89,565.893 1911.9,565.92 1912.92,565.946 1913.94,565.972 1914.95,565.997 1915.97,937.175 1916.98,937.265 1918,937.353 1919.01,937.439 1920.03,937.523 1921.05,971.423 1922.06,971.517 1923.08,971.609 1924.09,971.698 1925.11,971.786 1926.12,766.962 1927.14,767.101 1928.16,767.236 1929.17,767.369 1930.19,767.498 1931.2,513.945 1932.22,514.052 1933.24,514.156 1934.25,514.258 1935.27,514.357 1936.28,593.445 1937.3,593.678 1938.31,593.905 1939.33,594.126 1940.35,594.341 1941.36,711.465 1942.38,711.591 1943.39,711.713 1944.41,711.832 1945.42,711.948 1946.44,682.202 1947.46,682.321 1948.47,682.438 1949.49,682.551 1950.5,682.662 1951.52,418.263 1952.54,418.383 1953.55,418.5 1954.57,418.614 1955.58,418.725 1956.6,1218.55 1957.61,1218.92 1958.63,1219.29 1959.65,1219.64 1960.66,1219.99 1961.68,638.827 1962.69,638.866 1963.71,638.905 1964.72,638.942 1965.74,638.979 1966.76,792.464 1967.77,792.696 1968.79,792.923 1969.8,793.144 1970.82,793.36 1971.84,786.353 1972.85,786.469 1973.87,786.581 1974.88,786.691 1975.9,786.798 1976.91,727.925 1977.93,727.983 1978.95,728.039 1979.96,728.095 1980.98,728.148 1981.99,683.811 1983.01,683.852 1984.02,683.893 1985.04,683.932 1986.06,683.971 1987.07,592.525 1988.09,592.632 1989.1,592.737 1990.12,592.839 1991.14,592.938 1992.15,551.728 1993.17,551.884 1994.18,552.036 1995.2,552.185 1996.21,552.329 1997.23,633.522 1998.25,633.802 1999.26,634.076 2000.28,634.343 2001.29,634.603 2002.31,842.702 2003.32,842.778 2004.34,842.853 2005.36,842.925 2006.37,842.996 2007.39,586.785 2008.4,586.995 2009.42,587.198 2010.44,587.397 2011.45,587.59 2012.47,1148.29 2013.48,1148.41 2014.5,1148.53 2015.51,1148.64 2016.53,1148.76 2017.55,574.331 2018.56,574.442 2019.58,574.551 2020.59,574.656 2021.61,574.758 2022.62,1029.17 2023.64,1029.28 2024.66,1029.4 2025.67,1029.51 2026.69,1029.62 2027.7,526.258 2028.72,526.326 2029.73,526.393 2030.75,526.458 2031.77,526.521 2032.78,889.799 2033.8,890.116 2034.81,890.426 2035.83,890.727 2036.85,891.022 2037.86,992.281 2038.88,992.413 2039.89,992.541 2040.91,992.667 2041.92,992.789 2042.94,1258.8 2043.96,1258.95 2044.97,1259.1 2045.99,1259.24 2047,1259.38 2048.02,728.249 2049.03,728.378 2050.05,728.503 2051.07,728.626 2052.08,728.745 2053.1,1089.5 2054.11,1089.61 2055.13,1089.73 2056.15,1089.83 2057.16,1089.94 2058.18,650.588 2059.19,650.759 2060.21,650.925 2061.22,651.086 2062.24,651.244 2063.26,454.522 2064.27,454.808 2065.29,455.086 2066.3,455.356 2067.32,455.618 2068.33,718.605 2069.35,718.786 2070.37,718.963 2071.38,719.135 2072.4,719.302 2073.41,1105.75 2074.43,1105.87 2075.45,1105.99 2076.46,1106.11 2077.48,1106.22 2078.49,701.085 2079.51,701.249 2080.52,701.41 2081.54,701.566 2082.56,701.719 2083.57,476.786 2084.59,476.883 2085.6,476.977 2086.62,477.068 2087.63,477.157 2088.65,865.73 2089.67,865.915 2090.68,866.097 2091.7,866.274 2092.71,866.447 2093.73,1378.44 2094.75,1378.5 2095.76,1378.56 2096.78,1378.62 2097.79,1378.67 2098.81,695.281 2099.82,695.349 2100.84,695.416 2101.86,695.48 2102.87,695.543 2103.89,768.707 2104.9,768.91 2105.92,769.108 2106.93,769.3 2107.95,769.487 2108.97,757.017 2109.98,757.216 2111,757.41 2112.01,757.599 2113.03,757.783 2114.05,922.551 2115.06,922.646 2116.08,922.738 2117.09,922.828 2118.11,922.916 2119.12,578.463 2120.14,578.657 2121.16,578.847 2122.17,579.032 2123.19,579.212 2124.2,876.578 2125.22,876.778 2126.23,876.973 2127.25,877.164 2128.27,877.35 2129.28,897.249 2130.3,897.276 2131.31,897.304 2132.33,897.33 2133.35,897.356 2134.36,521.246 2135.38,521.275 2136.39,521.304 2137.41,521.332 2138.42,521.36 2139.44,991.786 2140.46,991.975 2141.47,992.16 2142.49,992.34 2143.5,992.516 2144.52,1437.79 2145.53,1437.83 2146.55,1437.87 2147.57,1437.91 2148.58,1437.95 2149.6,827.105 2150.61,827.248 2151.63,827.388 2152.65,827.524 2153.66,827.657 2154.68,1445.47 2155.69,1445.54 2156.71,1445.6 2157.72,1445.66 2158.74,1445.72 2159.76,863.68 2160.77,863.796 2161.79,863.91 2162.8,864.021 2163.82,864.13 2164.83,691.849 2165.85,691.924 2166.87,691.996 2167.88,692.066 2168.9,692.134 2169.91,609.315 2170.93,609.453 2171.95,609.586 2172.96,609.716 2173.98,609.843 2174.99,226.601 2176.01,226.698 2177.02,226.793 2178.04,226.886 2179.06,226.975 2180.07,747.634 2181.09,747.807 2182.1,747.976 2183.12,748.141 2184.13,748.302 2185.15,979.536 2186.17,979.883 2187.18,980.221 2188.2,980.553 2189.21,980.877 2190.23,521.036 2191.25,521.367 2192.26,521.689 2193.28,522.003 2194.29,522.308 2195.31,611.928 2196.32,612.012 2197.34,612.094 2198.36,612.174 2199.37,612.251 2200.39,1128.22 2201.4,1128.44 2202.42,1128.65 2203.43,1128.85 2204.45,1129.06 2205.47,697.134 2206.48,697.2 2207.5,697.264 2208.51,697.327 2209.53,697.388 2210.55,443.121 2211.56,443.129 2212.58,443.136 2213.59,443.143 2214.61,443.15 2215.62,846.328 2216.64,846.455 2217.66,846.579 2218.67,846.7 2219.69,846.818 2220.7,932.643 2221.72,932.728 2222.73,932.811 2223.75,932.892 2224.77,932.972 2225.78,757.974 2226.8,758.024 2227.81,758.074 2228.83,758.122 2229.85,758.169 2230.86,922.662 2231.88,922.795 2232.89,922.925 2233.91,923.052 2234.92,923.176 2235.94,711.069 2236.96,711.128 2237.97,711.186 2238.99,711.243 2240,711.298 2241.02,794.965 2242.03,795.291 2243.05,795.609 2244.07,795.919 2245.08,796.222 2246.1,547.417 2247.11,547.488 2248.13,547.557 2249.15,547.624 2250.16,547.689 2251.18,465.923 2252.19,466.006 2253.21,466.086 2254.22,466.164 2255.24,466.239 2256.26,1196.9 2257.27,1197.19 2258.29,1197.47 2259.3,1197.74 2260.32,1198.01 2261.33,1128.57 2262.35,1128.67 2263.37,1128.77 2264.38,1128.86 2265.4,1128.96 2266.41,936.989 2267.43,937.145 2268.45,937.298 2269.46,937.446 2270.48,937.591 2271.49,728.599 2272.51,728.609 2273.52,728.619 2274.54,728.628 2275.56,728.637 2276.57,635.842 2277.59,635.898 2278.6,635.952 2279.62,636.006 2280.63,636.057 2281.65,889.806 2282.67,889.925 2283.68,890.041 2284.7,890.154 2285.71,890.265 2286.73,814.104 2287.75,814.2 2288.76,814.294 2289.78,814.386 2290.79,814.476 2291.81,814.563 "/>
<path clip-path="url(#clip280)" d="M2013.2 198.898 L2280.97 198.898 L2280.97 95.2176 L2013.2 95.2176  Z" fill="#ffffff" fill-rule="evenodd" fill-opacity="1"/>
<polyline clip-path="url(#clip280)" style="stroke:#000000; stroke-linecap:round; stroke-linejoin:round; stroke-width:4; stroke-opacity:1; fill:none" points="2013.2,198.898 2280.97,198.898 2280.97,95.2176 2013.2,95.2176 2013.2,198.898 "/>
<polyline clip-path="url(#clip280)" style="stroke:#009af9; stroke-linecap:round; stroke-linejoin:round; stroke-width:4; stroke-opacity:1; fill:none" points="2037.12,147.058 2180.69,147.058 "/>
<path clip-path="url(#clip280)" d="M2218.46 166.745 Q2216.65 171.375 2214.94 172.787 Q2213.23 174.199 2210.36 174.199 L2206.95 174.199 L2206.95 170.634 L2209.45 170.634 Q2211.21 170.634 2212.19 169.8 Q2213.16 168.967 2214.34 165.865 L2215.1 163.921 L2204.62 138.412 L2209.13 138.412 L2217.23 158.689 L2225.33 138.412 L2229.85 138.412 L2218.46 166.745 Z" fill="#000000" fill-rule="nonzero" fill-opacity="1" /><path clip-path="url(#clip280)" d="M2237.14 160.402 L2244.78 160.402 L2244.78 134.037 L2236.47 135.703 L2236.47 131.444 L2244.73 129.778 L2249.41 129.778 L2249.41 160.402 L2257.05 160.402 L2257.05 164.338 L2237.14 164.338 L2237.14 160.402 Z" fill="#000000" fill-rule="nonzero" fill-opacity="1" /></svg>
