<?xml version="1.0" encoding="utf-8"?>
<svg xmlns="http://www.w3.org/2000/svg" xmlns:xlink="http://www.w3.org/1999/xlink" width="600" height="400" viewBox="0 0 2400 1600">
<defs>
  <clipPath id="clip710">
    <rect x="0" y="0" width="2400" height="1600"/>
  </clipPath>
</defs>
<path clip-path="url(#clip710)" d="M0 1600 L2400 1600 L2400 0 L0 0  Z" fill="#ffffff" fill-rule="evenodd" fill-opacity="1"/>
<defs>
  <clipPath id="clip711">
    <rect x="480" y="0" width="1681" height="1600"/>
  </clipPath>
</defs>
<path clip-path="url(#clip710)" d="M199.283 1486.45 L2352.76 1486.45 L2352.76 47.2441 L199.283 47.2441  Z" fill="#ffffff" fill-rule="evenodd" fill-opacity="1"/>
<defs>
  <clipPath id="clip712">
    <rect x="199" y="47" width="2154" height="1440"/>
  </clipPath>
</defs>
<polyline clip-path="url(#clip712)" style="stroke:#000000; stroke-linecap:round; stroke-linejoin:round; stroke-width:2; stroke-opacity:0.1; fill:none" points="260.231,1486.45 260.231,47.2441 "/>
<polyline clip-path="url(#clip712)" style="stroke:#000000; stroke-linecap:round; stroke-linejoin:round; stroke-width:2; stroke-opacity:0.1; fill:none" points="768.125,1486.45 768.125,47.2441 "/>
<polyline clip-path="url(#clip712)" style="stroke:#000000; stroke-linecap:round; stroke-linejoin:round; stroke-width:2; stroke-opacity:0.1; fill:none" points="1276.02,1486.45 1276.02,47.2441 "/>
<polyline clip-path="url(#clip712)" style="stroke:#000000; stroke-linecap:round; stroke-linejoin:round; stroke-width:2; stroke-opacity:0.1; fill:none" points="1783.91,1486.45 1783.91,47.2441 "/>
<polyline clip-path="url(#clip712)" style="stroke:#000000; stroke-linecap:round; stroke-linejoin:round; stroke-width:2; stroke-opacity:0.1; fill:none" points="2291.81,1486.45 2291.81,47.2441 "/>
<polyline clip-path="url(#clip710)" style="stroke:#000000; stroke-linecap:round; stroke-linejoin:round; stroke-width:4; stroke-opacity:1; fill:none" points="199.283,1486.45 2352.76,1486.45 "/>
<polyline clip-path="url(#clip710)" style="stroke:#000000; stroke-linecap:round; stroke-linejoin:round; stroke-width:4; stroke-opacity:1; fill:none" points="260.231,1486.45 260.231,1467.55 "/>
<polyline clip-path="url(#clip710)" style="stroke:#000000; stroke-linecap:round; stroke-linejoin:round; stroke-width:4; stroke-opacity:1; fill:none" points="768.125,1486.45 768.125,1467.55 "/>
<polyline clip-path="url(#clip710)" style="stroke:#000000; stroke-linecap:round; stroke-linejoin:round; stroke-width:4; stroke-opacity:1; fill:none" points="1276.02,1486.45 1276.02,1467.55 "/>
<polyline clip-path="url(#clip710)" style="stroke:#000000; stroke-linecap:round; stroke-linejoin:round; stroke-width:4; stroke-opacity:1; fill:none" points="1783.91,1486.45 1783.91,1467.55 "/>
<polyline clip-path="url(#clip710)" style="stroke:#000000; stroke-linecap:round; stroke-linejoin:round; stroke-width:4; stroke-opacity:1; fill:none" points="2291.81,1486.45 2291.81,1467.55 "/>
<path clip-path="url(#clip710)" d="M260.231 1517.37 Q256.619 1517.37 254.791 1520.93 Q252.985 1524.47 252.985 1531.6 Q252.985 1538.71 254.791 1542.27 Q256.619 1545.82 260.231 1545.82 Q263.865 1545.82 265.67 1542.27 Q267.499 1538.71 267.499 1531.6 Q267.499 1524.47 265.67 1520.93 Q263.865 1517.37 260.231 1517.37 M260.231 1513.66 Q266.041 1513.66 269.096 1518.27 Q272.175 1522.85 272.175 1531.6 Q272.175 1540.33 269.096 1544.94 Q266.041 1549.52 260.231 1549.52 Q254.42 1549.52 251.342 1544.94 Q248.286 1540.33 248.286 1531.6 Q248.286 1522.85 251.342 1518.27 Q254.42 1513.66 260.231 1513.66 Z" fill="#000000" fill-rule="nonzero" fill-opacity="1" /><path clip-path="url(#clip710)" d="M727.743 1514.29 L746.1 1514.29 L746.1 1518.22 L732.026 1518.22 L732.026 1526.7 Q733.044 1526.35 734.063 1526.19 Q735.081 1526 736.1 1526 Q741.887 1526 745.266 1529.17 Q748.646 1532.34 748.646 1537.76 Q748.646 1543.34 745.174 1546.44 Q741.702 1549.52 735.382 1549.52 Q733.206 1549.52 730.938 1549.15 Q728.692 1548.78 726.285 1548.04 L726.285 1543.34 Q728.368 1544.47 730.591 1545.03 Q732.813 1545.58 735.29 1545.58 Q739.294 1545.58 741.632 1543.48 Q743.97 1541.37 743.97 1537.76 Q743.97 1534.15 741.632 1532.04 Q739.294 1529.94 735.29 1529.94 Q733.415 1529.94 731.54 1530.35 Q729.688 1530.77 727.743 1531.65 L727.743 1514.29 Z" fill="#000000" fill-rule="nonzero" fill-opacity="1" /><path clip-path="url(#clip710)" d="M767.859 1517.37 Q764.248 1517.37 762.419 1520.93 Q760.614 1524.47 760.614 1531.6 Q760.614 1538.71 762.419 1542.27 Q764.248 1545.82 767.859 1545.82 Q771.493 1545.82 773.299 1542.27 Q775.127 1538.71 775.127 1531.6 Q775.127 1524.47 773.299 1520.93 Q771.493 1517.37 767.859 1517.37 M767.859 1513.66 Q773.669 1513.66 776.725 1518.27 Q779.803 1522.85 779.803 1531.6 Q779.803 1540.33 776.725 1544.94 Q773.669 1549.52 767.859 1549.52 Q762.049 1549.52 758.97 1544.94 Q755.914 1540.33 755.914 1531.6 Q755.914 1522.85 758.97 1518.27 Q762.049 1513.66 767.859 1513.66 Z" fill="#000000" fill-rule="nonzero" fill-opacity="1" /><path clip-path="url(#clip710)" d="M798.021 1517.37 Q794.41 1517.37 792.581 1520.93 Q790.775 1524.47 790.775 1531.6 Q790.775 1538.71 792.581 1542.27 Q794.41 1545.82 798.021 1545.82 Q801.655 1545.82 803.46 1542.27 Q805.289 1538.71 805.289 1531.6 Q805.289 1524.47 803.46 1520.93 Q801.655 1517.37 798.021 1517.37 M798.021 1513.66 Q803.831 1513.66 806.886 1518.27 Q809.965 1522.85 809.965 1531.6 Q809.965 1540.33 806.886 1544.94 Q803.831 1549.52 798.021 1549.52 Q792.211 1549.52 789.132 1544.94 Q786.076 1540.33 786.076 1531.6 Q786.076 1522.85 789.132 1518.27 Q792.211 1513.66 798.021 1513.66 Z" fill="#000000" fill-rule="nonzero" fill-opacity="1" /><path clip-path="url(#clip710)" d="M1220.55 1544.91 L1228.18 1544.91 L1228.18 1518.55 L1219.87 1520.21 L1219.87 1515.95 L1228.14 1514.29 L1232.81 1514.29 L1232.81 1544.91 L1240.45 1544.91 L1240.45 1548.85 L1220.55 1548.85 L1220.55 1544.91 Z" fill="#000000" fill-rule="nonzero" fill-opacity="1" /><path clip-path="url(#clip710)" d="M1259.9 1517.37 Q1256.29 1517.37 1254.46 1520.93 Q1252.65 1524.47 1252.65 1531.6 Q1252.65 1538.71 1254.46 1542.27 Q1256.29 1545.82 1259.9 1545.82 Q1263.53 1545.82 1265.34 1542.27 Q1267.17 1538.71 1267.17 1531.6 Q1267.17 1524.47 1265.34 1520.93 Q1263.53 1517.37 1259.9 1517.37 M1259.9 1513.66 Q1265.71 1513.66 1268.76 1518.27 Q1271.84 1522.85 1271.84 1531.6 Q1271.84 1540.33 1268.76 1544.94 Q1265.71 1549.52 1259.9 1549.52 Q1254.09 1549.52 1251.01 1544.94 Q1247.95 1540.33 1247.95 1531.6 Q1247.95 1522.85 1251.01 1518.27 Q1254.09 1513.66 1259.9 1513.66 Z" fill="#000000" fill-rule="nonzero" fill-opacity="1" /><path clip-path="url(#clip710)" d="M1290.06 1517.37 Q1286.45 1517.37 1284.62 1520.93 Q1282.81 1524.47 1282.81 1531.6 Q1282.81 1538.71 1284.62 1542.27 Q1286.45 1545.82 1290.06 1545.82 Q1293.69 1545.82 1295.5 1542.27 Q1297.33 1538.71 1297.33 1531.6 Q1297.33 1524.47 1295.5 1520.93 Q1293.69 1517.37 1290.06 1517.37 M1290.06 1513.66 Q1295.87 1513.66 1298.92 1518.27 Q1302 1522.85 1302 1531.6 Q1302 1540.33 1298.92 1544.94 Q1295.87 1549.52 1290.06 1549.52 Q1284.25 1549.52 1281.17 1544.94 Q1278.11 1540.33 1278.11 1531.6 Q1278.11 1522.85 1281.17 1518.27 Q1284.25 1513.66 1290.06 1513.66 Z" fill="#000000" fill-rule="nonzero" fill-opacity="1" /><path clip-path="url(#clip710)" d="M1320.22 1517.37 Q1316.61 1517.37 1314.78 1520.93 Q1312.98 1524.47 1312.98 1531.6 Q1312.98 1538.71 1314.78 1542.27 Q1316.61 1545.82 1320.22 1545.82 Q1323.85 1545.82 1325.66 1542.27 Q1327.49 1538.71 1327.49 1531.6 Q1327.49 1524.47 1325.66 1520.93 Q1323.85 1517.37 1320.22 1517.37 M1320.22 1513.66 Q1326.03 1513.66 1329.09 1518.27 Q1332.17 1522.85 1332.17 1531.6 Q1332.17 1540.33 1329.09 1544.94 Q1326.03 1549.52 1320.22 1549.52 Q1314.41 1549.52 1311.33 1544.94 Q1308.28 1540.33 1308.28 1531.6 Q1308.28 1522.85 1311.33 1518.27 Q1314.41 1513.66 1320.22 1513.66 Z" fill="#000000" fill-rule="nonzero" fill-opacity="1" /><path clip-path="url(#clip710)" d="M1728.44 1544.91 L1736.08 1544.91 L1736.08 1518.55 L1727.77 1520.21 L1727.77 1515.95 L1736.03 1514.29 L1740.71 1514.29 L1740.71 1544.91 L1748.35 1544.91 L1748.35 1548.85 L1728.44 1548.85 L1728.44 1544.91 Z" fill="#000000" fill-rule="nonzero" fill-opacity="1" /><path clip-path="url(#clip710)" d="M1757.84 1514.29 L1776.19 1514.29 L1776.19 1518.22 L1762.12 1518.22 L1762.12 1526.7 Q1763.14 1526.35 1764.16 1526.19 Q1765.18 1526 1766.19 1526 Q1771.98 1526 1775.36 1529.17 Q1778.74 1532.34 1778.74 1537.76 Q1778.74 1543.34 1775.27 1546.44 Q1771.8 1549.52 1765.48 1549.52 Q1763.3 1549.52 1761.03 1549.15 Q1758.79 1548.78 1756.38 1548.04 L1756.38 1543.34 Q1758.46 1544.47 1760.69 1545.03 Q1762.91 1545.58 1765.38 1545.58 Q1769.39 1545.58 1771.73 1543.48 Q1774.06 1541.37 1774.06 1537.76 Q1774.06 1534.15 1771.73 1532.04 Q1769.39 1529.94 1765.38 1529.94 Q1763.51 1529.94 1761.63 1530.35 Q1759.78 1530.77 1757.84 1531.65 L1757.84 1514.29 Z" fill="#000000" fill-rule="nonzero" fill-opacity="1" /><path clip-path="url(#clip710)" d="M1797.95 1517.37 Q1794.34 1517.37 1792.51 1520.93 Q1790.71 1524.47 1790.71 1531.6 Q1790.71 1538.71 1792.51 1542.27 Q1794.34 1545.82 1797.95 1545.82 Q1801.59 1545.82 1803.39 1542.27 Q1805.22 1538.71 1805.22 1531.6 Q1805.22 1524.47 1803.39 1520.93 Q1801.59 1517.37 1797.95 1517.37 M1797.95 1513.66 Q1803.76 1513.66 1806.82 1518.27 Q1809.9 1522.85 1809.9 1531.6 Q1809.9 1540.33 1806.82 1544.94 Q1803.76 1549.52 1797.95 1549.52 Q1792.14 1549.52 1789.06 1544.94 Q1786.01 1540.33 1786.01 1531.6 Q1786.01 1522.85 1789.06 1518.27 Q1792.14 1513.66 1797.95 1513.66 Z" fill="#000000" fill-rule="nonzero" fill-opacity="1" /><path clip-path="url(#clip710)" d="M1828.12 1517.37 Q1824.5 1517.37 1822.68 1520.93 Q1820.87 1524.47 1820.87 1531.6 Q1820.87 1538.71 1822.68 1542.27 Q1824.5 1545.82 1828.12 1545.82 Q1831.75 1545.82 1833.55 1542.27 Q1835.38 1538.71 1835.38 1531.6 Q1835.38 1524.47 1833.55 1520.93 Q1831.75 1517.37 1828.12 1517.37 M1828.12 1513.66 Q1833.93 1513.66 1836.98 1518.27 Q1840.06 1522.85 1840.06 1531.6 Q1840.06 1540.33 1836.98 1544.94 Q1833.93 1549.52 1828.12 1549.52 Q1822.31 1549.52 1819.23 1544.94 Q1816.17 1540.33 1816.17 1531.6 Q1816.17 1522.85 1819.23 1518.27 Q1822.31 1513.66 1828.12 1513.66 Z" fill="#000000" fill-rule="nonzero" fill-opacity="1" /><path clip-path="url(#clip710)" d="M2240.42 1544.91 L2256.74 1544.91 L2256.74 1548.85 L2234.79 1548.85 L2234.79 1544.91 Q2237.46 1542.16 2242.04 1537.53 Q2246.65 1532.88 2247.83 1531.53 Q2250.07 1529.01 2250.95 1527.27 Q2251.86 1525.51 2251.86 1523.82 Q2251.86 1521.07 2249.91 1519.33 Q2247.99 1517.6 2244.89 1517.6 Q2242.69 1517.6 2240.23 1518.36 Q2237.8 1519.13 2235.03 1520.68 L2235.03 1515.95 Q2237.85 1514.82 2240.3 1514.24 Q2242.76 1513.66 2244.79 1513.66 Q2250.17 1513.66 2253.36 1516.35 Q2256.55 1519.03 2256.55 1523.52 Q2256.55 1525.65 2255.74 1527.57 Q2254.96 1529.47 2252.85 1532.07 Q2252.27 1532.74 2249.17 1535.95 Q2246.07 1539.15 2240.42 1544.91 Z" fill="#000000" fill-rule="nonzero" fill-opacity="1" /><path clip-path="url(#clip710)" d="M2276.55 1517.37 Q2272.94 1517.37 2271.11 1520.93 Q2269.31 1524.47 2269.31 1531.6 Q2269.31 1538.71 2271.11 1542.27 Q2272.94 1545.82 2276.55 1545.82 Q2280.19 1545.82 2281.99 1542.27 Q2283.82 1538.71 2283.82 1531.6 Q2283.82 1524.47 2281.99 1520.93 Q2280.19 1517.37 2276.55 1517.37 M2276.55 1513.66 Q2282.36 1513.66 2285.42 1518.27 Q2288.5 1522.85 2288.5 1531.6 Q2288.5 1540.33 2285.42 1544.94 Q2282.36 1549.52 2276.55 1549.52 Q2270.74 1549.52 2267.67 1544.94 Q2264.61 1540.33 2264.61 1531.6 Q2264.61 1522.85 2267.67 1518.27 Q2270.74 1513.66 2276.55 1513.66 Z" fill="#000000" fill-rule="nonzero" fill-opacity="1" /><path clip-path="url(#clip710)" d="M2306.72 1517.37 Q2303.1 1517.37 2301.28 1520.93 Q2299.47 1524.47 2299.47 1531.6 Q2299.47 1538.71 2301.28 1542.27 Q2303.1 1545.82 2306.72 1545.82 Q2310.35 1545.82 2312.16 1542.27 Q2313.98 1538.71 2313.98 1531.6 Q2313.98 1524.47 2312.16 1520.93 Q2310.35 1517.37 2306.72 1517.37 M2306.72 1513.66 Q2312.53 1513.66 2315.58 1518.27 Q2318.66 1522.85 2318.66 1531.6 Q2318.66 1540.33 2315.58 1544.94 Q2312.53 1549.52 2306.72 1549.52 Q2300.91 1549.52 2297.83 1544.94 Q2294.77 1540.33 2294.77 1531.6 Q2294.77 1522.85 2297.83 1518.27 Q2300.91 1513.66 2306.72 1513.66 Z" fill="#000000" fill-rule="nonzero" fill-opacity="1" /><path clip-path="url(#clip710)" d="M2336.88 1517.37 Q2333.27 1517.37 2331.44 1520.93 Q2329.63 1524.47 2329.63 1531.6 Q2329.63 1538.71 2331.44 1542.27 Q2333.27 1545.82 2336.88 1545.82 Q2340.51 1545.82 2342.32 1542.27 Q2344.15 1538.71 2344.15 1531.6 Q2344.15 1524.47 2342.32 1520.93 Q2340.51 1517.37 2336.88 1517.37 M2336.88 1513.66 Q2342.69 1513.66 2345.74 1518.27 Q2348.82 1522.85 2348.82 1531.6 Q2348.82 1540.33 2345.74 1544.94 Q2342.69 1549.52 2336.88 1549.52 Q2331.07 1549.52 2327.99 1544.94 Q2324.93 1540.33 2324.93 1531.6 Q2324.93 1522.85 2327.99 1518.27 Q2331.07 1513.66 2336.88 1513.66 Z" fill="#000000" fill-rule="nonzero" fill-opacity="1" /><polyline clip-path="url(#clip712)" style="stroke:#000000; stroke-linecap:round; stroke-linejoin:round; stroke-width:2; stroke-opacity:0.1; fill:none" points="199.283,1461.7 2352.76,1461.7 "/>
<polyline clip-path="url(#clip712)" style="stroke:#000000; stroke-linecap:round; stroke-linejoin:round; stroke-width:2; stroke-opacity:0.1; fill:none" points="199.283,1074.84 2352.76,1074.84 "/>
<polyline clip-path="url(#clip712)" style="stroke:#000000; stroke-linecap:round; stroke-linejoin:round; stroke-width:2; stroke-opacity:0.1; fill:none" points="199.283,687.978 2352.76,687.978 "/>
<polyline clip-path="url(#clip712)" style="stroke:#000000; stroke-linecap:round; stroke-linejoin:round; stroke-width:2; stroke-opacity:0.1; fill:none" points="199.283,301.116 2352.76,301.116 "/>
<polyline clip-path="url(#clip710)" style="stroke:#000000; stroke-linecap:round; stroke-linejoin:round; stroke-width:4; stroke-opacity:1; fill:none" points="199.283,1486.45 199.283,47.2441 "/>
<polyline clip-path="url(#clip710)" style="stroke:#000000; stroke-linecap:round; stroke-linejoin:round; stroke-width:4; stroke-opacity:1; fill:none" points="199.283,1461.7 218.181,1461.7 "/>
<polyline clip-path="url(#clip710)" style="stroke:#000000; stroke-linecap:round; stroke-linejoin:round; stroke-width:4; stroke-opacity:1; fill:none" points="199.283,1074.84 218.181,1074.84 "/>
<polyline clip-path="url(#clip710)" style="stroke:#000000; stroke-linecap:round; stroke-linejoin:round; stroke-width:4; stroke-opacity:1; fill:none" points="199.283,687.978 218.181,687.978 "/>
<polyline clip-path="url(#clip710)" style="stroke:#000000; stroke-linecap:round; stroke-linejoin:round; stroke-width:4; stroke-opacity:1; fill:none" points="199.283,301.116 218.181,301.116 "/>
<path clip-path="url(#clip710)" d="M51.6634 1475.05 L59.3023 1475.05 L59.3023 1448.68 L50.9921 1450.35 L50.9921 1446.09 L59.256 1444.42 L63.9319 1444.42 L63.9319 1475.05 L71.5707 1475.05 L71.5707 1478.98 L51.6634 1478.98 L51.6634 1475.05 Z" fill="#000000" fill-rule="nonzero" fill-opacity="1" /><path clip-path="url(#clip710)" d="M85.0429 1475.05 L101.362 1475.05 L101.362 1478.98 L79.4179 1478.98 L79.4179 1475.05 Q82.0799 1472.29 86.6632 1467.66 Q91.2697 1463.01 92.4502 1461.67 Q94.6956 1459.15 95.5752 1457.41 Q96.478 1455.65 96.478 1453.96 Q96.478 1451.21 94.5336 1449.47 Q92.6123 1447.73 89.5104 1447.73 Q87.3114 1447.73 84.8577 1448.5 Q82.4271 1449.26 79.6494 1450.81 L79.6494 1446.09 Q82.4734 1444.96 84.9271 1444.38 Q87.3808 1443.8 89.4178 1443.8 Q94.7882 1443.8 97.9826 1446.48 Q101.177 1449.17 101.177 1453.66 Q101.177 1455.79 100.367 1457.71 Q99.5798 1459.61 97.4734 1462.2 Q96.8947 1462.87 93.7928 1466.09 Q90.691 1469.28 85.0429 1475.05 Z" fill="#000000" fill-rule="nonzero" fill-opacity="1" /><path clip-path="url(#clip710)" d="M121.177 1447.5 Q117.566 1447.5 115.737 1451.07 Q113.932 1454.61 113.932 1461.74 Q113.932 1468.84 115.737 1472.41 Q117.566 1475.95 121.177 1475.95 Q124.811 1475.95 126.617 1472.41 Q128.445 1468.84 128.445 1461.74 Q128.445 1454.61 126.617 1451.07 Q124.811 1447.5 121.177 1447.5 M121.177 1443.8 Q126.987 1443.8 130.043 1448.4 Q133.121 1452.99 133.121 1461.74 Q133.121 1470.47 130.043 1475.07 Q126.987 1479.65 121.177 1479.65 Q115.367 1479.65 112.288 1475.07 Q109.233 1470.47 109.233 1461.74 Q109.233 1452.99 112.288 1448.4 Q115.367 1443.8 121.177 1443.8 Z" fill="#000000" fill-rule="nonzero" fill-opacity="1" /><path clip-path="url(#clip710)" d="M151.339 1447.5 Q147.728 1447.5 145.899 1451.07 Q144.093 1454.61 144.093 1461.74 Q144.093 1468.84 145.899 1472.41 Q147.728 1475.95 151.339 1475.95 Q154.973 1475.95 156.779 1472.41 Q158.607 1468.84 158.607 1461.74 Q158.607 1454.61 156.779 1451.07 Q154.973 1447.5 151.339 1447.5 M151.339 1443.8 Q157.149 1443.8 160.205 1448.4 Q163.283 1452.99 163.283 1461.74 Q163.283 1470.47 160.205 1475.07 Q157.149 1479.65 151.339 1479.65 Q145.529 1479.65 142.45 1475.07 Q139.394 1470.47 139.394 1461.74 Q139.394 1452.99 142.45 1448.4 Q145.529 1443.8 151.339 1443.8 Z" fill="#000000" fill-rule="nonzero" fill-opacity="1" /><path clip-path="url(#clip710)" d="M51.6634 1088.19 L59.3023 1088.19 L59.3023 1061.82 L50.9921 1063.49 L50.9921 1059.23 L59.256 1057.56 L63.9319 1057.56 L63.9319 1088.19 L71.5707 1088.19 L71.5707 1092.12 L51.6634 1092.12 L51.6634 1088.19 Z" fill="#000000" fill-rule="nonzero" fill-opacity="1" /><path clip-path="url(#clip710)" d="M93.8623 1061.64 L82.0568 1080.08 L93.8623 1080.08 L93.8623 1061.64 M92.6354 1057.56 L98.515 1057.56 L98.515 1080.08 L103.446 1080.08 L103.446 1083.97 L98.515 1083.97 L98.515 1092.12 L93.8623 1092.12 L93.8623 1083.97 L78.2605 1083.97 L78.2605 1079.46 L92.6354 1057.56 Z" fill="#000000" fill-rule="nonzero" fill-opacity="1" /><path clip-path="url(#clip710)" d="M121.177 1060.64 Q117.566 1060.64 115.737 1064.2 Q113.932 1067.75 113.932 1074.88 Q113.932 1081.98 115.737 1085.55 Q117.566 1089.09 121.177 1089.09 Q124.811 1089.09 126.617 1085.55 Q128.445 1081.98 128.445 1074.88 Q128.445 1067.75 126.617 1064.2 Q124.811 1060.64 121.177 1060.64 M121.177 1056.94 Q126.987 1056.94 130.043 1061.54 Q133.121 1066.13 133.121 1074.88 Q133.121 1083.6 130.043 1088.21 Q126.987 1092.79 121.177 1092.79 Q115.367 1092.79 112.288 1088.21 Q109.233 1083.6 109.233 1074.88 Q109.233 1066.13 112.288 1061.54 Q115.367 1056.94 121.177 1056.94 Z" fill="#000000" fill-rule="nonzero" fill-opacity="1" /><path clip-path="url(#clip710)" d="M151.339 1060.64 Q147.728 1060.64 145.899 1064.2 Q144.093 1067.75 144.093 1074.88 Q144.093 1081.98 145.899 1085.55 Q147.728 1089.09 151.339 1089.09 Q154.973 1089.09 156.779 1085.55 Q158.607 1081.98 158.607 1074.88 Q158.607 1067.75 156.779 1064.2 Q154.973 1060.64 151.339 1060.64 M151.339 1056.94 Q157.149 1056.94 160.205 1061.54 Q163.283 1066.13 163.283 1074.88 Q163.283 1083.6 160.205 1088.21 Q157.149 1092.79 151.339 1092.79 Q145.529 1092.79 142.45 1088.21 Q139.394 1083.6 139.394 1074.88 Q139.394 1066.13 142.45 1061.54 Q145.529 1056.94 151.339 1056.94 Z" fill="#000000" fill-rule="nonzero" fill-opacity="1" /><path clip-path="url(#clip710)" d="M51.6634 701.323 L59.3023 701.323 L59.3023 674.958 L50.9921 676.624 L50.9921 672.365 L59.256 670.698 L63.9319 670.698 L63.9319 701.323 L71.5707 701.323 L71.5707 705.258 L51.6634 705.258 L51.6634 701.323 Z" fill="#000000" fill-rule="nonzero" fill-opacity="1" /><path clip-path="url(#clip710)" d="M91.5938 686.115 Q88.4456 686.115 86.5938 688.268 Q84.7651 690.421 84.7651 694.171 Q84.7651 697.897 86.5938 700.073 Q88.4456 702.226 91.5938 702.226 Q94.7419 702.226 96.5706 700.073 Q98.4224 697.897 98.4224 694.171 Q98.4224 690.421 96.5706 688.268 Q94.7419 686.115 91.5938 686.115 M100.876 671.462 L100.876 675.722 Q99.1169 674.888 97.3113 674.448 Q95.5289 674.009 93.7697 674.009 Q89.1401 674.009 86.6864 677.134 Q84.2558 680.259 83.9086 686.578 Q85.2743 684.564 87.3345 683.499 Q89.3947 682.411 91.8715 682.411 Q97.0798 682.411 100.089 685.583 Q103.121 688.731 103.121 694.171 Q103.121 699.495 99.9733 702.712 Q96.8252 705.93 91.5938 705.93 Q85.5984 705.93 82.4271 701.346 Q79.2559 696.74 79.2559 688.013 Q79.2559 679.819 83.1447 674.958 Q87.0336 670.073 93.5845 670.073 Q95.3437 670.073 97.1261 670.421 Q98.9317 670.768 100.876 671.462 Z" fill="#000000" fill-rule="nonzero" fill-opacity="1" /><path clip-path="url(#clip710)" d="M121.177 673.777 Q117.566 673.777 115.737 677.342 Q113.932 680.884 113.932 688.013 Q113.932 695.12 115.737 698.684 Q117.566 702.226 121.177 702.226 Q124.811 702.226 126.617 698.684 Q128.445 695.12 128.445 688.013 Q128.445 680.884 126.617 677.342 Q124.811 673.777 121.177 673.777 M121.177 670.073 Q126.987 670.073 130.043 674.68 Q133.121 679.263 133.121 688.013 Q133.121 696.74 130.043 701.346 Q126.987 705.93 121.177 705.93 Q115.367 705.93 112.288 701.346 Q109.233 696.74 109.233 688.013 Q109.233 679.263 112.288 674.68 Q115.367 670.073 121.177 670.073 Z" fill="#000000" fill-rule="nonzero" fill-opacity="1" /><path clip-path="url(#clip710)" d="M151.339 673.777 Q147.728 673.777 145.899 677.342 Q144.093 680.884 144.093 688.013 Q144.093 695.12 145.899 698.684 Q147.728 702.226 151.339 702.226 Q154.973 702.226 156.779 698.684 Q158.607 695.12 158.607 688.013 Q158.607 680.884 156.779 677.342 Q154.973 673.777 151.339 673.777 M151.339 670.073 Q157.149 670.073 160.205 674.68 Q163.283 679.263 163.283 688.013 Q163.283 696.74 160.205 701.346 Q157.149 705.93 151.339 705.93 Q145.529 705.93 142.45 701.346 Q139.394 696.74 139.394 688.013 Q139.394 679.263 142.45 674.68 Q145.529 670.073 151.339 670.073 Z" fill="#000000" fill-rule="nonzero" fill-opacity="1" /><path clip-path="url(#clip710)" d="M51.6634 314.461 L59.3023 314.461 L59.3023 288.095 L50.9921 289.762 L50.9921 285.503 L59.256 283.836 L63.9319 283.836 L63.9319 314.461 L71.5707 314.461 L71.5707 318.396 L51.6634 318.396 L51.6634 314.461 Z" fill="#000000" fill-rule="nonzero" fill-opacity="1" /><path clip-path="url(#clip710)" d="M91.0151 301.984 Q87.6817 301.984 85.7605 303.766 Q83.8623 305.549 83.8623 308.674 Q83.8623 311.799 85.7605 313.581 Q87.6817 315.364 91.0151 315.364 Q94.3484 315.364 96.2697 313.581 Q98.1909 311.776 98.1909 308.674 Q98.1909 305.549 96.2697 303.766 Q94.3715 301.984 91.0151 301.984 M86.3392 299.993 Q83.3299 299.253 81.6401 297.192 Q79.9735 295.132 79.9735 292.169 Q79.9735 288.026 82.9133 285.618 Q85.8762 283.211 91.0151 283.211 Q96.1771 283.211 99.1169 285.618 Q102.057 288.026 102.057 292.169 Q102.057 295.132 100.367 297.192 Q98.7002 299.253 95.7141 299.993 Q99.0937 300.78 100.969 303.072 Q102.867 305.364 102.867 308.674 Q102.867 313.697 99.7882 316.382 Q96.7326 319.067 91.0151 319.067 Q85.2975 319.067 82.2188 316.382 Q79.1633 313.697 79.1633 308.674 Q79.1633 305.364 81.0614 303.072 Q82.9595 300.78 86.3392 299.993 M84.6262 292.609 Q84.6262 295.294 86.2929 296.799 Q87.9827 298.304 91.0151 298.304 Q94.0243 298.304 95.7141 296.799 Q97.4271 295.294 97.4271 292.609 Q97.4271 289.924 95.7141 288.419 Q94.0243 286.915 91.0151 286.915 Q87.9827 286.915 86.2929 288.419 Q84.6262 289.924 84.6262 292.609 Z" fill="#000000" fill-rule="nonzero" fill-opacity="1" /><path clip-path="url(#clip710)" d="M121.177 286.915 Q117.566 286.915 115.737 290.479 Q113.932 294.021 113.932 301.151 Q113.932 308.257 115.737 311.822 Q117.566 315.364 121.177 315.364 Q124.811 315.364 126.617 311.822 Q128.445 308.257 128.445 301.151 Q128.445 294.021 126.617 290.479 Q124.811 286.915 121.177 286.915 M121.177 283.211 Q126.987 283.211 130.043 287.817 Q133.121 292.401 133.121 301.151 Q133.121 309.878 130.043 314.484 Q126.987 319.067 121.177 319.067 Q115.367 319.067 112.288 314.484 Q109.233 309.878 109.233 301.151 Q109.233 292.401 112.288 287.817 Q115.367 283.211 121.177 283.211 Z" fill="#000000" fill-rule="nonzero" fill-opacity="1" /><path clip-path="url(#clip710)" d="M151.339 286.915 Q147.728 286.915 145.899 290.479 Q144.093 294.021 144.093 301.151 Q144.093 308.257 145.899 311.822 Q147.728 315.364 151.339 315.364 Q154.973 315.364 156.779 311.822 Q158.607 308.257 158.607 301.151 Q158.607 294.021 156.779 290.479 Q154.973 286.915 151.339 286.915 M151.339 283.211 Q157.149 283.211 160.205 287.817 Q163.283 292.401 163.283 301.151 Q163.283 309.878 160.205 314.484 Q157.149 319.067 151.339 319.067 Q145.529 319.067 142.45 314.484 Q139.394 309.878 139.394 301.151 Q139.394 292.401 142.45 287.817 Q145.529 283.211 151.339 283.211 Z" fill="#000000" fill-rule="nonzero" fill-opacity="1" /><polyline clip-path="url(#clip712)" style="stroke:#009af9; stroke-linecap:round; stroke-linejoin:round; stroke-width:4; stroke-opacity:1; fill:none" points="260.231,727.279 261.246,727.639 262.262,727.972 263.278,728.28 264.294,728.566 265.309,660.23 266.325,660.578 267.341,660.9 268.357,661.198 269.373,661.476 270.388,975.561 271.404,976.021 272.42,976.45 273.436,976.848 274.452,977.219 275.467,750.695 276.483,750.798 277.499,750.893 278.515,750.981 279.531,751.063 280.546,687.193 281.562,687.542 282.578,687.866 283.594,688.165 284.609,688.443 285.625,754.487 286.641,754.635 287.657,754.773 288.673,754.9 289.688,755.019 290.704,902.642 291.72,903.075 292.736,903.479 293.752,903.855 294.767,904.205 295.783,930.709 296.799,931.396 297.815,932.036 298.831,932.63 299.846,933.184 300.862,848.353 301.878,848.512 302.894,848.661 303.909,848.8 304.925,848.929 305.941,667.53 306.957,667.605 307.973,667.674 308.988,667.738 310.004,667.796 311.02,904.313 312.036,904.767 313.052,905.191 314.067,905.584 315.083,905.951 316.099,629.066 317.115,629.827 318.131,630.53 319.146,631.179 320.162,631.778 321.178,933.45 322.194,933.936 323.209,934.388 324.225,934.807 325.241,935.196 326.257,639.845 327.273,639.874 328.288,639.901 329.304,639.926 330.32,639.949 331.336,783.729 332.352,784.05 333.367,784.347 334.383,784.622 335.399,784.876 336.415,1174.85 337.43,1175.15 338.446,1175.42 339.462,1175.68 340.478,1175.92 341.494,863.81 342.509,864.294 343.525,864.744 344.541,865.162 345.557,865.551 346.573,863.235 347.588,863.407 348.604,863.566 349.62,863.715 350.636,863.852 351.652,973.519 352.667,973.718 353.683,973.902 354.699,974.075 355.715,974.236 356.73,696.233 357.746,697.105 358.762,697.911 359.778,698.656 360.794,699.345 361.809,565.018 362.825,565.885 363.841,566.683 364.857,567.417 365.873,568.091 366.888,575.277 367.904,575.843 368.92,576.366 369.936,576.847 370.952,577.292 371.967,1009.86 372.983,1010.76 373.999,1011.6 375.015,1012.39 376.03,1013.12 377.046,1145.95 378.062,1146.07 379.078,1146.18 380.094,1146.29 381.109,1146.39 382.125,1084.02 383.141,1084.19 384.157,1084.35 385.173,1084.5 386.188,1084.64 387.204,572.901 388.22,573.316 389.236,573.699 390.252,574.052 391.267,574.377 392.283,887.379 393.299,887.871 394.315,888.33 395.33,888.758 396.346,889.156 397.362,905.65 398.378,906.109 399.394,906.536 400.409,906.934 401.425,907.305 402.441,819.249 403.457,819.355 404.473,819.454 405.488,819.545 406.504,819.63 407.52,601.835 408.536,602.042 409.552,602.233 410.567,602.407 411.583,602.567 412.599,915.518 413.615,915.621 414.63,915.718 415.646,915.808 416.662,915.891 417.678,880.893 418.694,881.465 419.709,881.995 420.725,882.488 421.741,882.945 422.757,401.941 423.773,402.378 424.788,402.78 425.804,403.148 426.82,403.486 427.836,867.459 428.852,867.743 429.867,868.005 430.883,868.248 431.899,868.471 432.915,761.035 433.93,761.765 434.946,762.442 435.962,763.068 436.978,763.648 437.994,1288.89 439.009,1289.1 440.025,1289.3 441.041,1289.49 442.057,1289.67 443.073,1444.91 444.088,1445.13 445.104,1445.34 446.12,1445.53 447.136,1445.72 448.151,648.511 449.167,649.135 450.183,649.713 451.199,650.248 452.215,650.743 453.23,616.064 454.246,616.445 455.262,616.797 456.278,617.122 457.294,617.422 458.309,638.33 459.325,638.583 460.341,638.816 461.357,639.032 462.373,639.231 463.388,695.658 464.404,695.922 465.42,696.167 466.436,696.393 467.451,696.601 468.467,522.542 469.483,522.861 470.499,523.155 471.515,523.424 472.53,523.671 473.546,1040.95 474.562,1041.78 475.578,1042.56 476.594,1043.28 477.609,1043.96 478.625,1081.95 479.641,1082.37 480.657,1082.77 481.673,1083.14 482.688,1083.49 483.704,774.467 484.72,775.126 485.736,775.736 486.751,776.299 487.767,776.821 488.783,1130.61 489.799,1131 490.815,1131.37 491.83,1131.71 492.846,1132.04 493.862,636.941 494.878,637.384 495.894,637.792 496.909,638.168 497.925,638.515 498.941,1211.83 499.957,1212.33 500.973,1212.79 501.988,1213.23 503.004,1213.64 504.02,875.794 505.036,875.891 506.051,875.981 507.067,876.064 508.083,876.142 509.099,842.576 510.115,842.91 511.13,843.221 512.146,843.51 513.162,843.779 514.178,964.781 515.194,964.862 516.209,964.938 517.225,965.008 518.241,965.074 519.257,1039.44 520.273,1039.57 521.288,1039.69 522.304,1039.8 523.32,1039.9 524.336,603.707 525.351,603.839 526.367,603.961 527.383,604.074 528.399,604.179 529.415,661.203 530.43,661.959 531.446,662.661 532.462,663.311 533.478,663.913 534.494,1144.12 535.509,1144.32 536.525,1144.51 537.541,1144.69 538.557,1144.85 539.573,765.65 540.588,766.328 541.604,766.956 542.62,767.538 543.636,768.077 544.651,452.75 545.667,453.298 546.683,453.802 547.699,454.266 548.715,454.692 549.73,663.776 550.746,664.291 551.762,664.766 552.778,665.206 553.794,665.613 554.809,1213.58 555.825,1213.82 556.841,1214.04 557.857,1214.25 558.873,1214.45 559.888,919.678 560.904,919.768 561.92,919.851 562.936,919.929 563.951,920.001 564.967,792.459 565.983,792.717 566.999,792.957 568.015,793.179 569.03,793.385 570.046,628.218 571.062,628.722 572.078,629.187 573.094,629.616 574.109,630.011 575.125,1011.86 576.141,1011.99 577.157,1012.11 578.172,1012.23 579.188,1012.33 580.204,887.804 581.22,887.93 582.236,888.047 583.251,888.156 584.267,888.257 585.283,952.793 586.299,953.822 587.315,954.78 588.33,955.673 589.346,956.504 590.362,1149.91 591.378,1149.94 592.394,1149.97 593.409,1150 594.425,1150.02 595.441,991.817 596.457,991.993 597.472,992.157 598.488,992.311 599.504,992.454 600.52,742.241 601.536,742.417 602.551,742.579 603.567,742.728 604.583,742.867 605.599,638.602 606.615,638.799 607.63,638.98 608.646,639.147 609.662,639.302 610.678,607.817 611.694,608.292 612.709,608.73 613.725,609.135 614.741,609.509 615.757,789.405 616.772,789.581 617.788,789.745 618.804,789.897 619.82,790.038 620.836,620.267 621.851,621.323 622.867,622.3 623.883,623.204 624.899,624.041 625.915,736.159 626.93,736.287 627.946,736.406 628.962,736.516 629.978,736.618 630.994,1301.74 632.009,1301.95 633.025,1302.15 634.041,1302.33 635.057,1302.51 636.072,535.009 637.088,535.399 638.104,535.758 639.12,536.088 640.136,536.392 641.151,696.979 642.167,697.189 643.183,697.382 644.199,697.562 645.215,697.729 646.23,541.573 647.246,541.72 648.262,541.856 649.278,541.981 650.294,542.096 651.309,719.885 652.325,720.278 653.341,720.642 654.357,720.98 655.372,721.293 656.388,981.56 657.404,981.894 658.42,982.204 659.436,982.494 660.451,982.763 661.467,425.42 662.483,425.571 663.499,425.71 664.515,425.836 665.53,425.952 666.546,733.704 667.562,734.188 668.578,734.636 669.594,735.049 670.609,735.431 671.625,770.707 672.641,771.102 673.657,771.468 674.672,771.808 675.688,772.123 676.704,715.846 677.72,715.982 678.736,716.107 679.751,716.223 680.767,716.329 681.783,614.781 682.799,614.995 683.815,615.193 684.83,615.376 685.846,615.546 686.862,779.104 687.878,779.159 688.893,779.211 689.909,779.259 690.925,779.303 691.941,1084.06 692.957,1084.46 693.972,1084.83 694.988,1085.18 696.004,1085.51 697.02,1296.14 698.036,1296.22 699.051,1296.3 700.067,1296.38 701.083,1296.45 702.099,939.717 703.115,939.911 704.13,940.091 705.146,940.26 706.162,940.417 707.178,975.307 708.193,975.502 709.209,975.683 710.225,975.853 711.241,976.01 712.257,831.502 713.272,831.608 714.288,831.707 715.304,831.799 716.32,831.884 717.336,183.599 718.351,183.917 719.367,184.206 720.383,184.468 721.399,184.706 722.415,654.608 723.43,654.972 724.446,655.309 725.462,655.621 726.478,655.91 727.493,711.227 728.509,711.525 729.525,711.799 730.541,712.053 731.557,712.287 732.572,737.632 733.588,737.961 734.604,738.266 735.62,738.549 736.636,738.812 737.651,1064.89 738.667,1065.48 739.683,1066.03 740.699,1066.55 741.715,1067.03 742.73,1165.25 743.746,1165.37 744.762,1165.48 745.778,1165.58 746.793,1165.68 747.809,1012.49 748.825,1012.78 749.841,1013.05 750.857,1013.31 751.872,1013.55 752.888,848.163 753.904,848.511 754.92,848.835 755.936,849.135 756.951,849.415 757.967,590.712 758.983,590.934 759.999,591.138 761.015,591.327 762.03,591.501 763.046,933.234 764.062,933.459 765.078,933.669 766.093,933.865 767.109,934.048 768.125,624.804 769.141,625.026 770.157,625.231 771.172,625.422 772.188,625.598 773.204,860.895 774.22,861.315 775.236,861.704 776.251,862.066 777.267,862.402 778.283,975.961 779.299,976.022 780.315,976.08 781.33,976.134 782.346,976.185 783.362,1045.12 784.378,1045.57 785.393,1046 786.409,1046.39 787.425,1046.76 788.441,918.394 789.457,918.669 790.472,918.924 791.488,919.162 792.504,919.384 793.52,775.776 794.536,776.248 795.551,776.687 796.567,777.094 797.583,777.472 798.599,905.182 799.614,905.283 800.63,905.378 801.646,905.466 802.662,905.547 803.678,812.905 804.693,813.266 805.709,813.602 806.725,813.913 807.741,814.202 808.757,903.642 809.772,903.953 810.788,904.243 811.804,904.513 812.82,904.765 813.836,855.171 814.851,855.44 815.867,855.691 816.883,855.925 817.899,856.143 818.914,784.163 819.93,784.661 820.946,785.12 821.962,785.545 822.978,785.937 823.993,576.853 825.009,577.466 826.025,578.032 827.041,578.555 828.057,579.037 829.072,501.971 830.088,502.172 831.104,502.356 832.12,502.525 833.136,502.68 834.151,912.879 835.167,913.151 836.183,913.404 837.199,913.641 838.214,913.862 839.23,994.141 840.246,994.402 841.262,994.646 842.278,994.873 843.293,995.084 844.309,881.542 845.325,882.059 846.341,882.54 847.357,882.988 848.372,883.406 849.388,974.871 850.404,975.398 851.42,975.89 852.436,976.35 853.451,976.779 854.467,431.811 855.483,432.037 856.499,432.244 857.514,432.435 858.53,432.61 859.546,1039.7 860.562,1039.91 861.578,1040.12 862.593,1040.31 863.609,1040.49 864.625,852.062 865.641,852.173 866.657,852.277 867.672,852.373 868.688,852.463 869.704,773.702 870.72,773.954 871.736,774.187 872.751,774.403 873.767,774.603 874.783,905.391 875.799,905.479 876.814,905.56 877.83,905.636 878.846,905.707 879.862,760.002 880.878,760.243 881.893,760.466 882.909,760.674 883.925,760.867 884.941,716.903 885.957,717.094 886.972,717.27 887.988,717.434 889.004,717.585 890.02,953.622 891.036,954.109 892.051,954.562 893.067,954.986 894.083,955.382 895.099,918.334 896.114,918.522 897.13,918.698 898.146,918.863 899.162,919.016 900.178,231.145 901.193,231.785 902.209,232.37 903.225,232.906 904.241,233.395 905.257,951.014 906.272,951.186 907.288,951.346 908.304,951.495 909.32,951.633 910.336,934.592 911.351,934.751 912.367,934.899 913.383,935.036 914.399,935.164 915.414,727.645 916.43,727.953 917.446,728.239 918.462,728.504 919.478,728.749 920.493,860.979 921.509,861.575 922.525,862.13 923.541,862.647 924.557,863.129 925.572,337.534 926.588,338.31 927.604,339.021 928.62,339.673 929.635,340.27 930.651,824.089 931.667,824.525 932.683,824.929 933.699,825.305 934.714,825.654 935.73,1107.12 936.746,1107.64 937.762,1108.13 938.778,1108.58 939.793,1109 940.809,1332.7 941.825,1332.94 942.841,1333.17 943.857,1333.39 944.872,1333.6 945.888,278.229 946.904,278.772 947.92,279.27 948.935,279.728 949.951,280.148 950.967,1102.23 951.983,1102.95 952.999,1103.61 954.014,1104.24 955.03,1104.82 956.046,765.744 957.062,766.679 958.078,767.542 959.093,768.339 960.109,769.076 961.125,860.501 962.141,861.495 963.157,862.418 964.172,863.274 965.188,864.068 966.204,971.091 967.22,971.298 968.235,971.492 969.251,971.674 970.267,971.845 971.283,757.858 972.299,758.037 973.314,758.203 974.33,758.357 975.346,758.499 976.362,792.431 977.378,793.005 978.393,793.538 979.409,794.035 980.425,794.497 981.441,619.284 982.457,619.613 983.472,619.918 984.488,620.2 985.504,620.462 986.52,1125.34 987.535,1125.81 988.551,1126.24 989.567,1126.65 990.583,1127.02 991.599,953.312 992.614,953.575 993.63,953.821 994.646,954.052 995.662,954.267 996.678,653.021 997.693,654.215 998.709,655.318 999.725,656.336 1000.74,657.277 1001.76,967.132 1002.77,967.66 1003.79,968.15 1004.8,968.604 1005.82,969.026 1006.84,912.478 1007.85,912.802 1008.87,913.104 1009.88,913.385 1010.9,913.647 1011.91,1017.78 1012.93,1018.06 1013.95,1018.32 1014.96,1018.57 1015.98,1018.8 1016.99,703.227 1018.01,703.406 1019.02,703.571 1020.04,703.725 1021.06,703.867 1022.07,792.494 1023.09,792.611 1024.1,792.719 1025.12,792.82 1026.14,792.914 1027.15,1062.01 1028.17,1062.07 1029.18,1062.14 1030.2,1062.2 1031.21,1062.25 1032.23,734.814 1033.25,735.064 1034.26,735.297 1035.28,735.514 1036.29,735.716 1037.31,418.416 1038.32,418.859 1039.34,419.269 1040.36,419.646 1041.37,419.995 1042.39,885.021 1043.4,885.259 1044.42,885.482 1045.44,885.689 1046.45,885.883 1047.47,323.191 1048.48,323.611 1049.5,323.993 1050.51,324.34 1051.53,324.656 1052.55,598.086 1053.56,599.052 1054.58,599.946 1055.59,600.773 1056.61,601.537 1057.62,512.155 1058.64,512.445 1059.66,512.713 1060.67,512.959 1061.69,513.185 1062.7,689.958 1063.72,690.232 1064.74,690.486 1065.75,690.72 1066.77,690.936 1067.78,891.081 1068.8,891.134 1069.81,891.183 1070.83,891.228 1071.85,891.27 1072.86,1259.42 1073.88,1259.84 1074.89,1260.23 1075.91,1260.6 1076.92,1260.94 1077.94,405.101 1078.96,405.384 1079.97,405.645 1080.99,405.886 1082,406.107 1083.02,678.166 1084.04,678.677 1085.05,679.15 1086.07,679.587 1087.08,679.992 1088.1,625.086 1089.11,625.146 1090.13,625.201 1091.15,625.252 1092.16,625.299 1093.18,548.019 1094.19,548.334 1095.21,548.625 1096.22,548.892 1097.24,549.139 1098.26,864.642 1099.27,864.741 1100.29,864.832 1101.3,864.917 1102.32,864.995 1103.34,889.27 1104.35,889.807 1105.37,890.306 1106.38,890.769 1107.4,891.199 1108.41,834.011 1109.43,834.128 1110.45,834.236 1111.46,834.336 1112.48,834.429 1113.49,903.443 1114.51,904.244 1115.52,904.988 1116.54,905.679 1117.56,906.319 1118.57,700.029 1119.59,700.141 1120.6,700.244 1121.62,700.34 1122.64,700.429 1123.65,673.072 1124.67,673.231 1125.68,673.378 1126.7,673.514 1127.71,673.64 1128.73,559.322 1129.75,559.77 1130.76,560.182 1131.78,560.562 1132.79,560.911 1133.81,793.264 1134.82,793.571 1135.84,793.855 1136.86,794.119 1137.87,794.364 1138.89,863.057 1139.9,863.166 1140.92,863.268 1141.94,863.363 1142.95,863.451 1143.97,665.971 1144.98,666.33 1146,666.662 1147.01,666.97 1148.03,667.255 1149.05,543.169 1150.06,544.222 1151.08,545.192 1152.09,546.085 1153.11,546.907 1154.12,870.058 1155.14,870.119 1156.16,870.175 1157.17,870.228 1158.19,870.277 1159.2,547.215 1160.22,547.704 1161.24,548.154 1162.25,548.569 1163.27,548.951 1164.28,785.949 1165.3,786.099 1166.31,786.238 1167.33,786.367 1168.35,786.487 1169.36,958.132 1170.38,958.224 1171.39,958.309 1172.41,958.388 1173.42,958.462 1174.44,541.695 1175.46,541.829 1176.47,541.952 1177.49,542.065 1178.5,542.17 1179.52,747.41 1180.54,747.496 1181.55,747.577 1182.57,747.651 1183.58,747.721 1184.6,874.932 1185.61,875.028 1186.63,875.118 1187.65,875.201 1188.66,875.279 1189.68,895.13 1190.69,895.423 1191.71,895.697 1192.72,895.953 1193.74,896.194 1194.76,972.904 1195.77,973.537 1196.79,974.128 1197.8,974.681 1198.82,975.198 1199.84,1079.66 1200.85,1080.04 1201.87,1080.4 1202.88,1080.73 1203.9,1081.05 1204.91,683.281 1205.93,683.769 1206.95,684.217 1207.96,684.628 1208.98,685.005 1209.99,1158.1 1211.01,1158.52 1212.02,1158.91 1213.04,1159.28 1214.06,1159.63 1215.07,550.796 1216.09,550.947 1217.1,551.087 1218.12,551.215 1219.14,551.332 1220.15,479.719 1221.17,480.025 1222.18,480.304 1223.2,480.56 1224.21,480.794 1225.23,800.389 1226.25,800.68 1227.26,800.95 1228.28,801.201 1229.29,801.434 1230.31,569.477 1231.32,569.695 1232.34,569.895 1233.36,570.078 1234.37,570.246 1235.39,833.872 1236.4,834.282 1237.42,834.663 1238.44,835.017 1239.45,835.347 1240.47,760.543 1241.48,761.014 1242.5,761.45 1243.51,761.854 1244.53,762.229 1245.55,883.767 1246.56,883.827 1247.58,883.884 1248.59,883.937 1249.61,883.986 1250.62,748.965 1251.64,750.006 1252.66,750.966 1253.67,751.852 1254.69,752.669 1255.7,760.441 1256.72,760.751 1257.74,761.039 1258.75,761.304 1259.77,761.55 1260.78,936.372 1261.8,937.15 1262.81,937.874 1263.83,938.547 1264.85,939.174 1265.86,794.432 1266.88,794.455 1267.89,794.477 1268.91,794.497 1269.92,794.515 1270.94,843.928 1271.96,844.175 1272.97,844.405 1273.99,844.618 1275,844.817 1276.02,850.56 1277.04,850.594 1278.05,850.625 1279.07,850.655 1280.08,850.682 1281.1,800.9 1282.11,801.486 1283.13,802.033 1284.15,802.544 1285.16,803.02 1286.18,883.414 1287.19,883.499 1288.21,883.577 1289.22,883.651 1290.24,883.719 1291.26,959.737 1292.27,960.474 1293.29,961.163 1294.3,961.808 1295.32,962.411 1296.34,894.117 1297.35,894.224 1298.37,894.324 1299.38,894.417 1300.4,894.503 1301.41,506.012 1302.43,506.212 1303.45,506.397 1304.46,506.566 1305.48,506.722 1306.49,945.547 1307.51,945.728 1308.52,945.896 1309.54,946.054 1310.56,946.202 1311.57,882.363 1312.59,882.532 1313.6,882.69 1314.62,882.838 1315.64,882.977 1316.65,513.58 1317.67,513.954 1318.68,514.298 1319.7,514.616 1320.71,514.908 1321.73,493.445 1322.75,493.87 1323.76,494.263 1324.78,494.625 1325.79,494.96 1326.81,709.448 1327.82,709.825 1328.84,710.175 1329.86,710.5 1330.87,710.8 1331.89,580.257 1332.9,581.012 1333.92,581.711 1334.94,582.356 1335.95,582.953 1336.97,926.015 1337.98,926.684 1339,927.308 1340.01,927.891 1341.03,928.435 1342.05,1282.75 1343.06,1283.64 1344.08,1284.47 1345.09,1285.25 1346.11,1285.99 1347.12,659.291 1348.14,659.707 1349.16,660.093 1350.17,660.453 1351.19,660.788 1352.2,988.478 1353.22,988.724 1354.24,988.953 1355.25,989.168 1356.27,989.369 1357.28,1047.65 1358.3,1047.87 1359.31,1048.07 1360.33,1048.27 1361.35,1048.45 1362.36,1020.41 1363.38,1020.77 1364.39,1021.09 1365.41,1021.4 1366.42,1021.69 1367.44,499.267 1368.46,499.84 1369.47,500.368 1370.49,500.856 1371.5,501.305 1372.52,989.828 1373.54,989.939 1374.55,990.043 1375.57,990.14 1376.58,990.232 1377.6,787.697 1378.61,788.193 1379.63,788.655 1380.65,789.086 1381.66,789.486 1382.68,808.218 1383.69,808.937 1384.71,809.605 1385.72,810.226 1386.74,810.803 1387.76,524.769 1388.77,525.041 1389.79,525.291 1390.8,525.522 1391.82,525.734 1392.84,733.613 1393.85,733.916 1394.87,734.196 1395.88,734.455 1396.9,734.696 1397.91,1053.85 1398.93,1054.08 1399.95,1054.29 1400.96,1054.49 1401.98,1054.67 1402.99,580.74 1404.01,580.789 1405.02,580.834 1406.04,580.875 1407.06,580.913 1408.07,866.916 1409.09,867.27 1410.1,867.598 1411.12,867.902 1412.14,868.185 1413.15,803.709 1414.17,804.162 1415.18,804.583 1416.2,804.975 1417.21,805.34 1418.23,957.073 1419.25,957.616 1420.26,958.122 1421.28,958.594 1422.29,959.034 1423.31,1220.11 1424.32,1220.29 1425.34,1220.47 1426.36,1220.63 1427.37,1220.78 1428.39,888.346 1429.4,888.757 1430.42,889.142 1431.44,889.501 1432.45,889.836 1433.47,711.414 1434.48,711.653 1435.5,711.875 1436.51,712.081 1437.53,712.273 1438.55,866.771 1439.56,867.355 1440.58,867.899 1441.59,868.408 1442.61,868.883 1443.62,862.295 1444.64,862.417 1445.66,862.53 1446.67,862.636 1447.69,862.734 1448.7,730.05 1449.72,731.117 1450.74,732.11 1451.75,733.034 1452.77,733.893 1453.78,1039.76 1454.8,1039.82 1455.81,1039.87 1456.83,1039.92 1457.85,1039.97 1458.86,653.252 1459.88,653.354 1460.89,653.449 1461.91,653.536 1462.92,653.617 1463.94,608.985 1464.96,609.212 1465.97,609.422 1466.99,609.617 1468,609.798 1469.02,1187.38 1470.04,1187.61 1471.05,1187.82 1472.07,1188.03 1473.08,1188.22 1474.1,677.868 1475.11,678.15 1476.13,678.411 1477.15,678.654 1478.16,678.879 1479.18,966.562 1480.19,967.529 1481.21,968.433 1482.22,969.277 1483.24,970.065 1484.26,990.607 1485.27,990.762 1486.29,990.908 1487.3,991.044 1488.32,991.171 1489.34,662.843 1490.35,663.12 1491.37,663.378 1492.38,663.616 1493.4,663.837 1494.41,768.779 1495.43,768.986 1496.45,769.179 1497.46,769.359 1498.48,769.525 1499.49,866.852 1500.51,867.563 1501.52,868.226 1502.54,868.846 1503.56,869.425 1504.57,977.631 1505.59,977.796 1506.6,977.95 1507.62,978.094 1508.64,978.228 1509.65,898.603 1510.67,899.037 1511.68,899.442 1512.7,899.821 1513.71,900.175 1514.73,844.179 1515.75,844.569 1516.76,844.931 1517.78,845.267 1518.79,845.579 1519.81,491.262 1520.82,491.705 1521.84,492.113 1522.86,492.489 1523.87,492.836 1524.89,963.627 1525.9,963.914 1526.92,964.184 1527.94,964.437 1528.95,964.675 1529.97,977.17 1530.98,977.584 1532,977.972 1533.01,978.336 1534.03,978.676 1535.05,1210.66 1536.06,1210.9 1537.08,1211.13 1538.09,1211.35 1539.11,1211.55 1540.12,719.32 1541.14,719.791 1542.16,720.229 1543.17,720.635 1544.19,721.013 1545.2,836.496 1546.22,836.846 1547.24,837.174 1548.25,837.479 1549.27,837.763 1550.28,822.568 1551.3,822.811 1552.31,823.036 1553.33,823.243 1554.35,823.435 1555.36,1061.14 1556.38,1061.66 1557.39,1062.16 1558.41,1062.62 1559.42,1063.05 1560.44,954.512 1561.46,954.964 1562.47,955.386 1563.49,955.779 1564.5,956.145 1565.52,933.98 1566.54,934.468 1567.55,934.922 1568.57,935.346 1569.58,935.741 1570.6,588.302 1571.61,589.241 1572.63,590.107 1573.65,590.906 1574.66,591.644 1575.68,675.402 1576.69,675.571 1577.71,675.728 1578.72,675.874 1579.74,676.009 1580.76,536.273 1581.77,536.427 1582.79,536.569 1583.8,536.7 1584.82,536.821 1585.84,765.666 1586.85,765.989 1587.87,766.288 1588.88,766.567 1589.9,766.826 1590.91,674.052 1591.93,674.399 1592.95,674.72 1593.96,675.019 1594.98,675.295 1595.99,1075.26 1597.01,1075.29 1598.02,1075.31 1599.04,1075.34 1600.06,1075.36 1601.07,763.525 1602.09,763.609 1603.1,763.686 1604.12,763.758 1605.14,763.825 1606.15,668.715 1607.17,669.195 1608.18,669.642 1609.2,670.058 1610.21,670.444 1611.23,338.606 1612.25,338.811 1613.26,339.001 1614.28,339.176 1615.29,339.337 1616.31,733.821 1617.32,734.213 1618.34,734.576 1619.36,734.912 1620.37,735.224 1621.39,711.511 1622.4,711.59 1623.42,711.664 1624.44,711.732 1625.45,711.796 1626.47,954.608 1627.48,954.886 1628.5,955.145 1629.51,955.388 1630.53,955.614 1631.55,959.746 1632.56,960.265 1633.58,960.751 1634.59,961.205 1635.61,961.629 1636.62,912.231 1637.64,912.424 1638.66,912.604 1639.67,912.772 1640.69,912.928 1641.7,1405.71 1642.72,1405.94 1643.74,1406.17 1644.75,1406.38 1645.77,1406.57 1646.78,724.486 1647.8,724.731 1648.81,724.961 1649.83,725.175 1650.85,725.374 1651.86,916.813 1652.88,917.083 1653.89,917.336 1654.91,917.572 1655.92,917.794 1656.94,909.881 1657.96,910.017 1658.97,910.144 1659.99,910.264 1661,910.375 1662.02,954.979 1663.04,955.172 1664.05,955.352 1665.07,955.522 1666.08,955.68 1667.1,703.518 1668.11,703.917 1669.13,704.287 1670.15,704.631 1671.16,704.95 1672.18,1009.93 1673.19,1010.62 1674.21,1011.27 1675.22,1011.88 1676.24,1012.44 1677.26,879.882 1678.27,879.951 1679.29,880.015 1680.3,880.076 1681.32,880.132 1682.34,913.144 1683.35,913.596 1684.37,914.019 1685.38,914.414 1686.4,914.785 1687.41,621.434 1688.43,621.76 1689.45,622.062 1690.46,622.343 1691.48,622.604 1692.49,1019.19 1693.51,1019.5 1694.52,1019.78 1695.54,1020.05 1696.56,1020.31 1697.57,685.661 1698.59,686.209 1699.6,686.721 1700.62,687.199 1701.64,687.646 1702.65,1038.84 1703.67,1039.22 1704.68,1039.58 1705.7,1039.92 1706.71,1040.23 1707.73,822.229 1708.75,822.488 1709.76,822.73 1710.78,822.955 1711.79,823.165 1712.81,582.74 1713.82,583.437 1714.84,584.08 1715.86,584.673 1716.87,585.22 1717.89,646.508 1718.9,646.656 1719.92,646.792 1720.94,646.919 1721.95,647.036 1722.97,671.605 1723.98,671.858 1725,672.094 1726.01,672.313 1727.03,672.516 1728.05,816.462 1729.06,816.695 1730.08,816.912 1731.09,817.115 1732.11,817.304 1733.12,890.729 1734.14,890.786 1735.16,890.839 1736.17,890.888 1737.19,890.934 1738.2,365.652 1739.22,365.712 1740.24,365.768 1741.25,365.818 1742.27,365.865 1743.28,276.367 1744.3,276.95 1745.31,277.485 1746.33,277.977 1747.35,278.429 1748.36,1089.24 1749.38,1089.44 1750.39,1089.63 1751.41,1089.8 1752.42,1089.97 1753.44,908.689 1754.46,909.068 1755.47,909.421 1756.49,909.75 1757.5,910.057 1758.52,720.284 1759.54,720.524 1760.55,720.745 1761.57,720.949 1762.58,721.138 1763.6,919.177 1764.61,919.388 1765.63,919.585 1766.65,919.77 1767.66,919.942 1768.68,892.901 1769.69,893.209 1770.71,893.496 1771.72,893.766 1772.74,894.018 1773.76,773.083 1774.77,773.48 1775.79,773.848 1776.8,774.189 1777.82,774.505 1778.84,1033.06 1779.85,1033.43 1780.87,1033.78 1781.88,1034.1 1782.9,1034.4 1783.91,669.992 1784.93,670.284 1785.95,670.556 1786.96,670.809 1787.98,671.044 1788.99,807.455 1790.01,807.792 1791.02,808.105 1792.04,808.397 1793.06,808.669 1794.07,1123.22 1795.09,1123.62 1796.1,1124 1797.12,1124.35 1798.14,1124.69 1799.15,884.981 1800.17,885.066 1801.18,885.145 1802.2,885.22 1803.21,885.289 1804.23,1003.52 1805.25,1004.05 1806.26,1004.55 1807.28,1005.02 1808.29,1005.47 1809.31,87.9763 1810.32,88.2561 1811.34,88.5109 1812.36,88.7431 1813.37,88.9547 1814.39,1275.63 1815.4,1275.9 1816.42,1276.17 1817.44,1276.42 1818.45,1276.65 1819.47,621.244 1820.48,621.48 1821.5,621.7 1822.51,621.905 1823.53,622.096 1824.55,1098.04 1825.56,1098.21 1826.58,1098.37 1827.59,1098.52 1828.61,1098.67 1829.62,700.159 1830.64,700.704 1831.66,701.211 1832.67,701.682 1833.69,702.12 1834.7,1252.25 1835.72,1252.47 1836.74,1252.68 1837.75,1252.88 1838.77,1253.07 1839.78,386.694 1840.8,386.824 1841.81,386.942 1842.83,387.051 1843.85,387.151 1844.86,1019.93 1845.88,1020.19 1846.89,1020.43 1847.91,1020.66 1848.92,1020.88 1849.94,878.823 1850.96,879.29 1851.97,879.726 1852.99,880.133 1854,880.514 1855.02,334.472 1856.04,334.733 1857.05,334.973 1858.07,335.191 1859.08,335.392 1860.1,1227.53 1861.11,1227.65 1862.13,1227.76 1863.15,1227.87 1864.16,1227.97 1865.18,633.805 1866.19,634.083 1867.21,634.342 1868.22,634.582 1869.24,634.804 1870.26,975.961 1871.27,976.141 1872.29,976.31 1873.3,976.468 1874.32,976.616 1875.34,324.442 1876.35,324.681 1877.37,324.898 1878.38,325.095 1879.4,325.275 1880.41,962.173 1881.43,962.417 1882.45,962.646 1883.46,962.861 1884.48,963.063 1885.49,1401.58 1886.51,1401.61 1887.52,1401.65 1888.54,1401.68 1889.56,1401.71 1890.57,915.52 1891.59,915.618 1892.6,915.71 1893.62,915.796 1894.64,915.876 1895.65,857.446 1896.67,857.774 1897.68,858.082 1898.7,858.37 1899.71,858.64 1900.73,821.075 1901.75,821.671 1902.76,822.226 1903.78,822.743 1904.79,823.225 1905.81,678.545 1906.82,678.765 1907.84,678.97 1908.86,679.161 1909.87,679.34 1910.89,724.576 1911.9,725.117 1912.92,725.619 1913.94,726.087 1914.95,726.522 1915.97,976.179 1916.98,976.276 1918,976.367 1919.01,976.452 1920.03,976.533 1921.05,659.14 1922.06,659.358 1923.08,659.561 1924.09,659.749 1925.11,659.924 1926.12,957.041 1927.14,957.217 1928.16,957.381 1929.17,957.535 1930.19,957.679 1931.2,1219.17 1932.22,1219.67 1933.24,1220.15 1934.25,1220.59 1935.27,1221 1936.28,1098.47 1937.3,1098.63 1938.31,1098.79 1939.33,1098.94 1940.35,1099.08 1941.36,817.761 1942.38,818.178 1943.39,818.567 1944.41,818.928 1945.42,819.265 1946.44,1175.86 1947.46,1175.89 1948.47,1175.92 1949.49,1175.95 1950.5,1175.97 1951.52,858.504 1952.54,858.587 1953.55,858.666 1954.57,858.739 1955.58,858.808 1956.6,664.045 1957.61,664.613 1958.63,665.134 1959.65,665.611 1960.66,666.047 1961.68,1002.05 1962.69,1002.23 1963.71,1002.4 1964.72,1002.55 1965.74,1002.7 1966.76,556.445 1967.77,556.62 1968.79,556.783 1969.8,556.934 1970.82,557.074 1971.84,903.723 1972.85,904.026 1973.87,904.308 1974.88,904.57 1975.9,904.814 1976.91,479.381 1977.93,479.62 1978.95,479.841 1979.96,480.047 1980.98,480.237 1981.99,1079.37 1983.01,1079.44 1984.02,1079.5 1985.04,1079.56 1986.06,1079.62 1987.07,899.978 1988.09,900.081 1989.1,900.176 1990.12,900.265 1991.14,900.349 1992.15,845.883 1993.17,846.353 1994.18,846.792 1995.2,847.203 1996.21,847.588 1997.23,928.847 1998.25,928.929 1999.26,929.005 2000.28,929.076 2001.29,929.143 2002.31,556.005 2003.32,556.784 2004.34,557.502 2005.36,558.162 2006.37,558.769 2007.39,683.106 2008.4,683.505 2009.42,683.875 2010.44,684.218 2011.45,684.536 2012.47,812.969 2013.48,813.562 2014.5,814.114 2015.51,814.627 2016.53,815.105 2017.55,840.783 2018.56,841.371 2019.58,841.92 2020.59,842.432 2021.61,842.91 2022.62,1059.42 2023.64,1059.64 2024.66,1059.84 2025.67,1060.03 2026.69,1060.21 2027.7,938.009 2028.72,938.382 2029.73,938.729 2030.75,939.053 2031.77,939.354 2032.78,620.158 2033.8,620.317 2034.81,620.466 2035.83,620.604 2036.85,620.733 2037.86,956.444 2038.88,957.329 2039.89,958.165 2040.91,958.953 2041.92,959.696 2042.94,1084.16 2043.96,1084.22 2044.97,1084.27 2045.99,1084.31 2047,1084.36 2048.02,1060.96 2049.03,1061.12 2050.05,1061.27 2051.07,1061.41 2052.08,1061.55 2053.1,737.953 2054.11,738.615 2055.13,739.231 2056.15,739.804 2057.16,740.336 2058.18,929.965 2059.19,930.515 2060.21,931.03 2061.22,931.512 2062.24,931.964 2063.26,846.704 2064.27,846.955 2065.29,847.191 2066.3,847.411 2067.32,847.618 2068.33,921.262 2069.35,921.405 2070.37,921.539 2071.38,921.664 2072.4,921.781 2073.41,726.756 2074.43,727.096 2075.45,727.411 2076.46,727.704 2077.48,727.976 2078.49,737.803 2079.51,737.848 2080.52,737.889 2081.54,737.927 2082.56,737.963 2083.57,980.145 2084.59,980.562 2085.6,980.951 2086.62,981.316 2087.63,981.657 2088.65,600.063 2089.67,600.386 2090.68,600.686 2091.7,600.964 2092.71,601.222 2093.73,698.332 2094.75,698.748 2095.76,699.134 2096.78,699.494 2097.79,699.828 2098.81,741.676 2099.82,742.016 2100.84,742.332 2101.86,742.626 2102.87,742.899 2103.89,1030.26 2104.9,1031.04 2105.92,1031.77 2106.93,1032.46 2107.95,1033.1 2108.97,1048.2 2109.98,1048.32 2111,1048.43 2112.01,1048.54 2113.03,1048.64 2114.05,897.743 2115.06,898.006 2116.08,898.253 2117.09,898.484 2118.11,898.7 2119.12,642.406 2120.14,642.635 2121.16,642.848 2122.17,643.045 2123.19,643.227 2124.2,737.046 2125.22,737.863 2126.23,738.622 2127.25,739.327 2128.27,739.982 2129.28,811.628 2130.3,811.811 2131.31,811.982 2132.33,812.143 2133.35,812.292 2134.36,876.307 2135.38,876.487 2136.39,876.656 2137.41,876.813 2138.42,876.96 2139.44,749.308 2140.46,749.415 2141.47,749.515 2142.49,749.608 2143.5,749.695 2144.52,698.149 2145.53,698.325 2146.55,698.49 2147.57,698.642 2148.58,698.785 2149.6,982.463 2150.61,982.631 2151.63,982.788 2152.65,982.934 2153.66,983.071 2154.68,1185.93 2155.69,1186.3 2156.71,1186.65 2157.72,1186.98 2158.74,1187.28 2159.76,438.434 2160.77,438.96 2161.79,439.448 2162.8,439.9 2163.82,440.319 2164.83,584.909 2165.85,585.235 2166.87,585.537 2167.88,585.817 2168.9,586.075 2169.91,1000.72 2170.93,1001.09 2171.95,1001.43 2172.96,1001.76 2173.98,1002.06 2174.99,413.252 2176.01,413.949 2177.02,414.591 2178.04,415.184 2179.06,415.732 2180.07,759.264 2181.09,759.679 2182.1,760.065 2183.12,760.426 2184.13,760.762 2185.15,1131.07 2186.17,1131.22 2187.18,1131.36 2188.2,1131.5 2189.21,1131.62 2190.23,759.891 2191.25,760.177 2192.26,760.446 2193.28,760.697 2194.29,760.932 2195.31,891.367 2196.32,891.676 2197.34,891.964 2198.36,892.233 2199.37,892.483 2200.39,720.721 2201.4,720.888 2202.42,721.044 2203.43,721.189 2204.45,721.324 2205.47,832.486 2206.48,832.885 2207.5,833.257 2208.51,833.604 2209.53,833.929 2210.55,819.418 2211.56,819.709 2212.58,819.98 2213.59,820.232 2214.61,820.468 2215.62,854.657 2216.64,855.158 2217.66,855.621 2218.67,856.049 2219.69,856.446 2220.7,674.533 2221.72,674.868 2222.73,675.177 2223.75,675.463 2224.77,675.728 2225.78,373.918 2226.8,374.381 2227.81,374.805 2228.83,375.195 2229.85,375.553 2230.86,587.177 2231.88,587.729 2232.89,588.24 2233.91,588.712 2234.92,589.149 2235.94,1081.04 2236.96,1081.23 2237.97,1081.41 2238.99,1081.58 2240,1081.74 2241.02,844.037 2242.03,844.347 2243.05,844.637 2244.07,844.908 2245.08,845.162 2246.1,619.692 2247.11,620.26 2248.13,620.785 2249.15,621.271 2250.16,621.721 2251.18,1078.82 2252.19,1079.2 2253.21,1079.56 2254.22,1079.89 2255.24,1080.21 2256.26,1041.54 2257.27,1041.65 2258.29,1041.76 2259.3,1041.86 2260.32,1041.96 2261.33,1117.88 2262.35,1118.21 2263.37,1118.51 2264.38,1118.8 2265.4,1119.06 2266.41,1210.88 2267.43,1211.07 2268.45,1211.24 2269.46,1211.41 2270.48,1211.56 2271.49,975.938 2272.51,976.222 2273.52,976.488 2274.54,976.736 2275.56,976.967 2276.57,958.16 2277.59,958.629 2278.6,959.068 2279.62,959.479 2280.63,959.863 2281.65,859.133 2282.67,859.636 2283.68,860.105 2284.7,860.543 2285.71,860.951 2286.73,452.168 2287.75,452.302 2288.76,452.425 2289.78,452.54 2290.79,452.647 2291.81,452.746 "/>
<path clip-path="url(#clip710)" d="M271.066 198.898 L538.843 198.898 L538.843 95.2176 L271.066 95.2176  Z" fill="#ffffff" fill-rule="evenodd" fill-opacity="1"/>
<polyline clip-path="url(#clip710)" style="stroke:#000000; stroke-linecap:round; stroke-linejoin:round; stroke-width:4; stroke-opacity:1; fill:none" points="271.066,198.898 538.843,198.898 538.843,95.2176 271.066,95.2176 271.066,198.898 "/>
<polyline clip-path="url(#clip710)" style="stroke:#009af9; stroke-linecap:round; stroke-linejoin:round; stroke-width:4; stroke-opacity:1; fill:none" points="294.993,147.058 438.558,147.058 "/>
<path clip-path="url(#clip710)" d="M476.328 166.745 Q474.522 171.375 472.809 172.787 Q471.096 174.199 468.226 174.199 L464.823 174.199 L464.823 170.634 L467.323 170.634 Q469.083 170.634 470.055 169.8 Q471.027 168.967 472.208 165.865 L472.971 163.921 L462.485 138.412 L466.999 138.412 L475.101 158.689 L483.203 138.412 L487.717 138.412 L476.328 166.745 Z" fill="#000000" fill-rule="nonzero" fill-opacity="1" /><path clip-path="url(#clip710)" d="M495.008 160.402 L502.647 160.402 L502.647 134.037 L494.337 135.703 L494.337 131.444 L502.601 129.778 L507.277 129.778 L507.277 160.402 L514.916 160.402 L514.916 164.338 L495.008 164.338 L495.008 160.402 Z" fill="#000000" fill-rule="nonzero" fill-opacity="1" /></svg>
