<?xml version="1.0" encoding="utf-8"?>
<svg xmlns="http://www.w3.org/2000/svg" xmlns:xlink="http://www.w3.org/1999/xlink" width="600" height="400" viewBox="0 0 2400 1600">
<defs>
  <clipPath id="clip530">
    <rect x="0" y="0" width="2400" height="1600"/>
  </clipPath>
</defs>
<path clip-path="url(#clip530)" d="M0 1600 L2400 1600 L2400 0 L0 0  Z" fill="#ffffff" fill-rule="evenodd" fill-opacity="1"/>
<defs>
  <clipPath id="clip531">
    <rect x="480" y="0" width="1681" height="1600"/>
  </clipPath>
</defs>
<path clip-path="url(#clip530)" d="M199.283 1486.45 L2352.76 1486.45 L2352.76 47.2441 L199.283 47.2441  Z" fill="#ffffff" fill-rule="evenodd" fill-opacity="1"/>
<defs>
  <clipPath id="clip532">
    <rect x="199" y="47" width="2154" height="1440"/>
  </clipPath>
</defs>
<polyline clip-path="url(#clip532)" style="stroke:#000000; stroke-linecap:round; stroke-linejoin:round; stroke-width:2; stroke-opacity:0.1; fill:none" points="260.231,1486.45 260.231,47.2441 "/>
<polyline clip-path="url(#clip532)" style="stroke:#000000; stroke-linecap:round; stroke-linejoin:round; stroke-width:2; stroke-opacity:0.1; fill:none" points="768.125,1486.45 768.125,47.2441 "/>
<polyline clip-path="url(#clip532)" style="stroke:#000000; stroke-linecap:round; stroke-linejoin:round; stroke-width:2; stroke-opacity:0.1; fill:none" points="1276.02,1486.45 1276.02,47.2441 "/>
<polyline clip-path="url(#clip532)" style="stroke:#000000; stroke-linecap:round; stroke-linejoin:round; stroke-width:2; stroke-opacity:0.1; fill:none" points="1783.91,1486.45 1783.91,47.2441 "/>
<polyline clip-path="url(#clip532)" style="stroke:#000000; stroke-linecap:round; stroke-linejoin:round; stroke-width:2; stroke-opacity:0.1; fill:none" points="2291.81,1486.45 2291.81,47.2441 "/>
<polyline clip-path="url(#clip530)" style="stroke:#000000; stroke-linecap:round; stroke-linejoin:round; stroke-width:4; stroke-opacity:1; fill:none" points="199.283,1486.45 2352.76,1486.45 "/>
<polyline clip-path="url(#clip530)" style="stroke:#000000; stroke-linecap:round; stroke-linejoin:round; stroke-width:4; stroke-opacity:1; fill:none" points="260.231,1486.45 260.231,1467.55 "/>
<polyline clip-path="url(#clip530)" style="stroke:#000000; stroke-linecap:round; stroke-linejoin:round; stroke-width:4; stroke-opacity:1; fill:none" points="768.125,1486.45 768.125,1467.55 "/>
<polyline clip-path="url(#clip530)" style="stroke:#000000; stroke-linecap:round; stroke-linejoin:round; stroke-width:4; stroke-opacity:1; fill:none" points="1276.02,1486.45 1276.02,1467.55 "/>
<polyline clip-path="url(#clip530)" style="stroke:#000000; stroke-linecap:round; stroke-linejoin:round; stroke-width:4; stroke-opacity:1; fill:none" points="1783.91,1486.45 1783.91,1467.55 "/>
<polyline clip-path="url(#clip530)" style="stroke:#000000; stroke-linecap:round; stroke-linejoin:round; stroke-width:4; stroke-opacity:1; fill:none" points="2291.81,1486.45 2291.81,1467.55 "/>
<path clip-path="url(#clip530)" d="M260.231 1517.37 Q256.619 1517.37 254.791 1520.93 Q252.985 1524.47 252.985 1531.6 Q252.985 1538.71 254.791 1542.27 Q256.619 1545.82 260.231 1545.82 Q263.865 1545.82 265.67 1542.27 Q267.499 1538.71 267.499 1531.6 Q267.499 1524.47 265.67 1520.93 Q263.865 1517.37 260.231 1517.37 M260.231 1513.66 Q266.041 1513.66 269.096 1518.27 Q272.175 1522.85 272.175 1531.6 Q272.175 1540.33 269.096 1544.94 Q266.041 1549.52 260.231 1549.52 Q254.42 1549.52 251.342 1544.94 Q248.286 1540.33 248.286 1531.6 Q248.286 1522.85 251.342 1518.27 Q254.42 1513.66 260.231 1513.66 Z" fill="#000000" fill-rule="nonzero" fill-opacity="1" /><path clip-path="url(#clip530)" d="M727.743 1514.29 L746.1 1514.29 L746.1 1518.22 L732.026 1518.22 L732.026 1526.7 Q733.044 1526.35 734.063 1526.19 Q735.081 1526 736.1 1526 Q741.887 1526 745.266 1529.17 Q748.646 1532.34 748.646 1537.76 Q748.646 1543.34 745.174 1546.44 Q741.702 1549.52 735.382 1549.52 Q733.206 1549.52 730.938 1549.15 Q728.692 1548.78 726.285 1548.04 L726.285 1543.34 Q728.368 1544.47 730.591 1545.03 Q732.813 1545.58 735.29 1545.58 Q739.294 1545.58 741.632 1543.48 Q743.97 1541.37 743.97 1537.76 Q743.97 1534.15 741.632 1532.04 Q739.294 1529.94 735.29 1529.94 Q733.415 1529.94 731.54 1530.35 Q729.688 1530.77 727.743 1531.65 L727.743 1514.29 Z" fill="#000000" fill-rule="nonzero" fill-opacity="1" /><path clip-path="url(#clip530)" d="M767.859 1517.37 Q764.248 1517.37 762.419 1520.93 Q760.614 1524.47 760.614 1531.6 Q760.614 1538.71 762.419 1542.27 Q764.248 1545.82 767.859 1545.82 Q771.493 1545.82 773.299 1542.27 Q775.127 1538.71 775.127 1531.6 Q775.127 1524.47 773.299 1520.93 Q771.493 1517.37 767.859 1517.37 M767.859 1513.66 Q773.669 1513.66 776.725 1518.27 Q779.803 1522.85 779.803 1531.6 Q779.803 1540.33 776.725 1544.94 Q773.669 1549.52 767.859 1549.52 Q762.049 1549.52 758.97 1544.94 Q755.914 1540.33 755.914 1531.6 Q755.914 1522.85 758.97 1518.27 Q762.049 1513.66 767.859 1513.66 Z" fill="#000000" fill-rule="nonzero" fill-opacity="1" /><path clip-path="url(#clip530)" d="M798.021 1517.37 Q794.41 1517.37 792.581 1520.93 Q790.775 1524.47 790.775 1531.6 Q790.775 1538.71 792.581 1542.27 Q794.41 1545.82 798.021 1545.82 Q801.655 1545.82 803.46 1542.27 Q805.289 1538.71 805.289 1531.6 Q805.289 1524.47 803.46 1520.93 Q801.655 1517.37 798.021 1517.37 M798.021 1513.66 Q803.831 1513.66 806.886 1518.27 Q809.965 1522.85 809.965 1531.6 Q809.965 1540.33 806.886 1544.94 Q803.831 1549.52 798.021 1549.52 Q792.211 1549.52 789.132 1544.94 Q786.076 1540.33 786.076 1531.6 Q786.076 1522.85 789.132 1518.27 Q792.211 1513.66 798.021 1513.66 Z" fill="#000000" fill-rule="nonzero" fill-opacity="1" /><path clip-path="url(#clip530)" d="M1220.55 1544.91 L1228.18 1544.91 L1228.18 1518.55 L1219.87 1520.21 L1219.87 1515.95 L1228.14 1514.29 L1232.81 1514.29 L1232.81 1544.91 L1240.45 1544.91 L1240.45 1548.85 L1220.55 1548.85 L1220.55 1544.91 Z" fill="#000000" fill-rule="nonzero" fill-opacity="1" /><path clip-path="url(#clip530)" d="M1259.9 1517.37 Q1256.29 1517.37 1254.46 1520.93 Q1252.65 1524.47 1252.65 1531.6 Q1252.65 1538.71 1254.46 1542.27 Q1256.29 1545.82 1259.9 1545.82 Q1263.53 1545.82 1265.34 1542.27 Q1267.17 1538.71 1267.17 1531.6 Q1267.17 1524.47 1265.34 1520.93 Q1263.53 1517.37 1259.9 1517.37 M1259.9 1513.66 Q1265.71 1513.66 1268.76 1518.27 Q1271.84 1522.85 1271.84 1531.6 Q1271.84 1540.33 1268.76 1544.94 Q1265.71 1549.52 1259.9 1549.52 Q1254.09 1549.52 1251.01 1544.94 Q1247.95 1540.33 1247.95 1531.6 Q1247.95 1522.85 1251.01 1518.27 Q1254.09 1513.66 1259.9 1513.66 Z" fill="#000000" fill-rule="nonzero" fill-opacity="1" /><path clip-path="url(#clip530)" d="M1290.06 1517.37 Q1286.45 1517.37 1284.62 1520.93 Q1282.81 1524.47 1282.81 1531.6 Q1282.81 1538.71 1284.62 1542.27 Q1286.45 1545.82 1290.06 1545.82 Q1293.69 1545.82 1295.5 1542.27 Q1297.33 1538.71 1297.33 1531.6 Q1297.33 1524.47 1295.5 1520.93 Q1293.69 1517.37 1290.06 1517.37 M1290.06 1513.66 Q1295.87 1513.66 1298.92 1518.27 Q1302 1522.85 1302 1531.6 Q1302 1540.33 1298.92 1544.94 Q1295.87 1549.52 1290.06 1549.52 Q1284.25 1549.52 1281.17 1544.94 Q1278.11 1540.33 1278.11 1531.6 Q1278.11 1522.85 1281.17 1518.27 Q1284.25 1513.66 1290.06 1513.66 Z" fill="#000000" fill-rule="nonzero" fill-opacity="1" /><path clip-path="url(#clip530)" d="M1320.22 1517.37 Q1316.61 1517.37 1314.78 1520.93 Q1312.98 1524.47 1312.98 1531.6 Q1312.98 1538.71 1314.78 1542.27 Q1316.61 1545.82 1320.22 1545.82 Q1323.85 1545.82 1325.66 1542.27 Q1327.49 1538.71 1327.49 1531.6 Q1327.49 1524.47 1325.66 1520.93 Q1323.85 1517.37 1320.22 1517.37 M1320.22 1513.66 Q1326.03 1513.66 1329.09 1518.27 Q1332.17 1522.85 1332.17 1531.6 Q1332.17 1540.33 1329.09 1544.94 Q1326.03 1549.52 1320.22 1549.52 Q1314.41 1549.52 1311.33 1544.94 Q1308.28 1540.33 1308.28 1531.6 Q1308.28 1522.85 1311.33 1518.27 Q1314.41 1513.66 1320.22 1513.66 Z" fill="#000000" fill-rule="nonzero" fill-opacity="1" /><path clip-path="url(#clip530)" d="M1728.44 1544.91 L1736.08 1544.91 L1736.08 1518.55 L1727.77 1520.21 L1727.77 1515.95 L1736.03 1514.29 L1740.71 1514.29 L1740.71 1544.91 L1748.35 1544.91 L1748.35 1548.85 L1728.44 1548.85 L1728.44 1544.91 Z" fill="#000000" fill-rule="nonzero" fill-opacity="1" /><path clip-path="url(#clip530)" d="M1757.84 1514.29 L1776.19 1514.29 L1776.19 1518.22 L1762.12 1518.22 L1762.12 1526.7 Q1763.14 1526.35 1764.16 1526.19 Q1765.18 1526 1766.19 1526 Q1771.98 1526 1775.36 1529.17 Q1778.74 1532.34 1778.74 1537.76 Q1778.74 1543.34 1775.27 1546.44 Q1771.8 1549.52 1765.48 1549.52 Q1763.3 1549.52 1761.03 1549.15 Q1758.79 1548.78 1756.38 1548.04 L1756.38 1543.34 Q1758.46 1544.47 1760.69 1545.03 Q1762.91 1545.58 1765.38 1545.58 Q1769.39 1545.58 1771.73 1543.48 Q1774.06 1541.37 1774.06 1537.76 Q1774.06 1534.15 1771.73 1532.04 Q1769.39 1529.94 1765.38 1529.94 Q1763.51 1529.94 1761.63 1530.35 Q1759.78 1530.77 1757.84 1531.65 L1757.84 1514.29 Z" fill="#000000" fill-rule="nonzero" fill-opacity="1" /><path clip-path="url(#clip530)" d="M1797.95 1517.37 Q1794.34 1517.37 1792.51 1520.93 Q1790.71 1524.47 1790.71 1531.6 Q1790.71 1538.71 1792.51 1542.27 Q1794.34 1545.82 1797.95 1545.82 Q1801.59 1545.82 1803.39 1542.27 Q1805.22 1538.71 1805.22 1531.6 Q1805.22 1524.47 1803.39 1520.93 Q1801.59 1517.37 1797.95 1517.37 M1797.95 1513.66 Q1803.76 1513.66 1806.82 1518.27 Q1809.9 1522.85 1809.9 1531.6 Q1809.9 1540.33 1806.82 1544.94 Q1803.76 1549.52 1797.95 1549.52 Q1792.14 1549.52 1789.06 1544.94 Q1786.01 1540.33 1786.01 1531.6 Q1786.01 1522.85 1789.06 1518.27 Q1792.14 1513.66 1797.95 1513.66 Z" fill="#000000" fill-rule="nonzero" fill-opacity="1" /><path clip-path="url(#clip530)" d="M1828.12 1517.37 Q1824.5 1517.37 1822.68 1520.93 Q1820.87 1524.47 1820.87 1531.6 Q1820.87 1538.71 1822.68 1542.27 Q1824.5 1545.82 1828.12 1545.82 Q1831.75 1545.82 1833.55 1542.27 Q1835.38 1538.71 1835.38 1531.6 Q1835.38 1524.47 1833.55 1520.93 Q1831.75 1517.37 1828.12 1517.37 M1828.12 1513.66 Q1833.93 1513.66 1836.98 1518.27 Q1840.06 1522.85 1840.06 1531.6 Q1840.06 1540.33 1836.98 1544.94 Q1833.93 1549.52 1828.12 1549.52 Q1822.31 1549.52 1819.23 1544.94 Q1816.17 1540.33 1816.17 1531.6 Q1816.17 1522.85 1819.23 1518.27 Q1822.31 1513.66 1828.12 1513.66 Z" fill="#000000" fill-rule="nonzero" fill-opacity="1" /><path clip-path="url(#clip530)" d="M2240.42 1544.91 L2256.74 1544.91 L2256.74 1548.85 L2234.79 1548.85 L2234.79 1544.91 Q2237.46 1542.16 2242.04 1537.53 Q2246.65 1532.88 2247.83 1531.53 Q2250.07 1529.01 2250.95 1527.27 Q2251.86 1525.51 2251.86 1523.82 Q2251.86 1521.07 2249.91 1519.33 Q2247.99 1517.6 2244.89 1517.6 Q2242.69 1517.6 2240.23 1518.36 Q2237.8 1519.13 2235.03 1520.68 L2235.03 1515.95 Q2237.85 1514.82 2240.3 1514.24 Q2242.76 1513.66 2244.79 1513.66 Q2250.17 1513.66 2253.36 1516.35 Q2256.55 1519.03 2256.55 1523.52 Q2256.55 1525.65 2255.74 1527.57 Q2254.96 1529.47 2252.85 1532.07 Q2252.27 1532.74 2249.17 1535.95 Q2246.07 1539.15 2240.42 1544.91 Z" fill="#000000" fill-rule="nonzero" fill-opacity="1" /><path clip-path="url(#clip530)" d="M2276.55 1517.37 Q2272.94 1517.37 2271.11 1520.93 Q2269.31 1524.47 2269.31 1531.6 Q2269.31 1538.71 2271.11 1542.27 Q2272.94 1545.82 2276.55 1545.82 Q2280.19 1545.82 2281.99 1542.27 Q2283.82 1538.71 2283.82 1531.6 Q2283.82 1524.47 2281.99 1520.93 Q2280.19 1517.37 2276.55 1517.37 M2276.55 1513.66 Q2282.36 1513.66 2285.42 1518.27 Q2288.5 1522.85 2288.5 1531.6 Q2288.5 1540.33 2285.42 1544.94 Q2282.36 1549.52 2276.55 1549.52 Q2270.74 1549.52 2267.67 1544.94 Q2264.61 1540.33 2264.61 1531.6 Q2264.61 1522.85 2267.67 1518.27 Q2270.74 1513.66 2276.55 1513.66 Z" fill="#000000" fill-rule="nonzero" fill-opacity="1" /><path clip-path="url(#clip530)" d="M2306.72 1517.37 Q2303.1 1517.37 2301.28 1520.93 Q2299.47 1524.47 2299.47 1531.6 Q2299.47 1538.71 2301.28 1542.27 Q2303.1 1545.82 2306.72 1545.82 Q2310.35 1545.82 2312.16 1542.27 Q2313.98 1538.71 2313.98 1531.6 Q2313.98 1524.47 2312.16 1520.93 Q2310.35 1517.37 2306.72 1517.37 M2306.72 1513.66 Q2312.53 1513.66 2315.58 1518.27 Q2318.66 1522.85 2318.66 1531.6 Q2318.66 1540.33 2315.58 1544.94 Q2312.53 1549.52 2306.72 1549.52 Q2300.91 1549.52 2297.83 1544.94 Q2294.77 1540.33 2294.77 1531.6 Q2294.77 1522.85 2297.83 1518.27 Q2300.91 1513.66 2306.72 1513.66 Z" fill="#000000" fill-rule="nonzero" fill-opacity="1" /><path clip-path="url(#clip530)" d="M2336.88 1517.37 Q2333.27 1517.37 2331.44 1520.93 Q2329.63 1524.47 2329.63 1531.6 Q2329.63 1538.71 2331.44 1542.27 Q2333.27 1545.82 2336.88 1545.82 Q2340.51 1545.82 2342.32 1542.27 Q2344.15 1538.71 2344.15 1531.6 Q2344.15 1524.47 2342.32 1520.93 Q2340.51 1517.37 2336.88 1517.37 M2336.88 1513.66 Q2342.69 1513.66 2345.74 1518.27 Q2348.82 1522.85 2348.82 1531.6 Q2348.82 1540.33 2345.74 1544.94 Q2342.69 1549.52 2336.88 1549.52 Q2331.07 1549.52 2327.99 1544.94 Q2324.93 1540.33 2324.93 1531.6 Q2324.93 1522.85 2327.99 1518.27 Q2331.07 1513.66 2336.88 1513.66 Z" fill="#000000" fill-rule="nonzero" fill-opacity="1" /><polyline clip-path="url(#clip532)" style="stroke:#000000; stroke-linecap:round; stroke-linejoin:round; stroke-width:2; stroke-opacity:0.1; fill:none" points="199.283,1311.52 2352.76,1311.52 "/>
<polyline clip-path="url(#clip532)" style="stroke:#000000; stroke-linecap:round; stroke-linejoin:round; stroke-width:2; stroke-opacity:0.1; fill:none" points="199.283,1098.29 2352.76,1098.29 "/>
<polyline clip-path="url(#clip532)" style="stroke:#000000; stroke-linecap:round; stroke-linejoin:round; stroke-width:2; stroke-opacity:0.1; fill:none" points="199.283,885.053 2352.76,885.053 "/>
<polyline clip-path="url(#clip532)" style="stroke:#000000; stroke-linecap:round; stroke-linejoin:round; stroke-width:2; stroke-opacity:0.1; fill:none" points="199.283,671.819 2352.76,671.819 "/>
<polyline clip-path="url(#clip532)" style="stroke:#000000; stroke-linecap:round; stroke-linejoin:round; stroke-width:2; stroke-opacity:0.1; fill:none" points="199.283,458.585 2352.76,458.585 "/>
<polyline clip-path="url(#clip532)" style="stroke:#000000; stroke-linecap:round; stroke-linejoin:round; stroke-width:2; stroke-opacity:0.1; fill:none" points="199.283,245.351 2352.76,245.351 "/>
<polyline clip-path="url(#clip530)" style="stroke:#000000; stroke-linecap:round; stroke-linejoin:round; stroke-width:4; stroke-opacity:1; fill:none" points="199.283,1486.45 199.283,47.2441 "/>
<polyline clip-path="url(#clip530)" style="stroke:#000000; stroke-linecap:round; stroke-linejoin:round; stroke-width:4; stroke-opacity:1; fill:none" points="199.283,1311.52 218.181,1311.52 "/>
<polyline clip-path="url(#clip530)" style="stroke:#000000; stroke-linecap:round; stroke-linejoin:round; stroke-width:4; stroke-opacity:1; fill:none" points="199.283,1098.29 218.181,1098.29 "/>
<polyline clip-path="url(#clip530)" style="stroke:#000000; stroke-linecap:round; stroke-linejoin:round; stroke-width:4; stroke-opacity:1; fill:none" points="199.283,885.053 218.181,885.053 "/>
<polyline clip-path="url(#clip530)" style="stroke:#000000; stroke-linecap:round; stroke-linejoin:round; stroke-width:4; stroke-opacity:1; fill:none" points="199.283,671.819 218.181,671.819 "/>
<polyline clip-path="url(#clip530)" style="stroke:#000000; stroke-linecap:round; stroke-linejoin:round; stroke-width:4; stroke-opacity:1; fill:none" points="199.283,458.585 218.181,458.585 "/>
<polyline clip-path="url(#clip530)" style="stroke:#000000; stroke-linecap:round; stroke-linejoin:round; stroke-width:4; stroke-opacity:1; fill:none" points="199.283,245.351 218.181,245.351 "/>
<path clip-path="url(#clip530)" d="M51.6634 1324.87 L59.3023 1324.87 L59.3023 1298.5 L50.9921 1300.17 L50.9921 1295.91 L59.256 1294.24 L63.9319 1294.24 L63.9319 1324.87 L71.5707 1324.87 L71.5707 1328.8 L51.6634 1328.8 L51.6634 1324.87 Z" fill="#000000" fill-rule="nonzero" fill-opacity="1" /><path clip-path="url(#clip530)" d="M95.1817 1310.17 Q98.5382 1310.88 100.413 1313.15 Q102.311 1315.42 102.311 1318.76 Q102.311 1323.87 98.7928 1326.67 Q95.2743 1329.47 88.7928 1329.47 Q86.6169 1329.47 84.3021 1329.03 Q82.0105 1328.62 79.5568 1327.76 L79.5568 1323.25 Q81.5012 1324.38 83.816 1324.96 Q86.1308 1325.54 88.654 1325.54 Q93.0521 1325.54 95.3437 1323.8 Q97.6585 1322.07 97.6585 1318.76 Q97.6585 1315.7 95.5058 1313.99 Q93.3762 1312.25 89.5567 1312.25 L85.529 1312.25 L85.529 1308.41 L89.7419 1308.41 Q93.191 1308.41 95.0197 1307.04 Q96.8484 1305.65 96.8484 1303.06 Q96.8484 1300.4 94.9502 1298.99 Q93.0752 1297.55 89.5567 1297.55 Q87.6354 1297.55 85.4364 1297.97 Q83.2373 1298.38 80.5984 1299.26 L80.5984 1295.1 Q83.2605 1294.36 85.5753 1293.99 Q87.9132 1293.62 89.9734 1293.62 Q95.2974 1293.62 98.3993 1296.05 Q101.501 1298.45 101.501 1302.57 Q101.501 1305.45 99.8576 1307.44 Q98.2141 1309.4 95.1817 1310.17 Z" fill="#000000" fill-rule="nonzero" fill-opacity="1" /><path clip-path="url(#clip530)" d="M121.177 1297.32 Q117.566 1297.32 115.737 1300.88 Q113.932 1304.43 113.932 1311.56 Q113.932 1318.66 115.737 1322.23 Q117.566 1325.77 121.177 1325.77 Q124.811 1325.77 126.617 1322.23 Q128.445 1318.66 128.445 1311.56 Q128.445 1304.43 126.617 1300.88 Q124.811 1297.32 121.177 1297.32 M121.177 1293.62 Q126.987 1293.62 130.043 1298.22 Q133.121 1302.81 133.121 1311.56 Q133.121 1320.28 130.043 1324.89 Q126.987 1329.47 121.177 1329.47 Q115.367 1329.47 112.288 1324.89 Q109.233 1320.28 109.233 1311.56 Q109.233 1302.81 112.288 1298.22 Q115.367 1293.62 121.177 1293.62 Z" fill="#000000" fill-rule="nonzero" fill-opacity="1" /><path clip-path="url(#clip530)" d="M151.339 1297.32 Q147.728 1297.32 145.899 1300.88 Q144.093 1304.43 144.093 1311.56 Q144.093 1318.66 145.899 1322.23 Q147.728 1325.77 151.339 1325.77 Q154.973 1325.77 156.779 1322.23 Q158.607 1318.66 158.607 1311.56 Q158.607 1304.43 156.779 1300.88 Q154.973 1297.32 151.339 1297.32 M151.339 1293.62 Q157.149 1293.62 160.205 1298.22 Q163.283 1302.81 163.283 1311.56 Q163.283 1320.28 160.205 1324.89 Q157.149 1329.47 151.339 1329.47 Q145.529 1329.47 142.45 1324.89 Q139.394 1320.28 139.394 1311.56 Q139.394 1302.81 142.45 1298.22 Q145.529 1293.62 151.339 1293.62 Z" fill="#000000" fill-rule="nonzero" fill-opacity="1" /><path clip-path="url(#clip530)" d="M51.6634 1111.63 L59.3023 1111.63 L59.3023 1085.27 L50.9921 1086.93 L50.9921 1082.67 L59.256 1081.01 L63.9319 1081.01 L63.9319 1111.63 L71.5707 1111.63 L71.5707 1115.57 L51.6634 1115.57 L51.6634 1111.63 Z" fill="#000000" fill-rule="nonzero" fill-opacity="1" /><path clip-path="url(#clip530)" d="M93.8623 1085.08 L82.0568 1103.53 L93.8623 1103.53 L93.8623 1085.08 M92.6354 1081.01 L98.515 1081.01 L98.515 1103.53 L103.446 1103.53 L103.446 1107.42 L98.515 1107.42 L98.515 1115.57 L93.8623 1115.57 L93.8623 1107.42 L78.2605 1107.42 L78.2605 1102.91 L92.6354 1081.01 Z" fill="#000000" fill-rule="nonzero" fill-opacity="1" /><path clip-path="url(#clip530)" d="M121.177 1084.09 Q117.566 1084.09 115.737 1087.65 Q113.932 1091.19 113.932 1098.32 Q113.932 1105.43 115.737 1108.99 Q117.566 1112.53 121.177 1112.53 Q124.811 1112.53 126.617 1108.99 Q128.445 1105.43 128.445 1098.32 Q128.445 1091.19 126.617 1087.65 Q124.811 1084.09 121.177 1084.09 M121.177 1080.38 Q126.987 1080.38 130.043 1084.99 Q133.121 1089.57 133.121 1098.32 Q133.121 1107.05 130.043 1111.66 Q126.987 1116.24 121.177 1116.24 Q115.367 1116.24 112.288 1111.66 Q109.233 1107.05 109.233 1098.32 Q109.233 1089.57 112.288 1084.99 Q115.367 1080.38 121.177 1080.38 Z" fill="#000000" fill-rule="nonzero" fill-opacity="1" /><path clip-path="url(#clip530)" d="M151.339 1084.09 Q147.728 1084.09 145.899 1087.65 Q144.093 1091.19 144.093 1098.32 Q144.093 1105.43 145.899 1108.99 Q147.728 1112.53 151.339 1112.53 Q154.973 1112.53 156.779 1108.99 Q158.607 1105.43 158.607 1098.32 Q158.607 1091.19 156.779 1087.65 Q154.973 1084.09 151.339 1084.09 M151.339 1080.38 Q157.149 1080.38 160.205 1084.99 Q163.283 1089.57 163.283 1098.32 Q163.283 1107.05 160.205 1111.66 Q157.149 1116.24 151.339 1116.24 Q145.529 1116.24 142.45 1111.66 Q139.394 1107.05 139.394 1098.32 Q139.394 1089.57 142.45 1084.99 Q145.529 1080.38 151.339 1080.38 Z" fill="#000000" fill-rule="nonzero" fill-opacity="1" /><path clip-path="url(#clip530)" d="M51.6634 898.398 L59.3023 898.398 L59.3023 872.032 L50.9921 873.699 L50.9921 869.44 L59.256 867.773 L63.9319 867.773 L63.9319 898.398 L71.5707 898.398 L71.5707 902.333 L51.6634 902.333 L51.6634 898.398 Z" fill="#000000" fill-rule="nonzero" fill-opacity="1" /><path clip-path="url(#clip530)" d="M81.0614 867.773 L99.4178 867.773 L99.4178 871.708 L85.3438 871.708 L85.3438 880.181 Q86.3623 879.833 87.3808 879.671 Q88.3993 879.486 89.4178 879.486 Q95.2049 879.486 98.5845 882.657 Q101.964 885.829 101.964 891.245 Q101.964 896.824 98.4919 899.926 Q95.0197 903.005 88.7003 903.005 Q86.5243 903.005 84.2558 902.634 Q82.0105 902.264 79.6031 901.523 L79.6031 896.824 Q81.6864 897.958 83.9086 898.514 Q86.1308 899.069 88.6077 899.069 Q92.6123 899.069 94.9502 896.963 Q97.2882 894.856 97.2882 891.245 Q97.2882 887.634 94.9502 885.528 Q92.6123 883.421 88.6077 883.421 Q86.7327 883.421 84.8577 883.838 Q83.0058 884.255 81.0614 885.134 L81.0614 867.773 Z" fill="#000000" fill-rule="nonzero" fill-opacity="1" /><path clip-path="url(#clip530)" d="M121.177 870.852 Q117.566 870.852 115.737 874.417 Q113.932 877.958 113.932 885.088 Q113.932 892.194 115.737 895.759 Q117.566 899.301 121.177 899.301 Q124.811 899.301 126.617 895.759 Q128.445 892.194 128.445 885.088 Q128.445 877.958 126.617 874.417 Q124.811 870.852 121.177 870.852 M121.177 867.148 Q126.987 867.148 130.043 871.755 Q133.121 876.338 133.121 885.088 Q133.121 893.815 130.043 898.421 Q126.987 903.005 121.177 903.005 Q115.367 903.005 112.288 898.421 Q109.233 893.815 109.233 885.088 Q109.233 876.338 112.288 871.755 Q115.367 867.148 121.177 867.148 Z" fill="#000000" fill-rule="nonzero" fill-opacity="1" /><path clip-path="url(#clip530)" d="M151.339 870.852 Q147.728 870.852 145.899 874.417 Q144.093 877.958 144.093 885.088 Q144.093 892.194 145.899 895.759 Q147.728 899.301 151.339 899.301 Q154.973 899.301 156.779 895.759 Q158.607 892.194 158.607 885.088 Q158.607 877.958 156.779 874.417 Q154.973 870.852 151.339 870.852 M151.339 867.148 Q157.149 867.148 160.205 871.755 Q163.283 876.338 163.283 885.088 Q163.283 893.815 160.205 898.421 Q157.149 903.005 151.339 903.005 Q145.529 903.005 142.45 898.421 Q139.394 893.815 139.394 885.088 Q139.394 876.338 142.45 871.755 Q145.529 867.148 151.339 867.148 Z" fill="#000000" fill-rule="nonzero" fill-opacity="1" /><path clip-path="url(#clip530)" d="M51.6634 685.164 L59.3023 685.164 L59.3023 658.798 L50.9921 660.465 L50.9921 656.206 L59.256 654.539 L63.9319 654.539 L63.9319 685.164 L71.5707 685.164 L71.5707 689.099 L51.6634 689.099 L51.6634 685.164 Z" fill="#000000" fill-rule="nonzero" fill-opacity="1" /><path clip-path="url(#clip530)" d="M91.5938 669.956 Q88.4456 669.956 86.5938 672.109 Q84.7651 674.261 84.7651 678.011 Q84.7651 681.738 86.5938 683.914 Q88.4456 686.067 91.5938 686.067 Q94.7419 686.067 96.5706 683.914 Q98.4224 681.738 98.4224 678.011 Q98.4224 674.261 96.5706 672.109 Q94.7419 669.956 91.5938 669.956 M100.876 655.303 L100.876 659.562 Q99.1169 658.729 97.3113 658.289 Q95.5289 657.849 93.7697 657.849 Q89.1401 657.849 86.6864 660.974 Q84.2558 664.099 83.9086 670.419 Q85.2743 668.405 87.3345 667.34 Q89.3947 666.252 91.8715 666.252 Q97.0798 666.252 100.089 669.423 Q103.121 672.571 103.121 678.011 Q103.121 683.335 99.9733 686.553 Q96.8252 689.77 91.5938 689.77 Q85.5984 689.77 82.4271 685.187 Q79.2559 680.581 79.2559 671.854 Q79.2559 663.659 83.1447 658.798 Q87.0336 653.914 93.5845 653.914 Q95.3437 653.914 97.1261 654.261 Q98.9317 654.609 100.876 655.303 Z" fill="#000000" fill-rule="nonzero" fill-opacity="1" /><path clip-path="url(#clip530)" d="M121.177 657.618 Q117.566 657.618 115.737 661.183 Q113.932 664.724 113.932 671.854 Q113.932 678.96 115.737 682.525 Q117.566 686.067 121.177 686.067 Q124.811 686.067 126.617 682.525 Q128.445 678.96 128.445 671.854 Q128.445 664.724 126.617 661.183 Q124.811 657.618 121.177 657.618 M121.177 653.914 Q126.987 653.914 130.043 658.521 Q133.121 663.104 133.121 671.854 Q133.121 680.581 130.043 685.187 Q126.987 689.77 121.177 689.77 Q115.367 689.77 112.288 685.187 Q109.233 680.581 109.233 671.854 Q109.233 663.104 112.288 658.521 Q115.367 653.914 121.177 653.914 Z" fill="#000000" fill-rule="nonzero" fill-opacity="1" /><path clip-path="url(#clip530)" d="M151.339 657.618 Q147.728 657.618 145.899 661.183 Q144.093 664.724 144.093 671.854 Q144.093 678.96 145.899 682.525 Q147.728 686.067 151.339 686.067 Q154.973 686.067 156.779 682.525 Q158.607 678.96 158.607 671.854 Q158.607 664.724 156.779 661.183 Q154.973 657.618 151.339 657.618 M151.339 653.914 Q157.149 653.914 160.205 658.521 Q163.283 663.104 163.283 671.854 Q163.283 680.581 160.205 685.187 Q157.149 689.77 151.339 689.77 Q145.529 689.77 142.45 685.187 Q139.394 680.581 139.394 671.854 Q139.394 663.104 142.45 658.521 Q145.529 653.914 151.339 653.914 Z" fill="#000000" fill-rule="nonzero" fill-opacity="1" /><path clip-path="url(#clip530)" d="M51.6634 471.93 L59.3023 471.93 L59.3023 445.564 L50.9921 447.231 L50.9921 442.972 L59.256 441.305 L63.9319 441.305 L63.9319 471.93 L71.5707 471.93 L71.5707 475.865 L51.6634 475.865 L51.6634 471.93 Z" fill="#000000" fill-rule="nonzero" fill-opacity="1" /><path clip-path="url(#clip530)" d="M79.8346 441.305 L102.057 441.305 L102.057 443.296 L89.5104 475.865 L84.6262 475.865 L96.4317 445.24 L79.8346 445.24 L79.8346 441.305 Z" fill="#000000" fill-rule="nonzero" fill-opacity="1" /><path clip-path="url(#clip530)" d="M121.177 444.384 Q117.566 444.384 115.737 447.949 Q113.932 451.49 113.932 458.62 Q113.932 465.726 115.737 469.291 Q117.566 472.833 121.177 472.833 Q124.811 472.833 126.617 469.291 Q128.445 465.726 128.445 458.62 Q128.445 451.49 126.617 447.949 Q124.811 444.384 121.177 444.384 M121.177 440.68 Q126.987 440.68 130.043 445.287 Q133.121 449.87 133.121 458.62 Q133.121 467.347 130.043 471.953 Q126.987 476.536 121.177 476.536 Q115.367 476.536 112.288 471.953 Q109.233 467.347 109.233 458.62 Q109.233 449.87 112.288 445.287 Q115.367 440.68 121.177 440.68 Z" fill="#000000" fill-rule="nonzero" fill-opacity="1" /><path clip-path="url(#clip530)" d="M151.339 444.384 Q147.728 444.384 145.899 447.949 Q144.093 451.49 144.093 458.62 Q144.093 465.726 145.899 469.291 Q147.728 472.833 151.339 472.833 Q154.973 472.833 156.779 469.291 Q158.607 465.726 158.607 458.62 Q158.607 451.49 156.779 447.949 Q154.973 444.384 151.339 444.384 M151.339 440.68 Q157.149 440.68 160.205 445.287 Q163.283 449.87 163.283 458.62 Q163.283 467.347 160.205 471.953 Q157.149 476.536 151.339 476.536 Q145.529 476.536 142.45 471.953 Q139.394 467.347 139.394 458.62 Q139.394 449.87 142.45 445.287 Q145.529 440.68 151.339 440.68 Z" fill="#000000" fill-rule="nonzero" fill-opacity="1" /><path clip-path="url(#clip530)" d="M51.6634 258.696 L59.3023 258.696 L59.3023 232.33 L50.9921 233.997 L50.9921 229.738 L59.256 228.071 L63.9319 228.071 L63.9319 258.696 L71.5707 258.696 L71.5707 262.631 L51.6634 262.631 L51.6634 258.696 Z" fill="#000000" fill-rule="nonzero" fill-opacity="1" /><path clip-path="url(#clip530)" d="M91.0151 246.219 Q87.6817 246.219 85.7605 248.001 Q83.8623 249.784 83.8623 252.909 Q83.8623 256.034 85.7605 257.816 Q87.6817 259.599 91.0151 259.599 Q94.3484 259.599 96.2697 257.816 Q98.1909 256.011 98.1909 252.909 Q98.1909 249.784 96.2697 248.001 Q94.3715 246.219 91.0151 246.219 M86.3392 244.228 Q83.3299 243.488 81.6401 241.427 Q79.9735 239.367 79.9735 236.404 Q79.9735 232.261 82.9133 229.853 Q85.8762 227.446 91.0151 227.446 Q96.1771 227.446 99.1169 229.853 Q102.057 232.261 102.057 236.404 Q102.057 239.367 100.367 241.427 Q98.7002 243.488 95.7141 244.228 Q99.0937 245.015 100.969 247.307 Q102.867 249.599 102.867 252.909 Q102.867 257.932 99.7882 260.617 Q96.7326 263.302 91.0151 263.302 Q85.2975 263.302 82.2188 260.617 Q79.1633 257.932 79.1633 252.909 Q79.1633 249.599 81.0614 247.307 Q82.9595 245.015 86.3392 244.228 M84.6262 236.844 Q84.6262 239.529 86.2929 241.034 Q87.9827 242.538 91.0151 242.538 Q94.0243 242.538 95.7141 241.034 Q97.4271 239.529 97.4271 236.844 Q97.4271 234.159 95.7141 232.654 Q94.0243 231.15 91.0151 231.15 Q87.9827 231.15 86.2929 232.654 Q84.6262 234.159 84.6262 236.844 Z" fill="#000000" fill-rule="nonzero" fill-opacity="1" /><path clip-path="url(#clip530)" d="M121.177 231.15 Q117.566 231.15 115.737 234.714 Q113.932 238.256 113.932 245.386 Q113.932 252.492 115.737 256.057 Q117.566 259.599 121.177 259.599 Q124.811 259.599 126.617 256.057 Q128.445 252.492 128.445 245.386 Q128.445 238.256 126.617 234.714 Q124.811 231.15 121.177 231.15 M121.177 227.446 Q126.987 227.446 130.043 232.052 Q133.121 236.636 133.121 245.386 Q133.121 254.112 130.043 258.719 Q126.987 263.302 121.177 263.302 Q115.367 263.302 112.288 258.719 Q109.233 254.112 109.233 245.386 Q109.233 236.636 112.288 232.052 Q115.367 227.446 121.177 227.446 Z" fill="#000000" fill-rule="nonzero" fill-opacity="1" /><path clip-path="url(#clip530)" d="M151.339 231.15 Q147.728 231.15 145.899 234.714 Q144.093 238.256 144.093 245.386 Q144.093 252.492 145.899 256.057 Q147.728 259.599 151.339 259.599 Q154.973 259.599 156.779 256.057 Q158.607 252.492 158.607 245.386 Q158.607 238.256 156.779 234.714 Q154.973 231.15 151.339 231.15 M151.339 227.446 Q157.149 227.446 160.205 232.052 Q163.283 236.636 163.283 245.386 Q163.283 254.112 160.205 258.719 Q157.149 263.302 151.339 263.302 Q145.529 263.302 142.45 258.719 Q139.394 254.112 139.394 245.386 Q139.394 236.636 142.45 232.052 Q145.529 227.446 151.339 227.446 Z" fill="#000000" fill-rule="nonzero" fill-opacity="1" /><polyline clip-path="url(#clip532)" style="stroke:#009af9; stroke-linecap:round; stroke-linejoin:round; stroke-width:4; stroke-opacity:1; fill:none" points="260.231,818.605 261.246,818.624 262.262,818.642 263.278,818.661 264.294,818.679 265.309,919.086 266.325,919.142 267.341,919.198 268.357,919.253 269.373,919.309 270.388,328.033 271.404,328.055 272.42,328.076 273.436,328.098 274.452,328.119 275.467,1105.22 276.483,1105.27 277.499,1105.32 278.515,1105.37 279.531,1105.42 280.546,872.031 281.562,872.072 282.578,872.114 283.594,872.154 284.609,872.195 285.625,988.236 286.641,988.316 287.657,988.397 288.673,988.476 289.688,988.555 290.704,1166.19 291.72,1166.29 292.736,1166.38 293.752,1166.47 294.767,1166.56 295.783,843.697 296.799,843.767 297.815,843.836 298.831,843.904 299.846,843.973 300.862,993.298 301.878,993.351 302.894,993.403 303.909,993.455 304.925,993.507 305.941,1109.94 306.957,1109.97 307.973,1110 308.988,1110.03 310.004,1110.05 311.02,307.695 312.036,307.76 313.052,307.825 314.067,307.89 315.083,307.954 316.099,585.471 317.115,585.515 318.131,585.559 319.146,585.602 320.162,585.645 321.178,1003.99 322.194,1004.05 323.209,1004.11 324.225,1004.17 325.241,1004.23 326.257,652.914 327.273,652.951 328.288,652.988 329.304,653.025 330.32,653.062 331.336,580.109 332.352,580.17 333.367,580.23 334.383,580.29 335.399,580.35 336.415,662.701 337.43,662.731 338.446,662.76 339.462,662.79 340.478,662.819 341.494,879.261 342.509,879.273 343.525,879.284 344.541,879.295 345.557,879.307 346.573,793.263 347.588,793.293 348.604,793.323 349.62,793.352 350.636,793.382 351.652,595.273 352.667,595.364 353.683,595.454 354.699,595.544 355.715,595.632 356.73,742.662 357.746,742.68 358.762,742.698 359.778,742.716 360.794,742.733 361.809,755.947 362.825,756.003 363.841,756.058 364.857,756.112 365.873,756.167 366.888,1027.11 367.904,1027.13 368.92,1027.15 369.936,1027.17 370.952,1027.18 371.967,492.268 372.983,492.291 373.999,492.314 375.015,492.336 376.03,492.358 377.046,832.189 378.062,832.2 379.078,832.211 380.094,832.222 381.109,832.233 382.125,752.843 383.141,752.929 384.157,753.015 385.173,753.1 386.188,753.184 387.204,998.238 388.22,998.263 389.236,998.287 390.252,998.312 391.267,998.336 392.283,1027.56 393.299,1027.61 394.315,1027.66 395.33,1027.71 396.346,1027.77 397.362,728.007 398.378,728.018 399.394,728.028 400.409,728.039 401.425,728.049 402.441,641.071 403.457,641.095 404.473,641.119 405.488,641.143 406.504,641.167 407.52,541.807 408.536,541.858 409.552,541.908 410.567,541.957 411.583,542.006 412.599,1174.08 413.615,1174.12 414.63,1174.17 415.646,1174.21 416.662,1174.25 417.678,853.03 418.694,853.047 419.709,853.064 420.725,853.081 421.741,853.097 422.757,938.879 423.773,938.925 424.788,938.97 425.804,939.014 426.82,939.058 427.836,338.841 428.852,338.859 429.867,338.878 430.883,338.896 431.899,338.914 432.915,664.997 433.93,665.035 434.946,665.072 435.962,665.109 436.978,665.146 437.994,910.989 439.009,911.035 440.025,911.081 441.041,911.126 442.057,911.172 443.073,1065.02 444.088,1065.06 445.104,1065.09 446.12,1065.13 447.136,1065.16 448.151,728.638 449.167,728.661 450.183,728.683 451.199,728.706 452.215,728.728 453.23,940.48 454.246,940.501 455.262,940.522 456.278,940.542 457.294,940.563 458.309,908.191 459.325,908.222 460.341,908.254 461.357,908.285 462.373,908.315 463.388,612.845 464.404,612.864 465.42,612.884 466.436,612.904 467.451,612.923 468.467,398.111 469.483,398.15 470.499,398.189 471.515,398.228 472.53,398.267 473.546,279.663 474.562,279.712 475.578,279.761 476.594,279.809 477.609,279.857 478.625,375.631 479.641,375.662 480.657,375.693 481.673,375.724 482.688,375.754 483.704,920.691 484.72,920.71 485.736,920.73 486.751,920.749 487.767,920.768 488.783,529.332 489.799,529.384 490.815,529.436 491.83,529.488 492.846,529.539 493.862,824.834 494.878,824.844 495.894,824.853 496.909,824.862 497.925,824.871 498.941,689.27 499.957,689.319 500.973,689.369 501.988,689.418 503.004,689.467 504.02,612.202 505.036,612.266 506.051,612.33 507.067,612.393 508.083,612.456 509.099,509.206 510.115,509.264 511.13,509.322 512.146,509.379 513.162,509.436 514.178,387.354 515.194,387.362 516.209,387.37 517.225,387.379 518.241,387.387 519.257,1065.69 520.273,1065.72 521.288,1065.74 522.304,1065.77 523.32,1065.79 524.336,1061.14 525.351,1061.15 526.367,1061.15 527.383,1061.15 528.399,1061.16 529.415,769.512 530.43,769.544 531.446,769.576 532.462,769.608 533.478,769.639 534.494,373.133 535.509,373.167 536.525,373.202 537.541,373.236 538.557,373.27 539.573,713.238 540.588,713.245 541.604,713.253 542.62,713.26 543.636,713.267 544.651,632.475 545.667,632.537 546.683,632.598 547.699,632.659 548.715,632.72 549.73,738.745 550.746,738.757 551.762,738.769 552.778,738.781 553.794,738.792 554.809,952.888 555.825,952.969 556.841,953.049 557.857,953.128 558.873,953.207 559.888,740.19 560.904,740.249 561.92,740.308 562.936,740.367 563.951,740.424 564.967,255.659 565.983,255.72 566.999,255.781 568.015,255.841 569.03,255.901 570.046,1299.65 571.062,1299.68 572.078,1299.72 573.094,1299.75 574.109,1299.78 575.125,726.292 576.141,726.306 577.157,726.32 578.172,726.334 579.188,726.347 580.204,528.668 581.22,528.692 582.236,528.715 583.251,528.738 584.267,528.761 585.283,237.862 586.299,237.912 587.315,237.96 588.33,238.009 589.346,238.056 590.362,1141.09 591.378,1141.11 592.394,1141.13 593.409,1141.16 594.425,1141.18 595.441,1037.91 596.457,1037.95 597.472,1037.99 598.488,1038.03 599.504,1038.07 600.52,732.579 601.536,732.626 602.551,732.673 603.567,732.72 604.583,732.767 605.599,801.06 606.615,801.096 607.63,801.131 608.646,801.165 609.662,801.2 610.678,763.257 611.694,763.284 612.709,763.31 613.725,763.336 614.741,763.363 615.757,590.369 616.772,590.417 617.788,590.466 618.804,590.514 619.82,590.561 620.836,1067.47 621.851,1067.48 622.867,1067.48 623.883,1067.49 624.899,1067.49 625.915,588.789 626.93,588.815 627.946,588.842 628.962,588.868 629.978,588.894 630.994,999.85 632.009,999.915 633.025,999.98 634.041,1000.04 635.057,1000.11 636.072,393.126 637.088,393.184 638.104,393.242 639.12,393.299 640.136,393.356 641.151,488.591 642.167,488.654 643.183,488.716 644.199,488.778 645.215,488.839 646.23,774.632 647.246,774.637 648.262,774.642 649.278,774.647 650.294,774.652 651.309,573.921 652.325,573.954 653.341,573.987 654.357,574.02 655.372,574.052 656.388,857.211 657.404,857.213 658.42,857.215 659.436,857.217 660.451,857.219 661.467,695.482 662.483,695.509 663.499,695.535 664.515,695.561 665.53,695.587 666.546,912.857 667.562,912.957 668.578,913.056 669.594,913.154 670.609,913.252 671.625,950.475 672.641,950.509 673.657,950.542 674.672,950.576 675.688,950.609 676.704,602.204 677.72,602.223 678.736,602.243 679.751,602.262 680.767,602.281 681.783,812.668 682.799,812.688 683.815,812.709 684.83,812.729 685.846,812.749 686.862,683.696 687.878,683.72 688.893,683.744 689.909,683.768 690.925,683.792 691.941,894.732 692.957,894.762 693.972,894.792 694.988,894.821 696.004,894.85 697.02,897.201 698.036,897.247 699.051,897.292 700.067,897.338 701.083,897.383 702.099,907.174 703.115,907.25 704.13,907.326 705.146,907.402 706.162,907.477 707.178,789.517 708.193,789.602 709.209,789.687 710.225,789.771 711.241,789.855 712.257,713.896 713.272,713.907 714.288,713.917 715.304,713.927 716.32,713.937 717.336,846.465 718.351,846.495 719.367,846.525 720.383,846.555 721.399,846.585 722.415,543.239 723.43,543.281 724.446,543.321 725.462,543.362 726.478,543.402 727.493,965.327 728.509,965.338 729.525,965.349 730.541,965.359 731.557,965.37 732.572,1069.93 733.588,1070 734.604,1070.08 735.62,1070.16 736.636,1070.23 737.651,478.662 738.667,478.71 739.683,478.757 740.699,478.804 741.715,478.851 742.73,1093.69 743.746,1093.73 744.762,1093.78 745.778,1093.82 746.793,1093.86 747.809,833.797 748.825,833.843 749.841,833.889 750.857,833.934 751.872,833.979 752.888,797.993 753.904,798.006 754.92,798.02 755.936,798.034 756.951,798.047 757.967,877.945 758.983,877.978 759.999,878.011 761.015,878.044 762.03,878.076 763.046,735.012 764.062,735.051 765.078,735.091 766.093,735.13 767.109,735.168 768.125,1081.9 769.141,1081.92 770.157,1081.93 771.172,1081.95 772.188,1081.97 773.204,792.758 774.22,792.862 775.236,792.965 776.251,793.067 777.267,793.168 778.283,657.79 779.299,657.835 780.315,657.88 781.33,657.924 782.346,657.968 783.362,986.114 784.378,986.148 785.393,986.182 786.409,986.216 787.425,986.25 788.441,538.202 789.457,538.242 790.472,538.281 791.488,538.32 792.504,538.359 793.52,800.215 794.536,800.255 795.551,800.295 796.567,800.335 797.583,800.375 798.599,830.508 799.614,830.562 800.63,830.616 801.646,830.669 802.662,830.722 803.678,186.912 804.693,186.936 805.709,186.961 806.725,186.985 807.741,187.009 808.757,870.604 809.772,870.674 810.788,870.744 811.804,870.813 812.82,870.881 813.836,794.733 814.851,794.838 815.867,794.942 816.883,795.045 817.899,795.147 818.914,607.461 819.93,607.584 820.946,607.705 821.962,607.825 822.978,607.945 823.993,902.39 825.009,902.428 826.025,902.466 827.041,902.504 828.057,902.542 829.072,668.264 830.088,668.318 831.104,668.372 832.12,668.425 833.136,668.478 834.151,574.825 835.167,574.865 836.183,574.904 837.199,574.943 838.214,574.982 839.23,478.081 840.246,478.149 841.262,478.216 842.278,478.283 843.293,478.349 844.309,991.896 845.325,991.903 846.341,991.91 847.357,991.917 848.372,991.924 849.388,648.088 850.404,648.121 851.42,648.154 852.436,648.186 853.451,648.218 854.467,381.627 855.483,381.635 856.499,381.642 857.514,381.65 858.53,381.657 859.546,1045.34 860.562,1045.35 861.578,1045.37 862.593,1045.38 863.609,1045.4 864.625,799.565 865.641,799.628 866.657,799.692 867.672,799.754 868.688,799.817 869.704,193.789 870.72,193.855 871.736,193.921 872.751,193.986 873.767,194.05 874.783,836.617 875.799,836.681 876.814,836.745 877.83,836.808 878.846,836.871 879.862,457.543 880.878,457.628 881.893,457.713 882.909,457.796 883.925,457.879 884.941,878.807 885.957,878.826 886.972,878.845 887.988,878.863 889.004,878.881 890.02,709.945 891.036,709.959 892.051,709.974 893.067,709.988 894.083,710.002 895.099,867.866 896.114,867.922 897.13,867.979 898.146,868.035 899.162,868.09 900.178,576.308 901.193,576.333 902.209,576.357 903.225,576.381 904.241,576.405 905.257,1229.87 906.272,1229.89 907.288,1229.9 908.304,1229.92 909.32,1229.94 910.336,921.842 911.351,921.856 912.367,921.87 913.383,921.883 914.399,921.897 915.414,310.568 916.43,310.585 917.446,310.601 918.462,310.618 919.478,310.634 920.493,1072.89 921.509,1072.9 922.525,1072.91 923.541,1072.92 924.557,1072.93 925.572,1180.65 926.588,1180.67 927.604,1180.68 928.62,1180.69 929.635,1180.71 930.651,824.892 931.667,824.93 932.683,824.967 933.699,825.004 934.714,825.041 935.73,806.406 936.746,806.502 937.762,806.596 938.778,806.69 939.793,806.784 940.809,367.655 941.825,367.659 942.841,367.662 943.857,367.666 944.872,367.669 945.888,687.694 946.904,687.709 947.92,687.725 948.935,687.741 949.951,687.756 950.967,712.433 951.983,712.447 952.999,712.462 954.014,712.476 955.03,712.49 956.046,639.529 957.062,639.581 958.078,639.632 959.093,639.683 960.109,639.734 961.125,549.857 962.141,549.891 963.157,549.926 964.172,549.96 965.188,549.993 966.204,1147.08 967.22,1147.14 968.235,1147.2 969.251,1147.27 970.267,1147.33 971.283,864.485 972.299,864.563 973.314,864.642 974.33,864.719 975.346,864.796 976.362,685.358 977.378,685.404 978.393,685.45 979.409,685.495 980.425,685.54 981.441,889.334 982.457,889.397 983.472,889.46 984.488,889.522 985.504,889.584 986.52,827.11 987.535,827.149 988.551,827.186 989.567,827.224 990.583,827.261 991.599,845.99 992.614,846.033 993.63,846.075 994.646,846.117 995.662,846.158 996.678,1069.97 997.693,1070.01 998.709,1070.05 999.725,1070.09 1000.74,1070.13 1001.76,459.184 1002.77,459.237 1003.79,459.29 1004.8,459.342 1005.82,459.394 1006.84,876.293 1007.85,876.332 1008.87,876.37 1009.88,876.408 1010.9,876.446 1011.91,880.452 1012.93,880.466 1013.95,880.481 1014.96,880.495 1015.98,880.509 1016.99,965.069 1018.01,965.101 1019.02,965.133 1020.04,965.165 1021.06,965.197 1022.07,720.182 1023.09,720.21 1024.1,720.238 1025.12,720.266 1026.14,720.293 1027.15,680.119 1028.17,680.185 1029.18,680.25 1030.2,680.314 1031.21,680.379 1032.23,826.24 1033.25,826.277 1034.26,826.313 1035.28,826.35 1036.29,826.386 1037.31,751.925 1038.32,751.989 1039.34,752.053 1040.36,752.116 1041.37,752.179 1042.39,740.39 1043.4,740.423 1044.42,740.456 1045.44,740.489 1046.45,740.521 1047.47,598.193 1048.48,598.266 1049.5,598.339 1050.51,598.411 1051.53,598.483 1052.55,790.289 1053.56,790.308 1054.58,790.327 1055.59,790.346 1056.61,790.364 1057.62,986.089 1058.64,986.148 1059.66,986.206 1060.67,986.264 1061.69,986.322 1062.7,107.837 1063.72,107.871 1064.74,107.905 1065.75,107.938 1066.77,107.972 1067.78,667.312 1068.8,667.357 1069.81,667.401 1070.83,667.445 1071.85,667.488 1072.86,876.415 1073.88,876.466 1074.89,876.516 1075.91,876.566 1076.92,876.615 1077.94,672.917 1078.96,672.951 1079.97,672.984 1080.99,673.017 1082,673.051 1083.02,904.274 1084.04,904.279 1085.05,904.283 1086.07,904.288 1087.08,904.292 1088.1,563.025 1089.11,563.058 1090.13,563.092 1091.15,563.125 1092.16,563.158 1093.18,1024.78 1094.19,1024.8 1095.21,1024.83 1096.22,1024.85 1097.24,1024.88 1098.26,989.167 1099.27,989.191 1100.29,989.215 1101.3,989.239 1102.32,989.263 1103.34,673.055 1104.35,673.082 1105.37,673.109 1106.38,673.135 1107.4,673.161 1108.41,716.481 1109.43,716.528 1110.45,716.574 1111.46,716.62 1112.48,716.666 1113.49,903.76 1114.51,903.777 1115.52,903.794 1116.54,903.812 1117.56,903.829 1118.57,679.798 1119.59,679.841 1120.6,679.883 1121.62,679.925 1122.64,679.966 1123.65,744.662 1124.67,744.675 1125.68,744.688 1126.7,744.7 1127.71,744.713 1128.73,523.984 1129.75,524.015 1130.76,524.046 1131.78,524.077 1132.79,524.108 1133.81,559.79 1134.82,559.834 1135.84,559.878 1136.86,559.922 1137.87,559.965 1138.89,87.9763 1139.9,88.0017 1140.92,88.0269 1141.94,88.0518 1142.95,88.0765 1143.97,830.696 1144.98,830.704 1146,830.713 1147.01,830.721 1148.03,830.729 1149.05,661.279 1150.06,661.319 1151.08,661.359 1152.09,661.399 1153.11,661.438 1154.12,603.512 1155.14,603.541 1156.16,603.57 1157.17,603.598 1158.19,603.627 1159.2,1255.96 1160.22,1256.04 1161.24,1256.12 1162.25,1256.19 1163.27,1256.27 1164.28,609.142 1165.3,609.279 1166.31,609.415 1167.33,609.55 1168.35,609.684 1169.36,1085.31 1170.38,1085.33 1171.39,1085.35 1172.41,1085.38 1173.42,1085.4 1174.44,357.06 1175.46,357.073 1176.47,357.086 1177.49,357.098 1178.5,357.111 1179.52,652.243 1180.54,652.307 1181.55,652.37 1182.57,652.434 1183.58,652.496 1184.6,476.783 1185.61,476.844 1186.63,476.905 1187.65,476.964 1188.66,477.024 1189.68,412.383 1190.69,412.442 1191.71,412.5 1192.72,412.558 1193.74,412.615 1194.76,680.669 1195.77,680.689 1196.79,680.709 1197.8,680.729 1198.82,680.748 1199.84,279.762 1200.85,279.816 1201.87,279.869 1202.88,279.922 1203.9,279.974 1204.91,645.472 1205.93,645.49 1206.95,645.508 1207.96,645.525 1208.98,645.542 1209.99,437.201 1211.01,437.218 1212.02,437.234 1213.04,437.251 1214.06,437.267 1215.07,1057.17 1216.09,1057.28 1217.1,1057.38 1218.12,1057.48 1219.14,1057.58 1220.15,732.715 1221.17,732.772 1222.18,732.828 1223.2,732.885 1224.21,732.941 1225.23,634.741 1226.25,634.789 1227.26,634.837 1228.28,634.884 1229.29,634.931 1230.31,958.123 1231.32,958.154 1232.34,958.185 1233.36,958.216 1234.37,958.246 1235.39,617.78 1236.4,617.794 1237.42,617.807 1238.44,617.821 1239.45,617.835 1240.47,822.989 1241.48,823.048 1242.5,823.106 1243.51,823.164 1244.53,823.222 1245.55,793.619 1246.56,793.657 1247.58,793.694 1248.59,793.731 1249.61,793.767 1250.62,974.174 1251.64,974.195 1252.66,974.215 1253.67,974.235 1254.69,974.254 1255.7,290.065 1256.72,290.1 1257.74,290.134 1258.75,290.168 1259.77,290.201 1260.78,927.138 1261.8,927.154 1262.81,927.17 1263.83,927.186 1264.85,927.201 1265.86,851.417 1266.88,851.502 1267.89,851.587 1268.91,851.671 1269.92,851.755 1270.94,798.458 1271.96,798.527 1272.97,798.595 1273.99,798.663 1275,798.73 1276.02,523.008 1277.04,523.026 1278.05,523.044 1279.07,523.061 1280.08,523.079 1281.1,522.942 1282.11,522.972 1283.13,523.001 1284.15,523.031 1285.16,523.06 1286.18,521.681 1287.19,521.706 1288.21,521.732 1289.22,521.757 1290.24,521.782 1291.26,539.959 1292.27,540.026 1293.29,540.093 1294.3,540.159 1295.32,540.224 1296.34,707.507 1297.35,707.545 1298.37,707.584 1299.38,707.622 1300.4,707.66 1301.41,522.18 1302.43,522.235 1303.45,522.29 1304.46,522.344 1305.48,522.398 1306.49,542.941 1307.51,542.954 1308.52,542.968 1309.54,542.981 1310.56,542.994 1311.57,777.407 1312.59,777.417 1313.6,777.427 1314.62,777.436 1315.64,777.446 1316.65,784.603 1317.67,784.624 1318.68,784.644 1319.7,784.665 1320.71,784.685 1321.73,837.346 1322.75,837.357 1323.76,837.369 1324.78,837.38 1325.79,837.391 1326.81,511.669 1327.82,511.742 1328.84,511.814 1329.86,511.886 1330.87,511.956 1331.89,546.039 1332.9,546.099 1333.92,546.158 1334.94,546.217 1335.95,546.276 1336.97,1116.02 1337.98,1116.03 1339,1116.05 1340.01,1116.07 1341.03,1116.09 1342.05,1033.05 1343.06,1033.09 1344.08,1033.13 1345.09,1033.16 1346.11,1033.2 1347.12,1236.99 1348.14,1237 1349.16,1237.01 1350.17,1237.02 1351.19,1237.02 1352.2,750.567 1353.22,750.654 1354.24,750.74 1355.25,750.826 1356.27,750.911 1357.28,987.562 1358.3,987.581 1359.31,987.599 1360.33,987.617 1361.35,987.635 1362.36,559.987 1363.38,559.997 1364.39,560.006 1365.41,560.015 1366.42,560.025 1367.44,738.628 1368.46,738.726 1369.47,738.823 1370.49,738.919 1371.5,739.014 1372.52,622.594 1373.54,622.64 1374.55,622.686 1375.57,622.731 1376.58,622.776 1377.6,914.186 1378.61,914.205 1379.63,914.223 1380.65,914.241 1381.66,914.259 1382.68,790.203 1383.69,790.272 1384.71,790.34 1385.72,790.409 1386.74,790.476 1387.76,454.475 1388.77,454.493 1389.79,454.51 1390.8,454.528 1391.82,454.545 1392.84,697.936 1393.85,697.961 1394.87,697.985 1395.88,698.009 1396.9,698.034 1397.91,767.726 1398.93,767.783 1399.95,767.84 1400.96,767.896 1401.98,767.952 1402.99,870.814 1404.01,870.832 1405.02,870.849 1406.04,870.866 1407.06,870.884 1408.07,1103.34 1409.09,1103.38 1410.1,1103.41 1411.12,1103.45 1412.14,1103.48 1413.15,595.101 1414.17,595.113 1415.18,595.125 1416.2,595.137 1417.21,595.149 1418.23,905.262 1419.25,905.278 1420.26,905.293 1421.28,905.308 1422.29,905.324 1423.31,498.52 1424.32,498.546 1425.34,498.572 1426.36,498.597 1427.37,498.623 1428.39,464.226 1429.4,464.255 1430.42,464.284 1431.44,464.312 1432.45,464.341 1433.47,428.824 1434.48,428.856 1435.5,428.887 1436.51,428.918 1437.53,428.949 1438.55,738.059 1439.56,738.1 1440.58,738.14 1441.59,738.18 1442.61,738.22 1443.62,865.869 1444.64,865.93 1445.66,865.991 1446.67,866.051 1447.69,866.111 1448.7,1035.66 1449.72,1035.67 1450.74,1035.69 1451.75,1035.7 1452.77,1035.71 1453.78,674.273 1454.8,674.309 1455.81,674.344 1456.83,674.379 1457.85,674.413 1458.86,829.88 1459.88,829.904 1460.89,829.928 1461.91,829.952 1462.92,829.975 1463.94,656.065 1464.96,656.14 1465.97,656.215 1466.99,656.289 1468,656.363 1469.02,724.507 1470.04,724.546 1471.05,724.586 1472.07,724.625 1473.08,724.663 1474.1,480.886 1475.11,480.949 1476.13,481.011 1477.15,481.073 1478.16,481.134 1479.18,999.653 1480.19,999.717 1481.21,999.781 1482.22,999.844 1483.24,999.907 1484.26,923.72 1485.27,923.721 1486.29,923.721 1487.3,923.722 1488.32,923.723 1489.34,560.239 1490.35,560.262 1491.37,560.284 1492.38,560.306 1493.4,560.328 1494.41,670.906 1495.43,670.957 1496.45,671.008 1497.46,671.059 1498.48,671.109 1499.49,939.324 1500.51,939.375 1501.52,939.425 1502.54,939.475 1503.56,939.524 1504.57,1124.97 1505.59,1125 1506.6,1125.03 1507.62,1125.05 1508.64,1125.08 1509.65,1115.3 1510.67,1115.31 1511.68,1115.32 1512.7,1115.32 1513.71,1115.33 1514.73,1235.45 1515.75,1235.51 1516.76,1235.57 1517.78,1235.63 1518.79,1235.69 1519.81,590.404 1520.82,590.421 1521.84,590.439 1522.86,590.456 1523.87,590.473 1524.89,1158.03 1525.9,1158.05 1526.92,1158.06 1527.94,1158.08 1528.95,1158.1 1529.97,638.238 1530.98,638.299 1532,638.36 1533.01,638.42 1534.03,638.479 1535.05,846.065 1536.06,846.129 1537.08,846.192 1538.09,846.255 1539.11,846.317 1540.12,387.355 1541.14,387.373 1542.16,387.39 1543.17,387.408 1544.19,387.426 1545.2,882.289 1546.22,882.332 1547.24,882.374 1548.25,882.415 1549.27,882.457 1550.28,850.863 1551.3,850.871 1552.31,850.88 1553.33,850.888 1554.35,850.896 1555.36,878.54 1556.38,878.558 1557.39,878.575 1558.41,878.592 1559.42,878.609 1560.44,507.813 1561.46,507.873 1562.47,507.932 1563.49,507.991 1564.5,508.05 1565.52,818.195 1566.54,818.231 1567.55,818.267 1568.57,818.303 1569.58,818.339 1570.6,601.519 1571.61,601.585 1572.63,601.652 1573.65,601.717 1574.66,601.782 1575.68,942.844 1576.69,942.858 1577.71,942.872 1578.72,942.886 1579.74,942.9 1580.76,895.127 1581.77,895.149 1582.79,895.17 1583.8,895.191 1584.82,895.212 1585.84,748.875 1586.85,748.902 1587.87,748.928 1588.88,748.955 1589.9,748.981 1590.91,420.324 1591.93,420.39 1592.95,420.456 1593.96,420.522 1594.98,420.586 1595.99,1056.71 1597.01,1056.71 1598.02,1056.71 1599.04,1056.71 1600.06,1056.71 1601.07,986.084 1602.09,986.106 1603.1,986.127 1604.12,986.149 1605.14,986.17 1606.15,1033.41 1607.17,1033.47 1608.18,1033.53 1609.2,1033.59 1610.21,1033.65 1611.23,949.366 1612.25,949.407 1613.26,949.447 1614.28,949.487 1615.29,949.527 1616.31,739.677 1617.32,739.718 1618.34,739.759 1619.36,739.8 1620.37,739.84 1621.39,970.226 1622.4,970.292 1623.42,970.358 1624.44,970.423 1625.45,970.488 1626.47,286.172 1627.48,286.236 1628.5,286.301 1629.51,286.364 1630.53,286.427 1631.55,873.518 1632.56,873.525 1633.58,873.532 1634.59,873.539 1635.61,873.546 1636.62,881.5 1637.64,881.546 1638.66,881.592 1639.67,881.637 1640.69,881.683 1641.7,507.054 1642.72,507.115 1643.74,507.175 1644.75,507.235 1645.77,507.294 1646.78,405.453 1647.8,405.525 1648.81,405.597 1649.83,405.668 1650.85,405.739 1651.86,785.885 1652.88,785.897 1653.89,785.908 1654.91,785.919 1655.92,785.93 1656.94,617.327 1657.96,617.348 1658.97,617.369 1659.99,617.389 1661,617.409 1662.02,781.588 1663.04,781.622 1664.05,781.656 1665.07,781.69 1666.08,781.723 1667.1,470.85 1668.11,470.892 1669.13,470.934 1670.15,470.975 1671.16,471.016 1672.18,680.562 1673.19,680.647 1674.21,680.731 1675.22,680.815 1676.24,680.897 1677.26,255.294 1678.27,255.352 1679.29,255.41 1680.3,255.468 1681.32,255.525 1682.34,1445.6 1683.35,1445.63 1684.37,1445.66 1685.38,1445.69 1686.4,1445.72 1687.41,951.471 1688.43,951.483 1689.45,951.494 1690.46,951.506 1691.48,951.517 1692.49,595.273 1693.51,595.357 1694.52,595.44 1695.54,595.523 1696.56,595.605 1697.57,637.997 1698.59,638.057 1699.6,638.117 1700.62,638.176 1701.64,638.235 1702.65,229.259 1703.67,229.304 1704.68,229.349 1705.7,229.393 1706.71,229.437 1707.73,627.946 1708.75,627.948 1709.76,627.949 1710.78,627.95 1711.79,627.952 1712.81,571.708 1713.82,571.748 1714.84,571.788 1715.86,571.827 1716.87,571.865 1717.89,475.325 1718.9,475.381 1719.92,475.437 1720.94,475.492 1721.95,475.547 1722.97,547.838 1723.98,547.874 1725,547.91 1726.01,547.946 1727.03,547.982 1728.05,739.123 1729.06,739.14 1730.08,739.156 1731.09,739.172 1732.11,739.188 1733.12,963.456 1734.14,963.491 1735.16,963.526 1736.17,963.561 1737.19,963.595 1738.2,387.361 1739.22,387.446 1740.24,387.53 1741.25,387.613 1742.27,387.695 1743.28,1247.32 1744.3,1247.45 1745.31,1247.58 1746.33,1247.7 1747.35,1247.83 1748.36,757.667 1749.38,757.713 1750.39,757.759 1751.41,757.805 1752.42,757.85 1753.44,649.518 1754.46,649.543 1755.47,649.567 1756.49,649.591 1757.5,649.614 1758.52,977.893 1759.54,977.97 1760.55,978.045 1761.57,978.12 1762.58,978.195 1763.6,829.87 1764.61,829.906 1765.63,829.941 1766.65,829.976 1767.66,830.011 1768.68,616.52 1769.69,616.574 1770.71,616.626 1771.72,616.679 1772.74,616.731 1773.76,1095.83 1774.77,1095.85 1775.79,1095.87 1776.8,1095.89 1777.82,1095.92 1778.84,620.998 1779.85,621.014 1780.87,621.03 1781.88,621.045 1782.9,621.061 1783.91,937.277 1784.93,937.3 1785.95,937.322 1786.96,937.345 1787.98,937.367 1788.99,773.779 1790.01,773.804 1791.02,773.829 1792.04,773.853 1793.06,773.878 1794.07,1126.06 1795.09,1126.08 1796.1,1126.1 1797.12,1126.12 1798.14,1126.14 1799.15,577.719 1800.17,577.745 1801.18,577.77 1802.2,577.795 1803.21,577.82 1804.23,983.943 1805.25,983.952 1806.26,983.96 1807.28,983.968 1808.29,983.976 1809.31,659.92 1810.32,659.947 1811.34,659.973 1812.36,659.999 1813.37,660.025 1814.39,820.571 1815.4,820.66 1816.42,820.749 1817.44,820.837 1818.45,820.925 1819.47,948.681 1820.48,948.689 1821.5,948.697 1822.51,948.705 1823.53,948.712 1824.55,877.249 1825.56,877.275 1826.58,877.302 1827.59,877.328 1828.61,877.354 1829.62,773.315 1830.64,773.339 1831.66,773.363 1832.67,773.387 1833.69,773.41 1834.7,566.124 1835.72,566.144 1836.74,566.165 1837.75,566.185 1838.77,566.205 1839.78,856.38 1840.8,856.4 1841.81,856.421 1842.83,856.441 1843.85,856.461 1844.86,740.338 1845.88,740.369 1846.89,740.4 1847.91,740.431 1848.92,740.461 1849.94,789.901 1850.96,789.947 1851.97,789.993 1852.99,790.038 1854,790.083 1855.02,798.553 1856.04,798.563 1857.05,798.573 1858.07,798.582 1859.08,798.592 1860.1,697.478 1861.11,697.51 1862.13,697.543 1863.15,697.575 1864.16,697.607 1865.18,720.847 1866.19,720.919 1867.21,720.989 1868.22,721.06 1869.24,721.129 1870.26,643.52 1871.27,643.564 1872.29,643.608 1873.3,643.652 1874.32,643.695 1875.34,947.005 1876.35,947.044 1877.37,947.082 1878.38,947.12 1879.4,947.158 1880.41,899.579 1881.43,899.605 1882.45,899.63 1883.46,899.655 1884.48,899.68 1885.49,510.319 1886.51,510.372 1887.52,510.424 1888.54,510.476 1889.56,510.528 1890.57,917.041 1891.59,917.094 1892.6,917.147 1893.62,917.2 1894.64,917.252 1895.65,977.648 1896.67,977.668 1897.68,977.687 1898.7,977.707 1899.71,977.726 1900.73,587.016 1901.75,587.091 1902.76,587.165 1903.78,587.239 1904.79,587.312 1905.81,1099.49 1906.82,1099.51 1907.84,1099.53 1908.86,1099.55 1909.87,1099.57 1910.89,630.119 1911.9,630.153 1912.92,630.187 1913.94,630.22 1914.95,630.253 1915.97,653.754 1916.98,653.827 1918,653.899 1919.01,653.971 1920.03,654.042 1921.05,846.808 1922.06,846.863 1923.08,846.917 1924.09,846.971 1925.11,847.025 1926.12,703.088 1927.14,703.117 1928.16,703.145 1929.17,703.173 1930.19,703.201 1931.2,1260.95 1932.22,1260.97 1933.24,1261 1934.25,1261.02 1935.27,1261.05 1936.28,1088.71 1937.3,1088.79 1938.31,1088.88 1939.33,1088.96 1940.35,1089.05 1941.36,823.286 1942.38,823.319 1943.39,823.351 1944.41,823.382 1945.42,823.414 1946.44,431.44 1947.46,431.52 1948.47,431.6 1949.49,431.679 1950.5,431.758 1951.52,835.578 1952.54,835.605 1953.55,835.632 1954.57,835.659 1955.58,835.686 1956.6,1181.09 1957.61,1181.1 1958.63,1181.11 1959.65,1181.12 1960.66,1181.13 1961.68,618.783 1962.69,618.818 1963.71,618.852 1964.72,618.886 1965.74,618.92 1966.76,736.882 1967.77,736.9 1968.79,736.918 1969.8,736.935 1970.82,736.953 1971.84,630.501 1972.85,630.53 1973.87,630.559 1974.88,630.588 1975.9,630.617 1976.91,846.964 1977.93,846.975 1978.95,846.987 1979.96,846.998 1980.98,847.009 1981.99,709.589 1983.01,709.644 1984.02,709.698 1985.04,709.752 1986.06,709.806 1987.07,782.398 1988.09,782.452 1989.1,782.506 1990.12,782.56 1991.14,782.613 1992.15,1066.67 1993.17,1066.71 1994.18,1066.75 1995.2,1066.79 1996.21,1066.83 1997.23,544.073 1998.25,544.129 1999.26,544.185 2000.28,544.24 2001.29,544.296 2002.31,467.031 2003.32,467.115 2004.34,467.199 2005.36,467.281 2006.37,467.364 2007.39,931.944 2008.4,931.968 2009.42,931.992 2010.44,932.016 2011.45,932.04 2012.47,641.466 2013.48,641.51 2014.5,641.554 2015.51,641.598 2016.53,641.641 2017.55,627.039 2018.56,627.049 2019.58,627.06 2020.59,627.07 2021.61,627.081 2022.62,780.405 2023.64,780.45 2024.66,780.495 2025.67,780.54 2026.69,780.584 2027.7,557.827 2028.72,557.862 2029.73,557.897 2030.75,557.932 2031.77,557.966 2032.78,840.873 2033.8,840.908 2034.81,840.942 2035.83,840.976 2036.85,841.01 2037.86,480.569 2038.88,480.612 2039.89,480.654 2040.91,480.696 2041.92,480.738 2042.94,766.426 2043.96,766.435 2044.97,766.443 2045.99,766.451 2047,766.459 2048.02,959.964 2049.03,959.977 2050.05,959.991 2051.07,960.004 2052.08,960.018 2053.1,778.03 2054.11,778.051 2055.13,778.072 2056.15,778.093 2057.16,778.113 2058.18,746.887 2059.19,746.968 2060.21,747.048 2061.22,747.127 2062.24,747.205 2063.26,799.816 2064.27,799.92 2065.29,800.024 2066.3,800.127 2067.32,800.229 2068.33,858.37 2069.35,858.4 2070.37,858.43 2071.38,858.46 2072.4,858.489 2073.41,728.793 2074.43,728.808 2075.45,728.823 2076.46,728.838 2077.48,728.853 2078.49,839.67 2079.51,839.737 2080.52,839.804 2081.54,839.871 2082.56,839.937 2083.57,687.566 2084.59,687.579 2085.6,687.591 2086.62,687.603 2087.63,687.615 2088.65,774.048 2089.67,774.066 2090.68,774.084 2091.7,774.101 2092.71,774.119 2093.73,639.208 2094.75,639.245 2095.76,639.282 2096.78,639.319 2097.79,639.355 2098.81,593.684 2099.82,593.736 2100.84,593.788 2101.86,593.839 2102.87,593.89 2103.89,1342.18 2104.9,1342.2 2105.92,1342.22 2106.93,1342.24 2107.95,1342.26 2108.97,665.988 2109.98,666.055 2111,666.122 2112.01,666.189 2113.03,666.255 2114.05,709.607 2115.06,709.637 2116.08,709.666 2117.09,709.695 2118.11,709.724 2119.12,1326.36 2120.14,1326.37 2121.16,1326.38 2122.17,1326.39 2123.19,1326.41 2124.2,615.831 2125.22,615.884 2126.23,615.936 2127.25,615.988 2128.27,616.039 2129.28,631.038 2130.3,631.119 2131.31,631.199 2132.33,631.279 2133.35,631.358 2134.36,930.032 2135.38,930.057 2136.39,930.082 2137.41,930.107 2138.42,930.132 2139.44,749.363 2140.46,749.42 2141.47,749.476 2142.49,749.532 2143.5,749.588 2144.52,711.293 2145.53,711.323 2146.55,711.352 2147.57,711.381 2148.58,711.409 2149.6,598.069 2150.61,598.135 2151.63,598.2 2152.65,598.264 2153.66,598.328 2154.68,618.723 2155.69,618.772 2156.71,618.821 2157.72,618.87 2158.74,618.919 2159.76,422.695 2160.77,422.709 2161.79,422.722 2162.8,422.735 2163.82,422.748 2164.83,755.02 2165.85,755.08 2166.87,755.14 2167.88,755.2 2168.9,755.259 2169.91,773.728 2170.93,773.762 2171.95,773.795 2172.96,773.828 2173.98,773.861 2174.99,746.971 2176.01,747.043 2177.02,747.114 2178.04,747.185 2179.06,747.255 2180.07,746.515 2181.09,746.599 2182.1,746.683 2183.12,746.766 2184.13,746.848 2185.15,867.619 2186.17,867.722 2187.18,867.825 2188.2,867.927 2189.21,868.028 2190.23,745.153 2191.25,745.234 2192.26,745.315 2193.28,745.394 2194.29,745.474 2195.31,554.284 2196.32,554.336 2197.34,554.388 2198.36,554.44 2199.37,554.491 2200.39,1110.42 2201.4,1110.44 2202.42,1110.46 2203.43,1110.48 2204.45,1110.5 2205.47,470.968 2206.48,470.996 2207.5,471.025 2208.51,471.053 2209.53,471.081 2210.55,495.346 2211.56,495.35 2212.58,495.353 2213.59,495.356 2214.61,495.36 2215.62,988.162 2216.64,988.239 2217.66,988.316 2218.67,988.393 2219.69,988.469 2220.7,986.209 2221.72,986.245 2222.73,986.281 2223.75,986.317 2224.77,986.352 2225.78,1031.35 2226.8,1031.36 2227.81,1031.37 2228.83,1031.38 2229.85,1031.39 2230.86,916.195 2231.88,916.245 2232.89,916.295 2233.91,916.345 2234.92,916.394 2235.94,1122.96 2236.96,1123.03 2237.97,1123.1 2238.99,1123.18 2240,1123.25 2241.02,356.686 2242.03,356.725 2243.05,356.764 2244.07,356.802 2245.08,356.84 2246.1,781.4 2247.11,781.429 2248.13,781.458 2249.15,781.488 2250.16,781.516 2251.18,719.348 2252.19,719.371 2253.21,719.394 2254.22,719.417 2255.24,719.44 2256.26,706.081 2257.27,706.132 2258.29,706.183 2259.3,706.234 2260.32,706.284 2261.33,639.512 2262.35,639.589 2263.37,639.664 2264.38,639.739 2265.4,639.814 2266.41,745.011 2267.43,745.036 2268.45,745.061 2269.46,745.086 2270.48,745.11 2271.49,879.811 2272.51,879.857 2273.52,879.902 2274.54,879.947 2275.56,879.992 2276.57,833.607 2277.59,833.62 2278.6,833.632 2279.62,833.645 2280.63,833.657 2281.65,910.8 2282.67,910.843 2283.68,910.885 2284.7,910.927 2285.71,910.969 2286.73,253.793 2287.75,253.816 2288.76,253.84 2289.78,253.863 2290.79,253.886 2291.81,253.909 "/>
<path clip-path="url(#clip530)" d="M2013.2 198.898 L2280.97 198.898 L2280.97 95.2176 L2013.2 95.2176  Z" fill="#ffffff" fill-rule="evenodd" fill-opacity="1"/>
<polyline clip-path="url(#clip530)" style="stroke:#000000; stroke-linecap:round; stroke-linejoin:round; stroke-width:4; stroke-opacity:1; fill:none" points="2013.2,198.898 2280.97,198.898 2280.97,95.2176 2013.2,95.2176 2013.2,198.898 "/>
<polyline clip-path="url(#clip530)" style="stroke:#009af9; stroke-linecap:round; stroke-linejoin:round; stroke-width:4; stroke-opacity:1; fill:none" points="2037.12,147.058 2180.69,147.058 "/>
<path clip-path="url(#clip530)" d="M2218.46 166.745 Q2216.65 171.375 2214.94 172.787 Q2213.23 174.199 2210.36 174.199 L2206.95 174.199 L2206.95 170.634 L2209.45 170.634 Q2211.21 170.634 2212.19 169.8 Q2213.16 168.967 2214.34 165.865 L2215.1 163.921 L2204.62 138.412 L2209.13 138.412 L2217.23 158.689 L2225.33 138.412 L2229.85 138.412 L2218.46 166.745 Z" fill="#000000" fill-rule="nonzero" fill-opacity="1" /><path clip-path="url(#clip530)" d="M2237.14 160.402 L2244.78 160.402 L2244.78 134.037 L2236.47 135.703 L2236.47 131.444 L2244.73 129.778 L2249.41 129.778 L2249.41 160.402 L2257.05 160.402 L2257.05 164.338 L2237.14 164.338 L2237.14 160.402 Z" fill="#000000" fill-rule="nonzero" fill-opacity="1" /></svg>
