<?xml version="1.0" encoding="utf-8"?>
<svg xmlns="http://www.w3.org/2000/svg" xmlns:xlink="http://www.w3.org/1999/xlink" width="600" height="400" viewBox="0 0 2400 1600">
<defs>
  <clipPath id="clip200">
    <rect x="0" y="0" width="2400" height="1600"/>
  </clipPath>
</defs>
<path clip-path="url(#clip200)" d="M0 1600 L2400 1600 L2400 0 L0 0  Z" fill="#ffffff" fill-rule="evenodd" fill-opacity="1"/>
<defs>
  <clipPath id="clip201">
    <rect x="480" y="0" width="1681" height="1600"/>
  </clipPath>
</defs>
<path clip-path="url(#clip200)" d="M186.274 1486.45 L2352.76 1486.45 L2352.76 47.2441 L186.274 47.2441  Z" fill="#ffffff" fill-rule="evenodd" fill-opacity="1"/>
<defs>
  <clipPath id="clip202">
    <rect x="186" y="47" width="2167" height="1440"/>
  </clipPath>
</defs>
<polyline clip-path="url(#clip202)" style="stroke:#000000; stroke-linecap:round; stroke-linejoin:round; stroke-width:2; stroke-opacity:0.1; fill:none" points="247.59,1486.45 247.59,47.2441 "/>
<polyline clip-path="url(#clip202)" style="stroke:#000000; stroke-linecap:round; stroke-linejoin:round; stroke-width:2; stroke-opacity:0.1; fill:none" points="758.552,1486.45 758.552,47.2441 "/>
<polyline clip-path="url(#clip202)" style="stroke:#000000; stroke-linecap:round; stroke-linejoin:round; stroke-width:2; stroke-opacity:0.1; fill:none" points="1269.51,1486.45 1269.51,47.2441 "/>
<polyline clip-path="url(#clip202)" style="stroke:#000000; stroke-linecap:round; stroke-linejoin:round; stroke-width:2; stroke-opacity:0.1; fill:none" points="1780.48,1486.45 1780.48,47.2441 "/>
<polyline clip-path="url(#clip202)" style="stroke:#000000; stroke-linecap:round; stroke-linejoin:round; stroke-width:2; stroke-opacity:0.1; fill:none" points="2291.44,1486.45 2291.44,47.2441 "/>
<polyline clip-path="url(#clip200)" style="stroke:#000000; stroke-linecap:round; stroke-linejoin:round; stroke-width:4; stroke-opacity:1; fill:none" points="186.274,1486.45 2352.76,1486.45 "/>
<polyline clip-path="url(#clip200)" style="stroke:#000000; stroke-linecap:round; stroke-linejoin:round; stroke-width:4; stroke-opacity:1; fill:none" points="247.59,1486.45 247.59,1467.55 "/>
<polyline clip-path="url(#clip200)" style="stroke:#000000; stroke-linecap:round; stroke-linejoin:round; stroke-width:4; stroke-opacity:1; fill:none" points="758.552,1486.45 758.552,1467.55 "/>
<polyline clip-path="url(#clip200)" style="stroke:#000000; stroke-linecap:round; stroke-linejoin:round; stroke-width:4; stroke-opacity:1; fill:none" points="1269.51,1486.45 1269.51,1467.55 "/>
<polyline clip-path="url(#clip200)" style="stroke:#000000; stroke-linecap:round; stroke-linejoin:round; stroke-width:4; stroke-opacity:1; fill:none" points="1780.48,1486.45 1780.48,1467.55 "/>
<polyline clip-path="url(#clip200)" style="stroke:#000000; stroke-linecap:round; stroke-linejoin:round; stroke-width:4; stroke-opacity:1; fill:none" points="2291.44,1486.45 2291.44,1467.55 "/>
<path clip-path="url(#clip200)" d="M247.59 1517.37 Q243.978 1517.37 242.15 1520.93 Q240.344 1524.47 240.344 1531.6 Q240.344 1538.71 242.15 1542.27 Q243.978 1545.82 247.59 1545.82 Q251.224 1545.82 253.029 1542.27 Q254.858 1538.71 254.858 1531.6 Q254.858 1524.47 253.029 1520.93 Q251.224 1517.37 247.59 1517.37 M247.59 1513.66 Q253.4 1513.66 256.455 1518.27 Q259.534 1522.85 259.534 1531.6 Q259.534 1540.33 256.455 1544.94 Q253.4 1549.52 247.59 1549.52 Q241.779 1549.52 238.701 1544.94 Q235.645 1540.33 235.645 1531.6 Q235.645 1522.85 238.701 1518.27 Q241.779 1513.66 247.59 1513.66 Z" fill="#000000" fill-rule="nonzero" fill-opacity="1" /><path clip-path="url(#clip200)" d="M718.171 1514.29 L736.527 1514.29 L736.527 1518.22 L722.453 1518.22 L722.453 1526.7 Q723.471 1526.35 724.49 1526.19 Q725.508 1526 726.527 1526 Q732.314 1526 735.694 1529.17 Q739.073 1532.34 739.073 1537.76 Q739.073 1543.34 735.601 1546.44 Q732.129 1549.52 725.809 1549.52 Q723.633 1549.52 721.365 1549.15 Q719.12 1548.78 716.712 1548.04 L716.712 1543.34 Q718.796 1544.47 721.018 1545.03 Q723.24 1545.58 725.717 1545.58 Q729.721 1545.58 732.059 1543.48 Q734.397 1541.37 734.397 1537.76 Q734.397 1534.15 732.059 1532.04 Q729.721 1529.94 725.717 1529.94 Q723.842 1529.94 721.967 1530.35 Q720.115 1530.77 718.171 1531.65 L718.171 1514.29 Z" fill="#000000" fill-rule="nonzero" fill-opacity="1" /><path clip-path="url(#clip200)" d="M758.286 1517.37 Q754.675 1517.37 752.846 1520.93 Q751.041 1524.47 751.041 1531.6 Q751.041 1538.71 752.846 1542.27 Q754.675 1545.82 758.286 1545.82 Q761.92 1545.82 763.726 1542.27 Q765.555 1538.71 765.555 1531.6 Q765.555 1524.47 763.726 1520.93 Q761.92 1517.37 758.286 1517.37 M758.286 1513.66 Q764.096 1513.66 767.152 1518.27 Q770.23 1522.85 770.23 1531.6 Q770.23 1540.33 767.152 1544.94 Q764.096 1549.52 758.286 1549.52 Q752.476 1549.52 749.397 1544.94 Q746.342 1540.33 746.342 1531.6 Q746.342 1522.85 749.397 1518.27 Q752.476 1513.66 758.286 1513.66 Z" fill="#000000" fill-rule="nonzero" fill-opacity="1" /><path clip-path="url(#clip200)" d="M788.448 1517.37 Q784.837 1517.37 783.008 1520.93 Q781.203 1524.47 781.203 1531.6 Q781.203 1538.71 783.008 1542.27 Q784.837 1545.82 788.448 1545.82 Q792.082 1545.82 793.888 1542.27 Q795.716 1538.71 795.716 1531.6 Q795.716 1524.47 793.888 1520.93 Q792.082 1517.37 788.448 1517.37 M788.448 1513.66 Q794.258 1513.66 797.314 1518.27 Q800.392 1522.85 800.392 1531.6 Q800.392 1540.33 797.314 1544.94 Q794.258 1549.52 788.448 1549.52 Q782.638 1549.52 779.559 1544.94 Q776.504 1540.33 776.504 1531.6 Q776.504 1522.85 779.559 1518.27 Q782.638 1513.66 788.448 1513.66 Z" fill="#000000" fill-rule="nonzero" fill-opacity="1" /><path clip-path="url(#clip200)" d="M1214.04 1544.91 L1221.68 1544.91 L1221.68 1518.55 L1213.37 1520.21 L1213.37 1515.95 L1221.63 1514.29 L1226.31 1514.29 L1226.31 1544.91 L1233.95 1544.91 L1233.95 1548.85 L1214.04 1548.85 L1214.04 1544.91 Z" fill="#000000" fill-rule="nonzero" fill-opacity="1" /><path clip-path="url(#clip200)" d="M1253.39 1517.37 Q1249.78 1517.37 1247.95 1520.93 Q1246.15 1524.47 1246.15 1531.6 Q1246.15 1538.71 1247.95 1542.27 Q1249.78 1545.82 1253.39 1545.82 Q1257.03 1545.82 1258.83 1542.27 Q1260.66 1538.71 1260.66 1531.6 Q1260.66 1524.47 1258.83 1520.93 Q1257.03 1517.37 1253.39 1517.37 M1253.39 1513.66 Q1259.2 1513.66 1262.26 1518.27 Q1265.34 1522.85 1265.34 1531.6 Q1265.34 1540.33 1262.26 1544.94 Q1259.2 1549.52 1253.39 1549.52 Q1247.58 1549.52 1244.5 1544.94 Q1241.45 1540.33 1241.45 1531.6 Q1241.45 1522.85 1244.5 1518.27 Q1247.58 1513.66 1253.39 1513.66 Z" fill="#000000" fill-rule="nonzero" fill-opacity="1" /><path clip-path="url(#clip200)" d="M1283.55 1517.37 Q1279.94 1517.37 1278.11 1520.93 Q1276.31 1524.47 1276.31 1531.6 Q1276.31 1538.71 1278.11 1542.27 Q1279.94 1545.82 1283.55 1545.82 Q1287.19 1545.82 1288.99 1542.27 Q1290.82 1538.71 1290.82 1531.6 Q1290.82 1524.47 1288.99 1520.93 Q1287.19 1517.37 1283.55 1517.37 M1283.55 1513.66 Q1289.36 1513.66 1292.42 1518.27 Q1295.5 1522.85 1295.5 1531.6 Q1295.5 1540.33 1292.42 1544.94 Q1289.36 1549.52 1283.55 1549.52 Q1277.74 1549.52 1274.67 1544.94 Q1271.61 1540.33 1271.61 1531.6 Q1271.61 1522.85 1274.67 1518.27 Q1277.74 1513.66 1283.55 1513.66 Z" fill="#000000" fill-rule="nonzero" fill-opacity="1" /><path clip-path="url(#clip200)" d="M1313.72 1517.37 Q1310.11 1517.37 1308.28 1520.93 Q1306.47 1524.47 1306.47 1531.6 Q1306.47 1538.71 1308.28 1542.27 Q1310.11 1545.82 1313.72 1545.82 Q1317.35 1545.82 1319.16 1542.27 Q1320.98 1538.71 1320.98 1531.6 Q1320.98 1524.47 1319.16 1520.93 Q1317.35 1517.37 1313.72 1517.37 M1313.72 1513.66 Q1319.53 1513.66 1322.58 1518.27 Q1325.66 1522.85 1325.66 1531.6 Q1325.66 1540.33 1322.58 1544.94 Q1319.53 1549.52 1313.72 1549.52 Q1307.91 1549.52 1304.83 1544.94 Q1301.77 1540.33 1301.77 1531.6 Q1301.77 1522.85 1304.83 1518.27 Q1307.91 1513.66 1313.72 1513.66 Z" fill="#000000" fill-rule="nonzero" fill-opacity="1" /><path clip-path="url(#clip200)" d="M1725 1544.91 L1732.64 1544.91 L1732.64 1518.55 L1724.33 1520.21 L1724.33 1515.95 L1732.6 1514.29 L1737.27 1514.29 L1737.27 1544.91 L1744.91 1544.91 L1744.91 1548.85 L1725 1548.85 L1725 1544.91 Z" fill="#000000" fill-rule="nonzero" fill-opacity="1" /><path clip-path="url(#clip200)" d="M1754.4 1514.29 L1772.76 1514.29 L1772.76 1518.22 L1758.68 1518.22 L1758.68 1526.7 Q1759.7 1526.35 1760.72 1526.19 Q1761.74 1526 1762.76 1526 Q1768.54 1526 1771.92 1529.17 Q1775.3 1532.34 1775.3 1537.76 Q1775.3 1543.34 1771.83 1546.44 Q1768.36 1549.52 1762.04 1549.52 Q1759.86 1549.52 1757.6 1549.15 Q1755.35 1548.78 1752.94 1548.04 L1752.94 1543.34 Q1755.03 1544.47 1757.25 1545.03 Q1759.47 1545.58 1761.95 1545.58 Q1765.95 1545.58 1768.29 1543.48 Q1770.63 1541.37 1770.63 1537.76 Q1770.63 1534.15 1768.29 1532.04 Q1765.95 1529.94 1761.95 1529.94 Q1760.07 1529.94 1758.2 1530.35 Q1756.35 1530.77 1754.4 1531.65 L1754.4 1514.29 Z" fill="#000000" fill-rule="nonzero" fill-opacity="1" /><path clip-path="url(#clip200)" d="M1794.52 1517.37 Q1790.91 1517.37 1789.08 1520.93 Q1787.27 1524.47 1787.27 1531.6 Q1787.27 1538.71 1789.08 1542.27 Q1790.91 1545.82 1794.52 1545.82 Q1798.15 1545.82 1799.96 1542.27 Q1801.79 1538.71 1801.79 1531.6 Q1801.79 1524.47 1799.96 1520.93 Q1798.15 1517.37 1794.52 1517.37 M1794.52 1513.66 Q1800.33 1513.66 1803.38 1518.27 Q1806.46 1522.85 1806.46 1531.6 Q1806.46 1540.33 1803.38 1544.94 Q1800.33 1549.52 1794.52 1549.52 Q1788.71 1549.52 1785.63 1544.94 Q1782.57 1540.33 1782.57 1531.6 Q1782.57 1522.85 1785.63 1518.27 Q1788.71 1513.66 1794.52 1513.66 Z" fill="#000000" fill-rule="nonzero" fill-opacity="1" /><path clip-path="url(#clip200)" d="M1824.68 1517.37 Q1821.07 1517.37 1819.24 1520.93 Q1817.43 1524.47 1817.43 1531.6 Q1817.43 1538.71 1819.24 1542.27 Q1821.07 1545.82 1824.68 1545.82 Q1828.31 1545.82 1830.12 1542.27 Q1831.95 1538.71 1831.95 1531.6 Q1831.95 1524.47 1830.12 1520.93 Q1828.31 1517.37 1824.68 1517.37 M1824.68 1513.66 Q1830.49 1513.66 1833.54 1518.27 Q1836.62 1522.85 1836.62 1531.6 Q1836.62 1540.33 1833.54 1544.94 Q1830.49 1549.52 1824.68 1549.52 Q1818.87 1549.52 1815.79 1544.94 Q1812.73 1540.33 1812.73 1531.6 Q1812.73 1522.85 1815.79 1518.27 Q1818.87 1513.66 1824.68 1513.66 Z" fill="#000000" fill-rule="nonzero" fill-opacity="1" /><path clip-path="url(#clip200)" d="M2240.05 1544.91 L2256.37 1544.91 L2256.37 1548.85 L2234.43 1548.85 L2234.43 1544.91 Q2237.09 1542.16 2241.67 1537.53 Q2246.28 1532.88 2247.46 1531.53 Q2249.7 1529.01 2250.58 1527.27 Q2251.49 1525.51 2251.49 1523.82 Q2251.49 1521.07 2249.54 1519.33 Q2247.62 1517.6 2244.52 1517.6 Q2242.32 1517.6 2239.87 1518.36 Q2237.44 1519.13 2234.66 1520.68 L2234.66 1515.95 Q2237.48 1514.82 2239.94 1514.24 Q2242.39 1513.66 2244.43 1513.66 Q2249.8 1513.66 2252.99 1516.35 Q2256.19 1519.03 2256.19 1523.52 Q2256.19 1525.65 2255.38 1527.57 Q2254.59 1529.47 2252.48 1532.07 Q2251.9 1532.74 2248.8 1535.95 Q2245.7 1539.15 2240.05 1544.91 Z" fill="#000000" fill-rule="nonzero" fill-opacity="1" /><path clip-path="url(#clip200)" d="M2276.19 1517.37 Q2272.57 1517.37 2270.75 1520.93 Q2268.94 1524.47 2268.94 1531.6 Q2268.94 1538.71 2270.75 1542.27 Q2272.57 1545.82 2276.19 1545.82 Q2279.82 1545.82 2281.63 1542.27 Q2283.45 1538.71 2283.45 1531.6 Q2283.45 1524.47 2281.63 1520.93 Q2279.82 1517.37 2276.19 1517.37 M2276.19 1513.66 Q2282 1513.66 2285.05 1518.27 Q2288.13 1522.85 2288.13 1531.6 Q2288.13 1540.33 2285.05 1544.94 Q2282 1549.52 2276.19 1549.52 Q2270.38 1549.52 2267.3 1544.94 Q2264.24 1540.33 2264.24 1531.6 Q2264.24 1522.85 2267.3 1518.27 Q2270.38 1513.66 2276.19 1513.66 Z" fill="#000000" fill-rule="nonzero" fill-opacity="1" /><path clip-path="url(#clip200)" d="M2306.35 1517.37 Q2302.74 1517.37 2300.91 1520.93 Q2299.1 1524.47 2299.1 1531.6 Q2299.1 1538.71 2300.91 1542.27 Q2302.74 1545.82 2306.35 1545.82 Q2309.98 1545.82 2311.79 1542.27 Q2313.62 1538.71 2313.62 1531.6 Q2313.62 1524.47 2311.79 1520.93 Q2309.98 1517.37 2306.35 1517.37 M2306.35 1513.66 Q2312.16 1513.66 2315.21 1518.27 Q2318.29 1522.85 2318.29 1531.6 Q2318.29 1540.33 2315.21 1544.94 Q2312.16 1549.52 2306.35 1549.52 Q2300.54 1549.52 2297.46 1544.94 Q2294.4 1540.33 2294.4 1531.6 Q2294.4 1522.85 2297.46 1518.27 Q2300.54 1513.66 2306.35 1513.66 Z" fill="#000000" fill-rule="nonzero" fill-opacity="1" /><path clip-path="url(#clip200)" d="M2336.51 1517.37 Q2332.9 1517.37 2331.07 1520.93 Q2329.26 1524.47 2329.26 1531.6 Q2329.26 1538.71 2331.07 1542.27 Q2332.9 1545.82 2336.51 1545.82 Q2340.14 1545.82 2341.95 1542.27 Q2343.78 1538.71 2343.78 1531.6 Q2343.78 1524.47 2341.95 1520.93 Q2340.14 1517.37 2336.51 1517.37 M2336.51 1513.66 Q2342.32 1513.66 2345.38 1518.27 Q2348.45 1522.85 2348.45 1531.6 Q2348.45 1540.33 2345.38 1544.94 Q2342.32 1549.52 2336.51 1549.52 Q2330.7 1549.52 2327.62 1544.94 Q2324.57 1540.33 2324.57 1531.6 Q2324.57 1522.85 2327.62 1518.27 Q2330.7 1513.66 2336.51 1513.66 Z" fill="#000000" fill-rule="nonzero" fill-opacity="1" /><polyline clip-path="url(#clip202)" style="stroke:#000000; stroke-linecap:round; stroke-linejoin:round; stroke-width:2; stroke-opacity:0.1; fill:none" points="186.274,1228.72 2352.76,1228.72 "/>
<polyline clip-path="url(#clip202)" style="stroke:#000000; stroke-linecap:round; stroke-linejoin:round; stroke-width:2; stroke-opacity:0.1; fill:none" points="186.274,953.17 2352.76,953.17 "/>
<polyline clip-path="url(#clip202)" style="stroke:#000000; stroke-linecap:round; stroke-linejoin:round; stroke-width:2; stroke-opacity:0.1; fill:none" points="186.274,677.624 2352.76,677.624 "/>
<polyline clip-path="url(#clip202)" style="stroke:#000000; stroke-linecap:round; stroke-linejoin:round; stroke-width:2; stroke-opacity:0.1; fill:none" points="186.274,402.078 2352.76,402.078 "/>
<polyline clip-path="url(#clip202)" style="stroke:#000000; stroke-linecap:round; stroke-linejoin:round; stroke-width:2; stroke-opacity:0.1; fill:none" points="186.274,126.532 2352.76,126.532 "/>
<polyline clip-path="url(#clip200)" style="stroke:#000000; stroke-linecap:round; stroke-linejoin:round; stroke-width:4; stroke-opacity:1; fill:none" points="186.274,1486.45 186.274,47.2441 "/>
<polyline clip-path="url(#clip200)" style="stroke:#000000; stroke-linecap:round; stroke-linejoin:round; stroke-width:4; stroke-opacity:1; fill:none" points="186.274,1228.72 205.172,1228.72 "/>
<polyline clip-path="url(#clip200)" style="stroke:#000000; stroke-linecap:round; stroke-linejoin:round; stroke-width:4; stroke-opacity:1; fill:none" points="186.274,953.17 205.172,953.17 "/>
<polyline clip-path="url(#clip200)" style="stroke:#000000; stroke-linecap:round; stroke-linejoin:round; stroke-width:4; stroke-opacity:1; fill:none" points="186.274,677.624 205.172,677.624 "/>
<polyline clip-path="url(#clip200)" style="stroke:#000000; stroke-linecap:round; stroke-linejoin:round; stroke-width:4; stroke-opacity:1; fill:none" points="186.274,402.078 205.172,402.078 "/>
<polyline clip-path="url(#clip200)" style="stroke:#000000; stroke-linecap:round; stroke-linejoin:round; stroke-width:4; stroke-opacity:1; fill:none" points="186.274,126.532 205.172,126.532 "/>
<path clip-path="url(#clip200)" d="M63.9319 1214.52 Q60.3208 1214.52 58.4921 1218.08 Q56.6865 1221.62 56.6865 1228.75 Q56.6865 1235.86 58.4921 1239.42 Q60.3208 1242.96 63.9319 1242.96 Q67.5661 1242.96 69.3717 1239.42 Q71.2004 1235.86 71.2004 1228.75 Q71.2004 1221.62 69.3717 1218.08 Q67.5661 1214.52 63.9319 1214.52 M63.9319 1210.81 Q69.742 1210.81 72.7976 1215.42 Q75.8763 1220 75.8763 1228.75 Q75.8763 1237.48 72.7976 1242.08 Q69.742 1246.67 63.9319 1246.67 Q58.1217 1246.67 55.043 1242.08 Q51.9875 1237.48 51.9875 1228.75 Q51.9875 1220 55.043 1215.42 Q58.1217 1210.81 63.9319 1210.81 Z" fill="#000000" fill-rule="nonzero" fill-opacity="1" /><path clip-path="url(#clip200)" d="M84.0938 1240.12 L88.978 1240.12 L88.978 1246 L84.0938 1246 L84.0938 1240.12 Z" fill="#000000" fill-rule="nonzero" fill-opacity="1" /><path clip-path="url(#clip200)" d="M109.163 1214.52 Q105.552 1214.52 103.723 1218.08 Q101.918 1221.62 101.918 1228.75 Q101.918 1235.86 103.723 1239.42 Q105.552 1242.96 109.163 1242.96 Q112.797 1242.96 114.603 1239.42 Q116.432 1235.86 116.432 1228.75 Q116.432 1221.62 114.603 1218.08 Q112.797 1214.52 109.163 1214.52 M109.163 1210.81 Q114.973 1210.81 118.029 1215.42 Q121.107 1220 121.107 1228.75 Q121.107 1237.48 118.029 1242.08 Q114.973 1246.67 109.163 1246.67 Q103.353 1246.67 100.274 1242.08 Q97.2187 1237.48 97.2187 1228.75 Q97.2187 1220 100.274 1215.42 Q103.353 1210.81 109.163 1210.81 Z" fill="#000000" fill-rule="nonzero" fill-opacity="1" /><path clip-path="url(#clip200)" d="M129.371 1211.44 L147.728 1211.44 L147.728 1215.37 L133.654 1215.37 L133.654 1223.84 Q134.672 1223.5 135.691 1223.33 Q136.709 1223.15 137.728 1223.15 Q143.515 1223.15 146.894 1226.32 Q150.274 1229.49 150.274 1234.91 Q150.274 1240.49 146.802 1243.59 Q143.33 1246.67 137.01 1246.67 Q134.834 1246.67 132.566 1246.3 Q130.32 1245.93 127.913 1245.19 L127.913 1240.49 Q129.996 1241.62 132.219 1242.18 Q134.441 1242.73 136.918 1242.73 Q140.922 1242.73 143.26 1240.63 Q145.598 1238.52 145.598 1234.91 Q145.598 1231.3 143.26 1229.19 Q140.922 1227.08 136.918 1227.08 Q135.043 1227.08 133.168 1227.5 Q131.316 1227.92 129.371 1228.8 L129.371 1211.44 Z" fill="#000000" fill-rule="nonzero" fill-opacity="1" /><path clip-path="url(#clip200)" d="M62.9365 938.969 Q59.3254 938.969 57.4967 942.534 Q55.6912 946.076 55.6912 953.205 Q55.6912 960.312 57.4967 963.876 Q59.3254 967.418 62.9365 967.418 Q66.5707 967.418 68.3763 963.876 Q70.205 960.312 70.205 953.205 Q70.205 946.076 68.3763 942.534 Q66.5707 938.969 62.9365 938.969 M62.9365 935.265 Q68.7467 935.265 71.8022 939.872 Q74.8809 944.455 74.8809 953.205 Q74.8809 961.932 71.8022 966.538 Q68.7467 971.122 62.9365 971.122 Q57.1264 971.122 54.0477 966.538 Q50.9921 961.932 50.9921 953.205 Q50.9921 944.455 54.0477 939.872 Q57.1264 935.265 62.9365 935.265 Z" fill="#000000" fill-rule="nonzero" fill-opacity="1" /><path clip-path="url(#clip200)" d="M83.0984 964.571 L87.9827 964.571 L87.9827 970.45 L83.0984 970.45 L83.0984 964.571 Z" fill="#000000" fill-rule="nonzero" fill-opacity="1" /><path clip-path="url(#clip200)" d="M98.978 966.515 L106.617 966.515 L106.617 940.15 L98.3067 941.816 L98.3067 937.557 L106.571 935.89 L111.246 935.89 L111.246 966.515 L118.885 966.515 L118.885 970.45 L98.978 970.45 L98.978 966.515 Z" fill="#000000" fill-rule="nonzero" fill-opacity="1" /><path clip-path="url(#clip200)" d="M138.33 938.969 Q134.719 938.969 132.89 942.534 Q131.084 946.076 131.084 953.205 Q131.084 960.312 132.89 963.876 Q134.719 967.418 138.33 967.418 Q141.964 967.418 143.769 963.876 Q145.598 960.312 145.598 953.205 Q145.598 946.076 143.769 942.534 Q141.964 938.969 138.33 938.969 M138.33 935.265 Q144.14 935.265 147.195 939.872 Q150.274 944.455 150.274 953.205 Q150.274 961.932 147.195 966.538 Q144.14 971.122 138.33 971.122 Q132.519 971.122 129.441 966.538 Q126.385 961.932 126.385 953.205 Q126.385 944.455 129.441 939.872 Q132.519 935.265 138.33 935.265 Z" fill="#000000" fill-rule="nonzero" fill-opacity="1" /><path clip-path="url(#clip200)" d="M63.9319 663.423 Q60.3208 663.423 58.4921 666.988 Q56.6865 670.529 56.6865 677.659 Q56.6865 684.766 58.4921 688.33 Q60.3208 691.872 63.9319 691.872 Q67.5661 691.872 69.3717 688.33 Q71.2004 684.766 71.2004 677.659 Q71.2004 670.529 69.3717 666.988 Q67.5661 663.423 63.9319 663.423 M63.9319 659.719 Q69.742 659.719 72.7976 664.326 Q75.8763 668.909 75.8763 677.659 Q75.8763 686.386 72.7976 690.992 Q69.742 695.576 63.9319 695.576 Q58.1217 695.576 55.043 690.992 Q51.9875 686.386 51.9875 677.659 Q51.9875 668.909 55.043 664.326 Q58.1217 659.719 63.9319 659.719 Z" fill="#000000" fill-rule="nonzero" fill-opacity="1" /><path clip-path="url(#clip200)" d="M84.0938 689.025 L88.978 689.025 L88.978 694.904 L84.0938 694.904 L84.0938 689.025 Z" fill="#000000" fill-rule="nonzero" fill-opacity="1" /><path clip-path="url(#clip200)" d="M99.9733 690.969 L107.612 690.969 L107.612 664.604 L99.3021 666.27 L99.3021 662.011 L107.566 660.344 L112.242 660.344 L112.242 690.969 L119.881 690.969 L119.881 694.904 L99.9733 694.904 L99.9733 690.969 Z" fill="#000000" fill-rule="nonzero" fill-opacity="1" /><path clip-path="url(#clip200)" d="M129.371 660.344 L147.728 660.344 L147.728 664.28 L133.654 664.28 L133.654 672.752 Q134.672 672.404 135.691 672.242 Q136.709 672.057 137.728 672.057 Q143.515 672.057 146.894 675.229 Q150.274 678.4 150.274 683.816 Q150.274 689.395 146.802 692.497 Q143.33 695.576 137.01 695.576 Q134.834 695.576 132.566 695.205 Q130.32 694.835 127.913 694.094 L127.913 689.395 Q129.996 690.529 132.219 691.085 Q134.441 691.64 136.918 691.64 Q140.922 691.64 143.26 689.534 Q145.598 687.428 145.598 683.816 Q145.598 680.205 143.26 678.099 Q140.922 675.992 136.918 675.992 Q135.043 675.992 133.168 676.409 Q131.316 676.826 129.371 677.705 L129.371 660.344 Z" fill="#000000" fill-rule="nonzero" fill-opacity="1" /><path clip-path="url(#clip200)" d="M62.9365 387.877 Q59.3254 387.877 57.4967 391.442 Q55.6912 394.983 55.6912 402.113 Q55.6912 409.219 57.4967 412.784 Q59.3254 416.326 62.9365 416.326 Q66.5707 416.326 68.3763 412.784 Q70.205 409.219 70.205 402.113 Q70.205 394.983 68.3763 391.442 Q66.5707 387.877 62.9365 387.877 M62.9365 384.173 Q68.7467 384.173 71.8022 388.78 Q74.8809 393.363 74.8809 402.113 Q74.8809 410.84 71.8022 415.446 Q68.7467 420.03 62.9365 420.03 Q57.1264 420.03 54.0477 415.446 Q50.9921 410.84 50.9921 402.113 Q50.9921 393.363 54.0477 388.78 Q57.1264 384.173 62.9365 384.173 Z" fill="#000000" fill-rule="nonzero" fill-opacity="1" /><path clip-path="url(#clip200)" d="M83.0984 413.479 L87.9827 413.479 L87.9827 419.358 L83.0984 419.358 L83.0984 413.479 Z" fill="#000000" fill-rule="nonzero" fill-opacity="1" /><path clip-path="url(#clip200)" d="M102.196 415.423 L118.515 415.423 L118.515 419.358 L96.5706 419.358 L96.5706 415.423 Q99.2326 412.669 103.816 408.039 Q108.422 403.386 109.603 402.044 Q111.848 399.52 112.728 397.784 Q113.631 396.025 113.631 394.335 Q113.631 391.581 111.686 389.845 Q109.765 388.108 106.663 388.108 Q104.464 388.108 102.01 388.872 Q99.5798 389.636 96.8021 391.187 L96.8021 386.465 Q99.6261 385.331 102.08 384.752 Q104.534 384.173 106.571 384.173 Q111.941 384.173 115.135 386.858 Q118.33 389.544 118.33 394.034 Q118.33 396.164 117.52 398.085 Q116.733 399.983 114.626 402.576 Q114.047 403.247 110.946 406.465 Q107.844 409.659 102.196 415.423 Z" fill="#000000" fill-rule="nonzero" fill-opacity="1" /><path clip-path="url(#clip200)" d="M138.33 387.877 Q134.719 387.877 132.89 391.442 Q131.084 394.983 131.084 402.113 Q131.084 409.219 132.89 412.784 Q134.719 416.326 138.33 416.326 Q141.964 416.326 143.769 412.784 Q145.598 409.219 145.598 402.113 Q145.598 394.983 143.769 391.442 Q141.964 387.877 138.33 387.877 M138.33 384.173 Q144.14 384.173 147.195 388.78 Q150.274 393.363 150.274 402.113 Q150.274 410.84 147.195 415.446 Q144.14 420.03 138.33 420.03 Q132.519 420.03 129.441 415.446 Q126.385 410.84 126.385 402.113 Q126.385 393.363 129.441 388.78 Q132.519 384.173 138.33 384.173 Z" fill="#000000" fill-rule="nonzero" fill-opacity="1" /><path clip-path="url(#clip200)" d="M63.9319 112.331 Q60.3208 112.331 58.4921 115.896 Q56.6865 119.437 56.6865 126.567 Q56.6865 133.673 58.4921 137.238 Q60.3208 140.78 63.9319 140.78 Q67.5661 140.78 69.3717 137.238 Q71.2004 133.673 71.2004 126.567 Q71.2004 119.437 69.3717 115.896 Q67.5661 112.331 63.9319 112.331 M63.9319 108.627 Q69.742 108.627 72.7976 113.234 Q75.8763 117.817 75.8763 126.567 Q75.8763 135.294 72.7976 139.9 Q69.742 144.484 63.9319 144.484 Q58.1217 144.484 55.043 139.9 Q51.9875 135.294 51.9875 126.567 Q51.9875 117.817 55.043 113.234 Q58.1217 108.627 63.9319 108.627 Z" fill="#000000" fill-rule="nonzero" fill-opacity="1" /><path clip-path="url(#clip200)" d="M84.0938 137.933 L88.978 137.933 L88.978 143.812 L84.0938 143.812 L84.0938 137.933 Z" fill="#000000" fill-rule="nonzero" fill-opacity="1" /><path clip-path="url(#clip200)" d="M103.191 139.877 L119.51 139.877 L119.51 143.812 L97.566 143.812 L97.566 139.877 Q100.228 137.122 104.811 132.493 Q109.418 127.84 110.598 126.497 Q112.844 123.974 113.723 122.238 Q114.626 120.479 114.626 118.789 Q114.626 116.035 112.682 114.298 Q110.76 112.562 107.658 112.562 Q105.459 112.562 103.006 113.326 Q100.575 114.09 97.7974 115.641 L97.7974 110.919 Q100.621 109.785 103.075 109.206 Q105.529 108.627 107.566 108.627 Q112.936 108.627 116.131 111.312 Q119.325 113.998 119.325 118.488 Q119.325 120.618 118.515 122.539 Q117.728 124.437 115.621 127.03 Q115.043 127.701 111.941 130.919 Q108.839 134.113 103.191 139.877 Z" fill="#000000" fill-rule="nonzero" fill-opacity="1" /><path clip-path="url(#clip200)" d="M129.371 109.252 L147.728 109.252 L147.728 113.187 L133.654 113.187 L133.654 121.66 Q134.672 121.312 135.691 121.15 Q136.709 120.965 137.728 120.965 Q143.515 120.965 146.894 124.136 Q150.274 127.308 150.274 132.724 Q150.274 138.303 146.802 141.405 Q143.33 144.484 137.01 144.484 Q134.834 144.484 132.566 144.113 Q130.32 143.743 127.913 143.002 L127.913 138.303 Q129.996 139.437 132.219 139.993 Q134.441 140.548 136.918 140.548 Q140.922 140.548 143.26 138.442 Q145.598 136.335 145.598 132.724 Q145.598 129.113 143.26 127.007 Q140.922 124.9 136.918 124.9 Q135.043 124.9 133.168 125.317 Q131.316 125.734 129.371 126.613 L129.371 109.252 Z" fill="#000000" fill-rule="nonzero" fill-opacity="1" /><polyline clip-path="url(#clip202)" style="stroke:#009af9; stroke-linecap:round; stroke-linejoin:round; stroke-width:4; stroke-opacity:1; fill:none" points="247.59,87.9763 248.611,95.7326 249.633,103.427 250.655,111.06 251.677,118.632 252.699,126.144 253.721,133.596 254.743,140.989 255.765,148.323 256.787,155.6 257.809,162.819 258.831,169.981 259.853,177.087 260.875,184.137 261.896,191.132 262.918,198.072 263.94,204.958 264.962,211.79 265.984,218.569 267.006,225.295 268.028,231.97 269.05,238.592 270.072,245.164 271.094,251.684 272.116,258.155 273.138,264.576 274.16,270.947 275.182,277.27 276.203,283.544 277.225,289.771 278.247,295.95 279.269,302.082 280.291,308.167 281.313,314.206 282.335,320.2 283.357,326.149 284.379,332.052 285.401,337.911 286.423,343.726 287.445,349.498 288.467,355.226 289.488,360.912 290.51,366.555 291.532,372.157 292.554,377.716 293.576,383.235 294.598,388.712 295.62,394.149 296.642,399.546 297.664,404.904 298.686,410.222 299.708,415.5 300.73,420.741 301.752,425.943 302.774,431.107 303.795,436.233 304.817,441.323 305.839,446.375 306.861,451.391 307.883,456.37 308.905,461.314 309.927,466.222 310.949,471.095 311.971,475.933 312.993,480.736 314.015,485.505 315.037,490.24 316.059,494.941 317.08,499.609 318.102,504.243 319.124,508.845 320.146,513.414 321.168,517.952 322.19,522.457 323.212,526.93 324.234,531.373 325.256,535.784 326.278,540.164 327.3,544.514 328.322,548.833 329.344,553.123 330.365,557.383 331.387,561.613 332.409,565.814 333.431,569.986 334.453,574.129 335.475,578.244 336.497,582.331 337.519,586.39 338.541,590.421 339.563,594.425 340.585,598.401 341.607,602.35 342.629,606.273 343.651,610.169 344.672,614.039 345.694,617.882 346.716,621.7 347.738,625.492 348.76,629.259 349.782,633.001 350.804,636.717 351.826,640.409 352.848,644.077 353.87,647.72 354.892,651.338 355.914,654.933 356.936,658.505 357.957,662.052 358.979,665.577 360.001,669.078 361.023,672.556 362.045,676.012 363.067,679.445 364.089,682.855 365.111,686.244 366.133,689.61 367.155,692.955 368.177,696.278 369.199,699.58 370.221,702.86 371.243,706.119 372.264,709.358 373.286,712.575 374.308,715.772 375.33,718.949 376.352,722.106 377.374,725.242 378.396,728.359 379.418,731.455 380.44,734.533 381.462,737.59 382.484,740.629 383.506,743.649 384.528,746.649 385.549,749.631 386.571,752.594 387.593,755.539 388.615,758.465 389.637,761.373 390.659,764.263 391.681,767.136 392.703,769.99 393.725,772.827 394.747,775.647 395.769,778.449 396.791,781.234 397.813,784.002 398.834,786.753 399.856,789.487 400.878,792.204 401.9,794.906 402.922,797.59 403.944,800.259 404.966,802.911 405.988,805.548 407.01,808.168 408.032,810.773 409.054,813.362 410.076,815.936 411.098,818.494 412.12,821.037 413.141,823.565 414.163,826.078 415.185,828.576 416.207,831.059 417.229,833.528 418.251,835.982 419.273,838.421 420.295,840.847 421.317,843.258 422.339,845.655 423.361,848.037 424.383,850.406 425.405,852.762 426.426,855.103 427.448,857.431 428.47,859.746 429.492,862.047 430.514,864.335 431.536,866.61 432.558,868.871 433.58,871.12 434.602,873.356 435.624,875.579 436.646,877.789 437.668,879.987 438.69,882.172 439.712,884.345 440.733,886.506 441.755,888.654 442.777,890.791 443.799,892.915 444.821,895.027 445.843,897.128 446.865,899.216 447.887,901.293 448.909,903.359 449.931,905.413 450.953,907.455 451.975,909.487 452.997,911.507 454.018,913.515 455.04,915.513 456.062,917.5 457.084,919.476 458.106,921.441 459.128,923.395 460.15,925.338 461.172,927.271 462.194,929.193 463.216,931.105 464.238,933.007 465.26,934.898 466.282,936.779 467.303,938.65 468.325,940.511 469.347,942.361 470.369,944.202 471.391,946.033 472.413,947.854 473.435,949.665 474.457,951.467 475.479,953.259 476.501,955.042 477.523,956.815 478.545,958.579 479.567,960.333 480.589,962.078 481.61,963.814 482.632,965.541 483.654,967.259 484.676,968.968 485.698,970.668 486.72,972.359 487.742,974.041 488.764,975.714 489.786,977.379 490.808,979.035 491.83,980.683 492.852,982.322 493.874,983.952 494.895,985.575 495.917,987.188 496.939,988.794 497.961,990.391 498.983,991.98 500.005,993.562 501.027,995.135 502.049,996.7 503.071,998.257 504.093,999.806 505.115,1001.35 506.137,1002.88 507.159,1004.41 508.181,1005.92 509.202,1007.44 510.224,1008.94 511.246,1010.43 512.268,1011.92 513.29,1013.4 514.312,1014.88 515.334,1016.34 516.356,1017.8 517.378,1019.25 518.4,1020.69 519.422,1022.13 520.444,1023.56 521.466,1024.98 522.487,1026.4 523.509,1027.81 524.531,1029.21 525.553,1030.61 526.575,1032 527.597,1033.38 528.619,1034.75 529.641,1036.12 530.663,1037.48 531.685,1038.84 532.707,1040.18 533.729,1041.53 534.751,1042.86 535.772,1044.19 536.794,1045.51 537.816,1046.83 538.838,1048.14 539.86,1049.44 540.882,1050.74 541.904,1052.03 542.926,1053.32 543.948,1054.6 544.97,1055.87 545.992,1057.14 547.014,1058.4 548.036,1059.65 549.058,1060.9 550.079,1062.15 551.101,1063.38 552.123,1064.62 553.145,1065.84 554.167,1067.06 555.189,1068.28 556.211,1069.49 557.233,1070.69 558.255,1071.89 559.277,1073.08 560.299,1074.27 561.321,1075.45 562.343,1076.62 563.364,1077.79 564.386,1078.96 565.408,1080.12 566.43,1081.27 567.452,1082.42 568.474,1083.57 569.496,1084.71 570.518,1085.84 571.54,1086.97 572.562,1088.09 573.584,1089.21 574.606,1090.32 575.628,1091.43 576.65,1092.53 577.671,1093.63 578.693,1094.72 579.715,1095.81 580.737,1096.9 581.759,1097.98 582.781,1099.05 583.803,1100.12 584.825,1101.18 585.847,1102.24 586.869,1103.3 587.891,1104.35 588.913,1105.39 589.935,1106.43 590.956,1107.47 591.978,1108.5 593,1109.53 594.022,1110.55 595.044,1111.57 596.066,1112.59 597.088,1113.6 598.11,1114.6 599.132,1115.6 600.154,1116.6 601.176,1117.59 602.198,1118.58 603.22,1119.56 604.242,1120.54 605.263,1121.52 606.285,1122.49 607.307,1123.45 608.329,1124.42 609.351,1125.37 610.373,1126.33 611.395,1127.28 612.417,1128.23 613.439,1129.17 614.461,1130.11 615.483,1131.04 616.505,1131.97 617.527,1132.9 618.548,1133.82 619.57,1134.74 620.592,1135.65 621.614,1136.56 622.636,1137.47 623.658,1138.37 624.68,1139.27 625.702,1140.17 626.724,1141.06 627.746,1141.95 628.768,1142.83 629.79,1143.72 630.812,1144.59 631.833,1145.47 632.855,1146.34 633.877,1147.2 634.899,1148.07 635.921,1148.93 636.943,1149.78 637.965,1150.63 638.987,1151.48 640.009,1152.33 641.031,1153.17 642.053,1154.01 643.075,1154.84 644.097,1155.68 645.119,1156.5 646.14,1157.33 647.162,1158.15 648.184,1158.97 649.206,1159.78 650.228,1160.6 651.25,1161.4 652.272,1162.21 653.294,1163.01 654.316,1163.81 655.338,1164.61 656.36,1165.4 657.382,1166.19 658.404,1166.97 659.425,1167.76 660.447,1168.54 661.469,1169.31 662.491,1170.09 663.513,1170.86 664.535,1171.63 665.557,1172.39 666.579,1173.15 667.601,1173.91 668.623,1174.67 669.645,1175.42 670.667,1176.17 671.689,1176.92 672.711,1177.66 673.732,1178.4 674.754,1179.14 675.776,1179.88 676.798,1180.61 677.82,1181.34 678.842,1182.07 679.864,1182.79 680.886,1183.51 681.908,1184.23 682.93,1184.95 683.952,1185.66 684.974,1186.37 685.996,1187.08 687.017,1187.78 688.039,1188.48 689.061,1189.18 690.083,1189.88 691.105,1190.57 692.127,1191.27 693.149,1191.95 694.171,1192.64 695.193,1193.32 696.215,1194.01 697.237,1194.68 698.259,1195.36 699.281,1196.03 700.302,1196.71 701.324,1197.37 702.346,1198.04 703.368,1198.7 704.39,1199.36 705.412,1200.02 706.434,1200.68 707.456,1201.33 708.478,1201.98 709.5,1202.63 710.522,1203.28 711.544,1203.92 712.566,1204.57 713.588,1205.21 714.609,1205.84 715.631,1206.48 716.653,1207.11 717.675,1207.74 718.697,1208.37 719.719,1208.99 720.741,1209.62 721.763,1210.24 722.785,1210.86 723.807,1211.47 724.829,1212.09 725.851,1212.7 726.873,1213.31 727.894,1213.92 728.916,1214.52 729.938,1215.12 730.96,1215.73 731.982,1216.32 733.004,1216.92 734.026,1217.52 735.048,1218.11 736.07,1218.7 737.092,1219.29 738.114,1219.87 739.136,1220.46 740.158,1221.04 741.18,1221.62 742.201,1222.2 743.223,1222.77 744.245,1223.35 745.267,1223.92 746.289,1224.49 747.311,1225.06 748.333,1225.62 749.355,1226.19 750.377,1226.75 751.399,1227.31 752.421,1227.87 753.443,1228.42 754.465,1228.98 755.486,1229.53 756.508,1230.08 757.53,1230.63 758.552,1231.17 759.574,1231.72 760.596,1232.26 761.618,1232.8 762.64,1233.34 763.662,1233.88 764.684,1234.41 765.706,1234.95 766.728,1235.48 767.75,1236.01 768.771,1236.53 769.793,1237.06 770.815,1237.59 771.837,1238.11 772.859,1238.63 773.881,1239.15 774.903,1239.66 775.925,1240.18 776.947,1240.69 777.969,1241.21 778.991,1241.72 780.013,1242.22 781.035,1242.73 782.057,1243.24 783.078,1243.74 784.1,1244.24 785.122,1244.74 786.144,1245.24 787.166,1245.74 788.188,1246.23 789.21,1246.73 790.232,1247.22 791.254,1247.71 792.276,1248.2 793.298,1248.68 794.32,1249.17 795.342,1249.65 796.363,1250.13 797.385,1250.62 798.407,1251.09 799.429,1251.57 800.451,1252.05 801.473,1252.52 802.495,1252.99 803.517,1253.47 804.539,1253.94 805.561,1254.4 806.583,1254.87 807.605,1255.33 808.627,1255.8 809.649,1256.26 810.67,1256.72 811.692,1257.18 812.714,1257.64 813.736,1258.09 814.758,1258.55 815.78,1259 816.802,1259.45 817.824,1259.9 818.846,1260.35 819.868,1260.8 820.89,1261.25 821.912,1261.69 822.934,1262.13 823.955,1262.57 824.977,1263.02 825.999,1263.45 827.021,1263.89 828.043,1264.33 829.065,1264.76 830.087,1265.2 831.109,1265.63 832.131,1266.06 833.153,1266.49 834.175,1266.92 835.197,1267.34 836.219,1267.77 837.24,1268.19 838.262,1268.61 839.284,1269.03 840.306,1269.45 841.328,1269.87 842.35,1270.29 843.372,1270.71 844.394,1271.12 845.416,1271.53 846.438,1271.95 847.46,1272.36 848.482,1272.77 849.504,1273.18 850.526,1273.58 851.547,1273.99 852.569,1274.39 853.591,1274.8 854.613,1275.2 855.635,1275.6 856.657,1276 857.679,1276.4 858.701,1276.79 859.723,1277.19 860.745,1277.59 861.767,1277.98 862.789,1278.37 863.811,1278.76 864.832,1279.15 865.854,1279.54 866.876,1279.93 867.898,1280.32 868.92,1280.7 869.942,1281.08 870.964,1281.47 871.986,1281.85 873.008,1282.23 874.03,1282.61 875.052,1282.99 876.074,1283.37 877.096,1283.74 878.118,1284.12 879.139,1284.49 880.161,1284.86 881.183,1285.24 882.205,1285.61 883.227,1285.98 884.249,1286.34 885.271,1286.71 886.293,1287.08 887.315,1287.44 888.337,1287.81 889.359,1288.17 890.381,1288.53 891.403,1288.89 892.424,1289.25 893.446,1289.61 894.468,1289.97 895.49,1290.32 896.512,1290.68 897.534,1291.03 898.556,1291.39 899.578,1291.74 900.6,1292.09 901.622,1292.44 902.644,1292.79 903.666,1293.14 904.688,1293.49 905.71,1293.83 906.731,1294.18 907.753,1294.52 908.775,1294.87 909.797,1295.21 910.819,1295.55 911.841,1295.89 912.863,1296.23 913.885,1296.57 914.907,1296.91 915.929,1297.24 916.951,1297.58 917.973,1297.91 918.995,1298.25 920.016,1298.58 921.038,1298.91 922.06,1299.24 923.082,1299.57 924.104,1299.9 925.126,1300.23 926.148,1300.56 927.17,1300.88 928.192,1301.21 929.214,1301.53 930.236,1301.86 931.258,1302.18 932.28,1302.5 933.301,1302.82 934.323,1303.14 935.345,1303.46 936.367,1303.78 937.389,1304.09 938.411,1304.41 939.433,1304.73 940.455,1305.04 941.477,1305.35 942.499,1305.67 943.521,1305.98 944.543,1306.29 945.565,1306.6 946.587,1306.91 947.608,1307.22 948.63,1307.52 949.652,1307.83 950.674,1308.14 951.696,1308.44 952.718,1308.75 953.74,1309.05 954.762,1309.35 955.784,1309.65 956.806,1309.95 957.828,1310.25 958.85,1310.55 959.872,1310.85 960.893,1311.15 961.915,1311.45 962.937,1311.74 963.959,1312.04 964.981,1312.33 966.003,1312.63 967.025,1312.92 968.047,1313.21 969.069,1313.5 970.091,1313.79 971.113,1314.08 972.135,1314.37 973.157,1314.66 974.179,1314.95 975.2,1315.23 976.222,1315.52 977.244,1315.8 978.266,1316.09 979.288,1316.37 980.31,1316.65 981.332,1316.94 982.354,1317.22 983.376,1317.5 984.398,1317.78 985.42,1318.06 986.442,1318.34 987.464,1318.61 988.485,1318.89 989.507,1319.17 990.529,1319.44 991.551,1319.72 992.573,1319.99 993.595,1320.26 994.617,1320.54 995.639,1320.81 996.661,1321.08 997.683,1321.35 998.705,1321.62 999.727,1321.89 1000.75,1322.16 1001.77,1322.42 1002.79,1322.69 1003.81,1322.96 1004.84,1323.22 1005.86,1323.49 1006.88,1323.75 1007.9,1324.01 1008.92,1324.28 1009.95,1324.54 1010.97,1324.8 1011.99,1325.06 1013.01,1325.32 1014.03,1325.58 1015.06,1325.84 1016.08,1326.1 1017.1,1326.35 1018.12,1326.61 1019.14,1326.87 1020.17,1327.12 1021.19,1327.38 1022.21,1327.63 1023.23,1327.88 1024.25,1328.14 1025.27,1328.39 1026.3,1328.64 1027.32,1328.89 1028.34,1329.14 1029.36,1329.39 1030.38,1329.64 1031.41,1329.89 1032.43,1330.13 1033.45,1330.38 1034.47,1330.63 1035.49,1330.87 1036.52,1331.12 1037.54,1331.36 1038.56,1331.61 1039.58,1331.85 1040.6,1332.09 1041.63,1332.34 1042.65,1332.58 1043.67,1332.82 1044.69,1333.06 1045.71,1333.3 1046.74,1333.54 1047.76,1333.78 1048.78,1334.01 1049.8,1334.25 1050.82,1334.49 1051.84,1334.72 1052.87,1334.96 1053.89,1335.19 1054.91,1335.43 1055.93,1335.66 1056.95,1335.9 1057.98,1336.13 1059,1336.36 1060.02,1336.59 1061.04,1336.82 1062.06,1337.05 1063.09,1337.28 1064.11,1337.51 1065.13,1337.74 1066.15,1337.97 1067.17,1338.2 1068.2,1338.42 1069.22,1338.65 1070.24,1338.88 1071.26,1339.1 1072.28,1339.33 1073.31,1339.55 1074.33,1339.78 1075.35,1340 1076.37,1340.22 1077.39,1340.44 1078.41,1340.67 1079.44,1340.89 1080.46,1341.11 1081.48,1341.33 1082.5,1341.55 1083.52,1341.77 1084.55,1341.98 1085.57,1342.2 1086.59,1342.42 1087.61,1342.64 1088.63,1342.85 1089.66,1343.07 1090.68,1343.28 1091.7,1343.5 1092.72,1343.71 1093.74,1343.93 1094.77,1344.14 1095.79,1344.35 1096.81,1344.56 1097.83,1344.78 1098.85,1344.99 1099.88,1345.2 1100.9,1345.41 1101.92,1345.62 1102.94,1345.83 1103.96,1346.04 1104.98,1346.24 1106.01,1346.45 1107.03,1346.66 1108.05,1346.87 1109.07,1347.07 1110.09,1347.28 1111.12,1347.48 1112.14,1347.69 1113.16,1347.89 1114.18,1348.1 1115.2,1348.3 1116.23,1348.5 1117.25,1348.71 1118.27,1348.91 1119.29,1349.11 1120.31,1349.31 1121.34,1349.51 1122.36,1349.71 1123.38,1349.91 1124.4,1350.11 1125.42,1350.31 1126.45,1350.51 1127.47,1350.71 1128.49,1350.9 1129.51,1351.1 1130.53,1351.3 1131.56,1351.49 1132.58,1351.69 1133.6,1351.88 1134.62,1352.08 1135.64,1352.27 1136.66,1352.47 1137.69,1352.66 1138.71,1352.85 1139.73,1353.05 1140.75,1353.24 1141.77,1353.43 1142.8,1353.62 1143.82,1353.81 1144.84,1354 1145.86,1354.19 1146.88,1354.38 1147.91,1354.57 1148.93,1354.76 1149.95,1354.95 1150.97,1355.13 1151.99,1355.32 1153.02,1355.51 1154.04,1355.69 1155.06,1355.88 1156.08,1356.07 1157.1,1356.25 1158.13,1356.44 1159.15,1356.62 1160.17,1356.81 1161.19,1356.99 1162.21,1357.17 1163.23,1357.35 1164.26,1357.54 1165.28,1357.72 1166.3,1357.9 1167.32,1358.08 1168.34,1358.26 1169.37,1358.44 1170.39,1358.62 1171.41,1358.8 1172.43,1358.98 1173.45,1359.16 1174.48,1359.34 1175.5,1359.52 1176.52,1359.69 1177.54,1359.87 1178.56,1360.05 1179.59,1360.22 1180.61,1360.4 1181.63,1360.58 1182.65,1360.75 1183.67,1360.93 1184.7,1361.1 1185.72,1361.28 1186.74,1361.45 1187.76,1361.62 1188.78,1361.8 1189.8,1361.97 1190.83,1362.14 1191.85,1362.31 1192.87,1362.48 1193.89,1362.65 1194.91,1362.83 1195.94,1363 1196.96,1363.17 1197.98,1363.34 1199,1363.5 1200.02,1363.67 1201.05,1363.84 1202.07,1364.01 1203.09,1364.18 1204.11,1364.35 1205.13,1364.51 1206.16,1364.68 1207.18,1364.85 1208.2,1365.01 1209.22,1365.18 1210.24,1365.34 1211.27,1365.51 1212.29,1365.67 1213.31,1365.84 1214.33,1366 1215.35,1366.16 1216.37,1366.33 1217.4,1366.49 1218.42,1366.65 1219.44,1366.81 1220.46,1366.98 1221.48,1367.14 1222.51,1367.3 1223.53,1367.46 1224.55,1367.62 1225.57,1367.78 1226.59,1367.94 1227.62,1368.1 1228.64,1368.26 1229.66,1368.42 1230.68,1368.58 1231.7,1368.73 1232.73,1368.89 1233.75,1369.05 1234.77,1369.21 1235.79,1369.36 1236.81,1369.52 1237.84,1369.68 1238.86,1369.83 1239.88,1369.99 1240.9,1370.14 1241.92,1370.3 1242.94,1370.45 1243.97,1370.61 1244.99,1370.76 1246.01,1370.91 1247.03,1371.07 1248.05,1371.22 1249.08,1371.37 1250.1,1371.52 1251.12,1371.68 1252.14,1371.83 1253.16,1371.98 1254.19,1372.13 1255.21,1372.28 1256.23,1372.43 1257.25,1372.58 1258.27,1372.73 1259.3,1372.88 1260.32,1373.03 1261.34,1373.18 1262.36,1373.33 1263.38,1373.48 1264.41,1373.62 1265.43,1373.77 1266.45,1373.92 1267.47,1374.07 1268.49,1374.21 1269.51,1374.36 1270.54,1374.51 1271.56,1374.65 1272.58,1374.8 1273.6,1374.94 1274.62,1375.09 1275.65,1375.23 1276.67,1375.38 1277.69,1375.52 1278.71,1375.66 1279.73,1375.81 1280.76,1375.95 1281.78,1376.09 1282.8,1376.24 1283.82,1376.38 1284.84,1376.52 1285.87,1376.66 1286.89,1376.81 1287.91,1376.95 1288.93,1377.09 1289.95,1377.23 1290.98,1377.37 1292,1377.51 1293.02,1377.65 1294.04,1377.79 1295.06,1377.93 1296.09,1378.07 1297.11,1378.21 1298.13,1378.34 1299.15,1378.48 1300.17,1378.62 1301.19,1378.76 1302.22,1378.89 1303.24,1379.03 1304.26,1379.17 1305.28,1379.31 1306.3,1379.44 1307.33,1379.58 1308.35,1379.71 1309.37,1379.85 1310.39,1379.98 1311.41,1380.12 1312.44,1380.25 1313.46,1380.39 1314.48,1380.52 1315.5,1380.66 1316.52,1380.79 1317.55,1380.92 1318.57,1381.06 1319.59,1381.19 1320.61,1381.32 1321.63,1381.45 1322.66,1381.59 1323.68,1381.72 1324.7,1381.85 1325.72,1381.98 1326.74,1382.11 1327.76,1382.24 1328.79,1382.37 1329.81,1382.5 1330.83,1382.63 1331.85,1382.76 1332.87,1382.89 1333.9,1383.02 1334.92,1383.15 1335.94,1383.28 1336.96,1383.41 1337.98,1383.54 1339.01,1383.67 1340.03,1383.79 1341.05,1383.92 1342.07,1384.05 1343.09,1384.18 1344.12,1384.3 1345.14,1384.43 1346.16,1384.56 1347.18,1384.68 1348.2,1384.81 1349.23,1384.93 1350.25,1385.06 1351.27,1385.18 1352.29,1385.31 1353.31,1385.43 1354.33,1385.56 1355.36,1385.68 1356.38,1385.81 1357.4,1385.93 1358.42,1386.05 1359.44,1386.18 1360.47,1386.3 1361.49,1386.42 1362.51,1386.54 1363.53,1386.67 1364.55,1386.79 1365.58,1386.91 1366.6,1387.03 1367.62,1387.15 1368.64,1387.28 1369.66,1387.4 1370.69,1387.52 1371.71,1387.64 1372.73,1387.76 1373.75,1387.88 1374.77,1388 1375.8,1388.12 1376.82,1388.24 1377.84,1388.36 1378.86,1388.47 1379.88,1388.59 1380.9,1388.71 1381.93,1388.83 1382.95,1388.95 1383.97,1389.07 1384.99,1389.18 1386.01,1389.3 1387.04,1389.42 1388.06,1389.54 1389.08,1389.65 1390.1,1389.77 1391.12,1389.89 1392.15,1390 1393.17,1390.12 1394.19,1390.23 1395.21,1390.35 1396.23,1390.46 1397.26,1390.58 1398.28,1390.69 1399.3,1390.81 1400.32,1390.92 1401.34,1391.04 1402.37,1391.15 1403.39,1391.27 1404.41,1391.38 1405.43,1391.49 1406.45,1391.61 1407.47,1391.72 1408.5,1391.83 1409.52,1391.94 1410.54,1392.06 1411.56,1392.17 1412.58,1392.28 1413.61,1392.39 1414.63,1392.5 1415.65,1392.61 1416.67,1392.73 1417.69,1392.84 1418.72,1392.95 1419.74,1393.06 1420.76,1393.17 1421.78,1393.28 1422.8,1393.39 1423.83,1393.5 1424.85,1393.61 1425.87,1393.72 1426.89,1393.83 1427.91,1393.94 1428.94,1394.04 1429.96,1394.15 1430.98,1394.26 1432,1394.37 1433.02,1394.48 1434.04,1394.59 1435.07,1394.69 1436.09,1394.8 1437.11,1394.91 1438.13,1395.01 1439.15,1395.12 1440.18,1395.23 1441.2,1395.33 1442.22,1395.44 1443.24,1395.55 1444.26,1395.65 1445.29,1395.76 1446.31,1395.86 1447.33,1395.97 1448.35,1396.08 1449.37,1396.18 1450.4,1396.28 1451.42,1396.39 1452.44,1396.49 1453.46,1396.6 1454.48,1396.7 1455.51,1396.81 1456.53,1396.91 1457.55,1397.01 1458.57,1397.12 1459.59,1397.22 1460.62,1397.32 1461.64,1397.43 1462.66,1397.53 1463.68,1397.63 1464.7,1397.73 1465.72,1397.84 1466.75,1397.94 1467.77,1398.04 1468.79,1398.14 1469.81,1398.24 1470.83,1398.34 1471.86,1398.44 1472.88,1398.54 1473.9,1398.65 1474.92,1398.75 1475.94,1398.85 1476.97,1398.95 1477.99,1399.05 1479.01,1399.15 1480.03,1399.25 1481.05,1399.35 1482.08,1399.44 1483.1,1399.54 1484.12,1399.64 1485.14,1399.74 1486.16,1399.84 1487.19,1399.94 1488.21,1400.04 1489.23,1400.13 1490.25,1400.23 1491.27,1400.33 1492.29,1400.43 1493.32,1400.53 1494.34,1400.62 1495.36,1400.72 1496.38,1400.82 1497.4,1400.91 1498.43,1401.01 1499.45,1401.11 1500.47,1401.2 1501.49,1401.3 1502.51,1401.39 1503.54,1401.49 1504.56,1401.59 1505.58,1401.68 1506.6,1401.78 1507.62,1401.87 1508.65,1401.97 1509.67,1402.06 1510.69,1402.16 1511.71,1402.25 1512.73,1402.35 1513.76,1402.44 1514.78,1402.53 1515.8,1402.63 1516.82,1402.72 1517.84,1402.81 1518.86,1402.91 1519.89,1403 1520.91,1403.09 1521.93,1403.19 1522.95,1403.28 1523.97,1403.37 1525,1403.47 1526.02,1403.56 1527.04,1403.65 1528.06,1403.74 1529.08,1403.83 1530.11,1403.93 1531.13,1404.02 1532.15,1404.11 1533.17,1404.2 1534.19,1404.29 1535.22,1404.38 1536.24,1404.47 1537.26,1404.56 1538.28,1404.65 1539.3,1404.74 1540.33,1404.83 1541.35,1404.92 1542.37,1405.01 1543.39,1405.1 1544.41,1405.19 1545.43,1405.28 1546.46,1405.37 1547.48,1405.46 1548.5,1405.55 1549.52,1405.64 1550.54,1405.73 1551.57,1405.82 1552.59,1405.9 1553.61,1405.99 1554.63,1406.08 1555.65,1406.17 1556.68,1406.26 1557.7,1406.34 1558.72,1406.43 1559.74,1406.52 1560.76,1406.61 1561.79,1406.69 1562.81,1406.78 1563.83,1406.87 1564.85,1406.95 1565.87,1407.04 1566.9,1407.13 1567.92,1407.21 1568.94,1407.3 1569.96,1407.39 1570.98,1407.47 1572,1407.56 1573.03,1407.64 1574.05,1407.73 1575.07,1407.81 1576.09,1407.9 1577.11,1407.98 1578.14,1408.07 1579.16,1408.15 1580.18,1408.24 1581.2,1408.32 1582.22,1408.41 1583.25,1408.49 1584.27,1408.58 1585.29,1408.66 1586.31,1408.74 1587.33,1408.83 1588.36,1408.91 1589.38,1408.99 1590.4,1409.08 1591.42,1409.16 1592.44,1409.24 1593.47,1409.33 1594.49,1409.41 1595.51,1409.49 1596.53,1409.57 1597.55,1409.66 1598.57,1409.74 1599.6,1409.82 1600.62,1409.9 1601.64,1409.98 1602.66,1410.07 1603.68,1410.15 1604.71,1410.23 1605.73,1410.31 1606.75,1410.39 1607.77,1410.47 1608.79,1410.55 1609.82,1410.63 1610.84,1410.72 1611.86,1410.8 1612.88,1410.88 1613.9,1410.96 1614.93,1411.04 1615.95,1411.12 1616.97,1411.2 1617.99,1411.28 1619.01,1411.36 1620.04,1411.44 1621.06,1411.52 1622.08,1411.59 1623.1,1411.67 1624.12,1411.75 1625.15,1411.83 1626.17,1411.91 1627.19,1411.99 1628.21,1412.07 1629.23,1412.15 1630.25,1412.22 1631.28,1412.3 1632.3,1412.38 1633.32,1412.46 1634.34,1412.54 1635.36,1412.61 1636.39,1412.69 1637.41,1412.77 1638.43,1412.85 1639.45,1412.92 1640.47,1413 1641.5,1413.08 1642.52,1413.15 1643.54,1413.23 1644.56,1413.31 1645.58,1413.38 1646.61,1413.46 1647.63,1413.54 1648.65,1413.61 1649.67,1413.69 1650.69,1413.77 1651.72,1413.84 1652.74,1413.92 1653.76,1413.99 1654.78,1414.07 1655.8,1414.14 1656.82,1414.22 1657.85,1414.29 1658.87,1414.37 1659.89,1414.44 1660.91,1414.52 1661.93,1414.59 1662.96,1414.67 1663.98,1414.74 1665,1414.82 1666.02,1414.89 1667.04,1414.97 1668.07,1415.04 1669.09,1415.11 1670.11,1415.19 1671.13,1415.26 1672.15,1415.33 1673.18,1415.41 1674.2,1415.48 1675.22,1415.55 1676.24,1415.63 1677.26,1415.7 1678.29,1415.77 1679.31,1415.85 1680.33,1415.92 1681.35,1415.99 1682.37,1416.06 1683.39,1416.14 1684.42,1416.21 1685.44,1416.28 1686.46,1416.35 1687.48,1416.42 1688.5,1416.5 1689.53,1416.57 1690.55,1416.64 1691.57,1416.71 1692.59,1416.78 1693.61,1416.85 1694.64,1416.92 1695.66,1417 1696.68,1417.07 1697.7,1417.14 1698.72,1417.21 1699.75,1417.28 1700.77,1417.35 1701.79,1417.42 1702.81,1417.49 1703.83,1417.56 1704.86,1417.63 1705.88,1417.7 1706.9,1417.77 1707.92,1417.84 1708.94,1417.91 1709.96,1417.98 1710.99,1418.05 1712.01,1418.12 1713.03,1418.19 1714.05,1418.26 1715.07,1418.33 1716.1,1418.39 1717.12,1418.46 1718.14,1418.53 1719.16,1418.6 1720.18,1418.67 1721.21,1418.74 1722.23,1418.81 1723.25,1418.87 1724.27,1418.94 1725.29,1419.01 1726.32,1419.08 1727.34,1419.15 1728.36,1419.21 1729.38,1419.28 1730.4,1419.35 1731.43,1419.42 1732.45,1419.48 1733.47,1419.55 1734.49,1419.62 1735.51,1419.69 1736.53,1419.75 1737.56,1419.82 1738.58,1419.89 1739.6,1419.95 1740.62,1420.02 1741.64,1420.09 1742.67,1420.15 1743.69,1420.22 1744.71,1420.28 1745.73,1420.35 1746.75,1420.42 1747.78,1420.48 1748.8,1420.55 1749.82,1420.61 1750.84,1420.68 1751.86,1420.75 1752.89,1420.81 1753.91,1420.88 1754.93,1420.94 1755.95,1421.01 1756.97,1421.07 1758,1421.14 1759.02,1421.2 1760.04,1421.27 1761.06,1421.33 1762.08,1421.4 1763.1,1421.46 1764.13,1421.53 1765.15,1421.59 1766.17,1421.65 1767.19,1421.72 1768.21,1421.78 1769.24,1421.85 1770.26,1421.91 1771.28,1421.97 1772.3,1422.04 1773.32,1422.1 1774.35,1422.16 1775.37,1422.23 1776.39,1422.29 1777.41,1422.35 1778.43,1422.42 1779.46,1422.48 1780.48,1422.54 1781.5,1422.61 1782.52,1422.67 1783.54,1422.73 1784.57,1422.79 1785.59,1422.86 1786.61,1422.92 1787.63,1422.98 1788.65,1423.04 1789.67,1423.11 1790.7,1423.17 1791.72,1423.23 1792.74,1423.29 1793.76,1423.35 1794.78,1423.42 1795.81,1423.48 1796.83,1423.54 1797.85,1423.6 1798.87,1423.66 1799.89,1423.72 1800.92,1423.78 1801.94,1423.85 1802.96,1423.91 1803.98,1423.97 1805,1424.03 1806.03,1424.09 1807.05,1424.15 1808.07,1424.21 1809.09,1424.27 1810.11,1424.33 1811.14,1424.39 1812.16,1424.45 1813.18,1424.51 1814.2,1424.57 1815.22,1424.63 1816.25,1424.69 1817.27,1424.75 1818.29,1424.81 1819.31,1424.87 1820.33,1424.93 1821.35,1424.99 1822.38,1425.05 1823.4,1425.11 1824.42,1425.17 1825.44,1425.23 1826.46,1425.29 1827.49,1425.35 1828.51,1425.41 1829.53,1425.47 1830.55,1425.52 1831.57,1425.58 1832.6,1425.64 1833.62,1425.7 1834.64,1425.76 1835.66,1425.82 1836.68,1425.88 1837.71,1425.93 1838.73,1425.99 1839.75,1426.05 1840.77,1426.11 1841.79,1426.17 1842.82,1426.22 1843.84,1426.28 1844.86,1426.34 1845.88,1426.4 1846.9,1426.45 1847.92,1426.51 1848.95,1426.57 1849.97,1426.63 1850.99,1426.68 1852.01,1426.74 1853.03,1426.8 1854.06,1426.85 1855.08,1426.91 1856.1,1426.97 1857.12,1427.03 1858.14,1427.08 1859.17,1427.14 1860.19,1427.2 1861.21,1427.25 1862.23,1427.31 1863.25,1427.36 1864.28,1427.42 1865.3,1427.48 1866.32,1427.53 1867.34,1427.59 1868.36,1427.64 1869.39,1427.7 1870.41,1427.76 1871.43,1427.81 1872.45,1427.87 1873.47,1427.92 1874.49,1427.98 1875.52,1428.03 1876.54,1428.09 1877.56,1428.14 1878.58,1428.2 1879.6,1428.26 1880.63,1428.31 1881.65,1428.37 1882.67,1428.42 1883.69,1428.47 1884.71,1428.53 1885.74,1428.58 1886.76,1428.64 1887.78,1428.69 1888.8,1428.75 1889.82,1428.8 1890.85,1428.86 1891.87,1428.91 1892.89,1428.97 1893.91,1429.02 1894.93,1429.07 1895.96,1429.13 1896.98,1429.18 1898,1429.23 1899.02,1429.29 1900.04,1429.34 1901.06,1429.4 1902.09,1429.45 1903.11,1429.5 1904.13,1429.56 1905.15,1429.61 1906.17,1429.66 1907.2,1429.72 1908.22,1429.77 1909.24,1429.82 1910.26,1429.88 1911.28,1429.93 1912.31,1429.98 1913.33,1430.03 1914.35,1430.09 1915.37,1430.14 1916.39,1430.19 1917.42,1430.24 1918.44,1430.3 1919.46,1430.35 1920.48,1430.4 1921.5,1430.45 1922.53,1430.51 1923.55,1430.56 1924.57,1430.61 1925.59,1430.66 1926.61,1430.71 1927.63,1430.77 1928.66,1430.82 1929.68,1430.87 1930.7,1430.92 1931.72,1430.97 1932.74,1431.02 1933.77,1431.07 1934.79,1431.13 1935.81,1431.18 1936.83,1431.23 1937.85,1431.28 1938.88,1431.33 1939.9,1431.38 1940.92,1431.43 1941.94,1431.48 1942.96,1431.53 1943.99,1431.59 1945.01,1431.64 1946.03,1431.69 1947.05,1431.74 1948.07,1431.79 1949.1,1431.84 1950.12,1431.89 1951.14,1431.94 1952.16,1431.99 1953.18,1432.04 1954.2,1432.09 1955.23,1432.14 1956.25,1432.19 1957.27,1432.24 1958.29,1432.29 1959.31,1432.34 1960.34,1432.39 1961.36,1432.44 1962.38,1432.49 1963.4,1432.54 1964.42,1432.59 1965.45,1432.64 1966.47,1432.69 1967.49,1432.73 1968.51,1432.78 1969.53,1432.83 1970.56,1432.88 1971.58,1432.93 1972.6,1432.98 1973.62,1433.03 1974.64,1433.08 1975.67,1433.13 1976.69,1433.18 1977.71,1433.22 1978.73,1433.27 1979.75,1433.32 1980.78,1433.37 1981.8,1433.42 1982.82,1433.47 1983.84,1433.52 1984.86,1433.56 1985.88,1433.61 1986.91,1433.66 1987.93,1433.71 1988.95,1433.76 1989.97,1433.8 1990.99,1433.85 1992.02,1433.9 1993.04,1433.95 1994.06,1433.99 1995.08,1434.04 1996.1,1434.09 1997.13,1434.14 1998.15,1434.18 1999.17,1434.23 2000.19,1434.28 2001.21,1434.33 2002.24,1434.37 2003.26,1434.42 2004.28,1434.47 2005.3,1434.52 2006.32,1434.56 2007.35,1434.61 2008.37,1434.66 2009.39,1434.7 2010.41,1434.75 2011.43,1434.8 2012.45,1434.84 2013.48,1434.89 2014.5,1434.94 2015.52,1434.98 2016.54,1435.03 2017.56,1435.08 2018.59,1435.12 2019.61,1435.17 2020.63,1435.21 2021.65,1435.26 2022.67,1435.31 2023.7,1435.35 2024.72,1435.4 2025.74,1435.44 2026.76,1435.49 2027.78,1435.54 2028.81,1435.58 2029.83,1435.63 2030.85,1435.67 2031.87,1435.72 2032.89,1435.76 2033.92,1435.81 2034.94,1435.85 2035.96,1435.9 2036.98,1435.95 2038,1435.99 2039.02,1436.04 2040.05,1436.08 2041.07,1436.13 2042.09,1436.17 2043.11,1436.22 2044.13,1436.26 2045.16,1436.31 2046.18,1436.35 2047.2,1436.39 2048.22,1436.44 2049.24,1436.48 2050.27,1436.53 2051.29,1436.57 2052.31,1436.62 2053.33,1436.66 2054.35,1436.71 2055.38,1436.75 2056.4,1436.8 2057.42,1436.84 2058.44,1436.88 2059.46,1436.93 2060.49,1436.97 2061.51,1437.02 2062.53,1437.06 2063.55,1437.1 2064.57,1437.15 2065.59,1437.19 2066.62,1437.23 2067.64,1437.28 2068.66,1437.32 2069.68,1437.37 2070.7,1437.41 2071.73,1437.45 2072.75,1437.5 2073.77,1437.54 2074.79,1437.58 2075.81,1437.63 2076.84,1437.67 2077.86,1437.71 2078.88,1437.75 2079.9,1437.8 2080.92,1437.84 2081.95,1437.88 2082.97,1437.93 2083.99,1437.97 2085.01,1438.01 2086.03,1438.06 2087.06,1438.1 2088.08,1438.14 2089.1,1438.18 2090.12,1438.23 2091.14,1438.27 2092.16,1438.31 2093.19,1438.35 2094.21,1438.4 2095.23,1438.44 2096.25,1438.48 2097.27,1438.52 2098.3,1438.56 2099.32,1438.61 2100.34,1438.65 2101.36,1438.69 2102.38,1438.73 2103.41,1438.77 2104.43,1438.82 2105.45,1438.86 2106.47,1438.9 2107.49,1438.94 2108.52,1438.98 2109.54,1439.02 2110.56,1439.07 2111.58,1439.11 2112.6,1439.15 2113.63,1439.19 2114.65,1439.23 2115.67,1439.27 2116.69,1439.31 2117.71,1439.35 2118.73,1439.4 2119.76,1439.44 2120.78,1439.48 2121.8,1439.52 2122.82,1439.56 2123.84,1439.6 2124.87,1439.64 2125.89,1439.68 2126.91,1439.72 2127.93,1439.76 2128.95,1439.8 2129.98,1439.85 2131,1439.89 2132.02,1439.93 2133.04,1439.97 2134.06,1440.01 2135.09,1440.05 2136.11,1440.09 2137.13,1440.13 2138.15,1440.17 2139.17,1440.21 2140.2,1440.25 2141.22,1440.29 2142.24,1440.33 2143.26,1440.37 2144.28,1440.41 2145.31,1440.45 2146.33,1440.49 2147.35,1440.53 2148.37,1440.57 2149.39,1440.61 2150.41,1440.65 2151.44,1440.69 2152.46,1440.73 2153.48,1440.77 2154.5,1440.81 2155.52,1440.85 2156.55,1440.88 2157.57,1440.92 2158.59,1440.96 2159.61,1441 2160.63,1441.04 2161.66,1441.08 2162.68,1441.12 2163.7,1441.16 2164.72,1441.2 2165.74,1441.24 2166.77,1441.28 2167.79,1441.32 2168.81,1441.35 2169.83,1441.39 2170.85,1441.43 2171.88,1441.47 2172.9,1441.51 2173.92,1441.55 2174.94,1441.59 2175.96,1441.62 2176.98,1441.66 2178.01,1441.7 2179.03,1441.74 2180.05,1441.78 2181.07,1441.82 2182.09,1441.86 2183.12,1441.89 2184.14,1441.93 2185.16,1441.97 2186.18,1442.01 2187.2,1442.05 2188.23,1442.08 2189.25,1442.12 2190.27,1442.16 2191.29,1442.2 2192.31,1442.24 2193.34,1442.27 2194.36,1442.31 2195.38,1442.35 2196.4,1442.39 2197.42,1442.42 2198.45,1442.46 2199.47,1442.5 2200.49,1442.54 2201.51,1442.57 2202.53,1442.61 2203.55,1442.65 2204.58,1442.69 2205.6,1442.72 2206.62,1442.76 2207.64,1442.8 2208.66,1442.84 2209.69,1442.87 2210.71,1442.91 2211.73,1442.95 2212.75,1442.98 2213.77,1443.02 2214.8,1443.06 2215.82,1443.1 2216.84,1443.13 2217.86,1443.17 2218.88,1443.21 2219.91,1443.24 2220.93,1443.28 2221.95,1443.32 2222.97,1443.35 2223.99,1443.39 2225.02,1443.43 2226.04,1443.46 2227.06,1443.5 2228.08,1443.53 2229.1,1443.57 2230.12,1443.61 2231.15,1443.64 2232.17,1443.68 2233.19,1443.72 2234.21,1443.75 2235.23,1443.79 2236.26,1443.82 2237.28,1443.86 2238.3,1443.9 2239.32,1443.93 2240.34,1443.97 2241.37,1444 2242.39,1444.04 2243.41,1444.08 2244.43,1444.11 2245.45,1444.15 2246.48,1444.18 2247.5,1444.22 2248.52,1444.25 2249.54,1444.29 2250.56,1444.33 2251.59,1444.36 2252.61,1444.4 2253.63,1444.43 2254.65,1444.47 2255.67,1444.5 2256.69,1444.54 2257.72,1444.57 2258.74,1444.61 2259.76,1444.64 2260.78,1444.68 2261.8,1444.71 2262.83,1444.75 2263.85,1444.78 2264.87,1444.82 2265.89,1444.85 2266.91,1444.89 2267.94,1444.92 2268.96,1444.96 2269.98,1444.99 2271,1445.03 2272.02,1445.06 2273.05,1445.1 2274.07,1445.13 2275.09,1445.17 2276.11,1445.2 2277.13,1445.24 2278.16,1445.27 2279.18,1445.31 2280.2,1445.34 2281.22,1445.37 2282.24,1445.41 2283.26,1445.44 2284.29,1445.48 2285.31,1445.51 2286.33,1445.55 2287.35,1445.58 2288.37,1445.61 2289.4,1445.65 2290.42,1445.68 2291.44,1445.72 "/>
<path clip-path="url(#clip200)" d="M2011.46 198.898 L2280.54 198.898 L2280.54 95.2176 L2011.46 95.2176  Z" fill="#ffffff" fill-rule="evenodd" fill-opacity="1"/>
<polyline clip-path="url(#clip200)" style="stroke:#000000; stroke-linecap:round; stroke-linejoin:round; stroke-width:4; stroke-opacity:1; fill:none" points="2011.46,198.898 2280.54,198.898 2280.54,95.2176 2011.46,95.2176 2011.46,198.898 "/>
<polyline clip-path="url(#clip200)" style="stroke:#009af9; stroke-linecap:round; stroke-linejoin:round; stroke-width:4; stroke-opacity:1; fill:none" points="2035.53,147.058 2179.97,147.058 "/>
<path clip-path="url(#clip200)" d="M2217.88 166.745 Q2216.07 171.375 2214.36 172.787 Q2212.65 174.199 2209.78 174.199 L2206.38 174.199 L2206.38 170.634 L2208.88 170.634 Q2210.63 170.634 2211.61 169.8 Q2212.58 168.967 2213.76 165.865 L2214.52 163.921 L2204.04 138.412 L2208.55 138.412 L2216.65 158.689 L2224.76 138.412 L2229.27 138.412 L2217.88 166.745 Z" fill="#000000" fill-rule="nonzero" fill-opacity="1" /><path clip-path="url(#clip200)" d="M2236.56 160.402 L2244.2 160.402 L2244.2 134.037 L2235.89 135.703 L2235.89 131.444 L2244.15 129.778 L2248.83 129.778 L2248.83 160.402 L2256.47 160.402 L2256.47 164.338 L2236.56 164.338 L2236.56 160.402 Z" fill="#000000" fill-rule="nonzero" fill-opacity="1" /></svg>
