<?xml version="1.0" encoding="utf-8"?>
<svg xmlns="http://www.w3.org/2000/svg" xmlns:xlink="http://www.w3.org/1999/xlink" width="600" height="400" viewBox="0 0 2400 1600">
<defs>
  <clipPath id="clip350">
    <rect x="0" y="0" width="2400" height="1600"/>
  </clipPath>
</defs>
<path clip-path="url(#clip350)" d="M0 1600 L2400 1600 L2400 0 L0 0  Z" fill="#ffffff" fill-rule="evenodd" fill-opacity="1"/>
<defs>
  <clipPath id="clip351">
    <rect x="480" y="0" width="1681" height="1600"/>
  </clipPath>
</defs>
<path clip-path="url(#clip350)" d="M209.029 1486.45 L2352.76 1486.45 L2352.76 47.2441 L209.029 47.2441  Z" fill="#ffffff" fill-rule="evenodd" fill-opacity="1"/>
<defs>
  <clipPath id="clip352">
    <rect x="209" y="47" width="2145" height="1440"/>
  </clipPath>
</defs>
<polyline clip-path="url(#clip352)" style="stroke:#000000; stroke-linecap:round; stroke-linejoin:round; stroke-width:2; stroke-opacity:0.1; fill:none" points="269.7,1486.45 269.7,47.2441 "/>
<polyline clip-path="url(#clip352)" style="stroke:#000000; stroke-linecap:round; stroke-linejoin:round; stroke-width:2; stroke-opacity:0.1; fill:none" points="775.549,1486.45 775.549,47.2441 "/>
<polyline clip-path="url(#clip352)" style="stroke:#000000; stroke-linecap:round; stroke-linejoin:round; stroke-width:2; stroke-opacity:0.1; fill:none" points="1281.4,1486.45 1281.4,47.2441 "/>
<polyline clip-path="url(#clip352)" style="stroke:#000000; stroke-linecap:round; stroke-linejoin:round; stroke-width:2; stroke-opacity:0.1; fill:none" points="1787.25,1486.45 1787.25,47.2441 "/>
<polyline clip-path="url(#clip352)" style="stroke:#000000; stroke-linecap:round; stroke-linejoin:round; stroke-width:2; stroke-opacity:0.1; fill:none" points="2293.1,1486.45 2293.1,47.2441 "/>
<polyline clip-path="url(#clip350)" style="stroke:#000000; stroke-linecap:round; stroke-linejoin:round; stroke-width:4; stroke-opacity:1; fill:none" points="209.029,1486.45 2352.76,1486.45 "/>
<polyline clip-path="url(#clip350)" style="stroke:#000000; stroke-linecap:round; stroke-linejoin:round; stroke-width:4; stroke-opacity:1; fill:none" points="269.7,1486.45 269.7,1467.55 "/>
<polyline clip-path="url(#clip350)" style="stroke:#000000; stroke-linecap:round; stroke-linejoin:round; stroke-width:4; stroke-opacity:1; fill:none" points="775.549,1486.45 775.549,1467.55 "/>
<polyline clip-path="url(#clip350)" style="stroke:#000000; stroke-linecap:round; stroke-linejoin:round; stroke-width:4; stroke-opacity:1; fill:none" points="1281.4,1486.45 1281.4,1467.55 "/>
<polyline clip-path="url(#clip350)" style="stroke:#000000; stroke-linecap:round; stroke-linejoin:round; stroke-width:4; stroke-opacity:1; fill:none" points="1787.25,1486.45 1787.25,1467.55 "/>
<polyline clip-path="url(#clip350)" style="stroke:#000000; stroke-linecap:round; stroke-linejoin:round; stroke-width:4; stroke-opacity:1; fill:none" points="2293.1,1486.45 2293.1,1467.55 "/>
<path clip-path="url(#clip350)" d="M269.7 1517.37 Q266.089 1517.37 264.26 1520.93 Q262.455 1524.47 262.455 1531.6 Q262.455 1538.71 264.26 1542.27 Q266.089 1545.82 269.7 1545.82 Q273.334 1545.82 275.14 1542.27 Q276.969 1538.71 276.969 1531.6 Q276.969 1524.47 275.14 1520.93 Q273.334 1517.37 269.7 1517.37 M269.7 1513.66 Q275.51 1513.66 278.566 1518.27 Q281.644 1522.85 281.644 1531.6 Q281.644 1540.33 278.566 1544.94 Q275.51 1549.52 269.7 1549.52 Q263.89 1549.52 260.811 1544.94 Q257.756 1540.33 257.756 1531.6 Q257.756 1522.85 260.811 1518.27 Q263.89 1513.66 269.7 1513.66 Z" fill="#000000" fill-rule="nonzero" fill-opacity="1" /><path clip-path="url(#clip350)" d="M735.167 1514.29 L753.524 1514.29 L753.524 1518.22 L739.45 1518.22 L739.45 1526.7 Q740.468 1526.35 741.487 1526.19 Q742.505 1526 743.524 1526 Q749.311 1526 752.69 1529.17 Q756.07 1532.34 756.07 1537.76 Q756.07 1543.34 752.598 1546.44 Q749.126 1549.52 742.806 1549.52 Q740.63 1549.52 738.362 1549.15 Q736.116 1548.78 733.709 1548.04 L733.709 1543.34 Q735.792 1544.47 738.015 1545.03 Q740.237 1545.58 742.714 1545.58 Q746.718 1545.58 749.056 1543.48 Q751.394 1541.37 751.394 1537.76 Q751.394 1534.15 749.056 1532.04 Q746.718 1529.94 742.714 1529.94 Q740.839 1529.94 738.964 1530.35 Q737.112 1530.77 735.167 1531.65 L735.167 1514.29 Z" fill="#000000" fill-rule="nonzero" fill-opacity="1" /><path clip-path="url(#clip350)" d="M775.283 1517.37 Q771.672 1517.37 769.843 1520.93 Q768.038 1524.47 768.038 1531.6 Q768.038 1538.71 769.843 1542.27 Q771.672 1545.82 775.283 1545.82 Q778.917 1545.82 780.723 1542.27 Q782.551 1538.71 782.551 1531.6 Q782.551 1524.47 780.723 1520.93 Q778.917 1517.37 775.283 1517.37 M775.283 1513.66 Q781.093 1513.66 784.149 1518.27 Q787.227 1522.85 787.227 1531.6 Q787.227 1540.33 784.149 1544.94 Q781.093 1549.52 775.283 1549.52 Q769.473 1549.52 766.394 1544.94 Q763.338 1540.33 763.338 1531.6 Q763.338 1522.85 766.394 1518.27 Q769.473 1513.66 775.283 1513.66 Z" fill="#000000" fill-rule="nonzero" fill-opacity="1" /><path clip-path="url(#clip350)" d="M805.445 1517.37 Q801.834 1517.37 800.005 1520.93 Q798.199 1524.47 798.199 1531.6 Q798.199 1538.71 800.005 1542.27 Q801.834 1545.82 805.445 1545.82 Q809.079 1545.82 810.885 1542.27 Q812.713 1538.71 812.713 1531.6 Q812.713 1524.47 810.885 1520.93 Q809.079 1517.37 805.445 1517.37 M805.445 1513.66 Q811.255 1513.66 814.31 1518.27 Q817.389 1522.85 817.389 1531.6 Q817.389 1540.33 814.31 1544.94 Q811.255 1549.52 805.445 1549.52 Q799.635 1549.52 796.556 1544.94 Q793.5 1540.33 793.5 1531.6 Q793.5 1522.85 796.556 1518.27 Q799.635 1513.66 805.445 1513.66 Z" fill="#000000" fill-rule="nonzero" fill-opacity="1" /><path clip-path="url(#clip350)" d="M1225.92 1544.91 L1233.56 1544.91 L1233.56 1518.55 L1225.25 1520.21 L1225.25 1515.95 L1233.52 1514.29 L1238.19 1514.29 L1238.19 1544.91 L1245.83 1544.91 L1245.83 1548.85 L1225.92 1548.85 L1225.92 1544.91 Z" fill="#000000" fill-rule="nonzero" fill-opacity="1" /><path clip-path="url(#clip350)" d="M1265.28 1517.37 Q1261.66 1517.37 1259.84 1520.93 Q1258.03 1524.47 1258.03 1531.6 Q1258.03 1538.71 1259.84 1542.27 Q1261.66 1545.82 1265.28 1545.82 Q1268.91 1545.82 1270.72 1542.27 Q1272.54 1538.71 1272.54 1531.6 Q1272.54 1524.47 1270.72 1520.93 Q1268.91 1517.37 1265.28 1517.37 M1265.28 1513.66 Q1271.09 1513.66 1274.14 1518.27 Q1277.22 1522.85 1277.22 1531.6 Q1277.22 1540.33 1274.14 1544.94 Q1271.09 1549.52 1265.28 1549.52 Q1259.47 1549.52 1256.39 1544.94 Q1253.33 1540.33 1253.33 1531.6 Q1253.33 1522.85 1256.39 1518.27 Q1259.47 1513.66 1265.28 1513.66 Z" fill="#000000" fill-rule="nonzero" fill-opacity="1" /><path clip-path="url(#clip350)" d="M1295.44 1517.37 Q1291.83 1517.37 1290 1520.93 Q1288.19 1524.47 1288.19 1531.6 Q1288.19 1538.71 1290 1542.27 Q1291.83 1545.82 1295.44 1545.82 Q1299.07 1545.82 1300.88 1542.27 Q1302.71 1538.71 1302.71 1531.6 Q1302.71 1524.47 1300.88 1520.93 Q1299.07 1517.37 1295.44 1517.37 M1295.44 1513.66 Q1301.25 1513.66 1304.3 1518.27 Q1307.38 1522.85 1307.38 1531.6 Q1307.38 1540.33 1304.3 1544.94 Q1301.25 1549.52 1295.44 1549.52 Q1289.63 1549.52 1286.55 1544.94 Q1283.49 1540.33 1283.49 1531.6 Q1283.49 1522.85 1286.55 1518.27 Q1289.63 1513.66 1295.44 1513.66 Z" fill="#000000" fill-rule="nonzero" fill-opacity="1" /><path clip-path="url(#clip350)" d="M1325.6 1517.37 Q1321.99 1517.37 1320.16 1520.93 Q1318.35 1524.47 1318.35 1531.6 Q1318.35 1538.71 1320.16 1542.27 Q1321.99 1545.82 1325.6 1545.82 Q1329.23 1545.82 1331.04 1542.27 Q1332.87 1538.71 1332.87 1531.6 Q1332.87 1524.47 1331.04 1520.93 Q1329.23 1517.37 1325.6 1517.37 M1325.6 1513.66 Q1331.41 1513.66 1334.46 1518.27 Q1337.54 1522.85 1337.54 1531.6 Q1337.54 1540.33 1334.46 1544.94 Q1331.41 1549.52 1325.6 1549.52 Q1319.79 1549.52 1316.71 1544.94 Q1313.65 1540.33 1313.65 1531.6 Q1313.65 1522.85 1316.71 1518.27 Q1319.79 1513.66 1325.6 1513.66 Z" fill="#000000" fill-rule="nonzero" fill-opacity="1" /><path clip-path="url(#clip350)" d="M1731.77 1544.91 L1739.41 1544.91 L1739.41 1518.55 L1731.1 1520.21 L1731.1 1515.95 L1739.37 1514.29 L1744.04 1514.29 L1744.04 1544.91 L1751.68 1544.91 L1751.68 1548.85 L1731.77 1548.85 L1731.77 1544.91 Z" fill="#000000" fill-rule="nonzero" fill-opacity="1" /><path clip-path="url(#clip350)" d="M1761.17 1514.29 L1779.53 1514.29 L1779.53 1518.22 L1765.45 1518.22 L1765.45 1526.7 Q1766.47 1526.35 1767.49 1526.19 Q1768.51 1526 1769.53 1526 Q1775.31 1526 1778.69 1529.17 Q1782.07 1532.34 1782.07 1537.76 Q1782.07 1543.34 1778.6 1546.44 Q1775.13 1549.52 1768.81 1549.52 Q1766.63 1549.52 1764.37 1549.15 Q1762.12 1548.78 1759.71 1548.04 L1759.71 1543.34 Q1761.8 1544.47 1764.02 1545.03 Q1766.24 1545.58 1768.72 1545.58 Q1772.72 1545.58 1775.06 1543.48 Q1777.4 1541.37 1777.4 1537.76 Q1777.4 1534.15 1775.06 1532.04 Q1772.72 1529.94 1768.72 1529.94 Q1766.84 1529.94 1764.97 1530.35 Q1763.12 1530.77 1761.17 1531.65 L1761.17 1514.29 Z" fill="#000000" fill-rule="nonzero" fill-opacity="1" /><path clip-path="url(#clip350)" d="M1801.29 1517.37 Q1797.68 1517.37 1795.85 1520.93 Q1794.04 1524.47 1794.04 1531.6 Q1794.04 1538.71 1795.85 1542.27 Q1797.68 1545.82 1801.29 1545.82 Q1804.92 1545.82 1806.73 1542.27 Q1808.55 1538.71 1808.55 1531.6 Q1808.55 1524.47 1806.73 1520.93 Q1804.92 1517.37 1801.29 1517.37 M1801.29 1513.66 Q1807.1 1513.66 1810.15 1518.27 Q1813.23 1522.85 1813.23 1531.6 Q1813.23 1540.33 1810.15 1544.94 Q1807.1 1549.52 1801.29 1549.52 Q1795.48 1549.52 1792.4 1544.94 Q1789.34 1540.33 1789.34 1531.6 Q1789.34 1522.85 1792.4 1518.27 Q1795.48 1513.66 1801.29 1513.66 Z" fill="#000000" fill-rule="nonzero" fill-opacity="1" /><path clip-path="url(#clip350)" d="M1831.45 1517.37 Q1827.84 1517.37 1826.01 1520.93 Q1824.2 1524.47 1824.2 1531.6 Q1824.2 1538.71 1826.01 1542.27 Q1827.84 1545.82 1831.45 1545.82 Q1835.08 1545.82 1836.89 1542.27 Q1838.72 1538.71 1838.72 1531.6 Q1838.72 1524.47 1836.89 1520.93 Q1835.08 1517.37 1831.45 1517.37 M1831.45 1513.66 Q1837.26 1513.66 1840.31 1518.27 Q1843.39 1522.85 1843.39 1531.6 Q1843.39 1540.33 1840.31 1544.94 Q1837.26 1549.52 1831.45 1549.52 Q1825.64 1549.52 1822.56 1544.94 Q1819.5 1540.33 1819.5 1531.6 Q1819.5 1522.85 1822.56 1518.27 Q1825.64 1513.66 1831.45 1513.66 Z" fill="#000000" fill-rule="nonzero" fill-opacity="1" /><path clip-path="url(#clip350)" d="M2241.71 1544.91 L2258.03 1544.91 L2258.03 1548.85 L2236.08 1548.85 L2236.08 1544.91 Q2238.74 1542.16 2243.33 1537.53 Q2247.93 1532.88 2249.11 1531.53 Q2251.36 1529.01 2252.24 1527.27 Q2253.14 1525.51 2253.14 1523.82 Q2253.14 1521.07 2251.2 1519.33 Q2249.28 1517.6 2246.18 1517.6 Q2243.98 1517.6 2241.52 1518.36 Q2239.09 1519.13 2236.31 1520.68 L2236.31 1515.95 Q2239.14 1514.82 2241.59 1514.24 Q2244.05 1513.66 2246.08 1513.66 Q2251.45 1513.66 2254.65 1516.35 Q2257.84 1519.03 2257.84 1523.52 Q2257.84 1525.65 2257.03 1527.57 Q2256.24 1529.47 2254.14 1532.07 Q2253.56 1532.74 2250.46 1535.95 Q2247.36 1539.15 2241.71 1544.91 Z" fill="#000000" fill-rule="nonzero" fill-opacity="1" /><path clip-path="url(#clip350)" d="M2277.84 1517.37 Q2274.23 1517.37 2272.4 1520.93 Q2270.6 1524.47 2270.6 1531.6 Q2270.6 1538.71 2272.4 1542.27 Q2274.23 1545.82 2277.84 1545.82 Q2281.48 1545.82 2283.28 1542.27 Q2285.11 1538.71 2285.11 1531.6 Q2285.11 1524.47 2283.28 1520.93 Q2281.48 1517.37 2277.84 1517.37 M2277.84 1513.66 Q2283.65 1513.66 2286.71 1518.27 Q2289.79 1522.85 2289.79 1531.6 Q2289.79 1540.33 2286.71 1544.94 Q2283.65 1549.52 2277.84 1549.52 Q2272.03 1549.52 2268.95 1544.94 Q2265.9 1540.33 2265.9 1531.6 Q2265.9 1522.85 2268.95 1518.27 Q2272.03 1513.66 2277.84 1513.66 Z" fill="#000000" fill-rule="nonzero" fill-opacity="1" /><path clip-path="url(#clip350)" d="M2308 1517.37 Q2304.39 1517.37 2302.56 1520.93 Q2300.76 1524.47 2300.76 1531.6 Q2300.76 1538.71 2302.56 1542.27 Q2304.39 1545.82 2308 1545.82 Q2311.64 1545.82 2313.44 1542.27 Q2315.27 1538.71 2315.27 1531.6 Q2315.27 1524.47 2313.44 1520.93 Q2311.64 1517.37 2308 1517.37 M2308 1513.66 Q2313.81 1513.66 2316.87 1518.27 Q2319.95 1522.85 2319.95 1531.6 Q2319.95 1540.33 2316.87 1544.94 Q2313.81 1549.52 2308 1549.52 Q2302.19 1549.52 2299.11 1544.94 Q2296.06 1540.33 2296.06 1531.6 Q2296.06 1522.85 2299.11 1518.27 Q2302.19 1513.66 2308 1513.66 Z" fill="#000000" fill-rule="nonzero" fill-opacity="1" /><path clip-path="url(#clip350)" d="M2338.17 1517.37 Q2334.55 1517.37 2332.73 1520.93 Q2330.92 1524.47 2330.92 1531.6 Q2330.92 1538.71 2332.73 1542.27 Q2334.55 1545.82 2338.17 1545.82 Q2341.8 1545.82 2343.61 1542.27 Q2345.43 1538.71 2345.43 1531.6 Q2345.43 1524.47 2343.61 1520.93 Q2341.8 1517.37 2338.17 1517.37 M2338.17 1513.66 Q2343.98 1513.66 2347.03 1518.27 Q2350.11 1522.85 2350.11 1531.6 Q2350.11 1540.33 2347.03 1544.94 Q2343.98 1549.52 2338.17 1549.52 Q2332.36 1549.52 2329.28 1544.94 Q2326.22 1540.33 2326.22 1531.6 Q2326.22 1522.85 2329.28 1518.27 Q2332.36 1513.66 2338.17 1513.66 Z" fill="#000000" fill-rule="nonzero" fill-opacity="1" /><polyline clip-path="url(#clip352)" style="stroke:#000000; stroke-linecap:round; stroke-linejoin:round; stroke-width:2; stroke-opacity:0.1; fill:none" points="209.029,1475.48 2352.76,1475.48 "/>
<polyline clip-path="url(#clip352)" style="stroke:#000000; stroke-linecap:round; stroke-linejoin:round; stroke-width:2; stroke-opacity:0.1; fill:none" points="209.029,1068.9 2352.76,1068.9 "/>
<polyline clip-path="url(#clip352)" style="stroke:#000000; stroke-linecap:round; stroke-linejoin:round; stroke-width:2; stroke-opacity:0.1; fill:none" points="209.029,662.327 2352.76,662.327 "/>
<polyline clip-path="url(#clip352)" style="stroke:#000000; stroke-linecap:round; stroke-linejoin:round; stroke-width:2; stroke-opacity:0.1; fill:none" points="209.029,255.751 2352.76,255.751 "/>
<polyline clip-path="url(#clip350)" style="stroke:#000000; stroke-linecap:round; stroke-linejoin:round; stroke-width:4; stroke-opacity:1; fill:none" points="209.029,1486.45 209.029,47.2441 "/>
<polyline clip-path="url(#clip350)" style="stroke:#000000; stroke-linecap:round; stroke-linejoin:round; stroke-width:4; stroke-opacity:1; fill:none" points="209.029,1475.48 227.926,1475.48 "/>
<polyline clip-path="url(#clip350)" style="stroke:#000000; stroke-linecap:round; stroke-linejoin:round; stroke-width:4; stroke-opacity:1; fill:none" points="209.029,1068.9 227.926,1068.9 "/>
<polyline clip-path="url(#clip350)" style="stroke:#000000; stroke-linecap:round; stroke-linejoin:round; stroke-width:4; stroke-opacity:1; fill:none" points="209.029,662.327 227.926,662.327 "/>
<polyline clip-path="url(#clip350)" style="stroke:#000000; stroke-linecap:round; stroke-linejoin:round; stroke-width:4; stroke-opacity:1; fill:none" points="209.029,255.751 227.926,255.751 "/>
<path clip-path="url(#clip350)" d="M50.9921 1475.93 L80.6679 1475.93 L80.6679 1479.87 L50.9921 1479.87 L50.9921 1475.93 Z" fill="#000000" fill-rule="nonzero" fill-opacity="1" /><path clip-path="url(#clip350)" d="M94.7882 1488.83 L111.108 1488.83 L111.108 1492.76 L89.1632 1492.76 L89.1632 1488.83 Q91.8252 1486.07 96.4085 1481.44 Q101.015 1476.79 102.196 1475.45 Q104.441 1472.92 105.321 1471.19 Q106.223 1469.43 106.223 1467.74 Q106.223 1464.98 104.279 1463.25 Q102.358 1461.51 99.2558 1461.51 Q97.0567 1461.51 94.603 1462.27 Q92.1725 1463.04 89.3947 1464.59 L89.3947 1459.87 Q92.2188 1458.73 94.6724 1458.15 Q97.1261 1457.58 99.1632 1457.58 Q104.534 1457.58 107.728 1460.26 Q110.922 1462.95 110.922 1467.44 Q110.922 1469.57 110.112 1471.49 Q109.325 1473.39 107.219 1475.98 Q106.64 1476.65 103.538 1479.87 Q100.436 1483.06 94.7882 1488.83 Z" fill="#000000" fill-rule="nonzero" fill-opacity="1" /><path clip-path="url(#clip350)" d="M130.922 1461.28 Q127.311 1461.28 125.482 1464.84 Q123.677 1468.39 123.677 1475.52 Q123.677 1482.62 125.482 1486.19 Q127.311 1489.73 130.922 1489.73 Q134.556 1489.73 136.362 1486.19 Q138.191 1482.62 138.191 1475.52 Q138.191 1468.39 136.362 1464.84 Q134.556 1461.28 130.922 1461.28 M130.922 1457.58 Q136.732 1457.58 139.788 1462.18 Q142.867 1466.77 142.867 1475.52 Q142.867 1484.24 139.788 1488.85 Q136.732 1493.43 130.922 1493.43 Q125.112 1493.43 122.033 1488.85 Q118.978 1484.24 118.978 1475.52 Q118.978 1466.77 122.033 1462.18 Q125.112 1457.58 130.922 1457.58 Z" fill="#000000" fill-rule="nonzero" fill-opacity="1" /><path clip-path="url(#clip350)" d="M161.084 1461.28 Q157.473 1461.28 155.644 1464.84 Q153.839 1468.39 153.839 1475.52 Q153.839 1482.62 155.644 1486.19 Q157.473 1489.73 161.084 1489.73 Q164.718 1489.73 166.524 1486.19 Q168.353 1482.62 168.353 1475.52 Q168.353 1468.39 166.524 1464.84 Q164.718 1461.28 161.084 1461.28 M161.084 1457.58 Q166.894 1457.58 169.95 1462.18 Q173.029 1466.77 173.029 1475.52 Q173.029 1484.24 169.95 1488.85 Q166.894 1493.43 161.084 1493.43 Q155.274 1493.43 152.195 1488.85 Q149.14 1484.24 149.14 1475.52 Q149.14 1466.77 152.195 1462.18 Q155.274 1457.58 161.084 1457.58 Z" fill="#000000" fill-rule="nonzero" fill-opacity="1" /><path clip-path="url(#clip350)" d="M50.9921 1069.36 L80.6679 1069.36 L80.6679 1073.29 L50.9921 1073.29 L50.9921 1069.36 Z" fill="#000000" fill-rule="nonzero" fill-opacity="1" /><path clip-path="url(#clip350)" d="M91.5706 1082.25 L99.2095 1082.25 L99.2095 1055.88 L90.8993 1057.55 L90.8993 1053.29 L99.1632 1051.62 L103.839 1051.62 L103.839 1082.25 L111.478 1082.25 L111.478 1086.18 L91.5706 1086.18 L91.5706 1082.25 Z" fill="#000000" fill-rule="nonzero" fill-opacity="1" /><path clip-path="url(#clip350)" d="M120.969 1051.62 L139.325 1051.62 L139.325 1055.56 L125.251 1055.56 L125.251 1064.03 Q126.27 1063.68 127.288 1063.52 Q128.307 1063.34 129.325 1063.34 Q135.112 1063.34 138.492 1066.51 Q141.871 1069.68 141.871 1075.1 Q141.871 1080.67 138.399 1083.78 Q134.927 1086.86 128.607 1086.86 Q126.432 1086.86 124.163 1086.48 Q121.918 1086.11 119.51 1085.37 L119.51 1080.67 Q121.594 1081.81 123.816 1082.36 Q126.038 1082.92 128.515 1082.92 Q132.519 1082.92 134.857 1080.81 Q137.195 1078.71 137.195 1075.1 Q137.195 1071.49 134.857 1069.38 Q132.519 1067.27 128.515 1067.27 Q126.64 1067.27 124.765 1067.69 Q122.913 1068.11 120.969 1068.99 L120.969 1051.62 Z" fill="#000000" fill-rule="nonzero" fill-opacity="1" /><path clip-path="url(#clip350)" d="M161.084 1054.7 Q157.473 1054.7 155.644 1058.27 Q153.839 1061.81 153.839 1068.94 Q153.839 1076.05 155.644 1079.61 Q157.473 1083.15 161.084 1083.15 Q164.718 1083.15 166.524 1079.61 Q168.353 1076.05 168.353 1068.94 Q168.353 1061.81 166.524 1058.27 Q164.718 1054.7 161.084 1054.7 M161.084 1051 Q166.894 1051 169.95 1055.61 Q173.029 1060.19 173.029 1068.94 Q173.029 1077.67 169.95 1082.27 Q166.894 1086.86 161.084 1086.86 Q155.274 1086.86 152.195 1082.27 Q149.14 1077.67 149.14 1068.94 Q149.14 1060.19 152.195 1055.61 Q155.274 1051 161.084 1051 Z" fill="#000000" fill-rule="nonzero" fill-opacity="1" /><path clip-path="url(#clip350)" d="M50.9921 662.779 L80.6679 662.779 L80.6679 666.714 L50.9921 666.714 L50.9921 662.779 Z" fill="#000000" fill-rule="nonzero" fill-opacity="1" /><path clip-path="url(#clip350)" d="M91.5706 675.672 L99.2095 675.672 L99.2095 649.307 L90.8993 650.973 L90.8993 646.714 L99.1632 645.047 L103.839 645.047 L103.839 675.672 L111.478 675.672 L111.478 679.607 L91.5706 679.607 L91.5706 675.672 Z" fill="#000000" fill-rule="nonzero" fill-opacity="1" /><path clip-path="url(#clip350)" d="M130.922 648.126 Q127.311 648.126 125.482 651.691 Q123.677 655.232 123.677 662.362 Q123.677 669.468 125.482 673.033 Q127.311 676.575 130.922 676.575 Q134.556 676.575 136.362 673.033 Q138.191 669.468 138.191 662.362 Q138.191 655.232 136.362 651.691 Q134.556 648.126 130.922 648.126 M130.922 644.422 Q136.732 644.422 139.788 649.029 Q142.867 653.612 142.867 662.362 Q142.867 671.089 139.788 675.695 Q136.732 680.279 130.922 680.279 Q125.112 680.279 122.033 675.695 Q118.978 671.089 118.978 662.362 Q118.978 653.612 122.033 649.029 Q125.112 644.422 130.922 644.422 Z" fill="#000000" fill-rule="nonzero" fill-opacity="1" /><path clip-path="url(#clip350)" d="M161.084 648.126 Q157.473 648.126 155.644 651.691 Q153.839 655.232 153.839 662.362 Q153.839 669.468 155.644 673.033 Q157.473 676.575 161.084 676.575 Q164.718 676.575 166.524 673.033 Q168.353 669.468 168.353 662.362 Q168.353 655.232 166.524 651.691 Q164.718 648.126 161.084 648.126 M161.084 644.422 Q166.894 644.422 169.95 649.029 Q173.029 653.612 173.029 662.362 Q173.029 671.089 169.95 675.695 Q166.894 680.279 161.084 680.279 Q155.274 680.279 152.195 675.695 Q149.14 671.089 149.14 662.362 Q149.14 653.612 152.195 649.029 Q155.274 644.422 161.084 644.422 Z" fill="#000000" fill-rule="nonzero" fill-opacity="1" /><path clip-path="url(#clip350)" d="M81.154 256.202 L110.83 256.202 L110.83 260.137 L81.154 260.137 L81.154 256.202 Z" fill="#000000" fill-rule="nonzero" fill-opacity="1" /><path clip-path="url(#clip350)" d="M120.969 238.471 L139.325 238.471 L139.325 242.406 L125.251 242.406 L125.251 250.878 Q126.27 250.531 127.288 250.369 Q128.307 250.183 129.325 250.183 Q135.112 250.183 138.492 253.355 Q141.871 256.526 141.871 261.943 Q141.871 267.521 138.399 270.623 Q134.927 273.702 128.607 273.702 Q126.432 273.702 124.163 273.331 Q121.918 272.961 119.51 272.22 L119.51 267.521 Q121.594 268.656 123.816 269.211 Q126.038 269.767 128.515 269.767 Q132.519 269.767 134.857 267.66 Q137.195 265.554 137.195 261.943 Q137.195 258.332 134.857 256.225 Q132.519 254.119 128.515 254.119 Q126.64 254.119 124.765 254.535 Q122.913 254.952 120.969 255.832 L120.969 238.471 Z" fill="#000000" fill-rule="nonzero" fill-opacity="1" /><path clip-path="url(#clip350)" d="M161.084 241.549 Q157.473 241.549 155.644 245.114 Q153.839 248.656 153.839 255.785 Q153.839 262.892 155.644 266.456 Q157.473 269.998 161.084 269.998 Q164.718 269.998 166.524 266.456 Q168.353 262.892 168.353 255.785 Q168.353 248.656 166.524 245.114 Q164.718 241.549 161.084 241.549 M161.084 237.846 Q166.894 237.846 169.95 242.452 Q173.029 247.035 173.029 255.785 Q173.029 264.512 169.95 269.119 Q166.894 273.702 161.084 273.702 Q155.274 273.702 152.195 269.119 Q149.14 264.512 149.14 255.785 Q149.14 247.035 152.195 242.452 Q155.274 237.846 161.084 237.846 Z" fill="#000000" fill-rule="nonzero" fill-opacity="1" /><polyline clip-path="url(#clip352)" style="stroke:#009af9; stroke-linecap:round; stroke-linejoin:round; stroke-width:4; stroke-opacity:1; fill:none" points="269.7,464.386 270.712,464.372 271.723,807.329 272.735,807.234 273.747,213.23 274.759,213.231 275.77,230.176 276.782,230.177 277.794,192.83 278.805,192.826 279.817,235.816 280.829,235.817 281.84,486.982 282.852,486.964 283.864,481.34 284.876,481.348 285.887,604.393 286.899,604.337 287.911,384.07 288.922,384.071 289.934,387.325 290.946,387.316 291.957,116.264 292.969,116.258 293.981,643.772 294.992,643.734 296.004,87.9822 297.016,87.9763 298.028,415.887 299.039,415.895 300.051,469.775 301.063,469.762 302.074,675.332 303.086,675.297 304.098,410.657 305.109,410.653 306.121,392.926 307.133,392.911 308.145,512.861 309.156,512.86 310.168,478.69 311.18,478.676 312.191,148.145 313.203,148.144 314.215,313.242 315.226,313.235 316.238,404.252 317.25,404.239 318.262,336.144 319.273,336.136 320.285,463.973 321.297,463.96 322.308,507.568 323.32,507.569 324.332,361.661 325.343,361.658 326.355,463.969 327.367,463.959 328.379,590.593 329.39,590.589 330.402,762.452 331.414,762.389 332.425,469.768 333.437,469.745 334.449,381.353 335.46,381.343 336.472,344.664 337.484,344.659 338.496,506.303 339.507,506.274 340.519,423.682 341.531,423.659 342.542,404.287 343.554,404.281 344.566,361.969 345.577,361.955 346.589,435.84 347.601,435.837 348.612,722.168 349.624,722.09 350.636,606.798 351.648,606.799 352.659,481.944 353.671,481.951 354.683,458.068 355.694,458.057 356.706,351.415 357.718,351.413 358.729,212.376 359.741,212.368 360.753,404.257 361.765,404.252 362.776,498.378 363.788,498.372 364.8,357.191 365.811,357.2 366.823,189.43 367.835,189.426 368.846,685.147 369.858,685.103 370.87,518.208 371.882,518.183 372.893,327.376 373.905,327.37 374.917,435.77 375.928,435.768 376.94,651.532 377.952,651.506 378.963,226.052 379.975,226.052 380.987,746.465 381.999,746.454 383.01,625.453 384.022,625.426 385.034,583.577 386.045,583.574 387.057,453.099 388.069,453.098 389.08,421.807 390.092,421.804 391.104,346.02 392.115,346.023 393.127,605.953 394.139,605.923 395.151,457.696 396.162,457.673 397.174,274.24 398.186,274.232 399.197,350.887 400.209,350.887 401.221,297.466 402.232,297.466 403.244,511.605 404.256,511.544 405.268,801.887 406.279,801.802 407.291,327.482 408.303,327.476 409.314,465.04 410.326,465.036 411.338,362.73 412.349,362.727 413.361,339.304 414.373,339.299 415.385,356.818 416.396,356.818 417.408,353.688 418.42,353.694 419.431,333.399 420.443,333.397 421.455,297.512 422.466,297.491 423.478,512.474 424.49,512.468 425.502,611.77 426.513,611.725 427.525,215.13 428.537,215.127 429.548,297.713 430.56,297.712 431.572,398.403 432.583,398.398 433.595,421.906 434.607,421.903 435.619,493.072 436.63,493.042 437.642,594.83 438.654,594.815 439.665,386.508 440.677,386.494 441.689,587.308 442.7,587.274 443.712,256.627 444.724,256.622 445.735,512.412 446.747,512.407 447.759,185.755 448.771,185.75 449.782,605.079 450.794,605.063 451.806,280.391 452.817,280.384 453.829,321.502 454.841,321.496 455.852,457.379 456.864,457.37 457.876,492.695 458.888,492.673 459.899,463.353 460.911,463.342 461.923,368.855 462.934,368.838 463.946,317.512 464.958,317.515 465.969,392.666 466.981,392.666 467.993,688.948 469.005,688.911 470.016,345.466 471.028,345.452 472.04,581.248 473.051,581.214 474.063,457.135 475.075,457.113 476.086,229.455 477.098,229.455 478.11,469.045 479.122,469.035 480.133,459.218 481.145,459.222 482.157,653.541 483.168,653.512 484.18,567.105 485.192,567.107 486.203,465.074 487.215,465.076 488.227,298.722 489.239,298.701 490.25,398.295 491.262,398.29 492.274,606.653 493.285,606.653 494.297,562.099 495.309,562.1 496.32,510.158 497.332,510.135 498.344,598.643 499.355,598.624 500.367,529.838 501.379,529.818 502.391,274.82 503.402,274.819 504.414,374.444 505.426,374.435 506.437,199.097 507.449,199.09 508.461,457.173 509.472,457.161 510.484,451.159 511.496,451.146 512.508,375.58 513.519,375.577 514.531,380.33 515.543,380.323 516.554,556.299 517.566,556.242 518.578,517.787 519.589,517.766 520.601,715.767 521.613,715.732 522.625,223.469 523.636,223.45 524.648,392.074 525.66,392.063 526.671,292.857 527.683,292.856 528.695,558.577 529.706,558.569 530.718,532.305 531.73,532.313 532.742,287.203 533.753,287.196 534.765,661.256 535.777,661.199 536.788,333.48 537.8,333.475 538.812,580.024 539.823,580.001 540.835,463.06 541.847,463.05 542.859,333.481 543.87,333.477 544.882,333.472 545.894,333.467 546.905,357.947 547.917,357.943 548.929,392.258 549.94,392.253 550.952,424.907 551.964,424.914 552.975,364.572 553.987,364.574 554.999,471.326 556.011,471.329 557.022,492.249 558.034,492.26 559.046,635.072 560.057,635.064 561.069,287.378 562.081,287.377 563.092,360.569 564.104,360.577 565.116,457.09 566.128,457.069 567.139,545.967 568.151,545.939 569.163,690.813 570.174,690.77 571.186,505.945 572.198,505.941 573.209,714.985 574.221,714.922 575.233,428.941 576.245,428.932 577.256,687.149 578.268,687.132 579.28,509.113 580.291,509.098 581.303,404.103 582.315,404.081 583.326,404.196 584.338,404.186 585.35,831.565 586.362,831.498 587.373,600.711 588.385,600.633 589.397,564.094 590.408,564.09 591.42,563.734 592.432,563.715 593.443,438.135 594.455,438.121 595.467,327.794 596.478,327.792 597.49,665.396 598.502,665.348 599.514,481.608 600.525,481.591 601.537,797.353 602.549,797.375 603.56,710.606 604.572,710.503 605.584,478.19 606.595,478.168 607.607,557.685 608.619,557.675 609.631,322.002 610.642,321.996 611.654,432.282 612.666,432.267 613.677,359.377 614.689,359.349 615.701,579.82 616.712,579.773 617.724,674.829 618.736,674.764 619.748,671.023 620.759,670.975 621.771,610.374 622.783,610.351 623.794,478.442 624.806,478.446 625.818,500.119 626.829,500.113 627.841,379.998 628.853,379.992 629.865,475.451 630.876,475.434 631.888,306.612 632.9,306.616 633.911,688.736 634.923,688.672 635.935,572.798 636.946,572.78 637.958,404.796 638.97,404.793 639.982,371.503 640.993,371.503 642.005,636.784 643.017,636.752 644.028,398.442 645.04,398.438 646.052,806.771 647.063,806.666 648.075,682.666 649.087,682.616 650.098,332.583 651.11,332.573 652.122,319.003 653.134,318.993 654.145,669.906 655.157,669.86 656.169,526.787 657.18,526.771 658.192,785.286 659.204,785.208 660.215,532.983 661.227,532.968 662.239,359.077 663.251,359.064 664.262,805.657 665.274,805.636 666.286,545.483 667.297,545.47 668.309,307.755 669.321,307.753 670.332,487.618 671.344,487.612 672.356,478.922 673.368,478.926 674.379,778.434 675.391,778.362 676.403,350.712 677.414,350.714 678.426,675.096 679.438,675.055 680.449,402.23 681.461,402.228 682.473,427.587 683.485,427.594 684.496,511.806 685.508,511.808 686.52,656.015 687.531,655.966 688.543,685.106 689.555,685.089 690.566,283.204 691.578,283.203 692.59,520.862 693.602,520.845 694.613,409.343 695.625,409.345 696.637,518.564 697.648,518.564 698.66,660.154 699.672,660.131 700.683,372.144 701.695,372.131 702.707,482.654 703.718,482.635 704.73,627.497 705.742,627.491 706.754,698.169 707.765,698.151 708.777,547.288 709.789,547.216 710.8,334.543 711.812,334.538 712.824,468.908 713.835,468.901 714.847,507.439 715.859,507.421 716.871,504.884 717.882,504.889 718.894,402.293 719.906,402.292 720.917,449.838 721.929,449.83 722.941,430.566 723.952,430.564 724.964,620.722 725.976,620.713 726.988,609.81 727.999,609.774 729.011,360.43 730.023,360.426 731.034,971.766 732.046,971.637 733.058,481.704 734.069,481.68 735.081,383.467 736.093,383.451 737.105,411.435 738.116,411.418 739.128,328.743 740.14,328.739 741.151,443.558 742.163,443.551 743.175,314.074 744.186,314.077 745.198,482.129 746.21,482.123 747.222,628.982 748.233,628.958 749.245,517.494 750.257,517.458 751.268,457.109 752.28,457.076 753.292,380.228 754.303,380.205 755.315,878.447 756.327,878.403 757.338,842.54 758.35,842.509 759.362,277.748 760.374,277.746 761.385,628.597 762.397,628.573 763.409,616.618 764.42,616.603 765.432,535.591 766.444,535.589 767.455,869.077 768.467,869.038 769.479,557.597 770.491,557.602 771.502,418.79 772.514,418.781 773.526,437.118 774.537,437.109 775.549,570.446 776.561,570.405 777.572,386.042 778.584,386.038 779.596,448.307 780.608,448.312 781.619,479.971 782.631,479.969 783.643,410.515 784.654,410.522 785.666,843.057 786.678,843.013 787.689,715.405 788.701,715.376 789.713,653.04 790.725,652.996 791.736,558.105 792.748,558.087 793.76,533.639 794.771,533.625 795.783,518.831 796.795,518.836 797.806,993.788 798.818,993.717 799.83,747.15 800.841,747.053 801.853,456.268 802.865,456.26 803.877,633.07 804.888,633.067 805.9,234.865 806.912,234.85 807.923,558.173 808.935,558.152 809.947,595.07 810.958,595.034 811.97,398.398 812.982,398.4 813.994,525.465 815.005,525.436 816.017,768.962 817.029,768.935 818.04,344.417 819.052,344.404 820.064,410.737 821.075,410.735 822.087,335.486 823.099,335.482 824.111,577.046 825.122,577.03 826.134,304.399 827.146,304.39 828.157,393.327 829.169,393.318 830.181,374.749 831.192,374.744 832.204,362.245 833.216,362.24 834.228,489.211 835.239,489.208 836.251,399.816 837.263,399.806 838.274,570.579 839.286,570.565 840.298,449.026 841.309,448.995 842.321,480.53 843.333,480.515 844.345,549.935 845.356,549.931 846.368,439.261 847.38,439.252 848.391,657.368 849.403,657.349 850.415,677.619 851.426,677.586 852.438,734.695 853.45,734.656 854.461,759.411 855.473,759.336 856.485,549.843 857.497,549.839 858.508,215.195 859.52,215.19 860.532,677.946 861.543,677.913 862.555,638.281 863.567,638.235 864.578,583.252 865.59,583.239 866.602,525.491 867.614,525.496 868.625,633.929 869.637,633.911 870.649,505.948 871.66,505.952 872.672,798.044 873.684,797.995 874.695,626.944 875.707,626.924 876.719,505.973 877.731,505.976 878.742,413.322 879.754,413.313 880.766,492.486 881.777,492.441 882.789,733.266 883.801,733.213 884.812,599.985 885.824,599.971 886.836,437.135 887.848,437.116 888.859,476.17 889.871,476.164 890.883,582.602 891.894,582.606 892.906,815.339 893.918,815.331 894.929,581.313 895.941,581.305 896.953,562.963 897.965,562.962 898.976,767.313 899.988,767.276 901,482.28 902.011,482.283 903.023,563.65 904.035,563.633 905.046,575.433 906.058,575.423 907.07,819.676 908.081,819.601 909.093,534.932 910.105,534.926 911.117,636.822 912.128,636.779 913.14,569.991 914.152,569.978 915.163,386.734 916.175,386.73 917.187,726.665 918.198,726.633 919.21,462.239 920.222,462.245 921.234,483.836 922.245,483.83 923.257,562.647 924.269,562.648 925.28,270.531 926.292,270.522 927.304,500.018 928.315,500.006 929.327,669.642 930.339,669.614 931.351,619.299 932.362,619.274 933.374,725.29 934.386,725.284 935.397,668.086 936.409,668.081 937.421,569.007 938.432,568.971 939.444,423.026 940.456,423.018 941.468,861.104 942.479,861.04 943.491,656.195 944.503,656.16 945.514,711.463 946.526,711.434 947.538,675.753 948.549,675.724 949.561,592.605 950.573,592.579 951.585,832.331 952.596,832.264 953.608,640.281 954.62,640.268 955.631,657.136 956.643,657.13 957.655,1057.61 958.666,1057.54 959.678,563.037 960.69,563.024 961.701,450.764 962.713,450.748 963.725,866.825 964.737,866.733 965.748,739.089 966.76,739.057 967.772,816.652 968.783,816.593 969.795,740.748 970.807,740.707 971.818,711.333 972.83,711.293 973.842,768.031 974.854,767.978 975.865,576.886 976.877,576.873 977.889,676.062 978.9,676.026 979.912,540.96 980.924,540.954 981.935,632.677 982.947,632.661 983.959,414.139 984.971,414.131 985.982,605.734 986.994,605.707 988.006,653.182 989.017,653.17 990.029,493.148 991.041,493.132 992.052,626.199 993.064,626.177 994.076,436.467 995.088,436.461 996.099,584.332 997.111,584.306 998.123,541.447 999.134,541.421 1000.15,767.126 1001.16,767.025 1002.17,513.171 1003.18,513.164 1004.19,505.68 1005.2,505.657 1006.22,611.956 1007.23,611.937 1008.24,554.806 1009.25,554.812 1010.26,780.373 1011.27,780.358 1012.29,463.782 1013.3,463.776 1014.31,301.513 1015.32,301.492 1016.33,639.118 1017.34,639.113 1018.36,794.72 1019.37,794.715 1020.38,802.213 1021.39,802.165 1022.4,428.87 1023.42,428.853 1024.43,772.23 1025.44,772.176 1026.45,801.644 1027.46,801.601 1028.47,800.52 1029.49,800.485 1030.5,471.2 1031.51,471.197 1032.52,576.374 1033.53,576.374 1034.54,723.735 1035.56,723.721 1036.57,815.793 1037.58,815.7 1038.59,275.279 1039.6,275.276 1040.61,451.034 1041.63,451.019 1042.64,373.629 1043.65,373.624 1044.66,771.918 1045.67,771.872 1046.68,962.386 1047.7,962.326 1048.71,626.761 1049.72,626.693 1050.73,506.214 1051.74,506.206 1052.75,687.62 1053.77,687.572 1054.78,737.205 1055.79,737.167 1056.8,726.461 1057.81,726.457 1058.82,463.895 1059.84,463.881 1060.85,611.327 1061.86,611.309 1062.87,808.156 1063.88,808.156 1064.89,680.881 1065.91,680.835 1066.92,394.428 1067.93,394.41 1068.94,673.923 1069.95,673.901 1070.96,786.581 1071.98,786.52 1072.99,864.541 1074,864.513 1075.01,896.36 1076.02,896.264 1077.04,792.778 1078.05,792.74 1079.06,478.251 1080.07,478.238 1081.08,575.426 1082.09,575.4 1083.11,395.075 1084.12,395.071 1085.13,562.153 1086.14,562.142 1087.15,595.826 1088.16,595.791 1089.18,602.831 1090.19,602.798 1091.2,762.308 1092.21,762.226 1093.22,477.097 1094.23,477.072 1095.25,877.323 1096.26,877.296 1097.27,623.905 1098.28,623.876 1099.29,651.332 1100.3,651.296 1101.32,715.053 1102.33,715.021 1103.34,534.217 1104.35,534.207 1105.36,568.302 1106.37,568.283 1107.39,938.069 1108.4,938.023 1109.41,456.76 1110.42,456.746 1111.43,615.016 1112.44,615.017 1113.46,611.072 1114.47,611.057 1115.48,520.449 1116.49,520.443 1117.5,562.417 1118.51,562.404 1119.53,518.707 1120.54,518.687 1121.55,416.002 1122.56,415.993 1123.57,673.801 1124.58,673.794 1125.6,507.042 1126.61,507.029 1127.62,338.827 1128.63,338.815 1129.64,736.135 1130.66,736.095 1131.67,801.633 1132.68,801.627 1133.69,438.55 1134.7,438.545 1135.71,479.506 1136.73,479.502 1137.74,562.311 1138.75,562.298 1139.76,779.704 1140.77,779.697 1141.78,611.285 1142.8,611.253 1143.81,723.5 1144.82,723.493 1145.83,878.432 1146.84,878.398 1147.85,291.981 1148.87,291.976 1149.88,567.641 1150.89,567.61 1151.9,513.8 1152.91,513.793 1153.92,624.247 1154.94,624.234 1155.95,410.123 1156.96,410.119 1157.97,769.069 1158.98,769.031 1159.99,1011.24 1161.01,1011.16 1162.02,658.145 1163.03,658.123 1164.04,439.792 1165.05,439.787 1166.06,474.993 1167.08,474.99 1168.09,751.224 1169.1,751.221 1170.11,587.587 1171.12,587.563 1172.13,832.403 1173.15,832.336 1174.16,472.785 1175.17,472.781 1176.18,498.942 1177.19,498.935 1178.2,704.879 1179.22,704.886 1180.23,642.953 1181.24,642.926 1182.25,624.054 1183.26,624.041 1184.28,664.599 1185.29,664.576 1186.3,401.937 1187.31,401.919 1188.32,594.006 1189.33,593.974 1190.35,844.562 1191.36,844.52 1192.37,602.611 1193.38,602.595 1194.39,825.977 1195.4,825.963 1196.42,506.187 1197.43,506.181 1198.44,1005.71 1199.45,1005.66 1200.46,743.854 1201.47,743.85 1202.49,819.538 1203.5,819.524 1204.51,642.416 1205.52,642.39 1206.53,300.599 1207.54,300.592 1208.56,745.395 1209.57,745.35 1210.58,421.589 1211.59,421.581 1212.6,796.145 1213.61,796.107 1214.63,848.126 1215.64,848.12 1216.65,555.345 1217.66,555.325 1218.67,581.379 1219.68,581.343 1220.7,1126.6 1221.71,1126.5 1222.72,833.596 1223.73,833.525 1224.74,579.347 1225.75,579.323 1226.77,885.334 1227.78,885.284 1228.79,520.605 1229.8,520.594 1230.81,719.621 1231.82,719.598 1232.84,792.733 1233.85,792.704 1234.86,432.716 1235.87,432.705 1236.88,691.687 1237.9,691.671 1238.91,459.018 1239.92,459.013 1240.93,623.82 1241.94,623.808 1242.95,682.148 1243.97,682.113 1244.98,548.362 1245.99,548.33 1247,604.652 1248.01,604.647 1249.02,949.041 1250.04,948.99 1251.05,775.628 1252.06,775.574 1253.07,618.508 1254.08,618.508 1255.09,766.164 1256.11,766.129 1257.12,421.64 1258.13,421.633 1259.14,746.459 1260.15,746.439 1261.16,827.553 1262.18,827.496 1263.19,1014.99 1264.2,1014.98 1265.21,992.674 1266.22,992.647 1267.23,438.105 1268.25,438.091 1269.26,696.863 1270.27,696.833 1271.28,1023.09 1272.29,1023.04 1273.3,907.648 1274.32,907.628 1275.33,724.24 1276.34,724.211 1277.35,965.044 1278.36,964.924 1279.37,665.876 1280.39,665.871 1281.4,632.66 1282.41,632.617 1283.42,383.674 1284.43,383.655 1285.44,318.052 1286.46,318.042 1287.47,512.01 1288.48,512.014 1289.49,258.153 1290.5,258.15 1291.52,735.964 1292.53,735.924 1293.54,475.199 1294.55,475.191 1295.56,752.302 1296.57,752.27 1297.59,984.684 1298.6,984.617 1299.61,723.189 1300.62,723.163 1301.63,918.064 1302.64,918.019 1303.66,834.848 1304.67,834.809 1305.68,603.979 1306.69,603.946 1307.7,499.457 1308.71,499.45 1309.73,602.157 1310.74,602.138 1311.75,712.324 1312.76,712.3 1313.77,662.797 1314.78,662.772 1315.8,895.483 1316.81,895.473 1317.82,901.055 1318.83,901.004 1319.84,867.527 1320.85,867.475 1321.87,601.196 1322.88,601.182 1323.89,634.651 1324.9,634.607 1325.91,836.974 1326.92,836.955 1327.94,514.699 1328.95,514.693 1329.96,390.791 1330.97,390.786 1331.98,616.253 1332.99,616.241 1334.01,747.713 1335.02,747.703 1336.03,672.89 1337.04,672.879 1338.05,765.415 1339.06,765.382 1340.08,468.031 1341.09,468.026 1342.1,547.137 1343.11,547.125 1344.12,463.676 1345.14,463.678 1346.15,858.609 1347.16,858.559 1348.17,1015.55 1349.18,1015.45 1350.19,608.984 1351.21,608.972 1352.22,482.976 1353.23,482.968 1354.24,687.82 1355.25,687.786 1356.26,705.081 1357.28,705.072 1358.29,1077.7 1359.3,1077.57 1360.31,647.839 1361.32,647.82 1362.33,810.057 1363.35,810.042 1364.36,578.446 1365.37,578.418 1366.38,847.77 1367.39,847.641 1368.4,748.039 1369.42,747.998 1370.43,818.056 1371.44,818.037 1372.45,861.467 1373.46,861.431 1374.47,967.491 1375.49,967.401 1376.5,679.578 1377.51,679.544 1378.52,630.663 1379.53,630.608 1380.54,608.803 1381.56,608.791 1382.57,601.478 1383.58,601.461 1384.59,680.501 1385.6,680.459 1386.61,1129.65 1387.63,1129.54 1388.64,522.593 1389.65,522.574 1390.66,799.086 1391.67,799.051 1392.68,530.69 1393.7,530.678 1394.71,639.247 1395.72,639.237 1396.73,836.332 1397.74,836.294 1398.76,584.687 1399.77,584.669 1400.78,805.371 1401.79,805.351 1402.8,782.087 1403.81,782.06 1404.83,771.615 1405.84,771.587 1406.85,950.05 1407.86,949.968 1408.87,1120.06 1409.88,1119.95 1410.9,818.445 1411.91,818.397 1412.92,677.723 1413.93,677.695 1414.94,848.138 1415.95,848.09 1416.97,700.976 1417.98,700.953 1418.99,778.421 1420,778.376 1421.01,890.03 1422.02,890.012 1423.04,914.197 1424.05,914.185 1425.06,800.556 1426.07,800.542 1427.08,841.039 1428.09,840.968 1429.11,878.123 1430.12,878.078 1431.13,820.331 1432.14,820.316 1433.15,1042.47 1434.16,1042.4 1435.18,569.071 1436.19,569.055 1437.2,686.595 1438.21,686.543 1439.22,582.428 1440.23,582.365 1441.25,576.835 1442.26,576.82 1443.27,725.774 1444.28,725.729 1445.29,539.475 1446.3,539.457 1447.32,965.695 1448.33,965.621 1449.34,981.866 1450.35,981.83 1451.36,736.138 1452.38,736.137 1453.39,570.244 1454.4,570.237 1455.41,768.468 1456.42,768.419 1457.43,591.647 1458.45,591.623 1459.46,1036.28 1460.47,1036.25 1461.48,592.849 1462.49,592.837 1463.5,400.841 1464.52,400.836 1465.53,955.41 1466.54,955.325 1467.55,716.042 1468.56,716.024 1469.57,880.829 1470.59,880.783 1471.6,807.552 1472.61,807.515 1473.62,539.42 1474.63,539.402 1475.64,937.125 1476.66,937.048 1477.67,860.271 1478.68,860.199 1479.69,1183.66 1480.7,1183.59 1481.71,1310.58 1482.73,1310.45 1483.74,547.075 1484.75,547.065 1485.76,1037.3 1486.77,1037.2 1487.78,952.876 1488.8,952.843 1489.81,408.008 1490.82,407.994 1491.83,849.497 1492.84,849.473 1493.85,693.009 1494.87,692.973 1495.88,731.581 1496.89,731.543 1497.9,768.99 1498.91,768.96 1499.92,723.498 1500.94,723.454 1501.95,592.314 1502.96,592.302 1503.97,745.27 1504.98,745.241 1506,996.732 1507.01,996.708 1508.02,394.238 1509.03,394.228 1510.04,607.064 1511.05,607.022 1512.07,773.821 1513.08,773.758 1514.09,709.113 1515.1,709.09 1516.11,829.692 1517.12,829.625 1518.14,730.642 1519.15,730.578 1520.16,869.429 1521.17,869.373 1522.18,532.251 1523.19,532.219 1524.21,1009.1 1525.22,1009.05 1526.23,916.623 1527.24,916.581 1528.25,861.124 1529.26,861.113 1530.28,917.862 1531.29,917.833 1532.3,1164.64 1533.31,1164.52 1534.32,691.276 1535.33,691.255 1536.35,501.267 1537.36,501.26 1538.37,682.696 1539.38,682.67 1540.39,902.528 1541.4,902.496 1542.42,815.637 1543.43,815.596 1544.44,836.415 1545.45,836.363 1546.46,803.378 1547.47,803.361 1548.49,766.277 1549.5,766.264 1550.51,872.86 1551.52,872.803 1552.53,814.973 1553.54,814.941 1554.56,872.457 1555.57,872.442 1556.58,699.065 1557.59,699.046 1558.6,872.107 1559.62,872.051 1560.63,1048.5 1561.64,1048.42 1562.65,739.815 1563.66,739.801 1564.67,1078.31 1565.69,1078.3 1566.7,916.206 1567.71,916.157 1568.72,749.769 1569.73,749.753 1570.74,655.329 1571.76,655.283 1572.77,987.133 1573.78,987.109 1574.79,920.205 1575.8,920.162 1576.81,856.381 1577.83,856.356 1578.84,781.213 1579.85,781.178 1580.86,950.67 1581.87,950.645 1582.88,554.978 1583.9,554.969 1584.91,563.901 1585.92,563.892 1586.93,867.126 1587.94,867.084 1588.95,1239.32 1589.97,1239.27 1590.98,929.119 1591.99,929.078 1593,674.241 1594.01,674.22 1595.02,613.453 1596.04,613.453 1597.05,690.687 1598.06,690.668 1599.07,958.475 1600.08,958.454 1601.09,991.095 1602.11,991.038 1603.12,991.146 1604.13,991.132 1605.14,796.432 1606.15,796.399 1607.16,645.159 1608.18,645.139 1609.19,884.787 1610.2,884.682 1611.21,695.607 1612.22,695.594 1613.24,611.841 1614.25,611.822 1615.26,1099.9 1616.27,1099.81 1617.28,1045.6 1618.29,1045.52 1619.31,896.303 1620.32,896.285 1621.33,691.547 1622.34,691.504 1623.35,706.661 1624.36,706.645 1625.38,722.71 1626.39,722.688 1627.4,979.373 1628.41,979.302 1629.42,768.647 1630.43,768.626 1631.45,780.96 1632.46,780.903 1633.47,1131.88 1634.48,1131.8 1635.49,822.476 1636.5,822.458 1637.52,866.74 1638.53,866.694 1639.54,832.876 1640.55,832.836 1641.56,583.992 1642.57,583.982 1643.59,850.224 1644.6,850.193 1645.61,438.465 1646.62,438.451 1647.63,928.498 1648.64,928.413 1649.66,1262.29 1650.67,1262.21 1651.68,653.218 1652.69,653.204 1653.7,739.244 1654.71,739.22 1655.73,787.994 1656.74,787.96 1657.75,750.348 1658.76,750.321 1659.77,916.123 1660.78,916.101 1661.8,995.988 1662.81,995.948 1663.82,826.14 1664.83,826.133 1665.84,519.31 1666.86,519.299 1667.87,972.218 1668.88,972.129 1669.89,714.26 1670.9,714.242 1671.91,650.524 1672.93,650.523 1673.94,618.811 1674.95,618.789 1675.96,1124.08 1676.97,1123.97 1677.98,913.192 1679,913.134 1680.01,1009.85 1681.02,1009.77 1682.03,855.228 1683.04,855.183 1684.05,650.59 1685.07,650.589 1686.08,875.262 1687.09,875.216 1688.1,747.861 1689.11,747.855 1690.12,503.129 1691.14,503.122 1692.15,632.915 1693.16,632.906 1694.17,776.841 1695.18,776.801 1696.19,1016.47 1697.21,1016.43 1698.22,882.887 1699.23,882.842 1700.24,944.881 1701.25,944.785 1702.26,936.798 1703.28,936.746 1704.29,918.107 1705.3,918.046 1706.31,899.071 1707.32,899.024 1708.33,872.602 1709.35,872.575 1710.36,839.423 1711.37,839.388 1712.38,690.538 1713.39,690.508 1714.4,1099.58 1715.42,1099.53 1716.43,847.286 1717.44,847.256 1718.45,487.426 1719.46,487.415 1720.47,1050.63 1721.49,1050.61 1722.5,818.746 1723.51,818.666 1724.52,978.117 1725.53,978.048 1726.55,897.78 1727.56,897.723 1728.57,952.951 1729.58,952.906 1730.59,939.906 1731.6,939.871 1732.62,503.708 1733.63,503.7 1734.64,913.231 1735.65,913.211 1736.66,968 1737.67,967.956 1738.69,539.486 1739.7,539.479 1740.71,732.805 1741.72,732.785 1742.73,938.973 1743.74,938.928 1744.76,913.577 1745.77,913.534 1746.78,966.411 1747.79,966.364 1748.8,1037.27 1749.81,1037.18 1750.83,1042.77 1751.84,1042.76 1752.85,564.352 1753.86,564.337 1754.87,671.38 1755.88,671.367 1756.9,566.2 1757.91,566.189 1758.92,783.497 1759.93,783.482 1760.94,958.813 1761.95,958.784 1762.97,1029.84 1763.98,1029.78 1764.99,913.925 1766,913.91 1767.01,723.099 1768.02,723.077 1769.04,1020.22 1770.05,1020.15 1771.06,890.8 1772.07,890.759 1773.08,644.679 1774.09,644.668 1775.11,1026.17 1776.12,1026.11 1777.13,670.202 1778.14,670.191 1779.15,759.58 1780.17,759.555 1781.18,909.396 1782.19,909.381 1783.2,957.078 1784.21,957.057 1785.22,723.02 1786.24,723.008 1787.25,860.809 1788.26,860.799 1789.27,739.86 1790.28,739.845 1791.29,672.106 1792.31,672.087 1793.32,1165.34 1794.33,1165.28 1795.34,1186.56 1796.35,1186.47 1797.36,1058.57 1798.38,1058.47 1799.39,732.425 1800.4,732.412 1801.41,604.796 1802.42,604.795 1803.43,1347.1 1804.45,1347.02 1805.46,790.996 1806.47,790.987 1807.48,850.529 1808.49,850.511 1809.5,1064.79 1810.52,1064.7 1811.53,876.107 1812.54,876.074 1813.55,1389.03 1814.56,1388.93 1815.57,679.074 1816.59,679.059 1817.6,702.284 1818.61,702.282 1819.62,1244.79 1820.63,1244.66 1821.64,868.083 1822.66,868.068 1823.67,1020.24 1824.68,1020.17 1825.69,747.383 1826.7,747.353 1827.71,860.887 1828.73,860.844 1829.74,930.458 1830.75,930.411 1831.76,775.245 1832.77,775.221 1833.79,854.385 1834.8,854.359 1835.81,887.181 1836.82,887.126 1837.83,556.669 1838.84,556.655 1839.86,811.961 1840.87,811.944 1841.88,1122 1842.89,1121.97 1843.9,1043.84 1844.91,1043.8 1845.93,1146.04 1846.94,1146 1847.95,935.111 1848.96,935.053 1849.97,1060.81 1850.98,1060.78 1852,936.037 1853.01,935.939 1854.02,825.305 1855.03,825.271 1856.04,918.542 1857.05,918.508 1858.07,1001.26 1859.08,1001.21 1860.09,844.416 1861.1,844.391 1862.11,927.145 1863.12,927.136 1864.14,1003.3 1865.15,1003.22 1866.16,1164.73 1867.17,1164.64 1868.18,1094.86 1869.19,1094.76 1870.21,1094.69 1871.22,1094.63 1872.23,1184.35 1873.24,1184.28 1874.25,1093.78 1875.26,1093.71 1876.28,1244.47 1877.29,1244.34 1878.3,718.314 1879.31,718.255 1880.32,962.127 1881.33,962.047 1882.35,960.215 1883.36,960.17 1884.37,869.14 1885.38,869.134 1886.39,913.256 1887.41,913.241 1888.42,866.095 1889.43,866.06 1890.44,1135.93 1891.45,1135.88 1892.46,886.826 1893.48,886.794 1894.49,974.355 1895.5,974.295 1896.51,1211.67 1897.52,1211.59 1898.53,806.078 1899.55,806.062 1900.56,833.925 1901.57,833.899 1902.58,1030.71 1903.59,1030.67 1904.6,862.874 1905.62,862.82 1906.63,1221.2 1907.64,1221.11 1908.65,825.838 1909.66,825.834 1910.67,1014.47 1911.69,1014.45 1912.7,1085.2 1913.71,1085.15 1914.72,966.99 1915.73,966.962 1916.74,790.793 1917.76,790.794 1918.77,884.064 1919.78,884.049 1920.79,977.163 1921.8,977.09 1922.81,816.983 1923.83,816.952 1924.84,1068.39 1925.85,1068.31 1926.86,806.015 1927.87,805.985 1928.88,881.445 1929.9,881.369 1930.91,960.956 1931.92,960.928 1932.93,1053.59 1933.94,1053.54 1934.95,797.482 1935.97,797.452 1936.98,1269.24 1937.99,1269.19 1939,1267.13 1940.01,1267.02 1941.03,812.858 1942.04,812.81 1943.05,1191.45 1944.06,1191.37 1945.07,1118.37 1946.08,1118.35 1947.1,942.399 1948.11,942.386 1949.12,1044.55 1950.13,1044.49 1951.14,818.778 1952.15,818.771 1953.17,882.647 1954.18,882.63 1955.19,785.381 1956.2,785.337 1957.21,832.192 1958.22,832.182 1959.24,1045.86 1960.25,1045.79 1961.26,726.94 1962.27,726.929 1963.28,1414.72 1964.29,1414.61 1965.31,942.114 1966.32,942.063 1967.33,1140.38 1968.34,1140.29 1969.35,1258.03 1970.36,1257.96 1971.38,891.566 1972.39,891.523 1973.4,1137.99 1974.41,1137.95 1975.42,1212.57 1976.43,1212.53 1977.45,1029.21 1978.46,1029.18 1979.47,1142.91 1980.48,1142.84 1981.49,1445.72 1982.5,1445.58 1983.52,1087.68 1984.53,1087.64 1985.54,1068.23 1986.55,1068.19 1987.56,865.955 1988.57,865.925 1989.59,988.017 1990.6,987.992 1991.61,921.999 1992.62,921.977 1993.63,679.873 1994.65,679.864 1995.66,1026.55 1996.67,1026.48 1997.68,680.081 1998.69,680.064 1999.7,1024.03 2000.72,1023.96 2001.73,791.566 2002.74,791.548 2003.75,635.124 2004.76,635.089 2005.77,1224.17 2006.79,1224.12 2007.8,952.175 2008.81,952.136 2009.82,1131.25 2010.83,1131.21 2011.84,856.82 2012.86,856.788 2013.87,915.328 2014.88,915.289 2015.89,848.064 2016.9,848.022 2017.91,1128.98 2018.93,1128.95 2019.94,1019.26 2020.95,1019.25 2021.96,1221.93 2022.97,1221.89 2023.98,629.415 2025,629.408 2026.01,790.477 2027.02,790.46 2028.03,981.105 2029.04,981.047 2030.05,1177.38 2031.07,1177.36 2032.08,905.911 2033.09,905.89 2034.1,1225.35 2035.11,1225.28 2036.12,953.366 2037.14,953.333 2038.15,1064.96 2039.16,1064.92 2040.17,1152.26 2041.18,1152.22 2042.19,754.055 2043.21,754.04 2044.22,976.981 2045.23,976.926 2046.24,980.801 2047.25,980.739 2048.27,749.402 2049.28,749.365 2050.29,969.191 2051.3,969.147 2052.31,1066.31 2053.32,1066.28 2054.34,654.819 2055.35,654.808 2056.36,1235.32 2057.37,1235.26 2058.38,922.829 2059.39,922.787 2060.41,1196.42 2061.42,1196.33 2062.43,1082.72 2063.44,1082.67 2064.45,1079.36 2065.46,1079.32 2066.48,920.574 2067.49,920.551 2068.5,1055.87 2069.51,1055.79 2070.52,861.126 2071.53,861.083 2072.55,668.462 2073.56,668.45 2074.57,1000.54 2075.58,1000.51 2076.59,1276.88 2077.6,1276.76 2078.62,922.19 2079.63,922.149 2080.64,1176.3 2081.65,1176.26 2082.66,1059.1 2083.67,1059.05 2084.69,977.397 2085.7,977.365 2086.71,799.67 2087.72,799.655 2088.73,996.942 2089.74,996.906 2090.76,1164.46 2091.77,1164.37 2092.78,1029.72 2093.79,1029.64 2094.8,1115.67 2095.81,1115.62 2096.83,749.972 2097.84,749.957 2098.85,1339.47 2099.86,1339.35 2100.87,837.414 2101.89,837.394 2102.9,1094.71 2103.91,1094.69 2104.92,1102.44 2105.93,1102.37 2106.94,912.78 2107.96,912.745 2108.97,1357.42 2109.98,1357.28 2110.99,937.333 2112,937.299 2113.01,1296.88 2114.03,1296.79 2115.04,824.245 2116.05,824.216 2117.06,960.846 2118.07,960.842 2119.08,963.083 2120.1,963.06 2121.11,963.036 2122.12,963.013 2123.13,1269.37 2124.14,1269.29 2125.15,1184.36 2126.17,1184.31 2127.18,998.054 2128.19,998.005 2129.2,898.379 2130.21,898.343 2131.22,1014.47 2132.24,1014.44 2133.25,1034.25 2134.26,1034.18 2135.27,595.265 2136.28,595.256 2137.29,778.858 2138.31,778.853 2139.32,1014.95 2140.33,1014.91 2141.34,1143.1 2142.35,1143.07 2143.36,1077.78 2144.38,1077.72 2145.39,1178.67 2146.4,1178.61 2147.41,905.779 2148.42,905.735 2149.43,944.175 2150.45,944.147 2151.46,1266.46 2152.47,1266.43 2153.48,867.561 2154.49,867.512 2155.51,1012.99 2156.52,1012.96 2157.53,938.595 2158.54,938.523 2159.55,874.193 2160.56,874.156 2161.58,793.191 2162.59,793.153 2163.6,1270.62 2164.61,1270.56 2165.62,1168.65 2166.63,1168.61 2167.65,1034.89 2168.66,1034.83 2169.67,1007.3 2170.68,1007.25 2171.69,1079.69 2172.7,1079.61 2173.72,1239.22 2174.73,1239.16 2175.74,1285.12 2176.75,1285 2177.76,729.186 2178.77,729.173 2179.79,765.569 2180.8,765.546 2181.81,860.357 2182.82,860.332 2183.83,1076.91 2184.84,1076.87 2185.86,969.66 2186.87,969.616 2187.88,1113.86 2188.89,1113.81 2189.9,1056.9 2190.91,1056.85 2191.93,944.144 2192.94,944.107 2193.95,1075.82 2194.96,1075.79 2195.97,993.968 2196.98,993.951 2198,737.901 2199.01,737.889 2200.02,1048.89 2201.03,1048.8 2202.04,1075.2 2203.05,1075.16 2204.07,1312.92 2205.08,1312.87 2206.09,1295.61 2207.1,1295.58 2208.11,725.707 2209.13,725.683 2210.14,1135.59 2211.15,1135.56 2212.16,1121.11 2213.17,1121.07 2214.18,1150.92 2215.2,1150.89 2216.21,990.201 2217.22,990.151 2218.23,868.108 2219.24,868.088 2220.25,932.429 2221.27,932.417 2222.28,1149.56 2223.29,1149.48 2224.3,922.168 2225.31,922.159 2226.32,1254.32 2227.34,1254.29 2228.35,1072.58 2229.36,1072.57 2230.37,660.954 2231.38,660.926 2232.39,941.802 2233.41,941.768 2234.42,1141.67 2235.43,1141.62 2236.44,1275.2 2237.45,1275.19 2238.46,837.011 2239.48,836.984 2240.49,1232.23 2241.5,1232.15 2242.51,1104.7 2243.52,1104.67 2244.53,1125.15 2245.55,1125.09 2246.56,1002.68 2247.57,1002.65 2248.58,1113.4 2249.59,1113.37 2250.6,1170.97 2251.62,1170.91 2252.63,907.394 2253.64,907.365 2254.65,805.486 2255.66,805.449 2256.67,1163.36 2257.69,1163.29 2258.7,811.532 2259.71,811.513 2260.72,1092.19 2261.73,1092.14 2262.75,1427.24 2263.76,1427.19 2264.77,881.254 2265.78,881.234 2266.79,1240.28 2267.8,1240.17 2268.82,1136.31 2269.83,1136.23 2270.84,1073.78 2271.85,1073.72 2272.86,1149.05 2273.87,1149 2274.89,1018.92 2275.9,1018.9 2276.91,1171.88 2277.92,1171.83 2278.93,1108.65 2279.94,1108.62 2280.96,849.512 2281.97,849.491 2282.98,830.009 2283.99,829.993 2285,1000.07 2286.01,1000.04 2287.03,1172.69 2288.04,1172.65 2289.05,1071.62 2290.06,1071.59 2291.07,1071.2 2292.08,1071.18 "/>
<path clip-path="url(#clip350)" d="M2014.5 198.898 L2281.3 198.898 L2281.3 95.2176 L2014.5 95.2176  Z" fill="#ffffff" fill-rule="evenodd" fill-opacity="1"/>
<polyline clip-path="url(#clip350)" style="stroke:#000000; stroke-linecap:round; stroke-linejoin:round; stroke-width:4; stroke-opacity:1; fill:none" points="2014.5,198.898 2281.3,198.898 2281.3,95.2176 2014.5,95.2176 2014.5,198.898 "/>
<polyline clip-path="url(#clip350)" style="stroke:#009af9; stroke-linecap:round; stroke-linejoin:round; stroke-width:4; stroke-opacity:1; fill:none" points="2038.31,147.058 2181.23,147.058 "/>
<path clip-path="url(#clip350)" d="M2218.89 166.745 Q2217.09 171.375 2215.37 172.787 Q2213.66 174.199 2210.79 174.199 L2207.39 174.199 L2207.39 170.634 L2209.89 170.634 Q2211.65 170.634 2212.62 169.8 Q2213.59 168.967 2214.77 165.865 L2215.53 163.921 L2205.05 138.412 L2209.56 138.412 L2217.66 158.689 L2225.77 138.412 L2230.28 138.412 L2218.89 166.745 Z" fill="#000000" fill-rule="nonzero" fill-opacity="1" /><path clip-path="url(#clip350)" d="M2237.57 160.402 L2245.21 160.402 L2245.21 134.037 L2236.9 135.703 L2236.9 131.444 L2245.16 129.778 L2249.84 129.778 L2249.84 160.402 L2257.48 160.402 L2257.48 164.338 L2237.57 164.338 L2237.57 160.402 Z" fill="#000000" fill-rule="nonzero" fill-opacity="1" /></svg>
