<?xml version="1.0" encoding="utf-8"?>
<svg xmlns="http://www.w3.org/2000/svg" xmlns:xlink="http://www.w3.org/1999/xlink" width="600" height="400" viewBox="0 0 2400 1600">
<defs>
  <clipPath id="clip320">
    <rect x="0" y="0" width="2400" height="1600"/>
  </clipPath>
</defs>
<path clip-path="url(#clip320)" d="M0 1600 L2400 1600 L2400 0 L0 0  Z" fill="#ffffff" fill-rule="evenodd" fill-opacity="1"/>
<defs>
  <clipPath id="clip321">
    <rect x="480" y="0" width="1681" height="1600"/>
  </clipPath>
</defs>
<path clip-path="url(#clip320)" d="M140.696 1486.45 L2352.76 1486.45 L2352.76 47.2441 L140.696 47.2441  Z" fill="#ffffff" fill-rule="evenodd" fill-opacity="1"/>
<defs>
  <clipPath id="clip322">
    <rect x="140" y="47" width="2213" height="1440"/>
  </clipPath>
</defs>
<polyline clip-path="url(#clip322)" style="stroke:#000000; stroke-linecap:round; stroke-linejoin:round; stroke-width:2; stroke-opacity:0.1; fill:none" points="203.301,1486.45 203.301,47.2441 "/>
<polyline clip-path="url(#clip322)" style="stroke:#000000; stroke-linecap:round; stroke-linejoin:round; stroke-width:2; stroke-opacity:0.1; fill:none" points="725.013,1486.45 725.013,47.2441 "/>
<polyline clip-path="url(#clip322)" style="stroke:#000000; stroke-linecap:round; stroke-linejoin:round; stroke-width:2; stroke-opacity:0.1; fill:none" points="1246.73,1486.45 1246.73,47.2441 "/>
<polyline clip-path="url(#clip322)" style="stroke:#000000; stroke-linecap:round; stroke-linejoin:round; stroke-width:2; stroke-opacity:0.1; fill:none" points="1768.44,1486.45 1768.44,47.2441 "/>
<polyline clip-path="url(#clip322)" style="stroke:#000000; stroke-linecap:round; stroke-linejoin:round; stroke-width:2; stroke-opacity:0.1; fill:none" points="2290.15,1486.45 2290.15,47.2441 "/>
<polyline clip-path="url(#clip320)" style="stroke:#000000; stroke-linecap:round; stroke-linejoin:round; stroke-width:4; stroke-opacity:1; fill:none" points="140.696,1486.45 2352.76,1486.45 "/>
<polyline clip-path="url(#clip320)" style="stroke:#000000; stroke-linecap:round; stroke-linejoin:round; stroke-width:4; stroke-opacity:1; fill:none" points="203.301,1486.45 203.301,1467.55 "/>
<polyline clip-path="url(#clip320)" style="stroke:#000000; stroke-linecap:round; stroke-linejoin:round; stroke-width:4; stroke-opacity:1; fill:none" points="725.013,1486.45 725.013,1467.55 "/>
<polyline clip-path="url(#clip320)" style="stroke:#000000; stroke-linecap:round; stroke-linejoin:round; stroke-width:4; stroke-opacity:1; fill:none" points="1246.73,1486.45 1246.73,1467.55 "/>
<polyline clip-path="url(#clip320)" style="stroke:#000000; stroke-linecap:round; stroke-linejoin:round; stroke-width:4; stroke-opacity:1; fill:none" points="1768.44,1486.45 1768.44,1467.55 "/>
<polyline clip-path="url(#clip320)" style="stroke:#000000; stroke-linecap:round; stroke-linejoin:round; stroke-width:4; stroke-opacity:1; fill:none" points="2290.15,1486.45 2290.15,1467.55 "/>
<path clip-path="url(#clip320)" d="M203.301 1517.37 Q199.69 1517.37 197.861 1520.93 Q196.056 1524.47 196.056 1531.6 Q196.056 1538.71 197.861 1542.27 Q199.69 1545.82 203.301 1545.82 Q206.935 1545.82 208.741 1542.27 Q210.57 1538.71 210.57 1531.6 Q210.57 1524.47 208.741 1520.93 Q206.935 1517.37 203.301 1517.37 M203.301 1513.66 Q209.111 1513.66 212.167 1518.27 Q215.245 1522.85 215.245 1531.6 Q215.245 1540.33 212.167 1544.94 Q209.111 1549.52 203.301 1549.52 Q197.491 1549.52 194.412 1544.94 Q191.357 1540.33 191.357 1531.6 Q191.357 1522.85 194.412 1518.27 Q197.491 1513.66 203.301 1513.66 Z" fill="#000000" fill-rule="nonzero" fill-opacity="1" /><path clip-path="url(#clip320)" d="M684.632 1514.29 L702.988 1514.29 L702.988 1518.22 L688.914 1518.22 L688.914 1526.7 Q689.933 1526.35 690.951 1526.19 Q691.97 1526 692.988 1526 Q698.775 1526 702.155 1529.17 Q705.534 1532.34 705.534 1537.76 Q705.534 1543.34 702.062 1546.44 Q698.59 1549.52 692.27 1549.52 Q690.095 1549.52 687.826 1549.15 Q685.581 1548.78 683.173 1548.04 L683.173 1543.34 Q685.257 1544.47 687.479 1545.03 Q689.701 1545.58 692.178 1545.58 Q696.183 1545.58 698.52 1543.48 Q700.858 1541.37 700.858 1537.76 Q700.858 1534.15 698.52 1532.04 Q696.183 1529.94 692.178 1529.94 Q690.303 1529.94 688.428 1530.35 Q686.576 1530.77 684.632 1531.65 L684.632 1514.29 Z" fill="#000000" fill-rule="nonzero" fill-opacity="1" /><path clip-path="url(#clip320)" d="M724.747 1517.37 Q721.136 1517.37 719.307 1520.93 Q717.502 1524.47 717.502 1531.6 Q717.502 1538.71 719.307 1542.27 Q721.136 1545.82 724.747 1545.82 Q728.381 1545.82 730.187 1542.27 Q732.016 1538.71 732.016 1531.6 Q732.016 1524.47 730.187 1520.93 Q728.381 1517.37 724.747 1517.37 M724.747 1513.66 Q730.557 1513.66 733.613 1518.27 Q736.692 1522.85 736.692 1531.6 Q736.692 1540.33 733.613 1544.94 Q730.557 1549.52 724.747 1549.52 Q718.937 1549.52 715.858 1544.94 Q712.803 1540.33 712.803 1531.6 Q712.803 1522.85 715.858 1518.27 Q718.937 1513.66 724.747 1513.66 Z" fill="#000000" fill-rule="nonzero" fill-opacity="1" /><path clip-path="url(#clip320)" d="M754.909 1517.37 Q751.298 1517.37 749.469 1520.93 Q747.664 1524.47 747.664 1531.6 Q747.664 1538.71 749.469 1542.27 Q751.298 1545.82 754.909 1545.82 Q758.543 1545.82 760.349 1542.27 Q762.178 1538.71 762.178 1531.6 Q762.178 1524.47 760.349 1520.93 Q758.543 1517.37 754.909 1517.37 M754.909 1513.66 Q760.719 1513.66 763.775 1518.27 Q766.853 1522.85 766.853 1531.6 Q766.853 1540.33 763.775 1544.94 Q760.719 1549.52 754.909 1549.52 Q749.099 1549.52 746.02 1544.94 Q742.965 1540.33 742.965 1531.6 Q742.965 1522.85 746.02 1518.27 Q749.099 1513.66 754.909 1513.66 Z" fill="#000000" fill-rule="nonzero" fill-opacity="1" /><path clip-path="url(#clip320)" d="M1191.25 1544.91 L1198.89 1544.91 L1198.89 1518.55 L1190.58 1520.21 L1190.58 1515.95 L1198.84 1514.29 L1203.52 1514.29 L1203.52 1544.91 L1211.16 1544.91 L1211.16 1548.85 L1191.25 1548.85 L1191.25 1544.91 Z" fill="#000000" fill-rule="nonzero" fill-opacity="1" /><path clip-path="url(#clip320)" d="M1230.6 1517.37 Q1226.99 1517.37 1225.16 1520.93 Q1223.36 1524.47 1223.36 1531.6 Q1223.36 1538.71 1225.16 1542.27 Q1226.99 1545.82 1230.6 1545.82 Q1234.24 1545.82 1236.04 1542.27 Q1237.87 1538.71 1237.87 1531.6 Q1237.87 1524.47 1236.04 1520.93 Q1234.24 1517.37 1230.6 1517.37 M1230.6 1513.66 Q1236.41 1513.66 1239.47 1518.27 Q1242.55 1522.85 1242.55 1531.6 Q1242.55 1540.33 1239.47 1544.94 Q1236.41 1549.52 1230.6 1549.52 Q1224.79 1549.52 1221.71 1544.94 Q1218.66 1540.33 1218.66 1531.6 Q1218.66 1522.85 1221.71 1518.27 Q1224.79 1513.66 1230.6 1513.66 Z" fill="#000000" fill-rule="nonzero" fill-opacity="1" /><path clip-path="url(#clip320)" d="M1260.77 1517.37 Q1257.15 1517.37 1255.33 1520.93 Q1253.52 1524.47 1253.52 1531.6 Q1253.52 1538.71 1255.33 1542.27 Q1257.15 1545.82 1260.77 1545.82 Q1264.4 1545.82 1266.2 1542.27 Q1268.03 1538.71 1268.03 1531.6 Q1268.03 1524.47 1266.2 1520.93 Q1264.4 1517.37 1260.77 1517.37 M1260.77 1513.66 Q1266.58 1513.66 1269.63 1518.27 Q1272.71 1522.85 1272.71 1531.6 Q1272.71 1540.33 1269.63 1544.94 Q1266.58 1549.52 1260.77 1549.52 Q1254.95 1549.52 1251.88 1544.94 Q1248.82 1540.33 1248.82 1531.6 Q1248.82 1522.85 1251.88 1518.27 Q1254.95 1513.66 1260.77 1513.66 Z" fill="#000000" fill-rule="nonzero" fill-opacity="1" /><path clip-path="url(#clip320)" d="M1290.93 1517.37 Q1287.32 1517.37 1285.49 1520.93 Q1283.68 1524.47 1283.68 1531.6 Q1283.68 1538.71 1285.49 1542.27 Q1287.32 1545.82 1290.93 1545.82 Q1294.56 1545.82 1296.37 1542.27 Q1298.2 1538.71 1298.2 1531.6 Q1298.2 1524.47 1296.37 1520.93 Q1294.56 1517.37 1290.93 1517.37 M1290.93 1513.66 Q1296.74 1513.66 1299.79 1518.27 Q1302.87 1522.85 1302.87 1531.6 Q1302.87 1540.33 1299.79 1544.94 Q1296.74 1549.52 1290.93 1549.52 Q1285.12 1549.52 1282.04 1544.94 Q1278.98 1540.33 1278.98 1531.6 Q1278.98 1522.85 1282.04 1518.27 Q1285.12 1513.66 1290.93 1513.66 Z" fill="#000000" fill-rule="nonzero" fill-opacity="1" /><path clip-path="url(#clip320)" d="M1712.96 1544.91 L1720.6 1544.91 L1720.6 1518.55 L1712.29 1520.21 L1712.29 1515.95 L1720.56 1514.29 L1725.23 1514.29 L1725.23 1544.91 L1732.87 1544.91 L1732.87 1548.85 L1712.96 1548.85 L1712.96 1544.91 Z" fill="#000000" fill-rule="nonzero" fill-opacity="1" /><path clip-path="url(#clip320)" d="M1742.36 1514.29 L1760.72 1514.29 L1760.72 1518.22 L1746.64 1518.22 L1746.64 1526.7 Q1747.66 1526.35 1748.68 1526.19 Q1749.7 1526 1750.72 1526 Q1756.51 1526 1759.88 1529.17 Q1763.26 1532.34 1763.26 1537.76 Q1763.26 1543.34 1759.79 1546.44 Q1756.32 1549.52 1750 1549.52 Q1747.82 1549.52 1745.56 1549.15 Q1743.31 1548.78 1740.9 1548.04 L1740.9 1543.34 Q1742.99 1544.47 1745.21 1545.03 Q1747.43 1545.58 1749.91 1545.58 Q1753.91 1545.58 1756.25 1543.48 Q1758.59 1541.37 1758.59 1537.76 Q1758.59 1534.15 1756.25 1532.04 Q1753.91 1529.94 1749.91 1529.94 Q1748.03 1529.94 1746.16 1530.35 Q1744.31 1530.77 1742.36 1531.65 L1742.36 1514.29 Z" fill="#000000" fill-rule="nonzero" fill-opacity="1" /><path clip-path="url(#clip320)" d="M1782.48 1517.37 Q1778.87 1517.37 1777.04 1520.93 Q1775.23 1524.47 1775.23 1531.6 Q1775.23 1538.71 1777.04 1542.27 Q1778.87 1545.82 1782.48 1545.82 Q1786.11 1545.82 1787.92 1542.27 Q1789.75 1538.71 1789.75 1531.6 Q1789.75 1524.47 1787.92 1520.93 Q1786.11 1517.37 1782.48 1517.37 M1782.48 1513.66 Q1788.29 1513.66 1791.34 1518.27 Q1794.42 1522.85 1794.42 1531.6 Q1794.42 1540.33 1791.34 1544.94 Q1788.29 1549.52 1782.48 1549.52 Q1776.67 1549.52 1773.59 1544.94 Q1770.53 1540.33 1770.53 1531.6 Q1770.53 1522.85 1773.59 1518.27 Q1776.67 1513.66 1782.48 1513.66 Z" fill="#000000" fill-rule="nonzero" fill-opacity="1" /><path clip-path="url(#clip320)" d="M1812.64 1517.37 Q1809.03 1517.37 1807.2 1520.93 Q1805.39 1524.47 1805.39 1531.6 Q1805.39 1538.71 1807.2 1542.27 Q1809.03 1545.82 1812.64 1545.82 Q1816.27 1545.82 1818.08 1542.27 Q1819.91 1538.71 1819.91 1531.6 Q1819.91 1524.47 1818.08 1520.93 Q1816.27 1517.37 1812.64 1517.37 M1812.64 1513.66 Q1818.45 1513.66 1821.5 1518.27 Q1824.58 1522.85 1824.58 1531.6 Q1824.58 1540.33 1821.5 1544.94 Q1818.45 1549.52 1812.64 1549.52 Q1806.83 1549.52 1803.75 1544.94 Q1800.69 1540.33 1800.69 1531.6 Q1800.69 1522.85 1803.75 1518.27 Q1806.83 1513.66 1812.64 1513.66 Z" fill="#000000" fill-rule="nonzero" fill-opacity="1" /><path clip-path="url(#clip320)" d="M2238.76 1544.91 L2255.08 1544.91 L2255.08 1548.85 L2233.14 1548.85 L2233.14 1544.91 Q2235.8 1542.16 2240.38 1537.53 Q2244.99 1532.88 2246.17 1531.53 Q2248.41 1529.01 2249.29 1527.27 Q2250.2 1525.51 2250.2 1523.82 Q2250.2 1521.07 2248.25 1519.33 Q2246.33 1517.6 2243.23 1517.6 Q2241.03 1517.6 2238.58 1518.36 Q2236.15 1519.13 2233.37 1520.68 L2233.37 1515.95 Q2236.19 1514.82 2238.65 1514.24 Q2241.1 1513.66 2243.14 1513.66 Q2248.51 1513.66 2251.7 1516.35 Q2254.9 1519.03 2254.9 1523.52 Q2254.9 1525.65 2254.09 1527.57 Q2253.3 1529.47 2251.19 1532.07 Q2250.61 1532.74 2247.51 1535.95 Q2244.41 1539.15 2238.76 1544.91 Z" fill="#000000" fill-rule="nonzero" fill-opacity="1" /><path clip-path="url(#clip320)" d="M2274.9 1517.37 Q2271.28 1517.37 2269.46 1520.93 Q2267.65 1524.47 2267.65 1531.6 Q2267.65 1538.71 2269.46 1542.27 Q2271.28 1545.82 2274.9 1545.82 Q2278.53 1545.82 2280.34 1542.27 Q2282.16 1538.71 2282.16 1531.6 Q2282.16 1524.47 2280.34 1520.93 Q2278.53 1517.37 2274.9 1517.37 M2274.9 1513.66 Q2280.71 1513.66 2283.76 1518.27 Q2286.84 1522.85 2286.84 1531.6 Q2286.84 1540.33 2283.76 1544.94 Q2280.71 1549.52 2274.9 1549.52 Q2269.09 1549.52 2266.01 1544.94 Q2262.95 1540.33 2262.95 1531.6 Q2262.95 1522.85 2266.01 1518.27 Q2269.09 1513.66 2274.9 1513.66 Z" fill="#000000" fill-rule="nonzero" fill-opacity="1" /><path clip-path="url(#clip320)" d="M2305.06 1517.37 Q2301.45 1517.37 2299.62 1520.93 Q2297.81 1524.47 2297.81 1531.6 Q2297.81 1538.71 2299.62 1542.27 Q2301.45 1545.82 2305.06 1545.82 Q2308.69 1545.82 2310.5 1542.27 Q2312.33 1538.71 2312.33 1531.6 Q2312.33 1524.47 2310.5 1520.93 Q2308.69 1517.37 2305.06 1517.37 M2305.06 1513.66 Q2310.87 1513.66 2313.92 1518.27 Q2317 1522.85 2317 1531.6 Q2317 1540.33 2313.92 1544.94 Q2310.87 1549.52 2305.06 1549.52 Q2299.25 1549.52 2296.17 1544.94 Q2293.11 1540.33 2293.11 1531.6 Q2293.11 1522.85 2296.17 1518.27 Q2299.25 1513.66 2305.06 1513.66 Z" fill="#000000" fill-rule="nonzero" fill-opacity="1" /><path clip-path="url(#clip320)" d="M2335.22 1517.37 Q2331.61 1517.37 2329.78 1520.93 Q2327.97 1524.47 2327.97 1531.6 Q2327.97 1538.71 2329.78 1542.27 Q2331.61 1545.82 2335.22 1545.82 Q2338.85 1545.82 2340.66 1542.27 Q2342.49 1538.71 2342.49 1531.6 Q2342.49 1524.47 2340.66 1520.93 Q2338.85 1517.37 2335.22 1517.37 M2335.22 1513.66 Q2341.03 1513.66 2344.09 1518.27 Q2347.16 1522.85 2347.16 1531.6 Q2347.16 1540.33 2344.09 1544.94 Q2341.03 1549.52 2335.22 1549.52 Q2329.41 1549.52 2326.33 1544.94 Q2323.28 1540.33 2323.28 1531.6 Q2323.28 1522.85 2326.33 1518.27 Q2329.41 1513.66 2335.22 1513.66 Z" fill="#000000" fill-rule="nonzero" fill-opacity="1" /><polyline clip-path="url(#clip322)" style="stroke:#000000; stroke-linecap:round; stroke-linejoin:round; stroke-width:2; stroke-opacity:0.1; fill:none" points="140.696,1323.52 2352.76,1323.52 "/>
<polyline clip-path="url(#clip322)" style="stroke:#000000; stroke-linecap:round; stroke-linejoin:round; stroke-width:2; stroke-opacity:0.1; fill:none" points="140.696,1091.11 2352.76,1091.11 "/>
<polyline clip-path="url(#clip322)" style="stroke:#000000; stroke-linecap:round; stroke-linejoin:round; stroke-width:2; stroke-opacity:0.1; fill:none" points="140.696,858.694 2352.76,858.694 "/>
<polyline clip-path="url(#clip322)" style="stroke:#000000; stroke-linecap:round; stroke-linejoin:round; stroke-width:2; stroke-opacity:0.1; fill:none" points="140.696,626.281 2352.76,626.281 "/>
<polyline clip-path="url(#clip322)" style="stroke:#000000; stroke-linecap:round; stroke-linejoin:round; stroke-width:2; stroke-opacity:0.1; fill:none" points="140.696,393.868 2352.76,393.868 "/>
<polyline clip-path="url(#clip322)" style="stroke:#000000; stroke-linecap:round; stroke-linejoin:round; stroke-width:2; stroke-opacity:0.1; fill:none" points="140.696,161.455 2352.76,161.455 "/>
<polyline clip-path="url(#clip320)" style="stroke:#000000; stroke-linecap:round; stroke-linejoin:round; stroke-width:4; stroke-opacity:1; fill:none" points="140.696,1486.45 140.696,47.2441 "/>
<polyline clip-path="url(#clip320)" style="stroke:#000000; stroke-linecap:round; stroke-linejoin:round; stroke-width:4; stroke-opacity:1; fill:none" points="140.696,1323.52 159.593,1323.52 "/>
<polyline clip-path="url(#clip320)" style="stroke:#000000; stroke-linecap:round; stroke-linejoin:round; stroke-width:4; stroke-opacity:1; fill:none" points="140.696,1091.11 159.593,1091.11 "/>
<polyline clip-path="url(#clip320)" style="stroke:#000000; stroke-linecap:round; stroke-linejoin:round; stroke-width:4; stroke-opacity:1; fill:none" points="140.696,858.694 159.593,858.694 "/>
<polyline clip-path="url(#clip320)" style="stroke:#000000; stroke-linecap:round; stroke-linejoin:round; stroke-width:4; stroke-opacity:1; fill:none" points="140.696,626.281 159.593,626.281 "/>
<polyline clip-path="url(#clip320)" style="stroke:#000000; stroke-linecap:round; stroke-linejoin:round; stroke-width:4; stroke-opacity:1; fill:none" points="140.696,393.868 159.593,393.868 "/>
<polyline clip-path="url(#clip320)" style="stroke:#000000; stroke-linecap:round; stroke-linejoin:round; stroke-width:4; stroke-opacity:1; fill:none" points="140.696,161.455 159.593,161.455 "/>
<path clip-path="url(#clip320)" d="M83.7929 1306.24 L102.149 1306.24 L102.149 1310.17 L88.0753 1310.17 L88.0753 1318.65 Q89.0938 1318.3 90.1123 1318.14 Q91.1308 1317.95 92.1493 1317.95 Q97.9363 1317.95 101.316 1321.12 Q104.696 1324.3 104.696 1329.71 Q104.696 1335.29 101.223 1338.39 Q97.7511 1341.47 91.4317 1341.47 Q89.2558 1341.47 86.9873 1341.1 Q84.7419 1340.73 82.3346 1339.99 L82.3346 1335.29 Q84.4179 1336.42 86.6401 1336.98 Q88.8623 1337.54 91.3391 1337.54 Q95.3437 1337.54 97.6817 1335.43 Q100.02 1333.32 100.02 1329.71 Q100.02 1326.1 97.6817 1323.99 Q95.3437 1321.89 91.3391 1321.89 Q89.4641 1321.89 87.5892 1322.3 Q85.7373 1322.72 83.7929 1323.6 L83.7929 1306.24 Z" fill="#000000" fill-rule="nonzero" fill-opacity="1" /><path clip-path="url(#clip320)" d="M53.3995 1104.45 L61.0384 1104.45 L61.0384 1078.09 L52.7282 1079.75 L52.7282 1075.49 L60.9921 1073.83 L65.668 1073.83 L65.668 1104.45 L73.3068 1104.45 L73.3068 1108.39 L53.3995 1108.39 L53.3995 1104.45 Z" fill="#000000" fill-rule="nonzero" fill-opacity="1" /><path clip-path="url(#clip320)" d="M92.7512 1076.91 Q89.1401 1076.91 87.3114 1080.47 Q85.5058 1084.01 85.5058 1091.14 Q85.5058 1098.25 87.3114 1101.81 Q89.1401 1105.35 92.7512 1105.35 Q96.3854 1105.35 98.1909 1101.81 Q100.02 1098.25 100.02 1091.14 Q100.02 1084.01 98.1909 1080.47 Q96.3854 1076.91 92.7512 1076.91 M92.7512 1073.2 Q98.5613 1073.2 101.617 1077.81 Q104.696 1082.39 104.696 1091.14 Q104.696 1099.87 101.617 1104.47 Q98.5613 1109.06 92.7512 1109.06 Q86.941 1109.06 83.8623 1104.47 Q80.8068 1099.87 80.8068 1091.14 Q80.8068 1082.39 83.8623 1077.81 Q86.941 1073.2 92.7512 1073.2 Z" fill="#000000" fill-rule="nonzero" fill-opacity="1" /><path clip-path="url(#clip320)" d="M54.3949 872.039 L62.0337 872.039 L62.0337 845.673 L53.7236 847.34 L53.7236 843.081 L61.9874 841.414 L66.6633 841.414 L66.6633 872.039 L74.3022 872.039 L74.3022 875.974 L54.3949 875.974 L54.3949 872.039 Z" fill="#000000" fill-rule="nonzero" fill-opacity="1" /><path clip-path="url(#clip320)" d="M83.7929 841.414 L102.149 841.414 L102.149 845.349 L88.0753 845.349 L88.0753 853.821 Q89.0938 853.474 90.1123 853.312 Q91.1308 853.127 92.1493 853.127 Q97.9363 853.127 101.316 856.298 Q104.696 859.469 104.696 864.886 Q104.696 870.465 101.223 873.567 Q97.7511 876.645 91.4317 876.645 Q89.2558 876.645 86.9873 876.275 Q84.7419 875.905 82.3346 875.164 L82.3346 870.465 Q84.4179 871.599 86.6401 872.155 Q88.8623 872.71 91.3391 872.71 Q95.3437 872.71 97.6817 870.604 Q100.02 868.497 100.02 864.886 Q100.02 861.275 97.6817 859.168 Q95.3437 857.062 91.3391 857.062 Q89.4641 857.062 87.5892 857.479 Q85.7373 857.895 83.7929 858.775 L83.7929 841.414 Z" fill="#000000" fill-rule="nonzero" fill-opacity="1" /><path clip-path="url(#clip320)" d="M56.6171 639.626 L72.9365 639.626 L72.9365 643.561 L50.9921 643.561 L50.9921 639.626 Q53.6541 636.871 58.2375 632.242 Q62.8439 627.589 64.0245 626.246 Q66.2698 623.723 67.1494 621.987 Q68.0522 620.228 68.0522 618.538 Q68.0522 615.783 66.1078 614.047 Q64.1865 612.311 61.0847 612.311 Q58.8856 612.311 56.4319 613.075 Q54.0014 613.839 51.2236 615.39 L51.2236 610.668 Q54.0477 609.533 56.5014 608.955 Q58.955 608.376 60.9921 608.376 Q66.3624 608.376 69.5568 611.061 Q72.7513 613.746 72.7513 618.237 Q72.7513 620.367 71.9411 622.288 Q71.1541 624.186 69.0476 626.779 Q68.4689 627.45 65.367 630.668 Q62.2652 633.862 56.6171 639.626 Z" fill="#000000" fill-rule="nonzero" fill-opacity="1" /><path clip-path="url(#clip320)" d="M92.7512 612.08 Q89.1401 612.08 87.3114 615.645 Q85.5058 619.186 85.5058 626.316 Q85.5058 633.422 87.3114 636.987 Q89.1401 640.529 92.7512 640.529 Q96.3854 640.529 98.1909 636.987 Q100.02 633.422 100.02 626.316 Q100.02 619.186 98.1909 615.645 Q96.3854 612.08 92.7512 612.08 M92.7512 608.376 Q98.5613 608.376 101.617 612.983 Q104.696 617.566 104.696 626.316 Q104.696 635.043 101.617 639.649 Q98.5613 644.232 92.7512 644.232 Q86.941 644.232 83.8623 639.649 Q80.8068 635.043 80.8068 626.316 Q80.8068 617.566 83.8623 612.983 Q86.941 608.376 92.7512 608.376 Z" fill="#000000" fill-rule="nonzero" fill-opacity="1" /><path clip-path="url(#clip320)" d="M57.6125 407.213 L73.9318 407.213 L73.9318 411.148 L51.9875 411.148 L51.9875 407.213 Q54.6495 404.458 59.2328 399.829 Q63.8393 395.176 65.0198 393.833 Q67.2652 391.31 68.1448 389.574 Q69.0476 387.815 69.0476 386.125 Q69.0476 383.371 67.1032 381.634 Q65.1819 379.898 62.08 379.898 Q59.881 379.898 57.4273 380.662 Q54.9967 381.426 52.219 382.977 L52.219 378.255 Q55.043 377.121 57.4967 376.542 Q59.9504 375.963 61.9874 375.963 Q67.3578 375.963 70.5522 378.648 Q73.7466 381.334 73.7466 385.824 Q73.7466 387.954 72.9365 389.875 Q72.1494 391.773 70.0429 394.366 Q69.4642 395.037 66.3624 398.255 Q63.2606 401.449 57.6125 407.213 Z" fill="#000000" fill-rule="nonzero" fill-opacity="1" /><path clip-path="url(#clip320)" d="M83.7929 376.588 L102.149 376.588 L102.149 380.523 L88.0753 380.523 L88.0753 388.996 Q89.0938 388.648 90.1123 388.486 Q91.1308 388.301 92.1493 388.301 Q97.9363 388.301 101.316 391.472 Q104.696 394.644 104.696 400.06 Q104.696 405.639 101.223 408.741 Q97.7511 411.819 91.4317 411.819 Q89.2558 411.819 86.9873 411.449 Q84.7419 411.079 82.3346 410.338 L82.3346 405.639 Q84.4179 406.773 86.6401 407.329 Q88.8623 407.884 91.3391 407.884 Q95.3437 407.884 97.6817 405.778 Q100.02 403.671 100.02 400.06 Q100.02 396.449 97.6817 394.343 Q95.3437 392.236 91.3391 392.236 Q89.4641 392.236 87.5892 392.653 Q85.7373 393.07 83.7929 393.949 L83.7929 376.588 Z" fill="#000000" fill-rule="nonzero" fill-opacity="1" /><path clip-path="url(#clip320)" d="M66.7559 160.101 Q70.1124 160.819 71.9874 163.087 Q73.8855 165.356 73.8855 168.689 Q73.8855 173.805 70.367 176.606 Q66.8485 179.407 60.3671 179.407 Q58.1912 179.407 55.8764 178.967 Q53.5847 178.55 51.131 177.694 L51.131 173.18 Q53.0754 174.314 55.3903 174.893 Q57.7051 175.471 60.2282 175.471 Q64.6263 175.471 66.918 173.735 Q69.2328 171.999 69.2328 168.689 Q69.2328 165.633 67.08 163.921 Q64.9504 162.184 61.131 162.184 L57.1032 162.184 L57.1032 158.342 L61.3161 158.342 Q64.7652 158.342 66.5939 156.976 Q68.4226 155.587 68.4226 152.995 Q68.4226 150.333 66.5245 148.921 Q64.6495 147.485 61.131 147.485 Q59.2097 147.485 57.0106 147.902 Q54.8115 148.319 52.1727 149.198 L52.1727 145.032 Q54.8347 144.291 57.1495 143.921 Q59.4875 143.55 61.5476 143.55 Q66.8717 143.55 69.9735 145.981 Q73.0753 148.388 73.0753 152.509 Q73.0753 155.379 71.4318 157.37 Q69.7883 159.337 66.7559 160.101 Z" fill="#000000" fill-rule="nonzero" fill-opacity="1" /><path clip-path="url(#clip320)" d="M92.7512 147.254 Q89.1401 147.254 87.3114 150.819 Q85.5058 154.36 85.5058 161.49 Q85.5058 168.596 87.3114 172.161 Q89.1401 175.703 92.7512 175.703 Q96.3854 175.703 98.1909 172.161 Q100.02 168.596 100.02 161.49 Q100.02 154.36 98.1909 150.819 Q96.3854 147.254 92.7512 147.254 M92.7512 143.55 Q98.5613 143.55 101.617 148.157 Q104.696 152.74 104.696 161.49 Q104.696 170.217 101.617 174.823 Q98.5613 179.407 92.7512 179.407 Q86.941 179.407 83.8623 174.823 Q80.8068 170.217 80.8068 161.49 Q80.8068 152.74 83.8623 148.157 Q86.941 143.55 92.7512 143.55 Z" fill="#000000" fill-rule="nonzero" fill-opacity="1" /><polyline clip-path="url(#clip322)" style="stroke:#009af9; stroke-linecap:round; stroke-linejoin:round; stroke-width:4; stroke-opacity:1; fill:none" points="203.301,1140.4 204.344,1140.44 205.388,838.407 206.431,838.545 207.475,1343.91 208.518,1343.92 209.562,1342.6 210.605,1342.61 211.648,1391.36 212.692,1391.37 213.735,1342.21 214.779,1342.22 215.822,1056.08 216.866,1056.13 217.909,1056.66 218.952,1056.69 219.996,993.108 221.039,993.191 222.083,1239.33 223.126,1239.35 224.17,1193.49 225.213,1193.52 226.256,1443.39 227.3,1443.39 228.343,990.696 229.387,990.776 230.43,1445.71 231.473,1445.72 232.517,1108.18 233.56,1108.21 234.604,1141.82 235.647,1141.86 236.691,859.909 237.734,859.989 238.777,1025.5 239.821,1025.54 240.864,1193.9 241.908,1193.93 242.951,1010.01 243.995,1010.05 245.038,1012.92 246.081,1012.97 247.125,1395.64 248.168,1395.65 249.212,1291.6 250.255,1291.62 251.299,1193.54 252.342,1193.58 253.385,1289.8 254.429,1289.82 255.472,1143.54 256.516,1143.58 257.559,927.654 258.603,927.7 259.646,1242.73 260.689,1242.75 261.733,1143.89 262.776,1143.93 263.82,792.589 264.863,792.666 265.907,893.642 266.95,893.753 267.993,1143.81 269.037,1143.86 270.08,1196.47 271.124,1196.5 272.167,1244.69 273.21,1244.71 274.254,1096.25 275.297,1096.31 276.341,1148.28 277.384,1148.33 278.428,1195.07 279.471,1195.1 280.514,1243.65 281.558,1243.68 282.601,1063.85 283.645,1063.88 284.688,815.471 285.732,815.587 286.775,960.218 287.818,960.267 288.862,1060.59 289.905,1060.62 290.949,1146.49 291.992,1146.53 293.036,1161.35 294.079,1161.37 295.122,1391.55 296.166,1391.55 297.209,1196.11 298.253,1196.14 299.296,1143.66 300.34,1143.7 301.383,1161.2 302.426,1161.21 303.47,1393.51 304.513,1393.51 305.557,865.248 306.6,865.338 307.643,1013.86 308.687,1013.92 309.73,1247.96 310.774,1247.98 311.817,1065.39 312.861,1065.42 313.904,699.475 314.947,699.565 315.991,1346 317.034,1346.01 318.078,648.506 319.121,648.6 320.165,916.4 321.208,916.47 322.251,964.625 323.295,964.672 324.338,1065.05 325.382,1065.08 326.425,1196.31 327.469,1196.34 328.512,1163.4 329.555,1163.42 330.599,1046.99 331.642,1047.06 332.686,1149.3 333.729,1149.35 334.773,1297.75 335.816,1297.77 336.859,1247.18 337.903,1247.2 338.946,1296.15 339.99,1296.16 341.033,1099.88 342.077,1099.97 343.12,853.919 344.163,854.046 345.207,1249.67 346.25,1249.7 347.294,1064.91 348.337,1064.94 349.38,1246.74 350.424,1246.76 351.467,1248.75 352.511,1248.78 353.554,1247.48 354.598,1247.49 355.641,1079.21 356.684,1079.24 357.728,1249.51 358.771,1249.53 359.815,1297.16 360.858,1297.19 361.902,1017.25 362.945,1017.3 363.988,1004.88 365.032,1004.96 366.075,1348.26 367.119,1348.27 368.162,1297.27 369.206,1297.29 370.249,1200.37 371.292,1200.4 372.336,1198.54 373.379,1198.56 374.423,1104.29 375.466,1104.34 376.51,967.425 377.553,967.485 378.596,1202 379.64,1202.04 380.683,1052.93 381.727,1053 382.77,1345.23 383.813,1345.24 384.857,1018.55 385.9,1018.59 386.944,1395.46 387.987,1395.46 389.031,1051.68 390.074,1051.73 391.117,1299.28 392.161,1299.3 393.204,1252.14 394.248,1252.16 395.291,1152.6 396.335,1152.64 397.378,1105.8 398.421,1105.85 399.465,1152.27 400.508,1152.31 401.552,1204.25 402.595,1204.28 403.639,1167.99 404.682,1168 405.725,1246.64 406.769,1246.66 407.812,873.545 408.856,873.629 409.899,1250.52 410.943,1250.55 411.986,1055.19 413.029,1055.25 414.073,1154.01 415.116,1154.06 416.16,1263.6 417.203,1263.61 418.247,1153.11 419.29,1153.15 420.333,1068.97 421.377,1069 422.42,921.645 423.464,921.72 424.507,887.645 425.55,887.693 426.594,1069.13 427.637,1069.16 428.681,1298.93 429.724,1298.96 430.768,1203.49 431.811,1203.52 432.854,969.985 433.898,970.032 434.941,932.254 435.985,932.3 437.028,1106.72 438.072,1106.77 439.115,1056.04 440.158,1056.1 441.202,1020.93 442.245,1020.98 443.289,1301.77 444.332,1301.78 445.376,1206.15 446.419,1206.17 447.462,1395.66 448.506,1395.66 449.549,1155.63 450.593,1155.67 451.636,1156.28 452.68,1156.32 453.723,1249.96 454.766,1249.98 455.81,1206.12 456.853,1206.15 457.897,1061.09 458.94,1061.17 459.984,1022.95 461.027,1023.01 462.07,960.85 463.114,960.932 464.157,1394.13 465.201,1394.14 466.244,1206.04 467.287,1206.07 468.331,1301.26 469.374,1301.27 470.418,976.291 471.461,976.335 472.505,936.974 473.548,937.015 474.591,1301.49 475.635,1301.51 476.678,966.645 477.722,966.731 478.765,1254.93 479.809,1254.95 480.852,1060.72 481.895,1060.77 482.939,1157.04 483.982,1157.08 485.026,1255.23 486.069,1255.25 487.113,1255.31 488.156,1255.33 489.199,1252.83 490.243,1252.85 491.286,1206.85 492.33,1206.87 493.373,1118.96 494.417,1118.98 495.46,1123.94 496.503,1123.96 497.547,1072.07 498.59,1072.1 499.634,984.736 500.677,984.767 501.72,928.409 502.764,928.461 503.807,1302.64 504.851,1302.65 505.894,1167.99 506.938,1168 507.981,1158.46 509.024,1158.5 510.068,1107.81 511.111,1107.87 512.155,966.671 513.198,966.752 514.242,1026.36 515.285,1026.4 516.328,837.151 517.372,837.251 518.415,1204.86 519.459,1204.89 520.502,882.559 521.546,882.623 522.589,1112.5 523.632,1112.54 524.676,1208.14 525.719,1208.18 526.763,1208.08 527.806,1208.11 528.85,742.259 529.893,742.368 530.936,1020.45 531.98,1020.55 533.023,980.177 534.067,980.219 535.11,980.921 536.154,980.976 537.197,1163 538.24,1163.04 539.284,1257.93 540.327,1257.95 541.371,972.222 542.414,972.3 543.457,1158.77 544.501,1158.81 545.544,188.926 546.588,189.018 547.631,927.217 548.675,927.341 549.718,1117.24 550.761,1117.28 551.805,982.47 552.848,982.515 553.892,1258.83 554.935,1258.85 555.979,1164.11 557.022,1164.15 558.065,1255.16 559.109,1255.2 560.152,1065.84 561.196,1065.91 562.239,886.498 563.283,886.596 564.326,973.873 565.369,973.953 566.413,1064.27 567.456,1064.33 568.5,1075.39 569.543,1075.41 570.587,1159.33 571.63,1159.36 572.673,1212.46 573.717,1212.48 574.76,1161.53 575.804,1161.57 576.847,1175.37 577.89,1175.38 578.934,974.346 579.977,974.443 581.021,1069.02 582.064,1069.07 583.108,1210.85 584.151,1210.87 585.194,1256.28 586.238,1256.3 587.281,1021.82 588.325,1021.88 589.368,1211.91 590.412,1211.94 591.455,838.014 592.498,838.139 593.542,975.574 594.585,975.659 595.629,1302.2 596.672,1302.21 597.716,1175.4 598.759,1175.43 599.802,977.398 600.846,977.475 601.889,1117.24 602.933,1117.28 603.976,884.072 605.02,884.185 606.063,1117.14 607.106,1117.19 608.15,1259 609.193,1259.03 610.237,708.971 611.28,709.056 612.324,1116.5 613.367,1116.54 614.41,1305.49 615.454,1305.5 616.497,1163.74 617.541,1163.77 618.584,1077.98 619.627,1078.01 620.671,886.359 621.714,886.463 622.758,1173.51 623.801,1173.52 624.845,979.903 625.888,979.978 626.931,1127.36 627.975,1127.38 629.018,1124.89 630.062,1124.91 631.105,1033.71 632.149,1033.75 633.192,982.301 634.235,982.376 635.279,893.286 636.322,893.347 637.366,1308.14 638.409,1308.16 639.453,1119.49 640.496,1119.53 641.539,1126.36 642.583,1126.38 643.626,1033.17 644.67,1033.21 645.713,895.585 646.757,895.645 647.8,1259.63 648.843,1259.65 649.887,1123.87 650.93,1123.91 651.974,940.871 653.017,940.918 654.06,892.593 655.104,892.656 656.147,1075.88 657.191,1075.96 658.234,1263.09 659.278,1263.11 660.321,1167.93 661.364,1167.96 662.408,1123.14 663.451,1123.18 664.495,1077.99 665.538,1078.02 666.582,1170.41 667.625,1170.42 668.668,1210.81 669.712,1210.84 670.755,1212.94 671.799,1212.96 672.842,943.14 673.886,943.187 674.929,1031.64 675.972,1031.71 677.016,1260.88 678.059,1260.9 679.103,664.546 680.146,664.722 681.19,1126.75 682.233,1126.79 683.276,1131.84 684.32,1131.88 685.363,1174.56 686.407,1174.59 687.45,1264.09 688.494,1264.11 689.537,1171.48 690.58,1171.51 691.624,1178.39 692.667,1178.41 693.711,1167.8 694.754,1167.83 695.797,1030.87 696.841,1030.93 697.884,1038.03 698.928,1038.09 699.971,1169.57 701.015,1169.62 702.058,1218.16 703.101,1218.2 704.145,453.852 705.188,453.987 706.232,672.66 707.275,672.749 708.319,1310.98 709.362,1310.99 710.405,1032.45 711.449,1032.51 712.492,772.295 713.536,772.371 714.579,907.74 715.623,907.782 716.666,759.748 717.709,759.844 718.753,1033.86 719.796,1033.89 720.84,1215.99 721.883,1216.01 722.927,1173.9 723.97,1173.93 725.013,1080.9 726.057,1080.96 727.1,1220.04 728.144,1220.06 729.187,1085.92 730.23,1085.94 731.274,1041.89 732.317,1041.92 733.361,1130.34 734.404,1130.36 735.448,763.493 736.491,763.584 737.534,857.401 738.578,857.468 739.621,991.83 740.665,991.9 741.708,1082.16 742.752,1082.21 743.795,1124.83 744.838,1124.86 745.882,1039.31 746.925,1039.34 747.969,540.672 749.012,540.8 750.056,903.512 751.099,903.627 752.142,1174.47 753.186,1174.5 754.229,948.352 755.273,948.396 756.316,1356.69 757.36,1356.7 758.403,1083.05 759.446,1083.09 760.49,1040.16 761.533,1040.22 762.577,1132.39 763.62,1132.41 764.664,1086.51 765.707,1086.55 766.75,639.631 767.794,639.724 768.837,1306.52 769.881,1306.54 770.924,1132.84 771.967,1132.87 773.011,1267.85 774.054,1267.86 775.098,1083.2 776.141,1083.25 777.185,1311.7 778.228,1311.72 779.271,1221.01 780.315,1221.03 781.358,1264.51 782.402,1264.53 783.445,1264.82 784.489,1264.83 785.532,1172.51 786.575,1172.53 787.619,1220.72 788.662,1220.75 789.706,1084.13 790.749,1084.17 791.793,1177.82 792.836,1177.86 793.879,1133.45 794.923,1133.49 795.966,998.206 797.01,998.241 798.053,1217.54 799.097,1217.57 800.14,907.621 801.183,907.675 802.227,994.683 803.27,994.747 804.314,949.035 805.357,949.11 806.401,905.555 807.444,905.654 808.487,999.18 809.531,999.214 810.574,1361.12 811.618,1361.12 812.661,994.83 813.704,994.895 814.748,998.764 815.791,998.831 816.835,1085.49 817.878,1085.53 818.922,1042.97 819.965,1043 821.008,1040.2 822.052,1040.25 823.095,1044.6 824.139,1044.62 825.182,904.45 826.226,904.538 827.269,1041.84 828.312,1041.89 829.356,1045 830.399,1045.02 831.443,1221.79 832.486,1221.82 833.53,1136.25 834.573,1136.31 835.616,953.179 836.66,953.264 837.703,956.046 838.747,956.09 839.79,1179.67 840.834,1179.71 841.877,1177.41 842.92,1177.44 843.964,998.751 845.007,998.782 846.051,729.153 847.094,729.224 848.137,911.738 849.181,911.788 850.224,1000.56 851.268,1000.59 852.311,860.524 853.355,860.603 854.398,1089.17 855.441,1089.19 856.485,1089.21 857.528,1089.25 858.572,1001.22 859.615,1001.26 860.659,867.122 861.702,867.225 862.745,916.585 863.789,916.628 864.832,1003.24 865.876,1003.31 866.919,1089.88 867.963,1089.92 869.006,1226.47 870.049,1226.48 871.093,866.435 872.136,866.504 873.18,1003.09 874.223,1003.12 875.267,1177.57 876.31,1177.6 877.353,1002.74 878.397,1002.77 879.44,1357.24 880.484,1357.25 881.527,1047.44 882.571,1047.47 883.614,1001.96 884.657,1002.02 885.701,1047.26 886.744,1047.31 887.788,780.192 888.831,780.249 889.874,737.169 890.918,737.235 891.961,1092.8 893.005,1092.86 894.048,1184.69 895.092,1184.71 896.135,738.468 897.178,738.565 898.222,1004.13 899.265,1004.19 900.309,872.164 901.352,872.228 902.396,1003.66 903.439,1003.72 904.482,1050.57 905.526,1050.62 906.569,869.586 907.613,869.685 908.656,956.864 909.7,956.911 910.743,729.964 911.786,730.034 912.83,513.363 913.873,513.496 914.917,1094.01 915.96,1094.04 917.004,1182.73 918.047,1182.76 919.09,830.026 920.134,830.142 921.177,959.539 922.221,959.606 923.264,786.228 924.307,786.321 925.351,831.557 926.394,831.626 927.438,963.424 928.481,963.493 929.525,918.374 930.568,918.456 931.611,1093.77 932.655,1093.81 933.698,1005.64 934.742,1005.7 935.785,1136.91 936.829,1136.94 937.872,1050.36 938.915,1050.41 939.959,1228.4 941.002,1228.43 942.046,1052.4 943.089,1052.46 944.133,1048.84 945.176,1048.89 946.219,1141.73 947.263,1141.77 948.306,1050.96 949.35,1051.01 950.393,1187.1 951.437,1187.12 952.48,1056.11 953.523,1056.15 954.567,1100 955.61,1100.05 956.654,883.76 957.697,883.868 958.741,1141.47 959.784,1141.5 960.827,1143.17 961.871,1143.21 962.914,1053.89 963.958,1053.94 965.001,1048.4 966.044,1048.42 967.088,743.095 968.131,743.161 969.175,1185.95 970.218,1185.97 971.262,1357.12 972.305,1357.13 973.348,963.379 974.392,963.419 975.435,741.338 976.479,741.399 977.522,791.228 978.566,791.307 979.609,1190.32 980.652,1190.35 981.696,924.492 982.739,924.575 983.783,792.485 984.826,792.56 985.87,921.322 986.913,921.395 987.956,1185.8 989,1185.82 990.043,1009.24 991.087,1009.27 992.13,878.768 993.174,878.82 994.217,880.214 995.26,880.329 996.304,1321.48 997.347,1321.48 998.391,1187.3 999.434,1187.33 1000.48,1234.29 1001.52,1234.31 1002.56,926.098 1003.61,926.174 1004.65,484.466 1005.69,484.586 1006.74,1053.74 1007.78,1053.83 1008.82,1145.19 1009.87,1145.21 1010.91,974.026 1011.96,974.095 1013,840.966 1014.04,841.031 1015.09,690.101 1016.13,690.173 1017.17,1189.03 1018.22,1189.06 1019.26,1058.16 1020.3,1058.21 1021.35,744.348 1022.39,744.405 1023.43,974.9 1024.48,974.965 1025.52,1273.04 1026.56,1273.06 1027.61,1014.5 1028.65,1014.55 1029.69,925.42 1030.74,925.511 1031.78,572.62 1032.82,572.71 1033.87,802.029 1034.91,802.143 1035.95,926.688 1037,926.76 1038.04,1188.84 1039.08,1188.86 1040.13,1063.98 1041.17,1064.03 1042.21,1234.26 1043.26,1234.27 1044.3,1103.48 1045.34,1103.52 1046.39,1063.35 1047.43,1063.41 1048.48,1062.87 1049.52,1062.92 1050.56,933.672 1051.61,933.773 1052.65,1152.04 1053.69,1152.08 1054.74,663.479 1055.78,663.556 1056.82,1061.61 1057.87,1061.66 1058.91,1020.75 1059.95,1020.81 1061,975.105 1062.04,975.165 1063.08,1146.53 1064.13,1146.56 1065.17,1105.57 1066.21,1105.61 1067.26,711.85 1068.3,711.94 1069.34,1153.47 1070.39,1153.5 1071.43,780.248 1072.47,780.308 1073.52,1101.84 1074.56,1101.88 1075.6,1148 1076.65,1148.02 1077.69,1105.05 1078.73,1105.09 1079.78,1110.85 1080.82,1110.88 1081.86,1235.13 1082.91,1235.15 1083.95,929.384 1084.99,929.425 1086.04,1148.55 1087.08,1148.58 1088.13,1281.23 1089.17,1281.25 1090.21,845.899 1091.26,845.964 1092.3,660.471 1093.34,660.545 1094.39,1232.01 1095.43,1232.02 1096.47,1190.53 1097.52,1190.54 1098.56,1106.14 1099.6,1106.17 1100.65,752.424 1101.69,752.48 1102.73,1062.81 1103.78,1062.86 1104.82,926.268 1105.86,926.312 1106.91,575.817 1107.95,575.911 1108.99,1322.67 1110.04,1322.67 1111.08,1068.4 1112.12,1068.45 1113.17,1149.87 1114.21,1149.9 1115.25,1064.2 1116.3,1064.24 1117.34,1235.76 1118.38,1235.77 1119.43,936.742 1120.47,936.809 1121.51,634.32 1122.56,634.435 1123.6,1023.62 1124.65,1023.67 1125.69,1143.66 1126.73,1143.67 1127.78,1100.48 1128.82,1100.5 1129.86,885.989 1130.91,886.032 1131.95,1069.66 1132.99,1069.71 1134.04,715.477 1135.08,715.586 1136.12,1193.04 1137.17,1193.06 1138.21,1153.35 1139.25,1153.38 1140.3,837.743 1141.34,837.782 1142.38,1027.01 1143.43,1027.06 1144.47,1066.17 1145.51,1066.21 1146.56,1025.16 1147.6,1025.21 1148.64,1239.83 1149.69,1239.86 1150.73,1071.01 1151.77,1071.06 1152.82,895.674 1153.86,895.751 1154.9,1068.43 1155.95,1068.47 1156.99,624.283 1158.03,624.36 1159.08,1153.79 1160.12,1153.81 1161.16,675.612 1162.21,675.706 1163.25,889.22 1164.3,889.262 1165.34,716.298 1166.38,716.359 1167.43,1029.15 1168.47,1029.2 1169.51,1323.45 1170.56,1323.46 1171.6,944.519 1172.64,944.586 1173.69,1200.81 1174.73,1200.83 1175.77,809.768 1176.82,809.834 1177.86,715.062 1178.9,715.122 1179.95,1111.06 1180.99,1111.1 1182.03,1071.12 1183.08,1071.17 1184.12,554.318 1185.16,554.455 1186.21,862.235 1187.25,862.323 1188.29,1074.74 1189.34,1074.78 1190.38,768.315 1191.42,768.401 1192.47,1155.08 1193.51,1155.11 1194.55,766.487 1195.6,766.543 1196.64,848.172 1197.68,848.235 1198.73,1238.28 1199.77,1238.3 1200.82,898.297 1201.86,898.342 1202.9,1197.78 1203.95,1197.8 1204.99,1070.55 1206.03,1070.58 1207.08,990.96 1208.12,991.014 1209.16,1113.01 1210.21,1113.06 1211.25,980.263 1212.29,980.294 1213.34,635.958 1214.38,636.06 1215.42,942.693 1216.47,942.771 1217.51,980.648 1218.55,980.676 1219.6,946.886 1220.64,946.949 1221.68,1203.29 1222.73,1203.31 1223.77,857.21 1224.81,857.261 1225.86,774.179 1226.9,774.257 1227.94,500.135 1228.99,500.227 1230.03,489.705 1231.07,489.804 1232.12,1200.01 1233.16,1200.03 1234.2,991.051 1235.25,991.103 1236.29,554.668 1237.33,554.763 1238.38,769.296 1239.42,769.361 1240.47,860.483 1241.51,860.536 1242.55,778.775 1243.6,778.911 1244.64,941.398 1245.68,941.433 1246.73,1037.9 1247.77,1037.96 1248.81,1242.81 1249.86,1242.84 1250.9,1324.03 1251.94,1324.04 1252.99,974.702 1254.03,974.727 1255.07,1330.38 1256.12,1330.39 1257.16,952.602 1258.2,952.663 1259.25,1198.07 1260.29,1198.09 1261.33,660.349 1262.38,660.44 1263.42,561.337 1264.46,561.436 1265.51,863.054 1266.55,863.104 1267.59,732.71 1268.64,732.789 1269.68,907.973 1270.72,908.043 1271.77,1039.96 1272.81,1040.01 1273.85,1160.95 1274.9,1160.97 1275.94,1076.39 1276.99,1076.43 1278.03,903.061 1279.07,903.113 1280.12,1036.21 1281.16,1036.25 1282.2,681.312 1283.25,681.374 1284.29,738.181 1285.33,738.261 1286.38,868.394 1287.42,868.474 1288.46,1078.7 1289.51,1078.74 1290.55,1036.88 1291.59,1036.94 1292.64,818.155 1293.68,818.212 1294.72,1160.53 1295.77,1160.55 1296.81,1245.33 1297.85,1245.34 1298.9,1077.7 1299.94,1077.74 1300.98,771.379 1302.03,771.428 1303.07,944.877 1304.11,944.916 1305.16,953.088 1306.2,953.146 1307.24,1201.76 1308.29,1201.78 1309.33,1120.73 1310.37,1120.76 1311.42,1109.7 1312.46,1109.71 1313.5,872.386 1314.55,872.462 1315.59,746.441 1316.64,746.564 1317.68,1079.08 1318.72,1079.11 1319.77,1201.35 1320.81,1201.37 1321.85,998.416 1322.9,998.469 1323.94,905.798 1324.98,905.837 1326.03,704.344 1327.07,704.495 1328.11,1040.12 1329.16,1040.16 1330.2,729.955 1331.24,730.011 1332.29,1117.74 1333.33,1117.78 1334.37,879.242 1335.42,879.375 1336.46,959.624 1337.5,959.685 1338.55,729.142 1339.59,729.202 1340.63,781.599 1341.68,781.665 1342.72,790.763 1343.76,790.874 1344.81,1036.37 1345.85,1036.42 1346.89,1045.68 1347.94,1045.75 1348.98,1081.37 1350.02,1081.4 1351.07,1081.72 1352.11,1081.76 1353.16,912.36 1354.2,912.421 1355.24,668.15 1356.29,668.293 1357.33,1128.33 1358.37,1128.36 1359.42,825.52 1360.46,825.581 1361.5,1127.12 1362.55,1127.15 1363.59,1079.63 1364.63,1079.66 1365.68,788.439 1366.72,788.502 1367.76,1086.42 1368.81,1086.45 1369.85,827.404 1370.89,827.456 1371.94,830.142 1372.98,830.195 1374.02,958.703 1375.07,958.757 1376.11,797.201 1377.15,797.302 1378.2,673.144 1379.24,673.277 1380.28,918.207 1381.33,918.279 1382.37,1006.19 1383.41,1006.23 1384.46,881.481 1385.5,881.553 1386.54,1004.04 1387.59,1004.08 1388.63,924.615 1389.67,924.678 1390.72,785.221 1391.76,785.278 1392.81,781.687 1393.85,781.741 1394.89,737.449 1395.94,737.502 1396.98,881.979 1398.02,882.066 1399.07,880.905 1400.11,880.978 1401.15,828.862 1402.2,828.91 1403.24,443.623 1404.28,443.738 1405.33,1090.51 1406.37,1090.54 1407.41,1005.17 1408.46,1005.24 1409.5,1056.11 1410.54,1056.18 1411.59,1090.05 1412.63,1090.08 1413.67,1001.3 1414.72,1001.36 1415.76,1128.09 1416.8,1128.12 1417.85,673.454 1418.89,673.544 1419.93,707.813 1420.98,707.886 1422.02,909.421 1423.06,909.453 1424.11,1126.31 1425.15,1126.33 1426.19,930.442 1427.24,930.506 1428.28,1090.61 1429.33,1090.64 1430.37,385.411 1431.41,385.527 1432.46,1089.05 1433.5,1089.07 1434.54,1250.08 1435.59,1250.09 1436.63,803.342 1437.67,803.445 1438.72,1006.53 1439.76,1006.57 1440.8,754.583 1441.85,754.651 1442.89,927.562 1443.93,927.622 1444.98,1129.85 1446.02,1129.88 1447.06,809.345 1448.11,809.438 1449.15,888.877 1450.19,888.967 1451.24,457.154 1452.28,457.278 1453.32,430.702 1454.37,430.856 1455.41,1130.31 1456.45,1130.33 1457.5,728.708 1458.54,728.82 1459.58,621.947 1460.63,622.02 1461.67,1215.03 1462.71,1215.05 1463.76,796.145 1464.8,796.198 1465.84,1009.9 1466.89,1009.95 1467.93,783.207 1468.98,783.27 1470.02,969.493 1471.06,969.545 1472.11,689.517 1473.15,689.606 1474.19,1092.51 1475.24,1092.54 1476.28,972.054 1477.32,972.103 1478.37,711.724 1479.41,711.789 1480.45,1252.21 1481.5,1252.23 1482.54,1055.07 1483.58,1055.12 1484.63,936.191 1485.67,936.266 1486.71,883.28 1487.76,883.323 1488.8,892.582 1489.84,892.663 1490.89,972.426 1491.93,972.5 1492.97,763.111 1494.02,763.185 1495.06,1170.86 1496.1,1170.89 1497.15,678.48 1498.19,678.561 1499.23,534.74 1500.28,534.823 1501.32,704.293 1502.36,704.345 1503.41,758.267 1504.45,758.329 1505.5,653.541 1506.54,653.678 1507.58,1014.94 1508.63,1014.98 1509.67,1173.72 1510.71,1173.73 1511.76,1016.72 1512.8,1016.76 1513.84,759.405 1514.89,759.466 1515.93,931.28 1516.97,931.343 1518.02,895.234 1519.06,895.304 1520.1,839.753 1521.15,839.798 1522.19,878.06 1523.23,878.1 1524.28,858.349 1525.32,858.422 1526.36,932.973 1527.41,933.028 1528.45,799.219 1529.49,799.267 1530.54,1015.79 1531.58,1015.83 1532.62,859.854 1533.67,859.926 1534.71,738.017 1535.75,738.118 1536.8,1011.7 1537.84,1011.74 1538.88,580.118 1539.93,580.184 1540.97,763.151 1542.01,763.227 1543.06,881.599 1544.1,881.639 1545.15,1053.66 1546.19,1053.71 1547.23,719.812 1548.28,719.874 1549.32,856.626 1550.36,856.695 1551.41,802.164 1552.45,802.217 1553.49,939.908 1554.54,939.96 1555.58,630.644 1556.62,630.708 1557.67,1136.4 1558.71,1136.42 1559.75,1134.46 1560.8,1134.48 1561.84,769.624 1562.88,769.686 1563.93,333.34 1564.97,333.455 1566.01,855.767 1567.06,855.836 1568.1,1021.11 1569.14,1021.15 1570.19,1001.93 1571.23,1001.95 1572.27,1019.44 1573.32,1019.47 1574.36,631.367 1575.4,631.429 1576.45,687.274 1577.49,687.354 1578.53,628.516 1579.58,628.578 1580.62,941.384 1581.67,941.436 1582.71,932.118 1583.75,932.154 1584.8,866.143 1585.84,866.253 1586.88,1053.3 1587.93,1053.33 1588.97,1064.22 1590.01,1064.26 1591.06,703.767 1592.1,703.875 1593.14,745.367 1594.19,745.462 1595.23,674.474 1596.27,674.53 1597.32,1019.71 1598.36,1019.76 1599.4,1020.15 1600.45,1020.19 1601.49,891.094 1602.53,891.135 1603.58,822.854 1604.62,822.947 1605.66,979.082 1606.71,979.124 1607.75,943.024 1608.79,943.093 1609.84,574.683 1610.88,574.783 1611.92,752.349 1612.97,752.402 1614.01,772.617 1615.05,772.68 1616.1,905.66 1617.14,905.718 1618.18,1102.22 1619.23,1102.25 1620.27,716.523 1621.32,716.588 1622.36,1253.4 1623.4,1253.41 1624.45,830.91 1625.49,831.004 1626.53,494.587 1627.58,494.703 1628.62,1062.16 1629.66,1062.19 1630.71,1019.66 1631.75,1019.7 1632.79,945.316 1633.84,945.367 1634.88,985.12 1635.92,985.165 1636.97,769.186 1638.01,769.238 1639.05,694.622 1640.1,694.689 1641.14,847.751 1642.18,847.787 1643.23,1178.76 1644.27,1178.78 1645.31,794.598 1646.36,794.696 1647.4,1023.27 1648.44,1023.31 1649.49,968.258 1650.53,968.279 1651.57,1068.26 1652.62,1068.29 1653.66,675.465 1654.7,675.578 1655.75,774.632 1656.79,774.712 1657.84,568.902 1658.88,569.007 1659.92,909.271 1660.97,909.334 1662.01,969.018 1663.05,969.039 1664.1,872.576 1665.14,872.638 1666.18,891.624 1667.23,891.655 1668.27,1181.29 1669.31,1181.31 1670.36,1002.82 1671.4,1002.84 1672.44,952.171 1673.49,952.225 1674.53,601.704 1675.57,601.778 1676.62,873.344 1677.66,873.407 1678.7,801.696 1679.75,801.793 1680.79,832.763 1681.83,832.834 1682.88,837.362 1683.92,837.436 1684.96,873.138 1686.01,873.204 1687.05,908.331 1688.09,908.382 1689.14,911.069 1690.18,911.122 1691.22,995.501 1692.27,995.542 1693.31,621.951 1694.35,622.031 1695.4,911.458 1696.44,911.509 1697.49,1152.24 1698.53,1152.26 1699.57,599.346 1700.62,599.408 1701.66,919.034 1702.7,919.119 1703.75,800.104 1704.79,800.186 1705.83,876.264 1706.88,876.337 1707.92,833.675 1708.96,833.741 1710.01,742.355 1711.05,742.416 1712.09,1183.4 1713.14,1183.41 1714.18,778.141 1715.22,778.19 1716.27,704.877 1717.31,704.94 1718.35,1146.32 1719.4,1146.34 1720.44,992.611 1721.48,992.648 1722.53,744.276 1723.57,744.343 1724.61,746.805 1725.66,746.867 1726.7,707.676 1727.74,707.743 1728.79,764.449 1729.83,764.549 1730.87,601.621 1731.92,601.677 1732.96,1145.73 1734.01,1145.76 1735.05,1065.27 1736.09,1065.29 1737.14,1143.11 1738.18,1143.13 1739.22,858.345 1740.27,858.382 1741.31,739.375 1742.35,739.431 1743.4,764.233 1744.44,764.315 1745.48,778.95 1746.53,778.994 1747.57,996.56 1748.61,996.597 1749.66,766.972 1750.7,767.058 1751.74,877.248 1752.79,877.307 1753.83,1070.53 1754.87,1070.55 1755.92,671.138 1756.96,671.211 1758,1068.49 1759.05,1068.51 1760.09,990.501 1761.13,990.541 1762.18,589.153 1763.22,589.22 1764.26,743.244 1765.31,743.294 1766.35,1029.73 1767.39,1029.76 1768.44,819.883 1769.48,819.919 1770.52,1028.73 1771.57,1028.76 1772.61,1066.41 1773.66,1066.44 1774.7,591.209 1775.74,591.293 1776.79,650.539 1777.83,650.647 1778.87,639.299 1779.92,639.403 1780.96,1028.7 1782,1028.73 1783.05,917.668 1784.09,917.692 1785.13,343.815 1786.18,343.928 1787.22,861.623 1788.26,861.655 1789.31,824.474 1790.35,824.516 1791.39,729.778 1792.44,729.877 1793.48,790.029 1794.52,790.082 1795.57,309.399 1796.61,309.526 1797.65,1037.28 1798.7,1037.31 1799.74,840.646 1800.78,840.676 1801.83,484.64 1802.87,484.763 1803.91,823.534 1804.96,823.575 1806,769.48 1807.04,769.564 1808.09,999.698 1809.13,999.741 1810.18,888.643 1811.22,888.699 1812.26,848.729 1813.31,848.792 1814.35,961.739 1815.39,961.78 1816.44,919.705 1817.48,919.751 1818.52,852.956 1819.57,853.019 1820.61,1150.96 1821.65,1150.98 1822.7,989.136 1823.74,989.168 1824.78,418.643 1825.83,418.735 1826.87,672.32 1827.91,672.386 1828.96,499.889 1830,499.968 1831.04,722.186 1832.09,722.253 1833.13,671.814 1834.17,671.874 1835.22,853.7 1836.26,853.8 1837.3,927.754 1838.35,927.802 1839.39,756.449 1840.43,756.503 1841.48,709.448 1842.52,709.516 1843.56,924.041 1844.61,924.084 1845.65,690.673 1846.69,690.718 1847.74,685.031 1848.78,685.115 1849.83,662.291 1850.87,662.392 1851.91,702.62 1852.96,702.716 1854,736.909 1855.04,736.989 1856.09,471.606 1857.13,471.704 1858.17,738.567 1859.22,738.651 1860.26,499.119 1861.3,499.249 1862.35,1009.78 1863.39,1009.84 1864.43,785.152 1865.48,785.23 1866.52,723.071 1867.56,723.133 1868.61,826.676 1869.65,826.708 1870.69,788.236 1871.74,788.276 1872.78,831.362 1873.82,831.414 1874.87,604.668 1875.91,604.74 1876.95,924.705 1878,924.753 1879.04,627.877 1880.08,627.959 1881.13,534.029 1882.17,534.121 1883.21,869.794 1884.26,869.83 1885.3,930.059 1886.35,930.101 1887.39,683.167 1888.43,683.226 1889.48,802.535 1890.52,802.601 1891.56,631.859 1892.61,631.966 1893.65,865.866 1894.69,865.892 1895.74,717.92 1896.78,717.97 1897.82,642.084 1898.87,642.156 1899.91,627.669 1900.95,627.726 1902,804.855 1903.04,804.882 1904.08,796.631 1905.13,796.668 1906.17,823.623 1907.21,823.704 1908.26,931.744 1909.3,931.788 1910.34,742.114 1911.39,742.201 1912.43,935.797 1913.47,935.84 1914.52,900.187 1915.56,900.266 1916.6,759.448 1917.65,759.5 1918.69,652.681 1919.73,652.748 1920.78,936.427 1921.82,936.469 1922.86,87.9763 1923.91,88.0933 1924.95,505.079 1926,505.196 1927.04,903.329 1928.08,903.381 1929.13,541.211 1930.17,541.3 1931.21,644.567 1932.26,644.624 1933.3,664.203 1934.34,664.249 1935.39,654.538 1936.43,654.602 1937.47,867.337 1938.52,867.365 1939.56,800.854 1940.6,800.893 1941.65,966.394 1942.69,966.446 1943.73,836.799 1944.78,836.83 1945.82,752.184 1946.86,752.259 1947.91,914.89 1948.95,914.918 1949.99,392.179 1951.04,392.3 1952.08,828.155 1953.12,828.215 1954.17,678.048 1955.21,678.142 1956.25,309.126 1957.3,309.227 1958.34,900.585 1959.38,900.639 1960.43,741.931 1961.47,741.996 1962.52,572.659 1963.56,572.729 1964.6,689.723 1965.65,689.775 1966.69,488.751 1967.73,488.835 1968.78,361.052 1969.82,361.183 1970.86,655.134 1971.91,655.198 1972.95,559.609 1973.99,559.671 1975.04,901.969 1976.08,902.013 1977.12,725.261 1978.17,725.309 1979.21,894.923 1980.25,894.963 1981.3,984.633 1982.34,984.651 1983.38,793.884 1984.43,793.96 1985.47,1047.06 1986.51,1047.08 1987.56,760.961 1988.6,761.036 1989.64,972.741 1990.69,972.773 1991.73,1111.97 1992.77,1112 1993.82,545.604 1994.86,545.683 1995.9,864.651 1996.95,864.705 1997.99,618.176 1999.03,618.238 2000.08,903.84 2001.12,903.885 2002.17,868.864 2003.21,868.915 2004.25,941.341 2005.3,941.392 2006.34,423.209 2007.38,423.284 2008.43,532.449 2009.47,532.511 2010.51,349.538 2011.56,349.624 2012.6,1022.53 2013.64,1022.54 2014.69,975.618 2015.73,975.648 2016.77,799.108 2017.82,799.172 2018.86,515.32 2019.9,515.378 2020.95,771.66 2021.99,771.699 2023.03,644.576 2024.08,644.666 2025.12,641.16 2026.16,641.217 2027.21,790.254 2028.25,790.313 2029.29,490.006 2030.34,490.075 2031.38,1042.2 2032.42,1042.22 2033.47,706.428 2034.51,706.49 2035.55,825.424 2036.6,825.495 2037.64,986.471 2038.69,986.514 2039.73,829.912 2040.77,829.969 2041.82,491.304 2042.86,491.378 2043.9,1086.92 2044.95,1086.94 2045.99,544.416 2047.03,544.502 2048.08,872.645 2049.12,872.698 2050.16,650.151 2051.21,650.244 2052.25,628.496 2053.29,628.561 2054.34,534.133 2055.38,534.199 2056.42,901.974 2057.47,902.012 2058.51,767.314 2059.55,767.397 2060.6,912.875 2061.64,912.927 2062.68,1055.41 2063.73,1055.43 2064.77,736.657 2065.81,736.709 2066.86,583.681 2067.9,583.789 2068.94,874.71 2069.99,874.762 2071.03,494.517 2072.07,494.589 2073.12,763.319 2074.16,763.383 2075.2,771.459 2076.25,771.508 2077.29,978.595 2078.34,978.623 2079.38,829.512 2080.42,829.565 2081.47,598.833 2082.51,598.929 2083.55,720.893 2084.6,720.982 2085.64,632.435 2086.68,632.501 2087.73,1013.9 2088.77,1013.92 2089.81,444.342 2090.86,444.457 2091.9,850.012 2092.94,850.047 2093.99,663.924 2095.03,663.974 2096.07,764.909 2097.12,764.985 2098.16,877.097 2099.2,877.143 2100.25,517.27 2101.29,517.394 2102.33,681.055 2103.38,681.113 2104.42,620.316 2105.46,620.419 2106.51,943.987 2107.55,944.026 2108.59,672.823 2109.64,672.858 2110.68,868.554 2111.72,868.594 2112.77,868.714 2113.81,868.755 2114.86,622.437 2115.9,622.529 2116.94,597.145 2117.99,597.217 2119.03,803.714 2120.07,803.772 2121.12,912.832 2122.16,912.877 2123.2,832.187 2124.25,832.233 2125.29,775.951 2126.33,776.023 2127.38,1128.45 2128.42,1128.46 2129.46,886.669 2130.51,886.69 2131.55,805.178 2132.59,805.231 2133.64,533.612 2134.68,533.669 2135.72,737.744 2136.77,737.813 2137.81,566.788 2138.85,566.859 2139.9,903.255 2140.94,903.308 2141.98,872.152 2143.03,872.195 2144.07,555.307 2145.11,555.369 2146.16,920.283 2147.2,920.337 2148.24,835.759 2149.29,835.802 2150.33,867.853 2151.37,867.927 2152.42,884.004 2153.46,884.048 2154.51,925.508 2155.55,925.549 2156.59,522.93 2157.64,523.005 2158.68,596.166 2159.72,596.228 2160.77,776.33 2161.81,776.391 2162.85,804.93 2163.9,804.989 2164.94,776.047 2165.98,776.129 2167.03,657.089 2168.07,657.166 2169.11,600.63 2170.16,600.744 2171.2,1023.17 2172.24,1023.19 2173.29,895.149 2174.33,895.183 2175.37,919.28 2176.42,919.316 2177.46,767.86 2178.5,767.92 2179.55,848.626 2180.59,848.68 2181.63,738.812 2182.68,738.876 2183.72,771.245 2184.76,771.306 2185.81,847.087 2186.85,847.134 2187.89,670.243 2188.94,670.292 2189.98,740.275 2191.03,740.311 2192.07,1024.48 2193.11,1024.5 2194.16,783.096 2195.2,783.178 2196.24,771.198 2197.29,771.254 2198.33,528.304 2199.37,528.378 2200.42,427.818 2201.46,427.883 2202.5,1029.67 2203.55,1029.69 2204.59,634.704 2205.63,634.754 2206.68,642.667 2207.72,642.723 2208.76,638.707 2209.81,638.761 2210.85,818.544 2211.89,818.6 2212.94,950.722 2213.98,950.751 2215.02,780.288 2216.07,780.319 2217.11,699.94 2218.15,700.027 2219.2,810.345 2220.24,810.371 2221.28,564.163 2222.33,564.22 2223.37,704.557 2224.41,704.591 2225.46,1089.34 2226.5,1089.36 2227.54,851.93 2228.59,851.974 2229.63,412.213 2230.68,412.288 2231.72,361.119 2232.76,361.186 2233.81,957.603 2234.85,957.637 2235.89,642.144 2236.94,642.233 2237.98,641.67 2239.02,641.721 2240.07,709.842 2241.11,709.911 2242.15,814.845 2243.2,814.893 2244.24,642.467 2245.28,642.515 2246.33,581.078 2247.37,581.148 2248.41,948.689 2249.46,948.72 2250.5,964.698 2251.54,964.739 2252.59,678.968 2253.63,679.043 2254.67,984.878 2255.72,984.905 2256.76,747.118 2257.8,747.177 2258.85,325.51 2259.89,325.59 2260.93,919.255 2261.98,919.287 2263.02,615.958 2264.06,616.059 2265.11,707.807 2266.15,707.884 2267.2,747.923 2268.24,747.986 2269.28,615.878 2270.33,615.941 2271.37,619.206 2272.41,619.25 2273.46,580.656 2274.5,580.717 2275.54,679.655 2276.59,679.703 2277.63,926.43 2278.67,926.461 2279.72,957.255 2280.76,957.281 2281.8,849.331 2282.85,849.369 2283.89,708.743 2284.93,708.803 2285.98,780.681 2287.02,780.73 2288.06,681.421 2289.11,681.461 2290.15,681.5 "/>
<path clip-path="url(#clip320)" d="M214.431 198.898 L488.067 198.898 L488.067 95.2176 L214.431 95.2176  Z" fill="#ffffff" fill-rule="evenodd" fill-opacity="1"/>
<polyline clip-path="url(#clip320)" style="stroke:#000000; stroke-linecap:round; stroke-linejoin:round; stroke-width:4; stroke-opacity:1; fill:none" points="214.431,198.898 488.067,198.898 488.067,95.2176 214.431,95.2176 214.431,198.898 "/>
<polyline clip-path="url(#clip320)" style="stroke:#009af9; stroke-linecap:round; stroke-linejoin:round; stroke-width:4; stroke-opacity:1; fill:none" points="239.009,147.058 386.48,147.058 "/>
<path clip-path="url(#clip320)" d="M424.901 166.745 Q423.095 171.375 421.382 172.787 Q419.67 174.199 416.799 174.199 L413.396 174.199 L413.396 170.634 L415.896 170.634 Q417.656 170.634 418.628 169.8 Q419.6 168.967 420.781 165.865 L421.545 163.921 L411.058 138.412 L415.572 138.412 L423.674 158.689 L431.776 138.412 L436.29 138.412 L424.901 166.745 Z" fill="#000000" fill-rule="nonzero" fill-opacity="1" /><path clip-path="url(#clip320)" d="M443.581 160.402 L451.22 160.402 L451.22 134.037 L442.91 135.703 L442.91 131.444 L451.174 129.778 L455.85 129.778 L455.85 160.402 L463.489 160.402 L463.489 164.338 L443.581 164.338 L443.581 160.402 Z" fill="#000000" fill-rule="nonzero" fill-opacity="1" /></svg>
