<?xml version="1.0" encoding="utf-8"?>
<svg xmlns="http://www.w3.org/2000/svg" xmlns:xlink="http://www.w3.org/1999/xlink" width="600" height="400" viewBox="0 0 2400 1600">
<defs>
  <clipPath id="clip750">
    <rect x="0" y="0" width="2400" height="1600"/>
  </clipPath>
</defs>
<path clip-path="url(#clip750)" d="M0 1600 L2400 1600 L2400 0 L0 0  Z" fill="#ffffff" fill-rule="evenodd" fill-opacity="1"/>
<defs>
  <clipPath id="clip751">
    <rect x="480" y="0" width="1681" height="1600"/>
  </clipPath>
</defs>
<path clip-path="url(#clip750)" d="M209.029 1486.45 L2352.76 1486.45 L2352.76 47.2441 L209.029 47.2441  Z" fill="#ffffff" fill-rule="evenodd" fill-opacity="1"/>
<defs>
  <clipPath id="clip752">
    <rect x="209" y="47" width="2145" height="1440"/>
  </clipPath>
</defs>
<polyline clip-path="url(#clip752)" style="stroke:#000000; stroke-linecap:round; stroke-linejoin:round; stroke-width:2; stroke-opacity:0.1; fill:none" points="269.7,1486.45 269.7,47.2441 "/>
<polyline clip-path="url(#clip752)" style="stroke:#000000; stroke-linecap:round; stroke-linejoin:round; stroke-width:2; stroke-opacity:0.1; fill:none" points="775.549,1486.45 775.549,47.2441 "/>
<polyline clip-path="url(#clip752)" style="stroke:#000000; stroke-linecap:round; stroke-linejoin:round; stroke-width:2; stroke-opacity:0.1; fill:none" points="1281.4,1486.45 1281.4,47.2441 "/>
<polyline clip-path="url(#clip752)" style="stroke:#000000; stroke-linecap:round; stroke-linejoin:round; stroke-width:2; stroke-opacity:0.1; fill:none" points="1787.25,1486.45 1787.25,47.2441 "/>
<polyline clip-path="url(#clip752)" style="stroke:#000000; stroke-linecap:round; stroke-linejoin:round; stroke-width:2; stroke-opacity:0.1; fill:none" points="2293.1,1486.45 2293.1,47.2441 "/>
<polyline clip-path="url(#clip750)" style="stroke:#000000; stroke-linecap:round; stroke-linejoin:round; stroke-width:4; stroke-opacity:1; fill:none" points="209.029,1486.45 2352.76,1486.45 "/>
<polyline clip-path="url(#clip750)" style="stroke:#000000; stroke-linecap:round; stroke-linejoin:round; stroke-width:4; stroke-opacity:1; fill:none" points="269.7,1486.45 269.7,1467.55 "/>
<polyline clip-path="url(#clip750)" style="stroke:#000000; stroke-linecap:round; stroke-linejoin:round; stroke-width:4; stroke-opacity:1; fill:none" points="775.549,1486.45 775.549,1467.55 "/>
<polyline clip-path="url(#clip750)" style="stroke:#000000; stroke-linecap:round; stroke-linejoin:round; stroke-width:4; stroke-opacity:1; fill:none" points="1281.4,1486.45 1281.4,1467.55 "/>
<polyline clip-path="url(#clip750)" style="stroke:#000000; stroke-linecap:round; stroke-linejoin:round; stroke-width:4; stroke-opacity:1; fill:none" points="1787.25,1486.45 1787.25,1467.55 "/>
<polyline clip-path="url(#clip750)" style="stroke:#000000; stroke-linecap:round; stroke-linejoin:round; stroke-width:4; stroke-opacity:1; fill:none" points="2293.1,1486.45 2293.1,1467.55 "/>
<path clip-path="url(#clip750)" d="M269.7 1517.37 Q266.089 1517.37 264.26 1520.93 Q262.455 1524.47 262.455 1531.6 Q262.455 1538.71 264.26 1542.27 Q266.089 1545.82 269.7 1545.82 Q273.334 1545.82 275.14 1542.27 Q276.969 1538.71 276.969 1531.6 Q276.969 1524.47 275.14 1520.93 Q273.334 1517.37 269.7 1517.37 M269.7 1513.66 Q275.51 1513.66 278.566 1518.27 Q281.644 1522.85 281.644 1531.6 Q281.644 1540.33 278.566 1544.94 Q275.51 1549.52 269.7 1549.52 Q263.89 1549.52 260.811 1544.94 Q257.756 1540.33 257.756 1531.6 Q257.756 1522.85 260.811 1518.27 Q263.89 1513.66 269.7 1513.66 Z" fill="#000000" fill-rule="nonzero" fill-opacity="1" /><path clip-path="url(#clip750)" d="M735.167 1514.29 L753.524 1514.29 L753.524 1518.22 L739.45 1518.22 L739.45 1526.7 Q740.468 1526.35 741.487 1526.19 Q742.505 1526 743.524 1526 Q749.311 1526 752.69 1529.17 Q756.07 1532.34 756.07 1537.76 Q756.07 1543.34 752.598 1546.44 Q749.126 1549.52 742.806 1549.52 Q740.63 1549.52 738.362 1549.15 Q736.116 1548.78 733.709 1548.04 L733.709 1543.34 Q735.792 1544.47 738.015 1545.03 Q740.237 1545.58 742.714 1545.58 Q746.718 1545.58 749.056 1543.48 Q751.394 1541.37 751.394 1537.76 Q751.394 1534.15 749.056 1532.04 Q746.718 1529.94 742.714 1529.94 Q740.839 1529.94 738.964 1530.35 Q737.112 1530.77 735.167 1531.65 L735.167 1514.29 Z" fill="#000000" fill-rule="nonzero" fill-opacity="1" /><path clip-path="url(#clip750)" d="M775.283 1517.37 Q771.672 1517.37 769.843 1520.93 Q768.038 1524.47 768.038 1531.6 Q768.038 1538.71 769.843 1542.27 Q771.672 1545.82 775.283 1545.82 Q778.917 1545.82 780.723 1542.27 Q782.551 1538.71 782.551 1531.6 Q782.551 1524.47 780.723 1520.93 Q778.917 1517.37 775.283 1517.37 M775.283 1513.66 Q781.093 1513.66 784.149 1518.27 Q787.227 1522.85 787.227 1531.6 Q787.227 1540.33 784.149 1544.94 Q781.093 1549.52 775.283 1549.52 Q769.473 1549.52 766.394 1544.94 Q763.338 1540.33 763.338 1531.6 Q763.338 1522.85 766.394 1518.27 Q769.473 1513.66 775.283 1513.66 Z" fill="#000000" fill-rule="nonzero" fill-opacity="1" /><path clip-path="url(#clip750)" d="M805.445 1517.37 Q801.834 1517.37 800.005 1520.93 Q798.199 1524.47 798.199 1531.6 Q798.199 1538.71 800.005 1542.27 Q801.834 1545.82 805.445 1545.82 Q809.079 1545.82 810.885 1542.27 Q812.713 1538.71 812.713 1531.6 Q812.713 1524.47 810.885 1520.93 Q809.079 1517.37 805.445 1517.37 M805.445 1513.66 Q811.255 1513.66 814.31 1518.27 Q817.389 1522.85 817.389 1531.6 Q817.389 1540.33 814.31 1544.94 Q811.255 1549.52 805.445 1549.52 Q799.635 1549.52 796.556 1544.94 Q793.5 1540.33 793.5 1531.6 Q793.5 1522.85 796.556 1518.27 Q799.635 1513.66 805.445 1513.66 Z" fill="#000000" fill-rule="nonzero" fill-opacity="1" /><path clip-path="url(#clip750)" d="M1225.92 1544.91 L1233.56 1544.91 L1233.56 1518.55 L1225.25 1520.21 L1225.25 1515.95 L1233.52 1514.29 L1238.19 1514.29 L1238.19 1544.91 L1245.83 1544.91 L1245.83 1548.85 L1225.92 1548.85 L1225.92 1544.91 Z" fill="#000000" fill-rule="nonzero" fill-opacity="1" /><path clip-path="url(#clip750)" d="M1265.28 1517.37 Q1261.66 1517.37 1259.84 1520.93 Q1258.03 1524.47 1258.03 1531.6 Q1258.03 1538.71 1259.84 1542.27 Q1261.66 1545.82 1265.28 1545.82 Q1268.91 1545.82 1270.72 1542.27 Q1272.54 1538.71 1272.54 1531.6 Q1272.54 1524.47 1270.72 1520.93 Q1268.91 1517.37 1265.28 1517.37 M1265.28 1513.66 Q1271.09 1513.66 1274.14 1518.27 Q1277.22 1522.85 1277.22 1531.6 Q1277.22 1540.33 1274.14 1544.94 Q1271.09 1549.52 1265.28 1549.52 Q1259.47 1549.52 1256.39 1544.94 Q1253.33 1540.33 1253.33 1531.6 Q1253.33 1522.85 1256.39 1518.27 Q1259.47 1513.66 1265.28 1513.66 Z" fill="#000000" fill-rule="nonzero" fill-opacity="1" /><path clip-path="url(#clip750)" d="M1295.44 1517.37 Q1291.83 1517.37 1290 1520.93 Q1288.19 1524.47 1288.19 1531.6 Q1288.19 1538.71 1290 1542.27 Q1291.83 1545.82 1295.44 1545.82 Q1299.07 1545.82 1300.88 1542.27 Q1302.71 1538.71 1302.71 1531.6 Q1302.71 1524.47 1300.88 1520.93 Q1299.07 1517.37 1295.44 1517.37 M1295.44 1513.66 Q1301.25 1513.66 1304.3 1518.27 Q1307.38 1522.85 1307.38 1531.6 Q1307.38 1540.33 1304.3 1544.94 Q1301.25 1549.52 1295.44 1549.52 Q1289.63 1549.52 1286.55 1544.94 Q1283.49 1540.33 1283.49 1531.6 Q1283.49 1522.85 1286.55 1518.27 Q1289.63 1513.66 1295.44 1513.66 Z" fill="#000000" fill-rule="nonzero" fill-opacity="1" /><path clip-path="url(#clip750)" d="M1325.6 1517.37 Q1321.99 1517.37 1320.16 1520.93 Q1318.35 1524.47 1318.35 1531.6 Q1318.35 1538.71 1320.16 1542.27 Q1321.99 1545.82 1325.6 1545.82 Q1329.23 1545.82 1331.04 1542.27 Q1332.87 1538.71 1332.87 1531.6 Q1332.87 1524.47 1331.04 1520.93 Q1329.23 1517.37 1325.6 1517.37 M1325.6 1513.66 Q1331.41 1513.66 1334.46 1518.27 Q1337.54 1522.85 1337.54 1531.6 Q1337.54 1540.33 1334.46 1544.94 Q1331.41 1549.52 1325.6 1549.52 Q1319.79 1549.52 1316.71 1544.94 Q1313.65 1540.33 1313.65 1531.6 Q1313.65 1522.85 1316.71 1518.27 Q1319.79 1513.66 1325.6 1513.66 Z" fill="#000000" fill-rule="nonzero" fill-opacity="1" /><path clip-path="url(#clip750)" d="M1731.77 1544.91 L1739.41 1544.91 L1739.41 1518.55 L1731.1 1520.21 L1731.1 1515.95 L1739.37 1514.29 L1744.04 1514.29 L1744.04 1544.91 L1751.68 1544.91 L1751.68 1548.85 L1731.77 1548.85 L1731.77 1544.91 Z" fill="#000000" fill-rule="nonzero" fill-opacity="1" /><path clip-path="url(#clip750)" d="M1761.17 1514.29 L1779.53 1514.29 L1779.53 1518.22 L1765.45 1518.22 L1765.45 1526.7 Q1766.47 1526.35 1767.49 1526.19 Q1768.51 1526 1769.53 1526 Q1775.31 1526 1778.69 1529.17 Q1782.07 1532.34 1782.07 1537.76 Q1782.07 1543.34 1778.6 1546.44 Q1775.13 1549.52 1768.81 1549.52 Q1766.63 1549.52 1764.37 1549.15 Q1762.12 1548.78 1759.71 1548.04 L1759.71 1543.34 Q1761.8 1544.47 1764.02 1545.03 Q1766.24 1545.58 1768.72 1545.58 Q1772.72 1545.58 1775.06 1543.48 Q1777.4 1541.37 1777.4 1537.76 Q1777.4 1534.15 1775.06 1532.04 Q1772.72 1529.94 1768.72 1529.94 Q1766.84 1529.94 1764.97 1530.35 Q1763.12 1530.77 1761.17 1531.65 L1761.17 1514.29 Z" fill="#000000" fill-rule="nonzero" fill-opacity="1" /><path clip-path="url(#clip750)" d="M1801.29 1517.37 Q1797.68 1517.37 1795.85 1520.93 Q1794.04 1524.47 1794.04 1531.6 Q1794.04 1538.71 1795.85 1542.27 Q1797.68 1545.82 1801.29 1545.82 Q1804.92 1545.82 1806.73 1542.27 Q1808.55 1538.71 1808.55 1531.6 Q1808.55 1524.47 1806.73 1520.93 Q1804.92 1517.37 1801.29 1517.37 M1801.29 1513.66 Q1807.1 1513.66 1810.15 1518.27 Q1813.23 1522.85 1813.23 1531.6 Q1813.23 1540.33 1810.15 1544.94 Q1807.1 1549.52 1801.29 1549.52 Q1795.48 1549.52 1792.4 1544.94 Q1789.34 1540.33 1789.34 1531.6 Q1789.34 1522.85 1792.4 1518.27 Q1795.48 1513.66 1801.29 1513.66 Z" fill="#000000" fill-rule="nonzero" fill-opacity="1" /><path clip-path="url(#clip750)" d="M1831.45 1517.37 Q1827.84 1517.37 1826.01 1520.93 Q1824.2 1524.47 1824.2 1531.6 Q1824.2 1538.71 1826.01 1542.27 Q1827.84 1545.82 1831.45 1545.82 Q1835.08 1545.82 1836.89 1542.27 Q1838.72 1538.71 1838.72 1531.6 Q1838.72 1524.47 1836.89 1520.93 Q1835.08 1517.37 1831.45 1517.37 M1831.45 1513.66 Q1837.26 1513.66 1840.31 1518.27 Q1843.39 1522.85 1843.39 1531.6 Q1843.39 1540.33 1840.31 1544.94 Q1837.26 1549.52 1831.45 1549.52 Q1825.64 1549.52 1822.56 1544.94 Q1819.5 1540.33 1819.5 1531.6 Q1819.5 1522.85 1822.56 1518.27 Q1825.64 1513.66 1831.45 1513.66 Z" fill="#000000" fill-rule="nonzero" fill-opacity="1" /><path clip-path="url(#clip750)" d="M2241.71 1544.91 L2258.03 1544.91 L2258.03 1548.85 L2236.08 1548.85 L2236.08 1544.91 Q2238.74 1542.16 2243.33 1537.53 Q2247.93 1532.88 2249.11 1531.53 Q2251.36 1529.01 2252.24 1527.27 Q2253.14 1525.51 2253.14 1523.82 Q2253.14 1521.07 2251.2 1519.33 Q2249.28 1517.6 2246.18 1517.6 Q2243.98 1517.6 2241.52 1518.36 Q2239.09 1519.13 2236.31 1520.68 L2236.31 1515.95 Q2239.14 1514.82 2241.59 1514.24 Q2244.05 1513.66 2246.08 1513.66 Q2251.45 1513.66 2254.65 1516.35 Q2257.84 1519.03 2257.84 1523.52 Q2257.84 1525.65 2257.03 1527.57 Q2256.24 1529.47 2254.14 1532.07 Q2253.56 1532.74 2250.46 1535.95 Q2247.36 1539.15 2241.71 1544.91 Z" fill="#000000" fill-rule="nonzero" fill-opacity="1" /><path clip-path="url(#clip750)" d="M2277.84 1517.37 Q2274.23 1517.37 2272.4 1520.93 Q2270.6 1524.47 2270.6 1531.6 Q2270.6 1538.71 2272.4 1542.27 Q2274.23 1545.82 2277.84 1545.82 Q2281.48 1545.82 2283.28 1542.27 Q2285.11 1538.71 2285.11 1531.6 Q2285.11 1524.47 2283.28 1520.93 Q2281.48 1517.37 2277.84 1517.37 M2277.84 1513.66 Q2283.65 1513.66 2286.71 1518.27 Q2289.79 1522.85 2289.79 1531.6 Q2289.79 1540.33 2286.71 1544.94 Q2283.65 1549.52 2277.84 1549.52 Q2272.03 1549.52 2268.95 1544.94 Q2265.9 1540.33 2265.9 1531.6 Q2265.9 1522.85 2268.95 1518.27 Q2272.03 1513.66 2277.84 1513.66 Z" fill="#000000" fill-rule="nonzero" fill-opacity="1" /><path clip-path="url(#clip750)" d="M2308 1517.37 Q2304.39 1517.37 2302.56 1520.93 Q2300.76 1524.47 2300.76 1531.6 Q2300.76 1538.71 2302.56 1542.27 Q2304.39 1545.82 2308 1545.82 Q2311.64 1545.82 2313.44 1542.27 Q2315.27 1538.71 2315.27 1531.6 Q2315.27 1524.47 2313.44 1520.93 Q2311.64 1517.37 2308 1517.37 M2308 1513.66 Q2313.81 1513.66 2316.87 1518.27 Q2319.95 1522.85 2319.95 1531.6 Q2319.95 1540.33 2316.87 1544.94 Q2313.81 1549.52 2308 1549.52 Q2302.19 1549.52 2299.11 1544.94 Q2296.06 1540.33 2296.06 1531.6 Q2296.06 1522.85 2299.11 1518.27 Q2302.19 1513.66 2308 1513.66 Z" fill="#000000" fill-rule="nonzero" fill-opacity="1" /><path clip-path="url(#clip750)" d="M2338.17 1517.37 Q2334.55 1517.37 2332.73 1520.93 Q2330.92 1524.47 2330.92 1531.6 Q2330.92 1538.71 2332.73 1542.27 Q2334.55 1545.82 2338.17 1545.82 Q2341.8 1545.82 2343.61 1542.27 Q2345.43 1538.71 2345.43 1531.6 Q2345.43 1524.47 2343.61 1520.93 Q2341.8 1517.37 2338.17 1517.37 M2338.17 1513.66 Q2343.98 1513.66 2347.03 1518.27 Q2350.11 1522.85 2350.11 1531.6 Q2350.11 1540.33 2347.03 1544.94 Q2343.98 1549.52 2338.17 1549.52 Q2332.36 1549.52 2329.28 1544.94 Q2326.22 1540.33 2326.22 1531.6 Q2326.22 1522.85 2329.28 1518.27 Q2332.36 1513.66 2338.17 1513.66 Z" fill="#000000" fill-rule="nonzero" fill-opacity="1" /><polyline clip-path="url(#clip752)" style="stroke:#000000; stroke-linecap:round; stroke-linejoin:round; stroke-width:2; stroke-opacity:0.1; fill:none" points="209.029,1243.37 2352.76,1243.37 "/>
<polyline clip-path="url(#clip752)" style="stroke:#000000; stroke-linecap:round; stroke-linejoin:round; stroke-width:2; stroke-opacity:0.1; fill:none" points="209.029,953.22 2352.76,953.22 "/>
<polyline clip-path="url(#clip752)" style="stroke:#000000; stroke-linecap:round; stroke-linejoin:round; stroke-width:2; stroke-opacity:0.1; fill:none" points="209.029,663.07 2352.76,663.07 "/>
<polyline clip-path="url(#clip752)" style="stroke:#000000; stroke-linecap:round; stroke-linejoin:round; stroke-width:2; stroke-opacity:0.1; fill:none" points="209.029,372.92 2352.76,372.92 "/>
<polyline clip-path="url(#clip752)" style="stroke:#000000; stroke-linecap:round; stroke-linejoin:round; stroke-width:2; stroke-opacity:0.1; fill:none" points="209.029,82.7708 2352.76,82.7708 "/>
<polyline clip-path="url(#clip750)" style="stroke:#000000; stroke-linecap:round; stroke-linejoin:round; stroke-width:4; stroke-opacity:1; fill:none" points="209.029,1486.45 209.029,47.2441 "/>
<polyline clip-path="url(#clip750)" style="stroke:#000000; stroke-linecap:round; stroke-linejoin:round; stroke-width:4; stroke-opacity:1; fill:none" points="209.029,1243.37 227.926,1243.37 "/>
<polyline clip-path="url(#clip750)" style="stroke:#000000; stroke-linecap:round; stroke-linejoin:round; stroke-width:4; stroke-opacity:1; fill:none" points="209.029,953.22 227.926,953.22 "/>
<polyline clip-path="url(#clip750)" style="stroke:#000000; stroke-linecap:round; stroke-linejoin:round; stroke-width:4; stroke-opacity:1; fill:none" points="209.029,663.07 227.926,663.07 "/>
<polyline clip-path="url(#clip750)" style="stroke:#000000; stroke-linecap:round; stroke-linejoin:round; stroke-width:4; stroke-opacity:1; fill:none" points="209.029,372.92 227.926,372.92 "/>
<polyline clip-path="url(#clip750)" style="stroke:#000000; stroke-linecap:round; stroke-linejoin:round; stroke-width:4; stroke-opacity:1; fill:none" points="209.029,82.7708 227.926,82.7708 "/>
<path clip-path="url(#clip750)" d="M50.9921 1243.82 L80.6679 1243.82 L80.6679 1247.76 L50.9921 1247.76 L50.9921 1243.82 Z" fill="#000000" fill-rule="nonzero" fill-opacity="1" /><path clip-path="url(#clip750)" d="M94.7882 1256.71 L111.108 1256.71 L111.108 1260.65 L89.1632 1260.65 L89.1632 1256.71 Q91.8252 1253.96 96.4085 1249.33 Q101.015 1244.68 102.196 1243.33 Q104.441 1240.81 105.321 1239.08 Q106.223 1237.32 106.223 1235.63 Q106.223 1232.87 104.279 1231.14 Q102.358 1229.4 99.2558 1229.4 Q97.0567 1229.4 94.603 1230.16 Q92.1725 1230.93 89.3947 1232.48 L89.3947 1227.76 Q92.2188 1226.62 94.6724 1226.04 Q97.1261 1225.46 99.1632 1225.46 Q104.534 1225.46 107.728 1228.15 Q110.922 1230.83 110.922 1235.33 Q110.922 1237.45 110.112 1239.38 Q109.325 1241.27 107.219 1243.87 Q106.64 1244.54 103.538 1247.76 Q100.436 1250.95 94.7882 1256.71 Z" fill="#000000" fill-rule="nonzero" fill-opacity="1" /><path clip-path="url(#clip750)" d="M120.969 1226.09 L139.325 1226.09 L139.325 1230.02 L125.251 1230.02 L125.251 1238.5 Q126.27 1238.15 127.288 1237.99 Q128.307 1237.8 129.325 1237.8 Q135.112 1237.8 138.492 1240.97 Q141.871 1244.14 141.871 1249.56 Q141.871 1255.14 138.399 1258.24 Q134.927 1261.32 128.607 1261.32 Q126.432 1261.32 124.163 1260.95 Q121.918 1260.58 119.51 1259.84 L119.51 1255.14 Q121.594 1256.27 123.816 1256.83 Q126.038 1257.39 128.515 1257.39 Q132.519 1257.39 134.857 1255.28 Q137.195 1253.17 137.195 1249.56 Q137.195 1245.95 134.857 1243.84 Q132.519 1241.74 128.515 1241.74 Q126.64 1241.74 124.765 1242.15 Q122.913 1242.57 120.969 1243.45 L120.969 1226.09 Z" fill="#000000" fill-rule="nonzero" fill-opacity="1" /><path clip-path="url(#clip750)" d="M161.084 1229.17 Q157.473 1229.17 155.644 1232.73 Q153.839 1236.27 153.839 1243.4 Q153.839 1250.51 155.644 1254.08 Q157.473 1257.62 161.084 1257.62 Q164.718 1257.62 166.524 1254.08 Q168.353 1250.51 168.353 1243.4 Q168.353 1236.27 166.524 1232.73 Q164.718 1229.17 161.084 1229.17 M161.084 1225.46 Q166.894 1225.46 169.95 1230.07 Q173.029 1234.65 173.029 1243.4 Q173.029 1252.13 169.95 1256.74 Q166.894 1261.32 161.084 1261.32 Q155.274 1261.32 152.195 1256.74 Q149.14 1252.13 149.14 1243.4 Q149.14 1234.65 152.195 1230.07 Q155.274 1225.46 161.084 1225.46 Z" fill="#000000" fill-rule="nonzero" fill-opacity="1" /><path clip-path="url(#clip750)" d="M50.9921 953.671 L80.6679 953.671 L80.6679 957.606 L50.9921 957.606 L50.9921 953.671 Z" fill="#000000" fill-rule="nonzero" fill-opacity="1" /><path clip-path="url(#clip750)" d="M94.7882 966.565 L111.108 966.565 L111.108 970.5 L89.1632 970.5 L89.1632 966.565 Q91.8252 963.81 96.4085 959.18 Q101.015 954.528 102.196 953.185 Q104.441 950.662 105.321 948.926 Q106.223 947.166 106.223 945.477 Q106.223 942.722 104.279 940.986 Q102.358 939.25 99.2558 939.25 Q97.0567 939.25 94.603 940.014 Q92.1725 940.778 89.3947 942.329 L89.3947 937.606 Q92.2188 936.472 94.6724 935.893 Q97.1261 935.315 99.1632 935.315 Q104.534 935.315 107.728 938 Q110.922 940.685 110.922 945.176 Q110.922 947.305 110.112 949.227 Q109.325 951.125 107.219 953.717 Q106.64 954.389 103.538 957.606 Q100.436 960.801 94.7882 966.565 Z" fill="#000000" fill-rule="nonzero" fill-opacity="1" /><path clip-path="url(#clip750)" d="M130.922 939.018 Q127.311 939.018 125.482 942.583 Q123.677 946.125 123.677 953.254 Q123.677 960.361 125.482 963.926 Q127.311 967.467 130.922 967.467 Q134.556 967.467 136.362 963.926 Q138.191 960.361 138.191 953.254 Q138.191 946.125 136.362 942.583 Q134.556 939.018 130.922 939.018 M130.922 935.315 Q136.732 935.315 139.788 939.921 Q142.867 944.504 142.867 953.254 Q142.867 961.981 139.788 966.588 Q136.732 971.171 130.922 971.171 Q125.112 971.171 122.033 966.588 Q118.978 961.981 118.978 953.254 Q118.978 944.504 122.033 939.921 Q125.112 935.315 130.922 935.315 Z" fill="#000000" fill-rule="nonzero" fill-opacity="1" /><path clip-path="url(#clip750)" d="M161.084 939.018 Q157.473 939.018 155.644 942.583 Q153.839 946.125 153.839 953.254 Q153.839 960.361 155.644 963.926 Q157.473 967.467 161.084 967.467 Q164.718 967.467 166.524 963.926 Q168.353 960.361 168.353 953.254 Q168.353 946.125 166.524 942.583 Q164.718 939.018 161.084 939.018 M161.084 935.315 Q166.894 935.315 169.95 939.921 Q173.029 944.504 173.029 953.254 Q173.029 961.981 169.95 966.588 Q166.894 971.171 161.084 971.171 Q155.274 971.171 152.195 966.588 Q149.14 961.981 149.14 953.254 Q149.14 944.504 152.195 939.921 Q155.274 935.315 161.084 935.315 Z" fill="#000000" fill-rule="nonzero" fill-opacity="1" /><path clip-path="url(#clip750)" d="M50.9921 663.521 L80.6679 663.521 L80.6679 667.457 L50.9921 667.457 L50.9921 663.521 Z" fill="#000000" fill-rule="nonzero" fill-opacity="1" /><path clip-path="url(#clip750)" d="M91.5706 676.415 L99.2095 676.415 L99.2095 650.049 L90.8993 651.716 L90.8993 647.457 L99.1632 645.79 L103.839 645.79 L103.839 676.415 L111.478 676.415 L111.478 680.35 L91.5706 680.35 L91.5706 676.415 Z" fill="#000000" fill-rule="nonzero" fill-opacity="1" /><path clip-path="url(#clip750)" d="M120.969 645.79 L139.325 645.79 L139.325 649.725 L125.251 649.725 L125.251 658.197 Q126.27 657.85 127.288 657.688 Q128.307 657.503 129.325 657.503 Q135.112 657.503 138.492 660.674 Q141.871 663.846 141.871 669.262 Q141.871 674.841 138.399 677.943 Q134.927 681.021 128.607 681.021 Q126.432 681.021 124.163 680.651 Q121.918 680.281 119.51 679.54 L119.51 674.841 Q121.594 675.975 123.816 676.531 Q126.038 677.086 128.515 677.086 Q132.519 677.086 134.857 674.98 Q137.195 672.873 137.195 669.262 Q137.195 665.651 134.857 663.545 Q132.519 661.438 128.515 661.438 Q126.64 661.438 124.765 661.855 Q122.913 662.271 120.969 663.151 L120.969 645.79 Z" fill="#000000" fill-rule="nonzero" fill-opacity="1" /><path clip-path="url(#clip750)" d="M161.084 648.869 Q157.473 648.869 155.644 652.434 Q153.839 655.975 153.839 663.105 Q153.839 670.211 155.644 673.776 Q157.473 677.318 161.084 677.318 Q164.718 677.318 166.524 673.776 Q168.353 670.211 168.353 663.105 Q168.353 655.975 166.524 652.434 Q164.718 648.869 161.084 648.869 M161.084 645.165 Q166.894 645.165 169.95 649.772 Q173.029 654.355 173.029 663.105 Q173.029 671.832 169.95 676.438 Q166.894 681.021 161.084 681.021 Q155.274 681.021 152.195 676.438 Q149.14 671.832 149.14 663.105 Q149.14 654.355 152.195 649.772 Q155.274 645.165 161.084 645.165 Z" fill="#000000" fill-rule="nonzero" fill-opacity="1" /><path clip-path="url(#clip750)" d="M50.9921 373.372 L80.6679 373.372 L80.6679 377.307 L50.9921 377.307 L50.9921 373.372 Z" fill="#000000" fill-rule="nonzero" fill-opacity="1" /><path clip-path="url(#clip750)" d="M91.5706 386.265 L99.2095 386.265 L99.2095 359.9 L90.8993 361.566 L90.8993 357.307 L99.1632 355.64 L103.839 355.64 L103.839 386.265 L111.478 386.265 L111.478 390.2 L91.5706 390.2 L91.5706 386.265 Z" fill="#000000" fill-rule="nonzero" fill-opacity="1" /><path clip-path="url(#clip750)" d="M130.922 358.719 Q127.311 358.719 125.482 362.284 Q123.677 365.826 123.677 372.955 Q123.677 380.062 125.482 383.626 Q127.311 387.168 130.922 387.168 Q134.556 387.168 136.362 383.626 Q138.191 380.062 138.191 372.955 Q138.191 365.826 136.362 362.284 Q134.556 358.719 130.922 358.719 M130.922 355.015 Q136.732 355.015 139.788 359.622 Q142.867 364.205 142.867 372.955 Q142.867 381.682 139.788 386.288 Q136.732 390.872 130.922 390.872 Q125.112 390.872 122.033 386.288 Q118.978 381.682 118.978 372.955 Q118.978 364.205 122.033 359.622 Q125.112 355.015 130.922 355.015 Z" fill="#000000" fill-rule="nonzero" fill-opacity="1" /><path clip-path="url(#clip750)" d="M161.084 358.719 Q157.473 358.719 155.644 362.284 Q153.839 365.826 153.839 372.955 Q153.839 380.062 155.644 383.626 Q157.473 387.168 161.084 387.168 Q164.718 387.168 166.524 383.626 Q168.353 380.062 168.353 372.955 Q168.353 365.826 166.524 362.284 Q164.718 358.719 161.084 358.719 M161.084 355.015 Q166.894 355.015 169.95 359.622 Q173.029 364.205 173.029 372.955 Q173.029 381.682 169.95 386.288 Q166.894 390.872 161.084 390.872 Q155.274 390.872 152.195 386.288 Q149.14 381.682 149.14 372.955 Q149.14 364.205 152.195 359.622 Q155.274 355.015 161.084 355.015 Z" fill="#000000" fill-rule="nonzero" fill-opacity="1" /><path clip-path="url(#clip750)" d="M81.154 83.2222 L110.83 83.2222 L110.83 87.1574 L81.154 87.1574 L81.154 83.2222 Z" fill="#000000" fill-rule="nonzero" fill-opacity="1" /><path clip-path="url(#clip750)" d="M120.969 65.4908 L139.325 65.4908 L139.325 69.426 L125.251 69.426 L125.251 77.8981 Q126.27 77.5509 127.288 77.3889 Q128.307 77.2037 129.325 77.2037 Q135.112 77.2037 138.492 80.375 Q141.871 83.5463 141.871 88.9629 Q141.871 94.5416 138.399 97.6434 Q134.927 100.722 128.607 100.722 Q126.432 100.722 124.163 100.352 Q121.918 99.9814 119.51 99.2406 L119.51 94.5416 Q121.594 95.6758 123.816 96.2314 Q126.038 96.7869 128.515 96.7869 Q132.519 96.7869 134.857 94.6805 Q137.195 92.574 137.195 88.9629 Q137.195 85.3518 134.857 83.2453 Q132.519 81.1389 128.515 81.1389 Q126.64 81.1389 124.765 81.5555 Q122.913 81.9722 120.969 82.8518 L120.969 65.4908 Z" fill="#000000" fill-rule="nonzero" fill-opacity="1" /><path clip-path="url(#clip750)" d="M161.084 68.5695 Q157.473 68.5695 155.644 72.1343 Q153.839 75.6759 153.839 82.8055 Q153.839 89.912 155.644 93.4768 Q157.473 97.0184 161.084 97.0184 Q164.718 97.0184 166.524 93.4768 Q168.353 89.912 168.353 82.8055 Q168.353 75.6759 166.524 72.1343 Q164.718 68.5695 161.084 68.5695 M161.084 64.8658 Q166.894 64.8658 169.95 69.4723 Q173.029 74.0556 173.029 82.8055 Q173.029 91.5323 169.95 96.1388 Q166.894 100.722 161.084 100.722 Q155.274 100.722 152.195 96.1388 Q149.14 91.5323 149.14 82.8055 Q149.14 74.0556 152.195 69.4723 Q155.274 64.8658 161.084 64.8658 Z" fill="#000000" fill-rule="nonzero" fill-opacity="1" /><polyline clip-path="url(#clip752)" style="stroke:#009af9; stroke-linecap:round; stroke-linejoin:round; stroke-width:4; stroke-opacity:1; fill:none" points="269.7,231.662 270.712,231.361 271.723,551.352 272.735,548.244 273.747,88.0049 274.759,87.9763 275.77,92.2625 276.782,92.242 277.794,122.916 278.805,122.885 279.817,159.959 280.829,159.962 281.84,103.543 282.852,103.384 283.864,248.572 284.876,248.072 285.887,334.253 286.899,333.638 287.911,252.075 288.922,251.988 289.934,309.992 290.946,309.76 291.957,424.205 292.969,424.382 293.981,144.455 294.992,144.284 296.004,372.997 297.016,372.118 298.028,340.029 299.039,339.703 300.051,399.613 301.063,399.268 302.074,488.769 303.086,488.205 304.098,225.296 305.109,225.103 306.121,411.362 307.133,410.9 308.145,266.347 309.156,266.238 310.168,371.271 311.18,370.524 312.191,261.983 313.203,261.591 314.215,309.87 315.226,309.343 316.238,558.974 317.25,558.552 318.262,508.618 319.273,507.986 320.285,557.724 321.297,556.878 322.308,389.132 323.32,388.915 324.332,257.794 325.343,257.206 326.355,549.608 327.367,549.312 328.379,718.352 329.39,718.346 330.402,563.15 331.414,562.309 332.425,628.825 333.437,627.739 334.449,653.339 335.46,652.464 336.472,439.262 337.484,438.899 338.496,564.768 339.507,564.091 340.519,658.539 341.531,657.876 342.542,656.986 343.554,656.191 344.566,698.935 345.577,697.59 346.589,718.383 347.601,717.378 348.612,490.559 349.624,490.285 350.636,731.638 351.648,730.913 352.659,560.132 353.671,559.801 354.683,800.023 355.694,799.508 356.706,653.204 357.718,652.06 358.729,639.636 359.741,639.525 360.753,894.791 361.765,893.277 362.776,684.367 363.788,683.716 364.8,846.232 365.811,845.91 366.823,971.609 367.835,970.19 368.846,743.749 369.858,743.03 370.87,1047.71 371.882,1046.32 372.893,845.723 373.905,844.793 374.917,762.208 375.928,761 376.94,852.294 377.952,851.845 378.963,918.644 379.975,917.817 380.987,937.451 381.999,936.491 383.01,948.952 384.022,948.217 385.034,1011.11 386.045,1009.97 387.057,862.478 388.069,862.079 389.08,902.427 390.092,901.784 391.104,933.886 392.115,933.252 393.127,914.509 394.139,913.849 395.151,1082.08 396.162,1081.39 397.174,1068.73 398.186,1067.82 399.197,1098.25 400.209,1097.6 401.221,1184.39 402.232,1182.79 403.244,1076.55 404.256,1075.9 405.268,1019.97 406.279,1019.45 407.291,1034.36 408.303,1033.82 409.314,1229.39 410.326,1228.71 411.338,1035.69 412.349,1034.94 413.361,819.68 414.373,819.337 415.385,1176.66 416.396,1175.88 417.408,1040.82 418.42,1039.95 419.431,1181.23 420.443,1180.07 421.455,1052.7 422.466,1052.05 423.478,939.426 424.49,939.122 425.502,979.164 426.513,978.629 427.525,962.727 428.537,962.036 429.548,1043.14 430.56,1042.78 431.572,1124.57 432.583,1123.52 433.595,1283.62 434.607,1282.06 435.619,1108.83 436.63,1107.56 437.642,1090.76 438.654,1090.33 439.665,997.612 440.677,997.298 441.689,984.804 442.7,984.552 443.712,1106.95 444.724,1105.99 445.735,1138.56 446.747,1138.02 447.759,980.564 448.771,979.259 449.782,1140.35 450.794,1140.07 451.806,995.605 452.817,995.246 453.829,990.171 454.841,989.828 455.852,1091.6 456.864,1091.28 457.876,975.908 458.888,975.674 459.899,1206.03 460.911,1205.46 461.923,1184.44 462.934,1184.21 463.946,1207.46 464.958,1207.07 465.969,1321.71 466.981,1321.17 467.993,1276.39 469.005,1275.86 470.016,1221.65 471.028,1221.33 472.04,1005.63 473.051,1005.33 474.063,1120.85 475.075,1120.55 476.086,1028.83 477.098,1027.63 478.11,1082.75 479.122,1082.48 480.133,1234.28 481.145,1233.89 482.157,1133.26 483.168,1132.85 484.18,1308.1 485.192,1307.9 486.203,1289.33 487.215,1288.52 488.227,1233.1 489.239,1232.6 490.25,1047.44 491.262,1047.24 492.274,1157.34 493.285,1156.65 494.297,1324.54 495.309,1324.07 496.32,1224.12 497.332,1223.59 498.344,1125.95 499.355,1125.43 500.367,1087.12 501.379,1086.8 502.391,1148.55 503.402,1148.12 504.414,1301.47 505.426,1301.39 506.437,1201.81 507.449,1201.26 508.461,1266.03 509.472,1265.63 510.484,1173.3 511.496,1173.07 512.508,1351.9 513.519,1351.61 514.531,1241.66 515.543,1241.38 516.554,1269.27 517.566,1269.01 518.578,1284.82 519.589,1284.66 520.601,1139.35 521.613,1139.14 522.625,1225.39 523.636,1224.83 524.648,1114.89 525.66,1114.17 526.671,977.997 527.683,977.672 528.695,1269.71 529.706,1269.36 530.718,1107.85 531.73,1107.7 532.742,1227.45 533.753,1226.74 534.765,1220.54 535.777,1220.15 536.788,1350.88 537.8,1350.67 538.812,1395.79 539.823,1395.39 540.835,1347.55 541.847,1347.14 542.859,1168.66 543.87,1168.34 544.882,1151.01 545.894,1150.49 546.905,1171.52 547.917,1171.31 548.929,1169.41 549.94,1169.27 550.952,1218.29 551.964,1218.04 552.975,1137.61 553.987,1137.49 554.999,1281.61 556.011,1281.42 557.022,1214.08 558.034,1213.83 559.046,1136.12 560.057,1136 561.069,1252.45 562.081,1251.91 563.092,1294.11 564.104,1293.86 565.116,1250.26 566.128,1250.19 567.139,1044.02 568.151,1043.85 569.163,1107.11 570.174,1106.79 571.186,1377.57 572.198,1377.31 573.209,1248.97 574.221,1248.69 575.233,1139.47 576.245,1139.15 577.256,1233.26 578.268,1232.92 579.28,1329.55 580.291,1329.42 581.303,1232.95 582.315,1232.85 583.326,1321.71 584.338,1321.4 585.35,1257.97 586.362,1257.69 587.373,1199.5 588.385,1199.04 589.397,1280.83 590.408,1280.78 591.42,1113.29 592.432,1112.04 593.443,1181.22 594.455,1181.1 595.467,1238.19 596.478,1238 597.49,1275 598.502,1274.79 599.514,1152.98 600.525,1152.61 601.537,1184.49 602.549,1184.3 603.56,1213.36 604.572,1213.15 605.584,1245.92 606.595,1245.83 607.607,1228.4 608.619,1227.85 609.631,1407.05 610.642,1406.78 611.654,1334.11 612.666,1333.74 613.677,1210.63 614.689,1210.46 615.701,1156.82 616.712,1156.19 617.724,1220.57 618.736,1220.5 619.748,1199.81 620.759,1199.71 621.771,1131.99 622.783,1131.62 623.794,1244.5 624.806,1243.61 625.818,1340.53 626.829,1340.34 627.841,1332.39 628.853,1332.04 629.865,1254.59 630.876,1254.29 631.888,1318.41 632.9,1318.26 633.911,1178.27 634.923,1178.19 635.935,1261.29 636.946,1259.87 637.958,1285.34 638.97,1284.79 639.982,1131.68 640.993,1131.61 642.005,1162.47 643.017,1162.39 644.028,1295.96 645.04,1295.68 646.052,1255.37 647.063,1255.19 648.075,1242.8 649.087,1242.71 650.098,1339.12 651.11,1338.46 652.122,1225.05 653.134,1224.96 654.145,1367.89 655.157,1366.07 656.169,1283.89 657.18,1283.62 658.192,1238.85 659.204,1238.77 660.215,1323.12 661.227,1323.08 662.239,1277.04 663.251,1276.86 664.262,1165.36 665.274,1165.23 666.286,1296.89 667.297,1295.69 668.309,1229.02 669.321,1228.65 670.332,1226.76 671.344,1226.65 672.356,1218.95 673.368,1218.7 674.379,1256.77 675.391,1256.71 676.403,1140.26 677.414,1139.68 678.426,1368.96 679.438,1368.81 680.449,1236.79 681.461,1236.68 682.473,1252.75 683.485,1252.48 684.496,1239.5 685.508,1239.3 686.52,1247.77 687.531,1247.7 688.543,1196.92 689.555,1196.81 690.566,1348.12 691.578,1347.99 692.59,1289.63 693.602,1289.45 694.613,1284.05 695.625,1283.87 696.637,1267.87 697.648,1267.81 698.66,1188.94 699.672,1188.72 700.683,1312.8 701.695,1312.49 702.707,1291.88 703.718,1291.62 704.73,1288.37 705.742,1288.32 706.754,1282.44 707.765,1282.32 708.777,1348.61 709.789,1348.41 710.8,1224.31 711.812,1224.25 712.824,1159 713.835,1158.92 714.847,1348.67 715.859,1348.17 716.871,1315.53 717.882,1315.1 718.894,1310.21 719.906,1310.11 720.917,1305.17 721.929,1304.58 722.941,1286.06 723.952,1285.81 724.964,1305.23 725.976,1305.15 726.988,1305.57 727.999,1304.82 729.011,1306.76 730.023,1306.61 731.034,1247.76 732.046,1247.6 733.058,1313.66 734.069,1313.25 735.081,1333.88 736.093,1333.82 737.105,1228.08 738.116,1227.94 739.128,1359.28 740.14,1358.82 741.151,1282.24 742.163,1282.06 743.175,1343.35 744.186,1343.23 745.198,1364.27 746.21,1364.22 747.222,1249.76 748.233,1249.65 749.245,1256.4 750.257,1256.29 751.268,1329.8 752.28,1329.75 753.292,1321.12 754.303,1321.09 755.315,1293.54 756.327,1293.4 757.338,1278.17 758.35,1278.08 759.362,1344.65 760.374,1344.41 761.385,1295.13 762.397,1294.87 763.409,1295.66 764.42,1295.53 765.432,1243.51 766.444,1243.22 767.455,1318.8 768.467,1318.78 769.479,1311.78 770.491,1311.63 771.502,1311.78 772.514,1311.64 773.526,1320.17 774.537,1319.93 775.549,1247.7 776.561,1247.64 777.572,1300.47 778.584,1300.27 779.596,1287.57 780.608,1287.45 781.619,1237.32 782.631,1237.18 783.643,1318 784.654,1317.93 785.666,1285.64 786.678,1285.59 787.689,1264.37 788.701,1264.11 789.713,1324.77 790.725,1324.25 791.736,1262.34 792.748,1261.97 793.76,1364.32 794.771,1364.22 795.783,1291.75 796.795,1291.57 797.806,1307.07 798.818,1306.84 799.83,1289.23 800.841,1289.11 801.853,1226.55 802.865,1226.1 803.877,1320.68 804.888,1320.57 805.9,1268.29 806.912,1268.03 807.923,1277.47 808.935,1277.39 809.947,1306.69 810.958,1306.23 811.97,1315.93 812.982,1315.88 813.994,1307.05 815.005,1306.9 816.017,1240.42 817.029,1240.26 818.04,1310.04 819.052,1309.91 820.064,1242.65 821.075,1242.28 822.087,1250.27 823.099,1250.02 824.111,1264.11 825.122,1264.07 826.134,1264.03 827.146,1264 828.157,1286.18 829.169,1286.06 830.181,1330.81 831.192,1330.53 832.204,1271.5 833.216,1271.4 834.228,1251.7 835.239,1251.64 836.251,1314.74 837.263,1314.45 838.274,1382.67 839.286,1382.6 840.298,1316.33 841.309,1316.27 842.321,1359.49 843.333,1359.41 844.345,1307.69 845.356,1307.63 846.368,1331.74 847.38,1331.11 848.391,1238.57 849.403,1238.24 850.415,1352.06 851.426,1351.85 852.438,1357.5 853.45,1357.39 854.461,1373.83 855.473,1373.71 856.485,1292.81 857.497,1292.75 858.508,1233.16 859.52,1233.12 860.532,1318.14 861.543,1318.04 862.555,1240.88 863.567,1240.77 864.578,1289.7 865.59,1289.48 866.602,1280.35 867.614,1280.27 868.625,1284.28 869.637,1284.2 870.649,1251.38 871.66,1251.34 872.672,1194.56 873.684,1194.29 874.695,1325.7 875.707,1325.65 876.719,1278.25 877.731,1278.11 878.742,1305.58 879.754,1305.52 880.766,1241.38 881.777,1241.34 882.789,1340.81 883.801,1340.54 884.812,1262.98 885.824,1262.95 886.836,1309.74 887.848,1309.48 888.859,1321.73 889.871,1321.4 890.883,1256.18 891.894,1256.04 892.906,1270.31 893.918,1270.19 894.929,1239.98 895.941,1239.34 896.953,1260.29 897.965,1258.2 898.976,1299.96 899.988,1299.83 901,1286.41 902.011,1286.27 903.023,1311.55 904.035,1311.43 905.046,1303.04 906.058,1303.01 907.07,1254.24 908.081,1253.88 909.093,1293 910.105,1292.97 911.117,1356.78 912.128,1355.92 913.14,1244.55 914.152,1244.41 915.163,1300.85 916.175,1300.81 917.187,1313.51 918.198,1313.45 919.21,1315.68 920.222,1315.66 921.234,1221.77 922.245,1221.69 923.257,1311.92 924.269,1311.38 925.28,1294.61 926.292,1293.5 927.304,1206.26 928.315,1205.69 929.327,1315.81 930.339,1315.75 931.351,1313.26 932.362,1313.13 933.374,1217.08 934.386,1216.81 935.397,1335.86 936.409,1335.82 937.421,1323.26 938.432,1323.22 939.444,1274.77 940.456,1274.7 941.468,1142.59 942.479,1142.35 943.491,1272.11 944.503,1270.78 945.514,1286.79 946.526,1286.59 947.538,1306.98 948.549,1306.83 949.561,1274.17 950.573,1274.14 951.585,1336.89 952.596,1336.84 953.608,1317.73 954.62,1317.41 955.631,1263.88 956.643,1263.73 957.655,1317.56 958.666,1317.14 959.678,1299.23 960.69,1299.11 961.701,1316.32 962.713,1316.12 963.725,1371.12 964.737,1371.07 965.748,1295.21 966.76,1295.18 967.772,1325.87 968.783,1325.24 969.795,1320.44 970.807,1320.07 971.818,1381.91 972.83,1381.59 973.842,1305.6 974.854,1305.42 975.865,1305.44 976.877,1305.41 977.889,1257.28 978.9,1257.18 979.912,1201.62 980.924,1201.18 981.935,1273.66 982.947,1273.48 983.959,1371.87 984.971,1371.65 985.982,1306.27 986.994,1306 988.006,1346.45 989.017,1346.27 990.029,1344.9 991.041,1343.55 992.052,1318.55 993.064,1317.65 994.076,1307.82 995.088,1307.27 996.099,1285.07 997.111,1284.93 998.123,1381.14 999.134,1381.12 1000.15,1241.74 1001.16,1241.55 1002.17,1272.1 1003.18,1271.5 1004.19,1307.92 1005.2,1307.49 1006.22,1246.82 1007.23,1246.03 1008.24,1336.22 1009.25,1336.19 1010.26,1296.1 1011.27,1295.76 1012.29,1171.51 1013.3,1170.63 1014.31,1345.97 1015.32,1345.86 1016.33,1304.42 1017.34,1304.27 1018.36,1272.91 1019.37,1272.73 1020.38,1338.83 1021.39,1338.77 1022.4,1424.01 1023.42,1423.76 1024.43,1315.72 1025.44,1315.57 1026.45,1281.92 1027.46,1281.34 1028.47,1283.93 1029.49,1283.86 1030.5,1294.12 1031.51,1294.05 1032.52,1240.84 1033.53,1240.66 1034.54,1282.6 1035.56,1282.54 1036.57,1337.21 1037.58,1337.04 1038.59,1300.06 1039.6,1298.9 1040.61,1210.87 1041.63,1210.85 1042.64,1341.13 1043.65,1341 1044.66,1273.03 1045.67,1273.01 1046.68,1300.81 1047.7,1300.42 1048.71,1356.07 1049.72,1355.9 1050.73,1390.18 1051.74,1390.14 1052.75,1241.52 1053.77,1241.5 1054.78,1205.46 1055.79,1204.84 1056.8,1332.99 1057.81,1332.95 1058.82,1240.25 1059.84,1240.23 1060.85,1289.92 1061.86,1289.72 1062.87,1287.05 1063.88,1286.6 1064.89,1313.48 1065.91,1313.43 1066.92,1341.84 1067.93,1341.74 1068.94,1336.06 1069.95,1335.98 1070.96,1334.89 1071.98,1334.86 1072.99,1292.42 1074,1292.37 1075.01,1216.35 1076.02,1216.16 1077.04,1387.83 1078.05,1387.8 1079.06,1260.6 1080.07,1260.53 1081.08,1309.64 1082.09,1309.53 1083.11,1299.5 1084.12,1299.38 1085.13,1338.32 1086.14,1338.1 1087.15,1333.64 1088.16,1333.62 1089.18,1337.96 1090.19,1337.77 1091.2,1345.03 1092.21,1344.89 1093.22,1298.98 1094.23,1298.89 1095.25,1276.87 1096.26,1276.77 1097.27,1301.68 1098.28,1301.66 1099.29,1300.16 1100.3,1300.13 1101.32,1310.69 1102.33,1309.96 1103.34,1334.13 1104.35,1333.4 1105.36,1274.21 1106.37,1274.07 1107.39,1305.69 1108.4,1305.52 1109.41,1318.61 1110.42,1318.26 1111.43,1323.39 1112.44,1322.62 1113.46,1308 1114.47,1307.95 1115.48,1311.37 1116.49,1310.57 1117.5,1320.55 1118.51,1319.24 1119.53,1367.23 1120.54,1366.28 1121.55,1336 1122.56,1335.87 1123.57,1342.66 1124.58,1342.61 1125.6,1303.94 1126.61,1303.88 1127.62,1304.9 1128.63,1304.42 1129.64,1283.13 1130.66,1282.94 1131.67,1389.92 1132.68,1389.85 1133.69,1336.58 1134.7,1336.19 1135.71,1297.4 1136.73,1297.2 1137.74,1361.12 1138.75,1360.88 1139.76,1239.28 1140.77,1239.27 1141.78,1302.61 1142.8,1302.59 1143.81,1315.11 1144.82,1314.1 1145.83,1352.3 1146.84,1352.18 1147.85,1330 1148.87,1329.96 1149.88,1309.43 1150.89,1308.05 1151.9,1276.44 1152.91,1276.21 1153.92,1307.16 1154.94,1307.13 1155.95,1245.98 1156.96,1245.82 1157.97,1314.02 1158.98,1313.96 1159.99,1227.65 1161.01,1227.31 1162.02,1334.07 1163.03,1333.41 1164.04,1362.95 1165.05,1362.64 1166.06,1312.62 1167.08,1312.5 1168.09,1240.54 1169.1,1240.37 1170.11,1334.41 1171.12,1334.18 1172.13,1316.23 1173.15,1315.85 1174.16,1366.17 1175.17,1366.09 1176.18,1312.47 1177.19,1312.39 1178.2,1325.17 1179.22,1324.85 1180.23,1284.72 1181.24,1284.42 1182.25,1229.3 1183.26,1229.29 1184.28,1272.67 1185.29,1272.11 1186.3,1315.08 1187.31,1314.78 1188.32,1272.77 1189.33,1272.66 1190.35,1326.28 1191.36,1324.3 1192.37,1306.36 1193.38,1306.08 1194.39,1287.22 1195.4,1287.06 1196.42,1302.2 1197.43,1302.19 1198.44,1261.35 1199.45,1261.32 1200.46,1266.19 1201.47,1265.85 1202.49,1300.28 1203.5,1299.58 1204.51,1274.62 1205.52,1274.37 1206.53,1396.74 1207.54,1396.69 1208.56,1290.91 1209.57,1290.02 1210.58,1316.17 1211.59,1316.12 1212.6,1303.51 1213.61,1303.47 1214.63,1293.25 1215.64,1293.2 1216.65,1325.71 1217.66,1325.67 1218.67,1260.75 1219.68,1260.46 1220.7,1237.95 1221.71,1237.71 1222.72,1274.76 1223.73,1274.43 1224.74,1391.99 1225.75,1391.63 1226.77,1272.53 1227.78,1272.48 1228.79,1341.64 1229.8,1341.53 1230.81,1324.21 1231.82,1323.5 1232.84,1279.06 1233.85,1278.99 1234.86,1309.41 1235.87,1309.18 1236.88,1345.83 1237.9,1345.26 1238.91,1329.13 1239.92,1328.84 1240.93,1302.83 1241.94,1302.81 1242.95,1391.59 1243.97,1390.8 1244.98,1311.77 1245.99,1311.73 1247,1325.34 1248.01,1325.16 1249.02,1311.43 1250.04,1311.37 1251.05,1302.23 1252.06,1301.97 1253.07,1271.91 1254.08,1271.9 1255.09,1312.76 1256.11,1312.42 1257.12,1271.89 1258.13,1271.87 1259.14,1308.83 1260.15,1308.62 1261.16,1342.08 1262.18,1341.77 1263.19,1301.47 1264.2,1300.89 1265.21,1314.98 1266.22,1314.68 1267.23,1332.11 1268.25,1332 1269.26,1309.45 1270.27,1309.33 1271.28,1310.69 1272.29,1310.66 1273.3,1323.59 1274.32,1323.53 1275.33,1327.33 1276.34,1327.08 1277.35,1343.22 1278.36,1343.09 1279.37,1270.6 1280.39,1270.56 1281.4,1336.65 1282.41,1336.04 1283.42,1302.03 1284.43,1301.99 1285.44,1314.82 1286.46,1313.2 1287.47,1358.44 1288.48,1358.19 1289.49,1302.9 1290.5,1302.85 1291.52,1311.12 1292.53,1311.08 1293.54,1254.93 1294.55,1254.88 1295.56,1302.63 1296.57,1302.62 1297.59,1357.98 1298.6,1357.41 1299.61,1332.63 1300.62,1332.47 1301.63,1308.85 1302.64,1308.42 1303.66,1316.12 1304.67,1314.37 1305.68,1333.93 1306.69,1333.86 1307.7,1326.2 1308.71,1325.48 1309.73,1294.25 1310.74,1294.23 1311.75,1311.41 1312.76,1310.53 1313.77,1294.01 1314.78,1293.97 1315.8,1304.2 1316.81,1302.92 1317.82,1277.54 1318.83,1277.39 1319.84,1247.44 1320.85,1246.32 1321.87,1294.89 1322.88,1294.06 1323.89,1293.62 1324.9,1293.43 1325.91,1229.68 1326.92,1229.24 1327.94,1341.34 1328.95,1340.93 1329.96,1319.03 1330.97,1318.99 1331.98,1348.77 1332.99,1348.45 1334.01,1326.18 1335.02,1325.97 1336.03,1317.74 1337.04,1317.33 1338.05,1316.54 1339.06,1316.41 1340.08,1285.23 1341.09,1285.15 1342.1,1333.44 1343.11,1333.42 1344.12,1302.34 1345.14,1302.32 1346.15,1342.34 1347.16,1341.97 1348.17,1358.8 1349.18,1358.67 1350.19,1311.07 1351.21,1310.91 1352.22,1310.38 1353.23,1309.34 1354.24,1300.34 1355.25,1299.81 1356.26,1350.53 1357.28,1350.43 1358.29,1332.39 1359.3,1332.33 1360.31,1309.84 1361.32,1309.77 1362.33,1309.7 1363.35,1309.64 1364.36,1281.88 1365.37,1281.53 1366.38,1302 1367.39,1301.99 1368.4,1303.3 1369.42,1303.14 1370.43,1360.29 1371.44,1359.6 1372.45,1310.75 1373.46,1310.71 1374.47,1294.03 1375.49,1293.97 1376.5,1324.78 1377.51,1324.29 1378.52,1279.68 1379.53,1279.65 1380.54,1309.94 1381.56,1309.73 1382.57,1300.75 1383.58,1300.38 1384.59,1230.92 1385.6,1230.85 1386.61,1272.71 1387.63,1272.48 1388.64,1380.12 1389.65,1380.03 1390.66,1397.49 1391.67,1397.45 1392.68,1332.34 1393.7,1332.27 1394.71,1335.47 1395.72,1334.92 1396.73,1358.72 1397.74,1358.63 1398.76,1341.88 1399.77,1341.75 1400.78,1271.68 1401.79,1271.29 1402.8,1310.36 1403.81,1310.31 1404.83,1302.48 1405.84,1302.36 1406.85,1341.21 1407.86,1340.76 1408.87,1270.97 1409.88,1270.94 1410.9,1332.16 1411.91,1331.89 1412.92,1294.02 1413.93,1293.99 1414.94,1333.81 1415.95,1333.69 1416.97,1331.48 1417.98,1330.87 1418.99,1306.98 1420,1306.24 1421.01,1317.09 1422.02,1317.01 1423.04,1309.1 1424.05,1309.06 1425.06,1301.92 1426.07,1301.9 1427.08,1279.02 1428.09,1278.98 1429.11,1397.38 1430.12,1397.34 1431.13,1305.03 1432.14,1304.47 1433.15,1278.48 1434.16,1278.44 1435.18,1336.18 1436.19,1335.1 1437.2,1294.33 1438.21,1294.24 1439.22,1340.69 1440.23,1340.54 1441.25,1341.15 1442.26,1341.08 1443.27,1278.95 1444.28,1278.92 1445.29,1301.4 1446.3,1301.01 1447.32,1272.34 1448.33,1271.84 1449.34,1286.44 1450.35,1286.18 1451.36,1332.97 1452.38,1332.75 1453.39,1278.76 1454.4,1278.73 1455.41,1293.48 1456.42,1293.16 1457.43,1332.25 1458.45,1332.19 1459.46,1381.72 1460.47,1381.68 1461.48,1299.75 1462.49,1299.06 1463.5,1331.84 1464.52,1331.81 1465.53,1278.63 1466.54,1278.6 1467.55,1278.01 1468.56,1277.98 1469.57,1334.66 1470.59,1334.37 1471.6,1342.15 1472.61,1341.81 1473.62,1331.61 1474.63,1331.35 1475.64,1310.82 1476.66,1310.4 1477.67,1324.69 1478.68,1324.67 1479.69,1316.08 1480.7,1315.88 1481.71,1439.24 1482.73,1438.98 1483.74,1396.16 1484.75,1395.89 1485.76,1323.34 1486.77,1323.18 1487.78,1317.04 1488.8,1316.97 1489.81,1327.26 1490.82,1326.73 1491.83,1324.92 1492.84,1324.89 1493.85,1371.16 1494.87,1370.16 1495.88,1339.03 1496.89,1338.89 1497.9,1346.62 1498.91,1344.89 1499.92,1308.9 1500.94,1308.74 1501.95,1340.55 1502.96,1340.52 1503.97,1302.76 1504.98,1302.59 1506,1310.22 1507.01,1310.1 1508.02,1293.25 1509.03,1293.08 1510.04,1278.52 1511.05,1278.5 1512.07,1340.7 1513.08,1340.66 1514.09,1308.18 1515.1,1307.74 1516.11,1331.81 1517.12,1331.77 1518.14,1373.78 1519.15,1373.7 1520.16,1324.16 1521.17,1324.13 1522.18,1338.32 1523.19,1338.05 1524.21,1270.27 1525.22,1270.26 1526.23,1308.43 1527.24,1308.39 1528.25,1388.18 1529.26,1388.13 1530.28,1302.34 1531.29,1302.28 1532.3,1323.44 1533.31,1323.38 1534.32,1342.45 1535.33,1342.17 1536.35,1279.98 1537.36,1279.75 1538.37,1270.73 1539.38,1270.71 1540.39,1326.3 1541.4,1325.98 1542.42,1261.99 1543.43,1261.77 1544.44,1309.4 1545.45,1309.37 1546.46,1273.12 1547.47,1272.11 1548.49,1332.76 1549.5,1332.61 1550.51,1301.53 1551.52,1301.44 1552.53,1340.43 1553.54,1340.33 1554.56,1332.51 1555.57,1332.5 1556.58,1278.3 1557.59,1277.41 1558.6,1310.63 1559.62,1309.91 1560.63,1340.07 1561.64,1340.03 1562.65,1301.77 1563.66,1301.26 1564.67,1357.98 1565.69,1357.85 1566.7,1333.45 1567.71,1333.02 1568.72,1339.76 1569.73,1338.24 1570.74,1331.65 1571.76,1331.59 1572.77,1331.1 1573.78,1330.97 1574.79,1305.88 1575.8,1305.32 1576.81,1334.65 1577.83,1334.35 1578.84,1334.64 1579.85,1334.23 1580.86,1331.16 1581.87,1331.02 1582.88,1299.7 1583.9,1299.53 1584.91,1272.83 1585.92,1272.43 1586.93,1339.98 1587.94,1339.94 1588.95,1304.17 1589.97,1303.08 1590.98,1277.9 1591.99,1277.88 1593,1324.92 1594.01,1324.9 1595.02,1301.37 1596.04,1301.37 1597.05,1277.52 1598.06,1277.22 1599.07,1339.95 1600.08,1339.89 1601.09,1269.65 1602.11,1269.31 1603.12,1389.65 1604.13,1389.58 1605.14,1339.47 1606.15,1339.44 1607.16,1398.6 1608.18,1397.42 1609.19,1263.43 1610.2,1262.71 1611.21,1331.89 1612.22,1331.8 1613.24,1301.96 1614.25,1301.84 1615.26,1310.55 1616.27,1310.39 1617.28,1331.74 1618.29,1331.39 1619.31,1389.23 1620.32,1389.2 1621.33,1308.19 1622.34,1308.1 1623.35,1396.38 1624.36,1396.34 1625.38,1299.69 1626.39,1299.14 1627.4,1330.32 1628.41,1330.09 1629.42,1278.1 1630.43,1278.05 1631.45,1288.2 1632.46,1287.96 1633.47,1338.02 1634.48,1337.83 1635.49,1308.66 1636.5,1308.63 1637.52,1338.22 1638.53,1338.14 1639.54,1306.82 1640.55,1306.71 1641.56,1368.97 1642.57,1368.19 1643.59,1301.52 1644.6,1301.5 1645.61,1325.24 1646.62,1325.21 1647.63,1330.44 1648.64,1330.01 1649.66,1280.48 1650.67,1279.79 1651.68,1364.79 1652.69,1364.71 1653.7,1373.1 1654.71,1372.65 1655.73,1338.31 1656.74,1338.21 1657.75,1279.55 1658.76,1279.22 1659.77,1317.18 1660.78,1317.06 1661.8,1339.69 1662.81,1339.65 1663.82,1305.53 1664.83,1304.7 1665.84,1299.1 1666.86,1298.97 1667.87,1294.33 1668.88,1294.29 1669.89,1279.91 1670.9,1279.76 1671.91,1343.25 1672.93,1342.48 1673.94,1328.19 1674.95,1327.05 1675.96,1338.48 1676.97,1337.63 1677.98,1341.87 1679,1341.02 1680.01,1331.6 1681.02,1331.26 1682.03,1339.14 1683.04,1339.12 1684.05,1339.71 1685.07,1339.65 1686.08,1339.34 1687.09,1339.32 1688.1,1338.61 1689.11,1338.47 1690.12,1350.53 1691.14,1350.45 1692.15,1325.58 1693.16,1325.51 1694.17,1339.36 1695.18,1339.33 1696.19,1339.85 1697.21,1339.72 1698.22,1366.65 1699.23,1365.38 1700.24,1294.4 1701.25,1294.36 1702.26,1318.32 1703.28,1318.19 1704.29,1396.18 1705.3,1396.05 1706.31,1332.34 1707.32,1332.32 1708.33,1332.2 1709.35,1332.2 1710.36,1332.29 1711.37,1332.27 1712.38,1308.74 1713.39,1308.11 1714.4,1301.27 1715.42,1301.26 1716.43,1340.28 1717.44,1339.04 1718.45,1301.8 1719.46,1301.57 1720.47,1325.06 1721.49,1324.9 1722.5,1339.49 1723.51,1339.37 1724.52,1308.29 1725.53,1308.22 1726.55,1339.18 1727.56,1338.72 1728.57,1331.61 1729.58,1331.44 1730.59,1309.19 1731.6,1308.85 1732.62,1339.28 1733.63,1339.16 1734.64,1339.04 1735.65,1338.94 1736.66,1389.21 1737.67,1389.19 1738.69,1307.85 1739.7,1307.28 1740.71,1351.84 1741.72,1351.69 1742.73,1389.47 1743.74,1389.26 1744.76,1332.23 1745.77,1332.12 1746.78,1389.45 1747.79,1389.07 1748.8,1339.15 1749.81,1339.12 1750.83,1307.93 1751.84,1306.87 1752.85,1390.45 1753.86,1389.87 1754.87,1331.65 1755.88,1330.63 1756.9,1366.16 1757.91,1365.74 1758.92,1308.24 1759.93,1308.21 1760.94,1339.18 1761.95,1339.14 1762.97,1332.25 1763.98,1332.24 1764.99,1338.88 1766,1338.85 1767.01,1294.9 1768.02,1294.82 1769.04,1331.83 1770.05,1331.28 1771.06,1330.78 1772.07,1330.32 1773.08,1331.72 1774.09,1331.7 1775.11,1275.35 1776.12,1275.17 1777.13,1406.4 1778.14,1406.18 1779.15,1337.53 1780.17,1337.46 1781.18,1333 1782.19,1332.93 1783.2,1243.25 1784.21,1242.89 1785.22,1327.97 1786.24,1327.52 1787.25,1331.66 1788.26,1331.65 1789.27,1332.53 1790.28,1331.85 1791.29,1340.04 1792.31,1339.92 1793.32,1265.69 1794.33,1265.5 1795.34,1330.73 1796.35,1330.72 1797.36,1393.6 1798.38,1393.56 1799.39,1299.37 1800.4,1299.34 1801.41,1324.57 1802.42,1324.55 1803.43,1271.61 1804.45,1271.5 1805.46,1304.42 1806.47,1304 1807.48,1331.6 1808.49,1331.6 1809.5,1342.43 1810.52,1342.24 1811.53,1270.45 1812.54,1270.43 1813.55,1337.97 1814.56,1337.95 1815.57,1337.93 1816.59,1337.91 1817.6,1254.31 1818.61,1254.05 1819.62,1238.34 1820.63,1238.33 1821.64,1334.56 1822.66,1334.22 1823.67,1307.33 1824.68,1307.31 1825.69,1279.65 1826.7,1279.34 1827.71,1299.42 1828.73,1299.38 1829.74,1308.06 1830.75,1308.01 1831.76,1306.41 1832.77,1306.38 1833.79,1277.43 1834.8,1277.37 1835.81,1291.82 1836.82,1291.63 1837.83,1260.1 1838.84,1259.88 1839.86,1350.22 1840.87,1349.42 1841.88,1319.59 1842.89,1319.45 1843.9,1304.06 1844.91,1303.96 1845.93,1335.4 1846.94,1335.35 1847.95,1289.28 1848.96,1289.09 1849.97,1240.35 1850.98,1240.19 1852,1304.76 1853.01,1304.75 1854.02,1308.94 1855.03,1308.8 1856.04,1285.12 1857.05,1284.49 1858.07,1306.16 1859.08,1306.13 1860.09,1295.86 1861.1,1295.79 1862.11,1303.31 1863.12,1303.11 1864.14,1321.74 1865.15,1321.7 1866.16,1307.5 1867.17,1307.44 1868.18,1298.77 1869.19,1298.76 1870.21,1282.44 1871.22,1281.8 1872.23,1327.05 1873.24,1326.87 1874.25,1302.46 1875.26,1302.33 1876.28,1304.88 1877.29,1304.85 1878.3,1340.91 1879.31,1340.67 1880.32,1339.43 1881.33,1339.33 1882.35,1308.76 1883.36,1308.63 1884.37,1322.86 1885.38,1322.74 1886.39,1301.77 1887.41,1301.7 1888.42,1338.73 1889.43,1337.16 1890.44,1303.61 1891.45,1302.56 1892.46,1325.98 1893.48,1325.91 1894.49,1306.17 1895.5,1306.14 1896.51,1321.6 1897.52,1321.21 1898.53,1323.57 1899.55,1322.77 1900.56,1339.42 1901.57,1339.3 1902.58,1336.44 1903.59,1336.28 1904.6,1300.01 1905.62,1300 1906.63,1322.27 1907.64,1321.57 1908.65,1333.12 1909.66,1332.9 1910.67,1333.02 1911.69,1332.71 1912.7,1294.27 1913.71,1294.25 1914.72,1200.86 1915.73,1200.58 1916.74,1340.65 1917.76,1339.58 1918.77,1325.06 1919.78,1324.74 1920.79,1300.32 1921.8,1300.18 1922.81,1269.55 1923.83,1269.53 1924.84,1336.87 1925.85,1336.5 1926.86,1339.45 1927.87,1339.27 1928.88,1336.96 1929.9,1336.75 1930.91,1338.92 1931.92,1338.84 1932.93,1329.66 1933.94,1329.26 1934.95,1307.87 1935.97,1307.8 1936.98,1360.75 1937.99,1359.82 1939,1308.15 1940.01,1308.06 1941.03,1333.77 1942.04,1333.49 1943.05,1302.57 1944.06,1302.27 1945.07,1396.44 1946.08,1396.22 1947.1,1337.55 1948.11,1337.41 1949.12,1295.04 1950.13,1294.94 1951.14,1263.33 1952.15,1263.3 1953.17,1338.23 1954.18,1338.21 1955.19,1245.1 1956.2,1245.07 1957.21,1307.41 1958.22,1307.38 1959.24,1338.61 1960.25,1338.49 1961.26,1306.51 1962.27,1306.17 1963.28,1331.65 1964.29,1331.65 1965.31,1337.81 1966.32,1337.79 1967.33,1330.71 1968.34,1330.56 1969.35,1337.32 1970.36,1337.28 1971.38,1332.56 1972.39,1332.45 1973.4,1303.41 1974.41,1302.33 1975.42,1337.58 1976.43,1337.12 1977.45,1320.52 1978.46,1320.38 1979.47,1337.13 1980.48,1337.01 1981.49,1307.39 1982.5,1307.34 1983.52,1363.43 1984.53,1363.29 1985.54,1332.53 1986.55,1332.42 1987.56,1332.98 1988.57,1332.66 1989.59,1301.9 1990.6,1301.18 1991.61,1331.45 1992.62,1330.94 1993.63,1324.63 1994.65,1324.4 1995.66,1339.24 1996.67,1338.94 1997.68,1263.1 1998.69,1262.97 1999.7,1299.39 2000.72,1299.07 2001.73,1328.54 2002.74,1327.8 2003.75,1271.21 2004.76,1270.46 2005.77,1299.9 2006.79,1299.9 2007.8,1270.79 2008.81,1269.27 2009.82,1267.69 2010.83,1267.5 2011.84,1339.14 2012.86,1338.99 2013.87,1324.65 2014.88,1324.62 2015.89,1330.57 2016.9,1330.55 2017.91,1336.51 2018.93,1336.45 2019.94,1337.16 2020.95,1335.63 2021.96,1445.72 2022.97,1445.18 2023.98,1353.13 2025,1352.98 2026.01,1307.13 2027.02,1307.11 2028.03,1395.21 2029.04,1395.17 2030.05,1333.12 2031.07,1332.88 2032.08,1305.83 2033.09,1305.57 2034.1,1335.58 2035.11,1335.14 2036.12,1339.02 2037.14,1338.88 2038.15,1295.7 2039.16,1295.64 2040.17,1361.4 2041.18,1360.71 2042.19,1337.81 2043.21,1337.79 2044.22,1339.58 2045.23,1339.12 2046.24,1337.1 2047.25,1336.72 2048.27,1337.05 2049.28,1336.96 2050.29,1325.14 2051.3,1325.1 2052.31,1329.03 2053.32,1327.81 2054.34,1330.73 2055.35,1329.82 2056.36,1275.1 2057.37,1275.01 2058.38,1332.74 2059.39,1332.6 2060.41,1334.31 2061.42,1333.29 2062.43,1325.81 2063.44,1325.69 2064.45,1325.56 2065.46,1325.52 2066.48,1325.47 2067.49,1325.42 2068.5,1331.56 2069.51,1331.52 2070.52,1331.48 2071.53,1331.44 2072.55,1331.58 2073.56,1331.57 2074.57,1306.71 2075.58,1306.67 2076.59,1300.32 2077.6,1300.27 2078.62,1330.99 2079.63,1330.91 2080.64,1336.53 2081.65,1336.32 2082.66,1299.03 2083.67,1298.85 2084.69,1304.6 2085.7,1304.39 2086.71,1302.81 2087.72,1302.34 2088.73,1329.63 2089.74,1328.98 2090.76,1336.2 2091.77,1336.14 2092.78,1385.74 2093.79,1385.49 2094.8,1388.48 2095.81,1388.44 2096.83,1331.81 2097.84,1331.78 2098.85,1332.57 2099.86,1331.8 2100.87,1332.01 2101.89,1331.96 2102.9,1308.03 2103.91,1307.91 2104.92,1306.23 2105.93,1306.22 2106.94,1331.28 2107.96,1330.47 2108.97,1328.06 2109.98,1327.3 2110.99,1328.08 2112,1327.8 2113.01,1308.01 2114.03,1307.89 2115.04,1321.43 2116.05,1321.06 2117.06,1394.09 2118.07,1394.05 2119.08,1335.56 2120.1,1335.02 2121.11,1396.88 2122.12,1396.56 2123.13,1336.97 2124.14,1336.94 2125.15,1340.23 2126.17,1339.73 2127.18,1339.63 2128.19,1339.03 2129.2,1330.76 2130.21,1330.04 2131.22,1299.41 2132.24,1299.21 2133.25,1395.68 2134.26,1395.53 2135.27,1337.45 2136.28,1337.43 2137.29,1330.9 2138.31,1330.84 2139.32,1330.33 2140.33,1330.2 2141.34,1330.09 2142.35,1329.98 2143.36,1387.53 2144.38,1386.56 2145.39,1301.67 2146.4,1301.54 2147.41,1302.15 2148.42,1301.61 2149.43,1306.88 2150.45,1306.86 2151.46,1306.84 2152.47,1306.83 2153.48,1358.01 2154.49,1357.88 2155.51,1337.15 2156.52,1336.33 2157.53,1306.49 2158.54,1306.47 2159.55,1305.4 2160.56,1305.16 2161.58,1324.84 2162.59,1324.75 2163.6,1363.97 2164.61,1363.93 2165.62,1232.83 2166.63,1232.8 2167.65,1333.55 2168.66,1333.27 2169.67,1392.98 2170.68,1392.6 2171.69,1337.04 2172.7,1337.02 2173.72,1300.81 2174.73,1300.8 2175.74,1326.95 2176.75,1326.82 2177.76,1305.48 2178.77,1305.37 2179.79,1295.71 2180.8,1295.62 2181.81,1376.58 2182.82,1376.46 2183.83,1330.38 2184.84,1330.28 2185.86,1302.91 2186.87,1302.24 2187.88,1340.99 2188.89,1340.51 2189.9,1325.13 2190.91,1325.1 2191.93,1306.41 2192.94,1306.39 2193.95,1292.63 2194.96,1292.44 2195.97,1259.53 2196.98,1258.99 2198,1343.16 2199.01,1342.96 2200.02,1237.73 2201.03,1237.02 2202.04,1344.49 2203.05,1343.58 2204.07,1313.26 2205.08,1312.12 2206.09,1329.32 2207.1,1329.17 2208.11,1325.69 2209.13,1325.65 2210.14,1306.42 2211.15,1306.41 2212.16,1244.56 2213.17,1244.55 2214.18,1326.34 2215.2,1326.26 2216.21,1295.59 2217.22,1295.49 2218.23,1331.25 2219.24,1331.25 2220.25,1299.5 2221.27,1299.45 2222.28,1334.27 2223.29,1333.8 2224.3,1395.11 2225.31,1395.06 2226.32,1349.78 2227.34,1349.3 2228.35,1307.66 2229.36,1307.57 2230.37,1338.66 2231.38,1338.55 2232.39,1300.64 2233.41,1300.64 2234.42,1332.6 2235.43,1332.47 2236.44,1269.89 2237.45,1269.88 2238.46,1337.26 2239.48,1337.22 2240.49,1300.96 2241.5,1300.94 2242.51,1340.04 2243.52,1338.9 2244.53,1331.75 2245.55,1331.61 2246.56,1300.55 2247.57,1300.38 2248.58,1395.86 2249.59,1395.01 2250.6,1337.3 2251.62,1336.89 2252.63,1325.61 2253.64,1325.58 2254.65,1321.25 2255.66,1320.47 2256.67,1300.76 2257.69,1300.76 2258.7,1275.9 2259.71,1275.89 2260.72,1319.65 2261.73,1319.33 2262.75,1300.14 2263.76,1299.7 2264.77,1338.34 2265.78,1338.21 2266.79,1337.7 2267.8,1337.68 2268.82,1275.68 2269.83,1275.66 2270.84,1388.9 2271.85,1388.84 2272.86,1337.67 2273.87,1337.66 2274.89,1269.78 2275.9,1269.77 2276.91,1338.67 2277.92,1337.71 2278.93,1330.56 2279.94,1329.04 2280.96,1263.2 2281.97,1263.16 2282.98,1269.08 2283.99,1268.72 2285,1298.04 2286.01,1297.83 2287.03,1336.08 2288.04,1336.05 2289.05,1334.39 2290.06,1331.77 2291.07,1394.57 2292.08,1394.53 "/>
<path clip-path="url(#clip750)" d="M2014.5 198.898 L2281.3 198.898 L2281.3 95.2176 L2014.5 95.2176  Z" fill="#ffffff" fill-rule="evenodd" fill-opacity="1"/>
<polyline clip-path="url(#clip750)" style="stroke:#000000; stroke-linecap:round; stroke-linejoin:round; stroke-width:4; stroke-opacity:1; fill:none" points="2014.5,198.898 2281.3,198.898 2281.3,95.2176 2014.5,95.2176 2014.5,198.898 "/>
<polyline clip-path="url(#clip750)" style="stroke:#009af9; stroke-linecap:round; stroke-linejoin:round; stroke-width:4; stroke-opacity:1; fill:none" points="2038.31,147.058 2181.23,147.058 "/>
<path clip-path="url(#clip750)" d="M2218.89 166.745 Q2217.09 171.375 2215.37 172.787 Q2213.66 174.199 2210.79 174.199 L2207.39 174.199 L2207.39 170.634 L2209.89 170.634 Q2211.65 170.634 2212.62 169.8 Q2213.59 168.967 2214.77 165.865 L2215.53 163.921 L2205.05 138.412 L2209.56 138.412 L2217.66 158.689 L2225.77 138.412 L2230.28 138.412 L2218.89 166.745 Z" fill="#000000" fill-rule="nonzero" fill-opacity="1" /><path clip-path="url(#clip750)" d="M2237.57 160.402 L2245.21 160.402 L2245.21 134.037 L2236.9 135.703 L2236.9 131.444 L2245.16 129.778 L2249.84 129.778 L2249.84 160.402 L2257.48 160.402 L2257.48 164.338 L2237.57 164.338 L2237.57 160.402 Z" fill="#000000" fill-rule="nonzero" fill-opacity="1" /></svg>
