<?xml version="1.0" encoding="utf-8"?>
<svg xmlns="http://www.w3.org/2000/svg" xmlns:xlink="http://www.w3.org/1999/xlink" width="600" height="400" viewBox="0 0 2400 1600">
<defs>
  <clipPath id="clip720">
    <rect x="0" y="0" width="2400" height="1600"/>
  </clipPath>
</defs>
<path clip-path="url(#clip720)" d="M0 1600 L2400 1600 L2400 0 L0 0  Z" fill="#ffffff" fill-rule="evenodd" fill-opacity="1"/>
<defs>
  <clipPath id="clip721">
    <rect x="480" y="0" width="1681" height="1600"/>
  </clipPath>
</defs>
<path clip-path="url(#clip720)" d="M140.696 1486.45 L2352.76 1486.45 L2352.76 47.2441 L140.696 47.2441  Z" fill="#ffffff" fill-rule="evenodd" fill-opacity="1"/>
<defs>
  <clipPath id="clip722">
    <rect x="140" y="47" width="2213" height="1440"/>
  </clipPath>
</defs>
<polyline clip-path="url(#clip722)" style="stroke:#000000; stroke-linecap:round; stroke-linejoin:round; stroke-width:2; stroke-opacity:0.1; fill:none" points="203.301,1486.45 203.301,47.2441 "/>
<polyline clip-path="url(#clip722)" style="stroke:#000000; stroke-linecap:round; stroke-linejoin:round; stroke-width:2; stroke-opacity:0.1; fill:none" points="725.013,1486.45 725.013,47.2441 "/>
<polyline clip-path="url(#clip722)" style="stroke:#000000; stroke-linecap:round; stroke-linejoin:round; stroke-width:2; stroke-opacity:0.1; fill:none" points="1246.73,1486.45 1246.73,47.2441 "/>
<polyline clip-path="url(#clip722)" style="stroke:#000000; stroke-linecap:round; stroke-linejoin:round; stroke-width:2; stroke-opacity:0.1; fill:none" points="1768.44,1486.45 1768.44,47.2441 "/>
<polyline clip-path="url(#clip722)" style="stroke:#000000; stroke-linecap:round; stroke-linejoin:round; stroke-width:2; stroke-opacity:0.1; fill:none" points="2290.15,1486.45 2290.15,47.2441 "/>
<polyline clip-path="url(#clip720)" style="stroke:#000000; stroke-linecap:round; stroke-linejoin:round; stroke-width:4; stroke-opacity:1; fill:none" points="140.696,1486.45 2352.76,1486.45 "/>
<polyline clip-path="url(#clip720)" style="stroke:#000000; stroke-linecap:round; stroke-linejoin:round; stroke-width:4; stroke-opacity:1; fill:none" points="203.301,1486.45 203.301,1467.55 "/>
<polyline clip-path="url(#clip720)" style="stroke:#000000; stroke-linecap:round; stroke-linejoin:round; stroke-width:4; stroke-opacity:1; fill:none" points="725.013,1486.45 725.013,1467.55 "/>
<polyline clip-path="url(#clip720)" style="stroke:#000000; stroke-linecap:round; stroke-linejoin:round; stroke-width:4; stroke-opacity:1; fill:none" points="1246.73,1486.45 1246.73,1467.55 "/>
<polyline clip-path="url(#clip720)" style="stroke:#000000; stroke-linecap:round; stroke-linejoin:round; stroke-width:4; stroke-opacity:1; fill:none" points="1768.44,1486.45 1768.44,1467.55 "/>
<polyline clip-path="url(#clip720)" style="stroke:#000000; stroke-linecap:round; stroke-linejoin:round; stroke-width:4; stroke-opacity:1; fill:none" points="2290.15,1486.45 2290.15,1467.55 "/>
<path clip-path="url(#clip720)" d="M203.301 1517.37 Q199.69 1517.37 197.861 1520.93 Q196.056 1524.47 196.056 1531.6 Q196.056 1538.71 197.861 1542.27 Q199.69 1545.82 203.301 1545.82 Q206.935 1545.82 208.741 1542.27 Q210.57 1538.71 210.57 1531.6 Q210.57 1524.47 208.741 1520.93 Q206.935 1517.37 203.301 1517.37 M203.301 1513.66 Q209.111 1513.66 212.167 1518.27 Q215.245 1522.85 215.245 1531.6 Q215.245 1540.33 212.167 1544.94 Q209.111 1549.52 203.301 1549.52 Q197.491 1549.52 194.412 1544.94 Q191.357 1540.33 191.357 1531.6 Q191.357 1522.85 194.412 1518.27 Q197.491 1513.66 203.301 1513.66 Z" fill="#000000" fill-rule="nonzero" fill-opacity="1" /><path clip-path="url(#clip720)" d="M684.632 1514.29 L702.988 1514.29 L702.988 1518.22 L688.914 1518.22 L688.914 1526.7 Q689.933 1526.35 690.951 1526.19 Q691.97 1526 692.988 1526 Q698.775 1526 702.155 1529.17 Q705.534 1532.34 705.534 1537.76 Q705.534 1543.34 702.062 1546.44 Q698.59 1549.52 692.27 1549.52 Q690.095 1549.52 687.826 1549.15 Q685.581 1548.78 683.173 1548.04 L683.173 1543.34 Q685.257 1544.47 687.479 1545.03 Q689.701 1545.58 692.178 1545.58 Q696.183 1545.58 698.52 1543.48 Q700.858 1541.37 700.858 1537.76 Q700.858 1534.15 698.52 1532.04 Q696.183 1529.94 692.178 1529.94 Q690.303 1529.94 688.428 1530.35 Q686.576 1530.77 684.632 1531.65 L684.632 1514.29 Z" fill="#000000" fill-rule="nonzero" fill-opacity="1" /><path clip-path="url(#clip720)" d="M724.747 1517.37 Q721.136 1517.37 719.307 1520.93 Q717.502 1524.47 717.502 1531.6 Q717.502 1538.71 719.307 1542.27 Q721.136 1545.82 724.747 1545.82 Q728.381 1545.82 730.187 1542.27 Q732.016 1538.71 732.016 1531.6 Q732.016 1524.47 730.187 1520.93 Q728.381 1517.37 724.747 1517.37 M724.747 1513.66 Q730.557 1513.66 733.613 1518.27 Q736.692 1522.85 736.692 1531.6 Q736.692 1540.33 733.613 1544.94 Q730.557 1549.52 724.747 1549.52 Q718.937 1549.52 715.858 1544.94 Q712.803 1540.33 712.803 1531.6 Q712.803 1522.85 715.858 1518.27 Q718.937 1513.66 724.747 1513.66 Z" fill="#000000" fill-rule="nonzero" fill-opacity="1" /><path clip-path="url(#clip720)" d="M754.909 1517.37 Q751.298 1517.37 749.469 1520.93 Q747.664 1524.47 747.664 1531.6 Q747.664 1538.71 749.469 1542.27 Q751.298 1545.82 754.909 1545.82 Q758.543 1545.82 760.349 1542.27 Q762.178 1538.71 762.178 1531.6 Q762.178 1524.47 760.349 1520.93 Q758.543 1517.37 754.909 1517.37 M754.909 1513.66 Q760.719 1513.66 763.775 1518.27 Q766.853 1522.85 766.853 1531.6 Q766.853 1540.33 763.775 1544.94 Q760.719 1549.52 754.909 1549.52 Q749.099 1549.52 746.02 1544.94 Q742.965 1540.33 742.965 1531.6 Q742.965 1522.85 746.02 1518.27 Q749.099 1513.66 754.909 1513.66 Z" fill="#000000" fill-rule="nonzero" fill-opacity="1" /><path clip-path="url(#clip720)" d="M1191.25 1544.91 L1198.89 1544.91 L1198.89 1518.55 L1190.58 1520.21 L1190.58 1515.95 L1198.84 1514.29 L1203.52 1514.29 L1203.52 1544.91 L1211.16 1544.91 L1211.16 1548.85 L1191.25 1548.85 L1191.25 1544.91 Z" fill="#000000" fill-rule="nonzero" fill-opacity="1" /><path clip-path="url(#clip720)" d="M1230.6 1517.37 Q1226.99 1517.37 1225.16 1520.93 Q1223.36 1524.47 1223.36 1531.6 Q1223.36 1538.71 1225.16 1542.27 Q1226.99 1545.82 1230.6 1545.82 Q1234.24 1545.82 1236.04 1542.27 Q1237.87 1538.71 1237.87 1531.6 Q1237.87 1524.47 1236.04 1520.93 Q1234.24 1517.37 1230.6 1517.37 M1230.6 1513.66 Q1236.41 1513.66 1239.47 1518.27 Q1242.55 1522.85 1242.55 1531.6 Q1242.55 1540.33 1239.47 1544.94 Q1236.41 1549.52 1230.6 1549.52 Q1224.79 1549.52 1221.71 1544.94 Q1218.66 1540.33 1218.66 1531.6 Q1218.66 1522.85 1221.71 1518.27 Q1224.79 1513.66 1230.6 1513.66 Z" fill="#000000" fill-rule="nonzero" fill-opacity="1" /><path clip-path="url(#clip720)" d="M1260.77 1517.37 Q1257.15 1517.37 1255.33 1520.93 Q1253.52 1524.47 1253.52 1531.6 Q1253.52 1538.71 1255.33 1542.27 Q1257.15 1545.82 1260.77 1545.82 Q1264.4 1545.82 1266.2 1542.27 Q1268.03 1538.71 1268.03 1531.6 Q1268.03 1524.47 1266.2 1520.93 Q1264.4 1517.37 1260.77 1517.37 M1260.77 1513.66 Q1266.58 1513.66 1269.63 1518.27 Q1272.71 1522.85 1272.71 1531.6 Q1272.71 1540.33 1269.63 1544.94 Q1266.58 1549.52 1260.77 1549.52 Q1254.95 1549.52 1251.88 1544.94 Q1248.82 1540.33 1248.82 1531.6 Q1248.82 1522.85 1251.88 1518.27 Q1254.95 1513.66 1260.77 1513.66 Z" fill="#000000" fill-rule="nonzero" fill-opacity="1" /><path clip-path="url(#clip720)" d="M1290.93 1517.37 Q1287.32 1517.37 1285.49 1520.93 Q1283.68 1524.47 1283.68 1531.6 Q1283.68 1538.71 1285.49 1542.27 Q1287.32 1545.82 1290.93 1545.82 Q1294.56 1545.82 1296.37 1542.27 Q1298.2 1538.71 1298.2 1531.6 Q1298.2 1524.47 1296.37 1520.93 Q1294.56 1517.37 1290.93 1517.37 M1290.93 1513.66 Q1296.74 1513.66 1299.79 1518.27 Q1302.87 1522.85 1302.87 1531.6 Q1302.87 1540.33 1299.79 1544.94 Q1296.74 1549.52 1290.93 1549.52 Q1285.12 1549.52 1282.04 1544.94 Q1278.98 1540.33 1278.98 1531.6 Q1278.98 1522.85 1282.04 1518.27 Q1285.12 1513.66 1290.93 1513.66 Z" fill="#000000" fill-rule="nonzero" fill-opacity="1" /><path clip-path="url(#clip720)" d="M1712.96 1544.91 L1720.6 1544.91 L1720.6 1518.55 L1712.29 1520.21 L1712.29 1515.95 L1720.56 1514.29 L1725.23 1514.29 L1725.23 1544.91 L1732.87 1544.91 L1732.87 1548.85 L1712.96 1548.85 L1712.96 1544.91 Z" fill="#000000" fill-rule="nonzero" fill-opacity="1" /><path clip-path="url(#clip720)" d="M1742.36 1514.29 L1760.72 1514.29 L1760.72 1518.22 L1746.64 1518.22 L1746.64 1526.7 Q1747.66 1526.35 1748.68 1526.19 Q1749.7 1526 1750.72 1526 Q1756.51 1526 1759.88 1529.17 Q1763.26 1532.34 1763.26 1537.76 Q1763.26 1543.34 1759.79 1546.44 Q1756.32 1549.52 1750 1549.52 Q1747.82 1549.52 1745.56 1549.15 Q1743.31 1548.78 1740.9 1548.04 L1740.9 1543.34 Q1742.99 1544.47 1745.21 1545.03 Q1747.43 1545.58 1749.91 1545.58 Q1753.91 1545.58 1756.25 1543.48 Q1758.59 1541.37 1758.59 1537.76 Q1758.59 1534.15 1756.25 1532.04 Q1753.91 1529.94 1749.91 1529.94 Q1748.03 1529.94 1746.16 1530.35 Q1744.31 1530.77 1742.36 1531.65 L1742.36 1514.29 Z" fill="#000000" fill-rule="nonzero" fill-opacity="1" /><path clip-path="url(#clip720)" d="M1782.48 1517.37 Q1778.87 1517.37 1777.04 1520.93 Q1775.23 1524.47 1775.23 1531.6 Q1775.23 1538.71 1777.04 1542.27 Q1778.87 1545.82 1782.48 1545.82 Q1786.11 1545.82 1787.92 1542.27 Q1789.75 1538.71 1789.75 1531.6 Q1789.75 1524.47 1787.92 1520.93 Q1786.11 1517.37 1782.48 1517.37 M1782.48 1513.66 Q1788.29 1513.66 1791.34 1518.27 Q1794.42 1522.85 1794.42 1531.6 Q1794.42 1540.33 1791.34 1544.94 Q1788.29 1549.52 1782.48 1549.52 Q1776.67 1549.52 1773.59 1544.94 Q1770.53 1540.33 1770.53 1531.6 Q1770.53 1522.85 1773.59 1518.27 Q1776.67 1513.66 1782.48 1513.66 Z" fill="#000000" fill-rule="nonzero" fill-opacity="1" /><path clip-path="url(#clip720)" d="M1812.64 1517.37 Q1809.03 1517.37 1807.2 1520.93 Q1805.39 1524.47 1805.39 1531.6 Q1805.39 1538.71 1807.2 1542.27 Q1809.03 1545.82 1812.64 1545.82 Q1816.27 1545.82 1818.08 1542.27 Q1819.91 1538.71 1819.91 1531.6 Q1819.91 1524.47 1818.08 1520.93 Q1816.27 1517.37 1812.64 1517.37 M1812.64 1513.66 Q1818.45 1513.66 1821.5 1518.27 Q1824.58 1522.85 1824.58 1531.6 Q1824.58 1540.33 1821.5 1544.94 Q1818.45 1549.52 1812.64 1549.52 Q1806.83 1549.52 1803.75 1544.94 Q1800.69 1540.33 1800.69 1531.6 Q1800.69 1522.85 1803.75 1518.27 Q1806.83 1513.66 1812.64 1513.66 Z" fill="#000000" fill-rule="nonzero" fill-opacity="1" /><path clip-path="url(#clip720)" d="M2238.76 1544.91 L2255.08 1544.91 L2255.08 1548.85 L2233.14 1548.85 L2233.14 1544.91 Q2235.8 1542.16 2240.38 1537.53 Q2244.99 1532.88 2246.17 1531.53 Q2248.41 1529.01 2249.29 1527.27 Q2250.2 1525.51 2250.2 1523.82 Q2250.2 1521.07 2248.25 1519.33 Q2246.33 1517.6 2243.23 1517.6 Q2241.03 1517.6 2238.58 1518.36 Q2236.15 1519.13 2233.37 1520.68 L2233.37 1515.95 Q2236.19 1514.82 2238.65 1514.24 Q2241.1 1513.66 2243.14 1513.66 Q2248.51 1513.66 2251.7 1516.35 Q2254.9 1519.03 2254.9 1523.52 Q2254.9 1525.65 2254.09 1527.57 Q2253.3 1529.47 2251.19 1532.07 Q2250.61 1532.74 2247.51 1535.95 Q2244.41 1539.15 2238.76 1544.91 Z" fill="#000000" fill-rule="nonzero" fill-opacity="1" /><path clip-path="url(#clip720)" d="M2274.9 1517.37 Q2271.28 1517.37 2269.46 1520.93 Q2267.65 1524.47 2267.65 1531.6 Q2267.65 1538.71 2269.46 1542.27 Q2271.28 1545.82 2274.9 1545.82 Q2278.53 1545.82 2280.34 1542.27 Q2282.16 1538.71 2282.16 1531.6 Q2282.16 1524.47 2280.34 1520.93 Q2278.53 1517.37 2274.9 1517.37 M2274.9 1513.66 Q2280.71 1513.66 2283.76 1518.27 Q2286.84 1522.85 2286.84 1531.6 Q2286.84 1540.33 2283.76 1544.94 Q2280.71 1549.52 2274.9 1549.52 Q2269.09 1549.52 2266.01 1544.94 Q2262.95 1540.33 2262.95 1531.6 Q2262.95 1522.85 2266.01 1518.27 Q2269.09 1513.66 2274.9 1513.66 Z" fill="#000000" fill-rule="nonzero" fill-opacity="1" /><path clip-path="url(#clip720)" d="M2305.06 1517.37 Q2301.45 1517.37 2299.62 1520.93 Q2297.81 1524.47 2297.81 1531.6 Q2297.81 1538.71 2299.62 1542.27 Q2301.45 1545.82 2305.06 1545.82 Q2308.69 1545.82 2310.5 1542.27 Q2312.33 1538.71 2312.33 1531.6 Q2312.33 1524.47 2310.5 1520.93 Q2308.69 1517.37 2305.06 1517.37 M2305.06 1513.66 Q2310.87 1513.66 2313.92 1518.27 Q2317 1522.85 2317 1531.6 Q2317 1540.33 2313.92 1544.94 Q2310.87 1549.52 2305.06 1549.52 Q2299.25 1549.52 2296.17 1544.94 Q2293.11 1540.33 2293.11 1531.6 Q2293.11 1522.85 2296.17 1518.27 Q2299.25 1513.66 2305.06 1513.66 Z" fill="#000000" fill-rule="nonzero" fill-opacity="1" /><path clip-path="url(#clip720)" d="M2335.22 1517.37 Q2331.61 1517.37 2329.78 1520.93 Q2327.97 1524.47 2327.97 1531.6 Q2327.97 1538.71 2329.78 1542.27 Q2331.61 1545.82 2335.22 1545.82 Q2338.85 1545.82 2340.66 1542.27 Q2342.49 1538.71 2342.49 1531.6 Q2342.49 1524.47 2340.66 1520.93 Q2338.85 1517.37 2335.22 1517.37 M2335.22 1513.66 Q2341.03 1513.66 2344.09 1518.27 Q2347.16 1522.85 2347.16 1531.6 Q2347.16 1540.33 2344.09 1544.94 Q2341.03 1549.52 2335.22 1549.52 Q2329.41 1549.52 2326.33 1544.94 Q2323.28 1540.33 2323.28 1531.6 Q2323.28 1522.85 2326.33 1518.27 Q2329.41 1513.66 2335.22 1513.66 Z" fill="#000000" fill-rule="nonzero" fill-opacity="1" /><polyline clip-path="url(#clip722)" style="stroke:#000000; stroke-linecap:round; stroke-linejoin:round; stroke-width:2; stroke-opacity:0.1; fill:none" points="140.696,1422.29 2352.76,1422.29 "/>
<polyline clip-path="url(#clip722)" style="stroke:#000000; stroke-linecap:round; stroke-linejoin:round; stroke-width:2; stroke-opacity:0.1; fill:none" points="140.696,1209.02 2352.76,1209.02 "/>
<polyline clip-path="url(#clip722)" style="stroke:#000000; stroke-linecap:round; stroke-linejoin:round; stroke-width:2; stroke-opacity:0.1; fill:none" points="140.696,995.754 2352.76,995.754 "/>
<polyline clip-path="url(#clip722)" style="stroke:#000000; stroke-linecap:round; stroke-linejoin:round; stroke-width:2; stroke-opacity:0.1; fill:none" points="140.696,782.484 2352.76,782.484 "/>
<polyline clip-path="url(#clip722)" style="stroke:#000000; stroke-linecap:round; stroke-linejoin:round; stroke-width:2; stroke-opacity:0.1; fill:none" points="140.696,569.214 2352.76,569.214 "/>
<polyline clip-path="url(#clip722)" style="stroke:#000000; stroke-linecap:round; stroke-linejoin:round; stroke-width:2; stroke-opacity:0.1; fill:none" points="140.696,355.944 2352.76,355.944 "/>
<polyline clip-path="url(#clip722)" style="stroke:#000000; stroke-linecap:round; stroke-linejoin:round; stroke-width:2; stroke-opacity:0.1; fill:none" points="140.696,142.674 2352.76,142.674 "/>
<polyline clip-path="url(#clip720)" style="stroke:#000000; stroke-linecap:round; stroke-linejoin:round; stroke-width:4; stroke-opacity:1; fill:none" points="140.696,1486.45 140.696,47.2441 "/>
<polyline clip-path="url(#clip720)" style="stroke:#000000; stroke-linecap:round; stroke-linejoin:round; stroke-width:4; stroke-opacity:1; fill:none" points="140.696,1422.29 159.593,1422.29 "/>
<polyline clip-path="url(#clip720)" style="stroke:#000000; stroke-linecap:round; stroke-linejoin:round; stroke-width:4; stroke-opacity:1; fill:none" points="140.696,1209.02 159.593,1209.02 "/>
<polyline clip-path="url(#clip720)" style="stroke:#000000; stroke-linecap:round; stroke-linejoin:round; stroke-width:4; stroke-opacity:1; fill:none" points="140.696,995.754 159.593,995.754 "/>
<polyline clip-path="url(#clip720)" style="stroke:#000000; stroke-linecap:round; stroke-linejoin:round; stroke-width:4; stroke-opacity:1; fill:none" points="140.696,782.484 159.593,782.484 "/>
<polyline clip-path="url(#clip720)" style="stroke:#000000; stroke-linecap:round; stroke-linejoin:round; stroke-width:4; stroke-opacity:1; fill:none" points="140.696,569.214 159.593,569.214 "/>
<polyline clip-path="url(#clip720)" style="stroke:#000000; stroke-linecap:round; stroke-linejoin:round; stroke-width:4; stroke-opacity:1; fill:none" points="140.696,355.944 159.593,355.944 "/>
<polyline clip-path="url(#clip720)" style="stroke:#000000; stroke-linecap:round; stroke-linejoin:round; stroke-width:4; stroke-opacity:1; fill:none" points="140.696,142.674 159.593,142.674 "/>
<path clip-path="url(#clip720)" d="M83.7929 1405.01 L102.149 1405.01 L102.149 1408.95 L88.0753 1408.95 L88.0753 1417.42 Q89.0938 1417.07 90.1123 1416.91 Q91.1308 1416.73 92.1493 1416.73 Q97.9363 1416.73 101.316 1419.9 Q104.696 1423.07 104.696 1428.49 Q104.696 1434.06 101.223 1437.17 Q97.7511 1440.24 91.4317 1440.24 Q89.2558 1440.24 86.9873 1439.87 Q84.7419 1439.5 82.3346 1438.76 L82.3346 1434.06 Q84.4179 1435.2 86.6401 1435.75 Q88.8623 1436.31 91.3391 1436.31 Q95.3437 1436.31 97.6817 1434.2 Q100.02 1432.1 100.02 1428.49 Q100.02 1424.87 97.6817 1422.77 Q95.3437 1420.66 91.3391 1420.66 Q89.4641 1420.66 87.5892 1421.08 Q85.7373 1421.5 83.7929 1422.37 L83.7929 1405.01 Z" fill="#000000" fill-rule="nonzero" fill-opacity="1" /><path clip-path="url(#clip720)" d="M53.3995 1222.37 L61.0384 1222.37 L61.0384 1196 L52.7282 1197.67 L52.7282 1193.41 L60.9921 1191.74 L65.668 1191.74 L65.668 1222.37 L73.3068 1222.37 L73.3068 1226.3 L53.3995 1226.3 L53.3995 1222.37 Z" fill="#000000" fill-rule="nonzero" fill-opacity="1" /><path clip-path="url(#clip720)" d="M92.7512 1194.82 Q89.1401 1194.82 87.3114 1198.39 Q85.5058 1201.93 85.5058 1209.06 Q85.5058 1216.16 87.3114 1219.73 Q89.1401 1223.27 92.7512 1223.27 Q96.3854 1223.27 98.1909 1219.73 Q100.02 1216.16 100.02 1209.06 Q100.02 1201.93 98.1909 1198.39 Q96.3854 1194.82 92.7512 1194.82 M92.7512 1191.12 Q98.5613 1191.12 101.617 1195.73 Q104.696 1200.31 104.696 1209.06 Q104.696 1217.79 101.617 1222.39 Q98.5613 1226.98 92.7512 1226.98 Q86.941 1226.98 83.8623 1222.39 Q80.8068 1217.79 80.8068 1209.06 Q80.8068 1200.31 83.8623 1195.73 Q86.941 1191.12 92.7512 1191.12 Z" fill="#000000" fill-rule="nonzero" fill-opacity="1" /><path clip-path="url(#clip720)" d="M54.3949 1009.1 L62.0337 1009.1 L62.0337 982.733 L53.7236 984.4 L53.7236 980.14 L61.9874 978.474 L66.6633 978.474 L66.6633 1009.1 L74.3022 1009.1 L74.3022 1013.03 L54.3949 1013.03 L54.3949 1009.1 Z" fill="#000000" fill-rule="nonzero" fill-opacity="1" /><path clip-path="url(#clip720)" d="M83.7929 978.474 L102.149 978.474 L102.149 982.409 L88.0753 982.409 L88.0753 990.881 Q89.0938 990.534 90.1123 990.372 Q91.1308 990.187 92.1493 990.187 Q97.9363 990.187 101.316 993.358 Q104.696 996.529 104.696 1001.95 Q104.696 1007.52 101.223 1010.63 Q97.7511 1013.71 91.4317 1013.71 Q89.2558 1013.71 86.9873 1013.33 Q84.7419 1012.96 82.3346 1012.22 L82.3346 1007.52 Q84.4179 1008.66 86.6401 1009.21 Q88.8623 1009.77 91.3391 1009.77 Q95.3437 1009.77 97.6817 1007.66 Q100.02 1005.56 100.02 1001.95 Q100.02 998.335 97.6817 996.228 Q95.3437 994.122 91.3391 994.122 Q89.4641 994.122 87.5892 994.539 Q85.7373 994.955 83.7929 995.835 L83.7929 978.474 Z" fill="#000000" fill-rule="nonzero" fill-opacity="1" /><path clip-path="url(#clip720)" d="M56.6171 795.829 L72.9365 795.829 L72.9365 799.764 L50.9921 799.764 L50.9921 795.829 Q53.6541 793.074 58.2375 788.444 Q62.8439 783.792 64.0245 782.449 Q66.2698 779.926 67.1494 778.19 Q68.0522 776.431 68.0522 774.741 Q68.0522 771.986 66.1078 770.25 Q64.1865 768.514 61.0847 768.514 Q58.8856 768.514 56.4319 769.278 Q54.0014 770.042 51.2236 771.593 L51.2236 766.871 Q54.0477 765.736 56.5014 765.158 Q58.955 764.579 60.9921 764.579 Q66.3624 764.579 69.5568 767.264 Q72.7513 769.949 72.7513 774.44 Q72.7513 776.57 71.9411 778.491 Q71.1541 780.389 69.0476 782.982 Q68.4689 783.653 65.367 786.87 Q62.2652 790.065 56.6171 795.829 Z" fill="#000000" fill-rule="nonzero" fill-opacity="1" /><path clip-path="url(#clip720)" d="M92.7512 768.283 Q89.1401 768.283 87.3114 771.847 Q85.5058 775.389 85.5058 782.519 Q85.5058 789.625 87.3114 793.19 Q89.1401 796.731 92.7512 796.731 Q96.3854 796.731 98.1909 793.19 Q100.02 789.625 100.02 782.519 Q100.02 775.389 98.1909 771.847 Q96.3854 768.283 92.7512 768.283 M92.7512 764.579 Q98.5613 764.579 101.617 769.185 Q104.696 773.769 104.696 782.519 Q104.696 791.245 101.617 795.852 Q98.5613 800.435 92.7512 800.435 Q86.941 800.435 83.8623 795.852 Q80.8068 791.245 80.8068 782.519 Q80.8068 773.769 83.8623 769.185 Q86.941 764.579 92.7512 764.579 Z" fill="#000000" fill-rule="nonzero" fill-opacity="1" /><path clip-path="url(#clip720)" d="M57.6125 582.559 L73.9318 582.559 L73.9318 586.494 L51.9875 586.494 L51.9875 582.559 Q54.6495 579.804 59.2328 575.175 Q63.8393 570.522 65.0198 569.179 Q67.2652 566.656 68.1448 564.92 Q69.0476 563.161 69.0476 561.471 Q69.0476 558.716 67.1032 556.98 Q65.1819 555.244 62.08 555.244 Q59.881 555.244 57.4273 556.008 Q54.9967 556.772 52.219 558.323 L52.219 553.601 Q55.043 552.466 57.4967 551.888 Q59.9504 551.309 61.9874 551.309 Q67.3578 551.309 70.5522 553.994 Q73.7466 556.679 73.7466 561.17 Q73.7466 563.3 72.9365 565.221 Q72.1494 567.119 70.0429 569.712 Q69.4642 570.383 66.3624 573.6 Q63.2606 576.795 57.6125 582.559 Z" fill="#000000" fill-rule="nonzero" fill-opacity="1" /><path clip-path="url(#clip720)" d="M83.7929 551.934 L102.149 551.934 L102.149 555.869 L88.0753 555.869 L88.0753 564.341 Q89.0938 563.994 90.1123 563.832 Q91.1308 563.647 92.1493 563.647 Q97.9363 563.647 101.316 566.818 Q104.696 569.989 104.696 575.406 Q104.696 580.985 101.223 584.087 Q97.7511 587.165 91.4317 587.165 Q89.2558 587.165 86.9873 586.795 Q84.7419 586.424 82.3346 585.684 L82.3346 580.985 Q84.4179 582.119 86.6401 582.674 Q88.8623 583.23 91.3391 583.23 Q95.3437 583.23 97.6817 581.124 Q100.02 579.017 100.02 575.406 Q100.02 571.795 97.6817 569.688 Q95.3437 567.582 91.3391 567.582 Q89.4641 567.582 87.5892 567.999 Q85.7373 568.415 83.7929 569.295 L83.7929 551.934 Z" fill="#000000" fill-rule="nonzero" fill-opacity="1" /><path clip-path="url(#clip720)" d="M66.7559 354.59 Q70.1124 355.307 71.9874 357.576 Q73.8855 359.844 73.8855 363.178 Q73.8855 368.293 70.367 371.094 Q66.8485 373.895 60.3671 373.895 Q58.1912 373.895 55.8764 373.455 Q53.5847 373.039 51.131 372.182 L51.131 367.668 Q53.0754 368.803 55.3903 369.381 Q57.7051 369.96 60.2282 369.96 Q64.6263 369.96 66.918 368.224 Q69.2328 366.488 69.2328 363.178 Q69.2328 360.122 67.08 358.409 Q64.9504 356.673 61.131 356.673 L57.1032 356.673 L57.1032 352.831 L61.3161 352.831 Q64.7652 352.831 66.5939 351.465 Q68.4226 350.076 68.4226 347.483 Q68.4226 344.821 66.5245 343.409 Q64.6495 341.974 61.131 341.974 Q59.2097 341.974 57.0106 342.391 Q54.8115 342.807 52.1727 343.687 L52.1727 339.52 Q54.8347 338.78 57.1495 338.409 Q59.4875 338.039 61.5476 338.039 Q66.8717 338.039 69.9735 340.47 Q73.0753 342.877 73.0753 346.997 Q73.0753 349.868 71.4318 351.858 Q69.7883 353.826 66.7559 354.59 Z" fill="#000000" fill-rule="nonzero" fill-opacity="1" /><path clip-path="url(#clip720)" d="M92.7512 341.743 Q89.1401 341.743 87.3114 345.307 Q85.5058 348.849 85.5058 355.979 Q85.5058 363.085 87.3114 366.65 Q89.1401 370.192 92.7512 370.192 Q96.3854 370.192 98.1909 366.65 Q100.02 363.085 100.02 355.979 Q100.02 348.849 98.1909 345.307 Q96.3854 341.743 92.7512 341.743 M92.7512 338.039 Q98.5613 338.039 101.617 342.645 Q104.696 347.229 104.696 355.979 Q104.696 364.705 101.617 369.312 Q98.5613 373.895 92.7512 373.895 Q86.941 373.895 83.8623 369.312 Q80.8068 364.705 80.8068 355.979 Q80.8068 347.229 83.8623 342.645 Q86.941 338.039 92.7512 338.039 Z" fill="#000000" fill-rule="nonzero" fill-opacity="1" /><path clip-path="url(#clip720)" d="M67.7513 141.32 Q71.1078 142.037 72.9827 144.306 Q74.8809 146.574 74.8809 149.908 Q74.8809 155.024 71.3624 157.824 Q67.8439 160.625 61.3624 160.625 Q59.1865 160.625 56.8717 160.186 Q54.5801 159.769 52.1264 158.912 L52.1264 154.399 Q54.0708 155.533 56.3856 156.111 Q58.7004 156.69 61.2236 156.69 Q65.6217 156.69 67.9133 154.954 Q70.2281 153.218 70.2281 149.908 Q70.2281 146.852 68.0754 145.139 Q65.9457 143.403 62.1263 143.403 L58.0986 143.403 L58.0986 139.561 L62.3115 139.561 Q65.7606 139.561 67.5893 138.195 Q69.418 136.806 69.418 134.213 Q69.418 131.551 67.5198 130.139 Q65.6448 128.704 62.1263 128.704 Q60.205 128.704 58.006 129.121 Q55.8069 129.538 53.168 130.417 L53.168 126.251 Q55.8301 125.51 58.1449 125.139 Q60.4828 124.769 62.543 124.769 Q67.867 124.769 70.9689 127.2 Q74.0707 129.607 74.0707 133.727 Q74.0707 136.598 72.4272 138.588 Q70.7837 140.556 67.7513 141.32 Z" fill="#000000" fill-rule="nonzero" fill-opacity="1" /><path clip-path="url(#clip720)" d="M83.7929 125.394 L102.149 125.394 L102.149 129.329 L88.0753 129.329 L88.0753 137.801 Q89.0938 137.454 90.1123 137.292 Q91.1308 137.107 92.1493 137.107 Q97.9363 137.107 101.316 140.278 Q104.696 143.449 104.696 148.866 Q104.696 154.445 101.223 157.547 Q97.7511 160.625 91.4317 160.625 Q89.2558 160.625 86.9873 160.255 Q84.7419 159.885 82.3346 159.144 L82.3346 154.445 Q84.4179 155.579 86.6401 156.135 Q88.8623 156.69 91.3391 156.69 Q95.3437 156.69 97.6817 154.584 Q100.02 152.477 100.02 148.866 Q100.02 145.255 97.6817 143.149 Q95.3437 141.042 91.3391 141.042 Q89.4641 141.042 87.5892 141.459 Q85.7373 141.875 83.7929 142.755 L83.7929 125.394 Z" fill="#000000" fill-rule="nonzero" fill-opacity="1" /><polyline clip-path="url(#clip722)" style="stroke:#009af9; stroke-linecap:round; stroke-linejoin:round; stroke-width:4; stroke-opacity:1; fill:none" points="203.301,1254.25 204.344,1255.45 205.388,893.415 206.431,898.451 207.475,1403.2 208.518,1403.57 209.562,1404.18 210.605,1404.53 211.648,1401.62 212.692,1401.95 213.735,1359.82 214.779,1360.27 215.822,1445.54 216.866,1445.72 217.909,1236.06 218.952,1237.32 219.996,1155 221.039,1156.6 222.083,1282.76 223.126,1283.51 224.17,1204.77 225.213,1205.89 226.256,953.955 227.3,955.4 228.343,1293.61 229.387,1294.18 230.43,1014.43 231.473,1016.12 232.517,1179.76 233.56,1180.92 234.604,1023.03 235.647,1024.37 236.691,946.92 237.734,948.685 238.777,1342.93 239.821,1343.26 240.864,1119.06 241.908,1120.4 242.951,1274.85 243.995,1275.4 245.038,1133.25 246.081,1134.62 247.125,1279.28 248.168,1280.06 249.212,1211.88 250.255,1212.92 251.299,902.496 252.342,904.064 253.385,946.803 254.429,948.35 255.472,795.31 256.516,797.194 257.559,1184.44 258.603,1185.12 259.646,1233.88 260.689,1234.54 261.733,925.572 262.776,926.772 263.82,494.788 264.863,496.994 265.907,990.583 266.95,992.144 267.993,928.729 269.037,930.563 270.08,931.421 271.124,933.106 272.167,1139.64 273.21,1140.38 274.254,1009.8 275.297,1011.07 276.341,824.388 277.384,825.781 278.428,922.88 279.471,924.306 280.514,774.668 281.558,776.555 282.601,777.926 283.645,779.561 284.688,1096.08 285.732,1096.66 286.775,875.138 287.818,876.463 288.862,1038.95 289.905,1039.63 290.949,726.402 291.992,727.596 293.036,790.363 294.079,792.133 295.122,885.564 296.166,886.12 297.209,719.258 298.253,721.228 299.296,908.716 300.34,909.72 301.383,482.975 302.426,484.977 303.47,548.222 304.513,549.962 305.557,858.338 306.6,859.368 307.643,491.642 308.687,493.391 309.73,774.667 310.774,775.905 311.817,859.407 312.861,860.826 313.904,683.797 314.947,684.605 315.991,725.883 317.034,727.024 318.078,529.797 319.121,531.32 320.165,706.192 321.208,707.219 322.251,631.621 323.295,632.942 324.338,674.388 325.382,675.045 326.425,650.609 327.469,651.492 328.512,724.044 329.555,724.884 330.599,728.987 331.642,729.826 332.686,489.899 333.729,490.814 334.773,596.946 335.816,598.009 336.859,494.638 337.903,495.513 338.946,402.686 339.99,404.283 341.033,405.349 342.077,406.361 343.12,676.324 344.163,676.965 345.207,533.089 346.25,533.776 347.294,373.381 348.337,374.21 349.38,628.002 350.424,628.79 351.467,832.199 352.511,832.603 353.554,519.33 354.598,520.19 355.641,641.264 356.684,642.197 357.728,392.182 358.771,393.255 359.815,614.052 360.858,614.722 361.902,651.653 362.945,652.021 363.988,687.583 365.032,688.173 366.075,726.307 367.119,726.972 368.162,658.386 369.206,658.798 370.249,544.893 371.292,545.856 372.336,320.457 373.379,321.859 374.423,555.036 375.466,556.139 376.51,598.225 377.553,598.689 378.596,695.364 379.64,695.696 380.683,699.929 381.727,700.221 382.77,582.325 383.813,583.207 384.857,557.389 385.9,557.932 386.944,716.003 387.987,717.117 389.031,351.705 390.074,352.313 391.117,701.813 392.161,702.152 393.204,718.584 394.248,718.855 395.291,624.152 396.335,624.478 397.378,725.113 398.421,725.32 399.465,493.157 400.508,493.688 401.552,421.385 402.595,421.713 403.639,287.294 404.682,287.951 405.725,189.938 406.769,190.684 407.812,159.816 408.856,161.092 409.899,521.591 410.943,521.912 411.986,672.537 413.029,672.847 414.073,371.229 415.116,371.832 416.16,670.716 417.203,671.724 418.247,617.634 419.29,617.915 420.333,415.858 421.377,416.26 422.42,570.212 423.464,570.62 424.507,329.424 425.55,329.693 426.594,247.166 427.637,248.206 428.681,382.488 429.724,382.97 430.768,650.732 431.811,650.939 432.854,558.443 433.898,559.039 434.941,406.92 435.985,407.357 437.028,492.143 438.072,492.599 439.115,478.636 440.158,479.152 441.202,642.84 442.245,643.061 443.289,544.519 444.332,544.906 445.376,353.137 446.419,353.276 447.462,521.12 448.506,521.582 449.549,468.939 450.593,469.289 451.636,541.639 452.68,541.867 453.723,282.649 454.766,282.938 455.81,399.666 456.853,399.947 457.897,475.973 458.94,476.242 459.984,351.264 461.027,351.47 462.07,571.622 463.114,571.816 464.157,491.205 465.201,491.718 466.244,585.842 467.287,586.487 468.331,740.355 469.374,740.498 470.418,464.533 471.461,464.878 472.505,597.486 473.548,597.638 474.591,392.047 475.635,392.674 476.678,524.285 477.722,524.616 478.765,198.78 479.809,199.289 480.852,243.823 481.895,244.189 482.939,397.907 483.982,398.285 485.026,564.38 486.069,564.638 487.113,586.347 488.156,586.744 489.199,547.033 490.243,547.243 491.286,550.576 492.33,550.715 493.373,503.955 494.417,504.192 495.46,576.498 496.503,576.622 497.547,356.409 498.59,356.647 499.634,524.018 500.677,524.232 501.72,579.091 502.764,579.21 503.807,501.211 504.851,501.656 505.894,439.596 506.938,439.811 507.981,381.187 509.024,381.327 510.068,664.486 511.111,664.629 512.155,600.709 513.198,601.005 514.242,265.043 515.285,265.3 516.328,383.503 517.372,383.829 518.415,588.228 519.459,588.491 520.502,402.932 521.546,403.301 522.589,311.369 523.632,311.531 524.676,390.395 525.719,390.551 526.763,421.062 527.806,421.32 528.85,472.556 529.893,472.785 530.936,515.618 531.98,516.016 533.023,358.845 534.067,358.954 535.11,620.606 536.154,621.563 537.197,539.495 538.24,539.607 539.284,410.29 540.327,410.444 541.371,465.286 542.414,465.468 543.457,462.201 544.501,462.593 545.544,548.678 546.588,548.848 547.631,513.481 548.675,513.674 549.718,501.147 550.761,501.228 551.805,494.963 552.848,495.426 553.892,130.618 554.935,131.133 555.979,407.05 557.022,407.337 558.065,518.329 559.109,518.481 560.152,583.693 561.196,584.165 562.239,419.619 563.283,419.71 564.326,545.21 565.369,545.279 566.413,573.616 567.456,573.931 568.5,504.346 569.543,505.05 570.587,298.958 571.63,299.155 572.673,409.79 573.717,410.062 574.76,478.624 575.804,478.868 576.847,427.061 577.89,427.192 578.934,545.29 579.977,545.368 581.021,385.416 582.064,386.658 583.108,469.94 584.151,470.372 585.194,589.492 586.238,589.55 587.281,565.508 588.325,565.574 589.368,340.058 590.412,340.333 591.455,492.791 592.498,492.934 593.542,508.032 594.585,508.098 595.629,414.233 596.672,414.801 597.716,516.232 598.759,516.307 599.802,181.791 600.846,183.687 601.889,472.455 602.933,472.655 603.976,498.797 605.02,498.88 606.063,322.011 607.106,322.107 608.15,478.879 609.193,479.038 610.237,577.084 611.28,577.154 612.324,451.895 613.367,452.913 614.41,510.157 615.454,510.477 616.497,513.85 617.541,513.955 618.584,510.589 619.627,510.787 620.671,491.197 621.714,491.254 622.758,581.26 623.801,581.713 624.845,277.717 625.888,277.889 626.931,502.684 627.975,502.771 629.018,497.788 630.062,497.989 631.105,514.34 632.149,514.478 633.192,386.557 634.235,386.671 635.279,552.626 636.322,552.684 637.366,203.311 638.409,203.706 639.453,463.932 640.496,464.105 641.539,472.892 642.583,473.032 643.626,478.12 644.67,478.184 645.713,549.327 646.757,549.493 647.8,333.237 648.843,333.536 649.887,448.905 650.93,449.092 651.974,351.741 653.017,351.848 654.06,459.461 655.104,459.581 656.147,306.014 657.191,306.245 658.234,518.365 659.278,518.425 660.321,572.365 661.364,572.426 662.408,404.067 663.451,404.505 664.495,333.543 665.538,333.973 666.582,338.102 667.625,338.232 668.668,444.172 669.712,444.689 670.755,355.79 671.799,356.066 672.842,460.742 673.886,460.8 674.929,443.668 675.972,444.315 677.016,458.514 678.059,458.632 679.103,490.078 680.146,490.204 681.19,451.777 682.233,452.088 683.276,308.509 684.32,308.614 685.363,529.758 686.407,529.832 687.45,293.132 688.494,293.583 689.537,460.024 690.58,460.194 691.624,412.835 692.667,412.944 693.711,285.266 694.754,285.364 695.797,486.918 696.841,487.022 697.884,493.388 698.928,493.484 699.971,430.592 701.015,430.645 702.058,324.763 703.101,324.849 704.145,360.918 705.188,361.084 706.232,466.77 707.275,466.847 708.319,410.981 709.362,411.203 710.405,460.935 711.449,461.128 712.492,460.054 713.536,460.152 714.579,496.948 715.623,497.163 716.666,328.586 717.709,328.668 718.753,220.686 719.796,221.083 720.84,438.286 721.883,438.416 722.927,442.364 723.97,442.57 725.013,490.431 726.057,490.491 727.1,452.693 728.144,452.87 729.187,469.503 730.23,469.61 731.274,503.329 732.317,503.455 733.361,446.165 734.404,446.227 735.448,472.681 736.491,472.715 737.534,485.306 738.578,485.5 739.621,439.114 740.665,439.507 741.708,471.014 742.752,471.322 743.795,284.384 744.838,284.511 745.882,480.759 746.925,480.855 747.969,459.948 749.012,460.126 750.056,453.287 751.099,453.383 752.142,516.963 753.186,517.332 754.229,428.281 755.273,428.372 756.316,479.349 757.36,479.567 758.403,468.428 759.446,468.497 760.49,446.915 761.533,447.269 762.577,449.939 763.62,449.977 764.664,446.29 765.707,446.402 766.75,516.535 767.794,516.636 768.837,441.492 769.881,441.614 770.924,498.772 771.967,499.049 773.011,504.439 774.054,504.618 775.098,485.933 776.141,485.964 777.185,486.057 778.228,486.087 779.271,457.909 780.315,457.999 781.358,429.84 782.402,430.091 783.445,492.286 784.489,492.341 785.532,502.228 786.575,502.268 787.619,332.94 788.662,333.263 789.706,275.206 790.749,275.316 791.793,449.323 792.836,449.379 793.879,290.674 794.923,290.816 795.966,445.124 797.01,445.182 798.053,328.039 799.097,328.619 800.14,504.974 801.183,505.214 802.227,402.733 803.27,402.93 804.314,294.158 805.357,294.314 806.401,271.896 807.444,272.048 808.487,465.353 809.531,465.396 810.574,510.333 811.618,510.371 812.661,431.795 813.704,431.88 814.748,501.464 815.791,501.541 816.835,470.371 817.878,470.527 818.922,481.888 819.965,481.939 821.008,460.507 822.052,460.567 823.095,503.071 824.139,503.098 825.182,546.737 826.226,546.926 827.269,437.899 828.312,437.948 829.356,485.173 830.399,485.258 831.443,448.176 832.486,448.238 833.53,500.455 834.573,500.487 835.616,417.221 836.66,417.468 837.703,488.011 838.747,488.041 839.79,441.87 840.834,442.116 841.877,340.356 842.92,340.677 843.964,480.343 845.007,480.47 846.051,479.636 847.094,479.724 848.137,499.846 849.181,500.402 850.224,495.606 851.268,497.19 852.311,457.247 853.355,457.329 854.398,456.98 855.441,457.112 856.485,441.971 857.528,442.05 858.572,452.411 859.615,452.443 860.659,501.991 861.702,502.241 862.745,465.218 863.789,465.252 864.832,296.565 865.876,297.31 866.919,495.277 867.963,495.422 869.006,455.68 870.049,455.711 871.093,454.562 872.136,454.608 873.18,331.079 874.223,331.16 875.267,509.707 876.31,509.787 877.353,438.317 878.397,438.804 879.44,460.22 880.484,461.163 881.527,545.08 882.571,545.513 883.614,451.577 884.657,451.627 885.701,439.714 886.744,439.801 887.788,533.737 888.831,533.915 889.874,425.606 890.918,425.645 891.961,442.676 893.005,442.704 894.048,472.907 895.092,472.974 896.135,580.444 897.178,580.66 898.222,474.411 899.265,475.518 900.309,457.108 901.352,457.284 902.396,447.05 903.439,447.183 904.482,474.308 905.526,474.331 906.569,424.493 907.613,424.534 908.656,432.959 909.7,433.227 910.743,504.209 911.786,504.281 912.83,433.265 913.873,433.612 914.917,333.03 915.96,333.181 917.004,451.583 918.047,451.731 919.09,287.778 920.134,287.893 921.177,463.032 922.221,463.057 923.264,439.217 924.307,439.711 925.351,321.73 926.394,322.048 927.438,273.997 928.481,274.278 929.525,449.414 930.568,449.559 931.611,449.673 932.655,449.703 933.698,372.532 934.742,372.662 935.785,537.06 936.829,537.4 937.872,475.257 938.915,475.393 939.959,271.267 941.002,271.49 942.046,448.409 943.089,448.63 944.133,412.29 945.176,412.433 946.219,414.729 947.263,415.783 948.306,431.68 949.35,432.406 950.393,339.757 951.437,340.304 952.48,459.948 953.523,460.061 954.567,276.162 955.61,276.256 956.654,501.156 957.697,501.3 958.741,494.585 959.784,495.022 960.827,445.756 961.871,446.116 962.914,509.868 963.958,510.483 965.001,425.782 966.044,425.806 967.088,461.902 968.131,462.182 969.175,560.235 970.218,560.93 971.262,413.046 972.305,413.134 973.348,451.423 974.392,451.543 975.435,476.57 976.479,476.711 977.522,297.419 978.566,297.544 979.609,110.513 980.652,111.009 981.696,436.168 982.739,436.29 983.783,464.928 984.826,465.376 985.87,461.728 986.913,461.783 987.956,465.311 989,465.356 990.043,502.674 991.087,502.81 992.13,463.776 993.174,463.816 994.217,424.306 995.26,424.456 996.304,458.393 997.347,459.284 998.391,525.332 999.434,525.347 1000.48,310.663 1001.52,310.87 1002.56,476.422 1003.61,476.439 1004.65,457.149 1005.69,457.441 1006.74,291.892 1007.78,292.056 1008.82,262.785 1009.87,262.92 1010.91,501.532 1011.96,501.548 1013,533.857 1014.04,534.319 1015.09,430.774 1016.13,430.803 1017.17,503.414 1018.22,503.431 1019.26,471.823 1020.3,471.955 1021.35,456.409 1022.39,456.795 1023.43,439.375 1024.48,439.425 1025.52,419.21 1026.56,419.277 1027.61,426.023 1028.65,426.102 1029.69,427.934 1030.74,427.962 1031.78,468.133 1032.82,468.169 1033.87,518.959 1034.91,519.093 1035.95,265.654 1037,265.753 1038.04,493.732 1039.08,493.776 1040.13,445.357 1041.17,445.43 1042.21,459.087 1043.26,459.165 1044.3,424.547 1045.34,424.691 1046.39,429.663 1047.43,429.69 1048.48,425.046 1049.52,425.176 1050.56,413.836 1051.61,413.968 1052.65,459.866 1053.69,459.923 1054.74,472.278 1055.78,472.343 1056.82,455.531 1057.87,455.548 1058.91,457.95 1059.95,457.967 1061,441.359 1062.04,441.994 1063.08,431.172 1064.13,431.706 1065.17,474.391 1066.21,474.527 1067.26,449.371 1068.3,449.535 1069.34,451.535 1070.39,451.784 1071.43,445.924 1072.47,446.48 1073.52,447.542 1074.56,447.574 1075.6,440.197 1076.65,440.9 1077.69,450.427 1078.73,451.399 1079.78,271.413 1080.82,272.432 1081.86,426.116 1082.91,426.249 1083.95,417.727 1084.99,417.776 1086.04,452.288 1087.08,452.355 1088.13,452.802 1089.17,453.143 1090.21,462.499 1091.26,462.672 1092.3,261.276 1093.34,261.458 1094.39,427.398 1095.43,427.679 1096.47,462.605 1097.52,462.74 1098.56,281.959 1099.6,282.32 1100.65,505.257 1101.69,505.268 1102.73,454.454 1103.78,454.478 1104.82,457.351 1105.86,458.096 1106.91,295.754 1107.95,295.892 1108.99,435.54 1110.04,435.56 1111.08,466.013 1112.12,467.022 1113.17,491.308 1114.21,491.447 1115.25,448.471 1116.3,448.497 1117.34,514.722 1118.38,514.817 1119.43,456.325 1120.47,456.374 1121.51,518.982 1122.56,519.284 1123.6,298.933 1124.65,299.692 1125.69,299.407 1126.73,299.646 1127.78,440.182 1128.82,440.306 1129.86,521.557 1130.91,521.65 1131.95,430.362 1132.99,430.512 1134.04,434.423 1135.08,434.779 1136.12,275.759 1137.17,275.949 1138.21,459.295 1139.25,459.337 1140.3,443.086 1141.34,443.304 1142.38,480.26 1143.43,480.46 1144.47,518.483 1145.51,518.498 1146.56,497.161 1147.6,497.542 1148.64,435.985 1149.69,436.278 1150.73,476.404 1151.77,476.521 1152.82,418.651 1153.86,420.325 1154.9,448.46 1155.95,448.717 1156.99,474.864 1158.03,474.993 1159.08,455.177 1160.12,455.191 1161.16,493.117 1162.21,493.133 1163.25,487.401 1164.3,487.643 1165.34,456.175 1166.38,456.766 1167.43,474.197 1168.47,474.414 1169.51,253.034 1170.56,253.148 1171.6,469.267 1172.64,469.983 1173.69,453.983 1174.73,454.01 1175.77,453.342 1176.82,453.381 1177.86,467.553 1178.9,467.587 1179.95,440.878 1180.99,440.917 1182.03,494.234 1183.08,494.451 1184.12,507.58 1185.16,507.762 1186.21,474.053 1187.25,474.338 1188.29,258.681 1189.34,259.127 1190.38,477.706 1191.42,477.751 1192.47,419.79 1193.51,419.875 1194.55,316.934 1195.6,317.474 1196.64,469.302 1197.68,469.353 1198.73,462.752 1199.77,462.912 1200.82,413.13 1201.86,413.601 1202.9,309.385 1203.95,309.751 1204.99,454.543 1206.03,454.555 1207.08,260.427 1208.12,261.223 1209.16,442.431 1210.21,442.46 1211.25,441.712 1212.29,441.855 1213.34,442.95 1214.38,442.998 1215.42,455.533 1216.47,455.734 1217.51,478.797 1218.55,478.807 1219.6,440.841 1220.64,441.117 1221.68,478.881 1222.73,478.892 1223.77,464.062 1224.81,464.199 1225.86,419.166 1226.9,419.408 1227.94,456.746 1228.99,457.196 1230.03,456.16 1231.07,456.37 1232.12,432.871 1233.16,432.95 1234.2,445.942 1235.25,446.023 1236.29,443.965 1237.33,443.989 1238.38,444.411 1239.42,444.449 1240.47,438.493 1241.51,438.706 1242.55,417.243 1243.6,417.356 1244.64,480.832 1245.68,480.865 1246.73,425.766 1247.77,426.266 1248.81,455.876 1249.86,455.906 1250.9,437.58 1251.94,438.877 1252.99,287.479 1254.03,287.714 1255.07,454.569 1256.12,454.604 1257.16,443.446 1258.2,443.477 1259.25,502.051 1260.29,502.082 1261.33,454.991 1262.38,455 1263.42,288.181 1264.46,288.635 1265.51,432.196 1266.55,432.323 1267.59,446.953 1268.64,447.28 1269.68,435.498 1270.72,436.9 1271.77,430.205 1272.81,430.267 1273.85,440.628 1274.9,441.196 1275.94,466.451 1276.99,466.463 1278.03,442.996 1279.07,443.689 1280.12,466.834 1281.16,466.866 1282.2,452.565 1283.25,453.581 1284.29,489.226 1285.33,489.309 1286.38,512.024 1287.42,512.878 1288.46,465.332 1289.51,465.985 1290.55,467.305 1291.59,467.454 1292.64,536.102 1293.68,536.373 1294.72,420.323 1295.77,420.643 1296.81,322.935 1297.85,323.049 1298.9,300.883 1299.94,301.256 1300.98,440.334 1302.03,440.504 1303.07,451.732 1304.11,452.051 1305.16,453.6 1306.2,453.69 1307.24,478.377 1308.29,478.432 1309.33,430.812 1310.37,430.831 1311.42,455.323 1312.46,455.34 1313.5,418.759 1314.55,419.05 1315.59,286.257 1316.64,286.477 1317.68,443.524 1318.72,443.651 1319.77,444.605 1320.81,445.421 1321.85,458.486 1322.9,458.894 1323.94,296.826 1324.98,297.02 1326.03,432.467 1327.07,432.509 1328.11,445.383 1329.16,445.433 1330.2,445.577 1331.24,445.621 1332.29,464.916 1333.33,465.207 1334.37,455.911 1335.42,455.919 1336.46,453.863 1337.5,453.996 1338.55,283.683 1339.59,284.396 1340.63,444.03 1341.68,444.057 1342.72,466.734 1343.76,466.779 1344.81,442.76 1345.85,443.141 1346.89,468.469 1347.94,468.492 1348.98,445.285 1350.02,445.449 1351.07,457.942 1352.11,458.225 1353.16,517.139 1354.2,517.184 1355.24,477.578 1356.29,477.774 1357.33,274.865 1358.37,274.99 1359.42,251.325 1360.46,251.447 1361.5,432.662 1362.55,432.708 1363.59,427.733 1364.63,428.179 1365.68,286.578 1366.72,286.756 1367.76,419.474 1368.81,419.572 1369.85,479.314 1370.89,479.623 1371.94,444.639 1372.98,444.68 1374.02,455.308 1375.07,455.4 1376.11,420.532 1377.15,420.881 1378.2,480.465 1379.24,480.483 1380.28,433.035 1381.33,433.247 1382.37,466.899 1383.41,466.913 1384.46,430.426 1385.5,430.525 1386.54,434.101 1387.59,434.575 1388.63,449.871 1389.67,450.441 1390.72,453.262 1391.76,453.316 1392.81,446.488 1393.85,446.517 1394.89,456.081 1395.94,456.098 1396.98,469.399 1398.02,469.426 1399.07,252.348 1400.11,252.455 1401.15,451.246 1402.2,451.712 1403.24,470.31 1404.28,470.339 1405.33,426.75 1406.37,427.618 1407.41,466.565 1408.46,466.634 1409.5,421.34 1410.54,421.46 1411.59,420.617 1412.63,420.674 1413.67,469.623 1414.72,469.644 1415.76,457.11 1416.8,457.419 1417.85,478.393 1418.89,478.801 1419.93,477.446 1420.98,477.636 1422.02,431.863 1423.06,432.041 1424.11,469.92 1425.15,469.944 1426.19,467.959 1427.24,468.211 1428.28,432.976 1429.33,433.025 1430.37,272.902 1431.41,273.003 1432.46,459.661 1433.5,460.197 1434.54,433.552 1435.59,433.574 1436.63,470.032 1437.67,470.054 1438.72,471.005 1439.76,471.026 1440.8,429.143 1441.85,429.388 1442.89,419.001 1443.93,419.276 1444.98,434.022 1446.02,434.223 1447.06,462 1448.11,462.307 1449.15,443.292 1450.19,443.304 1451.24,455.205 1452.28,455.343 1453.32,101.208 1454.37,101.706 1455.41,253.73 1456.45,254.052 1457.5,445.32 1458.54,445.439 1459.58,453.563 1460.63,453.607 1461.67,439.092 1462.71,439.523 1463.76,442.802 1464.8,442.825 1465.84,288.066 1466.89,288.987 1467.93,423.85 1468.98,423.955 1470.02,411.9 1471.06,413.298 1472.11,446.904 1473.15,447.021 1474.19,421.518 1475.24,421.538 1476.28,454.916 1477.32,455.058 1478.37,444.834 1479.41,444.929 1480.45,468.309 1481.5,468.441 1482.54,470.277 1483.58,470.295 1484.63,421.303 1485.67,421.334 1486.71,448.041 1487.76,448.374 1488.8,433.664 1489.84,433.693 1490.89,284.049 1491.93,284.171 1492.97,444.074 1494.02,444.091 1495.06,424.98 1496.1,425.18 1497.15,481.565 1498.19,481.572 1499.23,447.547 1500.28,447.574 1501.32,264.753 1502.36,264.88 1503.41,455.525 1504.45,455.583 1505.5,445.21 1506.54,445.245 1507.58,418.425 1508.63,418.663 1509.67,467.915 1510.71,468.106 1511.76,480.956 1512.8,480.967 1513.84,440.838 1514.89,441.091 1515.93,493.156 1516.97,493.321 1518.02,446.11 1519.06,446.133 1520.1,477.222 1521.15,478.026 1522.19,432.263 1523.23,432.384 1524.28,456.977 1525.32,457.044 1526.36,421.751 1527.41,421.833 1528.45,432.678 1529.49,432.686 1530.54,470.65 1531.58,471.345 1532.62,444.192 1533.67,444.765 1534.71,422.32 1535.75,422.347 1536.8,456.659 1537.84,457.057 1538.88,286.285 1539.93,286.438 1540.97,431.226 1542.01,431.575 1543.06,422.81 1544.1,423.994 1545.15,434.036 1546.19,434.084 1547.23,434.883 1548.28,434.982 1549.32,451.585 1550.36,452.007 1551.41,429.232 1552.45,429.485 1553.49,429.32 1554.54,429.652 1555.58,434.816 1556.62,434.922 1557.67,459.865 1558.71,459.993 1559.75,477.7 1560.8,478.034 1561.84,422.412 1562.88,422.441 1563.93,452.892 1564.97,453.77 1566.01,471.28 1567.06,471.295 1568.1,443.281 1569.14,443.292 1570.19,457.327 1571.23,457.332 1572.27,471.871 1573.32,472.104 1574.36,422.491 1575.4,422.537 1576.45,482.832 1577.49,483.088 1578.53,260.017 1579.58,260.182 1580.62,423.242 1581.67,423.261 1582.71,247.707 1583.75,248.835 1584.8,491.26 1585.84,491.823 1586.88,433.77 1587.93,433.841 1588.97,456.432 1590.01,456.529 1591.06,463.159 1592.1,463.259 1593.14,433.995 1594.19,434.264 1595.23,261.022 1596.27,261.137 1597.32,448.022 1598.36,448.095 1599.4,251.393 1600.45,251.51 1601.49,459.987 1602.53,460.406 1603.58,436.167 1604.62,436.336 1605.66,470.849 1606.71,470.891 1607.75,475.246 1608.79,475.43 1609.84,425.473 1610.88,425.615 1611.92,447.215 1612.97,447.239 1614.01,425.126 1615.05,425.186 1616.1,450.084 1617.14,450.164 1618.18,269.377 1619.23,270.185 1620.27,457.137 1621.32,457.153 1622.36,442.908 1623.4,442.929 1624.45,436.066 1625.49,436.39 1626.53,467.141 1627.58,467.7 1628.62,276.668 1629.66,276.793 1630.71,284.245 1631.75,284.597 1632.79,425.011 1633.84,425.077 1634.88,468.603 1635.92,468.872 1636.97,454.272 1638.01,454.349 1639.05,422.852 1640.1,422.883 1641.14,452.159 1642.18,452.79 1643.23,460.865 1644.27,460.959 1645.31,467.018 1646.36,467.05 1647.4,487.026 1648.44,487.12 1649.49,417.185 1650.53,417.82 1651.57,438.246 1652.62,439.158 1653.66,424.799 1654.7,425.467 1655.75,419.446 1656.79,420.134 1657.84,434.283 1658.88,434.549 1659.92,423.746 1660.97,423.763 1662.01,422.851 1663.05,422.905 1664.1,423.447 1665.14,423.465 1666.18,424.592 1667.23,424.699 1668.27,296.166 1669.31,296.29 1670.36,442.45 1671.4,442.506 1672.44,423.407 1673.49,423.427 1674.53,422.643 1675.57,422.751 1676.62,273.795 1677.66,274.982 1678.7,467.166 1679.75,467.192 1680.79,452.641 1681.83,452.729 1682.88,252.245 1683.92,252.452 1684.96,433.158 1686.01,433.176 1687.05,433.382 1688.09,433.387 1689.14,433.242 1690.18,433.258 1691.22,447.188 1692.27,447.682 1693.31,457.631 1694.35,457.636 1695.4,421.986 1696.44,422.962 1697.49,456.813 1698.53,456.996 1699.57,443.356 1700.62,443.479 1701.66,423.216 1702.7,423.318 1703.75,447.883 1704.79,447.94 1705.83,423.721 1706.88,424.079 1707.92,434.356 1708.96,434.486 1710.01,446.452 1711.05,446.729 1712.09,423.553 1713.14,423.65 1714.18,423.926 1715.22,424.009 1716.27,261.339 1717.31,261.441 1718.35,448.577 1719.4,449.026 1720.44,294.483 1721.48,294.708 1722.53,261.374 1723.57,261.656 1724.61,433.414 1725.66,433.5 1726.7,261.939 1727.74,262.262 1728.79,423.756 1729.83,423.785 1730.87,448.456 1731.92,449.286 1732.96,260.033 1734.01,260.645 1735.05,434.349 1736.09,435.14 1737.14,275.186 1738.18,275.668 1739.22,447.964 1740.27,447.986 1741.31,423.709 1742.35,423.744 1743.4,433.429 1744.44,433.436 1745.48,424.18 1746.53,424.204 1747.57,466.609 1748.61,466.665 1749.66,434.089 1750.7,434.515 1751.74,435.718 1752.79,436.071 1753.83,434.208 1754.87,434.216 1755.92,475.196 1756.96,475.334 1758,126.779 1759.05,127.259 1760.09,426.19 1761.13,426.241 1762.18,432.131 1763.22,432.193 1764.26,501.238 1765.31,501.506 1766.35,439.997 1767.39,440.33 1768.44,434.113 1769.48,434.124 1770.52,433.885 1771.57,434.391 1772.61,421.977 1773.66,422.092 1774.7,487.905 1775.74,488.069 1776.79,435.598 1777.83,435.605 1778.87,255.388 1779.92,255.496 1780.96,460.52 1782,460.537 1783.05,444.133 1784.09,444.148 1785.13,479.76 1786.18,479.86 1787.22,452.625 1788.26,452.974 1789.31,434.336 1790.35,434.341 1791.39,308.531 1792.44,308.709 1793.48,481.655 1794.52,481.676 1795.57,425.464 1796.61,425.48 1797.65,425.527 1798.7,425.542 1799.74,504.751 1800.78,504.923 1801.83,507.703 1802.87,507.707 1803.91,430.74 1804.96,430.987 1806,449.097 1807.04,449.118 1808.09,468.27 1809.13,468.531 1810.18,460.492 1811.22,460.517 1812.26,448.036 1813.31,448.078 1814.35,450.646 1815.39,450.664 1816.44,471.809 1817.48,471.869 1818.52,471.363 1819.57,471.494 1820.61,496.773 1821.65,496.93 1822.7,297.566 1823.74,298.159 1824.78,450.683 1825.83,450.792 1826.87,454.149 1827.91,454.214 1828.96,429.215 1830,429.247 1831.04,475.043 1832.09,475.165 1833.13,505.395 1834.17,505.496 1835.22,452.815 1836.26,452.828 1837.3,446.265 1838.35,446.395 1839.39,481.528 1840.43,481.98 1841.48,450.539 1842.52,450.568 1843.56,465.641 1844.61,465.68 1845.65,453.891 1846.69,454.077 1847.74,448.275 1848.78,448.296 1849.83,448.506 1850.87,448.569 1851.91,461.172 1852.96,461.176 1854,463.61 1855.04,464.163 1856.09,441.26 1857.13,441.38 1858.17,455.482 1859.22,455.602 1860.26,452.846 1861.3,452.868 1862.35,420.588 1863.39,420.805 1864.43,422.997 1865.48,423.094 1866.52,446.893 1867.56,447.007 1868.61,446.986 1869.65,447.064 1870.69,456.802 1871.74,456.867 1872.78,423.151 1873.82,424.425 1874.87,455.155 1875.91,455.953 1876.95,442.114 1878,442.17 1879.04,451.06 1880.08,451.083 1881.13,448.991 1882.17,449.276 1883.21,444.742 1884.26,445.386 1885.3,423.215 1886.35,423.317 1887.39,427.916 1888.43,428.034 1889.48,459.661 1890.52,459.668 1891.56,446.873 1892.61,447.427 1893.65,432.064 1894.69,432.243 1895.74,432.243 1896.78,432.497 1897.82,467.66 1898.87,467.674 1899.91,541.327 1900.95,541.538 1902,421.388 1903.04,422.24 1904.08,443.641 1905.13,443.886 1906.17,459.259 1907.21,459.365 1908.26,483.224 1909.3,483.24 1910.34,427.31 1911.39,427.588 1912.43,423.23 1913.47,423.377 1914.52,427.148 1915.56,427.307 1916.6,424.045 1917.65,424.119 1918.69,437.497 1919.73,437.805 1920.78,448.446 1921.82,448.504 1922.86,281.117 1923.91,281.823 1924.95,447.932 1926,448.013 1927.04,431.008 1928.08,431.242 1929.13,455.718 1930.17,455.965 1931.21,249.855 1932.26,250.16 1933.3,426.253 1934.34,426.357 1935.39,466.551 1936.43,466.631 1937.47,491.996 1938.52,492.015 1939.56,425.178 1940.6,425.194 1941.65,498.419 1942.69,498.444 1943.73,449.242 1944.78,449.269 1945.82,424.588 1946.86,424.687 1947.91,450.661 1948.95,450.929 1949.99,434.468 1951.04,434.472 1952.08,425.841 1953.12,425.854 1954.17,435.942 1955.21,436.061 1956.25,426.58 1957.3,426.607 1958.34,433.027 1959.38,433.121 1960.43,454.493 1961.47,455.357 1962.52,426.219 1963.56,426.575 1964.6,318.141 1965.65,318.295 1966.69,426.899 1967.73,426.986 1968.78,449.255 1969.82,449.293 1970.86,277.181 1971.91,277.34 1972.95,433.108 1973.99,433.195 1975.04,432.418 1976.08,432.673 1977.12,456.91 1978.17,457.482 1979.21,434.852 1980.25,435.247 1981.3,444.529 1982.34,444.698 1983.38,423.581 1984.43,423.826 1985.47,492.48 1986.51,492.576 1987.56,460.805 1988.6,461.053 1989.64,439.329 1990.69,439.889 1991.73,481.617 1992.77,482.179 1993.82,459.79 1994.86,459.795 1995.9,480.2 1996.95,481.429 1997.99,486.185 1999.03,486.321 2000.08,423.636 2001.12,423.762 2002.17,444.398 2003.21,444.417 2004.25,436.086 2005.3,436.101 2006.34,427.782 2007.38,427.817 2008.43,425.748 2009.47,426.981 2010.51,87.9763 2011.56,88.8439 2012.6,292.569 2013.64,292.74 2014.69,449.641 2015.73,449.659 2016.77,253.01 2017.82,253.123 2018.86,432.153 2019.9,432.356 2020.95,451.717 2021.99,451.914 2023.03,429.292 2024.08,429.626 2025.12,423.853 2026.16,423.967 2027.21,335.48 2028.25,335.613 2029.29,281.337 2030.34,281.897 2031.38,425.822 2032.42,425.834 2033.47,423.048 2034.51,423.422 2035.55,426.964 2036.6,427.253 2037.64,427.013 2038.69,427.081 2039.73,443.785 2040.77,443.811 2041.82,437.659 2042.86,438.635 2043.9,435.99 2044.95,436.695 2045.99,475.619 2047.03,475.68 2048.08,432.782 2049.12,432.897 2050.16,430.356 2051.21,431.169 2052.25,442.744 2053.29,442.838 2054.34,443.115 2055.38,443.149 2056.42,443.246 2057.47,443.277 2058.51,434.661 2059.55,434.694 2060.6,434.788 2061.64,434.816 2062.68,434.625 2063.73,434.629 2064.77,450.345 2065.81,450.375 2066.86,459.375 2067.9,459.414 2068.94,435.544 2069.99,435.6 2071.03,427.826 2072.07,427.985 2073.12,461.357 2074.16,461.486 2075.2,453.57 2076.25,453.724 2077.29,456.321 2078.34,456.672 2079.38,436.531 2080.42,437.062 2081.47,428.254 2082.51,428.295 2083.55,264.685 2084.6,264.913 2085.64,260.506 2086.68,260.637 2087.73,434.122 2088.77,434.149 2089.81,433.908 2090.86,434.485 2091.9,433.712 2092.94,433.758 2093.99,448.055 2095.03,448.16 2096.07,450.918 2097.12,450.929 2098.16,301.866 2099.2,302.706 2100.25,440.103 2101.29,440.68 2102.33,439.979 2103.38,440.185 2104.42,448.088 2105.46,448.193 2106.51,449.458 2107.55,449.725 2108.59,252.613 2109.64,252.745 2110.68,428.199 2111.72,428.652 2112.77,249.019 2113.81,249.424 2114.86,427.091 2115.9,427.111 2116.94,421.971 2117.99,422.379 2119.03,422.964 2120.07,423.452 2121.12,435.986 2122.16,436.545 2123.2,460.841 2124.25,460.99 2125.29,251.326 2126.33,251.566 2127.38,426.385 2128.42,426.396 2129.46,435.747 2130.51,435.79 2131.55,436.613 2132.59,436.706 2133.64,436.968 2134.68,437.045 2135.72,130.755 2136.77,132.072 2137.81,457.315 2138.85,457.423 2139.9,456.584 2140.94,457.013 2141.98,450.102 2143.03,450.115 2144.07,450.155 2145.11,450.167 2146.16,286.554 2147.2,286.761 2148.24,426.892 2149.29,427.529 2150.33,450.678 2151.37,450.692 2152.42,452.377 2153.46,452.561 2154.51,444.362 2155.55,444.421 2156.59,278.85 2157.64,278.952 2158.68,515.835 2159.72,515.853 2160.77,431.554 2161.81,431.784 2162.85,257.656 2163.9,258.071 2164.94,426.972 2165.98,426.985 2167.03,458.635 2168.07,458.643 2169.11,441.028 2170.16,441.135 2171.2,452.222 2172.24,452.301 2173.29,465.753 2174.33,465.824 2175.37,280.811 2176.42,280.966 2177.46,436.516 2178.5,436.582 2179.55,456.21 2180.59,456.715 2181.63,420.682 2182.68,421.078 2183.72,443.819 2184.76,443.838 2185.81,450.716 2186.85,450.727 2187.89,470.509 2188.94,470.644 2189.98,498.089 2191.03,498.488 2192.07,309.175 2193.11,309.405 2194.16,509.695 2195.2,510.214 2196.24,414.923 2197.29,415.688 2198.33,439.821 2199.37,440.754 2200.42,438.106 2201.46,438.214 2202.5,442.833 2203.55,442.864 2204.59,450.645 2205.63,450.659 2206.68,499.128 2207.72,499.14 2208.76,441.856 2209.81,441.921 2210.85,465.822 2211.89,465.904 2212.94,435.104 2213.98,435.108 2215.02,460.626 2216.07,460.663 2217.11,430.363 2218.15,430.746 2219.2,253.978 2220.24,254.083 2221.28,299.185 2222.33,299.683 2223.37,448.766 2224.41,448.841 2225.46,424.442 2226.5,424.54 2227.54,458.885 2228.59,458.89 2229.63,433.046 2230.68,433.153 2231.72,482.869 2232.76,482.875 2233.81,426.693 2234.85,426.72 2235.89,458.406 2236.94,458.423 2237.98,422.339 2239.02,423.246 2240.07,434.444 2241.11,434.551 2242.15,459.1 2243.2,459.227 2244.24,252.103 2245.28,252.946 2246.33,426.661 2247.37,426.98 2248.41,443.155 2249.46,443.172 2250.5,449.049 2251.54,449.653 2252.59,458.747 2253.63,458.751 2254.67,474.405 2255.72,474.416 2256.76,451.524 2257.8,451.763 2258.85,459.712 2259.89,460.049 2260.93,424.997 2261.98,425.105 2263.02,426.028 2264.06,426.041 2265.11,474.745 2266.15,474.761 2267.2,261.857 2268.24,262.001 2269.28,426.069 2270.33,426.081 2271.37,483.079 2272.41,483.083 2273.46,424.51 2274.5,425.266 2275.54,436.308 2276.59,437.484 2277.63,492.421 2278.67,492.447 2279.72,354.544 2280.76,354.948 2281.8,462.895 2282.85,463.053 2283.89,428.385 2284.93,428.408 2285.98,429.203 2287.02,431.303 2288.06,254.848 2289.11,254.959 2290.15,255.07 "/>
<path clip-path="url(#clip720)" d="M2005.38 1438.47 L2279.02 1438.47 L2279.02 1334.79 L2005.38 1334.79  Z" fill="#ffffff" fill-rule="evenodd" fill-opacity="1"/>
<polyline clip-path="url(#clip720)" style="stroke:#000000; stroke-linecap:round; stroke-linejoin:round; stroke-width:4; stroke-opacity:1; fill:none" points="2005.38,1438.47 2279.02,1438.47 2279.02,1334.79 2005.38,1334.79 2005.38,1438.47 "/>
<polyline clip-path="url(#clip720)" style="stroke:#009af9; stroke-linecap:round; stroke-linejoin:round; stroke-width:4; stroke-opacity:1; fill:none" points="2029.96,1386.63 2177.43,1386.63 "/>
<path clip-path="url(#clip720)" d="M2215.85 1406.32 Q2214.05 1410.95 2212.34 1412.36 Q2210.62 1413.78 2207.75 1413.78 L2204.35 1413.78 L2204.35 1410.21 L2206.85 1410.21 Q2208.61 1410.21 2209.58 1409.38 Q2210.55 1408.54 2211.73 1405.44 L2212.5 1403.5 L2202.01 1377.99 L2206.53 1377.99 L2214.63 1398.27 L2222.73 1377.99 L2227.24 1377.99 L2215.85 1406.32 Z" fill="#000000" fill-rule="nonzero" fill-opacity="1" /><path clip-path="url(#clip720)" d="M2234.53 1399.98 L2242.17 1399.98 L2242.17 1373.61 L2233.86 1375.28 L2233.86 1371.02 L2242.13 1369.35 L2246.8 1369.35 L2246.8 1399.98 L2254.44 1399.98 L2254.44 1403.91 L2234.53 1403.91 L2234.53 1399.98 Z" fill="#000000" fill-rule="nonzero" fill-opacity="1" /></svg>
