<?xml version="1.0" encoding="utf-8"?>
<svg xmlns="http://www.w3.org/2000/svg" xmlns:xlink="http://www.w3.org/1999/xlink" width="600" height="400" viewBox="0 0 2400 1600">
<defs>
  <clipPath id="clip660">
    <rect x="0" y="0" width="2400" height="1600"/>
  </clipPath>
</defs>
<path clip-path="url(#clip660)" d="M0 1600 L2400 1600 L2400 0 L0 0  Z" fill="#ffffff" fill-rule="evenodd" fill-opacity="1"/>
<defs>
  <clipPath id="clip661">
    <rect x="480" y="0" width="1681" height="1600"/>
  </clipPath>
</defs>
<path clip-path="url(#clip660)" d="M156.112 1486.45 L2352.76 1486.45 L2352.76 47.2441 L156.112 47.2441  Z" fill="#ffffff" fill-rule="evenodd" fill-opacity="1"/>
<defs>
  <clipPath id="clip662">
    <rect x="156" y="47" width="2198" height="1440"/>
  </clipPath>
</defs>
<polyline clip-path="url(#clip662)" style="stroke:#000000; stroke-linecap:round; stroke-linejoin:round; stroke-width:2; stroke-opacity:0.1; fill:none" points="218.281,1486.45 218.281,47.2441 "/>
<polyline clip-path="url(#clip662)" style="stroke:#000000; stroke-linecap:round; stroke-linejoin:round; stroke-width:2; stroke-opacity:0.1; fill:none" points="736.358,1486.45 736.358,47.2441 "/>
<polyline clip-path="url(#clip662)" style="stroke:#000000; stroke-linecap:round; stroke-linejoin:round; stroke-width:2; stroke-opacity:0.1; fill:none" points="1254.43,1486.45 1254.43,47.2441 "/>
<polyline clip-path="url(#clip662)" style="stroke:#000000; stroke-linecap:round; stroke-linejoin:round; stroke-width:2; stroke-opacity:0.1; fill:none" points="1772.51,1486.45 1772.51,47.2441 "/>
<polyline clip-path="url(#clip662)" style="stroke:#000000; stroke-linecap:round; stroke-linejoin:round; stroke-width:2; stroke-opacity:0.1; fill:none" points="2290.59,1486.45 2290.59,47.2441 "/>
<polyline clip-path="url(#clip660)" style="stroke:#000000; stroke-linecap:round; stroke-linejoin:round; stroke-width:4; stroke-opacity:1; fill:none" points="156.112,1486.45 2352.76,1486.45 "/>
<polyline clip-path="url(#clip660)" style="stroke:#000000; stroke-linecap:round; stroke-linejoin:round; stroke-width:4; stroke-opacity:1; fill:none" points="218.281,1486.45 218.281,1467.55 "/>
<polyline clip-path="url(#clip660)" style="stroke:#000000; stroke-linecap:round; stroke-linejoin:round; stroke-width:4; stroke-opacity:1; fill:none" points="736.358,1486.45 736.358,1467.55 "/>
<polyline clip-path="url(#clip660)" style="stroke:#000000; stroke-linecap:round; stroke-linejoin:round; stroke-width:4; stroke-opacity:1; fill:none" points="1254.43,1486.45 1254.43,1467.55 "/>
<polyline clip-path="url(#clip660)" style="stroke:#000000; stroke-linecap:round; stroke-linejoin:round; stroke-width:4; stroke-opacity:1; fill:none" points="1772.51,1486.45 1772.51,1467.55 "/>
<polyline clip-path="url(#clip660)" style="stroke:#000000; stroke-linecap:round; stroke-linejoin:round; stroke-width:4; stroke-opacity:1; fill:none" points="2290.59,1486.45 2290.59,1467.55 "/>
<path clip-path="url(#clip660)" d="M218.281 1517.37 Q214.67 1517.37 212.842 1520.93 Q211.036 1524.47 211.036 1531.6 Q211.036 1538.71 212.842 1542.27 Q214.67 1545.82 218.281 1545.82 Q221.916 1545.82 223.721 1542.27 Q225.55 1538.71 225.55 1531.6 Q225.55 1524.47 223.721 1520.93 Q221.916 1517.37 218.281 1517.37 M218.281 1513.66 Q224.091 1513.66 227.147 1518.27 Q230.226 1522.85 230.226 1531.6 Q230.226 1540.33 227.147 1544.94 Q224.091 1549.52 218.281 1549.52 Q212.471 1549.52 209.392 1544.94 Q206.337 1540.33 206.337 1531.6 Q206.337 1522.85 209.392 1518.27 Q212.471 1513.66 218.281 1513.66 Z" fill="#000000" fill-rule="nonzero" fill-opacity="1" /><path clip-path="url(#clip660)" d="M695.976 1514.29 L714.332 1514.29 L714.332 1518.22 L700.258 1518.22 L700.258 1526.7 Q701.277 1526.35 702.295 1526.19 Q703.314 1526 704.332 1526 Q710.119 1526 713.499 1529.17 Q716.879 1532.34 716.879 1537.76 Q716.879 1543.34 713.406 1546.44 Q709.934 1549.52 703.615 1549.52 Q701.439 1549.52 699.17 1549.15 Q696.925 1548.78 694.518 1548.04 L694.518 1543.34 Q696.601 1544.47 698.823 1545.03 Q701.045 1545.58 703.522 1545.58 Q707.527 1545.58 709.865 1543.48 Q712.203 1541.37 712.203 1537.76 Q712.203 1534.15 709.865 1532.04 Q707.527 1529.94 703.522 1529.94 Q701.647 1529.94 699.772 1530.35 Q697.92 1530.77 695.976 1531.65 L695.976 1514.29 Z" fill="#000000" fill-rule="nonzero" fill-opacity="1" /><path clip-path="url(#clip660)" d="M736.091 1517.37 Q732.48 1517.37 730.652 1520.93 Q728.846 1524.47 728.846 1531.6 Q728.846 1538.71 730.652 1542.27 Q732.48 1545.82 736.091 1545.82 Q739.726 1545.82 741.531 1542.27 Q743.36 1538.71 743.36 1531.6 Q743.36 1524.47 741.531 1520.93 Q739.726 1517.37 736.091 1517.37 M736.091 1513.66 Q741.902 1513.66 744.957 1518.27 Q748.036 1522.85 748.036 1531.6 Q748.036 1540.33 744.957 1544.94 Q741.902 1549.52 736.091 1549.52 Q730.281 1549.52 727.203 1544.94 Q724.147 1540.33 724.147 1531.6 Q724.147 1522.85 727.203 1518.27 Q730.281 1513.66 736.091 1513.66 Z" fill="#000000" fill-rule="nonzero" fill-opacity="1" /><path clip-path="url(#clip660)" d="M766.253 1517.37 Q762.642 1517.37 760.814 1520.93 Q759.008 1524.47 759.008 1531.6 Q759.008 1538.71 760.814 1542.27 Q762.642 1545.82 766.253 1545.82 Q769.888 1545.82 771.693 1542.27 Q773.522 1538.71 773.522 1531.6 Q773.522 1524.47 771.693 1520.93 Q769.888 1517.37 766.253 1517.37 M766.253 1513.66 Q772.063 1513.66 775.119 1518.27 Q778.198 1522.85 778.198 1531.6 Q778.198 1540.33 775.119 1544.94 Q772.063 1549.52 766.253 1549.52 Q760.443 1549.52 757.364 1544.94 Q754.309 1540.33 754.309 1531.6 Q754.309 1522.85 757.364 1518.27 Q760.443 1513.66 766.253 1513.66 Z" fill="#000000" fill-rule="nonzero" fill-opacity="1" /><path clip-path="url(#clip660)" d="M1198.96 1544.91 L1206.6 1544.91 L1206.6 1518.55 L1198.29 1520.21 L1198.29 1515.95 L1206.55 1514.29 L1211.23 1514.29 L1211.23 1544.91 L1218.87 1544.91 L1218.87 1548.85 L1198.96 1548.85 L1198.96 1544.91 Z" fill="#000000" fill-rule="nonzero" fill-opacity="1" /><path clip-path="url(#clip660)" d="M1238.31 1517.37 Q1234.7 1517.37 1232.87 1520.93 Q1231.07 1524.47 1231.07 1531.6 Q1231.07 1538.71 1232.87 1542.27 Q1234.7 1545.82 1238.31 1545.82 Q1241.95 1545.82 1243.75 1542.27 Q1245.58 1538.71 1245.58 1531.6 Q1245.58 1524.47 1243.75 1520.93 Q1241.95 1517.37 1238.31 1517.37 M1238.31 1513.66 Q1244.12 1513.66 1247.18 1518.27 Q1250.26 1522.85 1250.26 1531.6 Q1250.26 1540.33 1247.18 1544.94 Q1244.12 1549.52 1238.31 1549.52 Q1232.5 1549.52 1229.42 1544.94 Q1226.37 1540.33 1226.37 1531.6 Q1226.37 1522.85 1229.42 1518.27 Q1232.5 1513.66 1238.31 1513.66 Z" fill="#000000" fill-rule="nonzero" fill-opacity="1" /><path clip-path="url(#clip660)" d="M1268.47 1517.37 Q1264.86 1517.37 1263.03 1520.93 Q1261.23 1524.47 1261.23 1531.6 Q1261.23 1538.71 1263.03 1542.27 Q1264.86 1545.82 1268.47 1545.82 Q1272.11 1545.82 1273.91 1542.27 Q1275.74 1538.71 1275.74 1531.6 Q1275.74 1524.47 1273.91 1520.93 Q1272.11 1517.37 1268.47 1517.37 M1268.47 1513.66 Q1274.28 1513.66 1277.34 1518.27 Q1280.42 1522.85 1280.42 1531.6 Q1280.42 1540.33 1277.34 1544.94 Q1274.28 1549.52 1268.47 1549.52 Q1262.66 1549.52 1259.58 1544.94 Q1256.53 1540.33 1256.53 1531.6 Q1256.53 1522.85 1259.58 1518.27 Q1262.66 1513.66 1268.47 1513.66 Z" fill="#000000" fill-rule="nonzero" fill-opacity="1" /><path clip-path="url(#clip660)" d="M1298.64 1517.37 Q1295.02 1517.37 1293.2 1520.93 Q1291.39 1524.47 1291.39 1531.6 Q1291.39 1538.71 1293.2 1542.27 Q1295.02 1545.82 1298.64 1545.82 Q1302.27 1545.82 1304.07 1542.27 Q1305.9 1538.71 1305.9 1531.6 Q1305.9 1524.47 1304.07 1520.93 Q1302.27 1517.37 1298.64 1517.37 M1298.64 1513.66 Q1304.45 1513.66 1307.5 1518.27 Q1310.58 1522.85 1310.58 1531.6 Q1310.58 1540.33 1307.5 1544.94 Q1304.45 1549.52 1298.64 1549.52 Q1292.83 1549.52 1289.75 1544.94 Q1286.69 1540.33 1286.69 1531.6 Q1286.69 1522.85 1289.75 1518.27 Q1292.83 1513.66 1298.64 1513.66 Z" fill="#000000" fill-rule="nonzero" fill-opacity="1" /><path clip-path="url(#clip660)" d="M1717.04 1544.91 L1724.67 1544.91 L1724.67 1518.55 L1716.36 1520.21 L1716.36 1515.95 L1724.63 1514.29 L1729.3 1514.29 L1729.3 1544.91 L1736.94 1544.91 L1736.94 1548.85 L1717.04 1548.85 L1717.04 1544.91 Z" fill="#000000" fill-rule="nonzero" fill-opacity="1" /><path clip-path="url(#clip660)" d="M1746.43 1514.29 L1764.79 1514.29 L1764.79 1518.22 L1750.72 1518.22 L1750.72 1526.7 Q1751.74 1526.35 1752.75 1526.19 Q1753.77 1526 1754.79 1526 Q1760.58 1526 1763.96 1529.17 Q1767.34 1532.34 1767.34 1537.76 Q1767.34 1543.34 1763.86 1546.44 Q1760.39 1549.52 1754.07 1549.52 Q1751.9 1549.52 1749.63 1549.15 Q1747.38 1548.78 1744.98 1548.04 L1744.98 1543.34 Q1747.06 1544.47 1749.28 1545.03 Q1751.5 1545.58 1753.98 1545.58 Q1757.98 1545.58 1760.32 1543.48 Q1762.66 1541.37 1762.66 1537.76 Q1762.66 1534.15 1760.32 1532.04 Q1757.98 1529.94 1753.98 1529.94 Q1752.11 1529.94 1750.23 1530.35 Q1748.38 1530.77 1746.43 1531.65 L1746.43 1514.29 Z" fill="#000000" fill-rule="nonzero" fill-opacity="1" /><path clip-path="url(#clip660)" d="M1786.55 1517.37 Q1782.94 1517.37 1781.11 1520.93 Q1779.3 1524.47 1779.3 1531.6 Q1779.3 1538.71 1781.11 1542.27 Q1782.94 1545.82 1786.55 1545.82 Q1790.18 1545.82 1791.99 1542.27 Q1793.82 1538.71 1793.82 1531.6 Q1793.82 1524.47 1791.99 1520.93 Q1790.18 1517.37 1786.55 1517.37 M1786.55 1513.66 Q1792.36 1513.66 1795.42 1518.27 Q1798.49 1522.85 1798.49 1531.6 Q1798.49 1540.33 1795.42 1544.94 Q1792.36 1549.52 1786.55 1549.52 Q1780.74 1549.52 1777.66 1544.94 Q1774.61 1540.33 1774.61 1531.6 Q1774.61 1522.85 1777.66 1518.27 Q1780.74 1513.66 1786.55 1513.66 Z" fill="#000000" fill-rule="nonzero" fill-opacity="1" /><path clip-path="url(#clip660)" d="M1816.71 1517.37 Q1813.1 1517.37 1811.27 1520.93 Q1809.47 1524.47 1809.47 1531.6 Q1809.47 1538.71 1811.27 1542.27 Q1813.1 1545.82 1816.71 1545.82 Q1820.35 1545.82 1822.15 1542.27 Q1823.98 1538.71 1823.98 1531.6 Q1823.98 1524.47 1822.15 1520.93 Q1820.35 1517.37 1816.71 1517.37 M1816.71 1513.66 Q1822.52 1513.66 1825.58 1518.27 Q1828.66 1522.85 1828.66 1531.6 Q1828.66 1540.33 1825.58 1544.94 Q1822.52 1549.52 1816.71 1549.52 Q1810.9 1549.52 1807.82 1544.94 Q1804.77 1540.33 1804.77 1531.6 Q1804.77 1522.85 1807.82 1518.27 Q1810.9 1513.66 1816.71 1513.66 Z" fill="#000000" fill-rule="nonzero" fill-opacity="1" /><path clip-path="url(#clip660)" d="M2239.2 1544.91 L2255.52 1544.91 L2255.52 1548.85 L2233.57 1548.85 L2233.57 1544.91 Q2236.24 1542.16 2240.82 1537.53 Q2245.42 1532.88 2246.61 1531.53 Q2248.85 1529.01 2249.73 1527.27 Q2250.63 1525.51 2250.63 1523.82 Q2250.63 1521.07 2248.69 1519.33 Q2246.77 1517.6 2243.67 1517.6 Q2241.47 1517.6 2239.01 1518.36 Q2236.58 1519.13 2233.8 1520.68 L2233.8 1515.95 Q2236.63 1514.82 2239.08 1514.24 Q2241.54 1513.66 2243.57 1513.66 Q2248.94 1513.66 2252.14 1516.35 Q2255.33 1519.03 2255.33 1523.52 Q2255.33 1525.65 2254.52 1527.57 Q2253.74 1529.47 2251.63 1532.07 Q2251.05 1532.74 2247.95 1535.95 Q2244.85 1539.15 2239.2 1544.91 Z" fill="#000000" fill-rule="nonzero" fill-opacity="1" /><path clip-path="url(#clip660)" d="M2275.33 1517.37 Q2271.72 1517.37 2269.89 1520.93 Q2268.09 1524.47 2268.09 1531.6 Q2268.09 1538.71 2269.89 1542.27 Q2271.72 1545.82 2275.33 1545.82 Q2278.97 1545.82 2280.77 1542.27 Q2282.6 1538.71 2282.6 1531.6 Q2282.6 1524.47 2280.77 1520.93 Q2278.97 1517.37 2275.33 1517.37 M2275.33 1513.66 Q2281.14 1513.66 2284.2 1518.27 Q2287.28 1522.85 2287.28 1531.6 Q2287.28 1540.33 2284.2 1544.94 Q2281.14 1549.52 2275.33 1549.52 Q2269.52 1549.52 2266.44 1544.94 Q2263.39 1540.33 2263.39 1531.6 Q2263.39 1522.85 2266.44 1518.27 Q2269.52 1513.66 2275.33 1513.66 Z" fill="#000000" fill-rule="nonzero" fill-opacity="1" /><path clip-path="url(#clip660)" d="M2305.49 1517.37 Q2301.88 1517.37 2300.05 1520.93 Q2298.25 1524.47 2298.25 1531.6 Q2298.25 1538.71 2300.05 1542.27 Q2301.88 1545.82 2305.49 1545.82 Q2309.13 1545.82 2310.93 1542.27 Q2312.76 1538.71 2312.76 1531.6 Q2312.76 1524.47 2310.93 1520.93 Q2309.13 1517.37 2305.49 1517.37 M2305.49 1513.66 Q2311.3 1513.66 2314.36 1518.27 Q2317.44 1522.85 2317.44 1531.6 Q2317.44 1540.33 2314.36 1544.94 Q2311.3 1549.52 2305.49 1549.52 Q2299.68 1549.52 2296.61 1544.94 Q2293.55 1540.33 2293.55 1531.6 Q2293.55 1522.85 2296.61 1518.27 Q2299.68 1513.66 2305.49 1513.66 Z" fill="#000000" fill-rule="nonzero" fill-opacity="1" /><path clip-path="url(#clip660)" d="M2335.66 1517.37 Q2332.04 1517.37 2330.22 1520.93 Q2328.41 1524.47 2328.41 1531.6 Q2328.41 1538.71 2330.22 1542.27 Q2332.04 1545.82 2335.66 1545.82 Q2339.29 1545.82 2341.1 1542.27 Q2342.92 1538.71 2342.92 1531.6 Q2342.92 1524.47 2341.1 1520.93 Q2339.29 1517.37 2335.66 1517.37 M2335.66 1513.66 Q2341.47 1513.66 2344.52 1518.27 Q2347.6 1522.85 2347.6 1531.6 Q2347.6 1540.33 2344.52 1544.94 Q2341.47 1549.52 2335.66 1549.52 Q2329.85 1549.52 2326.77 1544.94 Q2323.71 1540.33 2323.71 1531.6 Q2323.71 1522.85 2326.77 1518.27 Q2329.85 1513.66 2335.66 1513.66 Z" fill="#000000" fill-rule="nonzero" fill-opacity="1" /><polyline clip-path="url(#clip662)" style="stroke:#000000; stroke-linecap:round; stroke-linejoin:round; stroke-width:2; stroke-opacity:0.1; fill:none" points="156.112,1456.1 2352.76,1456.1 "/>
<polyline clip-path="url(#clip662)" style="stroke:#000000; stroke-linecap:round; stroke-linejoin:round; stroke-width:2; stroke-opacity:0.1; fill:none" points="156.112,1102.83 2352.76,1102.83 "/>
<polyline clip-path="url(#clip662)" style="stroke:#000000; stroke-linecap:round; stroke-linejoin:round; stroke-width:2; stroke-opacity:0.1; fill:none" points="156.112,749.551 2352.76,749.551 "/>
<polyline clip-path="url(#clip662)" style="stroke:#000000; stroke-linecap:round; stroke-linejoin:round; stroke-width:2; stroke-opacity:0.1; fill:none" points="156.112,396.274 2352.76,396.274 "/>
<polyline clip-path="url(#clip660)" style="stroke:#000000; stroke-linecap:round; stroke-linejoin:round; stroke-width:4; stroke-opacity:1; fill:none" points="156.112,1486.45 156.112,47.2441 "/>
<polyline clip-path="url(#clip660)" style="stroke:#000000; stroke-linecap:round; stroke-linejoin:round; stroke-width:4; stroke-opacity:1; fill:none" points="156.112,1456.1 175.01,1456.1 "/>
<polyline clip-path="url(#clip660)" style="stroke:#000000; stroke-linecap:round; stroke-linejoin:round; stroke-width:4; stroke-opacity:1; fill:none" points="156.112,1102.83 175.01,1102.83 "/>
<polyline clip-path="url(#clip660)" style="stroke:#000000; stroke-linecap:round; stroke-linejoin:round; stroke-width:4; stroke-opacity:1; fill:none" points="156.112,749.551 175.01,749.551 "/>
<polyline clip-path="url(#clip660)" style="stroke:#000000; stroke-linecap:round; stroke-linejoin:round; stroke-width:4; stroke-opacity:1; fill:none" points="156.112,396.274 175.01,396.274 "/>
<path clip-path="url(#clip660)" d="M62.9365 1441.9 Q59.3254 1441.9 57.4967 1445.47 Q55.6912 1449.01 55.6912 1456.14 Q55.6912 1463.25 57.4967 1466.81 Q59.3254 1470.35 62.9365 1470.35 Q66.5707 1470.35 68.3763 1466.81 Q70.205 1463.25 70.205 1456.14 Q70.205 1449.01 68.3763 1445.47 Q66.5707 1441.9 62.9365 1441.9 M62.9365 1438.2 Q68.7467 1438.2 71.8022 1442.81 Q74.8809 1447.39 74.8809 1456.14 Q74.8809 1464.87 71.8022 1469.47 Q68.7467 1474.06 62.9365 1474.06 Q57.1264 1474.06 54.0477 1469.47 Q50.9921 1464.87 50.9921 1456.14 Q50.9921 1447.39 54.0477 1442.81 Q57.1264 1438.2 62.9365 1438.2 Z" fill="#000000" fill-rule="nonzero" fill-opacity="1" /><path clip-path="url(#clip660)" d="M83.0984 1467.5 L87.9827 1467.5 L87.9827 1473.38 L83.0984 1473.38 L83.0984 1467.5 Z" fill="#000000" fill-rule="nonzero" fill-opacity="1" /><path clip-path="url(#clip660)" d="M108.168 1441.9 Q104.557 1441.9 102.728 1445.47 Q100.922 1449.01 100.922 1456.14 Q100.922 1463.25 102.728 1466.81 Q104.557 1470.35 108.168 1470.35 Q111.802 1470.35 113.608 1466.81 Q115.436 1463.25 115.436 1456.14 Q115.436 1449.01 113.608 1445.47 Q111.802 1441.9 108.168 1441.9 M108.168 1438.2 Q113.978 1438.2 117.033 1442.81 Q120.112 1447.39 120.112 1456.14 Q120.112 1464.87 117.033 1469.47 Q113.978 1474.06 108.168 1474.06 Q102.358 1474.06 99.2789 1469.47 Q96.2234 1464.87 96.2234 1456.14 Q96.2234 1447.39 99.2789 1442.81 Q102.358 1438.2 108.168 1438.2 Z" fill="#000000" fill-rule="nonzero" fill-opacity="1" /><path clip-path="url(#clip660)" d="M64.1634 1088.63 Q60.5523 1088.63 58.7236 1092.19 Q56.918 1095.73 56.918 1102.86 Q56.918 1109.97 58.7236 1113.53 Q60.5523 1117.08 64.1634 1117.08 Q67.7976 1117.08 69.6031 1113.53 Q71.4318 1109.97 71.4318 1102.86 Q71.4318 1095.73 69.6031 1092.19 Q67.7976 1088.63 64.1634 1088.63 M64.1634 1084.92 Q69.9735 1084.92 73.029 1089.53 Q76.1077 1094.11 76.1077 1102.86 Q76.1077 1111.59 73.029 1116.2 Q69.9735 1120.78 64.1634 1120.78 Q58.3532 1120.78 55.2745 1116.2 Q52.219 1111.59 52.219 1102.86 Q52.219 1094.11 55.2745 1089.53 Q58.3532 1084.92 64.1634 1084.92 Z" fill="#000000" fill-rule="nonzero" fill-opacity="1" /><path clip-path="url(#clip660)" d="M84.3253 1114.23 L89.2095 1114.23 L89.2095 1120.11 L84.3253 1120.11 L84.3253 1114.23 Z" fill="#000000" fill-rule="nonzero" fill-opacity="1" /><path clip-path="url(#clip660)" d="M100.205 1116.17 L107.844 1116.17 L107.844 1089.81 L99.5335 1091.47 L99.5335 1087.21 L107.797 1085.55 L112.473 1085.55 L112.473 1116.17 L120.112 1116.17 L120.112 1120.11 L100.205 1120.11 L100.205 1116.17 Z" fill="#000000" fill-rule="nonzero" fill-opacity="1" /><path clip-path="url(#clip660)" d="M64.5337 735.349 Q60.9226 735.349 59.0939 738.914 Q57.2884 742.456 57.2884 749.585 Q57.2884 756.692 59.0939 760.257 Q60.9226 763.798 64.5337 763.798 Q68.168 763.798 69.9735 760.257 Q71.8022 756.692 71.8022 749.585 Q71.8022 742.456 69.9735 738.914 Q68.168 735.349 64.5337 735.349 M64.5337 731.646 Q70.3439 731.646 73.3994 736.252 Q76.4781 740.835 76.4781 749.585 Q76.4781 758.312 73.3994 762.919 Q70.3439 767.502 64.5337 767.502 Q58.7236 767.502 55.6449 762.919 Q52.5893 758.312 52.5893 749.585 Q52.5893 740.835 55.6449 736.252 Q58.7236 731.646 64.5337 731.646 Z" fill="#000000" fill-rule="nonzero" fill-opacity="1" /><path clip-path="url(#clip660)" d="M84.6956 760.951 L89.5799 760.951 L89.5799 766.831 L84.6956 766.831 L84.6956 760.951 Z" fill="#000000" fill-rule="nonzero" fill-opacity="1" /><path clip-path="url(#clip660)" d="M103.793 762.895 L120.112 762.895 L120.112 766.831 L98.1678 766.831 L98.1678 762.895 Q100.83 760.141 105.413 755.511 Q110.02 750.859 111.2 749.516 Q113.445 746.993 114.325 745.257 Q115.228 743.497 115.228 741.808 Q115.228 739.053 113.283 737.317 Q111.362 735.581 108.26 735.581 Q106.061 735.581 103.608 736.345 Q101.177 737.109 98.3993 738.659 L98.3993 733.937 Q101.223 732.803 103.677 732.224 Q106.131 731.646 108.168 731.646 Q113.538 731.646 116.733 734.331 Q119.927 737.016 119.927 741.507 Q119.927 743.636 119.117 745.558 Q118.33 747.456 116.223 750.048 Q115.645 750.72 112.543 753.937 Q109.441 757.132 103.793 762.895 Z" fill="#000000" fill-rule="nonzero" fill-opacity="1" /><path clip-path="url(#clip660)" d="M63.5847 382.073 Q59.9736 382.073 58.1449 385.637 Q56.3393 389.179 56.3393 396.309 Q56.3393 403.415 58.1449 406.98 Q59.9736 410.521 63.5847 410.521 Q67.2189 410.521 69.0244 406.98 Q70.8531 403.415 70.8531 396.309 Q70.8531 389.179 69.0244 385.637 Q67.2189 382.073 63.5847 382.073 M63.5847 378.369 Q69.3948 378.369 72.4503 382.975 Q75.529 387.559 75.529 396.309 Q75.529 405.035 72.4503 409.642 Q69.3948 414.225 63.5847 414.225 Q57.7745 414.225 54.6958 409.642 Q51.6403 405.035 51.6403 396.309 Q51.6403 387.559 54.6958 382.975 Q57.7745 378.369 63.5847 378.369 Z" fill="#000000" fill-rule="nonzero" fill-opacity="1" /><path clip-path="url(#clip660)" d="M83.7466 407.674 L88.6308 407.674 L88.6308 413.554 L83.7466 413.554 L83.7466 407.674 Z" fill="#000000" fill-rule="nonzero" fill-opacity="1" /><path clip-path="url(#clip660)" d="M112.983 394.92 Q116.339 395.637 118.214 397.906 Q120.112 400.174 120.112 403.508 Q120.112 408.623 116.594 411.424 Q113.075 414.225 106.594 414.225 Q104.418 414.225 102.103 413.785 Q99.8113 413.369 97.3576 412.512 L97.3576 407.998 Q99.3021 409.133 101.617 409.711 Q103.932 410.29 106.455 410.29 Q110.853 410.29 113.145 408.554 Q115.459 406.818 115.459 403.508 Q115.459 400.452 113.307 398.739 Q111.177 397.003 107.358 397.003 L103.33 397.003 L103.33 393.16 L107.543 393.16 Q110.992 393.16 112.82 391.795 Q114.649 390.406 114.649 387.813 Q114.649 385.151 112.751 383.739 Q110.876 382.304 107.358 382.304 Q105.436 382.304 103.237 382.721 Q101.038 383.137 98.3993 384.017 L98.3993 379.85 Q101.061 379.11 103.376 378.739 Q105.714 378.369 107.774 378.369 Q113.098 378.369 116.2 380.799 Q119.302 383.207 119.302 387.327 Q119.302 390.198 117.658 392.188 Q116.015 394.156 112.983 394.92 Z" fill="#000000" fill-rule="nonzero" fill-opacity="1" /><polyline clip-path="url(#clip662)" style="stroke:#009af9; stroke-linecap:round; stroke-linejoin:round; stroke-width:4; stroke-opacity:1; fill:none" points="218.281,87.9763 219.317,119.763 220.354,150.531 221.39,180.315 222.426,209.152 223.462,237.074 224.498,264.115 225.534,290.306 226.571,315.679 227.607,340.261 228.643,364.083 229.679,387.171 230.715,409.552 231.751,431.252 232.787,452.294 233.824,472.703 234.86,492.501 235.896,511.71 236.932,530.351 237.968,548.444 239.004,566.01 240.04,583.066 241.077,599.631 242.113,615.722 243.149,631.355 244.185,646.547 245.221,661.313 246.257,675.668 247.294,689.626 248.33,703.201 249.366,716.406 250.402,729.253 251.438,741.755 252.474,753.923 253.51,765.769 254.547,777.303 255.583,788.536 256.619,799.478 257.655,810.138 258.691,820.526 259.727,830.65 260.764,840.52 261.8,850.143 262.836,859.527 263.872,868.68 264.908,877.609 265.944,886.322 266.98,894.824 268.017,903.124 269.053,911.226 270.089,919.138 271.125,926.864 272.161,934.411 273.197,941.784 274.234,948.988 275.27,956.028 276.306,962.91 277.342,969.638 278.378,976.216 279.414,982.649 280.45,988.941 281.487,995.096 282.523,1001.12 283.559,1007.01 284.595,1012.78 285.631,1018.42 286.667,1023.95 287.704,1029.36 288.74,1034.66 289.776,1039.85 290.812,1044.94 291.848,1049.92 292.884,1054.8 293.92,1059.59 294.957,1064.28 295.993,1068.87 297.029,1073.38 298.065,1077.8 299.101,1082.13 300.137,1086.39 301.174,1090.55 302.21,1094.65 303.246,1098.66 304.282,1102.6 305.318,1106.47 306.354,1110.26 307.39,1113.99 308.427,1117.64 309.463,1121.23 310.499,1124.76 311.535,1128.23 312.571,1131.63 313.607,1134.97 314.643,1138.26 315.68,1141.48 316.716,1144.66 317.752,1147.77 318.788,1150.84 319.824,1153.85 320.86,1156.81 321.897,1159.72 322.933,1162.59 323.969,1165.4 325.005,1168.17 326.041,1170.9 327.077,1173.58 328.113,1176.22 329.15,1178.81 330.186,1181.37 331.222,1183.88 332.258,1186.36 333.294,1188.79 334.33,1191.19 335.367,1193.55 336.403,1195.87 337.439,1198.16 338.475,1200.42 339.511,1202.63 340.547,1204.82 341.583,1206.98 342.62,1209.1 343.656,1211.19 344.692,1213.25 345.728,1215.28 346.764,1217.28 347.8,1219.25 348.837,1221.19 349.873,1223.11 350.909,1225 351.945,1226.86 352.981,1228.69 354.017,1230.5 355.053,1232.29 356.09,1234.05 357.126,1235.79 358.162,1237.5 359.198,1239.19 360.234,1240.85 361.27,1242.5 362.307,1244.12 363.343,1245.72 364.379,1247.3 365.415,1248.86 366.451,1250.4 367.487,1251.91 368.523,1253.41 369.56,1254.89 370.596,1256.35 371.632,1257.79 372.668,1259.22 373.704,1260.62 374.74,1262.01 375.777,1263.38 376.813,1264.73 377.849,1266.07 378.885,1267.39 379.921,1268.69 380.957,1269.98 381.993,1271.25 383.03,1272.51 384.066,1273.75 385.102,1274.98 386.138,1276.19 387.174,1277.39 388.21,1278.57 389.246,1279.74 390.283,1280.9 391.319,1282.04 392.355,1283.17 393.391,1284.29 394.427,1285.39 395.463,1286.48 396.5,1287.56 397.536,1288.63 398.572,1289.68 399.608,1290.73 400.644,1291.76 401.68,1292.78 402.716,1293.78 403.753,1294.78 404.789,1295.77 405.825,1296.74 406.861,1297.71 407.897,1298.66 408.933,1299.61 409.97,1300.54 411.006,1301.47 412.042,1302.38 413.078,1303.29 414.114,1304.18 415.15,1305.07 416.186,1305.95 417.223,1306.81 418.259,1307.67 419.295,1308.52 420.331,1309.36 421.367,1310.2 422.403,1311.02 423.44,1311.84 424.476,1312.64 425.512,1313.44 426.548,1314.24 427.584,1315.02 428.62,1315.8 429.656,1316.56 430.693,1317.32 431.729,1318.08 432.765,1318.82 433.801,1319.56 434.837,1320.29 435.873,1321.02 436.91,1321.74 437.946,1322.45 438.982,1323.15 440.018,1323.85 441.054,1324.54 442.09,1325.22 443.126,1325.9 444.163,1326.57 445.199,1327.24 446.235,1327.9 447.271,1328.55 448.307,1329.2 449.343,1329.84 450.38,1330.47 451.416,1331.1 452.452,1331.73 453.488,1332.34 454.524,1332.96 455.56,1333.56 456.596,1334.17 457.633,1334.76 458.669,1335.35 459.705,1335.94 460.741,1336.52 461.777,1337.1 462.813,1337.67 463.849,1338.23 464.886,1338.79 465.922,1339.35 466.958,1339.9 467.994,1340.45 469.03,1340.99 470.066,1341.53 471.103,1342.06 472.139,1342.59 473.175,1343.11 474.211,1343.63 475.247,1344.14 476.283,1344.66 477.319,1345.16 478.356,1345.66 479.392,1346.16 480.428,1346.66 481.464,1347.15 482.5,1347.63 483.536,1348.11 484.573,1348.59 485.609,1349.07 486.645,1349.54 487.681,1350 488.717,1350.47 489.753,1350.93 490.789,1351.38 491.826,1351.84 492.862,1352.28 493.898,1352.73 494.934,1353.17 495.97,1353.61 497.006,1354.04 498.043,1354.48 499.079,1354.9 500.115,1355.33 501.151,1355.75 502.187,1356.17 503.223,1356.58 504.259,1357 505.296,1357.41 506.332,1357.81 507.368,1358.21 508.404,1358.61 509.44,1359.01 510.476,1359.4 511.513,1359.8 512.549,1360.18 513.585,1360.57 514.621,1360.95 515.657,1361.33 516.693,1361.71 517.729,1362.08 518.766,1362.45 519.802,1362.82 520.838,1363.19 521.874,1363.55 522.91,1363.91 523.946,1364.27 524.982,1364.63 526.019,1364.98 527.055,1365.33 528.091,1365.68 529.127,1366.02 530.163,1366.37 531.199,1366.71 532.236,1367.05 533.272,1367.38 534.308,1367.72 535.344,1368.05 536.38,1368.38 537.416,1368.7 538.452,1369.03 539.489,1369.35 540.525,1369.67 541.561,1369.99 542.597,1370.31 543.633,1370.62 544.669,1370.93 545.706,1371.24 546.742,1371.55 547.778,1371.86 548.814,1372.16 549.85,1372.46 550.886,1372.76 551.922,1373.06 552.959,1373.35 553.995,1373.65 555.031,1373.94 556.067,1374.23 557.103,1374.52 558.139,1374.8 559.176,1375.09 560.212,1375.37 561.248,1375.65 562.284,1375.93 563.32,1376.21 564.356,1376.48 565.392,1376.76 566.429,1377.03 567.465,1377.3 568.501,1377.57 569.537,1377.83 570.573,1378.1 571.609,1378.36 572.646,1378.62 573.682,1378.88 574.718,1379.14 575.754,1379.4 576.79,1379.65 577.826,1379.91 578.862,1380.16 579.899,1380.41 580.935,1380.66 581.971,1380.91 583.007,1381.15 584.043,1381.4 585.079,1381.64 586.116,1381.88 587.152,1382.12 588.188,1382.36 589.224,1382.6 590.26,1382.84 591.296,1383.07 592.332,1383.3 593.369,1383.54 594.405,1383.77 595.441,1384 596.477,1384.22 597.513,1384.45 598.549,1384.67 599.585,1384.9 600.622,1385.12 601.658,1385.34 602.694,1385.56 603.73,1385.78 604.766,1386 605.802,1386.22 606.839,1386.43 607.875,1386.64 608.911,1386.86 609.947,1387.07 610.983,1387.28 612.019,1387.49 613.055,1387.69 614.092,1387.9 615.128,1388.11 616.164,1388.31 617.2,1388.51 618.236,1388.72 619.272,1388.92 620.309,1389.12 621.345,1389.32 622.381,1389.51 623.417,1389.71 624.453,1389.91 625.489,1390.1 626.525,1390.29 627.562,1390.49 628.598,1390.68 629.634,1390.87 630.67,1391.06 631.706,1391.24 632.742,1391.43 633.779,1391.62 634.815,1391.8 635.851,1391.99 636.887,1392.17 637.923,1392.35 638.959,1392.53 639.995,1392.71 641.032,1392.89 642.068,1393.07 643.104,1393.25 644.14,1393.43 645.176,1393.6 646.212,1393.78 647.249,1393.95 648.285,1394.12 649.321,1394.3 650.357,1394.47 651.393,1394.64 652.429,1394.81 653.465,1394.97 654.502,1395.14 655.538,1395.31 656.574,1395.47 657.61,1395.64 658.646,1395.8 659.682,1395.97 660.719,1396.13 661.755,1396.29 662.791,1396.45 663.827,1396.61 664.863,1396.77 665.899,1396.93 666.935,1397.09 667.972,1397.25 669.008,1397.4 670.044,1397.56 671.08,1397.71 672.116,1397.87 673.152,1398.02 674.188,1398.17 675.225,1398.32 676.261,1398.47 677.297,1398.62 678.333,1398.77 679.369,1398.92 680.405,1399.07 681.442,1399.22 682.478,1399.37 683.514,1399.51 684.55,1399.66 685.586,1399.8 686.622,1399.94 687.658,1400.09 688.695,1400.23 689.731,1400.37 690.767,1400.51 691.803,1400.65 692.839,1400.79 693.875,1400.93 694.912,1401.07 695.948,1401.21 696.984,1401.35 698.02,1401.48 699.056,1401.62 700.092,1401.75 701.128,1401.89 702.165,1402.02 703.201,1402.16 704.237,1402.29 705.273,1402.42 706.309,1402.55 707.345,1402.68 708.382,1402.81 709.418,1402.94 710.454,1403.07 711.49,1403.2 712.526,1403.33 713.562,1403.46 714.598,1403.58 715.635,1403.71 716.671,1403.84 717.707,1403.96 718.743,1404.09 719.779,1404.21 720.815,1404.33 721.852,1404.46 722.888,1404.58 723.924,1404.7 724.96,1404.82 725.996,1404.94 727.032,1405.06 728.068,1405.18 729.105,1405.3 730.141,1405.42 731.177,1405.54 732.213,1405.66 733.249,1405.77 734.285,1405.89 735.321,1406.01 736.358,1406.12 737.394,1406.24 738.43,1406.35 739.466,1406.47 740.502,1406.58 741.538,1406.69 742.575,1406.8 743.611,1406.92 744.647,1407.03 745.683,1407.14 746.719,1407.25 747.755,1407.36 748.791,1407.47 749.828,1407.58 750.864,1407.69 751.9,1407.8 752.936,1407.91 753.972,1408.01 755.008,1408.12 756.045,1408.23 757.081,1408.33 758.117,1408.44 759.153,1408.54 760.189,1408.65 761.225,1408.75 762.261,1408.86 763.298,1408.96 764.334,1409.06 765.37,1409.17 766.406,1409.27 767.442,1409.37 768.478,1409.47 769.515,1409.57 770.551,1409.67 771.587,1409.77 772.623,1409.87 773.659,1409.97 774.695,1410.07 775.731,1410.17 776.768,1410.27 777.804,1410.37 778.84,1410.46 779.876,1410.56 780.912,1410.66 781.948,1410.75 782.985,1410.85 784.021,1410.95 785.057,1411.04 786.093,1411.14 787.129,1411.23 788.165,1411.32 789.201,1411.42 790.238,1411.51 791.274,1411.6 792.31,1411.7 793.346,1411.79 794.382,1411.88 795.418,1411.97 796.455,1412.06 797.491,1412.15 798.527,1412.24 799.563,1412.34 800.599,1412.42 801.635,1412.51 802.671,1412.6 803.708,1412.69 804.744,1412.78 805.78,1412.87 806.816,1412.96 807.852,1413.04 808.888,1413.13 809.924,1413.22 810.961,1413.3 811.997,1413.39 813.033,1413.48 814.069,1413.56 815.105,1413.65 816.141,1413.73 817.178,1413.81 818.214,1413.9 819.25,1413.98 820.286,1414.07 821.322,1414.15 822.358,1414.23 823.394,1414.31 824.431,1414.4 825.467,1414.48 826.503,1414.56 827.539,1414.64 828.575,1414.72 829.611,1414.8 830.648,1414.88 831.684,1414.96 832.72,1415.04 833.756,1415.12 834.792,1415.2 835.828,1415.28 836.864,1415.36 837.901,1415.44 838.937,1415.52 839.973,1415.59 841.009,1415.67 842.045,1415.75 843.081,1415.83 844.118,1415.9 845.154,1415.98 846.19,1416.06 847.226,1416.13 848.262,1416.21 849.298,1416.28 850.334,1416.36 851.371,1416.43 852.407,1416.51 853.443,1416.58 854.479,1416.66 855.515,1416.73 856.551,1416.8 857.588,1416.88 858.624,1416.95 859.66,1417.02 860.696,1417.09 861.732,1417.17 862.768,1417.24 863.804,1417.31 864.841,1417.38 865.877,1417.45 866.913,1417.52 867.949,1417.59 868.985,1417.67 870.021,1417.74 871.058,1417.81 872.094,1417.88 873.13,1417.95 874.166,1418.01 875.202,1418.08 876.238,1418.15 877.274,1418.22 878.311,1418.29 879.347,1418.36 880.383,1418.43 881.419,1418.49 882.455,1418.56 883.491,1418.63 884.527,1418.69 885.564,1418.76 886.6,1418.83 887.636,1418.89 888.672,1418.96 889.708,1419.03 890.744,1419.09 891.781,1419.16 892.817,1419.22 893.853,1419.29 894.889,1419.35 895.925,1419.42 896.961,1419.48 897.997,1419.54 899.034,1419.61 900.07,1419.67 901.106,1419.74 902.142,1419.8 903.178,1419.86 904.214,1419.93 905.251,1419.99 906.287,1420.05 907.323,1420.11 908.359,1420.17 909.395,1420.24 910.431,1420.3 911.467,1420.36 912.504,1420.42 913.54,1420.48 914.576,1420.54 915.612,1420.6 916.648,1420.66 917.684,1420.72 918.721,1420.78 919.757,1420.84 920.793,1420.9 921.829,1420.96 922.865,1421.02 923.901,1421.08 924.937,1421.14 925.974,1421.2 927.01,1421.26 928.046,1421.32 929.082,1421.37 930.118,1421.43 931.154,1421.49 932.191,1421.55 933.227,1421.61 934.263,1421.66 935.299,1421.72 936.335,1421.78 937.371,1421.83 938.407,1421.89 939.444,1421.95 940.48,1422 941.516,1422.06 942.552,1422.11 943.588,1422.17 944.624,1422.23 945.661,1422.28 946.697,1422.34 947.733,1422.39 948.769,1422.45 949.805,1422.5 950.841,1422.55 951.877,1422.61 952.914,1422.66 953.95,1422.72 954.986,1422.77 956.022,1422.82 957.058,1422.88 958.094,1422.93 959.13,1422.98 960.167,1423.04 961.203,1423.09 962.239,1423.14 963.275,1423.2 964.311,1423.25 965.347,1423.3 966.384,1423.35 967.42,1423.4 968.456,1423.46 969.492,1423.51 970.528,1423.56 971.564,1423.61 972.6,1423.66 973.637,1423.71 974.673,1423.76 975.709,1423.81 976.745,1423.86 977.781,1423.92 978.817,1423.97 979.854,1424.02 980.89,1424.07 981.926,1424.12 982.962,1424.16 983.998,1424.21 985.034,1424.26 986.07,1424.31 987.107,1424.36 988.143,1424.41 989.179,1424.46 990.215,1424.51 991.251,1424.56 992.287,1424.61 993.324,1424.65 994.36,1424.7 995.396,1424.75 996.432,1424.8 997.468,1424.84 998.504,1424.89 999.54,1424.94 1000.58,1424.99 1001.61,1425.03 1002.65,1425.08 1003.69,1425.13 1004.72,1425.17 1005.76,1425.22 1006.79,1425.27 1007.83,1425.31 1008.87,1425.36 1009.9,1425.41 1010.94,1425.45 1011.97,1425.5 1013.01,1425.54 1014.05,1425.59 1015.08,1425.63 1016.12,1425.68 1017.16,1425.72 1018.19,1425.77 1019.23,1425.81 1020.26,1425.86 1021.3,1425.9 1022.34,1425.95 1023.37,1425.99 1024.41,1426.04 1025.44,1426.08 1026.48,1426.13 1027.52,1426.17 1028.55,1426.21 1029.59,1426.26 1030.63,1426.3 1031.66,1426.34 1032.7,1426.39 1033.73,1426.43 1034.77,1426.47 1035.81,1426.52 1036.84,1426.56 1037.88,1426.6 1038.91,1426.64 1039.95,1426.69 1040.99,1426.73 1042.02,1426.77 1043.06,1426.81 1044.1,1426.85 1045.13,1426.9 1046.17,1426.94 1047.2,1426.98 1048.24,1427.02 1049.28,1427.06 1050.31,1427.1 1051.35,1427.15 1052.38,1427.19 1053.42,1427.23 1054.46,1427.27 1055.49,1427.31 1056.53,1427.35 1057.56,1427.39 1058.6,1427.43 1059.64,1427.47 1060.67,1427.51 1061.71,1427.55 1062.75,1427.59 1063.78,1427.63 1064.82,1427.67 1065.85,1427.71 1066.89,1427.75 1067.93,1427.79 1068.96,1427.83 1070,1427.87 1071.03,1427.91 1072.07,1427.95 1073.11,1427.99 1074.14,1428.02 1075.18,1428.06 1076.22,1428.1 1077.25,1428.14 1078.29,1428.18 1079.32,1428.22 1080.36,1428.26 1081.4,1428.29 1082.43,1428.33 1083.47,1428.37 1084.5,1428.41 1085.54,1428.45 1086.58,1428.48 1087.61,1428.52 1088.65,1428.56 1089.69,1428.6 1090.72,1428.63 1091.76,1428.67 1092.79,1428.71 1093.83,1428.74 1094.87,1428.78 1095.9,1428.82 1096.94,1428.85 1097.97,1428.89 1099.01,1428.93 1100.05,1428.96 1101.08,1429 1102.12,1429.04 1103.16,1429.07 1104.19,1429.11 1105.23,1429.14 1106.26,1429.18 1107.3,1429.22 1108.34,1429.25 1109.37,1429.29 1110.41,1429.32 1111.44,1429.36 1112.48,1429.39 1113.52,1429.43 1114.55,1429.46 1115.59,1429.5 1116.63,1429.53 1117.66,1429.57 1118.7,1429.6 1119.73,1429.64 1120.77,1429.67 1121.81,1429.71 1122.84,1429.74 1123.88,1429.78 1124.91,1429.81 1125.95,1429.85 1126.99,1429.88 1128.02,1429.91 1129.06,1429.95 1130.1,1429.98 1131.13,1430.01 1132.17,1430.05 1133.2,1430.08 1134.24,1430.12 1135.28,1430.15 1136.31,1430.18 1137.35,1430.22 1138.38,1430.25 1139.42,1430.28 1140.46,1430.32 1141.49,1430.35 1142.53,1430.38 1143.57,1430.41 1144.6,1430.45 1145.64,1430.48 1146.67,1430.51 1147.71,1430.54 1148.75,1430.58 1149.78,1430.61 1150.82,1430.64 1151.85,1430.67 1152.89,1430.71 1153.93,1430.74 1154.96,1430.77 1156,1430.8 1157.04,1430.83 1158.07,1430.86 1159.11,1430.9 1160.14,1430.93 1161.18,1430.96 1162.22,1430.99 1163.25,1431.02 1164.29,1431.05 1165.32,1431.08 1166.36,1431.12 1167.4,1431.15 1168.43,1431.18 1169.47,1431.21 1170.51,1431.24 1171.54,1431.27 1172.58,1431.3 1173.61,1431.33 1174.65,1431.36 1175.69,1431.39 1176.72,1431.42 1177.76,1431.45 1178.79,1431.48 1179.83,1431.51 1180.87,1431.54 1181.9,1431.57 1182.94,1431.6 1183.98,1431.63 1185.01,1431.66 1186.05,1431.69 1187.08,1431.72 1188.12,1431.75 1189.16,1431.78 1190.19,1431.81 1191.23,1431.84 1192.26,1431.87 1193.3,1431.9 1194.34,1431.93 1195.37,1431.96 1196.41,1431.99 1197.45,1432.02 1198.48,1432.04 1199.52,1432.07 1200.55,1432.1 1201.59,1432.13 1202.63,1432.16 1203.66,1432.19 1204.7,1432.22 1205.73,1432.25 1206.77,1432.27 1207.81,1432.3 1208.84,1432.33 1209.88,1432.36 1210.92,1432.39 1211.95,1432.42 1212.99,1432.44 1214.02,1432.47 1215.06,1432.5 1216.1,1432.53 1217.13,1432.55 1218.17,1432.58 1219.2,1432.61 1220.24,1432.64 1221.28,1432.67 1222.31,1432.69 1223.35,1432.72 1224.39,1432.75 1225.42,1432.77 1226.46,1432.8 1227.49,1432.83 1228.53,1432.86 1229.57,1432.88 1230.6,1432.91 1231.64,1432.94 1232.67,1432.96 1233.71,1432.99 1234.75,1433.02 1235.78,1433.04 1236.82,1433.07 1237.86,1433.1 1238.89,1433.12 1239.93,1433.15 1240.96,1433.18 1242,1433.2 1243.04,1433.23 1244.07,1433.26 1245.11,1433.28 1246.14,1433.31 1247.18,1433.33 1248.22,1433.36 1249.25,1433.39 1250.29,1433.41 1251.33,1433.44 1252.36,1433.46 1253.4,1433.49 1254.43,1433.51 1255.47,1433.54 1256.51,1433.57 1257.54,1433.59 1258.58,1433.62 1259.61,1433.64 1260.65,1433.67 1261.69,1433.69 1262.72,1433.72 1263.76,1433.74 1264.8,1433.77 1265.83,1433.79 1266.87,1433.82 1267.9,1433.84 1268.94,1433.87 1269.98,1433.89 1271.01,1433.92 1272.05,1433.94 1273.08,1433.97 1274.12,1433.99 1275.16,1434.02 1276.19,1434.04 1277.23,1434.07 1278.27,1434.09 1279.3,1434.11 1280.34,1434.14 1281.37,1434.16 1282.41,1434.19 1283.45,1434.21 1284.48,1434.24 1285.52,1434.26 1286.55,1434.28 1287.59,1434.31 1288.63,1434.33 1289.66,1434.35 1290.7,1434.38 1291.74,1434.4 1292.77,1434.43 1293.81,1434.45 1294.84,1434.47 1295.88,1434.5 1296.92,1434.52 1297.95,1434.54 1298.99,1434.57 1300.02,1434.59 1301.06,1434.61 1302.1,1434.64 1303.13,1434.66 1304.17,1434.68 1305.21,1434.71 1306.24,1434.73 1307.28,1434.75 1308.31,1434.78 1309.35,1434.8 1310.39,1434.82 1311.42,1434.84 1312.46,1434.87 1313.49,1434.89 1314.53,1434.91 1315.57,1434.94 1316.6,1434.96 1317.64,1434.98 1318.68,1435 1319.71,1435.03 1320.75,1435.05 1321.78,1435.07 1322.82,1435.09 1323.86,1435.12 1324.89,1435.14 1325.93,1435.16 1326.96,1435.18 1328,1435.2 1329.04,1435.23 1330.07,1435.25 1331.11,1435.27 1332.15,1435.29 1333.18,1435.31 1334.22,1435.34 1335.25,1435.36 1336.29,1435.38 1337.33,1435.4 1338.36,1435.42 1339.4,1435.44 1340.43,1435.47 1341.47,1435.49 1342.51,1435.51 1343.54,1435.53 1344.58,1435.55 1345.62,1435.57 1346.65,1435.59 1347.69,1435.62 1348.72,1435.64 1349.76,1435.66 1350.8,1435.68 1351.83,1435.7 1352.87,1435.72 1353.9,1435.74 1354.94,1435.76 1355.98,1435.78 1357.01,1435.81 1358.05,1435.83 1359.09,1435.85 1360.12,1435.87 1361.16,1435.89 1362.19,1435.91 1363.23,1435.93 1364.27,1435.95 1365.3,1435.97 1366.34,1435.99 1367.37,1436.01 1368.41,1436.03 1369.45,1436.05 1370.48,1436.07 1371.52,1436.09 1372.56,1436.11 1373.59,1436.13 1374.63,1436.15 1375.66,1436.17 1376.7,1436.19 1377.74,1436.21 1378.77,1436.24 1379.81,1436.26 1380.84,1436.28 1381.88,1436.29 1382.92,1436.31 1383.95,1436.33 1384.99,1436.35 1386.03,1436.37 1387.06,1436.39 1388.1,1436.41 1389.13,1436.43 1390.17,1436.45 1391.21,1436.47 1392.24,1436.49 1393.28,1436.51 1394.31,1436.53 1395.35,1436.55 1396.39,1436.57 1397.42,1436.59 1398.46,1436.61 1399.5,1436.63 1400.53,1436.65 1401.57,1436.67 1402.6,1436.69 1403.64,1436.71 1404.68,1436.72 1405.71,1436.74 1406.75,1436.76 1407.78,1436.78 1408.82,1436.8 1409.86,1436.82 1410.89,1436.84 1411.93,1436.86 1412.97,1436.88 1414,1436.89 1415.04,1436.91 1416.07,1436.93 1417.11,1436.95 1418.15,1436.97 1419.18,1436.99 1420.22,1437.01 1421.25,1437.03 1422.29,1437.04 1423.33,1437.06 1424.36,1437.08 1425.4,1437.1 1426.44,1437.12 1427.47,1437.14 1428.51,1437.15 1429.54,1437.17 1430.58,1437.19 1431.62,1437.21 1432.65,1437.23 1433.69,1437.25 1434.72,1437.26 1435.76,1437.28 1436.8,1437.3 1437.83,1437.32 1438.87,1437.34 1439.91,1437.35 1440.94,1437.37 1441.98,1437.39 1443.01,1437.41 1444.05,1437.43 1445.09,1437.44 1446.12,1437.46 1447.16,1437.48 1448.19,1437.5 1449.23,1437.51 1450.27,1437.53 1451.3,1437.55 1452.34,1437.57 1453.38,1437.58 1454.41,1437.6 1455.45,1437.62 1456.48,1437.64 1457.52,1437.65 1458.56,1437.67 1459.59,1437.69 1460.63,1437.71 1461.66,1437.72 1462.7,1437.74 1463.74,1437.76 1464.77,1437.78 1465.81,1437.79 1466.85,1437.81 1467.88,1437.83 1468.92,1437.84 1469.95,1437.86 1470.99,1437.88 1472.03,1437.89 1473.06,1437.91 1474.1,1437.93 1475.13,1437.95 1476.17,1437.96 1477.21,1437.98 1478.24,1438 1479.28,1438.01 1480.32,1438.03 1481.35,1438.05 1482.39,1438.06 1483.42,1438.08 1484.46,1438.1 1485.5,1438.11 1486.53,1438.13 1487.57,1438.15 1488.6,1438.16 1489.64,1438.18 1490.68,1438.2 1491.71,1438.21 1492.75,1438.23 1493.79,1438.24 1494.82,1438.26 1495.86,1438.28 1496.89,1438.29 1497.93,1438.31 1498.97,1438.33 1500,1438.34 1501.04,1438.36 1502.07,1438.37 1503.11,1438.39 1504.15,1438.41 1505.18,1438.42 1506.22,1438.44 1507.26,1438.45 1508.29,1438.47 1509.33,1438.49 1510.36,1438.5 1511.4,1438.52 1512.44,1438.53 1513.47,1438.55 1514.51,1438.57 1515.54,1438.58 1516.58,1438.6 1517.62,1438.61 1518.65,1438.63 1519.69,1438.64 1520.73,1438.66 1521.76,1438.68 1522.8,1438.69 1523.83,1438.71 1524.87,1438.72 1525.91,1438.74 1526.94,1438.75 1527.98,1438.77 1529.01,1438.78 1530.05,1438.8 1531.09,1438.81 1532.12,1438.83 1533.16,1438.85 1534.2,1438.86 1535.23,1438.88 1536.27,1438.89 1537.3,1438.91 1538.34,1438.92 1539.38,1438.94 1540.41,1438.95 1541.45,1438.97 1542.48,1438.98 1543.52,1439 1544.56,1439.01 1545.59,1439.03 1546.63,1439.04 1547.67,1439.06 1548.7,1439.07 1549.74,1439.09 1550.77,1439.1 1551.81,1439.12 1552.85,1439.13 1553.88,1439.15 1554.92,1439.16 1555.95,1439.18 1556.99,1439.19 1558.03,1439.21 1559.06,1439.22 1560.1,1439.23 1561.14,1439.25 1562.17,1439.26 1563.21,1439.28 1564.24,1439.29 1565.28,1439.31 1566.32,1439.32 1567.35,1439.34 1568.39,1439.35 1569.42,1439.37 1570.46,1439.38 1571.5,1439.39 1572.53,1439.41 1573.57,1439.42 1574.61,1439.44 1575.64,1439.45 1576.68,1439.47 1577.71,1439.48 1578.75,1439.49 1579.79,1439.51 1580.82,1439.52 1581.86,1439.54 1582.89,1439.55 1583.93,1439.56 1584.97,1439.58 1586,1439.59 1587.04,1439.61 1588.08,1439.62 1589.11,1439.64 1590.15,1439.65 1591.18,1439.66 1592.22,1439.68 1593.26,1439.69 1594.29,1439.7 1595.33,1439.72 1596.36,1439.73 1597.4,1439.75 1598.44,1439.76 1599.47,1439.77 1600.51,1439.79 1601.55,1439.8 1602.58,1439.81 1603.62,1439.83 1604.65,1439.84 1605.69,1439.86 1606.73,1439.87 1607.76,1439.88 1608.8,1439.9 1609.83,1439.91 1610.87,1439.92 1611.91,1439.94 1612.94,1439.95 1613.98,1439.96 1615.02,1439.98 1616.05,1439.99 1617.09,1440 1618.12,1440.02 1619.16,1440.03 1620.2,1440.04 1621.23,1440.06 1622.27,1440.07 1623.3,1440.08 1624.34,1440.1 1625.38,1440.11 1626.41,1440.12 1627.45,1440.14 1628.49,1440.15 1629.52,1440.16 1630.56,1440.18 1631.59,1440.19 1632.63,1440.2 1633.67,1440.22 1634.7,1440.23 1635.74,1440.24 1636.77,1440.26 1637.81,1440.27 1638.85,1440.28 1639.88,1440.29 1640.92,1440.31 1641.96,1440.32 1642.99,1440.33 1644.03,1440.35 1645.06,1440.36 1646.1,1440.37 1647.14,1440.38 1648.17,1440.4 1649.21,1440.41 1650.24,1440.42 1651.28,1440.43 1652.32,1440.45 1653.35,1440.46 1654.39,1440.47 1655.43,1440.49 1656.46,1440.5 1657.5,1440.51 1658.53,1440.52 1659.57,1440.54 1660.61,1440.55 1661.64,1440.56 1662.68,1440.57 1663.71,1440.59 1664.75,1440.6 1665.79,1440.61 1666.82,1440.62 1667.86,1440.64 1668.9,1440.65 1669.93,1440.66 1670.97,1440.67 1672,1440.69 1673.04,1440.7 1674.08,1440.71 1675.11,1440.72 1676.15,1440.73 1677.18,1440.75 1678.22,1440.76 1679.26,1440.77 1680.29,1440.78 1681.33,1440.8 1682.37,1440.81 1683.4,1440.82 1684.44,1440.83 1685.47,1440.84 1686.51,1440.86 1687.55,1440.87 1688.58,1440.88 1689.62,1440.89 1690.65,1440.9 1691.69,1440.92 1692.73,1440.93 1693.76,1440.94 1694.8,1440.95 1695.84,1440.96 1696.87,1440.98 1697.91,1440.99 1698.94,1441 1699.98,1441.01 1701.02,1441.02 1702.05,1441.03 1703.09,1441.05 1704.12,1441.06 1705.16,1441.07 1706.2,1441.08 1707.23,1441.09 1708.27,1441.11 1709.31,1441.12 1710.34,1441.13 1711.38,1441.14 1712.41,1441.15 1713.45,1441.16 1714.49,1441.17 1715.52,1441.19 1716.56,1441.2 1717.59,1441.21 1718.63,1441.22 1719.67,1441.23 1720.7,1441.24 1721.74,1441.26 1722.78,1441.27 1723.81,1441.28 1724.85,1441.29 1725.88,1441.3 1726.92,1441.31 1727.96,1441.32 1728.99,1441.34 1730.03,1441.35 1731.06,1441.36 1732.1,1441.37 1733.14,1441.38 1734.17,1441.39 1735.21,1441.4 1736.25,1441.41 1737.28,1441.43 1738.32,1441.44 1739.35,1441.45 1740.39,1441.46 1741.43,1441.47 1742.46,1441.48 1743.5,1441.49 1744.53,1441.5 1745.57,1441.51 1746.61,1441.53 1747.64,1441.54 1748.68,1441.55 1749.72,1441.56 1750.75,1441.57 1751.79,1441.58 1752.82,1441.59 1753.86,1441.6 1754.9,1441.61 1755.93,1441.62 1756.97,1441.64 1758,1441.65 1759.04,1441.66 1760.08,1441.67 1761.11,1441.68 1762.15,1441.69 1763.19,1441.7 1764.22,1441.71 1765.26,1441.72 1766.29,1441.73 1767.33,1441.74 1768.37,1441.75 1769.4,1441.77 1770.44,1441.78 1771.47,1441.79 1772.51,1441.8 1773.55,1441.81 1774.58,1441.82 1775.62,1441.83 1776.65,1441.84 1777.69,1441.85 1778.73,1441.86 1779.76,1441.87 1780.8,1441.88 1781.84,1441.89 1782.87,1441.9 1783.91,1441.91 1784.94,1441.92 1785.98,1441.93 1787.02,1441.95 1788.05,1441.96 1789.09,1441.97 1790.12,1441.98 1791.16,1441.99 1792.2,1442 1793.23,1442.01 1794.27,1442.02 1795.31,1442.03 1796.34,1442.04 1797.38,1442.05 1798.41,1442.06 1799.45,1442.07 1800.49,1442.08 1801.52,1442.09 1802.56,1442.1 1803.59,1442.11 1804.63,1442.12 1805.67,1442.13 1806.7,1442.14 1807.74,1442.15 1808.78,1442.16 1809.81,1442.17 1810.85,1442.18 1811.88,1442.19 1812.92,1442.2 1813.96,1442.21 1814.99,1442.22 1816.03,1442.23 1817.06,1442.24 1818.1,1442.25 1819.14,1442.26 1820.17,1442.27 1821.21,1442.28 1822.25,1442.29 1823.28,1442.3 1824.32,1442.31 1825.35,1442.32 1826.39,1442.33 1827.43,1442.34 1828.46,1442.35 1829.5,1442.36 1830.53,1442.37 1831.57,1442.38 1832.61,1442.39 1833.64,1442.4 1834.68,1442.41 1835.72,1442.42 1836.75,1442.43 1837.79,1442.44 1838.82,1442.45 1839.86,1442.46 1840.9,1442.47 1841.93,1442.48 1842.97,1442.49 1844,1442.5 1845.04,1442.51 1846.08,1442.52 1847.11,1442.53 1848.15,1442.54 1849.19,1442.55 1850.22,1442.56 1851.26,1442.57 1852.29,1442.58 1853.33,1442.58 1854.37,1442.59 1855.4,1442.6 1856.44,1442.61 1857.47,1442.62 1858.51,1442.63 1859.55,1442.64 1860.58,1442.65 1861.62,1442.66 1862.66,1442.67 1863.69,1442.68 1864.73,1442.69 1865.76,1442.7 1866.8,1442.71 1867.84,1442.72 1868.87,1442.73 1869.91,1442.74 1870.94,1442.75 1871.98,1442.76 1873.02,1442.76 1874.05,1442.77 1875.09,1442.78 1876.13,1442.79 1877.16,1442.8 1878.2,1442.81 1879.23,1442.82 1880.27,1442.83 1881.31,1442.84 1882.34,1442.85 1883.38,1442.86 1884.41,1442.87 1885.45,1442.88 1886.49,1442.88 1887.52,1442.89 1888.56,1442.9 1889.6,1442.91 1890.63,1442.92 1891.67,1442.93 1892.7,1442.94 1893.74,1442.95 1894.78,1442.96 1895.81,1442.97 1896.85,1442.98 1897.88,1442.98 1898.92,1442.99 1899.96,1443 1900.99,1443.01 1902.03,1443.02 1903.07,1443.03 1904.1,1443.04 1905.14,1443.05 1906.17,1443.06 1907.21,1443.07 1908.25,1443.07 1909.28,1443.08 1910.32,1443.09 1911.35,1443.1 1912.39,1443.11 1913.43,1443.12 1914.46,1443.13 1915.5,1443.14 1916.54,1443.15 1917.57,1443.15 1918.61,1443.16 1919.64,1443.17 1920.68,1443.18 1921.72,1443.19 1922.75,1443.2 1923.79,1443.21 1924.82,1443.22 1925.86,1443.22 1926.9,1443.23 1927.93,1443.24 1928.97,1443.25 1930.01,1443.26 1931.04,1443.27 1932.08,1443.28 1933.11,1443.28 1934.15,1443.29 1935.19,1443.3 1936.22,1443.31 1937.26,1443.32 1938.29,1443.33 1939.33,1443.34 1940.37,1443.34 1941.4,1443.35 1942.44,1443.36 1943.48,1443.37 1944.51,1443.38 1945.55,1443.39 1946.58,1443.4 1947.62,1443.4 1948.66,1443.41 1949.69,1443.42 1950.73,1443.43 1951.76,1443.44 1952.8,1443.45 1953.84,1443.45 1954.87,1443.46 1955.91,1443.47 1956.95,1443.48 1957.98,1443.49 1959.02,1443.5 1960.05,1443.51 1961.09,1443.51 1962.13,1443.52 1963.16,1443.53 1964.2,1443.54 1965.23,1443.55 1966.27,1443.56 1967.31,1443.56 1968.34,1443.57 1969.38,1443.58 1970.42,1443.59 1971.45,1443.6 1972.49,1443.6 1973.52,1443.61 1974.56,1443.62 1975.6,1443.63 1976.63,1443.64 1977.67,1443.65 1978.7,1443.65 1979.74,1443.66 1980.78,1443.67 1981.81,1443.68 1982.85,1443.69 1983.89,1443.69 1984.92,1443.7 1985.96,1443.71 1986.99,1443.72 1988.03,1443.73 1989.07,1443.73 1990.1,1443.74 1991.14,1443.75 1992.17,1443.76 1993.21,1443.77 1994.25,1443.78 1995.28,1443.78 1996.32,1443.79 1997.36,1443.8 1998.39,1443.81 1999.43,1443.81 2000.46,1443.82 2001.5,1443.83 2002.54,1443.84 2003.57,1443.85 2004.61,1443.85 2005.64,1443.86 2006.68,1443.87 2007.72,1443.88 2008.75,1443.89 2009.79,1443.89 2010.83,1443.9 2011.86,1443.91 2012.9,1443.92 2013.93,1443.93 2014.97,1443.93 2016.01,1443.94 2017.04,1443.95 2018.08,1443.96 2019.11,1443.96 2020.15,1443.97 2021.19,1443.98 2022.22,1443.99 2023.26,1444 2024.3,1444 2025.33,1444.01 2026.37,1444.02 2027.4,1444.03 2028.44,1444.03 2029.48,1444.04 2030.51,1444.05 2031.55,1444.06 2032.58,1444.06 2033.62,1444.07 2034.66,1444.08 2035.69,1444.09 2036.73,1444.1 2037.77,1444.1 2038.8,1444.11 2039.84,1444.12 2040.87,1444.13 2041.91,1444.13 2042.95,1444.14 2043.98,1444.15 2045.02,1444.16 2046.05,1444.16 2047.09,1444.17 2048.13,1444.18 2049.16,1444.19 2050.2,1444.19 2051.24,1444.2 2052.27,1444.21 2053.31,1444.22 2054.34,1444.22 2055.38,1444.23 2056.42,1444.24 2057.45,1444.25 2058.49,1444.25 2059.52,1444.26 2060.56,1444.27 2061.6,1444.27 2062.63,1444.28 2063.67,1444.29 2064.71,1444.3 2065.74,1444.3 2066.78,1444.31 2067.81,1444.32 2068.85,1444.33 2069.89,1444.33 2070.92,1444.34 2071.96,1444.35 2072.99,1444.36 2074.03,1444.36 2075.07,1444.37 2076.1,1444.38 2077.14,1444.38 2078.18,1444.39 2079.21,1444.4 2080.25,1444.41 2081.28,1444.41 2082.32,1444.42 2083.36,1444.43 2084.39,1444.44 2085.43,1444.44 2086.46,1444.45 2087.5,1444.46 2088.54,1444.46 2089.57,1444.47 2090.61,1444.48 2091.65,1444.49 2092.68,1444.49 2093.72,1444.5 2094.75,1444.51 2095.79,1444.51 2096.83,1444.52 2097.86,1444.53 2098.9,1444.54 2099.93,1444.54 2100.97,1444.55 2102.01,1444.56 2103.04,1444.56 2104.08,1444.57 2105.12,1444.58 2106.15,1444.58 2107.19,1444.59 2108.22,1444.6 2109.26,1444.61 2110.3,1444.61 2111.33,1444.62 2112.37,1444.63 2113.4,1444.63 2114.44,1444.64 2115.48,1444.65 2116.51,1444.65 2117.55,1444.66 2118.59,1444.67 2119.62,1444.68 2120.66,1444.68 2121.69,1444.69 2122.73,1444.7 2123.77,1444.7 2124.8,1444.71 2125.84,1444.72 2126.87,1444.72 2127.91,1444.73 2128.95,1444.74 2129.98,1444.74 2131.02,1444.75 2132.06,1444.76 2133.09,1444.76 2134.13,1444.77 2135.16,1444.78 2136.2,1444.78 2137.24,1444.79 2138.27,1444.8 2139.31,1444.81 2140.34,1444.81 2141.38,1444.82 2142.42,1444.83 2143.45,1444.83 2144.49,1444.84 2145.53,1444.85 2146.56,1444.85 2147.6,1444.86 2148.63,1444.87 2149.67,1444.87 2150.71,1444.88 2151.74,1444.89 2152.78,1444.89 2153.81,1444.9 2154.85,1444.91 2155.89,1444.91 2156.92,1444.92 2157.96,1444.93 2159,1444.93 2160.03,1444.94 2161.07,1444.95 2162.1,1444.95 2163.14,1444.96 2164.18,1444.97 2165.21,1444.97 2166.25,1444.98 2167.28,1444.99 2168.32,1444.99 2169.36,1445 2170.39,1445 2171.43,1445.01 2172.47,1445.02 2173.5,1445.02 2174.54,1445.03 2175.57,1445.04 2176.61,1445.04 2177.65,1445.05 2178.68,1445.06 2179.72,1445.06 2180.75,1445.07 2181.79,1445.08 2182.83,1445.08 2183.86,1445.09 2184.9,1445.1 2185.94,1445.1 2186.97,1445.11 2188.01,1445.11 2189.04,1445.12 2190.08,1445.13 2191.12,1445.13 2192.15,1445.14 2193.19,1445.15 2194.22,1445.15 2195.26,1445.16 2196.3,1445.17 2197.33,1445.17 2198.37,1445.18 2199.41,1445.18 2200.44,1445.19 2201.48,1445.2 2202.51,1445.2 2203.55,1445.21 2204.59,1445.22 2205.62,1445.22 2206.66,1445.23 2207.69,1445.24 2208.73,1445.24 2209.77,1445.25 2210.8,1445.25 2211.84,1445.26 2212.88,1445.27 2213.91,1445.27 2214.95,1445.28 2215.98,1445.29 2217.02,1445.29 2218.06,1445.3 2219.09,1445.3 2220.13,1445.31 2221.16,1445.32 2222.2,1445.32 2223.24,1445.33 2224.27,1445.33 2225.31,1445.34 2226.35,1445.35 2227.38,1445.35 2228.42,1445.36 2229.45,1445.37 2230.49,1445.37 2231.53,1445.38 2232.56,1445.38 2233.6,1445.39 2234.63,1445.4 2235.67,1445.4 2236.71,1445.41 2237.74,1445.41 2238.78,1445.42 2239.82,1445.43 2240.85,1445.43 2241.89,1445.44 2242.92,1445.44 2243.96,1445.45 2245,1445.46 2246.03,1445.46 2247.07,1445.47 2248.1,1445.47 2249.14,1445.48 2250.18,1445.49 2251.21,1445.49 2252.25,1445.5 2253.29,1445.5 2254.32,1445.51 2255.36,1445.52 2256.39,1445.52 2257.43,1445.53 2258.47,1445.53 2259.5,1445.54 2260.54,1445.55 2261.57,1445.55 2262.61,1445.56 2263.65,1445.56 2264.68,1445.57 2265.72,1445.58 2266.76,1445.58 2267.79,1445.59 2268.83,1445.59 2269.86,1445.6 2270.9,1445.61 2271.94,1445.61 2272.97,1445.62 2274.01,1445.62 2275.04,1445.63 2276.08,1445.63 2277.12,1445.64 2278.15,1445.65 2279.19,1445.65 2280.23,1445.66 2281.26,1445.66 2282.3,1445.67 2283.33,1445.68 2284.37,1445.68 2285.41,1445.69 2286.44,1445.69 2287.48,1445.7 2288.51,1445.7 2289.55,1445.71 2290.59,1445.72 "/>
<path clip-path="url(#clip660)" d="M2007.44 198.898 L2279.53 198.898 L2279.53 95.2176 L2007.44 95.2176  Z" fill="#ffffff" fill-rule="evenodd" fill-opacity="1"/>
<polyline clip-path="url(#clip660)" style="stroke:#000000; stroke-linecap:round; stroke-linejoin:round; stroke-width:4; stroke-opacity:1; fill:none" points="2007.44,198.898 2279.53,198.898 2279.53,95.2176 2007.44,95.2176 2007.44,198.898 "/>
<polyline clip-path="url(#clip660)" style="stroke:#009af9; stroke-linecap:round; stroke-linejoin:round; stroke-width:4; stroke-opacity:1; fill:none" points="2031.85,147.058 2178.29,147.058 "/>
<path clip-path="url(#clip660)" d="M2216.54 166.745 Q2214.73 171.375 2213.02 172.787 Q2211.31 174.199 2208.44 174.199 L2205.03 174.199 L2205.03 170.634 L2207.53 170.634 Q2209.29 170.634 2210.27 169.8 Q2211.24 168.967 2212.42 165.865 L2213.18 163.921 L2202.7 138.412 L2207.21 138.412 L2215.31 158.689 L2223.41 138.412 L2227.93 138.412 L2216.54 166.745 Z" fill="#000000" fill-rule="nonzero" fill-opacity="1" /><path clip-path="url(#clip660)" d="M2235.22 160.402 L2242.86 160.402 L2242.86 134.037 L2234.55 135.703 L2234.55 131.444 L2242.81 129.778 L2247.49 129.778 L2247.49 160.402 L2255.13 160.402 L2255.13 164.338 L2235.22 164.338 L2235.22 160.402 Z" fill="#000000" fill-rule="nonzero" fill-opacity="1" /></svg>
