<?xml version="1.0" encoding="utf-8"?>
<svg xmlns="http://www.w3.org/2000/svg" xmlns:xlink="http://www.w3.org/1999/xlink" width="600" height="400" viewBox="0 0 2400 1600">
<defs>
  <clipPath id="clip370">
    <rect x="0" y="0" width="2400" height="1600"/>
  </clipPath>
</defs>
<path clip-path="url(#clip370)" d="M0 1600 L2400 1600 L2400 0 L0 0  Z" fill="#ffffff" fill-rule="evenodd" fill-opacity="1"/>
<defs>
  <clipPath id="clip371">
    <rect x="480" y="0" width="1681" height="1600"/>
  </clipPath>
</defs>
<path clip-path="url(#clip370)" d="M229.445 1486.45 L2352.76 1486.45 L2352.76 47.2441 L229.445 47.2441  Z" fill="#ffffff" fill-rule="evenodd" fill-opacity="1"/>
<defs>
  <clipPath id="clip372">
    <rect x="229" y="47" width="2124" height="1440"/>
  </clipPath>
</defs>
<polyline clip-path="url(#clip372)" style="stroke:#000000; stroke-linecap:round; stroke-linejoin:round; stroke-width:2; stroke-opacity:0.1; fill:none" points="289.539,1486.45 289.539,47.2441 "/>
<polyline clip-path="url(#clip372)" style="stroke:#000000; stroke-linecap:round; stroke-linejoin:round; stroke-width:2; stroke-opacity:0.1; fill:none" points="790.32,1486.45 790.32,47.2441 "/>
<polyline clip-path="url(#clip372)" style="stroke:#000000; stroke-linecap:round; stroke-linejoin:round; stroke-width:2; stroke-opacity:0.1; fill:none" points="1291.1,1486.45 1291.1,47.2441 "/>
<polyline clip-path="url(#clip372)" style="stroke:#000000; stroke-linecap:round; stroke-linejoin:round; stroke-width:2; stroke-opacity:0.1; fill:none" points="1791.88,1486.45 1791.88,47.2441 "/>
<polyline clip-path="url(#clip372)" style="stroke:#000000; stroke-linecap:round; stroke-linejoin:round; stroke-width:2; stroke-opacity:0.1; fill:none" points="2292.66,1486.45 2292.66,47.2441 "/>
<polyline clip-path="url(#clip370)" style="stroke:#000000; stroke-linecap:round; stroke-linejoin:round; stroke-width:4; stroke-opacity:1; fill:none" points="229.445,1486.45 2352.76,1486.45 "/>
<polyline clip-path="url(#clip370)" style="stroke:#000000; stroke-linecap:round; stroke-linejoin:round; stroke-width:4; stroke-opacity:1; fill:none" points="289.539,1486.45 289.539,1467.55 "/>
<polyline clip-path="url(#clip370)" style="stroke:#000000; stroke-linecap:round; stroke-linejoin:round; stroke-width:4; stroke-opacity:1; fill:none" points="790.32,1486.45 790.32,1467.55 "/>
<polyline clip-path="url(#clip370)" style="stroke:#000000; stroke-linecap:round; stroke-linejoin:round; stroke-width:4; stroke-opacity:1; fill:none" points="1291.1,1486.45 1291.1,1467.55 "/>
<polyline clip-path="url(#clip370)" style="stroke:#000000; stroke-linecap:round; stroke-linejoin:round; stroke-width:4; stroke-opacity:1; fill:none" points="1791.88,1486.45 1791.88,1467.55 "/>
<polyline clip-path="url(#clip370)" style="stroke:#000000; stroke-linecap:round; stroke-linejoin:round; stroke-width:4; stroke-opacity:1; fill:none" points="2292.66,1486.45 2292.66,1467.55 "/>
<path clip-path="url(#clip370)" d="M289.539 1517.37 Q285.928 1517.37 284.099 1520.93 Q282.293 1524.47 282.293 1531.6 Q282.293 1538.71 284.099 1542.27 Q285.928 1545.82 289.539 1545.82 Q293.173 1545.82 294.979 1542.27 Q296.807 1538.71 296.807 1531.6 Q296.807 1524.47 294.979 1520.93 Q293.173 1517.37 289.539 1517.37 M289.539 1513.66 Q295.349 1513.66 298.404 1518.27 Q301.483 1522.85 301.483 1531.6 Q301.483 1540.33 298.404 1544.94 Q295.349 1549.52 289.539 1549.52 Q283.729 1549.52 280.65 1544.94 Q277.594 1540.33 277.594 1531.6 Q277.594 1522.85 280.65 1518.27 Q283.729 1513.66 289.539 1513.66 Z" fill="#000000" fill-rule="nonzero" fill-opacity="1" /><path clip-path="url(#clip370)" d="M754.012 1544.91 L770.331 1544.91 L770.331 1548.85 L748.387 1548.85 L748.387 1544.91 Q751.049 1542.16 755.632 1537.53 Q760.239 1532.88 761.419 1531.53 Q763.665 1529.01 764.544 1527.27 Q765.447 1525.51 765.447 1523.82 Q765.447 1521.07 763.503 1519.33 Q761.581 1517.6 758.48 1517.6 Q756.28 1517.6 753.827 1518.36 Q751.396 1519.13 748.618 1520.68 L748.618 1515.95 Q751.443 1514.82 753.896 1514.24 Q756.35 1513.66 758.387 1513.66 Q763.757 1513.66 766.952 1516.35 Q770.146 1519.03 770.146 1523.52 Q770.146 1525.65 769.336 1527.57 Q768.549 1529.47 766.442 1532.07 Q765.864 1532.74 762.762 1535.95 Q759.66 1539.15 754.012 1544.91 Z" fill="#000000" fill-rule="nonzero" fill-opacity="1" /><path clip-path="url(#clip370)" d="M780.192 1514.29 L798.549 1514.29 L798.549 1518.22 L784.475 1518.22 L784.475 1526.7 Q785.493 1526.35 786.512 1526.19 Q787.53 1526 788.549 1526 Q794.336 1526 797.715 1529.17 Q801.095 1532.34 801.095 1537.76 Q801.095 1543.34 797.623 1546.44 Q794.151 1549.52 787.831 1549.52 Q785.655 1549.52 783.387 1549.15 Q781.141 1548.78 778.734 1548.04 L778.734 1543.34 Q780.817 1544.47 783.04 1545.03 Q785.262 1545.58 787.739 1545.58 Q791.743 1545.58 794.081 1543.48 Q796.419 1541.37 796.419 1537.76 Q796.419 1534.15 794.081 1532.04 Q791.743 1529.94 787.739 1529.94 Q785.864 1529.94 783.989 1530.35 Q782.137 1530.77 780.192 1531.65 L780.192 1514.29 Z" fill="#000000" fill-rule="nonzero" fill-opacity="1" /><path clip-path="url(#clip370)" d="M820.308 1517.37 Q816.697 1517.37 814.868 1520.93 Q813.063 1524.47 813.063 1531.6 Q813.063 1538.71 814.868 1542.27 Q816.697 1545.82 820.308 1545.82 Q823.942 1545.82 825.748 1542.27 Q827.576 1538.71 827.576 1531.6 Q827.576 1524.47 825.748 1520.93 Q823.942 1517.37 820.308 1517.37 M820.308 1513.66 Q826.118 1513.66 829.174 1518.27 Q832.252 1522.85 832.252 1531.6 Q832.252 1540.33 829.174 1544.94 Q826.118 1549.52 820.308 1549.52 Q814.498 1549.52 811.419 1544.94 Q808.364 1540.33 808.364 1531.6 Q808.364 1522.85 811.419 1518.27 Q814.498 1513.66 820.308 1513.66 Z" fill="#000000" fill-rule="nonzero" fill-opacity="1" /><path clip-path="url(#clip370)" d="M1250.72 1514.29 L1269.08 1514.29 L1269.08 1518.22 L1255 1518.22 L1255 1526.7 Q1256.02 1526.35 1257.04 1526.19 Q1258.06 1526 1259.08 1526 Q1264.86 1526 1268.24 1529.17 Q1271.62 1532.34 1271.62 1537.76 Q1271.62 1543.34 1268.15 1546.44 Q1264.68 1549.52 1258.36 1549.52 Q1256.18 1549.52 1253.91 1549.15 Q1251.67 1548.78 1249.26 1548.04 L1249.26 1543.34 Q1251.34 1544.47 1253.57 1545.03 Q1255.79 1545.58 1258.27 1545.58 Q1262.27 1545.58 1264.61 1543.48 Q1266.95 1541.37 1266.95 1537.76 Q1266.95 1534.15 1264.61 1532.04 Q1262.27 1529.94 1258.27 1529.94 Q1256.39 1529.94 1254.52 1530.35 Q1252.66 1530.77 1250.72 1531.65 L1250.72 1514.29 Z" fill="#000000" fill-rule="nonzero" fill-opacity="1" /><path clip-path="url(#clip370)" d="M1290.83 1517.37 Q1287.22 1517.37 1285.39 1520.93 Q1283.59 1524.47 1283.59 1531.6 Q1283.59 1538.71 1285.39 1542.27 Q1287.22 1545.82 1290.83 1545.82 Q1294.47 1545.82 1296.27 1542.27 Q1298.1 1538.71 1298.1 1531.6 Q1298.1 1524.47 1296.27 1520.93 Q1294.47 1517.37 1290.83 1517.37 M1290.83 1513.66 Q1296.64 1513.66 1299.7 1518.27 Q1302.78 1522.85 1302.78 1531.6 Q1302.78 1540.33 1299.7 1544.94 Q1296.64 1549.52 1290.83 1549.52 Q1285.02 1549.52 1281.95 1544.94 Q1278.89 1540.33 1278.89 1531.6 Q1278.89 1522.85 1281.95 1518.27 Q1285.02 1513.66 1290.83 1513.66 Z" fill="#000000" fill-rule="nonzero" fill-opacity="1" /><path clip-path="url(#clip370)" d="M1321 1517.37 Q1317.39 1517.37 1315.56 1520.93 Q1313.75 1524.47 1313.75 1531.6 Q1313.75 1538.71 1315.56 1542.27 Q1317.39 1545.82 1321 1545.82 Q1324.63 1545.82 1326.44 1542.27 Q1328.26 1538.71 1328.26 1531.6 Q1328.26 1524.47 1326.44 1520.93 Q1324.63 1517.37 1321 1517.37 M1321 1513.66 Q1326.81 1513.66 1329.86 1518.27 Q1332.94 1522.85 1332.94 1531.6 Q1332.94 1540.33 1329.86 1544.94 Q1326.81 1549.52 1321 1549.52 Q1315.19 1549.52 1312.11 1544.94 Q1309.05 1540.33 1309.05 1531.6 Q1309.05 1522.85 1312.11 1518.27 Q1315.19 1513.66 1321 1513.66 Z" fill="#000000" fill-rule="nonzero" fill-opacity="1" /><path clip-path="url(#clip370)" d="M1750.16 1514.29 L1772.38 1514.29 L1772.38 1516.28 L1759.83 1548.85 L1754.95 1548.85 L1766.75 1518.22 L1750.16 1518.22 L1750.16 1514.29 Z" fill="#000000" fill-rule="nonzero" fill-opacity="1" /><path clip-path="url(#clip370)" d="M1781.55 1514.29 L1799.9 1514.29 L1799.9 1518.22 L1785.83 1518.22 L1785.83 1526.7 Q1786.85 1526.35 1787.87 1526.19 Q1788.88 1526 1789.9 1526 Q1795.69 1526 1799.07 1529.17 Q1802.45 1532.34 1802.45 1537.76 Q1802.45 1543.34 1798.98 1546.44 Q1795.5 1549.52 1789.18 1549.52 Q1787.01 1549.52 1784.74 1549.15 Q1782.49 1548.78 1780.09 1548.04 L1780.09 1543.34 Q1782.17 1544.47 1784.39 1545.03 Q1786.62 1545.58 1789.09 1545.58 Q1793.1 1545.58 1795.43 1543.48 Q1797.77 1541.37 1797.77 1537.76 Q1797.77 1534.15 1795.43 1532.04 Q1793.1 1529.94 1789.09 1529.94 Q1787.22 1529.94 1785.34 1530.35 Q1783.49 1530.77 1781.55 1531.65 L1781.55 1514.29 Z" fill="#000000" fill-rule="nonzero" fill-opacity="1" /><path clip-path="url(#clip370)" d="M1821.66 1517.37 Q1818.05 1517.37 1816.22 1520.93 Q1814.42 1524.47 1814.42 1531.6 Q1814.42 1538.71 1816.22 1542.27 Q1818.05 1545.82 1821.66 1545.82 Q1825.3 1545.82 1827.1 1542.27 Q1828.93 1538.71 1828.93 1531.6 Q1828.93 1524.47 1827.1 1520.93 Q1825.3 1517.37 1821.66 1517.37 M1821.66 1513.66 Q1827.47 1513.66 1830.53 1518.27 Q1833.61 1522.85 1833.61 1531.6 Q1833.61 1540.33 1830.53 1544.94 Q1827.47 1549.52 1821.66 1549.52 Q1815.85 1549.52 1812.77 1544.94 Q1809.72 1540.33 1809.72 1531.6 Q1809.72 1522.85 1812.77 1518.27 Q1815.85 1513.66 1821.66 1513.66 Z" fill="#000000" fill-rule="nonzero" fill-opacity="1" /><path clip-path="url(#clip370)" d="M2237.19 1544.91 L2244.83 1544.91 L2244.83 1518.55 L2236.52 1520.21 L2236.52 1515.95 L2244.78 1514.29 L2249.46 1514.29 L2249.46 1544.91 L2257.1 1544.91 L2257.1 1548.85 L2237.19 1548.85 L2237.19 1544.91 Z" fill="#000000" fill-rule="nonzero" fill-opacity="1" /><path clip-path="url(#clip370)" d="M2276.54 1517.37 Q2272.93 1517.37 2271.1 1520.93 Q2269.29 1524.47 2269.29 1531.6 Q2269.29 1538.71 2271.1 1542.27 Q2272.93 1545.82 2276.54 1545.82 Q2280.17 1545.82 2281.98 1542.27 Q2283.81 1538.71 2283.81 1531.6 Q2283.81 1524.47 2281.98 1520.93 Q2280.17 1517.37 2276.54 1517.37 M2276.54 1513.66 Q2282.35 1513.66 2285.41 1518.27 Q2288.48 1522.85 2288.48 1531.6 Q2288.48 1540.33 2285.41 1544.94 Q2282.35 1549.52 2276.54 1549.52 Q2270.73 1549.52 2267.65 1544.94 Q2264.6 1540.33 2264.6 1531.6 Q2264.6 1522.85 2267.65 1518.27 Q2270.73 1513.66 2276.54 1513.66 Z" fill="#000000" fill-rule="nonzero" fill-opacity="1" /><path clip-path="url(#clip370)" d="M2306.7 1517.37 Q2303.09 1517.37 2301.26 1520.93 Q2299.46 1524.47 2299.46 1531.6 Q2299.46 1538.71 2301.26 1542.27 Q2303.09 1545.82 2306.7 1545.82 Q2310.34 1545.82 2312.14 1542.27 Q2313.97 1538.71 2313.97 1531.6 Q2313.97 1524.47 2312.14 1520.93 Q2310.34 1517.37 2306.7 1517.37 M2306.7 1513.66 Q2312.51 1513.66 2315.57 1518.27 Q2318.65 1522.85 2318.65 1531.6 Q2318.65 1540.33 2315.57 1544.94 Q2312.51 1549.52 2306.7 1549.52 Q2300.89 1549.52 2297.81 1544.94 Q2294.76 1540.33 2294.76 1531.6 Q2294.76 1522.85 2297.81 1518.27 Q2300.89 1513.66 2306.7 1513.66 Z" fill="#000000" fill-rule="nonzero" fill-opacity="1" /><path clip-path="url(#clip370)" d="M2336.86 1517.37 Q2333.25 1517.37 2331.42 1520.93 Q2329.62 1524.47 2329.62 1531.6 Q2329.62 1538.71 2331.42 1542.27 Q2333.25 1545.82 2336.86 1545.82 Q2340.5 1545.82 2342.3 1542.27 Q2344.13 1538.71 2344.13 1531.6 Q2344.13 1524.47 2342.3 1520.93 Q2340.5 1517.37 2336.86 1517.37 M2336.86 1513.66 Q2342.67 1513.66 2345.73 1518.27 Q2348.81 1522.85 2348.81 1531.6 Q2348.81 1540.33 2345.73 1544.94 Q2342.67 1549.52 2336.86 1549.52 Q2331.05 1549.52 2327.97 1544.94 Q2324.92 1540.33 2324.92 1531.6 Q2324.92 1522.85 2327.97 1518.27 Q2331.05 1513.66 2336.86 1513.66 Z" fill="#000000" fill-rule="nonzero" fill-opacity="1" /><polyline clip-path="url(#clip372)" style="stroke:#000000; stroke-linecap:round; stroke-linejoin:round; stroke-width:2; stroke-opacity:0.1; fill:none" points="229.445,1296.18 2352.76,1296.18 "/>
<polyline clip-path="url(#clip372)" style="stroke:#000000; stroke-linecap:round; stroke-linejoin:round; stroke-width:2; stroke-opacity:0.1; fill:none" points="229.445,1053.57 2352.76,1053.57 "/>
<polyline clip-path="url(#clip372)" style="stroke:#000000; stroke-linecap:round; stroke-linejoin:round; stroke-width:2; stroke-opacity:0.1; fill:none" points="229.445,810.951 2352.76,810.951 "/>
<polyline clip-path="url(#clip372)" style="stroke:#000000; stroke-linecap:round; stroke-linejoin:round; stroke-width:2; stroke-opacity:0.1; fill:none" points="229.445,568.336 2352.76,568.336 "/>
<polyline clip-path="url(#clip372)" style="stroke:#000000; stroke-linecap:round; stroke-linejoin:round; stroke-width:2; stroke-opacity:0.1; fill:none" points="229.445,325.722 2352.76,325.722 "/>
<polyline clip-path="url(#clip372)" style="stroke:#000000; stroke-linecap:round; stroke-linejoin:round; stroke-width:2; stroke-opacity:0.1; fill:none" points="229.445,83.1074 2352.76,83.1074 "/>
<polyline clip-path="url(#clip370)" style="stroke:#000000; stroke-linecap:round; stroke-linejoin:round; stroke-width:4; stroke-opacity:1; fill:none" points="229.445,1486.45 229.445,47.2441 "/>
<polyline clip-path="url(#clip370)" style="stroke:#000000; stroke-linecap:round; stroke-linejoin:round; stroke-width:4; stroke-opacity:1; fill:none" points="229.445,1296.18 248.343,1296.18 "/>
<polyline clip-path="url(#clip370)" style="stroke:#000000; stroke-linecap:round; stroke-linejoin:round; stroke-width:4; stroke-opacity:1; fill:none" points="229.445,1053.57 248.343,1053.57 "/>
<polyline clip-path="url(#clip370)" style="stroke:#000000; stroke-linecap:round; stroke-linejoin:round; stroke-width:4; stroke-opacity:1; fill:none" points="229.445,810.951 248.343,810.951 "/>
<polyline clip-path="url(#clip370)" style="stroke:#000000; stroke-linecap:round; stroke-linejoin:round; stroke-width:4; stroke-opacity:1; fill:none" points="229.445,568.336 248.343,568.336 "/>
<polyline clip-path="url(#clip370)" style="stroke:#000000; stroke-linecap:round; stroke-linejoin:round; stroke-width:4; stroke-opacity:1; fill:none" points="229.445,325.722 248.343,325.722 "/>
<polyline clip-path="url(#clip370)" style="stroke:#000000; stroke-linecap:round; stroke-linejoin:round; stroke-width:4; stroke-opacity:1; fill:none" points="229.445,83.1074 248.343,83.1074 "/>
<path clip-path="url(#clip370)" d="M51.6634 1309.52 L59.3023 1309.52 L59.3023 1283.16 L50.9921 1284.83 L50.9921 1280.57 L59.256 1278.9 L63.9319 1278.9 L63.9319 1309.52 L71.5707 1309.52 L71.5707 1313.46 L51.6634 1313.46 L51.6634 1309.52 Z" fill="#000000" fill-rule="nonzero" fill-opacity="1" /><path clip-path="url(#clip370)" d="M91.5938 1294.32 Q88.4456 1294.32 86.5938 1296.47 Q84.7651 1298.62 84.7651 1302.37 Q84.7651 1306.1 86.5938 1308.27 Q88.4456 1310.43 91.5938 1310.43 Q94.7419 1310.43 96.5706 1308.27 Q98.4224 1306.1 98.4224 1302.37 Q98.4224 1298.62 96.5706 1296.47 Q94.7419 1294.32 91.5938 1294.32 M100.876 1279.66 L100.876 1283.92 Q99.1169 1283.09 97.3113 1282.65 Q95.5289 1282.21 93.7697 1282.21 Q89.1401 1282.21 86.6864 1285.33 Q84.2558 1288.46 83.9086 1294.78 Q85.2743 1292.77 87.3345 1291.7 Q89.3947 1290.61 91.8715 1290.61 Q97.0798 1290.61 100.089 1293.78 Q103.121 1296.93 103.121 1302.37 Q103.121 1307.7 99.9733 1310.91 Q96.8252 1314.13 91.5938 1314.13 Q85.5984 1314.13 82.4271 1309.55 Q79.2559 1304.94 79.2559 1296.21 Q79.2559 1288.02 83.1447 1283.16 Q87.0336 1278.27 93.5845 1278.27 Q95.3437 1278.27 97.1261 1278.62 Q98.9317 1278.97 100.876 1279.66 Z" fill="#000000" fill-rule="nonzero" fill-opacity="1" /><path clip-path="url(#clip370)" d="M111.223 1278.9 L129.58 1278.9 L129.58 1282.83 L115.506 1282.83 L115.506 1291.31 Q116.524 1290.96 117.543 1290.8 Q118.561 1290.61 119.58 1290.61 Q125.367 1290.61 128.746 1293.78 Q132.126 1296.95 132.126 1302.37 Q132.126 1307.95 128.654 1311.05 Q125.182 1314.13 118.862 1314.13 Q116.686 1314.13 114.418 1313.76 Q112.172 1313.39 109.765 1312.65 L109.765 1307.95 Q111.848 1309.08 114.07 1309.64 Q116.293 1310.2 118.77 1310.2 Q122.774 1310.2 125.112 1308.09 Q127.45 1305.98 127.45 1302.37 Q127.45 1298.76 125.112 1296.65 Q122.774 1294.55 118.77 1294.55 Q116.895 1294.55 115.02 1294.96 Q113.168 1295.38 111.223 1296.26 L111.223 1278.9 Z" fill="#000000" fill-rule="nonzero" fill-opacity="1" /><path clip-path="url(#clip370)" d="M151.339 1281.98 Q147.728 1281.98 145.899 1285.54 Q144.093 1289.08 144.093 1296.21 Q144.093 1303.32 145.899 1306.89 Q147.728 1310.43 151.339 1310.43 Q154.973 1310.43 156.779 1306.89 Q158.607 1303.32 158.607 1296.21 Q158.607 1289.08 156.779 1285.54 Q154.973 1281.98 151.339 1281.98 M151.339 1278.27 Q157.149 1278.27 160.205 1282.88 Q163.283 1287.46 163.283 1296.21 Q163.283 1304.94 160.205 1309.55 Q157.149 1314.13 151.339 1314.13 Q145.529 1314.13 142.45 1309.55 Q139.394 1304.94 139.394 1296.21 Q139.394 1287.46 142.45 1282.88 Q145.529 1278.27 151.339 1278.27 Z" fill="#000000" fill-rule="nonzero" fill-opacity="1" /><path clip-path="url(#clip370)" d="M181.501 1281.98 Q177.89 1281.98 176.061 1285.54 Q174.255 1289.08 174.255 1296.21 Q174.255 1303.32 176.061 1306.89 Q177.89 1310.43 181.501 1310.43 Q185.135 1310.43 186.94 1306.89 Q188.769 1303.32 188.769 1296.21 Q188.769 1289.08 186.94 1285.54 Q185.135 1281.98 181.501 1281.98 M181.501 1278.27 Q187.311 1278.27 190.366 1282.88 Q193.445 1287.46 193.445 1296.21 Q193.445 1304.94 190.366 1309.55 Q187.311 1314.13 181.501 1314.13 Q175.691 1314.13 172.612 1309.55 Q169.556 1304.94 169.556 1296.21 Q169.556 1287.46 172.612 1282.88 Q175.691 1278.27 181.501 1278.27 Z" fill="#000000" fill-rule="nonzero" fill-opacity="1" /><path clip-path="url(#clip370)" d="M51.6634 1066.91 L59.3023 1066.91 L59.3023 1040.54 L50.9921 1042.21 L50.9921 1037.95 L59.256 1036.29 L63.9319 1036.29 L63.9319 1066.91 L71.5707 1066.91 L71.5707 1070.85 L51.6634 1070.85 L51.6634 1066.91 Z" fill="#000000" fill-rule="nonzero" fill-opacity="1" /><path clip-path="url(#clip370)" d="M79.8346 1036.29 L102.057 1036.29 L102.057 1038.28 L89.5104 1070.85 L84.6262 1070.85 L96.4317 1040.22 L79.8346 1040.22 L79.8346 1036.29 Z" fill="#000000" fill-rule="nonzero" fill-opacity="1" /><path clip-path="url(#clip370)" d="M121.177 1039.36 Q117.566 1039.36 115.737 1042.93 Q113.932 1046.47 113.932 1053.6 Q113.932 1060.71 115.737 1064.27 Q117.566 1067.81 121.177 1067.81 Q124.811 1067.81 126.617 1064.27 Q128.445 1060.71 128.445 1053.6 Q128.445 1046.47 126.617 1042.93 Q124.811 1039.36 121.177 1039.36 M121.177 1035.66 Q126.987 1035.66 130.043 1040.27 Q133.121 1044.85 133.121 1053.6 Q133.121 1062.33 130.043 1066.93 Q126.987 1071.52 121.177 1071.52 Q115.367 1071.52 112.288 1066.93 Q109.233 1062.33 109.233 1053.6 Q109.233 1044.85 112.288 1040.27 Q115.367 1035.66 121.177 1035.66 Z" fill="#000000" fill-rule="nonzero" fill-opacity="1" /><path clip-path="url(#clip370)" d="M151.339 1039.36 Q147.728 1039.36 145.899 1042.93 Q144.093 1046.47 144.093 1053.6 Q144.093 1060.71 145.899 1064.27 Q147.728 1067.81 151.339 1067.81 Q154.973 1067.81 156.779 1064.27 Q158.607 1060.71 158.607 1053.6 Q158.607 1046.47 156.779 1042.93 Q154.973 1039.36 151.339 1039.36 M151.339 1035.66 Q157.149 1035.66 160.205 1040.27 Q163.283 1044.85 163.283 1053.6 Q163.283 1062.33 160.205 1066.93 Q157.149 1071.52 151.339 1071.52 Q145.529 1071.52 142.45 1066.93 Q139.394 1062.33 139.394 1053.6 Q139.394 1044.85 142.45 1040.27 Q145.529 1035.66 151.339 1035.66 Z" fill="#000000" fill-rule="nonzero" fill-opacity="1" /><path clip-path="url(#clip370)" d="M181.501 1039.36 Q177.89 1039.36 176.061 1042.93 Q174.255 1046.47 174.255 1053.6 Q174.255 1060.71 176.061 1064.27 Q177.89 1067.81 181.501 1067.81 Q185.135 1067.81 186.94 1064.27 Q188.769 1060.71 188.769 1053.6 Q188.769 1046.47 186.94 1042.93 Q185.135 1039.36 181.501 1039.36 M181.501 1035.66 Q187.311 1035.66 190.366 1040.27 Q193.445 1044.85 193.445 1053.6 Q193.445 1062.33 190.366 1066.93 Q187.311 1071.52 181.501 1071.52 Q175.691 1071.52 172.612 1066.93 Q169.556 1062.33 169.556 1053.6 Q169.556 1044.85 172.612 1040.27 Q175.691 1035.66 181.501 1035.66 Z" fill="#000000" fill-rule="nonzero" fill-opacity="1" /><path clip-path="url(#clip370)" d="M51.6634 824.295 L59.3023 824.295 L59.3023 797.93 L50.9921 799.597 L50.9921 795.337 L59.256 793.671 L63.9319 793.671 L63.9319 824.295 L71.5707 824.295 L71.5707 828.231 L51.6634 828.231 L51.6634 824.295 Z" fill="#000000" fill-rule="nonzero" fill-opacity="1" /><path clip-path="url(#clip370)" d="M79.8346 793.671 L102.057 793.671 L102.057 795.661 L89.5104 828.231 L84.6262 828.231 L96.4317 797.606 L79.8346 797.606 L79.8346 793.671 Z" fill="#000000" fill-rule="nonzero" fill-opacity="1" /><path clip-path="url(#clip370)" d="M111.223 793.671 L129.58 793.671 L129.58 797.606 L115.506 797.606 L115.506 806.078 Q116.524 805.731 117.543 805.569 Q118.561 805.384 119.58 805.384 Q125.367 805.384 128.746 808.555 Q132.126 811.726 132.126 817.143 Q132.126 822.721 128.654 825.823 Q125.182 828.902 118.862 828.902 Q116.686 828.902 114.418 828.532 Q112.172 828.161 109.765 827.42 L109.765 822.721 Q111.848 823.856 114.07 824.411 Q116.293 824.967 118.77 824.967 Q122.774 824.967 125.112 822.86 Q127.45 820.754 127.45 817.143 Q127.45 813.532 125.112 811.425 Q122.774 809.319 118.77 809.319 Q116.895 809.319 115.02 809.735 Q113.168 810.152 111.223 811.032 L111.223 793.671 Z" fill="#000000" fill-rule="nonzero" fill-opacity="1" /><path clip-path="url(#clip370)" d="M151.339 796.749 Q147.728 796.749 145.899 800.314 Q144.093 803.856 144.093 810.985 Q144.093 818.092 145.899 821.657 Q147.728 825.198 151.339 825.198 Q154.973 825.198 156.779 821.657 Q158.607 818.092 158.607 810.985 Q158.607 803.856 156.779 800.314 Q154.973 796.749 151.339 796.749 M151.339 793.046 Q157.149 793.046 160.205 797.652 Q163.283 802.235 163.283 810.985 Q163.283 819.712 160.205 824.319 Q157.149 828.902 151.339 828.902 Q145.529 828.902 142.45 824.319 Q139.394 819.712 139.394 810.985 Q139.394 802.235 142.45 797.652 Q145.529 793.046 151.339 793.046 Z" fill="#000000" fill-rule="nonzero" fill-opacity="1" /><path clip-path="url(#clip370)" d="M181.501 796.749 Q177.89 796.749 176.061 800.314 Q174.255 803.856 174.255 810.985 Q174.255 818.092 176.061 821.657 Q177.89 825.198 181.501 825.198 Q185.135 825.198 186.94 821.657 Q188.769 818.092 188.769 810.985 Q188.769 803.856 186.94 800.314 Q185.135 796.749 181.501 796.749 M181.501 793.046 Q187.311 793.046 190.366 797.652 Q193.445 802.235 193.445 810.985 Q193.445 819.712 190.366 824.319 Q187.311 828.902 181.501 828.902 Q175.691 828.902 172.612 824.319 Q169.556 819.712 169.556 810.985 Q169.556 802.235 172.612 797.652 Q175.691 793.046 181.501 793.046 Z" fill="#000000" fill-rule="nonzero" fill-opacity="1" /><path clip-path="url(#clip370)" d="M51.6634 581.681 L59.3023 581.681 L59.3023 555.315 L50.9921 556.982 L50.9921 552.723 L59.256 551.056 L63.9319 551.056 L63.9319 581.681 L71.5707 581.681 L71.5707 585.616 L51.6634 585.616 L51.6634 581.681 Z" fill="#000000" fill-rule="nonzero" fill-opacity="1" /><path clip-path="url(#clip370)" d="M91.0151 569.204 Q87.6817 569.204 85.7605 570.987 Q83.8623 572.769 83.8623 575.894 Q83.8623 579.019 85.7605 580.801 Q87.6817 582.584 91.0151 582.584 Q94.3484 582.584 96.2697 580.801 Q98.1909 578.996 98.1909 575.894 Q98.1909 572.769 96.2697 570.987 Q94.3715 569.204 91.0151 569.204 M86.3392 567.214 Q83.3299 566.473 81.6401 564.413 Q79.9735 562.352 79.9735 559.39 Q79.9735 555.246 82.9133 552.839 Q85.8762 550.431 91.0151 550.431 Q96.1771 550.431 99.1169 552.839 Q102.057 555.246 102.057 559.39 Q102.057 562.352 100.367 564.413 Q98.7002 566.473 95.7141 567.214 Q99.0937 568.001 100.969 570.292 Q102.867 572.584 102.867 575.894 Q102.867 580.917 99.7882 583.602 Q96.7326 586.288 91.0151 586.288 Q85.2975 586.288 82.2188 583.602 Q79.1633 580.917 79.1633 575.894 Q79.1633 572.584 81.0614 570.292 Q82.9595 568.001 86.3392 567.214 M84.6262 559.829 Q84.6262 562.515 86.2929 564.019 Q87.9827 565.524 91.0151 565.524 Q94.0243 565.524 95.7141 564.019 Q97.4271 562.515 97.4271 559.829 Q97.4271 557.144 95.7141 555.64 Q94.0243 554.135 91.0151 554.135 Q87.9827 554.135 86.2929 555.64 Q84.6262 557.144 84.6262 559.829 Z" fill="#000000" fill-rule="nonzero" fill-opacity="1" /><path clip-path="url(#clip370)" d="M121.177 554.135 Q117.566 554.135 115.737 557.7 Q113.932 561.241 113.932 568.371 Q113.932 575.477 115.737 579.042 Q117.566 582.584 121.177 582.584 Q124.811 582.584 126.617 579.042 Q128.445 575.477 128.445 568.371 Q128.445 561.241 126.617 557.7 Q124.811 554.135 121.177 554.135 M121.177 550.431 Q126.987 550.431 130.043 555.038 Q133.121 559.621 133.121 568.371 Q133.121 577.098 130.043 581.704 Q126.987 586.288 121.177 586.288 Q115.367 586.288 112.288 581.704 Q109.233 577.098 109.233 568.371 Q109.233 559.621 112.288 555.038 Q115.367 550.431 121.177 550.431 Z" fill="#000000" fill-rule="nonzero" fill-opacity="1" /><path clip-path="url(#clip370)" d="M151.339 554.135 Q147.728 554.135 145.899 557.7 Q144.093 561.241 144.093 568.371 Q144.093 575.477 145.899 579.042 Q147.728 582.584 151.339 582.584 Q154.973 582.584 156.779 579.042 Q158.607 575.477 158.607 568.371 Q158.607 561.241 156.779 557.7 Q154.973 554.135 151.339 554.135 M151.339 550.431 Q157.149 550.431 160.205 555.038 Q163.283 559.621 163.283 568.371 Q163.283 577.098 160.205 581.704 Q157.149 586.288 151.339 586.288 Q145.529 586.288 142.45 581.704 Q139.394 577.098 139.394 568.371 Q139.394 559.621 142.45 555.038 Q145.529 550.431 151.339 550.431 Z" fill="#000000" fill-rule="nonzero" fill-opacity="1" /><path clip-path="url(#clip370)" d="M181.501 554.135 Q177.89 554.135 176.061 557.7 Q174.255 561.241 174.255 568.371 Q174.255 575.477 176.061 579.042 Q177.89 582.584 181.501 582.584 Q185.135 582.584 186.94 579.042 Q188.769 575.477 188.769 568.371 Q188.769 561.241 186.94 557.7 Q185.135 554.135 181.501 554.135 M181.501 550.431 Q187.311 550.431 190.366 555.038 Q193.445 559.621 193.445 568.371 Q193.445 577.098 190.366 581.704 Q187.311 586.288 181.501 586.288 Q175.691 586.288 172.612 581.704 Q169.556 577.098 169.556 568.371 Q169.556 559.621 172.612 555.038 Q175.691 550.431 181.501 550.431 Z" fill="#000000" fill-rule="nonzero" fill-opacity="1" /><path clip-path="url(#clip370)" d="M51.6634 339.067 L59.3023 339.067 L59.3023 312.701 L50.9921 314.368 L50.9921 310.108 L59.256 308.442 L63.9319 308.442 L63.9319 339.067 L71.5707 339.067 L71.5707 343.002 L51.6634 343.002 L51.6634 339.067 Z" fill="#000000" fill-rule="nonzero" fill-opacity="1" /><path clip-path="url(#clip370)" d="M91.0151 326.59 Q87.6817 326.59 85.7605 328.372 Q83.8623 330.155 83.8623 333.28 Q83.8623 336.405 85.7605 338.187 Q87.6817 339.969 91.0151 339.969 Q94.3484 339.969 96.2697 338.187 Q98.1909 336.381 98.1909 333.28 Q98.1909 330.155 96.2697 328.372 Q94.3715 326.59 91.0151 326.59 M86.3392 324.599 Q83.3299 323.858 81.6401 321.798 Q79.9735 319.738 79.9735 316.775 Q79.9735 312.632 82.9133 310.224 Q85.8762 307.817 91.0151 307.817 Q96.1771 307.817 99.1169 310.224 Q102.057 312.632 102.057 316.775 Q102.057 319.738 100.367 321.798 Q98.7002 323.858 95.7141 324.599 Q99.0937 325.386 100.969 327.678 Q102.867 329.969 102.867 333.28 Q102.867 338.303 99.7882 340.988 Q96.7326 343.673 91.0151 343.673 Q85.2975 343.673 82.2188 340.988 Q79.1633 338.303 79.1633 333.28 Q79.1633 329.969 81.0614 327.678 Q82.9595 325.386 86.3392 324.599 M84.6262 317.215 Q84.6262 319.9 86.2929 321.405 Q87.9827 322.909 91.0151 322.909 Q94.0243 322.909 95.7141 321.405 Q97.4271 319.9 97.4271 317.215 Q97.4271 314.53 95.7141 313.025 Q94.0243 311.521 91.0151 311.521 Q87.9827 311.521 86.2929 313.025 Q84.6262 314.53 84.6262 317.215 Z" fill="#000000" fill-rule="nonzero" fill-opacity="1" /><path clip-path="url(#clip370)" d="M111.223 308.442 L129.58 308.442 L129.58 312.377 L115.506 312.377 L115.506 320.849 Q116.524 320.502 117.543 320.34 Q118.561 320.155 119.58 320.155 Q125.367 320.155 128.746 323.326 Q132.126 326.497 132.126 331.914 Q132.126 337.493 128.654 340.594 Q125.182 343.673 118.862 343.673 Q116.686 343.673 114.418 343.303 Q112.172 342.932 109.765 342.192 L109.765 337.493 Q111.848 338.627 114.07 339.182 Q116.293 339.738 118.77 339.738 Q122.774 339.738 125.112 337.631 Q127.45 335.525 127.45 331.914 Q127.45 328.303 125.112 326.196 Q122.774 324.09 118.77 324.09 Q116.895 324.09 115.02 324.507 Q113.168 324.923 111.223 325.803 L111.223 308.442 Z" fill="#000000" fill-rule="nonzero" fill-opacity="1" /><path clip-path="url(#clip370)" d="M151.339 311.521 Q147.728 311.521 145.899 315.085 Q144.093 318.627 144.093 325.757 Q144.093 332.863 145.899 336.428 Q147.728 339.969 151.339 339.969 Q154.973 339.969 156.779 336.428 Q158.607 332.863 158.607 325.757 Q158.607 318.627 156.779 315.085 Q154.973 311.521 151.339 311.521 M151.339 307.817 Q157.149 307.817 160.205 312.423 Q163.283 317.007 163.283 325.757 Q163.283 334.483 160.205 339.09 Q157.149 343.673 151.339 343.673 Q145.529 343.673 142.45 339.09 Q139.394 334.483 139.394 325.757 Q139.394 317.007 142.45 312.423 Q145.529 307.817 151.339 307.817 Z" fill="#000000" fill-rule="nonzero" fill-opacity="1" /><path clip-path="url(#clip370)" d="M181.501 311.521 Q177.89 311.521 176.061 315.085 Q174.255 318.627 174.255 325.757 Q174.255 332.863 176.061 336.428 Q177.89 339.969 181.501 339.969 Q185.135 339.969 186.94 336.428 Q188.769 332.863 188.769 325.757 Q188.769 318.627 186.94 315.085 Q185.135 311.521 181.501 311.521 M181.501 307.817 Q187.311 307.817 190.366 312.423 Q193.445 317.007 193.445 325.757 Q193.445 334.483 190.366 339.09 Q187.311 343.673 181.501 343.673 Q175.691 343.673 172.612 339.09 Q169.556 334.483 169.556 325.757 Q169.556 317.007 172.612 312.423 Q175.691 307.817 181.501 307.817 Z" fill="#000000" fill-rule="nonzero" fill-opacity="1" /><path clip-path="url(#clip370)" d="M51.6634 96.4522 L59.3023 96.4522 L59.3023 70.0866 L50.9921 71.7533 L50.9921 67.4941 L59.256 65.8274 L63.9319 65.8274 L63.9319 96.4522 L71.5707 96.4522 L71.5707 100.387 L51.6634 100.387 L51.6634 96.4522 Z" fill="#000000" fill-rule="nonzero" fill-opacity="1" /><path clip-path="url(#clip370)" d="M81.154 99.6698 L81.154 95.4106 Q82.9133 96.2439 84.7188 96.6837 Q86.5243 97.1235 88.2604 97.1235 Q92.89 97.1235 95.3206 94.0217 Q97.7743 90.8967 98.1215 84.5542 Q96.7789 86.5449 94.7187 87.6097 Q92.6586 88.6745 90.1586 88.6745 Q84.9734 88.6745 81.941 85.5495 Q78.9318 82.4014 78.9318 76.9616 Q78.9318 71.6376 82.0799 68.42 Q85.2281 65.2024 90.4595 65.2024 Q96.4548 65.2024 99.603 69.8089 Q102.774 74.3922 102.774 83.1421 Q102.774 91.3134 98.8854 96.1976 Q95.0197 101.059 88.4688 101.059 Q86.7095 101.059 84.904 100.711 Q83.0984 100.364 81.154 99.6698 M90.4595 85.0171 Q93.6076 85.0171 95.4363 82.8643 Q97.2882 80.7116 97.2882 76.9616 Q97.2882 73.2348 95.4363 71.082 Q93.6076 68.9061 90.4595 68.9061 Q87.3114 68.9061 85.4595 71.082 Q83.6308 73.2348 83.6308 76.9616 Q83.6308 80.7116 85.4595 82.8643 Q87.3114 85.0171 90.4595 85.0171 Z" fill="#000000" fill-rule="nonzero" fill-opacity="1" /><path clip-path="url(#clip370)" d="M121.177 68.9061 Q117.566 68.9061 115.737 72.4709 Q113.932 76.0125 113.932 83.1421 Q113.932 90.2486 115.737 93.8134 Q117.566 97.355 121.177 97.355 Q124.811 97.355 126.617 93.8134 Q128.445 90.2486 128.445 83.1421 Q128.445 76.0125 126.617 72.4709 Q124.811 68.9061 121.177 68.9061 M121.177 65.2024 Q126.987 65.2024 130.043 69.8089 Q133.121 74.3922 133.121 83.1421 Q133.121 91.8689 130.043 96.4754 Q126.987 101.059 121.177 101.059 Q115.367 101.059 112.288 96.4754 Q109.233 91.8689 109.233 83.1421 Q109.233 74.3922 112.288 69.8089 Q115.367 65.2024 121.177 65.2024 Z" fill="#000000" fill-rule="nonzero" fill-opacity="1" /><path clip-path="url(#clip370)" d="M151.339 68.9061 Q147.728 68.9061 145.899 72.4709 Q144.093 76.0125 144.093 83.1421 Q144.093 90.2486 145.899 93.8134 Q147.728 97.355 151.339 97.355 Q154.973 97.355 156.779 93.8134 Q158.607 90.2486 158.607 83.1421 Q158.607 76.0125 156.779 72.4709 Q154.973 68.9061 151.339 68.9061 M151.339 65.2024 Q157.149 65.2024 160.205 69.8089 Q163.283 74.3922 163.283 83.1421 Q163.283 91.8689 160.205 96.4754 Q157.149 101.059 151.339 101.059 Q145.529 101.059 142.45 96.4754 Q139.394 91.8689 139.394 83.1421 Q139.394 74.3922 142.45 69.8089 Q145.529 65.2024 151.339 65.2024 Z" fill="#000000" fill-rule="nonzero" fill-opacity="1" /><path clip-path="url(#clip370)" d="M181.501 68.9061 Q177.89 68.9061 176.061 72.4709 Q174.255 76.0125 174.255 83.1421 Q174.255 90.2486 176.061 93.8134 Q177.89 97.355 181.501 97.355 Q185.135 97.355 186.94 93.8134 Q188.769 90.2486 188.769 83.1421 Q188.769 76.0125 186.94 72.4709 Q185.135 68.9061 181.501 68.9061 M181.501 65.2024 Q187.311 65.2024 190.366 69.8089 Q193.445 74.3922 193.445 83.1421 Q193.445 91.8689 190.366 96.4754 Q187.311 101.059 181.501 101.059 Q175.691 101.059 172.612 96.4754 Q169.556 91.8689 169.556 83.1421 Q169.556 74.3922 172.612 69.8089 Q175.691 65.2024 181.501 65.2024 Z" fill="#000000" fill-rule="nonzero" fill-opacity="1" /><polyline clip-path="url(#clip372)" style="stroke:#009af9; stroke-linecap:round; stroke-linejoin:round; stroke-width:4; stroke-opacity:1; fill:none" points="289.539,667.449 291.542,667.495 293.545,667.538 295.548,667.579 297.551,667.618 299.554,667.655 301.558,667.69 303.561,667.723 305.564,667.755 307.567,667.785 309.57,1066.19 311.573,1066.23 313.576,1066.27 315.579,1066.3 317.582,1066.33 319.586,1066.36 321.589,1066.38 323.592,1066.4 325.595,1066.42 327.598,1066.44 329.601,846.92 331.604,847.071 333.607,847.208 335.611,847.333 337.614,847.448 339.617,847.554 341.62,847.654 343.623,847.748 345.626,847.837 347.629,847.922 349.632,653.302 351.636,653.38 353.639,653.449 355.642,653.512 357.645,653.569 359.648,653.622 361.651,653.671 363.654,653.717 365.657,653.761 367.661,653.802 369.664,700.062 371.667,700.257 373.67,700.419 375.673,700.555 377.676,700.671 379.679,700.772 381.682,700.861 383.686,700.941 385.689,701.013 387.692,701.079 389.695,737.085 391.698,737.166 393.701,737.233 395.704,737.289 397.707,737.337 399.711,737.379 401.714,737.415 403.717,737.447 405.72,737.476 407.723,737.502 409.726,840.474 411.729,840.755 413.732,840.977 415.736,841.154 417.739,841.297 419.742,841.414 421.745,841.511 423.748,841.592 425.751,841.661 427.754,841.72 429.757,545.912 431.761,545.945 433.764,545.976 435.767,546.006 437.77,546.035 439.773,546.063 441.776,546.09 443.779,546.117 445.782,546.142 447.786,546.168 449.789,659.142 451.792,659.353 453.795,659.515 455.798,659.639 457.801,659.734 459.804,659.809 461.807,659.867 463.811,659.914 465.814,659.951 467.817,659.982 469.82,908.146 471.823,908.172 473.826,908.195 475.829,908.215 477.832,908.233 479.835,908.249 481.839,908.264 483.842,908.278 485.845,908.291 487.848,908.303 489.851,985.005 491.854,985.105 493.857,985.189 495.86,985.26 497.864,985.322 499.867,985.375 501.87,985.423 503.873,985.465 505.876,985.504 507.879,985.539 509.882,727.188 511.885,727.242 513.889,727.291 515.892,727.335 517.895,727.375 519.898,727.412 521.901,727.446 523.904,727.478 525.907,727.508 527.91,727.536 529.914,667.476 531.917,667.542 533.92,667.605 535.923,667.663 537.926,667.719 539.929,667.771 541.932,667.821 543.935,667.869 545.939,667.914 547.942,667.957 549.945,808.402 551.948,808.576 553.951,808.73 555.954,808.868 557.957,808.992 559.96,809.106 561.964,809.212 563.967,809.31 565.97,809.402 567.973,809.489 569.976,1295.49 571.979,1295.63 573.982,1295.76 575.985,1295.87 577.989,1295.98 579.992,1296.08 581.995,1296.17 583.998,1296.25 586.001,1296.34 588.004,1296.41 590.007,488.575 592.01,488.617 594.014,488.658 596.017,488.697 598.02,488.734 600.023,488.77 602.026,488.804 604.029,488.837 606.032,488.869 608.035,488.899 610.039,326.53 612.042,327.072 614.045,327.48 616.048,327.788 618.051,328.024 620.054,328.206 622.057,328.348 624.06,328.461 626.064,328.551 628.067,328.625 630.07,829.362 632.073,829.388 634.076,829.411 636.079,829.433 638.082,829.453 640.085,829.473 642.088,829.491 644.092,829.508 646.095,829.524 648.098,829.54 650.101,1018.81 652.104,1019.08 654.107,1019.32 656.11,1019.54 658.113,1019.74 660.117,1019.92 662.12,1020.09 664.123,1020.24 666.126,1020.39 668.129,1020.53 670.132,470.555 672.135,470.731 674.138,470.88 676.142,471.01 678.145,471.123 680.148,471.224 682.151,471.315 684.154,471.398 686.157,471.474 688.16,471.545 690.163,845.689 692.167,845.999 694.17,846.241 696.173,846.432 698.176,846.584 700.179,846.707 702.182,846.808 704.185,846.892 706.188,846.962 708.192,847.023 710.195,498.146 712.198,498.479 714.201,498.765 716.204,499.015 718.207,499.236 720.21,499.434 722.213,499.613 724.217,499.776 726.22,499.926 728.223,500.065 730.226,591.967 732.229,592.094 734.232,592.194 736.235,592.273 738.238,592.337 740.242,592.39 742.245,592.434 744.248,592.471 746.251,592.503 748.254,592.531 750.257,731.718 752.26,731.895 754.263,732.042 756.267,732.166 758.27,732.273 760.273,732.366 762.276,732.448 764.279,732.522 766.282,732.588 768.285,732.65 770.288,607.722 772.292,608.196 774.295,608.559 776.298,608.837 778.301,609.054 780.304,609.223 782.307,609.356 784.31,609.464 786.313,609.551 788.317,609.622 790.32,771.271 792.323,771.586 794.326,771.83 796.329,772.02 798.332,772.169 800.335,772.287 802.338,772.38 804.341,772.455 806.345,772.516 808.348,772.566 810.351,596.264 812.354,596.594 814.357,596.842 816.36,597.031 818.363,597.173 820.366,597.282 822.37,597.365 824.373,597.43 826.376,597.48 828.379,597.519 830.382,517.114 832.385,517.449 834.388,517.705 836.391,517.904 838.395,518.058 840.398,518.18 842.401,518.277 844.404,518.355 846.407,518.42 848.41,518.474 850.413,614.333 852.416,614.461 854.42,614.564 856.423,614.649 858.426,614.72 860.429,614.78 862.432,614.832 864.435,614.878 866.438,614.919 868.441,614.956 870.445,440.819 872.448,440.877 874.451,440.931 876.454,440.982 878.457,441.029 880.46,441.074 882.463,441.117 884.466,441.158 886.47,441.197 888.473,441.234 890.476,563.018 892.479,563.382 894.482,563.667 896.485,563.893 898.488,564.073 900.491,564.219 902.495,564.339 904.498,564.439 906.501,564.524 908.504,564.596 910.507,753.998 912.51,754.26 914.513,754.466 916.516,754.63 918.52,754.762 920.523,754.87 922.526,754.959 924.529,755.034 926.532,755.098 928.535,755.153 930.538,401.875 932.541,402.292 934.545,402.624 936.548,402.894 938.551,403.115 940.554,403.299 942.557,403.455 944.56,403.589 946.563,403.705 948.566,403.808 950.57,565.845 952.573,566.03 954.576,566.177 956.579,566.296 958.582,566.394 960.585,566.476 962.588,566.544 964.591,566.603 966.594,566.653 968.598,566.698 970.601,996.934 972.604,997.015 974.607,997.09 976.61,997.16 978.613,997.226 980.616,997.289 982.619,997.348 984.623,997.404 986.626,997.458 988.629,997.509 990.632,580.854 992.635,581.15 994.638,581.376 996.641,581.549 998.644,581.684 1000.65,581.789 1002.65,581.872 1004.65,581.937 1006.66,581.991 1008.66,582.034 1010.66,984.536 1012.67,984.712 1014.67,984.851 1016.67,984.962 1018.68,985.052 1020.68,985.126 1022.68,985.186 1024.69,985.238 1026.69,985.281 1028.69,985.319 1030.69,574.103 1032.7,574.325 1034.7,574.515 1036.7,574.68 1038.71,574.824 1040.71,574.954 1042.71,575.07 1044.72,575.177 1046.72,575.275 1048.72,575.367 1050.73,678.3 1052.73,678.545 1054.73,678.742 1056.74,678.9 1058.74,679.03 1060.74,679.138 1062.74,679.229 1064.75,679.307 1066.75,679.375 1068.75,679.436 1070.76,485.759 1072.76,486.182 1074.76,486.516 1076.77,486.782 1078.77,486.996 1080.77,487.17 1082.78,487.315 1084.78,487.436 1086.78,487.54 1088.79,487.629 1090.79,379.583 1092.79,379.743 1094.79,379.886 1096.8,380.015 1098.8,380.134 1100.8,380.243 1102.81,380.344 1104.81,380.437 1106.81,380.525 1108.82,380.608 1110.82,915.464 1112.82,915.588 1114.83,915.702 1116.83,915.807 1118.83,915.905 1120.83,915.997 1122.84,916.082 1124.84,916.163 1126.84,916.239 1128.85,916.312 1130.85,362.349 1132.85,362.493 1134.86,362.617 1136.86,362.725 1138.86,362.821 1140.87,362.906 1142.87,362.983 1144.87,363.054 1146.88,363.118 1148.88,363.179 1150.88,550.528 1152.88,550.771 1154.89,550.975 1156.89,551.147 1158.89,551.296 1160.9,551.426 1162.9,551.542 1164.9,551.647 1166.91,551.743 1168.91,551.831 1170.91,544.719 1172.92,544.771 1174.92,544.815 1176.92,544.853 1178.93,544.886 1180.93,544.917 1182.93,544.944 1184.93,544.969 1186.94,544.992 1188.94,545.013 1190.94,720.521 1192.95,720.749 1194.95,720.931 1196.95,721.08 1198.96,721.202 1200.96,721.305 1202.96,721.392 1204.97,721.467 1206.97,721.533 1208.97,721.592 1210.98,87.9763 1212.98,88.0342 1214.98,88.0876 1216.98,88.1374 1218.99,88.1841 1220.99,88.2282 1222.99,88.2701 1225,88.31 1227,88.3482 1229,88.3848 1231.01,824.422 1233.01,824.612 1235.01,824.768 1237.02,824.899 1239.02,825.01 1241.02,825.106 1243.03,825.19 1245.03,825.265 1247.03,825.332 1249.03,825.394 1251.04,679.918 1253.04,680.003 1255.04,680.074 1257.05,680.136 1259.05,680.189 1261.05,680.236 1263.06,680.278 1265.06,680.316 1267.06,680.351 1269.07,680.383 1271.07,717.689 1273.07,717.787 1275.08,717.878 1277.08,717.962 1279.08,718.042 1281.08,718.117 1283.09,718.188 1285.09,718.256 1287.09,718.32 1289.1,718.381 1291.1,646.764 1293.1,646.981 1295.11,647.155 1297.11,647.296 1299.11,647.412 1301.12,647.508 1303.12,647.589 1305.12,647.659 1307.13,647.719 1309.13,647.772 1311.13,390.913 1313.13,391.107 1315.14,391.267 1317.14,391.403 1319.14,391.519 1321.15,391.62 1323.15,391.71 1325.15,391.791 1327.16,391.864 1329.16,391.931 1331.16,803.509 1333.17,803.741 1335.17,803.932 1337.17,804.091 1339.18,804.226 1341.18,804.342 1343.18,804.442 1345.18,804.531 1347.19,804.611 1349.19,804.683 1351.19,739.792 1353.2,739.924 1355.2,740.042 1357.2,740.147 1359.21,740.244 1361.21,740.333 1363.21,740.415 1365.22,740.491 1367.22,740.563 1369.22,740.63 1371.23,680.761 1373.23,680.953 1375.23,681.104 1377.23,681.222 1379.24,681.317 1381.24,681.394 1383.24,681.456 1385.25,681.509 1387.25,681.553 1389.25,681.59 1391.26,907.281 1393.26,907.507 1395.26,907.695 1397.27,907.852 1399.27,907.986 1401.27,908.102 1403.28,908.203 1405.28,908.292 1407.28,908.372 1409.28,908.445 1411.29,1140.8 1413.29,1141.1 1415.29,1141.34 1417.3,1141.54 1419.3,1141.71 1421.3,1141.86 1423.31,1141.98 1425.31,1142.09 1427.31,1142.18 1429.32,1142.26 1431.32,801.174 1433.32,801.321 1435.33,801.433 1437.33,801.521 1439.33,801.589 1441.33,801.642 1443.34,801.684 1445.34,801.718 1447.34,801.746 1449.35,801.768 1451.35,1077.74 1453.35,1077.94 1455.36,1078.12 1457.36,1078.27 1459.36,1078.41 1461.37,1078.53 1463.37,1078.64 1465.37,1078.74 1467.38,1078.83 1469.38,1078.91 1471.38,830.604 1473.38,830.788 1475.39,830.944 1477.39,831.079 1479.39,831.197 1481.4,831.302 1483.4,831.396 1485.4,831.481 1487.41,831.559 1489.41,831.632 1491.41,1049.27 1493.42,1049.35 1495.42,1049.43 1497.42,1049.5 1499.43,1049.57 1501.43,1049.63 1503.43,1049.69 1505.43,1049.75 1507.44,1049.8 1509.44,1049.85 1511.44,850.925 1513.45,851.113 1515.45,851.281 1517.45,851.431 1519.46,851.568 1521.46,851.693 1523.46,851.808 1525.47,851.915 1527.47,852.016 1529.47,852.11 1531.48,450.281 1533.48,450.387 1535.48,450.482 1537.48,450.569 1539.49,450.649 1541.49,450.723 1543.49,450.791 1545.5,450.856 1547.5,450.916 1549.5,450.973 1551.51,1021.82 1553.51,1021.91 1555.51,1021.99 1557.52,1022.05 1559.52,1022.11 1561.52,1022.16 1563.53,1022.21 1565.53,1022.25 1567.53,1022.28 1569.53,1022.31 1571.54,1077.62 1573.54,1077.69 1575.54,1077.75 1577.55,1077.81 1579.55,1077.86 1581.55,1077.91 1583.56,1077.95 1585.56,1078 1587.56,1078.04 1589.57,1078.07 1591.57,1023.04 1593.57,1023.29 1595.58,1023.51 1597.58,1023.7 1599.58,1023.87 1601.58,1024.03 1603.59,1024.18 1605.59,1024.31 1607.59,1024.43 1609.6,1024.55 1611.6,1125.64 1613.6,1126.12 1615.61,1126.52 1617.61,1126.84 1619.61,1127.1 1621.62,1127.32 1623.62,1127.51 1625.62,1127.67 1627.63,1127.8 1629.63,1127.92 1631.63,1444.74 1633.63,1444.88 1635.64,1445.01 1637.64,1445.13 1639.64,1445.24 1641.65,1445.34 1643.65,1445.44 1645.65,1445.54 1647.66,1445.63 1649.66,1445.72 1651.66,944.963 1653.67,945.507 1655.67,945.926 1657.67,946.252 1659.68,946.506 1661.68,946.705 1663.68,946.862 1665.68,946.987 1667.69,947.087 1669.69,947.168 1671.69,1397.52 1673.7,1397.64 1675.7,1397.76 1677.7,1397.87 1679.71,1397.97 1681.71,1398.07 1683.71,1398.16 1685.72,1398.24 1687.72,1398.32 1689.72,1398.4 1691.73,931.324 1693.73,931.391 1695.73,931.452 1697.73,931.509 1699.74,931.563 1701.74,931.614 1703.74,931.661 1705.75,931.707 1707.75,931.75 1709.75,931.792 1711.76,982.29 1713.76,982.699 1715.76,983.036 1717.77,983.316 1719.77,983.553 1721.77,983.754 1723.78,983.929 1725.78,984.081 1727.78,984.215 1729.78,984.335 1731.79,691.752 1733.79,692 1735.79,692.219 1737.8,692.413 1739.8,692.587 1741.8,692.745 1743.81,692.889 1745.81,693.022 1747.81,693.145 1749.82,693.259 1751.82,1070.19 1753.82,1070.39 1755.83,1070.54 1757.83,1070.66 1759.83,1070.76 1761.83,1070.83 1763.84,1070.89 1765.84,1070.94 1767.84,1070.99 1769.85,1071.02 1771.85,705.459 1773.85,706.168 1775.86,706.727 1777.86,707.17 1779.86,707.527 1781.87,707.816 1783.87,708.054 1785.87,708.252 1787.88,708.419 1789.88,708.562 1791.88,877.683 1793.88,878.054 1795.89,878.344 1797.89,878.572 1799.89,878.753 1801.9,878.898 1803.9,879.016 1805.9,879.112 1807.91,879.193 1809.91,879.261 1811.91,879.849 1813.92,879.958 1815.92,880.06 1817.92,880.156 1819.93,880.247 1821.93,880.334 1823.93,880.416 1825.93,880.494 1827.94,880.568 1829.94,880.638 1831.94,657.709 1833.95,657.89 1835.95,658.034 1837.95,658.151 1839.96,658.246 1841.96,658.326 1843.96,658.394 1845.97,658.452 1847.97,658.503 1849.97,658.548 1851.98,1007.48 1853.98,1007.6 1855.98,1007.7 1857.98,1007.79 1859.99,1007.87 1861.99,1007.95 1863.99,1008.02 1866,1008.09 1868,1008.15 1870,1008.22 1872.01,575.164 1874.01,575.221 1876.01,575.272 1878.02,575.319 1880.02,575.362 1882.02,575.402 1884.03,575.44 1886.03,575.475 1888.03,575.509 1890.03,575.541 1892.04,611.589 1894.04,611.652 1896.04,611.711 1898.05,611.765 1900.05,611.815 1902.05,611.863 1904.06,611.908 1906.06,611.95 1908.06,611.991 1910.07,612.029 1912.07,651.885 1914.07,651.94 1916.07,651.989 1918.08,652.033 1920.08,652.073 1922.08,652.11 1924.09,652.145 1926.09,652.178 1928.09,652.208 1930.1,652.237 1932.1,465.356 1934.1,465.596 1936.11,465.78 1938.11,465.922 1940.11,466.034 1942.12,466.122 1944.12,466.192 1946.12,466.25 1948.12,466.298 1950.13,466.339 1952.13,909.929 1954.13,910.011 1956.14,910.081 1958.14,910.143 1960.14,910.196 1962.15,910.245 1964.15,910.288 1966.15,910.327 1968.16,910.364 1970.16,910.397 1972.16,839.382 1974.17,839.477 1976.17,839.554 1978.17,839.617 1980.17,839.669 1982.18,839.713 1984.18,839.751 1986.18,839.784 1988.19,839.814 1990.19,839.84 1992.19,984.907 1994.2,984.996 1996.2,985.077 1998.2,985.151 2000.21,985.219 2002.21,985.282 2004.21,985.341 2006.22,985.396 2008.22,985.447 2010.22,985.496 2012.22,258.374 2014.23,258.453 2016.23,258.527 2018.23,258.598 2020.24,258.666 2022.24,258.732 2024.24,258.795 2026.25,258.857 2028.25,258.916 2030.25,258.974 2032.26,518.389 2034.26,518.58 2036.26,518.738 2038.27,518.871 2040.27,518.986 2042.27,519.086 2044.27,519.174 2046.28,519.253 2048.28,519.325 2050.28,519.392 2052.29,727.796 2054.29,727.863 2056.29,727.926 2058.3,727.986 2060.3,728.042 2062.3,728.095 2064.31,728.145 2066.31,728.192 2068.31,728.237 2070.32,728.28 2072.32,680.652 2074.32,680.909 2076.32,681.108 2078.33,681.264 2080.33,681.387 2082.33,681.485 2084.34,681.565 2086.34,681.631 2088.34,681.685 2090.35,681.731 2092.35,476.844 2094.35,477.153 2096.36,477.388 2098.36,477.569 2100.36,477.709 2102.37,477.818 2104.37,477.905 2106.37,477.974 2108.37,478.03 2110.38,478.075 2112.38,287.934 2114.38,288.273 2116.39,288.532 2118.39,288.729 2120.39,288.882 2122.4,289 2124.4,289.093 2126.4,289.167 2128.41,289.227 2130.41,289.276 2132.41,408.155 2134.42,408.176 2136.42,408.194 2138.42,408.208 2140.42,408.22 2142.43,408.231 2144.43,408.24 2146.43,408.248 2148.44,408.255 2150.44,408.262 2152.44,665.851 2154.45,665.988 2156.45,666.101 2158.45,666.197 2160.46,666.279 2162.46,666.35 2164.46,666.413 2166.47,666.469 2168.47,666.52 2170.47,666.566 2172.47,960.689 2174.48,960.964 2176.48,961.195 2178.48,961.393 2180.49,961.564 2182.49,961.715 2184.49,961.85 2186.5,961.971 2188.5,962.081 2190.5,962.183 2192.51,652.136 2194.51,652.314 2196.51,652.456 2198.52,652.571 2200.52,652.665 2202.52,652.744 2204.52,652.81 2206.53,652.866 2208.53,652.915 2210.53,652.958 2212.54,407.457 2214.54,407.649 2216.54,407.811 2218.55,407.95 2220.55,408.07 2222.55,408.177 2224.56,408.271 2226.56,408.357 2228.56,408.434 2230.57,408.506 2232.57,785.997 2234.57,786.088 2236.57,786.175 2238.58,786.259 2240.58,786.34 2242.58,786.419 2244.59,786.495 2246.59,786.568 2248.59,786.639 2250.6,786.707 2252.6,381.795 2254.6,382.038 2256.61,382.236 2258.61,382.4 2260.61,382.538 2262.62,382.657 2264.62,382.76 2266.62,382.851 2268.62,382.932 2270.63,383.005 2272.63,204.338 2274.63,204.41 2276.64,204.474 2278.64,204.53 2280.64,204.582 2282.65,204.629 2284.65,204.673 2286.65,204.715 2288.66,204.753 2290.66,204.79 2292.66,204.826 "/>
<path clip-path="url(#clip370)" d="M2017.22 1438.47 L2281.98 1438.47 L2281.98 1334.79 L2017.22 1334.79  Z" fill="#ffffff" fill-rule="evenodd" fill-opacity="1"/>
<polyline clip-path="url(#clip370)" style="stroke:#000000; stroke-linecap:round; stroke-linejoin:round; stroke-width:4; stroke-opacity:1; fill:none" points="2017.22,1438.47 2281.98,1438.47 2281.98,1334.79 2017.22,1334.79 2017.22,1438.47 "/>
<polyline clip-path="url(#clip370)" style="stroke:#009af9; stroke-linecap:round; stroke-linejoin:round; stroke-width:4; stroke-opacity:1; fill:none" points="2040.81,1386.63 2182.36,1386.63 "/>
<path clip-path="url(#clip370)" d="M2219.8 1406.32 Q2217.99 1410.95 2216.28 1412.36 Q2214.57 1413.78 2211.7 1413.78 L2208.29 1413.78 L2208.29 1410.21 L2210.79 1410.21 Q2212.55 1410.21 2213.53 1409.38 Q2214.5 1408.54 2215.68 1405.44 L2216.44 1403.5 L2205.96 1377.99 L2210.47 1377.99 L2218.57 1398.27 L2226.67 1377.99 L2231.19 1377.99 L2219.8 1406.32 Z" fill="#000000" fill-rule="nonzero" fill-opacity="1" /><path clip-path="url(#clip370)" d="M2238.48 1399.98 L2246.12 1399.98 L2246.12 1373.61 L2237.81 1375.28 L2237.81 1371.02 L2246.07 1369.35 L2250.75 1369.35 L2250.75 1399.98 L2258.39 1399.98 L2258.39 1403.91 L2238.48 1403.91 L2238.48 1399.98 Z" fill="#000000" fill-rule="nonzero" fill-opacity="1" /></svg>
