<?xml version="1.0" encoding="utf-8"?>
<svg xmlns="http://www.w3.org/2000/svg" xmlns:xlink="http://www.w3.org/1999/xlink" width="600" height="400" viewBox="0 0 2400 1600">
<defs>
  <clipPath id="clip890">
    <rect x="0" y="0" width="2400" height="1600"/>
  </clipPath>
</defs>
<path clip-path="url(#clip890)" d="M0 1600 L2400 1600 L2400 0 L0 0  Z" fill="#ffffff" fill-rule="evenodd" fill-opacity="1"/>
<defs>
  <clipPath id="clip891">
    <rect x="480" y="0" width="1681" height="1600"/>
  </clipPath>
</defs>
<path clip-path="url(#clip890)" d="M156.112 1486.45 L2352.76 1486.45 L2352.76 47.2441 L156.112 47.2441  Z" fill="#ffffff" fill-rule="evenodd" fill-opacity="1"/>
<defs>
  <clipPath id="clip892">
    <rect x="156" y="47" width="2198" height="1440"/>
  </clipPath>
</defs>
<polyline clip-path="url(#clip892)" style="stroke:#000000; stroke-linecap:round; stroke-linejoin:round; stroke-width:2; stroke-opacity:0.1; fill:none" points="218.281,1486.45 218.281,47.2441 "/>
<polyline clip-path="url(#clip892)" style="stroke:#000000; stroke-linecap:round; stroke-linejoin:round; stroke-width:2; stroke-opacity:0.1; fill:none" points="736.358,1486.45 736.358,47.2441 "/>
<polyline clip-path="url(#clip892)" style="stroke:#000000; stroke-linecap:round; stroke-linejoin:round; stroke-width:2; stroke-opacity:0.1; fill:none" points="1254.43,1486.45 1254.43,47.2441 "/>
<polyline clip-path="url(#clip892)" style="stroke:#000000; stroke-linecap:round; stroke-linejoin:round; stroke-width:2; stroke-opacity:0.1; fill:none" points="1772.51,1486.45 1772.51,47.2441 "/>
<polyline clip-path="url(#clip892)" style="stroke:#000000; stroke-linecap:round; stroke-linejoin:round; stroke-width:2; stroke-opacity:0.1; fill:none" points="2290.59,1486.45 2290.59,47.2441 "/>
<polyline clip-path="url(#clip890)" style="stroke:#000000; stroke-linecap:round; stroke-linejoin:round; stroke-width:4; stroke-opacity:1; fill:none" points="156.112,1486.45 2352.76,1486.45 "/>
<polyline clip-path="url(#clip890)" style="stroke:#000000; stroke-linecap:round; stroke-linejoin:round; stroke-width:4; stroke-opacity:1; fill:none" points="218.281,1486.45 218.281,1467.55 "/>
<polyline clip-path="url(#clip890)" style="stroke:#000000; stroke-linecap:round; stroke-linejoin:round; stroke-width:4; stroke-opacity:1; fill:none" points="736.358,1486.45 736.358,1467.55 "/>
<polyline clip-path="url(#clip890)" style="stroke:#000000; stroke-linecap:round; stroke-linejoin:round; stroke-width:4; stroke-opacity:1; fill:none" points="1254.43,1486.45 1254.43,1467.55 "/>
<polyline clip-path="url(#clip890)" style="stroke:#000000; stroke-linecap:round; stroke-linejoin:round; stroke-width:4; stroke-opacity:1; fill:none" points="1772.51,1486.45 1772.51,1467.55 "/>
<polyline clip-path="url(#clip890)" style="stroke:#000000; stroke-linecap:round; stroke-linejoin:round; stroke-width:4; stroke-opacity:1; fill:none" points="2290.59,1486.45 2290.59,1467.55 "/>
<path clip-path="url(#clip890)" d="M218.281 1517.37 Q214.67 1517.37 212.842 1520.93 Q211.036 1524.47 211.036 1531.6 Q211.036 1538.71 212.842 1542.27 Q214.67 1545.82 218.281 1545.82 Q221.916 1545.82 223.721 1542.27 Q225.55 1538.71 225.55 1531.6 Q225.55 1524.47 223.721 1520.93 Q221.916 1517.37 218.281 1517.37 M218.281 1513.66 Q224.091 1513.66 227.147 1518.27 Q230.226 1522.85 230.226 1531.6 Q230.226 1540.33 227.147 1544.94 Q224.091 1549.52 218.281 1549.52 Q212.471 1549.52 209.392 1544.94 Q206.337 1540.33 206.337 1531.6 Q206.337 1522.85 209.392 1518.27 Q212.471 1513.66 218.281 1513.66 Z" fill="#000000" fill-rule="nonzero" fill-opacity="1" /><path clip-path="url(#clip890)" d="M695.976 1514.29 L714.332 1514.29 L714.332 1518.22 L700.258 1518.22 L700.258 1526.7 Q701.277 1526.35 702.295 1526.19 Q703.314 1526 704.332 1526 Q710.119 1526 713.499 1529.17 Q716.879 1532.34 716.879 1537.76 Q716.879 1543.34 713.406 1546.44 Q709.934 1549.52 703.615 1549.52 Q701.439 1549.52 699.17 1549.15 Q696.925 1548.78 694.518 1548.04 L694.518 1543.34 Q696.601 1544.47 698.823 1545.03 Q701.045 1545.58 703.522 1545.58 Q707.527 1545.58 709.865 1543.48 Q712.203 1541.37 712.203 1537.76 Q712.203 1534.15 709.865 1532.04 Q707.527 1529.94 703.522 1529.94 Q701.647 1529.94 699.772 1530.35 Q697.92 1530.77 695.976 1531.65 L695.976 1514.29 Z" fill="#000000" fill-rule="nonzero" fill-opacity="1" /><path clip-path="url(#clip890)" d="M736.091 1517.37 Q732.48 1517.37 730.652 1520.93 Q728.846 1524.47 728.846 1531.6 Q728.846 1538.71 730.652 1542.27 Q732.48 1545.82 736.091 1545.82 Q739.726 1545.82 741.531 1542.27 Q743.36 1538.71 743.36 1531.6 Q743.36 1524.47 741.531 1520.93 Q739.726 1517.37 736.091 1517.37 M736.091 1513.66 Q741.902 1513.66 744.957 1518.27 Q748.036 1522.85 748.036 1531.6 Q748.036 1540.33 744.957 1544.94 Q741.902 1549.52 736.091 1549.52 Q730.281 1549.52 727.203 1544.94 Q724.147 1540.33 724.147 1531.6 Q724.147 1522.85 727.203 1518.27 Q730.281 1513.66 736.091 1513.66 Z" fill="#000000" fill-rule="nonzero" fill-opacity="1" /><path clip-path="url(#clip890)" d="M766.253 1517.37 Q762.642 1517.37 760.814 1520.93 Q759.008 1524.47 759.008 1531.6 Q759.008 1538.71 760.814 1542.27 Q762.642 1545.82 766.253 1545.82 Q769.888 1545.82 771.693 1542.27 Q773.522 1538.71 773.522 1531.6 Q773.522 1524.47 771.693 1520.93 Q769.888 1517.37 766.253 1517.37 M766.253 1513.66 Q772.063 1513.66 775.119 1518.27 Q778.198 1522.85 778.198 1531.6 Q778.198 1540.33 775.119 1544.94 Q772.063 1549.52 766.253 1549.52 Q760.443 1549.52 757.364 1544.94 Q754.309 1540.33 754.309 1531.6 Q754.309 1522.85 757.364 1518.27 Q760.443 1513.66 766.253 1513.66 Z" fill="#000000" fill-rule="nonzero" fill-opacity="1" /><path clip-path="url(#clip890)" d="M1198.96 1544.91 L1206.6 1544.91 L1206.6 1518.55 L1198.29 1520.21 L1198.29 1515.95 L1206.55 1514.29 L1211.23 1514.29 L1211.23 1544.91 L1218.87 1544.91 L1218.87 1548.85 L1198.96 1548.85 L1198.96 1544.91 Z" fill="#000000" fill-rule="nonzero" fill-opacity="1" /><path clip-path="url(#clip890)" d="M1238.31 1517.37 Q1234.7 1517.37 1232.87 1520.93 Q1231.07 1524.47 1231.07 1531.6 Q1231.07 1538.71 1232.87 1542.27 Q1234.7 1545.82 1238.31 1545.82 Q1241.95 1545.82 1243.75 1542.27 Q1245.58 1538.71 1245.58 1531.6 Q1245.58 1524.47 1243.75 1520.93 Q1241.95 1517.37 1238.31 1517.37 M1238.31 1513.66 Q1244.12 1513.66 1247.18 1518.27 Q1250.26 1522.85 1250.26 1531.6 Q1250.26 1540.33 1247.18 1544.94 Q1244.12 1549.52 1238.31 1549.52 Q1232.5 1549.52 1229.42 1544.94 Q1226.37 1540.33 1226.37 1531.6 Q1226.37 1522.85 1229.42 1518.27 Q1232.5 1513.66 1238.31 1513.66 Z" fill="#000000" fill-rule="nonzero" fill-opacity="1" /><path clip-path="url(#clip890)" d="M1268.47 1517.37 Q1264.86 1517.37 1263.03 1520.93 Q1261.23 1524.47 1261.23 1531.6 Q1261.23 1538.71 1263.03 1542.27 Q1264.86 1545.82 1268.47 1545.82 Q1272.11 1545.82 1273.91 1542.27 Q1275.74 1538.71 1275.74 1531.6 Q1275.74 1524.47 1273.91 1520.93 Q1272.11 1517.37 1268.47 1517.37 M1268.47 1513.66 Q1274.28 1513.66 1277.34 1518.27 Q1280.42 1522.85 1280.42 1531.6 Q1280.42 1540.33 1277.34 1544.94 Q1274.28 1549.52 1268.47 1549.52 Q1262.66 1549.52 1259.58 1544.94 Q1256.53 1540.33 1256.53 1531.6 Q1256.53 1522.85 1259.58 1518.27 Q1262.66 1513.66 1268.47 1513.66 Z" fill="#000000" fill-rule="nonzero" fill-opacity="1" /><path clip-path="url(#clip890)" d="M1298.64 1517.37 Q1295.02 1517.37 1293.2 1520.93 Q1291.39 1524.47 1291.39 1531.6 Q1291.39 1538.71 1293.2 1542.27 Q1295.02 1545.82 1298.64 1545.82 Q1302.27 1545.82 1304.07 1542.27 Q1305.9 1538.71 1305.9 1531.6 Q1305.9 1524.47 1304.07 1520.93 Q1302.27 1517.37 1298.64 1517.37 M1298.64 1513.66 Q1304.45 1513.66 1307.5 1518.27 Q1310.58 1522.85 1310.58 1531.6 Q1310.58 1540.33 1307.5 1544.94 Q1304.45 1549.52 1298.64 1549.52 Q1292.83 1549.52 1289.75 1544.94 Q1286.69 1540.33 1286.69 1531.6 Q1286.69 1522.85 1289.75 1518.27 Q1292.83 1513.66 1298.64 1513.66 Z" fill="#000000" fill-rule="nonzero" fill-opacity="1" /><path clip-path="url(#clip890)" d="M1717.04 1544.91 L1724.67 1544.91 L1724.67 1518.55 L1716.36 1520.21 L1716.36 1515.95 L1724.63 1514.29 L1729.3 1514.29 L1729.3 1544.91 L1736.94 1544.91 L1736.94 1548.85 L1717.04 1548.85 L1717.04 1544.91 Z" fill="#000000" fill-rule="nonzero" fill-opacity="1" /><path clip-path="url(#clip890)" d="M1746.43 1514.29 L1764.79 1514.29 L1764.79 1518.22 L1750.72 1518.22 L1750.72 1526.7 Q1751.74 1526.35 1752.75 1526.19 Q1753.77 1526 1754.79 1526 Q1760.58 1526 1763.96 1529.17 Q1767.34 1532.34 1767.34 1537.76 Q1767.34 1543.34 1763.86 1546.44 Q1760.39 1549.52 1754.07 1549.52 Q1751.9 1549.52 1749.63 1549.15 Q1747.38 1548.78 1744.98 1548.04 L1744.98 1543.34 Q1747.06 1544.47 1749.28 1545.03 Q1751.5 1545.58 1753.98 1545.58 Q1757.98 1545.58 1760.32 1543.48 Q1762.66 1541.37 1762.66 1537.76 Q1762.66 1534.15 1760.32 1532.04 Q1757.98 1529.94 1753.98 1529.94 Q1752.11 1529.94 1750.23 1530.35 Q1748.38 1530.77 1746.43 1531.65 L1746.43 1514.29 Z" fill="#000000" fill-rule="nonzero" fill-opacity="1" /><path clip-path="url(#clip890)" d="M1786.55 1517.37 Q1782.94 1517.37 1781.11 1520.93 Q1779.3 1524.47 1779.3 1531.6 Q1779.3 1538.71 1781.11 1542.27 Q1782.94 1545.82 1786.55 1545.82 Q1790.18 1545.82 1791.99 1542.27 Q1793.82 1538.71 1793.82 1531.6 Q1793.82 1524.47 1791.99 1520.93 Q1790.18 1517.37 1786.55 1517.37 M1786.55 1513.66 Q1792.36 1513.66 1795.42 1518.27 Q1798.49 1522.85 1798.49 1531.6 Q1798.49 1540.33 1795.42 1544.94 Q1792.36 1549.52 1786.55 1549.52 Q1780.74 1549.52 1777.66 1544.94 Q1774.61 1540.33 1774.61 1531.6 Q1774.61 1522.85 1777.66 1518.27 Q1780.74 1513.66 1786.55 1513.66 Z" fill="#000000" fill-rule="nonzero" fill-opacity="1" /><path clip-path="url(#clip890)" d="M1816.71 1517.37 Q1813.1 1517.37 1811.27 1520.93 Q1809.47 1524.47 1809.47 1531.6 Q1809.47 1538.71 1811.27 1542.27 Q1813.1 1545.82 1816.71 1545.82 Q1820.35 1545.82 1822.15 1542.27 Q1823.98 1538.71 1823.98 1531.6 Q1823.98 1524.47 1822.15 1520.93 Q1820.35 1517.37 1816.71 1517.37 M1816.71 1513.66 Q1822.52 1513.66 1825.58 1518.27 Q1828.66 1522.85 1828.66 1531.6 Q1828.66 1540.33 1825.58 1544.94 Q1822.52 1549.52 1816.71 1549.52 Q1810.9 1549.52 1807.82 1544.94 Q1804.77 1540.33 1804.77 1531.6 Q1804.77 1522.85 1807.82 1518.27 Q1810.9 1513.66 1816.71 1513.66 Z" fill="#000000" fill-rule="nonzero" fill-opacity="1" /><path clip-path="url(#clip890)" d="M2239.2 1544.91 L2255.52 1544.91 L2255.52 1548.85 L2233.57 1548.85 L2233.57 1544.91 Q2236.24 1542.16 2240.82 1537.53 Q2245.42 1532.88 2246.61 1531.53 Q2248.85 1529.01 2249.73 1527.27 Q2250.63 1525.51 2250.63 1523.82 Q2250.63 1521.07 2248.69 1519.33 Q2246.77 1517.6 2243.67 1517.6 Q2241.47 1517.6 2239.01 1518.36 Q2236.58 1519.13 2233.8 1520.68 L2233.8 1515.95 Q2236.63 1514.82 2239.08 1514.24 Q2241.54 1513.66 2243.57 1513.66 Q2248.94 1513.66 2252.14 1516.35 Q2255.33 1519.03 2255.33 1523.52 Q2255.33 1525.65 2254.52 1527.57 Q2253.74 1529.47 2251.63 1532.07 Q2251.05 1532.74 2247.95 1535.95 Q2244.85 1539.15 2239.2 1544.91 Z" fill="#000000" fill-rule="nonzero" fill-opacity="1" /><path clip-path="url(#clip890)" d="M2275.33 1517.37 Q2271.72 1517.37 2269.89 1520.93 Q2268.09 1524.47 2268.09 1531.6 Q2268.09 1538.71 2269.89 1542.27 Q2271.72 1545.82 2275.33 1545.82 Q2278.97 1545.82 2280.77 1542.27 Q2282.6 1538.71 2282.6 1531.6 Q2282.6 1524.47 2280.77 1520.93 Q2278.97 1517.37 2275.33 1517.37 M2275.33 1513.66 Q2281.14 1513.66 2284.2 1518.27 Q2287.28 1522.85 2287.28 1531.6 Q2287.28 1540.33 2284.2 1544.94 Q2281.14 1549.52 2275.33 1549.52 Q2269.52 1549.52 2266.44 1544.94 Q2263.39 1540.33 2263.39 1531.6 Q2263.39 1522.85 2266.44 1518.27 Q2269.52 1513.66 2275.33 1513.66 Z" fill="#000000" fill-rule="nonzero" fill-opacity="1" /><path clip-path="url(#clip890)" d="M2305.49 1517.37 Q2301.88 1517.37 2300.05 1520.93 Q2298.25 1524.47 2298.25 1531.6 Q2298.25 1538.71 2300.05 1542.27 Q2301.88 1545.82 2305.49 1545.82 Q2309.13 1545.82 2310.93 1542.27 Q2312.76 1538.71 2312.76 1531.6 Q2312.76 1524.47 2310.93 1520.93 Q2309.13 1517.37 2305.49 1517.37 M2305.49 1513.66 Q2311.3 1513.66 2314.36 1518.27 Q2317.44 1522.85 2317.44 1531.6 Q2317.44 1540.33 2314.36 1544.94 Q2311.3 1549.52 2305.49 1549.52 Q2299.68 1549.52 2296.61 1544.94 Q2293.55 1540.33 2293.55 1531.6 Q2293.55 1522.85 2296.61 1518.27 Q2299.68 1513.66 2305.49 1513.66 Z" fill="#000000" fill-rule="nonzero" fill-opacity="1" /><path clip-path="url(#clip890)" d="M2335.66 1517.37 Q2332.04 1517.37 2330.22 1520.93 Q2328.41 1524.47 2328.41 1531.6 Q2328.41 1538.71 2330.22 1542.27 Q2332.04 1545.82 2335.66 1545.82 Q2339.29 1545.82 2341.1 1542.27 Q2342.92 1538.71 2342.92 1531.6 Q2342.92 1524.47 2341.1 1520.93 Q2339.29 1517.37 2335.66 1517.37 M2335.66 1513.66 Q2341.47 1513.66 2344.52 1518.27 Q2347.6 1522.85 2347.6 1531.6 Q2347.6 1540.33 2344.52 1544.94 Q2341.47 1549.52 2335.66 1549.52 Q2329.85 1549.52 2326.77 1544.94 Q2323.71 1540.33 2323.71 1531.6 Q2323.71 1522.85 2326.77 1518.27 Q2329.85 1513.66 2335.66 1513.66 Z" fill="#000000" fill-rule="nonzero" fill-opacity="1" /><polyline clip-path="url(#clip892)" style="stroke:#000000; stroke-linecap:round; stroke-linejoin:round; stroke-width:2; stroke-opacity:0.1; fill:none" points="156.112,1475.58 2352.76,1475.58 "/>
<polyline clip-path="url(#clip892)" style="stroke:#000000; stroke-linecap:round; stroke-linejoin:round; stroke-width:2; stroke-opacity:0.1; fill:none" points="156.112,1117.27 2352.76,1117.27 "/>
<polyline clip-path="url(#clip892)" style="stroke:#000000; stroke-linecap:round; stroke-linejoin:round; stroke-width:2; stroke-opacity:0.1; fill:none" points="156.112,758.968 2352.76,758.968 "/>
<polyline clip-path="url(#clip892)" style="stroke:#000000; stroke-linecap:round; stroke-linejoin:round; stroke-width:2; stroke-opacity:0.1; fill:none" points="156.112,400.663 2352.76,400.663 "/>
<polyline clip-path="url(#clip890)" style="stroke:#000000; stroke-linecap:round; stroke-linejoin:round; stroke-width:4; stroke-opacity:1; fill:none" points="156.112,1486.45 156.112,47.2441 "/>
<polyline clip-path="url(#clip890)" style="stroke:#000000; stroke-linecap:round; stroke-linejoin:round; stroke-width:4; stroke-opacity:1; fill:none" points="156.112,1475.58 175.01,1475.58 "/>
<polyline clip-path="url(#clip890)" style="stroke:#000000; stroke-linecap:round; stroke-linejoin:round; stroke-width:4; stroke-opacity:1; fill:none" points="156.112,1117.27 175.01,1117.27 "/>
<polyline clip-path="url(#clip890)" style="stroke:#000000; stroke-linecap:round; stroke-linejoin:round; stroke-width:4; stroke-opacity:1; fill:none" points="156.112,758.968 175.01,758.968 "/>
<polyline clip-path="url(#clip890)" style="stroke:#000000; stroke-linecap:round; stroke-linejoin:round; stroke-width:4; stroke-opacity:1; fill:none" points="156.112,400.663 175.01,400.663 "/>
<path clip-path="url(#clip890)" d="M62.9365 1461.38 Q59.3254 1461.38 57.4967 1464.94 Q55.6912 1468.48 55.6912 1475.61 Q55.6912 1482.72 57.4967 1486.29 Q59.3254 1489.83 62.9365 1489.83 Q66.5707 1489.83 68.3763 1486.29 Q70.205 1482.72 70.205 1475.61 Q70.205 1468.48 68.3763 1464.94 Q66.5707 1461.38 62.9365 1461.38 M62.9365 1457.67 Q68.7467 1457.67 71.8022 1462.28 Q74.8809 1466.86 74.8809 1475.61 Q74.8809 1484.34 71.8022 1488.95 Q68.7467 1493.53 62.9365 1493.53 Q57.1264 1493.53 54.0477 1488.95 Q50.9921 1484.34 50.9921 1475.61 Q50.9921 1466.86 54.0477 1462.28 Q57.1264 1457.67 62.9365 1457.67 Z" fill="#000000" fill-rule="nonzero" fill-opacity="1" /><path clip-path="url(#clip890)" d="M83.0984 1486.98 L87.9827 1486.98 L87.9827 1492.86 L83.0984 1492.86 L83.0984 1486.98 Z" fill="#000000" fill-rule="nonzero" fill-opacity="1" /><path clip-path="url(#clip890)" d="M108.168 1461.38 Q104.557 1461.38 102.728 1464.94 Q100.922 1468.48 100.922 1475.61 Q100.922 1482.72 102.728 1486.29 Q104.557 1489.83 108.168 1489.83 Q111.802 1489.83 113.608 1486.29 Q115.436 1482.72 115.436 1475.61 Q115.436 1468.48 113.608 1464.94 Q111.802 1461.38 108.168 1461.38 M108.168 1457.67 Q113.978 1457.67 117.033 1462.28 Q120.112 1466.86 120.112 1475.61 Q120.112 1484.34 117.033 1488.95 Q113.978 1493.53 108.168 1493.53 Q102.358 1493.53 99.2789 1488.95 Q96.2234 1484.34 96.2234 1475.61 Q96.2234 1466.86 99.2789 1462.28 Q102.358 1457.67 108.168 1457.67 Z" fill="#000000" fill-rule="nonzero" fill-opacity="1" /><path clip-path="url(#clip890)" d="M64.1634 1103.07 Q60.5523 1103.07 58.7236 1106.64 Q56.918 1110.18 56.918 1117.31 Q56.918 1124.41 58.7236 1127.98 Q60.5523 1131.52 64.1634 1131.52 Q67.7976 1131.52 69.6031 1127.98 Q71.4318 1124.41 71.4318 1117.31 Q71.4318 1110.18 69.6031 1106.64 Q67.7976 1103.07 64.1634 1103.07 M64.1634 1099.37 Q69.9735 1099.37 73.029 1103.98 Q76.1077 1108.56 76.1077 1117.31 Q76.1077 1126.04 73.029 1130.64 Q69.9735 1135.23 64.1634 1135.23 Q58.3532 1135.23 55.2745 1130.64 Q52.219 1126.04 52.219 1117.31 Q52.219 1108.56 55.2745 1103.98 Q58.3532 1099.37 64.1634 1099.37 Z" fill="#000000" fill-rule="nonzero" fill-opacity="1" /><path clip-path="url(#clip890)" d="M84.3253 1128.67 L89.2095 1128.67 L89.2095 1134.55 L84.3253 1134.55 L84.3253 1128.67 Z" fill="#000000" fill-rule="nonzero" fill-opacity="1" /><path clip-path="url(#clip890)" d="M100.205 1130.62 L107.844 1130.62 L107.844 1104.25 L99.5335 1105.92 L99.5335 1101.66 L107.797 1099.99 L112.473 1099.99 L112.473 1130.62 L120.112 1130.62 L120.112 1134.55 L100.205 1134.55 L100.205 1130.62 Z" fill="#000000" fill-rule="nonzero" fill-opacity="1" /><path clip-path="url(#clip890)" d="M64.5337 744.767 Q60.9226 744.767 59.0939 748.332 Q57.2884 751.873 57.2884 759.003 Q57.2884 766.109 59.0939 769.674 Q60.9226 773.216 64.5337 773.216 Q68.168 773.216 69.9735 769.674 Q71.8022 766.109 71.8022 759.003 Q71.8022 751.873 69.9735 748.332 Q68.168 744.767 64.5337 744.767 M64.5337 741.063 Q70.3439 741.063 73.3994 745.67 Q76.4781 750.253 76.4781 759.003 Q76.4781 767.73 73.3994 772.336 Q70.3439 776.919 64.5337 776.919 Q58.7236 776.919 55.6449 772.336 Q52.5893 767.73 52.5893 759.003 Q52.5893 750.253 55.6449 745.67 Q58.7236 741.063 64.5337 741.063 Z" fill="#000000" fill-rule="nonzero" fill-opacity="1" /><path clip-path="url(#clip890)" d="M84.6956 770.369 L89.5799 770.369 L89.5799 776.248 L84.6956 776.248 L84.6956 770.369 Z" fill="#000000" fill-rule="nonzero" fill-opacity="1" /><path clip-path="url(#clip890)" d="M103.793 772.313 L120.112 772.313 L120.112 776.248 L98.1678 776.248 L98.1678 772.313 Q100.83 769.558 105.413 764.929 Q110.02 760.276 111.2 758.933 Q113.445 756.41 114.325 754.674 Q115.228 752.915 115.228 751.225 Q115.228 748.471 113.283 746.734 Q111.362 744.998 108.26 744.998 Q106.061 744.998 103.608 745.762 Q101.177 746.526 98.3993 748.077 L98.3993 743.355 Q101.223 742.221 103.677 741.642 Q106.131 741.063 108.168 741.063 Q113.538 741.063 116.733 743.748 Q119.927 746.434 119.927 750.924 Q119.927 753.054 119.117 754.975 Q118.33 756.873 116.223 759.466 Q115.645 760.137 112.543 763.355 Q109.441 766.549 103.793 772.313 Z" fill="#000000" fill-rule="nonzero" fill-opacity="1" /><path clip-path="url(#clip890)" d="M63.5847 386.461 Q59.9736 386.461 58.1449 390.026 Q56.3393 393.568 56.3393 400.697 Q56.3393 407.804 58.1449 411.368 Q59.9736 414.91 63.5847 414.91 Q67.2189 414.91 69.0244 411.368 Q70.8531 407.804 70.8531 400.697 Q70.8531 393.568 69.0244 390.026 Q67.2189 386.461 63.5847 386.461 M63.5847 382.758 Q69.3948 382.758 72.4503 387.364 Q75.529 391.947 75.529 400.697 Q75.529 409.424 72.4503 414.03 Q69.3948 418.614 63.5847 418.614 Q57.7745 418.614 54.6958 414.03 Q51.6403 409.424 51.6403 400.697 Q51.6403 391.947 54.6958 387.364 Q57.7745 382.758 63.5847 382.758 Z" fill="#000000" fill-rule="nonzero" fill-opacity="1" /><path clip-path="url(#clip890)" d="M83.7466 412.063 L88.6308 412.063 L88.6308 417.943 L83.7466 417.943 L83.7466 412.063 Z" fill="#000000" fill-rule="nonzero" fill-opacity="1" /><path clip-path="url(#clip890)" d="M112.983 399.308 Q116.339 400.026 118.214 402.294 Q120.112 404.563 120.112 407.896 Q120.112 413.012 116.594 415.813 Q113.075 418.614 106.594 418.614 Q104.418 418.614 102.103 418.174 Q99.8113 417.757 97.3576 416.901 L97.3576 412.387 Q99.3021 413.521 101.617 414.1 Q103.932 414.679 106.455 414.679 Q110.853 414.679 113.145 412.943 Q115.459 411.206 115.459 407.896 Q115.459 404.841 113.307 403.128 Q111.177 401.392 107.358 401.392 L103.33 401.392 L103.33 397.549 L107.543 397.549 Q110.992 397.549 112.82 396.183 Q114.649 394.794 114.649 392.202 Q114.649 389.54 112.751 388.128 Q110.876 386.693 107.358 386.693 Q105.436 386.693 103.237 387.109 Q101.038 387.526 98.3993 388.406 L98.3993 384.239 Q101.061 383.498 103.376 383.128 Q105.714 382.758 107.774 382.758 Q113.098 382.758 116.2 385.188 Q119.302 387.595 119.302 391.716 Q119.302 394.586 117.658 396.577 Q116.015 398.544 112.983 399.308 Z" fill="#000000" fill-rule="nonzero" fill-opacity="1" /><polyline clip-path="url(#clip892)" style="stroke:#009af9; stroke-linecap:round; stroke-linejoin:round; stroke-width:4; stroke-opacity:1; fill:none" points="218.281,87.9763 219.317,89.5045 220.354,91.0418 221.39,92.5881 222.426,94.1434 223.462,95.7077 224.498,97.2808 225.534,98.8628 226.571,100.454 227.607,102.053 228.643,103.661 229.679,105.278 230.715,106.904 231.751,108.538 232.787,110.181 233.824,111.832 234.86,113.492 235.896,115.16 236.932,116.836 237.968,118.52 239.004,120.213 240.04,121.914 241.077,123.623 242.113,125.339 243.149,127.064 244.185,128.797 245.221,130.537 246.257,132.285 247.294,134.04 248.33,135.804 249.366,137.574 250.402,139.352 251.438,141.138 252.474,142.931 253.51,144.73 254.547,146.537 255.583,148.351 256.619,150.172 257.655,152 258.691,153.835 259.727,155.676 260.764,157.524 261.8,159.379 262.836,161.24 263.872,163.107 264.908,164.981 265.944,166.861 266.98,168.747 268.017,170.639 269.053,172.538 270.089,174.442 271.125,176.352 272.161,178.268 273.197,180.189 274.234,182.117 275.27,184.049 276.306,185.988 277.342,187.931 278.378,189.88 279.414,191.835 280.45,193.794 281.487,195.759 282.523,197.729 283.559,199.704 284.595,201.684 285.631,203.668 286.667,205.658 287.704,207.652 288.74,209.651 289.776,211.655 290.812,213.664 291.848,215.677 292.884,217.694 293.92,219.716 294.957,221.743 295.993,223.774 297.029,225.809 298.065,227.848 299.101,229.892 300.137,231.94 301.174,233.993 302.21,236.049 303.246,238.11 304.282,240.175 305.318,242.244 306.354,244.317 307.39,246.394 308.427,248.475 309.463,250.56 310.499,252.649 311.535,254.743 312.571,256.84 313.607,258.941 314.643,261.046 315.68,263.156 316.716,265.269 317.752,267.386 318.788,269.507 319.824,271.633 320.86,273.762 321.897,275.895 322.933,278.033 323.969,280.174 325.005,282.319 326.041,284.469 327.077,286.623 328.113,288.781 329.15,290.943 330.186,293.109 331.222,295.279 332.258,297.454 333.294,299.633 334.33,301.816 335.367,304.004 336.403,306.196 337.439,308.393 338.475,310.594 339.511,312.799 340.547,315.01 341.583,317.225 342.62,319.444 343.656,321.668 344.692,323.898 345.728,326.132 346.764,328.37 347.8,330.614 348.837,332.863 349.873,335.117 350.909,337.377 351.945,339.641 352.981,341.911 354.017,344.186 355.053,346.467 356.09,348.753 357.126,351.044 358.162,353.342 359.198,355.645 360.234,357.954 361.27,360.269 362.307,362.59 363.343,364.917 364.379,367.25 365.415,369.589 366.451,371.935 367.487,374.287 368.523,376.645 369.56,379.011 370.596,381.382 371.632,383.761 372.668,386.146 373.704,388.539 374.74,390.938 375.777,393.345 376.813,395.758 377.849,398.179 378.885,400.608 379.921,403.044 380.957,405.487 381.993,407.938 383.03,410.397 384.066,412.864 385.102,415.339 386.138,417.822 387.174,420.313 388.21,422.812 389.246,425.32 390.283,427.836 391.319,430.36 392.355,432.893 393.391,435.435 394.427,437.986 395.463,440.546 396.5,443.114 397.536,445.692 398.572,448.279 399.608,450.875 400.644,453.48 401.68,456.095 402.716,458.719 403.753,461.353 404.789,463.997 405.825,466.65 406.861,469.314 407.897,471.987 408.933,474.67 409.97,477.363 411.006,480.067 412.042,482.78 413.078,485.504 414.114,488.238 415.15,490.983 416.186,493.738 417.223,496.503 418.259,499.28 419.295,502.066 420.331,504.864 421.367,507.672 422.403,510.491 423.44,513.321 424.476,516.162 425.512,519.013 426.548,521.876 427.584,524.749 428.62,527.634 429.656,530.529 430.693,533.435 431.729,536.353 432.765,539.281 433.801,542.221 434.837,545.171 435.873,548.133 436.91,551.105 437.946,554.089 438.982,557.083 440.018,560.089 441.054,563.105 442.09,566.132 443.126,569.17 444.163,572.219 445.199,575.279 446.235,578.349 447.271,581.43 448.307,584.522 449.343,587.624 450.38,590.736 451.416,593.859 452.452,596.992 453.488,600.135 454.524,603.288 455.56,606.451 456.596,609.624 457.633,612.807 458.669,615.999 459.705,619.201 460.741,622.412 461.777,625.632 462.813,628.861 463.849,632.099 464.886,635.346 465.922,638.601 466.958,641.865 467.994,645.137 469.03,648.417 470.066,651.705 471.103,655 472.139,658.303 473.175,661.613 474.211,664.929 475.247,668.253 476.283,671.583 477.319,674.92 478.356,678.263 479.392,681.611 480.428,684.965 481.464,688.325 482.5,691.689 483.536,695.059 484.573,698.433 485.609,701.811 486.645,705.193 487.681,708.58 488.717,711.969 489.753,715.362 490.789,718.758 491.826,722.156 492.862,725.556 493.898,728.959 494.934,732.363 495.97,735.769 497.006,739.176 498.043,742.584 499.079,745.992 500.115,749.401 501.151,752.809 502.187,756.217 503.223,759.624 504.259,763.03 505.296,766.435 506.332,769.838 507.368,773.239 508.404,776.638 509.44,780.034 510.476,783.427 511.513,786.817 512.549,790.203 513.585,793.586 514.621,796.964 515.657,800.338 516.693,803.707 517.729,807.07 518.766,810.429 519.802,813.781 520.838,817.128 521.874,820.468 522.91,823.802 523.946,827.128 524.982,830.448 526.019,833.76 527.055,837.064 528.091,840.36 529.127,843.648 530.163,846.928 531.199,850.198 532.236,853.459 533.272,856.711 534.308,859.953 535.344,863.186 536.38,866.408 537.416,869.62 538.452,872.821 539.489,876.012 540.525,879.191 541.561,882.359 542.597,885.516 543.633,888.661 544.669,891.794 545.706,894.915 546.742,898.023 547.778,901.12 548.814,904.203 549.85,907.274 550.886,910.331 551.922,913.376 552.959,916.407 553.995,919.424 555.031,922.428 556.067,925.418 557.103,928.395 558.139,931.357 559.176,934.305 560.212,937.238 561.248,940.158 562.284,943.062 563.32,945.952 564.356,948.827 565.392,951.688 566.429,954.533 567.465,957.363 568.501,960.179 569.537,962.979 570.573,965.763 571.609,968.533 572.646,971.287 573.682,974.025 574.718,976.748 575.754,979.456 576.79,982.148 577.826,984.824 578.862,987.485 579.899,990.129 580.935,992.759 581.971,995.372 583.007,997.969 584.043,1000.55 585.079,1003.12 586.116,1005.67 587.152,1008.2 588.188,1010.72 589.224,1013.22 590.26,1015.71 591.296,1018.18 592.332,1020.64 593.369,1023.08 594.405,1025.5 595.441,1027.91 596.477,1030.3 597.513,1032.68 598.549,1035.04 599.585,1037.38 600.622,1039.71 601.658,1042.03 602.694,1044.33 603.73,1046.61 604.766,1048.88 605.802,1051.13 606.839,1053.37 607.875,1055.59 608.911,1057.8 609.947,1059.99 610.983,1062.17 612.019,1064.33 613.055,1066.47 614.092,1068.61 615.128,1070.72 616.164,1072.83 617.2,1074.91 618.236,1076.99 619.272,1079.04 620.309,1081.09 621.345,1083.12 622.381,1085.13 623.417,1087.13 624.453,1089.12 625.489,1091.09 626.525,1093.05 627.562,1095 628.598,1096.93 629.634,1098.84 630.67,1100.75 631.706,1102.64 632.742,1104.51 633.779,1106.37 634.815,1108.22 635.851,1110.06 636.887,1111.88 637.923,1113.69 638.959,1115.49 639.995,1117.27 641.032,1119.04 642.068,1120.8 643.104,1122.54 644.14,1124.28 645.176,1126 646.212,1127.7 647.249,1129.4 648.285,1131.08 649.321,1132.75 650.357,1134.41 651.393,1136.06 652.429,1137.69 653.465,1139.31 654.502,1140.92 655.538,1142.52 656.574,1144.11 657.61,1145.69 658.646,1147.25 659.682,1148.8 660.719,1150.35 661.755,1151.88 662.791,1153.4 663.827,1154.91 664.863,1156.4 665.899,1157.89 666.935,1159.37 667.972,1160.83 669.008,1162.29 670.044,1163.73 671.08,1165.17 672.116,1166.59 673.152,1168 674.188,1169.41 675.225,1170.8 676.261,1172.18 677.297,1173.56 678.333,1174.92 679.369,1176.27 680.405,1177.62 681.442,1178.95 682.478,1180.28 683.514,1181.59 684.55,1182.9 685.586,1184.2 686.622,1185.48 687.658,1186.76 688.695,1188.03 689.731,1189.29 690.767,1190.54 691.803,1191.79 692.839,1193.02 693.875,1194.25 694.912,1195.46 695.948,1196.67 696.984,1197.87 698.02,1199.06 699.056,1200.24 700.092,1201.42 701.128,1202.59 702.165,1203.74 703.201,1204.89 704.237,1206.04 705.273,1207.17 706.309,1208.3 707.345,1209.41 708.382,1210.53 709.418,1211.63 710.454,1212.72 711.49,1213.81 712.526,1214.89 713.562,1215.97 714.598,1217.03 715.635,1218.09 716.671,1219.14 717.707,1220.19 718.743,1221.22 719.779,1222.25 720.815,1223.28 721.852,1224.29 722.888,1225.3 723.924,1226.3 724.96,1227.3 725.996,1228.29 727.032,1229.27 728.068,1230.24 729.105,1231.21 730.141,1232.18 731.177,1233.13 732.213,1234.08 733.249,1235.03 734.285,1235.96 735.321,1236.89 736.358,1237.82 737.394,1238.74 738.43,1239.65 739.466,1240.56 740.502,1241.46 741.538,1242.35 742.575,1243.24 743.611,1244.13 744.647,1245 745.683,1245.87 746.719,1246.74 747.755,1247.6 748.791,1248.46 749.828,1249.31 750.864,1250.15 751.9,1250.99 752.936,1251.82 753.972,1252.65 755.008,1253.47 756.045,1254.29 757.081,1255.1 758.117,1255.91 759.153,1256.71 760.189,1257.51 761.225,1258.3 762.261,1259.09 763.298,1259.87 764.334,1260.64 765.37,1261.42 766.406,1262.18 767.442,1262.95 768.478,1263.7 769.515,1264.46 770.551,1265.2 771.587,1265.95 772.623,1266.69 773.659,1267.42 774.695,1268.15 775.731,1268.88 776.768,1269.6 777.804,1270.31 778.84,1271.03 779.876,1271.73 780.912,1272.44 781.948,1273.14 782.985,1273.83 784.021,1274.52 785.057,1275.21 786.093,1275.89 787.129,1276.57 788.165,1277.25 789.201,1277.92 790.238,1278.58 791.274,1279.25 792.31,1279.9 793.346,1280.56 794.382,1281.21 795.418,1281.86 796.455,1282.5 797.491,1283.14 798.527,1283.77 799.563,1284.41 800.599,1285.03 801.635,1285.66 802.671,1286.28 803.708,1286.9 804.744,1287.51 805.78,1288.12 806.816,1288.73 807.852,1289.33 808.888,1289.93 809.924,1290.52 810.961,1291.12 811.997,1291.71 813.033,1292.29 814.069,1292.87 815.105,1293.45 816.141,1294.03 817.178,1294.6 818.214,1295.17 819.25,1295.74 820.286,1296.3 821.322,1296.86 822.358,1297.42 823.394,1297.97 824.431,1298.52 825.467,1299.07 826.503,1299.61 827.539,1300.16 828.575,1300.69 829.611,1301.23 830.648,1301.76 831.684,1302.29 832.72,1302.82 833.756,1303.34 834.792,1303.86 835.828,1304.38 836.864,1304.9 837.901,1305.41 838.937,1305.92 839.973,1306.43 841.009,1306.93 842.045,1307.43 843.081,1307.93 844.118,1308.43 845.154,1308.92 846.19,1309.41 847.226,1309.9 848.262,1310.38 849.298,1310.87 850.334,1311.35 851.371,1311.82 852.407,1312.3 853.443,1312.77 854.479,1313.24 855.515,1313.71 856.551,1314.18 857.588,1314.64 858.624,1315.1 859.66,1315.56 860.696,1316.01 861.732,1316.47 862.768,1316.92 863.804,1317.37 864.841,1317.81 865.877,1318.26 866.913,1318.7 867.949,1319.14 868.985,1319.58 870.021,1320.01 871.058,1320.45 872.094,1320.88 873.13,1321.3 874.166,1321.73 875.202,1322.15 876.238,1322.58 877.274,1323 878.311,1323.41 879.347,1323.83 880.383,1324.24 881.419,1324.66 882.455,1325.07 883.491,1325.47 884.527,1325.88 885.564,1326.28 886.6,1326.68 887.636,1327.08 888.672,1327.48 889.708,1327.88 890.744,1328.27 891.781,1328.66 892.817,1329.05 893.853,1329.44 894.889,1329.82 895.925,1330.21 896.961,1330.59 897.997,1330.97 899.034,1331.35 900.07,1331.73 901.106,1332.1 902.142,1332.47 903.178,1332.85 904.214,1333.22 905.251,1333.58 906.287,1333.95 907.323,1334.31 908.359,1334.68 909.395,1335.04 910.431,1335.4 911.467,1335.75 912.504,1336.11 913.54,1336.46 914.576,1336.82 915.612,1337.17 916.648,1337.52 917.684,1337.86 918.721,1338.21 919.757,1338.55 920.793,1338.9 921.829,1339.24 922.865,1339.58 923.901,1339.91 924.937,1340.25 925.974,1340.59 927.01,1340.92 928.046,1341.25 929.082,1341.58 930.118,1341.91 931.154,1342.24 932.191,1342.56 933.227,1342.89 934.263,1343.21 935.299,1343.53 936.335,1343.85 937.371,1344.17 938.407,1344.49 939.444,1344.8 940.48,1345.12 941.516,1345.43 942.552,1345.74 943.588,1346.05 944.624,1346.36 945.661,1346.67 946.697,1346.97 947.733,1347.28 948.769,1347.58 949.805,1347.88 950.841,1348.18 951.877,1348.48 952.914,1348.78 953.95,1349.08 954.986,1349.37 956.022,1349.67 957.058,1349.96 958.094,1350.25 959.13,1350.54 960.167,1350.83 961.203,1351.12 962.239,1351.4 963.275,1351.69 964.311,1351.97 965.347,1352.26 966.384,1352.54 967.42,1352.82 968.456,1353.1 969.492,1353.38 970.528,1353.65 971.564,1353.93 972.6,1354.2 973.637,1354.48 974.673,1354.75 975.709,1355.02 976.745,1355.29 977.781,1355.56 978.817,1355.83 979.854,1356.09 980.89,1356.36 981.926,1356.62 982.962,1356.89 983.998,1357.15 985.034,1357.41 986.07,1357.67 987.107,1357.93 988.143,1358.19 989.179,1358.44 990.215,1358.7 991.251,1358.95 992.287,1359.21 993.324,1359.46 994.36,1359.71 995.396,1359.96 996.432,1360.21 997.468,1360.46 998.504,1360.71 999.54,1360.95 1000.58,1361.2 1001.61,1361.44 1002.65,1361.69 1003.69,1361.93 1004.72,1362.17 1005.76,1362.41 1006.79,1362.65 1007.83,1362.89 1008.87,1363.13 1009.9,1363.37 1010.94,1363.6 1011.97,1363.84 1013.01,1364.07 1014.05,1364.3 1015.08,1364.54 1016.12,1364.77 1017.16,1365 1018.19,1365.23 1019.23,1365.46 1020.26,1365.68 1021.3,1365.91 1022.34,1366.14 1023.37,1366.36 1024.41,1366.59 1025.44,1366.81 1026.48,1367.03 1027.52,1367.25 1028.55,1367.47 1029.59,1367.69 1030.63,1367.91 1031.66,1368.13 1032.7,1368.35 1033.73,1368.56 1034.77,1368.78 1035.81,1369 1036.84,1369.21 1037.88,1369.42 1038.91,1369.64 1039.95,1369.85 1040.99,1370.06 1042.02,1370.27 1043.06,1370.48 1044.1,1370.69 1045.13,1370.89 1046.17,1371.1 1047.2,1371.31 1048.24,1371.51 1049.28,1371.72 1050.31,1371.92 1051.35,1372.12 1052.38,1372.33 1053.42,1372.53 1054.46,1372.73 1055.49,1372.93 1056.53,1373.13 1057.56,1373.33 1058.6,1373.52 1059.64,1373.72 1060.67,1373.92 1061.71,1374.11 1062.75,1374.31 1063.78,1374.5 1064.82,1374.7 1065.85,1374.89 1066.89,1375.08 1067.93,1375.27 1068.96,1375.46 1070,1375.65 1071.03,1375.84 1072.07,1376.03 1073.11,1376.22 1074.14,1376.41 1075.18,1376.59 1076.22,1376.78 1077.25,1376.97 1078.29,1377.15 1079.32,1377.34 1080.36,1377.52 1081.4,1377.7 1082.43,1377.88 1083.47,1378.07 1084.5,1378.25 1085.54,1378.43 1086.58,1378.61 1087.61,1378.78 1088.65,1378.96 1089.69,1379.14 1090.72,1379.32 1091.76,1379.49 1092.79,1379.67 1093.83,1379.85 1094.87,1380.02 1095.9,1380.19 1096.94,1380.37 1097.97,1380.54 1099.01,1380.71 1100.05,1380.88 1101.08,1381.06 1102.12,1381.23 1103.16,1381.4 1104.19,1381.57 1105.23,1381.73 1106.26,1381.9 1107.3,1382.07 1108.34,1382.24 1109.37,1382.4 1110.41,1382.57 1111.44,1382.73 1112.48,1382.9 1113.52,1383.06 1114.55,1383.23 1115.59,1383.39 1116.63,1383.55 1117.66,1383.71 1118.7,1383.88 1119.73,1384.04 1120.77,1384.2 1121.81,1384.36 1122.84,1384.52 1123.88,1384.68 1124.91,1384.83 1125.95,1384.99 1126.99,1385.15 1128.02,1385.3 1129.06,1385.46 1130.1,1385.62 1131.13,1385.77 1132.17,1385.93 1133.2,1386.08 1134.24,1386.23 1135.28,1386.39 1136.31,1386.54 1137.35,1386.69 1138.38,1386.84 1139.42,1386.99 1140.46,1387.15 1141.49,1387.3 1142.53,1387.45 1143.57,1387.59 1144.6,1387.74 1145.64,1387.89 1146.67,1388.04 1147.71,1388.19 1148.75,1388.33 1149.78,1388.48 1150.82,1388.63 1151.85,1388.77 1152.89,1388.92 1153.93,1389.06 1154.96,1389.2 1156,1389.35 1157.04,1389.49 1158.07,1389.63 1159.11,1389.78 1160.14,1389.92 1161.18,1390.06 1162.22,1390.2 1163.25,1390.34 1164.29,1390.48 1165.32,1390.62 1166.36,1390.76 1167.4,1390.9 1168.43,1391.03 1169.47,1391.17 1170.51,1391.31 1171.54,1391.45 1172.58,1391.58 1173.61,1391.72 1174.65,1391.85 1175.69,1391.99 1176.72,1392.12 1177.76,1392.26 1178.79,1392.39 1179.83,1392.53 1180.87,1392.66 1181.9,1392.79 1182.94,1392.92 1183.98,1393.06 1185.01,1393.19 1186.05,1393.32 1187.08,1393.45 1188.12,1393.58 1189.16,1393.71 1190.19,1393.84 1191.23,1393.97 1192.26,1394.1 1193.3,1394.23 1194.34,1394.35 1195.37,1394.48 1196.41,1394.61 1197.45,1394.74 1198.48,1394.86 1199.52,1394.99 1200.55,1395.11 1201.59,1395.24 1202.63,1395.36 1203.66,1395.49 1204.7,1395.61 1205.73,1395.74 1206.77,1395.86 1207.81,1395.98 1208.84,1396.11 1209.88,1396.23 1210.92,1396.35 1211.95,1396.47 1212.99,1396.59 1214.02,1396.71 1215.06,1396.83 1216.1,1396.95 1217.13,1397.07 1218.17,1397.19 1219.2,1397.31 1220.24,1397.43 1221.28,1397.55 1222.31,1397.67 1223.35,1397.79 1224.39,1397.9 1225.42,1398.02 1226.46,1398.14 1227.49,1398.25 1228.53,1398.37 1229.57,1398.49 1230.6,1398.6 1231.64,1398.72 1232.67,1398.83 1233.71,1398.95 1234.75,1399.06 1235.78,1399.17 1236.82,1399.29 1237.86,1399.4 1238.89,1399.51 1239.93,1399.63 1240.96,1399.74 1242,1399.85 1243.04,1399.96 1244.07,1400.07 1245.11,1400.18 1246.14,1400.29 1247.18,1400.4 1248.22,1400.51 1249.25,1400.62 1250.29,1400.73 1251.33,1400.84 1252.36,1400.95 1253.4,1401.06 1254.43,1401.17 1255.47,1401.27 1256.51,1401.38 1257.54,1401.49 1258.58,1401.6 1259.61,1401.7 1260.65,1401.81 1261.69,1401.92 1262.72,1402.02 1263.76,1402.13 1264.8,1402.23 1265.83,1402.34 1266.87,1402.44 1267.9,1402.55 1268.94,1402.65 1269.98,1402.75 1271.01,1402.86 1272.05,1402.96 1273.08,1403.06 1274.12,1403.17 1275.16,1403.27 1276.19,1403.37 1277.23,1403.47 1278.27,1403.57 1279.3,1403.67 1280.34,1403.77 1281.37,1403.88 1282.41,1403.98 1283.45,1404.08 1284.48,1404.18 1285.52,1404.28 1286.55,1404.37 1287.59,1404.47 1288.63,1404.57 1289.66,1404.67 1290.7,1404.77 1291.74,1404.87 1292.77,1404.96 1293.81,1405.06 1294.84,1405.16 1295.88,1405.26 1296.92,1405.35 1297.95,1405.45 1298.99,1405.55 1300.02,1405.64 1301.06,1405.74 1302.1,1405.83 1303.13,1405.93 1304.17,1406.02 1305.21,1406.12 1306.24,1406.21 1307.28,1406.31 1308.31,1406.4 1309.35,1406.49 1310.39,1406.59 1311.42,1406.68 1312.46,1406.77 1313.49,1406.87 1314.53,1406.96 1315.57,1407.05 1316.6,1407.14 1317.64,1407.23 1318.68,1407.33 1319.71,1407.42 1320.75,1407.51 1321.78,1407.6 1322.82,1407.69 1323.86,1407.78 1324.89,1407.87 1325.93,1407.96 1326.96,1408.05 1328,1408.14 1329.04,1408.23 1330.07,1408.32 1331.11,1408.41 1332.15,1408.49 1333.18,1408.58 1334.22,1408.67 1335.25,1408.76 1336.29,1408.85 1337.33,1408.93 1338.36,1409.02 1339.4,1409.11 1340.43,1409.19 1341.47,1409.28 1342.51,1409.37 1343.54,1409.45 1344.58,1409.54 1345.62,1409.62 1346.65,1409.71 1347.69,1409.79 1348.72,1409.88 1349.76,1409.96 1350.8,1410.05 1351.83,1410.13 1352.87,1410.22 1353.9,1410.3 1354.94,1410.38 1355.98,1410.47 1357.01,1410.55 1358.05,1410.63 1359.09,1410.72 1360.12,1410.8 1361.16,1410.88 1362.19,1410.97 1363.23,1411.05 1364.27,1411.13 1365.3,1411.21 1366.34,1411.29 1367.37,1411.37 1368.41,1411.45 1369.45,1411.54 1370.48,1411.62 1371.52,1411.7 1372.56,1411.78 1373.59,1411.86 1374.63,1411.94 1375.66,1412.02 1376.7,1412.1 1377.74,1412.18 1378.77,1412.25 1379.81,1412.33 1380.84,1412.41 1381.88,1412.49 1382.92,1412.57 1383.95,1412.65 1384.99,1412.73 1386.03,1412.8 1387.06,1412.88 1388.1,1412.96 1389.13,1413.04 1390.17,1413.11 1391.21,1413.19 1392.24,1413.27 1393.28,1413.34 1394.31,1413.42 1395.35,1413.5 1396.39,1413.57 1397.42,1413.65 1398.46,1413.72 1399.5,1413.8 1400.53,1413.87 1401.57,1413.95 1402.6,1414.02 1403.64,1414.1 1404.68,1414.17 1405.71,1414.25 1406.75,1414.32 1407.78,1414.4 1408.82,1414.47 1409.86,1414.54 1410.89,1414.62 1411.93,1414.69 1412.97,1414.76 1414,1414.84 1415.04,1414.91 1416.07,1414.98 1417.11,1415.05 1418.15,1415.13 1419.18,1415.2 1420.22,1415.27 1421.25,1415.34 1422.29,1415.41 1423.33,1415.48 1424.36,1415.56 1425.4,1415.63 1426.44,1415.7 1427.47,1415.77 1428.51,1415.84 1429.54,1415.91 1430.58,1415.98 1431.62,1416.05 1432.65,1416.12 1433.69,1416.19 1434.72,1416.26 1435.76,1416.33 1436.8,1416.4 1437.83,1416.47 1438.87,1416.54 1439.91,1416.61 1440.94,1416.68 1441.98,1416.74 1443.01,1416.81 1444.05,1416.88 1445.09,1416.95 1446.12,1417.02 1447.16,1417.08 1448.19,1417.15 1449.23,1417.22 1450.27,1417.29 1451.3,1417.35 1452.34,1417.42 1453.38,1417.49 1454.41,1417.56 1455.45,1417.62 1456.48,1417.69 1457.52,1417.75 1458.56,1417.82 1459.59,1417.89 1460.63,1417.95 1461.66,1418.02 1462.7,1418.08 1463.74,1418.15 1464.77,1418.21 1465.81,1418.28 1466.85,1418.35 1467.88,1418.41 1468.92,1418.47 1469.95,1418.54 1470.99,1418.6 1472.03,1418.67 1473.06,1418.73 1474.1,1418.8 1475.13,1418.86 1476.17,1418.92 1477.21,1418.99 1478.24,1419.05 1479.28,1419.11 1480.32,1419.18 1481.35,1419.24 1482.39,1419.3 1483.42,1419.37 1484.46,1419.43 1485.5,1419.49 1486.53,1419.55 1487.57,1419.62 1488.6,1419.68 1489.64,1419.74 1490.68,1419.8 1491.71,1419.86 1492.75,1419.93 1493.79,1419.99 1494.82,1420.05 1495.86,1420.11 1496.89,1420.17 1497.93,1420.23 1498.97,1420.29 1500,1420.35 1501.04,1420.41 1502.07,1420.47 1503.11,1420.53 1504.15,1420.59 1505.18,1420.65 1506.22,1420.71 1507.26,1420.77 1508.29,1420.83 1509.33,1420.89 1510.36,1420.95 1511.4,1421.01 1512.44,1421.07 1513.47,1421.13 1514.51,1421.19 1515.54,1421.25 1516.58,1421.31 1517.62,1421.36 1518.65,1421.42 1519.69,1421.48 1520.73,1421.54 1521.76,1421.6 1522.8,1421.65 1523.83,1421.71 1524.87,1421.77 1525.91,1421.83 1526.94,1421.88 1527.98,1421.94 1529.01,1422 1530.05,1422.06 1531.09,1422.11 1532.12,1422.17 1533.16,1422.23 1534.2,1422.28 1535.23,1422.34 1536.27,1422.4 1537.3,1422.45 1538.34,1422.51 1539.38,1422.56 1540.41,1422.62 1541.45,1422.68 1542.48,1422.73 1543.52,1422.79 1544.56,1422.84 1545.59,1422.9 1546.63,1422.95 1547.67,1423.01 1548.7,1423.06 1549.74,1423.12 1550.77,1423.17 1551.81,1423.23 1552.85,1423.28 1553.88,1423.34 1554.92,1423.39 1555.95,1423.45 1556.99,1423.5 1558.03,1423.55 1559.06,1423.61 1560.1,1423.66 1561.14,1423.71 1562.17,1423.77 1563.21,1423.82 1564.24,1423.88 1565.28,1423.93 1566.32,1423.98 1567.35,1424.03 1568.39,1424.09 1569.42,1424.14 1570.46,1424.19 1571.5,1424.25 1572.53,1424.3 1573.57,1424.35 1574.61,1424.4 1575.64,1424.45 1576.68,1424.51 1577.71,1424.56 1578.75,1424.61 1579.79,1424.66 1580.82,1424.71 1581.86,1424.77 1582.89,1424.82 1583.93,1424.87 1584.97,1424.92 1586,1424.97 1587.04,1425.02 1588.08,1425.07 1589.11,1425.12 1590.15,1425.17 1591.18,1425.23 1592.22,1425.28 1593.26,1425.33 1594.29,1425.38 1595.33,1425.43 1596.36,1425.48 1597.4,1425.53 1598.44,1425.58 1599.47,1425.63 1600.51,1425.68 1601.55,1425.73 1602.58,1425.78 1603.62,1425.83 1604.65,1425.87 1605.69,1425.92 1606.73,1425.97 1607.76,1426.02 1608.8,1426.07 1609.83,1426.12 1610.87,1426.17 1611.91,1426.22 1612.94,1426.27 1613.98,1426.31 1615.02,1426.36 1616.05,1426.41 1617.09,1426.46 1618.12,1426.51 1619.16,1426.56 1620.2,1426.6 1621.23,1426.65 1622.27,1426.7 1623.3,1426.75 1624.34,1426.8 1625.38,1426.84 1626.41,1426.89 1627.45,1426.94 1628.49,1426.98 1629.52,1427.03 1630.56,1427.08 1631.59,1427.13 1632.63,1427.17 1633.67,1427.22 1634.7,1427.27 1635.74,1427.31 1636.77,1427.36 1637.81,1427.41 1638.85,1427.45 1639.88,1427.5 1640.92,1427.54 1641.96,1427.59 1642.99,1427.64 1644.03,1427.68 1645.06,1427.73 1646.1,1427.77 1647.14,1427.82 1648.17,1427.87 1649.21,1427.91 1650.24,1427.96 1651.28,1428 1652.32,1428.05 1653.35,1428.09 1654.39,1428.14 1655.43,1428.18 1656.46,1428.23 1657.5,1428.27 1658.53,1428.32 1659.57,1428.36 1660.61,1428.41 1661.64,1428.45 1662.68,1428.5 1663.71,1428.54 1664.75,1428.58 1665.79,1428.63 1666.82,1428.67 1667.86,1428.72 1668.9,1428.76 1669.93,1428.8 1670.97,1428.85 1672,1428.89 1673.04,1428.93 1674.08,1428.98 1675.11,1429.02 1676.15,1429.07 1677.18,1429.11 1678.22,1429.15 1679.26,1429.2 1680.29,1429.24 1681.33,1429.28 1682.37,1429.32 1683.4,1429.37 1684.44,1429.41 1685.47,1429.45 1686.51,1429.49 1687.55,1429.54 1688.58,1429.58 1689.62,1429.62 1690.65,1429.66 1691.69,1429.71 1692.73,1429.75 1693.76,1429.79 1694.8,1429.83 1695.84,1429.87 1696.87,1429.92 1697.91,1429.96 1698.94,1430 1699.98,1430.04 1701.02,1430.08 1702.05,1430.12 1703.09,1430.17 1704.12,1430.21 1705.16,1430.25 1706.2,1430.29 1707.23,1430.33 1708.27,1430.37 1709.31,1430.41 1710.34,1430.45 1711.38,1430.49 1712.41,1430.54 1713.45,1430.58 1714.49,1430.62 1715.52,1430.66 1716.56,1430.7 1717.59,1430.74 1718.63,1430.78 1719.67,1430.82 1720.7,1430.86 1721.74,1430.9 1722.78,1430.94 1723.81,1430.98 1724.85,1431.02 1725.88,1431.06 1726.92,1431.1 1727.96,1431.14 1728.99,1431.18 1730.03,1431.22 1731.06,1431.26 1732.1,1431.3 1733.14,1431.34 1734.17,1431.37 1735.21,1431.41 1736.25,1431.45 1737.28,1431.49 1738.32,1431.53 1739.35,1431.57 1740.39,1431.61 1741.43,1431.65 1742.46,1431.69 1743.5,1431.72 1744.53,1431.76 1745.57,1431.8 1746.61,1431.84 1747.64,1431.88 1748.68,1431.92 1749.72,1431.96 1750.75,1431.99 1751.79,1432.03 1752.82,1432.07 1753.86,1432.11 1754.9,1432.15 1755.93,1432.18 1756.97,1432.22 1758,1432.26 1759.04,1432.3 1760.08,1432.33 1761.11,1432.37 1762.15,1432.41 1763.19,1432.45 1764.22,1432.48 1765.26,1432.52 1766.29,1432.56 1767.33,1432.6 1768.37,1432.63 1769.4,1432.67 1770.44,1432.71 1771.47,1432.74 1772.51,1432.78 1773.55,1432.82 1774.58,1432.85 1775.62,1432.89 1776.65,1432.93 1777.69,1432.96 1778.73,1433 1779.76,1433.04 1780.8,1433.07 1781.84,1433.11 1782.87,1433.15 1783.91,1433.18 1784.94,1433.22 1785.98,1433.25 1787.02,1433.29 1788.05,1433.33 1789.09,1433.36 1790.12,1433.4 1791.16,1433.43 1792.2,1433.47 1793.23,1433.5 1794.27,1433.54 1795.31,1433.58 1796.34,1433.61 1797.38,1433.65 1798.41,1433.68 1799.45,1433.72 1800.49,1433.75 1801.52,1433.79 1802.56,1433.82 1803.59,1433.86 1804.63,1433.89 1805.67,1433.93 1806.7,1433.96 1807.74,1434 1808.78,1434.03 1809.81,1434.07 1810.85,1434.1 1811.88,1434.14 1812.92,1434.17 1813.96,1434.21 1814.99,1434.24 1816.03,1434.27 1817.06,1434.31 1818.1,1434.34 1819.14,1434.38 1820.17,1434.41 1821.21,1434.45 1822.25,1434.48 1823.28,1434.51 1824.32,1434.55 1825.35,1434.58 1826.39,1434.61 1827.43,1434.65 1828.46,1434.68 1829.5,1434.72 1830.53,1434.75 1831.57,1434.78 1832.61,1434.82 1833.64,1434.85 1834.68,1434.88 1835.72,1434.92 1836.75,1434.95 1837.79,1434.98 1838.82,1435.02 1839.86,1435.05 1840.9,1435.08 1841.93,1435.12 1842.97,1435.15 1844,1435.18 1845.04,1435.21 1846.08,1435.25 1847.11,1435.28 1848.15,1435.31 1849.19,1435.35 1850.22,1435.38 1851.26,1435.41 1852.29,1435.44 1853.33,1435.48 1854.37,1435.51 1855.4,1435.54 1856.44,1435.57 1857.47,1435.6 1858.51,1435.64 1859.55,1435.67 1860.58,1435.7 1861.62,1435.73 1862.66,1435.77 1863.69,1435.8 1864.73,1435.83 1865.76,1435.86 1866.8,1435.89 1867.84,1435.92 1868.87,1435.96 1869.91,1435.99 1870.94,1436.02 1871.98,1436.05 1873.02,1436.08 1874.05,1436.11 1875.09,1436.14 1876.13,1436.18 1877.16,1436.21 1878.2,1436.24 1879.23,1436.27 1880.27,1436.3 1881.31,1436.33 1882.34,1436.36 1883.38,1436.39 1884.41,1436.43 1885.45,1436.46 1886.49,1436.49 1887.52,1436.52 1888.56,1436.55 1889.6,1436.58 1890.63,1436.61 1891.67,1436.64 1892.7,1436.67 1893.74,1436.7 1894.78,1436.73 1895.81,1436.76 1896.85,1436.79 1897.88,1436.82 1898.92,1436.85 1899.96,1436.88 1900.99,1436.91 1902.03,1436.94 1903.07,1436.97 1904.1,1437 1905.14,1437.03 1906.17,1437.06 1907.21,1437.09 1908.25,1437.12 1909.28,1437.15 1910.32,1437.18 1911.35,1437.21 1912.39,1437.24 1913.43,1437.27 1914.46,1437.3 1915.5,1437.33 1916.54,1437.36 1917.57,1437.39 1918.61,1437.42 1919.64,1437.45 1920.68,1437.48 1921.72,1437.51 1922.75,1437.54 1923.79,1437.57 1924.82,1437.6 1925.86,1437.62 1926.9,1437.65 1927.93,1437.68 1928.97,1437.71 1930.01,1437.74 1931.04,1437.77 1932.08,1437.8 1933.11,1437.83 1934.15,1437.86 1935.19,1437.89 1936.22,1437.91 1937.26,1437.94 1938.29,1437.97 1939.33,1438 1940.37,1438.03 1941.4,1438.06 1942.44,1438.08 1943.48,1438.11 1944.51,1438.14 1945.55,1438.17 1946.58,1438.2 1947.62,1438.23 1948.66,1438.25 1949.69,1438.28 1950.73,1438.31 1951.76,1438.34 1952.8,1438.37 1953.84,1438.39 1954.87,1438.42 1955.91,1438.45 1956.95,1438.48 1957.98,1438.51 1959.02,1438.53 1960.05,1438.56 1961.09,1438.59 1962.13,1438.62 1963.16,1438.64 1964.2,1438.67 1965.23,1438.7 1966.27,1438.73 1967.31,1438.75 1968.34,1438.78 1969.38,1438.81 1970.42,1438.84 1971.45,1438.86 1972.49,1438.89 1973.52,1438.92 1974.56,1438.95 1975.6,1438.97 1976.63,1439 1977.67,1439.03 1978.7,1439.05 1979.74,1439.08 1980.78,1439.11 1981.81,1439.13 1982.85,1439.16 1983.89,1439.19 1984.92,1439.21 1985.96,1439.24 1986.99,1439.27 1988.03,1439.29 1989.07,1439.32 1990.1,1439.35 1991.14,1439.37 1992.17,1439.4 1993.21,1439.43 1994.25,1439.45 1995.28,1439.48 1996.32,1439.51 1997.36,1439.53 1998.39,1439.56 1999.43,1439.59 2000.46,1439.61 2001.5,1439.64 2002.54,1439.66 2003.57,1439.69 2004.61,1439.72 2005.64,1439.74 2006.68,1439.77 2007.72,1439.79 2008.75,1439.82 2009.79,1439.85 2010.83,1439.87 2011.86,1439.9 2012.9,1439.92 2013.93,1439.95 2014.97,1439.97 2016.01,1440 2017.04,1440.03 2018.08,1440.05 2019.11,1440.08 2020.15,1440.1 2021.19,1440.13 2022.22,1440.15 2023.26,1440.18 2024.3,1440.2 2025.33,1440.23 2026.37,1440.25 2027.4,1440.28 2028.44,1440.31 2029.48,1440.33 2030.51,1440.36 2031.55,1440.38 2032.58,1440.41 2033.62,1440.43 2034.66,1440.46 2035.69,1440.48 2036.73,1440.51 2037.77,1440.53 2038.8,1440.56 2039.84,1440.58 2040.87,1440.6 2041.91,1440.63 2042.95,1440.65 2043.98,1440.68 2045.02,1440.7 2046.05,1440.73 2047.09,1440.75 2048.13,1440.78 2049.16,1440.8 2050.2,1440.83 2051.24,1440.85 2052.27,1440.88 2053.31,1440.9 2054.34,1440.92 2055.38,1440.95 2056.42,1440.97 2057.45,1441 2058.49,1441.02 2059.52,1441.05 2060.56,1441.07 2061.6,1441.09 2062.63,1441.12 2063.67,1441.14 2064.71,1441.17 2065.74,1441.19 2066.78,1441.21 2067.81,1441.24 2068.85,1441.26 2069.89,1441.29 2070.92,1441.31 2071.96,1441.33 2072.99,1441.36 2074.03,1441.38 2075.07,1441.4 2076.1,1441.43 2077.14,1441.45 2078.18,1441.47 2079.21,1441.5 2080.25,1441.52 2081.28,1441.55 2082.32,1441.57 2083.36,1441.59 2084.39,1441.62 2085.43,1441.64 2086.46,1441.66 2087.5,1441.69 2088.54,1441.71 2089.57,1441.73 2090.61,1441.76 2091.65,1441.78 2092.68,1441.8 2093.72,1441.82 2094.75,1441.85 2095.79,1441.87 2096.83,1441.89 2097.86,1441.92 2098.9,1441.94 2099.93,1441.96 2100.97,1441.99 2102.01,1442.01 2103.04,1442.03 2104.08,1442.05 2105.12,1442.08 2106.15,1442.1 2107.19,1442.12 2108.22,1442.15 2109.26,1442.17 2110.3,1442.19 2111.33,1442.21 2112.37,1442.24 2113.4,1442.26 2114.44,1442.28 2115.48,1442.3 2116.51,1442.33 2117.55,1442.35 2118.59,1442.37 2119.62,1442.39 2120.66,1442.42 2121.69,1442.44 2122.73,1442.46 2123.77,1442.48 2124.8,1442.5 2125.84,1442.53 2126.87,1442.55 2127.91,1442.57 2128.95,1442.59 2129.98,1442.61 2131.02,1442.64 2132.06,1442.66 2133.09,1442.68 2134.13,1442.7 2135.16,1442.72 2136.2,1442.75 2137.24,1442.77 2138.27,1442.79 2139.31,1442.81 2140.34,1442.83 2141.38,1442.86 2142.42,1442.88 2143.45,1442.9 2144.49,1442.92 2145.53,1442.94 2146.56,1442.96 2147.6,1442.99 2148.63,1443.01 2149.67,1443.03 2150.71,1443.05 2151.74,1443.07 2152.78,1443.09 2153.81,1443.11 2154.85,1443.14 2155.89,1443.16 2156.92,1443.18 2157.96,1443.2 2159,1443.22 2160.03,1443.24 2161.07,1443.26 2162.1,1443.28 2163.14,1443.31 2164.18,1443.33 2165.21,1443.35 2166.25,1443.37 2167.28,1443.39 2168.32,1443.41 2169.36,1443.43 2170.39,1443.45 2171.43,1443.47 2172.47,1443.5 2173.5,1443.52 2174.54,1443.54 2175.57,1443.56 2176.61,1443.58 2177.65,1443.6 2178.68,1443.62 2179.72,1443.64 2180.75,1443.66 2181.79,1443.68 2182.83,1443.7 2183.86,1443.72 2184.9,1443.74 2185.94,1443.76 2186.97,1443.79 2188.01,1443.81 2189.04,1443.83 2190.08,1443.85 2191.12,1443.87 2192.15,1443.89 2193.19,1443.91 2194.22,1443.93 2195.26,1443.95 2196.3,1443.97 2197.33,1443.99 2198.37,1444.01 2199.41,1444.03 2200.44,1444.05 2201.48,1444.07 2202.51,1444.09 2203.55,1444.11 2204.59,1444.13 2205.62,1444.15 2206.66,1444.17 2207.69,1444.19 2208.73,1444.21 2209.77,1444.23 2210.8,1444.25 2211.84,1444.27 2212.88,1444.29 2213.91,1444.31 2214.95,1444.33 2215.98,1444.35 2217.02,1444.37 2218.06,1444.39 2219.09,1444.41 2220.13,1444.43 2221.16,1444.45 2222.2,1444.47 2223.24,1444.49 2224.27,1444.51 2225.31,1444.53 2226.35,1444.55 2227.38,1444.57 2228.42,1444.59 2229.45,1444.61 2230.49,1444.63 2231.53,1444.64 2232.56,1444.66 2233.6,1444.68 2234.63,1444.7 2235.67,1444.72 2236.71,1444.74 2237.74,1444.76 2238.78,1444.78 2239.82,1444.8 2240.85,1444.82 2241.89,1444.84 2242.92,1444.86 2243.96,1444.88 2245,1444.9 2246.03,1444.91 2247.07,1444.93 2248.1,1444.95 2249.14,1444.97 2250.18,1444.99 2251.21,1445.01 2252.25,1445.03 2253.29,1445.05 2254.32,1445.07 2255.36,1445.09 2256.39,1445.1 2257.43,1445.12 2258.47,1445.14 2259.5,1445.16 2260.54,1445.18 2261.57,1445.2 2262.61,1445.22 2263.65,1445.24 2264.68,1445.26 2265.72,1445.27 2266.76,1445.29 2267.79,1445.31 2268.83,1445.33 2269.86,1445.35 2270.9,1445.37 2271.94,1445.39 2272.97,1445.4 2274.01,1445.42 2275.04,1445.44 2276.08,1445.46 2277.12,1445.48 2278.15,1445.5 2279.19,1445.51 2280.23,1445.53 2281.26,1445.55 2282.3,1445.57 2283.33,1445.59 2284.37,1445.61 2285.41,1445.62 2286.44,1445.64 2287.48,1445.66 2288.51,1445.68 2289.55,1445.7 2290.59,1445.72 "/>
<path clip-path="url(#clip890)" d="M2007.44 198.898 L2279.53 198.898 L2279.53 95.2176 L2007.44 95.2176  Z" fill="#ffffff" fill-rule="evenodd" fill-opacity="1"/>
<polyline clip-path="url(#clip890)" style="stroke:#000000; stroke-linecap:round; stroke-linejoin:round; stroke-width:4; stroke-opacity:1; fill:none" points="2007.44,198.898 2279.53,198.898 2279.53,95.2176 2007.44,95.2176 2007.44,198.898 "/>
<polyline clip-path="url(#clip890)" style="stroke:#009af9; stroke-linecap:round; stroke-linejoin:round; stroke-width:4; stroke-opacity:1; fill:none" points="2031.85,147.058 2178.29,147.058 "/>
<path clip-path="url(#clip890)" d="M2216.54 166.745 Q2214.73 171.375 2213.02 172.787 Q2211.31 174.199 2208.44 174.199 L2205.03 174.199 L2205.03 170.634 L2207.53 170.634 Q2209.29 170.634 2210.27 169.8 Q2211.24 168.967 2212.42 165.865 L2213.18 163.921 L2202.7 138.412 L2207.21 138.412 L2215.31 158.689 L2223.41 138.412 L2227.93 138.412 L2216.54 166.745 Z" fill="#000000" fill-rule="nonzero" fill-opacity="1" /><path clip-path="url(#clip890)" d="M2235.22 160.402 L2242.86 160.402 L2242.86 134.037 L2234.55 135.703 L2234.55 131.444 L2242.81 129.778 L2247.49 129.778 L2247.49 160.402 L2255.13 160.402 L2255.13 164.338 L2235.22 164.338 L2235.22 160.402 Z" fill="#000000" fill-rule="nonzero" fill-opacity="1" /></svg>
