<?xml version="1.0" encoding="utf-8"?>
<svg xmlns="http://www.w3.org/2000/svg" xmlns:xlink="http://www.w3.org/1999/xlink" width="600" height="400" viewBox="0 0 2400 1600">
<defs>
  <clipPath id="clip070">
    <rect x="0" y="0" width="2400" height="1600"/>
  </clipPath>
</defs>
<path clip-path="url(#clip070)" d="M0 1600 L2400 1600 L2400 0 L0 0  Z" fill="#ffffff" fill-rule="evenodd" fill-opacity="1"/>
<defs>
  <clipPath id="clip071">
    <rect x="480" y="0" width="1681" height="1600"/>
  </clipPath>
</defs>
<path clip-path="url(#clip070)" d="M156.274 1486.45 L2352.76 1486.45 L2352.76 47.2441 L156.274 47.2441  Z" fill="#ffffff" fill-rule="evenodd" fill-opacity="1"/>
<defs>
  <clipPath id="clip072">
    <rect x="156" y="47" width="2197" height="1440"/>
  </clipPath>
</defs>
<polyline clip-path="url(#clip072)" style="stroke:#000000; stroke-linecap:round; stroke-linejoin:round; stroke-width:2; stroke-opacity:0.1; fill:none" points="218.439,1486.45 218.439,47.2441 "/>
<polyline clip-path="url(#clip072)" style="stroke:#000000; stroke-linecap:round; stroke-linejoin:round; stroke-width:2; stroke-opacity:0.1; fill:none" points="633.035,1486.45 633.035,47.2441 "/>
<polyline clip-path="url(#clip072)" style="stroke:#000000; stroke-linecap:round; stroke-linejoin:round; stroke-width:2; stroke-opacity:0.1; fill:none" points="1047.63,1486.45 1047.63,47.2441 "/>
<polyline clip-path="url(#clip072)" style="stroke:#000000; stroke-linecap:round; stroke-linejoin:round; stroke-width:2; stroke-opacity:0.1; fill:none" points="1462.23,1486.45 1462.23,47.2441 "/>
<polyline clip-path="url(#clip072)" style="stroke:#000000; stroke-linecap:round; stroke-linejoin:round; stroke-width:2; stroke-opacity:0.1; fill:none" points="1876.82,1486.45 1876.82,47.2441 "/>
<polyline clip-path="url(#clip072)" style="stroke:#000000; stroke-linecap:round; stroke-linejoin:round; stroke-width:2; stroke-opacity:0.1; fill:none" points="2291.42,1486.45 2291.42,47.2441 "/>
<polyline clip-path="url(#clip070)" style="stroke:#000000; stroke-linecap:round; stroke-linejoin:round; stroke-width:4; stroke-opacity:1; fill:none" points="156.274,1486.45 2352.76,1486.45 "/>
<polyline clip-path="url(#clip070)" style="stroke:#000000; stroke-linecap:round; stroke-linejoin:round; stroke-width:4; stroke-opacity:1; fill:none" points="218.439,1486.45 218.439,1467.55 "/>
<polyline clip-path="url(#clip070)" style="stroke:#000000; stroke-linecap:round; stroke-linejoin:round; stroke-width:4; stroke-opacity:1; fill:none" points="633.035,1486.45 633.035,1467.55 "/>
<polyline clip-path="url(#clip070)" style="stroke:#000000; stroke-linecap:round; stroke-linejoin:round; stroke-width:4; stroke-opacity:1; fill:none" points="1047.63,1486.45 1047.63,1467.55 "/>
<polyline clip-path="url(#clip070)" style="stroke:#000000; stroke-linecap:round; stroke-linejoin:round; stroke-width:4; stroke-opacity:1; fill:none" points="1462.23,1486.45 1462.23,1467.55 "/>
<polyline clip-path="url(#clip070)" style="stroke:#000000; stroke-linecap:round; stroke-linejoin:round; stroke-width:4; stroke-opacity:1; fill:none" points="1876.82,1486.45 1876.82,1467.55 "/>
<polyline clip-path="url(#clip070)" style="stroke:#000000; stroke-linecap:round; stroke-linejoin:round; stroke-width:4; stroke-opacity:1; fill:none" points="2291.42,1486.45 2291.42,1467.55 "/>
<path clip-path="url(#clip070)" d="M218.439 1517.37 Q214.828 1517.37 212.999 1520.93 Q211.193 1524.47 211.193 1531.6 Q211.193 1538.71 212.999 1542.27 Q214.828 1545.82 218.439 1545.82 Q222.073 1545.82 223.879 1542.27 Q225.707 1538.71 225.707 1531.6 Q225.707 1524.47 223.879 1520.93 Q222.073 1517.37 218.439 1517.37 M218.439 1513.66 Q224.249 1513.66 227.304 1518.27 Q230.383 1522.85 230.383 1531.6 Q230.383 1540.33 227.304 1544.94 Q224.249 1549.52 218.439 1549.52 Q212.629 1549.52 209.55 1544.94 Q206.494 1540.33 206.494 1531.6 Q206.494 1522.85 209.55 1518.27 Q212.629 1513.66 218.439 1513.66 Z" fill="#000000" fill-rule="nonzero" fill-opacity="1" /><path clip-path="url(#clip070)" d="M592.653 1514.29 L611.01 1514.29 L611.01 1518.22 L596.936 1518.22 L596.936 1526.7 Q597.954 1526.35 598.973 1526.19 Q599.991 1526 601.01 1526 Q606.797 1526 610.176 1529.17 Q613.556 1532.34 613.556 1537.76 Q613.556 1543.34 610.084 1546.44 Q606.612 1549.52 600.292 1549.52 Q598.116 1549.52 595.848 1549.15 Q593.602 1548.78 591.195 1548.04 L591.195 1543.34 Q593.278 1544.47 595.501 1545.03 Q597.723 1545.58 600.2 1545.58 Q604.204 1545.58 606.542 1543.48 Q608.88 1541.37 608.88 1537.76 Q608.88 1534.15 606.542 1532.04 Q604.204 1529.94 600.2 1529.94 Q598.325 1529.94 596.45 1530.35 Q594.598 1530.77 592.653 1531.65 L592.653 1514.29 Z" fill="#000000" fill-rule="nonzero" fill-opacity="1" /><path clip-path="url(#clip070)" d="M632.769 1517.37 Q629.158 1517.37 627.329 1520.93 Q625.524 1524.47 625.524 1531.6 Q625.524 1538.71 627.329 1542.27 Q629.158 1545.82 632.769 1545.82 Q636.403 1545.82 638.209 1542.27 Q640.037 1538.71 640.037 1531.6 Q640.037 1524.47 638.209 1520.93 Q636.403 1517.37 632.769 1517.37 M632.769 1513.66 Q638.579 1513.66 641.635 1518.27 Q644.713 1522.85 644.713 1531.6 Q644.713 1540.33 641.635 1544.94 Q638.579 1549.52 632.769 1549.52 Q626.959 1549.52 623.88 1544.94 Q620.825 1540.33 620.825 1531.6 Q620.825 1522.85 623.88 1518.27 Q626.959 1513.66 632.769 1513.66 Z" fill="#000000" fill-rule="nonzero" fill-opacity="1" /><path clip-path="url(#clip070)" d="M662.931 1517.37 Q659.32 1517.37 657.491 1520.93 Q655.685 1524.47 655.685 1531.6 Q655.685 1538.71 657.491 1542.27 Q659.32 1545.82 662.931 1545.82 Q666.565 1545.82 668.371 1542.27 Q670.199 1538.71 670.199 1531.6 Q670.199 1524.47 668.371 1520.93 Q666.565 1517.37 662.931 1517.37 M662.931 1513.66 Q668.741 1513.66 671.796 1518.27 Q674.875 1522.85 674.875 1531.6 Q674.875 1540.33 671.796 1544.94 Q668.741 1549.52 662.931 1549.52 Q657.121 1549.52 654.042 1544.94 Q650.986 1540.33 650.986 1531.6 Q650.986 1522.85 654.042 1518.27 Q657.121 1513.66 662.931 1513.66 Z" fill="#000000" fill-rule="nonzero" fill-opacity="1" /><path clip-path="url(#clip070)" d="M992.157 1544.91 L999.796 1544.91 L999.796 1518.55 L991.486 1520.21 L991.486 1515.95 L999.75 1514.29 L1004.43 1514.29 L1004.43 1544.91 L1012.06 1544.91 L1012.06 1548.85 L992.157 1548.85 L992.157 1544.91 Z" fill="#000000" fill-rule="nonzero" fill-opacity="1" /><path clip-path="url(#clip070)" d="M1031.51 1517.37 Q1027.9 1517.37 1026.07 1520.93 Q1024.26 1524.47 1024.26 1531.6 Q1024.26 1538.71 1026.07 1542.27 Q1027.9 1545.82 1031.51 1545.82 Q1035.14 1545.82 1036.95 1542.27 Q1038.78 1538.71 1038.78 1531.6 Q1038.78 1524.47 1036.95 1520.93 Q1035.14 1517.37 1031.51 1517.37 M1031.51 1513.66 Q1037.32 1513.66 1040.37 1518.27 Q1043.45 1522.85 1043.45 1531.6 Q1043.45 1540.33 1040.37 1544.94 Q1037.32 1549.52 1031.51 1549.52 Q1025.7 1549.52 1022.62 1544.94 Q1019.56 1540.33 1019.56 1531.6 Q1019.56 1522.85 1022.62 1518.27 Q1025.7 1513.66 1031.51 1513.66 Z" fill="#000000" fill-rule="nonzero" fill-opacity="1" /><path clip-path="url(#clip070)" d="M1061.67 1517.37 Q1058.06 1517.37 1056.23 1520.93 Q1054.43 1524.47 1054.43 1531.6 Q1054.43 1538.71 1056.23 1542.27 Q1058.06 1545.82 1061.67 1545.82 Q1065.3 1545.82 1067.11 1542.27 Q1068.94 1538.71 1068.94 1531.6 Q1068.94 1524.47 1067.11 1520.93 Q1065.3 1517.37 1061.67 1517.37 M1061.67 1513.66 Q1067.48 1513.66 1070.54 1518.27 Q1073.62 1522.85 1073.62 1531.6 Q1073.62 1540.33 1070.54 1544.94 Q1067.48 1549.52 1061.67 1549.52 Q1055.86 1549.52 1052.78 1544.94 Q1049.73 1540.33 1049.73 1531.6 Q1049.73 1522.85 1052.78 1518.27 Q1055.86 1513.66 1061.67 1513.66 Z" fill="#000000" fill-rule="nonzero" fill-opacity="1" /><path clip-path="url(#clip070)" d="M1091.83 1517.37 Q1088.22 1517.37 1086.39 1520.93 Q1084.59 1524.47 1084.59 1531.6 Q1084.59 1538.71 1086.39 1542.27 Q1088.22 1545.82 1091.83 1545.82 Q1095.47 1545.82 1097.27 1542.27 Q1099.1 1538.71 1099.1 1531.6 Q1099.1 1524.47 1097.27 1520.93 Q1095.47 1517.37 1091.83 1517.37 M1091.83 1513.66 Q1097.64 1513.66 1100.7 1518.27 Q1103.78 1522.85 1103.78 1531.6 Q1103.78 1540.33 1100.7 1544.94 Q1097.64 1549.52 1091.83 1549.52 Q1086.02 1549.52 1082.94 1544.94 Q1079.89 1540.33 1079.89 1531.6 Q1079.89 1522.85 1082.94 1518.27 Q1086.02 1513.66 1091.83 1513.66 Z" fill="#000000" fill-rule="nonzero" fill-opacity="1" /><path clip-path="url(#clip070)" d="M1406.75 1544.91 L1414.39 1544.91 L1414.39 1518.55 L1406.08 1520.21 L1406.08 1515.95 L1414.35 1514.29 L1419.02 1514.29 L1419.02 1544.91 L1426.66 1544.91 L1426.66 1548.85 L1406.75 1548.85 L1406.75 1544.91 Z" fill="#000000" fill-rule="nonzero" fill-opacity="1" /><path clip-path="url(#clip070)" d="M1436.15 1514.29 L1454.51 1514.29 L1454.51 1518.22 L1440.43 1518.22 L1440.43 1526.7 Q1441.45 1526.35 1442.47 1526.19 Q1443.49 1526 1444.51 1526 Q1450.3 1526 1453.67 1529.17 Q1457.05 1532.34 1457.05 1537.76 Q1457.05 1543.34 1453.58 1546.44 Q1450.11 1549.52 1443.79 1549.52 Q1441.61 1549.52 1439.35 1549.15 Q1437.1 1548.78 1434.69 1548.04 L1434.69 1543.34 Q1436.78 1544.47 1439 1545.03 Q1441.22 1545.58 1443.7 1545.58 Q1447.7 1545.58 1450.04 1543.48 Q1452.38 1541.37 1452.38 1537.76 Q1452.38 1534.15 1450.04 1532.04 Q1447.7 1529.94 1443.7 1529.94 Q1441.82 1529.94 1439.95 1530.35 Q1438.1 1530.77 1436.15 1531.65 L1436.15 1514.29 Z" fill="#000000" fill-rule="nonzero" fill-opacity="1" /><path clip-path="url(#clip070)" d="M1476.27 1517.37 Q1472.66 1517.37 1470.83 1520.93 Q1469.02 1524.47 1469.02 1531.6 Q1469.02 1538.71 1470.83 1542.27 Q1472.66 1545.82 1476.27 1545.82 Q1479.9 1545.82 1481.71 1542.27 Q1483.54 1538.71 1483.54 1531.6 Q1483.54 1524.47 1481.71 1520.93 Q1479.9 1517.37 1476.27 1517.37 M1476.27 1513.66 Q1482.08 1513.66 1485.13 1518.27 Q1488.21 1522.85 1488.21 1531.6 Q1488.21 1540.33 1485.13 1544.94 Q1482.08 1549.52 1476.27 1549.52 Q1470.46 1549.52 1467.38 1544.94 Q1464.32 1540.33 1464.32 1531.6 Q1464.32 1522.85 1467.38 1518.27 Q1470.46 1513.66 1476.27 1513.66 Z" fill="#000000" fill-rule="nonzero" fill-opacity="1" /><path clip-path="url(#clip070)" d="M1506.43 1517.37 Q1502.82 1517.37 1500.99 1520.93 Q1499.18 1524.47 1499.18 1531.6 Q1499.18 1538.71 1500.99 1542.27 Q1502.82 1545.82 1506.43 1545.82 Q1510.06 1545.82 1511.87 1542.27 Q1513.7 1538.71 1513.7 1531.6 Q1513.7 1524.47 1511.87 1520.93 Q1510.06 1517.37 1506.43 1517.37 M1506.43 1513.66 Q1512.24 1513.66 1515.29 1518.27 Q1518.37 1522.85 1518.37 1531.6 Q1518.37 1540.33 1515.29 1544.94 Q1512.24 1549.52 1506.43 1549.52 Q1500.62 1549.52 1497.54 1544.94 Q1494.48 1540.33 1494.48 1531.6 Q1494.48 1522.85 1497.54 1518.27 Q1500.62 1513.66 1506.43 1513.66 Z" fill="#000000" fill-rule="nonzero" fill-opacity="1" /><path clip-path="url(#clip070)" d="M1825.44 1544.91 L1841.75 1544.91 L1841.75 1548.85 L1819.81 1548.85 L1819.81 1544.91 Q1822.47 1542.16 1827.06 1537.53 Q1831.66 1532.88 1832.84 1531.53 Q1835.09 1529.01 1835.97 1527.27 Q1836.87 1525.51 1836.87 1523.82 Q1836.87 1521.07 1834.93 1519.33 Q1833 1517.6 1829.9 1517.6 Q1827.7 1517.6 1825.25 1518.36 Q1822.82 1519.13 1820.04 1520.68 L1820.04 1515.95 Q1822.87 1514.82 1825.32 1514.24 Q1827.77 1513.66 1829.81 1513.66 Q1835.18 1513.66 1838.38 1516.35 Q1841.57 1519.03 1841.57 1523.52 Q1841.57 1525.65 1840.76 1527.57 Q1839.97 1529.47 1837.87 1532.07 Q1837.29 1532.74 1834.19 1535.95 Q1831.08 1539.15 1825.44 1544.91 Z" fill="#000000" fill-rule="nonzero" fill-opacity="1" /><path clip-path="url(#clip070)" d="M1861.57 1517.37 Q1857.96 1517.37 1856.13 1520.93 Q1854.32 1524.47 1854.32 1531.6 Q1854.32 1538.71 1856.13 1542.27 Q1857.96 1545.82 1861.57 1545.82 Q1865.2 1545.82 1867.01 1542.27 Q1868.84 1538.71 1868.84 1531.6 Q1868.84 1524.47 1867.01 1520.93 Q1865.2 1517.37 1861.57 1517.37 M1861.57 1513.66 Q1867.38 1513.66 1870.44 1518.27 Q1873.51 1522.85 1873.51 1531.6 Q1873.51 1540.33 1870.44 1544.94 Q1867.38 1549.52 1861.57 1549.52 Q1855.76 1549.52 1852.68 1544.94 Q1849.63 1540.33 1849.63 1531.6 Q1849.63 1522.85 1852.68 1518.27 Q1855.76 1513.66 1861.57 1513.66 Z" fill="#000000" fill-rule="nonzero" fill-opacity="1" /><path clip-path="url(#clip070)" d="M1891.73 1517.37 Q1888.12 1517.37 1886.29 1520.93 Q1884.49 1524.47 1884.49 1531.6 Q1884.49 1538.71 1886.29 1542.27 Q1888.12 1545.82 1891.73 1545.82 Q1895.37 1545.82 1897.17 1542.27 Q1899 1538.71 1899 1531.6 Q1899 1524.47 1897.17 1520.93 Q1895.37 1517.37 1891.73 1517.37 M1891.73 1513.66 Q1897.54 1513.66 1900.6 1518.27 Q1903.68 1522.85 1903.68 1531.6 Q1903.68 1540.33 1900.6 1544.94 Q1897.54 1549.52 1891.73 1549.52 Q1885.92 1549.52 1882.84 1544.94 Q1879.79 1540.33 1879.79 1531.6 Q1879.79 1522.85 1882.84 1518.27 Q1885.92 1513.66 1891.73 1513.66 Z" fill="#000000" fill-rule="nonzero" fill-opacity="1" /><path clip-path="url(#clip070)" d="M1921.89 1517.37 Q1918.28 1517.37 1916.45 1520.93 Q1914.65 1524.47 1914.65 1531.6 Q1914.65 1538.71 1916.45 1542.27 Q1918.28 1545.82 1921.89 1545.82 Q1925.53 1545.82 1927.33 1542.27 Q1929.16 1538.71 1929.16 1531.6 Q1929.16 1524.47 1927.33 1520.93 Q1925.53 1517.37 1921.89 1517.37 M1921.89 1513.66 Q1927.7 1513.66 1930.76 1518.27 Q1933.84 1522.85 1933.84 1531.6 Q1933.84 1540.33 1930.76 1544.94 Q1927.7 1549.52 1921.89 1549.52 Q1916.08 1549.52 1913 1544.94 Q1909.95 1540.33 1909.95 1531.6 Q1909.95 1522.85 1913 1518.27 Q1916.08 1513.66 1921.89 1513.66 Z" fill="#000000" fill-rule="nonzero" fill-opacity="1" /><path clip-path="url(#clip070)" d="M2240.03 1544.91 L2256.35 1544.91 L2256.35 1548.85 L2234.41 1548.85 L2234.41 1544.91 Q2237.07 1542.16 2241.65 1537.53 Q2246.26 1532.88 2247.44 1531.53 Q2249.68 1529.01 2250.56 1527.27 Q2251.47 1525.51 2251.47 1523.82 Q2251.47 1521.07 2249.52 1519.33 Q2247.6 1517.6 2244.5 1517.6 Q2242.3 1517.6 2239.85 1518.36 Q2237.42 1519.13 2234.64 1520.68 L2234.64 1515.95 Q2237.46 1514.82 2239.92 1514.24 Q2242.37 1513.66 2244.41 1513.66 Q2249.78 1513.66 2252.97 1516.35 Q2256.17 1519.03 2256.17 1523.52 Q2256.17 1525.65 2255.36 1527.57 Q2254.57 1529.47 2252.46 1532.07 Q2251.88 1532.74 2248.78 1535.95 Q2245.68 1539.15 2240.03 1544.91 Z" fill="#000000" fill-rule="nonzero" fill-opacity="1" /><path clip-path="url(#clip070)" d="M2266.21 1514.29 L2284.57 1514.29 L2284.57 1518.22 L2270.49 1518.22 L2270.49 1526.7 Q2271.51 1526.35 2272.53 1526.19 Q2273.55 1526 2274.57 1526 Q2280.36 1526 2283.74 1529.17 Q2287.11 1532.34 2287.11 1537.76 Q2287.11 1543.34 2283.64 1546.44 Q2280.17 1549.52 2273.85 1549.52 Q2271.68 1549.52 2269.41 1549.15 Q2267.16 1548.78 2264.75 1548.04 L2264.75 1543.34 Q2266.84 1544.47 2269.06 1545.03 Q2271.28 1545.58 2273.76 1545.58 Q2277.76 1545.58 2280.1 1543.48 Q2282.44 1541.37 2282.44 1537.76 Q2282.44 1534.15 2280.1 1532.04 Q2277.76 1529.94 2273.76 1529.94 Q2271.88 1529.94 2270.01 1530.35 Q2268.16 1530.77 2266.21 1531.65 L2266.21 1514.29 Z" fill="#000000" fill-rule="nonzero" fill-opacity="1" /><path clip-path="url(#clip070)" d="M2306.33 1517.37 Q2302.72 1517.37 2300.89 1520.93 Q2299.08 1524.47 2299.08 1531.6 Q2299.08 1538.71 2300.89 1542.27 Q2302.72 1545.82 2306.33 1545.82 Q2309.96 1545.82 2311.77 1542.27 Q2313.6 1538.71 2313.6 1531.6 Q2313.6 1524.47 2311.77 1520.93 Q2309.96 1517.37 2306.33 1517.37 M2306.33 1513.66 Q2312.14 1513.66 2315.19 1518.27 Q2318.27 1522.85 2318.27 1531.6 Q2318.27 1540.33 2315.19 1544.94 Q2312.14 1549.52 2306.33 1549.52 Q2300.52 1549.52 2297.44 1544.94 Q2294.38 1540.33 2294.38 1531.6 Q2294.38 1522.85 2297.44 1518.27 Q2300.52 1513.66 2306.33 1513.66 Z" fill="#000000" fill-rule="nonzero" fill-opacity="1" /><path clip-path="url(#clip070)" d="M2336.49 1517.37 Q2332.88 1517.37 2331.05 1520.93 Q2329.24 1524.47 2329.24 1531.6 Q2329.24 1538.71 2331.05 1542.27 Q2332.88 1545.82 2336.49 1545.82 Q2340.12 1545.82 2341.93 1542.27 Q2343.76 1538.71 2343.76 1531.6 Q2343.76 1524.47 2341.93 1520.93 Q2340.12 1517.37 2336.49 1517.37 M2336.49 1513.66 Q2342.3 1513.66 2345.36 1518.27 Q2348.43 1522.85 2348.43 1531.6 Q2348.43 1540.33 2345.36 1544.94 Q2342.3 1549.52 2336.49 1549.52 Q2330.68 1549.52 2327.6 1544.94 Q2324.55 1540.33 2324.55 1531.6 Q2324.55 1522.85 2327.6 1518.27 Q2330.68 1513.66 2336.49 1513.66 Z" fill="#000000" fill-rule="nonzero" fill-opacity="1" /><polyline clip-path="url(#clip072)" style="stroke:#000000; stroke-linecap:round; stroke-linejoin:round; stroke-width:2; stroke-opacity:0.1; fill:none" points="156.274,1277.61 2352.76,1277.61 "/>
<polyline clip-path="url(#clip072)" style="stroke:#000000; stroke-linecap:round; stroke-linejoin:round; stroke-width:2; stroke-opacity:0.1; fill:none" points="156.274,980.205 2352.76,980.205 "/>
<polyline clip-path="url(#clip072)" style="stroke:#000000; stroke-linecap:round; stroke-linejoin:round; stroke-width:2; stroke-opacity:0.1; fill:none" points="156.274,682.795 2352.76,682.795 "/>
<polyline clip-path="url(#clip072)" style="stroke:#000000; stroke-linecap:round; stroke-linejoin:round; stroke-width:2; stroke-opacity:0.1; fill:none" points="156.274,385.386 2352.76,385.386 "/>
<polyline clip-path="url(#clip072)" style="stroke:#000000; stroke-linecap:round; stroke-linejoin:round; stroke-width:2; stroke-opacity:0.1; fill:none" points="156.274,87.9763 2352.76,87.9763 "/>
<polyline clip-path="url(#clip070)" style="stroke:#000000; stroke-linecap:round; stroke-linejoin:round; stroke-width:4; stroke-opacity:1; fill:none" points="156.274,1486.45 156.274,47.2441 "/>
<polyline clip-path="url(#clip070)" style="stroke:#000000; stroke-linecap:round; stroke-linejoin:round; stroke-width:4; stroke-opacity:1; fill:none" points="156.274,1277.61 175.172,1277.61 "/>
<polyline clip-path="url(#clip070)" style="stroke:#000000; stroke-linecap:round; stroke-linejoin:round; stroke-width:4; stroke-opacity:1; fill:none" points="156.274,980.205 175.172,980.205 "/>
<polyline clip-path="url(#clip070)" style="stroke:#000000; stroke-linecap:round; stroke-linejoin:round; stroke-width:4; stroke-opacity:1; fill:none" points="156.274,682.795 175.172,682.795 "/>
<polyline clip-path="url(#clip070)" style="stroke:#000000; stroke-linecap:round; stroke-linejoin:round; stroke-width:4; stroke-opacity:1; fill:none" points="156.274,385.386 175.172,385.386 "/>
<polyline clip-path="url(#clip070)" style="stroke:#000000; stroke-linecap:round; stroke-linejoin:round; stroke-width:4; stroke-opacity:1; fill:none" points="156.274,87.9763 175.172,87.9763 "/>
<path clip-path="url(#clip070)" d="M62.9365 1263.41 Q59.3254 1263.41 57.4967 1266.98 Q55.6912 1270.52 55.6912 1277.65 Q55.6912 1284.76 57.4967 1288.32 Q59.3254 1291.86 62.9365 1291.86 Q66.5707 1291.86 68.3763 1288.32 Q70.205 1284.76 70.205 1277.65 Q70.205 1270.52 68.3763 1266.98 Q66.5707 1263.41 62.9365 1263.41 M62.9365 1259.71 Q68.7467 1259.71 71.8022 1264.32 Q74.8809 1268.9 74.8809 1277.65 Q74.8809 1286.38 71.8022 1290.98 Q68.7467 1295.57 62.9365 1295.57 Q57.1264 1295.57 54.0477 1290.98 Q50.9921 1286.38 50.9921 1277.65 Q50.9921 1268.9 54.0477 1264.32 Q57.1264 1259.71 62.9365 1259.71 Z" fill="#000000" fill-rule="nonzero" fill-opacity="1" /><path clip-path="url(#clip070)" d="M83.0984 1289.02 L87.9827 1289.02 L87.9827 1294.89 L83.0984 1294.89 L83.0984 1289.02 Z" fill="#000000" fill-rule="nonzero" fill-opacity="1" /><path clip-path="url(#clip070)" d="M108.746 1275.75 Q105.598 1275.75 103.746 1277.9 Q101.918 1280.06 101.918 1283.81 Q101.918 1287.53 103.746 1289.71 Q105.598 1291.86 108.746 1291.86 Q111.895 1291.86 113.723 1289.71 Q115.575 1287.53 115.575 1283.81 Q115.575 1280.06 113.723 1277.9 Q111.895 1275.75 108.746 1275.75 M118.029 1261.1 L118.029 1265.36 Q116.27 1264.52 114.464 1264.08 Q112.682 1263.64 110.922 1263.64 Q106.293 1263.64 103.839 1266.77 Q101.409 1269.89 101.061 1276.21 Q102.427 1274.2 104.487 1273.14 Q106.547 1272.05 109.024 1272.05 Q114.233 1272.05 117.242 1275.22 Q120.274 1278.37 120.274 1283.81 Q120.274 1289.13 117.126 1292.35 Q113.978 1295.57 108.746 1295.57 Q102.751 1295.57 99.5798 1290.98 Q96.4085 1286.38 96.4085 1277.65 Q96.4085 1269.45 100.297 1264.59 Q104.186 1259.71 110.737 1259.71 Q112.496 1259.71 114.279 1260.06 Q116.084 1260.4 118.029 1261.1 Z" fill="#000000" fill-rule="nonzero" fill-opacity="1" /><path clip-path="url(#clip070)" d="M64.0013 966.004 Q60.3902 966.004 58.5615 969.569 Q56.756 973.11 56.756 980.24 Q56.756 987.346 58.5615 990.911 Q60.3902 994.453 64.0013 994.453 Q67.6356 994.453 69.4411 990.911 Q71.2698 987.346 71.2698 980.24 Q71.2698 973.11 69.4411 969.569 Q67.6356 966.004 64.0013 966.004 M64.0013 962.3 Q69.8115 962.3 72.867 966.906 Q75.9457 971.49 75.9457 980.24 Q75.9457 988.967 72.867 993.573 Q69.8115 998.156 64.0013 998.156 Q58.1912 998.156 55.1125 993.573 Q52.0569 988.967 52.0569 980.24 Q52.0569 971.49 55.1125 966.906 Q58.1912 962.3 64.0013 962.3 Z" fill="#000000" fill-rule="nonzero" fill-opacity="1" /><path clip-path="url(#clip070)" d="M84.1632 991.605 L89.0475 991.605 L89.0475 997.485 L84.1632 997.485 L84.1632 991.605 Z" fill="#000000" fill-rule="nonzero" fill-opacity="1" /><path clip-path="url(#clip070)" d="M98.0521 962.925 L120.274 962.925 L120.274 964.916 L107.728 997.485 L102.844 997.485 L114.649 966.86 L98.0521 966.86 L98.0521 962.925 Z" fill="#000000" fill-rule="nonzero" fill-opacity="1" /><path clip-path="url(#clip070)" d="M63.1911 668.594 Q59.58 668.594 57.7513 672.159 Q55.9458 675.701 55.9458 682.83 Q55.9458 689.937 57.7513 693.501 Q59.58 697.043 63.1911 697.043 Q66.8254 697.043 68.6309 693.501 Q70.4596 689.937 70.4596 682.83 Q70.4596 675.701 68.6309 672.159 Q66.8254 668.594 63.1911 668.594 M63.1911 664.89 Q69.0013 664.89 72.0568 669.497 Q75.1355 674.08 75.1355 682.83 Q75.1355 691.557 72.0568 696.163 Q69.0013 700.747 63.1911 700.747 Q57.381 700.747 54.3023 696.163 Q51.2468 691.557 51.2468 682.83 Q51.2468 674.08 54.3023 669.497 Q57.381 664.89 63.1911 664.89 Z" fill="#000000" fill-rule="nonzero" fill-opacity="1" /><path clip-path="url(#clip070)" d="M83.3531 694.196 L88.2373 694.196 L88.2373 700.075 L83.3531 700.075 L83.3531 694.196 Z" fill="#000000" fill-rule="nonzero" fill-opacity="1" /><path clip-path="url(#clip070)" d="M108.422 683.663 Q105.089 683.663 103.168 685.446 Q101.27 687.228 101.27 690.353 Q101.27 693.478 103.168 695.261 Q105.089 697.043 108.422 697.043 Q111.756 697.043 113.677 695.261 Q115.598 693.455 115.598 690.353 Q115.598 687.228 113.677 685.446 Q111.779 683.663 108.422 683.663 M103.746 681.673 Q100.737 680.932 99.0474 678.872 Q97.3808 676.812 97.3808 673.849 Q97.3808 669.705 100.321 667.298 Q103.284 664.89 108.422 664.89 Q113.584 664.89 116.524 667.298 Q119.464 669.705 119.464 673.849 Q119.464 676.812 117.774 678.872 Q116.108 680.932 113.121 681.673 Q116.501 682.46 118.376 684.751 Q120.274 687.043 120.274 690.353 Q120.274 695.376 117.195 698.062 Q114.14 700.747 108.422 700.747 Q102.705 700.747 99.6261 698.062 Q96.5706 695.376 96.5706 690.353 Q96.5706 687.043 98.4687 684.751 Q100.367 682.46 103.746 681.673 M102.034 674.289 Q102.034 676.974 103.7 678.478 Q105.39 679.983 108.422 679.983 Q111.432 679.983 113.121 678.478 Q114.834 676.974 114.834 674.289 Q114.834 671.603 113.121 670.099 Q111.432 668.594 108.422 668.594 Q105.39 668.594 103.7 670.099 Q102.034 671.603 102.034 674.289 Z" fill="#000000" fill-rule="nonzero" fill-opacity="1" /><path clip-path="url(#clip070)" d="M63.2837 371.185 Q59.6726 371.185 57.8439 374.749 Q56.0384 378.291 56.0384 385.421 Q56.0384 392.527 57.8439 396.092 Q59.6726 399.633 63.2837 399.633 Q66.918 399.633 68.7235 396.092 Q70.5522 392.527 70.5522 385.421 Q70.5522 378.291 68.7235 374.749 Q66.918 371.185 63.2837 371.185 M63.2837 367.481 Q69.0939 367.481 72.1494 372.087 Q75.2281 376.671 75.2281 385.421 Q75.2281 394.147 72.1494 398.754 Q69.0939 403.337 63.2837 403.337 Q57.4736 403.337 54.3949 398.754 Q51.3393 394.147 51.3393 385.421 Q51.3393 376.671 54.3949 372.087 Q57.4736 367.481 63.2837 367.481 Z" fill="#000000" fill-rule="nonzero" fill-opacity="1" /><path clip-path="url(#clip070)" d="M83.4457 396.786 L88.3299 396.786 L88.3299 402.666 L83.4457 402.666 L83.4457 396.786 Z" fill="#000000" fill-rule="nonzero" fill-opacity="1" /><path clip-path="url(#clip070)" d="M98.6539 401.948 L98.6539 397.689 Q100.413 398.522 102.219 398.962 Q104.024 399.402 105.76 399.402 Q110.39 399.402 112.82 396.3 Q115.274 393.175 115.621 386.833 Q114.279 388.823 112.219 389.888 Q110.158 390.953 107.658 390.953 Q102.473 390.953 99.4409 387.828 Q96.4317 384.68 96.4317 379.24 Q96.4317 373.916 99.5798 370.698 Q102.728 367.481 107.959 367.481 Q113.955 367.481 117.103 372.087 Q120.274 376.671 120.274 385.421 Q120.274 393.592 116.385 398.476 Q112.52 403.337 105.969 403.337 Q104.209 403.337 102.404 402.99 Q100.598 402.643 98.6539 401.948 M107.959 387.296 Q111.108 387.296 112.936 385.143 Q114.788 382.99 114.788 379.24 Q114.788 375.513 112.936 373.36 Q111.108 371.185 107.959 371.185 Q104.811 371.185 102.959 373.36 Q101.131 375.513 101.131 379.24 Q101.131 382.99 102.959 385.143 Q104.811 387.296 107.959 387.296 Z" fill="#000000" fill-rule="nonzero" fill-opacity="1" /><path clip-path="url(#clip070)" d="M53.9088 101.321 L61.5476 101.321 L61.5476 74.9555 L53.2375 76.6222 L53.2375 72.3629 L61.5013 70.6963 L66.1772 70.6963 L66.1772 101.321 L73.8161 101.321 L73.8161 105.256 L53.9088 105.256 L53.9088 101.321 Z" fill="#000000" fill-rule="nonzero" fill-opacity="1" /><path clip-path="url(#clip070)" d="M83.2605 99.3767 L88.1447 99.3767 L88.1447 105.256 L83.2605 105.256 L83.2605 99.3767 Z" fill="#000000" fill-rule="nonzero" fill-opacity="1" /><path clip-path="url(#clip070)" d="M108.33 73.775 Q104.719 73.775 102.89 77.3398 Q101.084 80.8814 101.084 88.011 Q101.084 95.1174 102.89 98.6822 Q104.719 102.224 108.33 102.224 Q111.964 102.224 113.77 98.6822 Q115.598 95.1174 115.598 88.011 Q115.598 80.8814 113.77 77.3398 Q111.964 73.775 108.33 73.775 M108.33 70.0713 Q114.14 70.0713 117.195 74.6777 Q120.274 79.261 120.274 88.011 Q120.274 96.7378 117.195 101.344 Q114.14 105.928 108.33 105.928 Q102.52 105.928 99.4409 101.344 Q96.3854 96.7378 96.3854 88.011 Q96.3854 79.261 99.4409 74.6777 Q102.52 70.0713 108.33 70.0713 Z" fill="#000000" fill-rule="nonzero" fill-opacity="1" /><polyline clip-path="url(#clip072)" style="stroke:#009af9; stroke-linecap:round; stroke-linejoin:round; stroke-width:4; stroke-opacity:1; fill:none" points="218.439,996.728 219.268,842.598 220.097,1079.34 220.926,1332.95 221.756,1105.43 222.585,1025.02 223.414,1203.26 224.243,1445.72 225.072,1291.78 225.901,967.638 226.731,1130.84 227.56,1155.6 228.389,1409.8 229.218,1203.26 230.047,1291.78 230.877,1052.55 231.706,1130.84 232.535,1079.34 233.364,1270.45 234.193,1052.55 235.023,1203.26 235.852,1105.43 236.681,1155.6 237.51,1130.84 238.339,842.598 239.169,1155.6 239.998,1155.6 240.827,842.598 241.656,1105.43 242.485,1079.34 243.315,1312.6 244.144,1155.6 244.973,1179.73 245.802,1130.84 246.631,842.598 247.46,875.237 248.29,808.969 249.119,1105.43 249.948,1226.21 250.777,1079.34 251.606,1130.84 252.436,1130.84 253.265,1155.6 254.094,937.718 254.923,774.306 255.752,1248.6 256.582,738.56 257.411,498.196 258.24,842.598 259.069,1372.24 259.898,1052.55 260.728,1025.02 261.557,1052.55 262.386,1270.45 263.215,1391.23 264.044,875.237 264.874,967.638 265.703,1052.55 266.532,1291.78 267.361,1248.6 268.19,1052.55 269.019,1052.55 269.849,1248.6 270.678,967.638 271.507,937.718 272.336,906.93 273.165,808.969 273.995,1079.34 274.824,1248.6 275.653,842.598 276.482,967.638 277.311,875.237 278.141,1445.72 278.97,996.728 279.799,1226.21 280.628,1079.34 281.457,1203.26 282.287,1105.43 283.116,1203.26 283.945,1079.34 284.774,996.728 285.603,967.638 286.433,1105.43 287.262,842.598 288.091,1203.26 288.92,1270.45 289.749,1105.43 290.579,1270.45 291.408,875.237 292.237,937.718 293.066,738.56 293.895,1226.21 294.724,1079.34 295.554,1155.6 296.383,906.93 297.212,774.306 298.041,996.728 298.87,996.728 299.7,1052.55 300.529,1025.02 301.358,1052.55 302.187,937.718 303.016,875.237 303.846,738.56 304.675,1130.84 305.504,937.718 306.333,1130.84 307.162,1052.55 307.992,1409.8 308.821,1130.84 309.65,967.638 310.479,541.652 311.308,774.306 312.138,1052.55 312.967,875.237 313.796,875.237 314.625,906.93 315.454,808.969 316.283,1052.55 317.113,1105.43 317.942,937.718 318.771,1332.95 319.6,808.969 320.429,967.638 321.259,1079.34 322.088,842.598 322.917,1052.55 323.746,738.56 324.575,1052.55 325.405,663.608 326.234,967.638 327.063,996.728 327.892,937.718 328.721,842.598 329.551,875.237 330.38,967.638 331.209,738.56 332.038,1079.34 332.867,808.969 333.697,1025.02 334.526,1025.02 335.355,937.718 336.184,1179.73 337.013,1025.02 337.842,1025.02 338.672,875.237 339.501,808.969 340.33,937.718 341.159,1179.73 341.988,701.679 342.818,1179.73 343.647,738.56 344.476,624.289 345.305,1052.55 346.134,842.598 346.964,624.289 347.793,1025.02 348.622,906.93 349.451,624.289 350.28,1052.55 351.11,842.598 351.939,996.728 352.768,1079.34 353.597,1105.43 354.426,1025.02 355.256,1105.43 356.085,1130.84 356.914,1025.02 357.743,1025.02 358.572,808.969 359.402,541.652 360.231,906.93 361.06,808.969 361.889,808.969 362.718,808.969 363.547,774.306 364.377,1155.6 365.206,906.93 366.035,1105.43 366.864,1203.26 367.693,906.93 368.523,875.237 369.352,906.93 370.181,967.638 371.01,842.598 371.839,996.728 372.669,937.718 373.498,996.728 374.327,774.306 375.156,774.306 375.985,996.728 376.815,1052.55 377.644,1105.43 378.473,663.608 379.302,1025.02 380.131,738.56 380.961,842.598 381.79,1025.02 382.619,624.289 383.448,701.679 384.277,1025.02 385.106,624.289 385.936,1155.6 386.765,663.608 387.594,875.237 388.423,937.718 389.252,906.93 390.082,967.638 390.911,937.718 391.74,774.306 392.569,738.56 393.398,541.652 394.228,875.237 395.057,808.969 395.886,701.679 396.715,937.718 397.544,842.598 398.374,738.56 399.203,842.598 400.032,738.56 400.861,996.728 401.69,937.718 402.52,996.728 403.349,774.306 404.178,738.56 405.007,906.93 405.836,937.718 406.665,808.969 407.495,701.679 408.324,906.93 409.153,906.93 409.982,774.306 410.811,701.679 411.641,1130.84 412.47,583.659 413.299,808.969 414.128,738.56 414.957,808.969 415.787,808.969 416.616,1079.34 417.445,624.289 418.274,774.306 419.103,774.306 419.933,738.56 420.762,624.289 421.591,701.679 422.42,967.638 423.249,996.728 424.079,808.969 424.908,906.93 425.737,1025.02 426.566,875.237 427.395,875.237 428.224,701.679 429.054,583.659 429.883,624.289 430.712,808.969 431.541,624.289 432.37,738.56 433.2,808.969 434.029,701.679 434.858,624.289 435.687,808.969 436.516,996.728 437.346,1079.34 438.175,541.652 439.004,498.196 439.833,701.679 440.662,875.237 441.492,875.237 442.321,967.638 443.15,967.638 443.979,808.969 444.808,875.237 445.638,937.718 446.467,937.718 447.296,624.289 448.125,738.56 448.954,624.289 449.784,906.93 450.613,453.216 451.442,842.598 452.271,774.306 453.1,906.93 453.929,624.289 454.759,701.679 455.588,774.306 456.417,738.56 457.246,774.306 458.075,738.56 458.905,967.638 459.734,808.969 460.563,583.659 461.392,406.629 462.221,624.289 463.051,701.679 463.88,774.306 464.709,738.56 465.538,967.638 466.367,996.728 467.197,967.638 468.026,774.306 468.855,663.608 469.684,701.679 470.513,663.608 471.343,663.608 472.172,774.306 473.001,583.659 473.83,738.56 474.659,875.237 475.488,774.306 476.318,967.638 477.147,624.289 477.976,774.306 478.805,875.237 479.634,808.969 480.464,774.306 481.293,808.969 482.122,624.289 482.951,738.56 483.78,808.969 484.61,663.608 485.439,701.679 486.268,663.608 487.097,583.659 487.926,1052.55 488.756,583.659 489.585,808.969 490.414,663.608 491.243,1052.55 492.072,774.306 492.902,875.237 493.731,498.196 494.56,624.289 495.389,701.679 496.218,808.969 497.047,701.679 497.877,774.306 498.706,875.237 499.535,663.608 500.364,808.969 501.193,842.598 502.023,701.679 502.852,842.598 503.681,937.718 504.51,624.289 505.339,308.28 506.169,624.289 506.998,663.608 507.827,774.306 508.656,541.652 509.485,624.289 510.315,663.608 511.144,738.56 511.973,624.289 512.802,541.652 513.631,498.196 514.461,875.237 515.29,663.608 516.119,624.289 516.948,774.306 517.777,875.237 518.607,701.679 519.436,774.306 520.265,808.969 521.094,583.659 521.923,906.93 522.752,663.608 523.582,808.969 524.411,937.718 525.24,624.289 526.069,808.969 526.898,738.56 527.728,663.608 528.557,406.629 529.386,701.679 530.215,541.652 531.044,541.652 531.874,498.196 532.703,453.216 533.532,624.289 534.361,937.718 535.19,842.598 536.02,701.679 536.849,541.652 537.678,906.93 538.507,808.969 539.336,663.608 540.166,358.349 540.995,583.659 541.824,738.56 542.653,624.289 543.482,738.56 544.311,701.679 545.141,701.679 545.97,808.969 546.799,738.56 547.628,701.679 548.457,663.608 549.287,498.196 550.116,738.56 550.945,738.56 551.774,583.659 552.603,774.306 553.433,453.216 554.262,875.237 555.091,453.216 555.92,583.659 556.749,738.56 557.579,701.679 558.408,842.598 559.237,774.306 560.066,541.652 560.895,624.289 561.725,842.598 562.554,774.306 563.383,583.659 564.212,406.629 565.041,624.289 565.87,906.93 566.7,808.969 567.529,498.196 568.358,583.659 569.187,808.969 570.016,541.652 570.846,875.237 571.675,406.629 572.504,842.598 573.333,624.289 574.162,358.349 574.992,583.659 575.821,738.56 576.65,406.629 577.479,498.196 578.308,937.718 579.138,663.608 579.967,738.56 580.796,624.289 581.625,406.629 582.454,498.196 583.284,583.659 584.113,738.56 584.942,701.679 585.771,701.679 586.6,842.598 587.429,624.289 588.259,906.93 589.088,583.659 589.917,624.289 590.746,663.608 591.575,663.608 592.405,774.306 593.234,774.306 594.063,774.306 594.892,624.289 595.721,937.718 596.551,701.679 597.38,663.608 598.209,937.718 599.038,583.659 599.867,406.629 600.697,701.679 601.526,541.652 602.355,406.629 603.184,774.306 604.013,583.659 604.843,701.679 605.672,808.969 606.501,663.608 607.33,406.629 608.159,498.196 608.989,701.679 609.818,842.598 610.647,583.659 611.476,624.289 612.305,541.652 613.134,583.659 613.964,701.679 614.793,808.969 615.622,663.608 616.451,738.56 617.28,701.679 618.11,701.679 618.939,541.652 619.768,738.56 620.597,583.659 621.426,624.289 622.256,541.652 623.085,358.349 623.914,663.608 624.743,583.659 625.572,498.196 626.402,663.608 627.231,996.728 628.06,663.608 628.889,808.969 629.718,738.56 630.548,406.629 631.377,701.679 632.206,358.349 633.035,358.349 633.864,624.289 634.693,541.652 635.523,842.598 636.352,624.289 637.181,498.196 638.01,701.679 638.839,624.289 639.669,701.679 640.498,406.629 641.327,808.969 642.156,663.608 642.985,453.216 643.815,498.196 644.644,624.289 645.473,308.28 646.302,406.629 647.131,624.289 647.961,583.659 648.79,583.659 649.619,583.659 650.448,358.349 651.277,202.365 652.107,358.349 652.936,406.629 653.765,624.289 654.594,498.196 655.423,453.216 656.252,541.652 657.082,541.652 657.911,583.659 658.74,583.659 659.569,406.629 660.398,937.718 661.228,875.237 662.057,624.289 662.886,406.629 663.715,624.289 664.544,498.196 665.374,624.289 666.203,498.196 667.032,406.629 667.861,498.196 668.69,498.196 669.52,738.56 670.349,808.969 671.178,541.652 672.007,624.289 672.836,202.365 673.666,842.598 674.495,453.216 675.324,624.289 676.153,583.659 676.982,498.196 677.812,624.289 678.641,453.216 679.47,624.289 680.299,738.56 681.128,701.679 681.957,358.349 682.787,406.629 683.616,808.969 684.445,774.306 685.274,498.196 686.103,406.629 686.933,624.289 687.762,738.56 688.591,406.629 689.42,663.608 690.249,498.196 691.079,498.196 691.908,498.196 692.737,498.196 693.566,842.598 694.395,701.679 695.225,541.652 696.054,701.679 696.883,453.216 697.712,583.659 698.541,498.196 699.371,541.652 700.2,541.652 701.029,583.659 701.858,406.629 702.687,774.306 703.516,358.349 704.346,701.679 705.175,624.289 706.004,541.652 706.833,583.659 707.662,967.638 708.492,453.216 709.321,358.349 710.15,663.608 710.979,406.629 711.808,738.56 712.638,541.652 713.467,624.289 714.296,624.289 715.125,406.629 715.954,498.196 716.784,406.629 717.613,202.365 718.442,498.196 719.271,256.321 720.1,498.196 720.93,498.196 721.759,406.629 722.588,541.652 723.417,808.969 724.246,624.289 725.075,541.652 725.905,406.629 726.734,624.289 727.563,453.216 728.392,624.289 729.221,498.196 730.051,453.216 730.88,583.659 731.709,406.629 732.538,541.652 733.367,541.652 734.197,256.321 735.026,738.56 735.855,583.659 736.684,406.629 737.513,624.289 738.343,498.196 739.172,498.196 740.001,583.659 740.83,624.289 741.659,624.289 742.489,701.679 743.318,583.659 744.147,406.629 744.976,624.289 745.805,541.652 746.634,701.679 747.464,624.289 748.293,842.598 749.122,308.28 749.951,406.629 750.78,406.629 751.61,906.93 752.439,663.608 753.268,453.216 754.097,774.306 754.926,875.237 755.756,541.652 756.585,541.652 757.414,808.969 758.243,701.679 759.072,624.289 759.902,663.608 760.731,406.629 761.56,541.652 762.389,774.306 763.218,541.652 764.048,663.608 764.877,406.629 765.706,406.629 766.535,453.216 767.364,624.289 768.194,738.56 769.023,624.289 769.852,358.349 770.681,624.289 771.51,583.659 772.339,406.629 773.169,541.652 773.998,453.216 774.827,406.629 775.656,308.28 776.485,583.659 777.315,701.679 778.144,624.289 778.973,738.56 779.802,583.659 780.631,624.289 781.461,308.28 782.29,406.629 783.119,406.629 783.948,453.216 784.777,624.289 785.607,498.196 786.436,663.608 787.265,583.659 788.094,256.321 788.923,498.196 789.753,358.349 790.582,358.349 791.411,937.718 792.24,358.349 793.069,498.196 793.898,453.216 794.728,453.216 795.557,358.349 796.386,624.289 797.215,406.629 798.044,541.652 798.874,406.629 799.703,541.652 800.532,453.216 801.361,541.652 802.19,583.659 803.02,701.679 803.849,842.598 804.678,498.196 805.507,541.652 806.336,583.659 807.166,624.289 807.995,624.289 808.824,498.196 809.653,498.196 810.482,498.196 811.312,624.289 812.141,453.216 812.97,406.629 813.799,406.629 814.628,624.289 815.457,624.289 816.287,406.629 817.116,498.196 817.945,541.652 818.774,583.659 819.603,541.652 820.433,541.652 821.262,406.629 822.091,498.196 822.92,663.608 823.749,738.56 824.579,875.237 825.408,453.216 826.237,498.196 827.066,701.679 827.895,583.659 828.725,701.679 829.554,583.659 830.383,541.652 831.212,358.349 832.041,406.629 832.871,738.56 833.7,498.196 834.529,358.349 835.358,541.652 836.187,453.216 837.017,358.349 837.846,541.652 838.675,453.216 839.504,541.652 840.333,541.652 841.162,663.608 841.992,583.659 842.821,541.652 843.65,541.652 844.479,308.28 845.308,406.629 846.138,453.216 846.967,406.629 847.796,453.216 848.625,624.289 849.454,453.216 850.284,453.216 851.113,406.629 851.942,406.629 852.771,406.629 853.6,406.629 854.43,453.216 855.259,738.56 856.088,624.289 856.917,808.969 857.746,453.216 858.576,453.216 859.405,453.216 860.234,256.321 861.063,256.321 861.892,541.652 862.721,498.196 863.551,738.56 864.38,541.652 865.209,358.349 866.038,308.28 866.867,406.629 867.697,541.652 868.526,663.608 869.355,624.289 870.184,308.28 871.013,498.196 871.843,583.659 872.672,453.216 873.501,453.216 874.33,624.289 875.159,358.349 875.989,624.289 876.818,541.652 877.647,583.659 878.476,498.196 879.305,453.216 880.135,583.659 880.964,202.365 881.793,498.196 882.622,875.237 883.451,498.196 884.28,308.28 885.11,406.629 885.939,624.289 886.768,358.349 887.597,738.56 888.426,498.196 889.256,624.289 890.085,406.629 890.914,663.608 891.743,453.216 892.572,541.652 893.402,308.28 894.231,583.659 895.06,624.289 895.889,358.349 896.718,256.321 897.548,453.216 898.377,583.659 899.206,541.652 900.035,498.196 900.864,498.196 901.694,406.629 902.523,308.28 903.352,453.216 904.181,453.216 905.01,701.679 905.839,406.629 906.669,498.196 907.498,202.365 908.327,453.216 909.156,541.652 909.985,406.629 910.815,541.652 911.644,358.349 912.473,308.28 913.302,624.289 914.131,453.216 914.961,358.349 915.79,406.629 916.619,541.652 917.448,406.629 918.277,406.629 919.107,663.608 919.936,624.289 920.765,308.28 921.594,308.28 922.423,624.289 923.253,358.349 924.082,583.659 924.911,541.652 925.74,498.196 926.569,541.652 927.399,453.216 928.228,308.28 929.057,308.28 929.886,541.652 930.715,498.196 931.544,541.652 932.374,202.365 933.203,541.652 934.032,256.321 934.861,498.196 935.69,583.659 936.52,453.216 937.349,624.289 938.178,358.349 939.007,308.28 939.836,583.659 940.666,406.629 941.495,308.28 942.324,406.629 943.153,406.629 943.982,498.196 944.812,453.216 945.641,256.321 946.47,406.629 947.299,358.349 948.128,256.321 948.958,701.679 949.787,308.28 950.616,663.608 951.445,453.216 952.274,308.28 953.103,498.196 953.933,583.659 954.762,358.349 955.591,406.629 956.42,498.196 957.249,624.289 958.079,498.196 958.908,808.969 959.737,358.349 960.566,498.196 961.395,541.652 962.225,624.289 963.054,308.28 963.883,624.289 964.712,498.196 965.541,541.652 966.371,308.28 967.2,498.196 968.029,256.321 968.858,308.28 969.687,453.216 970.517,256.321 971.346,406.629 972.175,842.598 973.004,541.652 973.833,406.629 974.662,541.652 975.492,256.321 976.321,202.365 977.15,624.289 977.979,453.216 978.808,406.629 979.638,308.28 980.467,406.629 981.296,202.365 982.125,308.28 982.954,358.349 983.784,583.659 984.613,406.629 985.442,308.28 986.271,256.321 987.1,583.659 987.93,498.196 988.759,202.365 989.588,406.629 990.417,453.216 991.246,308.28 992.076,406.629 992.905,406.629 993.734,453.216 994.563,453.216 995.392,358.349 996.222,146.292 997.051,358.349 997.88,358.349 998.709,358.349 999.538,406.629 1000.37,498.196 1001.2,308.28 1002.03,406.629 1002.86,453.216 1003.68,663.608 1004.51,256.321 1005.34,498.196 1006.17,406.629 1007,498.196 1007.83,308.28 1008.66,358.349 1009.49,453.216 1010.32,202.365 1011.15,202.365 1011.98,453.216 1012.81,541.652 1013.63,406.629 1014.46,453.216 1015.29,358.349 1016.12,406.629 1016.95,738.56 1017.78,453.216 1018.61,202.365 1019.44,406.629 1020.27,358.349 1021.1,406.629 1021.93,256.321 1022.76,498.196 1023.58,498.196 1024.41,541.652 1025.24,701.679 1026.07,202.365 1026.9,701.679 1027.73,406.629 1028.56,256.321 1029.39,406.629 1030.22,738.56 1031.05,453.216 1031.88,358.349 1032.71,583.659 1033.54,583.659 1034.36,358.349 1035.19,498.196 1036.02,406.629 1036.85,498.196 1037.68,541.652 1038.51,453.216 1039.34,202.365 1040.17,583.659 1041,453.216 1041.83,308.28 1042.66,541.652 1043.49,774.306 1044.31,406.629 1045.14,453.216 1045.97,498.196 1046.8,358.349 1047.63,624.289 1048.46,583.659 1049.29,308.28 1050.12,358.349 1050.95,541.652 1051.78,453.216 1052.61,663.608 1053.44,498.196 1054.26,498.196 1055.09,358.349 1055.92,624.289 1056.75,406.629 1057.58,453.216 1058.41,358.349 1059.24,256.321 1060.07,202.365 1060.9,358.349 1061.73,256.321 1062.56,498.196 1063.39,256.321 1064.22,541.652 1065.04,256.321 1065.87,453.216 1066.7,406.629 1067.53,453.216 1068.36,406.629 1069.19,256.321 1070.02,453.216 1070.85,583.659 1071.68,358.349 1072.51,146.292 1073.34,406.629 1074.17,498.196 1074.99,358.349 1075.82,453.216 1076.65,406.629 1077.48,701.679 1078.31,453.216 1079.14,256.321 1079.97,358.349 1080.8,453.216 1081.63,406.629 1082.46,406.629 1083.29,541.652 1084.12,308.28 1084.95,541.652 1085.77,308.28 1086.6,358.349 1087.43,453.216 1088.26,808.969 1089.09,498.196 1089.92,453.216 1090.75,256.321 1091.58,202.365 1092.41,358.349 1093.24,498.196 1094.07,406.629 1094.9,406.629 1095.72,498.196 1096.55,453.216 1097.38,406.629 1098.21,358.349 1099.04,308.28 1099.87,406.629 1100.7,358.349 1101.53,453.216 1102.36,308.28 1103.19,583.659 1104.02,358.349 1104.85,453.216 1105.67,541.652 1106.5,453.216 1107.33,498.196 1108.16,358.349 1108.99,308.28 1109.82,453.216 1110.65,406.629 1111.48,541.652 1112.31,256.321 1113.14,358.349 1113.97,453.216 1114.8,453.216 1115.63,406.629 1116.45,308.28 1117.28,308.28 1118.11,308.28 1118.94,358.349 1119.77,308.28 1120.6,498.196 1121.43,498.196 1122.26,256.321 1123.09,453.216 1123.92,406.629 1124.75,406.629 1125.58,406.629 1126.4,541.652 1127.23,541.652 1128.06,358.349 1128.89,498.196 1129.72,583.659 1130.55,406.629 1131.38,453.216 1132.21,498.196 1133.04,453.216 1133.87,541.652 1134.7,624.289 1135.53,202.365 1136.36,406.629 1137.18,358.349 1138.01,541.652 1138.84,406.629 1139.67,406.629 1140.5,406.629 1141.33,256.321 1142.16,308.28 1142.99,256.321 1143.82,358.349 1144.65,498.196 1145.48,406.629 1146.31,308.28 1147.13,498.196 1147.96,358.349 1148.79,358.349 1149.62,308.28 1150.45,498.196 1151.28,308.28 1152.11,256.321 1152.94,583.659 1153.77,406.629 1154.6,358.349 1155.43,498.196 1156.26,358.349 1157.08,358.349 1157.91,256.321 1158.74,202.365 1159.57,541.652 1160.4,541.652 1161.23,256.321 1162.06,358.349 1162.89,202.365 1163.72,498.196 1164.55,624.289 1165.38,256.321 1166.21,256.321 1167.04,308.28 1167.86,256.321 1168.69,358.349 1169.52,256.321 1170.35,406.629 1171.18,406.629 1172.01,358.349 1172.84,406.629 1173.67,308.28 1174.5,541.652 1175.33,498.196 1176.16,498.196 1176.99,358.349 1177.81,453.216 1178.64,308.28 1179.47,498.196 1180.3,358.349 1181.13,358.349 1181.96,453.216 1182.79,406.629 1183.62,406.629 1184.45,256.321 1185.28,308.28 1186.11,453.216 1186.94,308.28 1187.77,541.652 1188.59,202.365 1189.42,406.629 1190.25,453.216 1191.08,541.652 1191.91,358.349 1192.74,498.196 1193.57,358.349 1194.4,541.652 1195.23,406.629 1196.06,358.349 1196.89,358.349 1197.72,406.629 1198.54,308.28 1199.37,358.349 1200.2,498.196 1201.03,256.321 1201.86,358.349 1202.69,256.321 1203.52,146.292 1204.35,358.349 1205.18,453.216 1206.01,308.28 1206.84,358.349 1207.67,202.365 1208.49,256.321 1209.32,624.289 1210.15,453.216 1210.98,256.321 1211.81,498.196 1212.64,583.659 1213.47,256.321 1214.3,498.196 1215.13,256.321 1215.96,308.28 1216.79,453.216 1217.62,358.349 1218.45,406.629 1219.27,146.292 1220.1,202.365 1220.93,308.28 1221.76,308.28 1222.59,256.321 1223.42,308.28 1224.25,406.629 1225.08,624.289 1225.91,541.652 1226.74,406.629 1227.57,358.349 1228.4,146.292 1229.22,541.652 1230.05,358.349 1230.88,308.28 1231.71,406.629 1232.54,406.629 1233.37,624.289 1234.2,541.652 1235.03,358.349 1235.86,308.28 1236.69,358.349 1237.52,202.365 1238.35,453.216 1239.17,256.321 1240,406.629 1240.83,453.216 1241.66,358.349 1242.49,406.629 1243.32,256.321 1244.15,256.321 1244.98,202.365 1245.81,406.629 1246.64,308.28 1247.47,308.28 1248.3,406.629 1249.13,256.321 1249.95,358.349 1250.78,358.349 1251.61,308.28 1252.44,541.652 1253.27,406.629 1254.1,453.216 1254.93,308.28 1255.76,256.321 1256.59,256.321 1257.42,358.349 1258.25,146.292 1259.08,406.629 1259.9,453.216 1260.73,308.28 1261.56,541.652 1262.39,406.629 1263.22,406.629 1264.05,308.28 1264.88,202.365 1265.71,256.321 1266.54,624.289 1267.37,308.28 1268.2,358.349 1269.03,358.349 1269.86,308.28 1270.68,498.196 1271.51,358.349 1272.34,358.349 1273.17,308.28 1274,541.652 1274.83,406.629 1275.66,406.629 1276.49,406.629 1277.32,146.292 1278.15,453.216 1278.98,308.28 1279.81,146.292 1280.63,453.216 1281.46,453.216 1282.29,358.349 1283.12,498.196 1283.95,146.292 1284.78,406.629 1285.61,358.349 1286.44,202.365 1287.27,498.196 1288.1,146.292 1288.93,358.349 1289.76,202.365 1290.58,406.629 1291.41,541.652 1292.24,256.321 1293.07,202.365 1293.9,624.289 1294.73,583.659 1295.56,358.349 1296.39,308.28 1297.22,406.629 1298.05,453.216 1298.88,202.365 1299.71,498.196 1300.54,308.28 1301.36,308.28 1302.19,256.321 1303.02,358.349 1303.85,453.216 1304.68,541.652 1305.51,202.365 1306.34,308.28 1307.17,453.216 1308,202.365 1308.83,146.292 1309.66,87.9763 1310.49,406.629 1311.31,256.321 1312.14,406.629 1312.97,146.292 1313.8,308.28 1314.63,358.349 1315.46,202.365 1316.29,358.349 1317.12,541.652 1317.95,406.629 1318.78,453.216 1319.61,308.28 1320.44,308.28 1321.27,406.629 1322.09,146.292 1322.92,358.349 1323.75,541.652 1324.58,406.629 1325.41,453.216 1326.24,256.321 1327.07,406.629 1327.9,256.321 1328.73,498.196 1329.56,202.365 1330.39,358.349 1331.22,308.28 1332.04,498.196 1332.87,256.321 1333.7,358.349 1334.53,202.365 1335.36,256.321 1336.19,308.28 1337.02,256.321 1337.85,453.216 1338.68,453.216 1339.51,453.216 1340.34,774.306 1341.17,406.629 1341.99,256.321 1342.82,406.629 1343.65,406.629 1344.48,358.349 1345.31,202.365 1346.14,256.321 1346.97,453.216 1347.8,406.629 1348.63,453.216 1349.46,256.321 1350.29,308.28 1351.12,358.349 1351.95,358.349 1352.77,406.629 1353.6,358.349 1354.43,358.349 1355.26,453.216 1356.09,308.28 1356.92,202.365 1357.75,583.659 1358.58,202.365 1359.41,583.659 1360.24,358.349 1361.07,256.321 1361.9,87.9763 1362.72,202.365 1363.55,498.196 1364.38,406.629 1365.21,583.659 1366.04,256.321 1366.87,146.292 1367.7,256.321 1368.53,738.56 1369.36,146.292 1370.19,308.28 1371.02,256.321 1371.85,202.365 1372.67,358.349 1373.5,308.28 1374.33,406.629 1375.16,406.629 1375.99,406.629 1376.82,406.629 1377.65,358.349 1378.48,406.629 1379.31,202.365 1380.14,541.652 1380.97,406.629 1381.8,358.349 1382.63,202.365 1383.45,406.629 1384.28,256.321 1385.11,202.365 1385.94,256.321 1386.77,406.629 1387.6,256.321 1388.43,256.321 1389.26,453.216 1390.09,541.652 1390.92,256.321 1391.75,358.349 1392.58,308.28 1393.4,406.629 1394.23,624.289 1395.06,256.321 1395.89,453.216 1396.72,358.349 1397.55,202.365 1398.38,406.629 1399.21,256.321 1400.04,498.196 1400.87,308.28 1401.7,308.28 1402.53,624.289 1403.36,256.321 1404.18,406.629 1405.01,453.216 1405.84,308.28 1406.67,256.321 1407.5,146.292 1408.33,498.196 1409.16,256.321 1409.99,498.196 1410.82,308.28 1411.65,358.349 1412.48,256.321 1413.31,146.292 1414.13,358.349 1414.96,256.321 1415.79,358.349 1416.62,256.321 1417.45,256.321 1418.28,87.9763 1419.11,308.28 1419.94,256.321 1420.77,663.608 1421.6,406.629 1422.43,256.321 1423.26,202.365 1424.08,358.349 1424.91,358.349 1425.74,202.365 1426.57,308.28 1427.4,498.196 1428.23,308.28 1429.06,406.629 1429.89,358.349 1430.72,308.28 1431.55,453.216 1432.38,453.216 1433.21,308.28 1434.04,541.652 1434.86,202.365 1435.69,146.292 1436.52,308.28 1437.35,202.365 1438.18,358.349 1439.01,256.321 1439.84,406.629 1440.67,358.349 1441.5,256.321 1442.33,202.365 1443.16,406.629 1443.99,406.629 1444.81,583.659 1445.64,406.629 1446.47,308.28 1447.3,406.629 1448.13,358.349 1448.96,308.28 1449.79,146.292 1450.62,308.28 1451.45,256.321 1452.28,358.349 1453.11,308.28 1453.94,498.196 1454.77,202.365 1455.59,358.349 1456.42,358.349 1457.25,406.629 1458.08,406.629 1458.91,308.28 1459.74,406.629 1460.57,202.365 1461.4,308.28 1462.23,202.365 1463.06,146.292 1463.89,358.349 1464.72,583.659 1465.54,406.629 1466.37,358.349 1467.2,256.321 1468.03,308.28 1468.86,308.28 1469.69,87.9763 1470.52,406.629 1471.35,358.349 1472.18,256.321 1473.01,256.321 1473.84,308.28 1474.67,406.629 1475.49,308.28 1476.32,453.216 1477.15,146.292 1477.98,202.365 1478.81,202.365 1479.64,256.321 1480.47,358.349 1481.3,453.216 1482.13,87.9763 1482.96,256.321 1483.79,202.365 1484.62,498.196 1485.45,256.321 1486.27,358.349 1487.1,358.349 1487.93,406.629 1488.76,308.28 1489.59,453.216 1490.42,358.349 1491.25,406.629 1492.08,256.321 1492.91,358.349 1493.74,358.349 1494.57,498.196 1495.4,256.321 1496.22,358.349 1497.05,308.28 1497.88,406.629 1498.71,202.365 1499.54,624.289 1500.37,256.321 1501.2,453.216 1502.03,308.28 1502.86,202.365 1503.69,87.9763 1504.52,358.349 1505.35,202.365 1506.18,308.28 1507,358.349 1507.83,406.629 1508.66,202.365 1509.49,406.629 1510.32,624.289 1511.15,406.629 1511.98,256.321 1512.81,202.365 1513.64,256.321 1514.47,256.321 1515.3,308.28 1516.13,146.292 1516.95,202.365 1517.78,256.321 1518.61,146.292 1519.44,146.292 1520.27,256.321 1521.1,256.321 1521.93,256.321 1522.76,406.629 1523.59,308.28 1524.42,358.349 1525.25,453.216 1526.08,358.349 1526.9,358.349 1527.73,308.28 1528.56,406.629 1529.39,202.365 1530.22,202.365 1531.05,308.28 1531.88,498.196 1532.71,406.629 1533.54,256.321 1534.37,308.28 1535.2,406.629 1536.03,87.9763 1536.86,358.349 1537.68,624.289 1538.51,358.349 1539.34,256.321 1540.17,308.28 1541,358.349 1541.83,453.216 1542.66,308.28 1543.49,256.321 1544.32,202.365 1545.15,498.196 1545.98,406.629 1546.81,308.28 1547.63,358.349 1548.46,406.629 1549.29,146.292 1550.12,202.365 1550.95,308.28 1551.78,202.365 1552.61,406.629 1553.44,308.28 1554.27,256.321 1555.1,256.321 1555.93,202.365 1556.76,256.321 1557.58,256.321 1558.41,663.608 1559.24,146.292 1560.07,256.321 1560.9,308.28 1561.73,308.28 1562.56,256.321 1563.39,146.292 1564.22,498.196 1565.05,202.365 1565.88,256.321 1566.71,202.365 1567.54,308.28 1568.36,541.652 1569.19,202.365 1570.02,308.28 1570.85,406.629 1571.68,498.196 1572.51,358.349 1573.34,256.321 1574.17,256.321 1575,358.349 1575.83,358.349 1576.66,308.28 1577.49,358.349 1578.31,406.629 1579.14,146.292 1579.97,256.321 1580.8,406.629 1581.63,308.28 1582.46,308.28 1583.29,498.196 1584.12,202.365 1584.95,308.28 1585.78,406.629 1586.61,256.321 1587.44,256.321 1588.27,202.365 1589.09,358.349 1589.92,406.629 1590.75,202.365 1591.58,202.365 1592.41,406.629 1593.24,308.28 1594.07,358.349 1594.9,202.365 1595.73,256.321 1596.56,498.196 1597.39,256.321 1598.22,453.216 1599.04,146.292 1599.87,202.365 1600.7,406.629 1601.53,358.349 1602.36,406.629 1603.19,308.28 1604.02,202.365 1604.85,308.28 1605.68,358.349 1606.51,146.292 1607.34,498.196 1608.17,308.28 1608.99,256.321 1609.82,146.292 1610.65,358.349 1611.48,256.321 1612.31,146.292 1613.14,256.321 1613.97,406.629 1614.8,308.28 1615.63,358.349 1616.46,308.28 1617.29,256.321 1618.12,541.652 1618.95,308.28 1619.77,406.629 1620.6,256.321 1621.43,308.28 1622.26,256.321 1623.09,358.349 1623.92,146.292 1624.75,358.349 1625.58,498.196 1626.41,256.321 1627.24,308.28 1628.07,146.292 1628.9,358.349 1629.72,406.629 1630.55,256.321 1631.38,308.28 1632.21,308.28 1633.04,498.196 1633.87,498.196 1634.7,308.28 1635.53,308.28 1636.36,146.292 1637.19,358.349 1638.02,406.629 1638.85,256.321 1639.68,146.292 1640.5,256.321 1641.33,358.349 1642.16,256.321 1642.99,256.321 1643.82,498.196 1644.65,358.349 1645.48,146.292 1646.31,308.28 1647.14,498.196 1647.97,358.349 1648.8,146.292 1649.63,358.349 1650.45,308.28 1651.28,308.28 1652.11,308.28 1652.94,308.28 1653.77,146.292 1654.6,146.292 1655.43,256.321 1656.26,308.28 1657.09,256.321 1657.92,308.28 1658.75,256.321 1659.58,358.349 1660.4,406.629 1661.23,202.365 1662.06,146.292 1662.89,87.9763 1663.72,256.321 1664.55,256.321 1665.38,256.321 1666.21,308.28 1667.04,256.321 1667.87,256.321 1668.7,358.349 1669.53,146.292 1670.36,406.629 1671.18,358.349 1672.01,202.365 1672.84,256.321 1673.67,308.28 1674.5,256.321 1675.33,358.349 1676.16,406.629 1676.99,308.28 1677.82,453.216 1678.65,358.349 1679.48,256.321 1680.31,308.28 1681.13,202.365 1681.96,406.629 1682.79,358.349 1683.62,202.365 1684.45,202.365 1685.28,256.321 1686.11,308.28 1686.94,308.28 1687.77,202.365 1688.6,358.349 1689.43,308.28 1690.26,202.365 1691.08,202.365 1691.91,358.349 1692.74,256.321 1693.57,146.292 1694.4,358.349 1695.23,308.28 1696.06,406.629 1696.89,202.365 1697.72,358.349 1698.55,358.349 1699.38,146.292 1700.21,308.28 1701.04,308.28 1701.86,256.321 1702.69,146.292 1703.52,256.321 1704.35,453.216 1705.18,202.365 1706.01,308.28 1706.84,308.28 1707.67,87.9763 1708.5,406.629 1709.33,498.196 1710.16,146.292 1710.99,202.365 1711.81,358.349 1712.64,358.349 1713.47,256.321 1714.3,308.28 1715.13,256.321 1715.96,146.292 1716.79,308.28 1717.62,202.365 1718.45,453.216 1719.28,308.28 1720.11,146.292 1720.94,146.292 1721.77,146.292 1722.59,358.349 1723.42,308.28 1724.25,202.365 1725.08,202.365 1725.91,202.365 1726.74,308.28 1727.57,308.28 1728.4,202.365 1729.23,87.9763 1730.06,358.349 1730.89,202.365 1731.72,308.28 1732.54,308.28 1733.37,308.28 1734.2,453.216 1735.03,256.321 1735.86,202.365 1736.69,256.321 1737.52,202.365 1738.35,308.28 1739.18,453.216 1740.01,453.216 1740.84,202.365 1741.67,308.28 1742.49,406.629 1743.32,202.365 1744.15,358.349 1744.98,87.9763 1745.81,308.28 1746.64,202.365 1747.47,202.365 1748.3,453.216 1749.13,87.9763 1749.96,256.321 1750.79,146.292 1751.62,498.196 1752.45,146.292 1753.27,453.216 1754.1,202.365 1754.93,202.365 1755.76,406.629 1756.59,358.349 1757.42,146.292 1758.25,256.321 1759.08,146.292 1759.91,308.28 1760.74,146.292 1761.57,256.321 1762.4,202.365 1763.22,87.9763 1764.05,256.321 1764.88,202.365 1765.71,146.292 1766.54,87.9763 1767.37,308.28 1768.2,256.321 1769.03,202.365 1769.86,146.292 1770.69,146.292 1771.52,406.629 1772.35,256.321 1773.18,146.292 1774,146.292 1774.83,406.629 1775.66,202.365 1776.49,202.365 1777.32,256.321 1778.15,256.321 1778.98,202.365 1779.81,256.321 1780.64,308.28 1781.47,87.9763 1782.3,453.216 1783.13,146.292 1783.95,308.28 1784.78,256.321 1785.61,202.365 1786.44,358.349 1787.27,308.28 1788.1,202.365 1788.93,146.292 1789.76,202.365 1790.59,406.629 1791.42,146.292 1792.25,146.292 1793.08,308.28 1793.9,358.349 1794.73,202.365 1795.56,406.629 1796.39,358.349 1797.22,406.629 1798.05,202.365 1798.88,202.365 1799.71,358.349 1800.54,146.292 1801.37,146.292 1802.2,256.321 1803.03,256.321 1803.86,308.28 1804.68,308.28 1805.51,358.349 1806.34,308.28 1807.17,406.629 1808,308.28 1808.83,308.28 1809.66,453.216 1810.49,202.365 1811.32,256.321 1812.15,308.28 1812.98,256.321 1813.81,146.292 1814.63,256.321 1815.46,256.321 1816.29,308.28 1817.12,146.292 1817.95,202.365 1818.78,308.28 1819.61,308.28 1820.44,308.28 1821.27,308.28 1822.1,146.292 1822.93,256.321 1823.76,256.321 1824.59,308.28 1825.41,202.365 1826.24,87.9763 1827.07,256.321 1827.9,146.292 1828.73,146.292 1829.56,358.349 1830.39,87.9763 1831.22,358.349 1832.05,308.28 1832.88,256.321 1833.71,358.349 1834.54,358.349 1835.36,146.292 1836.19,202.365 1837.02,146.292 1837.85,358.349 1838.68,202.365 1839.51,146.292 1840.34,453.216 1841.17,146.292 1842,202.365 1842.83,256.321 1843.66,256.321 1844.49,256.321 1845.31,202.365 1846.14,358.349 1846.97,406.629 1847.8,202.365 1848.63,146.292 1849.46,202.365 1850.29,202.365 1851.12,202.365 1851.95,406.629 1852.78,308.28 1853.61,202.365 1854.44,202.365 1855.27,406.629 1856.09,202.365 1856.92,146.292 1857.75,202.365 1858.58,87.9763 1859.41,358.349 1860.24,358.349 1861.07,146.292 1861.9,146.292 1862.73,358.349 1863.56,202.365 1864.39,146.292 1865.22,146.292 1866.04,358.349 1866.87,308.28 1867.7,256.321 1868.53,87.9763 1869.36,87.9763 1870.19,256.321 1871.02,256.321 1871.85,358.349 1872.68,308.28 1873.51,256.321 1874.34,202.365 1875.17,256.321 1875.99,308.28 1876.82,256.321 1877.65,87.9763 1878.48,146.292 1879.31,358.349 1880.14,358.349 1880.97,406.629 1881.8,308.28 1882.63,202.365 1883.46,256.321 1884.29,308.28 1885.12,256.321 1885.95,256.321 1886.77,358.349 1887.6,256.321 1888.43,308.28 1889.26,308.28 1890.09,498.196 1890.92,256.321 1891.75,256.321 1892.58,406.629 1893.41,202.365 1894.24,146.292 1895.07,256.321 1895.9,358.349 1896.72,146.292 1897.55,202.365 1898.38,256.321 1899.21,308.28 1900.04,202.365 1900.87,202.365 1901.7,256.321 1902.53,406.629 1903.36,256.321 1904.19,202.365 1905.02,308.28 1905.85,202.365 1906.68,256.321 1907.5,202.365 1908.33,358.349 1909.16,202.365 1909.99,256.321 1910.82,146.292 1911.65,308.28 1912.48,146.292 1913.31,358.349 1914.14,406.629 1914.97,256.321 1915.8,202.365 1916.63,202.365 1917.45,202.365 1918.28,202.365 1919.11,308.28 1919.94,256.321 1920.77,202.365 1921.6,202.365 1922.43,358.349 1923.26,202.365 1924.09,146.292 1924.92,256.321 1925.75,256.321 1926.58,146.292 1927.4,146.292 1928.23,202.365 1929.06,202.365 1929.89,308.28 1930.72,202.365 1931.55,146.292 1932.38,146.292 1933.21,87.9763 1934.04,453.216 1934.87,87.9763 1935.7,308.28 1936.53,358.349 1937.36,308.28 1938.18,256.321 1939.01,256.321 1939.84,146.292 1940.67,146.292 1941.5,146.292 1942.33,256.321 1943.16,202.365 1943.99,202.365 1944.82,358.349 1945.65,256.321 1946.48,358.349 1947.31,202.365 1948.13,358.349 1948.96,358.349 1949.79,202.365 1950.62,358.349 1951.45,202.365 1952.28,308.28 1953.11,256.321 1953.94,256.321 1954.77,87.9763 1955.6,146.292 1956.43,308.28 1957.26,256.321 1958.09,256.321 1958.91,256.321 1959.74,202.365 1960.57,308.28 1961.4,256.321 1962.23,256.321 1963.06,202.365 1963.89,202.365 1964.72,202.365 1965.55,202.365 1966.38,146.292 1967.21,87.9763 1968.04,146.292 1968.86,453.216 1969.69,87.9763 1970.52,202.365 1971.35,308.28 1972.18,146.292 1973.01,146.292 1973.84,308.28 1974.67,256.321 1975.5,256.321 1976.33,202.365 1977.16,202.365 1977.99,256.321 1978.81,308.28 1979.64,256.321 1980.47,308.28 1981.3,541.652 1982.13,202.365 1982.96,256.321 1983.79,146.292 1984.62,406.629 1985.45,202.365 1986.28,256.321 1987.11,308.28 1987.94,146.292 1988.77,256.321 1989.59,256.321 1990.42,256.321 1991.25,358.349 1992.08,406.629 1992.91,202.365 1993.74,406.629 1994.57,202.365 1995.4,146.292 1996.23,202.365 1997.06,406.629 1997.89,202.365 1998.72,308.28 1999.54,308.28 2000.37,308.28 2001.2,256.321 2002.03,146.292 2002.86,202.365 2003.69,308.28 2004.52,146.292 2005.35,256.321 2006.18,202.365 2007.01,256.321 2007.84,87.9763 2008.67,256.321 2009.49,202.365 2010.32,202.365 2011.15,202.365 2011.98,256.321 2012.81,202.365 2013.64,256.321 2014.47,202.365 2015.3,146.292 2016.13,146.292 2016.96,202.365 2017.79,202.365 2018.62,256.321 2019.45,146.292 2020.27,87.9763 2021.1,146.292 2021.93,453.216 2022.76,146.292 2023.59,202.365 2024.42,256.321 2025.25,202.365 2026.08,308.28 2026.91,202.365 2027.74,308.28 2028.57,256.321 2029.4,146.292 2030.22,202.365 2031.05,87.9763 2031.88,202.365 2032.71,256.321 2033.54,406.629 2034.37,308.28 2035.2,308.28 2036.03,202.365 2036.86,146.292 2037.69,358.349 2038.52,256.321 2039.35,87.9763 2040.18,202.365 2041,308.28 2041.83,202.365 2042.66,146.292 2043.49,202.365 2044.32,308.28 2045.15,308.28 2045.98,256.321 2046.81,202.365 2047.64,256.321 2048.47,146.292 2049.3,358.349 2050.13,256.321 2050.95,87.9763 2051.78,202.365 2052.61,256.321 2053.44,358.349 2054.27,406.629 2055.1,202.365 2055.93,256.321 2056.76,256.321 2057.59,202.365 2058.42,202.365 2059.25,256.321 2060.08,256.321 2060.9,146.292 2061.73,308.28 2062.56,406.629 2063.39,202.365 2064.22,308.28 2065.05,202.365 2065.88,87.9763 2066.71,498.196 2067.54,256.321 2068.37,146.292 2069.2,146.292 2070.03,146.292 2070.86,453.216 2071.68,87.9763 2072.51,146.292 2073.34,256.321 2074.17,87.9763 2075,146.292 2075.83,256.321 2076.66,146.292 2077.49,308.28 2078.32,202.365 2079.15,202.365 2079.98,256.321 2080.81,498.196 2081.63,256.321 2082.46,308.28 2083.29,256.321 2084.12,256.321 2084.95,146.292 2085.78,308.28 2086.61,146.292 2087.44,256.321 2088.27,87.9763 2089.1,146.292 2089.93,308.28 2090.76,358.349 2091.59,256.321 2092.41,146.292 2093.24,256.321 2094.07,453.216 2094.9,87.9763 2095.73,256.321 2096.56,202.365 2097.39,406.629 2098.22,146.292 2099.05,256.321 2099.88,256.321 2100.71,202.365 2101.54,256.321 2102.36,256.321 2103.19,146.292 2104.02,87.9763 2104.85,308.28 2105.68,87.9763 2106.51,308.28 2107.34,146.292 2108.17,146.292 2109,146.292 2109.83,256.321 2110.66,308.28 2111.49,308.28 2112.31,453.216 2113.14,202.365 2113.97,256.321 2114.8,256.321 2115.63,87.9763 2116.46,146.292 2117.29,202.365 2118.12,358.349 2118.95,146.292 2119.78,498.196 2120.61,87.9763 2121.44,256.321 2122.27,358.349 2123.09,146.292 2123.92,202.365 2124.75,146.292 2125.58,308.28 2126.41,87.9763 2127.24,146.292 2128.07,87.9763 2128.9,256.321 2129.73,146.292 2130.56,202.365 2131.39,256.321 2132.22,202.365 2133.04,256.321 2133.87,256.321 2134.7,256.321 2135.53,202.365 2136.36,87.9763 2137.19,146.292 2138.02,256.321 2138.85,256.321 2139.68,256.321 2140.51,146.292 2141.34,202.365 2142.17,202.365 2143,146.292 2143.82,256.321 2144.65,308.28 2145.48,146.292 2146.31,202.365 2147.14,256.321 2147.97,202.365 2148.8,202.365 2149.63,202.365 2150.46,202.365 2151.29,146.292 2152.12,256.321 2152.95,202.365 2153.77,202.365 2154.6,256.321 2155.43,202.365 2156.26,358.349 2157.09,256.321 2157.92,146.292 2158.75,256.321 2159.58,202.365 2160.41,256.321 2161.24,308.28 2162.07,256.321 2162.9,256.321 2163.72,202.365 2164.55,308.28 2165.38,146.292 2166.21,202.365 2167.04,202.365 2167.87,202.365 2168.7,202.365 2169.53,146.292 2170.36,146.292 2171.19,308.28 2172.02,202.365 2172.85,146.292 2173.68,146.292 2174.5,308.28 2175.33,146.292 2176.16,256.321 2176.99,146.292 2177.82,87.9763 2178.65,256.321 2179.48,256.321 2180.31,146.292 2181.14,146.292 2181.97,308.28 2182.8,256.321 2183.63,202.365 2184.45,146.292 2185.28,256.321 2186.11,146.292 2186.94,87.9763 2187.77,256.321 2188.6,406.629 2189.43,146.292 2190.26,308.28 2191.09,308.28 2191.92,256.321 2192.75,541.652 2193.58,202.365 2194.4,453.216 2195.23,202.365 2196.06,146.292 2196.89,308.28 2197.72,358.349 2198.55,87.9763 2199.38,146.292 2200.21,308.28 2201.04,406.629 2201.87,256.321 2202.7,256.321 2203.53,308.28 2204.36,146.292 2205.18,256.321 2206.01,146.292 2206.84,256.321 2207.67,146.292 2208.5,406.629 2209.33,202.365 2210.16,358.349 2210.99,256.321 2211.82,256.321 2212.65,146.292 2213.48,146.292 2214.31,202.365 2215.13,146.292 2215.96,202.365 2216.79,256.321 2217.62,256.321 2218.45,146.292 2219.28,308.28 2220.11,202.365 2220.94,87.9763 2221.77,87.9763 2222.6,146.292 2223.43,202.365 2224.26,146.292 2225.09,87.9763 2225.91,202.365 2226.74,256.321 2227.57,87.9763 2228.4,308.28 2229.23,256.321 2230.06,256.321 2230.89,146.292 2231.72,202.365 2232.55,256.321 2233.38,202.365 2234.21,256.321 2235.04,202.365 2235.86,146.292 2236.69,146.292 2237.52,146.292 2238.35,202.365 2239.18,256.321 2240.01,202.365 2240.84,87.9763 2241.67,202.365 2242.5,256.321 2243.33,87.9763 2244.16,146.292 2244.99,146.292 2245.81,146.292 2246.64,308.28 2247.47,202.365 2248.3,358.349 2249.13,146.292 2249.96,87.9763 2250.79,406.629 2251.62,146.292 2252.45,87.9763 2253.28,256.321 2254.11,87.9763 2254.94,202.365 2255.77,406.629 2256.59,358.349 2257.42,308.28 2258.25,202.365 2259.08,256.321 2259.91,146.292 2260.74,308.28 2261.57,87.9763 2262.4,202.365 2263.23,256.321 2264.06,146.292 2264.89,146.292 2265.72,87.9763 2266.54,146.292 2267.37,256.321 2268.2,256.321 2269.03,256.321 2269.86,308.28 2270.69,308.28 2271.52,358.349 2272.35,256.321 2273.18,308.28 2274.01,453.216 2274.84,202.365 2275.67,358.349 2276.5,146.292 2277.32,308.28 2278.15,358.349 2278.98,256.321 2279.81,146.292 2280.64,202.365 2281.47,146.292 2282.3,358.349 2283.13,202.365 2283.96,202.365 2284.79,146.292 2285.62,256.321 2286.45,202.365 2287.27,202.365 2288.1,308.28 2288.93,202.365 2289.76,453.216 2290.59,256.321 "/>
<path clip-path="url(#clip070)" d="M2007.46 1438.47 L2279.54 1438.47 L2279.54 1334.79 L2007.46 1334.79  Z" fill="#ffffff" fill-rule="evenodd" fill-opacity="1"/>
<polyline clip-path="url(#clip070)" style="stroke:#000000; stroke-linecap:round; stroke-linejoin:round; stroke-width:4; stroke-opacity:1; fill:none" points="2007.46,1438.47 2279.54,1438.47 2279.54,1334.79 2007.46,1334.79 2007.46,1438.47 "/>
<polyline clip-path="url(#clip070)" style="stroke:#009af9; stroke-linecap:round; stroke-linejoin:round; stroke-width:4; stroke-opacity:1; fill:none" points="2031.87,1386.63 2178.3,1386.63 "/>
<path clip-path="url(#clip070)" d="M2216.55 1406.32 Q2214.74 1410.95 2213.03 1412.36 Q2211.32 1413.78 2208.44 1413.78 L2205.04 1413.78 L2205.04 1410.21 L2207.54 1410.21 Q2209.3 1410.21 2210.27 1409.38 Q2211.25 1408.54 2212.43 1405.44 L2213.19 1403.5 L2202.7 1377.99 L2207.22 1377.99 L2215.32 1398.27 L2223.42 1377.99 L2227.94 1377.99 L2216.55 1406.32 Z" fill="#000000" fill-rule="nonzero" fill-opacity="1" /><path clip-path="url(#clip070)" d="M2235.23 1399.98 L2242.87 1399.98 L2242.87 1373.61 L2234.56 1375.28 L2234.56 1371.02 L2242.82 1369.35 L2247.5 1369.35 L2247.5 1399.98 L2255.13 1399.98 L2255.13 1403.91 L2235.23 1403.91 L2235.23 1399.98 Z" fill="#000000" fill-rule="nonzero" fill-opacity="1" /></svg>
