<?xml version="1.0" encoding="utf-8"?>
<svg xmlns="http://www.w3.org/2000/svg" xmlns:xlink="http://www.w3.org/1999/xlink" width="600" height="400" viewBox="0 0 2400 1600">
<defs>
  <clipPath id="clip620">
    <rect x="0" y="0" width="2400" height="1600"/>
  </clipPath>
</defs>
<path clip-path="url(#clip620)" d="M0 1600 L2400 1600 L2400 0 L0 0  Z" fill="#ffffff" fill-rule="evenodd" fill-opacity="1"/>
<defs>
  <clipPath id="clip621">
    <rect x="480" y="0" width="1681" height="1600"/>
  </clipPath>
</defs>
<path clip-path="url(#clip620)" d="M277.431 1486.45 L2352.76 1486.45 L2352.76 47.2441 L277.431 47.2441  Z" fill="#ffffff" fill-rule="evenodd" fill-opacity="1"/>
<defs>
  <clipPath id="clip622">
    <rect x="277" y="47" width="2076" height="1440"/>
  </clipPath>
</defs>
<polyline clip-path="url(#clip622)" style="stroke:#000000; stroke-linecap:round; stroke-linejoin:round; stroke-width:2; stroke-opacity:0.1; fill:none" points="336.167,1486.45 336.167,47.2441 "/>
<polyline clip-path="url(#clip622)" style="stroke:#000000; stroke-linecap:round; stroke-linejoin:round; stroke-width:2; stroke-opacity:0.1; fill:none" points="825.63,1486.45 825.63,47.2441 "/>
<polyline clip-path="url(#clip622)" style="stroke:#000000; stroke-linecap:round; stroke-linejoin:round; stroke-width:2; stroke-opacity:0.1; fill:none" points="1315.09,1486.45 1315.09,47.2441 "/>
<polyline clip-path="url(#clip622)" style="stroke:#000000; stroke-linecap:round; stroke-linejoin:round; stroke-width:2; stroke-opacity:0.1; fill:none" points="1804.56,1486.45 1804.56,47.2441 "/>
<polyline clip-path="url(#clip622)" style="stroke:#000000; stroke-linecap:round; stroke-linejoin:round; stroke-width:2; stroke-opacity:0.1; fill:none" points="2294.02,1486.45 2294.02,47.2441 "/>
<polyline clip-path="url(#clip620)" style="stroke:#000000; stroke-linecap:round; stroke-linejoin:round; stroke-width:4; stroke-opacity:1; fill:none" points="277.431,1486.45 2352.76,1486.45 "/>
<polyline clip-path="url(#clip620)" style="stroke:#000000; stroke-linecap:round; stroke-linejoin:round; stroke-width:4; stroke-opacity:1; fill:none" points="336.167,1486.45 336.167,1467.55 "/>
<polyline clip-path="url(#clip620)" style="stroke:#000000; stroke-linecap:round; stroke-linejoin:round; stroke-width:4; stroke-opacity:1; fill:none" points="825.63,1486.45 825.63,1467.55 "/>
<polyline clip-path="url(#clip620)" style="stroke:#000000; stroke-linecap:round; stroke-linejoin:round; stroke-width:4; stroke-opacity:1; fill:none" points="1315.09,1486.45 1315.09,1467.55 "/>
<polyline clip-path="url(#clip620)" style="stroke:#000000; stroke-linecap:round; stroke-linejoin:round; stroke-width:4; stroke-opacity:1; fill:none" points="1804.56,1486.45 1804.56,1467.55 "/>
<polyline clip-path="url(#clip620)" style="stroke:#000000; stroke-linecap:round; stroke-linejoin:round; stroke-width:4; stroke-opacity:1; fill:none" points="2294.02,1486.45 2294.02,1467.55 "/>
<path clip-path="url(#clip620)" d="M336.167 1517.37 Q332.555 1517.37 330.727 1520.93 Q328.921 1524.47 328.921 1531.6 Q328.921 1538.71 330.727 1542.27 Q332.555 1545.82 336.167 1545.82 Q339.801 1545.82 341.606 1542.27 Q343.435 1538.71 343.435 1531.6 Q343.435 1524.47 341.606 1520.93 Q339.801 1517.37 336.167 1517.37 M336.167 1513.66 Q341.977 1513.66 345.032 1518.27 Q348.111 1522.85 348.111 1531.6 Q348.111 1540.33 345.032 1544.94 Q341.977 1549.52 336.167 1549.52 Q330.356 1549.52 327.278 1544.94 Q324.222 1540.33 324.222 1531.6 Q324.222 1522.85 327.278 1518.27 Q330.356 1513.66 336.167 1513.66 Z" fill="#000000" fill-rule="nonzero" fill-opacity="1" /><path clip-path="url(#clip620)" d="M789.322 1544.91 L805.642 1544.91 L805.642 1548.85 L783.697 1548.85 L783.697 1544.91 Q786.359 1542.16 790.943 1537.53 Q795.549 1532.88 796.73 1531.53 Q798.975 1529.01 799.855 1527.27 Q800.757 1525.51 800.757 1523.82 Q800.757 1521.07 798.813 1519.33 Q796.892 1517.6 793.79 1517.6 Q791.591 1517.6 789.137 1518.36 Q786.707 1519.13 783.929 1520.68 L783.929 1515.95 Q786.753 1514.82 789.207 1514.24 Q791.66 1513.66 793.697 1513.66 Q799.068 1513.66 802.262 1516.35 Q805.456 1519.03 805.456 1523.52 Q805.456 1525.65 804.646 1527.57 Q803.859 1529.47 801.753 1532.07 Q801.174 1532.74 798.072 1535.95 Q794.97 1539.15 789.322 1544.91 Z" fill="#000000" fill-rule="nonzero" fill-opacity="1" /><path clip-path="url(#clip620)" d="M815.503 1514.29 L833.859 1514.29 L833.859 1518.22 L819.785 1518.22 L819.785 1526.7 Q820.804 1526.35 821.822 1526.19 Q822.841 1526 823.859 1526 Q829.646 1526 833.026 1529.17 Q836.405 1532.34 836.405 1537.76 Q836.405 1543.34 832.933 1546.44 Q829.461 1549.52 823.142 1549.52 Q820.966 1549.52 818.697 1549.15 Q816.452 1548.78 814.044 1548.04 L814.044 1543.34 Q816.128 1544.47 818.35 1545.03 Q820.572 1545.58 823.049 1545.58 Q827.054 1545.58 829.392 1543.48 Q831.729 1541.37 831.729 1537.76 Q831.729 1534.15 829.392 1532.04 Q827.054 1529.94 823.049 1529.94 Q821.174 1529.94 819.299 1530.35 Q817.447 1530.77 815.503 1531.65 L815.503 1514.29 Z" fill="#000000" fill-rule="nonzero" fill-opacity="1" /><path clip-path="url(#clip620)" d="M855.618 1517.37 Q852.007 1517.37 850.178 1520.93 Q848.373 1524.47 848.373 1531.6 Q848.373 1538.71 850.178 1542.27 Q852.007 1545.82 855.618 1545.82 Q859.252 1545.82 861.058 1542.27 Q862.887 1538.71 862.887 1531.6 Q862.887 1524.47 861.058 1520.93 Q859.252 1517.37 855.618 1517.37 M855.618 1513.66 Q861.428 1513.66 864.484 1518.27 Q867.563 1522.85 867.563 1531.6 Q867.563 1540.33 864.484 1544.94 Q861.428 1549.52 855.618 1549.52 Q849.808 1549.52 846.729 1544.94 Q843.674 1540.33 843.674 1531.6 Q843.674 1522.85 846.729 1518.27 Q849.808 1513.66 855.618 1513.66 Z" fill="#000000" fill-rule="nonzero" fill-opacity="1" /><path clip-path="url(#clip620)" d="M1274.71 1514.29 L1293.07 1514.29 L1293.07 1518.22 L1278.99 1518.22 L1278.99 1526.7 Q1280.01 1526.35 1281.03 1526.19 Q1282.05 1526 1283.07 1526 Q1288.86 1526 1292.23 1529.17 Q1295.61 1532.34 1295.61 1537.76 Q1295.61 1543.34 1292.14 1546.44 Q1288.67 1549.52 1282.35 1549.52 Q1280.17 1549.52 1277.91 1549.15 Q1275.66 1548.78 1273.25 1548.04 L1273.25 1543.34 Q1275.34 1544.47 1277.56 1545.03 Q1279.78 1545.58 1282.26 1545.58 Q1286.26 1545.58 1288.6 1543.48 Q1290.94 1541.37 1290.94 1537.76 Q1290.94 1534.15 1288.6 1532.04 Q1286.26 1529.94 1282.26 1529.94 Q1280.38 1529.94 1278.51 1530.35 Q1276.66 1530.77 1274.71 1531.65 L1274.71 1514.29 Z" fill="#000000" fill-rule="nonzero" fill-opacity="1" /><path clip-path="url(#clip620)" d="M1314.83 1517.37 Q1311.22 1517.37 1309.39 1520.93 Q1307.58 1524.47 1307.58 1531.6 Q1307.58 1538.71 1309.39 1542.27 Q1311.22 1545.82 1314.83 1545.82 Q1318.46 1545.82 1320.27 1542.27 Q1322.1 1538.71 1322.1 1531.6 Q1322.1 1524.47 1320.27 1520.93 Q1318.46 1517.37 1314.83 1517.37 M1314.83 1513.66 Q1320.64 1513.66 1323.69 1518.27 Q1326.77 1522.85 1326.77 1531.6 Q1326.77 1540.33 1323.69 1544.94 Q1320.64 1549.52 1314.83 1549.52 Q1309.02 1549.52 1305.94 1544.94 Q1302.88 1540.33 1302.88 1531.6 Q1302.88 1522.85 1305.94 1518.27 Q1309.02 1513.66 1314.83 1513.66 Z" fill="#000000" fill-rule="nonzero" fill-opacity="1" /><path clip-path="url(#clip620)" d="M1344.99 1517.37 Q1341.38 1517.37 1339.55 1520.93 Q1337.74 1524.47 1337.74 1531.6 Q1337.74 1538.71 1339.55 1542.27 Q1341.38 1545.82 1344.99 1545.82 Q1348.62 1545.82 1350.43 1542.27 Q1352.26 1538.71 1352.26 1531.6 Q1352.26 1524.47 1350.43 1520.93 Q1348.62 1517.37 1344.99 1517.37 M1344.99 1513.66 Q1350.8 1513.66 1353.85 1518.27 Q1356.93 1522.85 1356.93 1531.6 Q1356.93 1540.33 1353.85 1544.94 Q1350.8 1549.52 1344.99 1549.52 Q1339.18 1549.52 1336.1 1544.94 Q1333.04 1540.33 1333.04 1531.6 Q1333.04 1522.85 1336.1 1518.27 Q1339.18 1513.66 1344.99 1513.66 Z" fill="#000000" fill-rule="nonzero" fill-opacity="1" /><path clip-path="url(#clip620)" d="M1762.83 1514.29 L1785.05 1514.29 L1785.05 1516.28 L1772.51 1548.85 L1767.62 1548.85 L1779.43 1518.22 L1762.83 1518.22 L1762.83 1514.29 Z" fill="#000000" fill-rule="nonzero" fill-opacity="1" /><path clip-path="url(#clip620)" d="M1794.22 1514.29 L1812.58 1514.29 L1812.58 1518.22 L1798.5 1518.22 L1798.5 1526.7 Q1799.52 1526.35 1800.54 1526.19 Q1801.56 1526 1802.58 1526 Q1808.36 1526 1811.74 1529.17 Q1815.12 1532.34 1815.12 1537.76 Q1815.12 1543.34 1811.65 1546.44 Q1808.18 1549.52 1801.86 1549.52 Q1799.68 1549.52 1797.42 1549.15 Q1795.17 1548.78 1792.76 1548.04 L1792.76 1543.34 Q1794.85 1544.47 1797.07 1545.03 Q1799.29 1545.58 1801.77 1545.58 Q1805.77 1545.58 1808.11 1543.48 Q1810.45 1541.37 1810.45 1537.76 Q1810.45 1534.15 1808.11 1532.04 Q1805.77 1529.94 1801.77 1529.94 Q1799.89 1529.94 1798.02 1530.35 Q1796.17 1530.77 1794.22 1531.65 L1794.22 1514.29 Z" fill="#000000" fill-rule="nonzero" fill-opacity="1" /><path clip-path="url(#clip620)" d="M1834.34 1517.37 Q1830.73 1517.37 1828.9 1520.93 Q1827.09 1524.47 1827.09 1531.6 Q1827.09 1538.71 1828.9 1542.27 Q1830.73 1545.82 1834.34 1545.82 Q1837.97 1545.82 1839.78 1542.27 Q1841.61 1538.71 1841.61 1531.6 Q1841.61 1524.47 1839.78 1520.93 Q1837.97 1517.37 1834.34 1517.37 M1834.34 1513.66 Q1840.15 1513.66 1843.2 1518.27 Q1846.28 1522.85 1846.28 1531.6 Q1846.28 1540.33 1843.2 1544.94 Q1840.15 1549.52 1834.34 1549.52 Q1828.53 1549.52 1825.45 1544.94 Q1822.39 1540.33 1822.39 1531.6 Q1822.39 1522.85 1825.45 1518.27 Q1828.53 1513.66 1834.34 1513.66 Z" fill="#000000" fill-rule="nonzero" fill-opacity="1" /><path clip-path="url(#clip620)" d="M2238.55 1544.91 L2246.18 1544.91 L2246.18 1518.55 L2237.87 1520.21 L2237.87 1515.95 L2246.14 1514.29 L2250.81 1514.29 L2250.81 1544.91 L2258.45 1544.91 L2258.45 1548.85 L2238.55 1548.85 L2238.55 1544.91 Z" fill="#000000" fill-rule="nonzero" fill-opacity="1" /><path clip-path="url(#clip620)" d="M2277.9 1517.37 Q2274.29 1517.37 2272.46 1520.93 Q2270.65 1524.47 2270.65 1531.6 Q2270.65 1538.71 2272.46 1542.27 Q2274.29 1545.82 2277.9 1545.82 Q2281.53 1545.82 2283.34 1542.27 Q2285.17 1538.71 2285.17 1531.6 Q2285.17 1524.47 2283.34 1520.93 Q2281.53 1517.37 2277.9 1517.37 M2277.9 1513.66 Q2283.71 1513.66 2286.76 1518.27 Q2289.84 1522.85 2289.84 1531.6 Q2289.84 1540.33 2286.76 1544.94 Q2283.71 1549.52 2277.9 1549.52 Q2272.09 1549.52 2269.01 1544.94 Q2265.95 1540.33 2265.95 1531.6 Q2265.95 1522.85 2269.01 1518.27 Q2272.09 1513.66 2277.9 1513.66 Z" fill="#000000" fill-rule="nonzero" fill-opacity="1" /><path clip-path="url(#clip620)" d="M2308.06 1517.37 Q2304.45 1517.37 2302.62 1520.93 Q2300.81 1524.47 2300.81 1531.6 Q2300.81 1538.71 2302.62 1542.27 Q2304.45 1545.82 2308.06 1545.82 Q2311.69 1545.82 2313.5 1542.27 Q2315.33 1538.71 2315.33 1531.6 Q2315.33 1524.47 2313.5 1520.93 Q2311.69 1517.37 2308.06 1517.37 M2308.06 1513.66 Q2313.87 1513.66 2316.93 1518.27 Q2320 1522.85 2320 1531.6 Q2320 1540.33 2316.93 1544.94 Q2313.87 1549.52 2308.06 1549.52 Q2302.25 1549.52 2299.17 1544.94 Q2296.12 1540.33 2296.12 1531.6 Q2296.12 1522.85 2299.17 1518.27 Q2302.25 1513.66 2308.06 1513.66 Z" fill="#000000" fill-rule="nonzero" fill-opacity="1" /><path clip-path="url(#clip620)" d="M2338.22 1517.37 Q2334.61 1517.37 2332.78 1520.93 Q2330.98 1524.47 2330.98 1531.6 Q2330.98 1538.71 2332.78 1542.27 Q2334.61 1545.82 2338.22 1545.82 Q2341.86 1545.82 2343.66 1542.27 Q2345.49 1538.71 2345.49 1531.6 Q2345.49 1524.47 2343.66 1520.93 Q2341.86 1517.37 2338.22 1517.37 M2338.22 1513.66 Q2344.03 1513.66 2347.09 1518.27 Q2350.17 1522.85 2350.17 1531.6 Q2350.17 1540.33 2347.09 1544.94 Q2344.03 1549.52 2338.22 1549.52 Q2332.41 1549.52 2329.33 1544.94 Q2326.28 1540.33 2326.28 1531.6 Q2326.28 1522.85 2329.33 1518.27 Q2332.41 1513.66 2338.22 1513.66 Z" fill="#000000" fill-rule="nonzero" fill-opacity="1" /><polyline clip-path="url(#clip622)" style="stroke:#000000; stroke-linecap:round; stroke-linejoin:round; stroke-width:2; stroke-opacity:0.1; fill:none" points="277.431,1309.92 2352.76,1309.92 "/>
<polyline clip-path="url(#clip622)" style="stroke:#000000; stroke-linecap:round; stroke-linejoin:round; stroke-width:2; stroke-opacity:0.1; fill:none" points="277.431,1025.03 2352.76,1025.03 "/>
<polyline clip-path="url(#clip622)" style="stroke:#000000; stroke-linecap:round; stroke-linejoin:round; stroke-width:2; stroke-opacity:0.1; fill:none" points="277.431,740.149 2352.76,740.149 "/>
<polyline clip-path="url(#clip622)" style="stroke:#000000; stroke-linecap:round; stroke-linejoin:round; stroke-width:2; stroke-opacity:0.1; fill:none" points="277.431,455.265 2352.76,455.265 "/>
<polyline clip-path="url(#clip622)" style="stroke:#000000; stroke-linecap:round; stroke-linejoin:round; stroke-width:2; stroke-opacity:0.1; fill:none" points="277.431,170.381 2352.76,170.381 "/>
<polyline clip-path="url(#clip620)" style="stroke:#000000; stroke-linecap:round; stroke-linejoin:round; stroke-width:4; stroke-opacity:1; fill:none" points="277.431,1486.45 277.431,47.2441 "/>
<polyline clip-path="url(#clip620)" style="stroke:#000000; stroke-linecap:round; stroke-linejoin:round; stroke-width:4; stroke-opacity:1; fill:none" points="277.431,1309.92 296.329,1309.92 "/>
<polyline clip-path="url(#clip620)" style="stroke:#000000; stroke-linecap:round; stroke-linejoin:round; stroke-width:4; stroke-opacity:1; fill:none" points="277.431,1025.03 296.329,1025.03 "/>
<polyline clip-path="url(#clip620)" style="stroke:#000000; stroke-linecap:round; stroke-linejoin:round; stroke-width:4; stroke-opacity:1; fill:none" points="277.431,740.149 296.329,740.149 "/>
<polyline clip-path="url(#clip620)" style="stroke:#000000; stroke-linecap:round; stroke-linejoin:round; stroke-width:4; stroke-opacity:1; fill:none" points="277.431,455.265 296.329,455.265 "/>
<polyline clip-path="url(#clip620)" style="stroke:#000000; stroke-linecap:round; stroke-linejoin:round; stroke-width:4; stroke-opacity:1; fill:none" points="277.431,170.381 296.329,170.381 "/>
<path clip-path="url(#clip620)" d="M54.5569 1329.71 L62.1958 1329.71 L62.1958 1303.34 L53.8856 1305.01 L53.8856 1300.75 L62.1495 1299.08 L66.8254 1299.08 L66.8254 1329.71 L74.4642 1329.71 L74.4642 1333.64 L54.5569 1333.64 L54.5569 1329.71 Z" fill="#000000" fill-rule="nonzero" fill-opacity="1" /><path clip-path="url(#clip620)" d="M83.9086 1327.77 L88.7928 1327.77 L88.7928 1333.64 L83.9086 1333.64 L83.9086 1327.77 Z" fill="#000000" fill-rule="nonzero" fill-opacity="1" /><path clip-path="url(#clip620)" d="M108.978 1302.16 Q105.367 1302.16 103.538 1305.73 Q101.733 1309.27 101.733 1316.4 Q101.733 1323.51 103.538 1327.07 Q105.367 1330.61 108.978 1330.61 Q112.612 1330.61 114.418 1327.07 Q116.246 1323.51 116.246 1316.4 Q116.246 1309.27 114.418 1305.73 Q112.612 1302.16 108.978 1302.16 M108.978 1298.46 Q114.788 1298.46 117.844 1303.07 Q120.922 1307.65 120.922 1316.4 Q120.922 1325.13 117.844 1329.73 Q114.788 1334.32 108.978 1334.32 Q103.168 1334.32 100.089 1329.73 Q97.0335 1325.13 97.0335 1316.4 Q97.0335 1307.65 100.089 1303.07 Q103.168 1298.46 108.978 1298.46 Z" fill="#000000" fill-rule="nonzero" fill-opacity="1" /><path clip-path="url(#clip620)" d="M157.311 1308.18 L146.732 1318.81 L157.311 1329.39 L154.556 1332.19 L143.931 1321.56 L133.306 1332.19 L130.575 1329.39 L141.131 1318.81 L130.575 1308.18 L133.306 1305.38 L143.931 1316.01 L154.556 1305.38 L157.311 1308.18 Z" fill="#000000" fill-rule="nonzero" fill-opacity="1" /><path clip-path="url(#clip620)" d="M169.672 1329.71 L177.311 1329.71 L177.311 1303.34 L169.001 1305.01 L169.001 1300.75 L177.265 1299.08 L181.94 1299.08 L181.94 1329.71 L189.579 1329.71 L189.579 1333.64 L169.672 1333.64 L169.672 1329.71 Z" fill="#000000" fill-rule="nonzero" fill-opacity="1" /><path clip-path="url(#clip620)" d="M209.024 1302.16 Q205.413 1302.16 203.584 1305.73 Q201.778 1309.27 201.778 1316.4 Q201.778 1323.51 203.584 1327.07 Q205.413 1330.61 209.024 1330.61 Q212.658 1330.61 214.463 1327.07 Q216.292 1323.51 216.292 1316.4 Q216.292 1309.27 214.463 1305.73 Q212.658 1302.16 209.024 1302.16 M209.024 1298.46 Q214.834 1298.46 217.889 1303.07 Q220.968 1307.65 220.968 1316.4 Q220.968 1325.13 217.889 1329.73 Q214.834 1334.32 209.024 1334.32 Q203.214 1334.32 200.135 1329.73 Q197.079 1325.13 197.079 1316.4 Q197.079 1307.65 200.135 1303.07 Q203.214 1298.46 209.024 1298.46 Z" fill="#000000" fill-rule="nonzero" fill-opacity="1" /><path clip-path="url(#clip620)" d="M233.645 1281.46 L224.053 1296.45 L233.645 1296.45 L233.645 1281.46 M232.648 1278.15 L237.425 1278.15 L237.425 1296.45 L241.431 1296.45 L241.431 1299.61 L237.425 1299.61 L237.425 1306.23 L233.645 1306.23 L233.645 1299.61 L220.968 1299.61 L220.968 1295.95 L232.648 1278.15 Z" fill="#000000" fill-rule="nonzero" fill-opacity="1" /><path clip-path="url(#clip620)" d="M57.7745 1044.83 L74.0939 1044.83 L74.0939 1048.76 L52.1495 1048.76 L52.1495 1044.83 Q54.8115 1042.07 59.3949 1037.44 Q64.0013 1032.79 65.1819 1031.45 Q67.4272 1028.92 68.3068 1027.19 Q69.2096 1025.43 69.2096 1023.74 Q69.2096 1020.98 67.2652 1019.25 Q65.3439 1017.51 62.2421 1017.51 Q60.043 1017.51 57.5893 1018.27 Q55.1588 1019.04 52.381 1020.59 L52.381 1015.87 Q55.2051 1014.73 57.6588 1014.15 Q60.1124 1013.58 62.1495 1013.58 Q67.5198 1013.58 70.7142 1016.26 Q73.9087 1018.95 73.9087 1023.44 Q73.9087 1025.57 73.0985 1027.49 Q72.3115 1029.39 70.205 1031.98 Q69.6263 1032.65 66.5245 1035.87 Q63.4226 1039.06 57.7745 1044.83 Z" fill="#000000" fill-rule="nonzero" fill-opacity="1" /><path clip-path="url(#clip620)" d="M83.9086 1042.88 L88.7928 1042.88 L88.7928 1048.76 L83.9086 1048.76 L83.9086 1042.88 Z" fill="#000000" fill-rule="nonzero" fill-opacity="1" /><path clip-path="url(#clip620)" d="M108.978 1017.28 Q105.367 1017.28 103.538 1020.84 Q101.733 1024.39 101.733 1031.52 Q101.733 1038.62 103.538 1042.19 Q105.367 1045.73 108.978 1045.73 Q112.612 1045.73 114.418 1042.19 Q116.246 1038.62 116.246 1031.52 Q116.246 1024.39 114.418 1020.84 Q112.612 1017.28 108.978 1017.28 M108.978 1013.58 Q114.788 1013.58 117.844 1018.18 Q120.922 1022.77 120.922 1031.52 Q120.922 1040.24 117.844 1044.85 Q114.788 1049.43 108.978 1049.43 Q103.168 1049.43 100.089 1044.85 Q97.0335 1040.24 97.0335 1031.52 Q97.0335 1022.77 100.089 1018.18 Q103.168 1013.58 108.978 1013.58 Z" fill="#000000" fill-rule="nonzero" fill-opacity="1" /><path clip-path="url(#clip620)" d="M157.311 1023.3 L146.732 1033.92 L157.311 1044.5 L154.556 1047.3 L143.931 1036.68 L133.306 1047.3 L130.575 1044.5 L141.131 1033.92 L130.575 1023.3 L133.306 1020.5 L143.931 1031.12 L154.556 1020.5 L157.311 1023.3 Z" fill="#000000" fill-rule="nonzero" fill-opacity="1" /><path clip-path="url(#clip620)" d="M169.672 1044.83 L177.311 1044.83 L177.311 1018.46 L169.001 1020.13 L169.001 1015.87 L177.265 1014.2 L181.94 1014.2 L181.94 1044.83 L189.579 1044.83 L189.579 1048.76 L169.672 1048.76 L169.672 1044.83 Z" fill="#000000" fill-rule="nonzero" fill-opacity="1" /><path clip-path="url(#clip620)" d="M209.024 1017.28 Q205.413 1017.28 203.584 1020.84 Q201.778 1024.39 201.778 1031.52 Q201.778 1038.62 203.584 1042.19 Q205.413 1045.73 209.024 1045.73 Q212.658 1045.73 214.463 1042.19 Q216.292 1038.62 216.292 1031.52 Q216.292 1024.39 214.463 1020.84 Q212.658 1017.28 209.024 1017.28 M209.024 1013.58 Q214.834 1013.58 217.889 1018.18 Q220.968 1022.77 220.968 1031.52 Q220.968 1040.24 217.889 1044.85 Q214.834 1049.43 209.024 1049.43 Q203.214 1049.43 200.135 1044.85 Q197.079 1040.24 197.079 1031.52 Q197.079 1022.77 200.135 1018.18 Q203.214 1013.58 209.024 1013.58 Z" fill="#000000" fill-rule="nonzero" fill-opacity="1" /><path clip-path="url(#clip620)" d="M233.645 996.58 L224.053 1011.57 L233.645 1011.57 L233.645 996.58 M232.648 993.27 L237.425 993.27 L237.425 1011.57 L241.431 1011.57 L241.431 1014.73 L237.425 1014.73 L237.425 1021.35 L233.645 1021.35 L233.645 1014.73 L220.968 1014.73 L220.968 1011.06 L232.648 993.27 Z" fill="#000000" fill-rule="nonzero" fill-opacity="1" /><path clip-path="url(#clip620)" d="M67.9133 745.243 Q71.2698 745.96 73.1448 748.229 Q75.0429 750.497 75.0429 753.83 Q75.0429 758.946 71.5244 761.747 Q68.0059 764.548 61.5245 764.548 Q59.3486 764.548 57.0338 764.108 Q54.7421 763.691 52.2884 762.835 L52.2884 758.321 Q54.2328 759.455 56.5477 760.034 Q58.8625 760.613 61.3856 760.613 Q65.7837 760.613 68.0754 758.877 Q70.3902 757.141 70.3902 753.83 Q70.3902 750.775 68.2374 749.062 Q66.1078 747.326 62.2884 747.326 L58.2606 747.326 L58.2606 743.483 L62.4735 743.483 Q65.9226 743.483 67.7513 742.118 Q69.58 740.729 69.58 738.136 Q69.58 735.474 67.6819 734.062 Q65.8069 732.627 62.2884 732.627 Q60.3671 732.627 58.168 733.044 Q55.969 733.46 53.3301 734.34 L53.3301 730.173 Q55.9921 729.432 58.3069 729.062 Q60.6449 728.692 62.705 728.692 Q68.0291 728.692 71.1309 731.122 Q74.2327 733.53 74.2327 737.65 Q74.2327 740.52 72.5892 742.511 Q70.9457 744.479 67.9133 745.243 Z" fill="#000000" fill-rule="nonzero" fill-opacity="1" /><path clip-path="url(#clip620)" d="M83.9086 757.997 L88.7928 757.997 L88.7928 763.877 L83.9086 763.877 L83.9086 757.997 Z" fill="#000000" fill-rule="nonzero" fill-opacity="1" /><path clip-path="url(#clip620)" d="M108.978 732.395 Q105.367 732.395 103.538 735.96 Q101.733 739.502 101.733 746.631 Q101.733 753.738 103.538 757.303 Q105.367 760.844 108.978 760.844 Q112.612 760.844 114.418 757.303 Q116.246 753.738 116.246 746.631 Q116.246 739.502 114.418 735.96 Q112.612 732.395 108.978 732.395 M108.978 728.692 Q114.788 728.692 117.844 733.298 Q120.922 737.881 120.922 746.631 Q120.922 755.358 117.844 759.965 Q114.788 764.548 108.978 764.548 Q103.168 764.548 100.089 759.965 Q97.0335 755.358 97.0335 746.631 Q97.0335 737.881 100.089 733.298 Q103.168 728.692 108.978 728.692 Z" fill="#000000" fill-rule="nonzero" fill-opacity="1" /><path clip-path="url(#clip620)" d="M157.311 738.414 L146.732 749.039 L157.311 759.617 L154.556 762.418 L143.931 751.793 L133.306 762.418 L130.575 759.617 L141.131 749.039 L130.575 738.414 L133.306 735.613 L143.931 746.238 L154.556 735.613 L157.311 738.414 Z" fill="#000000" fill-rule="nonzero" fill-opacity="1" /><path clip-path="url(#clip620)" d="M169.672 759.942 L177.311 759.942 L177.311 733.576 L169.001 735.243 L169.001 730.983 L177.265 729.317 L181.94 729.317 L181.94 759.942 L189.579 759.942 L189.579 763.877 L169.672 763.877 L169.672 759.942 Z" fill="#000000" fill-rule="nonzero" fill-opacity="1" /><path clip-path="url(#clip620)" d="M209.024 732.395 Q205.413 732.395 203.584 735.96 Q201.778 739.502 201.778 746.631 Q201.778 753.738 203.584 757.303 Q205.413 760.844 209.024 760.844 Q212.658 760.844 214.463 757.303 Q216.292 753.738 216.292 746.631 Q216.292 739.502 214.463 735.96 Q212.658 732.395 209.024 732.395 M209.024 728.692 Q214.834 728.692 217.889 733.298 Q220.968 737.881 220.968 746.631 Q220.968 755.358 217.889 759.965 Q214.834 764.548 209.024 764.548 Q203.214 764.548 200.135 759.965 Q197.079 755.358 197.079 746.631 Q197.079 737.881 200.135 733.298 Q203.214 728.692 209.024 728.692 Z" fill="#000000" fill-rule="nonzero" fill-opacity="1" /><path clip-path="url(#clip620)" d="M233.645 711.696 L224.053 726.686 L233.645 726.686 L233.645 711.696 M232.648 708.386 L237.425 708.386 L237.425 726.686 L241.431 726.686 L241.431 729.846 L237.425 729.846 L237.425 736.466 L233.645 736.466 L233.645 729.846 L220.968 729.846 L220.968 726.178 L232.648 708.386 Z" fill="#000000" fill-rule="nonzero" fill-opacity="1" /><path clip-path="url(#clip620)" d="M66.5939 448.507 L54.7884 466.956 L66.5939 466.956 L66.5939 448.507 M65.367 444.433 L71.2466 444.433 L71.2466 466.956 L76.1772 466.956 L76.1772 470.845 L71.2466 470.845 L71.2466 478.993 L66.5939 478.993 L66.5939 470.845 L50.9921 470.845 L50.9921 466.331 L65.367 444.433 Z" fill="#000000" fill-rule="nonzero" fill-opacity="1" /><path clip-path="url(#clip620)" d="M83.9086 473.113 L88.7928 473.113 L88.7928 478.993 L83.9086 478.993 L83.9086 473.113 Z" fill="#000000" fill-rule="nonzero" fill-opacity="1" /><path clip-path="url(#clip620)" d="M108.978 447.511 Q105.367 447.511 103.538 451.076 Q101.733 454.618 101.733 461.747 Q101.733 468.854 103.538 472.419 Q105.367 475.96 108.978 475.96 Q112.612 475.96 114.418 472.419 Q116.246 468.854 116.246 461.747 Q116.246 454.618 114.418 451.076 Q112.612 447.511 108.978 447.511 M108.978 443.808 Q114.788 443.808 117.844 448.414 Q120.922 452.997 120.922 461.747 Q120.922 470.474 117.844 475.081 Q114.788 479.664 108.978 479.664 Q103.168 479.664 100.089 475.081 Q97.0335 470.474 97.0335 461.747 Q97.0335 452.997 100.089 448.414 Q103.168 443.808 108.978 443.808 Z" fill="#000000" fill-rule="nonzero" fill-opacity="1" /><path clip-path="url(#clip620)" d="M157.311 453.53 L146.732 464.155 L157.311 474.733 L154.556 477.534 L143.931 466.909 L133.306 477.534 L130.575 474.733 L141.131 464.155 L130.575 453.53 L133.306 450.729 L143.931 461.354 L154.556 450.729 L157.311 453.53 Z" fill="#000000" fill-rule="nonzero" fill-opacity="1" /><path clip-path="url(#clip620)" d="M169.672 475.057 L177.311 475.057 L177.311 448.692 L169.001 450.359 L169.001 446.099 L177.265 444.433 L181.94 444.433 L181.94 475.057 L189.579 475.057 L189.579 478.993 L169.672 478.993 L169.672 475.057 Z" fill="#000000" fill-rule="nonzero" fill-opacity="1" /><path clip-path="url(#clip620)" d="M209.024 447.511 Q205.413 447.511 203.584 451.076 Q201.778 454.618 201.778 461.747 Q201.778 468.854 203.584 472.419 Q205.413 475.96 209.024 475.96 Q212.658 475.96 214.463 472.419 Q216.292 468.854 216.292 461.747 Q216.292 454.618 214.463 451.076 Q212.658 447.511 209.024 447.511 M209.024 443.808 Q214.834 443.808 217.889 448.414 Q220.968 452.997 220.968 461.747 Q220.968 470.474 217.889 475.081 Q214.834 479.664 209.024 479.664 Q203.214 479.664 200.135 475.081 Q197.079 470.474 197.079 461.747 Q197.079 452.997 200.135 448.414 Q203.214 443.808 209.024 443.808 Z" fill="#000000" fill-rule="nonzero" fill-opacity="1" /><path clip-path="url(#clip620)" d="M233.645 426.812 L224.053 441.802 L233.645 441.802 L233.645 426.812 M232.648 423.502 L237.425 423.502 L237.425 441.802 L241.431 441.802 L241.431 444.962 L237.425 444.962 L237.425 451.582 L233.645 451.582 L233.645 444.962 L220.968 444.962 L220.968 441.294 L232.648 423.502 Z" fill="#000000" fill-rule="nonzero" fill-opacity="1" /><path clip-path="url(#clip620)" d="M53.793 159.549 L72.1494 159.549 L72.1494 163.484 L58.0754 163.484 L58.0754 171.956 Q59.0939 171.609 60.1124 171.447 Q61.131 171.262 62.1495 171.262 Q67.9365 171.262 71.3161 174.433 Q74.6957 177.604 74.6957 183.021 Q74.6957 188.599 71.2235 191.701 Q67.7513 194.78 61.4319 194.78 Q59.256 194.78 56.9875 194.41 Q54.7421 194.039 52.3347 193.298 L52.3347 188.599 Q54.418 189.734 56.6402 190.289 Q58.8625 190.845 61.3393 190.845 Q65.3439 190.845 67.6819 188.738 Q70.0198 186.632 70.0198 183.021 Q70.0198 179.41 67.6819 177.303 Q65.3439 175.197 61.3393 175.197 Q59.4643 175.197 57.5893 175.613 Q55.7375 176.03 53.793 176.91 L53.793 159.549 Z" fill="#000000" fill-rule="nonzero" fill-opacity="1" /><path clip-path="url(#clip620)" d="M83.9086 188.229 L88.7928 188.229 L88.7928 194.109 L83.9086 194.109 L83.9086 188.229 Z" fill="#000000" fill-rule="nonzero" fill-opacity="1" /><path clip-path="url(#clip620)" d="M108.978 162.627 Q105.367 162.627 103.538 166.192 Q101.733 169.734 101.733 176.863 Q101.733 183.97 103.538 187.535 Q105.367 191.076 108.978 191.076 Q112.612 191.076 114.418 187.535 Q116.246 183.97 116.246 176.863 Q116.246 169.734 114.418 166.192 Q112.612 162.627 108.978 162.627 M108.978 158.924 Q114.788 158.924 117.844 163.53 Q120.922 168.113 120.922 176.863 Q120.922 185.59 117.844 190.197 Q114.788 194.78 108.978 194.78 Q103.168 194.78 100.089 190.197 Q97.0335 185.59 97.0335 176.863 Q97.0335 168.113 100.089 163.53 Q103.168 158.924 108.978 158.924 Z" fill="#000000" fill-rule="nonzero" fill-opacity="1" /><path clip-path="url(#clip620)" d="M157.311 168.646 L146.732 179.271 L157.311 189.849 L154.556 192.65 L143.931 182.025 L133.306 192.65 L130.575 189.849 L141.131 179.271 L130.575 168.646 L133.306 165.845 L143.931 176.47 L154.556 165.845 L157.311 168.646 Z" fill="#000000" fill-rule="nonzero" fill-opacity="1" /><path clip-path="url(#clip620)" d="M169.672 190.173 L177.311 190.173 L177.311 163.808 L169.001 165.475 L169.001 161.215 L177.265 159.549 L181.94 159.549 L181.94 190.173 L189.579 190.173 L189.579 194.109 L169.672 194.109 L169.672 190.173 Z" fill="#000000" fill-rule="nonzero" fill-opacity="1" /><path clip-path="url(#clip620)" d="M209.024 162.627 Q205.413 162.627 203.584 166.192 Q201.778 169.734 201.778 176.863 Q201.778 183.97 203.584 187.535 Q205.413 191.076 209.024 191.076 Q212.658 191.076 214.463 187.535 Q216.292 183.97 216.292 176.863 Q216.292 169.734 214.463 166.192 Q212.658 162.627 209.024 162.627 M209.024 158.924 Q214.834 158.924 217.889 163.53 Q220.968 168.113 220.968 176.863 Q220.968 185.59 217.889 190.197 Q214.834 194.78 209.024 194.78 Q203.214 194.78 200.135 190.197 Q197.079 185.59 197.079 176.863 Q197.079 168.113 200.135 163.53 Q203.214 158.924 209.024 158.924 Z" fill="#000000" fill-rule="nonzero" fill-opacity="1" /><path clip-path="url(#clip620)" d="M233.645 141.928 L224.053 156.918 L233.645 156.918 L233.645 141.928 M232.648 138.618 L237.425 138.618 L237.425 156.918 L241.431 156.918 L241.431 160.078 L237.425 160.078 L237.425 166.698 L233.645 166.698 L233.645 160.078 L220.968 160.078 L220.968 156.41 L232.648 138.618 Z" fill="#000000" fill-rule="nonzero" fill-opacity="1" /><polyline clip-path="url(#clip622)" style="stroke:#009af9; stroke-linecap:round; stroke-linejoin:round; stroke-width:4; stroke-opacity:1; fill:none" points="336.167,591.276 338.124,591.19 340.082,590.989 342.04,590.522 343.998,589.444 345.956,586.951 347.914,581.324 349.872,568.808 351.829,543.45 353.787,496.299 355.745,430.198 357.703,348.781 359.661,283.3 361.619,213.912 363.576,186.178 365.534,155.296 367.492,157.761 369.45,134.365 371.408,128.55 373.366,87.9763 375.324,1426.2 377.281,1426.22 379.239,1426.22 381.197,1426.23 383.155,1426.23 385.113,1426.24 387.071,1426.24 389.029,1426.24 390.986,1426.24 392.944,1426.25 394.902,1426.25 396.86,1426.25 398.818,1426.25 400.776,1426.25 402.734,1426.25 404.691,1426.25 406.649,1426.25 408.607,1426.25 410.565,1426.25 412.523,1426.25 414.481,1429.27 416.439,1429.3 418.396,1429.31 420.354,1429.32 422.312,1429.33 424.27,1429.34 426.228,1429.34 428.186,1429.34 430.144,1429.35 432.101,1429.35 434.059,1429.35 436.017,1429.35 437.975,1429.35 439.933,1429.35 441.891,1429.36 443.848,1429.36 445.806,1429.36 447.764,1429.36 449.722,1429.36 451.68,1429.36 453.638,1429.65 455.596,1429.68 457.553,1429.69 459.511,1429.69 461.469,1429.7 463.427,1429.7 465.385,1429.71 467.343,1429.71 469.301,1429.71 471.258,1429.71 473.216,1429.72 475.174,1429.72 477.132,1429.72 479.09,1429.72 481.048,1429.73 483.006,1429.73 484.963,1429.73 486.921,1429.73 488.879,1429.73 490.837,1429.73 492.795,1426.98 494.753,1426.99 496.711,1426.99 498.668,1427 500.626,1427 502.584,1427 504.542,1427 506.5,1427.01 508.458,1427.01 510.416,1427.01 512.373,1427.01 514.331,1427.01 516.289,1427.01 518.247,1427.01 520.205,1427.02 522.163,1427.02 524.12,1427.02 526.078,1427.02 528.036,1427.02 529.994,1427.02 531.952,1431.19 533.91,1431.22 535.868,1431.22 537.825,1431.23 539.783,1431.23 541.741,1431.23 543.699,1431.23 545.657,1431.24 547.615,1431.24 549.573,1431.24 551.53,1431.24 553.488,1431.24 555.446,1431.24 557.404,1431.24 559.362,1431.24 561.32,1431.24 563.278,1431.24 565.235,1431.24 567.193,1431.24 569.151,1431.24 571.109,1433.72 573.067,1433.73 575.025,1433.74 576.983,1433.74 578.94,1433.75 580.898,1433.75 582.856,1433.75 584.814,1433.75 586.772,1433.75 588.73,1433.76 590.688,1433.76 592.645,1433.76 594.603,1433.76 596.561,1433.76 598.519,1433.76 600.477,1433.76 602.435,1433.76 604.392,1433.76 606.35,1433.76 608.308,1433.76 610.266,1436.74 612.224,1436.79 614.182,1436.8 616.14,1436.81 618.097,1436.82 620.055,1436.82 622.013,1436.82 623.971,1436.83 625.929,1436.83 627.887,1436.83 629.845,1436.83 631.802,1436.83 633.76,1436.84 635.718,1436.84 637.676,1436.84 639.634,1436.84 641.592,1436.84 643.55,1436.84 645.507,1436.84 647.465,1436.84 649.423,1439.1 651.381,1439.11 653.339,1439.11 655.297,1439.11 657.255,1439.11 659.212,1439.11 661.17,1439.11 663.128,1439.11 665.086,1439.11 667.044,1439.11 669.002,1439.11 670.96,1439.11 672.917,1439.11 674.875,1439.11 676.833,1439.11 678.791,1439.11 680.749,1439.12 682.707,1439.12 684.665,1439.12 686.622,1439.12 688.58,1434.51 690.538,1434.54 692.496,1434.55 694.454,1434.55 696.412,1434.55 698.369,1434.55 700.327,1434.56 702.285,1434.56 704.243,1434.56 706.201,1434.56 708.159,1434.56 710.117,1434.56 712.074,1434.56 714.032,1434.56 715.99,1434.56 717.948,1434.56 719.906,1434.56 721.864,1434.56 723.822,1434.56 725.779,1434.56 727.737,1439.02 729.695,1439.04 731.653,1439.04 733.611,1439.05 735.569,1439.05 737.527,1439.05 739.484,1439.05 741.442,1439.05 743.4,1439.05 745.358,1439.05 747.316,1439.05 749.274,1439.05 751.232,1439.05 753.189,1439.05 755.147,1439.05 757.105,1439.05 759.063,1439.05 761.021,1439.05 762.979,1439.05 764.937,1439.05 766.894,1445.46 768.852,1445.5 770.81,1445.51 772.768,1445.51 774.726,1445.51 776.684,1445.51 778.641,1445.51 780.599,1445.51 782.557,1445.51 784.515,1445.51 786.473,1445.51 788.431,1445.51 790.389,1445.51 792.346,1445.51 794.304,1445.51 796.262,1445.51 798.22,1445.51 800.178,1445.51 802.136,1445.51 804.094,1445.51 806.051,1440.96 808.009,1440.98 809.967,1440.99 811.925,1441 813.883,1441.01 815.841,1441.01 817.799,1441.02 819.756,1441.02 821.714,1441.02 823.672,1441.02 825.63,1441.03 827.588,1441.03 829.546,1441.03 831.504,1441.03 833.461,1441.03 835.419,1441.03 837.377,1441.03 839.335,1441.03 841.293,1441.03 843.251,1441.03 845.209,1438.92 847.166,1438.93 849.124,1438.94 851.082,1438.94 853.04,1438.94 854.998,1438.94 856.956,1438.94 858.913,1438.94 860.871,1438.94 862.829,1438.94 864.787,1438.94 866.745,1438.94 868.703,1438.94 870.661,1438.94 872.618,1438.94 874.576,1438.94 876.534,1438.94 878.492,1438.94 880.45,1438.94 882.408,1438.94 884.366,1435.86 886.323,1435.88 888.281,1435.89 890.239,1435.91 892.197,1435.92 894.155,1435.93 896.113,1435.94 898.071,1435.95 900.028,1435.96 901.986,1435.97 903.944,1435.98 905.902,1435.98 907.86,1435.99 909.818,1436 911.776,1436 913.733,1436.01 915.691,1436.01 917.649,1436.02 919.607,1436.02 921.565,1436.02 923.523,1439.22 925.481,1439.24 927.438,1439.25 929.396,1439.27 931.354,1439.27 933.312,1439.28 935.27,1439.29 937.228,1439.29 939.185,1439.29 941.143,1439.29 943.101,1439.3 945.059,1439.3 947.017,1439.3 948.975,1439.3 950.933,1439.3 952.89,1439.3 954.848,1439.3 956.806,1439.3 958.764,1439.3 960.722,1439.3 962.68,1436.16 964.638,1436.19 966.595,1436.19 968.553,1436.19 970.511,1436.2 972.469,1436.2 974.427,1436.2 976.385,1436.2 978.343,1436.2 980.3,1436.2 982.258,1436.2 984.216,1436.2 986.174,1436.2 988.132,1436.2 990.09,1436.2 992.048,1436.2 994.005,1436.2 995.963,1436.2 997.921,1436.2 999.879,1436.2 1001.84,1434.82 1003.79,1434.86 1005.75,1434.86 1007.71,1434.87 1009.67,1434.87 1011.63,1434.87 1013.58,1434.87 1015.54,1434.87 1017.5,1434.87 1019.46,1434.87 1021.42,1434.87 1023.37,1434.87 1025.33,1434.87 1027.29,1434.87 1029.25,1434.87 1031.2,1434.87 1033.16,1434.87 1035.12,1434.87 1037.08,1434.87 1039.04,1434.87 1040.99,1438.88 1042.95,1438.9 1044.91,1438.9 1046.87,1438.9 1048.83,1438.91 1050.78,1438.91 1052.74,1438.91 1054.7,1438.91 1056.66,1438.91 1058.61,1438.91 1060.57,1438.91 1062.53,1438.91 1064.49,1438.91 1066.45,1438.91 1068.4,1438.92 1070.36,1438.92 1072.32,1438.92 1074.28,1438.92 1076.24,1438.92 1078.19,1438.92 1080.15,1437.04 1082.11,1437.07 1084.07,1437.07 1086.02,1437.08 1087.98,1437.08 1089.94,1437.08 1091.9,1437.09 1093.86,1437.09 1095.81,1437.09 1097.77,1437.09 1099.73,1437.09 1101.69,1437.09 1103.65,1437.09 1105.6,1437.09 1107.56,1437.09 1109.52,1437.09 1111.48,1437.09 1113.43,1437.09 1115.39,1437.1 1117.35,1437.1 1119.31,1432.06 1121.27,1432.09 1123.22,1432.1 1125.18,1432.11 1127.14,1432.11 1129.1,1432.11 1131.06,1432.11 1133.01,1432.11 1134.97,1432.11 1136.93,1432.11 1138.89,1432.12 1140.84,1432.12 1142.8,1432.12 1144.76,1432.12 1146.72,1432.12 1148.68,1432.12 1150.63,1432.12 1152.59,1432.12 1154.55,1432.12 1156.51,1432.12 1158.47,1434.95 1160.42,1434.97 1162.38,1434.97 1164.34,1434.98 1166.3,1434.98 1168.25,1434.98 1170.21,1434.98 1172.17,1434.99 1174.13,1434.99 1176.09,1434.99 1178.04,1434.99 1180,1434.99 1181.96,1434.99 1183.92,1434.99 1185.88,1435 1187.83,1435 1189.79,1435 1191.75,1435 1193.71,1435 1195.66,1435 1197.62,1436.98 1199.58,1437 1201.54,1437.01 1203.5,1437.02 1205.45,1437.03 1207.41,1437.03 1209.37,1437.03 1211.33,1437.03 1213.29,1437.03 1215.24,1437.04 1217.2,1437.04 1219.16,1437.04 1221.12,1437.04 1223.07,1437.04 1225.03,1437.04 1226.99,1437.04 1228.95,1437.04 1230.91,1437.04 1232.86,1437.04 1234.82,1437.04 1236.78,1439.76 1238.74,1439.78 1240.69,1439.78 1242.65,1439.78 1244.61,1439.78 1246.57,1439.78 1248.53,1439.78 1250.48,1439.78 1252.44,1439.79 1254.4,1439.79 1256.36,1439.79 1258.32,1439.79 1260.27,1439.79 1262.23,1439.79 1264.19,1439.79 1266.15,1439.79 1268.1,1439.79 1270.06,1439.79 1272.02,1439.79 1273.98,1439.79 1275.94,1440.31 1277.89,1440.33 1279.85,1440.34 1281.81,1440.34 1283.77,1440.34 1285.73,1440.35 1287.68,1440.35 1289.64,1440.35 1291.6,1440.35 1293.56,1440.35 1295.51,1440.35 1297.47,1440.35 1299.43,1440.35 1301.39,1440.35 1303.35,1440.35 1305.3,1440.35 1307.26,1440.35 1309.22,1440.35 1311.18,1440.36 1313.14,1440.36 1315.09,1442.69 1317.05,1442.71 1319.01,1442.73 1320.97,1442.73 1322.92,1442.74 1324.88,1442.74 1326.84,1442.75 1328.8,1442.75 1330.76,1442.76 1332.71,1442.76 1334.67,1442.76 1336.63,1442.76 1338.59,1442.76 1340.55,1442.76 1342.5,1442.76 1344.46,1442.77 1346.42,1442.77 1348.38,1442.77 1350.33,1442.77 1352.29,1442.77 1354.25,1445.68 1356.21,1445.69 1358.17,1445.7 1360.12,1445.7 1362.08,1445.7 1364.04,1445.7 1366,1445.71 1367.96,1445.71 1369.91,1445.71 1371.87,1445.71 1373.83,1445.71 1375.79,1445.71 1377.74,1445.71 1379.7,1445.71 1381.66,1445.71 1383.62,1445.71 1385.58,1445.71 1387.53,1445.72 1389.49,1445.72 1391.45,1445.72 1393.41,1441.01 1395.37,1441.04 1397.32,1441.04 1399.28,1441.05 1401.24,1441.05 1403.2,1441.05 1405.15,1441.06 1407.11,1441.06 1409.07,1441.06 1411.03,1441.06 1412.99,1441.07 1414.94,1441.07 1416.9,1441.07 1418.86,1441.07 1420.82,1441.07 1422.78,1441.07 1424.73,1441.08 1426.69,1441.08 1428.65,1441.08 1430.61,1441.08 1432.56,1442.5 1434.52,1442.5 1436.48,1442.5 1438.44,1442.5 1440.4,1442.5 1442.35,1442.5 1444.31,1442.5 1446.27,1442.5 1448.23,1442.5 1450.19,1442.5 1452.14,1442.5 1454.1,1442.5 1456.06,1442.5 1458.02,1442.5 1459.97,1442.5 1461.93,1442.5 1463.89,1442.5 1465.85,1442.5 1467.81,1442.5 1469.76,1442.5 1471.72,1445.15 1473.68,1445.16 1475.64,1445.18 1477.6,1445.18 1479.55,1445.19 1481.51,1445.2 1483.47,1445.2 1485.43,1445.2 1487.38,1445.21 1489.34,1445.21 1491.3,1445.21 1493.26,1445.22 1495.22,1445.22 1497.17,1445.22 1499.13,1445.22 1501.09,1445.22 1503.05,1445.23 1505.01,1445.23 1506.96,1445.23 1508.92,1445.23 1510.88,1442.02 1512.84,1442.03 1514.79,1442.03 1516.75,1442.03 1518.71,1442.03 1520.67,1442.03 1522.63,1442.03 1524.58,1442.04 1526.54,1442.04 1528.5,1442.04 1530.46,1442.04 1532.42,1442.04 1534.37,1442.04 1536.33,1442.04 1538.29,1442.04 1540.25,1442.04 1542.2,1442.04 1544.16,1442.04 1546.12,1442.04 1548.08,1442.04 1550.04,1438.67 1551.99,1438.72 1553.95,1438.72 1555.91,1438.73 1557.87,1438.73 1559.83,1438.73 1561.78,1438.73 1563.74,1438.73 1565.7,1438.73 1567.66,1438.73 1569.61,1438.73 1571.57,1438.73 1573.53,1438.73 1575.49,1438.73 1577.45,1438.73 1579.4,1438.73 1581.36,1438.73 1583.32,1438.73 1585.28,1438.73 1587.24,1438.73 1589.19,1436.62 1591.15,1436.66 1593.11,1436.67 1595.07,1436.67 1597.02,1436.68 1598.98,1436.68 1600.94,1436.68 1602.9,1436.69 1604.86,1436.69 1606.81,1436.69 1608.77,1436.69 1610.73,1436.69 1612.69,1436.7 1614.65,1436.7 1616.6,1436.7 1618.56,1436.7 1620.52,1436.7 1622.48,1436.7 1624.43,1436.7 1626.39,1436.71 1628.35,1436.24 1630.31,1436.26 1632.27,1436.27 1634.22,1436.27 1636.18,1436.28 1638.14,1436.28 1640.1,1436.28 1642.05,1436.28 1644.01,1436.28 1645.97,1436.29 1647.93,1436.29 1649.89,1436.29 1651.84,1436.29 1653.8,1436.29 1655.76,1436.29 1657.72,1436.29 1659.68,1436.29 1661.63,1436.29 1663.59,1436.29 1665.55,1436.29 1667.51,1435.49 1669.46,1435.49 1671.42,1435.49 1673.38,1435.5 1675.34,1435.5 1677.3,1435.5 1679.25,1435.5 1681.21,1435.51 1683.17,1435.51 1685.13,1435.51 1687.09,1435.52 1689.04,1435.52 1691,1435.52 1692.96,1435.52 1694.92,1435.53 1696.87,1435.53 1698.83,1435.53 1700.79,1435.53 1702.75,1435.53 1704.71,1435.54 1706.66,1434.34 1708.62,1434.34 1710.58,1434.34 1712.54,1434.34 1714.5,1434.34 1716.45,1434.34 1718.41,1434.34 1720.37,1434.35 1722.33,1434.35 1724.28,1434.35 1726.24,1434.35 1728.2,1434.35 1730.16,1434.35 1732.12,1434.35 1734.07,1434.35 1736.03,1434.35 1737.99,1434.35 1739.95,1434.35 1741.91,1434.35 1743.86,1434.35 1745.82,1433.49 1747.78,1433.49 1749.74,1433.5 1751.69,1433.5 1753.65,1433.5 1755.61,1433.5 1757.57,1433.5 1759.53,1433.5 1761.48,1433.5 1763.44,1433.5 1765.4,1433.5 1767.36,1433.5 1769.32,1433.5 1771.27,1433.5 1773.23,1433.5 1775.19,1433.5 1777.15,1433.5 1779.1,1433.5 1781.06,1433.5 1783.02,1433.5 1784.98,1433.59 1786.94,1433.6 1788.89,1433.61 1790.85,1433.62 1792.81,1433.62 1794.77,1433.62 1796.73,1433.63 1798.68,1433.63 1800.64,1433.64 1802.6,1433.64 1804.56,1433.64 1806.51,1433.64 1808.47,1433.65 1810.43,1433.65 1812.39,1433.65 1814.35,1433.66 1816.3,1433.66 1818.26,1433.66 1820.22,1433.66 1822.18,1433.66 1824.14,1431.29 1826.09,1431.32 1828.05,1431.33 1830.01,1431.34 1831.97,1431.34 1833.92,1431.34 1835.88,1431.34 1837.84,1431.34 1839.8,1431.35 1841.76,1431.35 1843.71,1431.35 1845.67,1431.35 1847.63,1431.35 1849.59,1431.35 1851.55,1431.35 1853.5,1431.35 1855.46,1431.35 1857.42,1431.35 1859.38,1431.35 1861.33,1431.35 1863.29,1426.85 1865.25,1426.89 1867.21,1426.89 1869.17,1426.9 1871.12,1426.9 1873.08,1426.9 1875.04,1426.91 1877,1426.91 1878.96,1426.91 1880.91,1426.91 1882.87,1426.91 1884.83,1426.92 1886.79,1426.92 1888.74,1426.92 1890.7,1426.92 1892.66,1426.92 1894.62,1426.92 1896.58,1426.92 1898.53,1426.92 1900.49,1426.92 1902.45,1421.26 1904.41,1421.3 1906.37,1421.31 1908.32,1421.31 1910.28,1421.31 1912.24,1421.31 1914.2,1421.32 1916.15,1421.32 1918.11,1421.32 1920.07,1421.32 1922.03,1421.32 1923.99,1421.32 1925.94,1421.32 1927.9,1421.32 1929.86,1421.32 1931.82,1421.32 1933.78,1421.32 1935.73,1421.33 1937.69,1421.33 1939.65,1421.33 1941.61,1418.2 1943.56,1418.22 1945.52,1418.22 1947.48,1418.23 1949.44,1418.23 1951.4,1418.23 1953.35,1418.23 1955.31,1418.24 1957.27,1418.24 1959.23,1418.24 1961.19,1418.24 1963.14,1418.24 1965.1,1418.24 1967.06,1418.24 1969.02,1418.24 1970.97,1418.25 1972.93,1418.25 1974.89,1418.25 1976.85,1418.25 1978.81,1418.25 1980.76,1420.86 1982.72,1420.87 1984.68,1420.87 1986.64,1420.87 1988.6,1420.87 1990.55,1420.87 1992.51,1420.87 1994.47,1420.87 1996.43,1420.87 1998.38,1420.87 2000.34,1420.87 2002.3,1420.87 2004.26,1420.87 2006.22,1420.87 2008.17,1420.88 2010.13,1420.88 2012.09,1420.88 2014.05,1420.88 2016.01,1420.88 2017.96,1420.88 2019.92,1417.5 2021.88,1417.52 2023.84,1417.52 2025.79,1417.53 2027.75,1417.53 2029.71,1417.53 2031.67,1417.53 2033.63,1417.54 2035.58,1417.54 2037.54,1417.54 2039.5,1417.54 2041.46,1417.54 2043.42,1417.54 2045.37,1417.54 2047.33,1417.54 2049.29,1417.54 2051.25,1417.54 2053.2,1417.54 2055.16,1417.54 2057.12,1417.54 2059.08,1417.99 2061.04,1418.07 2062.99,1418.09 2064.95,1418.1 2066.91,1418.1 2068.87,1418.1 2070.82,1418.1 2072.78,1418.1 2074.74,1418.1 2076.7,1418.1 2078.66,1418.1 2080.61,1418.11 2082.57,1418.11 2084.53,1418.11 2086.49,1418.11 2088.45,1418.11 2090.4,1418.11 2092.36,1418.11 2094.32,1418.11 2096.28,1418.11 2098.23,1416.46 2100.19,1416.46 2102.15,1416.46 2104.11,1416.46 2106.07,1416.46 2108.02,1416.46 2109.98,1416.46 2111.94,1416.46 2113.9,1416.47 2115.86,1416.47 2117.81,1416.47 2119.77,1416.47 2121.73,1416.47 2123.69,1416.47 2125.64,1416.47 2127.6,1416.47 2129.56,1416.47 2131.52,1416.47 2133.48,1416.47 2135.43,1416.47 2137.39,1423.8 2139.35,1423.84 2141.31,1423.85 2143.27,1423.86 2145.22,1423.87 2147.18,1423.88 2149.14,1423.88 2151.1,1423.89 2153.05,1423.89 2155.01,1423.89 2156.97,1423.9 2158.93,1423.9 2160.89,1423.9 2162.84,1423.9 2164.8,1423.9 2166.76,1423.91 2168.72,1423.91 2170.68,1423.91 2172.63,1423.91 2174.59,1423.91 2176.55,1423.16 2178.51,1423.18 2180.46,1423.19 2182.42,1423.19 2184.38,1423.2 2186.34,1423.2 2188.3,1423.2 2190.25,1423.2 2192.21,1423.2 2194.17,1423.2 2196.13,1423.21 2198.09,1423.21 2200.04,1423.21 2202,1423.21 2203.96,1423.21 2205.92,1423.21 2207.87,1423.21 2209.83,1423.21 2211.79,1423.21 2213.75,1423.21 2215.71,1423.14 2217.66,1423.14 2219.62,1423.14 2221.58,1423.14 2223.54,1423.14 2225.5,1423.14 2227.45,1423.14 2229.41,1423.14 2231.37,1423.14 2233.33,1423.14 2235.28,1423.14 2237.24,1423.14 2239.2,1423.14 2241.16,1423.14 2243.12,1423.14 2245.07,1423.14 2247.03,1423.14 2248.99,1423.14 2250.95,1423.14 2252.91,1423.15 2254.86,1423.97 2256.82,1423.99 2258.78,1424.01 2260.74,1424.02 2262.69,1424.03 2264.65,1424.04 2266.61,1424.04 2268.57,1424.05 2270.53,1424.06 2272.48,1424.06 2274.44,1424.07 2276.4,1424.07 2278.36,1424.07 2280.32,1424.08 2282.27,1424.08 2284.23,1424.08 2286.19,1424.08 2288.15,1424.09 2290.1,1424.09 2292.06,1424.09 2294.02,1424.09 "/>
<path clip-path="url(#clip620)" d="M2023.62 198.898 L2283.58 198.898 L2283.58 95.2176 L2023.62 95.2176  Z" fill="#ffffff" fill-rule="evenodd" fill-opacity="1"/>
<polyline clip-path="url(#clip620)" style="stroke:#000000; stroke-linecap:round; stroke-linejoin:round; stroke-width:4; stroke-opacity:1; fill:none" points="2023.62,198.898 2283.58,198.898 2283.58,95.2176 2023.62,95.2176 2023.62,198.898 "/>
<polyline clip-path="url(#clip620)" style="stroke:#009af9; stroke-linecap:round; stroke-linejoin:round; stroke-width:4; stroke-opacity:1; fill:none" points="2046.67,147.058 2185.03,147.058 "/>
<path clip-path="url(#clip620)" d="M2221.93 166.745 Q2220.13 171.375 2218.41 172.787 Q2216.7 174.199 2213.83 174.199 L2210.43 174.199 L2210.43 170.634 L2212.93 170.634 Q2214.69 170.634 2215.66 169.8 Q2216.63 168.967 2217.81 165.865 L2218.58 163.921 L2208.09 138.412 L2212.6 138.412 L2220.7 158.689 L2228.81 138.412 L2233.32 138.412 L2221.93 166.745 Z" fill="#000000" fill-rule="nonzero" fill-opacity="1" /><path clip-path="url(#clip620)" d="M2240.61 160.402 L2248.25 160.402 L2248.25 134.037 L2239.94 135.703 L2239.94 131.444 L2248.2 129.778 L2252.88 129.778 L2252.88 160.402 L2260.52 160.402 L2260.52 164.338 L2240.61 164.338 L2240.61 160.402 Z" fill="#000000" fill-rule="nonzero" fill-opacity="1" /></svg>
