<?xml version="1.0" encoding="utf-8"?>
<svg xmlns="http://www.w3.org/2000/svg" xmlns:xlink="http://www.w3.org/1999/xlink" width="600" height="400" viewBox="0 0 2400 1600">
<defs>
  <clipPath id="clip740">
    <rect x="0" y="0" width="2400" height="1600"/>
  </clipPath>
</defs>
<path clip-path="url(#clip740)" d="M0 1600 L2400 1600 L2400 0 L0 0  Z" fill="#ffffff" fill-rule="evenodd" fill-opacity="1"/>
<defs>
  <clipPath id="clip741">
    <rect x="480" y="0" width="1681" height="1600"/>
  </clipPath>
</defs>
<path clip-path="url(#clip740)" d="M231.042 1486.45 L2352.76 1486.45 L2352.76 47.2441 L231.042 47.2441  Z" fill="#ffffff" fill-rule="evenodd" fill-opacity="1"/>
<defs>
  <clipPath id="clip742">
    <rect x="231" y="47" width="2123" height="1440"/>
  </clipPath>
</defs>
<polyline clip-path="url(#clip742)" style="stroke:#000000; stroke-linecap:round; stroke-linejoin:round; stroke-width:2; stroke-opacity:0.1; fill:none" points="291.091,1486.45 291.091,47.2441 "/>
<polyline clip-path="url(#clip742)" style="stroke:#000000; stroke-linecap:round; stroke-linejoin:round; stroke-width:2; stroke-opacity:0.1; fill:none" points="791.495,1486.45 791.495,47.2441 "/>
<polyline clip-path="url(#clip742)" style="stroke:#000000; stroke-linecap:round; stroke-linejoin:round; stroke-width:2; stroke-opacity:0.1; fill:none" points="1291.9,1486.45 1291.9,47.2441 "/>
<polyline clip-path="url(#clip742)" style="stroke:#000000; stroke-linecap:round; stroke-linejoin:round; stroke-width:2; stroke-opacity:0.1; fill:none" points="1792.3,1486.45 1792.3,47.2441 "/>
<polyline clip-path="url(#clip742)" style="stroke:#000000; stroke-linecap:round; stroke-linejoin:round; stroke-width:2; stroke-opacity:0.1; fill:none" points="2292.71,1486.45 2292.71,47.2441 "/>
<polyline clip-path="url(#clip740)" style="stroke:#000000; stroke-linecap:round; stroke-linejoin:round; stroke-width:4; stroke-opacity:1; fill:none" points="231.042,1486.45 2352.76,1486.45 "/>
<polyline clip-path="url(#clip740)" style="stroke:#000000; stroke-linecap:round; stroke-linejoin:round; stroke-width:4; stroke-opacity:1; fill:none" points="291.091,1486.45 291.091,1467.55 "/>
<polyline clip-path="url(#clip740)" style="stroke:#000000; stroke-linecap:round; stroke-linejoin:round; stroke-width:4; stroke-opacity:1; fill:none" points="791.495,1486.45 791.495,1467.55 "/>
<polyline clip-path="url(#clip740)" style="stroke:#000000; stroke-linecap:round; stroke-linejoin:round; stroke-width:4; stroke-opacity:1; fill:none" points="1291.9,1486.45 1291.9,1467.55 "/>
<polyline clip-path="url(#clip740)" style="stroke:#000000; stroke-linecap:round; stroke-linejoin:round; stroke-width:4; stroke-opacity:1; fill:none" points="1792.3,1486.45 1792.3,1467.55 "/>
<polyline clip-path="url(#clip740)" style="stroke:#000000; stroke-linecap:round; stroke-linejoin:round; stroke-width:4; stroke-opacity:1; fill:none" points="2292.71,1486.45 2292.71,1467.55 "/>
<path clip-path="url(#clip740)" d="M291.091 1517.37 Q287.48 1517.37 285.651 1520.93 Q283.845 1524.47 283.845 1531.6 Q283.845 1538.71 285.651 1542.27 Q287.48 1545.82 291.091 1545.82 Q294.725 1545.82 296.531 1542.27 Q298.359 1538.71 298.359 1531.6 Q298.359 1524.47 296.531 1520.93 Q294.725 1517.37 291.091 1517.37 M291.091 1513.66 Q296.901 1513.66 299.956 1518.27 Q303.035 1522.85 303.035 1531.6 Q303.035 1540.33 299.956 1544.94 Q296.901 1549.52 291.091 1549.52 Q285.281 1549.52 282.202 1544.94 Q279.146 1540.33 279.146 1531.6 Q279.146 1522.85 282.202 1518.27 Q285.281 1513.66 291.091 1513.66 Z" fill="#000000" fill-rule="nonzero" fill-opacity="1" /><path clip-path="url(#clip740)" d="M755.187 1544.91 L771.507 1544.91 L771.507 1548.85 L749.562 1548.85 L749.562 1544.91 Q752.224 1542.16 756.808 1537.53 Q761.414 1532.88 762.595 1531.53 Q764.84 1529.01 765.72 1527.27 Q766.622 1525.51 766.622 1523.82 Q766.622 1521.07 764.678 1519.33 Q762.757 1517.6 759.655 1517.6 Q757.456 1517.6 755.002 1518.36 Q752.572 1519.13 749.794 1520.68 L749.794 1515.95 Q752.618 1514.82 755.072 1514.24 Q757.525 1513.66 759.562 1513.66 Q764.933 1513.66 768.127 1516.35 Q771.321 1519.03 771.321 1523.52 Q771.321 1525.65 770.511 1527.57 Q769.724 1529.47 767.618 1532.07 Q767.039 1532.74 763.937 1535.95 Q760.835 1539.15 755.187 1544.91 Z" fill="#000000" fill-rule="nonzero" fill-opacity="1" /><path clip-path="url(#clip740)" d="M781.368 1514.29 L799.724 1514.29 L799.724 1518.22 L785.65 1518.22 L785.65 1526.7 Q786.669 1526.35 787.687 1526.19 Q788.706 1526 789.724 1526 Q795.511 1526 798.891 1529.17 Q802.27 1532.34 802.27 1537.76 Q802.27 1543.34 798.798 1546.44 Q795.326 1549.52 789.007 1549.52 Q786.831 1549.52 784.562 1549.15 Q782.317 1548.78 779.909 1548.04 L779.909 1543.34 Q781.993 1544.47 784.215 1545.03 Q786.437 1545.58 788.914 1545.58 Q792.919 1545.58 795.256 1543.48 Q797.594 1541.37 797.594 1537.76 Q797.594 1534.15 795.256 1532.04 Q792.919 1529.94 788.914 1529.94 Q787.039 1529.94 785.164 1530.35 Q783.312 1530.77 781.368 1531.65 L781.368 1514.29 Z" fill="#000000" fill-rule="nonzero" fill-opacity="1" /><path clip-path="url(#clip740)" d="M821.483 1517.37 Q817.872 1517.37 816.043 1520.93 Q814.238 1524.47 814.238 1531.6 Q814.238 1538.71 816.043 1542.27 Q817.872 1545.82 821.483 1545.82 Q825.117 1545.82 826.923 1542.27 Q828.752 1538.71 828.752 1531.6 Q828.752 1524.47 826.923 1520.93 Q825.117 1517.37 821.483 1517.37 M821.483 1513.66 Q827.293 1513.66 830.349 1518.27 Q833.428 1522.85 833.428 1531.6 Q833.428 1540.33 830.349 1544.94 Q827.293 1549.52 821.483 1549.52 Q815.673 1549.52 812.594 1544.94 Q809.539 1540.33 809.539 1531.6 Q809.539 1522.85 812.594 1518.27 Q815.673 1513.66 821.483 1513.66 Z" fill="#000000" fill-rule="nonzero" fill-opacity="1" /><path clip-path="url(#clip740)" d="M1251.52 1514.29 L1269.87 1514.29 L1269.87 1518.22 L1255.8 1518.22 L1255.8 1526.7 Q1256.82 1526.35 1257.84 1526.19 Q1258.86 1526 1259.87 1526 Q1265.66 1526 1269.04 1529.17 Q1272.42 1532.34 1272.42 1537.76 Q1272.42 1543.34 1268.95 1546.44 Q1265.48 1549.52 1259.16 1549.52 Q1256.98 1549.52 1254.71 1549.15 Q1252.47 1548.78 1250.06 1548.04 L1250.06 1543.34 Q1252.14 1544.47 1254.36 1545.03 Q1256.59 1545.58 1259.06 1545.58 Q1263.07 1545.58 1265.41 1543.48 Q1267.74 1541.37 1267.74 1537.76 Q1267.74 1534.15 1265.41 1532.04 Q1263.07 1529.94 1259.06 1529.94 Q1257.19 1529.94 1255.31 1530.35 Q1253.46 1530.77 1251.52 1531.65 L1251.52 1514.29 Z" fill="#000000" fill-rule="nonzero" fill-opacity="1" /><path clip-path="url(#clip740)" d="M1291.63 1517.37 Q1288.02 1517.37 1286.19 1520.93 Q1284.39 1524.47 1284.39 1531.6 Q1284.39 1538.71 1286.19 1542.27 Q1288.02 1545.82 1291.63 1545.82 Q1295.27 1545.82 1297.07 1542.27 Q1298.9 1538.71 1298.9 1531.6 Q1298.9 1524.47 1297.07 1520.93 Q1295.27 1517.37 1291.63 1517.37 M1291.63 1513.66 Q1297.44 1513.66 1300.5 1518.27 Q1303.58 1522.85 1303.58 1531.6 Q1303.58 1540.33 1300.5 1544.94 Q1297.44 1549.52 1291.63 1549.52 Q1285.82 1549.52 1282.74 1544.94 Q1279.69 1540.33 1279.69 1531.6 Q1279.69 1522.85 1282.74 1518.27 Q1285.82 1513.66 1291.63 1513.66 Z" fill="#000000" fill-rule="nonzero" fill-opacity="1" /><path clip-path="url(#clip740)" d="M1321.79 1517.37 Q1318.18 1517.37 1316.35 1520.93 Q1314.55 1524.47 1314.55 1531.6 Q1314.55 1538.71 1316.35 1542.27 Q1318.18 1545.82 1321.79 1545.82 Q1325.43 1545.82 1327.23 1542.27 Q1329.06 1538.71 1329.06 1531.6 Q1329.06 1524.47 1327.23 1520.93 Q1325.43 1517.37 1321.79 1517.37 M1321.79 1513.66 Q1327.6 1513.66 1330.66 1518.27 Q1333.74 1522.85 1333.74 1531.6 Q1333.74 1540.33 1330.66 1544.94 Q1327.6 1549.52 1321.79 1549.52 Q1315.98 1549.52 1312.91 1544.94 Q1309.85 1540.33 1309.85 1531.6 Q1309.85 1522.85 1312.91 1518.27 Q1315.98 1513.66 1321.79 1513.66 Z" fill="#000000" fill-rule="nonzero" fill-opacity="1" /><path clip-path="url(#clip740)" d="M1750.58 1514.29 L1772.8 1514.29 L1772.8 1516.28 L1760.25 1548.85 L1755.37 1548.85 L1767.18 1518.22 L1750.58 1518.22 L1750.58 1514.29 Z" fill="#000000" fill-rule="nonzero" fill-opacity="1" /><path clip-path="url(#clip740)" d="M1781.97 1514.29 L1800.32 1514.29 L1800.32 1518.22 L1786.25 1518.22 L1786.25 1526.7 Q1787.27 1526.35 1788.29 1526.19 Q1789.31 1526 1790.32 1526 Q1796.11 1526 1799.49 1529.17 Q1802.87 1532.34 1802.87 1537.76 Q1802.87 1543.34 1799.4 1546.44 Q1795.93 1549.52 1789.61 1549.52 Q1787.43 1549.52 1785.16 1549.15 Q1782.92 1548.78 1780.51 1548.04 L1780.51 1543.34 Q1782.59 1544.47 1784.81 1545.03 Q1787.04 1545.58 1789.51 1545.58 Q1793.52 1545.58 1795.86 1543.48 Q1798.19 1541.37 1798.19 1537.76 Q1798.19 1534.15 1795.86 1532.04 Q1793.52 1529.94 1789.51 1529.94 Q1787.64 1529.94 1785.76 1530.35 Q1783.91 1530.77 1781.97 1531.65 L1781.97 1514.29 Z" fill="#000000" fill-rule="nonzero" fill-opacity="1" /><path clip-path="url(#clip740)" d="M1822.08 1517.37 Q1818.47 1517.37 1816.64 1520.93 Q1814.84 1524.47 1814.84 1531.6 Q1814.84 1538.71 1816.64 1542.27 Q1818.47 1545.82 1822.08 1545.82 Q1825.72 1545.82 1827.52 1542.27 Q1829.35 1538.71 1829.35 1531.6 Q1829.35 1524.47 1827.52 1520.93 Q1825.72 1517.37 1822.08 1517.37 M1822.08 1513.66 Q1827.89 1513.66 1830.95 1518.27 Q1834.03 1522.85 1834.03 1531.6 Q1834.03 1540.33 1830.95 1544.94 Q1827.89 1549.52 1822.08 1549.52 Q1816.27 1549.52 1813.19 1544.94 Q1810.14 1540.33 1810.14 1531.6 Q1810.14 1522.85 1813.19 1518.27 Q1816.27 1513.66 1822.08 1513.66 Z" fill="#000000" fill-rule="nonzero" fill-opacity="1" /><path clip-path="url(#clip740)" d="M2237.23 1544.91 L2244.87 1544.91 L2244.87 1518.55 L2236.56 1520.21 L2236.56 1515.95 L2244.83 1514.29 L2249.5 1514.29 L2249.5 1544.91 L2257.14 1544.91 L2257.14 1548.85 L2237.23 1548.85 L2237.23 1544.91 Z" fill="#000000" fill-rule="nonzero" fill-opacity="1" /><path clip-path="url(#clip740)" d="M2276.58 1517.37 Q2272.97 1517.37 2271.15 1520.93 Q2269.34 1524.47 2269.34 1531.6 Q2269.34 1538.71 2271.15 1542.27 Q2272.97 1545.82 2276.58 1545.82 Q2280.22 1545.82 2282.02 1542.27 Q2283.85 1538.71 2283.85 1531.6 Q2283.85 1524.47 2282.02 1520.93 Q2280.22 1517.37 2276.58 1517.37 M2276.58 1513.66 Q2282.39 1513.66 2285.45 1518.27 Q2288.53 1522.85 2288.53 1531.6 Q2288.53 1540.33 2285.45 1544.94 Q2282.39 1549.52 2276.58 1549.52 Q2270.77 1549.52 2267.7 1544.94 Q2264.64 1540.33 2264.64 1531.6 Q2264.64 1522.85 2267.7 1518.27 Q2270.77 1513.66 2276.58 1513.66 Z" fill="#000000" fill-rule="nonzero" fill-opacity="1" /><path clip-path="url(#clip740)" d="M2306.75 1517.37 Q2303.14 1517.37 2301.31 1520.93 Q2299.5 1524.47 2299.5 1531.6 Q2299.5 1538.71 2301.31 1542.27 Q2303.14 1545.82 2306.75 1545.82 Q2310.38 1545.82 2312.19 1542.27 Q2314.02 1538.71 2314.02 1531.6 Q2314.02 1524.47 2312.19 1520.93 Q2310.38 1517.37 2306.75 1517.37 M2306.75 1513.66 Q2312.56 1513.66 2315.61 1518.27 Q2318.69 1522.85 2318.69 1531.6 Q2318.69 1540.33 2315.61 1544.94 Q2312.56 1549.52 2306.75 1549.52 Q2300.94 1549.52 2297.86 1544.94 Q2294.8 1540.33 2294.8 1531.6 Q2294.8 1522.85 2297.86 1518.27 Q2300.94 1513.66 2306.75 1513.66 Z" fill="#000000" fill-rule="nonzero" fill-opacity="1" /><path clip-path="url(#clip740)" d="M2336.91 1517.37 Q2333.3 1517.37 2331.47 1520.93 Q2329.66 1524.47 2329.66 1531.6 Q2329.66 1538.71 2331.47 1542.27 Q2333.3 1545.82 2336.91 1545.82 Q2340.54 1545.82 2342.35 1542.27 Q2344.18 1538.71 2344.18 1531.6 Q2344.18 1524.47 2342.35 1520.93 Q2340.54 1517.37 2336.91 1517.37 M2336.91 1513.66 Q2342.72 1513.66 2345.77 1518.27 Q2348.85 1522.85 2348.85 1531.6 Q2348.85 1540.33 2345.77 1544.94 Q2342.72 1549.52 2336.91 1549.52 Q2331.1 1549.52 2328.02 1544.94 Q2324.96 1540.33 2324.96 1531.6 Q2324.96 1522.85 2328.02 1518.27 Q2331.1 1513.66 2336.91 1513.66 Z" fill="#000000" fill-rule="nonzero" fill-opacity="1" /><polyline clip-path="url(#clip742)" style="stroke:#000000; stroke-linecap:round; stroke-linejoin:round; stroke-width:2; stroke-opacity:0.1; fill:none" points="231.042,1437.03 2352.76,1437.03 "/>
<polyline clip-path="url(#clip742)" style="stroke:#000000; stroke-linecap:round; stroke-linejoin:round; stroke-width:2; stroke-opacity:0.1; fill:none" points="231.042,1155.01 2352.76,1155.01 "/>
<polyline clip-path="url(#clip742)" style="stroke:#000000; stroke-linecap:round; stroke-linejoin:round; stroke-width:2; stroke-opacity:0.1; fill:none" points="231.042,872.987 2352.76,872.987 "/>
<polyline clip-path="url(#clip742)" style="stroke:#000000; stroke-linecap:round; stroke-linejoin:round; stroke-width:2; stroke-opacity:0.1; fill:none" points="231.042,590.965 2352.76,590.965 "/>
<polyline clip-path="url(#clip742)" style="stroke:#000000; stroke-linecap:round; stroke-linejoin:round; stroke-width:2; stroke-opacity:0.1; fill:none" points="231.042,308.944 2352.76,308.944 "/>
<polyline clip-path="url(#clip740)" style="stroke:#000000; stroke-linecap:round; stroke-linejoin:round; stroke-width:4; stroke-opacity:1; fill:none" points="231.042,1486.45 231.042,47.2441 "/>
<polyline clip-path="url(#clip740)" style="stroke:#000000; stroke-linecap:round; stroke-linejoin:round; stroke-width:4; stroke-opacity:1; fill:none" points="231.042,1437.03 249.94,1437.03 "/>
<polyline clip-path="url(#clip740)" style="stroke:#000000; stroke-linecap:round; stroke-linejoin:round; stroke-width:4; stroke-opacity:1; fill:none" points="231.042,1155.01 249.94,1155.01 "/>
<polyline clip-path="url(#clip740)" style="stroke:#000000; stroke-linecap:round; stroke-linejoin:round; stroke-width:4; stroke-opacity:1; fill:none" points="231.042,872.987 249.94,872.987 "/>
<polyline clip-path="url(#clip740)" style="stroke:#000000; stroke-linecap:round; stroke-linejoin:round; stroke-width:4; stroke-opacity:1; fill:none" points="231.042,590.965 249.94,590.965 "/>
<polyline clip-path="url(#clip740)" style="stroke:#000000; stroke-linecap:round; stroke-linejoin:round; stroke-width:4; stroke-opacity:1; fill:none" points="231.042,308.944 249.94,308.944 "/>
<path clip-path="url(#clip740)" d="M66.617 1435.68 Q69.9735 1436.39 71.8485 1438.66 Q73.7466 1440.93 73.7466 1444.26 Q73.7466 1449.38 70.2281 1452.18 Q66.7096 1454.98 60.2282 1454.98 Q58.0523 1454.98 55.7375 1454.54 Q53.4458 1454.13 50.9921 1453.27 L50.9921 1448.76 Q52.9366 1449.89 55.2514 1450.47 Q57.5662 1451.05 60.0893 1451.05 Q64.4874 1451.05 66.7791 1449.31 Q69.0939 1447.57 69.0939 1444.26 Q69.0939 1441.21 66.9411 1439.5 Q64.8115 1437.76 60.9921 1437.76 L56.9643 1437.76 L56.9643 1433.92 L61.1773 1433.92 Q64.6263 1433.92 66.455 1432.55 Q68.2837 1431.16 68.2837 1428.57 Q68.2837 1425.91 66.3856 1424.5 Q64.5106 1423.06 60.9921 1423.06 Q59.0708 1423.06 56.8717 1423.48 Q54.6727 1423.89 52.0338 1424.77 L52.0338 1420.61 Q54.6958 1419.87 57.0106 1419.5 Q59.3486 1419.13 61.4087 1419.13 Q66.7328 1419.13 69.8346 1421.56 Q72.9365 1423.96 72.9365 1428.08 Q72.9365 1430.95 71.2929 1432.95 Q69.6494 1434.91 66.617 1435.68 Z" fill="#000000" fill-rule="nonzero" fill-opacity="1" /><path clip-path="url(#clip740)" d="M92.6123 1422.83 Q89.0012 1422.83 87.1725 1426.39 Q85.3669 1429.94 85.3669 1437.07 Q85.3669 1444.17 87.1725 1447.74 Q89.0012 1451.28 92.6123 1451.28 Q96.2465 1451.28 98.0521 1447.74 Q99.8808 1444.17 99.8808 1437.07 Q99.8808 1429.94 98.0521 1426.39 Q96.2465 1422.83 92.6123 1422.83 M92.6123 1419.13 Q98.4224 1419.13 101.478 1423.73 Q104.557 1428.32 104.557 1437.07 Q104.557 1445.79 101.478 1450.4 Q98.4224 1454.98 92.6123 1454.98 Q86.8021 1454.98 83.7234 1450.4 Q80.6679 1445.79 80.6679 1437.07 Q80.6679 1428.32 83.7234 1423.73 Q86.8021 1419.13 92.6123 1419.13 Z" fill="#000000" fill-rule="nonzero" fill-opacity="1" /><path clip-path="url(#clip740)" d="M122.774 1422.83 Q119.163 1422.83 117.334 1426.39 Q115.529 1429.94 115.529 1437.07 Q115.529 1444.17 117.334 1447.74 Q119.163 1451.28 122.774 1451.28 Q126.408 1451.28 128.214 1447.74 Q130.043 1444.17 130.043 1437.07 Q130.043 1429.94 128.214 1426.39 Q126.408 1422.83 122.774 1422.83 M122.774 1419.13 Q128.584 1419.13 131.64 1423.73 Q134.719 1428.32 134.719 1437.07 Q134.719 1445.79 131.64 1450.4 Q128.584 1454.98 122.774 1454.98 Q116.964 1454.98 113.885 1450.4 Q110.83 1445.79 110.83 1437.07 Q110.83 1428.32 113.885 1423.73 Q116.964 1419.13 122.774 1419.13 Z" fill="#000000" fill-rule="nonzero" fill-opacity="1" /><path clip-path="url(#clip740)" d="M152.936 1422.83 Q149.325 1422.83 147.496 1426.39 Q145.691 1429.94 145.691 1437.07 Q145.691 1444.17 147.496 1447.74 Q149.325 1451.28 152.936 1451.28 Q156.57 1451.28 158.376 1447.74 Q160.205 1444.17 160.205 1437.07 Q160.205 1429.94 158.376 1426.39 Q156.57 1422.83 152.936 1422.83 M152.936 1419.13 Q158.746 1419.13 161.802 1423.73 Q164.88 1428.32 164.88 1437.07 Q164.88 1445.79 161.802 1450.4 Q158.746 1454.98 152.936 1454.98 Q147.126 1454.98 144.047 1450.4 Q140.992 1445.79 140.992 1437.07 Q140.992 1428.32 144.047 1423.73 Q147.126 1419.13 152.936 1419.13 Z" fill="#000000" fill-rule="nonzero" fill-opacity="1" /><path clip-path="url(#clip740)" d="M183.098 1422.83 Q179.487 1422.83 177.658 1426.39 Q175.853 1429.94 175.853 1437.07 Q175.853 1444.17 177.658 1447.74 Q179.487 1451.28 183.098 1451.28 Q186.732 1451.28 188.538 1447.74 Q190.366 1444.17 190.366 1437.07 Q190.366 1429.94 188.538 1426.39 Q186.732 1422.83 183.098 1422.83 M183.098 1419.13 Q188.908 1419.13 191.964 1423.73 Q195.042 1428.32 195.042 1437.07 Q195.042 1445.79 191.964 1450.4 Q188.908 1454.98 183.098 1454.98 Q177.288 1454.98 174.209 1450.4 Q171.154 1445.79 171.154 1437.07 Q171.154 1428.32 174.209 1423.73 Q177.288 1419.13 183.098 1419.13 Z" fill="#000000" fill-rule="nonzero" fill-opacity="1" /><path clip-path="url(#clip740)" d="M66.617 1153.65 Q69.9735 1154.37 71.8485 1156.64 Q73.7466 1158.91 73.7466 1162.24 Q73.7466 1167.36 70.2281 1170.16 Q66.7096 1172.96 60.2282 1172.96 Q58.0523 1172.96 55.7375 1172.52 Q53.4458 1172.1 50.9921 1171.25 L50.9921 1166.73 Q52.9366 1167.87 55.2514 1168.45 Q57.5662 1169.03 60.0893 1169.03 Q64.4874 1169.03 66.7791 1167.29 Q69.0939 1165.55 69.0939 1162.24 Q69.0939 1159.19 66.9411 1157.47 Q64.8115 1155.74 60.9921 1155.74 L56.9643 1155.74 L56.9643 1151.9 L61.1773 1151.9 Q64.6263 1151.9 66.455 1150.53 Q68.2837 1149.14 68.2837 1146.55 Q68.2837 1143.89 66.3856 1142.47 Q64.5106 1141.04 60.9921 1141.04 Q59.0708 1141.04 56.8717 1141.46 Q54.6727 1141.87 52.0338 1142.75 L52.0338 1138.59 Q54.6958 1137.84 57.0106 1137.47 Q59.3486 1137.1 61.4087 1137.1 Q66.7328 1137.1 69.8346 1139.53 Q72.9365 1141.94 72.9365 1146.06 Q72.9365 1148.93 71.2929 1150.92 Q69.6494 1152.89 66.617 1153.65 Z" fill="#000000" fill-rule="nonzero" fill-opacity="1" /><path clip-path="url(#clip740)" d="M83.4225 1168.35 L91.0614 1168.35 L91.0614 1141.99 L82.7512 1143.66 L82.7512 1139.4 L91.0151 1137.73 L95.691 1137.73 L95.691 1168.35 L103.33 1168.35 L103.33 1172.29 L83.4225 1172.29 L83.4225 1168.35 Z" fill="#000000" fill-rule="nonzero" fill-opacity="1" /><path clip-path="url(#clip740)" d="M122.774 1140.81 Q119.163 1140.81 117.334 1144.37 Q115.529 1147.91 115.529 1155.04 Q115.529 1162.15 117.334 1165.72 Q119.163 1169.26 122.774 1169.26 Q126.408 1169.26 128.214 1165.72 Q130.043 1162.15 130.043 1155.04 Q130.043 1147.91 128.214 1144.37 Q126.408 1140.81 122.774 1140.81 M122.774 1137.1 Q128.584 1137.1 131.64 1141.71 Q134.719 1146.29 134.719 1155.04 Q134.719 1163.77 131.64 1168.38 Q128.584 1172.96 122.774 1172.96 Q116.964 1172.96 113.885 1168.38 Q110.83 1163.77 110.83 1155.04 Q110.83 1146.29 113.885 1141.71 Q116.964 1137.1 122.774 1137.1 Z" fill="#000000" fill-rule="nonzero" fill-opacity="1" /><path clip-path="url(#clip740)" d="M152.936 1140.81 Q149.325 1140.81 147.496 1144.37 Q145.691 1147.91 145.691 1155.04 Q145.691 1162.15 147.496 1165.72 Q149.325 1169.26 152.936 1169.26 Q156.57 1169.26 158.376 1165.72 Q160.205 1162.15 160.205 1155.04 Q160.205 1147.91 158.376 1144.37 Q156.57 1140.81 152.936 1140.81 M152.936 1137.1 Q158.746 1137.1 161.802 1141.71 Q164.88 1146.29 164.88 1155.04 Q164.88 1163.77 161.802 1168.38 Q158.746 1172.96 152.936 1172.96 Q147.126 1172.96 144.047 1168.38 Q140.992 1163.77 140.992 1155.04 Q140.992 1146.29 144.047 1141.71 Q147.126 1137.1 152.936 1137.1 Z" fill="#000000" fill-rule="nonzero" fill-opacity="1" /><path clip-path="url(#clip740)" d="M183.098 1140.81 Q179.487 1140.81 177.658 1144.37 Q175.853 1147.91 175.853 1155.04 Q175.853 1162.15 177.658 1165.72 Q179.487 1169.26 183.098 1169.26 Q186.732 1169.26 188.538 1165.72 Q190.366 1162.15 190.366 1155.04 Q190.366 1147.91 188.538 1144.37 Q186.732 1140.81 183.098 1140.81 M183.098 1137.1 Q188.908 1137.1 191.964 1141.71 Q195.042 1146.29 195.042 1155.04 Q195.042 1163.77 191.964 1168.38 Q188.908 1172.96 183.098 1172.96 Q177.288 1172.96 174.209 1168.38 Q171.154 1163.77 171.154 1155.04 Q171.154 1146.29 174.209 1141.71 Q177.288 1137.1 183.098 1137.1 Z" fill="#000000" fill-rule="nonzero" fill-opacity="1" /><path clip-path="url(#clip740)" d="M66.617 871.633 Q69.9735 872.351 71.8485 874.619 Q73.7466 876.888 73.7466 880.221 Q73.7466 885.337 70.2281 888.138 Q66.7096 890.939 60.2282 890.939 Q58.0523 890.939 55.7375 890.499 Q53.4458 890.082 50.9921 889.226 L50.9921 884.712 Q52.9366 885.846 55.2514 886.425 Q57.5662 887.003 60.0893 887.003 Q64.4874 887.003 66.7791 885.267 Q69.0939 883.531 69.0939 880.221 Q69.0939 877.166 66.9411 875.453 Q64.8115 873.716 60.9921 873.716 L56.9643 873.716 L56.9643 869.874 L61.1773 869.874 Q64.6263 869.874 66.455 868.508 Q68.2837 867.119 68.2837 864.527 Q68.2837 861.865 66.3856 860.453 Q64.5106 859.017 60.9921 859.017 Q59.0708 859.017 56.8717 859.434 Q54.6727 859.851 52.0338 860.73 L52.0338 856.564 Q54.6958 855.823 57.0106 855.453 Q59.3486 855.082 61.4087 855.082 Q66.7328 855.082 69.8346 857.513 Q72.9365 859.92 72.9365 864.041 Q72.9365 866.911 71.2929 868.902 Q69.6494 870.869 66.617 871.633 Z" fill="#000000" fill-rule="nonzero" fill-opacity="1" /><path clip-path="url(#clip740)" d="M86.6401 886.332 L102.959 886.332 L102.959 890.267 L81.0151 890.267 L81.0151 886.332 Q83.6771 883.578 88.2604 878.948 Q92.8669 874.295 94.0475 872.953 Q96.2928 870.429 97.1724 868.693 Q98.0752 866.934 98.0752 865.244 Q98.0752 862.49 96.1308 860.754 Q94.2095 859.017 91.1077 859.017 Q88.9086 859.017 86.4549 859.781 Q84.0244 860.545 81.2466 862.096 L81.2466 857.374 Q84.0707 856.24 86.5243 855.661 Q88.978 855.082 91.0151 855.082 Q96.3854 855.082 99.5798 857.767 Q102.774 860.453 102.774 864.943 Q102.774 867.073 101.964 868.994 Q101.177 870.892 99.0706 873.485 Q98.4919 874.156 95.39 877.374 Q92.2882 880.568 86.6401 886.332 Z" fill="#000000" fill-rule="nonzero" fill-opacity="1" /><path clip-path="url(#clip740)" d="M122.774 858.786 Q119.163 858.786 117.334 862.351 Q115.529 865.892 115.529 873.022 Q115.529 880.128 117.334 883.693 Q119.163 887.235 122.774 887.235 Q126.408 887.235 128.214 883.693 Q130.043 880.128 130.043 873.022 Q130.043 865.892 128.214 862.351 Q126.408 858.786 122.774 858.786 M122.774 855.082 Q128.584 855.082 131.64 859.689 Q134.719 864.272 134.719 873.022 Q134.719 881.749 131.64 886.355 Q128.584 890.939 122.774 890.939 Q116.964 890.939 113.885 886.355 Q110.83 881.749 110.83 873.022 Q110.83 864.272 113.885 859.689 Q116.964 855.082 122.774 855.082 Z" fill="#000000" fill-rule="nonzero" fill-opacity="1" /><path clip-path="url(#clip740)" d="M152.936 858.786 Q149.325 858.786 147.496 862.351 Q145.691 865.892 145.691 873.022 Q145.691 880.128 147.496 883.693 Q149.325 887.235 152.936 887.235 Q156.57 887.235 158.376 883.693 Q160.205 880.128 160.205 873.022 Q160.205 865.892 158.376 862.351 Q156.57 858.786 152.936 858.786 M152.936 855.082 Q158.746 855.082 161.802 859.689 Q164.88 864.272 164.88 873.022 Q164.88 881.749 161.802 886.355 Q158.746 890.939 152.936 890.939 Q147.126 890.939 144.047 886.355 Q140.992 881.749 140.992 873.022 Q140.992 864.272 144.047 859.689 Q147.126 855.082 152.936 855.082 Z" fill="#000000" fill-rule="nonzero" fill-opacity="1" /><path clip-path="url(#clip740)" d="M183.098 858.786 Q179.487 858.786 177.658 862.351 Q175.853 865.892 175.853 873.022 Q175.853 880.128 177.658 883.693 Q179.487 887.235 183.098 887.235 Q186.732 887.235 188.538 883.693 Q190.366 880.128 190.366 873.022 Q190.366 865.892 188.538 862.351 Q186.732 858.786 183.098 858.786 M183.098 855.082 Q188.908 855.082 191.964 859.689 Q195.042 864.272 195.042 873.022 Q195.042 881.749 191.964 886.355 Q188.908 890.939 183.098 890.939 Q177.288 890.939 174.209 886.355 Q171.154 881.749 171.154 873.022 Q171.154 864.272 174.209 859.689 Q177.288 855.082 183.098 855.082 Z" fill="#000000" fill-rule="nonzero" fill-opacity="1" /><path clip-path="url(#clip740)" d="M66.617 589.611 Q69.9735 590.329 71.8485 592.597 Q73.7466 594.866 73.7466 598.199 Q73.7466 603.315 70.2281 606.116 Q66.7096 608.917 60.2282 608.917 Q58.0523 608.917 55.7375 608.477 Q53.4458 608.06 50.9921 607.204 L50.9921 602.69 Q52.9366 603.824 55.2514 604.403 Q57.5662 604.982 60.0893 604.982 Q64.4874 604.982 66.7791 603.246 Q69.0939 601.509 69.0939 598.199 Q69.0939 595.144 66.9411 593.431 Q64.8115 591.695 60.9921 591.695 L56.9643 591.695 L56.9643 587.852 L61.1773 587.852 Q64.6263 587.852 66.455 586.486 Q68.2837 585.097 68.2837 582.505 Q68.2837 579.843 66.3856 578.431 Q64.5106 576.996 60.9921 576.996 Q59.0708 576.996 56.8717 577.412 Q54.6727 577.829 52.0338 578.709 L52.0338 574.542 Q54.6958 573.801 57.0106 573.431 Q59.3486 573.061 61.4087 573.061 Q66.7328 573.061 69.8346 575.491 Q72.9365 577.898 72.9365 582.019 Q72.9365 584.889 71.2929 586.88 Q69.6494 588.847 66.617 589.611 Z" fill="#000000" fill-rule="nonzero" fill-opacity="1" /><path clip-path="url(#clip740)" d="M96.7789 589.611 Q100.135 590.329 102.01 592.597 Q103.909 594.866 103.909 598.199 Q103.909 603.315 100.39 606.116 Q96.8715 608.917 90.3901 608.917 Q88.2141 608.917 85.8993 608.477 Q83.6077 608.06 81.154 607.204 L81.154 602.69 Q83.0984 603.824 85.4132 604.403 Q87.728 604.982 90.2512 604.982 Q94.6493 604.982 96.941 603.246 Q99.2558 601.509 99.2558 598.199 Q99.2558 595.144 97.103 593.431 Q94.9734 591.695 91.1539 591.695 L87.1262 591.695 L87.1262 587.852 L91.3391 587.852 Q94.7882 587.852 96.6169 586.486 Q98.4456 585.097 98.4456 582.505 Q98.4456 579.843 96.5474 578.431 Q94.6724 576.996 91.1539 576.996 Q89.2327 576.996 87.0336 577.412 Q84.8345 577.829 82.1957 578.709 L82.1957 574.542 Q84.8577 573.801 87.1725 573.431 Q89.5104 573.061 91.5706 573.061 Q96.8947 573.061 99.9965 575.491 Q103.098 577.898 103.098 582.019 Q103.098 584.889 101.455 586.88 Q99.8113 588.847 96.7789 589.611 Z" fill="#000000" fill-rule="nonzero" fill-opacity="1" /><path clip-path="url(#clip740)" d="M122.774 576.764 Q119.163 576.764 117.334 580.329 Q115.529 583.871 115.529 591 Q115.529 598.107 117.334 601.671 Q119.163 605.213 122.774 605.213 Q126.408 605.213 128.214 601.671 Q130.043 598.107 130.043 591 Q130.043 583.871 128.214 580.329 Q126.408 576.764 122.774 576.764 M122.774 573.061 Q128.584 573.061 131.64 577.667 Q134.719 582.25 134.719 591 Q134.719 599.727 131.64 604.333 Q128.584 608.917 122.774 608.917 Q116.964 608.917 113.885 604.333 Q110.83 599.727 110.83 591 Q110.83 582.25 113.885 577.667 Q116.964 573.061 122.774 573.061 Z" fill="#000000" fill-rule="nonzero" fill-opacity="1" /><path clip-path="url(#clip740)" d="M152.936 576.764 Q149.325 576.764 147.496 580.329 Q145.691 583.871 145.691 591 Q145.691 598.107 147.496 601.671 Q149.325 605.213 152.936 605.213 Q156.57 605.213 158.376 601.671 Q160.205 598.107 160.205 591 Q160.205 583.871 158.376 580.329 Q156.57 576.764 152.936 576.764 M152.936 573.061 Q158.746 573.061 161.802 577.667 Q164.88 582.25 164.88 591 Q164.88 599.727 161.802 604.333 Q158.746 608.917 152.936 608.917 Q147.126 608.917 144.047 604.333 Q140.992 599.727 140.992 591 Q140.992 582.25 144.047 577.667 Q147.126 573.061 152.936 573.061 Z" fill="#000000" fill-rule="nonzero" fill-opacity="1" /><path clip-path="url(#clip740)" d="M183.098 576.764 Q179.487 576.764 177.658 580.329 Q175.853 583.871 175.853 591 Q175.853 598.107 177.658 601.671 Q179.487 605.213 183.098 605.213 Q186.732 605.213 188.538 601.671 Q190.366 598.107 190.366 591 Q190.366 583.871 188.538 580.329 Q186.732 576.764 183.098 576.764 M183.098 573.061 Q188.908 573.061 191.964 577.667 Q195.042 582.25 195.042 591 Q195.042 599.727 191.964 604.333 Q188.908 608.917 183.098 608.917 Q177.288 608.917 174.209 604.333 Q171.154 599.727 171.154 591 Q171.154 582.25 174.209 577.667 Q177.288 573.061 183.098 573.061 Z" fill="#000000" fill-rule="nonzero" fill-opacity="1" /><path clip-path="url(#clip740)" d="M66.617 307.59 Q69.9735 308.307 71.8485 310.576 Q73.7466 312.844 73.7466 316.177 Q73.7466 321.293 70.2281 324.094 Q66.7096 326.895 60.2282 326.895 Q58.0523 326.895 55.7375 326.455 Q53.4458 326.039 50.9921 325.182 L50.9921 320.668 Q52.9366 321.802 55.2514 322.381 Q57.5662 322.96 60.0893 322.96 Q64.4874 322.96 66.7791 321.224 Q69.0939 319.488 69.0939 316.177 Q69.0939 313.122 66.9411 311.409 Q64.8115 309.673 60.9921 309.673 L56.9643 309.673 L56.9643 305.83 L61.1773 305.83 Q64.6263 305.83 66.455 304.465 Q68.2837 303.076 68.2837 300.483 Q68.2837 297.821 66.3856 296.409 Q64.5106 294.974 60.9921 294.974 Q59.0708 294.974 56.8717 295.391 Q54.6727 295.807 52.0338 296.687 L52.0338 292.52 Q54.6958 291.779 57.0106 291.409 Q59.3486 291.039 61.4087 291.039 Q66.7328 291.039 69.8346 293.469 Q72.9365 295.877 72.9365 299.997 Q72.9365 302.867 71.2929 304.858 Q69.6494 306.826 66.617 307.59 Z" fill="#000000" fill-rule="nonzero" fill-opacity="1" /><path clip-path="url(#clip740)" d="M95.4595 295.738 L83.654 314.187 L95.4595 314.187 L95.4595 295.738 M94.2326 291.664 L100.112 291.664 L100.112 314.187 L105.043 314.187 L105.043 318.076 L100.112 318.076 L100.112 326.224 L95.4595 326.224 L95.4595 318.076 L79.8577 318.076 L79.8577 313.562 L94.2326 291.664 Z" fill="#000000" fill-rule="nonzero" fill-opacity="1" /><path clip-path="url(#clip740)" d="M122.774 294.742 Q119.163 294.742 117.334 298.307 Q115.529 301.849 115.529 308.978 Q115.529 316.085 117.334 319.65 Q119.163 323.191 122.774 323.191 Q126.408 323.191 128.214 319.65 Q130.043 316.085 130.043 308.978 Q130.043 301.849 128.214 298.307 Q126.408 294.742 122.774 294.742 M122.774 291.039 Q128.584 291.039 131.64 295.645 Q134.719 300.228 134.719 308.978 Q134.719 317.705 131.64 322.312 Q128.584 326.895 122.774 326.895 Q116.964 326.895 113.885 322.312 Q110.83 317.705 110.83 308.978 Q110.83 300.228 113.885 295.645 Q116.964 291.039 122.774 291.039 Z" fill="#000000" fill-rule="nonzero" fill-opacity="1" /><path clip-path="url(#clip740)" d="M152.936 294.742 Q149.325 294.742 147.496 298.307 Q145.691 301.849 145.691 308.978 Q145.691 316.085 147.496 319.65 Q149.325 323.191 152.936 323.191 Q156.57 323.191 158.376 319.65 Q160.205 316.085 160.205 308.978 Q160.205 301.849 158.376 298.307 Q156.57 294.742 152.936 294.742 M152.936 291.039 Q158.746 291.039 161.802 295.645 Q164.88 300.228 164.88 308.978 Q164.88 317.705 161.802 322.312 Q158.746 326.895 152.936 326.895 Q147.126 326.895 144.047 322.312 Q140.992 317.705 140.992 308.978 Q140.992 300.228 144.047 295.645 Q147.126 291.039 152.936 291.039 Z" fill="#000000" fill-rule="nonzero" fill-opacity="1" /><path clip-path="url(#clip740)" d="M183.098 294.742 Q179.487 294.742 177.658 298.307 Q175.853 301.849 175.853 308.978 Q175.853 316.085 177.658 319.65 Q179.487 323.191 183.098 323.191 Q186.732 323.191 188.538 319.65 Q190.366 316.085 190.366 308.978 Q190.366 301.849 188.538 298.307 Q186.732 294.742 183.098 294.742 M183.098 291.039 Q188.908 291.039 191.964 295.645 Q195.042 300.228 195.042 308.978 Q195.042 317.705 191.964 322.312 Q188.908 326.895 183.098 326.895 Q177.288 326.895 174.209 322.312 Q171.154 317.705 171.154 308.978 Q171.154 300.228 174.209 295.645 Q177.288 291.039 183.098 291.039 Z" fill="#000000" fill-rule="nonzero" fill-opacity="1" /><polyline clip-path="url(#clip742)" style="stroke:#009af9; stroke-linecap:round; stroke-linejoin:round; stroke-width:4; stroke-opacity:1; fill:none" points="291.091,87.9763 293.092,88.1262 295.094,88.1352 297.096,88.1358 299.097,88.1358 301.099,88.1358 303.1,88.1358 305.102,88.1358 307.104,88.1358 309.105,88.1358 311.107,88.1358 313.109,88.1358 315.11,88.1358 317.112,88.1358 319.113,88.1358 321.115,88.1358 323.117,88.1358 325.118,88.1358 327.12,88.1358 329.121,88.1358 331.123,166.265 333.125,166.802 335.126,166.837 337.128,166.839 339.13,166.839 341.131,166.839 343.133,166.839 345.134,166.839 347.136,166.839 349.138,166.839 351.139,166.839 353.141,166.839 355.143,166.839 357.144,166.839 359.146,166.839 361.147,166.839 363.149,166.839 365.151,166.839 367.152,166.839 369.154,166.839 371.155,180.706 373.157,181.398 375.159,181.441 377.16,181.444 379.162,181.444 381.164,181.444 383.165,181.444 385.167,181.444 387.168,181.444 389.17,181.444 391.172,181.444 393.173,181.444 395.175,181.444 397.176,181.444 399.178,181.444 401.18,181.444 403.181,181.444 405.183,181.444 407.185,181.444 409.186,181.444 411.188,298.502 413.189,299.408 415.191,299.471 417.193,299.476 419.194,299.476 421.196,299.476 423.197,299.476 425.199,299.476 427.201,299.476 429.202,299.476 431.204,299.476 433.206,299.476 435.207,299.476 437.209,299.476 439.21,299.476 441.212,299.476 443.214,299.476 445.215,299.476 447.217,299.476 449.218,299.476 451.22,377.906 453.222,379.133 455.223,379.224 457.225,379.231 459.227,379.232 461.228,379.232 463.23,379.232 465.231,379.232 467.233,379.232 469.235,379.232 471.236,379.232 473.238,379.232 475.24,379.232 477.241,379.232 479.243,379.232 481.244,379.232 483.246,379.232 485.248,379.232 487.249,379.232 489.251,379.232 491.252,487.039 493.254,487.231 495.256,487.245 497.257,487.246 499.259,487.246 501.261,487.246 503.262,487.246 505.264,487.246 507.265,487.246 509.267,487.246 511.269,487.246 513.27,487.246 515.272,487.246 517.273,487.246 519.275,487.246 521.277,487.246 523.278,487.246 525.28,487.246 527.282,487.246 529.283,487.246 531.285,527.585 533.286,528.668 535.288,528.751 537.29,528.758 539.291,528.758 541.293,528.759 543.294,528.759 545.296,528.759 547.298,528.759 549.299,528.759 551.301,528.759 553.303,528.759 555.304,528.759 557.306,528.759 559.307,528.759 561.309,528.759 563.311,528.759 565.312,528.759 567.314,528.759 569.315,528.759 571.317,471.173 573.319,471.948 575.32,472.016 577.322,472.023 579.324,472.023 581.325,472.023 583.327,472.023 585.328,472.023 587.33,472.023 589.332,472.023 591.333,472.023 593.335,472.023 595.337,472.023 597.338,472.023 599.34,472.023 601.341,472.023 603.343,472.023 605.345,472.023 607.346,472.023 609.348,472.023 611.349,577.038 613.351,577.506 615.353,577.546 617.354,577.549 619.356,577.55 621.358,577.55 623.359,577.55 625.361,577.55 627.362,577.55 629.364,577.55 631.366,577.55 633.367,577.55 635.369,577.55 637.37,577.55 639.372,577.55 641.374,577.55 643.375,577.55 645.377,577.55 647.379,577.55 649.38,577.55 651.382,518.507 653.383,519.239 655.385,519.306 657.387,519.312 659.388,519.312 661.39,519.313 663.391,519.313 665.393,519.313 667.395,519.313 669.396,519.313 671.398,519.313 673.4,519.313 675.401,519.313 677.403,519.313 679.404,519.313 681.406,519.313 683.408,519.313 685.409,519.313 687.411,519.313 689.412,519.313 691.414,594.947 693.416,596.24 695.417,596.36 697.419,596.372 699.421,596.373 701.422,596.373 703.424,596.373 705.425,596.373 707.427,596.373 709.429,596.373 711.43,596.373 713.432,596.373 715.434,596.373 717.435,596.373 719.437,596.373 721.438,596.373 723.44,596.373 725.442,596.373 727.443,596.373 729.445,596.373 731.446,654.723 733.448,655.047 735.45,655.069 737.451,655.071 739.453,655.071 741.455,655.071 743.456,655.071 745.458,655.071 747.459,655.071 749.461,655.071 751.463,655.071 753.464,655.071 755.466,655.071 757.467,655.071 759.469,655.071 761.471,655.071 763.472,655.071 765.474,655.071 767.476,655.071 769.477,655.071 771.479,850.208 773.48,850.897 775.482,850.956 777.484,850.962 779.485,850.963 781.487,850.963 783.488,850.963 785.49,850.963 787.492,850.963 789.493,850.963 791.495,850.963 793.497,850.963 795.498,850.963 797.5,850.963 799.501,850.963 801.503,850.963 803.505,850.963 805.506,850.963 807.508,850.963 809.509,850.963 811.511,771.611 813.513,772.289 815.514,772.357 817.516,772.365 819.518,772.366 821.519,772.366 823.521,772.366 825.522,772.366 827.524,772.366 829.526,772.366 831.527,772.366 833.529,772.366 835.531,772.366 837.532,772.366 839.534,772.366 841.535,772.366 843.537,772.366 845.539,772.366 847.54,772.366 849.542,772.366 851.543,785.789 853.545,786.341 855.547,786.378 857.548,786.38 859.55,786.38 861.552,786.38 863.553,786.38 865.555,786.38 867.556,786.38 869.558,786.38 871.56,786.38 873.561,786.38 875.563,786.38 877.564,786.38 879.566,786.38 881.568,786.38 883.569,786.38 885.571,786.38 887.573,786.38 889.574,786.38 891.576,891.768 893.577,892.206 895.579,892.249 897.581,892.254 899.582,892.254 901.584,892.254 903.585,892.254 905.587,892.254 907.589,892.254 909.59,892.254 911.592,892.254 913.594,892.254 915.595,892.254 917.597,892.254 919.598,892.254 921.6,892.254 923.602,892.254 925.603,892.254 927.605,892.254 929.606,892.254 931.608,867.392 933.61,867.738 935.611,867.771 937.613,867.775 939.615,867.775 941.616,867.775 943.618,867.775 945.619,867.775 947.621,867.775 949.623,867.775 951.624,867.775 953.626,867.775 955.627,867.775 957.629,867.775 959.631,867.775 961.632,867.775 963.634,867.775 965.636,867.775 967.637,867.775 969.639,867.775 971.64,919.032 973.642,919.723 975.644,919.797 977.645,919.805 979.647,919.806 981.649,919.806 983.65,919.806 985.652,919.806 987.653,919.806 989.655,919.806 991.657,919.806 993.658,919.806 995.66,919.806 997.661,919.806 999.663,919.806 1001.66,919.806 1003.67,919.806 1005.67,919.806 1007.67,919.806 1009.67,919.806 1011.67,1044.89 1013.67,1045.44 1015.68,1045.49 1017.68,1045.49 1019.68,1045.49 1021.68,1045.49 1023.68,1045.49 1025.68,1045.49 1027.69,1045.49 1029.69,1045.49 1031.69,1045.49 1033.69,1045.49 1035.69,1045.49 1037.69,1045.49 1039.7,1045.49 1041.7,1045.49 1043.7,1045.49 1045.7,1045.49 1047.7,1045.49 1049.7,1045.49 1051.71,932.16 1053.71,932.718 1055.71,932.774 1057.71,932.78 1059.71,932.781 1061.71,932.781 1063.71,932.781 1065.72,932.781 1067.72,932.781 1069.72,932.781 1071.72,932.781 1073.72,932.781 1075.72,932.781 1077.73,932.781 1079.73,932.781 1081.73,932.781 1083.73,932.781 1085.73,932.781 1087.73,932.781 1089.74,932.781 1091.74,712.789 1093.74,713.669 1095.74,713.734 1097.74,713.739 1099.74,713.74 1101.75,713.74 1103.75,713.74 1105.75,713.74 1107.75,713.74 1109.75,713.74 1111.75,713.74 1113.76,713.74 1115.76,713.74 1117.76,713.74 1119.76,713.74 1121.76,713.74 1123.76,713.74 1125.76,713.74 1127.77,713.74 1129.77,713.74 1131.77,584.014 1133.77,585.111 1135.77,585.21 1137.77,585.219 1139.78,585.22 1141.78,585.22 1143.78,585.22 1145.78,585.22 1147.78,585.22 1149.78,585.22 1151.79,585.22 1153.79,585.22 1155.79,585.22 1157.79,585.22 1159.79,585.22 1161.79,585.22 1163.8,585.22 1165.8,585.22 1167.8,585.22 1169.8,585.22 1171.8,726.007 1173.8,727.043 1175.81,727.139 1177.81,727.148 1179.81,727.15 1181.81,727.15 1183.81,727.15 1185.81,727.15 1187.82,727.15 1189.82,727.15 1191.82,727.15 1193.82,727.15 1195.82,727.15 1197.82,727.15 1199.82,727.15 1201.83,727.15 1203.83,727.15 1205.83,727.15 1207.83,727.15 1209.83,727.15 1211.83,707.472 1213.84,707.792 1215.84,707.824 1217.84,707.827 1219.84,707.827 1221.84,707.827 1223.84,707.827 1225.85,707.827 1227.85,707.827 1229.85,707.827 1231.85,707.827 1233.85,707.827 1235.85,707.827 1237.86,707.827 1239.86,707.827 1241.86,707.827 1243.86,707.827 1245.86,707.827 1247.86,707.827 1249.87,707.827 1251.87,738.543 1253.87,739.193 1255.87,739.271 1257.87,739.281 1259.87,739.282 1261.87,739.282 1263.88,739.282 1265.88,739.282 1267.88,739.282 1269.88,739.282 1271.88,739.282 1273.88,739.282 1275.89,739.282 1277.89,739.282 1279.89,739.282 1281.89,739.282 1283.89,739.282 1285.89,739.282 1287.9,739.282 1289.9,739.282 1291.9,680.599 1293.9,680.847 1295.9,680.868 1297.9,680.87 1299.91,680.871 1301.91,680.871 1303.91,680.871 1305.91,680.871 1307.91,680.871 1309.91,680.871 1311.92,680.871 1313.92,680.871 1315.92,680.871 1317.92,680.871 1319.92,680.871 1321.92,680.871 1323.92,680.871 1325.93,680.871 1327.93,680.871 1329.93,680.871 1331.93,681.412 1333.93,681.615 1335.93,681.634 1337.94,681.635 1339.94,681.636 1341.94,681.636 1343.94,681.636 1345.94,681.636 1347.94,681.636 1349.95,681.636 1351.95,681.636 1353.95,681.636 1355.95,681.636 1357.95,681.636 1359.95,681.636 1361.96,681.636 1363.96,681.636 1365.96,681.636 1367.96,681.636 1369.96,681.636 1371.96,565.263 1373.97,566.242 1375.97,566.332 1377.97,566.341 1379.97,566.342 1381.97,566.342 1383.97,566.342 1385.98,566.342 1387.98,566.342 1389.98,566.342 1391.98,566.342 1393.98,566.342 1395.98,566.342 1397.98,566.342 1399.99,566.342 1401.99,566.342 1403.99,566.342 1405.99,566.342 1407.99,566.342 1409.99,566.342 1412,687.21 1414,687.837 1416,687.902 1418,687.91 1420,687.911 1422,687.911 1424.01,687.911 1426.01,687.911 1428.01,687.911 1430.01,687.911 1432.01,687.911 1434.01,687.911 1436.02,687.911 1438.02,687.911 1440.02,687.911 1442.02,687.911 1444.02,687.911 1446.02,687.911 1448.03,687.911 1450.03,687.911 1452.03,793.384 1454.03,794.168 1456.03,794.264 1458.03,794.276 1460.03,794.277 1462.04,794.278 1464.04,794.278 1466.04,794.278 1468.04,794.278 1470.04,794.278 1472.04,794.278 1474.05,794.278 1476.05,794.278 1478.05,794.278 1480.05,794.278 1482.05,794.278 1484.05,794.278 1486.06,794.278 1488.06,794.278 1490.06,794.278 1492.06,692.099 1494.06,692.461 1496.06,692.491 1498.07,692.495 1500.07,692.495 1502.07,692.495 1504.07,692.495 1506.07,692.495 1508.07,692.495 1510.08,692.495 1512.08,692.495 1514.08,692.495 1516.08,692.495 1518.08,692.495 1520.08,692.495 1522.09,692.495 1524.09,692.495 1526.09,692.495 1528.09,692.495 1530.09,692.495 1532.09,639.889 1534.09,640.212 1536.1,640.238 1538.1,640.24 1540.1,640.24 1542.1,640.24 1544.1,640.24 1546.1,640.24 1548.11,640.24 1550.11,640.24 1552.11,640.24 1554.11,640.24 1556.11,640.24 1558.11,640.24 1560.12,640.24 1562.12,640.24 1564.12,640.24 1566.12,640.24 1568.12,640.24 1570.12,640.24 1572.13,825.977 1574.13,826.509 1576.13,826.548 1578.13,826.551 1580.13,826.551 1582.13,826.551 1584.14,826.551 1586.14,826.551 1588.14,826.551 1590.14,826.551 1592.14,826.551 1594.14,826.551 1596.14,826.551 1598.15,826.551 1600.15,826.551 1602.15,826.551 1604.15,826.551 1606.15,826.551 1608.15,826.551 1610.16,826.551 1612.16,917.052 1614.16,918.57 1616.16,918.74 1618.16,918.764 1620.16,918.768 1622.17,918.768 1624.17,918.768 1626.17,918.768 1628.17,918.768 1630.17,918.768 1632.17,918.768 1634.18,918.768 1636.18,918.768 1638.18,918.768 1640.18,918.768 1642.18,918.768 1644.18,918.768 1646.19,918.768 1648.19,918.768 1650.19,918.768 1652.19,1064.97 1654.19,1065.88 1656.19,1065.95 1658.19,1065.95 1660.2,1065.95 1662.2,1065.95 1664.2,1065.95 1666.2,1065.95 1668.2,1065.95 1670.2,1065.95 1672.21,1065.95 1674.21,1065.95 1676.21,1065.95 1678.21,1065.95 1680.21,1065.95 1682.21,1065.95 1684.22,1065.95 1686.22,1065.95 1688.22,1065.95 1690.22,1065.95 1692.22,1032 1694.22,1032.79 1696.23,1032.87 1698.23,1032.88 1700.23,1032.89 1702.23,1032.89 1704.23,1032.89 1706.23,1032.89 1708.24,1032.89 1710.24,1032.89 1712.24,1032.89 1714.24,1032.89 1716.24,1032.89 1718.24,1032.89 1720.25,1032.89 1722.25,1032.89 1724.25,1032.89 1726.25,1032.89 1728.25,1032.89 1730.25,1032.89 1732.25,1096.35 1734.26,1096.72 1736.26,1096.75 1738.26,1096.75 1740.26,1096.75 1742.26,1096.75 1744.26,1096.75 1746.27,1096.75 1748.27,1096.75 1750.27,1096.75 1752.27,1096.75 1754.27,1096.75 1756.27,1096.75 1758.28,1096.75 1760.28,1096.75 1762.28,1096.75 1764.28,1096.75 1766.28,1096.75 1768.28,1096.75 1770.29,1096.75 1772.29,1286.22 1774.29,1287.71 1776.29,1287.86 1778.29,1287.88 1780.29,1287.89 1782.3,1287.89 1784.3,1287.89 1786.3,1287.89 1788.3,1287.89 1790.3,1287.89 1792.3,1287.89 1794.3,1287.89 1796.31,1287.89 1798.31,1287.89 1800.31,1287.89 1802.31,1287.89 1804.31,1287.89 1806.31,1287.89 1808.32,1287.89 1810.32,1287.89 1812.32,1368.62 1814.32,1369.38 1816.32,1369.5 1818.32,1369.52 1820.33,1369.52 1822.33,1369.52 1824.33,1369.52 1826.33,1369.52 1828.33,1369.52 1830.33,1369.52 1832.34,1369.52 1834.34,1369.52 1836.34,1369.52 1838.34,1369.52 1840.34,1369.52 1842.34,1369.52 1844.35,1369.52 1846.35,1369.52 1848.35,1369.52 1850.35,1369.52 1852.35,1364.04 1854.35,1364.36 1856.35,1364.4 1858.36,1364.41 1860.36,1364.41 1862.36,1364.41 1864.36,1364.41 1866.36,1364.41 1868.36,1364.41 1870.37,1364.41 1872.37,1364.41 1874.37,1364.41 1876.37,1364.41 1878.37,1364.41 1880.37,1364.41 1882.38,1364.41 1884.38,1364.41 1886.38,1364.41 1888.38,1364.41 1890.38,1364.41 1892.38,1408.67 1894.39,1409.58 1896.39,1409.75 1898.39,1409.78 1900.39,1409.79 1902.39,1409.79 1904.39,1409.79 1906.4,1409.79 1908.4,1409.79 1910.4,1409.79 1912.4,1409.79 1914.4,1409.79 1916.4,1409.79 1918.41,1409.79 1920.41,1409.79 1922.41,1409.79 1924.41,1409.79 1926.41,1409.79 1928.41,1409.79 1930.41,1409.79 1932.42,1445.2 1934.42,1445.67 1936.42,1445.71 1938.42,1445.72 1940.42,1445.72 1942.42,1445.72 1944.43,1445.72 1946.43,1445.72 1948.43,1445.72 1950.43,1445.72 1952.43,1445.72 1954.43,1445.72 1956.44,1445.72 1958.44,1445.72 1960.44,1445.72 1962.44,1445.72 1964.44,1445.72 1966.44,1445.72 1968.45,1445.72 1970.45,1445.72 1972.45,1400.91 1974.45,1401.44 1976.45,1401.55 1978.45,1401.57 1980.46,1401.58 1982.46,1401.58 1984.46,1401.58 1986.46,1401.58 1988.46,1401.58 1990.46,1401.58 1992.46,1401.58 1994.47,1401.58 1996.47,1401.58 1998.47,1401.58 2000.47,1401.58 2002.47,1401.58 2004.47,1401.58 2006.48,1401.58 2008.48,1401.58 2010.48,1401.58 2012.48,1210.83 2014.48,1211.9 2016.48,1211.97 2018.49,1211.98 2020.49,1211.98 2022.49,1211.98 2024.49,1211.98 2026.49,1211.98 2028.49,1211.98 2030.5,1211.98 2032.5,1211.98 2034.5,1211.98 2036.5,1211.98 2038.5,1211.98 2040.5,1211.98 2042.51,1211.98 2044.51,1211.98 2046.51,1211.98 2048.51,1211.98 2050.51,1211.98 2052.51,1254.18 2054.52,1255.78 2056.52,1256.11 2058.52,1256.18 2060.52,1256.2 2062.52,1256.2 2064.52,1256.2 2066.52,1256.2 2068.53,1256.2 2070.53,1256.2 2072.53,1256.2 2074.53,1256.2 2076.53,1256.2 2078.53,1256.2 2080.54,1256.2 2082.54,1256.2 2084.54,1256.2 2086.54,1256.2 2088.54,1256.2 2090.54,1256.2 2092.55,1268.4 2094.55,1268.65 2096.55,1268.7 2098.55,1268.7 2100.55,1268.71 2102.55,1268.71 2104.56,1268.71 2106.56,1268.71 2108.56,1268.71 2110.56,1268.71 2112.56,1268.71 2114.56,1268.71 2116.57,1268.71 2118.57,1268.71 2120.57,1268.71 2122.57,1268.71 2124.57,1268.71 2126.57,1268.71 2128.57,1268.71 2130.58,1268.71 2132.58,1221.64 2134.58,1222.04 2136.58,1222.1 2138.58,1222.12 2140.58,1222.12 2142.59,1222.12 2144.59,1222.12 2146.59,1222.12 2148.59,1222.12 2150.59,1222.12 2152.59,1222.12 2154.6,1222.12 2156.6,1222.12 2158.6,1222.12 2160.6,1222.12 2162.6,1222.12 2164.6,1222.12 2166.61,1222.12 2168.61,1222.12 2170.61,1222.12 2172.61,1339.62 2174.61,1340.54 2176.61,1340.71 2178.62,1340.75 2180.62,1340.75 2182.62,1340.76 2184.62,1340.76 2186.62,1340.76 2188.62,1340.76 2190.62,1340.76 2192.63,1340.76 2194.63,1340.76 2196.63,1340.76 2198.63,1340.76 2200.63,1340.76 2202.63,1340.76 2204.64,1340.76 2206.64,1340.76 2208.64,1340.76 2210.64,1340.76 2212.64,1159.57 2214.64,1160.46 2216.65,1160.55 2218.65,1160.56 2220.65,1160.56 2222.65,1160.56 2224.65,1160.56 2226.65,1160.56 2228.66,1160.56 2230.66,1160.56 2232.66,1160.56 2234.66,1160.56 2236.66,1160.56 2238.66,1160.56 2240.67,1160.56 2242.67,1160.56 2244.67,1160.56 2246.67,1160.56 2248.67,1160.56 2250.67,1160.56 2252.68,1305.57 2254.68,1306.38 2256.68,1306.47 2258.68,1306.49 2260.68,1306.49 2262.68,1306.5 2264.68,1306.5 2266.69,1306.5 2268.69,1306.5 2270.69,1306.5 2272.69,1306.5 2274.69,1306.5 2276.69,1306.5 2278.7,1306.5 2280.7,1306.5 2282.7,1306.5 2284.7,1306.5 2286.7,1306.5 2288.7,1306.5 2290.71,1306.5 2292.71,1306.5 "/>
<path clip-path="url(#clip740)" d="M2017.43 198.898 L2282.03 198.898 L2282.03 95.2176 L2017.43 95.2176  Z" fill="#ffffff" fill-rule="evenodd" fill-opacity="1"/>
<polyline clip-path="url(#clip740)" style="stroke:#000000; stroke-linecap:round; stroke-linejoin:round; stroke-width:4; stroke-opacity:1; fill:none" points="2017.43,198.898 2282.03,198.898 2282.03,95.2176 2017.43,95.2176 2017.43,198.898 "/>
<polyline clip-path="url(#clip740)" style="stroke:#009af9; stroke-linecap:round; stroke-linejoin:round; stroke-width:4; stroke-opacity:1; fill:none" points="2041.01,147.058 2182.45,147.058 "/>
<path clip-path="url(#clip740)" d="M2219.87 166.745 Q2218.06 171.375 2216.35 172.787 Q2214.64 174.199 2211.77 174.199 L2208.37 174.199 L2208.37 170.634 L2210.87 170.634 Q2212.62 170.634 2213.6 169.8 Q2214.57 168.967 2215.75 165.865 L2216.51 163.921 L2206.03 138.412 L2210.54 138.412 L2218.64 158.689 L2226.74 138.412 L2231.26 138.412 L2219.87 166.745 Z" fill="#000000" fill-rule="nonzero" fill-opacity="1" /><path clip-path="url(#clip740)" d="M2238.55 160.402 L2246.19 160.402 L2246.19 134.037 L2237.88 135.703 L2237.88 131.444 L2246.14 129.778 L2250.82 129.778 L2250.82 160.402 L2258.46 160.402 L2258.46 164.338 L2238.55 164.338 L2238.55 160.402 Z" fill="#000000" fill-rule="nonzero" fill-opacity="1" /></svg>
