<?xml version="1.0" encoding="utf-8"?>
<svg xmlns="http://www.w3.org/2000/svg" xmlns:xlink="http://www.w3.org/1999/xlink" width="600" height="400" viewBox="0 0 2400 1600">
<defs>
  <clipPath id="clip280">
    <rect x="0" y="0" width="2400" height="1600"/>
  </clipPath>
</defs>
<path clip-path="url(#clip280)" d="M0 1600 L2400 1600 L2400 0 L0 0  Z" fill="#ffffff" fill-rule="evenodd" fill-opacity="1"/>
<defs>
  <clipPath id="clip281">
    <rect x="480" y="0" width="1681" height="1600"/>
  </clipPath>
</defs>
<path clip-path="url(#clip280)" d="M156.598 1486.45 L2352.76 1486.45 L2352.76 47.2441 L156.598 47.2441  Z" fill="#ffffff" fill-rule="evenodd" fill-opacity="1"/>
<defs>
  <clipPath id="clip282">
    <rect x="156" y="47" width="2197" height="1440"/>
  </clipPath>
</defs>
<polyline clip-path="url(#clip282)" style="stroke:#000000; stroke-linecap:round; stroke-linejoin:round; stroke-width:2; stroke-opacity:0.1; fill:none" points="218.754,1486.45 218.754,47.2441 "/>
<polyline clip-path="url(#clip282)" style="stroke:#000000; stroke-linecap:round; stroke-linejoin:round; stroke-width:2; stroke-opacity:0.1; fill:none" points="633.289,1486.45 633.289,47.2441 "/>
<polyline clip-path="url(#clip282)" style="stroke:#000000; stroke-linecap:round; stroke-linejoin:round; stroke-width:2; stroke-opacity:0.1; fill:none" points="1047.82,1486.45 1047.82,47.2441 "/>
<polyline clip-path="url(#clip282)" style="stroke:#000000; stroke-linecap:round; stroke-linejoin:round; stroke-width:2; stroke-opacity:0.1; fill:none" points="1462.36,1486.45 1462.36,47.2441 "/>
<polyline clip-path="url(#clip282)" style="stroke:#000000; stroke-linecap:round; stroke-linejoin:round; stroke-width:2; stroke-opacity:0.1; fill:none" points="1876.89,1486.45 1876.89,47.2441 "/>
<polyline clip-path="url(#clip282)" style="stroke:#000000; stroke-linecap:round; stroke-linejoin:round; stroke-width:2; stroke-opacity:0.1; fill:none" points="2291.43,1486.45 2291.43,47.2441 "/>
<polyline clip-path="url(#clip280)" style="stroke:#000000; stroke-linecap:round; stroke-linejoin:round; stroke-width:4; stroke-opacity:1; fill:none" points="156.598,1486.45 2352.76,1486.45 "/>
<polyline clip-path="url(#clip280)" style="stroke:#000000; stroke-linecap:round; stroke-linejoin:round; stroke-width:4; stroke-opacity:1; fill:none" points="218.754,1486.45 218.754,1467.55 "/>
<polyline clip-path="url(#clip280)" style="stroke:#000000; stroke-linecap:round; stroke-linejoin:round; stroke-width:4; stroke-opacity:1; fill:none" points="633.289,1486.45 633.289,1467.55 "/>
<polyline clip-path="url(#clip280)" style="stroke:#000000; stroke-linecap:round; stroke-linejoin:round; stroke-width:4; stroke-opacity:1; fill:none" points="1047.82,1486.45 1047.82,1467.55 "/>
<polyline clip-path="url(#clip280)" style="stroke:#000000; stroke-linecap:round; stroke-linejoin:round; stroke-width:4; stroke-opacity:1; fill:none" points="1462.36,1486.45 1462.36,1467.55 "/>
<polyline clip-path="url(#clip280)" style="stroke:#000000; stroke-linecap:round; stroke-linejoin:round; stroke-width:4; stroke-opacity:1; fill:none" points="1876.89,1486.45 1876.89,1467.55 "/>
<polyline clip-path="url(#clip280)" style="stroke:#000000; stroke-linecap:round; stroke-linejoin:round; stroke-width:4; stroke-opacity:1; fill:none" points="2291.43,1486.45 2291.43,1467.55 "/>
<path clip-path="url(#clip280)" d="M218.754 1517.37 Q215.143 1517.37 213.314 1520.93 Q211.508 1524.47 211.508 1531.6 Q211.508 1538.71 213.314 1542.27 Q215.143 1545.82 218.754 1545.82 Q222.388 1545.82 224.193 1542.27 Q226.022 1538.71 226.022 1531.6 Q226.022 1524.47 224.193 1520.93 Q222.388 1517.37 218.754 1517.37 M218.754 1513.66 Q224.564 1513.66 227.619 1518.27 Q230.698 1522.85 230.698 1531.6 Q230.698 1540.33 227.619 1544.94 Q224.564 1549.52 218.754 1549.52 Q212.943 1549.52 209.865 1544.94 Q206.809 1540.33 206.809 1531.6 Q206.809 1522.85 209.865 1518.27 Q212.943 1513.66 218.754 1513.66 Z" fill="#000000" fill-rule="nonzero" fill-opacity="1" /><path clip-path="url(#clip280)" d="M592.907 1514.29 L611.263 1514.29 L611.263 1518.22 L597.189 1518.22 L597.189 1526.7 Q598.208 1526.35 599.227 1526.19 Q600.245 1526 601.264 1526 Q607.051 1526 610.43 1529.17 Q613.81 1532.34 613.81 1537.76 Q613.81 1543.34 610.338 1546.44 Q606.865 1549.52 600.546 1549.52 Q598.37 1549.52 596.102 1549.15 Q593.856 1548.78 591.449 1548.04 L591.449 1543.34 Q593.532 1544.47 595.754 1545.03 Q597.977 1545.58 600.453 1545.58 Q604.458 1545.58 606.796 1543.48 Q609.134 1541.37 609.134 1537.76 Q609.134 1534.15 606.796 1532.04 Q604.458 1529.94 600.453 1529.94 Q598.578 1529.94 596.703 1530.35 Q594.852 1530.77 592.907 1531.65 L592.907 1514.29 Z" fill="#000000" fill-rule="nonzero" fill-opacity="1" /><path clip-path="url(#clip280)" d="M633.023 1517.37 Q629.412 1517.37 627.583 1520.93 Q625.777 1524.47 625.777 1531.6 Q625.777 1538.71 627.583 1542.27 Q629.412 1545.82 633.023 1545.82 Q636.657 1545.82 638.462 1542.27 Q640.291 1538.71 640.291 1531.6 Q640.291 1524.47 638.462 1520.93 Q636.657 1517.37 633.023 1517.37 M633.023 1513.66 Q638.833 1513.66 641.888 1518.27 Q644.967 1522.85 644.967 1531.6 Q644.967 1540.33 641.888 1544.94 Q638.833 1549.52 633.023 1549.52 Q627.212 1549.52 624.134 1544.94 Q621.078 1540.33 621.078 1531.6 Q621.078 1522.85 624.134 1518.27 Q627.212 1513.66 633.023 1513.66 Z" fill="#000000" fill-rule="nonzero" fill-opacity="1" /><path clip-path="url(#clip280)" d="M663.184 1517.37 Q659.573 1517.37 657.745 1520.93 Q655.939 1524.47 655.939 1531.6 Q655.939 1538.71 657.745 1542.27 Q659.573 1545.82 663.184 1545.82 Q666.819 1545.82 668.624 1542.27 Q670.453 1538.71 670.453 1531.6 Q670.453 1524.47 668.624 1520.93 Q666.819 1517.37 663.184 1517.37 M663.184 1513.66 Q668.995 1513.66 672.05 1518.27 Q675.129 1522.85 675.129 1531.6 Q675.129 1540.33 672.05 1544.94 Q668.995 1549.52 663.184 1549.52 Q657.374 1549.52 654.296 1544.94 Q651.24 1540.33 651.24 1531.6 Q651.24 1522.85 654.296 1518.27 Q657.374 1513.66 663.184 1513.66 Z" fill="#000000" fill-rule="nonzero" fill-opacity="1" /><path clip-path="url(#clip280)" d="M992.35 1544.91 L999.989 1544.91 L999.989 1518.55 L991.678 1520.21 L991.678 1515.95 L999.942 1514.29 L1004.62 1514.29 L1004.62 1544.91 L1012.26 1544.91 L1012.26 1548.85 L992.35 1548.85 L992.35 1544.91 Z" fill="#000000" fill-rule="nonzero" fill-opacity="1" /><path clip-path="url(#clip280)" d="M1031.7 1517.37 Q1028.09 1517.37 1026.26 1520.93 Q1024.46 1524.47 1024.46 1531.6 Q1024.46 1538.71 1026.26 1542.27 Q1028.09 1545.82 1031.7 1545.82 Q1035.34 1545.82 1037.14 1542.27 Q1038.97 1538.71 1038.97 1531.6 Q1038.97 1524.47 1037.14 1520.93 Q1035.34 1517.37 1031.7 1517.37 M1031.7 1513.66 Q1037.51 1513.66 1040.57 1518.27 Q1043.65 1522.85 1043.65 1531.6 Q1043.65 1540.33 1040.57 1544.94 Q1037.51 1549.52 1031.7 1549.52 Q1025.89 1549.52 1022.81 1544.94 Q1019.76 1540.33 1019.76 1531.6 Q1019.76 1522.85 1022.81 1518.27 Q1025.89 1513.66 1031.7 1513.66 Z" fill="#000000" fill-rule="nonzero" fill-opacity="1" /><path clip-path="url(#clip280)" d="M1061.86 1517.37 Q1058.25 1517.37 1056.42 1520.93 Q1054.62 1524.47 1054.62 1531.6 Q1054.62 1538.71 1056.42 1542.27 Q1058.25 1545.82 1061.86 1545.82 Q1065.5 1545.82 1067.3 1542.27 Q1069.13 1538.71 1069.13 1531.6 Q1069.13 1524.47 1067.3 1520.93 Q1065.5 1517.37 1061.86 1517.37 M1061.86 1513.66 Q1067.67 1513.66 1070.73 1518.27 Q1073.81 1522.85 1073.81 1531.6 Q1073.81 1540.33 1070.73 1544.94 Q1067.67 1549.52 1061.86 1549.52 Q1056.05 1549.52 1052.97 1544.94 Q1049.92 1540.33 1049.92 1531.6 Q1049.92 1522.85 1052.97 1518.27 Q1056.05 1513.66 1061.86 1513.66 Z" fill="#000000" fill-rule="nonzero" fill-opacity="1" /><path clip-path="url(#clip280)" d="M1092.03 1517.37 Q1088.41 1517.37 1086.59 1520.93 Q1084.78 1524.47 1084.78 1531.6 Q1084.78 1538.71 1086.59 1542.27 Q1088.41 1545.82 1092.03 1545.82 Q1095.66 1545.82 1097.46 1542.27 Q1099.29 1538.71 1099.29 1531.6 Q1099.29 1524.47 1097.46 1520.93 Q1095.66 1517.37 1092.03 1517.37 M1092.03 1513.66 Q1097.84 1513.66 1100.89 1518.27 Q1103.97 1522.85 1103.97 1531.6 Q1103.97 1540.33 1100.89 1544.94 Q1097.84 1549.52 1092.03 1549.52 Q1086.22 1549.52 1083.14 1544.94 Q1080.08 1540.33 1080.08 1531.6 Q1080.08 1522.85 1083.14 1518.27 Q1086.22 1513.66 1092.03 1513.66 Z" fill="#000000" fill-rule="nonzero" fill-opacity="1" /><path clip-path="url(#clip280)" d="M1406.88 1544.91 L1414.52 1544.91 L1414.52 1518.55 L1406.21 1520.21 L1406.21 1515.95 L1414.48 1514.29 L1419.15 1514.29 L1419.15 1544.91 L1426.79 1544.91 L1426.79 1548.85 L1406.88 1548.85 L1406.88 1544.91 Z" fill="#000000" fill-rule="nonzero" fill-opacity="1" /><path clip-path="url(#clip280)" d="M1436.28 1514.29 L1454.64 1514.29 L1454.64 1518.22 L1440.57 1518.22 L1440.57 1526.7 Q1441.58 1526.35 1442.6 1526.19 Q1443.62 1526 1444.64 1526 Q1450.43 1526 1453.81 1529.17 Q1457.19 1532.34 1457.19 1537.76 Q1457.19 1543.34 1453.71 1546.44 Q1450.24 1549.52 1443.92 1549.52 Q1441.75 1549.52 1439.48 1549.15 Q1437.23 1548.78 1434.82 1548.04 L1434.82 1543.34 Q1436.91 1544.47 1439.13 1545.03 Q1441.35 1545.58 1443.83 1545.58 Q1447.83 1545.58 1450.17 1543.48 Q1452.51 1541.37 1452.51 1537.76 Q1452.51 1534.15 1450.17 1532.04 Q1447.83 1529.94 1443.83 1529.94 Q1441.95 1529.94 1440.08 1530.35 Q1438.23 1530.77 1436.28 1531.65 L1436.28 1514.29 Z" fill="#000000" fill-rule="nonzero" fill-opacity="1" /><path clip-path="url(#clip280)" d="M1476.4 1517.37 Q1472.79 1517.37 1470.96 1520.93 Q1469.15 1524.47 1469.15 1531.6 Q1469.15 1538.71 1470.96 1542.27 Q1472.79 1545.82 1476.4 1545.82 Q1480.03 1545.82 1481.84 1542.27 Q1483.67 1538.71 1483.67 1531.6 Q1483.67 1524.47 1481.84 1520.93 Q1480.03 1517.37 1476.4 1517.37 M1476.4 1513.66 Q1482.21 1513.66 1485.26 1518.27 Q1488.34 1522.85 1488.34 1531.6 Q1488.34 1540.33 1485.26 1544.94 Q1482.21 1549.52 1476.4 1549.52 Q1470.59 1549.52 1467.51 1544.94 Q1464.45 1540.33 1464.45 1531.6 Q1464.45 1522.85 1467.51 1518.27 Q1470.59 1513.66 1476.4 1513.66 Z" fill="#000000" fill-rule="nonzero" fill-opacity="1" /><path clip-path="url(#clip280)" d="M1506.56 1517.37 Q1502.95 1517.37 1501.12 1520.93 Q1499.32 1524.47 1499.32 1531.6 Q1499.32 1538.71 1501.12 1542.27 Q1502.95 1545.82 1506.56 1545.82 Q1510.19 1545.82 1512 1542.27 Q1513.83 1538.71 1513.83 1531.6 Q1513.83 1524.47 1512 1520.93 Q1510.19 1517.37 1506.56 1517.37 M1506.56 1513.66 Q1512.37 1513.66 1515.43 1518.27 Q1518.5 1522.85 1518.5 1531.6 Q1518.5 1540.33 1515.43 1544.94 Q1512.37 1549.52 1506.56 1549.52 Q1500.75 1549.52 1497.67 1544.94 Q1494.62 1540.33 1494.62 1531.6 Q1494.62 1522.85 1497.67 1518.27 Q1500.75 1513.66 1506.56 1513.66 Z" fill="#000000" fill-rule="nonzero" fill-opacity="1" /><path clip-path="url(#clip280)" d="M1825.51 1544.91 L1841.83 1544.91 L1841.83 1548.85 L1819.88 1548.85 L1819.88 1544.91 Q1822.54 1542.16 1827.13 1537.53 Q1831.73 1532.88 1832.91 1531.53 Q1835.16 1529.01 1836.04 1527.27 Q1836.94 1525.51 1836.94 1523.82 Q1836.94 1521.07 1835 1519.33 Q1833.08 1517.6 1829.97 1517.6 Q1827.77 1517.6 1825.32 1518.36 Q1822.89 1519.13 1820.11 1520.68 L1820.11 1515.95 Q1822.94 1514.82 1825.39 1514.24 Q1827.84 1513.66 1829.88 1513.66 Q1835.25 1513.66 1838.45 1516.35 Q1841.64 1519.03 1841.64 1523.52 Q1841.64 1525.65 1840.83 1527.57 Q1840.04 1529.47 1837.94 1532.07 Q1837.36 1532.74 1834.26 1535.95 Q1831.15 1539.15 1825.51 1544.91 Z" fill="#000000" fill-rule="nonzero" fill-opacity="1" /><path clip-path="url(#clip280)" d="M1861.64 1517.37 Q1858.03 1517.37 1856.2 1520.93 Q1854.39 1524.47 1854.39 1531.6 Q1854.39 1538.71 1856.2 1542.27 Q1858.03 1545.82 1861.64 1545.82 Q1865.27 1545.82 1867.08 1542.27 Q1868.91 1538.71 1868.91 1531.6 Q1868.91 1524.47 1867.08 1520.93 Q1865.27 1517.37 1861.64 1517.37 M1861.64 1513.66 Q1867.45 1513.66 1870.51 1518.27 Q1873.58 1522.85 1873.58 1531.6 Q1873.58 1540.33 1870.51 1544.94 Q1867.45 1549.52 1861.64 1549.52 Q1855.83 1549.52 1852.75 1544.94 Q1849.7 1540.33 1849.7 1531.6 Q1849.7 1522.85 1852.75 1518.27 Q1855.83 1513.66 1861.64 1513.66 Z" fill="#000000" fill-rule="nonzero" fill-opacity="1" /><path clip-path="url(#clip280)" d="M1891.8 1517.37 Q1888.19 1517.37 1886.36 1520.93 Q1884.56 1524.47 1884.56 1531.6 Q1884.56 1538.71 1886.36 1542.27 Q1888.19 1545.82 1891.8 1545.82 Q1895.44 1545.82 1897.24 1542.27 Q1899.07 1538.71 1899.07 1531.6 Q1899.07 1524.47 1897.24 1520.93 Q1895.44 1517.37 1891.8 1517.37 M1891.8 1513.66 Q1897.61 1513.66 1900.67 1518.27 Q1903.75 1522.85 1903.75 1531.6 Q1903.75 1540.33 1900.67 1544.94 Q1897.61 1549.52 1891.8 1549.52 Q1885.99 1549.52 1882.91 1544.94 Q1879.86 1540.33 1879.86 1531.6 Q1879.86 1522.85 1882.91 1518.27 Q1885.99 1513.66 1891.8 1513.66 Z" fill="#000000" fill-rule="nonzero" fill-opacity="1" /><path clip-path="url(#clip280)" d="M1921.96 1517.37 Q1918.35 1517.37 1916.52 1520.93 Q1914.72 1524.47 1914.72 1531.6 Q1914.72 1538.71 1916.52 1542.27 Q1918.35 1545.82 1921.96 1545.82 Q1925.6 1545.82 1927.4 1542.27 Q1929.23 1538.71 1929.23 1531.6 Q1929.23 1524.47 1927.4 1520.93 Q1925.6 1517.37 1921.96 1517.37 M1921.96 1513.66 Q1927.77 1513.66 1930.83 1518.27 Q1933.91 1522.85 1933.91 1531.6 Q1933.91 1540.33 1930.83 1544.94 Q1927.77 1549.52 1921.96 1549.52 Q1916.15 1549.52 1913.07 1544.94 Q1910.02 1540.33 1910.02 1531.6 Q1910.02 1522.85 1913.07 1518.27 Q1916.15 1513.66 1921.96 1513.66 Z" fill="#000000" fill-rule="nonzero" fill-opacity="1" /><path clip-path="url(#clip280)" d="M2240.04 1544.91 L2256.36 1544.91 L2256.36 1548.85 L2234.42 1548.85 L2234.42 1544.91 Q2237.08 1542.16 2241.66 1537.53 Q2246.27 1532.88 2247.45 1531.53 Q2249.69 1529.01 2250.57 1527.27 Q2251.48 1525.51 2251.48 1523.82 Q2251.48 1521.07 2249.53 1519.33 Q2247.61 1517.6 2244.51 1517.6 Q2242.31 1517.6 2239.86 1518.36 Q2237.43 1519.13 2234.65 1520.68 L2234.65 1515.95 Q2237.47 1514.82 2239.93 1514.24 Q2242.38 1513.66 2244.42 1513.66 Q2249.79 1513.66 2252.98 1516.35 Q2256.18 1519.03 2256.18 1523.52 Q2256.18 1525.65 2255.36 1527.57 Q2254.58 1529.47 2252.47 1532.07 Q2251.89 1532.74 2248.79 1535.95 Q2245.69 1539.15 2240.04 1544.91 Z" fill="#000000" fill-rule="nonzero" fill-opacity="1" /><path clip-path="url(#clip280)" d="M2266.22 1514.29 L2284.58 1514.29 L2284.58 1518.22 L2270.5 1518.22 L2270.5 1526.7 Q2271.52 1526.35 2272.54 1526.19 Q2273.56 1526 2274.58 1526 Q2280.36 1526 2283.74 1529.17 Q2287.12 1532.34 2287.12 1537.76 Q2287.12 1543.34 2283.65 1546.44 Q2280.18 1549.52 2273.86 1549.52 Q2271.68 1549.52 2269.42 1549.15 Q2267.17 1548.78 2264.76 1548.04 L2264.76 1543.34 Q2266.85 1544.47 2269.07 1545.03 Q2271.29 1545.58 2273.77 1545.58 Q2277.77 1545.58 2280.11 1543.48 Q2282.45 1541.37 2282.45 1537.76 Q2282.45 1534.15 2280.11 1532.04 Q2277.77 1529.94 2273.77 1529.94 Q2271.89 1529.94 2270.02 1530.35 Q2268.17 1530.77 2266.22 1531.65 L2266.22 1514.29 Z" fill="#000000" fill-rule="nonzero" fill-opacity="1" /><path clip-path="url(#clip280)" d="M2306.34 1517.37 Q2302.73 1517.37 2300.9 1520.93 Q2299.09 1524.47 2299.09 1531.6 Q2299.09 1538.71 2300.9 1542.27 Q2302.73 1545.82 2306.34 1545.82 Q2309.97 1545.82 2311.78 1542.27 Q2313.61 1538.71 2313.61 1531.6 Q2313.61 1524.47 2311.78 1520.93 Q2309.97 1517.37 2306.34 1517.37 M2306.34 1513.66 Q2312.15 1513.66 2315.2 1518.27 Q2318.28 1522.85 2318.28 1531.6 Q2318.28 1540.33 2315.2 1544.94 Q2312.15 1549.52 2306.34 1549.52 Q2300.53 1549.52 2297.45 1544.94 Q2294.39 1540.33 2294.39 1531.6 Q2294.39 1522.85 2297.45 1518.27 Q2300.53 1513.66 2306.34 1513.66 Z" fill="#000000" fill-rule="nonzero" fill-opacity="1" /><path clip-path="url(#clip280)" d="M2336.5 1517.37 Q2332.89 1517.37 2331.06 1520.93 Q2329.25 1524.47 2329.25 1531.6 Q2329.25 1538.71 2331.06 1542.27 Q2332.89 1545.82 2336.5 1545.82 Q2340.13 1545.82 2341.94 1542.27 Q2343.77 1538.71 2343.77 1531.6 Q2343.77 1524.47 2341.94 1520.93 Q2340.13 1517.37 2336.5 1517.37 M2336.5 1513.66 Q2342.31 1513.66 2345.36 1518.27 Q2348.44 1522.85 2348.44 1531.6 Q2348.44 1540.33 2345.36 1544.94 Q2342.31 1549.52 2336.5 1549.52 Q2330.69 1549.52 2327.61 1544.94 Q2324.55 1540.33 2324.55 1531.6 Q2324.55 1522.85 2327.61 1518.27 Q2330.69 1513.66 2336.5 1513.66 Z" fill="#000000" fill-rule="nonzero" fill-opacity="1" /><polyline clip-path="url(#clip282)" style="stroke:#000000; stroke-linecap:round; stroke-linejoin:round; stroke-width:2; stroke-opacity:0.1; fill:none" points="156.598,1445.72 2352.76,1445.72 "/>
<polyline clip-path="url(#clip282)" style="stroke:#000000; stroke-linecap:round; stroke-linejoin:round; stroke-width:2; stroke-opacity:0.1; fill:none" points="156.598,1057.79 2352.76,1057.79 "/>
<polyline clip-path="url(#clip282)" style="stroke:#000000; stroke-linecap:round; stroke-linejoin:round; stroke-width:2; stroke-opacity:0.1; fill:none" points="156.598,669.865 2352.76,669.865 "/>
<polyline clip-path="url(#clip282)" style="stroke:#000000; stroke-linecap:round; stroke-linejoin:round; stroke-width:2; stroke-opacity:0.1; fill:none" points="156.598,281.939 2352.76,281.939 "/>
<polyline clip-path="url(#clip280)" style="stroke:#000000; stroke-linecap:round; stroke-linejoin:round; stroke-width:4; stroke-opacity:1; fill:none" points="156.598,1486.45 156.598,47.2441 "/>
<polyline clip-path="url(#clip280)" style="stroke:#000000; stroke-linecap:round; stroke-linejoin:round; stroke-width:4; stroke-opacity:1; fill:none" points="156.598,1445.72 175.496,1445.72 "/>
<polyline clip-path="url(#clip280)" style="stroke:#000000; stroke-linecap:round; stroke-linejoin:round; stroke-width:4; stroke-opacity:1; fill:none" points="156.598,1057.79 175.496,1057.79 "/>
<polyline clip-path="url(#clip280)" style="stroke:#000000; stroke-linecap:round; stroke-linejoin:round; stroke-width:4; stroke-opacity:1; fill:none" points="156.598,669.865 175.496,669.865 "/>
<polyline clip-path="url(#clip280)" style="stroke:#000000; stroke-linecap:round; stroke-linejoin:round; stroke-width:4; stroke-opacity:1; fill:none" points="156.598,281.939 175.496,281.939 "/>
<path clip-path="url(#clip280)" d="M63.4226 1431.51 Q59.8115 1431.51 57.9828 1435.08 Q56.1773 1438.62 56.1773 1445.75 Q56.1773 1452.86 57.9828 1456.42 Q59.8115 1459.96 63.4226 1459.96 Q67.0569 1459.96 68.8624 1456.42 Q70.6911 1452.86 70.6911 1445.75 Q70.6911 1438.62 68.8624 1435.08 Q67.0569 1431.51 63.4226 1431.51 M63.4226 1427.81 Q69.2328 1427.81 72.2883 1432.42 Q75.367 1437 75.367 1445.75 Q75.367 1454.48 72.2883 1459.08 Q69.2328 1463.67 63.4226 1463.67 Q57.6125 1463.67 54.5338 1459.08 Q51.4782 1454.48 51.4782 1445.75 Q51.4782 1437 54.5338 1432.42 Q57.6125 1427.81 63.4226 1427.81 Z" fill="#000000" fill-rule="nonzero" fill-opacity="1" /><path clip-path="url(#clip280)" d="M83.5845 1457.12 L88.4688 1457.12 L88.4688 1463 L83.5845 1463 L83.5845 1457.12 Z" fill="#000000" fill-rule="nonzero" fill-opacity="1" /><path clip-path="url(#clip280)" d="M108.654 1431.51 Q105.043 1431.51 103.214 1435.08 Q101.409 1438.62 101.409 1445.75 Q101.409 1452.86 103.214 1456.42 Q105.043 1459.96 108.654 1459.96 Q112.288 1459.96 114.094 1456.42 Q115.922 1452.86 115.922 1445.75 Q115.922 1438.62 114.094 1435.08 Q112.288 1431.51 108.654 1431.51 M108.654 1427.81 Q114.464 1427.81 117.52 1432.42 Q120.598 1437 120.598 1445.75 Q120.598 1454.48 117.52 1459.08 Q114.464 1463.67 108.654 1463.67 Q102.844 1463.67 99.765 1459.08 Q96.7095 1454.48 96.7095 1445.75 Q96.7095 1437 99.765 1432.42 Q102.844 1427.81 108.654 1427.81 Z" fill="#000000" fill-rule="nonzero" fill-opacity="1" /><path clip-path="url(#clip280)" d="M65.0198 1043.59 Q61.4087 1043.59 59.58 1047.15 Q57.7745 1050.7 57.7745 1057.82 Q57.7745 1064.93 59.58 1068.5 Q61.4087 1072.04 65.0198 1072.04 Q68.6541 1072.04 70.4596 1068.5 Q72.2883 1064.93 72.2883 1057.82 Q72.2883 1050.7 70.4596 1047.15 Q68.6541 1043.59 65.0198 1043.59 M65.0198 1039.89 Q70.83 1039.89 73.8855 1044.49 Q76.9642 1049.07 76.9642 1057.82 Q76.9642 1066.55 73.8855 1071.16 Q70.83 1075.74 65.0198 1075.74 Q59.2097 1075.74 56.131 1071.16 Q53.0754 1066.55 53.0754 1057.82 Q53.0754 1049.07 56.131 1044.49 Q59.2097 1039.89 65.0198 1039.89 Z" fill="#000000" fill-rule="nonzero" fill-opacity="1" /><path clip-path="url(#clip280)" d="M85.1818 1069.19 L90.066 1069.19 L90.066 1075.07 L85.1818 1075.07 L85.1818 1069.19 Z" fill="#000000" fill-rule="nonzero" fill-opacity="1" /><path clip-path="url(#clip280)" d="M104.279 1071.13 L120.598 1071.13 L120.598 1075.07 L98.6539 1075.07 L98.6539 1071.13 Q101.316 1068.38 105.899 1063.75 Q110.506 1059.1 111.686 1057.76 Q113.932 1055.23 114.811 1053.5 Q115.714 1051.74 115.714 1050.05 Q115.714 1047.29 113.77 1045.56 Q111.848 1043.82 108.746 1043.82 Q106.547 1043.82 104.094 1044.58 Q101.663 1045.35 98.8854 1046.9 L98.8854 1042.18 Q101.709 1041.04 104.163 1040.46 Q106.617 1039.89 108.654 1039.89 Q114.024 1039.89 117.219 1042.57 Q120.413 1045.26 120.413 1049.75 Q120.413 1051.88 119.603 1053.8 Q118.816 1055.7 116.709 1058.29 Q116.131 1058.96 113.029 1062.18 Q109.927 1065.37 104.279 1071.13 Z" fill="#000000" fill-rule="nonzero" fill-opacity="1" /><path clip-path="url(#clip280)" d="M62.9365 655.663 Q59.3254 655.663 57.4967 659.228 Q55.6912 662.77 55.6912 669.899 Q55.6912 677.006 57.4967 680.571 Q59.3254 684.112 62.9365 684.112 Q66.5707 684.112 68.3763 680.571 Q70.205 677.006 70.205 669.899 Q70.205 662.77 68.3763 659.228 Q66.5707 655.663 62.9365 655.663 M62.9365 651.96 Q68.7467 651.96 71.8022 656.566 Q74.8809 661.149 74.8809 669.899 Q74.8809 678.626 71.8022 683.233 Q68.7467 687.816 62.9365 687.816 Q57.1264 687.816 54.0477 683.233 Q50.9921 678.626 50.9921 669.899 Q50.9921 661.149 54.0477 656.566 Q57.1264 651.96 62.9365 651.96 Z" fill="#000000" fill-rule="nonzero" fill-opacity="1" /><path clip-path="url(#clip280)" d="M83.0984 681.265 L87.9827 681.265 L87.9827 687.145 L83.0984 687.145 L83.0984 681.265 Z" fill="#000000" fill-rule="nonzero" fill-opacity="1" /><path clip-path="url(#clip280)" d="M111.015 656.659 L99.2095 675.108 L111.015 675.108 L111.015 656.659 M109.788 652.585 L115.668 652.585 L115.668 675.108 L120.598 675.108 L120.598 678.996 L115.668 678.996 L115.668 687.145 L111.015 687.145 L111.015 678.996 L95.4132 678.996 L95.4132 674.483 L109.788 652.585 Z" fill="#000000" fill-rule="nonzero" fill-opacity="1" /><path clip-path="url(#clip280)" d="M63.2606 267.738 Q59.6495 267.738 57.8208 271.303 Q56.0152 274.844 56.0152 281.974 Q56.0152 289.08 57.8208 292.645 Q59.6495 296.187 63.2606 296.187 Q66.8948 296.187 68.7004 292.645 Q70.5291 289.08 70.5291 281.974 Q70.5291 274.844 68.7004 271.303 Q66.8948 267.738 63.2606 267.738 M63.2606 264.034 Q69.0707 264.034 72.1263 268.641 Q75.205 273.224 75.205 281.974 Q75.205 290.701 72.1263 295.307 Q69.0707 299.89 63.2606 299.89 Q57.4504 299.89 54.3717 295.307 Q51.3162 290.701 51.3162 281.974 Q51.3162 273.224 54.3717 268.641 Q57.4504 264.034 63.2606 264.034 Z" fill="#000000" fill-rule="nonzero" fill-opacity="1" /><path clip-path="url(#clip280)" d="M83.4225 293.339 L88.3067 293.339 L88.3067 299.219 L83.4225 299.219 L83.4225 293.339 Z" fill="#000000" fill-rule="nonzero" fill-opacity="1" /><path clip-path="url(#clip280)" d="M109.071 280.076 Q105.922 280.076 104.071 282.228 Q102.242 284.381 102.242 288.131 Q102.242 291.858 104.071 294.034 Q105.922 296.187 109.071 296.187 Q112.219 296.187 114.047 294.034 Q115.899 291.858 115.899 288.131 Q115.899 284.381 114.047 282.228 Q112.219 280.076 109.071 280.076 M118.353 265.423 L118.353 269.682 Q116.594 268.849 114.788 268.409 Q113.006 267.969 111.246 267.969 Q106.617 267.969 104.163 271.094 Q101.733 274.219 101.385 280.539 Q102.751 278.525 104.811 277.46 Q106.871 276.372 109.348 276.372 Q114.557 276.372 117.566 279.543 Q120.598 282.691 120.598 288.131 Q120.598 293.455 117.45 296.673 Q114.302 299.89 109.071 299.89 Q103.075 299.89 99.9039 295.307 Q96.7326 290.701 96.7326 281.974 Q96.7326 273.779 100.621 268.918 Q104.51 264.034 111.061 264.034 Q112.82 264.034 114.603 264.381 Q116.408 264.728 118.353 265.423 Z" fill="#000000" fill-rule="nonzero" fill-opacity="1" /><polyline clip-path="url(#clip282)" style="stroke:#009af9; stroke-linecap:round; stroke-linejoin:round; stroke-width:4; stroke-opacity:1; fill:none" points="218.754,87.9763 219.583,737.752 220.412,1154.77 221.241,1309.94 222.07,1329.34 222.899,1348.73 223.728,1358.43 224.557,1397.22 225.386,1377.83 226.215,1387.53 227.044,1406.92 227.873,1387.53 228.702,1358.43 229.532,1416.62 230.361,1397.22 231.19,1406.92 232.019,1416.62 232.848,1397.22 233.677,1377.83 234.506,1377.83 235.335,1445.72 236.164,1387.53 236.993,1397.22 237.822,1397.22 238.651,1426.32 239.48,1387.53 240.309,1397.22 241.139,1406.92 241.968,1377.83 242.797,1387.53 243.626,1426.32 244.455,1426.32 245.284,1426.32 246.113,1436.02 246.942,1377.83 247.771,1436.02 248.6,1406.92 249.429,1426.32 250.258,1406.92 251.087,1426.32 251.916,1397.22 252.746,1406.92 253.575,1387.53 254.404,1397.22 255.233,1368.13 256.062,1397.22 256.891,1436.02 257.72,1426.32 258.549,1416.62 259.378,1397.22 260.207,1397.22 261.036,1397.22 261.865,1406.92 262.694,1416.62 263.523,1406.92 264.353,1426.32 265.182,1358.43 266.011,1406.92 266.84,1397.22 267.669,1416.62 268.498,1416.62 269.327,1406.92 270.156,1406.92 270.985,1436.02 271.814,1416.62 272.643,1397.22 273.472,1426.32 274.301,1416.62 275.13,1426.32 275.959,1406.92 276.789,1445.72 277.618,1436.02 278.447,1416.62 279.276,1426.32 280.105,1416.62 280.934,1426.32 281.763,1416.62 282.592,1406.92 283.421,1397.22 284.25,1426.32 285.079,1416.62 285.908,1406.92 286.737,1387.53 287.566,1426.32 288.396,1416.62 289.225,1377.83 290.054,1397.22 290.883,1406.92 291.712,1436.02 292.541,1406.92 293.37,1416.62 294.199,1416.62 295.028,1387.53 295.857,1436.02 296.686,1406.92 297.515,1416.62 298.344,1445.72 299.173,1426.32 300.003,1445.72 300.832,1406.92 301.661,1426.32 302.49,1397.22 303.319,1416.62 304.148,1406.92 304.977,1436.02 305.806,1406.92 306.635,1426.32 307.464,1406.92 308.293,1387.53 309.122,1406.92 309.951,1426.32 310.78,1426.32 311.61,1406.92 312.439,1436.02 313.268,1406.92 314.097,1436.02 314.926,1426.32 315.755,1436.02 316.584,1426.32 317.413,1436.02 318.242,1426.32 319.071,1416.62 319.9,1416.62 320.729,1416.62 321.558,1348.73 322.387,1416.62 323.217,1387.53 324.046,1426.32 324.875,1406.92 325.704,1426.32 326.533,1387.53 327.362,1426.32 328.191,1387.53 329.02,1387.53 329.849,1426.32 330.678,1426.32 331.507,1387.53 332.336,1426.32 333.165,1406.92 333.994,1416.62 334.823,1416.62 335.653,1416.62 336.482,1426.32 337.311,1368.13 338.14,1416.62 338.969,1387.53 339.798,1426.32 340.627,1416.62 341.456,1397.22 342.285,1436.02 343.114,1416.62 343.943,1445.72 344.772,1387.53 345.601,1397.22 346.43,1397.22 347.26,1426.32 348.089,1406.92 348.918,1397.22 349.747,1406.92 350.576,1416.62 351.405,1416.62 352.234,1377.83 353.063,1436.02 353.892,1416.62 354.721,1436.02 355.55,1397.22 356.379,1397.22 357.208,1397.22 358.037,1426.32 358.867,1416.62 359.696,1397.22 360.525,1406.92 361.354,1406.92 362.183,1397.22 363.012,1416.62 363.841,1436.02 364.67,1426.32 365.499,1436.02 366.328,1426.32 367.157,1377.83 367.986,1368.13 368.815,1387.53 369.644,1426.32 370.474,1377.83 371.303,1436.02 372.132,1416.62 372.961,1436.02 373.79,1426.32 374.619,1416.62 375.448,1368.13 376.277,1397.22 377.106,1387.53 377.935,1387.53 378.764,1377.83 379.593,1416.62 380.422,1397.22 381.251,1406.92 382.081,1416.62 382.91,1426.32 383.739,1406.92 384.568,1426.32 385.397,1387.53 386.226,1426.32 387.055,1406.92 387.884,1426.32 388.713,1397.22 389.542,1436.02 390.371,1416.62 391.2,1436.02 392.029,1416.62 392.858,1416.62 393.687,1368.13 394.517,1426.32 395.346,1387.53 396.175,1426.32 397.004,1387.53 397.833,1406.92 398.662,1387.53 399.491,1406.92 400.32,1406.92 401.149,1406.92 401.978,1397.22 402.807,1387.53 403.636,1377.83 404.465,1436.02 405.294,1416.62 406.124,1397.22 406.953,1387.53 407.782,1436.02 408.611,1436.02 409.44,1387.53 410.269,1426.32 411.098,1416.62 411.927,1387.53 412.756,1387.53 413.585,1406.92 414.414,1397.22 415.243,1387.53 416.072,1406.92 416.901,1406.92 417.731,1416.62 418.56,1416.62 419.389,1377.83 420.218,1406.92 421.047,1387.53 421.876,1426.32 422.705,1416.62 423.534,1406.92 424.363,1397.22 425.192,1416.62 426.021,1416.62 426.85,1387.53 427.679,1368.13 428.508,1416.62 429.338,1319.64 430.167,1406.92 430.996,1406.92 431.825,1436.02 432.654,1387.53 433.483,1416.62 434.312,1426.32 435.141,1426.32 435.97,1397.22 436.799,1426.32 437.628,1436.02 438.457,1397.22 439.286,1377.83 440.115,1387.53 440.944,1406.92 441.774,1397.22 442.603,1426.32 443.432,1406.92 444.261,1416.62 445.09,1416.62 445.919,1426.32 446.748,1387.53 447.577,1416.62 448.406,1416.62 449.235,1416.62 450.064,1397.22 450.893,1397.22 451.722,1436.02 452.551,1397.22 453.381,1426.32 454.21,1436.02 455.039,1377.83 455.868,1426.32 456.697,1416.62 457.526,1416.62 458.355,1387.53 459.184,1387.53 460.013,1377.83 460.842,1397.22 461.671,1406.92 462.5,1368.13 463.329,1436.02 464.158,1416.62 464.988,1426.32 465.817,1436.02 466.646,1416.62 467.475,1397.22 468.304,1416.62 469.133,1387.53 469.962,1426.32 470.791,1406.92 471.62,1397.22 472.449,1445.72 473.278,1436.02 474.107,1406.92 474.936,1436.02 475.765,1406.92 476.595,1416.62 477.424,1436.02 478.253,1426.32 479.082,1416.62 479.911,1436.02 480.74,1397.22 481.569,1397.22 482.398,1397.22 483.227,1406.92 484.056,1416.62 484.885,1397.22 485.714,1406.92 486.543,1426.32 487.372,1445.72 488.202,1436.02 489.031,1387.53 489.86,1397.22 490.689,1436.02 491.518,1416.62 492.347,1397.22 493.176,1426.32 494.005,1436.02 494.834,1436.02 495.663,1406.92 496.492,1416.62 497.321,1416.62 498.15,1426.32 498.979,1436.02 499.808,1406.92 500.638,1436.02 501.467,1436.02 502.296,1445.72 503.125,1416.62 503.954,1426.32 504.783,1406.92 505.612,1397.22 506.441,1436.02 507.27,1426.32 508.099,1416.62 508.928,1426.32 509.757,1406.92 510.586,1397.22 511.415,1387.53 512.245,1416.62 513.074,1426.32 513.903,1436.02 514.732,1406.92 515.561,1426.32 516.39,1377.83 517.219,1406.92 518.048,1416.62 518.877,1397.22 519.706,1426.32 520.535,1426.32 521.364,1397.22 522.193,1406.92 523.022,1426.32 523.852,1406.92 524.681,1426.32 525.51,1436.02 526.339,1436.02 527.168,1416.62 527.997,1416.62 528.826,1416.62 529.655,1416.62 530.484,1426.32 531.313,1406.92 532.142,1368.13 532.971,1436.02 533.8,1436.02 534.629,1397.22 535.459,1397.22 536.288,1406.92 537.117,1387.53 537.946,1426.32 538.775,1426.32 539.604,1436.02 540.433,1426.32 541.262,1358.43 542.091,1397.22 542.92,1416.62 543.749,1445.72 544.578,1397.22 545.407,1426.32 546.236,1377.83 547.066,1416.62 547.895,1416.62 548.724,1397.22 549.553,1387.53 550.382,1416.62 551.211,1426.32 552.04,1416.62 552.869,1416.62 553.698,1436.02 554.527,1406.92 555.356,1406.92 556.185,1416.62 557.014,1406.92 557.843,1436.02 558.672,1416.62 559.502,1416.62 560.331,1416.62 561.16,1406.92 561.989,1406.92 562.818,1406.92 563.647,1406.92 564.476,1416.62 565.305,1445.72 566.134,1406.92 566.963,1358.43 567.792,1406.92 568.621,1377.83 569.45,1377.83 570.279,1416.62 571.109,1416.62 571.938,1426.32 572.767,1406.92 573.596,1368.13 574.425,1426.32 575.254,1387.53 576.083,1426.32 576.912,1387.53 577.741,1397.22 578.57,1406.92 579.399,1329.34 580.228,1358.43 581.057,1426.32 581.886,1426.32 582.716,1406.92 583.545,1406.92 584.374,1406.92 585.203,1426.32 586.032,1387.53 586.861,1397.22 587.69,1426.32 588.519,1397.22 589.348,1397.22 590.177,1387.53 591.006,1436.02 591.835,1377.83 592.664,1416.62 593.493,1436.02 594.323,1406.92 595.152,1436.02 595.981,1406.92 596.81,1416.62 597.639,1436.02 598.468,1436.02 599.297,1445.72 600.126,1426.32 600.955,1416.62 601.784,1406.92 602.613,1416.62 603.442,1426.32 604.271,1426.32 605.1,1406.92 605.93,1416.62 606.759,1436.02 607.588,1426.32 608.417,1406.92 609.246,1436.02 610.075,1436.02 610.904,1426.32 611.733,1416.62 612.562,1387.53 613.391,1377.83 614.22,1397.22 615.049,1445.72 615.878,1426.32 616.707,1406.92 617.536,1436.02 618.366,1377.83 619.195,1426.32 620.024,1377.83 620.853,1416.62 621.682,1406.92 622.511,1397.22 623.34,1416.62 624.169,1426.32 624.998,1387.53 625.827,1397.22 626.656,1368.13 627.485,1426.32 628.314,1416.62 629.143,1416.62 629.973,1416.62 630.802,1416.62 631.631,1436.02 632.46,1397.22 633.289,1387.53 634.118,1416.62 634.947,1416.62 635.776,1387.53 636.605,1406.92 637.434,1387.53 638.263,1397.22 639.092,1416.62 639.921,1397.22 640.75,1426.32 641.58,1416.62 642.409,1368.13 643.238,1416.62 644.067,1436.02 644.896,1387.53 645.725,1387.53 646.554,1426.32 647.383,1406.92 648.212,1445.72 649.041,1406.92 649.87,1436.02 650.699,1397.22 651.528,1387.53 652.357,1406.92 653.187,1387.53 654.016,1426.32 654.845,1387.53 655.674,1416.62 656.503,1416.62 657.332,1397.22 658.161,1377.83 658.99,1416.62 659.819,1416.62 660.648,1416.62 661.477,1406.92 662.306,1436.02 663.135,1397.22 663.964,1436.02 664.794,1416.62 665.623,1406.92 666.452,1436.02 667.281,1445.72 668.11,1416.62 668.939,1387.53 669.768,1387.53 670.597,1426.32 671.426,1406.92 672.255,1436.02 673.084,1387.53 673.913,1416.62 674.742,1397.22 675.571,1436.02 676.4,1436.02 677.23,1397.22 678.059,1397.22 678.888,1426.32 679.717,1416.62 680.546,1436.02 681.375,1377.83 682.204,1397.22 683.033,1397.22 683.862,1416.62 684.691,1436.02 685.52,1426.32 686.349,1436.02 687.178,1416.62 688.007,1397.22 688.837,1397.22 689.666,1436.02 690.495,1436.02 691.324,1397.22 692.153,1445.72 692.982,1416.62 693.811,1406.92 694.64,1426.32 695.469,1445.72 696.298,1436.02 697.127,1426.32 697.956,1436.02 698.785,1436.02 699.614,1426.32 700.444,1426.32 701.273,1416.62 702.102,1445.72 702.931,1436.02 703.76,1406.92 704.589,1416.62 705.418,1436.02 706.247,1406.92 707.076,1426.32 707.905,1397.22 708.734,1406.92 709.563,1387.53 710.392,1445.72 711.221,1387.53 712.051,1397.22 712.88,1416.62 713.709,1445.72 714.538,1416.62 715.367,1416.62 716.196,1426.32 717.025,1416.62 717.854,1426.32 718.683,1397.22 719.512,1397.22 720.341,1406.92 721.17,1416.62 721.999,1406.92 722.828,1436.02 723.657,1368.13 724.487,1436.02 725.316,1416.62 726.145,1426.32 726.974,1416.62 727.803,1406.92 728.632,1368.13 729.461,1406.92 730.29,1416.62 731.119,1426.32 731.948,1416.62 732.777,1436.02 733.606,1397.22 734.435,1358.43 735.264,1397.22 736.094,1397.22 736.923,1397.22 737.752,1397.22 738.581,1387.53 739.41,1426.32 740.239,1387.53 741.068,1406.92 741.897,1426.32 742.726,1426.32 743.555,1397.22 744.384,1426.32 745.213,1416.62 746.042,1416.62 746.871,1445.72 747.701,1406.92 748.53,1416.62 749.359,1426.32 750.188,1406.92 751.017,1416.62 751.846,1436.02 752.675,1416.62 753.504,1426.32 754.333,1387.53 755.162,1416.62 755.991,1406.92 756.82,1387.53 757.649,1368.13 758.478,1406.92 759.308,1416.62 760.137,1436.02 760.966,1406.92 761.795,1416.62 762.624,1426.32 763.453,1406.92 764.282,1436.02 765.111,1387.53 765.94,1416.62 766.769,1436.02 767.598,1426.32 768.427,1397.22 769.256,1445.72 770.085,1436.02 770.915,1416.62 771.744,1406.92 772.573,1416.62 773.402,1436.02 774.231,1406.92 775.06,1416.62 775.889,1426.32 776.718,1416.62 777.547,1397.22 778.376,1406.92 779.205,1397.22 780.034,1426.32 780.863,1397.22 781.692,1426.32 782.521,1397.22 783.351,1436.02 784.18,1416.62 785.009,1416.62 785.838,1406.92 786.667,1426.32 787.496,1406.92 788.325,1436.02 789.154,1406.92 789.983,1436.02 790.812,1416.62 791.641,1406.92 792.47,1406.92 793.299,1387.53 794.128,1406.92 794.958,1397.22 795.787,1416.62 796.616,1416.62 797.445,1406.92 798.274,1416.62 799.103,1426.32 799.932,1416.62 800.761,1445.72 801.59,1426.32 802.419,1406.92 803.248,1416.62 804.077,1416.62 804.906,1416.62 805.735,1416.62 806.565,1416.62 807.394,1426.32 808.223,1426.32 809.052,1436.02 809.881,1416.62 810.71,1436.02 811.539,1426.32 812.368,1426.32 813.197,1436.02 814.026,1436.02 814.855,1445.72 815.684,1436.02 816.513,1426.32 817.342,1426.32 818.172,1426.32 819.001,1416.62 819.83,1436.02 820.659,1436.02 821.488,1406.92 822.317,1416.62 823.146,1445.72 823.975,1397.22 824.804,1397.22 825.633,1445.72 826.462,1436.02 827.291,1436.02 828.12,1436.02 828.949,1426.32 829.779,1436.02 830.608,1436.02 831.437,1426.32 832.266,1445.72 833.095,1416.62 833.924,1406.92 834.753,1426.32 835.582,1436.02 836.411,1426.32 837.24,1416.62 838.069,1426.32 838.898,1416.62 839.727,1445.72 840.556,1426.32 841.385,1397.22 842.215,1406.92 843.044,1416.62 843.873,1416.62 844.702,1406.92 845.531,1426.32 846.36,1397.22 847.189,1406.92 848.018,1426.32 848.847,1416.62 849.676,1416.62 850.505,1426.32 851.334,1397.22 852.163,1426.32 852.992,1426.32 853.822,1406.92 854.651,1436.02 855.48,1416.62 856.309,1426.32 857.138,1397.22 857.967,1397.22 858.796,1445.72 859.625,1436.02 860.454,1416.62 861.283,1436.02 862.112,1445.72 862.941,1445.72 863.77,1416.62 864.599,1397.22 865.429,1445.72 866.258,1426.32 867.087,1426.32 867.916,1426.32 868.745,1397.22 869.574,1426.32 870.403,1416.62 871.232,1436.02 872.061,1445.72 872.89,1436.02 873.719,1406.92 874.548,1445.72 875.377,1436.02 876.206,1436.02 877.036,1426.32 877.865,1416.62 878.694,1426.32 879.523,1445.72 880.352,1426.32 881.181,1387.53 882.01,1426.32 882.839,1426.32 883.668,1445.72 884.497,1426.32 885.326,1436.02 886.155,1436.02 886.984,1445.72 887.813,1436.02 888.643,1416.62 889.472,1426.32 890.301,1445.72 891.13,1426.32 891.959,1445.72 892.788,1436.02 893.617,1387.53 894.446,1416.62 895.275,1426.32 896.104,1436.02 896.933,1416.62 897.762,1426.32 898.591,1406.92 899.42,1387.53 900.249,1426.32 901.079,1426.32 901.908,1436.02 902.737,1445.72 903.566,1377.83 904.395,1445.72 905.224,1397.22 906.053,1436.02 906.882,1426.32 907.711,1406.92 908.54,1426.32 909.369,1397.22 910.198,1406.92 911.027,1339.04 911.856,1368.13 912.686,1406.92 913.515,1426.32 914.344,1445.72 915.173,1387.53 916.002,1426.32 916.831,1426.32 917.66,1436.02 918.489,1416.62 919.318,1426.32 920.147,1436.02 920.976,1406.92 921.805,1406.92 922.634,1426.32 923.463,1445.72 924.293,1426.32 925.122,1426.32 925.951,1416.62 926.78,1436.02 927.609,1416.62 928.438,1426.32 929.267,1416.62 930.096,1406.92 930.925,1426.32 931.754,1406.92 932.583,1406.92 933.412,1445.72 934.241,1436.02 935.07,1416.62 935.9,1397.22 936.729,1358.43 937.558,1426.32 938.387,1426.32 939.216,1368.13 940.045,1406.92 940.874,1426.32 941.703,1416.62 942.532,1406.92 943.361,1436.02 944.19,1416.62 945.019,1406.92 945.848,1416.62 946.677,1406.92 947.506,1416.62 948.336,1426.32 949.165,1406.92 949.994,1436.02 950.823,1426.32 951.652,1436.02 952.481,1426.32 953.31,1416.62 954.139,1426.32 954.968,1406.92 955.797,1436.02 956.626,1406.92 957.455,1426.32 958.284,1397.22 959.113,1445.72 959.943,1416.62 960.772,1406.92 961.601,1416.62 962.43,1426.32 963.259,1416.62 964.088,1397.22 964.917,1397.22 965.746,1426.32 966.575,1397.22 967.404,1377.83 968.233,1406.92 969.062,1406.92 969.891,1436.02 970.72,1426.32 971.55,1397.22 972.379,1436.02 973.208,1426.32 974.037,1426.32 974.866,1397.22 975.695,1368.13 976.524,1426.32 977.353,1406.92 978.182,1426.32 979.011,1377.83 979.84,1426.32 980.669,1436.02 981.498,1397.22 982.327,1397.22 983.157,1436.02 983.986,1397.22 984.815,1358.43 985.644,1416.62 986.473,1426.32 987.302,1445.72 988.131,1426.32 988.96,1426.32 989.789,1387.53 990.618,1445.72 991.447,1406.92 992.276,1406.92 993.105,1426.32 993.934,1416.62 994.764,1387.53 995.593,1406.92 996.422,1387.53 997.251,1426.32 998.08,1406.92 998.909,1416.62 999.738,1377.83 1000.57,1426.32 1001.4,1416.62 1002.23,1406.92 1003.05,1387.53 1003.88,1406.92 1004.71,1426.32 1005.54,1406.92 1006.37,1426.32 1007.2,1406.92 1008.03,1436.02 1008.86,1426.32 1009.69,1416.62 1010.52,1397.22 1011.34,1445.72 1012.17,1426.32 1013,1436.02 1013.83,1436.02 1014.66,1426.32 1015.49,1416.62 1016.32,1445.72 1017.15,1406.92 1017.98,1426.32 1018.81,1406.92 1019.64,1436.02 1020.46,1426.32 1021.29,1426.32 1022.12,1436.02 1022.95,1406.92 1023.78,1387.53 1024.61,1426.32 1025.44,1426.32 1026.27,1426.32 1027.1,1387.53 1027.93,1436.02 1028.76,1426.32 1029.58,1426.32 1030.41,1436.02 1031.24,1406.92 1032.07,1387.53 1032.9,1436.02 1033.73,1416.62 1034.56,1426.32 1035.39,1406.92 1036.22,1426.32 1037.05,1416.62 1037.88,1397.22 1038.7,1406.92 1039.53,1426.32 1040.36,1406.92 1041.19,1397.22 1042.02,1416.62 1042.85,1416.62 1043.68,1416.62 1044.51,1436.02 1045.34,1436.02 1046.17,1397.22 1046.99,1436.02 1047.82,1406.92 1048.65,1445.72 1049.48,1406.92 1050.31,1436.02 1051.14,1397.22 1051.97,1416.62 1052.8,1416.62 1053.63,1358.43 1054.46,1416.62 1055.29,1416.62 1056.11,1406.92 1056.94,1436.02 1057.77,1406.92 1058.6,1416.62 1059.43,1426.32 1060.26,1426.32 1061.09,1416.62 1061.92,1445.72 1062.75,1387.53 1063.58,1436.02 1064.41,1426.32 1065.23,1445.72 1066.06,1445.72 1066.89,1406.92 1067.72,1426.32 1068.55,1377.83 1069.38,1445.72 1070.21,1416.62 1071.04,1426.32 1071.87,1406.92 1072.7,1436.02 1073.53,1426.32 1074.35,1426.32 1075.18,1445.72 1076.01,1416.62 1076.84,1445.72 1077.67,1436.02 1078.5,1436.02 1079.33,1426.32 1080.16,1426.32 1080.99,1426.32 1081.82,1426.32 1082.64,1406.92 1083.47,1416.62 1084.3,1436.02 1085.13,1416.62 1085.96,1416.62 1086.79,1426.32 1087.62,1416.62 1088.45,1436.02 1089.28,1436.02 1090.11,1426.32 1090.94,1426.32 1091.76,1426.32 1092.59,1416.62 1093.42,1416.62 1094.25,1416.62 1095.08,1416.62 1095.91,1426.32 1096.74,1416.62 1097.57,1426.32 1098.4,1426.32 1099.23,1368.13 1100.06,1406.92 1100.88,1397.22 1101.71,1397.22 1102.54,1416.62 1103.37,1406.92 1104.2,1416.62 1105.03,1426.32 1105.86,1426.32 1106.69,1406.92 1107.52,1436.02 1108.35,1416.62 1109.18,1406.92 1110,1406.92 1110.83,1416.62 1111.66,1426.32 1112.49,1436.02 1113.32,1397.22 1114.15,1406.92 1114.98,1416.62 1115.81,1445.72 1116.64,1445.72 1117.47,1426.32 1118.29,1416.62 1119.12,1406.92 1119.95,1397.22 1120.78,1416.62 1121.61,1436.02 1122.44,1436.02 1123.27,1436.02 1124.1,1406.92 1124.93,1436.02 1125.76,1416.62 1126.59,1397.22 1127.41,1426.32 1128.24,1416.62 1129.07,1416.62 1129.9,1416.62 1130.73,1436.02 1131.56,1445.72 1132.39,1397.22 1133.22,1416.62 1134.05,1406.92 1134.88,1445.72 1135.71,1436.02 1136.53,1445.72 1137.36,1416.62 1138.19,1406.92 1139.02,1387.53 1139.85,1436.02 1140.68,1416.62 1141.51,1436.02 1142.34,1426.32 1143.17,1426.32 1144,1406.92 1144.83,1416.62 1145.65,1368.13 1146.48,1436.02 1147.31,1397.22 1148.14,1406.92 1148.97,1397.22 1149.8,1397.22 1150.63,1406.92 1151.46,1416.62 1152.29,1397.22 1153.12,1406.92 1153.95,1426.32 1154.77,1387.53 1155.6,1416.62 1156.43,1397.22 1157.26,1416.62 1158.09,1387.53 1158.92,1436.02 1159.75,1426.32 1160.58,1426.32 1161.41,1445.72 1162.24,1436.02 1163.06,1416.62 1163.89,1436.02 1164.72,1426.32 1165.55,1377.83 1166.38,1406.92 1167.21,1426.32 1168.04,1426.32 1168.87,1436.02 1169.7,1416.62 1170.53,1397.22 1171.36,1406.92 1172.18,1416.62 1173.01,1406.92 1173.84,1445.72 1174.67,1426.32 1175.5,1416.62 1176.33,1406.92 1177.16,1436.02 1177.99,1426.32 1178.82,1416.62 1179.65,1426.32 1180.48,1397.22 1181.3,1426.32 1182.13,1406.92 1182.96,1436.02 1183.79,1445.72 1184.62,1436.02 1185.45,1416.62 1186.28,1397.22 1187.11,1426.32 1187.94,1416.62 1188.77,1426.32 1189.6,1436.02 1190.42,1426.32 1191.25,1436.02 1192.08,1416.62 1192.91,1436.02 1193.74,1445.72 1194.57,1416.62 1195.4,1416.62 1196.23,1416.62 1197.06,1377.83 1197.89,1426.32 1198.71,1406.92 1199.54,1406.92 1200.37,1445.72 1201.2,1406.92 1202.03,1406.92 1202.86,1416.62 1203.69,1436.02 1204.52,1436.02 1205.35,1377.83 1206.18,1406.92 1207.01,1436.02 1207.83,1416.62 1208.66,1426.32 1209.49,1406.92 1210.32,1416.62 1211.15,1426.32 1211.98,1436.02 1212.81,1416.62 1213.64,1387.53 1214.47,1436.02 1215.3,1387.53 1216.13,1436.02 1216.95,1406.92 1217.78,1416.62 1218.61,1445.72 1219.44,1445.72 1220.27,1426.32 1221.1,1416.62 1221.93,1426.32 1222.76,1416.62 1223.59,1397.22 1224.42,1445.72 1225.25,1445.72 1226.07,1416.62 1226.9,1397.22 1227.73,1436.02 1228.56,1426.32 1229.39,1426.32 1230.22,1406.92 1231.05,1436.02 1231.88,1445.72 1232.71,1426.32 1233.54,1416.62 1234.36,1416.62 1235.19,1426.32 1236.02,1406.92 1236.85,1426.32 1237.68,1406.92 1238.51,1436.02 1239.34,1445.72 1240.17,1436.02 1241,1426.32 1241.83,1416.62 1242.66,1436.02 1243.48,1436.02 1244.31,1387.53 1245.14,1406.92 1245.97,1445.72 1246.8,1397.22 1247.63,1387.53 1248.46,1416.62 1249.29,1426.32 1250.12,1436.02 1250.95,1416.62 1251.78,1406.92 1252.6,1436.02 1253.43,1397.22 1254.26,1387.53 1255.09,1416.62 1255.92,1436.02 1256.75,1416.62 1257.58,1406.92 1258.41,1416.62 1259.24,1436.02 1260.07,1416.62 1260.9,1426.32 1261.72,1377.83 1262.55,1377.83 1263.38,1406.92 1264.21,1406.92 1265.04,1387.53 1265.87,1416.62 1266.7,1426.32 1267.53,1436.02 1268.36,1416.62 1269.19,1426.32 1270.01,1416.62 1270.84,1406.92 1271.67,1426.32 1272.5,1387.53 1273.33,1426.32 1274.16,1397.22 1274.99,1416.62 1275.82,1406.92 1276.65,1416.62 1277.48,1436.02 1278.31,1436.02 1279.13,1406.92 1279.96,1436.02 1280.79,1445.72 1281.62,1436.02 1282.45,1406.92 1283.28,1416.62 1284.11,1397.22 1284.94,1426.32 1285.77,1406.92 1286.6,1406.92 1287.43,1426.32 1288.25,1416.62 1289.08,1416.62 1289.91,1406.92 1290.74,1416.62 1291.57,1377.83 1292.4,1368.13 1293.23,1377.83 1294.06,1339.04 1294.89,1397.22 1295.72,1416.62 1296.55,1397.22 1297.37,1348.73 1298.2,1387.53 1299.03,1387.53 1299.86,1406.92 1300.69,1426.32 1301.52,1368.13 1302.35,1387.53 1303.18,1397.22 1304.01,1397.22 1304.84,1416.62 1305.66,1397.22 1306.49,1387.53 1307.32,1377.83 1308.15,1426.32 1308.98,1426.32 1309.81,1397.22 1310.64,1416.62 1311.47,1406.92 1312.3,1426.32 1313.13,1416.62 1313.96,1406.92 1314.78,1436.02 1315.61,1436.02 1316.44,1445.72 1317.27,1397.22 1318.1,1426.32 1318.93,1426.32 1319.76,1416.62 1320.59,1426.32 1321.42,1416.62 1322.25,1416.62 1323.08,1406.92 1323.9,1377.83 1324.73,1406.92 1325.56,1416.62 1326.39,1426.32 1327.22,1406.92 1328.05,1397.22 1328.88,1416.62 1329.71,1416.62 1330.54,1445.72 1331.37,1416.62 1332.2,1416.62 1333.02,1426.32 1333.85,1436.02 1334.68,1426.32 1335.51,1406.92 1336.34,1416.62 1337.17,1426.32 1338,1377.83 1338.83,1445.72 1339.66,1436.02 1340.49,1406.92 1341.31,1436.02 1342.14,1416.62 1342.97,1426.32 1343.8,1416.62 1344.63,1397.22 1345.46,1406.92 1346.29,1445.72 1347.12,1416.62 1347.95,1436.02 1348.78,1406.92 1349.61,1426.32 1350.43,1416.62 1351.26,1436.02 1352.09,1436.02 1352.92,1397.22 1353.75,1406.92 1354.58,1406.92 1355.41,1426.32 1356.24,1416.62 1357.07,1416.62 1357.9,1426.32 1358.73,1426.32 1359.55,1445.72 1360.38,1436.02 1361.21,1445.72 1362.04,1445.72 1362.87,1416.62 1363.7,1436.02 1364.53,1416.62 1365.36,1406.92 1366.19,1445.72 1367.02,1406.92 1367.85,1426.32 1368.67,1436.02 1369.5,1416.62 1370.33,1436.02 1371.16,1436.02 1371.99,1436.02 1372.82,1426.32 1373.65,1426.32 1374.48,1436.02 1375.31,1436.02 1376.14,1426.32 1376.96,1436.02 1377.79,1426.32 1378.62,1368.13 1379.45,1397.22 1380.28,1416.62 1381.11,1426.32 1381.94,1416.62 1382.77,1426.32 1383.6,1368.13 1384.43,1426.32 1385.26,1426.32 1386.08,1416.62 1386.91,1406.92 1387.74,1377.83 1388.57,1426.32 1389.4,1397.22 1390.23,1416.62 1391.06,1416.62 1391.89,1397.22 1392.72,1436.02 1393.55,1397.22 1394.38,1397.22 1395.2,1377.83 1396.03,1397.22 1396.86,1406.92 1397.69,1406.92 1398.52,1436.02 1399.35,1387.53 1400.18,1426.32 1401.01,1416.62 1401.84,1406.92 1402.67,1426.32 1403.5,1416.62 1404.32,1416.62 1405.15,1426.32 1405.98,1416.62 1406.81,1397.22 1407.64,1436.02 1408.47,1436.02 1409.3,1426.32 1410.13,1436.02 1410.96,1387.53 1411.79,1387.53 1412.61,1445.72 1413.44,1416.62 1414.27,1436.02 1415.1,1426.32 1415.93,1406.92 1416.76,1436.02 1417.59,1426.32 1418.42,1426.32 1419.25,1416.62 1420.08,1436.02 1420.91,1445.72 1421.73,1436.02 1422.56,1416.62 1423.39,1426.32 1424.22,1436.02 1425.05,1416.62 1425.88,1436.02 1426.71,1416.62 1427.54,1426.32 1428.37,1426.32 1429.2,1426.32 1430.03,1416.62 1430.85,1426.32 1431.68,1397.22 1432.51,1397.22 1433.34,1436.02 1434.17,1406.92 1435,1416.62 1435.83,1436.02 1436.66,1416.62 1437.49,1426.32 1438.32,1426.32 1439.15,1397.22 1439.97,1416.62 1440.8,1426.32 1441.63,1416.62 1442.46,1406.92 1443.29,1406.92 1444.12,1406.92 1444.95,1426.32 1445.78,1416.62 1446.61,1416.62 1447.44,1436.02 1448.27,1436.02 1449.09,1436.02 1449.92,1426.32 1450.75,1416.62 1451.58,1436.02 1452.41,1397.22 1453.24,1416.62 1454.07,1436.02 1454.9,1397.22 1455.73,1416.62 1456.56,1406.92 1457.38,1416.62 1458.21,1406.92 1459.04,1416.62 1459.87,1416.62 1460.7,1416.62 1461.53,1426.32 1462.36,1397.22 1463.19,1436.02 1464.02,1436.02 1464.85,1397.22 1465.68,1416.62 1466.5,1397.22 1467.33,1436.02 1468.16,1416.62 1468.99,1445.72 1469.82,1416.62 1470.65,1445.72 1471.48,1436.02 1472.31,1426.32 1473.14,1426.32 1473.97,1406.92 1474.8,1426.32 1475.62,1406.92 1476.45,1406.92 1477.28,1416.62 1478.11,1387.53 1478.94,1406.92 1479.77,1436.02 1480.6,1406.92 1481.43,1445.72 1482.26,1406.92 1483.09,1377.83 1483.92,1426.32 1484.74,1416.62 1485.57,1426.32 1486.4,1397.22 1487.23,1436.02 1488.06,1416.62 1488.89,1397.22 1489.72,1406.92 1490.55,1426.32 1491.38,1416.62 1492.21,1406.92 1493.03,1426.32 1493.86,1387.53 1494.69,1406.92 1495.52,1426.32 1496.35,1416.62 1497.18,1436.02 1498.01,1445.72 1498.84,1406.92 1499.67,1436.02 1500.5,1416.62 1501.33,1436.02 1502.15,1426.32 1502.98,1416.62 1503.81,1416.62 1504.64,1426.32 1505.47,1426.32 1506.3,1416.62 1507.13,1387.53 1507.96,1416.62 1508.79,1397.22 1509.62,1416.62 1510.45,1416.62 1511.27,1436.02 1512.1,1426.32 1512.93,1426.32 1513.76,1406.92 1514.59,1426.32 1515.42,1406.92 1516.25,1416.62 1517.08,1377.83 1517.91,1416.62 1518.74,1436.02 1519.57,1406.92 1520.39,1406.92 1521.22,1416.62 1522.05,1377.83 1522.88,1397.22 1523.71,1406.92 1524.54,1416.62 1525.37,1397.22 1526.2,1387.53 1527.03,1387.53 1527.86,1426.32 1528.68,1416.62 1529.51,1436.02 1530.34,1387.53 1531.17,1397.22 1532,1406.92 1532.83,1416.62 1533.66,1397.22 1534.49,1397.22 1535.32,1416.62 1536.15,1406.92 1536.98,1416.62 1537.8,1406.92 1538.63,1436.02 1539.46,1436.02 1540.29,1436.02 1541.12,1426.32 1541.95,1406.92 1542.78,1426.32 1543.61,1445.72 1544.44,1426.32 1545.27,1416.62 1546.1,1436.02 1546.92,1416.62 1547.75,1426.32 1548.58,1426.32 1549.41,1406.92 1550.24,1416.62 1551.07,1406.92 1551.9,1426.32 1552.73,1436.02 1553.56,1416.62 1554.39,1426.32 1555.22,1445.72 1556.04,1387.53 1556.87,1416.62 1557.7,1445.72 1558.53,1436.02 1559.36,1416.62 1560.19,1436.02 1561.02,1406.92 1561.85,1436.02 1562.68,1426.32 1563.51,1426.32 1564.33,1426.32 1565.16,1436.02 1565.99,1416.62 1566.82,1426.32 1567.65,1426.32 1568.48,1406.92 1569.31,1406.92 1570.14,1416.62 1570.97,1416.62 1571.8,1387.53 1572.63,1416.62 1573.45,1426.32 1574.28,1416.62 1575.11,1406.92 1575.94,1445.72 1576.77,1416.62 1577.6,1426.32 1578.43,1416.62 1579.26,1445.72 1580.09,1436.02 1580.92,1436.02 1581.75,1436.02 1582.57,1426.32 1583.4,1426.32 1584.23,1426.32 1585.06,1406.92 1585.89,1348.73 1586.72,1416.62 1587.55,1387.53 1588.38,1416.62 1589.21,1406.92 1590.04,1445.72 1590.87,1416.62 1591.69,1397.22 1592.52,1416.62 1593.35,1436.02 1594.18,1406.92 1595.01,1436.02 1595.84,1426.32 1596.67,1416.62 1597.5,1436.02 1598.33,1436.02 1599.16,1426.32 1599.98,1416.62 1600.81,1416.62 1601.64,1445.72 1602.47,1426.32 1603.3,1426.32 1604.13,1426.32 1604.96,1426.32 1605.79,1416.62 1606.62,1426.32 1607.45,1416.62 1608.28,1426.32 1609.1,1406.92 1609.93,1416.62 1610.76,1436.02 1611.59,1416.62 1612.42,1426.32 1613.25,1416.62 1614.08,1426.32 1614.91,1406.92 1615.74,1426.32 1616.57,1397.22 1617.4,1436.02 1618.22,1387.53 1619.05,1436.02 1619.88,1416.62 1620.71,1387.53 1621.54,1416.62 1622.37,1436.02 1623.2,1397.22 1624.03,1368.13 1624.86,1397.22 1625.69,1406.92 1626.52,1416.62 1627.34,1426.32 1628.17,1436.02 1629,1436.02 1629.83,1445.72 1630.66,1416.62 1631.49,1445.72 1632.32,1416.62 1633.15,1387.53 1633.98,1387.53 1634.81,1436.02 1635.63,1416.62 1636.46,1426.32 1637.29,1416.62 1638.12,1397.22 1638.95,1436.02 1639.78,1445.72 1640.61,1416.62 1641.44,1397.22 1642.27,1426.32 1643.1,1377.83 1643.93,1416.62 1644.75,1416.62 1645.58,1436.02 1646.41,1397.22 1647.24,1436.02 1648.07,1406.92 1648.9,1387.53 1649.73,1426.32 1650.56,1436.02 1651.39,1406.92 1652.22,1426.32 1653.05,1397.22 1653.87,1416.62 1654.7,1426.32 1655.53,1436.02 1656.36,1406.92 1657.19,1445.72 1658.02,1436.02 1658.85,1436.02 1659.68,1426.32 1660.51,1416.62 1661.34,1426.32 1662.17,1436.02 1662.99,1416.62 1663.82,1426.32 1664.65,1387.53 1665.48,1436.02 1666.31,1406.92 1667.14,1445.72 1667.97,1406.92 1668.8,1397.22 1669.63,1426.32 1670.46,1387.53 1671.28,1397.22 1672.11,1387.53 1672.94,1397.22 1673.77,1377.83 1674.6,1426.32 1675.43,1397.22 1676.26,1387.53 1677.09,1416.62 1677.92,1397.22 1678.75,1416.62 1679.58,1436.02 1680.4,1406.92 1681.23,1397.22 1682.06,1416.62 1682.89,1377.83 1683.72,1358.43 1684.55,1436.02 1685.38,1416.62 1686.21,1426.32 1687.04,1436.02 1687.87,1426.32 1688.7,1416.62 1689.52,1436.02 1690.35,1416.62 1691.18,1387.53 1692.01,1397.22 1692.84,1416.62 1693.67,1426.32 1694.5,1416.62 1695.33,1406.92 1696.16,1426.32 1696.99,1426.32 1697.82,1436.02 1698.64,1416.62 1699.47,1436.02 1700.3,1416.62 1701.13,1426.32 1701.96,1416.62 1702.79,1416.62 1703.62,1387.53 1704.45,1406.92 1705.28,1406.92 1706.11,1377.83 1706.93,1406.92 1707.76,1387.53 1708.59,1416.62 1709.42,1406.92 1710.25,1406.92 1711.08,1416.62 1711.91,1387.53 1712.74,1397.22 1713.57,1406.92 1714.4,1426.32 1715.23,1406.92 1716.05,1416.62 1716.88,1397.22 1717.71,1416.62 1718.54,1406.92 1719.37,1387.53 1720.2,1416.62 1721.03,1416.62 1721.86,1406.92 1722.69,1387.53 1723.52,1416.62 1724.35,1436.02 1725.17,1397.22 1726,1416.62 1726.83,1416.62 1727.66,1426.32 1728.49,1426.32 1729.32,1416.62 1730.15,1436.02 1730.98,1426.32 1731.81,1426.32 1732.64,1406.92 1733.47,1426.32 1734.29,1416.62 1735.12,1436.02 1735.95,1436.02 1736.78,1426.32 1737.61,1397.22 1738.44,1397.22 1739.27,1416.62 1740.1,1426.32 1740.93,1406.92 1741.76,1416.62 1742.58,1406.92 1743.41,1416.62 1744.24,1397.22 1745.07,1397.22 1745.9,1397.22 1746.73,1426.32 1747.56,1387.53 1748.39,1426.32 1749.22,1436.02 1750.05,1377.83 1750.88,1426.32 1751.7,1416.62 1752.53,1426.32 1753.36,1426.32 1754.19,1436.02 1755.02,1436.02 1755.85,1416.62 1756.68,1436.02 1757.51,1445.72 1758.34,1426.32 1759.17,1416.62 1760,1436.02 1760.82,1426.32 1761.65,1426.32 1762.48,1406.92 1763.31,1416.62 1764.14,1387.53 1764.97,1397.22 1765.8,1397.22 1766.63,1397.22 1767.46,1426.32 1768.29,1387.53 1769.12,1416.62 1769.94,1436.02 1770.77,1397.22 1771.6,1426.32 1772.43,1416.62 1773.26,1445.72 1774.09,1426.32 1774.92,1445.72 1775.75,1445.72 1776.58,1426.32 1777.41,1426.32 1778.24,1445.72 1779.06,1416.62 1779.89,1445.72 1780.72,1397.22 1781.55,1436.02 1782.38,1436.02 1783.21,1426.32 1784.04,1416.62 1784.87,1397.22 1785.7,1406.92 1786.53,1416.62 1787.35,1426.32 1788.18,1426.32 1789.01,1436.02 1789.84,1406.92 1790.67,1436.02 1791.5,1406.92 1792.33,1406.92 1793.16,1426.32 1793.99,1406.92 1794.82,1397.22 1795.65,1397.22 1796.47,1397.22 1797.3,1416.62 1798.13,1387.53 1798.96,1406.92 1799.79,1426.32 1800.62,1368.13 1801.45,1436.02 1802.28,1445.72 1803.11,1426.32 1803.94,1406.92 1804.77,1436.02 1805.59,1416.62 1806.42,1445.72 1807.25,1397.22 1808.08,1426.32 1808.91,1397.22 1809.74,1436.02 1810.57,1397.22 1811.4,1406.92 1812.23,1416.62 1813.06,1426.32 1813.89,1406.92 1814.71,1416.62 1815.54,1436.02 1816.37,1436.02 1817.2,1426.32 1818.03,1416.62 1818.86,1397.22 1819.69,1397.22 1820.52,1406.92 1821.35,1426.32 1822.18,1387.53 1823,1416.62 1823.83,1387.53 1824.66,1426.32 1825.49,1436.02 1826.32,1406.92 1827.15,1406.92 1827.98,1368.13 1828.81,1426.32 1829.64,1416.62 1830.47,1416.62 1831.3,1426.32 1832.12,1445.72 1832.95,1416.62 1833.78,1397.22 1834.61,1436.02 1835.44,1397.22 1836.27,1397.22 1837.1,1397.22 1837.93,1416.62 1838.76,1426.32 1839.59,1445.72 1840.42,1436.02 1841.24,1445.72 1842.07,1406.92 1842.9,1416.62 1843.73,1416.62 1844.56,1416.62 1845.39,1397.22 1846.22,1436.02 1847.05,1426.32 1847.88,1387.53 1848.71,1436.02 1849.54,1377.83 1850.36,1436.02 1851.19,1426.32 1852.02,1416.62 1852.85,1436.02 1853.68,1436.02 1854.51,1426.32 1855.34,1445.72 1856.17,1436.02 1857,1416.62 1857.83,1436.02 1858.65,1436.02 1859.48,1416.62 1860.31,1436.02 1861.14,1445.72 1861.97,1426.32 1862.8,1445.72 1863.63,1416.62 1864.46,1416.62 1865.29,1397.22 1866.12,1406.92 1866.95,1416.62 1867.77,1416.62 1868.6,1426.32 1869.43,1445.72 1870.26,1436.02 1871.09,1406.92 1871.92,1406.92 1872.75,1426.32 1873.58,1426.32 1874.41,1426.32 1875.24,1416.62 1876.07,1436.02 1876.89,1426.32 1877.72,1406.92 1878.55,1416.62 1879.38,1397.22 1880.21,1436.02 1881.04,1416.62 1881.87,1387.53 1882.7,1406.92 1883.53,1377.83 1884.36,1426.32 1885.19,1406.92 1886.01,1445.72 1886.84,1426.32 1887.67,1426.32 1888.5,1406.92 1889.33,1406.92 1890.16,1416.62 1890.99,1436.02 1891.82,1426.32 1892.65,1397.22 1893.48,1406.92 1894.3,1387.53 1895.13,1397.22 1895.96,1416.62 1896.79,1426.32 1897.62,1416.62 1898.45,1387.53 1899.28,1397.22 1900.11,1416.62 1900.94,1416.62 1901.77,1416.62 1902.6,1436.02 1903.42,1426.32 1904.25,1445.72 1905.08,1406.92 1905.91,1436.02 1906.74,1416.62 1907.57,1416.62 1908.4,1426.32 1909.23,1436.02 1910.06,1416.62 1910.89,1436.02 1911.72,1436.02 1912.54,1436.02 1913.37,1377.83 1914.2,1416.62 1915.03,1426.32 1915.86,1416.62 1916.69,1426.32 1917.52,1426.32 1918.35,1377.83 1919.18,1416.62 1920.01,1426.32 1920.84,1426.32 1921.66,1436.02 1922.49,1426.32 1923.32,1436.02 1924.15,1406.92 1924.98,1397.22 1925.81,1416.62 1926.64,1445.72 1927.47,1406.92 1928.3,1406.92 1929.13,1416.62 1929.95,1436.02 1930.78,1436.02 1931.61,1436.02 1932.44,1416.62 1933.27,1397.22 1934.1,1397.22 1934.93,1406.92 1935.76,1436.02 1936.59,1387.53 1937.42,1445.72 1938.25,1436.02 1939.07,1426.32 1939.9,1445.72 1940.73,1426.32 1941.56,1406.92 1942.39,1416.62 1943.22,1406.92 1944.05,1445.72 1944.88,1436.02 1945.71,1426.32 1946.54,1416.62 1947.37,1416.62 1948.19,1397.22 1949.02,1426.32 1949.85,1426.32 1950.68,1436.02 1951.51,1387.53 1952.34,1397.22 1953.17,1377.83 1954,1339.04 1954.83,1406.92 1955.66,1397.22 1956.49,1416.62 1957.31,1426.32 1958.14,1397.22 1958.97,1416.62 1959.8,1426.32 1960.63,1377.83 1961.46,1368.13 1962.29,1426.32 1963.12,1426.32 1963.95,1426.32 1964.78,1406.92 1965.6,1416.62 1966.43,1397.22 1967.26,1426.32 1968.09,1416.62 1968.92,1397.22 1969.75,1426.32 1970.58,1436.02 1971.41,1406.92 1972.24,1426.32 1973.07,1377.83 1973.9,1426.32 1974.72,1397.22 1975.55,1406.92 1976.38,1406.92 1977.21,1397.22 1978.04,1436.02 1978.87,1436.02 1979.7,1445.72 1980.53,1436.02 1981.36,1416.62 1982.19,1416.62 1983.02,1426.32 1983.84,1377.83 1984.67,1426.32 1985.5,1397.22 1986.33,1397.22 1987.16,1406.92 1987.99,1426.32 1988.82,1406.92 1989.65,1416.62 1990.48,1416.62 1991.31,1397.22 1992.14,1406.92 1992.96,1406.92 1993.79,1406.92 1994.62,1416.62 1995.45,1406.92 1996.28,1426.32 1997.11,1387.53 1997.94,1397.22 1998.77,1387.53 1999.6,1416.62 2000.43,1397.22 2001.25,1445.72 2002.08,1416.62 2002.91,1426.32 2003.74,1426.32 2004.57,1416.62 2005.4,1426.32 2006.23,1445.72 2007.06,1406.92 2007.89,1416.62 2008.72,1426.32 2009.55,1436.02 2010.37,1416.62 2011.2,1406.92 2012.03,1426.32 2012.86,1445.72 2013.69,1406.92 2014.52,1445.72 2015.35,1406.92 2016.18,1406.92 2017.01,1426.32 2017.84,1368.13 2018.67,1397.22 2019.49,1436.02 2020.32,1426.32 2021.15,1416.62 2021.98,1426.32 2022.81,1436.02 2023.64,1445.72 2024.47,1416.62 2025.3,1436.02 2026.13,1426.32 2026.96,1397.22 2027.79,1426.32 2028.61,1416.62 2029.44,1406.92 2030.27,1426.32 2031.1,1426.32 2031.93,1426.32 2032.76,1436.02 2033.59,1416.62 2034.42,1445.72 2035.25,1426.32 2036.08,1436.02 2036.9,1445.72 2037.73,1416.62 2038.56,1445.72 2039.39,1426.32 2040.22,1397.22 2041.05,1436.02 2041.88,1426.32 2042.71,1368.13 2043.54,1436.02 2044.37,1397.22 2045.2,1416.62 2046.02,1406.92 2046.85,1416.62 2047.68,1426.32 2048.51,1416.62 2049.34,1387.53 2050.17,1426.32 2051,1387.53 2051.83,1416.62 2052.66,1426.32 2053.49,1426.32 2054.32,1406.92 2055.14,1426.32 2055.97,1445.72 2056.8,1397.22 2057.63,1426.32 2058.46,1436.02 2059.29,1445.72 2060.12,1416.62 2060.95,1426.32 2061.78,1416.62 2062.61,1406.92 2063.44,1426.32 2064.26,1426.32 2065.09,1406.92 2065.92,1445.72 2066.75,1377.83 2067.58,1406.92 2068.41,1406.92 2069.24,1387.53 2070.07,1426.32 2070.9,1406.92 2071.73,1416.62 2072.55,1377.83 2073.38,1406.92 2074.21,1387.53 2075.04,1416.62 2075.87,1426.32 2076.7,1426.32 2077.53,1387.53 2078.36,1416.62 2079.19,1406.92 2080.02,1406.92 2080.85,1426.32 2081.67,1387.53 2082.5,1387.53 2083.33,1426.32 2084.16,1406.92 2084.99,1397.22 2085.82,1416.62 2086.65,1416.62 2087.48,1397.22 2088.31,1416.62 2089.14,1397.22 2089.97,1426.32 2090.79,1397.22 2091.62,1426.32 2092.45,1426.32 2093.28,1416.62 2094.11,1426.32 2094.94,1445.72 2095.77,1436.02 2096.6,1436.02 2097.43,1416.62 2098.26,1436.02 2099.09,1436.02 2099.91,1436.02 2100.74,1426.32 2101.57,1368.13 2102.4,1426.32 2103.23,1397.22 2104.06,1387.53 2104.89,1416.62 2105.72,1406.92 2106.55,1397.22 2107.38,1406.92 2108.21,1406.92 2109.03,1406.92 2109.86,1387.53 2110.69,1416.62 2111.52,1426.32 2112.35,1416.62 2113.18,1416.62 2114.01,1416.62 2114.84,1426.32 2115.67,1426.32 2116.5,1397.22 2117.32,1416.62 2118.15,1387.53 2118.98,1397.22 2119.81,1426.32 2120.64,1406.92 2121.47,1426.32 2122.3,1416.62 2123.13,1436.02 2123.96,1377.83 2124.79,1436.02 2125.62,1426.32 2126.44,1387.53 2127.27,1416.62 2128.1,1416.62 2128.93,1406.92 2129.76,1416.62 2130.59,1416.62 2131.42,1436.02 2132.25,1426.32 2133.08,1416.62 2133.91,1397.22 2134.74,1436.02 2135.56,1416.62 2136.39,1445.72 2137.22,1426.32 2138.05,1387.53 2138.88,1397.22 2139.71,1387.53 2140.54,1426.32 2141.37,1406.92 2142.2,1416.62 2143.03,1406.92 2143.86,1416.62 2144.68,1436.02 2145.51,1436.02 2146.34,1387.53 2147.17,1436.02 2148,1426.32 2148.83,1436.02 2149.66,1436.02 2150.49,1426.32 2151.32,1416.62 2152.15,1445.72 2152.97,1416.62 2153.8,1426.32 2154.63,1436.02 2155.46,1426.32 2156.29,1406.92 2157.12,1416.62 2157.95,1416.62 2158.78,1426.32 2159.61,1406.92 2160.44,1416.62 2161.27,1406.92 2162.09,1406.92 2162.92,1416.62 2163.75,1426.32 2164.58,1406.92 2165.41,1397.22 2166.24,1416.62 2167.07,1416.62 2167.9,1397.22 2168.73,1387.53 2169.56,1426.32 2170.39,1436.02 2171.21,1426.32 2172.04,1377.83 2172.87,1416.62 2173.7,1406.92 2174.53,1426.32 2175.36,1416.62 2176.19,1426.32 2177.02,1426.32 2177.85,1426.32 2178.68,1426.32 2179.51,1416.62 2180.33,1406.92 2181.16,1387.53 2181.99,1416.62 2182.82,1426.32 2183.65,1426.32 2184.48,1387.53 2185.31,1397.22 2186.14,1406.92 2186.97,1426.32 2187.8,1387.53 2188.62,1416.62 2189.45,1416.62 2190.28,1406.92 2191.11,1416.62 2191.94,1387.53 2192.77,1436.02 2193.6,1426.32 2194.43,1387.53 2195.26,1416.62 2196.09,1397.22 2196.92,1406.92 2197.74,1397.22 2198.57,1436.02 2199.4,1426.32 2200.23,1426.32 2201.06,1436.02 2201.89,1406.92 2202.72,1426.32 2203.55,1387.53 2204.38,1426.32 2205.21,1426.32 2206.04,1387.53 2206.86,1426.32 2207.69,1406.92 2208.52,1436.02 2209.35,1416.62 2210.18,1406.92 2211.01,1416.62 2211.84,1397.22 2212.67,1436.02 2213.5,1368.13 2214.33,1397.22 2215.16,1426.32 2215.98,1426.32 2216.81,1406.92 2217.64,1406.92 2218.47,1406.92 2219.3,1416.62 2220.13,1416.62 2220.96,1416.62 2221.79,1416.62 2222.62,1445.72 2223.45,1426.32 2224.27,1416.62 2225.1,1426.32 2225.93,1416.62 2226.76,1426.32 2227.59,1397.22 2228.42,1387.53 2229.25,1406.92 2230.08,1397.22 2230.91,1358.43 2231.74,1406.92 2232.57,1406.92 2233.39,1426.32 2234.22,1406.92 2235.05,1406.92 2235.88,1426.32 2236.71,1426.32 2237.54,1426.32 2238.37,1406.92 2239.2,1397.22 2240.03,1416.62 2240.86,1436.02 2241.69,1406.92 2242.51,1377.83 2243.34,1406.92 2244.17,1406.92 2245,1406.92 2245.83,1377.83 2246.66,1387.53 2247.49,1426.32 2248.32,1368.13 2249.15,1397.22 2249.98,1416.62 2250.81,1436.02 2251.63,1426.32 2252.46,1426.32 2253.29,1426.32 2254.12,1426.32 2254.95,1416.62 2255.78,1445.72 2256.61,1406.92 2257.44,1416.62 2258.27,1416.62 2259.1,1406.92 2259.92,1445.72 2260.75,1406.92 2261.58,1436.02 2262.41,1426.32 2263.24,1377.83 2264.07,1416.62 2264.9,1416.62 2265.73,1426.32 2266.56,1387.53 2267.39,1368.13 2268.22,1397.22 2269.04,1406.92 2269.87,1397.22 2270.7,1406.92 2271.53,1406.92 2272.36,1426.32 2273.19,1436.02 2274.02,1406.92 2274.85,1416.62 2275.68,1426.32 2276.51,1406.92 2277.34,1416.62 2278.16,1368.13 2278.99,1436.02 2279.82,1406.92 2280.65,1406.92 2281.48,1397.22 2282.31,1397.22 2283.14,1406.92 2283.97,1445.72 2284.8,1387.53 2285.63,1426.32 2286.46,1436.02 2287.28,1426.32 2288.11,1416.62 2288.94,1416.62 2289.77,1436.02 2290.6,1416.62 "/>
<path clip-path="url(#clip280)" d="M2007.5 198.898 L2279.55 198.898 L2279.55 95.2176 L2007.5 95.2176  Z" fill="#ffffff" fill-rule="evenodd" fill-opacity="1"/>
<polyline clip-path="url(#clip280)" style="stroke:#000000; stroke-linecap:round; stroke-linejoin:round; stroke-width:4; stroke-opacity:1; fill:none" points="2007.5,198.898 2279.55,198.898 2279.55,95.2176 2007.5,95.2176 2007.5,198.898 "/>
<polyline clip-path="url(#clip280)" style="stroke:#009af9; stroke-linecap:round; stroke-linejoin:round; stroke-width:4; stroke-opacity:1; fill:none" points="2031.91,147.058 2178.32,147.058 "/>
<path clip-path="url(#clip280)" d="M2216.56 166.745 Q2214.76 171.375 2213.04 172.787 Q2211.33 174.199 2208.46 174.199 L2205.06 174.199 L2205.06 170.634 L2207.56 170.634 Q2209.32 170.634 2210.29 169.8 Q2211.26 168.967 2212.44 165.865 L2213.2 163.921 L2202.72 138.412 L2207.23 138.412 L2215.33 158.689 L2223.44 138.412 L2227.95 138.412 L2216.56 166.745 Z" fill="#000000" fill-rule="nonzero" fill-opacity="1" /><path clip-path="url(#clip280)" d="M2235.24 160.402 L2242.88 160.402 L2242.88 134.037 L2234.57 135.703 L2234.57 131.444 L2242.83 129.778 L2247.51 129.778 L2247.51 160.402 L2255.15 160.402 L2255.15 164.338 L2235.24 164.338 L2235.24 160.402 Z" fill="#000000" fill-rule="nonzero" fill-opacity="1" /></svg>
