<?xml version="1.0" encoding="utf-8"?>
<svg xmlns="http://www.w3.org/2000/svg" xmlns:xlink="http://www.w3.org/1999/xlink" width="600" height="400" viewBox="0 0 2400 1600">
<defs>
  <clipPath id="clip950">
    <rect x="0" y="0" width="2400" height="1600"/>
  </clipPath>
</defs>
<path clip-path="url(#clip950)" d="M0 1600 L2400 1600 L2400 0 L0 0  Z" fill="#ffffff" fill-rule="evenodd" fill-opacity="1"/>
<defs>
  <clipPath id="clip951">
    <rect x="480" y="0" width="1681" height="1600"/>
  </clipPath>
</defs>
<path clip-path="url(#clip950)" d="M284.908 1486.45 L2352.76 1486.45 L2352.76 47.2441 L284.908 47.2441  Z" fill="#ffffff" fill-rule="evenodd" fill-opacity="1"/>
<defs>
  <clipPath id="clip952">
    <rect x="284" y="47" width="2069" height="1440"/>
  </clipPath>
</defs>
<polyline clip-path="url(#clip952)" style="stroke:#000000; stroke-linecap:round; stroke-linejoin:round; stroke-width:2; stroke-opacity:0.1; fill:none" points="343.432,1486.45 343.432,47.2441 "/>
<polyline clip-path="url(#clip952)" style="stroke:#000000; stroke-linecap:round; stroke-linejoin:round; stroke-width:2; stroke-opacity:0.1; fill:none" points="831.132,1486.45 831.132,47.2441 "/>
<polyline clip-path="url(#clip952)" style="stroke:#000000; stroke-linecap:round; stroke-linejoin:round; stroke-width:2; stroke-opacity:0.1; fill:none" points="1318.83,1486.45 1318.83,47.2441 "/>
<polyline clip-path="url(#clip952)" style="stroke:#000000; stroke-linecap:round; stroke-linejoin:round; stroke-width:2; stroke-opacity:0.1; fill:none" points="1806.53,1486.45 1806.53,47.2441 "/>
<polyline clip-path="url(#clip952)" style="stroke:#000000; stroke-linecap:round; stroke-linejoin:round; stroke-width:2; stroke-opacity:0.1; fill:none" points="2294.23,1486.45 2294.23,47.2441 "/>
<polyline clip-path="url(#clip950)" style="stroke:#000000; stroke-linecap:round; stroke-linejoin:round; stroke-width:4; stroke-opacity:1; fill:none" points="284.908,1486.45 2352.76,1486.45 "/>
<polyline clip-path="url(#clip950)" style="stroke:#000000; stroke-linecap:round; stroke-linejoin:round; stroke-width:4; stroke-opacity:1; fill:none" points="343.432,1486.45 343.432,1467.55 "/>
<polyline clip-path="url(#clip950)" style="stroke:#000000; stroke-linecap:round; stroke-linejoin:round; stroke-width:4; stroke-opacity:1; fill:none" points="831.132,1486.45 831.132,1467.55 "/>
<polyline clip-path="url(#clip950)" style="stroke:#000000; stroke-linecap:round; stroke-linejoin:round; stroke-width:4; stroke-opacity:1; fill:none" points="1318.83,1486.45 1318.83,1467.55 "/>
<polyline clip-path="url(#clip950)" style="stroke:#000000; stroke-linecap:round; stroke-linejoin:round; stroke-width:4; stroke-opacity:1; fill:none" points="1806.53,1486.45 1806.53,1467.55 "/>
<polyline clip-path="url(#clip950)" style="stroke:#000000; stroke-linecap:round; stroke-linejoin:round; stroke-width:4; stroke-opacity:1; fill:none" points="2294.23,1486.45 2294.23,1467.55 "/>
<path clip-path="url(#clip950)" d="M343.432 1517.37 Q339.821 1517.37 337.992 1520.93 Q336.186 1524.47 336.186 1531.6 Q336.186 1538.71 337.992 1542.27 Q339.821 1545.82 343.432 1545.82 Q347.066 1545.82 348.872 1542.27 Q350.7 1538.71 350.7 1531.6 Q350.7 1524.47 348.872 1520.93 Q347.066 1517.37 343.432 1517.37 M343.432 1513.66 Q349.242 1513.66 352.297 1518.27 Q355.376 1522.85 355.376 1531.6 Q355.376 1540.33 352.297 1544.94 Q349.242 1549.52 343.432 1549.52 Q337.622 1549.52 334.543 1544.94 Q331.487 1540.33 331.487 1531.6 Q331.487 1522.85 334.543 1518.27 Q337.622 1513.66 343.432 1513.66 Z" fill="#000000" fill-rule="nonzero" fill-opacity="1" /><path clip-path="url(#clip950)" d="M790.75 1514.29 L809.106 1514.29 L809.106 1518.22 L795.032 1518.22 L795.032 1526.7 Q796.051 1526.35 797.069 1526.19 Q798.088 1526 799.106 1526 Q804.893 1526 808.273 1529.17 Q811.653 1532.34 811.653 1537.76 Q811.653 1543.34 808.181 1546.44 Q804.708 1549.52 798.389 1549.52 Q796.213 1549.52 793.944 1549.15 Q791.699 1548.78 789.292 1548.04 L789.292 1543.34 Q791.375 1544.47 793.597 1545.03 Q795.819 1545.58 798.296 1545.58 Q802.301 1545.58 804.639 1543.48 Q806.977 1541.37 806.977 1537.76 Q806.977 1534.15 804.639 1532.04 Q802.301 1529.94 798.296 1529.94 Q796.421 1529.94 794.546 1530.35 Q792.694 1530.77 790.75 1531.65 L790.75 1514.29 Z" fill="#000000" fill-rule="nonzero" fill-opacity="1" /><path clip-path="url(#clip950)" d="M830.866 1517.37 Q827.254 1517.37 825.426 1520.93 Q823.62 1524.47 823.62 1531.6 Q823.62 1538.71 825.426 1542.27 Q827.254 1545.82 830.866 1545.82 Q834.5 1545.82 836.305 1542.27 Q838.134 1538.71 838.134 1531.6 Q838.134 1524.47 836.305 1520.93 Q834.5 1517.37 830.866 1517.37 M830.866 1513.66 Q836.676 1513.66 839.731 1518.27 Q842.81 1522.85 842.81 1531.6 Q842.81 1540.33 839.731 1544.94 Q836.676 1549.52 830.866 1549.52 Q825.055 1549.52 821.977 1544.94 Q818.921 1540.33 818.921 1531.6 Q818.921 1522.85 821.977 1518.27 Q825.055 1513.66 830.866 1513.66 Z" fill="#000000" fill-rule="nonzero" fill-opacity="1" /><path clip-path="url(#clip950)" d="M861.027 1517.37 Q857.416 1517.37 855.588 1520.93 Q853.782 1524.47 853.782 1531.6 Q853.782 1538.71 855.588 1542.27 Q857.416 1545.82 861.027 1545.82 Q864.662 1545.82 866.467 1542.27 Q868.296 1538.71 868.296 1531.6 Q868.296 1524.47 866.467 1520.93 Q864.662 1517.37 861.027 1517.37 M861.027 1513.66 Q866.838 1513.66 869.893 1518.27 Q872.972 1522.85 872.972 1531.6 Q872.972 1540.33 869.893 1544.94 Q866.838 1549.52 861.027 1549.52 Q855.217 1549.52 852.139 1544.94 Q849.083 1540.33 849.083 1531.6 Q849.083 1522.85 852.139 1518.27 Q855.217 1513.66 861.027 1513.66 Z" fill="#000000" fill-rule="nonzero" fill-opacity="1" /><path clip-path="url(#clip950)" d="M1263.36 1544.91 L1271 1544.91 L1271 1518.55 L1262.69 1520.21 L1262.69 1515.95 L1270.95 1514.29 L1275.63 1514.29 L1275.63 1544.91 L1283.26 1544.91 L1283.26 1548.85 L1263.36 1548.85 L1263.36 1544.91 Z" fill="#000000" fill-rule="nonzero" fill-opacity="1" /><path clip-path="url(#clip950)" d="M1302.71 1517.37 Q1299.1 1517.37 1297.27 1520.93 Q1295.46 1524.47 1295.46 1531.6 Q1295.46 1538.71 1297.27 1542.27 Q1299.1 1545.82 1302.71 1545.82 Q1306.34 1545.82 1308.15 1542.27 Q1309.98 1538.71 1309.98 1531.6 Q1309.98 1524.47 1308.15 1520.93 Q1306.34 1517.37 1302.71 1517.37 M1302.71 1513.66 Q1308.52 1513.66 1311.57 1518.27 Q1314.65 1522.85 1314.65 1531.6 Q1314.65 1540.33 1311.57 1544.94 Q1308.52 1549.52 1302.71 1549.52 Q1296.9 1549.52 1293.82 1544.94 Q1290.76 1540.33 1290.76 1531.6 Q1290.76 1522.85 1293.82 1518.27 Q1296.9 1513.66 1302.71 1513.66 Z" fill="#000000" fill-rule="nonzero" fill-opacity="1" /><path clip-path="url(#clip950)" d="M1332.87 1517.37 Q1329.26 1517.37 1327.43 1520.93 Q1325.63 1524.47 1325.63 1531.6 Q1325.63 1538.71 1327.43 1542.27 Q1329.26 1545.82 1332.87 1545.82 Q1336.51 1545.82 1338.31 1542.27 Q1340.14 1538.71 1340.14 1531.6 Q1340.14 1524.47 1338.31 1520.93 Q1336.51 1517.37 1332.87 1517.37 M1332.87 1513.66 Q1338.68 1513.66 1341.74 1518.27 Q1344.82 1522.85 1344.82 1531.6 Q1344.82 1540.33 1341.74 1544.94 Q1338.68 1549.52 1332.87 1549.52 Q1327.06 1549.52 1323.98 1544.94 Q1320.93 1540.33 1320.93 1531.6 Q1320.93 1522.85 1323.98 1518.27 Q1327.06 1513.66 1332.87 1513.66 Z" fill="#000000" fill-rule="nonzero" fill-opacity="1" /><path clip-path="url(#clip950)" d="M1363.03 1517.37 Q1359.42 1517.37 1357.59 1520.93 Q1355.79 1524.47 1355.79 1531.6 Q1355.79 1538.71 1357.59 1542.27 Q1359.42 1545.82 1363.03 1545.82 Q1366.67 1545.82 1368.47 1542.27 Q1370.3 1538.71 1370.3 1531.6 Q1370.3 1524.47 1368.47 1520.93 Q1366.67 1517.37 1363.03 1517.37 M1363.03 1513.66 Q1368.84 1513.66 1371.9 1518.27 Q1374.98 1522.85 1374.98 1531.6 Q1374.98 1540.33 1371.9 1544.94 Q1368.84 1549.52 1363.03 1549.52 Q1357.22 1549.52 1354.14 1544.94 Q1351.09 1540.33 1351.09 1531.6 Q1351.09 1522.85 1354.14 1518.27 Q1357.22 1513.66 1363.03 1513.66 Z" fill="#000000" fill-rule="nonzero" fill-opacity="1" /><path clip-path="url(#clip950)" d="M1751.06 1544.91 L1758.7 1544.91 L1758.7 1518.55 L1750.39 1520.21 L1750.39 1515.95 L1758.65 1514.29 L1763.33 1514.29 L1763.33 1544.91 L1770.96 1544.91 L1770.96 1548.85 L1751.06 1548.85 L1751.06 1544.91 Z" fill="#000000" fill-rule="nonzero" fill-opacity="1" /><path clip-path="url(#clip950)" d="M1780.46 1514.29 L1798.81 1514.29 L1798.81 1518.22 L1784.74 1518.22 L1784.74 1526.7 Q1785.76 1526.35 1786.78 1526.19 Q1787.79 1526 1788.81 1526 Q1794.6 1526 1797.98 1529.17 Q1801.36 1532.34 1801.36 1537.76 Q1801.36 1543.34 1797.89 1546.44 Q1794.41 1549.52 1788.09 1549.52 Q1785.92 1549.52 1783.65 1549.15 Q1781.4 1548.78 1779 1548.04 L1779 1543.34 Q1781.08 1544.47 1783.3 1545.03 Q1785.53 1545.58 1788 1545.58 Q1792.01 1545.58 1794.34 1543.48 Q1796.68 1541.37 1796.68 1537.76 Q1796.68 1534.15 1794.34 1532.04 Q1792.01 1529.94 1788 1529.94 Q1786.13 1529.94 1784.25 1530.35 Q1782.4 1530.77 1780.46 1531.65 L1780.46 1514.29 Z" fill="#000000" fill-rule="nonzero" fill-opacity="1" /><path clip-path="url(#clip950)" d="M1820.57 1517.37 Q1816.96 1517.37 1815.13 1520.93 Q1813.33 1524.47 1813.33 1531.6 Q1813.33 1538.71 1815.13 1542.27 Q1816.96 1545.82 1820.57 1545.82 Q1824.21 1545.82 1826.01 1542.27 Q1827.84 1538.71 1827.84 1531.6 Q1827.84 1524.47 1826.01 1520.93 Q1824.21 1517.37 1820.57 1517.37 M1820.57 1513.66 Q1826.38 1513.66 1829.44 1518.27 Q1832.52 1522.85 1832.52 1531.6 Q1832.52 1540.33 1829.44 1544.94 Q1826.38 1549.52 1820.57 1549.52 Q1814.76 1549.52 1811.68 1544.94 Q1808.63 1540.33 1808.63 1531.6 Q1808.63 1522.85 1811.68 1518.27 Q1814.76 1513.66 1820.57 1513.66 Z" fill="#000000" fill-rule="nonzero" fill-opacity="1" /><path clip-path="url(#clip950)" d="M1850.73 1517.37 Q1847.12 1517.37 1845.29 1520.93 Q1843.49 1524.47 1843.49 1531.6 Q1843.49 1538.71 1845.29 1542.27 Q1847.12 1545.82 1850.73 1545.82 Q1854.37 1545.82 1856.17 1542.27 Q1858 1538.71 1858 1531.6 Q1858 1524.47 1856.17 1520.93 Q1854.37 1517.37 1850.73 1517.37 M1850.73 1513.66 Q1856.54 1513.66 1859.6 1518.27 Q1862.68 1522.85 1862.68 1531.6 Q1862.68 1540.33 1859.6 1544.94 Q1856.54 1549.52 1850.73 1549.52 Q1844.92 1549.52 1841.84 1544.94 Q1838.79 1540.33 1838.79 1531.6 Q1838.79 1522.85 1841.84 1518.27 Q1844.92 1513.66 1850.73 1513.66 Z" fill="#000000" fill-rule="nonzero" fill-opacity="1" /><path clip-path="url(#clip950)" d="M2242.84 1544.91 L2259.16 1544.91 L2259.16 1548.85 L2237.22 1548.85 L2237.22 1544.91 Q2239.88 1542.16 2244.46 1537.53 Q2249.07 1532.88 2250.25 1531.53 Q2252.5 1529.01 2253.38 1527.27 Q2254.28 1525.51 2254.28 1523.82 Q2254.28 1521.07 2252.33 1519.33 Q2250.41 1517.6 2247.31 1517.6 Q2245.11 1517.6 2242.66 1518.36 Q2240.23 1519.13 2237.45 1520.68 L2237.45 1515.95 Q2240.27 1514.82 2242.73 1514.24 Q2245.18 1513.66 2247.22 1513.66 Q2252.59 1513.66 2255.78 1516.35 Q2258.98 1519.03 2258.98 1523.52 Q2258.98 1525.65 2258.17 1527.57 Q2257.38 1529.47 2255.27 1532.07 Q2254.7 1532.74 2251.59 1535.95 Q2248.49 1539.15 2242.84 1544.91 Z" fill="#000000" fill-rule="nonzero" fill-opacity="1" /><path clip-path="url(#clip950)" d="M2278.98 1517.37 Q2275.37 1517.37 2273.54 1520.93 Q2271.73 1524.47 2271.73 1531.6 Q2271.73 1538.71 2273.54 1542.27 Q2275.37 1545.82 2278.98 1545.82 Q2282.61 1545.82 2284.42 1542.27 Q2286.25 1538.71 2286.25 1531.6 Q2286.25 1524.47 2284.42 1520.93 Q2282.61 1517.37 2278.98 1517.37 M2278.98 1513.66 Q2284.79 1513.66 2287.84 1518.27 Q2290.92 1522.85 2290.92 1531.6 Q2290.92 1540.33 2287.84 1544.94 Q2284.79 1549.52 2278.98 1549.52 Q2273.17 1549.52 2270.09 1544.94 Q2267.03 1540.33 2267.03 1531.6 Q2267.03 1522.85 2270.09 1518.27 Q2273.17 1513.66 2278.98 1513.66 Z" fill="#000000" fill-rule="nonzero" fill-opacity="1" /><path clip-path="url(#clip950)" d="M2309.14 1517.37 Q2305.53 1517.37 2303.7 1520.93 Q2301.89 1524.47 2301.89 1531.6 Q2301.89 1538.71 2303.7 1542.27 Q2305.53 1545.82 2309.14 1545.82 Q2312.77 1545.82 2314.58 1542.27 Q2316.41 1538.71 2316.41 1531.6 Q2316.41 1524.47 2314.58 1520.93 Q2312.77 1517.37 2309.14 1517.37 M2309.14 1513.66 Q2314.95 1513.66 2318 1518.27 Q2321.08 1522.85 2321.08 1531.6 Q2321.08 1540.33 2318 1544.94 Q2314.95 1549.52 2309.14 1549.52 Q2303.33 1549.52 2300.25 1544.94 Q2297.19 1540.33 2297.19 1531.6 Q2297.19 1522.85 2300.25 1518.27 Q2303.33 1513.66 2309.14 1513.66 Z" fill="#000000" fill-rule="nonzero" fill-opacity="1" /><path clip-path="url(#clip950)" d="M2339.3 1517.37 Q2335.69 1517.37 2333.86 1520.93 Q2332.06 1524.47 2332.06 1531.6 Q2332.06 1538.71 2333.86 1542.27 Q2335.69 1545.82 2339.3 1545.82 Q2342.94 1545.82 2344.74 1542.27 Q2346.57 1538.71 2346.57 1531.6 Q2346.57 1524.47 2344.74 1520.93 Q2342.94 1517.37 2339.3 1517.37 M2339.3 1513.66 Q2345.11 1513.66 2348.17 1518.27 Q2351.25 1522.85 2351.25 1531.6 Q2351.25 1540.33 2348.17 1544.94 Q2345.11 1549.52 2339.3 1549.52 Q2333.49 1549.52 2330.41 1544.94 Q2327.36 1540.33 2327.36 1531.6 Q2327.36 1522.85 2330.41 1518.27 Q2333.49 1513.66 2339.3 1513.66 Z" fill="#000000" fill-rule="nonzero" fill-opacity="1" /><polyline clip-path="url(#clip952)" style="stroke:#000000; stroke-linecap:round; stroke-linejoin:round; stroke-width:2; stroke-opacity:0.1; fill:none" points="284.908,1359.94 2352.76,1359.94 "/>
<polyline clip-path="url(#clip952)" style="stroke:#000000; stroke-linecap:round; stroke-linejoin:round; stroke-width:2; stroke-opacity:0.1; fill:none" points="284.908,1153.45 2352.76,1153.45 "/>
<polyline clip-path="url(#clip952)" style="stroke:#000000; stroke-linecap:round; stroke-linejoin:round; stroke-width:2; stroke-opacity:0.1; fill:none" points="284.908,946.957 2352.76,946.957 "/>
<polyline clip-path="url(#clip952)" style="stroke:#000000; stroke-linecap:round; stroke-linejoin:round; stroke-width:2; stroke-opacity:0.1; fill:none" points="284.908,740.468 2352.76,740.468 "/>
<polyline clip-path="url(#clip952)" style="stroke:#000000; stroke-linecap:round; stroke-linejoin:round; stroke-width:2; stroke-opacity:0.1; fill:none" points="284.908,533.978 2352.76,533.978 "/>
<polyline clip-path="url(#clip952)" style="stroke:#000000; stroke-linecap:round; stroke-linejoin:round; stroke-width:2; stroke-opacity:0.1; fill:none" points="284.908,327.489 2352.76,327.489 "/>
<polyline clip-path="url(#clip952)" style="stroke:#000000; stroke-linecap:round; stroke-linejoin:round; stroke-width:2; stroke-opacity:0.1; fill:none" points="284.908,120.999 2352.76,120.999 "/>
<polyline clip-path="url(#clip950)" style="stroke:#000000; stroke-linecap:round; stroke-linejoin:round; stroke-width:4; stroke-opacity:1; fill:none" points="284.908,1486.45 284.908,47.2441 "/>
<polyline clip-path="url(#clip950)" style="stroke:#000000; stroke-linecap:round; stroke-linejoin:round; stroke-width:4; stroke-opacity:1; fill:none" points="284.908,1359.94 303.805,1359.94 "/>
<polyline clip-path="url(#clip950)" style="stroke:#000000; stroke-linecap:round; stroke-linejoin:round; stroke-width:4; stroke-opacity:1; fill:none" points="284.908,1153.45 303.805,1153.45 "/>
<polyline clip-path="url(#clip950)" style="stroke:#000000; stroke-linecap:round; stroke-linejoin:round; stroke-width:4; stroke-opacity:1; fill:none" points="284.908,946.957 303.805,946.957 "/>
<polyline clip-path="url(#clip950)" style="stroke:#000000; stroke-linecap:round; stroke-linejoin:round; stroke-width:4; stroke-opacity:1; fill:none" points="284.908,740.468 303.805,740.468 "/>
<polyline clip-path="url(#clip950)" style="stroke:#000000; stroke-linecap:round; stroke-linejoin:round; stroke-width:4; stroke-opacity:1; fill:none" points="284.908,533.978 303.805,533.978 "/>
<polyline clip-path="url(#clip950)" style="stroke:#000000; stroke-linecap:round; stroke-linejoin:round; stroke-width:4; stroke-opacity:1; fill:none" points="284.908,327.489 303.805,327.489 "/>
<polyline clip-path="url(#clip950)" style="stroke:#000000; stroke-linecap:round; stroke-linejoin:round; stroke-width:4; stroke-opacity:1; fill:none" points="284.908,120.999 303.805,120.999 "/>
<path clip-path="url(#clip950)" d="M50.9921 1360.39 L80.6679 1360.39 L80.6679 1364.32 L50.9921 1364.32 L50.9921 1360.39 Z" fill="#000000" fill-rule="nonzero" fill-opacity="1" /><path clip-path="url(#clip950)" d="M94.7882 1373.28 L111.108 1373.28 L111.108 1377.22 L89.1632 1377.22 L89.1632 1373.28 Q91.8252 1370.53 96.4085 1365.9 Q101.015 1361.24 102.196 1359.9 Q104.441 1357.38 105.321 1355.64 Q106.223 1353.88 106.223 1352.19 Q106.223 1349.44 104.279 1347.7 Q102.358 1345.97 99.2558 1345.97 Q97.0567 1345.97 94.603 1346.73 Q92.1725 1347.49 89.3947 1349.05 L89.3947 1344.32 Q92.2188 1343.19 94.6724 1342.61 Q97.1261 1342.03 99.1632 1342.03 Q104.534 1342.03 107.728 1344.72 Q110.922 1347.4 110.922 1351.89 Q110.922 1354.02 110.112 1355.94 Q109.325 1357.84 107.219 1360.43 Q106.64 1361.11 103.538 1364.32 Q100.436 1367.52 94.7882 1373.28 Z" fill="#000000" fill-rule="nonzero" fill-opacity="1" /><path clip-path="url(#clip950)" d="M120.922 1371.34 L125.807 1371.34 L125.807 1377.22 L120.922 1377.22 L120.922 1371.34 Z" fill="#000000" fill-rule="nonzero" fill-opacity="1" /><path clip-path="url(#clip950)" d="M145.992 1345.74 Q142.381 1345.74 140.552 1349.3 Q138.746 1352.84 138.746 1359.97 Q138.746 1367.08 140.552 1370.64 Q142.381 1374.18 145.992 1374.18 Q149.626 1374.18 151.431 1370.64 Q153.26 1367.08 153.26 1359.97 Q153.26 1352.84 151.431 1349.3 Q149.626 1345.74 145.992 1345.74 M145.992 1342.03 Q151.802 1342.03 154.857 1346.64 Q157.936 1351.22 157.936 1359.97 Q157.936 1368.7 154.857 1373.3 Q151.802 1377.89 145.992 1377.89 Q140.181 1377.89 137.103 1373.3 Q134.047 1368.7 134.047 1359.97 Q134.047 1351.22 137.103 1346.64 Q140.181 1342.03 145.992 1342.03 Z" fill="#000000" fill-rule="nonzero" fill-opacity="1" /><path clip-path="url(#clip950)" d="M164.973 1342.66 L187.195 1342.66 L187.195 1344.65 L174.649 1377.22 L169.765 1377.22 L181.57 1346.59 L164.973 1346.59 L164.973 1342.66 Z" fill="#000000" fill-rule="nonzero" fill-opacity="1" /><path clip-path="url(#clip950)" d="M196.454 1376.5 L196.454 1372.24 Q198.214 1373.07 200.019 1373.51 Q201.825 1373.95 203.561 1373.95 Q208.19 1373.95 210.621 1370.85 Q213.075 1367.73 213.422 1361.38 Q212.079 1363.37 210.019 1364.44 Q207.959 1365.5 205.459 1365.5 Q200.274 1365.5 197.241 1362.38 Q194.232 1359.23 194.232 1353.79 Q194.232 1348.47 197.38 1345.25 Q200.528 1342.03 205.76 1342.03 Q211.755 1342.03 214.903 1346.64 Q218.075 1351.22 218.075 1359.97 Q218.075 1368.14 214.186 1373.03 Q210.32 1377.89 203.769 1377.89 Q202.01 1377.89 200.204 1377.54 Q198.399 1377.19 196.454 1376.5 M205.76 1361.85 Q208.908 1361.85 210.737 1359.69 Q212.588 1357.54 212.588 1353.79 Q212.588 1350.06 210.737 1347.91 Q208.908 1345.74 205.76 1345.74 Q202.612 1345.74 200.76 1347.91 Q198.931 1350.06 198.931 1353.79 Q198.931 1357.54 200.76 1359.69 Q202.612 1361.85 205.76 1361.85 Z" fill="#000000" fill-rule="nonzero" fill-opacity="1" /><path clip-path="url(#clip950)" d="M239.324 1346.73 L227.519 1365.18 L239.324 1365.18 L239.324 1346.73 M238.098 1342.66 L243.977 1342.66 L243.977 1365.18 L248.908 1365.18 L248.908 1369.07 L243.977 1369.07 L243.977 1377.22 L239.324 1377.22 L239.324 1369.07 L223.723 1369.07 L223.723 1364.55 L238.098 1342.66 Z" fill="#000000" fill-rule="nonzero" fill-opacity="1" /><path clip-path="url(#clip950)" d="M52.1264 1153.9 L81.8021 1153.9 L81.8021 1157.83 L52.1264 1157.83 L52.1264 1153.9 Z" fill="#000000" fill-rule="nonzero" fill-opacity="1" /><path clip-path="url(#clip950)" d="M95.9224 1166.79 L112.242 1166.79 L112.242 1170.73 L90.2975 1170.73 L90.2975 1166.79 Q92.9595 1164.04 97.5428 1159.41 Q102.149 1154.75 103.33 1153.41 Q105.575 1150.89 106.455 1149.15 Q107.358 1147.39 107.358 1145.7 Q107.358 1142.95 105.413 1141.21 Q103.492 1139.48 100.39 1139.48 Q98.1909 1139.48 95.7373 1140.24 Q93.3067 1141 90.529 1142.56 L90.529 1137.83 Q93.353 1136.7 95.8067 1136.12 Q98.2604 1135.54 100.297 1135.54 Q105.668 1135.54 108.862 1138.23 Q112.057 1140.91 112.057 1145.4 Q112.057 1147.53 111.246 1149.45 Q110.459 1151.35 108.353 1153.94 Q107.774 1154.62 104.672 1157.83 Q101.571 1161.03 95.9224 1166.79 Z" fill="#000000" fill-rule="nonzero" fill-opacity="1" /><path clip-path="url(#clip950)" d="M122.057 1164.85 L126.941 1164.85 L126.941 1170.73 L122.057 1170.73 L122.057 1164.85 Z" fill="#000000" fill-rule="nonzero" fill-opacity="1" /><path clip-path="url(#clip950)" d="M147.126 1139.25 Q143.515 1139.25 141.686 1142.81 Q139.881 1146.35 139.881 1153.48 Q139.881 1160.59 141.686 1164.15 Q143.515 1167.69 147.126 1167.69 Q150.76 1167.69 152.566 1164.15 Q154.394 1160.59 154.394 1153.48 Q154.394 1146.35 152.566 1142.81 Q150.76 1139.25 147.126 1139.25 M147.126 1135.54 Q152.936 1135.54 155.992 1140.15 Q159.07 1144.73 159.07 1153.48 Q159.07 1162.21 155.992 1166.81 Q152.936 1171.4 147.126 1171.4 Q141.316 1171.4 138.237 1166.81 Q135.181 1162.21 135.181 1153.48 Q135.181 1144.73 138.237 1140.15 Q141.316 1135.54 147.126 1135.54 Z" fill="#000000" fill-rule="nonzero" fill-opacity="1" /><path clip-path="url(#clip950)" d="M166.107 1136.17 L188.329 1136.17 L188.329 1138.16 L175.783 1170.73 L170.899 1170.73 L182.704 1140.1 L166.107 1140.1 L166.107 1136.17 Z" fill="#000000" fill-rule="nonzero" fill-opacity="1" /><path clip-path="url(#clip950)" d="M197.589 1170.01 L197.589 1165.75 Q199.348 1166.58 201.153 1167.02 Q202.959 1167.46 204.695 1167.46 Q209.325 1167.46 211.755 1164.36 Q214.209 1161.24 214.556 1154.89 Q213.213 1156.88 211.153 1157.95 Q209.093 1159.01 206.593 1159.01 Q201.408 1159.01 198.376 1155.89 Q195.366 1152.74 195.366 1147.3 Q195.366 1141.98 198.514 1138.76 Q201.663 1135.54 206.894 1135.54 Q212.889 1135.54 216.038 1140.15 Q219.209 1144.73 219.209 1153.48 Q219.209 1161.65 215.32 1166.54 Q211.454 1171.4 204.903 1171.4 Q203.144 1171.4 201.339 1171.05 Q199.533 1170.7 197.589 1170.01 M206.894 1155.36 Q210.042 1155.36 211.871 1153.2 Q213.723 1151.05 213.723 1147.3 Q213.723 1143.57 211.871 1141.42 Q210.042 1139.25 206.894 1139.25 Q203.746 1139.25 201.894 1141.42 Q200.065 1143.57 200.065 1147.3 Q200.065 1151.05 201.894 1153.2 Q203.746 1155.36 206.894 1155.36 Z" fill="#000000" fill-rule="nonzero" fill-opacity="1" /><path clip-path="url(#clip950)" d="M241.778 1152.09 Q245.135 1152.81 247.01 1155.08 Q248.908 1157.35 248.908 1160.68 Q248.908 1165.8 245.389 1168.6 Q241.871 1171.4 235.389 1171.4 Q233.213 1171.4 230.899 1170.96 Q228.607 1170.54 226.153 1169.69 L226.153 1165.17 Q228.098 1166.31 230.412 1166.88 Q232.727 1167.46 235.25 1167.46 Q239.649 1167.46 241.94 1165.73 Q244.255 1163.99 244.255 1160.68 Q244.255 1157.63 242.102 1155.91 Q239.973 1154.18 236.153 1154.18 L232.125 1154.18 L232.125 1150.33 L236.338 1150.33 Q239.787 1150.33 241.616 1148.97 Q243.445 1147.58 243.445 1144.99 Q243.445 1142.32 241.547 1140.91 Q239.672 1139.48 236.153 1139.48 Q234.232 1139.48 232.033 1139.89 Q229.834 1140.31 227.195 1141.19 L227.195 1137.02 Q229.857 1136.28 232.172 1135.91 Q234.51 1135.54 236.57 1135.54 Q241.894 1135.54 244.996 1137.97 Q248.098 1140.38 248.098 1144.5 Q248.098 1147.37 246.454 1149.36 Q244.811 1151.33 241.778 1152.09 Z" fill="#000000" fill-rule="nonzero" fill-opacity="1" /><path clip-path="url(#clip950)" d="M53.0754 947.409 L82.7512 947.409 L82.7512 951.344 L53.0754 951.344 L53.0754 947.409 Z" fill="#000000" fill-rule="nonzero" fill-opacity="1" /><path clip-path="url(#clip950)" d="M96.8715 960.302 L113.191 960.302 L113.191 964.237 L91.2465 964.237 L91.2465 960.302 Q93.9086 957.548 98.4919 952.918 Q103.098 948.265 104.279 946.923 Q106.524 944.4 107.404 942.663 Q108.307 940.904 108.307 939.214 Q108.307 936.46 106.362 934.724 Q104.441 932.988 101.339 932.988 Q99.14 932.988 96.6863 933.751 Q94.2558 934.515 91.478 936.066 L91.478 931.344 Q94.3021 930.21 96.7558 929.631 Q99.2095 929.052 101.246 929.052 Q106.617 929.052 109.811 931.738 Q113.006 934.423 113.006 938.913 Q113.006 941.043 112.196 942.964 Q111.408 944.863 109.302 947.455 Q108.723 948.126 105.621 951.344 Q102.52 954.538 96.8715 960.302 Z" fill="#000000" fill-rule="nonzero" fill-opacity="1" /><path clip-path="url(#clip950)" d="M123.006 958.358 L127.89 958.358 L127.89 964.237 L123.006 964.237 L123.006 958.358 Z" fill="#000000" fill-rule="nonzero" fill-opacity="1" /><path clip-path="url(#clip950)" d="M148.075 932.756 Q144.464 932.756 142.635 936.321 Q140.83 939.863 140.83 946.992 Q140.83 954.099 142.635 957.663 Q144.464 961.205 148.075 961.205 Q151.709 961.205 153.515 957.663 Q155.343 954.099 155.343 946.992 Q155.343 939.863 153.515 936.321 Q151.709 932.756 148.075 932.756 M148.075 929.052 Q153.885 929.052 156.941 933.659 Q160.019 938.242 160.019 946.992 Q160.019 955.719 156.941 960.325 Q153.885 964.909 148.075 964.909 Q142.265 964.909 139.186 960.325 Q136.131 955.719 136.131 946.992 Q136.131 938.242 139.186 933.659 Q142.265 929.052 148.075 929.052 Z" fill="#000000" fill-rule="nonzero" fill-opacity="1" /><path clip-path="url(#clip950)" d="M167.056 929.677 L189.278 929.677 L189.278 931.668 L176.732 964.237 L171.848 964.237 L183.653 933.613 L167.056 933.613 L167.056 929.677 Z" fill="#000000" fill-rule="nonzero" fill-opacity="1" /><path clip-path="url(#clip950)" d="M198.538 963.52 L198.538 959.261 Q200.297 960.094 202.102 960.534 Q203.908 960.974 205.644 960.974 Q210.274 960.974 212.704 957.872 Q215.158 954.747 215.505 948.404 Q214.163 950.395 212.102 951.46 Q210.042 952.525 207.542 952.525 Q202.357 952.525 199.325 949.4 Q196.315 946.251 196.315 940.812 Q196.315 935.488 199.464 932.27 Q202.612 929.052 207.843 929.052 Q213.838 929.052 216.987 933.659 Q220.158 938.242 220.158 946.992 Q220.158 955.163 216.269 960.048 Q212.403 964.909 205.852 964.909 Q204.093 964.909 202.288 964.561 Q200.482 964.214 198.538 963.52 M207.843 948.867 Q210.991 948.867 212.82 946.714 Q214.672 944.562 214.672 940.812 Q214.672 937.085 212.82 934.932 Q210.991 932.756 207.843 932.756 Q204.695 932.756 202.843 934.932 Q201.014 937.085 201.014 940.812 Q201.014 944.562 202.843 946.714 Q204.695 948.867 207.843 948.867 Z" fill="#000000" fill-rule="nonzero" fill-opacity="1" /><path clip-path="url(#clip950)" d="M232.588 960.302 L248.908 960.302 L248.908 964.237 L226.963 964.237 L226.963 960.302 Q229.625 957.548 234.209 952.918 Q238.815 948.265 239.996 946.923 Q242.241 944.4 243.121 942.663 Q244.023 940.904 244.023 939.214 Q244.023 936.46 242.079 934.724 Q240.158 932.988 237.056 932.988 Q234.857 932.988 232.403 933.751 Q229.973 934.515 227.195 936.066 L227.195 931.344 Q230.019 930.21 232.473 929.631 Q234.926 929.052 236.963 929.052 Q242.334 929.052 245.528 931.738 Q248.723 934.423 248.723 938.913 Q248.723 941.043 247.912 942.964 Q247.125 944.863 245.019 947.455 Q244.44 948.126 241.338 951.344 Q238.236 954.538 232.588 960.302 Z" fill="#000000" fill-rule="nonzero" fill-opacity="1" /><path clip-path="url(#clip950)" d="M52.7051 740.919 L82.3808 740.919 L82.3808 744.854 L52.7051 744.854 L52.7051 740.919 Z" fill="#000000" fill-rule="nonzero" fill-opacity="1" /><path clip-path="url(#clip950)" d="M96.5011 753.813 L112.82 753.813 L112.82 757.748 L90.8762 757.748 L90.8762 753.813 Q93.5382 751.058 98.1215 746.428 Q102.728 741.776 103.909 740.433 Q106.154 737.91 107.033 736.174 Q107.936 734.415 107.936 732.725 Q107.936 729.97 105.992 728.234 Q104.071 726.498 100.969 726.498 Q98.7696 726.498 96.316 727.262 Q93.8854 728.026 91.1077 729.577 L91.1077 724.855 Q93.9317 723.72 96.3854 723.142 Q98.8391 722.563 100.876 722.563 Q106.246 722.563 109.441 725.248 Q112.635 727.933 112.635 732.424 Q112.635 734.554 111.825 736.475 Q111.038 738.373 108.932 740.966 Q108.353 741.637 105.251 744.854 Q102.149 748.049 96.5011 753.813 Z" fill="#000000" fill-rule="nonzero" fill-opacity="1" /><path clip-path="url(#clip950)" d="M122.635 751.868 L127.519 751.868 L127.519 757.748 L122.635 757.748 L122.635 751.868 Z" fill="#000000" fill-rule="nonzero" fill-opacity="1" /><path clip-path="url(#clip950)" d="M147.705 726.267 Q144.093 726.267 142.265 729.831 Q140.459 733.373 140.459 740.503 Q140.459 747.609 142.265 751.174 Q144.093 754.715 147.705 754.715 Q151.339 754.715 153.144 751.174 Q154.973 747.609 154.973 740.503 Q154.973 733.373 153.144 729.831 Q151.339 726.267 147.705 726.267 M147.705 722.563 Q153.515 722.563 156.57 727.169 Q159.649 731.753 159.649 740.503 Q159.649 749.229 156.57 753.836 Q153.515 758.419 147.705 758.419 Q141.894 758.419 138.816 753.836 Q135.76 749.229 135.76 740.503 Q135.76 731.753 138.816 727.169 Q141.894 722.563 147.705 722.563 Z" fill="#000000" fill-rule="nonzero" fill-opacity="1" /><path clip-path="url(#clip950)" d="M166.686 723.188 L188.908 723.188 L188.908 725.179 L176.362 757.748 L171.478 757.748 L183.283 727.123 L166.686 727.123 L166.686 723.188 Z" fill="#000000" fill-rule="nonzero" fill-opacity="1" /><path clip-path="url(#clip950)" d="M198.167 757.03 L198.167 752.771 Q199.927 753.604 201.732 754.044 Q203.538 754.484 205.274 754.484 Q209.903 754.484 212.334 751.382 Q214.788 748.257 215.135 741.915 Q213.792 743.905 211.732 744.97 Q209.672 746.035 207.172 746.035 Q201.987 746.035 198.954 742.91 Q195.945 739.762 195.945 734.322 Q195.945 728.998 199.093 725.78 Q202.241 722.563 207.473 722.563 Q213.468 722.563 216.616 727.169 Q219.788 731.753 219.788 740.503 Q219.788 748.674 215.899 753.558 Q212.033 758.419 205.482 758.419 Q203.723 758.419 201.917 758.072 Q200.112 757.725 198.167 757.03 M207.473 742.378 Q210.621 742.378 212.45 740.225 Q214.301 738.072 214.301 734.322 Q214.301 730.595 212.45 728.442 Q210.621 726.267 207.473 726.267 Q204.325 726.267 202.473 728.442 Q200.644 730.595 200.644 734.322 Q200.644 738.072 202.473 740.225 Q204.325 742.378 207.473 742.378 Z" fill="#000000" fill-rule="nonzero" fill-opacity="1" /><path clip-path="url(#clip950)" d="M229 753.813 L236.639 753.813 L236.639 727.447 L228.329 729.114 L228.329 724.855 L236.593 723.188 L241.269 723.188 L241.269 753.813 L248.908 753.813 L248.908 757.748 L229 757.748 L229 753.813 Z" fill="#000000" fill-rule="nonzero" fill-opacity="1" /><path clip-path="url(#clip950)" d="M51.4782 534.43 L81.154 534.43 L81.154 538.365 L51.4782 538.365 L51.4782 534.43 Z" fill="#000000" fill-rule="nonzero" fill-opacity="1" /><path clip-path="url(#clip950)" d="M95.2743 547.323 L111.594 547.323 L111.594 551.258 L89.6493 551.258 L89.6493 547.323 Q92.3113 544.569 96.8947 539.939 Q101.501 535.286 102.682 533.944 Q104.927 531.42 105.807 529.684 Q106.709 527.925 106.709 526.235 Q106.709 523.481 104.765 521.745 Q102.844 520.009 99.7419 520.009 Q97.5428 520.009 95.0891 520.772 Q92.6586 521.536 89.8808 523.087 L89.8808 518.365 Q92.7049 517.231 95.1586 516.652 Q97.6122 516.073 99.6493 516.073 Q105.02 516.073 108.214 518.759 Q111.408 521.444 111.408 525.934 Q111.408 528.064 110.598 529.985 Q109.811 531.883 107.705 534.476 Q107.126 535.147 104.024 538.365 Q100.922 541.559 95.2743 547.323 Z" fill="#000000" fill-rule="nonzero" fill-opacity="1" /><path clip-path="url(#clip950)" d="M121.408 545.379 L126.293 545.379 L126.293 551.258 L121.408 551.258 L121.408 545.379 Z" fill="#000000" fill-rule="nonzero" fill-opacity="1" /><path clip-path="url(#clip950)" d="M146.478 519.777 Q142.867 519.777 141.038 523.342 Q139.232 526.883 139.232 534.013 Q139.232 541.12 141.038 544.684 Q142.867 548.226 146.478 548.226 Q150.112 548.226 151.918 544.684 Q153.746 541.12 153.746 534.013 Q153.746 526.883 151.918 523.342 Q150.112 519.777 146.478 519.777 M146.478 516.073 Q152.288 516.073 155.343 520.68 Q158.422 525.263 158.422 534.013 Q158.422 542.74 155.343 547.346 Q152.288 551.93 146.478 551.93 Q140.668 551.93 137.589 547.346 Q134.533 542.74 134.533 534.013 Q134.533 525.263 137.589 520.68 Q140.668 516.073 146.478 516.073 Z" fill="#000000" fill-rule="nonzero" fill-opacity="1" /><path clip-path="url(#clip950)" d="M165.459 516.698 L187.681 516.698 L187.681 518.689 L175.135 551.258 L170.251 551.258 L182.056 520.634 L165.459 520.634 L165.459 516.698 Z" fill="#000000" fill-rule="nonzero" fill-opacity="1" /><path clip-path="url(#clip950)" d="M196.94 550.541 L196.94 546.282 Q198.7 547.115 200.505 547.555 Q202.311 547.994 204.047 547.994 Q208.676 547.994 211.107 544.893 Q213.561 541.768 213.908 535.425 Q212.565 537.416 210.505 538.481 Q208.445 539.545 205.945 539.545 Q200.76 539.545 197.727 536.42 Q194.718 533.272 194.718 527.833 Q194.718 522.508 197.866 519.291 Q201.014 516.073 206.246 516.073 Q212.241 516.073 215.389 520.68 Q218.561 525.263 218.561 534.013 Q218.561 542.184 214.672 547.069 Q210.806 551.93 204.255 551.93 Q202.496 551.93 200.69 551.582 Q198.885 551.235 196.94 550.541 M206.246 535.888 Q209.394 535.888 211.223 533.735 Q213.075 531.583 213.075 527.833 Q213.075 524.106 211.223 521.953 Q209.394 519.777 206.246 519.777 Q203.098 519.777 201.246 521.953 Q199.417 524.106 199.417 527.833 Q199.417 531.583 201.246 533.735 Q203.098 535.888 206.246 535.888 Z" fill="#000000" fill-rule="nonzero" fill-opacity="1" /><path clip-path="url(#clip950)" d="M236.963 519.777 Q233.352 519.777 231.524 523.342 Q229.718 526.883 229.718 534.013 Q229.718 541.12 231.524 544.684 Q233.352 548.226 236.963 548.226 Q240.598 548.226 242.403 544.684 Q244.232 541.12 244.232 534.013 Q244.232 526.883 242.403 523.342 Q240.598 519.777 236.963 519.777 M236.963 516.073 Q242.774 516.073 245.829 520.68 Q248.908 525.263 248.908 534.013 Q248.908 542.74 245.829 547.346 Q242.774 551.93 236.963 551.93 Q231.153 551.93 228.075 547.346 Q225.019 542.74 225.019 534.013 Q225.019 525.263 228.075 520.68 Q231.153 516.073 236.963 516.073 Z" fill="#000000" fill-rule="nonzero" fill-opacity="1" /><path clip-path="url(#clip950)" d="M51.6634 327.94 L81.3392 327.94 L81.3392 331.875 L51.6634 331.875 L51.6634 327.94 Z" fill="#000000" fill-rule="nonzero" fill-opacity="1" /><path clip-path="url(#clip950)" d="M95.4595 340.834 L111.779 340.834 L111.779 344.769 L89.8345 344.769 L89.8345 340.834 Q92.4965 338.079 97.0798 333.449 Q101.686 328.797 102.867 327.454 Q105.112 324.931 105.992 323.195 Q106.895 321.436 106.895 319.746 Q106.895 316.991 104.95 315.255 Q103.029 313.519 99.927 313.519 Q97.728 313.519 95.2743 314.283 Q92.8438 315.047 90.066 316.598 L90.066 311.875 Q92.89 310.741 95.3437 310.163 Q97.7974 309.584 99.8345 309.584 Q105.205 309.584 108.399 312.269 Q111.594 314.954 111.594 319.445 Q111.594 321.574 110.783 323.496 Q109.996 325.394 107.89 327.986 Q107.311 328.658 104.209 331.875 Q101.108 335.07 95.4595 340.834 Z" fill="#000000" fill-rule="nonzero" fill-opacity="1" /><path clip-path="url(#clip950)" d="M121.594 338.889 L126.478 338.889 L126.478 344.769 L121.594 344.769 L121.594 338.889 Z" fill="#000000" fill-rule="nonzero" fill-opacity="1" /><path clip-path="url(#clip950)" d="M146.663 313.287 Q143.052 313.287 141.223 316.852 Q139.418 320.394 139.418 327.524 Q139.418 334.63 141.223 338.195 Q143.052 341.736 146.663 341.736 Q150.297 341.736 152.103 338.195 Q153.931 334.63 153.931 327.524 Q153.931 320.394 152.103 316.852 Q150.297 313.287 146.663 313.287 M146.663 309.584 Q152.473 309.584 155.529 314.19 Q158.607 318.774 158.607 327.524 Q158.607 336.25 155.529 340.857 Q152.473 345.44 146.663 345.44 Q140.853 345.44 137.774 340.857 Q134.719 336.25 134.719 327.524 Q134.719 318.774 137.774 314.19 Q140.853 309.584 146.663 309.584 Z" fill="#000000" fill-rule="nonzero" fill-opacity="1" /><path clip-path="url(#clip950)" d="M165.644 310.209 L187.866 310.209 L187.866 312.2 L175.32 344.769 L170.436 344.769 L182.241 314.144 L165.644 314.144 L165.644 310.209 Z" fill="#000000" fill-rule="nonzero" fill-opacity="1" /><path clip-path="url(#clip950)" d="M206.987 328.357 Q203.653 328.357 201.732 330.139 Q199.834 331.922 199.834 335.047 Q199.834 338.172 201.732 339.954 Q203.653 341.736 206.987 341.736 Q210.32 341.736 212.241 339.954 Q214.163 338.148 214.163 335.047 Q214.163 331.922 212.241 330.139 Q210.343 328.357 206.987 328.357 M202.311 326.366 Q199.302 325.625 197.612 323.565 Q195.945 321.505 195.945 318.542 Q195.945 314.399 198.885 311.991 Q201.848 309.584 206.987 309.584 Q212.149 309.584 215.088 311.991 Q218.028 314.399 218.028 318.542 Q218.028 321.505 216.338 323.565 Q214.672 325.625 211.686 326.366 Q215.065 327.153 216.94 329.445 Q218.838 331.736 218.838 335.047 Q218.838 340.07 215.76 342.755 Q212.704 345.44 206.987 345.44 Q201.269 345.44 198.19 342.755 Q195.135 340.07 195.135 335.047 Q195.135 331.736 197.033 329.445 Q198.931 327.153 202.311 326.366 M200.598 318.982 Q200.598 321.667 202.264 323.172 Q203.954 324.676 206.987 324.676 Q209.996 324.676 211.686 323.172 Q213.399 321.667 213.399 318.982 Q213.399 316.297 211.686 314.792 Q209.996 313.287 206.987 313.287 Q203.954 313.287 202.264 314.792 Q200.598 316.297 200.598 318.982 Z" fill="#000000" fill-rule="nonzero" fill-opacity="1" /><path clip-path="url(#clip950)" d="M227.287 344.051 L227.287 339.792 Q229.047 340.625 230.852 341.065 Q232.658 341.505 234.394 341.505 Q239.024 341.505 241.454 338.403 Q243.908 335.278 244.255 328.936 Q242.912 330.926 240.852 331.991 Q238.792 333.056 236.292 333.056 Q231.107 333.056 228.075 329.931 Q225.065 326.783 225.065 321.343 Q225.065 316.019 228.213 312.801 Q231.362 309.584 236.593 309.584 Q242.588 309.584 245.736 314.19 Q248.908 318.774 248.908 327.524 Q248.908 335.695 245.019 340.579 Q241.153 345.44 234.602 345.44 Q232.843 345.44 231.037 345.093 Q229.232 344.746 227.287 344.051 M236.593 329.399 Q239.741 329.399 241.57 327.246 Q243.422 325.093 243.422 321.343 Q243.422 317.616 241.57 315.463 Q239.741 313.287 236.593 313.287 Q233.445 313.287 231.593 315.463 Q229.764 317.616 229.764 321.343 Q229.764 325.093 231.593 327.246 Q233.445 329.399 236.593 329.399 Z" fill="#000000" fill-rule="nonzero" fill-opacity="1" /><path clip-path="url(#clip950)" d="M51.5708 121.451 L81.2466 121.451 L81.2466 125.386 L51.5708 125.386 L51.5708 121.451 Z" fill="#000000" fill-rule="nonzero" fill-opacity="1" /><path clip-path="url(#clip950)" d="M95.3669 134.344 L111.686 134.344 L111.686 138.279 L89.7419 138.279 L89.7419 134.344 Q92.4039 131.589 96.9872 126.96 Q101.594 122.307 102.774 120.965 Q105.02 118.441 105.899 116.705 Q106.802 114.946 106.802 113.256 Q106.802 110.502 104.858 108.766 Q102.936 107.029 99.8345 107.029 Q97.6354 107.029 95.1817 107.793 Q92.7512 108.557 89.9734 110.108 L89.9734 105.386 Q92.7975 104.252 95.2511 103.673 Q97.7048 103.094 99.7419 103.094 Q105.112 103.094 108.307 105.779 Q111.501 108.465 111.501 112.955 Q111.501 115.085 110.691 117.006 Q109.904 118.904 107.797 121.497 Q107.219 122.168 104.117 125.386 Q101.015 128.58 95.3669 134.344 Z" fill="#000000" fill-rule="nonzero" fill-opacity="1" /><path clip-path="url(#clip950)" d="M121.501 132.4 L126.385 132.4 L126.385 138.279 L121.501 138.279 L121.501 132.4 Z" fill="#000000" fill-rule="nonzero" fill-opacity="1" /><path clip-path="url(#clip950)" d="M146.57 106.798 Q142.959 106.798 141.131 110.363 Q139.325 113.904 139.325 121.034 Q139.325 128.14 141.131 131.705 Q142.959 135.247 146.57 135.247 Q150.205 135.247 152.01 131.705 Q153.839 128.14 153.839 121.034 Q153.839 113.904 152.01 110.363 Q150.205 106.798 146.57 106.798 M146.57 103.094 Q152.38 103.094 155.436 107.701 Q158.515 112.284 158.515 121.034 Q158.515 129.761 155.436 134.367 Q152.38 138.951 146.57 138.951 Q140.76 138.951 137.681 134.367 Q134.626 129.761 134.626 121.034 Q134.626 112.284 137.681 107.701 Q140.76 103.094 146.57 103.094 Z" fill="#000000" fill-rule="nonzero" fill-opacity="1" /><path clip-path="url(#clip950)" d="M165.552 103.719 L187.774 103.719 L187.774 105.71 L175.228 138.279 L170.343 138.279 L182.149 107.654 L165.552 107.654 L165.552 103.719 Z" fill="#000000" fill-rule="nonzero" fill-opacity="1" /><path clip-path="url(#clip950)" d="M206.894 121.867 Q203.561 121.867 201.639 123.65 Q199.741 125.432 199.741 128.557 Q199.741 131.682 201.639 133.464 Q203.561 135.247 206.894 135.247 Q210.227 135.247 212.149 133.464 Q214.07 131.659 214.07 128.557 Q214.07 125.432 212.149 123.65 Q210.251 121.867 206.894 121.867 M202.218 119.877 Q199.209 119.136 197.519 117.076 Q195.852 115.016 195.852 112.053 Q195.852 107.909 198.792 105.502 Q201.755 103.094 206.894 103.094 Q212.056 103.094 214.996 105.502 Q217.936 107.909 217.936 112.053 Q217.936 115.016 216.246 117.076 Q214.579 119.136 211.593 119.877 Q214.973 120.664 216.848 122.955 Q218.746 125.247 218.746 128.557 Q218.746 133.58 215.667 136.265 Q212.612 138.951 206.894 138.951 Q201.177 138.951 198.098 136.265 Q195.042 133.58 195.042 128.557 Q195.042 125.247 196.94 122.955 Q198.839 120.664 202.218 119.877 M200.505 112.492 Q200.505 115.178 202.172 116.682 Q203.862 118.187 206.894 118.187 Q209.903 118.187 211.593 116.682 Q213.306 115.178 213.306 112.492 Q213.306 109.807 211.593 108.303 Q209.903 106.798 206.894 106.798 Q203.862 106.798 202.172 108.303 Q200.505 109.807 200.505 112.492 Z" fill="#000000" fill-rule="nonzero" fill-opacity="1" /><path clip-path="url(#clip950)" d="M237.056 121.867 Q233.723 121.867 231.801 123.65 Q229.903 125.432 229.903 128.557 Q229.903 131.682 231.801 133.464 Q233.723 135.247 237.056 135.247 Q240.389 135.247 242.311 133.464 Q244.232 131.659 244.232 128.557 Q244.232 125.432 242.311 123.65 Q240.412 121.867 237.056 121.867 M232.38 119.877 Q229.371 119.136 227.681 117.076 Q226.014 115.016 226.014 112.053 Q226.014 107.909 228.954 105.502 Q231.917 103.094 237.056 103.094 Q242.218 103.094 245.158 105.502 Q248.098 107.909 248.098 112.053 Q248.098 115.016 246.408 117.076 Q244.741 119.136 241.755 119.877 Q245.135 120.664 247.01 122.955 Q248.908 125.247 248.908 128.557 Q248.908 133.58 245.829 136.265 Q242.774 138.951 237.056 138.951 Q231.338 138.951 228.26 136.265 Q225.204 133.58 225.204 128.557 Q225.204 125.247 227.102 122.955 Q229 120.664 232.38 119.877 M230.667 112.492 Q230.667 115.178 232.334 116.682 Q234.024 118.187 237.056 118.187 Q240.065 118.187 241.755 116.682 Q243.468 115.178 243.468 112.492 Q243.468 109.807 241.755 108.303 Q240.065 106.798 237.056 106.798 Q234.024 106.798 232.334 108.303 Q230.667 109.807 230.667 112.492 Z" fill="#000000" fill-rule="nonzero" fill-opacity="1" /><polyline clip-path="url(#clip952)" style="stroke:#009af9; stroke-linecap:round; stroke-linejoin:round; stroke-width:4; stroke-opacity:1; fill:none" points="343.432,87.9763 344.407,100.84 345.383,113.582 346.358,126.203 347.333,138.704 348.309,151.087 349.284,163.352 350.26,175.502 351.235,187.536 352.21,199.456 353.186,211.263 354.161,222.958 355.137,234.543 356.112,246.017 357.087,257.383 358.063,268.641 359.038,279.793 360.014,290.838 360.989,301.779 361.964,312.617 362.94,323.351 363.915,333.984 364.891,344.516 365.866,354.949 366.841,365.282 367.817,375.518 368.792,385.656 369.768,395.699 370.743,405.646 371.718,415.499 372.694,425.259 373.669,434.926 374.645,444.501 375.62,453.986 376.595,463.381 377.571,472.687 378.546,481.904 379.522,491.035 380.497,500.078 381.472,509.036 382.448,517.909 383.423,526.699 384.399,535.404 385.374,544.028 386.349,552.569 387.325,561.03 388.3,569.41 389.276,577.711 390.251,585.933 391.226,594.078 392.202,602.145 393.177,610.136 394.153,618.051 395.128,625.891 396.103,633.657 397.079,641.349 398.054,648.968 399.03,656.515 400.005,663.991 400.98,671.395 401.956,678.73 402.931,685.995 403.907,693.191 404.882,700.319 405.857,707.379 406.833,714.373 407.808,721.3 408.784,728.162 409.759,734.958 410.734,741.69 411.71,748.359 412.685,754.964 413.661,761.507 414.636,767.987 415.611,774.406 416.587,780.765 417.562,787.063 418.538,793.301 419.513,799.481 420.488,805.601 421.464,811.664 422.439,817.67 423.415,823.618 424.39,829.51 425.365,835.346 426.341,841.127 427.316,846.853 428.292,852.525 429.267,858.143 430.242,863.708 431.218,869.22 432.193,874.68 433.169,880.089 434.144,885.446 435.119,890.752 436.095,896.008 437.07,901.214 438.046,906.371 439.021,911.479 439.996,916.538 440.972,921.55 441.947,926.514 442.923,931.431 443.898,936.302 444.873,941.126 445.849,945.905 446.824,950.638 447.8,955.327 448.775,959.971 449.75,964.571 450.726,969.127 451.701,973.641 452.677,978.111 453.652,982.539 454.627,986.926 455.603,991.27 456.578,995.574 457.554,999.837 458.529,1004.06 459.504,1008.24 460.48,1012.38 461.455,1016.49 462.431,1020.55 463.406,1024.58 464.381,1028.57 465.357,1032.52 466.332,1036.43 467.308,1040.31 468.283,1044.14 469.258,1047.95 470.234,1051.71 471.209,1055.44 472.185,1059.14 473.16,1062.8 474.135,1066.43 475.111,1070.02 476.086,1073.58 477.062,1077.1 478.037,1080.59 479.012,1084.05 479.988,1087.47 480.963,1090.86 481.939,1094.22 482.914,1097.55 483.889,1100.85 484.865,1104.11 485.84,1107.35 486.816,1110.55 487.791,1113.73 488.766,1116.87 489.742,1119.98 490.717,1123.07 491.693,1126.12 492.668,1129.15 493.643,1132.15 494.619,1135.12 495.594,1138.06 496.57,1140.97 497.545,1143.85 498.52,1146.71 499.496,1149.54 500.471,1152.35 501.447,1155.13 502.422,1157.88 503.397,1160.6 504.373,1163.3 505.348,1165.98 506.324,1168.62 507.299,1171.25 508.274,1173.85 509.25,1176.42 510.225,1178.97 511.201,1181.5 512.176,1184 513.151,1186.47 514.127,1188.93 515.102,1191.36 516.078,1193.77 517.053,1196.15 518.028,1198.52 519.004,1200.86 519.979,1203.18 520.955,1205.47 521.93,1207.75 522.905,1210 523.881,1212.23 524.856,1214.44 525.832,1216.63 526.807,1218.8 527.782,1220.95 528.758,1223.08 529.733,1225.18 530.709,1227.27 531.684,1229.34 532.659,1231.39 533.635,1233.42 534.61,1235.43 535.586,1237.42 536.561,1239.39 537.536,1241.34 538.512,1243.28 539.487,1245.19 540.463,1247.09 541.438,1248.97 542.413,1250.83 543.389,1252.68 544.364,1254.51 545.34,1256.32 546.315,1258.11 547.29,1259.89 548.266,1261.64 549.241,1263.39 550.217,1265.11 551.192,1266.82 552.167,1268.52 553.143,1270.19 554.118,1271.86 555.094,1273.5 556.069,1275.13 557.044,1276.75 558.02,1278.35 558.995,1279.93 559.971,1281.5 560.946,1283.05 561.921,1284.59 562.897,1286.12 563.872,1287.63 564.848,1289.13 565.823,1290.61 566.798,1292.08 567.774,1293.53 568.749,1294.97 569.725,1296.4 570.7,1297.81 571.675,1299.21 572.651,1300.6 573.626,1301.97 574.602,1303.33 575.577,1304.68 576.552,1306.02 577.528,1307.34 578.503,1308.65 579.479,1309.94 580.454,1311.23 581.429,1312.5 582.405,1313.76 583.38,1315.01 584.356,1316.25 585.331,1317.48 586.306,1318.69 587.282,1319.89 588.257,1321.08 589.233,1322.26 590.208,1323.43 591.183,1324.59 592.159,1325.73 593.134,1326.87 594.11,1328 595.085,1329.11 596.06,1330.21 597.036,1331.31 598.011,1332.39 598.987,1333.46 599.962,1334.52 600.937,1335.58 601.913,1336.62 602.888,1337.65 603.864,1338.67 604.839,1339.69 605.814,1340.69 606.79,1341.69 607.765,1342.67 608.741,1343.64 609.716,1344.61 610.691,1345.57 611.667,1346.52 612.642,1347.45 613.618,1348.38 614.593,1349.31 615.568,1350.22 616.544,1351.12 617.519,1352.02 618.495,1352.9 619.47,1353.78 620.445,1354.65 621.421,1355.51 622.396,1356.37 623.372,1357.21 624.347,1358.05 625.322,1358.88 626.298,1359.7 627.273,1360.52 628.249,1361.32 629.224,1362.12 630.199,1362.91 631.175,1363.7 632.15,1364.47 633.126,1365.24 634.101,1366 635.076,1366.76 636.052,1367.51 637.027,1368.25 638.003,1368.98 638.978,1369.7 639.953,1370.42 640.929,1371.14 641.904,1371.84 642.88,1372.54 643.855,1373.23 644.83,1373.92 645.806,1374.6 646.781,1375.27 647.757,1375.94 648.732,1376.6 649.707,1377.25 650.683,1377.9 651.658,1378.54 652.634,1379.18 653.609,1379.81 654.584,1380.43 655.56,1381.05 656.535,1381.66 657.511,1382.27 658.486,1382.87 659.461,1383.46 660.437,1384.05 661.412,1384.64 662.388,1385.21 663.363,1385.79 664.338,1386.35 665.314,1386.92 666.289,1387.47 667.265,1388.02 668.24,1388.57 669.215,1389.11 670.191,1389.65 671.166,1390.18 672.142,1390.7 673.117,1391.22 674.092,1391.74 675.068,1392.25 676.043,1392.75 677.019,1393.26 677.994,1393.75 678.969,1394.24 679.945,1394.73 680.92,1395.21 681.896,1395.69 682.871,1396.16 683.846,1396.63 684.822,1397.1 685.797,1397.56 686.773,1398.01 687.748,1398.47 688.723,1398.91 689.699,1399.36 690.674,1399.79 691.65,1400.23 692.625,1400.66 693.6,1401.09 694.576,1401.51 695.551,1401.93 696.527,1402.34 697.502,1402.75 698.477,1403.16 699.453,1403.56 700.428,1403.96 701.404,1404.35 702.379,1404.75 703.354,1405.13 704.33,1405.52 705.305,1405.9 706.281,1406.27 707.256,1406.65 708.231,1407.02 709.207,1407.38 710.182,1407.75 711.158,1408.11 712.133,1408.46 713.108,1408.81 714.084,1409.16 715.059,1409.51 716.035,1409.85 717.01,1410.19 717.985,1410.53 718.961,1410.86 719.936,1411.19 720.912,1411.52 721.887,1411.84 722.862,1412.16 723.838,1412.48 724.813,1412.79 725.789,1413.1 726.764,1413.41 727.739,1413.72 728.715,1414.02 729.69,1414.32 730.666,1414.62 731.641,1414.91 732.616,1415.2 733.592,1415.49 734.567,1415.78 735.543,1416.06 736.518,1416.34 737.493,1416.62 738.469,1416.9 739.444,1417.17 740.42,1417.44 741.395,1417.71 742.37,1417.97 743.346,1418.23 744.321,1418.49 745.297,1418.75 746.272,1419.01 747.247,1419.26 748.223,1419.51 749.198,1419.76 750.174,1420 751.149,1420.25 752.124,1420.49 753.1,1420.73 754.075,1420.96 755.051,1421.2 756.026,1421.43 757.001,1421.66 757.977,1421.89 758.952,1422.11 759.928,1422.33 760.903,1422.56 761.878,1422.77 762.854,1422.99 763.829,1423.21 764.805,1423.42 765.78,1423.63 766.755,1423.84 767.731,1424.05 768.706,1424.25 769.682,1424.45 770.657,1424.66 771.632,1424.85 772.608,1425.05 773.583,1425.25 774.559,1425.44 775.534,1425.63 776.509,1425.82 777.485,1426.01 778.46,1426.2 779.436,1426.38 780.411,1426.57 781.386,1426.75 782.362,1426.93 783.337,1427.1 784.313,1427.28 785.288,1427.45 786.263,1427.63 787.239,1427.8 788.214,1427.97 789.19,1428.14 790.165,1428.3 791.14,1428.47 792.116,1428.63 793.091,1428.79 794.067,1428.95 795.042,1429.11 796.017,1429.27 796.993,1429.42 797.968,1429.58 798.944,1429.73 799.919,1429.88 800.894,1430.03 801.87,1430.18 802.845,1430.33 803.821,1430.47 804.796,1430.62 805.771,1430.76 806.747,1430.9 807.722,1431.04 808.698,1431.18 809.673,1431.32 810.648,1431.45 811.624,1431.59 812.599,1431.72 813.575,1431.85 814.55,1431.99 815.525,1432.12 816.501,1432.24 817.476,1432.37 818.452,1432.5 819.427,1432.62 820.402,1432.75 821.378,1432.87 822.353,1432.99 823.329,1433.11 824.304,1433.23 825.279,1433.35 826.255,1433.47 827.23,1433.58 828.206,1433.7 829.181,1433.81 830.156,1433.92 831.132,1434.03 832.107,1434.14 833.083,1434.25 834.058,1434.36 835.033,1434.47 836.009,1434.58 836.984,1434.68 837.96,1434.79 838.935,1434.89 839.91,1434.99 840.886,1435.09 841.861,1435.19 842.837,1435.29 843.812,1435.39 844.787,1435.49 845.763,1435.59 846.738,1435.68 847.714,1435.78 848.689,1435.87 849.664,1435.96 850.64,1436.06 851.615,1436.15 852.591,1436.24 853.566,1436.33 854.541,1436.42 855.517,1436.5 856.492,1436.59 857.468,1436.68 858.443,1436.76 859.418,1436.85 860.394,1436.93 861.369,1437.02 862.345,1437.1 863.32,1437.18 864.295,1437.26 865.271,1437.34 866.246,1437.42 867.222,1437.5 868.197,1437.58 869.172,1437.65 870.148,1437.73 871.123,1437.8 872.099,1437.88 873.074,1437.95 874.049,1438.03 875.025,1438.1 876,1438.17 876.976,1438.24 877.951,1438.31 878.926,1438.38 879.902,1438.45 880.877,1438.52 881.853,1438.59 882.828,1438.66 883.803,1438.72 884.779,1438.79 885.754,1438.86 886.73,1438.92 887.705,1438.98 888.68,1439.05 889.656,1439.11 890.631,1439.17 891.607,1439.24 892.582,1439.3 893.557,1439.36 894.533,1439.42 895.508,1439.48 896.484,1439.54 897.459,1439.6 898.434,1439.65 899.41,1439.71 900.385,1439.77 901.361,1439.82 902.336,1439.88 903.311,1439.93 904.287,1439.99 905.262,1440.04 906.238,1440.1 907.213,1440.15 908.188,1440.2 909.164,1440.25 910.139,1440.31 911.115,1440.36 912.09,1440.41 913.065,1440.46 914.041,1440.51 915.016,1440.56 915.992,1440.61 916.967,1440.65 917.942,1440.7 918.918,1440.75 919.893,1440.8 920.869,1440.84 921.844,1440.89 922.819,1440.94 923.795,1440.98 924.77,1441.03 925.746,1441.07 926.721,1441.11 927.696,1441.16 928.672,1441.2 929.647,1441.24 930.623,1441.29 931.598,1441.33 932.573,1441.37 933.549,1441.41 934.524,1441.45 935.5,1441.49 936.475,1441.53 937.45,1441.57 938.426,1441.61 939.401,1441.65 940.377,1441.69 941.352,1441.73 942.327,1441.76 943.303,1441.8 944.278,1441.84 945.254,1441.87 946.229,1441.91 947.204,1441.95 948.18,1441.98 949.155,1442.02 950.131,1442.05 951.106,1442.09 952.081,1442.12 953.057,1442.16 954.032,1442.19 955.008,1442.22 955.983,1442.26 956.958,1442.29 957.934,1442.32 958.909,1442.35 959.885,1442.38 960.86,1442.42 961.835,1442.45 962.811,1442.48 963.786,1442.51 964.762,1442.54 965.737,1442.57 966.712,1442.6 967.688,1442.63 968.663,1442.66 969.639,1442.69 970.614,1442.72 971.589,1442.74 972.565,1442.77 973.54,1442.8 974.516,1442.83 975.491,1442.85 976.466,1442.88 977.442,1442.91 978.417,1442.93 979.393,1442.96 980.368,1442.99 981.343,1443.01 982.319,1443.04 983.294,1443.06 984.27,1443.09 985.245,1443.11 986.22,1443.14 987.196,1443.16 988.171,1443.19 989.147,1443.21 990.122,1443.23 991.097,1443.26 992.073,1443.28 993.048,1443.3 994.024,1443.33 994.999,1443.35 995.974,1443.37 996.95,1443.39 997.925,1443.42 998.901,1443.44 999.876,1443.46 1000.85,1443.48 1001.83,1443.5 1002.8,1443.52 1003.78,1443.54 1004.75,1443.56 1005.73,1443.58 1006.7,1443.6 1007.68,1443.62 1008.65,1443.64 1009.63,1443.66 1010.61,1443.68 1011.58,1443.7 1012.56,1443.72 1013.53,1443.74 1014.51,1443.76 1015.48,1443.78 1016.46,1443.8 1017.43,1443.81 1018.41,1443.83 1019.38,1443.85 1020.36,1443.87 1021.33,1443.89 1022.31,1443.9 1023.29,1443.92 1024.26,1443.94 1025.24,1443.95 1026.21,1443.97 1027.19,1443.99 1028.16,1444 1029.14,1444.02 1030.11,1444.04 1031.09,1444.05 1032.06,1444.07 1033.04,1444.08 1034.01,1444.1 1034.99,1444.11 1035.97,1444.13 1036.94,1444.14 1037.92,1444.16 1038.89,1444.17 1039.87,1444.19 1040.84,1444.2 1041.82,1444.22 1042.79,1444.23 1043.77,1444.24 1044.74,1444.26 1045.72,1444.27 1046.7,1444.29 1047.67,1444.3 1048.65,1444.31 1049.62,1444.33 1050.6,1444.34 1051.57,1444.35 1052.55,1444.37 1053.52,1444.38 1054.5,1444.39 1055.47,1444.4 1056.45,1444.42 1057.42,1444.43 1058.4,1444.44 1059.38,1444.45 1060.35,1444.46 1061.33,1444.48 1062.3,1444.49 1063.28,1444.5 1064.25,1444.51 1065.23,1444.52 1066.2,1444.53 1067.18,1444.54 1068.15,1444.56 1069.13,1444.57 1070.1,1444.58 1071.08,1444.59 1072.06,1444.6 1073.03,1444.61 1074.01,1444.62 1074.98,1444.63 1075.96,1444.64 1076.93,1444.65 1077.91,1444.66 1078.88,1444.67 1079.86,1444.68 1080.83,1444.69 1081.81,1444.7 1082.78,1444.71 1083.76,1444.72 1084.74,1444.73 1085.71,1444.74 1086.69,1444.75 1087.66,1444.76 1088.64,1444.77 1089.61,1444.77 1090.59,1444.78 1091.56,1444.79 1092.54,1444.8 1093.51,1444.81 1094.49,1444.82 1095.47,1444.83 1096.44,1444.84 1097.42,1444.84 1098.39,1444.85 1099.37,1444.86 1100.34,1444.87 1101.32,1444.88 1102.29,1444.88 1103.27,1444.89 1104.24,1444.9 1105.22,1444.91 1106.19,1444.91 1107.17,1444.92 1108.15,1444.93 1109.12,1444.94 1110.1,1444.94 1111.07,1444.95 1112.05,1444.96 1113.02,1444.97 1114,1444.97 1114.97,1444.98 1115.95,1444.99 1116.92,1444.99 1117.9,1445 1118.87,1445.01 1119.85,1445.01 1120.83,1445.02 1121.8,1445.03 1122.78,1445.03 1123.75,1445.04 1124.73,1445.05 1125.7,1445.05 1126.68,1445.06 1127.65,1445.07 1128.63,1445.07 1129.6,1445.08 1130.58,1445.08 1131.56,1445.09 1132.53,1445.1 1133.51,1445.1 1134.48,1445.11 1135.46,1445.11 1136.43,1445.12 1137.41,1445.12 1138.38,1445.13 1139.36,1445.14 1140.33,1445.14 1141.31,1445.15 1142.28,1445.15 1143.26,1445.16 1144.24,1445.16 1145.21,1445.17 1146.19,1445.17 1147.16,1445.18 1148.14,1445.18 1149.11,1445.19 1150.09,1445.19 1151.06,1445.2 1152.04,1445.2 1153.01,1445.21 1153.99,1445.21 1154.96,1445.22 1155.94,1445.22 1156.92,1445.23 1157.89,1445.23 1158.87,1445.24 1159.84,1445.24 1160.82,1445.25 1161.79,1445.25 1162.77,1445.25 1163.74,1445.26 1164.72,1445.26 1165.69,1445.27 1166.67,1445.27 1167.64,1445.28 1168.62,1445.28 1169.6,1445.28 1170.57,1445.29 1171.55,1445.29 1172.52,1445.3 1173.5,1445.3 1174.47,1445.3 1175.45,1445.31 1176.42,1445.31 1177.4,1445.32 1178.37,1445.32 1179.35,1445.32 1180.33,1445.33 1181.3,1445.33 1182.28,1445.33 1183.25,1445.34 1184.23,1445.34 1185.2,1445.34 1186.18,1445.35 1187.15,1445.35 1188.13,1445.36 1189.1,1445.36 1190.08,1445.36 1191.05,1445.37 1192.03,1445.37 1193.01,1445.37 1193.98,1445.38 1194.96,1445.38 1195.93,1445.38 1196.91,1445.38 1197.88,1445.39 1198.86,1445.39 1199.83,1445.39 1200.81,1445.4 1201.78,1445.4 1202.76,1445.4 1203.73,1445.41 1204.71,1445.41 1205.69,1445.41 1206.66,1445.41 1207.64,1445.42 1208.61,1445.42 1209.59,1445.42 1210.56,1445.43 1211.54,1445.43 1212.51,1445.43 1213.49,1445.43 1214.46,1445.44 1215.44,1445.44 1216.41,1445.44 1217.39,1445.44 1218.37,1445.45 1219.34,1445.45 1220.32,1445.45 1221.29,1445.45 1222.27,1445.46 1223.24,1445.46 1224.22,1445.46 1225.19,1445.46 1226.17,1445.47 1227.14,1445.47 1228.12,1445.47 1229.1,1445.47 1230.07,1445.48 1231.05,1445.48 1232.02,1445.48 1233,1445.48 1233.97,1445.49 1234.95,1445.49 1235.92,1445.49 1236.9,1445.49 1237.87,1445.49 1238.85,1445.5 1239.82,1445.5 1240.8,1445.5 1241.78,1445.5 1242.75,1445.5 1243.73,1445.51 1244.7,1445.51 1245.68,1445.51 1246.65,1445.51 1247.63,1445.51 1248.6,1445.52 1249.58,1445.52 1250.55,1445.52 1251.53,1445.52 1252.5,1445.52 1253.48,1445.53 1254.46,1445.53 1255.43,1445.53 1256.41,1445.53 1257.38,1445.53 1258.36,1445.53 1259.33,1445.54 1260.31,1445.54 1261.28,1445.54 1262.26,1445.54 1263.23,1445.54 1264.21,1445.54 1265.18,1445.55 1266.16,1445.55 1267.14,1445.55 1268.11,1445.55 1269.09,1445.55 1270.06,1445.55 1271.04,1445.56 1272.01,1445.56 1272.99,1445.56 1273.96,1445.56 1274.94,1445.56 1275.91,1445.56 1276.89,1445.56 1277.87,1445.57 1278.84,1445.57 1279.82,1445.57 1280.79,1445.57 1281.77,1445.57 1282.74,1445.57 1283.72,1445.57 1284.69,1445.58 1285.67,1445.58 1286.64,1445.58 1287.62,1445.58 1288.59,1445.58 1289.57,1445.58 1290.55,1445.58 1291.52,1445.58 1292.5,1445.59 1293.47,1445.59 1294.45,1445.59 1295.42,1445.59 1296.4,1445.59 1297.37,1445.59 1298.35,1445.59 1299.32,1445.59 1300.3,1445.59 1301.27,1445.6 1302.25,1445.6 1303.23,1445.6 1304.2,1445.6 1305.18,1445.6 1306.15,1445.6 1307.13,1445.6 1308.1,1445.6 1309.08,1445.6 1310.05,1445.61 1311.03,1445.61 1312,1445.61 1312.98,1445.61 1313.95,1445.61 1314.93,1445.61 1315.91,1445.61 1316.88,1445.61 1317.86,1445.61 1318.83,1445.61 1319.81,1445.62 1320.78,1445.62 1321.76,1445.62 1322.73,1445.62 1323.71,1445.62 1324.68,1445.62 1325.66,1445.62 1326.64,1445.62 1327.61,1445.62 1328.59,1445.62 1329.56,1445.62 1330.54,1445.63 1331.51,1445.63 1332.49,1445.63 1333.46,1445.63 1334.44,1445.63 1335.41,1445.63 1336.39,1445.63 1337.36,1445.63 1338.34,1445.63 1339.32,1445.63 1340.29,1445.63 1341.27,1445.63 1342.24,1445.64 1343.22,1445.64 1344.19,1445.64 1345.17,1445.64 1346.14,1445.64 1347.12,1445.64 1348.09,1445.64 1349.07,1445.64 1350.04,1445.64 1351.02,1445.64 1352,1445.64 1352.97,1445.64 1353.95,1445.64 1354.92,1445.64 1355.9,1445.65 1356.87,1445.65 1357.85,1445.65 1358.82,1445.65 1359.8,1445.65 1360.77,1445.65 1361.75,1445.65 1362.72,1445.65 1363.7,1445.65 1364.68,1445.65 1365.65,1445.65 1366.63,1445.65 1367.6,1445.65 1368.58,1445.65 1369.55,1445.65 1370.53,1445.65 1371.5,1445.66 1372.48,1445.66 1373.45,1445.66 1374.43,1445.66 1375.41,1445.66 1376.38,1445.66 1377.36,1445.66 1378.33,1445.66 1379.31,1445.66 1380.28,1445.66 1381.26,1445.66 1382.23,1445.66 1383.21,1445.66 1384.18,1445.66 1385.16,1445.66 1386.13,1445.66 1387.11,1445.66 1388.09,1445.66 1389.06,1445.66 1390.04,1445.67 1391.01,1445.67 1391.99,1445.67 1392.96,1445.67 1393.94,1445.67 1394.91,1445.67 1395.89,1445.67 1396.86,1445.67 1397.84,1445.67 1398.81,1445.67 1399.79,1445.67 1400.77,1445.67 1401.74,1445.67 1402.72,1445.67 1403.69,1445.67 1404.67,1445.67 1405.64,1445.67 1406.62,1445.67 1407.59,1445.67 1408.57,1445.67 1409.54,1445.67 1410.52,1445.67 1411.49,1445.67 1412.47,1445.68 1413.45,1445.68 1414.42,1445.68 1415.4,1445.68 1416.37,1445.68 1417.35,1445.68 1418.32,1445.68 1419.3,1445.68 1420.27,1445.68 1421.25,1445.68 1422.22,1445.68 1423.2,1445.68 1424.18,1445.68 1425.15,1445.68 1426.13,1445.68 1427.1,1445.68 1428.08,1445.68 1429.05,1445.68 1430.03,1445.68 1431,1445.68 1431.98,1445.68 1432.95,1445.68 1433.93,1445.68 1434.9,1445.68 1435.88,1445.68 1436.86,1445.68 1437.83,1445.68 1438.81,1445.68 1439.78,1445.68 1440.76,1445.68 1441.73,1445.69 1442.71,1445.69 1443.68,1445.69 1444.66,1445.69 1445.63,1445.69 1446.61,1445.69 1447.58,1445.69 1448.56,1445.69 1449.54,1445.69 1450.51,1445.69 1451.49,1445.69 1452.46,1445.69 1453.44,1445.69 1454.41,1445.69 1455.39,1445.69 1456.36,1445.69 1457.34,1445.69 1458.31,1445.69 1459.29,1445.69 1460.26,1445.69 1461.24,1445.69 1462.22,1445.69 1463.19,1445.69 1464.17,1445.69 1465.14,1445.69 1466.12,1445.69 1467.09,1445.69 1468.07,1445.69 1469.04,1445.69 1470.02,1445.69 1470.99,1445.69 1471.97,1445.69 1472.95,1445.69 1473.92,1445.69 1474.9,1445.69 1475.87,1445.69 1476.85,1445.69 1477.82,1445.69 1478.8,1445.69 1479.77,1445.69 1480.75,1445.69 1481.72,1445.7 1482.7,1445.7 1483.67,1445.7 1484.65,1445.7 1485.63,1445.7 1486.6,1445.7 1487.58,1445.7 1488.55,1445.7 1489.53,1445.7 1490.5,1445.7 1491.48,1445.7 1492.45,1445.7 1493.43,1445.7 1494.4,1445.7 1495.38,1445.7 1496.35,1445.7 1497.33,1445.7 1498.31,1445.7 1499.28,1445.7 1500.26,1445.7 1501.23,1445.7 1502.21,1445.7 1503.18,1445.7 1504.16,1445.7 1505.13,1445.7 1506.11,1445.7 1507.08,1445.7 1508.06,1445.7 1509.03,1445.7 1510.01,1445.7 1510.99,1445.7 1511.96,1445.7 1512.94,1445.7 1513.91,1445.7 1514.89,1445.7 1515.86,1445.7 1516.84,1445.7 1517.81,1445.7 1518.79,1445.7 1519.76,1445.7 1520.74,1445.7 1521.72,1445.7 1522.69,1445.7 1523.67,1445.7 1524.64,1445.7 1525.62,1445.7 1526.59,1445.7 1527.57,1445.7 1528.54,1445.7 1529.52,1445.7 1530.49,1445.7 1531.47,1445.7 1532.44,1445.7 1533.42,1445.7 1534.4,1445.7 1535.37,1445.7 1536.35,1445.7 1537.32,1445.7 1538.3,1445.7 1539.27,1445.7 1540.25,1445.7 1541.22,1445.7 1542.2,1445.7 1543.17,1445.7 1544.15,1445.7 1545.12,1445.7 1546.1,1445.7 1547.08,1445.7 1548.05,1445.7 1549.03,1445.7 1550,1445.71 1550.98,1445.71 1551.95,1445.71 1552.93,1445.71 1553.9,1445.71 1554.88,1445.71 1555.85,1445.71 1556.83,1445.71 1557.8,1445.71 1558.78,1445.71 1559.76,1445.71 1560.73,1445.71 1561.71,1445.71 1562.68,1445.71 1563.66,1445.71 1564.63,1445.71 1565.61,1445.71 1566.58,1445.71 1567.56,1445.71 1568.53,1445.71 1569.51,1445.71 1570.49,1445.71 1571.46,1445.71 1572.44,1445.71 1573.41,1445.71 1574.39,1445.71 1575.36,1445.71 1576.34,1445.71 1577.31,1445.71 1578.29,1445.71 1579.26,1445.71 1580.24,1445.71 1581.21,1445.71 1582.19,1445.71 1583.17,1445.71 1584.14,1445.71 1585.12,1445.71 1586.09,1445.71 1587.07,1445.71 1588.04,1445.71 1589.02,1445.71 1589.99,1445.71 1590.97,1445.71 1591.94,1445.71 1592.92,1445.71 1593.89,1445.71 1594.87,1445.71 1595.85,1445.71 1596.82,1445.71 1597.8,1445.71 1598.77,1445.71 1599.75,1445.71 1600.72,1445.71 1601.7,1445.71 1602.67,1445.71 1603.65,1445.71 1604.62,1445.71 1605.6,1445.71 1606.57,1445.71 1607.55,1445.71 1608.53,1445.71 1609.5,1445.71 1610.48,1445.71 1611.45,1445.71 1612.43,1445.71 1613.4,1445.71 1614.38,1445.71 1615.35,1445.71 1616.33,1445.71 1617.3,1445.71 1618.28,1445.71 1619.26,1445.71 1620.23,1445.71 1621.21,1445.71 1622.18,1445.71 1623.16,1445.71 1624.13,1445.71 1625.11,1445.71 1626.08,1445.71 1627.06,1445.71 1628.03,1445.71 1629.01,1445.71 1629.98,1445.71 1630.96,1445.71 1631.94,1445.71 1632.91,1445.71 1633.89,1445.71 1634.86,1445.71 1635.84,1445.71 1636.81,1445.71 1637.79,1445.71 1638.76,1445.71 1639.74,1445.71 1640.71,1445.71 1641.69,1445.71 1642.66,1445.71 1643.64,1445.71 1644.62,1445.71 1645.59,1445.71 1646.57,1445.71 1647.54,1445.71 1648.52,1445.71 1649.49,1445.71 1650.47,1445.71 1651.44,1445.71 1652.42,1445.71 1653.39,1445.71 1654.37,1445.71 1655.34,1445.71 1656.32,1445.71 1657.3,1445.71 1658.27,1445.71 1659.25,1445.71 1660.22,1445.71 1661.2,1445.71 1662.17,1445.71 1663.15,1445.71 1664.12,1445.71 1665.1,1445.71 1666.07,1445.71 1667.05,1445.71 1668.03,1445.71 1669,1445.71 1669.98,1445.71 1670.95,1445.71 1671.93,1445.71 1672.9,1445.71 1673.88,1445.71 1674.85,1445.71 1675.83,1445.71 1676.8,1445.71 1677.78,1445.71 1678.75,1445.71 1679.73,1445.71 1680.71,1445.71 1681.68,1445.71 1682.66,1445.71 1683.63,1445.71 1684.61,1445.71 1685.58,1445.71 1686.56,1445.71 1687.53,1445.71 1688.51,1445.71 1689.48,1445.71 1690.46,1445.71 1691.43,1445.71 1692.41,1445.71 1693.39,1445.71 1694.36,1445.71 1695.34,1445.71 1696.31,1445.71 1697.29,1445.71 1698.26,1445.71 1699.24,1445.71 1700.21,1445.71 1701.19,1445.71 1702.16,1445.71 1703.14,1445.71 1704.11,1445.71 1705.09,1445.71 1706.07,1445.71 1707.04,1445.71 1708.02,1445.71 1708.99,1445.71 1709.97,1445.71 1710.94,1445.71 1711.92,1445.71 1712.89,1445.71 1713.87,1445.71 1714.84,1445.71 1715.82,1445.71 1716.8,1445.71 1717.77,1445.71 1718.75,1445.71 1719.72,1445.71 1720.7,1445.71 1721.67,1445.71 1722.65,1445.71 1723.62,1445.71 1724.6,1445.71 1725.57,1445.71 1726.55,1445.71 1727.52,1445.71 1728.5,1445.71 1729.48,1445.71 1730.45,1445.71 1731.43,1445.71 1732.4,1445.71 1733.38,1445.71 1734.35,1445.71 1735.33,1445.71 1736.3,1445.71 1737.28,1445.71 1738.25,1445.71 1739.23,1445.71 1740.2,1445.71 1741.18,1445.71 1742.16,1445.71 1743.13,1445.71 1744.11,1445.71 1745.08,1445.71 1746.06,1445.71 1747.03,1445.71 1748.01,1445.71 1748.98,1445.71 1749.96,1445.71 1750.93,1445.71 1751.91,1445.71 1752.88,1445.71 1753.86,1445.71 1754.84,1445.71 1755.81,1445.71 1756.79,1445.71 1757.76,1445.71 1758.74,1445.71 1759.71,1445.71 1760.69,1445.71 1761.66,1445.71 1762.64,1445.71 1763.61,1445.71 1764.59,1445.71 1765.57,1445.71 1766.54,1445.71 1767.52,1445.71 1768.49,1445.71 1769.47,1445.71 1770.44,1445.71 1771.42,1445.71 1772.39,1445.71 1773.37,1445.71 1774.34,1445.71 1775.32,1445.71 1776.29,1445.71 1777.27,1445.71 1778.25,1445.71 1779.22,1445.71 1780.2,1445.71 1781.17,1445.71 1782.15,1445.71 1783.12,1445.71 1784.1,1445.71 1785.07,1445.71 1786.05,1445.71 1787.02,1445.71 1788,1445.71 1788.97,1445.71 1789.95,1445.71 1790.93,1445.71 1791.9,1445.71 1792.88,1445.71 1793.85,1445.71 1794.83,1445.71 1795.8,1445.71 1796.78,1445.71 1797.75,1445.71 1798.73,1445.71 1799.7,1445.71 1800.68,1445.71 1801.65,1445.71 1802.63,1445.71 1803.61,1445.71 1804.58,1445.71 1805.56,1445.71 1806.53,1445.71 1807.51,1445.71 1808.48,1445.71 1809.46,1445.71 1810.43,1445.71 1811.41,1445.71 1812.38,1445.71 1813.36,1445.71 1814.34,1445.71 1815.31,1445.71 1816.29,1445.71 1817.26,1445.71 1818.24,1445.71 1819.21,1445.71 1820.19,1445.71 1821.16,1445.71 1822.14,1445.71 1823.11,1445.71 1824.09,1445.71 1825.06,1445.71 1826.04,1445.71 1827.02,1445.71 1827.99,1445.71 1828.97,1445.71 1829.94,1445.72 1830.92,1445.72 1831.89,1445.72 1832.87,1445.72 1833.84,1445.72 1834.82,1445.72 1835.79,1445.72 1836.77,1445.72 1837.74,1445.72 1838.72,1445.72 1839.7,1445.72 1840.67,1445.72 1841.65,1445.72 1842.62,1445.72 1843.6,1445.72 1844.57,1445.72 1845.55,1445.72 1846.52,1445.72 1847.5,1445.72 1848.47,1445.72 1849.45,1445.72 1850.42,1445.72 1851.4,1445.72 1852.38,1445.72 1853.35,1445.72 1854.33,1445.72 1855.3,1445.72 1856.28,1445.72 1857.25,1445.72 1858.23,1445.72 1859.2,1445.72 1860.18,1445.72 1861.15,1445.72 1862.13,1445.72 1863.11,1445.72 1864.08,1445.72 1865.06,1445.72 1866.03,1445.72 1867.01,1445.72 1867.98,1445.72 1868.96,1445.72 1869.93,1445.72 1870.91,1445.72 1871.88,1445.72 1872.86,1445.72 1873.83,1445.72 1874.81,1445.72 1875.79,1445.72 1876.76,1445.72 1877.74,1445.72 1878.71,1445.72 1879.69,1445.72 1880.66,1445.72 1881.64,1445.72 1882.61,1445.72 1883.59,1445.72 1884.56,1445.72 1885.54,1445.72 1886.51,1445.72 1887.49,1445.72 1888.47,1445.72 1889.44,1445.72 1890.42,1445.72 1891.39,1445.72 1892.37,1445.72 1893.34,1445.72 1894.32,1445.72 1895.29,1445.72 1896.27,1445.72 1897.24,1445.72 1898.22,1445.72 1899.19,1445.72 1900.17,1445.72 1901.15,1445.72 1902.12,1445.72 1903.1,1445.72 1904.07,1445.72 1905.05,1445.72 1906.02,1445.72 1907,1445.72 1907.97,1445.72 1908.95,1445.72 1909.92,1445.72 1910.9,1445.72 1911.88,1445.72 1912.85,1445.72 1913.83,1445.72 1914.8,1445.72 1915.78,1445.72 1916.75,1445.72 1917.73,1445.72 1918.7,1445.72 1919.68,1445.72 1920.65,1445.72 1921.63,1445.72 1922.6,1445.72 1923.58,1445.72 1924.56,1445.72 1925.53,1445.72 1926.51,1445.72 1927.48,1445.72 1928.46,1445.72 1929.43,1445.72 1930.41,1445.72 1931.38,1445.72 1932.36,1445.72 1933.33,1445.72 1934.31,1445.72 1935.28,1445.72 1936.26,1445.72 1937.24,1445.72 1938.21,1445.72 1939.19,1445.72 1940.16,1445.72 1941.14,1445.72 1942.11,1445.72 1943.09,1445.72 1944.06,1445.72 1945.04,1445.72 1946.01,1445.72 1946.99,1445.72 1947.96,1445.72 1948.94,1445.72 1949.92,1445.72 1950.89,1445.72 1951.87,1445.72 1952.84,1445.72 1953.82,1445.72 1954.79,1445.72 1955.77,1445.72 1956.74,1445.72 1957.72,1445.72 1958.69,1445.72 1959.67,1445.72 1960.65,1445.72 1961.62,1445.72 1962.6,1445.72 1963.57,1445.72 1964.55,1445.72 1965.52,1445.72 1966.5,1445.72 1967.47,1445.72 1968.45,1445.72 1969.42,1445.72 1970.4,1445.72 1971.37,1445.72 1972.35,1445.72 1973.33,1445.72 1974.3,1445.72 1975.28,1445.72 1976.25,1445.72 1977.23,1445.72 1978.2,1445.72 1979.18,1445.72 1980.15,1445.72 1981.13,1445.72 1982.1,1445.72 1983.08,1445.72 1984.05,1445.72 1985.03,1445.72 1986.01,1445.72 1986.98,1445.72 1987.96,1445.72 1988.93,1445.72 1989.91,1445.72 1990.88,1445.72 1991.86,1445.72 1992.83,1445.72 1993.81,1445.72 1994.78,1445.72 1995.76,1445.72 1996.73,1445.72 1997.71,1445.72 1998.69,1445.72 1999.66,1445.72 2000.64,1445.72 2001.61,1445.72 2002.59,1445.72 2003.56,1445.72 2004.54,1445.72 2005.51,1445.72 2006.49,1445.72 2007.46,1445.72 2008.44,1445.72 2009.42,1445.72 2010.39,1445.72 2011.37,1445.72 2012.34,1445.72 2013.32,1445.72 2014.29,1445.72 2015.27,1445.72 2016.24,1445.72 2017.22,1445.72 2018.19,1445.72 2019.17,1445.72 2020.14,1445.72 2021.12,1445.72 2022.1,1445.72 2023.07,1445.72 2024.05,1445.72 2025.02,1445.72 2026,1445.72 2026.97,1445.72 2027.95,1445.72 2028.92,1445.72 2029.9,1445.72 2030.87,1445.72 2031.85,1445.72 2032.82,1445.72 2033.8,1445.72 2034.78,1445.72 2035.75,1445.72 2036.73,1445.72 2037.7,1445.72 2038.68,1445.72 2039.65,1445.72 2040.63,1445.72 2041.6,1445.72 2042.58,1445.72 2043.55,1445.72 2044.53,1445.72 2045.5,1445.72 2046.48,1445.72 2047.46,1445.72 2048.43,1445.72 2049.41,1445.72 2050.38,1445.72 2051.36,1445.72 2052.33,1445.72 2053.31,1445.72 2054.28,1445.72 2055.26,1445.72 2056.23,1445.72 2057.21,1445.72 2058.19,1445.72 2059.16,1445.72 2060.14,1445.72 2061.11,1445.72 2062.09,1445.72 2063.06,1445.72 2064.04,1445.72 2065.01,1445.72 2065.99,1445.72 2066.96,1445.72 2067.94,1445.72 2068.91,1445.72 2069.89,1445.72 2070.87,1445.72 2071.84,1445.72 2072.82,1445.72 2073.79,1445.72 2074.77,1445.72 2075.74,1445.72 2076.72,1445.72 2077.69,1445.72 2078.67,1445.72 2079.64,1445.72 2080.62,1445.72 2081.59,1445.72 2082.57,1445.72 2083.55,1445.72 2084.52,1445.72 2085.5,1445.72 2086.47,1445.72 2087.45,1445.72 2088.42,1445.72 2089.4,1445.72 2090.37,1445.72 2091.35,1445.72 2092.32,1445.72 2093.3,1445.72 2094.27,1445.72 2095.25,1445.72 2096.23,1445.72 2097.2,1445.72 2098.18,1445.72 2099.15,1445.72 2100.13,1445.72 2101.1,1445.72 2102.08,1445.72 2103.05,1445.72 2104.03,1445.72 2105,1445.72 2105.98,1445.72 2106.96,1445.72 2107.93,1445.72 2108.91,1445.72 2109.88,1445.72 2110.86,1445.72 2111.83,1445.72 2112.81,1445.72 2113.78,1445.72 2114.76,1445.72 2115.73,1445.72 2116.71,1445.72 2117.68,1445.72 2118.66,1445.72 2119.64,1445.72 2120.61,1445.72 2121.59,1445.72 2122.56,1445.72 2123.54,1445.72 2124.51,1445.72 2125.49,1445.72 2126.46,1445.72 2127.44,1445.72 2128.41,1445.72 2129.39,1445.72 2130.36,1445.72 2131.34,1445.72 2132.32,1445.72 2133.29,1445.72 2134.27,1445.72 2135.24,1445.72 2136.22,1445.72 2137.19,1445.72 2138.17,1445.72 2139.14,1445.72 2140.12,1445.72 2141.09,1445.72 2142.07,1445.72 2143.04,1445.72 2144.02,1445.72 2145,1445.72 2145.97,1445.72 2146.95,1445.72 2147.92,1445.72 2148.9,1445.72 2149.87,1445.72 2150.85,1445.72 2151.82,1445.72 2152.8,1445.72 2153.77,1445.72 2154.75,1445.72 2155.73,1445.72 2156.7,1445.72 2157.68,1445.72 2158.65,1445.72 2159.63,1445.72 2160.6,1445.72 2161.58,1445.72 2162.55,1445.72 2163.53,1445.72 2164.5,1445.72 2165.48,1445.72 2166.45,1445.72 2167.43,1445.72 2168.41,1445.72 2169.38,1445.72 2170.36,1445.72 2171.33,1445.72 2172.31,1445.72 2173.28,1445.72 2174.26,1445.72 2175.23,1445.72 2176.21,1445.72 2177.18,1445.72 2178.16,1445.72 2179.13,1445.72 2180.11,1445.72 2181.09,1445.72 2182.06,1445.72 2183.04,1445.72 2184.01,1445.72 2184.99,1445.72 2185.96,1445.72 2186.94,1445.72 2187.91,1445.72 2188.89,1445.72 2189.86,1445.72 2190.84,1445.72 2191.81,1445.72 2192.79,1445.72 2193.77,1445.72 2194.74,1445.72 2195.72,1445.72 2196.69,1445.72 2197.67,1445.72 2198.64,1445.72 2199.62,1445.72 2200.59,1445.72 2201.57,1445.72 2202.54,1445.72 2203.52,1445.72 2204.5,1445.72 2205.47,1445.72 2206.45,1445.72 2207.42,1445.72 2208.4,1445.72 2209.37,1445.72 2210.35,1445.72 2211.32,1445.72 2212.3,1445.72 2213.27,1445.72 2214.25,1445.72 2215.22,1445.72 2216.2,1445.72 2217.18,1445.72 2218.15,1445.72 2219.13,1445.72 2220.1,1445.72 2221.08,1445.72 2222.05,1445.72 2223.03,1445.72 2224,1445.72 2224.98,1445.72 2225.95,1445.72 2226.93,1445.72 2227.9,1445.72 2228.88,1445.72 2229.86,1445.72 2230.83,1445.72 2231.81,1445.72 2232.78,1445.72 2233.76,1445.72 2234.73,1445.72 2235.71,1445.72 2236.68,1445.72 2237.66,1445.72 2238.63,1445.72 2239.61,1445.72 2240.58,1445.72 2241.56,1445.72 2242.54,1445.72 2243.51,1445.72 2244.49,1445.72 2245.46,1445.72 2246.44,1445.72 2247.41,1445.72 2248.39,1445.72 2249.36,1445.72 2250.34,1445.72 2251.31,1445.72 2252.29,1445.72 2253.27,1445.72 2254.24,1445.72 2255.22,1445.72 2256.19,1445.72 2257.17,1445.72 2258.14,1445.72 2259.12,1445.72 2260.09,1445.72 2261.07,1445.72 2262.04,1445.72 2263.02,1445.72 2263.99,1445.72 2264.97,1445.72 2265.95,1445.72 2266.92,1445.72 2267.9,1445.72 2268.87,1445.72 2269.85,1445.72 2270.82,1445.72 2271.8,1445.72 2272.77,1445.72 2273.75,1445.72 2274.72,1445.72 2275.7,1445.72 2276.67,1445.72 2277.65,1445.72 2278.63,1445.72 2279.6,1445.72 2280.58,1445.72 2281.55,1445.72 2282.53,1445.72 2283.5,1445.72 2284.48,1445.72 2285.45,1445.72 2286.43,1445.72 2287.4,1445.72 2288.38,1445.72 2289.35,1445.72 2290.33,1445.72 2291.31,1445.72 2292.28,1445.72 2293.26,1445.72 2294.23,1445.72 "/>
<path clip-path="url(#clip950)" d="M2024.61 198.898 L2283.83 198.898 L2283.83 95.2176 L2024.61 95.2176  Z" fill="#ffffff" fill-rule="evenodd" fill-opacity="1"/>
<polyline clip-path="url(#clip950)" style="stroke:#000000; stroke-linecap:round; stroke-linejoin:round; stroke-width:4; stroke-opacity:1; fill:none" points="2024.61,198.898 2283.83,198.898 2283.83,95.2176 2024.61,95.2176 2024.61,198.898 "/>
<polyline clip-path="url(#clip950)" style="stroke:#009af9; stroke-linecap:round; stroke-linejoin:round; stroke-width:4; stroke-opacity:1; fill:none" points="2047.59,147.058 2185.45,147.058 "/>
<path clip-path="url(#clip950)" d="M2222.26 166.745 Q2220.46 171.375 2218.75 172.787 Q2217.03 174.199 2214.16 174.199 L2210.76 174.199 L2210.76 170.634 L2213.26 170.634 Q2215.02 170.634 2215.99 169.8 Q2216.96 168.967 2218.14 165.865 L2218.91 163.921 L2208.42 138.412 L2212.94 138.412 L2221.04 158.689 L2229.14 138.412 L2233.65 138.412 L2222.26 166.745 Z" fill="#000000" fill-rule="nonzero" fill-opacity="1" /><path clip-path="url(#clip950)" d="M2240.94 160.402 L2248.58 160.402 L2248.58 134.037 L2240.27 135.703 L2240.27 131.444 L2248.54 129.778 L2253.21 129.778 L2253.21 160.402 L2260.85 160.402 L2260.85 164.338 L2240.94 164.338 L2240.94 160.402 Z" fill="#000000" fill-rule="nonzero" fill-opacity="1" /></svg>
