<?xml version="1.0" encoding="utf-8"?>
<svg xmlns="http://www.w3.org/2000/svg" xmlns:xlink="http://www.w3.org/1999/xlink" width="600" height="400" viewBox="0 0 2400 1600">
<defs>
  <clipPath id="clip430">
    <rect x="0" y="0" width="2400" height="1600"/>
  </clipPath>
</defs>
<path clip-path="url(#clip430)" d="M0 1600 L2400 1600 L2400 0 L0 0  Z" fill="#ffffff" fill-rule="evenodd" fill-opacity="1"/>
<defs>
  <clipPath id="clip431">
    <rect x="480" y="0" width="1681" height="1600"/>
  </clipPath>
</defs>
<path clip-path="url(#clip430)" d="M141.853 1486.45 L2352.76 1486.45 L2352.76 47.2441 L141.853 47.2441  Z" fill="#ffffff" fill-rule="evenodd" fill-opacity="1"/>
<defs>
  <clipPath id="clip432">
    <rect x="141" y="47" width="2212" height="1440"/>
  </clipPath>
</defs>
<polyline clip-path="url(#clip432)" style="stroke:#000000; stroke-linecap:round; stroke-linejoin:round; stroke-width:2; stroke-opacity:0.1; fill:none" points="204.426,1486.45 204.426,47.2441 "/>
<polyline clip-path="url(#clip432)" style="stroke:#000000; stroke-linecap:round; stroke-linejoin:round; stroke-width:2; stroke-opacity:0.1; fill:none" points="725.865,1486.45 725.865,47.2441 "/>
<polyline clip-path="url(#clip432)" style="stroke:#000000; stroke-linecap:round; stroke-linejoin:round; stroke-width:2; stroke-opacity:0.1; fill:none" points="1247.3,1486.45 1247.3,47.2441 "/>
<polyline clip-path="url(#clip432)" style="stroke:#000000; stroke-linecap:round; stroke-linejoin:round; stroke-width:2; stroke-opacity:0.1; fill:none" points="1768.74,1486.45 1768.74,47.2441 "/>
<polyline clip-path="url(#clip432)" style="stroke:#000000; stroke-linecap:round; stroke-linejoin:round; stroke-width:2; stroke-opacity:0.1; fill:none" points="2290.18,1486.45 2290.18,47.2441 "/>
<polyline clip-path="url(#clip430)" style="stroke:#000000; stroke-linecap:round; stroke-linejoin:round; stroke-width:4; stroke-opacity:1; fill:none" points="141.853,1486.45 2352.76,1486.45 "/>
<polyline clip-path="url(#clip430)" style="stroke:#000000; stroke-linecap:round; stroke-linejoin:round; stroke-width:4; stroke-opacity:1; fill:none" points="204.426,1486.45 204.426,1467.55 "/>
<polyline clip-path="url(#clip430)" style="stroke:#000000; stroke-linecap:round; stroke-linejoin:round; stroke-width:4; stroke-opacity:1; fill:none" points="725.865,1486.45 725.865,1467.55 "/>
<polyline clip-path="url(#clip430)" style="stroke:#000000; stroke-linecap:round; stroke-linejoin:round; stroke-width:4; stroke-opacity:1; fill:none" points="1247.3,1486.45 1247.3,1467.55 "/>
<polyline clip-path="url(#clip430)" style="stroke:#000000; stroke-linecap:round; stroke-linejoin:round; stroke-width:4; stroke-opacity:1; fill:none" points="1768.74,1486.45 1768.74,1467.55 "/>
<polyline clip-path="url(#clip430)" style="stroke:#000000; stroke-linecap:round; stroke-linejoin:round; stroke-width:4; stroke-opacity:1; fill:none" points="2290.18,1486.45 2290.18,1467.55 "/>
<path clip-path="url(#clip430)" d="M181.81 1517.37 Q178.199 1517.37 176.37 1520.93 Q174.565 1524.47 174.565 1531.6 Q174.565 1538.71 176.37 1542.27 Q178.199 1545.82 181.81 1545.82 Q185.444 1545.82 187.25 1542.27 Q189.079 1538.71 189.079 1531.6 Q189.079 1524.47 187.25 1520.93 Q185.444 1517.37 181.81 1517.37 M181.81 1513.66 Q187.62 1513.66 190.676 1518.27 Q193.754 1522.85 193.754 1531.6 Q193.754 1540.33 190.676 1544.94 Q187.62 1549.52 181.81 1549.52 Q176 1549.52 172.921 1544.94 Q169.866 1540.33 169.866 1531.6 Q169.866 1522.85 172.921 1518.27 Q176 1513.66 181.81 1513.66 Z" fill="#000000" fill-rule="nonzero" fill-opacity="1" /><path clip-path="url(#clip430)" d="M201.972 1542.97 L206.856 1542.97 L206.856 1548.85 L201.972 1548.85 L201.972 1542.97 Z" fill="#000000" fill-rule="nonzero" fill-opacity="1" /><path clip-path="url(#clip430)" d="M227.041 1517.37 Q223.43 1517.37 221.602 1520.93 Q219.796 1524.47 219.796 1531.6 Q219.796 1538.71 221.602 1542.27 Q223.43 1545.82 227.041 1545.82 Q230.676 1545.82 232.481 1542.27 Q234.31 1538.71 234.31 1531.6 Q234.31 1524.47 232.481 1520.93 Q230.676 1517.37 227.041 1517.37 M227.041 1513.66 Q232.851 1513.66 235.907 1518.27 Q238.986 1522.85 238.986 1531.6 Q238.986 1540.33 235.907 1544.94 Q232.851 1549.52 227.041 1549.52 Q221.231 1549.52 218.152 1544.94 Q215.097 1540.33 215.097 1531.6 Q215.097 1522.85 218.152 1518.27 Q221.231 1513.66 227.041 1513.66 Z" fill="#000000" fill-rule="nonzero" fill-opacity="1" /><path clip-path="url(#clip430)" d="M703.747 1517.37 Q700.136 1517.37 698.307 1520.93 Q696.502 1524.47 696.502 1531.6 Q696.502 1538.71 698.307 1542.27 Q700.136 1545.82 703.747 1545.82 Q707.381 1545.82 709.187 1542.27 Q711.016 1538.71 711.016 1531.6 Q711.016 1524.47 709.187 1520.93 Q707.381 1517.37 703.747 1517.37 M703.747 1513.66 Q709.557 1513.66 712.613 1518.27 Q715.691 1522.85 715.691 1531.6 Q715.691 1540.33 712.613 1544.94 Q709.557 1549.52 703.747 1549.52 Q697.937 1549.52 694.858 1544.94 Q691.803 1540.33 691.803 1531.6 Q691.803 1522.85 694.858 1518.27 Q697.937 1513.66 703.747 1513.66 Z" fill="#000000" fill-rule="nonzero" fill-opacity="1" /><path clip-path="url(#clip430)" d="M723.909 1542.97 L728.793 1542.97 L728.793 1548.85 L723.909 1548.85 L723.909 1542.97 Z" fill="#000000" fill-rule="nonzero" fill-opacity="1" /><path clip-path="url(#clip430)" d="M739.025 1514.29 L757.381 1514.29 L757.381 1518.22 L743.307 1518.22 L743.307 1526.7 Q744.326 1526.35 745.344 1526.19 Q746.363 1526 747.381 1526 Q753.168 1526 756.548 1529.17 Q759.927 1532.34 759.927 1537.76 Q759.927 1543.34 756.455 1546.44 Q752.983 1549.52 746.664 1549.52 Q744.488 1549.52 742.219 1549.15 Q739.974 1548.78 737.566 1548.04 L737.566 1543.34 Q739.65 1544.47 741.872 1545.03 Q744.094 1545.58 746.571 1545.58 Q750.576 1545.58 752.914 1543.48 Q755.251 1541.37 755.251 1537.76 Q755.251 1534.15 752.914 1532.04 Q750.576 1529.94 746.571 1529.94 Q744.696 1529.94 742.821 1530.35 Q740.969 1530.77 739.025 1531.65 L739.025 1514.29 Z" fill="#000000" fill-rule="nonzero" fill-opacity="1" /><path clip-path="url(#clip430)" d="M1214.46 1544.91 L1222.1 1544.91 L1222.1 1518.55 L1213.79 1520.21 L1213.79 1515.95 L1222.05 1514.29 L1226.73 1514.29 L1226.73 1544.91 L1234.36 1544.91 L1234.36 1548.85 L1214.46 1548.85 L1214.46 1544.91 Z" fill="#000000" fill-rule="nonzero" fill-opacity="1" /><path clip-path="url(#clip430)" d="M1243.81 1542.97 L1248.69 1542.97 L1248.69 1548.85 L1243.81 1548.85 L1243.81 1542.97 Z" fill="#000000" fill-rule="nonzero" fill-opacity="1" /><path clip-path="url(#clip430)" d="M1268.88 1517.37 Q1265.27 1517.37 1263.44 1520.93 Q1261.63 1524.47 1261.63 1531.6 Q1261.63 1538.71 1263.44 1542.27 Q1265.27 1545.82 1268.88 1545.82 Q1272.51 1545.82 1274.32 1542.27 Q1276.15 1538.71 1276.15 1531.6 Q1276.15 1524.47 1274.32 1520.93 Q1272.51 1517.37 1268.88 1517.37 M1268.88 1513.66 Q1274.69 1513.66 1277.74 1518.27 Q1280.82 1522.85 1280.82 1531.6 Q1280.82 1540.33 1277.74 1544.94 Q1274.69 1549.52 1268.88 1549.52 Q1263.07 1549.52 1259.99 1544.94 Q1256.93 1540.33 1256.93 1531.6 Q1256.93 1522.85 1259.99 1518.27 Q1263.07 1513.66 1268.88 1513.66 Z" fill="#000000" fill-rule="nonzero" fill-opacity="1" /><path clip-path="url(#clip430)" d="M1736.39 1544.91 L1744.03 1544.91 L1744.03 1518.55 L1735.72 1520.21 L1735.72 1515.95 L1743.99 1514.29 L1748.66 1514.29 L1748.66 1544.91 L1756.3 1544.91 L1756.3 1548.85 L1736.39 1548.85 L1736.39 1544.91 Z" fill="#000000" fill-rule="nonzero" fill-opacity="1" /><path clip-path="url(#clip430)" d="M1765.75 1542.97 L1770.63 1542.97 L1770.63 1548.85 L1765.75 1548.85 L1765.75 1542.97 Z" fill="#000000" fill-rule="nonzero" fill-opacity="1" /><path clip-path="url(#clip430)" d="M1780.86 1514.29 L1799.22 1514.29 L1799.22 1518.22 L1785.14 1518.22 L1785.14 1526.7 Q1786.16 1526.35 1787.18 1526.19 Q1788.2 1526 1789.22 1526 Q1795.01 1526 1798.38 1529.17 Q1801.76 1532.34 1801.76 1537.76 Q1801.76 1543.34 1798.29 1546.44 Q1794.82 1549.52 1788.5 1549.52 Q1786.32 1549.52 1784.06 1549.15 Q1781.81 1548.78 1779.4 1548.04 L1779.4 1543.34 Q1781.49 1544.47 1783.71 1545.03 Q1785.93 1545.58 1788.41 1545.58 Q1792.41 1545.58 1794.75 1543.48 Q1797.09 1541.37 1797.09 1537.76 Q1797.09 1534.15 1794.75 1532.04 Q1792.41 1529.94 1788.41 1529.94 Q1786.53 1529.94 1784.66 1530.35 Q1782.81 1530.77 1780.86 1531.65 L1780.86 1514.29 Z" fill="#000000" fill-rule="nonzero" fill-opacity="1" /><path clip-path="url(#clip430)" d="M2261.42 1544.91 L2277.74 1544.91 L2277.74 1548.85 L2255.8 1548.85 L2255.8 1544.91 Q2258.46 1542.16 2263.04 1537.53 Q2267.65 1532.88 2268.83 1531.53 Q2271.07 1529.01 2271.95 1527.27 Q2272.86 1525.51 2272.86 1523.82 Q2272.86 1521.07 2270.91 1519.33 Q2268.99 1517.6 2265.89 1517.6 Q2263.69 1517.6 2261.24 1518.36 Q2258.81 1519.13 2256.03 1520.68 L2256.03 1515.95 Q2258.85 1514.82 2261.31 1514.24 Q2263.76 1513.66 2265.8 1513.66 Q2271.17 1513.66 2274.36 1516.35 Q2277.56 1519.03 2277.56 1523.52 Q2277.56 1525.65 2276.75 1527.57 Q2275.96 1529.47 2273.85 1532.07 Q2273.27 1532.74 2270.17 1535.95 Q2267.07 1539.15 2261.42 1544.91 Z" fill="#000000" fill-rule="nonzero" fill-opacity="1" /><path clip-path="url(#clip430)" d="M2287.56 1542.97 L2292.44 1542.97 L2292.44 1548.85 L2287.56 1548.85 L2287.56 1542.97 Z" fill="#000000" fill-rule="nonzero" fill-opacity="1" /><path clip-path="url(#clip430)" d="M2312.63 1517.37 Q2309.01 1517.37 2307.19 1520.93 Q2305.38 1524.47 2305.38 1531.6 Q2305.38 1538.71 2307.19 1542.27 Q2309.01 1545.82 2312.63 1545.82 Q2316.26 1545.82 2318.06 1542.27 Q2319.89 1538.71 2319.89 1531.6 Q2319.89 1524.47 2318.06 1520.93 Q2316.26 1517.37 2312.63 1517.37 M2312.63 1513.66 Q2318.44 1513.66 2321.49 1518.27 Q2324.57 1522.85 2324.57 1531.6 Q2324.57 1540.33 2321.49 1544.94 Q2318.44 1549.52 2312.63 1549.52 Q2306.82 1549.52 2303.74 1544.94 Q2300.68 1540.33 2300.68 1531.6 Q2300.68 1522.85 2303.74 1518.27 Q2306.82 1513.66 2312.63 1513.66 Z" fill="#000000" fill-rule="nonzero" fill-opacity="1" /><polyline clip-path="url(#clip432)" style="stroke:#000000; stroke-linecap:round; stroke-linejoin:round; stroke-width:2; stroke-opacity:0.1; fill:none" points="141.853,1196.91 2352.76,1196.91 "/>
<polyline clip-path="url(#clip432)" style="stroke:#000000; stroke-linecap:round; stroke-linejoin:round; stroke-width:2; stroke-opacity:0.1; fill:none" points="141.853,881.551 2352.76,881.551 "/>
<polyline clip-path="url(#clip432)" style="stroke:#000000; stroke-linecap:round; stroke-linejoin:round; stroke-width:2; stroke-opacity:0.1; fill:none" points="141.853,566.196 2352.76,566.196 "/>
<polyline clip-path="url(#clip432)" style="stroke:#000000; stroke-linecap:round; stroke-linejoin:round; stroke-width:2; stroke-opacity:0.1; fill:none" points="141.853,250.841 2352.76,250.841 "/>
<polyline clip-path="url(#clip430)" style="stroke:#000000; stroke-linecap:round; stroke-linejoin:round; stroke-width:4; stroke-opacity:1; fill:none" points="141.853,1486.45 141.853,47.2441 "/>
<polyline clip-path="url(#clip430)" style="stroke:#000000; stroke-linecap:round; stroke-linejoin:round; stroke-width:4; stroke-opacity:1; fill:none" points="141.853,1196.91 160.751,1196.91 "/>
<polyline clip-path="url(#clip430)" style="stroke:#000000; stroke-linecap:round; stroke-linejoin:round; stroke-width:4; stroke-opacity:1; fill:none" points="141.853,881.551 160.751,881.551 "/>
<polyline clip-path="url(#clip430)" style="stroke:#000000; stroke-linecap:round; stroke-linejoin:round; stroke-width:4; stroke-opacity:1; fill:none" points="141.853,566.196 160.751,566.196 "/>
<polyline clip-path="url(#clip430)" style="stroke:#000000; stroke-linecap:round; stroke-linejoin:round; stroke-width:4; stroke-opacity:1; fill:none" points="141.853,250.841 160.751,250.841 "/>
<path clip-path="url(#clip430)" d="M57.7745 1210.25 L74.0939 1210.25 L74.0939 1214.19 L52.1495 1214.19 L52.1495 1210.25 Q54.8115 1207.5 59.3949 1202.87 Q64.0013 1198.21 65.1819 1196.87 Q67.4272 1194.35 68.3068 1192.61 Q69.2096 1190.85 69.2096 1189.16 Q69.2096 1186.41 67.2652 1184.67 Q65.3439 1182.94 62.2421 1182.94 Q60.043 1182.94 57.5893 1183.7 Q55.1588 1184.46 52.381 1186.02 L52.381 1181.29 Q55.2051 1180.16 57.6588 1179.58 Q60.1124 1179 62.1495 1179 Q67.5198 1179 70.7142 1181.69 Q73.9087 1184.37 73.9087 1188.86 Q73.9087 1190.99 73.0985 1192.91 Q72.3115 1194.81 70.205 1197.4 Q69.6263 1198.08 66.5245 1201.29 Q63.4226 1204.49 57.7745 1210.25 Z" fill="#000000" fill-rule="nonzero" fill-opacity="1" /><path clip-path="url(#clip430)" d="M93.9086 1182.71 Q90.2975 1182.71 88.4688 1186.27 Q86.6632 1189.81 86.6632 1196.94 Q86.6632 1204.05 88.4688 1207.61 Q90.2975 1211.15 93.9086 1211.15 Q97.5428 1211.15 99.3483 1207.61 Q101.177 1204.05 101.177 1196.94 Q101.177 1189.81 99.3483 1186.27 Q97.5428 1182.71 93.9086 1182.71 M93.9086 1179 Q99.7187 1179 102.774 1183.61 Q105.853 1188.19 105.853 1196.94 Q105.853 1205.67 102.774 1210.27 Q99.7187 1214.86 93.9086 1214.86 Q88.0984 1214.86 85.0197 1210.27 Q81.9642 1205.67 81.9642 1196.94 Q81.9642 1188.19 85.0197 1183.61 Q88.0984 1179 93.9086 1179 Z" fill="#000000" fill-rule="nonzero" fill-opacity="1" /><path clip-path="url(#clip430)" d="M66.5939 868.345 L54.7884 886.794 L66.5939 886.794 L66.5939 868.345 M65.367 864.271 L71.2466 864.271 L71.2466 886.794 L76.1772 886.794 L76.1772 890.683 L71.2466 890.683 L71.2466 898.831 L66.5939 898.831 L66.5939 890.683 L50.9921 890.683 L50.9921 886.169 L65.367 864.271 Z" fill="#000000" fill-rule="nonzero" fill-opacity="1" /><path clip-path="url(#clip430)" d="M93.9086 867.35 Q90.2975 867.35 88.4688 870.915 Q86.6632 874.456 86.6632 881.586 Q86.6632 888.693 88.4688 892.257 Q90.2975 895.799 93.9086 895.799 Q97.5428 895.799 99.3483 892.257 Q101.177 888.693 101.177 881.586 Q101.177 874.456 99.3483 870.915 Q97.5428 867.35 93.9086 867.35 M93.9086 863.646 Q99.7187 863.646 102.774 868.253 Q105.853 872.836 105.853 881.586 Q105.853 890.313 102.774 894.919 Q99.7187 899.503 93.9086 899.503 Q88.0984 899.503 85.0197 894.919 Q81.9642 890.313 81.9642 881.586 Q81.9642 872.836 85.0197 868.253 Q88.0984 863.646 93.9086 863.646 Z" fill="#000000" fill-rule="nonzero" fill-opacity="1" /><path clip-path="url(#clip430)" d="M64.3254 564.333 Q61.1773 564.333 59.3254 566.486 Q57.4967 568.638 57.4967 572.388 Q57.4967 576.115 59.3254 578.291 Q61.1773 580.444 64.3254 580.444 Q67.4735 580.444 69.3022 578.291 Q71.1541 576.115 71.1541 572.388 Q71.1541 568.638 69.3022 566.486 Q67.4735 564.333 64.3254 564.333 M73.6077 549.68 L73.6077 553.939 Q71.8485 553.106 70.0429 552.666 Q68.2606 552.226 66.5013 552.226 Q61.8717 552.226 59.418 555.351 Q56.9875 558.476 56.6402 564.796 Q58.006 562.782 60.0662 561.717 Q62.1263 560.629 64.6032 560.629 Q69.8115 560.629 72.8207 563.8 Q75.8531 566.949 75.8531 572.388 Q75.8531 577.712 72.705 580.93 Q69.5568 584.148 64.3254 584.148 Q58.33 584.148 55.1588 579.564 Q51.9875 574.958 51.9875 566.231 Q51.9875 558.037 55.8764 553.175 Q59.7652 548.291 66.3161 548.291 Q68.0754 548.291 69.8578 548.638 Q71.6633 548.986 73.6077 549.68 Z" fill="#000000" fill-rule="nonzero" fill-opacity="1" /><path clip-path="url(#clip430)" d="M93.9086 551.995 Q90.2975 551.995 88.4688 555.56 Q86.6632 559.101 86.6632 566.231 Q86.6632 573.337 88.4688 576.902 Q90.2975 580.444 93.9086 580.444 Q97.5428 580.444 99.3483 576.902 Q101.177 573.337 101.177 566.231 Q101.177 559.101 99.3483 555.56 Q97.5428 551.995 93.9086 551.995 M93.9086 548.291 Q99.7187 548.291 102.774 552.898 Q105.853 557.481 105.853 566.231 Q105.853 574.958 102.774 579.564 Q99.7187 584.148 93.9086 584.148 Q88.0984 584.148 85.0197 579.564 Q81.9642 574.958 81.9642 566.231 Q81.9642 557.481 85.0197 552.898 Q88.0984 548.291 93.9086 548.291 Z" fill="#000000" fill-rule="nonzero" fill-opacity="1" /><path clip-path="url(#clip430)" d="M63.7467 251.709 Q60.4134 251.709 58.4921 253.492 Q56.5939 255.274 56.5939 258.399 Q56.5939 261.524 58.4921 263.306 Q60.4134 265.089 63.7467 265.089 Q67.08 265.089 69.0013 263.306 Q70.9226 261.501 70.9226 258.399 Q70.9226 255.274 69.0013 253.492 Q67.1032 251.709 63.7467 251.709 M59.0708 249.718 Q56.0615 248.978 54.3717 246.918 Q52.7051 244.857 52.7051 241.894 Q52.7051 237.751 55.6449 235.344 Q58.6078 232.936 63.7467 232.936 Q68.9087 232.936 71.8485 235.344 Q74.7883 237.751 74.7883 241.894 Q74.7883 244.857 73.0985 246.918 Q71.4318 248.978 68.4457 249.718 Q71.8253 250.506 73.7003 252.797 Q75.5985 255.089 75.5985 258.399 Q75.5985 263.422 72.5198 266.107 Q69.4642 268.792 63.7467 268.792 Q58.0291 268.792 54.9504 266.107 Q51.8949 263.422 51.8949 258.399 Q51.8949 255.089 53.793 252.797 Q55.6912 250.506 59.0708 249.718 M57.3578 242.334 Q57.3578 245.019 59.0245 246.524 Q60.7143 248.029 63.7467 248.029 Q66.7559 248.029 68.4457 246.524 Q70.1587 245.019 70.1587 242.334 Q70.1587 239.649 68.4457 238.144 Q66.7559 236.64 63.7467 236.64 Q60.7143 236.64 59.0245 238.144 Q57.3578 239.649 57.3578 242.334 Z" fill="#000000" fill-rule="nonzero" fill-opacity="1" /><path clip-path="url(#clip430)" d="M93.9086 236.64 Q90.2975 236.64 88.4688 240.205 Q86.6632 243.746 86.6632 250.876 Q86.6632 257.982 88.4688 261.547 Q90.2975 265.089 93.9086 265.089 Q97.5428 265.089 99.3483 261.547 Q101.177 257.982 101.177 250.876 Q101.177 243.746 99.3483 240.205 Q97.5428 236.64 93.9086 236.64 M93.9086 232.936 Q99.7187 232.936 102.774 237.543 Q105.853 242.126 105.853 250.876 Q105.853 259.603 102.774 264.209 Q99.7187 268.792 93.9086 268.792 Q88.0984 268.792 85.0197 264.209 Q81.9642 259.603 81.9642 250.876 Q81.9642 242.126 85.0197 237.543 Q88.0984 232.936 93.9086 232.936 Z" fill="#000000" fill-rule="nonzero" fill-opacity="1" /><polyline clip-path="url(#clip432)" style="stroke:#009af9; stroke-linecap:round; stroke-linejoin:round; stroke-width:4; stroke-opacity:1; fill:none" points="204.426,1445.72 1247.3,87.9763 "/>
<path clip-path="url(#clip430)" d="M215.55 198.898 L489.07 198.898 L489.07 95.2176 L215.55 95.2176  Z" fill="#ffffff" fill-rule="evenodd" fill-opacity="1"/>
<polyline clip-path="url(#clip430)" style="stroke:#000000; stroke-linecap:round; stroke-linejoin:round; stroke-width:4; stroke-opacity:1; fill:none" points="215.55,198.898 489.07,198.898 489.07,95.2176 215.55,95.2176 215.55,198.898 "/>
<polyline clip-path="url(#clip430)" style="stroke:#009af9; stroke-linecap:round; stroke-linejoin:round; stroke-width:4; stroke-opacity:1; fill:none" points="240.115,147.058 387.509,147.058 "/>
<path clip-path="url(#clip430)" d="M425.917 166.745 Q424.111 171.375 422.398 172.787 Q420.685 174.199 417.815 174.199 L414.412 174.199 L414.412 170.634 L416.912 170.634 Q418.672 170.634 419.644 169.8 Q420.616 168.967 421.797 165.865 L422.56 163.921 L412.074 138.412 L416.588 138.412 L424.69 158.689 L432.792 138.412 L437.306 138.412 L425.917 166.745 Z" fill="#000000" fill-rule="nonzero" fill-opacity="1" /><path clip-path="url(#clip430)" d="M444.597 160.402 L452.236 160.402 L452.236 134.037 L443.926 135.703 L443.926 131.444 L452.19 129.778 L456.866 129.778 L456.866 160.402 L464.505 160.402 L464.505 164.338 L444.597 164.338 L444.597 160.402 Z" fill="#000000" fill-rule="nonzero" fill-opacity="1" /></svg>
