<?xml version="1.0" encoding="utf-8"?>
<svg xmlns="http://www.w3.org/2000/svg" xmlns:xlink="http://www.w3.org/1999/xlink" width="600" height="400" viewBox="0 0 2400 1600">
<defs>
  <clipPath id="clip380">
    <rect x="0" y="0" width="2400" height="1600"/>
  </clipPath>
</defs>
<path clip-path="url(#clip380)" d="M0 1600 L2400 1600 L2400 0 L0 0  Z" fill="#ffffff" fill-rule="evenodd" fill-opacity="1"/>
<defs>
  <clipPath id="clip381">
    <rect x="480" y="0" width="1681" height="1600"/>
  </clipPath>
</defs>
<path clip-path="url(#clip380)" d="M209.515 1486.45 L2352.76 1486.45 L2352.76 47.2441 L209.515 47.2441  Z" fill="#ffffff" fill-rule="evenodd" fill-opacity="1"/>
<defs>
  <clipPath id="clip382">
    <rect x="209" y="47" width="2144" height="1440"/>
  </clipPath>
</defs>
<polyline clip-path="url(#clip382)" style="stroke:#000000; stroke-linecap:round; stroke-linejoin:round; stroke-width:2; stroke-opacity:0.1; fill:none" points="270.172,1486.45 270.172,47.2441 "/>
<polyline clip-path="url(#clip382)" style="stroke:#000000; stroke-linecap:round; stroke-linejoin:round; stroke-width:2; stroke-opacity:0.1; fill:none" points="775.654,1486.45 775.654,47.2441 "/>
<polyline clip-path="url(#clip382)" style="stroke:#000000; stroke-linecap:round; stroke-linejoin:round; stroke-width:2; stroke-opacity:0.1; fill:none" points="1281.14,1486.45 1281.14,47.2441 "/>
<polyline clip-path="url(#clip382)" style="stroke:#000000; stroke-linecap:round; stroke-linejoin:round; stroke-width:2; stroke-opacity:0.1; fill:none" points="1786.62,1486.45 1786.62,47.2441 "/>
<polyline clip-path="url(#clip382)" style="stroke:#000000; stroke-linecap:round; stroke-linejoin:round; stroke-width:2; stroke-opacity:0.1; fill:none" points="2292.1,1486.45 2292.1,47.2441 "/>
<polyline clip-path="url(#clip380)" style="stroke:#000000; stroke-linecap:round; stroke-linejoin:round; stroke-width:4; stroke-opacity:1; fill:none" points="209.515,1486.45 2352.76,1486.45 "/>
<polyline clip-path="url(#clip380)" style="stroke:#000000; stroke-linecap:round; stroke-linejoin:round; stroke-width:4; stroke-opacity:1; fill:none" points="270.172,1486.45 270.172,1467.55 "/>
<polyline clip-path="url(#clip380)" style="stroke:#000000; stroke-linecap:round; stroke-linejoin:round; stroke-width:4; stroke-opacity:1; fill:none" points="775.654,1486.45 775.654,1467.55 "/>
<polyline clip-path="url(#clip380)" style="stroke:#000000; stroke-linecap:round; stroke-linejoin:round; stroke-width:4; stroke-opacity:1; fill:none" points="1281.14,1486.45 1281.14,1467.55 "/>
<polyline clip-path="url(#clip380)" style="stroke:#000000; stroke-linecap:round; stroke-linejoin:round; stroke-width:4; stroke-opacity:1; fill:none" points="1786.62,1486.45 1786.62,1467.55 "/>
<polyline clip-path="url(#clip380)" style="stroke:#000000; stroke-linecap:round; stroke-linejoin:round; stroke-width:4; stroke-opacity:1; fill:none" points="2292.1,1486.45 2292.1,1467.55 "/>
<path clip-path="url(#clip380)" d="M270.172 1517.37 Q266.561 1517.37 264.733 1520.93 Q262.927 1524.47 262.927 1531.6 Q262.927 1538.71 264.733 1542.27 Q266.561 1545.82 270.172 1545.82 Q273.807 1545.82 275.612 1542.27 Q277.441 1538.71 277.441 1531.6 Q277.441 1524.47 275.612 1520.93 Q273.807 1517.37 270.172 1517.37 M270.172 1513.66 Q275.983 1513.66 279.038 1518.27 Q282.117 1522.85 282.117 1531.6 Q282.117 1540.33 279.038 1544.94 Q275.983 1549.52 270.172 1549.52 Q264.362 1549.52 261.284 1544.94 Q258.228 1540.33 258.228 1531.6 Q258.228 1522.85 261.284 1518.27 Q264.362 1513.66 270.172 1513.66 Z" fill="#000000" fill-rule="nonzero" fill-opacity="1" /><path clip-path="url(#clip380)" d="M735.272 1514.29 L753.628 1514.29 L753.628 1518.22 L739.554 1518.22 L739.554 1526.7 Q740.573 1526.35 741.592 1526.19 Q742.61 1526 743.629 1526 Q749.416 1526 752.795 1529.17 Q756.175 1532.34 756.175 1537.76 Q756.175 1543.34 752.703 1546.44 Q749.23 1549.52 742.911 1549.52 Q740.735 1549.52 738.467 1549.15 Q736.221 1548.78 733.814 1548.04 L733.814 1543.34 Q735.897 1544.47 738.119 1545.03 Q740.342 1545.58 742.818 1545.58 Q746.823 1545.58 749.161 1543.48 Q751.499 1541.37 751.499 1537.76 Q751.499 1534.15 749.161 1532.04 Q746.823 1529.94 742.818 1529.94 Q740.943 1529.94 739.068 1530.35 Q737.217 1530.77 735.272 1531.65 L735.272 1514.29 Z" fill="#000000" fill-rule="nonzero" fill-opacity="1" /><path clip-path="url(#clip380)" d="M775.388 1517.37 Q771.777 1517.37 769.948 1520.93 Q768.142 1524.47 768.142 1531.6 Q768.142 1538.71 769.948 1542.27 Q771.777 1545.82 775.388 1545.82 Q779.022 1545.82 780.827 1542.27 Q782.656 1538.71 782.656 1531.6 Q782.656 1524.47 780.827 1520.93 Q779.022 1517.37 775.388 1517.37 M775.388 1513.66 Q781.198 1513.66 784.253 1518.27 Q787.332 1522.85 787.332 1531.6 Q787.332 1540.33 784.253 1544.94 Q781.198 1549.52 775.388 1549.52 Q769.577 1549.52 766.499 1544.94 Q763.443 1540.33 763.443 1531.6 Q763.443 1522.85 766.499 1518.27 Q769.577 1513.66 775.388 1513.66 Z" fill="#000000" fill-rule="nonzero" fill-opacity="1" /><path clip-path="url(#clip380)" d="M805.549 1517.37 Q801.938 1517.37 800.11 1520.93 Q798.304 1524.47 798.304 1531.6 Q798.304 1538.71 800.11 1542.27 Q801.938 1545.82 805.549 1545.82 Q809.184 1545.82 810.989 1542.27 Q812.818 1538.71 812.818 1531.6 Q812.818 1524.47 810.989 1520.93 Q809.184 1517.37 805.549 1517.37 M805.549 1513.66 Q811.36 1513.66 814.415 1518.27 Q817.494 1522.85 817.494 1531.6 Q817.494 1540.33 814.415 1544.94 Q811.36 1549.52 805.549 1549.52 Q799.739 1549.52 796.661 1544.94 Q793.605 1540.33 793.605 1531.6 Q793.605 1522.85 796.661 1518.27 Q799.739 1513.66 805.549 1513.66 Z" fill="#000000" fill-rule="nonzero" fill-opacity="1" /><path clip-path="url(#clip380)" d="M1225.66 1544.91 L1233.3 1544.91 L1233.3 1518.55 L1224.99 1520.21 L1224.99 1515.95 L1233.25 1514.29 L1237.93 1514.29 L1237.93 1544.91 L1245.57 1544.91 L1245.57 1548.85 L1225.66 1548.85 L1225.66 1544.91 Z" fill="#000000" fill-rule="nonzero" fill-opacity="1" /><path clip-path="url(#clip380)" d="M1265.01 1517.37 Q1261.4 1517.37 1259.57 1520.93 Q1257.77 1524.47 1257.77 1531.6 Q1257.77 1538.71 1259.57 1542.27 Q1261.4 1545.82 1265.01 1545.82 Q1268.65 1545.82 1270.45 1542.27 Q1272.28 1538.71 1272.28 1531.6 Q1272.28 1524.47 1270.45 1520.93 Q1268.65 1517.37 1265.01 1517.37 M1265.01 1513.66 Q1270.82 1513.66 1273.88 1518.27 Q1276.96 1522.85 1276.96 1531.6 Q1276.96 1540.33 1273.88 1544.94 Q1270.82 1549.52 1265.01 1549.52 Q1259.2 1549.52 1256.12 1544.94 Q1253.07 1540.33 1253.07 1531.6 Q1253.07 1522.85 1256.12 1518.27 Q1259.2 1513.66 1265.01 1513.66 Z" fill="#000000" fill-rule="nonzero" fill-opacity="1" /><path clip-path="url(#clip380)" d="M1295.17 1517.37 Q1291.56 1517.37 1289.73 1520.93 Q1287.93 1524.47 1287.93 1531.6 Q1287.93 1538.71 1289.73 1542.27 Q1291.56 1545.82 1295.17 1545.82 Q1298.81 1545.82 1300.61 1542.27 Q1302.44 1538.71 1302.44 1531.6 Q1302.44 1524.47 1300.61 1520.93 Q1298.81 1517.37 1295.17 1517.37 M1295.17 1513.66 Q1300.98 1513.66 1304.04 1518.27 Q1307.12 1522.85 1307.12 1531.6 Q1307.12 1540.33 1304.04 1544.94 Q1300.98 1549.52 1295.17 1549.52 Q1289.36 1549.52 1286.29 1544.94 Q1283.23 1540.33 1283.23 1531.6 Q1283.23 1522.85 1286.29 1518.27 Q1289.36 1513.66 1295.17 1513.66 Z" fill="#000000" fill-rule="nonzero" fill-opacity="1" /><path clip-path="url(#clip380)" d="M1325.34 1517.37 Q1321.73 1517.37 1319.9 1520.93 Q1318.09 1524.47 1318.09 1531.6 Q1318.09 1538.71 1319.9 1542.27 Q1321.73 1545.82 1325.34 1545.82 Q1328.97 1545.82 1330.78 1542.27 Q1332.6 1538.71 1332.6 1531.6 Q1332.6 1524.47 1330.78 1520.93 Q1328.97 1517.37 1325.34 1517.37 M1325.34 1513.66 Q1331.15 1513.66 1334.2 1518.27 Q1337.28 1522.85 1337.28 1531.6 Q1337.28 1540.33 1334.2 1544.94 Q1331.15 1549.52 1325.34 1549.52 Q1319.53 1549.52 1316.45 1544.94 Q1313.39 1540.33 1313.39 1531.6 Q1313.39 1522.85 1316.45 1518.27 Q1319.53 1513.66 1325.34 1513.66 Z" fill="#000000" fill-rule="nonzero" fill-opacity="1" /><path clip-path="url(#clip380)" d="M1731.14 1544.91 L1738.78 1544.91 L1738.78 1518.55 L1730.47 1520.21 L1730.47 1515.95 L1738.74 1514.29 L1743.41 1514.29 L1743.41 1544.91 L1751.05 1544.91 L1751.05 1548.85 L1731.14 1548.85 L1731.14 1544.91 Z" fill="#000000" fill-rule="nonzero" fill-opacity="1" /><path clip-path="url(#clip380)" d="M1760.54 1514.29 L1778.9 1514.29 L1778.9 1518.22 L1764.82 1518.22 L1764.82 1526.7 Q1765.84 1526.35 1766.86 1526.19 Q1767.88 1526 1768.9 1526 Q1774.68 1526 1778.06 1529.17 Q1781.44 1532.34 1781.44 1537.76 Q1781.44 1543.34 1777.97 1546.44 Q1774.5 1549.52 1768.18 1549.52 Q1766 1549.52 1763.73 1549.15 Q1761.49 1548.78 1759.08 1548.04 L1759.08 1543.34 Q1761.17 1544.47 1763.39 1545.03 Q1765.61 1545.58 1768.09 1545.58 Q1772.09 1545.58 1774.43 1543.48 Q1776.77 1541.37 1776.77 1537.76 Q1776.77 1534.15 1774.43 1532.04 Q1772.09 1529.94 1768.09 1529.94 Q1766.21 1529.94 1764.34 1530.35 Q1762.48 1530.77 1760.54 1531.65 L1760.54 1514.29 Z" fill="#000000" fill-rule="nonzero" fill-opacity="1" /><path clip-path="url(#clip380)" d="M1800.66 1517.37 Q1797.04 1517.37 1795.22 1520.93 Q1793.41 1524.47 1793.41 1531.6 Q1793.41 1538.71 1795.22 1542.27 Q1797.04 1545.82 1800.66 1545.82 Q1804.29 1545.82 1806.1 1542.27 Q1807.92 1538.71 1807.92 1531.6 Q1807.92 1524.47 1806.1 1520.93 Q1804.29 1517.37 1800.66 1517.37 M1800.66 1513.66 Q1806.47 1513.66 1809.52 1518.27 Q1812.6 1522.85 1812.6 1531.6 Q1812.6 1540.33 1809.52 1544.94 Q1806.47 1549.52 1800.66 1549.52 Q1794.85 1549.52 1791.77 1544.94 Q1788.71 1540.33 1788.71 1531.6 Q1788.71 1522.85 1791.77 1518.27 Q1794.85 1513.66 1800.66 1513.66 Z" fill="#000000" fill-rule="nonzero" fill-opacity="1" /><path clip-path="url(#clip380)" d="M1830.82 1517.37 Q1827.21 1517.37 1825.38 1520.93 Q1823.57 1524.47 1823.57 1531.6 Q1823.57 1538.71 1825.38 1542.27 Q1827.21 1545.82 1830.82 1545.82 Q1834.45 1545.82 1836.26 1542.27 Q1838.09 1538.71 1838.09 1531.6 Q1838.09 1524.47 1836.26 1520.93 Q1834.45 1517.37 1830.82 1517.37 M1830.82 1513.66 Q1836.63 1513.66 1839.68 1518.27 Q1842.76 1522.85 1842.76 1531.6 Q1842.76 1540.33 1839.68 1544.94 Q1836.63 1549.52 1830.82 1549.52 Q1825.01 1549.52 1821.93 1544.94 Q1818.87 1540.33 1818.87 1531.6 Q1818.87 1522.85 1821.93 1518.27 Q1825.01 1513.66 1830.82 1513.66 Z" fill="#000000" fill-rule="nonzero" fill-opacity="1" /><path clip-path="url(#clip380)" d="M2240.71 1544.91 L2257.03 1544.91 L2257.03 1548.85 L2235.08 1548.85 L2235.08 1544.91 Q2237.75 1542.16 2242.33 1537.53 Q2246.94 1532.88 2248.12 1531.53 Q2250.36 1529.01 2251.24 1527.27 Q2252.14 1525.51 2252.14 1523.82 Q2252.14 1521.07 2250.2 1519.33 Q2248.28 1517.6 2245.18 1517.6 Q2242.98 1517.6 2240.52 1518.36 Q2238.09 1519.13 2235.32 1520.68 L2235.32 1515.95 Q2238.14 1514.82 2240.59 1514.24 Q2243.05 1513.66 2245.08 1513.66 Q2250.45 1513.66 2253.65 1516.35 Q2256.84 1519.03 2256.84 1523.52 Q2256.84 1525.65 2256.03 1527.57 Q2255.25 1529.47 2253.14 1532.07 Q2252.56 1532.74 2249.46 1535.95 Q2246.36 1539.15 2240.71 1544.91 Z" fill="#000000" fill-rule="nonzero" fill-opacity="1" /><path clip-path="url(#clip380)" d="M2276.84 1517.37 Q2273.23 1517.37 2271.4 1520.93 Q2269.6 1524.47 2269.6 1531.6 Q2269.6 1538.71 2271.4 1542.27 Q2273.23 1545.82 2276.84 1545.82 Q2280.48 1545.82 2282.28 1542.27 Q2284.11 1538.71 2284.11 1531.6 Q2284.11 1524.47 2282.28 1520.93 Q2280.48 1517.37 2276.84 1517.37 M2276.84 1513.66 Q2282.65 1513.66 2285.71 1518.27 Q2288.79 1522.85 2288.79 1531.6 Q2288.79 1540.33 2285.71 1544.94 Q2282.65 1549.52 2276.84 1549.52 Q2271.03 1549.52 2267.95 1544.94 Q2264.9 1540.33 2264.9 1531.6 Q2264.9 1522.85 2267.95 1518.27 Q2271.03 1513.66 2276.84 1513.66 Z" fill="#000000" fill-rule="nonzero" fill-opacity="1" /><path clip-path="url(#clip380)" d="M2307.01 1517.37 Q2303.39 1517.37 2301.57 1520.93 Q2299.76 1524.47 2299.76 1531.6 Q2299.76 1538.71 2301.57 1542.27 Q2303.39 1545.82 2307.01 1545.82 Q2310.64 1545.82 2312.45 1542.27 Q2314.27 1538.71 2314.27 1531.6 Q2314.27 1524.47 2312.45 1520.93 Q2310.64 1517.37 2307.01 1517.37 M2307.01 1513.66 Q2312.82 1513.66 2315.87 1518.27 Q2318.95 1522.85 2318.95 1531.6 Q2318.95 1540.33 2315.87 1544.94 Q2312.82 1549.52 2307.01 1549.52 Q2301.2 1549.52 2298.12 1544.94 Q2295.06 1540.33 2295.06 1531.6 Q2295.06 1522.85 2298.12 1518.27 Q2301.2 1513.66 2307.01 1513.66 Z" fill="#000000" fill-rule="nonzero" fill-opacity="1" /><path clip-path="url(#clip380)" d="M2337.17 1517.37 Q2333.56 1517.37 2331.73 1520.93 Q2329.92 1524.47 2329.92 1531.6 Q2329.92 1538.71 2331.73 1542.27 Q2333.56 1545.82 2337.17 1545.82 Q2340.8 1545.82 2342.61 1542.27 Q2344.44 1538.71 2344.44 1531.6 Q2344.44 1524.47 2342.61 1520.93 Q2340.8 1517.37 2337.17 1517.37 M2337.17 1513.66 Q2342.98 1513.66 2346.03 1518.27 Q2349.11 1522.85 2349.11 1531.6 Q2349.11 1540.33 2346.03 1544.94 Q2342.98 1549.52 2337.17 1549.52 Q2331.36 1549.52 2328.28 1544.94 Q2325.22 1540.33 2325.22 1531.6 Q2325.22 1522.85 2328.28 1518.27 Q2331.36 1513.66 2337.17 1513.66 Z" fill="#000000" fill-rule="nonzero" fill-opacity="1" /><polyline clip-path="url(#clip382)" style="stroke:#000000; stroke-linecap:round; stroke-linejoin:round; stroke-width:2; stroke-opacity:0.1; fill:none" points="209.515,1411.46 2352.76,1411.46 "/>
<polyline clip-path="url(#clip382)" style="stroke:#000000; stroke-linecap:round; stroke-linejoin:round; stroke-width:2; stroke-opacity:0.1; fill:none" points="209.515,1205.47 2352.76,1205.47 "/>
<polyline clip-path="url(#clip382)" style="stroke:#000000; stroke-linecap:round; stroke-linejoin:round; stroke-width:2; stroke-opacity:0.1; fill:none" points="209.515,999.477 2352.76,999.477 "/>
<polyline clip-path="url(#clip382)" style="stroke:#000000; stroke-linecap:round; stroke-linejoin:round; stroke-width:2; stroke-opacity:0.1; fill:none" points="209.515,793.487 2352.76,793.487 "/>
<polyline clip-path="url(#clip382)" style="stroke:#000000; stroke-linecap:round; stroke-linejoin:round; stroke-width:2; stroke-opacity:0.1; fill:none" points="209.515,587.496 2352.76,587.496 "/>
<polyline clip-path="url(#clip382)" style="stroke:#000000; stroke-linecap:round; stroke-linejoin:round; stroke-width:2; stroke-opacity:0.1; fill:none" points="209.515,381.506 2352.76,381.506 "/>
<polyline clip-path="url(#clip382)" style="stroke:#000000; stroke-linecap:round; stroke-linejoin:round; stroke-width:2; stroke-opacity:0.1; fill:none" points="209.515,175.515 2352.76,175.515 "/>
<polyline clip-path="url(#clip380)" style="stroke:#000000; stroke-linecap:round; stroke-linejoin:round; stroke-width:4; stroke-opacity:1; fill:none" points="209.515,1486.45 209.515,47.2441 "/>
<polyline clip-path="url(#clip380)" style="stroke:#000000; stroke-linecap:round; stroke-linejoin:round; stroke-width:4; stroke-opacity:1; fill:none" points="209.515,1411.46 228.412,1411.46 "/>
<polyline clip-path="url(#clip380)" style="stroke:#000000; stroke-linecap:round; stroke-linejoin:round; stroke-width:4; stroke-opacity:1; fill:none" points="209.515,1205.47 228.412,1205.47 "/>
<polyline clip-path="url(#clip380)" style="stroke:#000000; stroke-linecap:round; stroke-linejoin:round; stroke-width:4; stroke-opacity:1; fill:none" points="209.515,999.477 228.412,999.477 "/>
<polyline clip-path="url(#clip380)" style="stroke:#000000; stroke-linecap:round; stroke-linejoin:round; stroke-width:4; stroke-opacity:1; fill:none" points="209.515,793.487 228.412,793.487 "/>
<polyline clip-path="url(#clip380)" style="stroke:#000000; stroke-linecap:round; stroke-linejoin:round; stroke-width:4; stroke-opacity:1; fill:none" points="209.515,587.496 228.412,587.496 "/>
<polyline clip-path="url(#clip380)" style="stroke:#000000; stroke-linecap:round; stroke-linejoin:round; stroke-width:4; stroke-opacity:1; fill:none" points="209.515,381.506 228.412,381.506 "/>
<polyline clip-path="url(#clip380)" style="stroke:#000000; stroke-linecap:round; stroke-linejoin:round; stroke-width:4; stroke-opacity:1; fill:none" points="209.515,175.515 228.412,175.515 "/>
<path clip-path="url(#clip380)" d="M51.3162 1411.91 L80.992 1411.91 L80.992 1415.85 L51.3162 1415.85 L51.3162 1411.91 Z" fill="#000000" fill-rule="nonzero" fill-opacity="1" /><path clip-path="url(#clip380)" d="M105.251 1410.1 Q108.608 1410.82 110.483 1413.09 Q112.381 1415.36 112.381 1418.69 Q112.381 1423.81 108.862 1426.61 Q105.344 1429.41 98.8622 1429.41 Q96.6863 1429.41 94.3715 1428.97 Q92.0799 1428.55 89.6262 1427.7 L89.6262 1423.18 Q91.5706 1424.32 93.8854 1424.9 Q96.2002 1425.47 98.7234 1425.47 Q103.121 1425.47 105.413 1423.74 Q107.728 1422 107.728 1418.69 Q107.728 1415.64 105.575 1413.92 Q103.446 1412.19 99.6261 1412.19 L95.5984 1412.19 L95.5984 1408.35 L99.8113 1408.35 Q103.26 1408.35 105.089 1406.98 Q106.918 1405.59 106.918 1403 Q106.918 1400.34 105.02 1398.92 Q103.145 1397.49 99.6261 1397.49 Q97.7048 1397.49 95.5058 1397.91 Q93.3067 1398.32 90.6678 1399.2 L90.6678 1395.04 Q93.3299 1394.29 95.6447 1393.92 Q97.9826 1393.55 100.043 1393.55 Q105.367 1393.55 108.469 1395.98 Q111.571 1398.39 111.571 1402.51 Q111.571 1405.38 109.927 1407.37 Q108.283 1409.34 105.251 1410.1 Z" fill="#000000" fill-rule="nonzero" fill-opacity="1" /><path clip-path="url(#clip380)" d="M135.413 1410.1 Q138.769 1410.82 140.644 1413.09 Q142.543 1415.36 142.543 1418.69 Q142.543 1423.81 139.024 1426.61 Q135.506 1429.41 129.024 1429.41 Q126.848 1429.41 124.533 1428.97 Q122.242 1428.55 119.788 1427.7 L119.788 1423.18 Q121.732 1424.32 124.047 1424.9 Q126.362 1425.47 128.885 1425.47 Q133.283 1425.47 135.575 1423.74 Q137.89 1422 137.89 1418.69 Q137.89 1415.64 135.737 1413.92 Q133.607 1412.19 129.788 1412.19 L125.76 1412.19 L125.76 1408.35 L129.973 1408.35 Q133.422 1408.35 135.251 1406.98 Q137.08 1405.59 137.08 1403 Q137.08 1400.34 135.181 1398.92 Q133.306 1397.49 129.788 1397.49 Q127.867 1397.49 125.668 1397.91 Q123.469 1398.32 120.83 1399.2 L120.83 1395.04 Q123.492 1394.29 125.807 1393.92 Q128.144 1393.55 130.205 1393.55 Q135.529 1393.55 138.631 1395.98 Q141.732 1398.39 141.732 1402.51 Q141.732 1405.38 140.089 1407.37 Q138.445 1409.34 135.413 1410.1 Z" fill="#000000" fill-rule="nonzero" fill-opacity="1" /><path clip-path="url(#clip380)" d="M161.987 1409.6 Q158.839 1409.6 156.987 1411.75 Q155.158 1413.9 155.158 1417.65 Q155.158 1421.38 156.987 1423.55 Q158.839 1425.71 161.987 1425.71 Q165.135 1425.71 166.964 1423.55 Q168.816 1421.38 168.816 1417.65 Q168.816 1413.9 166.964 1411.75 Q165.135 1409.6 161.987 1409.6 M171.269 1394.94 L171.269 1399.2 Q169.51 1398.37 167.704 1397.93 Q165.922 1397.49 164.163 1397.49 Q159.533 1397.49 157.08 1400.61 Q154.649 1403.74 154.302 1410.06 Q155.667 1408.04 157.728 1406.98 Q159.788 1405.89 162.265 1405.89 Q167.473 1405.89 170.482 1409.06 Q173.515 1412.21 173.515 1417.65 Q173.515 1422.97 170.366 1426.19 Q167.218 1429.41 161.987 1429.41 Q155.992 1429.41 152.82 1424.83 Q149.649 1420.22 149.649 1411.49 Q149.649 1403.3 153.538 1398.44 Q157.427 1393.55 163.978 1393.55 Q165.737 1393.55 167.519 1393.9 Q169.325 1394.25 171.269 1394.94 Z" fill="#000000" fill-rule="nonzero" fill-opacity="1" /><path clip-path="url(#clip380)" d="M52.4736 1205.92 L82.1494 1205.92 L82.1494 1209.85 L52.4736 1209.85 L52.4736 1205.92 Z" fill="#000000" fill-rule="nonzero" fill-opacity="1" /><path clip-path="url(#clip380)" d="M106.408 1204.11 Q109.765 1204.83 111.64 1207.1 Q113.538 1209.37 113.538 1212.7 Q113.538 1217.82 110.02 1220.62 Q106.501 1223.42 100.02 1223.42 Q97.8437 1223.42 95.5289 1222.98 Q93.2373 1222.56 90.7836 1221.71 L90.7836 1217.19 Q92.728 1218.33 95.0428 1218.91 Q97.3576 1219.48 99.8808 1219.48 Q104.279 1219.48 106.571 1217.75 Q108.885 1216.01 108.885 1212.7 Q108.885 1209.65 106.733 1207.93 Q104.603 1206.2 100.784 1206.2 L96.7558 1206.2 L96.7558 1202.35 L100.969 1202.35 Q104.418 1202.35 106.246 1200.99 Q108.075 1199.6 108.075 1197.01 Q108.075 1194.35 106.177 1192.93 Q104.302 1191.5 100.784 1191.5 Q98.8622 1191.5 96.6632 1191.91 Q94.4641 1192.33 91.8252 1193.21 L91.8252 1189.04 Q94.4873 1188.3 96.8021 1187.93 Q99.14 1187.56 101.2 1187.56 Q106.524 1187.56 109.626 1189.99 Q112.728 1192.4 112.728 1196.52 Q112.728 1199.39 111.084 1201.38 Q109.441 1203.35 106.408 1204.11 Z" fill="#000000" fill-rule="nonzero" fill-opacity="1" /><path clip-path="url(#clip380)" d="M136.57 1204.11 Q139.927 1204.83 141.802 1207.1 Q143.7 1209.37 143.7 1212.7 Q143.7 1217.82 140.181 1220.62 Q136.663 1223.42 130.182 1223.42 Q128.006 1223.42 125.691 1222.98 Q123.399 1222.56 120.945 1221.71 L120.945 1217.19 Q122.89 1218.33 125.205 1218.91 Q127.519 1219.48 130.043 1219.48 Q134.441 1219.48 136.732 1217.75 Q139.047 1216.01 139.047 1212.7 Q139.047 1209.65 136.894 1207.93 Q134.765 1206.2 130.945 1206.2 L126.918 1206.2 L126.918 1202.35 L131.131 1202.35 Q134.58 1202.35 136.408 1200.99 Q138.237 1199.6 138.237 1197.01 Q138.237 1194.35 136.339 1192.93 Q134.464 1191.5 130.945 1191.5 Q129.024 1191.5 126.825 1191.91 Q124.626 1192.33 121.987 1193.21 L121.987 1189.04 Q124.649 1188.3 126.964 1187.93 Q129.302 1187.56 131.362 1187.56 Q136.686 1187.56 139.788 1189.99 Q142.89 1192.4 142.89 1196.52 Q142.89 1199.39 141.246 1201.38 Q139.603 1203.35 136.57 1204.11 Z" fill="#000000" fill-rule="nonzero" fill-opacity="1" /><path clip-path="url(#clip380)" d="M152.612 1188.19 L170.968 1188.19 L170.968 1192.12 L156.894 1192.12 L156.894 1200.6 Q157.913 1200.25 158.931 1200.09 Q159.95 1199.9 160.968 1199.9 Q166.755 1199.9 170.135 1203.07 Q173.515 1206.24 173.515 1211.66 Q173.515 1217.24 170.042 1220.34 Q166.57 1223.42 160.251 1223.42 Q158.075 1223.42 155.806 1223.05 Q153.561 1222.68 151.154 1221.94 L151.154 1217.24 Q153.237 1218.37 155.459 1218.93 Q157.681 1219.48 160.158 1219.48 Q164.163 1219.48 166.501 1217.38 Q168.839 1215.27 168.839 1211.66 Q168.839 1208.05 166.501 1205.94 Q164.163 1203.84 160.158 1203.84 Q158.283 1203.84 156.408 1204.25 Q154.556 1204.67 152.612 1205.55 L152.612 1188.19 Z" fill="#000000" fill-rule="nonzero" fill-opacity="1" /><path clip-path="url(#clip380)" d="M50.9921 999.929 L80.6679 999.929 L80.6679 1003.86 L50.9921 1003.86 L50.9921 999.929 Z" fill="#000000" fill-rule="nonzero" fill-opacity="1" /><path clip-path="url(#clip380)" d="M104.927 998.123 Q108.283 998.841 110.158 1001.11 Q112.057 1003.38 112.057 1006.71 Q112.057 1011.83 108.538 1014.63 Q105.02 1017.43 98.5382 1017.43 Q96.3623 1017.43 94.0475 1016.99 Q91.7558 1016.57 89.3021 1015.72 L89.3021 1011.2 Q91.2465 1012.34 93.5613 1012.91 Q95.8761 1013.49 98.3993 1013.49 Q102.797 1013.49 105.089 1011.76 Q107.404 1010.02 107.404 1006.71 Q107.404 1003.66 105.251 1001.94 Q103.121 1000.21 99.3021 1000.21 L95.2743 1000.21 L95.2743 996.364 L99.4872 996.364 Q102.936 996.364 104.765 994.998 Q106.594 993.609 106.594 991.017 Q106.594 988.355 104.696 986.943 Q102.821 985.508 99.3021 985.508 Q97.3808 985.508 95.1817 985.924 Q92.9826 986.341 90.3438 987.221 L90.3438 983.054 Q93.0058 982.313 95.3206 981.943 Q97.6585 981.572 99.7187 981.572 Q105.043 981.572 108.145 984.003 Q111.246 986.41 111.246 990.531 Q111.246 993.401 109.603 995.392 Q107.959 997.359 104.927 998.123 Z" fill="#000000" fill-rule="nonzero" fill-opacity="1" /><path clip-path="url(#clip380)" d="M135.089 998.123 Q138.445 998.841 140.32 1001.11 Q142.218 1003.38 142.218 1006.71 Q142.218 1011.83 138.7 1014.63 Q135.181 1017.43 128.7 1017.43 Q126.524 1017.43 124.209 1016.99 Q121.918 1016.57 119.464 1015.72 L119.464 1011.2 Q121.408 1012.34 123.723 1012.91 Q126.038 1013.49 128.561 1013.49 Q132.959 1013.49 135.251 1011.76 Q137.566 1010.02 137.566 1006.71 Q137.566 1003.66 135.413 1001.94 Q133.283 1000.21 129.464 1000.21 L125.436 1000.21 L125.436 996.364 L129.649 996.364 Q133.098 996.364 134.927 994.998 Q136.756 993.609 136.756 991.017 Q136.756 988.355 134.857 986.943 Q132.982 985.508 129.464 985.508 Q127.543 985.508 125.344 985.924 Q123.145 986.341 120.506 987.221 L120.506 983.054 Q123.168 982.313 125.482 981.943 Q127.82 981.572 129.881 981.572 Q135.205 981.572 138.306 984.003 Q141.408 986.41 141.408 990.531 Q141.408 993.401 139.765 995.392 Q138.121 997.359 135.089 998.123 Z" fill="#000000" fill-rule="nonzero" fill-opacity="1" /><path clip-path="url(#clip380)" d="M163.931 986.272 L152.126 1004.72 L163.931 1004.72 L163.931 986.272 M162.704 982.197 L168.584 982.197 L168.584 1004.72 L173.515 1004.72 L173.515 1008.61 L168.584 1008.61 L168.584 1016.76 L163.931 1016.76 L163.931 1008.61 L148.33 1008.61 L148.33 1004.1 L162.704 982.197 Z" fill="#000000" fill-rule="nonzero" fill-opacity="1" /><path clip-path="url(#clip380)" d="M52.1264 793.938 L81.8021 793.938 L81.8021 797.873 L52.1264 797.873 L52.1264 793.938 Z" fill="#000000" fill-rule="nonzero" fill-opacity="1" /><path clip-path="url(#clip380)" d="M106.061 792.133 Q109.418 792.85 111.293 795.119 Q113.191 797.387 113.191 800.721 Q113.191 805.836 109.672 808.637 Q106.154 811.438 99.6724 811.438 Q97.4965 811.438 95.1817 810.998 Q92.89 810.582 90.4364 809.725 L90.4364 805.211 Q92.3808 806.346 94.6956 806.924 Q97.0104 807.503 99.5335 807.503 Q103.932 807.503 106.223 805.767 Q108.538 804.031 108.538 800.721 Q108.538 797.665 106.385 795.952 Q104.256 794.216 100.436 794.216 L96.4085 794.216 L96.4085 790.373 L100.621 790.373 Q104.071 790.373 105.899 789.008 Q107.728 787.619 107.728 785.026 Q107.728 782.364 105.83 780.952 Q103.955 779.517 100.436 779.517 Q98.515 779.517 96.316 779.934 Q94.1169 780.35 91.478 781.23 L91.478 777.063 Q94.14 776.323 96.4548 775.952 Q98.7928 775.582 100.853 775.582 Q106.177 775.582 109.279 778.012 Q112.381 780.42 112.381 784.54 Q112.381 787.41 110.737 789.401 Q109.094 791.369 106.061 792.133 Z" fill="#000000" fill-rule="nonzero" fill-opacity="1" /><path clip-path="url(#clip380)" d="M136.223 792.133 Q139.58 792.85 141.455 795.119 Q143.353 797.387 143.353 800.721 Q143.353 805.836 139.834 808.637 Q136.316 811.438 129.834 811.438 Q127.658 811.438 125.344 810.998 Q123.052 810.582 120.598 809.725 L120.598 805.211 Q122.543 806.346 124.857 806.924 Q127.172 807.503 129.695 807.503 Q134.094 807.503 136.385 805.767 Q138.7 804.031 138.7 800.721 Q138.7 797.665 136.547 795.952 Q134.418 794.216 130.598 794.216 L126.57 794.216 L126.57 790.373 L130.783 790.373 Q134.232 790.373 136.061 789.008 Q137.89 787.619 137.89 785.026 Q137.89 782.364 135.992 780.952 Q134.117 779.517 130.598 779.517 Q128.677 779.517 126.478 779.934 Q124.279 780.35 121.64 781.23 L121.64 777.063 Q124.302 776.323 126.617 775.952 Q128.955 775.582 131.015 775.582 Q136.339 775.582 139.441 778.012 Q142.543 780.42 142.543 784.54 Q142.543 787.41 140.899 789.401 Q139.256 791.369 136.223 792.133 Z" fill="#000000" fill-rule="nonzero" fill-opacity="1" /><path clip-path="url(#clip380)" d="M166.385 792.133 Q169.741 792.85 171.616 795.119 Q173.515 797.387 173.515 800.721 Q173.515 805.836 169.996 808.637 Q166.478 811.438 159.996 811.438 Q157.82 811.438 155.505 810.998 Q153.214 810.582 150.76 809.725 L150.76 805.211 Q152.705 806.346 155.019 806.924 Q157.334 807.503 159.857 807.503 Q164.255 807.503 166.547 805.767 Q168.862 804.031 168.862 800.721 Q168.862 797.665 166.709 795.952 Q164.579 794.216 160.76 794.216 L156.732 794.216 L156.732 790.373 L160.945 790.373 Q164.394 790.373 166.223 789.008 Q168.052 787.619 168.052 785.026 Q168.052 782.364 166.154 780.952 Q164.279 779.517 160.76 779.517 Q158.839 779.517 156.64 779.934 Q154.441 780.35 151.802 781.23 L151.802 777.063 Q154.464 776.323 156.779 775.952 Q159.117 775.582 161.177 775.582 Q166.501 775.582 169.603 778.012 Q172.704 780.42 172.704 784.54 Q172.704 787.41 171.061 789.401 Q169.417 791.369 166.385 792.133 Z" fill="#000000" fill-rule="nonzero" fill-opacity="1" /><path clip-path="url(#clip380)" d="M53.0754 587.948 L82.7512 587.948 L82.7512 591.883 L53.0754 591.883 L53.0754 587.948 Z" fill="#000000" fill-rule="nonzero" fill-opacity="1" /><path clip-path="url(#clip380)" d="M107.01 586.142 Q110.367 586.86 112.242 589.128 Q114.14 591.397 114.14 594.73 Q114.14 599.846 110.621 602.647 Q107.103 605.448 100.621 605.448 Q98.4456 605.448 96.1308 605.008 Q93.8391 604.591 91.3854 603.735 L91.3854 599.221 Q93.3299 600.355 95.6447 600.934 Q97.9595 601.512 100.483 601.512 Q104.881 601.512 107.172 599.776 Q109.487 598.04 109.487 594.73 Q109.487 591.674 107.334 589.961 Q105.205 588.225 101.385 588.225 L97.3576 588.225 L97.3576 584.383 L101.571 584.383 Q105.02 584.383 106.848 583.017 Q108.677 581.628 108.677 579.036 Q108.677 576.374 106.779 574.962 Q104.904 573.526 101.385 573.526 Q99.4641 573.526 97.265 573.943 Q95.066 574.36 92.4271 575.239 L92.4271 571.073 Q95.0891 570.332 97.4039 569.962 Q99.7419 569.591 101.802 569.591 Q107.126 569.591 110.228 572.022 Q113.33 574.429 113.33 578.55 Q113.33 581.42 111.686 583.411 Q110.043 585.378 107.01 586.142 Z" fill="#000000" fill-rule="nonzero" fill-opacity="1" /><path clip-path="url(#clip380)" d="M137.172 586.142 Q140.529 586.86 142.404 589.128 Q144.302 591.397 144.302 594.73 Q144.302 599.846 140.783 602.647 Q137.265 605.448 130.783 605.448 Q128.607 605.448 126.293 605.008 Q124.001 604.591 121.547 603.735 L121.547 599.221 Q123.492 600.355 125.807 600.934 Q128.121 601.512 130.644 601.512 Q135.043 601.512 137.334 599.776 Q139.649 598.04 139.649 594.73 Q139.649 591.674 137.496 589.961 Q135.367 588.225 131.547 588.225 L127.519 588.225 L127.519 584.383 L131.732 584.383 Q135.181 584.383 137.01 583.017 Q138.839 581.628 138.839 579.036 Q138.839 576.374 136.941 574.962 Q135.066 573.526 131.547 573.526 Q129.626 573.526 127.427 573.943 Q125.228 574.36 122.589 575.239 L122.589 571.073 Q125.251 570.332 127.566 569.962 Q129.904 569.591 131.964 569.591 Q137.288 569.591 140.39 572.022 Q143.492 574.429 143.492 578.55 Q143.492 581.42 141.848 583.411 Q140.205 585.378 137.172 586.142 Z" fill="#000000" fill-rule="nonzero" fill-opacity="1" /><path clip-path="url(#clip380)" d="M157.195 600.841 L173.515 600.841 L173.515 604.776 L151.57 604.776 L151.57 600.841 Q154.232 598.086 158.816 593.457 Q163.422 588.804 164.603 587.461 Q166.848 584.938 167.728 583.202 Q168.63 581.443 168.63 579.753 Q168.63 576.999 166.686 575.262 Q164.765 573.526 161.663 573.526 Q159.464 573.526 157.01 574.29 Q154.58 575.054 151.802 576.605 L151.802 571.883 Q154.626 570.749 157.08 570.17 Q159.533 569.591 161.57 569.591 Q166.941 569.591 170.135 572.276 Q173.329 574.962 173.329 579.452 Q173.329 581.582 172.519 583.503 Q171.732 585.401 169.626 587.994 Q169.047 588.665 165.945 591.883 Q162.843 595.077 157.195 600.841 Z" fill="#000000" fill-rule="nonzero" fill-opacity="1" /><path clip-path="url(#clip380)" d="M52.7051 381.957 L82.3808 381.957 L82.3808 385.892 L52.7051 385.892 L52.7051 381.957 Z" fill="#000000" fill-rule="nonzero" fill-opacity="1" /><path clip-path="url(#clip380)" d="M106.64 380.151 Q109.996 380.869 111.871 383.138 Q113.77 385.406 113.77 388.739 Q113.77 393.855 110.251 396.656 Q106.733 399.457 100.251 399.457 Q98.0752 399.457 95.7604 399.017 Q93.4688 398.6 91.0151 397.744 L91.0151 393.23 Q92.9595 394.364 95.2743 394.943 Q97.5891 395.522 100.112 395.522 Q104.51 395.522 106.802 393.786 Q109.117 392.049 109.117 388.739 Q109.117 385.684 106.964 383.971 Q104.834 382.235 101.015 382.235 L96.9872 382.235 L96.9872 378.392 L101.2 378.392 Q104.649 378.392 106.478 377.026 Q108.307 375.638 108.307 373.045 Q108.307 370.383 106.408 368.971 Q104.534 367.536 101.015 367.536 Q99.0937 367.536 96.8947 367.952 Q94.6956 368.369 92.0567 369.249 L92.0567 365.082 Q94.7187 364.341 97.0335 363.971 Q99.3715 363.601 101.432 363.601 Q106.756 363.601 109.858 366.031 Q112.959 368.439 112.959 372.559 Q112.959 375.429 111.316 377.42 Q109.672 379.388 106.64 380.151 Z" fill="#000000" fill-rule="nonzero" fill-opacity="1" /><path clip-path="url(#clip380)" d="M136.802 380.151 Q140.158 380.869 142.033 383.138 Q143.931 385.406 143.931 388.739 Q143.931 393.855 140.413 396.656 Q136.894 399.457 130.413 399.457 Q128.237 399.457 125.922 399.017 Q123.631 398.6 121.177 397.744 L121.177 393.23 Q123.121 394.364 125.436 394.943 Q127.751 395.522 130.274 395.522 Q134.672 395.522 136.964 393.786 Q139.279 392.049 139.279 388.739 Q139.279 385.684 137.126 383.971 Q134.996 382.235 131.177 382.235 L127.149 382.235 L127.149 378.392 L131.362 378.392 Q134.811 378.392 136.64 377.026 Q138.469 375.638 138.469 373.045 Q138.469 370.383 136.57 368.971 Q134.695 367.536 131.177 367.536 Q129.256 367.536 127.057 367.952 Q124.857 368.369 122.219 369.249 L122.219 365.082 Q124.881 364.341 127.195 363.971 Q129.533 363.601 131.594 363.601 Q136.918 363.601 140.019 366.031 Q143.121 368.439 143.121 372.559 Q143.121 375.429 141.478 377.42 Q139.834 379.388 136.802 380.151 Z" fill="#000000" fill-rule="nonzero" fill-opacity="1" /><path clip-path="url(#clip380)" d="M153.607 394.85 L161.246 394.85 L161.246 368.485 L152.936 370.151 L152.936 365.892 L161.2 364.226 L165.876 364.226 L165.876 394.85 L173.515 394.85 L173.515 398.786 L153.607 398.786 L153.607 394.85 Z" fill="#000000" fill-rule="nonzero" fill-opacity="1" /><path clip-path="url(#clip380)" d="M51.4782 175.966 L81.154 175.966 L81.154 179.901 L51.4782 179.901 L51.4782 175.966 Z" fill="#000000" fill-rule="nonzero" fill-opacity="1" /><path clip-path="url(#clip380)" d="M105.413 174.161 Q108.77 174.878 110.645 177.147 Q112.543 179.415 112.543 182.749 Q112.543 187.864 109.024 190.665 Q105.506 193.466 99.0243 193.466 Q96.8484 193.466 94.5336 193.026 Q92.2419 192.61 89.7882 191.753 L89.7882 187.239 Q91.7326 188.374 94.0475 188.952 Q96.3623 189.531 98.8854 189.531 Q103.284 189.531 105.575 187.795 Q107.89 186.059 107.89 182.749 Q107.89 179.693 105.737 177.98 Q103.608 176.244 99.7882 176.244 L95.7604 176.244 L95.7604 172.402 L99.9733 172.402 Q103.422 172.402 105.251 171.036 Q107.08 169.647 107.08 167.054 Q107.08 164.392 105.182 162.98 Q103.307 161.545 99.7882 161.545 Q97.8669 161.545 95.6678 161.962 Q93.4688 162.378 90.8299 163.258 L90.8299 159.091 Q93.4919 158.351 95.8067 157.98 Q98.1447 157.61 100.205 157.61 Q105.529 157.61 108.631 160.04 Q111.733 162.448 111.733 166.568 Q111.733 169.439 110.089 171.429 Q108.446 173.397 105.413 174.161 Z" fill="#000000" fill-rule="nonzero" fill-opacity="1" /><path clip-path="url(#clip380)" d="M135.575 174.161 Q138.931 174.878 140.806 177.147 Q142.705 179.415 142.705 182.749 Q142.705 187.864 139.186 190.665 Q135.668 193.466 129.186 193.466 Q127.01 193.466 124.695 193.026 Q122.404 192.61 119.95 191.753 L119.95 187.239 Q121.895 188.374 124.209 188.952 Q126.524 189.531 129.047 189.531 Q133.445 189.531 135.737 187.795 Q138.052 186.059 138.052 182.749 Q138.052 179.693 135.899 177.98 Q133.769 176.244 129.95 176.244 L125.922 176.244 L125.922 172.402 L130.135 172.402 Q133.584 172.402 135.413 171.036 Q137.242 169.647 137.242 167.054 Q137.242 164.392 135.344 162.98 Q133.469 161.545 129.95 161.545 Q128.029 161.545 125.83 161.962 Q123.631 162.378 120.992 163.258 L120.992 159.091 Q123.654 158.351 125.969 157.98 Q128.307 157.61 130.367 157.61 Q135.691 157.61 138.793 160.04 Q141.894 162.448 141.894 166.568 Q141.894 169.439 140.251 171.429 Q138.607 173.397 135.575 174.161 Z" fill="#000000" fill-rule="nonzero" fill-opacity="1" /><path clip-path="url(#clip380)" d="M161.57 161.314 Q157.959 161.314 156.13 164.878 Q154.325 168.42 154.325 175.55 Q154.325 182.656 156.13 186.221 Q157.959 189.763 161.57 189.763 Q165.204 189.763 167.01 186.221 Q168.839 182.656 168.839 175.55 Q168.839 168.42 167.01 164.878 Q165.204 161.314 161.57 161.314 M161.57 157.61 Q167.38 157.61 170.436 162.216 Q173.515 166.8 173.515 175.55 Q173.515 184.276 170.436 188.883 Q167.38 193.466 161.57 193.466 Q155.76 193.466 152.681 188.883 Q149.626 184.276 149.626 175.55 Q149.626 166.8 152.681 162.216 Q155.76 157.61 161.57 157.61 Z" fill="#000000" fill-rule="nonzero" fill-opacity="1" /><polyline clip-path="url(#clip382)" style="stroke:#009af9; stroke-linecap:round; stroke-linejoin:round; stroke-width:4; stroke-opacity:1; fill:none" points="270.172,87.9763 271.183,186.678 272.194,267.474 273.205,334.736 274.216,391.606 275.227,440.383 276.238,482.765 277.249,520.025 278.26,553.126 279.271,582.808 280.282,609.645 281.293,634.089 282.304,656.5 283.315,677.166 284.326,696.323 285.337,714.166 286.348,730.855 287.359,746.525 288.37,761.293 289.381,775.255 290.392,788.496 291.403,801.088 292.414,813.096 293.425,824.575 294.435,835.574 295.446,846.136 296.457,856.3 297.468,866.1 298.479,875.566 299.49,884.727 300.501,893.607 301.512,902.228 302.523,910.611 303.534,918.774 304.545,926.734 305.556,934.505 306.567,942.102 307.578,949.537 308.589,956.822 309.6,963.967 310.611,970.982 311.622,977.876 312.633,984.656 313.644,991.331 314.655,997.907 315.666,1004.39 316.677,1010.79 317.688,1017.1 318.699,1023.34 319.71,1029.5 320.721,1035.6 321.731,1041.63 322.742,1047.59 323.753,1053.5 324.764,1059.35 325.775,1065.15 326.786,1070.89 327.797,1076.59 328.808,1082.23 329.819,1087.83 330.83,1093.37 331.841,1098.88 332.852,1104.33 333.863,1109.75 334.874,1115.11 335.885,1120.43 336.896,1125.71 337.907,1130.94 338.918,1136.13 339.929,1141.27 340.94,1146.37 341.951,1151.41 342.962,1156.41 343.973,1161.37 344.984,1166.27 345.995,1171.13 347.006,1175.93 348.017,1180.68 349.027,1185.38 350.038,1190.02 351.049,1194.62 352.06,1199.15 353.071,1203.63 354.082,1208.05 355.093,1212.41 356.104,1216.72 357.115,1220.96 358.126,1225.14 359.137,1229.26 360.148,1233.32 361.159,1237.31 362.17,1241.24 363.181,1245.11 364.192,1248.91 365.203,1252.65 366.214,1256.32 367.225,1259.93 368.236,1263.47 369.247,1266.94 370.258,1270.35 371.269,1273.69 372.28,1276.97 373.291,1280.18 374.302,1283.33 375.313,1286.41 376.323,1289.43 377.334,1292.38 378.345,1295.27 379.356,1298.1 380.367,1300.86 381.378,1303.57 382.389,1306.21 383.4,1308.8 384.411,1311.32 385.422,1313.79 386.433,1316.2 387.444,1318.55 388.455,1320.85 389.466,1323.09 390.477,1325.28 391.488,1327.42 392.499,1329.51 393.51,1331.54 394.521,1333.53 395.532,1335.47 396.543,1337.36 397.554,1339.2 398.565,1341 399.576,1342.76 400.587,1344.47 401.598,1346.14 402.609,1347.77 403.619,1349.36 404.63,1350.9 405.641,1352.41 406.652,1353.89 407.663,1355.32 408.674,1356.73 409.685,1358.09 410.696,1359.43 411.707,1360.73 412.718,1361.99 413.729,1363.23 414.74,1364.44 415.751,1365.62 416.762,1366.77 417.773,1367.89 418.784,1368.98 419.795,1370.05 420.806,1371.09 421.817,1372.11 422.828,1373.1 423.839,1374.07 424.85,1375.02 425.861,1375.94 426.872,1376.85 427.883,1377.73 428.894,1378.59 429.905,1379.43 430.915,1380.25 431.926,1381.06 432.937,1381.84 433.948,1382.61 434.959,1383.36 435.97,1384.1 436.981,1384.81 437.992,1385.51 439.003,1386.2 440.014,1386.87 441.025,1387.53 442.036,1388.17 443.047,1388.8 444.058,1389.42 445.069,1390.02 446.08,1390.61 447.091,1391.19 448.102,1391.75 449.113,1392.31 450.124,1392.85 451.135,1393.38 452.146,1393.9 453.157,1394.41 454.168,1394.91 455.179,1395.41 456.19,1395.89 457.201,1396.36 458.211,1396.82 459.222,1397.27 460.233,1397.72 461.244,1398.16 462.255,1398.59 463.266,1399.01 464.277,1399.42 465.288,1399.83 466.299,1400.22 467.31,1400.61 468.321,1401 469.332,1401.38 470.343,1401.75 471.354,1402.11 472.365,1402.47 473.376,1402.82 474.387,1403.16 475.398,1403.5 476.409,1403.84 477.42,1404.17 478.431,1404.49 479.442,1404.81 480.453,1405.12 481.464,1405.43 482.475,1405.73 483.486,1406.03 484.497,1406.32 485.507,1406.61 486.518,1406.9 487.529,1407.17 488.54,1407.45 489.551,1407.72 490.562,1407.99 491.573,1408.25 492.584,1408.51 493.595,1408.77 494.606,1409.02 495.617,1409.27 496.628,1409.51 497.639,1409.75 498.65,1409.99 499.661,1410.23 500.672,1410.46 501.683,1410.69 502.694,1410.91 503.705,1411.13 504.716,1411.35 505.727,1411.57 506.738,1411.78 507.749,1411.99 508.76,1412.2 509.771,1412.41 510.782,1412.61 511.793,1412.81 512.803,1413.01 513.814,1413.2 514.825,1413.39 515.836,1413.58 516.847,1413.77 517.858,1413.96 518.869,1414.14 519.88,1414.32 520.891,1414.5 521.902,1414.68 522.913,1414.85 523.924,1415.03 524.935,1415.2 525.946,1415.37 526.957,1415.53 527.968,1415.7 528.979,1415.86 529.99,1416.02 531.001,1416.18 532.012,1416.34 533.023,1416.5 534.034,1416.65 535.045,1416.81 536.056,1416.96 537.067,1417.11 538.078,1417.26 539.089,1417.4 540.099,1417.55 541.11,1417.69 542.121,1417.84 543.132,1417.98 544.143,1418.12 545.154,1418.26 546.165,1418.39 547.176,1418.53 548.187,1418.66 549.198,1418.8 550.209,1418.93 551.22,1419.06 552.231,1419.19 553.242,1419.32 554.253,1419.44 555.264,1419.57 556.275,1419.69 557.286,1419.82 558.297,1419.94 559.308,1420.06 560.319,1420.18 561.33,1420.3 562.341,1420.42 563.352,1420.54 564.363,1420.65 565.374,1420.77 566.385,1420.88 567.395,1421 568.406,1421.11 569.417,1421.22 570.428,1421.33 571.439,1421.44 572.45,1421.55 573.461,1421.66 574.472,1421.76 575.483,1421.87 576.494,1421.98 577.505,1422.08 578.516,1422.18 579.527,1422.29 580.538,1422.39 581.549,1422.49 582.56,1422.59 583.571,1422.69 584.582,1422.79 585.593,1422.89 586.604,1422.98 587.615,1423.08 588.626,1423.18 589.637,1423.27 590.648,1423.37 591.659,1423.46 592.67,1423.55 593.681,1423.65 594.691,1423.74 595.702,1423.83 596.713,1423.92 597.724,1424.01 598.735,1424.1 599.746,1424.19 600.757,1424.28 601.768,1424.36 602.779,1424.45 603.79,1424.54 604.801,1424.62 605.812,1424.71 606.823,1424.79 607.834,1424.88 608.845,1424.96 609.856,1425.04 610.867,1425.13 611.878,1425.21 612.889,1425.29 613.9,1425.37 614.911,1425.45 615.922,1425.53 616.933,1425.61 617.944,1425.69 618.955,1425.77 619.966,1425.84 620.977,1425.92 621.987,1426 622.998,1426.07 624.009,1426.15 625.02,1426.23 626.031,1426.3 627.042,1426.38 628.053,1426.45 629.064,1426.52 630.075,1426.6 631.086,1426.67 632.097,1426.74 633.108,1426.81 634.119,1426.88 635.13,1426.96 636.141,1427.03 637.152,1427.1 638.163,1427.17 639.174,1427.24 640.185,1427.3 641.196,1427.37 642.207,1427.44 643.218,1427.51 644.229,1427.58 645.24,1427.64 646.251,1427.71 647.262,1427.78 648.273,1427.84 649.283,1427.91 650.294,1427.97 651.305,1428.04 652.316,1428.1 653.327,1428.17 654.338,1428.23 655.349,1428.29 656.36,1428.36 657.371,1428.42 658.382,1428.48 659.393,1428.54 660.404,1428.6 661.415,1428.67 662.426,1428.73 663.437,1428.79 664.448,1428.85 665.459,1428.91 666.47,1428.97 667.481,1429.03 668.492,1429.09 669.503,1429.15 670.514,1429.2 671.525,1429.26 672.536,1429.32 673.547,1429.38 674.558,1429.44 675.569,1429.49 676.579,1429.55 677.59,1429.61 678.601,1429.66 679.612,1429.72 680.623,1429.77 681.634,1429.83 682.645,1429.88 683.656,1429.94 684.667,1429.99 685.678,1430.05 686.689,1430.1 687.7,1430.16 688.711,1430.21 689.722,1430.26 690.733,1430.32 691.744,1430.37 692.755,1430.42 693.766,1430.47 694.777,1430.52 695.788,1430.58 696.799,1430.63 697.81,1430.68 698.821,1430.73 699.832,1430.78 700.843,1430.83 701.854,1430.88 702.864,1430.93 703.875,1430.98 704.886,1431.03 705.897,1431.08 706.908,1431.13 707.919,1431.18 708.93,1431.23 709.941,1431.27 710.952,1431.32 711.963,1431.37 712.974,1431.42 713.985,1431.47 714.996,1431.51 716.007,1431.56 717.018,1431.61 718.029,1431.65 719.04,1431.7 720.051,1431.75 721.062,1431.79 722.073,1431.84 723.084,1431.88 724.095,1431.93 725.106,1431.97 726.117,1432.02 727.128,1432.06 728.139,1432.11 729.15,1432.15 730.16,1432.2 731.171,1432.24 732.182,1432.28 733.193,1432.33 734.204,1432.37 735.215,1432.41 736.226,1432.46 737.237,1432.5 738.248,1432.54 739.259,1432.58 740.27,1432.63 741.281,1432.67 742.292,1432.71 743.303,1432.75 744.314,1432.79 745.325,1432.84 746.336,1432.88 747.347,1432.92 748.358,1432.96 749.369,1433 750.38,1433.04 751.391,1433.08 752.402,1433.12 753.413,1433.16 754.424,1433.2 755.435,1433.24 756.446,1433.28 757.456,1433.32 758.467,1433.36 759.478,1433.4 760.489,1433.43 761.5,1433.47 762.511,1433.51 763.522,1433.55 764.533,1433.59 765.544,1433.63 766.555,1433.66 767.566,1433.7 768.577,1433.74 769.588,1433.78 770.599,1433.81 771.61,1433.85 772.621,1433.89 773.632,1433.92 774.643,1433.96 775.654,1434 776.665,1434.03 777.676,1434.07 778.687,1434.11 779.698,1434.14 780.709,1434.18 781.72,1434.21 782.731,1434.25 783.742,1434.28 784.752,1434.32 785.763,1434.35 786.774,1434.39 787.785,1434.42 788.796,1434.46 789.807,1434.49 790.818,1434.53 791.829,1434.56 792.84,1434.59 793.851,1434.63 794.862,1434.66 795.873,1434.69 796.884,1434.73 797.895,1434.76 798.906,1434.79 799.917,1434.83 800.928,1434.86 801.939,1434.89 802.95,1434.93 803.961,1434.96 804.972,1434.99 805.983,1435.02 806.994,1435.05 808.005,1435.09 809.016,1435.12 810.027,1435.15 811.038,1435.18 812.048,1435.21 813.059,1435.24 814.07,1435.28 815.081,1435.31 816.092,1435.34 817.103,1435.37 818.114,1435.4 819.125,1435.43 820.136,1435.46 821.147,1435.49 822.158,1435.52 823.169,1435.55 824.18,1435.58 825.191,1435.61 826.202,1435.64 827.213,1435.67 828.224,1435.7 829.235,1435.73 830.246,1435.76 831.257,1435.79 832.268,1435.82 833.279,1435.85 834.29,1435.88 835.301,1435.91 836.312,1435.93 837.323,1435.96 838.334,1435.99 839.344,1436.02 840.355,1436.05 841.366,1436.08 842.377,1436.1 843.388,1436.13 844.399,1436.16 845.41,1436.19 846.421,1436.21 847.432,1436.24 848.443,1436.27 849.454,1436.3 850.465,1436.32 851.476,1436.35 852.487,1436.38 853.498,1436.41 854.509,1436.43 855.52,1436.46 856.531,1436.49 857.542,1436.51 858.553,1436.54 859.564,1436.56 860.575,1436.59 861.586,1436.62 862.597,1436.64 863.608,1436.67 864.619,1436.69 865.63,1436.72 866.64,1436.75 867.651,1436.77 868.662,1436.8 869.673,1436.82 870.684,1436.85 871.695,1436.87 872.706,1436.9 873.717,1436.92 874.728,1436.95 875.739,1436.97 876.75,1437 877.761,1437.02 878.772,1437.05 879.783,1437.07 880.794,1437.1 881.805,1437.12 882.816,1437.14 883.827,1437.17 884.838,1437.19 885.849,1437.22 886.86,1437.24 887.871,1437.26 888.882,1437.29 889.893,1437.31 890.904,1437.33 891.915,1437.36 892.926,1437.38 893.936,1437.4 894.947,1437.43 895.958,1437.45 896.969,1437.47 897.98,1437.5 898.991,1437.52 900.002,1437.54 901.013,1437.57 902.024,1437.59 903.035,1437.61 904.046,1437.63 905.057,1437.66 906.068,1437.68 907.079,1437.7 908.09,1437.72 909.101,1437.74 910.112,1437.77 911.123,1437.79 912.134,1437.81 913.145,1437.83 914.156,1437.85 915.167,1437.87 916.178,1437.9 917.189,1437.92 918.2,1437.94 919.211,1437.96 920.222,1437.98 921.232,1438 922.243,1438.02 923.254,1438.04 924.265,1438.07 925.276,1438.09 926.287,1438.11 927.298,1438.13 928.309,1438.15 929.32,1438.17 930.331,1438.19 931.342,1438.21 932.353,1438.23 933.364,1438.25 934.375,1438.27 935.386,1438.29 936.397,1438.31 937.408,1438.33 938.419,1438.35 939.43,1438.37 940.441,1438.39 941.452,1438.41 942.463,1438.43 943.474,1438.45 944.485,1438.47 945.496,1438.49 946.507,1438.51 947.518,1438.53 948.528,1438.55 949.539,1438.57 950.55,1438.58 951.561,1438.6 952.572,1438.62 953.583,1438.64 954.594,1438.66 955.605,1438.68 956.616,1438.7 957.627,1438.72 958.638,1438.74 959.649,1438.75 960.66,1438.77 961.671,1438.79 962.682,1438.81 963.693,1438.83 964.704,1438.85 965.715,1438.86 966.726,1438.88 967.737,1438.9 968.748,1438.92 969.759,1438.94 970.77,1438.95 971.781,1438.97 972.792,1438.99 973.803,1439.01 974.814,1439.03 975.824,1439.04 976.835,1439.06 977.846,1439.08 978.857,1439.1 979.868,1439.11 980.879,1439.13 981.89,1439.15 982.901,1439.16 983.912,1439.18 984.923,1439.2 985.934,1439.22 986.945,1439.23 987.956,1439.25 988.967,1439.27 989.978,1439.28 990.989,1439.3 992,1439.32 993.011,1439.33 994.022,1439.35 995.033,1439.37 996.044,1439.38 997.055,1439.4 998.066,1439.42 999.077,1439.43 1000.09,1439.45 1001.1,1439.46 1002.11,1439.48 1003.12,1439.5 1004.13,1439.51 1005.14,1439.53 1006.15,1439.54 1007.16,1439.56 1008.18,1439.58 1009.19,1439.59 1010.2,1439.61 1011.21,1439.62 1012.22,1439.64 1013.23,1439.66 1014.24,1439.67 1015.25,1439.69 1016.26,1439.7 1017.27,1439.72 1018.28,1439.73 1019.3,1439.75 1020.31,1439.76 1021.32,1439.78 1022.33,1439.79 1023.34,1439.81 1024.35,1439.82 1025.36,1439.84 1026.37,1439.85 1027.38,1439.87 1028.39,1439.88 1029.41,1439.9 1030.42,1439.91 1031.43,1439.93 1032.44,1439.94 1033.45,1439.96 1034.46,1439.97 1035.47,1439.99 1036.48,1440 1037.49,1440.02 1038.5,1440.03 1039.52,1440.04 1040.53,1440.06 1041.54,1440.07 1042.55,1440.09 1043.56,1440.1 1044.57,1440.12 1045.58,1440.13 1046.59,1440.14 1047.6,1440.16 1048.61,1440.17 1049.62,1440.19 1050.64,1440.2 1051.65,1440.21 1052.66,1440.23 1053.67,1440.24 1054.68,1440.25 1055.69,1440.27 1056.7,1440.28 1057.71,1440.3 1058.72,1440.31 1059.73,1440.32 1060.75,1440.34 1061.76,1440.35 1062.77,1440.36 1063.78,1440.38 1064.79,1440.39 1065.8,1440.4 1066.81,1440.42 1067.82,1440.43 1068.83,1440.44 1069.84,1440.46 1070.85,1440.47 1071.87,1440.48 1072.88,1440.49 1073.89,1440.51 1074.9,1440.52 1075.91,1440.53 1076.92,1440.55 1077.93,1440.56 1078.94,1440.57 1079.95,1440.58 1080.96,1440.6 1081.98,1440.61 1082.99,1440.62 1084,1440.64 1085.01,1440.65 1086.02,1440.66 1087.03,1440.67 1088.04,1440.69 1089.05,1440.7 1090.06,1440.71 1091.07,1440.72 1092.09,1440.73 1093.1,1440.75 1094.11,1440.76 1095.12,1440.77 1096.13,1440.78 1097.14,1440.8 1098.15,1440.81 1099.16,1440.82 1100.17,1440.83 1101.18,1440.84 1102.19,1440.86 1103.21,1440.87 1104.22,1440.88 1105.23,1440.89 1106.24,1440.9 1107.25,1440.91 1108.26,1440.93 1109.27,1440.94 1110.28,1440.95 1111.29,1440.96 1112.3,1440.97 1113.32,1440.98 1114.33,1441 1115.34,1441.01 1116.35,1441.02 1117.36,1441.03 1118.37,1441.04 1119.38,1441.05 1120.39,1441.06 1121.4,1441.08 1122.41,1441.09 1123.43,1441.1 1124.44,1441.11 1125.45,1441.12 1126.46,1441.13 1127.47,1441.14 1128.48,1441.15 1129.49,1441.16 1130.5,1441.18 1131.51,1441.19 1132.52,1441.2 1133.53,1441.21 1134.55,1441.22 1135.56,1441.23 1136.57,1441.24 1137.58,1441.25 1138.59,1441.26 1139.6,1441.27 1140.61,1441.28 1141.62,1441.29 1142.63,1441.3 1143.64,1441.32 1144.66,1441.33 1145.67,1441.34 1146.68,1441.35 1147.69,1441.36 1148.7,1441.37 1149.71,1441.38 1150.72,1441.39 1151.73,1441.4 1152.74,1441.41 1153.75,1441.42 1154.76,1441.43 1155.78,1441.44 1156.79,1441.45 1157.8,1441.46 1158.81,1441.47 1159.82,1441.48 1160.83,1441.49 1161.84,1441.5 1162.85,1441.51 1163.86,1441.52 1164.87,1441.53 1165.89,1441.54 1166.9,1441.55 1167.91,1441.56 1168.92,1441.57 1169.93,1441.58 1170.94,1441.59 1171.95,1441.6 1172.96,1441.61 1173.97,1441.62 1174.98,1441.63 1176,1441.64 1177.01,1441.65 1178.02,1441.66 1179.03,1441.67 1180.04,1441.68 1181.05,1441.69 1182.06,1441.7 1183.07,1441.71 1184.08,1441.72 1185.09,1441.72 1186.1,1441.73 1187.12,1441.74 1188.13,1441.75 1189.14,1441.76 1190.15,1441.77 1191.16,1441.78 1192.17,1441.79 1193.18,1441.8 1194.19,1441.81 1195.2,1441.82 1196.21,1441.83 1197.23,1441.84 1198.24,1441.85 1199.25,1441.85 1200.26,1441.86 1201.27,1441.87 1202.28,1441.88 1203.29,1441.89 1204.3,1441.9 1205.31,1441.91 1206.32,1441.92 1207.33,1441.93 1208.35,1441.94 1209.36,1441.94 1210.37,1441.95 1211.38,1441.96 1212.39,1441.97 1213.4,1441.98 1214.41,1441.99 1215.42,1442 1216.43,1442.01 1217.44,1442.01 1218.46,1442.02 1219.47,1442.03 1220.48,1442.04 1221.49,1442.05 1222.5,1442.06 1223.51,1442.07 1224.52,1442.07 1225.53,1442.08 1226.54,1442.09 1227.55,1442.1 1228.57,1442.11 1229.58,1442.12 1230.59,1442.12 1231.6,1442.13 1232.61,1442.14 1233.62,1442.15 1234.63,1442.16 1235.64,1442.17 1236.65,1442.17 1237.66,1442.18 1238.67,1442.19 1239.69,1442.2 1240.7,1442.21 1241.71,1442.22 1242.72,1442.22 1243.73,1442.23 1244.74,1442.24 1245.75,1442.25 1246.76,1442.26 1247.77,1442.26 1248.78,1442.27 1249.8,1442.28 1250.81,1442.29 1251.82,1442.3 1252.83,1442.3 1253.84,1442.31 1254.85,1442.32 1255.86,1442.33 1256.87,1442.33 1257.88,1442.34 1258.89,1442.35 1259.91,1442.36 1260.92,1442.37 1261.93,1442.37 1262.94,1442.38 1263.95,1442.39 1264.96,1442.4 1265.97,1442.4 1266.98,1442.41 1267.99,1442.42 1269,1442.43 1270.01,1442.43 1271.03,1442.44 1272.04,1442.45 1273.05,1442.46 1274.06,1442.47 1275.07,1442.47 1276.08,1442.48 1277.09,1442.49 1278.1,1442.49 1279.11,1442.5 1280.12,1442.51 1281.14,1442.52 1282.15,1442.52 1283.16,1442.53 1284.17,1442.54 1285.18,1442.55 1286.19,1442.55 1287.2,1442.56 1288.21,1442.57 1289.22,1442.58 1290.23,1442.58 1291.24,1442.59 1292.26,1442.6 1293.27,1442.6 1294.28,1442.61 1295.29,1442.62 1296.3,1442.63 1297.31,1442.63 1298.32,1442.64 1299.33,1442.65 1300.34,1442.65 1301.35,1442.66 1302.37,1442.67 1303.38,1442.67 1304.39,1442.68 1305.4,1442.69 1306.41,1442.7 1307.42,1442.7 1308.43,1442.71 1309.44,1442.72 1310.45,1442.72 1311.46,1442.73 1312.48,1442.74 1313.49,1442.74 1314.5,1442.75 1315.51,1442.76 1316.52,1442.76 1317.53,1442.77 1318.54,1442.78 1319.55,1442.78 1320.56,1442.79 1321.57,1442.8 1322.58,1442.8 1323.6,1442.81 1324.61,1442.82 1325.62,1442.82 1326.63,1442.83 1327.64,1442.84 1328.65,1442.84 1329.66,1442.85 1330.67,1442.86 1331.68,1442.86 1332.69,1442.87 1333.71,1442.88 1334.72,1442.88 1335.73,1442.89 1336.74,1442.9 1337.75,1442.9 1338.76,1442.91 1339.77,1442.92 1340.78,1442.92 1341.79,1442.93 1342.8,1442.93 1343.81,1442.94 1344.83,1442.95 1345.84,1442.95 1346.85,1442.96 1347.86,1442.97 1348.87,1442.97 1349.88,1442.98 1350.89,1442.98 1351.9,1442.99 1352.91,1443 1353.92,1443 1354.94,1443.01 1355.95,1443.02 1356.96,1443.02 1357.97,1443.03 1358.98,1443.03 1359.99,1443.04 1361,1443.05 1362.01,1443.05 1363.02,1443.06 1364.03,1443.06 1365.05,1443.07 1366.06,1443.08 1367.07,1443.08 1368.08,1443.09 1369.09,1443.09 1370.1,1443.1 1371.11,1443.11 1372.12,1443.11 1373.13,1443.12 1374.14,1443.12 1375.15,1443.13 1376.17,1443.14 1377.18,1443.14 1378.19,1443.15 1379.2,1443.15 1380.21,1443.16 1381.22,1443.16 1382.23,1443.17 1383.24,1443.18 1384.25,1443.18 1385.26,1443.19 1386.28,1443.19 1387.29,1443.2 1388.3,1443.21 1389.31,1443.21 1390.32,1443.22 1391.33,1443.22 1392.34,1443.23 1393.35,1443.23 1394.36,1443.24 1395.37,1443.24 1396.39,1443.25 1397.4,1443.26 1398.41,1443.26 1399.42,1443.27 1400.43,1443.27 1401.44,1443.28 1402.45,1443.28 1403.46,1443.29 1404.47,1443.3 1405.48,1443.3 1406.49,1443.31 1407.51,1443.31 1408.52,1443.32 1409.53,1443.32 1410.54,1443.33 1411.55,1443.33 1412.56,1443.34 1413.57,1443.34 1414.58,1443.35 1415.59,1443.36 1416.6,1443.36 1417.62,1443.37 1418.63,1443.37 1419.64,1443.38 1420.65,1443.38 1421.66,1443.39 1422.67,1443.39 1423.68,1443.4 1424.69,1443.4 1425.7,1443.41 1426.71,1443.41 1427.72,1443.42 1428.74,1443.42 1429.75,1443.43 1430.76,1443.43 1431.77,1443.44 1432.78,1443.44 1433.79,1443.45 1434.8,1443.46 1435.81,1443.46 1436.82,1443.47 1437.83,1443.47 1438.85,1443.48 1439.86,1443.48 1440.87,1443.49 1441.88,1443.49 1442.89,1443.5 1443.9,1443.5 1444.91,1443.51 1445.92,1443.51 1446.93,1443.52 1447.94,1443.52 1448.96,1443.53 1449.97,1443.53 1450.98,1443.54 1451.99,1443.54 1453,1443.55 1454.01,1443.55 1455.02,1443.56 1456.03,1443.56 1457.04,1443.57 1458.05,1443.57 1459.06,1443.58 1460.08,1443.58 1461.09,1443.59 1462.1,1443.59 1463.11,1443.6 1464.12,1443.6 1465.13,1443.61 1466.14,1443.61 1467.15,1443.61 1468.16,1443.62 1469.17,1443.62 1470.19,1443.63 1471.2,1443.63 1472.21,1443.64 1473.22,1443.64 1474.23,1443.65 1475.24,1443.65 1476.25,1443.66 1477.26,1443.66 1478.27,1443.67 1479.28,1443.67 1480.29,1443.68 1481.31,1443.68 1482.32,1443.69 1483.33,1443.69 1484.34,1443.7 1485.35,1443.7 1486.36,1443.7 1487.37,1443.71 1488.38,1443.71 1489.39,1443.72 1490.4,1443.72 1491.42,1443.73 1492.43,1443.73 1493.44,1443.74 1494.45,1443.74 1495.46,1443.75 1496.47,1443.75 1497.48,1443.76 1498.49,1443.76 1499.5,1443.76 1500.51,1443.77 1501.53,1443.77 1502.54,1443.78 1503.55,1443.78 1504.56,1443.79 1505.57,1443.79 1506.58,1443.8 1507.59,1443.8 1508.6,1443.8 1509.61,1443.81 1510.62,1443.81 1511.63,1443.82 1512.65,1443.82 1513.66,1443.83 1514.67,1443.83 1515.68,1443.84 1516.69,1443.84 1517.7,1443.84 1518.71,1443.85 1519.72,1443.85 1520.73,1443.86 1521.74,1443.86 1522.76,1443.87 1523.77,1443.87 1524.78,1443.87 1525.79,1443.88 1526.8,1443.88 1527.81,1443.89 1528.82,1443.89 1529.83,1443.9 1530.84,1443.9 1531.85,1443.9 1532.87,1443.91 1533.88,1443.91 1534.89,1443.92 1535.9,1443.92 1536.91,1443.92 1537.92,1443.93 1538.93,1443.93 1539.94,1443.94 1540.95,1443.94 1541.96,1443.95 1542.97,1443.95 1543.99,1443.95 1545,1443.96 1546.01,1443.96 1547.02,1443.97 1548.03,1443.97 1549.04,1443.97 1550.05,1443.98 1551.06,1443.98 1552.07,1443.99 1553.08,1443.99 1554.1,1443.99 1555.11,1444 1556.12,1444 1557.13,1444.01 1558.14,1444.01 1559.15,1444.02 1560.16,1444.02 1561.17,1444.02 1562.18,1444.03 1563.19,1444.03 1564.2,1444.04 1565.22,1444.04 1566.23,1444.04 1567.24,1444.05 1568.25,1444.05 1569.26,1444.05 1570.27,1444.06 1571.28,1444.06 1572.29,1444.07 1573.3,1444.07 1574.31,1444.07 1575.33,1444.08 1576.34,1444.08 1577.35,1444.09 1578.36,1444.09 1579.37,1444.09 1580.38,1444.1 1581.39,1444.1 1582.4,1444.11 1583.41,1444.11 1584.42,1444.11 1585.44,1444.12 1586.45,1444.12 1587.46,1444.12 1588.47,1444.13 1589.48,1444.13 1590.49,1444.14 1591.5,1444.14 1592.51,1444.14 1593.52,1444.15 1594.53,1444.15 1595.54,1444.15 1596.56,1444.16 1597.57,1444.16 1598.58,1444.17 1599.59,1444.17 1600.6,1444.17 1601.61,1444.18 1602.62,1444.18 1603.63,1444.18 1604.64,1444.19 1605.65,1444.19 1606.67,1444.2 1607.68,1444.2 1608.69,1444.2 1609.7,1444.21 1610.71,1444.21 1611.72,1444.21 1612.73,1444.22 1613.74,1444.22 1614.75,1444.22 1615.76,1444.23 1616.77,1444.23 1617.79,1444.24 1618.8,1444.24 1619.81,1444.24 1620.82,1444.25 1621.83,1444.25 1622.84,1444.25 1623.85,1444.26 1624.86,1444.26 1625.87,1444.26 1626.88,1444.27 1627.9,1444.27 1628.91,1444.27 1629.92,1444.28 1630.93,1444.28 1631.94,1444.28 1632.95,1444.29 1633.96,1444.29 1634.97,1444.3 1635.98,1444.3 1636.99,1444.3 1638.01,1444.31 1639.02,1444.31 1640.03,1444.31 1641.04,1444.32 1642.05,1444.32 1643.06,1444.32 1644.07,1444.33 1645.08,1444.33 1646.09,1444.33 1647.1,1444.34 1648.11,1444.34 1649.13,1444.34 1650.14,1444.35 1651.15,1444.35 1652.16,1444.35 1653.17,1444.36 1654.18,1444.36 1655.19,1444.36 1656.2,1444.37 1657.21,1444.37 1658.22,1444.37 1659.24,1444.38 1660.25,1444.38 1661.26,1444.38 1662.27,1444.39 1663.28,1444.39 1664.29,1444.39 1665.3,1444.4 1666.31,1444.4 1667.32,1444.4 1668.33,1444.41 1669.35,1444.41 1670.36,1444.41 1671.37,1444.42 1672.38,1444.42 1673.39,1444.42 1674.4,1444.43 1675.41,1444.43 1676.42,1444.43 1677.43,1444.44 1678.44,1444.44 1679.45,1444.44 1680.47,1444.45 1681.48,1444.45 1682.49,1444.45 1683.5,1444.46 1684.51,1444.46 1685.52,1444.46 1686.53,1444.46 1687.54,1444.47 1688.55,1444.47 1689.56,1444.47 1690.58,1444.48 1691.59,1444.48 1692.6,1444.48 1693.61,1444.49 1694.62,1444.49 1695.63,1444.49 1696.64,1444.5 1697.65,1444.5 1698.66,1444.5 1699.67,1444.51 1700.68,1444.51 1701.7,1444.51 1702.71,1444.52 1703.72,1444.52 1704.73,1444.52 1705.74,1444.52 1706.75,1444.53 1707.76,1444.53 1708.77,1444.53 1709.78,1444.54 1710.79,1444.54 1711.81,1444.54 1712.82,1444.55 1713.83,1444.55 1714.84,1444.55 1715.85,1444.55 1716.86,1444.56 1717.87,1444.56 1718.88,1444.56 1719.89,1444.57 1720.9,1444.57 1721.92,1444.57 1722.93,1444.58 1723.94,1444.58 1724.95,1444.58 1725.96,1444.58 1726.97,1444.59 1727.98,1444.59 1728.99,1444.59 1730,1444.6 1731.01,1444.6 1732.02,1444.6 1733.04,1444.61 1734.05,1444.61 1735.06,1444.61 1736.07,1444.61 1737.08,1444.62 1738.09,1444.62 1739.1,1444.62 1740.11,1444.63 1741.12,1444.63 1742.13,1444.63 1743.15,1444.63 1744.16,1444.64 1745.17,1444.64 1746.18,1444.64 1747.19,1444.65 1748.2,1444.65 1749.21,1444.65 1750.22,1444.65 1751.23,1444.66 1752.24,1444.66 1753.25,1444.66 1754.27,1444.67 1755.28,1444.67 1756.29,1444.67 1757.3,1444.67 1758.31,1444.68 1759.32,1444.68 1760.33,1444.68 1761.34,1444.69 1762.35,1444.69 1763.36,1444.69 1764.38,1444.69 1765.39,1444.7 1766.4,1444.7 1767.41,1444.7 1768.42,1444.71 1769.43,1444.71 1770.44,1444.71 1771.45,1444.71 1772.46,1444.72 1773.47,1444.72 1774.49,1444.72 1775.5,1444.72 1776.51,1444.73 1777.52,1444.73 1778.53,1444.73 1779.54,1444.74 1780.55,1444.74 1781.56,1444.74 1782.57,1444.74 1783.58,1444.75 1784.59,1444.75 1785.61,1444.75 1786.62,1444.75 1787.63,1444.76 1788.64,1444.76 1789.65,1444.76 1790.66,1444.77 1791.67,1444.77 1792.68,1444.77 1793.69,1444.77 1794.7,1444.78 1795.72,1444.78 1796.73,1444.78 1797.74,1444.78 1798.75,1444.79 1799.76,1444.79 1800.77,1444.79 1801.78,1444.79 1802.79,1444.8 1803.8,1444.8 1804.81,1444.8 1805.82,1444.8 1806.84,1444.81 1807.85,1444.81 1808.86,1444.81 1809.87,1444.82 1810.88,1444.82 1811.89,1444.82 1812.9,1444.82 1813.91,1444.83 1814.92,1444.83 1815.93,1444.83 1816.95,1444.83 1817.96,1444.84 1818.97,1444.84 1819.98,1444.84 1820.99,1444.84 1822,1444.85 1823.01,1444.85 1824.02,1444.85 1825.03,1444.85 1826.04,1444.86 1827.06,1444.86 1828.07,1444.86 1829.08,1444.86 1830.09,1444.87 1831.1,1444.87 1832.11,1444.87 1833.12,1444.87 1834.13,1444.88 1835.14,1444.88 1836.15,1444.88 1837.16,1444.88 1838.18,1444.89 1839.19,1444.89 1840.2,1444.89 1841.21,1444.89 1842.22,1444.9 1843.23,1444.9 1844.24,1444.9 1845.25,1444.9 1846.26,1444.91 1847.27,1444.91 1848.29,1444.91 1849.3,1444.91 1850.31,1444.92 1851.32,1444.92 1852.33,1444.92 1853.34,1444.92 1854.35,1444.93 1855.36,1444.93 1856.37,1444.93 1857.38,1444.93 1858.4,1444.94 1859.41,1444.94 1860.42,1444.94 1861.43,1444.94 1862.44,1444.94 1863.45,1444.95 1864.46,1444.95 1865.47,1444.95 1866.48,1444.95 1867.49,1444.96 1868.5,1444.96 1869.52,1444.96 1870.53,1444.96 1871.54,1444.97 1872.55,1444.97 1873.56,1444.97 1874.57,1444.97 1875.58,1444.98 1876.59,1444.98 1877.6,1444.98 1878.61,1444.98 1879.63,1444.99 1880.64,1444.99 1881.65,1444.99 1882.66,1444.99 1883.67,1444.99 1884.68,1445 1885.69,1445 1886.7,1445 1887.71,1445 1888.72,1445.01 1889.73,1445.01 1890.75,1445.01 1891.76,1445.01 1892.77,1445.02 1893.78,1445.02 1894.79,1445.02 1895.8,1445.02 1896.81,1445.02 1897.82,1445.03 1898.83,1445.03 1899.84,1445.03 1900.86,1445.03 1901.87,1445.04 1902.88,1445.04 1903.89,1445.04 1904.9,1445.04 1905.91,1445.04 1906.92,1445.05 1907.93,1445.05 1908.94,1445.05 1909.95,1445.05 1910.97,1445.06 1911.98,1445.06 1912.99,1445.06 1914,1445.06 1915.01,1445.06 1916.02,1445.07 1917.03,1445.07 1918.04,1445.07 1919.05,1445.07 1920.06,1445.08 1921.07,1445.08 1922.09,1445.08 1923.1,1445.08 1924.11,1445.08 1925.12,1445.09 1926.13,1445.09 1927.14,1445.09 1928.15,1445.09 1929.16,1445.1 1930.17,1445.1 1931.18,1445.1 1932.2,1445.1 1933.21,1445.1 1934.22,1445.11 1935.23,1445.11 1936.24,1445.11 1937.25,1445.11 1938.26,1445.11 1939.27,1445.12 1940.28,1445.12 1941.29,1445.12 1942.3,1445.12 1943.32,1445.13 1944.33,1445.13 1945.34,1445.13 1946.35,1445.13 1947.36,1445.13 1948.37,1445.14 1949.38,1445.14 1950.39,1445.14 1951.4,1445.14 1952.41,1445.14 1953.43,1445.15 1954.44,1445.15 1955.45,1445.15 1956.46,1445.15 1957.47,1445.16 1958.48,1445.16 1959.49,1445.16 1960.5,1445.16 1961.51,1445.16 1962.52,1445.17 1963.54,1445.17 1964.55,1445.17 1965.56,1445.17 1966.57,1445.17 1967.58,1445.18 1968.59,1445.18 1969.6,1445.18 1970.61,1445.18 1971.62,1445.18 1972.63,1445.19 1973.64,1445.19 1974.66,1445.19 1975.67,1445.19 1976.68,1445.19 1977.69,1445.2 1978.7,1445.2 1979.71,1445.2 1980.72,1445.2 1981.73,1445.2 1982.74,1445.21 1983.75,1445.21 1984.77,1445.21 1985.78,1445.21 1986.79,1445.21 1987.8,1445.22 1988.81,1445.22 1989.82,1445.22 1990.83,1445.22 1991.84,1445.22 1992.85,1445.23 1993.86,1445.23 1994.88,1445.23 1995.89,1445.23 1996.9,1445.23 1997.91,1445.24 1998.92,1445.24 1999.93,1445.24 2000.94,1445.24 2001.95,1445.24 2002.96,1445.25 2003.97,1445.25 2004.98,1445.25 2006,1445.25 2007.01,1445.25 2008.02,1445.26 2009.03,1445.26 2010.04,1445.26 2011.05,1445.26 2012.06,1445.26 2013.07,1445.27 2014.08,1445.27 2015.09,1445.27 2016.11,1445.27 2017.12,1445.27 2018.13,1445.28 2019.14,1445.28 2020.15,1445.28 2021.16,1445.28 2022.17,1445.28 2023.18,1445.28 2024.19,1445.29 2025.2,1445.29 2026.21,1445.29 2027.23,1445.29 2028.24,1445.29 2029.25,1445.3 2030.26,1445.3 2031.27,1445.3 2032.28,1445.3 2033.29,1445.3 2034.3,1445.31 2035.31,1445.31 2036.32,1445.31 2037.34,1445.31 2038.35,1445.31 2039.36,1445.32 2040.37,1445.32 2041.38,1445.32 2042.39,1445.32 2043.4,1445.32 2044.41,1445.32 2045.42,1445.33 2046.43,1445.33 2047.45,1445.33 2048.46,1445.33 2049.47,1445.33 2050.48,1445.34 2051.49,1445.34 2052.5,1445.34 2053.51,1445.34 2054.52,1445.34 2055.53,1445.34 2056.54,1445.35 2057.55,1445.35 2058.57,1445.35 2059.58,1445.35 2060.59,1445.35 2061.6,1445.36 2062.61,1445.36 2063.62,1445.36 2064.63,1445.36 2065.64,1445.36 2066.65,1445.36 2067.66,1445.37 2068.68,1445.37 2069.69,1445.37 2070.7,1445.37 2071.71,1445.37 2072.72,1445.38 2073.73,1445.38 2074.74,1445.38 2075.75,1445.38 2076.76,1445.38 2077.77,1445.38 2078.78,1445.39 2079.8,1445.39 2080.81,1445.39 2081.82,1445.39 2082.83,1445.39 2083.84,1445.39 2084.85,1445.4 2085.86,1445.4 2086.87,1445.4 2087.88,1445.4 2088.89,1445.4 2089.91,1445.41 2090.92,1445.41 2091.93,1445.41 2092.94,1445.41 2093.95,1445.41 2094.96,1445.41 2095.97,1445.42 2096.98,1445.42 2097.99,1445.42 2099,1445.42 2100.02,1445.42 2101.03,1445.42 2102.04,1445.43 2103.05,1445.43 2104.06,1445.43 2105.07,1445.43 2106.08,1445.43 2107.09,1445.43 2108.1,1445.44 2109.11,1445.44 2110.12,1445.44 2111.14,1445.44 2112.15,1445.44 2113.16,1445.45 2114.17,1445.45 2115.18,1445.45 2116.19,1445.45 2117.2,1445.45 2118.21,1445.45 2119.22,1445.46 2120.23,1445.46 2121.25,1445.46 2122.26,1445.46 2123.27,1445.46 2124.28,1445.46 2125.29,1445.47 2126.3,1445.47 2127.31,1445.47 2128.32,1445.47 2129.33,1445.47 2130.34,1445.47 2131.36,1445.48 2132.37,1445.48 2133.38,1445.48 2134.39,1445.48 2135.4,1445.48 2136.41,1445.48 2137.42,1445.49 2138.43,1445.49 2139.44,1445.49 2140.45,1445.49 2141.46,1445.49 2142.48,1445.49 2143.49,1445.5 2144.5,1445.5 2145.51,1445.5 2146.52,1445.5 2147.53,1445.5 2148.54,1445.5 2149.55,1445.5 2150.56,1445.51 2151.57,1445.51 2152.59,1445.51 2153.6,1445.51 2154.61,1445.51 2155.62,1445.51 2156.63,1445.52 2157.64,1445.52 2158.65,1445.52 2159.66,1445.52 2160.67,1445.52 2161.68,1445.52 2162.69,1445.53 2163.71,1445.53 2164.72,1445.53 2165.73,1445.53 2166.74,1445.53 2167.75,1445.53 2168.76,1445.54 2169.77,1445.54 2170.78,1445.54 2171.79,1445.54 2172.8,1445.54 2173.82,1445.54 2174.83,1445.54 2175.84,1445.55 2176.85,1445.55 2177.86,1445.55 2178.87,1445.55 2179.88,1445.55 2180.89,1445.55 2181.9,1445.56 2182.91,1445.56 2183.93,1445.56 2184.94,1445.56 2185.95,1445.56 2186.96,1445.56 2187.97,1445.57 2188.98,1445.57 2189.99,1445.57 2191,1445.57 2192.01,1445.57 2193.02,1445.57 2194.03,1445.57 2195.05,1445.58 2196.06,1445.58 2197.07,1445.58 2198.08,1445.58 2199.09,1445.58 2200.1,1445.58 2201.11,1445.59 2202.12,1445.59 2203.13,1445.59 2204.14,1445.59 2205.16,1445.59 2206.17,1445.59 2207.18,1445.59 2208.19,1445.6 2209.2,1445.6 2210.21,1445.6 2211.22,1445.6 2212.23,1445.6 2213.24,1445.6 2214.25,1445.6 2215.26,1445.61 2216.28,1445.61 2217.29,1445.61 2218.3,1445.61 2219.31,1445.61 2220.32,1445.61 2221.33,1445.62 2222.34,1445.62 2223.35,1445.62 2224.36,1445.62 2225.37,1445.62 2226.39,1445.62 2227.4,1445.62 2228.41,1445.63 2229.42,1445.63 2230.43,1445.63 2231.44,1445.63 2232.45,1445.63 2233.46,1445.63 2234.47,1445.63 2235.48,1445.64 2236.5,1445.64 2237.51,1445.64 2238.52,1445.64 2239.53,1445.64 2240.54,1445.64 2241.55,1445.64 2242.56,1445.65 2243.57,1445.65 2244.58,1445.65 2245.59,1445.65 2246.6,1445.65 2247.62,1445.65 2248.63,1445.66 2249.64,1445.66 2250.65,1445.66 2251.66,1445.66 2252.67,1445.66 2253.68,1445.66 2254.69,1445.66 2255.7,1445.67 2256.71,1445.67 2257.73,1445.67 2258.74,1445.67 2259.75,1445.67 2260.76,1445.67 2261.77,1445.67 2262.78,1445.68 2263.79,1445.68 2264.8,1445.68 2265.81,1445.68 2266.82,1445.68 2267.84,1445.68 2268.85,1445.68 2269.86,1445.69 2270.87,1445.69 2271.88,1445.69 2272.89,1445.69 2273.9,1445.69 2274.91,1445.69 2275.92,1445.69 2276.93,1445.69 2277.94,1445.7 2278.96,1445.7 2279.97,1445.7 2280.98,1445.7 2281.99,1445.7 2283,1445.7 2284.01,1445.7 2285.02,1445.71 2286.03,1445.71 2287.04,1445.71 2288.05,1445.71 2289.07,1445.71 2290.08,1445.71 2291.09,1445.71 2292.1,1445.72 "/>
<path clip-path="url(#clip380)" d="M2014.56 198.898 L2281.31 198.898 L2281.31 95.2176 L2014.56 95.2176  Z" fill="#ffffff" fill-rule="evenodd" fill-opacity="1"/>
<polyline clip-path="url(#clip380)" style="stroke:#000000; stroke-linecap:round; stroke-linejoin:round; stroke-width:4; stroke-opacity:1; fill:none" points="2014.56,198.898 2281.31,198.898 2281.31,95.2176 2014.56,95.2176 2014.56,198.898 "/>
<polyline clip-path="url(#clip380)" style="stroke:#009af9; stroke-linecap:round; stroke-linejoin:round; stroke-width:4; stroke-opacity:1; fill:none" points="2038.37,147.058 2181.26,147.058 "/>
<path clip-path="url(#clip380)" d="M2218.91 166.745 Q2217.11 171.375 2215.39 172.787 Q2213.68 174.199 2210.81 174.199 L2207.41 174.199 L2207.41 170.634 L2209.91 170.634 Q2211.67 170.634 2212.64 169.8 Q2213.61 168.967 2214.79 165.865 L2215.56 163.921 L2205.07 138.412 L2209.58 138.412 L2217.69 158.689 L2225.79 138.412 L2230.3 138.412 L2218.91 166.745 Z" fill="#000000" fill-rule="nonzero" fill-opacity="1" /><path clip-path="url(#clip380)" d="M2237.59 160.402 L2245.23 160.402 L2245.23 134.037 L2236.92 135.703 L2236.92 131.444 L2245.19 129.778 L2249.86 129.778 L2249.86 160.402 L2257.5 160.402 L2257.5 164.338 L2237.59 164.338 L2237.59 160.402 Z" fill="#000000" fill-rule="nonzero" fill-opacity="1" /></svg>
