<?xml version="1.0" encoding="utf-8"?>
<svg xmlns="http://www.w3.org/2000/svg" xmlns:xlink="http://www.w3.org/1999/xlink" width="600" height="400" viewBox="0 0 2400 1600">
<defs>
  <clipPath id="clip920">
    <rect x="0" y="0" width="2400" height="1600"/>
  </clipPath>
</defs>
<path clip-path="url(#clip920)" d="M0 1600 L2400 1600 L2400 0 L0 0  Z" fill="#ffffff" fill-rule="evenodd" fill-opacity="1"/>
<defs>
  <clipPath id="clip921">
    <rect x="480" y="0" width="1681" height="1600"/>
  </clipPath>
</defs>
<path clip-path="url(#clip920)" d="M254.26 1486.45 L2352.76 1486.45 L2352.76 47.2441 L254.26 47.2441  Z" fill="#ffffff" fill-rule="evenodd" fill-opacity="1"/>
<defs>
  <clipPath id="clip922">
    <rect x="254" y="47" width="2099" height="1440"/>
  </clipPath>
</defs>
<polyline clip-path="url(#clip922)" style="stroke:#000000; stroke-linecap:round; stroke-linejoin:round; stroke-width:2; stroke-opacity:0.1; fill:none" points="313.651,1486.45 313.651,47.2441 "/>
<polyline clip-path="url(#clip922)" style="stroke:#000000; stroke-linecap:round; stroke-linejoin:round; stroke-width:2; stroke-opacity:0.1; fill:none" points="808.579,1486.45 808.579,47.2441 "/>
<polyline clip-path="url(#clip922)" style="stroke:#000000; stroke-linecap:round; stroke-linejoin:round; stroke-width:2; stroke-opacity:0.1; fill:none" points="1303.51,1486.45 1303.51,47.2441 "/>
<polyline clip-path="url(#clip922)" style="stroke:#000000; stroke-linecap:round; stroke-linejoin:round; stroke-width:2; stroke-opacity:0.1; fill:none" points="1798.44,1486.45 1798.44,47.2441 "/>
<polyline clip-path="url(#clip922)" style="stroke:#000000; stroke-linecap:round; stroke-linejoin:round; stroke-width:2; stroke-opacity:0.1; fill:none" points="2293.36,1486.45 2293.36,47.2441 "/>
<polyline clip-path="url(#clip920)" style="stroke:#000000; stroke-linecap:round; stroke-linejoin:round; stroke-width:4; stroke-opacity:1; fill:none" points="254.26,1486.45 2352.76,1486.45 "/>
<polyline clip-path="url(#clip920)" style="stroke:#000000; stroke-linecap:round; stroke-linejoin:round; stroke-width:4; stroke-opacity:1; fill:none" points="313.651,1486.45 313.651,1467.55 "/>
<polyline clip-path="url(#clip920)" style="stroke:#000000; stroke-linecap:round; stroke-linejoin:round; stroke-width:4; stroke-opacity:1; fill:none" points="808.579,1486.45 808.579,1467.55 "/>
<polyline clip-path="url(#clip920)" style="stroke:#000000; stroke-linecap:round; stroke-linejoin:round; stroke-width:4; stroke-opacity:1; fill:none" points="1303.51,1486.45 1303.51,1467.55 "/>
<polyline clip-path="url(#clip920)" style="stroke:#000000; stroke-linecap:round; stroke-linejoin:round; stroke-width:4; stroke-opacity:1; fill:none" points="1798.44,1486.45 1798.44,1467.55 "/>
<polyline clip-path="url(#clip920)" style="stroke:#000000; stroke-linecap:round; stroke-linejoin:round; stroke-width:4; stroke-opacity:1; fill:none" points="2293.36,1486.45 2293.36,1467.55 "/>
<path clip-path="url(#clip920)" d="M313.651 1517.37 Q310.04 1517.37 308.211 1520.93 Q306.406 1524.47 306.406 1531.6 Q306.406 1538.71 308.211 1542.27 Q310.04 1545.82 313.651 1545.82 Q317.285 1545.82 319.091 1542.27 Q320.92 1538.71 320.92 1531.6 Q320.92 1524.47 319.091 1520.93 Q317.285 1517.37 313.651 1517.37 M313.651 1513.66 Q319.461 1513.66 322.517 1518.27 Q325.596 1522.85 325.596 1531.6 Q325.596 1540.33 322.517 1544.94 Q319.461 1549.52 313.651 1549.52 Q307.841 1549.52 304.762 1544.94 Q301.707 1540.33 301.707 1531.6 Q301.707 1522.85 304.762 1518.27 Q307.841 1513.66 313.651 1513.66 Z" fill="#000000" fill-rule="nonzero" fill-opacity="1" /><path clip-path="url(#clip920)" d="M768.198 1514.29 L786.554 1514.29 L786.554 1518.22 L772.48 1518.22 L772.48 1526.7 Q773.499 1526.35 774.517 1526.19 Q775.536 1526 776.554 1526 Q782.341 1526 785.721 1529.17 Q789.1 1532.34 789.1 1537.76 Q789.1 1543.34 785.628 1546.44 Q782.156 1549.52 775.837 1549.52 Q773.661 1549.52 771.392 1549.15 Q769.147 1548.78 766.739 1548.04 L766.739 1543.34 Q768.823 1544.47 771.045 1545.03 Q773.267 1545.58 775.744 1545.58 Q779.749 1545.58 782.087 1543.48 Q784.425 1541.37 784.425 1537.76 Q784.425 1534.15 782.087 1532.04 Q779.749 1529.94 775.744 1529.94 Q773.869 1529.94 771.994 1530.35 Q770.142 1530.77 768.198 1531.65 L768.198 1514.29 Z" fill="#000000" fill-rule="nonzero" fill-opacity="1" /><path clip-path="url(#clip920)" d="M808.313 1517.37 Q804.702 1517.37 802.873 1520.93 Q801.068 1524.47 801.068 1531.6 Q801.068 1538.71 802.873 1542.27 Q804.702 1545.82 808.313 1545.82 Q811.948 1545.82 813.753 1542.27 Q815.582 1538.71 815.582 1531.6 Q815.582 1524.47 813.753 1520.93 Q811.948 1517.37 808.313 1517.37 M808.313 1513.66 Q814.123 1513.66 817.179 1518.27 Q820.258 1522.85 820.258 1531.6 Q820.258 1540.33 817.179 1544.94 Q814.123 1549.52 808.313 1549.52 Q802.503 1549.52 799.424 1544.94 Q796.369 1540.33 796.369 1531.6 Q796.369 1522.85 799.424 1518.27 Q802.503 1513.66 808.313 1513.66 Z" fill="#000000" fill-rule="nonzero" fill-opacity="1" /><path clip-path="url(#clip920)" d="M838.475 1517.37 Q834.864 1517.37 833.035 1520.93 Q831.23 1524.47 831.23 1531.6 Q831.23 1538.71 833.035 1542.27 Q834.864 1545.82 838.475 1545.82 Q842.109 1545.82 843.915 1542.27 Q845.744 1538.71 845.744 1531.6 Q845.744 1524.47 843.915 1520.93 Q842.109 1517.37 838.475 1517.37 M838.475 1513.66 Q844.285 1513.66 847.341 1518.27 Q850.42 1522.85 850.42 1531.6 Q850.42 1540.33 847.341 1544.94 Q844.285 1549.52 838.475 1549.52 Q832.665 1549.52 829.586 1544.94 Q826.531 1540.33 826.531 1531.6 Q826.531 1522.85 829.586 1518.27 Q832.665 1513.66 838.475 1513.66 Z" fill="#000000" fill-rule="nonzero" fill-opacity="1" /><path clip-path="url(#clip920)" d="M1248.03 1544.91 L1255.67 1544.91 L1255.67 1518.55 L1247.36 1520.21 L1247.36 1515.95 L1255.63 1514.29 L1260.3 1514.29 L1260.3 1544.91 L1267.94 1544.91 L1267.94 1548.85 L1248.03 1548.85 L1248.03 1544.91 Z" fill="#000000" fill-rule="nonzero" fill-opacity="1" /><path clip-path="url(#clip920)" d="M1287.39 1517.37 Q1283.77 1517.37 1281.95 1520.93 Q1280.14 1524.47 1280.14 1531.6 Q1280.14 1538.71 1281.95 1542.27 Q1283.77 1545.82 1287.39 1545.82 Q1291.02 1545.82 1292.83 1542.27 Q1294.65 1538.71 1294.65 1531.6 Q1294.65 1524.47 1292.83 1520.93 Q1291.02 1517.37 1287.39 1517.37 M1287.39 1513.66 Q1293.2 1513.66 1296.25 1518.27 Q1299.33 1522.85 1299.33 1531.6 Q1299.33 1540.33 1296.25 1544.94 Q1293.2 1549.52 1287.39 1549.52 Q1281.58 1549.52 1278.5 1544.94 Q1275.44 1540.33 1275.44 1531.6 Q1275.44 1522.85 1278.5 1518.27 Q1281.58 1513.66 1287.39 1513.66 Z" fill="#000000" fill-rule="nonzero" fill-opacity="1" /><path clip-path="url(#clip920)" d="M1317.55 1517.37 Q1313.94 1517.37 1312.11 1520.93 Q1310.3 1524.47 1310.3 1531.6 Q1310.3 1538.71 1312.11 1542.27 Q1313.94 1545.82 1317.55 1545.82 Q1321.18 1545.82 1322.99 1542.27 Q1324.82 1538.71 1324.82 1531.6 Q1324.82 1524.47 1322.99 1520.93 Q1321.18 1517.37 1317.55 1517.37 M1317.55 1513.66 Q1323.36 1513.66 1326.41 1518.27 Q1329.49 1522.85 1329.49 1531.6 Q1329.49 1540.33 1326.41 1544.94 Q1323.36 1549.52 1317.55 1549.52 Q1311.74 1549.52 1308.66 1544.94 Q1305.6 1540.33 1305.6 1531.6 Q1305.6 1522.85 1308.66 1518.27 Q1311.74 1513.66 1317.55 1513.66 Z" fill="#000000" fill-rule="nonzero" fill-opacity="1" /><path clip-path="url(#clip920)" d="M1347.71 1517.37 Q1344.1 1517.37 1342.27 1520.93 Q1340.46 1524.47 1340.46 1531.6 Q1340.46 1538.71 1342.27 1542.27 Q1344.1 1545.82 1347.71 1545.82 Q1351.34 1545.82 1353.15 1542.27 Q1354.98 1538.71 1354.98 1531.6 Q1354.98 1524.47 1353.15 1520.93 Q1351.34 1517.37 1347.71 1517.37 M1347.71 1513.66 Q1353.52 1513.66 1356.57 1518.27 Q1359.65 1522.85 1359.65 1531.6 Q1359.65 1540.33 1356.57 1544.94 Q1353.52 1549.52 1347.71 1549.52 Q1341.9 1549.52 1338.82 1544.94 Q1335.76 1540.33 1335.76 1531.6 Q1335.76 1522.85 1338.82 1518.27 Q1341.9 1513.66 1347.71 1513.66 Z" fill="#000000" fill-rule="nonzero" fill-opacity="1" /><path clip-path="url(#clip920)" d="M1742.96 1544.91 L1750.6 1544.91 L1750.6 1518.55 L1742.29 1520.21 L1742.29 1515.95 L1750.55 1514.29 L1755.23 1514.29 L1755.23 1544.91 L1762.87 1544.91 L1762.87 1548.85 L1742.96 1548.85 L1742.96 1544.91 Z" fill="#000000" fill-rule="nonzero" fill-opacity="1" /><path clip-path="url(#clip920)" d="M1772.36 1514.29 L1790.72 1514.29 L1790.72 1518.22 L1776.64 1518.22 L1776.64 1526.7 Q1777.66 1526.35 1778.68 1526.19 Q1779.7 1526 1780.72 1526 Q1786.5 1526 1789.88 1529.17 Q1793.26 1532.34 1793.26 1537.76 Q1793.26 1543.34 1789.79 1546.44 Q1786.32 1549.52 1780 1549.52 Q1777.82 1549.52 1775.55 1549.15 Q1773.31 1548.78 1770.9 1548.04 L1770.9 1543.34 Q1772.98 1544.47 1775.21 1545.03 Q1777.43 1545.58 1779.91 1545.58 Q1783.91 1545.58 1786.25 1543.48 Q1788.59 1541.37 1788.59 1537.76 Q1788.59 1534.15 1786.25 1532.04 Q1783.91 1529.94 1779.91 1529.94 Q1778.03 1529.94 1776.16 1530.35 Q1774.3 1530.77 1772.36 1531.65 L1772.36 1514.29 Z" fill="#000000" fill-rule="nonzero" fill-opacity="1" /><path clip-path="url(#clip920)" d="M1812.48 1517.37 Q1808.86 1517.37 1807.04 1520.93 Q1805.23 1524.47 1805.23 1531.6 Q1805.23 1538.71 1807.04 1542.27 Q1808.86 1545.82 1812.48 1545.82 Q1816.11 1545.82 1817.92 1542.27 Q1819.74 1538.71 1819.74 1531.6 Q1819.74 1524.47 1817.92 1520.93 Q1816.11 1517.37 1812.48 1517.37 M1812.48 1513.66 Q1818.29 1513.66 1821.34 1518.27 Q1824.42 1522.85 1824.42 1531.6 Q1824.42 1540.33 1821.34 1544.94 Q1818.29 1549.52 1812.48 1549.52 Q1806.67 1549.52 1803.59 1544.94 Q1800.53 1540.33 1800.53 1531.6 Q1800.53 1522.85 1803.59 1518.27 Q1806.67 1513.66 1812.48 1513.66 Z" fill="#000000" fill-rule="nonzero" fill-opacity="1" /><path clip-path="url(#clip920)" d="M1842.64 1517.37 Q1839.03 1517.37 1837.2 1520.93 Q1835.39 1524.47 1835.39 1531.6 Q1835.39 1538.71 1837.2 1542.27 Q1839.03 1545.82 1842.64 1545.82 Q1846.27 1545.82 1848.08 1542.27 Q1849.91 1538.71 1849.91 1531.6 Q1849.91 1524.47 1848.08 1520.93 Q1846.27 1517.37 1842.64 1517.37 M1842.64 1513.66 Q1848.45 1513.66 1851.5 1518.27 Q1854.58 1522.85 1854.58 1531.6 Q1854.58 1540.33 1851.5 1544.94 Q1848.45 1549.52 1842.64 1549.52 Q1836.83 1549.52 1833.75 1544.94 Q1830.69 1540.33 1830.69 1531.6 Q1830.69 1522.85 1833.75 1518.27 Q1836.83 1513.66 1842.64 1513.66 Z" fill="#000000" fill-rule="nonzero" fill-opacity="1" /><path clip-path="url(#clip920)" d="M2241.98 1544.91 L2258.3 1544.91 L2258.3 1548.85 L2236.35 1548.85 L2236.35 1544.91 Q2239.01 1542.16 2243.6 1537.53 Q2248.2 1532.88 2249.38 1531.53 Q2251.63 1529.01 2252.51 1527.27 Q2253.41 1525.51 2253.41 1523.82 Q2253.41 1521.07 2251.47 1519.33 Q2249.55 1517.6 2246.44 1517.6 Q2244.24 1517.6 2241.79 1518.36 Q2239.36 1519.13 2236.58 1520.68 L2236.58 1515.95 Q2239.41 1514.82 2241.86 1514.24 Q2244.31 1513.66 2246.35 1513.66 Q2251.72 1513.66 2254.92 1516.35 Q2258.11 1519.03 2258.11 1523.52 Q2258.11 1525.65 2257.3 1527.57 Q2256.51 1529.47 2254.41 1532.07 Q2253.83 1532.74 2250.73 1535.95 Q2247.62 1539.15 2241.98 1544.91 Z" fill="#000000" fill-rule="nonzero" fill-opacity="1" /><path clip-path="url(#clip920)" d="M2278.11 1517.37 Q2274.5 1517.37 2272.67 1520.93 Q2270.86 1524.47 2270.86 1531.6 Q2270.86 1538.71 2272.67 1542.27 Q2274.5 1545.82 2278.11 1545.82 Q2281.74 1545.82 2283.55 1542.27 Q2285.38 1538.71 2285.38 1531.6 Q2285.38 1524.47 2283.55 1520.93 Q2281.74 1517.37 2278.11 1517.37 M2278.11 1513.66 Q2283.92 1513.66 2286.98 1518.27 Q2290.05 1522.85 2290.05 1531.6 Q2290.05 1540.33 2286.98 1544.94 Q2283.92 1549.52 2278.11 1549.52 Q2272.3 1549.52 2269.22 1544.94 Q2266.17 1540.33 2266.17 1531.6 Q2266.17 1522.85 2269.22 1518.27 Q2272.3 1513.66 2278.11 1513.66 Z" fill="#000000" fill-rule="nonzero" fill-opacity="1" /><path clip-path="url(#clip920)" d="M2308.27 1517.37 Q2304.66 1517.37 2302.83 1520.93 Q2301.03 1524.47 2301.03 1531.6 Q2301.03 1538.71 2302.83 1542.27 Q2304.66 1545.82 2308.27 1545.82 Q2311.91 1545.82 2313.71 1542.27 Q2315.54 1538.71 2315.54 1531.6 Q2315.54 1524.47 2313.71 1520.93 Q2311.91 1517.37 2308.27 1517.37 M2308.27 1513.66 Q2314.08 1513.66 2317.14 1518.27 Q2320.22 1522.85 2320.22 1531.6 Q2320.22 1540.33 2317.14 1544.94 Q2314.08 1549.52 2308.27 1549.52 Q2302.46 1549.52 2299.38 1544.94 Q2296.33 1540.33 2296.33 1531.6 Q2296.33 1522.85 2299.38 1518.27 Q2302.46 1513.66 2308.27 1513.66 Z" fill="#000000" fill-rule="nonzero" fill-opacity="1" /><path clip-path="url(#clip920)" d="M2338.43 1517.37 Q2334.82 1517.37 2332.99 1520.93 Q2331.19 1524.47 2331.19 1531.6 Q2331.19 1538.71 2332.99 1542.27 Q2334.82 1545.82 2338.43 1545.82 Q2342.07 1545.82 2343.87 1542.27 Q2345.7 1538.71 2345.7 1531.6 Q2345.7 1524.47 2343.87 1520.93 Q2342.07 1517.37 2338.43 1517.37 M2338.43 1513.66 Q2344.24 1513.66 2347.3 1518.27 Q2350.38 1522.85 2350.38 1531.6 Q2350.38 1540.33 2347.3 1544.94 Q2344.24 1549.52 2338.43 1549.52 Q2332.62 1549.52 2329.54 1544.94 Q2326.49 1540.33 2326.49 1531.6 Q2326.49 1522.85 2329.54 1518.27 Q2332.62 1513.66 2338.43 1513.66 Z" fill="#000000" fill-rule="nonzero" fill-opacity="1" /><polyline clip-path="url(#clip922)" style="stroke:#000000; stroke-linecap:round; stroke-linejoin:round; stroke-width:2; stroke-opacity:0.1; fill:none" points="254.26,1331.85 2352.76,1331.85 "/>
<polyline clip-path="url(#clip922)" style="stroke:#000000; stroke-linecap:round; stroke-linejoin:round; stroke-width:2; stroke-opacity:0.1; fill:none" points="254.26,1051.42 2352.76,1051.42 "/>
<polyline clip-path="url(#clip922)" style="stroke:#000000; stroke-linecap:round; stroke-linejoin:round; stroke-width:2; stroke-opacity:0.1; fill:none" points="254.26,770.989 2352.76,770.989 "/>
<polyline clip-path="url(#clip922)" style="stroke:#000000; stroke-linecap:round; stroke-linejoin:round; stroke-width:2; stroke-opacity:0.1; fill:none" points="254.26,490.56 2352.76,490.56 "/>
<polyline clip-path="url(#clip922)" style="stroke:#000000; stroke-linecap:round; stroke-linejoin:round; stroke-width:2; stroke-opacity:0.1; fill:none" points="254.26,210.131 2352.76,210.131 "/>
<polyline clip-path="url(#clip920)" style="stroke:#000000; stroke-linecap:round; stroke-linejoin:round; stroke-width:4; stroke-opacity:1; fill:none" points="254.26,1486.45 254.26,47.2441 "/>
<polyline clip-path="url(#clip920)" style="stroke:#000000; stroke-linecap:round; stroke-linejoin:round; stroke-width:4; stroke-opacity:1; fill:none" points="254.26,1331.85 273.157,1331.85 "/>
<polyline clip-path="url(#clip920)" style="stroke:#000000; stroke-linecap:round; stroke-linejoin:round; stroke-width:4; stroke-opacity:1; fill:none" points="254.26,1051.42 273.157,1051.42 "/>
<polyline clip-path="url(#clip920)" style="stroke:#000000; stroke-linecap:round; stroke-linejoin:round; stroke-width:4; stroke-opacity:1; fill:none" points="254.26,770.989 273.157,770.989 "/>
<polyline clip-path="url(#clip920)" style="stroke:#000000; stroke-linecap:round; stroke-linejoin:round; stroke-width:4; stroke-opacity:1; fill:none" points="254.26,490.56 273.157,490.56 "/>
<polyline clip-path="url(#clip920)" style="stroke:#000000; stroke-linecap:round; stroke-linejoin:round; stroke-width:4; stroke-opacity:1; fill:none" points="254.26,210.131 273.157,210.131 "/>
<path clip-path="url(#clip920)" d="M50.9921 1332.3 L80.6679 1332.3 L80.6679 1336.23 L50.9921 1336.23 L50.9921 1332.3 Z" fill="#000000" fill-rule="nonzero" fill-opacity="1" /><path clip-path="url(#clip920)" d="M103.608 1318.64 L91.8021 1337.09 L103.608 1337.09 L103.608 1318.64 M102.381 1314.57 L108.26 1314.57 L108.26 1337.09 L113.191 1337.09 L113.191 1340.98 L108.26 1340.98 L108.26 1349.13 L103.608 1349.13 L103.608 1340.98 L88.0058 1340.98 L88.0058 1336.46 L102.381 1314.57 Z" fill="#000000" fill-rule="nonzero" fill-opacity="1" /><path clip-path="url(#clip920)" d="M120.922 1343.25 L125.807 1343.25 L125.807 1349.13 L120.922 1349.13 L120.922 1343.25 Z" fill="#000000" fill-rule="nonzero" fill-opacity="1" /><path clip-path="url(#clip920)" d="M145.992 1332.71 Q142.658 1332.71 140.737 1334.5 Q138.839 1336.28 138.839 1339.4 Q138.839 1342.53 140.737 1344.31 Q142.658 1346.09 145.992 1346.09 Q149.325 1346.09 151.246 1344.31 Q153.168 1342.51 153.168 1339.4 Q153.168 1336.28 151.246 1334.5 Q149.348 1332.71 145.992 1332.71 M141.316 1330.72 Q138.306 1329.98 136.617 1327.92 Q134.95 1325.86 134.95 1322.9 Q134.95 1318.76 137.89 1316.35 Q140.853 1313.94 145.992 1313.94 Q151.154 1313.94 154.093 1316.35 Q157.033 1318.76 157.033 1322.9 Q157.033 1325.86 155.343 1327.92 Q153.677 1329.98 150.691 1330.72 Q154.07 1331.51 155.945 1333.8 Q157.843 1336.09 157.843 1339.4 Q157.843 1344.43 154.765 1347.11 Q151.709 1349.8 145.992 1349.8 Q140.274 1349.8 137.195 1347.11 Q134.14 1344.43 134.14 1339.4 Q134.14 1336.09 136.038 1333.8 Q137.936 1331.51 141.316 1330.72 M139.603 1323.34 Q139.603 1326.03 141.269 1327.53 Q142.959 1329.03 145.992 1329.03 Q149.001 1329.03 150.691 1327.53 Q152.404 1326.03 152.404 1323.34 Q152.404 1320.65 150.691 1319.15 Q149.001 1317.65 145.992 1317.65 Q142.959 1317.65 141.269 1319.15 Q139.603 1320.65 139.603 1323.34 Z" fill="#000000" fill-rule="nonzero" fill-opacity="1" /><path clip-path="url(#clip920)" d="M166.2 1314.57 L184.556 1314.57 L184.556 1318.5 L170.482 1318.5 L170.482 1326.97 Q171.501 1326.63 172.519 1326.46 Q173.538 1326.28 174.556 1326.28 Q180.343 1326.28 183.723 1329.45 Q187.103 1332.62 187.103 1338.04 Q187.103 1343.62 183.63 1346.72 Q180.158 1349.8 173.839 1349.8 Q171.663 1349.8 169.394 1349.43 Q167.149 1349.06 164.742 1348.32 L164.742 1343.62 Q166.825 1344.75 169.047 1345.31 Q171.269 1345.86 173.746 1345.86 Q177.751 1345.86 180.089 1343.76 Q182.427 1341.65 182.427 1338.04 Q182.427 1334.43 180.089 1332.32 Q177.751 1330.21 173.746 1330.21 Q171.871 1330.21 169.996 1330.63 Q168.144 1331.05 166.2 1331.93 L166.2 1314.57 Z" fill="#000000" fill-rule="nonzero" fill-opacity="1" /><path clip-path="url(#clip920)" d="M206.315 1317.65 Q202.704 1317.65 200.876 1321.21 Q199.07 1324.75 199.07 1331.88 Q199.07 1338.99 200.876 1342.55 Q202.704 1346.09 206.315 1346.09 Q209.95 1346.09 211.755 1342.55 Q213.584 1338.99 213.584 1331.88 Q213.584 1324.75 211.755 1321.21 Q209.95 1317.65 206.315 1317.65 M206.315 1313.94 Q212.126 1313.94 215.181 1318.55 Q218.26 1323.13 218.26 1331.88 Q218.26 1340.61 215.181 1345.21 Q212.126 1349.8 206.315 1349.8 Q200.505 1349.8 197.427 1345.21 Q194.371 1340.61 194.371 1331.88 Q194.371 1323.13 197.427 1318.55 Q200.505 1313.94 206.315 1313.94 Z" fill="#000000" fill-rule="nonzero" fill-opacity="1" /><path clip-path="url(#clip920)" d="M51.9875 1051.87 L81.6633 1051.87 L81.6633 1055.8 L51.9875 1055.8 L51.9875 1051.87 Z" fill="#000000" fill-rule="nonzero" fill-opacity="1" /><path clip-path="url(#clip920)" d="M104.603 1038.21 L92.7975 1056.66 L104.603 1056.66 L104.603 1038.21 M103.376 1034.14 L109.256 1034.14 L109.256 1056.66 L114.186 1056.66 L114.186 1060.55 L109.256 1060.55 L109.256 1068.7 L104.603 1068.7 L104.603 1060.55 L89.0012 1060.55 L89.0012 1056.04 L103.376 1034.14 Z" fill="#000000" fill-rule="nonzero" fill-opacity="1" /><path clip-path="url(#clip920)" d="M121.918 1062.82 L126.802 1062.82 L126.802 1068.7 L121.918 1068.7 L121.918 1062.82 Z" fill="#000000" fill-rule="nonzero" fill-opacity="1" /><path clip-path="url(#clip920)" d="M146.987 1052.29 Q143.654 1052.29 141.732 1054.07 Q139.834 1055.85 139.834 1058.98 Q139.834 1062.1 141.732 1063.88 Q143.654 1065.67 146.987 1065.67 Q150.32 1065.67 152.242 1063.88 Q154.163 1062.08 154.163 1058.98 Q154.163 1055.85 152.242 1054.07 Q150.343 1052.29 146.987 1052.29 M142.311 1050.3 Q139.302 1049.55 137.612 1047.49 Q135.945 1045.43 135.945 1042.47 Q135.945 1038.33 138.885 1035.92 Q141.848 1033.51 146.987 1033.51 Q152.149 1033.51 155.089 1035.92 Q158.029 1038.33 158.029 1042.47 Q158.029 1045.43 156.339 1047.49 Q154.672 1049.55 151.686 1050.3 Q155.066 1051.08 156.941 1053.37 Q158.839 1055.67 158.839 1058.98 Q158.839 1064 155.76 1066.68 Q152.705 1069.37 146.987 1069.37 Q141.269 1069.37 138.191 1066.68 Q135.135 1064 135.135 1058.98 Q135.135 1055.67 137.033 1053.37 Q138.931 1051.08 142.311 1050.3 M140.598 1042.91 Q140.598 1045.6 142.265 1047.1 Q143.955 1048.61 146.987 1048.61 Q149.996 1048.61 151.686 1047.1 Q153.399 1045.6 153.399 1042.91 Q153.399 1040.23 151.686 1038.72 Q149.996 1037.22 146.987 1037.22 Q143.955 1037.22 142.265 1038.72 Q140.598 1040.23 140.598 1042.91 Z" fill="#000000" fill-rule="nonzero" fill-opacity="1" /><path clip-path="url(#clip920)" d="M179.996 1038.21 L168.191 1056.66 L179.996 1056.66 L179.996 1038.21 M178.769 1034.14 L184.649 1034.14 L184.649 1056.66 L189.579 1056.66 L189.579 1060.55 L184.649 1060.55 L184.649 1068.7 L179.996 1068.7 L179.996 1060.55 L164.394 1060.55 L164.394 1056.04 L178.769 1034.14 Z" fill="#000000" fill-rule="nonzero" fill-opacity="1" /><path clip-path="url(#clip920)" d="M197.357 1034.14 L215.713 1034.14 L215.713 1038.07 L201.639 1038.07 L201.639 1046.55 Q202.658 1046.2 203.676 1046.04 Q204.695 1045.85 205.714 1045.85 Q211.501 1045.85 214.88 1049.02 Q218.26 1052.19 218.26 1057.61 Q218.26 1063.19 214.788 1066.29 Q211.315 1069.37 204.996 1069.37 Q202.82 1069.37 200.552 1069 Q198.306 1068.63 195.899 1067.89 L195.899 1063.19 Q197.982 1064.32 200.204 1064.88 Q202.426 1065.43 204.903 1065.43 Q208.908 1065.43 211.246 1063.33 Q213.584 1061.22 213.584 1057.61 Q213.584 1054 211.246 1051.89 Q208.908 1049.79 204.903 1049.79 Q203.028 1049.79 201.153 1050.2 Q199.302 1050.62 197.357 1051.5 L197.357 1034.14 Z" fill="#000000" fill-rule="nonzero" fill-opacity="1" /><path clip-path="url(#clip920)" d="M50.9921 771.44 L80.6679 771.44 L80.6679 775.376 L50.9921 775.376 L50.9921 771.44 Z" fill="#000000" fill-rule="nonzero" fill-opacity="1" /><path clip-path="url(#clip920)" d="M103.608 757.783 L91.8021 776.232 L103.608 776.232 L103.608 757.783 M102.381 753.709 L108.26 753.709 L108.26 776.232 L113.191 776.232 L113.191 780.121 L108.26 780.121 L108.26 788.269 L103.608 788.269 L103.608 780.121 L88.0058 780.121 L88.0058 775.607 L102.381 753.709 Z" fill="#000000" fill-rule="nonzero" fill-opacity="1" /><path clip-path="url(#clip920)" d="M120.922 782.389 L125.807 782.389 L125.807 788.269 L120.922 788.269 L120.922 782.389 Z" fill="#000000" fill-rule="nonzero" fill-opacity="1" /><path clip-path="url(#clip920)" d="M145.992 771.857 Q142.658 771.857 140.737 773.64 Q138.839 775.422 138.839 778.547 Q138.839 781.672 140.737 783.454 Q142.658 785.237 145.992 785.237 Q149.325 785.237 151.246 783.454 Q153.168 781.649 153.168 778.547 Q153.168 775.422 151.246 773.64 Q149.348 771.857 145.992 771.857 M141.316 769.866 Q138.306 769.126 136.617 767.065 Q134.95 765.005 134.95 762.042 Q134.95 757.899 137.89 755.491 Q140.853 753.084 145.992 753.084 Q151.154 753.084 154.093 755.491 Q157.033 757.899 157.033 762.042 Q157.033 765.005 155.343 767.065 Q153.677 769.126 150.691 769.866 Q154.07 770.653 155.945 772.945 Q157.843 775.237 157.843 778.547 Q157.843 783.57 154.765 786.255 Q151.709 788.94 145.992 788.94 Q140.274 788.94 137.195 786.255 Q134.14 783.57 134.14 778.547 Q134.14 775.237 136.038 772.945 Q137.936 770.653 141.316 769.866 M139.603 762.482 Q139.603 765.167 141.269 766.672 Q142.959 768.177 145.992 768.177 Q149.001 768.177 150.691 766.672 Q152.404 765.167 152.404 762.482 Q152.404 759.797 150.691 758.292 Q149.001 756.788 145.992 756.788 Q142.959 756.788 141.269 758.292 Q139.603 759.797 139.603 762.482 Z" fill="#000000" fill-rule="nonzero" fill-opacity="1" /><path clip-path="url(#clip920)" d="M179.001 757.783 L167.195 776.232 L179.001 776.232 L179.001 757.783 M177.774 753.709 L183.653 753.709 L183.653 776.232 L188.584 776.232 L188.584 780.121 L183.653 780.121 L183.653 788.269 L179.001 788.269 L179.001 780.121 L163.399 780.121 L163.399 775.607 L177.774 753.709 Z" fill="#000000" fill-rule="nonzero" fill-opacity="1" /><path clip-path="url(#clip920)" d="M206.315 756.788 Q202.704 756.788 200.876 760.353 Q199.07 763.894 199.07 771.024 Q199.07 778.13 200.876 781.695 Q202.704 785.237 206.315 785.237 Q209.95 785.237 211.755 781.695 Q213.584 778.13 213.584 771.024 Q213.584 763.894 211.755 760.353 Q209.95 756.788 206.315 756.788 M206.315 753.084 Q212.126 753.084 215.181 757.691 Q218.26 762.274 218.26 771.024 Q218.26 779.751 215.181 784.357 Q212.126 788.94 206.315 788.94 Q200.505 788.94 197.427 784.357 Q194.371 779.751 194.371 771.024 Q194.371 762.274 197.427 757.691 Q200.505 753.084 206.315 753.084 Z" fill="#000000" fill-rule="nonzero" fill-opacity="1" /><path clip-path="url(#clip920)" d="M51.9875 491.012 L81.6633 491.012 L81.6633 494.947 L51.9875 494.947 L51.9875 491.012 Z" fill="#000000" fill-rule="nonzero" fill-opacity="1" /><path clip-path="url(#clip920)" d="M104.603 477.354 L92.7975 495.803 L104.603 495.803 L104.603 477.354 M103.376 473.28 L109.256 473.28 L109.256 495.803 L114.186 495.803 L114.186 499.692 L109.256 499.692 L109.256 507.84 L104.603 507.84 L104.603 499.692 L89.0012 499.692 L89.0012 495.178 L103.376 473.28 Z" fill="#000000" fill-rule="nonzero" fill-opacity="1" /><path clip-path="url(#clip920)" d="M121.918 501.961 L126.802 501.961 L126.802 507.84 L121.918 507.84 L121.918 501.961 Z" fill="#000000" fill-rule="nonzero" fill-opacity="1" /><path clip-path="url(#clip920)" d="M146.987 491.428 Q143.654 491.428 141.732 493.211 Q139.834 494.993 139.834 498.118 Q139.834 501.243 141.732 503.025 Q143.654 504.808 146.987 504.808 Q150.32 504.808 152.242 503.025 Q154.163 501.22 154.163 498.118 Q154.163 494.993 152.242 493.211 Q150.343 491.428 146.987 491.428 M142.311 489.438 Q139.302 488.697 137.612 486.637 Q135.945 484.576 135.945 481.613 Q135.945 477.47 138.885 475.063 Q141.848 472.655 146.987 472.655 Q152.149 472.655 155.089 475.063 Q158.029 477.47 158.029 481.613 Q158.029 484.576 156.339 486.637 Q154.672 488.697 151.686 489.438 Q155.066 490.225 156.941 492.516 Q158.839 494.808 158.839 498.118 Q158.839 503.141 155.76 505.826 Q152.705 508.511 146.987 508.511 Q141.269 508.511 138.191 505.826 Q135.135 503.141 135.135 498.118 Q135.135 494.808 137.033 492.516 Q138.931 490.225 142.311 489.438 M140.598 482.053 Q140.598 484.738 142.265 486.243 Q143.955 487.748 146.987 487.748 Q149.996 487.748 151.686 486.243 Q153.399 484.738 153.399 482.053 Q153.399 479.368 151.686 477.864 Q149.996 476.359 146.987 476.359 Q143.955 476.359 142.265 477.864 Q140.598 479.368 140.598 482.053 Z" fill="#000000" fill-rule="nonzero" fill-opacity="1" /><path clip-path="url(#clip920)" d="M181.316 489.206 Q184.672 489.924 186.547 492.192 Q188.445 494.461 188.445 497.794 Q188.445 502.91 184.927 505.711 Q181.408 508.511 174.927 508.511 Q172.751 508.511 170.436 508.072 Q168.144 507.655 165.691 506.799 L165.691 502.285 Q167.635 503.419 169.95 503.998 Q172.265 504.576 174.788 504.576 Q179.186 504.576 181.478 502.84 Q183.792 501.104 183.792 497.794 Q183.792 494.738 181.64 493.025 Q179.51 491.289 175.691 491.289 L171.663 491.289 L171.663 487.447 L175.876 487.447 Q179.325 487.447 181.153 486.081 Q182.982 484.692 182.982 482.1 Q182.982 479.438 181.084 478.026 Q179.209 476.59 175.691 476.59 Q173.769 476.59 171.57 477.007 Q169.371 477.424 166.732 478.303 L166.732 474.137 Q169.394 473.396 171.709 473.026 Q174.047 472.655 176.107 472.655 Q181.431 472.655 184.533 475.086 Q187.635 477.493 187.635 481.613 Q187.635 484.484 185.991 486.475 Q184.348 488.442 181.316 489.206 Z" fill="#000000" fill-rule="nonzero" fill-opacity="1" /><path clip-path="url(#clip920)" d="M197.357 473.28 L215.713 473.28 L215.713 477.215 L201.639 477.215 L201.639 485.688 Q202.658 485.34 203.676 485.178 Q204.695 484.993 205.714 484.993 Q211.501 484.993 214.88 488.164 Q218.26 491.336 218.26 496.752 Q218.26 502.331 214.788 505.433 Q211.315 508.511 204.996 508.511 Q202.82 508.511 200.552 508.141 Q198.306 507.771 195.899 507.03 L195.899 502.331 Q197.982 503.465 200.204 504.021 Q202.426 504.576 204.903 504.576 Q208.908 504.576 211.246 502.47 Q213.584 500.363 213.584 496.752 Q213.584 493.141 211.246 491.035 Q208.908 488.928 204.903 488.928 Q203.028 488.928 201.153 489.345 Q199.302 489.762 197.357 490.641 L197.357 473.28 Z" fill="#000000" fill-rule="nonzero" fill-opacity="1" /><path clip-path="url(#clip920)" d="M50.9921 210.583 L80.6679 210.583 L80.6679 214.518 L50.9921 214.518 L50.9921 210.583 Z" fill="#000000" fill-rule="nonzero" fill-opacity="1" /><path clip-path="url(#clip920)" d="M103.608 196.925 L91.8021 215.374 L103.608 215.374 L103.608 196.925 M102.381 192.851 L108.26 192.851 L108.26 215.374 L113.191 215.374 L113.191 219.263 L108.26 219.263 L108.26 227.411 L103.608 227.411 L103.608 219.263 L88.0058 219.263 L88.0058 214.749 L102.381 192.851 Z" fill="#000000" fill-rule="nonzero" fill-opacity="1" /><path clip-path="url(#clip920)" d="M120.922 221.532 L125.807 221.532 L125.807 227.411 L120.922 227.411 L120.922 221.532 Z" fill="#000000" fill-rule="nonzero" fill-opacity="1" /><path clip-path="url(#clip920)" d="M145.992 210.999 Q142.658 210.999 140.737 212.782 Q138.839 214.564 138.839 217.689 Q138.839 220.814 140.737 222.597 Q142.658 224.379 145.992 224.379 Q149.325 224.379 151.246 222.597 Q153.168 220.791 153.168 217.689 Q153.168 214.564 151.246 212.782 Q149.348 210.999 145.992 210.999 M141.316 209.009 Q138.306 208.268 136.617 206.208 Q134.95 204.148 134.95 201.185 Q134.95 197.041 137.89 194.634 Q140.853 192.226 145.992 192.226 Q151.154 192.226 154.093 194.634 Q157.033 197.041 157.033 201.185 Q157.033 204.148 155.343 206.208 Q153.677 208.268 150.691 209.009 Q154.07 209.796 155.945 212.087 Q157.843 214.379 157.843 217.689 Q157.843 222.712 154.765 225.397 Q151.709 228.083 145.992 228.083 Q140.274 228.083 137.195 225.397 Q134.14 222.712 134.14 217.689 Q134.14 214.379 136.038 212.087 Q137.936 209.796 141.316 209.009 M139.603 201.624 Q139.603 204.31 141.269 205.814 Q142.959 207.319 145.992 207.319 Q149.001 207.319 150.691 205.814 Q152.404 204.31 152.404 201.624 Q152.404 198.939 150.691 197.435 Q149.001 195.93 145.992 195.93 Q142.959 195.93 141.269 197.435 Q139.603 198.939 139.603 201.624 Z" fill="#000000" fill-rule="nonzero" fill-opacity="1" /><path clip-path="url(#clip920)" d="M180.32 208.777 Q183.677 209.495 185.552 211.763 Q187.45 214.032 187.45 217.365 Q187.45 222.481 183.931 225.282 Q180.413 228.083 173.931 228.083 Q171.755 228.083 169.441 227.643 Q167.149 227.226 164.695 226.37 L164.695 221.856 Q166.64 222.99 168.954 223.569 Q171.269 224.147 173.792 224.147 Q178.191 224.147 180.482 222.411 Q182.797 220.675 182.797 217.365 Q182.797 214.31 180.644 212.597 Q178.515 210.86 174.695 210.86 L170.667 210.86 L170.667 207.018 L174.88 207.018 Q178.329 207.018 180.158 205.652 Q181.987 204.263 181.987 201.671 Q181.987 199.009 180.089 197.597 Q178.214 196.162 174.695 196.162 Q172.774 196.162 170.575 196.578 Q168.376 196.995 165.737 197.874 L165.737 193.708 Q168.399 192.967 170.714 192.597 Q173.052 192.226 175.112 192.226 Q180.436 192.226 183.538 194.657 Q186.64 197.064 186.64 201.185 Q186.64 204.055 184.996 206.046 Q183.353 208.013 180.32 208.777 Z" fill="#000000" fill-rule="nonzero" fill-opacity="1" /><path clip-path="url(#clip920)" d="M206.315 195.93 Q202.704 195.93 200.876 199.495 Q199.07 203.036 199.07 210.166 Q199.07 217.272 200.876 220.837 Q202.704 224.379 206.315 224.379 Q209.95 224.379 211.755 220.837 Q213.584 217.272 213.584 210.166 Q213.584 203.036 211.755 199.495 Q209.95 195.93 206.315 195.93 M206.315 192.226 Q212.126 192.226 215.181 196.833 Q218.26 201.416 218.26 210.166 Q218.26 218.893 215.181 223.499 Q212.126 228.083 206.315 228.083 Q200.505 228.083 197.427 223.499 Q194.371 218.893 194.371 210.166 Q194.371 201.416 197.427 196.833 Q200.505 192.226 206.315 192.226 Z" fill="#000000" fill-rule="nonzero" fill-opacity="1" /><polyline clip-path="url(#clip922)" style="stroke:#009af9; stroke-linecap:round; stroke-linejoin:round; stroke-width:4; stroke-opacity:1; fill:none" points="313.651,87.9763 314.641,109.365 315.631,130.414 316.621,151.127 317.611,171.511 318.6,191.57 319.59,211.31 320.58,230.736 321.57,249.853 322.56,268.666 323.55,287.179 324.54,305.397 325.529,323.326 326.519,340.97 327.509,358.332 328.499,375.419 329.489,392.234 330.479,408.781 331.469,425.065 332.458,441.09 333.448,456.861 334.438,472.381 335.428,487.653 336.418,502.684 337.408,517.475 338.398,532.031 339.387,546.356 340.377,560.453 341.367,574.327 342.357,587.98 343.347,601.416 344.337,614.639 345.327,627.652 346.316,640.458 347.306,653.061 348.296,665.464 349.286,677.67 350.276,689.683 351.266,701.505 352.256,713.139 353.245,724.589 354.235,735.858 355.225,746.948 356.215,757.862 357.205,768.603 358.195,779.174 359.185,789.577 360.174,799.816 361.164,809.893 362.154,819.81 363.144,829.57 364.134,839.175 365.124,848.629 366.114,857.933 367.103,867.09 368.093,876.102 369.083,884.971 370.073,893.701 371.063,902.292 372.053,910.748 373.043,919.07 374.032,927.261 375.022,935.322 376.012,943.256 377.002,951.065 377.992,958.75 378.982,966.315 379.972,973.76 380.961,981.087 381.951,988.299 382.941,995.398 383.931,1002.38 384.921,1009.26 385.911,1016.03 386.901,1022.69 387.89,1029.25 388.88,1035.7 389.87,1042.05 390.86,1048.3 391.85,1054.46 392.84,1060.51 393.83,1066.47 394.819,1072.34 395.809,1078.12 396.799,1083.8 397.789,1089.4 398.779,1094.91 399.769,1100.33 400.759,1105.66 401.748,1110.91 402.738,1116.08 403.728,1121.17 404.718,1126.18 405.708,1131.11 406.698,1135.97 407.688,1140.74 408.677,1145.44 409.667,1150.07 410.657,1154.63 411.647,1159.11 412.637,1163.53 413.627,1167.87 414.617,1172.15 415.606,1176.36 416.596,1180.5 417.586,1184.58 418.576,1188.6 419.566,1192.55 420.556,1196.44 421.546,1200.28 422.535,1204.05 423.525,1207.76 424.515,1211.41 425.505,1215.01 426.495,1218.55 427.485,1222.03 428.475,1225.47 429.464,1228.84 430.454,1232.17 431.444,1235.44 432.434,1238.66 433.424,1241.84 434.414,1244.96 435.404,1248.03 436.393,1251.06 437.383,1254.04 438.373,1256.97 439.363,1259.86 440.353,1262.7 441.343,1265.5 442.333,1268.25 443.322,1270.96 444.312,1273.63 445.302,1276.26 446.292,1278.85 447.282,1281.4 448.272,1283.9 449.262,1286.37 450.251,1288.8 451.241,1291.2 452.231,1293.55 453.221,1295.87 454.211,1298.15 455.201,1300.4 456.191,1302.62 457.18,1304.79 458.17,1306.94 459.16,1309.05 460.15,1311.13 461.14,1313.18 462.13,1315.19 463.12,1317.18 464.109,1319.13 465.099,1321.05 466.089,1322.95 467.079,1324.81 468.069,1326.65 469.059,1328.45 470.049,1330.23 471.038,1331.98 472.028,1333.71 473.018,1335.41 474.008,1337.08 474.998,1338.73 475.988,1340.35 476.978,1341.94 477.967,1343.51 478.957,1345.06 479.947,1346.58 480.937,1348.08 481.927,1349.56 482.917,1351.01 483.906,1352.45 484.896,1353.86 485.886,1355.24 486.876,1356.61 487.866,1357.96 488.856,1359.28 489.846,1360.59 490.835,1361.87 491.825,1363.13 492.815,1364.38 493.805,1365.61 494.795,1366.81 495.785,1368 496.775,1369.17 497.764,1370.33 498.754,1371.46 499.744,1372.58 500.734,1373.68 501.724,1374.76 502.714,1375.83 503.704,1376.88 504.693,1377.92 505.683,1378.93 506.673,1379.94 507.663,1380.93 508.653,1381.9 509.643,1382.86 510.633,1383.8 511.622,1384.73 512.612,1385.64 513.602,1386.54 514.592,1387.43 515.582,1388.3 516.572,1389.16 517.562,1390.01 518.551,1390.85 519.541,1391.67 520.531,1392.48 521.521,1393.27 522.511,1394.06 523.501,1394.83 524.491,1395.59 525.48,1396.34 526.47,1397.08 527.46,1397.8 528.45,1398.52 529.44,1399.22 530.43,1399.92 531.42,1400.6 532.409,1401.27 533.399,1401.93 534.389,1402.59 535.379,1403.23 536.369,1403.86 537.359,1404.49 538.349,1405.1 539.338,1405.7 540.328,1406.3 541.318,1406.88 542.308,1407.46 543.298,1408.03 544.288,1408.59 545.278,1409.14 546.267,1409.69 547.257,1410.22 548.247,1410.75 549.237,1411.27 550.227,1411.78 551.217,1412.28 552.207,1412.78 553.196,1413.26 554.186,1413.74 555.176,1414.22 556.166,1414.68 557.156,1415.14 558.146,1415.6 559.136,1416.04 560.125,1416.48 561.115,1416.91 562.105,1417.34 563.095,1417.76 564.085,1418.17 565.075,1418.58 566.065,1418.98 567.054,1419.37 568.044,1419.76 569.034,1420.14 570.024,1420.52 571.014,1420.89 572.004,1421.26 572.994,1421.62 573.983,1421.97 574.973,1422.32 575.963,1422.67 576.953,1423 577.943,1423.34 578.933,1423.67 579.923,1423.99 580.912,1424.31 581.902,1424.63 582.892,1424.93 583.882,1425.24 584.872,1425.54 585.862,1425.84 586.852,1426.13 587.841,1426.41 588.831,1426.7 589.821,1426.98 590.811,1427.25 591.801,1427.52 592.791,1427.79 593.781,1428.05 594.77,1428.31 595.76,1428.56 596.75,1428.81 597.74,1429.06 598.73,1429.3 599.72,1429.54 600.71,1429.78 601.699,1430.01 602.689,1430.24 603.679,1430.46 604.669,1430.69 605.659,1430.91 606.649,1431.12 607.639,1431.33 608.628,1431.54 609.618,1431.75 610.608,1431.95 611.598,1432.15 612.588,1432.35 613.578,1432.54 614.568,1432.73 615.557,1432.92 616.547,1433.11 617.537,1433.29 618.527,1433.47 619.517,1433.65 620.507,1433.82 621.497,1433.99 622.486,1434.16 623.476,1434.33 624.466,1434.5 625.456,1434.66 626.446,1434.82 627.436,1434.98 628.426,1435.13 629.415,1435.28 630.405,1435.43 631.395,1435.58 632.385,1435.73 633.375,1435.87 634.365,1436.01 635.355,1436.15 636.344,1436.29 637.334,1436.43 638.324,1436.56 639.314,1436.69 640.304,1436.82 641.294,1436.95 642.284,1437.08 643.273,1437.2 644.263,1437.32 645.253,1437.44 646.243,1437.56 647.233,1437.68 648.223,1437.79 649.213,1437.91 650.202,1438.02 651.192,1438.13 652.182,1438.24 653.172,1438.34 654.162,1438.45 655.152,1438.55 656.142,1438.66 657.131,1438.76 658.121,1438.86 659.111,1438.95 660.101,1439.05 661.091,1439.14 662.081,1439.24 663.071,1439.33 664.06,1439.42 665.05,1439.51 666.04,1439.6 667.03,1439.69 668.02,1439.77 669.01,1439.86 670,1439.94 670.989,1440.02 671.979,1440.1 672.969,1440.18 673.959,1440.26 674.949,1440.34 675.939,1440.41 676.929,1440.49 677.918,1440.56 678.908,1440.63 679.898,1440.71 680.888,1440.78 681.878,1440.85 682.868,1440.92 683.858,1440.98 684.847,1441.05 685.837,1441.12 686.827,1441.18 687.817,1441.24 688.807,1441.31 689.797,1441.37 690.787,1441.43 691.776,1441.49 692.766,1441.55 693.756,1441.61 694.746,1441.67 695.736,1441.72 696.726,1441.78 697.716,1441.83 698.705,1441.89 699.695,1441.94 700.685,1441.99 701.675,1442.05 702.665,1442.1 703.655,1442.15 704.645,1442.2 705.634,1442.25 706.624,1442.3 707.614,1442.34 708.604,1442.39 709.594,1442.44 710.584,1442.48 711.574,1442.53 712.563,1442.57 713.553,1442.62 714.543,1442.66 715.533,1442.7 716.523,1442.74 717.513,1442.78 718.503,1442.82 719.492,1442.86 720.482,1442.9 721.472,1442.94 722.462,1442.98 723.452,1443.02 724.442,1443.06 725.432,1443.09 726.421,1443.13 727.411,1443.17 728.401,1443.2 729.391,1443.24 730.381,1443.27 731.371,1443.3 732.361,1443.34 733.35,1443.37 734.34,1443.4 735.33,1443.43 736.32,1443.46 737.31,1443.5 738.3,1443.53 739.29,1443.56 740.279,1443.59 741.269,1443.61 742.259,1443.64 743.249,1443.67 744.239,1443.7 745.229,1443.73 746.219,1443.75 747.208,1443.78 748.198,1443.81 749.188,1443.83 750.178,1443.86 751.168,1443.88 752.158,1443.91 753.148,1443.93 754.137,1443.96 755.127,1443.98 756.117,1444.01 757.107,1444.03 758.097,1444.05 759.087,1444.07 760.077,1444.1 761.066,1444.12 762.056,1444.14 763.046,1444.16 764.036,1444.18 765.026,1444.2 766.016,1444.22 767.006,1444.24 767.995,1444.26 768.985,1444.28 769.975,1444.3 770.965,1444.32 771.955,1444.34 772.945,1444.36 773.935,1444.38 774.924,1444.4 775.914,1444.41 776.904,1444.43 777.894,1444.45 778.884,1444.46 779.874,1444.48 780.864,1444.5 781.853,1444.51 782.843,1444.53 783.833,1444.55 784.823,1444.56 785.813,1444.58 786.803,1444.59 787.792,1444.61 788.782,1444.62 789.772,1444.64 790.762,1444.65 791.752,1444.67 792.742,1444.68 793.732,1444.69 794.721,1444.71 795.711,1444.72 796.701,1444.73 797.691,1444.75 798.681,1444.76 799.671,1444.77 800.661,1444.78 801.65,1444.8 802.64,1444.81 803.63,1444.82 804.62,1444.83 805.61,1444.84 806.6,1444.86 807.59,1444.87 808.579,1444.88 809.569,1444.89 810.559,1444.9 811.549,1444.91 812.539,1444.92 813.529,1444.93 814.519,1444.94 815.508,1444.95 816.498,1444.96 817.488,1444.97 818.478,1444.98 819.468,1444.99 820.458,1445 821.448,1445.01 822.437,1445.02 823.427,1445.03 824.417,1445.04 825.407,1445.05 826.397,1445.05 827.387,1445.06 828.377,1445.07 829.366,1445.08 830.356,1445.09 831.346,1445.1 832.336,1445.1 833.326,1445.11 834.316,1445.12 835.306,1445.13 836.295,1445.14 837.285,1445.14 838.275,1445.15 839.265,1445.16 840.255,1445.16 841.245,1445.17 842.235,1445.18 843.224,1445.19 844.214,1445.19 845.204,1445.2 846.194,1445.21 847.184,1445.21 848.174,1445.22 849.164,1445.23 850.153,1445.23 851.143,1445.24 852.133,1445.24 853.123,1445.25 854.113,1445.26 855.103,1445.26 856.093,1445.27 857.082,1445.27 858.072,1445.28 859.062,1445.28 860.052,1445.29 861.042,1445.3 862.032,1445.3 863.022,1445.31 864.011,1445.31 865.001,1445.32 865.991,1445.32 866.981,1445.33 867.971,1445.33 868.961,1445.34 869.951,1445.34 870.94,1445.35 871.93,1445.35 872.92,1445.35 873.91,1445.36 874.9,1445.36 875.89,1445.37 876.88,1445.37 877.869,1445.38 878.859,1445.38 879.849,1445.39 880.839,1445.39 881.829,1445.39 882.819,1445.4 883.809,1445.4 884.798,1445.41 885.788,1445.41 886.778,1445.41 887.768,1445.42 888.758,1445.42 889.748,1445.42 890.738,1445.43 891.727,1445.43 892.717,1445.43 893.707,1445.44 894.697,1445.44 895.687,1445.45 896.677,1445.45 897.667,1445.45 898.656,1445.46 899.646,1445.46 900.636,1445.46 901.626,1445.46 902.616,1445.47 903.606,1445.47 904.596,1445.47 905.585,1445.48 906.575,1445.48 907.565,1445.48 908.555,1445.49 909.545,1445.49 910.535,1445.49 911.525,1445.49 912.514,1445.5 913.504,1445.5 914.494,1445.5 915.484,1445.5 916.474,1445.51 917.464,1445.51 918.454,1445.51 919.443,1445.51 920.433,1445.52 921.423,1445.52 922.413,1445.52 923.403,1445.52 924.393,1445.53 925.383,1445.53 926.372,1445.53 927.362,1445.53 928.352,1445.54 929.342,1445.54 930.332,1445.54 931.322,1445.54 932.312,1445.54 933.301,1445.55 934.291,1445.55 935.281,1445.55 936.271,1445.55 937.261,1445.55 938.251,1445.56 939.241,1445.56 940.23,1445.56 941.22,1445.56 942.21,1445.56 943.2,1445.57 944.19,1445.57 945.18,1445.57 946.17,1445.57 947.159,1445.57 948.149,1445.57 949.139,1445.58 950.129,1445.58 951.119,1445.58 952.109,1445.58 953.099,1445.58 954.088,1445.58 955.078,1445.59 956.068,1445.59 957.058,1445.59 958.048,1445.59 959.038,1445.59 960.028,1445.59 961.017,1445.59 962.007,1445.6 962.997,1445.6 963.987,1445.6 964.977,1445.6 965.967,1445.6 966.957,1445.6 967.946,1445.6 968.936,1445.61 969.926,1445.61 970.916,1445.61 971.906,1445.61 972.896,1445.61 973.886,1445.61 974.875,1445.61 975.865,1445.61 976.855,1445.62 977.845,1445.62 978.835,1445.62 979.825,1445.62 980.815,1445.62 981.804,1445.62 982.794,1445.62 983.784,1445.62 984.774,1445.62 985.764,1445.63 986.754,1445.63 987.744,1445.63 988.733,1445.63 989.723,1445.63 990.713,1445.63 991.703,1445.63 992.693,1445.63 993.683,1445.63 994.673,1445.63 995.662,1445.64 996.652,1445.64 997.642,1445.64 998.632,1445.64 999.622,1445.64 1000.61,1445.64 1001.6,1445.64 1002.59,1445.64 1003.58,1445.64 1004.57,1445.64 1005.56,1445.64 1006.55,1445.64 1007.54,1445.65 1008.53,1445.65 1009.52,1445.65 1010.51,1445.65 1011.5,1445.65 1012.49,1445.65 1013.48,1445.65 1014.47,1445.65 1015.46,1445.65 1016.45,1445.65 1017.44,1445.65 1018.43,1445.65 1019.42,1445.65 1020.41,1445.66 1021.4,1445.66 1022.39,1445.66 1023.38,1445.66 1024.37,1445.66 1025.36,1445.66 1026.35,1445.66 1027.34,1445.66 1028.33,1445.66 1029.32,1445.66 1030.31,1445.66 1031.3,1445.66 1032.29,1445.66 1033.28,1445.66 1034.27,1445.66 1035.26,1445.66 1036.25,1445.67 1037.24,1445.67 1038.23,1445.67 1039.22,1445.67 1040.21,1445.67 1041.2,1445.67 1042.19,1445.67 1043.18,1445.67 1044.17,1445.67 1045.16,1445.67 1046.15,1445.67 1047.13,1445.67 1048.12,1445.67 1049.11,1445.67 1050.1,1445.67 1051.09,1445.67 1052.08,1445.67 1053.07,1445.67 1054.06,1445.67 1055.05,1445.67 1056.04,1445.68 1057.03,1445.68 1058.02,1445.68 1059.01,1445.68 1060,1445.68 1060.99,1445.68 1061.98,1445.68 1062.97,1445.68 1063.96,1445.68 1064.95,1445.68 1065.94,1445.68 1066.93,1445.68 1067.92,1445.68 1068.91,1445.68 1069.9,1445.68 1070.89,1445.68 1071.88,1445.68 1072.87,1445.68 1073.86,1445.68 1074.85,1445.68 1075.84,1445.68 1076.83,1445.68 1077.82,1445.68 1078.81,1445.68 1079.8,1445.68 1080.79,1445.69 1081.78,1445.69 1082.77,1445.69 1083.76,1445.69 1084.75,1445.69 1085.74,1445.69 1086.73,1445.69 1087.72,1445.69 1088.71,1445.69 1089.7,1445.69 1090.69,1445.69 1091.68,1445.69 1092.67,1445.69 1093.66,1445.69 1094.65,1445.69 1095.64,1445.69 1096.63,1445.69 1097.62,1445.69 1098.61,1445.69 1099.6,1445.69 1100.59,1445.69 1101.58,1445.69 1102.57,1445.69 1103.56,1445.69 1104.55,1445.69 1105.54,1445.69 1106.53,1445.69 1107.52,1445.69 1108.51,1445.69 1109.5,1445.69 1110.49,1445.69 1111.48,1445.69 1112.47,1445.69 1113.46,1445.69 1114.45,1445.69 1115.44,1445.69 1116.42,1445.69 1117.41,1445.7 1118.4,1445.7 1119.39,1445.7 1120.38,1445.7 1121.37,1445.7 1122.36,1445.7 1123.35,1445.7 1124.34,1445.7 1125.33,1445.7 1126.32,1445.7 1127.31,1445.7 1128.3,1445.7 1129.29,1445.7 1130.28,1445.7 1131.27,1445.7 1132.26,1445.7 1133.25,1445.7 1134.24,1445.7 1135.23,1445.7 1136.22,1445.7 1137.21,1445.7 1138.2,1445.7 1139.19,1445.7 1140.18,1445.7 1141.17,1445.7 1142.16,1445.7 1143.15,1445.7 1144.14,1445.7 1145.13,1445.7 1146.12,1445.7 1147.11,1445.7 1148.1,1445.7 1149.09,1445.7 1150.08,1445.7 1151.07,1445.7 1152.06,1445.7 1153.05,1445.7 1154.04,1445.7 1155.03,1445.7 1156.02,1445.7 1157.01,1445.7 1158,1445.7 1158.99,1445.7 1159.98,1445.7 1160.97,1445.7 1161.96,1445.7 1162.95,1445.7 1163.94,1445.7 1164.93,1445.7 1165.92,1445.7 1166.91,1445.7 1167.9,1445.7 1168.89,1445.7 1169.88,1445.7 1170.87,1445.7 1171.86,1445.7 1172.85,1445.7 1173.84,1445.7 1174.83,1445.7 1175.82,1445.7 1176.81,1445.7 1177.8,1445.7 1178.79,1445.71 1179.78,1445.71 1180.77,1445.71 1181.76,1445.71 1182.75,1445.71 1183.74,1445.71 1184.73,1445.71 1185.71,1445.71 1186.7,1445.71 1187.69,1445.71 1188.68,1445.71 1189.67,1445.71 1190.66,1445.71 1191.65,1445.71 1192.64,1445.71 1193.63,1445.71 1194.62,1445.71 1195.61,1445.71 1196.6,1445.71 1197.59,1445.71 1198.58,1445.71 1199.57,1445.71 1200.56,1445.71 1201.55,1445.71 1202.54,1445.71 1203.53,1445.71 1204.52,1445.71 1205.51,1445.71 1206.5,1445.71 1207.49,1445.71 1208.48,1445.71 1209.47,1445.71 1210.46,1445.71 1211.45,1445.71 1212.44,1445.71 1213.43,1445.71 1214.42,1445.71 1215.41,1445.71 1216.4,1445.71 1217.39,1445.71 1218.38,1445.71 1219.37,1445.71 1220.36,1445.71 1221.35,1445.71 1222.34,1445.71 1223.33,1445.71 1224.32,1445.71 1225.31,1445.71 1226.3,1445.71 1227.29,1445.71 1228.28,1445.71 1229.27,1445.71 1230.26,1445.71 1231.25,1445.71 1232.24,1445.71 1233.23,1445.71 1234.22,1445.71 1235.21,1445.71 1236.2,1445.71 1237.19,1445.71 1238.18,1445.71 1239.17,1445.71 1240.16,1445.71 1241.15,1445.71 1242.14,1445.71 1243.13,1445.71 1244.12,1445.71 1245.11,1445.71 1246.1,1445.71 1247.09,1445.71 1248.08,1445.71 1249.07,1445.71 1250.06,1445.71 1251.05,1445.71 1252.04,1445.71 1253.03,1445.71 1254.01,1445.71 1255,1445.71 1255.99,1445.71 1256.98,1445.71 1257.97,1445.71 1258.96,1445.71 1259.95,1445.71 1260.94,1445.71 1261.93,1445.71 1262.92,1445.71 1263.91,1445.71 1264.9,1445.71 1265.89,1445.71 1266.88,1445.71 1267.87,1445.71 1268.86,1445.71 1269.85,1445.71 1270.84,1445.71 1271.83,1445.71 1272.82,1445.71 1273.81,1445.71 1274.8,1445.71 1275.79,1445.71 1276.78,1445.71 1277.77,1445.71 1278.76,1445.71 1279.75,1445.71 1280.74,1445.71 1281.73,1445.71 1282.72,1445.71 1283.71,1445.71 1284.7,1445.71 1285.69,1445.71 1286.68,1445.71 1287.67,1445.71 1288.66,1445.71 1289.65,1445.71 1290.64,1445.71 1291.63,1445.71 1292.62,1445.71 1293.61,1445.71 1294.6,1445.71 1295.59,1445.71 1296.58,1445.71 1297.57,1445.71 1298.56,1445.71 1299.55,1445.71 1300.54,1445.71 1301.53,1445.71 1302.52,1445.71 1303.51,1445.71 1304.5,1445.71 1305.49,1445.71 1306.48,1445.71 1307.47,1445.71 1308.46,1445.71 1309.45,1445.71 1310.44,1445.71 1311.43,1445.71 1312.42,1445.71 1313.41,1445.71 1314.4,1445.71 1315.39,1445.71 1316.38,1445.71 1317.37,1445.71 1318.36,1445.71 1319.35,1445.71 1320.34,1445.71 1321.33,1445.71 1322.32,1445.71 1323.3,1445.71 1324.29,1445.71 1325.28,1445.71 1326.27,1445.71 1327.26,1445.71 1328.25,1445.71 1329.24,1445.71 1330.23,1445.71 1331.22,1445.71 1332.21,1445.71 1333.2,1445.71 1334.19,1445.71 1335.18,1445.71 1336.17,1445.71 1337.16,1445.71 1338.15,1445.71 1339.14,1445.71 1340.13,1445.71 1341.12,1445.71 1342.11,1445.71 1343.1,1445.71 1344.09,1445.71 1345.08,1445.71 1346.07,1445.71 1347.06,1445.71 1348.05,1445.71 1349.04,1445.71 1350.03,1445.71 1351.02,1445.71 1352.01,1445.71 1353,1445.71 1353.99,1445.71 1354.98,1445.71 1355.97,1445.71 1356.96,1445.71 1357.95,1445.71 1358.94,1445.71 1359.93,1445.71 1360.92,1445.71 1361.91,1445.71 1362.9,1445.71 1363.89,1445.71 1364.88,1445.71 1365.87,1445.71 1366.86,1445.71 1367.85,1445.71 1368.84,1445.71 1369.83,1445.71 1370.82,1445.71 1371.81,1445.71 1372.8,1445.71 1373.79,1445.71 1374.78,1445.71 1375.77,1445.71 1376.76,1445.71 1377.75,1445.71 1378.74,1445.71 1379.73,1445.71 1380.72,1445.71 1381.71,1445.71 1382.7,1445.71 1383.69,1445.71 1384.68,1445.71 1385.67,1445.71 1386.66,1445.71 1387.65,1445.71 1388.64,1445.71 1389.63,1445.71 1390.62,1445.71 1391.61,1445.71 1392.59,1445.71 1393.58,1445.71 1394.57,1445.71 1395.56,1445.71 1396.55,1445.71 1397.54,1445.71 1398.53,1445.71 1399.52,1445.71 1400.51,1445.71 1401.5,1445.71 1402.49,1445.71 1403.48,1445.71 1404.47,1445.71 1405.46,1445.71 1406.45,1445.71 1407.44,1445.71 1408.43,1445.71 1409.42,1445.71 1410.41,1445.71 1411.4,1445.71 1412.39,1445.71 1413.38,1445.71 1414.37,1445.71 1415.36,1445.71 1416.35,1445.71 1417.34,1445.71 1418.33,1445.71 1419.32,1445.71 1420.31,1445.71 1421.3,1445.71 1422.29,1445.71 1423.28,1445.71 1424.27,1445.71 1425.26,1445.71 1426.25,1445.71 1427.24,1445.71 1428.23,1445.71 1429.22,1445.71 1430.21,1445.71 1431.2,1445.71 1432.19,1445.71 1433.18,1445.71 1434.17,1445.71 1435.16,1445.71 1436.15,1445.71 1437.14,1445.71 1438.13,1445.71 1439.12,1445.71 1440.11,1445.71 1441.1,1445.71 1442.09,1445.71 1443.08,1445.71 1444.07,1445.71 1445.06,1445.71 1446.05,1445.71 1447.04,1445.71 1448.03,1445.71 1449.02,1445.71 1450.01,1445.71 1451,1445.72 1451.99,1445.72 1452.98,1445.72 1453.97,1445.72 1454.96,1445.72 1455.95,1445.72 1456.94,1445.72 1457.93,1445.72 1458.92,1445.72 1459.91,1445.72 1460.9,1445.72 1461.88,1445.72 1462.87,1445.72 1463.86,1445.72 1464.85,1445.72 1465.84,1445.72 1466.83,1445.72 1467.82,1445.72 1468.81,1445.72 1469.8,1445.72 1470.79,1445.72 1471.78,1445.72 1472.77,1445.72 1473.76,1445.72 1474.75,1445.72 1475.74,1445.72 1476.73,1445.72 1477.72,1445.72 1478.71,1445.72 1479.7,1445.72 1480.69,1445.72 1481.68,1445.72 1482.67,1445.72 1483.66,1445.72 1484.65,1445.72 1485.64,1445.72 1486.63,1445.72 1487.62,1445.72 1488.61,1445.72 1489.6,1445.72 1490.59,1445.72 1491.58,1445.72 1492.57,1445.72 1493.56,1445.72 1494.55,1445.72 1495.54,1445.72 1496.53,1445.72 1497.52,1445.72 1498.51,1445.72 1499.5,1445.72 1500.49,1445.72 1501.48,1445.72 1502.47,1445.72 1503.46,1445.72 1504.45,1445.72 1505.44,1445.72 1506.43,1445.72 1507.42,1445.72 1508.41,1445.72 1509.4,1445.72 1510.39,1445.72 1511.38,1445.72 1512.37,1445.72 1513.36,1445.72 1514.35,1445.72 1515.34,1445.72 1516.33,1445.72 1517.32,1445.72 1518.31,1445.72 1519.3,1445.72 1520.29,1445.72 1521.28,1445.72 1522.27,1445.72 1523.26,1445.72 1524.25,1445.72 1525.24,1445.72 1526.23,1445.72 1527.22,1445.72 1528.21,1445.72 1529.2,1445.72 1530.19,1445.72 1531.17,1445.72 1532.16,1445.72 1533.15,1445.72 1534.14,1445.72 1535.13,1445.72 1536.12,1445.72 1537.11,1445.72 1538.1,1445.72 1539.09,1445.72 1540.08,1445.72 1541.07,1445.72 1542.06,1445.72 1543.05,1445.72 1544.04,1445.72 1545.03,1445.72 1546.02,1445.72 1547.01,1445.72 1548,1445.72 1548.99,1445.72 1549.98,1445.72 1550.97,1445.72 1551.96,1445.72 1552.95,1445.72 1553.94,1445.72 1554.93,1445.72 1555.92,1445.72 1556.91,1445.72 1557.9,1445.72 1558.89,1445.72 1559.88,1445.72 1560.87,1445.72 1561.86,1445.72 1562.85,1445.72 1563.84,1445.72 1564.83,1445.72 1565.82,1445.72 1566.81,1445.72 1567.8,1445.72 1568.79,1445.72 1569.78,1445.72 1570.77,1445.72 1571.76,1445.72 1572.75,1445.72 1573.74,1445.72 1574.73,1445.72 1575.72,1445.72 1576.71,1445.72 1577.7,1445.72 1578.69,1445.72 1579.68,1445.72 1580.67,1445.72 1581.66,1445.72 1582.65,1445.72 1583.64,1445.72 1584.63,1445.72 1585.62,1445.72 1586.61,1445.72 1587.6,1445.72 1588.59,1445.72 1589.58,1445.72 1590.57,1445.72 1591.56,1445.72 1592.55,1445.72 1593.54,1445.72 1594.53,1445.72 1595.52,1445.72 1596.51,1445.72 1597.5,1445.72 1598.49,1445.72 1599.47,1445.72 1600.46,1445.72 1601.45,1445.72 1602.44,1445.72 1603.43,1445.72 1604.42,1445.72 1605.41,1445.72 1606.4,1445.72 1607.39,1445.72 1608.38,1445.72 1609.37,1445.72 1610.36,1445.72 1611.35,1445.72 1612.34,1445.72 1613.33,1445.72 1614.32,1445.72 1615.31,1445.72 1616.3,1445.72 1617.29,1445.72 1618.28,1445.72 1619.27,1445.72 1620.26,1445.72 1621.25,1445.72 1622.24,1445.72 1623.23,1445.72 1624.22,1445.72 1625.21,1445.72 1626.2,1445.72 1627.19,1445.72 1628.18,1445.72 1629.17,1445.72 1630.16,1445.72 1631.15,1445.72 1632.14,1445.72 1633.13,1445.72 1634.12,1445.72 1635.11,1445.72 1636.1,1445.72 1637.09,1445.72 1638.08,1445.72 1639.07,1445.72 1640.06,1445.72 1641.05,1445.72 1642.04,1445.72 1643.03,1445.72 1644.02,1445.72 1645.01,1445.72 1646,1445.72 1646.99,1445.72 1647.98,1445.72 1648.97,1445.72 1649.96,1445.72 1650.95,1445.72 1651.94,1445.72 1652.93,1445.72 1653.92,1445.72 1654.91,1445.72 1655.9,1445.72 1656.89,1445.72 1657.88,1445.72 1658.87,1445.72 1659.86,1445.72 1660.85,1445.72 1661.84,1445.72 1662.83,1445.72 1663.82,1445.72 1664.81,1445.72 1665.8,1445.72 1666.79,1445.72 1667.78,1445.72 1668.76,1445.72 1669.75,1445.72 1670.74,1445.72 1671.73,1445.72 1672.72,1445.72 1673.71,1445.72 1674.7,1445.72 1675.69,1445.72 1676.68,1445.72 1677.67,1445.72 1678.66,1445.72 1679.65,1445.72 1680.64,1445.72 1681.63,1445.72 1682.62,1445.72 1683.61,1445.72 1684.6,1445.72 1685.59,1445.72 1686.58,1445.72 1687.57,1445.72 1688.56,1445.72 1689.55,1445.72 1690.54,1445.72 1691.53,1445.72 1692.52,1445.72 1693.51,1445.72 1694.5,1445.72 1695.49,1445.72 1696.48,1445.72 1697.47,1445.72 1698.46,1445.72 1699.45,1445.72 1700.44,1445.72 1701.43,1445.72 1702.42,1445.72 1703.41,1445.72 1704.4,1445.72 1705.39,1445.72 1706.38,1445.72 1707.37,1445.72 1708.36,1445.72 1709.35,1445.72 1710.34,1445.72 1711.33,1445.72 1712.32,1445.72 1713.31,1445.72 1714.3,1445.72 1715.29,1445.72 1716.28,1445.72 1717.27,1445.72 1718.26,1445.72 1719.25,1445.72 1720.24,1445.72 1721.23,1445.72 1722.22,1445.72 1723.21,1445.72 1724.2,1445.72 1725.19,1445.72 1726.18,1445.72 1727.17,1445.72 1728.16,1445.72 1729.15,1445.72 1730.14,1445.72 1731.13,1445.72 1732.12,1445.72 1733.11,1445.72 1734.1,1445.72 1735.09,1445.72 1736.08,1445.72 1737.07,1445.72 1738.05,1445.72 1739.04,1445.72 1740.03,1445.72 1741.02,1445.72 1742.01,1445.72 1743,1445.72 1743.99,1445.72 1744.98,1445.72 1745.97,1445.72 1746.96,1445.72 1747.95,1445.72 1748.94,1445.72 1749.93,1445.72 1750.92,1445.72 1751.91,1445.72 1752.9,1445.72 1753.89,1445.72 1754.88,1445.72 1755.87,1445.72 1756.86,1445.72 1757.85,1445.72 1758.84,1445.72 1759.83,1445.72 1760.82,1445.72 1761.81,1445.72 1762.8,1445.72 1763.79,1445.72 1764.78,1445.72 1765.77,1445.72 1766.76,1445.72 1767.75,1445.72 1768.74,1445.72 1769.73,1445.72 1770.72,1445.72 1771.71,1445.72 1772.7,1445.72 1773.69,1445.72 1774.68,1445.72 1775.67,1445.72 1776.66,1445.72 1777.65,1445.72 1778.64,1445.72 1779.63,1445.72 1780.62,1445.72 1781.61,1445.72 1782.6,1445.72 1783.59,1445.72 1784.58,1445.72 1785.57,1445.72 1786.56,1445.72 1787.55,1445.72 1788.54,1445.72 1789.53,1445.72 1790.52,1445.72 1791.51,1445.72 1792.5,1445.72 1793.49,1445.72 1794.48,1445.72 1795.47,1445.72 1796.46,1445.72 1797.45,1445.72 1798.44,1445.72 1799.43,1445.72 1800.42,1445.72 1801.41,1445.72 1802.4,1445.72 1803.39,1445.72 1804.38,1445.72 1805.37,1445.72 1806.36,1445.72 1807.34,1445.72 1808.33,1445.72 1809.32,1445.72 1810.31,1445.72 1811.3,1445.72 1812.29,1445.72 1813.28,1445.72 1814.27,1445.72 1815.26,1445.72 1816.25,1445.72 1817.24,1445.72 1818.23,1445.72 1819.22,1445.72 1820.21,1445.72 1821.2,1445.72 1822.19,1445.72 1823.18,1445.72 1824.17,1445.72 1825.16,1445.72 1826.15,1445.72 1827.14,1445.72 1828.13,1445.72 1829.12,1445.72 1830.11,1445.72 1831.1,1445.72 1832.09,1445.72 1833.08,1445.72 1834.07,1445.72 1835.06,1445.72 1836.05,1445.72 1837.04,1445.72 1838.03,1445.72 1839.02,1445.72 1840.01,1445.72 1841,1445.72 1841.99,1445.72 1842.98,1445.72 1843.97,1445.72 1844.96,1445.72 1845.95,1445.72 1846.94,1445.72 1847.93,1445.72 1848.92,1445.72 1849.91,1445.72 1850.9,1445.72 1851.89,1445.72 1852.88,1445.72 1853.87,1445.72 1854.86,1445.72 1855.85,1445.72 1856.84,1445.72 1857.83,1445.72 1858.82,1445.72 1859.81,1445.72 1860.8,1445.72 1861.79,1445.72 1862.78,1445.72 1863.77,1445.72 1864.76,1445.72 1865.75,1445.72 1866.74,1445.72 1867.73,1445.72 1868.72,1445.72 1869.71,1445.72 1870.7,1445.72 1871.69,1445.72 1872.68,1445.72 1873.67,1445.72 1874.66,1445.72 1875.64,1445.72 1876.63,1445.72 1877.62,1445.72 1878.61,1445.72 1879.6,1445.72 1880.59,1445.72 1881.58,1445.72 1882.57,1445.72 1883.56,1445.72 1884.55,1445.72 1885.54,1445.72 1886.53,1445.72 1887.52,1445.72 1888.51,1445.72 1889.5,1445.72 1890.49,1445.72 1891.48,1445.72 1892.47,1445.72 1893.46,1445.72 1894.45,1445.72 1895.44,1445.72 1896.43,1445.72 1897.42,1445.72 1898.41,1445.72 1899.4,1445.72 1900.39,1445.72 1901.38,1445.72 1902.37,1445.72 1903.36,1445.72 1904.35,1445.72 1905.34,1445.72 1906.33,1445.72 1907.32,1445.72 1908.31,1445.72 1909.3,1445.72 1910.29,1445.72 1911.28,1445.72 1912.27,1445.72 1913.26,1445.72 1914.25,1445.72 1915.24,1445.72 1916.23,1445.72 1917.22,1445.72 1918.21,1445.72 1919.2,1445.72 1920.19,1445.72 1921.18,1445.72 1922.17,1445.72 1923.16,1445.72 1924.15,1445.72 1925.14,1445.72 1926.13,1445.72 1927.12,1445.72 1928.11,1445.72 1929.1,1445.72 1930.09,1445.72 1931.08,1445.72 1932.07,1445.72 1933.06,1445.72 1934.05,1445.72 1935.04,1445.72 1936.03,1445.72 1937.02,1445.72 1938.01,1445.72 1939,1445.72 1939.99,1445.72 1940.98,1445.72 1941.97,1445.72 1942.96,1445.72 1943.95,1445.72 1944.93,1445.72 1945.92,1445.72 1946.91,1445.72 1947.9,1445.72 1948.89,1445.72 1949.88,1445.72 1950.87,1445.72 1951.86,1445.72 1952.85,1445.72 1953.84,1445.72 1954.83,1445.72 1955.82,1445.72 1956.81,1445.72 1957.8,1445.72 1958.79,1445.72 1959.78,1445.72 1960.77,1445.72 1961.76,1445.72 1962.75,1445.72 1963.74,1445.72 1964.73,1445.72 1965.72,1445.72 1966.71,1445.72 1967.7,1445.72 1968.69,1445.72 1969.68,1445.72 1970.67,1445.72 1971.66,1445.72 1972.65,1445.72 1973.64,1445.72 1974.63,1445.72 1975.62,1445.72 1976.61,1445.72 1977.6,1445.72 1978.59,1445.72 1979.58,1445.72 1980.57,1445.72 1981.56,1445.72 1982.55,1445.72 1983.54,1445.72 1984.53,1445.72 1985.52,1445.72 1986.51,1445.72 1987.5,1445.72 1988.49,1445.72 1989.48,1445.72 1990.47,1445.72 1991.46,1445.72 1992.45,1445.72 1993.44,1445.72 1994.43,1445.72 1995.42,1445.72 1996.41,1445.72 1997.4,1445.72 1998.39,1445.72 1999.38,1445.72 2000.37,1445.72 2001.36,1445.72 2002.35,1445.72 2003.34,1445.72 2004.33,1445.72 2005.32,1445.72 2006.31,1445.72 2007.3,1445.72 2008.29,1445.72 2009.28,1445.72 2010.27,1445.72 2011.26,1445.72 2012.25,1445.72 2013.24,1445.72 2014.22,1445.72 2015.21,1445.72 2016.2,1445.72 2017.19,1445.72 2018.18,1445.72 2019.17,1445.72 2020.16,1445.72 2021.15,1445.72 2022.14,1445.72 2023.13,1445.72 2024.12,1445.72 2025.11,1445.72 2026.1,1445.72 2027.09,1445.72 2028.08,1445.72 2029.07,1445.72 2030.06,1445.72 2031.05,1445.72 2032.04,1445.72 2033.03,1445.72 2034.02,1445.72 2035.01,1445.72 2036,1445.72 2036.99,1445.72 2037.98,1445.72 2038.97,1445.72 2039.96,1445.72 2040.95,1445.72 2041.94,1445.72 2042.93,1445.72 2043.92,1445.72 2044.91,1445.72 2045.9,1445.72 2046.89,1445.72 2047.88,1445.72 2048.87,1445.72 2049.86,1445.72 2050.85,1445.72 2051.84,1445.72 2052.83,1445.72 2053.82,1445.72 2054.81,1445.72 2055.8,1445.72 2056.79,1445.72 2057.78,1445.72 2058.77,1445.72 2059.76,1445.72 2060.75,1445.72 2061.74,1445.72 2062.73,1445.72 2063.72,1445.72 2064.71,1445.72 2065.7,1445.72 2066.69,1445.72 2067.68,1445.72 2068.67,1445.72 2069.66,1445.72 2070.65,1445.72 2071.64,1445.72 2072.63,1445.72 2073.62,1445.72 2074.61,1445.72 2075.6,1445.72 2076.59,1445.72 2077.58,1445.72 2078.57,1445.72 2079.56,1445.72 2080.55,1445.72 2081.54,1445.72 2082.53,1445.72 2083.51,1445.72 2084.5,1445.72 2085.49,1445.72 2086.48,1445.72 2087.47,1445.72 2088.46,1445.72 2089.45,1445.72 2090.44,1445.72 2091.43,1445.72 2092.42,1445.72 2093.41,1445.72 2094.4,1445.72 2095.39,1445.72 2096.38,1445.72 2097.37,1445.72 2098.36,1445.72 2099.35,1445.72 2100.34,1445.72 2101.33,1445.72 2102.32,1445.72 2103.31,1445.72 2104.3,1445.72 2105.29,1445.72 2106.28,1445.72 2107.27,1445.72 2108.26,1445.72 2109.25,1445.72 2110.24,1445.72 2111.23,1445.72 2112.22,1445.72 2113.21,1445.72 2114.2,1445.72 2115.19,1445.72 2116.18,1445.72 2117.17,1445.72 2118.16,1445.72 2119.15,1445.72 2120.14,1445.72 2121.13,1445.72 2122.12,1445.72 2123.11,1445.72 2124.1,1445.72 2125.09,1445.72 2126.08,1445.72 2127.07,1445.72 2128.06,1445.72 2129.05,1445.72 2130.04,1445.72 2131.03,1445.72 2132.02,1445.72 2133.01,1445.72 2134,1445.72 2134.99,1445.72 2135.98,1445.72 2136.97,1445.72 2137.96,1445.72 2138.95,1445.72 2139.94,1445.72 2140.93,1445.72 2141.92,1445.72 2142.91,1445.72 2143.9,1445.72 2144.89,1445.72 2145.88,1445.72 2146.87,1445.72 2147.86,1445.72 2148.85,1445.72 2149.84,1445.72 2150.83,1445.72 2151.81,1445.72 2152.8,1445.72 2153.79,1445.72 2154.78,1445.72 2155.77,1445.72 2156.76,1445.72 2157.75,1445.72 2158.74,1445.72 2159.73,1445.72 2160.72,1445.72 2161.71,1445.72 2162.7,1445.72 2163.69,1445.72 2164.68,1445.72 2165.67,1445.72 2166.66,1445.72 2167.65,1445.72 2168.64,1445.72 2169.63,1445.72 2170.62,1445.72 2171.61,1445.72 2172.6,1445.72 2173.59,1445.72 2174.58,1445.72 2175.57,1445.72 2176.56,1445.72 2177.55,1445.72 2178.54,1445.72 2179.53,1445.72 2180.52,1445.72 2181.51,1445.72 2182.5,1445.72 2183.49,1445.72 2184.48,1445.72 2185.47,1445.72 2186.46,1445.72 2187.45,1445.72 2188.44,1445.72 2189.43,1445.72 2190.42,1445.72 2191.41,1445.72 2192.4,1445.72 2193.39,1445.72 2194.38,1445.72 2195.37,1445.72 2196.36,1445.72 2197.35,1445.72 2198.34,1445.72 2199.33,1445.72 2200.32,1445.72 2201.31,1445.72 2202.3,1445.72 2203.29,1445.72 2204.28,1445.72 2205.27,1445.72 2206.26,1445.72 2207.25,1445.72 2208.24,1445.72 2209.23,1445.72 2210.22,1445.72 2211.21,1445.72 2212.2,1445.72 2213.19,1445.72 2214.18,1445.72 2215.17,1445.72 2216.16,1445.72 2217.15,1445.72 2218.14,1445.72 2219.13,1445.72 2220.12,1445.72 2221.1,1445.72 2222.09,1445.72 2223.08,1445.72 2224.07,1445.72 2225.06,1445.72 2226.05,1445.72 2227.04,1445.72 2228.03,1445.72 2229.02,1445.72 2230.01,1445.72 2231,1445.72 2231.99,1445.72 2232.98,1445.72 2233.97,1445.72 2234.96,1445.72 2235.95,1445.72 2236.94,1445.72 2237.93,1445.72 2238.92,1445.72 2239.91,1445.72 2240.9,1445.72 2241.89,1445.72 2242.88,1445.72 2243.87,1445.72 2244.86,1445.72 2245.85,1445.72 2246.84,1445.72 2247.83,1445.72 2248.82,1445.72 2249.81,1445.72 2250.8,1445.72 2251.79,1445.72 2252.78,1445.72 2253.77,1445.72 2254.76,1445.72 2255.75,1445.72 2256.74,1445.72 2257.73,1445.72 2258.72,1445.72 2259.71,1445.72 2260.7,1445.72 2261.69,1445.72 2262.68,1445.72 2263.67,1445.72 2264.66,1445.72 2265.65,1445.72 2266.64,1445.72 2267.63,1445.72 2268.62,1445.72 2269.61,1445.72 2270.6,1445.72 2271.59,1445.72 2272.58,1445.72 2273.57,1445.72 2274.56,1445.72 2275.55,1445.72 2276.54,1445.72 2277.53,1445.72 2278.52,1445.72 2279.51,1445.72 2280.5,1445.72 2281.49,1445.72 2282.48,1445.72 2283.47,1445.72 2284.46,1445.72 2285.45,1445.72 2286.44,1445.72 2287.43,1445.72 2288.42,1445.72 2289.41,1445.72 2290.39,1445.72 2291.38,1445.72 2292.37,1445.72 2293.36,1445.72 "/>
<path clip-path="url(#clip920)" d="M2020.53 198.898 L2282.81 198.898 L2282.81 95.2176 L2020.53 95.2176  Z" fill="#ffffff" fill-rule="evenodd" fill-opacity="1"/>
<polyline clip-path="url(#clip920)" style="stroke:#000000; stroke-linecap:round; stroke-linejoin:round; stroke-width:4; stroke-opacity:1; fill:none" points="2020.53,198.898 2282.81,198.898 2282.81,95.2176 2020.53,95.2176 2020.53,198.898 "/>
<polyline clip-path="url(#clip920)" style="stroke:#009af9; stroke-linecap:round; stroke-linejoin:round; stroke-width:4; stroke-opacity:1; fill:none" points="2043.84,147.058 2183.74,147.058 "/>
<path clip-path="url(#clip920)" d="M2220.9 166.745 Q2219.1 171.375 2217.38 172.787 Q2215.67 174.199 2212.8 174.199 L2209.4 174.199 L2209.4 170.634 L2211.9 170.634 Q2213.66 170.634 2214.63 169.8 Q2215.6 168.967 2216.78 165.865 L2217.55 163.921 L2207.06 138.412 L2211.57 138.412 L2219.67 158.689 L2227.78 138.412 L2232.29 138.412 L2220.9 166.745 Z" fill="#000000" fill-rule="nonzero" fill-opacity="1" /><path clip-path="url(#clip920)" d="M2239.58 160.402 L2247.22 160.402 L2247.22 134.037 L2238.91 135.703 L2238.91 131.444 L2247.17 129.778 L2251.85 129.778 L2251.85 160.402 L2259.49 160.402 L2259.49 164.338 L2239.58 164.338 L2239.58 160.402 Z" fill="#000000" fill-rule="nonzero" fill-opacity="1" /></svg>
