<?xml version="1.0" encoding="utf-8"?>
<svg xmlns="http://www.w3.org/2000/svg" xmlns:xlink="http://www.w3.org/1999/xlink" width="600" height="400" viewBox="0 0 2400 1600">
<defs>
  <clipPath id="clip390">
    <rect x="0" y="0" width="2400" height="1600"/>
  </clipPath>
</defs>
<path clip-path="url(#clip390)" d="M0 1600 L2400 1600 L2400 0 L0 0  Z" fill="#ffffff" fill-rule="evenodd" fill-opacity="1"/>
<defs>
  <clipPath id="clip391">
    <rect x="480" y="0" width="1681" height="1600"/>
  </clipPath>
</defs>
<path clip-path="url(#clip390)" d="M209.029 1486.45 L2352.76 1486.45 L2352.76 47.2441 L209.029 47.2441  Z" fill="#ffffff" fill-rule="evenodd" fill-opacity="1"/>
<defs>
  <clipPath id="clip392">
    <rect x="209" y="47" width="2145" height="1440"/>
  </clipPath>
</defs>
<polyline clip-path="url(#clip392)" style="stroke:#000000; stroke-linecap:round; stroke-linejoin:round; stroke-width:2; stroke-opacity:0.1; fill:none" points="269.7,1486.45 269.7,47.2441 "/>
<polyline clip-path="url(#clip392)" style="stroke:#000000; stroke-linecap:round; stroke-linejoin:round; stroke-width:2; stroke-opacity:0.1; fill:none" points="775.296,1486.45 775.296,47.2441 "/>
<polyline clip-path="url(#clip392)" style="stroke:#000000; stroke-linecap:round; stroke-linejoin:round; stroke-width:2; stroke-opacity:0.1; fill:none" points="1280.89,1486.45 1280.89,47.2441 "/>
<polyline clip-path="url(#clip392)" style="stroke:#000000; stroke-linecap:round; stroke-linejoin:round; stroke-width:2; stroke-opacity:0.1; fill:none" points="1786.49,1486.45 1786.49,47.2441 "/>
<polyline clip-path="url(#clip392)" style="stroke:#000000; stroke-linecap:round; stroke-linejoin:round; stroke-width:2; stroke-opacity:0.1; fill:none" points="2292.08,1486.45 2292.08,47.2441 "/>
<polyline clip-path="url(#clip390)" style="stroke:#000000; stroke-linecap:round; stroke-linejoin:round; stroke-width:4; stroke-opacity:1; fill:none" points="209.029,1486.45 2352.76,1486.45 "/>
<polyline clip-path="url(#clip390)" style="stroke:#000000; stroke-linecap:round; stroke-linejoin:round; stroke-width:4; stroke-opacity:1; fill:none" points="269.7,1486.45 269.7,1467.55 "/>
<polyline clip-path="url(#clip390)" style="stroke:#000000; stroke-linecap:round; stroke-linejoin:round; stroke-width:4; stroke-opacity:1; fill:none" points="775.296,1486.45 775.296,1467.55 "/>
<polyline clip-path="url(#clip390)" style="stroke:#000000; stroke-linecap:round; stroke-linejoin:round; stroke-width:4; stroke-opacity:1; fill:none" points="1280.89,1486.45 1280.89,1467.55 "/>
<polyline clip-path="url(#clip390)" style="stroke:#000000; stroke-linecap:round; stroke-linejoin:round; stroke-width:4; stroke-opacity:1; fill:none" points="1786.49,1486.45 1786.49,1467.55 "/>
<polyline clip-path="url(#clip390)" style="stroke:#000000; stroke-linecap:round; stroke-linejoin:round; stroke-width:4; stroke-opacity:1; fill:none" points="2292.08,1486.45 2292.08,1467.55 "/>
<path clip-path="url(#clip390)" d="M232.003 1517.37 Q228.392 1517.37 226.564 1520.93 Q224.758 1524.47 224.758 1531.6 Q224.758 1538.71 226.564 1542.27 Q228.392 1545.82 232.003 1545.82 Q235.638 1545.82 237.443 1542.27 Q239.272 1538.71 239.272 1531.6 Q239.272 1524.47 237.443 1520.93 Q235.638 1517.37 232.003 1517.37 M232.003 1513.66 Q237.814 1513.66 240.869 1518.27 Q243.948 1522.85 243.948 1531.6 Q243.948 1540.33 240.869 1544.94 Q237.814 1549.52 232.003 1549.52 Q226.193 1549.52 223.115 1544.94 Q220.059 1540.33 220.059 1531.6 Q220.059 1522.85 223.115 1518.27 Q226.193 1513.66 232.003 1513.66 Z" fill="#000000" fill-rule="nonzero" fill-opacity="1" /><path clip-path="url(#clip390)" d="M252.165 1542.97 L257.05 1542.97 L257.05 1548.85 L252.165 1548.85 L252.165 1542.97 Z" fill="#000000" fill-rule="nonzero" fill-opacity="1" /><path clip-path="url(#clip390)" d="M277.235 1517.37 Q273.624 1517.37 271.795 1520.93 Q269.989 1524.47 269.989 1531.6 Q269.989 1538.71 271.795 1542.27 Q273.624 1545.82 277.235 1545.82 Q280.869 1545.82 282.675 1542.27 Q284.503 1538.71 284.503 1531.6 Q284.503 1524.47 282.675 1520.93 Q280.869 1517.37 277.235 1517.37 M277.235 1513.66 Q283.045 1513.66 286.1 1518.27 Q289.179 1522.85 289.179 1531.6 Q289.179 1540.33 286.1 1544.94 Q283.045 1549.52 277.235 1549.52 Q271.425 1549.52 268.346 1544.94 Q265.29 1540.33 265.29 1531.6 Q265.29 1522.85 268.346 1518.27 Q271.425 1513.66 277.235 1513.66 Z" fill="#000000" fill-rule="nonzero" fill-opacity="1" /><path clip-path="url(#clip390)" d="M307.397 1517.37 Q303.786 1517.37 301.957 1520.93 Q300.151 1524.47 300.151 1531.6 Q300.151 1538.71 301.957 1542.27 Q303.786 1545.82 307.397 1545.82 Q311.031 1545.82 312.836 1542.27 Q314.665 1538.71 314.665 1531.6 Q314.665 1524.47 312.836 1520.93 Q311.031 1517.37 307.397 1517.37 M307.397 1513.66 Q313.207 1513.66 316.262 1518.27 Q319.341 1522.85 319.341 1531.6 Q319.341 1540.33 316.262 1544.94 Q313.207 1549.52 307.397 1549.52 Q301.586 1549.52 298.508 1544.94 Q295.452 1540.33 295.452 1531.6 Q295.452 1522.85 298.508 1518.27 Q301.586 1513.66 307.397 1513.66 Z" fill="#000000" fill-rule="nonzero" fill-opacity="1" /><path clip-path="url(#clip390)" d="M738.097 1517.37 Q734.486 1517.37 732.657 1520.93 Q730.852 1524.47 730.852 1531.6 Q730.852 1538.71 732.657 1542.27 Q734.486 1545.82 738.097 1545.82 Q741.731 1545.82 743.537 1542.27 Q745.366 1538.71 745.366 1531.6 Q745.366 1524.47 743.537 1520.93 Q741.731 1517.37 738.097 1517.37 M738.097 1513.66 Q743.907 1513.66 746.963 1518.27 Q750.042 1522.85 750.042 1531.6 Q750.042 1540.33 746.963 1544.94 Q743.907 1549.52 738.097 1549.52 Q732.287 1549.52 729.208 1544.94 Q726.153 1540.33 726.153 1531.6 Q726.153 1522.85 729.208 1518.27 Q732.287 1513.66 738.097 1513.66 Z" fill="#000000" fill-rule="nonzero" fill-opacity="1" /><path clip-path="url(#clip390)" d="M758.259 1542.97 L763.143 1542.97 L763.143 1548.85 L758.259 1548.85 L758.259 1542.97 Z" fill="#000000" fill-rule="nonzero" fill-opacity="1" /><path clip-path="url(#clip390)" d="M777.356 1544.91 L793.676 1544.91 L793.676 1548.85 L771.731 1548.85 L771.731 1544.91 Q774.393 1542.16 778.977 1537.53 Q783.583 1532.88 784.764 1531.53 Q787.009 1529.01 787.889 1527.27 Q788.791 1525.51 788.791 1523.82 Q788.791 1521.07 786.847 1519.33 Q784.926 1517.6 781.824 1517.6 Q779.625 1517.6 777.171 1518.36 Q774.741 1519.13 771.963 1520.68 L771.963 1515.95 Q774.787 1514.82 777.241 1514.24 Q779.694 1513.66 781.731 1513.66 Q787.102 1513.66 790.296 1516.35 Q793.49 1519.03 793.49 1523.52 Q793.49 1525.65 792.68 1527.57 Q791.893 1529.47 789.787 1532.07 Q789.208 1532.74 786.106 1535.95 Q783.004 1539.15 777.356 1544.91 Z" fill="#000000" fill-rule="nonzero" fill-opacity="1" /><path clip-path="url(#clip390)" d="M803.537 1514.29 L821.893 1514.29 L821.893 1518.22 L807.819 1518.22 L807.819 1526.7 Q808.838 1526.35 809.856 1526.19 Q810.875 1526 811.893 1526 Q817.68 1526 821.06 1529.17 Q824.439 1532.34 824.439 1537.76 Q824.439 1543.34 820.967 1546.44 Q817.495 1549.52 811.176 1549.52 Q809 1549.52 806.731 1549.15 Q804.486 1548.78 802.078 1548.04 L802.078 1543.34 Q804.162 1544.47 806.384 1545.03 Q808.606 1545.58 811.083 1545.58 Q815.088 1545.58 817.426 1543.48 Q819.763 1541.37 819.763 1537.76 Q819.763 1534.15 817.426 1532.04 Q815.088 1529.94 811.083 1529.94 Q809.208 1529.94 807.333 1530.35 Q805.481 1530.77 803.537 1531.65 L803.537 1514.29 Z" fill="#000000" fill-rule="nonzero" fill-opacity="1" /><path clip-path="url(#clip390)" d="M1243.2 1517.37 Q1239.58 1517.37 1237.76 1520.93 Q1235.95 1524.47 1235.95 1531.6 Q1235.95 1538.71 1237.76 1542.27 Q1239.58 1545.82 1243.2 1545.82 Q1246.83 1545.82 1248.64 1542.27 Q1250.46 1538.71 1250.46 1531.6 Q1250.46 1524.47 1248.64 1520.93 Q1246.83 1517.37 1243.2 1517.37 M1243.2 1513.66 Q1249.01 1513.66 1252.06 1518.27 Q1255.14 1522.85 1255.14 1531.6 Q1255.14 1540.33 1252.06 1544.94 Q1249.01 1549.52 1243.2 1549.52 Q1237.39 1549.52 1234.31 1544.94 Q1231.25 1540.33 1231.25 1531.6 Q1231.25 1522.85 1234.31 1518.27 Q1237.39 1513.66 1243.2 1513.66 Z" fill="#000000" fill-rule="nonzero" fill-opacity="1" /><path clip-path="url(#clip390)" d="M1263.36 1542.97 L1268.24 1542.97 L1268.24 1548.85 L1263.36 1548.85 L1263.36 1542.97 Z" fill="#000000" fill-rule="nonzero" fill-opacity="1" /><path clip-path="url(#clip390)" d="M1278.47 1514.29 L1296.83 1514.29 L1296.83 1518.22 L1282.76 1518.22 L1282.76 1526.7 Q1283.77 1526.35 1284.79 1526.19 Q1285.81 1526 1286.83 1526 Q1292.62 1526 1296 1529.17 Q1299.38 1532.34 1299.38 1537.76 Q1299.38 1543.34 1295.9 1546.44 Q1292.43 1549.52 1286.11 1549.52 Q1283.94 1549.52 1281.67 1549.15 Q1279.42 1548.78 1277.01 1548.04 L1277.01 1543.34 Q1279.1 1544.47 1281.32 1545.03 Q1283.54 1545.58 1286.02 1545.58 Q1290.02 1545.58 1292.36 1543.48 Q1294.7 1541.37 1294.7 1537.76 Q1294.7 1534.15 1292.36 1532.04 Q1290.02 1529.94 1286.02 1529.94 Q1284.14 1529.94 1282.27 1530.35 Q1280.42 1530.77 1278.47 1531.65 L1278.47 1514.29 Z" fill="#000000" fill-rule="nonzero" fill-opacity="1" /><path clip-path="url(#clip390)" d="M1318.59 1517.37 Q1314.98 1517.37 1313.15 1520.93 Q1311.34 1524.47 1311.34 1531.6 Q1311.34 1538.71 1313.15 1542.27 Q1314.98 1545.82 1318.59 1545.82 Q1322.22 1545.82 1324.03 1542.27 Q1325.86 1538.71 1325.86 1531.6 Q1325.86 1524.47 1324.03 1520.93 Q1322.22 1517.37 1318.59 1517.37 M1318.59 1513.66 Q1324.4 1513.66 1327.45 1518.27 Q1330.53 1522.85 1330.53 1531.6 Q1330.53 1540.33 1327.45 1544.94 Q1324.4 1549.52 1318.59 1549.52 Q1312.78 1549.52 1309.7 1544.94 Q1306.64 1540.33 1306.64 1531.6 Q1306.64 1522.85 1309.7 1518.27 Q1312.78 1513.66 1318.59 1513.66 Z" fill="#000000" fill-rule="nonzero" fill-opacity="1" /><path clip-path="url(#clip390)" d="M1749.29 1517.37 Q1745.68 1517.37 1743.85 1520.93 Q1742.04 1524.47 1742.04 1531.6 Q1742.04 1538.71 1743.85 1542.27 Q1745.68 1545.82 1749.29 1545.82 Q1752.92 1545.82 1754.73 1542.27 Q1756.56 1538.71 1756.56 1531.6 Q1756.56 1524.47 1754.73 1520.93 Q1752.92 1517.37 1749.29 1517.37 M1749.29 1513.66 Q1755.1 1513.66 1758.16 1518.27 Q1761.23 1522.85 1761.23 1531.6 Q1761.23 1540.33 1758.16 1544.94 Q1755.1 1549.52 1749.29 1549.52 Q1743.48 1549.52 1740.4 1544.94 Q1737.35 1540.33 1737.35 1531.6 Q1737.35 1522.85 1740.4 1518.27 Q1743.48 1513.66 1749.29 1513.66 Z" fill="#000000" fill-rule="nonzero" fill-opacity="1" /><path clip-path="url(#clip390)" d="M1769.45 1542.97 L1774.34 1542.97 L1774.34 1548.85 L1769.45 1548.85 L1769.45 1542.97 Z" fill="#000000" fill-rule="nonzero" fill-opacity="1" /><path clip-path="url(#clip390)" d="M1783.34 1514.29 L1805.56 1514.29 L1805.56 1516.28 L1793.02 1548.85 L1788.13 1548.85 L1799.94 1518.22 L1783.34 1518.22 L1783.34 1514.29 Z" fill="#000000" fill-rule="nonzero" fill-opacity="1" /><path clip-path="url(#clip390)" d="M1814.73 1514.29 L1833.09 1514.29 L1833.09 1518.22 L1819.01 1518.22 L1819.01 1526.7 Q1820.03 1526.35 1821.05 1526.19 Q1822.07 1526 1823.09 1526 Q1828.87 1526 1832.25 1529.17 Q1835.63 1532.34 1835.63 1537.76 Q1835.63 1543.34 1832.16 1546.44 Q1828.69 1549.52 1822.37 1549.52 Q1820.19 1549.52 1817.92 1549.15 Q1815.68 1548.78 1813.27 1548.04 L1813.27 1543.34 Q1815.35 1544.47 1817.58 1545.03 Q1819.8 1545.58 1822.28 1545.58 Q1826.28 1545.58 1828.62 1543.48 Q1830.96 1541.37 1830.96 1537.76 Q1830.96 1534.15 1828.62 1532.04 Q1826.28 1529.94 1822.28 1529.94 Q1820.4 1529.94 1818.53 1530.35 Q1816.67 1530.77 1814.73 1531.65 L1814.73 1514.29 Z" fill="#000000" fill-rule="nonzero" fill-opacity="1" /><path clip-path="url(#clip390)" d="M2244.16 1544.91 L2251.8 1544.91 L2251.8 1518.55 L2243.49 1520.21 L2243.49 1515.95 L2251.75 1514.29 L2256.42 1514.29 L2256.42 1544.91 L2264.06 1544.91 L2264.06 1548.85 L2244.16 1548.85 L2244.16 1544.91 Z" fill="#000000" fill-rule="nonzero" fill-opacity="1" /><path clip-path="url(#clip390)" d="M2273.51 1542.97 L2278.39 1542.97 L2278.39 1548.85 L2273.51 1548.85 L2273.51 1542.97 Z" fill="#000000" fill-rule="nonzero" fill-opacity="1" /><path clip-path="url(#clip390)" d="M2298.58 1517.37 Q2294.97 1517.37 2293.14 1520.93 Q2291.33 1524.47 2291.33 1531.6 Q2291.33 1538.71 2293.14 1542.27 Q2294.97 1545.82 2298.58 1545.82 Q2302.21 1545.82 2304.02 1542.27 Q2305.85 1538.71 2305.85 1531.6 Q2305.85 1524.47 2304.02 1520.93 Q2302.21 1517.37 2298.58 1517.37 M2298.58 1513.66 Q2304.39 1513.66 2307.44 1518.27 Q2310.52 1522.85 2310.52 1531.6 Q2310.52 1540.33 2307.44 1544.94 Q2304.39 1549.52 2298.58 1549.52 Q2292.77 1549.52 2289.69 1544.94 Q2286.63 1540.33 2286.63 1531.6 Q2286.63 1522.85 2289.69 1518.27 Q2292.77 1513.66 2298.58 1513.66 Z" fill="#000000" fill-rule="nonzero" fill-opacity="1" /><path clip-path="url(#clip390)" d="M2328.74 1517.37 Q2325.13 1517.37 2323.3 1520.93 Q2321.49 1524.47 2321.49 1531.6 Q2321.49 1538.71 2323.3 1542.27 Q2325.13 1545.82 2328.74 1545.82 Q2332.37 1545.82 2334.18 1542.27 Q2336.01 1538.71 2336.01 1531.6 Q2336.01 1524.47 2334.18 1520.93 Q2332.37 1517.37 2328.74 1517.37 M2328.74 1513.66 Q2334.55 1513.66 2337.6 1518.27 Q2340.68 1522.85 2340.68 1531.6 Q2340.68 1540.33 2337.6 1544.94 Q2334.55 1549.52 2328.74 1549.52 Q2322.93 1549.52 2319.85 1544.94 Q2316.79 1540.33 2316.79 1531.6 Q2316.79 1522.85 2319.85 1518.27 Q2322.93 1513.66 2328.74 1513.66 Z" fill="#000000" fill-rule="nonzero" fill-opacity="1" /><polyline clip-path="url(#clip392)" style="stroke:#000000; stroke-linecap:round; stroke-linejoin:round; stroke-width:2; stroke-opacity:0.1; fill:none" points="209.029,1359.98 2352.76,1359.98 "/>
<polyline clip-path="url(#clip392)" style="stroke:#000000; stroke-linecap:round; stroke-linejoin:round; stroke-width:2; stroke-opacity:0.1; fill:none" points="209.029,1169.41 2352.76,1169.41 "/>
<polyline clip-path="url(#clip392)" style="stroke:#000000; stroke-linecap:round; stroke-linejoin:round; stroke-width:2; stroke-opacity:0.1; fill:none" points="209.029,978.832 2352.76,978.832 "/>
<polyline clip-path="url(#clip392)" style="stroke:#000000; stroke-linecap:round; stroke-linejoin:round; stroke-width:2; stroke-opacity:0.1; fill:none" points="209.029,788.258 2352.76,788.258 "/>
<polyline clip-path="url(#clip392)" style="stroke:#000000; stroke-linecap:round; stroke-linejoin:round; stroke-width:2; stroke-opacity:0.1; fill:none" points="209.029,597.683 2352.76,597.683 "/>
<polyline clip-path="url(#clip392)" style="stroke:#000000; stroke-linecap:round; stroke-linejoin:round; stroke-width:2; stroke-opacity:0.1; fill:none" points="209.029,407.109 2352.76,407.109 "/>
<polyline clip-path="url(#clip392)" style="stroke:#000000; stroke-linecap:round; stroke-linejoin:round; stroke-width:2; stroke-opacity:0.1; fill:none" points="209.029,216.534 2352.76,216.534 "/>
<polyline clip-path="url(#clip390)" style="stroke:#000000; stroke-linecap:round; stroke-linejoin:round; stroke-width:4; stroke-opacity:1; fill:none" points="209.029,1486.45 209.029,47.2441 "/>
<polyline clip-path="url(#clip390)" style="stroke:#000000; stroke-linecap:round; stroke-linejoin:round; stroke-width:4; stroke-opacity:1; fill:none" points="209.029,1359.98 227.926,1359.98 "/>
<polyline clip-path="url(#clip390)" style="stroke:#000000; stroke-linecap:round; stroke-linejoin:round; stroke-width:4; stroke-opacity:1; fill:none" points="209.029,1169.41 227.926,1169.41 "/>
<polyline clip-path="url(#clip390)" style="stroke:#000000; stroke-linecap:round; stroke-linejoin:round; stroke-width:4; stroke-opacity:1; fill:none" points="209.029,978.832 227.926,978.832 "/>
<polyline clip-path="url(#clip390)" style="stroke:#000000; stroke-linecap:round; stroke-linejoin:round; stroke-width:4; stroke-opacity:1; fill:none" points="209.029,788.258 227.926,788.258 "/>
<polyline clip-path="url(#clip390)" style="stroke:#000000; stroke-linecap:round; stroke-linejoin:round; stroke-width:4; stroke-opacity:1; fill:none" points="209.029,597.683 227.926,597.683 "/>
<polyline clip-path="url(#clip390)" style="stroke:#000000; stroke-linecap:round; stroke-linejoin:round; stroke-width:4; stroke-opacity:1; fill:none" points="209.029,407.109 227.926,407.109 "/>
<polyline clip-path="url(#clip390)" style="stroke:#000000; stroke-linecap:round; stroke-linejoin:round; stroke-width:4; stroke-opacity:1; fill:none" points="209.029,216.534 227.926,216.534 "/>
<path clip-path="url(#clip390)" d="M50.9921 1360.43 L80.6679 1360.43 L80.6679 1364.37 L50.9921 1364.37 L50.9921 1360.43 Z" fill="#000000" fill-rule="nonzero" fill-opacity="1" /><path clip-path="url(#clip390)" d="M94.7882 1373.33 L111.108 1373.33 L111.108 1377.26 L89.1632 1377.26 L89.1632 1373.33 Q91.8252 1370.57 96.4085 1365.94 Q101.015 1361.29 102.196 1359.95 Q104.441 1357.42 105.321 1355.69 Q106.223 1353.93 106.223 1352.24 Q106.223 1349.48 104.279 1347.75 Q102.358 1346.01 99.2558 1346.01 Q97.0567 1346.01 94.603 1346.78 Q92.1725 1347.54 89.3947 1349.09 L89.3947 1344.37 Q92.2188 1343.23 94.6724 1342.66 Q97.1261 1342.08 99.1632 1342.08 Q104.534 1342.08 107.728 1344.76 Q110.922 1347.45 110.922 1351.94 Q110.922 1354.07 110.112 1355.99 Q109.325 1357.89 107.219 1360.48 Q106.64 1361.15 103.538 1364.37 Q100.436 1367.56 94.7882 1373.33 Z" fill="#000000" fill-rule="nonzero" fill-opacity="1" /><path clip-path="url(#clip390)" d="M131.501 1358.12 Q128.353 1358.12 126.501 1360.27 Q124.672 1362.42 124.672 1366.17 Q124.672 1369.9 126.501 1372.08 Q128.353 1374.23 131.501 1374.23 Q134.649 1374.23 136.478 1372.08 Q138.33 1369.9 138.33 1366.17 Q138.33 1362.42 136.478 1360.27 Q134.649 1358.12 131.501 1358.12 M140.783 1343.47 L140.783 1347.72 Q139.024 1346.89 137.219 1346.45 Q135.436 1346.01 133.677 1346.01 Q129.047 1346.01 126.594 1349.14 Q124.163 1352.26 123.816 1358.58 Q125.182 1356.57 127.242 1355.5 Q129.302 1354.41 131.779 1354.41 Q136.987 1354.41 139.996 1357.59 Q143.029 1360.73 143.029 1366.17 Q143.029 1371.5 139.881 1374.72 Q136.732 1377.93 131.501 1377.93 Q125.506 1377.93 122.334 1373.35 Q119.163 1368.74 119.163 1360.02 Q119.163 1351.82 123.052 1346.96 Q126.941 1342.08 133.492 1342.08 Q135.251 1342.08 137.033 1342.42 Q138.839 1342.77 140.783 1343.47 Z" fill="#000000" fill-rule="nonzero" fill-opacity="1" /><path clip-path="url(#clip390)" d="M161.084 1345.78 Q157.473 1345.78 155.644 1349.35 Q153.839 1352.89 153.839 1360.02 Q153.839 1367.12 155.644 1370.69 Q157.473 1374.23 161.084 1374.23 Q164.718 1374.23 166.524 1370.69 Q168.353 1367.12 168.353 1360.02 Q168.353 1352.89 166.524 1349.35 Q164.718 1345.78 161.084 1345.78 M161.084 1342.08 Q166.894 1342.08 169.95 1346.68 Q173.029 1351.27 173.029 1360.02 Q173.029 1368.74 169.95 1373.35 Q166.894 1377.93 161.084 1377.93 Q155.274 1377.93 152.195 1373.35 Q149.14 1368.74 149.14 1360.02 Q149.14 1351.27 152.195 1346.68 Q155.274 1342.08 161.084 1342.08 Z" fill="#000000" fill-rule="nonzero" fill-opacity="1" /><path clip-path="url(#clip390)" d="M50.9921 1169.86 L80.6679 1169.86 L80.6679 1173.79 L50.9921 1173.79 L50.9921 1169.86 Z" fill="#000000" fill-rule="nonzero" fill-opacity="1" /><path clip-path="url(#clip390)" d="M94.7882 1182.75 L111.108 1182.75 L111.108 1186.69 L89.1632 1186.69 L89.1632 1182.75 Q91.8252 1180 96.4085 1175.37 Q101.015 1170.71 102.196 1169.37 Q104.441 1166.85 105.321 1165.11 Q106.223 1163.35 106.223 1161.66 Q106.223 1158.91 104.279 1157.17 Q102.358 1155.44 99.2558 1155.44 Q97.0567 1155.44 94.603 1156.2 Q92.1725 1156.96 89.3947 1158.52 L89.3947 1153.79 Q92.2188 1152.66 94.6724 1152.08 Q97.1261 1151.5 99.1632 1151.5 Q104.534 1151.5 107.728 1154.19 Q110.922 1156.87 110.922 1161.36 Q110.922 1163.49 110.112 1165.41 Q109.325 1167.31 107.219 1169.9 Q106.64 1170.58 103.538 1173.79 Q100.436 1176.99 94.7882 1182.75 Z" fill="#000000" fill-rule="nonzero" fill-opacity="1" /><path clip-path="url(#clip390)" d="M133.769 1156.2 L121.964 1174.65 L133.769 1174.65 L133.769 1156.2 M132.543 1152.13 L138.422 1152.13 L138.422 1174.65 L143.353 1174.65 L143.353 1178.54 L138.422 1178.54 L138.422 1186.69 L133.769 1186.69 L133.769 1178.54 L118.168 1178.54 L118.168 1174.03 L132.543 1152.13 Z" fill="#000000" fill-rule="nonzero" fill-opacity="1" /><path clip-path="url(#clip390)" d="M161.084 1155.21 Q157.473 1155.21 155.644 1158.77 Q153.839 1162.31 153.839 1169.44 Q153.839 1176.55 155.644 1180.11 Q157.473 1183.65 161.084 1183.65 Q164.718 1183.65 166.524 1180.11 Q168.353 1176.55 168.353 1169.44 Q168.353 1162.31 166.524 1158.77 Q164.718 1155.21 161.084 1155.21 M161.084 1151.5 Q166.894 1151.5 169.95 1156.11 Q173.029 1160.69 173.029 1169.44 Q173.029 1178.17 169.95 1182.78 Q166.894 1187.36 161.084 1187.36 Q155.274 1187.36 152.195 1182.78 Q149.14 1178.17 149.14 1169.44 Q149.14 1160.69 152.195 1156.11 Q155.274 1151.5 161.084 1151.5 Z" fill="#000000" fill-rule="nonzero" fill-opacity="1" /><path clip-path="url(#clip390)" d="M50.9921 979.284 L80.6679 979.284 L80.6679 983.219 L50.9921 983.219 L50.9921 979.284 Z" fill="#000000" fill-rule="nonzero" fill-opacity="1" /><path clip-path="url(#clip390)" d="M94.7882 992.177 L111.108 992.177 L111.108 996.112 L89.1632 996.112 L89.1632 992.177 Q91.8252 989.423 96.4085 984.793 Q101.015 980.14 102.196 978.798 Q104.441 976.275 105.321 974.538 Q106.223 972.779 106.223 971.089 Q106.223 968.335 104.279 966.599 Q102.358 964.863 99.2558 964.863 Q97.0567 964.863 94.603 965.627 Q92.1725 966.39 89.3947 967.941 L89.3947 963.219 Q92.2188 962.085 94.6724 961.506 Q97.1261 960.927 99.1632 960.927 Q104.534 960.927 107.728 963.613 Q110.922 966.298 110.922 970.789 Q110.922 972.918 110.112 974.839 Q109.325 976.738 107.219 979.33 Q106.64 980.001 103.538 983.219 Q100.436 986.413 94.7882 992.177 Z" fill="#000000" fill-rule="nonzero" fill-opacity="1" /><path clip-path="url(#clip390)" d="M124.95 992.177 L141.269 992.177 L141.269 996.112 L119.325 996.112 L119.325 992.177 Q121.987 989.423 126.57 984.793 Q131.177 980.14 132.357 978.798 Q134.603 976.275 135.482 974.538 Q136.385 972.779 136.385 971.089 Q136.385 968.335 134.441 966.599 Q132.519 964.863 129.418 964.863 Q127.219 964.863 124.765 965.627 Q122.334 966.39 119.557 967.941 L119.557 963.219 Q122.381 962.085 124.834 961.506 Q127.288 960.927 129.325 960.927 Q134.695 960.927 137.89 963.613 Q141.084 966.298 141.084 970.789 Q141.084 972.918 140.274 974.839 Q139.487 976.738 137.381 979.33 Q136.802 980.001 133.7 983.219 Q130.598 986.413 124.95 992.177 Z" fill="#000000" fill-rule="nonzero" fill-opacity="1" /><path clip-path="url(#clip390)" d="M161.084 964.631 Q157.473 964.631 155.644 968.196 Q153.839 971.738 153.839 978.867 Q153.839 985.974 155.644 989.538 Q157.473 993.08 161.084 993.08 Q164.718 993.08 166.524 989.538 Q168.353 985.974 168.353 978.867 Q168.353 971.738 166.524 968.196 Q164.718 964.631 161.084 964.631 M161.084 960.927 Q166.894 960.927 169.95 965.534 Q173.029 970.117 173.029 978.867 Q173.029 987.594 169.95 992.2 Q166.894 996.784 161.084 996.784 Q155.274 996.784 152.195 992.2 Q149.14 987.594 149.14 978.867 Q149.14 970.117 152.195 965.534 Q155.274 960.927 161.084 960.927 Z" fill="#000000" fill-rule="nonzero" fill-opacity="1" /><path clip-path="url(#clip390)" d="M50.9921 788.709 L80.6679 788.709 L80.6679 792.644 L50.9921 792.644 L50.9921 788.709 Z" fill="#000000" fill-rule="nonzero" fill-opacity="1" /><path clip-path="url(#clip390)" d="M94.7882 801.603 L111.108 801.603 L111.108 805.538 L89.1632 805.538 L89.1632 801.603 Q91.8252 798.848 96.4085 794.218 Q101.015 789.566 102.196 788.223 Q104.441 785.7 105.321 783.964 Q106.223 782.205 106.223 780.515 Q106.223 777.76 104.279 776.024 Q102.358 774.288 99.2558 774.288 Q97.0567 774.288 94.603 775.052 Q92.1725 775.816 89.3947 777.367 L89.3947 772.645 Q92.2188 771.51 94.6724 770.932 Q97.1261 770.353 99.1632 770.353 Q104.534 770.353 107.728 773.038 Q110.922 775.723 110.922 780.214 Q110.922 782.344 110.112 784.265 Q109.325 786.163 107.219 788.756 Q106.64 789.427 103.538 792.644 Q100.436 795.839 94.7882 801.603 Z" fill="#000000" fill-rule="nonzero" fill-opacity="1" /><path clip-path="url(#clip390)" d="M130.922 774.057 Q127.311 774.057 125.482 777.621 Q123.677 781.163 123.677 788.293 Q123.677 795.399 125.482 798.964 Q127.311 802.505 130.922 802.505 Q134.556 802.505 136.362 798.964 Q138.191 795.399 138.191 788.293 Q138.191 781.163 136.362 777.621 Q134.556 774.057 130.922 774.057 M130.922 770.353 Q136.732 770.353 139.788 774.959 Q142.867 779.543 142.867 788.293 Q142.867 797.019 139.788 801.626 Q136.732 806.209 130.922 806.209 Q125.112 806.209 122.033 801.626 Q118.978 797.019 118.978 788.293 Q118.978 779.543 122.033 774.959 Q125.112 770.353 130.922 770.353 Z" fill="#000000" fill-rule="nonzero" fill-opacity="1" /><path clip-path="url(#clip390)" d="M161.084 774.057 Q157.473 774.057 155.644 777.621 Q153.839 781.163 153.839 788.293 Q153.839 795.399 155.644 798.964 Q157.473 802.505 161.084 802.505 Q164.718 802.505 166.524 798.964 Q168.353 795.399 168.353 788.293 Q168.353 781.163 166.524 777.621 Q164.718 774.057 161.084 774.057 M161.084 770.353 Q166.894 770.353 169.95 774.959 Q173.029 779.543 173.029 788.293 Q173.029 797.019 169.95 801.626 Q166.894 806.209 161.084 806.209 Q155.274 806.209 152.195 801.626 Q149.14 797.019 149.14 788.293 Q149.14 779.543 152.195 774.959 Q155.274 770.353 161.084 770.353 Z" fill="#000000" fill-rule="nonzero" fill-opacity="1" /><path clip-path="url(#clip390)" d="M50.9921 598.135 L80.6679 598.135 L80.6679 602.07 L50.9921 602.07 L50.9921 598.135 Z" fill="#000000" fill-rule="nonzero" fill-opacity="1" /><path clip-path="url(#clip390)" d="M91.5706 611.028 L99.2095 611.028 L99.2095 584.662 L90.8993 586.329 L90.8993 582.07 L99.1632 580.403 L103.839 580.403 L103.839 611.028 L111.478 611.028 L111.478 614.963 L91.5706 614.963 L91.5706 611.028 Z" fill="#000000" fill-rule="nonzero" fill-opacity="1" /><path clip-path="url(#clip390)" d="M130.922 598.551 Q127.589 598.551 125.668 600.334 Q123.77 602.116 123.77 605.241 Q123.77 608.366 125.668 610.148 Q127.589 611.931 130.922 611.931 Q134.256 611.931 136.177 610.148 Q138.098 608.343 138.098 605.241 Q138.098 602.116 136.177 600.334 Q134.279 598.551 130.922 598.551 M126.246 596.561 Q123.237 595.82 121.547 593.76 Q119.881 591.699 119.881 588.737 Q119.881 584.593 122.82 582.186 Q125.783 579.778 130.922 579.778 Q136.084 579.778 139.024 582.186 Q141.964 584.593 141.964 588.737 Q141.964 591.699 140.274 593.76 Q138.607 595.82 135.621 596.561 Q139.001 597.348 140.876 599.639 Q142.774 601.931 142.774 605.241 Q142.774 610.264 139.695 612.949 Q136.64 615.635 130.922 615.635 Q125.205 615.635 122.126 612.949 Q119.07 610.264 119.07 605.241 Q119.07 601.931 120.969 599.639 Q122.867 597.348 126.246 596.561 M124.533 589.176 Q124.533 591.862 126.2 593.366 Q127.89 594.871 130.922 594.871 Q133.931 594.871 135.621 593.366 Q137.334 591.862 137.334 589.176 Q137.334 586.491 135.621 584.987 Q133.931 583.482 130.922 583.482 Q127.89 583.482 126.2 584.987 Q124.533 586.491 124.533 589.176 Z" fill="#000000" fill-rule="nonzero" fill-opacity="1" /><path clip-path="url(#clip390)" d="M161.084 583.482 Q157.473 583.482 155.644 587.047 Q153.839 590.588 153.839 597.718 Q153.839 604.824 155.644 608.389 Q157.473 611.931 161.084 611.931 Q164.718 611.931 166.524 608.389 Q168.353 604.824 168.353 597.718 Q168.353 590.588 166.524 587.047 Q164.718 583.482 161.084 583.482 M161.084 579.778 Q166.894 579.778 169.95 584.385 Q173.029 588.968 173.029 597.718 Q173.029 606.445 169.95 611.051 Q166.894 615.635 161.084 615.635 Q155.274 615.635 152.195 611.051 Q149.14 606.445 149.14 597.718 Q149.14 588.968 152.195 584.385 Q155.274 579.778 161.084 579.778 Z" fill="#000000" fill-rule="nonzero" fill-opacity="1" /><path clip-path="url(#clip390)" d="M50.9921 407.56 L80.6679 407.56 L80.6679 411.495 L50.9921 411.495 L50.9921 407.56 Z" fill="#000000" fill-rule="nonzero" fill-opacity="1" /><path clip-path="url(#clip390)" d="M91.5706 420.453 L99.2095 420.453 L99.2095 394.088 L90.8993 395.755 L90.8993 391.495 L99.1632 389.829 L103.839 389.829 L103.839 420.453 L111.478 420.453 L111.478 424.389 L91.5706 424.389 L91.5706 420.453 Z" fill="#000000" fill-rule="nonzero" fill-opacity="1" /><path clip-path="url(#clip390)" d="M131.501 405.245 Q128.353 405.245 126.501 407.398 Q124.672 409.551 124.672 413.301 Q124.672 417.028 126.501 419.203 Q128.353 421.356 131.501 421.356 Q134.649 421.356 136.478 419.203 Q138.33 417.028 138.33 413.301 Q138.33 409.551 136.478 407.398 Q134.649 405.245 131.501 405.245 M140.783 390.593 L140.783 394.852 Q139.024 394.018 137.219 393.579 Q135.436 393.139 133.677 393.139 Q129.047 393.139 126.594 396.264 Q124.163 399.389 123.816 405.708 Q125.182 403.694 127.242 402.629 Q129.302 401.542 131.779 401.542 Q136.987 401.542 139.996 404.713 Q143.029 407.861 143.029 413.301 Q143.029 418.625 139.881 421.842 Q136.732 425.06 131.501 425.06 Q125.506 425.06 122.334 420.477 Q119.163 415.87 119.163 407.143 Q119.163 398.949 123.052 394.088 Q126.941 389.204 133.492 389.204 Q135.251 389.204 137.033 389.551 Q138.839 389.898 140.783 390.593 Z" fill="#000000" fill-rule="nonzero" fill-opacity="1" /><path clip-path="url(#clip390)" d="M161.084 392.907 Q157.473 392.907 155.644 396.472 Q153.839 400.014 153.839 407.143 Q153.839 414.25 155.644 417.815 Q157.473 421.356 161.084 421.356 Q164.718 421.356 166.524 417.815 Q168.353 414.25 168.353 407.143 Q168.353 400.014 166.524 396.472 Q164.718 392.907 161.084 392.907 M161.084 389.204 Q166.894 389.204 169.95 393.81 Q173.029 398.393 173.029 407.143 Q173.029 415.87 169.95 420.477 Q166.894 425.06 161.084 425.06 Q155.274 425.06 152.195 420.477 Q149.14 415.87 149.14 407.143 Q149.14 398.393 152.195 393.81 Q155.274 389.204 161.084 389.204 Z" fill="#000000" fill-rule="nonzero" fill-opacity="1" /><path clip-path="url(#clip390)" d="M50.9921 216.985 L80.6679 216.985 L80.6679 220.921 L50.9921 220.921 L50.9921 216.985 Z" fill="#000000" fill-rule="nonzero" fill-opacity="1" /><path clip-path="url(#clip390)" d="M91.5706 229.879 L99.2095 229.879 L99.2095 203.513 L90.8993 205.18 L90.8993 200.921 L99.1632 199.254 L103.839 199.254 L103.839 229.879 L111.478 229.879 L111.478 233.814 L91.5706 233.814 L91.5706 229.879 Z" fill="#000000" fill-rule="nonzero" fill-opacity="1" /><path clip-path="url(#clip390)" d="M133.769 203.328 L121.964 221.777 L133.769 221.777 L133.769 203.328 M132.543 199.254 L138.422 199.254 L138.422 221.777 L143.353 221.777 L143.353 225.666 L138.422 225.666 L138.422 233.814 L133.769 233.814 L133.769 225.666 L118.168 225.666 L118.168 221.152 L132.543 199.254 Z" fill="#000000" fill-rule="nonzero" fill-opacity="1" /><path clip-path="url(#clip390)" d="M161.084 202.333 Q157.473 202.333 155.644 205.898 Q153.839 209.439 153.839 216.569 Q153.839 223.675 155.644 227.24 Q157.473 230.782 161.084 230.782 Q164.718 230.782 166.524 227.24 Q168.353 223.675 168.353 216.569 Q168.353 209.439 166.524 205.898 Q164.718 202.333 161.084 202.333 M161.084 198.629 Q166.894 198.629 169.95 203.235 Q173.029 207.819 173.029 216.569 Q173.029 225.296 169.95 229.902 Q166.894 234.485 161.084 234.485 Q155.274 234.485 152.195 229.902 Q149.14 225.296 149.14 216.569 Q149.14 207.819 152.195 203.235 Q155.274 198.629 161.084 198.629 Z" fill="#000000" fill-rule="nonzero" fill-opacity="1" /><polyline clip-path="url(#clip392)" style="stroke:#009af9; stroke-linecap:round; stroke-linejoin:round; stroke-width:4; stroke-opacity:1; fill:none" points="269.7,1445.72 2292.08,87.9763 "/>
<path clip-path="url(#clip390)" d="M280.486 198.898 L547.289 198.898 L547.289 95.2176 L280.486 95.2176  Z" fill="#ffffff" fill-rule="evenodd" fill-opacity="1"/>
<polyline clip-path="url(#clip390)" style="stroke:#000000; stroke-linecap:round; stroke-linejoin:round; stroke-width:4; stroke-opacity:1; fill:none" points="280.486,198.898 547.289,198.898 547.289,95.2176 280.486,95.2176 280.486,198.898 "/>
<polyline clip-path="url(#clip390)" style="stroke:#009af9; stroke-linecap:round; stroke-linejoin:round; stroke-width:4; stroke-opacity:1; fill:none" points="304.305,147.058 447.22,147.058 "/>
<path clip-path="url(#clip390)" d="M484.882 166.745 Q483.077 171.375 481.364 172.787 Q479.651 174.199 476.78 174.199 L473.378 174.199 L473.378 170.634 L475.878 170.634 Q477.637 170.634 478.609 169.8 Q479.581 168.967 480.762 165.865 L481.526 163.921 L471.04 138.412 L475.554 138.412 L483.655 158.689 L491.757 138.412 L496.271 138.412 L484.882 166.745 Z" fill="#000000" fill-rule="nonzero" fill-opacity="1" /><path clip-path="url(#clip390)" d="M503.563 160.402 L511.201 160.402 L511.201 134.037 L502.891 135.703 L502.891 131.444 L511.155 129.778 L515.831 129.778 L515.831 160.402 L523.47 160.402 L523.47 164.338 L503.563 164.338 L503.563 160.402 Z" fill="#000000" fill-rule="nonzero" fill-opacity="1" /></svg>
