<?xml version="1.0" encoding="utf-8"?>
<svg xmlns="http://www.w3.org/2000/svg" xmlns:xlink="http://www.w3.org/1999/xlink" width="600" height="400" viewBox="0 0 2400 1600">
<defs>
  <clipPath id="clip140">
    <rect x="0" y="0" width="2400" height="1600"/>
  </clipPath>
</defs>
<path clip-path="url(#clip140)" d="M0 1600 L2400 1600 L2400 0 L0 0  Z" fill="#ffffff" fill-rule="evenodd" fill-opacity="1"/>
<defs>
  <clipPath id="clip141">
    <rect x="480" y="0" width="1681" height="1600"/>
  </clipPath>
</defs>
<path clip-path="url(#clip140)" d="M209.029 1486.45 L2352.76 1486.45 L2352.76 47.2441 L209.029 47.2441  Z" fill="#ffffff" fill-rule="evenodd" fill-opacity="1"/>
<defs>
  <clipPath id="clip142">
    <rect x="209" y="47" width="2145" height="1440"/>
  </clipPath>
</defs>
<polyline clip-path="url(#clip142)" style="stroke:#000000; stroke-linecap:round; stroke-linejoin:round; stroke-width:2; stroke-opacity:0.1; fill:none" points="269.7,1486.45 269.7,47.2441 "/>
<polyline clip-path="url(#clip142)" style="stroke:#000000; stroke-linecap:round; stroke-linejoin:round; stroke-width:2; stroke-opacity:0.1; fill:none" points="775.549,1486.45 775.549,47.2441 "/>
<polyline clip-path="url(#clip142)" style="stroke:#000000; stroke-linecap:round; stroke-linejoin:round; stroke-width:2; stroke-opacity:0.1; fill:none" points="1281.4,1486.45 1281.4,47.2441 "/>
<polyline clip-path="url(#clip142)" style="stroke:#000000; stroke-linecap:round; stroke-linejoin:round; stroke-width:2; stroke-opacity:0.1; fill:none" points="1787.25,1486.45 1787.25,47.2441 "/>
<polyline clip-path="url(#clip142)" style="stroke:#000000; stroke-linecap:round; stroke-linejoin:round; stroke-width:2; stroke-opacity:0.1; fill:none" points="2293.1,1486.45 2293.1,47.2441 "/>
<polyline clip-path="url(#clip140)" style="stroke:#000000; stroke-linecap:round; stroke-linejoin:round; stroke-width:4; stroke-opacity:1; fill:none" points="209.029,1486.45 2352.76,1486.45 "/>
<polyline clip-path="url(#clip140)" style="stroke:#000000; stroke-linecap:round; stroke-linejoin:round; stroke-width:4; stroke-opacity:1; fill:none" points="269.7,1486.45 269.7,1467.55 "/>
<polyline clip-path="url(#clip140)" style="stroke:#000000; stroke-linecap:round; stroke-linejoin:round; stroke-width:4; stroke-opacity:1; fill:none" points="775.549,1486.45 775.549,1467.55 "/>
<polyline clip-path="url(#clip140)" style="stroke:#000000; stroke-linecap:round; stroke-linejoin:round; stroke-width:4; stroke-opacity:1; fill:none" points="1281.4,1486.45 1281.4,1467.55 "/>
<polyline clip-path="url(#clip140)" style="stroke:#000000; stroke-linecap:round; stroke-linejoin:round; stroke-width:4; stroke-opacity:1; fill:none" points="1787.25,1486.45 1787.25,1467.55 "/>
<polyline clip-path="url(#clip140)" style="stroke:#000000; stroke-linecap:round; stroke-linejoin:round; stroke-width:4; stroke-opacity:1; fill:none" points="2293.1,1486.45 2293.1,1467.55 "/>
<path clip-path="url(#clip140)" d="M269.7 1517.37 Q266.089 1517.37 264.26 1520.93 Q262.455 1524.47 262.455 1531.6 Q262.455 1538.71 264.26 1542.27 Q266.089 1545.82 269.7 1545.82 Q273.334 1545.82 275.14 1542.27 Q276.969 1538.71 276.969 1531.6 Q276.969 1524.47 275.14 1520.93 Q273.334 1517.37 269.7 1517.37 M269.7 1513.66 Q275.51 1513.66 278.566 1518.27 Q281.644 1522.85 281.644 1531.6 Q281.644 1540.33 278.566 1544.94 Q275.51 1549.52 269.7 1549.52 Q263.89 1549.52 260.811 1544.94 Q257.756 1540.33 257.756 1531.6 Q257.756 1522.85 260.811 1518.27 Q263.89 1513.66 269.7 1513.66 Z" fill="#000000" fill-rule="nonzero" fill-opacity="1" /><path clip-path="url(#clip140)" d="M735.167 1514.29 L753.524 1514.29 L753.524 1518.22 L739.45 1518.22 L739.45 1526.7 Q740.468 1526.35 741.487 1526.19 Q742.505 1526 743.524 1526 Q749.311 1526 752.69 1529.17 Q756.07 1532.34 756.07 1537.76 Q756.07 1543.34 752.598 1546.44 Q749.126 1549.52 742.806 1549.52 Q740.63 1549.52 738.362 1549.15 Q736.116 1548.78 733.709 1548.04 L733.709 1543.34 Q735.792 1544.47 738.015 1545.03 Q740.237 1545.58 742.714 1545.58 Q746.718 1545.58 749.056 1543.48 Q751.394 1541.37 751.394 1537.76 Q751.394 1534.15 749.056 1532.04 Q746.718 1529.94 742.714 1529.94 Q740.839 1529.94 738.964 1530.35 Q737.112 1530.77 735.167 1531.65 L735.167 1514.29 Z" fill="#000000" fill-rule="nonzero" fill-opacity="1" /><path clip-path="url(#clip140)" d="M775.283 1517.37 Q771.672 1517.37 769.843 1520.93 Q768.038 1524.47 768.038 1531.6 Q768.038 1538.71 769.843 1542.27 Q771.672 1545.82 775.283 1545.82 Q778.917 1545.82 780.723 1542.27 Q782.551 1538.71 782.551 1531.6 Q782.551 1524.47 780.723 1520.93 Q778.917 1517.37 775.283 1517.37 M775.283 1513.66 Q781.093 1513.66 784.149 1518.27 Q787.227 1522.85 787.227 1531.6 Q787.227 1540.33 784.149 1544.94 Q781.093 1549.52 775.283 1549.52 Q769.473 1549.52 766.394 1544.94 Q763.338 1540.33 763.338 1531.6 Q763.338 1522.85 766.394 1518.27 Q769.473 1513.66 775.283 1513.66 Z" fill="#000000" fill-rule="nonzero" fill-opacity="1" /><path clip-path="url(#clip140)" d="M805.445 1517.37 Q801.834 1517.37 800.005 1520.93 Q798.199 1524.47 798.199 1531.6 Q798.199 1538.71 800.005 1542.27 Q801.834 1545.82 805.445 1545.82 Q809.079 1545.82 810.885 1542.27 Q812.713 1538.71 812.713 1531.6 Q812.713 1524.47 810.885 1520.93 Q809.079 1517.37 805.445 1517.37 M805.445 1513.66 Q811.255 1513.66 814.31 1518.27 Q817.389 1522.85 817.389 1531.6 Q817.389 1540.33 814.31 1544.94 Q811.255 1549.52 805.445 1549.52 Q799.635 1549.52 796.556 1544.94 Q793.5 1540.33 793.5 1531.6 Q793.5 1522.85 796.556 1518.27 Q799.635 1513.66 805.445 1513.66 Z" fill="#000000" fill-rule="nonzero" fill-opacity="1" /><path clip-path="url(#clip140)" d="M1225.92 1544.91 L1233.56 1544.91 L1233.56 1518.55 L1225.25 1520.21 L1225.25 1515.95 L1233.52 1514.29 L1238.19 1514.29 L1238.19 1544.91 L1245.83 1544.91 L1245.83 1548.85 L1225.92 1548.85 L1225.92 1544.91 Z" fill="#000000" fill-rule="nonzero" fill-opacity="1" /><path clip-path="url(#clip140)" d="M1265.28 1517.37 Q1261.66 1517.37 1259.84 1520.93 Q1258.03 1524.47 1258.03 1531.6 Q1258.03 1538.71 1259.84 1542.27 Q1261.66 1545.82 1265.28 1545.82 Q1268.91 1545.82 1270.72 1542.27 Q1272.54 1538.71 1272.54 1531.6 Q1272.54 1524.47 1270.72 1520.93 Q1268.91 1517.37 1265.28 1517.37 M1265.28 1513.66 Q1271.09 1513.66 1274.14 1518.27 Q1277.22 1522.85 1277.22 1531.6 Q1277.22 1540.33 1274.14 1544.94 Q1271.09 1549.52 1265.28 1549.52 Q1259.47 1549.52 1256.39 1544.94 Q1253.33 1540.33 1253.33 1531.6 Q1253.33 1522.85 1256.39 1518.27 Q1259.47 1513.66 1265.28 1513.66 Z" fill="#000000" fill-rule="nonzero" fill-opacity="1" /><path clip-path="url(#clip140)" d="M1295.44 1517.37 Q1291.83 1517.37 1290 1520.93 Q1288.19 1524.47 1288.19 1531.6 Q1288.19 1538.71 1290 1542.27 Q1291.83 1545.82 1295.44 1545.82 Q1299.07 1545.82 1300.88 1542.27 Q1302.71 1538.71 1302.71 1531.6 Q1302.71 1524.47 1300.88 1520.93 Q1299.07 1517.37 1295.44 1517.37 M1295.44 1513.66 Q1301.25 1513.66 1304.3 1518.27 Q1307.38 1522.85 1307.38 1531.6 Q1307.38 1540.33 1304.3 1544.94 Q1301.25 1549.52 1295.44 1549.52 Q1289.63 1549.52 1286.55 1544.94 Q1283.49 1540.33 1283.49 1531.6 Q1283.49 1522.85 1286.55 1518.27 Q1289.63 1513.66 1295.44 1513.66 Z" fill="#000000" fill-rule="nonzero" fill-opacity="1" /><path clip-path="url(#clip140)" d="M1325.6 1517.37 Q1321.99 1517.37 1320.16 1520.93 Q1318.35 1524.47 1318.35 1531.6 Q1318.35 1538.71 1320.16 1542.27 Q1321.99 1545.82 1325.6 1545.82 Q1329.23 1545.82 1331.04 1542.27 Q1332.87 1538.71 1332.87 1531.6 Q1332.87 1524.47 1331.04 1520.93 Q1329.23 1517.37 1325.6 1517.37 M1325.6 1513.66 Q1331.41 1513.66 1334.46 1518.27 Q1337.54 1522.85 1337.54 1531.6 Q1337.54 1540.33 1334.46 1544.94 Q1331.41 1549.52 1325.6 1549.52 Q1319.79 1549.52 1316.71 1544.94 Q1313.65 1540.33 1313.65 1531.6 Q1313.65 1522.85 1316.71 1518.27 Q1319.79 1513.66 1325.6 1513.66 Z" fill="#000000" fill-rule="nonzero" fill-opacity="1" /><path clip-path="url(#clip140)" d="M1731.77 1544.91 L1739.41 1544.91 L1739.41 1518.55 L1731.1 1520.21 L1731.1 1515.95 L1739.37 1514.29 L1744.04 1514.29 L1744.04 1544.91 L1751.68 1544.91 L1751.68 1548.85 L1731.77 1548.85 L1731.77 1544.91 Z" fill="#000000" fill-rule="nonzero" fill-opacity="1" /><path clip-path="url(#clip140)" d="M1761.17 1514.29 L1779.53 1514.29 L1779.53 1518.22 L1765.45 1518.22 L1765.45 1526.7 Q1766.47 1526.35 1767.49 1526.19 Q1768.51 1526 1769.53 1526 Q1775.31 1526 1778.69 1529.17 Q1782.07 1532.34 1782.07 1537.76 Q1782.07 1543.34 1778.6 1546.44 Q1775.13 1549.52 1768.81 1549.52 Q1766.63 1549.52 1764.37 1549.15 Q1762.12 1548.78 1759.71 1548.04 L1759.71 1543.34 Q1761.8 1544.47 1764.02 1545.03 Q1766.24 1545.58 1768.72 1545.58 Q1772.72 1545.58 1775.06 1543.48 Q1777.4 1541.37 1777.4 1537.76 Q1777.4 1534.15 1775.06 1532.04 Q1772.72 1529.94 1768.72 1529.94 Q1766.84 1529.94 1764.97 1530.35 Q1763.12 1530.77 1761.17 1531.65 L1761.17 1514.29 Z" fill="#000000" fill-rule="nonzero" fill-opacity="1" /><path clip-path="url(#clip140)" d="M1801.29 1517.37 Q1797.68 1517.37 1795.85 1520.93 Q1794.04 1524.47 1794.04 1531.6 Q1794.04 1538.71 1795.85 1542.27 Q1797.68 1545.82 1801.29 1545.82 Q1804.92 1545.82 1806.73 1542.27 Q1808.55 1538.71 1808.55 1531.6 Q1808.55 1524.47 1806.73 1520.93 Q1804.92 1517.37 1801.29 1517.37 M1801.29 1513.66 Q1807.1 1513.66 1810.15 1518.27 Q1813.23 1522.85 1813.23 1531.6 Q1813.23 1540.33 1810.15 1544.94 Q1807.1 1549.52 1801.29 1549.52 Q1795.48 1549.52 1792.4 1544.94 Q1789.34 1540.33 1789.34 1531.6 Q1789.34 1522.85 1792.4 1518.27 Q1795.48 1513.66 1801.29 1513.66 Z" fill="#000000" fill-rule="nonzero" fill-opacity="1" /><path clip-path="url(#clip140)" d="M1831.45 1517.37 Q1827.84 1517.37 1826.01 1520.93 Q1824.2 1524.47 1824.2 1531.6 Q1824.2 1538.71 1826.01 1542.27 Q1827.84 1545.82 1831.45 1545.82 Q1835.08 1545.82 1836.89 1542.27 Q1838.72 1538.71 1838.72 1531.6 Q1838.72 1524.47 1836.89 1520.93 Q1835.08 1517.37 1831.45 1517.37 M1831.45 1513.66 Q1837.26 1513.66 1840.31 1518.27 Q1843.39 1522.85 1843.39 1531.6 Q1843.39 1540.33 1840.31 1544.94 Q1837.26 1549.52 1831.45 1549.52 Q1825.64 1549.52 1822.56 1544.94 Q1819.5 1540.33 1819.5 1531.6 Q1819.5 1522.85 1822.56 1518.27 Q1825.64 1513.66 1831.45 1513.66 Z" fill="#000000" fill-rule="nonzero" fill-opacity="1" /><path clip-path="url(#clip140)" d="M2241.71 1544.91 L2258.03 1544.91 L2258.03 1548.85 L2236.08 1548.85 L2236.08 1544.91 Q2238.74 1542.16 2243.33 1537.53 Q2247.93 1532.88 2249.11 1531.53 Q2251.36 1529.01 2252.24 1527.27 Q2253.14 1525.51 2253.14 1523.82 Q2253.14 1521.07 2251.2 1519.33 Q2249.28 1517.6 2246.18 1517.6 Q2243.98 1517.6 2241.52 1518.36 Q2239.09 1519.13 2236.31 1520.68 L2236.31 1515.95 Q2239.14 1514.82 2241.59 1514.24 Q2244.05 1513.66 2246.08 1513.66 Q2251.45 1513.66 2254.65 1516.35 Q2257.84 1519.03 2257.84 1523.52 Q2257.84 1525.65 2257.03 1527.57 Q2256.24 1529.47 2254.14 1532.07 Q2253.56 1532.74 2250.46 1535.95 Q2247.36 1539.15 2241.71 1544.91 Z" fill="#000000" fill-rule="nonzero" fill-opacity="1" /><path clip-path="url(#clip140)" d="M2277.84 1517.37 Q2274.23 1517.37 2272.4 1520.93 Q2270.6 1524.47 2270.6 1531.6 Q2270.6 1538.71 2272.4 1542.27 Q2274.23 1545.82 2277.84 1545.82 Q2281.48 1545.82 2283.28 1542.27 Q2285.11 1538.71 2285.11 1531.6 Q2285.11 1524.47 2283.28 1520.93 Q2281.48 1517.37 2277.84 1517.37 M2277.84 1513.66 Q2283.65 1513.66 2286.71 1518.27 Q2289.79 1522.85 2289.79 1531.6 Q2289.79 1540.33 2286.71 1544.94 Q2283.65 1549.52 2277.84 1549.52 Q2272.03 1549.52 2268.95 1544.94 Q2265.9 1540.33 2265.9 1531.6 Q2265.9 1522.85 2268.95 1518.27 Q2272.03 1513.66 2277.84 1513.66 Z" fill="#000000" fill-rule="nonzero" fill-opacity="1" /><path clip-path="url(#clip140)" d="M2308 1517.37 Q2304.39 1517.37 2302.56 1520.93 Q2300.76 1524.47 2300.76 1531.6 Q2300.76 1538.71 2302.56 1542.27 Q2304.39 1545.82 2308 1545.82 Q2311.64 1545.82 2313.44 1542.27 Q2315.27 1538.71 2315.27 1531.6 Q2315.27 1524.47 2313.44 1520.93 Q2311.64 1517.37 2308 1517.37 M2308 1513.66 Q2313.81 1513.66 2316.87 1518.27 Q2319.95 1522.85 2319.95 1531.6 Q2319.95 1540.33 2316.87 1544.94 Q2313.81 1549.52 2308 1549.52 Q2302.19 1549.52 2299.11 1544.94 Q2296.06 1540.33 2296.06 1531.6 Q2296.06 1522.85 2299.11 1518.27 Q2302.19 1513.66 2308 1513.66 Z" fill="#000000" fill-rule="nonzero" fill-opacity="1" /><path clip-path="url(#clip140)" d="M2338.17 1517.37 Q2334.55 1517.37 2332.73 1520.93 Q2330.92 1524.47 2330.92 1531.6 Q2330.92 1538.71 2332.73 1542.27 Q2334.55 1545.82 2338.17 1545.82 Q2341.8 1545.82 2343.61 1542.27 Q2345.43 1538.71 2345.43 1531.6 Q2345.43 1524.47 2343.61 1520.93 Q2341.8 1517.37 2338.17 1517.37 M2338.17 1513.66 Q2343.98 1513.66 2347.03 1518.27 Q2350.11 1522.85 2350.11 1531.6 Q2350.11 1540.33 2347.03 1544.94 Q2343.98 1549.52 2338.17 1549.52 Q2332.36 1549.52 2329.28 1544.94 Q2326.22 1540.33 2326.22 1531.6 Q2326.22 1522.85 2329.28 1518.27 Q2332.36 1513.66 2338.17 1513.66 Z" fill="#000000" fill-rule="nonzero" fill-opacity="1" /><polyline clip-path="url(#clip142)" style="stroke:#000000; stroke-linecap:round; stroke-linejoin:round; stroke-width:2; stroke-opacity:0.1; fill:none" points="209.029,1454.5 2352.76,1454.5 "/>
<polyline clip-path="url(#clip142)" style="stroke:#000000; stroke-linecap:round; stroke-linejoin:round; stroke-width:2; stroke-opacity:0.1; fill:none" points="209.029,1243.65 2352.76,1243.65 "/>
<polyline clip-path="url(#clip142)" style="stroke:#000000; stroke-linecap:round; stroke-linejoin:round; stroke-width:2; stroke-opacity:0.1; fill:none" points="209.029,1032.81 2352.76,1032.81 "/>
<polyline clip-path="url(#clip142)" style="stroke:#000000; stroke-linecap:round; stroke-linejoin:round; stroke-width:2; stroke-opacity:0.1; fill:none" points="209.029,821.962 2352.76,821.962 "/>
<polyline clip-path="url(#clip142)" style="stroke:#000000; stroke-linecap:round; stroke-linejoin:round; stroke-width:2; stroke-opacity:0.1; fill:none" points="209.029,611.117 2352.76,611.117 "/>
<polyline clip-path="url(#clip142)" style="stroke:#000000; stroke-linecap:round; stroke-linejoin:round; stroke-width:2; stroke-opacity:0.1; fill:none" points="209.029,400.272 2352.76,400.272 "/>
<polyline clip-path="url(#clip142)" style="stroke:#000000; stroke-linecap:round; stroke-linejoin:round; stroke-width:2; stroke-opacity:0.1; fill:none" points="209.029,189.428 2352.76,189.428 "/>
<polyline clip-path="url(#clip140)" style="stroke:#000000; stroke-linecap:round; stroke-linejoin:round; stroke-width:4; stroke-opacity:1; fill:none" points="209.029,1486.45 209.029,47.2441 "/>
<polyline clip-path="url(#clip140)" style="stroke:#000000; stroke-linecap:round; stroke-linejoin:round; stroke-width:4; stroke-opacity:1; fill:none" points="209.029,1454.5 227.926,1454.5 "/>
<polyline clip-path="url(#clip140)" style="stroke:#000000; stroke-linecap:round; stroke-linejoin:round; stroke-width:4; stroke-opacity:1; fill:none" points="209.029,1243.65 227.926,1243.65 "/>
<polyline clip-path="url(#clip140)" style="stroke:#000000; stroke-linecap:round; stroke-linejoin:round; stroke-width:4; stroke-opacity:1; fill:none" points="209.029,1032.81 227.926,1032.81 "/>
<polyline clip-path="url(#clip140)" style="stroke:#000000; stroke-linecap:round; stroke-linejoin:round; stroke-width:4; stroke-opacity:1; fill:none" points="209.029,821.962 227.926,821.962 "/>
<polyline clip-path="url(#clip140)" style="stroke:#000000; stroke-linecap:round; stroke-linejoin:round; stroke-width:4; stroke-opacity:1; fill:none" points="209.029,611.117 227.926,611.117 "/>
<polyline clip-path="url(#clip140)" style="stroke:#000000; stroke-linecap:round; stroke-linejoin:round; stroke-width:4; stroke-opacity:1; fill:none" points="209.029,400.272 227.926,400.272 "/>
<polyline clip-path="url(#clip140)" style="stroke:#000000; stroke-linecap:round; stroke-linejoin:round; stroke-width:4; stroke-opacity:1; fill:none" points="209.029,189.428 227.926,189.428 "/>
<path clip-path="url(#clip140)" d="M50.9921 1454.95 L80.6679 1454.95 L80.6679 1458.88 L50.9921 1458.88 L50.9921 1454.95 Z" fill="#000000" fill-rule="nonzero" fill-opacity="1" /><path clip-path="url(#clip140)" d="M89.5799 1437.22 L111.802 1437.22 L111.802 1439.21 L99.2558 1471.78 L94.3715 1471.78 L106.177 1441.15 L89.5799 1441.15 L89.5799 1437.22 Z" fill="#000000" fill-rule="nonzero" fill-opacity="1" /><path clip-path="url(#clip140)" d="M130.922 1440.3 Q127.311 1440.3 125.482 1443.86 Q123.677 1447.4 123.677 1454.53 Q123.677 1461.64 125.482 1465.2 Q127.311 1468.74 130.922 1468.74 Q134.556 1468.74 136.362 1465.2 Q138.191 1461.64 138.191 1454.53 Q138.191 1447.4 136.362 1443.86 Q134.556 1440.3 130.922 1440.3 M130.922 1436.59 Q136.732 1436.59 139.788 1441.2 Q142.867 1445.78 142.867 1454.53 Q142.867 1463.26 139.788 1467.86 Q136.732 1472.45 130.922 1472.45 Q125.112 1472.45 122.033 1467.86 Q118.978 1463.26 118.978 1454.53 Q118.978 1445.78 122.033 1441.2 Q125.112 1436.59 130.922 1436.59 Z" fill="#000000" fill-rule="nonzero" fill-opacity="1" /><path clip-path="url(#clip140)" d="M161.084 1440.3 Q157.473 1440.3 155.644 1443.86 Q153.839 1447.4 153.839 1454.53 Q153.839 1461.64 155.644 1465.2 Q157.473 1468.74 161.084 1468.74 Q164.718 1468.74 166.524 1465.2 Q168.353 1461.64 168.353 1454.53 Q168.353 1447.4 166.524 1443.86 Q164.718 1440.3 161.084 1440.3 M161.084 1436.59 Q166.894 1436.59 169.95 1441.2 Q173.029 1445.78 173.029 1454.53 Q173.029 1463.26 169.95 1467.86 Q166.894 1472.45 161.084 1472.45 Q155.274 1472.45 152.195 1467.86 Q149.14 1463.26 149.14 1454.53 Q149.14 1445.78 152.195 1441.2 Q155.274 1436.59 161.084 1436.59 Z" fill="#000000" fill-rule="nonzero" fill-opacity="1" /><path clip-path="url(#clip140)" d="M50.9921 1244.1 L80.6679 1244.1 L80.6679 1248.04 L50.9921 1248.04 L50.9921 1244.1 Z" fill="#000000" fill-rule="nonzero" fill-opacity="1" /><path clip-path="url(#clip140)" d="M101.339 1241.79 Q98.1909 1241.79 96.3391 1243.94 Q94.5104 1246.09 94.5104 1249.84 Q94.5104 1253.57 96.3391 1255.75 Q98.1909 1257.9 101.339 1257.9 Q104.487 1257.9 106.316 1255.75 Q108.168 1253.57 108.168 1249.84 Q108.168 1246.09 106.316 1243.94 Q104.487 1241.79 101.339 1241.79 M110.621 1227.14 L110.621 1231.39 Q108.862 1230.56 107.057 1230.12 Q105.274 1229.68 103.515 1229.68 Q98.8854 1229.68 96.4317 1232.81 Q94.0012 1235.93 93.6539 1242.25 Q95.0197 1240.24 97.0798 1239.17 Q99.14 1238.08 101.617 1238.08 Q106.825 1238.08 109.834 1241.26 Q112.867 1244.4 112.867 1249.84 Q112.867 1255.17 109.719 1258.39 Q106.571 1261.6 101.339 1261.6 Q95.3437 1261.6 92.1725 1257.02 Q89.0012 1252.41 89.0012 1243.69 Q89.0012 1235.49 92.89 1230.63 Q96.7789 1225.75 103.33 1225.75 Q105.089 1225.75 106.871 1226.09 Q108.677 1226.44 110.621 1227.14 Z" fill="#000000" fill-rule="nonzero" fill-opacity="1" /><path clip-path="url(#clip140)" d="M130.922 1229.45 Q127.311 1229.45 125.482 1233.02 Q123.677 1236.56 123.677 1243.69 Q123.677 1250.79 125.482 1254.36 Q127.311 1257.9 130.922 1257.9 Q134.556 1257.9 136.362 1254.36 Q138.191 1250.79 138.191 1243.69 Q138.191 1236.56 136.362 1233.02 Q134.556 1229.45 130.922 1229.45 M130.922 1225.75 Q136.732 1225.75 139.788 1230.35 Q142.867 1234.94 142.867 1243.69 Q142.867 1252.41 139.788 1257.02 Q136.732 1261.6 130.922 1261.6 Q125.112 1261.6 122.033 1257.02 Q118.978 1252.41 118.978 1243.69 Q118.978 1234.94 122.033 1230.35 Q125.112 1225.75 130.922 1225.75 Z" fill="#000000" fill-rule="nonzero" fill-opacity="1" /><path clip-path="url(#clip140)" d="M161.084 1229.45 Q157.473 1229.45 155.644 1233.02 Q153.839 1236.56 153.839 1243.69 Q153.839 1250.79 155.644 1254.36 Q157.473 1257.9 161.084 1257.9 Q164.718 1257.9 166.524 1254.36 Q168.353 1250.79 168.353 1243.69 Q168.353 1236.56 166.524 1233.02 Q164.718 1229.45 161.084 1229.45 M161.084 1225.75 Q166.894 1225.75 169.95 1230.35 Q173.029 1234.94 173.029 1243.69 Q173.029 1252.41 169.95 1257.02 Q166.894 1261.6 161.084 1261.6 Q155.274 1261.6 152.195 1257.02 Q149.14 1252.41 149.14 1243.69 Q149.14 1234.94 152.195 1230.35 Q155.274 1225.75 161.084 1225.75 Z" fill="#000000" fill-rule="nonzero" fill-opacity="1" /><path clip-path="url(#clip140)" d="M50.9921 1033.26 L80.6679 1033.26 L80.6679 1037.19 L50.9921 1037.19 L50.9921 1033.26 Z" fill="#000000" fill-rule="nonzero" fill-opacity="1" /><path clip-path="url(#clip140)" d="M90.8067 1015.53 L109.163 1015.53 L109.163 1019.46 L95.0891 1019.46 L95.0891 1027.93 Q96.1076 1027.59 97.1261 1027.42 Q98.1447 1027.24 99.1632 1027.24 Q104.95 1027.24 108.33 1030.41 Q111.709 1033.58 111.709 1039 Q111.709 1044.58 108.237 1047.68 Q104.765 1050.76 98.4456 1050.76 Q96.2697 1050.76 94.0012 1050.39 Q91.7558 1050.02 89.3484 1049.28 L89.3484 1044.58 Q91.4317 1045.71 93.6539 1046.27 Q95.8761 1046.82 98.353 1046.82 Q102.358 1046.82 104.696 1044.72 Q107.033 1042.61 107.033 1039 Q107.033 1035.39 104.696 1033.28 Q102.358 1031.17 98.353 1031.17 Q96.478 1031.17 94.603 1031.59 Q92.7512 1032.01 90.8067 1032.89 L90.8067 1015.53 Z" fill="#000000" fill-rule="nonzero" fill-opacity="1" /><path clip-path="url(#clip140)" d="M130.922 1018.61 Q127.311 1018.61 125.482 1022.17 Q123.677 1025.71 123.677 1032.84 Q123.677 1039.95 125.482 1043.51 Q127.311 1047.05 130.922 1047.05 Q134.556 1047.05 136.362 1043.51 Q138.191 1039.95 138.191 1032.84 Q138.191 1025.71 136.362 1022.17 Q134.556 1018.61 130.922 1018.61 M130.922 1014.9 Q136.732 1014.9 139.788 1019.51 Q142.867 1024.09 142.867 1032.84 Q142.867 1041.57 139.788 1046.17 Q136.732 1050.76 130.922 1050.76 Q125.112 1050.76 122.033 1046.17 Q118.978 1041.57 118.978 1032.84 Q118.978 1024.09 122.033 1019.51 Q125.112 1014.9 130.922 1014.9 Z" fill="#000000" fill-rule="nonzero" fill-opacity="1" /><path clip-path="url(#clip140)" d="M161.084 1018.61 Q157.473 1018.61 155.644 1022.17 Q153.839 1025.71 153.839 1032.84 Q153.839 1039.95 155.644 1043.51 Q157.473 1047.05 161.084 1047.05 Q164.718 1047.05 166.524 1043.51 Q168.353 1039.95 168.353 1032.84 Q168.353 1025.71 166.524 1022.17 Q164.718 1018.61 161.084 1018.61 M161.084 1014.9 Q166.894 1014.9 169.95 1019.51 Q173.029 1024.09 173.029 1032.84 Q173.029 1041.57 169.95 1046.17 Q166.894 1050.76 161.084 1050.76 Q155.274 1050.76 152.195 1046.17 Q149.14 1041.57 149.14 1032.84 Q149.14 1024.09 152.195 1019.51 Q155.274 1014.9 161.084 1014.9 Z" fill="#000000" fill-rule="nonzero" fill-opacity="1" /><path clip-path="url(#clip140)" d="M50.9921 822.413 L80.6679 822.413 L80.6679 826.349 L50.9921 826.349 L50.9921 822.413 Z" fill="#000000" fill-rule="nonzero" fill-opacity="1" /><path clip-path="url(#clip140)" d="M103.608 808.756 L91.8021 827.205 L103.608 827.205 L103.608 808.756 M102.381 804.682 L108.26 804.682 L108.26 827.205 L113.191 827.205 L113.191 831.094 L108.26 831.094 L108.26 839.242 L103.608 839.242 L103.608 831.094 L88.0058 831.094 L88.0058 826.58 L102.381 804.682 Z" fill="#000000" fill-rule="nonzero" fill-opacity="1" /><path clip-path="url(#clip140)" d="M130.922 807.761 Q127.311 807.761 125.482 811.326 Q123.677 814.867 123.677 821.997 Q123.677 829.103 125.482 832.668 Q127.311 836.21 130.922 836.21 Q134.556 836.21 136.362 832.668 Q138.191 829.103 138.191 821.997 Q138.191 814.867 136.362 811.326 Q134.556 807.761 130.922 807.761 M130.922 804.057 Q136.732 804.057 139.788 808.663 Q142.867 813.247 142.867 821.997 Q142.867 830.724 139.788 835.33 Q136.732 839.913 130.922 839.913 Q125.112 839.913 122.033 835.33 Q118.978 830.724 118.978 821.997 Q118.978 813.247 122.033 808.663 Q125.112 804.057 130.922 804.057 Z" fill="#000000" fill-rule="nonzero" fill-opacity="1" /><path clip-path="url(#clip140)" d="M161.084 807.761 Q157.473 807.761 155.644 811.326 Q153.839 814.867 153.839 821.997 Q153.839 829.103 155.644 832.668 Q157.473 836.21 161.084 836.21 Q164.718 836.21 166.524 832.668 Q168.353 829.103 168.353 821.997 Q168.353 814.867 166.524 811.326 Q164.718 807.761 161.084 807.761 M161.084 804.057 Q166.894 804.057 169.95 808.663 Q173.029 813.247 173.029 821.997 Q173.029 830.724 169.95 835.33 Q166.894 839.913 161.084 839.913 Q155.274 839.913 152.195 835.33 Q149.14 830.724 149.14 821.997 Q149.14 813.247 152.195 808.663 Q155.274 804.057 161.084 804.057 Z" fill="#000000" fill-rule="nonzero" fill-opacity="1" /><path clip-path="url(#clip140)" d="M50.9921 611.569 L80.6679 611.569 L80.6679 615.504 L50.9921 615.504 L50.9921 611.569 Z" fill="#000000" fill-rule="nonzero" fill-opacity="1" /><path clip-path="url(#clip140)" d="M104.927 609.763 Q108.283 610.481 110.158 612.749 Q112.057 615.018 112.057 618.351 Q112.057 623.467 108.538 626.268 Q105.02 629.069 98.5382 629.069 Q96.3623 629.069 94.0475 628.629 Q91.7558 628.212 89.3021 627.356 L89.3021 622.842 Q91.2465 623.976 93.5613 624.555 Q95.8761 625.133 98.3993 625.133 Q102.797 625.133 105.089 623.397 Q107.404 621.661 107.404 618.351 Q107.404 615.295 105.251 613.582 Q103.121 611.846 99.3021 611.846 L95.2743 611.846 L95.2743 608.004 L99.4872 608.004 Q102.936 608.004 104.765 606.638 Q106.594 605.249 106.594 602.657 Q106.594 599.995 104.696 598.583 Q102.821 597.147 99.3021 597.147 Q97.3808 597.147 95.1817 597.564 Q92.9826 597.981 90.3438 598.86 L90.3438 594.694 Q93.0058 593.953 95.3206 593.583 Q97.6585 593.212 99.7187 593.212 Q105.043 593.212 108.145 595.643 Q111.246 598.05 111.246 602.171 Q111.246 605.041 109.603 607.032 Q107.959 608.999 104.927 609.763 Z" fill="#000000" fill-rule="nonzero" fill-opacity="1" /><path clip-path="url(#clip140)" d="M130.922 596.916 Q127.311 596.916 125.482 600.481 Q123.677 604.022 123.677 611.152 Q123.677 618.258 125.482 621.823 Q127.311 625.365 130.922 625.365 Q134.556 625.365 136.362 621.823 Q138.191 618.258 138.191 611.152 Q138.191 604.022 136.362 600.481 Q134.556 596.916 130.922 596.916 M130.922 593.212 Q136.732 593.212 139.788 597.819 Q142.867 602.402 142.867 611.152 Q142.867 619.879 139.788 624.485 Q136.732 629.069 130.922 629.069 Q125.112 629.069 122.033 624.485 Q118.978 619.879 118.978 611.152 Q118.978 602.402 122.033 597.819 Q125.112 593.212 130.922 593.212 Z" fill="#000000" fill-rule="nonzero" fill-opacity="1" /><path clip-path="url(#clip140)" d="M161.084 596.916 Q157.473 596.916 155.644 600.481 Q153.839 604.022 153.839 611.152 Q153.839 618.258 155.644 621.823 Q157.473 625.365 161.084 625.365 Q164.718 625.365 166.524 621.823 Q168.353 618.258 168.353 611.152 Q168.353 604.022 166.524 600.481 Q164.718 596.916 161.084 596.916 M161.084 593.212 Q166.894 593.212 169.95 597.819 Q173.029 602.402 173.029 611.152 Q173.029 619.879 169.95 624.485 Q166.894 629.069 161.084 629.069 Q155.274 629.069 152.195 624.485 Q149.14 619.879 149.14 611.152 Q149.14 602.402 152.195 597.819 Q155.274 593.212 161.084 593.212 Z" fill="#000000" fill-rule="nonzero" fill-opacity="1" /><path clip-path="url(#clip140)" d="M50.9921 400.724 L80.6679 400.724 L80.6679 404.659 L50.9921 404.659 L50.9921 400.724 Z" fill="#000000" fill-rule="nonzero" fill-opacity="1" /><path clip-path="url(#clip140)" d="M94.7882 413.617 L111.108 413.617 L111.108 417.552 L89.1632 417.552 L89.1632 413.617 Q91.8252 410.863 96.4085 406.233 Q101.015 401.58 102.196 400.238 Q104.441 397.715 105.321 395.978 Q106.223 394.219 106.223 392.529 Q106.223 389.775 104.279 388.039 Q102.358 386.303 99.2558 386.303 Q97.0567 386.303 94.603 387.066 Q92.1725 387.83 89.3947 389.381 L89.3947 384.659 Q92.2188 383.525 94.6724 382.946 Q97.1261 382.367 99.1632 382.367 Q104.534 382.367 107.728 385.053 Q110.922 387.738 110.922 392.228 Q110.922 394.358 110.112 396.279 Q109.325 398.178 107.219 400.77 Q106.64 401.441 103.538 404.659 Q100.436 407.853 94.7882 413.617 Z" fill="#000000" fill-rule="nonzero" fill-opacity="1" /><path clip-path="url(#clip140)" d="M130.922 386.071 Q127.311 386.071 125.482 389.636 Q123.677 393.178 123.677 400.307 Q123.677 407.414 125.482 410.978 Q127.311 414.52 130.922 414.52 Q134.556 414.52 136.362 410.978 Q138.191 407.414 138.191 400.307 Q138.191 393.178 136.362 389.636 Q134.556 386.071 130.922 386.071 M130.922 382.367 Q136.732 382.367 139.788 386.974 Q142.867 391.557 142.867 400.307 Q142.867 409.034 139.788 413.64 Q136.732 418.224 130.922 418.224 Q125.112 418.224 122.033 413.64 Q118.978 409.034 118.978 400.307 Q118.978 391.557 122.033 386.974 Q125.112 382.367 130.922 382.367 Z" fill="#000000" fill-rule="nonzero" fill-opacity="1" /><path clip-path="url(#clip140)" d="M161.084 386.071 Q157.473 386.071 155.644 389.636 Q153.839 393.178 153.839 400.307 Q153.839 407.414 155.644 410.978 Q157.473 414.52 161.084 414.52 Q164.718 414.52 166.524 410.978 Q168.353 407.414 168.353 400.307 Q168.353 393.178 166.524 389.636 Q164.718 386.071 161.084 386.071 M161.084 382.367 Q166.894 382.367 169.95 386.974 Q173.029 391.557 173.029 400.307 Q173.029 409.034 169.95 413.64 Q166.894 418.224 161.084 418.224 Q155.274 418.224 152.195 413.64 Q149.14 409.034 149.14 400.307 Q149.14 391.557 152.195 386.974 Q155.274 382.367 161.084 382.367 Z" fill="#000000" fill-rule="nonzero" fill-opacity="1" /><path clip-path="url(#clip140)" d="M50.9921 189.879 L80.6679 189.879 L80.6679 193.814 L50.9921 193.814 L50.9921 189.879 Z" fill="#000000" fill-rule="nonzero" fill-opacity="1" /><path clip-path="url(#clip140)" d="M91.5706 202.772 L99.2095 202.772 L99.2095 176.407 L90.8993 178.073 L90.8993 173.814 L99.1632 172.148 L103.839 172.148 L103.839 202.772 L111.478 202.772 L111.478 206.708 L91.5706 206.708 L91.5706 202.772 Z" fill="#000000" fill-rule="nonzero" fill-opacity="1" /><path clip-path="url(#clip140)" d="M130.922 175.226 Q127.311 175.226 125.482 178.791 Q123.677 182.333 123.677 189.462 Q123.677 196.569 125.482 200.134 Q127.311 203.675 130.922 203.675 Q134.556 203.675 136.362 200.134 Q138.191 196.569 138.191 189.462 Q138.191 182.333 136.362 178.791 Q134.556 175.226 130.922 175.226 M130.922 171.523 Q136.732 171.523 139.788 176.129 Q142.867 180.712 142.867 189.462 Q142.867 198.189 139.788 202.796 Q136.732 207.379 130.922 207.379 Q125.112 207.379 122.033 202.796 Q118.978 198.189 118.978 189.462 Q118.978 180.712 122.033 176.129 Q125.112 171.523 130.922 171.523 Z" fill="#000000" fill-rule="nonzero" fill-opacity="1" /><path clip-path="url(#clip140)" d="M161.084 175.226 Q157.473 175.226 155.644 178.791 Q153.839 182.333 153.839 189.462 Q153.839 196.569 155.644 200.134 Q157.473 203.675 161.084 203.675 Q164.718 203.675 166.524 200.134 Q168.353 196.569 168.353 189.462 Q168.353 182.333 166.524 178.791 Q164.718 175.226 161.084 175.226 M161.084 171.523 Q166.894 171.523 169.95 176.129 Q173.029 180.712 173.029 189.462 Q173.029 198.189 169.95 202.796 Q166.894 207.379 161.084 207.379 Q155.274 207.379 152.195 202.796 Q149.14 198.189 149.14 189.462 Q149.14 180.712 152.195 176.129 Q155.274 171.523 161.084 171.523 Z" fill="#000000" fill-rule="nonzero" fill-opacity="1" /><polyline clip-path="url(#clip142)" style="stroke:#009af9; stroke-linecap:round; stroke-linejoin:round; stroke-width:4; stroke-opacity:1; fill:none" points="269.7,167.753 270.712,167.658 271.723,254.327 272.735,253.2 273.747,145.168 274.759,145.16 275.77,87.9883 276.782,87.9763 277.794,125.58 278.805,125.625 279.817,139.91 280.829,139.839 281.84,136.697 282.852,136.721 283.864,181.146 284.876,180.708 285.887,216.183 286.899,215.624 287.911,209.052 288.922,208.794 289.934,252.849 290.946,252.423 291.957,210.72 292.969,210.465 293.981,239.166 294.992,239.018 296.004,221.834 297.016,221.439 298.028,222.638 299.039,222.305 300.051,205.345 301.063,205.215 302.074,319.511 303.086,319.134 304.098,211.743 305.109,211.637 306.121,184.095 307.133,184.066 308.145,259.151 309.156,258.848 310.168,136.985 311.18,136.966 312.191,232.115 313.203,232.077 314.215,219.145 315.226,218.752 316.238,207.214 317.25,206.892 318.262,278.72 319.273,278.413 320.285,225.999 321.297,225.982 322.308,182.912 323.32,182.78 324.332,283.3 325.343,283.141 326.355,299.952 327.367,299.871 328.379,294.769 329.39,294.282 330.402,354.08 331.414,353.754 332.425,319.413 333.437,319.27 334.449,244.977 335.46,244.709 336.472,340.779 337.484,340.582 338.496,310.613 339.507,310.374 340.519,314.419 341.531,314.299 342.542,328.896 343.554,328.792 344.566,363.12 345.577,362.781 346.589,298.347 347.601,298.228 348.612,324.273 349.624,323.808 350.636,369.493 351.648,369.118 352.659,406.55 353.671,406.27 354.683,301.976 355.694,301.876 356.706,364.12 357.718,363.445 358.729,288.706 359.741,288.372 360.753,423.126 361.765,422.78 362.776,483.286 363.788,483.024 364.8,475.44 365.811,475.129 366.823,472.222 367.835,471.723 368.846,512.935 369.858,512.233 370.87,406.527 371.882,405.937 372.893,481.138 373.905,480.536 374.917,412.174 375.928,411.526 376.94,363.159 377.952,363.064 378.963,481.777 379.975,481.461 380.987,445.587 381.999,445.303 383.01,528.162 384.022,527.738 385.034,538.004 386.045,537.589 387.057,444.966 388.069,444.731 389.08,367.641 390.092,367.446 391.104,572.461 392.115,572.063 393.127,477.408 394.139,477.167 395.151,538.838 396.162,538.655 397.174,499.098 398.186,498.729 399.197,561.761 400.209,561.315 401.221,428.947 402.232,428.794 403.244,570.255 404.256,569.946 405.268,530.727 406.279,530.629 407.291,545.18 408.303,545.05 409.314,428.586 410.326,428.486 411.338,533.214 412.349,532.958 413.361,541.215 414.373,540.81 415.385,678.097 416.396,677.273 417.408,462.506 418.42,462.118 419.431,554.139 420.443,553.697 421.455,642.019 422.466,641.767 423.478,482.851 424.49,482.768 425.502,614.554 426.513,614.515 427.525,634.386 428.537,634.241 429.548,659.293 430.56,658.916 431.572,617.317 432.583,617.081 433.595,491.791 434.607,491.707 435.619,480.916 436.63,480.895 437.642,607.143 438.654,607.115 439.665,634.383 440.677,634.212 441.689,526.898 442.7,526.828 443.712,715.603 444.724,715.358 445.735,817.265 446.747,815.762 447.759,737.899 448.771,737.528 449.782,689.001 450.794,688.874 451.806,673.022 452.817,672.853 453.829,716.731 454.841,716.45 455.852,764.708 456.864,764.528 457.876,613.75 458.888,612.744 459.899,795.733 460.911,795.389 461.923,762.568 462.934,762.204 463.946,728.806 464.958,728.619 465.969,747.024 466.981,746.67 467.993,921.906 469.005,921.135 470.016,760.119 471.028,760.013 472.04,841.33 473.051,840.991 474.063,764.724 475.075,764.573 476.086,895.454 477.098,894.222 478.11,932.336 479.122,930.733 480.133,1038.89 481.145,1038.07 482.157,1002.03 483.168,1001.91 484.18,821.144 485.192,821.145 486.203,974.981 487.215,974.133 488.227,931.671 489.239,931.413 490.25,912.933 491.262,912.43 492.274,982.261 493.285,982.141 494.297,943.843 495.309,943.703 496.32,1045.54 497.332,1045.3 498.344,987.082 499.355,986.823 500.367,925.053 501.379,924.874 502.391,958.904 503.402,958.618 504.414,1167.73 505.426,1166.98 506.437,1083.87 507.449,1083.79 508.461,1071.5 509.472,1070.92 510.484,1049.52 511.496,1049.06 512.508,1201.12 513.519,1200.19 514.531,1103.27 515.543,1102.93 516.554,1245.63 517.566,1244.23 518.578,1180.53 519.589,1180.17 520.601,1232.19 521.613,1230.99 522.625,1206.79 523.636,1206.63 524.648,1128.31 525.66,1128.13 526.671,1073.47 527.683,1073.25 528.695,1152.46 529.706,1152.27 530.718,1058.8 531.73,1058.3 532.742,1318.5 533.753,1318.29 534.765,1154.77 535.777,1154.44 536.788,1111.84 537.8,1111.73 538.812,1301.67 539.823,1301.39 540.835,1145.3 541.847,1145.2 542.859,1193.9 543.87,1193.84 544.882,1293.23 545.894,1293.1 546.905,1139.51 547.917,1139.23 548.929,1249.71 549.94,1249.48 550.952,1158.77 551.964,1158.56 552.975,1181.34 553.987,1181.29 554.999,1285.18 556.011,1285.08 557.022,1280.86 558.034,1280.7 559.046,1193.38 560.057,1193.27 561.069,1145.36 562.081,1145 563.092,1322.59 564.104,1322.24 565.116,1255.14 566.128,1255.02 567.139,1270.11 568.151,1269.68 569.163,1315.96 570.174,1315.09 571.186,1250.48 572.198,1250.3 573.209,1270.93 574.221,1270.86 575.233,1257.77 576.245,1257.68 577.256,1243.06 578.268,1242.86 579.28,1216.89 580.291,1216.83 581.303,1306.54 582.315,1306.47 583.326,1370.57 584.338,1369.95 585.35,1235.44 586.362,1235.31 587.373,1305.92 588.385,1305.7 589.397,1368.89 590.408,1368.84 591.42,1351.39 592.432,1350.72 593.443,1331.38 594.455,1331.14 595.467,1364.3 596.478,1364.19 597.49,1311.4 598.502,1311.34 599.514,1332.52 600.525,1332.12 601.537,1336.49 602.549,1336.03 603.56,1408.82 604.572,1407.94 605.584,1377.37 606.595,1377.02 607.607,1324.8 608.619,1324.78 609.631,1342.52 610.642,1342.46 611.654,1330.1 612.666,1330.02 613.677,1384.27 614.689,1384.18 615.701,1359.1 616.712,1359.01 617.724,1325.31 618.736,1325.2 619.748,1299.99 620.759,1299.92 621.771,1362.97 622.783,1362.92 623.794,1215.03 624.806,1214.89 625.818,1312.17 626.829,1312.13 627.841,1346.47 628.853,1346.25 629.865,1392.35 630.876,1392.14 631.888,1299.28 632.9,1299.24 633.911,1232.11 634.923,1232.01 635.935,1358.68 636.946,1358.62 637.958,1379.61 638.97,1379.57 639.982,1354.04 640.993,1353.98 642.005,1328.75 643.017,1328.74 644.028,1268.63 645.04,1268.39 646.052,1286.68 647.063,1286.63 648.075,1345.04 649.087,1344.99 650.098,1374.71 651.11,1374.62 652.122,1319.23 653.134,1319.17 654.145,1340.07 655.157,1339.84 656.169,1360.82 657.18,1360.72 658.192,1370.77 659.204,1370.73 660.215,1402.41 661.227,1402.29 662.239,1301.42 663.251,1301.36 664.262,1344.63 665.274,1344.61 666.286,1370.77 667.297,1370.72 668.309,1422.69 669.321,1422.52 670.332,1313.1 671.344,1313.01 672.356,1401.12 673.368,1400.88 674.379,1374.51 675.391,1374.4 676.403,1352.38 677.414,1352.14 678.426,1340.99 679.438,1340.95 680.449,1371.92 681.461,1371.81 682.473,1354.35 683.485,1354.25 684.496,1322.92 685.508,1322.76 686.52,1403.46 687.531,1403.44 688.543,1406.62 689.555,1406.56 690.566,1338.8 691.578,1338.77 692.59,1399.9 693.602,1399.75 694.613,1387.65 695.625,1387.53 696.637,1409.98 697.648,1409.92 698.66,1330.02 699.672,1329.98 700.683,1440.08 701.695,1439.72 702.707,1376.68 703.718,1376.62 704.73,1412.31 705.742,1412.23 706.754,1389.09 707.765,1389.06 708.777,1371.42 709.789,1371.14 710.8,1403.29 711.812,1403.02 712.824,1435.27 713.835,1435.21 714.847,1441.28 715.859,1441.21 716.871,1426.52 717.882,1426.5 718.894,1385.63 719.906,1385.48 720.917,1353.42 721.929,1353.39 722.941,1357.65 723.952,1357.3 724.964,1379.72 725.976,1379.62 726.988,1362.47 727.999,1362.41 729.011,1335.22 730.023,1335.18 731.034,1394.08 732.046,1393.95 733.058,1364.4 734.069,1364.28 735.081,1434.61 736.093,1434.48 737.105,1391.62 738.116,1391.5 739.128,1285.83 740.14,1285.78 741.151,1334.8 742.163,1334.7 743.175,1338.16 744.186,1338.06 745.198,1358.5 746.21,1358.49 747.222,1300.11 748.233,1300.06 749.245,1445.72 750.257,1445.58 751.268,1370.38 752.28,1370.35 753.292,1325.97 754.303,1325.82 755.315,1440.33 756.327,1440.29 757.338,1306.72 758.35,1306.68 759.362,1442.67 760.374,1442.61 761.385,1343.27 762.397,1343.21 763.409,1325.28 764.42,1325.23 765.432,1440.12 766.444,1440.08 767.455,1430.87 768.467,1430.84 769.479,1399.03 770.491,1398.74 771.502,1410.97 772.514,1410.96 773.526,1373.15 774.537,1373.11 775.549,1376.85 776.561,1376.73 777.572,1338.17 778.584,1338.14 779.596,1384.4 780.608,1384.26 781.619,1420.01 782.631,1419.98 783.643,1406 784.654,1405.89 785.666,1363.45 786.678,1363.42 787.689,1408.03 788.701,1407.98 789.713,1405.85 790.725,1405.71 791.736,1390.04 792.748,1390.02 793.76,1401.7 794.771,1401.56 795.783,1426.09 796.795,1426.06 797.806,1403.47 798.818,1403.4 799.83,1387.75 800.841,1387.73 801.853,1390.45 802.865,1390.43 803.877,1439.4 804.888,1439.37 805.9,1374.78 806.912,1374.65 807.923,1376.42 808.935,1376.3 809.947,1353.45 810.958,1353.42 811.97,1373.78 812.982,1373.71 813.994,1385.68 815.005,1385.64 816.017,1373.81 817.029,1373.76 818.04,1395.44 819.052,1395.39 820.064,1400.94 821.075,1400.93 822.087,1434.51 823.099,1434.38 824.111,1423.73 825.122,1423.67 826.134,1335.62 827.146,1335.57 828.157,1362.92 829.169,1362.9 830.181,1348.1 831.192,1348.05 832.204,1385.23 833.216,1385.14 834.228,1431.96 835.239,1431.92 836.251,1364.67 837.263,1364.63 838.274,1419.14 839.286,1419.13 840.298,1410.54 841.309,1410.54 842.321,1384 843.333,1383.96 844.345,1442.54 845.356,1442.49 846.368,1389.82 847.38,1389.8 848.391,1419.66 849.403,1419.64 850.415,1411.4 851.426,1411.38 852.438,1437.26 853.45,1437.19 854.461,1409.57 855.473,1409.54 856.485,1343.29 857.497,1343.27 858.508,1413.03 859.52,1412.99 860.532,1379.5 861.543,1379.49 862.555,1428.11 863.567,1428.1 864.578,1373.01 865.59,1372.99 866.602,1397.06 867.614,1397 868.625,1345.06 869.637,1345.02 870.649,1422.73 871.66,1422.63 872.672,1382.58 873.684,1382.54 874.695,1391.79 875.707,1391.78 876.719,1420.9 877.731,1420.86 878.742,1424.89 879.754,1424.75 880.766,1420.91 881.777,1420.87 882.789,1431.43 883.801,1431.4 884.812,1405.27 885.824,1405.15 886.836,1394.67 887.848,1394.59 888.859,1422.34 889.871,1422.25 890.883,1400.39 891.894,1400.38 892.906,1376.5 893.918,1376.35 894.929,1383.36 895.941,1383.32 896.953,1325.82 897.965,1325.75 898.976,1419.52 899.988,1419.49 901,1407.76 902.011,1407.68 903.023,1305.06 904.035,1305.04 905.046,1398.73 906.058,1398.71 907.07,1410.88 908.081,1410.86 909.093,1407.58 910.105,1407.5 911.117,1441.81 912.128,1441.77 913.14,1389.72 914.152,1389.7 915.163,1396.96 916.175,1396.9 917.187,1389.56 918.198,1389.51 919.21,1426.13 920.222,1426.07 921.234,1409.01 922.245,1408.99 923.257,1396.4 924.269,1396.33 925.28,1412.31 926.292,1412.18 927.304,1443.67 928.315,1443.56 929.327,1443.46 930.339,1443.36 931.351,1424.62 932.362,1424.49 933.374,1414.15 934.386,1414.05 935.397,1344.92 936.409,1344.84 937.421,1433.63 938.432,1433.36 939.444,1374.35 940.456,1374.31 941.468,1422.56 942.479,1422.53 943.491,1372.58 944.503,1372.56 945.514,1419.15 946.526,1419.13 947.538,1441.47 948.549,1441.44 949.561,1426.32 950.573,1426.26 951.585,1443.1 952.596,1443 953.608,1340.04 954.62,1340.01 955.631,1432.65 956.643,1432.58 957.655,1417.6 958.666,1417.56 959.678,1438.21 960.69,1438.18 961.701,1429.42 962.713,1429.42 963.725,1324.17 964.737,1324.14 965.748,1429.41 966.76,1429.41 967.772,1442.79 968.783,1442.7 969.795,1430.88 970.807,1430.86 971.818,1337.23 972.83,1337.06 973.842,1438.1 974.854,1438.07 975.865,1405.84 976.877,1405.69 977.889,1422.48 978.9,1422.44 979.912,1427.75 980.924,1427.73 981.935,1406.99 982.947,1406.93 983.959,1381.29 984.971,1381.29 985.982,1381 986.994,1380.99 988.006,1408.88 989.017,1408.87 990.029,1422.49 991.041,1422.46 992.052,1360.82 993.064,1360.79 994.076,1422.64 995.088,1422.54 996.099,1395.13 997.111,1394.99 998.123,1411.98 999.134,1411.95 1000.15,1411.91 1001.16,1411.88 1002.17,1419.2 1003.18,1419.18 1004.19,1389.81 1005.2,1389.79 1006.22,1413.53 1007.23,1413.44 1008.24,1439.44 1009.25,1439.42 1010.26,1380.85 1011.27,1380.84 1012.29,1420.84 1013.3,1420.8 1014.31,1439.4 1015.32,1439.39 1016.33,1422.24 1017.34,1422.22 1018.36,1429.3 1019.37,1429.3 1020.38,1403.6 1021.39,1403.52 1022.4,1432.18 1023.42,1432.11 1024.43,1390.06 1025.44,1390.03 1026.45,1392.83 1027.46,1392.81 1028.47,1410.64 1029.49,1410.64 1030.5,1400.62 1031.51,1400.58 1032.52,1413.47 1033.53,1413.41 1034.54,1419.28 1035.56,1419.26 1036.57,1423.39 1037.58,1423.33 1038.59,1420.66 1039.6,1420.65 1040.61,1437.99 1041.63,1437.96 1042.64,1408.66 1043.65,1408.63 1044.66,1440.63 1045.67,1440.6 1046.68,1430.64 1047.7,1430.63 1048.71,1440.55 1049.72,1440.53 1050.73,1390.06 1051.74,1390.03 1052.75,1412.02 1053.77,1412.01 1054.78,1437.9 1055.79,1437.87 1056.8,1431.96 1057.81,1431.9 1058.82,1440.45 1059.84,1440.43 1060.85,1441.66 1061.86,1441.59 1062.87,1409.91 1063.88,1409.9 1064.89,1398.87 1065.91,1398.84 1066.92,1439.13 1067.93,1439.12 1068.94,1402.06 1069.95,1402.04 1070.96,1439.1 1071.98,1439.09 1072.99,1429.31 1074,1429.31 1075.01,1430.56 1076.02,1430.54 1077.04,1392.54 1078.05,1392.53 1079.06,1402.25 1080.07,1402.22 1081.08,1393.69 1082.09,1393.63 1083.11,1418.33 1084.12,1418.24 1085.13,1412.21 1086.14,1412.15 1087.15,1421.7 1088.16,1421.69 1089.18,1420.75 1090.19,1420.72 1091.2,1422.78 1092.21,1422.72 1093.22,1382.66 1094.23,1382.65 1095.25,1411.89 1096.26,1411.88 1097.27,1438.1 1098.28,1438.06 1099.29,1429.35 1100.3,1429.34 1101.32,1441.18 1102.33,1441.12 1103.34,1408.81 1104.35,1408.77 1105.36,1439.03 1106.37,1439.02 1107.39,1421.62 1108.4,1421.61 1109.41,1381.55 1110.42,1381.53 1111.43,1381.52 1112.44,1381.51 1113.46,1430.38 1114.47,1430.37 1115.48,1398.17 1116.49,1398.06 1117.5,1410.77 1118.51,1410.76 1119.53,1402.18 1120.54,1402.14 1121.55,1437.99 1122.56,1437.94 1123.57,1382.51 1124.58,1382.46 1125.6,1401.11 1126.61,1401.1 1127.62,1403.21 1128.63,1403.18 1129.64,1430.33 1130.66,1430.33 1131.67,1431.24 1132.68,1431.2 1133.69,1440.73 1134.7,1440.69 1135.71,1391.42 1136.73,1391.41 1137.74,1438.98 1138.75,1438.97 1139.76,1438.95 1140.77,1438.94 1141.78,1438.06 1142.8,1438.01 1143.81,1380.41 1144.82,1380.4 1145.83,1403.21 1146.84,1403.18 1147.85,1439.8 1148.87,1439.79 1149.88,1439.78 1150.89,1439.76 1151.9,1410.51 1152.91,1410.5 1153.92,1383.66 1154.94,1383.62 1155.95,1411.29 1156.96,1411.25 1157.97,1440.45 1158.98,1440.41 1159.99,1381.17 1161.01,1381.17 1162.02,1438.92 1163.03,1438.91 1164.04,1438.9 1165.05,1438.88 1166.06,1421.38 1167.08,1421.37 1168.09,1412.78 1169.1,1412.74 1170.11,1412.71 1171.12,1412.67 1172.13,1392.1 1173.15,1392.09 1174.16,1430.88 1175.17,1430.84 1176.18,1392.08 1177.19,1392.07 1178.2,1439.54 1179.22,1439.53 1180.23,1430.23 1181.24,1430.22 1182.25,1439.52 1183.26,1439.51 1184.28,1438.96 1185.29,1438.95 1186.3,1421.52 1187.31,1421.46 1188.32,1437.92 1189.33,1437.79 1190.35,1438.89 1191.36,1438.88 1192.37,1381.05 1193.38,1381.04 1194.39,1409.63 1195.4,1409.62 1196.42,1420.68 1197.43,1420.66 1198.44,1420.65 1199.45,1420.64 1200.46,1429.57 1201.47,1429.56 1202.49,1400.31 1203.5,1400.3 1204.51,1379.56 1205.52,1379.51 1206.53,1391.82 1207.54,1391.79 1208.56,1392.94 1209.57,1392.9 1210.58,1409.53 1211.59,1409.52 1212.6,1438.74 1213.61,1438.73 1214.63,1439.49 1215.64,1439.48 1216.65,1391.37 1217.66,1391.36 1218.67,1437.91 1219.68,1437.87 1220.7,1411.09 1221.71,1411.05 1222.72,1410.22 1223.73,1410.22 1224.74,1439.44 1225.75,1439.43 1226.77,1410.19 1227.78,1410.18 1228.79,1392.1 1229.8,1392.1 1230.81,1411.49 1231.82,1411.48 1232.84,1420.58 1233.85,1420.57 1234.86,1430.31 1235.87,1430.3 1236.88,1411.46 1237.9,1411.45 1238.91,1439.42 1239.92,1439.41 1240.93,1440.16 1241.94,1440.12 1242.95,1439.37 1243.97,1439.36 1244.98,1379.5 1245.99,1379.45 1247,1438.62 1248.01,1438.61 1249.02,1422.1 1250.04,1422.06 1251.05,1430.3 1252.06,1430.29 1253.07,1438.63 1254.08,1438.62 1255.09,1438.6 1256.11,1438.59 1257.12,1392.84 1258.13,1392.8 1259.14,1437.2 1260.15,1437.08 1261.16,1405.36 1262.18,1404.83 1263.19,1411.16 1264.2,1411.12 1265.21,1429.48 1266.22,1429.47 1267.23,1430.4 1268.25,1430.39 1269.26,1437.53 1270.27,1437.49 1271.28,1410.16 1272.29,1410.15 1273.3,1384.15 1274.32,1384.11 1275.33,1428.57 1276.34,1428.52 1277.35,1435.58 1278.36,1435.38 1279.37,1439.44 1280.39,1439.43 1281.4,1439.42 1282.41,1439.41 1283.42,1438.38 1284.43,1438.37 1285.44,1439.39 1286.46,1439.38 1287.47,1439.37 1288.48,1439.36 1289.49,1410.12 1290.5,1410.11 1291.52,1421.42 1292.53,1421.41 1293.54,1420.58 1294.55,1420.54 1295.56,1439.33 1296.57,1439.32 1297.59,1438.37 1298.6,1438.36 1299.61,1438.36 1300.62,1438.35 1301.63,1439.31 1302.64,1439.3 1303.66,1439.29 1304.67,1439.28 1305.68,1380.81 1306.69,1380.8 1307.7,1439.26 1308.71,1439.25 1309.73,1439.24 1310.74,1439.23 1311.75,1420.51 1312.76,1420.5 1313.77,1439.23 1314.78,1439.22 1315.8,1431.28 1316.81,1431.24 1317.82,1439.19 1318.83,1439.18 1319.84,1430.37 1320.85,1430.36 1321.87,1439.17 1322.88,1439.16 1323.89,1439.15 1324.9,1439.14 1325.91,1421.34 1326.92,1421.34 1327.94,1379.18 1328.95,1379.13 1329.96,1409.12 1330.97,1409.11 1331.98,1410.74 1332.99,1410.7 1334.01,1421.34 1335.02,1421.33 1336.03,1439.11 1337.04,1439.1 1338.05,1381.38 1339.06,1381.35 1340.08,1404.23 1341.09,1404.18 1342.1,1421.27 1343.11,1421.26 1344.12,1412.57 1345.14,1412.56 1346.15,1438.42 1347.16,1438.41 1348.17,1403.47 1349.18,1403.45 1350.19,1431 1351.21,1430.97 1352.22,1437.25 1353.23,1437.12 1354.24,1429.69 1355.25,1429.68 1356.26,1401.85 1357.28,1401.81 1358.29,1439.04 1359.3,1439.04 1360.31,1421.91 1361.32,1421.87 1362.33,1392.62 1363.35,1392.59 1364.36,1342.11 1365.37,1342.1 1366.38,1439.01 1367.39,1439 1368.4,1428.61 1369.42,1428.47 1370.43,1403.23 1371.44,1403.18 1372.45,1436.98 1373.46,1436.86 1374.47,1419.76 1375.49,1419.71 1376.5,1401.99 1377.51,1401.95 1378.52,1419.75 1379.53,1419.7 1380.54,1430.39 1381.56,1430.38 1382.57,1409.86 1383.58,1409.86 1384.59,1431.17 1385.6,1431.13 1386.61,1421.31 1387.63,1421.3 1388.64,1421.3 1389.65,1421.29 1390.66,1439.04 1391.67,1439.03 1392.68,1380.58 1393.7,1380.57 1394.71,1437.61 1395.72,1437.56 1396.73,1420.54 1397.74,1420.53 1398.76,1410.58 1399.77,1410.55 1400.78,1419.82 1401.79,1419.77 1402.8,1439.02 1403.81,1439.02 1404.83,1393.31 1405.84,1393.25 1406.85,1420.56 1407.86,1420.55 1408.87,1421.71 1409.88,1421.68 1410.9,1431.05 1411.91,1431.01 1412.92,1439.68 1413.93,1439.64 1414.94,1439.6 1415.95,1439.57 1416.97,1402.98 1417.98,1402.95 1418.99,1438.96 1420,1438.95 1421.01,1439.55 1422.02,1439.51 1423.04,1410.26 1424.05,1410.23 1425.06,1380.99 1426.07,1380.96 1427.08,1438.43 1428.09,1438.41 1429.11,1439.39 1430.12,1439.36 1431.13,1401.07 1432.14,1401.06 1433.15,1420.77 1434.16,1420.76 1435.18,1410.14 1436.19,1410.11 1437.2,1439.29 1438.21,1439.26 1439.22,1421.59 1440.23,1421.56 1441.25,1392.32 1442.26,1392.29 1443.27,1420.55 1444.28,1420.49 1445.29,1430.67 1446.3,1430.64 1447.32,1438.5 1448.33,1438.49 1449.34,1438.47 1450.35,1438.46 1451.36,1430.3 1452.38,1430.29 1453.39,1401.07 1454.4,1401.06 1455.41,1438.45 1456.42,1438.44 1457.43,1394.62 1458.45,1394.58 1459.46,1421.28 1460.47,1421.23 1461.48,1410.11 1462.49,1410.08 1463.5,1439.27 1464.52,1439.24 1465.53,1439.21 1466.54,1439.18 1467.55,1439.16 1468.56,1439.13 1469.57,1380.38 1470.59,1380.38 1471.6,1438.51 1472.61,1438.49 1473.62,1438.47 1474.63,1438.46 1475.64,1430.62 1476.66,1430.59 1477.67,1439.1 1478.68,1439.08 1479.69,1438.24 1480.7,1438.17 1481.71,1409.24 1482.73,1409.22 1483.74,1392.01 1484.75,1392 1485.76,1421.21 1486.77,1421.21 1487.78,1438.42 1488.8,1438.4 1489.81,1438.77 1490.82,1438.77 1491.83,1409.56 1492.84,1409.55 1493.85,1401.09 1494.87,1401.08 1495.88,1374.69 1496.89,1374.64 1497.9,1421.75 1498.91,1421.71 1499.92,1409.97 1500.94,1409.94 1501.95,1420.88 1502.96,1420.86 1503.97,1379.21 1504.98,1379.07 1506,1409.58 1507.01,1409.58 1508.02,1392.03 1509.03,1392.03 1510.04,1421.77 1511.05,1421.74 1512.07,1419.88 1513.08,1419.74 1514.09,1439.36 1515.1,1439.33 1516.11,1421.74 1517.12,1421.71 1518.14,1392.55 1519.15,1392.52 1520.16,1438.79 1521.17,1438.78 1522.18,1439.23 1523.19,1439.2 1524.21,1439.17 1525.22,1439.15 1526.23,1438.75 1527.24,1438.75 1528.25,1438.03 1529.26,1437.97 1530.28,1438.75 1531.29,1438.75 1532.3,1438.74 1533.31,1438.74 1534.32,1420.97 1535.33,1420.88 1536.35,1420.81 1537.36,1420.79 1538.37,1437.77 1539.38,1437.72 1540.39,1429.72 1541.4,1429.7 1542.42,1439.36 1543.43,1439.33 1544.44,1438.77 1545.45,1438.76 1546.46,1438.23 1547.47,1438.22 1548.49,1438.76 1549.5,1438.75 1550.51,1421.3 1551.52,1421.29 1552.53,1429.22 1553.54,1429.16 1554.56,1430.88 1555.57,1430.84 1556.58,1438.75 1557.59,1438.75 1558.6,1430.27 1559.62,1430.26 1560.63,1439.27 1561.64,1439.24 1562.65,1379.82 1563.66,1379.81 1564.67,1438.73 1565.69,1438.73 1566.7,1410.01 1567.71,1409.98 1568.72,1439.16 1569.73,1439.14 1570.74,1438.28 1571.76,1438.26 1572.77,1436.93 1573.78,1436.68 1574.79,1439.29 1575.8,1439.26 1576.81,1411.86 1577.83,1411.8 1578.84,1408.34 1579.85,1408.29 1580.86,1436.81 1581.87,1436.69 1582.88,1428.89 1583.9,1428.84 1584.91,1438 1585.92,1438 1586.93,1438.79 1587.94,1438.79 1588.95,1409.56 1589.97,1409.56 1590.98,1391.42 1591.99,1391.41 1593,1439.57 1594.01,1439.53 1595.02,1439.5 1596.04,1439.46 1597.05,1438.03 1598.06,1438.02 1599.07,1401.15 1600.08,1401.15 1601.09,1438.02 1602.11,1438.01 1603.12,1439.45 1604.13,1439.42 1605.14,1408.82 1606.15,1408.81 1607.16,1437.32 1608.18,1437.27 1609.19,1438.73 1610.2,1438.72 1611.21,1437.98 1612.22,1437.97 1613.24,1422.17 1614.25,1422.13 1615.26,1437.99 1616.27,1437.98 1617.28,1430.4 1618.29,1430.4 1619.31,1438.7 1620.32,1438.69 1621.33,1438.69 1622.34,1438.68 1623.35,1383.89 1624.36,1383.87 1625.38,1409.46 1626.39,1409.46 1627.4,1438.67 1628.41,1438.67 1629.42,1436.71 1630.43,1436.59 1631.45,1408.73 1632.46,1408.73 1633.47,1413.91 1634.48,1413.87 1635.49,1439.39 1636.5,1439.36 1637.52,1392.84 1638.53,1392.8 1639.54,1439.26 1640.55,1439.23 1641.56,1438.62 1642.57,1438.62 1643.59,1380.19 1644.6,1380.19 1645.61,1437.5 1646.62,1437.45 1647.63,1437.4 1648.64,1437.35 1649.66,1399.86 1650.67,1399.81 1651.68,1437.21 1652.69,1437.17 1653.7,1422.21 1654.71,1422.18 1655.73,1437.93 1656.74,1437.92 1657.75,1439.41 1658.76,1439.37 1659.77,1438.64 1660.78,1438.63 1661.8,1438.63 1662.81,1438.62 1663.82,1420.72 1664.83,1420.71 1665.84,1430.45 1666.86,1430.44 1667.87,1438.62 1668.88,1438.62 1669.89,1401.88 1670.9,1401.85 1671.91,1438.6 1672.93,1438.6 1673.94,1430.4 1674.95,1430.4 1675.96,1437.99 1676.97,1437.98 1677.98,1437.97 1679,1437.96 1680.01,1439.24 1681.02,1439.21 1682.03,1429.8 1683.04,1429.79 1684.05,1438.59 1685.07,1438.58 1686.08,1431.01 1687.09,1430.97 1688.1,1430.93 1689.11,1430.9 1690.12,1438.04 1691.14,1438.03 1692.15,1401.14 1693.16,1401.14 1694.17,1438.56 1695.18,1438.56 1696.19,1438.03 1697.21,1438.02 1698.22,1437.46 1699.23,1437.4 1700.24,1384.64 1701.25,1384.61 1702.26,1350.93 1703.28,1350.93 1704.29,1384.01 1705.3,1384 1706.31,1400.03 1707.32,1399.97 1708.33,1437.97 1709.35,1437.96 1710.36,1429.72 1711.37,1429.71 1712.38,1438.59 1713.39,1438.59 1714.4,1427.78 1715.42,1427.54 1716.43,1439.4 1717.44,1439.37 1718.45,1409.4 1719.46,1409.39 1720.47,1401.15 1721.49,1401.14 1722.5,1437.91 1723.51,1437.9 1724.52,1439.32 1725.53,1439.28 1726.55,1400.47 1727.56,1400.45 1728.57,1430.34 1729.58,1430.33 1730.59,1438.59 1731.6,1438.59 1732.62,1439.24 1733.63,1439.21 1734.64,1439.18 1735.65,1439.15 1736.66,1437.97 1737.67,1437.96 1738.69,1413.27 1739.7,1413.26 1740.71,1430.89 1741.72,1430.86 1742.73,1438.54 1743.74,1438.54 1744.76,1438 1745.77,1437.99 1746.78,1430.85 1747.79,1430.81 1748.8,1419.96 1749.81,1419.82 1750.83,1438.55 1751.84,1438.55 1752.85,1409.33 1753.86,1409.33 1754.87,1437.95 1755.88,1437.94 1756.9,1408.12 1757.91,1408.07 1758.92,1438.55 1759.93,1438.55 1760.94,1409.98 1761.95,1409.95 1762.97,1401.73 1763.98,1401.69 1764.99,1439.08 1766,1439.05 1767.01,1437.99 1768.02,1437.97 1769.04,1437.96 1770.05,1437.95 1771.06,1430.89 1772.07,1430.85 1773.08,1422.03 1774.09,1422 1775.11,1438.96 1776.12,1438.93 1777.13,1430.3 1778.14,1430.29 1779.15,1430.71 1780.17,1430.68 1781.18,1438.47 1782.19,1438.46 1783.2,1438.84 1784.21,1438.81 1785.22,1438.45 1786.24,1438.45 1787.25,1438.45 1788.26,1438.44 1789.27,1380.03 1790.28,1380.03 1791.29,1421.17 1792.31,1421.15 1793.32,1437.74 1794.33,1437.68 1795.34,1438.03 1796.35,1438.02 1797.36,1438.45 1798.38,1438.45 1799.39,1429.88 1800.4,1429.87 1801.41,1438.45 1802.42,1438.45 1803.43,1401.11 1804.45,1401.1 1805.46,1438.45 1806.47,1438.45 1807.48,1438.44 1808.49,1438.44 1809.5,1401.1 1810.52,1401.09 1811.53,1408.81 1812.54,1408.8 1813.55,1437.99 1814.56,1437.98 1815.57,1392.33 1816.59,1392.33 1817.6,1409.24 1818.61,1409.23 1819.62,1438.44 1820.63,1438.43 1821.64,1409.23 1822.66,1409.22 1823.67,1438.43 1824.68,1438.42 1825.69,1438.42 1826.7,1438.42 1827.71,1438.42 1828.73,1438.41 1829.74,1437.99 1830.75,1437.98 1831.76,1438.41 1832.77,1438.41 1833.79,1409.2 1834.8,1409.2 1835.81,1430.79 1836.82,1430.76 1837.83,1429.55 1838.84,1429.48 1839.86,1409.21 1840.87,1409.2 1841.88,1437.07 1842.89,1436.93 1843.9,1435.72 1844.91,1435.34 1845.93,1409.97 1846.94,1409.93 1847.95,1421.61 1848.96,1421.6 1849.97,1438.45 1850.98,1438.45 1852,1438.44 1853.01,1438.44 1854.02,1439.05 1855.03,1439.02 1856.04,1438.42 1857.05,1438.42 1858.07,1437.85 1859.08,1437.84 1860.09,1409.21 1861.1,1409.2 1862.11,1430.42 1863.12,1430.41 1864.14,1409.2 1865.15,1409.2 1866.16,1391.27 1867.17,1391.22 1868.18,1405.52 1869.19,1404.97 1870.21,1393.26 1871.22,1393.22 1872.23,1439.23 1873.24,1439.19 1874.25,1429.76 1875.26,1429.75 1876.28,1439.19 1877.29,1439.15 1878.3,1420.94 1879.31,1420.92 1880.32,1437.74 1881.33,1437.73 1882.35,1431.2 1883.36,1431.16 1884.37,1437.08 1885.38,1437.03 1886.39,1429.74 1887.41,1429.72 1888.42,1437.71 1889.43,1437.7 1890.44,1409.25 1891.45,1409.25 1892.46,1438.46 1893.48,1438.45 1894.49,1439.19 1895.5,1439.15 1896.51,1400.56 1897.52,1400.54 1898.53,1408.51 1899.55,1408.5 1900.56,1437.7 1901.57,1437.7 1902.58,1421.67 1903.59,1421.66 1904.6,1439.18 1905.62,1439.15 1906.63,1380.69 1907.64,1380.66 1908.65,1429.16 1909.66,1429.11 1910.67,1437.01 1911.69,1436.97 1912.7,1439.2 1913.71,1439.16 1914.72,1380 1915.73,1379.99 1916.74,1437.71 1917.76,1437.7 1918.77,1439.13 1919.78,1439.1 1920.79,1430.48 1921.8,1430.47 1922.81,1400.59 1923.83,1400.58 1924.84,1438.4 1925.85,1438.4 1926.86,1437.73 1927.87,1437.72 1928.88,1439.09 1929.9,1439.05 1930.91,1437.74 1931.92,1437.73 1932.93,1437.72 1933.94,1437.71 1934.95,1438.39 1935.97,1438.39 1936.98,1439.05 1937.99,1439.02 1939,1421.66 1940.01,1421.66 1941.03,1438.36 1942.04,1438.36 1943.05,1438.35 1944.06,1438.35 1945.07,1409.73 1946.08,1409.7 1947.1,1379.37 1948.11,1379.36 1949.12,1438.33 1950.13,1438.33 1951.14,1430.48 1952.15,1430.47 1953.17,1437.78 1954.18,1437.77 1955.19,1436.61 1956.2,1436.49 1957.21,1400.63 1958.22,1400.62 1959.24,1439.06 1960.25,1439.02 1961.26,1438.35 1962.27,1438.35 1963.28,1438.34 1964.29,1438.34 1965.31,1409.75 1966.32,1409.71 1967.33,1396.61 1968.34,1396.57 1969.35,1438.34 1970.36,1438.33 1971.38,1437.74 1972.39,1437.73 1973.4,1438.33 1974.41,1438.33 1975.42,1437.73 1976.43,1437.72 1977.45,1437.71 1978.46,1437.7 1979.47,1438.34 1980.48,1438.33 1981.49,1431.15 1982.5,1431.11 1983.52,1437.73 1984.53,1437.72 1985.54,1422.29 1986.55,1422.25 1987.56,1438.87 1988.57,1438.84 1989.59,1436.22 1990.6,1435.99 1991.61,1409.76 1992.62,1409.73 1993.63,1438.31 1994.65,1438.31 1995.66,1438.3 1996.67,1438.3 1997.68,1438.3 1998.69,1438.3 1999.7,1429.96 2000.72,1429.94 2001.73,1438.3 2002.74,1438.3 2003.75,1437.72 2004.76,1437.71 2005.77,1438.3 2006.79,1438.3 2007.8,1437.71 2008.81,1437.7 2009.82,1438.91 2010.83,1438.88 2011.84,1408.51 2012.86,1408.5 2013.87,1407.9 2014.88,1407.85 2015.89,1438.3 2016.9,1438.3 2017.91,1408.45 2018.93,1408.44 2019.94,1438.96 2020.95,1438.93 2021.96,1438.9 2022.97,1438.86 2023.98,1437.13 2025,1437.08 2026.01,1422.34 2027.02,1422.31 2028.03,1420.54 2029.04,1420.48 2030.05,1402.03 2031.07,1401.99 2032.08,1438.87 2033.09,1438.84 2034.1,1438.26 2035.11,1438.26 2036.12,1438.79 2037.14,1438.76 2038.15,1437.25 2039.16,1437.2 2040.17,1437.7 2041.18,1437.69 2042.19,1438.26 2043.21,1438.25 2044.22,1421.7 2045.23,1421.69 2046.24,1437.14 2047.25,1437.09 2048.27,1431.23 2049.28,1431.19 2050.29,1437.12 2051.3,1437.07 2052.31,1438.89 2053.32,1438.86 2054.34,1438.83 2055.35,1438.8 2056.36,1437.7 2057.37,1437.69 2058.38,1408.48 2059.39,1408.47 2060.41,1438.24 2061.42,1438.24 2062.43,1414.65 2063.44,1414.61 2064.45,1437.18 2065.46,1437.12 2066.48,1438.25 2067.49,1438.24 2068.5,1413.5 2069.51,1413.48 2070.52,1377.8 2071.53,1377.73 2072.55,1438.81 2073.56,1438.78 2074.57,1438.24 2075.58,1438.23 2076.59,1437.22 2077.6,1437.17 2078.62,1437.68 2079.63,1437.67 2080.64,1414.63 2081.65,1414.59 2082.66,1438.78 2083.67,1438.75 2084.69,1438.73 2085.7,1438.7 2086.71,1400.43 2087.72,1400.37 2088.73,1438.75 2089.74,1438.72 2090.76,1438.22 2091.77,1438.22 2092.78,1438.21 2093.79,1438.21 2094.8,1438.21 2095.81,1438.21 2096.83,1438.65 2097.84,1438.63 2098.85,1438.19 2099.86,1438.19 2100.87,1438.19 2101.89,1438.19 2102.9,1438.58 2103.91,1438.55 2104.92,1438.18 2105.93,1438.18 2106.94,1437.83 2107.96,1437.82 2108.97,1407.86 2109.98,1407.72 2110.99,1438.66 2112,1438.64 2113.01,1437.76 2114.03,1437.74 2115.04,1409.44 2116.05,1409.41 2117.06,1431 2118.07,1430.96 2119.08,1438.54 2120.1,1438.52 2121.11,1438.16 2122.12,1438.16 2123.13,1437.83 2124.14,1437.82 2125.15,1438.16 2126.17,1438.16 2127.18,1437.81 2128.19,1437.8 2129.2,1437.79 2130.21,1437.77 2131.22,1438.57 2132.24,1438.54 2133.25,1437.43 2134.26,1437.37 2135.27,1408.12 2136.28,1408.06 2137.29,1438.66 2138.31,1438.63 2139.32,1429.74 2140.33,1429.67 2141.34,1438.68 2142.35,1438.65 2143.36,1438.63 2144.38,1438.6 2145.39,1437.74 2146.4,1437.73 2147.41,1436.39 2148.42,1436.14 2149.43,1438.19 2150.45,1438.19 2151.46,1408.98 2152.47,1408.98 2153.48,1402 2154.49,1401.97 2155.51,1436.64 2156.52,1436.52 2157.53,1401.45 2158.54,1401.44 2159.55,1421.8 2160.56,1421.8 2161.58,1438.77 2162.59,1438.74 2163.6,1438.71 2164.61,1438.68 2165.62,1438.66 2166.63,1438.63 2167.65,1423.54 2168.66,1423.48 2169.67,1438.56 2170.68,1438.53 2171.69,1438.14 2172.7,1438.14 2173.72,1437.78 2174.73,1437.76 2175.74,1421.77 2176.75,1421.76 2177.76,1430.21 2178.77,1430.19 2179.79,1400.97 2180.8,1400.95 2181.81,1438.59 2182.82,1438.57 2183.83,1430.96 2184.84,1430.93 2185.86,1438.5 2186.87,1438.47 2187.88,1438.13 2188.89,1438.13 2189.9,1438.13 2190.91,1438.13 2191.93,1437.82 2192.94,1437.81 2193.95,1437.13 2194.96,1436.99 2195.97,1408.94 2196.98,1408.94 2198,1408.52 2199.01,1408.5 2200.02,1437.69 2201.03,1437.68 2202.04,1438.15 2203.05,1438.15 2204.07,1438.14 2205.08,1438.14 2206.09,1438.6 2207.1,1438.57 2208.11,1430.19 2209.13,1430.17 2210.14,1356.32 2211.15,1356.28 2212.16,1438.54 2213.17,1438.51 2214.18,1438.12 2215.2,1438.12 2216.21,1437.76 2217.22,1437.75 2218.23,1408.15 2219.24,1408.09 2220.25,1437.24 2221.27,1437.18 2222.28,1438.66 2223.29,1438.63 2224.3,1408.93 2225.31,1408.93 2226.32,1438.59 2227.34,1438.56 2228.35,1431.02 2229.36,1430.99 2230.37,1437.74 2231.38,1437.73 2232.39,1408.92 2233.41,1408.92 2234.42,1438.11 2235.43,1438.11 2236.44,1438.5 2237.45,1438.47 2238.46,1438.45 2239.48,1438.42 2240.49,1438.09 2241.5,1438.09 2242.51,1430.3 2243.52,1430.28 2244.53,1437.44 2245.55,1437.38 2246.56,1438.5 2247.57,1438.48 2248.58,1397.73 2249.59,1397.68 2250.6,1438.49 2251.62,1438.47 2252.63,1437.76 2253.64,1437.74 2254.65,1376.72 2255.66,1376.67 2256.67,1438.43 2257.69,1438.41 2258.7,1438.38 2259.71,1438.36 2260.72,1438.08 2261.73,1438.08 2262.75,1401.16 2263.76,1401.14 2264.77,1398.29 2265.78,1398.24 2266.79,1437.12 2267.8,1436.85 2268.82,1438.11 2269.83,1438.1 2270.84,1438.1 2271.85,1438.1 2272.86,1430.6 2273.87,1430.59 2274.89,1438.46 2275.9,1438.44 2276.91,1437.78 2277.92,1437.76 2278.93,1437.4 2279.94,1437.34 2280.96,1438.52 2281.97,1438.49 2282.98,1437.73 2283.99,1437.72 2285,1438.1 2286.01,1438.1 2287.03,1438.48 2288.04,1438.46 2289.05,1414.34 2290.06,1414.32 2291.07,1421.46 2292.08,1421.44 "/>
<path clip-path="url(#clip140)" d="M2014.5 198.898 L2281.3 198.898 L2281.3 95.2176 L2014.5 95.2176  Z" fill="#ffffff" fill-rule="evenodd" fill-opacity="1"/>
<polyline clip-path="url(#clip140)" style="stroke:#000000; stroke-linecap:round; stroke-linejoin:round; stroke-width:4; stroke-opacity:1; fill:none" points="2014.5,198.898 2281.3,198.898 2281.3,95.2176 2014.5,95.2176 2014.5,198.898 "/>
<polyline clip-path="url(#clip140)" style="stroke:#009af9; stroke-linecap:round; stroke-linejoin:round; stroke-width:4; stroke-opacity:1; fill:none" points="2038.31,147.058 2181.23,147.058 "/>
<path clip-path="url(#clip140)" d="M2218.89 166.745 Q2217.09 171.375 2215.37 172.787 Q2213.66 174.199 2210.79 174.199 L2207.39 174.199 L2207.39 170.634 L2209.89 170.634 Q2211.65 170.634 2212.62 169.8 Q2213.59 168.967 2214.77 165.865 L2215.53 163.921 L2205.05 138.412 L2209.56 138.412 L2217.66 158.689 L2225.77 138.412 L2230.28 138.412 L2218.89 166.745 Z" fill="#000000" fill-rule="nonzero" fill-opacity="1" /><path clip-path="url(#clip140)" d="M2237.57 160.402 L2245.21 160.402 L2245.21 134.037 L2236.9 135.703 L2236.9 131.444 L2245.16 129.778 L2249.84 129.778 L2249.84 160.402 L2257.48 160.402 L2257.48 164.338 L2237.57 164.338 L2237.57 160.402 Z" fill="#000000" fill-rule="nonzero" fill-opacity="1" /></svg>
