<?xml version="1.0" encoding="utf-8"?>
<svg xmlns="http://www.w3.org/2000/svg" xmlns:xlink="http://www.w3.org/1999/xlink" width="600" height="400" viewBox="0 0 2400 1600">
<defs>
  <clipPath id="clip170">
    <rect x="0" y="0" width="2400" height="1600"/>
  </clipPath>
</defs>
<path clip-path="url(#clip170)" d="M0 1600 L2400 1600 L2400 0 L0 0  Z" fill="#ffffff" fill-rule="evenodd" fill-opacity="1"/>
<defs>
  <clipPath id="clip171">
    <rect x="480" y="0" width="1681" height="1600"/>
  </clipPath>
</defs>
<path clip-path="url(#clip170)" d="M156.274 1486.45 L2352.76 1486.45 L2352.76 47.2441 L156.274 47.2441  Z" fill="#ffffff" fill-rule="evenodd" fill-opacity="1"/>
<defs>
  <clipPath id="clip172">
    <rect x="156" y="47" width="2197" height="1440"/>
  </clipPath>
</defs>
<polyline clip-path="url(#clip172)" style="stroke:#000000; stroke-linecap:round; stroke-linejoin:round; stroke-width:2; stroke-opacity:0.1; fill:none" points="218.439,1486.45 218.439,47.2441 "/>
<polyline clip-path="url(#clip172)" style="stroke:#000000; stroke-linecap:round; stroke-linejoin:round; stroke-width:2; stroke-opacity:0.1; fill:none" points="736.995,1486.45 736.995,47.2441 "/>
<polyline clip-path="url(#clip172)" style="stroke:#000000; stroke-linecap:round; stroke-linejoin:round; stroke-width:2; stroke-opacity:0.1; fill:none" points="1255.55,1486.45 1255.55,47.2441 "/>
<polyline clip-path="url(#clip172)" style="stroke:#000000; stroke-linecap:round; stroke-linejoin:round; stroke-width:2; stroke-opacity:0.1; fill:none" points="1774.11,1486.45 1774.11,47.2441 "/>
<polyline clip-path="url(#clip172)" style="stroke:#000000; stroke-linecap:round; stroke-linejoin:round; stroke-width:2; stroke-opacity:0.1; fill:none" points="2292.67,1486.45 2292.67,47.2441 "/>
<polyline clip-path="url(#clip170)" style="stroke:#000000; stroke-linecap:round; stroke-linejoin:round; stroke-width:4; stroke-opacity:1; fill:none" points="156.274,1486.45 2352.76,1486.45 "/>
<polyline clip-path="url(#clip170)" style="stroke:#000000; stroke-linecap:round; stroke-linejoin:round; stroke-width:4; stroke-opacity:1; fill:none" points="218.439,1486.45 218.439,1467.55 "/>
<polyline clip-path="url(#clip170)" style="stroke:#000000; stroke-linecap:round; stroke-linejoin:round; stroke-width:4; stroke-opacity:1; fill:none" points="736.995,1486.45 736.995,1467.55 "/>
<polyline clip-path="url(#clip170)" style="stroke:#000000; stroke-linecap:round; stroke-linejoin:round; stroke-width:4; stroke-opacity:1; fill:none" points="1255.55,1486.45 1255.55,1467.55 "/>
<polyline clip-path="url(#clip170)" style="stroke:#000000; stroke-linecap:round; stroke-linejoin:round; stroke-width:4; stroke-opacity:1; fill:none" points="1774.11,1486.45 1774.11,1467.55 "/>
<polyline clip-path="url(#clip170)" style="stroke:#000000; stroke-linecap:round; stroke-linejoin:round; stroke-width:4; stroke-opacity:1; fill:none" points="2292.67,1486.45 2292.67,1467.55 "/>
<path clip-path="url(#clip170)" d="M218.439 1517.37 Q214.828 1517.37 212.999 1520.93 Q211.193 1524.47 211.193 1531.6 Q211.193 1538.71 212.999 1542.27 Q214.828 1545.82 218.439 1545.82 Q222.073 1545.82 223.879 1542.27 Q225.707 1538.71 225.707 1531.6 Q225.707 1524.47 223.879 1520.93 Q222.073 1517.37 218.439 1517.37 M218.439 1513.66 Q224.249 1513.66 227.304 1518.27 Q230.383 1522.85 230.383 1531.6 Q230.383 1540.33 227.304 1544.94 Q224.249 1549.52 218.439 1549.52 Q212.629 1549.52 209.55 1544.94 Q206.494 1540.33 206.494 1531.6 Q206.494 1522.85 209.55 1518.27 Q212.629 1513.66 218.439 1513.66 Z" fill="#000000" fill-rule="nonzero" fill-opacity="1" /><path clip-path="url(#clip170)" d="M700.688 1544.91 L717.007 1544.91 L717.007 1548.85 L695.063 1548.85 L695.063 1544.91 Q697.725 1542.16 702.308 1537.53 Q706.915 1532.88 708.095 1531.53 Q710.34 1529.01 711.22 1527.27 Q712.123 1525.51 712.123 1523.82 Q712.123 1521.07 710.178 1519.33 Q708.257 1517.6 705.155 1517.6 Q702.956 1517.6 700.503 1518.36 Q698.072 1519.13 695.294 1520.68 L695.294 1515.95 Q698.118 1514.82 700.572 1514.24 Q703.026 1513.66 705.063 1513.66 Q710.433 1513.66 713.628 1516.35 Q716.822 1519.03 716.822 1523.52 Q716.822 1525.65 716.012 1527.57 Q715.225 1529.47 713.118 1532.07 Q712.54 1532.74 709.438 1535.95 Q706.336 1539.15 700.688 1544.91 Z" fill="#000000" fill-rule="nonzero" fill-opacity="1" /><path clip-path="url(#clip170)" d="M726.868 1514.29 L745.225 1514.29 L745.225 1518.22 L731.151 1518.22 L731.151 1526.7 Q732.169 1526.35 733.188 1526.19 Q734.206 1526 735.225 1526 Q741.012 1526 744.391 1529.17 Q747.771 1532.34 747.771 1537.76 Q747.771 1543.34 744.299 1546.44 Q740.826 1549.52 734.507 1549.52 Q732.331 1549.52 730.063 1549.15 Q727.817 1548.78 725.41 1548.04 L725.41 1543.34 Q727.493 1544.47 729.715 1545.03 Q731.938 1545.58 734.414 1545.58 Q738.419 1545.58 740.757 1543.48 Q743.095 1541.37 743.095 1537.76 Q743.095 1534.15 740.757 1532.04 Q738.419 1529.94 734.414 1529.94 Q732.539 1529.94 730.664 1530.35 Q728.813 1530.77 726.868 1531.65 L726.868 1514.29 Z" fill="#000000" fill-rule="nonzero" fill-opacity="1" /><path clip-path="url(#clip170)" d="M766.984 1517.37 Q763.373 1517.37 761.544 1520.93 Q759.738 1524.47 759.738 1531.6 Q759.738 1538.71 761.544 1542.27 Q763.373 1545.82 766.984 1545.82 Q770.618 1545.82 772.423 1542.27 Q774.252 1538.71 774.252 1531.6 Q774.252 1524.47 772.423 1520.93 Q770.618 1517.37 766.984 1517.37 M766.984 1513.66 Q772.794 1513.66 775.849 1518.27 Q778.928 1522.85 778.928 1531.6 Q778.928 1540.33 775.849 1544.94 Q772.794 1549.52 766.984 1549.52 Q761.174 1549.52 758.095 1544.94 Q755.039 1540.33 755.039 1531.6 Q755.039 1522.85 758.095 1518.27 Q761.174 1513.66 766.984 1513.66 Z" fill="#000000" fill-rule="nonzero" fill-opacity="1" /><path clip-path="url(#clip170)" d="M1215.17 1514.29 L1233.53 1514.29 L1233.53 1518.22 L1219.45 1518.22 L1219.45 1526.7 Q1220.47 1526.35 1221.49 1526.19 Q1222.51 1526 1223.53 1526 Q1229.31 1526 1232.69 1529.17 Q1236.07 1532.34 1236.07 1537.76 Q1236.07 1543.34 1232.6 1546.44 Q1229.13 1549.52 1222.81 1549.52 Q1220.63 1549.52 1218.36 1549.15 Q1216.12 1548.78 1213.71 1548.04 L1213.71 1543.34 Q1215.8 1544.47 1218.02 1545.03 Q1220.24 1545.58 1222.72 1545.58 Q1226.72 1545.58 1229.06 1543.48 Q1231.4 1541.37 1231.4 1537.76 Q1231.4 1534.15 1229.06 1532.04 Q1226.72 1529.94 1222.72 1529.94 Q1220.84 1529.94 1218.97 1530.35 Q1217.11 1530.77 1215.17 1531.65 L1215.17 1514.29 Z" fill="#000000" fill-rule="nonzero" fill-opacity="1" /><path clip-path="url(#clip170)" d="M1255.29 1517.37 Q1251.67 1517.37 1249.85 1520.93 Q1248.04 1524.47 1248.04 1531.6 Q1248.04 1538.71 1249.85 1542.27 Q1251.67 1545.82 1255.29 1545.82 Q1258.92 1545.82 1260.73 1542.27 Q1262.55 1538.71 1262.55 1531.6 Q1262.55 1524.47 1260.73 1520.93 Q1258.92 1517.37 1255.29 1517.37 M1255.29 1513.66 Q1261.1 1513.66 1264.15 1518.27 Q1267.23 1522.85 1267.23 1531.6 Q1267.23 1540.33 1264.15 1544.94 Q1261.1 1549.52 1255.29 1549.52 Q1249.48 1549.52 1246.4 1544.94 Q1243.34 1540.33 1243.34 1531.6 Q1243.34 1522.85 1246.4 1518.27 Q1249.48 1513.66 1255.29 1513.66 Z" fill="#000000" fill-rule="nonzero" fill-opacity="1" /><path clip-path="url(#clip170)" d="M1285.45 1517.37 Q1281.84 1517.37 1280.01 1520.93 Q1278.2 1524.47 1278.2 1531.6 Q1278.2 1538.71 1280.01 1542.27 Q1281.84 1545.82 1285.45 1545.82 Q1289.08 1545.82 1290.89 1542.27 Q1292.72 1538.71 1292.72 1531.6 Q1292.72 1524.47 1290.89 1520.93 Q1289.08 1517.37 1285.45 1517.37 M1285.45 1513.66 Q1291.26 1513.66 1294.31 1518.27 Q1297.39 1522.85 1297.39 1531.6 Q1297.39 1540.33 1294.31 1544.94 Q1291.26 1549.52 1285.45 1549.52 Q1279.64 1549.52 1276.56 1544.94 Q1273.5 1540.33 1273.5 1531.6 Q1273.5 1522.85 1276.56 1518.27 Q1279.64 1513.66 1285.45 1513.66 Z" fill="#000000" fill-rule="nonzero" fill-opacity="1" /><path clip-path="url(#clip170)" d="M1732.38 1514.29 L1754.61 1514.29 L1754.61 1516.28 L1742.06 1548.85 L1737.18 1548.85 L1748.98 1518.22 L1732.38 1518.22 L1732.38 1514.29 Z" fill="#000000" fill-rule="nonzero" fill-opacity="1" /><path clip-path="url(#clip170)" d="M1763.77 1514.29 L1782.13 1514.29 L1782.13 1518.22 L1768.06 1518.22 L1768.06 1526.7 Q1769.07 1526.35 1770.09 1526.19 Q1771.11 1526 1772.13 1526 Q1777.92 1526 1781.3 1529.17 Q1784.68 1532.34 1784.68 1537.76 Q1784.68 1543.34 1781.2 1546.44 Q1777.73 1549.52 1771.41 1549.52 Q1769.24 1549.52 1766.97 1549.15 Q1764.72 1548.78 1762.31 1548.04 L1762.31 1543.34 Q1764.4 1544.47 1766.62 1545.03 Q1768.84 1545.58 1771.32 1545.58 Q1775.32 1545.58 1777.66 1543.48 Q1780 1541.37 1780 1537.76 Q1780 1534.15 1777.66 1532.04 Q1775.32 1529.94 1771.32 1529.94 Q1769.44 1529.94 1767.57 1530.35 Q1765.72 1530.77 1763.77 1531.65 L1763.77 1514.29 Z" fill="#000000" fill-rule="nonzero" fill-opacity="1" /><path clip-path="url(#clip170)" d="M1803.89 1517.37 Q1800.28 1517.37 1798.45 1520.93 Q1796.64 1524.47 1796.64 1531.6 Q1796.64 1538.71 1798.45 1542.27 Q1800.28 1545.82 1803.89 1545.82 Q1807.52 1545.82 1809.33 1542.27 Q1811.16 1538.71 1811.16 1531.6 Q1811.16 1524.47 1809.33 1520.93 Q1807.52 1517.37 1803.89 1517.37 M1803.89 1513.66 Q1809.7 1513.66 1812.75 1518.27 Q1815.83 1522.85 1815.83 1531.6 Q1815.83 1540.33 1812.75 1544.94 Q1809.7 1549.52 1803.89 1549.52 Q1798.08 1549.52 1795 1544.94 Q1791.94 1540.33 1791.94 1531.6 Q1791.94 1522.85 1795 1518.27 Q1798.08 1513.66 1803.89 1513.66 Z" fill="#000000" fill-rule="nonzero" fill-opacity="1" /><path clip-path="url(#clip170)" d="M2237.19 1544.91 L2244.83 1544.91 L2244.83 1518.55 L2236.52 1520.21 L2236.52 1515.95 L2244.78 1514.29 L2249.46 1514.29 L2249.46 1544.91 L2257.1 1544.91 L2257.1 1548.85 L2237.19 1548.85 L2237.19 1544.91 Z" fill="#000000" fill-rule="nonzero" fill-opacity="1" /><path clip-path="url(#clip170)" d="M2276.54 1517.37 Q2272.93 1517.37 2271.1 1520.93 Q2269.3 1524.47 2269.3 1531.6 Q2269.3 1538.71 2271.1 1542.27 Q2272.93 1545.82 2276.54 1545.82 Q2280.18 1545.82 2281.98 1542.27 Q2283.81 1538.71 2283.81 1531.6 Q2283.81 1524.47 2281.98 1520.93 Q2280.18 1517.37 2276.54 1517.37 M2276.54 1513.66 Q2282.35 1513.66 2285.41 1518.27 Q2288.49 1522.85 2288.49 1531.6 Q2288.49 1540.33 2285.41 1544.94 Q2282.35 1549.52 2276.54 1549.52 Q2270.73 1549.52 2267.65 1544.94 Q2264.6 1540.33 2264.6 1531.6 Q2264.6 1522.85 2267.65 1518.27 Q2270.73 1513.66 2276.54 1513.66 Z" fill="#000000" fill-rule="nonzero" fill-opacity="1" /><path clip-path="url(#clip170)" d="M2306.7 1517.37 Q2303.09 1517.37 2301.27 1520.93 Q2299.46 1524.47 2299.46 1531.6 Q2299.46 1538.71 2301.27 1542.27 Q2303.09 1545.82 2306.7 1545.82 Q2310.34 1545.82 2312.14 1542.27 Q2313.97 1538.71 2313.97 1531.6 Q2313.97 1524.47 2312.14 1520.93 Q2310.34 1517.37 2306.7 1517.37 M2306.7 1513.66 Q2312.51 1513.66 2315.57 1518.27 Q2318.65 1522.85 2318.65 1531.6 Q2318.65 1540.33 2315.57 1544.94 Q2312.51 1549.52 2306.7 1549.52 Q2300.89 1549.52 2297.82 1544.94 Q2294.76 1540.33 2294.76 1531.6 Q2294.76 1522.85 2297.82 1518.27 Q2300.89 1513.66 2306.7 1513.66 Z" fill="#000000" fill-rule="nonzero" fill-opacity="1" /><path clip-path="url(#clip170)" d="M2336.87 1517.37 Q2333.26 1517.37 2331.43 1520.93 Q2329.62 1524.47 2329.62 1531.6 Q2329.62 1538.71 2331.43 1542.27 Q2333.26 1545.82 2336.87 1545.82 Q2340.5 1545.82 2342.31 1542.27 Q2344.14 1538.71 2344.14 1531.6 Q2344.14 1524.47 2342.31 1520.93 Q2340.5 1517.37 2336.87 1517.37 M2336.87 1513.66 Q2342.68 1513.66 2345.73 1518.27 Q2348.81 1522.85 2348.81 1531.6 Q2348.81 1540.33 2345.73 1544.94 Q2342.68 1549.52 2336.87 1549.52 Q2331.06 1549.52 2327.98 1544.94 Q2324.92 1540.33 2324.92 1531.6 Q2324.92 1522.85 2327.98 1518.27 Q2331.06 1513.66 2336.87 1513.66 Z" fill="#000000" fill-rule="nonzero" fill-opacity="1" /><polyline clip-path="url(#clip172)" style="stroke:#000000; stroke-linecap:round; stroke-linejoin:round; stroke-width:2; stroke-opacity:0.1; fill:none" points="156.274,1393.49 2352.76,1393.49 "/>
<polyline clip-path="url(#clip172)" style="stroke:#000000; stroke-linecap:round; stroke-linejoin:round; stroke-width:2; stroke-opacity:0.1; fill:none" points="156.274,1132.39 2352.76,1132.39 "/>
<polyline clip-path="url(#clip172)" style="stroke:#000000; stroke-linecap:round; stroke-linejoin:round; stroke-width:2; stroke-opacity:0.1; fill:none" points="156.274,871.287 2352.76,871.287 "/>
<polyline clip-path="url(#clip172)" style="stroke:#000000; stroke-linecap:round; stroke-linejoin:round; stroke-width:2; stroke-opacity:0.1; fill:none" points="156.274,610.184 2352.76,610.184 "/>
<polyline clip-path="url(#clip172)" style="stroke:#000000; stroke-linecap:round; stroke-linejoin:round; stroke-width:2; stroke-opacity:0.1; fill:none" points="156.274,349.08 2352.76,349.08 "/>
<polyline clip-path="url(#clip172)" style="stroke:#000000; stroke-linecap:round; stroke-linejoin:round; stroke-width:2; stroke-opacity:0.1; fill:none" points="156.274,87.9763 2352.76,87.9763 "/>
<polyline clip-path="url(#clip170)" style="stroke:#000000; stroke-linecap:round; stroke-linejoin:round; stroke-width:4; stroke-opacity:1; fill:none" points="156.274,1486.45 156.274,47.2441 "/>
<polyline clip-path="url(#clip170)" style="stroke:#000000; stroke-linecap:round; stroke-linejoin:round; stroke-width:4; stroke-opacity:1; fill:none" points="156.274,1393.49 175.172,1393.49 "/>
<polyline clip-path="url(#clip170)" style="stroke:#000000; stroke-linecap:round; stroke-linejoin:round; stroke-width:4; stroke-opacity:1; fill:none" points="156.274,1132.39 175.172,1132.39 "/>
<polyline clip-path="url(#clip170)" style="stroke:#000000; stroke-linecap:round; stroke-linejoin:round; stroke-width:4; stroke-opacity:1; fill:none" points="156.274,871.287 175.172,871.287 "/>
<polyline clip-path="url(#clip170)" style="stroke:#000000; stroke-linecap:round; stroke-linejoin:round; stroke-width:4; stroke-opacity:1; fill:none" points="156.274,610.184 175.172,610.184 "/>
<polyline clip-path="url(#clip170)" style="stroke:#000000; stroke-linecap:round; stroke-linejoin:round; stroke-width:4; stroke-opacity:1; fill:none" points="156.274,349.08 175.172,349.08 "/>
<polyline clip-path="url(#clip170)" style="stroke:#000000; stroke-linecap:round; stroke-linejoin:round; stroke-width:4; stroke-opacity:1; fill:none" points="156.274,87.9763 175.172,87.9763 "/>
<path clip-path="url(#clip170)" d="M64.0939 1379.29 Q60.4828 1379.29 58.6541 1382.86 Q56.8486 1386.4 56.8486 1393.53 Q56.8486 1400.64 58.6541 1404.2 Q60.4828 1407.74 64.0939 1407.74 Q67.7281 1407.74 69.5337 1404.2 Q71.3624 1400.64 71.3624 1393.53 Q71.3624 1386.4 69.5337 1382.86 Q67.7281 1379.29 64.0939 1379.29 M64.0939 1375.59 Q69.9041 1375.59 72.9596 1380.2 Q76.0383 1384.78 76.0383 1393.53 Q76.0383 1402.26 72.9596 1406.86 Q69.9041 1411.45 64.0939 1411.45 Q58.2838 1411.45 55.2051 1406.86 Q52.1495 1402.26 52.1495 1393.53 Q52.1495 1384.78 55.2051 1380.2 Q58.2838 1375.59 64.0939 1375.59 Z" fill="#000000" fill-rule="nonzero" fill-opacity="1" /><path clip-path="url(#clip170)" d="M84.2558 1404.9 L89.1401 1404.9 L89.1401 1410.77 L84.2558 1410.77 L84.2558 1404.9 Z" fill="#000000" fill-rule="nonzero" fill-opacity="1" /><path clip-path="url(#clip170)" d="M99.3715 1376.21 L117.728 1376.21 L117.728 1380.15 L103.654 1380.15 L103.654 1388.62 Q104.672 1388.28 105.691 1388.11 Q106.709 1387.93 107.728 1387.93 Q113.515 1387.93 116.895 1391.1 Q120.274 1394.27 120.274 1399.69 Q120.274 1405.27 116.802 1408.37 Q113.33 1411.45 107.01 1411.45 Q104.834 1411.45 102.566 1411.08 Q100.321 1410.71 97.9132 1409.96 L97.9132 1405.27 Q99.9965 1406.4 102.219 1406.96 Q104.441 1407.51 106.918 1407.51 Q110.922 1407.51 113.26 1405.4 Q115.598 1403.3 115.598 1399.69 Q115.598 1396.08 113.26 1393.97 Q110.922 1391.86 106.918 1391.86 Q105.043 1391.86 103.168 1392.28 Q101.316 1392.7 99.3715 1393.58 L99.3715 1376.21 Z" fill="#000000" fill-rule="nonzero" fill-opacity="1" /><path clip-path="url(#clip170)" d="M62.9365 1118.19 Q59.3254 1118.19 57.4967 1121.75 Q55.6912 1125.3 55.6912 1132.43 Q55.6912 1139.53 57.4967 1143.1 Q59.3254 1146.64 62.9365 1146.64 Q66.5707 1146.64 68.3763 1143.1 Q70.205 1139.53 70.205 1132.43 Q70.205 1125.3 68.3763 1121.75 Q66.5707 1118.19 62.9365 1118.19 M62.9365 1114.49 Q68.7467 1114.49 71.8022 1119.09 Q74.8809 1123.68 74.8809 1132.43 Q74.8809 1141.15 71.8022 1145.76 Q68.7467 1150.34 62.9365 1150.34 Q57.1264 1150.34 54.0477 1145.76 Q50.9921 1141.15 50.9921 1132.43 Q50.9921 1123.68 54.0477 1119.09 Q57.1264 1114.49 62.9365 1114.49 Z" fill="#000000" fill-rule="nonzero" fill-opacity="1" /><path clip-path="url(#clip170)" d="M83.0984 1143.79 L87.9827 1143.79 L87.9827 1149.67 L83.0984 1149.67 L83.0984 1143.79 Z" fill="#000000" fill-rule="nonzero" fill-opacity="1" /><path clip-path="url(#clip170)" d="M108.746 1130.53 Q105.598 1130.53 103.746 1132.68 Q101.918 1134.83 101.918 1138.58 Q101.918 1142.31 103.746 1144.49 Q105.598 1146.64 108.746 1146.64 Q111.895 1146.64 113.723 1144.49 Q115.575 1142.31 115.575 1138.58 Q115.575 1134.83 113.723 1132.68 Q111.895 1130.53 108.746 1130.53 M118.029 1115.88 L118.029 1120.13 Q116.27 1119.3 114.464 1118.86 Q112.682 1118.42 110.922 1118.42 Q106.293 1118.42 103.839 1121.55 Q101.409 1124.67 101.061 1130.99 Q102.427 1128.98 104.487 1127.91 Q106.547 1126.82 109.024 1126.82 Q114.233 1126.82 117.242 1130 Q120.274 1133.14 120.274 1138.58 Q120.274 1143.91 117.126 1147.12 Q113.978 1150.34 108.746 1150.34 Q102.751 1150.34 99.5798 1145.76 Q96.4085 1141.15 96.4085 1132.43 Q96.4085 1124.23 100.297 1119.37 Q104.186 1114.49 110.737 1114.49 Q112.496 1114.49 114.279 1114.83 Q116.084 1115.18 118.029 1115.88 Z" fill="#000000" fill-rule="nonzero" fill-opacity="1" /><path clip-path="url(#clip170)" d="M64.0013 857.086 Q60.3902 857.086 58.5615 860.651 Q56.756 864.193 56.756 871.322 Q56.756 878.429 58.5615 881.993 Q60.3902 885.535 64.0013 885.535 Q67.6356 885.535 69.4411 881.993 Q71.2698 878.429 71.2698 871.322 Q71.2698 864.193 69.4411 860.651 Q67.6356 857.086 64.0013 857.086 M64.0013 853.382 Q69.8115 853.382 72.867 857.989 Q75.9457 862.572 75.9457 871.322 Q75.9457 880.049 72.867 884.655 Q69.8115 889.239 64.0013 889.239 Q58.1912 889.239 55.1125 884.655 Q52.0569 880.049 52.0569 871.322 Q52.0569 862.572 55.1125 857.989 Q58.1912 853.382 64.0013 853.382 Z" fill="#000000" fill-rule="nonzero" fill-opacity="1" /><path clip-path="url(#clip170)" d="M84.1632 882.688 L89.0475 882.688 L89.0475 888.567 L84.1632 888.567 L84.1632 882.688 Z" fill="#000000" fill-rule="nonzero" fill-opacity="1" /><path clip-path="url(#clip170)" d="M98.0521 854.007 L120.274 854.007 L120.274 855.998 L107.728 888.567 L102.844 888.567 L114.649 857.943 L98.0521 857.943 L98.0521 854.007 Z" fill="#000000" fill-rule="nonzero" fill-opacity="1" /><path clip-path="url(#clip170)" d="M63.1911 595.982 Q59.58 595.982 57.7513 599.547 Q55.9458 603.089 55.9458 610.218 Q55.9458 617.325 57.7513 620.89 Q59.58 624.431 63.1911 624.431 Q66.8254 624.431 68.6309 620.89 Q70.4596 617.325 70.4596 610.218 Q70.4596 603.089 68.6309 599.547 Q66.8254 595.982 63.1911 595.982 M63.1911 592.279 Q69.0013 592.279 72.0568 596.885 Q75.1355 601.469 75.1355 610.218 Q75.1355 618.945 72.0568 623.552 Q69.0013 628.135 63.1911 628.135 Q57.381 628.135 54.3023 623.552 Q51.2468 618.945 51.2468 610.218 Q51.2468 601.469 54.3023 596.885 Q57.381 592.279 63.1911 592.279 Z" fill="#000000" fill-rule="nonzero" fill-opacity="1" /><path clip-path="url(#clip170)" d="M83.3531 621.584 L88.2373 621.584 L88.2373 627.464 L83.3531 627.464 L83.3531 621.584 Z" fill="#000000" fill-rule="nonzero" fill-opacity="1" /><path clip-path="url(#clip170)" d="M108.422 611.052 Q105.089 611.052 103.168 612.834 Q101.27 614.617 101.27 617.742 Q101.27 620.867 103.168 622.649 Q105.089 624.431 108.422 624.431 Q111.756 624.431 113.677 622.649 Q115.598 620.843 115.598 617.742 Q115.598 614.617 113.677 612.834 Q111.779 611.052 108.422 611.052 M103.746 609.061 Q100.737 608.32 99.0474 606.26 Q97.3808 604.2 97.3808 601.237 Q97.3808 597.094 100.321 594.686 Q103.284 592.279 108.422 592.279 Q113.584 592.279 116.524 594.686 Q119.464 597.094 119.464 601.237 Q119.464 604.2 117.774 606.26 Q116.108 608.32 113.121 609.061 Q116.501 609.848 118.376 612.14 Q120.274 614.431 120.274 617.742 Q120.274 622.765 117.195 625.45 Q114.14 628.135 108.422 628.135 Q102.705 628.135 99.6261 625.45 Q96.5706 622.765 96.5706 617.742 Q96.5706 614.431 98.4687 612.14 Q100.367 609.848 103.746 609.061 M102.034 601.677 Q102.034 604.362 103.7 605.867 Q105.39 607.371 108.422 607.371 Q111.432 607.371 113.121 605.867 Q114.834 604.362 114.834 601.677 Q114.834 598.992 113.121 597.487 Q111.432 595.982 108.422 595.982 Q105.39 595.982 103.7 597.487 Q102.034 598.992 102.034 601.677 Z" fill="#000000" fill-rule="nonzero" fill-opacity="1" /><path clip-path="url(#clip170)" d="M63.2837 334.879 Q59.6726 334.879 57.8439 338.443 Q56.0384 341.985 56.0384 349.115 Q56.0384 356.221 57.8439 359.786 Q59.6726 363.328 63.2837 363.328 Q66.918 363.328 68.7235 359.786 Q70.5522 356.221 70.5522 349.115 Q70.5522 341.985 68.7235 338.443 Q66.918 334.879 63.2837 334.879 M63.2837 331.175 Q69.0939 331.175 72.1494 335.781 Q75.2281 340.365 75.2281 349.115 Q75.2281 357.842 72.1494 362.448 Q69.0939 367.031 63.2837 367.031 Q57.4736 367.031 54.3949 362.448 Q51.3393 357.842 51.3393 349.115 Q51.3393 340.365 54.3949 335.781 Q57.4736 331.175 63.2837 331.175 Z" fill="#000000" fill-rule="nonzero" fill-opacity="1" /><path clip-path="url(#clip170)" d="M83.4457 360.48 L88.3299 360.48 L88.3299 366.36 L83.4457 366.36 L83.4457 360.48 Z" fill="#000000" fill-rule="nonzero" fill-opacity="1" /><path clip-path="url(#clip170)" d="M98.6539 365.642 L98.6539 361.383 Q100.413 362.217 102.219 362.656 Q104.024 363.096 105.76 363.096 Q110.39 363.096 112.82 359.994 Q115.274 356.869 115.621 350.527 Q114.279 352.517 112.219 353.582 Q110.158 354.647 107.658 354.647 Q102.473 354.647 99.4409 351.522 Q96.4317 348.374 96.4317 342.934 Q96.4317 337.61 99.5798 334.393 Q102.728 331.175 107.959 331.175 Q113.955 331.175 117.103 335.781 Q120.274 340.365 120.274 349.115 Q120.274 357.286 116.385 362.17 Q112.52 367.031 105.969 367.031 Q104.209 367.031 102.404 366.684 Q100.598 366.337 98.6539 365.642 M107.959 350.99 Q111.108 350.99 112.936 348.837 Q114.788 346.684 114.788 342.934 Q114.788 339.207 112.936 337.055 Q111.108 334.879 107.959 334.879 Q104.811 334.879 102.959 337.055 Q101.131 339.207 101.131 342.934 Q101.131 346.684 102.959 348.837 Q104.811 350.99 107.959 350.99 Z" fill="#000000" fill-rule="nonzero" fill-opacity="1" /><path clip-path="url(#clip170)" d="M53.9088 101.321 L61.5476 101.321 L61.5476 74.9555 L53.2375 76.6222 L53.2375 72.3629 L61.5013 70.6963 L66.1772 70.6963 L66.1772 101.321 L73.8161 101.321 L73.8161 105.256 L53.9088 105.256 L53.9088 101.321 Z" fill="#000000" fill-rule="nonzero" fill-opacity="1" /><path clip-path="url(#clip170)" d="M83.2605 99.3767 L88.1447 99.3767 L88.1447 105.256 L83.2605 105.256 L83.2605 99.3767 Z" fill="#000000" fill-rule="nonzero" fill-opacity="1" /><path clip-path="url(#clip170)" d="M108.33 73.775 Q104.719 73.775 102.89 77.3398 Q101.084 80.8814 101.084 88.011 Q101.084 95.1174 102.89 98.6822 Q104.719 102.224 108.33 102.224 Q111.964 102.224 113.77 98.6822 Q115.598 95.1174 115.598 88.011 Q115.598 80.8814 113.77 77.3398 Q111.964 73.775 108.33 73.775 M108.33 70.0713 Q114.14 70.0713 117.195 74.6777 Q120.274 79.261 120.274 88.011 Q120.274 96.7378 117.195 101.344 Q114.14 105.928 108.33 105.928 Q102.52 105.928 99.4409 101.344 Q96.3854 96.7378 96.3854 88.011 Q96.3854 79.261 99.4409 74.6777 Q102.52 70.0713 108.33 70.0713 Z" fill="#000000" fill-rule="nonzero" fill-opacity="1" /><polyline clip-path="url(#clip172)" style="stroke:#009af9; stroke-linecap:round; stroke-linejoin:round; stroke-width:4; stroke-opacity:1; fill:none" points="218.439,975.729 220.513,871.287 222.587,1289.05 224.661,1341.27 226.736,1027.95 228.81,975.729 230.884,714.625 232.958,1445.72 235.033,1080.17 237.107,1341.27 239.181,923.508 241.255,871.287 243.329,819.067 245.404,1236.83 247.478,819.067 249.552,1027.95 251.626,766.846 253.701,871.287 255.775,1341.27 257.849,871.287 259.923,1236.83 261.998,975.729 264.072,923.508 266.146,871.287 268.22,871.287 270.294,1236.83 272.369,1027.95 274.443,923.508 276.517,714.625 278.591,975.729 280.666,923.508 282.74,819.067 284.814,1027.95 286.888,819.067 288.962,923.508 291.037,819.067 293.111,819.067 295.185,1080.17 297.259,1184.61 299.334,923.508 301.408,1132.39 303.482,662.404 305.556,871.287 307.63,871.287 309.705,923.508 311.779,662.404 313.853,453.522 315.927,557.963 318.002,662.404 320.076,557.963 322.15,766.846 324.224,819.067 326.299,662.404 328.373,819.067 330.447,453.522 332.521,349.08 334.595,610.184 336.67,453.522 338.744,453.522 340.818,923.508 342.892,505.742 344.967,662.404 347.041,505.742 349.115,610.184 351.189,453.522 353.263,714.625 355.338,505.742 357.412,453.522 359.486,453.522 361.56,871.287 363.635,662.404 365.709,453.522 367.783,505.742 369.857,714.625 371.932,557.963 374.006,296.859 376.08,662.404 378.154,453.522 380.228,453.522 382.303,453.522 384.377,610.184 386.451,766.846 388.525,819.067 390.6,505.742 392.674,296.859 394.748,819.067 396.822,401.301 398.896,401.301 400.971,453.522 403.045,401.301 405.119,662.404 407.193,505.742 409.268,505.742 411.342,557.963 413.416,349.08 415.49,401.301 417.565,662.404 419.639,662.404 421.713,296.859 423.787,610.184 425.861,557.963 427.936,610.184 430.01,610.184 432.084,505.742 434.158,244.639 436.233,244.639 438.307,610.184 440.381,349.08 442.455,401.301 444.529,401.301 446.604,401.301 448.678,505.742 450.752,296.859 452.826,505.742 454.901,662.404 456.975,662.404 459.049,244.639 461.123,244.639 463.198,453.522 465.272,401.301 467.346,192.418 469.42,296.859 471.494,192.418 473.569,192.418 475.643,244.639 477.717,244.639 479.791,453.522 481.866,296.859 483.94,296.859 486.014,349.08 488.088,87.9763 490.162,296.859 492.237,453.522 494.311,192.418 496.385,296.859 498.459,296.859 500.534,140.197 502.608,453.522 504.682,244.639 506.756,296.859 508.83,244.639 510.905,192.418 512.979,244.639 515.053,296.859 517.127,349.08 519.202,192.418 521.276,244.639 523.35,296.859 525.424,244.639 527.499,296.859 529.573,192.418 531.647,244.639 533.721,244.639 535.795,349.08 537.87,192.418 539.944,87.9763 542.018,296.859 544.092,244.639 546.167,87.9763 548.241,192.418 550.315,192.418 552.389,140.197 554.463,192.418 556.538,244.639 558.612,244.639 560.686,140.197 562.76,192.418 564.835,140.197 566.909,192.418 568.983,244.639 571.057,87.9763 573.132,140.197 575.206,140.197 577.28,296.859 579.354,140.197 581.428,296.859 583.503,244.639 585.577,192.418 587.651,140.197 589.725,192.418 591.8,349.08 593.874,87.9763 595.948,140.197 598.022,192.418 600.096,192.418 602.171,349.08 604.245,192.418 606.319,140.197 608.393,192.418 610.468,244.639 612.542,192.418 614.616,140.197 616.69,140.197 618.765,140.197 620.839,244.639 622.913,140.197 624.987,140.197 627.061,87.9763 629.136,244.639 631.21,87.9763 633.284,192.418 635.358,140.197 637.433,192.418 639.507,140.197 641.581,192.418 643.655,140.197 645.729,87.9763 647.804,140.197 649.878,244.639 651.952,140.197 654.026,140.197 656.101,87.9763 658.175,244.639 660.249,87.9763 662.323,192.418 664.398,140.197 666.472,87.9763 668.546,192.418 670.62,87.9763 672.694,87.9763 674.769,87.9763 676.843,87.9763 678.917,87.9763 680.991,140.197 683.066,87.9763 685.14,140.197 687.214,140.197 689.288,244.639 691.362,140.197 693.437,192.418 695.511,87.9763 697.585,140.197 699.659,296.859 701.734,244.639 703.808,192.418 705.882,192.418 707.956,244.639 710.03,87.9763 712.105,140.197 714.179,192.418 716.253,87.9763 718.327,244.639 720.402,87.9763 722.476,192.418 724.55,244.639 726.624,87.9763 728.699,87.9763 730.773,140.197 732.847,87.9763 734.921,140.197 736.995,192.418 739.07,244.639 741.144,87.9763 743.218,87.9763 745.292,140.197 747.367,192.418 749.441,140.197 751.515,140.197 753.589,140.197 755.663,87.9763 757.738,87.9763 759.812,140.197 761.886,140.197 763.96,140.197 766.035,87.9763 768.109,140.197 770.183,192.418 772.257,244.639 774.332,87.9763 776.406,140.197 778.48,192.418 780.554,87.9763 782.628,140.197 784.703,87.9763 786.777,87.9763 788.851,244.639 790.925,192.418 793,192.418 795.074,140.197 797.148,87.9763 799.222,192.418 801.296,87.9763 803.371,87.9763 805.445,192.418 807.519,87.9763 809.593,140.197 811.668,87.9763 813.742,140.197 815.816,87.9763 817.89,140.197 819.965,192.418 822.039,140.197 824.113,140.197 826.187,87.9763 828.261,192.418 830.336,140.197 832.41,192.418 834.484,87.9763 836.558,87.9763 838.633,140.197 840.707,87.9763 842.781,87.9763 844.855,87.9763 846.929,87.9763 849.004,87.9763 851.078,87.9763 853.152,87.9763 855.226,140.197 857.301,140.197 859.375,192.418 861.449,244.639 863.523,87.9763 865.598,140.197 867.672,244.639 869.746,140.197 871.82,140.197 873.894,140.197 875.969,87.9763 878.043,87.9763 880.117,140.197 882.191,87.9763 884.266,87.9763 886.34,140.197 888.414,87.9763 890.488,87.9763 892.562,87.9763 894.637,87.9763 896.711,87.9763 898.785,140.197 900.859,244.639 902.934,87.9763 905.008,140.197 907.082,87.9763 909.156,140.197 911.23,87.9763 913.305,87.9763 915.379,87.9763 917.453,87.9763 919.527,244.639 921.602,87.9763 923.676,87.9763 925.75,87.9763 927.824,87.9763 929.899,296.859 931.973,87.9763 934.047,87.9763 936.121,87.9763 938.195,244.639 940.27,87.9763 942.344,87.9763 944.418,87.9763 946.492,87.9763 948.567,140.197 950.641,140.197 952.715,192.418 954.789,87.9763 956.863,87.9763 958.938,140.197 961.012,87.9763 963.086,140.197 965.16,140.197 967.235,140.197 969.309,87.9763 971.383,140.197 973.457,140.197 975.532,87.9763 977.606,192.418 979.68,87.9763 981.754,87.9763 983.828,87.9763 985.903,87.9763 987.977,87.9763 990.051,87.9763 992.125,140.197 994.2,140.197 996.274,87.9763 998.348,87.9763 1000.42,87.9763 1002.5,87.9763 1004.57,87.9763 1006.64,87.9763 1008.72,87.9763 1010.79,140.197 1012.87,87.9763 1014.94,87.9763 1017.02,87.9763 1019.09,140.197 1021.16,87.9763 1023.24,87.9763 1025.31,87.9763 1027.39,87.9763 1029.46,87.9763 1031.54,140.197 1033.61,140.197 1035.68,87.9763 1037.76,87.9763 1039.83,87.9763 1041.91,87.9763 1043.98,87.9763 1046.06,140.197 1048.13,87.9763 1050.2,140.197 1052.28,87.9763 1054.35,140.197 1056.43,87.9763 1058.5,87.9763 1060.57,87.9763 1062.65,140.197 1064.72,87.9763 1066.8,87.9763 1068.87,87.9763 1070.95,87.9763 1073.02,140.197 1075.09,87.9763 1077.17,87.9763 1079.24,192.418 1081.32,192.418 1083.39,87.9763 1085.47,140.197 1087.54,140.197 1089.61,140.197 1091.69,87.9763 1093.76,192.418 1095.84,140.197 1097.91,87.9763 1099.99,87.9763 1102.06,87.9763 1104.13,87.9763 1106.21,140.197 1108.28,87.9763 1110.36,87.9763 1112.43,87.9763 1114.5,192.418 1116.58,87.9763 1118.65,87.9763 1120.73,87.9763 1122.8,140.197 1124.88,140.197 1126.95,140.197 1129.02,87.9763 1131.1,192.418 1133.17,87.9763 1135.25,87.9763 1137.32,87.9763 1139.4,87.9763 1141.47,87.9763 1143.54,140.197 1145.62,87.9763 1147.69,140.197 1149.77,87.9763 1151.84,87.9763 1153.92,87.9763 1155.99,87.9763 1158.06,87.9763 1160.14,87.9763 1162.21,87.9763 1164.29,192.418 1166.36,140.197 1168.43,87.9763 1170.51,87.9763 1172.58,87.9763 1174.66,140.197 1176.73,192.418 1178.81,140.197 1180.88,140.197 1182.95,140.197 1185.03,87.9763 1187.1,87.9763 1189.18,140.197 1191.25,87.9763 1193.33,140.197 1195.4,140.197 1197.47,87.9763 1199.55,140.197 1201.62,140.197 1203.7,87.9763 1205.77,87.9763 1207.84,87.9763 1209.92,87.9763 1211.99,87.9763 1214.07,87.9763 1216.14,87.9763 1218.22,192.418 1220.29,87.9763 1222.36,87.9763 1224.44,87.9763 1226.51,87.9763 1228.59,87.9763 1230.66,140.197 1232.74,87.9763 1234.81,140.197 1236.88,140.197 1238.96,87.9763 1241.03,87.9763 1243.11,87.9763 1245.18,140.197 1247.26,140.197 1249.33,87.9763 1251.4,87.9763 1253.48,87.9763 1255.55,87.9763 1257.63,87.9763 1259.7,87.9763 1261.77,87.9763 1263.85,140.197 1265.92,87.9763 1268,87.9763 1270.07,87.9763 1272.15,87.9763 1274.22,87.9763 1276.29,87.9763 1278.37,87.9763 1280.44,192.418 1282.52,87.9763 1284.59,87.9763 1286.67,87.9763 1288.74,87.9763 1290.81,87.9763 1292.89,87.9763 1294.96,87.9763 1297.04,87.9763 1299.11,87.9763 1301.19,87.9763 1303.26,192.418 1305.33,140.197 1307.41,140.197 1309.48,87.9763 1311.56,87.9763 1313.63,192.418 1315.7,87.9763 1317.78,87.9763 1319.85,87.9763 1321.93,87.9763 1324,87.9763 1326.08,87.9763 1328.15,87.9763 1330.22,87.9763 1332.3,140.197 1334.37,87.9763 1336.45,87.9763 1338.52,140.197 1340.6,244.639 1342.67,87.9763 1344.74,87.9763 1346.82,87.9763 1348.89,87.9763 1350.97,87.9763 1353.04,140.197 1355.12,87.9763 1357.19,87.9763 1359.26,140.197 1361.34,87.9763 1363.41,87.9763 1365.49,87.9763 1367.56,87.9763 1369.63,192.418 1371.71,87.9763 1373.78,87.9763 1375.86,140.197 1377.93,87.9763 1380.01,87.9763 1382.08,140.197 1384.15,87.9763 1386.23,87.9763 1388.3,87.9763 1390.38,87.9763 1392.45,87.9763 1394.53,87.9763 1396.6,87.9763 1398.67,87.9763 1400.75,140.197 1402.82,192.418 1404.9,87.9763 1406.97,87.9763 1409.04,140.197 1411.12,87.9763 1413.19,140.197 1415.27,87.9763 1417.34,87.9763 1419.42,140.197 1421.49,87.9763 1423.56,87.9763 1425.64,87.9763 1427.71,87.9763 1429.79,87.9763 1431.86,140.197 1433.94,87.9763 1436.01,87.9763 1438.08,87.9763 1440.16,140.197 1442.23,87.9763 1444.31,87.9763 1446.38,87.9763 1448.46,192.418 1450.53,87.9763 1452.6,87.9763 1454.68,87.9763 1456.75,87.9763 1458.83,87.9763 1460.9,140.197 1462.97,140.197 1465.05,87.9763 1467.12,87.9763 1469.2,87.9763 1471.27,140.197 1473.35,140.197 1475.42,140.197 1477.49,87.9763 1479.57,140.197 1481.64,87.9763 1483.72,192.418 1485.79,140.197 1487.87,140.197 1489.94,87.9763 1492.01,87.9763 1494.09,87.9763 1496.16,87.9763 1498.24,140.197 1500.31,87.9763 1502.39,87.9763 1504.46,87.9763 1506.53,87.9763 1508.61,87.9763 1510.68,87.9763 1512.76,87.9763 1514.83,87.9763 1516.9,87.9763 1518.98,87.9763 1521.05,87.9763 1523.13,87.9763 1525.2,87.9763 1527.28,87.9763 1529.35,87.9763 1531.42,87.9763 1533.5,87.9763 1535.57,87.9763 1537.65,87.9763 1539.72,87.9763 1541.8,87.9763 1543.87,192.418 1545.94,87.9763 1548.02,140.197 1550.09,87.9763 1552.17,87.9763 1554.24,87.9763 1556.32,87.9763 1558.39,87.9763 1560.46,140.197 1562.54,87.9763 1564.61,87.9763 1566.69,87.9763 1568.76,87.9763 1570.83,140.197 1572.91,140.197 1574.98,87.9763 1577.06,87.9763 1579.13,87.9763 1581.21,140.197 1583.28,87.9763 1585.35,87.9763 1587.43,140.197 1589.5,87.9763 1591.58,87.9763 1593.65,87.9763 1595.73,87.9763 1597.8,87.9763 1599.87,87.9763 1601.95,87.9763 1604.02,87.9763 1606.1,140.197 1608.17,140.197 1610.24,87.9763 1612.32,87.9763 1614.39,140.197 1616.47,87.9763 1618.54,87.9763 1620.62,140.197 1622.69,87.9763 1624.76,87.9763 1626.84,192.418 1628.91,87.9763 1630.99,87.9763 1633.06,140.197 1635.14,87.9763 1637.21,87.9763 1639.28,87.9763 1641.36,87.9763 1643.43,87.9763 1645.51,87.9763 1647.58,87.9763 1649.66,87.9763 1651.73,87.9763 1653.8,140.197 1655.88,87.9763 1657.95,87.9763 1660.03,87.9763 1662.1,87.9763 1664.17,87.9763 1666.25,87.9763 1668.32,87.9763 1670.4,87.9763 1672.47,87.9763 1674.55,87.9763 1676.62,140.197 1678.69,87.9763 1680.77,87.9763 1682.84,87.9763 1684.92,140.197 1686.99,244.639 1689.07,140.197 1691.14,140.197 1693.21,87.9763 1695.29,87.9763 1697.36,87.9763 1699.44,87.9763 1701.51,87.9763 1703.59,140.197 1705.66,140.197 1707.73,87.9763 1709.81,87.9763 1711.88,140.197 1713.96,87.9763 1716.03,87.9763 1718.1,87.9763 1720.18,87.9763 1722.25,87.9763 1724.33,87.9763 1726.4,87.9763 1728.48,87.9763 1730.55,87.9763 1732.62,87.9763 1734.7,87.9763 1736.77,87.9763 1738.85,140.197 1740.92,87.9763 1743,140.197 1745.07,87.9763 1747.14,140.197 1749.22,140.197 1751.29,87.9763 1753.37,87.9763 1755.44,87.9763 1757.52,87.9763 1759.59,87.9763 1761.66,87.9763 1763.74,87.9763 1765.81,87.9763 1767.89,87.9763 1769.96,87.9763 1772.03,87.9763 1774.11,87.9763 1776.18,192.418 1778.26,87.9763 1780.33,87.9763 1782.41,87.9763 1784.48,87.9763 1786.55,87.9763 1788.63,87.9763 1790.7,140.197 1792.78,87.9763 1794.85,87.9763 1796.93,140.197 1799,140.197 1801.07,87.9763 1803.15,140.197 1805.22,140.197 1807.3,87.9763 1809.37,140.197 1811.44,87.9763 1813.52,87.9763 1815.59,87.9763 1817.67,87.9763 1819.74,87.9763 1821.82,140.197 1823.89,87.9763 1825.96,87.9763 1828.04,140.197 1830.11,87.9763 1832.19,87.9763 1834.26,140.197 1836.34,87.9763 1838.41,87.9763 1840.48,87.9763 1842.56,87.9763 1844.63,87.9763 1846.71,87.9763 1848.78,140.197 1850.86,87.9763 1852.93,140.197 1855,140.197 1857.08,140.197 1859.15,140.197 1861.23,87.9763 1863.3,87.9763 1865.37,87.9763 1867.45,87.9763 1869.52,87.9763 1871.6,87.9763 1873.67,87.9763 1875.75,87.9763 1877.82,87.9763 1879.89,140.197 1881.97,87.9763 1884.04,87.9763 1886.12,140.197 1888.19,140.197 1890.27,87.9763 1892.34,87.9763 1894.41,87.9763 1896.49,192.418 1898.56,87.9763 1900.64,87.9763 1902.71,87.9763 1904.79,192.418 1906.86,87.9763 1908.93,87.9763 1911.01,87.9763 1913.08,140.197 1915.16,87.9763 1917.23,87.9763 1919.3,87.9763 1921.38,87.9763 1923.45,87.9763 1925.53,87.9763 1927.6,87.9763 1929.68,87.9763 1931.75,87.9763 1933.82,87.9763 1935.9,140.197 1937.97,192.418 1940.05,87.9763 1942.12,87.9763 1944.2,87.9763 1946.27,87.9763 1948.34,140.197 1950.42,87.9763 1952.49,87.9763 1954.57,87.9763 1956.64,140.197 1958.72,87.9763 1960.79,87.9763 1962.86,87.9763 1964.94,87.9763 1967.01,87.9763 1969.09,87.9763 1971.16,87.9763 1973.23,87.9763 1975.31,87.9763 1977.38,87.9763 1979.46,87.9763 1981.53,87.9763 1983.61,140.197 1985.68,87.9763 1987.75,87.9763 1989.83,87.9763 1991.9,87.9763 1993.98,87.9763 1996.05,87.9763 1998.13,87.9763 2000.2,87.9763 2002.27,87.9763 2004.35,140.197 2006.42,140.197 2008.5,87.9763 2010.57,140.197 2012.64,87.9763 2014.72,87.9763 2016.79,87.9763 2018.87,87.9763 2020.94,87.9763 2023.02,140.197 2025.09,87.9763 2027.16,87.9763 2029.24,87.9763 2031.31,87.9763 2033.39,87.9763 2035.46,87.9763 2037.54,87.9763 2039.61,87.9763 2041.68,87.9763 2043.76,87.9763 2045.83,87.9763 2047.91,87.9763 2049.98,87.9763 2052.06,140.197 2054.13,87.9763 2056.2,87.9763 2058.28,87.9763 2060.35,87.9763 2062.43,87.9763 2064.5,140.197 2066.57,87.9763 2068.65,87.9763 2070.72,87.9763 2072.8,87.9763 2074.87,87.9763 2076.95,87.9763 2079.02,87.9763 2081.09,140.197 2083.17,87.9763 2085.24,87.9763 2087.32,87.9763 2089.39,87.9763 2091.47,87.9763 2093.54,87.9763 2095.61,87.9763 2097.69,87.9763 2099.76,87.9763 2101.84,87.9763 2103.91,140.197 2105.99,87.9763 2108.06,87.9763 2110.13,140.197 2112.21,87.9763 2114.28,87.9763 2116.36,87.9763 2118.43,87.9763 2120.5,87.9763 2122.58,87.9763 2124.65,87.9763 2126.73,87.9763 2128.8,87.9763 2130.88,140.197 2132.95,87.9763 2135.02,87.9763 2137.1,87.9763 2139.17,87.9763 2141.25,87.9763 2143.32,87.9763 2145.4,87.9763 2147.47,140.197 2149.54,140.197 2151.62,87.9763 2153.69,140.197 2155.77,87.9763 2157.84,87.9763 2159.92,87.9763 2161.99,87.9763 2164.06,87.9763 2166.14,87.9763 2168.21,87.9763 2170.29,87.9763 2172.36,87.9763 2174.43,87.9763 2176.51,140.197 2178.58,87.9763 2180.66,87.9763 2182.73,87.9763 2184.81,87.9763 2186.88,87.9763 2188.95,87.9763 2191.03,87.9763 2193.1,140.197 2195.18,140.197 2197.25,87.9763 2199.33,87.9763 2201.4,87.9763 2203.47,87.9763 2205.55,87.9763 2207.62,192.418 2209.7,87.9763 2211.77,87.9763 2213.84,87.9763 2215.92,140.197 2217.99,87.9763 2220.07,87.9763 2222.14,140.197 2224.22,87.9763 2226.29,87.9763 2228.36,87.9763 2230.44,140.197 2232.51,87.9763 2234.59,87.9763 2236.66,87.9763 2238.74,87.9763 2240.81,87.9763 2242.88,87.9763 2244.96,87.9763 2247.03,87.9763 2249.11,87.9763 2251.18,87.9763 2253.26,140.197 2255.33,87.9763 2257.4,87.9763 2259.48,87.9763 2261.55,140.197 2263.63,87.9763 2265.7,87.9763 2267.77,87.9763 2269.85,87.9763 2271.92,87.9763 2274,87.9763 2276.07,87.9763 2278.15,87.9763 2280.22,87.9763 2282.29,87.9763 2284.37,87.9763 2286.44,87.9763 2288.52,87.9763 2290.59,87.9763 "/>
<path clip-path="url(#clip170)" d="M2007.46 1438.47 L2279.54 1438.47 L2279.54 1334.79 L2007.46 1334.79  Z" fill="#ffffff" fill-rule="evenodd" fill-opacity="1"/>
<polyline clip-path="url(#clip170)" style="stroke:#000000; stroke-linecap:round; stroke-linejoin:round; stroke-width:4; stroke-opacity:1; fill:none" points="2007.46,1438.47 2279.54,1438.47 2279.54,1334.79 2007.46,1334.79 2007.46,1438.47 "/>
<polyline clip-path="url(#clip170)" style="stroke:#009af9; stroke-linecap:round; stroke-linejoin:round; stroke-width:4; stroke-opacity:1; fill:none" points="2031.87,1386.63 2178.3,1386.63 "/>
<path clip-path="url(#clip170)" d="M2216.55 1406.32 Q2214.74 1410.95 2213.03 1412.36 Q2211.32 1413.78 2208.44 1413.78 L2205.04 1413.78 L2205.04 1410.21 L2207.54 1410.21 Q2209.3 1410.21 2210.27 1409.38 Q2211.25 1408.54 2212.43 1405.44 L2213.19 1403.5 L2202.7 1377.99 L2207.22 1377.99 L2215.32 1398.27 L2223.42 1377.99 L2227.94 1377.99 L2216.55 1406.32 Z" fill="#000000" fill-rule="nonzero" fill-opacity="1" /><path clip-path="url(#clip170)" d="M2235.23 1399.98 L2242.87 1399.98 L2242.87 1373.61 L2234.56 1375.28 L2234.56 1371.02 L2242.82 1369.35 L2247.5 1369.35 L2247.5 1399.98 L2255.13 1399.98 L2255.13 1403.91 L2235.23 1403.91 L2235.23 1399.98 Z" fill="#000000" fill-rule="nonzero" fill-opacity="1" /></svg>
