<?xml version="1.0" encoding="utf-8"?>
<svg xmlns="http://www.w3.org/2000/svg" xmlns:xlink="http://www.w3.org/1999/xlink" width="600" height="400" viewBox="0 0 2400 1600">
<defs>
  <clipPath id="clip480">
    <rect x="0" y="0" width="2400" height="1600"/>
  </clipPath>
</defs>
<path clip-path="url(#clip480)" d="M0 1600 L2400 1600 L2400 0 L0 0  Z" fill="#ffffff" fill-rule="evenodd" fill-opacity="1"/>
<defs>
  <clipPath id="clip481">
    <rect x="480" y="0" width="1681" height="1600"/>
  </clipPath>
</defs>
<path clip-path="url(#clip480)" d="M156.598 1486.45 L2352.76 1486.45 L2352.76 47.2441 L156.598 47.2441  Z" fill="#ffffff" fill-rule="evenodd" fill-opacity="1"/>
<defs>
  <clipPath id="clip482">
    <rect x="156" y="47" width="2197" height="1440"/>
  </clipPath>
</defs>
<polyline clip-path="url(#clip482)" style="stroke:#000000; stroke-linecap:round; stroke-linejoin:round; stroke-width:2; stroke-opacity:0.1; fill:none" points="218.754,1486.45 218.754,47.2441 "/>
<polyline clip-path="url(#clip482)" style="stroke:#000000; stroke-linecap:round; stroke-linejoin:round; stroke-width:2; stroke-opacity:0.1; fill:none" points="736.715,1486.45 736.715,47.2441 "/>
<polyline clip-path="url(#clip482)" style="stroke:#000000; stroke-linecap:round; stroke-linejoin:round; stroke-width:2; stroke-opacity:0.1; fill:none" points="1254.68,1486.45 1254.68,47.2441 "/>
<polyline clip-path="url(#clip482)" style="stroke:#000000; stroke-linecap:round; stroke-linejoin:round; stroke-width:2; stroke-opacity:0.1; fill:none" points="1772.64,1486.45 1772.64,47.2441 "/>
<polyline clip-path="url(#clip482)" style="stroke:#000000; stroke-linecap:round; stroke-linejoin:round; stroke-width:2; stroke-opacity:0.1; fill:none" points="2290.6,1486.45 2290.6,47.2441 "/>
<polyline clip-path="url(#clip480)" style="stroke:#000000; stroke-linecap:round; stroke-linejoin:round; stroke-width:4; stroke-opacity:1; fill:none" points="156.598,1486.45 2352.76,1486.45 "/>
<polyline clip-path="url(#clip480)" style="stroke:#000000; stroke-linecap:round; stroke-linejoin:round; stroke-width:4; stroke-opacity:1; fill:none" points="218.754,1486.45 218.754,1467.55 "/>
<polyline clip-path="url(#clip480)" style="stroke:#000000; stroke-linecap:round; stroke-linejoin:round; stroke-width:4; stroke-opacity:1; fill:none" points="736.715,1486.45 736.715,1467.55 "/>
<polyline clip-path="url(#clip480)" style="stroke:#000000; stroke-linecap:round; stroke-linejoin:round; stroke-width:4; stroke-opacity:1; fill:none" points="1254.68,1486.45 1254.68,1467.55 "/>
<polyline clip-path="url(#clip480)" style="stroke:#000000; stroke-linecap:round; stroke-linejoin:round; stroke-width:4; stroke-opacity:1; fill:none" points="1772.64,1486.45 1772.64,1467.55 "/>
<polyline clip-path="url(#clip480)" style="stroke:#000000; stroke-linecap:round; stroke-linejoin:round; stroke-width:4; stroke-opacity:1; fill:none" points="2290.6,1486.45 2290.6,1467.55 "/>
<path clip-path="url(#clip480)" d="M218.754 1517.37 Q215.143 1517.37 213.314 1520.93 Q211.508 1524.47 211.508 1531.6 Q211.508 1538.71 213.314 1542.27 Q215.143 1545.82 218.754 1545.82 Q222.388 1545.82 224.193 1542.27 Q226.022 1538.71 226.022 1531.6 Q226.022 1524.47 224.193 1520.93 Q222.388 1517.37 218.754 1517.37 M218.754 1513.66 Q224.564 1513.66 227.619 1518.27 Q230.698 1522.85 230.698 1531.6 Q230.698 1540.33 227.619 1544.94 Q224.564 1549.52 218.754 1549.52 Q212.943 1549.52 209.865 1544.94 Q206.809 1540.33 206.809 1531.6 Q206.809 1522.85 209.865 1518.27 Q212.943 1513.66 218.754 1513.66 Z" fill="#000000" fill-rule="nonzero" fill-opacity="1" /><path clip-path="url(#clip480)" d="M696.334 1514.29 L714.69 1514.29 L714.69 1518.22 L700.616 1518.22 L700.616 1526.7 Q701.635 1526.35 702.653 1526.19 Q703.672 1526 704.69 1526 Q710.477 1526 713.857 1529.17 Q717.236 1532.34 717.236 1537.76 Q717.236 1543.34 713.764 1546.44 Q710.292 1549.52 703.972 1549.52 Q701.797 1549.52 699.528 1549.15 Q697.283 1548.78 694.875 1548.04 L694.875 1543.34 Q696.959 1544.47 699.181 1545.03 Q701.403 1545.58 703.88 1545.58 Q707.884 1545.58 710.222 1543.48 Q712.56 1541.37 712.56 1537.76 Q712.56 1534.15 710.222 1532.04 Q707.884 1529.94 703.88 1529.94 Q702.005 1529.94 700.13 1530.35 Q698.278 1530.77 696.334 1531.65 L696.334 1514.29 Z" fill="#000000" fill-rule="nonzero" fill-opacity="1" /><path clip-path="url(#clip480)" d="M736.449 1517.37 Q732.838 1517.37 731.009 1520.93 Q729.204 1524.47 729.204 1531.6 Q729.204 1538.71 731.009 1542.27 Q732.838 1545.82 736.449 1545.82 Q740.083 1545.82 741.889 1542.27 Q743.718 1538.71 743.718 1531.6 Q743.718 1524.47 741.889 1520.93 Q740.083 1517.37 736.449 1517.37 M736.449 1513.66 Q742.259 1513.66 745.315 1518.27 Q748.394 1522.85 748.394 1531.6 Q748.394 1540.33 745.315 1544.94 Q742.259 1549.52 736.449 1549.52 Q730.639 1549.52 727.56 1544.94 Q724.505 1540.33 724.505 1531.6 Q724.505 1522.85 727.56 1518.27 Q730.639 1513.66 736.449 1513.66 Z" fill="#000000" fill-rule="nonzero" fill-opacity="1" /><path clip-path="url(#clip480)" d="M766.611 1517.37 Q763 1517.37 761.171 1520.93 Q759.366 1524.47 759.366 1531.6 Q759.366 1538.71 761.171 1542.27 Q763 1545.82 766.611 1545.82 Q770.245 1545.82 772.051 1542.27 Q773.88 1538.71 773.88 1531.6 Q773.88 1524.47 772.051 1520.93 Q770.245 1517.37 766.611 1517.37 M766.611 1513.66 Q772.421 1513.66 775.477 1518.27 Q778.555 1522.85 778.555 1531.6 Q778.555 1540.33 775.477 1544.94 Q772.421 1549.52 766.611 1549.52 Q760.801 1549.52 757.722 1544.94 Q754.667 1540.33 754.667 1531.6 Q754.667 1522.85 757.722 1518.27 Q760.801 1513.66 766.611 1513.66 Z" fill="#000000" fill-rule="nonzero" fill-opacity="1" /><path clip-path="url(#clip480)" d="M1199.2 1544.91 L1206.84 1544.91 L1206.84 1518.55 L1198.53 1520.21 L1198.53 1515.95 L1206.8 1514.29 L1211.47 1514.29 L1211.47 1544.91 L1219.11 1544.91 L1219.11 1548.85 L1199.2 1548.85 L1199.2 1544.91 Z" fill="#000000" fill-rule="nonzero" fill-opacity="1" /><path clip-path="url(#clip480)" d="M1238.55 1517.37 Q1234.94 1517.37 1233.11 1520.93 Q1231.31 1524.47 1231.31 1531.6 Q1231.31 1538.71 1233.11 1542.27 Q1234.94 1545.82 1238.55 1545.82 Q1242.19 1545.82 1243.99 1542.27 Q1245.82 1538.71 1245.82 1531.6 Q1245.82 1524.47 1243.99 1520.93 Q1242.19 1517.37 1238.55 1517.37 M1238.55 1513.66 Q1244.36 1513.66 1247.42 1518.27 Q1250.5 1522.85 1250.5 1531.6 Q1250.5 1540.33 1247.42 1544.94 Q1244.36 1549.52 1238.55 1549.52 Q1232.74 1549.52 1229.67 1544.94 Q1226.61 1540.33 1226.61 1531.6 Q1226.61 1522.85 1229.67 1518.27 Q1232.74 1513.66 1238.55 1513.66 Z" fill="#000000" fill-rule="nonzero" fill-opacity="1" /><path clip-path="url(#clip480)" d="M1268.72 1517.37 Q1265.11 1517.37 1263.28 1520.93 Q1261.47 1524.47 1261.47 1531.6 Q1261.47 1538.71 1263.28 1542.27 Q1265.11 1545.82 1268.72 1545.82 Q1272.35 1545.82 1274.16 1542.27 Q1275.98 1538.71 1275.98 1531.6 Q1275.98 1524.47 1274.16 1520.93 Q1272.35 1517.37 1268.72 1517.37 M1268.72 1513.66 Q1274.53 1513.66 1277.58 1518.27 Q1280.66 1522.85 1280.66 1531.6 Q1280.66 1540.33 1277.58 1544.94 Q1274.53 1549.52 1268.72 1549.52 Q1262.91 1549.52 1259.83 1544.94 Q1256.77 1540.33 1256.77 1531.6 Q1256.77 1522.85 1259.83 1518.27 Q1262.91 1513.66 1268.72 1513.66 Z" fill="#000000" fill-rule="nonzero" fill-opacity="1" /><path clip-path="url(#clip480)" d="M1298.88 1517.37 Q1295.27 1517.37 1293.44 1520.93 Q1291.63 1524.47 1291.63 1531.6 Q1291.63 1538.71 1293.44 1542.27 Q1295.27 1545.82 1298.88 1545.82 Q1302.51 1545.82 1304.32 1542.27 Q1306.15 1538.71 1306.15 1531.6 Q1306.15 1524.47 1304.32 1520.93 Q1302.51 1517.37 1298.88 1517.37 M1298.88 1513.66 Q1304.69 1513.66 1307.74 1518.27 Q1310.82 1522.85 1310.82 1531.6 Q1310.82 1540.33 1307.74 1544.94 Q1304.69 1549.52 1298.88 1549.52 Q1293.07 1549.52 1289.99 1544.94 Q1286.93 1540.33 1286.93 1531.6 Q1286.93 1522.85 1289.99 1518.27 Q1293.07 1513.66 1298.88 1513.66 Z" fill="#000000" fill-rule="nonzero" fill-opacity="1" /><path clip-path="url(#clip480)" d="M1717.16 1544.91 L1724.8 1544.91 L1724.8 1518.55 L1716.49 1520.21 L1716.49 1515.95 L1724.76 1514.29 L1729.43 1514.29 L1729.43 1544.91 L1737.07 1544.91 L1737.07 1548.85 L1717.16 1548.85 L1717.16 1544.91 Z" fill="#000000" fill-rule="nonzero" fill-opacity="1" /><path clip-path="url(#clip480)" d="M1746.56 1514.29 L1764.92 1514.29 L1764.92 1518.22 L1750.84 1518.22 L1750.84 1526.7 Q1751.86 1526.35 1752.88 1526.19 Q1753.9 1526 1754.92 1526 Q1760.71 1526 1764.09 1529.17 Q1767.47 1532.34 1767.47 1537.76 Q1767.47 1543.34 1763.99 1546.44 Q1760.52 1549.52 1754.2 1549.52 Q1752.03 1549.52 1749.76 1549.15 Q1747.51 1548.78 1745.1 1548.04 L1745.1 1543.34 Q1747.19 1544.47 1749.41 1545.03 Q1751.63 1545.58 1754.11 1545.58 Q1758.11 1545.58 1760.45 1543.48 Q1762.79 1541.37 1762.79 1537.76 Q1762.79 1534.15 1760.45 1532.04 Q1758.11 1529.94 1754.11 1529.94 Q1752.23 1529.94 1750.36 1530.35 Q1748.51 1530.77 1746.56 1531.65 L1746.56 1514.29 Z" fill="#000000" fill-rule="nonzero" fill-opacity="1" /><path clip-path="url(#clip480)" d="M1786.68 1517.37 Q1783.07 1517.37 1781.24 1520.93 Q1779.43 1524.47 1779.43 1531.6 Q1779.43 1538.71 1781.24 1542.27 Q1783.07 1545.82 1786.68 1545.82 Q1790.31 1545.82 1792.12 1542.27 Q1793.95 1538.71 1793.95 1531.6 Q1793.95 1524.47 1792.12 1520.93 Q1790.31 1517.37 1786.68 1517.37 M1786.68 1513.66 Q1792.49 1513.66 1795.54 1518.27 Q1798.62 1522.85 1798.62 1531.6 Q1798.62 1540.33 1795.54 1544.94 Q1792.49 1549.52 1786.68 1549.52 Q1780.87 1549.52 1777.79 1544.94 Q1774.73 1540.33 1774.73 1531.6 Q1774.73 1522.85 1777.79 1518.27 Q1780.87 1513.66 1786.68 1513.66 Z" fill="#000000" fill-rule="nonzero" fill-opacity="1" /><path clip-path="url(#clip480)" d="M1816.84 1517.37 Q1813.23 1517.37 1811.4 1520.93 Q1809.59 1524.47 1809.59 1531.6 Q1809.59 1538.71 1811.4 1542.27 Q1813.23 1545.82 1816.84 1545.82 Q1820.47 1545.82 1822.28 1542.27 Q1824.11 1538.71 1824.11 1531.6 Q1824.11 1524.47 1822.28 1520.93 Q1820.47 1517.37 1816.84 1517.37 M1816.84 1513.66 Q1822.65 1513.66 1825.71 1518.27 Q1828.78 1522.85 1828.78 1531.6 Q1828.78 1540.33 1825.71 1544.94 Q1822.65 1549.52 1816.84 1549.52 Q1811.03 1549.52 1807.95 1544.94 Q1804.9 1540.33 1804.9 1531.6 Q1804.9 1522.85 1807.95 1518.27 Q1811.03 1513.66 1816.84 1513.66 Z" fill="#000000" fill-rule="nonzero" fill-opacity="1" /><path clip-path="url(#clip480)" d="M2239.21 1544.91 L2255.53 1544.91 L2255.53 1548.85 L2233.59 1548.85 L2233.59 1544.91 Q2236.25 1542.16 2240.83 1537.53 Q2245.44 1532.88 2246.62 1531.53 Q2248.86 1529.01 2249.74 1527.27 Q2250.65 1525.51 2250.65 1523.82 Q2250.65 1521.07 2248.7 1519.33 Q2246.78 1517.6 2243.68 1517.6 Q2241.48 1517.6 2239.03 1518.36 Q2236.6 1519.13 2233.82 1520.68 L2233.82 1515.95 Q2236.64 1514.82 2239.1 1514.24 Q2241.55 1513.66 2243.59 1513.66 Q2248.96 1513.66 2252.15 1516.35 Q2255.35 1519.03 2255.35 1523.52 Q2255.35 1525.65 2254.54 1527.57 Q2253.75 1529.47 2251.64 1532.07 Q2251.06 1532.74 2247.96 1535.95 Q2244.86 1539.15 2239.21 1544.91 Z" fill="#000000" fill-rule="nonzero" fill-opacity="1" /><path clip-path="url(#clip480)" d="M2275.35 1517.37 Q2271.73 1517.37 2269.91 1520.93 Q2268.1 1524.47 2268.1 1531.6 Q2268.1 1538.71 2269.91 1542.27 Q2271.73 1545.82 2275.35 1545.82 Q2278.98 1545.82 2280.79 1542.27 Q2282.61 1538.71 2282.61 1531.6 Q2282.61 1524.47 2280.79 1520.93 Q2278.98 1517.37 2275.35 1517.37 M2275.35 1513.66 Q2281.16 1513.66 2284.21 1518.27 Q2287.29 1522.85 2287.29 1531.6 Q2287.29 1540.33 2284.21 1544.94 Q2281.16 1549.52 2275.35 1549.52 Q2269.54 1549.52 2266.46 1544.94 Q2263.4 1540.33 2263.4 1531.6 Q2263.4 1522.85 2266.46 1518.27 Q2269.54 1513.66 2275.35 1513.66 Z" fill="#000000" fill-rule="nonzero" fill-opacity="1" /><path clip-path="url(#clip480)" d="M2305.51 1517.37 Q2301.9 1517.37 2300.07 1520.93 Q2298.26 1524.47 2298.26 1531.6 Q2298.26 1538.71 2300.07 1542.27 Q2301.9 1545.82 2305.51 1545.82 Q2309.14 1545.82 2310.95 1542.27 Q2312.78 1538.71 2312.78 1531.6 Q2312.78 1524.47 2310.95 1520.93 Q2309.14 1517.37 2305.51 1517.37 M2305.51 1513.66 Q2311.32 1513.66 2314.37 1518.27 Q2317.45 1522.85 2317.45 1531.6 Q2317.45 1540.33 2314.37 1544.94 Q2311.32 1549.52 2305.51 1549.52 Q2299.7 1549.52 2296.62 1544.94 Q2293.56 1540.33 2293.56 1531.6 Q2293.56 1522.85 2296.62 1518.27 Q2299.7 1513.66 2305.51 1513.66 Z" fill="#000000" fill-rule="nonzero" fill-opacity="1" /><path clip-path="url(#clip480)" d="M2335.67 1517.37 Q2332.06 1517.37 2330.23 1520.93 Q2328.42 1524.47 2328.42 1531.6 Q2328.42 1538.71 2330.23 1542.27 Q2332.06 1545.82 2335.67 1545.82 Q2339.3 1545.82 2341.11 1542.27 Q2342.94 1538.71 2342.94 1531.6 Q2342.94 1524.47 2341.11 1520.93 Q2339.3 1517.37 2335.67 1517.37 M2335.67 1513.66 Q2341.48 1513.66 2344.54 1518.27 Q2347.61 1522.85 2347.61 1531.6 Q2347.61 1540.33 2344.54 1544.94 Q2341.48 1549.52 2335.67 1549.52 Q2329.86 1549.52 2326.78 1544.94 Q2323.73 1540.33 2323.73 1531.6 Q2323.73 1522.85 2326.78 1518.27 Q2329.86 1513.66 2335.67 1513.66 Z" fill="#000000" fill-rule="nonzero" fill-opacity="1" /><polyline clip-path="url(#clip482)" style="stroke:#000000; stroke-linecap:round; stroke-linejoin:round; stroke-width:2; stroke-opacity:0.1; fill:none" points="156.598,1449.28 2352.76,1449.28 "/>
<polyline clip-path="url(#clip482)" style="stroke:#000000; stroke-linecap:round; stroke-linejoin:round; stroke-width:2; stroke-opacity:0.1; fill:none" points="156.598,1198.8 2352.76,1198.8 "/>
<polyline clip-path="url(#clip482)" style="stroke:#000000; stroke-linecap:round; stroke-linejoin:round; stroke-width:2; stroke-opacity:0.1; fill:none" points="156.598,948.314 2352.76,948.314 "/>
<polyline clip-path="url(#clip482)" style="stroke:#000000; stroke-linecap:round; stroke-linejoin:round; stroke-width:2; stroke-opacity:0.1; fill:none" points="156.598,697.83 2352.76,697.83 "/>
<polyline clip-path="url(#clip482)" style="stroke:#000000; stroke-linecap:round; stroke-linejoin:round; stroke-width:2; stroke-opacity:0.1; fill:none" points="156.598,447.347 2352.76,447.347 "/>
<polyline clip-path="url(#clip482)" style="stroke:#000000; stroke-linecap:round; stroke-linejoin:round; stroke-width:2; stroke-opacity:0.1; fill:none" points="156.598,196.864 2352.76,196.864 "/>
<polyline clip-path="url(#clip480)" style="stroke:#000000; stroke-linecap:round; stroke-linejoin:round; stroke-width:4; stroke-opacity:1; fill:none" points="156.598,1486.45 156.598,47.2441 "/>
<polyline clip-path="url(#clip480)" style="stroke:#000000; stroke-linecap:round; stroke-linejoin:round; stroke-width:4; stroke-opacity:1; fill:none" points="156.598,1449.28 175.496,1449.28 "/>
<polyline clip-path="url(#clip480)" style="stroke:#000000; stroke-linecap:round; stroke-linejoin:round; stroke-width:4; stroke-opacity:1; fill:none" points="156.598,1198.8 175.496,1198.8 "/>
<polyline clip-path="url(#clip480)" style="stroke:#000000; stroke-linecap:round; stroke-linejoin:round; stroke-width:4; stroke-opacity:1; fill:none" points="156.598,948.314 175.496,948.314 "/>
<polyline clip-path="url(#clip480)" style="stroke:#000000; stroke-linecap:round; stroke-linejoin:round; stroke-width:4; stroke-opacity:1; fill:none" points="156.598,697.83 175.496,697.83 "/>
<polyline clip-path="url(#clip480)" style="stroke:#000000; stroke-linecap:round; stroke-linejoin:round; stroke-width:4; stroke-opacity:1; fill:none" points="156.598,447.347 175.496,447.347 "/>
<polyline clip-path="url(#clip480)" style="stroke:#000000; stroke-linecap:round; stroke-linejoin:round; stroke-width:4; stroke-opacity:1; fill:none" points="156.598,196.864 175.496,196.864 "/>
<path clip-path="url(#clip480)" d="M63.4226 1435.08 Q59.8115 1435.08 57.9828 1438.64 Q56.1773 1442.19 56.1773 1449.31 Q56.1773 1456.42 57.9828 1459.99 Q59.8115 1463.53 63.4226 1463.53 Q67.0569 1463.53 68.8624 1459.99 Q70.6911 1456.42 70.6911 1449.31 Q70.6911 1442.19 68.8624 1438.64 Q67.0569 1435.08 63.4226 1435.08 M63.4226 1431.38 Q69.2328 1431.38 72.2883 1435.98 Q75.367 1440.56 75.367 1449.31 Q75.367 1458.04 72.2883 1462.65 Q69.2328 1467.23 63.4226 1467.23 Q57.6125 1467.23 54.5338 1462.65 Q51.4782 1458.04 51.4782 1449.31 Q51.4782 1440.56 54.5338 1435.98 Q57.6125 1431.38 63.4226 1431.38 Z" fill="#000000" fill-rule="nonzero" fill-opacity="1" /><path clip-path="url(#clip480)" d="M83.5845 1460.68 L88.4688 1460.68 L88.4688 1466.56 L83.5845 1466.56 L83.5845 1460.68 Z" fill="#000000" fill-rule="nonzero" fill-opacity="1" /><path clip-path="url(#clip480)" d="M108.654 1435.08 Q105.043 1435.08 103.214 1438.64 Q101.409 1442.19 101.409 1449.31 Q101.409 1456.42 103.214 1459.99 Q105.043 1463.53 108.654 1463.53 Q112.288 1463.53 114.094 1459.99 Q115.922 1456.42 115.922 1449.31 Q115.922 1442.19 114.094 1438.64 Q112.288 1435.08 108.654 1435.08 M108.654 1431.38 Q114.464 1431.38 117.52 1435.98 Q120.598 1440.56 120.598 1449.31 Q120.598 1458.04 117.52 1462.65 Q114.464 1467.23 108.654 1467.23 Q102.844 1467.23 99.765 1462.65 Q96.7095 1458.04 96.7095 1449.31 Q96.7095 1440.56 99.765 1435.98 Q102.844 1431.38 108.654 1431.38 Z" fill="#000000" fill-rule="nonzero" fill-opacity="1" /><path clip-path="url(#clip480)" d="M64.6495 1184.6 Q61.0384 1184.6 59.2097 1188.16 Q57.4041 1191.7 57.4041 1198.83 Q57.4041 1205.94 59.2097 1209.5 Q61.0384 1213.04 64.6495 1213.04 Q68.2837 1213.04 70.0892 1209.5 Q71.9179 1205.94 71.9179 1198.83 Q71.9179 1191.7 70.0892 1188.16 Q68.2837 1184.6 64.6495 1184.6 M64.6495 1180.89 Q70.4596 1180.89 73.5152 1185.5 Q76.5938 1190.08 76.5938 1198.83 Q76.5938 1207.56 73.5152 1212.16 Q70.4596 1216.75 64.6495 1216.75 Q58.8393 1216.75 55.7606 1212.16 Q52.7051 1207.56 52.7051 1198.83 Q52.7051 1190.08 55.7606 1185.5 Q58.8393 1180.89 64.6495 1180.89 Z" fill="#000000" fill-rule="nonzero" fill-opacity="1" /><path clip-path="url(#clip480)" d="M84.8114 1210.2 L89.6956 1210.2 L89.6956 1216.08 L84.8114 1216.08 L84.8114 1210.2 Z" fill="#000000" fill-rule="nonzero" fill-opacity="1" /><path clip-path="url(#clip480)" d="M100.691 1212.14 L108.33 1212.14 L108.33 1185.78 L100.02 1187.44 L100.02 1183.18 L108.283 1181.52 L112.959 1181.52 L112.959 1212.14 L120.598 1212.14 L120.598 1216.08 L100.691 1216.08 L100.691 1212.14 Z" fill="#000000" fill-rule="nonzero" fill-opacity="1" /><path clip-path="url(#clip480)" d="M65.0198 934.112 Q61.4087 934.112 59.58 937.677 Q57.7745 941.219 57.7745 948.348 Q57.7745 955.455 59.58 959.019 Q61.4087 962.561 65.0198 962.561 Q68.6541 962.561 70.4596 959.019 Q72.2883 955.455 72.2883 948.348 Q72.2883 941.219 70.4596 937.677 Q68.6541 934.112 65.0198 934.112 M65.0198 930.409 Q70.83 930.409 73.8855 935.015 Q76.9642 939.598 76.9642 948.348 Q76.9642 957.075 73.8855 961.682 Q70.83 966.265 65.0198 966.265 Q59.2097 966.265 56.131 961.682 Q53.0754 957.075 53.0754 948.348 Q53.0754 939.598 56.131 935.015 Q59.2097 930.409 65.0198 930.409 Z" fill="#000000" fill-rule="nonzero" fill-opacity="1" /><path clip-path="url(#clip480)" d="M85.1818 959.714 L90.066 959.714 L90.066 965.594 L85.1818 965.594 L85.1818 959.714 Z" fill="#000000" fill-rule="nonzero" fill-opacity="1" /><path clip-path="url(#clip480)" d="M104.279 961.658 L120.598 961.658 L120.598 965.594 L98.6539 965.594 L98.6539 961.658 Q101.316 958.904 105.899 954.274 Q110.506 949.621 111.686 948.279 Q113.932 945.756 114.811 944.02 Q115.714 942.26 115.714 940.571 Q115.714 937.816 113.77 936.08 Q111.848 934.344 108.746 934.344 Q106.547 934.344 104.094 935.108 Q101.663 935.871 98.8854 937.422 L98.8854 932.7 Q101.709 931.566 104.163 930.987 Q106.617 930.409 108.654 930.409 Q114.024 930.409 117.219 933.094 Q120.413 935.779 120.413 940.27 Q120.413 942.399 119.603 944.32 Q118.816 946.219 116.709 948.811 Q116.131 949.483 113.029 952.7 Q109.927 955.895 104.279 961.658 Z" fill="#000000" fill-rule="nonzero" fill-opacity="1" /><path clip-path="url(#clip480)" d="M64.0708 683.629 Q60.4597 683.629 58.631 687.194 Q56.8254 690.735 56.8254 697.865 Q56.8254 704.971 58.631 708.536 Q60.4597 712.078 64.0708 712.078 Q67.705 712.078 69.5105 708.536 Q71.3392 704.971 71.3392 697.865 Q71.3392 690.735 69.5105 687.194 Q67.705 683.629 64.0708 683.629 M64.0708 679.925 Q69.8809 679.925 72.9365 684.532 Q76.0151 689.115 76.0151 697.865 Q76.0151 706.592 72.9365 711.198 Q69.8809 715.782 64.0708 715.782 Q58.2606 715.782 55.1819 711.198 Q52.1264 706.592 52.1264 697.865 Q52.1264 689.115 55.1819 684.532 Q58.2606 679.925 64.0708 679.925 Z" fill="#000000" fill-rule="nonzero" fill-opacity="1" /><path clip-path="url(#clip480)" d="M84.2327 709.231 L89.1169 709.231 L89.1169 715.11 L84.2327 715.11 L84.2327 709.231 Z" fill="#000000" fill-rule="nonzero" fill-opacity="1" /><path clip-path="url(#clip480)" d="M113.469 696.476 Q116.825 697.194 118.7 699.462 Q120.598 701.731 120.598 705.064 Q120.598 710.18 117.08 712.981 Q113.561 715.782 107.08 715.782 Q104.904 715.782 102.589 715.342 Q100.297 714.925 97.8437 714.069 L97.8437 709.555 Q99.7882 710.689 102.103 711.268 Q104.418 711.846 106.941 711.846 Q111.339 711.846 113.631 710.11 Q115.945 708.374 115.945 705.064 Q115.945 702.008 113.793 700.295 Q111.663 698.559 107.844 698.559 L103.816 698.559 L103.816 694.717 L108.029 694.717 Q111.478 694.717 113.307 693.351 Q115.135 691.962 115.135 689.37 Q115.135 686.708 113.237 685.296 Q111.362 683.86 107.844 683.86 Q105.922 683.86 103.723 684.277 Q101.524 684.694 98.8854 685.573 L98.8854 681.407 Q101.547 680.666 103.862 680.296 Q106.2 679.925 108.26 679.925 Q113.584 679.925 116.686 682.356 Q119.788 684.763 119.788 688.884 Q119.788 691.754 118.145 693.745 Q116.501 695.712 113.469 696.476 Z" fill="#000000" fill-rule="nonzero" fill-opacity="1" /><path clip-path="url(#clip480)" d="M62.9365 433.146 Q59.3254 433.146 57.4967 436.71 Q55.6912 440.252 55.6912 447.382 Q55.6912 454.488 57.4967 458.053 Q59.3254 461.595 62.9365 461.595 Q66.5707 461.595 68.3763 458.053 Q70.205 454.488 70.205 447.382 Q70.205 440.252 68.3763 436.71 Q66.5707 433.146 62.9365 433.146 M62.9365 429.442 Q68.7467 429.442 71.8022 434.048 Q74.8809 438.632 74.8809 447.382 Q74.8809 456.108 71.8022 460.715 Q68.7467 465.298 62.9365 465.298 Q57.1264 465.298 54.0477 460.715 Q50.9921 456.108 50.9921 447.382 Q50.9921 438.632 54.0477 434.048 Q57.1264 429.442 62.9365 429.442 Z" fill="#000000" fill-rule="nonzero" fill-opacity="1" /><path clip-path="url(#clip480)" d="M83.0984 458.747 L87.9827 458.747 L87.9827 464.627 L83.0984 464.627 L83.0984 458.747 Z" fill="#000000" fill-rule="nonzero" fill-opacity="1" /><path clip-path="url(#clip480)" d="M111.015 434.141 L99.2095 452.59 L111.015 452.59 L111.015 434.141 M109.788 430.067 L115.668 430.067 L115.668 452.59 L120.598 452.59 L120.598 456.479 L115.668 456.479 L115.668 464.627 L111.015 464.627 L111.015 456.479 L95.4132 456.479 L95.4132 451.965 L109.788 430.067 Z" fill="#000000" fill-rule="nonzero" fill-opacity="1" /><path clip-path="url(#clip480)" d="M64.418 182.662 Q60.8069 182.662 58.9782 186.227 Q57.1726 189.769 57.1726 196.898 Q57.1726 204.005 58.9782 207.57 Q60.8069 211.111 64.418 211.111 Q68.0522 211.111 69.8578 207.57 Q71.6865 204.005 71.6865 196.898 Q71.6865 189.769 69.8578 186.227 Q68.0522 182.662 64.418 182.662 M64.418 178.959 Q70.2281 178.959 73.2837 183.565 Q76.3624 188.148 76.3624 196.898 Q76.3624 205.625 73.2837 210.232 Q70.2281 214.815 64.418 214.815 Q58.6078 214.815 55.5291 210.232 Q52.4736 205.625 52.4736 196.898 Q52.4736 188.148 55.5291 183.565 Q58.6078 178.959 64.418 178.959 Z" fill="#000000" fill-rule="nonzero" fill-opacity="1" /><path clip-path="url(#clip480)" d="M84.5799 208.264 L89.4641 208.264 L89.4641 214.144 L84.5799 214.144 L84.5799 208.264 Z" fill="#000000" fill-rule="nonzero" fill-opacity="1" /><path clip-path="url(#clip480)" d="M99.6956 179.584 L118.052 179.584 L118.052 183.519 L103.978 183.519 L103.978 191.991 Q104.996 191.644 106.015 191.482 Q107.033 191.297 108.052 191.297 Q113.839 191.297 117.219 194.468 Q120.598 197.639 120.598 203.056 Q120.598 208.634 117.126 211.736 Q113.654 214.815 107.334 214.815 Q105.159 214.815 102.89 214.445 Q100.645 214.074 98.2372 213.333 L98.2372 208.634 Q100.321 209.769 102.543 210.324 Q104.765 210.88 107.242 210.88 Q111.246 210.88 113.584 208.773 Q115.922 206.667 115.922 203.056 Q115.922 199.445 113.584 197.338 Q111.246 195.232 107.242 195.232 Q105.367 195.232 103.492 195.648 Q101.64 196.065 99.6956 196.945 L99.6956 179.584 Z" fill="#000000" fill-rule="nonzero" fill-opacity="1" /><polyline clip-path="url(#clip482)" style="stroke:#009af9; stroke-linecap:round; stroke-linejoin:round; stroke-width:4; stroke-opacity:1; fill:none" points="218.754,87.9763 219.79,195.545 220.825,291.797 221.861,377.938 222.897,455.085 223.933,524.263 224.969,586.395 226.005,642.306 227.041,692.725 228.077,738.297 229.113,779.588 230.149,817.092 231.185,851.241 232.221,882.413 233.257,910.937 234.292,937.102 235.328,961.16 236.364,983.33 237.4,1003.81 238.436,1022.76 239.472,1040.35 240.508,1056.69 241.544,1071.9 242.58,1086.1 243.616,1099.37 244.652,1111.8 245.688,1123.45 246.724,1134.4 247.759,1144.69 248.795,1154.39 249.831,1163.54 250.867,1172.19 251.903,1180.37 252.939,1188.12 253.975,1195.46 255.011,1202.44 256.047,1209.06 257.083,1215.37 258.119,1221.38 259.155,1227.11 260.191,1232.57 261.227,1237.79 262.262,1242.78 263.298,1247.56 264.334,1252.13 265.37,1256.51 266.406,1260.72 267.442,1264.75 268.478,1268.63 269.514,1272.36 270.55,1275.94 271.586,1279.39 272.622,1282.71 273.658,1285.92 274.694,1289.01 275.729,1291.99 276.765,1294.86 277.801,1297.64 278.837,1300.33 279.873,1302.93 280.909,1305.44 281.945,1307.87 282.981,1310.23 284.017,1312.51 285.053,1314.72 286.089,1316.87 287.125,1318.95 288.161,1320.97 289.196,1322.93 290.232,1324.83 291.268,1326.68 292.304,1328.48 293.34,1330.23 294.376,1331.93 295.412,1333.59 296.448,1335.2 297.484,1336.77 298.52,1338.3 299.556,1339.79 300.592,1341.24 301.628,1342.65 302.663,1344.03 303.699,1345.38 304.735,1346.69 305.771,1347.98 306.807,1349.23 307.843,1350.45 308.879,1351.64 309.915,1352.81 310.951,1353.95 311.987,1355.07 313.023,1356.16 314.059,1357.22 315.095,1358.27 316.13,1359.29 317.166,1360.29 318.202,1361.26 319.238,1362.22 320.274,1363.16 321.31,1364.08 322.346,1364.98 323.382,1365.86 324.418,1366.72 325.454,1367.57 326.49,1368.4 327.526,1369.21 328.562,1370.01 329.597,1370.79 330.633,1371.56 331.669,1372.32 332.705,1373.06 333.741,1373.78 334.777,1374.5 335.813,1375.2 336.849,1375.89 337.885,1376.56 338.921,1377.22 339.957,1377.88 340.993,1378.52 342.029,1379.15 343.064,1379.77 344.1,1380.38 345.136,1380.97 346.172,1381.56 347.208,1382.14 348.244,1382.71 349.28,1383.27 350.316,1383.82 351.352,1384.36 352.388,1384.9 353.424,1385.42 354.46,1385.94 355.496,1386.45 356.531,1386.95 357.567,1387.44 358.603,1387.93 359.639,1388.41 360.675,1388.88 361.711,1389.34 362.747,1389.8 363.783,1390.25 364.819,1390.7 365.855,1391.13 366.891,1391.57 367.927,1391.99 368.963,1392.41 369.998,1392.82 371.034,1393.23 372.07,1393.63 373.106,1394.03 374.142,1394.42 375.178,1394.81 376.214,1395.19 377.25,1395.56 378.286,1395.93 379.322,1396.3 380.358,1396.66 381.394,1397.02 382.43,1397.37 383.465,1397.71 384.501,1398.06 385.537,1398.39 386.573,1398.73 387.609,1399.06 388.645,1399.38 389.681,1399.7 390.717,1400.02 391.753,1400.33 392.789,1400.64 393.825,1400.95 394.861,1401.25 395.897,1401.55 396.932,1401.84 397.968,1402.13 399.004,1402.42 400.04,1402.71 401.076,1402.99 402.112,1403.26 403.148,1403.54 404.184,1403.81 405.22,1404.08 406.256,1404.34 407.292,1404.61 408.328,1404.87 409.364,1405.12 410.399,1405.38 411.435,1405.63 412.471,1405.87 413.507,1406.12 414.543,1406.36 415.579,1406.6 416.615,1406.84 417.651,1407.07 418.687,1407.31 419.723,1407.54 420.759,1407.76 421.795,1407.99 422.831,1408.21 423.866,1408.43 424.902,1408.65 425.938,1408.86 426.974,1409.08 428.01,1409.29 429.046,1409.5 430.082,1409.71 431.118,1409.91 432.154,1410.11 433.19,1410.31 434.226,1410.51 435.262,1410.71 436.298,1410.91 437.333,1411.1 438.369,1411.29 439.405,1411.48 440.441,1411.67 441.477,1411.85 442.513,1412.04 443.549,1412.22 444.585,1412.4 445.621,1412.58 446.657,1412.76 447.693,1412.93 448.729,1413.1 449.765,1413.28 450.8,1413.45 451.836,1413.62 452.872,1413.78 453.908,1413.95 454.944,1414.11 455.98,1414.28 457.016,1414.44 458.052,1414.6 459.088,1414.76 460.124,1414.91 461.16,1415.07 462.196,1415.23 463.232,1415.38 464.267,1415.53 465.303,1415.68 466.339,1415.83 467.375,1415.98 468.411,1416.12 469.447,1416.27 470.483,1416.41 471.519,1416.56 472.555,1416.7 473.591,1416.84 474.627,1416.98 475.663,1417.12 476.699,1417.25 477.734,1417.39 478.77,1417.52 479.806,1417.66 480.842,1417.79 481.878,1417.92 482.914,1418.05 483.95,1418.18 484.986,1418.31 486.022,1418.44 487.058,1418.56 488.094,1418.69 489.13,1418.81 490.166,1418.94 491.202,1419.06 492.237,1419.18 493.273,1419.3 494.309,1419.42 495.345,1419.54 496.381,1419.66 497.417,1419.77 498.453,1419.89 499.489,1420.01 500.525,1420.12 501.561,1420.23 502.597,1420.34 503.633,1420.46 504.669,1420.57 505.704,1420.68 506.74,1420.79 507.776,1420.89 508.812,1421 509.848,1421.11 510.884,1421.21 511.92,1421.32 512.956,1421.42 513.992,1421.53 515.028,1421.63 516.064,1421.73 517.1,1421.83 518.136,1421.93 519.171,1422.03 520.207,1422.13 521.243,1422.23 522.279,1422.33 523.315,1422.43 524.351,1422.52 525.387,1422.62 526.423,1422.72 527.459,1422.81 528.495,1422.9 529.531,1423 530.567,1423.09 531.603,1423.18 532.638,1423.27 533.674,1423.36 534.71,1423.45 535.746,1423.54 536.782,1423.63 537.818,1423.72 538.854,1423.81 539.89,1423.89 540.926,1423.98 541.962,1424.07 542.998,1424.15 544.034,1424.24 545.07,1424.32 546.105,1424.4 547.141,1424.49 548.177,1424.57 549.213,1424.65 550.249,1424.73 551.285,1424.82 552.321,1424.9 553.357,1424.98 554.393,1425.06 555.429,1425.13 556.465,1425.21 557.501,1425.29 558.537,1425.37 559.572,1425.44 560.608,1425.52 561.644,1425.6 562.68,1425.67 563.716,1425.75 564.752,1425.82 565.788,1425.9 566.824,1425.97 567.86,1426.04 568.896,1426.12 569.932,1426.19 570.968,1426.26 572.004,1426.33 573.039,1426.4 574.075,1426.47 575.111,1426.54 576.147,1426.61 577.183,1426.68 578.219,1426.75 579.255,1426.82 580.291,1426.89 581.327,1426.96 582.363,1427.02 583.399,1427.09 584.435,1427.16 585.471,1427.22 586.506,1427.29 587.542,1427.35 588.578,1427.42 589.614,1427.48 590.65,1427.55 591.686,1427.61 592.722,1427.68 593.758,1427.74 594.794,1427.8 595.83,1427.86 596.866,1427.93 597.902,1427.99 598.938,1428.05 599.973,1428.11 601.009,1428.17 602.045,1428.23 603.081,1428.29 604.117,1428.35 605.153,1428.41 606.189,1428.47 607.225,1428.53 608.261,1428.59 609.297,1428.65 610.333,1428.7 611.369,1428.76 612.405,1428.82 613.44,1428.87 614.476,1428.93 615.512,1428.99 616.548,1429.04 617.584,1429.1 618.62,1429.15 619.656,1429.21 620.692,1429.26 621.728,1429.32 622.764,1429.37 623.8,1429.43 624.836,1429.48 625.872,1429.53 626.907,1429.59 627.943,1429.64 628.979,1429.69 630.015,1429.74 631.051,1429.8 632.087,1429.85 633.123,1429.9 634.159,1429.95 635.195,1430 636.231,1430.05 637.267,1430.1 638.303,1430.15 639.339,1430.2 640.374,1430.25 641.41,1430.3 642.446,1430.35 643.482,1430.4 644.518,1430.45 645.554,1430.5 646.59,1430.54 647.626,1430.59 648.662,1430.64 649.698,1430.69 650.734,1430.73 651.77,1430.78 652.806,1430.83 653.841,1430.87 654.877,1430.92 655.913,1430.97 656.949,1431.01 657.985,1431.06 659.021,1431.1 660.057,1431.15 661.093,1431.19 662.129,1431.24 663.165,1431.28 664.201,1431.33 665.237,1431.37 666.273,1431.41 667.308,1431.46 668.344,1431.5 669.38,1431.54 670.416,1431.59 671.452,1431.63 672.488,1431.67 673.524,1431.71 674.56,1431.76 675.596,1431.8 676.632,1431.84 677.668,1431.88 678.704,1431.92 679.74,1431.96 680.775,1432.01 681.811,1432.05 682.847,1432.09 683.883,1432.13 684.919,1432.17 685.955,1432.21 686.991,1432.25 688.027,1432.29 689.063,1432.33 690.099,1432.37 691.135,1432.41 692.171,1432.44 693.207,1432.48 694.242,1432.52 695.278,1432.56 696.314,1432.6 697.35,1432.64 698.386,1432.68 699.422,1432.71 700.458,1432.75 701.494,1432.79 702.53,1432.83 703.566,1432.86 704.602,1432.9 705.638,1432.94 706.674,1432.97 707.709,1433.01 708.745,1433.05 709.781,1433.08 710.817,1433.12 711.853,1433.15 712.889,1433.19 713.925,1433.23 714.961,1433.26 715.997,1433.3 717.033,1433.33 718.069,1433.37 719.105,1433.4 720.141,1433.44 721.177,1433.47 722.212,1433.5 723.248,1433.54 724.284,1433.57 725.32,1433.61 726.356,1433.64 727.392,1433.67 728.428,1433.71 729.464,1433.74 730.5,1433.77 731.536,1433.81 732.572,1433.84 733.608,1433.87 734.644,1433.91 735.679,1433.94 736.715,1433.97 737.751,1434 738.787,1434.03 739.823,1434.07 740.859,1434.1 741.895,1434.13 742.931,1434.16 743.967,1434.19 745.003,1434.23 746.039,1434.26 747.075,1434.29 748.111,1434.32 749.146,1434.35 750.182,1434.38 751.218,1434.41 752.254,1434.44 753.29,1434.47 754.326,1434.5 755.362,1434.53 756.398,1434.56 757.434,1434.59 758.47,1434.62 759.506,1434.65 760.542,1434.68 761.578,1434.71 762.613,1434.74 763.649,1434.77 764.685,1434.8 765.721,1434.83 766.757,1434.86 767.793,1434.88 768.829,1434.91 769.865,1434.94 770.901,1434.97 771.937,1435 772.973,1435.03 774.009,1435.05 775.045,1435.08 776.08,1435.11 777.116,1435.14 778.152,1435.17 779.188,1435.19 780.224,1435.22 781.26,1435.25 782.296,1435.27 783.332,1435.3 784.368,1435.33 785.404,1435.36 786.44,1435.38 787.476,1435.41 788.512,1435.44 789.547,1435.46 790.583,1435.49 791.619,1435.52 792.655,1435.54 793.691,1435.57 794.727,1435.59 795.763,1435.62 796.799,1435.65 797.835,1435.67 798.871,1435.7 799.907,1435.72 800.943,1435.75 801.979,1435.77 803.014,1435.8 804.05,1435.82 805.086,1435.85 806.122,1435.87 807.158,1435.9 808.194,1435.92 809.23,1435.95 810.266,1435.97 811.302,1436 812.338,1436.02 813.374,1436.05 814.41,1436.07 815.446,1436.09 816.481,1436.12 817.517,1436.14 818.553,1436.17 819.589,1436.19 820.625,1436.21 821.661,1436.24 822.697,1436.26 823.733,1436.28 824.769,1436.31 825.805,1436.33 826.841,1436.35 827.877,1436.38 828.913,1436.4 829.948,1436.42 830.984,1436.45 832.02,1436.47 833.056,1436.49 834.092,1436.52 835.128,1436.54 836.164,1436.56 837.2,1436.58 838.236,1436.61 839.272,1436.63 840.308,1436.65 841.344,1436.67 842.38,1436.69 843.415,1436.72 844.451,1436.74 845.487,1436.76 846.523,1436.78 847.559,1436.8 848.595,1436.83 849.631,1436.85 850.667,1436.87 851.703,1436.89 852.739,1436.91 853.775,1436.93 854.811,1436.95 855.847,1436.97 856.882,1437 857.918,1437.02 858.954,1437.04 859.99,1437.06 861.026,1437.08 862.062,1437.1 863.098,1437.12 864.134,1437.14 865.17,1437.16 866.206,1437.18 867.242,1437.2 868.278,1437.22 869.314,1437.24 870.349,1437.26 871.385,1437.28 872.421,1437.3 873.457,1437.32 874.493,1437.34 875.529,1437.36 876.565,1437.38 877.601,1437.4 878.637,1437.42 879.673,1437.44 880.709,1437.46 881.745,1437.48 882.781,1437.5 883.816,1437.52 884.852,1437.54 885.888,1437.56 886.924,1437.58 887.96,1437.6 888.996,1437.62 890.032,1437.63 891.068,1437.65 892.104,1437.67 893.14,1437.69 894.176,1437.71 895.212,1437.73 896.248,1437.75 897.283,1437.77 898.319,1437.78 899.355,1437.8 900.391,1437.82 901.427,1437.84 902.463,1437.86 903.499,1437.88 904.535,1437.89 905.571,1437.91 906.607,1437.93 907.643,1437.95 908.679,1437.97 909.715,1437.98 910.75,1438 911.786,1438.02 912.822,1438.04 913.858,1438.05 914.894,1438.07 915.93,1438.09 916.966,1438.11 918.002,1438.12 919.038,1438.14 920.074,1438.16 921.11,1438.18 922.146,1438.19 923.182,1438.21 924.217,1438.23 925.253,1438.25 926.289,1438.26 927.325,1438.28 928.361,1438.3 929.397,1438.31 930.433,1438.33 931.469,1438.35 932.505,1438.36 933.541,1438.38 934.577,1438.4 935.613,1438.41 936.649,1438.43 937.685,1438.45 938.72,1438.46 939.756,1438.48 940.792,1438.5 941.828,1438.51 942.864,1438.53 943.9,1438.54 944.936,1438.56 945.972,1438.58 947.008,1438.59 948.044,1438.61 949.08,1438.62 950.116,1438.64 951.152,1438.66 952.187,1438.67 953.223,1438.69 954.259,1438.7 955.295,1438.72 956.331,1438.73 957.367,1438.75 958.403,1438.77 959.439,1438.78 960.475,1438.8 961.511,1438.81 962.547,1438.83 963.583,1438.84 964.619,1438.86 965.654,1438.87 966.69,1438.89 967.726,1438.9 968.762,1438.92 969.798,1438.93 970.834,1438.95 971.87,1438.96 972.906,1438.98 973.942,1438.99 974.978,1439.01 976.014,1439.02 977.05,1439.04 978.086,1439.05 979.121,1439.07 980.157,1439.08 981.193,1439.1 982.229,1439.11 983.265,1439.13 984.301,1439.14 985.337,1439.15 986.373,1439.17 987.409,1439.18 988.445,1439.2 989.481,1439.21 990.517,1439.23 991.553,1439.24 992.588,1439.25 993.624,1439.27 994.66,1439.28 995.696,1439.3 996.732,1439.31 997.768,1439.32 998.804,1439.34 999.84,1439.35 1000.88,1439.37 1001.91,1439.38 1002.95,1439.39 1003.98,1439.41 1005.02,1439.42 1006.06,1439.44 1007.09,1439.45 1008.13,1439.46 1009.16,1439.48 1010.2,1439.49 1011.24,1439.5 1012.27,1439.52 1013.31,1439.53 1014.34,1439.54 1015.38,1439.56 1016.41,1439.57 1017.45,1439.58 1018.49,1439.6 1019.52,1439.61 1020.56,1439.62 1021.59,1439.64 1022.63,1439.65 1023.67,1439.66 1024.7,1439.67 1025.74,1439.69 1026.77,1439.7 1027.81,1439.71 1028.85,1439.73 1029.88,1439.74 1030.92,1439.75 1031.95,1439.76 1032.99,1439.78 1034.03,1439.79 1035.06,1439.8 1036.1,1439.82 1037.13,1439.83 1038.17,1439.84 1039.2,1439.85 1040.24,1439.87 1041.28,1439.88 1042.31,1439.89 1043.35,1439.9 1044.38,1439.92 1045.42,1439.93 1046.46,1439.94 1047.49,1439.95 1048.53,1439.96 1049.56,1439.98 1050.6,1439.99 1051.64,1440 1052.67,1440.01 1053.71,1440.03 1054.74,1440.04 1055.78,1440.05 1056.82,1440.06 1057.85,1440.07 1058.89,1440.09 1059.92,1440.1 1060.96,1440.11 1062,1440.12 1063.03,1440.13 1064.07,1440.14 1065.1,1440.16 1066.14,1440.17 1067.17,1440.18 1068.21,1440.19 1069.25,1440.2 1070.28,1440.22 1071.32,1440.23 1072.35,1440.24 1073.39,1440.25 1074.43,1440.26 1075.46,1440.27 1076.5,1440.28 1077.53,1440.3 1078.57,1440.31 1079.61,1440.32 1080.64,1440.33 1081.68,1440.34 1082.71,1440.35 1083.75,1440.36 1084.79,1440.37 1085.82,1440.39 1086.86,1440.4 1087.89,1440.41 1088.93,1440.42 1089.97,1440.43 1091,1440.44 1092.04,1440.45 1093.07,1440.46 1094.11,1440.47 1095.14,1440.49 1096.18,1440.5 1097.22,1440.51 1098.25,1440.52 1099.29,1440.53 1100.32,1440.54 1101.36,1440.55 1102.4,1440.56 1103.43,1440.57 1104.47,1440.58 1105.5,1440.59 1106.54,1440.6 1107.58,1440.61 1108.61,1440.63 1109.65,1440.64 1110.68,1440.65 1111.72,1440.66 1112.76,1440.67 1113.79,1440.68 1114.83,1440.69 1115.86,1440.7 1116.9,1440.71 1117.94,1440.72 1118.97,1440.73 1120.01,1440.74 1121.04,1440.75 1122.08,1440.76 1123.11,1440.77 1124.15,1440.78 1125.19,1440.79 1126.22,1440.8 1127.26,1440.81 1128.29,1440.82 1129.33,1440.83 1130.37,1440.84 1131.4,1440.85 1132.44,1440.86 1133.47,1440.87 1134.51,1440.88 1135.55,1440.89 1136.58,1440.9 1137.62,1440.91 1138.65,1440.92 1139.69,1440.93 1140.73,1440.94 1141.76,1440.95 1142.8,1440.96 1143.83,1440.97 1144.87,1440.98 1145.91,1440.99 1146.94,1441 1147.98,1441.01 1149.01,1441.02 1150.05,1441.03 1151.08,1441.04 1152.12,1441.05 1153.16,1441.06 1154.19,1441.07 1155.23,1441.08 1156.26,1441.09 1157.3,1441.1 1158.34,1441.11 1159.37,1441.12 1160.41,1441.13 1161.44,1441.13 1162.48,1441.14 1163.52,1441.15 1164.55,1441.16 1165.59,1441.17 1166.62,1441.18 1167.66,1441.19 1168.7,1441.2 1169.73,1441.21 1170.77,1441.22 1171.8,1441.23 1172.84,1441.24 1173.88,1441.25 1174.91,1441.26 1175.95,1441.26 1176.98,1441.27 1178.02,1441.28 1179.05,1441.29 1180.09,1441.3 1181.13,1441.31 1182.16,1441.32 1183.2,1441.33 1184.23,1441.34 1185.27,1441.35 1186.31,1441.35 1187.34,1441.36 1188.38,1441.37 1189.41,1441.38 1190.45,1441.39 1191.49,1441.4 1192.52,1441.41 1193.56,1441.42 1194.59,1441.43 1195.63,1441.43 1196.67,1441.44 1197.7,1441.45 1198.74,1441.46 1199.77,1441.47 1200.81,1441.48 1201.84,1441.49 1202.88,1441.5 1203.92,1441.5 1204.95,1441.51 1205.99,1441.52 1207.02,1441.53 1208.06,1441.54 1209.1,1441.55 1210.13,1441.56 1211.17,1441.56 1212.2,1441.57 1213.24,1441.58 1214.28,1441.59 1215.31,1441.6 1216.35,1441.61 1217.38,1441.61 1218.42,1441.62 1219.46,1441.63 1220.49,1441.64 1221.53,1441.65 1222.56,1441.66 1223.6,1441.66 1224.64,1441.67 1225.67,1441.68 1226.71,1441.69 1227.74,1441.7 1228.78,1441.7 1229.81,1441.71 1230.85,1441.72 1231.89,1441.73 1232.92,1441.74 1233.96,1441.75 1234.99,1441.75 1236.03,1441.76 1237.07,1441.77 1238.1,1441.78 1239.14,1441.79 1240.17,1441.79 1241.21,1441.8 1242.25,1441.81 1243.28,1441.82 1244.32,1441.83 1245.35,1441.83 1246.39,1441.84 1247.43,1441.85 1248.46,1441.86 1249.5,1441.86 1250.53,1441.87 1251.57,1441.88 1252.61,1441.89 1253.64,1441.9 1254.68,1441.9 1255.71,1441.91 1256.75,1441.92 1257.78,1441.93 1258.82,1441.93 1259.86,1441.94 1260.89,1441.95 1261.93,1441.96 1262.96,1441.97 1264,1441.97 1265.04,1441.98 1266.07,1441.99 1267.11,1442 1268.14,1442 1269.18,1442.01 1270.22,1442.02 1271.25,1442.03 1272.29,1442.03 1273.32,1442.04 1274.36,1442.05 1275.4,1442.06 1276.43,1442.06 1277.47,1442.07 1278.5,1442.08 1279.54,1442.09 1280.58,1442.09 1281.61,1442.1 1282.65,1442.11 1283.68,1442.11 1284.72,1442.12 1285.75,1442.13 1286.79,1442.14 1287.83,1442.14 1288.86,1442.15 1289.9,1442.16 1290.93,1442.17 1291.97,1442.17 1293.01,1442.18 1294.04,1442.19 1295.08,1442.19 1296.11,1442.2 1297.15,1442.21 1298.19,1442.22 1299.22,1442.22 1300.26,1442.23 1301.29,1442.24 1302.33,1442.24 1303.37,1442.25 1304.4,1442.26 1305.44,1442.27 1306.47,1442.27 1307.51,1442.28 1308.55,1442.29 1309.58,1442.29 1310.62,1442.3 1311.65,1442.31 1312.69,1442.31 1313.72,1442.32 1314.76,1442.33 1315.8,1442.34 1316.83,1442.34 1317.87,1442.35 1318.9,1442.36 1319.94,1442.36 1320.98,1442.37 1322.01,1442.38 1323.05,1442.38 1324.08,1442.39 1325.12,1442.4 1326.16,1442.4 1327.19,1442.41 1328.23,1442.42 1329.26,1442.42 1330.3,1442.43 1331.34,1442.44 1332.37,1442.44 1333.41,1442.45 1334.44,1442.46 1335.48,1442.46 1336.52,1442.47 1337.55,1442.48 1338.59,1442.48 1339.62,1442.49 1340.66,1442.5 1341.69,1442.5 1342.73,1442.51 1343.77,1442.52 1344.8,1442.52 1345.84,1442.53 1346.87,1442.54 1347.91,1442.54 1348.95,1442.55 1349.98,1442.56 1351.02,1442.56 1352.05,1442.57 1353.09,1442.57 1354.13,1442.58 1355.16,1442.59 1356.2,1442.59 1357.23,1442.6 1358.27,1442.61 1359.31,1442.61 1360.34,1442.62 1361.38,1442.63 1362.41,1442.63 1363.45,1442.64 1364.48,1442.64 1365.52,1442.65 1366.56,1442.66 1367.59,1442.66 1368.63,1442.67 1369.66,1442.68 1370.7,1442.68 1371.74,1442.69 1372.77,1442.69 1373.81,1442.7 1374.84,1442.71 1375.88,1442.71 1376.92,1442.72 1377.95,1442.73 1378.99,1442.73 1380.02,1442.74 1381.06,1442.74 1382.1,1442.75 1383.13,1442.76 1384.17,1442.76 1385.2,1442.77 1386.24,1442.77 1387.28,1442.78 1388.31,1442.79 1389.35,1442.79 1390.38,1442.8 1391.42,1442.8 1392.45,1442.81 1393.49,1442.82 1394.53,1442.82 1395.56,1442.83 1396.6,1442.83 1397.63,1442.84 1398.67,1442.85 1399.71,1442.85 1400.74,1442.86 1401.78,1442.86 1402.81,1442.87 1403.85,1442.88 1404.89,1442.88 1405.92,1442.89 1406.96,1442.89 1407.99,1442.9 1409.03,1442.91 1410.07,1442.91 1411.1,1442.92 1412.14,1442.92 1413.17,1442.93 1414.21,1442.93 1415.25,1442.94 1416.28,1442.95 1417.32,1442.95 1418.35,1442.96 1419.39,1442.96 1420.42,1442.97 1421.46,1442.97 1422.5,1442.98 1423.53,1442.99 1424.57,1442.99 1425.6,1443 1426.64,1443 1427.68,1443.01 1428.71,1443.01 1429.75,1443.02 1430.78,1443.03 1431.82,1443.03 1432.86,1443.04 1433.89,1443.04 1434.93,1443.05 1435.96,1443.05 1437,1443.06 1438.04,1443.06 1439.07,1443.07 1440.11,1443.08 1441.14,1443.08 1442.18,1443.09 1443.22,1443.09 1444.25,1443.1 1445.29,1443.1 1446.32,1443.11 1447.36,1443.11 1448.39,1443.12 1449.43,1443.13 1450.47,1443.13 1451.5,1443.14 1452.54,1443.14 1453.57,1443.15 1454.61,1443.15 1455.65,1443.16 1456.68,1443.16 1457.72,1443.17 1458.75,1443.17 1459.79,1443.18 1460.83,1443.18 1461.86,1443.19 1462.9,1443.2 1463.93,1443.2 1464.97,1443.21 1466.01,1443.21 1467.04,1443.22 1468.08,1443.22 1469.11,1443.23 1470.15,1443.23 1471.19,1443.24 1472.22,1443.24 1473.26,1443.25 1474.29,1443.25 1475.33,1443.26 1476.36,1443.26 1477.4,1443.27 1478.44,1443.27 1479.47,1443.28 1480.51,1443.28 1481.54,1443.29 1482.58,1443.29 1483.62,1443.3 1484.65,1443.3 1485.69,1443.31 1486.72,1443.32 1487.76,1443.32 1488.8,1443.33 1489.83,1443.33 1490.87,1443.34 1491.9,1443.34 1492.94,1443.35 1493.98,1443.35 1495.01,1443.36 1496.05,1443.36 1497.08,1443.37 1498.12,1443.37 1499.15,1443.38 1500.19,1443.38 1501.23,1443.39 1502.26,1443.39 1503.3,1443.4 1504.33,1443.4 1505.37,1443.41 1506.41,1443.41 1507.44,1443.42 1508.48,1443.42 1509.51,1443.43 1510.55,1443.43 1511.59,1443.44 1512.62,1443.44 1513.66,1443.45 1514.69,1443.45 1515.73,1443.46 1516.77,1443.46 1517.8,1443.46 1518.84,1443.47 1519.87,1443.47 1520.91,1443.48 1521.95,1443.48 1522.98,1443.49 1524.02,1443.49 1525.05,1443.5 1526.09,1443.5 1527.12,1443.51 1528.16,1443.51 1529.2,1443.52 1530.23,1443.52 1531.27,1443.53 1532.3,1443.53 1533.34,1443.54 1534.38,1443.54 1535.41,1443.55 1536.45,1443.55 1537.48,1443.56 1538.52,1443.56 1539.56,1443.57 1540.59,1443.57 1541.63,1443.57 1542.66,1443.58 1543.7,1443.58 1544.74,1443.59 1545.77,1443.59 1546.81,1443.6 1547.84,1443.6 1548.88,1443.61 1549.92,1443.61 1550.95,1443.62 1551.99,1443.62 1553.02,1443.63 1554.06,1443.63 1555.09,1443.64 1556.13,1443.64 1557.17,1443.64 1558.2,1443.65 1559.24,1443.65 1560.27,1443.66 1561.31,1443.66 1562.35,1443.67 1563.38,1443.67 1564.42,1443.68 1565.45,1443.68 1566.49,1443.69 1567.53,1443.69 1568.56,1443.69 1569.6,1443.7 1570.63,1443.7 1571.67,1443.71 1572.71,1443.71 1573.74,1443.72 1574.78,1443.72 1575.81,1443.73 1576.85,1443.73 1577.89,1443.73 1578.92,1443.74 1579.96,1443.74 1580.99,1443.75 1582.03,1443.75 1583.06,1443.76 1584.1,1443.76 1585.14,1443.77 1586.17,1443.77 1587.21,1443.77 1588.24,1443.78 1589.28,1443.78 1590.32,1443.79 1591.35,1443.79 1592.39,1443.8 1593.42,1443.8 1594.46,1443.8 1595.5,1443.81 1596.53,1443.81 1597.57,1443.82 1598.6,1443.82 1599.64,1443.83 1600.68,1443.83 1601.71,1443.83 1602.75,1443.84 1603.78,1443.84 1604.82,1443.85 1605.86,1443.85 1606.89,1443.86 1607.93,1443.86 1608.96,1443.86 1610,1443.87 1611.03,1443.87 1612.07,1443.88 1613.11,1443.88 1614.14,1443.89 1615.18,1443.89 1616.21,1443.89 1617.25,1443.9 1618.29,1443.9 1619.32,1443.91 1620.36,1443.91 1621.39,1443.91 1622.43,1443.92 1623.47,1443.92 1624.5,1443.93 1625.54,1443.93 1626.57,1443.94 1627.61,1443.94 1628.65,1443.94 1629.68,1443.95 1630.72,1443.95 1631.75,1443.96 1632.79,1443.96 1633.83,1443.96 1634.86,1443.97 1635.9,1443.97 1636.93,1443.98 1637.97,1443.98 1639,1443.98 1640.04,1443.99 1641.08,1443.99 1642.11,1444 1643.15,1444 1644.18,1444 1645.22,1444.01 1646.26,1444.01 1647.29,1444.02 1648.33,1444.02 1649.36,1444.02 1650.4,1444.03 1651.44,1444.03 1652.47,1444.04 1653.51,1444.04 1654.54,1444.04 1655.58,1444.05 1656.62,1444.05 1657.65,1444.06 1658.69,1444.06 1659.72,1444.06 1660.76,1444.07 1661.79,1444.07 1662.83,1444.08 1663.87,1444.08 1664.9,1444.08 1665.94,1444.09 1666.97,1444.09 1668.01,1444.1 1669.05,1444.1 1670.08,1444.1 1671.12,1444.11 1672.15,1444.11 1673.19,1444.12 1674.23,1444.12 1675.26,1444.12 1676.3,1444.13 1677.33,1444.13 1678.37,1444.13 1679.41,1444.14 1680.44,1444.14 1681.48,1444.15 1682.51,1444.15 1683.55,1444.15 1684.59,1444.16 1685.62,1444.16 1686.66,1444.16 1687.69,1444.17 1688.73,1444.17 1689.76,1444.18 1690.8,1444.18 1691.84,1444.18 1692.87,1444.19 1693.91,1444.19 1694.94,1444.19 1695.98,1444.2 1697.02,1444.2 1698.05,1444.21 1699.09,1444.21 1700.12,1444.21 1701.16,1444.22 1702.2,1444.22 1703.23,1444.22 1704.27,1444.23 1705.3,1444.23 1706.34,1444.24 1707.38,1444.24 1708.41,1444.24 1709.45,1444.25 1710.48,1444.25 1711.52,1444.25 1712.56,1444.26 1713.59,1444.26 1714.63,1444.27 1715.66,1444.27 1716.7,1444.27 1717.73,1444.28 1718.77,1444.28 1719.81,1444.28 1720.84,1444.29 1721.88,1444.29 1722.91,1444.29 1723.95,1444.3 1724.99,1444.3 1726.02,1444.3 1727.06,1444.31 1728.09,1444.31 1729.13,1444.32 1730.17,1444.32 1731.2,1444.32 1732.24,1444.33 1733.27,1444.33 1734.31,1444.33 1735.35,1444.34 1736.38,1444.34 1737.42,1444.34 1738.45,1444.35 1739.49,1444.35 1740.53,1444.35 1741.56,1444.36 1742.6,1444.36 1743.63,1444.37 1744.67,1444.37 1745.7,1444.37 1746.74,1444.38 1747.78,1444.38 1748.81,1444.38 1749.85,1444.39 1750.88,1444.39 1751.92,1444.39 1752.96,1444.4 1753.99,1444.4 1755.03,1444.4 1756.06,1444.41 1757.1,1444.41 1758.14,1444.41 1759.17,1444.42 1760.21,1444.42 1761.24,1444.42 1762.28,1444.43 1763.32,1444.43 1764.35,1444.43 1765.39,1444.44 1766.42,1444.44 1767.46,1444.44 1768.5,1444.45 1769.53,1444.45 1770.57,1444.45 1771.6,1444.46 1772.64,1444.46 1773.67,1444.46 1774.71,1444.47 1775.75,1444.47 1776.78,1444.47 1777.82,1444.48 1778.85,1444.48 1779.89,1444.48 1780.93,1444.49 1781.96,1444.49 1783,1444.49 1784.03,1444.5 1785.07,1444.5 1786.11,1444.5 1787.14,1444.51 1788.18,1444.51 1789.21,1444.51 1790.25,1444.52 1791.29,1444.52 1792.32,1444.52 1793.36,1444.53 1794.39,1444.53 1795.43,1444.53 1796.47,1444.54 1797.5,1444.54 1798.54,1444.54 1799.57,1444.55 1800.61,1444.55 1801.64,1444.55 1802.68,1444.56 1803.72,1444.56 1804.75,1444.56 1805.79,1444.57 1806.82,1444.57 1807.86,1444.57 1808.9,1444.58 1809.93,1444.58 1810.97,1444.58 1812,1444.59 1813.04,1444.59 1814.08,1444.59 1815.11,1444.6 1816.15,1444.6 1817.18,1444.6 1818.22,1444.61 1819.26,1444.61 1820.29,1444.61 1821.33,1444.61 1822.36,1444.62 1823.4,1444.62 1824.43,1444.62 1825.47,1444.63 1826.51,1444.63 1827.54,1444.63 1828.58,1444.64 1829.61,1444.64 1830.65,1444.64 1831.69,1444.65 1832.72,1444.65 1833.76,1444.65 1834.79,1444.66 1835.83,1444.66 1836.87,1444.66 1837.9,1444.66 1838.94,1444.67 1839.97,1444.67 1841.01,1444.67 1842.05,1444.68 1843.08,1444.68 1844.12,1444.68 1845.15,1444.69 1846.19,1444.69 1847.23,1444.69 1848.26,1444.7 1849.3,1444.7 1850.33,1444.7 1851.37,1444.7 1852.4,1444.71 1853.44,1444.71 1854.48,1444.71 1855.51,1444.72 1856.55,1444.72 1857.58,1444.72 1858.62,1444.73 1859.66,1444.73 1860.69,1444.73 1861.73,1444.73 1862.76,1444.74 1863.8,1444.74 1864.84,1444.74 1865.87,1444.75 1866.91,1444.75 1867.94,1444.75 1868.98,1444.76 1870.02,1444.76 1871.05,1444.76 1872.09,1444.76 1873.12,1444.77 1874.16,1444.77 1875.2,1444.77 1876.23,1444.78 1877.27,1444.78 1878.3,1444.78 1879.34,1444.79 1880.37,1444.79 1881.41,1444.79 1882.45,1444.79 1883.48,1444.8 1884.52,1444.8 1885.55,1444.8 1886.59,1444.81 1887.63,1444.81 1888.66,1444.81 1889.7,1444.81 1890.73,1444.82 1891.77,1444.82 1892.81,1444.82 1893.84,1444.83 1894.88,1444.83 1895.91,1444.83 1896.95,1444.83 1897.99,1444.84 1899.02,1444.84 1900.06,1444.84 1901.09,1444.85 1902.13,1444.85 1903.17,1444.85 1904.2,1444.85 1905.24,1444.86 1906.27,1444.86 1907.31,1444.86 1908.34,1444.87 1909.38,1444.87 1910.42,1444.87 1911.45,1444.87 1912.49,1444.88 1913.52,1444.88 1914.56,1444.88 1915.6,1444.89 1916.63,1444.89 1917.67,1444.89 1918.7,1444.89 1919.74,1444.9 1920.78,1444.9 1921.81,1444.9 1922.85,1444.91 1923.88,1444.91 1924.92,1444.91 1925.96,1444.91 1926.99,1444.92 1928.03,1444.92 1929.06,1444.92 1930.1,1444.93 1931.14,1444.93 1932.17,1444.93 1933.21,1444.93 1934.24,1444.94 1935.28,1444.94 1936.31,1444.94 1937.35,1444.94 1938.39,1444.95 1939.42,1444.95 1940.46,1444.95 1941.49,1444.96 1942.53,1444.96 1943.57,1444.96 1944.6,1444.96 1945.64,1444.97 1946.67,1444.97 1947.71,1444.97 1948.75,1444.97 1949.78,1444.98 1950.82,1444.98 1951.85,1444.98 1952.89,1444.99 1953.93,1444.99 1954.96,1444.99 1956,1444.99 1957.03,1445 1958.07,1445 1959.11,1445 1960.14,1445 1961.18,1445.01 1962.21,1445.01 1963.25,1445.01 1964.28,1445.01 1965.32,1445.02 1966.36,1445.02 1967.39,1445.02 1968.43,1445.03 1969.46,1445.03 1970.5,1445.03 1971.54,1445.03 1972.57,1445.04 1973.61,1445.04 1974.64,1445.04 1975.68,1445.04 1976.72,1445.05 1977.75,1445.05 1978.79,1445.05 1979.82,1445.05 1980.86,1445.06 1981.9,1445.06 1982.93,1445.06 1983.97,1445.06 1985,1445.07 1986.04,1445.07 1987.07,1445.07 1988.11,1445.07 1989.15,1445.08 1990.18,1445.08 1991.22,1445.08 1992.25,1445.08 1993.29,1445.09 1994.33,1445.09 1995.36,1445.09 1996.4,1445.1 1997.43,1445.1 1998.47,1445.1 1999.51,1445.1 2000.54,1445.11 2001.58,1445.11 2002.61,1445.11 2003.65,1445.11 2004.69,1445.12 2005.72,1445.12 2006.76,1445.12 2007.79,1445.12 2008.83,1445.13 2009.87,1445.13 2010.9,1445.13 2011.94,1445.13 2012.97,1445.14 2014.01,1445.14 2015.04,1445.14 2016.08,1445.14 2017.12,1445.15 2018.15,1445.15 2019.19,1445.15 2020.22,1445.15 2021.26,1445.16 2022.3,1445.16 2023.33,1445.16 2024.37,1445.16 2025.4,1445.17 2026.44,1445.17 2027.48,1445.17 2028.51,1445.17 2029.55,1445.18 2030.58,1445.18 2031.62,1445.18 2032.66,1445.18 2033.69,1445.19 2034.73,1445.19 2035.76,1445.19 2036.8,1445.19 2037.84,1445.2 2038.87,1445.2 2039.91,1445.2 2040.94,1445.2 2041.98,1445.2 2043.01,1445.21 2044.05,1445.21 2045.09,1445.21 2046.12,1445.21 2047.16,1445.22 2048.19,1445.22 2049.23,1445.22 2050.27,1445.22 2051.3,1445.23 2052.34,1445.23 2053.37,1445.23 2054.41,1445.23 2055.45,1445.24 2056.48,1445.24 2057.52,1445.24 2058.55,1445.24 2059.59,1445.25 2060.63,1445.25 2061.66,1445.25 2062.7,1445.25 2063.73,1445.26 2064.77,1445.26 2065.81,1445.26 2066.84,1445.26 2067.88,1445.26 2068.91,1445.27 2069.95,1445.27 2070.98,1445.27 2072.02,1445.27 2073.06,1445.28 2074.09,1445.28 2075.13,1445.28 2076.16,1445.28 2077.2,1445.29 2078.24,1445.29 2079.27,1445.29 2080.31,1445.29 2081.34,1445.3 2082.38,1445.3 2083.42,1445.3 2084.45,1445.3 2085.49,1445.3 2086.52,1445.31 2087.56,1445.31 2088.6,1445.31 2089.63,1445.31 2090.67,1445.32 2091.7,1445.32 2092.74,1445.32 2093.78,1445.32 2094.81,1445.33 2095.85,1445.33 2096.88,1445.33 2097.92,1445.33 2098.95,1445.33 2099.99,1445.34 2101.03,1445.34 2102.06,1445.34 2103.1,1445.34 2104.13,1445.35 2105.17,1445.35 2106.21,1445.35 2107.24,1445.35 2108.28,1445.35 2109.31,1445.36 2110.35,1445.36 2111.39,1445.36 2112.42,1445.36 2113.46,1445.37 2114.49,1445.37 2115.53,1445.37 2116.57,1445.37 2117.6,1445.37 2118.64,1445.38 2119.67,1445.38 2120.71,1445.38 2121.74,1445.38 2122.78,1445.39 2123.82,1445.39 2124.85,1445.39 2125.89,1445.39 2126.92,1445.39 2127.96,1445.4 2129,1445.4 2130.03,1445.4 2131.07,1445.4 2132.1,1445.41 2133.14,1445.41 2134.18,1445.41 2135.21,1445.41 2136.25,1445.41 2137.28,1445.42 2138.32,1445.42 2139.36,1445.42 2140.39,1445.42 2141.43,1445.43 2142.46,1445.43 2143.5,1445.43 2144.54,1445.43 2145.57,1445.43 2146.61,1445.44 2147.64,1445.44 2148.68,1445.44 2149.71,1445.44 2150.75,1445.44 2151.79,1445.45 2152.82,1445.45 2153.86,1445.45 2154.89,1445.45 2155.93,1445.46 2156.97,1445.46 2158,1445.46 2159.04,1445.46 2160.07,1445.46 2161.11,1445.47 2162.15,1445.47 2163.18,1445.47 2164.22,1445.47 2165.25,1445.47 2166.29,1445.48 2167.33,1445.48 2168.36,1445.48 2169.4,1445.48 2170.43,1445.49 2171.47,1445.49 2172.51,1445.49 2173.54,1445.49 2174.58,1445.49 2175.61,1445.5 2176.65,1445.5 2177.68,1445.5 2178.72,1445.5 2179.76,1445.5 2180.79,1445.51 2181.83,1445.51 2182.86,1445.51 2183.9,1445.51 2184.94,1445.51 2185.97,1445.52 2187.01,1445.52 2188.04,1445.52 2189.08,1445.52 2190.12,1445.53 2191.15,1445.53 2192.19,1445.53 2193.22,1445.53 2194.26,1445.53 2195.3,1445.54 2196.33,1445.54 2197.37,1445.54 2198.4,1445.54 2199.44,1445.54 2200.48,1445.55 2201.51,1445.55 2202.55,1445.55 2203.58,1445.55 2204.62,1445.55 2205.65,1445.56 2206.69,1445.56 2207.73,1445.56 2208.76,1445.56 2209.8,1445.56 2210.83,1445.57 2211.87,1445.57 2212.91,1445.57 2213.94,1445.57 2214.98,1445.57 2216.01,1445.58 2217.05,1445.58 2218.09,1445.58 2219.12,1445.58 2220.16,1445.58 2221.19,1445.59 2222.23,1445.59 2223.27,1445.59 2224.3,1445.59 2225.34,1445.59 2226.37,1445.6 2227.41,1445.6 2228.45,1445.6 2229.48,1445.6 2230.52,1445.6 2231.55,1445.61 2232.59,1445.61 2233.62,1445.61 2234.66,1445.61 2235.7,1445.61 2236.73,1445.62 2237.77,1445.62 2238.8,1445.62 2239.84,1445.62 2240.88,1445.62 2241.91,1445.63 2242.95,1445.63 2243.98,1445.63 2245.02,1445.63 2246.06,1445.63 2247.09,1445.64 2248.13,1445.64 2249.16,1445.64 2250.2,1445.64 2251.24,1445.64 2252.27,1445.65 2253.31,1445.65 2254.34,1445.65 2255.38,1445.65 2256.42,1445.65 2257.45,1445.65 2258.49,1445.66 2259.52,1445.66 2260.56,1445.66 2261.59,1445.66 2262.63,1445.66 2263.67,1445.67 2264.7,1445.67 2265.74,1445.67 2266.77,1445.67 2267.81,1445.67 2268.85,1445.68 2269.88,1445.68 2270.92,1445.68 2271.95,1445.68 2272.99,1445.68 2274.03,1445.69 2275.06,1445.69 2276.1,1445.69 2277.13,1445.69 2278.17,1445.69 2279.21,1445.7 2280.24,1445.7 2281.28,1445.7 2282.31,1445.7 2283.35,1445.7 2284.38,1445.7 2285.42,1445.71 2286.46,1445.71 2287.49,1445.71 2288.53,1445.71 2289.56,1445.71 2290.6,1445.72 "/>
<path clip-path="url(#clip480)" d="M2007.5 198.898 L2279.55 198.898 L2279.55 95.2176 L2007.5 95.2176  Z" fill="#ffffff" fill-rule="evenodd" fill-opacity="1"/>
<polyline clip-path="url(#clip480)" style="stroke:#000000; stroke-linecap:round; stroke-linejoin:round; stroke-width:4; stroke-opacity:1; fill:none" points="2007.5,198.898 2279.55,198.898 2279.55,95.2176 2007.5,95.2176 2007.5,198.898 "/>
<polyline clip-path="url(#clip480)" style="stroke:#009af9; stroke-linecap:round; stroke-linejoin:round; stroke-width:4; stroke-opacity:1; fill:none" points="2031.91,147.058 2178.32,147.058 "/>
<path clip-path="url(#clip480)" d="M2216.56 166.745 Q2214.76 171.375 2213.04 172.787 Q2211.33 174.199 2208.46 174.199 L2205.06 174.199 L2205.06 170.634 L2207.56 170.634 Q2209.32 170.634 2210.29 169.8 Q2211.26 168.967 2212.44 165.865 L2213.2 163.921 L2202.72 138.412 L2207.23 138.412 L2215.33 158.689 L2223.44 138.412 L2227.95 138.412 L2216.56 166.745 Z" fill="#000000" fill-rule="nonzero" fill-opacity="1" /><path clip-path="url(#clip480)" d="M2235.24 160.402 L2242.88 160.402 L2242.88 134.037 L2234.57 135.703 L2234.57 131.444 L2242.83 129.778 L2247.51 129.778 L2247.51 160.402 L2255.15 160.402 L2255.15 164.338 L2235.24 164.338 L2235.24 160.402 Z" fill="#000000" fill-rule="nonzero" fill-opacity="1" /></svg>
