<?xml version="1.0" encoding="utf-8"?>
<svg xmlns="http://www.w3.org/2000/svg" xmlns:xlink="http://www.w3.org/1999/xlink" width="600" height="400" viewBox="0 0 2400 1600">
<defs>
  <clipPath id="clip840">
    <rect x="0" y="0" width="2400" height="1600"/>
  </clipPath>
</defs>
<path clip-path="url(#clip840)" d="M0 1600 L2400 1600 L2400 0 L0 0  Z" fill="#ffffff" fill-rule="evenodd" fill-opacity="1"/>
<defs>
  <clipPath id="clip841">
    <rect x="480" y="0" width="1681" height="1600"/>
  </clipPath>
</defs>
<path clip-path="url(#clip840)" d="M156.598 1486.45 L2352.76 1486.45 L2352.76 47.2441 L156.598 47.2441  Z" fill="#ffffff" fill-rule="evenodd" fill-opacity="1"/>
<defs>
  <clipPath id="clip842">
    <rect x="156" y="47" width="2197" height="1440"/>
  </clipPath>
</defs>
<polyline clip-path="url(#clip842)" style="stroke:#000000; stroke-linecap:round; stroke-linejoin:round; stroke-width:2; stroke-opacity:0.1; fill:none" points="218.754,1486.45 218.754,47.2441 "/>
<polyline clip-path="url(#clip842)" style="stroke:#000000; stroke-linecap:round; stroke-linejoin:round; stroke-width:2; stroke-opacity:0.1; fill:none" points="736.715,1486.45 736.715,47.2441 "/>
<polyline clip-path="url(#clip842)" style="stroke:#000000; stroke-linecap:round; stroke-linejoin:round; stroke-width:2; stroke-opacity:0.1; fill:none" points="1254.68,1486.45 1254.68,47.2441 "/>
<polyline clip-path="url(#clip842)" style="stroke:#000000; stroke-linecap:round; stroke-linejoin:round; stroke-width:2; stroke-opacity:0.1; fill:none" points="1772.64,1486.45 1772.64,47.2441 "/>
<polyline clip-path="url(#clip842)" style="stroke:#000000; stroke-linecap:round; stroke-linejoin:round; stroke-width:2; stroke-opacity:0.1; fill:none" points="2290.6,1486.45 2290.6,47.2441 "/>
<polyline clip-path="url(#clip840)" style="stroke:#000000; stroke-linecap:round; stroke-linejoin:round; stroke-width:4; stroke-opacity:1; fill:none" points="156.598,1486.45 2352.76,1486.45 "/>
<polyline clip-path="url(#clip840)" style="stroke:#000000; stroke-linecap:round; stroke-linejoin:round; stroke-width:4; stroke-opacity:1; fill:none" points="218.754,1486.45 218.754,1467.55 "/>
<polyline clip-path="url(#clip840)" style="stroke:#000000; stroke-linecap:round; stroke-linejoin:round; stroke-width:4; stroke-opacity:1; fill:none" points="736.715,1486.45 736.715,1467.55 "/>
<polyline clip-path="url(#clip840)" style="stroke:#000000; stroke-linecap:round; stroke-linejoin:round; stroke-width:4; stroke-opacity:1; fill:none" points="1254.68,1486.45 1254.68,1467.55 "/>
<polyline clip-path="url(#clip840)" style="stroke:#000000; stroke-linecap:round; stroke-linejoin:round; stroke-width:4; stroke-opacity:1; fill:none" points="1772.64,1486.45 1772.64,1467.55 "/>
<polyline clip-path="url(#clip840)" style="stroke:#000000; stroke-linecap:round; stroke-linejoin:round; stroke-width:4; stroke-opacity:1; fill:none" points="2290.6,1486.45 2290.6,1467.55 "/>
<path clip-path="url(#clip840)" d="M218.754 1517.37 Q215.143 1517.37 213.314 1520.93 Q211.508 1524.47 211.508 1531.6 Q211.508 1538.71 213.314 1542.27 Q215.143 1545.82 218.754 1545.82 Q222.388 1545.82 224.193 1542.27 Q226.022 1538.71 226.022 1531.6 Q226.022 1524.47 224.193 1520.93 Q222.388 1517.37 218.754 1517.37 M218.754 1513.66 Q224.564 1513.66 227.619 1518.27 Q230.698 1522.85 230.698 1531.6 Q230.698 1540.33 227.619 1544.94 Q224.564 1549.52 218.754 1549.52 Q212.943 1549.52 209.865 1544.94 Q206.809 1540.33 206.809 1531.6 Q206.809 1522.85 209.865 1518.27 Q212.943 1513.66 218.754 1513.66 Z" fill="#000000" fill-rule="nonzero" fill-opacity="1" /><path clip-path="url(#clip840)" d="M696.334 1514.29 L714.69 1514.29 L714.69 1518.22 L700.616 1518.22 L700.616 1526.7 Q701.635 1526.35 702.653 1526.19 Q703.672 1526 704.69 1526 Q710.477 1526 713.857 1529.17 Q717.236 1532.34 717.236 1537.76 Q717.236 1543.34 713.764 1546.44 Q710.292 1549.52 703.972 1549.52 Q701.797 1549.52 699.528 1549.15 Q697.283 1548.78 694.875 1548.04 L694.875 1543.34 Q696.959 1544.47 699.181 1545.03 Q701.403 1545.58 703.88 1545.58 Q707.884 1545.58 710.222 1543.48 Q712.56 1541.37 712.56 1537.76 Q712.56 1534.15 710.222 1532.04 Q707.884 1529.94 703.88 1529.94 Q702.005 1529.94 700.13 1530.35 Q698.278 1530.77 696.334 1531.65 L696.334 1514.29 Z" fill="#000000" fill-rule="nonzero" fill-opacity="1" /><path clip-path="url(#clip840)" d="M736.449 1517.37 Q732.838 1517.37 731.009 1520.93 Q729.204 1524.47 729.204 1531.6 Q729.204 1538.71 731.009 1542.27 Q732.838 1545.82 736.449 1545.82 Q740.083 1545.82 741.889 1542.27 Q743.718 1538.71 743.718 1531.6 Q743.718 1524.47 741.889 1520.93 Q740.083 1517.37 736.449 1517.37 M736.449 1513.66 Q742.259 1513.66 745.315 1518.27 Q748.394 1522.85 748.394 1531.6 Q748.394 1540.33 745.315 1544.94 Q742.259 1549.52 736.449 1549.52 Q730.639 1549.52 727.56 1544.94 Q724.505 1540.33 724.505 1531.6 Q724.505 1522.85 727.56 1518.27 Q730.639 1513.66 736.449 1513.66 Z" fill="#000000" fill-rule="nonzero" fill-opacity="1" /><path clip-path="url(#clip840)" d="M766.611 1517.37 Q763 1517.37 761.171 1520.93 Q759.366 1524.47 759.366 1531.6 Q759.366 1538.71 761.171 1542.27 Q763 1545.82 766.611 1545.82 Q770.245 1545.82 772.051 1542.27 Q773.88 1538.71 773.88 1531.6 Q773.88 1524.47 772.051 1520.93 Q770.245 1517.37 766.611 1517.37 M766.611 1513.66 Q772.421 1513.66 775.477 1518.27 Q778.555 1522.85 778.555 1531.6 Q778.555 1540.33 775.477 1544.94 Q772.421 1549.52 766.611 1549.52 Q760.801 1549.52 757.722 1544.94 Q754.667 1540.33 754.667 1531.6 Q754.667 1522.85 757.722 1518.27 Q760.801 1513.66 766.611 1513.66 Z" fill="#000000" fill-rule="nonzero" fill-opacity="1" /><path clip-path="url(#clip840)" d="M1199.2 1544.91 L1206.84 1544.91 L1206.84 1518.55 L1198.53 1520.21 L1198.53 1515.95 L1206.8 1514.29 L1211.47 1514.29 L1211.47 1544.91 L1219.11 1544.91 L1219.11 1548.85 L1199.2 1548.85 L1199.2 1544.91 Z" fill="#000000" fill-rule="nonzero" fill-opacity="1" /><path clip-path="url(#clip840)" d="M1238.55 1517.37 Q1234.94 1517.37 1233.11 1520.93 Q1231.31 1524.47 1231.31 1531.6 Q1231.31 1538.71 1233.11 1542.27 Q1234.94 1545.82 1238.55 1545.82 Q1242.19 1545.82 1243.99 1542.27 Q1245.82 1538.71 1245.82 1531.6 Q1245.82 1524.47 1243.99 1520.93 Q1242.19 1517.37 1238.55 1517.37 M1238.55 1513.66 Q1244.36 1513.66 1247.42 1518.27 Q1250.5 1522.85 1250.5 1531.6 Q1250.5 1540.33 1247.42 1544.94 Q1244.36 1549.52 1238.55 1549.52 Q1232.74 1549.52 1229.67 1544.94 Q1226.61 1540.33 1226.61 1531.6 Q1226.61 1522.85 1229.67 1518.27 Q1232.74 1513.66 1238.55 1513.66 Z" fill="#000000" fill-rule="nonzero" fill-opacity="1" /><path clip-path="url(#clip840)" d="M1268.72 1517.37 Q1265.11 1517.37 1263.28 1520.93 Q1261.47 1524.47 1261.47 1531.6 Q1261.47 1538.71 1263.28 1542.27 Q1265.11 1545.82 1268.72 1545.82 Q1272.35 1545.82 1274.16 1542.27 Q1275.98 1538.71 1275.98 1531.6 Q1275.98 1524.47 1274.16 1520.93 Q1272.35 1517.37 1268.72 1517.37 M1268.72 1513.66 Q1274.53 1513.66 1277.58 1518.27 Q1280.66 1522.85 1280.66 1531.6 Q1280.66 1540.33 1277.58 1544.94 Q1274.53 1549.52 1268.72 1549.52 Q1262.91 1549.52 1259.83 1544.94 Q1256.77 1540.33 1256.77 1531.6 Q1256.77 1522.85 1259.83 1518.27 Q1262.91 1513.66 1268.72 1513.66 Z" fill="#000000" fill-rule="nonzero" fill-opacity="1" /><path clip-path="url(#clip840)" d="M1298.88 1517.37 Q1295.27 1517.37 1293.44 1520.93 Q1291.63 1524.47 1291.63 1531.6 Q1291.63 1538.71 1293.44 1542.27 Q1295.27 1545.82 1298.88 1545.82 Q1302.51 1545.82 1304.32 1542.27 Q1306.15 1538.71 1306.15 1531.6 Q1306.15 1524.47 1304.32 1520.93 Q1302.51 1517.37 1298.88 1517.37 M1298.88 1513.66 Q1304.69 1513.66 1307.74 1518.27 Q1310.82 1522.85 1310.82 1531.6 Q1310.82 1540.33 1307.74 1544.94 Q1304.69 1549.52 1298.88 1549.52 Q1293.07 1549.52 1289.99 1544.94 Q1286.93 1540.33 1286.93 1531.6 Q1286.93 1522.85 1289.99 1518.27 Q1293.07 1513.66 1298.88 1513.66 Z" fill="#000000" fill-rule="nonzero" fill-opacity="1" /><path clip-path="url(#clip840)" d="M1717.16 1544.91 L1724.8 1544.91 L1724.8 1518.55 L1716.49 1520.21 L1716.49 1515.95 L1724.76 1514.29 L1729.43 1514.29 L1729.43 1544.91 L1737.07 1544.91 L1737.07 1548.85 L1717.16 1548.85 L1717.16 1544.91 Z" fill="#000000" fill-rule="nonzero" fill-opacity="1" /><path clip-path="url(#clip840)" d="M1746.56 1514.29 L1764.92 1514.29 L1764.92 1518.22 L1750.84 1518.22 L1750.84 1526.7 Q1751.86 1526.35 1752.88 1526.19 Q1753.9 1526 1754.92 1526 Q1760.71 1526 1764.09 1529.17 Q1767.47 1532.34 1767.47 1537.76 Q1767.47 1543.34 1763.99 1546.44 Q1760.52 1549.52 1754.2 1549.52 Q1752.03 1549.52 1749.76 1549.15 Q1747.51 1548.78 1745.1 1548.04 L1745.1 1543.34 Q1747.19 1544.47 1749.41 1545.03 Q1751.63 1545.58 1754.11 1545.58 Q1758.11 1545.58 1760.45 1543.48 Q1762.79 1541.37 1762.79 1537.76 Q1762.79 1534.15 1760.45 1532.04 Q1758.11 1529.94 1754.11 1529.94 Q1752.23 1529.94 1750.36 1530.35 Q1748.51 1530.77 1746.56 1531.65 L1746.56 1514.29 Z" fill="#000000" fill-rule="nonzero" fill-opacity="1" /><path clip-path="url(#clip840)" d="M1786.68 1517.37 Q1783.07 1517.37 1781.24 1520.93 Q1779.43 1524.47 1779.43 1531.6 Q1779.43 1538.71 1781.24 1542.27 Q1783.07 1545.82 1786.68 1545.82 Q1790.31 1545.82 1792.12 1542.27 Q1793.95 1538.71 1793.95 1531.6 Q1793.95 1524.47 1792.12 1520.93 Q1790.31 1517.37 1786.68 1517.37 M1786.68 1513.66 Q1792.49 1513.66 1795.54 1518.27 Q1798.62 1522.85 1798.62 1531.6 Q1798.62 1540.33 1795.54 1544.94 Q1792.49 1549.52 1786.68 1549.52 Q1780.87 1549.52 1777.79 1544.94 Q1774.73 1540.33 1774.73 1531.6 Q1774.73 1522.85 1777.79 1518.27 Q1780.87 1513.66 1786.68 1513.66 Z" fill="#000000" fill-rule="nonzero" fill-opacity="1" /><path clip-path="url(#clip840)" d="M1816.84 1517.37 Q1813.23 1517.37 1811.4 1520.93 Q1809.59 1524.47 1809.59 1531.6 Q1809.59 1538.71 1811.4 1542.27 Q1813.23 1545.82 1816.84 1545.82 Q1820.47 1545.82 1822.28 1542.27 Q1824.11 1538.71 1824.11 1531.6 Q1824.11 1524.47 1822.28 1520.93 Q1820.47 1517.37 1816.84 1517.37 M1816.84 1513.66 Q1822.65 1513.66 1825.71 1518.27 Q1828.78 1522.85 1828.78 1531.6 Q1828.78 1540.33 1825.71 1544.94 Q1822.65 1549.52 1816.84 1549.52 Q1811.03 1549.52 1807.95 1544.94 Q1804.9 1540.33 1804.9 1531.6 Q1804.9 1522.85 1807.95 1518.27 Q1811.03 1513.66 1816.84 1513.66 Z" fill="#000000" fill-rule="nonzero" fill-opacity="1" /><path clip-path="url(#clip840)" d="M2239.21 1544.91 L2255.53 1544.91 L2255.53 1548.85 L2233.59 1548.85 L2233.59 1544.91 Q2236.25 1542.16 2240.83 1537.53 Q2245.44 1532.88 2246.62 1531.53 Q2248.86 1529.01 2249.74 1527.27 Q2250.65 1525.51 2250.65 1523.82 Q2250.65 1521.07 2248.7 1519.33 Q2246.78 1517.6 2243.68 1517.6 Q2241.48 1517.6 2239.03 1518.36 Q2236.6 1519.13 2233.82 1520.68 L2233.82 1515.95 Q2236.64 1514.82 2239.1 1514.24 Q2241.55 1513.66 2243.59 1513.66 Q2248.96 1513.66 2252.15 1516.35 Q2255.35 1519.03 2255.35 1523.52 Q2255.35 1525.65 2254.54 1527.57 Q2253.75 1529.47 2251.64 1532.07 Q2251.06 1532.74 2247.96 1535.95 Q2244.86 1539.15 2239.21 1544.91 Z" fill="#000000" fill-rule="nonzero" fill-opacity="1" /><path clip-path="url(#clip840)" d="M2275.35 1517.37 Q2271.73 1517.37 2269.91 1520.93 Q2268.1 1524.47 2268.1 1531.6 Q2268.1 1538.71 2269.91 1542.27 Q2271.73 1545.82 2275.35 1545.82 Q2278.98 1545.82 2280.79 1542.27 Q2282.61 1538.71 2282.61 1531.6 Q2282.61 1524.47 2280.79 1520.93 Q2278.98 1517.37 2275.35 1517.37 M2275.35 1513.66 Q2281.16 1513.66 2284.21 1518.27 Q2287.29 1522.85 2287.29 1531.6 Q2287.29 1540.33 2284.21 1544.94 Q2281.16 1549.52 2275.35 1549.52 Q2269.54 1549.52 2266.46 1544.94 Q2263.4 1540.33 2263.4 1531.6 Q2263.4 1522.85 2266.46 1518.27 Q2269.54 1513.66 2275.35 1513.66 Z" fill="#000000" fill-rule="nonzero" fill-opacity="1" /><path clip-path="url(#clip840)" d="M2305.51 1517.37 Q2301.9 1517.37 2300.07 1520.93 Q2298.26 1524.47 2298.26 1531.6 Q2298.26 1538.71 2300.07 1542.27 Q2301.9 1545.82 2305.51 1545.82 Q2309.14 1545.82 2310.95 1542.27 Q2312.78 1538.71 2312.78 1531.6 Q2312.78 1524.47 2310.95 1520.93 Q2309.14 1517.37 2305.51 1517.37 M2305.51 1513.66 Q2311.32 1513.66 2314.37 1518.27 Q2317.45 1522.85 2317.45 1531.6 Q2317.45 1540.33 2314.37 1544.94 Q2311.32 1549.52 2305.51 1549.52 Q2299.7 1549.52 2296.62 1544.94 Q2293.56 1540.33 2293.56 1531.6 Q2293.56 1522.85 2296.62 1518.27 Q2299.7 1513.66 2305.51 1513.66 Z" fill="#000000" fill-rule="nonzero" fill-opacity="1" /><path clip-path="url(#clip840)" d="M2335.67 1517.37 Q2332.06 1517.37 2330.23 1520.93 Q2328.42 1524.47 2328.42 1531.6 Q2328.42 1538.71 2330.23 1542.27 Q2332.06 1545.82 2335.67 1545.82 Q2339.3 1545.82 2341.11 1542.27 Q2342.94 1538.71 2342.94 1531.6 Q2342.94 1524.47 2341.11 1520.93 Q2339.3 1517.37 2335.67 1517.37 M2335.67 1513.66 Q2341.48 1513.66 2344.54 1518.27 Q2347.61 1522.85 2347.61 1531.6 Q2347.61 1540.33 2344.54 1544.94 Q2341.48 1549.52 2335.67 1549.52 Q2329.86 1549.52 2326.78 1544.94 Q2323.73 1540.33 2323.73 1531.6 Q2323.73 1522.85 2326.78 1518.27 Q2329.86 1513.66 2335.67 1513.66 Z" fill="#000000" fill-rule="nonzero" fill-opacity="1" /><polyline clip-path="url(#clip842)" style="stroke:#000000; stroke-linecap:round; stroke-linejoin:round; stroke-width:2; stroke-opacity:0.1; fill:none" points="156.598,1230.06 2352.76,1230.06 "/>
<polyline clip-path="url(#clip842)" style="stroke:#000000; stroke-linecap:round; stroke-linejoin:round; stroke-width:2; stroke-opacity:0.1; fill:none" points="156.598,972.524 2352.76,972.524 "/>
<polyline clip-path="url(#clip842)" style="stroke:#000000; stroke-linecap:round; stroke-linejoin:round; stroke-width:2; stroke-opacity:0.1; fill:none" points="156.598,714.992 2352.76,714.992 "/>
<polyline clip-path="url(#clip842)" style="stroke:#000000; stroke-linecap:round; stroke-linejoin:round; stroke-width:2; stroke-opacity:0.1; fill:none" points="156.598,457.46 2352.76,457.46 "/>
<polyline clip-path="url(#clip842)" style="stroke:#000000; stroke-linecap:round; stroke-linejoin:round; stroke-width:2; stroke-opacity:0.1; fill:none" points="156.598,199.928 2352.76,199.928 "/>
<polyline clip-path="url(#clip840)" style="stroke:#000000; stroke-linecap:round; stroke-linejoin:round; stroke-width:4; stroke-opacity:1; fill:none" points="156.598,1486.45 156.598,47.2441 "/>
<polyline clip-path="url(#clip840)" style="stroke:#000000; stroke-linecap:round; stroke-linejoin:round; stroke-width:4; stroke-opacity:1; fill:none" points="156.598,1230.06 175.496,1230.06 "/>
<polyline clip-path="url(#clip840)" style="stroke:#000000; stroke-linecap:round; stroke-linejoin:round; stroke-width:4; stroke-opacity:1; fill:none" points="156.598,972.524 175.496,972.524 "/>
<polyline clip-path="url(#clip840)" style="stroke:#000000; stroke-linecap:round; stroke-linejoin:round; stroke-width:4; stroke-opacity:1; fill:none" points="156.598,714.992 175.496,714.992 "/>
<polyline clip-path="url(#clip840)" style="stroke:#000000; stroke-linecap:round; stroke-linejoin:round; stroke-width:4; stroke-opacity:1; fill:none" points="156.598,457.46 175.496,457.46 "/>
<polyline clip-path="url(#clip840)" style="stroke:#000000; stroke-linecap:round; stroke-linejoin:round; stroke-width:4; stroke-opacity:1; fill:none" points="156.598,199.928 175.496,199.928 "/>
<path clip-path="url(#clip840)" d="M64.6495 1215.86 Q61.0384 1215.86 59.2097 1219.42 Q57.4041 1222.96 57.4041 1230.09 Q57.4041 1237.2 59.2097 1240.76 Q61.0384 1244.3 64.6495 1244.3 Q68.2837 1244.3 70.0892 1240.76 Q71.9179 1237.2 71.9179 1230.09 Q71.9179 1222.96 70.0892 1219.42 Q68.2837 1215.86 64.6495 1215.86 M64.6495 1212.15 Q70.4596 1212.15 73.5152 1216.76 Q76.5938 1221.34 76.5938 1230.09 Q76.5938 1238.82 73.5152 1243.42 Q70.4596 1248.01 64.6495 1248.01 Q58.8393 1248.01 55.7606 1243.42 Q52.7051 1238.82 52.7051 1230.09 Q52.7051 1221.34 55.7606 1216.76 Q58.8393 1212.15 64.6495 1212.15 Z" fill="#000000" fill-rule="nonzero" fill-opacity="1" /><path clip-path="url(#clip840)" d="M84.8114 1241.46 L89.6956 1241.46 L89.6956 1247.34 L84.8114 1247.34 L84.8114 1241.46 Z" fill="#000000" fill-rule="nonzero" fill-opacity="1" /><path clip-path="url(#clip840)" d="M100.691 1243.4 L108.33 1243.4 L108.33 1217.04 L100.02 1218.7 L100.02 1214.44 L108.283 1212.78 L112.959 1212.78 L112.959 1243.4 L120.598 1243.4 L120.598 1247.34 L100.691 1247.34 L100.691 1243.4 Z" fill="#000000" fill-rule="nonzero" fill-opacity="1" /><path clip-path="url(#clip840)" d="M65.0198 958.323 Q61.4087 958.323 59.58 961.888 Q57.7745 965.43 57.7745 972.559 Q57.7745 979.666 59.58 983.23 Q61.4087 986.772 65.0198 986.772 Q68.6541 986.772 70.4596 983.23 Q72.2883 979.666 72.2883 972.559 Q72.2883 965.43 70.4596 961.888 Q68.6541 958.323 65.0198 958.323 M65.0198 954.619 Q70.83 954.619 73.8855 959.226 Q76.9642 963.809 76.9642 972.559 Q76.9642 981.286 73.8855 985.892 Q70.83 990.476 65.0198 990.476 Q59.2097 990.476 56.131 985.892 Q53.0754 981.286 53.0754 972.559 Q53.0754 963.809 56.131 959.226 Q59.2097 954.619 65.0198 954.619 Z" fill="#000000" fill-rule="nonzero" fill-opacity="1" /><path clip-path="url(#clip840)" d="M85.1818 983.925 L90.066 983.925 L90.066 989.804 L85.1818 989.804 L85.1818 983.925 Z" fill="#000000" fill-rule="nonzero" fill-opacity="1" /><path clip-path="url(#clip840)" d="M104.279 985.869 L120.598 985.869 L120.598 989.804 L98.6539 989.804 L98.6539 985.869 Q101.316 983.115 105.899 978.485 Q110.506 973.832 111.686 972.49 Q113.932 969.967 114.811 968.231 Q115.714 966.471 115.714 964.781 Q115.714 962.027 113.77 960.291 Q111.848 958.555 108.746 958.555 Q106.547 958.555 104.094 959.319 Q101.663 960.082 98.8854 961.633 L98.8854 956.911 Q101.709 955.777 104.163 955.198 Q106.617 954.619 108.654 954.619 Q114.024 954.619 117.219 957.305 Q120.413 959.99 120.413 964.481 Q120.413 966.61 119.603 968.531 Q118.816 970.43 116.709 973.022 Q116.131 973.693 113.029 976.911 Q109.927 980.105 104.279 985.869 Z" fill="#000000" fill-rule="nonzero" fill-opacity="1" /><path clip-path="url(#clip840)" d="M64.0708 700.791 Q60.4597 700.791 58.631 704.356 Q56.8254 707.897 56.8254 715.027 Q56.8254 722.133 58.631 725.698 Q60.4597 729.24 64.0708 729.24 Q67.705 729.24 69.5105 725.698 Q71.3392 722.133 71.3392 715.027 Q71.3392 707.897 69.5105 704.356 Q67.705 700.791 64.0708 700.791 M64.0708 697.087 Q69.8809 697.087 72.9365 701.694 Q76.0151 706.277 76.0151 715.027 Q76.0151 723.754 72.9365 728.36 Q69.8809 732.944 64.0708 732.944 Q58.2606 732.944 55.1819 728.36 Q52.1264 723.754 52.1264 715.027 Q52.1264 706.277 55.1819 701.694 Q58.2606 697.087 64.0708 697.087 Z" fill="#000000" fill-rule="nonzero" fill-opacity="1" /><path clip-path="url(#clip840)" d="M84.2327 726.393 L89.1169 726.393 L89.1169 732.272 L84.2327 732.272 L84.2327 726.393 Z" fill="#000000" fill-rule="nonzero" fill-opacity="1" /><path clip-path="url(#clip840)" d="M113.469 713.638 Q116.825 714.356 118.7 716.624 Q120.598 718.893 120.598 722.226 Q120.598 727.342 117.08 730.143 Q113.561 732.944 107.08 732.944 Q104.904 732.944 102.589 732.504 Q100.297 732.087 97.8437 731.231 L97.8437 726.717 Q99.7882 727.851 102.103 728.43 Q104.418 729.008 106.941 729.008 Q111.339 729.008 113.631 727.272 Q115.945 725.536 115.945 722.226 Q115.945 719.17 113.793 717.458 Q111.663 715.721 107.844 715.721 L103.816 715.721 L103.816 711.879 L108.029 711.879 Q111.478 711.879 113.307 710.513 Q115.135 709.124 115.135 706.532 Q115.135 703.87 113.237 702.458 Q111.362 701.022 107.844 701.022 Q105.922 701.022 103.723 701.439 Q101.524 701.856 98.8854 702.735 L98.8854 698.569 Q101.547 697.828 103.862 697.458 Q106.2 697.087 108.26 697.087 Q113.584 697.087 116.686 699.518 Q119.788 701.925 119.788 706.046 Q119.788 708.916 118.145 710.907 Q116.501 712.874 113.469 713.638 Z" fill="#000000" fill-rule="nonzero" fill-opacity="1" /><path clip-path="url(#clip840)" d="M62.9365 443.259 Q59.3254 443.259 57.4967 446.824 Q55.6912 450.365 55.6912 457.495 Q55.6912 464.601 57.4967 468.166 Q59.3254 471.708 62.9365 471.708 Q66.5707 471.708 68.3763 468.166 Q70.205 464.601 70.205 457.495 Q70.205 450.365 68.3763 446.824 Q66.5707 443.259 62.9365 443.259 M62.9365 439.555 Q68.7467 439.555 71.8022 444.162 Q74.8809 448.745 74.8809 457.495 Q74.8809 466.222 71.8022 470.828 Q68.7467 475.411 62.9365 475.411 Q57.1264 475.411 54.0477 470.828 Q50.9921 466.222 50.9921 457.495 Q50.9921 448.745 54.0477 444.162 Q57.1264 439.555 62.9365 439.555 Z" fill="#000000" fill-rule="nonzero" fill-opacity="1" /><path clip-path="url(#clip840)" d="M83.0984 468.86 L87.9827 468.86 L87.9827 474.74 L83.0984 474.74 L83.0984 468.86 Z" fill="#000000" fill-rule="nonzero" fill-opacity="1" /><path clip-path="url(#clip840)" d="M111.015 444.254 L99.2095 462.703 L111.015 462.703 L111.015 444.254 M109.788 440.18 L115.668 440.18 L115.668 462.703 L120.598 462.703 L120.598 466.592 L115.668 466.592 L115.668 474.74 L111.015 474.74 L111.015 466.592 L95.4132 466.592 L95.4132 462.078 L109.788 440.18 Z" fill="#000000" fill-rule="nonzero" fill-opacity="1" /><path clip-path="url(#clip840)" d="M64.418 185.727 Q60.8069 185.727 58.9782 189.291 Q57.1726 192.833 57.1726 199.963 Q57.1726 207.069 58.9782 210.634 Q60.8069 214.175 64.418 214.175 Q68.0522 214.175 69.8578 210.634 Q71.6865 207.069 71.6865 199.963 Q71.6865 192.833 69.8578 189.291 Q68.0522 185.727 64.418 185.727 M64.418 182.023 Q70.2281 182.023 73.2837 186.629 Q76.3624 191.213 76.3624 199.963 Q76.3624 208.689 73.2837 213.296 Q70.2281 217.879 64.418 217.879 Q58.6078 217.879 55.5291 213.296 Q52.4736 208.689 52.4736 199.963 Q52.4736 191.213 55.5291 186.629 Q58.6078 182.023 64.418 182.023 Z" fill="#000000" fill-rule="nonzero" fill-opacity="1" /><path clip-path="url(#clip840)" d="M84.5799 211.328 L89.4641 211.328 L89.4641 217.208 L84.5799 217.208 L84.5799 211.328 Z" fill="#000000" fill-rule="nonzero" fill-opacity="1" /><path clip-path="url(#clip840)" d="M99.6956 182.648 L118.052 182.648 L118.052 186.583 L103.978 186.583 L103.978 195.055 Q104.996 194.708 106.015 194.546 Q107.033 194.361 108.052 194.361 Q113.839 194.361 117.219 197.532 Q120.598 200.703 120.598 206.12 Q120.598 211.699 117.126 214.8 Q113.654 217.879 107.334 217.879 Q105.159 217.879 102.89 217.509 Q100.645 217.138 98.2372 216.398 L98.2372 211.699 Q100.321 212.833 102.543 213.388 Q104.765 213.944 107.242 213.944 Q111.246 213.944 113.584 211.838 Q115.922 209.731 115.922 206.12 Q115.922 202.509 113.584 200.402 Q111.246 198.296 107.242 198.296 Q105.367 198.296 103.492 198.713 Q101.64 199.129 99.6956 200.009 L99.6956 182.648 Z" fill="#000000" fill-rule="nonzero" fill-opacity="1" /><polyline clip-path="url(#clip842)" style="stroke:#009af9; stroke-linecap:round; stroke-linejoin:round; stroke-width:4; stroke-opacity:1; fill:none" points="218.754,87.9763 219.79,99.3123 220.825,110.526 221.861,121.62 222.897,132.593 223.933,143.449 224.969,154.188 226.005,164.811 227.041,175.319 228.077,185.714 229.113,195.997 230.149,206.169 231.185,216.231 232.221,226.184 233.257,236.031 234.292,245.771 235.328,255.406 236.364,264.937 237.4,274.366 238.436,283.693 239.472,292.919 240.508,302.047 241.544,311.076 242.58,320.008 243.616,328.844 244.652,337.585 245.688,346.232 246.724,354.787 247.759,363.25 248.795,371.622 249.831,379.905 250.867,388.1 251.903,396.207 252.939,404.227 253.975,412.162 255.011,420.012 256.047,427.779 257.083,435.464 258.119,443.067 259.155,450.589 260.191,458.032 261.227,465.397 262.262,472.683 263.298,479.893 264.334,487.027 265.37,494.085 266.406,501.07 267.442,507.982 268.478,514.821 269.514,521.589 270.55,528.286 271.586,534.913 272.622,541.472 273.658,547.962 274.694,554.385 275.729,560.742 276.765,567.033 277.801,573.259 278.837,579.421 279.873,585.52 280.909,591.556 281.945,597.53 282.981,603.444 284.017,609.297 285.053,615.09 286.089,620.825 287.125,626.501 288.161,632.12 289.196,637.683 290.232,643.189 291.268,648.64 292.304,654.036 293.34,659.378 294.376,664.666 295.412,669.902 296.448,675.086 297.484,680.218 298.52,685.3 299.556,690.331 300.592,695.313 301.628,700.245 302.663,705.129 303.699,709.965 304.735,714.754 305.771,719.496 306.807,724.192 307.843,728.843 308.879,733.448 309.915,738.009 310.951,742.525 311.987,746.999 313.023,751.429 314.059,755.817 315.095,760.163 316.13,764.467 317.166,768.731 318.202,772.954 319.238,777.137 320.274,781.281 321.31,785.386 322.346,789.452 323.382,793.48 324.418,797.47 325.454,801.423 326.49,805.34 327.526,809.22 328.562,813.064 329.597,816.872 330.633,820.646 331.669,824.385 332.705,828.089 333.741,831.76 334.777,835.397 335.813,839.002 336.849,842.573 337.885,846.112 338.921,849.62 339.957,853.095 340.993,856.54 342.029,859.953 343.064,863.337 344.1,866.69 345.136,870.013 346.172,873.307 347.208,876.571 348.244,879.807 349.28,883.015 350.316,886.194 351.352,889.345 352.388,892.469 353.424,895.566 354.46,898.636 355.496,901.679 356.531,904.697 357.567,907.688 358.603,910.653 359.639,913.593 360.675,916.508 361.711,919.398 362.747,922.264 363.783,925.105 364.819,927.922 365.855,930.716 366.891,933.486 367.927,936.232 368.963,938.956 369.998,941.657 371.034,944.336 372.07,946.992 373.106,949.627 374.142,952.239 375.178,954.83 376.214,957.4 377.25,959.949 378.286,962.477 379.322,964.985 380.358,967.472 381.394,969.939 382.43,972.386 383.465,974.813 384.501,977.221 385.537,979.61 386.573,981.979 387.609,984.33 388.645,986.661 389.681,988.975 390.717,991.27 391.753,993.547 392.789,995.806 393.825,998.047 394.861,1000.27 395.897,1002.48 396.932,1004.67 397.968,1006.84 399.004,1008.99 400.04,1011.13 401.076,1013.26 402.112,1015.36 403.148,1017.45 404.184,1019.53 405.22,1021.58 406.256,1023.63 407.292,1025.65 408.328,1027.67 409.364,1029.66 410.399,1031.64 411.435,1033.61 412.471,1035.56 413.507,1037.5 414.543,1039.42 415.579,1041.33 416.615,1043.23 417.651,1045.11 418.687,1046.97 419.723,1048.83 420.759,1050.67 421.795,1052.49 422.831,1054.31 423.866,1056.11 424.902,1057.89 425.938,1059.67 426.974,1061.43 428.01,1063.18 429.046,1064.91 430.082,1066.63 431.118,1068.35 432.154,1070.04 433.19,1071.73 434.226,1073.41 435.262,1075.07 436.298,1076.72 437.333,1078.36 438.369,1079.99 439.405,1081.6 440.441,1083.21 441.477,1084.8 442.513,1086.39 443.549,1087.96 444.585,1089.52 445.621,1091.07 446.657,1092.61 447.693,1094.14 448.729,1095.66 449.765,1097.17 450.8,1098.67 451.836,1100.16 452.872,1101.64 453.908,1103.1 454.944,1104.56 455.98,1106.01 457.016,1107.45 458.052,1108.88 459.088,1110.3 460.124,1111.71 461.16,1113.11 462.196,1114.5 463.232,1115.89 464.267,1117.26 465.303,1118.62 466.339,1119.98 467.375,1121.33 468.411,1122.67 469.447,1123.99 470.483,1125.32 471.519,1126.63 472.555,1127.93 473.591,1129.23 474.627,1130.51 475.663,1131.79 476.699,1133.06 477.734,1134.33 478.77,1135.58 479.806,1136.83 480.842,1138.07 481.878,1139.3 482.914,1140.52 483.95,1141.74 484.986,1142.94 486.022,1144.14 487.058,1145.34 488.094,1146.52 489.13,1147.7 490.166,1148.87 491.202,1150.04 492.237,1151.19 493.273,1152.34 494.309,1153.48 495.345,1154.62 496.381,1155.75 497.417,1156.87 498.453,1157.98 499.489,1159.09 500.525,1160.19 501.561,1161.29 502.597,1162.38 503.633,1163.46 504.669,1164.53 505.704,1165.6 506.74,1166.67 507.776,1167.72 508.812,1168.77 509.848,1169.82 510.884,1170.85 511.92,1171.88 512.956,1172.91 513.992,1173.93 515.028,1174.94 516.064,1175.95 517.1,1176.95 518.136,1177.95 519.171,1178.94 520.207,1179.92 521.243,1180.9 522.279,1181.87 523.315,1182.84 524.351,1183.8 525.387,1184.76 526.423,1185.71 527.459,1186.66 528.495,1187.6 529.531,1188.53 530.567,1189.46 531.603,1190.39 532.638,1191.3 533.674,1192.22 534.71,1193.13 535.746,1194.03 536.782,1194.93 537.818,1195.82 538.854,1196.71 539.89,1197.6 540.926,1198.48 541.962,1199.35 542.998,1200.22 544.034,1201.09 545.07,1201.95 546.105,1202.8 547.141,1203.65 548.177,1204.5 549.213,1205.34 550.249,1206.18 551.285,1207.01 552.321,1207.84 553.357,1208.66 554.393,1209.48 555.429,1210.29 556.465,1211.1 557.501,1211.91 558.537,1212.71 559.572,1213.51 560.608,1214.3 561.644,1215.09 562.68,1215.88 563.716,1216.66 564.752,1217.43 565.788,1218.21 566.824,1218.98 567.86,1219.74 568.896,1220.5 569.932,1221.26 570.968,1222.01 572.004,1222.76 573.039,1223.5 574.075,1224.25 575.111,1224.98 576.147,1225.72 577.183,1226.45 578.219,1227.17 579.255,1227.9 580.291,1228.61 581.327,1229.33 582.363,1230.04 583.399,1230.75 584.435,1231.45 585.471,1232.15 586.506,1232.85 587.542,1233.55 588.578,1234.24 589.614,1234.92 590.65,1235.61 591.686,1236.29 592.722,1236.96 593.758,1237.64 594.794,1238.31 595.83,1238.97 596.866,1239.64 597.902,1240.3 598.938,1240.95 599.973,1241.61 601.009,1242.26 602.045,1242.91 603.081,1243.55 604.117,1244.19 605.153,1244.83 606.189,1245.47 607.225,1246.1 608.261,1246.73 609.297,1247.35 610.333,1247.98 611.369,1248.6 612.405,1249.21 613.44,1249.83 614.476,1250.44 615.512,1251.05 616.548,1251.65 617.584,1252.26 618.62,1252.85 619.656,1253.45 620.692,1254.05 621.728,1254.64 622.764,1255.23 623.8,1255.81 624.836,1256.4 625.872,1256.98 626.907,1257.55 627.943,1258.13 628.979,1258.7 630.015,1259.27 631.051,1259.84 632.087,1260.4 633.123,1260.96 634.159,1261.52 635.195,1262.08 636.231,1262.64 637.267,1263.19 638.303,1263.74 639.339,1264.28 640.374,1264.83 641.41,1265.37 642.446,1265.91 643.482,1266.45 644.518,1266.98 645.554,1267.51 646.59,1268.04 647.626,1268.57 648.662,1269.1 649.698,1269.62 650.734,1270.14 651.77,1270.66 652.806,1271.17 653.841,1271.69 654.877,1272.2 655.913,1272.71 656.949,1273.21 657.985,1273.72 659.021,1274.22 660.057,1274.72 661.093,1275.22 662.129,1275.72 663.165,1276.21 664.201,1276.7 665.237,1277.19 666.273,1277.68 667.308,1278.16 668.344,1278.65 669.38,1279.13 670.416,1279.61 671.452,1280.09 672.488,1280.56 673.524,1281.03 674.56,1281.5 675.596,1281.97 676.632,1282.44 677.668,1282.91 678.704,1283.37 679.74,1283.83 680.775,1284.29 681.811,1284.75 682.847,1285.2 683.883,1285.66 684.919,1286.11 685.955,1286.56 686.991,1287.01 688.027,1287.45 689.063,1287.9 690.099,1288.34 691.135,1288.78 692.171,1289.22 693.207,1289.65 694.242,1290.09 695.278,1290.52 696.314,1290.95 697.35,1291.38 698.386,1291.81 699.422,1292.24 700.458,1292.66 701.494,1293.09 702.53,1293.51 703.566,1293.93 704.602,1294.35 705.638,1294.76 706.674,1295.18 707.709,1295.59 708.745,1296 709.781,1296.41 710.817,1296.82 711.853,1297.22 712.889,1297.63 713.925,1298.03 714.961,1298.43 715.997,1298.83 717.033,1299.23 718.069,1299.63 719.105,1300.02 720.141,1300.42 721.177,1300.81 722.212,1301.2 723.248,1301.59 724.284,1301.98 725.32,1302.36 726.356,1302.75 727.392,1303.13 728.428,1303.51 729.464,1303.89 730.5,1304.27 731.536,1304.65 732.572,1305.02 733.608,1305.4 734.644,1305.77 735.679,1306.14 736.715,1306.51 737.751,1306.88 738.787,1307.25 739.823,1307.61 740.859,1307.98 741.895,1308.34 742.931,1308.7 743.967,1309.06 745.003,1309.42 746.039,1309.78 747.075,1310.13 748.111,1310.49 749.146,1310.84 750.182,1311.19 751.218,1311.54 752.254,1311.89 753.29,1312.24 754.326,1312.59 755.362,1312.94 756.398,1313.28 757.434,1313.62 758.47,1313.96 759.506,1314.31 760.542,1314.64 761.578,1314.98 762.613,1315.32 763.649,1315.66 764.685,1315.99 765.721,1316.32 766.757,1316.66 767.793,1316.99 768.829,1317.32 769.865,1317.64 770.901,1317.97 771.937,1318.3 772.973,1318.62 774.009,1318.95 775.045,1319.27 776.08,1319.59 777.116,1319.91 778.152,1320.23 779.188,1320.55 780.224,1320.86 781.26,1321.18 782.296,1321.49 783.332,1321.81 784.368,1322.12 785.404,1322.43 786.44,1322.74 787.476,1323.05 788.512,1323.36 789.547,1323.66 790.583,1323.97 791.619,1324.28 792.655,1324.58 793.691,1324.88 794.727,1325.18 795.763,1325.48 796.799,1325.78 797.835,1326.08 798.871,1326.38 799.907,1326.67 800.943,1326.97 801.979,1327.26 803.014,1327.56 804.05,1327.85 805.086,1328.14 806.122,1328.43 807.158,1328.72 808.194,1329.01 809.23,1329.3 810.266,1329.58 811.302,1329.87 812.338,1330.15 813.374,1330.44 814.41,1330.72 815.446,1331 816.481,1331.28 817.517,1331.56 818.553,1331.84 819.589,1332.12 820.625,1332.39 821.661,1332.67 822.697,1332.94 823.733,1333.22 824.769,1333.49 825.805,1333.76 826.841,1334.03 827.877,1334.3 828.913,1334.57 829.948,1334.84 830.984,1335.11 832.02,1335.38 833.056,1335.64 834.092,1335.91 835.128,1336.17 836.164,1336.44 837.2,1336.7 838.236,1336.96 839.272,1337.22 840.308,1337.48 841.344,1337.74 842.38,1338 843.415,1338.25 844.451,1338.51 845.487,1338.77 846.523,1339.02 847.559,1339.28 848.595,1339.53 849.631,1339.78 850.667,1340.03 851.703,1340.28 852.739,1340.53 853.775,1340.78 854.811,1341.03 855.847,1341.28 856.882,1341.53 857.918,1341.77 858.954,1342.02 859.99,1342.26 861.026,1342.51 862.062,1342.75 863.098,1342.99 864.134,1343.23 865.17,1343.47 866.206,1343.71 867.242,1343.95 868.278,1344.19 869.314,1344.43 870.349,1344.66 871.385,1344.9 872.421,1345.14 873.457,1345.37 874.493,1345.6 875.529,1345.84 876.565,1346.07 877.601,1346.3 878.637,1346.53 879.673,1346.76 880.709,1346.99 881.745,1347.22 882.781,1347.45 883.816,1347.68 884.852,1347.9 885.888,1348.13 886.924,1348.36 887.96,1348.58 888.996,1348.8 890.032,1349.03 891.068,1349.25 892.104,1349.47 893.14,1349.69 894.176,1349.91 895.212,1350.13 896.248,1350.35 897.283,1350.57 898.319,1350.79 899.355,1351.01 900.391,1351.22 901.427,1351.44 902.463,1351.66 903.499,1351.87 904.535,1352.08 905.571,1352.3 906.607,1352.51 907.643,1352.72 908.679,1352.93 909.715,1353.15 910.75,1353.36 911.786,1353.57 912.822,1353.77 913.858,1353.98 914.894,1354.19 915.93,1354.4 916.966,1354.6 918.002,1354.81 919.038,1355.02 920.074,1355.22 921.11,1355.43 922.146,1355.63 923.182,1355.83 924.217,1356.03 925.253,1356.24 926.289,1356.44 927.325,1356.64 928.361,1356.84 929.397,1357.04 930.433,1357.24 931.469,1357.43 932.505,1357.63 933.541,1357.83 934.577,1358.03 935.613,1358.22 936.649,1358.42 937.685,1358.61 938.72,1358.81 939.756,1359 940.792,1359.19 941.828,1359.39 942.864,1359.58 943.9,1359.77 944.936,1359.96 945.972,1360.15 947.008,1360.34 948.044,1360.53 949.08,1360.72 950.116,1360.91 951.152,1361.1 952.187,1361.28 953.223,1361.47 954.259,1361.66 955.295,1361.84 956.331,1362.03 957.367,1362.21 958.403,1362.4 959.439,1362.58 960.475,1362.76 961.511,1362.95 962.547,1363.13 963.583,1363.31 964.619,1363.49 965.654,1363.67 966.69,1363.85 967.726,1364.03 968.762,1364.21 969.798,1364.39 970.834,1364.57 971.87,1364.75 972.906,1364.92 973.942,1365.1 974.978,1365.28 976.014,1365.45 977.05,1365.63 978.086,1365.8 979.121,1365.98 980.157,1366.15 981.193,1366.32 982.229,1366.5 983.265,1366.67 984.301,1366.84 985.337,1367.01 986.373,1367.18 987.409,1367.35 988.445,1367.52 989.481,1367.69 990.517,1367.86 991.553,1368.03 992.588,1368.2 993.624,1368.37 994.66,1368.54 995.696,1368.7 996.732,1368.87 997.768,1369.03 998.804,1369.2 999.84,1369.37 1000.88,1369.53 1001.91,1369.69 1002.95,1369.86 1003.98,1370.02 1005.02,1370.19 1006.06,1370.35 1007.09,1370.51 1008.13,1370.67 1009.16,1370.83 1010.2,1370.99 1011.24,1371.15 1012.27,1371.31 1013.31,1371.47 1014.34,1371.63 1015.38,1371.79 1016.41,1371.95 1017.45,1372.11 1018.49,1372.27 1019.52,1372.42 1020.56,1372.58 1021.59,1372.74 1022.63,1372.89 1023.67,1373.05 1024.7,1373.2 1025.74,1373.36 1026.77,1373.51 1027.81,1373.67 1028.85,1373.82 1029.88,1373.97 1030.92,1374.12 1031.95,1374.28 1032.99,1374.43 1034.03,1374.58 1035.06,1374.73 1036.1,1374.88 1037.13,1375.03 1038.17,1375.18 1039.2,1375.33 1040.24,1375.48 1041.28,1375.63 1042.31,1375.78 1043.35,1375.93 1044.38,1376.08 1045.42,1376.22 1046.46,1376.37 1047.49,1376.52 1048.53,1376.66 1049.56,1376.81 1050.6,1376.95 1051.64,1377.1 1052.67,1377.24 1053.71,1377.39 1054.74,1377.53 1055.78,1377.68 1056.82,1377.82 1057.85,1377.96 1058.89,1378.11 1059.92,1378.25 1060.96,1378.39 1062,1378.53 1063.03,1378.67 1064.07,1378.81 1065.1,1378.95 1066.14,1379.09 1067.17,1379.23 1068.21,1379.37 1069.25,1379.51 1070.28,1379.65 1071.32,1379.79 1072.35,1379.93 1073.39,1380.07 1074.43,1380.2 1075.46,1380.34 1076.5,1380.48 1077.53,1380.61 1078.57,1380.75 1079.61,1380.89 1080.64,1381.02 1081.68,1381.16 1082.71,1381.29 1083.75,1381.43 1084.79,1381.56 1085.82,1381.69 1086.86,1381.83 1087.89,1381.96 1088.93,1382.09 1089.97,1382.23 1091,1382.36 1092.04,1382.49 1093.07,1382.62 1094.11,1382.75 1095.14,1382.88 1096.18,1383.02 1097.22,1383.15 1098.25,1383.28 1099.29,1383.41 1100.32,1383.54 1101.36,1383.66 1102.4,1383.79 1103.43,1383.92 1104.47,1384.05 1105.5,1384.18 1106.54,1384.31 1107.58,1384.43 1108.61,1384.56 1109.65,1384.69 1110.68,1384.81 1111.72,1384.94 1112.76,1385.06 1113.79,1385.19 1114.83,1385.32 1115.86,1385.44 1116.9,1385.57 1117.94,1385.69 1118.97,1385.81 1120.01,1385.94 1121.04,1386.06 1122.08,1386.18 1123.11,1386.31 1124.15,1386.43 1125.19,1386.55 1126.22,1386.67 1127.26,1386.8 1128.29,1386.92 1129.33,1387.04 1130.37,1387.16 1131.4,1387.28 1132.44,1387.4 1133.47,1387.52 1134.51,1387.64 1135.55,1387.76 1136.58,1387.88 1137.62,1388 1138.65,1388.12 1139.69,1388.24 1140.73,1388.35 1141.76,1388.47 1142.8,1388.59 1143.83,1388.71 1144.87,1388.82 1145.91,1388.94 1146.94,1389.06 1147.98,1389.17 1149.01,1389.29 1150.05,1389.41 1151.08,1389.52 1152.12,1389.64 1153.16,1389.75 1154.19,1389.87 1155.23,1389.98 1156.26,1390.1 1157.3,1390.21 1158.34,1390.32 1159.37,1390.44 1160.41,1390.55 1161.44,1390.66 1162.48,1390.78 1163.52,1390.89 1164.55,1391 1165.59,1391.11 1166.62,1391.22 1167.66,1391.34 1168.7,1391.45 1169.73,1391.56 1170.77,1391.67 1171.8,1391.78 1172.84,1391.89 1173.88,1392 1174.91,1392.11 1175.95,1392.22 1176.98,1392.33 1178.02,1392.44 1179.05,1392.55 1180.09,1392.66 1181.13,1392.76 1182.16,1392.87 1183.2,1392.98 1184.23,1393.09 1185.27,1393.2 1186.31,1393.3 1187.34,1393.41 1188.38,1393.52 1189.41,1393.62 1190.45,1393.73 1191.49,1393.83 1192.52,1393.94 1193.56,1394.05 1194.59,1394.15 1195.63,1394.26 1196.67,1394.36 1197.7,1394.47 1198.74,1394.57 1199.77,1394.67 1200.81,1394.78 1201.84,1394.88 1202.88,1394.99 1203.92,1395.09 1204.95,1395.19 1205.99,1395.3 1207.02,1395.4 1208.06,1395.5 1209.1,1395.6 1210.13,1395.7 1211.17,1395.81 1212.2,1395.91 1213.24,1396.01 1214.28,1396.11 1215.31,1396.21 1216.35,1396.31 1217.38,1396.41 1218.42,1396.51 1219.46,1396.61 1220.49,1396.71 1221.53,1396.81 1222.56,1396.91 1223.6,1397.01 1224.64,1397.11 1225.67,1397.21 1226.71,1397.31 1227.74,1397.41 1228.78,1397.5 1229.81,1397.6 1230.85,1397.7 1231.89,1397.8 1232.92,1397.9 1233.96,1397.99 1234.99,1398.09 1236.03,1398.19 1237.07,1398.28 1238.1,1398.38 1239.14,1398.48 1240.17,1398.57 1241.21,1398.67 1242.25,1398.76 1243.28,1398.86 1244.32,1398.95 1245.35,1399.05 1246.39,1399.14 1247.43,1399.24 1248.46,1399.33 1249.5,1399.43 1250.53,1399.52 1251.57,1399.61 1252.61,1399.71 1253.64,1399.8 1254.68,1399.89 1255.71,1399.99 1256.75,1400.08 1257.78,1400.17 1258.82,1400.27 1259.86,1400.36 1260.89,1400.45 1261.93,1400.54 1262.96,1400.63 1264,1400.73 1265.04,1400.82 1266.07,1400.91 1267.11,1401 1268.14,1401.09 1269.18,1401.18 1270.22,1401.27 1271.25,1401.36 1272.29,1401.45 1273.32,1401.54 1274.36,1401.63 1275.4,1401.72 1276.43,1401.81 1277.47,1401.9 1278.5,1401.99 1279.54,1402.08 1280.58,1402.17 1281.61,1402.25 1282.65,1402.34 1283.68,1402.43 1284.72,1402.52 1285.75,1402.61 1286.79,1402.69 1287.83,1402.78 1288.86,1402.87 1289.9,1402.96 1290.93,1403.04 1291.97,1403.13 1293.01,1403.22 1294.04,1403.3 1295.08,1403.39 1296.11,1403.48 1297.15,1403.56 1298.19,1403.65 1299.22,1403.73 1300.26,1403.82 1301.29,1403.9 1302.33,1403.99 1303.37,1404.07 1304.4,1404.16 1305.44,1404.24 1306.47,1404.33 1307.51,1404.41 1308.55,1404.5 1309.58,1404.58 1310.62,1404.66 1311.65,1404.75 1312.69,1404.83 1313.72,1404.91 1314.76,1405 1315.8,1405.08 1316.83,1405.16 1317.87,1405.25 1318.9,1405.33 1319.94,1405.41 1320.98,1405.49 1322.01,1405.57 1323.05,1405.66 1324.08,1405.74 1325.12,1405.82 1326.16,1405.9 1327.19,1405.98 1328.23,1406.06 1329.26,1406.14 1330.3,1406.22 1331.34,1406.31 1332.37,1406.39 1333.41,1406.47 1334.44,1406.55 1335.48,1406.63 1336.52,1406.71 1337.55,1406.79 1338.59,1406.87 1339.62,1406.94 1340.66,1407.02 1341.69,1407.1 1342.73,1407.18 1343.77,1407.26 1344.8,1407.34 1345.84,1407.42 1346.87,1407.5 1347.91,1407.57 1348.95,1407.65 1349.98,1407.73 1351.02,1407.81 1352.05,1407.89 1353.09,1407.96 1354.13,1408.04 1355.16,1408.12 1356.2,1408.2 1357.23,1408.27 1358.27,1408.35 1359.31,1408.43 1360.34,1408.5 1361.38,1408.58 1362.41,1408.65 1363.45,1408.73 1364.48,1408.81 1365.52,1408.88 1366.56,1408.96 1367.59,1409.03 1368.63,1409.11 1369.66,1409.18 1370.7,1409.26 1371.74,1409.33 1372.77,1409.41 1373.81,1409.48 1374.84,1409.56 1375.88,1409.63 1376.92,1409.71 1377.95,1409.78 1378.99,1409.85 1380.02,1409.93 1381.06,1410 1382.1,1410.08 1383.13,1410.15 1384.17,1410.22 1385.2,1410.3 1386.24,1410.37 1387.28,1410.44 1388.31,1410.51 1389.35,1410.59 1390.38,1410.66 1391.42,1410.73 1392.45,1410.8 1393.49,1410.88 1394.53,1410.95 1395.56,1411.02 1396.6,1411.09 1397.63,1411.16 1398.67,1411.23 1399.71,1411.31 1400.74,1411.38 1401.78,1411.45 1402.81,1411.52 1403.85,1411.59 1404.89,1411.66 1405.92,1411.73 1406.96,1411.8 1407.99,1411.87 1409.03,1411.94 1410.07,1412.01 1411.1,1412.08 1412.14,1412.15 1413.17,1412.22 1414.21,1412.29 1415.25,1412.36 1416.28,1412.43 1417.32,1412.5 1418.35,1412.57 1419.39,1412.64 1420.42,1412.71 1421.46,1412.77 1422.5,1412.84 1423.53,1412.91 1424.57,1412.98 1425.6,1413.05 1426.64,1413.12 1427.68,1413.18 1428.71,1413.25 1429.75,1413.32 1430.78,1413.39 1431.82,1413.46 1432.86,1413.52 1433.89,1413.59 1434.93,1413.66 1435.96,1413.72 1437,1413.79 1438.04,1413.86 1439.07,1413.92 1440.11,1413.99 1441.14,1414.06 1442.18,1414.12 1443.22,1414.19 1444.25,1414.26 1445.29,1414.32 1446.32,1414.39 1447.36,1414.45 1448.39,1414.52 1449.43,1414.59 1450.47,1414.65 1451.5,1414.72 1452.54,1414.78 1453.57,1414.85 1454.61,1414.91 1455.65,1414.98 1456.68,1415.04 1457.72,1415.11 1458.75,1415.17 1459.79,1415.23 1460.83,1415.3 1461.86,1415.36 1462.9,1415.43 1463.93,1415.49 1464.97,1415.56 1466.01,1415.62 1467.04,1415.68 1468.08,1415.75 1469.11,1415.81 1470.15,1415.87 1471.19,1415.94 1472.22,1416 1473.26,1416.06 1474.29,1416.13 1475.33,1416.19 1476.36,1416.25 1477.4,1416.31 1478.44,1416.38 1479.47,1416.44 1480.51,1416.5 1481.54,1416.56 1482.58,1416.62 1483.62,1416.69 1484.65,1416.75 1485.69,1416.81 1486.72,1416.87 1487.76,1416.93 1488.8,1416.99 1489.83,1417.06 1490.87,1417.12 1491.9,1417.18 1492.94,1417.24 1493.98,1417.3 1495.01,1417.36 1496.05,1417.42 1497.08,1417.48 1498.12,1417.54 1499.15,1417.6 1500.19,1417.66 1501.23,1417.72 1502.26,1417.78 1503.3,1417.84 1504.33,1417.9 1505.37,1417.96 1506.41,1418.02 1507.44,1418.08 1508.48,1418.14 1509.51,1418.2 1510.55,1418.26 1511.59,1418.32 1512.62,1418.38 1513.66,1418.44 1514.69,1418.5 1515.73,1418.56 1516.77,1418.62 1517.8,1418.67 1518.84,1418.73 1519.87,1418.79 1520.91,1418.85 1521.95,1418.91 1522.98,1418.97 1524.02,1419.02 1525.05,1419.08 1526.09,1419.14 1527.12,1419.2 1528.16,1419.26 1529.2,1419.31 1530.23,1419.37 1531.27,1419.43 1532.3,1419.49 1533.34,1419.54 1534.38,1419.6 1535.41,1419.66 1536.45,1419.71 1537.48,1419.77 1538.52,1419.83 1539.56,1419.88 1540.59,1419.94 1541.63,1420 1542.66,1420.05 1543.7,1420.11 1544.74,1420.17 1545.77,1420.22 1546.81,1420.28 1547.84,1420.33 1548.88,1420.39 1549.92,1420.45 1550.95,1420.5 1551.99,1420.56 1553.02,1420.61 1554.06,1420.67 1555.09,1420.72 1556.13,1420.78 1557.17,1420.83 1558.2,1420.89 1559.24,1420.94 1560.27,1421 1561.31,1421.05 1562.35,1421.11 1563.38,1421.16 1564.42,1421.22 1565.45,1421.27 1566.49,1421.33 1567.53,1421.38 1568.56,1421.43 1569.6,1421.49 1570.63,1421.54 1571.67,1421.6 1572.71,1421.65 1573.74,1421.7 1574.78,1421.76 1575.81,1421.81 1576.85,1421.87 1577.89,1421.92 1578.92,1421.97 1579.96,1422.03 1580.99,1422.08 1582.03,1422.13 1583.06,1422.18 1584.1,1422.24 1585.14,1422.29 1586.17,1422.34 1587.21,1422.4 1588.24,1422.45 1589.28,1422.5 1590.32,1422.55 1591.35,1422.61 1592.39,1422.66 1593.42,1422.71 1594.46,1422.76 1595.5,1422.81 1596.53,1422.87 1597.57,1422.92 1598.6,1422.97 1599.64,1423.02 1600.68,1423.07 1601.71,1423.13 1602.75,1423.18 1603.78,1423.23 1604.82,1423.28 1605.86,1423.33 1606.89,1423.38 1607.93,1423.43 1608.96,1423.48 1610,1423.53 1611.03,1423.59 1612.07,1423.64 1613.11,1423.69 1614.14,1423.74 1615.18,1423.79 1616.21,1423.84 1617.25,1423.89 1618.29,1423.94 1619.32,1423.99 1620.36,1424.04 1621.39,1424.09 1622.43,1424.14 1623.47,1424.19 1624.5,1424.24 1625.54,1424.29 1626.57,1424.34 1627.61,1424.39 1628.65,1424.44 1629.68,1424.49 1630.72,1424.54 1631.75,1424.59 1632.79,1424.64 1633.83,1424.68 1634.86,1424.73 1635.9,1424.78 1636.93,1424.83 1637.97,1424.88 1639,1424.93 1640.04,1424.98 1641.08,1425.03 1642.11,1425.08 1643.15,1425.12 1644.18,1425.17 1645.22,1425.22 1646.26,1425.27 1647.29,1425.32 1648.33,1425.37 1649.36,1425.41 1650.4,1425.46 1651.44,1425.51 1652.47,1425.56 1653.51,1425.61 1654.54,1425.65 1655.58,1425.7 1656.62,1425.75 1657.65,1425.8 1658.69,1425.84 1659.72,1425.89 1660.76,1425.94 1661.79,1425.99 1662.83,1426.03 1663.87,1426.08 1664.9,1426.13 1665.94,1426.17 1666.97,1426.22 1668.01,1426.27 1669.05,1426.31 1670.08,1426.36 1671.12,1426.41 1672.15,1426.45 1673.19,1426.5 1674.23,1426.55 1675.26,1426.59 1676.3,1426.64 1677.33,1426.69 1678.37,1426.73 1679.41,1426.78 1680.44,1426.82 1681.48,1426.87 1682.51,1426.92 1683.55,1426.96 1684.59,1427.01 1685.62,1427.05 1686.66,1427.1 1687.69,1427.14 1688.73,1427.19 1689.76,1427.23 1690.8,1427.28 1691.84,1427.32 1692.87,1427.37 1693.91,1427.42 1694.94,1427.46 1695.98,1427.51 1697.02,1427.55 1698.05,1427.6 1699.09,1427.64 1700.12,1427.68 1701.16,1427.73 1702.2,1427.77 1703.23,1427.82 1704.27,1427.86 1705.3,1427.91 1706.34,1427.95 1707.38,1428 1708.41,1428.04 1709.45,1428.08 1710.48,1428.13 1711.52,1428.17 1712.56,1428.22 1713.59,1428.26 1714.63,1428.3 1715.66,1428.35 1716.7,1428.39 1717.73,1428.44 1718.77,1428.48 1719.81,1428.52 1720.84,1428.57 1721.88,1428.61 1722.91,1428.65 1723.95,1428.7 1724.99,1428.74 1726.02,1428.78 1727.06,1428.83 1728.09,1428.87 1729.13,1428.91 1730.17,1428.95 1731.2,1429 1732.24,1429.04 1733.27,1429.08 1734.31,1429.13 1735.35,1429.17 1736.38,1429.21 1737.42,1429.25 1738.45,1429.3 1739.49,1429.34 1740.53,1429.38 1741.56,1429.42 1742.6,1429.47 1743.63,1429.51 1744.67,1429.55 1745.7,1429.59 1746.74,1429.63 1747.78,1429.68 1748.81,1429.72 1749.85,1429.76 1750.88,1429.8 1751.92,1429.84 1752.96,1429.88 1753.99,1429.93 1755.03,1429.97 1756.06,1430.01 1757.1,1430.05 1758.14,1430.09 1759.17,1430.13 1760.21,1430.17 1761.24,1430.21 1762.28,1430.26 1763.32,1430.3 1764.35,1430.34 1765.39,1430.38 1766.42,1430.42 1767.46,1430.46 1768.5,1430.5 1769.53,1430.54 1770.57,1430.58 1771.6,1430.62 1772.64,1430.66 1773.67,1430.7 1774.71,1430.74 1775.75,1430.79 1776.78,1430.83 1777.82,1430.87 1778.85,1430.91 1779.89,1430.95 1780.93,1430.99 1781.96,1431.03 1783,1431.07 1784.03,1431.11 1785.07,1431.15 1786.11,1431.19 1787.14,1431.23 1788.18,1431.27 1789.21,1431.31 1790.25,1431.34 1791.29,1431.38 1792.32,1431.42 1793.36,1431.46 1794.39,1431.5 1795.43,1431.54 1796.47,1431.58 1797.5,1431.62 1798.54,1431.66 1799.57,1431.7 1800.61,1431.74 1801.64,1431.78 1802.68,1431.82 1803.72,1431.85 1804.75,1431.89 1805.79,1431.93 1806.82,1431.97 1807.86,1432.01 1808.9,1432.05 1809.93,1432.09 1810.97,1432.13 1812,1432.16 1813.04,1432.2 1814.08,1432.24 1815.11,1432.28 1816.15,1432.32 1817.18,1432.36 1818.22,1432.39 1819.26,1432.43 1820.29,1432.47 1821.33,1432.51 1822.36,1432.55 1823.4,1432.58 1824.43,1432.62 1825.47,1432.66 1826.51,1432.7 1827.54,1432.74 1828.58,1432.77 1829.61,1432.81 1830.65,1432.85 1831.69,1432.89 1832.72,1432.92 1833.76,1432.96 1834.79,1433 1835.83,1433.04 1836.87,1433.07 1837.9,1433.11 1838.94,1433.15 1839.97,1433.18 1841.01,1433.22 1842.05,1433.26 1843.08,1433.3 1844.12,1433.33 1845.15,1433.37 1846.19,1433.41 1847.23,1433.44 1848.26,1433.48 1849.3,1433.52 1850.33,1433.55 1851.37,1433.59 1852.4,1433.63 1853.44,1433.66 1854.48,1433.7 1855.51,1433.74 1856.55,1433.77 1857.58,1433.81 1858.62,1433.84 1859.66,1433.88 1860.69,1433.92 1861.73,1433.95 1862.76,1433.99 1863.8,1434.03 1864.84,1434.06 1865.87,1434.1 1866.91,1434.13 1867.94,1434.17 1868.98,1434.2 1870.02,1434.24 1871.05,1434.28 1872.09,1434.31 1873.12,1434.35 1874.16,1434.38 1875.2,1434.42 1876.23,1434.45 1877.27,1434.49 1878.3,1434.52 1879.34,1434.56 1880.37,1434.6 1881.41,1434.63 1882.45,1434.67 1883.48,1434.7 1884.52,1434.74 1885.55,1434.77 1886.59,1434.81 1887.63,1434.84 1888.66,1434.88 1889.7,1434.91 1890.73,1434.95 1891.77,1434.98 1892.81,1435.02 1893.84,1435.05 1894.88,1435.08 1895.91,1435.12 1896.95,1435.15 1897.99,1435.19 1899.02,1435.22 1900.06,1435.26 1901.09,1435.29 1902.13,1435.33 1903.17,1435.36 1904.2,1435.39 1905.24,1435.43 1906.27,1435.46 1907.31,1435.5 1908.34,1435.53 1909.38,1435.57 1910.42,1435.6 1911.45,1435.63 1912.49,1435.67 1913.52,1435.7 1914.56,1435.74 1915.6,1435.77 1916.63,1435.8 1917.67,1435.84 1918.7,1435.87 1919.74,1435.9 1920.78,1435.94 1921.81,1435.97 1922.85,1436 1923.88,1436.04 1924.92,1436.07 1925.96,1436.1 1926.99,1436.14 1928.03,1436.17 1929.06,1436.2 1930.1,1436.24 1931.14,1436.27 1932.17,1436.3 1933.21,1436.34 1934.24,1436.37 1935.28,1436.4 1936.31,1436.44 1937.35,1436.47 1938.39,1436.5 1939.42,1436.53 1940.46,1436.57 1941.49,1436.6 1942.53,1436.63 1943.57,1436.67 1944.6,1436.7 1945.64,1436.73 1946.67,1436.76 1947.71,1436.8 1948.75,1436.83 1949.78,1436.86 1950.82,1436.89 1951.85,1436.93 1952.89,1436.96 1953.93,1436.99 1954.96,1437.02 1956,1437.05 1957.03,1437.09 1958.07,1437.12 1959.11,1437.15 1960.14,1437.18 1961.18,1437.21 1962.21,1437.25 1963.25,1437.28 1964.28,1437.31 1965.32,1437.34 1966.36,1437.37 1967.39,1437.41 1968.43,1437.44 1969.46,1437.47 1970.5,1437.5 1971.54,1437.53 1972.57,1437.56 1973.61,1437.6 1974.64,1437.63 1975.68,1437.66 1976.72,1437.69 1977.75,1437.72 1978.79,1437.75 1979.82,1437.78 1980.86,1437.82 1981.9,1437.85 1982.93,1437.88 1983.97,1437.91 1985,1437.94 1986.04,1437.97 1987.07,1438 1988.11,1438.03 1989.15,1438.06 1990.18,1438.09 1991.22,1438.13 1992.25,1438.16 1993.29,1438.19 1994.33,1438.22 1995.36,1438.25 1996.4,1438.28 1997.43,1438.31 1998.47,1438.34 1999.51,1438.37 2000.54,1438.4 2001.58,1438.43 2002.61,1438.46 2003.65,1438.49 2004.69,1438.52 2005.72,1438.55 2006.76,1438.58 2007.79,1438.61 2008.83,1438.65 2009.87,1438.68 2010.9,1438.71 2011.94,1438.74 2012.97,1438.77 2014.01,1438.8 2015.04,1438.83 2016.08,1438.86 2017.12,1438.89 2018.15,1438.92 2019.19,1438.95 2020.22,1438.98 2021.26,1439.01 2022.3,1439.04 2023.33,1439.06 2024.37,1439.09 2025.4,1439.12 2026.44,1439.15 2027.48,1439.18 2028.51,1439.21 2029.55,1439.24 2030.58,1439.27 2031.62,1439.3 2032.66,1439.33 2033.69,1439.36 2034.73,1439.39 2035.76,1439.42 2036.8,1439.45 2037.84,1439.48 2038.87,1439.51 2039.91,1439.54 2040.94,1439.57 2041.98,1439.59 2043.01,1439.62 2044.05,1439.65 2045.09,1439.68 2046.12,1439.71 2047.16,1439.74 2048.19,1439.77 2049.23,1439.8 2050.27,1439.83 2051.3,1439.86 2052.34,1439.88 2053.37,1439.91 2054.41,1439.94 2055.45,1439.97 2056.48,1440 2057.52,1440.03 2058.55,1440.06 2059.59,1440.08 2060.63,1440.11 2061.66,1440.14 2062.7,1440.17 2063.73,1440.2 2064.77,1440.23 2065.81,1440.26 2066.84,1440.28 2067.88,1440.31 2068.91,1440.34 2069.95,1440.37 2070.98,1440.4 2072.02,1440.42 2073.06,1440.45 2074.09,1440.48 2075.13,1440.51 2076.16,1440.54 2077.2,1440.56 2078.24,1440.59 2079.27,1440.62 2080.31,1440.65 2081.34,1440.68 2082.38,1440.7 2083.42,1440.73 2084.45,1440.76 2085.49,1440.79 2086.52,1440.82 2087.56,1440.84 2088.6,1440.87 2089.63,1440.9 2090.67,1440.93 2091.7,1440.95 2092.74,1440.98 2093.78,1441.01 2094.81,1441.04 2095.85,1441.06 2096.88,1441.09 2097.92,1441.12 2098.95,1441.15 2099.99,1441.17 2101.03,1441.2 2102.06,1441.23 2103.1,1441.25 2104.13,1441.28 2105.17,1441.31 2106.21,1441.34 2107.24,1441.36 2108.28,1441.39 2109.31,1441.42 2110.35,1441.44 2111.39,1441.47 2112.42,1441.5 2113.46,1441.52 2114.49,1441.55 2115.53,1441.58 2116.57,1441.61 2117.6,1441.63 2118.64,1441.66 2119.67,1441.69 2120.71,1441.71 2121.74,1441.74 2122.78,1441.77 2123.82,1441.79 2124.85,1441.82 2125.89,1441.85 2126.92,1441.87 2127.96,1441.9 2129,1441.92 2130.03,1441.95 2131.07,1441.98 2132.1,1442 2133.14,1442.03 2134.18,1442.06 2135.21,1442.08 2136.25,1442.11 2137.28,1442.14 2138.32,1442.16 2139.36,1442.19 2140.39,1442.21 2141.43,1442.24 2142.46,1442.27 2143.5,1442.29 2144.54,1442.32 2145.57,1442.34 2146.61,1442.37 2147.64,1442.4 2148.68,1442.42 2149.71,1442.45 2150.75,1442.47 2151.79,1442.5 2152.82,1442.52 2153.86,1442.55 2154.89,1442.58 2155.93,1442.6 2156.97,1442.63 2158,1442.65 2159.04,1442.68 2160.07,1442.7 2161.11,1442.73 2162.15,1442.76 2163.18,1442.78 2164.22,1442.81 2165.25,1442.83 2166.29,1442.86 2167.33,1442.88 2168.36,1442.91 2169.4,1442.93 2170.43,1442.96 2171.47,1442.98 2172.51,1443.01 2173.54,1443.03 2174.58,1443.06 2175.61,1443.08 2176.65,1443.11 2177.68,1443.14 2178.72,1443.16 2179.76,1443.19 2180.79,1443.21 2181.83,1443.24 2182.86,1443.26 2183.9,1443.29 2184.94,1443.31 2185.97,1443.33 2187.01,1443.36 2188.04,1443.38 2189.08,1443.41 2190.12,1443.43 2191.15,1443.46 2192.19,1443.48 2193.22,1443.51 2194.26,1443.53 2195.3,1443.56 2196.33,1443.58 2197.37,1443.61 2198.4,1443.63 2199.44,1443.66 2200.48,1443.68 2201.51,1443.7 2202.55,1443.73 2203.58,1443.75 2204.62,1443.78 2205.65,1443.8 2206.69,1443.83 2207.73,1443.85 2208.76,1443.88 2209.8,1443.9 2210.83,1443.92 2211.87,1443.95 2212.91,1443.97 2213.94,1444 2214.98,1444.02 2216.01,1444.04 2217.05,1444.07 2218.09,1444.09 2219.12,1444.12 2220.16,1444.14 2221.19,1444.17 2222.23,1444.19 2223.27,1444.21 2224.3,1444.24 2225.34,1444.26 2226.37,1444.28 2227.41,1444.31 2228.45,1444.33 2229.48,1444.36 2230.52,1444.38 2231.55,1444.4 2232.59,1444.43 2233.62,1444.45 2234.66,1444.47 2235.7,1444.5 2236.73,1444.52 2237.77,1444.55 2238.8,1444.57 2239.84,1444.59 2240.88,1444.62 2241.91,1444.64 2242.95,1444.66 2243.98,1444.69 2245.02,1444.71 2246.06,1444.73 2247.09,1444.76 2248.13,1444.78 2249.16,1444.8 2250.2,1444.83 2251.24,1444.85 2252.27,1444.87 2253.31,1444.9 2254.34,1444.92 2255.38,1444.94 2256.42,1444.97 2257.45,1444.99 2258.49,1445.01 2259.52,1445.03 2260.56,1445.06 2261.59,1445.08 2262.63,1445.1 2263.67,1445.13 2264.7,1445.15 2265.74,1445.17 2266.77,1445.2 2267.81,1445.22 2268.85,1445.24 2269.88,1445.26 2270.92,1445.29 2271.95,1445.31 2272.99,1445.33 2274.03,1445.36 2275.06,1445.38 2276.1,1445.4 2277.13,1445.42 2278.17,1445.45 2279.21,1445.47 2280.24,1445.49 2281.28,1445.51 2282.31,1445.54 2283.35,1445.56 2284.38,1445.58 2285.42,1445.6 2286.46,1445.63 2287.49,1445.65 2288.53,1445.67 2289.56,1445.69 2290.6,1445.72 "/>
<path clip-path="url(#clip840)" d="M2007.5 198.898 L2279.55 198.898 L2279.55 95.2176 L2007.5 95.2176  Z" fill="#ffffff" fill-rule="evenodd" fill-opacity="1"/>
<polyline clip-path="url(#clip840)" style="stroke:#000000; stroke-linecap:round; stroke-linejoin:round; stroke-width:4; stroke-opacity:1; fill:none" points="2007.5,198.898 2279.55,198.898 2279.55,95.2176 2007.5,95.2176 2007.5,198.898 "/>
<polyline clip-path="url(#clip840)" style="stroke:#009af9; stroke-linecap:round; stroke-linejoin:round; stroke-width:4; stroke-opacity:1; fill:none" points="2031.91,147.058 2178.32,147.058 "/>
<path clip-path="url(#clip840)" d="M2216.56 166.745 Q2214.76 171.375 2213.04 172.787 Q2211.33 174.199 2208.46 174.199 L2205.06 174.199 L2205.06 170.634 L2207.56 170.634 Q2209.32 170.634 2210.29 169.8 Q2211.26 168.967 2212.44 165.865 L2213.2 163.921 L2202.72 138.412 L2207.23 138.412 L2215.33 158.689 L2223.44 138.412 L2227.95 138.412 L2216.56 166.745 Z" fill="#000000" fill-rule="nonzero" fill-opacity="1" /><path clip-path="url(#clip840)" d="M2235.24 160.402 L2242.88 160.402 L2242.88 134.037 L2234.57 135.703 L2234.57 131.444 L2242.83 129.778 L2247.51 129.778 L2247.51 160.402 L2255.15 160.402 L2255.15 164.338 L2235.24 164.338 L2235.24 160.402 Z" fill="#000000" fill-rule="nonzero" fill-opacity="1" /></svg>
