<?xml version="1.0" encoding="utf-8"?>
<svg xmlns="http://www.w3.org/2000/svg" xmlns:xlink="http://www.w3.org/1999/xlink" width="600" height="400" viewBox="0 0 2400 1600">
<defs>
  <clipPath id="clip660">
    <rect x="0" y="0" width="2400" height="1600"/>
  </clipPath>
</defs>
<path clip-path="url(#clip660)" d="M0 1600 L2400 1600 L2400 0 L0 0  Z" fill="#ffffff" fill-rule="evenodd" fill-opacity="1"/>
<defs>
  <clipPath id="clip661">
    <rect x="480" y="0" width="1681" height="1600"/>
  </clipPath>
</defs>
<path clip-path="url(#clip660)" d="M275.136 1486.45 L2352.76 1486.45 L2352.76 47.2441 L275.136 47.2441  Z" fill="#ffffff" fill-rule="evenodd" fill-opacity="1"/>
<defs>
  <clipPath id="clip662">
    <rect x="275" y="47" width="2079" height="1440"/>
  </clipPath>
</defs>
<polyline clip-path="url(#clip662)" style="stroke:#000000; stroke-linecap:round; stroke-linejoin:round; stroke-width:2; stroke-opacity:0.1; fill:none" points="333.937,1486.45 333.937,47.2441 "/>
<polyline clip-path="url(#clip662)" style="stroke:#000000; stroke-linecap:round; stroke-linejoin:round; stroke-width:2; stroke-opacity:0.1; fill:none" points="823.942,1486.45 823.942,47.2441 "/>
<polyline clip-path="url(#clip662)" style="stroke:#000000; stroke-linecap:round; stroke-linejoin:round; stroke-width:2; stroke-opacity:0.1; fill:none" points="1313.95,1486.45 1313.95,47.2441 "/>
<polyline clip-path="url(#clip662)" style="stroke:#000000; stroke-linecap:round; stroke-linejoin:round; stroke-width:2; stroke-opacity:0.1; fill:none" points="1803.95,1486.45 1803.95,47.2441 "/>
<polyline clip-path="url(#clip662)" style="stroke:#000000; stroke-linecap:round; stroke-linejoin:round; stroke-width:2; stroke-opacity:0.1; fill:none" points="2293.96,1486.45 2293.96,47.2441 "/>
<polyline clip-path="url(#clip660)" style="stroke:#000000; stroke-linecap:round; stroke-linejoin:round; stroke-width:4; stroke-opacity:1; fill:none" points="275.136,1486.45 2352.76,1486.45 "/>
<polyline clip-path="url(#clip660)" style="stroke:#000000; stroke-linecap:round; stroke-linejoin:round; stroke-width:4; stroke-opacity:1; fill:none" points="333.937,1486.45 333.937,1467.55 "/>
<polyline clip-path="url(#clip660)" style="stroke:#000000; stroke-linecap:round; stroke-linejoin:round; stroke-width:4; stroke-opacity:1; fill:none" points="823.942,1486.45 823.942,1467.55 "/>
<polyline clip-path="url(#clip660)" style="stroke:#000000; stroke-linecap:round; stroke-linejoin:round; stroke-width:4; stroke-opacity:1; fill:none" points="1313.95,1486.45 1313.95,1467.55 "/>
<polyline clip-path="url(#clip660)" style="stroke:#000000; stroke-linecap:round; stroke-linejoin:round; stroke-width:4; stroke-opacity:1; fill:none" points="1803.95,1486.45 1803.95,1467.55 "/>
<polyline clip-path="url(#clip660)" style="stroke:#000000; stroke-linecap:round; stroke-linejoin:round; stroke-width:4; stroke-opacity:1; fill:none" points="2293.96,1486.45 2293.96,1467.55 "/>
<path clip-path="url(#clip660)" d="M333.937 1517.37 Q330.326 1517.37 328.497 1520.93 Q326.692 1524.47 326.692 1531.6 Q326.692 1538.71 328.497 1542.27 Q330.326 1545.82 333.937 1545.82 Q337.571 1545.82 339.377 1542.27 Q341.205 1538.71 341.205 1531.6 Q341.205 1524.47 339.377 1520.93 Q337.571 1517.37 333.937 1517.37 M333.937 1513.66 Q339.747 1513.66 342.803 1518.27 Q345.881 1522.85 345.881 1531.6 Q345.881 1540.33 342.803 1544.94 Q339.747 1549.52 333.937 1549.52 Q328.127 1549.52 325.048 1544.94 Q321.993 1540.33 321.993 1531.6 Q321.993 1522.85 325.048 1518.27 Q328.127 1513.66 333.937 1513.66 Z" fill="#000000" fill-rule="nonzero" fill-opacity="1" /><path clip-path="url(#clip660)" d="M783.56 1514.29 L801.916 1514.29 L801.916 1518.22 L787.842 1518.22 L787.842 1526.7 Q788.861 1526.35 789.879 1526.19 Q790.898 1526 791.916 1526 Q797.703 1526 801.083 1529.17 Q804.462 1532.34 804.462 1537.76 Q804.462 1543.34 800.99 1546.44 Q797.518 1549.52 791.199 1549.52 Q789.023 1549.52 786.754 1549.15 Q784.509 1548.78 782.101 1548.04 L782.101 1543.34 Q784.185 1544.47 786.407 1545.03 Q788.629 1545.58 791.106 1545.58 Q795.111 1545.58 797.449 1543.48 Q799.787 1541.37 799.787 1537.76 Q799.787 1534.15 797.449 1532.04 Q795.111 1529.94 791.106 1529.94 Q789.231 1529.94 787.356 1530.35 Q785.504 1530.77 783.56 1531.65 L783.56 1514.29 Z" fill="#000000" fill-rule="nonzero" fill-opacity="1" /><path clip-path="url(#clip660)" d="M823.675 1517.37 Q820.064 1517.37 818.236 1520.93 Q816.43 1524.47 816.43 1531.6 Q816.43 1538.71 818.236 1542.27 Q820.064 1545.82 823.675 1545.82 Q827.31 1545.82 829.115 1542.27 Q830.944 1538.71 830.944 1531.6 Q830.944 1524.47 829.115 1520.93 Q827.31 1517.37 823.675 1517.37 M823.675 1513.66 Q829.485 1513.66 832.541 1518.27 Q835.62 1522.85 835.62 1531.6 Q835.62 1540.33 832.541 1544.94 Q829.485 1549.52 823.675 1549.52 Q817.865 1549.52 814.786 1544.94 Q811.731 1540.33 811.731 1531.6 Q811.731 1522.85 814.786 1518.27 Q817.865 1513.66 823.675 1513.66 Z" fill="#000000" fill-rule="nonzero" fill-opacity="1" /><path clip-path="url(#clip660)" d="M853.837 1517.37 Q850.226 1517.37 848.397 1520.93 Q846.592 1524.47 846.592 1531.6 Q846.592 1538.71 848.397 1542.27 Q850.226 1545.82 853.837 1545.82 Q857.471 1545.82 859.277 1542.27 Q861.106 1538.71 861.106 1531.6 Q861.106 1524.47 859.277 1520.93 Q857.471 1517.37 853.837 1517.37 M853.837 1513.66 Q859.647 1513.66 862.703 1518.27 Q865.782 1522.85 865.782 1531.6 Q865.782 1540.33 862.703 1544.94 Q859.647 1549.52 853.837 1549.52 Q848.027 1549.52 844.948 1544.94 Q841.893 1540.33 841.893 1531.6 Q841.893 1522.85 844.948 1518.27 Q848.027 1513.66 853.837 1513.66 Z" fill="#000000" fill-rule="nonzero" fill-opacity="1" /><path clip-path="url(#clip660)" d="M1258.47 1544.91 L1266.11 1544.91 L1266.11 1518.55 L1257.8 1520.21 L1257.8 1515.95 L1266.06 1514.29 L1270.74 1514.29 L1270.74 1544.91 L1278.38 1544.91 L1278.38 1548.85 L1258.47 1548.85 L1258.47 1544.91 Z" fill="#000000" fill-rule="nonzero" fill-opacity="1" /><path clip-path="url(#clip660)" d="M1297.82 1517.37 Q1294.21 1517.37 1292.38 1520.93 Q1290.58 1524.47 1290.58 1531.6 Q1290.58 1538.71 1292.38 1542.27 Q1294.21 1545.82 1297.82 1545.82 Q1301.46 1545.82 1303.26 1542.27 Q1305.09 1538.71 1305.09 1531.6 Q1305.09 1524.47 1303.26 1520.93 Q1301.46 1517.37 1297.82 1517.37 M1297.82 1513.66 Q1303.63 1513.66 1306.69 1518.27 Q1309.77 1522.85 1309.77 1531.6 Q1309.77 1540.33 1306.69 1544.94 Q1303.63 1549.52 1297.82 1549.52 Q1292.01 1549.52 1288.93 1544.94 Q1285.88 1540.33 1285.88 1531.6 Q1285.88 1522.85 1288.93 1518.27 Q1292.01 1513.66 1297.82 1513.66 Z" fill="#000000" fill-rule="nonzero" fill-opacity="1" /><path clip-path="url(#clip660)" d="M1327.99 1517.37 Q1324.37 1517.37 1322.55 1520.93 Q1320.74 1524.47 1320.74 1531.6 Q1320.74 1538.71 1322.55 1542.27 Q1324.37 1545.82 1327.99 1545.82 Q1331.62 1545.82 1333.43 1542.27 Q1335.25 1538.71 1335.25 1531.6 Q1335.25 1524.47 1333.43 1520.93 Q1331.62 1517.37 1327.99 1517.37 M1327.99 1513.66 Q1333.8 1513.66 1336.85 1518.27 Q1339.93 1522.85 1339.93 1531.6 Q1339.93 1540.33 1336.85 1544.94 Q1333.8 1549.52 1327.99 1549.52 Q1322.18 1549.52 1319.1 1544.94 Q1316.04 1540.33 1316.04 1531.6 Q1316.04 1522.85 1319.1 1518.27 Q1322.18 1513.66 1327.99 1513.66 Z" fill="#000000" fill-rule="nonzero" fill-opacity="1" /><path clip-path="url(#clip660)" d="M1358.15 1517.37 Q1354.54 1517.37 1352.71 1520.93 Q1350.9 1524.47 1350.9 1531.6 Q1350.9 1538.71 1352.71 1542.27 Q1354.54 1545.82 1358.15 1545.82 Q1361.78 1545.82 1363.59 1542.27 Q1365.42 1538.71 1365.42 1531.6 Q1365.42 1524.47 1363.59 1520.93 Q1361.78 1517.37 1358.15 1517.37 M1358.15 1513.66 Q1363.96 1513.66 1367.01 1518.27 Q1370.09 1522.85 1370.09 1531.6 Q1370.09 1540.33 1367.01 1544.94 Q1363.96 1549.52 1358.15 1549.52 Q1352.34 1549.52 1349.26 1544.94 Q1346.2 1540.33 1346.2 1531.6 Q1346.2 1522.85 1349.26 1518.27 Q1352.34 1513.66 1358.15 1513.66 Z" fill="#000000" fill-rule="nonzero" fill-opacity="1" /><path clip-path="url(#clip660)" d="M1748.48 1544.91 L1756.12 1544.91 L1756.12 1518.55 L1747.81 1520.21 L1747.81 1515.95 L1756.07 1514.29 L1760.74 1514.29 L1760.74 1544.91 L1768.38 1544.91 L1768.38 1548.85 L1748.48 1548.85 L1748.48 1544.91 Z" fill="#000000" fill-rule="nonzero" fill-opacity="1" /><path clip-path="url(#clip660)" d="M1777.87 1514.29 L1796.23 1514.29 L1796.23 1518.22 L1782.16 1518.22 L1782.16 1526.7 Q1783.18 1526.35 1784.19 1526.19 Q1785.21 1526 1786.23 1526 Q1792.02 1526 1795.4 1529.17 Q1798.78 1532.34 1798.78 1537.76 Q1798.78 1543.34 1795.3 1546.44 Q1791.83 1549.52 1785.51 1549.52 Q1783.34 1549.52 1781.07 1549.15 Q1778.82 1548.78 1776.42 1548.04 L1776.42 1543.34 Q1778.5 1544.47 1780.72 1545.03 Q1782.94 1545.58 1785.42 1545.58 Q1789.43 1545.58 1791.76 1543.48 Q1794.1 1541.37 1794.1 1537.76 Q1794.1 1534.15 1791.76 1532.04 Q1789.43 1529.94 1785.42 1529.94 Q1783.55 1529.94 1781.67 1530.35 Q1779.82 1530.77 1777.87 1531.65 L1777.87 1514.29 Z" fill="#000000" fill-rule="nonzero" fill-opacity="1" /><path clip-path="url(#clip660)" d="M1817.99 1517.37 Q1814.38 1517.37 1812.55 1520.93 Q1810.74 1524.47 1810.74 1531.6 Q1810.74 1538.71 1812.55 1542.27 Q1814.38 1545.82 1817.99 1545.82 Q1821.62 1545.82 1823.43 1542.27 Q1825.26 1538.71 1825.26 1531.6 Q1825.26 1524.47 1823.43 1520.93 Q1821.62 1517.37 1817.99 1517.37 M1817.99 1513.66 Q1823.8 1513.66 1826.86 1518.27 Q1829.93 1522.85 1829.93 1531.6 Q1829.93 1540.33 1826.86 1544.94 Q1823.8 1549.52 1817.99 1549.52 Q1812.18 1549.52 1809.1 1544.94 Q1806.05 1540.33 1806.05 1531.6 Q1806.05 1522.85 1809.1 1518.27 Q1812.18 1513.66 1817.99 1513.66 Z" fill="#000000" fill-rule="nonzero" fill-opacity="1" /><path clip-path="url(#clip660)" d="M1848.15 1517.37 Q1844.54 1517.37 1842.71 1520.93 Q1840.91 1524.47 1840.91 1531.6 Q1840.91 1538.71 1842.71 1542.27 Q1844.54 1545.82 1848.15 1545.82 Q1851.79 1545.82 1853.59 1542.27 Q1855.42 1538.71 1855.42 1531.6 Q1855.42 1524.47 1853.59 1520.93 Q1851.79 1517.37 1848.15 1517.37 M1848.15 1513.66 Q1853.96 1513.66 1857.02 1518.27 Q1860.1 1522.85 1860.1 1531.6 Q1860.1 1540.33 1857.02 1544.94 Q1853.96 1549.52 1848.15 1549.52 Q1842.34 1549.52 1839.26 1544.94 Q1836.21 1540.33 1836.21 1531.6 Q1836.21 1522.85 1839.26 1518.27 Q1842.34 1513.66 1848.15 1513.66 Z" fill="#000000" fill-rule="nonzero" fill-opacity="1" /><path clip-path="url(#clip660)" d="M2242.57 1544.91 L2258.89 1544.91 L2258.89 1548.85 L2236.94 1548.85 L2236.94 1544.91 Q2239.6 1542.16 2244.19 1537.53 Q2248.79 1532.88 2249.97 1531.53 Q2252.22 1529.01 2253.1 1527.27 Q2254 1525.51 2254 1523.82 Q2254 1521.07 2252.06 1519.33 Q2250.14 1517.6 2247.03 1517.6 Q2244.84 1517.6 2242.38 1518.36 Q2239.95 1519.13 2237.17 1520.68 L2237.17 1515.95 Q2240 1514.82 2242.45 1514.24 Q2244.9 1513.66 2246.94 1513.66 Q2252.31 1513.66 2255.51 1516.35 Q2258.7 1519.03 2258.7 1523.52 Q2258.7 1525.65 2257.89 1527.57 Q2257.1 1529.47 2255 1532.07 Q2254.42 1532.74 2251.32 1535.95 Q2248.21 1539.15 2242.57 1544.91 Z" fill="#000000" fill-rule="nonzero" fill-opacity="1" /><path clip-path="url(#clip660)" d="M2278.7 1517.37 Q2275.09 1517.37 2273.26 1520.93 Q2271.46 1524.47 2271.46 1531.6 Q2271.46 1538.71 2273.26 1542.27 Q2275.09 1545.82 2278.7 1545.82 Q2282.34 1545.82 2284.14 1542.27 Q2285.97 1538.71 2285.97 1531.6 Q2285.97 1524.47 2284.14 1520.93 Q2282.34 1517.37 2278.7 1517.37 M2278.7 1513.66 Q2284.51 1513.66 2287.57 1518.27 Q2290.65 1522.85 2290.65 1531.6 Q2290.65 1540.33 2287.57 1544.94 Q2284.51 1549.52 2278.7 1549.52 Q2272.89 1549.52 2269.81 1544.94 Q2266.76 1540.33 2266.76 1531.6 Q2266.76 1522.85 2269.81 1518.27 Q2272.89 1513.66 2278.7 1513.66 Z" fill="#000000" fill-rule="nonzero" fill-opacity="1" /><path clip-path="url(#clip660)" d="M2308.86 1517.37 Q2305.25 1517.37 2303.42 1520.93 Q2301.62 1524.47 2301.62 1531.6 Q2301.62 1538.71 2303.42 1542.27 Q2305.25 1545.82 2308.86 1545.82 Q2312.5 1545.82 2314.3 1542.27 Q2316.13 1538.71 2316.13 1531.6 Q2316.13 1524.47 2314.3 1520.93 Q2312.5 1517.37 2308.86 1517.37 M2308.86 1513.66 Q2314.67 1513.66 2317.73 1518.27 Q2320.81 1522.85 2320.81 1531.6 Q2320.81 1540.33 2317.73 1544.94 Q2314.67 1549.52 2308.86 1549.52 Q2303.05 1549.52 2299.97 1544.94 Q2296.92 1540.33 2296.92 1531.6 Q2296.92 1522.85 2299.97 1518.27 Q2303.05 1513.66 2308.86 1513.66 Z" fill="#000000" fill-rule="nonzero" fill-opacity="1" /><path clip-path="url(#clip660)" d="M2339.02 1517.37 Q2335.41 1517.37 2333.58 1520.93 Q2331.78 1524.47 2331.78 1531.6 Q2331.78 1538.71 2333.58 1542.27 Q2335.41 1545.82 2339.02 1545.82 Q2342.66 1545.82 2344.46 1542.27 Q2346.29 1538.71 2346.29 1531.6 Q2346.29 1524.47 2344.46 1520.93 Q2342.66 1517.37 2339.02 1517.37 M2339.02 1513.66 Q2344.83 1513.66 2347.89 1518.27 Q2350.97 1522.85 2350.97 1531.6 Q2350.97 1540.33 2347.89 1544.94 Q2344.83 1549.52 2339.02 1549.52 Q2333.21 1549.52 2330.14 1544.94 Q2327.08 1540.33 2327.08 1531.6 Q2327.08 1522.85 2330.14 1518.27 Q2333.21 1513.66 2339.02 1513.66 Z" fill="#000000" fill-rule="nonzero" fill-opacity="1" /><polyline clip-path="url(#clip662)" style="stroke:#000000; stroke-linecap:round; stroke-linejoin:round; stroke-width:2; stroke-opacity:0.1; fill:none" points="275.136,1186.14 2352.76,1186.14 "/>
<polyline clip-path="url(#clip662)" style="stroke:#000000; stroke-linecap:round; stroke-linejoin:round; stroke-width:2; stroke-opacity:0.1; fill:none" points="275.136,873.133 2352.76,873.133 "/>
<polyline clip-path="url(#clip662)" style="stroke:#000000; stroke-linecap:round; stroke-linejoin:round; stroke-width:2; stroke-opacity:0.1; fill:none" points="275.136,560.127 2352.76,560.127 "/>
<polyline clip-path="url(#clip662)" style="stroke:#000000; stroke-linecap:round; stroke-linejoin:round; stroke-width:2; stroke-opacity:0.1; fill:none" points="275.136,247.121 2352.76,247.121 "/>
<polyline clip-path="url(#clip660)" style="stroke:#000000; stroke-linecap:round; stroke-linejoin:round; stroke-width:4; stroke-opacity:1; fill:none" points="275.136,1486.45 275.136,47.2441 "/>
<polyline clip-path="url(#clip660)" style="stroke:#000000; stroke-linecap:round; stroke-linejoin:round; stroke-width:4; stroke-opacity:1; fill:none" points="275.136,1186.14 294.034,1186.14 "/>
<polyline clip-path="url(#clip660)" style="stroke:#000000; stroke-linecap:round; stroke-linejoin:round; stroke-width:4; stroke-opacity:1; fill:none" points="275.136,873.133 294.034,873.133 "/>
<polyline clip-path="url(#clip660)" style="stroke:#000000; stroke-linecap:round; stroke-linejoin:round; stroke-width:4; stroke-opacity:1; fill:none" points="275.136,560.127 294.034,560.127 "/>
<polyline clip-path="url(#clip660)" style="stroke:#000000; stroke-linecap:round; stroke-linejoin:round; stroke-width:4; stroke-opacity:1; fill:none" points="275.136,247.121 294.034,247.121 "/>
<path clip-path="url(#clip660)" d="M57.7745 1205.93 L74.0939 1205.93 L74.0939 1209.87 L52.1495 1209.87 L52.1495 1205.93 Q54.8115 1203.18 59.3949 1198.55 Q64.0013 1193.89 65.1819 1192.55 Q67.4272 1190.03 68.3068 1188.29 Q69.2096 1186.53 69.2096 1184.84 Q69.2096 1182.09 67.2652 1180.35 Q65.3439 1178.62 62.2421 1178.62 Q60.043 1178.62 57.5893 1179.38 Q55.1588 1180.14 52.381 1181.69 L52.381 1176.97 Q55.2051 1175.84 57.6588 1175.26 Q60.1124 1174.68 62.1495 1174.68 Q67.5198 1174.68 70.7142 1177.37 Q73.9087 1180.05 73.9087 1184.54 Q73.9087 1186.67 73.0985 1188.59 Q72.3115 1190.49 70.205 1193.08 Q69.6263 1193.75 66.5245 1196.97 Q63.4226 1200.17 57.7745 1205.93 Z" fill="#000000" fill-rule="nonzero" fill-opacity="1" /><path clip-path="url(#clip660)" d="M83.9086 1203.99 L88.7928 1203.99 L88.7928 1209.87 L83.9086 1209.87 L83.9086 1203.99 Z" fill="#000000" fill-rule="nonzero" fill-opacity="1" /><path clip-path="url(#clip660)" d="M108.978 1178.38 Q105.367 1178.38 103.538 1181.95 Q101.733 1185.49 101.733 1192.62 Q101.733 1199.73 103.538 1203.29 Q105.367 1206.83 108.978 1206.83 Q112.612 1206.83 114.418 1203.29 Q116.246 1199.73 116.246 1192.62 Q116.246 1185.49 114.418 1181.95 Q112.612 1178.38 108.978 1178.38 M108.978 1174.68 Q114.788 1174.68 117.844 1179.29 Q120.922 1183.87 120.922 1192.62 Q120.922 1201.35 117.844 1205.95 Q114.788 1210.54 108.978 1210.54 Q103.168 1210.54 100.089 1205.95 Q97.0335 1201.35 97.0335 1192.62 Q97.0335 1183.87 100.089 1179.29 Q103.168 1174.68 108.978 1174.68 Z" fill="#000000" fill-rule="nonzero" fill-opacity="1" /><path clip-path="url(#clip660)" d="M157.311 1184.4 L146.732 1195.03 L157.311 1205.61 L154.556 1208.41 L143.931 1197.78 L133.306 1208.41 L130.575 1205.61 L141.131 1195.03 L130.575 1184.4 L133.306 1181.6 L143.931 1192.23 L154.556 1181.6 L157.311 1184.4 Z" fill="#000000" fill-rule="nonzero" fill-opacity="1" /><path clip-path="url(#clip660)" d="M169.672 1205.93 L177.311 1205.93 L177.311 1179.57 L169.001 1181.23 L169.001 1176.97 L177.265 1175.31 L181.94 1175.31 L181.94 1205.93 L189.579 1205.93 L189.579 1209.87 L169.672 1209.87 L169.672 1205.93 Z" fill="#000000" fill-rule="nonzero" fill-opacity="1" /><path clip-path="url(#clip660)" d="M209.024 1178.38 Q205.413 1178.38 203.584 1181.95 Q201.778 1185.49 201.778 1192.62 Q201.778 1199.73 203.584 1203.29 Q205.413 1206.83 209.024 1206.83 Q212.658 1206.83 214.463 1203.29 Q216.292 1199.73 216.292 1192.62 Q216.292 1185.49 214.463 1181.95 Q212.658 1178.38 209.024 1178.38 M209.024 1174.68 Q214.834 1174.68 217.889 1179.29 Q220.968 1183.87 220.968 1192.62 Q220.968 1201.35 217.889 1205.95 Q214.834 1210.54 209.024 1210.54 Q203.214 1210.54 200.135 1205.95 Q197.079 1201.35 197.079 1192.62 Q197.079 1183.87 200.135 1179.29 Q203.214 1174.68 209.024 1174.68 Z" fill="#000000" fill-rule="nonzero" fill-opacity="1" /><path clip-path="url(#clip660)" d="M222.153 1154.38 L237.068 1154.38 L237.068 1157.57 L225.632 1157.57 L225.632 1164.46 Q226.46 1164.17 227.287 1164.04 Q228.115 1163.89 228.943 1163.89 Q233.645 1163.89 236.39 1166.47 Q239.136 1169.05 239.136 1173.45 Q239.136 1177.98 236.315 1180.5 Q233.494 1183 228.36 1183 Q226.592 1183 224.748 1182.7 Q222.924 1182.4 220.968 1181.8 L220.968 1177.98 Q222.661 1178.9 224.466 1179.35 Q226.272 1179.8 228.284 1179.8 Q231.538 1179.8 233.438 1178.09 Q235.337 1176.38 235.337 1173.45 Q235.337 1170.51 233.438 1168.8 Q231.538 1167.09 228.284 1167.09 Q226.761 1167.09 225.237 1167.43 Q223.733 1167.77 222.153 1168.48 L222.153 1154.38 Z" fill="#000000" fill-rule="nonzero" fill-opacity="1" /><path clip-path="url(#clip660)" d="M66.5939 866.374 L54.7884 884.823 L66.5939 884.823 L66.5939 866.374 M65.367 862.3 L71.2466 862.3 L71.2466 884.823 L76.1772 884.823 L76.1772 888.712 L71.2466 888.712 L71.2466 896.86 L66.5939 896.86 L66.5939 888.712 L50.9921 888.712 L50.9921 884.198 L65.367 862.3 Z" fill="#000000" fill-rule="nonzero" fill-opacity="1" /><path clip-path="url(#clip660)" d="M83.9086 890.981 L88.7928 890.981 L88.7928 896.86 L83.9086 896.86 L83.9086 890.981 Z" fill="#000000" fill-rule="nonzero" fill-opacity="1" /><path clip-path="url(#clip660)" d="M108.978 865.379 Q105.367 865.379 103.538 868.944 Q101.733 872.485 101.733 879.615 Q101.733 886.721 103.538 890.286 Q105.367 893.828 108.978 893.828 Q112.612 893.828 114.418 890.286 Q116.246 886.721 116.246 879.615 Q116.246 872.485 114.418 868.944 Q112.612 865.379 108.978 865.379 M108.978 861.675 Q114.788 861.675 117.844 866.282 Q120.922 870.865 120.922 879.615 Q120.922 888.342 117.844 892.948 Q114.788 897.532 108.978 897.532 Q103.168 897.532 100.089 892.948 Q97.0335 888.342 97.0335 879.615 Q97.0335 870.865 100.089 866.282 Q103.168 861.675 108.978 861.675 Z" fill="#000000" fill-rule="nonzero" fill-opacity="1" /><path clip-path="url(#clip660)" d="M157.311 871.397 L146.732 882.022 L157.311 892.601 L154.556 895.402 L143.931 884.777 L133.306 895.402 L130.575 892.601 L141.131 882.022 L130.575 871.397 L133.306 868.596 L143.931 879.221 L154.556 868.596 L157.311 871.397 Z" fill="#000000" fill-rule="nonzero" fill-opacity="1" /><path clip-path="url(#clip660)" d="M169.672 892.925 L177.311 892.925 L177.311 866.559 L169.001 868.226 L169.001 863.967 L177.265 862.3 L181.94 862.3 L181.94 892.925 L189.579 892.925 L189.579 896.86 L169.672 896.86 L169.672 892.925 Z" fill="#000000" fill-rule="nonzero" fill-opacity="1" /><path clip-path="url(#clip660)" d="M209.024 865.379 Q205.413 865.379 203.584 868.944 Q201.778 872.485 201.778 879.615 Q201.778 886.721 203.584 890.286 Q205.413 893.828 209.024 893.828 Q212.658 893.828 214.463 890.286 Q216.292 886.721 216.292 879.615 Q216.292 872.485 214.463 868.944 Q212.658 865.379 209.024 865.379 M209.024 861.675 Q214.834 861.675 217.889 866.282 Q220.968 870.865 220.968 879.615 Q220.968 888.342 217.889 892.948 Q214.834 897.532 209.024 897.532 Q203.214 897.532 200.135 892.948 Q197.079 888.342 197.079 879.615 Q197.079 870.865 200.135 866.282 Q203.214 861.675 209.024 861.675 Z" fill="#000000" fill-rule="nonzero" fill-opacity="1" /><path clip-path="url(#clip660)" d="M222.153 841.37 L237.068 841.37 L237.068 844.567 L225.632 844.567 L225.632 851.451 Q226.46 851.169 227.287 851.037 Q228.115 850.887 228.943 850.887 Q233.645 850.887 236.39 853.463 Q239.136 856.04 239.136 860.441 Q239.136 864.974 236.315 867.494 Q233.494 869.995 228.36 869.995 Q226.592 869.995 224.748 869.694 Q222.924 869.393 220.968 868.792 L220.968 864.974 Q222.661 865.895 224.466 866.347 Q226.272 866.798 228.284 866.798 Q231.538 866.798 233.438 865.086 Q235.337 863.375 235.337 860.441 Q235.337 857.507 233.438 855.795 Q231.538 854.084 228.284 854.084 Q226.761 854.084 225.237 854.422 Q223.733 854.761 222.153 855.476 L222.153 841.37 Z" fill="#000000" fill-rule="nonzero" fill-opacity="1" /><path clip-path="url(#clip660)" d="M64.3254 564.711 Q61.1773 564.711 59.3254 566.864 Q57.4967 569.017 57.4967 572.767 Q57.4967 576.493 59.3254 578.669 Q61.1773 580.822 64.3254 580.822 Q67.4735 580.822 69.3022 578.669 Q71.1541 576.493 71.1541 572.767 Q71.1541 569.017 69.3022 566.864 Q67.4735 564.711 64.3254 564.711 M73.6077 550.058 L73.6077 554.318 Q71.8485 553.484 70.0429 553.045 Q68.2606 552.605 66.5013 552.605 Q61.8717 552.605 59.418 555.73 Q56.9875 558.855 56.6402 565.174 Q58.006 563.16 60.0662 562.095 Q62.1263 561.007 64.6032 561.007 Q69.8115 561.007 72.8207 564.179 Q75.8531 567.327 75.8531 572.767 Q75.8531 578.091 72.705 581.308 Q69.5568 584.526 64.3254 584.526 Q58.33 584.526 55.1588 579.943 Q51.9875 575.336 51.9875 566.609 Q51.9875 558.415 55.8764 553.554 Q59.7652 548.67 66.3161 548.67 Q68.0754 548.67 69.8578 549.017 Q71.6633 549.364 73.6077 550.058 Z" fill="#000000" fill-rule="nonzero" fill-opacity="1" /><path clip-path="url(#clip660)" d="M83.9086 577.975 L88.7928 577.975 L88.7928 583.855 L83.9086 583.855 L83.9086 577.975 Z" fill="#000000" fill-rule="nonzero" fill-opacity="1" /><path clip-path="url(#clip660)" d="M108.978 552.373 Q105.367 552.373 103.538 555.938 Q101.733 559.48 101.733 566.609 Q101.733 573.716 103.538 577.28 Q105.367 580.822 108.978 580.822 Q112.612 580.822 114.418 577.28 Q116.246 573.716 116.246 566.609 Q116.246 559.48 114.418 555.938 Q112.612 552.373 108.978 552.373 M108.978 548.67 Q114.788 548.67 117.844 553.276 Q120.922 557.859 120.922 566.609 Q120.922 575.336 117.844 579.943 Q114.788 584.526 108.978 584.526 Q103.168 584.526 100.089 579.943 Q97.0335 575.336 97.0335 566.609 Q97.0335 557.859 100.089 553.276 Q103.168 548.67 108.978 548.67 Z" fill="#000000" fill-rule="nonzero" fill-opacity="1" /><path clip-path="url(#clip660)" d="M157.311 558.392 L146.732 569.017 L157.311 579.595 L154.556 582.396 L143.931 571.771 L133.306 582.396 L130.575 579.595 L141.131 569.017 L130.575 558.392 L133.306 555.591 L143.931 566.216 L154.556 555.591 L157.311 558.392 Z" fill="#000000" fill-rule="nonzero" fill-opacity="1" /><path clip-path="url(#clip660)" d="M169.672 579.919 L177.311 579.919 L177.311 553.554 L169.001 555.22 L169.001 550.961 L177.265 549.295 L181.94 549.295 L181.94 579.919 L189.579 579.919 L189.579 583.855 L169.672 583.855 L169.672 579.919 Z" fill="#000000" fill-rule="nonzero" fill-opacity="1" /><path clip-path="url(#clip660)" d="M209.024 552.373 Q205.413 552.373 203.584 555.938 Q201.778 559.48 201.778 566.609 Q201.778 573.716 203.584 577.28 Q205.413 580.822 209.024 580.822 Q212.658 580.822 214.463 577.28 Q216.292 573.716 216.292 566.609 Q216.292 559.48 214.463 555.938 Q212.658 552.373 209.024 552.373 M209.024 548.67 Q214.834 548.67 217.889 553.276 Q220.968 557.859 220.968 566.609 Q220.968 575.336 217.889 579.943 Q214.834 584.526 209.024 584.526 Q203.214 584.526 200.135 579.943 Q197.079 575.336 197.079 566.609 Q197.079 557.859 200.135 553.276 Q203.214 548.67 209.024 548.67 Z" fill="#000000" fill-rule="nonzero" fill-opacity="1" /><path clip-path="url(#clip660)" d="M222.153 528.364 L237.068 528.364 L237.068 531.561 L225.632 531.561 L225.632 538.445 Q226.46 538.163 227.287 538.031 Q228.115 537.881 228.943 537.881 Q233.645 537.881 236.39 540.458 Q239.136 543.034 239.136 547.435 Q239.136 551.968 236.315 554.488 Q233.494 556.99 228.36 556.99 Q226.592 556.99 224.748 556.689 Q222.924 556.388 220.968 555.786 L220.968 551.968 Q222.661 552.889 224.466 553.341 Q226.272 553.792 228.284 553.792 Q231.538 553.792 233.438 552.081 Q235.337 550.369 235.337 547.435 Q235.337 544.501 233.438 542.79 Q231.538 541.078 228.284 541.078 Q226.761 541.078 225.237 541.417 Q223.733 541.755 222.153 542.47 L222.153 528.364 Z" fill="#000000" fill-rule="nonzero" fill-opacity="1" /><path clip-path="url(#clip660)" d="M63.7467 254.437 Q60.4134 254.437 58.4921 256.219 Q56.5939 258.002 56.5939 261.127 Q56.5939 264.252 58.4921 266.034 Q60.4134 267.816 63.7467 267.816 Q67.08 267.816 69.0013 266.034 Q70.9226 264.228 70.9226 261.127 Q70.9226 258.002 69.0013 256.219 Q67.1032 254.437 63.7467 254.437 M59.0708 252.446 Q56.0615 251.705 54.3717 249.645 Q52.7051 247.585 52.7051 244.622 Q52.7051 240.479 55.6449 238.071 Q58.6078 235.664 63.7467 235.664 Q68.9087 235.664 71.8485 238.071 Q74.7883 240.479 74.7883 244.622 Q74.7883 247.585 73.0985 249.645 Q71.4318 251.705 68.4457 252.446 Q71.8253 253.233 73.7003 255.525 Q75.5985 257.816 75.5985 261.127 Q75.5985 266.15 72.5198 268.835 Q69.4642 271.52 63.7467 271.52 Q58.0291 271.52 54.9504 268.835 Q51.8949 266.15 51.8949 261.127 Q51.8949 257.816 53.793 255.525 Q55.6912 253.233 59.0708 252.446 M57.3578 245.062 Q57.3578 247.747 59.0245 249.252 Q60.7143 250.756 63.7467 250.756 Q66.7559 250.756 68.4457 249.252 Q70.1587 247.747 70.1587 245.062 Q70.1587 242.377 68.4457 240.872 Q66.7559 239.368 63.7467 239.368 Q60.7143 239.368 59.0245 240.872 Q57.3578 242.377 57.3578 245.062 Z" fill="#000000" fill-rule="nonzero" fill-opacity="1" /><path clip-path="url(#clip660)" d="M83.9086 264.969 L88.7928 264.969 L88.7928 270.849 L83.9086 270.849 L83.9086 264.969 Z" fill="#000000" fill-rule="nonzero" fill-opacity="1" /><path clip-path="url(#clip660)" d="M108.978 239.368 Q105.367 239.368 103.538 242.932 Q101.733 246.474 101.733 253.604 Q101.733 260.71 103.538 264.275 Q105.367 267.816 108.978 267.816 Q112.612 267.816 114.418 264.275 Q116.246 260.71 116.246 253.604 Q116.246 246.474 114.418 242.932 Q112.612 239.368 108.978 239.368 M108.978 235.664 Q114.788 235.664 117.844 240.27 Q120.922 244.854 120.922 253.604 Q120.922 262.33 117.844 266.937 Q114.788 271.52 108.978 271.52 Q103.168 271.52 100.089 266.937 Q97.0335 262.33 97.0335 253.604 Q97.0335 244.854 100.089 240.27 Q103.168 235.664 108.978 235.664 Z" fill="#000000" fill-rule="nonzero" fill-opacity="1" /><path clip-path="url(#clip660)" d="M157.311 245.386 L146.732 256.011 L157.311 266.59 L154.556 269.39 L143.931 258.766 L133.306 269.39 L130.575 266.59 L141.131 256.011 L130.575 245.386 L133.306 242.585 L143.931 253.21 L154.556 242.585 L157.311 245.386 Z" fill="#000000" fill-rule="nonzero" fill-opacity="1" /><path clip-path="url(#clip660)" d="M169.672 266.914 L177.311 266.914 L177.311 240.548 L169.001 242.215 L169.001 237.955 L177.265 236.289 L181.94 236.289 L181.94 266.914 L189.579 266.914 L189.579 270.849 L169.672 270.849 L169.672 266.914 Z" fill="#000000" fill-rule="nonzero" fill-opacity="1" /><path clip-path="url(#clip660)" d="M209.024 239.368 Q205.413 239.368 203.584 242.932 Q201.778 246.474 201.778 253.604 Q201.778 260.71 203.584 264.275 Q205.413 267.816 209.024 267.816 Q212.658 267.816 214.463 264.275 Q216.292 260.71 216.292 253.604 Q216.292 246.474 214.463 242.932 Q212.658 239.368 209.024 239.368 M209.024 235.664 Q214.834 235.664 217.889 240.27 Q220.968 244.854 220.968 253.604 Q220.968 262.33 217.889 266.937 Q214.834 271.52 209.024 271.52 Q203.214 271.52 200.135 266.937 Q197.079 262.33 197.079 253.604 Q197.079 244.854 200.135 240.27 Q203.214 235.664 209.024 235.664 Z" fill="#000000" fill-rule="nonzero" fill-opacity="1" /><path clip-path="url(#clip660)" d="M222.153 215.358 L237.068 215.358 L237.068 218.556 L225.632 218.556 L225.632 225.439 Q226.46 225.157 227.287 225.026 Q228.115 224.875 228.943 224.875 Q233.645 224.875 236.39 227.452 Q239.136 230.028 239.136 234.43 Q239.136 238.962 236.315 241.482 Q233.494 243.984 228.36 243.984 Q226.592 243.984 224.748 243.683 Q222.924 243.382 220.968 242.78 L220.968 238.962 Q222.661 239.884 224.466 240.335 Q226.272 240.787 228.284 240.787 Q231.538 240.787 233.438 239.075 Q235.337 237.364 235.337 234.43 Q235.337 231.495 233.438 229.784 Q231.538 228.072 228.284 228.072 Q226.761 228.072 225.237 228.411 Q223.733 228.75 222.153 229.464 L222.153 215.358 Z" fill="#000000" fill-rule="nonzero" fill-opacity="1" /><polyline clip-path="url(#clip662)" style="stroke:#009af9; stroke-linecap:round; stroke-linejoin:round; stroke-width:4; stroke-opacity:1; fill:none" points="333.937,1445.72 334.917,1443.21 335.897,1109.14 336.877,87.9763 337.857,1093.05 "/>
<path clip-path="url(#clip660)" d="M344.39 198.898 L604.583 198.898 L604.583 95.2176 L344.39 95.2176  Z" fill="#ffffff" fill-rule="evenodd" fill-opacity="1"/>
<polyline clip-path="url(#clip660)" style="stroke:#000000; stroke-linecap:round; stroke-linejoin:round; stroke-width:4; stroke-opacity:1; fill:none" points="344.39,198.898 604.583,198.898 604.583,95.2176 344.39,95.2176 344.39,198.898 "/>
<polyline clip-path="url(#clip660)" style="stroke:#009af9; stroke-linecap:round; stroke-linejoin:round; stroke-width:4; stroke-opacity:1; fill:none" points="367.475,147.058 505.983,147.058 "/>
<path clip-path="url(#clip660)" d="M542.91 166.745 Q541.105 171.375 539.392 172.787 Q537.679 174.199 534.808 174.199 L531.406 174.199 L531.406 170.634 L533.906 170.634 Q535.665 170.634 536.637 169.8 Q537.609 168.967 538.79 165.865 L539.554 163.921 L529.068 138.412 L533.582 138.412 L541.683 158.689 L549.785 138.412 L554.299 138.412 L542.91 166.745 Z" fill="#000000" fill-rule="nonzero" fill-opacity="1" /><path clip-path="url(#clip660)" d="M561.591 160.402 L569.229 160.402 L569.229 134.037 L560.919 135.703 L560.919 131.444 L569.183 129.778 L573.859 129.778 L573.859 160.402 L581.498 160.402 L581.498 164.338 L561.591 164.338 L561.591 160.402 Z" fill="#000000" fill-rule="nonzero" fill-opacity="1" /></svg>
