<?xml version="1.0" encoding="utf-8"?>
<svg xmlns="http://www.w3.org/2000/svg" xmlns:xlink="http://www.w3.org/1999/xlink" width="600" height="400" viewBox="0 0 2400 1600">
<defs>
  <clipPath id="clip560">
    <rect x="0" y="0" width="2400" height="1600"/>
  </clipPath>
</defs>
<path clip-path="url(#clip560)" d="M0 1600 L2400 1600 L2400 0 L0 0  Z" fill="#ffffff" fill-rule="evenodd" fill-opacity="1"/>
<defs>
  <clipPath id="clip561">
    <rect x="480" y="0" width="1681" height="1600"/>
  </clipPath>
</defs>
<path clip-path="url(#clip560)" d="M229.445 1486.45 L2352.76 1486.45 L2352.76 47.2441 L229.445 47.2441  Z" fill="#ffffff" fill-rule="evenodd" fill-opacity="1"/>
<defs>
  <clipPath id="clip562">
    <rect x="229" y="47" width="2124" height="1440"/>
  </clipPath>
</defs>
<polyline clip-path="url(#clip562)" style="stroke:#000000; stroke-linecap:round; stroke-linejoin:round; stroke-width:2; stroke-opacity:0.1; fill:none" points="289.539,1486.45 289.539,47.2441 "/>
<polyline clip-path="url(#clip562)" style="stroke:#000000; stroke-linecap:round; stroke-linejoin:round; stroke-width:2; stroke-opacity:0.1; fill:none" points="790.32,1486.45 790.32,47.2441 "/>
<polyline clip-path="url(#clip562)" style="stroke:#000000; stroke-linecap:round; stroke-linejoin:round; stroke-width:2; stroke-opacity:0.1; fill:none" points="1291.1,1486.45 1291.1,47.2441 "/>
<polyline clip-path="url(#clip562)" style="stroke:#000000; stroke-linecap:round; stroke-linejoin:round; stroke-width:2; stroke-opacity:0.1; fill:none" points="1791.88,1486.45 1791.88,47.2441 "/>
<polyline clip-path="url(#clip562)" style="stroke:#000000; stroke-linecap:round; stroke-linejoin:round; stroke-width:2; stroke-opacity:0.1; fill:none" points="2292.66,1486.45 2292.66,47.2441 "/>
<polyline clip-path="url(#clip560)" style="stroke:#000000; stroke-linecap:round; stroke-linejoin:round; stroke-width:4; stroke-opacity:1; fill:none" points="229.445,1486.45 2352.76,1486.45 "/>
<polyline clip-path="url(#clip560)" style="stroke:#000000; stroke-linecap:round; stroke-linejoin:round; stroke-width:4; stroke-opacity:1; fill:none" points="289.539,1486.45 289.539,1467.55 "/>
<polyline clip-path="url(#clip560)" style="stroke:#000000; stroke-linecap:round; stroke-linejoin:round; stroke-width:4; stroke-opacity:1; fill:none" points="790.32,1486.45 790.32,1467.55 "/>
<polyline clip-path="url(#clip560)" style="stroke:#000000; stroke-linecap:round; stroke-linejoin:round; stroke-width:4; stroke-opacity:1; fill:none" points="1291.1,1486.45 1291.1,1467.55 "/>
<polyline clip-path="url(#clip560)" style="stroke:#000000; stroke-linecap:round; stroke-linejoin:round; stroke-width:4; stroke-opacity:1; fill:none" points="1791.88,1486.45 1791.88,1467.55 "/>
<polyline clip-path="url(#clip560)" style="stroke:#000000; stroke-linecap:round; stroke-linejoin:round; stroke-width:4; stroke-opacity:1; fill:none" points="2292.66,1486.45 2292.66,1467.55 "/>
<path clip-path="url(#clip560)" d="M289.539 1517.37 Q285.928 1517.37 284.099 1520.93 Q282.293 1524.47 282.293 1531.6 Q282.293 1538.71 284.099 1542.27 Q285.928 1545.82 289.539 1545.82 Q293.173 1545.82 294.979 1542.27 Q296.807 1538.71 296.807 1531.6 Q296.807 1524.47 294.979 1520.93 Q293.173 1517.37 289.539 1517.37 M289.539 1513.66 Q295.349 1513.66 298.404 1518.27 Q301.483 1522.85 301.483 1531.6 Q301.483 1540.33 298.404 1544.94 Q295.349 1549.52 289.539 1549.52 Q283.729 1549.52 280.65 1544.94 Q277.594 1540.33 277.594 1531.6 Q277.594 1522.85 280.65 1518.27 Q283.729 1513.66 289.539 1513.66 Z" fill="#000000" fill-rule="nonzero" fill-opacity="1" /><path clip-path="url(#clip560)" d="M749.938 1514.29 L768.294 1514.29 L768.294 1518.22 L754.22 1518.22 L754.22 1526.7 Q755.239 1526.35 756.257 1526.19 Q757.276 1526 758.294 1526 Q764.081 1526 767.461 1529.17 Q770.841 1532.34 770.841 1537.76 Q770.841 1543.34 767.368 1546.44 Q763.896 1549.52 757.577 1549.52 Q755.401 1549.52 753.132 1549.15 Q750.887 1548.78 748.48 1548.04 L748.48 1543.34 Q750.563 1544.47 752.785 1545.03 Q755.007 1545.58 757.484 1545.58 Q761.489 1545.58 763.827 1543.48 Q766.165 1541.37 766.165 1537.76 Q766.165 1534.15 763.827 1532.04 Q761.489 1529.94 757.484 1529.94 Q755.609 1529.94 753.734 1530.35 Q751.882 1530.77 749.938 1531.65 L749.938 1514.29 Z" fill="#000000" fill-rule="nonzero" fill-opacity="1" /><path clip-path="url(#clip560)" d="M790.053 1517.37 Q786.442 1517.37 784.614 1520.93 Q782.808 1524.47 782.808 1531.6 Q782.808 1538.71 784.614 1542.27 Q786.442 1545.82 790.053 1545.82 Q793.688 1545.82 795.493 1542.27 Q797.322 1538.71 797.322 1531.6 Q797.322 1524.47 795.493 1520.93 Q793.688 1517.37 790.053 1517.37 M790.053 1513.66 Q795.864 1513.66 798.919 1518.27 Q801.998 1522.85 801.998 1531.6 Q801.998 1540.33 798.919 1544.94 Q795.864 1549.52 790.053 1549.52 Q784.243 1549.52 781.165 1544.94 Q778.109 1540.33 778.109 1531.6 Q778.109 1522.85 781.165 1518.27 Q784.243 1513.66 790.053 1513.66 Z" fill="#000000" fill-rule="nonzero" fill-opacity="1" /><path clip-path="url(#clip560)" d="M820.215 1517.37 Q816.604 1517.37 814.776 1520.93 Q812.97 1524.47 812.97 1531.6 Q812.97 1538.71 814.776 1542.27 Q816.604 1545.82 820.215 1545.82 Q823.85 1545.82 825.655 1542.27 Q827.484 1538.71 827.484 1531.6 Q827.484 1524.47 825.655 1520.93 Q823.85 1517.37 820.215 1517.37 M820.215 1513.66 Q826.025 1513.66 829.081 1518.27 Q832.16 1522.85 832.16 1531.6 Q832.16 1540.33 829.081 1544.94 Q826.025 1549.52 820.215 1549.52 Q814.405 1549.52 811.326 1544.94 Q808.271 1540.33 808.271 1531.6 Q808.271 1522.85 811.326 1518.27 Q814.405 1513.66 820.215 1513.66 Z" fill="#000000" fill-rule="nonzero" fill-opacity="1" /><path clip-path="url(#clip560)" d="M1235.63 1544.91 L1243.27 1544.91 L1243.27 1518.55 L1234.95 1520.21 L1234.95 1515.95 L1243.22 1514.29 L1247.89 1514.29 L1247.89 1544.91 L1255.53 1544.91 L1255.53 1548.85 L1235.63 1548.85 L1235.63 1544.91 Z" fill="#000000" fill-rule="nonzero" fill-opacity="1" /><path clip-path="url(#clip560)" d="M1274.98 1517.37 Q1271.37 1517.37 1269.54 1520.93 Q1267.73 1524.47 1267.73 1531.6 Q1267.73 1538.71 1269.54 1542.27 Q1271.37 1545.82 1274.98 1545.82 Q1278.61 1545.82 1280.42 1542.27 Q1282.25 1538.71 1282.25 1531.6 Q1282.25 1524.47 1280.42 1520.93 Q1278.61 1517.37 1274.98 1517.37 M1274.98 1513.66 Q1280.79 1513.66 1283.84 1518.27 Q1286.92 1522.85 1286.92 1531.6 Q1286.92 1540.33 1283.84 1544.94 Q1280.79 1549.52 1274.98 1549.52 Q1269.17 1549.52 1266.09 1544.94 Q1263.03 1540.33 1263.03 1531.6 Q1263.03 1522.85 1266.09 1518.27 Q1269.17 1513.66 1274.98 1513.66 Z" fill="#000000" fill-rule="nonzero" fill-opacity="1" /><path clip-path="url(#clip560)" d="M1305.14 1517.37 Q1301.53 1517.37 1299.7 1520.93 Q1297.89 1524.47 1297.89 1531.6 Q1297.89 1538.71 1299.7 1542.27 Q1301.53 1545.82 1305.14 1545.82 Q1308.77 1545.82 1310.58 1542.27 Q1312.41 1538.71 1312.41 1531.6 Q1312.41 1524.47 1310.58 1520.93 Q1308.77 1517.37 1305.14 1517.37 M1305.14 1513.66 Q1310.95 1513.66 1314.01 1518.27 Q1317.08 1522.85 1317.08 1531.6 Q1317.08 1540.33 1314.01 1544.94 Q1310.95 1549.52 1305.14 1549.52 Q1299.33 1549.52 1296.25 1544.94 Q1293.2 1540.33 1293.2 1531.6 Q1293.2 1522.85 1296.25 1518.27 Q1299.33 1513.66 1305.14 1513.66 Z" fill="#000000" fill-rule="nonzero" fill-opacity="1" /><path clip-path="url(#clip560)" d="M1335.3 1517.37 Q1331.69 1517.37 1329.86 1520.93 Q1328.06 1524.47 1328.06 1531.6 Q1328.06 1538.71 1329.86 1542.27 Q1331.69 1545.82 1335.3 1545.82 Q1338.94 1545.82 1340.74 1542.27 Q1342.57 1538.71 1342.57 1531.6 Q1342.57 1524.47 1340.74 1520.93 Q1338.94 1517.37 1335.3 1517.37 M1335.3 1513.66 Q1341.11 1513.66 1344.17 1518.27 Q1347.25 1522.85 1347.25 1531.6 Q1347.25 1540.33 1344.17 1544.94 Q1341.11 1549.52 1335.3 1549.52 Q1329.49 1549.52 1326.41 1544.94 Q1323.36 1540.33 1323.36 1531.6 Q1323.36 1522.85 1326.41 1518.27 Q1329.49 1513.66 1335.3 1513.66 Z" fill="#000000" fill-rule="nonzero" fill-opacity="1" /><path clip-path="url(#clip560)" d="M1736.41 1544.91 L1744.05 1544.91 L1744.05 1518.55 L1735.74 1520.21 L1735.74 1515.95 L1744 1514.29 L1748.68 1514.29 L1748.68 1544.91 L1756.31 1544.91 L1756.31 1548.85 L1736.41 1548.85 L1736.41 1544.91 Z" fill="#000000" fill-rule="nonzero" fill-opacity="1" /><path clip-path="url(#clip560)" d="M1765.81 1514.29 L1784.16 1514.29 L1784.16 1518.22 L1770.09 1518.22 L1770.09 1526.7 Q1771.11 1526.35 1772.12 1526.19 Q1773.14 1526 1774.16 1526 Q1779.95 1526 1783.33 1529.17 Q1786.71 1532.34 1786.71 1537.76 Q1786.71 1543.34 1783.24 1546.44 Q1779.76 1549.52 1773.44 1549.52 Q1771.27 1549.52 1769 1549.15 Q1766.75 1548.78 1764.35 1548.04 L1764.35 1543.34 Q1766.43 1544.47 1768.65 1545.03 Q1770.87 1545.58 1773.35 1545.58 Q1777.36 1545.58 1779.69 1543.48 Q1782.03 1541.37 1782.03 1537.76 Q1782.03 1534.15 1779.69 1532.04 Q1777.36 1529.94 1773.35 1529.94 Q1771.48 1529.94 1769.6 1530.35 Q1767.75 1530.77 1765.81 1531.65 L1765.81 1514.29 Z" fill="#000000" fill-rule="nonzero" fill-opacity="1" /><path clip-path="url(#clip560)" d="M1805.92 1517.37 Q1802.31 1517.37 1800.48 1520.93 Q1798.68 1524.47 1798.68 1531.6 Q1798.68 1538.71 1800.48 1542.27 Q1802.31 1545.82 1805.92 1545.82 Q1809.55 1545.82 1811.36 1542.27 Q1813.19 1538.71 1813.19 1531.6 Q1813.19 1524.47 1811.36 1520.93 Q1809.55 1517.37 1805.92 1517.37 M1805.92 1513.66 Q1811.73 1513.66 1814.79 1518.27 Q1817.87 1522.85 1817.87 1531.6 Q1817.87 1540.33 1814.79 1544.94 Q1811.73 1549.52 1805.92 1549.52 Q1800.11 1549.52 1797.03 1544.94 Q1793.98 1540.33 1793.98 1531.6 Q1793.98 1522.85 1797.03 1518.27 Q1800.11 1513.66 1805.92 1513.66 Z" fill="#000000" fill-rule="nonzero" fill-opacity="1" /><path clip-path="url(#clip560)" d="M1836.08 1517.37 Q1832.47 1517.37 1830.64 1520.93 Q1828.84 1524.47 1828.84 1531.6 Q1828.84 1538.71 1830.64 1542.27 Q1832.47 1545.82 1836.08 1545.82 Q1839.72 1545.82 1841.52 1542.27 Q1843.35 1538.71 1843.35 1531.6 Q1843.35 1524.47 1841.52 1520.93 Q1839.72 1517.37 1836.08 1517.37 M1836.08 1513.66 Q1841.89 1513.66 1844.95 1518.27 Q1848.03 1522.85 1848.03 1531.6 Q1848.03 1540.33 1844.95 1544.94 Q1841.89 1549.52 1836.08 1549.52 Q1830.27 1549.52 1827.19 1544.94 Q1824.14 1540.33 1824.14 1531.6 Q1824.14 1522.85 1827.19 1518.27 Q1830.27 1513.66 1836.08 1513.66 Z" fill="#000000" fill-rule="nonzero" fill-opacity="1" /><path clip-path="url(#clip560)" d="M2241.27 1544.91 L2257.59 1544.91 L2257.59 1548.85 L2235.65 1548.85 L2235.65 1544.91 Q2238.31 1542.16 2242.89 1537.53 Q2247.5 1532.88 2248.68 1531.53 Q2250.93 1529.01 2251.81 1527.27 Q2252.71 1525.51 2252.71 1523.82 Q2252.71 1521.07 2250.76 1519.33 Q2248.84 1517.6 2245.74 1517.6 Q2243.54 1517.6 2241.09 1518.36 Q2238.66 1519.13 2235.88 1520.68 L2235.88 1515.95 Q2238.7 1514.82 2241.16 1514.24 Q2243.61 1513.66 2245.65 1513.66 Q2251.02 1513.66 2254.21 1516.35 Q2257.41 1519.03 2257.41 1523.52 Q2257.41 1525.65 2256.6 1527.57 Q2255.81 1529.47 2253.7 1532.07 Q2253.13 1532.74 2250.02 1535.95 Q2246.92 1539.15 2241.27 1544.91 Z" fill="#000000" fill-rule="nonzero" fill-opacity="1" /><path clip-path="url(#clip560)" d="M2277.41 1517.37 Q2273.8 1517.37 2271.97 1520.93 Q2270.16 1524.47 2270.16 1531.6 Q2270.16 1538.71 2271.97 1542.27 Q2273.8 1545.82 2277.41 1545.82 Q2281.04 1545.82 2282.85 1542.27 Q2284.68 1538.71 2284.68 1531.6 Q2284.68 1524.47 2282.85 1520.93 Q2281.04 1517.37 2277.41 1517.37 M2277.41 1513.66 Q2283.22 1513.66 2286.27 1518.27 Q2289.35 1522.85 2289.35 1531.6 Q2289.35 1540.33 2286.27 1544.94 Q2283.22 1549.52 2277.41 1549.52 Q2271.6 1549.52 2268.52 1544.94 Q2265.46 1540.33 2265.46 1531.6 Q2265.46 1522.85 2268.52 1518.27 Q2271.6 1513.66 2277.41 1513.66 Z" fill="#000000" fill-rule="nonzero" fill-opacity="1" /><path clip-path="url(#clip560)" d="M2307.57 1517.37 Q2303.96 1517.37 2302.13 1520.93 Q2300.32 1524.47 2300.32 1531.6 Q2300.32 1538.71 2302.13 1542.27 Q2303.96 1545.82 2307.57 1545.82 Q2311.2 1545.82 2313.01 1542.27 Q2314.84 1538.71 2314.84 1531.6 Q2314.84 1524.47 2313.01 1520.93 Q2311.2 1517.37 2307.57 1517.37 M2307.57 1513.66 Q2313.38 1513.66 2316.44 1518.27 Q2319.51 1522.85 2319.51 1531.6 Q2319.51 1540.33 2316.44 1544.94 Q2313.38 1549.52 2307.57 1549.52 Q2301.76 1549.52 2298.68 1544.94 Q2295.63 1540.33 2295.63 1531.6 Q2295.63 1522.85 2298.68 1518.27 Q2301.76 1513.66 2307.57 1513.66 Z" fill="#000000" fill-rule="nonzero" fill-opacity="1" /><path clip-path="url(#clip560)" d="M2337.73 1517.37 Q2334.12 1517.37 2332.29 1520.93 Q2330.49 1524.47 2330.49 1531.6 Q2330.49 1538.71 2332.29 1542.27 Q2334.12 1545.82 2337.73 1545.82 Q2341.37 1545.82 2343.17 1542.27 Q2345 1538.71 2345 1531.6 Q2345 1524.47 2343.17 1520.93 Q2341.37 1517.37 2337.73 1517.37 M2337.73 1513.66 Q2343.54 1513.66 2346.6 1518.27 Q2349.68 1522.85 2349.68 1531.6 Q2349.68 1540.33 2346.6 1544.94 Q2343.54 1549.52 2337.73 1549.52 Q2331.92 1549.52 2328.84 1544.94 Q2325.79 1540.33 2325.79 1531.6 Q2325.79 1522.85 2328.84 1518.27 Q2331.92 1513.66 2337.73 1513.66 Z" fill="#000000" fill-rule="nonzero" fill-opacity="1" /><polyline clip-path="url(#clip562)" style="stroke:#000000; stroke-linecap:round; stroke-linejoin:round; stroke-width:2; stroke-opacity:0.1; fill:none" points="229.445,1473.09 2352.76,1473.09 "/>
<polyline clip-path="url(#clip562)" style="stroke:#000000; stroke-linecap:round; stroke-linejoin:round; stroke-width:2; stroke-opacity:0.1; fill:none" points="229.445,1264.6 2352.76,1264.6 "/>
<polyline clip-path="url(#clip562)" style="stroke:#000000; stroke-linecap:round; stroke-linejoin:round; stroke-width:2; stroke-opacity:0.1; fill:none" points="229.445,1056.1 2352.76,1056.1 "/>
<polyline clip-path="url(#clip562)" style="stroke:#000000; stroke-linecap:round; stroke-linejoin:round; stroke-width:2; stroke-opacity:0.1; fill:none" points="229.445,847.606 2352.76,847.606 "/>
<polyline clip-path="url(#clip562)" style="stroke:#000000; stroke-linecap:round; stroke-linejoin:round; stroke-width:2; stroke-opacity:0.1; fill:none" points="229.445,639.111 2352.76,639.111 "/>
<polyline clip-path="url(#clip562)" style="stroke:#000000; stroke-linecap:round; stroke-linejoin:round; stroke-width:2; stroke-opacity:0.1; fill:none" points="229.445,430.616 2352.76,430.616 "/>
<polyline clip-path="url(#clip562)" style="stroke:#000000; stroke-linecap:round; stroke-linejoin:round; stroke-width:2; stroke-opacity:0.1; fill:none" points="229.445,222.122 2352.76,222.122 "/>
<polyline clip-path="url(#clip560)" style="stroke:#000000; stroke-linecap:round; stroke-linejoin:round; stroke-width:4; stroke-opacity:1; fill:none" points="229.445,1486.45 229.445,47.2441 "/>
<polyline clip-path="url(#clip560)" style="stroke:#000000; stroke-linecap:round; stroke-linejoin:round; stroke-width:4; stroke-opacity:1; fill:none" points="229.445,1473.09 248.343,1473.09 "/>
<polyline clip-path="url(#clip560)" style="stroke:#000000; stroke-linecap:round; stroke-linejoin:round; stroke-width:4; stroke-opacity:1; fill:none" points="229.445,1264.6 248.343,1264.6 "/>
<polyline clip-path="url(#clip560)" style="stroke:#000000; stroke-linecap:round; stroke-linejoin:round; stroke-width:4; stroke-opacity:1; fill:none" points="229.445,1056.1 248.343,1056.1 "/>
<polyline clip-path="url(#clip560)" style="stroke:#000000; stroke-linecap:round; stroke-linejoin:round; stroke-width:4; stroke-opacity:1; fill:none" points="229.445,847.606 248.343,847.606 "/>
<polyline clip-path="url(#clip560)" style="stroke:#000000; stroke-linecap:round; stroke-linejoin:round; stroke-width:4; stroke-opacity:1; fill:none" points="229.445,639.111 248.343,639.111 "/>
<polyline clip-path="url(#clip560)" style="stroke:#000000; stroke-linecap:round; stroke-linejoin:round; stroke-width:4; stroke-opacity:1; fill:none" points="229.445,430.616 248.343,430.616 "/>
<polyline clip-path="url(#clip560)" style="stroke:#000000; stroke-linecap:round; stroke-linejoin:round; stroke-width:4; stroke-opacity:1; fill:none" points="229.445,222.122 248.343,222.122 "/>
<path clip-path="url(#clip560)" d="M51.6634 1486.43 L59.3023 1486.43 L59.3023 1460.07 L50.9921 1461.74 L50.9921 1457.48 L59.256 1455.81 L63.9319 1455.81 L63.9319 1486.43 L71.5707 1486.43 L71.5707 1490.37 L51.6634 1490.37 L51.6634 1486.43 Z" fill="#000000" fill-rule="nonzero" fill-opacity="1" /><path clip-path="url(#clip560)" d="M93.8623 1459.88 L82.0568 1478.33 L93.8623 1478.33 L93.8623 1459.88 M92.6354 1455.81 L98.515 1455.81 L98.515 1478.33 L103.446 1478.33 L103.446 1482.22 L98.515 1482.22 L98.515 1490.37 L93.8623 1490.37 L93.8623 1482.22 L78.2605 1482.22 L78.2605 1477.71 L92.6354 1455.81 Z" fill="#000000" fill-rule="nonzero" fill-opacity="1" /><path clip-path="url(#clip560)" d="M111.223 1455.81 L129.58 1455.81 L129.58 1459.74 L115.506 1459.74 L115.506 1468.22 Q116.524 1467.87 117.543 1467.71 Q118.561 1467.52 119.58 1467.52 Q125.367 1467.52 128.746 1470.69 Q132.126 1473.87 132.126 1479.28 Q132.126 1484.86 128.654 1487.96 Q125.182 1491.04 118.862 1491.04 Q116.686 1491.04 114.418 1490.67 Q112.172 1490.3 109.765 1489.56 L109.765 1484.86 Q111.848 1485.99 114.07 1486.55 Q116.293 1487.11 118.77 1487.11 Q122.774 1487.11 125.112 1485 Q127.45 1482.89 127.45 1479.28 Q127.45 1475.67 125.112 1473.56 Q122.774 1471.46 118.77 1471.46 Q116.895 1471.46 115.02 1471.87 Q113.168 1472.29 111.223 1473.17 L111.223 1455.81 Z" fill="#000000" fill-rule="nonzero" fill-opacity="1" /><path clip-path="url(#clip560)" d="M151.339 1458.89 Q147.728 1458.89 145.899 1462.45 Q144.093 1465.99 144.093 1473.12 Q144.093 1480.23 145.899 1483.8 Q147.728 1487.34 151.339 1487.34 Q154.973 1487.34 156.779 1483.8 Q158.607 1480.23 158.607 1473.12 Q158.607 1465.99 156.779 1462.45 Q154.973 1458.89 151.339 1458.89 M151.339 1455.18 Q157.149 1455.18 160.205 1459.79 Q163.283 1464.37 163.283 1473.12 Q163.283 1481.85 160.205 1486.46 Q157.149 1491.04 151.339 1491.04 Q145.529 1491.04 142.45 1486.46 Q139.394 1481.85 139.394 1473.12 Q139.394 1464.37 142.45 1459.79 Q145.529 1455.18 151.339 1455.18 Z" fill="#000000" fill-rule="nonzero" fill-opacity="1" /><path clip-path="url(#clip560)" d="M181.501 1458.89 Q177.89 1458.89 176.061 1462.45 Q174.255 1465.99 174.255 1473.12 Q174.255 1480.23 176.061 1483.8 Q177.89 1487.34 181.501 1487.34 Q185.135 1487.34 186.94 1483.8 Q188.769 1480.23 188.769 1473.12 Q188.769 1465.99 186.94 1462.45 Q185.135 1458.89 181.501 1458.89 M181.501 1455.18 Q187.311 1455.18 190.366 1459.79 Q193.445 1464.37 193.445 1473.12 Q193.445 1481.85 190.366 1486.46 Q187.311 1491.04 181.501 1491.04 Q175.691 1491.04 172.612 1486.46 Q169.556 1481.85 169.556 1473.12 Q169.556 1464.37 172.612 1459.79 Q175.691 1455.18 181.501 1455.18 Z" fill="#000000" fill-rule="nonzero" fill-opacity="1" /><path clip-path="url(#clip560)" d="M51.6634 1277.94 L59.3023 1277.94 L59.3023 1251.57 L50.9921 1253.24 L50.9921 1248.98 L59.256 1247.32 L63.9319 1247.32 L63.9319 1277.94 L71.5707 1277.94 L71.5707 1281.88 L51.6634 1281.88 L51.6634 1277.94 Z" fill="#000000" fill-rule="nonzero" fill-opacity="1" /><path clip-path="url(#clip560)" d="M81.0614 1247.32 L99.4178 1247.32 L99.4178 1251.25 L85.3438 1251.25 L85.3438 1259.72 Q86.3623 1259.38 87.3808 1259.21 Q88.3993 1259.03 89.4178 1259.03 Q95.2049 1259.03 98.5845 1262.2 Q101.964 1265.37 101.964 1270.79 Q101.964 1276.37 98.4919 1279.47 Q95.0197 1282.55 88.7003 1282.55 Q86.5243 1282.55 84.2558 1282.18 Q82.0105 1281.81 79.6031 1281.06 L79.6031 1276.37 Q81.6864 1277.5 83.9086 1278.06 Q86.1308 1278.61 88.6077 1278.61 Q92.6123 1278.61 94.9502 1276.5 Q97.2882 1274.4 97.2882 1270.79 Q97.2882 1267.18 94.9502 1265.07 Q92.6123 1262.96 88.6077 1262.96 Q86.7327 1262.96 84.8577 1263.38 Q83.0058 1263.8 81.0614 1264.68 L81.0614 1247.32 Z" fill="#000000" fill-rule="nonzero" fill-opacity="1" /><path clip-path="url(#clip560)" d="M121.177 1250.39 Q117.566 1250.39 115.737 1253.96 Q113.932 1257.5 113.932 1264.63 Q113.932 1271.74 115.737 1275.3 Q117.566 1278.84 121.177 1278.84 Q124.811 1278.84 126.617 1275.3 Q128.445 1271.74 128.445 1264.63 Q128.445 1257.5 126.617 1253.96 Q124.811 1250.39 121.177 1250.39 M121.177 1246.69 Q126.987 1246.69 130.043 1251.3 Q133.121 1255.88 133.121 1264.63 Q133.121 1273.36 130.043 1277.96 Q126.987 1282.55 121.177 1282.55 Q115.367 1282.55 112.288 1277.96 Q109.233 1273.36 109.233 1264.63 Q109.233 1255.88 112.288 1251.3 Q115.367 1246.69 121.177 1246.69 Z" fill="#000000" fill-rule="nonzero" fill-opacity="1" /><path clip-path="url(#clip560)" d="M151.339 1250.39 Q147.728 1250.39 145.899 1253.96 Q144.093 1257.5 144.093 1264.63 Q144.093 1271.74 145.899 1275.3 Q147.728 1278.84 151.339 1278.84 Q154.973 1278.84 156.779 1275.3 Q158.607 1271.74 158.607 1264.63 Q158.607 1257.5 156.779 1253.96 Q154.973 1250.39 151.339 1250.39 M151.339 1246.69 Q157.149 1246.69 160.205 1251.3 Q163.283 1255.88 163.283 1264.63 Q163.283 1273.36 160.205 1277.96 Q157.149 1282.55 151.339 1282.55 Q145.529 1282.55 142.45 1277.96 Q139.394 1273.36 139.394 1264.63 Q139.394 1255.88 142.45 1251.3 Q145.529 1246.69 151.339 1246.69 Z" fill="#000000" fill-rule="nonzero" fill-opacity="1" /><path clip-path="url(#clip560)" d="M181.501 1250.39 Q177.89 1250.39 176.061 1253.96 Q174.255 1257.5 174.255 1264.63 Q174.255 1271.74 176.061 1275.3 Q177.89 1278.84 181.501 1278.84 Q185.135 1278.84 186.94 1275.3 Q188.769 1271.74 188.769 1264.63 Q188.769 1257.5 186.94 1253.96 Q185.135 1250.39 181.501 1250.39 M181.501 1246.69 Q187.311 1246.69 190.366 1251.3 Q193.445 1255.88 193.445 1264.63 Q193.445 1273.36 190.366 1277.96 Q187.311 1282.55 181.501 1282.55 Q175.691 1282.55 172.612 1277.96 Q169.556 1273.36 169.556 1264.63 Q169.556 1255.88 172.612 1251.3 Q175.691 1246.69 181.501 1246.69 Z" fill="#000000" fill-rule="nonzero" fill-opacity="1" /><path clip-path="url(#clip560)" d="M51.6634 1069.45 L59.3023 1069.45 L59.3023 1043.08 L50.9921 1044.75 L50.9921 1040.49 L59.256 1038.82 L63.9319 1038.82 L63.9319 1069.45 L71.5707 1069.45 L71.5707 1073.38 L51.6634 1073.38 L51.6634 1069.45 Z" fill="#000000" fill-rule="nonzero" fill-opacity="1" /><path clip-path="url(#clip560)" d="M81.0614 1038.82 L99.4178 1038.82 L99.4178 1042.76 L85.3438 1042.76 L85.3438 1051.23 Q86.3623 1050.88 87.3808 1050.72 Q88.3993 1050.53 89.4178 1050.53 Q95.2049 1050.53 98.5845 1053.7 Q101.964 1056.88 101.964 1062.29 Q101.964 1067.87 98.4919 1070.97 Q95.0197 1074.05 88.7003 1074.05 Q86.5243 1074.05 84.2558 1073.68 Q82.0105 1073.31 79.6031 1072.57 L79.6031 1067.87 Q81.6864 1069.01 83.9086 1069.56 Q86.1308 1070.12 88.6077 1070.12 Q92.6123 1070.12 94.9502 1068.01 Q97.2882 1065.9 97.2882 1062.29 Q97.2882 1058.68 94.9502 1056.57 Q92.6123 1054.47 88.6077 1054.47 Q86.7327 1054.47 84.8577 1054.89 Q83.0058 1055.3 81.0614 1056.18 L81.0614 1038.82 Z" fill="#000000" fill-rule="nonzero" fill-opacity="1" /><path clip-path="url(#clip560)" d="M111.223 1038.82 L129.58 1038.82 L129.58 1042.76 L115.506 1042.76 L115.506 1051.23 Q116.524 1050.88 117.543 1050.72 Q118.561 1050.53 119.58 1050.53 Q125.367 1050.53 128.746 1053.7 Q132.126 1056.88 132.126 1062.29 Q132.126 1067.87 128.654 1070.97 Q125.182 1074.05 118.862 1074.05 Q116.686 1074.05 114.418 1073.68 Q112.172 1073.31 109.765 1072.57 L109.765 1067.87 Q111.848 1069.01 114.07 1069.56 Q116.293 1070.12 118.77 1070.12 Q122.774 1070.12 125.112 1068.01 Q127.45 1065.9 127.45 1062.29 Q127.45 1058.68 125.112 1056.57 Q122.774 1054.47 118.77 1054.47 Q116.895 1054.47 115.02 1054.89 Q113.168 1055.3 111.223 1056.18 L111.223 1038.82 Z" fill="#000000" fill-rule="nonzero" fill-opacity="1" /><path clip-path="url(#clip560)" d="M151.339 1041.9 Q147.728 1041.9 145.899 1045.46 Q144.093 1049.01 144.093 1056.14 Q144.093 1063.24 145.899 1066.81 Q147.728 1070.35 151.339 1070.35 Q154.973 1070.35 156.779 1066.81 Q158.607 1063.24 158.607 1056.14 Q158.607 1049.01 156.779 1045.46 Q154.973 1041.9 151.339 1041.9 M151.339 1038.2 Q157.149 1038.2 160.205 1042.8 Q163.283 1047.39 163.283 1056.14 Q163.283 1064.86 160.205 1069.47 Q157.149 1074.05 151.339 1074.05 Q145.529 1074.05 142.45 1069.47 Q139.394 1064.86 139.394 1056.14 Q139.394 1047.39 142.45 1042.8 Q145.529 1038.2 151.339 1038.2 Z" fill="#000000" fill-rule="nonzero" fill-opacity="1" /><path clip-path="url(#clip560)" d="M181.501 1041.9 Q177.89 1041.9 176.061 1045.46 Q174.255 1049.01 174.255 1056.14 Q174.255 1063.24 176.061 1066.81 Q177.89 1070.35 181.501 1070.35 Q185.135 1070.35 186.94 1066.81 Q188.769 1063.24 188.769 1056.14 Q188.769 1049.01 186.94 1045.46 Q185.135 1041.9 181.501 1041.9 M181.501 1038.2 Q187.311 1038.2 190.366 1042.8 Q193.445 1047.39 193.445 1056.14 Q193.445 1064.86 190.366 1069.47 Q187.311 1074.05 181.501 1074.05 Q175.691 1074.05 172.612 1069.47 Q169.556 1064.86 169.556 1056.14 Q169.556 1047.39 172.612 1042.8 Q175.691 1038.2 181.501 1038.2 Z" fill="#000000" fill-rule="nonzero" fill-opacity="1" /><path clip-path="url(#clip560)" d="M51.6634 860.951 L59.3023 860.951 L59.3023 834.585 L50.9921 836.252 L50.9921 831.992 L59.256 830.326 L63.9319 830.326 L63.9319 860.951 L71.5707 860.951 L71.5707 864.886 L51.6634 864.886 L51.6634 860.951 Z" fill="#000000" fill-rule="nonzero" fill-opacity="1" /><path clip-path="url(#clip560)" d="M91.5938 845.742 Q88.4456 845.742 86.5938 847.895 Q84.7651 850.048 84.7651 853.798 Q84.7651 857.525 86.5938 859.701 Q88.4456 861.853 91.5938 861.853 Q94.7419 861.853 96.5706 859.701 Q98.4224 857.525 98.4224 853.798 Q98.4224 850.048 96.5706 847.895 Q94.7419 845.742 91.5938 845.742 M100.876 831.09 L100.876 835.349 Q99.1169 834.516 97.3113 834.076 Q95.5289 833.636 93.7697 833.636 Q89.1401 833.636 86.6864 836.761 Q84.2558 839.886 83.9086 846.205 Q85.2743 844.191 87.3345 843.127 Q89.3947 842.039 91.8715 842.039 Q97.0798 842.039 100.089 845.21 Q103.121 848.358 103.121 853.798 Q103.121 859.122 99.9733 862.339 Q96.8252 865.557 91.5938 865.557 Q85.5984 865.557 82.4271 860.974 Q79.2559 856.367 79.2559 847.64 Q79.2559 839.446 83.1447 834.585 Q87.0336 829.701 93.5845 829.701 Q95.3437 829.701 97.1261 830.048 Q98.9317 830.395 100.876 831.09 Z" fill="#000000" fill-rule="nonzero" fill-opacity="1" /><path clip-path="url(#clip560)" d="M121.177 833.404 Q117.566 833.404 115.737 836.969 Q113.932 840.511 113.932 847.64 Q113.932 854.747 115.737 858.312 Q117.566 861.853 121.177 861.853 Q124.811 861.853 126.617 858.312 Q128.445 854.747 128.445 847.64 Q128.445 840.511 126.617 836.969 Q124.811 833.404 121.177 833.404 M121.177 829.701 Q126.987 829.701 130.043 834.307 Q133.121 838.891 133.121 847.64 Q133.121 856.367 130.043 860.974 Q126.987 865.557 121.177 865.557 Q115.367 865.557 112.288 860.974 Q109.233 856.367 109.233 847.64 Q109.233 838.891 112.288 834.307 Q115.367 829.701 121.177 829.701 Z" fill="#000000" fill-rule="nonzero" fill-opacity="1" /><path clip-path="url(#clip560)" d="M151.339 833.404 Q147.728 833.404 145.899 836.969 Q144.093 840.511 144.093 847.64 Q144.093 854.747 145.899 858.312 Q147.728 861.853 151.339 861.853 Q154.973 861.853 156.779 858.312 Q158.607 854.747 158.607 847.64 Q158.607 840.511 156.779 836.969 Q154.973 833.404 151.339 833.404 M151.339 829.701 Q157.149 829.701 160.205 834.307 Q163.283 838.891 163.283 847.64 Q163.283 856.367 160.205 860.974 Q157.149 865.557 151.339 865.557 Q145.529 865.557 142.45 860.974 Q139.394 856.367 139.394 847.64 Q139.394 838.891 142.45 834.307 Q145.529 829.701 151.339 829.701 Z" fill="#000000" fill-rule="nonzero" fill-opacity="1" /><path clip-path="url(#clip560)" d="M181.501 833.404 Q177.89 833.404 176.061 836.969 Q174.255 840.511 174.255 847.64 Q174.255 854.747 176.061 858.312 Q177.89 861.853 181.501 861.853 Q185.135 861.853 186.94 858.312 Q188.769 854.747 188.769 847.64 Q188.769 840.511 186.94 836.969 Q185.135 833.404 181.501 833.404 M181.501 829.701 Q187.311 829.701 190.366 834.307 Q193.445 838.891 193.445 847.64 Q193.445 856.367 190.366 860.974 Q187.311 865.557 181.501 865.557 Q175.691 865.557 172.612 860.974 Q169.556 856.367 169.556 847.64 Q169.556 838.891 172.612 834.307 Q175.691 829.701 181.501 829.701 Z" fill="#000000" fill-rule="nonzero" fill-opacity="1" /><path clip-path="url(#clip560)" d="M51.6634 652.456 L59.3023 652.456 L59.3023 626.09 L50.9921 627.757 L50.9921 623.498 L59.256 621.831 L63.9319 621.831 L63.9319 652.456 L71.5707 652.456 L71.5707 656.391 L51.6634 656.391 L51.6634 652.456 Z" fill="#000000" fill-rule="nonzero" fill-opacity="1" /><path clip-path="url(#clip560)" d="M91.5938 637.248 Q88.4456 637.248 86.5938 639.4 Q84.7651 641.553 84.7651 645.303 Q84.7651 649.03 86.5938 651.206 Q88.4456 653.359 91.5938 653.359 Q94.7419 653.359 96.5706 651.206 Q98.4224 649.03 98.4224 645.303 Q98.4224 641.553 96.5706 639.4 Q94.7419 637.248 91.5938 637.248 M100.876 622.595 L100.876 626.854 Q99.1169 626.021 97.3113 625.581 Q95.5289 625.141 93.7697 625.141 Q89.1401 625.141 86.6864 628.266 Q84.2558 631.391 83.9086 637.711 Q85.2743 635.697 87.3345 634.632 Q89.3947 633.544 91.8715 633.544 Q97.0798 633.544 100.089 636.715 Q103.121 639.863 103.121 645.303 Q103.121 650.627 99.9733 653.845 Q96.8252 657.062 91.5938 657.062 Q85.5984 657.062 82.4271 652.479 Q79.2559 647.873 79.2559 639.146 Q79.2559 630.951 83.1447 626.09 Q87.0336 621.206 93.5845 621.206 Q95.3437 621.206 97.1261 621.553 Q98.9317 621.901 100.876 622.595 Z" fill="#000000" fill-rule="nonzero" fill-opacity="1" /><path clip-path="url(#clip560)" d="M111.223 621.831 L129.58 621.831 L129.58 625.766 L115.506 625.766 L115.506 634.238 Q116.524 633.891 117.543 633.729 Q118.561 633.544 119.58 633.544 Q125.367 633.544 128.746 636.715 Q132.126 639.887 132.126 645.303 Q132.126 650.882 128.654 653.984 Q125.182 657.062 118.862 657.062 Q116.686 657.062 114.418 656.692 Q112.172 656.322 109.765 655.581 L109.765 650.882 Q111.848 652.016 114.07 652.572 Q116.293 653.127 118.77 653.127 Q122.774 653.127 125.112 651.021 Q127.45 648.914 127.45 645.303 Q127.45 641.692 125.112 639.586 Q122.774 637.479 118.77 637.479 Q116.895 637.479 115.02 637.896 Q113.168 638.312 111.223 639.192 L111.223 621.831 Z" fill="#000000" fill-rule="nonzero" fill-opacity="1" /><path clip-path="url(#clip560)" d="M151.339 624.91 Q147.728 624.91 145.899 628.475 Q144.093 632.016 144.093 639.146 Q144.093 646.252 145.899 649.817 Q147.728 653.359 151.339 653.359 Q154.973 653.359 156.779 649.817 Q158.607 646.252 158.607 639.146 Q158.607 632.016 156.779 628.475 Q154.973 624.91 151.339 624.91 M151.339 621.206 Q157.149 621.206 160.205 625.813 Q163.283 630.396 163.283 639.146 Q163.283 647.873 160.205 652.479 Q157.149 657.062 151.339 657.062 Q145.529 657.062 142.45 652.479 Q139.394 647.873 139.394 639.146 Q139.394 630.396 142.45 625.813 Q145.529 621.206 151.339 621.206 Z" fill="#000000" fill-rule="nonzero" fill-opacity="1" /><path clip-path="url(#clip560)" d="M181.501 624.91 Q177.89 624.91 176.061 628.475 Q174.255 632.016 174.255 639.146 Q174.255 646.252 176.061 649.817 Q177.89 653.359 181.501 653.359 Q185.135 653.359 186.94 649.817 Q188.769 646.252 188.769 639.146 Q188.769 632.016 186.94 628.475 Q185.135 624.91 181.501 624.91 M181.501 621.206 Q187.311 621.206 190.366 625.813 Q193.445 630.396 193.445 639.146 Q193.445 647.873 190.366 652.479 Q187.311 657.062 181.501 657.062 Q175.691 657.062 172.612 652.479 Q169.556 647.873 169.556 639.146 Q169.556 630.396 172.612 625.813 Q175.691 621.206 181.501 621.206 Z" fill="#000000" fill-rule="nonzero" fill-opacity="1" /><path clip-path="url(#clip560)" d="M51.6634 443.961 L59.3023 443.961 L59.3023 417.596 L50.9921 419.262 L50.9921 415.003 L59.256 413.336 L63.9319 413.336 L63.9319 443.961 L71.5707 443.961 L71.5707 447.896 L51.6634 447.896 L51.6634 443.961 Z" fill="#000000" fill-rule="nonzero" fill-opacity="1" /><path clip-path="url(#clip560)" d="M79.8346 413.336 L102.057 413.336 L102.057 415.327 L89.5104 447.896 L84.6262 447.896 L96.4317 417.272 L79.8346 417.272 L79.8346 413.336 Z" fill="#000000" fill-rule="nonzero" fill-opacity="1" /><path clip-path="url(#clip560)" d="M121.177 416.415 Q117.566 416.415 115.737 419.98 Q113.932 423.522 113.932 430.651 Q113.932 437.758 115.737 441.322 Q117.566 444.864 121.177 444.864 Q124.811 444.864 126.617 441.322 Q128.445 437.758 128.445 430.651 Q128.445 423.522 126.617 419.98 Q124.811 416.415 121.177 416.415 M121.177 412.711 Q126.987 412.711 130.043 417.318 Q133.121 421.901 133.121 430.651 Q133.121 439.378 130.043 443.984 Q126.987 448.568 121.177 448.568 Q115.367 448.568 112.288 443.984 Q109.233 439.378 109.233 430.651 Q109.233 421.901 112.288 417.318 Q115.367 412.711 121.177 412.711 Z" fill="#000000" fill-rule="nonzero" fill-opacity="1" /><path clip-path="url(#clip560)" d="M151.339 416.415 Q147.728 416.415 145.899 419.98 Q144.093 423.522 144.093 430.651 Q144.093 437.758 145.899 441.322 Q147.728 444.864 151.339 444.864 Q154.973 444.864 156.779 441.322 Q158.607 437.758 158.607 430.651 Q158.607 423.522 156.779 419.98 Q154.973 416.415 151.339 416.415 M151.339 412.711 Q157.149 412.711 160.205 417.318 Q163.283 421.901 163.283 430.651 Q163.283 439.378 160.205 443.984 Q157.149 448.568 151.339 448.568 Q145.529 448.568 142.45 443.984 Q139.394 439.378 139.394 430.651 Q139.394 421.901 142.45 417.318 Q145.529 412.711 151.339 412.711 Z" fill="#000000" fill-rule="nonzero" fill-opacity="1" /><path clip-path="url(#clip560)" d="M181.501 416.415 Q177.89 416.415 176.061 419.98 Q174.255 423.522 174.255 430.651 Q174.255 437.758 176.061 441.322 Q177.89 444.864 181.501 444.864 Q185.135 444.864 186.94 441.322 Q188.769 437.758 188.769 430.651 Q188.769 423.522 186.94 419.98 Q185.135 416.415 181.501 416.415 M181.501 412.711 Q187.311 412.711 190.366 417.318 Q193.445 421.901 193.445 430.651 Q193.445 439.378 190.366 443.984 Q187.311 448.568 181.501 448.568 Q175.691 448.568 172.612 443.984 Q169.556 439.378 169.556 430.651 Q169.556 421.901 172.612 417.318 Q175.691 412.711 181.501 412.711 Z" fill="#000000" fill-rule="nonzero" fill-opacity="1" /><path clip-path="url(#clip560)" d="M51.6634 235.467 L59.3023 235.467 L59.3023 209.101 L50.9921 210.768 L50.9921 206.508 L59.256 204.842 L63.9319 204.842 L63.9319 235.467 L71.5707 235.467 L71.5707 239.402 L51.6634 239.402 L51.6634 235.467 Z" fill="#000000" fill-rule="nonzero" fill-opacity="1" /><path clip-path="url(#clip560)" d="M79.8346 204.842 L102.057 204.842 L102.057 206.832 L89.5104 239.402 L84.6262 239.402 L96.4317 208.777 L79.8346 208.777 L79.8346 204.842 Z" fill="#000000" fill-rule="nonzero" fill-opacity="1" /><path clip-path="url(#clip560)" d="M111.223 204.842 L129.58 204.842 L129.58 208.777 L115.506 208.777 L115.506 217.249 Q116.524 216.902 117.543 216.74 Q118.561 216.555 119.58 216.555 Q125.367 216.555 128.746 219.726 Q132.126 222.897 132.126 228.314 Q132.126 233.892 128.654 236.994 Q125.182 240.073 118.862 240.073 Q116.686 240.073 114.418 239.703 Q112.172 239.332 109.765 238.592 L109.765 233.892 Q111.848 235.027 114.07 235.582 Q116.293 236.138 118.77 236.138 Q122.774 236.138 125.112 234.031 Q127.45 231.925 127.45 228.314 Q127.45 224.703 125.112 222.596 Q122.774 220.49 118.77 220.49 Q116.895 220.49 115.02 220.906 Q113.168 221.323 111.223 222.203 L111.223 204.842 Z" fill="#000000" fill-rule="nonzero" fill-opacity="1" /><path clip-path="url(#clip560)" d="M151.339 207.92 Q147.728 207.92 145.899 211.485 Q144.093 215.027 144.093 222.156 Q144.093 229.263 145.899 232.828 Q147.728 236.369 151.339 236.369 Q154.973 236.369 156.779 232.828 Q158.607 229.263 158.607 222.156 Q158.607 215.027 156.779 211.485 Q154.973 207.92 151.339 207.92 M151.339 204.217 Q157.149 204.217 160.205 208.823 Q163.283 213.406 163.283 222.156 Q163.283 230.883 160.205 235.49 Q157.149 240.073 151.339 240.073 Q145.529 240.073 142.45 235.49 Q139.394 230.883 139.394 222.156 Q139.394 213.406 142.45 208.823 Q145.529 204.217 151.339 204.217 Z" fill="#000000" fill-rule="nonzero" fill-opacity="1" /><path clip-path="url(#clip560)" d="M181.501 207.92 Q177.89 207.92 176.061 211.485 Q174.255 215.027 174.255 222.156 Q174.255 229.263 176.061 232.828 Q177.89 236.369 181.501 236.369 Q185.135 236.369 186.94 232.828 Q188.769 229.263 188.769 222.156 Q188.769 215.027 186.94 211.485 Q185.135 207.92 181.501 207.92 M181.501 204.217 Q187.311 204.217 190.366 208.823 Q193.445 213.406 193.445 222.156 Q193.445 230.883 190.366 235.49 Q187.311 240.073 181.501 240.073 Q175.691 240.073 172.612 235.49 Q169.556 230.883 169.556 222.156 Q169.556 213.406 172.612 208.823 Q175.691 204.217 181.501 204.217 Z" fill="#000000" fill-rule="nonzero" fill-opacity="1" /><polyline clip-path="url(#clip562)" style="stroke:#009af9; stroke-linecap:round; stroke-linejoin:round; stroke-width:4; stroke-opacity:1; fill:none" points="289.539,292.22 290.54,292.321 291.542,292.403 292.543,292.472 293.545,292.529 294.547,292.578 295.548,292.621 296.55,292.658 297.551,292.691 298.553,292.72 299.554,581.229 300.556,581.313 301.558,581.383 302.559,581.444 303.561,581.497 304.562,581.543 305.564,581.584 306.565,581.621 307.567,581.655 308.568,581.686 309.57,372.664 310.572,372.7 311.573,372.734 312.575,372.766 313.576,372.797 314.578,372.826 315.579,372.854 316.581,372.88 317.582,372.906 318.584,372.93 319.586,443.488 320.587,443.692 321.589,443.855 322.59,443.985 323.592,444.09 324.593,444.177 325.595,444.248 326.597,444.308 327.598,444.36 328.6,444.404 329.601,438.562 330.603,438.694 331.604,438.806 332.606,438.903 333.607,438.987 334.609,439.062 335.611,439.129 336.612,439.19 337.614,439.246 338.615,439.297 339.617,445.22 340.618,445.532 341.62,445.782 342.622,445.984 343.623,446.149 344.625,446.286 345.626,446.4 346.628,446.498 347.629,446.582 348.631,446.656 349.632,341.595 350.634,341.689 351.636,341.774 352.637,341.854 353.639,341.928 354.64,341.997 355.642,342.062 356.643,342.124 357.645,342.182 358.647,342.238 359.648,307.959 360.65,308 361.651,308.037 362.653,308.07 363.654,308.1 364.656,308.127 365.657,308.153 366.659,308.176 367.661,308.199 368.662,308.22 369.664,356.116 370.665,356.364 371.667,356.559 372.668,356.713 373.67,356.836 374.672,356.935 375.673,357.016 376.675,357.083 377.676,357.138 378.678,357.185 379.679,246.031 380.681,246.132 381.682,246.215 382.684,246.284 383.686,246.343 384.687,246.393 385.689,246.437 386.69,246.475 387.692,246.51 388.693,246.541 389.695,259.626 390.697,260.144 391.698,260.545 392.7,260.855 393.701,261.097 394.703,261.286 395.704,261.436 396.706,261.555 397.707,261.651 398.709,261.73 399.711,741.703 400.712,741.818 401.714,741.915 402.715,741.998 403.717,742.071 404.718,742.135 405.72,742.192 406.721,742.244 407.723,742.291 408.725,742.334 409.726,406.276 410.728,406.368 411.729,406.444 412.731,406.508 413.732,406.563 414.734,406.612 415.736,406.654 416.737,406.692 417.739,406.726 418.74,406.757 419.742,476.034 420.743,476.145 421.745,476.24 422.746,476.321 423.748,476.391 424.75,476.453 425.751,476.508 426.753,476.557 427.754,476.602 428.756,476.643 429.757,501.663 430.759,501.875 431.761,502.039 432.762,502.166 433.764,502.264 434.765,502.341 435.767,502.401 436.768,502.448 437.77,502.485 438.771,502.514 439.773,595.043 440.775,595.063 441.776,595.08 442.778,595.095 443.779,595.109 444.781,595.122 445.782,595.134 446.784,595.145 447.786,595.155 448.787,595.165 449.789,795.572 450.79,795.775 451.792,795.944 452.793,796.084 453.795,796.203 454.796,796.304 455.798,796.391 456.8,796.468 457.801,796.536 458.803,796.596 459.804,605.322 460.806,605.388 461.807,605.448 462.809,605.504 463.811,605.556 464.812,605.605 465.814,605.651 466.815,605.695 467.817,605.737 468.818,605.776 469.82,87.9763 470.821,88.049 471.823,88.1156 472.825,88.1773 473.826,88.2349 474.828,88.2893 475.829,88.3408 476.831,88.39 477.832,88.4371 478.834,88.4824 479.835,615.063 480.837,615.137 481.839,615.206 482.84,615.27 483.842,615.332 484.843,615.389 485.845,615.444 486.846,615.497 487.848,615.546 488.85,615.594 489.851,625.456 490.853,625.63 491.854,625.773 492.856,625.893 493.857,625.993 494.859,626.078 495.86,626.152 496.862,626.216 497.864,626.272 498.865,626.322 499.867,346.563 500.868,346.826 501.87,347.036 502.871,347.207 503.873,347.347 504.875,347.462 505.876,347.559 506.878,347.642 507.879,347.712 508.881,347.774 509.882,903.668 510.884,903.826 511.885,903.962 512.887,904.081 513.889,904.187 514.89,904.281 515.892,904.367 516.893,904.445 517.895,904.516 518.896,904.583 519.898,527.652 520.9,527.787 521.901,527.9 522.903,527.996 523.904,528.079 524.906,528.151 525.907,528.215 526.909,528.272 527.91,528.323 528.912,528.37 529.914,646.272 530.915,646.498 531.917,646.675 532.918,646.816 533.92,646.928 534.921,647.018 535.923,647.091 536.925,647.151 537.926,647.201 538.928,647.243 539.929,480.133 540.931,480.155 541.932,480.176 542.934,480.194 543.935,480.211 544.937,480.227 545.939,480.242 546.94,480.256 547.942,480.269 548.943,480.282 549.945,679.895 550.946,679.979 551.948,680.059 552.95,680.136 553.951,680.209 554.953,680.28 555.954,680.348 556.956,680.414 557.957,680.477 558.959,680.539 559.96,503.598 560.962,503.622 561.964,503.645 562.965,503.666 563.967,503.687 564.968,503.707 565.97,503.727 566.971,503.746 567.973,503.764 568.974,503.781 569.976,889.015 570.978,889.145 571.979,889.255 572.981,889.35 573.982,889.431 574.984,889.503 575.985,889.567 576.987,889.624 577.989,889.677 578.99,889.725 579.992,480.498 580.993,480.548 581.995,480.592 582.996,480.63 583.998,480.665 584.999,480.696 586.001,480.725 587.003,480.751 588.004,480.776 589.006,480.799 590.007,380.343 591.009,380.53 592.01,380.68 593.012,380.799 594.014,380.896 595.015,380.976 596.017,381.043 597.018,381.098 598.02,381.146 599.021,381.188 600.023,835.987 601.024,836.34 602.026,836.618 603.028,836.84 604.029,837.016 605.031,837.158 606.032,837.273 607.034,837.367 608.035,837.444 609.037,837.509 610.039,928.463 611.04,928.565 612.042,928.653 613.043,928.729 614.045,928.796 615.046,928.856 616.048,928.909 617.049,928.958 618.051,929.002 619.053,929.042 620.054,884.017 621.056,884.084 622.057,884.144 623.059,884.197 624.06,884.244 625.062,884.288 626.064,884.327 627.065,884.363 628.067,884.397 629.068,884.428 630.07,311.355 631.071,311.421 632.073,311.483 633.074,311.543 634.076,311.6 635.078,311.655 636.079,311.708 637.081,311.759 638.082,311.808 639.084,311.855 640.085,595.544 641.087,595.744 642.088,595.91 643.09,596.051 644.092,596.171 645.093,596.274 646.095,596.365 647.096,596.445 648.098,596.517 649.099,596.582 650.101,795.794 651.103,796.036 652.104,796.232 653.106,796.393 654.107,796.525 655.109,796.634 656.11,796.726 657.112,796.804 658.113,796.87 659.115,796.928 660.117,954.152 661.118,954.265 662.12,954.365 663.121,954.454 664.123,954.534 665.124,954.606 666.126,954.673 667.128,954.734 668.129,954.791 669.131,954.845 670.132,668.436 671.134,668.6 672.135,668.73 673.137,668.834 674.138,668.918 675.14,668.985 676.142,669.041 677.143,669.086 678.145,669.124 679.146,669.155 680.148,885.852 681.149,885.919 682.151,885.981 683.153,886.039 684.154,886.094 685.156,886.145 686.157,886.194 687.159,886.241 688.16,886.285 689.162,886.328 690.163,770.612 691.165,770.714 692.167,770.802 693.168,770.878 694.17,770.946 695.171,771.007 696.173,771.062 697.174,771.112 698.176,771.158 699.178,771.201 700.179,778.785 701.181,778.866 702.182,778.934 703.184,778.993 704.185,779.044 705.187,779.09 706.188,779.13 707.19,779.167 708.192,779.2 709.193,779.231 710.195,594.703 711.196,594.743 712.198,594.78 713.199,594.814 714.201,594.845 715.202,594.875 716.204,594.903 717.206,594.929 718.207,594.954 719.209,594.979 720.21,480.655 721.212,480.832 722.213,480.972 723.215,481.082 724.217,481.169 725.218,481.239 726.22,481.296 727.221,481.342 728.223,481.381 729.224,481.413 730.226,646.22 731.227,646.337 732.229,646.439 733.231,646.53 734.232,646.611 735.234,646.684 736.235,646.751 737.237,646.812 738.238,646.869 739.24,646.923 740.242,572.384 741.243,572.413 742.245,572.437 743.246,572.459 744.248,572.478 745.249,572.495 746.251,572.511 747.252,572.525 748.254,572.538 749.256,572.55 750.257,326.103 751.259,326.135 752.26,326.164 753.262,326.191 754.263,326.215 755.265,326.238 756.267,326.26 757.268,326.28 758.27,326.3 759.271,326.318 760.273,501.668 761.274,501.809 762.276,501.925 763.277,502.022 764.279,502.104 765.281,502.174 766.282,502.234 767.284,502.287 768.285,502.335 769.287,502.378 770.288,908.844 771.29,909.372 772.292,909.794 773.293,910.133 774.295,910.407 775.296,910.631 776.298,910.814 777.299,910.967 778.301,911.094 779.302,911.203 780.304,864.45 781.306,864.547 782.307,864.637 783.309,864.721 784.31,864.801 785.312,864.876 786.313,864.948 787.315,865.016 788.317,865.08 789.318,865.143 790.32,649.622 791.321,649.648 792.323,649.674 793.324,649.698 794.326,649.722 795.327,649.745 796.329,649.767 797.331,649.788 798.332,649.808 799.334,649.828 800.335,738.001 801.337,738.12 802.338,738.216 803.34,738.297 804.341,738.363 805.343,738.42 806.345,738.468 807.346,738.509 808.348,738.545 809.349,738.577 810.351,613.744 811.352,613.797 812.354,613.844 813.356,613.887 814.357,613.925 815.359,613.961 816.36,613.993 817.362,614.024 818.363,614.053 819.365,614.08 820.366,828.73 821.368,828.872 822.37,828.998 823.371,829.112 824.373,829.216 825.374,829.312 826.376,829.401 827.377,829.484 828.379,829.562 829.381,829.635 830.382,488.495 831.384,488.544 832.385,488.589 833.387,488.633 834.388,488.675 835.39,488.716 836.391,488.754 837.393,488.791 838.395,488.827 839.396,488.862 840.398,727.282 841.399,727.465 842.401,727.623 843.402,727.76 844.404,727.881 845.406,727.988 846.407,728.083 847.409,728.169 848.41,728.247 849.412,728.319 850.413,556.158 851.415,556.271 852.416,556.365 853.418,556.446 854.42,556.515 855.421,556.575 856.423,556.629 857.424,556.676 858.426,556.719 859.427,556.759 860.429,321.958 861.431,322.034 862.432,322.107 863.434,322.175 864.435,322.241 865.437,322.303 866.438,322.362 867.44,322.418 868.441,322.472 869.443,322.524 870.445,688.545 871.446,688.737 872.448,688.89 873.449,689.013 874.451,689.112 875.452,689.192 876.454,689.258 877.455,689.312 878.457,689.358 879.459,689.396 880.46,551.236 881.462,551.428 882.463,551.591 883.465,551.731 884.466,551.853 885.468,551.96 886.47,552.055 887.471,552.141 888.473,552.218 889.474,552.29 890.476,592.491 891.477,592.567 892.479,592.627 893.48,592.674 894.482,592.712 895.484,592.742 896.485,592.766 897.487,592.786 898.488,592.802 899.49,592.816 900.491,607.187 901.493,607.341 902.495,607.475 903.496,607.593 904.498,607.697 905.499,607.791 906.501,607.876 907.502,607.953 908.504,608.024 909.505,608.089 910.507,383.323 911.509,383.445 912.51,383.55 913.512,383.641 914.513,383.722 915.515,383.794 916.516,383.86 917.518,383.92 918.52,383.975 919.521,384.028 920.523,495.421 921.524,495.464 922.526,495.5 923.527,495.531 924.529,495.558 925.53,495.582 926.532,495.603 927.534,495.622 928.535,495.64 929.537,495.655 930.538,640.649 931.54,640.76 932.541,640.862 933.543,640.958 934.545,641.048 935.546,641.132 936.548,641.211 937.549,641.287 938.551,641.359 939.552,641.427 940.554,688.12 941.555,688.214 942.557,688.302 943.559,688.384 944.56,688.461 945.562,688.534 946.563,688.602 947.565,688.666 948.566,688.727 949.568,688.784 950.57,584.846 951.571,585.009 952.573,585.144 953.574,585.259 954.576,585.357 955.577,585.441 956.579,585.515 957.58,585.58 958.582,585.639 959.584,585.692 960.585,574.161 961.587,574.212 962.588,574.257 963.59,574.295 964.591,574.329 965.593,574.36 966.594,574.388 967.596,574.413 968.598,574.437 969.599,574.459 970.601,571.938 971.602,572.035 972.604,572.122 973.605,572.202 974.607,572.274 975.609,572.342 976.61,572.405 977.612,572.464 978.613,572.52 979.615,572.574 980.616,404.649 981.618,404.836 982.619,404.985 983.621,405.105 984.623,405.201 985.624,405.279 986.626,405.344 987.627,405.397 988.629,405.442 989.63,405.48 990.632,596.577 991.634,596.669 992.635,596.744 993.637,596.806 994.638,596.857 995.64,596.9 996.641,596.937 997.643,596.969 998.644,596.997 999.646,597.022 1000.65,857.751 1001.65,857.838 1002.65,857.911 1003.65,857.975 1004.65,858.03 1005.66,858.079 1006.66,858.122 1007.66,858.162 1008.66,858.198 1009.66,858.231 1010.66,512.943 1011.66,513.047 1012.67,513.136 1013.67,513.213 1014.67,513.281 1015.67,513.342 1016.67,513.396 1017.67,513.446 1018.68,513.492 1019.68,513.535 1020.68,644.817 1021.68,644.849 1022.68,644.88 1023.68,644.909 1024.69,644.937 1025.69,644.964 1026.69,644.989 1027.69,645.014 1028.69,645.038 1029.69,645.061 1030.69,1181.77 1031.7,1181.87 1032.7,1181.97 1033.7,1182.05 1034.7,1182.13 1035.7,1182.21 1036.7,1182.28 1037.71,1182.35 1038.71,1182.41 1039.71,1182.47 1040.71,889.507 1041.71,889.558 1042.71,889.604 1043.71,889.646 1044.72,889.684 1045.72,889.719 1046.72,889.752 1047.72,889.782 1048.72,889.811 1049.72,889.838 1050.73,837.465 1051.73,837.547 1052.73,837.617 1053.73,837.676 1054.73,837.727 1055.73,837.771 1056.74,837.81 1057.74,837.845 1058.74,837.876 1059.74,837.905 1060.74,921.648 1061.74,921.787 1062.74,921.898 1063.75,921.987 1064.75,922.06 1065.75,922.119 1066.75,922.167 1067.75,922.206 1068.75,922.239 1069.76,922.267 1070.76,405.861 1071.76,406.064 1072.76,406.234 1073.76,406.38 1074.76,406.505 1075.76,406.615 1076.77,406.713 1077.77,406.801 1078.77,406.881 1079.77,406.954 1080.77,778.248 1081.77,778.396 1082.78,778.522 1083.78,778.63 1084.78,778.723 1085.78,778.805 1086.78,778.878 1087.78,778.943 1088.79,779.002 1089.79,779.056 1090.79,959.669 1091.79,959.763 1092.79,959.843 1093.79,959.911 1094.79,959.969 1095.8,960.021 1096.8,960.066 1097.8,960.107 1098.8,960.143 1099.8,960.176 1100.8,731.076 1101.81,731.177 1102.81,731.257 1103.81,731.322 1104.81,731.375 1105.81,731.417 1106.81,731.452 1107.81,731.482 1108.82,731.506 1109.82,731.527 1110.82,805.613 1111.82,805.702 1112.82,805.778 1113.82,805.843 1114.83,805.9 1115.83,805.949 1116.83,805.993 1117.83,806.033 1118.83,806.069 1119.83,806.103 1120.83,982.589 1121.84,982.707 1122.84,982.807 1123.84,982.892 1124.84,982.966 1125.84,983.03 1126.84,983.086 1127.85,983.137 1128.85,983.183 1129.85,983.225 1130.85,660.711 1131.85,660.754 1132.85,660.793 1133.86,660.828 1134.86,660.861 1135.86,660.89 1136.86,660.918 1137.86,660.944 1138.86,660.969 1139.86,660.992 1140.87,724.919 1141.87,725.05 1142.87,725.161 1143.87,725.256 1144.87,725.339 1145.87,725.412 1146.88,725.476 1147.88,725.534 1148.88,725.586 1149.88,725.634 1150.88,608.928 1151.88,609.082 1152.88,609.214 1153.89,609.329 1154.89,609.43 1155.89,609.52 1156.89,609.601 1157.89,609.674 1158.89,609.741 1159.9,609.803 1160.9,973.805 1161.9,973.874 1162.9,973.938 1163.9,973.997 1164.9,974.053 1165.91,974.106 1166.91,974.156 1167.91,974.203 1168.91,974.248 1169.91,974.291 1170.91,744.53 1171.91,744.732 1172.92,744.895 1173.92,745.025 1174.92,745.131 1175.92,745.217 1176.92,745.288 1177.92,745.346 1178.93,745.395 1179.93,745.437 1180.93,1196.47 1181.93,1196.58 1182.93,1196.68 1183.93,1196.78 1184.93,1196.87 1185.94,1196.96 1186.94,1197.05 1187.94,1197.13 1188.94,1197.2 1189.94,1197.27 1190.94,1066.94 1191.95,1067.05 1192.95,1067.15 1193.95,1067.25 1194.95,1067.33 1195.95,1067.42 1196.95,1067.49 1197.96,1067.56 1198.96,1067.63 1199.96,1067.69 1200.96,792.145 1201.96,792.362 1202.96,792.534 1203.96,792.671 1204.97,792.78 1205.97,792.867 1206.97,792.938 1207.97,792.995 1208.97,793.043 1209.97,793.082 1210.98,830.78 1211.98,830.92 1212.98,831.043 1213.98,831.152 1214.98,831.25 1215.98,831.338 1216.98,831.419 1217.99,831.493 1218.99,831.562 1219.99,831.626 1220.99,871.284 1221.99,871.491 1222.99,871.684 1224,871.864 1225,872.034 1226,872.193 1227,872.343 1228,872.484 1229,872.617 1230.01,872.743 1231.01,673.847 1232.01,674.032 1233.01,674.187 1234.01,674.319 1235.01,674.432 1236.01,674.531 1237.02,674.618 1238.02,674.695 1239.02,674.764 1240.02,674.827 1241.02,1189.59 1242.02,1189.76 1243.03,1189.91 1244.03,1190.03 1245.03,1190.14 1246.03,1190.23 1247.03,1190.32 1248.03,1190.39 1249.03,1190.46 1250.04,1190.52 1251.04,884.457 1252.04,884.748 1253.04,884.984 1254.04,885.175 1255.04,885.333 1256.05,885.465 1257.05,885.575 1258.05,885.67 1259.05,885.751 1260.05,885.822 1261.05,996.441 1262.06,996.516 1263.06,996.588 1264.06,996.655 1265.06,996.719 1266.06,996.779 1267.06,996.837 1268.06,996.891 1269.07,996.943 1270.07,996.993 1271.07,951.071 1272.07,951.53 1273.07,951.896 1274.07,952.187 1275.08,952.422 1276.08,952.613 1277.08,952.769 1278.08,952.898 1279.08,953.005 1280.08,953.096 1281.08,862.051 1282.09,862.299 1283.09,862.508 1284.09,862.688 1285.09,862.843 1286.09,862.978 1287.09,863.096 1288.1,863.201 1289.1,863.294 1290.1,863.378 1291.1,750.945 1292.1,751.052 1293.1,751.155 1294.11,751.252 1295.11,751.345 1296.11,751.434 1297.11,751.519 1298.11,751.599 1299.11,751.677 1300.11,751.751 1301.12,798.203 1302.12,798.428 1303.12,798.627 1304.12,798.803 1305.12,798.961 1306.12,799.104 1307.13,799.234 1308.13,799.355 1309.13,799.466 1310.13,799.57 1311.13,935.081 1312.13,935.237 1313.13,935.365 1314.14,935.471 1315.14,935.56 1316.14,935.636 1317.14,935.7 1318.14,935.757 1319.14,935.806 1320.15,935.85 1321.15,961.104 1322.15,961.224 1323.15,961.33 1324.15,961.423 1325.15,961.507 1326.16,961.583 1327.16,961.651 1328.16,961.715 1329.16,961.773 1330.16,961.827 1331.16,873.099 1332.16,873.249 1333.17,873.372 1334.17,873.474 1335.17,873.56 1336.17,873.634 1337.17,873.696 1338.17,873.751 1339.18,873.798 1340.18,873.841 1341.18,824.188 1342.18,824.225 1343.18,824.26 1344.18,824.291 1345.18,824.32 1346.19,824.347 1347.19,824.372 1348.19,824.396 1349.19,824.418 1350.19,824.44 1351.19,862.428 1352.2,862.723 1353.2,862.964 1354.2,863.161 1355.2,863.324 1356.2,863.462 1357.2,863.578 1358.21,863.678 1359.21,863.766 1360.21,863.842 1361.21,1065.72 1362.21,1065.87 1363.21,1065.99 1364.21,1066.1 1365.22,1066.19 1366.22,1066.27 1367.22,1066.34 1368.22,1066.41 1369.22,1066.47 1370.22,1066.52 1371.23,1049.73 1372.23,1049.86 1373.23,1049.99 1374.23,1050.12 1375.23,1050.23 1376.23,1050.35 1377.23,1050.46 1378.24,1050.56 1379.24,1050.66 1380.24,1050.76 1381.24,924.476 1382.24,924.519 1383.24,924.56 1384.25,924.599 1385.25,924.635 1386.25,924.67 1387.25,924.703 1388.25,924.735 1389.25,924.765 1390.26,924.795 1391.26,806.057 1392.26,806.148 1393.26,806.225 1394.26,806.292 1395.26,806.349 1396.26,806.4 1397.27,806.445 1398.27,806.486 1399.27,806.523 1400.27,806.556 1401.27,1071.05 1402.27,1071.28 1403.28,1071.48 1404.28,1071.66 1405.28,1071.82 1406.28,1071.96 1407.28,1072.08 1408.28,1072.2 1409.28,1072.3 1410.29,1072.4 1411.29,970.864 1412.29,970.976 1413.29,971.072 1414.29,971.154 1415.29,971.226 1416.3,971.288 1417.3,971.342 1418.3,971.391 1419.3,971.434 1420.3,971.473 1421.3,1183.17 1422.31,1183.26 1423.31,1183.34 1424.31,1183.42 1425.31,1183.49 1426.31,1183.56 1427.31,1183.63 1428.31,1183.69 1429.32,1183.75 1430.32,1183.81 1431.32,926.83 1432.32,926.898 1433.32,926.954 1434.32,927 1435.33,927.039 1436.33,927.071 1437.33,927.099 1438.33,927.123 1439.33,927.143 1440.33,927.162 1441.33,991.693 1442.34,991.824 1443.34,991.932 1444.34,992.02 1445.34,992.095 1446.34,992.158 1447.34,992.212 1448.35,992.258 1449.35,992.299 1450.35,992.336 1451.35,1166.74 1452.35,1166.96 1453.35,1167.14 1454.36,1167.29 1455.36,1167.42 1456.36,1167.53 1457.36,1167.63 1458.36,1167.71 1459.36,1167.79 1460.36,1167.85 1461.37,1197.81 1462.37,1197.86 1463.37,1197.91 1464.37,1197.96 1465.37,1198 1466.37,1198.04 1467.38,1198.08 1468.38,1198.12 1469.38,1198.15 1470.38,1198.18 1471.38,1079.14 1472.38,1079.34 1473.38,1079.51 1474.39,1079.64 1475.39,1079.75 1476.39,1079.84 1477.39,1079.91 1478.39,1079.97 1479.39,1080.03 1480.4,1080.07 1481.4,1002.32 1482.4,1002.53 1483.4,1002.71 1484.4,1002.89 1485.4,1003.05 1486.41,1003.2 1487.41,1003.34 1488.41,1003.47 1489.41,1003.6 1490.41,1003.72 1491.41,1135.25 1492.41,1135.47 1493.42,1135.66 1494.42,1135.82 1495.42,1135.95 1496.42,1136.05 1497.42,1136.14 1498.42,1136.22 1499.43,1136.29 1500.43,1136.35 1501.43,1299.76 1502.43,1300.3 1503.43,1300.74 1504.43,1301.11 1505.43,1301.42 1506.44,1301.68 1507.44,1301.9 1508.44,1302.09 1509.44,1302.25 1510.44,1302.39 1511.44,1445.02 1512.45,1445.14 1513.45,1445.24 1514.45,1445.33 1515.45,1445.41 1516.45,1445.48 1517.45,1445.54 1518.45,1445.61 1519.46,1445.66 1520.46,1445.72 1521.46,1067 1522.46,1067.18 1523.46,1067.33 1524.46,1067.46 1525.47,1067.57 1526.47,1067.67 1527.47,1067.75 1528.47,1067.82 1529.47,1067.88 1530.47,1067.93 1531.48,957.321 1532.48,957.408 1533.48,957.486 1534.48,957.557 1535.48,957.622 1536.48,957.683 1537.48,957.739 1538.49,957.792 1539.49,957.842 1540.49,957.89 1541.49,797.179 1542.49,797.283 1543.49,797.37 1544.5,797.442 1545.5,797.503 1546.5,797.555 1547.5,797.6 1548.5,797.64 1549.5,797.676 1550.5,797.708 1551.51,1125.38 1552.51,1125.42 1553.51,1125.46 1554.51,1125.49 1555.51,1125.52 1556.51,1125.55 1557.52,1125.57 1558.52,1125.59 1559.52,1125.61 1560.52,1125.63 1561.52,919.27 1562.52,919.504 1563.53,919.697 1564.53,919.859 1565.53,919.996 1566.53,920.113 1567.53,920.213 1568.53,920.301 1569.53,920.378 1570.54,920.447 1571.54,1326.57 1572.54,1326.69 1573.54,1326.79 1574.54,1326.88 1575.54,1326.96 1576.55,1327.04 1577.55,1327.1 1578.55,1327.16 1579.55,1327.22 1580.55,1327.27 1581.55,760.678 1582.55,760.853 1583.56,761.005 1584.56,761.139 1585.56,761.259 1586.56,761.367 1587.56,761.466 1588.56,761.558 1589.57,761.643 1590.57,761.724 1591.57,1215.18 1592.57,1215.25 1593.57,1215.32 1594.57,1215.39 1595.58,1215.44 1596.58,1215.5 1597.58,1215.55 1598.58,1215.6 1599.58,1215.64 1600.58,1215.69 1601.58,991.763 1602.59,991.892 1603.59,992.003 1604.59,992.101 1605.59,992.187 1606.59,992.263 1607.59,992.332 1608.6,992.394 1609.6,992.451 1610.6,992.503 1611.6,791.628 1612.6,791.721 1613.6,791.808 1614.6,791.89 1615.61,791.967 1616.61,792.04 1617.61,792.109 1618.61,792.175 1619.61,792.237 1620.61,792.297 1621.62,806.32 1622.62,806.396 1623.62,806.464 1624.62,806.527 1625.62,806.584 1626.62,806.637 1627.63,806.686 1628.63,806.733 1629.63,806.777 1630.63,806.819 1631.63,607.161 1632.63,607.407 1633.63,607.603 1634.64,607.762 1635.64,607.891 1636.64,607.998 1637.64,608.087 1638.64,608.162 1639.64,608.227 1640.65,608.283 1641.65,1098.1 1642.65,1098.38 1643.65,1098.6 1644.65,1098.78 1645.65,1098.93 1646.65,1099.05 1647.66,1099.15 1648.66,1099.23 1649.66,1099.3 1650.66,1099.36 1651.66,807.625 1652.66,807.809 1653.67,807.964 1654.67,808.095 1655.67,808.207 1656.67,808.305 1657.67,808.391 1658.67,808.467 1659.68,808.536 1660.68,808.598 1661.68,877.954 1662.68,877.994 1663.68,878.028 1664.68,878.057 1665.68,878.082 1666.69,878.103 1667.69,878.122 1668.69,878.138 1669.69,878.152 1670.69,878.165 1671.69,696.241 1672.7,696.276 1673.7,696.306 1674.7,696.334 1675.7,696.359 1676.7,696.382 1677.7,696.404 1678.7,696.424 1679.71,696.444 1680.71,696.462 1681.71,555.092 1682.71,555.273 1683.71,555.422 1684.71,555.546 1685.72,555.65 1686.72,555.739 1687.72,555.817 1688.72,555.885 1689.72,555.946 1690.72,556.001 1691.73,953.494 1692.73,953.553 1693.73,953.607 1694.73,953.656 1695.73,953.7 1696.73,953.741 1697.73,953.779 1698.74,953.815 1699.74,953.849 1700.74,953.88 1701.74,814.434 1702.74,814.582 1703.74,814.701 1704.75,814.798 1705.75,814.876 1706.75,814.941 1707.75,814.994 1708.75,815.039 1709.75,815.076 1710.75,815.108 1711.76,775.969 1712.76,776.191 1713.76,776.374 1714.76,776.525 1715.76,776.65 1716.76,776.754 1717.77,776.843 1718.77,776.919 1719.77,776.985 1720.77,777.042 1721.77,844.151 1722.77,844.272 1723.78,844.379 1724.78,844.475 1725.78,844.563 1726.78,844.643 1727.78,844.716 1728.78,844.784 1729.78,844.848 1730.79,844.907 1731.79,414.085 1732.79,414.283 1733.79,414.453 1734.79,414.601 1735.79,414.732 1736.8,414.849 1737.8,414.954 1738.8,415.049 1739.8,415.136 1740.8,415.217 1741.8,726.78 1742.8,726.867 1743.81,726.945 1744.81,727.015 1745.81,727.079 1746.81,727.137 1747.81,727.192 1748.81,727.242 1749.82,727.29 1750.82,727.335 1751.82,812.779 1752.82,812.888 1753.82,812.982 1754.82,813.062 1755.83,813.131 1756.83,813.192 1757.83,813.246 1758.83,813.294 1759.83,813.338 1760.83,813.378 1761.83,1200.78 1762.84,1200.91 1763.84,1201.02 1764.84,1201.12 1765.84,1201.2 1766.84,1201.28 1767.84,1201.35 1768.85,1201.42 1769.85,1201.48 1770.85,1201.54 1771.85,1010.43 1772.85,1010.6 1773.85,1010.74 1774.85,1010.85 1775.86,1010.95 1776.86,1011.02 1777.86,1011.09 1778.86,1011.15 1779.86,1011.2 1780.86,1011.24 1781.87,781.477 1782.87,781.619 1783.87,781.743 1784.87,781.852 1785.87,781.949 1786.87,782.036 1787.88,782.115 1788.88,782.188 1789.88,782.254 1790.88,782.317 1791.88,1099.05 1792.88,1099.26 1793.88,1099.43 1794.89,1099.57 1795.89,1099.69 1796.89,1099.78 1797.89,1099.87 1798.89,1099.94 1799.89,1100 1800.9,1100.05 1801.9,1074.94 1802.9,1074.97 1803.9,1075 1804.9,1075.03 1805.9,1075.06 1806.9,1075.08 1807.91,1075.1 1808.91,1075.12 1809.91,1075.14 1810.91,1075.16 1811.91,598.865 1812.91,598.909 1813.92,598.95 1814.92,598.989 1815.92,599.026 1816.92,599.062 1817.92,599.095 1818.92,599.128 1819.93,599.159 1820.93,599.188 1821.93,1018.51 1822.93,1018.7 1823.93,1018.87 1824.93,1019.01 1825.93,1019.12 1826.94,1019.22 1827.94,1019.31 1828.94,1019.39 1829.94,1019.45 1830.94,1019.51 1831.94,1020.41 1832.95,1020.59 1833.95,1020.74 1834.95,1020.87 1835.95,1020.97 1836.95,1021.07 1837.95,1021.15 1838.95,1021.22 1839.96,1021.28 1840.96,1021.33 1841.96,614.638 1842.96,614.738 1843.96,614.824 1844.96,614.901 1845.97,614.969 1846.97,615.031 1847.97,615.087 1848.97,615.14 1849.97,615.188 1850.97,615.235 1851.98,788.876 1852.98,789.03 1853.98,789.158 1854.98,789.266 1855.98,789.356 1856.98,789.434 1857.98,789.502 1858.99,789.562 1859.99,789.615 1860.99,789.663 1861.99,946.28 1862.99,946.346 1863.99,946.404 1865,946.457 1866,946.505 1867,946.549 1868,946.59 1869,946.628 1870,946.663 1871,946.697 1872.01,853.39 1873.01,853.571 1874.01,853.72 1875.01,853.843 1876.01,853.945 1877.01,854.03 1878.02,854.102 1879.02,854.163 1880.02,854.216 1881.02,854.261 1882.02,717.131 1883.02,717.272 1884.03,717.388 1885.03,717.485 1886.03,717.566 1887.03,717.636 1888.03,717.696 1889.03,717.749 1890.03,717.795 1891.04,717.837 1892.04,681.91 1893.04,682.03 1894.04,682.14 1895.04,682.241 1896.04,682.334 1897.05,682.421 1898.05,682.502 1899.05,682.579 1900.05,682.651 1901.05,682.72 1902.05,519.237 1903.05,519.378 1904.06,519.493 1905.06,519.587 1906.06,519.666 1907.06,519.733 1908.06,519.789 1909.06,519.838 1910.07,519.881 1911.07,519.919 1912.07,598.544 1913.07,598.642 1914.07,598.725 1915.07,598.795 1916.07,598.855 1917.08,598.907 1918.08,598.952 1919.08,598.993 1920.08,599.029 1921.08,599.061 1922.08,1156.81 1923.09,1156.96 1924.09,1157.09 1925.09,1157.2 1926.09,1157.29 1927.09,1157.37 1928.09,1157.44 1929.1,1157.5 1930.1,1157.56 1931.1,1157.61 1932.1,683.354 1933.1,683.414 1934.1,683.469 1935.1,683.52 1936.11,683.567 1937.11,683.611 1938.11,683.652 1939.11,683.691 1940.11,683.728 1941.11,683.764 1942.12,882.241 1943.12,882.347 1944.12,882.436 1945.12,882.513 1946.12,882.581 1947.12,882.64 1948.12,882.692 1949.13,882.74 1950.13,882.783 1951.13,882.822 1952.13,890.998 1953.13,891.214 1954.13,891.39 1955.14,891.534 1956.14,891.654 1957.14,891.753 1958.14,891.837 1959.14,891.909 1960.14,891.971 1961.15,892.025 1962.15,983.144 1963.15,983.275 1964.15,983.379 1965.15,983.46 1966.15,983.524 1967.15,983.574 1968.16,983.614 1969.16,983.646 1970.16,983.672 1971.16,983.692 1972.16,638.771 1973.16,638.807 1974.17,638.842 1975.17,638.876 1976.17,638.908 1977.17,638.939 1978.17,638.97 1979.17,638.999 1980.17,639.027 1981.18,639.055 1982.18,832.08 1983.18,832.138 1984.18,832.188 1985.18,832.233 1986.18,832.272 1987.19,832.308 1988.19,832.34 1989.19,832.369 1990.19,832.395 1991.19,832.42 1992.19,641.089 1993.2,641.154 1994.2,641.208 1995.2,641.255 1996.2,641.295 1997.2,641.329 1998.2,641.36 1999.2,641.386 2000.21,641.41 2001.21,641.432 2002.21,891.507 2003.21,891.521 2004.21,891.533 2005.21,891.545 2006.22,891.555 2007.22,891.565 2008.22,891.574 2009.22,891.583 2010.22,891.592 2011.22,891.599 2012.22,861.768 2013.23,861.884 2014.23,861.99 2015.23,862.088 2016.23,862.18 2017.23,862.266 2018.23,862.347 2019.24,862.423 2020.24,862.495 2021.24,862.564 2022.24,722.311 2023.24,722.525 2024.24,722.7 2025.25,722.845 2026.25,722.967 2027.25,723.07 2028.25,723.158 2029.25,723.235 2030.25,723.302 2031.25,723.362 2032.26,767.035 2033.26,767.185 2034.26,767.324 2035.26,767.454 2036.26,767.575 2037.26,767.69 2038.27,767.799 2039.27,767.902 2040.27,768 2041.27,768.094 2042.27,711.819 2043.27,711.934 2044.27,712.026 2045.28,712.099 2046.28,712.158 2047.28,712.205 2048.28,712.244 2049.28,712.276 2050.28,712.303 2051.29,712.326 2052.29,702.371 2053.29,702.482 2054.29,702.579 2055.29,702.664 2056.29,702.739 2057.3,702.806 2058.3,702.866 2059.3,702.921 2060.3,702.971 2061.3,703.017 2062.3,619.678 2063.3,619.762 2064.31,619.833 2065.31,619.894 2066.31,619.947 2067.31,619.994 2068.31,620.036 2069.31,620.073 2070.32,620.107 2071.32,620.137 2072.32,660.002 2073.32,660.093 2074.32,660.177 2075.32,660.255 2076.32,660.327 2077.33,660.394 2078.33,660.458 2079.33,660.517 2080.33,660.573 2081.33,660.626 2082.33,616.844 2083.34,617.013 2084.34,617.155 2085.34,617.277 2086.34,617.383 2087.34,617.476 2088.34,617.558 2089.35,617.631 2090.35,617.698 2091.35,617.758 2092.35,919.266 2093.35,919.498 2094.35,919.692 2095.35,919.856 2096.36,919.996 2097.36,920.117 2098.36,920.223 2099.36,920.317 2100.36,920.4 2101.36,920.476 2102.37,1004.74 2103.37,1005.06 2104.37,1005.32 2105.37,1005.52 2106.37,1005.69 2107.37,1005.83 2108.37,1005.94 2109.38,1006.04 2110.38,1006.12 2111.38,1006.19 2112.38,933.733 2113.38,933.82 2114.38,933.893 2115.39,933.956 2116.39,934.01 2117.39,934.057 2118.39,934.099 2119.39,934.136 2120.39,934.17 2121.4,934.201 2122.4,761.513 2123.4,761.595 2124.4,761.668 2125.4,761.732 2126.4,761.79 2127.4,761.842 2128.41,761.89 2129.41,761.934 2130.41,761.975 2131.41,762.013 2132.41,621.058 2133.41,621.111 2134.42,621.16 2135.42,621.204 2136.42,621.246 2137.42,621.284 2138.42,621.32 2139.42,621.354 2140.42,621.386 2141.43,621.416 2142.43,833.976 2143.43,834.141 2144.43,834.282 2145.43,834.402 2146.43,834.505 2147.44,834.596 2148.44,834.676 2149.44,834.747 2150.44,834.81 2151.44,834.868 2152.44,741.475 2153.45,741.546 2154.45,741.608 2155.45,741.663 2156.45,741.712 2157.45,741.756 2158.45,741.796 2159.45,741.832 2160.46,741.866 2161.46,741.897 2162.46,808.851 2163.46,808.968 2164.46,809.071 2165.46,809.163 2166.47,809.247 2167.47,809.322 2168.47,809.391 2169.47,809.455 2170.47,809.514 2171.47,809.569 2172.47,488.368 2173.48,488.549 2174.48,488.707 2175.48,488.847 2176.48,488.973 2177.48,489.087 2178.48,489.19 2179.49,489.286 2180.49,489.374 2181.49,489.456 2182.49,577.56 2183.49,577.797 2184.49,577.995 2185.5,578.162 2186.5,578.305 2187.5,578.428 2188.5,578.536 2189.5,578.631 2190.5,578.716 2191.5,578.792 2192.51,1103.29 2193.51,1103.44 2194.51,1103.57 2195.51,1103.69 2196.51,1103.79 2197.51,1103.89 2198.52,1103.98 2199.52,1104.07 2200.52,1104.15 2201.52,1104.22 2202.52,978.26 2203.52,978.327 2204.52,978.385 2205.53,978.436 2206.53,978.481 2207.53,978.521 2208.53,978.558 2209.53,978.591 2210.53,978.622 2211.54,978.65 2212.54,766.467 2213.54,766.515 2214.54,766.558 2215.54,766.598 2216.54,766.636 2217.55,766.67 2218.55,766.703 2219.55,766.734 2220.55,766.763 2221.55,766.79 2222.55,885.081 2223.55,885.236 2224.56,885.361 2225.56,885.463 2226.56,885.547 2227.56,885.616 2228.56,885.674 2229.56,885.722 2230.57,885.764 2231.57,885.8 2232.57,1020.27 2233.57,1020.36 2234.57,1020.44 2235.57,1020.51 2236.57,1020.58 2237.58,1020.64 2238.58,1020.7 2239.58,1020.75 2240.58,1020.8 2241.58,1020.85 2242.58,873.329 2243.59,873.454 2244.59,873.56 2245.59,873.65 2246.59,873.727 2247.59,873.795 2248.59,873.855 2249.6,873.909 2250.6,873.958 2251.6,874.002 2252.6,879.578 2253.6,879.801 2254.6,879.987 2255.6,880.144 2256.61,880.277 2257.61,880.391 2258.61,880.491 2259.61,880.577 2260.61,880.654 2261.61,880.723 2262.62,782.547 2263.62,782.876 2264.62,783.148 2265.62,783.373 2266.62,783.562 2267.62,783.722 2268.62,783.858 2269.63,783.975 2270.63,784.077 2271.63,784.167 2272.63,823.305 2273.63,823.414 2274.63,823.509 2275.64,823.594 2276.64,823.669 2277.64,823.737 2278.64,823.8 2279.64,823.857 2280.64,823.91 2281.65,823.96 2282.65,1038.22 2283.65,1038.32 2284.65,1038.4 2285.65,1038.47 2286.65,1038.54 2287.65,1038.6 2288.66,1038.65 2289.66,1038.7 2290.66,1038.75 2291.66,1038.79 2292.66,1038.83 "/>
<path clip-path="url(#clip560)" d="M2017.22 198.898 L2281.98 198.898 L2281.98 95.2176 L2017.22 95.2176  Z" fill="#ffffff" fill-rule="evenodd" fill-opacity="1"/>
<polyline clip-path="url(#clip560)" style="stroke:#000000; stroke-linecap:round; stroke-linejoin:round; stroke-width:4; stroke-opacity:1; fill:none" points="2017.22,198.898 2281.98,198.898 2281.98,95.2176 2017.22,95.2176 2017.22,198.898 "/>
<polyline clip-path="url(#clip560)" style="stroke:#009af9; stroke-linecap:round; stroke-linejoin:round; stroke-width:4; stroke-opacity:1; fill:none" points="2040.81,147.058 2182.36,147.058 "/>
<path clip-path="url(#clip560)" d="M2219.8 166.745 Q2217.99 171.375 2216.28 172.787 Q2214.57 174.199 2211.7 174.199 L2208.29 174.199 L2208.29 170.634 L2210.79 170.634 Q2212.55 170.634 2213.53 169.8 Q2214.5 168.967 2215.68 165.865 L2216.44 163.921 L2205.96 138.412 L2210.47 138.412 L2218.57 158.689 L2226.67 138.412 L2231.19 138.412 L2219.8 166.745 Z" fill="#000000" fill-rule="nonzero" fill-opacity="1" /><path clip-path="url(#clip560)" d="M2238.48 160.402 L2246.12 160.402 L2246.12 134.037 L2237.81 135.703 L2237.81 131.444 L2246.07 129.778 L2250.75 129.778 L2250.75 160.402 L2258.39 160.402 L2258.39 164.338 L2238.48 164.338 L2238.48 160.402 Z" fill="#000000" fill-rule="nonzero" fill-opacity="1" /></svg>
