<?xml version="1.0" encoding="utf-8"?>
<svg xmlns="http://www.w3.org/2000/svg" xmlns:xlink="http://www.w3.org/1999/xlink" width="600" height="400" viewBox="0 0 2400 1600">
<defs>
  <clipPath id="clip020">
    <rect x="0" y="0" width="2400" height="1600"/>
  </clipPath>
</defs>
<path clip-path="url(#clip020)" d="M0 1600 L2400 1600 L2400 0 L0 0  Z" fill="#ffffff" fill-rule="evenodd" fill-opacity="1"/>
<defs>
  <clipPath id="clip021">
    <rect x="480" y="0" width="1681" height="1600"/>
  </clipPath>
</defs>
<path clip-path="url(#clip020)" d="M199.283 1486.45 L2352.76 1486.45 L2352.76 47.2441 L199.283 47.2441  Z" fill="#ffffff" fill-rule="evenodd" fill-opacity="1"/>
<defs>
  <clipPath id="clip022">
    <rect x="199" y="47" width="2154" height="1440"/>
  </clipPath>
</defs>
<polyline clip-path="url(#clip022)" style="stroke:#000000; stroke-linecap:round; stroke-linejoin:round; stroke-width:2; stroke-opacity:0.1; fill:none" points="260.231,1486.45 260.231,47.2441 "/>
<polyline clip-path="url(#clip022)" style="stroke:#000000; stroke-linecap:round; stroke-linejoin:round; stroke-width:2; stroke-opacity:0.1; fill:none" points="768.125,1486.45 768.125,47.2441 "/>
<polyline clip-path="url(#clip022)" style="stroke:#000000; stroke-linecap:round; stroke-linejoin:round; stroke-width:2; stroke-opacity:0.1; fill:none" points="1276.02,1486.45 1276.02,47.2441 "/>
<polyline clip-path="url(#clip022)" style="stroke:#000000; stroke-linecap:round; stroke-linejoin:round; stroke-width:2; stroke-opacity:0.1; fill:none" points="1783.91,1486.45 1783.91,47.2441 "/>
<polyline clip-path="url(#clip022)" style="stroke:#000000; stroke-linecap:round; stroke-linejoin:round; stroke-width:2; stroke-opacity:0.1; fill:none" points="2291.81,1486.45 2291.81,47.2441 "/>
<polyline clip-path="url(#clip020)" style="stroke:#000000; stroke-linecap:round; stroke-linejoin:round; stroke-width:4; stroke-opacity:1; fill:none" points="199.283,1486.45 2352.76,1486.45 "/>
<polyline clip-path="url(#clip020)" style="stroke:#000000; stroke-linecap:round; stroke-linejoin:round; stroke-width:4; stroke-opacity:1; fill:none" points="260.231,1486.45 260.231,1467.55 "/>
<polyline clip-path="url(#clip020)" style="stroke:#000000; stroke-linecap:round; stroke-linejoin:round; stroke-width:4; stroke-opacity:1; fill:none" points="768.125,1486.45 768.125,1467.55 "/>
<polyline clip-path="url(#clip020)" style="stroke:#000000; stroke-linecap:round; stroke-linejoin:round; stroke-width:4; stroke-opacity:1; fill:none" points="1276.02,1486.45 1276.02,1467.55 "/>
<polyline clip-path="url(#clip020)" style="stroke:#000000; stroke-linecap:round; stroke-linejoin:round; stroke-width:4; stroke-opacity:1; fill:none" points="1783.91,1486.45 1783.91,1467.55 "/>
<polyline clip-path="url(#clip020)" style="stroke:#000000; stroke-linecap:round; stroke-linejoin:round; stroke-width:4; stroke-opacity:1; fill:none" points="2291.81,1486.45 2291.81,1467.55 "/>
<path clip-path="url(#clip020)" d="M260.231 1517.37 Q256.619 1517.37 254.791 1520.93 Q252.985 1524.47 252.985 1531.6 Q252.985 1538.71 254.791 1542.27 Q256.619 1545.82 260.231 1545.82 Q263.865 1545.82 265.67 1542.27 Q267.499 1538.71 267.499 1531.6 Q267.499 1524.47 265.67 1520.93 Q263.865 1517.37 260.231 1517.37 M260.231 1513.66 Q266.041 1513.66 269.096 1518.27 Q272.175 1522.85 272.175 1531.6 Q272.175 1540.33 269.096 1544.94 Q266.041 1549.52 260.231 1549.52 Q254.42 1549.52 251.342 1544.94 Q248.286 1540.33 248.286 1531.6 Q248.286 1522.85 251.342 1518.27 Q254.42 1513.66 260.231 1513.66 Z" fill="#000000" fill-rule="nonzero" fill-opacity="1" /><path clip-path="url(#clip020)" d="M727.743 1514.29 L746.1 1514.29 L746.1 1518.22 L732.026 1518.22 L732.026 1526.7 Q733.044 1526.35 734.063 1526.19 Q735.081 1526 736.1 1526 Q741.887 1526 745.266 1529.17 Q748.646 1532.34 748.646 1537.76 Q748.646 1543.34 745.174 1546.44 Q741.702 1549.52 735.382 1549.52 Q733.206 1549.52 730.938 1549.15 Q728.692 1548.78 726.285 1548.04 L726.285 1543.34 Q728.368 1544.47 730.591 1545.03 Q732.813 1545.58 735.29 1545.58 Q739.294 1545.58 741.632 1543.48 Q743.97 1541.37 743.97 1537.76 Q743.97 1534.15 741.632 1532.04 Q739.294 1529.94 735.29 1529.94 Q733.415 1529.94 731.54 1530.35 Q729.688 1530.77 727.743 1531.65 L727.743 1514.29 Z" fill="#000000" fill-rule="nonzero" fill-opacity="1" /><path clip-path="url(#clip020)" d="M767.859 1517.37 Q764.248 1517.37 762.419 1520.93 Q760.614 1524.47 760.614 1531.6 Q760.614 1538.71 762.419 1542.27 Q764.248 1545.82 767.859 1545.82 Q771.493 1545.82 773.299 1542.27 Q775.127 1538.71 775.127 1531.6 Q775.127 1524.47 773.299 1520.93 Q771.493 1517.37 767.859 1517.37 M767.859 1513.66 Q773.669 1513.66 776.725 1518.27 Q779.803 1522.85 779.803 1531.6 Q779.803 1540.33 776.725 1544.94 Q773.669 1549.52 767.859 1549.52 Q762.049 1549.52 758.97 1544.94 Q755.914 1540.33 755.914 1531.6 Q755.914 1522.85 758.97 1518.27 Q762.049 1513.66 767.859 1513.66 Z" fill="#000000" fill-rule="nonzero" fill-opacity="1" /><path clip-path="url(#clip020)" d="M798.021 1517.37 Q794.41 1517.37 792.581 1520.93 Q790.775 1524.47 790.775 1531.6 Q790.775 1538.71 792.581 1542.27 Q794.41 1545.82 798.021 1545.82 Q801.655 1545.82 803.46 1542.27 Q805.289 1538.71 805.289 1531.6 Q805.289 1524.47 803.46 1520.93 Q801.655 1517.37 798.021 1517.37 M798.021 1513.66 Q803.831 1513.66 806.886 1518.27 Q809.965 1522.85 809.965 1531.6 Q809.965 1540.33 806.886 1544.94 Q803.831 1549.52 798.021 1549.52 Q792.211 1549.52 789.132 1544.94 Q786.076 1540.33 786.076 1531.6 Q786.076 1522.85 789.132 1518.27 Q792.211 1513.66 798.021 1513.66 Z" fill="#000000" fill-rule="nonzero" fill-opacity="1" /><path clip-path="url(#clip020)" d="M1220.55 1544.91 L1228.18 1544.91 L1228.18 1518.55 L1219.87 1520.21 L1219.87 1515.95 L1228.14 1514.29 L1232.81 1514.29 L1232.81 1544.91 L1240.45 1544.91 L1240.45 1548.85 L1220.55 1548.85 L1220.55 1544.91 Z" fill="#000000" fill-rule="nonzero" fill-opacity="1" /><path clip-path="url(#clip020)" d="M1259.9 1517.37 Q1256.29 1517.37 1254.46 1520.93 Q1252.65 1524.47 1252.65 1531.6 Q1252.65 1538.71 1254.46 1542.27 Q1256.29 1545.82 1259.9 1545.82 Q1263.53 1545.82 1265.34 1542.27 Q1267.17 1538.71 1267.17 1531.6 Q1267.17 1524.47 1265.34 1520.93 Q1263.53 1517.37 1259.9 1517.37 M1259.9 1513.66 Q1265.71 1513.66 1268.76 1518.27 Q1271.84 1522.85 1271.84 1531.6 Q1271.84 1540.33 1268.76 1544.94 Q1265.71 1549.52 1259.9 1549.52 Q1254.09 1549.52 1251.01 1544.94 Q1247.95 1540.33 1247.95 1531.6 Q1247.95 1522.85 1251.01 1518.27 Q1254.09 1513.66 1259.9 1513.66 Z" fill="#000000" fill-rule="nonzero" fill-opacity="1" /><path clip-path="url(#clip020)" d="M1290.06 1517.37 Q1286.45 1517.37 1284.62 1520.93 Q1282.81 1524.47 1282.81 1531.6 Q1282.81 1538.71 1284.62 1542.27 Q1286.45 1545.82 1290.06 1545.82 Q1293.69 1545.82 1295.5 1542.27 Q1297.33 1538.71 1297.33 1531.6 Q1297.33 1524.47 1295.5 1520.93 Q1293.69 1517.37 1290.06 1517.37 M1290.06 1513.66 Q1295.87 1513.66 1298.92 1518.27 Q1302 1522.85 1302 1531.6 Q1302 1540.33 1298.92 1544.94 Q1295.87 1549.52 1290.06 1549.52 Q1284.25 1549.52 1281.17 1544.94 Q1278.11 1540.33 1278.11 1531.6 Q1278.11 1522.85 1281.17 1518.27 Q1284.25 1513.66 1290.06 1513.66 Z" fill="#000000" fill-rule="nonzero" fill-opacity="1" /><path clip-path="url(#clip020)" d="M1320.22 1517.37 Q1316.61 1517.37 1314.78 1520.93 Q1312.98 1524.47 1312.98 1531.6 Q1312.98 1538.71 1314.78 1542.27 Q1316.61 1545.82 1320.22 1545.82 Q1323.85 1545.82 1325.66 1542.27 Q1327.49 1538.71 1327.49 1531.6 Q1327.49 1524.47 1325.66 1520.93 Q1323.85 1517.37 1320.22 1517.37 M1320.22 1513.66 Q1326.03 1513.66 1329.09 1518.27 Q1332.17 1522.85 1332.17 1531.6 Q1332.17 1540.33 1329.09 1544.94 Q1326.03 1549.52 1320.22 1549.52 Q1314.41 1549.52 1311.33 1544.94 Q1308.28 1540.33 1308.28 1531.6 Q1308.28 1522.85 1311.33 1518.27 Q1314.41 1513.66 1320.22 1513.66 Z" fill="#000000" fill-rule="nonzero" fill-opacity="1" /><path clip-path="url(#clip020)" d="M1728.44 1544.91 L1736.08 1544.91 L1736.08 1518.55 L1727.77 1520.21 L1727.77 1515.95 L1736.03 1514.29 L1740.71 1514.29 L1740.71 1544.91 L1748.35 1544.91 L1748.35 1548.85 L1728.44 1548.85 L1728.44 1544.91 Z" fill="#000000" fill-rule="nonzero" fill-opacity="1" /><path clip-path="url(#clip020)" d="M1757.84 1514.29 L1776.19 1514.29 L1776.19 1518.22 L1762.12 1518.22 L1762.12 1526.7 Q1763.14 1526.35 1764.16 1526.19 Q1765.18 1526 1766.19 1526 Q1771.98 1526 1775.36 1529.17 Q1778.74 1532.34 1778.74 1537.76 Q1778.74 1543.34 1775.27 1546.44 Q1771.8 1549.52 1765.48 1549.52 Q1763.3 1549.52 1761.03 1549.15 Q1758.79 1548.78 1756.38 1548.04 L1756.38 1543.34 Q1758.46 1544.47 1760.69 1545.03 Q1762.91 1545.58 1765.38 1545.58 Q1769.39 1545.58 1771.73 1543.48 Q1774.06 1541.37 1774.06 1537.76 Q1774.06 1534.15 1771.73 1532.04 Q1769.39 1529.94 1765.38 1529.94 Q1763.51 1529.94 1761.63 1530.35 Q1759.78 1530.77 1757.84 1531.65 L1757.84 1514.29 Z" fill="#000000" fill-rule="nonzero" fill-opacity="1" /><path clip-path="url(#clip020)" d="M1797.95 1517.37 Q1794.34 1517.37 1792.51 1520.93 Q1790.71 1524.47 1790.71 1531.6 Q1790.71 1538.71 1792.51 1542.27 Q1794.34 1545.82 1797.95 1545.82 Q1801.59 1545.82 1803.39 1542.27 Q1805.22 1538.71 1805.22 1531.6 Q1805.22 1524.47 1803.39 1520.93 Q1801.59 1517.37 1797.95 1517.37 M1797.95 1513.66 Q1803.76 1513.66 1806.82 1518.27 Q1809.9 1522.85 1809.9 1531.6 Q1809.9 1540.33 1806.82 1544.94 Q1803.76 1549.52 1797.95 1549.52 Q1792.14 1549.52 1789.06 1544.94 Q1786.01 1540.33 1786.01 1531.6 Q1786.01 1522.85 1789.06 1518.27 Q1792.14 1513.66 1797.95 1513.66 Z" fill="#000000" fill-rule="nonzero" fill-opacity="1" /><path clip-path="url(#clip020)" d="M1828.12 1517.37 Q1824.5 1517.37 1822.68 1520.93 Q1820.87 1524.47 1820.87 1531.6 Q1820.87 1538.71 1822.68 1542.27 Q1824.5 1545.82 1828.12 1545.82 Q1831.75 1545.82 1833.55 1542.27 Q1835.38 1538.71 1835.38 1531.6 Q1835.38 1524.47 1833.55 1520.93 Q1831.75 1517.37 1828.12 1517.37 M1828.12 1513.66 Q1833.93 1513.66 1836.98 1518.27 Q1840.06 1522.85 1840.06 1531.6 Q1840.06 1540.33 1836.98 1544.94 Q1833.93 1549.52 1828.12 1549.52 Q1822.31 1549.52 1819.23 1544.94 Q1816.17 1540.33 1816.17 1531.6 Q1816.17 1522.85 1819.23 1518.27 Q1822.31 1513.66 1828.12 1513.66 Z" fill="#000000" fill-rule="nonzero" fill-opacity="1" /><path clip-path="url(#clip020)" d="M2240.42 1544.91 L2256.74 1544.91 L2256.74 1548.85 L2234.79 1548.85 L2234.79 1544.91 Q2237.46 1542.16 2242.04 1537.53 Q2246.65 1532.88 2247.83 1531.53 Q2250.07 1529.01 2250.95 1527.27 Q2251.86 1525.51 2251.86 1523.82 Q2251.86 1521.07 2249.91 1519.33 Q2247.99 1517.6 2244.89 1517.6 Q2242.69 1517.6 2240.23 1518.36 Q2237.8 1519.13 2235.03 1520.68 L2235.03 1515.95 Q2237.85 1514.82 2240.3 1514.24 Q2242.76 1513.66 2244.79 1513.66 Q2250.17 1513.66 2253.36 1516.35 Q2256.55 1519.03 2256.55 1523.52 Q2256.55 1525.65 2255.74 1527.57 Q2254.96 1529.47 2252.85 1532.07 Q2252.27 1532.74 2249.17 1535.95 Q2246.07 1539.15 2240.42 1544.91 Z" fill="#000000" fill-rule="nonzero" fill-opacity="1" /><path clip-path="url(#clip020)" d="M2276.55 1517.37 Q2272.94 1517.37 2271.11 1520.93 Q2269.31 1524.47 2269.31 1531.6 Q2269.31 1538.71 2271.11 1542.27 Q2272.94 1545.82 2276.55 1545.82 Q2280.19 1545.82 2281.99 1542.27 Q2283.82 1538.71 2283.82 1531.6 Q2283.82 1524.47 2281.99 1520.93 Q2280.19 1517.37 2276.55 1517.37 M2276.55 1513.66 Q2282.36 1513.66 2285.42 1518.27 Q2288.5 1522.85 2288.5 1531.6 Q2288.5 1540.33 2285.42 1544.94 Q2282.36 1549.52 2276.55 1549.52 Q2270.74 1549.52 2267.67 1544.94 Q2264.61 1540.33 2264.61 1531.6 Q2264.61 1522.85 2267.67 1518.27 Q2270.74 1513.66 2276.55 1513.66 Z" fill="#000000" fill-rule="nonzero" fill-opacity="1" /><path clip-path="url(#clip020)" d="M2306.72 1517.37 Q2303.1 1517.37 2301.28 1520.93 Q2299.47 1524.47 2299.47 1531.6 Q2299.47 1538.71 2301.28 1542.27 Q2303.1 1545.82 2306.72 1545.82 Q2310.35 1545.82 2312.16 1542.27 Q2313.98 1538.71 2313.98 1531.6 Q2313.98 1524.47 2312.16 1520.93 Q2310.35 1517.37 2306.72 1517.37 M2306.72 1513.66 Q2312.53 1513.66 2315.58 1518.27 Q2318.66 1522.85 2318.66 1531.6 Q2318.66 1540.33 2315.58 1544.94 Q2312.53 1549.52 2306.72 1549.52 Q2300.91 1549.52 2297.83 1544.94 Q2294.77 1540.33 2294.77 1531.6 Q2294.77 1522.85 2297.83 1518.27 Q2300.91 1513.66 2306.72 1513.66 Z" fill="#000000" fill-rule="nonzero" fill-opacity="1" /><path clip-path="url(#clip020)" d="M2336.88 1517.37 Q2333.27 1517.37 2331.44 1520.93 Q2329.63 1524.47 2329.63 1531.6 Q2329.63 1538.71 2331.44 1542.27 Q2333.27 1545.82 2336.88 1545.82 Q2340.51 1545.82 2342.32 1542.27 Q2344.15 1538.71 2344.15 1531.6 Q2344.15 1524.47 2342.32 1520.93 Q2340.51 1517.37 2336.88 1517.37 M2336.88 1513.66 Q2342.69 1513.66 2345.74 1518.27 Q2348.82 1522.85 2348.82 1531.6 Q2348.82 1540.33 2345.74 1544.94 Q2342.69 1549.52 2336.88 1549.52 Q2331.07 1549.52 2327.99 1544.94 Q2324.93 1540.33 2324.93 1531.6 Q2324.93 1522.85 2327.99 1518.27 Q2331.07 1513.66 2336.88 1513.66 Z" fill="#000000" fill-rule="nonzero" fill-opacity="1" /><polyline clip-path="url(#clip022)" style="stroke:#000000; stroke-linecap:round; stroke-linejoin:round; stroke-width:2; stroke-opacity:0.1; fill:none" points="199.283,1385.68 2352.76,1385.68 "/>
<polyline clip-path="url(#clip022)" style="stroke:#000000; stroke-linecap:round; stroke-linejoin:round; stroke-width:2; stroke-opacity:0.1; fill:none" points="199.283,1037.31 2352.76,1037.31 "/>
<polyline clip-path="url(#clip022)" style="stroke:#000000; stroke-linecap:round; stroke-linejoin:round; stroke-width:2; stroke-opacity:0.1; fill:none" points="199.283,688.944 2352.76,688.944 "/>
<polyline clip-path="url(#clip022)" style="stroke:#000000; stroke-linecap:round; stroke-linejoin:round; stroke-width:2; stroke-opacity:0.1; fill:none" points="199.283,340.576 2352.76,340.576 "/>
<polyline clip-path="url(#clip020)" style="stroke:#000000; stroke-linecap:round; stroke-linejoin:round; stroke-width:4; stroke-opacity:1; fill:none" points="199.283,1486.45 199.283,47.2441 "/>
<polyline clip-path="url(#clip020)" style="stroke:#000000; stroke-linecap:round; stroke-linejoin:round; stroke-width:4; stroke-opacity:1; fill:none" points="199.283,1385.68 218.181,1385.68 "/>
<polyline clip-path="url(#clip020)" style="stroke:#000000; stroke-linecap:round; stroke-linejoin:round; stroke-width:4; stroke-opacity:1; fill:none" points="199.283,1037.31 218.181,1037.31 "/>
<polyline clip-path="url(#clip020)" style="stroke:#000000; stroke-linecap:round; stroke-linejoin:round; stroke-width:4; stroke-opacity:1; fill:none" points="199.283,688.944 218.181,688.944 "/>
<polyline clip-path="url(#clip020)" style="stroke:#000000; stroke-linecap:round; stroke-linejoin:round; stroke-width:4; stroke-opacity:1; fill:none" points="199.283,340.576 218.181,340.576 "/>
<path clip-path="url(#clip020)" d="M51.6634 1399.03 L59.3023 1399.03 L59.3023 1372.66 L50.9921 1374.33 L50.9921 1370.07 L59.256 1368.4 L63.9319 1368.4 L63.9319 1399.03 L71.5707 1399.03 L71.5707 1402.96 L51.6634 1402.96 L51.6634 1399.03 Z" fill="#000000" fill-rule="nonzero" fill-opacity="1" /><path clip-path="url(#clip020)" d="M85.0429 1399.03 L101.362 1399.03 L101.362 1402.96 L79.4179 1402.96 L79.4179 1399.03 Q82.0799 1396.27 86.6632 1391.64 Q91.2697 1386.99 92.4502 1385.65 Q94.6956 1383.12 95.5752 1381.39 Q96.478 1379.63 96.478 1377.94 Q96.478 1375.18 94.5336 1373.45 Q92.6123 1371.71 89.5104 1371.71 Q87.3114 1371.71 84.8577 1372.48 Q82.4271 1373.24 79.6494 1374.79 L79.6494 1370.07 Q82.4734 1368.93 84.9271 1368.36 Q87.3808 1367.78 89.4178 1367.78 Q94.7882 1367.78 97.9826 1370.46 Q101.177 1373.15 101.177 1377.64 Q101.177 1379.77 100.367 1381.69 Q99.5798 1383.59 97.4734 1386.18 Q96.8947 1386.85 93.7928 1390.07 Q90.691 1393.26 85.0429 1399.03 Z" fill="#000000" fill-rule="nonzero" fill-opacity="1" /><path clip-path="url(#clip020)" d="M121.177 1371.48 Q117.566 1371.48 115.737 1375.04 Q113.932 1378.59 113.932 1385.72 Q113.932 1392.82 115.737 1396.39 Q117.566 1399.93 121.177 1399.93 Q124.811 1399.93 126.617 1396.39 Q128.445 1392.82 128.445 1385.72 Q128.445 1378.59 126.617 1375.04 Q124.811 1371.48 121.177 1371.48 M121.177 1367.78 Q126.987 1367.78 130.043 1372.38 Q133.121 1376.97 133.121 1385.72 Q133.121 1394.44 130.043 1399.05 Q126.987 1403.63 121.177 1403.63 Q115.367 1403.63 112.288 1399.05 Q109.233 1394.44 109.233 1385.72 Q109.233 1376.97 112.288 1372.38 Q115.367 1367.78 121.177 1367.78 Z" fill="#000000" fill-rule="nonzero" fill-opacity="1" /><path clip-path="url(#clip020)" d="M151.339 1371.48 Q147.728 1371.48 145.899 1375.04 Q144.093 1378.59 144.093 1385.72 Q144.093 1392.82 145.899 1396.39 Q147.728 1399.93 151.339 1399.93 Q154.973 1399.93 156.779 1396.39 Q158.607 1392.82 158.607 1385.72 Q158.607 1378.59 156.779 1375.04 Q154.973 1371.48 151.339 1371.48 M151.339 1367.78 Q157.149 1367.78 160.205 1372.38 Q163.283 1376.97 163.283 1385.72 Q163.283 1394.44 160.205 1399.05 Q157.149 1403.63 151.339 1403.63 Q145.529 1403.63 142.45 1399.05 Q139.394 1394.44 139.394 1385.72 Q139.394 1376.97 142.45 1372.38 Q145.529 1367.78 151.339 1367.78 Z" fill="#000000" fill-rule="nonzero" fill-opacity="1" /><path clip-path="url(#clip020)" d="M51.6634 1050.66 L59.3023 1050.66 L59.3023 1024.29 L50.9921 1025.96 L50.9921 1021.7 L59.256 1020.03 L63.9319 1020.03 L63.9319 1050.66 L71.5707 1050.66 L71.5707 1054.59 L51.6634 1054.59 L51.6634 1050.66 Z" fill="#000000" fill-rule="nonzero" fill-opacity="1" /><path clip-path="url(#clip020)" d="M93.8623 1024.11 L82.0568 1042.56 L93.8623 1042.56 L93.8623 1024.11 M92.6354 1020.03 L98.515 1020.03 L98.515 1042.56 L103.446 1042.56 L103.446 1046.44 L98.515 1046.44 L98.515 1054.59 L93.8623 1054.59 L93.8623 1046.44 L78.2605 1046.44 L78.2605 1041.93 L92.6354 1020.03 Z" fill="#000000" fill-rule="nonzero" fill-opacity="1" /><path clip-path="url(#clip020)" d="M121.177 1023.11 Q117.566 1023.11 115.737 1026.68 Q113.932 1030.22 113.932 1037.35 Q113.932 1044.45 115.737 1048.02 Q117.566 1051.56 121.177 1051.56 Q124.811 1051.56 126.617 1048.02 Q128.445 1044.45 128.445 1037.35 Q128.445 1030.22 126.617 1026.68 Q124.811 1023.11 121.177 1023.11 M121.177 1019.41 Q126.987 1019.41 130.043 1024.01 Q133.121 1028.6 133.121 1037.35 Q133.121 1046.07 130.043 1050.68 Q126.987 1055.26 121.177 1055.26 Q115.367 1055.26 112.288 1050.68 Q109.233 1046.07 109.233 1037.35 Q109.233 1028.6 112.288 1024.01 Q115.367 1019.41 121.177 1019.41 Z" fill="#000000" fill-rule="nonzero" fill-opacity="1" /><path clip-path="url(#clip020)" d="M151.339 1023.11 Q147.728 1023.11 145.899 1026.68 Q144.093 1030.22 144.093 1037.35 Q144.093 1044.45 145.899 1048.02 Q147.728 1051.56 151.339 1051.56 Q154.973 1051.56 156.779 1048.02 Q158.607 1044.45 158.607 1037.35 Q158.607 1030.22 156.779 1026.68 Q154.973 1023.11 151.339 1023.11 M151.339 1019.41 Q157.149 1019.41 160.205 1024.01 Q163.283 1028.6 163.283 1037.35 Q163.283 1046.07 160.205 1050.68 Q157.149 1055.26 151.339 1055.26 Q145.529 1055.26 142.45 1050.68 Q139.394 1046.07 139.394 1037.35 Q139.394 1028.6 142.45 1024.01 Q145.529 1019.41 151.339 1019.41 Z" fill="#000000" fill-rule="nonzero" fill-opacity="1" /><path clip-path="url(#clip020)" d="M51.6634 702.289 L59.3023 702.289 L59.3023 675.924 L50.9921 677.59 L50.9921 673.331 L59.256 671.664 L63.9319 671.664 L63.9319 702.289 L71.5707 702.289 L71.5707 706.224 L51.6634 706.224 L51.6634 702.289 Z" fill="#000000" fill-rule="nonzero" fill-opacity="1" /><path clip-path="url(#clip020)" d="M91.5938 687.081 Q88.4456 687.081 86.5938 689.234 Q84.7651 691.386 84.7651 695.136 Q84.7651 698.863 86.5938 701.039 Q88.4456 703.192 91.5938 703.192 Q94.7419 703.192 96.5706 701.039 Q98.4224 698.863 98.4224 695.136 Q98.4224 691.386 96.5706 689.234 Q94.7419 687.081 91.5938 687.081 M100.876 672.428 L100.876 676.687 Q99.1169 675.854 97.3113 675.414 Q95.5289 674.974 93.7697 674.974 Q89.1401 674.974 86.6864 678.099 Q84.2558 681.224 83.9086 687.544 Q85.2743 685.53 87.3345 684.465 Q89.3947 683.377 91.8715 683.377 Q97.0798 683.377 100.089 686.548 Q103.121 689.697 103.121 695.136 Q103.121 700.46 99.9733 703.678 Q96.8252 706.896 91.5938 706.896 Q85.5984 706.896 82.4271 702.312 Q79.2559 697.706 79.2559 688.979 Q79.2559 680.785 83.1447 675.924 Q87.0336 671.039 93.5845 671.039 Q95.3437 671.039 97.1261 671.387 Q98.9317 671.734 100.876 672.428 Z" fill="#000000" fill-rule="nonzero" fill-opacity="1" /><path clip-path="url(#clip020)" d="M121.177 674.743 Q117.566 674.743 115.737 678.308 Q113.932 681.849 113.932 688.979 Q113.932 696.085 115.737 699.65 Q117.566 703.192 121.177 703.192 Q124.811 703.192 126.617 699.65 Q128.445 696.085 128.445 688.979 Q128.445 681.849 126.617 678.308 Q124.811 674.743 121.177 674.743 M121.177 671.039 Q126.987 671.039 130.043 675.646 Q133.121 680.229 133.121 688.979 Q133.121 697.706 130.043 702.312 Q126.987 706.896 121.177 706.896 Q115.367 706.896 112.288 702.312 Q109.233 697.706 109.233 688.979 Q109.233 680.229 112.288 675.646 Q115.367 671.039 121.177 671.039 Z" fill="#000000" fill-rule="nonzero" fill-opacity="1" /><path clip-path="url(#clip020)" d="M151.339 674.743 Q147.728 674.743 145.899 678.308 Q144.093 681.849 144.093 688.979 Q144.093 696.085 145.899 699.65 Q147.728 703.192 151.339 703.192 Q154.973 703.192 156.779 699.65 Q158.607 696.085 158.607 688.979 Q158.607 681.849 156.779 678.308 Q154.973 674.743 151.339 674.743 M151.339 671.039 Q157.149 671.039 160.205 675.646 Q163.283 680.229 163.283 688.979 Q163.283 697.706 160.205 702.312 Q157.149 706.896 151.339 706.896 Q145.529 706.896 142.45 702.312 Q139.394 697.706 139.394 688.979 Q139.394 680.229 142.45 675.646 Q145.529 671.039 151.339 671.039 Z" fill="#000000" fill-rule="nonzero" fill-opacity="1" /><path clip-path="url(#clip020)" d="M51.6634 353.921 L59.3023 353.921 L59.3023 327.555 L50.9921 329.222 L50.9921 324.962 L59.256 323.296 L63.9319 323.296 L63.9319 353.921 L71.5707 353.921 L71.5707 357.856 L51.6634 357.856 L51.6634 353.921 Z" fill="#000000" fill-rule="nonzero" fill-opacity="1" /><path clip-path="url(#clip020)" d="M91.0151 341.444 Q87.6817 341.444 85.7605 343.226 Q83.8623 345.009 83.8623 348.134 Q83.8623 351.259 85.7605 353.041 Q87.6817 354.823 91.0151 354.823 Q94.3484 354.823 96.2697 353.041 Q98.1909 351.235 98.1909 348.134 Q98.1909 345.009 96.2697 343.226 Q94.3715 341.444 91.0151 341.444 M86.3392 339.453 Q83.3299 338.712 81.6401 336.652 Q79.9735 334.592 79.9735 331.629 Q79.9735 327.485 82.9133 325.078 Q85.8762 322.671 91.0151 322.671 Q96.1771 322.671 99.1169 325.078 Q102.057 327.485 102.057 331.629 Q102.057 334.592 100.367 336.652 Q98.7002 338.712 95.7141 339.453 Q99.0937 340.24 100.969 342.532 Q102.867 344.823 102.867 348.134 Q102.867 353.157 99.7882 355.842 Q96.7326 358.527 91.0151 358.527 Q85.2975 358.527 82.2188 355.842 Q79.1633 353.157 79.1633 348.134 Q79.1633 344.823 81.0614 342.532 Q82.9595 340.24 86.3392 339.453 M84.6262 332.069 Q84.6262 334.754 86.2929 336.259 Q87.9827 337.763 91.0151 337.763 Q94.0243 337.763 95.7141 336.259 Q97.4271 334.754 97.4271 332.069 Q97.4271 329.384 95.7141 327.879 Q94.0243 326.374 91.0151 326.374 Q87.9827 326.374 86.2929 327.879 Q84.6262 329.384 84.6262 332.069 Z" fill="#000000" fill-rule="nonzero" fill-opacity="1" /><path clip-path="url(#clip020)" d="M121.177 326.374 Q117.566 326.374 115.737 329.939 Q113.932 333.481 113.932 340.61 Q113.932 347.717 115.737 351.282 Q117.566 354.823 121.177 354.823 Q124.811 354.823 126.617 351.282 Q128.445 347.717 128.445 340.61 Q128.445 333.481 126.617 329.939 Q124.811 326.374 121.177 326.374 M121.177 322.671 Q126.987 322.671 130.043 327.277 Q133.121 331.86 133.121 340.61 Q133.121 349.337 130.043 353.944 Q126.987 358.527 121.177 358.527 Q115.367 358.527 112.288 353.944 Q109.233 349.337 109.233 340.61 Q109.233 331.86 112.288 327.277 Q115.367 322.671 121.177 322.671 Z" fill="#000000" fill-rule="nonzero" fill-opacity="1" /><path clip-path="url(#clip020)" d="M151.339 326.374 Q147.728 326.374 145.899 329.939 Q144.093 333.481 144.093 340.61 Q144.093 347.717 145.899 351.282 Q147.728 354.823 151.339 354.823 Q154.973 354.823 156.779 351.282 Q158.607 347.717 158.607 340.61 Q158.607 333.481 156.779 329.939 Q154.973 326.374 151.339 326.374 M151.339 322.671 Q157.149 322.671 160.205 327.277 Q163.283 331.86 163.283 340.61 Q163.283 349.337 160.205 353.944 Q157.149 358.527 151.339 358.527 Q145.529 358.527 142.45 353.944 Q139.394 349.337 139.394 340.61 Q139.394 331.86 142.45 327.277 Q145.529 322.671 151.339 322.671 Z" fill="#000000" fill-rule="nonzero" fill-opacity="1" /><polyline clip-path="url(#clip022)" style="stroke:#009af9; stroke-linecap:round; stroke-linejoin:round; stroke-width:4; stroke-opacity:1; fill:none" points="260.231,755.726 261.246,755.732 262.262,755.739 263.278,755.745 264.294,755.752 265.309,855.952 266.325,855.962 267.341,855.972 268.357,855.981 269.373,855.991 270.388,707.403 271.404,707.429 272.42,707.455 273.436,707.481 274.452,707.507 275.467,968.211 276.483,968.213 277.499,968.214 278.515,968.216 279.531,968.217 280.546,674.867 281.562,674.871 282.578,674.874 283.594,674.877 284.609,674.88 285.625,444.18 286.641,444.184 287.657,444.187 288.673,444.19 289.688,444.194 290.704,1011.63 291.72,1011.64 292.736,1011.65 293.752,1011.65 294.767,1011.66 295.783,1063.55 296.799,1063.56 297.815,1063.57 298.831,1063.58 299.846,1063.59 300.862,924.722 301.878,924.728 302.894,924.734 303.909,924.74 304.925,924.746 305.941,665.171 306.957,665.192 307.973,665.213 308.988,665.233 310.004,665.254 311.02,874.089 312.036,874.094 313.052,874.099 314.067,874.104 315.083,874.109 316.099,548.027 317.115,548.03 318.131,548.034 319.146,548.037 320.162,548.04 321.178,569.866 322.194,569.879 323.209,569.892 324.225,569.905 325.241,569.918 326.257,1050.35 327.273,1050.36 328.288,1050.36 329.304,1050.37 330.32,1050.37 331.336,597.54 332.352,597.545 333.367,597.551 334.383,597.556 335.399,597.562 336.415,793.209 337.43,793.232 338.446,793.254 339.462,793.277 340.478,793.3 341.494,598.832 342.509,598.846 343.525,598.859 344.541,598.872 345.557,598.886 346.573,842.438 347.588,842.453 348.604,842.467 349.62,842.481 350.636,842.495 351.652,783.555 352.667,783.563 353.683,783.571 354.699,783.58 355.715,783.588 356.73,1114.41 357.746,1114.42 358.762,1114.43 359.778,1114.44 360.794,1114.45 361.809,590.278 362.825,590.307 363.841,590.335 364.857,590.364 365.873,590.392 366.888,594.003 367.904,594.01 368.92,594.016 369.936,594.022 370.952,594.029 371.967,560.187 372.983,560.195 373.999,560.204 375.015,560.213 376.03,560.222 377.046,445.467 378.062,445.477 379.078,445.488 380.094,445.498 381.109,445.509 382.125,1005.74 383.141,1005.74 384.157,1005.75 385.173,1005.75 386.188,1005.75 387.204,782.359 388.22,782.364 389.236,782.369 390.252,782.374 391.267,782.379 392.283,886.26 393.299,886.285 394.315,886.31 395.33,886.335 396.346,886.36 397.362,737.709 398.378,737.718 399.394,737.727 400.409,737.736 401.425,737.745 402.441,604.499 403.457,604.509 404.473,604.518 405.488,604.528 406.504,604.538 407.52,339.199 408.536,339.204 409.552,339.21 410.567,339.215 411.583,339.221 412.599,539.487 413.615,539.499 414.63,539.511 415.646,539.522 416.662,539.534 417.678,802.912 418.694,802.942 419.709,802.972 420.725,803.002 421.741,803.032 422.757,944.209 423.773,944.216 424.788,944.223 425.804,944.23 426.82,944.237 427.836,746.316 428.852,746.339 429.867,746.362 430.883,746.385 431.899,746.409 432.915,786.951 433.93,786.955 434.946,786.958 435.962,786.962 436.978,786.965 437.994,817.298 439.009,817.305 440.025,817.312 441.041,817.319 442.057,817.326 443.073,805.481 444.088,805.499 445.104,805.518 446.12,805.536 447.136,805.554 448.151,839.028 449.167,839.03 450.183,839.031 451.199,839.032 452.215,839.034 453.23,1197.69 454.246,1197.69 455.262,1197.69 456.278,1197.69 457.294,1197.69 458.309,680.885 459.325,680.89 460.341,680.895 461.357,680.901 462.373,680.906 463.388,765.123 464.404,765.131 465.42,765.139 466.436,765.147 467.451,765.156 468.467,807.766 469.483,807.778 470.499,807.79 471.515,807.801 472.53,807.813 473.546,1033.53 474.562,1033.54 475.578,1033.54 476.594,1033.55 477.609,1033.55 478.625,966.604 479.641,966.624 480.657,966.644 481.673,966.664 482.688,966.683 483.704,882.458 484.72,882.46 485.736,882.462 486.751,882.463 487.767,882.465 488.783,887.23 489.799,887.238 490.815,887.246 491.83,887.254 492.846,887.261 493.862,621.608 494.878,621.612 495.894,621.616 496.909,621.62 497.925,621.624 498.941,763.005 499.957,763.012 500.973,763.018 501.988,763.025 503.004,763.032 504.02,479.222 505.036,479.247 506.051,479.273 507.067,479.298 508.083,479.324 509.099,911.596 510.115,911.599 511.13,911.601 512.146,911.604 513.162,911.607 514.178,732.434 515.194,732.447 516.209,732.461 517.225,732.474 518.241,732.487 519.257,591.714 520.273,591.728 521.288,591.742 522.304,591.757 523.32,591.771 524.336,588.017 525.351,588.019 526.367,588.02 527.383,588.022 528.399,588.024 529.415,682.24 530.43,682.249 531.446,682.258 532.462,682.266 533.478,682.275 534.494,587.911 535.509,587.919 536.525,587.926 537.541,587.934 538.557,587.942 539.573,945.342 540.588,945.354 541.604,945.367 542.62,945.38 543.636,945.393 544.651,713.563 545.667,713.57 546.683,713.576 547.699,713.582 548.715,713.589 549.73,736.46 550.746,736.494 551.762,736.527 552.778,736.561 553.794,736.594 554.809,1075.68 555.825,1075.68 556.841,1075.69 557.857,1075.69 558.873,1075.7 559.888,696.608 560.904,696.625 561.92,696.641 562.936,696.658 563.951,696.675 564.967,689.297 565.983,689.306 566.999,689.315 568.015,689.324 569.03,689.332 570.046,751.758 571.062,751.771 572.078,751.784 573.094,751.796 574.109,751.809 575.125,626.225 576.141,626.257 577.157,626.289 578.172,626.321 579.188,626.353 580.204,885.97 581.22,885.984 582.236,885.998 583.251,886.011 584.267,886.025 585.283,712.12 586.299,712.132 587.315,712.145 588.33,712.157 589.346,712.169 590.362,921.068 591.378,921.07 592.394,921.072 593.409,921.074 594.425,921.076 595.441,453.65 596.457,453.66 597.472,453.669 598.488,453.678 599.504,453.687 600.52,745.956 601.536,745.962 602.551,745.968 603.567,745.974 604.583,745.98 605.599,641.157 606.615,641.163 607.63,641.169 608.646,641.175 609.662,641.181 610.678,714.718 611.694,714.722 612.709,714.725 613.725,714.729 614.741,714.732 615.757,842.971 616.772,842.988 617.788,843.006 618.804,843.024 619.82,843.041 620.836,576.007 621.851,576.01 622.867,576.014 623.883,576.017 624.899,576.021 625.915,789.453 626.93,789.456 627.946,789.459 628.962,789.462 629.978,789.466 630.994,833.062 632.009,833.074 633.025,833.085 634.041,833.097 635.057,833.108 636.072,607.396 637.088,607.41 638.104,607.423 639.12,607.437 640.136,607.45 641.151,644.684 642.167,644.693 643.183,644.702 644.199,644.712 645.215,644.721 646.23,1005.56 647.246,1005.57 648.262,1005.58 649.278,1005.59 650.294,1005.6 651.309,980.389 652.325,980.393 653.341,980.398 654.357,980.402 655.372,980.406 656.388,490.055 657.404,490.08 658.42,490.104 659.436,490.129 660.451,490.153 661.467,983.862 662.483,983.865 663.499,983.868 664.515,983.871 665.53,983.873 666.546,885.911 667.562,885.924 668.578,885.936 669.594,885.948 670.609,885.961 671.625,601.119 672.641,601.145 673.657,601.171 674.672,601.197 675.688,601.223 676.704,742.343 677.72,742.356 678.736,742.368 679.751,742.38 680.767,742.392 681.783,495.899 682.799,495.907 683.815,495.916 684.83,495.924 685.846,495.932 686.862,1028.66 687.878,1028.66 688.893,1028.66 689.909,1028.66 690.925,1028.67 691.941,917.438 692.957,917.443 693.972,917.447 694.988,917.451 696.004,917.455 697.02,853.501 698.036,853.504 699.051,853.508 700.067,853.511 701.083,853.514 702.099,682.054 703.115,682.059 704.13,682.064 705.146,682.069 706.162,682.075 707.178,424.835 708.193,424.841 709.209,424.847 710.225,424.853 711.241,424.859 712.257,631.466 713.272,631.478 714.288,631.49 715.304,631.502 716.32,631.513 717.336,934.362 718.351,934.363 719.367,934.365 720.383,934.366 721.399,934.368 722.415,696.674 723.43,696.679 724.446,696.685 725.462,696.69 726.478,696.696 727.493,920.961 728.509,920.967 729.525,920.974 730.541,920.98 731.557,920.986 732.572,907.746 733.588,907.761 734.604,907.775 735.62,907.79 736.636,907.804 737.651,800.475 738.667,800.486 739.683,800.498 740.699,800.509 741.715,800.52 742.73,769.19 743.746,769.194 744.762,769.197 745.778,769.201 746.793,769.205 747.809,1004.4 748.825,1004.4 749.841,1004.41 750.857,1004.41 751.872,1004.42 752.888,585.365 753.904,585.385 754.92,585.405 755.936,585.425 756.951,585.445 757.967,492.556 758.983,492.569 759.999,492.582 761.015,492.595 762.03,492.608 763.046,543.255 764.062,543.265 765.078,543.274 766.093,543.283 767.109,543.292 768.125,744.582 769.141,744.597 770.157,744.613 771.172,744.628 772.188,744.643 773.204,853.413 774.22,853.424 775.236,853.435 776.251,853.445 777.267,853.456 778.283,680.782 779.299,680.793 780.315,680.803 781.33,680.814 782.346,680.825 783.362,697.67 784.378,697.681 785.393,697.692 786.409,697.704 787.425,697.715 788.441,636.487 789.457,636.513 790.472,636.539 791.488,636.565 792.504,636.591 793.52,770.152 794.536,770.155 795.551,770.158 796.567,770.161 797.583,770.164 798.599,794.154 799.614,794.173 800.63,794.193 801.646,794.212 802.662,794.231 803.678,836.76 804.693,836.769 805.709,836.779 806.725,836.788 807.741,836.797 808.757,837.847 809.772,837.85 810.788,837.853 811.804,837.856 812.82,837.859 813.836,949.046 814.851,949.058 815.867,949.07 816.883,949.082 817.899,949.093 818.914,825.55 819.93,825.566 820.946,825.581 821.962,825.596 822.978,825.612 823.993,1124.01 825.009,1124.01 826.025,1124.02 827.041,1124.03 828.057,1124.03 829.072,787.214 830.088,787.217 831.104,787.22 832.12,787.224 833.136,787.227 834.151,602.329 835.167,602.355 836.183,602.38 837.199,602.406 838.214,602.432 839.23,312.493 840.246,312.496 841.262,312.498 842.278,312.501 843.293,312.504 844.309,87.9763 845.325,87.9858 846.341,87.9954 847.357,88.0049 848.372,88.0144 849.388,468.586 850.404,468.595 851.42,468.604 852.436,468.613 853.451,468.622 854.467,884.951 855.483,884.952 856.499,884.953 857.514,884.954 858.53,884.955 859.546,782.317 860.562,782.319 861.578,782.32 862.593,782.322 863.609,782.324 864.625,911.485 865.641,911.491 866.657,911.496 867.672,911.501 868.688,911.506 869.704,705.115 870.72,705.117 871.736,705.119 872.751,705.12 873.767,705.122 874.783,970.86 875.799,970.869 876.814,970.877 877.83,970.886 878.846,970.894 879.862,653.351 880.878,653.377 881.893,653.403 882.909,653.429 883.925,653.456 884.941,233.096 885.957,233.109 886.972,233.123 887.988,233.137 889.004,233.15 890.02,836.573 891.036,836.576 892.051,836.579 893.067,836.581 894.083,836.584 895.099,923.757 896.114,923.764 897.13,923.77 898.146,923.777 899.162,923.784 900.178,878.848 901.193,878.852 902.209,878.856 903.225,878.859 904.241,878.863 905.257,811.435 906.272,811.459 907.288,811.484 908.304,811.508 909.32,811.533 910.336,630.996 911.351,631.013 912.367,631.031 913.383,631.048 914.399,631.066 915.414,1125.21 916.43,1125.23 917.446,1125.24 918.462,1125.26 919.478,1125.27 920.493,1015.53 921.509,1015.53 922.525,1015.53 923.541,1015.54 924.557,1015.54 925.572,796.957 926.588,796.962 927.604,796.967 928.62,796.972 929.635,796.977 930.651,804.958 931.667,804.975 932.683,804.993 933.699,805.01 934.714,805.028 935.73,601.925 936.746,601.955 937.762,601.985 938.778,602.014 939.793,602.044 940.809,872.957 941.825,872.96 942.841,872.962 943.857,872.965 944.872,872.968 945.888,904.269 946.904,904.27 947.92,904.272 948.935,904.274 949.951,904.276 950.967,722.041 951.983,722.059 952.999,722.077 954.014,722.095 955.03,722.113 956.046,872.575 957.062,872.589 958.078,872.603 959.093,872.616 960.109,872.63 961.125,756.94 962.141,756.941 963.157,756.942 964.172,756.942 965.188,756.943 966.204,899.117 967.22,899.135 968.235,899.153 969.251,899.171 970.267,899.189 971.283,573.409 972.299,573.41 973.314,573.411 974.33,573.412 975.346,573.413 976.362,864.495 977.378,864.501 978.393,864.508 979.409,864.514 980.425,864.52 981.441,691.721 982.457,691.732 983.472,691.742 984.488,691.753 985.504,691.764 986.52,659.419 987.535,659.431 988.551,659.444 989.567,659.456 990.583,659.469 991.599,603.727 992.614,603.766 993.63,603.805 994.646,603.844 995.662,603.882 996.678,1176.2 997.693,1176.21 998.709,1176.22 999.725,1176.23 1000.74,1176.23 1001.76,591.749 1002.77,591.761 1003.79,591.774 1004.8,591.786 1005.82,591.798 1006.84,639.622 1007.85,639.628 1008.87,639.634 1009.88,639.64 1010.9,639.647 1011.91,719.514 1012.93,719.521 1013.95,719.528 1014.96,719.535 1015.98,719.542 1016.99,885.847 1018.01,885.883 1019.02,885.919 1020.04,885.955 1021.06,885.991 1022.07,574.662 1023.09,574.68 1024.1,574.698 1025.12,574.716 1026.14,574.734 1027.15,820.947 1028.17,820.975 1029.18,821.003 1030.2,821.03 1031.21,821.058 1032.23,524.928 1033.25,524.931 1034.26,524.934 1035.28,524.937 1036.29,524.94 1037.31,612.978 1038.32,612.992 1039.34,613.006 1040.36,613.02 1041.37,613.035 1042.39,679.506 1043.4,679.517 1044.42,679.528 1045.44,679.54 1046.45,679.551 1047.47,531.197 1048.48,531.202 1049.5,531.206 1050.51,531.211 1051.53,531.216 1052.55,533.502 1053.56,533.507 1054.58,533.511 1055.59,533.516 1056.61,533.52 1057.62,605.064 1058.64,605.072 1059.66,605.08 1060.67,605.087 1061.69,605.095 1062.7,913.721 1063.72,913.75 1064.74,913.779 1065.75,913.809 1066.77,913.838 1067.78,441.633 1068.8,441.637 1069.81,441.641 1070.83,441.645 1071.85,441.649 1072.86,824.422 1073.88,824.425 1074.89,824.428 1075.91,824.43 1076.92,824.433 1077.94,911.481 1078.96,911.489 1079.97,911.497 1080.99,911.505 1082,911.513 1083.02,858.857 1084.04,858.893 1085.05,858.928 1086.07,858.963 1087.08,858.997 1088.1,875.19 1089.11,875.192 1090.13,875.194 1091.15,875.196 1092.16,875.198 1093.18,719.411 1094.19,719.421 1095.21,719.431 1096.22,719.441 1097.24,719.451 1098.26,1014.17 1099.27,1014.18 1100.29,1014.2 1101.3,1014.21 1102.32,1014.23 1103.34,1057.4 1104.35,1057.41 1105.37,1057.42 1106.38,1057.43 1107.4,1057.45 1108.41,730.576 1109.43,730.591 1110.45,730.605 1111.46,730.619 1112.48,730.633 1113.49,993.468 1114.51,993.487 1115.52,993.506 1116.54,993.524 1117.56,993.543 1118.57,787.172 1119.59,787.177 1120.6,787.182 1121.62,787.186 1122.64,787.191 1123.65,800.402 1124.67,800.414 1125.68,800.426 1126.7,800.439 1127.71,800.451 1128.73,869.163 1129.75,869.17 1130.76,869.177 1131.78,869.184 1132.79,869.191 1133.81,432.109 1134.82,432.114 1135.84,432.119 1136.86,432.123 1137.87,432.128 1138.89,897.044 1139.9,897.051 1140.92,897.058 1141.94,897.065 1142.95,897.071 1143.97,952.488 1144.98,952.489 1146,952.49 1147.01,952.491 1148.03,952.492 1149.05,718.37 1150.06,718.378 1151.08,718.386 1152.09,718.394 1153.11,718.402 1154.12,1130.17 1155.14,1130.18 1156.16,1130.18 1157.17,1130.18 1158.19,1130.19 1159.2,773.675 1160.22,773.688 1161.24,773.701 1162.25,773.715 1163.27,773.728 1164.28,759.111 1165.3,759.117 1166.31,759.123 1167.33,759.129 1168.35,759.136 1169.36,817.703 1170.38,817.714 1171.39,817.724 1172.41,817.735 1173.42,817.746 1174.44,1288.11 1175.46,1288.11 1176.47,1288.12 1177.49,1288.12 1178.5,1288.12 1179.52,759.221 1180.54,759.231 1181.55,759.241 1182.57,759.251 1183.58,759.261 1184.6,936.673 1185.61,936.709 1186.63,936.745 1187.65,936.782 1188.66,936.818 1189.68,859.737 1190.69,859.75 1191.71,859.762 1192.72,859.775 1193.74,859.787 1194.76,638.293 1195.77,638.301 1196.79,638.309 1197.8,638.317 1198.82,638.325 1199.84,879.857 1200.85,879.87 1201.87,879.882 1202.88,879.894 1203.9,879.906 1204.91,1116.45 1205.93,1116.45 1206.95,1116.46 1207.96,1116.46 1208.98,1116.47 1209.99,1075.8 1211.01,1075.8 1212.02,1075.81 1213.04,1075.81 1214.06,1075.82 1215.07,802.861 1216.09,802.874 1217.1,802.887 1218.12,802.9 1219.14,802.913 1220.15,933.016 1221.17,933.021 1222.18,933.027 1223.2,933.033 1224.21,933.038 1225.23,539.514 1226.25,539.521 1227.26,539.528 1228.28,539.536 1229.29,539.543 1230.31,530.834 1231.32,530.874 1232.34,530.913 1233.36,530.952 1234.37,530.991 1235.39,807.614 1236.4,807.62 1237.42,807.626 1238.44,807.633 1239.45,807.639 1240.47,665.193 1241.48,665.199 1242.5,665.205 1243.51,665.21 1244.53,665.216 1245.55,1034.81 1246.56,1034.82 1247.58,1034.82 1248.59,1034.83 1249.61,1034.84 1250.62,893.221 1251.64,893.226 1252.66,893.232 1253.67,893.237 1254.69,893.243 1255.7,595.329 1256.72,595.344 1257.74,595.359 1258.75,595.373 1259.77,595.388 1260.78,655.716 1261.8,655.726 1262.81,655.735 1263.83,655.744 1264.85,655.754 1265.86,754.758 1266.88,754.763 1267.89,754.769 1268.91,754.774 1269.92,754.78 1270.94,670.743 1271.96,670.767 1272.97,670.791 1273.99,670.815 1275,670.839 1276.02,734.214 1277.04,734.225 1278.05,734.237 1279.07,734.248 1280.08,734.259 1281.1,920.05 1282.11,920.056 1283.13,920.062 1284.15,920.068 1285.16,920.073 1286.18,397.322 1287.19,397.337 1288.21,397.351 1289.22,397.365 1290.24,397.379 1291.26,518.928 1292.27,518.944 1293.29,518.959 1294.3,518.975 1295.32,518.99 1296.34,884.014 1297.35,884.026 1298.37,884.039 1299.38,884.051 1300.4,884.063 1301.41,1105.96 1302.43,1105.96 1303.45,1105.97 1304.46,1105.97 1305.48,1105.97 1306.49,728.263 1307.51,728.272 1308.52,728.281 1309.54,728.29 1310.56,728.298 1311.57,652.046 1312.59,652.069 1313.6,652.092 1314.62,652.115 1315.64,652.138 1316.65,813.549 1317.67,813.558 1318.68,813.566 1319.7,813.574 1320.71,813.582 1321.73,567.415 1322.75,567.425 1323.76,567.435 1324.78,567.445 1325.79,567.455 1326.81,925.906 1327.82,925.918 1328.84,925.93 1329.86,925.941 1330.87,925.953 1331.89,677.452 1332.9,677.467 1333.92,677.482 1334.94,677.497 1335.95,677.512 1336.97,519.689 1337.98,519.717 1339,519.746 1340.01,519.774 1341.03,519.802 1342.05,729.326 1343.06,729.336 1344.08,729.345 1345.09,729.354 1346.11,729.364 1347.12,557.772 1348.14,557.777 1349.16,557.781 1350.17,557.785 1351.19,557.789 1352.2,847.157 1353.22,847.168 1354.24,847.179 1355.25,847.19 1356.27,847.201 1357.28,550.326 1358.3,550.332 1359.31,550.339 1360.33,550.345 1361.35,550.351 1362.36,793.169 1363.38,793.186 1364.39,793.202 1365.41,793.218 1366.42,793.234 1367.44,625.298 1368.46,625.306 1369.47,625.313 1370.49,625.32 1371.5,625.328 1372.52,749.473 1373.54,749.482 1374.55,749.491 1375.57,749.5 1376.58,749.509 1377.6,767.847 1378.61,767.851 1379.63,767.855 1380.65,767.859 1381.66,767.863 1382.68,794.068 1383.69,794.076 1384.71,794.084 1385.72,794.092 1386.74,794.1 1387.76,1247.22 1388.77,1247.22 1389.79,1247.22 1390.8,1247.22 1391.82,1247.23 1392.84,945.597 1393.85,945.606 1394.87,945.615 1395.88,945.624 1396.9,945.633 1397.91,636.012 1398.93,636.02 1399.95,636.027 1400.96,636.034 1401.98,636.041 1402.99,569.929 1404.01,569.944 1405.02,569.959 1406.04,569.975 1407.06,569.99 1408.07,976.249 1409.09,976.262 1410.1,976.275 1411.12,976.287 1412.14,976.3 1413.15,1096.26 1414.17,1096.26 1415.18,1096.27 1416.2,1096.28 1417.21,1096.28 1418.23,669.875 1419.25,669.889 1420.26,669.904 1421.28,669.918 1422.29,669.932 1423.31,1007 1424.32,1007 1425.34,1007.01 1426.36,1007.01 1427.37,1007.02 1428.39,609.788 1429.4,609.793 1430.42,609.799 1431.44,609.804 1432.45,609.809 1433.47,528.878 1434.48,528.879 1435.5,528.881 1436.51,528.882 1437.53,528.883 1438.55,776.616 1439.56,776.632 1440.58,776.648 1441.59,776.664 1442.61,776.68 1443.62,587.955 1444.64,587.975 1445.66,587.996 1446.67,588.016 1447.69,588.036 1448.7,901.806 1449.72,901.813 1450.74,901.82 1451.75,901.827 1452.77,901.833 1453.78,563.75 1454.8,563.755 1455.81,563.76 1456.83,563.765 1457.85,563.769 1458.86,741.857 1459.88,741.886 1460.89,741.915 1461.91,741.944 1462.92,741.973 1463.94,464.559 1464.96,464.591 1465.97,464.624 1466.99,464.656 1468,464.688 1469.02,934.02 1470.04,934.034 1471.05,934.047 1472.07,934.061 1473.08,934.075 1474.1,526.888 1475.11,526.904 1476.13,526.92 1477.15,526.936 1478.16,526.952 1479.18,529.201 1480.19,529.21 1481.21,529.218 1482.22,529.227 1483.24,529.236 1484.26,720.731 1485.27,720.754 1486.29,720.777 1487.3,720.8 1488.32,720.823 1489.34,672.234 1490.35,672.248 1491.37,672.261 1492.38,672.275 1493.4,672.289 1494.41,1024.91 1495.43,1024.94 1496.45,1024.97 1497.46,1025 1498.48,1025.04 1499.49,703.055 1500.51,703.071 1501.52,703.087 1502.54,703.102 1503.56,703.118 1504.57,785.882 1505.59,785.89 1506.6,785.897 1507.62,785.905 1508.64,785.913 1509.65,799.793 1510.67,799.813 1511.68,799.832 1512.7,799.851 1513.71,799.87 1514.73,732.651 1515.75,732.673 1516.76,732.696 1517.78,732.719 1518.79,732.742 1519.81,939.927 1520.82,939.94 1521.84,939.953 1522.86,939.966 1523.87,939.98 1524.89,885.308 1525.9,885.318 1526.92,885.329 1527.94,885.339 1528.95,885.35 1529.97,900.89 1530.98,900.909 1532,900.928 1533.01,900.947 1534.03,900.965 1535.05,1024.34 1536.06,1024.35 1537.08,1024.36 1538.09,1024.37 1539.11,1024.38 1540.12,756.57 1541.14,756.577 1542.16,756.584 1543.17,756.591 1544.19,756.598 1545.2,648.21 1546.22,648.22 1547.24,648.23 1548.25,648.24 1549.27,648.25 1550.28,794.268 1551.3,794.274 1552.31,794.281 1553.33,794.287 1554.35,794.294 1555.36,801.639 1556.38,801.641 1557.39,801.643 1558.41,801.645 1559.42,801.647 1560.44,741.397 1561.46,741.414 1562.47,741.431 1563.49,741.448 1564.5,741.466 1565.52,542.291 1566.54,542.306 1567.55,542.322 1568.57,542.337 1569.58,542.353 1570.6,812.694 1571.61,812.698 1572.63,812.702 1573.65,812.706 1574.66,812.711 1575.68,736.756 1576.69,736.766 1577.71,736.777 1578.72,736.787 1579.74,736.797 1580.76,870.54 1581.77,870.547 1582.79,870.555 1583.8,870.562 1584.82,870.569 1585.84,1098.21 1586.85,1098.22 1587.87,1098.23 1588.88,1098.24 1589.9,1098.25 1590.91,476.949 1591.93,476.955 1592.95,476.96 1593.96,476.966 1594.98,476.971 1595.99,1021.41 1597.01,1021.41 1598.02,1021.41 1599.04,1021.42 1600.06,1021.42 1601.07,768.586 1602.09,768.592 1603.1,768.598 1604.12,768.604 1605.14,768.609 1606.15,900.187 1607.17,900.207 1608.18,900.226 1609.2,900.246 1610.21,900.265 1611.23,948.441 1612.25,948.446 1613.26,948.451 1614.28,948.455 1615.29,948.46 1616.31,998.522 1617.32,998.528 1618.34,998.534 1619.36,998.54 1620.37,998.546 1621.39,748.198 1622.4,748.207 1623.42,748.216 1624.44,748.224 1625.45,748.233 1626.47,977.939 1627.48,977.944 1628.5,977.949 1629.51,977.954 1630.53,977.959 1631.55,786.265 1632.56,786.289 1633.58,786.313 1634.59,786.337 1635.61,786.361 1636.62,681.017 1637.64,681.026 1638.66,681.035 1639.67,681.044 1640.69,681.052 1641.7,341.006 1642.72,341.021 1643.74,341.036 1644.75,341.051 1645.77,341.065 1646.78,833.152 1647.8,833.158 1648.81,833.164 1649.83,833.17 1650.85,833.176 1651.86,1040.89 1652.88,1040.9 1653.89,1040.91 1654.91,1040.91 1655.92,1040.92 1656.94,1002.82 1657.96,1002.83 1658.97,1002.84 1659.99,1002.84 1661,1002.85 1662.02,737.407 1663.04,737.424 1664.05,737.442 1665.07,737.46 1666.08,737.477 1667.1,529.693 1668.11,529.699 1669.13,529.705 1670.15,529.711 1671.16,529.717 1672.18,807.526 1673.19,807.535 1674.21,807.543 1675.22,807.552 1676.24,807.56 1677.26,608.371 1678.27,608.391 1679.29,608.411 1680.3,608.431 1681.32,608.45 1682.34,1129.76 1683.35,1129.77 1684.37,1129.77 1685.38,1129.78 1686.4,1129.78 1687.41,470.911 1688.43,470.921 1689.45,470.931 1690.46,470.94 1691.48,470.95 1692.49,468.667 1693.51,468.677 1694.52,468.687 1695.54,468.697 1696.56,468.707 1697.57,830.136 1698.59,830.147 1699.6,830.159 1700.62,830.17 1701.64,830.181 1702.65,841.653 1703.67,841.661 1704.68,841.67 1705.7,841.678 1706.71,841.686 1707.73,1096.13 1708.75,1096.13 1709.76,1096.13 1710.78,1096.14 1711.79,1096.14 1712.81,401.327 1713.82,401.343 1714.84,401.359 1715.86,401.374 1716.87,401.39 1717.89,682.39 1718.9,682.401 1719.92,682.411 1720.94,682.421 1721.95,682.431 1722.97,974.228 1723.98,974.231 1725,974.233 1726.01,974.236 1727.03,974.239 1728.05,362.028 1729.06,362.063 1730.08,362.099 1731.09,362.134 1732.11,362.17 1733.12,801.896 1734.14,801.904 1735.16,801.913 1736.17,801.921 1737.19,801.929 1738.2,580.838 1739.22,580.859 1740.24,580.881 1741.25,580.902 1742.27,580.923 1743.28,799.091 1744.3,799.098 1745.31,799.105 1746.33,799.112 1747.35,799.119 1748.36,786.207 1749.38,786.234 1750.39,786.26 1751.41,786.286 1752.42,786.313 1753.44,876.076 1754.46,876.095 1755.47,876.115 1756.49,876.134 1757.5,876.153 1758.52,847.234 1759.54,847.24 1760.55,847.246 1761.57,847.252 1762.58,847.258 1763.6,1445.68 1764.61,1445.69 1765.63,1445.7 1766.65,1445.71 1767.66,1445.72 1768.68,742.919 1769.69,742.924 1770.71,742.929 1771.72,742.934 1772.74,742.939 1773.76,725.516 1774.77,725.53 1775.79,725.545 1776.8,725.559 1777.82,725.574 1778.84,645.411 1779.85,645.42 1780.87,645.428 1781.88,645.436 1782.9,645.444 1783.91,900.737 1784.93,900.753 1785.95,900.769 1786.96,900.785 1787.98,900.802 1788.99,704.095 1790.01,704.107 1791.02,704.12 1792.04,704.133 1793.06,704.145 1794.07,679.908 1795.09,679.914 1796.1,679.92 1797.12,679.925 1798.14,679.931 1799.15,667.734 1800.17,667.769 1801.18,667.804 1802.2,667.839 1803.21,667.873 1804.23,464.251 1805.25,464.284 1806.26,464.317 1807.28,464.35 1808.29,464.382 1809.31,516.077 1810.32,516.094 1811.34,516.112 1812.36,516.129 1813.37,516.147 1814.39,724.404 1815.4,724.421 1816.42,724.437 1817.44,724.454 1818.45,724.47 1819.47,635.147 1820.48,635.162 1821.5,635.176 1822.51,635.19 1823.53,635.204 1824.55,800.956 1825.56,800.965 1826.58,800.973 1827.59,800.982 1828.61,800.99 1829.62,990.717 1830.64,990.735 1831.66,990.752 1832.67,990.769 1833.69,990.786 1834.7,657.098 1835.72,657.103 1836.74,657.109 1837.75,657.115 1838.77,657.12 1839.78,1018.08 1840.8,1018.08 1841.81,1018.09 1842.83,1018.09 1843.85,1018.09 1844.86,759.468 1845.88,759.476 1846.89,759.485 1847.91,759.494 1848.92,759.502 1849.94,916.646 1850.96,916.655 1851.97,916.664 1852.99,916.672 1854,916.681 1855.02,939.135 1856.04,939.148 1857.05,939.161 1858.07,939.174 1859.08,939.186 1860.1,686.153 1861.11,686.158 1862.13,686.164 1863.15,686.17 1864.16,686.176 1865.18,770.656 1866.19,770.666 1867.21,770.676 1868.22,770.687 1869.24,770.697 1870.26,867.684 1871.27,867.701 1872.29,867.718 1873.3,867.735 1874.32,867.752 1875.34,1039.5 1876.35,1039.5 1877.37,1039.5 1878.38,1039.5 1879.4,1039.5 1880.41,572.487 1881.43,572.494 1882.45,572.5 1883.46,572.506 1884.48,572.512 1885.49,618.117 1886.51,618.129 1887.52,618.142 1888.54,618.154 1889.56,618.167 1890.57,1094.86 1891.59,1094.86 1892.6,1094.87 1893.62,1094.88 1894.64,1094.88 1895.65,385.262 1896.67,385.278 1897.68,385.295 1898.7,385.311 1899.71,385.327 1900.73,794.484 1901.75,794.49 1902.76,794.496 1903.78,794.502 1904.79,794.508 1905.81,536.585 1906.82,536.598 1907.84,536.611 1908.86,536.623 1909.87,536.636 1910.89,1163.1 1911.9,1163.1 1912.92,1163.11 1913.94,1163.11 1914.95,1163.12 1915.97,616.188 1916.98,616.205 1918,616.223 1919.01,616.24 1920.03,616.257 1921.05,1019.41 1922.06,1019.41 1923.08,1019.42 1924.09,1019.42 1925.11,1019.43 1926.12,654.885 1927.14,654.894 1928.16,654.903 1929.17,654.912 1930.19,654.921 1931.2,504.397 1932.22,504.415 1933.24,504.433 1934.25,504.451 1935.27,504.469 1936.28,742.216 1937.3,742.224 1938.31,742.232 1939.33,742.24 1940.35,742.249 1941.36,714.565 1942.38,714.586 1943.39,714.606 1944.41,714.627 1945.42,714.648 1946.44,580.62 1947.46,580.64 1948.47,580.661 1949.49,580.682 1950.5,580.703 1951.52,769.973 1952.54,769.984 1953.55,769.995 1954.57,770.006 1955.58,770.017 1956.6,1275.2 1957.61,1275.2 1958.63,1275.21 1959.65,1275.21 1960.66,1275.21 1961.68,849.768 1962.69,849.784 1963.71,849.799 1964.72,849.815 1965.74,849.831 1966.76,788.38 1967.77,788.397 1968.79,788.414 1969.8,788.431 1970.82,788.448 1971.84,739.697 1972.85,739.706 1973.87,739.714 1974.88,739.723 1975.9,739.731 1976.91,714.094 1977.93,714.104 1978.95,714.113 1979.96,714.123 1980.98,714.133 1981.99,716.809 1983.01,716.827 1984.02,716.846 1985.04,716.864 1986.06,716.882 1987.07,872.944 1988.09,872.947 1989.1,872.95 1990.12,872.953 1991.14,872.956 1992.15,535.081 1993.17,535.09 1994.18,535.098 1995.2,535.107 1996.21,535.116 1997.23,630.79 1998.25,630.817 1999.26,630.844 2000.28,630.871 2001.29,630.898 2002.31,707.989 2003.32,707.996 2004.34,708.003 2005.36,708.01 2006.37,708.017 2007.39,607.588 2008.4,607.605 2009.42,607.621 2010.44,607.638 2011.45,607.655 2012.47,949.747 2013.48,949.752 2014.5,949.757 2015.51,949.763 2016.53,949.768 2017.55,944.544 2018.56,944.551 2019.58,944.557 2020.59,944.563 2021.61,944.569 2022.62,795.64 2023.64,795.658 2024.66,795.676 2025.67,795.694 2026.69,795.712 2027.7,771.553 2028.72,771.561 2029.73,771.569 2030.75,771.577 2031.77,771.585 2032.78,500.107 2033.8,500.113 2034.81,500.119 2035.83,500.125 2036.85,500.131 2037.86,473.257 2038.88,473.267 2039.89,473.276 2040.91,473.286 2041.92,473.296 2042.94,817.753 2043.96,817.761 2044.97,817.769 2045.99,817.777 2047,817.786 2048.02,516.576 2049.03,516.592 2050.05,516.608 2051.07,516.623 2052.08,516.639 2053.1,696.561 2054.11,696.579 2055.13,696.596 2056.15,696.613 2057.16,696.631 2058.18,808.638 2059.19,808.647 2060.21,808.656 2061.22,808.665 2062.24,808.674 2063.26,918.566 2064.27,918.574 2065.29,918.582 2066.3,918.591 2067.32,918.599 2068.33,995.52 2069.35,995.524 2070.37,995.529 2071.38,995.534 2072.4,995.539 2073.41,908.09 2074.43,908.105 2075.45,908.12 2076.46,908.134 2077.48,908.149 2078.49,1151.38 2079.51,1151.4 2080.52,1151.41 2081.54,1151.43 2082.56,1151.44 2083.57,653.022 2084.59,653.033 2085.6,653.045 2086.62,653.057 2087.63,653.069 2088.65,804.396 2089.67,804.411 2090.68,804.426 2091.7,804.44 2092.71,804.455 2093.73,874.426 2094.75,874.43 2095.76,874.434 2096.78,874.438 2097.79,874.442 2098.81,1036.74 2099.82,1036.74 2100.84,1036.74 2101.86,1036.74 2102.87,1036.75 2103.89,864.269 2104.9,864.286 2105.92,864.303 2106.93,864.32 2107.95,864.337 2108.97,623.739 2109.98,623.745 2111,623.751 2112.01,623.757 2113.03,623.763 2114.05,548.696 2115.06,548.709 2116.08,548.721 2117.09,548.734 2118.11,548.747 2119.12,933.344 2120.14,933.346 2121.16,933.348 2122.17,933.35 2123.19,933.352 2124.2,1086.46 2125.22,1086.48 2126.23,1086.49 2127.25,1086.5 2128.27,1086.51 2129.28,850.754 2130.3,850.765 2131.31,850.777 2132.33,850.788 2133.35,850.799 2134.36,775.983 2135.38,775.993 2136.39,776.002 2137.41,776.011 2138.42,776.02 2139.44,916.888 2140.46,916.895 2141.47,916.902 2142.49,916.908 2143.5,916.915 2144.52,1008.02 2145.53,1008.02 2146.55,1008.03 2147.57,1008.03 2148.58,1008.04 2149.6,615.763 2150.61,615.772 2151.63,615.781 2152.65,615.79 2153.66,615.799 2154.68,690.388 2155.69,690.395 2156.71,690.402 2157.72,690.409 2158.74,690.416 2159.76,1040.86 2160.77,1040.87 2161.79,1040.88 2162.8,1040.9 2163.82,1040.91 2164.83,781.673 2165.85,781.683 2166.87,781.693 2167.88,781.702 2168.9,781.712 2169.91,748.619 2170.93,748.633 2171.95,748.648 2172.96,748.662 2173.98,748.677 2174.99,902.61 2176.01,902.62 2177.02,902.631 2178.04,902.641 2179.06,902.652 2180.07,993.893 2181.09,993.907 2182.1,993.921 2183.12,993.935 2184.13,993.949 2185.15,856.584 2186.17,856.591 2187.18,856.597 2188.2,856.603 2189.21,856.61 2190.23,439.169 2191.25,439.171 2192.26,439.173 2193.28,439.175 2194.29,439.177 2195.31,863.181 2196.32,863.181 2197.34,863.182 2198.36,863.183 2199.37,863.183 2200.39,696.078 2201.4,696.084 2202.42,696.09 2203.43,696.096 2204.45,696.102 2205.47,533.216 2206.48,533.235 2207.5,533.253 2208.51,533.272 2209.53,533.29 2210.55,647.041 2211.56,647.049 2212.58,647.057 2213.59,647.064 2214.61,647.072 2215.62,835.821 2216.64,835.838 2217.66,835.856 2218.67,835.873 2219.69,835.89 2220.7,981.114 2221.72,981.124 2222.73,981.134 2223.75,981.144 2224.77,981.154 2225.78,422.687 2226.8,422.709 2227.81,422.732 2228.83,422.754 2229.85,422.777 2230.86,740.491 2231.88,740.505 2232.89,740.519 2233.91,740.533 2234.92,740.547 2235.94,442.312 2236.96,442.314 2237.97,442.316 2238.99,442.317 2240,442.319 2241.02,742.74 2242.03,742.741 2243.05,742.742 2244.07,742.743 2245.08,742.744 2246.1,627.105 2247.11,627.119 2248.13,627.133 2249.15,627.146 2250.16,627.16 2251.18,733.87 2252.19,733.875 2253.21,733.879 2254.22,733.884 2255.24,733.888 2256.26,953.696 2257.27,953.713 2258.29,953.73 2259.3,953.747 2260.32,953.764 2261.33,713.632 2262.35,713.633 2263.37,713.635 2264.38,713.637 2265.4,713.638 2266.41,790.02 2267.43,790.027 2268.45,790.034 2269.46,790.04 2270.48,790.047 2271.49,786.505 2272.51,786.518 2273.52,786.532 2274.54,786.546 2275.56,786.559 2276.57,505.59 2277.59,505.6 2278.6,505.611 2279.62,505.622 2280.63,505.632 2281.65,577.899 2282.67,577.904 2283.68,577.91 2284.7,577.916 2285.71,577.921 2286.73,1000.64 2287.75,1000.64 2288.76,1000.64 2289.78,1000.64 2290.79,1000.64 2291.81,1000.64 "/>
<path clip-path="url(#clip020)" d="M2013.2 198.898 L2280.97 198.898 L2280.97 95.2176 L2013.2 95.2176  Z" fill="#ffffff" fill-rule="evenodd" fill-opacity="1"/>
<polyline clip-path="url(#clip020)" style="stroke:#000000; stroke-linecap:round; stroke-linejoin:round; stroke-width:4; stroke-opacity:1; fill:none" points="2013.2,198.898 2280.97,198.898 2280.97,95.2176 2013.2,95.2176 2013.2,198.898 "/>
<polyline clip-path="url(#clip020)" style="stroke:#009af9; stroke-linecap:round; stroke-linejoin:round; stroke-width:4; stroke-opacity:1; fill:none" points="2037.12,147.058 2180.69,147.058 "/>
<path clip-path="url(#clip020)" d="M2218.46 166.745 Q2216.65 171.375 2214.94 172.787 Q2213.23 174.199 2210.36 174.199 L2206.95 174.199 L2206.95 170.634 L2209.45 170.634 Q2211.21 170.634 2212.19 169.8 Q2213.16 168.967 2214.34 165.865 L2215.1 163.921 L2204.62 138.412 L2209.13 138.412 L2217.23 158.689 L2225.33 138.412 L2229.85 138.412 L2218.46 166.745 Z" fill="#000000" fill-rule="nonzero" fill-opacity="1" /><path clip-path="url(#clip020)" d="M2237.14 160.402 L2244.78 160.402 L2244.78 134.037 L2236.47 135.703 L2236.47 131.444 L2244.73 129.778 L2249.41 129.778 L2249.41 160.402 L2257.05 160.402 L2257.05 164.338 L2237.14 164.338 L2237.14 160.402 Z" fill="#000000" fill-rule="nonzero" fill-opacity="1" /></svg>
