<?xml version="1.0" encoding="utf-8"?>
<svg xmlns="http://www.w3.org/2000/svg" xmlns:xlink="http://www.w3.org/1999/xlink" width="600" height="400" viewBox="0 0 2400 1600">
<defs>
  <clipPath id="clip340">
    <rect x="0" y="0" width="2400" height="1600"/>
  </clipPath>
</defs>
<path clip-path="url(#clip340)" d="M0 1600 L2400 1600 L2400 0 L0 0  Z" fill="#ffffff" fill-rule="evenodd" fill-opacity="1"/>
<defs>
  <clipPath id="clip341">
    <rect x="480" y="0" width="1681" height="1600"/>
  </clipPath>
</defs>
<path clip-path="url(#clip340)" d="M156.274 1486.45 L2352.76 1486.45 L2352.76 47.2441 L156.274 47.2441  Z" fill="#ffffff" fill-rule="evenodd" fill-opacity="1"/>
<defs>
  <clipPath id="clip342">
    <rect x="156" y="47" width="2197" height="1440"/>
  </clipPath>
</defs>
<polyline clip-path="url(#clip342)" style="stroke:#000000; stroke-linecap:round; stroke-linejoin:round; stroke-width:2; stroke-opacity:0.1; fill:none" points="218.439,1486.45 218.439,47.2441 "/>
<polyline clip-path="url(#clip342)" style="stroke:#000000; stroke-linecap:round; stroke-linejoin:round; stroke-width:2; stroke-opacity:0.1; fill:none" points="633.035,1486.45 633.035,47.2441 "/>
<polyline clip-path="url(#clip342)" style="stroke:#000000; stroke-linecap:round; stroke-linejoin:round; stroke-width:2; stroke-opacity:0.1; fill:none" points="1047.63,1486.45 1047.63,47.2441 "/>
<polyline clip-path="url(#clip342)" style="stroke:#000000; stroke-linecap:round; stroke-linejoin:round; stroke-width:2; stroke-opacity:0.1; fill:none" points="1462.23,1486.45 1462.23,47.2441 "/>
<polyline clip-path="url(#clip342)" style="stroke:#000000; stroke-linecap:round; stroke-linejoin:round; stroke-width:2; stroke-opacity:0.1; fill:none" points="1876.82,1486.45 1876.82,47.2441 "/>
<polyline clip-path="url(#clip342)" style="stroke:#000000; stroke-linecap:round; stroke-linejoin:round; stroke-width:2; stroke-opacity:0.1; fill:none" points="2291.42,1486.45 2291.42,47.2441 "/>
<polyline clip-path="url(#clip340)" style="stroke:#000000; stroke-linecap:round; stroke-linejoin:round; stroke-width:4; stroke-opacity:1; fill:none" points="156.274,1486.45 2352.76,1486.45 "/>
<polyline clip-path="url(#clip340)" style="stroke:#000000; stroke-linecap:round; stroke-linejoin:round; stroke-width:4; stroke-opacity:1; fill:none" points="218.439,1486.45 218.439,1467.55 "/>
<polyline clip-path="url(#clip340)" style="stroke:#000000; stroke-linecap:round; stroke-linejoin:round; stroke-width:4; stroke-opacity:1; fill:none" points="633.035,1486.45 633.035,1467.55 "/>
<polyline clip-path="url(#clip340)" style="stroke:#000000; stroke-linecap:round; stroke-linejoin:round; stroke-width:4; stroke-opacity:1; fill:none" points="1047.63,1486.45 1047.63,1467.55 "/>
<polyline clip-path="url(#clip340)" style="stroke:#000000; stroke-linecap:round; stroke-linejoin:round; stroke-width:4; stroke-opacity:1; fill:none" points="1462.23,1486.45 1462.23,1467.55 "/>
<polyline clip-path="url(#clip340)" style="stroke:#000000; stroke-linecap:round; stroke-linejoin:round; stroke-width:4; stroke-opacity:1; fill:none" points="1876.82,1486.45 1876.82,1467.55 "/>
<polyline clip-path="url(#clip340)" style="stroke:#000000; stroke-linecap:round; stroke-linejoin:round; stroke-width:4; stroke-opacity:1; fill:none" points="2291.42,1486.45 2291.42,1467.55 "/>
<path clip-path="url(#clip340)" d="M218.439 1517.37 Q214.828 1517.37 212.999 1520.93 Q211.193 1524.47 211.193 1531.6 Q211.193 1538.71 212.999 1542.27 Q214.828 1545.82 218.439 1545.82 Q222.073 1545.82 223.879 1542.27 Q225.707 1538.71 225.707 1531.6 Q225.707 1524.47 223.879 1520.93 Q222.073 1517.37 218.439 1517.37 M218.439 1513.66 Q224.249 1513.66 227.304 1518.27 Q230.383 1522.85 230.383 1531.6 Q230.383 1540.33 227.304 1544.94 Q224.249 1549.52 218.439 1549.52 Q212.629 1549.52 209.55 1544.94 Q206.494 1540.33 206.494 1531.6 Q206.494 1522.85 209.55 1518.27 Q212.629 1513.66 218.439 1513.66 Z" fill="#000000" fill-rule="nonzero" fill-opacity="1" /><path clip-path="url(#clip340)" d="M592.653 1514.29 L611.01 1514.29 L611.01 1518.22 L596.936 1518.22 L596.936 1526.7 Q597.954 1526.35 598.973 1526.19 Q599.991 1526 601.01 1526 Q606.797 1526 610.176 1529.17 Q613.556 1532.34 613.556 1537.76 Q613.556 1543.34 610.084 1546.44 Q606.612 1549.52 600.292 1549.52 Q598.116 1549.52 595.848 1549.15 Q593.602 1548.78 591.195 1548.04 L591.195 1543.34 Q593.278 1544.47 595.501 1545.03 Q597.723 1545.58 600.2 1545.58 Q604.204 1545.58 606.542 1543.48 Q608.88 1541.37 608.88 1537.76 Q608.88 1534.15 606.542 1532.04 Q604.204 1529.94 600.2 1529.94 Q598.325 1529.94 596.45 1530.35 Q594.598 1530.77 592.653 1531.65 L592.653 1514.29 Z" fill="#000000" fill-rule="nonzero" fill-opacity="1" /><path clip-path="url(#clip340)" d="M632.769 1517.37 Q629.158 1517.37 627.329 1520.93 Q625.524 1524.47 625.524 1531.6 Q625.524 1538.71 627.329 1542.27 Q629.158 1545.82 632.769 1545.82 Q636.403 1545.82 638.209 1542.27 Q640.037 1538.71 640.037 1531.6 Q640.037 1524.47 638.209 1520.93 Q636.403 1517.37 632.769 1517.37 M632.769 1513.66 Q638.579 1513.66 641.635 1518.27 Q644.713 1522.85 644.713 1531.6 Q644.713 1540.33 641.635 1544.94 Q638.579 1549.52 632.769 1549.52 Q626.959 1549.52 623.88 1544.94 Q620.825 1540.33 620.825 1531.6 Q620.825 1522.85 623.88 1518.27 Q626.959 1513.66 632.769 1513.66 Z" fill="#000000" fill-rule="nonzero" fill-opacity="1" /><path clip-path="url(#clip340)" d="M662.931 1517.37 Q659.32 1517.37 657.491 1520.93 Q655.685 1524.47 655.685 1531.6 Q655.685 1538.71 657.491 1542.27 Q659.32 1545.82 662.931 1545.82 Q666.565 1545.82 668.371 1542.27 Q670.199 1538.71 670.199 1531.6 Q670.199 1524.47 668.371 1520.93 Q666.565 1517.37 662.931 1517.37 M662.931 1513.66 Q668.741 1513.66 671.796 1518.27 Q674.875 1522.85 674.875 1531.6 Q674.875 1540.33 671.796 1544.94 Q668.741 1549.52 662.931 1549.52 Q657.121 1549.52 654.042 1544.94 Q650.986 1540.33 650.986 1531.6 Q650.986 1522.85 654.042 1518.27 Q657.121 1513.66 662.931 1513.66 Z" fill="#000000" fill-rule="nonzero" fill-opacity="1" /><path clip-path="url(#clip340)" d="M992.157 1544.91 L999.796 1544.91 L999.796 1518.55 L991.486 1520.21 L991.486 1515.95 L999.75 1514.29 L1004.43 1514.29 L1004.43 1544.91 L1012.06 1544.91 L1012.06 1548.85 L992.157 1548.85 L992.157 1544.91 Z" fill="#000000" fill-rule="nonzero" fill-opacity="1" /><path clip-path="url(#clip340)" d="M1031.51 1517.37 Q1027.9 1517.37 1026.07 1520.93 Q1024.26 1524.47 1024.26 1531.6 Q1024.26 1538.71 1026.07 1542.27 Q1027.9 1545.82 1031.51 1545.82 Q1035.14 1545.82 1036.95 1542.27 Q1038.78 1538.71 1038.78 1531.6 Q1038.78 1524.47 1036.95 1520.93 Q1035.14 1517.37 1031.51 1517.37 M1031.51 1513.66 Q1037.32 1513.66 1040.37 1518.27 Q1043.45 1522.85 1043.45 1531.6 Q1043.45 1540.33 1040.37 1544.94 Q1037.32 1549.52 1031.51 1549.52 Q1025.7 1549.52 1022.62 1544.94 Q1019.56 1540.33 1019.56 1531.6 Q1019.56 1522.85 1022.62 1518.27 Q1025.7 1513.66 1031.51 1513.66 Z" fill="#000000" fill-rule="nonzero" fill-opacity="1" /><path clip-path="url(#clip340)" d="M1061.67 1517.37 Q1058.06 1517.37 1056.23 1520.93 Q1054.43 1524.47 1054.43 1531.6 Q1054.43 1538.71 1056.23 1542.27 Q1058.06 1545.82 1061.67 1545.82 Q1065.3 1545.82 1067.11 1542.27 Q1068.94 1538.71 1068.94 1531.6 Q1068.94 1524.47 1067.11 1520.93 Q1065.3 1517.37 1061.67 1517.37 M1061.67 1513.66 Q1067.48 1513.66 1070.54 1518.27 Q1073.62 1522.85 1073.62 1531.6 Q1073.62 1540.33 1070.54 1544.94 Q1067.48 1549.52 1061.67 1549.52 Q1055.86 1549.52 1052.78 1544.94 Q1049.73 1540.33 1049.73 1531.6 Q1049.73 1522.85 1052.78 1518.27 Q1055.86 1513.66 1061.67 1513.66 Z" fill="#000000" fill-rule="nonzero" fill-opacity="1" /><path clip-path="url(#clip340)" d="M1091.83 1517.37 Q1088.22 1517.37 1086.39 1520.93 Q1084.59 1524.47 1084.59 1531.6 Q1084.59 1538.71 1086.39 1542.27 Q1088.22 1545.82 1091.83 1545.82 Q1095.47 1545.82 1097.27 1542.27 Q1099.1 1538.71 1099.1 1531.6 Q1099.1 1524.47 1097.27 1520.93 Q1095.47 1517.37 1091.83 1517.37 M1091.83 1513.66 Q1097.64 1513.66 1100.7 1518.27 Q1103.78 1522.85 1103.78 1531.6 Q1103.78 1540.33 1100.7 1544.94 Q1097.64 1549.52 1091.83 1549.52 Q1086.02 1549.52 1082.94 1544.94 Q1079.89 1540.33 1079.89 1531.6 Q1079.89 1522.85 1082.94 1518.27 Q1086.02 1513.66 1091.83 1513.66 Z" fill="#000000" fill-rule="nonzero" fill-opacity="1" /><path clip-path="url(#clip340)" d="M1406.75 1544.91 L1414.39 1544.91 L1414.39 1518.55 L1406.08 1520.21 L1406.08 1515.95 L1414.35 1514.29 L1419.02 1514.29 L1419.02 1544.91 L1426.66 1544.91 L1426.66 1548.85 L1406.75 1548.85 L1406.75 1544.91 Z" fill="#000000" fill-rule="nonzero" fill-opacity="1" /><path clip-path="url(#clip340)" d="M1436.15 1514.29 L1454.51 1514.29 L1454.51 1518.22 L1440.43 1518.22 L1440.43 1526.7 Q1441.45 1526.35 1442.47 1526.19 Q1443.49 1526 1444.51 1526 Q1450.3 1526 1453.67 1529.17 Q1457.05 1532.34 1457.05 1537.76 Q1457.05 1543.34 1453.58 1546.44 Q1450.11 1549.52 1443.79 1549.52 Q1441.61 1549.52 1439.35 1549.15 Q1437.1 1548.78 1434.69 1548.04 L1434.69 1543.34 Q1436.78 1544.47 1439 1545.03 Q1441.22 1545.58 1443.7 1545.58 Q1447.7 1545.58 1450.04 1543.48 Q1452.38 1541.37 1452.38 1537.76 Q1452.38 1534.15 1450.04 1532.04 Q1447.7 1529.94 1443.7 1529.94 Q1441.82 1529.94 1439.95 1530.35 Q1438.1 1530.77 1436.15 1531.65 L1436.15 1514.29 Z" fill="#000000" fill-rule="nonzero" fill-opacity="1" /><path clip-path="url(#clip340)" d="M1476.27 1517.37 Q1472.66 1517.37 1470.83 1520.93 Q1469.02 1524.47 1469.02 1531.6 Q1469.02 1538.71 1470.83 1542.27 Q1472.66 1545.82 1476.27 1545.82 Q1479.9 1545.82 1481.71 1542.27 Q1483.54 1538.71 1483.54 1531.6 Q1483.54 1524.47 1481.71 1520.93 Q1479.9 1517.37 1476.27 1517.37 M1476.27 1513.66 Q1482.08 1513.66 1485.13 1518.27 Q1488.21 1522.85 1488.21 1531.6 Q1488.21 1540.33 1485.13 1544.94 Q1482.08 1549.52 1476.27 1549.52 Q1470.46 1549.52 1467.38 1544.94 Q1464.32 1540.33 1464.32 1531.6 Q1464.32 1522.85 1467.38 1518.27 Q1470.46 1513.66 1476.27 1513.66 Z" fill="#000000" fill-rule="nonzero" fill-opacity="1" /><path clip-path="url(#clip340)" d="M1506.43 1517.37 Q1502.82 1517.37 1500.99 1520.93 Q1499.18 1524.47 1499.18 1531.6 Q1499.18 1538.71 1500.99 1542.27 Q1502.82 1545.82 1506.43 1545.82 Q1510.06 1545.82 1511.87 1542.27 Q1513.7 1538.71 1513.7 1531.6 Q1513.7 1524.47 1511.87 1520.93 Q1510.06 1517.37 1506.43 1517.37 M1506.43 1513.66 Q1512.24 1513.66 1515.29 1518.27 Q1518.37 1522.85 1518.37 1531.6 Q1518.37 1540.33 1515.29 1544.94 Q1512.24 1549.52 1506.43 1549.52 Q1500.62 1549.52 1497.54 1544.94 Q1494.48 1540.33 1494.48 1531.6 Q1494.48 1522.85 1497.54 1518.27 Q1500.62 1513.66 1506.43 1513.66 Z" fill="#000000" fill-rule="nonzero" fill-opacity="1" /><path clip-path="url(#clip340)" d="M1825.44 1544.91 L1841.75 1544.91 L1841.75 1548.85 L1819.81 1548.85 L1819.81 1544.91 Q1822.47 1542.16 1827.06 1537.53 Q1831.66 1532.88 1832.84 1531.53 Q1835.09 1529.01 1835.97 1527.27 Q1836.87 1525.51 1836.87 1523.82 Q1836.87 1521.07 1834.93 1519.33 Q1833 1517.6 1829.9 1517.6 Q1827.7 1517.6 1825.25 1518.36 Q1822.82 1519.13 1820.04 1520.68 L1820.04 1515.95 Q1822.87 1514.82 1825.32 1514.24 Q1827.77 1513.66 1829.81 1513.66 Q1835.18 1513.66 1838.38 1516.35 Q1841.57 1519.03 1841.57 1523.52 Q1841.57 1525.65 1840.76 1527.57 Q1839.97 1529.47 1837.87 1532.07 Q1837.29 1532.74 1834.19 1535.95 Q1831.08 1539.15 1825.44 1544.91 Z" fill="#000000" fill-rule="nonzero" fill-opacity="1" /><path clip-path="url(#clip340)" d="M1861.57 1517.37 Q1857.96 1517.37 1856.13 1520.93 Q1854.32 1524.47 1854.32 1531.6 Q1854.32 1538.71 1856.13 1542.27 Q1857.96 1545.82 1861.57 1545.82 Q1865.2 1545.82 1867.01 1542.27 Q1868.84 1538.71 1868.84 1531.6 Q1868.84 1524.47 1867.01 1520.93 Q1865.2 1517.37 1861.57 1517.37 M1861.57 1513.66 Q1867.38 1513.66 1870.44 1518.27 Q1873.51 1522.85 1873.51 1531.6 Q1873.51 1540.33 1870.44 1544.94 Q1867.38 1549.52 1861.57 1549.52 Q1855.76 1549.52 1852.68 1544.94 Q1849.63 1540.33 1849.63 1531.6 Q1849.63 1522.85 1852.68 1518.27 Q1855.76 1513.66 1861.57 1513.66 Z" fill="#000000" fill-rule="nonzero" fill-opacity="1" /><path clip-path="url(#clip340)" d="M1891.73 1517.37 Q1888.12 1517.37 1886.29 1520.93 Q1884.49 1524.47 1884.49 1531.6 Q1884.49 1538.71 1886.29 1542.27 Q1888.12 1545.82 1891.73 1545.82 Q1895.37 1545.82 1897.17 1542.27 Q1899 1538.71 1899 1531.6 Q1899 1524.47 1897.17 1520.93 Q1895.37 1517.37 1891.73 1517.37 M1891.73 1513.66 Q1897.54 1513.66 1900.6 1518.27 Q1903.68 1522.85 1903.68 1531.6 Q1903.68 1540.33 1900.6 1544.94 Q1897.54 1549.52 1891.73 1549.52 Q1885.92 1549.52 1882.84 1544.94 Q1879.79 1540.33 1879.79 1531.6 Q1879.79 1522.85 1882.84 1518.27 Q1885.92 1513.66 1891.73 1513.66 Z" fill="#000000" fill-rule="nonzero" fill-opacity="1" /><path clip-path="url(#clip340)" d="M1921.89 1517.37 Q1918.28 1517.37 1916.45 1520.93 Q1914.65 1524.47 1914.65 1531.6 Q1914.65 1538.71 1916.45 1542.27 Q1918.28 1545.82 1921.89 1545.82 Q1925.53 1545.82 1927.33 1542.27 Q1929.16 1538.71 1929.16 1531.6 Q1929.16 1524.47 1927.33 1520.93 Q1925.53 1517.37 1921.89 1517.37 M1921.89 1513.66 Q1927.7 1513.66 1930.76 1518.27 Q1933.84 1522.85 1933.84 1531.6 Q1933.84 1540.33 1930.76 1544.94 Q1927.7 1549.52 1921.89 1549.52 Q1916.08 1549.52 1913 1544.94 Q1909.95 1540.33 1909.95 1531.6 Q1909.95 1522.85 1913 1518.27 Q1916.08 1513.66 1921.89 1513.66 Z" fill="#000000" fill-rule="nonzero" fill-opacity="1" /><path clip-path="url(#clip340)" d="M2240.03 1544.91 L2256.35 1544.91 L2256.35 1548.85 L2234.41 1548.85 L2234.41 1544.91 Q2237.07 1542.16 2241.65 1537.53 Q2246.26 1532.88 2247.44 1531.53 Q2249.68 1529.01 2250.56 1527.27 Q2251.47 1525.51 2251.47 1523.82 Q2251.47 1521.07 2249.52 1519.33 Q2247.6 1517.6 2244.5 1517.6 Q2242.3 1517.6 2239.85 1518.36 Q2237.42 1519.13 2234.64 1520.68 L2234.64 1515.95 Q2237.46 1514.82 2239.92 1514.24 Q2242.37 1513.66 2244.41 1513.66 Q2249.78 1513.66 2252.97 1516.35 Q2256.17 1519.03 2256.17 1523.52 Q2256.17 1525.65 2255.36 1527.57 Q2254.57 1529.47 2252.46 1532.07 Q2251.88 1532.74 2248.78 1535.95 Q2245.68 1539.15 2240.03 1544.91 Z" fill="#000000" fill-rule="nonzero" fill-opacity="1" /><path clip-path="url(#clip340)" d="M2266.21 1514.29 L2284.57 1514.29 L2284.57 1518.22 L2270.49 1518.22 L2270.49 1526.7 Q2271.51 1526.35 2272.53 1526.19 Q2273.55 1526 2274.57 1526 Q2280.36 1526 2283.74 1529.17 Q2287.11 1532.34 2287.11 1537.76 Q2287.11 1543.34 2283.64 1546.44 Q2280.17 1549.52 2273.85 1549.52 Q2271.68 1549.52 2269.41 1549.15 Q2267.16 1548.78 2264.75 1548.04 L2264.75 1543.34 Q2266.84 1544.47 2269.06 1545.03 Q2271.28 1545.58 2273.76 1545.58 Q2277.76 1545.58 2280.1 1543.48 Q2282.44 1541.37 2282.44 1537.76 Q2282.44 1534.15 2280.1 1532.04 Q2277.76 1529.94 2273.76 1529.94 Q2271.88 1529.94 2270.01 1530.35 Q2268.16 1530.77 2266.21 1531.65 L2266.21 1514.29 Z" fill="#000000" fill-rule="nonzero" fill-opacity="1" /><path clip-path="url(#clip340)" d="M2306.33 1517.37 Q2302.72 1517.37 2300.89 1520.93 Q2299.08 1524.47 2299.08 1531.6 Q2299.08 1538.71 2300.89 1542.27 Q2302.72 1545.82 2306.33 1545.82 Q2309.96 1545.82 2311.77 1542.27 Q2313.6 1538.71 2313.6 1531.6 Q2313.6 1524.47 2311.77 1520.93 Q2309.96 1517.37 2306.33 1517.37 M2306.33 1513.66 Q2312.14 1513.66 2315.19 1518.27 Q2318.27 1522.85 2318.27 1531.6 Q2318.27 1540.33 2315.19 1544.94 Q2312.14 1549.52 2306.33 1549.52 Q2300.52 1549.52 2297.44 1544.94 Q2294.38 1540.33 2294.38 1531.6 Q2294.38 1522.85 2297.44 1518.27 Q2300.52 1513.66 2306.33 1513.66 Z" fill="#000000" fill-rule="nonzero" fill-opacity="1" /><path clip-path="url(#clip340)" d="M2336.49 1517.37 Q2332.88 1517.37 2331.05 1520.93 Q2329.24 1524.47 2329.24 1531.6 Q2329.24 1538.71 2331.05 1542.27 Q2332.88 1545.82 2336.49 1545.82 Q2340.12 1545.82 2341.93 1542.27 Q2343.76 1538.71 2343.76 1531.6 Q2343.76 1524.47 2341.93 1520.93 Q2340.12 1517.37 2336.49 1517.37 M2336.49 1513.66 Q2342.3 1513.66 2345.36 1518.27 Q2348.43 1522.85 2348.43 1531.6 Q2348.43 1540.33 2345.36 1544.94 Q2342.3 1549.52 2336.49 1549.52 Q2330.68 1549.52 2327.6 1544.94 Q2324.55 1540.33 2324.55 1531.6 Q2324.55 1522.85 2327.6 1518.27 Q2330.68 1513.66 2336.49 1513.66 Z" fill="#000000" fill-rule="nonzero" fill-opacity="1" /><polyline clip-path="url(#clip342)" style="stroke:#000000; stroke-linecap:round; stroke-linejoin:round; stroke-width:2; stroke-opacity:0.1; fill:none" points="156.274,1364.99 2352.76,1364.99 "/>
<polyline clip-path="url(#clip342)" style="stroke:#000000; stroke-linecap:round; stroke-linejoin:round; stroke-width:2; stroke-opacity:0.1; fill:none" points="156.274,1045.73 2352.76,1045.73 "/>
<polyline clip-path="url(#clip342)" style="stroke:#000000; stroke-linecap:round; stroke-linejoin:round; stroke-width:2; stroke-opacity:0.1; fill:none" points="156.274,726.481 2352.76,726.481 "/>
<polyline clip-path="url(#clip342)" style="stroke:#000000; stroke-linecap:round; stroke-linejoin:round; stroke-width:2; stroke-opacity:0.1; fill:none" points="156.274,407.229 2352.76,407.229 "/>
<polyline clip-path="url(#clip342)" style="stroke:#000000; stroke-linecap:round; stroke-linejoin:round; stroke-width:2; stroke-opacity:0.1; fill:none" points="156.274,87.9763 2352.76,87.9763 "/>
<polyline clip-path="url(#clip340)" style="stroke:#000000; stroke-linecap:round; stroke-linejoin:round; stroke-width:4; stroke-opacity:1; fill:none" points="156.274,1486.45 156.274,47.2441 "/>
<polyline clip-path="url(#clip340)" style="stroke:#000000; stroke-linecap:round; stroke-linejoin:round; stroke-width:4; stroke-opacity:1; fill:none" points="156.274,1364.99 175.172,1364.99 "/>
<polyline clip-path="url(#clip340)" style="stroke:#000000; stroke-linecap:round; stroke-linejoin:round; stroke-width:4; stroke-opacity:1; fill:none" points="156.274,1045.73 175.172,1045.73 "/>
<polyline clip-path="url(#clip340)" style="stroke:#000000; stroke-linecap:round; stroke-linejoin:round; stroke-width:4; stroke-opacity:1; fill:none" points="156.274,726.481 175.172,726.481 "/>
<polyline clip-path="url(#clip340)" style="stroke:#000000; stroke-linecap:round; stroke-linejoin:round; stroke-width:4; stroke-opacity:1; fill:none" points="156.274,407.229 175.172,407.229 "/>
<polyline clip-path="url(#clip340)" style="stroke:#000000; stroke-linecap:round; stroke-linejoin:round; stroke-width:4; stroke-opacity:1; fill:none" points="156.274,87.9763 175.172,87.9763 "/>
<path clip-path="url(#clip340)" d="M62.9365 1350.78 Q59.3254 1350.78 57.4967 1354.35 Q55.6912 1357.89 55.6912 1365.02 Q55.6912 1372.13 57.4967 1375.69 Q59.3254 1379.23 62.9365 1379.23 Q66.5707 1379.23 68.3763 1375.69 Q70.205 1372.13 70.205 1365.02 Q70.205 1357.89 68.3763 1354.35 Q66.5707 1350.78 62.9365 1350.78 M62.9365 1347.08 Q68.7467 1347.08 71.8022 1351.69 Q74.8809 1356.27 74.8809 1365.02 Q74.8809 1373.75 71.8022 1378.35 Q68.7467 1382.94 62.9365 1382.94 Q57.1264 1382.94 54.0477 1378.35 Q50.9921 1373.75 50.9921 1365.02 Q50.9921 1356.27 54.0477 1351.69 Q57.1264 1347.08 62.9365 1347.08 Z" fill="#000000" fill-rule="nonzero" fill-opacity="1" /><path clip-path="url(#clip340)" d="M83.0984 1376.39 L87.9827 1376.39 L87.9827 1382.27 L83.0984 1382.27 L83.0984 1376.39 Z" fill="#000000" fill-rule="nonzero" fill-opacity="1" /><path clip-path="url(#clip340)" d="M108.746 1363.12 Q105.598 1363.12 103.746 1365.27 Q101.918 1367.43 101.918 1371.18 Q101.918 1374.9 103.746 1377.08 Q105.598 1379.23 108.746 1379.23 Q111.895 1379.23 113.723 1377.08 Q115.575 1374.9 115.575 1371.18 Q115.575 1367.43 113.723 1365.27 Q111.895 1363.12 108.746 1363.12 M118.029 1348.47 L118.029 1352.73 Q116.27 1351.9 114.464 1351.46 Q112.682 1351.02 110.922 1351.02 Q106.293 1351.02 103.839 1354.14 Q101.409 1357.27 101.061 1363.58 Q102.427 1361.57 104.487 1360.51 Q106.547 1359.42 109.024 1359.42 Q114.233 1359.42 117.242 1362.59 Q120.274 1365.74 120.274 1371.18 Q120.274 1376.5 117.126 1379.72 Q113.978 1382.94 108.746 1382.94 Q102.751 1382.94 99.5798 1378.35 Q96.4085 1373.75 96.4085 1365.02 Q96.4085 1356.83 100.297 1351.96 Q104.186 1347.08 110.737 1347.08 Q112.496 1347.08 114.279 1347.43 Q116.084 1347.77 118.029 1348.47 Z" fill="#000000" fill-rule="nonzero" fill-opacity="1" /><path clip-path="url(#clip340)" d="M64.0013 1031.53 Q60.3902 1031.53 58.5615 1035.1 Q56.756 1038.64 56.756 1045.77 Q56.756 1052.87 58.5615 1056.44 Q60.3902 1059.98 64.0013 1059.98 Q67.6356 1059.98 69.4411 1056.44 Q71.2698 1052.87 71.2698 1045.77 Q71.2698 1038.64 69.4411 1035.1 Q67.6356 1031.53 64.0013 1031.53 M64.0013 1027.83 Q69.8115 1027.83 72.867 1032.43 Q75.9457 1037.02 75.9457 1045.77 Q75.9457 1054.49 72.867 1059.1 Q69.8115 1063.68 64.0013 1063.68 Q58.1912 1063.68 55.1125 1059.1 Q52.0569 1054.49 52.0569 1045.77 Q52.0569 1037.02 55.1125 1032.43 Q58.1912 1027.83 64.0013 1027.83 Z" fill="#000000" fill-rule="nonzero" fill-opacity="1" /><path clip-path="url(#clip340)" d="M84.1632 1057.13 L89.0475 1057.13 L89.0475 1063.01 L84.1632 1063.01 L84.1632 1057.13 Z" fill="#000000" fill-rule="nonzero" fill-opacity="1" /><path clip-path="url(#clip340)" d="M98.0521 1028.45 L120.274 1028.45 L120.274 1030.44 L107.728 1063.01 L102.844 1063.01 L114.649 1032.39 L98.0521 1032.39 L98.0521 1028.45 Z" fill="#000000" fill-rule="nonzero" fill-opacity="1" /><path clip-path="url(#clip340)" d="M63.1911 712.279 Q59.58 712.279 57.7513 715.844 Q55.9458 719.386 55.9458 726.515 Q55.9458 733.622 57.7513 737.187 Q59.58 740.728 63.1911 740.728 Q66.8254 740.728 68.6309 737.187 Q70.4596 733.622 70.4596 726.515 Q70.4596 719.386 68.6309 715.844 Q66.8254 712.279 63.1911 712.279 M63.1911 708.576 Q69.0013 708.576 72.0568 713.182 Q75.1355 717.766 75.1355 726.515 Q75.1355 735.242 72.0568 739.849 Q69.0013 744.432 63.1911 744.432 Q57.381 744.432 54.3023 739.849 Q51.2468 735.242 51.2468 726.515 Q51.2468 717.766 54.3023 713.182 Q57.381 708.576 63.1911 708.576 Z" fill="#000000" fill-rule="nonzero" fill-opacity="1" /><path clip-path="url(#clip340)" d="M83.3531 737.881 L88.2373 737.881 L88.2373 743.761 L83.3531 743.761 L83.3531 737.881 Z" fill="#000000" fill-rule="nonzero" fill-opacity="1" /><path clip-path="url(#clip340)" d="M108.422 727.349 Q105.089 727.349 103.168 729.131 Q101.27 730.914 101.27 734.039 Q101.27 737.164 103.168 738.946 Q105.089 740.728 108.422 740.728 Q111.756 740.728 113.677 738.946 Q115.598 737.14 115.598 734.039 Q115.598 730.914 113.677 729.131 Q111.779 727.349 108.422 727.349 M103.746 725.358 Q100.737 724.617 99.0474 722.557 Q97.3808 720.497 97.3808 717.534 Q97.3808 713.391 100.321 710.983 Q103.284 708.576 108.422 708.576 Q113.584 708.576 116.524 710.983 Q119.464 713.391 119.464 717.534 Q119.464 720.497 117.774 722.557 Q116.108 724.617 113.121 725.358 Q116.501 726.145 118.376 728.437 Q120.274 730.728 120.274 734.039 Q120.274 739.062 117.195 741.747 Q114.14 744.432 108.422 744.432 Q102.705 744.432 99.6261 741.747 Q96.5706 739.062 96.5706 734.039 Q96.5706 730.728 98.4687 728.437 Q100.367 726.145 103.746 725.358 M102.034 717.974 Q102.034 720.659 103.7 722.164 Q105.39 723.668 108.422 723.668 Q111.432 723.668 113.121 722.164 Q114.834 720.659 114.834 717.974 Q114.834 715.289 113.121 713.784 Q111.432 712.279 108.422 712.279 Q105.39 712.279 103.7 713.784 Q102.034 715.289 102.034 717.974 Z" fill="#000000" fill-rule="nonzero" fill-opacity="1" /><path clip-path="url(#clip340)" d="M63.2837 393.027 Q59.6726 393.027 57.8439 396.592 Q56.0384 400.134 56.0384 407.263 Q56.0384 414.37 57.8439 417.934 Q59.6726 421.476 63.2837 421.476 Q66.918 421.476 68.7235 417.934 Q70.5522 414.37 70.5522 407.263 Q70.5522 400.134 68.7235 396.592 Q66.918 393.027 63.2837 393.027 M63.2837 389.324 Q69.0939 389.324 72.1494 393.93 Q75.2281 398.513 75.2281 407.263 Q75.2281 415.99 72.1494 420.597 Q69.0939 425.18 63.2837 425.18 Q57.4736 425.18 54.3949 420.597 Q51.3393 415.99 51.3393 407.263 Q51.3393 398.513 54.3949 393.93 Q57.4736 389.324 63.2837 389.324 Z" fill="#000000" fill-rule="nonzero" fill-opacity="1" /><path clip-path="url(#clip340)" d="M83.4457 418.629 L88.3299 418.629 L88.3299 424.509 L83.4457 424.509 L83.4457 418.629 Z" fill="#000000" fill-rule="nonzero" fill-opacity="1" /><path clip-path="url(#clip340)" d="M98.6539 423.791 L98.6539 419.532 Q100.413 420.365 102.219 420.805 Q104.024 421.245 105.76 421.245 Q110.39 421.245 112.82 418.143 Q115.274 415.018 115.621 408.675 Q114.279 410.666 112.219 411.731 Q110.158 412.796 107.658 412.796 Q102.473 412.796 99.4409 409.671 Q96.4317 406.523 96.4317 401.083 Q96.4317 395.759 99.5798 392.541 Q102.728 389.324 107.959 389.324 Q113.955 389.324 117.103 393.93 Q120.274 398.513 120.274 407.263 Q120.274 415.434 116.385 420.319 Q112.52 425.18 105.969 425.18 Q104.209 425.18 102.404 424.833 Q100.598 424.485 98.6539 423.791 M107.959 409.138 Q111.108 409.138 112.936 406.985 Q114.788 404.833 114.788 401.083 Q114.788 397.356 112.936 395.203 Q111.108 393.027 107.959 393.027 Q104.811 393.027 102.959 395.203 Q101.131 397.356 101.131 401.083 Q101.131 404.833 102.959 406.985 Q104.811 409.138 107.959 409.138 Z" fill="#000000" fill-rule="nonzero" fill-opacity="1" /><path clip-path="url(#clip340)" d="M53.9088 101.321 L61.5476 101.321 L61.5476 74.9555 L53.2375 76.6222 L53.2375 72.3629 L61.5013 70.6963 L66.1772 70.6963 L66.1772 101.321 L73.8161 101.321 L73.8161 105.256 L53.9088 105.256 L53.9088 101.321 Z" fill="#000000" fill-rule="nonzero" fill-opacity="1" /><path clip-path="url(#clip340)" d="M83.2605 99.3767 L88.1447 99.3767 L88.1447 105.256 L83.2605 105.256 L83.2605 99.3767 Z" fill="#000000" fill-rule="nonzero" fill-opacity="1" /><path clip-path="url(#clip340)" d="M108.33 73.775 Q104.719 73.775 102.89 77.3398 Q101.084 80.8814 101.084 88.011 Q101.084 95.1174 102.89 98.6822 Q104.719 102.224 108.33 102.224 Q111.964 102.224 113.77 98.6822 Q115.598 95.1174 115.598 88.011 Q115.598 80.8814 113.77 77.3398 Q111.964 73.775 108.33 73.775 M108.33 70.0713 Q114.14 70.0713 117.195 74.6777 Q120.274 79.261 120.274 88.011 Q120.274 96.7378 117.195 101.344 Q114.14 105.928 108.33 105.928 Q102.52 105.928 99.4409 101.344 Q96.3854 96.7378 96.3854 88.011 Q96.3854 79.261 99.4409 74.6777 Q102.52 70.0713 108.33 70.0713 Z" fill="#000000" fill-rule="nonzero" fill-opacity="1" /><polyline clip-path="url(#clip342)" style="stroke:#009af9; stroke-linecap:round; stroke-linejoin:round; stroke-width:4; stroke-opacity:1; fill:none" points="218.439,1207.43 219.268,1032.24 220.097,1032.24 220.926,1180.15 221.756,1032.24 222.585,1445.72 223.414,933.056 224.243,1380.19 225.072,1380.19 225.901,1380.19 226.731,1032.24 227.56,1207.43 228.389,861.921 229.218,1000.13 230.047,1093.84 230.877,1032.24 231.706,746.751 232.535,933.056 233.364,1207.43 234.193,824.712 235.023,574.971 235.852,786.341 236.681,933.056 237.51,824.712 238.339,1000.13 239.169,967.077 239.998,1093.84 240.827,1032.24 241.656,705.884 242.485,1032.24 243.315,967.077 244.144,1063.47 244.973,898.019 245.802,967.077 246.631,746.751 247.46,933.056 248.29,528.324 249.119,746.751 249.948,861.921 250.777,746.751 251.606,746.751 252.436,705.884 253.265,705.884 254.094,430.032 254.923,620.063 255.752,824.712 256.582,705.884 257.411,574.971 258.24,430.032 259.069,786.341 259.898,430.032 260.728,705.884 261.557,480.04 262.386,663.677 263.215,528.324 264.044,705.884 264.874,574.971 265.703,898.019 266.532,480.04 267.361,268.685 268.19,705.884 269.019,1000.13 269.849,620.063 270.678,786.341 271.507,663.677 272.336,746.751 273.165,430.032 273.995,528.324 274.824,663.677 275.653,746.751 276.482,574.971 277.311,480.04 278.141,620.063 278.97,480.04 279.799,528.324 280.628,705.884 281.457,620.063 282.287,620.063 283.116,620.063 283.945,268.685 284.774,528.324 285.603,786.341 286.433,663.677 287.262,786.341 288.091,430.032 288.92,620.063 289.749,663.677 290.579,620.063 291.408,480.04 292.237,378.206 293.066,324.459 293.895,430.032 294.724,430.032 295.554,528.324 296.383,378.206 297.212,480.04 298.041,430.032 298.87,480.04 299.7,480.04 300.529,574.971 301.358,528.324 302.187,430.032 303.016,324.459 303.846,480.04 304.675,528.324 305.504,378.206 306.333,480.04 307.162,378.206 307.992,574.971 308.821,430.032 309.65,480.04 310.479,324.459 311.308,268.685 312.138,324.459 312.967,378.206 313.796,430.032 314.625,430.032 315.454,378.206 316.283,620.063 317.113,210.766 317.942,430.032 318.771,324.459 319.6,430.032 320.429,324.459 321.259,528.324 322.088,324.459 322.917,574.971 323.746,620.063 324.575,324.459 325.405,528.324 326.234,480.04 327.063,324.459 327.892,210.766 328.721,324.459 329.551,480.04 330.38,574.971 331.209,268.685 332.038,210.766 332.867,528.324 333.697,210.766 334.526,663.677 335.355,378.206 336.184,268.685 337.013,324.459 337.842,430.032 338.672,268.685 339.501,378.206 340.33,430.032 341.159,430.032 341.988,268.685 342.818,480.04 343.647,210.766 344.476,210.766 345.305,480.04 346.134,87.9763 346.964,268.685 347.793,620.063 348.622,378.206 349.451,268.685 350.28,150.575 351.11,324.459 351.939,378.206 352.768,378.206 353.597,150.575 354.426,378.206 355.256,210.766 356.085,430.032 356.914,210.766 357.743,268.685 358.572,378.206 359.402,378.206 360.231,268.685 361.06,268.685 361.889,210.766 362.718,430.032 363.547,268.685 364.377,378.206 365.206,268.685 366.035,87.9763 366.864,150.575 367.693,378.206 368.523,378.206 369.352,268.685 370.181,210.766 371.01,324.459 371.839,150.575 372.669,324.459 373.498,210.766 374.327,210.766 375.156,430.032 375.985,324.459 376.815,150.575 377.644,150.575 378.473,268.685 379.302,430.032 380.131,268.685 380.961,268.685 381.79,210.766 382.619,150.575 383.448,210.766 384.277,268.685 385.106,150.575 385.936,210.766 386.765,150.575 387.594,268.685 388.423,150.575 389.252,210.766 390.082,87.9763 390.911,268.685 391.74,210.766 392.569,210.766 393.398,210.766 394.228,150.575 395.057,430.032 395.886,430.032 396.715,210.766 397.544,150.575 398.374,210.766 399.203,87.9763 400.032,430.032 400.861,210.766 401.69,150.575 402.52,430.032 403.349,324.459 404.178,268.685 405.007,210.766 405.836,268.685 406.665,150.575 407.495,87.9763 408.324,150.575 409.153,268.685 409.982,268.685 410.811,87.9763 411.641,210.766 412.47,210.766 413.299,150.575 414.128,210.766 414.957,324.459 415.787,210.766 416.616,87.9763 417.445,150.575 418.274,268.685 419.103,210.766 419.933,268.685 420.762,150.575 421.591,150.575 422.42,150.575 423.249,87.9763 424.079,87.9763 424.908,210.766 425.737,268.685 426.566,268.685 427.395,87.9763 428.224,324.459 429.054,210.766 429.883,150.575 430.712,87.9763 431.541,378.206 432.37,150.575 433.2,150.575 434.029,268.685 434.858,324.459 435.687,210.766 436.516,480.04 437.346,150.575 438.175,150.575 439.004,150.575 439.833,150.575 440.662,268.685 441.492,210.766 442.321,210.766 443.15,268.685 443.979,87.9763 444.808,150.575 445.638,324.459 446.467,268.685 447.296,268.685 448.125,210.766 448.954,87.9763 449.784,150.575 450.613,150.575 451.442,87.9763 452.271,87.9763 453.1,324.459 453.929,268.685 454.759,150.575 455.588,210.766 456.417,210.766 457.246,378.206 458.075,150.575 458.905,324.459 459.734,150.575 460.563,268.685 461.392,150.575 462.221,210.766 463.051,87.9763 463.88,150.575 464.709,210.766 465.538,150.575 466.367,150.575 467.197,87.9763 468.026,210.766 468.855,87.9763 469.684,210.766 470.513,150.575 471.343,268.685 472.172,210.766 473.001,87.9763 473.83,210.766 474.659,210.766 475.488,324.459 476.318,87.9763 477.147,150.575 477.976,150.575 478.805,150.575 479.634,150.575 480.464,87.9763 481.293,150.575 482.122,87.9763 482.951,150.575 483.78,210.766 484.61,150.575 485.439,210.766 486.268,87.9763 487.097,150.575 487.926,210.766 488.756,324.459 489.585,210.766 490.414,268.685 491.243,150.575 492.072,87.9763 492.902,87.9763 493.731,150.575 494.56,268.685 495.389,150.575 496.218,150.575 497.047,210.766 497.877,210.766 498.706,210.766 499.535,150.575 500.364,87.9763 501.193,150.575 502.023,87.9763 502.852,150.575 503.681,210.766 504.51,268.685 505.339,87.9763 506.169,150.575 506.998,150.575 507.827,150.575 508.656,210.766 509.485,87.9763 510.315,150.575 511.144,210.766 511.973,150.575 512.802,150.575 513.631,210.766 514.461,150.575 515.29,150.575 516.119,268.685 516.948,87.9763 517.777,268.685 518.607,150.575 519.436,150.575 520.265,150.575 521.094,150.575 521.923,87.9763 522.752,87.9763 523.582,150.575 524.411,87.9763 525.24,210.766 526.069,87.9763 526.898,378.206 527.728,268.685 528.557,210.766 529.386,150.575 530.215,150.575 531.044,210.766 531.874,150.575 532.703,87.9763 533.532,150.575 534.361,87.9763 535.19,150.575 536.02,87.9763 536.849,87.9763 537.678,87.9763 538.507,268.685 539.336,150.575 540.166,210.766 540.995,150.575 541.824,268.685 542.653,87.9763 543.482,268.685 544.311,210.766 545.141,210.766 545.97,150.575 546.799,87.9763 547.628,210.766 548.457,150.575 549.287,87.9763 550.116,150.575 550.945,150.575 551.774,150.575 552.603,87.9763 553.433,87.9763 554.262,378.206 555.091,210.766 555.92,87.9763 556.749,268.685 557.579,210.766 558.408,324.459 559.237,210.766 560.066,268.685 560.895,210.766 561.725,87.9763 562.554,87.9763 563.383,150.575 564.212,150.575 565.041,210.766 565.87,87.9763 566.7,268.685 567.529,210.766 568.358,150.575 569.187,150.575 570.016,87.9763 570.846,87.9763 571.675,150.575 572.504,87.9763 573.333,87.9763 574.162,87.9763 574.992,268.685 575.821,268.685 576.65,87.9763 577.479,87.9763 578.308,87.9763 579.138,210.766 579.967,87.9763 580.796,87.9763 581.625,150.575 582.454,210.766 583.284,87.9763 584.113,87.9763 584.942,150.575 585.771,87.9763 586.6,150.575 587.429,150.575 588.259,87.9763 589.088,210.766 589.917,210.766 590.746,87.9763 591.575,324.459 592.405,150.575 593.234,87.9763 594.063,210.766 594.892,87.9763 595.721,268.685 596.551,324.459 597.38,150.575 598.209,150.575 599.038,150.575 599.867,150.575 600.697,150.575 601.526,150.575 602.355,268.685 603.184,150.575 604.013,150.575 604.843,87.9763 605.672,87.9763 606.501,150.575 607.33,268.685 608.159,87.9763 608.989,87.9763 609.818,87.9763 610.647,150.575 611.476,150.575 612.305,210.766 613.134,87.9763 613.964,150.575 614.793,210.766 615.622,150.575 616.451,210.766 617.28,150.575 618.11,87.9763 618.939,87.9763 619.768,150.575 620.597,87.9763 621.426,210.766 622.256,150.575 623.085,87.9763 623.914,150.575 624.743,150.575 625.572,268.685 626.402,150.575 627.231,150.575 628.06,87.9763 628.889,87.9763 629.718,150.575 630.548,87.9763 631.377,150.575 632.206,87.9763 633.035,150.575 633.864,150.575 634.693,210.766 635.523,150.575 636.352,150.575 637.181,87.9763 638.01,87.9763 638.839,87.9763 639.669,87.9763 640.498,210.766 641.327,150.575 642.156,87.9763 642.985,87.9763 643.815,87.9763 644.644,150.575 645.473,87.9763 646.302,87.9763 647.131,210.766 647.961,150.575 648.79,87.9763 649.619,210.766 650.448,210.766 651.277,150.575 652.107,150.575 652.936,87.9763 653.765,87.9763 654.594,150.575 655.423,87.9763 656.252,87.9763 657.082,150.575 657.911,210.766 658.74,150.575 659.569,150.575 660.398,150.575 661.228,150.575 662.057,87.9763 662.886,87.9763 663.715,87.9763 664.544,210.766 665.374,150.575 666.203,150.575 667.032,210.766 667.861,150.575 668.69,150.575 669.52,87.9763 670.349,87.9763 671.178,150.575 672.007,210.766 672.836,87.9763 673.666,87.9763 674.495,150.575 675.324,150.575 676.153,150.575 676.982,87.9763 677.812,87.9763 678.641,87.9763 679.47,268.685 680.299,210.766 681.128,150.575 681.957,210.766 682.787,210.766 683.616,150.575 684.445,87.9763 685.274,150.575 686.103,150.575 686.933,150.575 687.762,87.9763 688.591,87.9763 689.42,210.766 690.249,210.766 691.079,150.575 691.908,87.9763 692.737,210.766 693.566,268.685 694.395,150.575 695.225,87.9763 696.054,150.575 696.883,87.9763 697.712,87.9763 698.541,150.575 699.371,210.766 700.2,210.766 701.029,210.766 701.858,150.575 702.687,150.575 703.516,210.766 704.346,150.575 705.175,210.766 706.004,150.575 706.833,150.575 707.662,87.9763 708.492,150.575 709.321,87.9763 710.15,87.9763 710.979,87.9763 711.808,87.9763 712.638,150.575 713.467,150.575 714.296,87.9763 715.125,87.9763 715.954,87.9763 716.784,150.575 717.613,150.575 718.442,150.575 719.271,87.9763 720.1,87.9763 720.93,150.575 721.759,87.9763 722.588,87.9763 723.417,87.9763 724.246,150.575 725.075,378.206 725.905,87.9763 726.734,87.9763 727.563,87.9763 728.392,150.575 729.221,150.575 730.051,87.9763 730.88,378.206 731.709,150.575 732.538,87.9763 733.367,87.9763 734.197,150.575 735.026,210.766 735.855,87.9763 736.684,210.766 737.513,87.9763 738.343,87.9763 739.172,268.685 740.001,150.575 740.83,87.9763 741.659,150.575 742.489,87.9763 743.318,87.9763 744.147,150.575 744.976,87.9763 745.805,87.9763 746.634,87.9763 747.464,87.9763 748.293,87.9763 749.122,150.575 749.951,150.575 750.78,87.9763 751.61,150.575 752.439,87.9763 753.268,87.9763 754.097,150.575 754.926,87.9763 755.756,150.575 756.585,150.575 757.414,87.9763 758.243,87.9763 759.072,210.766 759.902,87.9763 760.731,87.9763 761.56,150.575 762.389,150.575 763.218,210.766 764.048,150.575 764.877,150.575 765.706,210.766 766.535,87.9763 767.364,87.9763 768.194,150.575 769.023,87.9763 769.852,87.9763 770.681,150.575 771.51,150.575 772.339,87.9763 773.169,87.9763 773.998,87.9763 774.827,150.575 775.656,150.575 776.485,87.9763 777.315,150.575 778.144,210.766 778.973,150.575 779.802,87.9763 780.631,150.575 781.461,87.9763 782.29,87.9763 783.119,87.9763 783.948,150.575 784.777,150.575 785.607,87.9763 786.436,87.9763 787.265,150.575 788.094,87.9763 788.923,87.9763 789.753,87.9763 790.582,150.575 791.411,87.9763 792.24,87.9763 793.069,87.9763 793.898,150.575 794.728,87.9763 795.557,150.575 796.386,87.9763 797.215,87.9763 798.044,87.9763 798.874,87.9763 799.703,268.685 800.532,87.9763 801.361,87.9763 802.19,87.9763 803.02,87.9763 803.849,87.9763 804.678,150.575 805.507,210.766 806.336,87.9763 807.166,87.9763 807.995,150.575 808.824,87.9763 809.653,87.9763 810.482,150.575 811.312,87.9763 812.141,87.9763 812.97,87.9763 813.799,268.685 814.628,87.9763 815.457,150.575 816.287,150.575 817.116,210.766 817.945,150.575 818.774,87.9763 819.603,210.766 820.433,150.575 821.262,87.9763 822.091,150.575 822.92,150.575 823.749,150.575 824.579,87.9763 825.408,150.575 826.237,150.575 827.066,87.9763 827.895,87.9763 828.725,87.9763 829.554,87.9763 830.383,87.9763 831.212,150.575 832.041,150.575 832.871,87.9763 833.7,87.9763 834.529,87.9763 835.358,150.575 836.187,87.9763 837.017,150.575 837.846,150.575 838.675,150.575 839.504,150.575 840.333,150.575 841.162,150.575 841.992,87.9763 842.821,210.766 843.65,150.575 844.479,87.9763 845.308,87.9763 846.138,87.9763 846.967,150.575 847.796,87.9763 848.625,87.9763 849.454,150.575 850.284,210.766 851.113,150.575 851.942,150.575 852.771,210.766 853.6,87.9763 854.43,150.575 855.259,150.575 856.088,150.575 856.917,87.9763 857.746,150.575 858.576,150.575 859.405,87.9763 860.234,87.9763 861.063,150.575 861.892,87.9763 862.721,87.9763 863.551,87.9763 864.38,150.575 865.209,87.9763 866.038,87.9763 866.867,87.9763 867.697,87.9763 868.526,150.575 869.355,150.575 870.184,150.575 871.013,87.9763 871.843,210.766 872.672,87.9763 873.501,210.766 874.33,87.9763 875.159,87.9763 875.989,87.9763 876.818,87.9763 877.647,87.9763 878.476,87.9763 879.305,87.9763 880.135,87.9763 880.964,150.575 881.793,150.575 882.622,150.575 883.451,87.9763 884.28,87.9763 885.11,87.9763 885.939,87.9763 886.768,87.9763 887.597,210.766 888.426,87.9763 889.256,87.9763 890.085,87.9763 890.914,87.9763 891.743,87.9763 892.572,150.575 893.402,87.9763 894.231,210.766 895.06,87.9763 895.889,87.9763 896.718,87.9763 897.548,87.9763 898.377,87.9763 899.206,87.9763 900.035,87.9763 900.864,87.9763 901.694,87.9763 902.523,87.9763 903.352,87.9763 904.181,87.9763 905.01,87.9763 905.839,150.575 906.669,87.9763 907.498,150.575 908.327,150.575 909.156,87.9763 909.985,87.9763 910.815,210.766 911.644,87.9763 912.473,87.9763 913.302,87.9763 914.131,87.9763 914.961,87.9763 915.79,150.575 916.619,210.766 917.448,210.766 918.277,150.575 919.107,150.575 919.936,150.575 920.765,150.575 921.594,87.9763 922.423,210.766 923.253,87.9763 924.082,87.9763 924.911,87.9763 925.74,150.575 926.569,87.9763 927.399,87.9763 928.228,268.685 929.057,150.575 929.886,87.9763 930.715,87.9763 931.544,150.575 932.374,87.9763 933.203,87.9763 934.032,87.9763 934.861,210.766 935.69,150.575 936.52,150.575 937.349,87.9763 938.178,150.575 939.007,150.575 939.836,87.9763 940.666,87.9763 941.495,87.9763 942.324,210.766 943.153,87.9763 943.982,87.9763 944.812,87.9763 945.641,150.575 946.47,87.9763 947.299,87.9763 948.128,87.9763 948.958,87.9763 949.787,87.9763 950.616,210.766 951.445,210.766 952.274,150.575 953.103,150.575 953.933,210.766 954.762,87.9763 955.591,87.9763 956.42,87.9763 957.249,150.575 958.079,210.766 958.908,87.9763 959.737,87.9763 960.566,210.766 961.395,87.9763 962.225,87.9763 963.054,87.9763 963.883,87.9763 964.712,87.9763 965.541,87.9763 966.371,210.766 967.2,87.9763 968.029,150.575 968.858,87.9763 969.687,87.9763 970.517,87.9763 971.346,87.9763 972.175,87.9763 973.004,210.766 973.833,87.9763 974.662,210.766 975.492,87.9763 976.321,87.9763 977.15,87.9763 977.979,87.9763 978.808,210.766 979.638,87.9763 980.467,150.575 981.296,87.9763 982.125,87.9763 982.954,150.575 983.784,210.766 984.613,87.9763 985.442,150.575 986.271,87.9763 987.1,150.575 987.93,87.9763 988.759,150.575 989.588,87.9763 990.417,87.9763 991.246,87.9763 992.076,150.575 992.905,87.9763 993.734,87.9763 994.563,87.9763 995.392,87.9763 996.222,87.9763 997.051,87.9763 997.88,87.9763 998.709,150.575 999.538,87.9763 1000.37,87.9763 1001.2,87.9763 1002.03,87.9763 1002.86,87.9763 1003.68,150.575 1004.51,87.9763 1005.34,150.575 1006.17,87.9763 1007,150.575 1007.83,87.9763 1008.66,87.9763 1009.49,150.575 1010.32,268.685 1011.15,87.9763 1011.98,87.9763 1012.81,87.9763 1013.63,87.9763 1014.46,87.9763 1015.29,150.575 1016.12,150.575 1016.95,87.9763 1017.78,87.9763 1018.61,87.9763 1019.44,87.9763 1020.27,87.9763 1021.1,87.9763 1021.93,87.9763 1022.76,87.9763 1023.58,87.9763 1024.41,150.575 1025.24,150.575 1026.07,87.9763 1026.9,87.9763 1027.73,87.9763 1028.56,210.766 1029.39,150.575 1030.22,87.9763 1031.05,87.9763 1031.88,87.9763 1032.71,87.9763 1033.54,150.575 1034.36,150.575 1035.19,150.575 1036.02,150.575 1036.85,150.575 1037.68,150.575 1038.51,87.9763 1039.34,87.9763 1040.17,87.9763 1041,87.9763 1041.83,150.575 1042.66,87.9763 1043.49,87.9763 1044.31,150.575 1045.14,150.575 1045.97,210.766 1046.8,87.9763 1047.63,150.575 1048.46,87.9763 1049.29,87.9763 1050.12,210.766 1050.95,87.9763 1051.78,87.9763 1052.61,87.9763 1053.44,87.9763 1054.26,87.9763 1055.09,150.575 1055.92,87.9763 1056.75,87.9763 1057.58,150.575 1058.41,87.9763 1059.24,87.9763 1060.07,87.9763 1060.9,87.9763 1061.73,210.766 1062.56,87.9763 1063.39,150.575 1064.22,87.9763 1065.04,150.575 1065.87,150.575 1066.7,87.9763 1067.53,87.9763 1068.36,87.9763 1069.19,150.575 1070.02,87.9763 1070.85,87.9763 1071.68,150.575 1072.51,150.575 1073.34,87.9763 1074.17,87.9763 1074.99,87.9763 1075.82,150.575 1076.65,150.575 1077.48,87.9763 1078.31,87.9763 1079.14,150.575 1079.97,87.9763 1080.8,87.9763 1081.63,87.9763 1082.46,150.575 1083.29,87.9763 1084.12,150.575 1084.95,87.9763 1085.77,87.9763 1086.6,87.9763 1087.43,87.9763 1088.26,87.9763 1089.09,150.575 1089.92,87.9763 1090.75,87.9763 1091.58,87.9763 1092.41,210.766 1093.24,87.9763 1094.07,87.9763 1094.9,87.9763 1095.72,87.9763 1096.55,87.9763 1097.38,87.9763 1098.21,150.575 1099.04,210.766 1099.87,87.9763 1100.7,87.9763 1101.53,87.9763 1102.36,87.9763 1103.19,87.9763 1104.02,150.575 1104.85,210.766 1105.67,87.9763 1106.5,150.575 1107.33,150.575 1108.16,150.575 1108.99,87.9763 1109.82,87.9763 1110.65,150.575 1111.48,87.9763 1112.31,87.9763 1113.14,87.9763 1113.97,150.575 1114.8,87.9763 1115.63,150.575 1116.45,87.9763 1117.28,150.575 1118.11,87.9763 1118.94,87.9763 1119.77,150.575 1120.6,150.575 1121.43,150.575 1122.26,87.9763 1123.09,87.9763 1123.92,87.9763 1124.75,87.9763 1125.58,210.766 1126.4,87.9763 1127.23,87.9763 1128.06,87.9763 1128.89,87.9763 1129.72,87.9763 1130.55,87.9763 1131.38,87.9763 1132.21,150.575 1133.04,87.9763 1133.87,150.575 1134.7,87.9763 1135.53,87.9763 1136.36,87.9763 1137.18,87.9763 1138.01,210.766 1138.84,150.575 1139.67,87.9763 1140.5,87.9763 1141.33,87.9763 1142.16,87.9763 1142.99,87.9763 1143.82,87.9763 1144.65,87.9763 1145.48,150.575 1146.31,87.9763 1147.13,87.9763 1147.96,87.9763 1148.79,87.9763 1149.62,87.9763 1150.45,150.575 1151.28,87.9763 1152.11,87.9763 1152.94,87.9763 1153.77,87.9763 1154.6,324.459 1155.43,87.9763 1156.26,87.9763 1157.08,268.685 1157.91,87.9763 1158.74,150.575 1159.57,87.9763 1160.4,150.575 1161.23,150.575 1162.06,210.766 1162.89,87.9763 1163.72,87.9763 1164.55,87.9763 1165.38,87.9763 1166.21,87.9763 1167.04,150.575 1167.86,150.575 1168.69,87.9763 1169.52,150.575 1170.35,210.766 1171.18,87.9763 1172.01,87.9763 1172.84,87.9763 1173.67,87.9763 1174.5,87.9763 1175.33,87.9763 1176.16,87.9763 1176.99,150.575 1177.81,87.9763 1178.64,150.575 1179.47,210.766 1180.3,150.575 1181.13,87.9763 1181.96,87.9763 1182.79,150.575 1183.62,150.575 1184.45,87.9763 1185.28,210.766 1186.11,87.9763 1186.94,87.9763 1187.77,87.9763 1188.59,87.9763 1189.42,87.9763 1190.25,87.9763 1191.08,87.9763 1191.91,150.575 1192.74,268.685 1193.57,87.9763 1194.4,87.9763 1195.23,87.9763 1196.06,87.9763 1196.89,87.9763 1197.72,150.575 1198.54,87.9763 1199.37,150.575 1200.2,150.575 1201.03,150.575 1201.86,87.9763 1202.69,150.575 1203.52,87.9763 1204.35,87.9763 1205.18,87.9763 1206.01,150.575 1206.84,87.9763 1207.67,87.9763 1208.49,87.9763 1209.32,87.9763 1210.15,150.575 1210.98,150.575 1211.81,87.9763 1212.64,150.575 1213.47,150.575 1214.3,150.575 1215.13,87.9763 1215.96,87.9763 1216.79,87.9763 1217.62,87.9763 1218.45,87.9763 1219.27,150.575 1220.1,87.9763 1220.93,87.9763 1221.76,87.9763 1222.59,210.766 1223.42,150.575 1224.25,87.9763 1225.08,87.9763 1225.91,87.9763 1226.74,150.575 1227.57,150.575 1228.4,87.9763 1229.22,87.9763 1230.05,150.575 1230.88,87.9763 1231.71,150.575 1232.54,87.9763 1233.37,87.9763 1234.2,87.9763 1235.03,87.9763 1235.86,87.9763 1236.69,87.9763 1237.52,87.9763 1238.35,87.9763 1239.17,87.9763 1240,87.9763 1240.83,87.9763 1241.66,210.766 1242.49,150.575 1243.32,87.9763 1244.15,150.575 1244.98,87.9763 1245.81,87.9763 1246.64,87.9763 1247.47,150.575 1248.3,87.9763 1249.13,150.575 1249.95,87.9763 1250.78,87.9763 1251.61,150.575 1252.44,87.9763 1253.27,87.9763 1254.1,87.9763 1254.93,87.9763 1255.76,150.575 1256.59,87.9763 1257.42,87.9763 1258.25,87.9763 1259.08,87.9763 1259.9,150.575 1260.73,150.575 1261.56,87.9763 1262.39,87.9763 1263.22,150.575 1264.05,87.9763 1264.88,150.575 1265.71,87.9763 1266.54,87.9763 1267.37,87.9763 1268.2,150.575 1269.03,87.9763 1269.86,150.575 1270.68,87.9763 1271.51,87.9763 1272.34,87.9763 1273.17,87.9763 1274,210.766 1274.83,87.9763 1275.66,87.9763 1276.49,87.9763 1277.32,87.9763 1278.15,150.575 1278.98,87.9763 1279.81,87.9763 1280.63,87.9763 1281.46,210.766 1282.29,150.575 1283.12,210.766 1283.95,150.575 1284.78,87.9763 1285.61,87.9763 1286.44,87.9763 1287.27,87.9763 1288.1,87.9763 1288.93,87.9763 1289.76,210.766 1290.58,150.575 1291.41,210.766 1292.24,150.575 1293.07,87.9763 1293.9,210.766 1294.73,87.9763 1295.56,87.9763 1296.39,150.575 1297.22,150.575 1298.05,87.9763 1298.88,87.9763 1299.71,87.9763 1300.54,87.9763 1301.36,87.9763 1302.19,87.9763 1303.02,87.9763 1303.85,87.9763 1304.68,87.9763 1305.51,87.9763 1306.34,87.9763 1307.17,210.766 1308,150.575 1308.83,87.9763 1309.66,150.575 1310.49,87.9763 1311.31,87.9763 1312.14,87.9763 1312.97,87.9763 1313.8,150.575 1314.63,87.9763 1315.46,87.9763 1316.29,210.766 1317.12,87.9763 1317.95,87.9763 1318.78,87.9763 1319.61,87.9763 1320.44,87.9763 1321.27,150.575 1322.09,87.9763 1322.92,87.9763 1323.75,87.9763 1324.58,87.9763 1325.41,150.575 1326.24,150.575 1327.07,150.575 1327.9,87.9763 1328.73,150.575 1329.56,87.9763 1330.39,87.9763 1331.22,87.9763 1332.04,150.575 1332.87,87.9763 1333.7,150.575 1334.53,150.575 1335.36,87.9763 1336.19,87.9763 1337.02,87.9763 1337.85,210.766 1338.68,87.9763 1339.51,210.766 1340.34,87.9763 1341.17,87.9763 1341.99,87.9763 1342.82,87.9763 1343.65,87.9763 1344.48,87.9763 1345.31,87.9763 1346.14,87.9763 1346.97,150.575 1347.8,87.9763 1348.63,87.9763 1349.46,87.9763 1350.29,210.766 1351.12,87.9763 1351.95,87.9763 1352.77,87.9763 1353.6,150.575 1354.43,87.9763 1355.26,87.9763 1356.09,87.9763 1356.92,87.9763 1357.75,87.9763 1358.58,87.9763 1359.41,87.9763 1360.24,87.9763 1361.07,87.9763 1361.9,150.575 1362.72,87.9763 1363.55,210.766 1364.38,87.9763 1365.21,87.9763 1366.04,87.9763 1366.87,87.9763 1367.7,87.9763 1368.53,87.9763 1369.36,87.9763 1370.19,87.9763 1371.02,87.9763 1371.85,87.9763 1372.67,150.575 1373.5,87.9763 1374.33,87.9763 1375.16,150.575 1375.99,87.9763 1376.82,87.9763 1377.65,87.9763 1378.48,87.9763 1379.31,87.9763 1380.14,87.9763 1380.97,87.9763 1381.8,87.9763 1382.63,87.9763 1383.45,87.9763 1384.28,87.9763 1385.11,87.9763 1385.94,87.9763 1386.77,87.9763 1387.6,87.9763 1388.43,87.9763 1389.26,87.9763 1390.09,150.575 1390.92,87.9763 1391.75,87.9763 1392.58,150.575 1393.4,150.575 1394.23,87.9763 1395.06,87.9763 1395.89,87.9763 1396.72,87.9763 1397.55,87.9763 1398.38,87.9763 1399.21,150.575 1400.04,87.9763 1400.87,87.9763 1401.7,150.575 1402.53,87.9763 1403.36,87.9763 1404.18,150.575 1405.01,87.9763 1405.84,87.9763 1406.67,150.575 1407.5,87.9763 1408.33,150.575 1409.16,87.9763 1409.99,87.9763 1410.82,87.9763 1411.65,150.575 1412.48,150.575 1413.31,87.9763 1414.13,87.9763 1414.96,87.9763 1415.79,87.9763 1416.62,87.9763 1417.45,87.9763 1418.28,150.575 1419.11,150.575 1419.94,150.575 1420.77,87.9763 1421.6,150.575 1422.43,87.9763 1423.26,87.9763 1424.08,87.9763 1424.91,87.9763 1425.74,87.9763 1426.57,87.9763 1427.4,87.9763 1428.23,87.9763 1429.06,150.575 1429.89,87.9763 1430.72,87.9763 1431.55,87.9763 1432.38,150.575 1433.21,87.9763 1434.04,150.575 1434.86,87.9763 1435.69,150.575 1436.52,87.9763 1437.35,150.575 1438.18,87.9763 1439.01,87.9763 1439.84,150.575 1440.67,150.575 1441.5,87.9763 1442.33,87.9763 1443.16,150.575 1443.99,87.9763 1444.81,150.575 1445.64,87.9763 1446.47,150.575 1447.3,87.9763 1448.13,87.9763 1448.96,87.9763 1449.79,87.9763 1450.62,87.9763 1451.45,87.9763 1452.28,87.9763 1453.11,87.9763 1453.94,87.9763 1454.77,87.9763 1455.59,87.9763 1456.42,87.9763 1457.25,87.9763 1458.08,150.575 1458.91,87.9763 1459.74,210.766 1460.57,87.9763 1461.4,87.9763 1462.23,87.9763 1463.06,87.9763 1463.89,150.575 1464.72,150.575 1465.54,150.575 1466.37,87.9763 1467.2,87.9763 1468.03,87.9763 1468.86,87.9763 1469.69,87.9763 1470.52,87.9763 1471.35,150.575 1472.18,87.9763 1473.01,87.9763 1473.84,87.9763 1474.67,87.9763 1475.49,87.9763 1476.32,87.9763 1477.15,87.9763 1477.98,87.9763 1478.81,87.9763 1479.64,150.575 1480.47,87.9763 1481.3,150.575 1482.13,87.9763 1482.96,150.575 1483.79,210.766 1484.62,87.9763 1485.45,150.575 1486.27,87.9763 1487.1,150.575 1487.93,87.9763 1488.76,87.9763 1489.59,87.9763 1490.42,87.9763 1491.25,87.9763 1492.08,150.575 1492.91,87.9763 1493.74,87.9763 1494.57,87.9763 1495.4,87.9763 1496.22,87.9763 1497.05,87.9763 1497.88,87.9763 1498.71,87.9763 1499.54,150.575 1500.37,87.9763 1501.2,87.9763 1502.03,150.575 1502.86,87.9763 1503.69,150.575 1504.52,150.575 1505.35,87.9763 1506.18,87.9763 1507,150.575 1507.83,87.9763 1508.66,87.9763 1509.49,87.9763 1510.32,87.9763 1511.15,87.9763 1511.98,87.9763 1512.81,87.9763 1513.64,87.9763 1514.47,87.9763 1515.3,87.9763 1516.13,87.9763 1516.95,150.575 1517.78,150.575 1518.61,87.9763 1519.44,150.575 1520.27,150.575 1521.1,87.9763 1521.93,87.9763 1522.76,87.9763 1523.59,87.9763 1524.42,87.9763 1525.25,87.9763 1526.08,87.9763 1526.9,87.9763 1527.73,87.9763 1528.56,87.9763 1529.39,87.9763 1530.22,87.9763 1531.05,87.9763 1531.88,87.9763 1532.71,87.9763 1533.54,87.9763 1534.37,87.9763 1535.2,87.9763 1536.03,150.575 1536.86,268.685 1537.68,87.9763 1538.51,87.9763 1539.34,87.9763 1540.17,87.9763 1541,87.9763 1541.83,87.9763 1542.66,150.575 1543.49,87.9763 1544.32,87.9763 1545.15,87.9763 1545.98,150.575 1546.81,150.575 1547.63,87.9763 1548.46,87.9763 1549.29,87.9763 1550.12,87.9763 1550.95,87.9763 1551.78,87.9763 1552.61,87.9763 1553.44,87.9763 1554.27,150.575 1555.1,87.9763 1555.93,150.575 1556.76,87.9763 1557.58,87.9763 1558.41,150.575 1559.24,87.9763 1560.07,87.9763 1560.9,87.9763 1561.73,87.9763 1562.56,87.9763 1563.39,150.575 1564.22,87.9763 1565.05,87.9763 1565.88,87.9763 1566.71,87.9763 1567.54,87.9763 1568.36,87.9763 1569.19,87.9763 1570.02,87.9763 1570.85,210.766 1571.68,150.575 1572.51,150.575 1573.34,87.9763 1574.17,210.766 1575,87.9763 1575.83,87.9763 1576.66,87.9763 1577.49,87.9763 1578.31,150.575 1579.14,87.9763 1579.97,87.9763 1580.8,87.9763 1581.63,87.9763 1582.46,87.9763 1583.29,87.9763 1584.12,87.9763 1584.95,150.575 1585.78,87.9763 1586.61,87.9763 1587.44,87.9763 1588.27,150.575 1589.09,87.9763 1589.92,87.9763 1590.75,150.575 1591.58,87.9763 1592.41,150.575 1593.24,87.9763 1594.07,87.9763 1594.9,87.9763 1595.73,150.575 1596.56,87.9763 1597.39,87.9763 1598.22,87.9763 1599.04,87.9763 1599.87,87.9763 1600.7,87.9763 1601.53,87.9763 1602.36,150.575 1603.19,87.9763 1604.02,87.9763 1604.85,87.9763 1605.68,150.575 1606.51,150.575 1607.34,87.9763 1608.17,87.9763 1608.99,87.9763 1609.82,150.575 1610.65,87.9763 1611.48,87.9763 1612.31,87.9763 1613.14,87.9763 1613.97,87.9763 1614.8,87.9763 1615.63,87.9763 1616.46,87.9763 1617.29,87.9763 1618.12,87.9763 1618.95,87.9763 1619.77,87.9763 1620.6,150.575 1621.43,87.9763 1622.26,87.9763 1623.09,87.9763 1623.92,150.575 1624.75,150.575 1625.58,87.9763 1626.41,87.9763 1627.24,87.9763 1628.07,87.9763 1628.9,87.9763 1629.72,150.575 1630.55,87.9763 1631.38,150.575 1632.21,150.575 1633.04,87.9763 1633.87,87.9763 1634.7,87.9763 1635.53,150.575 1636.36,87.9763 1637.19,87.9763 1638.02,87.9763 1638.85,87.9763 1639.68,87.9763 1640.5,87.9763 1641.33,87.9763 1642.16,87.9763 1642.99,87.9763 1643.82,87.9763 1644.65,150.575 1645.48,150.575 1646.31,210.766 1647.14,87.9763 1647.97,87.9763 1648.8,87.9763 1649.63,150.575 1650.45,87.9763 1651.28,150.575 1652.11,87.9763 1652.94,87.9763 1653.77,87.9763 1654.6,87.9763 1655.43,87.9763 1656.26,150.575 1657.09,87.9763 1657.92,87.9763 1658.75,87.9763 1659.58,87.9763 1660.4,87.9763 1661.23,87.9763 1662.06,87.9763 1662.89,150.575 1663.72,87.9763 1664.55,87.9763 1665.38,87.9763 1666.21,87.9763 1667.04,210.766 1667.87,87.9763 1668.7,87.9763 1669.53,87.9763 1670.36,150.575 1671.18,87.9763 1672.01,210.766 1672.84,87.9763 1673.67,150.575 1674.5,87.9763 1675.33,87.9763 1676.16,87.9763 1676.99,87.9763 1677.82,87.9763 1678.65,87.9763 1679.48,87.9763 1680.31,87.9763 1681.13,150.575 1681.96,87.9763 1682.79,87.9763 1683.62,87.9763 1684.45,87.9763 1685.28,87.9763 1686.11,210.766 1686.94,87.9763 1687.77,150.575 1688.6,87.9763 1689.43,87.9763 1690.26,87.9763 1691.08,87.9763 1691.91,150.575 1692.74,87.9763 1693.57,87.9763 1694.4,87.9763 1695.23,210.766 1696.06,150.575 1696.89,87.9763 1697.72,87.9763 1698.55,87.9763 1699.38,87.9763 1700.21,87.9763 1701.04,87.9763 1701.86,150.575 1702.69,87.9763 1703.52,150.575 1704.35,87.9763 1705.18,150.575 1706.01,150.575 1706.84,87.9763 1707.67,87.9763 1708.5,87.9763 1709.33,87.9763 1710.16,87.9763 1710.99,150.575 1711.81,87.9763 1712.64,87.9763 1713.47,150.575 1714.3,87.9763 1715.13,87.9763 1715.96,87.9763 1716.79,150.575 1717.62,150.575 1718.45,210.766 1719.28,87.9763 1720.11,87.9763 1720.94,87.9763 1721.77,87.9763 1722.59,87.9763 1723.42,87.9763 1724.25,87.9763 1725.08,150.575 1725.91,87.9763 1726.74,87.9763 1727.57,87.9763 1728.4,87.9763 1729.23,87.9763 1730.06,87.9763 1730.89,150.575 1731.72,210.766 1732.54,87.9763 1733.37,87.9763 1734.2,87.9763 1735.03,87.9763 1735.86,150.575 1736.69,87.9763 1737.52,87.9763 1738.35,87.9763 1739.18,87.9763 1740.01,87.9763 1740.84,87.9763 1741.67,150.575 1742.49,87.9763 1743.32,87.9763 1744.15,87.9763 1744.98,87.9763 1745.81,87.9763 1746.64,150.575 1747.47,87.9763 1748.3,87.9763 1749.13,87.9763 1749.96,87.9763 1750.79,150.575 1751.62,87.9763 1752.45,87.9763 1753.27,87.9763 1754.1,87.9763 1754.93,87.9763 1755.76,87.9763 1756.59,87.9763 1757.42,150.575 1758.25,150.575 1759.08,87.9763 1759.91,150.575 1760.74,87.9763 1761.57,87.9763 1762.4,87.9763 1763.22,87.9763 1764.05,87.9763 1764.88,87.9763 1765.71,87.9763 1766.54,87.9763 1767.37,87.9763 1768.2,87.9763 1769.03,150.575 1769.86,87.9763 1770.69,87.9763 1771.52,87.9763 1772.35,150.575 1773.18,87.9763 1774,87.9763 1774.83,87.9763 1775.66,87.9763 1776.49,87.9763 1777.32,87.9763 1778.15,150.575 1778.98,87.9763 1779.81,87.9763 1780.64,87.9763 1781.47,150.575 1782.3,150.575 1783.13,87.9763 1783.95,87.9763 1784.78,150.575 1785.61,210.766 1786.44,87.9763 1787.27,87.9763 1788.1,87.9763 1788.93,87.9763 1789.76,87.9763 1790.59,87.9763 1791.42,87.9763 1792.25,87.9763 1793.08,87.9763 1793.9,87.9763 1794.73,87.9763 1795.56,87.9763 1796.39,150.575 1797.22,150.575 1798.05,150.575 1798.88,87.9763 1799.71,87.9763 1800.54,87.9763 1801.37,150.575 1802.2,87.9763 1803.03,150.575 1803.86,87.9763 1804.68,87.9763 1805.51,87.9763 1806.34,87.9763 1807.17,87.9763 1808,87.9763 1808.83,87.9763 1809.66,87.9763 1810.49,150.575 1811.32,87.9763 1812.15,87.9763 1812.98,87.9763 1813.81,87.9763 1814.63,150.575 1815.46,87.9763 1816.29,87.9763 1817.12,87.9763 1817.95,87.9763 1818.78,87.9763 1819.61,87.9763 1820.44,150.575 1821.27,150.575 1822.1,87.9763 1822.93,87.9763 1823.76,87.9763 1824.59,87.9763 1825.41,87.9763 1826.24,87.9763 1827.07,87.9763 1827.9,87.9763 1828.73,87.9763 1829.56,150.575 1830.39,150.575 1831.22,87.9763 1832.05,87.9763 1832.88,87.9763 1833.71,87.9763 1834.54,87.9763 1835.36,87.9763 1836.19,87.9763 1837.02,87.9763 1837.85,87.9763 1838.68,87.9763 1839.51,87.9763 1840.34,87.9763 1841.17,268.685 1842,87.9763 1842.83,87.9763 1843.66,150.575 1844.49,87.9763 1845.31,87.9763 1846.14,87.9763 1846.97,87.9763 1847.8,87.9763 1848.63,87.9763 1849.46,87.9763 1850.29,87.9763 1851.12,150.575 1851.95,87.9763 1852.78,87.9763 1853.61,87.9763 1854.44,87.9763 1855.27,150.575 1856.09,87.9763 1856.92,150.575 1857.75,87.9763 1858.58,87.9763 1859.41,87.9763 1860.24,87.9763 1861.07,87.9763 1861.9,150.575 1862.73,87.9763 1863.56,87.9763 1864.39,87.9763 1865.22,87.9763 1866.04,87.9763 1866.87,87.9763 1867.7,150.575 1868.53,87.9763 1869.36,87.9763 1870.19,87.9763 1871.02,87.9763 1871.85,87.9763 1872.68,150.575 1873.51,87.9763 1874.34,150.575 1875.17,87.9763 1875.99,87.9763 1876.82,87.9763 1877.65,87.9763 1878.48,87.9763 1879.31,87.9763 1880.14,87.9763 1880.97,87.9763 1881.8,87.9763 1882.63,87.9763 1883.46,87.9763 1884.29,87.9763 1885.12,87.9763 1885.95,87.9763 1886.77,87.9763 1887.6,87.9763 1888.43,87.9763 1889.26,87.9763 1890.09,87.9763 1890.92,87.9763 1891.75,87.9763 1892.58,87.9763 1893.41,87.9763 1894.24,150.575 1895.07,87.9763 1895.9,87.9763 1896.72,150.575 1897.55,87.9763 1898.38,87.9763 1899.21,87.9763 1900.04,150.575 1900.87,87.9763 1901.7,150.575 1902.53,150.575 1903.36,87.9763 1904.19,87.9763 1905.02,87.9763 1905.85,150.575 1906.68,87.9763 1907.5,87.9763 1908.33,87.9763 1909.16,150.575 1909.99,150.575 1910.82,150.575 1911.65,87.9763 1912.48,87.9763 1913.31,87.9763 1914.14,87.9763 1914.97,150.575 1915.8,210.766 1916.63,87.9763 1917.45,87.9763 1918.28,87.9763 1919.11,87.9763 1919.94,87.9763 1920.77,87.9763 1921.6,150.575 1922.43,87.9763 1923.26,87.9763 1924.09,87.9763 1924.92,87.9763 1925.75,150.575 1926.58,87.9763 1927.4,87.9763 1928.23,150.575 1929.06,87.9763 1929.89,87.9763 1930.72,87.9763 1931.55,87.9763 1932.38,150.575 1933.21,87.9763 1934.04,87.9763 1934.87,150.575 1935.7,87.9763 1936.53,150.575 1937.36,87.9763 1938.18,87.9763 1939.01,150.575 1939.84,87.9763 1940.67,87.9763 1941.5,150.575 1942.33,87.9763 1943.16,87.9763 1943.99,87.9763 1944.82,87.9763 1945.65,87.9763 1946.48,150.575 1947.31,87.9763 1948.13,87.9763 1948.96,87.9763 1949.79,87.9763 1950.62,87.9763 1951.45,87.9763 1952.28,87.9763 1953.11,87.9763 1953.94,87.9763 1954.77,87.9763 1955.6,87.9763 1956.43,87.9763 1957.26,210.766 1958.09,87.9763 1958.91,87.9763 1959.74,150.575 1960.57,87.9763 1961.4,87.9763 1962.23,87.9763 1963.06,87.9763 1963.89,87.9763 1964.72,150.575 1965.55,87.9763 1966.38,87.9763 1967.21,150.575 1968.04,87.9763 1968.86,87.9763 1969.69,87.9763 1970.52,87.9763 1971.35,87.9763 1972.18,87.9763 1973.01,150.575 1973.84,150.575 1974.67,87.9763 1975.5,87.9763 1976.33,150.575 1977.16,87.9763 1977.99,87.9763 1978.81,87.9763 1979.64,87.9763 1980.47,150.575 1981.3,150.575 1982.13,87.9763 1982.96,150.575 1983.79,87.9763 1984.62,87.9763 1985.45,87.9763 1986.28,87.9763 1987.11,87.9763 1987.94,87.9763 1988.77,87.9763 1989.59,87.9763 1990.42,87.9763 1991.25,87.9763 1992.08,87.9763 1992.91,150.575 1993.74,87.9763 1994.57,87.9763 1995.4,87.9763 1996.23,87.9763 1997.06,87.9763 1997.89,87.9763 1998.72,87.9763 1999.54,87.9763 2000.37,150.575 2001.2,87.9763 2002.03,87.9763 2002.86,87.9763 2003.69,150.575 2004.52,87.9763 2005.35,87.9763 2006.18,150.575 2007.01,87.9763 2007.84,87.9763 2008.67,87.9763 2009.49,87.9763 2010.32,87.9763 2011.15,87.9763 2011.98,87.9763 2012.81,87.9763 2013.64,150.575 2014.47,87.9763 2015.3,87.9763 2016.13,87.9763 2016.96,87.9763 2017.79,87.9763 2018.62,87.9763 2019.45,87.9763 2020.27,87.9763 2021.1,87.9763 2021.93,87.9763 2022.76,87.9763 2023.59,87.9763 2024.42,87.9763 2025.25,87.9763 2026.08,87.9763 2026.91,87.9763 2027.74,150.575 2028.57,87.9763 2029.4,87.9763 2030.22,87.9763 2031.05,87.9763 2031.88,87.9763 2032.71,150.575 2033.54,87.9763 2034.37,87.9763 2035.2,87.9763 2036.03,87.9763 2036.86,150.575 2037.69,87.9763 2038.52,150.575 2039.35,150.575 2040.18,87.9763 2041,87.9763 2041.83,87.9763 2042.66,87.9763 2043.49,87.9763 2044.32,87.9763 2045.15,87.9763 2045.98,87.9763 2046.81,87.9763 2047.64,87.9763 2048.47,87.9763 2049.3,87.9763 2050.13,87.9763 2050.95,87.9763 2051.78,87.9763 2052.61,87.9763 2053.44,87.9763 2054.27,150.575 2055.1,87.9763 2055.93,87.9763 2056.76,150.575 2057.59,87.9763 2058.42,87.9763 2059.25,87.9763 2060.08,150.575 2060.9,150.575 2061.73,87.9763 2062.56,87.9763 2063.39,87.9763 2064.22,87.9763 2065.05,87.9763 2065.88,150.575 2066.71,87.9763 2067.54,87.9763 2068.37,87.9763 2069.2,87.9763 2070.03,87.9763 2070.86,87.9763 2071.68,87.9763 2072.51,87.9763 2073.34,87.9763 2074.17,210.766 2075,87.9763 2075.83,87.9763 2076.66,150.575 2077.49,87.9763 2078.32,87.9763 2079.15,87.9763 2079.98,87.9763 2080.81,87.9763 2081.63,87.9763 2082.46,87.9763 2083.29,87.9763 2084.12,87.9763 2084.95,87.9763 2085.78,87.9763 2086.61,150.575 2087.44,87.9763 2088.27,87.9763 2089.1,87.9763 2089.93,210.766 2090.76,87.9763 2091.59,150.575 2092.41,87.9763 2093.24,87.9763 2094.07,87.9763 2094.9,87.9763 2095.73,87.9763 2096.56,87.9763 2097.39,87.9763 2098.22,150.575 2099.05,87.9763 2099.88,87.9763 2100.71,87.9763 2101.54,87.9763 2102.36,150.575 2103.19,87.9763 2104.02,87.9763 2104.85,210.766 2105.68,87.9763 2106.51,150.575 2107.34,87.9763 2108.17,150.575 2109,87.9763 2109.83,87.9763 2110.66,87.9763 2111.49,210.766 2112.31,87.9763 2113.14,87.9763 2113.97,87.9763 2114.8,87.9763 2115.63,87.9763 2116.46,87.9763 2117.29,87.9763 2118.12,150.575 2118.95,87.9763 2119.78,87.9763 2120.61,150.575 2121.44,87.9763 2122.27,87.9763 2123.09,87.9763 2123.92,87.9763 2124.75,210.766 2125.58,87.9763 2126.41,87.9763 2127.24,87.9763 2128.07,87.9763 2128.9,87.9763 2129.73,87.9763 2130.56,210.766 2131.39,87.9763 2132.22,87.9763 2133.04,87.9763 2133.87,87.9763 2134.7,87.9763 2135.53,150.575 2136.36,87.9763 2137.19,87.9763 2138.02,87.9763 2138.85,87.9763 2139.68,87.9763 2140.51,87.9763 2141.34,87.9763 2142.17,87.9763 2143,87.9763 2143.82,87.9763 2144.65,87.9763 2145.48,150.575 2146.31,87.9763 2147.14,87.9763 2147.97,87.9763 2148.8,150.575 2149.63,87.9763 2150.46,87.9763 2151.29,87.9763 2152.12,150.575 2152.95,87.9763 2153.77,150.575 2154.6,87.9763 2155.43,87.9763 2156.26,87.9763 2157.09,87.9763 2157.92,150.575 2158.75,87.9763 2159.58,87.9763 2160.41,87.9763 2161.24,87.9763 2162.07,87.9763 2162.9,87.9763 2163.72,150.575 2164.55,87.9763 2165.38,87.9763 2166.21,87.9763 2167.04,150.575 2167.87,87.9763 2168.7,150.575 2169.53,87.9763 2170.36,87.9763 2171.19,87.9763 2172.02,87.9763 2172.85,150.575 2173.68,87.9763 2174.5,150.575 2175.33,87.9763 2176.16,87.9763 2176.99,87.9763 2177.82,210.766 2178.65,87.9763 2179.48,150.575 2180.31,87.9763 2181.14,87.9763 2181.97,87.9763 2182.8,150.575 2183.63,87.9763 2184.45,150.575 2185.28,87.9763 2186.11,87.9763 2186.94,87.9763 2187.77,87.9763 2188.6,87.9763 2189.43,87.9763 2190.26,87.9763 2191.09,87.9763 2191.92,87.9763 2192.75,87.9763 2193.58,87.9763 2194.4,87.9763 2195.23,87.9763 2196.06,150.575 2196.89,87.9763 2197.72,87.9763 2198.55,87.9763 2199.38,87.9763 2200.21,87.9763 2201.04,150.575 2201.87,87.9763 2202.7,87.9763 2203.53,87.9763 2204.36,87.9763 2205.18,87.9763 2206.01,87.9763 2206.84,150.575 2207.67,87.9763 2208.5,87.9763 2209.33,87.9763 2210.16,87.9763 2210.99,87.9763 2211.82,150.575 2212.65,87.9763 2213.48,87.9763 2214.31,150.575 2215.13,87.9763 2215.96,87.9763 2216.79,150.575 2217.62,87.9763 2218.45,87.9763 2219.28,87.9763 2220.11,150.575 2220.94,87.9763 2221.77,87.9763 2222.6,87.9763 2223.43,87.9763 2224.26,87.9763 2225.09,150.575 2225.91,87.9763 2226.74,87.9763 2227.57,150.575 2228.4,87.9763 2229.23,87.9763 2230.06,87.9763 2230.89,87.9763 2231.72,150.575 2232.55,150.575 2233.38,87.9763 2234.21,87.9763 2235.04,87.9763 2235.86,87.9763 2236.69,87.9763 2237.52,87.9763 2238.35,150.575 2239.18,150.575 2240.01,150.575 2240.84,87.9763 2241.67,87.9763 2242.5,87.9763 2243.33,87.9763 2244.16,87.9763 2244.99,87.9763 2245.81,150.575 2246.64,87.9763 2247.47,87.9763 2248.3,87.9763 2249.13,150.575 2249.96,150.575 2250.79,87.9763 2251.62,87.9763 2252.45,150.575 2253.28,150.575 2254.11,87.9763 2254.94,150.575 2255.77,87.9763 2256.59,87.9763 2257.42,87.9763 2258.25,87.9763 2259.08,87.9763 2259.91,87.9763 2260.74,87.9763 2261.57,87.9763 2262.4,87.9763 2263.23,87.9763 2264.06,87.9763 2264.89,87.9763 2265.72,87.9763 2266.54,87.9763 2267.37,87.9763 2268.2,87.9763 2269.03,87.9763 2269.86,87.9763 2270.69,87.9763 2271.52,150.575 2272.35,150.575 2273.18,87.9763 2274.01,87.9763 2274.84,87.9763 2275.67,87.9763 2276.5,87.9763 2277.32,87.9763 2278.15,87.9763 2278.98,87.9763 2279.81,87.9763 2280.64,87.9763 2281.47,87.9763 2282.3,150.575 2283.13,87.9763 2283.96,87.9763 2284.79,87.9763 2285.62,87.9763 2286.45,87.9763 2287.27,87.9763 2288.1,87.9763 2288.93,150.575 2289.76,150.575 2290.59,87.9763 "/>
<path clip-path="url(#clip340)" d="M2007.46 1438.47 L2279.54 1438.47 L2279.54 1334.79 L2007.46 1334.79  Z" fill="#ffffff" fill-rule="evenodd" fill-opacity="1"/>
<polyline clip-path="url(#clip340)" style="stroke:#000000; stroke-linecap:round; stroke-linejoin:round; stroke-width:4; stroke-opacity:1; fill:none" points="2007.46,1438.47 2279.54,1438.47 2279.54,1334.79 2007.46,1334.79 2007.46,1438.47 "/>
<polyline clip-path="url(#clip340)" style="stroke:#009af9; stroke-linecap:round; stroke-linejoin:round; stroke-width:4; stroke-opacity:1; fill:none" points="2031.87,1386.63 2178.3,1386.63 "/>
<path clip-path="url(#clip340)" d="M2216.55 1406.32 Q2214.74 1410.95 2213.03 1412.36 Q2211.32 1413.78 2208.44 1413.78 L2205.04 1413.78 L2205.04 1410.21 L2207.54 1410.21 Q2209.3 1410.21 2210.27 1409.38 Q2211.25 1408.54 2212.43 1405.44 L2213.19 1403.5 L2202.7 1377.99 L2207.22 1377.99 L2215.32 1398.27 L2223.42 1377.99 L2227.94 1377.99 L2216.55 1406.32 Z" fill="#000000" fill-rule="nonzero" fill-opacity="1" /><path clip-path="url(#clip340)" d="M2235.23 1399.98 L2242.87 1399.98 L2242.87 1373.61 L2234.56 1375.28 L2234.56 1371.02 L2242.82 1369.35 L2247.5 1369.35 L2247.5 1399.98 L2255.13 1399.98 L2255.13 1403.91 L2235.23 1403.91 L2235.23 1399.98 Z" fill="#000000" fill-rule="nonzero" fill-opacity="1" /></svg>
