<?xml version="1.0" encoding="utf-8"?>
<svg xmlns="http://www.w3.org/2000/svg" xmlns:xlink="http://www.w3.org/1999/xlink" width="600" height="400" viewBox="0 0 2400 1600">
<defs>
  <clipPath id="clip840">
    <rect x="0" y="0" width="2400" height="1600"/>
  </clipPath>
</defs>
<path clip-path="url(#clip840)" d="M0 1600 L2400 1600 L2400 0 L0 0  Z" fill="#ffffff" fill-rule="evenodd" fill-opacity="1"/>
<defs>
  <clipPath id="clip841">
    <rect x="480" y="0" width="1681" height="1600"/>
  </clipPath>
</defs>
<path clip-path="url(#clip840)" d="M230.996 1486.45 L2352.76 1486.45 L2352.76 47.2441 L230.996 47.2441  Z" fill="#ffffff" fill-rule="evenodd" fill-opacity="1"/>
<defs>
  <clipPath id="clip842">
    <rect x="230" y="47" width="2123" height="1440"/>
  </clipPath>
</defs>
<polyline clip-path="url(#clip842)" style="stroke:#000000; stroke-linecap:round; stroke-linejoin:round; stroke-width:2; stroke-opacity:0.1; fill:none" points="291.046,1486.45 291.046,47.2441 "/>
<polyline clip-path="url(#clip842)" style="stroke:#000000; stroke-linecap:round; stroke-linejoin:round; stroke-width:2; stroke-opacity:0.1; fill:none" points="791.461,1486.45 791.461,47.2441 "/>
<polyline clip-path="url(#clip842)" style="stroke:#000000; stroke-linecap:round; stroke-linejoin:round; stroke-width:2; stroke-opacity:0.1; fill:none" points="1291.88,1486.45 1291.88,47.2441 "/>
<polyline clip-path="url(#clip842)" style="stroke:#000000; stroke-linecap:round; stroke-linejoin:round; stroke-width:2; stroke-opacity:0.1; fill:none" points="1792.29,1486.45 1792.29,47.2441 "/>
<polyline clip-path="url(#clip842)" style="stroke:#000000; stroke-linecap:round; stroke-linejoin:round; stroke-width:2; stroke-opacity:0.1; fill:none" points="2292.71,1486.45 2292.71,47.2441 "/>
<polyline clip-path="url(#clip840)" style="stroke:#000000; stroke-linecap:round; stroke-linejoin:round; stroke-width:4; stroke-opacity:1; fill:none" points="230.996,1486.45 2352.76,1486.45 "/>
<polyline clip-path="url(#clip840)" style="stroke:#000000; stroke-linecap:round; stroke-linejoin:round; stroke-width:4; stroke-opacity:1; fill:none" points="291.046,1486.45 291.046,1467.55 "/>
<polyline clip-path="url(#clip840)" style="stroke:#000000; stroke-linecap:round; stroke-linejoin:round; stroke-width:4; stroke-opacity:1; fill:none" points="791.461,1486.45 791.461,1467.55 "/>
<polyline clip-path="url(#clip840)" style="stroke:#000000; stroke-linecap:round; stroke-linejoin:round; stroke-width:4; stroke-opacity:1; fill:none" points="1291.88,1486.45 1291.88,1467.55 "/>
<polyline clip-path="url(#clip840)" style="stroke:#000000; stroke-linecap:round; stroke-linejoin:round; stroke-width:4; stroke-opacity:1; fill:none" points="1792.29,1486.45 1792.29,1467.55 "/>
<polyline clip-path="url(#clip840)" style="stroke:#000000; stroke-linecap:round; stroke-linejoin:round; stroke-width:4; stroke-opacity:1; fill:none" points="2292.71,1486.45 2292.71,1467.55 "/>
<path clip-path="url(#clip840)" d="M291.046 1517.37 Q287.435 1517.37 285.606 1520.93 Q283.8 1524.47 283.8 1531.6 Q283.8 1538.71 285.606 1542.27 Q287.435 1545.82 291.046 1545.82 Q294.68 1545.82 296.486 1542.27 Q298.314 1538.71 298.314 1531.6 Q298.314 1524.47 296.486 1520.93 Q294.68 1517.37 291.046 1517.37 M291.046 1513.66 Q296.856 1513.66 299.911 1518.27 Q302.99 1522.85 302.99 1531.6 Q302.99 1540.33 299.911 1544.94 Q296.856 1549.52 291.046 1549.52 Q285.236 1549.52 282.157 1544.94 Q279.101 1540.33 279.101 1531.6 Q279.101 1522.85 282.157 1518.27 Q285.236 1513.66 291.046 1513.66 Z" fill="#000000" fill-rule="nonzero" fill-opacity="1" /><path clip-path="url(#clip840)" d="M751.079 1514.29 L769.436 1514.29 L769.436 1518.22 L755.362 1518.22 L755.362 1526.7 Q756.38 1526.35 757.399 1526.19 Q758.417 1526 759.436 1526 Q765.223 1526 768.602 1529.17 Q771.982 1532.34 771.982 1537.76 Q771.982 1543.34 768.51 1546.44 Q765.037 1549.52 758.718 1549.52 Q756.542 1549.52 754.274 1549.15 Q752.028 1548.78 749.621 1548.04 L749.621 1543.34 Q751.704 1544.47 753.926 1545.03 Q756.149 1545.58 758.625 1545.58 Q762.63 1545.58 764.968 1543.48 Q767.306 1541.37 767.306 1537.76 Q767.306 1534.15 764.968 1532.04 Q762.63 1529.94 758.625 1529.94 Q756.75 1529.94 754.875 1530.35 Q753.024 1530.77 751.079 1531.65 L751.079 1514.29 Z" fill="#000000" fill-rule="nonzero" fill-opacity="1" /><path clip-path="url(#clip840)" d="M791.195 1517.37 Q787.584 1517.37 785.755 1520.93 Q783.949 1524.47 783.949 1531.6 Q783.949 1538.71 785.755 1542.27 Q787.584 1545.82 791.195 1545.82 Q794.829 1545.82 796.634 1542.27 Q798.463 1538.71 798.463 1531.6 Q798.463 1524.47 796.634 1520.93 Q794.829 1517.37 791.195 1517.37 M791.195 1513.66 Q797.005 1513.66 800.06 1518.27 Q803.139 1522.85 803.139 1531.6 Q803.139 1540.33 800.06 1544.94 Q797.005 1549.52 791.195 1549.52 Q785.385 1549.52 782.306 1544.94 Q779.25 1540.33 779.25 1531.6 Q779.25 1522.85 782.306 1518.27 Q785.385 1513.66 791.195 1513.66 Z" fill="#000000" fill-rule="nonzero" fill-opacity="1" /><path clip-path="url(#clip840)" d="M821.357 1517.37 Q817.745 1517.37 815.917 1520.93 Q814.111 1524.47 814.111 1531.6 Q814.111 1538.71 815.917 1542.27 Q817.745 1545.82 821.357 1545.82 Q824.991 1545.82 826.796 1542.27 Q828.625 1538.71 828.625 1531.6 Q828.625 1524.47 826.796 1520.93 Q824.991 1517.37 821.357 1517.37 M821.357 1513.66 Q827.167 1513.66 830.222 1518.27 Q833.301 1522.85 833.301 1531.6 Q833.301 1540.33 830.222 1544.94 Q827.167 1549.52 821.357 1549.52 Q815.546 1549.52 812.468 1544.94 Q809.412 1540.33 809.412 1531.6 Q809.412 1522.85 812.468 1518.27 Q815.546 1513.66 821.357 1513.66 Z" fill="#000000" fill-rule="nonzero" fill-opacity="1" /><path clip-path="url(#clip840)" d="M1236.4 1544.91 L1244.04 1544.91 L1244.04 1518.55 L1235.73 1520.21 L1235.73 1515.95 L1243.99 1514.29 L1248.67 1514.29 L1248.67 1544.91 L1256.31 1544.91 L1256.31 1548.85 L1236.4 1548.85 L1236.4 1544.91 Z" fill="#000000" fill-rule="nonzero" fill-opacity="1" /><path clip-path="url(#clip840)" d="M1275.75 1517.37 Q1272.14 1517.37 1270.31 1520.93 Q1268.51 1524.47 1268.51 1531.6 Q1268.51 1538.71 1270.31 1542.27 Q1272.14 1545.82 1275.75 1545.82 Q1279.39 1545.82 1281.19 1542.27 Q1283.02 1538.71 1283.02 1531.6 Q1283.02 1524.47 1281.19 1520.93 Q1279.39 1517.37 1275.75 1517.37 M1275.75 1513.66 Q1281.56 1513.66 1284.62 1518.27 Q1287.7 1522.85 1287.7 1531.6 Q1287.7 1540.33 1284.62 1544.94 Q1281.56 1549.52 1275.75 1549.52 Q1269.94 1549.52 1266.86 1544.94 Q1263.81 1540.33 1263.81 1531.6 Q1263.81 1522.85 1266.86 1518.27 Q1269.94 1513.66 1275.75 1513.66 Z" fill="#000000" fill-rule="nonzero" fill-opacity="1" /><path clip-path="url(#clip840)" d="M1305.92 1517.37 Q1302.3 1517.37 1300.48 1520.93 Q1298.67 1524.47 1298.67 1531.6 Q1298.67 1538.71 1300.48 1542.27 Q1302.3 1545.82 1305.92 1545.82 Q1309.55 1545.82 1311.36 1542.27 Q1313.18 1538.71 1313.18 1531.6 Q1313.18 1524.47 1311.36 1520.93 Q1309.55 1517.37 1305.92 1517.37 M1305.92 1513.66 Q1311.73 1513.66 1314.78 1518.27 Q1317.86 1522.85 1317.86 1531.6 Q1317.86 1540.33 1314.78 1544.94 Q1311.73 1549.52 1305.92 1549.52 Q1300.11 1549.52 1297.03 1544.94 Q1293.97 1540.33 1293.97 1531.6 Q1293.97 1522.85 1297.03 1518.27 Q1300.11 1513.66 1305.92 1513.66 Z" fill="#000000" fill-rule="nonzero" fill-opacity="1" /><path clip-path="url(#clip840)" d="M1336.08 1517.37 Q1332.47 1517.37 1330.64 1520.93 Q1328.83 1524.47 1328.83 1531.6 Q1328.83 1538.71 1330.64 1542.27 Q1332.47 1545.82 1336.08 1545.82 Q1339.71 1545.82 1341.52 1542.27 Q1343.35 1538.71 1343.35 1531.6 Q1343.35 1524.47 1341.52 1520.93 Q1339.71 1517.37 1336.08 1517.37 M1336.08 1513.66 Q1341.89 1513.66 1344.94 1518.27 Q1348.02 1522.85 1348.02 1531.6 Q1348.02 1540.33 1344.94 1544.94 Q1341.89 1549.52 1336.08 1549.52 Q1330.27 1549.52 1327.19 1544.94 Q1324.13 1540.33 1324.13 1531.6 Q1324.13 1522.85 1327.19 1518.27 Q1330.27 1513.66 1336.08 1513.66 Z" fill="#000000" fill-rule="nonzero" fill-opacity="1" /><path clip-path="url(#clip840)" d="M1736.82 1544.91 L1744.46 1544.91 L1744.46 1518.55 L1736.15 1520.21 L1736.15 1515.95 L1744.41 1514.29 L1749.09 1514.29 L1749.09 1544.91 L1756.72 1544.91 L1756.72 1548.85 L1736.82 1548.85 L1736.82 1544.91 Z" fill="#000000" fill-rule="nonzero" fill-opacity="1" /><path clip-path="url(#clip840)" d="M1766.21 1514.29 L1784.57 1514.29 L1784.57 1518.22 L1770.5 1518.22 L1770.5 1526.7 Q1771.52 1526.35 1772.53 1526.19 Q1773.55 1526 1774.57 1526 Q1780.36 1526 1783.74 1529.17 Q1787.12 1532.34 1787.12 1537.76 Q1787.12 1543.34 1783.65 1546.44 Q1780.17 1549.52 1773.85 1549.52 Q1771.68 1549.52 1769.41 1549.15 Q1767.16 1548.78 1764.76 1548.04 L1764.76 1543.34 Q1766.84 1544.47 1769.06 1545.03 Q1771.28 1545.58 1773.76 1545.58 Q1777.77 1545.58 1780.1 1543.48 Q1782.44 1541.37 1782.44 1537.76 Q1782.44 1534.15 1780.1 1532.04 Q1777.77 1529.94 1773.76 1529.94 Q1771.89 1529.94 1770.01 1530.35 Q1768.16 1530.77 1766.21 1531.65 L1766.21 1514.29 Z" fill="#000000" fill-rule="nonzero" fill-opacity="1" /><path clip-path="url(#clip840)" d="M1806.33 1517.37 Q1802.72 1517.37 1800.89 1520.93 Q1799.08 1524.47 1799.08 1531.6 Q1799.08 1538.71 1800.89 1542.27 Q1802.72 1545.82 1806.33 1545.82 Q1809.96 1545.82 1811.77 1542.27 Q1813.6 1538.71 1813.6 1531.6 Q1813.6 1524.47 1811.77 1520.93 Q1809.96 1517.37 1806.33 1517.37 M1806.33 1513.66 Q1812.14 1513.66 1815.2 1518.27 Q1818.27 1522.85 1818.27 1531.6 Q1818.27 1540.33 1815.2 1544.94 Q1812.14 1549.52 1806.33 1549.52 Q1800.52 1549.52 1797.44 1544.94 Q1794.39 1540.33 1794.39 1531.6 Q1794.39 1522.85 1797.44 1518.27 Q1800.52 1513.66 1806.33 1513.66 Z" fill="#000000" fill-rule="nonzero" fill-opacity="1" /><path clip-path="url(#clip840)" d="M1836.49 1517.37 Q1832.88 1517.37 1831.05 1520.93 Q1829.25 1524.47 1829.25 1531.6 Q1829.25 1538.71 1831.05 1542.27 Q1832.88 1545.82 1836.49 1545.82 Q1840.13 1545.82 1841.93 1542.27 Q1843.76 1538.71 1843.76 1531.6 Q1843.76 1524.47 1841.93 1520.93 Q1840.13 1517.37 1836.49 1517.37 M1836.49 1513.66 Q1842.3 1513.66 1845.36 1518.27 Q1848.44 1522.85 1848.44 1531.6 Q1848.44 1540.33 1845.36 1544.94 Q1842.3 1549.52 1836.49 1549.52 Q1830.68 1549.52 1827.6 1544.94 Q1824.55 1540.33 1824.55 1531.6 Q1824.55 1522.85 1827.6 1518.27 Q1830.68 1513.66 1836.49 1513.66 Z" fill="#000000" fill-rule="nonzero" fill-opacity="1" /><path clip-path="url(#clip840)" d="M2241.32 1544.91 L2257.64 1544.91 L2257.64 1548.85 L2235.69 1548.85 L2235.69 1544.91 Q2238.35 1542.16 2242.94 1537.53 Q2247.54 1532.88 2248.72 1531.53 Q2250.97 1529.01 2251.85 1527.27 Q2252.75 1525.51 2252.75 1523.82 Q2252.75 1521.07 2250.81 1519.33 Q2248.89 1517.6 2245.79 1517.6 Q2243.59 1517.6 2241.13 1518.36 Q2238.7 1519.13 2235.92 1520.68 L2235.92 1515.95 Q2238.75 1514.82 2241.2 1514.24 Q2243.66 1513.66 2245.69 1513.66 Q2251.06 1513.66 2254.26 1516.35 Q2257.45 1519.03 2257.45 1523.52 Q2257.45 1525.65 2256.64 1527.57 Q2255.85 1529.47 2253.75 1532.07 Q2253.17 1532.74 2250.07 1535.95 Q2246.97 1539.15 2241.32 1544.91 Z" fill="#000000" fill-rule="nonzero" fill-opacity="1" /><path clip-path="url(#clip840)" d="M2277.45 1517.37 Q2273.84 1517.37 2272.01 1520.93 Q2270.21 1524.47 2270.21 1531.6 Q2270.21 1538.71 2272.01 1542.27 Q2273.84 1545.82 2277.45 1545.82 Q2281.09 1545.82 2282.89 1542.27 Q2284.72 1538.71 2284.72 1531.6 Q2284.72 1524.47 2282.89 1520.93 Q2281.09 1517.37 2277.45 1517.37 M2277.45 1513.66 Q2283.26 1513.66 2286.32 1518.27 Q2289.4 1522.85 2289.4 1531.6 Q2289.4 1540.33 2286.32 1544.94 Q2283.26 1549.52 2277.45 1549.52 Q2271.64 1549.52 2268.56 1544.94 Q2265.51 1540.33 2265.51 1531.6 Q2265.51 1522.85 2268.56 1518.27 Q2271.64 1513.66 2277.45 1513.66 Z" fill="#000000" fill-rule="nonzero" fill-opacity="1" /><path clip-path="url(#clip840)" d="M2307.61 1517.37 Q2304 1517.37 2302.17 1520.93 Q2300.37 1524.47 2300.37 1531.6 Q2300.37 1538.71 2302.17 1542.27 Q2304 1545.82 2307.61 1545.82 Q2311.25 1545.82 2313.05 1542.27 Q2314.88 1538.71 2314.88 1531.6 Q2314.88 1524.47 2313.05 1520.93 Q2311.25 1517.37 2307.61 1517.37 M2307.61 1513.66 Q2313.42 1513.66 2316.48 1518.27 Q2319.56 1522.85 2319.56 1531.6 Q2319.56 1540.33 2316.48 1544.94 Q2313.42 1549.52 2307.61 1549.52 Q2301.8 1549.52 2298.72 1544.94 Q2295.67 1540.33 2295.67 1531.6 Q2295.67 1522.85 2298.72 1518.27 Q2301.8 1513.66 2307.61 1513.66 Z" fill="#000000" fill-rule="nonzero" fill-opacity="1" /><path clip-path="url(#clip840)" d="M2337.78 1517.37 Q2334.16 1517.37 2332.34 1520.93 Q2330.53 1524.47 2330.53 1531.6 Q2330.53 1538.71 2332.34 1542.27 Q2334.16 1545.82 2337.78 1545.82 Q2341.41 1545.82 2343.22 1542.27 Q2345.04 1538.71 2345.04 1531.6 Q2345.04 1524.47 2343.22 1520.93 Q2341.41 1517.37 2337.78 1517.37 M2337.78 1513.66 Q2343.59 1513.66 2346.64 1518.27 Q2349.72 1522.85 2349.72 1531.6 Q2349.72 1540.33 2346.64 1544.94 Q2343.59 1549.52 2337.78 1549.52 Q2331.97 1549.52 2328.89 1544.94 Q2325.83 1540.33 2325.83 1531.6 Q2325.83 1522.85 2328.89 1518.27 Q2331.97 1513.66 2337.78 1513.66 Z" fill="#000000" fill-rule="nonzero" fill-opacity="1" /><polyline clip-path="url(#clip842)" style="stroke:#000000; stroke-linecap:round; stroke-linejoin:round; stroke-width:2; stroke-opacity:0.1; fill:none" points="230.996,1374.92 2352.76,1374.92 "/>
<polyline clip-path="url(#clip842)" style="stroke:#000000; stroke-linecap:round; stroke-linejoin:round; stroke-width:2; stroke-opacity:0.1; fill:none" points="230.996,1014.24 2352.76,1014.24 "/>
<polyline clip-path="url(#clip842)" style="stroke:#000000; stroke-linecap:round; stroke-linejoin:round; stroke-width:2; stroke-opacity:0.1; fill:none" points="230.996,653.554 2352.76,653.554 "/>
<polyline clip-path="url(#clip842)" style="stroke:#000000; stroke-linecap:round; stroke-linejoin:round; stroke-width:2; stroke-opacity:0.1; fill:none" points="230.996,292.869 2352.76,292.869 "/>
<polyline clip-path="url(#clip840)" style="stroke:#000000; stroke-linecap:round; stroke-linejoin:round; stroke-width:4; stroke-opacity:1; fill:none" points="230.996,1486.45 230.996,47.2441 "/>
<polyline clip-path="url(#clip840)" style="stroke:#000000; stroke-linecap:round; stroke-linejoin:round; stroke-width:4; stroke-opacity:1; fill:none" points="230.996,1374.92 249.894,1374.92 "/>
<polyline clip-path="url(#clip840)" style="stroke:#000000; stroke-linecap:round; stroke-linejoin:round; stroke-width:4; stroke-opacity:1; fill:none" points="230.996,1014.24 249.894,1014.24 "/>
<polyline clip-path="url(#clip840)" style="stroke:#000000; stroke-linecap:round; stroke-linejoin:round; stroke-width:4; stroke-opacity:1; fill:none" points="230.996,653.554 249.894,653.554 "/>
<polyline clip-path="url(#clip840)" style="stroke:#000000; stroke-linecap:round; stroke-linejoin:round; stroke-width:4; stroke-opacity:1; fill:none" points="230.996,292.869 249.894,292.869 "/>
<path clip-path="url(#clip840)" d="M52.4505 1357.64 L70.8068 1357.64 L70.8068 1361.58 L56.7328 1361.58 L56.7328 1370.05 Q57.7513 1369.7 58.7699 1369.54 Q59.7884 1369.36 60.8069 1369.36 Q66.5939 1369.36 69.9735 1372.53 Q73.3531 1375.7 73.3531 1381.12 Q73.3531 1386.69 69.8809 1389.8 Q66.4087 1392.87 60.0893 1392.87 Q57.9134 1392.87 55.6449 1392.5 Q53.3995 1392.13 50.9921 1391.39 L50.9921 1386.69 Q53.0754 1387.83 55.2977 1388.38 Q57.5199 1388.94 59.9967 1388.94 Q64.0013 1388.94 66.3393 1386.83 Q68.6772 1384.73 68.6772 1381.12 Q68.6772 1377.5 66.3393 1375.4 Q64.0013 1373.29 59.9967 1373.29 Q58.1217 1373.29 56.2467 1373.71 Q54.3949 1374.12 52.4505 1375 L52.4505 1357.64 Z" fill="#000000" fill-rule="nonzero" fill-opacity="1" /><path clip-path="url(#clip840)" d="M92.566 1360.72 Q88.9549 1360.72 87.1262 1364.29 Q85.3206 1367.83 85.3206 1374.96 Q85.3206 1382.06 87.1262 1385.63 Q88.9549 1389.17 92.566 1389.17 Q96.2002 1389.17 98.0058 1385.63 Q99.8345 1382.06 99.8345 1374.96 Q99.8345 1367.83 98.0058 1364.29 Q96.2002 1360.72 92.566 1360.72 M92.566 1357.02 Q98.3761 1357.02 101.432 1361.62 Q104.51 1366.21 104.51 1374.96 Q104.51 1383.68 101.432 1388.29 Q98.3761 1392.87 92.566 1392.87 Q86.7558 1392.87 83.6771 1388.29 Q80.6216 1383.68 80.6216 1374.96 Q80.6216 1366.21 83.6771 1361.62 Q86.7558 1357.02 92.566 1357.02 Z" fill="#000000" fill-rule="nonzero" fill-opacity="1" /><path clip-path="url(#clip840)" d="M122.728 1360.72 Q119.117 1360.72 117.288 1364.29 Q115.483 1367.83 115.483 1374.96 Q115.483 1382.06 117.288 1385.63 Q119.117 1389.17 122.728 1389.17 Q126.362 1389.17 128.168 1385.63 Q129.996 1382.06 129.996 1374.96 Q129.996 1367.83 128.168 1364.29 Q126.362 1360.72 122.728 1360.72 M122.728 1357.02 Q128.538 1357.02 131.594 1361.62 Q134.672 1366.21 134.672 1374.96 Q134.672 1383.68 131.594 1388.29 Q128.538 1392.87 122.728 1392.87 Q116.918 1392.87 113.839 1388.29 Q110.783 1383.68 110.783 1374.96 Q110.783 1366.21 113.839 1361.62 Q116.918 1357.02 122.728 1357.02 Z" fill="#000000" fill-rule="nonzero" fill-opacity="1" /><path clip-path="url(#clip840)" d="M152.89 1360.72 Q149.279 1360.72 147.45 1364.29 Q145.644 1367.83 145.644 1374.96 Q145.644 1382.06 147.45 1385.63 Q149.279 1389.17 152.89 1389.17 Q156.524 1389.17 158.33 1385.63 Q160.158 1382.06 160.158 1374.96 Q160.158 1367.83 158.33 1364.29 Q156.524 1360.72 152.89 1360.72 M152.89 1357.02 Q158.7 1357.02 161.755 1361.62 Q164.834 1366.21 164.834 1374.96 Q164.834 1383.68 161.755 1388.29 Q158.7 1392.87 152.89 1392.87 Q147.08 1392.87 144.001 1388.29 Q140.945 1383.68 140.945 1374.96 Q140.945 1366.21 144.001 1361.62 Q147.08 1357.02 152.89 1357.02 Z" fill="#000000" fill-rule="nonzero" fill-opacity="1" /><path clip-path="url(#clip840)" d="M183.052 1360.72 Q179.441 1360.72 177.612 1364.29 Q175.806 1367.83 175.806 1374.96 Q175.806 1382.06 177.612 1385.63 Q179.441 1389.17 183.052 1389.17 Q186.686 1389.17 188.491 1385.63 Q190.32 1382.06 190.32 1374.96 Q190.32 1367.83 188.491 1364.29 Q186.686 1360.72 183.052 1360.72 M183.052 1357.02 Q188.862 1357.02 191.917 1361.62 Q194.996 1366.21 194.996 1374.96 Q194.996 1383.68 191.917 1388.29 Q188.862 1392.87 183.052 1392.87 Q177.241 1392.87 174.163 1388.29 Q171.107 1383.68 171.107 1374.96 Q171.107 1366.21 174.163 1361.62 Q177.241 1357.02 183.052 1357.02 Z" fill="#000000" fill-rule="nonzero" fill-opacity="1" /><path clip-path="url(#clip840)" d="M52.4505 996.958 L70.8068 996.958 L70.8068 1000.89 L56.7328 1000.89 L56.7328 1009.37 Q57.7513 1009.02 58.7699 1008.86 Q59.7884 1008.67 60.8069 1008.67 Q66.5939 1008.67 69.9735 1011.84 Q73.3531 1015.01 73.3531 1020.43 Q73.3531 1026.01 69.8809 1029.11 Q66.4087 1032.19 60.0893 1032.19 Q57.9134 1032.19 55.6449 1031.82 Q53.3995 1031.45 50.9921 1030.71 L50.9921 1026.01 Q53.0754 1027.14 55.2977 1027.7 Q57.5199 1028.25 59.9967 1028.25 Q64.0013 1028.25 66.3393 1026.15 Q68.6772 1024.04 68.6772 1020.43 Q68.6772 1016.82 66.3393 1014.71 Q64.0013 1012.61 59.9967 1012.61 Q58.1217 1012.61 56.2467 1013.02 Q54.3949 1013.44 52.4505 1014.32 L52.4505 996.958 Z" fill="#000000" fill-rule="nonzero" fill-opacity="1" /><path clip-path="url(#clip840)" d="M83.3762 1027.58 L91.0151 1027.58 L91.0151 1001.22 L82.7049 1002.88 L82.7049 998.625 L90.9688 996.958 L95.6447 996.958 L95.6447 1027.58 L103.284 1027.58 L103.284 1031.52 L83.3762 1031.52 L83.3762 1027.58 Z" fill="#000000" fill-rule="nonzero" fill-opacity="1" /><path clip-path="url(#clip840)" d="M122.728 1000.04 Q119.117 1000.04 117.288 1003.6 Q115.483 1007.14 115.483 1014.27 Q115.483 1021.38 117.288 1024.94 Q119.117 1028.49 122.728 1028.49 Q126.362 1028.49 128.168 1024.94 Q129.996 1021.38 129.996 1014.27 Q129.996 1007.14 128.168 1003.6 Q126.362 1000.04 122.728 1000.04 M122.728 996.333 Q128.538 996.333 131.594 1000.94 Q134.672 1005.52 134.672 1014.27 Q134.672 1023 131.594 1027.61 Q128.538 1032.19 122.728 1032.19 Q116.918 1032.19 113.839 1027.61 Q110.783 1023 110.783 1014.27 Q110.783 1005.52 113.839 1000.94 Q116.918 996.333 122.728 996.333 Z" fill="#000000" fill-rule="nonzero" fill-opacity="1" /><path clip-path="url(#clip840)" d="M152.89 1000.04 Q149.279 1000.04 147.45 1003.6 Q145.644 1007.14 145.644 1014.27 Q145.644 1021.38 147.45 1024.94 Q149.279 1028.49 152.89 1028.49 Q156.524 1028.49 158.33 1024.94 Q160.158 1021.38 160.158 1014.27 Q160.158 1007.14 158.33 1003.6 Q156.524 1000.04 152.89 1000.04 M152.89 996.333 Q158.7 996.333 161.755 1000.94 Q164.834 1005.52 164.834 1014.27 Q164.834 1023 161.755 1027.61 Q158.7 1032.19 152.89 1032.19 Q147.08 1032.19 144.001 1027.61 Q140.945 1023 140.945 1014.27 Q140.945 1005.52 144.001 1000.94 Q147.08 996.333 152.89 996.333 Z" fill="#000000" fill-rule="nonzero" fill-opacity="1" /><path clip-path="url(#clip840)" d="M183.052 1000.04 Q179.441 1000.04 177.612 1003.6 Q175.806 1007.14 175.806 1014.27 Q175.806 1021.38 177.612 1024.94 Q179.441 1028.49 183.052 1028.49 Q186.686 1028.49 188.491 1024.94 Q190.32 1021.38 190.32 1014.27 Q190.32 1007.14 188.491 1003.6 Q186.686 1000.04 183.052 1000.04 M183.052 996.333 Q188.862 996.333 191.917 1000.94 Q194.996 1005.52 194.996 1014.27 Q194.996 1023 191.917 1027.61 Q188.862 1032.19 183.052 1032.19 Q177.241 1032.19 174.163 1027.61 Q171.107 1023 171.107 1014.27 Q171.107 1005.52 174.163 1000.94 Q177.241 996.333 183.052 996.333 Z" fill="#000000" fill-rule="nonzero" fill-opacity="1" /><path clip-path="url(#clip840)" d="M52.4505 636.274 L70.8068 636.274 L70.8068 640.209 L56.7328 640.209 L56.7328 648.681 Q57.7513 648.334 58.7699 648.172 Q59.7884 647.987 60.8069 647.987 Q66.5939 647.987 69.9735 651.158 Q73.3531 654.329 73.3531 659.746 Q73.3531 665.325 69.8809 668.426 Q66.4087 671.505 60.0893 671.505 Q57.9134 671.505 55.6449 671.135 Q53.3995 670.764 50.9921 670.024 L50.9921 665.325 Q53.0754 666.459 55.2977 667.014 Q57.5199 667.57 59.9967 667.57 Q64.0013 667.57 66.3393 665.464 Q68.6772 663.357 68.6772 659.746 Q68.6772 656.135 66.3393 654.028 Q64.0013 651.922 59.9967 651.922 Q58.1217 651.922 56.2467 652.339 Q54.3949 652.755 52.4505 653.635 L52.4505 636.274 Z" fill="#000000" fill-rule="nonzero" fill-opacity="1" /><path clip-path="url(#clip840)" d="M86.5938 666.899 L102.913 666.899 L102.913 670.834 L80.9688 670.834 L80.9688 666.899 Q83.6308 664.144 88.2141 659.514 Q92.8206 654.862 94.0012 653.519 Q96.2465 650.996 97.1261 649.26 Q98.0289 647.501 98.0289 645.811 Q98.0289 643.056 96.0845 641.32 Q94.1632 639.584 91.0614 639.584 Q88.8623 639.584 86.4086 640.348 Q83.9781 641.112 81.2003 642.663 L81.2003 637.941 Q84.0244 636.806 86.478 636.228 Q88.9317 635.649 90.9688 635.649 Q96.3391 635.649 99.5335 638.334 Q102.728 641.019 102.728 645.51 Q102.728 647.64 101.918 649.561 Q101.131 651.459 99.0243 654.052 Q98.4456 654.723 95.3437 657.94 Q92.2419 661.135 86.5938 666.899 Z" fill="#000000" fill-rule="nonzero" fill-opacity="1" /><path clip-path="url(#clip840)" d="M122.728 639.353 Q119.117 639.353 117.288 642.917 Q115.483 646.459 115.483 653.589 Q115.483 660.695 117.288 664.26 Q119.117 667.801 122.728 667.801 Q126.362 667.801 128.168 664.26 Q129.996 660.695 129.996 653.589 Q129.996 646.459 128.168 642.917 Q126.362 639.353 122.728 639.353 M122.728 635.649 Q128.538 635.649 131.594 640.255 Q134.672 644.839 134.672 653.589 Q134.672 662.315 131.594 666.922 Q128.538 671.505 122.728 671.505 Q116.918 671.505 113.839 666.922 Q110.783 662.315 110.783 653.589 Q110.783 644.839 113.839 640.255 Q116.918 635.649 122.728 635.649 Z" fill="#000000" fill-rule="nonzero" fill-opacity="1" /><path clip-path="url(#clip840)" d="M152.89 639.353 Q149.279 639.353 147.45 642.917 Q145.644 646.459 145.644 653.589 Q145.644 660.695 147.45 664.26 Q149.279 667.801 152.89 667.801 Q156.524 667.801 158.33 664.26 Q160.158 660.695 160.158 653.589 Q160.158 646.459 158.33 642.917 Q156.524 639.353 152.89 639.353 M152.89 635.649 Q158.7 635.649 161.755 640.255 Q164.834 644.839 164.834 653.589 Q164.834 662.315 161.755 666.922 Q158.7 671.505 152.89 671.505 Q147.08 671.505 144.001 666.922 Q140.945 662.315 140.945 653.589 Q140.945 644.839 144.001 640.255 Q147.08 635.649 152.89 635.649 Z" fill="#000000" fill-rule="nonzero" fill-opacity="1" /><path clip-path="url(#clip840)" d="M183.052 639.353 Q179.441 639.353 177.612 642.917 Q175.806 646.459 175.806 653.589 Q175.806 660.695 177.612 664.26 Q179.441 667.801 183.052 667.801 Q186.686 667.801 188.491 664.26 Q190.32 660.695 190.32 653.589 Q190.32 646.459 188.491 642.917 Q186.686 639.353 183.052 639.353 M183.052 635.649 Q188.862 635.649 191.917 640.255 Q194.996 644.839 194.996 653.589 Q194.996 662.315 191.917 666.922 Q188.862 671.505 183.052 671.505 Q177.241 671.505 174.163 666.922 Q171.107 662.315 171.107 653.589 Q171.107 644.839 174.163 640.255 Q177.241 635.649 183.052 635.649 Z" fill="#000000" fill-rule="nonzero" fill-opacity="1" /><path clip-path="url(#clip840)" d="M52.4505 275.589 L70.8068 275.589 L70.8068 279.524 L56.7328 279.524 L56.7328 287.997 Q57.7513 287.649 58.7699 287.487 Q59.7884 287.302 60.8069 287.302 Q66.5939 287.302 69.9735 290.473 Q73.3531 293.645 73.3531 299.061 Q73.3531 304.64 69.8809 307.742 Q66.4087 310.82 60.0893 310.82 Q57.9134 310.82 55.6449 310.45 Q53.3995 310.08 50.9921 309.339 L50.9921 304.64 Q53.0754 305.774 55.2977 306.33 Q57.5199 306.885 59.9967 306.885 Q64.0013 306.885 66.3393 304.779 Q68.6772 302.672 68.6772 299.061 Q68.6772 295.45 66.3393 293.344 Q64.0013 291.237 59.9967 291.237 Q58.1217 291.237 56.2467 291.654 Q54.3949 292.071 52.4505 292.95 L52.4505 275.589 Z" fill="#000000" fill-rule="nonzero" fill-opacity="1" /><path clip-path="url(#clip840)" d="M96.7326 291.515 Q100.089 292.233 101.964 294.501 Q103.862 296.77 103.862 300.103 Q103.862 305.219 100.344 308.02 Q96.8252 310.82 90.3438 310.82 Q88.1679 310.82 85.8531 310.381 Q83.5614 309.964 81.1077 309.108 L81.1077 304.594 Q83.0521 305.728 85.3669 306.307 Q87.6817 306.885 90.2049 306.885 Q94.603 306.885 96.8947 305.149 Q99.2095 303.413 99.2095 300.103 Q99.2095 297.047 97.0567 295.334 Q94.9271 293.598 91.1077 293.598 L87.0799 293.598 L87.0799 289.756 L91.2928 289.756 Q94.7419 289.756 96.5706 288.39 Q98.3993 287.001 98.3993 284.409 Q98.3993 281.747 96.5011 280.335 Q94.6262 278.899 91.1077 278.899 Q89.1864 278.899 86.9873 279.316 Q84.7882 279.733 82.1494 280.612 L82.1494 276.446 Q84.8114 275.705 87.1262 275.335 Q89.4641 274.964 91.5243 274.964 Q96.8484 274.964 99.9502 277.395 Q103.052 279.802 103.052 283.922 Q103.052 286.793 101.409 288.784 Q99.765 290.751 96.7326 291.515 Z" fill="#000000" fill-rule="nonzero" fill-opacity="1" /><path clip-path="url(#clip840)" d="M122.728 278.668 Q119.117 278.668 117.288 282.233 Q115.483 285.774 115.483 292.904 Q115.483 300.01 117.288 303.575 Q119.117 307.117 122.728 307.117 Q126.362 307.117 128.168 303.575 Q129.996 300.01 129.996 292.904 Q129.996 285.774 128.168 282.233 Q126.362 278.668 122.728 278.668 M122.728 274.964 Q128.538 274.964 131.594 279.571 Q134.672 284.154 134.672 292.904 Q134.672 301.631 131.594 306.237 Q128.538 310.82 122.728 310.82 Q116.918 310.82 113.839 306.237 Q110.783 301.631 110.783 292.904 Q110.783 284.154 113.839 279.571 Q116.918 274.964 122.728 274.964 Z" fill="#000000" fill-rule="nonzero" fill-opacity="1" /><path clip-path="url(#clip840)" d="M152.89 278.668 Q149.279 278.668 147.45 282.233 Q145.644 285.774 145.644 292.904 Q145.644 300.01 147.45 303.575 Q149.279 307.117 152.89 307.117 Q156.524 307.117 158.33 303.575 Q160.158 300.01 160.158 292.904 Q160.158 285.774 158.33 282.233 Q156.524 278.668 152.89 278.668 M152.89 274.964 Q158.7 274.964 161.755 279.571 Q164.834 284.154 164.834 292.904 Q164.834 301.631 161.755 306.237 Q158.7 310.82 152.89 310.82 Q147.08 310.82 144.001 306.237 Q140.945 301.631 140.945 292.904 Q140.945 284.154 144.001 279.571 Q147.08 274.964 152.89 274.964 Z" fill="#000000" fill-rule="nonzero" fill-opacity="1" /><path clip-path="url(#clip840)" d="M183.052 278.668 Q179.441 278.668 177.612 282.233 Q175.806 285.774 175.806 292.904 Q175.806 300.01 177.612 303.575 Q179.441 307.117 183.052 307.117 Q186.686 307.117 188.491 303.575 Q190.32 300.01 190.32 292.904 Q190.32 285.774 188.491 282.233 Q186.686 278.668 183.052 278.668 M183.052 274.964 Q188.862 274.964 191.917 279.571 Q194.996 284.154 194.996 292.904 Q194.996 301.631 191.917 306.237 Q188.862 310.82 183.052 310.82 Q177.241 310.82 174.163 306.237 Q171.107 301.631 171.107 292.904 Q171.107 284.154 174.163 279.571 Q177.241 274.964 183.052 274.964 Z" fill="#000000" fill-rule="nonzero" fill-opacity="1" /><polyline clip-path="url(#clip842)" style="stroke:#009af9; stroke-linecap:round; stroke-linejoin:round; stroke-width:4; stroke-opacity:1; fill:none" points="291.046,709.341 292.047,709.632 293.047,709.747 294.048,709.792 295.049,709.809 296.05,408.698 297.051,409.532 298.052,409.851 299.052,409.973 300.053,410.02 301.054,621.308 302.055,621.845 303.056,622.053 304.057,622.134 305.057,622.165 306.058,613.389 307.059,614.663 308.06,615.158 309.061,615.351 310.062,615.425 311.062,577.969 312.063,578.48 313.064,578.679 314.065,578.756 315.066,578.786 316.067,526.698 317.067,527.245 318.068,527.456 319.069,527.537 320.07,527.568 321.071,521.078 322.072,521.391 323.072,521.512 324.073,521.558 325.074,521.576 326.075,798.096 327.076,798.882 328.077,799.192 329.077,799.313 330.078,799.361 331.079,350.192 332.08,350.657 333.081,350.833 334.081,350.9 335.082,350.925 336.083,439.509 337.084,439.969 338.085,440.147 339.086,440.216 340.086,440.243 341.087,847.556 342.088,848.225 343.089,848.489 344.09,848.593 345.091,848.635 346.091,591.659 347.092,592.724 348.093,593.134 349.094,593.292 350.095,593.353 351.096,657.072 352.096,657.714 353.097,657.966 354.098,658.065 355.099,658.104 356.1,447.307 357.101,447.964 358.101,448.216 359.102,448.313 360.103,448.35 361.104,771.643 362.105,772.065 363.106,772.232 364.106,772.297 365.107,772.323 366.108,529.809 367.109,530.292 368.11,530.479 369.111,530.552 370.111,530.58 371.112,144.465 372.113,145.118 373.114,145.364 374.115,145.457 375.116,145.492 376.116,1052.39 377.117,1052.84 378.118,1053.03 379.119,1053.1 380.12,1053.13 381.121,458.786 382.121,459.336 383.122,459.549 384.123,459.631 385.124,459.663 386.125,585.897 387.125,586.551 388.126,586.806 389.127,586.905 390.128,586.944 391.129,908.374 392.13,909.111 393.13,909.406 394.131,909.524 395.132,909.572 396.133,790.721 397.134,791.698 398.135,792.083 399.135,792.236 400.136,792.296 401.137,808.523 402.138,808.91 403.139,809.061 404.14,809.121 405.14,809.144 406.141,780.55 407.142,781.306 408.143,781.603 409.144,781.72 410.145,781.766 411.145,658.775 412.146,659.001 413.147,659.09 414.148,659.125 415.149,659.139 416.15,1203.26 417.15,1205.12 418.151,1205.87 419.152,1206.17 420.153,1206.29 421.154,790.992 422.155,791.4 423.155,791.562 424.156,791.626 425.157,791.652 426.158,1011.2 427.159,1011.35 428.16,1011.41 429.16,1011.44 430.161,1011.45 431.162,957.521 432.163,957.723 433.164,957.805 434.165,957.837 435.165,957.85 436.166,156.237 437.167,156.348 438.168,156.391 439.169,156.407 440.169,156.413 441.17,476.472 442.171,476.864 443.172,477.017 444.173,477.077 445.174,477.1 446.174,768.51 447.175,769.078 448.176,769.301 449.177,769.387 450.178,769.421 451.179,683.562 452.179,683.927 453.18,684.07 454.181,684.127 455.182,684.15 456.183,524.137 457.184,524.354 458.184,524.438 459.185,524.471 460.186,524.483 461.187,168.63 462.188,169.57 463.189,169.926 464.189,170.061 465.19,170.112 466.191,484.824 467.192,485.961 468.193,486.4 469.194,486.569 470.194,486.635 471.195,737.699 472.196,738.316 473.197,738.56 474.198,738.656 475.199,738.693 476.199,457.341 477.2,458.08 478.201,458.365 479.202,458.475 480.203,458.517 481.204,1021.8 482.204,1022.3 483.205,1022.5 484.206,1022.58 485.207,1022.62 486.208,366.943 487.209,367.454 488.209,367.649 489.21,367.724 490.211,367.753 491.212,513.952 492.213,514.71 493.213,515.004 494.214,515.117 495.215,515.161 496.216,425.367 497.217,426.27 498.218,426.619 499.218,426.753 500.219,426.806 501.22,466.106 502.221,466.302 503.222,466.378 504.223,466.408 505.223,466.419 506.224,524.455 507.225,525.019 508.226,525.236 509.227,525.32 510.228,525.353 511.228,344.852 512.229,346.324 513.23,346.889 514.231,347.106 515.232,347.189 516.233,988.984 517.233,989.152 518.234,989.22 519.235,989.247 520.236,989.258 521.237,775.424 522.238,775.673 523.238,775.772 524.239,775.812 525.24,775.827 526.241,989.195 527.242,989.909 528.243,990.198 529.243,990.316 530.244,990.363 531.245,696.113 532.246,697.078 533.247,697.457 534.248,697.605 535.248,697.663 536.249,1086.21 537.25,1087.14 538.251,1087.51 539.252,1087.66 540.253,1087.72 541.253,1054.23 542.254,1054.65 543.255,1054.82 544.256,1054.89 545.257,1054.92 546.257,419.581 547.258,419.937 548.259,420.071 549.26,420.122 550.261,420.141 551.262,391.279 552.262,392.432 553.263,392.873 554.264,393.043 555.265,393.108 556.266,606.245 557.267,606.786 558.267,606.998 559.268,607.082 560.269,607.114 561.27,398.206 562.271,398.506 563.272,398.62 564.272,398.664 565.273,398.681 566.274,752.336 567.275,753.309 568.276,753.693 569.277,753.845 570.277,753.904 571.278,358.372 572.279,358.722 573.28,358.858 574.281,358.912 575.282,358.932 576.282,819.292 577.283,819.963 578.284,820.23 579.285,820.336 580.286,820.379 581.287,984.658 582.287,985.135 583.288,985.329 584.289,985.408 585.29,985.44 586.291,643.784 587.292,644.321 588.292,644.531 589.293,644.613 590.294,644.645 591.295,1083.66 592.296,1085.06 593.296,1085.63 594.297,1085.85 595.298,1085.94 596.299,664.037 597.3,664.754 598.301,665.03 599.301,665.137 600.302,665.178 601.303,1188.25 602.304,1188.96 603.305,1189.25 604.306,1189.37 605.306,1189.41 606.307,898.99 607.308,899.804 608.309,900.127 609.31,900.255 610.311,900.306 611.311,1023.11 612.312,1023.58 613.313,1023.76 614.314,1023.84 615.315,1023.87 616.316,415.148 617.316,415.328 618.317,415.397 619.318,415.425 620.319,415.435 621.32,612.009 622.321,612.6 623.321,612.83 624.322,612.92 625.323,612.955 626.324,1137.18 627.325,1137.63 628.326,1137.81 629.326,1137.89 630.327,1137.92 631.328,568.442 632.329,569.313 633.33,569.656 634.331,569.791 635.331,569.844 636.332,795.849 637.333,796.331 638.334,796.523 639.335,796.6 640.336,796.63 641.336,961.488 642.337,961.753 643.338,961.859 644.339,961.901 645.34,961.918 646.34,943.465 647.341,944.354 648.342,944.71 649.343,944.853 650.344,944.911 651.345,1087.43 652.345,1087.92 653.346,1088.12 654.347,1088.2 655.348,1088.23 656.349,511.926 657.35,512.389 658.35,512.57 659.351,512.64 660.352,512.667 661.353,812.691 662.354,813.034 663.355,813.172 664.355,813.227 665.356,813.248 666.357,230.795 667.358,231.347 668.359,231.555 669.36,231.633 670.36,231.663 671.361,768.241 672.362,768.462 673.363,768.55 674.364,768.585 675.365,768.598 676.365,301.501 677.366,301.888 678.367,302.036 679.368,302.094 680.369,302.116 681.37,745.98 682.37,746.856 683.371,747.204 684.372,747.342 685.373,747.397 686.374,603.633 687.375,603.858 688.375,603.946 689.376,603.98 690.377,603.994 691.378,747.534 692.379,747.578 693.38,747.596 694.38,747.602 695.381,747.605 696.382,1010.4 697.383,1011.2 698.384,1011.52 699.384,1011.65 700.385,1011.7 701.386,914.195 702.387,914.733 703.388,914.951 704.389,915.04 705.389,915.076 706.39,155.482 707.391,155.868 708.392,156.013 709.393,156.068 710.394,156.088 711.394,991.369 712.395,992.35 713.396,992.748 714.397,992.909 715.398,992.975 716.399,638.904 717.399,638.994 718.4,639.03 719.401,639.044 720.402,639.049 721.403,915.655 722.404,915.902 723.404,916.001 724.405,916.041 725.406,916.057 726.407,545.648 727.408,546.271 728.409,546.514 729.409,546.608 730.41,546.645 731.411,521.773 732.412,522.198 733.413,522.364 734.414,522.428 735.414,522.454 736.415,177.876 737.416,178.36 738.417,178.545 739.418,178.616 740.419,178.643 741.419,1053.43 742.42,1053.62 743.421,1053.7 744.422,1053.73 745.423,1053.74 746.424,519.504 747.424,519.843 748.425,519.975 749.426,520.025 750.427,520.045 751.428,1197.17 752.428,1197.49 753.429,1197.62 754.43,1197.67 755.431,1197.69 756.432,804.49 757.433,805.544 758.433,805.963 759.434,806.13 760.435,806.196 761.436,823.706 762.437,824.169 763.438,824.352 764.438,824.425 765.439,824.454 766.44,762.592 767.441,763.98 768.442,764.528 769.443,764.745 770.443,764.831 771.444,718.502 772.445,719.105 773.446,719.342 774.447,719.436 775.448,719.473 776.448,761.46 777.449,761.812 778.45,761.951 779.451,762.006 780.452,762.027 781.453,487.061 782.453,487.214 783.454,487.273 784.455,487.295 785.456,487.304 786.457,689.308 787.458,689.75 788.458,689.924 789.459,689.992 790.46,690.019 791.461,742.629 792.462,742.771 793.463,742.827 794.463,742.849 795.464,742.858 796.465,782.622 797.466,783.195 798.467,783.422 799.468,783.512 800.468,783.548 801.469,1169.41 802.47,1170 803.471,1170.24 804.472,1170.34 805.472,1170.38 806.473,516.257 807.474,516.747 808.475,516.937 809.476,517.01 810.477,517.038 811.477,502.836 812.478,504.486 813.479,505.129 814.48,505.38 815.481,505.478 816.482,1009.47 817.482,1009.89 818.483,1010.06 819.484,1010.13 820.485,1010.15 821.486,743.665 822.487,743.811 823.487,743.869 824.488,743.893 825.489,743.902 826.49,406.953 827.491,407.369 828.492,407.53 829.492,407.592 830.493,407.616 831.494,205.467 832.495,206.908 833.496,207.455 834.497,207.662 835.497,207.74 836.498,366.139 837.499,367.304 838.5,367.75 839.501,367.919 840.502,367.984 841.502,649.647 842.503,649.966 843.504,650.091 844.505,650.141 845.506,650.16 846.507,549.81 847.507,550.292 848.508,550.48 849.509,550.553 850.51,550.582 851.511,938.994 852.512,939.711 853.512,939.998 854.513,940.113 855.514,940.159 856.515,395.654 857.516,395.892 858.516,395.984 859.517,396.019 860.518,396.032 861.519,777.452 862.52,778.819 863.521,779.36 864.521,779.575 865.522,779.66 866.523,915.934 867.524,916.099 868.525,916.165 869.526,916.192 870.526,916.203 871.527,631.094 872.528,631.598 873.529,631.794 874.53,631.871 875.531,631.9 876.531,711.363 877.532,711.765 878.533,711.924 879.534,711.986 880.535,712.011 881.536,689.081 882.536,689.709 883.537,689.956 884.538,690.054 885.539,690.092 886.54,479.495 887.541,480.009 888.541,480.209 889.542,480.286 890.543,480.317 891.544,344.212 892.545,344.363 893.546,344.421 894.546,344.444 895.547,344.452 896.548,520.976 897.549,521.377 898.55,521.532 899.551,521.592 900.551,521.615 901.552,1270.14 902.553,1270.5 903.554,1270.64 904.555,1270.7 905.556,1270.73 906.556,608.838 907.557,609.157 908.558,609.28 909.559,609.328 910.56,609.347 911.56,399.438 912.561,399.661 913.562,399.747 914.563,399.78 915.564,399.792 916.565,608.715 917.565,609.463 918.566,609.754 919.567,609.867 920.568,609.911 921.569,979.741 922.57,980.594 923.57,980.939 924.571,981.078 925.572,981.134 926.573,851.357 927.574,851.679 928.575,851.809 929.575,851.861 930.576,851.881 931.577,815.664 932.578,815.807 933.579,815.863 934.58,815.886 935.58,815.895 936.581,546.704 937.582,547.006 938.583,547.125 939.584,547.171 940.585,547.189 941.585,401.029 942.586,401.741 943.587,402.017 944.588,402.123 945.589,402.164 946.59,676.53 947.59,676.923 948.591,677.078 949.592,677.139 950.593,677.163 951.594,476.208 952.595,477.402 953.595,477.866 954.596,478.045 955.597,478.115 956.598,669.171 957.599,669.535 958.6,669.678 959.6,669.734 960.601,669.755 961.602,827.156 962.603,827.733 963.604,827.963 964.604,828.055 965.605,828.091 966.606,1230.06 967.607,1230.72 968.608,1231 969.609,1231.11 970.609,1231.15 971.61,547.054 972.611,547.889 973.612,548.215 974.613,548.342 975.614,548.391 976.614,906.913 977.615,907.312 978.616,907.471 979.617,907.535 980.618,907.56 981.619,87.9763 982.619,88.8064 983.62,89.1147 984.621,89.2293 985.622,89.272 986.623,945.217 987.624,945.756 988.624,945.971 989.625,946.056 990.626,946.09 991.627,877.938 992.628,878.517 993.629,878.748 994.629,878.84 995.63,878.877 996.631,650.365 997.632,650.641 998.633,650.749 999.634,650.791 1000.63,650.808 1001.64,519.491 1002.64,519.801 1003.64,519.925 1004.64,519.974 1005.64,519.994 1006.64,1263.21 1007.64,1264.09 1008.64,1264.45 1009.64,1264.6 1010.64,1264.66 1011.64,672.199 1012.64,672.927 1013.65,673.212 1014.65,673.324 1015.65,673.368 1016.65,717.98 1017.65,718.429 1018.65,718.605 1019.65,718.675 1020.65,718.702 1021.65,483.571 1022.65,484.288 1023.65,484.566 1024.65,484.674 1025.66,484.716 1026.66,381.503 1027.66,382.085 1028.66,382.31 1029.66,382.396 1030.66,382.429 1031.66,702.528 1032.66,702.96 1033.66,703.132 1034.66,703.2 1035.66,703.227 1036.66,527.596 1037.67,528.457 1038.67,528.793 1039.67,528.924 1040.67,528.975 1041.67,990.485 1042.67,991.122 1043.67,991.382 1044.67,991.489 1045.67,991.532 1046.67,496.226 1047.67,496.488 1048.67,496.592 1049.68,496.633 1050.68,496.649 1051.68,707.985 1052.68,708.424 1053.68,708.6 1054.68,708.67 1055.68,708.698 1056.68,773.945 1057.68,774.147 1058.68,774.228 1059.68,774.261 1060.68,774.274 1061.69,506.161 1062.69,506.443 1063.69,506.554 1064.69,506.597 1065.69,506.613 1066.69,613.633 1067.69,613.986 1068.69,614.125 1069.69,614.179 1070.69,614.2 1071.69,522.716 1072.69,522.825 1073.69,522.867 1074.7,522.884 1075.7,522.89 1076.7,303.068 1077.7,303.554 1078.7,303.741 1079.7,303.813 1080.7,303.841 1081.7,652.686 1082.7,652.819 1083.7,652.871 1084.7,652.891 1085.7,652.899 1086.71,1143.81 1087.71,1144.4 1088.71,1144.65 1089.71,1144.75 1090.71,1144.79 1091.71,675.186 1092.71,675.387 1093.71,675.467 1094.71,675.498 1095.71,675.511 1096.71,1004.27 1097.71,1004.66 1098.72,1004.82 1099.72,1004.88 1100.72,1004.91 1101.72,675.015 1102.72,675.238 1103.72,675.325 1104.72,675.36 1105.72,675.373 1106.72,1181.79 1107.72,1182.02 1108.72,1182.11 1109.72,1182.15 1110.73,1182.17 1111.73,959.691 1112.73,960.643 1113.73,961.02 1114.73,961.17 1115.73,961.23 1116.73,806.257 1117.73,806.33 1118.73,806.358 1119.73,806.37 1120.73,806.375 1121.73,621.636 1122.74,622.037 1123.74,622.195 1124.74,622.257 1125.74,622.282 1126.74,563.663 1127.74,563.945 1128.74,564.058 1129.74,564.103 1130.74,564.12 1131.74,629.233 1132.74,629.569 1133.74,629.701 1134.75,629.753 1135.75,629.773 1136.75,702.753 1137.75,703.725 1138.75,704.107 1139.75,704.256 1140.75,704.315 1141.75,794.518 1142.75,794.588 1143.75,794.615 1144.75,794.626 1145.75,794.631 1146.76,795.056 1147.76,795.915 1148.76,796.255 1149.76,796.39 1150.76,796.443 1151.76,879.418 1152.76,880.358 1153.76,880.734 1154.76,880.884 1155.76,880.944 1156.76,1068.76 1157.76,1069.37 1158.77,1069.62 1159.77,1069.72 1160.77,1069.76 1161.77,945.875 1162.77,946.522 1163.77,946.781 1164.77,946.885 1165.77,946.926 1166.77,566.053 1167.77,566.6 1168.77,566.809 1169.77,566.889 1170.78,566.919 1171.78,359.254 1172.78,360.174 1173.78,360.521 1174.78,360.652 1175.78,360.702 1176.78,701.734 1177.78,702.007 1178.78,702.112 1179.78,702.153 1180.78,702.169 1181.78,769.032 1182.79,769.876 1183.79,770.211 1184.79,770.343 1185.79,770.396 1186.79,935.503 1187.79,935.586 1188.79,935.619 1189.79,935.633 1190.79,935.638 1191.79,730.451 1192.79,731.056 1193.79,731.298 1194.8,731.395 1195.8,731.434 1196.8,542.613 1197.8,543.321 1198.8,543.596 1199.8,543.702 1200.8,543.743 1201.8,687.666 1202.8,688.487 1203.8,688.807 1204.8,688.931 1205.8,688.98 1206.81,768.586 1207.81,769.683 1208.81,770.122 1209.81,770.299 1210.81,770.37 1211.81,717.342 1212.81,717.784 1213.81,717.958 1214.81,718.026 1215.81,718.053 1216.81,1028.94 1217.81,1029.48 1218.82,1029.7 1219.82,1029.79 1220.82,1029.83 1221.82,557.384 1222.82,557.505 1223.82,557.551 1224.82,557.569 1225.82,557.576 1226.82,987.295 1227.82,987.663 1228.82,987.812 1229.82,987.873 1230.83,987.897 1231.83,820.026 1232.83,820.51 1233.83,820.707 1234.83,820.788 1235.83,820.82 1236.83,956.844 1237.83,958.619 1238.83,959.34 1239.83,959.633 1240.83,959.752 1241.83,1013.94 1242.84,1014.98 1243.84,1015.41 1244.84,1015.58 1245.84,1015.66 1246.84,866.498 1247.84,867.068 1248.84,867.298 1249.84,867.391 1250.84,867.429 1251.84,577.704 1252.84,578.472 1253.84,578.773 1254.85,578.891 1255.85,578.937 1256.85,828.056 1257.85,828.774 1258.85,829.056 1259.85,829.167 1260.85,829.211 1261.85,389.451 1262.85,389.804 1263.85,389.943 1264.85,389.997 1265.85,390.019 1266.86,902.094 1267.86,902.856 1268.86,903.161 1269.86,903.282 1270.86,903.331 1271.86,621.183 1272.86,622.02 1273.86,622.359 1274.86,622.496 1275.86,622.552 1276.86,956.682 1277.86,957.133 1278.87,957.318 1279.87,957.393 1280.87,957.424 1281.87,774.764 1282.87,775.291 1283.87,775.506 1284.87,775.594 1285.87,775.63 1286.87,543.115 1287.87,543.549 1288.87,543.721 1289.87,543.789 1290.88,543.816 1291.88,418.989 1292.88,420.251 1293.88,420.747 1294.88,420.942 1295.88,421.018 1296.88,475.926 1297.88,476.443 1298.88,476.644 1299.88,476.722 1300.88,476.752 1301.88,872.849 1302.89,872.999 1303.89,873.059 1304.89,873.084 1305.89,873.094 1306.89,1079.05 1307.89,1079.83 1308.89,1080.15 1309.89,1080.28 1310.89,1080.33 1311.89,553.783 1312.89,554.125 1313.89,554.257 1314.9,554.308 1315.9,554.328 1316.9,892.39 1317.9,892.938 1318.9,893.158 1319.9,893.246 1320.9,893.282 1321.9,892.242 1322.9,892.847 1323.9,893.089 1324.9,893.185 1325.9,893.224 1326.91,585.902 1327.91,586.346 1328.91,586.52 1329.91,586.588 1330.91,586.615 1331.91,990.863 1332.91,991.39 1333.91,991.604 1334.91,991.691 1335.91,991.727 1336.91,879.972 1337.91,880.456 1338.91,880.651 1339.92,880.729 1340.92,880.761 1341.92,827.363 1342.92,827.613 1343.92,827.714 1344.92,827.754 1345.92,827.77 1346.92,724.384 1347.92,724.795 1348.92,724.957 1349.92,725.022 1350.92,725.047 1351.93,1063.41 1352.93,1063.67 1353.93,1063.77 1354.93,1063.81 1355.93,1063.83 1356.93,612.745 1357.93,613.288 1358.93,613.504 1359.93,613.59 1360.93,613.624 1361.93,844.317 1362.93,844.702 1363.94,844.859 1364.94,844.923 1365.94,844.95 1366.94,1291.79 1367.94,1292.5 1368.94,1292.8 1369.94,1292.93 1370.94,1292.98 1371.94,965.837 1372.94,965.93 1373.94,965.967 1374.94,965.983 1375.95,965.989 1376.95,777.512 1377.95,777.784 1378.95,777.892 1379.95,777.935 1380.95,777.952 1381.95,504.824 1382.95,504.931 1383.95,504.972 1384.95,504.987 1385.95,504.993 1386.95,624.142 1387.96,624.435 1388.96,624.551 1389.96,624.597 1390.96,624.616 1391.96,618.48 1392.96,619.091 1393.96,619.331 1394.96,619.426 1395.96,619.464 1396.96,477.967 1397.96,478.334 1398.96,478.477 1399.97,478.533 1400.97,478.555 1401.97,792.017 1402.97,792.586 1403.97,792.811 1404.97,792.899 1405.97,792.933 1406.97,686.48 1407.97,687.05 1408.97,687.275 1409.97,687.363 1410.97,687.398 1411.98,1445.15 1412.98,1445.49 1413.98,1445.63 1414.98,1445.69 1415.98,1445.72 1416.98,902.896 1417.98,903.351 1418.98,903.535 1419.98,903.61 1420.98,903.64 1421.98,431.889 1422.98,432.151 1423.99,432.253 1424.99,432.293 1425.99,432.309 1426.99,648.311 1427.99,649.222 1428.99,649.579 1429.99,649.719 1430.99,649.773 1431.99,1057.61 1432.99,1057.71 1433.99,1057.75 1434.99,1057.77 1436,1057.78 1437,713.725 1438,714.917 1439,715.394 1440,715.585 1441,715.662 1442,1054.65 1443,1055.46 1444,1055.8 1445,1055.93 1446,1055.99 1447,1128.06 1448.01,1128.53 1449.01,1128.72 1450.01,1128.8 1451.01,1128.83 1452.01,941.342 1453.01,941.736 1454.01,941.896 1455.01,941.961 1456.01,941.987 1457.01,772.917 1458.01,774.513 1459.01,775.166 1460.02,775.434 1461.02,775.545 1462.02,501.895 1463.02,503.198 1464.02,503.7 1465.02,503.893 1466.02,503.968 1467.02,653.237 1468.02,653.843 1469.02,654.084 1470.02,654.18 1471.02,654.218 1472.03,877.06 1473.03,877.137 1474.03,877.168 1475.03,877.181 1476.03,877.186 1477.03,903.275 1478.03,903.49 1479.03,903.58 1480.03,903.617 1481.03,903.632 1482.03,118.652 1483.03,119.364 1484.04,119.636 1485.04,119.741 1486.04,119.782 1487.04,653.732 1488.04,654.398 1489.04,654.666 1490.04,654.774 1491.04,654.817 1492.04,646.303 1493.04,646.629 1494.04,646.762 1495.04,646.816 1496.05,646.838 1497.05,504.464 1498.05,505.099 1499.05,505.349 1500.05,505.448 1501.05,505.486 1502.05,507.736 1503.05,508.409 1504.05,508.674 1505.05,508.778 1506.05,508.818 1507.05,843.894 1508.06,844.167 1509.06,844.276 1510.06,844.32 1511.06,844.337 1512.06,584.589 1513.06,584.757 1514.06,584.823 1515.06,584.85 1516.06,584.861 1517.06,846.101 1518.06,846.223 1519.06,846.273 1520.07,846.293 1521.07,846.301 1522.07,973.816 1523.07,974.611 1524.07,974.931 1525.07,975.06 1526.07,975.112 1527.07,1007.1 1528.07,1007.81 1529.07,1008.11 1530.07,1008.24 1531.07,1008.29 1532.08,757.496 1533.08,758.321 1534.08,758.657 1535.08,758.793 1536.08,758.849 1537.08,538.375 1538.08,538.869 1539.08,539.063 1540.08,539.14 1541.08,539.17 1542.08,1075.35 1543.08,1075.74 1544.09,1075.9 1545.09,1075.97 1546.09,1075.99 1547.09,711.97 1548.09,712.447 1549.09,712.64 1550.09,712.718 1551.09,712.75 1552.09,670.6 1553.09,671.403 1554.09,671.724 1555.09,671.853 1556.1,671.904 1557.1,1003.72 1558.1,1004.6 1559.1,1004.96 1560.1,1005.12 1561.1,1005.18 1562.1,965.068 1563.1,965.907 1564.1,966.256 1565.1,966.402 1566.1,966.462 1567.1,762.64 1568.11,762.879 1569.11,762.977 1570.11,763.017 1571.11,763.034 1572.11,591.652 1573.11,592.43 1574.11,592.746 1575.11,592.874 1576.11,592.926 1577.11,624.116 1578.11,624.323 1579.11,624.404 1580.12,624.435 1581.12,624.448 1582.12,411.407 1583.12,411.785 1584.12,411.931 1585.12,411.988 1586.12,412.01 1587.12,517.208 1588.12,517.564 1589.12,517.703 1590.12,517.757 1591.12,517.778 1592.12,388.666 1593.13,389.042 1594.13,389.187 1595.13,389.242 1596.13,389.264 1597.13,891.865 1598.13,892.23 1599.13,892.377 1600.13,892.436 1601.13,892.46 1602.13,776.928 1603.13,778.075 1604.13,778.525 1605.14,778.701 1606.14,778.77 1607.14,683.958 1608.14,684.371 1609.14,684.533 1610.14,684.598 1611.14,684.623 1612.14,814.129 1613.14,814.888 1614.14,815.19 1615.14,815.311 1616.14,815.359 1617.15,853.251 1618.15,853.308 1619.15,853.332 1620.15,853.342 1621.15,853.347 1622.15,578.278 1623.15,578.855 1624.15,579.083 1625.15,579.173 1626.15,579.209 1627.15,623.402 1628.15,623.485 1629.16,623.518 1630.16,623.532 1631.16,623.537 1632.16,1028.73 1633.16,1029.03 1634.16,1029.16 1635.16,1029.21 1636.16,1029.23 1637.16,1031.05 1638.16,1031.5 1639.16,1031.68 1640.16,1031.76 1641.17,1031.79 1642.17,995.404 1643.17,995.922 1644.17,996.142 1645.17,996.236 1646.17,996.277 1647.17,149.244 1648.17,150.604 1649.17,151.147 1650.17,151.363 1651.17,151.449 1652.17,900.595 1653.18,901.422 1654.18,901.768 1655.18,901.913 1656.18,901.975 1657.18,398.08 1658.18,398.9 1659.18,399.218 1660.18,399.341 1661.18,399.388 1662.18,808.899 1663.18,809.104 1664.18,809.185 1665.19,809.217 1666.19,809.23 1667.19,678.115 1668.19,678.549 1669.19,678.722 1670.19,678.792 1671.19,678.819 1672.19,629.34 1673.19,629.372 1674.19,629.385 1675.19,629.391 1676.19,629.393 1677.2,741.472 1678.2,741.624 1679.2,741.685 1680.2,741.71 1681.2,741.72 1682.2,647.447 1683.2,648.065 1684.2,648.317 1685.2,648.42 1686.2,648.461 1687.2,911.938 1688.2,912.403 1689.21,912.59 1690.21,912.666 1691.21,912.696 1692.21,861.803 1693.21,862.034 1694.21,862.126 1695.21,862.163 1696.21,862.178 1697.21,839.806 1698.21,840.266 1699.21,840.45 1700.21,840.524 1701.22,840.554 1702.22,747.309 1703.22,747.703 1704.22,747.857 1705.22,747.918 1706.22,747.942 1707.22,721.776 1708.22,722.377 1709.22,722.619 1710.22,722.717 1711.22,722.757 1712.22,934.559 1713.23,935.12 1714.23,935.351 1715.23,935.446 1716.23,935.485 1717.23,1133.9 1718.23,1134.93 1719.23,1135.37 1720.23,1135.55 1721.23,1135.63 1722.23,359.827 1723.23,360.403 1724.23,360.625 1725.24,360.711 1726.24,360.744 1727.24,743.797 1728.24,744.21 1729.24,744.378 1730.24,744.447 1731.24,744.475 1732.24,918.248 1733.24,918.473 1734.24,918.565 1735.24,918.602 1736.24,918.617 1737.25,1274.65 1738.25,1275.87 1739.25,1276.36 1740.25,1276.57 1741.25,1276.65 1742.25,1061.39 1743.25,1062.14 1744.25,1062.45 1745.25,1062.58 1746.25,1062.63 1747.25,1124.66 1748.25,1124.9 1749.26,1124.99 1750.26,1125.03 1751.26,1125.05 1752.26,863.633 1753.26,863.807 1754.26,863.877 1755.26,863.905 1756.26,863.916 1757.26,675.185 1758.26,675.381 1759.26,675.458 1760.26,675.489 1761.27,675.501 1762.27,1198.97 1763.27,1199.55 1764.27,1199.79 1765.27,1199.9 1766.27,1199.94 1767.27,895.229 1768.27,895.478 1769.27,895.576 1770.27,895.615 1771.27,895.63 1772.27,800.736 1773.28,801.173 1774.28,801.347 1775.28,801.416 1776.28,801.443 1777.28,900.416 1778.28,901.348 1779.28,901.723 1780.28,901.875 1781.28,901.936 1782.28,825.223 1783.28,826.571 1784.28,827.112 1785.29,827.329 1786.29,827.416 1787.29,647.998 1788.29,648.692 1789.29,648.966 1790.29,649.073 1791.29,649.116 1792.29,967.079 1793.29,967.287 1794.29,967.372 1795.29,967.408 1796.29,967.422 1797.3,1011.56 1798.3,1012.9 1799.3,1013.45 1800.3,1013.68 1801.3,1013.78 1802.3,719.058 1803.3,719.296 1804.3,719.395 1805.3,719.435 1806.3,719.452 1807.3,650.81 1808.3,651.122 1809.31,651.249 1810.31,651.301 1811.31,651.323 1812.31,595.189 1813.31,596.035 1814.31,596.379 1815.31,596.519 1816.31,596.576 1817.31,1158.61 1818.31,1159.8 1819.31,1160.3 1820.31,1160.51 1821.32,1160.6 1822.32,1055.93 1823.32,1056.78 1824.32,1057.15 1825.32,1057.3 1826.32,1057.37 1827.32,956.734 1828.32,957.144 1829.32,957.314 1830.32,957.385 1831.32,957.414 1832.32,478.009 1833.33,478.621 1834.33,478.862 1835.33,478.956 1836.33,478.993 1837.33,808.818 1838.33,809.164 1839.33,809.307 1840.33,809.366 1841.33,809.391 1842.33,924.874 1843.33,924.934 1844.33,924.958 1845.34,924.968 1846.34,924.971 1847.34,678.859 1848.34,679.1 1849.34,679.198 1850.34,679.237 1851.34,679.253 1852.34,824.047 1853.34,824.565 1854.34,824.778 1855.34,824.865 1856.34,824.901 1857.34,788.72 1858.35,789.474 1859.35,789.786 1860.35,789.916 1861.35,789.97 1862.35,1039.15 1863.35,1040.04 1864.35,1040.4 1865.35,1040.55 1866.35,1040.61 1867.35,1063.63 1868.35,1063.9 1869.35,1064.01 1870.36,1064.07 1871.36,1064.09 1872.36,934.777 1873.36,935.236 1874.36,935.432 1875.36,935.516 1876.36,935.553 1877.36,535.146 1878.36,535.813 1879.36,536.07 1880.36,536.168 1881.36,536.206 1882.37,409.645 1883.37,410.227 1884.37,410.471 1885.37,410.573 1886.37,410.616 1887.37,575.382 1888.37,576.444 1889.37,576.863 1890.37,577.029 1891.37,577.095 1892.37,971.18 1893.37,971.29 1894.38,971.336 1895.38,971.355 1896.38,971.363 1897.38,803.854 1898.38,804.145 1899.38,804.266 1900.38,804.316 1901.38,804.336 1902.38,564.729 1903.38,565.058 1904.38,565.188 1905.38,565.24 1906.39,565.26 1907.39,501.289 1908.39,501.779 1909.39,501.973 1910.39,502.05 1911.39,502.08 1912.39,666.342 1913.39,666.669 1914.39,666.798 1915.39,666.849 1916.39,666.869 1917.39,597.455 1918.4,598.16 1919.4,598.445 1920.4,598.561 1921.4,598.608 1922.4,802.332 1923.4,802.556 1924.4,802.647 1925.4,802.684 1926.4,802.699 1927.4,816.925 1928.4,817.445 1929.4,817.651 1930.41,817.732 1931.41,817.765 1932.41,792.52 1933.41,792.852 1934.41,792.986 1935.41,793.039 1936.41,793.061 1937.41,924.733 1938.41,925.484 1939.41,925.807 1940.41,925.946 1941.41,926.006 1942.42,608.524 1943.42,608.668 1944.42,608.723 1945.42,608.745 1946.42,608.754 1947.42,922.877 1948.42,923.094 1949.42,923.182 1950.42,923.217 1951.42,923.232 1952.42,850.524 1953.42,851.137 1954.43,851.392 1955.43,851.499 1956.43,851.543 1957.43,589.475 1958.43,589.641 1959.43,589.706 1960.43,589.731 1961.43,589.741 1962.43,627.256 1963.43,628.5 1964.43,628.996 1965.43,629.194 1966.44,629.272 1967.44,638.401 1968.44,638.592 1969.44,638.666 1970.44,638.695 1971.44,638.706 1972.44,1241.95 1973.44,1242.41 1974.44,1242.6 1975.44,1242.68 1976.44,1242.72 1977.44,882.11 1978.45,882.462 1979.45,882.605 1980.45,882.664 1981.45,882.688 1982.45,491.41 1983.45,491.744 1984.45,491.873 1985.45,491.923 1986.45,491.942 1987.45,825.037 1988.45,825.424 1989.45,825.581 1990.46,825.645 1991.46,825.671 1992.46,924.204 1993.46,925.222 1994.46,925.624 1995.46,925.783 1996.46,925.846 1997.46,675.712 1998.46,675.94 1999.46,676.033 2000.46,676.071 2001.46,676.087 2002.47,754.402 2003.47,754.689 2004.47,754.807 2005.47,754.855 2006.47,754.875 2007.47,923.985 2008.47,924.188 2009.47,924.271 2010.47,924.304 2011.47,924.318 2012.47,864.616 2013.47,864.956 2014.48,865.091 2015.48,865.144 2016.48,865.165 2017.48,1038.47 2018.48,1039.13 2019.48,1039.4 2020.48,1039.51 2021.48,1039.56 2022.48,901.688 2023.48,902.072 2024.48,902.225 2025.48,902.286 2026.49,902.31 2027.49,256.097 2028.49,256.437 2029.49,256.572 2030.49,256.625 2031.49,256.646 2032.49,759.442 2033.49,760.109 2034.49,760.373 2035.49,760.478 2036.49,760.52 2037.49,944.986 2038.5,945.22 2039.5,945.315 2040.5,945.353 2041.5,945.369 2042.5,664.744 2043.5,665.834 2044.5,666.264 2045.5,666.434 2046.5,666.502 2047.5,999.081 2048.5,999.257 2049.5,999.331 2050.51,999.361 2051.51,999.374 2052.51,883.073 2053.51,883.41 2054.51,883.543 2055.51,883.596 2056.51,883.617 2057.51,767.209 2058.51,768.32 2059.51,768.757 2060.51,768.929 2061.51,768.997 2062.52,855.928 2063.52,856.378 2064.52,856.561 2065.52,856.636 2066.52,856.666 2067.52,495.64 2068.52,496.176 2069.52,496.387 2070.52,496.471 2071.52,496.504 2072.52,677.777 2073.52,678.988 2074.53,679.477 2075.53,679.676 2076.53,679.757 2077.53,623.827 2078.53,624.371 2079.53,624.582 2080.53,624.664 2081.53,624.696 2082.53,834.937 2083.53,835.843 2084.53,836.211 2085.53,836.361 2086.54,836.422 2087.54,645.517 2088.54,645.769 2089.54,645.87 2090.54,645.91 2091.54,645.927 2092.54,1063.32 2093.54,1064.29 2094.54,1064.68 2095.54,1064.85 2096.54,1064.92 2097.54,822.678 2098.55,823.226 2099.55,823.441 2100.55,823.526 2101.55,823.559 2102.55,720.401 2103.55,721.09 2104.55,721.361 2105.55,721.469 2106.55,721.511 2107.55,845.645 2108.55,845.913 2109.55,846.02 2110.56,846.063 2111.56,846.081 2112.56,714.975 2113.56,715.128 2114.56,715.189 2115.56,715.214 2116.56,715.224 2117.56,593.396 2118.56,593.819 2119.56,593.986 2120.56,594.052 2121.56,594.078 2122.56,1078.2 2123.57,1078.62 2124.57,1078.8 2125.57,1078.87 2126.57,1078.9 2127.57,992.576 2128.57,993.121 2129.57,993.345 2130.57,993.437 2131.57,993.475 2132.57,225.604 2133.57,225.846 2134.57,225.939 2135.58,225.975 2136.58,225.989 2137.58,803.994 2138.58,804.419 2139.58,804.595 2140.58,804.668 2141.58,804.698 2142.58,809.232 2143.58,809.415 2144.58,809.49 2145.58,809.522 2146.58,809.535 2147.59,639.263 2148.59,640.536 2149.59,641.041 2150.59,641.24 2151.59,641.319 2152.59,1153.42 2153.59,1154.11 2154.59,1154.4 2155.59,1154.52 2156.59,1154.57 2157.59,844.001 2158.59,844.254 2159.6,844.354 2160.6,844.394 2161.6,844.41 2162.6,784.498 2163.6,785.071 2164.6,785.298 2165.6,785.388 2166.6,785.423 2167.6,768.754 2168.6,769.422 2169.6,769.688 2170.6,769.795 2171.61,769.838 2172.61,890.828 2173.61,891.302 2174.61,891.495 2175.61,891.574 2176.61,891.606 2177.61,1006.91 2178.61,1007.07 2179.61,1007.14 2180.61,1007.17 2181.61,1007.18 2182.61,742.294 2183.62,742.994 2184.62,743.27 2185.62,743.379 2186.62,743.422 2187.62,345.091 2188.62,345.365 2189.62,345.47 2190.62,345.51 2191.62,345.525 2192.62,590.926 2193.62,591.027 2194.62,591.067 2195.63,591.082 2196.63,591.088 2197.63,1265.77 2198.63,1266.6 2199.63,1266.93 2200.63,1267.07 2201.63,1267.13 2202.63,733.386 2203.63,733.601 2204.63,733.687 2205.63,733.721 2206.63,733.735 2207.64,576.011 2208.64,577.439 2209.64,578.003 2210.64,578.225 2211.64,578.313 2212.64,979.678 2213.64,979.897 2214.64,979.984 2215.64,980.018 2216.64,980.031 2217.64,997.362 2218.64,997.919 2219.65,998.15 2220.65,998.246 2221.65,998.287 2222.65,645.762 2223.65,646.259 2224.65,646.463 2225.65,646.548 2226.65,646.584 2227.65,668.147 2228.65,668.295 2229.65,668.359 2230.65,668.386 2231.66,668.398 2232.66,742.4 2233.66,743.14 2234.66,743.442 2235.66,743.566 2236.66,743.616 2237.66,774.782 2238.66,775.144 2239.66,775.287 2240.66,775.345 2241.66,775.367 2242.66,1186.35 2243.67,1187.88 2244.67,1188.54 2245.67,1188.82 2246.67,1188.94 2247.67,812.34 2248.67,813.171 2249.67,813.522 2250.67,813.671 2251.67,813.734 2252.67,748.886 2253.67,749.349 2254.67,749.532 2255.68,749.604 2256.68,749.633 2257.68,373.387 2258.68,373.69 2259.68,373.817 2260.68,373.871 2261.68,373.893 2262.68,377.249 2263.68,377.462 2264.68,377.546 2265.68,377.58 2266.68,377.593 2267.69,804.352 2268.69,804.623 2269.69,804.741 2270.69,804.794 2271.69,804.817 2272.69,791.931 2273.69,792.072 2274.69,792.131 2275.69,792.157 2276.69,792.167 2277.69,964.371 2278.69,964.699 2279.7,964.852 2280.7,964.922 2281.7,964.954 2282.7,1041.73 2283.7,1041.85 2284.7,1041.9 2285.7,1041.92 2286.7,1041.93 2287.7,578.099 2288.7,578.617 2289.7,578.83 2290.7,578.918 2291.71,578.954 2292.71,578.969 "/>
<path clip-path="url(#clip840)" d="M301.721 1438.47 L566.328 1438.47 L566.328 1334.79 L301.721 1334.79  Z" fill="#ffffff" fill-rule="evenodd" fill-opacity="1"/>
<polyline clip-path="url(#clip840)" style="stroke:#000000; stroke-linecap:round; stroke-linejoin:round; stroke-width:4; stroke-opacity:1; fill:none" points="301.721,1438.47 566.328,1438.47 566.328,1334.79 301.721,1334.79 301.721,1438.47 "/>
<polyline clip-path="url(#clip840)" style="stroke:#009af9; stroke-linecap:round; stroke-linejoin:round; stroke-width:4; stroke-opacity:1; fill:none" points="325.296,1386.63 466.747,1386.63 "/>
<path clip-path="url(#clip840)" d="M504.165 1406.32 Q502.359 1410.95 500.646 1412.36 Q498.933 1413.78 496.063 1413.78 L492.66 1413.78 L492.66 1410.21 L495.16 1410.21 Q496.919 1410.21 497.892 1409.38 Q498.864 1408.54 500.044 1405.44 L500.808 1403.5 L490.322 1377.99 L494.836 1377.99 L502.938 1398.27 L511.04 1377.99 L515.554 1377.99 L504.165 1406.32 Z" fill="#000000" fill-rule="nonzero" fill-opacity="1" /><path clip-path="url(#clip840)" d="M522.845 1399.98 L530.484 1399.98 L530.484 1373.61 L522.174 1375.28 L522.174 1371.02 L530.438 1369.35 L535.114 1369.35 L535.114 1399.98 L542.752 1399.98 L542.752 1403.91 L522.845 1403.91 L522.845 1399.98 Z" fill="#000000" fill-rule="nonzero" fill-opacity="1" /></svg>
