<?xml version="1.0" encoding="utf-8"?>
<svg xmlns="http://www.w3.org/2000/svg" xmlns:xlink="http://www.w3.org/1999/xlink" width="600" height="400" viewBox="0 0 2400 1600">
<defs>
  <clipPath id="clip750">
    <rect x="0" y="0" width="2400" height="1600"/>
  </clipPath>
</defs>
<path clip-path="url(#clip750)" d="M0 1600 L2400 1600 L2400 0 L0 0  Z" fill="#ffffff" fill-rule="evenodd" fill-opacity="1"/>
<defs>
  <clipPath id="clip751">
    <rect x="480" y="0" width="1681" height="1600"/>
  </clipPath>
</defs>
<path clip-path="url(#clip750)" d="M201.019 1486.45 L2352.76 1486.45 L2352.76 47.2441 L201.019 47.2441  Z" fill="#ffffff" fill-rule="evenodd" fill-opacity="1"/>
<defs>
  <clipPath id="clip752">
    <rect x="201" y="47" width="2153" height="1440"/>
  </clipPath>
</defs>
<polyline clip-path="url(#clip752)" style="stroke:#000000; stroke-linecap:round; stroke-linejoin:round; stroke-width:2; stroke-opacity:0.1; fill:none" points="261.917,1486.45 261.917,47.2441 "/>
<polyline clip-path="url(#clip752)" style="stroke:#000000; stroke-linecap:round; stroke-linejoin:round; stroke-width:2; stroke-opacity:0.1; fill:none" points="667.906,1486.45 667.906,47.2441 "/>
<polyline clip-path="url(#clip752)" style="stroke:#000000; stroke-linecap:round; stroke-linejoin:round; stroke-width:2; stroke-opacity:0.1; fill:none" points="1073.89,1486.45 1073.89,47.2441 "/>
<polyline clip-path="url(#clip752)" style="stroke:#000000; stroke-linecap:round; stroke-linejoin:round; stroke-width:2; stroke-opacity:0.1; fill:none" points="1479.88,1486.45 1479.88,47.2441 "/>
<polyline clip-path="url(#clip752)" style="stroke:#000000; stroke-linecap:round; stroke-linejoin:round; stroke-width:2; stroke-opacity:0.1; fill:none" points="1885.87,1486.45 1885.87,47.2441 "/>
<polyline clip-path="url(#clip752)" style="stroke:#000000; stroke-linecap:round; stroke-linejoin:round; stroke-width:2; stroke-opacity:0.1; fill:none" points="2291.86,1486.45 2291.86,47.2441 "/>
<polyline clip-path="url(#clip750)" style="stroke:#000000; stroke-linecap:round; stroke-linejoin:round; stroke-width:4; stroke-opacity:1; fill:none" points="201.019,1486.45 2352.76,1486.45 "/>
<polyline clip-path="url(#clip750)" style="stroke:#000000; stroke-linecap:round; stroke-linejoin:round; stroke-width:4; stroke-opacity:1; fill:none" points="261.917,1486.45 261.917,1467.55 "/>
<polyline clip-path="url(#clip750)" style="stroke:#000000; stroke-linecap:round; stroke-linejoin:round; stroke-width:4; stroke-opacity:1; fill:none" points="667.906,1486.45 667.906,1467.55 "/>
<polyline clip-path="url(#clip750)" style="stroke:#000000; stroke-linecap:round; stroke-linejoin:round; stroke-width:4; stroke-opacity:1; fill:none" points="1073.89,1486.45 1073.89,1467.55 "/>
<polyline clip-path="url(#clip750)" style="stroke:#000000; stroke-linecap:round; stroke-linejoin:round; stroke-width:4; stroke-opacity:1; fill:none" points="1479.88,1486.45 1479.88,1467.55 "/>
<polyline clip-path="url(#clip750)" style="stroke:#000000; stroke-linecap:round; stroke-linejoin:round; stroke-width:4; stroke-opacity:1; fill:none" points="1885.87,1486.45 1885.87,1467.55 "/>
<polyline clip-path="url(#clip750)" style="stroke:#000000; stroke-linecap:round; stroke-linejoin:round; stroke-width:4; stroke-opacity:1; fill:none" points="2291.86,1486.45 2291.86,1467.55 "/>
<path clip-path="url(#clip750)" d="M261.917 1517.37 Q258.306 1517.37 256.478 1520.93 Q254.672 1524.47 254.672 1531.6 Q254.672 1538.71 256.478 1542.27 Q258.306 1545.82 261.917 1545.82 Q265.552 1545.82 267.357 1542.27 Q269.186 1538.71 269.186 1531.6 Q269.186 1524.47 267.357 1520.93 Q265.552 1517.37 261.917 1517.37 M261.917 1513.66 Q267.728 1513.66 270.783 1518.27 Q273.862 1522.85 273.862 1531.6 Q273.862 1540.33 270.783 1544.94 Q267.728 1549.52 261.917 1549.52 Q256.107 1549.52 253.029 1544.94 Q249.973 1540.33 249.973 1531.6 Q249.973 1522.85 253.029 1518.27 Q256.107 1513.66 261.917 1513.66 Z" fill="#000000" fill-rule="nonzero" fill-opacity="1" /><path clip-path="url(#clip750)" d="M627.512 1544.91 L635.151 1544.91 L635.151 1518.55 L626.841 1520.21 L626.841 1515.95 L635.105 1514.29 L639.781 1514.29 L639.781 1544.91 L647.42 1544.91 L647.42 1548.85 L627.512 1548.85 L627.512 1544.91 Z" fill="#000000" fill-rule="nonzero" fill-opacity="1" /><path clip-path="url(#clip750)" d="M666.864 1517.37 Q663.253 1517.37 661.424 1520.93 Q659.619 1524.47 659.619 1531.6 Q659.619 1538.71 661.424 1542.27 Q663.253 1545.82 666.864 1545.82 Q670.498 1545.82 672.304 1542.27 Q674.132 1538.71 674.132 1531.6 Q674.132 1524.47 672.304 1520.93 Q670.498 1517.37 666.864 1517.37 M666.864 1513.66 Q672.674 1513.66 675.73 1518.27 Q678.808 1522.85 678.808 1531.6 Q678.808 1540.33 675.73 1544.94 Q672.674 1549.52 666.864 1549.52 Q661.054 1549.52 657.975 1544.94 Q654.919 1540.33 654.919 1531.6 Q654.919 1522.85 657.975 1518.27 Q661.054 1513.66 666.864 1513.66 Z" fill="#000000" fill-rule="nonzero" fill-opacity="1" /><path clip-path="url(#clip750)" d="M697.026 1517.37 Q693.415 1517.37 691.586 1520.93 Q689.78 1524.47 689.78 1531.6 Q689.78 1538.71 691.586 1542.27 Q693.415 1545.82 697.026 1545.82 Q700.66 1545.82 702.466 1542.27 Q704.294 1538.71 704.294 1531.6 Q704.294 1524.47 702.466 1520.93 Q700.66 1517.37 697.026 1517.37 M697.026 1513.66 Q702.836 1513.66 705.891 1518.27 Q708.97 1522.85 708.97 1531.6 Q708.97 1540.33 705.891 1544.94 Q702.836 1549.52 697.026 1549.52 Q691.216 1549.52 688.137 1544.94 Q685.081 1540.33 685.081 1531.6 Q685.081 1522.85 688.137 1518.27 Q691.216 1513.66 697.026 1513.66 Z" fill="#000000" fill-rule="nonzero" fill-opacity="1" /><path clip-path="url(#clip750)" d="M1037.59 1544.91 L1053.91 1544.91 L1053.91 1548.85 L1031.96 1548.85 L1031.96 1544.91 Q1034.62 1542.16 1039.21 1537.53 Q1043.81 1532.88 1044.99 1531.53 Q1047.24 1529.01 1048.12 1527.27 Q1049.02 1525.51 1049.02 1523.82 Q1049.02 1521.07 1047.08 1519.33 Q1045.16 1517.6 1042.05 1517.6 Q1039.85 1517.6 1037.4 1518.36 Q1034.97 1519.13 1032.19 1520.68 L1032.19 1515.95 Q1035.02 1514.82 1037.47 1514.24 Q1039.92 1513.66 1041.96 1513.66 Q1047.33 1513.66 1050.53 1516.35 Q1053.72 1519.03 1053.72 1523.52 Q1053.72 1525.65 1052.91 1527.57 Q1052.12 1529.47 1050.02 1532.07 Q1049.44 1532.74 1046.34 1535.95 Q1043.23 1539.15 1037.59 1544.91 Z" fill="#000000" fill-rule="nonzero" fill-opacity="1" /><path clip-path="url(#clip750)" d="M1073.72 1517.37 Q1070.11 1517.37 1068.28 1520.93 Q1066.47 1524.47 1066.47 1531.6 Q1066.47 1538.71 1068.28 1542.27 Q1070.11 1545.82 1073.72 1545.82 Q1077.35 1545.82 1079.16 1542.27 Q1080.99 1538.71 1080.99 1531.6 Q1080.99 1524.47 1079.16 1520.93 Q1077.35 1517.37 1073.72 1517.37 M1073.72 1513.66 Q1079.53 1513.66 1082.59 1518.27 Q1085.66 1522.85 1085.66 1531.6 Q1085.66 1540.33 1082.59 1544.94 Q1079.53 1549.52 1073.72 1549.52 Q1067.91 1549.52 1064.83 1544.94 Q1061.78 1540.33 1061.78 1531.6 Q1061.78 1522.85 1064.83 1518.27 Q1067.91 1513.66 1073.72 1513.66 Z" fill="#000000" fill-rule="nonzero" fill-opacity="1" /><path clip-path="url(#clip750)" d="M1103.88 1517.37 Q1100.27 1517.37 1098.44 1520.93 Q1096.64 1524.47 1096.64 1531.6 Q1096.64 1538.71 1098.44 1542.27 Q1100.27 1545.82 1103.88 1545.82 Q1107.52 1545.82 1109.32 1542.27 Q1111.15 1538.71 1111.15 1531.6 Q1111.15 1524.47 1109.32 1520.93 Q1107.52 1517.37 1103.88 1517.37 M1103.88 1513.66 Q1109.69 1513.66 1112.75 1518.27 Q1115.83 1522.85 1115.83 1531.6 Q1115.83 1540.33 1112.75 1544.94 Q1109.69 1549.52 1103.88 1549.52 Q1098.07 1549.52 1094.99 1544.94 Q1091.94 1540.33 1091.94 1531.6 Q1091.94 1522.85 1094.99 1518.27 Q1098.07 1513.66 1103.88 1513.66 Z" fill="#000000" fill-rule="nonzero" fill-opacity="1" /><path clip-path="url(#clip750)" d="M1453.64 1530.21 Q1457 1530.93 1458.87 1533.2 Q1460.77 1535.47 1460.77 1538.8 Q1460.77 1543.92 1457.25 1546.72 Q1453.74 1549.52 1447.25 1549.52 Q1445.08 1549.52 1442.76 1549.08 Q1440.47 1548.66 1438.02 1547.81 L1438.02 1543.29 Q1439.96 1544.43 1442.28 1545.01 Q1444.59 1545.58 1447.12 1545.58 Q1451.51 1545.58 1453.81 1543.85 Q1456.12 1542.11 1456.12 1538.8 Q1456.12 1535.75 1453.97 1534.03 Q1451.84 1532.3 1448.02 1532.3 L1443.99 1532.3 L1443.99 1528.45 L1448.2 1528.45 Q1451.65 1528.45 1453.48 1527.09 Q1455.31 1525.7 1455.31 1523.11 Q1455.31 1520.45 1453.41 1519.03 Q1451.54 1517.6 1448.02 1517.6 Q1446.1 1517.6 1443.9 1518.01 Q1441.7 1518.43 1439.06 1519.31 L1439.06 1515.14 Q1441.72 1514.4 1444.04 1514.03 Q1446.37 1513.66 1448.44 1513.66 Q1453.76 1513.66 1456.86 1516.09 Q1459.96 1518.5 1459.96 1522.62 Q1459.96 1525.49 1458.32 1527.48 Q1456.68 1529.45 1453.64 1530.21 Z" fill="#000000" fill-rule="nonzero" fill-opacity="1" /><path clip-path="url(#clip750)" d="M1479.64 1517.37 Q1476.03 1517.37 1474.2 1520.93 Q1472.39 1524.47 1472.39 1531.6 Q1472.39 1538.71 1474.2 1542.27 Q1476.03 1545.82 1479.64 1545.82 Q1483.27 1545.82 1485.08 1542.27 Q1486.91 1538.71 1486.91 1531.6 Q1486.91 1524.47 1485.08 1520.93 Q1483.27 1517.37 1479.64 1517.37 M1479.64 1513.66 Q1485.45 1513.66 1488.5 1518.27 Q1491.58 1522.85 1491.58 1531.6 Q1491.58 1540.33 1488.5 1544.94 Q1485.45 1549.52 1479.64 1549.52 Q1473.83 1549.52 1470.75 1544.94 Q1467.69 1540.33 1467.69 1531.6 Q1467.69 1522.85 1470.75 1518.27 Q1473.83 1513.66 1479.64 1513.66 Z" fill="#000000" fill-rule="nonzero" fill-opacity="1" /><path clip-path="url(#clip750)" d="M1509.8 1517.37 Q1506.19 1517.37 1504.36 1520.93 Q1502.56 1524.47 1502.56 1531.6 Q1502.56 1538.71 1504.36 1542.27 Q1506.19 1545.82 1509.8 1545.82 Q1513.43 1545.82 1515.24 1542.27 Q1517.07 1538.71 1517.07 1531.6 Q1517.07 1524.47 1515.24 1520.93 Q1513.43 1517.37 1509.8 1517.37 M1509.8 1513.66 Q1515.61 1513.66 1518.67 1518.27 Q1521.74 1522.85 1521.74 1531.6 Q1521.74 1540.33 1518.67 1544.94 Q1515.61 1549.52 1509.8 1549.52 Q1503.99 1549.52 1500.91 1544.94 Q1497.86 1540.33 1497.86 1531.6 Q1497.86 1522.85 1500.91 1518.27 Q1503.99 1513.66 1509.8 1513.66 Z" fill="#000000" fill-rule="nonzero" fill-opacity="1" /><path clip-path="url(#clip750)" d="M1858.96 1518.36 L1847.15 1536.81 L1858.96 1536.81 L1858.96 1518.36 M1857.73 1514.29 L1863.61 1514.29 L1863.61 1536.81 L1868.54 1536.81 L1868.54 1540.7 L1863.61 1540.7 L1863.61 1548.85 L1858.96 1548.85 L1858.96 1540.7 L1843.36 1540.7 L1843.36 1536.19 L1857.73 1514.29 Z" fill="#000000" fill-rule="nonzero" fill-opacity="1" /><path clip-path="url(#clip750)" d="M1886.27 1517.37 Q1882.66 1517.37 1880.83 1520.93 Q1879.03 1524.47 1879.03 1531.6 Q1879.03 1538.71 1880.83 1542.27 Q1882.66 1545.82 1886.27 1545.82 Q1889.91 1545.82 1891.71 1542.27 Q1893.54 1538.71 1893.54 1531.6 Q1893.54 1524.47 1891.71 1520.93 Q1889.91 1517.37 1886.27 1517.37 M1886.27 1513.66 Q1892.08 1513.66 1895.14 1518.27 Q1898.22 1522.85 1898.22 1531.6 Q1898.22 1540.33 1895.14 1544.94 Q1892.08 1549.52 1886.27 1549.52 Q1880.46 1549.52 1877.39 1544.94 Q1874.33 1540.33 1874.33 1531.6 Q1874.33 1522.85 1877.39 1518.27 Q1880.46 1513.66 1886.27 1513.66 Z" fill="#000000" fill-rule="nonzero" fill-opacity="1" /><path clip-path="url(#clip750)" d="M1916.44 1517.37 Q1912.83 1517.37 1911 1520.93 Q1909.19 1524.47 1909.19 1531.6 Q1909.19 1538.71 1911 1542.27 Q1912.83 1545.82 1916.44 1545.82 Q1920.07 1545.82 1921.88 1542.27 Q1923.71 1538.71 1923.71 1531.6 Q1923.71 1524.47 1921.88 1520.93 Q1920.07 1517.37 1916.44 1517.37 M1916.44 1513.66 Q1922.25 1513.66 1925.3 1518.27 Q1928.38 1522.85 1928.38 1531.6 Q1928.38 1540.33 1925.3 1544.94 Q1922.25 1549.52 1916.44 1549.52 Q1910.63 1549.52 1907.55 1544.94 Q1904.49 1540.33 1904.49 1531.6 Q1904.49 1522.85 1907.55 1518.27 Q1910.63 1513.66 1916.44 1513.66 Z" fill="#000000" fill-rule="nonzero" fill-opacity="1" /><path clip-path="url(#clip750)" d="M2251.48 1514.29 L2269.83 1514.29 L2269.83 1518.22 L2255.76 1518.22 L2255.76 1526.7 Q2256.78 1526.35 2257.8 1526.19 Q2258.81 1526 2259.83 1526 Q2265.62 1526 2269 1529.17 Q2272.38 1532.34 2272.38 1537.76 Q2272.38 1543.34 2268.91 1546.44 Q2265.43 1549.52 2259.11 1549.52 Q2256.94 1549.52 2254.67 1549.15 Q2252.43 1548.78 2250.02 1548.04 L2250.02 1543.34 Q2252.1 1544.47 2254.32 1545.03 Q2256.55 1545.58 2259.02 1545.58 Q2263.03 1545.58 2265.36 1543.48 Q2267.7 1541.37 2267.7 1537.76 Q2267.7 1534.15 2265.36 1532.04 Q2263.03 1529.94 2259.02 1529.94 Q2257.15 1529.94 2255.27 1530.35 Q2253.42 1530.77 2251.48 1531.65 L2251.48 1514.29 Z" fill="#000000" fill-rule="nonzero" fill-opacity="1" /><path clip-path="url(#clip750)" d="M2291.59 1517.37 Q2287.98 1517.37 2286.15 1520.93 Q2284.35 1524.47 2284.35 1531.6 Q2284.35 1538.71 2286.15 1542.27 Q2287.98 1545.82 2291.59 1545.82 Q2295.23 1545.82 2297.03 1542.27 Q2298.86 1538.71 2298.86 1531.6 Q2298.86 1524.47 2297.03 1520.93 Q2295.23 1517.37 2291.59 1517.37 M2291.59 1513.66 Q2297.4 1513.66 2300.46 1518.27 Q2303.54 1522.85 2303.54 1531.6 Q2303.54 1540.33 2300.46 1544.94 Q2297.4 1549.52 2291.59 1549.52 Q2285.78 1549.52 2282.7 1544.94 Q2279.65 1540.33 2279.65 1531.6 Q2279.65 1522.85 2282.7 1518.27 Q2285.78 1513.66 2291.59 1513.66 Z" fill="#000000" fill-rule="nonzero" fill-opacity="1" /><path clip-path="url(#clip750)" d="M2321.75 1517.37 Q2318.14 1517.37 2316.31 1520.93 Q2314.51 1524.47 2314.51 1531.6 Q2314.51 1538.71 2316.31 1542.27 Q2318.14 1545.82 2321.75 1545.82 Q2325.39 1545.82 2327.19 1542.27 Q2329.02 1538.71 2329.02 1531.6 Q2329.02 1524.47 2327.19 1520.93 Q2325.39 1517.37 2321.75 1517.37 M2321.75 1513.66 Q2327.56 1513.66 2330.62 1518.27 Q2333.7 1522.85 2333.7 1531.6 Q2333.7 1540.33 2330.62 1544.94 Q2327.56 1549.52 2321.75 1549.52 Q2315.94 1549.52 2312.86 1544.94 Q2309.81 1540.33 2309.81 1531.6 Q2309.81 1522.85 2312.86 1518.27 Q2315.94 1513.66 2321.75 1513.66 Z" fill="#000000" fill-rule="nonzero" fill-opacity="1" /><polyline clip-path="url(#clip752)" style="stroke:#000000; stroke-linecap:round; stroke-linejoin:round; stroke-width:2; stroke-opacity:0.1; fill:none" points="201.019,1231.9 2352.76,1231.9 "/>
<polyline clip-path="url(#clip752)" style="stroke:#000000; stroke-linecap:round; stroke-linejoin:round; stroke-width:2; stroke-opacity:0.1; fill:none" points="201.019,962.521 2352.76,962.521 "/>
<polyline clip-path="url(#clip752)" style="stroke:#000000; stroke-linecap:round; stroke-linejoin:round; stroke-width:2; stroke-opacity:0.1; fill:none" points="201.019,693.144 2352.76,693.144 "/>
<polyline clip-path="url(#clip752)" style="stroke:#000000; stroke-linecap:round; stroke-linejoin:round; stroke-width:2; stroke-opacity:0.1; fill:none" points="201.019,423.766 2352.76,423.766 "/>
<polyline clip-path="url(#clip752)" style="stroke:#000000; stroke-linecap:round; stroke-linejoin:round; stroke-width:2; stroke-opacity:0.1; fill:none" points="201.019,154.389 2352.76,154.389 "/>
<polyline clip-path="url(#clip750)" style="stroke:#000000; stroke-linecap:round; stroke-linejoin:round; stroke-width:4; stroke-opacity:1; fill:none" points="201.019,1486.45 201.019,47.2441 "/>
<polyline clip-path="url(#clip750)" style="stroke:#000000; stroke-linecap:round; stroke-linejoin:round; stroke-width:4; stroke-opacity:1; fill:none" points="201.019,1231.9 219.917,1231.9 "/>
<polyline clip-path="url(#clip750)" style="stroke:#000000; stroke-linecap:round; stroke-linejoin:round; stroke-width:4; stroke-opacity:1; fill:none" points="201.019,962.521 219.917,962.521 "/>
<polyline clip-path="url(#clip750)" style="stroke:#000000; stroke-linecap:round; stroke-linejoin:round; stroke-width:4; stroke-opacity:1; fill:none" points="201.019,693.144 219.917,693.144 "/>
<polyline clip-path="url(#clip750)" style="stroke:#000000; stroke-linecap:round; stroke-linejoin:round; stroke-width:4; stroke-opacity:1; fill:none" points="201.019,423.766 219.917,423.766 "/>
<polyline clip-path="url(#clip750)" style="stroke:#000000; stroke-linecap:round; stroke-linejoin:round; stroke-width:4; stroke-opacity:1; fill:none" points="201.019,154.389 219.917,154.389 "/>
<path clip-path="url(#clip750)" d="M56.6171 1245.24 L72.9365 1245.24 L72.9365 1249.18 L50.9921 1249.18 L50.9921 1245.24 Q53.6541 1242.49 58.2375 1237.86 Q62.8439 1233.21 64.0245 1231.86 Q66.2698 1229.34 67.1494 1227.6 Q68.0522 1225.85 68.0522 1224.16 Q68.0522 1221.4 66.1078 1219.67 Q64.1865 1217.93 61.0847 1217.93 Q58.8856 1217.93 56.4319 1218.69 Q54.0014 1219.46 51.2236 1221.01 L51.2236 1216.29 Q54.0477 1215.15 56.5014 1214.57 Q58.955 1213.99 60.9921 1213.99 Q66.3624 1213.99 69.5568 1216.68 Q72.7513 1219.36 72.7513 1223.85 Q72.7513 1225.98 71.9411 1227.91 Q71.1541 1229.8 69.0476 1232.4 Q68.4689 1233.07 65.367 1236.29 Q62.2652 1239.48 56.6171 1245.24 Z" fill="#000000" fill-rule="nonzero" fill-opacity="1" /><path clip-path="url(#clip750)" d="M92.7512 1232.77 Q89.4178 1232.77 87.4966 1234.55 Q85.5984 1236.33 85.5984 1239.46 Q85.5984 1242.58 87.4966 1244.36 Q89.4178 1246.15 92.7512 1246.15 Q96.0845 1246.15 98.0058 1244.36 Q99.927 1242.56 99.927 1239.46 Q99.927 1236.33 98.0058 1234.55 Q96.1076 1232.77 92.7512 1232.77 M88.0753 1230.78 Q85.066 1230.04 83.3762 1227.98 Q81.7096 1225.92 81.7096 1222.95 Q81.7096 1218.81 84.6494 1216.4 Q87.6123 1213.99 92.7512 1213.99 Q97.9132 1213.99 100.853 1216.4 Q103.793 1218.81 103.793 1222.95 Q103.793 1225.92 102.103 1227.98 Q100.436 1230.04 97.4502 1230.78 Q100.83 1231.56 102.705 1233.85 Q104.603 1236.15 104.603 1239.46 Q104.603 1244.48 101.524 1247.17 Q98.4687 1249.85 92.7512 1249.85 Q87.0336 1249.85 83.9549 1247.17 Q80.8994 1244.48 80.8994 1239.46 Q80.8994 1236.15 82.7975 1233.85 Q84.6956 1231.56 88.0753 1230.78 M86.3623 1223.39 Q86.3623 1226.08 88.029 1227.58 Q89.7188 1229.09 92.7512 1229.09 Q95.7604 1229.09 97.4502 1227.58 Q99.1632 1226.08 99.1632 1223.39 Q99.1632 1220.71 97.4502 1219.2 Q95.7604 1217.7 92.7512 1217.7 Q89.7188 1217.7 88.029 1219.2 Q86.3623 1220.71 86.3623 1223.39 Z" fill="#000000" fill-rule="nonzero" fill-opacity="1" /><path clip-path="url(#clip750)" d="M116.941 1245.24 L133.26 1245.24 L133.26 1249.18 L111.316 1249.18 L111.316 1245.24 Q113.978 1242.49 118.561 1237.86 Q123.168 1233.21 124.348 1231.86 Q126.594 1229.34 127.473 1227.6 Q128.376 1225.85 128.376 1224.16 Q128.376 1221.4 126.432 1219.67 Q124.51 1217.93 121.408 1217.93 Q119.209 1217.93 116.756 1218.69 Q114.325 1219.46 111.547 1221.01 L111.547 1216.29 Q114.371 1215.15 116.825 1214.57 Q119.279 1213.99 121.316 1213.99 Q126.686 1213.99 129.881 1216.68 Q133.075 1219.36 133.075 1223.85 Q133.075 1225.98 132.265 1227.91 Q131.478 1229.8 129.371 1232.4 Q128.793 1233.07 125.691 1236.29 Q122.589 1239.48 116.941 1245.24 Z" fill="#000000" fill-rule="nonzero" fill-opacity="1" /><path clip-path="url(#clip750)" d="M153.075 1217.7 Q149.464 1217.7 147.635 1221.26 Q145.83 1224.8 145.83 1231.93 Q145.83 1239.04 147.635 1242.6 Q149.464 1246.15 153.075 1246.15 Q156.709 1246.15 158.515 1242.6 Q160.343 1239.04 160.343 1231.93 Q160.343 1224.8 158.515 1221.26 Q156.709 1217.7 153.075 1217.7 M153.075 1213.99 Q158.885 1213.99 161.941 1218.6 Q165.019 1223.18 165.019 1231.93 Q165.019 1240.66 161.941 1245.27 Q158.885 1249.85 153.075 1249.85 Q147.265 1249.85 144.186 1245.27 Q141.131 1240.66 141.131 1231.93 Q141.131 1223.18 144.186 1218.6 Q147.265 1213.99 153.075 1213.99 Z" fill="#000000" fill-rule="nonzero" fill-opacity="1" /><path clip-path="url(#clip750)" d="M56.6171 975.866 L72.9365 975.866 L72.9365 979.801 L50.9921 979.801 L50.9921 975.866 Q53.6541 973.112 58.2375 968.482 Q62.8439 963.829 64.0245 962.487 Q66.2698 959.964 67.1494 958.227 Q68.0522 956.468 68.0522 954.778 Q68.0522 952.024 66.1078 950.288 Q64.1865 948.552 61.0847 948.552 Q58.8856 948.552 56.4319 949.315 Q54.0014 950.079 51.2236 951.63 L51.2236 946.908 Q54.0477 945.774 56.5014 945.195 Q58.955 944.616 60.9921 944.616 Q66.3624 944.616 69.5568 947.302 Q72.7513 949.987 72.7513 954.477 Q72.7513 956.607 71.9411 958.528 Q71.1541 960.426 69.0476 963.019 Q68.4689 963.69 65.367 966.908 Q62.2652 970.102 56.6171 975.866 Z" fill="#000000" fill-rule="nonzero" fill-opacity="1" /><path clip-path="url(#clip750)" d="M92.7512 963.389 Q89.4178 963.389 87.4966 965.172 Q85.5984 966.954 85.5984 970.079 Q85.5984 973.204 87.4966 974.987 Q89.4178 976.769 92.7512 976.769 Q96.0845 976.769 98.0058 974.987 Q99.927 973.181 99.927 970.079 Q99.927 966.954 98.0058 965.172 Q96.1076 963.389 92.7512 963.389 M88.0753 961.399 Q85.066 960.658 83.3762 958.598 Q81.7096 956.538 81.7096 953.575 Q81.7096 949.431 84.6494 947.024 Q87.6123 944.616 92.7512 944.616 Q97.9132 944.616 100.853 947.024 Q103.793 949.431 103.793 953.575 Q103.793 956.538 102.103 958.598 Q100.436 960.658 97.4502 961.399 Q100.83 962.186 102.705 964.477 Q104.603 966.769 104.603 970.079 Q104.603 975.102 101.524 977.788 Q98.4687 980.473 92.7512 980.473 Q87.0336 980.473 83.9549 977.788 Q80.8994 975.102 80.8994 970.079 Q80.8994 966.769 82.7975 964.477 Q84.6956 962.186 88.0753 961.399 M86.3623 954.014 Q86.3623 956.7 88.029 958.204 Q89.7188 959.709 92.7512 959.709 Q95.7604 959.709 97.4502 958.204 Q99.1632 956.7 99.1632 954.014 Q99.1632 951.329 97.4502 949.825 Q95.7604 948.32 92.7512 948.32 Q89.7188 948.32 88.029 949.825 Q86.3623 951.329 86.3623 954.014 Z" fill="#000000" fill-rule="nonzero" fill-opacity="1" /><path clip-path="url(#clip750)" d="M125.76 949.315 L113.955 967.764 L125.76 967.764 L125.76 949.315 M124.533 945.241 L130.413 945.241 L130.413 967.764 L135.344 967.764 L135.344 971.653 L130.413 971.653 L130.413 979.801 L125.76 979.801 L125.76 971.653 L110.158 971.653 L110.158 967.139 L124.533 945.241 Z" fill="#000000" fill-rule="nonzero" fill-opacity="1" /><path clip-path="url(#clip750)" d="M153.075 948.32 Q149.464 948.32 147.635 951.885 Q145.83 955.427 145.83 962.556 Q145.83 969.663 147.635 973.227 Q149.464 976.769 153.075 976.769 Q156.709 976.769 158.515 973.227 Q160.343 969.663 160.343 962.556 Q160.343 955.427 158.515 951.885 Q156.709 948.32 153.075 948.32 M153.075 944.616 Q158.885 944.616 161.941 949.223 Q165.019 953.806 165.019 962.556 Q165.019 971.283 161.941 975.889 Q158.885 980.473 153.075 980.473 Q147.265 980.473 144.186 975.889 Q141.131 971.283 141.131 962.556 Q141.131 953.806 144.186 949.223 Q147.265 944.616 153.075 944.616 Z" fill="#000000" fill-rule="nonzero" fill-opacity="1" /><path clip-path="url(#clip750)" d="M56.6171 706.489 L72.9365 706.489 L72.9365 710.424 L50.9921 710.424 L50.9921 706.489 Q53.6541 703.734 58.2375 699.105 Q62.8439 694.452 64.0245 693.109 Q66.2698 690.586 67.1494 688.85 Q68.0522 687.091 68.0522 685.401 Q68.0522 682.646 66.1078 680.91 Q64.1865 679.174 61.0847 679.174 Q58.8856 679.174 56.4319 679.938 Q54.0014 680.702 51.2236 682.253 L51.2236 677.531 Q54.0477 676.396 56.5014 675.818 Q58.955 675.239 60.9921 675.239 Q66.3624 675.239 69.5568 677.924 Q72.7513 680.609 72.7513 685.1 Q72.7513 687.23 71.9411 689.151 Q71.1541 691.049 69.0476 693.642 Q68.4689 694.313 65.367 697.53 Q62.2652 700.725 56.6171 706.489 Z" fill="#000000" fill-rule="nonzero" fill-opacity="1" /><path clip-path="url(#clip750)" d="M92.7512 694.012 Q89.4178 694.012 87.4966 695.794 Q85.5984 697.577 85.5984 700.702 Q85.5984 703.827 87.4966 705.609 Q89.4178 707.391 92.7512 707.391 Q96.0845 707.391 98.0058 705.609 Q99.927 703.804 99.927 700.702 Q99.927 697.577 98.0058 695.794 Q96.1076 694.012 92.7512 694.012 M88.0753 692.021 Q85.066 691.28 83.3762 689.22 Q81.7096 687.16 81.7096 684.197 Q81.7096 680.054 84.6494 677.646 Q87.6123 675.239 92.7512 675.239 Q97.9132 675.239 100.853 677.646 Q103.793 680.054 103.793 684.197 Q103.793 687.16 102.103 689.22 Q100.436 691.28 97.4502 692.021 Q100.83 692.808 102.705 695.1 Q104.603 697.392 104.603 700.702 Q104.603 705.725 101.524 708.41 Q98.4687 711.095 92.7512 711.095 Q87.0336 711.095 83.9549 708.41 Q80.8994 705.725 80.8994 700.702 Q80.8994 697.392 82.7975 695.1 Q84.6956 692.808 88.0753 692.021 M86.3623 684.637 Q86.3623 687.322 88.029 688.827 Q89.7188 690.331 92.7512 690.331 Q95.7604 690.331 97.4502 688.827 Q99.1632 687.322 99.1632 684.637 Q99.1632 681.952 97.4502 680.447 Q95.7604 678.943 92.7512 678.943 Q89.7188 678.943 88.029 680.447 Q86.3623 681.952 86.3623 684.637 Z" fill="#000000" fill-rule="nonzero" fill-opacity="1" /><path clip-path="url(#clip750)" d="M123.492 691.28 Q120.344 691.28 118.492 693.433 Q116.663 695.586 116.663 699.336 Q116.663 703.063 118.492 705.239 Q120.344 707.391 123.492 707.391 Q126.64 707.391 128.469 705.239 Q130.32 703.063 130.32 699.336 Q130.32 695.586 128.469 693.433 Q126.64 691.28 123.492 691.28 M132.774 676.628 L132.774 680.887 Q131.015 680.054 129.209 679.614 Q127.427 679.174 125.668 679.174 Q121.038 679.174 118.584 682.299 Q116.154 685.424 115.807 691.743 Q117.172 689.73 119.233 688.665 Q121.293 687.577 123.77 687.577 Q128.978 687.577 131.987 690.748 Q135.019 693.896 135.019 699.336 Q135.019 704.66 131.871 707.878 Q128.723 711.095 123.492 711.095 Q117.496 711.095 114.325 706.512 Q111.154 701.905 111.154 693.179 Q111.154 684.984 115.043 680.123 Q118.932 675.239 125.482 675.239 Q127.242 675.239 129.024 675.586 Q130.83 675.933 132.774 676.628 Z" fill="#000000" fill-rule="nonzero" fill-opacity="1" /><path clip-path="url(#clip750)" d="M153.075 678.943 Q149.464 678.943 147.635 682.507 Q145.83 686.049 145.83 693.179 Q145.83 700.285 147.635 703.85 Q149.464 707.391 153.075 707.391 Q156.709 707.391 158.515 703.85 Q160.343 700.285 160.343 693.179 Q160.343 686.049 158.515 682.507 Q156.709 678.943 153.075 678.943 M153.075 675.239 Q158.885 675.239 161.941 679.845 Q165.019 684.429 165.019 693.179 Q165.019 701.905 161.941 706.512 Q158.885 711.095 153.075 711.095 Q147.265 711.095 144.186 706.512 Q141.131 701.905 141.131 693.179 Q141.131 684.429 144.186 679.845 Q147.265 675.239 153.075 675.239 Z" fill="#000000" fill-rule="nonzero" fill-opacity="1" /><path clip-path="url(#clip750)" d="M56.6171 437.111 L72.9365 437.111 L72.9365 441.046 L50.9921 441.046 L50.9921 437.111 Q53.6541 434.357 58.2375 429.727 Q62.8439 425.074 64.0245 423.732 Q66.2698 421.209 67.1494 419.472 Q68.0522 417.713 68.0522 416.023 Q68.0522 413.269 66.1078 411.533 Q64.1865 409.797 61.0847 409.797 Q58.8856 409.797 56.4319 410.56 Q54.0014 411.324 51.2236 412.875 L51.2236 408.153 Q54.0477 407.019 56.5014 406.44 Q58.955 405.861 60.9921 405.861 Q66.3624 405.861 69.5568 408.547 Q72.7513 411.232 72.7513 415.722 Q72.7513 417.852 71.9411 419.773 Q71.1541 421.671 69.0476 424.264 Q68.4689 424.935 65.367 428.153 Q62.2652 431.347 56.6171 437.111 Z" fill="#000000" fill-rule="nonzero" fill-opacity="1" /><path clip-path="url(#clip750)" d="M92.7512 424.634 Q89.4178 424.634 87.4966 426.417 Q85.5984 428.199 85.5984 431.324 Q85.5984 434.449 87.4966 436.232 Q89.4178 438.014 92.7512 438.014 Q96.0845 438.014 98.0058 436.232 Q99.927 434.426 99.927 431.324 Q99.927 428.199 98.0058 426.417 Q96.1076 424.634 92.7512 424.634 M88.0753 422.644 Q85.066 421.903 83.3762 419.843 Q81.7096 417.783 81.7096 414.82 Q81.7096 410.676 84.6494 408.269 Q87.6123 405.861 92.7512 405.861 Q97.9132 405.861 100.853 408.269 Q103.793 410.676 103.793 414.82 Q103.793 417.783 102.103 419.843 Q100.436 421.903 97.4502 422.644 Q100.83 423.431 102.705 425.722 Q104.603 428.014 104.603 431.324 Q104.603 436.347 101.524 439.033 Q98.4687 441.718 92.7512 441.718 Q87.0336 441.718 83.9549 439.033 Q80.8994 436.347 80.8994 431.324 Q80.8994 428.014 82.7975 425.722 Q84.6956 423.431 88.0753 422.644 M86.3623 415.259 Q86.3623 417.945 88.029 419.449 Q89.7188 420.954 92.7512 420.954 Q95.7604 420.954 97.4502 419.449 Q99.1632 417.945 99.1632 415.259 Q99.1632 412.574 97.4502 411.07 Q95.7604 409.565 92.7512 409.565 Q89.7188 409.565 88.029 411.07 Q86.3623 412.574 86.3623 415.259 Z" fill="#000000" fill-rule="nonzero" fill-opacity="1" /><path clip-path="url(#clip750)" d="M122.913 424.634 Q119.58 424.634 117.658 426.417 Q115.76 428.199 115.76 431.324 Q115.76 434.449 117.658 436.232 Q119.58 438.014 122.913 438.014 Q126.246 438.014 128.168 436.232 Q130.089 434.426 130.089 431.324 Q130.089 428.199 128.168 426.417 Q126.27 424.634 122.913 424.634 M118.237 422.644 Q115.228 421.903 113.538 419.843 Q111.871 417.783 111.871 414.82 Q111.871 410.676 114.811 408.269 Q117.774 405.861 122.913 405.861 Q128.075 405.861 131.015 408.269 Q133.955 410.676 133.955 414.82 Q133.955 417.783 132.265 419.843 Q130.598 421.903 127.612 422.644 Q130.992 423.431 132.867 425.722 Q134.765 428.014 134.765 431.324 Q134.765 436.347 131.686 439.033 Q128.631 441.718 122.913 441.718 Q117.195 441.718 114.117 439.033 Q111.061 436.347 111.061 431.324 Q111.061 428.014 112.959 425.722 Q114.858 423.431 118.237 422.644 M116.524 415.259 Q116.524 417.945 118.191 419.449 Q119.881 420.954 122.913 420.954 Q125.922 420.954 127.612 419.449 Q129.325 417.945 129.325 415.259 Q129.325 412.574 127.612 411.07 Q125.922 409.565 122.913 409.565 Q119.881 409.565 118.191 411.07 Q116.524 412.574 116.524 415.259 Z" fill="#000000" fill-rule="nonzero" fill-opacity="1" /><path clip-path="url(#clip750)" d="M153.075 409.565 Q149.464 409.565 147.635 413.13 Q145.83 416.672 145.83 423.801 Q145.83 430.908 147.635 434.472 Q149.464 438.014 153.075 438.014 Q156.709 438.014 158.515 434.472 Q160.343 430.908 160.343 423.801 Q160.343 416.672 158.515 413.13 Q156.709 409.565 153.075 409.565 M153.075 405.861 Q158.885 405.861 161.941 410.468 Q165.019 415.051 165.019 423.801 Q165.019 432.528 161.941 437.134 Q158.885 441.718 153.075 441.718 Q147.265 441.718 144.186 437.134 Q141.131 432.528 141.131 423.801 Q141.131 415.051 144.186 410.468 Q147.265 405.861 153.075 405.861 Z" fill="#000000" fill-rule="nonzero" fill-opacity="1" /><path clip-path="url(#clip750)" d="M56.6171 167.734 L72.9365 167.734 L72.9365 171.669 L50.9921 171.669 L50.9921 167.734 Q53.6541 164.979 58.2375 160.349 Q62.8439 155.697 64.0245 154.354 Q66.2698 151.831 67.1494 150.095 Q68.0522 148.336 68.0522 146.646 Q68.0522 143.891 66.1078 142.155 Q64.1865 140.419 61.0847 140.419 Q58.8856 140.419 56.4319 141.183 Q54.0014 141.947 51.2236 143.498 L51.2236 138.776 Q54.0477 137.641 56.5014 137.063 Q58.955 136.484 60.9921 136.484 Q66.3624 136.484 69.5568 139.169 Q72.7513 141.854 72.7513 146.345 Q72.7513 148.475 71.9411 150.396 Q71.1541 152.294 69.0476 154.887 Q68.4689 155.558 65.367 158.775 Q62.2652 161.97 56.6171 167.734 Z" fill="#000000" fill-rule="nonzero" fill-opacity="1" /><path clip-path="url(#clip750)" d="M82.8901 170.951 L82.8901 166.692 Q84.6494 167.525 86.4549 167.965 Q88.2604 168.405 89.9965 168.405 Q94.6262 168.405 97.0567 165.303 Q99.5104 162.178 99.8576 155.836 Q98.515 157.826 96.4548 158.891 Q94.3947 159.956 91.8947 159.956 Q86.7095 159.956 83.6771 156.831 Q80.6679 153.683 80.6679 148.243 Q80.6679 142.919 83.816 139.701 Q86.9642 136.484 92.1956 136.484 Q98.1909 136.484 101.339 141.09 Q104.51 145.674 104.51 154.424 Q104.51 162.595 100.621 167.479 Q96.7558 172.34 90.2049 172.34 Q88.4456 172.34 86.6401 171.993 Q84.8345 171.646 82.8901 170.951 M92.1956 156.299 Q95.3437 156.299 97.1724 154.146 Q99.0243 151.993 99.0243 148.243 Q99.0243 144.516 97.1724 142.363 Q95.3437 140.188 92.1956 140.188 Q89.0475 140.188 87.1956 142.363 Q85.3669 144.516 85.3669 148.243 Q85.3669 151.993 87.1956 154.146 Q89.0475 156.299 92.1956 156.299 Z" fill="#000000" fill-rule="nonzero" fill-opacity="1" /><path clip-path="url(#clip750)" d="M122.913 140.188 Q119.302 140.188 117.473 143.752 Q115.668 147.294 115.668 154.424 Q115.668 161.53 117.473 165.095 Q119.302 168.636 122.913 168.636 Q126.547 168.636 128.353 165.095 Q130.182 161.53 130.182 154.424 Q130.182 147.294 128.353 143.752 Q126.547 140.188 122.913 140.188 M122.913 136.484 Q128.723 136.484 131.779 141.09 Q134.857 145.674 134.857 154.424 Q134.857 163.15 131.779 167.757 Q128.723 172.34 122.913 172.34 Q117.103 172.34 114.024 167.757 Q110.969 163.15 110.969 154.424 Q110.969 145.674 114.024 141.09 Q117.103 136.484 122.913 136.484 Z" fill="#000000" fill-rule="nonzero" fill-opacity="1" /><path clip-path="url(#clip750)" d="M153.075 140.188 Q149.464 140.188 147.635 143.752 Q145.83 147.294 145.83 154.424 Q145.83 161.53 147.635 165.095 Q149.464 168.636 153.075 168.636 Q156.709 168.636 158.515 165.095 Q160.343 161.53 160.343 154.424 Q160.343 147.294 158.515 143.752 Q156.709 140.188 153.075 140.188 M153.075 136.484 Q158.885 136.484 161.941 141.09 Q165.019 145.674 165.019 154.424 Q165.019 163.15 161.941 167.757 Q158.885 172.34 153.075 172.34 Q147.265 172.34 144.186 167.757 Q141.131 163.15 141.131 154.424 Q141.131 145.674 144.186 141.09 Q147.265 136.484 153.075 136.484 Z" fill="#000000" fill-rule="nonzero" fill-opacity="1" /><polyline clip-path="url(#clip752)" style="stroke:#009af9; stroke-linecap:round; stroke-linejoin:round; stroke-width:4; stroke-opacity:1; fill:none" points="261.917,694.15 265.977,694.696 270.037,695.212 274.097,695.699 278.157,696.159 282.217,696.594 286.277,697.007 290.337,697.397 294.397,697.768 298.456,698.12 302.516,674.457 306.576,674.544 310.636,674.626 314.696,674.704 318.756,674.777 322.816,674.846 326.876,674.912 330.935,674.974 334.995,675.033 339.055,675.089 343.115,311.48 347.175,311.879 351.235,312.268 355.295,312.646 359.355,313.015 363.415,313.373 367.474,313.722 371.534,314.063 375.594,314.394 379.654,314.717 383.714,508.357 387.774,508.728 391.834,509.091 395.894,509.446 399.953,509.793 404.013,510.132 408.073,510.464 412.133,510.789 416.193,511.107 420.253,511.418 424.313,87.9763 428.373,89.4895 432.432,90.9253 436.492,92.2887 440.552,93.5844 444.612,94.8165 448.672,95.989 452.732,97.1056 456.792,98.1698 460.852,99.1847 464.912,1082.85 468.971,1083.65 473.031,1084.43 477.091,1085.19 481.151,1085.93 485.211,1086.65 489.271,1087.36 493.331,1088.05 497.391,1088.73 501.45,1089.39 505.51,711.32 509.57,711.429 513.63,711.535 517.69,711.639 521.75,711.74 525.81,711.838 529.87,711.933 533.929,712.027 537.989,712.117 542.049,712.206 546.109,778.537 550.169,778.904 554.229,779.258 558.289,779.6 562.349,779.931 566.409,780.25 570.468,780.56 574.528,780.859 578.588,781.149 582.648,781.429 586.708,540.957 590.768,541.143 594.828,541.317 598.888,541.482 602.947,541.636 607.007,541.781 611.067,541.918 615.127,542.047 619.187,542.169 623.247,542.284 627.307,927.555 631.367,927.726 635.426,927.894 639.486,928.057 643.546,928.217 647.606,928.372 651.666,928.524 655.726,928.673 659.786,928.817 663.846,928.959 667.906,565.893 671.965,565.901 676.025,565.909 680.085,565.917 684.145,565.925 688.205,565.932 692.265,565.939 696.325,565.946 700.385,565.953 704.444,565.96 708.504,595.384 712.564,595.541 716.624,595.695 720.684,595.846 724.744,595.994 728.804,596.14 732.864,596.282 736.924,596.422 740.983,596.56 745.043,596.695 749.103,640.386 753.163,640.875 757.223,641.34 761.283,641.784 765.343,642.208 769.403,642.612 773.462,642.999 777.522,643.369 781.582,643.723 785.642,644.063 789.702,515.847 793.762,515.933 797.822,516.017 801.882,516.099 805.941,516.18 810.001,516.258 814.061,516.335 818.121,516.411 822.181,516.485 826.241,516.557 830.301,667.59 834.361,667.69 838.421,667.788 842.48,667.884 846.54,667.979 850.6,668.071 854.66,668.162 858.72,668.251 862.78,668.338 866.84,668.423 870.9,619.305 874.959,620.018 879.019,620.68 883.079,621.294 887.139,621.863 891.199,622.391 895.259,622.881 899.319,623.336 903.379,623.758 907.438,624.15 911.498,961.783 915.558,962.224 919.618,962.643 923.678,963.041 927.738,963.421 931.798,963.783 935.858,964.128 939.918,964.457 943.977,964.772 948.037,965.073 952.097,688.167 956.157,688.675 960.217,689.169 964.277,689.65 968.337,690.119 972.397,690.577 976.456,691.023 980.516,691.458 984.576,691.883 988.636,692.298 992.696,340.412 996.756,341.348 1000.82,342.235 1004.88,343.076 1008.94,343.873 1013,344.631 1017.06,345.352 1021.12,346.037 1025.18,346.69 1029.23,347.313 1033.29,415.639 1037.35,415.75 1041.41,415.857 1045.47,415.961 1049.53,416.062 1053.59,416.159 1057.65,416.254 1061.71,416.345 1065.77,416.434 1069.83,416.52 1073.89,448.299 1077.95,449.227 1082.01,450.093 1086.07,450.901 1090.13,451.656 1094.19,452.362 1098.25,453.021 1102.31,453.637 1106.37,454.214 1110.43,454.754 1114.49,536.851 1118.55,537.316 1122.61,537.756 1126.67,538.174 1130.73,538.571 1134.79,538.948 1138.85,539.307 1142.91,539.648 1146.97,539.973 1151.03,540.283 1155.09,117.499 1159.15,118.185 1163.21,118.85 1167.27,119.494 1171.33,120.119 1175.39,120.725 1179.45,121.314 1183.51,121.885 1187.57,122.439 1191.63,122.978 1195.69,702.158 1199.75,703.117 1203.81,704.007 1207.87,704.832 1211.93,705.597 1215.99,706.306 1220.05,706.964 1224.11,707.574 1228.17,708.14 1232.23,708.666 1236.29,352.458 1240.35,352.636 1244.41,352.811 1248.47,352.983 1252.53,353.152 1256.59,353.318 1260.65,353.481 1264.71,353.642 1268.77,353.8 1272.83,353.956 1276.89,897.255 1280.95,900.07 1285.01,902.697 1289.07,905.151 1293.13,907.443 1297.19,909.585 1301.25,911.588 1305.31,913.46 1309.37,915.211 1313.43,916.85 1317.49,501.921 1321.55,502.28 1325.61,502.618 1329.67,502.934 1333.73,503.232 1337.79,503.512 1341.85,503.775 1345.91,504.023 1349.97,504.257 1354.03,504.477 1358.09,909.117 1362.15,909.559 1366.2,909.983 1370.26,910.389 1374.32,910.779 1378.38,911.154 1382.44,911.513 1386.5,911.859 1390.56,912.192 1394.62,912.512 1398.68,607.621 1402.74,608.019 1406.8,608.395 1410.86,608.75 1414.92,609.085 1418.98,609.402 1423.04,609.701 1427.1,609.984 1431.16,610.253 1435.22,610.507 1439.28,380.364 1443.34,380.62 1447.4,380.862 1451.46,381.091 1455.52,381.309 1459.58,381.516 1463.64,381.712 1467.7,381.899 1471.76,382.076 1475.82,382.245 1479.88,609.292 1483.94,609.792 1488,610.263 1492.06,610.706 1496.12,611.125 1500.18,611.519 1504.24,611.891 1508.3,612.243 1512.36,612.576 1516.42,612.891 1520.48,786.901 1524.54,788.122 1528.6,789.256 1532.66,790.31 1536.72,791.29 1540.78,792.201 1544.84,793.049 1548.9,793.837 1552.96,794.57 1557.02,795.252 1561.08,461.307 1565.14,461.5 1569.2,461.687 1573.26,461.868 1577.32,462.045 1581.38,462.217 1585.44,462.384 1589.5,462.547 1593.56,462.706 1597.62,462.86 1601.68,1257.29 1605.74,1258.27 1609.8,1259.22 1613.86,1260.14 1617.92,1261.04 1621.98,1261.91 1626.04,1262.76 1630.1,1263.58 1634.16,1264.39 1638.22,1265.17 1642.28,1434.11 1646.34,1435.55 1650.4,1436.95 1654.46,1438.3 1658.52,1439.63 1662.58,1440.91 1666.64,1442.16 1670.7,1443.38 1674.76,1444.56 1678.82,1445.72 1682.88,758.018 1686.94,758.15 1691,758.272 1695.06,758.386 1699.12,758.493 1703.18,758.592 1707.23,758.685 1711.29,758.771 1715.35,758.851 1719.41,758.927 1723.47,1121.87 1727.53,1122.6 1731.59,1123.3 1735.65,1123.96 1739.71,1124.58 1743.77,1125.17 1747.83,1125.73 1751.89,1126.26 1755.95,1126.76 1760.01,1127.24 1764.07,529.337 1768.13,529.9 1772.19,530.432 1776.25,530.936 1780.31,531.413 1784.37,531.866 1788.43,532.295 1792.49,532.703 1796.55,533.091 1800.61,533.459 1804.67,963.255 1808.73,963.664 1812.79,964.047 1816.85,964.408 1820.91,964.746 1824.97,965.064 1829.03,965.364 1833.09,965.645 1837.15,965.911 1841.21,966.161 1845.27,694.573 1849.33,694.669 1853.39,694.763 1857.45,694.855 1861.51,694.944 1865.57,695.031 1869.63,695.115 1873.69,695.198 1877.75,695.278 1881.81,695.356 1885.87,344.76 1889.93,345.204 1893.99,345.636 1898.05,346.056 1902.11,346.466 1906.17,346.865 1910.23,347.253 1914.29,347.632 1918.35,348 1922.41,348.359 1926.47,530.931 1930.53,533.79 1934.59,536.467 1938.65,538.975 1942.71,541.325 1946.77,543.53 1950.83,545.598 1954.89,547.541 1958.95,549.366 1963.01,551.082 1967.07,1215.18 1971.13,1215.79 1975.19,1216.38 1979.25,1216.96 1983.31,1217.53 1987.37,1218.08 1991.43,1218.62 1995.49,1219.15 1999.55,1219.67 2003.61,1220.17 2007.67,967.516 2011.73,967.619 2015.79,967.719 2019.85,967.816 2023.91,967.911 2027.97,968.004 2032.03,968.094 2036.09,968.182 2040.15,968.268 2044.2,968.352 2048.26,705.149 2052.32,705.35 2056.38,705.547 2060.44,705.741 2064.5,705.931 2068.56,706.119 2072.62,706.303 2076.68,706.485 2080.74,706.664 2084.8,706.84 2088.86,906.865 2092.92,907.305 2096.98,907.715 2101.04,908.096 2105.1,908.451 2109.16,908.781 2113.22,909.089 2117.28,909.375 2121.34,909.642 2125.4,909.891 2129.46,988.055 2133.52,988.168 2137.58,988.277 2141.64,988.384 2145.7,988.488 2149.76,988.589 2153.82,988.688 2157.88,988.784 2161.94,988.878 2166,988.969 2170.06,955.189 2174.12,955.838 2178.18,956.446 2182.24,957.017 2186.3,957.554 2190.36,958.059 2194.42,958.533 2198.48,958.98 2202.54,959.4 2206.6,959.797 2210.66,826.311 2214.72,826.826 2218.78,827.309 2222.84,827.762 2226.9,828.187 2230.96,828.587 2235.02,828.962 2239.08,829.315 2243.14,829.648 2247.2,829.96 2251.26,510.222 2255.32,510.831 2259.38,511.405 2263.44,511.947 2267.5,512.458 2271.56,512.942 2275.62,513.399 2279.68,513.831 2283.74,514.241 2287.8,514.629 2291.86,514.996 "/>
<path clip-path="url(#clip750)" d="M272.744 1438.47 L540.348 1438.47 L540.348 1334.79 L272.744 1334.79  Z" fill="#ffffff" fill-rule="evenodd" fill-opacity="1"/>
<polyline clip-path="url(#clip750)" style="stroke:#000000; stroke-linecap:round; stroke-linejoin:round; stroke-width:4; stroke-opacity:1; fill:none" points="272.744,1438.47 540.348,1438.47 540.348,1334.79 272.744,1334.79 272.744,1438.47 "/>
<polyline clip-path="url(#clip750)" style="stroke:#009af9; stroke-linecap:round; stroke-linejoin:round; stroke-width:4; stroke-opacity:1; fill:none" points="296.652,1386.63 440.101,1386.63 "/>
<path clip-path="url(#clip750)" d="M477.852 1406.32 Q476.046 1410.95 474.333 1412.36 Q472.62 1413.78 469.75 1413.78 L466.347 1413.78 L466.347 1410.21 L468.847 1410.21 Q470.607 1410.21 471.579 1409.38 Q472.551 1408.54 473.731 1405.44 L474.495 1403.5 L464.009 1377.99 L468.523 1377.99 L476.625 1398.27 L484.727 1377.99 L489.241 1377.99 L477.852 1406.32 Z" fill="#000000" fill-rule="nonzero" fill-opacity="1" /><path clip-path="url(#clip750)" d="M496.532 1399.98 L504.171 1399.98 L504.171 1373.61 L495.861 1375.28 L495.861 1371.02 L504.125 1369.35 L508.801 1369.35 L508.801 1399.98 L516.44 1399.98 L516.44 1403.91 L496.532 1403.91 L496.532 1399.98 Z" fill="#000000" fill-rule="nonzero" fill-opacity="1" /></svg>
