<?xml version="1.0" encoding="utf-8"?>
<svg xmlns="http://www.w3.org/2000/svg" xmlns:xlink="http://www.w3.org/1999/xlink" width="600" height="400" viewBox="0 0 2400 1600">
<defs>
  <clipPath id="clip190">
    <rect x="0" y="0" width="2400" height="1600"/>
  </clipPath>
</defs>
<path clip-path="url(#clip190)" d="M0 1600 L2400 1600 L2400 0 L0 0  Z" fill="#ffffff" fill-rule="evenodd" fill-opacity="1"/>
<defs>
  <clipPath id="clip191">
    <rect x="480" y="0" width="1681" height="1600"/>
  </clipPath>
</defs>
<path clip-path="url(#clip190)" d="M156.274 1486.45 L2352.76 1486.45 L2352.76 47.2441 L156.274 47.2441  Z" fill="#ffffff" fill-rule="evenodd" fill-opacity="1"/>
<defs>
  <clipPath id="clip192">
    <rect x="156" y="47" width="2197" height="1440"/>
  </clipPath>
</defs>
<polyline clip-path="url(#clip192)" style="stroke:#000000; stroke-linecap:round; stroke-linejoin:round; stroke-width:2; stroke-opacity:0.1; fill:none" points="218.439,1486.45 218.439,47.2441 "/>
<polyline clip-path="url(#clip192)" style="stroke:#000000; stroke-linecap:round; stroke-linejoin:round; stroke-width:2; stroke-opacity:0.1; fill:none" points="633.035,1486.45 633.035,47.2441 "/>
<polyline clip-path="url(#clip192)" style="stroke:#000000; stroke-linecap:round; stroke-linejoin:round; stroke-width:2; stroke-opacity:0.1; fill:none" points="1047.63,1486.45 1047.63,47.2441 "/>
<polyline clip-path="url(#clip192)" style="stroke:#000000; stroke-linecap:round; stroke-linejoin:round; stroke-width:2; stroke-opacity:0.1; fill:none" points="1462.23,1486.45 1462.23,47.2441 "/>
<polyline clip-path="url(#clip192)" style="stroke:#000000; stroke-linecap:round; stroke-linejoin:round; stroke-width:2; stroke-opacity:0.1; fill:none" points="1876.82,1486.45 1876.82,47.2441 "/>
<polyline clip-path="url(#clip192)" style="stroke:#000000; stroke-linecap:round; stroke-linejoin:round; stroke-width:2; stroke-opacity:0.1; fill:none" points="2291.42,1486.45 2291.42,47.2441 "/>
<polyline clip-path="url(#clip190)" style="stroke:#000000; stroke-linecap:round; stroke-linejoin:round; stroke-width:4; stroke-opacity:1; fill:none" points="156.274,1486.45 2352.76,1486.45 "/>
<polyline clip-path="url(#clip190)" style="stroke:#000000; stroke-linecap:round; stroke-linejoin:round; stroke-width:4; stroke-opacity:1; fill:none" points="218.439,1486.45 218.439,1467.55 "/>
<polyline clip-path="url(#clip190)" style="stroke:#000000; stroke-linecap:round; stroke-linejoin:round; stroke-width:4; stroke-opacity:1; fill:none" points="633.035,1486.45 633.035,1467.55 "/>
<polyline clip-path="url(#clip190)" style="stroke:#000000; stroke-linecap:round; stroke-linejoin:round; stroke-width:4; stroke-opacity:1; fill:none" points="1047.63,1486.45 1047.63,1467.55 "/>
<polyline clip-path="url(#clip190)" style="stroke:#000000; stroke-linecap:round; stroke-linejoin:round; stroke-width:4; stroke-opacity:1; fill:none" points="1462.23,1486.45 1462.23,1467.55 "/>
<polyline clip-path="url(#clip190)" style="stroke:#000000; stroke-linecap:round; stroke-linejoin:round; stroke-width:4; stroke-opacity:1; fill:none" points="1876.82,1486.45 1876.82,1467.55 "/>
<polyline clip-path="url(#clip190)" style="stroke:#000000; stroke-linecap:round; stroke-linejoin:round; stroke-width:4; stroke-opacity:1; fill:none" points="2291.42,1486.45 2291.42,1467.55 "/>
<path clip-path="url(#clip190)" d="M218.439 1517.37 Q214.828 1517.37 212.999 1520.93 Q211.193 1524.47 211.193 1531.6 Q211.193 1538.71 212.999 1542.27 Q214.828 1545.82 218.439 1545.82 Q222.073 1545.82 223.879 1542.27 Q225.707 1538.71 225.707 1531.6 Q225.707 1524.47 223.879 1520.93 Q222.073 1517.37 218.439 1517.37 M218.439 1513.66 Q224.249 1513.66 227.304 1518.27 Q230.383 1522.85 230.383 1531.6 Q230.383 1540.33 227.304 1544.94 Q224.249 1549.52 218.439 1549.52 Q212.629 1549.52 209.55 1544.94 Q206.494 1540.33 206.494 1531.6 Q206.494 1522.85 209.55 1518.27 Q212.629 1513.66 218.439 1513.66 Z" fill="#000000" fill-rule="nonzero" fill-opacity="1" /><path clip-path="url(#clip190)" d="M592.653 1514.29 L611.01 1514.29 L611.01 1518.22 L596.936 1518.22 L596.936 1526.7 Q597.954 1526.35 598.973 1526.19 Q599.991 1526 601.01 1526 Q606.797 1526 610.176 1529.17 Q613.556 1532.34 613.556 1537.76 Q613.556 1543.34 610.084 1546.44 Q606.612 1549.52 600.292 1549.52 Q598.116 1549.52 595.848 1549.15 Q593.602 1548.78 591.195 1548.04 L591.195 1543.34 Q593.278 1544.47 595.501 1545.03 Q597.723 1545.58 600.2 1545.58 Q604.204 1545.58 606.542 1543.48 Q608.88 1541.37 608.88 1537.76 Q608.88 1534.15 606.542 1532.04 Q604.204 1529.94 600.2 1529.94 Q598.325 1529.94 596.45 1530.35 Q594.598 1530.77 592.653 1531.65 L592.653 1514.29 Z" fill="#000000" fill-rule="nonzero" fill-opacity="1" /><path clip-path="url(#clip190)" d="M632.769 1517.37 Q629.158 1517.37 627.329 1520.93 Q625.524 1524.47 625.524 1531.6 Q625.524 1538.71 627.329 1542.27 Q629.158 1545.82 632.769 1545.82 Q636.403 1545.82 638.209 1542.27 Q640.037 1538.71 640.037 1531.6 Q640.037 1524.47 638.209 1520.93 Q636.403 1517.37 632.769 1517.37 M632.769 1513.66 Q638.579 1513.66 641.635 1518.27 Q644.713 1522.85 644.713 1531.6 Q644.713 1540.33 641.635 1544.94 Q638.579 1549.52 632.769 1549.52 Q626.959 1549.52 623.88 1544.94 Q620.825 1540.33 620.825 1531.6 Q620.825 1522.85 623.88 1518.27 Q626.959 1513.66 632.769 1513.66 Z" fill="#000000" fill-rule="nonzero" fill-opacity="1" /><path clip-path="url(#clip190)" d="M662.931 1517.37 Q659.32 1517.37 657.491 1520.93 Q655.685 1524.47 655.685 1531.6 Q655.685 1538.71 657.491 1542.27 Q659.32 1545.82 662.931 1545.82 Q666.565 1545.82 668.371 1542.27 Q670.199 1538.71 670.199 1531.6 Q670.199 1524.47 668.371 1520.93 Q666.565 1517.37 662.931 1517.37 M662.931 1513.66 Q668.741 1513.66 671.796 1518.27 Q674.875 1522.85 674.875 1531.6 Q674.875 1540.33 671.796 1544.94 Q668.741 1549.52 662.931 1549.52 Q657.121 1549.52 654.042 1544.94 Q650.986 1540.33 650.986 1531.6 Q650.986 1522.85 654.042 1518.27 Q657.121 1513.66 662.931 1513.66 Z" fill="#000000" fill-rule="nonzero" fill-opacity="1" /><path clip-path="url(#clip190)" d="M992.157 1544.91 L999.796 1544.91 L999.796 1518.55 L991.486 1520.21 L991.486 1515.95 L999.75 1514.29 L1004.43 1514.29 L1004.43 1544.91 L1012.06 1544.91 L1012.06 1548.85 L992.157 1548.85 L992.157 1544.91 Z" fill="#000000" fill-rule="nonzero" fill-opacity="1" /><path clip-path="url(#clip190)" d="M1031.51 1517.37 Q1027.9 1517.37 1026.07 1520.93 Q1024.26 1524.47 1024.26 1531.6 Q1024.26 1538.71 1026.07 1542.27 Q1027.9 1545.82 1031.51 1545.82 Q1035.14 1545.82 1036.95 1542.27 Q1038.78 1538.71 1038.78 1531.6 Q1038.78 1524.47 1036.95 1520.93 Q1035.14 1517.37 1031.51 1517.37 M1031.51 1513.66 Q1037.32 1513.66 1040.37 1518.27 Q1043.45 1522.85 1043.45 1531.6 Q1043.45 1540.33 1040.37 1544.94 Q1037.32 1549.52 1031.51 1549.52 Q1025.7 1549.52 1022.62 1544.94 Q1019.56 1540.33 1019.56 1531.6 Q1019.56 1522.85 1022.62 1518.27 Q1025.7 1513.66 1031.51 1513.66 Z" fill="#000000" fill-rule="nonzero" fill-opacity="1" /><path clip-path="url(#clip190)" d="M1061.67 1517.37 Q1058.06 1517.37 1056.23 1520.93 Q1054.43 1524.47 1054.43 1531.6 Q1054.43 1538.71 1056.23 1542.27 Q1058.06 1545.82 1061.67 1545.82 Q1065.3 1545.82 1067.11 1542.27 Q1068.94 1538.71 1068.94 1531.6 Q1068.94 1524.47 1067.11 1520.93 Q1065.3 1517.37 1061.67 1517.37 M1061.67 1513.66 Q1067.48 1513.66 1070.54 1518.27 Q1073.62 1522.85 1073.62 1531.6 Q1073.62 1540.33 1070.54 1544.94 Q1067.48 1549.52 1061.67 1549.52 Q1055.86 1549.52 1052.78 1544.94 Q1049.73 1540.33 1049.73 1531.6 Q1049.73 1522.85 1052.78 1518.27 Q1055.86 1513.66 1061.67 1513.66 Z" fill="#000000" fill-rule="nonzero" fill-opacity="1" /><path clip-path="url(#clip190)" d="M1091.83 1517.37 Q1088.22 1517.37 1086.39 1520.93 Q1084.59 1524.47 1084.59 1531.6 Q1084.59 1538.71 1086.39 1542.27 Q1088.22 1545.82 1091.83 1545.82 Q1095.47 1545.82 1097.27 1542.27 Q1099.1 1538.71 1099.1 1531.6 Q1099.1 1524.47 1097.27 1520.93 Q1095.47 1517.37 1091.83 1517.37 M1091.83 1513.66 Q1097.64 1513.66 1100.7 1518.27 Q1103.78 1522.85 1103.78 1531.6 Q1103.78 1540.33 1100.7 1544.94 Q1097.64 1549.52 1091.83 1549.52 Q1086.02 1549.52 1082.94 1544.94 Q1079.89 1540.33 1079.89 1531.6 Q1079.89 1522.85 1082.94 1518.27 Q1086.02 1513.66 1091.83 1513.66 Z" fill="#000000" fill-rule="nonzero" fill-opacity="1" /><path clip-path="url(#clip190)" d="M1406.75 1544.91 L1414.39 1544.91 L1414.39 1518.55 L1406.08 1520.21 L1406.08 1515.95 L1414.35 1514.29 L1419.02 1514.29 L1419.02 1544.91 L1426.66 1544.91 L1426.66 1548.85 L1406.75 1548.85 L1406.75 1544.91 Z" fill="#000000" fill-rule="nonzero" fill-opacity="1" /><path clip-path="url(#clip190)" d="M1436.15 1514.29 L1454.51 1514.29 L1454.51 1518.22 L1440.43 1518.22 L1440.43 1526.7 Q1441.45 1526.35 1442.47 1526.19 Q1443.49 1526 1444.51 1526 Q1450.3 1526 1453.67 1529.17 Q1457.05 1532.34 1457.05 1537.76 Q1457.05 1543.34 1453.58 1546.44 Q1450.11 1549.52 1443.79 1549.52 Q1441.61 1549.52 1439.35 1549.15 Q1437.1 1548.78 1434.69 1548.04 L1434.69 1543.34 Q1436.78 1544.47 1439 1545.03 Q1441.22 1545.58 1443.7 1545.58 Q1447.7 1545.58 1450.04 1543.48 Q1452.38 1541.37 1452.38 1537.76 Q1452.38 1534.15 1450.04 1532.04 Q1447.7 1529.94 1443.7 1529.94 Q1441.82 1529.94 1439.95 1530.35 Q1438.1 1530.77 1436.15 1531.65 L1436.15 1514.29 Z" fill="#000000" fill-rule="nonzero" fill-opacity="1" /><path clip-path="url(#clip190)" d="M1476.27 1517.37 Q1472.66 1517.37 1470.83 1520.93 Q1469.02 1524.47 1469.02 1531.6 Q1469.02 1538.71 1470.83 1542.27 Q1472.66 1545.82 1476.27 1545.82 Q1479.9 1545.82 1481.71 1542.27 Q1483.54 1538.71 1483.54 1531.6 Q1483.54 1524.47 1481.71 1520.93 Q1479.9 1517.37 1476.27 1517.37 M1476.27 1513.66 Q1482.08 1513.66 1485.13 1518.27 Q1488.21 1522.85 1488.21 1531.6 Q1488.21 1540.33 1485.13 1544.94 Q1482.08 1549.52 1476.27 1549.52 Q1470.46 1549.52 1467.38 1544.94 Q1464.32 1540.33 1464.32 1531.6 Q1464.32 1522.85 1467.38 1518.27 Q1470.46 1513.66 1476.27 1513.66 Z" fill="#000000" fill-rule="nonzero" fill-opacity="1" /><path clip-path="url(#clip190)" d="M1506.43 1517.37 Q1502.82 1517.37 1500.99 1520.93 Q1499.18 1524.47 1499.18 1531.6 Q1499.18 1538.71 1500.99 1542.27 Q1502.82 1545.82 1506.43 1545.82 Q1510.06 1545.82 1511.87 1542.27 Q1513.7 1538.71 1513.7 1531.6 Q1513.7 1524.47 1511.87 1520.93 Q1510.06 1517.37 1506.43 1517.37 M1506.43 1513.66 Q1512.24 1513.66 1515.29 1518.27 Q1518.37 1522.85 1518.37 1531.6 Q1518.37 1540.33 1515.29 1544.94 Q1512.24 1549.52 1506.43 1549.52 Q1500.62 1549.52 1497.54 1544.94 Q1494.48 1540.33 1494.48 1531.6 Q1494.48 1522.85 1497.54 1518.27 Q1500.62 1513.66 1506.43 1513.66 Z" fill="#000000" fill-rule="nonzero" fill-opacity="1" /><path clip-path="url(#clip190)" d="M1825.44 1544.91 L1841.75 1544.91 L1841.75 1548.85 L1819.81 1548.85 L1819.81 1544.91 Q1822.47 1542.16 1827.06 1537.53 Q1831.66 1532.88 1832.84 1531.53 Q1835.09 1529.01 1835.97 1527.27 Q1836.87 1525.51 1836.87 1523.82 Q1836.87 1521.07 1834.93 1519.33 Q1833 1517.6 1829.9 1517.6 Q1827.7 1517.6 1825.25 1518.36 Q1822.82 1519.13 1820.04 1520.68 L1820.04 1515.95 Q1822.87 1514.82 1825.32 1514.24 Q1827.77 1513.66 1829.81 1513.66 Q1835.18 1513.66 1838.38 1516.35 Q1841.57 1519.03 1841.57 1523.52 Q1841.57 1525.65 1840.76 1527.57 Q1839.97 1529.47 1837.87 1532.07 Q1837.29 1532.74 1834.19 1535.95 Q1831.08 1539.15 1825.44 1544.91 Z" fill="#000000" fill-rule="nonzero" fill-opacity="1" /><path clip-path="url(#clip190)" d="M1861.57 1517.37 Q1857.96 1517.37 1856.13 1520.93 Q1854.32 1524.47 1854.32 1531.6 Q1854.32 1538.71 1856.13 1542.27 Q1857.96 1545.82 1861.57 1545.82 Q1865.2 1545.82 1867.01 1542.27 Q1868.84 1538.71 1868.84 1531.6 Q1868.84 1524.47 1867.01 1520.93 Q1865.2 1517.37 1861.57 1517.37 M1861.57 1513.66 Q1867.38 1513.66 1870.44 1518.27 Q1873.51 1522.85 1873.51 1531.6 Q1873.51 1540.33 1870.44 1544.94 Q1867.38 1549.52 1861.57 1549.52 Q1855.76 1549.52 1852.68 1544.94 Q1849.63 1540.33 1849.63 1531.6 Q1849.63 1522.85 1852.68 1518.27 Q1855.76 1513.66 1861.57 1513.66 Z" fill="#000000" fill-rule="nonzero" fill-opacity="1" /><path clip-path="url(#clip190)" d="M1891.73 1517.37 Q1888.12 1517.37 1886.29 1520.93 Q1884.49 1524.47 1884.49 1531.6 Q1884.49 1538.71 1886.29 1542.27 Q1888.12 1545.82 1891.73 1545.82 Q1895.37 1545.82 1897.17 1542.27 Q1899 1538.71 1899 1531.6 Q1899 1524.47 1897.17 1520.93 Q1895.37 1517.37 1891.73 1517.37 M1891.73 1513.66 Q1897.54 1513.66 1900.6 1518.27 Q1903.68 1522.85 1903.68 1531.6 Q1903.68 1540.33 1900.6 1544.94 Q1897.54 1549.52 1891.73 1549.52 Q1885.92 1549.52 1882.84 1544.94 Q1879.79 1540.33 1879.79 1531.6 Q1879.79 1522.85 1882.84 1518.27 Q1885.92 1513.66 1891.73 1513.66 Z" fill="#000000" fill-rule="nonzero" fill-opacity="1" /><path clip-path="url(#clip190)" d="M1921.89 1517.37 Q1918.28 1517.37 1916.45 1520.93 Q1914.65 1524.47 1914.65 1531.6 Q1914.65 1538.71 1916.45 1542.27 Q1918.28 1545.82 1921.89 1545.82 Q1925.53 1545.82 1927.33 1542.27 Q1929.16 1538.71 1929.16 1531.6 Q1929.16 1524.47 1927.33 1520.93 Q1925.53 1517.37 1921.89 1517.37 M1921.89 1513.66 Q1927.7 1513.66 1930.76 1518.27 Q1933.84 1522.85 1933.84 1531.6 Q1933.84 1540.33 1930.76 1544.94 Q1927.7 1549.52 1921.89 1549.52 Q1916.08 1549.52 1913 1544.94 Q1909.95 1540.33 1909.95 1531.6 Q1909.95 1522.85 1913 1518.27 Q1916.08 1513.66 1921.89 1513.66 Z" fill="#000000" fill-rule="nonzero" fill-opacity="1" /><path clip-path="url(#clip190)" d="M2240.03 1544.91 L2256.35 1544.91 L2256.35 1548.85 L2234.41 1548.85 L2234.41 1544.91 Q2237.07 1542.16 2241.65 1537.53 Q2246.26 1532.88 2247.44 1531.53 Q2249.68 1529.01 2250.56 1527.27 Q2251.47 1525.51 2251.47 1523.82 Q2251.47 1521.07 2249.52 1519.33 Q2247.6 1517.6 2244.5 1517.6 Q2242.3 1517.6 2239.85 1518.36 Q2237.42 1519.13 2234.64 1520.68 L2234.64 1515.95 Q2237.46 1514.82 2239.92 1514.24 Q2242.37 1513.66 2244.41 1513.66 Q2249.78 1513.66 2252.97 1516.35 Q2256.17 1519.03 2256.17 1523.52 Q2256.17 1525.65 2255.36 1527.57 Q2254.57 1529.47 2252.46 1532.07 Q2251.88 1532.74 2248.78 1535.95 Q2245.68 1539.15 2240.03 1544.91 Z" fill="#000000" fill-rule="nonzero" fill-opacity="1" /><path clip-path="url(#clip190)" d="M2266.21 1514.29 L2284.57 1514.29 L2284.57 1518.22 L2270.49 1518.22 L2270.49 1526.7 Q2271.51 1526.35 2272.53 1526.19 Q2273.55 1526 2274.57 1526 Q2280.36 1526 2283.74 1529.17 Q2287.11 1532.34 2287.11 1537.76 Q2287.11 1543.34 2283.64 1546.44 Q2280.17 1549.52 2273.85 1549.52 Q2271.68 1549.52 2269.41 1549.15 Q2267.16 1548.78 2264.75 1548.04 L2264.75 1543.34 Q2266.84 1544.47 2269.06 1545.03 Q2271.28 1545.58 2273.76 1545.58 Q2277.76 1545.58 2280.1 1543.48 Q2282.44 1541.37 2282.44 1537.76 Q2282.44 1534.15 2280.1 1532.04 Q2277.76 1529.94 2273.76 1529.94 Q2271.88 1529.94 2270.01 1530.35 Q2268.16 1530.77 2266.21 1531.65 L2266.21 1514.29 Z" fill="#000000" fill-rule="nonzero" fill-opacity="1" /><path clip-path="url(#clip190)" d="M2306.33 1517.37 Q2302.72 1517.37 2300.89 1520.93 Q2299.08 1524.47 2299.08 1531.6 Q2299.08 1538.71 2300.89 1542.27 Q2302.72 1545.82 2306.33 1545.82 Q2309.96 1545.82 2311.77 1542.27 Q2313.6 1538.71 2313.6 1531.6 Q2313.6 1524.47 2311.77 1520.93 Q2309.96 1517.37 2306.33 1517.37 M2306.33 1513.66 Q2312.14 1513.66 2315.19 1518.27 Q2318.27 1522.85 2318.27 1531.6 Q2318.27 1540.33 2315.19 1544.94 Q2312.14 1549.52 2306.33 1549.52 Q2300.52 1549.52 2297.44 1544.94 Q2294.38 1540.33 2294.38 1531.6 Q2294.38 1522.85 2297.44 1518.27 Q2300.52 1513.66 2306.33 1513.66 Z" fill="#000000" fill-rule="nonzero" fill-opacity="1" /><path clip-path="url(#clip190)" d="M2336.49 1517.37 Q2332.88 1517.37 2331.05 1520.93 Q2329.24 1524.47 2329.24 1531.6 Q2329.24 1538.71 2331.05 1542.27 Q2332.88 1545.82 2336.49 1545.82 Q2340.12 1545.82 2341.93 1542.27 Q2343.76 1538.71 2343.76 1531.6 Q2343.76 1524.47 2341.93 1520.93 Q2340.12 1517.37 2336.49 1517.37 M2336.49 1513.66 Q2342.3 1513.66 2345.36 1518.27 Q2348.43 1522.85 2348.43 1531.6 Q2348.43 1540.33 2345.36 1544.94 Q2342.3 1549.52 2336.49 1549.52 Q2330.68 1549.52 2327.6 1544.94 Q2324.55 1540.33 2324.55 1531.6 Q2324.55 1522.85 2327.6 1518.27 Q2330.68 1513.66 2336.49 1513.66 Z" fill="#000000" fill-rule="nonzero" fill-opacity="1" /><polyline clip-path="url(#clip192)" style="stroke:#000000; stroke-linecap:round; stroke-linejoin:round; stroke-width:2; stroke-opacity:0.1; fill:none" points="156.274,1384.43 2352.76,1384.43 "/>
<polyline clip-path="url(#clip192)" style="stroke:#000000; stroke-linecap:round; stroke-linejoin:round; stroke-width:2; stroke-opacity:0.1; fill:none" points="156.274,981.38 2352.76,981.38 "/>
<polyline clip-path="url(#clip192)" style="stroke:#000000; stroke-linecap:round; stroke-linejoin:round; stroke-width:2; stroke-opacity:0.1; fill:none" points="156.274,578.327 2352.76,578.327 "/>
<polyline clip-path="url(#clip192)" style="stroke:#000000; stroke-linecap:round; stroke-linejoin:round; stroke-width:2; stroke-opacity:0.1; fill:none" points="156.274,175.273 2352.76,175.273 "/>
<polyline clip-path="url(#clip190)" style="stroke:#000000; stroke-linecap:round; stroke-linejoin:round; stroke-width:4; stroke-opacity:1; fill:none" points="156.274,1486.45 156.274,47.2441 "/>
<polyline clip-path="url(#clip190)" style="stroke:#000000; stroke-linecap:round; stroke-linejoin:round; stroke-width:4; stroke-opacity:1; fill:none" points="156.274,1384.43 175.172,1384.43 "/>
<polyline clip-path="url(#clip190)" style="stroke:#000000; stroke-linecap:round; stroke-linejoin:round; stroke-width:4; stroke-opacity:1; fill:none" points="156.274,981.38 175.172,981.38 "/>
<polyline clip-path="url(#clip190)" style="stroke:#000000; stroke-linecap:round; stroke-linejoin:round; stroke-width:4; stroke-opacity:1; fill:none" points="156.274,578.327 175.172,578.327 "/>
<polyline clip-path="url(#clip190)" style="stroke:#000000; stroke-linecap:round; stroke-linejoin:round; stroke-width:4; stroke-opacity:1; fill:none" points="156.274,175.273 175.172,175.273 "/>
<path clip-path="url(#clip190)" d="M62.9365 1370.23 Q59.3254 1370.23 57.4967 1373.8 Q55.6912 1377.34 55.6912 1384.47 Q55.6912 1391.57 57.4967 1395.14 Q59.3254 1398.68 62.9365 1398.68 Q66.5707 1398.68 68.3763 1395.14 Q70.205 1391.57 70.205 1384.47 Q70.205 1377.34 68.3763 1373.8 Q66.5707 1370.23 62.9365 1370.23 M62.9365 1366.53 Q68.7467 1366.53 71.8022 1371.13 Q74.8809 1375.72 74.8809 1384.47 Q74.8809 1393.19 71.8022 1397.8 Q68.7467 1402.38 62.9365 1402.38 Q57.1264 1402.38 54.0477 1397.8 Q50.9921 1393.19 50.9921 1384.47 Q50.9921 1375.72 54.0477 1371.13 Q57.1264 1366.53 62.9365 1366.53 Z" fill="#000000" fill-rule="nonzero" fill-opacity="1" /><path clip-path="url(#clip190)" d="M83.0984 1395.83 L87.9827 1395.83 L87.9827 1401.71 L83.0984 1401.71 L83.0984 1395.83 Z" fill="#000000" fill-rule="nonzero" fill-opacity="1" /><path clip-path="url(#clip190)" d="M108.746 1382.57 Q105.598 1382.57 103.746 1384.72 Q101.918 1386.87 101.918 1390.62 Q101.918 1394.35 103.746 1396.53 Q105.598 1398.68 108.746 1398.68 Q111.895 1398.68 113.723 1396.53 Q115.575 1394.35 115.575 1390.62 Q115.575 1386.87 113.723 1384.72 Q111.895 1382.57 108.746 1382.57 M118.029 1367.92 L118.029 1372.18 Q116.27 1371.34 114.464 1370.9 Q112.682 1370.46 110.922 1370.46 Q106.293 1370.46 103.839 1373.59 Q101.409 1376.71 101.061 1383.03 Q102.427 1381.02 104.487 1379.95 Q106.547 1378.87 109.024 1378.87 Q114.233 1378.87 117.242 1382.04 Q120.274 1385.19 120.274 1390.62 Q120.274 1395.95 117.126 1399.17 Q113.978 1402.38 108.746 1402.38 Q102.751 1402.38 99.5798 1397.8 Q96.4085 1393.19 96.4085 1384.47 Q96.4085 1376.27 100.297 1371.41 Q104.186 1366.53 110.737 1366.53 Q112.496 1366.53 114.279 1366.87 Q116.084 1367.22 118.029 1367.92 Z" fill="#000000" fill-rule="nonzero" fill-opacity="1" /><path clip-path="url(#clip190)" d="M64.0013 967.178 Q60.3902 967.178 58.5615 970.743 Q56.756 974.285 56.756 981.414 Q56.756 988.521 58.5615 992.086 Q60.3902 995.627 64.0013 995.627 Q67.6356 995.627 69.4411 992.086 Q71.2698 988.521 71.2698 981.414 Q71.2698 974.285 69.4411 970.743 Q67.6356 967.178 64.0013 967.178 M64.0013 963.475 Q69.8115 963.475 72.867 968.081 Q75.9457 972.664 75.9457 981.414 Q75.9457 990.141 72.867 994.748 Q69.8115 999.331 64.0013 999.331 Q58.1912 999.331 55.1125 994.748 Q52.0569 990.141 52.0569 981.414 Q52.0569 972.664 55.1125 968.081 Q58.1912 963.475 64.0013 963.475 Z" fill="#000000" fill-rule="nonzero" fill-opacity="1" /><path clip-path="url(#clip190)" d="M84.1632 992.78 L89.0475 992.78 L89.0475 998.66 L84.1632 998.66 L84.1632 992.78 Z" fill="#000000" fill-rule="nonzero" fill-opacity="1" /><path clip-path="url(#clip190)" d="M98.0521 964.1 L120.274 964.1 L120.274 966.09 L107.728 998.66 L102.844 998.66 L114.649 968.035 L98.0521 968.035 L98.0521 964.1 Z" fill="#000000" fill-rule="nonzero" fill-opacity="1" /><path clip-path="url(#clip190)" d="M63.1911 564.125 Q59.58 564.125 57.7513 567.69 Q55.9458 571.232 55.9458 578.361 Q55.9458 585.468 57.7513 589.033 Q59.58 592.574 63.1911 592.574 Q66.8254 592.574 68.6309 589.033 Q70.4596 585.468 70.4596 578.361 Q70.4596 571.232 68.6309 567.69 Q66.8254 564.125 63.1911 564.125 M63.1911 560.422 Q69.0013 560.422 72.0568 565.028 Q75.1355 569.611 75.1355 578.361 Q75.1355 587.088 72.0568 591.695 Q69.0013 596.278 63.1911 596.278 Q57.381 596.278 54.3023 591.695 Q51.2468 587.088 51.2468 578.361 Q51.2468 569.611 54.3023 565.028 Q57.381 560.422 63.1911 560.422 Z" fill="#000000" fill-rule="nonzero" fill-opacity="1" /><path clip-path="url(#clip190)" d="M83.3531 589.727 L88.2373 589.727 L88.2373 595.607 L83.3531 595.607 L83.3531 589.727 Z" fill="#000000" fill-rule="nonzero" fill-opacity="1" /><path clip-path="url(#clip190)" d="M108.422 579.195 Q105.089 579.195 103.168 580.977 Q101.27 582.759 101.27 585.884 Q101.27 589.009 103.168 590.792 Q105.089 592.574 108.422 592.574 Q111.756 592.574 113.677 590.792 Q115.598 588.986 115.598 585.884 Q115.598 582.759 113.677 580.977 Q111.779 579.195 108.422 579.195 M103.746 577.204 Q100.737 576.463 99.0474 574.403 Q97.3808 572.343 97.3808 569.38 Q97.3808 565.236 100.321 562.829 Q103.284 560.422 108.422 560.422 Q113.584 560.422 116.524 562.829 Q119.464 565.236 119.464 569.38 Q119.464 572.343 117.774 574.403 Q116.108 576.463 113.121 577.204 Q116.501 577.991 118.376 580.283 Q120.274 582.574 120.274 585.884 Q120.274 590.908 117.195 593.593 Q114.14 596.278 108.422 596.278 Q102.705 596.278 99.6261 593.593 Q96.5706 590.908 96.5706 585.884 Q96.5706 582.574 98.4687 580.283 Q100.367 577.991 103.746 577.204 M102.034 569.82 Q102.034 572.505 103.7 574.009 Q105.39 575.514 108.422 575.514 Q111.432 575.514 113.121 574.009 Q114.834 572.505 114.834 569.82 Q114.834 567.135 113.121 565.63 Q111.432 564.125 108.422 564.125 Q105.39 564.125 103.7 565.63 Q102.034 567.135 102.034 569.82 Z" fill="#000000" fill-rule="nonzero" fill-opacity="1" /><path clip-path="url(#clip190)" d="M63.2837 161.072 Q59.6726 161.072 57.8439 164.637 Q56.0384 168.179 56.0384 175.308 Q56.0384 182.415 57.8439 185.979 Q59.6726 189.521 63.2837 189.521 Q66.918 189.521 68.7235 185.979 Q70.5522 182.415 70.5522 175.308 Q70.5522 168.179 68.7235 164.637 Q66.918 161.072 63.2837 161.072 M63.2837 157.368 Q69.0939 157.368 72.1494 161.975 Q75.2281 166.558 75.2281 175.308 Q75.2281 184.035 72.1494 188.641 Q69.0939 193.225 63.2837 193.225 Q57.4736 193.225 54.3949 188.641 Q51.3393 184.035 51.3393 175.308 Q51.3393 166.558 54.3949 161.975 Q57.4736 157.368 63.2837 157.368 Z" fill="#000000" fill-rule="nonzero" fill-opacity="1" /><path clip-path="url(#clip190)" d="M83.4457 186.674 L88.3299 186.674 L88.3299 192.553 L83.4457 192.553 L83.4457 186.674 Z" fill="#000000" fill-rule="nonzero" fill-opacity="1" /><path clip-path="url(#clip190)" d="M98.6539 191.836 L98.6539 187.577 Q100.413 188.41 102.219 188.85 Q104.024 189.29 105.76 189.29 Q110.39 189.29 112.82 186.188 Q115.274 183.063 115.621 176.72 Q114.279 178.711 112.219 179.776 Q110.158 180.841 107.658 180.841 Q102.473 180.841 99.4409 177.716 Q96.4317 174.567 96.4317 169.128 Q96.4317 163.804 99.5798 160.586 Q102.728 157.368 107.959 157.368 Q113.955 157.368 117.103 161.975 Q120.274 166.558 120.274 175.308 Q120.274 183.479 116.385 188.364 Q112.52 193.225 105.969 193.225 Q104.209 193.225 102.404 192.878 Q100.598 192.53 98.6539 191.836 M107.959 177.183 Q111.108 177.183 112.936 175.03 Q114.788 172.878 114.788 169.128 Q114.788 165.401 112.936 163.248 Q111.108 161.072 107.959 161.072 Q104.811 161.072 102.959 163.248 Q101.131 165.401 101.131 169.128 Q101.131 172.878 102.959 175.03 Q104.811 177.183 107.959 177.183 Z" fill="#000000" fill-rule="nonzero" fill-opacity="1" /><polyline clip-path="url(#clip192)" style="stroke:#009af9; stroke-linecap:round; stroke-linejoin:round; stroke-width:4; stroke-opacity:1; fill:none" points="218.439,1275.77 219.268,1227.33 220.097,1051.54 220.926,1159.78 221.756,1299.32 222.585,1283.67 223.414,1291.52 224.243,1210.77 225.072,1159.78 225.901,1227.33 226.731,954.32 227.56,1275.77 228.389,974.309 229.218,1219.08 230.047,1445.72 230.877,1115.73 231.706,1267.83 232.535,1151.09 233.364,1032.63 234.193,1251.78 235.023,1151.09 235.852,984.198 236.681,1202.41 237.51,1275.77 238.339,1259.83 239.169,1070.19 239.998,1088.59 240.827,1032.63 241.656,1227.33 242.485,1133.53 243.315,1142.33 244.144,1367.39 244.973,1133.53 245.802,1124.66 246.631,1202.41 247.46,1133.53 248.29,1177 249.119,1259.83 249.948,1235.53 250.777,1151.09 251.606,1227.33 252.436,1023.07 253.265,1124.66 254.094,1115.73 254.923,1193.99 255.752,1042.11 256.582,1124.66 257.411,1210.77 258.24,1360.01 259.069,1088.59 259.898,1070.19 260.728,1013.46 261.557,1267.83 262.386,1088.59 263.215,1142.33 264.044,1003.77 264.874,882.077 265.703,1382.01 266.532,994.019 267.361,1177 268.19,1259.83 269.019,1235.53 269.849,1051.54 270.678,1051.54 271.507,1243.68 272.336,1023.07 273.165,1097.7 273.995,923.801 274.824,1133.53 275.653,1291.52 276.482,1367.39 277.311,1299.32 278.141,1042.11 278.97,1382.01 279.799,1322.42 280.628,1291.52 281.457,934.046 282.287,1235.53 283.116,1168.42 283.945,1202.41 284.774,1283.67 285.603,1352.58 286.433,1193.99 287.262,1106.74 288.091,1417.82 288.92,1210.77 289.749,1133.53 290.579,1070.19 291.408,1202.41 292.237,1060.89 293.066,1168.42 293.895,1235.53 294.724,1051.54 295.554,1243.68 296.383,1133.53 297.212,1060.89 298.041,1360.01 298.87,1133.53 299.7,1210.77 300.529,1177 301.358,1070.19 302.187,1219.08 303.016,1159.78 303.846,1193.99 304.675,1079.42 305.504,1051.54 306.333,1133.53 307.162,1210.77 307.992,1185.52 308.821,1159.78 309.65,1307.07 310.479,1151.09 311.308,1106.74 312.138,849.981 312.967,1210.77 313.796,1219.08 314.625,1275.77 315.454,1202.41 316.283,1124.66 317.113,1079.42 317.942,1079.42 318.771,1267.83 319.6,1159.78 320.429,1124.66 321.259,1251.78 322.088,1352.58 322.917,1097.7 323.746,1235.53 324.575,1210.77 325.405,1124.66 326.234,1133.53 327.063,1106.74 327.892,984.198 328.721,1079.42 329.551,1202.41 330.38,1097.7 331.209,1177 332.038,1151.09 332.867,1193.99 333.697,954.32 334.526,1168.42 335.355,1168.42 336.184,974.309 337.013,1168.42 337.842,1060.89 338.672,974.309 339.501,1193.99 340.33,1106.74 341.159,1088.59 341.988,1079.42 342.818,1210.77 343.647,1151.09 344.476,1322.42 345.305,1079.42 346.134,1003.77 346.964,1106.74 347.793,1070.19 348.622,1168.42 349.451,903.089 350.28,1097.7 351.11,1177 351.939,1079.42 352.768,1193.99 353.597,1088.59 354.426,1299.32 355.256,1097.7 356.085,1070.19 356.914,1133.53 357.743,1185.52 358.572,974.309 359.402,1032.63 360.231,1124.66 361.06,923.801 361.889,1079.42 362.718,1013.46 363.547,1210.77 364.377,1042.11 365.206,1142.33 366.035,1003.77 366.864,1151.09 367.693,1124.66 368.523,1177 369.352,934.046 370.181,1151.09 371.01,1159.78 371.839,974.309 372.669,1060.89 373.498,934.046 374.327,1267.83 375.156,1168.42 375.985,1115.73 376.815,1185.52 377.644,1227.33 378.473,1219.08 379.302,1070.19 380.131,1210.77 380.961,1177 381.79,1185.52 382.619,1243.68 383.448,783.627 384.277,913.482 385.106,1151.09 385.936,1177 386.765,1106.74 387.594,839.126 388.423,1088.59 389.252,984.198 390.082,1168.42 390.911,1235.53 391.74,1299.32 392.569,1079.42 393.398,1032.63 394.228,913.482 395.057,1106.74 395.886,1151.09 396.715,1142.33 397.544,1210.77 398.374,1115.73 399.203,1106.74 400.032,1042.11 400.861,954.32 401.69,1307.07 402.52,1060.89 403.349,1070.19 404.178,839.126 405.007,1251.78 405.836,1003.77 406.665,1013.46 407.495,994.019 408.324,1106.74 409.153,1267.83 409.982,1168.42 410.811,1097.7 411.641,1032.63 412.47,944.219 413.299,1042.11 414.128,1051.54 414.957,1023.07 415.787,964.349 416.616,1051.54 417.445,994.019 418.274,1023.07 419.103,1079.42 419.933,1070.19 420.762,954.32 421.591,923.801 422.42,1133.53 423.249,964.349 424.079,964.349 424.908,1267.83 425.737,1151.09 426.566,1227.33 427.395,871.456 428.224,1314.77 429.054,994.019 429.883,1227.33 430.712,1133.53 431.541,1013.46 432.37,994.019 433.2,1079.42 434.029,1124.66 434.858,1023.07 435.687,1032.63 436.516,1151.09 437.346,1088.59 438.175,892.621 439.004,1243.68 439.833,892.621 440.662,1042.11 441.492,1088.59 442.321,1003.77 443.15,1193.99 443.979,954.32 444.808,1115.73 445.638,1060.89 446.467,1142.33 447.296,1042.11 448.125,1219.08 448.954,1115.73 449.784,944.219 450.613,1142.33 451.442,1070.19 452.271,1124.66 453.1,964.349 453.929,1097.7 454.759,1003.77 455.588,1023.07 456.417,1267.83 457.246,1032.63 458.075,1124.66 458.905,1133.53 459.734,1023.07 460.563,1079.42 461.392,974.309 462.221,1003.77 463.051,892.621 463.88,954.32 464.709,1151.09 465.538,1060.89 466.367,954.32 467.197,1159.78 468.026,860.758 468.855,1151.09 469.684,1070.19 470.513,1168.42 471.343,984.198 472.172,882.077 473.001,1210.77 473.83,1227.33 474.659,1032.63 475.488,1185.52 476.318,1124.66 477.147,817.173 477.976,903.089 478.805,1193.99 479.634,964.349 480.464,1070.19 481.293,1115.73 482.122,984.198 482.951,1133.53 483.78,1159.78 484.61,1283.67 485.439,994.019 486.268,1243.68 487.097,882.077 487.926,1088.59 488.756,1088.59 489.585,1193.99 490.414,1106.74 491.243,954.32 492.072,1210.77 492.902,1106.74 493.731,944.219 494.56,1051.54 495.389,1032.63 496.218,984.198 497.047,1210.77 497.877,1159.78 498.706,1168.42 499.535,954.32 500.364,1079.42 501.193,1051.54 502.023,806.074 502.852,1106.74 503.681,806.074 504.51,1088.59 505.339,1023.07 506.169,984.198 506.998,860.758 507.827,974.309 508.656,892.621 509.485,1051.54 510.315,1060.89 511.144,1070.19 511.973,1032.63 512.802,1124.66 513.631,994.019 514.461,1210.77 515.29,974.309 516.119,817.173 516.948,760.841 517.777,923.801 518.607,1060.89 519.436,849.981 520.265,1124.66 521.094,892.621 521.923,1193.99 522.752,1267.83 523.582,1142.33 524.411,994.019 525.24,1106.74 526.069,806.074 526.898,1079.42 527.728,1079.42 528.557,871.456 529.386,1023.07 530.215,1032.63 531.044,1013.46 531.874,984.198 532.703,1042.11 533.532,913.482 534.361,1088.59 535.19,1032.63 536.02,1097.7 536.849,1142.33 537.678,806.074 538.507,1106.74 539.336,964.349 540.166,1202.41 540.995,1151.09 541.824,1023.07 542.653,1042.11 543.482,839.126 544.311,1079.42 545.141,1032.63 545.97,1133.53 546.799,1060.89 547.628,1079.42 548.457,944.219 549.287,1060.89 550.116,839.126 550.945,984.198 551.774,994.019 552.603,1032.63 553.433,1051.54 554.262,944.219 555.091,1142.33 555.92,1013.46 556.749,1032.63 557.579,954.32 558.408,923.801 559.237,1032.63 560.066,882.077 560.895,1060.89 561.725,984.198 562.554,849.981 563.383,984.198 564.212,923.801 565.041,1023.07 565.87,964.349 566.7,974.309 567.529,871.456 568.358,974.309 569.187,1032.63 570.016,737.709 570.846,1124.66 571.675,913.482 572.504,954.32 573.333,892.621 574.162,974.309 574.992,783.627 575.821,964.349 576.65,1079.42 577.479,923.801 578.308,913.482 579.138,903.089 579.967,1177 580.796,984.198 581.625,954.32 582.454,994.019 583.284,994.019 584.113,923.801 584.942,871.456 585.771,849.981 586.6,923.801 587.429,934.046 588.259,954.32 589.088,892.621 589.917,1133.53 590.746,794.892 591.575,994.019 592.405,783.627 593.234,892.621 594.063,913.482 594.892,994.019 595.721,923.801 596.551,892.621 597.38,994.019 598.209,1097.7 599.038,1124.66 599.867,1210.77 600.697,913.482 601.526,860.758 602.355,1097.7 603.184,934.046 604.013,974.309 604.843,944.219 605.672,849.981 606.501,1070.19 607.33,964.349 608.159,794.892 608.989,860.758 609.818,913.482 610.647,1210.77 611.476,871.456 612.305,1097.7 613.134,944.219 613.964,934.046 614.793,923.801 615.622,849.981 616.451,974.309 617.28,849.981 618.11,860.758 618.939,849.981 619.768,839.126 620.597,964.349 621.426,974.309 622.256,794.892 623.085,964.349 623.914,984.198 624.743,1003.77 625.572,772.277 626.402,1142.33 627.231,964.349 628.06,1003.77 628.889,974.309 629.718,964.349 630.548,934.046 631.377,1106.74 632.206,1042.11 633.035,1013.46 633.864,1051.54 634.693,1060.89 635.523,1003.77 636.352,892.621 637.181,913.482 638.01,954.32 638.839,1070.19 639.669,702.343 640.498,1124.66 641.327,1124.66 642.156,984.198 642.985,903.089 643.815,839.126 644.644,944.219 645.473,994.019 646.302,794.892 647.131,974.309 647.961,882.077 648.79,974.309 649.619,954.32 650.448,882.077 651.277,923.801 652.107,934.046 652.936,882.077 653.765,839.126 654.594,994.019 655.423,954.32 656.252,934.046 657.082,737.709 657.911,923.801 658.74,726.01 659.569,882.077 660.398,860.758 661.228,892.621 662.057,783.627 662.886,772.277 663.715,839.126 664.544,994.019 665.374,871.456 666.203,984.198 667.032,817.173 667.861,903.089 668.69,794.892 669.52,760.841 670.349,783.627 671.178,882.077 672.007,892.621 672.836,783.627 673.666,860.758 674.495,984.198 675.324,944.219 676.153,1003.77 676.982,871.456 677.812,772.277 678.641,1013.46 679.47,653.899 680.299,783.627 681.128,1060.89 681.957,903.089 682.787,903.089 683.616,783.627 684.445,892.621 685.274,892.621 686.103,892.621 686.933,702.343 687.762,760.841 688.591,964.349 689.42,954.32 690.249,954.32 691.079,860.758 691.908,903.089 692.737,954.32 693.566,871.456 694.395,1070.19 695.225,892.621 696.054,882.077 696.883,871.456 697.712,882.077 698.541,882.077 699.371,828.19 700.2,783.627 701.029,1060.89 701.858,1079.42 702.687,849.981 703.516,871.456 704.346,1079.42 705.175,783.627 706.004,944.219 706.833,817.173 707.662,749.319 708.492,817.173 709.321,653.899 710.15,828.19 710.979,1079.42 711.808,903.089 712.638,892.621 713.467,1003.77 714.296,849.981 715.125,984.198 715.954,828.19 716.784,772.277 717.613,860.758 718.442,726.01 719.271,934.046 720.1,794.892 720.93,892.621 721.759,1079.42 722.588,892.621 723.417,1023.07 724.246,871.456 725.075,714.222 725.905,964.349 726.734,839.126 727.563,1032.63 728.392,1042.11 729.221,806.074 730.051,882.077 730.88,954.32 731.709,737.709 732.538,860.758 733.367,702.343 734.197,828.19 735.026,641.551 735.855,726.01 736.684,714.222 737.513,882.077 738.343,984.198 739.172,726.01 740.001,892.621 740.83,860.758 741.659,817.173 742.489,1003.77 743.318,690.372 744.147,882.077 744.976,1097.7 745.805,1013.46 746.634,794.892 747.464,984.198 748.293,903.089 749.122,726.01 749.951,1013.46 750.78,806.074 751.61,666.151 752.439,892.621 753.268,828.19 754.097,984.198 754.926,817.173 755.756,913.482 756.585,964.349 757.414,849.981 758.243,849.981 759.072,1023.07 759.902,783.627 760.731,629.105 761.56,1003.77 762.389,860.758 763.218,944.219 764.048,994.019 764.877,749.319 765.706,817.173 766.535,923.801 767.364,913.482 768.194,944.219 769.023,690.372 769.852,828.19 770.681,678.309 771.51,794.892 772.339,860.758 773.169,629.105 773.998,690.372 774.827,934.046 775.656,1032.63 776.485,849.981 777.315,954.32 778.144,839.126 778.973,714.222 779.802,1042.11 780.631,849.981 781.461,913.482 782.29,794.892 783.119,923.801 783.948,954.32 784.777,839.126 785.607,944.219 786.436,828.19 787.265,726.01 788.094,749.319 788.923,828.19 789.753,794.892 790.582,923.801 791.411,892.621 792.24,839.126 793.069,772.277 793.898,783.627 794.728,772.277 795.557,726.01 796.386,944.219 797.215,737.709 798.044,1070.19 798.874,772.277 799.703,817.173 800.532,603.917 801.361,964.349 802.19,1042.11 803.02,882.077 803.849,1013.46 804.678,882.077 805.507,817.173 806.336,817.173 807.166,849.981 807.995,923.801 808.824,964.349 809.653,749.319 810.482,641.551 811.312,934.046 812.141,817.173 812.97,760.841 813.799,964.349 814.628,678.309 815.457,817.173 816.287,749.319 817.116,882.077 817.945,860.758 818.774,828.19 819.603,641.551 820.433,903.089 821.262,839.126 822.091,860.758 822.92,1013.46 823.749,591.173 824.579,913.482 825.408,783.627 826.237,839.126 827.066,726.01 827.895,714.222 828.725,653.899 829.554,1060.89 830.383,737.709 831.212,760.841 832.041,882.077 832.871,806.074 833.7,783.627 834.529,828.19 835.358,749.319 836.187,849.981 837.017,702.343 837.846,772.277 838.675,860.758 839.504,806.074 840.333,678.309 841.162,772.277 841.992,964.349 842.821,616.561 843.65,923.801 844.479,892.621 845.308,629.105 846.138,641.551 846.967,923.801 847.796,817.173 848.625,702.343 849.454,690.372 850.284,737.709 851.113,749.319 851.942,666.151 852.771,641.551 853.6,892.621 854.43,839.126 855.259,666.151 856.088,714.222 856.917,678.309 857.746,714.222 858.576,1042.11 859.405,860.758 860.234,666.151 861.063,806.074 861.892,714.222 862.721,525.897 863.551,616.561 864.38,772.277 865.209,828.19 866.038,641.551 866.867,783.627 867.697,839.126 868.526,828.19 869.355,974.309 870.184,817.173 871.013,871.456 871.843,806.074 872.672,964.349 873.501,678.309 874.33,860.758 875.159,737.709 875.989,525.897 876.818,714.222 877.647,760.841 878.476,678.309 879.305,839.126 880.135,783.627 880.964,794.892 881.793,849.981 882.622,783.627 883.451,760.841 884.28,954.32 885.11,903.089 885.939,783.627 886.768,726.01 887.597,749.319 888.426,839.126 889.256,783.627 890.085,882.077 890.914,794.892 891.743,737.709 892.572,760.841 893.402,806.074 894.231,839.126 895.06,760.841 895.889,616.561 896.718,817.173 897.548,806.074 898.377,714.222 899.206,882.077 900.035,690.372 900.864,913.482 901.694,871.456 902.523,760.841 903.352,726.01 904.181,666.151 905.01,539.164 905.839,828.19 906.669,860.758 907.498,690.372 908.327,737.709 909.156,749.319 909.985,828.19 910.815,666.151 911.644,760.841 912.473,749.319 913.302,923.801 914.131,772.277 914.961,892.621 915.79,760.841 916.619,794.892 917.448,702.343 918.277,641.551 919.107,772.277 919.936,737.709 920.765,749.319 921.594,783.627 922.423,772.277 923.253,641.551 924.082,678.309 924.911,714.222 925.74,783.627 926.569,772.277 927.399,882.077 928.228,690.372 929.057,772.277 929.886,783.627 930.715,737.709 931.544,794.892 932.374,954.32 933.203,772.277 934.032,749.319 934.861,794.892 935.69,629.105 936.52,806.074 937.349,783.627 938.178,726.01 939.007,726.01 939.836,499.037 940.666,690.372 941.495,603.917 942.324,860.758 943.153,726.01 943.982,882.077 944.812,749.319 945.641,690.372 946.47,749.319 947.299,828.19 948.128,817.173 948.958,806.074 949.787,772.277 950.616,839.126 951.445,806.074 952.274,616.561 953.103,772.277 953.933,849.981 954.762,678.309 955.591,892.621 956.42,794.892 957.249,690.372 958.079,737.709 958.908,934.046 959.737,616.561 960.566,690.372 961.395,702.343 962.225,806.074 963.054,603.917 963.883,616.561 964.712,954.32 965.541,702.343 966.371,653.899 967.2,749.319 968.029,760.841 968.858,653.899 969.687,690.372 970.517,578.327 971.346,616.561 972.175,749.319 973.004,429.922 973.833,666.151 974.662,678.309 975.492,629.105 976.321,591.173 977.15,772.277 977.979,690.372 978.808,616.561 979.638,828.19 980.467,772.277 981.296,737.709 982.125,714.222 982.954,760.841 983.784,702.343 984.613,653.899 985.442,749.319 986.271,772.277 987.1,772.277 987.93,714.222 988.759,714.222 989.588,666.151 990.417,552.323 991.246,737.709 992.076,702.343 992.905,714.222 993.734,783.627 994.563,565.377 995.392,603.917 996.222,726.01 997.051,653.899 997.88,552.323 998.709,737.709 999.538,653.899 1000.37,794.892 1001.2,839.126 1002.03,666.151 1002.86,552.323 1003.68,737.709 1004.51,552.323 1005.34,690.372 1006.17,629.105 1007,591.173 1007.83,737.709 1008.66,702.343 1009.49,726.01 1010.32,714.222 1011.15,783.627 1011.98,760.841 1012.81,772.277 1013.63,839.126 1014.46,603.917 1015.29,629.105 1016.12,578.327 1016.95,629.105 1017.78,934.046 1018.61,678.309 1019.44,749.319 1020.27,578.327 1021.1,714.222 1021.93,678.309 1022.76,678.309 1023.58,1032.63 1024.41,760.841 1025.24,828.19 1026.07,603.917 1026.9,666.151 1027.73,714.222 1028.56,817.173 1029.39,794.892 1030.22,653.899 1031.05,871.456 1031.88,913.482 1032.71,828.19 1033.54,512.522 1034.36,471.734 1035.19,565.377 1036.02,578.327 1036.85,690.372 1037.68,737.709 1038.51,653.899 1039.34,578.327 1040.17,578.327 1041,552.323 1041.83,806.074 1042.66,690.372 1043.49,690.372 1044.31,512.522 1045.14,578.327 1045.97,578.327 1046.8,794.892 1047.63,849.981 1048.46,806.074 1049.29,641.551 1050.12,690.372 1050.95,616.561 1051.78,772.277 1052.61,539.164 1053.44,726.01 1054.26,653.899 1055.09,616.561 1055.92,641.551 1056.75,760.841 1057.58,828.19 1058.41,760.841 1059.24,726.01 1060.07,760.841 1060.9,690.372 1061.73,485.442 1062.56,828.19 1063.39,839.126 1064.22,714.222 1065.04,629.105 1065.87,603.917 1066.7,666.151 1067.53,726.01 1068.36,678.309 1069.19,666.151 1070.02,578.327 1070.85,666.151 1071.68,443.976 1072.51,760.841 1073.34,737.709 1074.17,737.709 1074.99,552.323 1075.82,512.522 1076.65,565.377 1077.48,749.319 1078.31,772.277 1079.14,806.074 1079.97,641.551 1080.8,372.512 1081.63,666.151 1082.46,772.277 1083.29,512.522 1084.12,666.151 1084.95,760.841 1085.77,641.551 1086.6,806.074 1087.43,591.173 1088.26,539.164 1089.09,641.551 1089.92,641.551 1090.75,641.551 1091.58,760.841 1092.41,760.841 1093.24,749.319 1094.07,690.372 1094.9,641.551 1095.72,783.627 1096.55,678.309 1097.38,702.343 1098.21,616.561 1099.04,702.343 1099.87,737.709 1100.7,499.037 1101.53,714.222 1102.36,415.751 1103.19,616.561 1104.02,539.164 1104.85,772.277 1105.67,666.151 1106.5,499.037 1107.33,616.561 1108.16,702.343 1108.99,525.897 1109.82,512.522 1110.65,666.151 1111.48,749.319 1112.31,714.222 1113.14,828.19 1113.97,726.01 1114.8,678.309 1115.63,616.561 1116.45,485.442 1117.28,578.327 1118.11,578.327 1118.94,457.912 1119.77,702.343 1120.6,794.892 1121.43,653.899 1122.26,653.899 1123.09,666.151 1123.92,726.01 1124.75,525.897 1125.58,591.173 1126.4,839.126 1127.23,499.037 1128.06,641.551 1128.89,817.173 1129.72,737.709 1130.55,525.897 1131.38,565.377 1132.21,783.627 1133.04,817.173 1133.87,603.917 1134.7,591.173 1135.53,603.917 1136.36,443.976 1137.18,415.751 1138.01,641.551 1138.84,641.551 1139.67,457.912 1140.5,714.222 1141.33,666.151 1142.16,603.917 1142.99,525.897 1143.82,653.899 1144.65,726.01 1145.48,603.917 1146.31,591.173 1147.13,539.164 1147.96,726.01 1148.79,666.151 1149.62,653.899 1150.45,666.151 1151.28,578.327 1152.11,783.627 1152.94,702.343 1153.77,760.841 1154.6,702.343 1155.43,552.323 1156.26,603.917 1157.08,552.323 1157.91,578.327 1158.74,616.561 1159.57,737.709 1160.4,616.561 1161.23,591.173 1162.06,783.627 1162.89,629.105 1163.72,678.309 1164.55,653.899 1165.38,653.899 1166.21,653.899 1167.04,539.164 1167.86,616.561 1168.69,603.917 1169.52,783.627 1170.35,512.522 1171.18,666.151 1172.01,702.343 1172.84,565.377 1173.67,578.327 1174.5,499.037 1175.33,702.343 1176.16,539.164 1176.99,849.981 1177.81,616.561 1178.64,737.709 1179.47,760.841 1180.3,591.173 1181.13,641.551 1181.96,512.522 1182.79,565.377 1183.62,552.323 1184.45,641.551 1185.28,749.319 1186.11,591.173 1186.94,629.105 1187.77,849.981 1188.59,578.327 1189.42,525.897 1190.25,954.32 1191.08,552.323 1191.91,443.976 1192.74,666.151 1193.57,616.561 1194.4,578.327 1195.23,565.377 1196.06,512.522 1196.89,552.323 1197.72,443.976 1198.54,760.841 1199.37,726.01 1200.2,603.917 1201.03,641.551 1201.86,457.912 1202.69,471.734 1203.52,457.912 1204.35,401.459 1205.18,760.841 1206.01,429.922 1206.84,525.897 1207.67,565.377 1208.49,616.561 1209.32,591.173 1210.15,552.323 1210.98,512.522 1211.81,678.309 1212.64,471.734 1213.47,591.173 1214.3,666.151 1215.13,578.327 1215.96,485.442 1216.79,539.164 1217.62,591.173 1218.45,678.309 1219.27,772.277 1220.1,372.512 1220.93,565.377 1221.76,282.637 1222.59,539.164 1223.42,603.917 1224.25,678.309 1225.08,591.173 1225.91,485.442 1226.74,457.912 1227.57,539.164 1228.4,678.309 1229.22,372.512 1230.05,539.164 1230.88,828.19 1231.71,525.897 1232.54,678.309 1233.37,591.173 1234.2,499.037 1235.03,616.561 1235.86,666.151 1236.69,653.899 1237.52,552.323 1238.35,591.173 1239.17,678.309 1240,678.309 1240.83,629.105 1241.66,629.105 1242.49,702.343 1243.32,678.309 1244.15,690.372 1244.98,806.074 1245.81,629.105 1246.64,666.151 1247.47,297.942 1248.3,565.377 1249.13,499.037 1249.95,485.442 1250.78,578.327 1251.61,749.319 1252.44,401.459 1253.27,629.105 1254.1,539.164 1254.93,737.709 1255.76,702.343 1256.59,690.372 1257.42,616.561 1258.25,591.173 1259.08,565.377 1259.9,512.522 1260.73,525.897 1261.56,539.164 1262.39,457.912 1263.22,726.01 1264.05,629.105 1264.88,429.922 1265.71,457.912 1266.54,794.892 1267.37,499.037 1268.2,653.899 1269.03,737.709 1269.86,603.917 1270.68,690.372 1271.51,616.561 1272.34,714.222 1273.17,726.01 1274,616.561 1274.83,591.173 1275.66,629.105 1276.49,471.734 1277.32,603.917 1278.15,525.897 1278.98,485.442 1279.81,512.522 1280.63,552.323 1281.46,690.372 1282.29,512.522 1283.12,678.309 1283.95,603.917 1284.78,471.734 1285.61,783.627 1286.44,512.522 1287.27,471.734 1288.1,714.222 1288.93,539.164 1289.76,641.551 1290.58,737.709 1291.41,401.459 1292.24,702.343 1293.07,457.912 1293.9,565.377 1294.73,749.319 1295.56,552.323 1296.39,783.627 1297.22,565.377 1298.05,552.323 1298.88,485.442 1299.71,653.899 1300.54,702.343 1301.36,485.442 1302.19,666.151 1303.02,552.323 1303.85,603.917 1304.68,499.037 1305.51,485.442 1306.34,357.853 1307.17,603.917 1308,552.323 1308.83,690.372 1309.66,616.561 1310.49,401.459 1311.31,401.459 1312.14,565.377 1312.97,457.912 1313.8,499.037 1314.63,552.323 1315.46,512.522 1316.29,267.198 1317.12,539.164 1317.95,578.327 1318.78,702.343 1319.61,372.512 1320.44,525.897 1321.27,578.327 1322.09,603.917 1322.92,578.327 1323.75,471.734 1324.58,471.734 1325.41,525.897 1326.24,565.377 1327.07,328.156 1327.9,512.522 1328.73,485.442 1329.56,357.853 1330.39,629.105 1331.22,690.372 1332.04,499.037 1332.87,429.922 1333.7,726.01 1334.53,578.327 1335.36,552.323 1336.19,387.047 1337.02,539.164 1337.85,539.164 1338.68,552.323 1339.51,653.899 1340.34,443.976 1341.17,578.327 1341.99,471.734 1342.82,749.319 1343.65,591.173 1344.48,678.309 1345.31,552.323 1346.14,471.734 1346.97,578.327 1347.8,343.068 1348.63,591.173 1349.46,387.047 1350.29,485.442 1351.12,485.442 1351.95,443.976 1352.77,343.068 1353.6,603.917 1354.43,471.734 1355.26,666.151 1356.09,641.551 1356.92,401.459 1357.75,401.459 1358.58,429.922 1359.41,629.105 1360.24,603.917 1361.07,457.912 1361.9,702.343 1362.72,565.377 1363.55,641.551 1364.38,512.522 1365.21,591.173 1366.04,429.922 1366.87,443.976 1367.7,565.377 1368.53,591.173 1369.36,552.323 1370.19,552.323 1371.02,539.164 1371.85,525.897 1372.67,603.917 1373.5,641.551 1374.33,485.442 1375.16,666.151 1375.99,387.047 1376.82,591.173 1377.65,603.917 1378.48,415.751 1379.31,552.323 1380.14,678.309 1380.97,512.522 1381.8,666.151 1382.63,512.522 1383.45,737.709 1384.28,578.327 1385.11,578.327 1385.94,552.323 1386.77,578.327 1387.6,539.164 1388.43,471.734 1389.26,297.942 1390.09,565.377 1390.92,499.037 1391.75,443.976 1392.58,539.164 1393.4,401.459 1394.23,603.917 1395.06,578.327 1395.89,539.164 1396.72,678.309 1397.55,525.897 1398.38,578.327 1399.21,525.897 1400.04,616.561 1400.87,702.343 1401.7,471.734 1402.53,678.309 1403.36,539.164 1404.18,343.068 1405.01,591.173 1405.84,471.734 1406.67,591.173 1407.5,539.164 1408.33,641.551 1409.16,387.047 1409.99,552.323 1410.82,578.327 1411.65,702.343 1412.48,313.114 1413.31,603.917 1414.13,690.372 1414.96,512.522 1415.79,539.164 1416.62,690.372 1417.45,401.459 1418.28,457.912 1419.11,666.151 1419.94,387.047 1420.77,591.173 1421.6,539.164 1422.43,616.561 1423.26,565.377 1424.08,678.309 1424.91,702.343 1425.74,415.751 1426.57,616.561 1427.4,539.164 1428.23,591.173 1429.06,485.442 1429.89,591.173 1430.72,499.037 1431.55,666.151 1432.38,457.912 1433.21,525.897 1434.04,525.897 1434.86,512.522 1435.69,525.897 1436.52,443.976 1437.35,591.173 1438.18,603.917 1439.01,443.976 1439.84,591.173 1440.67,525.897 1441.5,372.512 1442.33,552.323 1443.16,565.377 1443.99,591.173 1444.81,457.912 1445.64,343.068 1446.47,552.323 1447.3,616.561 1448.13,443.976 1448.96,343.068 1449.79,525.897 1450.62,525.897 1451.45,512.522 1452.28,578.327 1453.11,539.164 1453.94,525.897 1454.77,415.751 1455.59,512.522 1456.42,343.068 1457.25,539.164 1458.08,552.323 1458.91,552.323 1459.74,457.912 1460.57,485.442 1461.4,343.068 1462.23,471.734 1463.06,603.917 1463.89,512.522 1464.72,457.912 1465.54,653.899 1466.37,401.459 1467.2,539.164 1468.03,591.173 1468.86,629.105 1469.69,457.912 1470.52,443.976 1471.35,457.912 1472.18,565.377 1473.01,457.912 1473.84,578.327 1474.67,525.897 1475.49,499.037 1476.32,641.551 1477.15,372.512 1477.98,457.912 1478.81,343.068 1479.64,457.912 1480.47,552.323 1481.3,629.105 1482.13,678.309 1482.96,457.912 1483.79,485.442 1484.62,525.897 1485.45,429.922 1486.27,499.037 1487.1,512.522 1487.93,372.512 1488.76,499.037 1489.59,578.327 1490.42,457.912 1491.25,499.037 1492.08,471.734 1492.91,485.442 1493.74,415.751 1494.57,641.551 1495.4,806.074 1496.22,653.899 1497.05,565.377 1497.88,415.751 1498.71,603.917 1499.54,552.323 1500.37,415.751 1501.2,457.912 1502.03,578.327 1502.86,714.222 1503.69,485.442 1504.52,328.156 1505.35,512.522 1506.18,485.442 1507,702.343 1507.83,457.912 1508.66,690.372 1509.49,387.047 1510.32,485.442 1511.15,552.323 1511.98,372.512 1512.81,471.734 1513.64,591.173 1514.47,457.912 1515.3,372.512 1516.13,499.037 1516.95,512.522 1517.78,415.751 1518.61,443.976 1519.44,499.037 1520.27,443.976 1521.1,499.037 1521.93,525.897 1522.76,343.068 1523.59,552.323 1524.42,443.976 1525.25,485.442 1526.08,578.327 1526.9,457.912 1527.73,603.917 1528.56,629.105 1529.39,343.068 1530.22,387.047 1531.05,578.327 1531.88,401.459 1532.71,641.551 1533.54,328.156 1534.37,415.751 1535.2,603.917 1536.03,443.976 1536.86,539.164 1537.68,565.377 1538.51,443.976 1539.34,552.323 1540.17,357.853 1541,471.734 1541.83,525.897 1542.66,343.068 1543.49,525.897 1544.32,629.105 1545.15,282.637 1545.98,401.459 1546.81,485.442 1547.63,539.164 1548.46,415.751 1549.29,565.377 1550.12,267.198 1550.95,471.734 1551.78,343.068 1552.61,629.105 1553.44,415.751 1554.27,387.047 1555.1,357.853 1555.93,401.459 1556.76,653.899 1557.58,485.442 1558.41,443.976 1559.24,512.522 1560.07,372.512 1560.9,485.442 1561.73,629.105 1562.56,512.522 1563.39,372.512 1564.22,387.047 1565.05,357.853 1565.88,525.897 1566.71,499.037 1567.54,539.164 1568.36,512.522 1569.19,457.912 1570.02,313.114 1570.85,525.897 1571.68,457.912 1572.51,443.976 1573.34,387.047 1574.17,343.068 1575,499.037 1575.83,429.922 1576.66,429.922 1577.49,267.198 1578.31,525.897 1579.14,525.897 1579.97,415.751 1580.8,372.512 1581.63,485.442 1582.46,499.037 1583.29,443.976 1584.12,328.156 1584.95,313.114 1585.78,552.323 1586.61,471.734 1587.44,552.323 1588.27,401.459 1589.09,457.912 1589.92,499.037 1590.75,313.114 1591.58,690.372 1592.41,616.561 1593.24,457.912 1594.07,282.637 1594.9,457.912 1595.73,415.751 1596.56,457.912 1597.39,525.897 1598.22,512.522 1599.04,282.637 1599.87,471.734 1600.7,415.751 1601.53,343.068 1602.36,343.068 1603.19,499.037 1604.02,415.751 1604.85,578.327 1605.68,525.897 1606.51,155.212 1607.34,401.459 1608.17,552.323 1608.99,443.976 1609.82,565.377 1610.65,401.459 1611.48,415.751 1612.31,429.922 1613.14,690.372 1613.97,591.173 1614.8,313.114 1615.63,525.897 1616.46,499.037 1617.29,313.114 1618.12,429.922 1618.95,629.105 1619.77,429.922 1620.6,512.522 1621.43,443.976 1622.26,499.037 1623.09,499.037 1623.92,512.522 1624.75,297.942 1625.58,429.922 1626.41,471.734 1627.24,485.442 1628.07,429.922 1628.9,415.751 1629.72,387.047 1630.55,328.156 1631.38,525.897 1632.21,552.323 1633.04,552.323 1633.87,387.047 1634.7,235.91 1635.53,357.853 1636.36,457.912 1637.19,603.917 1638.02,471.734 1638.85,343.068 1639.68,401.459 1640.5,485.442 1641.33,328.156 1642.16,401.459 1642.99,415.751 1643.82,313.114 1644.65,343.068 1645.48,328.156 1646.31,429.922 1647.14,372.512 1647.97,772.277 1648.8,578.327 1649.63,471.734 1650.45,471.734 1651.28,429.922 1652.11,429.922 1652.94,297.942 1653.77,372.512 1654.6,578.327 1655.43,357.853 1656.26,401.459 1657.09,155.212 1657.92,512.522 1658.75,343.068 1659.58,457.912 1660.4,357.853 1661.23,401.459 1662.06,415.751 1662.89,429.922 1663.72,499.037 1664.55,282.637 1665.38,343.068 1666.21,552.323 1667.04,204.063 1667.87,457.912 1668.7,525.897 1669.53,235.91 1670.36,415.751 1671.18,282.637 1672.01,525.897 1672.84,443.976 1673.67,471.734 1674.5,372.512 1675.33,297.942 1676.16,372.512 1676.99,471.734 1677.82,220.057 1678.65,539.164 1679.48,443.976 1680.31,525.897 1681.13,525.897 1681.96,471.734 1682.79,372.512 1683.62,187.925 1684.45,443.976 1685.28,267.198 1686.11,471.734 1686.94,565.377 1687.77,387.047 1688.6,387.047 1689.43,512.522 1690.26,282.637 1691.08,443.976 1691.91,387.047 1692.74,357.853 1693.57,512.522 1694.4,372.512 1695.23,499.037 1696.06,457.912 1696.89,565.377 1697.72,525.897 1698.55,565.377 1699.38,525.897 1700.21,443.976 1701.04,471.734 1701.86,457.912 1702.69,591.173 1703.52,485.442 1704.35,578.327 1705.18,372.512 1706.01,443.976 1706.84,267.198 1707.67,443.976 1708.5,297.942 1709.33,343.068 1710.16,429.922 1710.99,443.976 1711.81,372.512 1712.64,499.037 1713.47,457.912 1714.3,512.522 1715.13,485.442 1715.96,313.114 1716.79,591.173 1717.62,457.912 1718.45,387.047 1719.28,401.459 1720.11,357.853 1720.94,525.897 1721.77,387.047 1722.59,552.323 1723.42,387.047 1724.25,471.734 1725.08,539.164 1725.91,415.751 1726.74,372.512 1727.57,297.942 1728.4,313.114 1729.23,512.522 1730.06,591.173 1730.89,512.522 1731.72,429.922 1732.54,372.512 1733.37,343.068 1734.2,499.037 1735.03,485.442 1735.86,690.372 1736.69,457.912 1737.52,499.037 1738.35,485.442 1739.18,443.976 1740.01,372.512 1740.84,357.853 1741.67,485.442 1742.49,372.512 1743.32,443.976 1744.15,387.047 1744.98,372.512 1745.81,457.912 1746.64,666.151 1747.47,297.942 1748.3,471.734 1749.13,401.459 1749.96,387.047 1750.79,372.512 1751.62,429.922 1752.45,372.512 1753.27,357.853 1754.1,443.976 1754.93,525.897 1755.76,343.068 1756.59,328.156 1757.42,429.922 1758.25,372.512 1759.08,471.734 1759.91,499.037 1760.74,499.037 1761.57,267.198 1762.4,415.751 1763.22,429.922 1764.05,499.037 1764.88,372.512 1765.71,251.623 1766.54,471.734 1767.37,616.561 1768.2,539.164 1769.03,387.047 1769.86,387.047 1770.69,387.047 1771.52,415.751 1772.35,443.976 1773.18,578.327 1774,415.751 1774.83,539.164 1775.66,415.751 1776.49,443.976 1777.32,443.976 1778.15,443.976 1778.98,457.912 1779.81,297.942 1780.64,401.459 1781.47,328.156 1782.3,429.922 1783.13,357.853 1783.95,702.343 1784.78,415.751 1785.61,297.942 1786.44,401.459 1787.27,485.442 1788.1,415.751 1788.93,387.047 1789.76,357.853 1790.59,565.377 1791.42,343.068 1792.25,372.512 1793.08,485.442 1793.9,387.047 1794.73,372.512 1795.56,512.522 1796.39,641.551 1797.22,220.057 1798.05,429.922 1798.88,328.156 1799.71,372.512 1800.54,343.068 1801.37,552.323 1802.2,457.912 1803.03,415.751 1803.86,328.156 1804.68,328.156 1805.51,387.047 1806.34,235.91 1807.17,297.942 1808,297.942 1808.83,578.327 1809.66,372.512 1810.49,415.751 1811.32,471.734 1812.15,457.912 1812.98,297.942 1813.81,220.057 1814.63,187.925 1815.46,313.114 1816.29,282.637 1817.12,343.068 1817.95,457.912 1818.78,443.976 1819.61,552.323 1820.44,328.156 1821.27,457.912 1822.1,471.734 1822.93,372.512 1823.76,401.459 1824.59,525.897 1825.41,387.047 1826.24,552.323 1827.07,457.912 1827.9,443.976 1828.73,297.942 1829.56,343.068 1830.39,343.068 1831.22,387.047 1832.05,328.156 1832.88,328.156 1833.71,443.976 1834.54,297.942 1835.36,220.057 1836.19,297.942 1837.02,401.459 1837.85,499.037 1838.68,357.853 1839.51,387.047 1840.34,485.442 1841.17,471.734 1842,429.922 1842.83,457.912 1843.66,372.512 1844.49,415.751 1845.31,372.512 1846.14,387.047 1846.97,578.327 1847.8,297.942 1848.63,485.442 1849.46,387.047 1850.29,372.512 1851.12,357.853 1851.95,372.512 1852.78,343.068 1853.61,485.442 1854.44,415.751 1855.27,457.912 1856.09,387.047 1856.92,565.377 1857.75,415.751 1858.58,313.114 1859.41,313.114 1860.24,415.751 1861.07,429.922 1861.9,457.912 1862.73,357.853 1863.56,313.114 1864.39,328.156 1865.22,372.512 1866.04,372.512 1866.87,415.751 1867.7,372.512 1868.53,443.976 1869.36,471.734 1870.19,485.442 1871.02,616.561 1871.85,415.751 1872.68,220.057 1873.51,443.976 1874.34,387.047 1875.17,267.198 1875.99,457.912 1876.82,357.853 1877.65,387.047 1878.48,457.912 1879.31,539.164 1880.14,512.522 1880.97,471.734 1881.8,539.164 1882.63,328.156 1883.46,297.942 1884.29,297.942 1885.12,485.442 1885.95,565.377 1886.77,372.512 1887.6,313.114 1888.43,578.327 1889.26,401.459 1890.09,429.922 1890.92,313.114 1891.75,641.551 1892.58,499.037 1893.41,267.198 1894.24,443.976 1895.07,443.976 1895.9,328.156 1896.72,443.976 1897.55,471.734 1898.38,357.853 1899.21,471.734 1900.04,443.976 1900.87,357.853 1901.7,401.459 1902.53,457.912 1903.36,443.976 1904.19,415.751 1905.02,387.047 1905.85,616.561 1906.68,512.522 1907.5,357.853 1908.33,155.212 1909.16,343.068 1909.99,387.047 1910.82,512.522 1911.65,343.068 1912.48,401.459 1913.31,471.734 1914.14,343.068 1914.97,512.522 1915.8,512.522 1916.63,512.522 1917.45,401.459 1918.28,401.459 1919.11,457.912 1919.94,457.912 1920.77,297.942 1921.6,539.164 1922.43,343.068 1923.26,251.623 1924.09,429.922 1924.92,343.068 1925.75,297.942 1926.58,357.853 1927.4,387.047 1928.23,343.068 1929.06,429.922 1929.89,387.047 1930.72,357.853 1931.55,485.442 1932.38,415.751 1933.21,401.459 1934.04,313.114 1934.87,357.853 1935.7,387.047 1936.53,282.637 1937.36,297.942 1938.18,512.522 1939.01,357.853 1939.84,415.751 1940.67,251.623 1941.5,387.047 1942.33,267.198 1943.16,328.156 1943.99,499.037 1944.82,220.057 1945.65,401.459 1946.48,251.623 1947.31,357.853 1948.13,415.751 1948.96,499.037 1949.79,357.853 1950.62,616.561 1951.45,313.114 1952.28,235.91 1953.11,387.047 1953.94,429.922 1954.77,282.637 1955.6,220.057 1956.43,235.91 1957.26,343.068 1958.09,401.459 1958.91,443.976 1959.74,343.068 1960.57,313.114 1961.4,387.047 1962.23,415.751 1963.06,204.063 1963.89,313.114 1964.72,415.751 1965.55,343.068 1966.38,328.156 1967.21,499.037 1968.04,629.105 1968.86,251.623 1969.69,429.922 1970.52,372.512 1971.35,372.512 1972.18,401.459 1973.01,372.512 1973.84,387.047 1974.67,372.512 1975.5,401.459 1976.33,429.922 1977.16,138.632 1977.99,415.751 1978.81,499.037 1979.64,235.91 1980.47,328.156 1981.3,443.976 1982.13,429.922 1982.96,429.922 1983.79,512.522 1984.62,220.057 1985.45,457.912 1986.28,220.057 1987.11,401.459 1987.94,429.922 1988.77,485.442 1989.59,313.114 1990.42,328.156 1991.25,313.114 1992.08,328.156 1992.91,328.156 1993.74,282.637 1994.57,415.751 1995.4,401.459 1996.23,443.976 1997.06,499.037 1997.89,429.922 1998.72,297.942 1999.54,429.922 2000.37,387.047 2001.2,539.164 2002.03,429.922 2002.86,372.512 2003.69,187.925 2004.52,457.912 2005.35,443.976 2006.18,343.068 2007.01,328.156 2007.84,357.853 2008.67,372.512 2009.49,357.853 2010.32,328.156 2011.15,251.623 2011.98,499.037 2012.81,251.623 2013.64,443.976 2014.47,328.156 2015.3,313.114 2016.13,313.114 2016.96,328.156 2017.79,343.068 2018.62,357.853 2019.45,429.922 2020.27,343.068 2021.1,387.047 2021.93,372.512 2022.76,235.91 2023.59,552.323 2024.42,485.442 2025.25,328.156 2026.08,187.925 2026.91,387.047 2027.74,565.377 2028.57,343.068 2029.4,297.942 2030.22,525.897 2031.05,471.734 2031.88,187.925 2032.71,512.522 2033.54,387.047 2034.37,267.198 2035.2,443.976 2036.03,313.114 2036.86,512.522 2037.69,235.91 2038.52,313.114 2039.35,343.068 2040.18,282.637 2041,357.853 2041.83,415.751 2042.66,313.114 2043.49,415.751 2044.32,251.623 2045.15,443.976 2045.98,282.637 2046.81,357.853 2047.64,387.047 2048.47,235.91 2049.3,401.459 2050.13,313.114 2050.95,328.156 2051.78,457.912 2052.61,372.512 2053.44,267.198 2054.27,415.751 2055.1,443.976 2055.93,282.637 2056.76,401.459 2057.59,429.922 2058.42,297.942 2059.25,415.751 2060.08,251.623 2060.9,457.912 2061.73,372.512 2062.56,251.623 2063.39,204.063 2064.22,187.925 2065.05,387.047 2065.88,235.91 2066.71,387.047 2067.54,328.156 2068.37,235.91 2069.2,267.198 2070.03,251.623 2070.86,429.922 2071.68,457.912 2072.51,415.751 2073.34,267.198 2074.17,357.853 2075,297.942 2075.83,220.057 2076.66,267.198 2077.49,457.912 2078.32,267.198 2079.15,282.637 2079.98,187.925 2080.81,313.114 2081.63,297.942 2082.46,372.512 2083.29,343.068 2084.12,471.734 2084.95,429.922 2085.78,357.853 2086.61,443.976 2087.44,328.156 2088.27,429.922 2089.1,343.068 2089.93,267.198 2090.76,525.897 2091.59,401.459 2092.41,235.91 2093.24,313.114 2094.07,282.637 2094.9,401.459 2095.73,415.751 2096.56,357.853 2097.39,328.156 2098.22,525.897 2099.05,387.047 2099.88,220.057 2100.71,313.114 2101.54,297.942 2102.36,429.922 2103.19,457.912 2104.02,297.942 2104.85,443.976 2105.68,552.323 2106.51,138.632 2107.34,313.114 2108.17,328.156 2109,415.751 2109.83,525.897 2110.66,485.442 2111.49,499.037 2112.31,343.068 2113.14,578.327 2113.97,457.912 2114.8,328.156 2115.63,429.922 2116.46,328.156 2117.29,297.942 2118.12,372.512 2118.95,471.734 2119.78,499.037 2120.61,401.459 2121.44,328.156 2122.27,328.156 2123.09,429.922 2123.92,401.459 2124.75,387.047 2125.58,539.164 2126.41,387.047 2127.24,372.512 2128.07,343.068 2128.9,328.156 2129.73,328.156 2130.56,443.976 2131.39,357.853 2132.22,415.751 2133.04,328.156 2133.87,251.623 2134.7,485.442 2135.53,443.976 2136.36,297.942 2137.19,235.91 2138.02,357.853 2138.85,313.114 2139.68,415.751 2140.51,313.114 2141.34,313.114 2142.17,204.063 2143,343.068 2143.82,357.853 2144.65,155.212 2145.48,387.047 2146.31,429.922 2147.14,328.156 2147.97,401.459 2148.8,328.156 2149.63,328.156 2150.46,235.91 2151.29,313.114 2152.12,457.912 2152.95,313.114 2153.77,235.91 2154.6,499.037 2155.43,328.156 2156.26,499.037 2157.09,457.912 2157.92,372.512 2158.75,457.912 2159.58,443.976 2160.41,313.114 2161.24,282.637 2162.07,267.198 2162.9,343.068 2163.72,485.442 2164.55,443.976 2165.38,429.922 2166.21,282.637 2167.04,267.198 2167.87,357.853 2168.7,387.047 2169.53,357.853 2170.36,343.068 2171.19,267.198 2172.02,267.198 2172.85,282.637 2173.68,443.976 2174.5,87.9763 2175.33,471.734 2176.16,313.114 2176.99,313.114 2177.82,357.853 2178.65,357.853 2179.48,387.047 2180.31,525.897 2181.14,499.037 2181.97,313.114 2182.8,443.976 2183.63,267.198 2184.45,313.114 2185.28,220.057 2186.11,343.068 2186.94,429.922 2187.77,220.057 2188.6,387.047 2189.43,343.068 2190.26,313.114 2191.09,357.853 2191.92,328.156 2192.75,512.522 2193.58,313.114 2194.4,415.751 2195.23,357.853 2196.06,282.637 2196.89,387.047 2197.72,357.853 2198.55,328.156 2199.38,471.734 2200.21,429.922 2201.04,155.212 2201.87,401.459 2202.7,267.198 2203.53,267.198 2204.36,429.922 2205.18,121.901 2206.01,429.922 2206.84,525.897 2207.67,313.114 2208.5,313.114 2209.33,313.114 2210.16,267.198 2210.99,443.976 2211.82,204.063 2212.65,372.512 2213.48,297.942 2214.31,328.156 2215.13,282.637 2215.96,313.114 2216.79,429.922 2217.62,343.068 2218.45,401.459 2219.28,387.047 2220.11,313.114 2220.94,343.068 2221.77,443.976 2222.6,235.91 2223.43,313.114 2224.26,328.156 2225.09,372.512 2225.91,267.198 2226.74,457.912 2227.57,357.853 2228.4,282.637 2229.23,387.047 2230.06,415.751 2230.89,204.063 2231.72,297.942 2232.55,251.623 2233.38,155.212 2234.21,401.459 2235.04,328.156 2235.86,401.459 2236.69,415.751 2237.52,313.114 2238.35,387.047 2239.18,415.751 2240.01,282.637 2240.84,204.063 2241.67,204.063 2242.5,282.637 2243.33,235.91 2244.16,297.942 2244.99,267.198 2245.81,267.198 2246.64,187.925 2247.47,267.198 2248.3,401.459 2249.13,297.942 2249.96,471.734 2250.79,443.976 2251.62,401.459 2252.45,387.047 2253.28,387.047 2254.11,235.91 2254.94,401.459 2255.77,499.037 2256.59,357.853 2257.42,328.156 2258.25,204.063 2259.08,313.114 2259.91,457.912 2260.74,415.751 2261.57,313.114 2262.4,343.068 2263.23,372.512 2264.06,485.442 2264.89,415.751 2265.72,443.976 2266.54,387.047 2267.37,313.114 2268.2,220.057 2269.03,220.057 2269.86,429.922 2270.69,328.156 2271.52,282.637 2272.35,235.91 2273.18,297.942 2274.01,313.114 2274.84,204.063 2275.67,457.912 2276.5,372.512 2277.32,485.442 2278.15,343.068 2278.98,328.156 2279.81,328.156 2280.64,267.198 2281.47,328.156 2282.3,415.751 2283.13,267.198 2283.96,429.922 2284.79,343.068 2285.62,267.198 2286.45,251.623 2287.27,220.057 2288.1,297.942 2288.93,415.751 2289.76,357.853 2290.59,267.198 "/>
<path clip-path="url(#clip190)" d="M229.49 198.898 L501.569 198.898 L501.569 95.2176 L229.49 95.2176  Z" fill="#ffffff" fill-rule="evenodd" fill-opacity="1"/>
<polyline clip-path="url(#clip190)" style="stroke:#000000; stroke-linecap:round; stroke-linejoin:round; stroke-width:4; stroke-opacity:1; fill:none" points="229.49,198.898 501.569,198.898 501.569,95.2176 229.49,95.2176 229.49,198.898 "/>
<polyline clip-path="url(#clip190)" style="stroke:#009af9; stroke-linecap:round; stroke-linejoin:round; stroke-width:4; stroke-opacity:1; fill:none" points="253.896,147.058 400.328,147.058 "/>
<path clip-path="url(#clip190)" d="M438.576 166.745 Q436.77 171.375 435.057 172.787 Q433.344 174.199 430.474 174.199 L427.071 174.199 L427.071 170.634 L429.571 170.634 Q431.33 170.634 432.302 169.8 Q433.275 168.967 434.455 165.865 L435.219 163.921 L424.733 138.412 L429.247 138.412 L437.349 158.689 L445.451 138.412 L449.964 138.412 L438.576 166.745 Z" fill="#000000" fill-rule="nonzero" fill-opacity="1" /><path clip-path="url(#clip190)" d="M457.256 160.402 L464.895 160.402 L464.895 134.037 L456.585 135.703 L456.585 131.444 L464.849 129.778 L469.524 129.778 L469.524 160.402 L477.163 160.402 L477.163 164.338 L457.256 164.338 L457.256 160.402 Z" fill="#000000" fill-rule="nonzero" fill-opacity="1" /></svg>
