<?xml version="1.0" encoding="utf-8"?>
<svg xmlns="http://www.w3.org/2000/svg" xmlns:xlink="http://www.w3.org/1999/xlink" width="600" height="400" viewBox="0 0 2400 1600">
<defs>
  <clipPath id="clip290">
    <rect x="0" y="0" width="2400" height="1600"/>
  </clipPath>
</defs>
<path clip-path="url(#clip290)" d="M0 1600 L2400 1600 L2400 0 L0 0  Z" fill="#ffffff" fill-rule="evenodd" fill-opacity="1"/>
<defs>
  <clipPath id="clip291">
    <rect x="480" y="0" width="1681" height="1600"/>
  </clipPath>
</defs>
<path clip-path="url(#clip290)" d="M156.274 1486.45 L2352.76 1486.45 L2352.76 47.2441 L156.274 47.2441  Z" fill="#ffffff" fill-rule="evenodd" fill-opacity="1"/>
<defs>
  <clipPath id="clip292">
    <rect x="156" y="47" width="2197" height="1440"/>
  </clipPath>
</defs>
<polyline clip-path="url(#clip292)" style="stroke:#000000; stroke-linecap:round; stroke-linejoin:round; stroke-width:2; stroke-opacity:0.1; fill:none" points="218.439,1486.45 218.439,47.2441 "/>
<polyline clip-path="url(#clip292)" style="stroke:#000000; stroke-linecap:round; stroke-linejoin:round; stroke-width:2; stroke-opacity:0.1; fill:none" points="633.035,1486.45 633.035,47.2441 "/>
<polyline clip-path="url(#clip292)" style="stroke:#000000; stroke-linecap:round; stroke-linejoin:round; stroke-width:2; stroke-opacity:0.1; fill:none" points="1047.63,1486.45 1047.63,47.2441 "/>
<polyline clip-path="url(#clip292)" style="stroke:#000000; stroke-linecap:round; stroke-linejoin:round; stroke-width:2; stroke-opacity:0.1; fill:none" points="1462.23,1486.45 1462.23,47.2441 "/>
<polyline clip-path="url(#clip292)" style="stroke:#000000; stroke-linecap:round; stroke-linejoin:round; stroke-width:2; stroke-opacity:0.1; fill:none" points="1876.82,1486.45 1876.82,47.2441 "/>
<polyline clip-path="url(#clip292)" style="stroke:#000000; stroke-linecap:round; stroke-linejoin:round; stroke-width:2; stroke-opacity:0.1; fill:none" points="2291.42,1486.45 2291.42,47.2441 "/>
<polyline clip-path="url(#clip290)" style="stroke:#000000; stroke-linecap:round; stroke-linejoin:round; stroke-width:4; stroke-opacity:1; fill:none" points="156.274,1486.45 2352.76,1486.45 "/>
<polyline clip-path="url(#clip290)" style="stroke:#000000; stroke-linecap:round; stroke-linejoin:round; stroke-width:4; stroke-opacity:1; fill:none" points="218.439,1486.45 218.439,1467.55 "/>
<polyline clip-path="url(#clip290)" style="stroke:#000000; stroke-linecap:round; stroke-linejoin:round; stroke-width:4; stroke-opacity:1; fill:none" points="633.035,1486.45 633.035,1467.55 "/>
<polyline clip-path="url(#clip290)" style="stroke:#000000; stroke-linecap:round; stroke-linejoin:round; stroke-width:4; stroke-opacity:1; fill:none" points="1047.63,1486.45 1047.63,1467.55 "/>
<polyline clip-path="url(#clip290)" style="stroke:#000000; stroke-linecap:round; stroke-linejoin:round; stroke-width:4; stroke-opacity:1; fill:none" points="1462.23,1486.45 1462.23,1467.55 "/>
<polyline clip-path="url(#clip290)" style="stroke:#000000; stroke-linecap:round; stroke-linejoin:round; stroke-width:4; stroke-opacity:1; fill:none" points="1876.82,1486.45 1876.82,1467.55 "/>
<polyline clip-path="url(#clip290)" style="stroke:#000000; stroke-linecap:round; stroke-linejoin:round; stroke-width:4; stroke-opacity:1; fill:none" points="2291.42,1486.45 2291.42,1467.55 "/>
<path clip-path="url(#clip290)" d="M218.439 1517.37 Q214.828 1517.37 212.999 1520.93 Q211.193 1524.47 211.193 1531.6 Q211.193 1538.71 212.999 1542.27 Q214.828 1545.82 218.439 1545.82 Q222.073 1545.82 223.879 1542.27 Q225.707 1538.71 225.707 1531.6 Q225.707 1524.47 223.879 1520.93 Q222.073 1517.37 218.439 1517.37 M218.439 1513.66 Q224.249 1513.66 227.304 1518.27 Q230.383 1522.85 230.383 1531.6 Q230.383 1540.33 227.304 1544.94 Q224.249 1549.52 218.439 1549.52 Q212.629 1549.52 209.55 1544.94 Q206.494 1540.33 206.494 1531.6 Q206.494 1522.85 209.55 1518.27 Q212.629 1513.66 218.439 1513.66 Z" fill="#000000" fill-rule="nonzero" fill-opacity="1" /><path clip-path="url(#clip290)" d="M592.653 1514.29 L611.01 1514.29 L611.01 1518.22 L596.936 1518.22 L596.936 1526.7 Q597.954 1526.35 598.973 1526.19 Q599.991 1526 601.01 1526 Q606.797 1526 610.176 1529.17 Q613.556 1532.34 613.556 1537.76 Q613.556 1543.34 610.084 1546.44 Q606.612 1549.52 600.292 1549.52 Q598.116 1549.52 595.848 1549.15 Q593.602 1548.78 591.195 1548.04 L591.195 1543.34 Q593.278 1544.47 595.501 1545.03 Q597.723 1545.58 600.2 1545.58 Q604.204 1545.58 606.542 1543.48 Q608.88 1541.37 608.88 1537.76 Q608.88 1534.15 606.542 1532.04 Q604.204 1529.94 600.2 1529.94 Q598.325 1529.94 596.45 1530.35 Q594.598 1530.77 592.653 1531.65 L592.653 1514.29 Z" fill="#000000" fill-rule="nonzero" fill-opacity="1" /><path clip-path="url(#clip290)" d="M632.769 1517.37 Q629.158 1517.37 627.329 1520.93 Q625.524 1524.47 625.524 1531.6 Q625.524 1538.71 627.329 1542.27 Q629.158 1545.82 632.769 1545.82 Q636.403 1545.82 638.209 1542.27 Q640.037 1538.71 640.037 1531.6 Q640.037 1524.47 638.209 1520.93 Q636.403 1517.37 632.769 1517.37 M632.769 1513.66 Q638.579 1513.66 641.635 1518.27 Q644.713 1522.85 644.713 1531.6 Q644.713 1540.33 641.635 1544.94 Q638.579 1549.52 632.769 1549.52 Q626.959 1549.52 623.88 1544.94 Q620.825 1540.33 620.825 1531.6 Q620.825 1522.85 623.88 1518.27 Q626.959 1513.66 632.769 1513.66 Z" fill="#000000" fill-rule="nonzero" fill-opacity="1" /><path clip-path="url(#clip290)" d="M662.931 1517.37 Q659.32 1517.37 657.491 1520.93 Q655.685 1524.47 655.685 1531.6 Q655.685 1538.71 657.491 1542.27 Q659.32 1545.82 662.931 1545.82 Q666.565 1545.82 668.371 1542.27 Q670.199 1538.71 670.199 1531.6 Q670.199 1524.47 668.371 1520.93 Q666.565 1517.37 662.931 1517.37 M662.931 1513.66 Q668.741 1513.66 671.796 1518.27 Q674.875 1522.85 674.875 1531.6 Q674.875 1540.33 671.796 1544.94 Q668.741 1549.52 662.931 1549.52 Q657.121 1549.52 654.042 1544.94 Q650.986 1540.33 650.986 1531.6 Q650.986 1522.85 654.042 1518.27 Q657.121 1513.66 662.931 1513.66 Z" fill="#000000" fill-rule="nonzero" fill-opacity="1" /><path clip-path="url(#clip290)" d="M992.157 1544.91 L999.796 1544.91 L999.796 1518.55 L991.486 1520.21 L991.486 1515.95 L999.75 1514.29 L1004.43 1514.29 L1004.43 1544.91 L1012.06 1544.91 L1012.06 1548.85 L992.157 1548.85 L992.157 1544.91 Z" fill="#000000" fill-rule="nonzero" fill-opacity="1" /><path clip-path="url(#clip290)" d="M1031.51 1517.37 Q1027.9 1517.37 1026.07 1520.93 Q1024.26 1524.47 1024.26 1531.6 Q1024.26 1538.71 1026.07 1542.27 Q1027.9 1545.82 1031.51 1545.82 Q1035.14 1545.82 1036.95 1542.27 Q1038.78 1538.71 1038.78 1531.6 Q1038.78 1524.47 1036.95 1520.93 Q1035.14 1517.37 1031.51 1517.37 M1031.51 1513.66 Q1037.32 1513.66 1040.37 1518.27 Q1043.45 1522.85 1043.45 1531.6 Q1043.45 1540.33 1040.37 1544.94 Q1037.32 1549.52 1031.51 1549.52 Q1025.7 1549.52 1022.62 1544.94 Q1019.56 1540.33 1019.56 1531.6 Q1019.56 1522.85 1022.62 1518.27 Q1025.7 1513.66 1031.51 1513.66 Z" fill="#000000" fill-rule="nonzero" fill-opacity="1" /><path clip-path="url(#clip290)" d="M1061.67 1517.37 Q1058.06 1517.37 1056.23 1520.93 Q1054.43 1524.47 1054.43 1531.6 Q1054.43 1538.71 1056.23 1542.27 Q1058.06 1545.82 1061.67 1545.82 Q1065.3 1545.82 1067.11 1542.27 Q1068.94 1538.71 1068.94 1531.6 Q1068.94 1524.47 1067.11 1520.93 Q1065.3 1517.37 1061.67 1517.37 M1061.67 1513.66 Q1067.48 1513.66 1070.54 1518.27 Q1073.62 1522.85 1073.62 1531.6 Q1073.62 1540.33 1070.54 1544.94 Q1067.48 1549.52 1061.67 1549.52 Q1055.86 1549.52 1052.78 1544.94 Q1049.73 1540.33 1049.73 1531.6 Q1049.73 1522.85 1052.78 1518.27 Q1055.86 1513.66 1061.67 1513.66 Z" fill="#000000" fill-rule="nonzero" fill-opacity="1" /><path clip-path="url(#clip290)" d="M1091.83 1517.37 Q1088.22 1517.37 1086.39 1520.93 Q1084.59 1524.47 1084.59 1531.6 Q1084.59 1538.71 1086.39 1542.27 Q1088.22 1545.82 1091.83 1545.82 Q1095.47 1545.82 1097.27 1542.27 Q1099.1 1538.71 1099.1 1531.6 Q1099.1 1524.47 1097.27 1520.93 Q1095.47 1517.37 1091.83 1517.37 M1091.83 1513.66 Q1097.64 1513.66 1100.7 1518.27 Q1103.78 1522.85 1103.78 1531.6 Q1103.78 1540.33 1100.7 1544.94 Q1097.64 1549.52 1091.83 1549.52 Q1086.02 1549.52 1082.94 1544.94 Q1079.89 1540.33 1079.89 1531.6 Q1079.89 1522.85 1082.94 1518.27 Q1086.02 1513.66 1091.83 1513.66 Z" fill="#000000" fill-rule="nonzero" fill-opacity="1" /><path clip-path="url(#clip290)" d="M1406.75 1544.91 L1414.39 1544.91 L1414.39 1518.55 L1406.08 1520.21 L1406.08 1515.95 L1414.35 1514.29 L1419.02 1514.29 L1419.02 1544.91 L1426.66 1544.91 L1426.66 1548.85 L1406.75 1548.85 L1406.75 1544.91 Z" fill="#000000" fill-rule="nonzero" fill-opacity="1" /><path clip-path="url(#clip290)" d="M1436.15 1514.29 L1454.51 1514.29 L1454.51 1518.22 L1440.43 1518.22 L1440.43 1526.7 Q1441.45 1526.35 1442.47 1526.19 Q1443.49 1526 1444.51 1526 Q1450.3 1526 1453.67 1529.17 Q1457.05 1532.34 1457.05 1537.76 Q1457.05 1543.34 1453.58 1546.44 Q1450.11 1549.52 1443.79 1549.52 Q1441.61 1549.52 1439.35 1549.15 Q1437.1 1548.78 1434.69 1548.04 L1434.69 1543.34 Q1436.78 1544.47 1439 1545.03 Q1441.22 1545.58 1443.7 1545.58 Q1447.7 1545.58 1450.04 1543.48 Q1452.38 1541.37 1452.38 1537.76 Q1452.38 1534.15 1450.04 1532.04 Q1447.7 1529.94 1443.7 1529.94 Q1441.82 1529.94 1439.95 1530.35 Q1438.1 1530.77 1436.15 1531.65 L1436.15 1514.29 Z" fill="#000000" fill-rule="nonzero" fill-opacity="1" /><path clip-path="url(#clip290)" d="M1476.27 1517.37 Q1472.66 1517.37 1470.83 1520.93 Q1469.02 1524.47 1469.02 1531.6 Q1469.02 1538.71 1470.83 1542.27 Q1472.66 1545.82 1476.27 1545.82 Q1479.9 1545.82 1481.71 1542.27 Q1483.54 1538.71 1483.54 1531.6 Q1483.54 1524.47 1481.71 1520.93 Q1479.9 1517.37 1476.27 1517.37 M1476.27 1513.66 Q1482.08 1513.66 1485.13 1518.27 Q1488.21 1522.85 1488.21 1531.6 Q1488.21 1540.33 1485.13 1544.94 Q1482.08 1549.52 1476.27 1549.52 Q1470.46 1549.52 1467.38 1544.94 Q1464.32 1540.33 1464.32 1531.6 Q1464.32 1522.85 1467.38 1518.27 Q1470.46 1513.66 1476.27 1513.66 Z" fill="#000000" fill-rule="nonzero" fill-opacity="1" /><path clip-path="url(#clip290)" d="M1506.43 1517.37 Q1502.82 1517.37 1500.99 1520.93 Q1499.18 1524.47 1499.18 1531.6 Q1499.18 1538.71 1500.99 1542.27 Q1502.82 1545.82 1506.43 1545.82 Q1510.06 1545.82 1511.87 1542.27 Q1513.7 1538.71 1513.7 1531.6 Q1513.7 1524.47 1511.87 1520.93 Q1510.06 1517.37 1506.43 1517.37 M1506.43 1513.66 Q1512.24 1513.66 1515.29 1518.27 Q1518.37 1522.85 1518.37 1531.6 Q1518.37 1540.33 1515.29 1544.94 Q1512.24 1549.52 1506.43 1549.52 Q1500.62 1549.52 1497.54 1544.94 Q1494.48 1540.33 1494.48 1531.6 Q1494.48 1522.85 1497.54 1518.27 Q1500.62 1513.66 1506.43 1513.66 Z" fill="#000000" fill-rule="nonzero" fill-opacity="1" /><path clip-path="url(#clip290)" d="M1825.44 1544.91 L1841.75 1544.91 L1841.75 1548.85 L1819.81 1548.85 L1819.81 1544.91 Q1822.47 1542.16 1827.06 1537.53 Q1831.66 1532.88 1832.84 1531.53 Q1835.09 1529.01 1835.97 1527.27 Q1836.87 1525.51 1836.87 1523.82 Q1836.87 1521.07 1834.93 1519.33 Q1833 1517.6 1829.9 1517.6 Q1827.7 1517.6 1825.25 1518.36 Q1822.82 1519.13 1820.04 1520.68 L1820.04 1515.95 Q1822.87 1514.82 1825.32 1514.24 Q1827.77 1513.66 1829.81 1513.66 Q1835.18 1513.66 1838.38 1516.35 Q1841.57 1519.03 1841.57 1523.52 Q1841.57 1525.65 1840.76 1527.57 Q1839.97 1529.47 1837.87 1532.07 Q1837.29 1532.74 1834.19 1535.95 Q1831.08 1539.15 1825.44 1544.91 Z" fill="#000000" fill-rule="nonzero" fill-opacity="1" /><path clip-path="url(#clip290)" d="M1861.57 1517.37 Q1857.96 1517.37 1856.13 1520.93 Q1854.32 1524.47 1854.32 1531.6 Q1854.32 1538.71 1856.13 1542.27 Q1857.96 1545.82 1861.57 1545.82 Q1865.2 1545.82 1867.01 1542.27 Q1868.84 1538.71 1868.84 1531.6 Q1868.84 1524.47 1867.01 1520.93 Q1865.2 1517.37 1861.57 1517.37 M1861.57 1513.66 Q1867.38 1513.66 1870.44 1518.27 Q1873.51 1522.85 1873.51 1531.6 Q1873.51 1540.33 1870.44 1544.94 Q1867.38 1549.52 1861.57 1549.52 Q1855.76 1549.52 1852.68 1544.94 Q1849.63 1540.33 1849.63 1531.6 Q1849.63 1522.85 1852.68 1518.27 Q1855.76 1513.66 1861.57 1513.66 Z" fill="#000000" fill-rule="nonzero" fill-opacity="1" /><path clip-path="url(#clip290)" d="M1891.73 1517.37 Q1888.12 1517.37 1886.29 1520.93 Q1884.49 1524.47 1884.49 1531.6 Q1884.49 1538.71 1886.29 1542.27 Q1888.12 1545.82 1891.73 1545.82 Q1895.37 1545.82 1897.17 1542.27 Q1899 1538.71 1899 1531.6 Q1899 1524.47 1897.17 1520.93 Q1895.37 1517.37 1891.73 1517.37 M1891.73 1513.66 Q1897.54 1513.66 1900.6 1518.27 Q1903.68 1522.85 1903.68 1531.6 Q1903.68 1540.33 1900.6 1544.94 Q1897.54 1549.52 1891.73 1549.52 Q1885.92 1549.52 1882.84 1544.94 Q1879.79 1540.33 1879.79 1531.6 Q1879.79 1522.85 1882.84 1518.27 Q1885.92 1513.66 1891.73 1513.66 Z" fill="#000000" fill-rule="nonzero" fill-opacity="1" /><path clip-path="url(#clip290)" d="M1921.89 1517.37 Q1918.28 1517.37 1916.45 1520.93 Q1914.65 1524.47 1914.65 1531.6 Q1914.65 1538.71 1916.45 1542.27 Q1918.28 1545.82 1921.89 1545.82 Q1925.53 1545.82 1927.33 1542.27 Q1929.16 1538.71 1929.16 1531.6 Q1929.16 1524.47 1927.33 1520.93 Q1925.53 1517.37 1921.89 1517.37 M1921.89 1513.66 Q1927.7 1513.66 1930.76 1518.27 Q1933.84 1522.85 1933.84 1531.6 Q1933.84 1540.33 1930.76 1544.94 Q1927.7 1549.52 1921.89 1549.52 Q1916.08 1549.52 1913 1544.94 Q1909.95 1540.33 1909.95 1531.6 Q1909.95 1522.85 1913 1518.27 Q1916.08 1513.66 1921.89 1513.66 Z" fill="#000000" fill-rule="nonzero" fill-opacity="1" /><path clip-path="url(#clip290)" d="M2240.03 1544.91 L2256.35 1544.91 L2256.35 1548.85 L2234.41 1548.85 L2234.41 1544.91 Q2237.07 1542.16 2241.65 1537.53 Q2246.26 1532.88 2247.44 1531.53 Q2249.68 1529.01 2250.56 1527.27 Q2251.47 1525.51 2251.47 1523.82 Q2251.47 1521.07 2249.52 1519.33 Q2247.6 1517.6 2244.5 1517.6 Q2242.3 1517.6 2239.85 1518.36 Q2237.42 1519.13 2234.64 1520.68 L2234.64 1515.95 Q2237.46 1514.82 2239.92 1514.24 Q2242.37 1513.66 2244.41 1513.66 Q2249.78 1513.66 2252.97 1516.35 Q2256.17 1519.03 2256.17 1523.52 Q2256.17 1525.65 2255.36 1527.57 Q2254.57 1529.47 2252.46 1532.07 Q2251.88 1532.74 2248.78 1535.95 Q2245.68 1539.15 2240.03 1544.91 Z" fill="#000000" fill-rule="nonzero" fill-opacity="1" /><path clip-path="url(#clip290)" d="M2266.21 1514.29 L2284.57 1514.29 L2284.57 1518.22 L2270.49 1518.22 L2270.49 1526.7 Q2271.51 1526.35 2272.53 1526.19 Q2273.55 1526 2274.57 1526 Q2280.36 1526 2283.74 1529.17 Q2287.11 1532.34 2287.11 1537.76 Q2287.11 1543.34 2283.64 1546.44 Q2280.17 1549.52 2273.85 1549.52 Q2271.68 1549.52 2269.41 1549.15 Q2267.16 1548.78 2264.75 1548.04 L2264.75 1543.34 Q2266.84 1544.47 2269.06 1545.03 Q2271.28 1545.58 2273.76 1545.58 Q2277.76 1545.58 2280.1 1543.48 Q2282.44 1541.37 2282.44 1537.76 Q2282.44 1534.15 2280.1 1532.04 Q2277.76 1529.94 2273.76 1529.94 Q2271.88 1529.94 2270.01 1530.35 Q2268.16 1530.77 2266.21 1531.65 L2266.21 1514.29 Z" fill="#000000" fill-rule="nonzero" fill-opacity="1" /><path clip-path="url(#clip290)" d="M2306.33 1517.37 Q2302.72 1517.37 2300.89 1520.93 Q2299.08 1524.47 2299.08 1531.6 Q2299.08 1538.71 2300.89 1542.27 Q2302.72 1545.82 2306.33 1545.82 Q2309.96 1545.82 2311.77 1542.27 Q2313.6 1538.71 2313.6 1531.6 Q2313.6 1524.47 2311.77 1520.93 Q2309.96 1517.37 2306.33 1517.37 M2306.33 1513.66 Q2312.14 1513.66 2315.19 1518.27 Q2318.27 1522.85 2318.27 1531.6 Q2318.27 1540.33 2315.19 1544.94 Q2312.14 1549.52 2306.33 1549.52 Q2300.52 1549.52 2297.44 1544.94 Q2294.38 1540.33 2294.38 1531.6 Q2294.38 1522.85 2297.44 1518.27 Q2300.52 1513.66 2306.33 1513.66 Z" fill="#000000" fill-rule="nonzero" fill-opacity="1" /><path clip-path="url(#clip290)" d="M2336.49 1517.37 Q2332.88 1517.37 2331.05 1520.93 Q2329.24 1524.47 2329.24 1531.6 Q2329.24 1538.71 2331.05 1542.27 Q2332.88 1545.82 2336.49 1545.82 Q2340.12 1545.82 2341.93 1542.27 Q2343.76 1538.71 2343.76 1531.6 Q2343.76 1524.47 2341.93 1520.93 Q2340.12 1517.37 2336.49 1517.37 M2336.49 1513.66 Q2342.3 1513.66 2345.36 1518.27 Q2348.43 1522.85 2348.43 1531.6 Q2348.43 1540.33 2345.36 1544.94 Q2342.3 1549.52 2336.49 1549.52 Q2330.68 1549.52 2327.6 1544.94 Q2324.55 1540.33 2324.55 1531.6 Q2324.55 1522.85 2327.6 1518.27 Q2330.68 1513.66 2336.49 1513.66 Z" fill="#000000" fill-rule="nonzero" fill-opacity="1" /><polyline clip-path="url(#clip292)" style="stroke:#000000; stroke-linecap:round; stroke-linejoin:round; stroke-width:2; stroke-opacity:0.1; fill:none" points="156.274,1180.37 2352.76,1180.37 "/>
<polyline clip-path="url(#clip292)" style="stroke:#000000; stroke-linecap:round; stroke-linejoin:round; stroke-width:2; stroke-opacity:0.1; fill:none" points="156.274,845.207 2352.76,845.207 "/>
<polyline clip-path="url(#clip292)" style="stroke:#000000; stroke-linecap:round; stroke-linejoin:round; stroke-width:2; stroke-opacity:0.1; fill:none" points="156.274,510.039 2352.76,510.039 "/>
<polyline clip-path="url(#clip292)" style="stroke:#000000; stroke-linecap:round; stroke-linejoin:round; stroke-width:2; stroke-opacity:0.1; fill:none" points="156.274,174.872 2352.76,174.872 "/>
<polyline clip-path="url(#clip290)" style="stroke:#000000; stroke-linecap:round; stroke-linejoin:round; stroke-width:4; stroke-opacity:1; fill:none" points="156.274,1486.45 156.274,47.2441 "/>
<polyline clip-path="url(#clip290)" style="stroke:#000000; stroke-linecap:round; stroke-linejoin:round; stroke-width:4; stroke-opacity:1; fill:none" points="156.274,1180.37 175.172,1180.37 "/>
<polyline clip-path="url(#clip290)" style="stroke:#000000; stroke-linecap:round; stroke-linejoin:round; stroke-width:4; stroke-opacity:1; fill:none" points="156.274,845.207 175.172,845.207 "/>
<polyline clip-path="url(#clip290)" style="stroke:#000000; stroke-linecap:round; stroke-linejoin:round; stroke-width:4; stroke-opacity:1; fill:none" points="156.274,510.039 175.172,510.039 "/>
<polyline clip-path="url(#clip290)" style="stroke:#000000; stroke-linecap:round; stroke-linejoin:round; stroke-width:4; stroke-opacity:1; fill:none" points="156.274,174.872 175.172,174.872 "/>
<path clip-path="url(#clip290)" d="M62.9365 1166.17 Q59.3254 1166.17 57.4967 1169.74 Q55.6912 1173.28 55.6912 1180.41 Q55.6912 1187.52 57.4967 1191.08 Q59.3254 1194.62 62.9365 1194.62 Q66.5707 1194.62 68.3763 1191.08 Q70.205 1187.52 70.205 1180.41 Q70.205 1173.28 68.3763 1169.74 Q66.5707 1166.17 62.9365 1166.17 M62.9365 1162.47 Q68.7467 1162.47 71.8022 1167.08 Q74.8809 1171.66 74.8809 1180.41 Q74.8809 1189.14 71.8022 1193.74 Q68.7467 1198.33 62.9365 1198.33 Q57.1264 1198.33 54.0477 1193.74 Q50.9921 1189.14 50.9921 1180.41 Q50.9921 1171.66 54.0477 1167.08 Q57.1264 1162.47 62.9365 1162.47 Z" fill="#000000" fill-rule="nonzero" fill-opacity="1" /><path clip-path="url(#clip290)" d="M83.0984 1191.78 L87.9827 1191.78 L87.9827 1197.65 L83.0984 1197.65 L83.0984 1191.78 Z" fill="#000000" fill-rule="nonzero" fill-opacity="1" /><path clip-path="url(#clip290)" d="M108.746 1178.51 Q105.598 1178.51 103.746 1180.66 Q101.918 1182.82 101.918 1186.57 Q101.918 1190.29 103.746 1192.47 Q105.598 1194.62 108.746 1194.62 Q111.895 1194.62 113.723 1192.47 Q115.575 1190.29 115.575 1186.57 Q115.575 1182.82 113.723 1180.66 Q111.895 1178.51 108.746 1178.51 M118.029 1163.86 L118.029 1168.12 Q116.27 1167.28 114.464 1166.84 Q112.682 1166.4 110.922 1166.4 Q106.293 1166.4 103.839 1169.53 Q101.409 1172.65 101.061 1178.97 Q102.427 1176.96 104.487 1175.9 Q106.547 1174.81 109.024 1174.81 Q114.233 1174.81 117.242 1177.98 Q120.274 1181.13 120.274 1186.57 Q120.274 1191.89 117.126 1195.11 Q113.978 1198.33 108.746 1198.33 Q102.751 1198.33 99.5798 1193.74 Q96.4085 1189.14 96.4085 1180.41 Q96.4085 1172.21 100.297 1167.35 Q104.186 1162.47 110.737 1162.47 Q112.496 1162.47 114.279 1162.82 Q116.084 1163.16 118.029 1163.86 Z" fill="#000000" fill-rule="nonzero" fill-opacity="1" /><path clip-path="url(#clip290)" d="M64.0013 831.006 Q60.3902 831.006 58.5615 834.57 Q56.756 838.112 56.756 845.242 Q56.756 852.348 58.5615 855.913 Q60.3902 859.455 64.0013 859.455 Q67.6356 859.455 69.4411 855.913 Q71.2698 852.348 71.2698 845.242 Q71.2698 838.112 69.4411 834.57 Q67.6356 831.006 64.0013 831.006 M64.0013 827.302 Q69.8115 827.302 72.867 831.908 Q75.9457 836.492 75.9457 845.242 Q75.9457 853.968 72.867 858.575 Q69.8115 863.158 64.0013 863.158 Q58.1912 863.158 55.1125 858.575 Q52.0569 853.968 52.0569 845.242 Q52.0569 836.492 55.1125 831.908 Q58.1912 827.302 64.0013 827.302 Z" fill="#000000" fill-rule="nonzero" fill-opacity="1" /><path clip-path="url(#clip290)" d="M84.1632 856.607 L89.0475 856.607 L89.0475 862.487 L84.1632 862.487 L84.1632 856.607 Z" fill="#000000" fill-rule="nonzero" fill-opacity="1" /><path clip-path="url(#clip290)" d="M98.0521 827.927 L120.274 827.927 L120.274 829.918 L107.728 862.487 L102.844 862.487 L114.649 831.862 L98.0521 831.862 L98.0521 827.927 Z" fill="#000000" fill-rule="nonzero" fill-opacity="1" /><path clip-path="url(#clip290)" d="M63.1911 495.838 Q59.58 495.838 57.7513 499.403 Q55.9458 502.944 55.9458 510.074 Q55.9458 517.18 57.7513 520.745 Q59.58 524.287 63.1911 524.287 Q66.8254 524.287 68.6309 520.745 Q70.4596 517.18 70.4596 510.074 Q70.4596 502.944 68.6309 499.403 Q66.8254 495.838 63.1911 495.838 M63.1911 492.134 Q69.0013 492.134 72.0568 496.741 Q75.1355 501.324 75.1355 510.074 Q75.1355 518.801 72.0568 523.407 Q69.0013 527.991 63.1911 527.991 Q57.381 527.991 54.3023 523.407 Q51.2468 518.801 51.2468 510.074 Q51.2468 501.324 54.3023 496.741 Q57.381 492.134 63.1911 492.134 Z" fill="#000000" fill-rule="nonzero" fill-opacity="1" /><path clip-path="url(#clip290)" d="M83.3531 521.44 L88.2373 521.44 L88.2373 527.319 L83.3531 527.319 L83.3531 521.44 Z" fill="#000000" fill-rule="nonzero" fill-opacity="1" /><path clip-path="url(#clip290)" d="M108.422 510.907 Q105.089 510.907 103.168 512.69 Q101.27 514.472 101.27 517.597 Q101.27 520.722 103.168 522.504 Q105.089 524.287 108.422 524.287 Q111.756 524.287 113.677 522.504 Q115.598 520.699 115.598 517.597 Q115.598 514.472 113.677 512.69 Q111.779 510.907 108.422 510.907 M103.746 508.917 Q100.737 508.176 99.0474 506.116 Q97.3808 504.056 97.3808 501.093 Q97.3808 496.949 100.321 494.542 Q103.284 492.134 108.422 492.134 Q113.584 492.134 116.524 494.542 Q119.464 496.949 119.464 501.093 Q119.464 504.056 117.774 506.116 Q116.108 508.176 113.121 508.917 Q116.501 509.704 118.376 511.995 Q120.274 514.287 120.274 517.597 Q120.274 522.62 117.195 525.305 Q114.14 527.991 108.422 527.991 Q102.705 527.991 99.6261 525.305 Q96.5706 522.62 96.5706 517.597 Q96.5706 514.287 98.4687 511.995 Q100.367 509.704 103.746 508.917 M102.034 501.532 Q102.034 504.218 103.7 505.722 Q105.39 507.227 108.422 507.227 Q111.432 507.227 113.121 505.722 Q114.834 504.218 114.834 501.532 Q114.834 498.847 113.121 497.343 Q111.432 495.838 108.422 495.838 Q105.39 495.838 103.7 497.343 Q102.034 498.847 102.034 501.532 Z" fill="#000000" fill-rule="nonzero" fill-opacity="1" /><path clip-path="url(#clip290)" d="M63.2837 160.67 Q59.6726 160.67 57.8439 164.235 Q56.0384 167.777 56.0384 174.906 Q56.0384 182.013 57.8439 185.578 Q59.6726 189.119 63.2837 189.119 Q66.918 189.119 68.7235 185.578 Q70.5522 182.013 70.5522 174.906 Q70.5522 167.777 68.7235 164.235 Q66.918 160.67 63.2837 160.67 M63.2837 156.967 Q69.0939 156.967 72.1494 161.573 Q75.2281 166.156 75.2281 174.906 Q75.2281 183.633 72.1494 188.24 Q69.0939 192.823 63.2837 192.823 Q57.4736 192.823 54.3949 188.24 Q51.3393 183.633 51.3393 174.906 Q51.3393 166.156 54.3949 161.573 Q57.4736 156.967 63.2837 156.967 Z" fill="#000000" fill-rule="nonzero" fill-opacity="1" /><path clip-path="url(#clip290)" d="M83.4457 186.272 L88.3299 186.272 L88.3299 192.152 L83.4457 192.152 L83.4457 186.272 Z" fill="#000000" fill-rule="nonzero" fill-opacity="1" /><path clip-path="url(#clip290)" d="M98.6539 191.434 L98.6539 187.175 Q100.413 188.008 102.219 188.448 Q104.024 188.888 105.76 188.888 Q110.39 188.888 112.82 185.786 Q115.274 182.661 115.621 176.318 Q114.279 178.309 112.219 179.374 Q110.158 180.439 107.658 180.439 Q102.473 180.439 99.4409 177.314 Q96.4317 174.166 96.4317 168.726 Q96.4317 163.402 99.5798 160.184 Q102.728 156.967 107.959 156.967 Q113.955 156.967 117.103 161.573 Q120.274 166.156 120.274 174.906 Q120.274 183.078 116.385 187.962 Q112.52 192.823 105.969 192.823 Q104.209 192.823 102.404 192.476 Q100.598 192.128 98.6539 191.434 M107.959 176.781 Q111.108 176.781 112.936 174.629 Q114.788 172.476 114.788 168.726 Q114.788 164.999 112.936 162.846 Q111.108 160.67 107.959 160.67 Q104.811 160.67 102.959 162.846 Q101.131 164.999 101.131 168.726 Q101.131 172.476 102.959 174.629 Q104.811 176.781 107.959 176.781 Z" fill="#000000" fill-rule="nonzero" fill-opacity="1" /><polyline clip-path="url(#clip292)" style="stroke:#009af9; stroke-linecap:round; stroke-linejoin:round; stroke-width:4; stroke-opacity:1; fill:none" points="218.439,1014.97 219.268,956.93 220.097,1042.87 220.926,1308.42 221.756,1242.73 222.585,1265.13 223.414,895.712 224.243,690.129 225.072,762.629 225.901,1172.3 226.731,726.912 227.56,1042.87 228.389,831.045 229.218,1265.13 230.047,956.93 230.877,956.93 231.706,1369.82 232.535,1014.97 233.364,1070.07 234.193,926.734 235.023,1172.3 235.852,1172.3 236.681,1014.97 237.51,1042.87 238.339,1070.07 239.169,1287.02 239.998,986.33 240.827,926.734 241.656,863.827 242.485,926.734 243.315,1265.13 244.144,1014.97 244.973,726.912 245.802,1122.44 246.631,1070.07 247.46,1147.68 248.29,831.045 249.119,1042.87 249.948,1096.58 250.777,1147.68 251.606,863.827 252.436,863.827 253.265,1014.97 254.094,726.912 254.923,1042.87 255.752,1242.73 256.582,926.734 257.411,863.827 258.24,863.827 259.069,726.912 259.898,986.33 260.728,1070.07 261.557,1172.3 262.386,956.93 263.215,956.93 264.044,926.734 264.874,1147.68 265.703,1042.87 266.532,1329.34 267.361,1219.81 268.19,986.33 269.019,1096.58 269.849,797.326 270.678,762.629 271.507,1096.58 272.336,1014.97 273.165,1014.97 273.995,1219.81 274.824,926.734 275.653,1096.58 276.482,831.045 277.311,1014.97 278.141,831.045 278.97,895.712 279.799,956.93 280.628,895.712 281.457,1147.68 282.287,895.712 283.116,1014.97 283.945,1014.97 284.774,1042.87 285.603,986.33 286.433,863.827 287.262,1014.97 288.091,797.326 288.92,1070.07 289.749,652.232 290.579,762.629 291.408,1096.58 292.237,1172.3 293.066,652.232 293.895,1219.81 294.724,831.045 295.554,1122.44 296.383,797.326 297.212,895.712 298.041,986.33 298.87,895.712 299.7,895.712 300.529,895.712 301.358,762.629 302.187,1014.97 303.016,1042.87 303.846,956.93 304.675,652.232 305.504,1042.87 306.333,926.734 307.162,1042.87 307.992,652.232 308.821,926.734 309.65,762.629 310.479,986.33 311.308,1196.33 312.138,1042.87 312.967,726.912 313.796,1122.44 314.625,1219.81 315.454,956.93 316.283,863.827 317.113,1287.02 317.942,1219.81 318.771,986.33 319.6,1122.44 320.429,831.045 321.259,1096.58 322.088,986.33 322.917,926.734 323.746,986.33 324.575,926.734 325.405,797.326 326.234,1287.02 327.063,1265.13 327.892,1042.87 328.721,1172.3 329.551,1122.44 330.38,488.416 331.209,986.33 332.038,956.93 332.867,863.827 333.697,1096.58 334.526,797.326 335.355,1070.07 336.184,1014.97 337.013,613.168 337.842,895.712 338.672,1172.3 339.501,1122.44 340.33,956.93 341.159,895.712 341.988,831.045 342.818,831.045 343.647,1042.87 344.476,926.734 345.305,895.712 346.134,572.883 346.964,1196.33 347.793,1014.97 348.622,986.33 349.451,1096.58 350.28,1096.58 351.11,831.045 351.939,956.93 352.768,1070.07 353.597,831.045 354.426,1070.07 355.256,1287.02 356.085,690.129 356.914,956.93 357.743,956.93 358.572,986.33 359.402,926.734 360.231,1042.87 361.06,762.629 361.889,986.33 362.718,1196.33 363.547,1096.58 364.377,690.129 365.206,1096.58 366.035,1308.42 366.864,652.232 367.693,831.045 368.523,762.629 369.352,1287.02 370.181,895.712 371.01,1070.07 371.839,1219.81 372.669,1096.58 373.498,1172.3 374.327,1070.07 375.156,895.712 375.985,1042.87 376.815,762.629 377.644,956.93 378.473,1242.73 379.302,1242.73 380.131,797.326 380.961,1042.87 381.79,926.734 382.619,1070.07 383.448,956.93 384.277,986.33 385.106,1147.68 385.936,895.712 386.765,1070.07 387.594,1196.33 388.423,1349.8 389.252,1219.81 390.082,1308.42 390.911,926.734 391.74,956.93 392.569,1147.68 393.398,762.629 394.228,726.912 395.057,1070.07 395.886,831.045 396.715,831.045 397.544,1096.58 398.374,895.712 399.203,1196.33 400.032,926.734 400.861,1096.58 401.69,762.629 402.52,797.326 403.349,1014.97 404.178,726.912 405.007,863.827 405.836,831.045 406.665,690.129 407.495,1408.57 408.324,1042.87 409.153,1287.02 409.982,797.326 410.811,926.734 411.641,690.129 412.47,956.93 413.299,986.33 414.128,956.93 414.957,956.93 415.787,1122.44 416.616,797.326 417.445,1070.07 418.274,1014.97 419.103,986.33 419.933,1172.3 420.762,1070.07 421.591,926.734 422.42,1172.3 423.249,1096.58 424.079,926.734 424.908,1445.72 425.737,831.045 426.566,863.827 427.395,762.629 428.224,863.827 429.054,1122.44 429.883,895.712 430.712,1265.13 431.541,1122.44 432.37,895.712 433.2,1122.44 434.029,762.629 434.858,1042.87 435.687,831.045 436.516,1122.44 437.346,1172.3 438.175,926.734 439.004,1014.97 439.833,1042.87 440.662,956.93 441.492,652.232 442.321,1042.87 443.15,1070.07 443.979,1070.07 444.808,1070.07 445.638,956.93 446.467,1172.3 447.296,762.629 448.125,1329.34 448.954,1070.07 449.784,895.712 450.613,926.734 451.442,1042.87 452.271,1172.3 453.1,762.629 453.929,1196.33 454.759,986.33 455.588,1042.87 456.417,1122.44 457.246,863.827 458.075,956.93 458.905,1014.97 459.734,1070.07 460.563,1369.82 461.392,1014.97 462.221,1096.58 463.051,1122.44 463.88,1308.42 464.709,1122.44 465.538,797.326 466.367,1042.87 467.197,1172.3 468.026,1096.58 468.855,1172.3 469.684,863.827 470.513,895.712 471.343,956.93 472.172,652.232 473.001,895.712 473.83,956.93 474.659,1408.57 475.488,797.326 476.318,762.629 477.147,1122.44 477.976,726.912 478.805,1042.87 479.634,1122.44 480.464,1096.58 481.293,1147.68 482.122,926.734 482.951,956.93 483.78,762.629 484.61,1122.44 485.439,926.734 486.268,444.105 487.097,1096.58 487.926,956.93 488.756,1196.33 489.585,1329.34 490.414,831.045 491.243,863.827 492.072,613.168 492.902,863.827 493.731,1096.58 494.56,926.734 495.389,956.93 496.218,1014.97 497.047,1014.97 497.877,762.629 498.706,956.93 499.535,1096.58 500.364,1242.73 501.193,1122.44 502.023,1219.81 502.852,895.712 503.681,726.912 504.51,726.912 505.339,690.129 506.169,690.129 506.998,1042.87 507.827,690.129 508.656,863.827 509.485,444.105 510.315,1196.33 511.144,613.168 511.973,926.734 512.802,1196.33 513.631,1196.33 514.461,895.712 515.29,1349.8 516.119,690.129 516.948,926.734 517.777,690.129 518.607,1219.81 519.436,863.827 520.265,956.93 521.094,444.105 521.923,1096.58 522.752,1122.44 523.582,956.93 524.411,986.33 525.24,831.045 526.069,690.129 526.898,895.712 527.728,1096.58 528.557,1219.81 529.386,986.33 530.215,863.827 531.044,926.734 531.874,863.827 532.703,1096.58 533.532,895.712 534.361,895.712 535.19,1242.73 536.02,1014.97 536.849,895.712 537.678,926.734 538.507,863.827 539.336,690.129 540.166,1287.02 540.995,1219.81 541.824,1070.07 542.653,1070.07 543.482,895.712 544.311,1096.58 545.141,1014.97 545.97,1122.44 546.799,863.827 547.628,986.33 548.457,956.93 549.287,1369.82 550.116,986.33 550.945,690.129 551.774,863.827 552.603,762.629 553.433,1042.87 554.262,863.827 555.091,1042.87 555.92,831.045 556.749,1369.82 557.579,531.32 558.408,895.712 559.237,1147.68 560.066,690.129 560.895,1287.02 561.725,652.232 562.554,986.33 563.383,831.045 564.212,1242.73 565.041,926.734 565.87,926.734 566.7,863.827 567.529,831.045 568.358,986.33 569.187,1070.07 570.016,1172.3 570.846,1042.87 571.675,986.33 572.504,1070.07 573.333,831.045 574.162,1122.44 574.992,895.712 575.821,895.712 576.65,956.93 577.479,1096.58 578.308,1172.3 579.138,986.33 579.967,895.712 580.796,1147.68 581.625,926.734 582.454,1265.13 583.284,613.168 584.113,926.734 584.942,1096.58 585.771,926.734 586.6,956.93 587.429,1014.97 588.259,986.33 589.088,1042.87 589.917,1042.87 590.746,797.326 591.575,1122.44 592.405,1096.58 593.234,1265.13 594.063,956.93 594.892,1014.97 595.721,398.317 596.551,956.93 597.38,895.712 598.209,762.629 599.038,926.734 599.867,895.712 600.697,863.827 601.526,1014.97 602.355,1172.3 603.184,797.326 604.013,1014.97 604.843,863.827 605.672,956.93 606.501,1070.07 607.33,1389.4 608.159,1122.44 608.989,895.712 609.818,986.33 610.647,690.129 611.476,726.912 612.305,986.33 613.134,531.32 613.964,1070.07 614.793,895.712 615.622,531.32 616.451,895.712 617.28,1329.34 618.11,1242.73 618.939,986.33 619.768,863.827 620.597,926.734 621.426,1147.68 622.256,1308.42 623.085,1096.58 623.914,863.827 624.743,863.827 625.572,726.912 626.402,1122.44 627.231,831.045 628.06,956.93 628.889,956.93 629.718,831.045 630.548,652.232 631.377,831.045 632.206,956.93 633.035,863.827 633.864,986.33 634.693,1369.82 635.523,895.712 636.352,863.827 637.181,1014.97 638.01,652.232 638.839,1308.42 639.669,1096.58 640.498,1196.33 641.327,1096.58 642.156,926.734 642.985,863.827 643.815,926.734 644.644,1172.3 645.473,1070.07 646.302,1172.3 647.131,986.33 647.961,1172.3 648.79,863.827 649.619,398.317 650.448,895.712 651.277,831.045 652.107,690.129 652.936,797.326 653.765,762.629 654.594,1122.44 655.423,831.045 656.252,1122.44 657.082,726.912 657.911,986.33 658.74,863.827 659.569,1014.97 660.398,895.712 661.228,797.326 662.057,652.232 662.886,895.712 663.715,895.712 664.544,1219.81 665.374,690.129 666.203,986.33 667.032,1014.97 667.861,1014.97 668.69,895.712 669.52,1070.07 670.349,1219.81 671.178,1042.87 672.007,1070.07 672.836,1014.97 673.666,1147.68 674.495,1042.87 675.324,863.827 676.153,956.93 676.982,690.129 677.812,1014.97 678.641,1147.68 679.47,986.33 680.299,895.712 681.128,831.045 681.957,1147.68 682.787,1096.58 683.616,1172.3 684.445,1147.68 685.274,831.045 686.103,797.326 686.933,1242.73 687.762,726.912 688.591,572.883 689.42,1042.87 690.249,1070.07 691.079,831.045 691.908,926.734 692.737,863.827 693.566,831.045 694.395,1147.68 695.225,1096.58 696.054,1070.07 696.883,863.827 697.712,1172.3 698.541,762.629 699.371,797.326 700.2,1147.68 701.029,1096.58 701.858,726.912 702.687,863.827 703.516,726.912 704.346,831.045 705.175,1014.97 706.004,986.33 706.833,895.712 707.662,1042.87 708.492,863.827 709.321,1389.4 710.15,251.313 710.979,1172.3 711.808,895.712 712.638,895.712 713.467,613.168 714.296,986.33 715.125,1196.33 715.954,986.33 716.784,1014.97 717.613,1070.07 718.442,1349.8 719.271,895.712 720.1,1070.07 720.93,726.912 721.759,1242.73 722.588,986.33 723.417,1196.33 724.246,926.734 725.075,1122.44 725.905,1287.02 726.734,831.045 727.563,895.712 728.392,1096.58 729.221,926.734 730.051,986.33 730.88,1147.68 731.709,926.734 732.538,956.93 733.367,926.734 734.197,726.912 735.026,726.912 735.855,895.712 736.684,690.129 737.513,1096.58 738.343,762.629 739.172,726.912 740.001,1287.02 740.83,572.883 741.659,726.912 742.489,613.168 743.318,350.977 744.147,1349.8 744.976,1172.3 745.805,926.734 746.634,1042.87 747.464,762.629 748.293,1122.44 749.122,1014.97 749.951,956.93 750.78,1096.58 751.61,1122.44 752.439,863.827 753.268,986.33 754.097,926.734 754.926,652.232 755.756,652.232 756.585,895.712 757.414,895.712 758.243,863.827 759.072,1014.97 759.902,1042.87 760.731,926.734 761.56,1014.97 762.389,956.93 763.218,1070.07 764.048,986.33 764.877,652.232 765.706,831.045 766.535,831.045 767.364,831.045 768.194,762.629 769.023,1219.81 769.852,762.629 770.681,1172.3 771.51,1042.87 772.339,956.93 773.169,926.734 773.998,762.629 774.827,895.712 775.656,1070.07 776.485,1096.58 777.315,1014.97 778.144,1147.68 778.973,1014.97 779.802,797.326 780.631,863.827 781.461,956.93 782.29,762.629 783.119,831.045 783.948,1042.87 784.777,797.326 785.607,613.168 786.436,1242.73 787.265,797.326 788.094,1287.02 788.923,1196.33 789.753,1014.97 790.582,1070.07 791.411,895.712 792.24,863.827 793.069,863.827 793.898,726.912 794.728,1096.58 795.557,895.712 796.386,956.93 797.215,1014.97 798.044,863.827 798.874,690.129 799.703,1122.44 800.532,613.168 801.361,1265.13 802.19,863.827 803.02,726.912 803.849,690.129 804.678,444.105 805.507,690.129 806.336,1196.33 807.166,488.416 807.995,895.712 808.824,986.33 809.653,895.712 810.482,1122.44 811.312,652.232 812.141,1096.58 812.97,1096.58 813.799,956.93 814.628,926.734 815.457,895.712 816.287,797.326 817.116,1096.58 817.945,895.712 818.774,1070.07 819.603,986.33 820.433,797.326 821.262,1122.44 822.091,1096.58 822.92,1147.68 823.749,895.712 824.579,1096.58 825.408,831.045 826.237,1265.13 827.066,1242.73 827.895,572.883 828.725,863.827 829.554,1242.73 830.383,797.326 831.212,831.045 832.041,926.734 832.871,1014.97 833.7,1070.07 834.529,831.045 835.358,690.129 836.187,1219.81 837.017,1122.44 837.846,986.33 838.675,1308.42 839.504,613.168 840.333,1014.97 841.162,797.326 841.992,398.317 842.821,895.712 843.65,895.712 844.479,926.734 845.308,956.93 846.138,926.734 846.967,1096.58 847.796,1014.97 848.625,1042.87 849.454,531.32 850.284,652.232 851.113,613.168 851.942,690.129 852.771,1042.87 853.6,956.93 854.43,956.93 855.259,531.32 856.088,690.129 856.917,863.827 857.746,986.33 858.576,690.129 859.405,956.93 860.234,690.129 861.063,762.629 861.892,986.33 862.721,1122.44 863.551,895.712 864.38,762.629 865.209,652.232 866.038,762.629 866.867,831.045 867.697,1014.97 868.526,797.326 869.355,1147.68 870.184,863.827 871.013,956.93 871.843,831.045 872.672,1096.58 873.501,1014.97 874.33,726.912 875.159,986.33 875.989,726.912 876.818,956.93 877.647,986.33 878.476,895.712 879.305,1147.68 880.135,895.712 880.964,895.712 881.793,762.629 882.622,613.168 883.451,1014.97 884.28,863.827 885.11,926.734 885.939,831.045 886.768,1014.97 887.597,1042.87 888.426,926.734 889.256,1014.97 890.085,986.33 890.914,652.232 891.743,986.33 892.572,1014.97 893.402,1042.87 894.231,986.33 895.06,797.326 895.889,1014.97 896.718,895.712 897.548,895.712 898.377,956.93 899.206,1070.07 900.035,1070.07 900.864,1014.97 901.694,726.912 902.523,1070.07 903.352,863.827 904.181,926.734 905.01,956.93 905.839,572.883 906.669,797.326 907.498,895.712 908.327,895.712 909.156,1014.97 909.985,690.129 910.815,1265.13 911.644,926.734 912.473,926.734 913.302,762.629 914.131,1308.42 914.961,986.33 915.79,895.712 916.619,863.827 917.448,1096.58 918.277,1014.97 919.107,1096.58 919.936,831.045 920.765,986.33 921.594,1147.68 922.423,895.712 923.253,986.33 924.082,1014.97 924.911,1172.3 925.74,831.045 926.569,1196.33 927.399,895.712 928.228,690.129 929.057,1014.97 929.886,926.734 930.715,1070.07 931.544,762.629 932.374,1242.73 933.203,1122.44 934.032,1042.87 934.861,956.93 935.69,1287.02 936.52,956.93 937.349,1042.87 938.178,1042.87 939.007,956.93 939.836,831.045 940.666,895.712 941.495,690.129 942.324,1196.33 943.153,895.712 943.982,956.93 944.812,956.93 945.641,572.883 946.47,1096.58 947.299,762.629 948.128,797.326 948.958,690.129 949.787,926.734 950.616,444.105 951.445,350.977 952.274,1172.3 953.103,986.33 953.933,986.33 954.762,613.168 955.591,444.105 956.42,1042.87 957.249,1042.87 958.079,926.734 958.908,690.129 959.737,726.912 960.566,1014.97 961.395,956.93 962.225,895.712 963.054,1196.33 963.883,895.712 964.712,690.129 965.541,572.883 966.371,831.045 967.2,895.712 968.029,1122.44 968.858,831.045 969.687,895.712 970.517,986.33 971.346,572.883 972.175,831.045 973.004,956.93 973.833,797.326 974.662,726.912 975.492,926.734 976.321,1014.97 977.15,895.712 977.979,1070.07 978.808,926.734 979.638,1308.42 980.467,762.629 981.296,726.912 982.125,690.129 982.954,895.712 983.784,1147.68 984.613,613.168 985.442,895.712 986.271,926.734 987.1,1122.44 987.93,444.105 988.759,926.734 989.588,797.326 990.417,895.712 991.246,956.93 992.076,762.629 992.905,1196.33 993.734,1096.58 994.563,572.883 995.392,956.93 996.222,797.326 997.051,863.827 997.88,1070.07 998.709,690.129 999.538,1242.73 1000.37,1219.81 1001.2,956.93 1002.03,863.827 1002.86,926.734 1003.68,926.734 1004.51,1172.3 1005.34,956.93 1006.17,762.629 1007,488.416 1007.83,926.734 1008.66,398.317 1009.49,613.168 1010.32,797.326 1011.15,986.33 1011.98,797.326 1012.81,1014.97 1013.63,1070.07 1014.46,1147.68 1015.29,1196.33 1016.12,956.93 1016.95,926.734 1017.78,863.827 1018.61,762.629 1019.44,831.045 1020.27,613.168 1021.1,926.734 1021.93,488.416 1022.76,956.93 1023.58,1042.87 1024.41,1014.97 1025.24,986.33 1026.07,926.734 1026.9,895.712 1027.73,762.629 1028.56,690.129 1029.39,831.045 1030.22,690.129 1031.05,986.33 1031.88,488.416 1032.71,797.326 1033.54,1014.97 1034.36,831.045 1035.19,797.326 1036.02,690.129 1036.85,1122.44 1037.68,1172.3 1038.51,1070.07 1039.34,895.712 1040.17,1042.87 1041,613.168 1041.83,895.712 1042.66,956.93 1043.49,1014.97 1044.31,831.045 1045.14,895.712 1045.97,1172.3 1046.8,652.232 1047.63,1014.97 1048.46,863.827 1049.29,1122.44 1050.12,986.33 1050.95,1042.87 1051.78,863.827 1052.61,986.33 1053.44,863.827 1054.26,797.326 1055.09,1265.13 1055.92,831.045 1056.75,863.827 1057.58,531.32 1058.41,926.734 1059.24,831.045 1060.07,690.129 1060.9,863.827 1061.73,797.326 1062.56,797.326 1063.39,797.326 1064.22,1014.97 1065.04,762.629 1065.87,863.827 1066.7,797.326 1067.53,956.93 1068.36,1070.07 1069.19,1172.3 1070.02,1147.68 1070.85,863.827 1071.68,863.827 1072.51,863.827 1073.34,863.827 1074.17,652.232 1074.99,302.004 1075.82,1042.87 1076.65,762.629 1077.48,690.129 1078.31,1042.87 1079.14,956.93 1079.97,863.827 1080.8,863.827 1081.63,690.129 1082.46,1042.87 1083.29,797.326 1084.12,1042.87 1084.95,831.045 1085.77,1219.81 1086.6,1172.3 1087.43,652.232 1088.26,956.93 1089.09,652.232 1089.92,956.93 1090.75,956.93 1091.58,652.232 1092.41,1287.02 1093.24,762.629 1094.07,831.045 1094.9,690.129 1095.72,895.712 1096.55,690.129 1097.38,956.93 1098.21,986.33 1099.04,762.629 1099.87,1242.73 1100.7,926.734 1101.53,986.33 1102.36,1070.07 1103.19,926.734 1104.02,1042.87 1104.85,956.93 1105.67,1242.73 1106.5,1122.44 1107.33,1096.58 1108.16,863.827 1108.99,1042.87 1109.82,1014.97 1110.65,956.93 1111.48,762.629 1112.31,986.33 1113.14,398.317 1113.97,1014.97 1114.8,762.629 1115.63,895.712 1116.45,690.129 1117.28,1014.97 1118.11,690.129 1118.94,895.712 1119.77,986.33 1120.6,1096.58 1121.43,986.33 1122.26,956.93 1123.09,1096.58 1123.92,926.734 1124.75,1042.87 1125.58,1014.97 1126.4,1122.44 1127.23,762.629 1128.06,726.912 1128.89,613.168 1129.72,831.045 1130.55,986.33 1131.38,444.105 1132.21,726.912 1133.04,690.129 1133.87,1096.58 1134.7,797.326 1135.53,1196.33 1136.36,895.712 1137.18,986.33 1138.01,488.416 1138.84,797.326 1139.67,831.045 1140.5,572.883 1141.33,1122.44 1142.16,488.416 1142.99,831.045 1143.82,863.827 1144.65,863.827 1145.48,926.734 1146.31,986.33 1147.13,726.912 1147.96,1122.44 1148.79,762.629 1149.62,726.912 1150.45,926.734 1151.28,488.416 1152.11,613.168 1152.94,926.734 1153.77,726.912 1154.6,726.912 1155.43,926.734 1156.26,1070.07 1157.08,726.912 1157.91,863.827 1158.74,895.712 1159.57,1070.07 1160.4,726.912 1161.23,831.045 1162.06,1042.87 1162.89,863.827 1163.72,1147.68 1164.55,1014.97 1165.38,1070.07 1166.21,986.33 1167.04,690.129 1167.86,986.33 1168.69,690.129 1169.52,762.629 1170.35,956.93 1171.18,613.168 1172.01,1042.87 1172.84,762.629 1173.67,726.912 1174.5,572.883 1175.33,762.629 1176.16,956.93 1176.99,863.827 1177.81,831.045 1178.64,831.045 1179.47,1308.42 1180.3,895.712 1181.13,797.326 1181.96,652.232 1182.79,1122.44 1183.62,1042.87 1184.45,1070.07 1185.28,863.827 1186.11,1070.07 1186.94,1042.87 1187.77,1014.97 1188.59,1042.87 1189.42,613.168 1190.25,863.827 1191.08,531.32 1191.91,986.33 1192.74,531.32 1193.57,690.129 1194.4,726.912 1195.23,797.326 1196.06,1122.44 1196.89,1096.58 1197.72,726.912 1198.54,762.629 1199.37,831.045 1200.2,797.326 1201.03,863.827 1201.86,1042.87 1202.69,1349.8 1203.52,1014.97 1204.35,831.045 1205.18,1070.07 1206.01,926.734 1206.84,613.168 1207.67,613.168 1208.49,652.232 1209.32,986.33 1210.15,726.912 1210.98,863.827 1211.81,926.734 1212.64,797.326 1213.47,1014.97 1214.3,531.32 1215.13,1070.07 1215.96,926.734 1216.79,895.712 1217.62,690.129 1218.45,1096.58 1219.27,926.734 1220.1,926.734 1220.93,1242.73 1221.76,926.734 1222.59,895.712 1223.42,986.33 1224.25,986.33 1225.08,531.32 1225.91,863.827 1226.74,831.045 1227.57,613.168 1228.4,444.105 1229.22,956.93 1230.05,613.168 1230.88,572.883 1231.71,797.326 1232.54,726.912 1233.37,986.33 1234.2,613.168 1235.03,572.883 1235.86,831.045 1236.69,863.827 1237.52,726.912 1238.35,726.912 1239.17,762.629 1240,531.32 1240.83,986.33 1241.66,1014.97 1242.49,652.232 1243.32,797.326 1244.15,863.827 1244.98,926.734 1245.81,613.168 1246.64,986.33 1247.47,863.827 1248.3,797.326 1249.13,926.734 1249.95,762.629 1250.78,1196.33 1251.61,863.827 1252.44,831.045 1253.27,726.912 1254.1,762.629 1254.93,895.712 1255.76,863.827 1256.59,863.827 1257.42,926.734 1258.25,986.33 1259.08,762.629 1259.9,831.045 1260.73,652.232 1261.56,895.712 1262.39,652.232 1263.22,1147.68 1264.05,926.734 1264.88,863.827 1265.71,797.326 1266.54,1070.07 1267.37,690.129 1268.2,895.712 1269.03,1014.97 1269.86,1122.44 1270.68,1070.07 1271.51,956.93 1272.34,986.33 1273.17,762.629 1274,956.93 1274.83,350.977 1275.66,797.326 1276.49,797.326 1277.32,1096.58 1278.15,531.32 1278.98,690.129 1279.81,726.912 1280.63,797.326 1281.46,956.93 1282.29,1070.07 1283.12,926.734 1283.95,1096.58 1284.78,831.045 1285.61,1265.13 1286.44,613.168 1287.27,895.712 1288.1,956.93 1288.93,613.168 1289.76,895.712 1290.58,926.734 1291.41,1096.58 1292.24,613.168 1293.07,926.734 1293.9,895.712 1294.73,956.93 1295.56,895.712 1296.39,488.416 1297.22,762.629 1298.05,572.883 1298.88,690.129 1299.71,1042.87 1300.54,831.045 1301.36,613.168 1302.19,1042.87 1303.02,531.32 1303.85,652.232 1304.68,613.168 1305.51,831.045 1306.34,956.93 1307.17,690.129 1308,831.045 1308.83,956.93 1309.66,1014.97 1310.49,531.32 1311.31,895.712 1312.14,531.32 1312.97,863.827 1313.8,986.33 1314.63,956.93 1315.46,863.827 1316.29,1014.97 1317.12,831.045 1317.95,926.734 1318.78,762.629 1319.61,690.129 1320.44,398.317 1321.27,690.129 1322.09,1070.07 1322.92,762.629 1323.75,956.93 1324.58,572.883 1325.41,986.33 1326.24,613.168 1327.07,863.827 1327.9,926.734 1328.73,726.912 1329.56,726.912 1330.39,690.129 1331.22,926.734 1332.04,797.326 1332.87,863.827 1333.7,986.33 1334.53,762.629 1335.36,398.317 1336.19,797.326 1337.02,652.232 1337.85,1014.97 1338.68,1122.44 1339.51,613.168 1340.34,1122.44 1341.17,613.168 1341.99,926.734 1342.82,863.827 1343.65,726.912 1344.48,1042.87 1345.31,926.734 1346.14,690.129 1346.97,690.129 1347.8,690.129 1348.63,613.168 1349.46,1042.87 1350.29,762.629 1351.12,926.734 1351.95,895.712 1352.77,762.629 1353.6,926.734 1354.43,762.629 1355.26,956.93 1356.09,1172.3 1356.92,1172.3 1357.75,831.045 1358.58,797.326 1359.41,762.629 1360.24,926.734 1361.07,831.045 1361.9,797.326 1362.72,726.912 1363.55,572.883 1364.38,762.629 1365.21,762.629 1366.04,895.712 1366.87,613.168 1367.7,831.045 1368.53,1265.13 1369.36,690.129 1370.19,1096.58 1371.02,652.232 1371.85,926.734 1372.67,762.629 1373.5,572.883 1374.33,488.416 1375.16,690.129 1375.99,762.629 1376.82,1042.87 1377.65,652.232 1378.48,572.883 1379.31,986.33 1380.14,863.827 1380.97,926.734 1381.8,652.232 1382.63,797.326 1383.45,762.629 1384.28,926.734 1385.11,531.32 1385.94,797.326 1386.77,444.105 1387.6,690.129 1388.43,1096.58 1389.26,762.629 1390.09,652.232 1390.92,831.045 1391.75,531.32 1392.58,1147.68 1393.4,726.912 1394.23,956.93 1395.06,690.129 1395.89,531.32 1396.72,831.045 1397.55,956.93 1398.38,895.712 1399.21,726.912 1400.04,726.912 1400.87,572.883 1401.7,926.734 1402.53,797.326 1403.36,1070.07 1404.18,1042.87 1405.01,1070.07 1405.84,831.045 1406.67,572.883 1407.5,726.912 1408.33,690.129 1409.16,926.734 1409.99,613.168 1410.82,1096.58 1411.65,488.416 1412.48,444.105 1413.31,831.045 1414.13,762.629 1414.96,1014.97 1415.79,797.326 1416.62,863.827 1417.45,926.734 1418.28,488.416 1419.11,956.93 1419.94,831.045 1420.77,926.734 1421.6,895.712 1422.43,531.32 1423.26,690.129 1424.08,926.734 1424.91,726.912 1425.74,613.168 1426.57,572.883 1427.4,613.168 1428.23,797.326 1429.06,926.734 1429.89,762.629 1430.72,726.912 1431.55,652.232 1432.38,1014.97 1433.21,572.883 1434.04,531.32 1434.86,926.734 1435.69,652.232 1436.52,831.045 1437.35,690.129 1438.18,690.129 1439.01,863.827 1439.84,690.129 1440.67,488.416 1441.5,1042.87 1442.33,531.32 1443.16,1014.97 1443.99,762.629 1444.81,926.734 1445.64,652.232 1446.47,986.33 1447.3,895.712 1448.13,1196.33 1448.96,531.32 1449.79,895.712 1450.62,531.32 1451.45,726.912 1452.28,1070.07 1453.11,863.827 1453.94,956.93 1454.77,895.712 1455.59,926.734 1456.42,926.734 1457.25,956.93 1458.08,926.734 1458.91,726.912 1459.74,986.33 1460.57,863.827 1461.4,986.33 1462.23,251.313 1463.06,956.93 1463.89,398.317 1464.72,956.93 1465.54,863.827 1466.37,726.912 1467.2,444.105 1468.03,572.883 1468.86,726.912 1469.69,797.326 1470.52,690.129 1471.35,797.326 1472.18,895.712 1473.01,652.232 1473.84,1070.07 1474.67,1014.97 1475.49,863.827 1476.32,531.32 1477.15,956.93 1477.98,690.129 1478.81,986.33 1479.64,690.129 1480.47,762.629 1481.3,652.232 1482.13,797.326 1482.96,1147.68 1483.79,895.712 1484.62,726.912 1485.45,531.32 1486.27,531.32 1487.1,797.326 1487.93,831.045 1488.76,1096.58 1489.59,1014.97 1490.42,652.232 1491.25,690.129 1492.08,1014.97 1492.91,1014.97 1493.74,652.232 1494.57,1042.87 1495.4,572.883 1496.22,797.326 1497.05,726.912 1497.88,572.883 1498.71,762.629 1499.54,831.045 1500.37,1070.07 1501.2,613.168 1502.03,1042.87 1502.86,488.416 1503.69,1014.97 1504.52,895.712 1505.35,1070.07 1506.18,652.232 1507,690.129 1507.83,797.326 1508.66,1308.42 1509.49,572.883 1510.32,895.712 1511.15,726.912 1511.98,762.629 1512.81,1147.68 1513.64,1147.68 1514.47,613.168 1515.3,863.827 1516.13,1014.97 1516.95,444.105 1517.78,895.712 1518.61,572.883 1519.44,831.045 1520.27,690.129 1521.1,926.734 1521.93,652.232 1522.76,690.129 1523.59,652.232 1524.42,302.004 1525.25,726.912 1526.08,926.734 1526.9,572.883 1527.73,863.827 1528.56,895.712 1529.39,831.045 1530.22,444.105 1531.05,762.629 1531.88,797.326 1532.71,488.416 1533.54,726.912 1534.37,690.129 1535.2,726.912 1536.03,726.912 1536.86,144.402 1537.68,863.827 1538.51,762.629 1539.34,863.827 1540.17,488.416 1541,986.33 1541.83,831.045 1542.66,613.168 1543.49,1096.58 1544.32,863.827 1545.15,956.93 1545.98,797.326 1546.81,831.045 1547.63,613.168 1548.46,762.629 1549.29,1096.58 1550.12,986.33 1550.95,726.912 1551.78,926.734 1552.61,926.734 1553.44,986.33 1554.27,726.912 1555.1,652.232 1555.93,895.712 1556.76,762.629 1557.58,956.93 1558.41,797.326 1559.24,726.912 1560.07,572.883 1560.9,762.629 1561.73,531.32 1562.56,613.168 1563.39,726.912 1564.22,690.129 1565.05,690.129 1565.88,572.883 1566.71,831.045 1567.54,652.232 1568.36,762.629 1569.19,531.32 1570.02,762.629 1570.85,762.629 1571.68,690.129 1572.51,863.827 1573.34,726.912 1574.17,726.912 1575,863.827 1575.83,797.326 1576.66,531.32 1577.49,831.045 1578.31,895.712 1579.14,613.168 1579.97,444.105 1580.8,613.168 1581.63,762.629 1582.46,1070.07 1583.29,956.93 1584.12,398.317 1584.95,762.629 1585.78,895.712 1586.61,572.883 1587.44,531.32 1588.27,690.129 1589.09,690.129 1589.92,831.045 1590.75,613.168 1591.58,1070.07 1592.41,726.912 1593.24,863.827 1594.07,690.129 1594.9,1070.07 1595.73,350.977 1596.56,831.045 1597.39,797.326 1598.22,797.326 1599.04,1219.81 1599.87,762.629 1600.7,1042.87 1601.53,726.912 1602.36,986.33 1603.19,895.712 1604.02,1147.68 1604.85,762.629 1605.68,726.912 1606.51,726.912 1607.34,926.734 1608.17,1042.87 1608.99,863.827 1609.82,652.232 1610.65,652.232 1611.48,863.827 1612.31,726.912 1613.14,762.629 1613.97,797.326 1614.8,831.045 1615.63,690.129 1616.46,531.32 1617.29,956.93 1618.12,531.32 1618.95,572.883 1619.77,690.129 1620.6,302.004 1621.43,398.317 1622.26,613.168 1623.09,613.168 1623.92,863.827 1624.75,652.232 1625.58,1014.97 1626.41,863.827 1627.24,762.629 1628.07,895.712 1628.9,613.168 1629.72,1070.07 1630.55,895.712 1631.38,652.232 1632.21,762.629 1633.04,690.129 1633.87,690.129 1634.7,863.827 1635.53,863.827 1636.36,613.168 1637.19,726.912 1638.02,613.168 1638.85,726.912 1639.68,1147.68 1640.5,762.629 1641.33,863.827 1642.16,863.827 1642.99,726.912 1643.82,986.33 1644.65,531.32 1645.48,444.105 1646.31,1042.87 1647.14,831.045 1647.97,572.883 1648.8,863.827 1649.63,726.912 1650.45,863.827 1651.28,762.629 1652.11,926.734 1652.94,1042.87 1653.77,986.33 1654.6,690.129 1655.43,797.326 1656.26,762.629 1657.09,531.32 1657.92,1096.58 1658.75,652.232 1659.58,895.712 1660.4,797.326 1661.23,652.232 1662.06,762.629 1662.89,797.326 1663.72,726.912 1664.55,797.326 1665.38,350.977 1666.21,956.93 1667.04,926.734 1667.87,926.734 1668.7,956.93 1669.53,198.812 1670.36,926.734 1671.18,488.416 1672.01,762.629 1672.84,1147.68 1673.67,613.168 1674.5,488.416 1675.33,350.977 1676.16,726.912 1676.99,690.129 1677.82,488.416 1678.65,762.629 1679.48,797.326 1680.31,398.317 1681.13,444.105 1681.96,652.232 1682.79,762.629 1683.62,956.93 1684.45,531.32 1685.28,762.629 1686.11,726.912 1686.94,831.045 1687.77,762.629 1688.6,444.105 1689.43,956.93 1690.26,1070.07 1691.08,726.912 1691.91,1042.87 1692.74,831.045 1693.57,986.33 1694.4,572.883 1695.23,797.326 1696.06,895.712 1696.89,572.883 1697.72,690.129 1698.55,1096.58 1699.38,1014.97 1700.21,613.168 1701.04,726.912 1701.86,1042.87 1702.69,895.712 1703.52,726.912 1704.35,531.32 1705.18,726.912 1706.01,895.712 1706.84,797.326 1707.67,726.912 1708.5,797.326 1709.33,831.045 1710.16,831.045 1710.99,444.105 1711.81,762.629 1712.64,572.883 1713.47,762.629 1714.3,831.045 1715.13,762.629 1715.96,797.326 1716.79,652.232 1717.62,572.883 1718.45,956.93 1719.28,726.912 1720.11,762.629 1720.94,1014.97 1721.77,531.32 1722.59,444.105 1723.42,1172.3 1724.25,690.129 1725.08,1219.81 1725.91,690.129 1726.74,797.326 1727.57,926.734 1728.4,613.168 1729.23,895.712 1730.06,690.129 1730.89,1042.87 1731.72,1042.87 1732.54,986.33 1733.37,797.326 1734.2,1172.3 1735.03,690.129 1735.86,797.326 1736.69,531.32 1737.52,488.416 1738.35,690.129 1739.18,613.168 1740.01,926.734 1740.84,726.912 1741.67,572.883 1742.49,690.129 1743.32,926.734 1744.15,350.977 1744.98,690.129 1745.81,726.912 1746.64,690.129 1747.47,863.827 1748.3,762.629 1749.13,572.883 1749.96,762.629 1750.79,690.129 1751.62,1042.87 1752.45,762.629 1753.27,251.313 1754.1,831.045 1754.93,831.045 1755.76,762.629 1756.59,926.734 1757.42,726.912 1758.25,690.129 1759.08,797.326 1759.91,488.416 1760.74,926.734 1761.57,690.129 1762.4,1070.07 1763.22,1196.33 1764.05,926.734 1764.88,1014.97 1765.71,895.712 1766.54,572.883 1767.37,726.912 1768.2,797.326 1769.03,926.734 1769.86,895.712 1770.69,613.168 1771.52,652.232 1772.35,613.168 1773.18,1042.87 1774,652.232 1774.83,572.883 1775.66,652.232 1776.49,531.32 1777.32,797.326 1778.15,652.232 1778.98,762.629 1779.81,762.629 1780.64,652.232 1781.47,863.827 1782.3,572.883 1783.13,1042.87 1783.95,531.32 1784.78,652.232 1785.61,488.416 1786.44,613.168 1787.27,613.168 1788.1,531.32 1788.93,831.045 1789.76,863.827 1790.59,572.883 1791.42,613.168 1792.25,726.912 1793.08,690.129 1793.9,863.827 1794.73,797.326 1795.56,444.105 1796.39,1042.87 1797.22,1147.68 1798.05,831.045 1798.88,726.912 1799.71,690.129 1800.54,690.129 1801.37,398.317 1802.2,986.33 1803.03,863.827 1803.86,613.168 1804.68,797.326 1805.51,652.232 1806.34,350.977 1807.17,863.827 1808,895.712 1808.83,797.326 1809.66,531.32 1810.49,926.734 1811.32,572.883 1812.15,797.326 1812.98,863.827 1813.81,797.326 1814.63,726.912 1815.46,444.105 1816.29,726.912 1817.12,895.712 1817.95,1014.97 1818.78,762.629 1819.61,690.129 1820.44,986.33 1821.27,613.168 1822.1,797.326 1822.93,863.827 1823.76,531.32 1824.59,831.045 1825.41,572.883 1826.24,690.129 1827.07,531.32 1827.9,690.129 1828.73,762.629 1829.56,726.912 1830.39,863.827 1831.22,895.712 1832.05,572.883 1832.88,613.168 1833.71,444.105 1834.54,690.129 1835.36,1042.87 1836.19,831.045 1837.02,863.827 1837.85,690.129 1838.68,762.629 1839.51,895.712 1840.34,831.045 1841.17,652.232 1842,895.712 1842.83,831.045 1843.66,531.32 1844.49,762.629 1845.31,762.629 1846.14,488.416 1846.97,762.629 1847.8,398.317 1848.63,652.232 1849.46,652.232 1850.29,690.129 1851.12,690.129 1851.95,488.416 1852.78,895.712 1853.61,531.32 1854.44,652.232 1855.27,831.045 1856.09,863.827 1856.92,690.129 1857.75,652.232 1858.58,726.912 1859.41,652.232 1860.24,831.045 1861.07,1042.87 1861.9,797.326 1862.73,863.827 1863.56,797.326 1864.39,926.734 1865.22,831.045 1866.04,986.33 1866.87,652.232 1867.7,797.326 1868.53,1096.58 1869.36,762.629 1870.19,797.326 1871.02,690.129 1871.85,863.827 1872.68,488.416 1873.51,1070.07 1874.34,863.827 1875.17,652.232 1875.99,652.232 1876.82,797.326 1877.65,863.827 1878.48,613.168 1879.31,531.32 1880.14,831.045 1880.97,613.168 1881.8,926.734 1882.63,613.168 1883.46,1014.97 1884.29,398.317 1885.12,762.629 1885.95,1042.87 1886.77,895.712 1887.6,531.32 1888.43,986.33 1889.26,797.326 1890.09,613.168 1890.92,926.734 1891.75,797.326 1892.58,652.232 1893.41,613.168 1894.24,895.712 1895.07,398.317 1895.9,488.416 1896.72,797.326 1897.55,797.326 1898.38,831.045 1899.21,762.629 1900.04,926.734 1900.87,690.129 1901.7,690.129 1902.53,762.629 1903.36,572.883 1904.19,863.827 1905.02,1172.3 1905.85,762.629 1906.68,926.734 1907.5,488.416 1908.33,652.232 1909.16,895.712 1909.99,831.045 1910.82,613.168 1911.65,613.168 1912.48,762.629 1913.31,726.912 1914.14,797.326 1914.97,488.416 1915.8,398.317 1916.63,444.105 1917.45,652.232 1918.28,572.883 1919.11,762.629 1919.94,613.168 1920.77,797.326 1921.6,613.168 1922.43,488.416 1923.26,956.93 1924.09,726.912 1924.92,863.827 1925.75,762.629 1926.58,986.33 1927.4,531.32 1928.23,613.168 1929.06,762.629 1929.89,863.827 1930.72,652.232 1931.55,488.416 1932.38,797.326 1933.21,956.93 1934.04,956.93 1934.87,652.232 1935.7,690.129 1936.53,956.93 1937.36,797.326 1938.18,726.912 1939.01,652.232 1939.84,986.33 1940.67,531.32 1941.5,690.129 1942.33,895.712 1943.16,488.416 1943.99,690.129 1944.82,726.912 1945.65,572.883 1946.48,572.883 1947.31,350.977 1948.13,613.168 1948.96,762.629 1949.79,762.629 1950.62,613.168 1951.45,726.912 1952.28,652.232 1953.11,831.045 1953.94,690.129 1954.77,863.827 1955.6,895.712 1956.43,398.317 1957.26,302.004 1958.09,956.93 1958.91,762.629 1959.74,398.317 1960.57,726.912 1961.4,690.129 1962.23,797.326 1963.06,87.9763 1963.89,797.326 1964.72,350.977 1965.55,726.912 1966.38,762.629 1967.21,762.629 1968.04,572.883 1968.86,488.416 1969.69,831.045 1970.52,652.232 1971.35,652.232 1972.18,726.912 1973.01,690.129 1973.84,690.129 1974.67,613.168 1975.5,863.827 1976.33,863.827 1977.16,690.129 1977.99,398.317 1978.81,831.045 1979.64,613.168 1980.47,863.827 1981.3,797.326 1982.13,690.129 1982.96,726.912 1983.79,488.416 1984.62,831.045 1985.45,762.629 1986.28,831.045 1987.11,488.416 1987.94,690.129 1988.77,488.416 1989.59,531.32 1990.42,444.105 1991.25,613.168 1992.08,531.32 1992.91,531.32 1993.74,831.045 1994.57,398.317 1995.4,398.317 1996.23,613.168 1997.06,531.32 1997.89,895.712 1998.72,690.129 1999.54,762.629 2000.37,531.32 2001.2,531.32 2002.03,863.827 2002.86,690.129 2003.69,652.232 2004.52,398.317 2005.35,531.32 2006.18,762.629 2007.01,726.912 2007.84,652.232 2008.67,797.326 2009.49,690.129 2010.32,863.827 2011.15,690.129 2011.98,613.168 2012.81,895.712 2013.64,726.912 2014.47,956.93 2015.3,302.004 2016.13,652.232 2016.96,762.629 2017.79,531.32 2018.62,531.32 2019.45,831.045 2020.27,895.712 2021.1,863.827 2021.93,762.629 2022.76,531.32 2023.59,444.105 2024.42,690.129 2025.25,831.045 2026.08,531.32 2026.91,690.129 2027.74,797.326 2028.57,762.629 2029.4,1070.07 2030.22,613.168 2031.05,1122.44 2031.88,572.883 2032.71,613.168 2033.54,652.232 2034.37,690.129 2035.2,398.317 2036.03,531.32 2036.86,531.32 2037.69,350.977 2038.52,572.883 2039.35,572.883 2040.18,613.168 2041,797.326 2041.83,690.129 2042.66,863.827 2043.49,613.168 2044.32,398.317 2045.15,690.129 2045.98,895.712 2046.81,488.416 2047.64,831.045 2048.47,398.317 2049.3,926.734 2050.13,797.326 2050.95,531.32 2051.78,444.105 2052.61,444.105 2053.44,797.326 2054.27,488.416 2055.1,613.168 2055.93,831.045 2056.76,652.232 2057.59,797.326 2058.42,531.32 2059.25,613.168 2060.08,726.912 2060.9,572.883 2061.73,613.168 2062.56,797.326 2063.39,726.912 2064.22,531.32 2065.05,652.232 2065.88,831.045 2066.71,613.168 2067.54,690.129 2068.37,726.912 2069.2,690.129 2070.03,797.326 2070.86,488.416 2071.68,652.232 2072.51,690.129 2073.34,251.313 2074.17,572.883 2075,690.129 2075.83,926.734 2076.66,488.416 2077.49,831.045 2078.32,831.045 2079.15,652.232 2079.98,652.232 2080.81,1096.58 2081.63,690.129 2082.46,1122.44 2083.29,831.045 2084.12,831.045 2084.95,572.883 2085.78,398.317 2086.61,831.045 2087.44,531.32 2088.27,1070.07 2089.1,690.129 2089.93,690.129 2090.76,350.977 2091.59,797.326 2092.41,488.416 2093.24,1070.07 2094.07,444.105 2094.9,956.93 2095.73,726.912 2096.56,956.93 2097.39,302.004 2098.22,531.32 2099.05,488.416 2099.88,726.912 2100.71,251.313 2101.54,726.912 2102.36,797.326 2103.19,652.232 2104.02,926.734 2104.85,726.912 2105.68,926.734 2106.51,831.045 2107.34,797.326 2108.17,690.129 2109,831.045 2109.83,797.326 2110.66,302.004 2111.49,613.168 2112.31,652.232 2113.14,690.129 2113.97,797.326 2114.8,613.168 2115.63,726.912 2116.46,690.129 2117.29,398.317 2118.12,531.32 2118.95,572.883 2119.78,652.232 2120.61,488.416 2121.44,613.168 2122.27,690.129 2123.09,926.734 2123.92,797.326 2124.75,1042.87 2125.58,144.402 2126.41,302.004 2127.24,572.883 2128.07,926.734 2128.9,444.105 2129.73,531.32 2130.56,690.129 2131.39,444.105 2132.22,762.629 2133.04,762.629 2133.87,531.32 2134.7,572.883 2135.53,613.168 2136.36,762.629 2137.19,797.326 2138.02,895.712 2138.85,652.232 2139.68,926.734 2140.51,690.129 2141.34,690.129 2142.17,251.313 2143,797.326 2143.82,613.168 2144.65,726.912 2145.48,863.827 2146.31,797.326 2147.14,895.712 2147.97,302.004 2148.8,531.32 2149.63,895.712 2150.46,726.912 2151.29,690.129 2152.12,863.827 2152.95,572.883 2153.77,895.712 2154.6,488.416 2155.43,762.629 2156.26,863.827 2157.09,350.977 2157.92,831.045 2158.75,762.629 2159.58,895.712 2160.41,613.168 2161.24,572.883 2162.07,652.232 2162.9,572.883 2163.72,895.712 2164.55,531.32 2165.38,690.129 2166.21,652.232 2167.04,797.326 2167.87,613.168 2168.7,444.105 2169.53,690.129 2170.36,726.912 2171.19,831.045 2172.02,613.168 2172.85,726.912 2173.68,531.32 2174.5,652.232 2175.33,613.168 2176.16,762.629 2176.99,895.712 2177.82,831.045 2178.65,572.883 2179.48,831.045 2180.31,531.32 2181.14,726.912 2181.97,613.168 2182.8,572.883 2183.63,690.129 2184.45,652.232 2185.28,762.629 2186.11,572.883 2186.94,613.168 2187.77,797.326 2188.6,444.105 2189.43,531.32 2190.26,572.883 2191.09,652.232 2191.92,652.232 2192.75,986.33 2193.58,895.712 2194.4,488.416 2195.23,652.232 2196.06,926.734 2196.89,613.168 2197.72,690.129 2198.55,613.168 2199.38,726.912 2200.21,726.912 2201.04,613.168 2201.87,302.004 2202.7,926.734 2203.53,726.912 2204.36,690.129 2205.18,572.883 2206.01,251.313 2206.84,863.827 2207.67,956.93 2208.5,863.827 2209.33,572.883 2210.16,797.326 2210.99,726.912 2211.82,797.326 2212.65,762.629 2213.48,726.912 2214.31,1172.3 2215.13,613.168 2215.96,652.232 2216.79,690.129 2217.62,652.232 2218.45,926.734 2219.28,726.912 2220.11,488.416 2220.94,726.912 2221.77,350.977 2222.6,1096.58 2223.43,302.004 2224.26,797.326 2225.09,302.004 2225.91,398.317 2226.74,895.712 2227.57,895.712 2228.4,762.629 2229.23,762.629 2230.06,762.629 2230.89,762.629 2231.72,690.129 2232.55,572.883 2233.38,895.712 2234.21,444.105 2235.04,895.712 2235.86,531.32 2236.69,690.129 2237.52,895.712 2238.35,251.313 2239.18,398.317 2240.01,572.883 2240.84,572.883 2241.67,652.232 2242.5,652.232 2243.33,895.712 2244.16,863.827 2244.99,572.883 2245.81,926.734 2246.64,613.168 2247.47,488.416 2248.3,531.32 2249.13,444.105 2249.96,863.827 2250.79,831.045 2251.62,797.326 2252.45,488.416 2253.28,831.045 2254.11,531.32 2254.94,302.004 2255.77,613.168 2256.59,350.977 2257.42,831.045 2258.25,726.912 2259.08,350.977 2259.91,690.129 2260.74,726.912 2261.57,398.317 2262.4,572.883 2263.23,1070.07 2264.06,398.317 2264.89,488.416 2265.72,1014.97 2266.54,726.912 2267.37,762.629 2268.2,797.326 2269.03,198.812 2269.86,572.883 2270.69,863.827 2271.52,652.232 2272.35,652.232 2273.18,831.045 2274.01,613.168 2274.84,613.168 2275.67,444.105 2276.5,652.232 2277.32,652.232 2278.15,956.93 2278.98,613.168 2279.81,488.416 2280.64,726.912 2281.47,797.326 2282.3,690.129 2283.13,863.827 2283.96,488.416 2284.79,895.712 2285.62,613.168 2286.45,144.402 2287.27,531.32 2288.1,1014.97 2288.93,572.883 2289.76,690.129 2290.59,762.629 "/>
<path clip-path="url(#clip290)" d="M229.49 198.898 L501.569 198.898 L501.569 95.2176 L229.49 95.2176  Z" fill="#ffffff" fill-rule="evenodd" fill-opacity="1"/>
<polyline clip-path="url(#clip290)" style="stroke:#000000; stroke-linecap:round; stroke-linejoin:round; stroke-width:4; stroke-opacity:1; fill:none" points="229.49,198.898 501.569,198.898 501.569,95.2176 229.49,95.2176 229.49,198.898 "/>
<polyline clip-path="url(#clip290)" style="stroke:#009af9; stroke-linecap:round; stroke-linejoin:round; stroke-width:4; stroke-opacity:1; fill:none" points="253.896,147.058 400.328,147.058 "/>
<path clip-path="url(#clip290)" d="M438.576 166.745 Q436.77 171.375 435.057 172.787 Q433.344 174.199 430.474 174.199 L427.071 174.199 L427.071 170.634 L429.571 170.634 Q431.33 170.634 432.302 169.8 Q433.275 168.967 434.455 165.865 L435.219 163.921 L424.733 138.412 L429.247 138.412 L437.349 158.689 L445.451 138.412 L449.964 138.412 L438.576 166.745 Z" fill="#000000" fill-rule="nonzero" fill-opacity="1" /><path clip-path="url(#clip290)" d="M457.256 160.402 L464.895 160.402 L464.895 134.037 L456.585 135.703 L456.585 131.444 L464.849 129.778 L469.524 129.778 L469.524 160.402 L477.163 160.402 L477.163 164.338 L457.256 164.338 L457.256 160.402 Z" fill="#000000" fill-rule="nonzero" fill-opacity="1" /></svg>
