<?xml version="1.0" encoding="utf-8"?>
<svg xmlns="http://www.w3.org/2000/svg" xmlns:xlink="http://www.w3.org/1999/xlink" width="600" height="400" viewBox="0 0 2400 1600">
<defs>
  <clipPath id="clip970">
    <rect x="0" y="0" width="2400" height="1600"/>
  </clipPath>
</defs>
<path clip-path="url(#clip970)" d="M0 1600 L2400 1600 L2400 0 L0 0  Z" fill="#ffffff" fill-rule="evenodd" fill-opacity="1"/>
<defs>
  <clipPath id="clip971">
    <rect x="480" y="0" width="1681" height="1600"/>
  </clipPath>
</defs>
<path clip-path="url(#clip970)" d="M201.019 1486.45 L2352.76 1486.45 L2352.76 47.2441 L201.019 47.2441  Z" fill="#ffffff" fill-rule="evenodd" fill-opacity="1"/>
<defs>
  <clipPath id="clip972">
    <rect x="201" y="47" width="2153" height="1440"/>
  </clipPath>
</defs>
<polyline clip-path="url(#clip972)" style="stroke:#000000; stroke-linecap:round; stroke-linejoin:round; stroke-width:2; stroke-opacity:0.1; fill:none" points="261.917,1486.45 261.917,47.2441 "/>
<polyline clip-path="url(#clip972)" style="stroke:#000000; stroke-linecap:round; stroke-linejoin:round; stroke-width:2; stroke-opacity:0.1; fill:none" points="769.403,1486.45 769.403,47.2441 "/>
<polyline clip-path="url(#clip972)" style="stroke:#000000; stroke-linecap:round; stroke-linejoin:round; stroke-width:2; stroke-opacity:0.1; fill:none" points="1276.89,1486.45 1276.89,47.2441 "/>
<polyline clip-path="url(#clip972)" style="stroke:#000000; stroke-linecap:round; stroke-linejoin:round; stroke-width:2; stroke-opacity:0.1; fill:none" points="1784.37,1486.45 1784.37,47.2441 "/>
<polyline clip-path="url(#clip972)" style="stroke:#000000; stroke-linecap:round; stroke-linejoin:round; stroke-width:2; stroke-opacity:0.1; fill:none" points="2291.86,1486.45 2291.86,47.2441 "/>
<polyline clip-path="url(#clip970)" style="stroke:#000000; stroke-linecap:round; stroke-linejoin:round; stroke-width:4; stroke-opacity:1; fill:none" points="201.019,1486.45 2352.76,1486.45 "/>
<polyline clip-path="url(#clip970)" style="stroke:#000000; stroke-linecap:round; stroke-linejoin:round; stroke-width:4; stroke-opacity:1; fill:none" points="261.917,1486.45 261.917,1467.55 "/>
<polyline clip-path="url(#clip970)" style="stroke:#000000; stroke-linecap:round; stroke-linejoin:round; stroke-width:4; stroke-opacity:1; fill:none" points="769.403,1486.45 769.403,1467.55 "/>
<polyline clip-path="url(#clip970)" style="stroke:#000000; stroke-linecap:round; stroke-linejoin:round; stroke-width:4; stroke-opacity:1; fill:none" points="1276.89,1486.45 1276.89,1467.55 "/>
<polyline clip-path="url(#clip970)" style="stroke:#000000; stroke-linecap:round; stroke-linejoin:round; stroke-width:4; stroke-opacity:1; fill:none" points="1784.37,1486.45 1784.37,1467.55 "/>
<polyline clip-path="url(#clip970)" style="stroke:#000000; stroke-linecap:round; stroke-linejoin:round; stroke-width:4; stroke-opacity:1; fill:none" points="2291.86,1486.45 2291.86,1467.55 "/>
<path clip-path="url(#clip970)" d="M261.917 1517.37 Q258.306 1517.37 256.478 1520.93 Q254.672 1524.47 254.672 1531.6 Q254.672 1538.71 256.478 1542.27 Q258.306 1545.82 261.917 1545.82 Q265.552 1545.82 267.357 1542.27 Q269.186 1538.71 269.186 1531.6 Q269.186 1524.47 267.357 1520.93 Q265.552 1517.37 261.917 1517.37 M261.917 1513.66 Q267.728 1513.66 270.783 1518.27 Q273.862 1522.85 273.862 1531.6 Q273.862 1540.33 270.783 1544.94 Q267.728 1549.52 261.917 1549.52 Q256.107 1549.52 253.029 1544.94 Q249.973 1540.33 249.973 1531.6 Q249.973 1522.85 253.029 1518.27 Q256.107 1513.66 261.917 1513.66 Z" fill="#000000" fill-rule="nonzero" fill-opacity="1" /><path clip-path="url(#clip970)" d="M733.095 1544.91 L749.414 1544.91 L749.414 1548.85 L727.47 1548.85 L727.47 1544.91 Q730.132 1542.16 734.715 1537.53 Q739.322 1532.88 740.502 1531.53 Q742.748 1529.01 743.627 1527.27 Q744.53 1525.51 744.53 1523.82 Q744.53 1521.07 742.586 1519.33 Q740.664 1517.6 737.562 1517.6 Q735.363 1517.6 732.91 1518.36 Q730.479 1519.13 727.701 1520.68 L727.701 1515.95 Q730.525 1514.82 732.979 1514.24 Q735.433 1513.66 737.47 1513.66 Q742.84 1513.66 746.035 1516.35 Q749.229 1519.03 749.229 1523.52 Q749.229 1525.65 748.419 1527.57 Q747.632 1529.47 745.525 1532.07 Q744.947 1532.74 741.845 1535.95 Q738.743 1539.15 733.095 1544.91 Z" fill="#000000" fill-rule="nonzero" fill-opacity="1" /><path clip-path="url(#clip970)" d="M759.275 1514.29 L777.632 1514.29 L777.632 1518.22 L763.558 1518.22 L763.558 1526.7 Q764.576 1526.35 765.595 1526.19 Q766.613 1526 767.632 1526 Q773.419 1526 776.798 1529.17 Q780.178 1532.34 780.178 1537.76 Q780.178 1543.34 776.706 1546.44 Q773.234 1549.52 766.914 1549.52 Q764.738 1549.52 762.47 1549.15 Q760.224 1548.78 757.817 1548.04 L757.817 1543.34 Q759.9 1544.47 762.122 1545.03 Q764.345 1545.58 766.822 1545.58 Q770.826 1545.58 773.164 1543.48 Q775.502 1541.37 775.502 1537.76 Q775.502 1534.15 773.164 1532.04 Q770.826 1529.94 766.822 1529.94 Q764.947 1529.94 763.072 1530.35 Q761.22 1530.77 759.275 1531.65 L759.275 1514.29 Z" fill="#000000" fill-rule="nonzero" fill-opacity="1" /><path clip-path="url(#clip970)" d="M799.391 1517.37 Q795.78 1517.37 793.951 1520.93 Q792.145 1524.47 792.145 1531.6 Q792.145 1538.71 793.951 1542.27 Q795.78 1545.82 799.391 1545.82 Q803.025 1545.82 804.831 1542.27 Q806.659 1538.71 806.659 1531.6 Q806.659 1524.47 804.831 1520.93 Q803.025 1517.37 799.391 1517.37 M799.391 1513.66 Q805.201 1513.66 808.257 1518.27 Q811.335 1522.85 811.335 1531.6 Q811.335 1540.33 808.257 1544.94 Q805.201 1549.52 799.391 1549.52 Q793.581 1549.52 790.502 1544.94 Q787.446 1540.33 787.446 1531.6 Q787.446 1522.85 790.502 1518.27 Q793.581 1513.66 799.391 1513.66 Z" fill="#000000" fill-rule="nonzero" fill-opacity="1" /><path clip-path="url(#clip970)" d="M1236.51 1514.29 L1254.86 1514.29 L1254.86 1518.22 L1240.79 1518.22 L1240.79 1526.7 Q1241.81 1526.35 1242.83 1526.19 Q1243.84 1526 1244.86 1526 Q1250.65 1526 1254.03 1529.17 Q1257.41 1532.34 1257.41 1537.76 Q1257.41 1543.34 1253.94 1546.44 Q1250.46 1549.52 1244.14 1549.52 Q1241.97 1549.52 1239.7 1549.15 Q1237.45 1548.78 1235.05 1548.04 L1235.05 1543.34 Q1237.13 1544.47 1239.35 1545.03 Q1241.58 1545.58 1244.05 1545.58 Q1248.06 1545.58 1250.39 1543.48 Q1252.73 1541.37 1252.73 1537.76 Q1252.73 1534.15 1250.39 1532.04 Q1248.06 1529.94 1244.05 1529.94 Q1242.18 1529.94 1240.3 1530.35 Q1238.45 1530.77 1236.51 1531.65 L1236.51 1514.29 Z" fill="#000000" fill-rule="nonzero" fill-opacity="1" /><path clip-path="url(#clip970)" d="M1276.62 1517.37 Q1273.01 1517.37 1271.18 1520.93 Q1269.38 1524.47 1269.38 1531.6 Q1269.38 1538.71 1271.18 1542.27 Q1273.01 1545.82 1276.62 1545.82 Q1280.26 1545.82 1282.06 1542.27 Q1283.89 1538.71 1283.89 1531.6 Q1283.89 1524.47 1282.06 1520.93 Q1280.26 1517.37 1276.62 1517.37 M1276.62 1513.66 Q1282.43 1513.66 1285.49 1518.27 Q1288.57 1522.85 1288.57 1531.6 Q1288.57 1540.33 1285.49 1544.94 Q1282.43 1549.52 1276.62 1549.52 Q1270.81 1549.52 1267.73 1544.94 Q1264.68 1540.33 1264.68 1531.6 Q1264.68 1522.85 1267.73 1518.27 Q1270.81 1513.66 1276.62 1513.66 Z" fill="#000000" fill-rule="nonzero" fill-opacity="1" /><path clip-path="url(#clip970)" d="M1306.78 1517.37 Q1303.17 1517.37 1301.34 1520.93 Q1299.54 1524.47 1299.54 1531.6 Q1299.54 1538.71 1301.34 1542.27 Q1303.17 1545.82 1306.78 1545.82 Q1310.42 1545.82 1312.22 1542.27 Q1314.05 1538.71 1314.05 1531.6 Q1314.05 1524.47 1312.22 1520.93 Q1310.42 1517.37 1306.78 1517.37 M1306.78 1513.66 Q1312.59 1513.66 1315.65 1518.27 Q1318.73 1522.85 1318.73 1531.6 Q1318.73 1540.33 1315.65 1544.94 Q1312.59 1549.52 1306.78 1549.52 Q1300.97 1549.52 1297.89 1544.94 Q1294.84 1540.33 1294.84 1531.6 Q1294.84 1522.85 1297.89 1518.27 Q1300.97 1513.66 1306.78 1513.66 Z" fill="#000000" fill-rule="nonzero" fill-opacity="1" /><path clip-path="url(#clip970)" d="M1742.65 1514.29 L1764.87 1514.29 L1764.87 1516.28 L1752.32 1548.85 L1747.44 1548.85 L1759.25 1518.22 L1742.65 1518.22 L1742.65 1514.29 Z" fill="#000000" fill-rule="nonzero" fill-opacity="1" /><path clip-path="url(#clip970)" d="M1774.04 1514.29 L1792.39 1514.29 L1792.39 1518.22 L1778.32 1518.22 L1778.32 1526.7 Q1779.34 1526.35 1780.36 1526.19 Q1781.37 1526 1782.39 1526 Q1788.18 1526 1791.56 1529.17 Q1794.94 1532.34 1794.94 1537.76 Q1794.94 1543.34 1791.47 1546.44 Q1788 1549.52 1781.68 1549.52 Q1779.5 1549.52 1777.23 1549.15 Q1774.99 1548.78 1772.58 1548.04 L1772.58 1543.34 Q1774.66 1544.47 1776.88 1545.03 Q1779.11 1545.58 1781.58 1545.58 Q1785.59 1545.58 1787.93 1543.48 Q1790.26 1541.37 1790.26 1537.76 Q1790.26 1534.15 1787.93 1532.04 Q1785.59 1529.94 1781.58 1529.94 Q1779.71 1529.94 1777.83 1530.35 Q1775.98 1530.77 1774.04 1531.65 L1774.04 1514.29 Z" fill="#000000" fill-rule="nonzero" fill-opacity="1" /><path clip-path="url(#clip970)" d="M1814.15 1517.37 Q1810.54 1517.37 1808.71 1520.93 Q1806.91 1524.47 1806.91 1531.6 Q1806.91 1538.71 1808.71 1542.27 Q1810.54 1545.82 1814.15 1545.82 Q1817.79 1545.82 1819.59 1542.27 Q1821.42 1538.71 1821.42 1531.6 Q1821.42 1524.47 1819.59 1520.93 Q1817.79 1517.37 1814.15 1517.37 M1814.15 1513.66 Q1819.96 1513.66 1823.02 1518.27 Q1826.1 1522.85 1826.1 1531.6 Q1826.1 1540.33 1823.02 1544.94 Q1819.96 1549.52 1814.15 1549.52 Q1808.34 1549.52 1805.26 1544.94 Q1802.21 1540.33 1802.21 1531.6 Q1802.21 1522.85 1805.26 1518.27 Q1808.34 1513.66 1814.15 1513.66 Z" fill="#000000" fill-rule="nonzero" fill-opacity="1" /><path clip-path="url(#clip970)" d="M2236.38 1544.91 L2244.02 1544.91 L2244.02 1518.55 L2235.71 1520.21 L2235.71 1515.95 L2243.98 1514.29 L2248.65 1514.29 L2248.65 1544.91 L2256.29 1544.91 L2256.29 1548.85 L2236.38 1548.85 L2236.38 1544.91 Z" fill="#000000" fill-rule="nonzero" fill-opacity="1" /><path clip-path="url(#clip970)" d="M2275.74 1517.37 Q2272.12 1517.37 2270.3 1520.93 Q2268.49 1524.47 2268.49 1531.6 Q2268.49 1538.71 2270.3 1542.27 Q2272.12 1545.82 2275.74 1545.82 Q2279.37 1545.82 2281.17 1542.27 Q2283 1538.71 2283 1531.6 Q2283 1524.47 2281.17 1520.93 Q2279.37 1517.37 2275.74 1517.37 M2275.74 1513.66 Q2281.55 1513.66 2284.6 1518.27 Q2287.68 1522.85 2287.68 1531.6 Q2287.68 1540.33 2284.6 1544.94 Q2281.55 1549.52 2275.74 1549.52 Q2269.92 1549.52 2266.85 1544.94 Q2263.79 1540.33 2263.79 1531.6 Q2263.79 1522.85 2266.85 1518.27 Q2269.92 1513.66 2275.74 1513.66 Z" fill="#000000" fill-rule="nonzero" fill-opacity="1" /><path clip-path="url(#clip970)" d="M2305.9 1517.37 Q2302.29 1517.37 2300.46 1520.93 Q2298.65 1524.47 2298.65 1531.6 Q2298.65 1538.71 2300.46 1542.27 Q2302.29 1545.82 2305.9 1545.82 Q2309.53 1545.82 2311.34 1542.27 Q2313.17 1538.71 2313.17 1531.6 Q2313.17 1524.47 2311.34 1520.93 Q2309.53 1517.37 2305.9 1517.37 M2305.9 1513.66 Q2311.71 1513.66 2314.76 1518.27 Q2317.84 1522.85 2317.84 1531.6 Q2317.84 1540.33 2314.76 1544.94 Q2311.71 1549.52 2305.9 1549.52 Q2300.09 1549.52 2297.01 1544.94 Q2293.95 1540.33 2293.95 1531.6 Q2293.95 1522.85 2297.01 1518.27 Q2300.09 1513.66 2305.9 1513.66 Z" fill="#000000" fill-rule="nonzero" fill-opacity="1" /><path clip-path="url(#clip970)" d="M2336.06 1517.37 Q2332.45 1517.37 2330.62 1520.93 Q2328.81 1524.47 2328.81 1531.6 Q2328.81 1538.71 2330.62 1542.27 Q2332.45 1545.82 2336.06 1545.82 Q2339.69 1545.82 2341.5 1542.27 Q2343.33 1538.71 2343.33 1531.6 Q2343.33 1524.47 2341.5 1520.93 Q2339.69 1517.37 2336.06 1517.37 M2336.06 1513.66 Q2341.87 1513.66 2344.92 1518.27 Q2348 1522.85 2348 1531.6 Q2348 1540.33 2344.92 1544.94 Q2341.87 1549.52 2336.06 1549.52 Q2330.25 1549.52 2327.17 1544.94 Q2324.11 1540.33 2324.11 1531.6 Q2324.11 1522.85 2327.17 1518.27 Q2330.25 1513.66 2336.06 1513.66 Z" fill="#000000" fill-rule="nonzero" fill-opacity="1" /><polyline clip-path="url(#clip972)" style="stroke:#000000; stroke-linecap:round; stroke-linejoin:round; stroke-width:2; stroke-opacity:0.1; fill:none" points="201.019,1407.86 2352.76,1407.86 "/>
<polyline clip-path="url(#clip972)" style="stroke:#000000; stroke-linecap:round; stroke-linejoin:round; stroke-width:2; stroke-opacity:0.1; fill:none" points="201.019,1062.35 2352.76,1062.35 "/>
<polyline clip-path="url(#clip972)" style="stroke:#000000; stroke-linecap:round; stroke-linejoin:round; stroke-width:2; stroke-opacity:0.1; fill:none" points="201.019,716.834 2352.76,716.834 "/>
<polyline clip-path="url(#clip972)" style="stroke:#000000; stroke-linecap:round; stroke-linejoin:round; stroke-width:2; stroke-opacity:0.1; fill:none" points="201.019,371.321 2352.76,371.321 "/>
<polyline clip-path="url(#clip970)" style="stroke:#000000; stroke-linecap:round; stroke-linejoin:round; stroke-width:4; stroke-opacity:1; fill:none" points="201.019,1486.45 201.019,47.2441 "/>
<polyline clip-path="url(#clip970)" style="stroke:#000000; stroke-linecap:round; stroke-linejoin:round; stroke-width:4; stroke-opacity:1; fill:none" points="201.019,1407.86 219.917,1407.86 "/>
<polyline clip-path="url(#clip970)" style="stroke:#000000; stroke-linecap:round; stroke-linejoin:round; stroke-width:4; stroke-opacity:1; fill:none" points="201.019,1062.35 219.917,1062.35 "/>
<polyline clip-path="url(#clip970)" style="stroke:#000000; stroke-linecap:round; stroke-linejoin:round; stroke-width:4; stroke-opacity:1; fill:none" points="201.019,716.834 219.917,716.834 "/>
<polyline clip-path="url(#clip970)" style="stroke:#000000; stroke-linecap:round; stroke-linejoin:round; stroke-width:4; stroke-opacity:1; fill:none" points="201.019,371.321 219.917,371.321 "/>
<path clip-path="url(#clip970)" d="M53.3995 1421.2 L61.0384 1421.2 L61.0384 1394.84 L52.7282 1396.51 L52.7282 1392.25 L60.9921 1390.58 L65.668 1390.58 L65.668 1421.2 L73.3068 1421.2 L73.3068 1425.14 L53.3995 1425.14 L53.3995 1421.2 Z" fill="#000000" fill-rule="nonzero" fill-opacity="1" /><path clip-path="url(#clip970)" d="M93.3299 1406 Q90.1817 1406 88.3299 1408.15 Q86.5012 1410.3 86.5012 1414.05 Q86.5012 1417.78 88.3299 1419.95 Q90.1817 1422.11 93.3299 1422.11 Q96.478 1422.11 98.3067 1419.95 Q100.159 1417.78 100.159 1414.05 Q100.159 1410.3 98.3067 1408.15 Q96.478 1406 93.3299 1406 M102.612 1391.34 L102.612 1395.6 Q100.853 1394.77 99.0474 1394.33 Q97.265 1393.89 95.5058 1393.89 Q90.8762 1393.89 88.4225 1397.01 Q85.9919 1400.14 85.6447 1406.46 Q87.0105 1404.45 89.0706 1403.38 Q91.1308 1402.29 93.6076 1402.29 Q98.8159 1402.29 101.825 1405.46 Q104.858 1408.61 104.858 1414.05 Q104.858 1419.38 101.709 1422.59 Q98.5613 1425.81 93.3299 1425.81 Q87.3345 1425.81 84.1632 1421.23 Q80.992 1416.62 80.992 1407.89 Q80.992 1399.7 84.8808 1394.84 Q88.7697 1389.95 95.3206 1389.95 Q97.0798 1389.95 98.8622 1390.3 Q100.668 1390.65 102.612 1391.34 Z" fill="#000000" fill-rule="nonzero" fill-opacity="1" /><path clip-path="url(#clip970)" d="M122.913 1393.66 Q119.302 1393.66 117.473 1397.22 Q115.668 1400.76 115.668 1407.89 Q115.668 1415 117.473 1418.57 Q119.302 1422.11 122.913 1422.11 Q126.547 1422.11 128.353 1418.57 Q130.182 1415 130.182 1407.89 Q130.182 1400.76 128.353 1397.22 Q126.547 1393.66 122.913 1393.66 M122.913 1389.95 Q128.723 1389.95 131.779 1394.56 Q134.857 1399.14 134.857 1407.89 Q134.857 1416.62 131.779 1421.23 Q128.723 1425.81 122.913 1425.81 Q117.103 1425.81 114.024 1421.23 Q110.969 1416.62 110.969 1407.89 Q110.969 1399.14 114.024 1394.56 Q117.103 1389.95 122.913 1389.95 Z" fill="#000000" fill-rule="nonzero" fill-opacity="1" /><path clip-path="url(#clip970)" d="M153.075 1393.66 Q149.464 1393.66 147.635 1397.22 Q145.83 1400.76 145.83 1407.89 Q145.83 1415 147.635 1418.57 Q149.464 1422.11 153.075 1422.11 Q156.709 1422.11 158.515 1418.57 Q160.343 1415 160.343 1407.89 Q160.343 1400.76 158.515 1397.22 Q156.709 1393.66 153.075 1393.66 M153.075 1389.95 Q158.885 1389.95 161.941 1394.56 Q165.019 1399.14 165.019 1407.89 Q165.019 1416.62 161.941 1421.23 Q158.885 1425.81 153.075 1425.81 Q147.265 1425.81 144.186 1421.23 Q141.131 1416.62 141.131 1407.89 Q141.131 1399.14 144.186 1394.56 Q147.265 1389.95 153.075 1389.95 Z" fill="#000000" fill-rule="nonzero" fill-opacity="1" /><path clip-path="url(#clip970)" d="M53.3995 1075.69 L61.0384 1075.69 L61.0384 1049.33 L52.7282 1050.99 L52.7282 1046.73 L60.9921 1045.07 L65.668 1045.07 L65.668 1075.69 L73.3068 1075.69 L73.3068 1079.63 L53.3995 1079.63 L53.3995 1075.69 Z" fill="#000000" fill-rule="nonzero" fill-opacity="1" /><path clip-path="url(#clip970)" d="M92.7512 1063.21 Q89.4178 1063.21 87.4966 1065 Q85.5984 1066.78 85.5984 1069.9 Q85.5984 1073.03 87.4966 1074.81 Q89.4178 1076.59 92.7512 1076.59 Q96.0845 1076.59 98.0058 1074.81 Q99.927 1073.01 99.927 1069.9 Q99.927 1066.78 98.0058 1065 Q96.1076 1063.21 92.7512 1063.21 M88.0753 1061.22 Q85.066 1060.48 83.3762 1058.42 Q81.7096 1056.36 81.7096 1053.4 Q81.7096 1049.26 84.6494 1046.85 Q87.6123 1044.44 92.7512 1044.44 Q97.9132 1044.44 100.853 1046.85 Q103.793 1049.26 103.793 1053.4 Q103.793 1056.36 102.103 1058.42 Q100.436 1060.48 97.4502 1061.22 Q100.83 1062.01 102.705 1064.3 Q104.603 1066.59 104.603 1069.9 Q104.603 1074.93 101.524 1077.61 Q98.4687 1080.3 92.7512 1080.3 Q87.0336 1080.3 83.9549 1077.61 Q80.8994 1074.93 80.8994 1069.9 Q80.8994 1066.59 82.7975 1064.3 Q84.6956 1062.01 88.0753 1061.22 M86.3623 1053.84 Q86.3623 1056.52 88.029 1058.03 Q89.7188 1059.53 92.7512 1059.53 Q95.7604 1059.53 97.4502 1058.03 Q99.1632 1056.52 99.1632 1053.84 Q99.1632 1051.15 97.4502 1049.65 Q95.7604 1048.15 92.7512 1048.15 Q89.7188 1048.15 88.029 1049.65 Q86.3623 1051.15 86.3623 1053.84 Z" fill="#000000" fill-rule="nonzero" fill-opacity="1" /><path clip-path="url(#clip970)" d="M122.913 1048.15 Q119.302 1048.15 117.473 1051.71 Q115.668 1055.25 115.668 1062.38 Q115.668 1069.49 117.473 1073.05 Q119.302 1076.59 122.913 1076.59 Q126.547 1076.59 128.353 1073.05 Q130.182 1069.49 130.182 1062.38 Q130.182 1055.25 128.353 1051.71 Q126.547 1048.15 122.913 1048.15 M122.913 1044.44 Q128.723 1044.44 131.779 1049.05 Q134.857 1053.63 134.857 1062.38 Q134.857 1071.11 131.779 1075.71 Q128.723 1080.3 122.913 1080.3 Q117.103 1080.3 114.024 1075.71 Q110.969 1071.11 110.969 1062.38 Q110.969 1053.63 114.024 1049.05 Q117.103 1044.44 122.913 1044.44 Z" fill="#000000" fill-rule="nonzero" fill-opacity="1" /><path clip-path="url(#clip970)" d="M153.075 1048.15 Q149.464 1048.15 147.635 1051.71 Q145.83 1055.25 145.83 1062.38 Q145.83 1069.49 147.635 1073.05 Q149.464 1076.59 153.075 1076.59 Q156.709 1076.59 158.515 1073.05 Q160.343 1069.49 160.343 1062.38 Q160.343 1055.25 158.515 1051.71 Q156.709 1048.15 153.075 1048.15 M153.075 1044.44 Q158.885 1044.44 161.941 1049.05 Q165.019 1053.63 165.019 1062.38 Q165.019 1071.11 161.941 1075.71 Q158.885 1080.3 153.075 1080.3 Q147.265 1080.3 144.186 1075.71 Q141.131 1071.11 141.131 1062.38 Q141.131 1053.63 144.186 1049.05 Q147.265 1044.44 153.075 1044.44 Z" fill="#000000" fill-rule="nonzero" fill-opacity="1" /><path clip-path="url(#clip970)" d="M56.6171 730.179 L72.9365 730.179 L72.9365 734.114 L50.9921 734.114 L50.9921 730.179 Q53.6541 727.424 58.2375 722.794 Q62.8439 718.142 64.0245 716.799 Q66.2698 714.276 67.1494 712.54 Q68.0522 710.781 68.0522 709.091 Q68.0522 706.336 66.1078 704.6 Q64.1865 702.864 61.0847 702.864 Q58.8856 702.864 56.4319 703.628 Q54.0014 704.392 51.2236 705.943 L51.2236 701.22 Q54.0477 700.086 56.5014 699.508 Q58.955 698.929 60.9921 698.929 Q66.3624 698.929 69.5568 701.614 Q72.7513 704.299 72.7513 708.79 Q72.7513 710.92 71.9411 712.841 Q71.1541 714.739 69.0476 717.332 Q68.4689 718.003 65.367 721.22 Q62.2652 724.415 56.6171 730.179 Z" fill="#000000" fill-rule="nonzero" fill-opacity="1" /><path clip-path="url(#clip970)" d="M92.7512 702.633 Q89.1401 702.633 87.3114 706.197 Q85.5058 709.739 85.5058 716.869 Q85.5058 723.975 87.3114 727.54 Q89.1401 731.081 92.7512 731.081 Q96.3854 731.081 98.1909 727.54 Q100.02 723.975 100.02 716.869 Q100.02 709.739 98.1909 706.197 Q96.3854 702.633 92.7512 702.633 M92.7512 698.929 Q98.5613 698.929 101.617 703.535 Q104.696 708.119 104.696 716.869 Q104.696 725.595 101.617 730.202 Q98.5613 734.785 92.7512 734.785 Q86.941 734.785 83.8623 730.202 Q80.8068 725.595 80.8068 716.869 Q80.8068 708.119 83.8623 703.535 Q86.941 698.929 92.7512 698.929 Z" fill="#000000" fill-rule="nonzero" fill-opacity="1" /><path clip-path="url(#clip970)" d="M122.913 702.633 Q119.302 702.633 117.473 706.197 Q115.668 709.739 115.668 716.869 Q115.668 723.975 117.473 727.54 Q119.302 731.081 122.913 731.081 Q126.547 731.081 128.353 727.54 Q130.182 723.975 130.182 716.869 Q130.182 709.739 128.353 706.197 Q126.547 702.633 122.913 702.633 M122.913 698.929 Q128.723 698.929 131.779 703.535 Q134.857 708.119 134.857 716.869 Q134.857 725.595 131.779 730.202 Q128.723 734.785 122.913 734.785 Q117.103 734.785 114.024 730.202 Q110.969 725.595 110.969 716.869 Q110.969 708.119 114.024 703.535 Q117.103 698.929 122.913 698.929 Z" fill="#000000" fill-rule="nonzero" fill-opacity="1" /><path clip-path="url(#clip970)" d="M153.075 702.633 Q149.464 702.633 147.635 706.197 Q145.83 709.739 145.83 716.869 Q145.83 723.975 147.635 727.54 Q149.464 731.081 153.075 731.081 Q156.709 731.081 158.515 727.54 Q160.343 723.975 160.343 716.869 Q160.343 709.739 158.515 706.197 Q156.709 702.633 153.075 702.633 M153.075 698.929 Q158.885 698.929 161.941 703.535 Q165.019 708.119 165.019 716.869 Q165.019 725.595 161.941 730.202 Q158.885 734.785 153.075 734.785 Q147.265 734.785 144.186 730.202 Q141.131 725.595 141.131 716.869 Q141.131 708.119 144.186 703.535 Q147.265 698.929 153.075 698.929 Z" fill="#000000" fill-rule="nonzero" fill-opacity="1" /><path clip-path="url(#clip970)" d="M56.6171 384.666 L72.9365 384.666 L72.9365 388.601 L50.9921 388.601 L50.9921 384.666 Q53.6541 381.911 58.2375 377.282 Q62.8439 372.629 64.0245 371.286 Q66.2698 368.763 67.1494 367.027 Q68.0522 365.268 68.0522 363.578 Q68.0522 360.823 66.1078 359.087 Q64.1865 357.351 61.0847 357.351 Q58.8856 357.351 56.4319 358.115 Q54.0014 358.879 51.2236 360.43 L51.2236 355.708 Q54.0477 354.573 56.5014 353.995 Q58.955 353.416 60.9921 353.416 Q66.3624 353.416 69.5568 356.101 Q72.7513 358.786 72.7513 363.277 Q72.7513 365.407 71.9411 367.328 Q71.1541 369.226 69.0476 371.819 Q68.4689 372.49 65.367 375.708 Q62.2652 378.902 56.6171 384.666 Z" fill="#000000" fill-rule="nonzero" fill-opacity="1" /><path clip-path="url(#clip970)" d="M86.779 384.666 L103.098 384.666 L103.098 388.601 L81.154 388.601 L81.154 384.666 Q83.816 381.911 88.3993 377.282 Q93.0058 372.629 94.1863 371.286 Q96.4317 368.763 97.3113 367.027 Q98.2141 365.268 98.2141 363.578 Q98.2141 360.823 96.2697 359.087 Q94.3484 357.351 91.2465 357.351 Q89.0475 357.351 86.5938 358.115 Q84.1632 358.879 81.3855 360.43 L81.3855 355.708 Q84.2095 354.573 86.6632 353.995 Q89.1169 353.416 91.1539 353.416 Q96.5243 353.416 99.7187 356.101 Q102.913 358.786 102.913 363.277 Q102.913 365.407 102.103 367.328 Q101.316 369.226 99.2095 371.819 Q98.6308 372.49 95.5289 375.708 Q92.4271 378.902 86.779 384.666 Z" fill="#000000" fill-rule="nonzero" fill-opacity="1" /><path clip-path="url(#clip970)" d="M122.913 357.12 Q119.302 357.12 117.473 360.685 Q115.668 364.226 115.668 371.356 Q115.668 378.462 117.473 382.027 Q119.302 385.569 122.913 385.569 Q126.547 385.569 128.353 382.027 Q130.182 378.462 130.182 371.356 Q130.182 364.226 128.353 360.685 Q126.547 357.12 122.913 357.12 M122.913 353.416 Q128.723 353.416 131.779 358.023 Q134.857 362.606 134.857 371.356 Q134.857 380.083 131.779 384.689 Q128.723 389.272 122.913 389.272 Q117.103 389.272 114.024 384.689 Q110.969 380.083 110.969 371.356 Q110.969 362.606 114.024 358.023 Q117.103 353.416 122.913 353.416 Z" fill="#000000" fill-rule="nonzero" fill-opacity="1" /><path clip-path="url(#clip970)" d="M153.075 357.12 Q149.464 357.12 147.635 360.685 Q145.83 364.226 145.83 371.356 Q145.83 378.462 147.635 382.027 Q149.464 385.569 153.075 385.569 Q156.709 385.569 158.515 382.027 Q160.343 378.462 160.343 371.356 Q160.343 364.226 158.515 360.685 Q156.709 357.12 153.075 357.12 M153.075 353.416 Q158.885 353.416 161.941 358.023 Q165.019 362.606 165.019 371.356 Q165.019 380.083 161.941 384.689 Q158.885 389.272 153.075 389.272 Q147.265 389.272 144.186 384.689 Q141.131 380.083 141.131 371.356 Q141.131 362.606 144.186 358.023 Q147.265 353.416 153.075 353.416 Z" fill="#000000" fill-rule="nonzero" fill-opacity="1" /><polyline clip-path="url(#clip972)" style="stroke:#009af9; stroke-linecap:round; stroke-linejoin:round; stroke-width:4; stroke-opacity:1; fill:none" points="261.917,1333.78 263.947,1334.09 265.977,1334.35 268.007,1334.57 270.037,1334.76 272.067,1334.93 274.097,1335.07 276.127,1335.21 278.157,1335.33 280.187,1335.44 282.217,690.188 284.247,690.44 286.277,690.678 288.307,690.904 290.337,691.119 292.367,691.324 294.397,691.52 296.426,691.708 298.456,691.889 300.486,692.062 302.516,1235.68 304.546,1235.95 306.576,1236.2 308.606,1236.43 310.636,1236.64 312.666,1236.83 314.696,1237.02 316.726,1237.19 318.756,1237.35 320.786,1237.5 322.816,1143.84 324.846,1145.63 326.876,1147.03 328.906,1148.12 330.935,1148.99 332.965,1149.68 334.995,1150.24 337.025,1150.71 339.055,1151.09 341.085,1151.42 343.115,1339.4 345.145,1339.66 347.175,1339.88 349.205,1340.09 351.235,1340.27 353.265,1340.44 355.295,1340.59 357.325,1340.73 359.355,1340.86 361.385,1340.98 363.415,1280.01 365.444,1280.58 367.474,1281.04 369.504,1281.43 371.534,1281.74 373.564,1282.01 375.594,1282.24 377.624,1282.43 379.654,1282.6 381.684,1282.75 383.714,1008.86 385.744,1009.54 387.774,1010.07 389.804,1010.49 391.834,1010.83 393.864,1011.1 395.894,1011.31 397.923,1011.5 399.953,1011.65 401.983,1011.78 404.013,1070.05 406.043,1070.8 408.073,1071.38 410.103,1071.83 412.133,1072.19 414.163,1072.49 416.193,1072.74 418.223,1072.95 420.253,1073.13 422.283,1073.29 424.313,851.289 426.343,851.559 428.373,851.814 430.403,852.054 432.432,852.283 434.462,852.501 436.492,852.709 438.522,852.909 440.552,853.1 442.582,853.284 444.612,1230.15 446.642,1230.79 448.672,1231.34 450.702,1231.83 452.732,1232.27 454.762,1232.67 456.792,1233.04 458.822,1233.38 460.852,1233.7 462.882,1233.99 464.912,796.685 466.941,797.525 468.971,798.146 471.001,798.614 473.031,798.974 475.061,799.258 477.091,799.488 479.121,799.68 481.151,799.844 483.181,799.987 485.211,556.621 487.241,558.201 489.271,559.407 491.301,560.346 493.331,561.095 495.361,561.706 497.391,562.217 499.421,562.653 501.45,563.034 503.48,563.372 505.51,456.856 507.54,457.836 509.57,458.607 511.6,459.231 513.63,459.751 515.66,460.193 517.69,460.579 519.72,460.922 521.75,461.231 523.78,461.514 525.81,689.349 527.84,689.843 529.87,690.221 531.9,690.515 533.929,690.749 535.959,690.94 537.989,691.1 540.019,691.236 542.049,691.354 544.079,691.459 546.109,725.738 548.139,725.965 550.169,726.168 552.199,726.351 554.229,726.519 556.259,726.674 558.289,726.82 560.319,726.958 562.349,727.089 564.379,727.215 566.409,969.299 568.438,969.605 570.468,969.894 572.498,970.168 574.528,970.428 576.558,970.676 578.588,970.913 580.618,971.139 582.648,971.355 584.678,971.563 586.708,714.437 588.738,715.407 590.768,716.17 592.798,716.778 594.828,717.268 596.858,717.67 598.888,718.005 600.918,718.287 602.947,718.53 604.977,718.742 607.007,938.91 609.037,940.029 611.067,940.892 613.097,941.572 615.127,942.118 617.157,942.569 619.187,942.949 621.217,943.277 623.247,943.566 625.277,943.825 627.307,870.164 629.337,870.563 631.367,870.876 633.397,871.128 635.426,871.335 637.456,871.509 639.486,871.658 641.516,871.79 643.546,871.907 645.576,872.013 647.606,789.293 649.636,789.756 651.666,790.141 653.696,790.467 655.726,790.749 657.756,790.996 659.786,791.215 661.816,791.414 663.846,791.595 665.876,791.762 667.906,653.063 669.935,653.519 671.965,653.872 673.995,654.153 676.025,654.381 678.055,654.573 680.085,654.736 682.115,654.88 684.145,655.007 686.175,655.123 688.205,310.83 690.235,311.549 692.265,312.184 694.295,312.752 696.325,313.265 698.355,313.733 700.385,314.162 702.415,314.558 704.444,314.926 706.474,315.267 708.504,634.779 710.534,635.093 712.564,635.375 714.594,635.629 716.624,635.862 718.654,636.075 720.684,636.273 722.714,636.458 724.744,636.63 726.774,636.791 728.804,798.008 730.834,798.267 732.864,798.481 734.894,798.662 736.924,798.82 738.953,798.96 740.983,799.088 743.013,799.207 745.043,799.317 747.073,799.422 749.103,901.118 751.133,902.005 753.163,902.774 755.193,903.447 757.223,904.044 759.253,904.578 761.283,905.06 763.313,905.498 765.343,905.899 767.373,906.268 769.403,884.019 771.432,884.357 773.462,884.678 775.492,884.984 777.522,885.276 779.552,885.555 781.582,885.821 783.612,886.076 785.642,886.319 787.672,886.553 789.702,927.893 791.732,928.102 793.762,928.293 795.792,928.47 797.822,928.635 799.852,928.789 801.882,928.935 803.912,929.073 805.941,929.205 807.971,929.33 810.001,1185.62 812.031,1186.06 814.061,1186.47 816.091,1186.87 818.121,1187.25 820.151,1187.61 822.181,1187.96 824.211,1188.31 826.241,1188.63 828.271,1188.95 830.301,1096.5 832.331,1096.74 834.361,1096.93 836.391,1097.1 838.421,1097.24 840.45,1097.36 842.48,1097.47 844.51,1097.57 846.54,1097.66 848.57,1097.75 850.6,327.94 852.63,328.871 854.66,329.565 856.69,330.104 858.72,330.538 860.75,330.902 862.78,331.218 864.81,331.5 866.84,331.758 868.87,331.996 870.9,946.127 872.929,946.766 874.959,947.241 876.989,947.6 879.019,947.876 881.049,948.094 883.079,948.269 885.109,948.414 887.139,948.536 889.169,948.641 891.199,564.443 893.229,564.716 895.259,564.926 897.289,565.094 899.319,565.233 901.349,565.351 903.379,565.456 905.409,565.551 907.438,565.639 909.468,565.721 911.498,808.772 913.528,809.19 915.558,809.538 917.588,809.836 919.618,810.094 921.648,810.324 923.678,810.531 925.708,810.72 927.738,810.895 929.768,811.058 931.798,280.889 933.828,281.407 935.858,281.846 937.888,282.226 939.918,282.561 941.947,282.861 943.977,283.133 946.007,283.383 948.037,283.615 950.067,283.833 952.097,286.837 954.127,287.691 956.157,288.284 958.187,288.713 960.217,289.036 962.247,289.291 964.277,289.501 966.307,289.68 968.337,289.838 970.367,289.98 972.397,1160.2 974.427,1160.67 976.456,1161.09 978.486,1161.46 980.516,1161.8 982.546,1162.1 984.576,1162.39 986.606,1162.65 988.636,1162.9 990.666,1163.13 992.696,742.849 994.726,743.304 996.756,743.641 998.786,743.899 1000.82,744.103 1002.85,744.269 1004.88,744.41 1006.91,744.533 1008.94,744.643 1010.97,744.743 1013,564.399 1015.03,565.039 1017.06,565.536 1019.09,565.924 1021.12,566.23 1023.15,566.475 1025.18,566.673 1027.2,566.836 1029.23,566.972 1031.26,567.089 1033.29,505.461 1035.32,506.725 1037.35,507.63 1039.38,508.295 1041.41,508.797 1043.44,509.19 1045.47,509.507 1047.5,509.772 1049.53,510.001 1051.56,510.204 1053.59,742.775 1055.62,742.979 1057.65,743.162 1059.68,743.329 1061.71,743.481 1063.74,743.621 1065.77,743.752 1067.8,743.874 1069.83,743.989 1071.86,744.098 1073.89,731.919 1075.92,732.2 1077.95,732.415 1079.98,732.584 1082.01,732.719 1084.04,732.83 1086.07,732.924 1088.1,733.005 1090.13,733.075 1092.16,733.138 1094.19,1166.22 1096.22,1167.32 1098.25,1168.18 1100.28,1168.85 1102.31,1169.39 1104.34,1169.83 1106.37,1170.2 1108.4,1170.52 1110.43,1170.79 1112.46,1171.04 1114.49,809.549 1116.52,809.91 1118.55,810.23 1120.58,810.52 1122.61,810.787 1124.64,811.037 1126.67,811.273 1128.7,811.497 1130.73,811.712 1132.76,811.917 1134.79,462.16 1136.82,462.778 1138.85,463.309 1140.88,463.773 1142.91,464.186 1144.94,464.559 1146.97,464.899 1149,465.212 1151.03,465.504 1153.06,465.776 1155.09,838.598 1157.12,838.758 1159.15,838.902 1161.18,839.032 1163.21,839.151 1165.24,839.262 1167.27,839.366 1169.3,839.465 1171.33,839.558 1173.36,839.648 1175.39,697.731 1177.42,698.095 1179.45,698.389 1181.48,698.634 1183.51,698.843 1185.54,699.026 1187.57,699.188 1189.6,699.335 1191.63,699.47 1193.66,699.595 1195.69,1206.74 1197.72,1207.57 1199.75,1208.27 1201.78,1208.86 1203.81,1209.37 1205.84,1209.82 1207.87,1210.22 1209.9,1210.59 1211.93,1210.92 1213.96,1211.22 1215.99,1426.09 1218.02,1426.68 1220.05,1427.2 1222.08,1427.66 1224.11,1428.09 1226.14,1428.47 1228.17,1428.83 1230.2,1429.16 1232.23,1429.46 1234.26,1429.75 1236.29,1032.31 1238.32,1033.16 1240.35,1033.82 1242.38,1034.33 1244.41,1034.74 1246.44,1035.07 1248.47,1035.36 1250.5,1035.6 1252.53,1035.82 1254.56,1036.02 1256.59,1297.5 1258.62,1298.14 1260.65,1298.71 1262.68,1299.22 1264.71,1299.69 1266.74,1300.13 1268.77,1300.53 1270.8,1300.91 1272.83,1301.27 1274.86,1301.61 1276.89,593.38 1278.92,594.825 1280.95,595.98 1282.98,596.928 1285.01,597.728 1287.04,598.421 1289.07,599.034 1291.1,599.585 1293.13,600.089 1295.16,600.554 1297.19,609.113 1299.22,609.295 1301.25,609.449 1303.28,609.583 1305.31,609.702 1307.34,609.811 1309.37,609.912 1311.4,610.006 1313.43,610.096 1315.46,610.183 1317.49,253.195 1319.52,254.14 1321.55,254.873 1323.58,255.456 1325.61,255.929 1327.64,256.324 1329.67,256.661 1331.7,256.954 1333.73,257.214 1335.76,257.449 1337.79,284.222 1339.82,284.743 1341.85,285.183 1343.88,285.566 1345.91,285.904 1347.94,286.209 1349.97,286.486 1352,286.743 1354.03,286.981 1356.06,287.203 1358.09,770.967 1360.12,771.8 1362.15,772.473 1364.18,773.025 1366.2,773.487 1368.23,773.88 1370.26,774.22 1372.29,774.518 1374.32,774.785 1376.35,775.024 1378.38,671.019 1380.41,671.089 1382.44,671.157 1384.47,671.221 1386.5,671.284 1388.53,671.344 1390.56,671.403 1392.59,671.46 1394.62,671.516 1396.65,671.57 1398.68,996.083 1400.71,996.671 1402.74,997.127 1404.77,997.489 1406.8,997.781 1408.83,998.023 1410.86,998.229 1412.89,998.406 1414.92,998.564 1416.95,998.705 1418.98,1112.45 1421.01,1113.55 1423.04,1114.42 1425.07,1115.1 1427.1,1115.65 1429.13,1116.11 1431.16,1116.5 1433.19,1116.84 1435.22,1117.13 1437.25,1117.39 1439.28,594.018 1441.31,595.075 1443.34,595.878 1445.37,596.505 1447.4,597.01 1449.43,597.43 1451.46,597.787 1453.49,598.099 1455.52,598.379 1457.55,598.632 1459.58,354.295 1461.61,355.272 1463.64,356.025 1465.67,356.625 1467.7,357.119 1469.73,357.538 1471.76,357.901 1473.79,358.223 1475.82,358.512 1477.85,358.775 1479.88,554.387 1481.91,554.526 1483.94,554.641 1485.97,554.74 1488,554.827 1490.03,554.905 1492.06,554.977 1494.09,555.043 1496.12,555.105 1498.15,555.164 1500.18,675.809 1502.21,677.028 1504.24,677.882 1506.27,678.488 1508.3,678.925 1510.33,679.248 1512.36,679.492 1514.39,679.682 1516.42,679.835 1518.45,679.962 1520.48,606.4 1522.51,606.797 1524.54,607.107 1526.57,607.358 1528.6,607.566 1530.63,607.745 1532.66,607.901 1534.69,608.041 1536.72,608.168 1538.75,608.285 1540.78,690.308 1542.81,690.901 1544.84,691.37 1546.87,691.752 1548.9,692.072 1550.93,692.348 1552.96,692.591 1554.99,692.81 1557.02,693.011 1559.05,693.197 1561.08,280.224 1563.11,281.158 1565.14,281.939 1567.17,282.605 1569.2,283.182 1571.23,283.688 1573.26,284.139 1575.29,284.544 1577.32,284.912 1579.35,285.247 1581.38,87.9763 1583.41,88.9262 1585.44,89.6968 1587.47,90.3391 1589.5,90.8872 1591.53,91.3637 1593.56,91.7843 1595.59,92.1599 1597.62,92.4985 1599.65,92.8058 1601.68,543.161 1603.71,544.313 1605.74,545.196 1607.77,545.882 1609.8,546.422 1611.83,546.855 1613.86,547.207 1615.89,547.5 1617.92,547.749 1619.95,547.964 1621.98,831.118 1624.01,831.588 1626.04,832.023 1628.07,832.429 1630.1,832.808 1632.13,833.164 1634.16,833.499 1636.19,833.814 1638.22,834.112 1640.25,834.393 1642.28,576.397 1644.31,576.887 1646.34,577.275 1648.37,577.592 1650.4,577.859 1652.43,578.089 1654.46,578.292 1656.49,578.475 1658.52,578.641 1660.55,578.795 1662.58,559.264 1664.61,559.47 1666.64,559.658 1668.67,559.833 1670.7,559.997 1672.73,560.151 1674.76,560.297 1676.79,560.437 1678.82,560.571 1680.85,560.699 1682.88,296.639 1684.91,298.971 1686.94,300.518 1688.97,301.567 1691,302.295 1693.03,302.818 1695.06,303.206 1697.09,303.506 1699.12,303.747 1701.15,303.949 1703.18,738.202 1705.2,739.185 1707.23,739.942 1709.26,740.54 1711.29,741.023 1713.32,741.424 1715.35,741.765 1717.38,742.061 1719.41,742.323 1721.44,742.557 1723.47,916.077 1725.5,916.507 1727.53,916.857 1729.56,917.146 1731.59,917.39 1733.62,917.6 1735.65,917.784 1737.68,917.948 1739.71,918.097 1741.74,918.235 1743.77,422.569 1745.8,423.486 1747.83,424.244 1749.86,424.882 1751.89,425.432 1753.92,425.913 1755.95,426.341 1757.98,426.728 1760.01,427.08 1762.04,427.405 1764.07,655.072 1766.1,655.32 1768.13,655.515 1770.16,655.672 1772.19,655.803 1774.22,655.914 1776.25,656.012 1778.28,656.1 1780.31,656.179 1782.34,656.252 1784.37,463.476 1786.4,463.719 1788.43,463.949 1790.46,464.167 1792.49,464.376 1794.52,464.576 1796.55,464.768 1798.58,464.952 1800.61,465.129 1802.64,465.3 1804.67,482.998 1806.7,483.74 1808.73,484.314 1810.76,484.767 1812.79,485.134 1814.82,485.438 1816.85,485.698 1818.88,485.923 1820.91,486.124 1822.94,486.306 1824.97,829.032 1827,830.445 1829.03,831.562 1831.06,832.46 1833.09,833.196 1835.12,833.813 1837.15,834.338 1839.18,834.795 1841.21,835.2 1843.24,835.563 1845.27,821.409 1847.3,821.937 1849.33,822.404 1851.36,822.823 1853.39,823.203 1855.42,823.551 1857.45,823.871 1859.48,824.169 1861.51,824.447 1863.54,824.708 1865.57,914.757 1867.6,915.092 1869.63,915.372 1871.66,915.61 1873.69,915.816 1875.72,915.998 1877.75,916.161 1879.78,916.31 1881.81,916.447 1883.84,916.575 1885.87,1442.85 1887.9,1443.39 1889.93,1443.84 1891.96,1444.23 1893.99,1444.56 1896.02,1444.84 1898.05,1445.1 1900.08,1445.32 1902.11,1445.53 1904.14,1445.72 1906.17,946.015 1908.2,946.362 1910.23,946.675 1912.26,946.962 1914.29,947.226 1916.32,947.473 1918.35,947.705 1920.38,947.924 1922.41,948.132 1924.44,948.33 1926.47,316.643 1928.5,317.564 1930.53,318.259 1932.56,318.799 1934.59,319.231 1936.62,319.586 1938.65,319.887 1940.68,320.149 1942.71,320.38 1944.74,320.59 1946.77,684.693 1948.8,684.799 1950.83,684.898 1952.86,684.992 1954.89,685.081 1956.92,685.166 1958.95,685.247 1960.98,685.324 1963.01,685.398 1965.04,685.469 1967.07,796.574 1969.1,796.956 1971.13,797.277 1973.16,797.553 1975.19,797.794 1977.22,798.009 1979.25,798.203 1981.28,798.381 1983.31,798.546 1985.34,798.699 1987.37,628.952 1989.4,629.465 1991.43,629.879 1993.46,630.219 1995.49,630.507 1997.52,630.755 1999.55,630.973 2001.58,631.17 2003.61,631.349 2005.64,631.515 2007.67,432.297 2009.7,432.494 2011.73,432.674 2013.76,432.84 2015.79,432.995 2017.82,433.14 2019.85,433.277 2021.88,433.407 2023.91,433.531 2025.94,433.649 2027.97,892.293 2030,892.968 2032.03,893.486 2034.06,893.887 2036.09,894.201 2038.12,894.453 2040.15,894.657 2042.18,894.826 2044.2,894.969 2046.23,895.091 2048.26,619.142 2050.29,619.489 2052.32,619.811 2054.35,620.11 2056.38,620.391 2058.41,620.654 2060.44,620.902 2062.47,621.136 2064.5,621.357 2066.53,621.567 2068.56,707.2 2070.59,707.333 2072.62,707.438 2074.65,707.522 2076.68,707.591 2078.71,707.649 2080.74,707.699 2082.77,707.744 2084.8,707.783 2086.83,707.82 2088.86,379.275 2090.89,379.685 2092.92,380.033 2094.95,380.335 2096.98,380.602 2099.01,380.843 2101.04,381.064 2103.07,381.269 2105.1,381.46 2107.13,381.64 2109.16,652.441 2111.19,652.91 2113.22,653.26 2115.25,653.523 2117.28,653.726 2119.31,653.884 2121.34,654.01 2123.37,654.113 2125.4,654.198 2127.43,654.272 2129.46,1192.88 2131.49,1193.25 2133.52,1193.59 2135.55,1193.91 2137.58,1194.21 2139.61,1194.49 2141.64,1194.75 2143.67,1195 2145.7,1195.23 2147.73,1195.46 2149.76,630.481 2151.79,631.201 2153.82,631.756 2155.85,632.194 2157.88,632.549 2159.91,632.844 2161.94,633.095 2163.97,633.314 2166,633.509 2168.03,633.686 2170.06,409.257 2172.09,409.516 2174.12,409.736 2176.15,409.929 2178.18,410.102 2180.21,410.259 2182.24,410.405 2184.27,410.541 2186.3,410.67 2188.33,410.792 2190.36,728.308 2192.39,728.845 2194.42,729.274 2196.45,729.623 2198.48,729.913 2200.51,730.159 2202.54,730.37 2204.57,730.555 2206.6,730.721 2208.63,730.87 2210.66,536.129 2212.69,536.844 2214.72,537.39 2216.75,537.816 2218.78,538.157 2220.81,538.437 2222.84,538.674 2224.87,538.878 2226.9,539.058 2228.93,539.219 2230.96,882.949 2232.99,883.363 2235.02,883.719 2237.05,884.031 2239.08,884.31 2241.11,884.563 2243.14,884.796 2245.17,885.012 2247.2,885.216 2249.23,885.408 2251.26,599.894 2253.29,600.331 2255.32,600.677 2257.35,600.954 2259.38,601.182 2261.41,601.374 2263.44,601.537 2265.47,601.68 2267.5,601.806 2269.53,601.919 2271.56,1012.85 2273.59,1013.56 2275.62,1014.15 2277.65,1014.65 2279.68,1015.08 2281.71,1015.45 2283.74,1015.78 2285.77,1016.07 2287.8,1016.33 2289.83,1016.56 2291.86,1016.78 "/>
<path clip-path="url(#clip970)" d="M272.744 198.898 L540.348 198.898 L540.348 95.2176 L272.744 95.2176  Z" fill="#ffffff" fill-rule="evenodd" fill-opacity="1"/>
<polyline clip-path="url(#clip970)" style="stroke:#000000; stroke-linecap:round; stroke-linejoin:round; stroke-width:4; stroke-opacity:1; fill:none" points="272.744,198.898 540.348,198.898 540.348,95.2176 272.744,95.2176 272.744,198.898 "/>
<polyline clip-path="url(#clip970)" style="stroke:#009af9; stroke-linecap:round; stroke-linejoin:round; stroke-width:4; stroke-opacity:1; fill:none" points="296.652,147.058 440.101,147.058 "/>
<path clip-path="url(#clip970)" d="M477.852 166.745 Q476.046 171.375 474.333 172.787 Q472.62 174.199 469.75 174.199 L466.347 174.199 L466.347 170.634 L468.847 170.634 Q470.607 170.634 471.579 169.8 Q472.551 168.967 473.731 165.865 L474.495 163.921 L464.009 138.412 L468.523 138.412 L476.625 158.689 L484.727 138.412 L489.241 138.412 L477.852 166.745 Z" fill="#000000" fill-rule="nonzero" fill-opacity="1" /><path clip-path="url(#clip970)" d="M496.532 160.402 L504.171 160.402 L504.171 134.037 L495.861 135.703 L495.861 131.444 L504.125 129.778 L508.801 129.778 L508.801 160.402 L516.44 160.402 L516.44 164.338 L496.532 164.338 L496.532 160.402 Z" fill="#000000" fill-rule="nonzero" fill-opacity="1" /></svg>
