<?xml version="1.0" encoding="utf-8"?>
<svg xmlns="http://www.w3.org/2000/svg" xmlns:xlink="http://www.w3.org/1999/xlink" width="600" height="400" viewBox="0 0 2400 1600">
<defs>
  <clipPath id="clip240">
    <rect x="0" y="0" width="2400" height="1600"/>
  </clipPath>
</defs>
<path clip-path="url(#clip240)" d="M0 1600 L2400 1600 L2400 0 L0 0  Z" fill="#ffffff" fill-rule="evenodd" fill-opacity="1"/>
<defs>
  <clipPath id="clip241">
    <rect x="480" y="0" width="1681" height="1600"/>
  </clipPath>
</defs>
<path clip-path="url(#clip240)" d="M304.838 1486.45 L2352.76 1486.45 L2352.76 47.2441 L304.838 47.2441  Z" fill="#ffffff" fill-rule="evenodd" fill-opacity="1"/>
<defs>
  <clipPath id="clip242">
    <rect x="304" y="47" width="2049" height="1440"/>
  </clipPath>
</defs>
<polyline clip-path="url(#clip242)" style="stroke:#000000; stroke-linecap:round; stroke-linejoin:round; stroke-width:2; stroke-opacity:0.1; fill:none" points="362.798,1486.45 362.798,47.2441 "/>
<polyline clip-path="url(#clip242)" style="stroke:#000000; stroke-linecap:round; stroke-linejoin:round; stroke-width:2; stroke-opacity:0.1; fill:none" points="845.798,1486.45 845.798,47.2441 "/>
<polyline clip-path="url(#clip242)" style="stroke:#000000; stroke-linecap:round; stroke-linejoin:round; stroke-width:2; stroke-opacity:0.1; fill:none" points="1328.8,1486.45 1328.8,47.2441 "/>
<polyline clip-path="url(#clip242)" style="stroke:#000000; stroke-linecap:round; stroke-linejoin:round; stroke-width:2; stroke-opacity:0.1; fill:none" points="1811.8,1486.45 1811.8,47.2441 "/>
<polyline clip-path="url(#clip242)" style="stroke:#000000; stroke-linecap:round; stroke-linejoin:round; stroke-width:2; stroke-opacity:0.1; fill:none" points="2294.8,1486.45 2294.8,47.2441 "/>
<polyline clip-path="url(#clip240)" style="stroke:#000000; stroke-linecap:round; stroke-linejoin:round; stroke-width:4; stroke-opacity:1; fill:none" points="304.838,1486.45 2352.76,1486.45 "/>
<polyline clip-path="url(#clip240)" style="stroke:#000000; stroke-linecap:round; stroke-linejoin:round; stroke-width:4; stroke-opacity:1; fill:none" points="362.798,1486.45 362.798,1467.55 "/>
<polyline clip-path="url(#clip240)" style="stroke:#000000; stroke-linecap:round; stroke-linejoin:round; stroke-width:4; stroke-opacity:1; fill:none" points="845.798,1486.45 845.798,1467.55 "/>
<polyline clip-path="url(#clip240)" style="stroke:#000000; stroke-linecap:round; stroke-linejoin:round; stroke-width:4; stroke-opacity:1; fill:none" points="1328.8,1486.45 1328.8,1467.55 "/>
<polyline clip-path="url(#clip240)" style="stroke:#000000; stroke-linecap:round; stroke-linejoin:round; stroke-width:4; stroke-opacity:1; fill:none" points="1811.8,1486.45 1811.8,1467.55 "/>
<polyline clip-path="url(#clip240)" style="stroke:#000000; stroke-linecap:round; stroke-linejoin:round; stroke-width:4; stroke-opacity:1; fill:none" points="2294.8,1486.45 2294.8,1467.55 "/>
<path clip-path="url(#clip240)" d="M325.102 1517.37 Q321.49 1517.37 319.662 1520.93 Q317.856 1524.47 317.856 1531.6 Q317.856 1538.71 319.662 1542.27 Q321.49 1545.82 325.102 1545.82 Q328.736 1545.82 330.541 1542.27 Q332.37 1538.71 332.37 1531.6 Q332.37 1524.47 330.541 1520.93 Q328.736 1517.37 325.102 1517.37 M325.102 1513.66 Q330.912 1513.66 333.967 1518.27 Q337.046 1522.85 337.046 1531.6 Q337.046 1540.33 333.967 1544.94 Q330.912 1549.52 325.102 1549.52 Q319.291 1549.52 316.213 1544.94 Q313.157 1540.33 313.157 1531.6 Q313.157 1522.85 316.213 1518.27 Q319.291 1513.66 325.102 1513.66 Z" fill="#000000" fill-rule="nonzero" fill-opacity="1" /><path clip-path="url(#clip240)" d="M345.263 1542.97 L350.148 1542.97 L350.148 1548.85 L345.263 1548.85 L345.263 1542.97 Z" fill="#000000" fill-rule="nonzero" fill-opacity="1" /><path clip-path="url(#clip240)" d="M370.333 1517.37 Q366.722 1517.37 364.893 1520.93 Q363.087 1524.47 363.087 1531.6 Q363.087 1538.71 364.893 1542.27 Q366.722 1545.82 370.333 1545.82 Q373.967 1545.82 375.773 1542.27 Q377.601 1538.71 377.601 1531.6 Q377.601 1524.47 375.773 1520.93 Q373.967 1517.37 370.333 1517.37 M370.333 1513.66 Q376.143 1513.66 379.198 1518.27 Q382.277 1522.85 382.277 1531.6 Q382.277 1540.33 379.198 1544.94 Q376.143 1549.52 370.333 1549.52 Q364.523 1549.52 361.444 1544.94 Q358.388 1540.33 358.388 1531.6 Q358.388 1522.85 361.444 1518.27 Q364.523 1513.66 370.333 1513.66 Z" fill="#000000" fill-rule="nonzero" fill-opacity="1" /><path clip-path="url(#clip240)" d="M400.495 1517.37 Q396.884 1517.37 395.055 1520.93 Q393.249 1524.47 393.249 1531.6 Q393.249 1538.71 395.055 1542.27 Q396.884 1545.82 400.495 1545.82 Q404.129 1545.82 405.934 1542.27 Q407.763 1538.71 407.763 1531.6 Q407.763 1524.47 405.934 1520.93 Q404.129 1517.37 400.495 1517.37 M400.495 1513.66 Q406.305 1513.66 409.36 1518.27 Q412.439 1522.85 412.439 1531.6 Q412.439 1540.33 409.36 1544.94 Q406.305 1549.52 400.495 1549.52 Q394.685 1549.52 391.606 1544.94 Q388.55 1540.33 388.55 1531.6 Q388.55 1522.85 391.606 1518.27 Q394.685 1513.66 400.495 1513.66 Z" fill="#000000" fill-rule="nonzero" fill-opacity="1" /><path clip-path="url(#clip240)" d="M808.599 1517.37 Q804.988 1517.37 803.159 1520.93 Q801.353 1524.47 801.353 1531.6 Q801.353 1538.71 803.159 1542.27 Q804.988 1545.82 808.599 1545.82 Q812.233 1545.82 814.038 1542.27 Q815.867 1538.71 815.867 1531.6 Q815.867 1524.47 814.038 1520.93 Q812.233 1517.37 808.599 1517.37 M808.599 1513.66 Q814.409 1513.66 817.464 1518.27 Q820.543 1522.85 820.543 1531.6 Q820.543 1540.33 817.464 1544.94 Q814.409 1549.52 808.599 1549.52 Q802.789 1549.52 799.71 1544.94 Q796.654 1540.33 796.654 1531.6 Q796.654 1522.85 799.71 1518.27 Q802.789 1513.66 808.599 1513.66 Z" fill="#000000" fill-rule="nonzero" fill-opacity="1" /><path clip-path="url(#clip240)" d="M828.761 1542.97 L833.645 1542.97 L833.645 1548.85 L828.761 1548.85 L828.761 1542.97 Z" fill="#000000" fill-rule="nonzero" fill-opacity="1" /><path clip-path="url(#clip240)" d="M847.858 1544.91 L864.177 1544.91 L864.177 1548.85 L842.233 1548.85 L842.233 1544.91 Q844.895 1542.16 849.478 1537.53 Q854.085 1532.88 855.265 1531.53 Q857.51 1529.01 858.39 1527.27 Q859.293 1525.51 859.293 1523.82 Q859.293 1521.07 857.348 1519.33 Q855.427 1517.6 852.325 1517.6 Q850.126 1517.6 847.673 1518.36 Q845.242 1519.13 842.464 1520.68 L842.464 1515.95 Q845.288 1514.82 847.742 1514.24 Q850.196 1513.66 852.233 1513.66 Q857.603 1513.66 860.797 1516.35 Q863.992 1519.03 863.992 1523.52 Q863.992 1525.65 863.182 1527.57 Q862.395 1529.47 860.288 1532.07 Q859.71 1532.74 856.608 1535.95 Q853.506 1539.15 847.858 1544.91 Z" fill="#000000" fill-rule="nonzero" fill-opacity="1" /><path clip-path="url(#clip240)" d="M874.038 1514.29 L892.395 1514.29 L892.395 1518.22 L878.321 1518.22 L878.321 1526.7 Q879.339 1526.35 880.358 1526.19 Q881.376 1526 882.395 1526 Q888.182 1526 891.561 1529.17 Q894.941 1532.34 894.941 1537.76 Q894.941 1543.34 891.469 1546.44 Q887.996 1549.52 881.677 1549.52 Q879.501 1549.52 877.233 1549.15 Q874.987 1548.78 872.58 1548.04 L872.58 1543.34 Q874.663 1544.47 876.885 1545.03 Q879.108 1545.58 881.584 1545.58 Q885.589 1545.58 887.927 1543.48 Q890.265 1541.37 890.265 1537.76 Q890.265 1534.15 887.927 1532.04 Q885.589 1529.94 881.584 1529.94 Q879.709 1529.94 877.834 1530.35 Q875.983 1530.77 874.038 1531.65 L874.038 1514.29 Z" fill="#000000" fill-rule="nonzero" fill-opacity="1" /><path clip-path="url(#clip240)" d="M1291.1 1517.37 Q1287.49 1517.37 1285.66 1520.93 Q1283.86 1524.47 1283.86 1531.6 Q1283.86 1538.71 1285.66 1542.27 Q1287.49 1545.82 1291.1 1545.82 Q1294.73 1545.82 1296.54 1542.27 Q1298.37 1538.71 1298.37 1531.6 Q1298.37 1524.47 1296.54 1520.93 Q1294.73 1517.37 1291.1 1517.37 M1291.1 1513.66 Q1296.91 1513.66 1299.97 1518.27 Q1303.04 1522.85 1303.04 1531.6 Q1303.04 1540.33 1299.97 1544.94 Q1296.91 1549.52 1291.1 1549.52 Q1285.29 1549.52 1282.21 1544.94 Q1279.16 1540.33 1279.16 1531.6 Q1279.16 1522.85 1282.21 1518.27 Q1285.29 1513.66 1291.1 1513.66 Z" fill="#000000" fill-rule="nonzero" fill-opacity="1" /><path clip-path="url(#clip240)" d="M1311.26 1542.97 L1316.15 1542.97 L1316.15 1548.85 L1311.26 1548.85 L1311.26 1542.97 Z" fill="#000000" fill-rule="nonzero" fill-opacity="1" /><path clip-path="url(#clip240)" d="M1326.38 1514.29 L1344.73 1514.29 L1344.73 1518.22 L1330.66 1518.22 L1330.66 1526.7 Q1331.68 1526.35 1332.7 1526.19 Q1333.72 1526 1334.73 1526 Q1340.52 1526 1343.9 1529.17 Q1347.28 1532.34 1347.28 1537.76 Q1347.28 1543.34 1343.81 1546.44 Q1340.34 1549.52 1334.02 1549.52 Q1331.84 1549.52 1329.57 1549.15 Q1327.33 1548.78 1324.92 1548.04 L1324.92 1543.34 Q1327 1544.47 1329.23 1545.03 Q1331.45 1545.58 1333.92 1545.58 Q1337.93 1545.58 1340.27 1543.48 Q1342.6 1541.37 1342.6 1537.76 Q1342.6 1534.15 1340.27 1532.04 Q1337.93 1529.94 1333.92 1529.94 Q1332.05 1529.94 1330.17 1530.35 Q1328.32 1530.77 1326.38 1531.65 L1326.38 1514.29 Z" fill="#000000" fill-rule="nonzero" fill-opacity="1" /><path clip-path="url(#clip240)" d="M1366.49 1517.37 Q1362.88 1517.37 1361.05 1520.93 Q1359.25 1524.47 1359.25 1531.6 Q1359.25 1538.71 1361.05 1542.27 Q1362.88 1545.82 1366.49 1545.82 Q1370.13 1545.82 1371.93 1542.27 Q1373.76 1538.71 1373.76 1531.6 Q1373.76 1524.47 1371.93 1520.93 Q1370.13 1517.37 1366.49 1517.37 M1366.49 1513.66 Q1372.3 1513.66 1375.36 1518.27 Q1378.44 1522.85 1378.44 1531.6 Q1378.44 1540.33 1375.36 1544.94 Q1372.3 1549.52 1366.49 1549.52 Q1360.68 1549.52 1357.6 1544.94 Q1354.55 1540.33 1354.55 1531.6 Q1354.55 1522.85 1357.6 1518.27 Q1360.68 1513.66 1366.49 1513.66 Z" fill="#000000" fill-rule="nonzero" fill-opacity="1" /><path clip-path="url(#clip240)" d="M1774.6 1517.37 Q1770.99 1517.37 1769.16 1520.93 Q1767.35 1524.47 1767.35 1531.6 Q1767.35 1538.71 1769.16 1542.27 Q1770.99 1545.82 1774.6 1545.82 Q1778.23 1545.82 1780.04 1542.27 Q1781.87 1538.71 1781.87 1531.6 Q1781.87 1524.47 1780.04 1520.93 Q1778.23 1517.37 1774.6 1517.37 M1774.6 1513.66 Q1780.41 1513.66 1783.46 1518.27 Q1786.54 1522.85 1786.54 1531.6 Q1786.54 1540.33 1783.46 1544.94 Q1780.41 1549.52 1774.6 1549.52 Q1768.79 1549.52 1765.71 1544.94 Q1762.65 1540.33 1762.65 1531.6 Q1762.65 1522.85 1765.71 1518.27 Q1768.79 1513.66 1774.6 1513.66 Z" fill="#000000" fill-rule="nonzero" fill-opacity="1" /><path clip-path="url(#clip240)" d="M1794.76 1542.97 L1799.64 1542.97 L1799.64 1548.85 L1794.76 1548.85 L1794.76 1542.97 Z" fill="#000000" fill-rule="nonzero" fill-opacity="1" /><path clip-path="url(#clip240)" d="M1808.65 1514.29 L1830.87 1514.29 L1830.87 1516.28 L1818.32 1548.85 L1813.44 1548.85 L1825.25 1518.22 L1808.65 1518.22 L1808.65 1514.29 Z" fill="#000000" fill-rule="nonzero" fill-opacity="1" /><path clip-path="url(#clip240)" d="M1840.04 1514.29 L1858.39 1514.29 L1858.39 1518.22 L1844.32 1518.22 L1844.32 1526.7 Q1845.34 1526.35 1846.36 1526.19 Q1847.38 1526 1848.39 1526 Q1854.18 1526 1857.56 1529.17 Q1860.94 1532.34 1860.94 1537.76 Q1860.94 1543.34 1857.47 1546.44 Q1854 1549.52 1847.68 1549.52 Q1845.5 1549.52 1843.23 1549.15 Q1840.99 1548.78 1838.58 1548.04 L1838.58 1543.34 Q1840.66 1544.47 1842.88 1545.03 Q1845.11 1545.58 1847.58 1545.58 Q1851.59 1545.58 1853.93 1543.48 Q1856.26 1541.37 1856.26 1537.76 Q1856.26 1534.15 1853.93 1532.04 Q1851.59 1529.94 1847.58 1529.94 Q1845.71 1529.94 1843.83 1530.35 Q1841.98 1530.77 1840.04 1531.65 L1840.04 1514.29 Z" fill="#000000" fill-rule="nonzero" fill-opacity="1" /><path clip-path="url(#clip240)" d="M2246.87 1544.91 L2254.51 1544.91 L2254.51 1518.55 L2246.2 1520.21 L2246.2 1515.95 L2254.46 1514.29 L2259.14 1514.29 L2259.14 1544.91 L2266.78 1544.91 L2266.78 1548.85 L2246.87 1548.85 L2246.87 1544.91 Z" fill="#000000" fill-rule="nonzero" fill-opacity="1" /><path clip-path="url(#clip240)" d="M2276.22 1542.97 L2281.1 1542.97 L2281.1 1548.85 L2276.22 1548.85 L2276.22 1542.97 Z" fill="#000000" fill-rule="nonzero" fill-opacity="1" /><path clip-path="url(#clip240)" d="M2301.29 1517.37 Q2297.68 1517.37 2295.85 1520.93 Q2294.04 1524.47 2294.04 1531.6 Q2294.04 1538.71 2295.85 1542.27 Q2297.68 1545.82 2301.29 1545.82 Q2304.92 1545.82 2306.73 1542.27 Q2308.56 1538.71 2308.56 1531.6 Q2308.56 1524.47 2306.73 1520.93 Q2304.92 1517.37 2301.29 1517.37 M2301.29 1513.66 Q2307.1 1513.66 2310.15 1518.27 Q2313.23 1522.85 2313.23 1531.6 Q2313.23 1540.33 2310.15 1544.94 Q2307.1 1549.52 2301.29 1549.52 Q2295.48 1549.52 2292.4 1544.94 Q2289.34 1540.33 2289.34 1531.6 Q2289.34 1522.85 2292.4 1518.27 Q2295.48 1513.66 2301.29 1513.66 Z" fill="#000000" fill-rule="nonzero" fill-opacity="1" /><path clip-path="url(#clip240)" d="M2331.45 1517.37 Q2327.84 1517.37 2326.01 1520.93 Q2324.21 1524.47 2324.21 1531.6 Q2324.21 1538.71 2326.01 1542.27 Q2327.84 1545.82 2331.45 1545.82 Q2335.09 1545.82 2336.89 1542.27 Q2338.72 1538.71 2338.72 1531.6 Q2338.72 1524.47 2336.89 1520.93 Q2335.09 1517.37 2331.45 1517.37 M2331.45 1513.66 Q2337.26 1513.66 2340.32 1518.27 Q2343.4 1522.85 2343.4 1531.6 Q2343.4 1540.33 2340.32 1544.94 Q2337.26 1549.52 2331.45 1549.52 Q2325.64 1549.52 2322.56 1544.94 Q2319.51 1540.33 2319.51 1531.6 Q2319.51 1522.85 2322.56 1518.27 Q2325.64 1513.66 2331.45 1513.66 Z" fill="#000000" fill-rule="nonzero" fill-opacity="1" /><polyline clip-path="url(#clip242)" style="stroke:#000000; stroke-linecap:round; stroke-linejoin:round; stroke-width:2; stroke-opacity:0.1; fill:none" points="304.838,1302.2 2352.76,1302.2 "/>
<polyline clip-path="url(#clip242)" style="stroke:#000000; stroke-linecap:round; stroke-linejoin:round; stroke-width:2; stroke-opacity:0.1; fill:none" points="304.838,963.938 2352.76,963.938 "/>
<polyline clip-path="url(#clip242)" style="stroke:#000000; stroke-linecap:round; stroke-linejoin:round; stroke-width:2; stroke-opacity:0.1; fill:none" points="304.838,625.672 2352.76,625.672 "/>
<polyline clip-path="url(#clip242)" style="stroke:#000000; stroke-linecap:round; stroke-linejoin:round; stroke-width:2; stroke-opacity:0.1; fill:none" points="304.838,287.406 2352.76,287.406 "/>
<polyline clip-path="url(#clip240)" style="stroke:#000000; stroke-linecap:round; stroke-linejoin:round; stroke-width:4; stroke-opacity:1; fill:none" points="304.838,1486.45 304.838,47.2441 "/>
<polyline clip-path="url(#clip240)" style="stroke:#000000; stroke-linecap:round; stroke-linejoin:round; stroke-width:4; stroke-opacity:1; fill:none" points="304.838,1302.2 323.736,1302.2 "/>
<polyline clip-path="url(#clip240)" style="stroke:#000000; stroke-linecap:round; stroke-linejoin:round; stroke-width:4; stroke-opacity:1; fill:none" points="304.838,963.938 323.736,963.938 "/>
<polyline clip-path="url(#clip240)" style="stroke:#000000; stroke-linecap:round; stroke-linejoin:round; stroke-width:4; stroke-opacity:1; fill:none" points="304.838,625.672 323.736,625.672 "/>
<polyline clip-path="url(#clip240)" style="stroke:#000000; stroke-linecap:round; stroke-linejoin:round; stroke-width:4; stroke-opacity:1; fill:none" points="304.838,287.406 323.736,287.406 "/>
<path clip-path="url(#clip240)" d="M51.6634 1315.55 L59.3023 1315.55 L59.3023 1289.18 L50.9921 1290.85 L50.9921 1286.59 L59.256 1284.92 L63.9319 1284.92 L63.9319 1315.55 L71.5707 1315.55 L71.5707 1319.48 L51.6634 1319.48 L51.6634 1315.55 Z" fill="#000000" fill-rule="nonzero" fill-opacity="1" /><path clip-path="url(#clip240)" d="M81.0614 1284.92 L99.4178 1284.92 L99.4178 1288.86 L85.3438 1288.86 L85.3438 1297.33 Q86.3623 1296.98 87.3808 1296.82 Q88.3993 1296.64 89.4178 1296.64 Q95.2049 1296.64 98.5845 1299.81 Q101.964 1302.98 101.964 1308.4 Q101.964 1313.97 98.4919 1317.08 Q95.0197 1320.16 88.7003 1320.16 Q86.5243 1320.16 84.2558 1319.79 Q82.0105 1319.41 79.6031 1318.67 L79.6031 1313.97 Q81.6864 1315.11 83.9086 1315.66 Q86.1308 1316.22 88.6077 1316.22 Q92.6123 1316.22 94.9502 1314.11 Q97.2882 1312.01 97.2882 1308.4 Q97.2882 1304.79 94.9502 1302.68 Q92.6123 1300.57 88.6077 1300.57 Q86.7327 1300.57 84.8577 1300.99 Q83.0058 1301.41 81.0614 1302.29 L81.0614 1284.92 Z" fill="#000000" fill-rule="nonzero" fill-opacity="1" /><path clip-path="url(#clip240)" d="M125.344 1300.85 Q128.7 1301.57 130.575 1303.84 Q132.473 1306.1 132.473 1309.44 Q132.473 1314.55 128.955 1317.35 Q125.436 1320.16 118.955 1320.16 Q116.779 1320.16 114.464 1319.72 Q112.172 1319.3 109.719 1318.44 L109.719 1313.93 Q111.663 1315.06 113.978 1315.64 Q116.293 1316.22 118.816 1316.22 Q123.214 1316.22 125.506 1314.48 Q127.82 1312.75 127.82 1309.44 Q127.82 1306.38 125.668 1304.67 Q123.538 1302.93 119.719 1302.93 L115.691 1302.93 L115.691 1299.09 L119.904 1299.09 Q123.353 1299.09 125.182 1297.72 Q127.01 1296.34 127.01 1293.74 Q127.01 1291.08 125.112 1289.67 Q123.237 1288.23 119.719 1288.23 Q117.797 1288.23 115.598 1288.65 Q113.399 1289.07 110.76 1289.95 L110.76 1285.78 Q113.422 1285.04 115.737 1284.67 Q118.075 1284.3 120.135 1284.3 Q125.459 1284.3 128.561 1286.73 Q131.663 1289.14 131.663 1293.26 Q131.663 1296.13 130.019 1298.12 Q128.376 1300.09 125.344 1300.85 Z" fill="#000000" fill-rule="nonzero" fill-opacity="1" /><path clip-path="url(#clip240)" d="M145.367 1315.55 L161.686 1315.55 L161.686 1319.48 L139.742 1319.48 L139.742 1315.55 Q142.404 1312.79 146.987 1308.16 Q151.593 1303.51 152.774 1302.17 Q155.019 1299.65 155.899 1297.91 Q156.802 1296.15 156.802 1294.46 Q156.802 1291.71 154.857 1289.97 Q152.936 1288.23 149.834 1288.23 Q147.635 1288.23 145.181 1289 Q142.751 1289.76 139.973 1291.31 L139.973 1286.59 Q142.797 1285.46 145.251 1284.88 Q147.705 1284.3 149.742 1284.3 Q155.112 1284.3 158.306 1286.98 Q161.501 1289.67 161.501 1294.16 Q161.501 1296.29 160.691 1298.21 Q159.904 1300.11 157.797 1302.7 Q157.218 1303.37 154.117 1306.59 Q151.015 1309.79 145.367 1315.55 Z" fill="#000000" fill-rule="nonzero" fill-opacity="1" /><path clip-path="url(#clip240)" d="M171.501 1313.6 L176.385 1313.6 L176.385 1319.48 L171.501 1319.48 L171.501 1313.6 Z" fill="#000000" fill-rule="nonzero" fill-opacity="1" /><path clip-path="url(#clip240)" d="M199.417 1289 L187.612 1307.45 L199.417 1307.45 L199.417 1289 M198.19 1284.92 L204.07 1284.92 L204.07 1307.45 L209.001 1307.45 L209.001 1311.34 L204.07 1311.34 L204.07 1319.48 L199.417 1319.48 L199.417 1311.34 L183.815 1311.34 L183.815 1306.82 L198.19 1284.92 Z" fill="#000000" fill-rule="nonzero" fill-opacity="1" /><path clip-path="url(#clip240)" d="M220.76 1315.55 L237.079 1315.55 L237.079 1319.48 L215.135 1319.48 L215.135 1315.55 Q217.797 1312.79 222.38 1308.16 Q226.987 1303.51 228.167 1302.17 Q230.412 1299.65 231.292 1297.91 Q232.195 1296.15 232.195 1294.46 Q232.195 1291.71 230.25 1289.97 Q228.329 1288.23 225.227 1288.23 Q223.028 1288.23 220.575 1289 Q218.144 1289.76 215.366 1291.31 L215.366 1286.59 Q218.19 1285.46 220.644 1284.88 Q223.098 1284.3 225.135 1284.3 Q230.505 1284.3 233.699 1286.98 Q236.894 1289.67 236.894 1294.16 Q236.894 1296.29 236.084 1298.21 Q235.297 1300.11 233.19 1302.7 Q232.612 1303.37 229.51 1306.59 Q226.408 1309.79 220.76 1315.55 Z" fill="#000000" fill-rule="nonzero" fill-opacity="1" /><path clip-path="url(#clip240)" d="M256.894 1288 Q253.283 1288 251.454 1291.57 Q249.648 1295.11 249.648 1302.24 Q249.648 1309.35 251.454 1312.91 Q253.283 1316.45 256.894 1316.45 Q260.528 1316.45 262.334 1312.91 Q264.162 1309.35 264.162 1302.24 Q264.162 1295.11 262.334 1291.57 Q260.528 1288 256.894 1288 M256.894 1284.3 Q262.704 1284.3 265.759 1288.91 Q268.838 1293.49 268.838 1302.24 Q268.838 1310.97 265.759 1315.57 Q262.704 1320.16 256.894 1320.16 Q251.084 1320.16 248.005 1315.57 Q244.949 1310.97 244.949 1302.24 Q244.949 1293.49 248.005 1288.91 Q251.084 1284.3 256.894 1284.3 Z" fill="#000000" fill-rule="nonzero" fill-opacity="1" /><path clip-path="url(#clip240)" d="M52.6588 977.283 L60.2976 977.283 L60.2976 950.917 L51.9875 952.584 L51.9875 948.325 L60.2513 946.658 L64.9272 946.658 L64.9272 977.283 L72.5661 977.283 L72.5661 981.218 L52.6588 981.218 L52.6588 977.283 Z" fill="#000000" fill-rule="nonzero" fill-opacity="1" /><path clip-path="url(#clip240)" d="M82.0568 946.658 L100.413 946.658 L100.413 950.593 L86.3392 950.593 L86.3392 959.066 Q87.3577 958.718 88.3762 958.556 Q89.3947 958.371 90.4132 958.371 Q96.2002 958.371 99.5798 961.542 Q102.959 964.714 102.959 970.13 Q102.959 975.709 99.4872 978.811 Q96.015 981.89 89.6956 981.89 Q87.5197 981.89 85.2512 981.519 Q83.0058 981.149 80.5984 980.408 L80.5984 975.709 Q82.6818 976.843 84.904 977.399 Q87.1262 977.954 89.603 977.954 Q93.6076 977.954 95.9456 975.848 Q98.2835 973.741 98.2835 970.13 Q98.2835 966.519 95.9456 964.413 Q93.6076 962.306 89.603 962.306 Q87.728 962.306 85.8531 962.723 Q84.0012 963.14 82.0568 964.019 L82.0568 946.658 Z" fill="#000000" fill-rule="nonzero" fill-opacity="1" /><path clip-path="url(#clip240)" d="M126.339 962.584 Q129.695 963.302 131.57 965.57 Q133.469 967.839 133.469 971.172 Q133.469 976.288 129.95 979.089 Q126.432 981.89 119.95 981.89 Q117.774 981.89 115.459 981.45 Q113.168 981.033 110.714 980.177 L110.714 975.663 Q112.658 976.797 114.973 977.376 Q117.288 977.954 119.811 977.954 Q124.209 977.954 126.501 976.218 Q128.816 974.482 128.816 971.172 Q128.816 968.116 126.663 966.404 Q124.533 964.667 120.714 964.667 L116.686 964.667 L116.686 960.825 L120.899 960.825 Q124.348 960.825 126.177 959.459 Q128.006 958.07 128.006 955.478 Q128.006 952.816 126.107 951.404 Q124.232 949.968 120.714 949.968 Q118.793 949.968 116.594 950.385 Q114.395 950.802 111.756 951.681 L111.756 947.515 Q114.418 946.774 116.733 946.404 Q119.07 946.033 121.131 946.033 Q126.455 946.033 129.557 948.464 Q132.658 950.871 132.658 954.992 Q132.658 957.862 131.015 959.853 Q129.371 961.82 126.339 962.584 Z" fill="#000000" fill-rule="nonzero" fill-opacity="1" /><path clip-path="url(#clip240)" d="M146.362 977.283 L162.681 977.283 L162.681 981.218 L140.737 981.218 L140.737 977.283 Q143.399 974.528 147.982 969.899 Q152.589 965.246 153.769 963.904 Q156.015 961.38 156.894 959.644 Q157.797 957.885 157.797 956.195 Q157.797 953.441 155.853 951.705 Q153.931 949.968 150.83 949.968 Q148.63 949.968 146.177 950.732 Q143.746 951.496 140.968 953.047 L140.968 948.325 Q143.793 947.191 146.246 946.612 Q148.7 946.033 150.737 946.033 Q156.107 946.033 159.302 948.718 Q162.496 951.404 162.496 955.894 Q162.496 958.024 161.686 959.945 Q160.899 961.843 158.792 964.436 Q158.214 965.107 155.112 968.325 Q152.01 971.519 146.362 977.283 Z" fill="#000000" fill-rule="nonzero" fill-opacity="1" /><path clip-path="url(#clip240)" d="M172.496 975.339 L177.38 975.339 L177.38 981.218 L172.496 981.218 L172.496 975.339 Z" fill="#000000" fill-rule="nonzero" fill-opacity="1" /><path clip-path="url(#clip240)" d="M200.413 950.732 L188.607 969.181 L200.413 969.181 L200.413 950.732 M199.186 946.658 L205.065 946.658 L205.065 969.181 L209.996 969.181 L209.996 973.07 L205.065 973.07 L205.065 981.218 L200.413 981.218 L200.413 973.07 L184.811 973.07 L184.811 968.556 L199.186 946.658 Z" fill="#000000" fill-rule="nonzero" fill-opacity="1" /><path clip-path="url(#clip240)" d="M221.755 977.283 L238.074 977.283 L238.074 981.218 L216.13 981.218 L216.13 977.283 Q218.792 974.528 223.375 969.899 Q227.982 965.246 229.162 963.904 Q231.408 961.38 232.287 959.644 Q233.19 957.885 233.19 956.195 Q233.19 953.441 231.246 951.705 Q229.325 949.968 226.223 949.968 Q224.024 949.968 221.57 950.732 Q219.139 951.496 216.362 953.047 L216.362 948.325 Q219.186 947.191 221.639 946.612 Q224.093 946.033 226.13 946.033 Q231.5 946.033 234.695 948.718 Q237.889 951.404 237.889 955.894 Q237.889 958.024 237.079 959.945 Q236.292 961.843 234.186 964.436 Q233.607 965.107 230.505 968.325 Q227.403 971.519 221.755 977.283 Z" fill="#000000" fill-rule="nonzero" fill-opacity="1" /><path clip-path="url(#clip240)" d="M247.936 946.658 L266.292 946.658 L266.292 950.593 L252.218 950.593 L252.218 959.066 Q253.236 958.718 254.255 958.556 Q255.273 958.371 256.292 958.371 Q262.079 958.371 265.459 961.542 Q268.838 964.714 268.838 970.13 Q268.838 975.709 265.366 978.811 Q261.894 981.89 255.574 981.89 Q253.398 981.89 251.13 981.519 Q248.885 981.149 246.477 980.408 L246.477 975.709 Q248.561 976.843 250.783 977.399 Q253.005 977.954 255.482 977.954 Q259.486 977.954 261.824 975.848 Q264.162 973.741 264.162 970.13 Q264.162 966.519 261.824 964.413 Q259.486 962.306 255.482 962.306 Q253.607 962.306 251.732 962.723 Q249.88 963.14 247.936 964.019 L247.936 946.658 Z" fill="#000000" fill-rule="nonzero" fill-opacity="1" /><path clip-path="url(#clip240)" d="M51.6634 639.017 L59.3023 639.017 L59.3023 612.652 L50.9921 614.318 L50.9921 610.059 L59.256 608.392 L63.9319 608.392 L63.9319 639.017 L71.5707 639.017 L71.5707 642.952 L51.6634 642.952 L51.6634 639.017 Z" fill="#000000" fill-rule="nonzero" fill-opacity="1" /><path clip-path="url(#clip240)" d="M81.0614 608.392 L99.4178 608.392 L99.4178 612.328 L85.3438 612.328 L85.3438 620.8 Q86.3623 620.452 87.3808 620.29 Q88.3993 620.105 89.4178 620.105 Q95.2049 620.105 98.5845 623.277 Q101.964 626.448 101.964 631.864 Q101.964 637.443 98.4919 640.545 Q95.0197 643.624 88.7003 643.624 Q86.5243 643.624 84.2558 643.253 Q82.0105 642.883 79.6031 642.142 L79.6031 637.443 Q81.6864 638.577 83.9086 639.133 Q86.1308 639.688 88.6077 639.688 Q92.6123 639.688 94.9502 637.582 Q97.2882 635.476 97.2882 631.864 Q97.2882 628.253 94.9502 626.147 Q92.6123 624.04 88.6077 624.04 Q86.7327 624.04 84.8577 624.457 Q83.0058 624.874 81.0614 625.753 L81.0614 608.392 Z" fill="#000000" fill-rule="nonzero" fill-opacity="1" /><path clip-path="url(#clip240)" d="M125.344 624.318 Q128.7 625.036 130.575 627.304 Q132.473 629.573 132.473 632.906 Q132.473 638.022 128.955 640.823 Q125.436 643.624 118.955 643.624 Q116.779 643.624 114.464 643.184 Q112.172 642.767 109.719 641.911 L109.719 637.397 Q111.663 638.531 113.978 639.11 Q116.293 639.688 118.816 639.688 Q123.214 639.688 125.506 637.952 Q127.82 636.216 127.82 632.906 Q127.82 629.851 125.668 628.138 Q123.538 626.402 119.719 626.402 L115.691 626.402 L115.691 622.559 L119.904 622.559 Q123.353 622.559 125.182 621.193 Q127.01 619.804 127.01 617.212 Q127.01 614.55 125.112 613.138 Q123.237 611.703 119.719 611.703 Q117.797 611.703 115.598 612.119 Q113.399 612.536 110.76 613.415 L110.76 609.249 Q113.422 608.508 115.737 608.138 Q118.075 607.767 120.135 607.767 Q125.459 607.767 128.561 610.198 Q131.663 612.605 131.663 616.726 Q131.663 619.596 130.019 621.587 Q128.376 623.554 125.344 624.318 Z" fill="#000000" fill-rule="nonzero" fill-opacity="1" /><path clip-path="url(#clip240)" d="M145.367 639.017 L161.686 639.017 L161.686 642.952 L139.742 642.952 L139.742 639.017 Q142.404 636.263 146.987 631.633 Q151.593 626.98 152.774 625.638 Q155.019 623.114 155.899 621.378 Q156.802 619.619 156.802 617.929 Q156.802 615.175 154.857 613.439 Q152.936 611.703 149.834 611.703 Q147.635 611.703 145.181 612.466 Q142.751 613.23 139.973 614.781 L139.973 610.059 Q142.797 608.925 145.251 608.346 Q147.705 607.767 149.742 607.767 Q155.112 607.767 158.306 610.453 Q161.501 613.138 161.501 617.628 Q161.501 619.758 160.691 621.679 Q159.904 623.577 157.797 626.17 Q157.218 626.841 154.117 630.059 Q151.015 633.253 145.367 639.017 Z" fill="#000000" fill-rule="nonzero" fill-opacity="1" /><path clip-path="url(#clip240)" d="M171.501 637.073 L176.385 637.073 L176.385 642.952 L171.501 642.952 L171.501 637.073 Z" fill="#000000" fill-rule="nonzero" fill-opacity="1" /><path clip-path="url(#clip240)" d="M199.417 612.466 L187.612 630.915 L199.417 630.915 L199.417 612.466 M198.19 608.392 L204.07 608.392 L204.07 630.915 L209.001 630.915 L209.001 634.804 L204.07 634.804 L204.07 642.952 L199.417 642.952 L199.417 634.804 L183.815 634.804 L183.815 630.29 L198.19 608.392 Z" fill="#000000" fill-rule="nonzero" fill-opacity="1" /><path clip-path="url(#clip240)" d="M230.899 624.318 Q234.255 625.036 236.13 627.304 Q238.028 629.573 238.028 632.906 Q238.028 638.022 234.51 640.823 Q230.991 643.624 224.51 643.624 Q222.334 643.624 220.019 643.184 Q217.727 642.767 215.274 641.911 L215.274 637.397 Q217.218 638.531 219.533 639.11 Q221.848 639.688 224.371 639.688 Q228.769 639.688 231.061 637.952 Q233.375 636.216 233.375 632.906 Q233.375 629.851 231.223 628.138 Q229.093 626.402 225.274 626.402 L221.246 626.402 L221.246 622.559 L225.459 622.559 Q228.908 622.559 230.737 621.193 Q232.565 619.804 232.565 617.212 Q232.565 614.55 230.667 613.138 Q228.792 611.703 225.274 611.703 Q223.352 611.703 221.153 612.119 Q218.954 612.536 216.315 613.415 L216.315 609.249 Q218.977 608.508 221.292 608.138 Q223.63 607.767 225.69 607.767 Q231.014 607.767 234.116 610.198 Q237.218 612.605 237.218 616.726 Q237.218 619.596 235.574 621.587 Q233.931 623.554 230.899 624.318 Z" fill="#000000" fill-rule="nonzero" fill-opacity="1" /><path clip-path="url(#clip240)" d="M256.894 611.471 Q253.283 611.471 251.454 615.036 Q249.648 618.577 249.648 625.707 Q249.648 632.814 251.454 636.378 Q253.283 639.92 256.894 639.92 Q260.528 639.92 262.334 636.378 Q264.162 632.814 264.162 625.707 Q264.162 618.577 262.334 615.036 Q260.528 611.471 256.894 611.471 M256.894 607.767 Q262.704 607.767 265.759 612.374 Q268.838 616.957 268.838 625.707 Q268.838 634.434 265.759 639.04 Q262.704 643.624 256.894 643.624 Q251.084 643.624 248.005 639.04 Q244.949 634.434 244.949 625.707 Q244.949 616.957 248.005 612.374 Q251.084 607.767 256.894 607.767 Z" fill="#000000" fill-rule="nonzero" fill-opacity="1" /><path clip-path="url(#clip240)" d="M52.6588 300.751 L60.2976 300.751 L60.2976 274.386 L51.9875 276.052 L51.9875 271.793 L60.2513 270.126 L64.9272 270.126 L64.9272 300.751 L72.5661 300.751 L72.5661 304.686 L52.6588 304.686 L52.6588 300.751 Z" fill="#000000" fill-rule="nonzero" fill-opacity="1" /><path clip-path="url(#clip240)" d="M82.0568 270.126 L100.413 270.126 L100.413 274.062 L86.3392 274.062 L86.3392 282.534 Q87.3577 282.187 88.3762 282.025 Q89.3947 281.839 90.4132 281.839 Q96.2002 281.839 99.5798 285.011 Q102.959 288.182 102.959 293.599 Q102.959 299.177 99.4872 302.279 Q96.015 305.358 89.6956 305.358 Q87.5197 305.358 85.2512 304.987 Q83.0058 304.617 80.5984 303.876 L80.5984 299.177 Q82.6818 300.311 84.904 300.867 Q87.1262 301.423 89.603 301.423 Q93.6076 301.423 95.9456 299.316 Q98.2835 297.21 98.2835 293.599 Q98.2835 289.987 95.9456 287.881 Q93.6076 285.775 89.603 285.775 Q87.728 285.775 85.8531 286.191 Q84.0012 286.608 82.0568 287.487 L82.0568 270.126 Z" fill="#000000" fill-rule="nonzero" fill-opacity="1" /><path clip-path="url(#clip240)" d="M126.339 286.052 Q129.695 286.77 131.57 289.038 Q133.469 291.307 133.469 294.64 Q133.469 299.756 129.95 302.557 Q126.432 305.358 119.95 305.358 Q117.774 305.358 115.459 304.918 Q113.168 304.501 110.714 303.645 L110.714 299.131 Q112.658 300.265 114.973 300.844 Q117.288 301.423 119.811 301.423 Q124.209 301.423 126.501 299.686 Q128.816 297.95 128.816 294.64 Q128.816 291.585 126.663 289.872 Q124.533 288.136 120.714 288.136 L116.686 288.136 L116.686 284.293 L120.899 284.293 Q124.348 284.293 126.177 282.927 Q128.006 281.538 128.006 278.946 Q128.006 276.284 126.107 274.872 Q124.232 273.437 120.714 273.437 Q118.793 273.437 116.594 273.853 Q114.395 274.27 111.756 275.15 L111.756 270.983 Q114.418 270.242 116.733 269.872 Q119.07 269.501 121.131 269.501 Q126.455 269.501 129.557 271.932 Q132.658 274.339 132.658 278.46 Q132.658 281.33 131.015 283.321 Q129.371 285.288 126.339 286.052 Z" fill="#000000" fill-rule="nonzero" fill-opacity="1" /><path clip-path="url(#clip240)" d="M146.362 300.751 L162.681 300.751 L162.681 304.686 L140.737 304.686 L140.737 300.751 Q143.399 297.997 147.982 293.367 Q152.589 288.714 153.769 287.372 Q156.015 284.849 156.894 283.112 Q157.797 281.353 157.797 279.663 Q157.797 276.909 155.853 275.173 Q153.931 273.437 150.83 273.437 Q148.63 273.437 146.177 274.2 Q143.746 274.964 140.968 276.515 L140.968 271.793 Q143.793 270.659 146.246 270.08 Q148.7 269.501 150.737 269.501 Q156.107 269.501 159.302 272.187 Q162.496 274.872 162.496 279.363 Q162.496 281.492 161.686 283.413 Q160.899 285.312 158.792 287.904 Q158.214 288.575 155.112 291.793 Q152.01 294.987 146.362 300.751 Z" fill="#000000" fill-rule="nonzero" fill-opacity="1" /><path clip-path="url(#clip240)" d="M172.496 298.807 L177.38 298.807 L177.38 304.686 L172.496 304.686 L172.496 298.807 Z" fill="#000000" fill-rule="nonzero" fill-opacity="1" /><path clip-path="url(#clip240)" d="M200.413 274.2 L188.607 292.649 L200.413 292.649 L200.413 274.2 M199.186 270.126 L205.065 270.126 L205.065 292.649 L209.996 292.649 L209.996 296.538 L205.065 296.538 L205.065 304.686 L200.413 304.686 L200.413 296.538 L184.811 296.538 L184.811 292.024 L199.186 270.126 Z" fill="#000000" fill-rule="nonzero" fill-opacity="1" /><path clip-path="url(#clip240)" d="M231.894 286.052 Q235.25 286.77 237.125 289.038 Q239.024 291.307 239.024 294.64 Q239.024 299.756 235.505 302.557 Q231.987 305.358 225.505 305.358 Q223.329 305.358 221.014 304.918 Q218.723 304.501 216.269 303.645 L216.269 299.131 Q218.213 300.265 220.528 300.844 Q222.843 301.423 225.366 301.423 Q229.764 301.423 232.056 299.686 Q234.371 297.95 234.371 294.64 Q234.371 291.585 232.218 289.872 Q230.088 288.136 226.269 288.136 L222.241 288.136 L222.241 284.293 L226.454 284.293 Q229.903 284.293 231.732 282.927 Q233.561 281.538 233.561 278.946 Q233.561 276.284 231.662 274.872 Q229.787 273.437 226.269 273.437 Q224.348 273.437 222.149 273.853 Q219.95 274.27 217.311 275.15 L217.311 270.983 Q219.973 270.242 222.288 269.872 Q224.625 269.501 226.686 269.501 Q232.01 269.501 235.112 271.932 Q238.213 274.339 238.213 278.46 Q238.213 281.33 236.57 283.321 Q234.926 285.288 231.894 286.052 Z" fill="#000000" fill-rule="nonzero" fill-opacity="1" /><path clip-path="url(#clip240)" d="M247.936 270.126 L266.292 270.126 L266.292 274.062 L252.218 274.062 L252.218 282.534 Q253.236 282.187 254.255 282.025 Q255.273 281.839 256.292 281.839 Q262.079 281.839 265.459 285.011 Q268.838 288.182 268.838 293.599 Q268.838 299.177 265.366 302.279 Q261.894 305.358 255.574 305.358 Q253.398 305.358 251.13 304.987 Q248.885 304.617 246.477 303.876 L246.477 299.177 Q248.561 300.311 250.783 300.867 Q253.005 301.423 255.482 301.423 Q259.486 301.423 261.824 299.316 Q264.162 297.21 264.162 293.599 Q264.162 289.987 261.824 287.881 Q259.486 285.775 255.482 285.775 Q253.607 285.775 251.732 286.191 Q249.88 286.608 247.936 287.487 L247.936 270.126 Z" fill="#000000" fill-rule="nonzero" fill-opacity="1" /><polyline clip-path="url(#clip242)" style="stroke:#009af9; stroke-linecap:round; stroke-linejoin:round; stroke-width:4; stroke-opacity:1; fill:none" points="362.798,87.9763 2294.8,1445.72 "/>
<path clip-path="url(#clip240)" d="M2027.27 198.898 L2284.49 198.898 L2284.49 95.2176 L2027.27 95.2176  Z" fill="#ffffff" fill-rule="evenodd" fill-opacity="1"/>
<polyline clip-path="url(#clip240)" style="stroke:#000000; stroke-linecap:round; stroke-linejoin:round; stroke-width:4; stroke-opacity:1; fill:none" points="2027.27,198.898 2284.49,198.898 2284.49,95.2176 2027.27,95.2176 2027.27,198.898 "/>
<polyline clip-path="url(#clip240)" style="stroke:#009af9; stroke-linecap:round; stroke-linejoin:round; stroke-width:4; stroke-opacity:1; fill:none" points="2050.02,147.058 2186.55,147.058 "/>
<path clip-path="url(#clip240)" d="M2223.15 166.745 Q2221.34 171.375 2219.63 172.787 Q2217.92 174.199 2215.05 174.199 L2211.65 174.199 L2211.65 170.634 L2214.15 170.634 Q2215.9 170.634 2216.88 169.8 Q2217.85 168.967 2219.03 165.865 L2219.79 163.921 L2209.31 138.412 L2213.82 138.412 L2221.92 158.689 L2230.02 138.412 L2234.54 138.412 L2223.15 166.745 Z" fill="#000000" fill-rule="nonzero" fill-opacity="1" /><path clip-path="url(#clip240)" d="M2241.83 160.402 L2249.47 160.402 L2249.47 134.037 L2241.16 135.703 L2241.16 131.444 L2249.42 129.778 L2254.1 129.778 L2254.1 160.402 L2261.74 160.402 L2261.74 164.338 L2241.83 164.338 L2241.83 160.402 Z" fill="#000000" fill-rule="nonzero" fill-opacity="1" /></svg>
