<?xml version="1.0" encoding="utf-8"?>
<svg xmlns="http://www.w3.org/2000/svg" xmlns:xlink="http://www.w3.org/1999/xlink" width="600" height="400" viewBox="0 0 2400 1600">
<defs>
  <clipPath id="clip690">
    <rect x="0" y="0" width="2400" height="1600"/>
  </clipPath>
</defs>
<path clip-path="url(#clip690)" d="M0 1600 L2400 1600 L2400 0 L0 0  Z" fill="#ffffff" fill-rule="evenodd" fill-opacity="1"/>
<defs>
  <clipPath id="clip691">
    <rect x="480" y="0" width="1681" height="1600"/>
  </clipPath>
</defs>
<path clip-path="url(#clip690)" d="M209.029 1486.45 L2352.76 1486.45 L2352.76 47.2441 L209.029 47.2441  Z" fill="#ffffff" fill-rule="evenodd" fill-opacity="1"/>
<defs>
  <clipPath id="clip692">
    <rect x="209" y="47" width="2145" height="1440"/>
  </clipPath>
</defs>
<polyline clip-path="url(#clip692)" style="stroke:#000000; stroke-linecap:round; stroke-linejoin:round; stroke-width:2; stroke-opacity:0.1; fill:none" points="269.7,1486.45 269.7,47.2441 "/>
<polyline clip-path="url(#clip692)" style="stroke:#000000; stroke-linecap:round; stroke-linejoin:round; stroke-width:2; stroke-opacity:0.1; fill:none" points="775.549,1486.45 775.549,47.2441 "/>
<polyline clip-path="url(#clip692)" style="stroke:#000000; stroke-linecap:round; stroke-linejoin:round; stroke-width:2; stroke-opacity:0.1; fill:none" points="1281.4,1486.45 1281.4,47.2441 "/>
<polyline clip-path="url(#clip692)" style="stroke:#000000; stroke-linecap:round; stroke-linejoin:round; stroke-width:2; stroke-opacity:0.1; fill:none" points="1787.25,1486.45 1787.25,47.2441 "/>
<polyline clip-path="url(#clip692)" style="stroke:#000000; stroke-linecap:round; stroke-linejoin:round; stroke-width:2; stroke-opacity:0.1; fill:none" points="2293.1,1486.45 2293.1,47.2441 "/>
<polyline clip-path="url(#clip690)" style="stroke:#000000; stroke-linecap:round; stroke-linejoin:round; stroke-width:4; stroke-opacity:1; fill:none" points="209.029,1486.45 2352.76,1486.45 "/>
<polyline clip-path="url(#clip690)" style="stroke:#000000; stroke-linecap:round; stroke-linejoin:round; stroke-width:4; stroke-opacity:1; fill:none" points="269.7,1486.45 269.7,1467.55 "/>
<polyline clip-path="url(#clip690)" style="stroke:#000000; stroke-linecap:round; stroke-linejoin:round; stroke-width:4; stroke-opacity:1; fill:none" points="775.549,1486.45 775.549,1467.55 "/>
<polyline clip-path="url(#clip690)" style="stroke:#000000; stroke-linecap:round; stroke-linejoin:round; stroke-width:4; stroke-opacity:1; fill:none" points="1281.4,1486.45 1281.4,1467.55 "/>
<polyline clip-path="url(#clip690)" style="stroke:#000000; stroke-linecap:round; stroke-linejoin:round; stroke-width:4; stroke-opacity:1; fill:none" points="1787.25,1486.45 1787.25,1467.55 "/>
<polyline clip-path="url(#clip690)" style="stroke:#000000; stroke-linecap:round; stroke-linejoin:round; stroke-width:4; stroke-opacity:1; fill:none" points="2293.1,1486.45 2293.1,1467.55 "/>
<path clip-path="url(#clip690)" d="M269.7 1517.37 Q266.089 1517.37 264.26 1520.93 Q262.455 1524.47 262.455 1531.6 Q262.455 1538.71 264.26 1542.27 Q266.089 1545.82 269.7 1545.82 Q273.334 1545.82 275.14 1542.27 Q276.969 1538.71 276.969 1531.6 Q276.969 1524.47 275.14 1520.93 Q273.334 1517.37 269.7 1517.37 M269.7 1513.66 Q275.51 1513.66 278.566 1518.27 Q281.644 1522.85 281.644 1531.6 Q281.644 1540.33 278.566 1544.94 Q275.51 1549.52 269.7 1549.52 Q263.89 1549.52 260.811 1544.94 Q257.756 1540.33 257.756 1531.6 Q257.756 1522.85 260.811 1518.27 Q263.89 1513.66 269.7 1513.66 Z" fill="#000000" fill-rule="nonzero" fill-opacity="1" /><path clip-path="url(#clip690)" d="M735.167 1514.29 L753.524 1514.29 L753.524 1518.22 L739.45 1518.22 L739.45 1526.7 Q740.468 1526.35 741.487 1526.19 Q742.505 1526 743.524 1526 Q749.311 1526 752.69 1529.17 Q756.07 1532.34 756.07 1537.76 Q756.07 1543.34 752.598 1546.44 Q749.126 1549.52 742.806 1549.52 Q740.63 1549.52 738.362 1549.15 Q736.116 1548.78 733.709 1548.04 L733.709 1543.34 Q735.792 1544.47 738.015 1545.03 Q740.237 1545.58 742.714 1545.58 Q746.718 1545.58 749.056 1543.48 Q751.394 1541.37 751.394 1537.76 Q751.394 1534.15 749.056 1532.04 Q746.718 1529.94 742.714 1529.94 Q740.839 1529.94 738.964 1530.35 Q737.112 1530.77 735.167 1531.65 L735.167 1514.29 Z" fill="#000000" fill-rule="nonzero" fill-opacity="1" /><path clip-path="url(#clip690)" d="M775.283 1517.37 Q771.672 1517.37 769.843 1520.93 Q768.038 1524.47 768.038 1531.6 Q768.038 1538.71 769.843 1542.27 Q771.672 1545.82 775.283 1545.82 Q778.917 1545.82 780.723 1542.27 Q782.551 1538.71 782.551 1531.6 Q782.551 1524.47 780.723 1520.93 Q778.917 1517.37 775.283 1517.37 M775.283 1513.66 Q781.093 1513.66 784.149 1518.27 Q787.227 1522.85 787.227 1531.6 Q787.227 1540.33 784.149 1544.94 Q781.093 1549.52 775.283 1549.52 Q769.473 1549.52 766.394 1544.94 Q763.338 1540.33 763.338 1531.6 Q763.338 1522.85 766.394 1518.27 Q769.473 1513.66 775.283 1513.66 Z" fill="#000000" fill-rule="nonzero" fill-opacity="1" /><path clip-path="url(#clip690)" d="M805.445 1517.37 Q801.834 1517.37 800.005 1520.93 Q798.199 1524.47 798.199 1531.6 Q798.199 1538.71 800.005 1542.27 Q801.834 1545.82 805.445 1545.82 Q809.079 1545.82 810.885 1542.27 Q812.713 1538.71 812.713 1531.6 Q812.713 1524.47 810.885 1520.93 Q809.079 1517.37 805.445 1517.37 M805.445 1513.66 Q811.255 1513.66 814.31 1518.27 Q817.389 1522.85 817.389 1531.6 Q817.389 1540.33 814.31 1544.94 Q811.255 1549.52 805.445 1549.52 Q799.635 1549.52 796.556 1544.94 Q793.5 1540.33 793.5 1531.6 Q793.5 1522.85 796.556 1518.27 Q799.635 1513.66 805.445 1513.66 Z" fill="#000000" fill-rule="nonzero" fill-opacity="1" /><path clip-path="url(#clip690)" d="M1225.92 1544.91 L1233.56 1544.91 L1233.56 1518.55 L1225.25 1520.21 L1225.25 1515.95 L1233.52 1514.29 L1238.19 1514.29 L1238.19 1544.91 L1245.83 1544.91 L1245.83 1548.85 L1225.92 1548.85 L1225.92 1544.91 Z" fill="#000000" fill-rule="nonzero" fill-opacity="1" /><path clip-path="url(#clip690)" d="M1265.28 1517.37 Q1261.66 1517.37 1259.84 1520.93 Q1258.03 1524.47 1258.03 1531.6 Q1258.03 1538.71 1259.84 1542.27 Q1261.66 1545.82 1265.28 1545.82 Q1268.91 1545.82 1270.72 1542.27 Q1272.54 1538.71 1272.54 1531.6 Q1272.54 1524.47 1270.72 1520.93 Q1268.91 1517.37 1265.28 1517.37 M1265.28 1513.66 Q1271.09 1513.66 1274.14 1518.27 Q1277.22 1522.85 1277.22 1531.6 Q1277.22 1540.33 1274.14 1544.94 Q1271.09 1549.52 1265.28 1549.52 Q1259.47 1549.52 1256.39 1544.94 Q1253.33 1540.33 1253.33 1531.6 Q1253.33 1522.85 1256.39 1518.27 Q1259.47 1513.66 1265.28 1513.66 Z" fill="#000000" fill-rule="nonzero" fill-opacity="1" /><path clip-path="url(#clip690)" d="M1295.44 1517.37 Q1291.83 1517.37 1290 1520.93 Q1288.19 1524.47 1288.19 1531.6 Q1288.19 1538.71 1290 1542.27 Q1291.83 1545.82 1295.44 1545.82 Q1299.07 1545.82 1300.88 1542.27 Q1302.71 1538.71 1302.71 1531.6 Q1302.71 1524.47 1300.88 1520.93 Q1299.07 1517.37 1295.44 1517.37 M1295.44 1513.66 Q1301.25 1513.66 1304.3 1518.27 Q1307.38 1522.85 1307.38 1531.6 Q1307.38 1540.33 1304.3 1544.94 Q1301.25 1549.52 1295.44 1549.52 Q1289.63 1549.52 1286.55 1544.94 Q1283.49 1540.33 1283.49 1531.6 Q1283.49 1522.85 1286.55 1518.27 Q1289.63 1513.66 1295.44 1513.66 Z" fill="#000000" fill-rule="nonzero" fill-opacity="1" /><path clip-path="url(#clip690)" d="M1325.6 1517.37 Q1321.99 1517.37 1320.16 1520.93 Q1318.35 1524.47 1318.35 1531.6 Q1318.35 1538.71 1320.16 1542.27 Q1321.99 1545.82 1325.6 1545.82 Q1329.23 1545.82 1331.04 1542.27 Q1332.87 1538.71 1332.87 1531.6 Q1332.87 1524.47 1331.04 1520.93 Q1329.23 1517.37 1325.6 1517.37 M1325.6 1513.66 Q1331.41 1513.66 1334.46 1518.27 Q1337.54 1522.85 1337.54 1531.6 Q1337.54 1540.33 1334.46 1544.94 Q1331.41 1549.52 1325.6 1549.52 Q1319.79 1549.52 1316.71 1544.94 Q1313.65 1540.33 1313.65 1531.6 Q1313.65 1522.85 1316.71 1518.27 Q1319.79 1513.66 1325.6 1513.66 Z" fill="#000000" fill-rule="nonzero" fill-opacity="1" /><path clip-path="url(#clip690)" d="M1731.77 1544.91 L1739.41 1544.91 L1739.41 1518.55 L1731.1 1520.21 L1731.1 1515.95 L1739.37 1514.29 L1744.04 1514.29 L1744.04 1544.91 L1751.68 1544.91 L1751.68 1548.85 L1731.77 1548.85 L1731.77 1544.91 Z" fill="#000000" fill-rule="nonzero" fill-opacity="1" /><path clip-path="url(#clip690)" d="M1761.17 1514.29 L1779.53 1514.29 L1779.53 1518.22 L1765.45 1518.22 L1765.45 1526.7 Q1766.47 1526.35 1767.49 1526.19 Q1768.51 1526 1769.53 1526 Q1775.31 1526 1778.69 1529.17 Q1782.07 1532.34 1782.07 1537.76 Q1782.07 1543.34 1778.6 1546.44 Q1775.13 1549.52 1768.81 1549.52 Q1766.63 1549.52 1764.37 1549.15 Q1762.12 1548.78 1759.71 1548.04 L1759.71 1543.34 Q1761.8 1544.47 1764.02 1545.03 Q1766.24 1545.58 1768.72 1545.58 Q1772.72 1545.58 1775.06 1543.48 Q1777.4 1541.37 1777.4 1537.76 Q1777.4 1534.15 1775.06 1532.04 Q1772.72 1529.94 1768.72 1529.94 Q1766.84 1529.94 1764.97 1530.35 Q1763.12 1530.77 1761.17 1531.65 L1761.17 1514.29 Z" fill="#000000" fill-rule="nonzero" fill-opacity="1" /><path clip-path="url(#clip690)" d="M1801.29 1517.37 Q1797.68 1517.37 1795.85 1520.93 Q1794.04 1524.47 1794.04 1531.6 Q1794.04 1538.71 1795.85 1542.27 Q1797.68 1545.82 1801.29 1545.82 Q1804.92 1545.82 1806.73 1542.27 Q1808.55 1538.71 1808.55 1531.6 Q1808.55 1524.47 1806.73 1520.93 Q1804.92 1517.37 1801.29 1517.37 M1801.29 1513.66 Q1807.1 1513.66 1810.15 1518.27 Q1813.23 1522.85 1813.23 1531.6 Q1813.23 1540.33 1810.15 1544.94 Q1807.1 1549.52 1801.29 1549.52 Q1795.48 1549.52 1792.4 1544.94 Q1789.34 1540.33 1789.34 1531.6 Q1789.34 1522.85 1792.4 1518.27 Q1795.48 1513.66 1801.29 1513.66 Z" fill="#000000" fill-rule="nonzero" fill-opacity="1" /><path clip-path="url(#clip690)" d="M1831.45 1517.37 Q1827.84 1517.37 1826.01 1520.93 Q1824.2 1524.47 1824.2 1531.6 Q1824.2 1538.71 1826.01 1542.27 Q1827.84 1545.82 1831.45 1545.82 Q1835.08 1545.82 1836.89 1542.27 Q1838.72 1538.71 1838.72 1531.6 Q1838.72 1524.47 1836.89 1520.93 Q1835.08 1517.37 1831.45 1517.37 M1831.45 1513.66 Q1837.26 1513.66 1840.31 1518.27 Q1843.39 1522.85 1843.39 1531.6 Q1843.39 1540.33 1840.31 1544.94 Q1837.26 1549.52 1831.45 1549.52 Q1825.64 1549.52 1822.56 1544.94 Q1819.5 1540.33 1819.5 1531.6 Q1819.5 1522.85 1822.56 1518.27 Q1825.64 1513.66 1831.45 1513.66 Z" fill="#000000" fill-rule="nonzero" fill-opacity="1" /><path clip-path="url(#clip690)" d="M2241.71 1544.91 L2258.03 1544.91 L2258.03 1548.85 L2236.08 1548.85 L2236.08 1544.91 Q2238.74 1542.16 2243.33 1537.53 Q2247.93 1532.88 2249.11 1531.53 Q2251.36 1529.01 2252.24 1527.27 Q2253.14 1525.51 2253.14 1523.82 Q2253.14 1521.07 2251.2 1519.33 Q2249.28 1517.6 2246.18 1517.6 Q2243.98 1517.6 2241.52 1518.36 Q2239.09 1519.13 2236.31 1520.68 L2236.31 1515.95 Q2239.14 1514.82 2241.59 1514.24 Q2244.05 1513.66 2246.08 1513.66 Q2251.45 1513.66 2254.65 1516.35 Q2257.84 1519.03 2257.84 1523.52 Q2257.84 1525.65 2257.03 1527.57 Q2256.24 1529.47 2254.14 1532.07 Q2253.56 1532.74 2250.46 1535.95 Q2247.36 1539.15 2241.71 1544.91 Z" fill="#000000" fill-rule="nonzero" fill-opacity="1" /><path clip-path="url(#clip690)" d="M2277.84 1517.37 Q2274.23 1517.37 2272.4 1520.93 Q2270.6 1524.47 2270.6 1531.6 Q2270.6 1538.71 2272.4 1542.27 Q2274.23 1545.82 2277.84 1545.82 Q2281.48 1545.82 2283.28 1542.27 Q2285.11 1538.71 2285.11 1531.6 Q2285.11 1524.47 2283.28 1520.93 Q2281.48 1517.37 2277.84 1517.37 M2277.84 1513.66 Q2283.65 1513.66 2286.71 1518.27 Q2289.79 1522.85 2289.79 1531.6 Q2289.79 1540.33 2286.71 1544.94 Q2283.65 1549.52 2277.84 1549.52 Q2272.03 1549.52 2268.95 1544.94 Q2265.9 1540.33 2265.9 1531.6 Q2265.9 1522.85 2268.95 1518.27 Q2272.03 1513.66 2277.84 1513.66 Z" fill="#000000" fill-rule="nonzero" fill-opacity="1" /><path clip-path="url(#clip690)" d="M2308 1517.37 Q2304.39 1517.37 2302.56 1520.93 Q2300.76 1524.47 2300.76 1531.6 Q2300.76 1538.71 2302.56 1542.27 Q2304.39 1545.82 2308 1545.82 Q2311.64 1545.82 2313.44 1542.27 Q2315.27 1538.71 2315.27 1531.6 Q2315.27 1524.47 2313.44 1520.93 Q2311.64 1517.37 2308 1517.37 M2308 1513.66 Q2313.81 1513.66 2316.87 1518.27 Q2319.95 1522.85 2319.95 1531.6 Q2319.95 1540.33 2316.87 1544.94 Q2313.81 1549.52 2308 1549.52 Q2302.19 1549.52 2299.11 1544.94 Q2296.06 1540.33 2296.06 1531.6 Q2296.06 1522.85 2299.11 1518.27 Q2302.19 1513.66 2308 1513.66 Z" fill="#000000" fill-rule="nonzero" fill-opacity="1" /><path clip-path="url(#clip690)" d="M2338.17 1517.37 Q2334.55 1517.37 2332.73 1520.93 Q2330.92 1524.47 2330.92 1531.6 Q2330.92 1538.71 2332.73 1542.27 Q2334.55 1545.82 2338.17 1545.82 Q2341.8 1545.82 2343.61 1542.27 Q2345.43 1538.71 2345.43 1531.6 Q2345.43 1524.47 2343.61 1520.93 Q2341.8 1517.37 2338.17 1517.37 M2338.17 1513.66 Q2343.98 1513.66 2347.03 1518.27 Q2350.11 1522.85 2350.11 1531.6 Q2350.11 1540.33 2347.03 1544.94 Q2343.98 1549.52 2338.17 1549.52 Q2332.36 1549.52 2329.28 1544.94 Q2326.22 1540.33 2326.22 1531.6 Q2326.22 1522.85 2329.28 1518.27 Q2332.36 1513.66 2338.17 1513.66 Z" fill="#000000" fill-rule="nonzero" fill-opacity="1" /><polyline clip-path="url(#clip692)" style="stroke:#000000; stroke-linecap:round; stroke-linejoin:round; stroke-width:2; stroke-opacity:0.1; fill:none" points="209.029,1427.29 2352.76,1427.29 "/>
<polyline clip-path="url(#clip692)" style="stroke:#000000; stroke-linecap:round; stroke-linejoin:round; stroke-width:2; stroke-opacity:0.1; fill:none" points="209.029,1118.88 2352.76,1118.88 "/>
<polyline clip-path="url(#clip692)" style="stroke:#000000; stroke-linecap:round; stroke-linejoin:round; stroke-width:2; stroke-opacity:0.1; fill:none" points="209.029,810.462 2352.76,810.462 "/>
<polyline clip-path="url(#clip692)" style="stroke:#000000; stroke-linecap:round; stroke-linejoin:round; stroke-width:2; stroke-opacity:0.1; fill:none" points="209.029,502.049 2352.76,502.049 "/>
<polyline clip-path="url(#clip692)" style="stroke:#000000; stroke-linecap:round; stroke-linejoin:round; stroke-width:2; stroke-opacity:0.1; fill:none" points="209.029,193.636 2352.76,193.636 "/>
<polyline clip-path="url(#clip690)" style="stroke:#000000; stroke-linecap:round; stroke-linejoin:round; stroke-width:4; stroke-opacity:1; fill:none" points="209.029,1486.45 209.029,47.2441 "/>
<polyline clip-path="url(#clip690)" style="stroke:#000000; stroke-linecap:round; stroke-linejoin:round; stroke-width:4; stroke-opacity:1; fill:none" points="209.029,1427.29 227.926,1427.29 "/>
<polyline clip-path="url(#clip690)" style="stroke:#000000; stroke-linecap:round; stroke-linejoin:round; stroke-width:4; stroke-opacity:1; fill:none" points="209.029,1118.88 227.926,1118.88 "/>
<polyline clip-path="url(#clip690)" style="stroke:#000000; stroke-linecap:round; stroke-linejoin:round; stroke-width:4; stroke-opacity:1; fill:none" points="209.029,810.462 227.926,810.462 "/>
<polyline clip-path="url(#clip690)" style="stroke:#000000; stroke-linecap:round; stroke-linejoin:round; stroke-width:4; stroke-opacity:1; fill:none" points="209.029,502.049 227.926,502.049 "/>
<polyline clip-path="url(#clip690)" style="stroke:#000000; stroke-linecap:round; stroke-linejoin:round; stroke-width:4; stroke-opacity:1; fill:none" points="209.029,193.636 227.926,193.636 "/>
<path clip-path="url(#clip690)" d="M50.9921 1427.74 L80.6679 1427.74 L80.6679 1431.68 L50.9921 1431.68 L50.9921 1427.74 Z" fill="#000000" fill-rule="nonzero" fill-opacity="1" /><path clip-path="url(#clip690)" d="M94.7882 1440.63 L111.108 1440.63 L111.108 1444.57 L89.1632 1444.57 L89.1632 1440.63 Q91.8252 1437.88 96.4085 1433.25 Q101.015 1428.6 102.196 1427.25 Q104.441 1424.73 105.321 1422.99 Q106.223 1421.24 106.223 1419.55 Q106.223 1416.79 104.279 1415.06 Q102.358 1413.32 99.2558 1413.32 Q97.0567 1413.32 94.603 1414.08 Q92.1725 1414.85 89.3947 1416.4 L89.3947 1411.68 Q92.2188 1410.54 94.6724 1409.96 Q97.1261 1409.38 99.1632 1409.38 Q104.534 1409.38 107.728 1412.07 Q110.922 1414.75 110.922 1419.24 Q110.922 1421.37 110.112 1423.3 Q109.325 1425.19 107.219 1427.79 Q106.64 1428.46 103.538 1431.68 Q100.436 1434.87 94.7882 1440.63 Z" fill="#000000" fill-rule="nonzero" fill-opacity="1" /><path clip-path="url(#clip690)" d="M120.969 1410.01 L139.325 1410.01 L139.325 1413.94 L125.251 1413.94 L125.251 1422.42 Q126.27 1422.07 127.288 1421.91 Q128.307 1421.72 129.325 1421.72 Q135.112 1421.72 138.492 1424.89 Q141.871 1428.06 141.871 1433.48 Q141.871 1439.06 138.399 1442.16 Q134.927 1445.24 128.607 1445.24 Q126.432 1445.24 124.163 1444.87 Q121.918 1444.5 119.51 1443.76 L119.51 1439.06 Q121.594 1440.19 123.816 1440.75 Q126.038 1441.3 128.515 1441.3 Q132.519 1441.3 134.857 1439.2 Q137.195 1437.09 137.195 1433.48 Q137.195 1429.87 134.857 1427.76 Q132.519 1425.66 128.515 1425.66 Q126.64 1425.66 124.765 1426.07 Q122.913 1426.49 120.969 1427.37 L120.969 1410.01 Z" fill="#000000" fill-rule="nonzero" fill-opacity="1" /><path clip-path="url(#clip690)" d="M161.084 1413.09 Q157.473 1413.09 155.644 1416.65 Q153.839 1420.19 153.839 1427.32 Q153.839 1434.43 155.644 1437.99 Q157.473 1441.54 161.084 1441.54 Q164.718 1441.54 166.524 1437.99 Q168.353 1434.43 168.353 1427.32 Q168.353 1420.19 166.524 1416.65 Q164.718 1413.09 161.084 1413.09 M161.084 1409.38 Q166.894 1409.38 169.95 1413.99 Q173.029 1418.57 173.029 1427.32 Q173.029 1436.05 169.95 1440.66 Q166.894 1445.24 161.084 1445.24 Q155.274 1445.24 152.195 1440.66 Q149.14 1436.05 149.14 1427.32 Q149.14 1418.57 152.195 1413.99 Q155.274 1409.38 161.084 1409.38 Z" fill="#000000" fill-rule="nonzero" fill-opacity="1" /><path clip-path="url(#clip690)" d="M50.9921 1119.33 L80.6679 1119.33 L80.6679 1123.26 L50.9921 1123.26 L50.9921 1119.33 Z" fill="#000000" fill-rule="nonzero" fill-opacity="1" /><path clip-path="url(#clip690)" d="M94.7882 1132.22 L111.108 1132.22 L111.108 1136.16 L89.1632 1136.16 L89.1632 1132.22 Q91.8252 1129.47 96.4085 1124.84 Q101.015 1120.18 102.196 1118.84 Q104.441 1116.32 105.321 1114.58 Q106.223 1112.82 106.223 1111.13 Q106.223 1108.38 104.279 1106.64 Q102.358 1104.91 99.2558 1104.91 Q97.0567 1104.91 94.603 1105.67 Q92.1725 1106.43 89.3947 1107.98 L89.3947 1103.26 Q92.2188 1102.13 94.6724 1101.55 Q97.1261 1100.97 99.1632 1100.97 Q104.534 1100.97 107.728 1103.66 Q110.922 1106.34 110.922 1110.83 Q110.922 1112.96 110.112 1114.88 Q109.325 1116.78 107.219 1119.37 Q106.64 1120.04 103.538 1123.26 Q100.436 1126.46 94.7882 1132.22 Z" fill="#000000" fill-rule="nonzero" fill-opacity="1" /><path clip-path="url(#clip690)" d="M130.922 1104.67 Q127.311 1104.67 125.482 1108.24 Q123.677 1111.78 123.677 1118.91 Q123.677 1126.02 125.482 1129.58 Q127.311 1133.12 130.922 1133.12 Q134.556 1133.12 136.362 1129.58 Q138.191 1126.02 138.191 1118.91 Q138.191 1111.78 136.362 1108.24 Q134.556 1104.67 130.922 1104.67 M130.922 1100.97 Q136.732 1100.97 139.788 1105.58 Q142.867 1110.16 142.867 1118.91 Q142.867 1127.64 139.788 1132.24 Q136.732 1136.83 130.922 1136.83 Q125.112 1136.83 122.033 1132.24 Q118.978 1127.64 118.978 1118.91 Q118.978 1110.16 122.033 1105.58 Q125.112 1100.97 130.922 1100.97 Z" fill="#000000" fill-rule="nonzero" fill-opacity="1" /><path clip-path="url(#clip690)" d="M161.084 1104.67 Q157.473 1104.67 155.644 1108.24 Q153.839 1111.78 153.839 1118.91 Q153.839 1126.02 155.644 1129.58 Q157.473 1133.12 161.084 1133.12 Q164.718 1133.12 166.524 1129.58 Q168.353 1126.02 168.353 1118.91 Q168.353 1111.78 166.524 1108.24 Q164.718 1104.67 161.084 1104.67 M161.084 1100.97 Q166.894 1100.97 169.95 1105.58 Q173.029 1110.16 173.029 1118.91 Q173.029 1127.64 169.95 1132.24 Q166.894 1136.83 161.084 1136.83 Q155.274 1136.83 152.195 1132.24 Q149.14 1127.64 149.14 1118.91 Q149.14 1110.16 152.195 1105.58 Q155.274 1100.97 161.084 1100.97 Z" fill="#000000" fill-rule="nonzero" fill-opacity="1" /><path clip-path="url(#clip690)" d="M50.9921 810.914 L80.6679 810.914 L80.6679 814.849 L50.9921 814.849 L50.9921 810.914 Z" fill="#000000" fill-rule="nonzero" fill-opacity="1" /><path clip-path="url(#clip690)" d="M91.5706 823.807 L99.2095 823.807 L99.2095 797.441 L90.8993 799.108 L90.8993 794.849 L99.1632 793.182 L103.839 793.182 L103.839 823.807 L111.478 823.807 L111.478 827.742 L91.5706 827.742 L91.5706 823.807 Z" fill="#000000" fill-rule="nonzero" fill-opacity="1" /><path clip-path="url(#clip690)" d="M120.969 793.182 L139.325 793.182 L139.325 797.117 L125.251 797.117 L125.251 805.59 Q126.27 805.242 127.288 805.08 Q128.307 804.895 129.325 804.895 Q135.112 804.895 138.492 808.066 Q141.871 811.238 141.871 816.654 Q141.871 822.233 138.399 825.335 Q134.927 828.413 128.607 828.413 Q126.432 828.413 124.163 828.043 Q121.918 827.673 119.51 826.932 L119.51 822.233 Q121.594 823.367 123.816 823.923 Q126.038 824.478 128.515 824.478 Q132.519 824.478 134.857 822.372 Q137.195 820.265 137.195 816.654 Q137.195 813.043 134.857 810.937 Q132.519 808.83 128.515 808.83 Q126.64 808.83 124.765 809.247 Q122.913 809.664 120.969 810.543 L120.969 793.182 Z" fill="#000000" fill-rule="nonzero" fill-opacity="1" /><path clip-path="url(#clip690)" d="M161.084 796.261 Q157.473 796.261 155.644 799.826 Q153.839 803.367 153.839 810.497 Q153.839 817.603 155.644 821.168 Q157.473 824.71 161.084 824.71 Q164.718 824.71 166.524 821.168 Q168.353 817.603 168.353 810.497 Q168.353 803.367 166.524 799.826 Q164.718 796.261 161.084 796.261 M161.084 792.557 Q166.894 792.557 169.95 797.164 Q173.029 801.747 173.029 810.497 Q173.029 819.224 169.95 823.83 Q166.894 828.413 161.084 828.413 Q155.274 828.413 152.195 823.83 Q149.14 819.224 149.14 810.497 Q149.14 801.747 152.195 797.164 Q155.274 792.557 161.084 792.557 Z" fill="#000000" fill-rule="nonzero" fill-opacity="1" /><path clip-path="url(#clip690)" d="M50.9921 502.5 L80.6679 502.5 L80.6679 506.435 L50.9921 506.435 L50.9921 502.5 Z" fill="#000000" fill-rule="nonzero" fill-opacity="1" /><path clip-path="url(#clip690)" d="M91.5706 515.394 L99.2095 515.394 L99.2095 489.028 L90.8993 490.695 L90.8993 486.436 L99.1632 484.769 L103.839 484.769 L103.839 515.394 L111.478 515.394 L111.478 519.329 L91.5706 519.329 L91.5706 515.394 Z" fill="#000000" fill-rule="nonzero" fill-opacity="1" /><path clip-path="url(#clip690)" d="M130.922 487.848 Q127.311 487.848 125.482 491.412 Q123.677 494.954 123.677 502.084 Q123.677 509.19 125.482 512.755 Q127.311 516.296 130.922 516.296 Q134.556 516.296 136.362 512.755 Q138.191 509.19 138.191 502.084 Q138.191 494.954 136.362 491.412 Q134.556 487.848 130.922 487.848 M130.922 484.144 Q136.732 484.144 139.788 488.75 Q142.867 493.334 142.867 502.084 Q142.867 510.81 139.788 515.417 Q136.732 520 130.922 520 Q125.112 520 122.033 515.417 Q118.978 510.81 118.978 502.084 Q118.978 493.334 122.033 488.75 Q125.112 484.144 130.922 484.144 Z" fill="#000000" fill-rule="nonzero" fill-opacity="1" /><path clip-path="url(#clip690)" d="M161.084 487.848 Q157.473 487.848 155.644 491.412 Q153.839 494.954 153.839 502.084 Q153.839 509.19 155.644 512.755 Q157.473 516.296 161.084 516.296 Q164.718 516.296 166.524 512.755 Q168.353 509.19 168.353 502.084 Q168.353 494.954 166.524 491.412 Q164.718 487.848 161.084 487.848 M161.084 484.144 Q166.894 484.144 169.95 488.75 Q173.029 493.334 173.029 502.084 Q173.029 510.81 169.95 515.417 Q166.894 520 161.084 520 Q155.274 520 152.195 515.417 Q149.14 510.81 149.14 502.084 Q149.14 493.334 152.195 488.75 Q155.274 484.144 161.084 484.144 Z" fill="#000000" fill-rule="nonzero" fill-opacity="1" /><path clip-path="url(#clip690)" d="M81.154 194.087 L110.83 194.087 L110.83 198.022 L81.154 198.022 L81.154 194.087 Z" fill="#000000" fill-rule="nonzero" fill-opacity="1" /><path clip-path="url(#clip690)" d="M120.969 176.356 L139.325 176.356 L139.325 180.291 L125.251 180.291 L125.251 188.763 Q126.27 188.416 127.288 188.254 Q128.307 188.068 129.325 188.068 Q135.112 188.068 138.492 191.24 Q141.871 194.411 141.871 199.828 Q141.871 205.406 138.399 208.508 Q134.927 211.587 128.607 211.587 Q126.432 211.587 124.163 211.216 Q121.918 210.846 119.51 210.105 L119.51 205.406 Q121.594 206.541 123.816 207.096 Q126.038 207.652 128.515 207.652 Q132.519 207.652 134.857 205.545 Q137.195 203.439 137.195 199.828 Q137.195 196.217 134.857 194.11 Q132.519 192.004 128.515 192.004 Q126.64 192.004 124.765 192.42 Q122.913 192.837 120.969 193.717 L120.969 176.356 Z" fill="#000000" fill-rule="nonzero" fill-opacity="1" /><path clip-path="url(#clip690)" d="M161.084 179.434 Q157.473 179.434 155.644 182.999 Q153.839 186.541 153.839 193.67 Q153.839 200.777 155.644 204.341 Q157.473 207.883 161.084 207.883 Q164.718 207.883 166.524 204.341 Q168.353 200.777 168.353 193.67 Q168.353 186.541 166.524 182.999 Q164.718 179.434 161.084 179.434 M161.084 175.731 Q166.894 175.731 169.95 180.337 Q173.029 184.92 173.029 193.67 Q173.029 202.397 169.95 207.004 Q166.894 211.587 161.084 211.587 Q155.274 211.587 152.195 207.004 Q149.14 202.397 149.14 193.67 Q149.14 184.92 152.195 180.337 Q155.274 175.731 161.084 175.731 Z" fill="#000000" fill-rule="nonzero" fill-opacity="1" /><polyline clip-path="url(#clip692)" style="stroke:#009af9; stroke-linecap:round; stroke-linejoin:round; stroke-width:4; stroke-opacity:1; fill:none" points="269.7,438.639 270.712,438.629 271.723,612.05 272.735,611.977 273.747,289.382 274.759,289.384 275.77,174.291 276.782,174.292 277.794,232.693 278.805,232.697 279.817,178.59 280.829,178.591 281.84,369.129 282.852,369.115 283.864,451.541 284.876,451.547 285.887,586.123 286.899,586.084 287.911,291.133 288.922,291.134 289.934,380.239 290.946,380.233 291.957,87.9807 292.969,87.9763 293.981,488.114 294.992,488.085 296.004,148.882 297.016,148.884 298.028,401.926 299.039,401.931 300.051,356.175 301.063,356.165 302.074,512.007 303.086,511.981 304.098,311.248 305.109,311.245 306.121,297.821 307.133,297.81 308.145,558.062 309.156,558.071 310.168,660.006 311.18,659.988 312.191,289.82 313.203,289.824 314.215,311.009 315.226,311.005 316.238,306.633 317.25,306.624 318.262,296.075 319.273,296.073 320.285,347.589 321.297,347.577 322.308,549.76 323.32,549.771 324.332,233.467 325.343,233.462 326.355,438.551 327.367,438.546 328.379,538.822 329.39,538.808 330.402,664.957 331.414,664.909 332.425,487.946 333.437,487.885 334.449,457.559 335.46,457.537 336.472,261.568 337.484,261.565 338.496,384.067 339.507,384.045 340.519,370.894 341.531,370.868 342.542,352.009 343.554,351.999 344.566,530.432 345.577,530.395 346.589,631.476 347.601,631.476 348.612,547.702 349.624,547.643 350.636,460.562 351.648,460.563 352.659,501.86 353.671,501.863 354.683,397.797 355.694,397.799 356.706,266.821 357.718,266.82 358.729,289.68 359.741,289.673 360.753,306.968 361.765,306.964 362.776,460.539 363.788,460.537 364.8,398.364 365.811,398.368 366.823,144.247 367.835,144.243 368.846,692.564 369.858,692.51 370.87,384.411 371.882,384.39 372.893,248.675 373.905,248.673 374.917,544.629 375.928,544.607 376.94,453.583 377.952,453.572 378.963,171.943 379.975,171.943 380.987,648.034 381.999,648.01 383.01,474.558 384.022,474.538 385.034,334.699 386.045,334.665 387.057,389.61 388.069,389.605 389.08,519.547 390.092,519.523 391.104,234.801 392.115,234.785 393.127,370.243 394.139,370.228 395.151,433.806 396.162,433.789 397.174,244.479 398.186,244.473 399.197,194.499 400.209,194.495 401.221,226.226 402.232,226.226 403.244,388.534 404.256,388.488 405.268,822.845 406.279,822.792 407.291,344.153 408.303,344.154 409.314,452.016 410.326,452.008 411.338,362.084 412.349,362.089 413.361,574.133 414.373,574.121 415.385,473.954 416.396,473.909 417.408,395.354 418.42,395.353 419.431,182.587 420.443,182.589 421.455,497.634 422.466,497.612 423.478,519.381 424.49,519.354 425.502,645.779 426.513,645.745 427.525,204.312 428.537,204.306 429.548,526.545 430.56,526.531 431.572,302.983 432.583,302.979 433.595,272.621 434.607,272.623 435.619,423.869 436.63,423.867 437.642,406.183 438.654,406.168 439.665,693.851 440.677,693.856 441.689,491.318 442.7,491.289 443.712,191.474 444.724,191.47 445.735,508.351 446.747,508.351 447.759,142.183 448.771,142.179 449.782,546.281 450.794,546.273 451.806,218.25 452.817,218.244 453.829,240.112 454.841,240.107 455.852,699.105 456.864,699.067 457.876,295.049 458.888,295.046 459.899,289.543 460.911,289.537 461.923,313.448 462.934,313.453 463.946,724.819 464.958,724.804 465.969,318.044 466.981,318.049 467.993,205.71 469.005,205.704 470.016,321.435 471.028,321.433 472.04,358.329 473.051,358.333 474.063,667.873 475.075,667.825 476.086,170.514 477.098,170.515 478.11,432.56 479.122,432.57 480.133,355.095 481.145,355.101 482.157,245.829 483.168,245.813 484.18,423.514 485.192,423.521 486.203,404.269 487.215,404.275 488.227,653.768 489.239,653.732 490.25,344.464 491.262,344.455 492.274,573.817 493.285,573.809 494.297,463.251 495.309,463.244 496.32,367.876 497.332,367.88 498.344,500.257 499.355,500.238 500.367,403.001 501.379,402.997 502.391,299.02 503.402,299.01 504.414,281.89 505.426,281.888 506.437,326.581 507.449,326.579 508.461,303.488 509.472,303.484 510.484,424.753 511.496,424.746 512.508,192.783 513.519,192.778 514.531,185.041 515.543,185.042 516.554,628.472 517.566,628.382 518.578,649.069 519.589,649.058 520.601,653.268 521.613,653.241 522.625,439.841 523.636,439.84 524.648,478.187 525.66,478.171 526.671,322.096 527.683,322.093 528.695,289.714 529.706,289.708 530.718,409.552 531.73,409.56 532.742,273.23 533.753,273.226 534.765,638.331 535.777,638.321 536.788,300.415 537.8,300.418 538.812,441.346 539.823,441.321 540.835,438.709 541.847,438.706 542.859,210.198 543.87,210.196 544.882,686.005 545.894,685.968 546.905,640.39 547.917,640.388 548.929,429.46 549.94,429.454 550.952,473.942 551.964,473.929 552.975,513.081 553.987,513.052 554.999,577.652 556.011,577.671 557.022,353.155 558.034,353.146 559.046,338.555 560.057,338.537 561.069,535.805 562.081,535.799 563.092,462.228 564.104,462.222 565.116,534.164 566.128,534.159 567.139,385.366 568.151,385.353 569.163,652.929 570.174,652.903 571.186,706.32 572.198,706.33 573.209,391.451 574.221,391.449 575.233,491.687 576.245,491.667 577.256,641.509 578.268,641.463 579.28,486.681 580.291,486.681 581.303,403.752 582.315,403.724 583.326,481.109 584.338,481.081 585.35,350.503 586.362,350.505 587.373,398.384 588.385,398.381 589.397,473.247 590.408,473.236 591.42,424.815 592.432,424.809 593.443,334.147 594.455,334.136 595.467,290.146 596.478,290.14 597.49,594.232 598.502,594.221 599.514,409.326 600.525,409.326 601.537,855.728 602.549,855.706 603.56,703.381 604.572,703.362 605.584,674.974 606.595,674.937 607.607,451.767 608.619,451.752 609.631,557.46 610.642,557.457 611.654,578.858 612.666,578.843 613.677,321.061 614.689,321.065 615.701,344.274 616.712,344.265 617.724,557.124 618.736,557.1 619.748,446.007 620.759,446.012 621.771,664.88 622.783,664.874 623.794,441.738 624.806,441.715 625.818,415.502 626.829,415.487 627.841,369.069 628.853,369.053 629.865,468.08 630.876,468.052 631.888,261.059 632.9,261.055 633.911,495.397 634.923,495.365 635.935,439.124 636.946,439.12 637.958,483.09 638.97,483.078 639.982,654.651 640.993,654.65 642.005,480.964 643.017,480.938 644.028,370.671 645.04,370.676 646.052,676.371 647.063,676.327 648.075,466.267 649.087,466.27 650.098,374.233 651.11,374.204 652.122,663.686 653.134,663.67 654.145,346.565 655.157,346.568 656.169,420.144 657.18,420.137 658.192,545.272 659.204,545.211 660.215,488.201 661.227,488.196 662.239,520.205 663.251,520.176 664.262,647.112 665.274,647.087 666.286,641.921 667.297,641.903 668.309,549.807 669.321,549.749 670.332,468.281 671.344,468.255 672.356,468.765 673.368,468.757 674.379,442.012 675.391,441.998 676.403,266.32 677.414,266.319 678.426,353.873 679.438,353.859 680.449,334.746 681.461,334.736 682.473,426.845 683.485,426.819 684.496,354.206 685.508,354.2 686.52,706.773 687.531,706.719 688.543,370.486 689.555,370.467 690.566,403.129 691.578,403.12 692.59,534.551 693.602,534.552 694.613,463.652 695.625,463.642 696.637,449.357 697.648,449.358 698.66,600.194 699.672,600.184 700.683,399.901 701.695,399.872 702.707,337.299 703.718,337.299 704.73,368.049 705.742,368.03 706.754,344.177 707.765,344.169 708.777,595.185 709.789,595.148 710.8,383.313 711.812,383.302 712.824,393.448 713.835,393.434 714.847,878.273 715.859,878.243 716.871,680.035 717.882,680.008 718.894,481.196 719.906,481.18 720.917,509.492 721.929,509.461 722.941,325.704 723.952,325.701 724.964,529.688 725.976,529.689 726.988,452.535 727.999,452.492 729.011,267.474 730.023,267.47 731.034,596.191 732.046,596.186 733.058,478.72 734.069,478.711 735.081,324.799 736.093,324.797 737.105,329.612 738.116,329.604 739.128,419.121 740.14,419.106 741.151,557.838 742.163,557.819 743.175,306.138 744.186,306.134 745.198,590.851 746.21,590.791 747.222,344.905 748.233,344.897 749.245,383.068 750.257,383.057 751.268,512.593 752.28,512.563 753.292,402.381 754.303,402.339 755.315,750.665 756.327,750.61 757.338,455.062 758.35,455.037 759.362,354.986 760.374,354.979 761.385,645.356 762.397,645.338 763.409,511.015 764.42,511.004 765.432,674.172 766.444,674.14 767.455,565.18 768.467,565.165 769.479,512.434 770.491,512.404 771.502,242.704 772.514,242.703 773.526,550.813 774.537,550.804 775.549,355.444 776.561,355.43 777.572,530.737 778.584,530.723 779.596,355.623 780.608,355.617 781.619,576.431 782.631,576.433 783.643,325.117 784.654,325.118 785.666,641.567 786.678,641.528 787.689,608.629 788.701,608.576 789.713,500.776 790.725,500.751 791.736,406.837 792.748,406.84 793.76,381.05 794.771,381.049 795.783,593.676 796.795,593.652 797.806,430.307 798.818,430.298 799.83,486.315 800.841,486.317 801.853,424.323 802.865,424.318 803.877,327.308 804.888,327.304 805.9,422.886 806.912,422.887 807.923,797.93 808.935,797.888 809.947,610.734 810.958,610.706 811.97,412.409 812.982,412.413 813.994,362.916 815.005,362.902 816.017,895.223 817.029,895.168 818.04,477.085 819.052,477.078 820.064,650.49 821.075,650.415 822.087,360.927 823.099,360.92 824.111,401.884 825.122,401.886 826.134,658.15 827.146,658.119 828.157,434.216 829.169,434.181 830.181,340.327 831.192,340.319 832.204,681.167 833.216,681.145 834.228,481.505 835.239,481.506 836.251,248.372 837.263,248.37 838.274,344.965 839.286,344.958 840.298,465.951 841.309,465.951 842.321,276.23 843.333,276.224 844.345,452.515 845.356,452.505 846.368,610.518 847.38,610.486 848.391,698.351 849.403,698.306 850.415,421.631 851.426,421.614 852.438,457.647 853.45,457.638 854.461,500.132 855.473,500.108 856.485,398.797 857.497,398.789 858.508,380.155 859.52,380.159 860.532,750.867 861.543,750.797 862.555,354.638 863.567,354.639 864.578,377.753 865.59,377.741 866.602,471.597 867.614,471.604 868.625,526.548 869.637,526.533 870.649,422.828 871.66,422.826 872.672,806.667 873.684,806.662 874.695,350.283 875.707,350.269 876.719,340.36 877.731,340.354 878.742,450.708 879.754,450.705 880.766,513.121 881.777,513.094 882.789,547.193 883.801,547.188 884.812,566.783 885.824,566.782 886.836,534.921 887.848,534.909 888.859,485.888 889.871,485.848 890.883,527.22 891.894,527.213 892.906,556.563 893.918,556.565 894.929,537.123 895.941,537.116 896.953,458.567 897.965,458.555 898.976,707.607 899.988,707.576 901,554.566 902.011,554.564 903.023,370.358 904.035,370.358 905.046,382.122 906.058,382.123 907.07,582.15 908.081,582.098 909.093,414.381 910.105,414.378 911.117,532.61 912.128,532.588 913.14,520.005 914.152,520.005 915.163,356.508 916.175,356.502 917.187,458.169 918.198,458.15 919.21,537.121 920.222,537.086 921.234,480.516 922.245,480.483 923.257,792.703 924.269,792.662 925.28,441.822 926.292,441.803 927.304,665.778 928.315,665.744 929.327,378.399 930.339,378.389 931.351,464.204 932.362,464.184 933.374,676.396 934.386,676.35 935.397,339.954 936.409,339.939 937.421,702.583 938.432,702.537 939.444,585.448 940.456,585.421 941.468,501.808 942.479,501.78 943.491,477.038 944.503,477.039 945.514,512.099 946.526,512.076 947.538,511.284 948.549,511.283 949.561,777.164 950.573,777.101 951.585,459.386 952.596,459.353 953.608,685.75 954.62,685.722 955.631,636.592 956.643,636.592 957.655,265.419 958.666,265.413 959.678,537.873 960.69,537.851 961.701,515.554 962.713,515.545 963.725,378.154 964.737,378.144 965.748,407.004 966.76,406.992 967.772,502.392 968.783,502.384 969.795,408.623 970.807,408.616 971.818,373.1 972.83,373.092 973.842,414.363 974.854,414.36 975.865,597.584 976.877,597.577 977.889,448.537 978.9,448.525 979.912,945.5 980.924,945.452 981.935,672.46 982.947,672.441 983.959,758.018 984.971,758.004 985.982,749.856 986.994,749.813 988.006,563.37 989.017,563.336 990.029,520.468 991.041,520.469 992.052,404.829 993.064,404.813 994.076,641.272 995.088,641.256 996.099,710.455 997.111,710.421 998.123,553.639 999.134,553.626 1000.15,639.769 1001.16,639.726 1002.17,625.148 1003.18,625.133 1004.19,819.285 1005.2,819.194 1006.22,612.274 1007.23,612.261 1008.24,799.249 1009.25,799.14 1010.26,789.585 1011.27,789.538 1012.29,427.156 1013.3,427.142 1014.31,410.559 1015.32,410.553 1016.33,752.122 1017.34,752.08 1018.36,695.078 1019.37,695.041 1020.38,506.754 1021.39,506.729 1022.4,499.674 1023.42,499.664 1024.43,599.826 1025.44,599.787 1026.45,620.152 1027.46,620.137 1028.47,639.543 1029.49,639.501 1030.5,404.739 1031.51,404.735 1032.52,341.067 1033.53,341.068 1034.54,641.017 1035.56,641.002 1036.57,753.464 1037.58,753.428 1038.59,618.972 1039.6,618.949 1040.61,310.679 1041.63,310.674 1042.64,293.979 1043.65,293.974 1044.66,504.664 1045.67,504.654 1046.68,735.099 1047.7,735.059 1048.71,648.428 1049.72,648.434 1050.73,537.608 1051.74,537.577 1052.75,535.566 1053.77,535.559 1054.78,659.645 1055.79,659.623 1056.8,612.882 1057.81,612.893 1058.82,332.39 1059.84,332.389 1060.85,716.781 1061.86,716.754 1062.87,479.351 1063.88,479.329 1064.89,888.565 1065.91,888.526 1066.92,395.952 1067.93,395.943 1068.94,649.241 1069.95,649.217 1070.96,709.603 1071.98,709.583 1072.99,835.991 1074,835.946 1075.01,670.362 1076.02,670.336 1077.04,607.168 1078.05,607.137 1079.06,657.017 1080.07,656.992 1081.08,451.675 1082.09,451.653 1083.11,440.827 1084.12,440.816 1085.13,753.418 1086.14,753.403 1087.15,558.489 1088.16,558.485 1089.18,684.903 1090.19,684.864 1091.2,632.101 1092.21,632.057 1093.22,677.229 1094.23,677.214 1095.25,859.068 1096.26,859.011 1097.27,584.077 1098.28,584.086 1099.29,704.433 1100.3,704.405 1101.32,710.556 1102.33,710.528 1103.34,548.192 1104.35,548.099 1105.36,692.862 1106.37,692.871 1107.39,643.485 1108.4,643.466 1109.41,356.738 1110.42,356.726 1111.43,746.62 1112.44,746.584 1113.46,477.825 1114.47,477.796 1115.48,432.163 1116.49,432.163 1117.5,494.123 1118.51,494.112 1119.53,681.181 1120.54,681.175 1121.55,395.049 1122.56,395.045 1123.57,354.375 1124.58,354.369 1125.6,645.273 1126.61,645.24 1127.62,758.709 1128.63,758.662 1129.64,570.398 1130.66,570.376 1131.67,710.719 1132.68,710.678 1133.69,702.488 1134.7,702.466 1135.71,870.792 1136.73,870.787 1137.74,503.954 1138.75,503.95 1139.76,888.44 1140.77,888.366 1141.78,541.243 1142.8,541.23 1143.81,366.264 1144.82,366.263 1145.83,675.176 1146.84,675.135 1147.85,380.663 1148.87,380.644 1149.88,894.312 1150.89,894.247 1151.9,596.975 1152.91,596.976 1153.92,601.14 1154.94,601.119 1155.95,632.798 1156.96,632.754 1157.97,864.089 1158.98,864.013 1159.99,670.977 1161.01,670.979 1162.02,474.127 1163.03,474.102 1164.04,800.911 1165.05,800.841 1166.06,719.492 1167.08,719.478 1168.09,923.829 1169.1,923.781 1170.11,517.668 1171.12,517.65 1172.13,523.479 1173.15,523.462 1174.16,522.741 1175.17,522.722 1176.18,616.239 1177.19,616.198 1178.2,500.413 1179.22,500.391 1180.23,271.636 1181.24,271.63 1182.25,810.207 1183.26,810.164 1184.28,455.928 1185.29,455.926 1186.3,630.584 1187.31,630.564 1188.32,705.834 1189.33,705.835 1190.35,760.741 1191.36,760.685 1192.37,576.149 1193.38,576.141 1194.39,772.783 1195.4,772.7 1196.42,740.005 1197.43,739.958 1198.44,827.101 1199.45,827.03 1200.46,606.234 1201.47,606.231 1202.49,516.96 1203.5,516.955 1204.51,788.527 1205.52,788.451 1206.53,475.992 1207.54,475.967 1208.56,808.681 1209.57,808.634 1210.58,416.001 1211.59,415.99 1212.6,600.591 1213.61,600.579 1214.63,617.307 1215.64,617.289 1216.65,601.157 1217.66,601.144 1218.67,941.278 1219.68,941.214 1220.7,457.691 1221.71,457.687 1222.72,865.697 1223.73,865.586 1224.74,635.526 1225.75,635.504 1226.77,588.92 1227.78,588.891 1228.79,565.789 1229.8,565.763 1230.81,598.561 1231.82,598.538 1232.84,396.072 1233.85,396.05 1234.86,517.302 1235.87,517.285 1236.88,600.985 1237.9,600.972 1238.91,415.234 1239.92,415.222 1240.93,517.061 1241.94,517.046 1242.95,835.427 1243.97,835.424 1244.98,518.186 1245.99,518.176 1247,599.465 1248.01,599.433 1249.02,184.502 1250.04,184.478 1251.05,633.936 1252.06,633.884 1253.07,538.464 1254.08,538.464 1255.09,743.484 1256.11,743.441 1257.12,612.006 1258.13,611.993 1259.14,528.441 1260.15,528.415 1261.16,563.776 1262.18,563.765 1263.19,604.58 1264.2,604.561 1265.21,870.875 1266.22,870.862 1267.23,667.41 1268.25,667.4 1269.26,535.575 1270.27,535.545 1271.28,777.514 1272.29,777.485 1273.3,659.155 1274.32,659.139 1275.33,431.823 1276.34,431.795 1277.35,557.374 1278.36,557.338 1279.37,534.214 1280.39,534.189 1281.4,415.307 1282.41,415.285 1283.42,616.099 1284.43,616.103 1285.44,486.855 1286.46,486.835 1287.47,706.824 1288.48,706.81 1289.49,655.373 1290.5,655.362 1291.52,747.446 1292.53,747.419 1293.54,761.363 1294.55,761.323 1295.56,500.93 1296.57,500.925 1297.59,421.741 1298.6,421.729 1299.61,961.056 1300.62,961.042 1301.63,405.899 1302.64,405.895 1303.66,671.589 1304.67,671.577 1305.68,672.155 1306.69,672.144 1307.7,517.85 1308.71,517.832 1309.73,948.743 1310.74,948.636 1311.75,596.889 1312.76,596.875 1313.77,750.575 1314.78,750.549 1315.8,599.032 1316.81,599.001 1317.82,712.102 1318.83,712.089 1319.84,638.46 1320.85,638.421 1321.87,534.702 1322.88,534.698 1323.89,575.627 1324.9,575.612 1325.91,748.24 1326.92,748.223 1327.94,481.952 1328.95,481.952 1329.96,795.2 1330.97,795.158 1331.98,669.339 1332.99,669.309 1334.01,565.616 1335.02,565.559 1336.03,527.274 1337.04,527.263 1338.05,586.704 1339.06,586.685 1340.08,611.132 1341.09,611.121 1342.1,519.532 1343.11,519.487 1344.12,552.535 1345.14,552.534 1346.15,885.695 1347.16,885.598 1348.17,777.187 1349.18,777.107 1350.19,411.3 1351.21,411.293 1352.22,508.621 1353.23,508.579 1354.24,656.38 1355.25,656.371 1356.26,669.351 1357.28,669.32 1358.29,564.765 1359.3,564.758 1360.31,609.628 1361.32,609.611 1362.33,581.088 1363.35,581.081 1364.36,693.806 1365.37,693.784 1366.38,796.144 1367.39,796.119 1368.4,939.263 1369.42,939.229 1370.43,846.152 1371.44,846.148 1372.45,866.729 1373.46,866.686 1374.47,764.291 1375.49,764.287 1376.5,928.726 1377.51,928.675 1378.52,505.092 1379.53,505.075 1380.54,664.23 1381.56,664.219 1382.57,796.058 1383.58,796.033 1384.59,575.225 1385.6,575.212 1386.61,623.654 1387.63,623.634 1388.64,586.102 1389.65,586.071 1390.66,748.947 1391.67,748.9 1392.68,720.605 1393.7,720.574 1394.71,898.787 1395.72,898.745 1396.73,802.774 1397.74,802.729 1398.76,724.316 1399.77,724.25 1400.78,916.155 1401.79,916.1 1402.8,763.183 1403.81,763.157 1404.83,669.174 1405.84,669.156 1406.85,419.79 1407.86,419.782 1408.87,785.221 1409.88,785.172 1410.9,659.594 1411.91,659.605 1412.92,555.702 1413.93,555.672 1414.94,594.605 1415.95,594.594 1416.97,639.639 1417.98,639.606 1418.99,600.645 1420,600.641 1421.01,358.576 1422.02,358.561 1423.04,666.316 1424.05,666.31 1425.06,436.126 1426.07,436.092 1427.08,781.331 1428.09,781.322 1429.11,675.198 1430.12,675.182 1431.13,564.003 1432.14,563.957 1433.15,811.776 1434.16,811.721 1435.18,898.469 1436.19,898.43 1437.2,591.498 1438.21,591.472 1439.22,677.176 1440.23,677.123 1441.25,678.322 1442.26,678.29 1443.27,815.665 1444.28,815.635 1445.29,623.338 1446.3,623.319 1447.32,638.095 1448.33,638.079 1449.34,513.418 1450.35,513.418 1451.36,707.921 1452.38,707.916 1453.39,555.193 1454.4,555.175 1455.41,834.646 1456.42,834.618 1457.43,409.684 1458.45,409.672 1459.46,858.15 1460.47,858.101 1461.48,608.436 1462.49,608.422 1463.5,547.79 1464.52,547.779 1465.53,600.492 1466.54,600.484 1467.55,752.829 1468.56,752.765 1469.57,691.269 1470.59,691.241 1471.6,633.903 1472.61,633.876 1473.62,463.766 1474.63,463.759 1475.64,745.756 1476.66,745.721 1477.67,806.783 1478.68,806.747 1479.69,644.04 1480.7,644.026 1481.71,675.146 1482.73,675.095 1483.74,802.347 1484.75,802.317 1485.76,683.614 1486.77,683.586 1487.78,602.709 1488.8,602.698 1489.81,915.518 1490.82,915.492 1491.83,710.77 1492.84,710.758 1493.85,663.437 1494.87,663.428 1495.88,726.109 1496.89,726.087 1497.9,781.09 1498.91,781.073 1499.92,563.763 1500.94,563.715 1501.95,434.439 1502.96,434.415 1503.97,647.334 1504.98,647.292 1506,636.002 1507.01,635.999 1508.02,567.886 1509.03,567.879 1510.04,919.153 1511.05,919.044 1512.07,715.458 1513.08,715.408 1514.09,679.039 1515.1,679.02 1516.11,934.156 1517.12,934.118 1518.14,900.367 1519.15,900.323 1520.16,660.169 1521.17,660.113 1522.18,595.865 1523.19,595.846 1524.21,573.607 1525.22,573.595 1526.23,677.205 1527.24,677.185 1528.25,472.457 1529.26,472.44 1530.28,485.591 1531.29,485.574 1532.3,799.631 1533.31,799.611 1534.32,659.861 1535.33,659.848 1536.35,599.085 1537.36,599.071 1538.37,526.498 1539.38,526.471 1540.39,777.312 1541.4,777.283 1542.42,847.007 1543.43,846.969 1544.44,636.542 1545.45,636.496 1546.46,678.466 1547.47,678.446 1548.49,556.175 1549.5,556.167 1550.51,878.666 1551.52,878.601 1552.53,717.757 1553.54,717.734 1554.56,824.154 1555.57,824.09 1556.58,991.518 1557.59,991.5 1558.6,669.691 1559.62,669.684 1560.63,710.789 1561.64,710.783 1562.65,620.181 1563.66,620.154 1564.67,804.547 1565.69,804.514 1566.7,1002 1567.71,1001.97 1568.72,777.74 1569.73,777.697 1570.74,446.907 1571.76,446.879 1572.77,791.705 1573.78,791.687 1574.79,615.181 1575.8,615.154 1576.81,868.715 1577.83,868.718 1578.84,1033.99 1579.85,1033.97 1580.86,630.366 1581.87,630.344 1582.88,1138.97 1583.9,1138.91 1584.91,505.852 1585.92,505.846 1586.93,750.781 1587.94,750.768 1588.95,863.422 1589.97,863.351 1590.98,647.722 1591.99,647.702 1593,985.977 1594.01,985.902 1595.02,653.136 1596.04,653.115 1597.05,737.518 1598.06,737.496 1599.07,746.155 1600.08,746.116 1601.09,935.023 1602.11,934.979 1603.12,704.941 1604.13,704.935 1605.14,1023.34 1606.15,1023.32 1607.16,325.752 1608.18,325.75 1609.19,722.675 1610.2,722.645 1611.21,837.521 1612.22,837.499 1613.24,633.885 1614.25,633.849 1615.26,823.258 1616.27,823.228 1617.28,862.944 1618.29,862.877 1619.31,784.484 1620.32,784.451 1621.33,813.423 1622.34,813.393 1623.35,1176.63 1624.36,1176.51 1625.38,1008.06 1626.39,1007.92 1627.4,913.343 1628.41,913.303 1629.42,940.199 1630.43,940.16 1631.45,816.822 1632.46,816.797 1633.47,636.228 1634.48,636.222 1635.49,817.647 1636.5,817.623 1637.52,571.284 1638.53,571.248 1639.54,741.725 1640.55,741.7 1641.56,737.732 1642.57,737.717 1643.59,1078.54 1644.6,1078.45 1645.61,662.357 1646.62,662.325 1647.63,673.206 1648.64,673.165 1649.66,732.079 1650.67,732.071 1651.68,912.306 1652.69,912.265 1653.7,879.263 1654.71,879.246 1655.73,824.999 1656.74,824.895 1657.75,775.13 1658.76,775.106 1659.77,787.021 1660.78,786.974 1661.8,771.22 1662.81,771.197 1663.82,813.412 1664.83,813.395 1665.84,736.861 1666.86,736.849 1667.87,560.093 1668.88,560.076 1669.89,631.696 1670.9,631.693 1671.91,938.925 1672.93,938.848 1673.94,683.607 1674.95,683.592 1675.96,753.676 1676.97,753.642 1677.98,749.643 1679,749.623 1680.01,827.904 1681.02,827.864 1682.03,726.287 1683.04,726.263 1684.05,744.9 1685.07,744.887 1686.08,575.531 1687.09,575.528 1688.1,894.215 1689.11,894.158 1690.12,903.989 1691.14,903.959 1692.15,817.907 1693.16,817.858 1694.17,752.753 1695.18,752.744 1696.19,662.45 1697.21,662.434 1698.22,930.45 1699.23,930.414 1700.24,876.685 1701.25,876.649 1702.26,942.015 1703.28,941.985 1704.29,909.229 1705.3,909.188 1706.31,785.851 1707.32,785.807 1708.33,854.361 1709.35,854.325 1710.36,727.848 1711.37,727.823 1712.38,631.57 1713.39,631.55 1714.4,590.352 1715.42,590.344 1716.43,677.876 1717.44,677.871 1718.45,928.593 1719.46,928.597 1720.47,827.192 1721.49,827.191 1722.5,768.799 1723.51,768.78 1724.52,1013.26 1725.53,1013.17 1726.55,717.166 1727.56,717.119 1728.57,906.894 1729.58,906.844 1730.59,753.173 1731.6,753.14 1732.62,856.658 1733.63,856.628 1734.64,654.874 1735.65,654.866 1736.66,713.459 1737.67,713.432 1738.69,650.06 1739.7,650.036 1740.71,838.077 1741.72,838.011 1742.73,791.932 1743.74,791.875 1744.76,581.502 1745.77,581.494 1746.78,876.491 1747.79,876.409 1748.8,1070.25 1749.81,1070.19 1750.83,649.137 1751.84,649.115 1752.85,978.052 1753.86,978.021 1754.87,917.125 1755.88,917.09 1756.9,549.692 1757.91,549.69 1758.92,739.086 1759.93,739.05 1760.94,681.971 1761.95,681.92 1762.97,799.445 1763.98,799.357 1764.99,1061.39 1766,1061.32 1767.01,835.962 1768.02,835.94 1769.04,786.625 1770.05,786.593 1771.06,930.316 1772.07,930.253 1773.08,940.425 1774.09,940.382 1775.11,860.885 1776.12,860.853 1777.13,661.057 1778.14,661.045 1779.15,753.794 1780.17,753.759 1781.18,871.325 1782.19,871.294 1783.2,835.96 1784.21,835.904 1785.22,871.85 1786.24,871.801 1787.25,536.617 1788.26,536.615 1789.27,772.308 1790.28,772.28 1791.29,769.775 1792.31,769.746 1793.32,824.052 1794.33,824.037 1795.34,472.183 1796.35,472.176 1797.36,755.328 1798.38,755.307 1799.39,775.295 1800.4,775.303 1801.41,784.303 1802.42,784.271 1803.43,801.226 1804.45,801.208 1805.46,768.79 1806.47,768.753 1807.48,550.569 1808.49,550.559 1809.5,608.174 1810.52,608.169 1811.53,973.572 1812.54,973.526 1813.55,608.072 1814.56,608.037 1815.57,743.343 1816.59,743.302 1817.6,924.774 1818.61,924.761 1819.62,714.598 1820.63,714.56 1821.64,851.472 1822.66,851.437 1823.67,663.329 1824.68,663.305 1825.69,1159.18 1826.7,1159.1 1827.71,713.073 1828.73,713.074 1829.74,882.158 1830.75,882.112 1831.76,1078.55 1832.77,1078.41 1833.79,703.625 1834.8,703.599 1835.81,732.346 1836.82,732.326 1837.83,931.438 1838.84,931.396 1839.86,1091.21 1840.87,1091.14 1841.88,726.951 1842.89,726.937 1843.9,899.038 1844.91,899.003 1845.93,758.639 1846.94,758.624 1847.95,1111.1 1848.96,1111.02 1849.97,847.46 1850.98,847.437 1852,790.204 1853.01,790.202 1854.02,736.193 1855.03,736.187 1856.04,999.83 1857.05,999.777 1858.07,901.944 1859.08,901.897 1860.09,929.056 1861.1,929.005 1862.11,502.293 1863.12,502.276 1864.14,1013.36 1865.15,1013.28 1866.16,565.56 1867.17,565.546 1868.18,794.008 1869.19,793.993 1870.21,873.255 1871.22,873.233 1872.23,780.701 1873.24,780.686 1874.25,977.155 1875.26,977.096 1876.28,722.756 1877.29,722.718 1878.3,1119.6 1879.31,1119.55 1880.32,587.157 1881.33,587.151 1882.35,766.825 1883.36,766.81 1884.37,768.065 1885.38,768.027 1886.39,999.634 1887.41,999.6 1888.42,693.144 1889.43,693.107 1890.44,763.103 1891.45,763.087 1892.46,1036.85 1893.48,1036.75 1894.49,715.741 1895.5,715.716 1896.51,602.187 1897.52,602.166 1898.53,746.861 1899.55,746.819 1900.56,966.586 1901.57,966.56 1902.58,923.327 1903.59,923.257 1904.6,801.123 1905.62,801.099 1906.63,764.842 1907.64,764.839 1908.65,1048.25 1909.66,1048.19 1910.67,747.207 1911.69,747.172 1912.7,966.473 1913.71,966.404 1914.72,469.601 1915.73,469.583 1916.74,862.023 1917.76,861.977 1918.77,959.873 1919.78,959.823 1920.79,740.827 1921.8,740.797 1922.81,487.14 1923.83,487.132 1924.84,966.208 1925.85,966.15 1926.86,894.854 1927.87,894.821 1928.88,721.396 1929.9,721.326 1930.91,701.275 1931.92,701.265 1932.93,813.119 1933.94,813.059 1934.95,875.138 1935.97,875.101 1936.98,1095.11 1937.99,1095.05 1939,1021.52 1940.01,1021.43 1941.03,910.255 1942.04,910.209 1943.05,755.008 1944.06,754.985 1945.07,982.547 1946.08,982.492 1947.1,969.454 1948.11,969.43 1949.12,1139.08 1950.13,1139.02 1951.14,918.887 1952.15,918.847 1953.17,975.166 1954.18,975.114 1955.19,862.282 1956.2,862.249 1957.21,1084.54 1958.22,1084.46 1959.24,797.23 1960.25,797.212 1961.26,918.536 1962.27,918.497 1963.28,821.628 1964.29,821.605 1965.31,879.37 1966.32,879.329 1967.33,788.641 1968.34,788.612 1969.35,921.221 1970.36,921.178 1971.38,841.159 1972.39,841.143 1973.4,1040.74 1974.41,1040.7 1975.42,1104.47 1976.43,1104.43 1977.45,1445.72 1978.46,1445.59 1979.47,825.921 1980.48,825.883 1981.49,1082.87 1982.5,1082.78 1983.52,585.554 1984.53,585.54 1985.54,720.911 1986.55,720.875 1987.56,972.988 1988.57,972.947 1989.59,835.58 1990.6,835.557 1991.61,776.879 1992.62,776.864 1993.63,904.954 1994.65,904.933 1995.66,944.298 1996.67,944.258 1997.68,1106.14 1998.69,1106.1 1999.7,1206.67 2000.72,1206.61 2001.73,757.239 2002.74,757.204 2003.75,699.621 2004.76,699.596 2005.77,772.582 2006.79,772.509 2007.8,932.247 2008.81,932.226 2009.82,775.709 2010.83,775.692 2011.84,801.158 2012.86,801.128 2013.87,1173.93 2014.88,1173.85 2015.89,969.393 2016.9,969.339 2017.91,1013.22 2018.93,1013.15 2019.94,986.134 2020.95,986.104 2021.96,763.655 2022.97,763.634 2023.98,835.089 2025,835.067 2026.01,781.219 2027.02,781.209 2028.03,881.025 2029.04,880.982 2030.05,928.787 2031.07,928.744 2032.08,701.965 2033.09,701.951 2034.1,1024.71 2035.11,1024.66 2036.12,799.595 2037.14,799.585 2038.15,1143.76 2039.16,1143.61 2040.17,984.718 2041.18,984.68 2042.19,1106.33 2043.21,1106.27 2044.22,970.511 2045.23,970.495 2046.24,980.088 2047.25,980.058 2048.27,790.237 2049.28,790.227 2050.29,1181.85 2051.3,1181.77 2052.31,941.831 2053.32,941.784 2054.34,837.125 2055.35,837.066 2056.36,1098.42 2057.37,1098.37 2058.38,825.465 2059.39,825.438 2060.41,1079.19 2061.42,1079.16 2062.43,839.217 2063.44,839.209 2064.45,867.518 2065.46,867.484 2066.48,970.624 2067.49,970.548 2068.5,880.956 2069.51,880.921 2070.52,822.965 2071.53,822.913 2072.55,1293.67 2073.56,1293.61 2074.57,985.951 2075.58,985.938 2076.59,800.677 2077.6,800.623 2078.62,1067.05 2079.63,1066.98 2080.64,916.21 2081.65,916.075 2082.66,781.783 2083.67,781.732 2084.69,999.72 2085.7,999.665 2086.71,753.895 2087.72,753.873 2088.73,970.963 2089.74,970.911 2090.76,838.304 2091.77,838.263 2092.78,973.858 2093.79,973.814 2094.8,1075.53 2095.81,1075.51 2096.83,1076.94 2097.84,1076.9 2098.85,1118.23 2099.86,1118.17 2100.87,741.687 2101.89,741.661 2102.9,693.344 2103.91,693.336 2104.92,942.484 2105.93,942.44 2106.94,680.698 2107.96,680.691 2108.97,1005.28 2109.98,1005.24 2110.99,1033.95 2112,1033.87 2113.01,764.201 2114.03,764.181 2115.04,869.285 2116.05,869.26 2117.06,1148.11 2118.07,1148.05 2119.08,1102.27 2120.1,1102.23 2121.11,880.741 2122.12,880.711 2123.13,752.449 2124.14,752.415 2125.15,1060.59 2126.17,1060.53 2127.18,916.124 2128.19,916.081 2129.2,871.172 2130.21,871.138 2131.22,1023.5 2132.24,1023.46 2133.25,960.011 2134.26,959.947 2135.27,995.244 2136.28,995.182 2137.29,907.18 2138.31,907.164 2139.32,858.226 2140.33,858.21 2141.34,961.832 2142.35,961.787 2143.36,1170.62 2144.38,1170.53 2145.39,965.847 2146.4,965.802 2147.41,963.279 2148.42,963.236 2149.43,838.949 2150.45,838.92 2151.46,675.036 2152.47,675.029 2153.48,951.904 2154.49,951.877 2155.51,1268.61 2156.52,1268.55 2157.53,853.943 2158.54,853.911 2159.55,988.998 2160.56,988.927 2161.58,1287.84 2162.59,1287.79 2163.6,727.74 2164.61,727.708 2165.62,987.861 2166.63,987.775 2167.65,1063.77 2168.66,1063.65 2169.67,781.978 2170.68,781.94 2171.69,818.398 2172.7,818.378 2173.72,890.65 2174.73,890.595 2175.74,1086.96 2176.75,1086.92 2177.76,1039.43 2178.77,1039.4 2179.79,844.047 2180.8,844.01 2181.81,980.755 2182.82,980.735 2183.83,923.789 2184.84,923.741 2185.86,891.488 2186.87,891.471 2187.88,982.635 2188.89,982.614 2189.9,1118.91 2190.91,1118.87 2191.93,694.635 2192.94,694.616 2193.95,879.188 2194.96,879.167 2195.97,1030.1 2196.98,1029.99 2198,665.611 2199.01,665.573 2200.02,719.076 2201.03,719.046 2202.04,1034.71 2203.05,1034.61 2204.07,1273.07 2205.08,1273 2206.09,878.151 2207.1,878.129 2208.11,985.722 2209.13,985.706 2210.14,850.248 2211.15,850.209 2212.16,1000.58 2213.17,1000.54 2214.18,787.899 2215.2,787.861 2216.21,850.938 2217.22,850.918 2218.23,1014.93 2219.24,1014.87 2220.25,1187.99 2221.27,1187.9 2222.28,728.427 2223.29,728.403 2224.3,1019.3 2225.31,1019.27 2226.32,756.787 2227.34,756.765 2228.35,1325.86 2229.36,1325.75 2230.37,867.298 2231.38,867.281 2232.39,1263.12 2233.41,1263.03 2234.42,1036.32 2235.43,1036.28 2236.44,811.676 2237.45,811.655 2238.46,1195.91 2239.48,1195.86 2240.49,1337.99 2241.5,1337.93 2242.51,975.631 2243.52,975.594 2244.53,752.592 2245.55,752.572 2246.56,913.622 2247.57,913.61 2248.58,758.469 2249.59,758.405 2250.6,863.046 2251.62,863.034 2252.63,739.858 2253.64,739.848 2254.65,815.571 2255.66,815.553 2256.67,1359.32 2257.69,1359.23 2258.7,1353.85 2259.71,1353.76 2260.72,920.464 2261.73,920.45 2262.75,894.035 2263.76,894.013 2264.77,843.312 2265.78,843.302 2266.79,887.018 2267.8,886.973 2268.82,854.447 2269.83,854.43 2270.84,1003.26 2271.85,1003.22 2272.86,921.62 2273.87,921.601 2274.89,977.936 2275.9,977.858 2276.91,1137.97 2277.92,1137.96 2278.93,1142.97 2279.94,1142.91 2280.96,821.016 2281.97,820.991 2282.98,1225.46 2283.99,1225.43 2285,1211.82 2286.01,1211.76 2287.03,966.189 2288.04,966.17 2289.05,735.376 2290.06,735.368 2291.07,788.609 2292.08,788.601 "/>
<path clip-path="url(#clip690)" d="M2014.5 198.898 L2281.3 198.898 L2281.3 95.2176 L2014.5 95.2176  Z" fill="#ffffff" fill-rule="evenodd" fill-opacity="1"/>
<polyline clip-path="url(#clip690)" style="stroke:#000000; stroke-linecap:round; stroke-linejoin:round; stroke-width:4; stroke-opacity:1; fill:none" points="2014.5,198.898 2281.3,198.898 2281.3,95.2176 2014.5,95.2176 2014.5,198.898 "/>
<polyline clip-path="url(#clip690)" style="stroke:#009af9; stroke-linecap:round; stroke-linejoin:round; stroke-width:4; stroke-opacity:1; fill:none" points="2038.31,147.058 2181.23,147.058 "/>
<path clip-path="url(#clip690)" d="M2218.89 166.745 Q2217.09 171.375 2215.37 172.787 Q2213.66 174.199 2210.79 174.199 L2207.39 174.199 L2207.39 170.634 L2209.89 170.634 Q2211.65 170.634 2212.62 169.8 Q2213.59 168.967 2214.77 165.865 L2215.53 163.921 L2205.05 138.412 L2209.56 138.412 L2217.66 158.689 L2225.77 138.412 L2230.28 138.412 L2218.89 166.745 Z" fill="#000000" fill-rule="nonzero" fill-opacity="1" /><path clip-path="url(#clip690)" d="M2237.57 160.402 L2245.21 160.402 L2245.21 134.037 L2236.9 135.703 L2236.9 131.444 L2245.16 129.778 L2249.84 129.778 L2249.84 160.402 L2257.48 160.402 L2257.48 164.338 L2237.57 164.338 L2237.57 160.402 Z" fill="#000000" fill-rule="nonzero" fill-opacity="1" /></svg>
