<?xml version="1.0" encoding="utf-8"?>
<svg xmlns="http://www.w3.org/2000/svg" xmlns:xlink="http://www.w3.org/1999/xlink" width="600" height="400" viewBox="0 0 2400 1600">
<defs>
  <clipPath id="clip920">
    <rect x="0" y="0" width="2400" height="1600"/>
  </clipPath>
</defs>
<path clip-path="url(#clip920)" d="M0 1600 L2400 1600 L2400 0 L0 0  Z" fill="#ffffff" fill-rule="evenodd" fill-opacity="1"/>
<defs>
  <clipPath id="clip921">
    <rect x="480" y="0" width="1681" height="1600"/>
  </clipPath>
</defs>
<path clip-path="url(#clip920)" d="M277.431 1486.45 L2352.76 1486.45 L2352.76 47.2441 L277.431 47.2441  Z" fill="#ffffff" fill-rule="evenodd" fill-opacity="1"/>
<defs>
  <clipPath id="clip922">
    <rect x="277" y="47" width="2076" height="1440"/>
  </clipPath>
</defs>
<polyline clip-path="url(#clip922)" style="stroke:#000000; stroke-linecap:round; stroke-linejoin:round; stroke-width:2; stroke-opacity:0.1; fill:none" points="336.167,1486.45 336.167,47.2441 "/>
<polyline clip-path="url(#clip922)" style="stroke:#000000; stroke-linecap:round; stroke-linejoin:round; stroke-width:2; stroke-opacity:0.1; fill:none" points="825.63,1486.45 825.63,47.2441 "/>
<polyline clip-path="url(#clip922)" style="stroke:#000000; stroke-linecap:round; stroke-linejoin:round; stroke-width:2; stroke-opacity:0.1; fill:none" points="1315.09,1486.45 1315.09,47.2441 "/>
<polyline clip-path="url(#clip922)" style="stroke:#000000; stroke-linecap:round; stroke-linejoin:round; stroke-width:2; stroke-opacity:0.1; fill:none" points="1804.56,1486.45 1804.56,47.2441 "/>
<polyline clip-path="url(#clip922)" style="stroke:#000000; stroke-linecap:round; stroke-linejoin:round; stroke-width:2; stroke-opacity:0.1; fill:none" points="2294.02,1486.45 2294.02,47.2441 "/>
<polyline clip-path="url(#clip920)" style="stroke:#000000; stroke-linecap:round; stroke-linejoin:round; stroke-width:4; stroke-opacity:1; fill:none" points="277.431,1486.45 2352.76,1486.45 "/>
<polyline clip-path="url(#clip920)" style="stroke:#000000; stroke-linecap:round; stroke-linejoin:round; stroke-width:4; stroke-opacity:1; fill:none" points="336.167,1486.45 336.167,1467.55 "/>
<polyline clip-path="url(#clip920)" style="stroke:#000000; stroke-linecap:round; stroke-linejoin:round; stroke-width:4; stroke-opacity:1; fill:none" points="825.63,1486.45 825.63,1467.55 "/>
<polyline clip-path="url(#clip920)" style="stroke:#000000; stroke-linecap:round; stroke-linejoin:round; stroke-width:4; stroke-opacity:1; fill:none" points="1315.09,1486.45 1315.09,1467.55 "/>
<polyline clip-path="url(#clip920)" style="stroke:#000000; stroke-linecap:round; stroke-linejoin:round; stroke-width:4; stroke-opacity:1; fill:none" points="1804.56,1486.45 1804.56,1467.55 "/>
<polyline clip-path="url(#clip920)" style="stroke:#000000; stroke-linecap:round; stroke-linejoin:round; stroke-width:4; stroke-opacity:1; fill:none" points="2294.02,1486.45 2294.02,1467.55 "/>
<path clip-path="url(#clip920)" d="M336.167 1517.37 Q332.555 1517.37 330.727 1520.93 Q328.921 1524.47 328.921 1531.6 Q328.921 1538.71 330.727 1542.27 Q332.555 1545.82 336.167 1545.82 Q339.801 1545.82 341.606 1542.27 Q343.435 1538.71 343.435 1531.6 Q343.435 1524.47 341.606 1520.93 Q339.801 1517.37 336.167 1517.37 M336.167 1513.66 Q341.977 1513.66 345.032 1518.27 Q348.111 1522.85 348.111 1531.6 Q348.111 1540.33 345.032 1544.94 Q341.977 1549.52 336.167 1549.52 Q330.356 1549.52 327.278 1544.94 Q324.222 1540.33 324.222 1531.6 Q324.222 1522.85 327.278 1518.27 Q330.356 1513.66 336.167 1513.66 Z" fill="#000000" fill-rule="nonzero" fill-opacity="1" /><path clip-path="url(#clip920)" d="M789.322 1544.91 L805.642 1544.91 L805.642 1548.85 L783.697 1548.85 L783.697 1544.91 Q786.359 1542.16 790.943 1537.53 Q795.549 1532.88 796.73 1531.53 Q798.975 1529.01 799.855 1527.27 Q800.757 1525.51 800.757 1523.82 Q800.757 1521.07 798.813 1519.33 Q796.892 1517.6 793.79 1517.6 Q791.591 1517.6 789.137 1518.36 Q786.707 1519.13 783.929 1520.68 L783.929 1515.95 Q786.753 1514.82 789.207 1514.24 Q791.66 1513.66 793.697 1513.66 Q799.068 1513.66 802.262 1516.35 Q805.456 1519.03 805.456 1523.52 Q805.456 1525.65 804.646 1527.57 Q803.859 1529.47 801.753 1532.07 Q801.174 1532.74 798.072 1535.95 Q794.97 1539.15 789.322 1544.91 Z" fill="#000000" fill-rule="nonzero" fill-opacity="1" /><path clip-path="url(#clip920)" d="M815.503 1514.29 L833.859 1514.29 L833.859 1518.22 L819.785 1518.22 L819.785 1526.7 Q820.804 1526.35 821.822 1526.19 Q822.841 1526 823.859 1526 Q829.646 1526 833.026 1529.17 Q836.405 1532.34 836.405 1537.76 Q836.405 1543.34 832.933 1546.44 Q829.461 1549.52 823.142 1549.52 Q820.966 1549.52 818.697 1549.15 Q816.452 1548.78 814.044 1548.04 L814.044 1543.34 Q816.128 1544.47 818.35 1545.03 Q820.572 1545.58 823.049 1545.58 Q827.054 1545.58 829.392 1543.48 Q831.729 1541.37 831.729 1537.76 Q831.729 1534.15 829.392 1532.04 Q827.054 1529.94 823.049 1529.94 Q821.174 1529.94 819.299 1530.35 Q817.447 1530.77 815.503 1531.65 L815.503 1514.29 Z" fill="#000000" fill-rule="nonzero" fill-opacity="1" /><path clip-path="url(#clip920)" d="M855.618 1517.37 Q852.007 1517.37 850.178 1520.93 Q848.373 1524.47 848.373 1531.6 Q848.373 1538.71 850.178 1542.27 Q852.007 1545.82 855.618 1545.82 Q859.252 1545.82 861.058 1542.27 Q862.887 1538.71 862.887 1531.6 Q862.887 1524.47 861.058 1520.93 Q859.252 1517.37 855.618 1517.37 M855.618 1513.66 Q861.428 1513.66 864.484 1518.27 Q867.563 1522.85 867.563 1531.6 Q867.563 1540.33 864.484 1544.94 Q861.428 1549.52 855.618 1549.52 Q849.808 1549.52 846.729 1544.94 Q843.674 1540.33 843.674 1531.6 Q843.674 1522.85 846.729 1518.27 Q849.808 1513.66 855.618 1513.66 Z" fill="#000000" fill-rule="nonzero" fill-opacity="1" /><path clip-path="url(#clip920)" d="M1274.71 1514.29 L1293.07 1514.29 L1293.07 1518.22 L1278.99 1518.22 L1278.99 1526.7 Q1280.01 1526.35 1281.03 1526.19 Q1282.05 1526 1283.07 1526 Q1288.86 1526 1292.23 1529.17 Q1295.61 1532.34 1295.61 1537.76 Q1295.61 1543.34 1292.14 1546.44 Q1288.67 1549.52 1282.35 1549.52 Q1280.17 1549.52 1277.91 1549.15 Q1275.66 1548.78 1273.25 1548.04 L1273.25 1543.34 Q1275.34 1544.47 1277.56 1545.03 Q1279.78 1545.58 1282.26 1545.58 Q1286.26 1545.58 1288.6 1543.48 Q1290.94 1541.37 1290.94 1537.76 Q1290.94 1534.15 1288.6 1532.04 Q1286.26 1529.94 1282.26 1529.94 Q1280.38 1529.94 1278.51 1530.35 Q1276.66 1530.77 1274.71 1531.65 L1274.71 1514.29 Z" fill="#000000" fill-rule="nonzero" fill-opacity="1" /><path clip-path="url(#clip920)" d="M1314.83 1517.37 Q1311.22 1517.37 1309.39 1520.93 Q1307.58 1524.47 1307.58 1531.6 Q1307.58 1538.71 1309.39 1542.27 Q1311.22 1545.82 1314.83 1545.82 Q1318.46 1545.82 1320.27 1542.27 Q1322.1 1538.71 1322.1 1531.6 Q1322.1 1524.47 1320.27 1520.93 Q1318.46 1517.37 1314.83 1517.37 M1314.83 1513.66 Q1320.64 1513.66 1323.69 1518.27 Q1326.77 1522.85 1326.77 1531.6 Q1326.77 1540.33 1323.69 1544.94 Q1320.64 1549.52 1314.83 1549.52 Q1309.02 1549.52 1305.94 1544.94 Q1302.88 1540.33 1302.88 1531.6 Q1302.88 1522.85 1305.94 1518.27 Q1309.02 1513.66 1314.83 1513.66 Z" fill="#000000" fill-rule="nonzero" fill-opacity="1" /><path clip-path="url(#clip920)" d="M1344.99 1517.37 Q1341.38 1517.37 1339.55 1520.93 Q1337.74 1524.47 1337.74 1531.6 Q1337.74 1538.71 1339.55 1542.27 Q1341.38 1545.82 1344.99 1545.82 Q1348.62 1545.82 1350.43 1542.27 Q1352.26 1538.71 1352.26 1531.6 Q1352.26 1524.47 1350.43 1520.93 Q1348.62 1517.37 1344.99 1517.37 M1344.99 1513.66 Q1350.8 1513.66 1353.85 1518.27 Q1356.93 1522.85 1356.93 1531.6 Q1356.93 1540.33 1353.85 1544.94 Q1350.8 1549.52 1344.99 1549.52 Q1339.18 1549.52 1336.1 1544.94 Q1333.04 1540.33 1333.04 1531.6 Q1333.04 1522.85 1336.1 1518.27 Q1339.18 1513.66 1344.99 1513.66 Z" fill="#000000" fill-rule="nonzero" fill-opacity="1" /><path clip-path="url(#clip920)" d="M1762.83 1514.29 L1785.05 1514.29 L1785.05 1516.28 L1772.51 1548.85 L1767.62 1548.85 L1779.43 1518.22 L1762.83 1518.22 L1762.83 1514.29 Z" fill="#000000" fill-rule="nonzero" fill-opacity="1" /><path clip-path="url(#clip920)" d="M1794.22 1514.29 L1812.58 1514.29 L1812.58 1518.22 L1798.5 1518.22 L1798.5 1526.7 Q1799.52 1526.35 1800.54 1526.19 Q1801.56 1526 1802.58 1526 Q1808.36 1526 1811.74 1529.17 Q1815.12 1532.34 1815.12 1537.76 Q1815.12 1543.34 1811.65 1546.44 Q1808.18 1549.52 1801.86 1549.52 Q1799.68 1549.52 1797.42 1549.15 Q1795.17 1548.78 1792.76 1548.04 L1792.76 1543.34 Q1794.85 1544.47 1797.07 1545.03 Q1799.29 1545.58 1801.77 1545.58 Q1805.77 1545.58 1808.11 1543.48 Q1810.45 1541.37 1810.45 1537.76 Q1810.45 1534.15 1808.11 1532.04 Q1805.77 1529.94 1801.77 1529.94 Q1799.89 1529.94 1798.02 1530.35 Q1796.17 1530.77 1794.22 1531.65 L1794.22 1514.29 Z" fill="#000000" fill-rule="nonzero" fill-opacity="1" /><path clip-path="url(#clip920)" d="M1834.34 1517.37 Q1830.73 1517.37 1828.9 1520.93 Q1827.09 1524.47 1827.09 1531.6 Q1827.09 1538.71 1828.9 1542.27 Q1830.73 1545.82 1834.34 1545.82 Q1837.97 1545.82 1839.78 1542.27 Q1841.61 1538.71 1841.61 1531.6 Q1841.61 1524.47 1839.78 1520.93 Q1837.97 1517.37 1834.34 1517.37 M1834.34 1513.66 Q1840.15 1513.66 1843.2 1518.27 Q1846.28 1522.85 1846.28 1531.6 Q1846.28 1540.33 1843.2 1544.94 Q1840.15 1549.52 1834.34 1549.52 Q1828.53 1549.52 1825.45 1544.94 Q1822.39 1540.33 1822.39 1531.6 Q1822.39 1522.85 1825.45 1518.27 Q1828.53 1513.66 1834.34 1513.66 Z" fill="#000000" fill-rule="nonzero" fill-opacity="1" /><path clip-path="url(#clip920)" d="M2238.55 1544.91 L2246.18 1544.91 L2246.18 1518.55 L2237.87 1520.21 L2237.87 1515.95 L2246.14 1514.29 L2250.81 1514.29 L2250.81 1544.91 L2258.45 1544.91 L2258.45 1548.85 L2238.55 1548.85 L2238.55 1544.91 Z" fill="#000000" fill-rule="nonzero" fill-opacity="1" /><path clip-path="url(#clip920)" d="M2277.9 1517.37 Q2274.29 1517.37 2272.46 1520.93 Q2270.65 1524.47 2270.65 1531.6 Q2270.65 1538.71 2272.46 1542.27 Q2274.29 1545.82 2277.9 1545.82 Q2281.53 1545.82 2283.34 1542.27 Q2285.17 1538.71 2285.17 1531.6 Q2285.17 1524.47 2283.34 1520.93 Q2281.53 1517.37 2277.9 1517.37 M2277.9 1513.66 Q2283.71 1513.66 2286.76 1518.27 Q2289.84 1522.85 2289.84 1531.6 Q2289.84 1540.33 2286.76 1544.94 Q2283.71 1549.52 2277.9 1549.52 Q2272.09 1549.52 2269.01 1544.94 Q2265.95 1540.33 2265.95 1531.6 Q2265.95 1522.85 2269.01 1518.27 Q2272.09 1513.66 2277.9 1513.66 Z" fill="#000000" fill-rule="nonzero" fill-opacity="1" /><path clip-path="url(#clip920)" d="M2308.06 1517.37 Q2304.45 1517.37 2302.62 1520.93 Q2300.81 1524.47 2300.81 1531.6 Q2300.81 1538.71 2302.62 1542.27 Q2304.45 1545.82 2308.06 1545.82 Q2311.69 1545.82 2313.5 1542.27 Q2315.33 1538.71 2315.33 1531.6 Q2315.33 1524.47 2313.5 1520.93 Q2311.69 1517.37 2308.06 1517.37 M2308.06 1513.66 Q2313.87 1513.66 2316.93 1518.27 Q2320 1522.85 2320 1531.6 Q2320 1540.33 2316.93 1544.94 Q2313.87 1549.52 2308.06 1549.52 Q2302.25 1549.52 2299.17 1544.94 Q2296.12 1540.33 2296.12 1531.6 Q2296.12 1522.85 2299.17 1518.27 Q2302.25 1513.66 2308.06 1513.66 Z" fill="#000000" fill-rule="nonzero" fill-opacity="1" /><path clip-path="url(#clip920)" d="M2338.22 1517.37 Q2334.61 1517.37 2332.78 1520.93 Q2330.98 1524.47 2330.98 1531.6 Q2330.98 1538.71 2332.78 1542.27 Q2334.61 1545.82 2338.22 1545.82 Q2341.86 1545.82 2343.66 1542.27 Q2345.49 1538.71 2345.49 1531.6 Q2345.49 1524.47 2343.66 1520.93 Q2341.86 1517.37 2338.22 1517.37 M2338.22 1513.66 Q2344.03 1513.66 2347.09 1518.27 Q2350.17 1522.85 2350.17 1531.6 Q2350.17 1540.33 2347.09 1544.94 Q2344.03 1549.52 2338.22 1549.52 Q2332.41 1549.52 2329.33 1544.94 Q2326.28 1540.33 2326.28 1531.6 Q2326.28 1522.85 2329.33 1518.27 Q2332.41 1513.66 2338.22 1513.66 Z" fill="#000000" fill-rule="nonzero" fill-opacity="1" /><polyline clip-path="url(#clip922)" style="stroke:#000000; stroke-linecap:round; stroke-linejoin:round; stroke-width:2; stroke-opacity:0.1; fill:none" points="277.431,1479.19 2352.76,1479.19 "/>
<polyline clip-path="url(#clip922)" style="stroke:#000000; stroke-linecap:round; stroke-linejoin:round; stroke-width:2; stroke-opacity:0.1; fill:none" points="277.431,1152.26 2352.76,1152.26 "/>
<polyline clip-path="url(#clip922)" style="stroke:#000000; stroke-linecap:round; stroke-linejoin:round; stroke-width:2; stroke-opacity:0.1; fill:none" points="277.431,825.32 2352.76,825.32 "/>
<polyline clip-path="url(#clip922)" style="stroke:#000000; stroke-linecap:round; stroke-linejoin:round; stroke-width:2; stroke-opacity:0.1; fill:none" points="277.431,498.384 2352.76,498.384 "/>
<polyline clip-path="url(#clip922)" style="stroke:#000000; stroke-linecap:round; stroke-linejoin:round; stroke-width:2; stroke-opacity:0.1; fill:none" points="277.431,171.448 2352.76,171.448 "/>
<polyline clip-path="url(#clip920)" style="stroke:#000000; stroke-linecap:round; stroke-linejoin:round; stroke-width:4; stroke-opacity:1; fill:none" points="277.431,1486.45 277.431,47.2441 "/>
<polyline clip-path="url(#clip920)" style="stroke:#000000; stroke-linecap:round; stroke-linejoin:round; stroke-width:4; stroke-opacity:1; fill:none" points="277.431,1479.19 296.329,1479.19 "/>
<polyline clip-path="url(#clip920)" style="stroke:#000000; stroke-linecap:round; stroke-linejoin:round; stroke-width:4; stroke-opacity:1; fill:none" points="277.431,1152.26 296.329,1152.26 "/>
<polyline clip-path="url(#clip920)" style="stroke:#000000; stroke-linecap:round; stroke-linejoin:round; stroke-width:4; stroke-opacity:1; fill:none" points="277.431,825.32 296.329,825.32 "/>
<polyline clip-path="url(#clip920)" style="stroke:#000000; stroke-linecap:round; stroke-linejoin:round; stroke-width:4; stroke-opacity:1; fill:none" points="277.431,498.384 296.329,498.384 "/>
<polyline clip-path="url(#clip920)" style="stroke:#000000; stroke-linecap:round; stroke-linejoin:round; stroke-width:4; stroke-opacity:1; fill:none" points="277.431,171.448 296.329,171.448 "/>
<path clip-path="url(#clip920)" d="M54.5569 1498.98 L62.1958 1498.98 L62.1958 1472.62 L53.8856 1474.28 L53.8856 1470.03 L62.1495 1468.36 L66.8254 1468.36 L66.8254 1498.98 L74.4642 1498.98 L74.4642 1502.92 L54.5569 1502.92 L54.5569 1498.98 Z" fill="#000000" fill-rule="nonzero" fill-opacity="1" /><path clip-path="url(#clip920)" d="M83.9086 1497.04 L88.7928 1497.04 L88.7928 1502.92 L83.9086 1502.92 L83.9086 1497.04 Z" fill="#000000" fill-rule="nonzero" fill-opacity="1" /><path clip-path="url(#clip920)" d="M108.978 1471.44 Q105.367 1471.44 103.538 1475 Q101.733 1478.54 101.733 1485.67 Q101.733 1492.78 103.538 1496.34 Q105.367 1499.89 108.978 1499.89 Q112.612 1499.89 114.418 1496.34 Q116.246 1492.78 116.246 1485.67 Q116.246 1478.54 114.418 1475 Q112.612 1471.44 108.978 1471.44 M108.978 1467.73 Q114.788 1467.73 117.844 1472.34 Q120.922 1476.92 120.922 1485.67 Q120.922 1494.4 117.844 1499.01 Q114.788 1503.59 108.978 1503.59 Q103.168 1503.59 100.089 1499.01 Q97.0335 1494.4 97.0335 1485.67 Q97.0335 1476.92 100.089 1472.34 Q103.168 1467.73 108.978 1467.73 Z" fill="#000000" fill-rule="nonzero" fill-opacity="1" /><path clip-path="url(#clip920)" d="M157.311 1477.46 L146.732 1488.08 L157.311 1498.66 L154.556 1501.46 L143.931 1490.84 L133.306 1501.46 L130.575 1498.66 L141.131 1488.08 L130.575 1477.46 L133.306 1474.66 L143.931 1485.28 L154.556 1474.66 L157.311 1477.46 Z" fill="#000000" fill-rule="nonzero" fill-opacity="1" /><path clip-path="url(#clip920)" d="M169.672 1498.98 L177.311 1498.98 L177.311 1472.62 L169.001 1474.28 L169.001 1470.03 L177.265 1468.36 L181.94 1468.36 L181.94 1498.98 L189.579 1498.98 L189.579 1502.92 L169.672 1502.92 L169.672 1498.98 Z" fill="#000000" fill-rule="nonzero" fill-opacity="1" /><path clip-path="url(#clip920)" d="M209.024 1471.44 Q205.413 1471.44 203.584 1475 Q201.778 1478.54 201.778 1485.67 Q201.778 1492.78 203.584 1496.34 Q205.413 1499.89 209.024 1499.89 Q212.658 1499.89 214.463 1496.34 Q216.292 1492.78 216.292 1485.67 Q216.292 1478.54 214.463 1475 Q212.658 1471.44 209.024 1471.44 M209.024 1467.73 Q214.834 1467.73 217.889 1472.34 Q220.968 1476.92 220.968 1485.67 Q220.968 1494.4 217.889 1499.01 Q214.834 1503.59 209.024 1503.59 Q203.214 1503.59 200.135 1499.01 Q197.079 1494.4 197.079 1485.67 Q197.079 1476.92 200.135 1472.34 Q203.214 1467.73 209.024 1467.73 Z" fill="#000000" fill-rule="nonzero" fill-opacity="1" /><path clip-path="url(#clip920)" d="M233.645 1450.74 L224.053 1465.73 L233.645 1465.73 L233.645 1450.74 M232.648 1447.43 L237.425 1447.43 L237.425 1465.73 L241.431 1465.73 L241.431 1468.89 L237.425 1468.89 L237.425 1475.51 L233.645 1475.51 L233.645 1468.89 L220.968 1468.89 L220.968 1465.22 L232.648 1447.43 Z" fill="#000000" fill-rule="nonzero" fill-opacity="1" /><path clip-path="url(#clip920)" d="M57.7745 1172.05 L74.0939 1172.05 L74.0939 1175.98 L52.1495 1175.98 L52.1495 1172.05 Q54.8115 1169.29 59.3949 1164.66 Q64.0013 1160.01 65.1819 1158.67 Q67.4272 1156.15 68.3068 1154.41 Q69.2096 1152.65 69.2096 1150.96 Q69.2096 1148.21 67.2652 1146.47 Q65.3439 1144.73 62.2421 1144.73 Q60.043 1144.73 57.5893 1145.5 Q55.1588 1146.26 52.381 1147.81 L52.381 1143.09 Q55.2051 1141.96 57.6588 1141.38 Q60.1124 1140.8 62.1495 1140.8 Q67.5198 1140.8 70.7142 1143.48 Q73.9087 1146.17 73.9087 1150.66 Q73.9087 1152.79 73.0985 1154.71 Q72.3115 1156.61 70.205 1159.2 Q69.6263 1159.87 66.5245 1163.09 Q63.4226 1166.28 57.7745 1172.05 Z" fill="#000000" fill-rule="nonzero" fill-opacity="1" /><path clip-path="url(#clip920)" d="M83.9086 1170.1 L88.7928 1170.1 L88.7928 1175.98 L83.9086 1175.98 L83.9086 1170.1 Z" fill="#000000" fill-rule="nonzero" fill-opacity="1" /><path clip-path="url(#clip920)" d="M108.978 1144.5 Q105.367 1144.5 103.538 1148.07 Q101.733 1151.61 101.733 1158.74 Q101.733 1165.84 103.538 1169.41 Q105.367 1172.95 108.978 1172.95 Q112.612 1172.95 114.418 1169.41 Q116.246 1165.84 116.246 1158.74 Q116.246 1151.61 114.418 1148.07 Q112.612 1144.5 108.978 1144.5 M108.978 1140.8 Q114.788 1140.8 117.844 1145.4 Q120.922 1149.99 120.922 1158.74 Q120.922 1167.46 117.844 1172.07 Q114.788 1176.65 108.978 1176.65 Q103.168 1176.65 100.089 1172.07 Q97.0335 1167.46 97.0335 1158.74 Q97.0335 1149.99 100.089 1145.4 Q103.168 1140.8 108.978 1140.8 Z" fill="#000000" fill-rule="nonzero" fill-opacity="1" /><path clip-path="url(#clip920)" d="M157.311 1150.52 L146.732 1161.15 L157.311 1171.72 L154.556 1174.52 L143.931 1163.9 L133.306 1174.52 L130.575 1171.72 L141.131 1161.15 L130.575 1150.52 L133.306 1147.72 L143.931 1158.34 L154.556 1147.72 L157.311 1150.52 Z" fill="#000000" fill-rule="nonzero" fill-opacity="1" /><path clip-path="url(#clip920)" d="M169.672 1172.05 L177.311 1172.05 L177.311 1145.68 L169.001 1147.35 L169.001 1143.09 L177.265 1141.42 L181.94 1141.42 L181.94 1172.05 L189.579 1172.05 L189.579 1175.98 L169.672 1175.98 L169.672 1172.05 Z" fill="#000000" fill-rule="nonzero" fill-opacity="1" /><path clip-path="url(#clip920)" d="M209.024 1144.5 Q205.413 1144.5 203.584 1148.07 Q201.778 1151.61 201.778 1158.74 Q201.778 1165.84 203.584 1169.41 Q205.413 1172.95 209.024 1172.95 Q212.658 1172.95 214.463 1169.41 Q216.292 1165.84 216.292 1158.74 Q216.292 1151.61 214.463 1148.07 Q212.658 1144.5 209.024 1144.5 M209.024 1140.8 Q214.834 1140.8 217.889 1145.4 Q220.968 1149.99 220.968 1158.74 Q220.968 1167.46 217.889 1172.07 Q214.834 1176.65 209.024 1176.65 Q203.214 1176.65 200.135 1172.07 Q197.079 1167.46 197.079 1158.74 Q197.079 1149.99 200.135 1145.4 Q203.214 1140.8 209.024 1140.8 Z" fill="#000000" fill-rule="nonzero" fill-opacity="1" /><path clip-path="url(#clip920)" d="M233.645 1123.8 L224.053 1138.79 L233.645 1138.79 L233.645 1123.8 M232.648 1120.49 L237.425 1120.49 L237.425 1138.79 L241.431 1138.79 L241.431 1141.95 L237.425 1141.95 L237.425 1148.57 L233.645 1148.57 L233.645 1141.95 L220.968 1141.95 L220.968 1138.28 L232.648 1120.49 Z" fill="#000000" fill-rule="nonzero" fill-opacity="1" /><path clip-path="url(#clip920)" d="M67.9133 830.413 Q71.2698 831.131 73.1448 833.399 Q75.0429 835.668 75.0429 839.001 Q75.0429 844.117 71.5244 846.918 Q68.0059 849.718 61.5245 849.718 Q59.3486 849.718 57.0338 849.279 Q54.7421 848.862 52.2884 848.005 L52.2884 843.492 Q54.2328 844.626 56.5477 845.205 Q58.8625 845.783 61.3856 845.783 Q65.7837 845.783 68.0754 844.047 Q70.3902 842.311 70.3902 839.001 Q70.3902 835.945 68.2374 834.232 Q66.1078 832.496 62.2884 832.496 L58.2606 832.496 L58.2606 828.654 L62.4735 828.654 Q65.9226 828.654 67.7513 827.288 Q69.58 825.899 69.58 823.307 Q69.58 820.645 67.6819 819.233 Q65.8069 817.797 62.2884 817.797 Q60.3671 817.797 58.168 818.214 Q55.969 818.631 53.3301 819.51 L53.3301 815.344 Q55.9921 814.603 58.3069 814.233 Q60.6449 813.862 62.705 813.862 Q68.0291 813.862 71.1309 816.293 Q74.2327 818.7 74.2327 822.82 Q74.2327 825.691 72.5892 827.682 Q70.9457 829.649 67.9133 830.413 Z" fill="#000000" fill-rule="nonzero" fill-opacity="1" /><path clip-path="url(#clip920)" d="M83.9086 843.168 L88.7928 843.168 L88.7928 849.047 L83.9086 849.047 L83.9086 843.168 Z" fill="#000000" fill-rule="nonzero" fill-opacity="1" /><path clip-path="url(#clip920)" d="M108.978 817.566 Q105.367 817.566 103.538 821.131 Q101.733 824.672 101.733 831.802 Q101.733 838.908 103.538 842.473 Q105.367 846.015 108.978 846.015 Q112.612 846.015 114.418 842.473 Q116.246 838.908 116.246 831.802 Q116.246 824.672 114.418 821.131 Q112.612 817.566 108.978 817.566 M108.978 813.862 Q114.788 813.862 117.844 818.469 Q120.922 823.052 120.922 831.802 Q120.922 840.529 117.844 845.135 Q114.788 849.718 108.978 849.718 Q103.168 849.718 100.089 845.135 Q97.0335 840.529 97.0335 831.802 Q97.0335 823.052 100.089 818.469 Q103.168 813.862 108.978 813.862 Z" fill="#000000" fill-rule="nonzero" fill-opacity="1" /><path clip-path="url(#clip920)" d="M157.311 823.584 L146.732 834.209 L157.311 844.788 L154.556 847.589 L143.931 836.964 L133.306 847.589 L130.575 844.788 L141.131 834.209 L130.575 823.584 L133.306 820.783 L143.931 831.408 L154.556 820.783 L157.311 823.584 Z" fill="#000000" fill-rule="nonzero" fill-opacity="1" /><path clip-path="url(#clip920)" d="M169.672 845.112 L177.311 845.112 L177.311 818.746 L169.001 820.413 L169.001 816.154 L177.265 814.487 L181.94 814.487 L181.94 845.112 L189.579 845.112 L189.579 849.047 L169.672 849.047 L169.672 845.112 Z" fill="#000000" fill-rule="nonzero" fill-opacity="1" /><path clip-path="url(#clip920)" d="M209.024 817.566 Q205.413 817.566 203.584 821.131 Q201.778 824.672 201.778 831.802 Q201.778 838.908 203.584 842.473 Q205.413 846.015 209.024 846.015 Q212.658 846.015 214.463 842.473 Q216.292 838.908 216.292 831.802 Q216.292 824.672 214.463 821.131 Q212.658 817.566 209.024 817.566 M209.024 813.862 Q214.834 813.862 217.889 818.469 Q220.968 823.052 220.968 831.802 Q220.968 840.529 217.889 845.135 Q214.834 849.718 209.024 849.718 Q203.214 849.718 200.135 845.135 Q197.079 840.529 197.079 831.802 Q197.079 823.052 200.135 818.469 Q203.214 813.862 209.024 813.862 Z" fill="#000000" fill-rule="nonzero" fill-opacity="1" /><path clip-path="url(#clip920)" d="M233.645 796.867 L224.053 811.857 L233.645 811.857 L233.645 796.867 M232.648 793.557 L237.425 793.557 L237.425 811.857 L241.431 811.857 L241.431 815.016 L237.425 815.016 L237.425 821.637 L233.645 821.637 L233.645 815.016 L220.968 815.016 L220.968 811.349 L232.648 793.557 Z" fill="#000000" fill-rule="nonzero" fill-opacity="1" /><path clip-path="url(#clip920)" d="M66.5939 491.625 L54.7884 510.074 L66.5939 510.074 L66.5939 491.625 M65.367 487.551 L71.2466 487.551 L71.2466 510.074 L76.1772 510.074 L76.1772 513.963 L71.2466 513.963 L71.2466 522.111 L66.5939 522.111 L66.5939 513.963 L50.9921 513.963 L50.9921 509.449 L65.367 487.551 Z" fill="#000000" fill-rule="nonzero" fill-opacity="1" /><path clip-path="url(#clip920)" d="M83.9086 516.232 L88.7928 516.232 L88.7928 522.111 L83.9086 522.111 L83.9086 516.232 Z" fill="#000000" fill-rule="nonzero" fill-opacity="1" /><path clip-path="url(#clip920)" d="M108.978 490.63 Q105.367 490.63 103.538 494.195 Q101.733 497.736 101.733 504.866 Q101.733 511.972 103.538 515.537 Q105.367 519.079 108.978 519.079 Q112.612 519.079 114.418 515.537 Q116.246 511.972 116.246 504.866 Q116.246 497.736 114.418 494.195 Q112.612 490.63 108.978 490.63 M108.978 486.926 Q114.788 486.926 117.844 491.533 Q120.922 496.116 120.922 504.866 Q120.922 513.593 117.844 518.199 Q114.788 522.783 108.978 522.783 Q103.168 522.783 100.089 518.199 Q97.0335 513.593 97.0335 504.866 Q97.0335 496.116 100.089 491.533 Q103.168 486.926 108.978 486.926 Z" fill="#000000" fill-rule="nonzero" fill-opacity="1" /><path clip-path="url(#clip920)" d="M157.311 496.648 L146.732 507.273 L157.311 517.852 L154.556 520.653 L143.931 510.028 L133.306 520.653 L130.575 517.852 L141.131 507.273 L130.575 496.648 L133.306 493.848 L143.931 504.472 L154.556 493.848 L157.311 496.648 Z" fill="#000000" fill-rule="nonzero" fill-opacity="1" /><path clip-path="url(#clip920)" d="M169.672 518.176 L177.311 518.176 L177.311 491.811 L169.001 493.477 L169.001 489.218 L177.265 487.551 L181.94 487.551 L181.94 518.176 L189.579 518.176 L189.579 522.111 L169.672 522.111 L169.672 518.176 Z" fill="#000000" fill-rule="nonzero" fill-opacity="1" /><path clip-path="url(#clip920)" d="M209.024 490.63 Q205.413 490.63 203.584 494.195 Q201.778 497.736 201.778 504.866 Q201.778 511.972 203.584 515.537 Q205.413 519.079 209.024 519.079 Q212.658 519.079 214.463 515.537 Q216.292 511.972 216.292 504.866 Q216.292 497.736 214.463 494.195 Q212.658 490.63 209.024 490.63 M209.024 486.926 Q214.834 486.926 217.889 491.533 Q220.968 496.116 220.968 504.866 Q220.968 513.593 217.889 518.199 Q214.834 522.783 209.024 522.783 Q203.214 522.783 200.135 518.199 Q197.079 513.593 197.079 504.866 Q197.079 496.116 200.135 491.533 Q203.214 486.926 209.024 486.926 Z" fill="#000000" fill-rule="nonzero" fill-opacity="1" /><path clip-path="url(#clip920)" d="M233.645 469.931 L224.053 484.921 L233.645 484.921 L233.645 469.931 M232.648 466.621 L237.425 466.621 L237.425 484.921 L241.431 484.921 L241.431 488.081 L237.425 488.081 L237.425 494.701 L233.645 494.701 L233.645 488.081 L220.968 488.081 L220.968 484.413 L232.648 466.621 Z" fill="#000000" fill-rule="nonzero" fill-opacity="1" /><path clip-path="url(#clip920)" d="M53.793 160.615 L72.1494 160.615 L72.1494 164.551 L58.0754 164.551 L58.0754 173.023 Q59.0939 172.676 60.1124 172.513 Q61.131 172.328 62.1495 172.328 Q67.9365 172.328 71.3161 175.5 Q74.6957 178.671 74.6957 184.087 Q74.6957 189.666 71.2235 192.768 Q67.7513 195.847 61.4319 195.847 Q59.256 195.847 56.9875 195.476 Q54.7421 195.106 52.3347 194.365 L52.3347 189.666 Q54.418 190.8 56.6402 191.356 Q58.8625 191.912 61.3393 191.912 Q65.3439 191.912 67.6819 189.805 Q70.0198 187.699 70.0198 184.087 Q70.0198 180.476 67.6819 178.37 Q65.3439 176.263 61.3393 176.263 Q59.4643 176.263 57.5893 176.68 Q55.7375 177.097 53.793 177.976 L53.793 160.615 Z" fill="#000000" fill-rule="nonzero" fill-opacity="1" /><path clip-path="url(#clip920)" d="M83.9086 189.296 L88.7928 189.296 L88.7928 195.175 L83.9086 195.175 L83.9086 189.296 Z" fill="#000000" fill-rule="nonzero" fill-opacity="1" /><path clip-path="url(#clip920)" d="M108.978 163.694 Q105.367 163.694 103.538 167.259 Q101.733 170.801 101.733 177.93 Q101.733 185.037 103.538 188.601 Q105.367 192.143 108.978 192.143 Q112.612 192.143 114.418 188.601 Q116.246 185.037 116.246 177.93 Q116.246 170.801 114.418 167.259 Q112.612 163.694 108.978 163.694 M108.978 159.99 Q114.788 159.99 117.844 164.597 Q120.922 169.18 120.922 177.93 Q120.922 186.657 117.844 191.263 Q114.788 195.847 108.978 195.847 Q103.168 195.847 100.089 191.263 Q97.0335 186.657 97.0335 177.93 Q97.0335 169.18 100.089 164.597 Q103.168 159.99 108.978 159.99 Z" fill="#000000" fill-rule="nonzero" fill-opacity="1" /><path clip-path="url(#clip920)" d="M157.311 169.713 L146.732 180.338 L157.311 190.916 L154.556 193.717 L143.931 183.092 L133.306 193.717 L130.575 190.916 L141.131 180.338 L130.575 169.713 L133.306 166.912 L143.931 177.537 L154.556 166.912 L157.311 169.713 Z" fill="#000000" fill-rule="nonzero" fill-opacity="1" /><path clip-path="url(#clip920)" d="M169.672 191.24 L177.311 191.24 L177.311 164.875 L169.001 166.541 L169.001 162.282 L177.265 160.615 L181.94 160.615 L181.94 191.24 L189.579 191.24 L189.579 195.175 L169.672 195.175 L169.672 191.24 Z" fill="#000000" fill-rule="nonzero" fill-opacity="1" /><path clip-path="url(#clip920)" d="M209.024 163.694 Q205.413 163.694 203.584 167.259 Q201.778 170.801 201.778 177.93 Q201.778 185.037 203.584 188.601 Q205.413 192.143 209.024 192.143 Q212.658 192.143 214.463 188.601 Q216.292 185.037 216.292 177.93 Q216.292 170.801 214.463 167.259 Q212.658 163.694 209.024 163.694 M209.024 159.99 Q214.834 159.99 217.889 164.597 Q220.968 169.18 220.968 177.93 Q220.968 186.657 217.889 191.263 Q214.834 195.847 209.024 195.847 Q203.214 195.847 200.135 191.263 Q197.079 186.657 197.079 177.93 Q197.079 169.18 200.135 164.597 Q203.214 159.99 209.024 159.99 Z" fill="#000000" fill-rule="nonzero" fill-opacity="1" /><path clip-path="url(#clip920)" d="M233.645 142.995 L224.053 157.985 L233.645 157.985 L233.645 142.995 M232.648 139.685 L237.425 139.685 L237.425 157.985 L241.431 157.985 L241.431 161.145 L237.425 161.145 L237.425 167.765 L233.645 167.765 L233.645 161.145 L220.968 161.145 L220.968 157.477 L232.648 139.685 Z" fill="#000000" fill-rule="nonzero" fill-opacity="1" /><polyline clip-path="url(#clip922)" style="stroke:#009af9; stroke-linecap:round; stroke-linejoin:round; stroke-width:4; stroke-opacity:1; fill:none" points="336.167,309.01 338.124,308.976 340.082,308.899 342.04,308.726 343.998,308.34 345.956,307.477 347.914,305.582 349.872,301.455 351.829,293.033 353.787,276.943 355.745,252.558 357.703,222.418 359.661,201.563 361.619,182.5 363.576,171.525 365.534,146.779 367.492,127.688 369.45,103.08 371.408,97.2637 373.366,87.9763 375.324,1409.15 377.281,1409.15 379.239,1409.15 381.197,1409.15 383.155,1409.15 385.113,1409.15 387.071,1409.15 389.029,1409.15 390.986,1409.15 392.944,1409.15 394.902,1409.15 396.86,1409.15 398.818,1409.15 400.776,1409.15 402.734,1409.15 404.691,1409.15 406.649,1409.15 408.607,1409.15 410.565,1409.15 412.523,1409.15 414.481,1411.65 416.439,1411.66 418.396,1411.67 420.354,1411.67 422.312,1411.67 424.27,1411.67 426.228,1411.67 428.186,1411.67 430.144,1411.67 432.101,1411.67 434.059,1411.67 436.017,1411.67 437.975,1411.67 439.933,1411.67 441.891,1411.67 443.848,1411.67 445.806,1411.67 447.764,1411.67 449.722,1411.67 451.68,1411.67 453.638,1423.32 455.596,1423.35 457.553,1423.36 459.511,1423.36 461.469,1423.36 463.427,1423.36 465.385,1423.36 467.343,1423.36 469.301,1423.36 471.258,1423.36 473.216,1423.36 475.174,1423.36 477.132,1423.36 479.09,1423.36 481.048,1423.36 483.006,1423.36 484.963,1423.36 486.921,1423.36 488.879,1423.36 490.837,1423.36 492.795,1418.45 494.753,1418.47 496.711,1418.48 498.668,1418.48 500.626,1418.48 502.584,1418.48 504.542,1418.48 506.5,1418.49 508.458,1418.49 510.416,1418.49 512.373,1418.49 514.331,1418.49 516.289,1418.49 518.247,1418.49 520.205,1418.49 522.163,1418.49 524.12,1418.49 526.078,1418.49 528.036,1418.49 529.994,1418.49 531.952,1421.53 533.91,1421.54 535.868,1421.54 537.825,1421.54 539.783,1421.54 541.741,1421.54 543.699,1421.54 545.657,1421.54 547.615,1421.54 549.573,1421.54 551.53,1421.54 553.488,1421.54 555.446,1421.54 557.404,1421.54 559.362,1421.54 561.32,1421.54 563.278,1421.54 565.235,1421.54 567.193,1421.54 569.151,1421.54 571.109,1418.63 573.067,1418.68 575.025,1418.69 576.983,1418.69 578.94,1418.7 580.898,1418.7 582.856,1418.7 584.814,1418.7 586.772,1418.7 588.73,1418.7 590.688,1418.7 592.645,1418.7 594.603,1418.7 596.561,1418.7 598.519,1418.7 600.477,1418.7 602.435,1418.7 604.392,1418.7 606.35,1418.7 608.308,1418.7 610.266,1423.61 612.224,1423.62 614.182,1423.62 616.14,1423.62 618.097,1423.62 620.055,1423.62 622.013,1423.62 623.971,1423.62 625.929,1423.62 627.887,1423.62 629.845,1423.62 631.802,1423.62 633.76,1423.62 635.718,1423.62 637.676,1423.62 639.634,1423.62 641.592,1423.62 643.55,1423.62 645.507,1423.62 647.465,1423.62 649.423,1417.69 651.381,1417.71 653.339,1417.72 655.297,1417.73 657.255,1417.73 659.212,1417.73 661.17,1417.73 663.128,1417.73 665.086,1417.73 667.044,1417.73 669.002,1417.73 670.96,1417.73 672.917,1417.73 674.875,1417.73 676.833,1417.73 678.791,1417.73 680.749,1417.73 682.707,1417.73 684.665,1417.73 686.622,1417.73 688.58,1406.16 690.538,1406.19 692.496,1406.19 694.454,1406.2 696.412,1406.2 698.369,1406.2 700.327,1406.2 702.285,1406.2 704.243,1406.2 706.201,1406.2 708.159,1406.2 710.117,1406.2 712.074,1406.2 714.032,1406.2 715.99,1406.2 717.948,1406.2 719.906,1406.2 721.864,1406.2 723.822,1406.2 725.779,1406.2 727.737,1409.14 729.695,1409.16 731.653,1409.17 733.611,1409.17 735.569,1409.17 737.527,1409.17 739.484,1409.17 741.442,1409.17 743.4,1409.17 745.358,1409.17 747.316,1409.17 749.274,1409.17 751.232,1409.17 753.189,1409.17 755.147,1409.17 757.105,1409.17 759.063,1409.17 761.021,1409.17 762.979,1409.17 764.937,1409.17 766.894,1415.9 768.852,1415.9 770.81,1415.9 772.768,1415.9 774.726,1415.9 776.684,1415.9 778.641,1415.9 780.599,1415.9 782.557,1415.9 784.515,1415.9 786.473,1415.9 788.431,1415.9 790.389,1415.9 792.346,1415.9 794.304,1415.9 796.262,1415.9 798.22,1415.9 800.178,1415.9 802.136,1415.9 804.094,1415.9 806.051,1407.65 808.009,1407.68 809.967,1407.7 811.925,1407.7 813.883,1407.7 815.841,1407.7 817.799,1407.7 819.756,1407.7 821.714,1407.7 823.672,1407.7 825.63,1407.7 827.588,1407.7 829.546,1407.7 831.504,1407.7 833.461,1407.7 835.419,1407.7 837.377,1407.7 839.335,1407.7 841.293,1407.7 843.251,1407.7 845.209,1411.09 847.166,1411.09 849.124,1411.09 851.082,1411.09 853.04,1411.09 854.998,1411.09 856.956,1411.09 858.913,1411.09 860.871,1411.09 862.829,1411.09 864.787,1411.09 866.745,1411.09 868.703,1411.09 870.661,1411.09 872.618,1411.09 874.576,1411.09 876.534,1411.09 878.492,1411.09 880.45,1411.09 882.408,1411.09 884.366,1428.12 886.323,1428.17 888.281,1428.18 890.239,1428.18 892.197,1428.18 894.155,1428.18 896.113,1428.18 898.071,1428.18 900.028,1428.18 901.986,1428.18 903.944,1428.18 905.902,1428.18 907.86,1428.18 909.818,1428.18 911.776,1428.18 913.733,1428.18 915.691,1428.18 917.649,1428.18 919.607,1428.18 921.565,1428.18 923.523,1404.08 925.481,1404.19 927.438,1404.2 929.396,1404.2 931.354,1404.2 933.312,1404.2 935.27,1404.2 937.228,1404.2 939.185,1404.2 941.143,1404.2 943.101,1404.2 945.059,1404.2 947.017,1404.2 948.975,1404.2 950.933,1404.2 952.89,1404.2 954.848,1404.2 956.806,1404.2 958.764,1404.2 960.722,1404.2 962.68,1396.6 964.638,1396.63 966.595,1396.63 968.553,1396.64 970.511,1396.64 972.469,1396.64 974.427,1396.64 976.385,1396.64 978.343,1396.64 980.3,1396.64 982.258,1396.64 984.216,1396.64 986.174,1396.64 988.132,1396.64 990.09,1396.64 992.048,1396.64 994.005,1396.64 995.963,1396.64 997.921,1396.64 999.879,1396.64 1001.84,1395.23 1003.79,1395.29 1005.75,1395.31 1007.71,1395.32 1009.67,1395.32 1011.63,1395.32 1013.58,1395.32 1015.54,1395.32 1017.5,1395.32 1019.46,1395.32 1021.42,1395.32 1023.37,1395.32 1025.33,1395.32 1027.29,1395.32 1029.25,1395.32 1031.2,1395.32 1033.16,1395.32 1035.12,1395.32 1037.08,1395.32 1039.04,1395.32 1040.99,1394.77 1042.95,1394.78 1044.91,1394.78 1046.87,1394.78 1048.83,1394.78 1050.78,1394.78 1052.74,1394.78 1054.7,1394.78 1056.66,1394.78 1058.61,1394.78 1060.57,1394.78 1062.53,1394.78 1064.49,1394.78 1066.45,1394.78 1068.4,1394.78 1070.36,1394.78 1072.32,1394.78 1074.28,1394.78 1076.24,1394.78 1078.19,1394.78 1080.15,1392.69 1082.11,1392.71 1084.07,1392.71 1086.02,1392.72 1087.98,1392.72 1089.94,1392.72 1091.9,1392.72 1093.86,1392.72 1095.81,1392.72 1097.77,1392.72 1099.73,1392.72 1101.69,1392.72 1103.65,1392.72 1105.6,1392.72 1107.56,1392.72 1109.52,1392.72 1111.48,1392.72 1113.43,1392.72 1115.39,1392.72 1117.35,1392.72 1119.31,1401.05 1121.27,1401.07 1123.22,1401.07 1125.18,1401.07 1127.14,1401.07 1129.1,1401.07 1131.06,1401.07 1133.01,1401.07 1134.97,1401.07 1136.93,1401.07 1138.89,1401.07 1140.84,1401.07 1142.8,1401.07 1144.76,1401.07 1146.72,1401.07 1148.68,1401.07 1150.63,1401.07 1152.59,1401.07 1154.55,1401.07 1156.51,1401.07 1158.47,1398.83 1160.42,1398.85 1162.38,1398.86 1164.34,1398.86 1166.3,1398.86 1168.25,1398.86 1170.21,1398.87 1172.17,1398.87 1174.13,1398.87 1176.09,1398.87 1178.04,1398.87 1180,1398.87 1181.96,1398.87 1183.92,1398.87 1185.88,1398.87 1187.83,1398.87 1189.79,1398.87 1191.75,1398.87 1193.71,1398.87 1195.66,1398.87 1197.62,1409.09 1199.58,1409.12 1201.54,1409.13 1203.5,1409.14 1205.45,1409.14 1207.41,1409.14 1209.37,1409.14 1211.33,1409.14 1213.29,1409.14 1215.24,1409.14 1217.2,1409.14 1219.16,1409.14 1221.12,1409.14 1223.07,1409.14 1225.03,1409.14 1226.99,1409.14 1228.95,1409.14 1230.91,1409.14 1232.86,1409.14 1234.82,1409.14 1236.78,1411.71 1238.74,1411.73 1240.69,1411.74 1242.65,1411.74 1244.61,1411.75 1246.57,1411.75 1248.53,1411.75 1250.48,1411.75 1252.44,1411.75 1254.4,1411.75 1256.36,1411.75 1258.32,1411.75 1260.27,1411.75 1262.23,1411.75 1264.19,1411.75 1266.15,1411.75 1268.1,1411.75 1270.06,1411.75 1272.02,1411.75 1273.98,1411.75 1275.94,1422.3 1277.89,1422.33 1279.85,1422.33 1281.81,1422.33 1283.77,1422.33 1285.73,1422.33 1287.68,1422.33 1289.64,1422.33 1291.6,1422.33 1293.56,1422.33 1295.51,1422.33 1297.47,1422.33 1299.43,1422.33 1301.39,1422.33 1303.35,1422.33 1305.3,1422.33 1307.26,1422.33 1309.22,1422.33 1311.18,1422.33 1313.14,1422.33 1315.09,1427.7 1317.05,1427.71 1319.01,1427.71 1320.97,1427.71 1322.92,1427.71 1324.88,1427.71 1326.84,1427.71 1328.8,1427.71 1330.76,1427.71 1332.71,1427.71 1334.67,1427.71 1336.63,1427.71 1338.59,1427.71 1340.55,1427.71 1342.5,1427.71 1344.46,1427.71 1346.42,1427.71 1348.38,1427.71 1350.33,1427.71 1352.29,1427.71 1354.25,1439.49 1356.21,1439.52 1358.17,1439.53 1360.12,1439.53 1362.08,1439.54 1364.04,1439.54 1366,1439.54 1367.96,1439.54 1369.91,1439.54 1371.87,1439.54 1373.83,1439.54 1375.79,1439.54 1377.74,1439.54 1379.7,1439.54 1381.66,1439.54 1383.62,1439.54 1385.58,1439.54 1387.53,1439.54 1389.49,1439.54 1391.45,1439.54 1393.41,1441.05 1395.37,1441.09 1397.32,1441.11 1399.28,1441.13 1401.24,1441.13 1403.2,1441.14 1405.15,1441.14 1407.11,1441.14 1409.07,1441.14 1411.03,1441.14 1412.99,1441.14 1414.94,1441.14 1416.9,1441.14 1418.86,1441.14 1420.82,1441.14 1422.78,1441.14 1424.73,1441.14 1426.69,1441.14 1428.65,1441.14 1430.61,1441.14 1432.56,1445.68 1434.52,1445.7 1436.48,1445.7 1438.44,1445.71 1440.4,1445.71 1442.35,1445.71 1444.31,1445.71 1446.27,1445.71 1448.23,1445.72 1450.19,1445.72 1452.14,1445.72 1454.1,1445.72 1456.06,1445.72 1458.02,1445.72 1459.97,1445.72 1461.93,1445.72 1463.89,1445.72 1465.85,1445.72 1467.81,1445.72 1469.76,1445.72 1471.72,1442.89 1473.68,1442.89 1475.64,1442.89 1477.6,1442.89 1479.55,1442.89 1481.51,1442.89 1483.47,1442.89 1485.43,1442.89 1487.38,1442.89 1489.34,1442.89 1491.3,1442.89 1493.26,1442.89 1495.22,1442.89 1497.17,1442.89 1499.13,1442.89 1501.09,1442.89 1503.05,1442.89 1505.01,1442.89 1506.96,1442.89 1508.92,1442.89 1510.88,1445.64 1512.84,1445.64 1514.79,1445.64 1516.75,1445.64 1518.71,1445.64 1520.67,1445.64 1522.63,1445.64 1524.58,1445.64 1526.54,1445.64 1528.5,1445.64 1530.46,1445.64 1532.42,1445.64 1534.37,1445.64 1536.33,1445.64 1538.29,1445.64 1540.25,1445.64 1542.2,1445.64 1544.16,1445.64 1546.12,1445.64 1548.08,1445.64 1550.04,1438.7 1551.99,1438.71 1553.95,1438.72 1555.91,1438.72 1557.87,1438.72 1559.83,1438.72 1561.78,1438.72 1563.74,1438.72 1565.7,1438.72 1567.66,1438.72 1569.61,1438.72 1571.57,1438.72 1573.53,1438.72 1575.49,1438.72 1577.45,1438.72 1579.4,1438.72 1581.36,1438.72 1583.32,1438.72 1585.28,1438.72 1587.24,1438.72 1589.19,1437.28 1591.15,1437.28 1593.11,1437.28 1595.07,1437.28 1597.02,1437.28 1598.98,1437.28 1600.94,1437.28 1602.9,1437.28 1604.86,1437.28 1606.81,1437.28 1608.77,1437.28 1610.73,1437.28 1612.69,1437.28 1614.65,1437.28 1616.6,1437.28 1618.56,1437.28 1620.52,1437.28 1622.48,1437.28 1624.43,1437.28 1626.39,1437.28 1628.35,1442.15 1630.31,1442.16 1632.27,1442.16 1634.22,1442.16 1636.18,1442.16 1638.14,1442.16 1640.1,1442.16 1642.05,1442.16 1644.01,1442.16 1645.97,1442.16 1647.93,1442.16 1649.89,1442.16 1651.84,1442.16 1653.8,1442.16 1655.76,1442.16 1657.72,1442.16 1659.68,1442.16 1661.63,1442.16 1663.59,1442.16 1665.55,1442.16 1667.51,1435.93 1669.46,1435.98 1671.42,1435.99 1673.38,1435.99 1675.34,1435.99 1677.3,1435.99 1679.25,1436 1681.21,1436 1683.17,1436 1685.13,1436 1687.09,1436 1689.04,1436 1691,1436 1692.96,1436 1694.92,1436 1696.87,1436 1698.83,1436 1700.79,1436 1702.75,1436 1704.71,1436 1706.66,1438.85 1708.62,1438.85 1710.58,1438.85 1712.54,1438.85 1714.5,1438.85 1716.45,1438.85 1718.41,1438.85 1720.37,1438.85 1722.33,1438.85 1724.28,1438.85 1726.24,1438.85 1728.2,1438.85 1730.16,1438.85 1732.12,1438.85 1734.07,1438.85 1736.03,1438.85 1737.99,1438.85 1739.95,1438.85 1741.91,1438.85 1743.86,1438.85 1745.82,1430.45 1747.78,1430.47 1749.74,1430.47 1751.69,1430.47 1753.65,1430.47 1755.61,1430.47 1757.57,1430.47 1759.53,1430.47 1761.48,1430.47 1763.44,1430.47 1765.4,1430.47 1767.36,1430.47 1769.32,1430.47 1771.27,1430.47 1773.23,1430.47 1775.19,1430.47 1777.15,1430.47 1779.1,1430.47 1781.06,1430.47 1783.02,1430.47 1784.98,1430.4 1786.94,1430.4 1788.89,1430.4 1790.85,1430.4 1792.81,1430.4 1794.77,1430.4 1796.73,1430.4 1798.68,1430.4 1800.64,1430.4 1802.6,1430.4 1804.56,1430.4 1806.51,1430.4 1808.47,1430.4 1810.43,1430.4 1812.39,1430.4 1814.35,1430.4 1816.3,1430.4 1818.26,1430.4 1820.22,1430.4 1822.18,1430.4 1824.14,1406.27 1826.09,1406.4 1828.05,1406.42 1830.01,1406.42 1831.97,1406.42 1833.92,1406.42 1835.88,1406.42 1837.84,1406.42 1839.8,1406.42 1841.76,1406.42 1843.71,1406.42 1845.67,1406.42 1847.63,1406.42 1849.59,1406.42 1851.55,1406.42 1853.5,1406.42 1855.46,1406.42 1857.42,1406.42 1859.38,1406.42 1861.33,1406.42 1863.29,1403.43 1865.25,1403.43 1867.21,1403.43 1869.17,1403.44 1871.12,1403.44 1873.08,1403.44 1875.04,1403.44 1877,1403.44 1878.96,1403.44 1880.91,1403.44 1882.87,1403.44 1884.83,1403.44 1886.79,1403.44 1888.74,1403.44 1890.7,1403.44 1892.66,1403.44 1894.62,1403.44 1896.58,1403.44 1898.53,1403.44 1900.49,1403.44 1902.45,1394.23 1904.41,1394.25 1906.37,1394.25 1908.32,1394.26 1910.28,1394.26 1912.24,1394.26 1914.2,1394.26 1916.15,1394.26 1918.11,1394.26 1920.07,1394.26 1922.03,1394.26 1923.99,1394.26 1925.94,1394.26 1927.9,1394.26 1929.86,1394.26 1931.82,1394.26 1933.78,1394.26 1935.73,1394.26 1937.69,1394.26 1939.65,1394.26 1941.61,1397.43 1943.56,1397.43 1945.52,1397.44 1947.48,1397.44 1949.44,1397.44 1951.4,1397.44 1953.35,1397.44 1955.31,1397.44 1957.27,1397.44 1959.23,1397.44 1961.19,1397.44 1963.14,1397.44 1965.1,1397.44 1967.06,1397.44 1969.02,1397.44 1970.97,1397.44 1972.93,1397.44 1974.89,1397.44 1976.85,1397.44 1978.81,1397.44 1980.76,1392.89 1982.72,1392.89 1984.68,1392.89 1986.64,1392.89 1988.6,1392.89 1990.55,1392.89 1992.51,1392.89 1994.47,1392.89 1996.43,1392.89 1998.38,1392.89 2000.34,1392.89 2002.3,1392.89 2004.26,1392.89 2006.22,1392.89 2008.17,1392.89 2010.13,1392.89 2012.09,1392.89 2014.05,1392.89 2016.01,1392.89 2017.96,1392.89 2019.92,1393.73 2021.88,1393.73 2023.84,1393.73 2025.79,1393.73 2027.75,1393.73 2029.71,1393.73 2031.67,1393.73 2033.63,1393.73 2035.58,1393.73 2037.54,1393.73 2039.5,1393.73 2041.46,1393.73 2043.42,1393.73 2045.37,1393.73 2047.33,1393.73 2049.29,1393.73 2051.25,1393.73 2053.2,1393.73 2055.16,1393.73 2057.12,1393.73 2059.08,1406.9 2061.04,1406.93 2062.99,1406.94 2064.95,1406.94 2066.91,1406.94 2068.87,1406.94 2070.82,1406.94 2072.78,1406.94 2074.74,1406.94 2076.7,1406.94 2078.66,1406.94 2080.61,1406.94 2082.57,1406.94 2084.53,1406.94 2086.49,1406.94 2088.45,1406.94 2090.4,1406.94 2092.36,1406.94 2094.32,1406.94 2096.28,1406.94 2098.23,1409.25 2100.19,1409.26 2102.15,1409.27 2104.11,1409.27 2106.07,1409.27 2108.02,1409.27 2109.98,1409.27 2111.94,1409.27 2113.9,1409.27 2115.86,1409.27 2117.81,1409.27 2119.77,1409.27 2121.73,1409.27 2123.69,1409.27 2125.64,1409.27 2127.6,1409.27 2129.56,1409.27 2131.52,1409.27 2133.48,1409.27 2135.43,1409.27 2137.39,1403.56 2139.35,1403.57 2141.31,1403.57 2143.27,1403.57 2145.22,1403.57 2147.18,1403.57 2149.14,1403.57 2151.1,1403.57 2153.05,1403.57 2155.01,1403.57 2156.97,1403.57 2158.93,1403.57 2160.89,1403.57 2162.84,1403.57 2164.8,1403.57 2166.76,1403.57 2168.72,1403.57 2170.68,1403.57 2172.63,1403.57 2174.59,1403.57 2176.55,1393.91 2178.51,1393.92 2180.46,1393.93 2182.42,1393.93 2184.38,1393.93 2186.34,1393.93 2188.3,1393.93 2190.25,1393.93 2192.21,1393.93 2194.17,1393.93 2196.13,1393.93 2198.09,1393.93 2200.04,1393.93 2202,1393.93 2203.96,1393.93 2205.92,1393.93 2207.87,1393.93 2209.83,1393.93 2211.79,1393.93 2213.75,1393.93 2215.71,1397.56 2217.66,1397.57 2219.62,1397.57 2221.58,1397.57 2223.54,1397.57 2225.5,1397.57 2227.45,1397.57 2229.41,1397.57 2231.37,1397.57 2233.33,1397.57 2235.28,1397.57 2237.24,1397.57 2239.2,1397.57 2241.16,1397.57 2243.12,1397.57 2245.07,1397.57 2247.03,1397.57 2248.99,1397.57 2250.95,1397.57 2252.91,1397.57 2254.86,1390.72 2256.82,1390.73 2258.78,1390.73 2260.74,1390.73 2262.69,1390.73 2264.65,1390.73 2266.61,1390.73 2268.57,1390.73 2270.53,1390.73 2272.48,1390.73 2274.44,1390.73 2276.4,1390.73 2278.36,1390.73 2280.32,1390.73 2282.27,1390.73 2284.23,1390.73 2286.19,1390.73 2288.15,1390.73 2290.1,1390.73 2292.06,1390.73 2294.02,1390.73 "/>
<path clip-path="url(#clip920)" d="M2023.62 198.898 L2283.58 198.898 L2283.58 95.2176 L2023.62 95.2176  Z" fill="#ffffff" fill-rule="evenodd" fill-opacity="1"/>
<polyline clip-path="url(#clip920)" style="stroke:#000000; stroke-linecap:round; stroke-linejoin:round; stroke-width:4; stroke-opacity:1; fill:none" points="2023.62,198.898 2283.58,198.898 2283.58,95.2176 2023.62,95.2176 2023.62,198.898 "/>
<polyline clip-path="url(#clip920)" style="stroke:#009af9; stroke-linecap:round; stroke-linejoin:round; stroke-width:4; stroke-opacity:1; fill:none" points="2046.67,147.058 2185.03,147.058 "/>
<path clip-path="url(#clip920)" d="M2221.93 166.745 Q2220.13 171.375 2218.41 172.787 Q2216.7 174.199 2213.83 174.199 L2210.43 174.199 L2210.43 170.634 L2212.93 170.634 Q2214.69 170.634 2215.66 169.8 Q2216.63 168.967 2217.81 165.865 L2218.58 163.921 L2208.09 138.412 L2212.6 138.412 L2220.7 158.689 L2228.81 138.412 L2233.32 138.412 L2221.93 166.745 Z" fill="#000000" fill-rule="nonzero" fill-opacity="1" /><path clip-path="url(#clip920)" d="M2240.61 160.402 L2248.25 160.402 L2248.25 134.037 L2239.94 135.703 L2239.94 131.444 L2248.2 129.778 L2252.88 129.778 L2252.88 160.402 L2260.52 160.402 L2260.52 164.338 L2240.61 164.338 L2240.61 160.402 Z" fill="#000000" fill-rule="nonzero" fill-opacity="1" /></svg>
