<?xml version="1.0" encoding="utf-8"?>
<svg xmlns="http://www.w3.org/2000/svg" xmlns:xlink="http://www.w3.org/1999/xlink" width="600" height="400" viewBox="0 0 2400 1600">
<defs>
  <clipPath id="clip650">
    <rect x="0" y="0" width="2400" height="1600"/>
  </clipPath>
</defs>
<path clip-path="url(#clip650)" d="M0 1600 L2400 1600 L2400 0 L0 0  Z" fill="#ffffff" fill-rule="evenodd" fill-opacity="1"/>
<defs>
  <clipPath id="clip651">
    <rect x="480" y="0" width="1681" height="1600"/>
  </clipPath>
</defs>
<path clip-path="url(#clip650)" d="M199.283 1486.45 L2352.76 1486.45 L2352.76 47.2441 L199.283 47.2441  Z" fill="#ffffff" fill-rule="evenodd" fill-opacity="1"/>
<defs>
  <clipPath id="clip652">
    <rect x="199" y="47" width="2154" height="1440"/>
  </clipPath>
</defs>
<polyline clip-path="url(#clip652)" style="stroke:#000000; stroke-linecap:round; stroke-linejoin:round; stroke-width:2; stroke-opacity:0.1; fill:none" points="260.231,1486.45 260.231,47.2441 "/>
<polyline clip-path="url(#clip652)" style="stroke:#000000; stroke-linecap:round; stroke-linejoin:round; stroke-width:2; stroke-opacity:0.1; fill:none" points="666.546,1486.45 666.546,47.2441 "/>
<polyline clip-path="url(#clip652)" style="stroke:#000000; stroke-linecap:round; stroke-linejoin:round; stroke-width:2; stroke-opacity:0.1; fill:none" points="1072.86,1486.45 1072.86,47.2441 "/>
<polyline clip-path="url(#clip652)" style="stroke:#000000; stroke-linecap:round; stroke-linejoin:round; stroke-width:2; stroke-opacity:0.1; fill:none" points="1479.18,1486.45 1479.18,47.2441 "/>
<polyline clip-path="url(#clip652)" style="stroke:#000000; stroke-linecap:round; stroke-linejoin:round; stroke-width:2; stroke-opacity:0.1; fill:none" points="1885.49,1486.45 1885.49,47.2441 "/>
<polyline clip-path="url(#clip652)" style="stroke:#000000; stroke-linecap:round; stroke-linejoin:round; stroke-width:2; stroke-opacity:0.1; fill:none" points="2291.81,1486.45 2291.81,47.2441 "/>
<polyline clip-path="url(#clip650)" style="stroke:#000000; stroke-linecap:round; stroke-linejoin:round; stroke-width:4; stroke-opacity:1; fill:none" points="199.283,1486.45 2352.76,1486.45 "/>
<polyline clip-path="url(#clip650)" style="stroke:#000000; stroke-linecap:round; stroke-linejoin:round; stroke-width:4; stroke-opacity:1; fill:none" points="260.231,1486.45 260.231,1467.55 "/>
<polyline clip-path="url(#clip650)" style="stroke:#000000; stroke-linecap:round; stroke-linejoin:round; stroke-width:4; stroke-opacity:1; fill:none" points="666.546,1486.45 666.546,1467.55 "/>
<polyline clip-path="url(#clip650)" style="stroke:#000000; stroke-linecap:round; stroke-linejoin:round; stroke-width:4; stroke-opacity:1; fill:none" points="1072.86,1486.45 1072.86,1467.55 "/>
<polyline clip-path="url(#clip650)" style="stroke:#000000; stroke-linecap:round; stroke-linejoin:round; stroke-width:4; stroke-opacity:1; fill:none" points="1479.18,1486.45 1479.18,1467.55 "/>
<polyline clip-path="url(#clip650)" style="stroke:#000000; stroke-linecap:round; stroke-linejoin:round; stroke-width:4; stroke-opacity:1; fill:none" points="1885.49,1486.45 1885.49,1467.55 "/>
<polyline clip-path="url(#clip650)" style="stroke:#000000; stroke-linecap:round; stroke-linejoin:round; stroke-width:4; stroke-opacity:1; fill:none" points="2291.81,1486.45 2291.81,1467.55 "/>
<path clip-path="url(#clip650)" d="M260.231 1517.37 Q256.619 1517.37 254.791 1520.93 Q252.985 1524.47 252.985 1531.6 Q252.985 1538.71 254.791 1542.27 Q256.619 1545.82 260.231 1545.82 Q263.865 1545.82 265.67 1542.27 Q267.499 1538.71 267.499 1531.6 Q267.499 1524.47 265.67 1520.93 Q263.865 1517.37 260.231 1517.37 M260.231 1513.66 Q266.041 1513.66 269.096 1518.27 Q272.175 1522.85 272.175 1531.6 Q272.175 1540.33 269.096 1544.94 Q266.041 1549.52 260.231 1549.52 Q254.42 1549.52 251.342 1544.94 Q248.286 1540.33 248.286 1531.6 Q248.286 1522.85 251.342 1518.27 Q254.42 1513.66 260.231 1513.66 Z" fill="#000000" fill-rule="nonzero" fill-opacity="1" /><path clip-path="url(#clip650)" d="M626.153 1544.91 L633.792 1544.91 L633.792 1518.55 L625.482 1520.21 L625.482 1515.95 L633.745 1514.29 L638.421 1514.29 L638.421 1544.91 L646.06 1544.91 L646.06 1548.85 L626.153 1548.85 L626.153 1544.91 Z" fill="#000000" fill-rule="nonzero" fill-opacity="1" /><path clip-path="url(#clip650)" d="M665.504 1517.37 Q661.893 1517.37 660.065 1520.93 Q658.259 1524.47 658.259 1531.6 Q658.259 1538.71 660.065 1542.27 Q661.893 1545.82 665.504 1545.82 Q669.139 1545.82 670.944 1542.27 Q672.773 1538.71 672.773 1531.6 Q672.773 1524.47 670.944 1520.93 Q669.139 1517.37 665.504 1517.37 M665.504 1513.66 Q671.315 1513.66 674.37 1518.27 Q677.449 1522.85 677.449 1531.6 Q677.449 1540.33 674.37 1544.94 Q671.315 1549.52 665.504 1549.52 Q659.694 1549.52 656.616 1544.94 Q653.56 1540.33 653.56 1531.6 Q653.56 1522.85 656.616 1518.27 Q659.694 1513.66 665.504 1513.66 Z" fill="#000000" fill-rule="nonzero" fill-opacity="1" /><path clip-path="url(#clip650)" d="M695.666 1517.37 Q692.055 1517.37 690.227 1520.93 Q688.421 1524.47 688.421 1531.6 Q688.421 1538.71 690.227 1542.27 Q692.055 1545.82 695.666 1545.82 Q699.301 1545.82 701.106 1542.27 Q702.935 1538.71 702.935 1531.6 Q702.935 1524.47 701.106 1520.93 Q699.301 1517.37 695.666 1517.37 M695.666 1513.66 Q701.477 1513.66 704.532 1518.27 Q707.611 1522.85 707.611 1531.6 Q707.611 1540.33 704.532 1544.94 Q701.477 1549.52 695.666 1549.52 Q689.856 1549.52 686.778 1544.94 Q683.722 1540.33 683.722 1531.6 Q683.722 1522.85 686.778 1518.27 Q689.856 1513.66 695.666 1513.66 Z" fill="#000000" fill-rule="nonzero" fill-opacity="1" /><path clip-path="url(#clip650)" d="M1036.55 1544.91 L1052.87 1544.91 L1052.87 1548.85 L1030.93 1548.85 L1030.93 1544.91 Q1033.59 1542.16 1038.17 1537.53 Q1042.78 1532.88 1043.96 1531.53 Q1046.21 1529.01 1047.09 1527.27 Q1047.99 1525.51 1047.99 1523.82 Q1047.99 1521.07 1046.04 1519.33 Q1044.12 1517.6 1041.02 1517.6 Q1038.82 1517.6 1036.37 1518.36 Q1033.94 1519.13 1031.16 1520.68 L1031.16 1515.95 Q1033.98 1514.82 1036.44 1514.24 Q1038.89 1513.66 1040.93 1513.66 Q1046.3 1513.66 1049.49 1516.35 Q1052.69 1519.03 1052.69 1523.52 Q1052.69 1525.65 1051.88 1527.57 Q1051.09 1529.47 1048.98 1532.07 Q1048.41 1532.74 1045.3 1535.95 Q1042.2 1539.15 1036.55 1544.91 Z" fill="#000000" fill-rule="nonzero" fill-opacity="1" /><path clip-path="url(#clip650)" d="M1072.69 1517.37 Q1069.08 1517.37 1067.25 1520.93 Q1065.44 1524.47 1065.44 1531.6 Q1065.44 1538.71 1067.25 1542.27 Q1069.08 1545.82 1072.69 1545.82 Q1076.32 1545.82 1078.13 1542.27 Q1079.96 1538.71 1079.96 1531.6 Q1079.96 1524.47 1078.13 1520.93 Q1076.32 1517.37 1072.69 1517.37 M1072.69 1513.66 Q1078.5 1513.66 1081.55 1518.27 Q1084.63 1522.85 1084.63 1531.6 Q1084.63 1540.33 1081.55 1544.94 Q1078.5 1549.52 1072.69 1549.52 Q1066.88 1549.52 1063.8 1544.94 Q1060.74 1540.33 1060.74 1531.6 Q1060.74 1522.85 1063.8 1518.27 Q1066.88 1513.66 1072.69 1513.66 Z" fill="#000000" fill-rule="nonzero" fill-opacity="1" /><path clip-path="url(#clip650)" d="M1102.85 1517.37 Q1099.24 1517.37 1097.41 1520.93 Q1095.6 1524.47 1095.6 1531.6 Q1095.6 1538.71 1097.41 1542.27 Q1099.24 1545.82 1102.85 1545.82 Q1106.48 1545.82 1108.29 1542.27 Q1110.12 1538.71 1110.12 1531.6 Q1110.12 1524.47 1108.29 1520.93 Q1106.48 1517.37 1102.85 1517.37 M1102.85 1513.66 Q1108.66 1513.66 1111.72 1518.27 Q1114.79 1522.85 1114.79 1531.6 Q1114.79 1540.33 1111.72 1544.94 Q1108.66 1549.52 1102.85 1549.52 Q1097.04 1549.52 1093.96 1544.94 Q1090.91 1540.33 1090.91 1531.6 Q1090.91 1522.85 1093.96 1518.27 Q1097.04 1513.66 1102.85 1513.66 Z" fill="#000000" fill-rule="nonzero" fill-opacity="1" /><path clip-path="url(#clip650)" d="M1452.94 1530.21 Q1456.3 1530.93 1458.17 1533.2 Q1460.07 1535.47 1460.07 1538.8 Q1460.07 1543.92 1456.55 1546.72 Q1453.03 1549.52 1446.55 1549.52 Q1444.37 1549.52 1442.06 1549.08 Q1439.77 1548.66 1437.31 1547.81 L1437.31 1543.29 Q1439.26 1544.43 1441.57 1545.01 Q1443.89 1545.58 1446.41 1545.58 Q1450.81 1545.58 1453.1 1543.85 Q1455.42 1542.11 1455.42 1538.8 Q1455.42 1535.75 1453.26 1534.03 Q1451.13 1532.3 1447.31 1532.3 L1443.29 1532.3 L1443.29 1528.45 L1447.5 1528.45 Q1450.95 1528.45 1452.78 1527.09 Q1454.61 1525.7 1454.61 1523.11 Q1454.61 1520.45 1452.71 1519.03 Q1450.83 1517.6 1447.31 1517.6 Q1445.39 1517.6 1443.19 1518.01 Q1440.99 1518.43 1438.36 1519.31 L1438.36 1515.14 Q1441.02 1514.4 1443.33 1514.03 Q1445.67 1513.66 1447.73 1513.66 Q1453.05 1513.66 1456.16 1516.09 Q1459.26 1518.5 1459.26 1522.62 Q1459.26 1525.49 1457.61 1527.48 Q1455.97 1529.45 1452.94 1530.21 Z" fill="#000000" fill-rule="nonzero" fill-opacity="1" /><path clip-path="url(#clip650)" d="M1478.93 1517.37 Q1475.32 1517.37 1473.49 1520.93 Q1471.69 1524.47 1471.69 1531.6 Q1471.69 1538.71 1473.49 1542.27 Q1475.32 1545.82 1478.93 1545.82 Q1482.57 1545.82 1484.37 1542.27 Q1486.2 1538.71 1486.2 1531.6 Q1486.2 1524.47 1484.37 1520.93 Q1482.57 1517.37 1478.93 1517.37 M1478.93 1513.66 Q1484.74 1513.66 1487.8 1518.27 Q1490.88 1522.85 1490.88 1531.6 Q1490.88 1540.33 1487.8 1544.94 Q1484.74 1549.52 1478.93 1549.52 Q1473.12 1549.52 1470.05 1544.94 Q1466.99 1540.33 1466.99 1531.6 Q1466.99 1522.85 1470.05 1518.27 Q1473.12 1513.66 1478.93 1513.66 Z" fill="#000000" fill-rule="nonzero" fill-opacity="1" /><path clip-path="url(#clip650)" d="M1509.1 1517.37 Q1505.49 1517.37 1503.66 1520.93 Q1501.85 1524.47 1501.85 1531.6 Q1501.85 1538.71 1503.66 1542.27 Q1505.49 1545.82 1509.1 1545.82 Q1512.73 1545.82 1514.54 1542.27 Q1516.36 1538.71 1516.36 1531.6 Q1516.36 1524.47 1514.54 1520.93 Q1512.73 1517.37 1509.1 1517.37 M1509.1 1513.66 Q1514.91 1513.66 1517.96 1518.27 Q1521.04 1522.85 1521.04 1531.6 Q1521.04 1540.33 1517.96 1544.94 Q1514.91 1549.52 1509.1 1549.52 Q1503.29 1549.52 1500.21 1544.94 Q1497.15 1540.33 1497.15 1531.6 Q1497.15 1522.85 1500.21 1518.27 Q1503.29 1513.66 1509.1 1513.66 Z" fill="#000000" fill-rule="nonzero" fill-opacity="1" /><path clip-path="url(#clip650)" d="M1858.58 1518.36 L1846.78 1536.81 L1858.58 1536.81 L1858.58 1518.36 M1857.36 1514.29 L1863.24 1514.29 L1863.24 1536.81 L1868.17 1536.81 L1868.17 1540.7 L1863.24 1540.7 L1863.24 1548.85 L1858.58 1548.85 L1858.58 1540.7 L1842.98 1540.7 L1842.98 1536.19 L1857.36 1514.29 Z" fill="#000000" fill-rule="nonzero" fill-opacity="1" /><path clip-path="url(#clip650)" d="M1885.9 1517.37 Q1882.29 1517.37 1880.46 1520.93 Q1878.65 1524.47 1878.65 1531.6 Q1878.65 1538.71 1880.46 1542.27 Q1882.29 1545.82 1885.9 1545.82 Q1889.53 1545.82 1891.34 1542.27 Q1893.17 1538.71 1893.17 1531.6 Q1893.17 1524.47 1891.34 1520.93 Q1889.53 1517.37 1885.9 1517.37 M1885.9 1513.66 Q1891.71 1513.66 1894.76 1518.27 Q1897.84 1522.85 1897.84 1531.6 Q1897.84 1540.33 1894.76 1544.94 Q1891.71 1549.52 1885.9 1549.52 Q1880.09 1549.52 1877.01 1544.94 Q1873.95 1540.33 1873.95 1531.6 Q1873.95 1522.85 1877.01 1518.27 Q1880.09 1513.66 1885.9 1513.66 Z" fill="#000000" fill-rule="nonzero" fill-opacity="1" /><path clip-path="url(#clip650)" d="M1916.06 1517.37 Q1912.45 1517.37 1910.62 1520.93 Q1908.81 1524.47 1908.81 1531.6 Q1908.81 1538.71 1910.62 1542.27 Q1912.45 1545.82 1916.06 1545.82 Q1919.69 1545.82 1921.5 1542.27 Q1923.33 1538.71 1923.33 1531.6 Q1923.33 1524.47 1921.5 1520.93 Q1919.69 1517.37 1916.06 1517.37 M1916.06 1513.66 Q1921.87 1513.66 1924.93 1518.27 Q1928 1522.85 1928 1531.6 Q1928 1540.33 1924.93 1544.94 Q1921.87 1549.52 1916.06 1549.52 Q1910.25 1549.52 1907.17 1544.94 Q1904.12 1540.33 1904.12 1531.6 Q1904.12 1522.85 1907.17 1518.27 Q1910.25 1513.66 1916.06 1513.66 Z" fill="#000000" fill-rule="nonzero" fill-opacity="1" /><path clip-path="url(#clip650)" d="M2251.43 1514.29 L2269.78 1514.29 L2269.78 1518.22 L2255.71 1518.22 L2255.71 1526.7 Q2256.73 1526.35 2257.75 1526.19 Q2258.76 1526 2259.78 1526 Q2265.57 1526 2268.95 1529.17 Q2272.33 1532.34 2272.33 1537.76 Q2272.33 1543.34 2268.86 1546.44 Q2265.39 1549.52 2259.07 1549.52 Q2256.89 1549.52 2254.62 1549.15 Q2252.38 1548.78 2249.97 1548.04 L2249.97 1543.34 Q2252.05 1544.47 2254.27 1545.03 Q2256.5 1545.58 2258.97 1545.58 Q2262.98 1545.58 2265.32 1543.48 Q2267.65 1541.37 2267.65 1537.76 Q2267.65 1534.15 2265.32 1532.04 Q2262.98 1529.94 2258.97 1529.94 Q2257.1 1529.94 2255.22 1530.35 Q2253.37 1530.77 2251.43 1531.65 L2251.43 1514.29 Z" fill="#000000" fill-rule="nonzero" fill-opacity="1" /><path clip-path="url(#clip650)" d="M2291.54 1517.37 Q2287.93 1517.37 2286.1 1520.93 Q2284.3 1524.47 2284.3 1531.6 Q2284.3 1538.71 2286.1 1542.27 Q2287.93 1545.82 2291.54 1545.82 Q2295.18 1545.82 2296.98 1542.27 Q2298.81 1538.71 2298.81 1531.6 Q2298.81 1524.47 2296.98 1520.93 Q2295.18 1517.37 2291.54 1517.37 M2291.54 1513.66 Q2297.35 1513.66 2300.41 1518.27 Q2303.49 1522.85 2303.49 1531.6 Q2303.49 1540.33 2300.41 1544.94 Q2297.35 1549.52 2291.54 1549.52 Q2285.73 1549.52 2282.65 1544.94 Q2279.6 1540.33 2279.6 1531.6 Q2279.6 1522.85 2282.65 1518.27 Q2285.73 1513.66 2291.54 1513.66 Z" fill="#000000" fill-rule="nonzero" fill-opacity="1" /><path clip-path="url(#clip650)" d="M2321.7 1517.37 Q2318.09 1517.37 2316.26 1520.93 Q2314.46 1524.47 2314.46 1531.6 Q2314.46 1538.71 2316.26 1542.27 Q2318.09 1545.82 2321.7 1545.82 Q2325.34 1545.82 2327.14 1542.27 Q2328.97 1538.71 2328.97 1531.6 Q2328.97 1524.47 2327.14 1520.93 Q2325.34 1517.37 2321.7 1517.37 M2321.7 1513.66 Q2327.51 1513.66 2330.57 1518.27 Q2333.65 1522.85 2333.65 1531.6 Q2333.65 1540.33 2330.57 1544.94 Q2327.51 1549.52 2321.7 1549.52 Q2315.89 1549.52 2312.82 1544.94 Q2309.76 1540.33 2309.76 1531.6 Q2309.76 1522.85 2312.82 1518.27 Q2315.89 1513.66 2321.7 1513.66 Z" fill="#000000" fill-rule="nonzero" fill-opacity="1" /><polyline clip-path="url(#clip652)" style="stroke:#000000; stroke-linecap:round; stroke-linejoin:round; stroke-width:2; stroke-opacity:0.1; fill:none" points="199.283,1399.92 2352.76,1399.92 "/>
<polyline clip-path="url(#clip652)" style="stroke:#000000; stroke-linecap:round; stroke-linejoin:round; stroke-width:2; stroke-opacity:0.1; fill:none" points="199.283,1077.83 2352.76,1077.83 "/>
<polyline clip-path="url(#clip652)" style="stroke:#000000; stroke-linecap:round; stroke-linejoin:round; stroke-width:2; stroke-opacity:0.1; fill:none" points="199.283,755.752 2352.76,755.752 "/>
<polyline clip-path="url(#clip652)" style="stroke:#000000; stroke-linecap:round; stroke-linejoin:round; stroke-width:2; stroke-opacity:0.1; fill:none" points="199.283,433.669 2352.76,433.669 "/>
<polyline clip-path="url(#clip652)" style="stroke:#000000; stroke-linecap:round; stroke-linejoin:round; stroke-width:2; stroke-opacity:0.1; fill:none" points="199.283,111.585 2352.76,111.585 "/>
<polyline clip-path="url(#clip650)" style="stroke:#000000; stroke-linecap:round; stroke-linejoin:round; stroke-width:4; stroke-opacity:1; fill:none" points="199.283,1486.45 199.283,47.2441 "/>
<polyline clip-path="url(#clip650)" style="stroke:#000000; stroke-linecap:round; stroke-linejoin:round; stroke-width:4; stroke-opacity:1; fill:none" points="199.283,1399.92 218.181,1399.92 "/>
<polyline clip-path="url(#clip650)" style="stroke:#000000; stroke-linecap:round; stroke-linejoin:round; stroke-width:4; stroke-opacity:1; fill:none" points="199.283,1077.83 218.181,1077.83 "/>
<polyline clip-path="url(#clip650)" style="stroke:#000000; stroke-linecap:round; stroke-linejoin:round; stroke-width:4; stroke-opacity:1; fill:none" points="199.283,755.752 218.181,755.752 "/>
<polyline clip-path="url(#clip650)" style="stroke:#000000; stroke-linecap:round; stroke-linejoin:round; stroke-width:4; stroke-opacity:1; fill:none" points="199.283,433.669 218.181,433.669 "/>
<polyline clip-path="url(#clip650)" style="stroke:#000000; stroke-linecap:round; stroke-linejoin:round; stroke-width:4; stroke-opacity:1; fill:none" points="199.283,111.585 218.181,111.585 "/>
<path clip-path="url(#clip650)" d="M85.0429 1413.26 L101.362 1413.26 L101.362 1417.2 L79.4179 1417.2 L79.4179 1413.26 Q82.0799 1410.51 86.6632 1405.88 Q91.2697 1401.23 92.4502 1399.88 Q94.6956 1397.36 95.5752 1395.62 Q96.478 1393.86 96.478 1392.18 Q96.478 1389.42 94.5336 1387.68 Q92.6123 1385.95 89.5104 1385.95 Q87.3114 1385.95 84.8577 1386.71 Q82.4271 1387.48 79.6494 1389.03 L79.6494 1384.3 Q82.4734 1383.17 84.9271 1382.59 Q87.3808 1382.01 89.4178 1382.01 Q94.7882 1382.01 97.9826 1384.7 Q101.177 1387.38 101.177 1391.87 Q101.177 1394 100.367 1395.92 Q99.5798 1397.82 97.4734 1400.42 Q96.8947 1401.09 93.7928 1404.3 Q90.691 1407.5 85.0429 1413.26 Z" fill="#000000" fill-rule="nonzero" fill-opacity="1" /><path clip-path="url(#clip650)" d="M121.177 1385.72 Q117.566 1385.72 115.737 1389.28 Q113.932 1392.82 113.932 1399.95 Q113.932 1407.06 115.737 1410.62 Q117.566 1414.17 121.177 1414.17 Q124.811 1414.17 126.617 1410.62 Q128.445 1407.06 128.445 1399.95 Q128.445 1392.82 126.617 1389.28 Q124.811 1385.72 121.177 1385.72 M121.177 1382.01 Q126.987 1382.01 130.043 1386.62 Q133.121 1391.2 133.121 1399.95 Q133.121 1408.68 130.043 1413.29 Q126.987 1417.87 121.177 1417.87 Q115.367 1417.87 112.288 1413.29 Q109.233 1408.68 109.233 1399.95 Q109.233 1391.2 112.288 1386.62 Q115.367 1382.01 121.177 1382.01 Z" fill="#000000" fill-rule="nonzero" fill-opacity="1" /><path clip-path="url(#clip650)" d="M151.339 1385.72 Q147.728 1385.72 145.899 1389.28 Q144.093 1392.82 144.093 1399.95 Q144.093 1407.06 145.899 1410.62 Q147.728 1414.17 151.339 1414.17 Q154.973 1414.17 156.779 1410.62 Q158.607 1407.06 158.607 1399.95 Q158.607 1392.82 156.779 1389.28 Q154.973 1385.72 151.339 1385.72 M151.339 1382.01 Q157.149 1382.01 160.205 1386.62 Q163.283 1391.2 163.283 1399.95 Q163.283 1408.68 160.205 1413.29 Q157.149 1417.87 151.339 1417.87 Q145.529 1417.87 142.45 1413.29 Q139.394 1408.68 139.394 1399.95 Q139.394 1391.2 142.45 1386.62 Q145.529 1382.01 151.339 1382.01 Z" fill="#000000" fill-rule="nonzero" fill-opacity="1" /><path clip-path="url(#clip650)" d="M93.8623 1064.63 L82.0568 1083.08 L93.8623 1083.08 L93.8623 1064.63 M92.6354 1060.55 L98.515 1060.55 L98.515 1083.08 L103.446 1083.08 L103.446 1086.97 L98.515 1086.97 L98.515 1095.11 L93.8623 1095.11 L93.8623 1086.97 L78.2605 1086.97 L78.2605 1082.45 L92.6354 1060.55 Z" fill="#000000" fill-rule="nonzero" fill-opacity="1" /><path clip-path="url(#clip650)" d="M121.177 1063.63 Q117.566 1063.63 115.737 1067.2 Q113.932 1070.74 113.932 1077.87 Q113.932 1084.98 115.737 1088.54 Q117.566 1092.08 121.177 1092.08 Q124.811 1092.08 126.617 1088.54 Q128.445 1084.98 128.445 1077.87 Q128.445 1070.74 126.617 1067.2 Q124.811 1063.63 121.177 1063.63 M121.177 1059.93 Q126.987 1059.93 130.043 1064.54 Q133.121 1069.12 133.121 1077.87 Q133.121 1086.6 130.043 1091.2 Q126.987 1095.79 121.177 1095.79 Q115.367 1095.79 112.288 1091.2 Q109.233 1086.6 109.233 1077.87 Q109.233 1069.12 112.288 1064.54 Q115.367 1059.93 121.177 1059.93 Z" fill="#000000" fill-rule="nonzero" fill-opacity="1" /><path clip-path="url(#clip650)" d="M151.339 1063.63 Q147.728 1063.63 145.899 1067.2 Q144.093 1070.74 144.093 1077.87 Q144.093 1084.98 145.899 1088.54 Q147.728 1092.08 151.339 1092.08 Q154.973 1092.08 156.779 1088.54 Q158.607 1084.98 158.607 1077.87 Q158.607 1070.74 156.779 1067.2 Q154.973 1063.63 151.339 1063.63 M151.339 1059.93 Q157.149 1059.93 160.205 1064.54 Q163.283 1069.12 163.283 1077.87 Q163.283 1086.6 160.205 1091.2 Q157.149 1095.79 151.339 1095.79 Q145.529 1095.79 142.45 1091.2 Q139.394 1086.6 139.394 1077.87 Q139.394 1069.12 142.45 1064.54 Q145.529 1059.93 151.339 1059.93 Z" fill="#000000" fill-rule="nonzero" fill-opacity="1" /><path clip-path="url(#clip650)" d="M91.5938 753.888 Q88.4456 753.888 86.5938 756.041 Q84.7651 758.194 84.7651 761.944 Q84.7651 765.671 86.5938 767.847 Q88.4456 769.999 91.5938 769.999 Q94.7419 769.999 96.5706 767.847 Q98.4224 765.671 98.4224 761.944 Q98.4224 758.194 96.5706 756.041 Q94.7419 753.888 91.5938 753.888 M100.876 739.236 L100.876 743.495 Q99.1169 742.661 97.3113 742.222 Q95.5289 741.782 93.7697 741.782 Q89.1401 741.782 86.6864 744.907 Q84.2558 748.032 83.9086 754.351 Q85.2743 752.337 87.3345 751.273 Q89.3947 750.185 91.8715 750.185 Q97.0798 750.185 100.089 753.356 Q103.121 756.504 103.121 761.944 Q103.121 767.268 99.9733 770.485 Q96.8252 773.703 91.5938 773.703 Q85.5984 773.703 82.4271 769.12 Q79.2559 764.513 79.2559 755.786 Q79.2559 747.592 83.1447 742.731 Q87.0336 737.847 93.5845 737.847 Q95.3437 737.847 97.1261 738.194 Q98.9317 738.541 100.876 739.236 Z" fill="#000000" fill-rule="nonzero" fill-opacity="1" /><path clip-path="url(#clip650)" d="M121.177 741.55 Q117.566 741.55 115.737 745.115 Q113.932 748.657 113.932 755.786 Q113.932 762.893 115.737 766.458 Q117.566 769.999 121.177 769.999 Q124.811 769.999 126.617 766.458 Q128.445 762.893 128.445 755.786 Q128.445 748.657 126.617 745.115 Q124.811 741.55 121.177 741.55 M121.177 737.847 Q126.987 737.847 130.043 742.453 Q133.121 747.036 133.121 755.786 Q133.121 764.513 130.043 769.12 Q126.987 773.703 121.177 773.703 Q115.367 773.703 112.288 769.12 Q109.233 764.513 109.233 755.786 Q109.233 747.036 112.288 742.453 Q115.367 737.847 121.177 737.847 Z" fill="#000000" fill-rule="nonzero" fill-opacity="1" /><path clip-path="url(#clip650)" d="M151.339 741.55 Q147.728 741.55 145.899 745.115 Q144.093 748.657 144.093 755.786 Q144.093 762.893 145.899 766.458 Q147.728 769.999 151.339 769.999 Q154.973 769.999 156.779 766.458 Q158.607 762.893 158.607 755.786 Q158.607 748.657 156.779 745.115 Q154.973 741.55 151.339 741.55 M151.339 737.847 Q157.149 737.847 160.205 742.453 Q163.283 747.036 163.283 755.786 Q163.283 764.513 160.205 769.12 Q157.149 773.703 151.339 773.703 Q145.529 773.703 142.45 769.12 Q139.394 764.513 139.394 755.786 Q139.394 747.036 142.45 742.453 Q145.529 737.847 151.339 737.847 Z" fill="#000000" fill-rule="nonzero" fill-opacity="1" /><path clip-path="url(#clip650)" d="M91.0151 434.537 Q87.6817 434.537 85.7605 436.319 Q83.8623 438.101 83.8623 441.226 Q83.8623 444.351 85.7605 446.134 Q87.6817 447.916 91.0151 447.916 Q94.3484 447.916 96.2697 446.134 Q98.1909 444.328 98.1909 441.226 Q98.1909 438.101 96.2697 436.319 Q94.3715 434.537 91.0151 434.537 M86.3392 432.546 Q83.3299 431.805 81.6401 429.745 Q79.9735 427.685 79.9735 424.722 Q79.9735 420.578 82.9133 418.171 Q85.8762 415.764 91.0151 415.764 Q96.1771 415.764 99.1169 418.171 Q102.057 420.578 102.057 424.722 Q102.057 427.685 100.367 429.745 Q98.7002 431.805 95.7141 432.546 Q99.0937 433.333 100.969 435.625 Q102.867 437.916 102.867 441.226 Q102.867 446.249 99.7882 448.935 Q96.7326 451.62 91.0151 451.62 Q85.2975 451.62 82.2188 448.935 Q79.1633 446.249 79.1633 441.226 Q79.1633 437.916 81.0614 435.625 Q82.9595 433.333 86.3392 432.546 M84.6262 425.162 Q84.6262 427.847 86.2929 429.351 Q87.9827 430.856 91.0151 430.856 Q94.0243 430.856 95.7141 429.351 Q97.4271 427.847 97.4271 425.162 Q97.4271 422.476 95.7141 420.972 Q94.0243 419.467 91.0151 419.467 Q87.9827 419.467 86.2929 420.972 Q84.6262 422.476 84.6262 425.162 Z" fill="#000000" fill-rule="nonzero" fill-opacity="1" /><path clip-path="url(#clip650)" d="M121.177 419.467 Q117.566 419.467 115.737 423.032 Q113.932 426.574 113.932 433.703 Q113.932 440.81 115.737 444.374 Q117.566 447.916 121.177 447.916 Q124.811 447.916 126.617 444.374 Q128.445 440.81 128.445 433.703 Q128.445 426.574 126.617 423.032 Q124.811 419.467 121.177 419.467 M121.177 415.764 Q126.987 415.764 130.043 420.37 Q133.121 424.953 133.121 433.703 Q133.121 442.43 130.043 447.037 Q126.987 451.62 121.177 451.62 Q115.367 451.62 112.288 447.037 Q109.233 442.43 109.233 433.703 Q109.233 424.953 112.288 420.37 Q115.367 415.764 121.177 415.764 Z" fill="#000000" fill-rule="nonzero" fill-opacity="1" /><path clip-path="url(#clip650)" d="M151.339 419.467 Q147.728 419.467 145.899 423.032 Q144.093 426.574 144.093 433.703 Q144.093 440.81 145.899 444.374 Q147.728 447.916 151.339 447.916 Q154.973 447.916 156.779 444.374 Q158.607 440.81 158.607 433.703 Q158.607 426.574 156.779 423.032 Q154.973 419.467 151.339 419.467 M151.339 415.764 Q157.149 415.764 160.205 420.37 Q163.283 424.953 163.283 433.703 Q163.283 442.43 160.205 447.037 Q157.149 451.62 151.339 451.62 Q145.529 451.62 142.45 447.037 Q139.394 442.43 139.394 433.703 Q139.394 424.953 142.45 420.37 Q145.529 415.764 151.339 415.764 Z" fill="#000000" fill-rule="nonzero" fill-opacity="1" /><path clip-path="url(#clip650)" d="M51.6634 124.93 L59.3023 124.93 L59.3023 98.5646 L50.9921 100.231 L50.9921 95.972 L59.256 94.3054 L63.9319 94.3054 L63.9319 124.93 L71.5707 124.93 L71.5707 128.865 L51.6634 128.865 L51.6634 124.93 Z" fill="#000000" fill-rule="nonzero" fill-opacity="1" /><path clip-path="url(#clip650)" d="M91.0151 97.3841 Q87.404 97.3841 85.5753 100.949 Q83.7697 104.49 83.7697 111.62 Q83.7697 118.727 85.5753 122.291 Q87.404 125.833 91.0151 125.833 Q94.6493 125.833 96.4548 122.291 Q98.2835 118.727 98.2835 111.62 Q98.2835 104.49 96.4548 100.949 Q94.6493 97.3841 91.0151 97.3841 M91.0151 93.6804 Q96.8252 93.6804 99.8808 98.2868 Q102.959 102.87 102.959 111.62 Q102.959 120.347 99.8808 124.953 Q96.8252 129.537 91.0151 129.537 Q85.2049 129.537 82.1262 124.953 Q79.0707 120.347 79.0707 111.62 Q79.0707 102.87 82.1262 98.2868 Q85.2049 93.6804 91.0151 93.6804 Z" fill="#000000" fill-rule="nonzero" fill-opacity="1" /><path clip-path="url(#clip650)" d="M121.177 97.3841 Q117.566 97.3841 115.737 100.949 Q113.932 104.49 113.932 111.62 Q113.932 118.727 115.737 122.291 Q117.566 125.833 121.177 125.833 Q124.811 125.833 126.617 122.291 Q128.445 118.727 128.445 111.62 Q128.445 104.49 126.617 100.949 Q124.811 97.3841 121.177 97.3841 M121.177 93.6804 Q126.987 93.6804 130.043 98.2868 Q133.121 102.87 133.121 111.62 Q133.121 120.347 130.043 124.953 Q126.987 129.537 121.177 129.537 Q115.367 129.537 112.288 124.953 Q109.233 120.347 109.233 111.62 Q109.233 102.87 112.288 98.2868 Q115.367 93.6804 121.177 93.6804 Z" fill="#000000" fill-rule="nonzero" fill-opacity="1" /><path clip-path="url(#clip650)" d="M151.339 97.3841 Q147.728 97.3841 145.899 100.949 Q144.093 104.49 144.093 111.62 Q144.093 118.727 145.899 122.291 Q147.728 125.833 151.339 125.833 Q154.973 125.833 156.779 122.291 Q158.607 118.727 158.607 111.62 Q158.607 104.49 156.779 100.949 Q154.973 97.3841 151.339 97.3841 M151.339 93.6804 Q157.149 93.6804 160.205 98.2868 Q163.283 102.87 163.283 111.62 Q163.283 120.347 160.205 124.953 Q157.149 129.537 151.339 129.537 Q145.529 129.537 142.45 124.953 Q139.394 120.347 139.394 111.62 Q139.394 102.87 142.45 98.2868 Q145.529 93.6804 151.339 93.6804 Z" fill="#000000" fill-rule="nonzero" fill-opacity="1" /><polyline clip-path="url(#clip652)" style="stroke:#009af9; stroke-linecap:round; stroke-linejoin:round; stroke-width:4; stroke-opacity:1; fill:none" points="260.231,1119.22 264.294,1123.26 268.357,1146.16 272.42,1169.61 276.483,1159.44 280.546,1123.05 284.609,1125.93 288.673,1242.1 292.736,1085.19 296.799,1051.52 300.862,1121.54 304.925,1075.3 308.988,1074.28 313.052,1020.56 317.115,984.395 321.178,1102.32 325.241,1097.97 329.304,1181.53 333.367,1096.65 337.43,1087.48 341.494,1144.42 345.557,1097.8 349.62,1153.35 353.683,1141 357.746,1192.42 361.809,1269.58 365.873,1189.15 369.936,1238.32 373.999,1267.88 378.062,1150.51 382.125,1256.18 386.188,1253.11 390.252,1166.81 394.315,1144.09 398.378,1207.88 402.441,1194.98 406.504,1294.13 410.567,1161.3 414.63,1171.94 418.694,1183.26 422.757,1159.89 426.82,1196.55 430.883,1199.94 434.946,1234.68 439.009,1233.49 443.073,1213.82 447.136,1289.58 451.199,1220.27 455.262,1323.68 459.325,1311.18 463.388,1288.37 467.451,1311.45 471.515,1286.32 475.578,1217.54 479.641,1353.17 483.704,1309.26 487.767,1326.95 491.83,1263.59 495.894,1291.9 499.957,1300.29 504.02,1288.55 508.083,1276.17 512.146,1202.18 516.209,1268 520.273,1253.03 524.336,1249.82 528.399,1277.06 532.462,1299.89 536.525,1231.59 540.588,1284.51 544.651,1177.27 548.715,1141.56 552.778,1211.15 556.841,1288.38 560.904,1247.68 564.967,1291.69 569.03,1201.53 573.094,1290.86 577.157,1308.13 581.22,1207.33 585.283,1240.27 589.346,1220.95 593.409,1297.88 597.472,1250.44 601.536,1231.01 605.599,1292.08 609.662,1326.06 613.725,1295.49 617.788,1273.03 621.851,1296.65 625.915,1335.03 629.978,1347.18 634.041,1245.23 638.104,1296.55 642.167,1246.92 646.23,1271.8 650.294,1295.88 654.357,1274.97 658.42,1287.19 662.483,1259.15 666.546,1279.12 670.609,1239.31 674.672,1241.37 678.736,1293.69 682.799,1290.95 686.862,1234.58 690.925,1266.92 694.988,1250.98 699.051,1127.6 703.115,1218.49 707.178,1248.08 711.241,1169.93 715.304,1274.3 719.367,1195.09 723.43,1255.06 727.493,1229.64 731.557,1228.65 735.62,1216.9 739.683,1185.65 743.746,1173.89 747.809,1263.17 751.872,1270.3 755.936,1230.04 759.999,1217.85 764.062,1206.38 768.125,1213.92 772.188,1178.69 776.251,1225.31 780.315,1226.64 784.378,1171.06 788.441,1223.8 792.504,1208.43 796.567,1157.75 800.63,1148.35 804.693,1168.72 808.757,1138.98 812.82,1127.48 816.883,1216.76 820.946,1211.58 825.009,1195.62 829.072,1221.77 833.136,1174.26 837.199,1311.95 841.262,1187.63 845.325,1169.47 849.388,1234.86 853.451,1250.03 857.514,1219.13 861.578,1273.31 865.641,1214.36 869.704,1294.73 873.767,1206.64 877.83,1300.33 881.893,1261.05 885.957,1274.3 890.02,1326.46 894.083,1358.15 898.146,1307.05 902.209,1305.63 906.272,1272.69 910.336,1301.75 914.399,1265.56 918.462,1273.54 922.525,1267.68 926.588,1290.15 930.651,1326.54 934.714,1282.14 938.778,1323.38 942.841,1298.42 946.904,1296.23 950.967,1341.92 955.03,1338.76 959.093,1350.89 963.157,1373.76 967.22,1397.39 971.283,1354.62 975.346,1376.99 979.409,1389.49 983.472,1357.21 987.535,1338.92 991.599,1379.55 995.662,1404.23 999.725,1415.38 1003.79,1367.52 1007.85,1349.28 1011.91,1414.03 1015.98,1389.99 1020.04,1379.16 1024.1,1408.09 1028.17,1371.56 1032.23,1316.96 1036.29,1367.47 1040.36,1383.35 1044.42,1240.55 1048.48,1273.52 1052.55,1249.26 1056.61,1260.87 1060.67,1234.99 1064.74,1311.38 1068.8,1283.86 1072.86,1313.23 1076.92,1336.97 1080.99,1356.65 1085.05,1354.38 1089.11,1386.69 1093.18,1398.67 1097.24,1337.83 1101.3,1445.72 1105.37,1390.14 1109.43,1304.83 1113.49,1276.16 1117.56,1280.23 1121.62,1264.13 1125.68,1267.52 1129.75,1264.49 1133.81,1274.68 1137.87,1291.22 1141.94,1334.58 1146,1313.52 1150.06,1297.69 1154.12,1285.65 1158.19,1284.19 1162.25,1329.07 1166.31,1348.82 1170.38,1252.76 1174.44,1210.72 1178.5,1261.81 1182.57,1248.3 1186.63,1271.73 1190.69,1255.13 1194.76,1336.16 1198.82,1280.79 1202.88,1295.63 1206.95,1290.17 1211.01,1309.07 1215.07,1302.62 1219.14,1337 1223.2,1312.83 1227.26,1271.23 1231.32,1321.19 1235.39,1297.62 1239.45,1233.65 1243.51,1300.59 1247.58,1217.36 1251.64,1193.02 1255.7,1134.07 1259.77,1219.3 1263.83,1078.43 1267.89,1147.2 1271.96,1138.63 1276.02,1132.47 1280.08,1172.29 1284.15,1211.33 1288.21,1236.47 1292.27,1158.08 1296.34,1143.44 1300.4,1082.22 1304.46,1059.65 1308.52,1105.37 1312.59,1085.03 1316.65,1098.24 1320.71,1114.2 1324.78,1164.09 1328.84,1126.95 1332.9,1137.95 1336.97,1222.11 1341.03,1187.75 1345.09,1162.23 1349.16,1182.1 1353.22,1239.88 1357.28,1214.17 1361.35,1130.61 1365.41,1148.67 1369.47,1132.9 1373.54,1162.21 1377.6,1154.21 1381.66,1078.29 1385.72,1097.01 1389.79,1149.22 1393.85,1176.49 1397.91,1217.46 1401.98,1176.11 1406.04,1219.94 1410.1,1227.33 1414.17,1185.02 1418.23,1163.34 1422.29,1195.89 1426.36,1158.25 1430.42,1112.64 1434.48,1082.4 1438.55,1141.02 1442.61,1140.99 1446.67,1179.17 1450.74,1173.25 1454.8,1239 1458.86,1159.3 1462.92,1175.33 1466.99,1189.98 1471.05,1126.65 1475.11,1184.92 1479.18,1214.46 1483.24,1170.24 1487.3,1133.17 1491.37,1094.76 1495.43,1194.98 1499.49,1189.74 1503.56,1115.75 1507.62,1118.13 1511.68,1112.91 1515.75,1113.21 1519.81,1189.85 1523.87,1215.56 1527.94,1171.67 1532,1211.92 1536.06,1224.29 1540.12,1220.97 1544.19,1185.9 1548.25,1225.58 1552.31,1181.69 1556.38,1070.8 1560.44,1004.03 1564.5,1086.89 1568.57,1120.3 1572.63,1078.86 1576.69,1080.47 1580.76,1055.92 1584.82,1053.16 1588.88,1010.32 1592.95,964.429 1597.01,1017.76 1601.07,1044.17 1605.14,1034.12 1609.2,1047.57 1613.26,1069.93 1617.32,1133.05 1621.39,1113.55 1625.45,1065.46 1629.51,1085.64 1633.58,1124.68 1637.64,1132.34 1641.7,1163.63 1645.77,1159.41 1649.83,1131.09 1653.89,1096.09 1657.96,1090.9 1662.02,1129.06 1666.08,1087.67 1670.15,1137.13 1674.21,1110.49 1678.27,1098.51 1682.34,1155.8 1686.4,1130.94 1690.46,1070.82 1694.52,1131.25 1698.59,1102.55 1702.65,1153.11 1706.71,1103.56 1710.78,1115.42 1714.84,1111.53 1718.9,1129.86 1722.97,1122.18 1727.03,1160.85 1731.09,1152.98 1735.16,1144.63 1739.22,1114.36 1743.28,1107.86 1747.35,1099.76 1751.41,1129 1755.47,1176.37 1759.54,1179.85 1763.6,1158.22 1767.66,1213.22 1771.72,1153.31 1775.79,1207.74 1779.85,1178.17 1783.91,1168.31 1787.98,1158.05 1792.04,1152.21 1796.1,1220.26 1800.17,1228.62 1804.23,1237.74 1808.29,1242.21 1812.36,1238 1816.42,1233.03 1820.48,1258.9 1824.55,1222.08 1828.61,1205.25 1832.67,1162.84 1836.74,1195.87 1840.8,1185.1 1844.86,1109.84 1848.92,1061.96 1852.99,1084.07 1857.05,1025.98 1861.11,1075.83 1865.18,1119.96 1869.24,1042.53 1873.3,1081.2 1877.37,1012.11 1881.43,1029.12 1885.49,1014.4 1889.56,953.831 1893.62,951.615 1897.68,1056.75 1901.75,1047.55 1905.81,1082.34 1909.87,1013.91 1913.94,1021.69 1918,982.839 1922.06,1076.53 1926.12,1047.38 1930.19,1021.83 1934.25,998.26 1938.31,1033.77 1942.38,1068.89 1946.44,1042.87 1950.5,1017.45 1954.57,827.973 1958.63,727.519 1962.69,557.352 1966.76,516.95 1970.82,471.667 1974.88,437.829 1978.95,443.38 1983.01,467.404 1987.07,437.307 1991.14,436.229 1995.2,456.027 1999.26,429.178 2003.32,395.985 2007.39,364.916 2011.45,388.614 2015.51,411.381 2019.58,397.606 2023.64,363.296 2027.7,404.906 2031.77,478.624 2035.83,406.456 2039.89,390.175 2043.96,461.056 2048.02,480.826 2052.08,460.881 2056.15,522.432 2060.21,500.458 2064.27,462.927 2068.33,373.37 2072.4,386.677 2076.46,327.911 2080.52,208.653 2084.59,212.189 2088.65,230.554 2092.71,279.962 2096.78,298.009 2100.84,328.702 2104.9,206.247 2108.97,149.752 2113.03,87.9763 2117.09,164.985 2121.16,164.652 2125.22,216.382 2129.28,252.919 2133.35,266.623 2137.41,320.763 2141.47,252.988 2145.53,160.706 2149.6,223.589 2153.66,296.527 2157.72,376.655 2161.79,431.258 2165.85,443.924 2169.91,435.056 2173.98,611.61 2178.04,591.469 2182.1,523.045 2186.17,532.499 2190.23,485.961 2194.29,473.818 2198.36,513.318 2202.42,536.343 2206.48,547.217 2210.55,482.833 2214.61,406.758 2218.67,325.799 2222.73,248.222 2226.8,323.688 2230.86,363.988 2234.92,452.107 2238.99,460.949 2243.05,470.654 2247.11,499.36 2251.18,676.869 2255.24,693.034 2259.3,651.324 2263.37,611.244 2267.43,569.667 2271.49,670.882 2275.56,674.612 2279.62,635.729 2283.68,562.986 2287.75,465.954 2291.81,466.487 "/>
<path clip-path="url(#clip650)" d="M271.066 198.898 L538.843 198.898 L538.843 95.2176 L271.066 95.2176  Z" fill="#ffffff" fill-rule="evenodd" fill-opacity="1"/>
<polyline clip-path="url(#clip650)" style="stroke:#000000; stroke-linecap:round; stroke-linejoin:round; stroke-width:4; stroke-opacity:1; fill:none" points="271.066,198.898 538.843,198.898 538.843,95.2176 271.066,95.2176 271.066,198.898 "/>
<polyline clip-path="url(#clip650)" style="stroke:#009af9; stroke-linecap:round; stroke-linejoin:round; stroke-width:4; stroke-opacity:1; fill:none" points="294.993,147.058 438.558,147.058 "/>
<path clip-path="url(#clip650)" d="M476.328 166.745 Q474.522 171.375 472.809 172.787 Q471.096 174.199 468.226 174.199 L464.823 174.199 L464.823 170.634 L467.323 170.634 Q469.083 170.634 470.055 169.8 Q471.027 168.967 472.208 165.865 L472.971 163.921 L462.485 138.412 L466.999 138.412 L475.101 158.689 L483.203 138.412 L487.717 138.412 L476.328 166.745 Z" fill="#000000" fill-rule="nonzero" fill-opacity="1" /><path clip-path="url(#clip650)" d="M495.008 160.402 L502.647 160.402 L502.647 134.037 L494.337 135.703 L494.337 131.444 L502.601 129.778 L507.277 129.778 L507.277 160.402 L514.916 160.402 L514.916 164.338 L495.008 164.338 L495.008 160.402 Z" fill="#000000" fill-rule="nonzero" fill-opacity="1" /></svg>
