<?xml version="1.0" encoding="utf-8"?>
<svg xmlns="http://www.w3.org/2000/svg" xmlns:xlink="http://www.w3.org/1999/xlink" width="600" height="400" viewBox="0 0 2400 1600">
<defs>
  <clipPath id="clip570">
    <rect x="0" y="0" width="2400" height="1600"/>
  </clipPath>
</defs>
<path clip-path="url(#clip570)" d="M0 1600 L2400 1600 L2400 0 L0 0  Z" fill="#ffffff" fill-rule="evenodd" fill-opacity="1"/>
<defs>
  <clipPath id="clip571">
    <rect x="480" y="0" width="1681" height="1600"/>
  </clipPath>
</defs>
<path clip-path="url(#clip570)" d="M186.274 1486.45 L2352.76 1486.45 L2352.76 47.2441 L186.274 47.2441  Z" fill="#ffffff" fill-rule="evenodd" fill-opacity="1"/>
<defs>
  <clipPath id="clip572">
    <rect x="186" y="47" width="2167" height="1440"/>
  </clipPath>
</defs>
<polyline clip-path="url(#clip572)" style="stroke:#000000; stroke-linecap:round; stroke-linejoin:round; stroke-width:2; stroke-opacity:0.1; fill:none" points="247.59,1486.45 247.59,47.2441 "/>
<polyline clip-path="url(#clip572)" style="stroke:#000000; stroke-linecap:round; stroke-linejoin:round; stroke-width:2; stroke-opacity:0.1; fill:none" points="758.552,1486.45 758.552,47.2441 "/>
<polyline clip-path="url(#clip572)" style="stroke:#000000; stroke-linecap:round; stroke-linejoin:round; stroke-width:2; stroke-opacity:0.1; fill:none" points="1269.51,1486.45 1269.51,47.2441 "/>
<polyline clip-path="url(#clip572)" style="stroke:#000000; stroke-linecap:round; stroke-linejoin:round; stroke-width:2; stroke-opacity:0.1; fill:none" points="1780.48,1486.45 1780.48,47.2441 "/>
<polyline clip-path="url(#clip572)" style="stroke:#000000; stroke-linecap:round; stroke-linejoin:round; stroke-width:2; stroke-opacity:0.1; fill:none" points="2291.44,1486.45 2291.44,47.2441 "/>
<polyline clip-path="url(#clip570)" style="stroke:#000000; stroke-linecap:round; stroke-linejoin:round; stroke-width:4; stroke-opacity:1; fill:none" points="186.274,1486.45 2352.76,1486.45 "/>
<polyline clip-path="url(#clip570)" style="stroke:#000000; stroke-linecap:round; stroke-linejoin:round; stroke-width:4; stroke-opacity:1; fill:none" points="247.59,1486.45 247.59,1467.55 "/>
<polyline clip-path="url(#clip570)" style="stroke:#000000; stroke-linecap:round; stroke-linejoin:round; stroke-width:4; stroke-opacity:1; fill:none" points="758.552,1486.45 758.552,1467.55 "/>
<polyline clip-path="url(#clip570)" style="stroke:#000000; stroke-linecap:round; stroke-linejoin:round; stroke-width:4; stroke-opacity:1; fill:none" points="1269.51,1486.45 1269.51,1467.55 "/>
<polyline clip-path="url(#clip570)" style="stroke:#000000; stroke-linecap:round; stroke-linejoin:round; stroke-width:4; stroke-opacity:1; fill:none" points="1780.48,1486.45 1780.48,1467.55 "/>
<polyline clip-path="url(#clip570)" style="stroke:#000000; stroke-linecap:round; stroke-linejoin:round; stroke-width:4; stroke-opacity:1; fill:none" points="2291.44,1486.45 2291.44,1467.55 "/>
<path clip-path="url(#clip570)" d="M247.59 1517.37 Q243.978 1517.37 242.15 1520.93 Q240.344 1524.47 240.344 1531.6 Q240.344 1538.71 242.15 1542.27 Q243.978 1545.82 247.59 1545.82 Q251.224 1545.82 253.029 1542.27 Q254.858 1538.71 254.858 1531.6 Q254.858 1524.47 253.029 1520.93 Q251.224 1517.37 247.59 1517.37 M247.59 1513.66 Q253.4 1513.66 256.455 1518.27 Q259.534 1522.85 259.534 1531.6 Q259.534 1540.33 256.455 1544.94 Q253.4 1549.52 247.59 1549.52 Q241.779 1549.52 238.701 1544.94 Q235.645 1540.33 235.645 1531.6 Q235.645 1522.85 238.701 1518.27 Q241.779 1513.66 247.59 1513.66 Z" fill="#000000" fill-rule="nonzero" fill-opacity="1" /><path clip-path="url(#clip570)" d="M718.171 1514.29 L736.527 1514.29 L736.527 1518.22 L722.453 1518.22 L722.453 1526.7 Q723.471 1526.35 724.49 1526.19 Q725.508 1526 726.527 1526 Q732.314 1526 735.694 1529.17 Q739.073 1532.34 739.073 1537.76 Q739.073 1543.34 735.601 1546.44 Q732.129 1549.52 725.809 1549.52 Q723.633 1549.52 721.365 1549.15 Q719.12 1548.78 716.712 1548.04 L716.712 1543.34 Q718.796 1544.47 721.018 1545.03 Q723.24 1545.58 725.717 1545.58 Q729.721 1545.58 732.059 1543.48 Q734.397 1541.37 734.397 1537.76 Q734.397 1534.15 732.059 1532.04 Q729.721 1529.94 725.717 1529.94 Q723.842 1529.94 721.967 1530.35 Q720.115 1530.77 718.171 1531.65 L718.171 1514.29 Z" fill="#000000" fill-rule="nonzero" fill-opacity="1" /><path clip-path="url(#clip570)" d="M758.286 1517.37 Q754.675 1517.37 752.846 1520.93 Q751.041 1524.47 751.041 1531.6 Q751.041 1538.71 752.846 1542.27 Q754.675 1545.82 758.286 1545.82 Q761.92 1545.82 763.726 1542.27 Q765.555 1538.71 765.555 1531.6 Q765.555 1524.47 763.726 1520.93 Q761.92 1517.37 758.286 1517.37 M758.286 1513.66 Q764.096 1513.66 767.152 1518.27 Q770.23 1522.85 770.23 1531.6 Q770.23 1540.33 767.152 1544.94 Q764.096 1549.52 758.286 1549.52 Q752.476 1549.52 749.397 1544.94 Q746.342 1540.33 746.342 1531.6 Q746.342 1522.85 749.397 1518.27 Q752.476 1513.66 758.286 1513.66 Z" fill="#000000" fill-rule="nonzero" fill-opacity="1" /><path clip-path="url(#clip570)" d="M788.448 1517.37 Q784.837 1517.37 783.008 1520.93 Q781.203 1524.47 781.203 1531.6 Q781.203 1538.71 783.008 1542.27 Q784.837 1545.82 788.448 1545.82 Q792.082 1545.82 793.888 1542.27 Q795.716 1538.71 795.716 1531.6 Q795.716 1524.47 793.888 1520.93 Q792.082 1517.37 788.448 1517.37 M788.448 1513.66 Q794.258 1513.66 797.314 1518.27 Q800.392 1522.85 800.392 1531.6 Q800.392 1540.33 797.314 1544.94 Q794.258 1549.52 788.448 1549.52 Q782.638 1549.52 779.559 1544.94 Q776.504 1540.33 776.504 1531.6 Q776.504 1522.85 779.559 1518.27 Q782.638 1513.66 788.448 1513.66 Z" fill="#000000" fill-rule="nonzero" fill-opacity="1" /><path clip-path="url(#clip570)" d="M1214.04 1544.91 L1221.68 1544.91 L1221.68 1518.55 L1213.37 1520.21 L1213.37 1515.95 L1221.63 1514.29 L1226.31 1514.29 L1226.31 1544.91 L1233.95 1544.91 L1233.95 1548.85 L1214.04 1548.85 L1214.04 1544.91 Z" fill="#000000" fill-rule="nonzero" fill-opacity="1" /><path clip-path="url(#clip570)" d="M1253.39 1517.37 Q1249.78 1517.37 1247.95 1520.93 Q1246.15 1524.47 1246.15 1531.6 Q1246.15 1538.71 1247.95 1542.27 Q1249.78 1545.82 1253.39 1545.82 Q1257.03 1545.82 1258.83 1542.27 Q1260.66 1538.71 1260.66 1531.6 Q1260.66 1524.47 1258.83 1520.93 Q1257.03 1517.37 1253.39 1517.37 M1253.39 1513.66 Q1259.2 1513.66 1262.26 1518.27 Q1265.34 1522.85 1265.34 1531.6 Q1265.34 1540.33 1262.26 1544.94 Q1259.2 1549.52 1253.39 1549.52 Q1247.58 1549.52 1244.5 1544.94 Q1241.45 1540.33 1241.45 1531.6 Q1241.45 1522.85 1244.5 1518.27 Q1247.58 1513.66 1253.39 1513.66 Z" fill="#000000" fill-rule="nonzero" fill-opacity="1" /><path clip-path="url(#clip570)" d="M1283.55 1517.37 Q1279.94 1517.37 1278.11 1520.93 Q1276.31 1524.47 1276.31 1531.6 Q1276.31 1538.71 1278.11 1542.27 Q1279.94 1545.82 1283.55 1545.82 Q1287.19 1545.82 1288.99 1542.27 Q1290.82 1538.71 1290.82 1531.6 Q1290.82 1524.47 1288.99 1520.93 Q1287.19 1517.37 1283.55 1517.37 M1283.55 1513.66 Q1289.36 1513.66 1292.42 1518.27 Q1295.5 1522.85 1295.5 1531.6 Q1295.5 1540.33 1292.42 1544.94 Q1289.36 1549.52 1283.55 1549.52 Q1277.74 1549.52 1274.67 1544.94 Q1271.61 1540.33 1271.61 1531.6 Q1271.61 1522.85 1274.67 1518.27 Q1277.74 1513.66 1283.55 1513.66 Z" fill="#000000" fill-rule="nonzero" fill-opacity="1" /><path clip-path="url(#clip570)" d="M1313.72 1517.37 Q1310.11 1517.37 1308.28 1520.93 Q1306.47 1524.47 1306.47 1531.6 Q1306.47 1538.71 1308.28 1542.27 Q1310.11 1545.82 1313.72 1545.82 Q1317.35 1545.82 1319.16 1542.27 Q1320.98 1538.71 1320.98 1531.6 Q1320.98 1524.47 1319.16 1520.93 Q1317.35 1517.37 1313.72 1517.37 M1313.72 1513.66 Q1319.53 1513.66 1322.58 1518.27 Q1325.66 1522.85 1325.66 1531.6 Q1325.66 1540.33 1322.58 1544.94 Q1319.53 1549.52 1313.72 1549.52 Q1307.91 1549.52 1304.83 1544.94 Q1301.77 1540.33 1301.77 1531.6 Q1301.77 1522.85 1304.83 1518.27 Q1307.91 1513.66 1313.72 1513.66 Z" fill="#000000" fill-rule="nonzero" fill-opacity="1" /><path clip-path="url(#clip570)" d="M1725 1544.91 L1732.64 1544.91 L1732.64 1518.55 L1724.33 1520.21 L1724.33 1515.95 L1732.6 1514.29 L1737.27 1514.29 L1737.27 1544.91 L1744.91 1544.91 L1744.91 1548.85 L1725 1548.85 L1725 1544.91 Z" fill="#000000" fill-rule="nonzero" fill-opacity="1" /><path clip-path="url(#clip570)" d="M1754.4 1514.29 L1772.76 1514.29 L1772.76 1518.22 L1758.68 1518.22 L1758.68 1526.7 Q1759.7 1526.35 1760.72 1526.19 Q1761.74 1526 1762.76 1526 Q1768.54 1526 1771.92 1529.17 Q1775.3 1532.34 1775.3 1537.76 Q1775.3 1543.34 1771.83 1546.44 Q1768.36 1549.52 1762.04 1549.52 Q1759.86 1549.52 1757.6 1549.15 Q1755.35 1548.78 1752.94 1548.04 L1752.94 1543.34 Q1755.03 1544.47 1757.25 1545.03 Q1759.47 1545.58 1761.95 1545.58 Q1765.95 1545.58 1768.29 1543.48 Q1770.63 1541.37 1770.63 1537.76 Q1770.63 1534.15 1768.29 1532.04 Q1765.95 1529.94 1761.95 1529.94 Q1760.07 1529.94 1758.2 1530.35 Q1756.35 1530.77 1754.4 1531.65 L1754.4 1514.29 Z" fill="#000000" fill-rule="nonzero" fill-opacity="1" /><path clip-path="url(#clip570)" d="M1794.52 1517.37 Q1790.91 1517.37 1789.08 1520.93 Q1787.27 1524.47 1787.27 1531.6 Q1787.27 1538.71 1789.08 1542.27 Q1790.91 1545.82 1794.52 1545.82 Q1798.15 1545.82 1799.96 1542.27 Q1801.79 1538.71 1801.79 1531.6 Q1801.79 1524.47 1799.96 1520.93 Q1798.15 1517.37 1794.52 1517.37 M1794.52 1513.66 Q1800.33 1513.66 1803.38 1518.27 Q1806.46 1522.85 1806.46 1531.6 Q1806.46 1540.33 1803.38 1544.94 Q1800.33 1549.52 1794.52 1549.52 Q1788.71 1549.52 1785.63 1544.94 Q1782.57 1540.33 1782.57 1531.6 Q1782.57 1522.85 1785.63 1518.27 Q1788.71 1513.66 1794.52 1513.66 Z" fill="#000000" fill-rule="nonzero" fill-opacity="1" /><path clip-path="url(#clip570)" d="M1824.68 1517.37 Q1821.07 1517.37 1819.24 1520.93 Q1817.43 1524.47 1817.43 1531.6 Q1817.43 1538.71 1819.24 1542.27 Q1821.07 1545.82 1824.68 1545.82 Q1828.31 1545.82 1830.12 1542.27 Q1831.95 1538.71 1831.95 1531.6 Q1831.95 1524.47 1830.12 1520.93 Q1828.31 1517.37 1824.68 1517.37 M1824.68 1513.66 Q1830.49 1513.66 1833.54 1518.27 Q1836.62 1522.85 1836.62 1531.6 Q1836.62 1540.33 1833.54 1544.94 Q1830.49 1549.52 1824.68 1549.52 Q1818.87 1549.52 1815.79 1544.94 Q1812.73 1540.33 1812.73 1531.6 Q1812.73 1522.85 1815.79 1518.27 Q1818.87 1513.66 1824.68 1513.66 Z" fill="#000000" fill-rule="nonzero" fill-opacity="1" /><path clip-path="url(#clip570)" d="M2240.05 1544.91 L2256.37 1544.91 L2256.37 1548.85 L2234.43 1548.85 L2234.43 1544.91 Q2237.09 1542.16 2241.67 1537.53 Q2246.28 1532.88 2247.46 1531.53 Q2249.7 1529.01 2250.58 1527.27 Q2251.49 1525.51 2251.49 1523.82 Q2251.49 1521.07 2249.54 1519.33 Q2247.62 1517.6 2244.52 1517.6 Q2242.32 1517.6 2239.87 1518.36 Q2237.44 1519.13 2234.66 1520.68 L2234.66 1515.95 Q2237.48 1514.82 2239.94 1514.24 Q2242.39 1513.66 2244.43 1513.66 Q2249.8 1513.66 2252.99 1516.35 Q2256.19 1519.03 2256.19 1523.52 Q2256.19 1525.65 2255.38 1527.57 Q2254.59 1529.47 2252.48 1532.07 Q2251.9 1532.74 2248.8 1535.95 Q2245.7 1539.15 2240.05 1544.91 Z" fill="#000000" fill-rule="nonzero" fill-opacity="1" /><path clip-path="url(#clip570)" d="M2276.19 1517.37 Q2272.57 1517.37 2270.75 1520.93 Q2268.94 1524.47 2268.94 1531.6 Q2268.94 1538.71 2270.75 1542.27 Q2272.57 1545.82 2276.19 1545.82 Q2279.82 1545.82 2281.63 1542.27 Q2283.45 1538.71 2283.45 1531.6 Q2283.45 1524.47 2281.63 1520.93 Q2279.82 1517.37 2276.19 1517.37 M2276.19 1513.66 Q2282 1513.66 2285.05 1518.27 Q2288.13 1522.85 2288.13 1531.6 Q2288.13 1540.33 2285.05 1544.94 Q2282 1549.52 2276.19 1549.52 Q2270.38 1549.52 2267.3 1544.94 Q2264.24 1540.33 2264.24 1531.6 Q2264.24 1522.85 2267.3 1518.27 Q2270.38 1513.66 2276.19 1513.66 Z" fill="#000000" fill-rule="nonzero" fill-opacity="1" /><path clip-path="url(#clip570)" d="M2306.35 1517.37 Q2302.74 1517.37 2300.91 1520.93 Q2299.1 1524.47 2299.1 1531.6 Q2299.1 1538.71 2300.91 1542.27 Q2302.74 1545.82 2306.35 1545.82 Q2309.98 1545.82 2311.79 1542.27 Q2313.62 1538.71 2313.62 1531.6 Q2313.62 1524.47 2311.79 1520.93 Q2309.98 1517.37 2306.35 1517.37 M2306.35 1513.66 Q2312.16 1513.66 2315.21 1518.27 Q2318.29 1522.85 2318.29 1531.6 Q2318.29 1540.33 2315.21 1544.94 Q2312.16 1549.52 2306.35 1549.52 Q2300.54 1549.52 2297.46 1544.94 Q2294.4 1540.33 2294.4 1531.6 Q2294.4 1522.85 2297.46 1518.27 Q2300.54 1513.66 2306.35 1513.66 Z" fill="#000000" fill-rule="nonzero" fill-opacity="1" /><path clip-path="url(#clip570)" d="M2336.51 1517.37 Q2332.9 1517.37 2331.07 1520.93 Q2329.26 1524.47 2329.26 1531.6 Q2329.26 1538.71 2331.07 1542.27 Q2332.9 1545.82 2336.51 1545.82 Q2340.14 1545.82 2341.95 1542.27 Q2343.78 1538.71 2343.78 1531.6 Q2343.78 1524.47 2341.95 1520.93 Q2340.14 1517.37 2336.51 1517.37 M2336.51 1513.66 Q2342.32 1513.66 2345.38 1518.27 Q2348.45 1522.85 2348.45 1531.6 Q2348.45 1540.33 2345.38 1544.94 Q2342.32 1549.52 2336.51 1549.52 Q2330.7 1549.52 2327.62 1544.94 Q2324.57 1540.33 2324.57 1531.6 Q2324.57 1522.85 2327.62 1518.27 Q2330.7 1513.66 2336.51 1513.66 Z" fill="#000000" fill-rule="nonzero" fill-opacity="1" /><polyline clip-path="url(#clip572)" style="stroke:#000000; stroke-linecap:round; stroke-linejoin:round; stroke-width:2; stroke-opacity:0.1; fill:none" points="186.274,1459.83 2352.76,1459.83 "/>
<polyline clip-path="url(#clip572)" style="stroke:#000000; stroke-linecap:round; stroke-linejoin:round; stroke-width:2; stroke-opacity:0.1; fill:none" points="186.274,1192.93 2352.76,1192.93 "/>
<polyline clip-path="url(#clip572)" style="stroke:#000000; stroke-linecap:round; stroke-linejoin:round; stroke-width:2; stroke-opacity:0.1; fill:none" points="186.274,926.029 2352.76,926.029 "/>
<polyline clip-path="url(#clip572)" style="stroke:#000000; stroke-linecap:round; stroke-linejoin:round; stroke-width:2; stroke-opacity:0.1; fill:none" points="186.274,659.127 2352.76,659.127 "/>
<polyline clip-path="url(#clip572)" style="stroke:#000000; stroke-linecap:round; stroke-linejoin:round; stroke-width:2; stroke-opacity:0.1; fill:none" points="186.274,392.225 2352.76,392.225 "/>
<polyline clip-path="url(#clip572)" style="stroke:#000000; stroke-linecap:round; stroke-linejoin:round; stroke-width:2; stroke-opacity:0.1; fill:none" points="186.274,125.323 2352.76,125.323 "/>
<polyline clip-path="url(#clip570)" style="stroke:#000000; stroke-linecap:round; stroke-linejoin:round; stroke-width:4; stroke-opacity:1; fill:none" points="186.274,1486.45 186.274,47.2441 "/>
<polyline clip-path="url(#clip570)" style="stroke:#000000; stroke-linecap:round; stroke-linejoin:round; stroke-width:4; stroke-opacity:1; fill:none" points="186.274,1459.83 205.172,1459.83 "/>
<polyline clip-path="url(#clip570)" style="stroke:#000000; stroke-linecap:round; stroke-linejoin:round; stroke-width:4; stroke-opacity:1; fill:none" points="186.274,1192.93 205.172,1192.93 "/>
<polyline clip-path="url(#clip570)" style="stroke:#000000; stroke-linecap:round; stroke-linejoin:round; stroke-width:4; stroke-opacity:1; fill:none" points="186.274,926.029 205.172,926.029 "/>
<polyline clip-path="url(#clip570)" style="stroke:#000000; stroke-linecap:round; stroke-linejoin:round; stroke-width:4; stroke-opacity:1; fill:none" points="186.274,659.127 205.172,659.127 "/>
<polyline clip-path="url(#clip570)" style="stroke:#000000; stroke-linecap:round; stroke-linejoin:round; stroke-width:4; stroke-opacity:1; fill:none" points="186.274,392.225 205.172,392.225 "/>
<polyline clip-path="url(#clip570)" style="stroke:#000000; stroke-linecap:round; stroke-linejoin:round; stroke-width:4; stroke-opacity:1; fill:none" points="186.274,125.323 205.172,125.323 "/>
<path clip-path="url(#clip570)" d="M62.9365 1445.63 Q59.3254 1445.63 57.4967 1449.2 Q55.6912 1452.74 55.6912 1459.87 Q55.6912 1466.97 57.4967 1470.54 Q59.3254 1474.08 62.9365 1474.08 Q66.5707 1474.08 68.3763 1470.54 Q70.205 1466.97 70.205 1459.87 Q70.205 1452.74 68.3763 1449.2 Q66.5707 1445.63 62.9365 1445.63 M62.9365 1441.93 Q68.7467 1441.93 71.8022 1446.53 Q74.8809 1451.12 74.8809 1459.87 Q74.8809 1468.6 71.8022 1473.2 Q68.7467 1477.78 62.9365 1477.78 Q57.1264 1477.78 54.0477 1473.2 Q50.9921 1468.6 50.9921 1459.87 Q50.9921 1451.12 54.0477 1446.53 Q57.1264 1441.93 62.9365 1441.93 Z" fill="#000000" fill-rule="nonzero" fill-opacity="1" /><path clip-path="url(#clip570)" d="M83.0984 1471.23 L87.9827 1471.23 L87.9827 1477.11 L83.0984 1477.11 L83.0984 1471.23 Z" fill="#000000" fill-rule="nonzero" fill-opacity="1" /><path clip-path="url(#clip570)" d="M108.168 1445.63 Q104.557 1445.63 102.728 1449.2 Q100.922 1452.74 100.922 1459.87 Q100.922 1466.97 102.728 1470.54 Q104.557 1474.08 108.168 1474.08 Q111.802 1474.08 113.608 1470.54 Q115.436 1466.97 115.436 1459.87 Q115.436 1452.74 113.608 1449.2 Q111.802 1445.63 108.168 1445.63 M108.168 1441.93 Q113.978 1441.93 117.033 1446.53 Q120.112 1451.12 120.112 1459.87 Q120.112 1468.6 117.033 1473.2 Q113.978 1477.78 108.168 1477.78 Q102.358 1477.78 99.2789 1473.2 Q96.2234 1468.6 96.2234 1459.87 Q96.2234 1451.12 99.2789 1446.53 Q102.358 1441.93 108.168 1441.93 Z" fill="#000000" fill-rule="nonzero" fill-opacity="1" /><path clip-path="url(#clip570)" d="M138.33 1445.63 Q134.719 1445.63 132.89 1449.2 Q131.084 1452.74 131.084 1459.87 Q131.084 1466.97 132.89 1470.54 Q134.719 1474.08 138.33 1474.08 Q141.964 1474.08 143.769 1470.54 Q145.598 1466.97 145.598 1459.87 Q145.598 1452.74 143.769 1449.2 Q141.964 1445.63 138.33 1445.63 M138.33 1441.93 Q144.14 1441.93 147.195 1446.53 Q150.274 1451.12 150.274 1459.87 Q150.274 1468.6 147.195 1473.2 Q144.14 1477.78 138.33 1477.78 Q132.519 1477.78 129.441 1473.2 Q126.385 1468.6 126.385 1459.87 Q126.385 1451.12 129.441 1446.53 Q132.519 1441.93 138.33 1441.93 Z" fill="#000000" fill-rule="nonzero" fill-opacity="1" /><path clip-path="url(#clip570)" d="M63.9319 1178.73 Q60.3208 1178.73 58.4921 1182.29 Q56.6865 1185.84 56.6865 1192.97 Q56.6865 1200.07 58.4921 1203.64 Q60.3208 1207.18 63.9319 1207.18 Q67.5661 1207.18 69.3717 1203.64 Q71.2004 1200.07 71.2004 1192.97 Q71.2004 1185.84 69.3717 1182.29 Q67.5661 1178.73 63.9319 1178.73 M63.9319 1175.03 Q69.742 1175.03 72.7976 1179.63 Q75.8763 1184.22 75.8763 1192.97 Q75.8763 1201.69 72.7976 1206.3 Q69.742 1210.88 63.9319 1210.88 Q58.1217 1210.88 55.043 1206.3 Q51.9875 1201.69 51.9875 1192.97 Q51.9875 1184.22 55.043 1179.63 Q58.1217 1175.03 63.9319 1175.03 Z" fill="#000000" fill-rule="nonzero" fill-opacity="1" /><path clip-path="url(#clip570)" d="M84.0938 1204.33 L88.978 1204.33 L88.978 1210.21 L84.0938 1210.21 L84.0938 1204.33 Z" fill="#000000" fill-rule="nonzero" fill-opacity="1" /><path clip-path="url(#clip570)" d="M109.163 1178.73 Q105.552 1178.73 103.723 1182.29 Q101.918 1185.84 101.918 1192.97 Q101.918 1200.07 103.723 1203.64 Q105.552 1207.18 109.163 1207.18 Q112.797 1207.18 114.603 1203.64 Q116.432 1200.07 116.432 1192.97 Q116.432 1185.84 114.603 1182.29 Q112.797 1178.73 109.163 1178.73 M109.163 1175.03 Q114.973 1175.03 118.029 1179.63 Q121.107 1184.22 121.107 1192.97 Q121.107 1201.69 118.029 1206.3 Q114.973 1210.88 109.163 1210.88 Q103.353 1210.88 100.274 1206.3 Q97.2187 1201.69 97.2187 1192.97 Q97.2187 1184.22 100.274 1179.63 Q103.353 1175.03 109.163 1175.03 Z" fill="#000000" fill-rule="nonzero" fill-opacity="1" /><path clip-path="url(#clip570)" d="M129.371 1175.65 L147.728 1175.65 L147.728 1179.59 L133.654 1179.59 L133.654 1188.06 Q134.672 1187.71 135.691 1187.55 Q136.709 1187.36 137.728 1187.36 Q143.515 1187.36 146.894 1190.54 Q150.274 1193.71 150.274 1199.12 Q150.274 1204.7 146.802 1207.8 Q143.33 1210.88 137.01 1210.88 Q134.834 1210.88 132.566 1210.51 Q130.32 1210.14 127.913 1209.4 L127.913 1204.7 Q129.996 1205.84 132.219 1206.39 Q134.441 1206.95 136.918 1206.95 Q140.922 1206.95 143.26 1204.84 Q145.598 1202.73 145.598 1199.12 Q145.598 1195.51 143.26 1193.41 Q140.922 1191.3 136.918 1191.3 Q135.043 1191.3 133.168 1191.72 Q131.316 1192.13 129.371 1193.01 L129.371 1175.65 Z" fill="#000000" fill-rule="nonzero" fill-opacity="1" /><path clip-path="url(#clip570)" d="M62.9365 911.828 Q59.3254 911.828 57.4967 915.393 Q55.6912 918.934 55.6912 926.064 Q55.6912 933.17 57.4967 936.735 Q59.3254 940.277 62.9365 940.277 Q66.5707 940.277 68.3763 936.735 Q70.205 933.17 70.205 926.064 Q70.205 918.934 68.3763 915.393 Q66.5707 911.828 62.9365 911.828 M62.9365 908.124 Q68.7467 908.124 71.8022 912.731 Q74.8809 917.314 74.8809 926.064 Q74.8809 934.791 71.8022 939.397 Q68.7467 943.98 62.9365 943.98 Q57.1264 943.98 54.0477 939.397 Q50.9921 934.791 50.9921 926.064 Q50.9921 917.314 54.0477 912.731 Q57.1264 908.124 62.9365 908.124 Z" fill="#000000" fill-rule="nonzero" fill-opacity="1" /><path clip-path="url(#clip570)" d="M83.0984 937.43 L87.9827 937.43 L87.9827 943.309 L83.0984 943.309 L83.0984 937.43 Z" fill="#000000" fill-rule="nonzero" fill-opacity="1" /><path clip-path="url(#clip570)" d="M98.978 939.374 L106.617 939.374 L106.617 913.008 L98.3067 914.675 L98.3067 910.416 L106.571 908.749 L111.246 908.749 L111.246 939.374 L118.885 939.374 L118.885 943.309 L98.978 943.309 L98.978 939.374 Z" fill="#000000" fill-rule="nonzero" fill-opacity="1" /><path clip-path="url(#clip570)" d="M138.33 911.828 Q134.719 911.828 132.89 915.393 Q131.084 918.934 131.084 926.064 Q131.084 933.17 132.89 936.735 Q134.719 940.277 138.33 940.277 Q141.964 940.277 143.769 936.735 Q145.598 933.17 145.598 926.064 Q145.598 918.934 143.769 915.393 Q141.964 911.828 138.33 911.828 M138.33 908.124 Q144.14 908.124 147.195 912.731 Q150.274 917.314 150.274 926.064 Q150.274 934.791 147.195 939.397 Q144.14 943.98 138.33 943.98 Q132.519 943.98 129.441 939.397 Q126.385 934.791 126.385 926.064 Q126.385 917.314 129.441 912.731 Q132.519 908.124 138.33 908.124 Z" fill="#000000" fill-rule="nonzero" fill-opacity="1" /><path clip-path="url(#clip570)" d="M63.9319 644.926 Q60.3208 644.926 58.4921 648.491 Q56.6865 652.032 56.6865 659.162 Q56.6865 666.268 58.4921 669.833 Q60.3208 673.375 63.9319 673.375 Q67.5661 673.375 69.3717 669.833 Q71.2004 666.268 71.2004 659.162 Q71.2004 652.032 69.3717 648.491 Q67.5661 644.926 63.9319 644.926 M63.9319 641.222 Q69.742 641.222 72.7976 645.828 Q75.8763 650.412 75.8763 659.162 Q75.8763 667.889 72.7976 672.495 Q69.742 677.078 63.9319 677.078 Q58.1217 677.078 55.043 672.495 Q51.9875 667.889 51.9875 659.162 Q51.9875 650.412 55.043 645.828 Q58.1217 641.222 63.9319 641.222 Z" fill="#000000" fill-rule="nonzero" fill-opacity="1" /><path clip-path="url(#clip570)" d="M84.0938 670.527 L88.978 670.527 L88.978 676.407 L84.0938 676.407 L84.0938 670.527 Z" fill="#000000" fill-rule="nonzero" fill-opacity="1" /><path clip-path="url(#clip570)" d="M99.9733 672.472 L107.612 672.472 L107.612 646.106 L99.3021 647.773 L99.3021 643.514 L107.566 641.847 L112.242 641.847 L112.242 672.472 L119.881 672.472 L119.881 676.407 L99.9733 676.407 L99.9733 672.472 Z" fill="#000000" fill-rule="nonzero" fill-opacity="1" /><path clip-path="url(#clip570)" d="M129.371 641.847 L147.728 641.847 L147.728 645.782 L133.654 645.782 L133.654 654.254 Q134.672 653.907 135.691 653.745 Q136.709 653.56 137.728 653.56 Q143.515 653.56 146.894 656.731 Q150.274 659.902 150.274 665.319 Q150.274 670.898 146.802 674 Q143.33 677.078 137.01 677.078 Q134.834 677.078 132.566 676.708 Q130.32 676.338 127.913 675.597 L127.913 670.898 Q129.996 672.032 132.219 672.588 Q134.441 673.143 136.918 673.143 Q140.922 673.143 143.26 671.037 Q145.598 668.93 145.598 665.319 Q145.598 661.708 143.26 659.602 Q140.922 657.495 136.918 657.495 Q135.043 657.495 133.168 657.912 Q131.316 658.328 129.371 659.208 L129.371 641.847 Z" fill="#000000" fill-rule="nonzero" fill-opacity="1" /><path clip-path="url(#clip570)" d="M62.9365 378.024 Q59.3254 378.024 57.4967 381.588 Q55.6912 385.13 55.6912 392.26 Q55.6912 399.366 57.4967 402.931 Q59.3254 406.472 62.9365 406.472 Q66.5707 406.472 68.3763 402.931 Q70.205 399.366 70.205 392.26 Q70.205 385.13 68.3763 381.588 Q66.5707 378.024 62.9365 378.024 M62.9365 374.32 Q68.7467 374.32 71.8022 378.926 Q74.8809 383.51 74.8809 392.26 Q74.8809 400.986 71.8022 405.593 Q68.7467 410.176 62.9365 410.176 Q57.1264 410.176 54.0477 405.593 Q50.9921 400.986 50.9921 392.26 Q50.9921 383.51 54.0477 378.926 Q57.1264 374.32 62.9365 374.32 Z" fill="#000000" fill-rule="nonzero" fill-opacity="1" /><path clip-path="url(#clip570)" d="M83.0984 403.625 L87.9827 403.625 L87.9827 409.505 L83.0984 409.505 L83.0984 403.625 Z" fill="#000000" fill-rule="nonzero" fill-opacity="1" /><path clip-path="url(#clip570)" d="M102.196 405.57 L118.515 405.57 L118.515 409.505 L96.5706 409.505 L96.5706 405.57 Q99.2326 402.815 103.816 398.185 Q108.422 393.533 109.603 392.19 Q111.848 389.667 112.728 387.931 Q113.631 386.172 113.631 384.482 Q113.631 381.727 111.686 379.991 Q109.765 378.255 106.663 378.255 Q104.464 378.255 102.01 379.019 Q99.5798 379.783 96.8021 381.334 L96.8021 376.612 Q99.6261 375.477 102.08 374.899 Q104.534 374.32 106.571 374.32 Q111.941 374.32 115.135 377.005 Q118.33 379.69 118.33 384.181 Q118.33 386.311 117.52 388.232 Q116.733 390.13 114.626 392.723 Q114.047 393.394 110.946 396.611 Q107.844 399.806 102.196 405.57 Z" fill="#000000" fill-rule="nonzero" fill-opacity="1" /><path clip-path="url(#clip570)" d="M138.33 378.024 Q134.719 378.024 132.89 381.588 Q131.084 385.13 131.084 392.26 Q131.084 399.366 132.89 402.931 Q134.719 406.472 138.33 406.472 Q141.964 406.472 143.769 402.931 Q145.598 399.366 145.598 392.26 Q145.598 385.13 143.769 381.588 Q141.964 378.024 138.33 378.024 M138.33 374.32 Q144.14 374.32 147.195 378.926 Q150.274 383.51 150.274 392.26 Q150.274 400.986 147.195 405.593 Q144.14 410.176 138.33 410.176 Q132.519 410.176 129.441 405.593 Q126.385 400.986 126.385 392.26 Q126.385 383.51 129.441 378.926 Q132.519 374.32 138.33 374.32 Z" fill="#000000" fill-rule="nonzero" fill-opacity="1" /><path clip-path="url(#clip570)" d="M63.9319 111.121 Q60.3208 111.121 58.4921 114.686 Q56.6865 118.228 56.6865 125.357 Q56.6865 132.464 58.4921 136.029 Q60.3208 139.57 63.9319 139.57 Q67.5661 139.57 69.3717 136.029 Q71.2004 132.464 71.2004 125.357 Q71.2004 118.228 69.3717 114.686 Q67.5661 111.121 63.9319 111.121 M63.9319 107.418 Q69.742 107.418 72.7976 112.024 Q75.8763 116.607 75.8763 125.357 Q75.8763 134.084 72.7976 138.691 Q69.742 143.274 63.9319 143.274 Q58.1217 143.274 55.043 138.691 Q51.9875 134.084 51.9875 125.357 Q51.9875 116.607 55.043 112.024 Q58.1217 107.418 63.9319 107.418 Z" fill="#000000" fill-rule="nonzero" fill-opacity="1" /><path clip-path="url(#clip570)" d="M84.0938 136.723 L88.978 136.723 L88.978 142.603 L84.0938 142.603 L84.0938 136.723 Z" fill="#000000" fill-rule="nonzero" fill-opacity="1" /><path clip-path="url(#clip570)" d="M103.191 138.668 L119.51 138.668 L119.51 142.603 L97.566 142.603 L97.566 138.668 Q100.228 135.913 104.811 131.283 Q109.418 126.631 110.598 125.288 Q112.844 122.765 113.723 121.029 Q114.626 119.27 114.626 117.58 Q114.626 114.825 112.682 113.089 Q110.76 111.353 107.658 111.353 Q105.459 111.353 103.006 112.117 Q100.575 112.881 97.7974 114.432 L97.7974 109.709 Q100.621 108.575 103.075 107.996 Q105.529 107.418 107.566 107.418 Q112.936 107.418 116.131 110.103 Q119.325 112.788 119.325 117.279 Q119.325 119.408 118.515 121.33 Q117.728 123.228 115.621 125.82 Q115.043 126.492 111.941 129.709 Q108.839 132.904 103.191 138.668 Z" fill="#000000" fill-rule="nonzero" fill-opacity="1" /><path clip-path="url(#clip570)" d="M129.371 108.043 L147.728 108.043 L147.728 111.978 L133.654 111.978 L133.654 120.45 Q134.672 120.103 135.691 119.941 Q136.709 119.756 137.728 119.756 Q143.515 119.756 146.894 122.927 Q150.274 126.098 150.274 131.515 Q150.274 137.093 146.802 140.195 Q143.33 143.274 137.01 143.274 Q134.834 143.274 132.566 142.904 Q130.32 142.533 127.913 141.793 L127.913 137.093 Q129.996 138.228 132.219 138.783 Q134.441 139.339 136.918 139.339 Q140.922 139.339 143.26 137.232 Q145.598 135.126 145.598 131.515 Q145.598 127.904 143.26 125.797 Q140.922 123.691 136.918 123.691 Q135.043 123.691 133.168 124.107 Q131.316 124.524 129.371 125.404 L129.371 108.043 Z" fill="#000000" fill-rule="nonzero" fill-opacity="1" /><polyline clip-path="url(#clip572)" style="stroke:#009af9; stroke-linecap:round; stroke-linejoin:round; stroke-width:4; stroke-opacity:1; fill:none" points="247.59,87.9763 248.611,97.0753 249.633,106.206 250.655,115.368 251.677,124.558 252.699,133.776 253.721,143.02 254.743,152.288 255.765,161.579 256.787,170.89 257.809,180.222 258.831,189.571 259.853,198.937 260.875,208.316 261.896,217.709 262.918,227.112 263.94,236.525 264.962,245.945 265.984,255.371 267.006,264.8 268.028,274.232 269.05,283.663 270.072,293.093 271.094,302.52 272.116,311.941 273.138,321.355 274.16,330.76 275.182,340.154 276.203,349.535 277.225,358.902 278.247,368.253 279.269,377.585 280.291,386.897 281.313,396.188 282.335,405.455 283.357,414.697 284.379,423.911 285.401,433.097 286.423,442.253 287.445,451.376 288.467,460.466 289.488,469.52 290.51,478.536 291.532,487.515 292.554,496.453 293.576,505.349 294.598,514.202 295.62,523.01 296.642,531.773 297.664,540.487 298.686,549.153 299.708,557.769 300.73,566.334 301.752,574.846 302.774,583.304 303.795,591.707 304.817,600.054 305.839,608.344 306.861,616.576 307.883,624.748 308.905,632.861 309.927,640.913 310.949,648.903 311.971,656.831 312.993,664.695 314.015,672.495 315.037,680.231 316.059,687.901 317.08,695.506 318.102,703.044 319.124,710.515 320.146,717.92 321.168,725.256 322.19,732.524 323.212,739.724 324.234,746.856 325.256,753.918 326.278,760.912 327.3,767.836 328.322,774.691 329.344,781.477 330.365,788.193 331.387,794.84 332.409,801.418 333.431,807.926 334.453,814.364 335.475,820.734 336.497,827.034 337.519,833.266 338.541,839.429 339.563,845.524 340.585,851.551 341.607,857.509 342.629,863.401 343.651,869.225 344.672,874.982 345.694,880.673 346.716,886.298 347.738,891.857 348.76,897.35 349.782,902.78 350.804,908.144 351.826,913.445 352.848,918.683 353.87,923.857 354.892,928.97 355.914,934.02 356.936,939.01 357.957,943.938 358.979,948.807 360.001,953.616 361.023,958.365 362.045,963.057 363.067,967.69 364.089,972.267 365.111,976.786 366.133,981.25 367.155,985.658 368.177,990.011 369.199,994.31 370.221,998.556 371.243,1002.75 372.264,1006.89 373.286,1010.98 374.308,1015.01 375.33,1019 376.352,1022.94 377.374,1026.82 378.396,1030.66 379.418,1034.45 380.44,1038.19 381.462,1041.89 382.484,1045.54 383.506,1049.14 384.528,1052.7 385.549,1056.21 386.571,1059.68 387.593,1063.11 388.615,1066.49 389.637,1069.83 390.659,1073.13 391.681,1076.39 392.703,1079.61 393.725,1082.79 394.747,1085.93 395.769,1089.02 396.791,1092.09 397.813,1095.11 398.834,1098.09 399.856,1101.04 400.878,1103.96 401.9,1106.83 402.922,1109.67 403.944,1112.48 404.966,1115.25 405.988,1117.99 407.01,1120.69 408.032,1123.37 409.054,1126.01 410.076,1128.61 411.098,1131.19 412.12,1133.73 413.141,1136.25 414.163,1138.73 415.185,1141.19 416.207,1143.61 417.229,1146.01 418.251,1148.38 419.273,1150.71 420.295,1153.03 421.317,1155.31 422.339,1157.57 423.361,1159.8 424.383,1162 425.405,1164.18 426.426,1166.34 427.448,1168.47 428.47,1170.57 429.492,1172.65 430.514,1174.7 431.536,1176.74 432.558,1178.74 433.58,1180.73 434.602,1182.69 435.624,1184.63 436.646,1186.55 437.668,1188.45 438.69,1190.33 439.712,1192.18 440.733,1194.01 441.755,1195.83 442.777,1197.62 443.799,1199.39 444.821,1201.15 445.843,1202.88 446.865,1204.6 447.887,1206.29 448.909,1207.97 449.931,1209.63 450.953,1211.27 451.975,1212.89 452.997,1214.5 454.018,1216.09 455.04,1217.66 456.062,1219.21 457.084,1220.75 458.106,1222.27 459.128,1223.78 460.15,1225.27 461.172,1226.74 462.194,1228.2 463.216,1229.65 464.238,1231.07 465.26,1232.49 466.282,1233.89 467.303,1235.27 468.325,1236.64 469.347,1238 470.369,1239.34 471.391,1240.67 472.413,1241.98 473.435,1243.28 474.457,1244.57 475.479,1245.85 476.501,1247.11 477.523,1248.36 478.545,1249.6 479.567,1250.82 480.589,1252.03 481.61,1253.24 482.632,1254.42 483.654,1255.6 484.676,1256.77 485.698,1257.92 486.72,1259.07 487.742,1260.2 488.764,1261.32 489.786,1262.43 490.808,1263.53 491.83,1264.62 492.852,1265.7 493.874,1266.77 494.895,1267.83 495.917,1268.88 496.939,1269.91 497.961,1270.94 498.983,1271.96 500.005,1272.97 501.027,1273.97 502.049,1274.97 503.071,1275.95 504.093,1276.92 505.115,1277.89 506.137,1278.84 507.159,1279.79 508.181,1280.73 509.202,1281.66 510.224,1282.58 511.246,1283.49 512.268,1284.4 513.29,1285.29 514.312,1286.18 515.334,1287.06 516.356,1287.93 517.378,1288.8 518.4,1289.66 519.422,1290.51 520.444,1291.35 521.466,1292.19 522.487,1293.02 523.509,1293.84 524.531,1294.65 525.553,1295.46 526.575,1296.26 527.597,1297.05 528.619,1297.84 529.641,1298.62 530.663,1299.39 531.685,1300.16 532.707,1300.92 533.729,1301.67 534.751,1302.42 535.772,1303.16 536.794,1303.9 537.816,1304.63 538.838,1305.35 539.86,1306.07 540.882,1306.78 541.904,1307.48 542.926,1308.18 543.948,1308.88 544.97,1309.57 545.992,1310.25 547.014,1310.93 548.036,1311.6 549.058,1312.26 550.079,1312.93 551.101,1313.58 552.123,1314.23 553.145,1314.88 554.167,1315.52 555.189,1316.16 556.211,1316.79 557.233,1317.41 558.255,1318.03 559.277,1318.65 560.299,1319.26 561.321,1319.87 562.343,1320.47 563.364,1321.07 564.386,1321.66 565.408,1322.25 566.43,1322.83 567.452,1323.41 568.474,1323.98 569.496,1324.56 570.518,1325.12 571.54,1325.68 572.562,1326.24 573.584,1326.8 574.606,1327.35 575.628,1327.89 576.65,1328.43 577.671,1328.97 578.693,1329.5 579.715,1330.03 580.737,1330.56 581.759,1331.08 582.781,1331.6 583.803,1332.11 584.825,1332.63 585.847,1333.13 586.869,1333.64 587.891,1334.14 588.913,1334.63 589.935,1335.13 590.956,1335.61 591.978,1336.1 593,1336.58 594.022,1337.06 595.044,1337.54 596.066,1338.01 597.088,1338.48 598.11,1338.95 599.132,1339.41 600.154,1339.87 601.176,1340.32 602.198,1340.78 603.22,1341.23 604.242,1341.67 605.263,1342.12 606.285,1342.56 607.307,1343 608.329,1343.43 609.351,1343.86 610.373,1344.29 611.395,1344.72 612.417,1345.14 613.439,1345.56 614.461,1345.98 615.483,1346.4 616.505,1346.81 617.527,1347.22 618.548,1347.63 619.57,1348.03 620.592,1348.43 621.614,1348.83 622.636,1349.23 623.658,1349.62 624.68,1350.01 625.702,1350.4 626.724,1350.79 627.746,1351.17 628.768,1351.55 629.79,1351.93 630.812,1352.31 631.833,1352.68 632.855,1353.05 633.877,1353.42 634.899,1353.79 635.921,1354.15 636.943,1354.52 637.965,1354.88 638.987,1355.23 640.009,1355.59 641.031,1355.94 642.053,1356.3 643.075,1356.64 644.097,1356.99 645.119,1357.34 646.14,1357.68 647.162,1358.02 648.184,1358.36 649.206,1358.7 650.228,1359.03 651.25,1359.36 652.272,1359.69 653.294,1360.02 654.316,1360.35 655.338,1360.67 656.36,1361 657.382,1361.32 658.404,1361.63 659.425,1361.95 660.447,1362.27 661.469,1362.58 662.491,1362.89 663.513,1363.2 664.535,1363.51 665.557,1363.81 666.579,1364.12 667.601,1364.42 668.623,1364.72 669.645,1365.02 670.667,1365.32 671.689,1365.61 672.711,1365.91 673.732,1366.2 674.754,1366.49 675.776,1366.78 676.798,1367.07 677.82,1367.35 678.842,1367.64 679.864,1367.92 680.886,1368.2 681.908,1368.48 682.93,1368.75 683.952,1369.03 684.974,1369.31 685.996,1369.58 687.017,1369.85 688.039,1370.12 689.061,1370.39 690.083,1370.66 691.105,1370.92 692.127,1371.18 693.149,1371.45 694.171,1371.71 695.193,1371.97 696.215,1372.23 697.237,1372.48 698.259,1372.74 699.281,1372.99 700.302,1373.25 701.324,1373.5 702.346,1373.75 703.368,1374 704.39,1374.24 705.412,1374.49 706.434,1374.74 707.456,1374.98 708.478,1375.22 709.5,1375.46 710.522,1375.7 711.544,1375.94 712.566,1376.18 713.588,1376.41 714.609,1376.65 715.631,1376.88 716.653,1377.11 717.675,1377.35 718.697,1377.58 719.719,1377.8 720.741,1378.03 721.763,1378.26 722.785,1378.48 723.807,1378.71 724.829,1378.93 725.851,1379.15 726.873,1379.37 727.894,1379.59 728.916,1379.81 729.938,1380.03 730.96,1380.24 731.982,1380.46 733.004,1380.67 734.026,1380.89 735.048,1381.1 736.07,1381.31 737.092,1381.52 738.114,1381.73 739.136,1381.94 740.158,1382.14 741.18,1382.35 742.201,1382.55 743.223,1382.76 744.245,1382.96 745.267,1383.16 746.289,1383.36 747.311,1383.56 748.333,1383.76 749.355,1383.96 750.377,1384.16 751.399,1384.35 752.421,1384.55 753.443,1384.74 754.465,1384.93 755.486,1385.13 756.508,1385.32 757.53,1385.51 758.552,1385.7 759.574,1385.89 760.596,1386.07 761.618,1386.26 762.64,1386.45 763.662,1386.63 764.684,1386.82 765.706,1387 766.728,1387.18 767.75,1387.36 768.771,1387.54 769.793,1387.72 770.815,1387.9 771.837,1388.08 772.859,1388.26 773.881,1388.44 774.903,1388.61 775.925,1388.79 776.947,1388.96 777.969,1389.14 778.991,1389.31 780.013,1389.48 781.035,1389.65 782.057,1389.82 783.078,1389.99 784.1,1390.16 785.122,1390.33 786.144,1390.49 787.166,1390.66 788.188,1390.83 789.21,1390.99 790.232,1391.16 791.254,1391.32 792.276,1391.48 793.298,1391.65 794.32,1391.81 795.342,1391.97 796.363,1392.13 797.385,1392.29 798.407,1392.45 799.429,1392.6 800.451,1392.76 801.473,1392.92 802.495,1393.07 803.517,1393.23 804.539,1393.38 805.561,1393.54 806.583,1393.69 807.605,1393.84 808.627,1393.99 809.649,1394.14 810.67,1394.3 811.692,1394.45 812.714,1394.59 813.736,1394.74 814.758,1394.89 815.78,1395.04 816.802,1395.19 817.824,1395.33 818.846,1395.48 819.868,1395.62 820.89,1395.77 821.912,1395.91 822.934,1396.05 823.955,1396.2 824.977,1396.34 825.999,1396.48 827.021,1396.62 828.043,1396.76 829.065,1396.9 830.087,1397.04 831.109,1397.18 832.131,1397.31 833.153,1397.45 834.175,1397.59 835.197,1397.72 836.219,1397.86 837.24,1397.99 838.262,1398.13 839.284,1398.26 840.306,1398.4 841.328,1398.53 842.35,1398.66 843.372,1398.79 844.394,1398.92 845.416,1399.05 846.438,1399.18 847.46,1399.31 848.482,1399.44 849.504,1399.57 850.526,1399.7 851.547,1399.83 852.569,1399.96 853.591,1400.08 854.613,1400.21 855.635,1400.33 856.657,1400.46 857.679,1400.58 858.701,1400.71 859.723,1400.83 860.745,1400.95 861.767,1401.08 862.789,1401.2 863.811,1401.32 864.832,1401.44 865.854,1401.56 866.876,1401.68 867.898,1401.8 868.92,1401.92 869.942,1402.04 870.964,1402.16 871.986,1402.28 873.008,1402.39 874.03,1402.51 875.052,1402.63 876.074,1402.74 877.096,1402.86 878.118,1402.98 879.139,1403.09 880.161,1403.2 881.183,1403.32 882.205,1403.43 883.227,1403.55 884.249,1403.66 885.271,1403.77 886.293,1403.88 887.315,1403.99 888.337,1404.1 889.359,1404.21 890.381,1404.33 891.403,1404.43 892.424,1404.54 893.446,1404.65 894.468,1404.76 895.49,1404.87 896.512,1404.98 897.534,1405.09 898.556,1405.19 899.578,1405.3 900.6,1405.4 901.622,1405.51 902.644,1405.62 903.666,1405.72 904.688,1405.83 905.71,1405.93 906.731,1406.03 907.753,1406.14 908.775,1406.24 909.797,1406.34 910.819,1406.45 911.841,1406.55 912.863,1406.65 913.885,1406.75 914.907,1406.85 915.929,1406.95 916.951,1407.05 917.973,1407.15 918.995,1407.25 920.016,1407.35 921.038,1407.45 922.06,1407.55 923.082,1407.65 924.104,1407.74 925.126,1407.84 926.148,1407.94 927.17,1408.03 928.192,1408.13 929.214,1408.23 930.236,1408.32 931.258,1408.42 932.28,1408.51 933.301,1408.61 934.323,1408.7 935.345,1408.8 936.367,1408.89 937.389,1408.98 938.411,1409.08 939.433,1409.17 940.455,1409.26 941.477,1409.35 942.499,1409.45 943.521,1409.54 944.543,1409.63 945.565,1409.72 946.587,1409.81 947.608,1409.9 948.63,1409.99 949.652,1410.08 950.674,1410.17 951.696,1410.26 952.718,1410.35 953.74,1410.43 954.762,1410.52 955.784,1410.61 956.806,1410.7 957.828,1410.79 958.85,1410.87 959.872,1410.96 960.893,1411.05 961.915,1411.13 962.937,1411.22 963.959,1411.3 964.981,1411.39 966.003,1411.47 967.025,1411.56 968.047,1411.64 969.069,1411.73 970.091,1411.81 971.113,1411.89 972.135,1411.98 973.157,1412.06 974.179,1412.14 975.2,1412.22 976.222,1412.31 977.244,1412.39 978.266,1412.47 979.288,1412.55 980.31,1412.63 981.332,1412.71 982.354,1412.79 983.376,1412.87 984.398,1412.95 985.42,1413.03 986.442,1413.11 987.464,1413.19 988.485,1413.27 989.507,1413.35 990.529,1413.43 991.551,1413.51 992.573,1413.59 993.595,1413.66 994.617,1413.74 995.639,1413.82 996.661,1413.9 997.683,1413.97 998.705,1414.05 999.727,1414.13 1000.75,1414.2 1001.77,1414.28 1002.79,1414.35 1003.81,1414.43 1004.84,1414.5 1005.86,1414.58 1006.88,1414.65 1007.9,1414.73 1008.92,1414.8 1009.95,1414.88 1010.97,1414.95 1011.99,1415.02 1013.01,1415.1 1014.03,1415.17 1015.06,1415.24 1016.08,1415.31 1017.1,1415.39 1018.12,1415.46 1019.14,1415.53 1020.17,1415.6 1021.19,1415.67 1022.21,1415.75 1023.23,1415.82 1024.25,1415.89 1025.27,1415.96 1026.3,1416.03 1027.32,1416.1 1028.34,1416.17 1029.36,1416.24 1030.38,1416.31 1031.41,1416.38 1032.43,1416.45 1033.45,1416.52 1034.47,1416.58 1035.49,1416.65 1036.52,1416.72 1037.54,1416.79 1038.56,1416.86 1039.58,1416.92 1040.6,1416.99 1041.63,1417.06 1042.65,1417.13 1043.67,1417.19 1044.69,1417.26 1045.71,1417.33 1046.74,1417.39 1047.76,1417.46 1048.78,1417.52 1049.8,1417.59 1050.82,1417.66 1051.84,1417.72 1052.87,1417.79 1053.89,1417.85 1054.91,1417.92 1055.93,1417.98 1056.95,1418.05 1057.98,1418.11 1059,1418.17 1060.02,1418.24 1061.04,1418.3 1062.06,1418.36 1063.09,1418.43 1064.11,1418.49 1065.13,1418.55 1066.15,1418.62 1067.17,1418.68 1068.2,1418.74 1069.22,1418.8 1070.24,1418.87 1071.26,1418.93 1072.28,1418.99 1073.31,1419.05 1074.33,1419.11 1075.35,1419.17 1076.37,1419.23 1077.39,1419.29 1078.41,1419.35 1079.44,1419.42 1080.46,1419.48 1081.48,1419.54 1082.5,1419.6 1083.52,1419.66 1084.55,1419.71 1085.57,1419.77 1086.59,1419.83 1087.61,1419.89 1088.63,1419.95 1089.66,1420.01 1090.68,1420.07 1091.7,1420.13 1092.72,1420.19 1093.74,1420.24 1094.77,1420.3 1095.79,1420.36 1096.81,1420.42 1097.83,1420.47 1098.85,1420.53 1099.88,1420.59 1100.9,1420.65 1101.92,1420.7 1102.94,1420.76 1103.96,1420.82 1104.98,1420.87 1106.01,1420.93 1107.03,1420.98 1108.05,1421.04 1109.07,1421.1 1110.09,1421.15 1111.12,1421.21 1112.14,1421.26 1113.16,1421.32 1114.18,1421.37 1115.2,1421.43 1116.23,1421.48 1117.25,1421.54 1118.27,1421.59 1119.29,1421.64 1120.31,1421.7 1121.34,1421.75 1122.36,1421.81 1123.38,1421.86 1124.4,1421.91 1125.42,1421.97 1126.45,1422.02 1127.47,1422.07 1128.49,1422.13 1129.51,1422.18 1130.53,1422.23 1131.56,1422.28 1132.58,1422.34 1133.6,1422.39 1134.62,1422.44 1135.64,1422.49 1136.66,1422.54 1137.69,1422.6 1138.71,1422.65 1139.73,1422.7 1140.75,1422.75 1141.77,1422.8 1142.8,1422.85 1143.82,1422.9 1144.84,1422.95 1145.86,1423.01 1146.88,1423.06 1147.91,1423.11 1148.93,1423.16 1149.95,1423.21 1150.97,1423.26 1151.99,1423.31 1153.02,1423.36 1154.04,1423.41 1155.06,1423.45 1156.08,1423.5 1157.1,1423.55 1158.13,1423.6 1159.15,1423.65 1160.17,1423.7 1161.19,1423.75 1162.21,1423.8 1163.23,1423.85 1164.26,1423.89 1165.28,1423.94 1166.3,1423.99 1167.32,1424.04 1168.34,1424.09 1169.37,1424.13 1170.39,1424.18 1171.41,1424.23 1172.43,1424.28 1173.45,1424.32 1174.48,1424.37 1175.5,1424.42 1176.52,1424.46 1177.54,1424.51 1178.56,1424.56 1179.59,1424.6 1180.61,1424.65 1181.63,1424.7 1182.65,1424.74 1183.67,1424.79 1184.7,1424.83 1185.72,1424.88 1186.74,1424.93 1187.76,1424.97 1188.78,1425.02 1189.8,1425.06 1190.83,1425.11 1191.85,1425.15 1192.87,1425.2 1193.89,1425.24 1194.91,1425.29 1195.94,1425.33 1196.96,1425.38 1197.98,1425.42 1199,1425.47 1200.02,1425.51 1201.05,1425.55 1202.07,1425.6 1203.09,1425.64 1204.11,1425.69 1205.13,1425.73 1206.16,1425.77 1207.18,1425.82 1208.2,1425.86 1209.22,1425.9 1210.24,1425.95 1211.27,1425.99 1212.29,1426.03 1213.31,1426.08 1214.33,1426.12 1215.35,1426.16 1216.37,1426.2 1217.4,1426.25 1218.42,1426.29 1219.44,1426.33 1220.46,1426.37 1221.48,1426.41 1222.51,1426.46 1223.53,1426.5 1224.55,1426.54 1225.57,1426.58 1226.59,1426.62 1227.62,1426.67 1228.64,1426.71 1229.66,1426.75 1230.68,1426.79 1231.7,1426.83 1232.73,1426.87 1233.75,1426.91 1234.77,1426.95 1235.79,1426.99 1236.81,1427.03 1237.84,1427.07 1238.86,1427.11 1239.88,1427.15 1240.9,1427.2 1241.92,1427.24 1242.94,1427.28 1243.97,1427.32 1244.99,1427.35 1246.01,1427.39 1247.03,1427.43 1248.05,1427.47 1249.08,1427.51 1250.1,1427.55 1251.12,1427.59 1252.14,1427.63 1253.16,1427.67 1254.19,1427.71 1255.21,1427.75 1256.23,1427.79 1257.25,1427.83 1258.27,1427.86 1259.3,1427.9 1260.32,1427.94 1261.34,1427.98 1262.36,1428.02 1263.38,1428.06 1264.41,1428.09 1265.43,1428.13 1266.45,1428.17 1267.47,1428.21 1268.49,1428.25 1269.51,1428.28 1270.54,1428.32 1271.56,1428.36 1272.58,1428.4 1273.6,1428.43 1274.62,1428.47 1275.65,1428.51 1276.67,1428.54 1277.69,1428.58 1278.71,1428.62 1279.73,1428.66 1280.76,1428.69 1281.78,1428.73 1282.8,1428.77 1283.82,1428.8 1284.84,1428.84 1285.87,1428.87 1286.89,1428.91 1287.91,1428.95 1288.93,1428.98 1289.95,1429.02 1290.98,1429.05 1292,1429.09 1293.02,1429.13 1294.04,1429.16 1295.06,1429.2 1296.09,1429.23 1297.11,1429.27 1298.13,1429.3 1299.15,1429.34 1300.17,1429.37 1301.19,1429.41 1302.22,1429.44 1303.24,1429.48 1304.26,1429.51 1305.28,1429.55 1306.3,1429.58 1307.33,1429.62 1308.35,1429.65 1309.37,1429.69 1310.39,1429.72 1311.41,1429.76 1312.44,1429.79 1313.46,1429.83 1314.48,1429.86 1315.5,1429.89 1316.52,1429.93 1317.55,1429.96 1318.57,1430 1319.59,1430.03 1320.61,1430.06 1321.63,1430.1 1322.66,1430.13 1323.68,1430.16 1324.7,1430.2 1325.72,1430.23 1326.74,1430.26 1327.76,1430.3 1328.79,1430.33 1329.81,1430.36 1330.83,1430.4 1331.85,1430.43 1332.87,1430.46 1333.9,1430.49 1334.92,1430.53 1335.94,1430.56 1336.96,1430.59 1337.98,1430.62 1339.01,1430.66 1340.03,1430.69 1341.05,1430.72 1342.07,1430.75 1343.09,1430.79 1344.12,1430.82 1345.14,1430.85 1346.16,1430.88 1347.18,1430.91 1348.2,1430.95 1349.23,1430.98 1350.25,1431.01 1351.27,1431.04 1352.29,1431.07 1353.31,1431.1 1354.33,1431.14 1355.36,1431.17 1356.38,1431.2 1357.4,1431.23 1358.42,1431.26 1359.44,1431.29 1360.47,1431.32 1361.49,1431.35 1362.51,1431.38 1363.53,1431.42 1364.55,1431.45 1365.58,1431.48 1366.6,1431.51 1367.62,1431.54 1368.64,1431.57 1369.66,1431.6 1370.69,1431.63 1371.71,1431.66 1372.73,1431.69 1373.75,1431.72 1374.77,1431.75 1375.8,1431.78 1376.82,1431.81 1377.84,1431.84 1378.86,1431.87 1379.88,1431.9 1380.9,1431.93 1381.93,1431.96 1382.95,1431.99 1383.97,1432.02 1384.99,1432.05 1386.01,1432.08 1387.04,1432.11 1388.06,1432.14 1389.08,1432.17 1390.1,1432.19 1391.12,1432.22 1392.15,1432.25 1393.17,1432.28 1394.19,1432.31 1395.21,1432.34 1396.23,1432.37 1397.26,1432.4 1398.28,1432.43 1399.3,1432.46 1400.32,1432.48 1401.34,1432.51 1402.37,1432.54 1403.39,1432.57 1404.41,1432.6 1405.43,1432.63 1406.45,1432.65 1407.47,1432.68 1408.5,1432.71 1409.52,1432.74 1410.54,1432.77 1411.56,1432.8 1412.58,1432.82 1413.61,1432.85 1414.63,1432.88 1415.65,1432.91 1416.67,1432.93 1417.69,1432.96 1418.72,1432.99 1419.74,1433.02 1420.76,1433.04 1421.78,1433.07 1422.8,1433.1 1423.83,1433.13 1424.85,1433.15 1425.87,1433.18 1426.89,1433.21 1427.91,1433.24 1428.94,1433.26 1429.96,1433.29 1430.98,1433.32 1432,1433.34 1433.02,1433.37 1434.04,1433.4 1435.07,1433.42 1436.09,1433.45 1437.11,1433.48 1438.13,1433.5 1439.15,1433.53 1440.18,1433.56 1441.2,1433.58 1442.22,1433.61 1443.24,1433.64 1444.26,1433.66 1445.29,1433.69 1446.31,1433.72 1447.33,1433.74 1448.35,1433.77 1449.37,1433.79 1450.4,1433.82 1451.42,1433.85 1452.44,1433.87 1453.46,1433.9 1454.48,1433.92 1455.51,1433.95 1456.53,1433.98 1457.55,1434 1458.57,1434.03 1459.59,1434.05 1460.62,1434.08 1461.64,1434.1 1462.66,1434.13 1463.68,1434.15 1464.7,1434.18 1465.72,1434.2 1466.75,1434.23 1467.77,1434.25 1468.79,1434.28 1469.81,1434.31 1470.83,1434.33 1471.86,1434.36 1472.88,1434.38 1473.9,1434.4 1474.92,1434.43 1475.94,1434.45 1476.97,1434.48 1477.99,1434.5 1479.01,1434.53 1480.03,1434.55 1481.05,1434.58 1482.08,1434.6 1483.1,1434.63 1484.12,1434.65 1485.14,1434.68 1486.16,1434.7 1487.19,1434.72 1488.21,1434.75 1489.23,1434.77 1490.25,1434.8 1491.27,1434.82 1492.29,1434.85 1493.32,1434.87 1494.34,1434.89 1495.36,1434.92 1496.38,1434.94 1497.4,1434.97 1498.43,1434.99 1499.45,1435.01 1500.47,1435.04 1501.49,1435.06 1502.51,1435.08 1503.54,1435.11 1504.56,1435.13 1505.58,1435.15 1506.6,1435.18 1507.62,1435.2 1508.65,1435.22 1509.67,1435.25 1510.69,1435.27 1511.71,1435.29 1512.73,1435.32 1513.76,1435.34 1514.78,1435.36 1515.8,1435.39 1516.82,1435.41 1517.84,1435.43 1518.86,1435.46 1519.89,1435.48 1520.91,1435.5 1521.93,1435.52 1522.95,1435.55 1523.97,1435.57 1525,1435.59 1526.02,1435.62 1527.04,1435.64 1528.06,1435.66 1529.08,1435.68 1530.11,1435.71 1531.13,1435.73 1532.15,1435.75 1533.17,1435.77 1534.19,1435.8 1535.22,1435.82 1536.24,1435.84 1537.26,1435.86 1538.28,1435.88 1539.3,1435.91 1540.33,1435.93 1541.35,1435.95 1542.37,1435.97 1543.39,1436 1544.41,1436.02 1545.43,1436.04 1546.46,1436.06 1547.48,1436.08 1548.5,1436.1 1549.52,1436.13 1550.54,1436.15 1551.57,1436.17 1552.59,1436.19 1553.61,1436.21 1554.63,1436.23 1555.65,1436.26 1556.68,1436.28 1557.7,1436.3 1558.72,1436.32 1559.74,1436.34 1560.76,1436.36 1561.79,1436.38 1562.81,1436.41 1563.83,1436.43 1564.85,1436.45 1565.87,1436.47 1566.9,1436.49 1567.92,1436.51 1568.94,1436.53 1569.96,1436.55 1570.98,1436.57 1572,1436.6 1573.03,1436.62 1574.05,1436.64 1575.07,1436.66 1576.09,1436.68 1577.11,1436.7 1578.14,1436.72 1579.16,1436.74 1580.18,1436.76 1581.2,1436.78 1582.22,1436.8 1583.25,1436.82 1584.27,1436.84 1585.29,1436.86 1586.31,1436.88 1587.33,1436.91 1588.36,1436.93 1589.38,1436.95 1590.4,1436.97 1591.42,1436.99 1592.44,1437.01 1593.47,1437.03 1594.49,1437.05 1595.51,1437.07 1596.53,1437.09 1597.55,1437.11 1598.57,1437.13 1599.6,1437.15 1600.62,1437.17 1601.64,1437.19 1602.66,1437.21 1603.68,1437.23 1604.71,1437.25 1605.73,1437.27 1606.75,1437.29 1607.77,1437.31 1608.79,1437.33 1609.82,1437.35 1610.84,1437.37 1611.86,1437.38 1612.88,1437.4 1613.9,1437.42 1614.93,1437.44 1615.95,1437.46 1616.97,1437.48 1617.99,1437.5 1619.01,1437.52 1620.04,1437.54 1621.06,1437.56 1622.08,1437.58 1623.1,1437.6 1624.12,1437.62 1625.15,1437.64 1626.17,1437.66 1627.19,1437.67 1628.21,1437.69 1629.23,1437.71 1630.25,1437.73 1631.28,1437.75 1632.3,1437.77 1633.32,1437.79 1634.34,1437.81 1635.36,1437.83 1636.39,1437.85 1637.41,1437.86 1638.43,1437.88 1639.45,1437.9 1640.47,1437.92 1641.5,1437.94 1642.52,1437.96 1643.54,1437.98 1644.56,1437.99 1645.58,1438.01 1646.61,1438.03 1647.63,1438.05 1648.65,1438.07 1649.67,1438.09 1650.69,1438.11 1651.72,1438.12 1652.74,1438.14 1653.76,1438.16 1654.78,1438.18 1655.8,1438.2 1656.82,1438.22 1657.85,1438.23 1658.87,1438.25 1659.89,1438.27 1660.91,1438.29 1661.93,1438.31 1662.96,1438.32 1663.98,1438.34 1665,1438.36 1666.02,1438.38 1667.04,1438.4 1668.07,1438.41 1669.09,1438.43 1670.11,1438.45 1671.13,1438.47 1672.15,1438.49 1673.18,1438.5 1674.2,1438.52 1675.22,1438.54 1676.24,1438.56 1677.26,1438.57 1678.29,1438.59 1679.31,1438.61 1680.33,1438.63 1681.35,1438.64 1682.37,1438.66 1683.39,1438.68 1684.42,1438.7 1685.44,1438.71 1686.46,1438.73 1687.48,1438.75 1688.5,1438.77 1689.53,1438.78 1690.55,1438.8 1691.57,1438.82 1692.59,1438.84 1693.61,1438.85 1694.64,1438.87 1695.66,1438.89 1696.68,1438.9 1697.7,1438.92 1698.72,1438.94 1699.75,1438.95 1700.77,1438.97 1701.79,1438.99 1702.81,1439.01 1703.83,1439.02 1704.86,1439.04 1705.88,1439.06 1706.9,1439.07 1707.92,1439.09 1708.94,1439.11 1709.96,1439.12 1710.99,1439.14 1712.01,1439.16 1713.03,1439.17 1714.05,1439.19 1715.07,1439.21 1716.1,1439.22 1717.12,1439.24 1718.14,1439.26 1719.16,1439.27 1720.18,1439.29 1721.21,1439.31 1722.23,1439.32 1723.25,1439.34 1724.27,1439.36 1725.29,1439.37 1726.32,1439.39 1727.34,1439.41 1728.36,1439.42 1729.38,1439.44 1730.4,1439.45 1731.43,1439.47 1732.45,1439.49 1733.47,1439.5 1734.49,1439.52 1735.51,1439.53 1736.53,1439.55 1737.56,1439.57 1738.58,1439.58 1739.6,1439.6 1740.62,1439.62 1741.64,1439.63 1742.67,1439.65 1743.69,1439.66 1744.71,1439.68 1745.73,1439.69 1746.75,1439.71 1747.78,1439.73 1748.8,1439.74 1749.82,1439.76 1750.84,1439.77 1751.86,1439.79 1752.89,1439.81 1753.91,1439.82 1754.93,1439.84 1755.95,1439.85 1756.97,1439.87 1758,1439.88 1759.02,1439.9 1760.04,1439.91 1761.06,1439.93 1762.08,1439.95 1763.1,1439.96 1764.13,1439.98 1765.15,1439.99 1766.17,1440.01 1767.19,1440.02 1768.21,1440.04 1769.24,1440.05 1770.26,1440.07 1771.28,1440.08 1772.3,1440.1 1773.32,1440.12 1774.35,1440.13 1775.37,1440.15 1776.39,1440.16 1777.41,1440.18 1778.43,1440.19 1779.46,1440.21 1780.48,1440.22 1781.5,1440.24 1782.52,1440.25 1783.54,1440.27 1784.57,1440.28 1785.59,1440.3 1786.61,1440.31 1787.63,1440.33 1788.65,1440.34 1789.67,1440.36 1790.7,1440.37 1791.72,1440.39 1792.74,1440.4 1793.76,1440.42 1794.78,1440.43 1795.81,1440.45 1796.83,1440.46 1797.85,1440.47 1798.87,1440.49 1799.89,1440.5 1800.92,1440.52 1801.94,1440.53 1802.96,1440.55 1803.98,1440.56 1805,1440.58 1806.03,1440.59 1807.05,1440.61 1808.07,1440.62 1809.09,1440.64 1810.11,1440.65 1811.14,1440.66 1812.16,1440.68 1813.18,1440.69 1814.2,1440.71 1815.22,1440.72 1816.25,1440.74 1817.27,1440.75 1818.29,1440.76 1819.31,1440.78 1820.33,1440.79 1821.35,1440.81 1822.38,1440.82 1823.4,1440.84 1824.42,1440.85 1825.44,1440.86 1826.46,1440.88 1827.49,1440.89 1828.51,1440.91 1829.53,1440.92 1830.55,1440.93 1831.57,1440.95 1832.6,1440.96 1833.62,1440.98 1834.64,1440.99 1835.66,1441 1836.68,1441.02 1837.71,1441.03 1838.73,1441.05 1839.75,1441.06 1840.77,1441.07 1841.79,1441.09 1842.82,1441.1 1843.84,1441.12 1844.86,1441.13 1845.88,1441.14 1846.9,1441.16 1847.92,1441.17 1848.95,1441.18 1849.97,1441.2 1850.99,1441.21 1852.01,1441.23 1853.03,1441.24 1854.06,1441.25 1855.08,1441.27 1856.1,1441.28 1857.12,1441.29 1858.14,1441.31 1859.17,1441.32 1860.19,1441.33 1861.21,1441.35 1862.23,1441.36 1863.25,1441.37 1864.28,1441.39 1865.3,1441.4 1866.32,1441.41 1867.34,1441.43 1868.36,1441.44 1869.39,1441.45 1870.41,1441.47 1871.43,1441.48 1872.45,1441.49 1873.47,1441.51 1874.49,1441.52 1875.52,1441.53 1876.54,1441.55 1877.56,1441.56 1878.58,1441.57 1879.6,1441.59 1880.63,1441.6 1881.65,1441.61 1882.67,1441.63 1883.69,1441.64 1884.71,1441.65 1885.74,1441.66 1886.76,1441.68 1887.78,1441.69 1888.8,1441.7 1889.82,1441.72 1890.85,1441.73 1891.87,1441.74 1892.89,1441.76 1893.91,1441.77 1894.93,1441.78 1895.96,1441.79 1896.98,1441.81 1898,1441.82 1899.02,1441.83 1900.04,1441.85 1901.06,1441.86 1902.09,1441.87 1903.11,1441.88 1904.13,1441.9 1905.15,1441.91 1906.17,1441.92 1907.2,1441.93 1908.22,1441.95 1909.24,1441.96 1910.26,1441.97 1911.28,1441.98 1912.31,1442 1913.33,1442.01 1914.35,1442.02 1915.37,1442.04 1916.39,1442.05 1917.42,1442.06 1918.44,1442.07 1919.46,1442.08 1920.48,1442.1 1921.5,1442.11 1922.53,1442.12 1923.55,1442.13 1924.57,1442.15 1925.59,1442.16 1926.61,1442.17 1927.63,1442.18 1928.66,1442.2 1929.68,1442.21 1930.7,1442.22 1931.72,1442.23 1932.74,1442.25 1933.77,1442.26 1934.79,1442.27 1935.81,1442.28 1936.83,1442.29 1937.85,1442.31 1938.88,1442.32 1939.9,1442.33 1940.92,1442.34 1941.94,1442.35 1942.96,1442.37 1943.99,1442.38 1945.01,1442.39 1946.03,1442.4 1947.05,1442.41 1948.07,1442.43 1949.1,1442.44 1950.12,1442.45 1951.14,1442.46 1952.16,1442.47 1953.18,1442.49 1954.2,1442.5 1955.23,1442.51 1956.25,1442.52 1957.27,1442.53 1958.29,1442.55 1959.31,1442.56 1960.34,1442.57 1961.36,1442.58 1962.38,1442.59 1963.4,1442.6 1964.42,1442.62 1965.45,1442.63 1966.47,1442.64 1967.49,1442.65 1968.51,1442.66 1969.53,1442.68 1970.56,1442.69 1971.58,1442.7 1972.6,1442.71 1973.62,1442.72 1974.64,1442.73 1975.67,1442.74 1976.69,1442.76 1977.71,1442.77 1978.73,1442.78 1979.75,1442.79 1980.78,1442.8 1981.8,1442.81 1982.82,1442.83 1983.84,1442.84 1984.86,1442.85 1985.88,1442.86 1986.91,1442.87 1987.93,1442.88 1988.95,1442.89 1989.97,1442.91 1990.99,1442.92 1992.02,1442.93 1993.04,1442.94 1994.06,1442.95 1995.08,1442.96 1996.1,1442.97 1997.13,1442.98 1998.15,1443 1999.17,1443.01 2000.19,1443.02 2001.21,1443.03 2002.24,1443.04 2003.26,1443.05 2004.28,1443.06 2005.3,1443.07 2006.32,1443.08 2007.35,1443.1 2008.37,1443.11 2009.39,1443.12 2010.41,1443.13 2011.43,1443.14 2012.45,1443.15 2013.48,1443.16 2014.5,1443.17 2015.52,1443.18 2016.54,1443.2 2017.56,1443.21 2018.59,1443.22 2019.61,1443.23 2020.63,1443.24 2021.65,1443.25 2022.67,1443.26 2023.7,1443.27 2024.72,1443.28 2025.74,1443.29 2026.76,1443.3 2027.78,1443.32 2028.81,1443.33 2029.83,1443.34 2030.85,1443.35 2031.87,1443.36 2032.89,1443.37 2033.92,1443.38 2034.94,1443.39 2035.96,1443.4 2036.98,1443.41 2038,1443.42 2039.02,1443.43 2040.05,1443.44 2041.07,1443.46 2042.09,1443.47 2043.11,1443.48 2044.13,1443.49 2045.16,1443.5 2046.18,1443.51 2047.2,1443.52 2048.22,1443.53 2049.24,1443.54 2050.27,1443.55 2051.29,1443.56 2052.31,1443.57 2053.33,1443.58 2054.35,1443.59 2055.38,1443.6 2056.4,1443.61 2057.42,1443.62 2058.44,1443.63 2059.46,1443.64 2060.49,1443.66 2061.51,1443.67 2062.53,1443.68 2063.55,1443.69 2064.57,1443.7 2065.59,1443.71 2066.62,1443.72 2067.64,1443.73 2068.66,1443.74 2069.68,1443.75 2070.7,1443.76 2071.73,1443.77 2072.75,1443.78 2073.77,1443.79 2074.79,1443.8 2075.81,1443.81 2076.84,1443.82 2077.86,1443.83 2078.88,1443.84 2079.9,1443.85 2080.92,1443.86 2081.95,1443.87 2082.97,1443.88 2083.99,1443.89 2085.01,1443.9 2086.03,1443.91 2087.06,1443.92 2088.08,1443.93 2089.1,1443.94 2090.12,1443.95 2091.14,1443.96 2092.16,1443.97 2093.19,1443.98 2094.21,1443.99 2095.23,1444 2096.25,1444.01 2097.27,1444.02 2098.3,1444.03 2099.32,1444.04 2100.34,1444.05 2101.36,1444.06 2102.38,1444.07 2103.41,1444.08 2104.43,1444.09 2105.45,1444.1 2106.47,1444.11 2107.49,1444.12 2108.52,1444.13 2109.54,1444.14 2110.56,1444.15 2111.58,1444.16 2112.6,1444.17 2113.63,1444.18 2114.65,1444.19 2115.67,1444.2 2116.69,1444.21 2117.71,1444.22 2118.73,1444.23 2119.76,1444.24 2120.78,1444.25 2121.8,1444.26 2122.82,1444.27 2123.84,1444.28 2124.87,1444.29 2125.89,1444.3 2126.91,1444.3 2127.93,1444.31 2128.95,1444.32 2129.98,1444.33 2131,1444.34 2132.02,1444.35 2133.04,1444.36 2134.06,1444.37 2135.09,1444.38 2136.11,1444.39 2137.13,1444.4 2138.15,1444.41 2139.17,1444.42 2140.2,1444.43 2141.22,1444.44 2142.24,1444.45 2143.26,1444.46 2144.28,1444.47 2145.31,1444.48 2146.33,1444.49 2147.35,1444.49 2148.37,1444.5 2149.39,1444.51 2150.41,1444.52 2151.44,1444.53 2152.46,1444.54 2153.48,1444.55 2154.5,1444.56 2155.52,1444.57 2156.55,1444.58 2157.57,1444.59 2158.59,1444.6 2159.61,1444.61 2160.63,1444.62 2161.66,1444.63 2162.68,1444.63 2163.7,1444.64 2164.72,1444.65 2165.74,1444.66 2166.77,1444.67 2167.79,1444.68 2168.81,1444.69 2169.83,1444.7 2170.85,1444.71 2171.88,1444.72 2172.9,1444.73 2173.92,1444.74 2174.94,1444.74 2175.96,1444.75 2176.98,1444.76 2178.01,1444.77 2179.03,1444.78 2180.05,1444.79 2181.07,1444.8 2182.09,1444.81 2183.12,1444.82 2184.14,1444.83 2185.16,1444.83 2186.18,1444.84 2187.2,1444.85 2188.23,1444.86 2189.25,1444.87 2190.27,1444.88 2191.29,1444.89 2192.31,1444.9 2193.34,1444.91 2194.36,1444.91 2195.38,1444.92 2196.4,1444.93 2197.42,1444.94 2198.45,1444.95 2199.47,1444.96 2200.49,1444.97 2201.51,1444.98 2202.53,1444.99 2203.55,1444.99 2204.58,1445 2205.6,1445.01 2206.62,1445.02 2207.64,1445.03 2208.66,1445.04 2209.69,1445.05 2210.71,1445.06 2211.73,1445.06 2212.75,1445.07 2213.77,1445.08 2214.8,1445.09 2215.82,1445.1 2216.84,1445.11 2217.86,1445.12 2218.88,1445.13 2219.91,1445.13 2220.93,1445.14 2221.95,1445.15 2222.97,1445.16 2223.99,1445.17 2225.02,1445.18 2226.04,1445.19 2227.06,1445.19 2228.08,1445.2 2229.1,1445.21 2230.12,1445.22 2231.15,1445.23 2232.17,1445.24 2233.19,1445.25 2234.21,1445.25 2235.23,1445.26 2236.26,1445.27 2237.28,1445.28 2238.3,1445.29 2239.32,1445.3 2240.34,1445.3 2241.37,1445.31 2242.39,1445.32 2243.41,1445.33 2244.43,1445.34 2245.45,1445.35 2246.48,1445.36 2247.5,1445.36 2248.52,1445.37 2249.54,1445.38 2250.56,1445.39 2251.59,1445.4 2252.61,1445.41 2253.63,1445.41 2254.65,1445.42 2255.67,1445.43 2256.69,1445.44 2257.72,1445.45 2258.74,1445.46 2259.76,1445.46 2260.78,1445.47 2261.8,1445.48 2262.83,1445.49 2263.85,1445.5 2264.87,1445.5 2265.89,1445.51 2266.91,1445.52 2267.94,1445.53 2268.96,1445.54 2269.98,1445.55 2271,1445.55 2272.02,1445.56 2273.05,1445.57 2274.07,1445.58 2275.09,1445.59 2276.11,1445.59 2277.13,1445.6 2278.16,1445.61 2279.18,1445.62 2280.2,1445.63 2281.22,1445.64 2282.24,1445.64 2283.26,1445.65 2284.29,1445.66 2285.31,1445.67 2286.33,1445.68 2287.35,1445.68 2288.37,1445.69 2289.4,1445.7 2290.42,1445.71 2291.44,1445.72 "/>
<path clip-path="url(#clip570)" d="M2011.46 198.898 L2280.54 198.898 L2280.54 95.2176 L2011.46 95.2176  Z" fill="#ffffff" fill-rule="evenodd" fill-opacity="1"/>
<polyline clip-path="url(#clip570)" style="stroke:#000000; stroke-linecap:round; stroke-linejoin:round; stroke-width:4; stroke-opacity:1; fill:none" points="2011.46,198.898 2280.54,198.898 2280.54,95.2176 2011.46,95.2176 2011.46,198.898 "/>
<polyline clip-path="url(#clip570)" style="stroke:#009af9; stroke-linecap:round; stroke-linejoin:round; stroke-width:4; stroke-opacity:1; fill:none" points="2035.53,147.058 2179.97,147.058 "/>
<path clip-path="url(#clip570)" d="M2217.88 166.745 Q2216.07 171.375 2214.36 172.787 Q2212.65 174.199 2209.78 174.199 L2206.38 174.199 L2206.38 170.634 L2208.88 170.634 Q2210.63 170.634 2211.61 169.8 Q2212.58 168.967 2213.76 165.865 L2214.52 163.921 L2204.04 138.412 L2208.55 138.412 L2216.65 158.689 L2224.76 138.412 L2229.27 138.412 L2217.88 166.745 Z" fill="#000000" fill-rule="nonzero" fill-opacity="1" /><path clip-path="url(#clip570)" d="M2236.56 160.402 L2244.2 160.402 L2244.2 134.037 L2235.89 135.703 L2235.89 131.444 L2244.15 129.778 L2248.83 129.778 L2248.83 160.402 L2256.47 160.402 L2256.47 164.338 L2236.56 164.338 L2236.56 160.402 Z" fill="#000000" fill-rule="nonzero" fill-opacity="1" /></svg>
