<?xml version="1.0" encoding="utf-8"?>
<svg xmlns="http://www.w3.org/2000/svg" xmlns:xlink="http://www.w3.org/1999/xlink" width="600" height="400" viewBox="0 0 2400 1600">
<defs>
  <clipPath id="clip570">
    <rect x="0" y="0" width="2400" height="1600"/>
  </clipPath>
</defs>
<path clip-path="url(#clip570)" d="M0 1600 L2400 1600 L2400 0 L0 0  Z" fill="#ffffff" fill-rule="evenodd" fill-opacity="1"/>
<defs>
  <clipPath id="clip571">
    <rect x="480" y="0" width="1681" height="1600"/>
  </clipPath>
</defs>
<path clip-path="url(#clip570)" d="M186.274 1486.45 L2352.76 1486.45 L2352.76 47.2441 L186.274 47.2441  Z" fill="#ffffff" fill-rule="evenodd" fill-opacity="1"/>
<defs>
  <clipPath id="clip572">
    <rect x="186" y="47" width="2167" height="1440"/>
  </clipPath>
</defs>
<polyline clip-path="url(#clip572)" style="stroke:#000000; stroke-linecap:round; stroke-linejoin:round; stroke-width:2; stroke-opacity:0.1; fill:none" points="247.59,1486.45 247.59,47.2441 "/>
<polyline clip-path="url(#clip572)" style="stroke:#000000; stroke-linecap:round; stroke-linejoin:round; stroke-width:2; stroke-opacity:0.1; fill:none" points="758.552,1486.45 758.552,47.2441 "/>
<polyline clip-path="url(#clip572)" style="stroke:#000000; stroke-linecap:round; stroke-linejoin:round; stroke-width:2; stroke-opacity:0.1; fill:none" points="1269.51,1486.45 1269.51,47.2441 "/>
<polyline clip-path="url(#clip572)" style="stroke:#000000; stroke-linecap:round; stroke-linejoin:round; stroke-width:2; stroke-opacity:0.1; fill:none" points="1780.48,1486.45 1780.48,47.2441 "/>
<polyline clip-path="url(#clip572)" style="stroke:#000000; stroke-linecap:round; stroke-linejoin:round; stroke-width:2; stroke-opacity:0.1; fill:none" points="2291.44,1486.45 2291.44,47.2441 "/>
<polyline clip-path="url(#clip570)" style="stroke:#000000; stroke-linecap:round; stroke-linejoin:round; stroke-width:4; stroke-opacity:1; fill:none" points="186.274,1486.45 2352.76,1486.45 "/>
<polyline clip-path="url(#clip570)" style="stroke:#000000; stroke-linecap:round; stroke-linejoin:round; stroke-width:4; stroke-opacity:1; fill:none" points="247.59,1486.45 247.59,1467.55 "/>
<polyline clip-path="url(#clip570)" style="stroke:#000000; stroke-linecap:round; stroke-linejoin:round; stroke-width:4; stroke-opacity:1; fill:none" points="758.552,1486.45 758.552,1467.55 "/>
<polyline clip-path="url(#clip570)" style="stroke:#000000; stroke-linecap:round; stroke-linejoin:round; stroke-width:4; stroke-opacity:1; fill:none" points="1269.51,1486.45 1269.51,1467.55 "/>
<polyline clip-path="url(#clip570)" style="stroke:#000000; stroke-linecap:round; stroke-linejoin:round; stroke-width:4; stroke-opacity:1; fill:none" points="1780.48,1486.45 1780.48,1467.55 "/>
<polyline clip-path="url(#clip570)" style="stroke:#000000; stroke-linecap:round; stroke-linejoin:round; stroke-width:4; stroke-opacity:1; fill:none" points="2291.44,1486.45 2291.44,1467.55 "/>
<path clip-path="url(#clip570)" d="M247.59 1517.37 Q243.978 1517.37 242.15 1520.93 Q240.344 1524.47 240.344 1531.6 Q240.344 1538.71 242.15 1542.27 Q243.978 1545.82 247.59 1545.82 Q251.224 1545.82 253.029 1542.27 Q254.858 1538.71 254.858 1531.6 Q254.858 1524.47 253.029 1520.93 Q251.224 1517.37 247.59 1517.37 M247.59 1513.66 Q253.4 1513.66 256.455 1518.27 Q259.534 1522.85 259.534 1531.6 Q259.534 1540.33 256.455 1544.94 Q253.4 1549.52 247.59 1549.52 Q241.779 1549.52 238.701 1544.94 Q235.645 1540.33 235.645 1531.6 Q235.645 1522.85 238.701 1518.27 Q241.779 1513.66 247.59 1513.66 Z" fill="#000000" fill-rule="nonzero" fill-opacity="1" /><path clip-path="url(#clip570)" d="M718.171 1514.29 L736.527 1514.29 L736.527 1518.22 L722.453 1518.22 L722.453 1526.7 Q723.471 1526.35 724.49 1526.19 Q725.508 1526 726.527 1526 Q732.314 1526 735.694 1529.17 Q739.073 1532.34 739.073 1537.76 Q739.073 1543.34 735.601 1546.44 Q732.129 1549.52 725.809 1549.52 Q723.633 1549.52 721.365 1549.15 Q719.12 1548.78 716.712 1548.04 L716.712 1543.34 Q718.796 1544.47 721.018 1545.03 Q723.24 1545.58 725.717 1545.58 Q729.721 1545.58 732.059 1543.48 Q734.397 1541.37 734.397 1537.76 Q734.397 1534.15 732.059 1532.04 Q729.721 1529.94 725.717 1529.94 Q723.842 1529.94 721.967 1530.35 Q720.115 1530.77 718.171 1531.65 L718.171 1514.29 Z" fill="#000000" fill-rule="nonzero" fill-opacity="1" /><path clip-path="url(#clip570)" d="M758.286 1517.37 Q754.675 1517.37 752.846 1520.93 Q751.041 1524.47 751.041 1531.6 Q751.041 1538.71 752.846 1542.27 Q754.675 1545.82 758.286 1545.82 Q761.92 1545.82 763.726 1542.27 Q765.555 1538.71 765.555 1531.6 Q765.555 1524.47 763.726 1520.93 Q761.92 1517.37 758.286 1517.37 M758.286 1513.66 Q764.096 1513.66 767.152 1518.27 Q770.23 1522.85 770.23 1531.6 Q770.23 1540.33 767.152 1544.94 Q764.096 1549.52 758.286 1549.52 Q752.476 1549.52 749.397 1544.94 Q746.342 1540.33 746.342 1531.6 Q746.342 1522.85 749.397 1518.27 Q752.476 1513.66 758.286 1513.66 Z" fill="#000000" fill-rule="nonzero" fill-opacity="1" /><path clip-path="url(#clip570)" d="M788.448 1517.37 Q784.837 1517.37 783.008 1520.93 Q781.203 1524.47 781.203 1531.6 Q781.203 1538.71 783.008 1542.27 Q784.837 1545.82 788.448 1545.82 Q792.082 1545.82 793.888 1542.27 Q795.716 1538.71 795.716 1531.6 Q795.716 1524.47 793.888 1520.93 Q792.082 1517.37 788.448 1517.37 M788.448 1513.66 Q794.258 1513.66 797.314 1518.27 Q800.392 1522.85 800.392 1531.6 Q800.392 1540.33 797.314 1544.94 Q794.258 1549.52 788.448 1549.52 Q782.638 1549.52 779.559 1544.94 Q776.504 1540.33 776.504 1531.6 Q776.504 1522.85 779.559 1518.27 Q782.638 1513.66 788.448 1513.66 Z" fill="#000000" fill-rule="nonzero" fill-opacity="1" /><path clip-path="url(#clip570)" d="M1214.04 1544.91 L1221.68 1544.91 L1221.68 1518.55 L1213.37 1520.21 L1213.37 1515.95 L1221.63 1514.29 L1226.31 1514.29 L1226.31 1544.91 L1233.95 1544.91 L1233.95 1548.85 L1214.04 1548.85 L1214.04 1544.91 Z" fill="#000000" fill-rule="nonzero" fill-opacity="1" /><path clip-path="url(#clip570)" d="M1253.39 1517.37 Q1249.78 1517.37 1247.95 1520.93 Q1246.15 1524.47 1246.15 1531.6 Q1246.15 1538.71 1247.95 1542.27 Q1249.78 1545.82 1253.39 1545.82 Q1257.03 1545.82 1258.83 1542.27 Q1260.66 1538.71 1260.66 1531.6 Q1260.66 1524.47 1258.83 1520.93 Q1257.03 1517.37 1253.39 1517.37 M1253.39 1513.66 Q1259.2 1513.66 1262.26 1518.27 Q1265.34 1522.85 1265.34 1531.6 Q1265.34 1540.33 1262.26 1544.94 Q1259.2 1549.52 1253.39 1549.52 Q1247.58 1549.52 1244.5 1544.94 Q1241.45 1540.33 1241.45 1531.6 Q1241.45 1522.85 1244.5 1518.27 Q1247.58 1513.66 1253.39 1513.66 Z" fill="#000000" fill-rule="nonzero" fill-opacity="1" /><path clip-path="url(#clip570)" d="M1283.55 1517.37 Q1279.94 1517.37 1278.11 1520.93 Q1276.31 1524.47 1276.31 1531.6 Q1276.31 1538.71 1278.11 1542.27 Q1279.94 1545.82 1283.55 1545.82 Q1287.19 1545.82 1288.99 1542.27 Q1290.82 1538.71 1290.82 1531.6 Q1290.82 1524.47 1288.99 1520.93 Q1287.19 1517.37 1283.55 1517.37 M1283.55 1513.66 Q1289.36 1513.66 1292.42 1518.27 Q1295.5 1522.85 1295.5 1531.6 Q1295.5 1540.33 1292.42 1544.94 Q1289.36 1549.52 1283.55 1549.52 Q1277.74 1549.52 1274.67 1544.94 Q1271.61 1540.33 1271.61 1531.6 Q1271.61 1522.85 1274.67 1518.27 Q1277.74 1513.66 1283.55 1513.66 Z" fill="#000000" fill-rule="nonzero" fill-opacity="1" /><path clip-path="url(#clip570)" d="M1313.72 1517.37 Q1310.11 1517.37 1308.28 1520.93 Q1306.47 1524.47 1306.47 1531.6 Q1306.47 1538.71 1308.28 1542.27 Q1310.11 1545.82 1313.72 1545.82 Q1317.35 1545.82 1319.16 1542.27 Q1320.98 1538.71 1320.98 1531.6 Q1320.98 1524.47 1319.16 1520.93 Q1317.35 1517.37 1313.72 1517.37 M1313.72 1513.66 Q1319.53 1513.66 1322.58 1518.27 Q1325.66 1522.85 1325.66 1531.6 Q1325.66 1540.33 1322.58 1544.94 Q1319.53 1549.52 1313.72 1549.52 Q1307.91 1549.52 1304.83 1544.94 Q1301.77 1540.33 1301.77 1531.6 Q1301.77 1522.85 1304.83 1518.27 Q1307.91 1513.66 1313.72 1513.66 Z" fill="#000000" fill-rule="nonzero" fill-opacity="1" /><path clip-path="url(#clip570)" d="M1725 1544.91 L1732.64 1544.91 L1732.64 1518.55 L1724.33 1520.21 L1724.33 1515.95 L1732.6 1514.29 L1737.27 1514.29 L1737.27 1544.91 L1744.91 1544.91 L1744.91 1548.85 L1725 1548.85 L1725 1544.91 Z" fill="#000000" fill-rule="nonzero" fill-opacity="1" /><path clip-path="url(#clip570)" d="M1754.4 1514.29 L1772.76 1514.29 L1772.76 1518.22 L1758.68 1518.22 L1758.68 1526.7 Q1759.7 1526.35 1760.72 1526.19 Q1761.74 1526 1762.76 1526 Q1768.54 1526 1771.92 1529.17 Q1775.3 1532.34 1775.3 1537.76 Q1775.3 1543.34 1771.83 1546.44 Q1768.36 1549.52 1762.04 1549.52 Q1759.86 1549.52 1757.6 1549.15 Q1755.35 1548.78 1752.94 1548.04 L1752.94 1543.34 Q1755.03 1544.47 1757.25 1545.03 Q1759.47 1545.58 1761.95 1545.58 Q1765.95 1545.58 1768.29 1543.48 Q1770.63 1541.37 1770.63 1537.76 Q1770.63 1534.15 1768.29 1532.04 Q1765.95 1529.94 1761.95 1529.94 Q1760.07 1529.94 1758.2 1530.35 Q1756.35 1530.77 1754.4 1531.65 L1754.4 1514.29 Z" fill="#000000" fill-rule="nonzero" fill-opacity="1" /><path clip-path="url(#clip570)" d="M1794.52 1517.37 Q1790.91 1517.37 1789.08 1520.93 Q1787.27 1524.47 1787.27 1531.6 Q1787.27 1538.71 1789.08 1542.27 Q1790.91 1545.82 1794.52 1545.82 Q1798.15 1545.82 1799.96 1542.27 Q1801.79 1538.71 1801.79 1531.6 Q1801.79 1524.47 1799.96 1520.93 Q1798.15 1517.37 1794.52 1517.37 M1794.52 1513.66 Q1800.33 1513.66 1803.38 1518.27 Q1806.46 1522.85 1806.46 1531.6 Q1806.46 1540.33 1803.38 1544.94 Q1800.33 1549.52 1794.52 1549.52 Q1788.71 1549.52 1785.63 1544.94 Q1782.57 1540.33 1782.57 1531.6 Q1782.57 1522.85 1785.63 1518.27 Q1788.71 1513.66 1794.52 1513.66 Z" fill="#000000" fill-rule="nonzero" fill-opacity="1" /><path clip-path="url(#clip570)" d="M1824.68 1517.37 Q1821.07 1517.37 1819.24 1520.93 Q1817.43 1524.47 1817.43 1531.6 Q1817.43 1538.71 1819.24 1542.27 Q1821.07 1545.82 1824.68 1545.82 Q1828.31 1545.82 1830.12 1542.27 Q1831.95 1538.71 1831.95 1531.6 Q1831.95 1524.47 1830.12 1520.93 Q1828.31 1517.37 1824.68 1517.37 M1824.68 1513.66 Q1830.49 1513.66 1833.54 1518.27 Q1836.62 1522.85 1836.62 1531.6 Q1836.62 1540.33 1833.54 1544.94 Q1830.49 1549.52 1824.68 1549.52 Q1818.87 1549.52 1815.79 1544.94 Q1812.73 1540.33 1812.73 1531.6 Q1812.73 1522.85 1815.79 1518.27 Q1818.87 1513.66 1824.68 1513.66 Z" fill="#000000" fill-rule="nonzero" fill-opacity="1" /><path clip-path="url(#clip570)" d="M2240.05 1544.91 L2256.37 1544.91 L2256.37 1548.85 L2234.43 1548.85 L2234.43 1544.91 Q2237.09 1542.16 2241.67 1537.53 Q2246.28 1532.88 2247.46 1531.53 Q2249.7 1529.01 2250.58 1527.27 Q2251.49 1525.51 2251.49 1523.82 Q2251.49 1521.07 2249.54 1519.33 Q2247.62 1517.6 2244.52 1517.6 Q2242.32 1517.6 2239.87 1518.36 Q2237.44 1519.13 2234.66 1520.68 L2234.66 1515.95 Q2237.48 1514.82 2239.94 1514.24 Q2242.39 1513.66 2244.43 1513.66 Q2249.8 1513.66 2252.99 1516.35 Q2256.19 1519.03 2256.19 1523.52 Q2256.19 1525.65 2255.38 1527.57 Q2254.59 1529.47 2252.48 1532.07 Q2251.9 1532.74 2248.8 1535.95 Q2245.7 1539.15 2240.05 1544.91 Z" fill="#000000" fill-rule="nonzero" fill-opacity="1" /><path clip-path="url(#clip570)" d="M2276.19 1517.37 Q2272.57 1517.37 2270.75 1520.93 Q2268.94 1524.47 2268.94 1531.6 Q2268.94 1538.71 2270.75 1542.27 Q2272.57 1545.82 2276.19 1545.82 Q2279.82 1545.82 2281.63 1542.27 Q2283.45 1538.71 2283.45 1531.6 Q2283.45 1524.47 2281.63 1520.93 Q2279.82 1517.37 2276.19 1517.37 M2276.19 1513.66 Q2282 1513.66 2285.05 1518.27 Q2288.13 1522.85 2288.13 1531.6 Q2288.13 1540.33 2285.05 1544.94 Q2282 1549.52 2276.19 1549.52 Q2270.38 1549.52 2267.3 1544.94 Q2264.24 1540.33 2264.24 1531.6 Q2264.24 1522.85 2267.3 1518.27 Q2270.38 1513.66 2276.19 1513.66 Z" fill="#000000" fill-rule="nonzero" fill-opacity="1" /><path clip-path="url(#clip570)" d="M2306.35 1517.37 Q2302.74 1517.37 2300.91 1520.93 Q2299.1 1524.47 2299.1 1531.6 Q2299.1 1538.71 2300.91 1542.27 Q2302.74 1545.82 2306.35 1545.82 Q2309.98 1545.82 2311.79 1542.27 Q2313.62 1538.71 2313.62 1531.6 Q2313.62 1524.47 2311.79 1520.93 Q2309.98 1517.37 2306.35 1517.37 M2306.35 1513.66 Q2312.16 1513.66 2315.21 1518.27 Q2318.29 1522.85 2318.29 1531.6 Q2318.29 1540.33 2315.21 1544.94 Q2312.16 1549.52 2306.35 1549.52 Q2300.54 1549.52 2297.46 1544.94 Q2294.4 1540.33 2294.4 1531.6 Q2294.4 1522.85 2297.46 1518.27 Q2300.54 1513.66 2306.35 1513.66 Z" fill="#000000" fill-rule="nonzero" fill-opacity="1" /><path clip-path="url(#clip570)" d="M2336.51 1517.37 Q2332.9 1517.37 2331.07 1520.93 Q2329.26 1524.47 2329.26 1531.6 Q2329.26 1538.71 2331.07 1542.27 Q2332.9 1545.82 2336.51 1545.82 Q2340.14 1545.82 2341.95 1542.27 Q2343.78 1538.71 2343.78 1531.6 Q2343.78 1524.47 2341.95 1520.93 Q2340.14 1517.37 2336.51 1517.37 M2336.51 1513.66 Q2342.32 1513.66 2345.38 1518.27 Q2348.45 1522.85 2348.45 1531.6 Q2348.45 1540.33 2345.38 1544.94 Q2342.32 1549.52 2336.51 1549.52 Q2330.7 1549.52 2327.62 1544.94 Q2324.57 1540.33 2324.57 1531.6 Q2324.57 1522.85 2327.62 1518.27 Q2330.7 1513.66 2336.51 1513.66 Z" fill="#000000" fill-rule="nonzero" fill-opacity="1" /><polyline clip-path="url(#clip572)" style="stroke:#000000; stroke-linecap:round; stroke-linejoin:round; stroke-width:2; stroke-opacity:0.1; fill:none" points="186.274,1449.86 2352.76,1449.86 "/>
<polyline clip-path="url(#clip572)" style="stroke:#000000; stroke-linecap:round; stroke-linejoin:round; stroke-width:2; stroke-opacity:0.1; fill:none" points="186.274,1184.9 2352.76,1184.9 "/>
<polyline clip-path="url(#clip572)" style="stroke:#000000; stroke-linecap:round; stroke-linejoin:round; stroke-width:2; stroke-opacity:0.1; fill:none" points="186.274,919.935 2352.76,919.935 "/>
<polyline clip-path="url(#clip572)" style="stroke:#000000; stroke-linecap:round; stroke-linejoin:round; stroke-width:2; stroke-opacity:0.1; fill:none" points="186.274,654.974 2352.76,654.974 "/>
<polyline clip-path="url(#clip572)" style="stroke:#000000; stroke-linecap:round; stroke-linejoin:round; stroke-width:2; stroke-opacity:0.1; fill:none" points="186.274,390.012 2352.76,390.012 "/>
<polyline clip-path="url(#clip572)" style="stroke:#000000; stroke-linecap:round; stroke-linejoin:round; stroke-width:2; stroke-opacity:0.1; fill:none" points="186.274,125.051 2352.76,125.051 "/>
<polyline clip-path="url(#clip570)" style="stroke:#000000; stroke-linecap:round; stroke-linejoin:round; stroke-width:4; stroke-opacity:1; fill:none" points="186.274,1486.45 186.274,47.2441 "/>
<polyline clip-path="url(#clip570)" style="stroke:#000000; stroke-linecap:round; stroke-linejoin:round; stroke-width:4; stroke-opacity:1; fill:none" points="186.274,1449.86 205.172,1449.86 "/>
<polyline clip-path="url(#clip570)" style="stroke:#000000; stroke-linecap:round; stroke-linejoin:round; stroke-width:4; stroke-opacity:1; fill:none" points="186.274,1184.9 205.172,1184.9 "/>
<polyline clip-path="url(#clip570)" style="stroke:#000000; stroke-linecap:round; stroke-linejoin:round; stroke-width:4; stroke-opacity:1; fill:none" points="186.274,919.935 205.172,919.935 "/>
<polyline clip-path="url(#clip570)" style="stroke:#000000; stroke-linecap:round; stroke-linejoin:round; stroke-width:4; stroke-opacity:1; fill:none" points="186.274,654.974 205.172,654.974 "/>
<polyline clip-path="url(#clip570)" style="stroke:#000000; stroke-linecap:round; stroke-linejoin:round; stroke-width:4; stroke-opacity:1; fill:none" points="186.274,390.012 205.172,390.012 "/>
<polyline clip-path="url(#clip570)" style="stroke:#000000; stroke-linecap:round; stroke-linejoin:round; stroke-width:4; stroke-opacity:1; fill:none" points="186.274,125.051 205.172,125.051 "/>
<path clip-path="url(#clip570)" d="M62.9365 1435.66 Q59.3254 1435.66 57.4967 1439.22 Q55.6912 1442.76 55.6912 1449.89 Q55.6912 1457 57.4967 1460.56 Q59.3254 1464.1 62.9365 1464.1 Q66.5707 1464.1 68.3763 1460.56 Q70.205 1457 70.205 1449.89 Q70.205 1442.76 68.3763 1439.22 Q66.5707 1435.66 62.9365 1435.66 M62.9365 1431.95 Q68.7467 1431.95 71.8022 1436.56 Q74.8809 1441.14 74.8809 1449.89 Q74.8809 1458.62 71.8022 1463.23 Q68.7467 1467.81 62.9365 1467.81 Q57.1264 1467.81 54.0477 1463.23 Q50.9921 1458.62 50.9921 1449.89 Q50.9921 1441.14 54.0477 1436.56 Q57.1264 1431.95 62.9365 1431.95 Z" fill="#000000" fill-rule="nonzero" fill-opacity="1" /><path clip-path="url(#clip570)" d="M83.0984 1461.26 L87.9827 1461.26 L87.9827 1467.14 L83.0984 1467.14 L83.0984 1461.26 Z" fill="#000000" fill-rule="nonzero" fill-opacity="1" /><path clip-path="url(#clip570)" d="M108.168 1435.66 Q104.557 1435.66 102.728 1439.22 Q100.922 1442.76 100.922 1449.89 Q100.922 1457 102.728 1460.56 Q104.557 1464.1 108.168 1464.1 Q111.802 1464.1 113.608 1460.56 Q115.436 1457 115.436 1449.89 Q115.436 1442.76 113.608 1439.22 Q111.802 1435.66 108.168 1435.66 M108.168 1431.95 Q113.978 1431.95 117.033 1436.56 Q120.112 1441.14 120.112 1449.89 Q120.112 1458.62 117.033 1463.23 Q113.978 1467.81 108.168 1467.81 Q102.358 1467.81 99.2789 1463.23 Q96.2234 1458.62 96.2234 1449.89 Q96.2234 1441.14 99.2789 1436.56 Q102.358 1431.95 108.168 1431.95 Z" fill="#000000" fill-rule="nonzero" fill-opacity="1" /><path clip-path="url(#clip570)" d="M138.33 1435.66 Q134.719 1435.66 132.89 1439.22 Q131.084 1442.76 131.084 1449.89 Q131.084 1457 132.89 1460.56 Q134.719 1464.1 138.33 1464.1 Q141.964 1464.1 143.769 1460.56 Q145.598 1457 145.598 1449.89 Q145.598 1442.76 143.769 1439.22 Q141.964 1435.66 138.33 1435.66 M138.33 1431.95 Q144.14 1431.95 147.195 1436.56 Q150.274 1441.14 150.274 1449.89 Q150.274 1458.62 147.195 1463.23 Q144.14 1467.81 138.33 1467.81 Q132.519 1467.81 129.441 1463.23 Q126.385 1458.62 126.385 1449.89 Q126.385 1441.14 129.441 1436.56 Q132.519 1431.95 138.33 1431.95 Z" fill="#000000" fill-rule="nonzero" fill-opacity="1" /><path clip-path="url(#clip570)" d="M63.9319 1170.69 Q60.3208 1170.69 58.4921 1174.26 Q56.6865 1177.8 56.6865 1184.93 Q56.6865 1192.04 58.4921 1195.6 Q60.3208 1199.14 63.9319 1199.14 Q67.5661 1199.14 69.3717 1195.6 Q71.2004 1192.04 71.2004 1184.93 Q71.2004 1177.8 69.3717 1174.26 Q67.5661 1170.69 63.9319 1170.69 M63.9319 1166.99 Q69.742 1166.99 72.7976 1171.6 Q75.8763 1176.18 75.8763 1184.93 Q75.8763 1193.66 72.7976 1198.26 Q69.742 1202.85 63.9319 1202.85 Q58.1217 1202.85 55.043 1198.26 Q51.9875 1193.66 51.9875 1184.93 Q51.9875 1176.18 55.043 1171.6 Q58.1217 1166.99 63.9319 1166.99 Z" fill="#000000" fill-rule="nonzero" fill-opacity="1" /><path clip-path="url(#clip570)" d="M84.0938 1196.3 L88.978 1196.3 L88.978 1202.18 L84.0938 1202.18 L84.0938 1196.3 Z" fill="#000000" fill-rule="nonzero" fill-opacity="1" /><path clip-path="url(#clip570)" d="M109.163 1170.69 Q105.552 1170.69 103.723 1174.26 Q101.918 1177.8 101.918 1184.93 Q101.918 1192.04 103.723 1195.6 Q105.552 1199.14 109.163 1199.14 Q112.797 1199.14 114.603 1195.6 Q116.432 1192.04 116.432 1184.93 Q116.432 1177.8 114.603 1174.26 Q112.797 1170.69 109.163 1170.69 M109.163 1166.99 Q114.973 1166.99 118.029 1171.6 Q121.107 1176.18 121.107 1184.93 Q121.107 1193.66 118.029 1198.26 Q114.973 1202.85 109.163 1202.85 Q103.353 1202.85 100.274 1198.26 Q97.2187 1193.66 97.2187 1184.93 Q97.2187 1176.18 100.274 1171.6 Q103.353 1166.99 109.163 1166.99 Z" fill="#000000" fill-rule="nonzero" fill-opacity="1" /><path clip-path="url(#clip570)" d="M129.371 1167.62 L147.728 1167.62 L147.728 1171.55 L133.654 1171.55 L133.654 1180.02 Q134.672 1179.68 135.691 1179.51 Q136.709 1179.33 137.728 1179.33 Q143.515 1179.33 146.894 1182.5 Q150.274 1185.67 150.274 1191.09 Q150.274 1196.67 146.802 1199.77 Q143.33 1202.85 137.01 1202.85 Q134.834 1202.85 132.566 1202.48 Q130.32 1202.11 127.913 1201.37 L127.913 1196.67 Q129.996 1197.8 132.219 1198.36 Q134.441 1198.91 136.918 1198.91 Q140.922 1198.91 143.26 1196.81 Q145.598 1194.7 145.598 1191.09 Q145.598 1187.48 143.26 1185.37 Q140.922 1183.26 136.918 1183.26 Q135.043 1183.26 133.168 1183.68 Q131.316 1184.1 129.371 1184.98 L129.371 1167.62 Z" fill="#000000" fill-rule="nonzero" fill-opacity="1" /><path clip-path="url(#clip570)" d="M62.9365 905.733 Q59.3254 905.733 57.4967 909.298 Q55.6912 912.84 55.6912 919.969 Q55.6912 927.076 57.4967 930.641 Q59.3254 934.182 62.9365 934.182 Q66.5707 934.182 68.3763 930.641 Q70.205 927.076 70.205 919.969 Q70.205 912.84 68.3763 909.298 Q66.5707 905.733 62.9365 905.733 M62.9365 902.03 Q68.7467 902.03 71.8022 906.636 Q74.8809 911.22 74.8809 919.969 Q74.8809 928.696 71.8022 933.303 Q68.7467 937.886 62.9365 937.886 Q57.1264 937.886 54.0477 933.303 Q50.9921 928.696 50.9921 919.969 Q50.9921 911.22 54.0477 906.636 Q57.1264 902.03 62.9365 902.03 Z" fill="#000000" fill-rule="nonzero" fill-opacity="1" /><path clip-path="url(#clip570)" d="M83.0984 931.335 L87.9827 931.335 L87.9827 937.215 L83.0984 937.215 L83.0984 931.335 Z" fill="#000000" fill-rule="nonzero" fill-opacity="1" /><path clip-path="url(#clip570)" d="M98.978 933.28 L106.617 933.28 L106.617 906.914 L98.3067 908.581 L98.3067 904.321 L106.571 902.655 L111.246 902.655 L111.246 933.28 L118.885 933.28 L118.885 937.215 L98.978 937.215 L98.978 933.28 Z" fill="#000000" fill-rule="nonzero" fill-opacity="1" /><path clip-path="url(#clip570)" d="M138.33 905.733 Q134.719 905.733 132.89 909.298 Q131.084 912.84 131.084 919.969 Q131.084 927.076 132.89 930.641 Q134.719 934.182 138.33 934.182 Q141.964 934.182 143.769 930.641 Q145.598 927.076 145.598 919.969 Q145.598 912.84 143.769 909.298 Q141.964 905.733 138.33 905.733 M138.33 902.03 Q144.14 902.03 147.195 906.636 Q150.274 911.22 150.274 919.969 Q150.274 928.696 147.195 933.303 Q144.14 937.886 138.33 937.886 Q132.519 937.886 129.441 933.303 Q126.385 928.696 126.385 919.969 Q126.385 911.22 129.441 906.636 Q132.519 902.03 138.33 902.03 Z" fill="#000000" fill-rule="nonzero" fill-opacity="1" /><path clip-path="url(#clip570)" d="M63.9319 640.772 Q60.3208 640.772 58.4921 644.337 Q56.6865 647.879 56.6865 655.008 Q56.6865 662.115 58.4921 665.68 Q60.3208 669.221 63.9319 669.221 Q67.5661 669.221 69.3717 665.68 Q71.2004 662.115 71.2004 655.008 Q71.2004 647.879 69.3717 644.337 Q67.5661 640.772 63.9319 640.772 M63.9319 637.069 Q69.742 637.069 72.7976 641.675 Q75.8763 646.258 75.8763 655.008 Q75.8763 663.735 72.7976 668.342 Q69.742 672.925 63.9319 672.925 Q58.1217 672.925 55.043 668.342 Q51.9875 663.735 51.9875 655.008 Q51.9875 646.258 55.043 641.675 Q58.1217 637.069 63.9319 637.069 Z" fill="#000000" fill-rule="nonzero" fill-opacity="1" /><path clip-path="url(#clip570)" d="M84.0938 666.374 L88.978 666.374 L88.978 672.254 L84.0938 672.254 L84.0938 666.374 Z" fill="#000000" fill-rule="nonzero" fill-opacity="1" /><path clip-path="url(#clip570)" d="M99.9733 668.318 L107.612 668.318 L107.612 641.953 L99.3021 643.619 L99.3021 639.36 L107.566 637.694 L112.242 637.694 L112.242 668.318 L119.881 668.318 L119.881 672.254 L99.9733 672.254 L99.9733 668.318 Z" fill="#000000" fill-rule="nonzero" fill-opacity="1" /><path clip-path="url(#clip570)" d="M129.371 637.694 L147.728 637.694 L147.728 641.629 L133.654 641.629 L133.654 650.101 Q134.672 649.754 135.691 649.592 Q136.709 649.406 137.728 649.406 Q143.515 649.406 146.894 652.578 Q150.274 655.749 150.274 661.166 Q150.274 666.744 146.802 669.846 Q143.33 672.925 137.01 672.925 Q134.834 672.925 132.566 672.554 Q130.32 672.184 127.913 671.443 L127.913 666.744 Q129.996 667.879 132.219 668.434 Q134.441 668.99 136.918 668.99 Q140.922 668.99 143.26 666.883 Q145.598 664.777 145.598 661.166 Q145.598 657.555 143.26 655.448 Q140.922 653.342 136.918 653.342 Q135.043 653.342 133.168 653.758 Q131.316 654.175 129.371 655.055 L129.371 637.694 Z" fill="#000000" fill-rule="nonzero" fill-opacity="1" /><path clip-path="url(#clip570)" d="M62.9365 375.811 Q59.3254 375.811 57.4967 379.376 Q55.6912 382.917 55.6912 390.047 Q55.6912 397.154 57.4967 400.718 Q59.3254 404.26 62.9365 404.26 Q66.5707 404.26 68.3763 400.718 Q70.205 397.154 70.205 390.047 Q70.205 382.917 68.3763 379.376 Q66.5707 375.811 62.9365 375.811 M62.9365 372.107 Q68.7467 372.107 71.8022 376.714 Q74.8809 381.297 74.8809 390.047 Q74.8809 398.774 71.8022 403.38 Q68.7467 407.964 62.9365 407.964 Q57.1264 407.964 54.0477 403.38 Q50.9921 398.774 50.9921 390.047 Q50.9921 381.297 54.0477 376.714 Q57.1264 372.107 62.9365 372.107 Z" fill="#000000" fill-rule="nonzero" fill-opacity="1" /><path clip-path="url(#clip570)" d="M83.0984 401.413 L87.9827 401.413 L87.9827 407.292 L83.0984 407.292 L83.0984 401.413 Z" fill="#000000" fill-rule="nonzero" fill-opacity="1" /><path clip-path="url(#clip570)" d="M102.196 403.357 L118.515 403.357 L118.515 407.292 L96.5706 407.292 L96.5706 403.357 Q99.2326 400.603 103.816 395.973 Q108.422 391.32 109.603 389.978 Q111.848 387.454 112.728 385.718 Q113.631 383.959 113.631 382.269 Q113.631 379.515 111.686 377.779 Q109.765 376.043 106.663 376.043 Q104.464 376.043 102.01 376.806 Q99.5798 377.57 96.8021 379.121 L96.8021 374.399 Q99.6261 373.265 102.08 372.686 Q104.534 372.107 106.571 372.107 Q111.941 372.107 115.135 374.793 Q118.33 377.478 118.33 381.968 Q118.33 384.098 117.52 386.019 Q116.733 387.917 114.626 390.51 Q114.047 391.181 110.946 394.399 Q107.844 397.593 102.196 403.357 Z" fill="#000000" fill-rule="nonzero" fill-opacity="1" /><path clip-path="url(#clip570)" d="M138.33 375.811 Q134.719 375.811 132.89 379.376 Q131.084 382.917 131.084 390.047 Q131.084 397.154 132.89 400.718 Q134.719 404.26 138.33 404.26 Q141.964 404.26 143.769 400.718 Q145.598 397.154 145.598 390.047 Q145.598 382.917 143.769 379.376 Q141.964 375.811 138.33 375.811 M138.33 372.107 Q144.14 372.107 147.195 376.714 Q150.274 381.297 150.274 390.047 Q150.274 398.774 147.195 403.38 Q144.14 407.964 138.33 407.964 Q132.519 407.964 129.441 403.38 Q126.385 398.774 126.385 390.047 Q126.385 381.297 129.441 376.714 Q132.519 372.107 138.33 372.107 Z" fill="#000000" fill-rule="nonzero" fill-opacity="1" /><path clip-path="url(#clip570)" d="M63.9319 110.85 Q60.3208 110.85 58.4921 114.415 Q56.6865 117.956 56.6865 125.086 Q56.6865 132.192 58.4921 135.757 Q60.3208 139.299 63.9319 139.299 Q67.5661 139.299 69.3717 135.757 Q71.2004 132.192 71.2004 125.086 Q71.2004 117.956 69.3717 114.415 Q67.5661 110.85 63.9319 110.85 M63.9319 107.146 Q69.742 107.146 72.7976 111.753 Q75.8763 116.336 75.8763 125.086 Q75.8763 133.813 72.7976 138.419 Q69.742 143.002 63.9319 143.002 Q58.1217 143.002 55.043 138.419 Q51.9875 133.813 51.9875 125.086 Q51.9875 116.336 55.043 111.753 Q58.1217 107.146 63.9319 107.146 Z" fill="#000000" fill-rule="nonzero" fill-opacity="1" /><path clip-path="url(#clip570)" d="M84.0938 136.452 L88.978 136.452 L88.978 142.331 L84.0938 142.331 L84.0938 136.452 Z" fill="#000000" fill-rule="nonzero" fill-opacity="1" /><path clip-path="url(#clip570)" d="M103.191 138.396 L119.51 138.396 L119.51 142.331 L97.566 142.331 L97.566 138.396 Q100.228 135.641 104.811 131.012 Q109.418 126.359 110.598 125.016 Q112.844 122.493 113.723 120.757 Q114.626 118.998 114.626 117.308 Q114.626 114.553 112.682 112.817 Q110.76 111.081 107.658 111.081 Q105.459 111.081 103.006 111.845 Q100.575 112.609 97.7974 114.16 L97.7974 109.438 Q100.621 108.304 103.075 107.725 Q105.529 107.146 107.566 107.146 Q112.936 107.146 116.131 109.831 Q119.325 112.516 119.325 117.007 Q119.325 119.137 118.515 121.058 Q117.728 122.956 115.621 125.549 Q115.043 126.22 111.941 129.438 Q108.839 132.632 103.191 138.396 Z" fill="#000000" fill-rule="nonzero" fill-opacity="1" /><path clip-path="url(#clip570)" d="M129.371 107.771 L147.728 107.771 L147.728 111.706 L133.654 111.706 L133.654 120.178 Q134.672 119.831 135.691 119.669 Q136.709 119.484 137.728 119.484 Q143.515 119.484 146.894 122.655 Q150.274 125.827 150.274 131.243 Q150.274 136.822 146.802 139.924 Q143.33 143.002 137.01 143.002 Q134.834 143.002 132.566 142.632 Q130.32 142.262 127.913 141.521 L127.913 136.822 Q129.996 137.956 132.219 138.512 Q134.441 139.067 136.918 139.067 Q140.922 139.067 143.26 136.961 Q145.598 134.854 145.598 131.243 Q145.598 127.632 143.26 125.526 Q140.922 123.419 136.918 123.419 Q135.043 123.419 133.168 123.836 Q131.316 124.253 129.371 125.132 L129.371 107.771 Z" fill="#000000" fill-rule="nonzero" fill-opacity="1" /><polyline clip-path="url(#clip572)" style="stroke:#009af9; stroke-linecap:round; stroke-linejoin:round; stroke-width:4; stroke-opacity:1; fill:none" points="247.59,87.9763 248.611,161.219 249.633,228.774 250.655,291.172 251.677,348.891 252.699,402.359 253.721,451.961 254.743,498.042 255.765,540.913 256.787,580.852 257.809,618.113 258.831,652.92 259.853,685.48 260.875,715.975 261.896,744.575 262.918,771.428 263.94,796.674 264.962,820.436 265.984,842.826 267.006,863.948 268.028,883.895 269.05,902.753 270.072,920.6 271.094,937.506 272.116,953.537 273.138,968.752 274.16,983.207 275.182,996.952 276.203,1010.03 277.225,1022.49 278.247,1034.37 279.269,1045.7 280.291,1056.52 281.313,1066.86 282.335,1076.75 283.357,1086.21 284.379,1095.27 285.401,1103.95 286.423,1112.28 287.445,1120.27 288.467,1127.94 289.488,1135.31 290.51,1142.39 291.532,1149.2 292.554,1155.76 293.576,1162.07 294.598,1168.16 295.62,1174.02 296.642,1179.67 297.664,1185.13 298.686,1190.4 299.708,1195.49 300.73,1200.4 301.752,1205.16 302.774,1209.76 303.795,1214.2 304.817,1218.51 305.839,1222.68 306.861,1226.72 307.883,1230.64 308.905,1234.43 309.927,1238.11 310.949,1241.69 311.971,1245.15 312.993,1248.52 314.015,1251.79 315.037,1254.97 316.059,1258.06 317.08,1261.06 318.102,1263.98 319.124,1266.82 320.146,1269.59 321.168,1272.28 322.19,1274.9 323.212,1277.45 324.234,1279.94 325.256,1282.37 326.278,1284.73 327.3,1287.03 328.322,1289.28 329.344,1291.47 330.365,1293.61 331.387,1295.7 332.409,1297.74 333.431,1299.73 334.453,1301.68 335.475,1303.58 336.497,1305.44 337.519,1307.25 338.541,1309.03 339.563,1310.76 340.585,1312.46 341.607,1314.12 342.629,1315.74 343.651,1317.33 344.672,1318.89 345.694,1320.41 346.716,1321.9 347.738,1323.37 348.76,1324.8 349.782,1326.2 350.804,1327.57 351.826,1328.92 352.848,1330.24 353.87,1331.53 354.892,1332.8 355.914,1334.05 356.936,1335.27 357.957,1336.47 358.979,1337.64 360.001,1338.79 361.023,1339.93 362.045,1341.04 363.067,1342.13 364.089,1343.2 365.111,1344.25 366.133,1345.29 367.155,1346.3 368.177,1347.3 369.199,1348.28 370.221,1349.24 371.243,1350.19 372.264,1351.12 373.286,1352.03 374.308,1352.93 375.33,1353.81 376.352,1354.68 377.374,1355.54 378.396,1356.38 379.418,1357.21 380.44,1358.02 381.462,1358.83 382.484,1359.61 383.506,1360.39 384.528,1361.15 385.549,1361.91 386.571,1362.65 387.593,1363.38 388.615,1364.1 389.637,1364.8 390.659,1365.5 391.681,1366.19 392.703,1366.86 393.725,1367.53 394.747,1368.19 395.769,1368.83 396.791,1369.47 397.813,1370.1 398.834,1370.72 399.856,1371.33 400.878,1371.93 401.9,1372.52 402.922,1373.11 403.944,1373.69 404.966,1374.26 405.988,1374.82 407.01,1375.37 408.032,1375.92 409.054,1376.46 410.076,1376.99 411.098,1377.51 412.12,1378.03 413.141,1378.54 414.163,1379.05 415.185,1379.55 416.207,1380.04 417.229,1380.52 418.251,1381 419.273,1381.47 420.295,1381.94 421.317,1382.4 422.339,1382.86 423.361,1383.31 424.383,1383.75 425.405,1384.19 426.426,1384.62 427.448,1385.05 428.47,1385.47 429.492,1385.89 430.514,1386.3 431.536,1386.71 432.558,1387.12 433.58,1387.51 434.602,1387.91 435.624,1388.3 436.646,1388.68 437.668,1389.06 438.69,1389.44 439.712,1389.81 440.733,1390.18 441.755,1390.54 442.777,1390.9 443.799,1391.25 444.821,1391.6 445.843,1391.95 446.865,1392.3 447.887,1392.63 448.909,1392.97 449.931,1393.3 450.953,1393.63 451.975,1393.96 452.997,1394.28 454.018,1394.6 455.04,1394.91 456.062,1395.22 457.084,1395.53 458.106,1395.84 459.128,1396.14 460.15,1396.44 461.172,1396.73 462.194,1397.03 463.216,1397.32 464.238,1397.6 465.26,1397.89 466.282,1398.17 467.303,1398.45 468.325,1398.72 469.347,1398.99 470.369,1399.26 471.391,1399.53 472.413,1399.8 473.435,1400.06 474.457,1400.32 475.479,1400.57 476.501,1400.83 477.523,1401.08 478.545,1401.33 479.567,1401.58 480.589,1401.82 481.61,1402.07 482.632,1402.31 483.654,1402.55 484.676,1402.78 485.698,1403.01 486.72,1403.25 487.742,1403.48 488.764,1403.7 489.786,1403.93 490.808,1404.15 491.83,1404.37 492.852,1404.59 493.874,1404.81 494.895,1405.03 495.917,1405.24 496.939,1405.45 497.961,1405.66 498.983,1405.87 500.005,1406.07 501.027,1406.28 502.049,1406.48 503.071,1406.68 504.093,1406.88 505.115,1407.08 506.137,1407.27 507.159,1407.47 508.181,1407.66 509.202,1407.85 510.224,1408.04 511.246,1408.23 512.268,1408.41 513.29,1408.6 514.312,1408.78 515.334,1408.96 516.356,1409.14 517.378,1409.32 518.4,1409.49 519.422,1409.67 520.444,1409.84 521.466,1410.02 522.487,1410.19 523.509,1410.36 524.531,1410.53 525.553,1410.69 526.575,1410.86 527.597,1411.02 528.619,1411.19 529.641,1411.35 530.663,1411.51 531.685,1411.67 532.707,1411.83 533.729,1411.98 534.751,1412.14 535.772,1412.29 536.794,1412.45 537.816,1412.6 538.838,1412.75 539.86,1412.9 540.882,1413.05 541.904,1413.2 542.926,1413.34 543.948,1413.49 544.97,1413.63 545.992,1413.78 547.014,1413.92 548.036,1414.06 549.058,1414.2 550.079,1414.34 551.101,1414.48 552.123,1414.61 553.145,1414.75 554.167,1414.88 555.189,1415.02 556.211,1415.15 557.233,1415.28 558.255,1415.42 559.277,1415.55 560.299,1415.67 561.321,1415.8 562.343,1415.93 563.364,1416.06 564.386,1416.18 565.408,1416.31 566.43,1416.43 567.452,1416.56 568.474,1416.68 569.496,1416.8 570.518,1416.92 571.54,1417.04 572.562,1417.16 573.584,1417.28 574.606,1417.39 575.628,1417.51 576.65,1417.63 577.671,1417.74 578.693,1417.86 579.715,1417.97 580.737,1418.08 581.759,1418.19 582.781,1418.31 583.803,1418.42 584.825,1418.53 585.847,1418.63 586.869,1418.74 587.891,1418.85 588.913,1418.96 589.935,1419.06 590.956,1419.17 591.978,1419.27 593,1419.38 594.022,1419.48 595.044,1419.58 596.066,1419.69 597.088,1419.79 598.11,1419.89 599.132,1419.99 600.154,1420.09 601.176,1420.19 602.198,1420.29 603.22,1420.38 604.242,1420.48 605.263,1420.58 606.285,1420.67 607.307,1420.77 608.329,1420.86 609.351,1420.96 610.373,1421.05 611.395,1421.15 612.417,1421.24 613.439,1421.33 614.461,1421.42 615.483,1421.51 616.505,1421.6 617.527,1421.69 618.548,1421.78 619.57,1421.87 620.592,1421.96 621.614,1422.05 622.636,1422.13 623.658,1422.22 624.68,1422.31 625.702,1422.39 626.724,1422.48 627.746,1422.56 628.768,1422.64 629.79,1422.73 630.812,1422.81 631.833,1422.89 632.855,1422.98 633.877,1423.06 634.899,1423.14 635.921,1423.22 636.943,1423.3 637.965,1423.38 638.987,1423.46 640.009,1423.54 641.031,1423.62 642.053,1423.69 643.075,1423.77 644.097,1423.85 645.119,1423.93 646.14,1424 647.162,1424.08 648.184,1424.15 649.206,1424.23 650.228,1424.3 651.25,1424.38 652.272,1424.45 653.294,1424.53 654.316,1424.6 655.338,1424.67 656.36,1424.74 657.382,1424.82 658.404,1424.89 659.425,1424.96 660.447,1425.03 661.469,1425.1 662.491,1425.17 663.513,1425.24 664.535,1425.31 665.557,1425.38 666.579,1425.44 667.601,1425.51 668.623,1425.58 669.645,1425.65 670.667,1425.71 671.689,1425.78 672.711,1425.85 673.732,1425.91 674.754,1425.98 675.776,1426.04 676.798,1426.11 677.82,1426.17 678.842,1426.24 679.864,1426.3 680.886,1426.37 681.908,1426.43 682.93,1426.49 683.952,1426.55 684.974,1426.62 685.996,1426.68 687.017,1426.74 688.039,1426.8 689.061,1426.86 690.083,1426.92 691.105,1426.98 692.127,1427.05 693.149,1427.1 694.171,1427.16 695.193,1427.22 696.215,1427.28 697.237,1427.34 698.259,1427.4 699.281,1427.46 700.302,1427.52 701.324,1427.57 702.346,1427.63 703.368,1427.69 704.39,1427.74 705.412,1427.8 706.434,1427.86 707.456,1427.91 708.478,1427.97 709.5,1428.02 710.522,1428.08 711.544,1428.13 712.566,1428.19 713.588,1428.24 714.609,1428.3 715.631,1428.35 716.653,1428.4 717.675,1428.46 718.697,1428.51 719.719,1428.56 720.741,1428.62 721.763,1428.67 722.785,1428.72 723.807,1428.77 724.829,1428.82 725.851,1428.88 726.873,1428.93 727.894,1428.98 728.916,1429.03 729.938,1429.08 730.96,1429.13 731.982,1429.18 733.004,1429.23 734.026,1429.28 735.048,1429.33 736.07,1429.38 737.092,1429.42 738.114,1429.47 739.136,1429.52 740.158,1429.57 741.18,1429.62 742.201,1429.67 743.223,1429.71 744.245,1429.76 745.267,1429.81 746.289,1429.85 747.311,1429.9 748.333,1429.95 749.355,1429.99 750.377,1430.04 751.399,1430.09 752.421,1430.13 753.443,1430.18 754.465,1430.22 755.486,1430.27 756.508,1430.31 757.53,1430.36 758.552,1430.4 759.574,1430.44 760.596,1430.49 761.618,1430.53 762.64,1430.58 763.662,1430.62 764.684,1430.66 765.706,1430.71 766.728,1430.75 767.75,1430.79 768.771,1430.83 769.793,1430.88 770.815,1430.92 771.837,1430.96 772.859,1431 773.881,1431.05 774.903,1431.09 775.925,1431.13 776.947,1431.17 777.969,1431.21 778.991,1431.25 780.013,1431.29 781.035,1431.33 782.057,1431.37 783.078,1431.41 784.1,1431.45 785.122,1431.49 786.144,1431.53 787.166,1431.57 788.188,1431.61 789.21,1431.65 790.232,1431.69 791.254,1431.73 792.276,1431.77 793.298,1431.81 794.32,1431.84 795.342,1431.88 796.363,1431.92 797.385,1431.96 798.407,1432 799.429,1432.03 800.451,1432.07 801.473,1432.11 802.495,1432.15 803.517,1432.18 804.539,1432.22 805.561,1432.26 806.583,1432.29 807.605,1432.33 808.627,1432.37 809.649,1432.4 810.67,1432.44 811.692,1432.47 812.714,1432.51 813.736,1432.54 814.758,1432.58 815.78,1432.62 816.802,1432.65 817.824,1432.69 818.846,1432.72 819.868,1432.76 820.89,1432.79 821.912,1432.82 822.934,1432.86 823.955,1432.89 824.977,1432.93 825.999,1432.96 827.021,1433 828.043,1433.03 829.065,1433.06 830.087,1433.1 831.109,1433.13 832.131,1433.16 833.153,1433.2 834.175,1433.23 835.197,1433.26 836.219,1433.29 837.24,1433.33 838.262,1433.36 839.284,1433.39 840.306,1433.42 841.328,1433.46 842.35,1433.49 843.372,1433.52 844.394,1433.55 845.416,1433.58 846.438,1433.61 847.46,1433.65 848.482,1433.68 849.504,1433.71 850.526,1433.74 851.547,1433.77 852.569,1433.8 853.591,1433.83 854.613,1433.86 855.635,1433.89 856.657,1433.92 857.679,1433.95 858.701,1433.98 859.723,1434.01 860.745,1434.04 861.767,1434.07 862.789,1434.1 863.811,1434.13 864.832,1434.16 865.854,1434.19 866.876,1434.22 867.898,1434.25 868.92,1434.28 869.942,1434.31 870.964,1434.34 871.986,1434.37 873.008,1434.39 874.03,1434.42 875.052,1434.45 876.074,1434.48 877.096,1434.51 878.118,1434.54 879.139,1434.56 880.161,1434.59 881.183,1434.62 882.205,1434.65 883.227,1434.68 884.249,1434.7 885.271,1434.73 886.293,1434.76 887.315,1434.79 888.337,1434.81 889.359,1434.84 890.381,1434.87 891.403,1434.89 892.424,1434.92 893.446,1434.95 894.468,1434.97 895.49,1435 896.512,1435.03 897.534,1435.05 898.556,1435.08 899.578,1435.11 900.6,1435.13 901.622,1435.16 902.644,1435.18 903.666,1435.21 904.688,1435.24 905.71,1435.26 906.731,1435.29 907.753,1435.31 908.775,1435.34 909.797,1435.36 910.819,1435.39 911.841,1435.41 912.863,1435.44 913.885,1435.46 914.907,1435.49 915.929,1435.51 916.951,1435.54 917.973,1435.56 918.995,1435.59 920.016,1435.61 921.038,1435.64 922.06,1435.66 923.082,1435.69 924.104,1435.71 925.126,1435.73 926.148,1435.76 927.17,1435.78 928.192,1435.81 929.214,1435.83 930.236,1435.85 931.258,1435.88 932.28,1435.9 933.301,1435.92 934.323,1435.95 935.345,1435.97 936.367,1435.99 937.389,1436.02 938.411,1436.04 939.433,1436.06 940.455,1436.09 941.477,1436.11 942.499,1436.13 943.521,1436.15 944.543,1436.18 945.565,1436.2 946.587,1436.22 947.608,1436.25 948.63,1436.27 949.652,1436.29 950.674,1436.31 951.696,1436.33 952.718,1436.36 953.74,1436.38 954.762,1436.4 955.784,1436.42 956.806,1436.44 957.828,1436.47 958.85,1436.49 959.872,1436.51 960.893,1436.53 961.915,1436.55 962.937,1436.57 963.959,1436.6 964.981,1436.62 966.003,1436.64 967.025,1436.66 968.047,1436.68 969.069,1436.7 970.091,1436.72 971.113,1436.74 972.135,1436.76 973.157,1436.79 974.179,1436.81 975.2,1436.83 976.222,1436.85 977.244,1436.87 978.266,1436.89 979.288,1436.91 980.31,1436.93 981.332,1436.95 982.354,1436.97 983.376,1436.99 984.398,1437.01 985.42,1437.03 986.442,1437.05 987.464,1437.07 988.485,1437.09 989.507,1437.11 990.529,1437.13 991.551,1437.15 992.573,1437.17 993.595,1437.19 994.617,1437.21 995.639,1437.23 996.661,1437.25 997.683,1437.27 998.705,1437.29 999.727,1437.3 1000.75,1437.32 1001.77,1437.34 1002.79,1437.36 1003.81,1437.38 1004.84,1437.4 1005.86,1437.42 1006.88,1437.44 1007.9,1437.46 1008.92,1437.48 1009.95,1437.49 1010.97,1437.51 1011.99,1437.53 1013.01,1437.55 1014.03,1437.57 1015.06,1437.59 1016.08,1437.6 1017.1,1437.62 1018.12,1437.64 1019.14,1437.66 1020.17,1437.68 1021.19,1437.7 1022.21,1437.71 1023.23,1437.73 1024.25,1437.75 1025.27,1437.77 1026.3,1437.79 1027.32,1437.8 1028.34,1437.82 1029.36,1437.84 1030.38,1437.86 1031.41,1437.87 1032.43,1437.89 1033.45,1437.91 1034.47,1437.93 1035.49,1437.94 1036.52,1437.96 1037.54,1437.98 1038.56,1438 1039.58,1438.01 1040.6,1438.03 1041.63,1438.05 1042.65,1438.06 1043.67,1438.08 1044.69,1438.1 1045.71,1438.12 1046.74,1438.13 1047.76,1438.15 1048.78,1438.17 1049.8,1438.18 1050.82,1438.2 1051.84,1438.22 1052.87,1438.23 1053.89,1438.25 1054.91,1438.27 1055.93,1438.28 1056.95,1438.3 1057.98,1438.32 1059,1438.33 1060.02,1438.35 1061.04,1438.36 1062.06,1438.38 1063.09,1438.4 1064.11,1438.41 1065.13,1438.43 1066.15,1438.44 1067.17,1438.46 1068.2,1438.48 1069.22,1438.49 1070.24,1438.51 1071.26,1438.52 1072.28,1438.54 1073.31,1438.56 1074.33,1438.57 1075.35,1438.59 1076.37,1438.6 1077.39,1438.62 1078.41,1438.63 1079.44,1438.65 1080.46,1438.66 1081.48,1438.68 1082.5,1438.7 1083.52,1438.71 1084.55,1438.73 1085.57,1438.74 1086.59,1438.76 1087.61,1438.77 1088.63,1438.79 1089.66,1438.8 1090.68,1438.82 1091.7,1438.83 1092.72,1438.85 1093.74,1438.86 1094.77,1438.88 1095.79,1438.89 1096.81,1438.91 1097.83,1438.92 1098.85,1438.94 1099.88,1438.95 1100.9,1438.97 1101.92,1438.98 1102.94,1438.99 1103.96,1439.01 1104.98,1439.02 1106.01,1439.04 1107.03,1439.05 1108.05,1439.07 1109.07,1439.08 1110.09,1439.1 1111.12,1439.11 1112.14,1439.12 1113.16,1439.14 1114.18,1439.15 1115.2,1439.17 1116.23,1439.18 1117.25,1439.19 1118.27,1439.21 1119.29,1439.22 1120.31,1439.24 1121.34,1439.25 1122.36,1439.26 1123.38,1439.28 1124.4,1439.29 1125.42,1439.31 1126.45,1439.32 1127.47,1439.33 1128.49,1439.35 1129.51,1439.36 1130.53,1439.37 1131.56,1439.39 1132.58,1439.4 1133.6,1439.41 1134.62,1439.43 1135.64,1439.44 1136.66,1439.46 1137.69,1439.47 1138.71,1439.48 1139.73,1439.5 1140.75,1439.51 1141.77,1439.52 1142.8,1439.53 1143.82,1439.55 1144.84,1439.56 1145.86,1439.57 1146.88,1439.59 1147.91,1439.6 1148.93,1439.61 1149.95,1439.63 1150.97,1439.64 1151.99,1439.65 1153.02,1439.67 1154.04,1439.68 1155.06,1439.69 1156.08,1439.7 1157.1,1439.72 1158.13,1439.73 1159.15,1439.74 1160.17,1439.75 1161.19,1439.77 1162.21,1439.78 1163.23,1439.79 1164.26,1439.81 1165.28,1439.82 1166.3,1439.83 1167.32,1439.84 1168.34,1439.86 1169.37,1439.87 1170.39,1439.88 1171.41,1439.89 1172.43,1439.9 1173.45,1439.92 1174.48,1439.93 1175.5,1439.94 1176.52,1439.95 1177.54,1439.97 1178.56,1439.98 1179.59,1439.99 1180.61,1440 1181.63,1440.01 1182.65,1440.03 1183.67,1440.04 1184.7,1440.05 1185.72,1440.06 1186.74,1440.07 1187.76,1440.09 1188.78,1440.1 1189.8,1440.11 1190.83,1440.12 1191.85,1440.13 1192.87,1440.15 1193.89,1440.16 1194.91,1440.17 1195.94,1440.18 1196.96,1440.19 1197.98,1440.2 1199,1440.22 1200.02,1440.23 1201.05,1440.24 1202.07,1440.25 1203.09,1440.26 1204.11,1440.27 1205.13,1440.28 1206.16,1440.3 1207.18,1440.31 1208.2,1440.32 1209.22,1440.33 1210.24,1440.34 1211.27,1440.35 1212.29,1440.36 1213.31,1440.37 1214.33,1440.39 1215.35,1440.4 1216.37,1440.41 1217.4,1440.42 1218.42,1440.43 1219.44,1440.44 1220.46,1440.45 1221.48,1440.46 1222.51,1440.47 1223.53,1440.49 1224.55,1440.5 1225.57,1440.51 1226.59,1440.52 1227.62,1440.53 1228.64,1440.54 1229.66,1440.55 1230.68,1440.56 1231.7,1440.57 1232.73,1440.58 1233.75,1440.59 1234.77,1440.6 1235.79,1440.62 1236.81,1440.63 1237.84,1440.64 1238.86,1440.65 1239.88,1440.66 1240.9,1440.67 1241.92,1440.68 1242.94,1440.69 1243.97,1440.7 1244.99,1440.71 1246.01,1440.72 1247.03,1440.73 1248.05,1440.74 1249.08,1440.75 1250.1,1440.76 1251.12,1440.77 1252.14,1440.78 1253.16,1440.79 1254.19,1440.8 1255.21,1440.81 1256.23,1440.82 1257.25,1440.83 1258.27,1440.84 1259.3,1440.85 1260.32,1440.86 1261.34,1440.87 1262.36,1440.89 1263.38,1440.9 1264.41,1440.91 1265.43,1440.92 1266.45,1440.93 1267.47,1440.94 1268.49,1440.95 1269.51,1440.96 1270.54,1440.97 1271.56,1440.97 1272.58,1440.98 1273.6,1440.99 1274.62,1441 1275.65,1441.01 1276.67,1441.02 1277.69,1441.03 1278.71,1441.04 1279.73,1441.05 1280.76,1441.06 1281.78,1441.07 1282.8,1441.08 1283.82,1441.09 1284.84,1441.1 1285.87,1441.11 1286.89,1441.12 1287.91,1441.13 1288.93,1441.14 1289.95,1441.15 1290.98,1441.16 1292,1441.17 1293.02,1441.18 1294.04,1441.19 1295.06,1441.2 1296.09,1441.21 1297.11,1441.22 1298.13,1441.23 1299.15,1441.23 1300.17,1441.24 1301.19,1441.25 1302.22,1441.26 1303.24,1441.27 1304.26,1441.28 1305.28,1441.29 1306.3,1441.3 1307.33,1441.31 1308.35,1441.32 1309.37,1441.33 1310.39,1441.34 1311.41,1441.35 1312.44,1441.35 1313.46,1441.36 1314.48,1441.37 1315.5,1441.38 1316.52,1441.39 1317.55,1441.4 1318.57,1441.41 1319.59,1441.42 1320.61,1441.43 1321.63,1441.44 1322.66,1441.44 1323.68,1441.45 1324.7,1441.46 1325.72,1441.47 1326.74,1441.48 1327.76,1441.49 1328.79,1441.5 1329.81,1441.51 1330.83,1441.51 1331.85,1441.52 1332.87,1441.53 1333.9,1441.54 1334.92,1441.55 1335.94,1441.56 1336.96,1441.57 1337.98,1441.58 1339.01,1441.58 1340.03,1441.59 1341.05,1441.6 1342.07,1441.61 1343.09,1441.62 1344.12,1441.63 1345.14,1441.64 1346.16,1441.64 1347.18,1441.65 1348.2,1441.66 1349.23,1441.67 1350.25,1441.68 1351.27,1441.69 1352.29,1441.7 1353.31,1441.7 1354.33,1441.71 1355.36,1441.72 1356.38,1441.73 1357.4,1441.74 1358.42,1441.75 1359.44,1441.75 1360.47,1441.76 1361.49,1441.77 1362.51,1441.78 1363.53,1441.79 1364.55,1441.79 1365.58,1441.8 1366.6,1441.81 1367.62,1441.82 1368.64,1441.83 1369.66,1441.84 1370.69,1441.84 1371.71,1441.85 1372.73,1441.86 1373.75,1441.87 1374.77,1441.88 1375.8,1441.88 1376.82,1441.89 1377.84,1441.9 1378.86,1441.91 1379.88,1441.92 1380.9,1441.92 1381.93,1441.93 1382.95,1441.94 1383.97,1441.95 1384.99,1441.96 1386.01,1441.96 1387.04,1441.97 1388.06,1441.98 1389.08,1441.99 1390.1,1442 1391.12,1442 1392.15,1442.01 1393.17,1442.02 1394.19,1442.03 1395.21,1442.03 1396.23,1442.04 1397.26,1442.05 1398.28,1442.06 1399.3,1442.06 1400.32,1442.07 1401.34,1442.08 1402.37,1442.09 1403.39,1442.1 1404.41,1442.1 1405.43,1442.11 1406.45,1442.12 1407.47,1442.13 1408.5,1442.13 1409.52,1442.14 1410.54,1442.15 1411.56,1442.16 1412.58,1442.16 1413.61,1442.17 1414.63,1442.18 1415.65,1442.19 1416.67,1442.19 1417.69,1442.2 1418.72,1442.21 1419.74,1442.22 1420.76,1442.22 1421.78,1442.23 1422.8,1442.24 1423.83,1442.25 1424.85,1442.25 1425.87,1442.26 1426.89,1442.27 1427.91,1442.27 1428.94,1442.28 1429.96,1442.29 1430.98,1442.3 1432,1442.3 1433.02,1442.31 1434.04,1442.32 1435.07,1442.33 1436.09,1442.33 1437.11,1442.34 1438.13,1442.35 1439.15,1442.35 1440.18,1442.36 1441.2,1442.37 1442.22,1442.38 1443.24,1442.38 1444.26,1442.39 1445.29,1442.4 1446.31,1442.4 1447.33,1442.41 1448.35,1442.42 1449.37,1442.42 1450.4,1442.43 1451.42,1442.44 1452.44,1442.45 1453.46,1442.45 1454.48,1442.46 1455.51,1442.47 1456.53,1442.47 1457.55,1442.48 1458.57,1442.49 1459.59,1442.49 1460.62,1442.5 1461.64,1442.51 1462.66,1442.51 1463.68,1442.52 1464.7,1442.53 1465.72,1442.54 1466.75,1442.54 1467.77,1442.55 1468.79,1442.56 1469.81,1442.56 1470.83,1442.57 1471.86,1442.58 1472.88,1442.58 1473.9,1442.59 1474.92,1442.6 1475.94,1442.6 1476.97,1442.61 1477.99,1442.62 1479.01,1442.62 1480.03,1442.63 1481.05,1442.64 1482.08,1442.64 1483.1,1442.65 1484.12,1442.66 1485.14,1442.66 1486.16,1442.67 1487.19,1442.68 1488.21,1442.68 1489.23,1442.69 1490.25,1442.7 1491.27,1442.7 1492.29,1442.71 1493.32,1442.71 1494.34,1442.72 1495.36,1442.73 1496.38,1442.73 1497.4,1442.74 1498.43,1442.75 1499.45,1442.75 1500.47,1442.76 1501.49,1442.77 1502.51,1442.77 1503.54,1442.78 1504.56,1442.79 1505.58,1442.79 1506.6,1442.8 1507.62,1442.8 1508.65,1442.81 1509.67,1442.82 1510.69,1442.82 1511.71,1442.83 1512.73,1442.84 1513.76,1442.84 1514.78,1442.85 1515.8,1442.86 1516.82,1442.86 1517.84,1442.87 1518.86,1442.87 1519.89,1442.88 1520.91,1442.89 1521.93,1442.89 1522.95,1442.9 1523.97,1442.9 1525,1442.91 1526.02,1442.92 1527.04,1442.92 1528.06,1442.93 1529.08,1442.94 1530.11,1442.94 1531.13,1442.95 1532.15,1442.95 1533.17,1442.96 1534.19,1442.97 1535.22,1442.97 1536.24,1442.98 1537.26,1442.98 1538.28,1442.99 1539.3,1443 1540.33,1443 1541.35,1443.01 1542.37,1443.01 1543.39,1443.02 1544.41,1443.03 1545.43,1443.03 1546.46,1443.04 1547.48,1443.04 1548.5,1443.05 1549.52,1443.06 1550.54,1443.06 1551.57,1443.07 1552.59,1443.07 1553.61,1443.08 1554.63,1443.09 1555.65,1443.09 1556.68,1443.1 1557.7,1443.1 1558.72,1443.11 1559.74,1443.11 1560.76,1443.12 1561.79,1443.13 1562.81,1443.13 1563.83,1443.14 1564.85,1443.14 1565.87,1443.15 1566.9,1443.15 1567.92,1443.16 1568.94,1443.17 1569.96,1443.17 1570.98,1443.18 1572,1443.18 1573.03,1443.19 1574.05,1443.19 1575.07,1443.2 1576.09,1443.21 1577.11,1443.21 1578.14,1443.22 1579.16,1443.22 1580.18,1443.23 1581.2,1443.23 1582.22,1443.24 1583.25,1443.25 1584.27,1443.25 1585.29,1443.26 1586.31,1443.26 1587.33,1443.27 1588.36,1443.27 1589.38,1443.28 1590.4,1443.28 1591.42,1443.29 1592.44,1443.3 1593.47,1443.3 1594.49,1443.31 1595.51,1443.31 1596.53,1443.32 1597.55,1443.32 1598.57,1443.33 1599.6,1443.33 1600.62,1443.34 1601.64,1443.34 1602.66,1443.35 1603.68,1443.36 1604.71,1443.36 1605.73,1443.37 1606.75,1443.37 1607.77,1443.38 1608.79,1443.38 1609.82,1443.39 1610.84,1443.39 1611.86,1443.4 1612.88,1443.4 1613.9,1443.41 1614.93,1443.41 1615.95,1443.42 1616.97,1443.43 1617.99,1443.43 1619.01,1443.44 1620.04,1443.44 1621.06,1443.45 1622.08,1443.45 1623.1,1443.46 1624.12,1443.46 1625.15,1443.47 1626.17,1443.47 1627.19,1443.48 1628.21,1443.48 1629.23,1443.49 1630.25,1443.49 1631.28,1443.5 1632.3,1443.5 1633.32,1443.51 1634.34,1443.51 1635.36,1443.52 1636.39,1443.52 1637.41,1443.53 1638.43,1443.54 1639.45,1443.54 1640.47,1443.55 1641.5,1443.55 1642.52,1443.56 1643.54,1443.56 1644.56,1443.57 1645.58,1443.57 1646.61,1443.58 1647.63,1443.58 1648.65,1443.59 1649.67,1443.59 1650.69,1443.6 1651.72,1443.6 1652.74,1443.61 1653.76,1443.61 1654.78,1443.62 1655.8,1443.62 1656.82,1443.63 1657.85,1443.63 1658.87,1443.64 1659.89,1443.64 1660.91,1443.65 1661.93,1443.65 1662.96,1443.66 1663.98,1443.66 1665,1443.67 1666.02,1443.67 1667.04,1443.68 1668.07,1443.68 1669.09,1443.69 1670.11,1443.69 1671.13,1443.7 1672.15,1443.7 1673.18,1443.71 1674.2,1443.71 1675.22,1443.71 1676.24,1443.72 1677.26,1443.72 1678.29,1443.73 1679.31,1443.73 1680.33,1443.74 1681.35,1443.74 1682.37,1443.75 1683.39,1443.75 1684.42,1443.76 1685.44,1443.76 1686.46,1443.77 1687.48,1443.77 1688.5,1443.78 1689.53,1443.78 1690.55,1443.79 1691.57,1443.79 1692.59,1443.8 1693.61,1443.8 1694.64,1443.81 1695.66,1443.81 1696.68,1443.82 1697.7,1443.82 1698.72,1443.82 1699.75,1443.83 1700.77,1443.83 1701.79,1443.84 1702.81,1443.84 1703.83,1443.85 1704.86,1443.85 1705.88,1443.86 1706.9,1443.86 1707.92,1443.87 1708.94,1443.87 1709.96,1443.88 1710.99,1443.88 1712.01,1443.88 1713.03,1443.89 1714.05,1443.89 1715.07,1443.9 1716.1,1443.9 1717.12,1443.91 1718.14,1443.91 1719.16,1443.92 1720.18,1443.92 1721.21,1443.93 1722.23,1443.93 1723.25,1443.94 1724.27,1443.94 1725.29,1443.94 1726.32,1443.95 1727.34,1443.95 1728.36,1443.96 1729.38,1443.96 1730.4,1443.97 1731.43,1443.97 1732.45,1443.98 1733.47,1443.98 1734.49,1443.98 1735.51,1443.99 1736.53,1443.99 1737.56,1444 1738.58,1444 1739.6,1444.01 1740.62,1444.01 1741.64,1444.02 1742.67,1444.02 1743.69,1444.02 1744.71,1444.03 1745.73,1444.03 1746.75,1444.04 1747.78,1444.04 1748.8,1444.05 1749.82,1444.05 1750.84,1444.05 1751.86,1444.06 1752.89,1444.06 1753.91,1444.07 1754.93,1444.07 1755.95,1444.08 1756.97,1444.08 1758,1444.09 1759.02,1444.09 1760.04,1444.09 1761.06,1444.1 1762.08,1444.1 1763.1,1444.11 1764.13,1444.11 1765.15,1444.12 1766.17,1444.12 1767.19,1444.12 1768.21,1444.13 1769.24,1444.13 1770.26,1444.14 1771.28,1444.14 1772.3,1444.14 1773.32,1444.15 1774.35,1444.15 1775.37,1444.16 1776.39,1444.16 1777.41,1444.17 1778.43,1444.17 1779.46,1444.17 1780.48,1444.18 1781.5,1444.18 1782.52,1444.19 1783.54,1444.19 1784.57,1444.2 1785.59,1444.2 1786.61,1444.2 1787.63,1444.21 1788.65,1444.21 1789.67,1444.22 1790.7,1444.22 1791.72,1444.22 1792.74,1444.23 1793.76,1444.23 1794.78,1444.24 1795.81,1444.24 1796.83,1444.24 1797.85,1444.25 1798.87,1444.25 1799.89,1444.26 1800.92,1444.26 1801.94,1444.26 1802.96,1444.27 1803.98,1444.27 1805,1444.28 1806.03,1444.28 1807.05,1444.28 1808.07,1444.29 1809.09,1444.29 1810.11,1444.3 1811.14,1444.3 1812.16,1444.3 1813.18,1444.31 1814.2,1444.31 1815.22,1444.32 1816.25,1444.32 1817.27,1444.32 1818.29,1444.33 1819.31,1444.33 1820.33,1444.34 1821.35,1444.34 1822.38,1444.34 1823.4,1444.35 1824.42,1444.35 1825.44,1444.36 1826.46,1444.36 1827.49,1444.36 1828.51,1444.37 1829.53,1444.37 1830.55,1444.38 1831.57,1444.38 1832.6,1444.38 1833.62,1444.39 1834.64,1444.39 1835.66,1444.4 1836.68,1444.4 1837.71,1444.4 1838.73,1444.41 1839.75,1444.41 1840.77,1444.41 1841.79,1444.42 1842.82,1444.42 1843.84,1444.43 1844.86,1444.43 1845.88,1444.43 1846.9,1444.44 1847.92,1444.44 1848.95,1444.45 1849.97,1444.45 1850.99,1444.45 1852.01,1444.46 1853.03,1444.46 1854.06,1444.46 1855.08,1444.47 1856.1,1444.47 1857.12,1444.48 1858.14,1444.48 1859.17,1444.48 1860.19,1444.49 1861.21,1444.49 1862.23,1444.49 1863.25,1444.5 1864.28,1444.5 1865.3,1444.51 1866.32,1444.51 1867.34,1444.51 1868.36,1444.52 1869.39,1444.52 1870.41,1444.52 1871.43,1444.53 1872.45,1444.53 1873.47,1444.53 1874.49,1444.54 1875.52,1444.54 1876.54,1444.55 1877.56,1444.55 1878.58,1444.55 1879.6,1444.56 1880.63,1444.56 1881.65,1444.56 1882.67,1444.57 1883.69,1444.57 1884.71,1444.58 1885.74,1444.58 1886.76,1444.58 1887.78,1444.59 1888.8,1444.59 1889.82,1444.59 1890.85,1444.6 1891.87,1444.6 1892.89,1444.6 1893.91,1444.61 1894.93,1444.61 1895.96,1444.61 1896.98,1444.62 1898,1444.62 1899.02,1444.63 1900.04,1444.63 1901.06,1444.63 1902.09,1444.64 1903.11,1444.64 1904.13,1444.64 1905.15,1444.65 1906.17,1444.65 1907.2,1444.65 1908.22,1444.66 1909.24,1444.66 1910.26,1444.66 1911.28,1444.67 1912.31,1444.67 1913.33,1444.67 1914.35,1444.68 1915.37,1444.68 1916.39,1444.69 1917.42,1444.69 1918.44,1444.69 1919.46,1444.7 1920.48,1444.7 1921.5,1444.7 1922.53,1444.71 1923.55,1444.71 1924.57,1444.71 1925.59,1444.72 1926.61,1444.72 1927.63,1444.72 1928.66,1444.73 1929.68,1444.73 1930.7,1444.73 1931.72,1444.74 1932.74,1444.74 1933.77,1444.74 1934.79,1444.75 1935.81,1444.75 1936.83,1444.75 1937.85,1444.76 1938.88,1444.76 1939.9,1444.76 1940.92,1444.77 1941.94,1444.77 1942.96,1444.77 1943.99,1444.78 1945.01,1444.78 1946.03,1444.78 1947.05,1444.79 1948.07,1444.79 1949.1,1444.79 1950.12,1444.8 1951.14,1444.8 1952.16,1444.8 1953.18,1444.81 1954.2,1444.81 1955.23,1444.81 1956.25,1444.82 1957.27,1444.82 1958.29,1444.82 1959.31,1444.83 1960.34,1444.83 1961.36,1444.83 1962.38,1444.84 1963.4,1444.84 1964.42,1444.84 1965.45,1444.85 1966.47,1444.85 1967.49,1444.85 1968.51,1444.86 1969.53,1444.86 1970.56,1444.86 1971.58,1444.87 1972.6,1444.87 1973.62,1444.87 1974.64,1444.88 1975.67,1444.88 1976.69,1444.88 1977.71,1444.89 1978.73,1444.89 1979.75,1444.89 1980.78,1444.9 1981.8,1444.9 1982.82,1444.9 1983.84,1444.91 1984.86,1444.91 1985.88,1444.91 1986.91,1444.92 1987.93,1444.92 1988.95,1444.92 1989.97,1444.92 1990.99,1444.93 1992.02,1444.93 1993.04,1444.93 1994.06,1444.94 1995.08,1444.94 1996.1,1444.94 1997.13,1444.95 1998.15,1444.95 1999.17,1444.95 2000.19,1444.96 2001.21,1444.96 2002.24,1444.96 2003.26,1444.97 2004.28,1444.97 2005.3,1444.97 2006.32,1444.97 2007.35,1444.98 2008.37,1444.98 2009.39,1444.98 2010.41,1444.99 2011.43,1444.99 2012.45,1444.99 2013.48,1445 2014.5,1445 2015.52,1445 2016.54,1445.01 2017.56,1445.01 2018.59,1445.01 2019.61,1445.02 2020.63,1445.02 2021.65,1445.02 2022.67,1445.02 2023.7,1445.03 2024.72,1445.03 2025.74,1445.03 2026.76,1445.04 2027.78,1445.04 2028.81,1445.04 2029.83,1445.05 2030.85,1445.05 2031.87,1445.05 2032.89,1445.05 2033.92,1445.06 2034.94,1445.06 2035.96,1445.06 2036.98,1445.07 2038,1445.07 2039.02,1445.07 2040.05,1445.08 2041.07,1445.08 2042.09,1445.08 2043.11,1445.08 2044.13,1445.09 2045.16,1445.09 2046.18,1445.09 2047.2,1445.1 2048.22,1445.1 2049.24,1445.1 2050.27,1445.11 2051.29,1445.11 2052.31,1445.11 2053.33,1445.11 2054.35,1445.12 2055.38,1445.12 2056.4,1445.12 2057.42,1445.13 2058.44,1445.13 2059.46,1445.13 2060.49,1445.13 2061.51,1445.14 2062.53,1445.14 2063.55,1445.14 2064.57,1445.15 2065.59,1445.15 2066.62,1445.15 2067.64,1445.16 2068.66,1445.16 2069.68,1445.16 2070.7,1445.16 2071.73,1445.17 2072.75,1445.17 2073.77,1445.17 2074.79,1445.18 2075.81,1445.18 2076.84,1445.18 2077.86,1445.18 2078.88,1445.19 2079.9,1445.19 2080.92,1445.19 2081.95,1445.2 2082.97,1445.2 2083.99,1445.2 2085.01,1445.2 2086.03,1445.21 2087.06,1445.21 2088.08,1445.21 2089.1,1445.22 2090.12,1445.22 2091.14,1445.22 2092.16,1445.22 2093.19,1445.23 2094.21,1445.23 2095.23,1445.23 2096.25,1445.23 2097.27,1445.24 2098.3,1445.24 2099.32,1445.24 2100.34,1445.25 2101.36,1445.25 2102.38,1445.25 2103.41,1445.25 2104.43,1445.26 2105.45,1445.26 2106.47,1445.26 2107.49,1445.27 2108.52,1445.27 2109.54,1445.27 2110.56,1445.27 2111.58,1445.28 2112.6,1445.28 2113.63,1445.28 2114.65,1445.28 2115.67,1445.29 2116.69,1445.29 2117.71,1445.29 2118.73,1445.3 2119.76,1445.3 2120.78,1445.3 2121.8,1445.3 2122.82,1445.31 2123.84,1445.31 2124.87,1445.31 2125.89,1445.31 2126.91,1445.32 2127.93,1445.32 2128.95,1445.32 2129.98,1445.33 2131,1445.33 2132.02,1445.33 2133.04,1445.33 2134.06,1445.34 2135.09,1445.34 2136.11,1445.34 2137.13,1445.34 2138.15,1445.35 2139.17,1445.35 2140.2,1445.35 2141.22,1445.35 2142.24,1445.36 2143.26,1445.36 2144.28,1445.36 2145.31,1445.37 2146.33,1445.37 2147.35,1445.37 2148.37,1445.37 2149.39,1445.38 2150.41,1445.38 2151.44,1445.38 2152.46,1445.38 2153.48,1445.39 2154.5,1445.39 2155.52,1445.39 2156.55,1445.39 2157.57,1445.4 2158.59,1445.4 2159.61,1445.4 2160.63,1445.4 2161.66,1445.41 2162.68,1445.41 2163.7,1445.41 2164.72,1445.42 2165.74,1445.42 2166.77,1445.42 2167.79,1445.42 2168.81,1445.43 2169.83,1445.43 2170.85,1445.43 2171.88,1445.43 2172.9,1445.44 2173.92,1445.44 2174.94,1445.44 2175.96,1445.44 2176.98,1445.45 2178.01,1445.45 2179.03,1445.45 2180.05,1445.45 2181.07,1445.46 2182.09,1445.46 2183.12,1445.46 2184.14,1445.46 2185.16,1445.47 2186.18,1445.47 2187.2,1445.47 2188.23,1445.47 2189.25,1445.48 2190.27,1445.48 2191.29,1445.48 2192.31,1445.48 2193.34,1445.49 2194.36,1445.49 2195.38,1445.49 2196.4,1445.49 2197.42,1445.5 2198.45,1445.5 2199.47,1445.5 2200.49,1445.5 2201.51,1445.51 2202.53,1445.51 2203.55,1445.51 2204.58,1445.51 2205.6,1445.52 2206.62,1445.52 2207.64,1445.52 2208.66,1445.52 2209.69,1445.53 2210.71,1445.53 2211.73,1445.53 2212.75,1445.53 2213.77,1445.54 2214.8,1445.54 2215.82,1445.54 2216.84,1445.54 2217.86,1445.55 2218.88,1445.55 2219.91,1445.55 2220.93,1445.55 2221.95,1445.56 2222.97,1445.56 2223.99,1445.56 2225.02,1445.56 2226.04,1445.57 2227.06,1445.57 2228.08,1445.57 2229.1,1445.57 2230.12,1445.58 2231.15,1445.58 2232.17,1445.58 2233.19,1445.58 2234.21,1445.59 2235.23,1445.59 2236.26,1445.59 2237.28,1445.59 2238.3,1445.59 2239.32,1445.6 2240.34,1445.6 2241.37,1445.6 2242.39,1445.6 2243.41,1445.61 2244.43,1445.61 2245.45,1445.61 2246.48,1445.61 2247.5,1445.62 2248.52,1445.62 2249.54,1445.62 2250.56,1445.62 2251.59,1445.63 2252.61,1445.63 2253.63,1445.63 2254.65,1445.63 2255.67,1445.63 2256.69,1445.64 2257.72,1445.64 2258.74,1445.64 2259.76,1445.64 2260.78,1445.65 2261.8,1445.65 2262.83,1445.65 2263.85,1445.65 2264.87,1445.66 2265.89,1445.66 2266.91,1445.66 2267.94,1445.66 2268.96,1445.67 2269.98,1445.67 2271,1445.67 2272.02,1445.67 2273.05,1445.67 2274.07,1445.68 2275.09,1445.68 2276.11,1445.68 2277.13,1445.68 2278.16,1445.69 2279.18,1445.69 2280.2,1445.69 2281.22,1445.69 2282.24,1445.7 2283.26,1445.7 2284.29,1445.7 2285.31,1445.7 2286.33,1445.7 2287.35,1445.71 2288.37,1445.71 2289.4,1445.71 2290.42,1445.71 2291.44,1445.72 "/>
<path clip-path="url(#clip570)" d="M2011.46 198.898 L2280.54 198.898 L2280.54 95.2176 L2011.46 95.2176  Z" fill="#ffffff" fill-rule="evenodd" fill-opacity="1"/>
<polyline clip-path="url(#clip570)" style="stroke:#000000; stroke-linecap:round; stroke-linejoin:round; stroke-width:4; stroke-opacity:1; fill:none" points="2011.46,198.898 2280.54,198.898 2280.54,95.2176 2011.46,95.2176 2011.46,198.898 "/>
<polyline clip-path="url(#clip570)" style="stroke:#009af9; stroke-linecap:round; stroke-linejoin:round; stroke-width:4; stroke-opacity:1; fill:none" points="2035.53,147.058 2179.97,147.058 "/>
<path clip-path="url(#clip570)" d="M2217.88 166.745 Q2216.07 171.375 2214.36 172.787 Q2212.65 174.199 2209.78 174.199 L2206.38 174.199 L2206.38 170.634 L2208.88 170.634 Q2210.63 170.634 2211.61 169.8 Q2212.58 168.967 2213.76 165.865 L2214.52 163.921 L2204.04 138.412 L2208.55 138.412 L2216.65 158.689 L2224.76 138.412 L2229.27 138.412 L2217.88 166.745 Z" fill="#000000" fill-rule="nonzero" fill-opacity="1" /><path clip-path="url(#clip570)" d="M2236.56 160.402 L2244.2 160.402 L2244.2 134.037 L2235.89 135.703 L2235.89 131.444 L2244.15 129.778 L2248.83 129.778 L2248.83 160.402 L2256.47 160.402 L2256.47 164.338 L2236.56 164.338 L2236.56 160.402 Z" fill="#000000" fill-rule="nonzero" fill-opacity="1" /></svg>
