<?xml version="1.0" encoding="utf-8"?>
<svg xmlns="http://www.w3.org/2000/svg" xmlns:xlink="http://www.w3.org/1999/xlink" width="600" height="400" viewBox="0 0 2400 1600">
<defs>
  <clipPath id="clip680">
    <rect x="0" y="0" width="2400" height="1600"/>
  </clipPath>
</defs>
<path clip-path="url(#clip680)" d="M0 1600 L2400 1600 L2400 0 L0 0  Z" fill="#ffffff" fill-rule="evenodd" fill-opacity="1"/>
<defs>
  <clipPath id="clip681">
    <rect x="480" y="0" width="1681" height="1600"/>
  </clipPath>
</defs>
<path clip-path="url(#clip680)" d="M186.274 1486.45 L2352.76 1486.45 L2352.76 47.2441 L186.274 47.2441  Z" fill="#ffffff" fill-rule="evenodd" fill-opacity="1"/>
<defs>
  <clipPath id="clip682">
    <rect x="186" y="47" width="2167" height="1440"/>
  </clipPath>
</defs>
<polyline clip-path="url(#clip682)" style="stroke:#000000; stroke-linecap:round; stroke-linejoin:round; stroke-width:2; stroke-opacity:0.1; fill:none" points="247.59,1486.45 247.59,47.2441 "/>
<polyline clip-path="url(#clip682)" style="stroke:#000000; stroke-linecap:round; stroke-linejoin:round; stroke-width:2; stroke-opacity:0.1; fill:none" points="656.523,1486.45 656.523,47.2441 "/>
<polyline clip-path="url(#clip682)" style="stroke:#000000; stroke-linecap:round; stroke-linejoin:round; stroke-width:2; stroke-opacity:0.1; fill:none" points="1065.46,1486.45 1065.46,47.2441 "/>
<polyline clip-path="url(#clip682)" style="stroke:#000000; stroke-linecap:round; stroke-linejoin:round; stroke-width:2; stroke-opacity:0.1; fill:none" points="1474.39,1486.45 1474.39,47.2441 "/>
<polyline clip-path="url(#clip682)" style="stroke:#000000; stroke-linecap:round; stroke-linejoin:round; stroke-width:2; stroke-opacity:0.1; fill:none" points="1883.32,1486.45 1883.32,47.2441 "/>
<polyline clip-path="url(#clip682)" style="stroke:#000000; stroke-linecap:round; stroke-linejoin:round; stroke-width:2; stroke-opacity:0.1; fill:none" points="2292.26,1486.45 2292.26,47.2441 "/>
<polyline clip-path="url(#clip680)" style="stroke:#000000; stroke-linecap:round; stroke-linejoin:round; stroke-width:4; stroke-opacity:1; fill:none" points="186.274,1486.45 2352.76,1486.45 "/>
<polyline clip-path="url(#clip680)" style="stroke:#000000; stroke-linecap:round; stroke-linejoin:round; stroke-width:4; stroke-opacity:1; fill:none" points="247.59,1486.45 247.59,1467.55 "/>
<polyline clip-path="url(#clip680)" style="stroke:#000000; stroke-linecap:round; stroke-linejoin:round; stroke-width:4; stroke-opacity:1; fill:none" points="656.523,1486.45 656.523,1467.55 "/>
<polyline clip-path="url(#clip680)" style="stroke:#000000; stroke-linecap:round; stroke-linejoin:round; stroke-width:4; stroke-opacity:1; fill:none" points="1065.46,1486.45 1065.46,1467.55 "/>
<polyline clip-path="url(#clip680)" style="stroke:#000000; stroke-linecap:round; stroke-linejoin:round; stroke-width:4; stroke-opacity:1; fill:none" points="1474.39,1486.45 1474.39,1467.55 "/>
<polyline clip-path="url(#clip680)" style="stroke:#000000; stroke-linecap:round; stroke-linejoin:round; stroke-width:4; stroke-opacity:1; fill:none" points="1883.32,1486.45 1883.32,1467.55 "/>
<polyline clip-path="url(#clip680)" style="stroke:#000000; stroke-linecap:round; stroke-linejoin:round; stroke-width:4; stroke-opacity:1; fill:none" points="2292.26,1486.45 2292.26,1467.55 "/>
<path clip-path="url(#clip680)" d="M247.59 1517.37 Q243.978 1517.37 242.15 1520.93 Q240.344 1524.47 240.344 1531.6 Q240.344 1538.71 242.15 1542.27 Q243.978 1545.82 247.59 1545.82 Q251.224 1545.82 253.029 1542.27 Q254.858 1538.71 254.858 1531.6 Q254.858 1524.47 253.029 1520.93 Q251.224 1517.37 247.59 1517.37 M247.59 1513.66 Q253.4 1513.66 256.455 1518.27 Q259.534 1522.85 259.534 1531.6 Q259.534 1540.33 256.455 1544.94 Q253.4 1549.52 247.59 1549.52 Q241.779 1549.52 238.701 1544.94 Q235.645 1540.33 235.645 1531.6 Q235.645 1522.85 238.701 1518.27 Q241.779 1513.66 247.59 1513.66 Z" fill="#000000" fill-rule="nonzero" fill-opacity="1" /><path clip-path="url(#clip680)" d="M616.142 1514.29 L634.498 1514.29 L634.498 1518.22 L620.424 1518.22 L620.424 1526.7 Q621.442 1526.35 622.461 1526.19 Q623.479 1526 624.498 1526 Q630.285 1526 633.665 1529.17 Q637.044 1532.34 637.044 1537.76 Q637.044 1543.34 633.572 1546.44 Q630.1 1549.52 623.78 1549.52 Q621.604 1549.52 619.336 1549.15 Q617.091 1548.78 614.683 1548.04 L614.683 1543.34 Q616.767 1544.47 618.989 1545.03 Q621.211 1545.58 623.688 1545.58 Q627.692 1545.58 630.03 1543.48 Q632.368 1541.37 632.368 1537.76 Q632.368 1534.15 630.03 1532.04 Q627.692 1529.94 623.688 1529.94 Q621.813 1529.94 619.938 1530.35 Q618.086 1530.77 616.142 1531.65 L616.142 1514.29 Z" fill="#000000" fill-rule="nonzero" fill-opacity="1" /><path clip-path="url(#clip680)" d="M656.257 1517.37 Q652.646 1517.37 650.817 1520.93 Q649.012 1524.47 649.012 1531.6 Q649.012 1538.71 650.817 1542.27 Q652.646 1545.82 656.257 1545.82 Q659.891 1545.82 661.697 1542.27 Q663.526 1538.71 663.526 1531.6 Q663.526 1524.47 661.697 1520.93 Q659.891 1517.37 656.257 1517.37 M656.257 1513.66 Q662.067 1513.66 665.123 1518.27 Q668.201 1522.85 668.201 1531.6 Q668.201 1540.33 665.123 1544.94 Q662.067 1549.52 656.257 1549.52 Q650.447 1549.52 647.368 1544.94 Q644.313 1540.33 644.313 1531.6 Q644.313 1522.85 647.368 1518.27 Q650.447 1513.66 656.257 1513.66 Z" fill="#000000" fill-rule="nonzero" fill-opacity="1" /><path clip-path="url(#clip680)" d="M686.419 1517.37 Q682.808 1517.37 680.979 1520.93 Q679.174 1524.47 679.174 1531.6 Q679.174 1538.71 680.979 1542.27 Q682.808 1545.82 686.419 1545.82 Q690.053 1545.82 691.859 1542.27 Q693.687 1538.71 693.687 1531.6 Q693.687 1524.47 691.859 1520.93 Q690.053 1517.37 686.419 1517.37 M686.419 1513.66 Q692.229 1513.66 695.285 1518.27 Q698.363 1522.85 698.363 1531.6 Q698.363 1540.33 695.285 1544.94 Q692.229 1549.52 686.419 1549.52 Q680.609 1549.52 677.53 1544.94 Q674.475 1540.33 674.475 1531.6 Q674.475 1522.85 677.53 1518.27 Q680.609 1513.66 686.419 1513.66 Z" fill="#000000" fill-rule="nonzero" fill-opacity="1" /><path clip-path="url(#clip680)" d="M1009.98 1544.91 L1017.62 1544.91 L1017.62 1518.55 L1009.31 1520.21 L1009.31 1515.95 L1017.58 1514.29 L1022.25 1514.29 L1022.25 1544.91 L1029.89 1544.91 L1029.89 1548.85 L1009.98 1548.85 L1009.98 1544.91 Z" fill="#000000" fill-rule="nonzero" fill-opacity="1" /><path clip-path="url(#clip680)" d="M1049.33 1517.37 Q1045.72 1517.37 1043.89 1520.93 Q1042.09 1524.47 1042.09 1531.6 Q1042.09 1538.71 1043.89 1542.27 Q1045.72 1545.82 1049.33 1545.82 Q1052.97 1545.82 1054.77 1542.27 Q1056.6 1538.71 1056.6 1531.6 Q1056.6 1524.47 1054.77 1520.93 Q1052.97 1517.37 1049.33 1517.37 M1049.33 1513.66 Q1055.14 1513.66 1058.2 1518.27 Q1061.28 1522.85 1061.28 1531.6 Q1061.28 1540.33 1058.2 1544.94 Q1055.14 1549.52 1049.33 1549.52 Q1043.52 1549.52 1040.45 1544.94 Q1037.39 1540.33 1037.39 1531.6 Q1037.39 1522.85 1040.45 1518.27 Q1043.52 1513.66 1049.33 1513.66 Z" fill="#000000" fill-rule="nonzero" fill-opacity="1" /><path clip-path="url(#clip680)" d="M1079.5 1517.37 Q1075.89 1517.37 1074.06 1520.93 Q1072.25 1524.47 1072.25 1531.6 Q1072.25 1538.71 1074.06 1542.27 Q1075.89 1545.82 1079.5 1545.82 Q1083.13 1545.82 1084.94 1542.27 Q1086.76 1538.71 1086.76 1531.6 Q1086.76 1524.47 1084.94 1520.93 Q1083.13 1517.37 1079.5 1517.37 M1079.5 1513.66 Q1085.31 1513.66 1088.36 1518.27 Q1091.44 1522.85 1091.44 1531.6 Q1091.44 1540.33 1088.36 1544.94 Q1085.31 1549.52 1079.5 1549.52 Q1073.69 1549.52 1070.61 1544.94 Q1067.55 1540.33 1067.55 1531.6 Q1067.55 1522.85 1070.61 1518.27 Q1073.69 1513.66 1079.5 1513.66 Z" fill="#000000" fill-rule="nonzero" fill-opacity="1" /><path clip-path="url(#clip680)" d="M1109.66 1517.37 Q1106.05 1517.37 1104.22 1520.93 Q1102.41 1524.47 1102.41 1531.6 Q1102.41 1538.71 1104.22 1542.27 Q1106.05 1545.82 1109.66 1545.82 Q1113.29 1545.82 1115.1 1542.27 Q1116.93 1538.71 1116.93 1531.6 Q1116.93 1524.47 1115.1 1520.93 Q1113.29 1517.37 1109.66 1517.37 M1109.66 1513.66 Q1115.47 1513.66 1118.52 1518.27 Q1121.6 1522.85 1121.6 1531.6 Q1121.6 1540.33 1118.52 1544.94 Q1115.47 1549.52 1109.66 1549.52 Q1103.85 1549.52 1100.77 1544.94 Q1097.71 1540.33 1097.71 1531.6 Q1097.71 1522.85 1100.77 1518.27 Q1103.85 1513.66 1109.66 1513.66 Z" fill="#000000" fill-rule="nonzero" fill-opacity="1" /><path clip-path="url(#clip680)" d="M1418.92 1544.91 L1426.56 1544.91 L1426.56 1518.55 L1418.25 1520.21 L1418.25 1515.95 L1426.51 1514.29 L1431.18 1514.29 L1431.18 1544.91 L1438.82 1544.91 L1438.82 1548.85 L1418.92 1548.85 L1418.92 1544.91 Z" fill="#000000" fill-rule="nonzero" fill-opacity="1" /><path clip-path="url(#clip680)" d="M1448.31 1514.29 L1466.67 1514.29 L1466.67 1518.22 L1452.6 1518.22 L1452.6 1526.7 Q1453.62 1526.35 1454.63 1526.19 Q1455.65 1526 1456.67 1526 Q1462.46 1526 1465.84 1529.17 Q1469.22 1532.34 1469.22 1537.76 Q1469.22 1543.34 1465.74 1546.44 Q1462.27 1549.52 1455.95 1549.52 Q1453.78 1549.52 1451.51 1549.15 Q1449.26 1548.78 1446.86 1548.04 L1446.86 1543.34 Q1448.94 1544.47 1451.16 1545.03 Q1453.38 1545.58 1455.86 1545.58 Q1459.87 1545.58 1462.2 1543.48 Q1464.54 1541.37 1464.54 1537.76 Q1464.54 1534.15 1462.2 1532.04 Q1459.87 1529.94 1455.86 1529.94 Q1453.99 1529.94 1452.11 1530.35 Q1450.26 1530.77 1448.31 1531.65 L1448.31 1514.29 Z" fill="#000000" fill-rule="nonzero" fill-opacity="1" /><path clip-path="url(#clip680)" d="M1488.43 1517.37 Q1484.82 1517.37 1482.99 1520.93 Q1481.18 1524.47 1481.18 1531.6 Q1481.18 1538.71 1482.99 1542.27 Q1484.82 1545.82 1488.43 1545.82 Q1492.06 1545.82 1493.87 1542.27 Q1495.7 1538.71 1495.7 1531.6 Q1495.7 1524.47 1493.87 1520.93 Q1492.06 1517.37 1488.43 1517.37 M1488.43 1513.66 Q1494.24 1513.66 1497.3 1518.27 Q1500.37 1522.85 1500.37 1531.6 Q1500.37 1540.33 1497.3 1544.94 Q1494.24 1549.52 1488.43 1549.52 Q1482.62 1549.52 1479.54 1544.94 Q1476.49 1540.33 1476.49 1531.6 Q1476.49 1522.85 1479.54 1518.27 Q1482.62 1513.66 1488.43 1513.66 Z" fill="#000000" fill-rule="nonzero" fill-opacity="1" /><path clip-path="url(#clip680)" d="M1518.59 1517.37 Q1514.98 1517.37 1513.15 1520.93 Q1511.35 1524.47 1511.35 1531.6 Q1511.35 1538.71 1513.15 1542.27 Q1514.98 1545.82 1518.59 1545.82 Q1522.23 1545.82 1524.03 1542.27 Q1525.86 1538.71 1525.86 1531.6 Q1525.86 1524.47 1524.03 1520.93 Q1522.23 1517.37 1518.59 1517.37 M1518.59 1513.66 Q1524.4 1513.66 1527.46 1518.27 Q1530.54 1522.85 1530.54 1531.6 Q1530.54 1540.33 1527.46 1544.94 Q1524.4 1549.52 1518.59 1549.52 Q1512.78 1549.52 1509.7 1544.94 Q1506.65 1540.33 1506.65 1531.6 Q1506.65 1522.85 1509.7 1518.27 Q1512.78 1513.66 1518.59 1513.66 Z" fill="#000000" fill-rule="nonzero" fill-opacity="1" /><path clip-path="url(#clip680)" d="M1831.94 1544.91 L1848.26 1544.91 L1848.26 1548.85 L1826.31 1548.85 L1826.31 1544.91 Q1828.97 1542.16 1833.56 1537.53 Q1838.16 1532.88 1839.34 1531.53 Q1841.59 1529.01 1842.47 1527.27 Q1843.37 1525.51 1843.37 1523.82 Q1843.37 1521.07 1841.43 1519.33 Q1839.51 1517.6 1836.4 1517.6 Q1834.2 1517.6 1831.75 1518.36 Q1829.32 1519.13 1826.54 1520.68 L1826.54 1515.95 Q1829.37 1514.82 1831.82 1514.24 Q1834.27 1513.66 1836.31 1513.66 Q1841.68 1513.66 1844.88 1516.35 Q1848.07 1519.03 1848.07 1523.52 Q1848.07 1525.65 1847.26 1527.57 Q1846.47 1529.47 1844.37 1532.07 Q1843.79 1532.74 1840.69 1535.95 Q1837.58 1539.15 1831.94 1544.91 Z" fill="#000000" fill-rule="nonzero" fill-opacity="1" /><path clip-path="url(#clip680)" d="M1868.07 1517.37 Q1864.46 1517.37 1862.63 1520.93 Q1860.82 1524.47 1860.82 1531.6 Q1860.82 1538.71 1862.63 1542.27 Q1864.46 1545.82 1868.07 1545.82 Q1871.7 1545.82 1873.51 1542.27 Q1875.34 1538.71 1875.34 1531.6 Q1875.34 1524.47 1873.51 1520.93 Q1871.7 1517.37 1868.07 1517.37 M1868.07 1513.66 Q1873.88 1513.66 1876.94 1518.27 Q1880.01 1522.85 1880.01 1531.6 Q1880.01 1540.33 1876.94 1544.94 Q1873.88 1549.52 1868.07 1549.52 Q1862.26 1549.52 1859.18 1544.94 Q1856.13 1540.33 1856.13 1531.6 Q1856.13 1522.85 1859.18 1518.27 Q1862.26 1513.66 1868.07 1513.66 Z" fill="#000000" fill-rule="nonzero" fill-opacity="1" /><path clip-path="url(#clip680)" d="M1898.23 1517.37 Q1894.62 1517.37 1892.79 1520.93 Q1890.99 1524.47 1890.99 1531.6 Q1890.99 1538.71 1892.79 1542.27 Q1894.62 1545.82 1898.23 1545.82 Q1901.87 1545.82 1903.67 1542.27 Q1905.5 1538.71 1905.5 1531.6 Q1905.5 1524.47 1903.67 1520.93 Q1901.87 1517.37 1898.23 1517.37 M1898.23 1513.66 Q1904.04 1513.66 1907.1 1518.27 Q1910.18 1522.85 1910.18 1531.6 Q1910.18 1540.33 1907.1 1544.94 Q1904.04 1549.52 1898.23 1549.52 Q1892.42 1549.52 1889.34 1544.94 Q1886.29 1540.33 1886.29 1531.6 Q1886.29 1522.85 1889.34 1518.27 Q1892.42 1513.66 1898.23 1513.66 Z" fill="#000000" fill-rule="nonzero" fill-opacity="1" /><path clip-path="url(#clip680)" d="M1928.39 1517.37 Q1924.78 1517.37 1922.95 1520.93 Q1921.15 1524.47 1921.15 1531.6 Q1921.15 1538.71 1922.95 1542.27 Q1924.78 1545.82 1928.39 1545.82 Q1932.03 1545.82 1933.83 1542.27 Q1935.66 1538.71 1935.66 1531.6 Q1935.66 1524.47 1933.83 1520.93 Q1932.03 1517.37 1928.39 1517.37 M1928.39 1513.66 Q1934.2 1513.66 1937.26 1518.27 Q1940.34 1522.85 1940.34 1531.6 Q1940.34 1540.33 1937.26 1544.94 Q1934.2 1549.52 1928.39 1549.52 Q1922.58 1549.52 1919.5 1544.94 Q1916.45 1540.33 1916.45 1531.6 Q1916.45 1522.85 1919.5 1518.27 Q1922.58 1513.66 1928.39 1513.66 Z" fill="#000000" fill-rule="nonzero" fill-opacity="1" /><path clip-path="url(#clip680)" d="M2240.87 1544.91 L2257.19 1544.91 L2257.19 1548.85 L2235.24 1548.85 L2235.24 1544.91 Q2237.91 1542.16 2242.49 1537.53 Q2247.1 1532.88 2248.28 1531.53 Q2250.52 1529.01 2251.4 1527.27 Q2252.3 1525.51 2252.3 1523.82 Q2252.3 1521.07 2250.36 1519.33 Q2248.44 1517.6 2245.34 1517.6 Q2243.14 1517.6 2240.68 1518.36 Q2238.25 1519.13 2235.48 1520.68 L2235.48 1515.95 Q2238.3 1514.82 2240.75 1514.24 Q2243.21 1513.66 2245.24 1513.66 Q2250.61 1513.66 2253.81 1516.35 Q2257 1519.03 2257 1523.52 Q2257 1525.65 2256.19 1527.57 Q2255.41 1529.47 2253.3 1532.07 Q2252.72 1532.74 2249.62 1535.95 Q2246.52 1539.15 2240.87 1544.91 Z" fill="#000000" fill-rule="nonzero" fill-opacity="1" /><path clip-path="url(#clip680)" d="M2267.05 1514.29 L2285.41 1514.29 L2285.41 1518.22 L2271.33 1518.22 L2271.33 1526.7 Q2272.35 1526.35 2273.37 1526.19 Q2274.39 1526 2275.41 1526 Q2281.19 1526 2284.57 1529.17 Q2287.95 1532.34 2287.95 1537.76 Q2287.95 1543.34 2284.48 1546.44 Q2281.01 1549.52 2274.69 1549.52 Q2272.51 1549.52 2270.24 1549.15 Q2268 1548.78 2265.59 1548.04 L2265.59 1543.34 Q2267.68 1544.47 2269.9 1545.03 Q2272.12 1545.58 2274.6 1545.58 Q2278.6 1545.58 2280.94 1543.48 Q2283.28 1541.37 2283.28 1537.76 Q2283.28 1534.15 2280.94 1532.04 Q2278.6 1529.94 2274.6 1529.94 Q2272.72 1529.94 2270.85 1530.35 Q2268.99 1530.77 2267.05 1531.65 L2267.05 1514.29 Z" fill="#000000" fill-rule="nonzero" fill-opacity="1" /><path clip-path="url(#clip680)" d="M2307.17 1517.37 Q2303.55 1517.37 2301.73 1520.93 Q2299.92 1524.47 2299.92 1531.6 Q2299.92 1538.71 2301.73 1542.27 Q2303.55 1545.82 2307.17 1545.82 Q2310.8 1545.82 2312.61 1542.27 Q2314.43 1538.71 2314.43 1531.6 Q2314.43 1524.47 2312.61 1520.93 Q2310.8 1517.37 2307.17 1517.37 M2307.17 1513.66 Q2312.98 1513.66 2316.03 1518.27 Q2319.11 1522.85 2319.11 1531.6 Q2319.11 1540.33 2316.03 1544.94 Q2312.98 1549.52 2307.17 1549.52 Q2301.36 1549.52 2298.28 1544.94 Q2295.22 1540.33 2295.22 1531.6 Q2295.22 1522.85 2298.28 1518.27 Q2301.36 1513.66 2307.17 1513.66 Z" fill="#000000" fill-rule="nonzero" fill-opacity="1" /><path clip-path="url(#clip680)" d="M2337.33 1517.37 Q2333.72 1517.37 2331.89 1520.93 Q2330.08 1524.47 2330.08 1531.6 Q2330.08 1538.71 2331.89 1542.27 Q2333.72 1545.82 2337.33 1545.82 Q2340.96 1545.82 2342.77 1542.27 Q2344.6 1538.71 2344.6 1531.6 Q2344.6 1524.47 2342.77 1520.93 Q2340.96 1517.37 2337.33 1517.37 M2337.33 1513.66 Q2343.14 1513.66 2346.19 1518.27 Q2349.27 1522.85 2349.27 1531.6 Q2349.27 1540.33 2346.19 1544.94 Q2343.14 1549.52 2337.33 1549.52 Q2331.52 1549.52 2328.44 1544.94 Q2325.38 1540.33 2325.38 1531.6 Q2325.38 1522.85 2328.44 1518.27 Q2331.52 1513.66 2337.33 1513.66 Z" fill="#000000" fill-rule="nonzero" fill-opacity="1" /><polyline clip-path="url(#clip682)" style="stroke:#000000; stroke-linecap:round; stroke-linejoin:round; stroke-width:2; stroke-opacity:0.1; fill:none" points="186.274,1353.93 2352.76,1353.93 "/>
<polyline clip-path="url(#clip682)" style="stroke:#000000; stroke-linecap:round; stroke-linejoin:round; stroke-width:2; stroke-opacity:0.1; fill:none" points="186.274,1052.11 2352.76,1052.11 "/>
<polyline clip-path="url(#clip682)" style="stroke:#000000; stroke-linecap:round; stroke-linejoin:round; stroke-width:2; stroke-opacity:0.1; fill:none" points="186.274,750.282 2352.76,750.282 "/>
<polyline clip-path="url(#clip682)" style="stroke:#000000; stroke-linecap:round; stroke-linejoin:round; stroke-width:2; stroke-opacity:0.1; fill:none" points="186.274,448.456 2352.76,448.456 "/>
<polyline clip-path="url(#clip682)" style="stroke:#000000; stroke-linecap:round; stroke-linejoin:round; stroke-width:2; stroke-opacity:0.1; fill:none" points="186.274,146.631 2352.76,146.631 "/>
<polyline clip-path="url(#clip680)" style="stroke:#000000; stroke-linecap:round; stroke-linejoin:round; stroke-width:4; stroke-opacity:1; fill:none" points="186.274,1486.45 186.274,47.2441 "/>
<polyline clip-path="url(#clip680)" style="stroke:#000000; stroke-linecap:round; stroke-linejoin:round; stroke-width:4; stroke-opacity:1; fill:none" points="186.274,1353.93 205.172,1353.93 "/>
<polyline clip-path="url(#clip680)" style="stroke:#000000; stroke-linecap:round; stroke-linejoin:round; stroke-width:4; stroke-opacity:1; fill:none" points="186.274,1052.11 205.172,1052.11 "/>
<polyline clip-path="url(#clip680)" style="stroke:#000000; stroke-linecap:round; stroke-linejoin:round; stroke-width:4; stroke-opacity:1; fill:none" points="186.274,750.282 205.172,750.282 "/>
<polyline clip-path="url(#clip680)" style="stroke:#000000; stroke-linecap:round; stroke-linejoin:round; stroke-width:4; stroke-opacity:1; fill:none" points="186.274,448.456 205.172,448.456 "/>
<polyline clip-path="url(#clip680)" style="stroke:#000000; stroke-linecap:round; stroke-linejoin:round; stroke-width:4; stroke-opacity:1; fill:none" points="186.274,146.631 205.172,146.631 "/>
<path clip-path="url(#clip680)" d="M62.9365 1339.73 Q59.3254 1339.73 57.4967 1343.3 Q55.6912 1346.84 55.6912 1353.97 Q55.6912 1361.07 57.4967 1364.64 Q59.3254 1368.18 62.9365 1368.18 Q66.5707 1368.18 68.3763 1364.64 Q70.205 1361.07 70.205 1353.97 Q70.205 1346.84 68.3763 1343.3 Q66.5707 1339.73 62.9365 1339.73 M62.9365 1336.03 Q68.7467 1336.03 71.8022 1340.63 Q74.8809 1345.22 74.8809 1353.97 Q74.8809 1362.69 71.8022 1367.3 Q68.7467 1371.88 62.9365 1371.88 Q57.1264 1371.88 54.0477 1367.3 Q50.9921 1362.69 50.9921 1353.97 Q50.9921 1345.22 54.0477 1340.63 Q57.1264 1336.03 62.9365 1336.03 Z" fill="#000000" fill-rule="nonzero" fill-opacity="1" /><path clip-path="url(#clip680)" d="M83.0984 1365.33 L87.9827 1365.33 L87.9827 1371.21 L83.0984 1371.21 L83.0984 1365.33 Z" fill="#000000" fill-rule="nonzero" fill-opacity="1" /><path clip-path="url(#clip680)" d="M108.746 1352.07 Q105.598 1352.07 103.746 1354.22 Q101.918 1356.37 101.918 1360.12 Q101.918 1363.85 103.746 1366.03 Q105.598 1368.18 108.746 1368.18 Q111.895 1368.18 113.723 1366.03 Q115.575 1363.85 115.575 1360.12 Q115.575 1356.37 113.723 1354.22 Q111.895 1352.07 108.746 1352.07 M118.029 1337.42 L118.029 1341.68 Q116.27 1340.84 114.464 1340.4 Q112.682 1339.96 110.922 1339.96 Q106.293 1339.96 103.839 1343.09 Q101.409 1346.21 101.061 1352.53 Q102.427 1350.52 104.487 1349.45 Q106.547 1348.37 109.024 1348.37 Q114.233 1348.37 117.242 1351.54 Q120.274 1354.68 120.274 1360.12 Q120.274 1365.45 117.126 1368.67 Q113.978 1371.88 108.746 1371.88 Q102.751 1371.88 99.5798 1367.3 Q96.4085 1362.69 96.4085 1353.97 Q96.4085 1345.77 100.297 1340.91 Q104.186 1336.03 110.737 1336.03 Q112.496 1336.03 114.279 1336.37 Q116.084 1336.72 118.029 1337.42 Z" fill="#000000" fill-rule="nonzero" fill-opacity="1" /><path clip-path="url(#clip680)" d="M138.33 1339.73 Q134.719 1339.73 132.89 1343.3 Q131.084 1346.84 131.084 1353.97 Q131.084 1361.07 132.89 1364.64 Q134.719 1368.18 138.33 1368.18 Q141.964 1368.18 143.769 1364.64 Q145.598 1361.07 145.598 1353.97 Q145.598 1346.84 143.769 1343.3 Q141.964 1339.73 138.33 1339.73 M138.33 1336.03 Q144.14 1336.03 147.195 1340.63 Q150.274 1345.22 150.274 1353.97 Q150.274 1362.69 147.195 1367.3 Q144.14 1371.88 138.33 1371.88 Q132.519 1371.88 129.441 1367.3 Q126.385 1362.69 126.385 1353.97 Q126.385 1345.22 129.441 1340.63 Q132.519 1336.03 138.33 1336.03 Z" fill="#000000" fill-rule="nonzero" fill-opacity="1" /><path clip-path="url(#clip680)" d="M63.9319 1037.91 Q60.3208 1037.91 58.4921 1041.47 Q56.6865 1045.01 56.6865 1052.14 Q56.6865 1059.25 58.4921 1062.81 Q60.3208 1066.35 63.9319 1066.35 Q67.5661 1066.35 69.3717 1062.81 Q71.2004 1059.25 71.2004 1052.14 Q71.2004 1045.01 69.3717 1041.47 Q67.5661 1037.91 63.9319 1037.91 M63.9319 1034.2 Q69.742 1034.2 72.7976 1038.81 Q75.8763 1043.39 75.8763 1052.14 Q75.8763 1060.87 72.7976 1065.48 Q69.742 1070.06 63.9319 1070.06 Q58.1217 1070.06 55.043 1065.48 Q51.9875 1060.87 51.9875 1052.14 Q51.9875 1043.39 55.043 1038.81 Q58.1217 1034.2 63.9319 1034.2 Z" fill="#000000" fill-rule="nonzero" fill-opacity="1" /><path clip-path="url(#clip680)" d="M84.0938 1063.51 L88.978 1063.51 L88.978 1069.39 L84.0938 1069.39 L84.0938 1063.51 Z" fill="#000000" fill-rule="nonzero" fill-opacity="1" /><path clip-path="url(#clip680)" d="M109.742 1050.24 Q106.594 1050.24 104.742 1052.4 Q102.913 1054.55 102.913 1058.3 Q102.913 1062.03 104.742 1064.2 Q106.594 1066.35 109.742 1066.35 Q112.89 1066.35 114.719 1064.2 Q116.57 1062.03 116.57 1058.3 Q116.57 1054.55 114.719 1052.4 Q112.89 1050.24 109.742 1050.24 M119.024 1035.59 L119.024 1039.85 Q117.265 1039.02 115.459 1038.58 Q113.677 1038.14 111.918 1038.14 Q107.288 1038.14 104.834 1041.26 Q102.404 1044.39 102.057 1050.71 Q103.422 1048.69 105.483 1047.63 Q107.543 1046.54 110.02 1046.54 Q115.228 1046.54 118.237 1049.71 Q121.27 1052.86 121.27 1058.3 Q121.27 1063.62 118.121 1066.84 Q114.973 1070.06 109.742 1070.06 Q103.746 1070.06 100.575 1065.48 Q97.4039 1060.87 97.4039 1052.14 Q97.4039 1043.95 101.293 1039.09 Q105.182 1034.2 111.733 1034.2 Q113.492 1034.2 115.274 1034.55 Q117.08 1034.9 119.024 1035.59 Z" fill="#000000" fill-rule="nonzero" fill-opacity="1" /><path clip-path="url(#clip680)" d="M129.371 1034.83 L147.728 1034.83 L147.728 1038.76 L133.654 1038.76 L133.654 1047.23 Q134.672 1046.89 135.691 1046.73 Q136.709 1046.54 137.728 1046.54 Q143.515 1046.54 146.894 1049.71 Q150.274 1052.88 150.274 1058.3 Q150.274 1063.88 146.802 1066.98 Q143.33 1070.06 137.01 1070.06 Q134.834 1070.06 132.566 1069.69 Q130.32 1069.32 127.913 1068.58 L127.913 1063.88 Q129.996 1065.01 132.219 1065.57 Q134.441 1066.12 136.918 1066.12 Q140.922 1066.12 143.26 1064.02 Q145.598 1061.91 145.598 1058.3 Q145.598 1054.69 143.26 1052.58 Q140.922 1050.48 136.918 1050.48 Q135.043 1050.48 133.168 1050.89 Q131.316 1051.31 129.371 1052.19 L129.371 1034.83 Z" fill="#000000" fill-rule="nonzero" fill-opacity="1" /><path clip-path="url(#clip680)" d="M62.9365 736.08 Q59.3254 736.08 57.4967 739.645 Q55.6912 743.187 55.6912 750.316 Q55.6912 757.423 57.4967 760.988 Q59.3254 764.529 62.9365 764.529 Q66.5707 764.529 68.3763 760.988 Q70.205 757.423 70.205 750.316 Q70.205 743.187 68.3763 739.645 Q66.5707 736.08 62.9365 736.08 M62.9365 732.377 Q68.7467 732.377 71.8022 736.983 Q74.8809 741.566 74.8809 750.316 Q74.8809 759.043 71.8022 763.65 Q68.7467 768.233 62.9365 768.233 Q57.1264 768.233 54.0477 763.65 Q50.9921 759.043 50.9921 750.316 Q50.9921 741.566 54.0477 736.983 Q57.1264 732.377 62.9365 732.377 Z" fill="#000000" fill-rule="nonzero" fill-opacity="1" /><path clip-path="url(#clip680)" d="M83.0984 761.682 L87.9827 761.682 L87.9827 767.562 L83.0984 767.562 L83.0984 761.682 Z" fill="#000000" fill-rule="nonzero" fill-opacity="1" /><path clip-path="url(#clip680)" d="M96.9872 733.002 L119.209 733.002 L119.209 734.992 L106.663 767.562 L101.779 767.562 L113.584 736.937 L96.9872 736.937 L96.9872 733.002 Z" fill="#000000" fill-rule="nonzero" fill-opacity="1" /><path clip-path="url(#clip680)" d="M138.33 736.08 Q134.719 736.08 132.89 739.645 Q131.084 743.187 131.084 750.316 Q131.084 757.423 132.89 760.988 Q134.719 764.529 138.33 764.529 Q141.964 764.529 143.769 760.988 Q145.598 757.423 145.598 750.316 Q145.598 743.187 143.769 739.645 Q141.964 736.08 138.33 736.08 M138.33 732.377 Q144.14 732.377 147.195 736.983 Q150.274 741.566 150.274 750.316 Q150.274 759.043 147.195 763.65 Q144.14 768.233 138.33 768.233 Q132.519 768.233 129.441 763.65 Q126.385 759.043 126.385 750.316 Q126.385 741.566 129.441 736.983 Q132.519 732.377 138.33 732.377 Z" fill="#000000" fill-rule="nonzero" fill-opacity="1" /><path clip-path="url(#clip680)" d="M63.9319 434.255 Q60.3208 434.255 58.4921 437.82 Q56.6865 441.361 56.6865 448.491 Q56.6865 455.597 58.4921 459.162 Q60.3208 462.704 63.9319 462.704 Q67.5661 462.704 69.3717 459.162 Q71.2004 455.597 71.2004 448.491 Q71.2004 441.361 69.3717 437.82 Q67.5661 434.255 63.9319 434.255 M63.9319 430.551 Q69.742 430.551 72.7976 435.158 Q75.8763 439.741 75.8763 448.491 Q75.8763 457.218 72.7976 461.824 Q69.742 466.407 63.9319 466.407 Q58.1217 466.407 55.043 461.824 Q51.9875 457.218 51.9875 448.491 Q51.9875 439.741 55.043 435.158 Q58.1217 430.551 63.9319 430.551 Z" fill="#000000" fill-rule="nonzero" fill-opacity="1" /><path clip-path="url(#clip680)" d="M84.0938 459.856 L88.978 459.856 L88.978 465.736 L84.0938 465.736 L84.0938 459.856 Z" fill="#000000" fill-rule="nonzero" fill-opacity="1" /><path clip-path="url(#clip680)" d="M97.9826 431.176 L120.205 431.176 L120.205 433.167 L107.658 465.736 L102.774 465.736 L114.58 435.111 L97.9826 435.111 L97.9826 431.176 Z" fill="#000000" fill-rule="nonzero" fill-opacity="1" /><path clip-path="url(#clip680)" d="M129.371 431.176 L147.728 431.176 L147.728 435.111 L133.654 435.111 L133.654 443.583 Q134.672 443.236 135.691 443.074 Q136.709 442.889 137.728 442.889 Q143.515 442.889 146.894 446.06 Q150.274 449.232 150.274 454.648 Q150.274 460.227 146.802 463.329 Q143.33 466.407 137.01 466.407 Q134.834 466.407 132.566 466.037 Q130.32 465.667 127.913 464.926 L127.913 460.227 Q129.996 461.361 132.219 461.917 Q134.441 462.472 136.918 462.472 Q140.922 462.472 143.26 460.366 Q145.598 458.259 145.598 454.648 Q145.598 451.037 143.26 448.931 Q140.922 446.824 136.918 446.824 Q135.043 446.824 133.168 447.241 Q131.316 447.657 129.371 448.537 L129.371 431.176 Z" fill="#000000" fill-rule="nonzero" fill-opacity="1" /><path clip-path="url(#clip680)" d="M62.9365 132.429 Q59.3254 132.429 57.4967 135.994 Q55.6912 139.536 55.6912 146.665 Q55.6912 153.772 57.4967 157.337 Q59.3254 160.878 62.9365 160.878 Q66.5707 160.878 68.3763 157.337 Q70.205 153.772 70.205 146.665 Q70.205 139.536 68.3763 135.994 Q66.5707 132.429 62.9365 132.429 M62.9365 128.726 Q68.7467 128.726 71.8022 133.332 Q74.8809 137.915 74.8809 146.665 Q74.8809 155.392 71.8022 159.999 Q68.7467 164.582 62.9365 164.582 Q57.1264 164.582 54.0477 159.999 Q50.9921 155.392 50.9921 146.665 Q50.9921 137.915 54.0477 133.332 Q57.1264 128.726 62.9365 128.726 Z" fill="#000000" fill-rule="nonzero" fill-opacity="1" /><path clip-path="url(#clip680)" d="M83.0984 158.031 L87.9827 158.031 L87.9827 163.911 L83.0984 163.911 L83.0984 158.031 Z" fill="#000000" fill-rule="nonzero" fill-opacity="1" /><path clip-path="url(#clip680)" d="M108.168 147.499 Q104.834 147.499 102.913 149.281 Q101.015 151.063 101.015 154.188 Q101.015 157.313 102.913 159.096 Q104.834 160.878 108.168 160.878 Q111.501 160.878 113.422 159.096 Q115.344 157.29 115.344 154.188 Q115.344 151.063 113.422 149.281 Q111.524 147.499 108.168 147.499 M103.492 145.508 Q100.483 144.767 98.7928 142.707 Q97.1261 140.647 97.1261 137.684 Q97.1261 133.54 100.066 131.133 Q103.029 128.726 108.168 128.726 Q113.33 128.726 116.27 131.133 Q119.209 133.54 119.209 137.684 Q119.209 140.647 117.52 142.707 Q115.853 144.767 112.867 145.508 Q116.246 146.295 118.121 148.587 Q120.02 150.878 120.02 154.188 Q120.02 159.212 116.941 161.897 Q113.885 164.582 108.168 164.582 Q102.45 164.582 99.3715 161.897 Q96.316 159.212 96.316 154.188 Q96.316 150.878 98.2141 148.587 Q100.112 146.295 103.492 145.508 M101.779 138.124 Q101.779 140.809 103.446 142.314 Q105.135 143.818 108.168 143.818 Q111.177 143.818 112.867 142.314 Q114.58 140.809 114.58 138.124 Q114.58 135.439 112.867 133.934 Q111.177 132.429 108.168 132.429 Q105.135 132.429 103.446 133.934 Q101.779 135.439 101.779 138.124 Z" fill="#000000" fill-rule="nonzero" fill-opacity="1" /><path clip-path="url(#clip680)" d="M138.33 132.429 Q134.719 132.429 132.89 135.994 Q131.084 139.536 131.084 146.665 Q131.084 153.772 132.89 157.337 Q134.719 160.878 138.33 160.878 Q141.964 160.878 143.769 157.337 Q145.598 153.772 145.598 146.665 Q145.598 139.536 143.769 135.994 Q141.964 132.429 138.33 132.429 M138.33 128.726 Q144.14 128.726 147.195 133.332 Q150.274 137.915 150.274 146.665 Q150.274 155.392 147.195 159.999 Q144.14 164.582 138.33 164.582 Q132.519 164.582 129.441 159.999 Q126.385 155.392 126.385 146.665 Q126.385 137.915 129.441 133.332 Q132.519 128.726 138.33 128.726 Z" fill="#000000" fill-rule="nonzero" fill-opacity="1" /><polyline clip-path="url(#clip682)" style="stroke:#009af9; stroke-linecap:round; stroke-linejoin:round; stroke-width:4; stroke-opacity:1; fill:none" points="247.59,951.499 248.407,1261.06 249.225,1167.31 250.043,1143.13 250.861,978.15 251.679,1017.47 252.497,812.728 253.315,1179.29 254.132,1118.64 254.95,1017.47 255.768,910.849 256.586,869.369 257.404,1261.06 258.222,1339.39 259.04,1143.13 259.858,1106.28 260.675,897.116 261.493,1226.45 262.311,1238.06 263.129,1179.29 263.947,724.775 264.765,1317.35 265.583,978.15 266.4,1004.45 267.218,1068.71 268.036,978.15 268.854,869.369 269.672,1317.35 270.49,938.039 271.308,1214.77 272.126,1093.84 272.943,1081.32 273.761,1143.13 274.579,1238.06 275.397,1226.45 276.215,1203.02 277.033,1130.93 277.851,1167.31 278.668,709.754 279.486,1191.19 280.304,812.728 281.122,951.499 281.94,910.849 282.758,897.116 283.576,1056.03 284.394,1130.93 285.211,938.039 286.029,1056.03 286.847,1068.71 287.665,1068.71 288.483,1068.71 289.301,1143.13 290.119,1167.31 290.937,1214.77 291.754,1043.26 292.572,1261.06 293.39,1445.72 294.208,1143.13 295.026,964.868 295.844,1238.06 296.662,1203.02 297.479,1249.6 298.297,1017.47 299.115,951.499 299.933,1249.6 300.751,938.039 301.569,827.034 302.387,1030.41 303.205,938.039 304.022,1191.19 304.84,1179.29 305.658,1283.78 306.476,1068.71 307.294,855.354 308.112,1214.77 308.93,1179.29 309.747,869.369 310.565,1017.47 311.383,1030.41 312.201,739.691 313.019,1191.19 313.837,1093.84 314.655,1043.26 315.473,783.818 316.29,1106.28 317.108,827.034 317.926,1081.32 318.744,1317.35 319.562,1130.93 320.38,1214.77 321.198,1043.26 322.015,1226.45 322.833,924.49 323.651,1043.26 324.469,1191.19 325.287,1226.45 326.105,1093.84 326.923,924.49 327.741,964.868 328.558,897.116 329.376,897.116 330.194,1143.13 331.012,798.323 331.83,1017.47 332.648,1081.32 333.466,1130.93 334.283,1068.71 335.101,1167.31 335.919,783.818 336.737,1339.39 337.555,1143.13 338.373,798.323 339.191,1056.03 340.009,783.818 340.826,812.728 341.644,897.116 342.462,1361.16 343.28,1030.41 344.098,827.034 344.916,1106.28 345.734,1191.19 346.551,951.499 347.369,827.034 348.187,1106.28 349.005,964.868 349.823,798.323 350.641,1191.19 351.459,1118.64 352.277,1179.29 353.094,1214.77 353.912,1043.26 354.73,841.243 355.548,1004.45 356.366,951.499 357.184,1155.26 358.002,1226.45 358.82,1017.47 359.637,1043.26 360.455,754.503 361.273,1130.93 362.091,964.868 362.909,1056.03 363.727,924.49 364.545,1283.78 365.362,924.49 366.18,1155.26 366.998,1238.06 367.816,991.343 368.634,1056.03 369.452,1068.71 370.27,1030.41 371.088,1017.47 371.905,1249.6 372.723,601.556 373.541,783.818 374.359,1203.02 375.177,754.503 375.995,1004.45 376.813,1143.13 377.63,694.626 378.448,924.49 379.266,1106.28 380.084,841.243 380.902,1435.36 381.72,1043.26 382.538,1068.71 383.356,1004.45 384.173,1081.32 384.991,1179.29 385.809,910.849 386.627,897.116 387.445,951.499 388.263,1043.26 389.081,812.728 389.898,1283.78 390.716,964.868 391.534,1056.03 392.352,1155.26 393.17,910.849 393.988,1283.78 394.806,1081.32 395.624,1249.6 396.441,1081.32 397.259,724.775 398.077,964.868 398.895,1272.46 399.713,897.116 400.531,1017.47 401.349,1155.26 402.166,1143.13 402.984,951.499 403.802,812.728 404.62,1191.19 405.438,1081.32 406.256,1068.71 407.074,1214.77 407.892,1306.23 408.709,883.289 409.527,897.116 410.345,978.15 411.163,1093.84 411.981,1118.64 412.799,1261.06 413.617,1249.6 414.434,1081.32 415.252,1155.26 416.07,964.868 416.888,1283.78 417.706,978.15 418.524,1068.71 419.342,883.289 420.16,869.369 420.977,1093.84 421.795,991.343 422.613,1081.32 423.431,1056.03 424.249,938.039 425.067,827.034 425.885,951.499 426.703,1118.64 427.52,1056.03 428.338,855.354 429.156,1130.93 429.974,897.116 430.792,924.49 431.61,1056.03 432.428,1167.31 433.245,1004.45 434.063,855.354 434.881,769.211 435.699,938.039 436.517,1004.45 437.335,897.116 438.153,855.354 438.971,1068.71 439.788,633.026 440.606,1191.19 441.424,1130.93 442.242,897.116 443.06,633.026 443.878,1191.19 444.696,978.15 445.513,1081.32 446.331,1081.32 447.149,1118.64 447.967,1261.06 448.785,1043.26 449.603,769.211 450.421,964.868 451.239,1093.84 452.056,1068.71 452.874,1191.19 453.692,978.15 454.51,1118.64 455.328,1272.46 456.146,1106.28 456.964,1004.45 457.781,924.49 458.599,724.775 459.417,1030.41 460.235,1317.35 461.053,1143.13 461.871,1118.64 462.689,924.49 463.507,1272.46 464.324,964.868 465.142,1017.47 465.96,924.49 466.778,951.499 467.596,827.034 468.414,1191.19 469.232,1155.26 470.049,1004.45 470.867,1214.77 471.685,951.499 472.503,910.849 473.321,798.323 474.139,812.728 474.957,1130.93 475.775,1093.84 476.592,964.868 477.41,1017.47 478.228,951.499 479.046,924.49 479.864,1203.02 480.682,754.503 481.5,1043.26 482.317,783.818 483.135,1068.71 483.953,1043.26 484.771,964.868 485.589,841.243 486.407,1226.45 487.225,964.868 488.043,938.039 488.86,1118.64 489.678,1155.26 490.496,1030.41 491.314,1004.45 492.132,1093.84 492.95,1295.04 493.768,1030.41 494.586,1030.41 495.403,827.034 496.221,1043.26 497.039,1030.41 497.857,679.39 498.675,951.499 499.493,1081.32 500.311,798.323 501.128,951.499 501.946,1068.71 502.764,910.849 503.582,783.818 504.4,951.499 505.218,1191.19 506.036,769.211 506.854,951.499 507.671,1068.71 508.489,951.499 509.307,1295.04 510.125,1056.03 510.943,1118.64 511.761,1017.47 512.579,1118.64 513.396,1249.6 514.214,1106.28 515.032,1004.45 515.85,783.818 516.668,978.15 517.486,1017.47 518.304,1317.35 519.122,938.039 519.939,1056.03 520.757,633.026 521.575,1004.45 522.393,648.591 523.211,1093.84 524.029,553.487 524.847,754.503 525.664,910.849 526.482,1056.03 527.3,883.289 528.118,951.499 528.936,883.289 529.754,1043.26 530.572,964.868 531.39,1004.45 532.207,1056.03 533.025,827.034 533.843,783.818 534.661,694.626 535.479,978.15 536.297,487.727 537.115,841.243 537.932,1143.13 538.75,1043.26 539.568,1382.68 540.386,1030.41 541.204,724.775 542.022,724.775 542.84,1056.03 543.658,883.289 544.475,1030.41 545.293,897.116 546.111,897.116 546.929,798.323 547.747,1203.02 548.565,827.034 549.383,1249.6 550.2,897.116 551.018,883.289 551.836,1214.77 552.654,827.034 553.472,1093.84 554.29,1017.47 555.108,1130.93 555.926,783.818 556.743,1017.47 557.561,964.868 558.379,709.754 559.197,1203.02 560.015,991.343 560.833,1030.41 561.651,883.289 562.469,1155.26 563.286,1143.13 564.104,1106.28 564.922,978.15 565.74,812.728 566.558,991.343 567.376,855.354 568.194,1043.26 569.011,827.034 569.829,1043.26 570.647,1249.6 571.465,1155.26 572.283,1328.4 573.101,1030.41 573.919,754.503 574.737,1068.71 575.554,1043.26 576.372,1043.26 577.19,754.503 578.008,1093.84 578.826,951.499 579.644,1017.47 580.462,1030.41 581.279,1238.06 582.097,897.116 582.915,1043.26 583.733,1306.23 584.551,951.499 585.369,841.243 586.187,991.343 587.005,1272.46 587.822,754.503 588.64,964.868 589.458,910.849 590.276,910.849 591.094,1081.32 591.912,1261.06 592.73,1093.84 593.547,938.039 594.365,1317.35 595.183,883.289 596.001,827.034 596.819,1043.26 597.637,978.15 598.455,1306.23 599.273,964.868 600.09,812.728 600.908,827.034 601.726,1143.13 602.544,855.354 603.362,1056.03 604.18,1081.32 604.998,1155.26 605.815,1306.23 606.633,1118.64 607.451,1130.93 608.269,897.116 609.087,897.116 609.905,798.323 610.723,1004.45 611.541,897.116 612.358,783.818 613.176,1118.64 613.994,1155.26 614.812,869.369 615.63,1056.03 616.448,633.026 617.266,951.499 618.083,938.039 618.901,1004.45 619.719,910.849 620.537,1179.29 621.355,1191.19 622.173,897.116 622.991,951.499 623.809,1056.03 624.626,1004.45 625.444,553.487 626.262,855.354 627.08,1272.46 627.898,924.49 628.716,827.034 629.534,869.369 630.352,1056.03 631.169,869.369 631.987,1130.93 632.805,1068.71 633.623,978.15 634.441,783.818 635.259,991.343 636.077,938.039 636.894,1081.32 637.712,754.503 638.53,739.691 639.348,1043.26 640.166,938.039 640.984,1081.32 641.802,679.39 642.62,938.039 643.437,910.849 644.255,1106.28 645.073,897.116 645.891,783.818 646.709,1056.03 647.527,709.754 648.345,1155.26 649.162,855.354 649.98,964.868 650.798,1093.84 651.616,883.289 652.434,1106.28 653.252,798.323 654.07,951.499 654.888,1043.26 655.705,869.369 656.523,1106.28 657.341,1093.84 658.159,924.49 658.977,1214.77 659.795,1143.13 660.613,1106.28 661.43,1043.26 662.248,1118.64 663.066,978.15 663.884,964.868 664.702,883.289 665.52,855.354 666.338,1179.29 667.156,841.243 667.973,1081.32 668.791,910.849 669.609,1214.77 670.427,910.849 671.245,1272.46 672.063,910.849 672.881,1004.45 673.698,739.691 674.516,841.243 675.334,841.243 676.152,694.626 676.97,855.354 677.788,1004.45 678.606,938.039 679.424,897.116 680.241,1179.29 681.059,1214.77 681.877,1093.84 682.695,924.49 683.513,520.85 684.331,1371.95 685.149,754.503 685.967,769.211 686.784,883.289 687.602,769.211 688.42,1056.03 689.238,1214.77 690.056,1203.02 690.874,1093.84 691.692,1030.41 692.509,964.868 693.327,978.15 694.145,938.039 694.963,798.323 695.781,897.116 696.599,1093.84 697.417,883.289 698.235,991.343 699.052,938.039 699.87,1118.64 700.688,679.39 701.506,869.369 702.324,897.116 703.142,1118.64 703.96,664.046 704.777,1130.93 705.595,783.818 706.413,1118.64 707.231,883.289 708.049,883.289 708.867,883.289 709.685,648.591 710.503,783.818 711.32,1030.41 712.138,869.369 712.956,964.868 713.774,1167.31 714.592,1179.29 715.41,1295.04 716.228,783.818 717.045,569.627 717.863,910.849 718.681,739.691 719.499,978.15 720.317,1056.03 721.135,1155.26 721.953,1249.6 722.771,553.487 723.588,1043.26 724.406,951.499 725.224,951.499 726.042,1167.31 726.86,1056.03 727.678,897.116 728.496,1043.26 729.313,1167.31 730.131,841.243 730.949,1118.64 731.767,991.343 732.585,1004.45 733.403,964.868 734.221,1017.47 735.039,1261.06 735.856,769.211 736.674,897.116 737.492,978.15 738.31,869.369 739.128,924.49 739.946,769.211 740.764,1030.41 741.581,883.289 742.399,1030.41 743.217,437.109 744.035,633.026 744.853,883.289 745.671,1068.71 746.489,798.323 747.307,1191.19 748.124,679.39 748.942,679.39 749.76,664.046 750.578,910.849 751.396,991.343 752.214,897.116 753.032,827.034 753.85,648.591 754.667,1043.26 755.485,951.499 756.303,951.499 757.121,648.591 757.939,1004.45 758.757,841.243 759.575,664.046 760.392,1043.26 761.21,709.754 762.028,1249.6 762.846,924.49 763.664,553.487 764.482,827.034 765.3,924.49 766.118,739.691 766.935,978.15 767.753,910.849 768.571,1043.26 769.389,812.728 770.207,769.211 771.025,883.289 771.843,1093.84 772.66,1179.29 773.478,798.323 774.296,924.49 775.114,754.503 775.932,1017.47 776.75,964.868 777.568,951.499 778.386,964.868 779.203,709.754 780.021,769.211 780.839,1130.93 781.657,938.039 782.475,664.046 783.293,1056.03 784.111,1167.31 784.928,1056.03 785.746,1155.26 786.564,924.49 787.382,841.243 788.2,827.034 789.018,633.026 789.836,869.369 790.654,938.039 791.471,679.39 792.289,1283.78 793.107,1056.03 793.925,694.626 794.743,754.503 795.561,812.728 796.379,1143.13 797.196,951.499 798.014,709.754 798.832,1068.71 799.65,1093.84 800.468,633.026 801.286,1203.02 802.104,910.849 802.922,812.728 803.739,897.116 804.557,569.627 805.375,910.849 806.193,938.039 807.011,855.354 807.829,1081.32 808.647,827.034 809.464,1155.26 810.282,869.369 811.1,1004.45 811.918,1017.47 812.736,739.691 813.554,1106.28 814.372,553.487 815.19,739.691 816.007,812.728 816.825,841.243 817.643,827.034 818.461,812.728 819.279,827.034 820.097,883.289 820.915,553.487 821.733,633.026 822.55,769.211 823.368,664.046 824.186,783.818 825.004,783.818 825.822,964.868 826.64,1017.47 827.458,827.034 828.275,951.499 829.093,769.211 829.911,897.116 830.729,783.818 831.547,910.849 832.365,783.818 833.183,569.627 834.001,1155.26 834.818,537.228 835.636,812.728 836.454,855.354 837.272,648.591 838.09,897.116 838.908,679.39 839.726,1093.84 840.543,924.49 841.361,910.849 842.179,1004.45 842.997,897.116 843.815,991.343 844.633,633.026 845.451,1167.31 846.269,783.818 847.086,841.243 847.904,910.849 848.722,855.354 849.54,978.15 850.358,910.849 851.176,1017.47 851.994,883.289 852.811,1130.93 853.629,869.369 854.447,812.728 855.265,1106.28 856.083,783.818 856.901,1017.47 857.719,978.15 858.537,664.046 859.354,769.211 860.172,1214.77 860.99,855.354 861.808,827.034 862.626,1030.41 863.444,964.868 864.262,1056.03 865.079,951.499 865.897,869.369 866.715,924.49 867.533,633.026 868.351,1068.71 869.169,1093.84 869.987,964.868 870.805,1093.84 871.622,841.243 872.44,1118.64 873.258,569.627 874.076,855.354 874.894,910.849 875.712,991.343 876.53,798.323 877.347,1004.45 878.165,812.728 878.983,1226.45 879.801,709.754 880.619,978.15 881.437,617.348 882.255,855.354 883.073,938.039 883.89,869.369 884.708,855.354 885.526,924.49 886.344,1030.41 887.162,1238.06 887.98,978.15 888.798,754.503 889.616,841.243 890.433,1004.45 891.251,783.818 892.069,1017.47 892.887,938.039 893.705,769.211 894.523,841.243 895.341,1030.41 896.158,951.499 896.976,991.343 897.794,724.775 898.612,633.026 899.43,1179.29 900.248,617.348 901.066,938.039 901.884,910.849 902.701,951.499 903.519,724.775 904.337,869.369 905.155,910.849 905.973,951.499 906.791,869.369 907.609,883.289 908.426,812.728 909.244,709.754 910.062,1056.03 910.88,869.369 911.698,1030.41 912.516,855.354 913.334,855.354 914.152,827.034 914.969,569.627 915.787,1272.46 916.605,601.556 917.423,454.108 918.241,951.499 919.059,897.116 919.877,783.818 920.694,1226.45 921.512,991.343 922.33,855.354 923.148,798.323 923.966,739.691 924.784,883.289 925.602,648.591 926.42,754.503 927.237,938.039 928.055,724.775 928.873,978.15 929.691,769.211 930.509,679.39 931.327,964.868 932.145,938.039 932.962,798.323 933.78,709.754 934.598,964.868 935.416,537.228 936.234,1093.84 937.052,855.354 937.87,855.354 938.688,883.289 939.505,754.503 940.323,709.754 941.141,1226.45 941.959,783.818 942.777,679.39 943.595,812.728 944.413,841.243 945.23,798.323 946.048,964.868 946.866,724.775 947.684,798.323 948.502,964.868 949.32,924.49 950.138,1081.32 950.956,664.046 951.773,739.691 952.591,841.243 953.409,938.039 954.227,827.034 955.045,883.289 955.863,783.818 956.681,798.323 957.499,951.499 958.316,841.243 959.134,1106.28 959.952,679.39 960.77,679.39 961.588,783.818 962.406,812.728 963.224,951.499 964.041,1043.26 964.859,812.728 965.677,1043.26 966.495,648.591 967.313,1043.26 968.131,855.354 968.949,1017.47 969.767,783.818 970.584,991.343 971.402,897.116 972.22,964.868 973.038,739.691 973.856,841.243 974.674,709.754 975.492,855.354 976.309,883.289 977.127,1118.64 977.945,783.818 978.763,841.243 979.581,601.556 980.399,938.039 981.217,633.026 982.035,1056.03 982.852,1030.41 983.67,855.354 984.488,991.343 985.306,910.849 986.124,1017.47 986.942,897.116 987.76,1043.26 988.577,1056.03 989.395,633.026 990.213,754.503 991.031,812.728 991.849,1068.71 992.667,1017.47 993.485,679.39 994.303,724.775 995.12,1017.47 995.938,812.728 996.756,754.503 997.574,938.039 998.392,991.343 999.21,869.369 1000.03,910.849 1000.85,978.15 1001.66,754.503 1002.48,648.591 1003.3,724.775 1004.12,964.868 1004.93,883.289 1005.75,855.354 1006.57,897.116 1007.39,798.323 1008.21,1093.84 1009.02,694.626 1009.84,709.754 1010.66,938.039 1011.48,709.754 1012.3,827.034 1013.11,869.369 1013.93,938.039 1014.75,924.49 1015.57,1030.41 1016.38,812.728 1017.2,754.503 1018.02,739.691 1018.84,951.499 1019.66,897.116 1020.47,1081.32 1021.29,841.243 1022.11,601.556 1022.93,1068.71 1023.75,910.849 1024.56,783.818 1025.38,709.754 1026.2,841.243 1027.02,1130.93 1027.84,694.626 1028.65,841.243 1029.47,938.039 1030.29,754.503 1031.11,938.039 1031.92,783.818 1032.74,1272.46 1033.56,798.323 1034.38,938.039 1035.2,537.228 1036.01,633.026 1036.83,520.85 1037.65,633.026 1038.47,709.754 1039.29,1093.84 1040.1,812.728 1040.92,769.211 1041.74,769.211 1042.56,1068.71 1043.37,924.49 1044.19,1093.84 1045.01,798.323 1045.83,964.868 1046.65,679.39 1047.46,841.243 1048.28,1017.47 1049.1,601.556 1049.92,739.691 1050.74,978.15 1051.55,648.591 1052.37,855.354 1053.19,897.116 1054.01,769.211 1054.82,739.691 1055.64,694.626 1056.46,1030.41 1057.28,1081.32 1058.1,964.868 1058.91,827.034 1059.73,617.348 1060.55,910.849 1061.37,679.39 1062.19,812.728 1063,798.323 1063.82,679.39 1064.64,709.754 1065.46,1030.41 1066.27,437.109 1067.09,910.849 1067.91,601.556 1068.73,385.337 1069.55,978.15 1070.36,855.354 1071.18,1068.71 1072,897.116 1072.82,754.503 1073.64,754.503 1074.45,694.626 1075.27,648.591 1076.09,951.499 1076.91,664.046 1077.73,964.868 1078.54,869.369 1079.36,827.034 1080.18,938.039 1081,883.289 1081.81,883.289 1082.63,938.039 1083.45,739.691 1084.27,964.868 1085.09,897.116 1085.9,897.116 1086.72,951.499 1087.54,739.691 1088.36,585.649 1089.18,694.626 1089.99,709.754 1090.81,709.754 1091.63,617.348 1092.45,964.868 1093.26,964.868 1094.08,951.499 1094.9,869.369 1095.72,951.499 1096.54,1203.02 1097.35,754.503 1098.17,964.868 1098.99,812.728 1099.81,724.775 1100.63,694.626 1101.44,633.026 1102.26,1093.84 1103.08,964.868 1103.9,679.39 1104.71,964.868 1105.53,812.728 1106.35,869.369 1107.17,1004.45 1107.99,679.39 1108.8,754.503 1109.62,679.39 1110.44,754.503 1111.26,897.116 1112.08,724.775 1112.89,739.691 1113.71,1043.26 1114.53,694.626 1115.35,754.503 1116.16,938.039 1116.98,1043.26 1117.8,1081.32 1118.62,1081.32 1119.44,553.487 1120.25,798.323 1121.07,769.211 1121.89,1143.13 1122.71,754.503 1123.53,724.775 1124.34,1106.28 1125.16,754.503 1125.98,739.691 1126.8,1017.47 1127.61,991.343 1128.43,869.369 1129.25,991.343 1130.07,869.369 1130.89,1043.26 1131.7,633.026 1132.52,601.556 1133.34,827.034 1134.16,709.754 1134.98,827.034 1135.79,470.98 1136.61,754.503 1137.43,855.354 1138.25,537.228 1139.07,648.591 1139.88,812.728 1140.7,601.556 1141.52,709.754 1142.34,924.49 1143.15,585.649 1143.97,798.323 1144.79,1043.26 1145.61,487.727 1146.43,798.323 1147.24,633.026 1148.06,724.775 1148.88,1093.84 1149.7,951.499 1150.52,938.039 1151.33,783.818 1152.15,709.754 1152.97,783.818 1153.79,1030.41 1154.6,724.775 1155.42,1191.19 1156.24,585.649 1157.06,924.49 1157.88,537.228 1158.69,883.289 1159.51,769.211 1160.33,724.775 1161.15,869.369 1161.97,827.034 1162.78,1056.03 1163.6,633.026 1164.42,553.487 1165.24,724.775 1166.05,798.323 1166.87,841.243 1167.69,812.728 1168.51,679.39 1169.33,601.556 1170.14,978.15 1170.96,569.627 1171.78,553.487 1172.6,869.369 1173.42,470.98 1174.23,978.15 1175.05,664.046 1175.87,883.289 1176.69,897.116 1177.5,855.354 1178.32,487.727 1179.14,633.026 1179.96,798.323 1180.78,951.499 1181.59,869.369 1182.41,1004.45 1183.23,617.348 1184.05,724.775 1184.87,569.627 1185.68,991.343 1186.5,127.236 1187.32,991.343 1188.14,633.026 1188.96,769.211 1189.77,924.49 1190.59,1179.29 1191.41,739.691 1192.23,648.591 1193.04,241.321 1193.86,978.15 1194.68,487.727 1195.5,419.982 1196.32,869.369 1197.13,769.211 1197.95,812.728 1198.77,1030.41 1199.59,883.289 1200.41,739.691 1201.22,724.775 1202.04,827.034 1202.86,470.98 1203.68,739.691 1204.49,504.35 1205.31,812.728 1206.13,869.369 1206.95,812.728 1207.77,585.649 1208.58,769.211 1209.4,883.289 1210.22,951.499 1211.04,855.354 1211.86,869.369 1212.67,419.982 1213.49,841.243 1214.31,633.026 1215.13,964.868 1215.94,385.337 1216.76,869.369 1217.58,827.034 1218.4,1106.28 1219.22,869.369 1220.03,585.649 1220.85,724.775 1221.67,798.323 1222.49,798.323 1223.31,553.487 1224.12,754.503 1224.94,454.108 1225.76,724.775 1226.58,938.039 1227.39,783.818 1228.21,709.754 1229.03,897.116 1229.85,739.691 1230.67,841.243 1231.48,679.39 1232.3,633.026 1233.12,1093.84 1233.94,694.626 1234.76,617.348 1235.57,569.627 1236.39,855.354 1237.21,964.868 1238.03,648.591 1238.84,754.503 1239.66,569.627 1240.48,769.211 1241.3,739.691 1242.12,883.289 1242.93,694.626 1243.75,783.818 1244.57,278.165 1245.39,991.343 1246.21,1056.03 1247.02,617.348 1247.84,798.323 1248.66,978.15 1249.48,724.775 1250.3,724.775 1251.11,739.691 1251.93,754.503 1252.75,724.775 1253.57,724.775 1254.38,897.116 1255.2,724.775 1256.02,679.39 1256.84,769.211 1257.66,754.503 1258.47,1043.26 1259.29,869.369 1260.11,679.39 1260.93,869.369 1261.75,664.046 1262.56,855.354 1263.38,739.691 1264.2,883.289 1265.02,724.775 1265.83,679.39 1266.65,617.348 1267.47,694.626 1268.29,938.039 1269.11,454.108 1269.92,1030.41 1270.74,601.556 1271.56,569.627 1272.38,1167.31 1273.2,601.556 1274.01,569.627 1274.83,798.323 1275.65,664.046 1276.47,437.109 1277.28,633.026 1278.1,402.725 1278.92,978.15 1279.74,569.627 1280.56,1226.45 1281.37,679.39 1282.19,739.691 1283.01,664.046 1283.83,783.818 1284.65,709.754 1285.46,827.034 1286.28,869.369 1287.1,709.754 1287.92,783.818 1288.73,385.337 1289.55,964.868 1290.37,1004.45 1291.19,897.116 1292.01,633.026 1292.82,754.503 1293.64,841.243 1294.46,769.211 1295.28,869.369 1296.1,1093.84 1296.91,827.034 1297.73,601.556 1298.55,537.228 1299.37,648.591 1300.18,664.046 1301,679.39 1301.82,724.775 1302.64,633.026 1303.46,869.369 1304.27,1030.41 1305.09,841.243 1305.91,769.211 1306.73,585.649 1307.55,553.487 1308.36,601.556 1309.18,754.503 1310,1030.41 1310.82,520.85 1311.64,537.228 1312.45,841.243 1313.27,938.039 1314.09,601.556 1314.91,754.503 1315.72,679.39 1316.54,754.503 1317.36,504.35 1318.18,978.15 1319,617.348 1319.81,454.108 1320.63,633.026 1321.45,769.211 1322.27,385.337 1323.09,679.39 1323.9,924.49 1324.72,601.556 1325.54,694.626 1326.36,869.369 1327.17,437.109 1327.99,437.109 1328.81,798.323 1329.63,724.775 1330.45,585.649 1331.26,964.868 1332.08,964.868 1332.9,487.727 1333.72,739.691 1334.54,569.627 1335.35,855.354 1336.17,585.649 1336.99,648.591 1337.81,648.591 1338.62,991.343 1339.44,537.228 1340.26,841.243 1341.08,679.39 1341.9,537.228 1342.71,1081.32 1343.53,783.818 1344.35,841.243 1345.17,367.816 1345.99,798.323 1346.8,964.868 1347.62,841.243 1348.44,769.211 1349.26,1155.26 1350.07,694.626 1350.89,783.818 1351.71,679.39 1352.53,783.818 1353.35,504.35 1354.16,964.868 1354.98,951.499 1355.8,664.046 1356.62,783.818 1357.44,601.556 1358.25,520.85 1359.07,991.343 1359.89,553.487 1360.71,633.026 1361.53,783.818 1362.34,402.725 1363.16,798.323 1363.98,739.691 1364.8,769.211 1365.61,419.982 1366.43,617.348 1367.25,569.627 1368.07,754.503 1368.89,783.818 1369.7,664.046 1370.52,924.49 1371.34,694.626 1372.16,664.046 1372.98,709.754 1373.79,869.369 1374.61,754.503 1375.43,978.15 1376.25,812.728 1377.06,487.727 1377.88,951.499 1378.7,978.15 1379.52,601.556 1380.34,553.487 1381.15,648.591 1381.97,633.026 1382.79,504.35 1383.61,569.627 1384.43,487.727 1385.24,694.626 1386.06,633.026 1386.88,1004.45 1387.7,739.691 1388.51,520.85 1389.33,385.337 1390.15,883.289 1390.97,520.85 1391.79,679.39 1392.6,783.818 1393.42,724.775 1394.24,951.499 1395.06,739.691 1395.88,724.775 1396.69,679.39 1397.51,841.243 1398.33,385.337 1399.15,869.369 1399.96,869.369 1400.78,798.323 1401.6,694.626 1402.42,754.503 1403.24,569.627 1404.05,769.211 1404.87,754.503 1405.69,537.228 1406.51,504.35 1407.33,296.373 1408.14,883.289 1408.96,553.487 1409.78,1004.45 1410.6,812.728 1411.41,648.591 1412.23,617.348 1413.05,648.591 1413.87,617.348 1414.69,769.211 1415.5,783.818 1416.32,991.343 1417.14,504.35 1417.96,709.754 1418.78,754.503 1419.59,648.591 1420.41,679.39 1421.23,924.49 1422.05,504.35 1422.87,664.046 1423.68,437.109 1424.5,694.626 1425.32,679.39 1426.14,537.228 1426.95,633.026 1427.77,769.211 1428.59,1056.03 1429.41,664.046 1430.23,601.556 1431.04,769.211 1431.86,924.49 1432.68,504.35 1433.5,964.868 1434.32,783.818 1435.13,569.627 1435.95,951.499 1436.77,869.369 1437.59,897.116 1438.4,924.49 1439.22,1043.26 1440.04,350.16 1440.86,537.228 1441.68,648.591 1442.49,537.228 1443.31,869.369 1444.13,617.348 1444.95,883.289 1445.77,769.211 1446.58,964.868 1447.4,938.039 1448.22,869.369 1449.04,754.503 1449.85,709.754 1450.67,585.649 1451.49,487.727 1452.31,897.116 1453.13,487.727 1453.94,585.649 1454.76,437.109 1455.58,487.727 1456.4,739.691 1457.22,617.348 1458.03,633.026 1458.85,827.034 1459.67,869.369 1460.49,869.369 1461.3,754.503 1462.12,520.85 1462.94,633.026 1463.76,798.323 1464.58,648.591 1465.39,470.98 1466.21,827.034 1467.03,754.503 1467.85,454.108 1468.67,739.691 1469.48,617.348 1470.3,724.775 1471.12,520.85 1471.94,487.727 1472.76,739.691 1473.57,617.348 1474.39,827.034 1475.21,679.39 1476.03,648.591 1476.84,754.503 1477.66,633.026 1478.48,709.754 1479.3,783.818 1480.12,617.348 1480.93,537.228 1481.75,569.627 1482.57,754.503 1483.39,724.775 1484.21,897.116 1485.02,569.627 1485.84,314.441 1486.66,585.649 1487.48,709.754 1488.29,504.35 1489.11,709.754 1489.93,694.626 1490.75,367.816 1491.57,367.816 1492.38,648.591 1493.2,385.337 1494.02,709.754 1494.84,739.691 1495.66,679.39 1496.47,739.691 1497.29,754.503 1498.11,633.026 1498.93,724.775 1499.74,798.323 1500.56,841.243 1501.38,648.591 1502.2,520.85 1503.02,617.348 1503.83,520.85 1504.65,367.816 1505.47,709.754 1506.29,754.503 1507.11,601.556 1507.92,754.503 1508.74,470.98 1509.56,924.49 1510.38,520.85 1511.19,664.046 1512.01,798.323 1512.83,827.034 1513.65,553.487 1514.47,739.691 1515.28,585.649 1516.1,454.108 1516.92,883.289 1517.74,585.649 1518.56,978.15 1519.37,724.775 1520.19,798.323 1521.01,694.626 1521.83,520.85 1522.64,367.816 1523.46,470.98 1524.28,812.728 1525.1,724.775 1525.92,812.728 1526.73,951.499 1527.55,648.591 1528.37,601.556 1529.19,585.649 1530.01,648.591 1530.82,964.868 1531.64,553.487 1532.46,601.556 1533.28,585.649 1534.1,754.503 1534.91,648.591 1535.73,648.591 1536.55,783.818 1537.37,841.243 1538.18,437.109 1539,648.591 1539.82,470.98 1540.64,633.026 1541.46,633.026 1542.27,769.211 1543.09,520.85 1543.91,664.046 1544.73,679.39 1545.55,601.556 1546.36,897.116 1547.18,694.626 1548,679.39 1548.82,537.228 1549.63,454.108 1550.45,724.775 1551.27,585.649 1552.09,585.649 1552.91,679.39 1553.72,783.818 1554.54,664.046 1555.36,783.818 1556.18,827.034 1557,487.727 1557.81,332.369 1558.63,679.39 1559.45,897.116 1560.27,350.16 1561.08,569.627 1561.9,798.323 1562.72,585.649 1563.54,487.727 1564.36,709.754 1565.17,454.108 1565.99,869.369 1566.81,754.503 1567.63,783.818 1568.45,739.691 1569.26,709.754 1570.08,601.556 1570.9,798.323 1571.72,385.337 1572.53,883.289 1573.35,437.109 1574.17,633.026 1574.99,601.556 1575.81,724.775 1576.62,739.691 1577.44,487.727 1578.26,537.228 1579.08,739.691 1579.9,633.026 1580.71,617.348 1581.53,754.503 1582.35,487.727 1583.17,724.775 1583.99,504.35 1584.8,487.727 1585.62,769.211 1586.44,367.816 1587.26,739.691 1588.07,739.691 1588.89,754.503 1589.71,633.026 1590.53,783.818 1591.35,769.211 1592.16,350.16 1592.98,739.691 1593.8,402.725 1594.62,146.631 1595.44,504.35 1596.25,754.503 1597.07,709.754 1597.89,855.354 1598.71,419.982 1599.52,783.818 1600.34,487.727 1601.16,553.487 1601.98,520.85 1602.8,869.369 1603.61,664.046 1604.43,553.487 1605.25,783.818 1606.07,617.348 1606.89,367.816 1607.7,679.39 1608.52,783.818 1609.34,855.354 1610.16,504.35 1610.97,769.211 1611.79,910.849 1612.61,402.725 1613.43,569.627 1614.25,520.85 1615.06,601.556 1615.88,724.775 1616.7,883.289 1617.52,694.626 1618.34,617.348 1619.15,769.211 1619.97,617.348 1620.79,709.754 1621.61,402.725 1622.42,910.849 1623.24,855.354 1624.06,537.228 1624.88,585.649 1625.7,664.046 1626.51,664.046 1627.33,585.649 1628.15,897.116 1628.97,402.725 1629.79,827.034 1630.6,553.487 1631.42,648.591 1632.24,897.116 1633.06,633.026 1633.87,648.591 1634.69,664.046 1635.51,454.108 1636.33,924.49 1637.15,769.211 1637.96,520.85 1638.78,827.034 1639.6,585.649 1640.42,617.348 1641.24,601.556 1642.05,537.228 1642.87,553.487 1643.69,585.649 1644.51,827.034 1645.33,585.649 1646.14,648.591 1646.96,601.556 1647.78,553.487 1648.6,504.35 1649.41,633.026 1650.23,553.487 1651.05,259.815 1651.87,679.39 1652.69,679.39 1653.5,569.627 1654.32,812.728 1655.14,664.046 1655.96,633.026 1656.78,553.487 1657.59,769.211 1658.41,601.556 1659.23,617.348 1660.05,437.109 1660.86,783.818 1661.68,841.243 1662.5,798.323 1663.32,617.348 1664.14,679.39 1664.95,504.35 1665.77,569.627 1666.59,504.35 1667.41,964.868 1668.23,454.108 1669.04,724.775 1669.86,601.556 1670.68,537.228 1671.5,585.649 1672.31,520.85 1673.13,385.337 1673.95,470.98 1674.77,648.591 1675.59,419.982 1676.4,679.39 1677.22,709.754 1678.04,332.369 1678.86,617.348 1679.68,709.754 1680.49,520.85 1681.31,585.649 1682.13,385.337 1682.95,385.337 1683.76,798.323 1684.58,569.627 1685.4,504.35 1686.22,827.034 1687.04,419.982 1687.85,601.556 1688.67,798.323 1689.49,739.691 1690.31,419.982 1691.13,553.487 1691.94,648.591 1692.76,470.98 1693.58,437.109 1694.4,419.982 1695.21,617.348 1696.03,769.211 1696.85,798.323 1697.67,454.108 1698.49,278.165 1699.3,938.039 1700.12,350.16 1700.94,569.627 1701.76,585.649 1702.58,769.211 1703.39,827.034 1704.21,569.627 1705.03,883.289 1705.85,812.728 1706.67,553.487 1707.48,664.046 1708.3,259.815 1709.12,553.487 1709.94,812.728 1710.75,812.728 1711.57,924.49 1712.39,454.108 1713.21,296.373 1714.03,869.369 1714.84,617.348 1715.66,367.816 1716.48,520.85 1717.3,855.354 1718.12,617.348 1718.93,617.348 1719.75,617.348 1720.57,470.98 1721.39,694.626 1722.2,827.034 1723.02,504.35 1723.84,739.691 1724.66,520.85 1725.48,332.369 1726.29,648.591 1727.11,504.35 1727.93,553.487 1728.75,841.243 1729.57,617.348 1730.38,648.591 1731.2,454.108 1732.02,709.754 1732.84,694.626 1733.65,664.046 1734.47,332.369 1735.29,585.649 1736.11,633.026 1736.93,617.348 1737.74,617.348 1738.56,601.556 1739.38,437.109 1740.2,537.228 1741.02,724.775 1741.83,869.369 1742.65,617.348 1743.47,617.348 1744.29,553.487 1745.1,537.228 1745.92,601.556 1746.74,553.487 1747.56,504.35 1748.38,664.046 1749.19,739.691 1750.01,724.775 1750.83,454.108 1751.65,487.727 1752.47,553.487 1753.28,487.727 1754.1,812.728 1754.92,553.487 1755.74,739.691 1756.56,694.626 1757.37,537.228 1758.19,617.348 1759.01,601.556 1759.83,296.373 1760.64,924.49 1761.46,520.85 1762.28,504.35 1763.1,520.85 1763.92,537.228 1764.73,402.725 1765.55,679.39 1766.37,585.649 1767.19,924.49 1768.01,419.982 1768.82,569.627 1769.64,367.816 1770.46,754.503 1771.28,769.211 1772.09,553.487 1772.91,754.503 1773.73,537.228 1774.55,601.556 1775.37,537.228 1776.18,709.754 1777,487.727 1777.82,694.626 1778.64,601.556 1779.46,454.108 1780.27,332.369 1781.09,617.348 1781.91,679.39 1782.73,419.982 1783.54,454.108 1784.36,259.815 1785.18,470.98 1786,769.211 1786.82,694.626 1787.63,222.681 1788.45,664.046 1789.27,617.348 1790.09,504.35 1790.91,165.87 1791.72,367.816 1792.54,585.649 1793.36,648.591 1794.18,487.727 1794.99,938.039 1795.81,504.35 1796.63,910.849 1797.45,569.627 1798.27,385.337 1799.08,754.503 1799.9,470.98 1800.72,569.627 1801.54,454.108 1802.36,679.39 1803.17,617.348 1803.99,724.775 1804.81,314.441 1805.63,487.727 1806.44,633.026 1807.26,617.348 1808.08,487.727 1808.9,633.026 1809.72,617.348 1810.53,332.369 1811.35,739.691 1812.17,504.35 1812.99,601.556 1813.81,537.228 1814.62,537.228 1815.44,679.39 1816.26,601.556 1817.08,754.503 1817.9,504.35 1818.71,709.754 1819.53,679.39 1820.35,694.626 1821.17,520.85 1821.98,633.026 1822.8,798.323 1823.62,520.85 1824.44,617.348 1825.26,553.487 1826.07,783.818 1826.89,648.591 1827.71,385.337 1828.53,437.109 1829.35,769.211 1830.16,739.691 1830.98,367.816 1831.8,617.348 1832.62,664.046 1833.43,487.727 1834.25,350.16 1835.07,694.626 1835.89,487.727 1836.71,664.046 1837.52,553.487 1838.34,601.556 1839.16,487.727 1839.98,883.289 1840.8,694.626 1841.61,648.591 1842.43,798.323 1843.25,648.591 1844.07,648.591 1844.88,487.727 1845.7,664.046 1846.52,798.323 1847.34,520.85 1848.16,585.649 1848.97,679.39 1849.79,87.9763 1850.61,520.85 1851.43,783.818 1852.25,437.109 1853.06,203.894 1853.88,553.487 1854.7,402.725 1855.52,585.649 1856.33,754.503 1857.15,454.108 1857.97,633.026 1858.79,437.109 1859.61,617.348 1860.42,569.627 1861.24,709.754 1862.06,259.815 1862.88,648.591 1863.7,739.691 1864.51,454.108 1865.33,798.323 1866.15,739.691 1866.97,537.228 1867.79,569.627 1868.6,504.35 1869.42,739.691 1870.24,664.046 1871.06,504.35 1871.87,537.228 1872.69,798.323 1873.51,569.627 1874.33,601.556 1875.15,385.337 1875.96,869.369 1876.78,470.98 1877.6,146.631 1878.42,694.626 1879.24,769.211 1880.05,553.487 1880.87,664.046 1881.69,385.337 1882.51,454.108 1883.32,385.337 1884.14,487.727 1884.96,487.727 1885.78,419.982 1886.6,367.816 1887.41,694.626 1888.23,664.046 1889.05,855.354 1889.87,402.725 1890.69,633.026 1891.5,504.35 1892.32,569.627 1893.14,648.591 1893.96,296.373 1894.77,812.728 1895.59,585.649 1896.41,633.026 1897.23,709.754 1898.05,419.982 1898.86,724.775 1899.68,633.026 1900.5,314.441 1901.32,350.16 1902.14,470.98 1902.95,553.487 1903.77,259.815 1904.59,601.556 1905.41,504.35 1906.22,694.626 1907.04,487.727 1907.86,332.369 1908.68,296.373 1909.5,585.649 1910.31,679.39 1911.13,617.348 1911.95,222.681 1912.77,855.354 1913.59,739.691 1914.4,679.39 1915.22,419.982 1916.04,679.39 1916.86,367.816 1917.67,601.556 1918.49,709.754 1919.31,569.627 1920.13,437.109 1920.95,402.725 1921.76,679.39 1922.58,385.337 1923.4,569.627 1924.22,537.228 1925.04,585.649 1925.85,402.725 1926.67,520.85 1927.49,709.754 1928.31,419.982 1929.13,487.727 1929.94,350.16 1930.76,367.816 1931.58,278.165 1932.4,553.487 1933.21,769.211 1934.03,569.627 1934.85,520.85 1935.67,419.982 1936.49,332.369 1937.3,437.109 1938.12,332.369 1938.94,504.35 1939.76,633.026 1940.58,537.228 1941.39,454.108 1942.21,487.727 1943.03,841.243 1943.85,694.626 1944.66,332.369 1945.48,402.725 1946.3,537.228 1947.12,520.85 1947.94,537.228 1948.75,367.816 1949.57,679.39 1950.39,724.775 1951.21,402.725 1952.03,520.85 1952.84,617.348 1953.66,437.109 1954.48,470.98 1955.3,694.626 1956.11,454.108 1956.93,367.816 1957.75,487.727 1958.57,664.046 1959.39,964.868 1960.2,585.649 1961.02,127.236 1961.84,278.165 1962.66,314.441 1963.48,633.026 1964.29,385.337 1965.11,520.85 1965.93,585.649 1966.75,504.35 1967.56,569.627 1968.38,553.487 1969.2,798.323 1970.02,419.982 1970.84,709.754 1971.65,437.109 1972.47,648.591 1973.29,897.116 1974.11,296.373 1974.93,419.982 1975.74,332.369 1976.56,754.503 1977.38,664.046 1978.2,470.98 1979.01,617.348 1979.83,437.109 1980.65,203.894 1981.47,487.727 1982.29,470.98 1983.1,402.725 1983.92,617.348 1984.74,841.243 1985.56,553.487 1986.38,633.026 1987.19,537.228 1988.01,679.39 1988.83,938.039 1989.65,694.626 1990.47,520.85 1991.28,350.16 1992.1,537.228 1992.92,617.348 1993.74,537.228 1994.55,470.98 1995.37,617.348 1996.19,694.626 1997.01,724.775 1997.83,520.85 1998.64,278.165 1999.46,454.108 2000.28,585.649 2001.1,487.727 2001.92,350.16 2002.73,504.35 2003.55,332.369 2004.37,332.369 2005.19,585.649 2006,437.109 2006.82,165.87 2007.64,585.649 2008.46,569.627 2009.28,367.816 2010.09,278.165 2010.91,633.026 2011.73,739.691 2012.55,367.816 2013.37,296.373 2014.18,437.109 2015,314.441 2015.82,812.728 2016.64,487.727 2017.45,633.026 2018.27,537.228 2019.09,367.816 2019.91,241.321 2020.73,679.39 2021.54,385.337 2022.36,664.046 2023.18,709.754 2024,951.499 2024.82,419.982 2025.63,648.591 2026.45,332.369 2027.27,203.894 2028.09,350.16 2028.9,350.16 2029.72,569.627 2030.54,487.727 2031.36,419.982 2032.18,402.725 2032.99,350.16 2033.81,520.85 2034.63,694.626 2035.45,454.108 2036.27,617.348 2037.08,437.109 2037.9,385.337 2038.72,648.591 2039.54,419.982 2040.36,664.046 2041.17,553.487 2041.99,504.35 2042.81,633.026 2043.63,241.321 2044.44,314.441 2045.26,754.503 2046.08,601.556 2046.9,585.649 2047.72,537.228 2048.53,504.35 2049.35,278.165 2050.17,385.337 2050.99,585.649 2051.81,470.98 2052.62,385.337 2053.44,127.236 2054.26,841.243 2055.08,601.556 2055.89,367.816 2056.71,470.98 2057.53,553.487 2058.35,520.85 2059.17,739.691 2059.98,783.818 2060.8,222.681 2061.62,724.775 2062.44,278.165 2063.26,259.815 2064.07,296.373 2064.89,222.681 2065.71,601.556 2066.53,664.046 2067.34,537.228 2068.16,470.98 2068.98,87.9763 2069.8,127.236 2070.62,437.109 2071.43,487.727 2072.25,350.16 2073.07,585.649 2073.89,553.487 2074.71,617.348 2075.52,402.725 2076.34,769.211 2077.16,487.727 2077.98,367.816 2078.79,520.85 2079.61,487.727 2080.43,504.35 2081.25,487.727 2082.07,664.046 2082.88,470.98 2083.7,350.16 2084.52,601.556 2085.34,350.16 2086.16,739.691 2086.97,617.348 2087.79,633.026 2088.61,419.982 2089.43,520.85 2090.24,165.87 2091.06,553.487 2091.88,679.39 2092.7,601.556 2093.52,385.337 2094.33,332.369 2095.15,569.627 2095.97,617.348 2096.79,709.754 2097.61,664.046 2098.42,724.775 2099.24,812.728 2100.06,569.627 2100.88,454.108 2101.7,278.165 2102.51,437.109 2103.33,569.627 2104.15,633.026 2104.97,332.369 2105.78,437.109 2106.6,648.591 2107.42,314.441 2108.24,332.369 2109.06,487.727 2109.87,385.337 2110.69,241.321 2111.51,314.441 2112.33,385.337 2113.15,402.725 2113.96,146.631 2114.78,332.369 2115.6,278.165 2116.42,569.627 2117.23,487.727 2118.05,553.487 2118.87,222.681 2119.69,664.046 2120.51,585.649 2121.32,569.627 2122.14,537.228 2122.96,184.958 2123.78,314.441 2124.6,520.85 2125.41,537.228 2126.23,454.108 2127.05,470.98 2127.87,241.321 2128.68,437.109 2129.5,350.16 2130.32,278.165 2131.14,419.982 2131.96,107.685 2132.77,184.958 2133.59,454.108 2134.41,504.35 2135.23,419.982 2136.05,402.725 2136.86,601.556 2137.68,402.725 2138.5,385.337 2139.32,332.369 2140.13,165.87 2140.95,553.487 2141.77,278.165 2142.59,585.649 2143.41,504.35 2144.22,350.16 2145.04,739.691 2145.86,569.627 2146.68,222.681 2147.5,385.337 2148.31,296.373 2149.13,296.373 2149.95,569.627 2150.77,537.228 2151.59,633.026 2152.4,504.35 2153.22,296.373 2154.04,332.369 2154.86,454.108 2155.67,419.982 2156.49,487.727 2157.31,487.727 2158.13,454.108 2158.95,222.681 2159.76,296.373 2160.58,633.026 2161.4,648.591 2162.22,259.815 2163.04,487.727 2163.85,402.725 2164.67,385.337 2165.49,470.98 2166.31,437.109 2167.12,585.649 2167.94,222.681 2168.76,222.681 2169.58,601.556 2170.4,241.321 2171.21,437.109 2172.03,487.727 2172.85,537.228 2173.67,633.026 2174.49,553.487 2175.3,314.441 2176.12,470.98 2176.94,332.369 2177.76,470.98 2178.57,314.441 2179.39,553.487 2180.21,332.369 2181.03,165.87 2181.85,679.39 2182.66,278.165 2183.48,470.98 2184.3,419.982 2185.12,601.556 2185.94,402.725 2186.75,553.487 2187.57,470.98 2188.39,601.556 2189.21,367.816 2190.02,569.627 2190.84,203.894 2191.66,419.982 2192.48,664.046 2193.3,278.165 2194.11,385.337 2194.93,367.816 2195.75,585.649 2196.57,259.815 2197.39,184.958 2198.2,537.228 2199.02,419.982 2199.84,724.775 2200.66,470.98 2201.47,585.649 2202.29,350.16 2203.11,385.337 2203.93,419.982 2204.75,367.816 2205.56,385.337 2206.38,520.85 2207.2,203.894 2208.02,487.727 2208.84,454.108 2209.65,314.441 2210.47,367.816 2211.29,385.337 2212.11,165.87 2212.93,419.982 2213.74,146.631 2214.56,585.649 2215.38,241.321 2216.2,385.337 2217.01,520.85 2217.83,350.16 2218.65,617.348 2219.47,332.369 2220.29,222.681 2221.1,487.727 2221.92,241.321 2222.74,679.39 2223.56,454.108 2224.38,222.681 2225.19,487.727 2226.01,146.631 2226.83,504.35 2227.65,470.98 2228.46,437.109 2229.28,259.815 2230.1,385.337 2230.92,296.373 2231.74,601.556 2232.55,617.348 2233.37,601.556 2234.19,487.727 2235.01,454.108 2235.83,222.681 2236.64,520.85 2237.46,454.108 2238.28,739.691 2239.1,165.87 2239.91,296.373 2240.73,241.321 2241.55,385.337 2242.37,146.631 2243.19,402.725 2244,569.627 2244.82,487.727 2245.64,437.109 2246.46,296.373 2247.28,470.98 2248.09,454.108 2248.91,367.816 2249.73,585.649 2250.55,679.39 2251.36,350.16 2252.18,487.727 2253,367.816 2253.82,504.35 2254.64,633.026 2255.45,470.98 2256.27,385.337 2257.09,633.026 2257.91,296.373 2258.73,487.727 2259.54,504.35 2260.36,454.108 2261.18,520.85 2262,724.775 2262.82,278.165 2263.63,402.725 2264.45,259.815 2265.27,241.321 2266.09,437.109 2266.9,520.85 2267.72,617.348 2268.54,402.725 2269.36,812.728 2270.18,314.441 2270.99,367.816 2271.81,470.98 2272.63,278.165 2273.45,367.816 2274.27,437.109 2275.08,679.39 2275.9,146.631 2276.72,278.165 2277.54,367.816 2278.35,709.754 2279.17,296.373 2279.99,165.87 2280.81,350.16 2281.63,754.503 2282.44,739.691 2283.26,314.441 2284.08,402.725 2284.9,679.39 2285.72,385.337 2286.53,419.982 2287.35,648.591 2288.17,487.727 2288.99,332.369 2289.8,437.109 2290.62,402.725 2291.44,470.98 "/>
<path clip-path="url(#clip680)" d="M258.49 198.898 L527.569 198.898 L527.569 95.2176 L258.49 95.2176  Z" fill="#ffffff" fill-rule="evenodd" fill-opacity="1"/>
<polyline clip-path="url(#clip680)" style="stroke:#000000; stroke-linecap:round; stroke-linejoin:round; stroke-width:4; stroke-opacity:1; fill:none" points="258.49,198.898 527.569,198.898 527.569,95.2176 258.49,95.2176 258.49,198.898 "/>
<polyline clip-path="url(#clip680)" style="stroke:#009af9; stroke-linecap:round; stroke-linejoin:round; stroke-width:4; stroke-opacity:1; fill:none" points="282.562,147.058 426.994,147.058 "/>
<path clip-path="url(#clip680)" d="M464.909 166.745 Q463.103 171.375 461.39 172.787 Q459.677 174.199 456.807 174.199 L453.404 174.199 L453.404 170.634 L455.904 170.634 Q457.663 170.634 458.636 169.8 Q459.608 168.967 460.788 165.865 L461.552 163.921 L451.066 138.412 L455.58 138.412 L463.682 158.689 L471.784 138.412 L476.298 138.412 L464.909 166.745 Z" fill="#000000" fill-rule="nonzero" fill-opacity="1" /><path clip-path="url(#clip680)" d="M483.589 160.402 L491.228 160.402 L491.228 134.037 L482.918 135.703 L482.918 131.444 L491.182 129.778 L495.858 129.778 L495.858 160.402 L503.497 160.402 L503.497 164.338 L483.589 164.338 L483.589 160.402 Z" fill="#000000" fill-rule="nonzero" fill-opacity="1" /></svg>
