<?xml version="1.0" encoding="utf-8"?>
<svg xmlns="http://www.w3.org/2000/svg" xmlns:xlink="http://www.w3.org/1999/xlink" width="600" height="400" viewBox="0 0 2400 1600">
<defs>
  <clipPath id="clip900">
    <rect x="0" y="0" width="2400" height="1600"/>
  </clipPath>
</defs>
<path clip-path="url(#clip900)" d="M0 1600 L2400 1600 L2400 0 L0 0  Z" fill="#ffffff" fill-rule="evenodd" fill-opacity="1"/>
<defs>
  <clipPath id="clip901">
    <rect x="480" y="0" width="1681" height="1600"/>
  </clipPath>
</defs>
<path clip-path="url(#clip900)" d="M156.274 1486.45 L2352.76 1486.45 L2352.76 47.2441 L156.274 47.2441  Z" fill="#ffffff" fill-rule="evenodd" fill-opacity="1"/>
<defs>
  <clipPath id="clip902">
    <rect x="156" y="47" width="2197" height="1440"/>
  </clipPath>
</defs>
<polyline clip-path="url(#clip902)" style="stroke:#000000; stroke-linecap:round; stroke-linejoin:round; stroke-width:2; stroke-opacity:0.1; fill:none" points="218.439,1486.45 218.439,47.2441 "/>
<polyline clip-path="url(#clip902)" style="stroke:#000000; stroke-linecap:round; stroke-linejoin:round; stroke-width:2; stroke-opacity:0.1; fill:none" points="736.995,1486.45 736.995,47.2441 "/>
<polyline clip-path="url(#clip902)" style="stroke:#000000; stroke-linecap:round; stroke-linejoin:round; stroke-width:2; stroke-opacity:0.1; fill:none" points="1255.55,1486.45 1255.55,47.2441 "/>
<polyline clip-path="url(#clip902)" style="stroke:#000000; stroke-linecap:round; stroke-linejoin:round; stroke-width:2; stroke-opacity:0.1; fill:none" points="1774.11,1486.45 1774.11,47.2441 "/>
<polyline clip-path="url(#clip902)" style="stroke:#000000; stroke-linecap:round; stroke-linejoin:round; stroke-width:2; stroke-opacity:0.1; fill:none" points="2292.67,1486.45 2292.67,47.2441 "/>
<polyline clip-path="url(#clip900)" style="stroke:#000000; stroke-linecap:round; stroke-linejoin:round; stroke-width:4; stroke-opacity:1; fill:none" points="156.274,1486.45 2352.76,1486.45 "/>
<polyline clip-path="url(#clip900)" style="stroke:#000000; stroke-linecap:round; stroke-linejoin:round; stroke-width:4; stroke-opacity:1; fill:none" points="218.439,1486.45 218.439,1467.55 "/>
<polyline clip-path="url(#clip900)" style="stroke:#000000; stroke-linecap:round; stroke-linejoin:round; stroke-width:4; stroke-opacity:1; fill:none" points="736.995,1486.45 736.995,1467.55 "/>
<polyline clip-path="url(#clip900)" style="stroke:#000000; stroke-linecap:round; stroke-linejoin:round; stroke-width:4; stroke-opacity:1; fill:none" points="1255.55,1486.45 1255.55,1467.55 "/>
<polyline clip-path="url(#clip900)" style="stroke:#000000; stroke-linecap:round; stroke-linejoin:round; stroke-width:4; stroke-opacity:1; fill:none" points="1774.11,1486.45 1774.11,1467.55 "/>
<polyline clip-path="url(#clip900)" style="stroke:#000000; stroke-linecap:round; stroke-linejoin:round; stroke-width:4; stroke-opacity:1; fill:none" points="2292.67,1486.45 2292.67,1467.55 "/>
<path clip-path="url(#clip900)" d="M218.439 1517.37 Q214.828 1517.37 212.999 1520.93 Q211.193 1524.47 211.193 1531.6 Q211.193 1538.71 212.999 1542.27 Q214.828 1545.82 218.439 1545.82 Q222.073 1545.82 223.879 1542.27 Q225.707 1538.71 225.707 1531.6 Q225.707 1524.47 223.879 1520.93 Q222.073 1517.37 218.439 1517.37 M218.439 1513.66 Q224.249 1513.66 227.304 1518.27 Q230.383 1522.85 230.383 1531.6 Q230.383 1540.33 227.304 1544.94 Q224.249 1549.52 218.439 1549.52 Q212.629 1549.52 209.55 1544.94 Q206.494 1540.33 206.494 1531.6 Q206.494 1522.85 209.55 1518.27 Q212.629 1513.66 218.439 1513.66 Z" fill="#000000" fill-rule="nonzero" fill-opacity="1" /><path clip-path="url(#clip900)" d="M700.688 1544.91 L717.007 1544.91 L717.007 1548.85 L695.063 1548.85 L695.063 1544.91 Q697.725 1542.16 702.308 1537.53 Q706.915 1532.88 708.095 1531.53 Q710.34 1529.01 711.22 1527.27 Q712.123 1525.51 712.123 1523.82 Q712.123 1521.07 710.178 1519.33 Q708.257 1517.6 705.155 1517.6 Q702.956 1517.6 700.503 1518.36 Q698.072 1519.13 695.294 1520.68 L695.294 1515.95 Q698.118 1514.82 700.572 1514.24 Q703.026 1513.66 705.063 1513.66 Q710.433 1513.66 713.628 1516.35 Q716.822 1519.03 716.822 1523.52 Q716.822 1525.65 716.012 1527.57 Q715.225 1529.47 713.118 1532.07 Q712.54 1532.74 709.438 1535.95 Q706.336 1539.15 700.688 1544.91 Z" fill="#000000" fill-rule="nonzero" fill-opacity="1" /><path clip-path="url(#clip900)" d="M726.868 1514.29 L745.225 1514.29 L745.225 1518.22 L731.151 1518.22 L731.151 1526.7 Q732.169 1526.35 733.188 1526.19 Q734.206 1526 735.225 1526 Q741.012 1526 744.391 1529.17 Q747.771 1532.34 747.771 1537.76 Q747.771 1543.34 744.299 1546.44 Q740.826 1549.52 734.507 1549.52 Q732.331 1549.52 730.063 1549.15 Q727.817 1548.78 725.41 1548.04 L725.41 1543.34 Q727.493 1544.47 729.715 1545.03 Q731.938 1545.58 734.414 1545.58 Q738.419 1545.58 740.757 1543.48 Q743.095 1541.37 743.095 1537.76 Q743.095 1534.15 740.757 1532.04 Q738.419 1529.94 734.414 1529.94 Q732.539 1529.94 730.664 1530.35 Q728.813 1530.77 726.868 1531.65 L726.868 1514.29 Z" fill="#000000" fill-rule="nonzero" fill-opacity="1" /><path clip-path="url(#clip900)" d="M766.984 1517.37 Q763.373 1517.37 761.544 1520.93 Q759.738 1524.47 759.738 1531.6 Q759.738 1538.71 761.544 1542.27 Q763.373 1545.82 766.984 1545.82 Q770.618 1545.82 772.423 1542.27 Q774.252 1538.71 774.252 1531.6 Q774.252 1524.47 772.423 1520.93 Q770.618 1517.37 766.984 1517.37 M766.984 1513.66 Q772.794 1513.66 775.849 1518.27 Q778.928 1522.85 778.928 1531.6 Q778.928 1540.33 775.849 1544.94 Q772.794 1549.52 766.984 1549.52 Q761.174 1549.52 758.095 1544.94 Q755.039 1540.33 755.039 1531.6 Q755.039 1522.85 758.095 1518.27 Q761.174 1513.66 766.984 1513.66 Z" fill="#000000" fill-rule="nonzero" fill-opacity="1" /><path clip-path="url(#clip900)" d="M1215.17 1514.29 L1233.53 1514.29 L1233.53 1518.22 L1219.45 1518.22 L1219.45 1526.7 Q1220.47 1526.35 1221.49 1526.19 Q1222.51 1526 1223.53 1526 Q1229.31 1526 1232.69 1529.17 Q1236.07 1532.34 1236.07 1537.76 Q1236.07 1543.34 1232.6 1546.44 Q1229.13 1549.52 1222.81 1549.52 Q1220.63 1549.52 1218.36 1549.15 Q1216.12 1548.78 1213.71 1548.04 L1213.71 1543.34 Q1215.8 1544.47 1218.02 1545.03 Q1220.24 1545.58 1222.72 1545.58 Q1226.72 1545.58 1229.06 1543.48 Q1231.4 1541.37 1231.4 1537.76 Q1231.4 1534.15 1229.06 1532.04 Q1226.72 1529.94 1222.72 1529.94 Q1220.84 1529.94 1218.97 1530.35 Q1217.11 1530.77 1215.17 1531.65 L1215.17 1514.29 Z" fill="#000000" fill-rule="nonzero" fill-opacity="1" /><path clip-path="url(#clip900)" d="M1255.29 1517.37 Q1251.67 1517.37 1249.85 1520.93 Q1248.04 1524.47 1248.04 1531.6 Q1248.04 1538.71 1249.85 1542.27 Q1251.67 1545.82 1255.29 1545.82 Q1258.92 1545.82 1260.73 1542.27 Q1262.55 1538.71 1262.55 1531.6 Q1262.55 1524.47 1260.73 1520.93 Q1258.92 1517.37 1255.29 1517.37 M1255.29 1513.66 Q1261.1 1513.66 1264.15 1518.27 Q1267.23 1522.85 1267.23 1531.6 Q1267.23 1540.33 1264.15 1544.94 Q1261.1 1549.52 1255.29 1549.52 Q1249.48 1549.52 1246.4 1544.94 Q1243.34 1540.33 1243.34 1531.6 Q1243.34 1522.85 1246.4 1518.27 Q1249.48 1513.66 1255.29 1513.66 Z" fill="#000000" fill-rule="nonzero" fill-opacity="1" /><path clip-path="url(#clip900)" d="M1285.45 1517.37 Q1281.84 1517.37 1280.01 1520.93 Q1278.2 1524.47 1278.2 1531.6 Q1278.2 1538.71 1280.01 1542.27 Q1281.84 1545.82 1285.45 1545.82 Q1289.08 1545.82 1290.89 1542.27 Q1292.72 1538.71 1292.72 1531.6 Q1292.72 1524.47 1290.89 1520.93 Q1289.08 1517.37 1285.45 1517.37 M1285.45 1513.66 Q1291.26 1513.66 1294.31 1518.27 Q1297.39 1522.85 1297.39 1531.6 Q1297.39 1540.33 1294.31 1544.94 Q1291.26 1549.52 1285.45 1549.52 Q1279.64 1549.52 1276.56 1544.94 Q1273.5 1540.33 1273.5 1531.6 Q1273.5 1522.85 1276.56 1518.27 Q1279.64 1513.66 1285.45 1513.66 Z" fill="#000000" fill-rule="nonzero" fill-opacity="1" /><path clip-path="url(#clip900)" d="M1732.38 1514.29 L1754.61 1514.29 L1754.61 1516.28 L1742.06 1548.85 L1737.18 1548.85 L1748.98 1518.22 L1732.38 1518.22 L1732.38 1514.29 Z" fill="#000000" fill-rule="nonzero" fill-opacity="1" /><path clip-path="url(#clip900)" d="M1763.77 1514.29 L1782.13 1514.29 L1782.13 1518.22 L1768.06 1518.22 L1768.06 1526.7 Q1769.07 1526.35 1770.09 1526.19 Q1771.11 1526 1772.13 1526 Q1777.92 1526 1781.3 1529.17 Q1784.68 1532.34 1784.68 1537.76 Q1784.68 1543.34 1781.2 1546.44 Q1777.73 1549.52 1771.41 1549.52 Q1769.24 1549.52 1766.97 1549.15 Q1764.72 1548.78 1762.31 1548.04 L1762.31 1543.34 Q1764.4 1544.47 1766.62 1545.03 Q1768.84 1545.58 1771.32 1545.58 Q1775.32 1545.58 1777.66 1543.48 Q1780 1541.37 1780 1537.76 Q1780 1534.15 1777.66 1532.04 Q1775.32 1529.94 1771.32 1529.94 Q1769.44 1529.94 1767.57 1530.35 Q1765.72 1530.77 1763.77 1531.65 L1763.77 1514.29 Z" fill="#000000" fill-rule="nonzero" fill-opacity="1" /><path clip-path="url(#clip900)" d="M1803.89 1517.37 Q1800.28 1517.37 1798.45 1520.93 Q1796.64 1524.47 1796.64 1531.6 Q1796.64 1538.71 1798.45 1542.27 Q1800.28 1545.82 1803.89 1545.82 Q1807.52 1545.82 1809.33 1542.27 Q1811.16 1538.71 1811.16 1531.6 Q1811.16 1524.47 1809.33 1520.93 Q1807.52 1517.37 1803.89 1517.37 M1803.89 1513.66 Q1809.7 1513.66 1812.75 1518.27 Q1815.83 1522.85 1815.83 1531.6 Q1815.83 1540.33 1812.75 1544.94 Q1809.7 1549.52 1803.89 1549.52 Q1798.08 1549.52 1795 1544.94 Q1791.94 1540.33 1791.94 1531.6 Q1791.94 1522.85 1795 1518.27 Q1798.08 1513.66 1803.89 1513.66 Z" fill="#000000" fill-rule="nonzero" fill-opacity="1" /><path clip-path="url(#clip900)" d="M2237.19 1544.91 L2244.83 1544.91 L2244.83 1518.55 L2236.52 1520.21 L2236.52 1515.95 L2244.78 1514.29 L2249.46 1514.29 L2249.46 1544.91 L2257.1 1544.91 L2257.1 1548.85 L2237.19 1548.85 L2237.19 1544.91 Z" fill="#000000" fill-rule="nonzero" fill-opacity="1" /><path clip-path="url(#clip900)" d="M2276.54 1517.37 Q2272.93 1517.37 2271.1 1520.93 Q2269.3 1524.47 2269.3 1531.6 Q2269.3 1538.71 2271.1 1542.27 Q2272.93 1545.82 2276.54 1545.82 Q2280.18 1545.82 2281.98 1542.27 Q2283.81 1538.71 2283.81 1531.6 Q2283.81 1524.47 2281.98 1520.93 Q2280.18 1517.37 2276.54 1517.37 M2276.54 1513.66 Q2282.35 1513.66 2285.41 1518.27 Q2288.49 1522.85 2288.49 1531.6 Q2288.49 1540.33 2285.41 1544.94 Q2282.35 1549.52 2276.54 1549.52 Q2270.73 1549.52 2267.65 1544.94 Q2264.6 1540.33 2264.6 1531.6 Q2264.6 1522.85 2267.65 1518.27 Q2270.73 1513.66 2276.54 1513.66 Z" fill="#000000" fill-rule="nonzero" fill-opacity="1" /><path clip-path="url(#clip900)" d="M2306.7 1517.37 Q2303.09 1517.37 2301.27 1520.93 Q2299.46 1524.47 2299.46 1531.6 Q2299.46 1538.71 2301.27 1542.27 Q2303.09 1545.82 2306.7 1545.82 Q2310.34 1545.82 2312.14 1542.27 Q2313.97 1538.71 2313.97 1531.6 Q2313.97 1524.47 2312.14 1520.93 Q2310.34 1517.37 2306.7 1517.37 M2306.7 1513.66 Q2312.51 1513.66 2315.57 1518.27 Q2318.65 1522.85 2318.65 1531.6 Q2318.65 1540.33 2315.57 1544.94 Q2312.51 1549.52 2306.7 1549.52 Q2300.89 1549.52 2297.82 1544.94 Q2294.76 1540.33 2294.76 1531.6 Q2294.76 1522.85 2297.82 1518.27 Q2300.89 1513.66 2306.7 1513.66 Z" fill="#000000" fill-rule="nonzero" fill-opacity="1" /><path clip-path="url(#clip900)" d="M2336.87 1517.37 Q2333.26 1517.37 2331.43 1520.93 Q2329.62 1524.47 2329.62 1531.6 Q2329.62 1538.71 2331.43 1542.27 Q2333.26 1545.82 2336.87 1545.82 Q2340.5 1545.82 2342.31 1542.27 Q2344.14 1538.71 2344.14 1531.6 Q2344.14 1524.47 2342.31 1520.93 Q2340.5 1517.37 2336.87 1517.37 M2336.87 1513.66 Q2342.68 1513.66 2345.73 1518.27 Q2348.81 1522.85 2348.81 1531.6 Q2348.81 1540.33 2345.73 1544.94 Q2342.68 1549.52 2336.87 1549.52 Q2331.06 1549.52 2327.98 1544.94 Q2324.92 1540.33 2324.92 1531.6 Q2324.92 1522.85 2327.98 1518.27 Q2331.06 1513.66 2336.87 1513.66 Z" fill="#000000" fill-rule="nonzero" fill-opacity="1" /><polyline clip-path="url(#clip902)" style="stroke:#000000; stroke-linecap:round; stroke-linejoin:round; stroke-width:2; stroke-opacity:0.1; fill:none" points="156.274,1322.28 2352.76,1322.28 "/>
<polyline clip-path="url(#clip902)" style="stroke:#000000; stroke-linecap:round; stroke-linejoin:round; stroke-width:2; stroke-opacity:0.1; fill:none" points="156.274,1013.71 2352.76,1013.71 "/>
<polyline clip-path="url(#clip902)" style="stroke:#000000; stroke-linecap:round; stroke-linejoin:round; stroke-width:2; stroke-opacity:0.1; fill:none" points="156.274,705.131 2352.76,705.131 "/>
<polyline clip-path="url(#clip902)" style="stroke:#000000; stroke-linecap:round; stroke-linejoin:round; stroke-width:2; stroke-opacity:0.1; fill:none" points="156.274,396.553 2352.76,396.553 "/>
<polyline clip-path="url(#clip902)" style="stroke:#000000; stroke-linecap:round; stroke-linejoin:round; stroke-width:2; stroke-opacity:0.1; fill:none" points="156.274,87.9763 2352.76,87.9763 "/>
<polyline clip-path="url(#clip900)" style="stroke:#000000; stroke-linecap:round; stroke-linejoin:round; stroke-width:4; stroke-opacity:1; fill:none" points="156.274,1486.45 156.274,47.2441 "/>
<polyline clip-path="url(#clip900)" style="stroke:#000000; stroke-linecap:round; stroke-linejoin:round; stroke-width:4; stroke-opacity:1; fill:none" points="156.274,1322.28 175.172,1322.28 "/>
<polyline clip-path="url(#clip900)" style="stroke:#000000; stroke-linecap:round; stroke-linejoin:round; stroke-width:4; stroke-opacity:1; fill:none" points="156.274,1013.71 175.172,1013.71 "/>
<polyline clip-path="url(#clip900)" style="stroke:#000000; stroke-linecap:round; stroke-linejoin:round; stroke-width:4; stroke-opacity:1; fill:none" points="156.274,705.131 175.172,705.131 "/>
<polyline clip-path="url(#clip900)" style="stroke:#000000; stroke-linecap:round; stroke-linejoin:round; stroke-width:4; stroke-opacity:1; fill:none" points="156.274,396.553 175.172,396.553 "/>
<polyline clip-path="url(#clip900)" style="stroke:#000000; stroke-linecap:round; stroke-linejoin:round; stroke-width:4; stroke-opacity:1; fill:none" points="156.274,87.9763 175.172,87.9763 "/>
<path clip-path="url(#clip900)" d="M62.9365 1308.08 Q59.3254 1308.08 57.4967 1311.65 Q55.6912 1315.19 55.6912 1322.32 Q55.6912 1329.43 57.4967 1332.99 Q59.3254 1336.53 62.9365 1336.53 Q66.5707 1336.53 68.3763 1332.99 Q70.205 1329.43 70.205 1322.32 Q70.205 1315.19 68.3763 1311.65 Q66.5707 1308.08 62.9365 1308.08 M62.9365 1304.38 Q68.7467 1304.38 71.8022 1308.99 Q74.8809 1313.57 74.8809 1322.32 Q74.8809 1331.05 71.8022 1335.65 Q68.7467 1340.24 62.9365 1340.24 Q57.1264 1340.24 54.0477 1335.65 Q50.9921 1331.05 50.9921 1322.32 Q50.9921 1313.57 54.0477 1308.99 Q57.1264 1304.38 62.9365 1304.38 Z" fill="#000000" fill-rule="nonzero" fill-opacity="1" /><path clip-path="url(#clip900)" d="M83.0984 1333.69 L87.9827 1333.69 L87.9827 1339.56 L83.0984 1339.56 L83.0984 1333.69 Z" fill="#000000" fill-rule="nonzero" fill-opacity="1" /><path clip-path="url(#clip900)" d="M108.746 1320.42 Q105.598 1320.42 103.746 1322.57 Q101.918 1324.73 101.918 1328.48 Q101.918 1332.2 103.746 1334.38 Q105.598 1336.53 108.746 1336.53 Q111.895 1336.53 113.723 1334.38 Q115.575 1332.2 115.575 1328.48 Q115.575 1324.73 113.723 1322.57 Q111.895 1320.42 108.746 1320.42 M118.029 1305.77 L118.029 1310.03 Q116.27 1309.19 114.464 1308.75 Q112.682 1308.32 110.922 1308.32 Q106.293 1308.32 103.839 1311.44 Q101.409 1314.56 101.061 1320.88 Q102.427 1318.87 104.487 1317.81 Q106.547 1316.72 109.024 1316.72 Q114.233 1316.72 117.242 1319.89 Q120.274 1323.04 120.274 1328.48 Q120.274 1333.8 117.126 1337.02 Q113.978 1340.24 108.746 1340.24 Q102.751 1340.24 99.5798 1335.65 Q96.4085 1331.05 96.4085 1322.32 Q96.4085 1314.13 100.297 1309.26 Q104.186 1304.38 110.737 1304.38 Q112.496 1304.38 114.279 1304.73 Q116.084 1305.07 118.029 1305.77 Z" fill="#000000" fill-rule="nonzero" fill-opacity="1" /><path clip-path="url(#clip900)" d="M64.0013 999.506 Q60.3902 999.506 58.5615 1003.07 Q56.756 1006.61 56.756 1013.74 Q56.756 1020.85 58.5615 1024.41 Q60.3902 1027.96 64.0013 1027.96 Q67.6356 1027.96 69.4411 1024.41 Q71.2698 1020.85 71.2698 1013.74 Q71.2698 1006.61 69.4411 1003.07 Q67.6356 999.506 64.0013 999.506 M64.0013 995.803 Q69.8115 995.803 72.867 1000.41 Q75.9457 1004.99 75.9457 1013.74 Q75.9457 1022.47 72.867 1027.08 Q69.8115 1031.66 64.0013 1031.66 Q58.1912 1031.66 55.1125 1027.08 Q52.0569 1022.47 52.0569 1013.74 Q52.0569 1004.99 55.1125 1000.41 Q58.1912 995.803 64.0013 995.803 Z" fill="#000000" fill-rule="nonzero" fill-opacity="1" /><path clip-path="url(#clip900)" d="M84.1632 1025.11 L89.0475 1025.11 L89.0475 1030.99 L84.1632 1030.99 L84.1632 1025.11 Z" fill="#000000" fill-rule="nonzero" fill-opacity="1" /><path clip-path="url(#clip900)" d="M98.0521 996.428 L120.274 996.428 L120.274 998.418 L107.728 1030.99 L102.844 1030.99 L114.649 1000.36 L98.0521 1000.36 L98.0521 996.428 Z" fill="#000000" fill-rule="nonzero" fill-opacity="1" /><path clip-path="url(#clip900)" d="M63.1911 690.929 Q59.58 690.929 57.7513 694.494 Q55.9458 698.036 55.9458 705.165 Q55.9458 712.272 57.7513 715.837 Q59.58 719.378 63.1911 719.378 Q66.8254 719.378 68.6309 715.837 Q70.4596 712.272 70.4596 705.165 Q70.4596 698.036 68.6309 694.494 Q66.8254 690.929 63.1911 690.929 M63.1911 687.226 Q69.0013 687.226 72.0568 691.832 Q75.1355 696.415 75.1355 705.165 Q75.1355 713.892 72.0568 718.499 Q69.0013 723.082 63.1911 723.082 Q57.381 723.082 54.3023 718.499 Q51.2468 713.892 51.2468 705.165 Q51.2468 696.415 54.3023 691.832 Q57.381 687.226 63.1911 687.226 Z" fill="#000000" fill-rule="nonzero" fill-opacity="1" /><path clip-path="url(#clip900)" d="M83.3531 716.531 L88.2373 716.531 L88.2373 722.411 L83.3531 722.411 L83.3531 716.531 Z" fill="#000000" fill-rule="nonzero" fill-opacity="1" /><path clip-path="url(#clip900)" d="M108.422 705.999 Q105.089 705.999 103.168 707.781 Q101.27 709.563 101.27 712.688 Q101.27 715.813 103.168 717.596 Q105.089 719.378 108.422 719.378 Q111.756 719.378 113.677 717.596 Q115.598 715.79 115.598 712.688 Q115.598 709.563 113.677 707.781 Q111.779 705.999 108.422 705.999 M103.746 704.008 Q100.737 703.267 99.0474 701.207 Q97.3808 699.147 97.3808 696.184 Q97.3808 692.04 100.321 689.633 Q103.284 687.226 108.422 687.226 Q113.584 687.226 116.524 689.633 Q119.464 692.04 119.464 696.184 Q119.464 699.147 117.774 701.207 Q116.108 703.267 113.121 704.008 Q116.501 704.795 118.376 707.087 Q120.274 709.378 120.274 712.688 Q120.274 717.712 117.195 720.397 Q114.14 723.082 108.422 723.082 Q102.705 723.082 99.6261 720.397 Q96.5706 717.712 96.5706 712.688 Q96.5706 709.378 98.4687 707.087 Q100.367 704.795 103.746 704.008 M102.034 696.624 Q102.034 699.309 103.7 700.813 Q105.39 702.318 108.422 702.318 Q111.432 702.318 113.121 700.813 Q114.834 699.309 114.834 696.624 Q114.834 693.938 113.121 692.434 Q111.432 690.929 108.422 690.929 Q105.39 690.929 103.7 692.434 Q102.034 693.938 102.034 696.624 Z" fill="#000000" fill-rule="nonzero" fill-opacity="1" /><path clip-path="url(#clip900)" d="M63.2837 382.352 Q59.6726 382.352 57.8439 385.917 Q56.0384 389.459 56.0384 396.588 Q56.0384 403.695 57.8439 407.259 Q59.6726 410.801 63.2837 410.801 Q66.918 410.801 68.7235 407.259 Q70.5522 403.695 70.5522 396.588 Q70.5522 389.459 68.7235 385.917 Q66.918 382.352 63.2837 382.352 M63.2837 378.648 Q69.0939 378.648 72.1494 383.255 Q75.2281 387.838 75.2281 396.588 Q75.2281 405.315 72.1494 409.921 Q69.0939 414.505 63.2837 414.505 Q57.4736 414.505 54.3949 409.921 Q51.3393 405.315 51.3393 396.588 Q51.3393 387.838 54.3949 383.255 Q57.4736 378.648 63.2837 378.648 Z" fill="#000000" fill-rule="nonzero" fill-opacity="1" /><path clip-path="url(#clip900)" d="M83.4457 407.954 L88.3299 407.954 L88.3299 413.833 L83.4457 413.833 L83.4457 407.954 Z" fill="#000000" fill-rule="nonzero" fill-opacity="1" /><path clip-path="url(#clip900)" d="M98.6539 413.116 L98.6539 408.857 Q100.413 409.69 102.219 410.13 Q104.024 410.57 105.76 410.57 Q110.39 410.57 112.82 407.468 Q115.274 404.343 115.621 398 Q114.279 399.991 112.219 401.056 Q110.158 402.121 107.658 402.121 Q102.473 402.121 99.4409 398.996 Q96.4317 395.847 96.4317 390.408 Q96.4317 385.084 99.5798 381.866 Q102.728 378.648 107.959 378.648 Q113.955 378.648 117.103 383.255 Q120.274 387.838 120.274 396.588 Q120.274 404.759 116.385 409.644 Q112.52 414.505 105.969 414.505 Q104.209 414.505 102.404 414.157 Q100.598 413.81 98.6539 413.116 M107.959 398.463 Q111.108 398.463 112.936 396.31 Q114.788 394.158 114.788 390.408 Q114.788 386.681 112.936 384.528 Q111.108 382.352 107.959 382.352 Q104.811 382.352 102.959 384.528 Q101.131 386.681 101.131 390.408 Q101.131 394.158 102.959 396.31 Q104.811 398.463 107.959 398.463 Z" fill="#000000" fill-rule="nonzero" fill-opacity="1" /><path clip-path="url(#clip900)" d="M53.9088 101.321 L61.5476 101.321 L61.5476 74.9555 L53.2375 76.6222 L53.2375 72.3629 L61.5013 70.6963 L66.1772 70.6963 L66.1772 101.321 L73.8161 101.321 L73.8161 105.256 L53.9088 105.256 L53.9088 101.321 Z" fill="#000000" fill-rule="nonzero" fill-opacity="1" /><path clip-path="url(#clip900)" d="M83.2605 99.3767 L88.1447 99.3767 L88.1447 105.256 L83.2605 105.256 L83.2605 99.3767 Z" fill="#000000" fill-rule="nonzero" fill-opacity="1" /><path clip-path="url(#clip900)" d="M108.33 73.775 Q104.719 73.775 102.89 77.3398 Q101.084 80.8814 101.084 88.011 Q101.084 95.1174 102.89 98.6822 Q104.719 102.224 108.33 102.224 Q111.964 102.224 113.77 98.6822 Q115.598 95.1174 115.598 88.011 Q115.598 80.8814 113.77 77.3398 Q111.964 73.775 108.33 73.775 M108.33 70.0713 Q114.14 70.0713 117.195 74.6777 Q120.274 79.261 120.274 88.011 Q120.274 96.7378 117.195 101.344 Q114.14 105.928 108.33 105.928 Q102.52 105.928 99.4409 101.344 Q96.3854 96.7378 96.3854 88.011 Q96.3854 79.261 99.4409 74.6777 Q102.52 70.0713 108.33 70.0713 Z" fill="#000000" fill-rule="nonzero" fill-opacity="1" /><polyline clip-path="url(#clip902)" style="stroke:#009af9; stroke-linecap:round; stroke-linejoin:round; stroke-width:4; stroke-opacity:1; fill:none" points="218.439,1137.14 220.513,1445.72 222.587,890.277 224.661,1137.14 226.736,1322.28 228.81,890.277 230.884,1260.57 232.958,1075.42 235.033,1013.71 237.107,890.277 239.181,1384 241.255,766.846 243.329,766.846 245.404,705.131 247.478,890.277 249.552,766.846 251.626,705.131 253.701,951.992 255.775,581.7 257.849,458.269 259.923,581.7 261.998,643.415 264.072,951.992 266.146,705.131 268.22,334.838 270.294,458.269 272.369,519.984 274.443,519.984 276.517,643.415 278.591,766.846 280.666,766.846 282.74,396.553 284.814,581.7 286.888,705.131 288.962,334.838 291.037,396.553 293.111,581.7 295.185,396.553 297.259,458.269 299.334,334.838 301.408,458.269 303.482,396.553 305.556,458.269 307.63,334.838 309.705,519.984 311.779,396.553 313.853,396.553 315.927,273.123 318.002,458.269 320.076,458.269 322.15,149.692 324.224,211.407 326.299,273.123 328.373,211.407 330.447,334.838 332.521,211.407 334.595,149.692 336.67,334.838 338.744,87.9763 340.818,273.123 342.892,211.407 344.967,211.407 347.041,149.692 349.115,334.838 351.189,149.692 353.263,273.123 355.338,273.123 357.412,273.123 359.486,87.9763 361.56,149.692 363.635,211.407 365.709,87.9763 367.783,273.123 369.857,149.692 371.932,211.407 374.006,211.407 376.08,149.692 378.154,149.692 380.228,211.407 382.303,149.692 384.377,149.692 386.451,149.692 388.525,149.692 390.6,149.692 392.674,211.407 394.748,87.9763 396.822,273.123 398.896,149.692 400.971,87.9763 403.045,149.692 405.119,149.692 407.193,149.692 409.268,149.692 411.342,273.123 413.416,87.9763 415.49,87.9763 417.565,87.9763 419.639,149.692 421.713,149.692 423.787,273.123 425.861,87.9763 427.936,87.9763 430.01,87.9763 432.084,273.123 434.158,149.692 436.233,149.692 438.307,149.692 440.381,149.692 442.455,87.9763 444.529,87.9763 446.604,149.692 448.678,149.692 450.752,87.9763 452.826,87.9763 454.901,87.9763 456.975,149.692 459.049,149.692 461.123,87.9763 463.198,149.692 465.272,87.9763 467.346,87.9763 469.42,87.9763 471.494,149.692 473.569,87.9763 475.643,87.9763 477.717,87.9763 479.791,87.9763 481.866,87.9763 483.94,273.123 486.014,149.692 488.088,87.9763 490.162,149.692 492.237,87.9763 494.311,149.692 496.385,87.9763 498.459,87.9763 500.534,87.9763 502.608,149.692 504.682,211.407 506.756,87.9763 508.83,87.9763 510.905,87.9763 512.979,87.9763 515.053,87.9763 517.127,211.407 519.202,87.9763 521.276,87.9763 523.35,149.692 525.424,149.692 527.499,87.9763 529.573,149.692 531.647,87.9763 533.721,149.692 535.795,149.692 537.87,149.692 539.944,149.692 542.018,87.9763 544.092,87.9763 546.167,149.692 548.241,87.9763 550.315,87.9763 552.389,211.407 554.463,87.9763 556.538,87.9763 558.612,87.9763 560.686,87.9763 562.76,87.9763 564.835,149.692 566.909,87.9763 568.983,87.9763 571.057,87.9763 573.132,87.9763 575.206,87.9763 577.28,211.407 579.354,87.9763 581.428,211.407 583.503,87.9763 585.577,149.692 587.651,87.9763 589.725,87.9763 591.8,87.9763 593.874,149.692 595.948,87.9763 598.022,87.9763 600.096,87.9763 602.171,149.692 604.245,149.692 606.319,87.9763 608.393,87.9763 610.468,87.9763 612.542,149.692 614.616,87.9763 616.69,87.9763 618.765,149.692 620.839,211.407 622.913,149.692 624.987,87.9763 627.061,87.9763 629.136,87.9763 631.21,87.9763 633.284,87.9763 635.358,87.9763 637.433,87.9763 639.507,149.692 641.581,87.9763 643.655,87.9763 645.729,87.9763 647.804,87.9763 649.878,87.9763 651.952,87.9763 654.026,87.9763 656.101,87.9763 658.175,149.692 660.249,87.9763 662.323,87.9763 664.398,87.9763 666.472,87.9763 668.546,87.9763 670.62,87.9763 672.694,87.9763 674.769,87.9763 676.843,87.9763 678.917,87.9763 680.991,87.9763 683.066,87.9763 685.14,87.9763 687.214,87.9763 689.288,87.9763 691.362,87.9763 693.437,87.9763 695.511,87.9763 697.585,149.692 699.659,87.9763 701.734,87.9763 703.808,149.692 705.882,87.9763 707.956,87.9763 710.03,87.9763 712.105,87.9763 714.179,211.407 716.253,87.9763 718.327,87.9763 720.402,87.9763 722.476,149.692 724.55,87.9763 726.624,149.692 728.699,87.9763 730.773,87.9763 732.847,87.9763 734.921,87.9763 736.995,87.9763 739.07,87.9763 741.144,87.9763 743.218,87.9763 745.292,149.692 747.367,87.9763 749.441,87.9763 751.515,87.9763 753.589,149.692 755.663,87.9763 757.738,87.9763 759.812,87.9763 761.886,87.9763 763.96,87.9763 766.035,87.9763 768.109,87.9763 770.183,87.9763 772.257,211.407 774.332,87.9763 776.406,87.9763 778.48,87.9763 780.554,87.9763 782.628,87.9763 784.703,87.9763 786.777,87.9763 788.851,87.9763 790.925,149.692 793,87.9763 795.074,87.9763 797.148,87.9763 799.222,87.9763 801.296,87.9763 803.371,87.9763 805.445,87.9763 807.519,87.9763 809.593,87.9763 811.668,87.9763 813.742,87.9763 815.816,87.9763 817.89,87.9763 819.965,87.9763 822.039,87.9763 824.113,149.692 826.187,87.9763 828.261,87.9763 830.336,87.9763 832.41,87.9763 834.484,87.9763 836.558,149.692 838.633,149.692 840.707,87.9763 842.781,87.9763 844.855,87.9763 846.929,87.9763 849.004,87.9763 851.078,87.9763 853.152,87.9763 855.226,87.9763 857.301,87.9763 859.375,87.9763 861.449,87.9763 863.523,149.692 865.598,87.9763 867.672,87.9763 869.746,87.9763 871.82,87.9763 873.894,87.9763 875.969,149.692 878.043,87.9763 880.117,87.9763 882.191,87.9763 884.266,87.9763 886.34,87.9763 888.414,87.9763 890.488,149.692 892.562,87.9763 894.637,87.9763 896.711,87.9763 898.785,87.9763 900.859,149.692 902.934,87.9763 905.008,87.9763 907.082,87.9763 909.156,87.9763 911.23,149.692 913.305,87.9763 915.379,87.9763 917.453,87.9763 919.527,87.9763 921.602,87.9763 923.676,87.9763 925.75,87.9763 927.824,87.9763 929.899,149.692 931.973,87.9763 934.047,87.9763 936.121,87.9763 938.195,149.692 940.27,87.9763 942.344,87.9763 944.418,87.9763 946.492,87.9763 948.567,149.692 950.641,87.9763 952.715,87.9763 954.789,87.9763 956.863,87.9763 958.938,87.9763 961.012,87.9763 963.086,87.9763 965.16,87.9763 967.235,87.9763 969.309,87.9763 971.383,149.692 973.457,87.9763 975.532,87.9763 977.606,87.9763 979.68,87.9763 981.754,87.9763 983.828,87.9763 985.903,87.9763 987.977,87.9763 990.051,87.9763 992.125,149.692 994.2,87.9763 996.274,87.9763 998.348,87.9763 1000.42,87.9763 1002.5,87.9763 1004.57,87.9763 1006.64,87.9763 1008.72,87.9763 1010.79,87.9763 1012.87,87.9763 1014.94,87.9763 1017.02,87.9763 1019.09,87.9763 1021.16,87.9763 1023.24,87.9763 1025.31,87.9763 1027.39,87.9763 1029.46,87.9763 1031.54,87.9763 1033.61,87.9763 1035.68,87.9763 1037.76,87.9763 1039.83,87.9763 1041.91,87.9763 1043.98,87.9763 1046.06,87.9763 1048.13,87.9763 1050.2,87.9763 1052.28,87.9763 1054.35,87.9763 1056.43,87.9763 1058.5,87.9763 1060.57,87.9763 1062.65,149.692 1064.72,87.9763 1066.8,87.9763 1068.87,87.9763 1070.95,149.692 1073.02,87.9763 1075.09,87.9763 1077.17,87.9763 1079.24,149.692 1081.32,87.9763 1083.39,87.9763 1085.47,87.9763 1087.54,87.9763 1089.61,87.9763 1091.69,87.9763 1093.76,87.9763 1095.84,87.9763 1097.91,87.9763 1099.99,87.9763 1102.06,87.9763 1104.13,87.9763 1106.21,87.9763 1108.28,87.9763 1110.36,87.9763 1112.43,149.692 1114.5,87.9763 1116.58,87.9763 1118.65,87.9763 1120.73,87.9763 1122.8,87.9763 1124.88,87.9763 1126.95,87.9763 1129.02,87.9763 1131.1,149.692 1133.17,87.9763 1135.25,87.9763 1137.32,87.9763 1139.4,87.9763 1141.47,87.9763 1143.54,87.9763 1145.62,87.9763 1147.69,87.9763 1149.77,87.9763 1151.84,87.9763 1153.92,87.9763 1155.99,87.9763 1158.06,87.9763 1160.14,87.9763 1162.21,87.9763 1164.29,87.9763 1166.36,87.9763 1168.43,87.9763 1170.51,87.9763 1172.58,87.9763 1174.66,87.9763 1176.73,87.9763 1178.81,87.9763 1180.88,87.9763 1182.95,87.9763 1185.03,87.9763 1187.1,87.9763 1189.18,149.692 1191.25,87.9763 1193.33,87.9763 1195.4,149.692 1197.47,87.9763 1199.55,87.9763 1201.62,87.9763 1203.7,87.9763 1205.77,149.692 1207.84,87.9763 1209.92,87.9763 1211.99,87.9763 1214.07,87.9763 1216.14,87.9763 1218.22,87.9763 1220.29,87.9763 1222.36,87.9763 1224.44,87.9763 1226.51,87.9763 1228.59,87.9763 1230.66,87.9763 1232.74,87.9763 1234.81,87.9763 1236.88,87.9763 1238.96,87.9763 1241.03,87.9763 1243.11,87.9763 1245.18,149.692 1247.26,87.9763 1249.33,87.9763 1251.4,87.9763 1253.48,87.9763 1255.55,87.9763 1257.63,87.9763 1259.7,87.9763 1261.77,87.9763 1263.85,149.692 1265.92,87.9763 1268,87.9763 1270.07,87.9763 1272.15,87.9763 1274.22,87.9763 1276.29,87.9763 1278.37,87.9763 1280.44,149.692 1282.52,87.9763 1284.59,87.9763 1286.67,149.692 1288.74,87.9763 1290.81,87.9763 1292.89,87.9763 1294.96,87.9763 1297.04,87.9763 1299.11,87.9763 1301.19,87.9763 1303.26,87.9763 1305.33,149.692 1307.41,87.9763 1309.48,87.9763 1311.56,87.9763 1313.63,87.9763 1315.7,87.9763 1317.78,87.9763 1319.85,87.9763 1321.93,87.9763 1324,87.9763 1326.08,87.9763 1328.15,87.9763 1330.22,149.692 1332.3,87.9763 1334.37,87.9763 1336.45,87.9763 1338.52,87.9763 1340.6,149.692 1342.67,149.692 1344.74,87.9763 1346.82,87.9763 1348.89,87.9763 1350.97,87.9763 1353.04,87.9763 1355.12,149.692 1357.19,87.9763 1359.26,87.9763 1361.34,87.9763 1363.41,87.9763 1365.49,87.9763 1367.56,87.9763 1369.63,87.9763 1371.71,87.9763 1373.78,87.9763 1375.86,87.9763 1377.93,87.9763 1380.01,149.692 1382.08,87.9763 1384.15,87.9763 1386.23,87.9763 1388.3,87.9763 1390.38,87.9763 1392.45,87.9763 1394.53,87.9763 1396.6,87.9763 1398.67,87.9763 1400.75,87.9763 1402.82,87.9763 1404.9,87.9763 1406.97,87.9763 1409.04,87.9763 1411.12,87.9763 1413.19,149.692 1415.27,87.9763 1417.34,87.9763 1419.42,87.9763 1421.49,87.9763 1423.56,87.9763 1425.64,87.9763 1427.71,87.9763 1429.79,87.9763 1431.86,87.9763 1433.94,87.9763 1436.01,87.9763 1438.08,87.9763 1440.16,87.9763 1442.23,87.9763 1444.31,87.9763 1446.38,87.9763 1448.46,87.9763 1450.53,149.692 1452.6,87.9763 1454.68,87.9763 1456.75,87.9763 1458.83,87.9763 1460.9,87.9763 1462.97,87.9763 1465.05,87.9763 1467.12,87.9763 1469.2,149.692 1471.27,87.9763 1473.35,87.9763 1475.42,149.692 1477.49,87.9763 1479.57,87.9763 1481.64,87.9763 1483.72,87.9763 1485.79,87.9763 1487.87,87.9763 1489.94,87.9763 1492.01,87.9763 1494.09,87.9763 1496.16,87.9763 1498.24,149.692 1500.31,87.9763 1502.39,87.9763 1504.46,87.9763 1506.53,87.9763 1508.61,87.9763 1510.68,87.9763 1512.76,87.9763 1514.83,87.9763 1516.9,87.9763 1518.98,87.9763 1521.05,87.9763 1523.13,87.9763 1525.2,87.9763 1527.28,87.9763 1529.35,87.9763 1531.42,87.9763 1533.5,87.9763 1535.57,87.9763 1537.65,87.9763 1539.72,87.9763 1541.8,87.9763 1543.87,87.9763 1545.94,87.9763 1548.02,87.9763 1550.09,87.9763 1552.17,87.9763 1554.24,87.9763 1556.32,87.9763 1558.39,87.9763 1560.46,87.9763 1562.54,87.9763 1564.61,87.9763 1566.69,87.9763 1568.76,87.9763 1570.83,87.9763 1572.91,87.9763 1574.98,87.9763 1577.06,149.692 1579.13,87.9763 1581.21,87.9763 1583.28,87.9763 1585.35,87.9763 1587.43,87.9763 1589.5,87.9763 1591.58,87.9763 1593.65,87.9763 1595.73,87.9763 1597.8,87.9763 1599.87,87.9763 1601.95,87.9763 1604.02,87.9763 1606.1,87.9763 1608.17,87.9763 1610.24,87.9763 1612.32,87.9763 1614.39,149.692 1616.47,87.9763 1618.54,87.9763 1620.62,87.9763 1622.69,87.9763 1624.76,87.9763 1626.84,87.9763 1628.91,87.9763 1630.99,87.9763 1633.06,149.692 1635.14,87.9763 1637.21,87.9763 1639.28,87.9763 1641.36,87.9763 1643.43,149.692 1645.51,87.9763 1647.58,87.9763 1649.66,87.9763 1651.73,149.692 1653.8,87.9763 1655.88,87.9763 1657.95,87.9763 1660.03,87.9763 1662.1,87.9763 1664.17,87.9763 1666.25,87.9763 1668.32,87.9763 1670.4,87.9763 1672.47,87.9763 1674.55,87.9763 1676.62,149.692 1678.69,87.9763 1680.77,87.9763 1682.84,87.9763 1684.92,87.9763 1686.99,87.9763 1689.07,87.9763 1691.14,87.9763 1693.21,87.9763 1695.29,87.9763 1697.36,87.9763 1699.44,87.9763 1701.51,87.9763 1703.59,87.9763 1705.66,87.9763 1707.73,87.9763 1709.81,87.9763 1711.88,149.692 1713.96,87.9763 1716.03,87.9763 1718.1,87.9763 1720.18,87.9763 1722.25,87.9763 1724.33,87.9763 1726.4,87.9763 1728.48,87.9763 1730.55,87.9763 1732.62,87.9763 1734.7,87.9763 1736.77,87.9763 1738.85,87.9763 1740.92,87.9763 1743,87.9763 1745.07,87.9763 1747.14,87.9763 1749.22,87.9763 1751.29,87.9763 1753.37,87.9763 1755.44,87.9763 1757.52,87.9763 1759.59,87.9763 1761.66,87.9763 1763.74,87.9763 1765.81,87.9763 1767.89,87.9763 1769.96,87.9763 1772.03,87.9763 1774.11,87.9763 1776.18,87.9763 1778.26,87.9763 1780.33,87.9763 1782.41,87.9763 1784.48,87.9763 1786.55,87.9763 1788.63,87.9763 1790.7,87.9763 1792.78,87.9763 1794.85,87.9763 1796.93,87.9763 1799,149.692 1801.07,87.9763 1803.15,87.9763 1805.22,87.9763 1807.3,87.9763 1809.37,149.692 1811.44,87.9763 1813.52,87.9763 1815.59,87.9763 1817.67,87.9763 1819.74,87.9763 1821.82,87.9763 1823.89,87.9763 1825.96,87.9763 1828.04,87.9763 1830.11,87.9763 1832.19,87.9763 1834.26,87.9763 1836.34,87.9763 1838.41,87.9763 1840.48,87.9763 1842.56,87.9763 1844.63,87.9763 1846.71,87.9763 1848.78,87.9763 1850.86,87.9763 1852.93,87.9763 1855,87.9763 1857.08,87.9763 1859.15,87.9763 1861.23,87.9763 1863.3,87.9763 1865.37,149.692 1867.45,87.9763 1869.52,87.9763 1871.6,87.9763 1873.67,87.9763 1875.75,87.9763 1877.82,87.9763 1879.89,87.9763 1881.97,87.9763 1884.04,87.9763 1886.12,87.9763 1888.19,87.9763 1890.27,87.9763 1892.34,87.9763 1894.41,87.9763 1896.49,87.9763 1898.56,87.9763 1900.64,87.9763 1902.71,87.9763 1904.79,87.9763 1906.86,87.9763 1908.93,87.9763 1911.01,87.9763 1913.08,149.692 1915.16,87.9763 1917.23,87.9763 1919.3,87.9763 1921.38,87.9763 1923.45,87.9763 1925.53,87.9763 1927.6,87.9763 1929.68,87.9763 1931.75,87.9763 1933.82,87.9763 1935.9,149.692 1937.97,149.692 1940.05,87.9763 1942.12,87.9763 1944.2,87.9763 1946.27,87.9763 1948.34,149.692 1950.42,87.9763 1952.49,87.9763 1954.57,87.9763 1956.64,87.9763 1958.72,87.9763 1960.79,87.9763 1962.86,87.9763 1964.94,87.9763 1967.01,87.9763 1969.09,87.9763 1971.16,87.9763 1973.23,87.9763 1975.31,87.9763 1977.38,87.9763 1979.46,87.9763 1981.53,87.9763 1983.61,87.9763 1985.68,87.9763 1987.75,87.9763 1989.83,87.9763 1991.9,87.9763 1993.98,87.9763 1996.05,87.9763 1998.13,87.9763 2000.2,87.9763 2002.27,87.9763 2004.35,149.692 2006.42,149.692 2008.5,87.9763 2010.57,87.9763 2012.64,87.9763 2014.72,87.9763 2016.79,87.9763 2018.87,87.9763 2020.94,87.9763 2023.02,87.9763 2025.09,87.9763 2027.16,87.9763 2029.24,87.9763 2031.31,87.9763 2033.39,87.9763 2035.46,87.9763 2037.54,87.9763 2039.61,87.9763 2041.68,87.9763 2043.76,87.9763 2045.83,87.9763 2047.91,87.9763 2049.98,87.9763 2052.06,87.9763 2054.13,149.692 2056.2,87.9763 2058.28,87.9763 2060.35,87.9763 2062.43,87.9763 2064.5,87.9763 2066.57,87.9763 2068.65,149.692 2070.72,87.9763 2072.8,149.692 2074.87,87.9763 2076.95,87.9763 2079.02,87.9763 2081.09,87.9763 2083.17,87.9763 2085.24,87.9763 2087.32,87.9763 2089.39,87.9763 2091.47,87.9763 2093.54,87.9763 2095.61,87.9763 2097.69,87.9763 2099.76,87.9763 2101.84,87.9763 2103.91,87.9763 2105.99,149.692 2108.06,87.9763 2110.13,87.9763 2112.21,87.9763 2114.28,87.9763 2116.36,87.9763 2118.43,87.9763 2120.5,87.9763 2122.58,87.9763 2124.65,87.9763 2126.73,149.692 2128.8,87.9763 2130.88,87.9763 2132.95,87.9763 2135.02,87.9763 2137.1,87.9763 2139.17,87.9763 2141.25,87.9763 2143.32,87.9763 2145.4,87.9763 2147.47,87.9763 2149.54,87.9763 2151.62,87.9763 2153.69,87.9763 2155.77,87.9763 2157.84,87.9763 2159.92,87.9763 2161.99,87.9763 2164.06,87.9763 2166.14,87.9763 2168.21,87.9763 2170.29,87.9763 2172.36,87.9763 2174.43,87.9763 2176.51,87.9763 2178.58,87.9763 2180.66,87.9763 2182.73,87.9763 2184.81,87.9763 2186.88,87.9763 2188.95,87.9763 2191.03,87.9763 2193.1,87.9763 2195.18,87.9763 2197.25,87.9763 2199.33,87.9763 2201.4,87.9763 2203.47,87.9763 2205.55,87.9763 2207.62,87.9763 2209.7,87.9763 2211.77,87.9763 2213.84,87.9763 2215.92,87.9763 2217.99,87.9763 2220.07,87.9763 2222.14,87.9763 2224.22,87.9763 2226.29,87.9763 2228.36,87.9763 2230.44,87.9763 2232.51,87.9763 2234.59,87.9763 2236.66,87.9763 2238.74,87.9763 2240.81,87.9763 2242.88,87.9763 2244.96,87.9763 2247.03,87.9763 2249.11,87.9763 2251.18,87.9763 2253.26,149.692 2255.33,87.9763 2257.4,87.9763 2259.48,87.9763 2261.55,87.9763 2263.63,87.9763 2265.7,87.9763 2267.77,87.9763 2269.85,87.9763 2271.92,87.9763 2274,87.9763 2276.07,87.9763 2278.15,87.9763 2280.22,87.9763 2282.29,87.9763 2284.37,87.9763 2286.44,87.9763 2288.52,87.9763 2290.59,149.692 "/>
<path clip-path="url(#clip900)" d="M2007.46 1438.47 L2279.54 1438.47 L2279.54 1334.79 L2007.46 1334.79  Z" fill="#ffffff" fill-rule="evenodd" fill-opacity="1"/>
<polyline clip-path="url(#clip900)" style="stroke:#000000; stroke-linecap:round; stroke-linejoin:round; stroke-width:4; stroke-opacity:1; fill:none" points="2007.46,1438.47 2279.54,1438.47 2279.54,1334.79 2007.46,1334.79 2007.46,1438.47 "/>
<polyline clip-path="url(#clip900)" style="stroke:#009af9; stroke-linecap:round; stroke-linejoin:round; stroke-width:4; stroke-opacity:1; fill:none" points="2031.87,1386.63 2178.3,1386.63 "/>
<path clip-path="url(#clip900)" d="M2216.55 1406.32 Q2214.74 1410.95 2213.03 1412.36 Q2211.32 1413.78 2208.44 1413.78 L2205.04 1413.78 L2205.04 1410.21 L2207.54 1410.21 Q2209.3 1410.21 2210.27 1409.38 Q2211.25 1408.54 2212.43 1405.44 L2213.19 1403.5 L2202.7 1377.99 L2207.22 1377.99 L2215.32 1398.27 L2223.42 1377.99 L2227.94 1377.99 L2216.55 1406.32 Z" fill="#000000" fill-rule="nonzero" fill-opacity="1" /><path clip-path="url(#clip900)" d="M2235.23 1399.98 L2242.87 1399.98 L2242.87 1373.61 L2234.56 1375.28 L2234.56 1371.02 L2242.82 1369.35 L2247.5 1369.35 L2247.5 1399.98 L2255.13 1399.98 L2255.13 1403.91 L2235.23 1403.91 L2235.23 1399.98 Z" fill="#000000" fill-rule="nonzero" fill-opacity="1" /></svg>
