<?xml version="1.0" encoding="utf-8"?>
<svg xmlns="http://www.w3.org/2000/svg" xmlns:xlink="http://www.w3.org/1999/xlink" width="600" height="400" viewBox="0 0 2400 1600">
<defs>
  <clipPath id="clip840">
    <rect x="0" y="0" width="2400" height="1600"/>
  </clipPath>
</defs>
<path clip-path="url(#clip840)" d="M0 1600 L2400 1600 L2400 0 L0 0  Z" fill="#ffffff" fill-rule="evenodd" fill-opacity="1"/>
<defs>
  <clipPath id="clip841">
    <rect x="480" y="0" width="1681" height="1600"/>
  </clipPath>
</defs>
<path clip-path="url(#clip840)" d="M169.121 1486.45 L2352.76 1486.45 L2352.76 47.2441 L169.121 47.2441  Z" fill="#ffffff" fill-rule="evenodd" fill-opacity="1"/>
<defs>
  <clipPath id="clip842">
    <rect x="169" y="47" width="2185" height="1440"/>
  </clipPath>
</defs>
<polyline clip-path="url(#clip842)" style="stroke:#000000; stroke-linecap:round; stroke-linejoin:round; stroke-width:2; stroke-opacity:0.1; fill:none" points="230.922,1486.45 230.922,47.2441 "/>
<polyline clip-path="url(#clip842)" style="stroke:#000000; stroke-linecap:round; stroke-linejoin:round; stroke-width:2; stroke-opacity:0.1; fill:none" points="745.93,1486.45 745.93,47.2441 "/>
<polyline clip-path="url(#clip842)" style="stroke:#000000; stroke-linecap:round; stroke-linejoin:round; stroke-width:2; stroke-opacity:0.1; fill:none" points="1260.94,1486.45 1260.94,47.2441 "/>
<polyline clip-path="url(#clip842)" style="stroke:#000000; stroke-linecap:round; stroke-linejoin:round; stroke-width:2; stroke-opacity:0.1; fill:none" points="1775.95,1486.45 1775.95,47.2441 "/>
<polyline clip-path="url(#clip842)" style="stroke:#000000; stroke-linecap:round; stroke-linejoin:round; stroke-width:2; stroke-opacity:0.1; fill:none" points="2290.95,1486.45 2290.95,47.2441 "/>
<polyline clip-path="url(#clip840)" style="stroke:#000000; stroke-linecap:round; stroke-linejoin:round; stroke-width:4; stroke-opacity:1; fill:none" points="169.121,1486.45 2352.76,1486.45 "/>
<polyline clip-path="url(#clip840)" style="stroke:#000000; stroke-linecap:round; stroke-linejoin:round; stroke-width:4; stroke-opacity:1; fill:none" points="230.922,1486.45 230.922,1467.55 "/>
<polyline clip-path="url(#clip840)" style="stroke:#000000; stroke-linecap:round; stroke-linejoin:round; stroke-width:4; stroke-opacity:1; fill:none" points="745.93,1486.45 745.93,1467.55 "/>
<polyline clip-path="url(#clip840)" style="stroke:#000000; stroke-linecap:round; stroke-linejoin:round; stroke-width:4; stroke-opacity:1; fill:none" points="1260.94,1486.45 1260.94,1467.55 "/>
<polyline clip-path="url(#clip840)" style="stroke:#000000; stroke-linecap:round; stroke-linejoin:round; stroke-width:4; stroke-opacity:1; fill:none" points="1775.95,1486.45 1775.95,1467.55 "/>
<polyline clip-path="url(#clip840)" style="stroke:#000000; stroke-linecap:round; stroke-linejoin:round; stroke-width:4; stroke-opacity:1; fill:none" points="2290.95,1486.45 2290.95,1467.55 "/>
<path clip-path="url(#clip840)" d="M230.922 1517.37 Q227.311 1517.37 225.483 1520.93 Q223.677 1524.47 223.677 1531.6 Q223.677 1538.71 225.483 1542.27 Q227.311 1545.82 230.922 1545.82 Q234.557 1545.82 236.362 1542.27 Q238.191 1538.71 238.191 1531.6 Q238.191 1524.47 236.362 1520.93 Q234.557 1517.37 230.922 1517.37 M230.922 1513.66 Q236.732 1513.66 239.788 1518.27 Q242.867 1522.85 242.867 1531.6 Q242.867 1540.33 239.788 1544.94 Q236.732 1549.52 230.922 1549.52 Q225.112 1549.52 222.033 1544.94 Q218.978 1540.33 218.978 1531.6 Q218.978 1522.85 222.033 1518.27 Q225.112 1513.66 230.922 1513.66 Z" fill="#000000" fill-rule="nonzero" fill-opacity="1" /><path clip-path="url(#clip840)" d="M705.549 1514.29 L723.905 1514.29 L723.905 1518.22 L709.831 1518.22 L709.831 1526.7 Q710.85 1526.35 711.868 1526.19 Q712.887 1526 713.905 1526 Q719.692 1526 723.072 1529.17 Q726.451 1532.34 726.451 1537.76 Q726.451 1543.34 722.979 1546.44 Q719.507 1549.52 713.188 1549.52 Q711.012 1549.52 708.743 1549.15 Q706.498 1548.78 704.09 1548.04 L704.09 1543.34 Q706.174 1544.47 708.396 1545.03 Q710.618 1545.58 713.095 1545.58 Q717.1 1545.58 719.438 1543.48 Q721.775 1541.37 721.775 1537.76 Q721.775 1534.15 719.438 1532.04 Q717.1 1529.94 713.095 1529.94 Q711.22 1529.94 709.345 1530.35 Q707.493 1530.77 705.549 1531.65 L705.549 1514.29 Z" fill="#000000" fill-rule="nonzero" fill-opacity="1" /><path clip-path="url(#clip840)" d="M745.664 1517.37 Q742.053 1517.37 740.224 1520.93 Q738.419 1524.47 738.419 1531.6 Q738.419 1538.71 740.224 1542.27 Q742.053 1545.82 745.664 1545.82 Q749.298 1545.82 751.104 1542.27 Q752.933 1538.71 752.933 1531.6 Q752.933 1524.47 751.104 1520.93 Q749.298 1517.37 745.664 1517.37 M745.664 1513.66 Q751.474 1513.66 754.53 1518.27 Q757.609 1522.85 757.609 1531.6 Q757.609 1540.33 754.53 1544.94 Q751.474 1549.52 745.664 1549.52 Q739.854 1549.52 736.775 1544.94 Q733.72 1540.33 733.72 1531.6 Q733.72 1522.85 736.775 1518.27 Q739.854 1513.66 745.664 1513.66 Z" fill="#000000" fill-rule="nonzero" fill-opacity="1" /><path clip-path="url(#clip840)" d="M775.826 1517.37 Q772.215 1517.37 770.386 1520.93 Q768.581 1524.47 768.581 1531.6 Q768.581 1538.71 770.386 1542.27 Q772.215 1545.82 775.826 1545.82 Q779.46 1545.82 781.266 1542.27 Q783.095 1538.71 783.095 1531.6 Q783.095 1524.47 781.266 1520.93 Q779.46 1517.37 775.826 1517.37 M775.826 1513.66 Q781.636 1513.66 784.692 1518.27 Q787.771 1522.85 787.771 1531.6 Q787.771 1540.33 784.692 1544.94 Q781.636 1549.52 775.826 1549.52 Q770.016 1549.52 766.937 1544.94 Q763.882 1540.33 763.882 1531.6 Q763.882 1522.85 766.937 1518.27 Q770.016 1513.66 775.826 1513.66 Z" fill="#000000" fill-rule="nonzero" fill-opacity="1" /><path clip-path="url(#clip840)" d="M1205.46 1544.91 L1213.1 1544.91 L1213.1 1518.55 L1204.79 1520.21 L1204.79 1515.95 L1213.06 1514.29 L1217.73 1514.29 L1217.73 1544.91 L1225.37 1544.91 L1225.37 1548.85 L1205.46 1548.85 L1205.46 1544.91 Z" fill="#000000" fill-rule="nonzero" fill-opacity="1" /><path clip-path="url(#clip840)" d="M1244.82 1517.37 Q1241.2 1517.37 1239.38 1520.93 Q1237.57 1524.47 1237.57 1531.6 Q1237.57 1538.71 1239.38 1542.27 Q1241.2 1545.82 1244.82 1545.82 Q1248.45 1545.82 1250.26 1542.27 Q1252.08 1538.71 1252.08 1531.6 Q1252.08 1524.47 1250.26 1520.93 Q1248.45 1517.37 1244.82 1517.37 M1244.82 1513.66 Q1250.63 1513.66 1253.68 1518.27 Q1256.76 1522.85 1256.76 1531.6 Q1256.76 1540.33 1253.68 1544.94 Q1250.63 1549.52 1244.82 1549.52 Q1239.01 1549.52 1235.93 1544.94 Q1232.87 1540.33 1232.87 1531.6 Q1232.87 1522.85 1235.93 1518.27 Q1239.01 1513.66 1244.82 1513.66 Z" fill="#000000" fill-rule="nonzero" fill-opacity="1" /><path clip-path="url(#clip840)" d="M1274.98 1517.37 Q1271.37 1517.37 1269.54 1520.93 Q1267.73 1524.47 1267.73 1531.6 Q1267.73 1538.71 1269.54 1542.27 Q1271.37 1545.82 1274.98 1545.82 Q1278.61 1545.82 1280.42 1542.27 Q1282.25 1538.71 1282.25 1531.6 Q1282.25 1524.47 1280.42 1520.93 Q1278.61 1517.37 1274.98 1517.37 M1274.98 1513.66 Q1280.79 1513.66 1283.84 1518.27 Q1286.92 1522.85 1286.92 1531.6 Q1286.92 1540.33 1283.84 1544.94 Q1280.79 1549.52 1274.98 1549.52 Q1269.17 1549.52 1266.09 1544.94 Q1263.03 1540.33 1263.03 1531.6 Q1263.03 1522.85 1266.09 1518.27 Q1269.17 1513.66 1274.98 1513.66 Z" fill="#000000" fill-rule="nonzero" fill-opacity="1" /><path clip-path="url(#clip840)" d="M1305.14 1517.37 Q1301.53 1517.37 1299.7 1520.93 Q1297.89 1524.47 1297.89 1531.6 Q1297.89 1538.71 1299.7 1542.27 Q1301.53 1545.82 1305.14 1545.82 Q1308.77 1545.82 1310.58 1542.27 Q1312.41 1538.71 1312.41 1531.6 Q1312.41 1524.47 1310.58 1520.93 Q1308.77 1517.37 1305.14 1517.37 M1305.14 1513.66 Q1310.95 1513.66 1314.01 1518.27 Q1317.08 1522.85 1317.08 1531.6 Q1317.08 1540.33 1314.01 1544.94 Q1310.95 1549.52 1305.14 1549.52 Q1299.33 1549.52 1296.25 1544.94 Q1293.2 1540.33 1293.2 1531.6 Q1293.2 1522.85 1296.25 1518.27 Q1299.33 1513.66 1305.14 1513.66 Z" fill="#000000" fill-rule="nonzero" fill-opacity="1" /><path clip-path="url(#clip840)" d="M1720.47 1544.91 L1728.11 1544.91 L1728.11 1518.55 L1719.8 1520.21 L1719.8 1515.95 L1728.07 1514.29 L1732.74 1514.29 L1732.74 1544.91 L1740.38 1544.91 L1740.38 1548.85 L1720.47 1548.85 L1720.47 1544.91 Z" fill="#000000" fill-rule="nonzero" fill-opacity="1" /><path clip-path="url(#clip840)" d="M1749.87 1514.29 L1768.23 1514.29 L1768.23 1518.22 L1754.15 1518.22 L1754.15 1526.7 Q1755.17 1526.35 1756.19 1526.19 Q1757.21 1526 1758.23 1526 Q1764.01 1526 1767.39 1529.17 Q1770.77 1532.34 1770.77 1537.76 Q1770.77 1543.34 1767.3 1546.44 Q1763.83 1549.52 1757.51 1549.52 Q1755.33 1549.52 1753.06 1549.15 Q1750.82 1548.78 1748.41 1548.04 L1748.41 1543.34 Q1750.5 1544.47 1752.72 1545.03 Q1754.94 1545.58 1757.42 1545.58 Q1761.42 1545.58 1763.76 1543.48 Q1766.1 1541.37 1766.1 1537.76 Q1766.1 1534.15 1763.76 1532.04 Q1761.42 1529.94 1757.42 1529.94 Q1755.54 1529.94 1753.67 1530.35 Q1751.81 1530.77 1749.87 1531.65 L1749.87 1514.29 Z" fill="#000000" fill-rule="nonzero" fill-opacity="1" /><path clip-path="url(#clip840)" d="M1789.99 1517.37 Q1786.37 1517.37 1784.55 1520.93 Q1782.74 1524.47 1782.74 1531.6 Q1782.74 1538.71 1784.55 1542.27 Q1786.37 1545.82 1789.99 1545.82 Q1793.62 1545.82 1795.43 1542.27 Q1797.25 1538.71 1797.25 1531.6 Q1797.25 1524.47 1795.43 1520.93 Q1793.62 1517.37 1789.99 1517.37 M1789.99 1513.66 Q1795.8 1513.66 1798.85 1518.27 Q1801.93 1522.85 1801.93 1531.6 Q1801.93 1540.33 1798.85 1544.94 Q1795.8 1549.52 1789.99 1549.52 Q1784.18 1549.52 1781.1 1544.94 Q1778.04 1540.33 1778.04 1531.6 Q1778.04 1522.85 1781.1 1518.27 Q1784.18 1513.66 1789.99 1513.66 Z" fill="#000000" fill-rule="nonzero" fill-opacity="1" /><path clip-path="url(#clip840)" d="M1820.15 1517.37 Q1816.54 1517.37 1814.71 1520.93 Q1812.9 1524.47 1812.9 1531.6 Q1812.9 1538.71 1814.71 1542.27 Q1816.54 1545.82 1820.15 1545.82 Q1823.78 1545.82 1825.59 1542.27 Q1827.42 1538.71 1827.42 1531.6 Q1827.42 1524.47 1825.59 1520.93 Q1823.78 1517.37 1820.15 1517.37 M1820.15 1513.66 Q1825.96 1513.66 1829.01 1518.27 Q1832.09 1522.85 1832.09 1531.6 Q1832.09 1540.33 1829.01 1544.94 Q1825.96 1549.52 1820.15 1549.52 Q1814.34 1549.52 1811.26 1544.94 Q1808.2 1540.33 1808.2 1531.6 Q1808.2 1522.85 1811.26 1518.27 Q1814.34 1513.66 1820.15 1513.66 Z" fill="#000000" fill-rule="nonzero" fill-opacity="1" /><path clip-path="url(#clip840)" d="M2239.57 1544.91 L2255.89 1544.91 L2255.89 1548.85 L2233.94 1548.85 L2233.94 1544.91 Q2236.6 1542.16 2241.19 1537.53 Q2245.79 1532.88 2246.97 1531.53 Q2249.22 1529.01 2250.1 1527.27 Q2251 1525.51 2251 1523.82 Q2251 1521.07 2249.06 1519.33 Q2247.14 1517.6 2244.03 1517.6 Q2241.83 1517.6 2239.38 1518.36 Q2236.95 1519.13 2234.17 1520.68 L2234.17 1515.95 Q2237 1514.82 2239.45 1514.24 Q2241.9 1513.66 2243.94 1513.66 Q2249.31 1513.66 2252.51 1516.35 Q2255.7 1519.03 2255.7 1523.52 Q2255.7 1525.65 2254.89 1527.57 Q2254.1 1529.47 2252 1532.07 Q2251.42 1532.74 2248.32 1535.95 Q2245.21 1539.15 2239.57 1544.91 Z" fill="#000000" fill-rule="nonzero" fill-opacity="1" /><path clip-path="url(#clip840)" d="M2275.7 1517.37 Q2272.09 1517.37 2270.26 1520.93 Q2268.46 1524.47 2268.46 1531.6 Q2268.46 1538.71 2270.26 1542.27 Q2272.09 1545.82 2275.7 1545.82 Q2279.33 1545.82 2281.14 1542.27 Q2282.97 1538.71 2282.97 1531.6 Q2282.97 1524.47 2281.14 1520.93 Q2279.33 1517.37 2275.7 1517.37 M2275.7 1513.66 Q2281.51 1513.66 2284.57 1518.27 Q2287.64 1522.85 2287.64 1531.6 Q2287.64 1540.33 2284.57 1544.94 Q2281.51 1549.52 2275.7 1549.52 Q2269.89 1549.52 2266.81 1544.94 Q2263.76 1540.33 2263.76 1531.6 Q2263.76 1522.85 2266.81 1518.27 Q2269.89 1513.66 2275.7 1513.66 Z" fill="#000000" fill-rule="nonzero" fill-opacity="1" /><path clip-path="url(#clip840)" d="M2305.86 1517.37 Q2302.25 1517.37 2300.42 1520.93 Q2298.62 1524.47 2298.62 1531.6 Q2298.62 1538.71 2300.42 1542.27 Q2302.25 1545.82 2305.86 1545.82 Q2309.5 1545.82 2311.3 1542.27 Q2313.13 1538.71 2313.13 1531.6 Q2313.13 1524.47 2311.3 1520.93 Q2309.5 1517.37 2305.86 1517.37 M2305.86 1513.66 Q2311.67 1513.66 2314.73 1518.27 Q2317.81 1522.85 2317.81 1531.6 Q2317.81 1540.33 2314.73 1544.94 Q2311.67 1549.52 2305.86 1549.52 Q2300.05 1549.52 2296.97 1544.94 Q2293.92 1540.33 2293.92 1531.6 Q2293.92 1522.85 2296.97 1518.27 Q2300.05 1513.66 2305.86 1513.66 Z" fill="#000000" fill-rule="nonzero" fill-opacity="1" /><path clip-path="url(#clip840)" d="M2336.02 1517.37 Q2332.41 1517.37 2330.58 1520.93 Q2328.78 1524.47 2328.78 1531.6 Q2328.78 1538.71 2330.58 1542.27 Q2332.41 1545.82 2336.02 1545.82 Q2339.66 1545.82 2341.46 1542.27 Q2343.29 1538.71 2343.29 1531.6 Q2343.29 1524.47 2341.46 1520.93 Q2339.66 1517.37 2336.02 1517.37 M2336.02 1513.66 Q2341.83 1513.66 2344.89 1518.27 Q2347.97 1522.85 2347.97 1531.6 Q2347.97 1540.33 2344.89 1544.94 Q2341.83 1549.52 2336.02 1549.52 Q2330.21 1549.52 2327.14 1544.94 Q2324.08 1540.33 2324.08 1531.6 Q2324.08 1522.85 2327.14 1518.27 Q2330.21 1513.66 2336.02 1513.66 Z" fill="#000000" fill-rule="nonzero" fill-opacity="1" /><polyline clip-path="url(#clip842)" style="stroke:#000000; stroke-linecap:round; stroke-linejoin:round; stroke-width:2; stroke-opacity:0.1; fill:none" points="169.121,1311.54 2352.76,1311.54 "/>
<polyline clip-path="url(#clip842)" style="stroke:#000000; stroke-linecap:round; stroke-linejoin:round; stroke-width:2; stroke-opacity:0.1; fill:none" points="169.121,1130.33 2352.76,1130.33 "/>
<polyline clip-path="url(#clip842)" style="stroke:#000000; stroke-linecap:round; stroke-linejoin:round; stroke-width:2; stroke-opacity:0.1; fill:none" points="169.121,949.117 2352.76,949.117 "/>
<polyline clip-path="url(#clip842)" style="stroke:#000000; stroke-linecap:round; stroke-linejoin:round; stroke-width:2; stroke-opacity:0.1; fill:none" points="169.121,767.904 2352.76,767.904 "/>
<polyline clip-path="url(#clip842)" style="stroke:#000000; stroke-linecap:round; stroke-linejoin:round; stroke-width:2; stroke-opacity:0.1; fill:none" points="169.121,586.692 2352.76,586.692 "/>
<polyline clip-path="url(#clip842)" style="stroke:#000000; stroke-linecap:round; stroke-linejoin:round; stroke-width:2; stroke-opacity:0.1; fill:none" points="169.121,405.48 2352.76,405.48 "/>
<polyline clip-path="url(#clip842)" style="stroke:#000000; stroke-linecap:round; stroke-linejoin:round; stroke-width:2; stroke-opacity:0.1; fill:none" points="169.121,224.268 2352.76,224.268 "/>
<polyline clip-path="url(#clip840)" style="stroke:#000000; stroke-linecap:round; stroke-linejoin:round; stroke-width:4; stroke-opacity:1; fill:none" points="169.121,1486.45 169.121,47.2441 "/>
<polyline clip-path="url(#clip840)" style="stroke:#000000; stroke-linecap:round; stroke-linejoin:round; stroke-width:4; stroke-opacity:1; fill:none" points="169.121,1311.54 188.019,1311.54 "/>
<polyline clip-path="url(#clip840)" style="stroke:#000000; stroke-linecap:round; stroke-linejoin:round; stroke-width:4; stroke-opacity:1; fill:none" points="169.121,1130.33 188.019,1130.33 "/>
<polyline clip-path="url(#clip840)" style="stroke:#000000; stroke-linecap:round; stroke-linejoin:round; stroke-width:4; stroke-opacity:1; fill:none" points="169.121,949.117 188.019,949.117 "/>
<polyline clip-path="url(#clip840)" style="stroke:#000000; stroke-linecap:round; stroke-linejoin:round; stroke-width:4; stroke-opacity:1; fill:none" points="169.121,767.904 188.019,767.904 "/>
<polyline clip-path="url(#clip840)" style="stroke:#000000; stroke-linecap:round; stroke-linejoin:round; stroke-width:4; stroke-opacity:1; fill:none" points="169.121,586.692 188.019,586.692 "/>
<polyline clip-path="url(#clip840)" style="stroke:#000000; stroke-linecap:round; stroke-linejoin:round; stroke-width:4; stroke-opacity:1; fill:none" points="169.121,405.48 188.019,405.48 "/>
<polyline clip-path="url(#clip840)" style="stroke:#000000; stroke-linecap:round; stroke-linejoin:round; stroke-width:4; stroke-opacity:1; fill:none" points="169.121,224.268 188.019,224.268 "/>
<path clip-path="url(#clip840)" d="M86.0382 1324.89 L102.358 1324.89 L102.358 1328.82 L80.4133 1328.82 L80.4133 1324.89 Q83.0753 1322.13 87.6586 1317.5 Q92.2651 1312.85 93.4456 1311.51 Q95.691 1308.98 96.5706 1307.25 Q97.4734 1305.49 97.4734 1303.8 Q97.4734 1301.04 95.5289 1299.31 Q93.6076 1297.57 90.5058 1297.57 Q88.3067 1297.57 85.8531 1298.34 Q83.4225 1299.1 80.6447 1300.65 L80.6447 1295.93 Q83.4688 1294.79 85.9225 1294.21 Q88.3762 1293.64 90.4132 1293.64 Q95.7836 1293.64 98.978 1296.32 Q102.172 1299.01 102.172 1303.5 Q102.172 1305.63 101.362 1307.55 Q100.575 1309.45 98.4687 1312.04 Q97.89 1312.71 94.7882 1315.93 Q91.6864 1319.12 86.0382 1324.89 Z" fill="#000000" fill-rule="nonzero" fill-opacity="1" /><path clip-path="url(#clip840)" d="M112.219 1294.26 L130.575 1294.26 L130.575 1298.2 L116.501 1298.2 L116.501 1306.67 Q117.52 1306.32 118.538 1306.16 Q119.557 1305.97 120.575 1305.97 Q126.362 1305.97 129.742 1309.15 Q133.121 1312.32 133.121 1317.73 Q133.121 1323.31 129.649 1326.41 Q126.177 1329.49 119.857 1329.49 Q117.682 1329.49 115.413 1329.12 Q113.168 1328.75 110.76 1328.01 L110.76 1323.31 Q112.844 1324.45 115.066 1325 Q117.288 1325.56 119.765 1325.56 Q123.77 1325.56 126.107 1323.45 Q128.445 1321.34 128.445 1317.73 Q128.445 1314.12 126.107 1312.02 Q123.77 1309.91 119.765 1309.91 Q117.89 1309.91 116.015 1310.33 Q114.163 1310.74 112.219 1311.62 L112.219 1294.26 Z" fill="#000000" fill-rule="nonzero" fill-opacity="1" /><path clip-path="url(#clip840)" d="M81.0614 1113.05 L99.4178 1113.05 L99.4178 1116.98 L85.3438 1116.98 L85.3438 1125.46 Q86.3623 1125.11 87.3808 1124.95 Q88.3993 1124.76 89.4178 1124.76 Q95.2049 1124.76 98.5845 1127.93 Q101.964 1131.1 101.964 1136.52 Q101.964 1142.1 98.4919 1145.2 Q95.0197 1148.28 88.7003 1148.28 Q86.5243 1148.28 84.2558 1147.91 Q82.0105 1147.54 79.6031 1146.8 L79.6031 1142.1 Q81.6864 1143.23 83.9086 1143.79 Q86.1308 1144.35 88.6077 1144.35 Q92.6123 1144.35 94.9502 1142.24 Q97.2882 1140.13 97.2882 1136.52 Q97.2882 1132.91 94.9502 1130.8 Q92.6123 1128.7 88.6077 1128.7 Q86.7327 1128.7 84.8577 1129.11 Q83.0058 1129.53 81.0614 1130.41 L81.0614 1113.05 Z" fill="#000000" fill-rule="nonzero" fill-opacity="1" /><path clip-path="url(#clip840)" d="M121.177 1116.13 Q117.566 1116.13 115.737 1119.69 Q113.932 1123.23 113.932 1130.36 Q113.932 1137.47 115.737 1141.03 Q117.566 1144.58 121.177 1144.58 Q124.811 1144.58 126.617 1141.03 Q128.445 1137.47 128.445 1130.36 Q128.445 1123.23 126.617 1119.69 Q124.811 1116.13 121.177 1116.13 M121.177 1112.42 Q126.987 1112.42 130.043 1117.03 Q133.121 1121.61 133.121 1130.36 Q133.121 1139.09 130.043 1143.7 Q126.987 1148.28 121.177 1148.28 Q115.367 1148.28 112.288 1143.7 Q109.233 1139.09 109.233 1130.36 Q109.233 1121.61 112.288 1117.03 Q115.367 1112.42 121.177 1112.42 Z" fill="#000000" fill-rule="nonzero" fill-opacity="1" /><path clip-path="url(#clip840)" d="M80.8299 931.837 L103.052 931.837 L103.052 933.827 L90.5058 966.397 L85.6216 966.397 L97.4271 935.772 L80.8299 935.772 L80.8299 931.837 Z" fill="#000000" fill-rule="nonzero" fill-opacity="1" /><path clip-path="url(#clip840)" d="M112.219 931.837 L130.575 931.837 L130.575 935.772 L116.501 935.772 L116.501 944.244 Q117.52 943.897 118.538 943.735 Q119.557 943.55 120.575 943.55 Q126.362 943.55 129.742 946.721 Q133.121 949.892 133.121 955.309 Q133.121 960.887 129.649 963.989 Q126.177 967.068 119.857 967.068 Q117.682 967.068 115.413 966.698 Q113.168 966.327 110.76 965.586 L110.76 960.887 Q112.844 962.022 115.066 962.577 Q117.288 963.133 119.765 963.133 Q123.77 963.133 126.107 961.026 Q128.445 958.92 128.445 955.309 Q128.445 951.698 126.107 949.591 Q123.77 947.485 119.765 947.485 Q117.89 947.485 116.015 947.901 Q114.163 948.318 112.219 949.198 L112.219 931.837 Z" fill="#000000" fill-rule="nonzero" fill-opacity="1" /><path clip-path="url(#clip840)" d="M51.6634 781.249 L59.3023 781.249 L59.3023 754.884 L50.9921 756.55 L50.9921 752.291 L59.256 750.624 L63.9319 750.624 L63.9319 781.249 L71.5707 781.249 L71.5707 785.184 L51.6634 785.184 L51.6634 781.249 Z" fill="#000000" fill-rule="nonzero" fill-opacity="1" /><path clip-path="url(#clip840)" d="M91.0151 753.703 Q87.404 753.703 85.5753 757.268 Q83.7697 760.81 83.7697 767.939 Q83.7697 775.046 85.5753 778.61 Q87.404 782.152 91.0151 782.152 Q94.6493 782.152 96.4548 778.61 Q98.2835 775.046 98.2835 767.939 Q98.2835 760.81 96.4548 757.268 Q94.6493 753.703 91.0151 753.703 M91.0151 749.999 Q96.8252 749.999 99.8808 754.606 Q102.959 759.189 102.959 767.939 Q102.959 776.666 99.8808 781.272 Q96.8252 785.856 91.0151 785.856 Q85.2049 785.856 82.1262 781.272 Q79.0707 776.666 79.0707 767.939 Q79.0707 759.189 82.1262 754.606 Q85.2049 749.999 91.0151 749.999 Z" fill="#000000" fill-rule="nonzero" fill-opacity="1" /><path clip-path="url(#clip840)" d="M121.177 753.703 Q117.566 753.703 115.737 757.268 Q113.932 760.81 113.932 767.939 Q113.932 775.046 115.737 778.61 Q117.566 782.152 121.177 782.152 Q124.811 782.152 126.617 778.61 Q128.445 775.046 128.445 767.939 Q128.445 760.81 126.617 757.268 Q124.811 753.703 121.177 753.703 M121.177 749.999 Q126.987 749.999 130.043 754.606 Q133.121 759.189 133.121 767.939 Q133.121 776.666 130.043 781.272 Q126.987 785.856 121.177 785.856 Q115.367 785.856 112.288 781.272 Q109.233 776.666 109.233 767.939 Q109.233 759.189 112.288 754.606 Q115.367 749.999 121.177 749.999 Z" fill="#000000" fill-rule="nonzero" fill-opacity="1" /><path clip-path="url(#clip840)" d="M52.6588 600.037 L60.2976 600.037 L60.2976 573.671 L51.9875 575.338 L51.9875 571.079 L60.2513 569.412 L64.9272 569.412 L64.9272 600.037 L72.5661 600.037 L72.5661 603.972 L52.6588 603.972 L52.6588 600.037 Z" fill="#000000" fill-rule="nonzero" fill-opacity="1" /><path clip-path="url(#clip840)" d="M86.0382 600.037 L102.358 600.037 L102.358 603.972 L80.4133 603.972 L80.4133 600.037 Q83.0753 597.282 87.6586 592.653 Q92.2651 588 93.4456 586.657 Q95.691 584.134 96.5706 582.398 Q97.4734 580.639 97.4734 578.949 Q97.4734 576.194 95.5289 574.458 Q93.6076 572.722 90.5058 572.722 Q88.3067 572.722 85.8531 573.486 Q83.4225 574.25 80.6447 575.801 L80.6447 571.079 Q83.4688 569.945 85.9225 569.366 Q88.3762 568.787 90.4132 568.787 Q95.7836 568.787 98.978 571.472 Q102.172 574.157 102.172 578.648 Q102.172 580.778 101.362 582.699 Q100.575 584.597 98.4687 587.19 Q97.89 587.861 94.7882 591.079 Q91.6864 594.273 86.0382 600.037 Z" fill="#000000" fill-rule="nonzero" fill-opacity="1" /><path clip-path="url(#clip840)" d="M112.219 569.412 L130.575 569.412 L130.575 573.347 L116.501 573.347 L116.501 581.819 Q117.52 581.472 118.538 581.31 Q119.557 581.125 120.575 581.125 Q126.362 581.125 129.742 584.296 Q133.121 587.468 133.121 592.884 Q133.121 598.463 129.649 601.565 Q126.177 604.643 119.857 604.643 Q117.682 604.643 115.413 604.273 Q113.168 603.903 110.76 603.162 L110.76 598.463 Q112.844 599.597 115.066 600.153 Q117.288 600.708 119.765 600.708 Q123.77 600.708 126.107 598.602 Q128.445 596.495 128.445 592.884 Q128.445 589.273 126.107 587.167 Q123.77 585.06 119.765 585.06 Q117.89 585.06 116.015 585.477 Q114.163 585.893 112.219 586.773 L112.219 569.412 Z" fill="#000000" fill-rule="nonzero" fill-opacity="1" /><path clip-path="url(#clip840)" d="M51.6634 418.825 L59.3023 418.825 L59.3023 392.459 L50.9921 394.126 L50.9921 389.866 L59.256 388.2 L63.9319 388.2 L63.9319 418.825 L71.5707 418.825 L71.5707 422.76 L51.6634 422.76 L51.6634 418.825 Z" fill="#000000" fill-rule="nonzero" fill-opacity="1" /><path clip-path="url(#clip840)" d="M81.0614 388.2 L99.4178 388.2 L99.4178 392.135 L85.3438 392.135 L85.3438 400.607 Q86.3623 400.26 87.3808 400.098 Q88.3993 399.913 89.4178 399.913 Q95.2049 399.913 98.5845 403.084 Q101.964 406.255 101.964 411.672 Q101.964 417.251 98.4919 420.352 Q95.0197 423.431 88.7003 423.431 Q86.5243 423.431 84.2558 423.061 Q82.0105 422.69 79.6031 421.95 L79.6031 417.251 Q81.6864 418.385 83.9086 418.94 Q86.1308 419.496 88.6077 419.496 Q92.6123 419.496 94.9502 417.389 Q97.2882 415.283 97.2882 411.672 Q97.2882 408.061 94.9502 405.954 Q92.6123 403.848 88.6077 403.848 Q86.7327 403.848 84.8577 404.265 Q83.0058 404.681 81.0614 405.561 L81.0614 388.2 Z" fill="#000000" fill-rule="nonzero" fill-opacity="1" /><path clip-path="url(#clip840)" d="M121.177 391.279 Q117.566 391.279 115.737 394.843 Q113.932 398.385 113.932 405.515 Q113.932 412.621 115.737 416.186 Q117.566 419.727 121.177 419.727 Q124.811 419.727 126.617 416.186 Q128.445 412.621 128.445 405.515 Q128.445 398.385 126.617 394.843 Q124.811 391.279 121.177 391.279 M121.177 387.575 Q126.987 387.575 130.043 392.181 Q133.121 396.765 133.121 405.515 Q133.121 414.241 130.043 418.848 Q126.987 423.431 121.177 423.431 Q115.367 423.431 112.288 418.848 Q109.233 414.241 109.233 405.515 Q109.233 396.765 112.288 392.181 Q115.367 387.575 121.177 387.575 Z" fill="#000000" fill-rule="nonzero" fill-opacity="1" /><path clip-path="url(#clip840)" d="M52.6588 237.612 L60.2976 237.612 L60.2976 211.247 L51.9875 212.913 L51.9875 208.654 L60.2513 206.988 L64.9272 206.988 L64.9272 237.612 L72.5661 237.612 L72.5661 241.548 L52.6588 241.548 L52.6588 237.612 Z" fill="#000000" fill-rule="nonzero" fill-opacity="1" /><path clip-path="url(#clip840)" d="M80.8299 206.988 L103.052 206.988 L103.052 208.978 L90.5058 241.548 L85.6216 241.548 L97.4271 210.923 L80.8299 210.923 L80.8299 206.988 Z" fill="#000000" fill-rule="nonzero" fill-opacity="1" /><path clip-path="url(#clip840)" d="M112.219 206.988 L130.575 206.988 L130.575 210.923 L116.501 210.923 L116.501 219.395 Q117.52 219.048 118.538 218.886 Q119.557 218.7 120.575 218.7 Q126.362 218.7 129.742 221.872 Q133.121 225.043 133.121 230.46 Q133.121 236.038 129.649 239.14 Q126.177 242.219 119.857 242.219 Q117.682 242.219 115.413 241.848 Q113.168 241.478 110.76 240.737 L110.76 236.038 Q112.844 237.173 115.066 237.728 Q117.288 238.284 119.765 238.284 Q123.77 238.284 126.107 236.177 Q128.445 234.071 128.445 230.46 Q128.445 226.849 126.107 224.742 Q123.77 222.636 119.765 222.636 Q117.89 222.636 116.015 223.052 Q114.163 223.469 112.219 224.349 L112.219 206.988 Z" fill="#000000" fill-rule="nonzero" fill-opacity="1" /><polyline clip-path="url(#clip842)" style="stroke:#009af9; stroke-linecap:round; stroke-linejoin:round; stroke-width:4; stroke-opacity:1; fill:none" points="230.922,1399.29 231.952,1400.17 232.982,1445.25 234.012,1445.72 235.042,1259.35 236.072,1261.25 237.102,1412.87 238.132,1413.28 239.162,1393.57 240.192,1394.35 241.222,1313.24 242.252,1314.59 243.282,1372.08 244.313,1373.08 245.343,1352.81 246.373,1353.6 247.403,1396.05 248.433,1396.86 249.463,1295.25 250.493,1297.16 251.523,1310.9 252.553,1311.98 253.583,1324.76 254.613,1325.82 255.643,1338.69 256.673,1339.34 257.703,1291.63 258.733,1292.59 259.763,1326.2 260.793,1327.04 261.823,1269.25 262.853,1270.01 263.883,1292.52 264.913,1293.15 265.943,1265.36 266.973,1266.03 268.003,1241.33 269.033,1242.19 270.063,1264.4 271.093,1264.76 272.123,1188.28 273.153,1189.46 274.183,1242.58 275.213,1242.97 276.243,1322.81 277.273,1323.15 278.303,1240.74 279.333,1241.18 280.363,1121.28 281.393,1123.26 282.423,1176.74 283.453,1177.51 284.483,1212.55 285.513,1213.02 286.543,1040.34 287.573,1044.19 288.603,1182.27 289.633,1182.83 290.663,1126.39 291.693,1127.57 292.723,1208.14 293.753,1208.53 294.783,1145.65 295.813,1146.21 296.843,1127.49 297.873,1128.01 298.903,1113.6 299.933,1114.38 300.963,951.095 301.993,953.912 303.023,940.62 304.053,943.112 305.083,991.994 306.113,992.606 307.144,883.395 308.174,884.779 309.204,859.38 310.234,860.755 311.264,799.351 312.294,800.399 313.324,772.354 314.354,775.344 315.384,726.701 316.414,727.507 317.444,616.681 318.474,619.681 319.504,671.249 320.534,671.955 321.564,593.01 322.594,594.528 323.624,567.432 324.654,568.108 325.684,565.711 326.714,566.257 327.744,383.485 328.774,388.598 329.804,462.942 330.834,463.499 331.864,435.492 332.894,437.64 333.924,254.561 334.954,255.526 335.984,288.385 337.014,289.79 338.044,287.349 339.074,287.78 340.104,294.043 341.134,294.598 342.164,329.046 343.194,329.471 344.224,341.369 345.254,341.651 346.284,271.296 347.314,271.605 348.344,364.978 349.374,365.268 350.404,294.601 351.434,295.197 352.464,305.187 353.494,305.66 354.524,182.659 355.554,183.527 356.584,224.637 357.614,225.466 358.644,205.395 359.674,205.877 360.704,297.575 361.734,297.84 362.764,163.85 363.794,165.024 364.824,265.458 365.854,265.597 366.884,303.917 367.914,304.136 368.944,266.415 369.974,266.529 371.005,87.9763 372.035,88.9465 373.065,203.364 374.095,203.47 375.125,180.651 376.155,180.776 377.185,137.238 378.215,137.438 379.245,261.162 380.275,261.228 381.305,191.518 382.335,191.816 383.365,194.904 384.395,195.046 385.425,208.761 386.455,209.11 387.485,135.099 388.515,135.424 389.545,225.625 390.575,226.002 391.605,207.526 392.635,207.725 393.665,179.818 394.695,179.955 395.725,153.902 396.755,154.051 397.785,168.442 398.815,169.092 399.845,138.181 400.875,138.278 401.905,163.162 402.935,163.525 403.965,191.981 404.995,192.077 406.025,127.919 407.055,127.97 408.085,235.656 409.115,235.829 410.145,205.89 411.175,206.651 412.205,117.433 413.235,117.514 414.265,157.8 415.295,158.014 416.325,169.615 417.355,169.748 418.385,149.244 419.415,149.463 420.445,156.312 421.475,156.353 422.505,219.902 423.535,219.973 424.565,154.014 425.595,154.037 426.625,135.445 427.655,135.485 428.685,150.732 429.715,151.967 430.745,213.597 431.775,213.822 432.805,140.311 433.836,140.454 434.866,223.305 435.896,223.693 436.926,97.5861 437.956,98.308 438.986,147.841 440.016,147.967 441.046,138.174 442.076,138.212 443.106,222.855 444.136,223.556 445.166,182.451 446.196,182.509 447.226,200.819 448.256,200.95 449.286,141.043 450.316,141.911 451.346,158.864 452.376,159.426 453.406,191.215 454.436,191.34 455.466,107.232 456.496,107.417 457.526,148.48 458.556,148.535 459.586,158.251 460.616,158.273 461.646,126.762 462.676,126.891 463.706,135.205 464.736,135.773 465.766,120.364 466.796,120.441 467.826,158.48 468.856,158.496 469.886,162.15 470.916,162.355 471.946,118.998 472.976,119.054 474.006,192.061 475.036,192.596 476.066,120.904 477.096,120.936 478.126,108.048 479.156,108.221 480.186,114.077 481.216,114.121 482.246,172.035 483.276,172.875 484.306,114.497 485.336,114.603 486.366,139.472 487.396,139.655 488.426,177.849 489.456,178.826 490.486,114.064 491.516,114.234 492.546,150.737 493.576,150.882 494.606,251.682 495.636,251.994 496.667,156.601 497.697,156.638 498.727,143.219 499.757,143.325 500.787,204.025 501.817,204.247 502.847,160.365 503.877,160.401 504.907,164.385 505.937,164.412 506.967,167.273 507.997,167.4 509.027,198.673 510.057,199.552 511.087,159.031 512.117,159.172 513.147,177.721 514.177,177.766 515.207,256.418 516.237,256.512 517.267,178.143 518.297,178.386 519.327,149.51 520.357,150.26 521.387,159.307 522.417,159.354 523.447,184.045 524.477,184.073 525.507,160.829 526.537,160.899 527.567,218.091 528.597,218.153 529.627,142.156 530.657,142.963 531.687,120.378 532.717,120.73 533.747,174.142 534.777,174.252 535.807,128.842 536.837,130.336 537.867,133.874 538.897,133.978 539.927,126.17 540.957,126.596 541.987,116.212 543.017,116.238 544.047,168.392 545.077,168.418 546.107,179.612 547.137,179.782 548.167,126.492 549.197,126.891 550.227,137.225 551.257,137.697 552.287,101.027 553.317,101.181 554.347,134.61 555.377,134.639 556.407,129.474 557.437,129.587 558.467,101.898 559.497,101.989 560.528,110.623 561.558,110.675 562.588,187.581 563.618,188.001 564.648,106.427 565.678,106.443 566.708,102.635 567.738,102.678 568.768,102.798 569.798,102.833 570.828,123.042 571.858,123.166 572.888,103.104 573.918,103.123 574.948,131.097 575.978,131.112 577.008,100.099 578.038,100.192 579.068,114.531 580.098,114.605 581.128,103.354 582.158,103.365 583.188,103.397 584.218,103.408 585.248,114.081 586.278,114.872 587.308,155.696 588.338,155.8 589.368,114.218 590.398,114.312 591.428,159.288 592.458,159.298 593.488,124.093 594.518,124.164 595.548,128.771 596.578,128.829 597.608,112.475 598.638,112.667 599.668,109.861 600.698,110.407 601.728,114.745 602.758,114.812 603.788,139.063 604.818,139.51 605.848,100.43 606.878,100.522 607.908,120.427 608.938,120.479 609.968,117.562 610.998,117.578 612.028,131.527 613.058,131.537 614.088,172.274 615.118,172.513 616.148,106.284 617.178,106.345 618.208,112.022 619.238,112.242 620.268,112.861 621.298,113.043 622.328,150.772 623.359,150.915 624.389,115.732 625.419,115.759 626.449,117.409 627.479,117.436 628.509,129.659 629.539,129.681 630.569,156.021 631.599,156.137 632.629,132.454 633.659,132.603 634.689,105.177 635.719,105.297 636.749,105.639 637.779,105.74 638.809,148.075 639.839,148.129 640.869,133.365 641.899,133.535 642.929,127.06 643.959,127.071 644.989,115.36 646.019,115.407 647.049,133.903 648.079,134.059 649.109,126.714 650.139,126.897 651.169,105.796 652.199,105.887 653.229,103.804 654.259,103.814 655.289,103.843 656.319,103.852 657.349,124.68 658.379,124.725 659.409,108.227 660.439,108.46 661.469,101.292 662.499,101.351 663.529,124.703 664.559,124.749 665.589,101.681 666.619,101.722 667.649,131.81 668.679,131.821 669.709,114.837 670.739,116.22 671.769,113.604 672.799,113.948 673.829,107.45 674.859,107.461 675.889,126.909 676.919,126.94 677.949,119.744 678.979,120.072 680.009,123.676 681.039,123.816 682.069,107.382 683.099,107.4 684.129,107.45 685.159,107.464 686.19,100.252 687.22,100.386 688.25,114.214 689.28,114.32 690.31,107.194 691.34,107.227 692.37,107.321 693.4,107.347 694.43,97.4584 695.46,97.7473 696.49,109.963 697.52,110.139 698.55,124.043 699.58,124.134 700.61,123.515 701.64,123.696 702.67,100.82 703.7,100.923 704.73,104.258 705.76,104.267 706.79,132.181 707.82,132.188 708.85,110.249 709.88,110.412 710.91,97.6096 711.94,97.8966 712.97,145.465 714,145.481 715.03,104.369 716.06,104.375 717.09,136.5 718.12,136.776 719.15,101.051 720.18,101.144 721.21,124.343 722.24,124.415 723.27,160.128 724.3,160.133 725.33,117.714 726.36,117.729 727.39,101.662 728.42,101.723 729.45,104.402 730.48,104.407 731.51,161.427 732.54,161.58 733.57,98.8581 734.6,99.0756 735.63,134.575 736.66,134.65 737.69,117.837 738.72,117.852 739.75,99.2135 740.78,99.4143 741.81,113.154 742.84,114.053 743.87,101.352 744.9,101.433 745.93,110.04 746.96,110.223 747.99,130.376 749.021,130.41 750.051,101.046 751.081,101.148 752.111,124.253 753.141,124.332 754.171,132.384 755.201,132.389 756.231,101.742 757.261,101.805 758.291,101.984 759.321,102.036 760.351,99.8043 761.381,99.9842 762.411,143.394 763.441,143.43 764.471,106.31 765.501,106.41 766.531,100.231 767.561,100.393 768.591,106.179 769.621,106.274 770.651,113.447 771.681,113.607 772.711,102.686 773.741,102.708 774.771,117.44 775.801,117.47 776.831,104.407 777.861,104.421 778.891,102.659 779.921,102.682 780.951,156.736 781.981,156.853 783.011,102.915 784.041,102.929 785.071,118.529 786.101,118.685 787.131,102.794 788.161,102.813 789.191,107.415 790.221,107.747 791.251,106.645 792.281,106.734 793.311,104.689 794.341,104.694 795.371,104.711 796.401,104.716 797.431,100.014 798.461,100.191 799.491,153.057 800.521,153.085 801.551,104.623 802.581,104.634 803.611,102.73 804.641,102.756 805.671,101.029 806.701,101.164 807.731,103.02 808.761,103.035 809.791,114.398 810.821,114.518 811.851,104.253 812.882,104.281 813.912,106.816 814.942,107.181 815.972,104.662 817.002,104.674 818.032,110.282 819.062,110.865 820.092,109.828 821.122,110.018 822.152,107.78 823.182,107.817 824.212,104.834 825.242,104.841 826.272,110.922 827.302,111.075 828.332,127.232 829.362,127.249 830.392,101.5 831.422,101.599 832.452,132.77 833.482,132.775 834.512,123.372 835.542,123.554 836.572,101.442 837.602,101.544 838.632,117.449 839.662,117.47 840.692,123.57 841.722,123.747 842.752,120.448 843.782,120.735 844.812,132.762 845.842,132.766 846.872,138.54 847.902,138.718 848.932,130.521 849.962,130.551 850.992,124.156 852.022,124.294 853.052,130.75 854.082,130.765 855.112,120.991 856.142,121.014 857.172,100.656 858.202,100.809 859.232,104.699 860.262,104.716 861.292,108.135 862.322,108.152 863.352,104.726 864.382,104.743 865.412,121.649 866.442,122.635 867.472,99.8984 868.502,100.11 869.532,126.98 870.562,127.015 871.592,183.878 872.622,183.994 873.652,108.29 874.682,108.296 875.713,128.76 876.743,129.015 877.773,104.045 878.803,104.11 879.833,108.331 880.863,108.334 881.893,108.344 882.923,108.348 883.953,132.233 884.983,132.276 886.013,104.471 887.043,104.507 888.073,108.333 889.103,108.34 890.133,104.58 891.163,104.61 892.193,141.658 893.223,142.213 894.253,116.945 895.283,117.103 896.313,117.521 897.343,117.628 898.373,126.355 899.403,126.68 900.433,116.83 901.463,116.941 902.493,108.296 903.523,108.313 904.553,129.618 905.583,129.73 906.613,103.346 907.643,103.48 908.673,144.361 909.703,144.453 910.733,125.275 911.763,125.883 912.793,108.098 913.823,108.132 914.853,122.669 915.883,122.912 916.913,107.861 917.943,107.92 918.973,138.59 920.003,138.947 921.033,129.776 922.063,130.288 923.093,140.803 924.123,142.069 925.153,130.75 926.183,130.845 927.213,107.894 928.243,107.943 929.273,120.976 930.303,121.018 931.333,108.153 932.363,108.177 933.393,127.003 934.423,127.54 935.453,107.71 936.483,107.779 937.513,125.78 938.544,126.156 939.574,121.171 940.604,121.195 941.634,94.8281 942.664,95.3509 943.694,104.535 944.724,104.572 945.754,140.041 946.784,140.128 947.814,112.438 948.844,112.496 949.874,116.832 950.904,117.004 951.934,103.865 952.964,103.957 953.994,104.205 955.024,104.271 956.054,136.438 957.084,136.441 958.114,113.005 959.144,113.198 960.174,108.448 961.204,108.455 962.234,108.474 963.264,108.48 964.294,128.776 965.324,129.035 966.354,112.733 967.384,112.77 968.414,121.859 969.444,122.093 970.474,104.523 971.504,104.566 972.534,109.693 973.564,110.062 974.594,108.275 975.624,108.294 976.654,108.347 977.684,108.363 978.714,136.302 979.744,136.316 980.774,112.057 981.804,112.149 982.834,108.535 983.864,108.54 984.894,100.761 985.924,100.924 986.954,101.368 987.984,101.49 989.014,108.319 990.044,108.34 991.074,108.398 992.104,108.414 993.134,130.524 994.164,130.546 995.194,123.477 996.224,123.6 997.254,98.5411 998.284,98.8197 999.314,135.883 1000.34,135.928 1001.37,114.506 1002.4,114.593 1003.43,124.522 1004.46,124.585 1005.49,129.877 1006.52,129.942 1007.55,112.006 1008.58,112.231 1009.61,105.178 1010.64,105.181 1011.67,124.918 1012.7,124.963 1013.73,102.942 1014.76,102.976 1015.79,105.136 1016.82,105.143 1017.85,147.634 1018.88,147.877 1019.91,103.206 1020.94,103.227 1021.97,114.091 1023,114.227 1024.03,102.064 1025.06,102.172 1026.09,105.649 1027.12,105.802 1028.15,126.927 1029.18,126.954 1030.21,106.423 1031.24,106.544 1032.27,101.354 1033.31,101.49 1034.34,115.795 1035.37,115.824 1036.4,101.995 1037.43,102.106 1038.46,102.423 1039.49,102.519 1040.52,102.794 1041.55,102.878 1042.58,103.118 1043.61,103.192 1044.64,125.449 1045.67,125.519 1046.7,103.645 1047.73,103.704 1048.76,116.156 1049.79,116.224 1050.82,103.051 1051.85,103.297 1052.88,103.743 1053.91,103.745 1054.94,103.627 1055.97,103.687 1057,103.663 1058.03,103.725 1059.06,104.031 1060.09,104.247 1061.12,104.864 1062.15,105.05 1063.18,104.627 1064.21,104.657 1065.24,124.543 1066.27,124.641 1067.3,104.546 1068.33,104.579 1069.36,130.485 1070.39,130.572 1071.42,104.482 1072.45,104.518 1073.48,105.52 1074.51,105.683 1075.54,104.881 1076.57,104.902 1077.6,144.823 1078.63,144.864 1079.66,101.969 1080.69,102.086 1081.72,104.848 1082.75,104.871 1083.78,104.903 1084.81,104.92 1085.84,132.821 1086.87,132.839 1087.9,105.077 1088.93,105.091 1089.96,103.456 1090.99,103.473 1092.02,106.651 1093.05,106.769 1094.08,105.229 1095.11,105.238 1096.14,101.371 1097.17,101.514 1098.2,105.132 1099.23,105.146 1100.26,105.185 1101.29,105.197 1102.32,101.641 1103.35,101.774 1104.38,103.618 1105.41,103.631 1106.44,102.297 1107.47,102.405 1108.5,103.786 1109.53,103.793 1110.56,103.813 1111.59,103.82 1112.62,103.838 1113.65,103.844 1114.68,104.748 1115.71,104.779 1116.74,104.869 1117.77,104.896 1118.8,153.415 1119.83,153.43 1120.86,124.543 1121.89,124.642 1122.92,105.583 1123.95,105.749 1124.98,104.996 1126.01,105.019 1127.04,103.728 1128.07,103.739 1129.1,102.502 1130.13,102.604 1131.16,103.873 1132.19,103.879 1133.22,124.837 1134.25,124.927 1135.28,104.606 1136.31,104.644 1137.34,130.885 1138.37,130.964 1139.4,104.551 1140.43,104.591 1141.46,103.197 1142.49,103.276 1143.52,104.994 1144.55,105.184 1145.58,104.828 1146.61,104.859 1147.64,107.056 1148.67,107.438 1149.7,125.52 1150.73,125.542 1151.76,115.019 1152.79,115.053 1153.82,125.622 1154.85,125.64 1155.88,105.111 1156.91,105.13 1157.94,102.272 1158.97,102.384 1160,103.857 1161.03,103.865 1162.06,102.806 1163.09,102.899 1164.12,116.06 1165.15,116.118 1166.18,105.856 1167.21,106.013 1168.24,106.459 1169.27,106.592 1170.3,101.977 1171.33,102.101 1172.36,102.453 1173.39,102.559 1174.42,106.011 1175.45,106.163 1176.48,103.785 1177.51,103.797 1178.54,105.143 1179.57,105.163 1180.6,102.345 1181.63,102.456 1182.66,105.042 1183.69,105.066 1184.72,105.136 1185.75,105.157 1186.78,102.415 1187.81,102.523 1188.84,103.935 1189.87,103.942 1190.9,103.962 1191.93,103.968 1192.96,114.144 1193.99,114.252 1195.02,131.822 1196.05,131.825 1197.08,114.59 1198.11,114.686 1199.14,103.646 1200.17,103.713 1201.2,131.865 1202.23,131.866 1203.26,104.094 1204.29,104.095 1205.32,125.787 1206.35,125.797 1207.38,104.097 1208.41,104.099 1209.44,104.103 1210.47,104.104 1211.5,131.733 1212.53,131.79 1213.56,104.114 1214.59,104.115 1215.62,104.057 1216.65,104.116 1217.68,115.248 1218.71,115.273 1219.74,103.949 1220.77,104.008 1221.8,104.18 1222.83,104.234 1223.86,103.829 1224.89,103.895 1225.92,104.126 1226.95,104.127 1227.98,104.131 1229.01,104.133 1230.04,104.168 1231.07,104.223 1232.1,104.379 1233.13,104.428 1234.16,104.57 1235.19,104.614 1236.22,104.743 1237.25,104.783 1238.28,104.064 1239.31,104.068 1240.34,103.288 1241.37,103.37 1242.4,104.649 1243.43,104.692 1244.46,104.102 1245.49,104.105 1246.52,104.788 1247.55,104.827 1248.58,103.224 1249.61,103.308 1250.64,131.898 1251.67,131.901 1252.7,125.69 1253.73,125.701 1254.76,104.15 1255.79,104.152 1256.82,103.676 1257.85,103.749 1258.88,104.188 1259.91,104.19 1260.94,104.41 1261.97,104.459 1263,104.602 1264.03,104.647 1265.06,104.157 1266.09,104.16 1267.12,104.751 1268.15,104.793 1269.18,131.895 1270.21,131.899 1271.24,104.879 1272.27,104.918 1273.3,105.031 1274.33,105.066 1275.36,101.903 1276.39,102.195 1277.42,104.19 1278.45,104.192 1279.48,104.741 1280.51,104.784 1281.54,104.906 1282.57,104.945 1283.6,104.138 1284.63,104.142 1285.66,131.908 1286.69,131.912 1287.72,104.985 1288.75,105.022 1289.78,105.129 1290.81,105.163 1291.84,131.841 1292.87,131.847 1293.9,105.218 1294.93,105.251 1295.96,105.345 1296.99,105.375 1298.02,104.024 1299.05,104.031 1300.08,105.415 1301.11,105.443 1302.14,104.004 1303.17,104.011 1304.2,102.587 1305.23,102.689 1306.26,104.126 1307.29,104.131 1308.32,101.985 1309.35,102.276 1310.38,141.842 1311.41,141.948 1312.44,104.575 1313.47,104.622 1314.5,104.759 1315.53,104.802 1316.56,104.927 1317.59,104.966 1318.62,105.079 1319.65,105.115 1320.68,104.155 1321.71,104.16 1322.74,104.173 1323.77,104.177 1324.8,104.189 1325.83,104.193 1326.86,115.501 1327.89,115.562 1328.92,105.224 1329.95,105.257 1330.98,105.352 1332.01,105.382 1333.04,104.062 1334.07,104.069 1335.1,133.171 1336.13,133.198 1337.16,102.549 1338.19,102.652 1339.22,104.139 1340.25,104.144 1341.28,105.282 1342.31,105.314 1343.34,105.408 1344.37,105.437 1345.4,128.905 1346.43,129.221 1347.46,132.889 1348.49,132.922 1349.52,115.62 1350.55,115.677 1351.58,105.379 1352.61,105.409 1353.64,115.946 1354.67,115.999 1355.7,105.587 1356.73,105.612 1357.76,105.688 1358.79,105.712 1359.82,133.523 1360.85,133.544 1361.88,105.87 1362.91,105.891 1363.94,103.801 1364.97,103.813 1366,105.898 1367.03,105.919 1368.06,103.793 1369.09,103.805 1370.12,105.924 1371.15,105.944 1372.18,103.785 1373.21,103.798 1374.24,103.835 1375.27,103.847 1376.3,105.893 1377.33,105.914 1378.36,105.976 1379.39,105.996 1380.42,106.054 1381.45,106.073 1382.48,103.713 1383.51,103.727 1384.54,133.804 1385.57,133.822 1386.6,116.447 1387.63,116.491 1388.66,103.639 1389.69,103.655 1390.72,101.263 1391.75,101.394 1392.78,116.344 1393.81,116.39 1394.84,127.097 1395.87,127.126 1396.9,106.075 1397.93,106.093 1398.96,124.798 1399.99,124.824 1401.02,124.898 1402.05,124.923 1403.08,106.017 1404.11,106.036 1405.14,106.091 1406.17,106.109 1407.2,103.657 1408.23,103.672 1409.26,103.716 1410.29,103.73 1411.32,106.048 1412.35,106.066 1413.38,106.121 1414.41,106.139 1415.44,103.657 1416.47,103.672 1417.5,133.866 1418.53,133.883 1419.56,106.201 1420.59,106.218 1421.62,127.426 1422.65,127.451 1423.68,103.538 1424.71,103.555 1425.74,103.606 1426.77,103.622 1427.8,103.669 1428.83,103.684 1429.86,106.147 1430.89,106.164 1431.92,101.125 1432.95,101.259 1433.98,114.045 1435.01,114.085 1436.04,103.872 1437.07,103.884 1438.1,103.917 1439.13,103.928 1440.16,114.26 1441.19,114.298 1442.22,105.773 1443.25,105.796 1444.28,101.994 1445.31,102.11 1446.34,104.056 1447.37,104.064 1448.4,123.703 1449.43,123.819 1450.46,105.394 1451.49,105.425 1452.52,104.135 1453.55,104.141 1454.58,131.906 1455.61,131.912 1456.64,105.42 1457.67,105.45 1458.7,104.138 1459.73,104.144 1460.76,105.491 1461.79,105.52 1462.82,105.605 1463.85,105.631 1464.88,105.71 1465.91,105.735 1466.94,105.808 1467.97,105.831 1469,102.02 1470.03,102.136 1471.06,105.697 1472.09,105.723 1473.12,133.536 1474.15,133.558 1475.18,105.888 1476.21,105.91 1477.24,103.927 1478.27,103.938 1479.3,133.656 1480.33,133.677 1481.36,124.149 1482.39,124.287 1483.42,103.932 1484.45,103.942 1485.48,105.857 1486.51,105.88 1487.54,101.893 1488.57,102.012 1489.6,105.745 1490.63,105.77 1491.66,104 1492.69,104.009 1493.72,104.037 1494.75,104.046 1495.78,112.697 1496.81,112.835 1497.84,105.509 1498.87,105.538 1499.9,114.514 1500.93,114.548 1501.96,133.298 1502.99,133.325 1504.02,105.661 1505.05,105.686 1506.08,105.762 1507.11,105.786 1508.14,103.977 1509.17,103.986 1510.2,104.015 1511.23,104.025 1512.26,105.75 1513.29,105.774 1514.32,102.152 1515.35,102.266 1516.38,104.12 1517.41,104.127 1518.44,104.148 1519.47,104.155 1520.5,105.545 1521.53,105.573 1522.56,104.126 1523.59,104.134 1524.62,102.703 1525.65,102.805 1526.68,105.395 1527.71,105.427 1528.74,105.518 1529.77,105.548 1530.8,104.156 1531.83,104.163 1532.86,105.584 1533.89,105.612 1534.92,105.693 1535.95,105.719 1536.98,105.795 1538.01,105.819 1539.04,105.89 1540.07,105.912 1541.1,105.978 1542.13,105.999 1543.16,106.061 1544.19,106.081 1545.22,106.139 1546.25,106.157 1547.28,106.212 1548.31,106.23 1549.34,103.747 1550.37,103.762 1551.4,106.223 1552.43,106.24 1553.46,116.391 1554.49,116.434 1555.52,103.675 1556.55,103.691 1557.58,98.6528 1558.61,99.0251 1559.64,104.007 1560.67,104.017 1561.7,105.901 1562.73,105.923 1563.76,105.989 1564.79,106.01 1565.82,106.072 1566.85,106.092 1567.88,103.88 1568.91,103.893 1569.94,103.93 1570.97,103.942 1572,106.037 1573.03,106.057 1574.06,106.117 1575.09,106.137 1576.12,106.193 1577.15,106.211 1578.18,106.264 1579.21,106.281 1580.24,131.476 1581.27,131.492 1582.3,113.834 1583.33,113.876 1584.36,106.197 1585.39,106.215 1586.42,103.793 1587.45,103.808 1588.48,103.85 1589.51,103.863 1590.54,116.259 1591.57,116.305 1592.6,101.453 1593.63,101.582 1594.66,106.017 1595.69,106.038 1596.72,106.099 1597.75,106.118 1598.78,103.875 1599.81,103.888 1600.84,106.118 1601.87,106.137 1602.9,106.194 1603.93,106.212 1604.96,106.265 1605.99,106.283 1607.02,106.333 1608.05,106.349 1609.08,106.396 1610.11,106.412 1611.14,106.456 1612.17,106.471 1613.2,103.577 1614.23,103.595 1615.26,106.455 1616.29,106.469 1617.32,131.315 1618.35,131.333 1619.38,106.452 1620.41,106.466 1621.44,106.51 1622.47,106.523 1623.5,106.564 1624.53,106.577 1625.56,106.616 1626.59,106.629 1627.62,103.427 1628.65,103.447 1629.68,106.607 1630.71,106.62 1631.74,124.107 1632.77,124.139 1633.8,103.525 1634.83,103.545 1635.86,135.368 1636.89,135.794 1637.92,101.583 1638.95,101.71 1639.98,106.016 1641.01,106.037 1642.04,106.1 1643.07,106.12 1644.1,116.174 1645.13,116.221 1646.16,144.088 1647.19,144.132 1648.22,106.287 1649.25,106.304 1650.28,106.353 1651.31,106.369 1652.34,106.416 1653.37,106.431 1654.4,134.2 1655.43,134.214 1656.46,106.53 1657.49,106.543 1658.52,106.583 1659.55,106.596 1660.58,116.779 1661.61,116.819 1662.64,103.37 1663.67,103.391 1664.71,106.607 1665.74,106.62 1666.77,106.656 1667.8,106.668 1668.83,113.557 1669.86,113.607 1670.89,103.407 1671.92,103.428 1672.95,127.181 1673.98,127.205 1675.01,106.614 1676.04,106.627 1677.07,106.663 1678.1,106.675 1679.13,134.43 1680.16,134.441 1681.19,106.753 1682.22,106.763 1683.25,106.795 1684.28,106.805 1685.31,106.835 1686.34,106.845 1687.37,127.501 1688.4,127.522 1689.43,103.021 1690.46,103.047 1691.49,106.849 1692.52,106.859 1693.55,106.887 1694.58,106.897 1695.61,106.924 1696.64,106.933 1697.67,106.959 1698.7,106.968 1699.73,106.993 1700.76,107.001 1701.79,102.844 1702.82,102.872 1703.85,106.97 1704.88,106.979 1705.91,107.004 1706.94,107.012 1707.97,107.037 1709,107.044 1710.03,107.068 1711.06,107.075 1712.09,107.098 1713.12,107.105 1714.15,134.839 1715.18,134.846 1716.21,107.154 1717.24,107.161 1718.27,107.182 1719.3,107.188 1720.33,102.524 1721.36,102.556 1722.39,102.651 1723.42,102.682 1724.45,102.773 1725.48,102.802 1726.51,107.046 1727.54,107.054 1728.57,107.077 1729.6,107.085 1730.63,107.108 1731.66,107.115 1732.69,107.137 1733.72,107.144 1734.75,117.025 1735.78,117.06 1736.81,93.4594 1737.84,93.9252 1738.87,106.949 1739.9,106.958 1740.93,116.946 1741.96,116.982 1742.99,107.003 1744.02,107.011 1745.05,107.036 1746.08,107.044 1747.11,107.067 1748.14,107.075 1749.17,107.098 1750.2,107.105 1751.23,102.719 1752.26,102.749 1753.29,107.073 1754.32,107.081 1755.35,107.104 1756.38,107.111 1757.41,137.618 1758.44,137.665 1759.47,102.657 1760.5,102.688 1761.53,107.086 1762.56,107.094 1763.59,107.116 1764.62,107.123 1765.65,107.145 1766.68,107.152 1767.71,107.172 1768.74,107.179 1769.77,107.199 1770.8,107.206 1771.83,107.225 1772.86,107.231 1773.89,107.25 1774.92,107.256 1775.95,102.409 1776.98,102.442 1778.01,102.541 1779.04,102.574 1780.07,102.669 1781.1,102.699 1782.13,102.79 1783.16,102.819 1784.19,102.906 1785.22,102.934 1786.25,107.004 1787.28,107.013 1788.31,107.038 1789.34,107.046 1790.37,107.071 1791.4,107.079 1792.43,102.85 1793.46,102.879 1794.49,107.047 1795.52,107.055 1796.55,107.079 1797.58,107.087 1798.61,107.11 1799.64,107.118 1800.67,134.853 1801.7,134.86 1802.73,107.169 1803.76,107.176 1804.79,107.197 1805.82,107.204 1806.85,107.224 1807.88,107.23 1808.91,107.25 1809.94,107.256 1810.97,134.985 1812,134.991 1813.03,102.482 1814.06,102.515 1815.09,107.247 1816.12,107.253 1817.15,102.56 1818.18,102.592 1819.21,107.219 1820.24,107.226 1821.27,107.246 1822.3,107.252 1823.33,102.582 1824.36,102.614 1825.39,107.218 1826.42,107.225 1827.45,102.655 1828.48,102.687 1829.51,107.191 1830.54,107.198 1831.57,102.725 1832.6,102.756 1833.63,102.846 1834.66,102.875 1835.69,107.109 1836.72,107.117 1837.75,119.047 1838.78,119.237 1839.81,106.988 1840.84,106.997 1841.87,107.024 1842.9,107.033 1843.93,107.059 1844.96,107.067 1845.99,107.092 1847.02,107.1 1848.05,102.951 1849.08,102.979 1850.11,107.068 1851.14,107.076 1852.17,112.479 1853.2,112.537 1854.23,107.031 1855.26,107.04 1856.29,107.065 1857.32,107.074 1858.35,102.989 1859.38,103.017 1860.41,127.426 1861.44,127.446 1862.47,107.071 1863.5,107.079 1864.53,102.982 1865.56,103.009 1866.59,134.761 1867.62,134.769 1868.65,107.08 1869.68,107.089 1870.71,107.113 1871.74,107.121 1872.77,102.924 1873.8,102.952 1874.83,103.036 1875.86,103.063 1876.89,103.143 1877.92,103.169 1878.95,106.974 1879.98,106.983 1881.01,107.011 1882.04,107.02 1883.07,107.047 1884.1,107.056 1885.13,107.082 1886.16,107.09 1887.19,116.513 1888.22,116.552 1889.25,102.949 1890.28,102.978 1891.31,103.061 1892.34,103.087 1893.37,127.388 1894.4,127.409 1895.43,127.471 1896.46,127.492 1897.49,103.046 1898.52,103.073 1899.55,107.022 1900.58,107.031 1901.61,107.057 1902.64,107.066 1903.67,98.9865 1904.7,99.1587 1905.73,106.939 1906.76,106.949 1907.79,99.5105 1908.82,99.675 1909.85,106.819 1910.88,106.83 1911.91,116.26 1912.94,116.301 1913.97,134.61 1915,134.62 1916.03,127.367 1917.06,127.389 1918.09,106.966 1919.12,106.976 1920.15,95.5424 1921.18,95.9758 1922.21,106.741 1923.24,106.753 1924.27,103.517 1925.3,103.538 1926.33,106.73 1927.36,106.742 1928.39,103.539 1929.42,103.56 1930.45,103.62 1931.48,103.639 1932.51,103.696 1933.54,103.714 1934.57,100.935 1935.6,101.077 1936.63,134.145 1937.66,134.161 1938.69,131.622 1939.72,131.637 1940.75,103.957 1941.78,103.971 1942.81,106.363 1943.84,106.381 1944.87,121.909 1945.9,122.055 1946.93,106.236 1947.96,106.255 1948.99,129.525 1950.02,129.652 1951.05,106.115 1952.08,106.137 1953.11,104.147 1954.14,104.158 1955.17,106.144 1956.2,106.165 1957.23,106.228 1958.26,106.248 1959.29,126.769 1960.32,126.799 1961.35,115.625 1962.38,115.673 1963.41,103.943 1964.44,103.958 1965.47,104 1966.5,104.013 1967.53,104.052 1968.56,104.064 1969.59,104.101 1970.62,104.113 1971.65,106.196 1972.68,106.217 1973.71,104.089 1974.74,104.101 1975.77,106.219 1976.8,106.239 1977.83,104.078 1978.86,104.091 1979.89,106.24 1980.92,106.259 1981.95,104.068 1982.98,104.081 1984.01,104.117 1985.04,104.128 1986.07,104.162 1987.1,104.173 1988.13,106.146 1989.16,106.167 1990.19,104.148 1991.22,104.159 1992.25,104.191 1993.28,104.201 1994.31,113.441 1995.34,113.482 1996.37,104.258 1997.4,104.266 1998.43,105.994 1999.46,106.018 2000.49,102.388 2001.52,102.502 2002.55,105.882 2003.58,105.908 2004.61,133.72 2005.64,133.743 2006.67,133.811 2007.7,133.833 2008.73,106.165 2009.76,106.186 2010.79,106.248 2011.82,106.267 2012.85,106.325 2013.88,106.344 2014.91,106.398 2015.94,106.416 2016.97,103.966 2018,103.98 2019.03,115.615 2020.06,115.663 2021.09,106.463 2022.12,106.479 2023.15,106.528 2024.18,106.543 2025.21,103.834 2026.24,103.85 2027.27,103.898 2028.3,103.914 2029.33,101.448 2030.36,101.581 2031.39,101.968 2032.42,102.09 2033.45,106.081 2034.48,106.103 2035.51,102.247 2036.54,102.364 2037.57,105.967 2038.6,105.991 2039.63,104.282 2040.66,104.291 2041.69,115.239 2042.72,115.293 2043.75,106.09 2044.78,106.112 2045.81,106.178 2046.84,106.199 2047.87,106.261 2048.9,106.28 2049.93,106.338 2050.96,106.356 2051.99,104.022 2053.02,104.036 2054.05,131.803 2055.08,131.816 2056.11,113.411 2057.14,113.455 2058.17,102.1 2059.2,102.219 2060.23,106.02 2061.26,106.044 2062.29,102.366 2063.32,102.48 2064.35,102.813 2065.38,102.917 2066.41,105.697 2067.44,105.726 2068.47,152.434 2069.5,152.454 2070.53,104.432 2071.56,104.438 2072.59,132.195 2073.62,132.201 2074.65,105.661 2075.68,105.691 2076.71,105.78 2077.74,105.808 2078.77,104.379 2079.8,104.386 2080.83,104.406 2081.86,104.412 2082.89,104.431 2083.92,104.436 2084.95,104.453 2085.98,104.459 2087.01,104.474 2088.04,104.479 2089.07,105.652 2090.1,105.683 2091.13,105.773 2092.16,105.801 2093.19,105.885 2094.22,105.911 2095.25,105.989 2096.28,106.013 2097.31,106.085 2098.34,106.108 2099.37,106.175 2100.4,106.196 2101.43,102.102 2102.46,102.222 2103.49,100.83 2104.52,101.159 2105.55,132.238 2106.58,132.243 2107.61,103.39 2108.64,103.482 2109.67,104.585 2110.7,104.587 2111.73,105.386 2112.76,105.423 2113.79,105.53 2114.82,105.564 2115.85,104.515 2116.88,104.52 2117.91,103.447 2118.94,103.537 2119.97,104.599 2121,104.602 2122.03,102.342 2123.06,102.915 2124.09,104.603 2125.12,104.828 2126.15,132.841 2127.18,132.887 2128.21,104.647 2129.24,104.649 2130.27,105.782 2131.3,105.966 2132.33,103.612 2133.36,103.699 2134.39,104.636 2135.42,104.638 2136.45,103.996 2137.48,104.07 2138.51,104.284 2139.54,104.349 2140.57,104.697 2141.6,104.697 2142.63,104.699 2143.66,104.699 2144.69,104.555 2145.72,104.613 2146.75,104.78 2147.78,104.832 2148.81,104.983 2149.84,105.03 2150.87,105.166 2151.9,105.208 2152.93,104.641 2153.96,104.643 2154.99,104.649 2156.02,104.651 2157.05,105.27 2158.08,105.31 2159.11,114.294 2160.14,114.362 2161.17,114.561 2162.2,114.625 2163.23,114.815 2164.26,114.876 2165.29,105.781 2166.32,105.809 2167.35,104.416 2168.38,104.423 2169.41,105.843 2170.44,105.871 2171.47,104.391 2172.5,104.398 2173.53,104.419 2174.56,104.426 2175.59,103.04 2176.62,103.14 2177.65,103.431 2178.68,103.522 2179.71,104.601 2180.74,104.603 2181.77,105.382 2182.8,105.419 2183.83,105.527 2184.86,105.561 2185.89,104.532 2186.92,104.537 2187.95,104.549 2188.98,104.553 2190.01,104.565 2191.04,104.568 2192.07,102.667 2193.1,102.95 2194.13,104.669 2195.16,104.671 2196.19,113.362 2197.22,113.465 2198.25,104.858 2199.28,104.908 2200.31,104.67 2201.34,104.671 2202.37,105.032 2203.4,105.078 2204.43,105.209 2205.46,105.25 2206.49,105.37 2207.52,105.408 2208.55,104.583 2209.58,104.586 2210.61,105.479 2211.64,105.514 2212.67,103.495 2213.7,103.584 2214.73,103.844 2215.76,103.924 2216.79,104.666 2217.82,104.667 2218.85,104.193 2219.88,104.264 2220.91,104.015 2221.94,104.535 2222.97,105.131 2224,105.173 2225.03,104.022 2226.06,104.096 2227.09,105.079 2228.12,105.123 2229.15,104.67 2230.18,104.672 2231.21,104.13 2232.24,104.2 2233.27,113.771 2234.3,113.803 2235.33,104.405 2236.36,104.467 2237.39,104.647 2238.42,104.702 2239.45,104.701 2240.48,104.701 2241.51,104.552 2242.54,104.613 2243.57,104.709 2244.6,104.709 2245.63,104.71 2246.66,104.71 2247.69,104.787 2248.72,104.84 2249.75,113.827 2250.78,113.859 2251.81,132.18 2252.84,132.24 2253.87,104.704 2254.9,104.704 2255.93,104.652 2256.96,104.708 2257.99,104.868 2259.02,104.918 2260.05,104.686 2261.08,104.687 2262.11,105.043 2263.14,105.088 2264.17,104.667 2265.2,104.668 2266.23,104.672 2267.26,104.674 2268.29,104.678 2269.32,104.679 2270.35,104.683 2271.38,104.684 2272.41,105.122 2273.44,105.165 2274.47,105.292 2275.5,105.332 2276.53,102.989 2277.56,103.264 2278.59,105.027 2279.62,105.073 2280.65,104.155 2281.68,104.227 2282.71,104.71 2283.74,104.71 2284.77,104.967 2285.8,105.015 2286.83,104.693 2287.86,104.694 2288.89,132.45 2289.92,132.452 2290.95,132.453 "/>
<path clip-path="url(#clip840)" d="M2009.17 1438.47 L2279.97 1438.47 L2279.97 1334.79 L2009.17 1334.79  Z" fill="#ffffff" fill-rule="evenodd" fill-opacity="1"/>
<polyline clip-path="url(#clip840)" style="stroke:#000000; stroke-linecap:round; stroke-linejoin:round; stroke-width:4; stroke-opacity:1; fill:none" points="2009.17,1438.47 2279.97,1438.47 2279.97,1334.79 2009.17,1334.79 2009.17,1438.47 "/>
<polyline clip-path="url(#clip840)" style="stroke:#009af9; stroke-linecap:round; stroke-linejoin:round; stroke-width:4; stroke-opacity:1; fill:none" points="2033.44,1386.63 2179.01,1386.63 "/>
<path clip-path="url(#clip840)" d="M2217.12 1406.32 Q2215.31 1410.95 2213.6 1412.36 Q2211.89 1413.78 2209.02 1413.78 L2205.61 1413.78 L2205.61 1410.21 L2208.11 1410.21 Q2209.87 1410.21 2210.84 1409.38 Q2211.82 1408.54 2213 1405.44 L2213.76 1403.5 L2203.28 1377.99 L2207.79 1377.99 L2215.89 1398.27 L2223.99 1377.99 L2228.51 1377.99 L2217.12 1406.32 Z" fill="#000000" fill-rule="nonzero" fill-opacity="1" /><path clip-path="url(#clip840)" d="M2235.8 1399.98 L2243.44 1399.98 L2243.44 1373.61 L2235.13 1375.28 L2235.13 1371.02 L2243.39 1369.35 L2248.07 1369.35 L2248.07 1399.98 L2255.71 1399.98 L2255.71 1403.91 L2235.8 1403.91 L2235.8 1399.98 Z" fill="#000000" fill-rule="nonzero" fill-opacity="1" /></svg>
