<?xml version="1.0" encoding="utf-8"?>
<svg xmlns="http://www.w3.org/2000/svg" xmlns:xlink="http://www.w3.org/1999/xlink" width="600" height="400" viewBox="0 0 2400 1600">
<defs>
  <clipPath id="clip490">
    <rect x="0" y="0" width="2400" height="1600"/>
  </clipPath>
</defs>
<path clip-path="url(#clip490)" d="M0 1600 L2400 1600 L2400 0 L0 0  Z" fill="#ffffff" fill-rule="evenodd" fill-opacity="1"/>
<defs>
  <clipPath id="clip491">
    <rect x="480" y="0" width="1681" height="1600"/>
  </clipPath>
</defs>
<path clip-path="url(#clip490)" d="M230.996 1486.45 L2352.76 1486.45 L2352.76 47.2441 L230.996 47.2441  Z" fill="#ffffff" fill-rule="evenodd" fill-opacity="1"/>
<defs>
  <clipPath id="clip492">
    <rect x="230" y="47" width="2123" height="1440"/>
  </clipPath>
</defs>
<polyline clip-path="url(#clip492)" style="stroke:#000000; stroke-linecap:round; stroke-linejoin:round; stroke-width:2; stroke-opacity:0.1; fill:none" points="291.046,1486.45 291.046,47.2441 "/>
<polyline clip-path="url(#clip492)" style="stroke:#000000; stroke-linecap:round; stroke-linejoin:round; stroke-width:2; stroke-opacity:0.1; fill:none" points="791.461,1486.45 791.461,47.2441 "/>
<polyline clip-path="url(#clip492)" style="stroke:#000000; stroke-linecap:round; stroke-linejoin:round; stroke-width:2; stroke-opacity:0.1; fill:none" points="1291.88,1486.45 1291.88,47.2441 "/>
<polyline clip-path="url(#clip492)" style="stroke:#000000; stroke-linecap:round; stroke-linejoin:round; stroke-width:2; stroke-opacity:0.1; fill:none" points="1792.29,1486.45 1792.29,47.2441 "/>
<polyline clip-path="url(#clip492)" style="stroke:#000000; stroke-linecap:round; stroke-linejoin:round; stroke-width:2; stroke-opacity:0.1; fill:none" points="2292.71,1486.45 2292.71,47.2441 "/>
<polyline clip-path="url(#clip490)" style="stroke:#000000; stroke-linecap:round; stroke-linejoin:round; stroke-width:4; stroke-opacity:1; fill:none" points="230.996,1486.45 2352.76,1486.45 "/>
<polyline clip-path="url(#clip490)" style="stroke:#000000; stroke-linecap:round; stroke-linejoin:round; stroke-width:4; stroke-opacity:1; fill:none" points="291.046,1486.45 291.046,1467.55 "/>
<polyline clip-path="url(#clip490)" style="stroke:#000000; stroke-linecap:round; stroke-linejoin:round; stroke-width:4; stroke-opacity:1; fill:none" points="791.461,1486.45 791.461,1467.55 "/>
<polyline clip-path="url(#clip490)" style="stroke:#000000; stroke-linecap:round; stroke-linejoin:round; stroke-width:4; stroke-opacity:1; fill:none" points="1291.88,1486.45 1291.88,1467.55 "/>
<polyline clip-path="url(#clip490)" style="stroke:#000000; stroke-linecap:round; stroke-linejoin:round; stroke-width:4; stroke-opacity:1; fill:none" points="1792.29,1486.45 1792.29,1467.55 "/>
<polyline clip-path="url(#clip490)" style="stroke:#000000; stroke-linecap:round; stroke-linejoin:round; stroke-width:4; stroke-opacity:1; fill:none" points="2292.71,1486.45 2292.71,1467.55 "/>
<path clip-path="url(#clip490)" d="M291.046 1517.37 Q287.435 1517.37 285.606 1520.93 Q283.8 1524.47 283.8 1531.6 Q283.8 1538.71 285.606 1542.27 Q287.435 1545.82 291.046 1545.82 Q294.68 1545.82 296.486 1542.27 Q298.314 1538.71 298.314 1531.6 Q298.314 1524.47 296.486 1520.93 Q294.68 1517.37 291.046 1517.37 M291.046 1513.66 Q296.856 1513.66 299.911 1518.27 Q302.99 1522.85 302.99 1531.6 Q302.99 1540.33 299.911 1544.94 Q296.856 1549.52 291.046 1549.52 Q285.236 1549.52 282.157 1544.94 Q279.101 1540.33 279.101 1531.6 Q279.101 1522.85 282.157 1518.27 Q285.236 1513.66 291.046 1513.66 Z" fill="#000000" fill-rule="nonzero" fill-opacity="1" /><path clip-path="url(#clip490)" d="M751.079 1514.29 L769.436 1514.29 L769.436 1518.22 L755.362 1518.22 L755.362 1526.7 Q756.38 1526.35 757.399 1526.19 Q758.417 1526 759.436 1526 Q765.223 1526 768.602 1529.17 Q771.982 1532.34 771.982 1537.76 Q771.982 1543.34 768.51 1546.44 Q765.037 1549.52 758.718 1549.52 Q756.542 1549.52 754.274 1549.15 Q752.028 1548.78 749.621 1548.04 L749.621 1543.34 Q751.704 1544.47 753.926 1545.03 Q756.149 1545.58 758.625 1545.58 Q762.63 1545.58 764.968 1543.48 Q767.306 1541.37 767.306 1537.76 Q767.306 1534.15 764.968 1532.04 Q762.63 1529.94 758.625 1529.94 Q756.75 1529.94 754.875 1530.35 Q753.024 1530.77 751.079 1531.65 L751.079 1514.29 Z" fill="#000000" fill-rule="nonzero" fill-opacity="1" /><path clip-path="url(#clip490)" d="M791.195 1517.37 Q787.584 1517.37 785.755 1520.93 Q783.949 1524.47 783.949 1531.6 Q783.949 1538.71 785.755 1542.27 Q787.584 1545.82 791.195 1545.82 Q794.829 1545.82 796.634 1542.27 Q798.463 1538.71 798.463 1531.6 Q798.463 1524.47 796.634 1520.93 Q794.829 1517.37 791.195 1517.37 M791.195 1513.66 Q797.005 1513.66 800.06 1518.27 Q803.139 1522.85 803.139 1531.6 Q803.139 1540.33 800.06 1544.94 Q797.005 1549.52 791.195 1549.52 Q785.385 1549.52 782.306 1544.94 Q779.25 1540.33 779.25 1531.6 Q779.25 1522.85 782.306 1518.27 Q785.385 1513.66 791.195 1513.66 Z" fill="#000000" fill-rule="nonzero" fill-opacity="1" /><path clip-path="url(#clip490)" d="M821.357 1517.37 Q817.745 1517.37 815.917 1520.93 Q814.111 1524.47 814.111 1531.6 Q814.111 1538.71 815.917 1542.27 Q817.745 1545.82 821.357 1545.82 Q824.991 1545.82 826.796 1542.27 Q828.625 1538.71 828.625 1531.6 Q828.625 1524.47 826.796 1520.93 Q824.991 1517.37 821.357 1517.37 M821.357 1513.66 Q827.167 1513.66 830.222 1518.27 Q833.301 1522.85 833.301 1531.6 Q833.301 1540.33 830.222 1544.94 Q827.167 1549.52 821.357 1549.52 Q815.546 1549.52 812.468 1544.94 Q809.412 1540.33 809.412 1531.6 Q809.412 1522.85 812.468 1518.27 Q815.546 1513.66 821.357 1513.66 Z" fill="#000000" fill-rule="nonzero" fill-opacity="1" /><path clip-path="url(#clip490)" d="M1236.4 1544.91 L1244.04 1544.91 L1244.04 1518.55 L1235.73 1520.21 L1235.73 1515.95 L1243.99 1514.29 L1248.67 1514.29 L1248.67 1544.91 L1256.31 1544.91 L1256.31 1548.85 L1236.4 1548.85 L1236.4 1544.91 Z" fill="#000000" fill-rule="nonzero" fill-opacity="1" /><path clip-path="url(#clip490)" d="M1275.75 1517.37 Q1272.14 1517.37 1270.31 1520.93 Q1268.51 1524.47 1268.51 1531.6 Q1268.51 1538.71 1270.31 1542.27 Q1272.14 1545.82 1275.75 1545.82 Q1279.39 1545.82 1281.19 1542.27 Q1283.02 1538.71 1283.02 1531.6 Q1283.02 1524.47 1281.19 1520.93 Q1279.39 1517.37 1275.75 1517.37 M1275.75 1513.66 Q1281.56 1513.66 1284.62 1518.27 Q1287.7 1522.85 1287.7 1531.6 Q1287.7 1540.33 1284.62 1544.94 Q1281.56 1549.52 1275.75 1549.52 Q1269.94 1549.52 1266.86 1544.94 Q1263.81 1540.33 1263.81 1531.6 Q1263.81 1522.85 1266.86 1518.27 Q1269.94 1513.66 1275.75 1513.66 Z" fill="#000000" fill-rule="nonzero" fill-opacity="1" /><path clip-path="url(#clip490)" d="M1305.92 1517.37 Q1302.3 1517.37 1300.48 1520.93 Q1298.67 1524.47 1298.67 1531.6 Q1298.67 1538.71 1300.48 1542.27 Q1302.3 1545.82 1305.92 1545.82 Q1309.55 1545.82 1311.36 1542.27 Q1313.18 1538.71 1313.18 1531.6 Q1313.18 1524.47 1311.36 1520.93 Q1309.55 1517.37 1305.92 1517.37 M1305.92 1513.66 Q1311.73 1513.66 1314.78 1518.27 Q1317.86 1522.85 1317.86 1531.6 Q1317.86 1540.33 1314.78 1544.94 Q1311.73 1549.52 1305.92 1549.52 Q1300.11 1549.52 1297.03 1544.94 Q1293.97 1540.33 1293.97 1531.6 Q1293.97 1522.85 1297.03 1518.27 Q1300.11 1513.66 1305.92 1513.66 Z" fill="#000000" fill-rule="nonzero" fill-opacity="1" /><path clip-path="url(#clip490)" d="M1336.08 1517.37 Q1332.47 1517.37 1330.64 1520.93 Q1328.83 1524.47 1328.83 1531.6 Q1328.83 1538.71 1330.64 1542.27 Q1332.47 1545.82 1336.08 1545.82 Q1339.71 1545.82 1341.52 1542.27 Q1343.35 1538.71 1343.35 1531.6 Q1343.35 1524.47 1341.52 1520.93 Q1339.71 1517.37 1336.08 1517.37 M1336.08 1513.66 Q1341.89 1513.66 1344.94 1518.27 Q1348.02 1522.85 1348.02 1531.6 Q1348.02 1540.33 1344.94 1544.94 Q1341.89 1549.52 1336.08 1549.52 Q1330.27 1549.52 1327.19 1544.94 Q1324.13 1540.33 1324.13 1531.6 Q1324.13 1522.85 1327.19 1518.27 Q1330.27 1513.66 1336.08 1513.66 Z" fill="#000000" fill-rule="nonzero" fill-opacity="1" /><path clip-path="url(#clip490)" d="M1736.82 1544.91 L1744.46 1544.91 L1744.46 1518.55 L1736.15 1520.21 L1736.15 1515.95 L1744.41 1514.29 L1749.09 1514.29 L1749.09 1544.91 L1756.72 1544.91 L1756.72 1548.85 L1736.82 1548.85 L1736.82 1544.91 Z" fill="#000000" fill-rule="nonzero" fill-opacity="1" /><path clip-path="url(#clip490)" d="M1766.21 1514.29 L1784.57 1514.29 L1784.57 1518.22 L1770.5 1518.22 L1770.5 1526.7 Q1771.52 1526.35 1772.53 1526.19 Q1773.55 1526 1774.57 1526 Q1780.36 1526 1783.74 1529.17 Q1787.12 1532.34 1787.12 1537.76 Q1787.12 1543.34 1783.65 1546.44 Q1780.17 1549.52 1773.85 1549.52 Q1771.68 1549.52 1769.41 1549.15 Q1767.16 1548.78 1764.76 1548.04 L1764.76 1543.34 Q1766.84 1544.47 1769.06 1545.03 Q1771.28 1545.58 1773.76 1545.58 Q1777.77 1545.58 1780.1 1543.48 Q1782.44 1541.37 1782.44 1537.76 Q1782.44 1534.15 1780.1 1532.04 Q1777.77 1529.94 1773.76 1529.94 Q1771.89 1529.94 1770.01 1530.35 Q1768.16 1530.77 1766.21 1531.65 L1766.21 1514.29 Z" fill="#000000" fill-rule="nonzero" fill-opacity="1" /><path clip-path="url(#clip490)" d="M1806.33 1517.37 Q1802.72 1517.37 1800.89 1520.93 Q1799.08 1524.47 1799.08 1531.6 Q1799.08 1538.71 1800.89 1542.27 Q1802.72 1545.82 1806.33 1545.82 Q1809.96 1545.82 1811.77 1542.27 Q1813.6 1538.71 1813.6 1531.6 Q1813.6 1524.47 1811.77 1520.93 Q1809.96 1517.37 1806.33 1517.37 M1806.33 1513.66 Q1812.14 1513.66 1815.2 1518.27 Q1818.27 1522.85 1818.27 1531.6 Q1818.27 1540.33 1815.2 1544.94 Q1812.14 1549.52 1806.33 1549.52 Q1800.52 1549.52 1797.44 1544.94 Q1794.39 1540.33 1794.39 1531.6 Q1794.39 1522.85 1797.44 1518.27 Q1800.52 1513.66 1806.33 1513.66 Z" fill="#000000" fill-rule="nonzero" fill-opacity="1" /><path clip-path="url(#clip490)" d="M1836.49 1517.37 Q1832.88 1517.37 1831.05 1520.93 Q1829.25 1524.47 1829.25 1531.6 Q1829.25 1538.71 1831.05 1542.27 Q1832.88 1545.82 1836.49 1545.82 Q1840.13 1545.82 1841.93 1542.27 Q1843.76 1538.71 1843.76 1531.6 Q1843.76 1524.47 1841.93 1520.93 Q1840.13 1517.37 1836.49 1517.37 M1836.49 1513.66 Q1842.3 1513.66 1845.36 1518.27 Q1848.44 1522.85 1848.44 1531.6 Q1848.44 1540.33 1845.36 1544.94 Q1842.3 1549.52 1836.49 1549.52 Q1830.68 1549.52 1827.6 1544.94 Q1824.55 1540.33 1824.55 1531.6 Q1824.55 1522.85 1827.6 1518.27 Q1830.68 1513.66 1836.49 1513.66 Z" fill="#000000" fill-rule="nonzero" fill-opacity="1" /><path clip-path="url(#clip490)" d="M2241.32 1544.91 L2257.64 1544.91 L2257.64 1548.85 L2235.69 1548.85 L2235.69 1544.91 Q2238.35 1542.16 2242.94 1537.53 Q2247.54 1532.88 2248.72 1531.53 Q2250.97 1529.01 2251.85 1527.27 Q2252.75 1525.51 2252.75 1523.82 Q2252.75 1521.07 2250.81 1519.33 Q2248.89 1517.6 2245.79 1517.6 Q2243.59 1517.6 2241.13 1518.36 Q2238.7 1519.13 2235.92 1520.68 L2235.92 1515.95 Q2238.75 1514.82 2241.2 1514.24 Q2243.66 1513.66 2245.69 1513.66 Q2251.06 1513.66 2254.26 1516.35 Q2257.45 1519.03 2257.45 1523.52 Q2257.45 1525.65 2256.64 1527.57 Q2255.85 1529.47 2253.75 1532.07 Q2253.17 1532.74 2250.07 1535.95 Q2246.97 1539.15 2241.32 1544.91 Z" fill="#000000" fill-rule="nonzero" fill-opacity="1" /><path clip-path="url(#clip490)" d="M2277.45 1517.37 Q2273.84 1517.37 2272.01 1520.93 Q2270.21 1524.47 2270.21 1531.6 Q2270.21 1538.71 2272.01 1542.27 Q2273.84 1545.82 2277.45 1545.82 Q2281.09 1545.82 2282.89 1542.27 Q2284.72 1538.71 2284.72 1531.6 Q2284.72 1524.47 2282.89 1520.93 Q2281.09 1517.37 2277.45 1517.37 M2277.45 1513.66 Q2283.26 1513.66 2286.32 1518.27 Q2289.4 1522.85 2289.4 1531.6 Q2289.4 1540.33 2286.32 1544.94 Q2283.26 1549.52 2277.45 1549.52 Q2271.64 1549.52 2268.56 1544.94 Q2265.51 1540.33 2265.51 1531.6 Q2265.51 1522.85 2268.56 1518.27 Q2271.64 1513.66 2277.45 1513.66 Z" fill="#000000" fill-rule="nonzero" fill-opacity="1" /><path clip-path="url(#clip490)" d="M2307.61 1517.37 Q2304 1517.37 2302.17 1520.93 Q2300.37 1524.47 2300.37 1531.6 Q2300.37 1538.71 2302.17 1542.27 Q2304 1545.82 2307.61 1545.82 Q2311.25 1545.82 2313.05 1542.27 Q2314.88 1538.71 2314.88 1531.6 Q2314.88 1524.47 2313.05 1520.93 Q2311.25 1517.37 2307.61 1517.37 M2307.61 1513.66 Q2313.42 1513.66 2316.48 1518.27 Q2319.56 1522.85 2319.56 1531.6 Q2319.56 1540.33 2316.48 1544.94 Q2313.42 1549.52 2307.61 1549.52 Q2301.8 1549.52 2298.72 1544.94 Q2295.67 1540.33 2295.67 1531.6 Q2295.67 1522.85 2298.72 1518.27 Q2301.8 1513.66 2307.61 1513.66 Z" fill="#000000" fill-rule="nonzero" fill-opacity="1" /><path clip-path="url(#clip490)" d="M2337.78 1517.37 Q2334.16 1517.37 2332.34 1520.93 Q2330.53 1524.47 2330.53 1531.6 Q2330.53 1538.71 2332.34 1542.27 Q2334.16 1545.82 2337.78 1545.82 Q2341.41 1545.82 2343.22 1542.27 Q2345.04 1538.71 2345.04 1531.6 Q2345.04 1524.47 2343.22 1520.93 Q2341.41 1517.37 2337.78 1517.37 M2337.78 1513.66 Q2343.59 1513.66 2346.64 1518.27 Q2349.72 1522.85 2349.72 1531.6 Q2349.72 1540.33 2346.64 1544.94 Q2343.59 1549.52 2337.78 1549.52 Q2331.97 1549.52 2328.89 1544.94 Q2325.83 1540.33 2325.83 1531.6 Q2325.83 1522.85 2328.89 1518.27 Q2331.97 1513.66 2337.78 1513.66 Z" fill="#000000" fill-rule="nonzero" fill-opacity="1" /><polyline clip-path="url(#clip492)" style="stroke:#000000; stroke-linecap:round; stroke-linejoin:round; stroke-width:2; stroke-opacity:0.1; fill:none" points="230.996,1453.71 2352.76,1453.71 "/>
<polyline clip-path="url(#clip492)" style="stroke:#000000; stroke-linecap:round; stroke-linejoin:round; stroke-width:2; stroke-opacity:0.1; fill:none" points="230.996,1093.62 2352.76,1093.62 "/>
<polyline clip-path="url(#clip492)" style="stroke:#000000; stroke-linecap:round; stroke-linejoin:round; stroke-width:2; stroke-opacity:0.1; fill:none" points="230.996,733.523 2352.76,733.523 "/>
<polyline clip-path="url(#clip492)" style="stroke:#000000; stroke-linecap:round; stroke-linejoin:round; stroke-width:2; stroke-opacity:0.1; fill:none" points="230.996,373.429 2352.76,373.429 "/>
<polyline clip-path="url(#clip490)" style="stroke:#000000; stroke-linecap:round; stroke-linejoin:round; stroke-width:4; stroke-opacity:1; fill:none" points="230.996,1486.45 230.996,47.2441 "/>
<polyline clip-path="url(#clip490)" style="stroke:#000000; stroke-linecap:round; stroke-linejoin:round; stroke-width:4; stroke-opacity:1; fill:none" points="230.996,1453.71 249.894,1453.71 "/>
<polyline clip-path="url(#clip490)" style="stroke:#000000; stroke-linecap:round; stroke-linejoin:round; stroke-width:4; stroke-opacity:1; fill:none" points="230.996,1093.62 249.894,1093.62 "/>
<polyline clip-path="url(#clip490)" style="stroke:#000000; stroke-linecap:round; stroke-linejoin:round; stroke-width:4; stroke-opacity:1; fill:none" points="230.996,733.523 249.894,733.523 "/>
<polyline clip-path="url(#clip490)" style="stroke:#000000; stroke-linecap:round; stroke-linejoin:round; stroke-width:4; stroke-opacity:1; fill:none" points="230.996,373.429 249.894,373.429 "/>
<path clip-path="url(#clip490)" d="M52.4505 1436.43 L70.8068 1436.43 L70.8068 1440.37 L56.7328 1440.37 L56.7328 1448.84 Q57.7513 1448.49 58.7699 1448.33 Q59.7884 1448.14 60.8069 1448.14 Q66.5939 1448.14 69.9735 1451.31 Q73.3531 1454.49 73.3531 1459.9 Q73.3531 1465.48 69.8809 1468.58 Q66.4087 1471.66 60.0893 1471.66 Q57.9134 1471.66 55.6449 1471.29 Q53.3995 1470.92 50.9921 1470.18 L50.9921 1465.48 Q53.0754 1466.62 55.2977 1467.17 Q57.5199 1467.73 59.9967 1467.73 Q64.0013 1467.73 66.3393 1465.62 Q68.6772 1463.51 68.6772 1459.9 Q68.6772 1456.29 66.3393 1454.19 Q64.0013 1452.08 59.9967 1452.08 Q58.1217 1452.08 56.2467 1452.5 Q54.3949 1452.91 52.4505 1453.79 L52.4505 1436.43 Z" fill="#000000" fill-rule="nonzero" fill-opacity="1" /><path clip-path="url(#clip490)" d="M92.566 1439.51 Q88.9549 1439.51 87.1262 1443.07 Q85.3206 1446.62 85.3206 1453.75 Q85.3206 1460.85 87.1262 1464.42 Q88.9549 1467.96 92.566 1467.96 Q96.2002 1467.96 98.0058 1464.42 Q99.8345 1460.85 99.8345 1453.75 Q99.8345 1446.62 98.0058 1443.07 Q96.2002 1439.51 92.566 1439.51 M92.566 1435.81 Q98.3761 1435.81 101.432 1440.41 Q104.51 1445 104.51 1453.75 Q104.51 1462.47 101.432 1467.08 Q98.3761 1471.66 92.566 1471.66 Q86.7558 1471.66 83.6771 1467.08 Q80.6216 1462.47 80.6216 1453.75 Q80.6216 1445 83.6771 1440.41 Q86.7558 1435.81 92.566 1435.81 Z" fill="#000000" fill-rule="nonzero" fill-opacity="1" /><path clip-path="url(#clip490)" d="M122.728 1439.51 Q119.117 1439.51 117.288 1443.07 Q115.483 1446.62 115.483 1453.75 Q115.483 1460.85 117.288 1464.42 Q119.117 1467.96 122.728 1467.96 Q126.362 1467.96 128.168 1464.42 Q129.996 1460.85 129.996 1453.75 Q129.996 1446.62 128.168 1443.07 Q126.362 1439.51 122.728 1439.51 M122.728 1435.81 Q128.538 1435.81 131.594 1440.41 Q134.672 1445 134.672 1453.75 Q134.672 1462.47 131.594 1467.08 Q128.538 1471.66 122.728 1471.66 Q116.918 1471.66 113.839 1467.08 Q110.783 1462.47 110.783 1453.75 Q110.783 1445 113.839 1440.41 Q116.918 1435.81 122.728 1435.81 Z" fill="#000000" fill-rule="nonzero" fill-opacity="1" /><path clip-path="url(#clip490)" d="M152.89 1439.51 Q149.279 1439.51 147.45 1443.07 Q145.644 1446.62 145.644 1453.75 Q145.644 1460.85 147.45 1464.42 Q149.279 1467.96 152.89 1467.96 Q156.524 1467.96 158.33 1464.42 Q160.158 1460.85 160.158 1453.75 Q160.158 1446.62 158.33 1443.07 Q156.524 1439.51 152.89 1439.51 M152.89 1435.81 Q158.7 1435.81 161.755 1440.41 Q164.834 1445 164.834 1453.75 Q164.834 1462.47 161.755 1467.08 Q158.7 1471.66 152.89 1471.66 Q147.08 1471.66 144.001 1467.08 Q140.945 1462.47 140.945 1453.75 Q140.945 1445 144.001 1440.41 Q147.08 1435.81 152.89 1435.81 Z" fill="#000000" fill-rule="nonzero" fill-opacity="1" /><path clip-path="url(#clip490)" d="M183.052 1439.51 Q179.441 1439.51 177.612 1443.07 Q175.806 1446.62 175.806 1453.75 Q175.806 1460.85 177.612 1464.42 Q179.441 1467.96 183.052 1467.96 Q186.686 1467.96 188.491 1464.42 Q190.32 1460.85 190.32 1453.75 Q190.32 1446.62 188.491 1443.07 Q186.686 1439.51 183.052 1439.51 M183.052 1435.81 Q188.862 1435.81 191.917 1440.41 Q194.996 1445 194.996 1453.75 Q194.996 1462.47 191.917 1467.08 Q188.862 1471.66 183.052 1471.66 Q177.241 1471.66 174.163 1467.08 Q171.107 1462.47 171.107 1453.75 Q171.107 1445 174.163 1440.41 Q177.241 1435.81 183.052 1435.81 Z" fill="#000000" fill-rule="nonzero" fill-opacity="1" /><path clip-path="url(#clip490)" d="M52.4505 1076.34 L70.8068 1076.34 L70.8068 1080.27 L56.7328 1080.27 L56.7328 1088.74 Q57.7513 1088.4 58.7699 1088.24 Q59.7884 1088.05 60.8069 1088.05 Q66.5939 1088.05 69.9735 1091.22 Q73.3531 1094.39 73.3531 1099.81 Q73.3531 1105.39 69.8809 1108.49 Q66.4087 1111.57 60.0893 1111.57 Q57.9134 1111.57 55.6449 1111.2 Q53.3995 1110.83 50.9921 1110.09 L50.9921 1105.39 Q53.0754 1106.52 55.2977 1107.08 Q57.5199 1107.63 59.9967 1107.63 Q64.0013 1107.63 66.3393 1105.53 Q68.6772 1103.42 68.6772 1099.81 Q68.6772 1096.2 66.3393 1094.09 Q64.0013 1091.99 59.9967 1091.99 Q58.1217 1091.99 56.2467 1092.4 Q54.3949 1092.82 52.4505 1093.7 L52.4505 1076.34 Z" fill="#000000" fill-rule="nonzero" fill-opacity="1" /><path clip-path="url(#clip490)" d="M83.3762 1106.96 L91.0151 1106.96 L91.0151 1080.6 L82.7049 1082.26 L82.7049 1078 L90.9688 1076.34 L95.6447 1076.34 L95.6447 1106.96 L103.284 1106.96 L103.284 1110.9 L83.3762 1110.9 L83.3762 1106.96 Z" fill="#000000" fill-rule="nonzero" fill-opacity="1" /><path clip-path="url(#clip490)" d="M122.728 1079.42 Q119.117 1079.42 117.288 1082.98 Q115.483 1086.52 115.483 1093.65 Q115.483 1100.76 117.288 1104.32 Q119.117 1107.86 122.728 1107.86 Q126.362 1107.86 128.168 1104.32 Q129.996 1100.76 129.996 1093.65 Q129.996 1086.52 128.168 1082.98 Q126.362 1079.42 122.728 1079.42 M122.728 1075.71 Q128.538 1075.71 131.594 1080.32 Q134.672 1084.9 134.672 1093.65 Q134.672 1102.38 131.594 1106.98 Q128.538 1111.57 122.728 1111.57 Q116.918 1111.57 113.839 1106.98 Q110.783 1102.38 110.783 1093.65 Q110.783 1084.9 113.839 1080.32 Q116.918 1075.71 122.728 1075.71 Z" fill="#000000" fill-rule="nonzero" fill-opacity="1" /><path clip-path="url(#clip490)" d="M152.89 1079.42 Q149.279 1079.42 147.45 1082.98 Q145.644 1086.52 145.644 1093.65 Q145.644 1100.76 147.45 1104.32 Q149.279 1107.86 152.89 1107.86 Q156.524 1107.86 158.33 1104.32 Q160.158 1100.76 160.158 1093.65 Q160.158 1086.52 158.33 1082.98 Q156.524 1079.42 152.89 1079.42 M152.89 1075.71 Q158.7 1075.71 161.755 1080.32 Q164.834 1084.9 164.834 1093.65 Q164.834 1102.38 161.755 1106.98 Q158.7 1111.57 152.89 1111.57 Q147.08 1111.57 144.001 1106.98 Q140.945 1102.38 140.945 1093.65 Q140.945 1084.9 144.001 1080.32 Q147.08 1075.71 152.89 1075.71 Z" fill="#000000" fill-rule="nonzero" fill-opacity="1" /><path clip-path="url(#clip490)" d="M183.052 1079.42 Q179.441 1079.42 177.612 1082.98 Q175.806 1086.52 175.806 1093.65 Q175.806 1100.76 177.612 1104.32 Q179.441 1107.86 183.052 1107.86 Q186.686 1107.86 188.491 1104.32 Q190.32 1100.76 190.32 1093.65 Q190.32 1086.52 188.491 1082.98 Q186.686 1079.42 183.052 1079.42 M183.052 1075.71 Q188.862 1075.71 191.917 1080.32 Q194.996 1084.9 194.996 1093.65 Q194.996 1102.38 191.917 1106.98 Q188.862 1111.57 183.052 1111.57 Q177.241 1111.57 174.163 1106.98 Q171.107 1102.38 171.107 1093.65 Q171.107 1084.9 174.163 1080.32 Q177.241 1075.71 183.052 1075.71 Z" fill="#000000" fill-rule="nonzero" fill-opacity="1" /><path clip-path="url(#clip490)" d="M52.4505 716.243 L70.8068 716.243 L70.8068 720.178 L56.7328 720.178 L56.7328 728.65 Q57.7513 728.303 58.7699 728.141 Q59.7884 727.956 60.8069 727.956 Q66.5939 727.956 69.9735 731.127 Q73.3531 734.299 73.3531 739.715 Q73.3531 745.294 69.8809 748.396 Q66.4087 751.474 60.0893 751.474 Q57.9134 751.474 55.6449 751.104 Q53.3995 750.734 50.9921 749.993 L50.9921 745.294 Q53.0754 746.428 55.2977 746.984 Q57.5199 747.539 59.9967 747.539 Q64.0013 747.539 66.3393 745.433 Q68.6772 743.326 68.6772 739.715 Q68.6772 736.104 66.3393 733.998 Q64.0013 731.891 59.9967 731.891 Q58.1217 731.891 56.2467 732.308 Q54.3949 732.725 52.4505 733.604 L52.4505 716.243 Z" fill="#000000" fill-rule="nonzero" fill-opacity="1" /><path clip-path="url(#clip490)" d="M86.5938 746.868 L102.913 746.868 L102.913 750.803 L80.9688 750.803 L80.9688 746.868 Q83.6308 744.113 88.2141 739.484 Q92.8206 734.831 94.0012 733.488 Q96.2465 730.965 97.1261 729.229 Q98.0289 727.47 98.0289 725.78 Q98.0289 723.025 96.0845 721.289 Q94.1632 719.553 91.0614 719.553 Q88.8623 719.553 86.4086 720.317 Q83.9781 721.081 81.2003 722.632 L81.2003 717.91 Q84.0244 716.776 86.478 716.197 Q88.9317 715.618 90.9688 715.618 Q96.3391 715.618 99.5335 718.303 Q102.728 720.988 102.728 725.479 Q102.728 727.609 101.918 729.53 Q101.131 731.428 99.0243 734.021 Q98.4456 734.692 95.3437 737.91 Q92.2419 741.104 86.5938 746.868 Z" fill="#000000" fill-rule="nonzero" fill-opacity="1" /><path clip-path="url(#clip490)" d="M122.728 719.322 Q119.117 719.322 117.288 722.887 Q115.483 726.428 115.483 733.558 Q115.483 740.664 117.288 744.229 Q119.117 747.771 122.728 747.771 Q126.362 747.771 128.168 744.229 Q129.996 740.664 129.996 733.558 Q129.996 726.428 128.168 722.887 Q126.362 719.322 122.728 719.322 M122.728 715.618 Q128.538 715.618 131.594 720.225 Q134.672 724.808 134.672 733.558 Q134.672 742.285 131.594 746.891 Q128.538 751.474 122.728 751.474 Q116.918 751.474 113.839 746.891 Q110.783 742.285 110.783 733.558 Q110.783 724.808 113.839 720.225 Q116.918 715.618 122.728 715.618 Z" fill="#000000" fill-rule="nonzero" fill-opacity="1" /><path clip-path="url(#clip490)" d="M152.89 719.322 Q149.279 719.322 147.45 722.887 Q145.644 726.428 145.644 733.558 Q145.644 740.664 147.45 744.229 Q149.279 747.771 152.89 747.771 Q156.524 747.771 158.33 744.229 Q160.158 740.664 160.158 733.558 Q160.158 726.428 158.33 722.887 Q156.524 719.322 152.89 719.322 M152.89 715.618 Q158.7 715.618 161.755 720.225 Q164.834 724.808 164.834 733.558 Q164.834 742.285 161.755 746.891 Q158.7 751.474 152.89 751.474 Q147.08 751.474 144.001 746.891 Q140.945 742.285 140.945 733.558 Q140.945 724.808 144.001 720.225 Q147.08 715.618 152.89 715.618 Z" fill="#000000" fill-rule="nonzero" fill-opacity="1" /><path clip-path="url(#clip490)" d="M183.052 719.322 Q179.441 719.322 177.612 722.887 Q175.806 726.428 175.806 733.558 Q175.806 740.664 177.612 744.229 Q179.441 747.771 183.052 747.771 Q186.686 747.771 188.491 744.229 Q190.32 740.664 190.32 733.558 Q190.32 726.428 188.491 722.887 Q186.686 719.322 183.052 719.322 M183.052 715.618 Q188.862 715.618 191.917 720.225 Q194.996 724.808 194.996 733.558 Q194.996 742.285 191.917 746.891 Q188.862 751.474 183.052 751.474 Q177.241 751.474 174.163 746.891 Q171.107 742.285 171.107 733.558 Q171.107 724.808 174.163 720.225 Q177.241 715.618 183.052 715.618 Z" fill="#000000" fill-rule="nonzero" fill-opacity="1" /><path clip-path="url(#clip490)" d="M52.4505 356.149 L70.8068 356.149 L70.8068 360.084 L56.7328 360.084 L56.7328 368.557 Q57.7513 368.209 58.7699 368.047 Q59.7884 367.862 60.8069 367.862 Q66.5939 367.862 69.9735 371.033 Q73.3531 374.205 73.3531 379.621 Q73.3531 385.2 69.8809 388.302 Q66.4087 391.381 60.0893 391.381 Q57.9134 391.381 55.6449 391.01 Q53.3995 390.64 50.9921 389.899 L50.9921 385.2 Q53.0754 386.334 55.2977 386.89 Q57.5199 387.445 59.9967 387.445 Q64.0013 387.445 66.3393 385.339 Q68.6772 383.232 68.6772 379.621 Q68.6772 376.01 66.3393 373.904 Q64.0013 371.797 59.9967 371.797 Q58.1217 371.797 56.2467 372.214 Q54.3949 372.631 52.4505 373.51 L52.4505 356.149 Z" fill="#000000" fill-rule="nonzero" fill-opacity="1" /><path clip-path="url(#clip490)" d="M96.7326 372.075 Q100.089 372.793 101.964 375.061 Q103.862 377.33 103.862 380.663 Q103.862 385.779 100.344 388.58 Q96.8252 391.381 90.3438 391.381 Q88.1679 391.381 85.8531 390.941 Q83.5614 390.524 81.1077 389.668 L81.1077 385.154 Q83.0521 386.288 85.3669 386.867 Q87.6817 387.445 90.2049 387.445 Q94.603 387.445 96.8947 385.709 Q99.2095 383.973 99.2095 380.663 Q99.2095 377.607 97.0567 375.895 Q94.9271 374.158 91.1077 374.158 L87.0799 374.158 L87.0799 370.316 L91.2928 370.316 Q94.7419 370.316 96.5706 368.95 Q98.3993 367.561 98.3993 364.969 Q98.3993 362.307 96.5011 360.895 Q94.6262 359.459 91.1077 359.459 Q89.1864 359.459 86.9873 359.876 Q84.7882 360.293 82.1494 361.172 L82.1494 357.006 Q84.8114 356.265 87.1262 355.895 Q89.4641 355.524 91.5243 355.524 Q96.8484 355.524 99.9502 357.955 Q103.052 360.362 103.052 364.483 Q103.052 367.353 101.409 369.344 Q99.765 371.311 96.7326 372.075 Z" fill="#000000" fill-rule="nonzero" fill-opacity="1" /><path clip-path="url(#clip490)" d="M122.728 359.228 Q119.117 359.228 117.288 362.793 Q115.483 366.334 115.483 373.464 Q115.483 380.57 117.288 384.135 Q119.117 387.677 122.728 387.677 Q126.362 387.677 128.168 384.135 Q129.996 380.57 129.996 373.464 Q129.996 366.334 128.168 362.793 Q126.362 359.228 122.728 359.228 M122.728 355.524 Q128.538 355.524 131.594 360.131 Q134.672 364.714 134.672 373.464 Q134.672 382.191 131.594 386.797 Q128.538 391.381 122.728 391.381 Q116.918 391.381 113.839 386.797 Q110.783 382.191 110.783 373.464 Q110.783 364.714 113.839 360.131 Q116.918 355.524 122.728 355.524 Z" fill="#000000" fill-rule="nonzero" fill-opacity="1" /><path clip-path="url(#clip490)" d="M152.89 359.228 Q149.279 359.228 147.45 362.793 Q145.644 366.334 145.644 373.464 Q145.644 380.57 147.45 384.135 Q149.279 387.677 152.89 387.677 Q156.524 387.677 158.33 384.135 Q160.158 380.57 160.158 373.464 Q160.158 366.334 158.33 362.793 Q156.524 359.228 152.89 359.228 M152.89 355.524 Q158.7 355.524 161.755 360.131 Q164.834 364.714 164.834 373.464 Q164.834 382.191 161.755 386.797 Q158.7 391.381 152.89 391.381 Q147.08 391.381 144.001 386.797 Q140.945 382.191 140.945 373.464 Q140.945 364.714 144.001 360.131 Q147.08 355.524 152.89 355.524 Z" fill="#000000" fill-rule="nonzero" fill-opacity="1" /><path clip-path="url(#clip490)" d="M183.052 359.228 Q179.441 359.228 177.612 362.793 Q175.806 366.334 175.806 373.464 Q175.806 380.57 177.612 384.135 Q179.441 387.677 183.052 387.677 Q186.686 387.677 188.491 384.135 Q190.32 380.57 190.32 373.464 Q190.32 366.334 188.491 362.793 Q186.686 359.228 183.052 359.228 M183.052 355.524 Q188.862 355.524 191.917 360.131 Q194.996 364.714 194.996 373.464 Q194.996 382.191 191.917 386.797 Q188.862 391.381 183.052 391.381 Q177.241 391.381 174.163 386.797 Q171.107 382.191 171.107 373.464 Q171.107 364.714 174.163 360.131 Q177.241 355.524 183.052 355.524 Z" fill="#000000" fill-rule="nonzero" fill-opacity="1" /><polyline clip-path="url(#clip492)" style="stroke:#009af9; stroke-linecap:round; stroke-linejoin:round; stroke-width:4; stroke-opacity:1; fill:none" points="291.046,536.376 292.047,536.378 293.047,536.379 294.048,536.381 295.049,536.382 296.05,743.538 297.051,743.54 298.052,743.541 299.052,743.542 300.053,743.544 301.054,999.633 302.055,999.635 303.056,999.636 304.057,999.637 305.057,999.639 306.058,818.425 307.059,818.426 308.06,818.427 309.061,818.428 310.062,818.428 311.062,499.935 312.063,499.936 313.064,499.937 314.065,499.938 315.066,499.939 316.067,630.973 317.067,630.976 318.068,630.978 319.069,630.98 320.07,630.982 321.071,609.752 322.072,609.753 323.072,609.753 324.073,609.754 325.074,609.754 326.075,1062.54 327.076,1062.54 328.077,1062.54 329.077,1062.55 330.078,1062.55 331.079,671.172 332.08,671.174 333.081,671.176 334.081,671.178 335.082,671.181 336.083,724.836 337.084,724.837 338.085,724.838 339.086,724.839 340.086,724.84 341.087,648.684 342.088,648.688 343.089,648.691 344.09,648.695 345.091,648.699 346.091,638.212 347.092,638.214 348.093,638.215 349.094,638.216 350.095,638.217 351.096,994.632 352.096,994.633 353.097,994.633 354.098,994.634 355.099,994.635 356.1,743.004 357.101,743.01 358.101,743.016 359.102,743.021 360.103,743.027 361.104,349.684 362.105,349.686 363.106,349.687 364.106,349.689 365.107,349.691 366.108,494.658 367.109,494.662 368.11,494.665 369.111,494.668 370.111,494.671 371.112,709.108 372.113,709.11 373.114,709.112 374.115,709.114 375.116,709.115 376.116,843.395 377.117,843.397 378.118,843.4 379.119,843.403 380.12,843.405 381.121,561.855 382.121,561.856 383.122,561.856 384.123,561.857 385.124,561.858 386.125,827.411 387.125,827.414 388.126,827.416 389.127,827.419 390.128,827.422 391.129,1090.71 392.13,1090.71 393.13,1090.71 394.131,1090.71 395.132,1090.71 396.133,456.747 397.134,456.749 398.135,456.75 399.135,456.752 400.136,456.753 401.137,771.504 402.138,771.505 403.139,771.506 404.14,771.507 405.14,771.507 406.141,664.617 407.142,664.622 408.143,664.628 409.144,664.633 410.145,664.639 411.145,647.674 412.146,647.678 413.147,647.681 414.148,647.685 415.149,647.688 416.15,730.303 417.15,730.305 418.151,730.307 419.152,730.309 420.153,730.311 421.154,928.254 422.155,928.256 423.155,928.257 424.156,928.259 425.157,928.261 426.158,530.397 427.159,530.399 428.16,530.402 429.16,530.404 430.161,530.407 431.162,241.609 432.163,241.609 433.164,241.61 434.165,241.611 435.165,241.612 436.166,905.766 437.167,905.768 438.168,905.77 439.169,905.772 440.169,905.774 441.17,680.633 442.171,680.637 443.172,680.641 444.173,680.645 445.174,680.649 446.174,1190.84 447.175,1190.84 448.176,1190.85 449.177,1190.85 450.178,1190.86 451.179,502.959 452.179,502.962 453.18,502.966 454.181,502.969 455.182,502.972 456.183,909.017 457.184,909.018 458.184,909.019 459.185,909.02 460.186,909.021 461.187,915.763 462.188,915.765 463.189,915.766 464.189,915.768 465.19,915.769 466.191,505.47 467.192,505.473 468.193,505.476 469.194,505.479 470.194,505.482 471.195,645.969 472.196,645.972 473.197,645.974 474.198,645.976 475.199,645.979 476.199,461.981 477.2,461.983 478.201,461.985 479.202,461.987 480.203,461.989 481.204,628.199 482.204,628.203 483.205,628.206 484.206,628.21 485.207,628.213 486.208,642.498 487.209,642.501 488.209,642.504 489.21,642.507 490.211,642.51 491.212,415.57 492.213,415.573 493.213,415.576 494.214,415.579 495.215,415.583 496.216,588.549 497.217,588.55 498.218,588.551 499.218,588.551 500.219,588.552 501.22,779 502.221,779.001 503.222,779.002 504.223,779.003 505.223,779.004 506.224,1445.71 507.225,1445.71 508.226,1445.71 509.227,1445.71 510.228,1445.72 511.228,449.002 512.229,449.003 513.23,449.005 514.231,449.006 515.232,449.008 516.233,599.042 517.233,599.045 518.234,599.049 519.235,599.053 520.236,599.057 521.237,435.802 522.238,435.806 523.238,435.809 524.239,435.812 525.24,435.815 526.241,1280.2 527.242,1280.2 528.243,1280.2 529.243,1280.2 530.244,1280.2 531.245,1081.7 532.246,1081.7 533.247,1081.71 534.248,1081.71 535.248,1081.71 536.249,772.279 537.25,772.28 538.251,772.282 539.252,772.284 540.253,772.285 541.253,746.516 542.254,746.518 543.255,746.519 544.256,746.521 545.257,746.522 546.257,964.967 547.258,964.968 548.259,964.968 549.26,964.969 550.261,964.969 551.262,693.161 552.262,693.161 553.263,693.162 554.264,693.163 555.265,693.164 556.266,683.176 557.267,683.18 558.267,683.184 559.268,683.188 560.269,683.191 561.27,1079.6 562.271,1079.61 563.272,1079.61 564.272,1079.61 565.273,1079.61 566.274,665.448 567.275,665.451 568.276,665.453 569.277,665.455 570.277,665.458 571.278,616.002 572.279,616.004 573.28,616.006 574.281,616.008 575.282,616.01 576.282,811.49 577.283,811.495 578.284,811.501 579.285,811.506 580.286,811.511 581.287,1040.82 582.287,1040.82 583.288,1040.82 584.289,1040.83 585.29,1040.83 586.291,861.114 587.292,861.115 588.292,861.116 589.293,861.116 590.294,861.117 591.295,739.07 592.296,739.072 593.296,739.075 594.297,739.077 595.298,739.079 596.299,634.448 597.3,634.45 598.301,634.452 599.301,634.455 600.302,634.457 601.303,717.364 602.304,717.367 603.305,717.369 604.306,717.371 605.306,717.373 606.307,1154.42 607.308,1154.42 608.309,1154.42 609.31,1154.42 610.311,1154.42 611.311,646.232 612.312,646.234 613.313,646.237 614.314,646.239 615.315,646.241 616.316,808.374 617.316,808.375 618.317,808.376 619.318,808.377 620.319,808.378 621.32,777.342 622.321,777.344 623.321,777.346 624.322,777.348 625.323,777.35 626.324,864.561 627.325,864.562 628.326,864.563 629.326,864.564 630.327,864.564 631.328,760.487 632.329,760.49 633.33,760.492 634.331,760.495 635.331,760.498 636.332,818.328 637.333,818.331 638.334,818.333 639.335,818.335 640.336,818.337 641.336,632.748 642.337,632.751 643.338,632.754 644.339,632.757 645.34,632.76 646.34,498.248 647.341,498.251 648.342,498.255 649.343,498.259 650.344,498.262 651.345,816.461 652.345,816.463 653.346,816.464 654.347,816.466 655.348,816.468 656.349,830.091 657.35,830.094 658.35,830.097 659.351,830.101 660.352,830.104 661.353,955.209 662.354,955.213 663.355,955.217 664.355,955.222 665.356,955.226 666.357,876.736 667.358,876.739 668.359,876.742 669.36,876.745 670.36,876.748 671.361,709.554 672.362,709.556 673.363,709.559 674.364,709.561 675.365,709.563 676.365,626.216 677.366,626.218 678.367,626.219 679.368,626.221 680.369,626.222 681.37,809.633 682.37,809.635 683.371,809.636 684.372,809.638 685.373,809.639 686.374,560.823 687.375,560.825 688.375,560.828 689.376,560.83 690.377,560.832 691.378,560.054 692.379,560.057 693.38,560.06 694.38,560.063 695.381,560.066 696.382,742.817 697.383,742.818 698.384,742.82 699.384,742.821 700.385,742.822 701.386,634.156 702.387,634.159 703.388,634.162 704.389,634.165 705.389,634.167 706.39,684.92 707.391,684.923 708.392,684.926 709.393,684.929 710.394,684.933 711.394,773.281 712.395,773.289 713.396,773.296 714.397,773.303 715.398,773.31 716.399,616.335 717.399,616.338 718.4,616.34 719.401,616.343 720.402,616.345 721.403,636.761 722.404,636.762 723.404,636.763 724.405,636.765 725.406,636.766 726.407,877.853 727.408,877.855 728.409,877.858 729.409,877.86 730.41,877.862 731.411,1090.66 732.412,1090.66 733.413,1090.67 734.414,1090.67 735.414,1090.67 736.415,616.236 737.416,616.238 738.417,616.24 739.418,616.241 740.419,616.243 741.419,573.277 742.42,573.278 743.421,573.28 744.422,573.281 745.423,573.283 746.424,817.916 747.424,817.917 748.425,817.919 749.426,817.92 750.427,817.921 751.428,723.073 752.428,723.074 753.429,723.074 754.43,723.074 755.431,723.075 756.432,551.892 757.433,551.894 758.433,551.897 759.434,551.899 760.435,551.901 761.436,534.171 762.437,534.173 763.438,534.175 764.438,534.177 765.439,534.179 766.44,864.925 767.441,864.93 768.442,864.934 769.443,864.938 770.443,864.943 771.444,911.769 772.445,911.769 773.446,911.77 774.447,911.771 775.448,911.771 776.448,985.165 777.449,985.167 778.45,985.169 779.451,985.171 780.452,985.173 781.453,815.707 782.453,815.709 783.454,815.711 784.455,815.713 785.456,815.715 786.457,1027.13 787.458,1027.14 788.458,1027.14 789.459,1027.14 790.46,1027.15 791.461,608.543 792.462,608.545 793.463,608.547 794.463,608.548 795.464,608.55 796.465,712.573 797.466,712.573 798.467,712.574 799.468,712.574 800.468,712.575 801.469,545.732 802.47,545.737 803.471,545.743 804.472,545.748 805.472,545.753 806.473,831.936 807.474,831.936 808.475,831.937 809.476,831.938 810.477,831.939 811.477,588.59 812.478,588.591 813.479,588.593 814.48,588.595 815.481,588.596 816.482,1017.53 817.482,1017.53 818.483,1017.53 819.484,1017.53 820.485,1017.54 821.486,711.889 822.487,711.89 823.487,711.891 824.488,711.891 825.489,711.892 826.49,758.855 827.491,758.858 828.492,758.861 829.492,758.863 830.493,758.866 831.494,899.837 832.495,899.839 833.496,899.84 834.497,899.842 835.497,899.844 836.498,433.752 837.499,433.753 838.5,433.755 839.501,433.756 840.502,433.757 841.502,1158.1 842.503,1158.1 843.504,1158.1 844.505,1158.1 845.506,1158.1 846.507,648.668 847.507,648.668 848.508,648.668 849.509,648.669 850.51,648.669 851.511,477.762 852.512,477.764 853.512,477.766 854.513,477.768 855.514,477.77 856.515,1010.62 857.516,1010.63 858.516,1010.63 859.517,1010.63 860.518,1010.64 861.519,1098.22 862.52,1098.22 863.521,1098.22 864.521,1098.22 865.522,1098.22 866.523,802.922 867.524,802.923 868.525,802.923 869.526,802.923 870.526,802.923 871.527,703.408 872.528,703.411 873.529,703.413 874.53,703.415 875.531,703.418 876.531,444.965 877.532,444.967 878.533,444.968 879.534,444.97 880.535,444.971 881.536,1021.51 882.536,1021.51 883.537,1021.51 884.538,1021.52 885.539,1021.52 886.54,914.538 887.541,914.54 888.541,914.541 889.542,914.543 890.543,914.545 891.544,439.232 892.545,439.233 893.546,439.233 894.546,439.234 895.547,439.235 896.548,974.099 897.549,974.1 898.55,974.101 899.551,974.103 900.551,974.104 901.552,536.337 902.553,536.341 903.554,536.345 904.555,536.349 905.556,536.352 906.556,810.976 907.557,810.983 908.558,810.99 909.559,810.997 910.56,811.004 911.56,706.35 912.561,706.351 913.562,706.351 914.563,706.352 915.564,706.353 916.565,567.045 917.565,567.048 918.566,567.05 919.567,567.053 920.568,567.056 921.569,571.391 922.57,571.393 923.57,571.396 924.571,571.398 925.572,571.401 926.573,739.287 927.574,739.291 928.575,739.295 929.575,739.299 930.576,739.303 931.577,901.057 932.578,901.057 933.579,901.058 934.58,901.058 935.58,901.058 936.581,569.976 937.582,569.981 938.583,569.985 939.584,569.989 940.585,569.993 941.585,510.469 942.586,510.471 943.587,510.473 944.588,510.475 945.589,510.477 946.59,656.72 947.59,656.72 948.591,656.721 949.592,656.722 950.593,656.723 951.594,752.774 952.595,752.777 953.595,752.779 954.596,752.782 955.597,752.784 956.598,865.074 957.599,865.075 958.6,865.076 959.6,865.078 960.601,865.079 961.602,883.315 962.603,883.317 963.604,883.319 964.604,883.321 965.605,883.323 966.606,406.257 967.607,406.258 968.608,406.26 969.609,406.261 970.609,406.262 971.61,751.79 972.611,751.791 973.612,751.792 974.613,751.792 975.614,751.793 976.614,752.987 977.615,752.995 978.616,753.003 979.617,753.011 980.618,753.019 981.619,700.548 982.619,700.55 983.62,700.552 984.621,700.554 985.622,700.556 986.623,367.454 987.624,367.457 988.624,367.459 989.625,367.462 990.626,367.464 991.627,836.953 992.628,836.953 993.629,836.954 994.629,836.954 995.63,836.955 996.631,822.674 997.632,822.675 998.633,822.677 999.634,822.678 1000.63,822.679 1001.64,694.992 1002.64,694.998 1003.64,695.004 1004.64,695.01 1005.64,695.015 1006.64,325.905 1007.64,325.907 1008.64,325.908 1009.64,325.909 1010.64,325.91 1011.64,1025.15 1012.64,1025.15 1013.65,1025.16 1014.65,1025.16 1015.65,1025.16 1016.65,153.679 1017.65,153.681 1018.65,153.682 1019.65,153.684 1020.65,153.686 1021.65,1276.9 1022.65,1276.91 1023.65,1276.91 1024.65,1276.91 1025.66,1276.92 1026.66,1102.27 1027.66,1102.27 1028.66,1102.28 1029.66,1102.28 1030.66,1102.28 1031.66,1011.33 1032.66,1011.33 1033.66,1011.33 1034.66,1011.33 1035.66,1011.33 1036.66,979.478 1037.67,979.48 1038.67,979.483 1039.67,979.485 1040.67,979.487 1041.67,727.413 1042.67,727.416 1043.67,727.419 1044.67,727.422 1045.67,727.424 1046.67,1245.23 1047.67,1245.23 1048.67,1245.23 1049.68,1245.23 1050.68,1245.24 1051.68,563.357 1052.68,563.359 1053.68,563.362 1054.68,563.365 1055.68,563.367 1056.68,547.587 1057.68,547.587 1058.68,547.587 1059.68,547.588 1060.68,547.588 1061.69,1228.51 1062.69,1228.51 1063.69,1228.52 1064.69,1228.53 1065.69,1228.53 1066.69,886.655 1067.69,886.657 1068.69,886.659 1069.69,886.66 1070.69,886.662 1071.69,723.31 1072.69,723.311 1073.69,723.312 1074.7,723.313 1075.7,723.314 1076.7,333.967 1077.7,333.967 1078.7,333.968 1079.7,333.969 1080.7,333.97 1081.7,1022.58 1082.7,1022.58 1083.7,1022.58 1084.7,1022.58 1085.7,1022.58 1086.71,886.355 1087.71,886.356 1088.71,886.358 1089.71,886.359 1090.71,886.361 1091.71,837.706 1092.71,837.709 1093.71,837.712 1094.71,837.715 1095.71,837.717 1096.71,615.506 1097.71,615.507 1098.72,615.507 1099.72,615.508 1100.72,615.508 1101.72,596.129 1102.72,596.131 1103.72,596.133 1104.72,596.134 1105.72,596.136 1106.72,623.892 1107.72,623.895 1108.72,623.897 1109.72,623.9 1110.73,623.902 1111.73,802.181 1112.73,802.183 1113.73,802.185 1114.73,802.188 1115.73,802.19 1116.73,856.671 1117.73,856.673 1118.73,856.674 1119.73,856.675 1120.73,856.676 1121.73,805.56 1122.74,805.565 1123.74,805.57 1124.74,805.574 1125.74,805.579 1126.74,601.902 1127.74,601.911 1128.74,601.92 1129.74,601.929 1130.74,601.938 1131.74,682.43 1132.74,682.433 1133.74,682.437 1134.75,682.44 1135.75,682.443 1136.75,741.024 1137.75,741.025 1138.75,741.025 1139.75,741.025 1140.75,741.026 1141.75,1104.02 1142.75,1104.02 1143.75,1104.02 1144.75,1104.02 1145.75,1104.02 1146.76,713.64 1147.76,713.644 1148.76,713.647 1149.76,713.65 1150.76,713.653 1151.76,675.992 1152.76,675.994 1153.76,675.996 1154.76,675.998 1155.76,676 1156.76,959.483 1157.76,959.485 1158.77,959.487 1159.77,959.489 1160.77,959.491 1161.77,591.624 1162.77,591.627 1163.77,591.63 1164.77,591.632 1165.77,591.635 1166.77,614.894 1167.77,614.894 1168.77,614.895 1169.77,614.896 1170.78,614.897 1171.78,482.708 1172.78,482.709 1173.78,482.71 1174.78,482.71 1175.78,482.711 1176.78,514.61 1177.78,514.611 1178.78,514.613 1179.78,514.614 1180.78,514.616 1181.78,696.948 1182.79,696.951 1183.79,696.954 1184.79,696.957 1185.79,696.96 1186.79,672.001 1187.79,672.005 1188.79,672.009 1189.79,672.013 1190.79,672.017 1191.79,777.375 1192.79,777.377 1193.79,777.38 1194.8,777.382 1195.8,777.385 1196.8,644.253 1197.8,644.258 1198.8,644.262 1199.8,644.266 1200.8,644.271 1201.8,698.127 1202.8,698.128 1203.8,698.128 1204.8,698.129 1205.8,698.13 1206.81,1047.66 1207.81,1047.66 1208.81,1047.66 1209.81,1047.67 1210.81,1047.67 1211.81,690.564 1212.81,690.565 1213.81,690.566 1214.81,690.567 1215.81,690.568 1216.81,1066.2 1217.81,1066.2 1218.82,1066.2 1219.82,1066.21 1220.82,1066.21 1221.82,699.453 1222.82,699.455 1223.82,699.458 1224.82,699.46 1225.82,699.462 1226.82,879.339 1227.82,879.341 1228.82,879.342 1229.82,879.344 1230.83,879.345 1231.83,227.94 1232.83,227.943 1233.83,227.946 1234.83,227.948 1235.83,227.951 1236.83,186.037 1237.83,186.039 1238.83,186.041 1239.83,186.043 1240.83,186.045 1241.83,694.659 1242.84,694.661 1243.84,694.663 1244.84,694.664 1245.84,694.666 1246.84,790.911 1247.84,790.912 1248.84,790.913 1249.84,790.913 1250.84,790.914 1251.84,468.717 1252.84,468.719 1253.84,468.721 1254.85,468.723 1255.85,468.725 1256.85,895.954 1257.85,895.955 1258.85,895.956 1259.85,895.957 1260.85,895.958 1261.85,963.256 1262.85,963.258 1263.85,963.259 1264.85,963.261 1265.85,963.263 1266.86,631.771 1267.86,631.772 1268.86,631.773 1269.86,631.773 1270.86,631.774 1271.86,502.118 1272.86,502.12 1273.86,502.122 1274.86,502.124 1275.86,502.126 1276.86,811.573 1277.86,811.581 1278.87,811.589 1279.87,811.598 1280.87,811.606 1281.87,821.891 1282.87,821.892 1283.87,821.892 1284.87,821.892 1285.87,821.893 1286.87,701.814 1287.87,701.816 1288.87,701.819 1289.87,701.822 1290.88,701.824 1291.88,803.294 1292.88,803.299 1293.88,803.305 1294.88,803.311 1295.88,803.317 1296.88,844.816 1297.88,844.819 1298.88,844.821 1299.88,844.823 1300.88,844.826 1301.88,675.897 1302.89,675.9 1303.89,675.902 1304.89,675.904 1305.89,675.906 1306.89,441.275 1307.89,441.277 1308.89,441.278 1309.89,441.28 1310.89,441.281 1311.89,1293.16 1312.89,1293.17 1313.89,1293.17 1314.9,1293.17 1315.9,1293.18 1316.9,811.688 1317.9,811.693 1318.9,811.698 1319.9,811.702 1320.9,811.707 1321.9,751.247 1322.9,751.249 1323.9,751.252 1324.9,751.254 1325.9,751.256 1326.91,699.582 1327.91,699.584 1328.91,699.586 1329.91,699.588 1330.91,699.59 1331.91,548.086 1332.91,548.088 1333.91,548.091 1334.91,548.094 1335.91,548.097 1336.91,772.05 1337.91,772.051 1338.91,772.052 1339.92,772.052 1340.92,772.053 1341.92,901.095 1342.92,901.096 1343.92,901.098 1344.92,901.099 1345.92,901.101 1346.92,524.085 1347.92,524.086 1348.92,524.088 1349.92,524.09 1350.92,524.091 1351.93,859.37 1352.93,859.371 1353.93,859.371 1354.93,859.372 1355.93,859.373 1356.93,249.678 1357.93,249.684 1358.93,249.69 1359.93,249.697 1360.93,249.703 1361.93,763.724 1362.93,763.727 1363.94,763.731 1364.94,763.734 1365.94,763.737 1366.94,789.536 1367.94,789.536 1368.94,789.537 1369.94,789.538 1370.94,789.539 1371.94,597.856 1372.94,597.858 1373.94,597.86 1374.94,597.863 1375.95,597.865 1376.95,789.317 1377.95,789.32 1378.95,789.322 1379.95,789.324 1380.95,789.326 1381.95,780.002 1382.95,780.004 1383.95,780.006 1384.95,780.008 1385.95,780.01 1386.95,414.924 1387.96,414.928 1388.96,414.933 1389.96,414.938 1390.96,414.943 1391.96,968.784 1392.96,968.785 1393.96,968.787 1394.96,968.788 1395.96,968.79 1396.96,761.879 1397.96,761.881 1398.96,761.884 1399.97,761.887 1400.97,761.889 1401.97,875.162 1402.97,875.164 1403.97,875.166 1404.97,875.169 1405.97,875.171 1406.97,822.722 1407.97,822.723 1408.97,822.723 1409.97,822.723 1410.97,822.724 1411.98,1051.5 1412.98,1051.51 1413.98,1051.52 1414.98,1051.52 1415.98,1051.53 1416.98,591.534 1417.98,591.535 1418.98,591.535 1419.98,591.535 1420.98,591.535 1421.98,273.092 1422.98,273.093 1423.99,273.094 1424.99,273.095 1425.99,273.096 1426.99,730.399 1427.99,730.401 1428.99,730.403 1429.99,730.405 1430.99,730.408 1431.99,781.865 1432.99,781.867 1433.99,781.869 1434.99,781.871 1436,781.873 1437,911.149 1438,911.151 1439,911.152 1440,911.154 1441,911.155 1442,364.252 1443,364.255 1444,364.259 1445,364.262 1446,364.265 1447,639.736 1448.01,639.739 1449.01,639.742 1450.01,639.745 1451.01,639.749 1452.01,406.034 1453.01,406.036 1454.01,406.038 1455.01,406.039 1456.01,406.041 1457.01,599.27 1458.01,599.272 1459.01,599.273 1460.02,599.275 1461.02,599.276 1462.02,573.937 1463.02,573.94 1464.02,573.943 1465.02,573.945 1466.02,573.948 1467.02,683.26 1468.02,683.261 1469.02,683.263 1470.02,683.264 1471.02,683.266 1472.03,1010.46 1473.03,1010.47 1474.03,1010.47 1475.03,1010.47 1476.03,1010.47 1477.03,1290.86 1478.03,1290.86 1479.03,1290.86 1480.03,1290.86 1481.03,1290.86 1482.03,474.883 1483.03,474.884 1484.04,474.885 1485.04,474.886 1486.04,474.887 1487.04,555.496 1488.04,555.499 1489.04,555.502 1490.04,555.505 1491.04,555.508 1492.04,554.324 1493.04,554.326 1494.04,554.329 1495.04,554.331 1496.05,554.334 1497.05,1203.59 1498.05,1203.59 1499.05,1203.59 1500.05,1203.59 1501.05,1203.59 1502.05,722.497 1503.05,722.498 1504.05,722.499 1505.05,722.5 1506.05,722.501 1507.05,616.668 1508.06,616.669 1509.06,616.671 1510.06,616.673 1511.06,616.674 1512.06,415.9 1513.06,415.905 1514.06,415.91 1515.06,415.915 1516.06,415.92 1517.06,753.222 1518.06,753.223 1519.06,753.224 1520.07,753.224 1521.07,753.225 1522.07,1149.64 1523.07,1149.64 1524.07,1149.65 1525.07,1149.65 1526.07,1149.65 1527.07,828.303 1528.07,828.305 1529.07,828.307 1530.07,828.308 1531.07,828.31 1532.08,566.574 1533.08,566.576 1534.08,566.578 1535.08,566.58 1536.08,566.582 1537.08,1074.3 1538.08,1074.31 1539.08,1074.31 1540.08,1074.32 1541.08,1074.32 1542.08,1182.21 1543.08,1182.22 1544.09,1182.22 1545.09,1182.23 1546.09,1182.23 1547.09,909.038 1548.09,909.04 1549.09,909.042 1550.09,909.044 1551.09,909.046 1552.09,552.312 1553.09,552.315 1554.09,552.317 1555.09,552.319 1556.1,552.322 1557.1,913.644 1558.1,913.645 1559.1,913.646 1560.1,913.647 1561.1,913.648 1562.1,968.496 1563.1,968.499 1564.1,968.503 1565.1,968.507 1566.1,968.511 1567.1,673.968 1568.11,673.97 1569.11,673.973 1570.11,673.975 1571.11,673.977 1572.11,203.769 1573.11,203.771 1574.11,203.773 1575.11,203.775 1576.11,203.777 1577.11,621.554 1578.11,621.556 1579.11,621.559 1580.12,621.561 1581.12,621.563 1582.12,515.263 1583.12,515.265 1584.12,515.267 1585.12,515.269 1586.12,515.27 1587.12,946.584 1588.12,946.585 1589.12,946.587 1590.12,946.588 1591.12,946.59 1592.12,763.051 1593.13,763.052 1594.13,763.053 1595.13,763.054 1596.13,763.055 1597.13,897.738 1598.13,897.741 1599.13,897.744 1600.13,897.747 1601.13,897.75 1602.13,330.314 1603.13,330.319 1604.13,330.323 1605.14,330.327 1606.14,330.331 1607.14,995.186 1608.14,995.188 1609.14,995.191 1610.14,995.193 1611.14,995.196 1612.14,968.263 1613.14,968.266 1614.14,968.269 1615.14,968.272 1616.14,968.275 1617.15,1197.65 1618.15,1197.65 1619.15,1197.65 1620.15,1197.66 1621.15,1197.66 1622.15,853.201 1623.15,853.203 1624.15,853.206 1625.15,853.208 1626.15,853.211 1627.15,861.04 1628.15,861.045 1629.16,861.05 1630.16,861.054 1631.16,861.059 1632.16,918.511 1633.16,918.513 1634.16,918.514 1635.16,918.516 1636.16,918.518 1637.16,585.573 1638.16,585.576 1639.16,585.579 1640.16,585.583 1641.17,585.586 1642.17,856.589 1643.17,856.591 1644.17,856.594 1645.17,856.596 1646.17,856.598 1647.17,884.093 1648.17,884.094 1649.17,884.095 1650.17,884.095 1651.17,884.096 1652.17,735.831 1653.18,735.833 1654.18,735.834 1655.18,735.836 1656.18,735.838 1657.18,830.886 1658.18,830.889 1659.18,830.891 1660.18,830.893 1661.18,830.895 1662.18,303.032 1663.18,303.033 1664.18,303.034 1665.19,303.035 1666.19,303.036 1667.19,726.932 1668.19,726.934 1669.19,726.937 1670.19,726.939 1671.19,726.942 1672.19,473.292 1673.19,473.293 1674.19,473.294 1675.19,473.296 1676.19,473.297 1677.2,746.579 1678.2,746.58 1679.2,746.581 1680.2,746.582 1681.2,746.583 1682.2,949.894 1683.2,949.894 1684.2,949.895 1685.2,949.895 1686.2,949.896 1687.2,453.801 1688.2,453.804 1689.21,453.808 1690.21,453.811 1691.21,453.814 1692.21,534.659 1693.21,534.663 1694.21,534.666 1695.21,534.67 1696.21,534.674 1697.21,618.391 1698.21,618.393 1699.21,618.394 1700.21,618.396 1701.22,618.397 1702.22,638.543 1703.22,638.543 1704.22,638.544 1705.22,638.544 1706.22,638.545 1707.22,733.995 1708.22,733.996 1709.22,733.998 1710.22,734 1711.22,734.002 1712.22,730.107 1713.23,730.108 1714.23,730.109 1715.23,730.11 1716.23,730.111 1717.23,684.926 1718.23,684.929 1719.23,684.931 1720.23,684.933 1721.23,684.936 1722.23,609.961 1723.23,609.963 1724.23,609.965 1725.24,609.967 1726.24,609.97 1727.24,684.866 1728.24,684.869 1729.24,684.872 1730.24,684.875 1731.24,684.878 1732.24,1074.35 1733.24,1074.35 1734.24,1074.35 1735.24,1074.35 1736.24,1074.36 1737.25,697.176 1738.25,697.177 1739.25,697.177 1740.25,697.178 1741.25,697.179 1742.25,743.358 1743.25,743.358 1744.25,743.358 1745.25,743.358 1746.25,743.358 1747.25,1003.48 1748.25,1003.49 1749.26,1003.49 1750.26,1003.49 1751.26,1003.5 1752.26,777.145 1753.26,777.147 1754.26,777.149 1755.26,777.151 1756.26,777.153 1757.26,717.562 1758.26,717.564 1759.26,717.566 1760.26,717.567 1761.27,717.569 1762.27,354.85 1763.27,354.856 1764.27,354.861 1765.27,354.867 1766.27,354.872 1767.27,1015.53 1768.27,1015.54 1769.27,1015.54 1770.27,1015.54 1771.27,1015.54 1772.27,570.805 1773.28,570.808 1774.28,570.811 1775.28,570.814 1776.28,570.817 1777.28,901.216 1778.28,901.217 1779.28,901.218 1780.28,901.219 1781.28,901.22 1782.28,738.237 1783.28,738.238 1784.28,738.239 1785.29,738.239 1786.29,738.24 1787.29,608.931 1788.29,608.935 1789.29,608.938 1790.29,608.942 1791.29,608.945 1792.29,858.677 1793.29,858.683 1794.29,858.69 1795.29,858.696 1796.29,858.702 1797.3,667.297 1798.3,667.301 1799.3,667.305 1800.3,667.309 1801.3,667.312 1802.3,361.5 1803.3,361.5 1804.3,361.501 1805.3,361.501 1806.3,361.502 1807.3,792.332 1808.3,792.338 1809.31,792.344 1810.31,792.35 1811.31,792.357 1812.31,410.422 1813.31,410.423 1814.31,410.423 1815.31,410.424 1816.31,410.424 1817.31,1039.36 1818.31,1039.36 1819.31,1039.36 1820.31,1039.37 1821.32,1039.37 1822.32,1015.74 1823.32,1015.74 1824.32,1015.74 1825.32,1015.75 1826.32,1015.75 1827.32,349.036 1828.32,349.04 1829.32,349.044 1830.32,349.047 1831.32,349.051 1832.32,1028.85 1833.33,1028.85 1834.33,1028.86 1835.33,1028.86 1836.33,1028.87 1837.33,362.997 1838.33,362.999 1839.33,363.002 1840.33,363.004 1841.33,363.006 1842.33,87.9763 1843.33,87.9814 1844.33,87.9866 1845.34,87.9917 1846.34,87.9969 1847.34,585.658 1848.34,585.661 1849.34,585.665 1850.34,585.668 1851.34,585.672 1852.34,983.383 1853.34,983.386 1854.34,983.388 1855.34,983.391 1856.34,983.393 1857.34,582.961 1858.35,582.963 1859.35,582.965 1860.35,582.967 1861.35,582.969 1862.35,700.025 1863.35,700.027 1864.35,700.028 1865.35,700.03 1866.35,700.032 1867.35,515.215 1868.35,515.217 1869.35,515.219 1870.36,515.222 1871.36,515.224 1872.36,840.061 1873.36,840.063 1874.36,840.066 1875.36,840.068 1876.36,840.071 1877.36,797.461 1878.36,797.465 1879.36,797.468 1880.36,797.472 1881.36,797.476 1882.37,848.807 1883.37,848.809 1884.37,848.811 1885.37,848.813 1886.37,848.816 1887.37,333.111 1888.37,333.115 1889.37,333.118 1890.37,333.121 1891.37,333.125 1892.37,864.212 1893.37,864.213 1894.38,864.213 1895.38,864.214 1896.38,864.214 1897.38,714.981 1898.38,714.982 1899.38,714.982 1900.38,714.983 1901.38,714.984 1902.38,821.78 1903.38,821.784 1904.38,821.788 1905.38,821.792 1906.39,821.796 1907.39,844.691 1908.39,844.694 1909.39,844.698 1910.39,844.701 1911.39,844.704 1912.39,531.343 1913.39,531.345 1914.39,531.348 1915.39,531.35 1916.39,531.353 1917.39,553.305 1918.4,553.306 1919.4,553.308 1920.4,553.31 1921.4,553.311 1922.4,834.159 1923.4,834.162 1924.4,834.165 1925.4,834.169 1926.4,834.172 1927.4,953.725 1928.4,953.729 1929.4,953.732 1930.41,953.736 1931.41,953.739 1932.41,375.081 1933.41,375.083 1934.41,375.084 1935.41,375.086 1936.41,375.088 1937.41,807.017 1938.41,807.018 1939.41,807.02 1940.41,807.021 1941.41,807.023 1942.42,1075.84 1943.42,1075.84 1944.42,1075.84 1945.42,1075.84 1946.42,1075.84 1947.42,431.402 1948.42,431.407 1949.42,431.413 1950.42,431.418 1951.42,431.424 1952.42,678.388 1953.42,678.39 1954.43,678.391 1955.43,678.392 1956.43,678.393 1957.43,845.433 1958.43,845.436 1959.43,845.439 1960.43,845.442 1961.43,845.445 1962.43,985.389 1963.43,985.39 1964.43,985.39 1965.43,985.391 1966.44,985.392 1967.44,316.18 1968.44,316.182 1969.44,316.184 1970.44,316.187 1971.44,316.189 1972.44,412.818 1973.44,412.823 1974.44,412.828 1975.44,412.832 1976.44,412.837 1977.44,496.976 1978.45,496.979 1979.45,496.981 1980.45,496.984 1981.45,496.987 1982.45,824.58 1983.45,824.582 1984.45,824.585 1985.45,824.588 1986.45,824.59 1987.45,747.515 1988.45,747.515 1989.45,747.515 1990.46,747.516 1991.46,747.516 1992.46,770.455 1993.46,770.457 1994.46,770.46 1995.46,770.462 1996.46,770.465 1997.46,763.034 1998.46,763.037 1999.46,763.039 2000.46,763.041 2001.46,763.044 2002.47,863.547 2003.47,863.548 2004.47,863.549 2005.47,863.551 2006.47,863.552 2007.47,718.391 2008.47,718.393 2009.47,718.394 2010.47,718.396 2011.47,718.397 2012.47,570.471 2013.47,570.472 2014.48,570.474 2015.48,570.476 2016.48,570.477 2017.48,673.167 2018.48,673.168 2019.48,673.17 2020.48,673.171 2021.48,673.172 2022.48,720.145 2023.48,720.146 2024.48,720.148 2025.48,720.149 2026.49,720.151 2027.49,962.301 2028.49,962.302 2029.49,962.303 2030.49,962.304 2031.49,962.305 2032.49,947.858 2033.49,947.861 2034.49,947.863 2035.49,947.866 2036.49,947.868 2037.49,728.015 2038.5,728.018 2039.5,728.021 2040.5,728.024 2041.5,728.027 2042.5,510.365 2043.5,510.366 2044.5,510.368 2045.5,510.369 2046.5,510.371 2047.5,285.853 2048.5,285.855 2049.5,285.857 2050.51,285.858 2051.51,285.86 2052.51,455.312 2053.51,455.312 2054.51,455.313 2055.51,455.314 2056.51,455.314 2057.51,441.555 2058.51,441.556 2059.51,441.557 2060.51,441.559 2061.51,441.56 2062.52,1134.6 2063.52,1134.61 2064.52,1134.61 2065.52,1134.61 2066.52,1134.61 2067.52,427.092 2068.52,427.098 2069.52,427.103 2070.52,427.109 2071.52,427.115 2072.52,977.651 2073.52,977.652 2074.53,977.652 2075.53,977.653 2076.53,977.653 2077.53,764.924 2078.53,764.93 2079.53,764.936 2080.53,764.941 2081.53,764.947 2082.53,766.5 2083.53,766.5 2084.53,766.5 2085.53,766.5 2086.54,766.501 2087.54,1037.53 2088.54,1037.53 2089.54,1037.53 2090.54,1037.53 2091.54,1037.53 2092.54,892.349 2093.54,892.349 2094.54,892.35 2095.54,892.35 2096.54,892.35 2097.54,708.91 2098.55,708.911 2099.55,708.913 2100.55,708.914 2101.55,708.916 2102.55,341.384 2103.55,341.386 2104.55,341.388 2105.55,341.39 2106.55,341.392 2107.55,686.474 2108.55,686.479 2109.55,686.484 2110.56,686.489 2111.56,686.494 2112.56,774.757 2113.56,774.762 2114.56,774.766 2115.56,774.77 2116.56,774.774 2117.56,260.811 2118.56,260.811 2119.56,260.812 2120.56,260.813 2121.56,260.813 2122.56,455.951 2123.57,455.952 2124.57,455.953 2125.57,455.954 2126.57,455.955 2127.57,1233.25 2128.57,1233.25 2129.57,1233.25 2130.57,1233.25 2131.57,1233.25 2132.57,1084 2133.57,1084 2134.57,1084 2135.58,1084.01 2136.58,1084.01 2137.58,663.99 2138.58,663.991 2139.58,663.993 2140.58,663.994 2141.58,663.996 2142.58,337.616 2143.58,337.62 2144.58,337.623 2145.58,337.627 2146.58,337.631 2147.59,754.779 2148.59,754.78 2149.59,754.781 2150.59,754.782 2151.59,754.783 2152.59,956.834 2153.59,956.836 2154.59,956.839 2155.59,956.841 2156.59,956.844 2157.59,634.868 2158.59,634.87 2159.6,634.871 2160.6,634.872 2161.6,634.874 2162.6,583.757 2163.6,583.757 2164.6,583.758 2165.6,583.758 2166.6,583.759 2167.6,674.414 2168.6,674.416 2169.6,674.418 2170.6,674.42 2171.61,674.422 2172.61,566.994 2173.61,566.997 2174.61,566.999 2175.61,567.001 2176.61,567.004 2177.61,1113.61 2178.61,1113.61 2179.61,1113.61 2180.61,1113.61 2181.61,1113.62 2182.61,1013.07 2183.62,1013.07 2184.62,1013.07 2185.62,1013.07 2186.62,1013.08 2187.62,531.626 2188.62,531.629 2189.62,531.632 2190.62,531.634 2191.62,531.637 2192.62,839.727 2193.62,839.728 2194.62,839.729 2195.63,839.73 2196.63,839.731 2197.63,778.291 2198.63,778.291 2199.63,778.292 2200.63,778.293 2201.63,778.294 2202.63,881.813 2203.63,881.814 2204.63,881.815 2205.63,881.815 2206.63,881.816 2207.64,704.202 2208.64,704.206 2209.64,704.21 2210.64,704.214 2211.64,704.218 2212.64,895.979 2213.64,895.982 2214.64,895.984 2215.64,895.986 2216.64,895.988 2217.64,557.732 2218.64,557.734 2219.65,557.737 2220.65,557.74 2221.65,557.742 2222.65,941.473 2223.65,941.476 2224.65,941.478 2225.65,941.48 2226.65,941.483 2227.65,648.722 2228.65,648.724 2229.65,648.726 2230.65,648.727 2231.66,648.729 2232.66,994.482 2233.66,994.483 2234.66,994.484 2235.66,994.485 2236.66,994.487 2237.66,835.343 2238.66,835.346 2239.66,835.349 2240.66,835.353 2241.66,835.356 2242.66,473.055 2243.67,473.06 2244.67,473.064 2245.67,473.069 2246.67,473.074 2247.67,655.417 2248.67,655.42 2249.67,655.424 2250.67,655.427 2251.67,655.43 2252.67,532.344 2253.67,532.346 2254.67,532.349 2255.68,532.352 2256.68,532.355 2257.68,900.704 2258.68,900.706 2259.68,900.707 2260.68,900.708 2261.68,900.709 2262.68,1113.04 2263.68,1113.04 2264.68,1113.04 2265.68,1113.04 2266.68,1113.04 2267.69,773.11 2268.69,773.113 2269.69,773.116 2270.69,773.118 2271.69,773.121 2272.69,874.747 2273.69,874.75 2274.69,874.752 2275.69,874.755 2276.69,874.758 2277.69,937.305 2278.69,937.309 2279.7,937.312 2280.7,937.316 2281.7,937.319 2282.7,752.22 2283.7,752.224 2284.7,752.228 2285.7,752.232 2286.7,752.236 2287.7,580.537 2288.7,580.538 2289.7,580.54 2290.7,580.541 2291.71,580.543 2292.71,580.544 "/>
<path clip-path="url(#clip490)" d="M2017.42 1438.47 L2282.03 1438.47 L2282.03 1334.79 L2017.42 1334.79  Z" fill="#ffffff" fill-rule="evenodd" fill-opacity="1"/>
<polyline clip-path="url(#clip490)" style="stroke:#000000; stroke-linecap:round; stroke-linejoin:round; stroke-width:4; stroke-opacity:1; fill:none" points="2017.42,1438.47 2282.03,1438.47 2282.03,1334.79 2017.42,1334.79 2017.42,1438.47 "/>
<polyline clip-path="url(#clip490)" style="stroke:#009af9; stroke-linecap:round; stroke-linejoin:round; stroke-width:4; stroke-opacity:1; fill:none" points="2041,1386.63 2182.45,1386.63 "/>
<path clip-path="url(#clip490)" d="M2219.87 1406.32 Q2218.06 1410.95 2216.35 1412.36 Q2214.64 1413.78 2211.77 1413.78 L2208.36 1413.78 L2208.36 1410.21 L2210.86 1410.21 Q2212.62 1410.21 2213.59 1409.38 Q2214.57 1408.54 2215.75 1405.44 L2216.51 1403.5 L2206.03 1377.99 L2210.54 1377.99 L2218.64 1398.27 L2226.74 1377.99 L2231.26 1377.99 L2219.87 1406.32 Z" fill="#000000" fill-rule="nonzero" fill-opacity="1" /><path clip-path="url(#clip490)" d="M2238.55 1399.98 L2246.19 1399.98 L2246.19 1373.61 L2237.88 1375.28 L2237.88 1371.02 L2246.14 1369.35 L2250.82 1369.35 L2250.82 1399.98 L2258.46 1399.98 L2258.46 1403.91 L2238.55 1403.91 L2238.55 1399.98 Z" fill="#000000" fill-rule="nonzero" fill-opacity="1" /></svg>
