<?xml version="1.0" encoding="utf-8"?>
<svg xmlns="http://www.w3.org/2000/svg" xmlns:xlink="http://www.w3.org/1999/xlink" width="600" height="400" viewBox="0 0 2400 1600">
<defs>
  <clipPath id="clip690">
    <rect x="0" y="0" width="2400" height="1600"/>
  </clipPath>
</defs>
<path clip-path="url(#clip690)" d="M0 1600 L2400 1600 L2400 0 L0 0  Z" fill="#ffffff" fill-rule="evenodd" fill-opacity="1"/>
<defs>
  <clipPath id="clip691">
    <rect x="480" y="0" width="1681" height="1600"/>
  </clipPath>
</defs>
<path clip-path="url(#clip690)" d="M112.177 1486.45 L2352.76 1486.45 L2352.76 47.2441 L112.177 47.2441  Z" fill="#ffffff" fill-rule="evenodd" fill-opacity="1"/>
<defs>
  <clipPath id="clip692">
    <rect x="112" y="47" width="2242" height="1440"/>
  </clipPath>
</defs>
<polyline clip-path="url(#clip692)" style="stroke:#000000; stroke-linecap:round; stroke-linejoin:round; stroke-width:2; stroke-opacity:0.1; fill:none" points="175.59,1486.45 175.59,47.2441 "/>
<polyline clip-path="url(#clip692)" style="stroke:#000000; stroke-linecap:round; stroke-linejoin:round; stroke-width:2; stroke-opacity:0.1; fill:none" points="704.028,1486.45 704.028,47.2441 "/>
<polyline clip-path="url(#clip692)" style="stroke:#000000; stroke-linecap:round; stroke-linejoin:round; stroke-width:2; stroke-opacity:0.1; fill:none" points="1232.47,1486.45 1232.47,47.2441 "/>
<polyline clip-path="url(#clip692)" style="stroke:#000000; stroke-linecap:round; stroke-linejoin:round; stroke-width:2; stroke-opacity:0.1; fill:none" points="1760.9,1486.45 1760.9,47.2441 "/>
<polyline clip-path="url(#clip692)" style="stroke:#000000; stroke-linecap:round; stroke-linejoin:round; stroke-width:2; stroke-opacity:0.1; fill:none" points="2289.34,1486.45 2289.34,47.2441 "/>
<polyline clip-path="url(#clip690)" style="stroke:#000000; stroke-linecap:round; stroke-linejoin:round; stroke-width:4; stroke-opacity:1; fill:none" points="112.177,1486.45 2352.76,1486.45 "/>
<polyline clip-path="url(#clip690)" style="stroke:#000000; stroke-linecap:round; stroke-linejoin:round; stroke-width:4; stroke-opacity:1; fill:none" points="175.59,1486.45 175.59,1467.55 "/>
<polyline clip-path="url(#clip690)" style="stroke:#000000; stroke-linecap:round; stroke-linejoin:round; stroke-width:4; stroke-opacity:1; fill:none" points="704.028,1486.45 704.028,1467.55 "/>
<polyline clip-path="url(#clip690)" style="stroke:#000000; stroke-linecap:round; stroke-linejoin:round; stroke-width:4; stroke-opacity:1; fill:none" points="1232.47,1486.45 1232.47,1467.55 "/>
<polyline clip-path="url(#clip690)" style="stroke:#000000; stroke-linecap:round; stroke-linejoin:round; stroke-width:4; stroke-opacity:1; fill:none" points="1760.9,1486.45 1760.9,1467.55 "/>
<polyline clip-path="url(#clip690)" style="stroke:#000000; stroke-linecap:round; stroke-linejoin:round; stroke-width:4; stroke-opacity:1; fill:none" points="2289.34,1486.45 2289.34,1467.55 "/>
<path clip-path="url(#clip690)" d="M175.59 1517.37 Q171.979 1517.37 170.15 1520.93 Q168.344 1524.47 168.344 1531.6 Q168.344 1538.71 170.15 1542.27 Q171.979 1545.82 175.59 1545.82 Q179.224 1545.82 181.03 1542.27 Q182.858 1538.71 182.858 1531.6 Q182.858 1524.47 181.03 1520.93 Q179.224 1517.37 175.59 1517.37 M175.59 1513.66 Q181.4 1513.66 184.455 1518.27 Q187.534 1522.85 187.534 1531.6 Q187.534 1540.33 184.455 1544.94 Q181.4 1549.52 175.59 1549.52 Q169.78 1549.52 166.701 1544.94 Q163.645 1540.33 163.645 1531.6 Q163.645 1522.85 166.701 1518.27 Q169.78 1513.66 175.59 1513.66 Z" fill="#000000" fill-rule="nonzero" fill-opacity="1" /><path clip-path="url(#clip690)" d="M663.646 1514.29 L682.003 1514.29 L682.003 1518.22 L667.929 1518.22 L667.929 1526.7 Q668.947 1526.35 669.966 1526.19 Q670.984 1526 672.003 1526 Q677.79 1526 681.169 1529.17 Q684.549 1532.34 684.549 1537.76 Q684.549 1543.34 681.077 1546.44 Q677.605 1549.52 671.285 1549.52 Q669.109 1549.52 666.841 1549.15 Q664.596 1548.78 662.188 1548.04 L662.188 1543.34 Q664.271 1544.47 666.494 1545.03 Q668.716 1545.58 671.193 1545.58 Q675.197 1545.58 677.535 1543.48 Q679.873 1541.37 679.873 1537.76 Q679.873 1534.15 677.535 1532.04 Q675.197 1529.94 671.193 1529.94 Q669.318 1529.94 667.443 1530.35 Q665.591 1530.77 663.646 1531.65 L663.646 1514.29 Z" fill="#000000" fill-rule="nonzero" fill-opacity="1" /><path clip-path="url(#clip690)" d="M703.762 1517.37 Q700.151 1517.37 698.322 1520.93 Q696.517 1524.47 696.517 1531.6 Q696.517 1538.71 698.322 1542.27 Q700.151 1545.82 703.762 1545.82 Q707.396 1545.82 709.202 1542.27 Q711.03 1538.71 711.03 1531.6 Q711.03 1524.47 709.202 1520.93 Q707.396 1517.37 703.762 1517.37 M703.762 1513.66 Q709.572 1513.66 712.628 1518.27 Q715.706 1522.85 715.706 1531.6 Q715.706 1540.33 712.628 1544.94 Q709.572 1549.52 703.762 1549.52 Q697.952 1549.52 694.873 1544.94 Q691.818 1540.33 691.818 1531.6 Q691.818 1522.85 694.873 1518.27 Q697.952 1513.66 703.762 1513.66 Z" fill="#000000" fill-rule="nonzero" fill-opacity="1" /><path clip-path="url(#clip690)" d="M733.924 1517.37 Q730.313 1517.37 728.484 1520.93 Q726.679 1524.47 726.679 1531.6 Q726.679 1538.71 728.484 1542.27 Q730.313 1545.82 733.924 1545.82 Q737.558 1545.82 739.364 1542.27 Q741.192 1538.71 741.192 1531.6 Q741.192 1524.47 739.364 1520.93 Q737.558 1517.37 733.924 1517.37 M733.924 1513.66 Q739.734 1513.66 742.79 1518.27 Q745.868 1522.85 745.868 1531.6 Q745.868 1540.33 742.79 1544.94 Q739.734 1549.52 733.924 1549.52 Q728.114 1549.52 725.035 1544.94 Q721.979 1540.33 721.979 1531.6 Q721.979 1522.85 725.035 1518.27 Q728.114 1513.66 733.924 1513.66 Z" fill="#000000" fill-rule="nonzero" fill-opacity="1" /><path clip-path="url(#clip690)" d="M1176.99 1544.91 L1184.63 1544.91 L1184.63 1518.55 L1176.32 1520.21 L1176.32 1515.95 L1184.58 1514.29 L1189.26 1514.29 L1189.26 1544.91 L1196.9 1544.91 L1196.9 1548.85 L1176.99 1548.85 L1176.99 1544.91 Z" fill="#000000" fill-rule="nonzero" fill-opacity="1" /><path clip-path="url(#clip690)" d="M1216.34 1517.37 Q1212.73 1517.37 1210.9 1520.93 Q1209.1 1524.47 1209.1 1531.6 Q1209.1 1538.71 1210.9 1542.27 Q1212.73 1545.82 1216.34 1545.82 Q1219.98 1545.82 1221.78 1542.27 Q1223.61 1538.71 1223.61 1531.6 Q1223.61 1524.47 1221.78 1520.93 Q1219.98 1517.37 1216.34 1517.37 M1216.34 1513.66 Q1222.15 1513.66 1225.21 1518.27 Q1228.29 1522.85 1228.29 1531.6 Q1228.29 1540.33 1225.21 1544.94 Q1222.15 1549.52 1216.34 1549.52 Q1210.53 1549.52 1207.46 1544.94 Q1204.4 1540.33 1204.4 1531.6 Q1204.4 1522.85 1207.46 1518.27 Q1210.53 1513.66 1216.34 1513.66 Z" fill="#000000" fill-rule="nonzero" fill-opacity="1" /><path clip-path="url(#clip690)" d="M1246.51 1517.37 Q1242.89 1517.37 1241.07 1520.93 Q1239.26 1524.47 1239.26 1531.6 Q1239.26 1538.71 1241.07 1542.27 Q1242.89 1545.82 1246.51 1545.82 Q1250.14 1545.82 1251.95 1542.27 Q1253.77 1538.71 1253.77 1531.6 Q1253.77 1524.47 1251.95 1520.93 Q1250.14 1517.37 1246.51 1517.37 M1246.51 1513.66 Q1252.32 1513.66 1255.37 1518.27 Q1258.45 1522.85 1258.45 1531.6 Q1258.45 1540.33 1255.37 1544.94 Q1252.32 1549.52 1246.51 1549.52 Q1240.7 1549.52 1237.62 1544.94 Q1234.56 1540.33 1234.56 1531.6 Q1234.56 1522.85 1237.62 1518.27 Q1240.7 1513.66 1246.51 1513.66 Z" fill="#000000" fill-rule="nonzero" fill-opacity="1" /><path clip-path="url(#clip690)" d="M1276.67 1517.37 Q1273.06 1517.37 1271.23 1520.93 Q1269.42 1524.47 1269.42 1531.6 Q1269.42 1538.71 1271.23 1542.27 Q1273.06 1545.82 1276.67 1545.82 Q1280.3 1545.82 1282.11 1542.27 Q1283.94 1538.71 1283.94 1531.6 Q1283.94 1524.47 1282.11 1520.93 Q1280.3 1517.37 1276.67 1517.37 M1276.67 1513.66 Q1282.48 1513.66 1285.53 1518.27 Q1288.61 1522.85 1288.61 1531.6 Q1288.61 1540.33 1285.53 1544.94 Q1282.48 1549.52 1276.67 1549.52 Q1270.86 1549.52 1267.78 1544.94 Q1264.72 1540.33 1264.72 1531.6 Q1264.72 1522.85 1267.78 1518.27 Q1270.86 1513.66 1276.67 1513.66 Z" fill="#000000" fill-rule="nonzero" fill-opacity="1" /><path clip-path="url(#clip690)" d="M1705.43 1544.91 L1713.07 1544.91 L1713.07 1518.55 L1704.76 1520.21 L1704.76 1515.95 L1713.02 1514.29 L1717.7 1514.29 L1717.7 1544.91 L1725.34 1544.91 L1725.34 1548.85 L1705.43 1548.85 L1705.43 1544.91 Z" fill="#000000" fill-rule="nonzero" fill-opacity="1" /><path clip-path="url(#clip690)" d="M1734.83 1514.29 L1753.19 1514.29 L1753.19 1518.22 L1739.11 1518.22 L1739.11 1526.7 Q1740.13 1526.35 1741.15 1526.19 Q1742.17 1526 1743.19 1526 Q1748.97 1526 1752.35 1529.17 Q1755.73 1532.34 1755.73 1537.76 Q1755.73 1543.34 1752.26 1546.44 Q1748.79 1549.52 1742.47 1549.52 Q1740.29 1549.52 1738.02 1549.15 Q1735.78 1548.78 1733.37 1548.04 L1733.37 1543.34 Q1735.45 1544.47 1737.68 1545.03 Q1739.9 1545.58 1742.37 1545.58 Q1746.38 1545.58 1748.72 1543.48 Q1751.06 1541.37 1751.06 1537.76 Q1751.06 1534.15 1748.72 1532.04 Q1746.38 1529.94 1742.37 1529.94 Q1740.5 1529.94 1738.62 1530.35 Q1736.77 1530.77 1734.83 1531.65 L1734.83 1514.29 Z" fill="#000000" fill-rule="nonzero" fill-opacity="1" /><path clip-path="url(#clip690)" d="M1774.94 1517.37 Q1771.33 1517.37 1769.5 1520.93 Q1767.7 1524.47 1767.7 1531.6 Q1767.7 1538.71 1769.5 1542.27 Q1771.33 1545.82 1774.94 1545.82 Q1778.58 1545.82 1780.38 1542.27 Q1782.21 1538.71 1782.21 1531.6 Q1782.21 1524.47 1780.38 1520.93 Q1778.58 1517.37 1774.94 1517.37 M1774.94 1513.66 Q1780.75 1513.66 1783.81 1518.27 Q1786.89 1522.85 1786.89 1531.6 Q1786.89 1540.33 1783.81 1544.94 Q1780.75 1549.52 1774.94 1549.52 Q1769.13 1549.52 1766.06 1544.94 Q1763 1540.33 1763 1531.6 Q1763 1522.85 1766.06 1518.27 Q1769.13 1513.66 1774.94 1513.66 Z" fill="#000000" fill-rule="nonzero" fill-opacity="1" /><path clip-path="url(#clip690)" d="M1805.11 1517.37 Q1801.49 1517.37 1799.67 1520.93 Q1797.86 1524.47 1797.86 1531.6 Q1797.86 1538.71 1799.67 1542.27 Q1801.49 1545.82 1805.11 1545.82 Q1808.74 1545.82 1810.55 1542.27 Q1812.37 1538.71 1812.37 1531.6 Q1812.37 1524.47 1810.55 1520.93 Q1808.74 1517.37 1805.11 1517.37 M1805.11 1513.66 Q1810.92 1513.66 1813.97 1518.27 Q1817.05 1522.85 1817.05 1531.6 Q1817.05 1540.33 1813.97 1544.94 Q1810.92 1549.52 1805.11 1549.52 Q1799.3 1549.52 1796.22 1544.94 Q1793.16 1540.33 1793.16 1531.6 Q1793.16 1522.85 1796.22 1518.27 Q1799.3 1513.66 1805.11 1513.66 Z" fill="#000000" fill-rule="nonzero" fill-opacity="1" /><path clip-path="url(#clip690)" d="M2237.95 1544.91 L2254.27 1544.91 L2254.27 1548.85 L2232.33 1548.85 L2232.33 1544.91 Q2234.99 1542.16 2239.58 1537.53 Q2244.18 1532.88 2245.36 1531.53 Q2247.61 1529.01 2248.49 1527.27 Q2249.39 1525.51 2249.39 1523.82 Q2249.39 1521.07 2247.45 1519.33 Q2245.52 1517.6 2242.42 1517.6 Q2240.22 1517.6 2237.77 1518.36 Q2235.34 1519.13 2232.56 1520.68 L2232.56 1515.95 Q2235.39 1514.82 2237.84 1514.24 Q2240.29 1513.66 2242.33 1513.66 Q2247.7 1513.66 2250.89 1516.35 Q2254.09 1519.03 2254.09 1523.52 Q2254.09 1525.65 2253.28 1527.57 Q2252.49 1529.47 2250.39 1532.07 Q2249.81 1532.74 2246.7 1535.95 Q2243.6 1539.15 2237.95 1544.91 Z" fill="#000000" fill-rule="nonzero" fill-opacity="1" /><path clip-path="url(#clip690)" d="M2274.09 1517.37 Q2270.48 1517.37 2268.65 1520.93 Q2266.84 1524.47 2266.84 1531.6 Q2266.84 1538.71 2268.65 1542.27 Q2270.48 1545.82 2274.09 1545.82 Q2277.72 1545.82 2279.53 1542.27 Q2281.36 1538.71 2281.36 1531.6 Q2281.36 1524.47 2279.53 1520.93 Q2277.72 1517.37 2274.09 1517.37 M2274.09 1513.66 Q2279.9 1513.66 2282.95 1518.27 Q2286.03 1522.85 2286.03 1531.6 Q2286.03 1540.33 2282.95 1544.94 Q2279.9 1549.52 2274.09 1549.52 Q2268.28 1549.52 2265.2 1544.94 Q2262.14 1540.33 2262.14 1531.6 Q2262.14 1522.85 2265.2 1518.27 Q2268.28 1513.66 2274.09 1513.66 Z" fill="#000000" fill-rule="nonzero" fill-opacity="1" /><path clip-path="url(#clip690)" d="M2304.25 1517.37 Q2300.64 1517.37 2298.81 1520.93 Q2297.01 1524.47 2297.01 1531.6 Q2297.01 1538.71 2298.81 1542.27 Q2300.64 1545.82 2304.25 1545.82 Q2307.88 1545.82 2309.69 1542.27 Q2311.52 1538.71 2311.52 1531.6 Q2311.52 1524.47 2309.69 1520.93 Q2307.88 1517.37 2304.25 1517.37 M2304.25 1513.66 Q2310.06 1513.66 2313.12 1518.27 Q2316.2 1522.85 2316.2 1531.6 Q2316.2 1540.33 2313.12 1544.94 Q2310.06 1549.52 2304.25 1549.52 Q2298.44 1549.52 2295.36 1544.94 Q2292.31 1540.33 2292.31 1531.6 Q2292.31 1522.85 2295.36 1518.27 Q2298.44 1513.66 2304.25 1513.66 Z" fill="#000000" fill-rule="nonzero" fill-opacity="1" /><path clip-path="url(#clip690)" d="M2334.41 1517.37 Q2330.8 1517.37 2328.97 1520.93 Q2327.17 1524.47 2327.17 1531.6 Q2327.17 1538.71 2328.97 1542.27 Q2330.8 1545.82 2334.41 1545.82 Q2338.05 1545.82 2339.85 1542.27 Q2341.68 1538.71 2341.68 1531.6 Q2341.68 1524.47 2339.85 1520.93 Q2338.05 1517.37 2334.41 1517.37 M2334.41 1513.66 Q2340.22 1513.66 2343.28 1518.27 Q2346.36 1522.85 2346.36 1531.6 Q2346.36 1540.33 2343.28 1544.94 Q2340.22 1549.52 2334.41 1549.52 Q2328.6 1549.52 2325.52 1544.94 Q2322.47 1540.33 2322.47 1531.6 Q2322.47 1522.85 2325.52 1518.27 Q2328.6 1513.66 2334.41 1513.66 Z" fill="#000000" fill-rule="nonzero" fill-opacity="1" /><polyline clip-path="url(#clip692)" style="stroke:#000000; stroke-linecap:round; stroke-linejoin:round; stroke-width:2; stroke-opacity:0.1; fill:none" points="112.177,1307.95 2352.76,1307.95 "/>
<polyline clip-path="url(#clip692)" style="stroke:#000000; stroke-linecap:round; stroke-linejoin:round; stroke-width:2; stroke-opacity:0.1; fill:none" points="112.177,1071.87 2352.76,1071.87 "/>
<polyline clip-path="url(#clip692)" style="stroke:#000000; stroke-linecap:round; stroke-linejoin:round; stroke-width:2; stroke-opacity:0.1; fill:none" points="112.177,835.783 2352.76,835.783 "/>
<polyline clip-path="url(#clip692)" style="stroke:#000000; stroke-linecap:round; stroke-linejoin:round; stroke-width:2; stroke-opacity:0.1; fill:none" points="112.177,599.699 2352.76,599.699 "/>
<polyline clip-path="url(#clip692)" style="stroke:#000000; stroke-linecap:round; stroke-linejoin:round; stroke-width:2; stroke-opacity:0.1; fill:none" points="112.177,363.615 2352.76,363.615 "/>
<polyline clip-path="url(#clip692)" style="stroke:#000000; stroke-linecap:round; stroke-linejoin:round; stroke-width:2; stroke-opacity:0.1; fill:none" points="112.177,127.531 2352.76,127.531 "/>
<polyline clip-path="url(#clip690)" style="stroke:#000000; stroke-linecap:round; stroke-linejoin:round; stroke-width:4; stroke-opacity:1; fill:none" points="112.177,1486.45 112.177,47.2441 "/>
<polyline clip-path="url(#clip690)" style="stroke:#000000; stroke-linecap:round; stroke-linejoin:round; stroke-width:4; stroke-opacity:1; fill:none" points="112.177,1307.95 131.075,1307.95 "/>
<polyline clip-path="url(#clip690)" style="stroke:#000000; stroke-linecap:round; stroke-linejoin:round; stroke-width:4; stroke-opacity:1; fill:none" points="112.177,1071.87 131.075,1071.87 "/>
<polyline clip-path="url(#clip690)" style="stroke:#000000; stroke-linecap:round; stroke-linejoin:round; stroke-width:4; stroke-opacity:1; fill:none" points="112.177,835.783 131.075,835.783 "/>
<polyline clip-path="url(#clip690)" style="stroke:#000000; stroke-linecap:round; stroke-linejoin:round; stroke-width:4; stroke-opacity:1; fill:none" points="112.177,599.699 131.075,599.699 "/>
<polyline clip-path="url(#clip690)" style="stroke:#000000; stroke-linecap:round; stroke-linejoin:round; stroke-width:4; stroke-opacity:1; fill:none" points="112.177,363.615 131.075,363.615 "/>
<polyline clip-path="url(#clip690)" style="stroke:#000000; stroke-linecap:round; stroke-linejoin:round; stroke-width:4; stroke-opacity:1; fill:none" points="112.177,127.531 131.075,127.531 "/>
<path clip-path="url(#clip690)" d="M56.2699 1321.3 L63.9087 1321.3 L63.9087 1294.93 L55.5986 1296.6 L55.5986 1292.34 L63.8624 1290.67 L68.5383 1290.67 L68.5383 1321.3 L76.1772 1321.3 L76.1772 1325.23 L56.2699 1325.23 L56.2699 1321.3 Z" fill="#000000" fill-rule="nonzero" fill-opacity="1" /><path clip-path="url(#clip690)" d="M59.8578 1085.21 L76.1772 1085.21 L76.1772 1089.15 L54.2328 1089.15 L54.2328 1085.21 Q56.8949 1082.46 61.4782 1077.83 Q66.0846 1073.17 67.2652 1071.83 Q69.5105 1069.31 70.3902 1067.57 Q71.2929 1065.81 71.2929 1064.12 Q71.2929 1061.37 69.3485 1059.63 Q67.4272 1057.9 64.3254 1057.9 Q62.1263 1057.9 59.6726 1058.66 Q57.2421 1059.42 54.4643 1060.98 L54.4643 1056.25 Q57.2884 1055.12 59.7421 1054.54 Q62.1958 1053.96 64.2328 1053.96 Q69.6031 1053.96 72.7976 1056.65 Q75.992 1059.33 75.992 1063.82 Q75.992 1065.95 75.1818 1067.87 Q74.3948 1069.77 72.2883 1072.36 Q71.7096 1073.04 68.6078 1076.25 Q65.5059 1079.45 59.8578 1085.21 Z" fill="#000000" fill-rule="nonzero" fill-opacity="1" /><path clip-path="url(#clip690)" d="M69.0476 834.428 Q72.404 835.146 74.279 837.415 Q76.1772 839.683 76.1772 843.016 Q76.1772 848.132 72.6587 850.933 Q69.1402 853.734 62.6587 853.734 Q60.4828 853.734 58.168 853.294 Q55.8764 852.877 53.4227 852.021 L53.4227 847.507 Q55.3671 848.641 57.6819 849.22 Q59.9967 849.799 62.5198 849.799 Q66.918 849.799 69.2096 848.063 Q71.5244 846.327 71.5244 843.016 Q71.5244 839.961 69.3717 838.248 Q67.242 836.512 63.4226 836.512 L59.3949 836.512 L59.3949 832.669 L63.6078 832.669 Q67.0569 832.669 68.8855 831.303 Q70.7142 829.915 70.7142 827.322 Q70.7142 824.66 68.8161 823.248 Q66.9411 821.813 63.4226 821.813 Q61.5013 821.813 59.3023 822.229 Q57.1032 822.646 54.4643 823.526 L54.4643 819.359 Q57.1264 818.618 59.4412 818.248 Q61.7791 817.878 63.8393 817.878 Q69.1633 817.878 72.2652 820.308 Q75.367 822.716 75.367 826.836 Q75.367 829.706 73.7235 831.697 Q72.08 833.665 69.0476 834.428 Z" fill="#000000" fill-rule="nonzero" fill-opacity="1" /><path clip-path="url(#clip690)" d="M66.5939 586.493 L54.7884 604.942 L66.5939 604.942 L66.5939 586.493 M65.367 582.419 L71.2466 582.419 L71.2466 604.942 L76.1772 604.942 L76.1772 608.831 L71.2466 608.831 L71.2466 616.979 L66.5939 616.979 L66.5939 608.831 L50.9921 608.831 L50.9921 604.317 L65.367 582.419 Z" fill="#000000" fill-rule="nonzero" fill-opacity="1" /><path clip-path="url(#clip690)" d="M55.2745 346.335 L73.6309 346.335 L73.6309 350.27 L59.5569 350.27 L59.5569 358.742 Q60.5754 358.395 61.5939 358.233 Q62.6124 358.048 63.6309 358.048 Q69.418 358.048 72.7976 361.219 Q76.1772 364.39 76.1772 369.807 Q76.1772 375.385 72.705 378.487 Q69.2328 381.566 62.9134 381.566 Q60.7374 381.566 58.4689 381.196 Q56.2236 380.825 53.8162 380.084 L53.8162 375.385 Q55.8995 376.52 58.1217 377.075 Q60.3439 377.631 62.8208 377.631 Q66.8254 377.631 69.1633 375.524 Q71.5013 373.418 71.5013 369.807 Q71.5013 366.196 69.1633 364.089 Q66.8254 361.983 62.8208 361.983 Q60.9458 361.983 59.0708 362.399 Q57.2189 362.816 55.2745 363.696 L55.2745 346.335 Z" fill="#000000" fill-rule="nonzero" fill-opacity="1" /><path clip-path="url(#clip690)" d="M64.6495 125.667 Q61.5013 125.667 59.6495 127.82 Q57.8208 129.973 57.8208 133.723 Q57.8208 137.45 59.6495 139.626 Q61.5013 141.778 64.6495 141.778 Q67.7976 141.778 69.6263 139.626 Q71.4781 137.45 71.4781 133.723 Q71.4781 129.973 69.6263 127.82 Q67.7976 125.667 64.6495 125.667 M73.9318 111.015 L73.9318 115.274 Q72.1726 114.44 70.367 114.001 Q68.5846 113.561 66.8254 113.561 Q62.1958 113.561 59.7421 116.686 Q57.3115 119.811 56.9643 126.13 Q58.33 124.116 60.3902 123.052 Q62.4504 121.964 64.9272 121.964 Q70.1355 121.964 73.1448 125.135 Q76.1772 128.283 76.1772 133.723 Q76.1772 139.047 73.029 142.264 Q69.8809 145.482 64.6495 145.482 Q58.6541 145.482 55.4828 140.899 Q52.3116 136.292 52.3116 127.565 Q52.3116 119.371 56.2004 114.51 Q60.0893 109.626 66.6402 109.626 Q68.3994 109.626 70.1818 109.973 Q71.9874 110.32 73.9318 111.015 Z" fill="#000000" fill-rule="nonzero" fill-opacity="1" /><polyline clip-path="url(#clip692)" style="stroke:#009af9; stroke-linecap:round; stroke-linejoin:round; stroke-width:4; stroke-opacity:1; fill:none" points="175.59,1255.32 176.647,1255.36 177.704,1078.58 178.76,1078.66 179.817,1262.41 180.874,1262.48 181.931,1266.86 182.988,1266.9 184.045,1305.43 185.102,1305.46 186.159,918.43 187.215,918.636 188.272,1265.08 189.329,1265.14 190.386,1236.11 191.443,1236.17 192.5,1080.34 193.557,1080.42 194.614,1344.33 195.67,1344.36 196.727,1331.11 197.784,1331.14 198.841,1107.62 199.898,1107.72 200.955,1157.54 202.012,1157.59 203.069,1355.9 204.125,1355.91 205.182,1329.26 206.239,1329.29 207.296,1114.27 208.353,1114.33 209.41,1168.08 210.467,1168.17 211.524,1016.24 212.58,1016.34 213.637,984.218 214.694,984.467 215.751,998.548 216.808,998.667 217.865,896.34 218.922,896.478 219.979,835.391 221.035,835.554 222.092,937.443 223.149,937.578 224.206,1132.77 225.263,1132.9 226.32,1232.21 227.377,1232.27 228.434,1025.12 229.49,1025.22 230.547,965.032 231.604,965.182 232.661,1146.99 233.718,1147.07 234.775,1233.42 235.832,1233.44 236.889,1410.06 237.946,1410.08 239.002,1051.46 240.059,1051.58 241.116,1080.69 242.173,1080.78 243.23,1298.05 244.287,1298.07 245.344,1445.69 246.401,1445.72 247.457,1007.24 248.514,1007.36 249.571,1205.48 250.628,1205.54 251.685,1022.94 252.742,1023.06 253.799,870.917 254.856,871.02 255.912,812.224 256.969,812.487 258.026,1037.02 259.083,1037.12 260.14,938.481 261.197,938.608 262.254,1115.9 263.311,1115.96 264.367,914.733 265.424,914.894 266.481,1168.87 267.538,1168.97 268.595,1270.51 269.652,1270.53 270.709,1172.09 271.766,1172.16 272.822,1274.8 273.879,1274.83 274.936,1212.04 275.993,1212.08 277.05,1124.1 278.107,1124.16 279.164,1238.22 280.221,1238.25 281.277,1336.13 282.334,1336.16 283.391,1266.39 284.448,1266.42 285.505,1301.57 286.562,1301.61 287.619,1210.56 288.676,1210.65 289.732,1299.26 290.789,1299.3 291.846,857.302 292.903,857.439 293.96,1001.56 295.017,1001.73 296.074,760.241 297.131,760.414 298.187,1032.74 299.244,1032.89 300.301,1132.91 301.358,1132.97 302.415,1216.16 303.472,1216.28 304.529,976.526 305.586,976.635 306.642,1311.64 307.699,1311.66 308.756,990.697 309.813,990.812 310.87,1392.36 311.927,1392.38 312.984,1161.91 314.041,1161.96 315.098,961.588 316.154,961.78 317.211,979.89 318.268,980.044 319.325,1243.19 320.382,1243.25 321.439,1374.47 322.496,1374.49 323.553,886.685 324.609,886.873 325.666,1131.52 326.723,1131.63 327.78,1032.78 328.837,1032.9 329.894,1204.8 330.951,1204.83 332.008,1133.31 333.064,1133.37 334.121,1136.54 335.178,1136.61 336.235,1109.37 337.292,1109.45 338.349,1274.65 339.406,1274.69 340.463,1020.04 341.519,1020.13 342.576,727.038 343.633,727.183 344.69,1247.82 345.747,1247.87 346.804,939.236 347.861,939.409 348.918,1154.28 349.974,1154.35 351.031,1282.43 352.088,1282.47 353.145,702.949 354.202,703.16 355.259,1305.11 356.316,1305.14 357.373,1134.62 358.429,1134.74 359.486,1037.2 360.543,1037.33 361.6,997.585 362.657,997.716 363.714,858.503 364.771,858.618 365.828,735.224 366.884,735.431 367.941,561.057 368.998,561.359 370.055,924.309 371.112,924.462 372.169,1104.34 373.226,1104.42 374.283,630.958 375.339,631.197 376.396,1279.75 377.453,1279.78 378.51,1118.61 379.567,1118.72 380.624,1257.49 381.681,1257.54 382.738,1241.4 383.795,1241.44 384.851,1208.04 385.908,1208.1 386.965,751.415 388.022,751.634 389.079,966.433 390.136,966.56 391.193,1133 392.25,1133.07 393.306,1411.67 394.363,1411.7 395.42,1120.22 396.477,1120.36 397.534,1173.61 398.591,1173.65 399.648,730.734 400.705,730.868 401.761,1271.53 402.818,1271.56 403.875,1323.58 404.932,1323.6 405.989,1078.84 407.046,1078.94 408.103,1101.56 409.16,1101.66 410.216,1243.33 411.273,1243.35 412.33,1179.27 413.387,1179.32 414.444,1250.57 415.501,1250.62 416.558,985.386 417.615,985.48 418.671,326.918 419.728,327.67 420.785,1134.72 421.842,1134.76 422.899,1210.71 423.956,1210.75 425.013,1175.4 426.07,1175.51 427.126,1109.16 428.183,1109.22 429.24,1282.18 430.297,1282.21 431.354,1093.34 432.411,1093.5 433.468,864.041 434.525,864.153 435.581,1244.94 436.638,1244.98 437.695,921.227 438.752,921.362 439.809,1088.87 440.866,1088.94 441.923,1252.4 442.98,1252.45 444.036,1130.6 445.093,1130.73 446.15,1276.27 447.207,1276.31 448.264,1013.87 449.321,1013.96 450.378,831.535 451.435,831.652 452.491,1095.64 453.548,1095.74 454.605,1442.73 455.662,1442.76 456.719,1055.67 457.776,1055.79 458.833,1086.52 459.89,1086.6 460.947,1181.34 462.003,1181.42 463.06,1042.74 464.117,1042.87 465.174,1178.24 466.231,1178.27 467.288,1180.76 468.345,1180.8 469.402,1138.93 470.458,1138.98 471.515,1229.27 472.572,1229.33 473.629,1125.84 474.686,1125.92 475.743,1074.43 476.8,1074.6 477.857,1200 478.913,1200.08 479.97,710.108 481.027,710.303 482.084,1188.56 483.141,1188.64 484.198,1327.63 485.255,1327.68 486.312,1368.52 487.368,1368.55 488.425,1131.65 489.482,1131.79 490.539,1087.4 491.596,1087.48 492.653,1191.95 493.71,1192.02 494.767,1189.89 495.823,1189.98 496.88,1178.2 497.937,1178.24 498.994,1187.76 500.051,1187.84 501.108,1205.82 502.165,1205.87 503.222,1059.41 504.278,1059.55 505.335,1316.7 506.392,1316.72 507.449,1175.6 508.506,1175.7 509.563,1257.7 510.62,1257.74 511.677,1164.28 512.733,1164.37 513.79,1085.86 514.847,1085.94 515.904,1159.56 516.961,1159.61 518.018,951.163 519.075,951.306 520.132,1288.24 521.188,1288.28 522.245,1315.5 523.302,1315.53 524.359,781.905 525.416,782.148 526.473,1104.94 527.53,1105.07 528.587,1325.1 529.643,1325.13 530.7,1101.15 531.757,1101.33 532.814,1068.63 533.871,1068.73 534.928,1231.07 535.985,1231.14 537.042,1218.25 538.099,1218.29 539.155,1315.94 540.212,1315.98 541.269,711.497 542.326,711.73 543.383,1071.9 544.44,1072.07 545.497,1103.42 546.554,1103.47 547.61,1079.38 548.667,1079.44 549.724,868.351 550.781,868.482 551.838,747.712 552.895,748.034 553.952,1061.59 555.009,1061.71 556.065,943.511 557.122,943.677 558.179,1174.31 559.236,1174.4 560.293,1133.45 561.35,1133.49 562.407,1106.03 563.464,1106.11 564.52,1201.74 565.577,1201.84 566.634,937.671 567.691,937.788 568.748,1230.32 569.805,1230.39 570.862,1134.47 571.919,1134.58 572.975,1236.12 574.032,1236.18 575.089,1155.33 576.146,1155.38 577.203,784.553 578.26,784.852 579.317,696.474 580.374,696.761 581.43,1284.27 582.487,1284.3 583.544,1098.82 584.601,1098.89 585.658,1166.53 586.715,1166.6 587.772,1344.27 588.829,1344.29 589.885,1033.28 590.942,1033.38 591.999,993.736 593.056,993.884 594.113,1083.99 595.17,1084.05 596.227,905.644 597.284,905.74 598.34,1260.73 599.397,1260.8 600.454,1263.73 601.511,1263.78 602.568,916.453 603.625,916.648 604.682,1009.55 605.739,1009.66 606.795,1041.84 607.852,1041.92 608.909,1066.21 609.966,1066.34 611.023,1085.34 612.08,1085.4 613.137,1208.51 614.194,1208.58 615.251,766.166 616.307,766.35 617.364,1173.97 618.421,1174.03 619.478,1019.3 620.535,1019.39 621.592,1204.38 622.649,1204.45 623.706,1142.44 624.762,1142.54 625.819,1080.03 626.876,1080.12 627.933,1096.87 628.99,1096.93 630.047,1170.14 631.104,1170.19 632.161,975.97 633.217,976.104 634.274,1234.66 635.331,1234.72 636.388,1082.6 637.445,1082.73 638.502,959.5 639.559,959.623 640.616,1095.74 641.672,1095.82 642.729,1152.71 643.786,1152.81 644.843,1109.55 645.9,1109.65 646.957,1264.87 648.014,1264.91 649.071,1138.92 650.127,1138.98 651.184,1169.25 652.241,1169.29 653.298,940.768 654.355,940.907 655.412,978.818 656.469,978.937 657.526,1166.27 658.582,1166.34 659.639,228.738 660.696,229.073 661.753,1223.52 662.81,1223.57 663.867,1065.71 664.924,1065.78 665.981,996.675 667.037,996.785 668.094,1227.47 669.151,1227.51 670.208,1190.78 671.265,1190.81 672.322,1092.27 673.379,1092.36 674.436,1224.65 675.492,1224.69 676.549,1156.61 677.606,1156.7 678.663,1132.27 679.72,1132.33 680.777,1284.61 681.834,1284.64 682.891,954.316 683.948,954.458 685.004,1332.68 686.061,1332.72 687.118,974.576 688.175,974.696 689.232,1197.13 690.289,1197.17 691.346,864.182 692.403,864.527 693.459,979.363 694.516,979.474 695.573,1128.76 696.63,1128.88 697.687,1232.9 698.744,1232.95 699.801,1242.26 700.858,1242.32 701.914,1020.04 702.971,1020.14 704.028,1173.6 705.085,1173.69 706.142,941.563 707.199,941.701 708.256,1243.34 709.313,1243.41 710.369,956.377 711.426,956.476 712.483,1062.16 713.54,1062.26 714.597,1065.64 715.654,1065.73 716.711,1250.05 717.768,1250.1 718.824,1255.54 719.881,1255.6 720.938,1198.89 721.995,1198.93 723.052,993.436 724.109,993.53 725.166,1281.41 726.223,1281.47 727.279,1155.25 728.336,1155.3 729.393,1234.62 730.45,1234.65 731.507,1195.88 732.564,1195.91 733.621,1350.33 734.678,1350.36 735.734,1173.18 736.791,1173.23 737.848,940.082 738.905,940.331 739.962,1267.93 741.019,1267.96 742.076,1208.47 743.133,1208.55 744.189,1158.8 745.246,1158.89 746.303,1207.1 747.36,1207.13 748.417,1208.68 749.474,1208.74 750.531,290.403 751.588,291.165 752.644,1290.12 753.701,1290.17 754.758,1280.92 755.815,1280.96 756.872,845.301 757.929,845.419 758.986,679.304 760.043,679.434 761.1,1163.49 762.156,1163.57 763.213,1120.14 764.27,1120.21 765.327,883.293 766.384,883.405 767.441,1050.88 768.498,1050.96 769.555,1424.93 770.611,1424.95 771.668,965.655 772.725,965.819 773.782,1124.82 774.839,1124.9 775.896,1089.44 776.953,1089.51 778.01,1251.16 779.066,1251.21 780.123,1248.3 781.18,1248.32 782.237,997.481 783.294,997.564 784.351,1120.35 785.408,1120.42 786.465,1007.03 787.521,1007.29 788.578,1036.49 789.635,1036.6 790.692,1054.12 791.749,1054.22 792.806,1008.12 793.863,1008.23 794.92,948.147 795.976,948.323 797.033,1088.16 798.09,1088.24 799.147,1171.39 800.204,1171.43 801.261,1160.71 802.318,1160.76 803.375,1088.55 804.431,1088.61 805.488,1103.36 806.545,1103.48 807.602,1115.31 808.659,1115.37 809.716,707.124 810.773,707.297 811.83,1093.31 812.886,1093.4 813.943,723.907 815,724.092 816.057,1008.5 817.114,1008.64 818.171,1097.62 819.228,1097.77 820.285,1170.21 821.341,1170.33 822.398,963.128 823.455,963.252 824.512,1127.41 825.569,1127.47 826.626,1066.63 827.683,1066.72 828.74,989.6 829.796,989.702 830.853,1034.56 831.91,1034.72 832.967,880.369 834.024,880.55 835.081,1119.82 836.138,1119.9 837.195,1154.91 838.252,1154.96 839.308,626.767 840.365,626.954 841.422,968.459 842.479,968.572 843.536,1016.12 844.593,1016.25 845.65,841.12 846.707,841.229 847.763,1213.84 848.82,1213.91 849.877,1070.36 850.934,1070.45 851.991,1122.57 853.048,1122.67 854.105,1148.36 855.162,1148.45 856.218,772.335 857.275,772.563 858.332,1044.36 859.389,1044.43 860.446,1148.37 861.503,1148.42 862.56,981.562 863.617,981.709 864.673,1211.28 865.73,1211.31 866.787,1112.22 867.844,1112.27 868.901,1065.55 869.958,1065.63 871.015,1256.4 872.072,1256.44 873.128,1071.29 874.185,1071.42 875.242,1086.64 876.299,1086.7 877.356,328.319 878.413,328.718 879.47,1011.43 880.527,1011.55 881.583,1187.73 882.64,1187.86 883.697,1126.79 884.754,1126.85 885.811,1281.68 886.868,1281.71 887.925,1265.95 888.982,1265.97 890.038,1320.49 891.095,1320.52 892.152,1156.13 893.209,1156.17 894.266,1130.1 895.323,1130.16 896.38,1152.01 897.437,1152.06 898.493,1052.62 899.55,1052.68 900.607,1119.18 901.664,1119.24 902.721,896.015 903.778,896.214 904.835,1255.8 905.892,1255.84 906.948,1079.58 908.005,1079.67 909.062,1071.67 910.119,1071.74 911.176,1199.99 912.233,1200.05 913.29,1068.72 914.347,1068.79 915.404,1218.07 916.46,1218.12 917.517,968.781 918.574,968.886 919.631,1199.77 920.688,1199.83 921.745,1205.62 922.802,1205.71 923.859,1251.16 924.915,1251.21 925.972,1007.59 927.029,1007.76 928.086,1117.64 929.143,1117.71 930.2,849.92 931.257,850.122 932.314,1099.35 933.37,1099.44 934.427,1038.31 935.484,1038.51 936.541,1194.44 937.598,1194.49 938.655,1159.82 939.712,1159.93 940.769,1247.78 941.825,1247.82 942.882,746.836 943.939,747.132 944.996,1154.56 946.053,1154.62 947.11,1315.7 948.167,1315.74 949.224,836.705 950.28,836.87 951.337,1090.44 952.394,1090.62 953.451,1222.26 954.508,1222.32 955.565,1022.64 956.622,1022.77 957.679,1096.71 958.735,1096.8 959.792,642.804 960.849,642.942 961.906,1316.52 962.963,1316.56 964.02,1109.12 965.077,1109.26 966.134,1126.33 967.19,1126.38 968.247,862.213 969.304,862.381 970.361,1157.35 971.418,1157.46 972.475,1216.21 973.532,1216.24 974.589,1123.91 975.645,1123.97 976.702,1145.7 977.759,1145.75 978.816,1166.25 979.873,1166.33 980.93,1017.79 981.987,1017.92 983.044,885.652 984.101,885.844 985.157,1093.83 986.214,1093.91 987.271,1020.17 988.328,1020.29 989.385,949.738 990.442,949.851 991.499,1016.04 992.556,1016.17 993.612,613.325 994.669,613.589 995.726,1064.43 996.783,1064.66 997.84,1149.57 998.897,1149.61 999.954,1223.88 1001.01,1223.94 1002.07,1171.65 1003.12,1171.7 1004.18,1353.65 1005.24,1353.67 1006.29,928.144 1007.35,928.413 1008.41,720.576 1009.47,720.775 1010.52,1256.8 1011.58,1256.85 1012.64,936.325 1013.69,936.472 1014.75,909.158 1015.81,909.366 1016.86,934.593 1017.92,934.737 1018.98,1128.36 1020.03,1128.49 1021.09,1138.35 1022.15,1138.42 1023.2,1115.75 1024.26,1115.87 1025.32,1160.78 1026.38,1160.82 1027.43,1072.31 1028.49,1072.4 1029.55,1197.21 1030.6,1197.28 1031.66,1086.46 1032.72,1086.56 1033.77,1118.53 1034.83,1118.65 1035.89,1314.94 1036.94,1314.96 1038,1120.97 1039.06,1121.03 1040.11,1129.87 1041.17,1129.93 1042.23,807.669 1043.29,807.88 1044.34,1268.22 1045.4,1268.25 1046.46,1214.08 1047.51,1214.13 1048.57,1213 1049.63,1213.06 1050.68,480.297 1051.74,480.621 1052.8,1223.8 1053.85,1223.82 1054.91,1021.61 1055.97,1021.73 1057.02,1192.07 1058.08,1192.1 1059.14,505.918 1060.2,506.335 1061.25,1057.6 1062.31,1057.68 1063.37,934.261 1064.42,934.405 1065.48,675.658 1066.54,676.026 1067.59,1079.03 1068.65,1079.13 1069.71,1205.38 1070.76,1205.41 1071.82,1336.1 1072.88,1336.12 1073.94,1158.21 1074.99,1158.25 1076.05,1110.47 1077.11,1110.66 1078.16,1061.09 1079.22,1061.17 1080.28,1198.09 1081.33,1198.15 1082.39,1266.85 1083.45,1266.9 1084.5,1136.01 1085.56,1136.08 1086.62,1029.07 1087.67,1029.18 1088.73,1292.17 1089.79,1292.19 1090.85,1202.05 1091.9,1202.11 1092.96,1146.16 1094.02,1146.21 1095.07,886.281 1096.13,886.424 1097.19,890.717 1098.24,890.86 1099.3,1031.08 1100.36,1031.19 1101.41,966.533 1102.47,966.655 1103.53,917.064 1104.58,917.187 1105.64,1128.7 1106.7,1128.75 1107.76,1104.38 1108.81,1104.43 1109.87,1042.96 1110.93,1043.05 1111.98,815.82 1113.04,816.018 1114.1,1002.34 1115.15,1002.44 1116.21,1187.13 1117.27,1187.2 1118.32,1147.19 1119.38,1147.28 1120.44,1216.08 1121.49,1216.13 1122.55,958.883 1123.61,958.976 1124.67,1233.19 1125.72,1233.23 1126.78,1168.03 1127.84,1168.13 1128.89,1205.04 1129.95,1205.09 1131.01,1158.63 1132.06,1158.72 1133.12,1136.72 1134.18,1136.79 1135.23,942.549 1136.29,942.68 1137.35,1301.78 1138.4,1301.82 1139.46,1108.75 1140.52,1108.81 1141.58,957.649 1142.63,957.76 1143.69,1211.34 1144.75,1211.4 1145.8,1170.46 1146.86,1170.49 1147.92,1133.89 1148.97,1133.94 1150.03,1130.82 1151.09,1130.86 1152.14,1029.84 1153.2,1029.91 1154.26,969.936 1155.31,970.047 1156.37,792.275 1157.43,792.393 1158.49,1168.82 1159.54,1168.86 1160.6,1149.97 1161.66,1150.06 1162.71,1156.2 1163.77,1156.28 1164.83,1204.24 1165.88,1204.32 1166.94,778.967 1168,779.22 1169.05,912.733 1170.11,912.925 1171.17,1022.89 1172.22,1023.01 1173.28,1314.27 1174.34,1314.3 1175.4,1037.32 1176.45,1037.38 1177.51,1206.62 1178.57,1206.65 1179.62,1049.95 1180.68,1050.02 1181.74,669.452 1182.79,669.598 1183.85,1174.93 1184.91,1175.01 1185.96,1028.59 1187.02,1028.68 1188.08,1185.27 1189.13,1185.4 1190.19,1201.39 1191.25,1201.41 1192.31,1140.62 1193.36,1140.67 1194.42,997.415 1195.48,997.503 1196.53,1328.15 1197.59,1328.17 1198.65,1045.06 1199.7,1045.22 1200.76,1259.05 1201.82,1259.09 1202.87,1178.61 1203.93,1178.64 1204.99,1090.64 1206.04,1090.7 1207.1,1352.39 1208.16,1352.43 1209.22,1103.98 1210.27,1104.04 1211.33,1282.2 1212.39,1282.25 1213.44,1081.78 1214.5,1081.87 1215.56,1198.27 1216.61,1198.3 1217.67,795.705 1218.73,795.858 1219.78,334.097 1220.84,334.83 1221.9,1090.93 1222.95,1091.03 1224.01,1011.06 1225.07,1011.13 1226.13,1213.38 1227.18,1213.44 1228.24,1138.78 1229.3,1138.88 1230.35,1064.47 1231.41,1064.52 1232.47,1360.42 1233.52,1360.45 1234.58,1042.61 1235.64,1042.68 1236.69,1301.7 1237.75,1301.73 1238.81,1349.96 1239.86,1349.98 1240.92,801.572 1241.98,801.719 1243.04,1044.98 1244.09,1045.07 1245.15,1052.24 1246.21,1052.31 1247.26,985.839 1248.32,985.946 1249.38,1146.4 1250.43,1146.5 1251.49,1153.71 1252.55,1153.75 1253.6,1253.82 1254.66,1253.88 1255.72,1001.91 1256.77,1001.99 1257.83,1091.78 1258.89,1091.87 1259.95,1149.78 1261,1149.87 1262.06,1073.83 1263.12,1073.92 1264.17,843.324 1265.23,843.486 1266.29,851.51 1267.34,851.708 1268.4,917.512 1269.46,917.612 1270.51,979.006 1271.57,979.104 1272.63,1149.97 1273.68,1150.07 1274.74,1046.64 1275.8,1046.73 1276.86,1234.27 1277.91,1234.32 1278.97,1112.66 1280.03,1112.73 1281.08,1085.75 1282.14,1085.92 1283.2,1073.59 1284.25,1073.66 1285.31,815.013 1286.37,815.129 1287.42,926.788 1288.48,926.97 1289.54,1266.34 1290.59,1266.37 1291.65,1192.47 1292.71,1192.55 1293.77,1045.95 1294.82,1046 1295.88,1007.54 1296.94,1007.71 1297.99,1252.3 1299.05,1252.37 1300.11,642.625 1301.16,642.772 1302.22,873.758 1303.28,873.907 1304.33,997.566 1305.39,997.722 1306.45,1148.64 1307.5,1148.69 1308.56,1068.83 1309.62,1068.89 1310.68,1274.13 1311.73,1274.15 1312.79,1260.07 1313.85,1260.11 1314.9,1123.42 1315.96,1123.51 1317.02,1097.21 1318.07,1097.27 1319.13,1171.14 1320.19,1171.18 1321.24,1161.05 1322.3,1161.13 1323.36,1077.76 1324.41,1077.82 1325.47,978.24 1326.53,978.408 1327.59,1045.73 1328.64,1045.79 1329.7,726.546 1330.76,726.679 1331.81,985.874 1332.87,986.033 1333.93,1129.45 1334.98,1129.52 1336.04,1101.36 1337.1,1101.41 1338.15,1214.27 1339.21,1214.32 1340.27,1014.58 1341.32,1014.69 1342.38,1155.69 1343.44,1155.78 1344.5,1167.45 1345.55,1167.54 1346.61,1128.47 1347.67,1128.52 1348.72,841.436 1349.78,841.613 1350.84,1178.58 1351.89,1178.62 1352.95,1326.24 1354.01,1326.27 1355.06,812.174 1356.12,812.375 1357.18,876.389 1358.23,876.568 1359.29,1101.62 1360.35,1101.68 1361.41,1154.84 1362.46,1154.89 1363.52,1272.78 1364.58,1272.83 1365.63,967.187 1366.69,967.296 1367.75,1242.11 1368.8,1242.16 1369.86,1279.27 1370.92,1279.3 1371.97,1060.86 1373.03,1061 1374.09,268.251 1375.14,268.656 1376.2,1009.06 1377.26,1009.17 1378.32,832.954 1379.37,833.073 1380.43,1112.21 1381.49,1112.27 1382.54,972.503 1383.6,972.59 1384.66,1146.86 1385.71,1146.91 1386.77,728.017 1387.83,728.156 1388.88,1127.84 1389.94,1127.89 1391,616.809 1392.05,616.968 1393.11,963.794 1394.17,963.938 1395.23,1287.27 1396.28,1287.31 1397.34,1015.68 1398.4,1015.75 1399.45,87.9763 1400.51,88.7962 1401.57,1046.82 1402.62,1046.87 1403.68,754.272 1404.74,754.531 1405.79,1240.33 1406.85,1240.36 1407.91,1171.17 1408.96,1171.2 1410.02,1194.07 1411.08,1194.14 1412.14,860.357 1413.19,860.537 1414.25,1290.12 1415.31,1290.14 1416.36,1124.89 1417.42,1124.93 1418.48,931.363 1419.53,931.48 1420.59,674.916 1421.65,675.038 1422.7,1240.07 1423.76,1240.09 1424.82,1219.16 1425.87,1219.21 1426.93,961.069 1427.99,961.18 1429.05,1002.36 1430.1,1002.46 1431.16,1249.29 1432.22,1249.33 1433.27,1185.23 1434.33,1185.26 1435.39,1094.72 1436.44,1094.78 1437.5,1117.68 1438.56,1117.74 1439.61,1110.61 1440.67,1110.71 1441.73,1088.23 1442.79,1088.31 1443.84,927.143 1444.9,927.327 1445.96,1129.56 1447.01,1129.62 1448.07,586.407 1449.13,586.607 1450.18,1118.22 1451.24,1118.26 1452.3,1114.99 1453.35,1115.05 1454.41,987.972 1455.47,988.066 1456.52,1211.84 1457.58,1211.89 1458.64,971.745 1459.7,971.911 1460.75,1093.19 1461.81,1093.27 1462.87,1223.32 1463.92,1223.37 1464.98,983.73 1466.04,983.844 1467.09,1024.03 1468.15,1024.15 1469.21,1393.84 1470.26,1393.87 1471.32,1009.37 1472.38,1009.46 1473.43,962.07 1474.49,962.151 1475.55,1291.62 1476.61,1291.65 1477.66,1020.93 1478.72,1021.02 1479.78,1130.17 1480.83,1130.3 1481.89,1014.43 1482.95,1014.51 1484,890.098 1485.06,890.272 1486.12,848.249 1487.17,848.423 1488.23,1250.53 1489.29,1250.57 1490.34,1136.28 1491.4,1136.32 1492.46,1185.08 1493.52,1185.12 1494.57,1077.25 1495.63,1077.3 1496.69,1056.88 1497.74,1056.93 1498.8,1116.17 1499.86,1116.22 1500.91,902.209 1501.97,902.352 1503.03,999.956 1504.08,1000.1 1505.14,1078.36 1506.2,1078.41 1507.25,1005.21 1508.31,1005.28 1509.37,960.872 1510.43,960.981 1511.48,1084.23 1512.54,1084.28 1513.6,957.511 1514.65,957.666 1515.71,1168.65 1516.77,1168.68 1517.82,1299.21 1518.88,1299.24 1519.94,869.172 1520.99,869.315 1522.05,892.805 1523.11,892.967 1524.16,1189.72 1525.22,1189.75 1526.28,1210.38 1527.34,1210.43 1528.39,1062.4 1529.45,1062.49 1530.51,1188.8 1531.56,1188.83 1532.62,1224.18 1533.68,1224.22 1534.73,1004.65 1535.79,1004.74 1536.85,1098.39 1537.9,1098.44 1538.96,1063.89 1540.02,1063.95 1541.07,1225.73 1542.13,1225.75 1543.19,1170.89 1544.25,1170.96 1545.3,1214.94 1546.36,1215 1547.42,1122.39 1548.47,1122.42 1549.53,1071.44 1550.59,1071.49 1551.64,889.468 1552.7,889.625 1553.76,1042.16 1554.81,1042.25 1555.87,1164.93 1556.93,1164.96 1557.98,1299.76 1559.04,1299.78 1560.1,1117.47 1561.16,1117.52 1562.21,1063.19 1563.27,1063.26 1564.33,1093.67 1565.38,1093.74 1566.44,1225.19 1567.5,1225.23 1568.55,1071.71 1569.61,1071.77 1570.67,855.249 1571.72,855.362 1572.78,919.054 1573.84,919.235 1574.89,1194.16 1575.95,1194.2 1577.01,1117.12 1578.07,1117.17 1579.12,1045.83 1580.18,1045.88 1581.24,1215.07 1582.29,1215.12 1583.35,686.428 1584.41,686.642 1585.46,963.286 1586.52,963.401 1587.58,1290.74 1588.63,1290.77 1589.69,1151.58 1590.75,1151.65 1591.8,1147.22 1592.86,1147.26 1593.92,1040.91 1594.98,1041.01 1596.03,1176.68 1597.09,1176.72 1598.15,1173.16 1599.2,1173.23 1600.26,1127.99 1601.32,1128.03 1602.37,1111.57 1603.43,1111.65 1604.49,916.473 1605.54,916.592 1606.6,942.616 1607.66,942.75 1608.71,901.499 1609.77,901.641 1610.83,947.594 1611.89,947.714 1612.94,1013.19 1614,1013.31 1615.06,1132.06 1616.11,1132.1 1617.17,1033.11 1618.23,1033.24 1619.28,869.849 1620.34,870.018 1621.4,1108.38 1622.45,1108.51 1623.51,1034.04 1624.57,1034.14 1625.62,1286.74 1626.68,1286.78 1627.74,1119.22 1628.8,1119.28 1629.85,1138.07 1630.91,1138.13 1631.97,1170.08 1633.02,1170.14 1634.08,1041.8 1635.14,1041.92 1636.19,1157.31 1637.25,1157.37 1638.31,1068.02 1639.36,1068.09 1640.42,773.037 1641.48,773.173 1642.53,1016.37 1643.59,1016.51 1644.65,1140.3 1645.71,1140.34 1646.76,1093.18 1647.82,1093.28 1648.88,1017.6 1649.93,1017.69 1650.99,1081.63 1652.05,1081.7 1653.1,1238.7 1654.16,1238.73 1655.22,1035.98 1656.27,1036.06 1657.33,1165.03 1658.39,1165.07 1659.44,952.245 1660.5,952.391 1661.56,1041.14 1662.62,1041.24 1663.67,299.199 1664.73,299.48 1665.79,818.134 1666.84,818.317 1667.9,1187.18 1668.96,1187.21 1670.01,1054 1671.07,1054.08 1672.13,1057.71 1673.18,1057.79 1674.24,314.19 1675.3,314.506 1676.35,1184.93 1677.41,1184.99 1678.47,1095.78 1679.53,1095.82 1680.58,1162.33 1681.64,1162.36 1682.7,1136.87 1683.75,1136.95 1684.81,1140.6 1685.87,1140.68 1686.92,1219.54 1687.98,1219.59 1689.04,1146.64 1690.09,1146.67 1691.15,890.449 1692.21,890.574 1693.26,1252.58 1694.32,1252.61 1695.38,1058.87 1696.44,1058.94 1697.49,916.898 1698.55,917.013 1699.61,1077.72 1700.66,1077.81 1701.72,1112.08 1702.78,1112.11 1703.83,1255.72 1704.89,1255.75 1705.95,995.738 1707,995.809 1708.06,1084.46 1709.12,1084.56 1710.17,1230.67 1711.23,1230.71 1712.29,1128.05 1713.35,1128.12 1714.4,747.36 1715.46,747.623 1716.52,1039.89 1717.57,1039.95 1718.63,1037.69 1719.69,1037.76 1720.74,1212.31 1721.8,1212.33 1722.86,1125.56 1723.91,1125.6 1724.97,1033.78 1726.03,1033.84 1727.08,669.252 1728.14,669.433 1729.2,1177.36 1730.26,1177.41 1731.31,907.413 1732.37,907.53 1733.43,985.43 1734.48,985.5 1735.54,1184.93 1736.6,1184.99 1737.65,630.273 1738.71,630.46 1739.77,1059.64 1740.82,1059.69 1741.88,960.852 1742.94,960.943 1743.99,890.801 1745.05,890.962 1746.11,1012.38 1747.17,1012.45 1748.22,1155.17 1749.28,1155.24 1750.34,1090.39 1751.39,1090.45 1752.45,1096.78 1753.51,1096.87 1754.56,1336.2 1755.62,1336.23 1756.68,606.192 1757.73,606.469 1758.79,950.865 1759.85,950.959 1760.9,1221.19 1761.96,1221.23 1763.02,979.086 1764.08,979.181 1765.13,1097.82 1766.19,1097.86 1767.25,1109.71 1768.3,1109.83 1769.36,843.76 1770.42,843.869 1771.47,921.658 1772.53,921.777 1773.59,1206.26 1774.64,1206.29 1775.7,1168.28 1776.76,1168.31 1777.81,1198.73 1778.87,1198.78 1779.93,1096.25 1780.99,1096.38 1782.04,1248.86 1783.1,1248.89 1784.16,689.683 1785.21,689.875 1786.27,1174.46 1787.33,1174.48 1788.38,1198.97 1789.44,1198.99 1790.5,1002.21 1791.55,1002.28 1792.61,1111.46 1793.67,1111.53 1794.72,1106.5 1795.78,1106.54 1796.84,704.694 1797.9,704.934 1798.95,1082.17 1800.01,1082.32 1801.07,1302.88 1802.12,1302.91 1803.18,1127.56 1804.24,1127.6 1805.29,1199.75 1806.35,1199.8 1807.41,1210.18 1808.46,1210.22 1809.52,1005.91 1810.58,1006.02 1811.64,1042.2 1812.69,1042.26 1813.75,1174.72 1814.81,1174.77 1815.86,1233.2 1816.92,1233.24 1817.98,941.555 1819.03,941.681 1820.09,1168.85 1821.15,1168.88 1822.2,734.203 1823.26,734.432 1824.32,1019.38 1825.37,1019.47 1826.43,935.238 1827.49,935.33 1828.55,1144.65 1829.6,1144.7 1830.66,1128.37 1831.72,1128.43 1832.77,1129.78 1833.83,1129.83 1834.89,1093.75 1835.94,1093.81 1837,835.547 1838.06,835.67 1839.11,981.448 1840.17,981.546 1841.23,1222.03 1842.28,1222.06 1843.34,1224 1844.4,1224.04 1845.46,1053.85 1846.51,1053.9 1847.57,1156.54 1848.63,1156.63 1849.68,1104.98 1850.74,1105.03 1851.8,974.622 1852.85,974.711 1853.91,1198.17 1854.97,1198.2 1856.02,1263.4 1857.08,1263.44 1858.14,1072.55 1859.19,1072.63 1860.25,1118.38 1861.31,1118.43 1862.37,1141.43 1863.42,1141.47 1864.48,1116.65 1865.54,1116.74 1866.59,1044.63 1867.65,1044.68 1868.71,1148.5 1869.76,1148.62 1870.82,1235.2 1871.88,1235.22 1872.93,1132.41 1873.99,1132.45 1875.05,1101.14 1876.1,1101.23 1877.16,1034.72 1878.22,1034.79 1879.28,1168.19 1880.33,1168.25 1881.39,1055.08 1882.45,1055.21 1883.5,979.828 1884.56,979.912 1885.62,1167.6 1886.67,1167.64 1887.73,1044.99 1888.79,1045.04 1889.84,1162.51 1890.9,1162.54 1891.96,791.657 1893.01,791.766 1894.07,991.317 1895.13,991.376 1896.19,1149.69 1897.24,1149.72 1898.3,985.51 1899.36,985.58 1900.41,974.556 1901.47,974.632 1902.53,1224.95 1903.58,1225.01 1904.64,968.375 1905.7,968.517 1906.75,1106.16 1907.81,1106.24 1908.87,1120.69 1909.92,1120.73 1910.98,1000.06 1912.04,1000.13 1913.1,1164.78 1914.15,1164.85 1915.21,594.709 1916.27,594.873 1917.32,1144.86 1918.38,1144.89 1919.44,758.914 1920.49,759.092 1921.55,944.392 1922.61,944.506 1923.66,1225.28 1924.72,1225.32 1925.78,1229.82 1926.83,1229.86 1927.89,1124.95 1928.95,1124.99 1930.01,990.885 1931.06,990.953 1932.12,1231.5 1933.18,1231.54 1934.23,1026.97 1935.29,1027.07 1936.35,790.836 1937.4,790.99 1938.46,823.541 1939.52,823.654 1940.57,1094.21 1941.63,1094.26 1942.69,1252.67 1943.74,1252.72 1944.8,1042.76 1945.86,1042.86 1946.92,1131.78 1947.97,1131.82 1949.03,1122.14 1950.09,1122.17 1951.14,943.646 1952.2,943.747 1953.26,895.325 1954.31,895.545 1955.37,1153.68 1956.43,1153.72 1957.48,1116.97 1958.54,1117.03 1959.6,1111.95 1960.65,1112 1961.71,1246.3 1962.77,1246.34 1963.83,1009.77 1964.88,1009.86 1965.94,965.291 1967,965.351 1968.05,1021.4 1969.11,1021.49 1970.17,1141.62 1971.22,1141.69 1972.28,1208.98 1973.34,1209.05 1974.39,1004.98 1975.45,1005.04 1976.51,1085.31 1977.56,1085.38 1978.62,925.188 1979.68,925.277 1980.74,1142.05 1981.79,1142.1 1982.85,1283.17 1983.91,1283.19 1984.96,1023.03 1986.02,1023.11 1987.08,967.803 1988.13,967.902 1989.19,862.37 1990.25,862.495 1991.3,1020.53 1992.36,1020.63 1993.42,670.593 1994.47,670.72 1995.53,1167.78 1996.59,1167.81 1997.65,950.421 1998.7,950.525 1999.76,909.415 2000.82,909.543 2001.87,1058.26 2002.93,1058.31 2003.99,991.016 2005.04,991.104 2006.1,511.719 2007.16,511.861 2008.21,1051.86 2009.27,1051.91 2010.33,1019.79 2011.38,1019.87 2012.44,978.717 2013.5,978.804 2014.56,886.97 2015.61,887.081 2016.67,1156.68 2017.73,1156.71 2018.78,1139.95 2019.84,1139.98 2020.9,1017.26 2021.95,1017.33 2023.01,939.252 2024.07,939.33 2025.12,791.62 2026.18,791.81 2027.24,1141.27 2028.29,1141.35 2029.35,994.004 2030.41,994.124 2031.47,1021.14 2032.52,1021.26 2033.58,759.415 2034.64,759.523 2035.69,1084.97 2036.75,1085.05 2037.81,893.18 2038.86,893.28 2039.92,1045.02 2040.98,1045.09 2042.03,852.778 2043.09,852.891 2044.15,1029.31 2045.2,1029.37 2046.26,1094.36 2047.32,1094.4 2048.38,872.333 2049.43,872.45 2050.49,954.41 2051.55,954.561 2052.6,875.716 2053.66,875.823 2054.72,1000.95 2055.77,1001.07 2056.83,1113.28 2057.89,1113.32 2058.94,1142.52 2060,1142.55 2061.06,1198.19 2062.11,1198.26 2063.17,1144.25 2064.23,1144.29 2065.29,1060.83 2066.34,1060.88 2067.4,1110.9 2068.46,1110.93 2069.51,1135.81 2070.57,1135.86 2071.63,1066.07 2072.68,1066.13 2073.74,1173.79 2074.8,1173.85 2075.85,1185.51 2076.91,1185.57 2077.97,1105.82 2079.02,1105.9 2080.08,1046.77 2081.14,1046.83 2082.2,1150.51 2083.25,1150.58 2084.31,1237.2 2085.37,1237.24 2086.42,1067.64 2087.48,1067.71 2088.54,958.81 2089.59,958.964 2090.65,1052.9 2091.71,1053 2092.76,1117.94 2093.82,1118.01 2094.88,1124.11 2095.93,1124.16 2096.99,853.715 2098.05,853.848 2099.11,1156.32 2100.16,1156.37 2101.22,1027.7 2102.28,1027.8 2103.33,1103.39 2104.39,1103.44 2105.45,1248.53 2106.5,1248.56 2107.56,905.497 2108.62,905.592 2109.67,1057.36 2110.73,1057.43 2111.79,1131.52 2112.84,1131.55 2113.9,1131.66 2114.96,1131.76 2116.02,1261.53 2117.07,1261.55 2118.13,1288.8 2119.19,1288.84 2120.24,961.769 2121.3,961.832 2122.36,1016.47 2123.41,1016.53 2124.47,915.71 2125.53,915.8 2126.58,1139.98 2127.64,1140.02 2128.7,1132.14 2129.75,1132.22 2130.81,1102.84 2131.87,1102.89 2132.93,1213.6 2133.98,1213.65 2135.04,1020.1 2136.1,1020.19 2137.15,921.515 2138.21,921.625 2139.27,718.8 2140.32,718.996 2141.38,1134.4 2142.44,1134.49 2143.49,1111.3 2144.55,1111.35 2145.61,978.973 2146.66,979.03 2147.72,1076.87 2148.78,1076.94 2149.84,986.504 2150.89,986.619 2151.95,827.887 2153.01,828.073 2154.06,1085.14 2155.12,1085.17 2156.18,957.044 2157.23,957.118 2158.29,1031.51 2159.35,1031.62 2160.4,1029.19 2161.46,1029.29 2162.52,853.804 2163.57,853.909 2164.63,1024.46 2165.69,1024.52 2166.75,1187.83 2167.8,1187.89 2168.86,1132.88 2169.92,1132.91 2170.97,1118.22 2172.03,1118.26 2173.09,1160.76 2174.14,1160.82 2175.2,1153.08 2176.26,1153.11 2177.31,1013.28 2178.37,1013.33 2179.43,1104.29 2180.48,1104.39 2181.54,1144.18 2182.6,1144.22 2183.66,937.379 2184.71,937.44 2185.77,1141.79 2186.83,1141.83 2187.88,1024.82 2188.94,1024.87 2190,1166.29 2191.05,1166.35 2192.11,886.526 2193.17,886.65 2194.22,1046.85 2195.28,1046.95 2196.34,1000.52 2197.4,1000.59 2198.45,1133.78 2199.51,1133.89 2200.57,962.763 2201.62,962.875 2202.68,1058.13 2203.74,1058.18 2204.79,839.407 2205.85,839.53 2206.91,833.4 2207.96,833.558 2209.02,906 2210.08,906.125 2211.13,1185.75 2212.19,1185.79 2213.25,1205.94 2214.31,1205.98 2215.36,1193.36 2216.42,1193.42 2217.48,1168.95 2218.53,1168.98 2219.59,819.164 2220.65,819.284 2221.7,1203.63 2222.76,1203.68 2223.82,1127.48 2224.87,1127.53 2225.93,1095.21 2226.99,1095.25 2228.04,1134.58 2229.1,1134.61 2230.16,891.422 2231.22,891.537 2232.27,1038.64 2233.33,1038.72 2234.39,967.951 2235.44,968.022 2236.5,1110.12 2237.56,1110.18 2238.61,1025.5 2239.67,1025.54 2240.73,1028.34 2241.78,1028.4 2242.84,990.764 2243.9,990.829 2244.95,1181.12 2246.01,1181.17 2247.07,1117.36 2248.13,1117.4 2249.18,989.534 2250.24,989.609 2251.3,1074.64 2252.35,1074.73 2253.41,1164.11 2254.47,1164.18 2255.52,1174.77 2256.58,1174.79 2257.64,1125.75 2258.69,1125.86 2259.75,1172.31 2260.81,1172.37 2261.86,1211.08 2262.92,1211.12 2263.98,1063.07 2265.04,1063.11 2266.09,842.87 2267.15,843.004 2268.21,1064.25 2269.26,1064.29 2270.32,1229.37 2271.38,1229.42 2272.43,1158.01 2273.49,1158.04 2274.55,610.97 2275.6,611.104 2276.66,1181.99 2277.72,1182.07 2278.77,845.497 2279.83,845.693 2280.89,736.584 2281.95,736.706 2283,981.386 2284.06,981.448 2285.12,1056.46 2286.17,1056.51 2287.23,961.962 2288.29,962.039 2289.34,962.115 "/>
<path clip-path="url(#clip690)" d="M2001.58 198.898 L2278.07 198.898 L2278.07 95.2176 L2001.58 95.2176  Z" fill="#ffffff" fill-rule="evenodd" fill-opacity="1"/>
<polyline clip-path="url(#clip690)" style="stroke:#000000; stroke-linecap:round; stroke-linejoin:round; stroke-width:4; stroke-opacity:1; fill:none" points="2001.58,198.898 2278.07,198.898 2278.07,95.2176 2001.58,95.2176 2001.58,198.898 "/>
<polyline clip-path="url(#clip690)" style="stroke:#009af9; stroke-linecap:round; stroke-linejoin:round; stroke-width:4; stroke-opacity:1; fill:none" points="2026.48,147.058 2175.85,147.058 "/>
<path clip-path="url(#clip690)" d="M2214.59 166.745 Q2212.78 171.375 2211.07 172.787 Q2209.36 174.199 2206.49 174.199 L2203.08 174.199 L2203.08 170.634 L2205.58 170.634 Q2207.34 170.634 2208.31 169.8 Q2209.29 168.967 2210.47 165.865 L2211.23 163.921 L2200.74 138.412 L2205.26 138.412 L2213.36 158.689 L2221.46 138.412 L2225.98 138.412 L2214.59 166.745 Z" fill="#000000" fill-rule="nonzero" fill-opacity="1" /><path clip-path="url(#clip690)" d="M2233.27 160.402 L2240.91 160.402 L2240.91 134.037 L2232.6 135.703 L2232.6 131.444 L2240.86 129.778 L2245.54 129.778 L2245.54 160.402 L2253.17 160.402 L2253.17 164.338 L2233.27 164.338 L2233.27 160.402 Z" fill="#000000" fill-rule="nonzero" fill-opacity="1" /></svg>
