<?xml version="1.0" encoding="utf-8"?>
<svg xmlns="http://www.w3.org/2000/svg" xmlns:xlink="http://www.w3.org/1999/xlink" width="600" height="400" viewBox="0 0 2400 1600">
<defs>
  <clipPath id="clip640">
    <rect x="0" y="0" width="2400" height="1600"/>
  </clipPath>
</defs>
<path clip-path="url(#clip640)" d="M0 1600 L2400 1600 L2400 0 L0 0  Z" fill="#ffffff" fill-rule="evenodd" fill-opacity="1"/>
<defs>
  <clipPath id="clip641">
    <rect x="480" y="0" width="1681" height="1600"/>
  </clipPath>
</defs>
<path clip-path="url(#clip640)" d="M230.996 1486.45 L2352.76 1486.45 L2352.76 47.2441 L230.996 47.2441  Z" fill="#ffffff" fill-rule="evenodd" fill-opacity="1"/>
<defs>
  <clipPath id="clip642">
    <rect x="230" y="47" width="2123" height="1440"/>
  </clipPath>
</defs>
<polyline clip-path="url(#clip642)" style="stroke:#000000; stroke-linecap:round; stroke-linejoin:round; stroke-width:2; stroke-opacity:0.1; fill:none" points="291.046,1486.45 291.046,47.2441 "/>
<polyline clip-path="url(#clip642)" style="stroke:#000000; stroke-linecap:round; stroke-linejoin:round; stroke-width:2; stroke-opacity:0.1; fill:none" points="791.461,1486.45 791.461,47.2441 "/>
<polyline clip-path="url(#clip642)" style="stroke:#000000; stroke-linecap:round; stroke-linejoin:round; stroke-width:2; stroke-opacity:0.1; fill:none" points="1291.88,1486.45 1291.88,47.2441 "/>
<polyline clip-path="url(#clip642)" style="stroke:#000000; stroke-linecap:round; stroke-linejoin:round; stroke-width:2; stroke-opacity:0.1; fill:none" points="1792.29,1486.45 1792.29,47.2441 "/>
<polyline clip-path="url(#clip642)" style="stroke:#000000; stroke-linecap:round; stroke-linejoin:round; stroke-width:2; stroke-opacity:0.1; fill:none" points="2292.71,1486.45 2292.71,47.2441 "/>
<polyline clip-path="url(#clip640)" style="stroke:#000000; stroke-linecap:round; stroke-linejoin:round; stroke-width:4; stroke-opacity:1; fill:none" points="230.996,1486.45 2352.76,1486.45 "/>
<polyline clip-path="url(#clip640)" style="stroke:#000000; stroke-linecap:round; stroke-linejoin:round; stroke-width:4; stroke-opacity:1; fill:none" points="291.046,1486.45 291.046,1467.55 "/>
<polyline clip-path="url(#clip640)" style="stroke:#000000; stroke-linecap:round; stroke-linejoin:round; stroke-width:4; stroke-opacity:1; fill:none" points="791.461,1486.45 791.461,1467.55 "/>
<polyline clip-path="url(#clip640)" style="stroke:#000000; stroke-linecap:round; stroke-linejoin:round; stroke-width:4; stroke-opacity:1; fill:none" points="1291.88,1486.45 1291.88,1467.55 "/>
<polyline clip-path="url(#clip640)" style="stroke:#000000; stroke-linecap:round; stroke-linejoin:round; stroke-width:4; stroke-opacity:1; fill:none" points="1792.29,1486.45 1792.29,1467.55 "/>
<polyline clip-path="url(#clip640)" style="stroke:#000000; stroke-linecap:round; stroke-linejoin:round; stroke-width:4; stroke-opacity:1; fill:none" points="2292.71,1486.45 2292.71,1467.55 "/>
<path clip-path="url(#clip640)" d="M291.046 1517.37 Q287.435 1517.37 285.606 1520.93 Q283.8 1524.47 283.8 1531.6 Q283.8 1538.71 285.606 1542.27 Q287.435 1545.82 291.046 1545.82 Q294.68 1545.82 296.486 1542.27 Q298.314 1538.71 298.314 1531.6 Q298.314 1524.47 296.486 1520.93 Q294.68 1517.37 291.046 1517.37 M291.046 1513.66 Q296.856 1513.66 299.911 1518.27 Q302.99 1522.85 302.99 1531.6 Q302.99 1540.33 299.911 1544.94 Q296.856 1549.52 291.046 1549.52 Q285.236 1549.52 282.157 1544.94 Q279.101 1540.33 279.101 1531.6 Q279.101 1522.85 282.157 1518.27 Q285.236 1513.66 291.046 1513.66 Z" fill="#000000" fill-rule="nonzero" fill-opacity="1" /><path clip-path="url(#clip640)" d="M751.079 1514.29 L769.436 1514.29 L769.436 1518.22 L755.362 1518.22 L755.362 1526.7 Q756.38 1526.35 757.399 1526.19 Q758.417 1526 759.436 1526 Q765.223 1526 768.602 1529.17 Q771.982 1532.34 771.982 1537.76 Q771.982 1543.34 768.51 1546.44 Q765.037 1549.52 758.718 1549.52 Q756.542 1549.52 754.274 1549.15 Q752.028 1548.78 749.621 1548.04 L749.621 1543.34 Q751.704 1544.47 753.926 1545.03 Q756.149 1545.58 758.625 1545.58 Q762.63 1545.58 764.968 1543.48 Q767.306 1541.37 767.306 1537.76 Q767.306 1534.15 764.968 1532.04 Q762.63 1529.94 758.625 1529.94 Q756.75 1529.94 754.875 1530.35 Q753.024 1530.77 751.079 1531.65 L751.079 1514.29 Z" fill="#000000" fill-rule="nonzero" fill-opacity="1" /><path clip-path="url(#clip640)" d="M791.195 1517.37 Q787.584 1517.37 785.755 1520.93 Q783.949 1524.47 783.949 1531.6 Q783.949 1538.71 785.755 1542.27 Q787.584 1545.82 791.195 1545.82 Q794.829 1545.82 796.634 1542.27 Q798.463 1538.71 798.463 1531.6 Q798.463 1524.47 796.634 1520.93 Q794.829 1517.37 791.195 1517.37 M791.195 1513.66 Q797.005 1513.66 800.06 1518.27 Q803.139 1522.85 803.139 1531.6 Q803.139 1540.33 800.06 1544.94 Q797.005 1549.52 791.195 1549.52 Q785.385 1549.52 782.306 1544.94 Q779.25 1540.33 779.25 1531.6 Q779.25 1522.85 782.306 1518.27 Q785.385 1513.66 791.195 1513.66 Z" fill="#000000" fill-rule="nonzero" fill-opacity="1" /><path clip-path="url(#clip640)" d="M821.357 1517.37 Q817.745 1517.37 815.917 1520.93 Q814.111 1524.47 814.111 1531.6 Q814.111 1538.71 815.917 1542.27 Q817.745 1545.82 821.357 1545.82 Q824.991 1545.82 826.796 1542.27 Q828.625 1538.71 828.625 1531.6 Q828.625 1524.47 826.796 1520.93 Q824.991 1517.37 821.357 1517.37 M821.357 1513.66 Q827.167 1513.66 830.222 1518.27 Q833.301 1522.85 833.301 1531.6 Q833.301 1540.33 830.222 1544.94 Q827.167 1549.52 821.357 1549.52 Q815.546 1549.52 812.468 1544.94 Q809.412 1540.33 809.412 1531.6 Q809.412 1522.85 812.468 1518.27 Q815.546 1513.66 821.357 1513.66 Z" fill="#000000" fill-rule="nonzero" fill-opacity="1" /><path clip-path="url(#clip640)" d="M1236.4 1544.91 L1244.04 1544.91 L1244.04 1518.55 L1235.73 1520.21 L1235.73 1515.95 L1243.99 1514.29 L1248.67 1514.29 L1248.67 1544.91 L1256.31 1544.91 L1256.31 1548.85 L1236.4 1548.85 L1236.4 1544.91 Z" fill="#000000" fill-rule="nonzero" fill-opacity="1" /><path clip-path="url(#clip640)" d="M1275.75 1517.37 Q1272.14 1517.37 1270.31 1520.93 Q1268.51 1524.47 1268.51 1531.6 Q1268.51 1538.71 1270.31 1542.27 Q1272.14 1545.82 1275.75 1545.82 Q1279.39 1545.82 1281.19 1542.27 Q1283.02 1538.71 1283.02 1531.6 Q1283.02 1524.47 1281.19 1520.93 Q1279.39 1517.37 1275.75 1517.37 M1275.75 1513.66 Q1281.56 1513.66 1284.62 1518.27 Q1287.7 1522.85 1287.7 1531.6 Q1287.7 1540.33 1284.62 1544.94 Q1281.56 1549.52 1275.75 1549.52 Q1269.94 1549.52 1266.86 1544.94 Q1263.81 1540.33 1263.81 1531.6 Q1263.81 1522.85 1266.86 1518.27 Q1269.94 1513.66 1275.75 1513.66 Z" fill="#000000" fill-rule="nonzero" fill-opacity="1" /><path clip-path="url(#clip640)" d="M1305.92 1517.37 Q1302.3 1517.37 1300.48 1520.93 Q1298.67 1524.47 1298.67 1531.6 Q1298.67 1538.71 1300.48 1542.27 Q1302.3 1545.82 1305.92 1545.82 Q1309.55 1545.82 1311.36 1542.27 Q1313.18 1538.71 1313.18 1531.6 Q1313.18 1524.47 1311.36 1520.93 Q1309.55 1517.37 1305.92 1517.37 M1305.92 1513.66 Q1311.73 1513.66 1314.78 1518.27 Q1317.86 1522.85 1317.86 1531.6 Q1317.86 1540.33 1314.78 1544.94 Q1311.73 1549.52 1305.92 1549.52 Q1300.11 1549.52 1297.03 1544.94 Q1293.97 1540.33 1293.97 1531.6 Q1293.97 1522.85 1297.03 1518.27 Q1300.11 1513.66 1305.92 1513.66 Z" fill="#000000" fill-rule="nonzero" fill-opacity="1" /><path clip-path="url(#clip640)" d="M1336.08 1517.37 Q1332.47 1517.37 1330.64 1520.93 Q1328.83 1524.47 1328.83 1531.6 Q1328.83 1538.71 1330.64 1542.27 Q1332.47 1545.82 1336.08 1545.82 Q1339.71 1545.82 1341.52 1542.27 Q1343.35 1538.71 1343.35 1531.6 Q1343.35 1524.47 1341.52 1520.93 Q1339.71 1517.37 1336.08 1517.37 M1336.08 1513.66 Q1341.89 1513.66 1344.94 1518.27 Q1348.02 1522.85 1348.02 1531.6 Q1348.02 1540.33 1344.94 1544.94 Q1341.89 1549.52 1336.08 1549.52 Q1330.27 1549.52 1327.19 1544.94 Q1324.13 1540.33 1324.13 1531.6 Q1324.13 1522.85 1327.19 1518.27 Q1330.27 1513.66 1336.08 1513.66 Z" fill="#000000" fill-rule="nonzero" fill-opacity="1" /><path clip-path="url(#clip640)" d="M1736.82 1544.91 L1744.46 1544.91 L1744.46 1518.55 L1736.15 1520.21 L1736.15 1515.95 L1744.41 1514.29 L1749.09 1514.29 L1749.09 1544.91 L1756.72 1544.91 L1756.72 1548.85 L1736.82 1548.85 L1736.82 1544.91 Z" fill="#000000" fill-rule="nonzero" fill-opacity="1" /><path clip-path="url(#clip640)" d="M1766.21 1514.29 L1784.57 1514.29 L1784.57 1518.22 L1770.5 1518.22 L1770.5 1526.7 Q1771.52 1526.35 1772.53 1526.19 Q1773.55 1526 1774.57 1526 Q1780.36 1526 1783.74 1529.17 Q1787.12 1532.34 1787.12 1537.76 Q1787.12 1543.34 1783.65 1546.44 Q1780.17 1549.52 1773.85 1549.52 Q1771.68 1549.52 1769.41 1549.15 Q1767.16 1548.78 1764.76 1548.04 L1764.76 1543.34 Q1766.84 1544.47 1769.06 1545.03 Q1771.28 1545.58 1773.76 1545.58 Q1777.77 1545.58 1780.1 1543.48 Q1782.44 1541.37 1782.44 1537.76 Q1782.44 1534.15 1780.1 1532.04 Q1777.77 1529.94 1773.76 1529.94 Q1771.89 1529.94 1770.01 1530.35 Q1768.16 1530.77 1766.21 1531.65 L1766.21 1514.29 Z" fill="#000000" fill-rule="nonzero" fill-opacity="1" /><path clip-path="url(#clip640)" d="M1806.33 1517.37 Q1802.72 1517.37 1800.89 1520.93 Q1799.08 1524.47 1799.08 1531.6 Q1799.08 1538.71 1800.89 1542.27 Q1802.72 1545.82 1806.33 1545.82 Q1809.96 1545.82 1811.77 1542.27 Q1813.6 1538.71 1813.6 1531.6 Q1813.6 1524.47 1811.77 1520.93 Q1809.96 1517.37 1806.33 1517.37 M1806.33 1513.66 Q1812.14 1513.66 1815.2 1518.27 Q1818.27 1522.85 1818.27 1531.6 Q1818.27 1540.33 1815.2 1544.94 Q1812.14 1549.52 1806.33 1549.52 Q1800.52 1549.52 1797.44 1544.94 Q1794.39 1540.33 1794.39 1531.6 Q1794.39 1522.85 1797.44 1518.27 Q1800.52 1513.66 1806.33 1513.66 Z" fill="#000000" fill-rule="nonzero" fill-opacity="1" /><path clip-path="url(#clip640)" d="M1836.49 1517.37 Q1832.88 1517.37 1831.05 1520.93 Q1829.25 1524.47 1829.25 1531.6 Q1829.25 1538.71 1831.05 1542.27 Q1832.88 1545.82 1836.49 1545.82 Q1840.13 1545.82 1841.93 1542.27 Q1843.76 1538.71 1843.76 1531.6 Q1843.76 1524.47 1841.93 1520.93 Q1840.13 1517.37 1836.49 1517.37 M1836.49 1513.66 Q1842.3 1513.66 1845.36 1518.27 Q1848.44 1522.85 1848.44 1531.6 Q1848.44 1540.33 1845.36 1544.94 Q1842.3 1549.52 1836.49 1549.52 Q1830.68 1549.52 1827.6 1544.94 Q1824.55 1540.33 1824.55 1531.6 Q1824.55 1522.85 1827.6 1518.27 Q1830.68 1513.66 1836.49 1513.66 Z" fill="#000000" fill-rule="nonzero" fill-opacity="1" /><path clip-path="url(#clip640)" d="M2241.32 1544.91 L2257.64 1544.91 L2257.64 1548.85 L2235.69 1548.85 L2235.69 1544.91 Q2238.35 1542.16 2242.94 1537.53 Q2247.54 1532.88 2248.72 1531.53 Q2250.97 1529.01 2251.85 1527.27 Q2252.75 1525.51 2252.75 1523.82 Q2252.75 1521.07 2250.81 1519.33 Q2248.89 1517.6 2245.79 1517.6 Q2243.59 1517.6 2241.13 1518.36 Q2238.7 1519.13 2235.92 1520.68 L2235.92 1515.95 Q2238.75 1514.82 2241.2 1514.24 Q2243.66 1513.66 2245.69 1513.66 Q2251.06 1513.66 2254.26 1516.35 Q2257.45 1519.03 2257.45 1523.52 Q2257.45 1525.65 2256.64 1527.57 Q2255.85 1529.47 2253.75 1532.07 Q2253.17 1532.74 2250.07 1535.95 Q2246.97 1539.15 2241.32 1544.91 Z" fill="#000000" fill-rule="nonzero" fill-opacity="1" /><path clip-path="url(#clip640)" d="M2277.45 1517.37 Q2273.84 1517.37 2272.01 1520.93 Q2270.21 1524.47 2270.21 1531.6 Q2270.21 1538.71 2272.01 1542.27 Q2273.84 1545.82 2277.45 1545.82 Q2281.09 1545.82 2282.89 1542.27 Q2284.72 1538.71 2284.72 1531.6 Q2284.72 1524.47 2282.89 1520.93 Q2281.09 1517.37 2277.45 1517.37 M2277.45 1513.66 Q2283.26 1513.66 2286.32 1518.27 Q2289.4 1522.85 2289.4 1531.6 Q2289.4 1540.33 2286.32 1544.94 Q2283.26 1549.52 2277.45 1549.52 Q2271.64 1549.52 2268.56 1544.94 Q2265.51 1540.33 2265.51 1531.6 Q2265.51 1522.85 2268.56 1518.27 Q2271.64 1513.66 2277.45 1513.66 Z" fill="#000000" fill-rule="nonzero" fill-opacity="1" /><path clip-path="url(#clip640)" d="M2307.61 1517.37 Q2304 1517.37 2302.17 1520.93 Q2300.37 1524.47 2300.37 1531.6 Q2300.37 1538.71 2302.17 1542.27 Q2304 1545.82 2307.61 1545.82 Q2311.25 1545.82 2313.05 1542.27 Q2314.88 1538.71 2314.88 1531.6 Q2314.88 1524.47 2313.05 1520.93 Q2311.25 1517.37 2307.61 1517.37 M2307.61 1513.66 Q2313.42 1513.66 2316.48 1518.27 Q2319.56 1522.85 2319.56 1531.6 Q2319.56 1540.33 2316.48 1544.94 Q2313.42 1549.52 2307.61 1549.52 Q2301.8 1549.52 2298.72 1544.94 Q2295.67 1540.33 2295.67 1531.6 Q2295.67 1522.85 2298.72 1518.27 Q2301.8 1513.66 2307.61 1513.66 Z" fill="#000000" fill-rule="nonzero" fill-opacity="1" /><path clip-path="url(#clip640)" d="M2337.78 1517.37 Q2334.16 1517.37 2332.34 1520.93 Q2330.53 1524.47 2330.53 1531.6 Q2330.53 1538.71 2332.34 1542.27 Q2334.16 1545.82 2337.78 1545.82 Q2341.41 1545.82 2343.22 1542.27 Q2345.04 1538.71 2345.04 1531.6 Q2345.04 1524.47 2343.22 1520.93 Q2341.41 1517.37 2337.78 1517.37 M2337.78 1513.66 Q2343.59 1513.66 2346.64 1518.27 Q2349.72 1522.85 2349.72 1531.6 Q2349.72 1540.33 2346.64 1544.94 Q2343.59 1549.52 2337.78 1549.52 Q2331.97 1549.52 2328.89 1544.94 Q2325.83 1540.33 2325.83 1531.6 Q2325.83 1522.85 2328.89 1518.27 Q2331.97 1513.66 2337.78 1513.66 Z" fill="#000000" fill-rule="nonzero" fill-opacity="1" /><polyline clip-path="url(#clip642)" style="stroke:#000000; stroke-linecap:round; stroke-linejoin:round; stroke-width:2; stroke-opacity:0.1; fill:none" points="230.996,1464.29 2352.76,1464.29 "/>
<polyline clip-path="url(#clip642)" style="stroke:#000000; stroke-linecap:round; stroke-linejoin:round; stroke-width:2; stroke-opacity:0.1; fill:none" points="230.996,1109.72 2352.76,1109.72 "/>
<polyline clip-path="url(#clip642)" style="stroke:#000000; stroke-linecap:round; stroke-linejoin:round; stroke-width:2; stroke-opacity:0.1; fill:none" points="230.996,755.159 2352.76,755.159 "/>
<polyline clip-path="url(#clip642)" style="stroke:#000000; stroke-linecap:round; stroke-linejoin:round; stroke-width:2; stroke-opacity:0.1; fill:none" points="230.996,400.595 2352.76,400.595 "/>
<polyline clip-path="url(#clip640)" style="stroke:#000000; stroke-linecap:round; stroke-linejoin:round; stroke-width:4; stroke-opacity:1; fill:none" points="230.996,1486.45 230.996,47.2441 "/>
<polyline clip-path="url(#clip640)" style="stroke:#000000; stroke-linecap:round; stroke-linejoin:round; stroke-width:4; stroke-opacity:1; fill:none" points="230.996,1464.29 249.894,1464.29 "/>
<polyline clip-path="url(#clip640)" style="stroke:#000000; stroke-linecap:round; stroke-linejoin:round; stroke-width:4; stroke-opacity:1; fill:none" points="230.996,1109.72 249.894,1109.72 "/>
<polyline clip-path="url(#clip640)" style="stroke:#000000; stroke-linecap:round; stroke-linejoin:round; stroke-width:4; stroke-opacity:1; fill:none" points="230.996,755.159 249.894,755.159 "/>
<polyline clip-path="url(#clip640)" style="stroke:#000000; stroke-linecap:round; stroke-linejoin:round; stroke-width:4; stroke-opacity:1; fill:none" points="230.996,400.595 249.894,400.595 "/>
<path clip-path="url(#clip640)" d="M52.4505 1447.01 L70.8068 1447.01 L70.8068 1450.94 L56.7328 1450.94 L56.7328 1459.42 Q57.7513 1459.07 58.7699 1458.91 Q59.7884 1458.72 60.8069 1458.72 Q66.5939 1458.72 69.9735 1461.89 Q73.3531 1465.06 73.3531 1470.48 Q73.3531 1476.06 69.8809 1479.16 Q66.4087 1482.24 60.0893 1482.24 Q57.9134 1482.24 55.6449 1481.87 Q53.3995 1481.5 50.9921 1480.76 L50.9921 1476.06 Q53.0754 1477.19 55.2977 1477.75 Q57.5199 1478.3 59.9967 1478.3 Q64.0013 1478.3 66.3393 1476.2 Q68.6772 1474.09 68.6772 1470.48 Q68.6772 1466.87 66.3393 1464.76 Q64.0013 1462.66 59.9967 1462.66 Q58.1217 1462.66 56.2467 1463.07 Q54.3949 1463.49 52.4505 1464.37 L52.4505 1447.01 Z" fill="#000000" fill-rule="nonzero" fill-opacity="1" /><path clip-path="url(#clip640)" d="M92.566 1450.09 Q88.9549 1450.09 87.1262 1453.65 Q85.3206 1457.19 85.3206 1464.32 Q85.3206 1471.43 87.1262 1474.99 Q88.9549 1478.54 92.566 1478.54 Q96.2002 1478.54 98.0058 1474.99 Q99.8345 1471.43 99.8345 1464.32 Q99.8345 1457.19 98.0058 1453.65 Q96.2002 1450.09 92.566 1450.09 M92.566 1446.38 Q98.3761 1446.38 101.432 1450.99 Q104.51 1455.57 104.51 1464.32 Q104.51 1473.05 101.432 1477.66 Q98.3761 1482.24 92.566 1482.24 Q86.7558 1482.24 83.6771 1477.66 Q80.6216 1473.05 80.6216 1464.32 Q80.6216 1455.57 83.6771 1450.99 Q86.7558 1446.38 92.566 1446.38 Z" fill="#000000" fill-rule="nonzero" fill-opacity="1" /><path clip-path="url(#clip640)" d="M122.728 1450.09 Q119.117 1450.09 117.288 1453.65 Q115.483 1457.19 115.483 1464.32 Q115.483 1471.43 117.288 1474.99 Q119.117 1478.54 122.728 1478.54 Q126.362 1478.54 128.168 1474.99 Q129.996 1471.43 129.996 1464.32 Q129.996 1457.19 128.168 1453.65 Q126.362 1450.09 122.728 1450.09 M122.728 1446.38 Q128.538 1446.38 131.594 1450.99 Q134.672 1455.57 134.672 1464.32 Q134.672 1473.05 131.594 1477.66 Q128.538 1482.24 122.728 1482.24 Q116.918 1482.24 113.839 1477.66 Q110.783 1473.05 110.783 1464.32 Q110.783 1455.57 113.839 1450.99 Q116.918 1446.38 122.728 1446.38 Z" fill="#000000" fill-rule="nonzero" fill-opacity="1" /><path clip-path="url(#clip640)" d="M152.89 1450.09 Q149.279 1450.09 147.45 1453.65 Q145.644 1457.19 145.644 1464.32 Q145.644 1471.43 147.45 1474.99 Q149.279 1478.54 152.89 1478.54 Q156.524 1478.54 158.33 1474.99 Q160.158 1471.43 160.158 1464.32 Q160.158 1457.19 158.33 1453.65 Q156.524 1450.09 152.89 1450.09 M152.89 1446.38 Q158.7 1446.38 161.755 1450.99 Q164.834 1455.57 164.834 1464.32 Q164.834 1473.05 161.755 1477.66 Q158.7 1482.24 152.89 1482.24 Q147.08 1482.24 144.001 1477.66 Q140.945 1473.05 140.945 1464.32 Q140.945 1455.57 144.001 1450.99 Q147.08 1446.38 152.89 1446.38 Z" fill="#000000" fill-rule="nonzero" fill-opacity="1" /><path clip-path="url(#clip640)" d="M183.052 1450.09 Q179.441 1450.09 177.612 1453.65 Q175.806 1457.19 175.806 1464.32 Q175.806 1471.43 177.612 1474.99 Q179.441 1478.54 183.052 1478.54 Q186.686 1478.54 188.491 1474.99 Q190.32 1471.43 190.32 1464.32 Q190.32 1457.19 188.491 1453.65 Q186.686 1450.09 183.052 1450.09 M183.052 1446.38 Q188.862 1446.38 191.917 1450.99 Q194.996 1455.57 194.996 1464.32 Q194.996 1473.05 191.917 1477.66 Q188.862 1482.24 183.052 1482.24 Q177.241 1482.24 174.163 1477.66 Q171.107 1473.05 171.107 1464.32 Q171.107 1455.57 174.163 1450.99 Q177.241 1446.38 183.052 1446.38 Z" fill="#000000" fill-rule="nonzero" fill-opacity="1" /><path clip-path="url(#clip640)" d="M52.4505 1092.44 L70.8068 1092.44 L70.8068 1096.38 L56.7328 1096.38 L56.7328 1104.85 Q57.7513 1104.5 58.7699 1104.34 Q59.7884 1104.16 60.8069 1104.16 Q66.5939 1104.16 69.9735 1107.33 Q73.3531 1110.5 73.3531 1115.92 Q73.3531 1121.49 69.8809 1124.6 Q66.4087 1127.68 60.0893 1127.68 Q57.9134 1127.68 55.6449 1127.3 Q53.3995 1126.93 50.9921 1126.19 L50.9921 1121.49 Q53.0754 1122.63 55.2977 1123.18 Q57.5199 1123.74 59.9967 1123.74 Q64.0013 1123.74 66.3393 1121.63 Q68.6772 1119.53 68.6772 1115.92 Q68.6772 1112.31 66.3393 1110.2 Q64.0013 1108.09 59.9967 1108.09 Q58.1217 1108.09 56.2467 1108.51 Q54.3949 1108.93 52.4505 1109.81 L52.4505 1092.44 Z" fill="#000000" fill-rule="nonzero" fill-opacity="1" /><path clip-path="url(#clip640)" d="M83.3762 1123.07 L91.0151 1123.07 L91.0151 1096.7 L82.7049 1098.37 L82.7049 1094.11 L90.9688 1092.44 L95.6447 1092.44 L95.6447 1123.07 L103.284 1123.07 L103.284 1127 L83.3762 1127 L83.3762 1123.07 Z" fill="#000000" fill-rule="nonzero" fill-opacity="1" /><path clip-path="url(#clip640)" d="M122.728 1095.52 Q119.117 1095.52 117.288 1099.09 Q115.483 1102.63 115.483 1109.76 Q115.483 1116.87 117.288 1120.43 Q119.117 1123.97 122.728 1123.97 Q126.362 1123.97 128.168 1120.43 Q129.996 1116.87 129.996 1109.76 Q129.996 1102.63 128.168 1099.09 Q126.362 1095.52 122.728 1095.52 M122.728 1091.82 Q128.538 1091.82 131.594 1096.43 Q134.672 1101.01 134.672 1109.76 Q134.672 1118.49 131.594 1123.09 Q128.538 1127.68 122.728 1127.68 Q116.918 1127.68 113.839 1123.09 Q110.783 1118.49 110.783 1109.76 Q110.783 1101.01 113.839 1096.43 Q116.918 1091.82 122.728 1091.82 Z" fill="#000000" fill-rule="nonzero" fill-opacity="1" /><path clip-path="url(#clip640)" d="M152.89 1095.52 Q149.279 1095.52 147.45 1099.09 Q145.644 1102.63 145.644 1109.76 Q145.644 1116.87 147.45 1120.43 Q149.279 1123.97 152.89 1123.97 Q156.524 1123.97 158.33 1120.43 Q160.158 1116.87 160.158 1109.76 Q160.158 1102.63 158.33 1099.09 Q156.524 1095.52 152.89 1095.52 M152.89 1091.82 Q158.7 1091.82 161.755 1096.43 Q164.834 1101.01 164.834 1109.76 Q164.834 1118.49 161.755 1123.09 Q158.7 1127.68 152.89 1127.68 Q147.08 1127.68 144.001 1123.09 Q140.945 1118.49 140.945 1109.76 Q140.945 1101.01 144.001 1096.43 Q147.08 1091.82 152.89 1091.82 Z" fill="#000000" fill-rule="nonzero" fill-opacity="1" /><path clip-path="url(#clip640)" d="M183.052 1095.52 Q179.441 1095.52 177.612 1099.09 Q175.806 1102.63 175.806 1109.76 Q175.806 1116.87 177.612 1120.43 Q179.441 1123.97 183.052 1123.97 Q186.686 1123.97 188.491 1120.43 Q190.32 1116.87 190.32 1109.76 Q190.32 1102.63 188.491 1099.09 Q186.686 1095.52 183.052 1095.52 M183.052 1091.82 Q188.862 1091.82 191.917 1096.43 Q194.996 1101.01 194.996 1109.76 Q194.996 1118.49 191.917 1123.09 Q188.862 1127.68 183.052 1127.68 Q177.241 1127.68 174.163 1123.09 Q171.107 1118.49 171.107 1109.76 Q171.107 1101.01 174.163 1096.43 Q177.241 1091.82 183.052 1091.82 Z" fill="#000000" fill-rule="nonzero" fill-opacity="1" /><path clip-path="url(#clip640)" d="M52.4505 737.879 L70.8068 737.879 L70.8068 741.814 L56.7328 741.814 L56.7328 750.287 Q57.7513 749.939 58.7699 749.777 Q59.7884 749.592 60.8069 749.592 Q66.5939 749.592 69.9735 752.763 Q73.3531 755.935 73.3531 761.351 Q73.3531 766.93 69.8809 770.032 Q66.4087 773.111 60.0893 773.111 Q57.9134 773.111 55.6449 772.74 Q53.3995 772.37 50.9921 771.629 L50.9921 766.93 Q53.0754 768.064 55.2977 768.62 Q57.5199 769.175 59.9967 769.175 Q64.0013 769.175 66.3393 767.069 Q68.6772 764.962 68.6772 761.351 Q68.6772 757.74 66.3393 755.634 Q64.0013 753.527 59.9967 753.527 Q58.1217 753.527 56.2467 753.944 Q54.3949 754.361 52.4505 755.24 L52.4505 737.879 Z" fill="#000000" fill-rule="nonzero" fill-opacity="1" /><path clip-path="url(#clip640)" d="M86.5938 768.504 L102.913 768.504 L102.913 772.439 L80.9688 772.439 L80.9688 768.504 Q83.6308 765.75 88.2141 761.12 Q92.8206 756.467 94.0012 755.125 Q96.2465 752.601 97.1261 750.865 Q98.0289 749.106 98.0289 747.416 Q98.0289 744.662 96.0845 742.926 Q94.1632 741.189 91.0614 741.189 Q88.8623 741.189 86.4086 741.953 Q83.9781 742.717 81.2003 744.268 L81.2003 739.546 Q84.0244 738.412 86.478 737.833 Q88.9317 737.254 90.9688 737.254 Q96.3391 737.254 99.5335 739.939 Q102.728 742.625 102.728 747.115 Q102.728 749.245 101.918 751.166 Q101.131 753.064 99.0243 755.657 Q98.4456 756.328 95.3437 759.546 Q92.2419 762.74 86.5938 768.504 Z" fill="#000000" fill-rule="nonzero" fill-opacity="1" /><path clip-path="url(#clip640)" d="M122.728 740.958 Q119.117 740.958 117.288 744.523 Q115.483 748.064 115.483 755.194 Q115.483 762.3 117.288 765.865 Q119.117 769.407 122.728 769.407 Q126.362 769.407 128.168 765.865 Q129.996 762.3 129.996 755.194 Q129.996 748.064 128.168 744.523 Q126.362 740.958 122.728 740.958 M122.728 737.254 Q128.538 737.254 131.594 741.861 Q134.672 746.444 134.672 755.194 Q134.672 763.921 131.594 768.527 Q128.538 773.111 122.728 773.111 Q116.918 773.111 113.839 768.527 Q110.783 763.921 110.783 755.194 Q110.783 746.444 113.839 741.861 Q116.918 737.254 122.728 737.254 Z" fill="#000000" fill-rule="nonzero" fill-opacity="1" /><path clip-path="url(#clip640)" d="M152.89 740.958 Q149.279 740.958 147.45 744.523 Q145.644 748.064 145.644 755.194 Q145.644 762.3 147.45 765.865 Q149.279 769.407 152.89 769.407 Q156.524 769.407 158.33 765.865 Q160.158 762.3 160.158 755.194 Q160.158 748.064 158.33 744.523 Q156.524 740.958 152.89 740.958 M152.89 737.254 Q158.7 737.254 161.755 741.861 Q164.834 746.444 164.834 755.194 Q164.834 763.921 161.755 768.527 Q158.7 773.111 152.89 773.111 Q147.08 773.111 144.001 768.527 Q140.945 763.921 140.945 755.194 Q140.945 746.444 144.001 741.861 Q147.08 737.254 152.89 737.254 Z" fill="#000000" fill-rule="nonzero" fill-opacity="1" /><path clip-path="url(#clip640)" d="M183.052 740.958 Q179.441 740.958 177.612 744.523 Q175.806 748.064 175.806 755.194 Q175.806 762.3 177.612 765.865 Q179.441 769.407 183.052 769.407 Q186.686 769.407 188.491 765.865 Q190.32 762.3 190.32 755.194 Q190.32 748.064 188.491 744.523 Q186.686 740.958 183.052 740.958 M183.052 737.254 Q188.862 737.254 191.917 741.861 Q194.996 746.444 194.996 755.194 Q194.996 763.921 191.917 768.527 Q188.862 773.111 183.052 773.111 Q177.241 773.111 174.163 768.527 Q171.107 763.921 171.107 755.194 Q171.107 746.444 174.163 741.861 Q177.241 737.254 183.052 737.254 Z" fill="#000000" fill-rule="nonzero" fill-opacity="1" /><path clip-path="url(#clip640)" d="M52.4505 383.315 L70.8068 383.315 L70.8068 387.25 L56.7328 387.25 L56.7328 395.722 Q57.7513 395.375 58.7699 395.213 Q59.7884 395.027 60.8069 395.027 Q66.5939 395.027 69.9735 398.199 Q73.3531 401.37 73.3531 406.787 Q73.3531 412.365 69.8809 415.467 Q66.4087 418.546 60.0893 418.546 Q57.9134 418.546 55.6449 418.176 Q53.3995 417.805 50.9921 417.064 L50.9921 412.365 Q53.0754 413.5 55.2977 414.055 Q57.5199 414.611 59.9967 414.611 Q64.0013 414.611 66.3393 412.504 Q68.6772 410.398 68.6772 406.787 Q68.6772 403.176 66.3393 401.069 Q64.0013 398.963 59.9967 398.963 Q58.1217 398.963 56.2467 399.379 Q54.3949 399.796 52.4505 400.676 L52.4505 383.315 Z" fill="#000000" fill-rule="nonzero" fill-opacity="1" /><path clip-path="url(#clip640)" d="M96.7326 399.24 Q100.089 399.958 101.964 402.227 Q103.862 404.495 103.862 407.828 Q103.862 412.944 100.344 415.745 Q96.8252 418.546 90.3438 418.546 Q88.1679 418.546 85.8531 418.106 Q83.5614 417.689 81.1077 416.833 L81.1077 412.319 Q83.0521 413.453 85.3669 414.032 Q87.6817 414.611 90.2049 414.611 Q94.603 414.611 96.8947 412.875 Q99.2095 411.139 99.2095 407.828 Q99.2095 404.773 97.0567 403.06 Q94.9271 401.324 91.1077 401.324 L87.0799 401.324 L87.0799 397.481 L91.2928 397.481 Q94.7419 397.481 96.5706 396.115 Q98.3993 394.727 98.3993 392.134 Q98.3993 389.472 96.5011 388.06 Q94.6262 386.625 91.1077 386.625 Q89.1864 386.625 86.9873 387.041 Q84.7882 387.458 82.1494 388.338 L82.1494 384.171 Q84.8114 383.43 87.1262 383.06 Q89.4641 382.69 91.5243 382.69 Q96.8484 382.69 99.9502 385.12 Q103.052 387.528 103.052 391.648 Q103.052 394.518 101.409 396.509 Q99.765 398.477 96.7326 399.24 Z" fill="#000000" fill-rule="nonzero" fill-opacity="1" /><path clip-path="url(#clip640)" d="M122.728 386.393 Q119.117 386.393 117.288 389.958 Q115.483 393.5 115.483 400.629 Q115.483 407.736 117.288 411.301 Q119.117 414.842 122.728 414.842 Q126.362 414.842 128.168 411.301 Q129.996 407.736 129.996 400.629 Q129.996 393.5 128.168 389.958 Q126.362 386.393 122.728 386.393 M122.728 382.69 Q128.538 382.69 131.594 387.296 Q134.672 391.879 134.672 400.629 Q134.672 409.356 131.594 413.963 Q128.538 418.546 122.728 418.546 Q116.918 418.546 113.839 413.963 Q110.783 409.356 110.783 400.629 Q110.783 391.879 113.839 387.296 Q116.918 382.69 122.728 382.69 Z" fill="#000000" fill-rule="nonzero" fill-opacity="1" /><path clip-path="url(#clip640)" d="M152.89 386.393 Q149.279 386.393 147.45 389.958 Q145.644 393.5 145.644 400.629 Q145.644 407.736 147.45 411.301 Q149.279 414.842 152.89 414.842 Q156.524 414.842 158.33 411.301 Q160.158 407.736 160.158 400.629 Q160.158 393.5 158.33 389.958 Q156.524 386.393 152.89 386.393 M152.89 382.69 Q158.7 382.69 161.755 387.296 Q164.834 391.879 164.834 400.629 Q164.834 409.356 161.755 413.963 Q158.7 418.546 152.89 418.546 Q147.08 418.546 144.001 413.963 Q140.945 409.356 140.945 400.629 Q140.945 391.879 144.001 387.296 Q147.08 382.69 152.89 382.69 Z" fill="#000000" fill-rule="nonzero" fill-opacity="1" /><path clip-path="url(#clip640)" d="M183.052 386.393 Q179.441 386.393 177.612 389.958 Q175.806 393.5 175.806 400.629 Q175.806 407.736 177.612 411.301 Q179.441 414.842 183.052 414.842 Q186.686 414.842 188.491 411.301 Q190.32 407.736 190.32 400.629 Q190.32 393.5 188.491 389.958 Q186.686 386.393 183.052 386.393 M183.052 382.69 Q188.862 382.69 191.917 387.296 Q194.996 391.879 194.996 400.629 Q194.996 409.356 191.917 413.963 Q188.862 418.546 183.052 418.546 Q177.241 418.546 174.163 413.963 Q171.107 409.356 171.107 400.629 Q171.107 391.879 174.163 387.296 Q177.241 382.69 183.052 382.69 Z" fill="#000000" fill-rule="nonzero" fill-opacity="1" /><polyline clip-path="url(#clip642)" style="stroke:#009af9; stroke-linecap:round; stroke-linejoin:round; stroke-width:4; stroke-opacity:1; fill:none" points="291.046,981.299 292.047,981.327 293.047,981.355 294.048,981.382 295.049,981.409 296.05,970.972 297.051,970.98 298.052,970.987 299.052,970.994 300.053,971.001 301.054,472.297 302.055,472.305 303.056,472.312 304.057,472.319 305.057,472.326 306.058,1008.89 307.059,1008.92 308.06,1008.95 309.061,1008.97 310.062,1009 311.062,450.384 312.063,450.4 313.064,450.415 314.065,450.43 315.066,450.445 316.067,845.197 317.067,845.201 318.068,845.206 319.069,845.21 320.07,845.214 321.071,723.459 322.072,723.463 323.072,723.467 324.073,723.471 325.074,723.475 326.075,851.196 327.076,851.211 328.077,851.227 329.077,851.241 330.078,851.256 331.079,489.36 332.08,489.408 333.081,489.454 334.081,489.5 335.082,489.544 336.083,684.374 337.084,684.413 338.085,684.45 339.086,684.487 340.086,684.523 341.087,604.967 342.088,605.01 343.089,605.051 344.09,605.092 345.091,605.132 346.091,744.018 347.092,744.039 348.093,744.059 349.094,744.079 350.095,744.099 351.096,1022.01 352.096,1022.04 353.097,1022.07 354.098,1022.11 355.099,1022.13 356.1,881.744 357.101,881.749 358.101,881.753 359.102,881.757 360.103,881.761 361.104,796.598 362.105,796.619 363.106,796.64 364.106,796.661 365.107,796.68 366.108,813.284 367.109,813.287 368.11,813.291 369.111,813.295 370.111,813.298 371.112,997.458 372.113,997.503 373.114,997.547 374.115,997.591 375.116,997.633 376.116,575.201 377.117,575.229 378.118,575.257 379.119,575.284 380.12,575.31 381.121,581.669 382.121,581.708 383.122,581.746 384.123,581.783 385.124,581.819 386.125,907.572 387.125,907.591 388.126,907.609 389.127,907.627 390.128,907.645 391.129,446.637 392.13,446.672 393.13,446.705 394.131,446.738 395.132,446.77 396.133,1003.36 397.134,1003.37 398.135,1003.37 399.135,1003.37 400.136,1003.38 401.137,361.95 402.138,361.958 403.139,361.965 404.14,361.972 405.14,361.978 406.141,822.375 407.142,822.409 408.143,822.442 409.144,822.474 410.145,822.505 411.145,758.665 412.146,758.676 413.147,758.687 414.148,758.698 415.149,758.708 416.15,623.959 417.15,623.968 418.151,623.977 419.152,623.986 420.153,623.995 421.154,458.785 422.155,458.826 423.155,458.867 424.156,458.906 425.157,458.944 426.158,691.305 427.159,691.315 428.16,691.325 429.16,691.334 430.161,691.344 431.162,998.418 432.163,998.436 433.164,998.454 434.165,998.471 435.165,998.488 436.166,501.953 437.167,501.963 438.168,501.973 439.169,501.983 440.169,501.993 441.17,610.845 442.171,610.886 443.172,610.926 444.173,610.965 445.174,611.004 446.174,560.906 447.175,560.976 448.176,561.044 449.177,561.11 450.178,561.174 451.179,477.033 452.179,477.051 453.18,477.069 454.181,477.086 455.182,477.103 456.183,1148.05 457.184,1148.06 458.184,1148.07 459.185,1148.09 460.186,1148.1 461.187,670.243 462.188,670.254 463.189,670.265 464.189,670.275 465.19,670.286 466.191,861.459 467.192,861.474 468.193,861.489 469.194,861.503 470.194,861.517 471.195,836.594 472.196,836.603 473.197,836.612 474.198,836.62 475.199,836.628 476.199,933.769 477.2,933.814 478.201,933.859 479.202,933.902 480.203,933.944 481.204,824.896 482.204,824.904 483.205,824.911 484.206,824.918 485.207,824.925 486.208,855.644 487.209,855.654 488.209,855.664 489.21,855.673 490.211,855.682 491.212,825.326 492.213,825.332 493.213,825.338 494.214,825.344 495.215,825.35 496.216,745.628 497.217,745.674 498.218,745.719 499.218,745.763 500.219,745.805 501.22,1005.72 502.221,1005.77 503.222,1005.8 504.223,1005.84 505.223,1005.88 506.224,485.773 507.225,485.842 508.226,485.909 509.227,485.974 510.228,486.038 511.228,716.19 512.229,716.209 513.23,716.228 514.231,716.246 515.232,716.264 516.233,810.604 517.233,810.622 518.234,810.639 519.235,810.655 520.236,810.671 521.237,863.592 522.238,863.615 523.238,863.637 524.239,863.658 525.24,863.679 526.241,493.429 527.242,493.46 528.243,493.491 529.243,493.521 530.244,493.55 531.245,798.656 532.246,798.658 533.247,798.661 534.248,798.663 535.248,798.666 536.249,1275.13 537.25,1275.14 538.251,1275.15 539.252,1275.16 540.253,1275.17 541.253,408.88 542.254,408.908 543.255,408.935 544.256,408.962 545.257,408.988 546.257,826.03 547.258,826.041 548.259,826.052 549.26,826.063 550.261,826.073 551.262,733.988 552.262,733.998 553.263,734.007 554.264,734.017 555.265,734.025 556.266,1179.78 557.267,1179.79 558.267,1179.8 559.268,1179.81 560.269,1179.81 561.27,461.573 562.271,461.594 563.272,461.613 564.272,461.632 565.273,461.651 566.274,574.275 567.275,574.318 568.276,574.36 569.277,574.4 570.277,574.44 571.278,716.399 572.279,716.442 573.28,716.483 574.281,716.523 575.282,716.562 576.282,598.801 577.283,598.82 578.284,598.838 579.285,598.857 580.286,598.874 581.287,477.105 582.287,477.141 583.288,477.177 584.289,477.211 585.29,477.245 586.291,610.954 587.292,611.001 588.292,611.047 589.293,611.092 590.294,611.136 591.295,663.978 592.296,664.039 593.296,664.099 594.297,664.157 595.298,664.213 596.299,655.679 597.3,655.706 598.301,655.733 599.301,655.759 600.302,655.784 601.303,547.262 602.304,547.28 603.305,547.297 604.306,547.314 605.306,547.331 606.307,507.141 607.308,507.155 608.309,507.169 609.31,507.182 610.311,507.195 611.311,859.267 612.312,859.294 613.313,859.32 614.314,859.345 615.315,859.371 616.316,267.838 617.316,267.852 618.317,267.866 619.318,267.879 620.319,267.892 621.32,765.193 622.321,765.204 623.321,765.215 624.322,765.226 625.323,765.236 626.324,575.777 627.325,575.797 628.326,575.818 629.326,575.837 630.327,575.857 631.328,1221.82 632.329,1221.84 633.33,1221.87 634.331,1221.89 635.331,1221.92 636.332,627.797 637.333,627.821 638.334,627.845 639.335,627.868 640.336,627.89 641.336,824.294 642.337,824.331 643.338,824.366 644.339,824.401 645.34,824.434 646.34,1257.99 647.341,1258 648.342,1258 649.343,1258.01 650.344,1258.02 651.345,885.696 652.345,885.707 653.346,885.717 654.347,885.727 655.348,885.737 656.349,430.941 657.35,430.959 658.35,430.976 659.351,430.993 660.352,431.01 661.353,583.685 662.354,583.728 663.355,583.77 664.355,583.811 665.356,583.851 666.357,702.203 667.358,702.245 668.359,702.287 669.36,702.327 670.36,702.366 671.361,1445.64 672.362,1445.66 673.363,1445.68 674.364,1445.7 675.365,1445.72 676.365,299.544 677.366,299.547 678.367,299.55 679.368,299.554 680.369,299.557 681.37,975.211 682.37,975.24 683.371,975.269 684.372,975.298 685.373,975.325 686.374,968.65 687.375,968.661 688.375,968.672 689.376,968.682 690.377,968.692 691.378,763.365 692.379,763.371 693.38,763.377 694.38,763.382 695.381,763.387 696.382,1154.03 697.383,1154.05 698.384,1154.06 699.384,1154.08 700.385,1154.09 701.386,1092.18 702.387,1092.21 703.388,1092.24 704.389,1092.26 705.389,1092.29 706.39,594.145 707.391,594.173 708.392,594.201 709.393,594.228 710.394,594.254 711.394,747.07 712.395,747.09 713.396,747.109 714.397,747.128 715.398,747.146 716.399,707.778 717.399,707.81 718.4,707.841 719.401,707.872 720.402,707.901 721.403,522.491 722.404,522.5 723.404,522.508 724.405,522.517 725.406,522.525 726.407,899.304 727.408,899.309 728.409,899.315 729.409,899.32 730.41,899.325 731.411,1063.85 732.412,1063.86 733.413,1063.86 734.414,1063.87 735.414,1063.88 736.415,654.521 737.416,654.549 738.417,654.576 739.418,654.602 740.419,654.628 741.419,668.944 742.42,668.954 743.421,668.964 744.422,668.973 745.423,668.983 746.424,906.77 747.424,906.78 748.425,906.79 749.426,906.8 750.427,906.809 751.428,673.121 752.428,673.133 753.429,673.144 754.43,673.156 755.431,673.166 756.432,525.745 757.433,525.788 758.433,525.83 759.434,525.871 760.435,525.911 761.436,254.942 762.437,254.969 763.438,254.994 764.438,255.019 765.439,255.044 766.44,620.097 767.441,620.111 768.442,620.124 769.443,620.137 770.443,620.149 771.444,908.025 772.445,908.051 773.446,908.076 774.447,908.101 775.448,908.125 776.448,478.66 777.449,478.667 778.45,478.674 779.451,478.681 780.452,478.687 781.453,807.957 782.453,807.973 783.454,807.989 784.455,808.005 785.456,808.02 786.457,1137.47 787.458,1137.5 788.458,1137.52 789.459,1137.55 790.46,1137.57 791.461,896.506 792.462,896.512 793.463,896.518 794.463,896.524 795.464,896.53 796.465,354.764 797.466,354.795 798.467,354.824 799.468,354.853 800.468,354.88 801.469,526.475 802.47,526.499 803.471,526.523 804.472,526.547 805.472,526.569 806.473,878.151 807.474,878.183 808.475,878.214 809.476,878.244 810.477,878.274 811.477,722.684 812.478,722.704 813.479,722.724 814.48,722.744 815.481,722.763 816.482,1062.68 817.482,1062.69 818.483,1062.71 819.484,1062.72 820.485,1062.73 821.486,1088.99 822.487,1089.02 823.487,1089.05 824.488,1089.08 825.489,1089.1 826.49,1129.88 827.491,1129.9 828.492,1129.93 829.492,1129.96 830.493,1129.99 831.494,834.034 832.495,834.056 833.496,834.078 834.497,834.099 835.497,834.12 836.498,682.635 837.499,682.654 838.5,682.672 839.501,682.69 840.502,682.707 841.502,715.61 842.503,715.626 843.504,715.641 844.505,715.656 845.506,715.671 846.507,540.978 847.507,540.998 848.508,541.018 849.509,541.038 850.51,541.057 851.511,870.135 852.512,870.139 853.512,870.142 854.513,870.145 855.514,870.149 856.515,975.032 857.516,975.058 858.516,975.083 859.517,975.108 860.518,975.132 861.519,829.603 862.52,829.614 863.521,829.624 864.521,829.634 865.522,829.644 866.523,944.025 867.524,944.057 868.525,944.089 869.526,944.12 870.526,944.15 871.527,553.438 872.528,553.519 873.529,553.598 874.53,553.675 875.531,553.75 876.531,738.117 877.532,738.141 878.533,738.164 879.534,738.186 880.535,738.208 881.536,152.412 882.536,152.427 883.537,152.441 884.538,152.455 885.539,152.469 886.54,703.226 887.541,703.233 888.541,703.239 889.542,703.244 890.543,703.25 891.544,540.329 892.545,540.363 893.546,540.396 894.546,540.427 895.547,540.459 896.548,1040.05 897.549,1040.08 898.55,1040.1 899.551,1040.13 900.551,1040.15 901.552,901.707 902.553,901.734 903.554,901.761 904.555,901.787 905.556,901.812 906.556,402.234 907.557,402.249 908.558,402.263 909.559,402.277 910.56,402.29 911.56,628.95 912.561,628.993 913.562,629.035 914.563,629.076 915.564,629.116 916.565,737.586 917.565,737.624 918.566,737.662 919.567,737.699 920.568,737.735 921.569,727.056 922.57,727.068 923.57,727.08 924.571,727.092 925.572,727.103 926.573,877.185 927.574,877.228 928.575,877.27 929.575,877.31 930.576,877.35 931.577,717.713 932.578,717.722 933.579,717.73 934.58,717.737 935.58,717.745 936.581,993.297 937.582,993.304 938.583,993.31 939.584,993.316 940.585,993.322 941.585,373.91 942.586,373.934 943.587,373.957 944.588,373.98 945.589,374.003 946.59,509.467 947.59,509.474 948.591,509.481 949.592,509.488 950.593,509.495 951.594,930.859 952.595,930.877 953.595,930.895 954.596,930.912 955.597,930.929 956.598,693.317 957.599,693.351 958.6,693.384 959.6,693.416 960.601,693.448 961.602,665.681 962.603,665.72 963.604,665.758 964.604,665.794 965.605,665.83 966.606,1060.93 967.607,1060.94 968.608,1060.96 969.609,1060.97 970.609,1060.98 971.61,1134.71 972.611,1134.73 973.612,1134.75 974.613,1134.78 975.614,1134.8 976.614,568.001 977.615,568.008 978.616,568.014 979.617,568.021 980.618,568.027 981.619,783.126 982.619,783.131 983.62,783.136 984.621,783.141 985.622,783.145 986.623,604.498 987.624,604.508 988.624,604.517 989.625,604.526 990.626,604.535 991.627,572.711 992.628,572.739 993.629,572.767 994.629,572.793 995.63,572.82 996.631,1070.13 997.632,1070.15 998.633,1070.18 999.634,1070.2 1000.63,1070.22 1001.64,476.017 1002.64,476.029 1003.64,476.042 1004.64,476.054 1005.64,476.065 1006.64,757.413 1007.64,757.423 1008.64,757.432 1009.64,757.442 1010.64,757.451 1011.64,966.167 1012.64,966.191 1013.65,966.213 1014.65,966.236 1015.65,966.257 1016.65,1106.28 1017.65,1106.34 1018.65,1106.41 1019.65,1106.47 1020.65,1106.53 1021.65,622.668 1022.65,622.679 1023.65,622.69 1024.65,622.701 1025.66,622.711 1026.66,1007.15 1027.66,1007.15 1028.66,1007.16 1029.66,1007.16 1030.66,1007.16 1031.66,643.957 1032.66,643.967 1033.66,643.977 1034.66,643.987 1035.66,643.996 1036.66,1017.91 1037.67,1017.92 1038.67,1017.92 1039.67,1017.92 1040.67,1017.93 1041.67,921.179 1042.67,921.221 1043.67,921.263 1044.67,921.304 1045.67,921.344 1046.67,735.028 1047.67,735.035 1048.67,735.043 1049.68,735.051 1050.68,735.058 1051.68,1102.64 1052.68,1102.67 1053.68,1102.7 1054.68,1102.73 1055.68,1102.75 1056.68,658.437 1057.68,658.458 1058.68,658.479 1059.68,658.499 1060.68,658.519 1061.69,598.449 1062.69,598.479 1063.69,598.508 1064.69,598.537 1065.69,598.565 1066.69,852.347 1067.69,852.351 1068.69,852.356 1069.69,852.36 1070.69,852.364 1071.69,779.1 1072.69,779.111 1073.69,779.123 1074.7,779.134 1075.7,779.145 1076.7,365.816 1077.7,365.841 1078.7,365.864 1079.7,365.888 1080.7,365.91 1081.7,780.08 1082.7,780.091 1083.7,780.102 1084.7,780.113 1085.7,780.124 1086.71,748.227 1087.71,748.244 1088.71,748.259 1089.71,748.275 1090.71,748.29 1091.71,567.749 1092.71,567.768 1093.71,567.787 1094.71,567.806 1095.71,567.824 1096.71,954.516 1097.71,954.529 1098.72,954.542 1099.72,954.554 1100.72,954.567 1101.72,949.312 1102.72,949.316 1103.72,949.32 1104.72,949.324 1105.72,949.327 1106.72,764.033 1107.72,764.062 1108.72,764.091 1109.72,764.118 1110.73,764.145 1111.73,760.423 1112.73,760.449 1113.73,760.474 1114.73,760.499 1115.73,760.523 1116.73,1257.06 1117.73,1257.09 1118.73,1257.12 1119.73,1257.15 1120.73,1257.18 1121.73,747.181 1122.74,747.184 1123.74,747.187 1124.74,747.19 1125.74,747.192 1126.74,1033.51 1127.74,1033.56 1128.74,1033.61 1129.74,1033.66 1130.74,1033.71 1131.74,894.137 1132.74,894.154 1133.74,894.171 1134.75,894.187 1135.75,894.203 1136.75,958.432 1137.75,958.46 1138.75,958.487 1139.75,958.513 1140.75,958.539 1141.75,678.821 1142.75,678.836 1143.75,678.851 1144.75,678.865 1145.75,678.879 1146.76,1166.51 1147.76,1166.53 1148.76,1166.56 1149.76,1166.58 1150.76,1166.6 1151.76,738.088 1152.76,738.153 1153.76,738.217 1154.76,738.279 1155.76,738.339 1156.76,87.9763 1157.76,87.9925 1158.77,88.0083 1159.77,88.0237 1160.77,88.0386 1161.77,815.827 1162.77,815.835 1163.77,815.843 1164.77,815.851 1165.77,815.859 1166.77,971.705 1167.77,971.775 1168.77,971.844 1169.77,971.911 1170.78,971.976 1171.78,1112.04 1172.78,1112.07 1173.78,1112.1 1174.78,1112.12 1175.78,1112.15 1176.78,995.135 1177.78,995.146 1178.78,995.156 1179.78,995.166 1180.78,995.176 1181.78,871.089 1182.79,871.128 1183.79,871.165 1184.79,871.202 1185.79,871.238 1186.79,800.399 1187.79,800.414 1188.79,800.428 1189.79,800.443 1190.79,800.456 1191.79,769.813 1192.79,769.827 1193.79,769.841 1194.8,769.855 1195.8,769.868 1196.8,768.922 1197.8,768.943 1198.8,768.963 1199.8,768.983 1200.8,769.003 1201.8,877.23 1202.8,877.252 1203.8,877.272 1204.8,877.293 1205.8,877.312 1206.81,747.999 1207.81,748.026 1208.81,748.052 1209.81,748.077 1210.81,748.102 1211.81,786.48 1212.81,786.537 1213.81,786.593 1214.81,786.648 1215.81,786.701 1216.81,577.489 1217.81,577.494 1218.82,577.499 1219.82,577.504 1220.82,577.509 1221.82,739.83 1222.82,739.84 1223.82,739.85 1224.82,739.859 1225.82,739.868 1226.82,1412.46 1227.82,1412.49 1228.82,1412.51 1229.82,1412.53 1230.83,1412.56 1231.83,987.488 1232.83,987.501 1233.83,987.514 1234.83,987.526 1235.83,987.538 1236.83,607.18 1237.83,607.218 1238.83,607.256 1239.83,607.292 1240.83,607.328 1241.83,625.088 1242.84,625.098 1243.84,625.108 1244.84,625.118 1245.84,625.128 1246.84,1311.3 1247.84,1311.3 1248.84,1311.31 1249.84,1311.31 1250.84,1311.32 1251.84,1092.39 1252.84,1092.4 1253.84,1092.41 1254.85,1092.42 1255.85,1092.43 1256.85,384.707 1257.85,384.727 1258.85,384.746 1259.85,384.764 1260.85,384.782 1261.85,741.364 1262.85,741.382 1263.85,741.399 1264.85,741.415 1265.85,741.431 1266.86,1209.72 1267.86,1209.76 1268.86,1209.8 1269.86,1209.84 1270.86,1209.88 1271.86,784.037 1272.86,784.085 1273.86,784.131 1274.86,784.176 1275.86,784.221 1276.86,653.008 1277.86,653.068 1278.87,653.127 1279.87,653.185 1280.87,653.241 1281.87,763.7 1282.87,763.779 1283.87,763.855 1284.87,763.929 1285.87,764.002 1286.87,974.672 1287.87,974.717 1288.87,974.76 1289.87,974.802 1290.88,974.843 1291.88,613.367 1292.88,613.391 1293.88,613.416 1294.88,613.439 1295.88,613.462 1296.88,631.348 1297.88,631.374 1298.88,631.4 1299.88,631.425 1300.88,631.449 1301.88,694.159 1302.89,694.177 1303.89,694.196 1304.89,694.214 1305.89,694.231 1306.89,653.129 1307.89,653.169 1308.89,653.207 1309.89,653.245 1310.89,653.282 1311.89,559.58 1312.89,559.62 1313.89,559.659 1314.9,559.697 1315.9,559.734 1316.9,605.026 1317.9,605.039 1318.9,605.052 1319.9,605.065 1320.9,605.077 1321.9,564.919 1322.9,564.981 1323.9,565.041 1324.9,565.1 1325.9,565.157 1326.91,898.492 1327.91,898.5 1328.91,898.507 1329.91,898.513 1330.91,898.52 1331.91,810.285 1332.91,810.326 1333.91,810.366 1334.91,810.406 1335.91,810.444 1336.91,682.647 1337.91,682.686 1338.91,682.724 1339.92,682.762 1340.92,682.798 1341.92,864.458 1342.92,864.47 1343.92,864.482 1344.92,864.493 1345.92,864.504 1346.92,503.483 1347.92,503.523 1348.92,503.562 1349.92,503.6 1350.92,503.636 1351.93,572.598 1352.93,572.626 1353.93,572.653 1354.93,572.679 1355.93,572.705 1356.93,606.777 1357.93,606.782 1358.93,606.786 1359.93,606.79 1360.93,606.795 1361.93,819.018 1362.93,819.041 1363.94,819.063 1364.94,819.085 1365.94,819.106 1366.94,920.013 1367.94,920.019 1368.94,920.024 1369.94,920.029 1370.94,920.034 1371.94,599.355 1372.94,599.376 1373.94,599.395 1374.94,599.414 1375.95,599.433 1376.95,324.674 1377.95,324.714 1378.95,324.753 1379.95,324.791 1380.95,324.829 1381.95,817.999 1382.95,818.014 1383.95,818.028 1384.95,818.043 1385.95,818.057 1386.95,893.077 1387.96,893.095 1388.96,893.113 1389.96,893.13 1390.96,893.146 1391.96,802.94 1392.96,802.961 1393.96,802.983 1394.96,803.004 1395.96,803.024 1396.96,649.907 1397.96,649.915 1398.96,649.923 1399.97,649.931 1400.97,649.939 1401.97,603.774 1402.97,603.812 1403.97,603.849 1404.97,603.885 1405.97,603.92 1406.97,887.32 1407.97,887.337 1408.97,887.354 1409.97,887.37 1410.97,887.386 1411.98,490.344 1412.98,490.368 1413.98,490.392 1414.98,490.415 1415.98,490.437 1416.98,955.09 1417.98,955.132 1418.98,955.172 1419.98,955.212 1420.98,955.251 1421.98,881.044 1422.98,881.051 1423.99,881.058 1424.99,881.065 1425.99,881.072 1426.99,874.607 1427.99,874.629 1428.99,874.65 1429.99,874.671 1430.99,874.692 1431.99,469.33 1432.99,469.367 1433.99,469.404 1434.99,469.439 1436,469.474 1437,620.055 1438,620.1 1439,620.144 1440,620.186 1441,620.228 1442,1148.49 1443,1148.51 1444,1148.52 1445,1148.53 1446,1148.55 1447,681.492 1448.01,681.525 1449.01,681.558 1450.01,681.59 1451.01,681.621 1452.01,704.666 1453.01,704.676 1454.01,704.685 1455.01,704.695 1456.01,704.704 1457.01,438.293 1458.01,438.309 1459.01,438.323 1460.02,438.338 1461.02,438.351 1462.02,662.663 1463.02,662.672 1464.02,662.681 1465.02,662.689 1466.02,662.697 1467.02,837.144 1468.02,837.172 1469.02,837.199 1470.02,837.226 1471.02,837.252 1472.03,919.104 1473.03,919.141 1474.03,919.176 1475.03,919.211 1476.03,919.244 1477.03,552.068 1478.03,552.112 1479.03,552.156 1480.03,552.198 1481.03,552.238 1482.03,744.57 1483.03,744.593 1484.04,744.615 1485.04,744.637 1486.04,744.658 1487.04,753.331 1488.04,753.36 1489.04,753.389 1490.04,753.417 1491.04,753.444 1492.04,860.392 1493.04,860.401 1494.04,860.409 1495.04,860.417 1496.05,860.425 1497.05,527.327 1498.05,527.359 1499.05,527.39 1500.05,527.421 1501.05,527.451 1502.05,467.819 1503.05,467.841 1504.05,467.863 1505.05,467.884 1506.05,467.904 1507.05,363.289 1508.06,363.325 1509.06,363.36 1510.06,363.394 1511.06,363.427 1512.06,413.105 1513.06,413.117 1514.06,413.129 1515.06,413.14 1516.06,413.151 1517.06,717.783 1518.06,717.801 1519.06,717.82 1520.07,717.837 1521.07,717.854 1522.07,1119.59 1523.07,1119.6 1524.07,1119.62 1525.07,1119.63 1526.07,1119.65 1527.07,508.921 1528.07,508.929 1529.07,508.936 1530.07,508.943 1531.07,508.95 1532.08,635.282 1533.08,635.3 1534.08,635.318 1535.08,635.335 1536.08,635.352 1537.08,396.234 1538.08,396.253 1539.08,396.272 1540.08,396.29 1541.08,396.308 1542.08,1099.78 1543.08,1099.81 1544.09,1099.84 1545.09,1099.87 1546.09,1099.9 1547.09,626.581 1548.09,626.6 1549.09,626.619 1550.09,626.637 1551.09,626.655 1552.09,1128.3 1553.09,1128.32 1554.09,1128.33 1555.09,1128.34 1556.1,1128.36 1557.1,592.692 1558.1,592.732 1559.1,592.771 1560.1,592.809 1561.1,592.846 1562.1,508.22 1563.1,508.242 1564.1,508.263 1565.1,508.284 1566.1,508.303 1567.1,997.815 1568.11,997.849 1569.11,997.882 1570.11,997.915 1571.11,997.946 1572.11,290.056 1573.11,290.088 1574.11,290.118 1575.11,290.148 1576.11,290.177 1577.11,649.314 1578.11,649.339 1579.11,649.363 1580.12,649.386 1581.12,649.409 1582.12,433.667 1583.12,433.686 1584.12,433.705 1585.12,433.724 1586.12,433.742 1587.12,501.054 1588.12,501.082 1589.12,501.11 1590.12,501.137 1591.12,501.164 1592.12,682.645 1593.13,682.687 1594.13,682.728 1595.13,682.768 1596.13,682.806 1597.13,808.038 1598.13,808.061 1599.13,808.082 1600.13,808.104 1601.13,808.124 1602.13,653.515 1603.13,653.54 1604.13,653.564 1605.14,653.588 1606.14,653.611 1607.14,737.495 1608.14,737.511 1609.14,737.527 1610.14,737.543 1611.14,737.559 1612.14,585.624 1613.14,585.641 1614.14,585.658 1615.14,585.674 1616.14,585.69 1617.15,420.131 1618.15,420.146 1619.15,420.161 1620.15,420.176 1621.15,420.191 1622.15,288.076 1623.15,288.076 1624.15,288.077 1625.15,288.078 1626.15,288.079 1627.15,737.699 1628.15,737.76 1629.16,737.819 1630.16,737.877 1631.16,737.933 1632.16,978.631 1633.16,978.661 1634.16,978.69 1635.16,978.718 1636.16,978.745 1637.16,757.627 1638.16,757.641 1639.16,757.655 1640.16,757.668 1641.17,757.682 1642.17,602.873 1643.17,602.903 1644.17,602.932 1645.17,602.96 1646.17,602.987 1647.17,1149.21 1648.17,1149.22 1649.17,1149.23 1650.17,1149.24 1651.17,1149.25 1652.17,391.662 1653.18,391.685 1654.18,391.707 1655.18,391.728 1656.18,391.749 1657.18,903.773 1658.18,903.781 1659.18,903.79 1660.18,903.798 1661.18,903.806 1662.18,1154.54 1663.18,1154.55 1664.18,1154.56 1665.19,1154.56 1666.19,1154.57 1667.19,459.982 1668.19,459.991 1669.19,459.999 1670.19,460.008 1671.19,460.016 1672.19,438.867 1673.19,438.871 1674.19,438.875 1675.19,438.878 1676.19,438.882 1677.2,756.78 1678.2,756.821 1679.2,756.862 1680.2,756.902 1681.2,756.941 1682.2,633.96 1683.2,633.975 1684.2,633.989 1685.2,634.003 1686.2,634.017 1687.2,400.937 1688.2,400.971 1689.21,401.004 1690.21,401.037 1691.21,401.069 1692.21,545.571 1693.21,545.597 1694.21,545.622 1695.21,545.647 1696.21,545.671 1697.21,1121.21 1698.21,1121.23 1699.21,1121.25 1700.21,1121.26 1701.22,1121.28 1702.22,563.519 1703.22,563.556 1704.22,563.593 1705.22,563.628 1706.22,563.663 1707.22,1041.12 1708.22,1041.13 1709.22,1041.15 1710.22,1041.16 1711.22,1041.18 1712.22,1060.59 1713.23,1060.61 1714.23,1060.64 1715.23,1060.66 1716.23,1060.68 1717.23,652.956 1718.23,652.967 1719.23,652.978 1720.23,652.989 1721.23,652.999 1722.23,1123.65 1723.23,1123.67 1724.23,1123.68 1725.24,1123.7 1726.24,1123.72 1727.24,832.322 1728.24,832.334 1729.24,832.346 1730.24,832.357 1731.24,832.369 1732.24,550.556 1733.24,550.617 1734.24,550.677 1735.24,550.735 1736.24,550.791 1737.25,974.828 1738.25,974.844 1739.25,974.86 1740.25,974.876 1741.25,974.891 1742.25,892.073 1743.25,892.111 1744.25,892.148 1745.25,892.184 1746.25,892.219 1747.25,923.646 1748.25,923.699 1749.26,923.75 1750.26,923.8 1751.26,923.848 1752.26,774.46 1753.26,774.472 1754.26,774.485 1755.26,774.497 1756.26,774.509 1757.26,657.441 1758.26,657.458 1759.26,657.474 1760.26,657.489 1761.27,657.504 1762.27,1132.63 1763.27,1132.67 1764.27,1132.71 1765.27,1132.75 1766.27,1132.78 1767.27,711.707 1768.27,711.726 1769.27,711.746 1770.27,711.764 1771.27,711.783 1772.27,721.685 1773.28,721.721 1774.28,721.755 1775.28,721.789 1776.28,721.823 1777.28,769.387 1778.28,769.395 1779.28,769.402 1780.28,769.41 1781.28,769.417 1782.28,327.59 1783.28,327.644 1784.28,327.698 1785.29,327.749 1786.29,327.8 1787.29,959.662 1788.29,959.667 1789.29,959.673 1790.29,959.678 1791.29,959.683 1792.29,1070.62 1793.29,1070.64 1794.29,1070.65 1795.29,1070.66 1796.29,1070.67 1797.3,774.292 1798.3,774.306 1799.3,774.319 1800.3,774.331 1801.3,774.344 1802.3,684.278 1803.3,684.291 1804.3,684.304 1805.3,684.317 1806.3,684.329 1807.3,640.48 1808.3,640.486 1809.31,640.491 1810.31,640.497 1811.31,640.502 1812.31,858.124 1813.31,858.128 1814.31,858.131 1815.31,858.134 1816.31,858.137 1817.31,801.325 1818.31,801.371 1819.31,801.415 1820.31,801.459 1821.32,801.501 1822.32,516.027 1823.32,516.03 1824.32,516.034 1825.32,516.037 1826.32,516.04 1827.32,702.316 1828.32,702.334 1829.32,702.352 1830.32,702.369 1831.32,702.386 1832.32,1209.28 1833.33,1209.3 1834.33,1209.32 1835.33,1209.34 1836.33,1209.35 1837.33,897.209 1838.33,897.219 1839.33,897.229 1840.33,897.239 1841.33,897.249 1842.33,449.793 1843.33,449.81 1844.33,449.827 1845.34,449.843 1846.34,449.859 1847.34,415.449 1848.34,415.465 1849.34,415.48 1850.34,415.494 1851.34,415.509 1852.34,918.913 1853.34,918.941 1854.34,918.968 1855.34,918.994 1856.34,919.02 1857.34,603.16 1858.35,603.184 1859.35,603.207 1860.35,603.229 1861.35,603.25 1862.35,1093.51 1863.35,1093.54 1864.35,1093.58 1865.35,1093.62 1866.35,1093.65 1867.35,1086.23 1868.35,1086.25 1869.35,1086.26 1870.36,1086.27 1871.36,1086.29 1872.36,775.002 1873.36,775.024 1874.36,775.044 1875.36,775.065 1876.36,775.085 1877.36,762.81 1878.36,762.828 1879.36,762.846 1880.36,762.864 1881.36,762.881 1882.37,685.34 1883.37,685.35 1884.37,685.359 1885.37,685.368 1886.37,685.377 1887.37,701.44 1888.37,701.452 1889.37,701.463 1890.37,701.474 1891.37,701.485 1892.37,656.105 1893.37,656.145 1894.38,656.184 1895.38,656.223 1896.38,656.26 1897.38,510.411 1898.38,510.444 1899.38,510.476 1900.38,510.508 1901.38,510.539 1902.38,511.423 1903.38,511.46 1904.38,511.495 1905.38,511.53 1906.39,511.564 1907.39,801.24 1908.39,801.245 1909.39,801.251 1910.39,801.256 1911.39,801.261 1912.39,599.281 1913.39,599.298 1914.39,599.316 1915.39,599.332 1916.39,599.349 1917.39,272.698 1918.4,272.712 1919.4,272.726 1920.4,272.739 1921.4,272.752 1922.4,757.928 1923.4,757.942 1924.4,757.956 1925.4,757.969 1926.4,757.983 1927.4,238.123 1928.4,238.141 1929.4,238.16 1930.41,238.178 1931.41,238.195 1932.41,1305.13 1933.41,1305.15 1934.41,1305.16 1935.41,1305.18 1936.41,1305.19 1937.41,740.284 1938.41,740.306 1939.41,740.328 1940.41,740.349 1941.41,740.37 1942.42,639.85 1943.42,639.871 1944.42,639.892 1945.42,639.912 1946.42,639.931 1947.42,745.035 1948.42,745.05 1949.42,745.065 1950.42,745.079 1951.42,745.093 1952.42,767.392 1953.42,767.407 1954.43,767.421 1955.43,767.435 1956.43,767.449 1957.43,746.133 1958.43,746.176 1959.43,746.218 1960.43,746.259 1961.43,746.299 1962.43,709.152 1963.43,709.227 1964.43,709.3 1965.43,709.371 1966.44,709.441 1967.44,572.883 1968.44,572.898 1969.44,572.912 1970.44,572.926 1971.44,572.94 1972.44,881.283 1973.44,881.292 1974.44,881.301 1975.44,881.31 1976.44,881.319 1977.44,722.657 1978.45,722.677 1979.45,722.697 1980.45,722.717 1981.45,722.736 1982.45,695.306 1983.45,695.319 1984.45,695.331 1985.45,695.342 1986.45,695.354 1987.45,814.008 1988.45,814.022 1989.45,814.036 1990.46,814.049 1991.46,814.063 1992.46,1022.43 1993.46,1022.46 1994.46,1022.49 1995.46,1022.52 1996.46,1022.55 1997.46,953.85 1998.46,953.86 1999.46,953.87 2000.46,953.879 2001.46,953.889 2002.47,1052.09 2003.47,1052.12 2004.47,1052.15 2005.47,1052.18 2006.47,1052.21 2007.47,390.967 2008.47,391.002 2009.47,391.037 2010.47,391.071 2011.47,391.103 2012.47,1027.05 2013.47,1027.06 2014.48,1027.06 2015.48,1027.07 2016.48,1027.08 2017.48,929.215 2018.48,929.27 2019.48,929.324 2020.48,929.376 2021.48,929.427 2022.48,502.096 2023.48,502.131 2024.48,502.165 2025.48,502.199 2026.49,502.231 2027.49,567.732 2028.49,567.739 2029.49,567.746 2030.49,567.753 2031.49,567.759 2032.49,786.431 2033.49,786.46 2034.49,786.488 2035.49,786.515 2036.49,786.542 2037.49,691.745 2038.5,691.803 2039.5,691.86 2040.5,691.916 2041.5,691.97 2042.5,775.128 2043.5,775.139 2044.5,775.15 2045.5,775.161 2046.5,775.171 2047.5,1142.69 2048.5,1142.71 2049.5,1142.74 2050.51,1142.76 2051.51,1142.78 2052.51,1288.74 2053.51,1288.77 2054.51,1288.81 2055.51,1288.84 2056.51,1288.87 2057.51,866.854 2058.51,866.859 2059.51,866.863 2060.51,866.867 2061.51,866.871 2062.52,1250.91 2063.52,1250.95 2064.52,1250.99 2065.52,1251.03 2066.52,1251.06 2067.52,737.616 2068.52,737.646 2069.52,737.676 2070.52,737.705 2071.52,737.733 2072.52,976.73 2073.52,976.744 2074.53,976.758 2075.53,976.771 2076.53,976.784 2077.53,875.451 2078.53,875.476 2079.53,875.5 2080.53,875.523 2081.53,875.545 2082.53,1178.13 2083.53,1178.16 2084.53,1178.19 2085.53,1178.22 2086.54,1178.25 2087.54,581.273 2088.54,581.301 2089.54,581.329 2090.54,581.356 2091.54,581.382 2092.54,987.566 2093.54,987.597 2094.54,987.628 2095.54,987.658 2096.54,987.687 2097.54,950.632 2098.55,950.666 2099.55,950.699 2100.55,950.732 2101.55,950.764 2102.55,970.683 2103.55,970.7 2104.55,970.717 2105.55,970.734 2106.55,970.75 2107.55,563.955 2108.55,563.959 2109.55,563.962 2110.56,563.965 2111.56,563.968 2112.56,658.461 2113.56,658.493 2114.56,658.523 2115.56,658.553 2116.56,658.582 2117.56,686.602 2118.56,686.625 2119.56,686.648 2120.56,686.67 2121.56,686.691 2122.56,843.353 2123.57,843.37 2124.57,843.386 2125.57,843.402 2126.57,843.417 2127.57,251.21 2128.57,251.236 2129.57,251.261 2130.57,251.285 2131.57,251.309 2132.57,665.638 2133.57,665.645 2134.57,665.652 2135.58,665.658 2136.58,665.665 2137.58,856.696 2138.58,856.731 2139.58,856.765 2140.58,856.798 2141.58,856.83 2142.58,839.066 2143.58,839.099 2144.58,839.13 2145.58,839.161 2146.58,839.191 2147.59,1031.53 2148.59,1031.6 2149.59,1031.66 2150.59,1031.73 2151.59,1031.79 2152.59,792.921 2153.59,792.93 2154.59,792.938 2155.59,792.945 2156.59,792.953 2157.59,586.658 2158.59,586.676 2159.6,586.694 2160.6,586.711 2161.6,586.728 2162.6,836.297 2163.6,836.301 2164.6,836.306 2165.6,836.31 2166.6,836.314 2167.6,1297.88 2168.6,1297.91 2169.6,1297.94 2170.6,1297.97 2171.61,1298 2172.61,690.751 2173.61,690.782 2174.61,690.812 2175.61,690.841 2176.61,690.87 2177.61,821.211 2178.61,821.237 2179.61,821.263 2180.61,821.288 2181.61,821.312 2182.61,309.68 2183.62,309.702 2184.62,309.724 2185.62,309.745 2186.62,309.766 2187.62,784.041 2188.62,784.066 2189.62,784.091 2190.62,784.115 2191.62,784.138 2192.62,856.666 2193.62,856.68 2194.62,856.693 2195.63,856.706 2196.63,856.719 2197.63,746.052 2198.63,746.094 2199.63,746.134 2200.63,746.173 2201.63,746.212 2202.63,702.626 2203.63,702.639 2204.63,702.652 2205.63,702.664 2206.63,702.677 2207.64,914.228 2208.64,914.237 2209.64,914.246 2210.64,914.255 2211.64,914.263 2212.64,510.726 2213.64,510.741 2214.64,510.755 2215.64,510.769 2216.64,510.783 2217.64,892.374 2218.64,892.399 2219.65,892.424 2220.65,892.448 2221.65,892.471 2222.65,302.018 2223.65,302.02 2224.65,302.022 2225.65,302.025 2226.65,302.027 2227.65,355.148 2228.65,355.18 2229.65,355.211 2230.65,355.241 2231.66,355.271 2232.66,712.004 2233.66,712.018 2234.66,712.032 2235.66,712.046 2236.66,712.059 2237.66,930.523 2238.66,930.542 2239.66,930.561 2240.66,930.579 2241.66,930.597 2242.66,446.965 2243.67,446.99 2244.67,447.014 2245.67,447.038 2246.67,447.061 2247.67,635.279 2248.67,635.324 2249.67,635.369 2250.67,635.413 2251.67,635.456 2252.67,712.651 2253.67,712.676 2254.67,712.7 2255.68,712.724 2256.68,712.746 2257.68,825.089 2258.68,825.117 2259.68,825.145 2260.68,825.172 2261.68,825.198 2262.68,1065.71 2263.68,1065.72 2264.68,1065.72 2265.68,1065.73 2266.68,1065.74 2267.69,159.58 2268.69,159.585 2269.69,159.59 2270.69,159.595 2271.69,159.6 2272.69,1051.94 2273.69,1051.94 2274.69,1051.95 2275.69,1051.96 2276.69,1051.97 2277.69,722.909 2278.69,722.939 2279.7,722.969 2280.7,722.998 2281.7,723.026 2282.7,684.088 2283.7,684.14 2284.7,684.191 2285.7,684.241 2286.7,684.29 2287.7,905.964 2288.7,905.982 2289.7,905.998 2290.7,906.014 2291.71,906.03 2292.71,906.046 "/>
<path clip-path="url(#clip640)" d="M301.721 198.898 L566.328 198.898 L566.328 95.2176 L301.721 95.2176  Z" fill="#ffffff" fill-rule="evenodd" fill-opacity="1"/>
<polyline clip-path="url(#clip640)" style="stroke:#000000; stroke-linecap:round; stroke-linejoin:round; stroke-width:4; stroke-opacity:1; fill:none" points="301.721,198.898 566.328,198.898 566.328,95.2176 301.721,95.2176 301.721,198.898 "/>
<polyline clip-path="url(#clip640)" style="stroke:#009af9; stroke-linecap:round; stroke-linejoin:round; stroke-width:4; stroke-opacity:1; fill:none" points="325.296,147.058 466.747,147.058 "/>
<path clip-path="url(#clip640)" d="M504.165 166.745 Q502.359 171.375 500.646 172.787 Q498.933 174.199 496.063 174.199 L492.66 174.199 L492.66 170.634 L495.16 170.634 Q496.919 170.634 497.892 169.8 Q498.864 168.967 500.044 165.865 L500.808 163.921 L490.322 138.412 L494.836 138.412 L502.938 158.689 L511.04 138.412 L515.554 138.412 L504.165 166.745 Z" fill="#000000" fill-rule="nonzero" fill-opacity="1" /><path clip-path="url(#clip640)" d="M522.845 160.402 L530.484 160.402 L530.484 134.037 L522.174 135.703 L522.174 131.444 L530.438 129.778 L535.114 129.778 L535.114 160.402 L542.752 160.402 L542.752 164.338 L522.845 164.338 L522.845 160.402 Z" fill="#000000" fill-rule="nonzero" fill-opacity="1" /></svg>
