<?xml version="1.0" encoding="utf-8"?>
<svg xmlns="http://www.w3.org/2000/svg" xmlns:xlink="http://www.w3.org/1999/xlink" width="600" height="400" viewBox="0 0 2400 1600">
<defs>
  <clipPath id="clip120">
    <rect x="0" y="0" width="2400" height="1600"/>
  </clipPath>
</defs>
<path clip-path="url(#clip120)" d="M0 1600 L2400 1600 L2400 0 L0 0  Z" fill="#ffffff" fill-rule="evenodd" fill-opacity="1"/>
<defs>
  <clipPath id="clip121">
    <rect x="480" y="0" width="1681" height="1600"/>
  </clipPath>
</defs>
<path clip-path="url(#clip120)" d="M156.598 1486.45 L2352.76 1486.45 L2352.76 47.2441 L156.598 47.2441  Z" fill="#ffffff" fill-rule="evenodd" fill-opacity="1"/>
<defs>
  <clipPath id="clip122">
    <rect x="156" y="47" width="2197" height="1440"/>
  </clipPath>
</defs>
<polyline clip-path="url(#clip122)" style="stroke:#000000; stroke-linecap:round; stroke-linejoin:round; stroke-width:2; stroke-opacity:0.1; fill:none" points="218.754,1486.45 218.754,47.2441 "/>
<polyline clip-path="url(#clip122)" style="stroke:#000000; stroke-linecap:round; stroke-linejoin:round; stroke-width:2; stroke-opacity:0.1; fill:none" points="737.234,1486.45 737.234,47.2441 "/>
<polyline clip-path="url(#clip122)" style="stroke:#000000; stroke-linecap:round; stroke-linejoin:round; stroke-width:2; stroke-opacity:0.1; fill:none" points="1255.71,1486.45 1255.71,47.2441 "/>
<polyline clip-path="url(#clip122)" style="stroke:#000000; stroke-linecap:round; stroke-linejoin:round; stroke-width:2; stroke-opacity:0.1; fill:none" points="1774.19,1486.45 1774.19,47.2441 "/>
<polyline clip-path="url(#clip122)" style="stroke:#000000; stroke-linecap:round; stroke-linejoin:round; stroke-width:2; stroke-opacity:0.1; fill:none" points="2292.67,1486.45 2292.67,47.2441 "/>
<polyline clip-path="url(#clip120)" style="stroke:#000000; stroke-linecap:round; stroke-linejoin:round; stroke-width:4; stroke-opacity:1; fill:none" points="156.598,1486.45 2352.76,1486.45 "/>
<polyline clip-path="url(#clip120)" style="stroke:#000000; stroke-linecap:round; stroke-linejoin:round; stroke-width:4; stroke-opacity:1; fill:none" points="218.754,1486.45 218.754,1467.55 "/>
<polyline clip-path="url(#clip120)" style="stroke:#000000; stroke-linecap:round; stroke-linejoin:round; stroke-width:4; stroke-opacity:1; fill:none" points="737.234,1486.45 737.234,1467.55 "/>
<polyline clip-path="url(#clip120)" style="stroke:#000000; stroke-linecap:round; stroke-linejoin:round; stroke-width:4; stroke-opacity:1; fill:none" points="1255.71,1486.45 1255.71,1467.55 "/>
<polyline clip-path="url(#clip120)" style="stroke:#000000; stroke-linecap:round; stroke-linejoin:round; stroke-width:4; stroke-opacity:1; fill:none" points="1774.19,1486.45 1774.19,1467.55 "/>
<polyline clip-path="url(#clip120)" style="stroke:#000000; stroke-linecap:round; stroke-linejoin:round; stroke-width:4; stroke-opacity:1; fill:none" points="2292.67,1486.45 2292.67,1467.55 "/>
<path clip-path="url(#clip120)" d="M218.754 1517.37 Q215.143 1517.37 213.314 1520.93 Q211.508 1524.47 211.508 1531.6 Q211.508 1538.71 213.314 1542.27 Q215.143 1545.82 218.754 1545.82 Q222.388 1545.82 224.193 1542.27 Q226.022 1538.71 226.022 1531.6 Q226.022 1524.47 224.193 1520.93 Q222.388 1517.37 218.754 1517.37 M218.754 1513.66 Q224.564 1513.66 227.619 1518.27 Q230.698 1522.85 230.698 1531.6 Q230.698 1540.33 227.619 1544.94 Q224.564 1549.52 218.754 1549.52 Q212.943 1549.52 209.865 1544.94 Q206.809 1540.33 206.809 1531.6 Q206.809 1522.85 209.865 1518.27 Q212.943 1513.66 218.754 1513.66 Z" fill="#000000" fill-rule="nonzero" fill-opacity="1" /><path clip-path="url(#clip120)" d="M700.926 1544.91 L717.246 1544.91 L717.246 1548.85 L695.301 1548.85 L695.301 1544.91 Q697.963 1542.16 702.547 1537.53 Q707.153 1532.88 708.334 1531.53 Q710.579 1529.01 711.459 1527.27 Q712.361 1525.51 712.361 1523.82 Q712.361 1521.07 710.417 1519.33 Q708.496 1517.6 705.394 1517.6 Q703.195 1517.6 700.741 1518.36 Q698.31 1519.13 695.533 1520.68 L695.533 1515.95 Q698.357 1514.82 700.81 1514.24 Q703.264 1513.66 705.301 1513.66 Q710.671 1513.66 713.866 1516.35 Q717.06 1519.03 717.06 1523.52 Q717.06 1525.65 716.25 1527.57 Q715.463 1529.47 713.357 1532.07 Q712.778 1532.74 709.676 1535.95 Q706.574 1539.15 700.926 1544.91 Z" fill="#000000" fill-rule="nonzero" fill-opacity="1" /><path clip-path="url(#clip120)" d="M727.107 1514.29 L745.463 1514.29 L745.463 1518.22 L731.389 1518.22 L731.389 1526.7 Q732.407 1526.35 733.426 1526.19 Q734.444 1526 735.463 1526 Q741.25 1526 744.63 1529.17 Q748.009 1532.34 748.009 1537.76 Q748.009 1543.34 744.537 1546.44 Q741.065 1549.52 734.745 1549.52 Q732.57 1549.52 730.301 1549.15 Q728.056 1548.78 725.648 1548.04 L725.648 1543.34 Q727.732 1544.47 729.954 1545.03 Q732.176 1545.58 734.653 1545.58 Q738.657 1545.58 740.995 1543.48 Q743.333 1541.37 743.333 1537.76 Q743.333 1534.15 740.995 1532.04 Q738.657 1529.94 734.653 1529.94 Q732.778 1529.94 730.903 1530.35 Q729.051 1530.77 727.107 1531.65 L727.107 1514.29 Z" fill="#000000" fill-rule="nonzero" fill-opacity="1" /><path clip-path="url(#clip120)" d="M767.222 1517.37 Q763.611 1517.37 761.782 1520.93 Q759.977 1524.47 759.977 1531.6 Q759.977 1538.71 761.782 1542.27 Q763.611 1545.82 767.222 1545.82 Q770.856 1545.82 772.662 1542.27 Q774.491 1538.71 774.491 1531.6 Q774.491 1524.47 772.662 1520.93 Q770.856 1517.37 767.222 1517.37 M767.222 1513.66 Q773.032 1513.66 776.088 1518.27 Q779.166 1522.85 779.166 1531.6 Q779.166 1540.33 776.088 1544.94 Q773.032 1549.52 767.222 1549.52 Q761.412 1549.52 758.333 1544.94 Q755.278 1540.33 755.278 1531.6 Q755.278 1522.85 758.333 1518.27 Q761.412 1513.66 767.222 1513.66 Z" fill="#000000" fill-rule="nonzero" fill-opacity="1" /><path clip-path="url(#clip120)" d="M1215.33 1514.29 L1233.69 1514.29 L1233.69 1518.22 L1219.61 1518.22 L1219.61 1526.7 Q1220.63 1526.35 1221.65 1526.19 Q1222.67 1526 1223.69 1526 Q1229.48 1526 1232.86 1529.17 Q1236.23 1532.34 1236.23 1537.76 Q1236.23 1543.34 1232.76 1546.44 Q1229.29 1549.52 1222.97 1549.52 Q1220.8 1549.52 1218.53 1549.15 Q1216.28 1548.78 1213.87 1548.04 L1213.87 1543.34 Q1215.96 1544.47 1218.18 1545.03 Q1220.4 1545.58 1222.88 1545.58 Q1226.88 1545.58 1229.22 1543.48 Q1231.56 1541.37 1231.56 1537.76 Q1231.56 1534.15 1229.22 1532.04 Q1226.88 1529.94 1222.88 1529.94 Q1221 1529.94 1219.13 1530.35 Q1217.28 1530.77 1215.33 1531.65 L1215.33 1514.29 Z" fill="#000000" fill-rule="nonzero" fill-opacity="1" /><path clip-path="url(#clip120)" d="M1255.45 1517.37 Q1251.84 1517.37 1250.01 1520.93 Q1248.2 1524.47 1248.2 1531.6 Q1248.2 1538.71 1250.01 1542.27 Q1251.84 1545.82 1255.45 1545.82 Q1259.08 1545.82 1260.89 1542.27 Q1262.72 1538.71 1262.72 1531.6 Q1262.72 1524.47 1260.89 1520.93 Q1259.08 1517.37 1255.45 1517.37 M1255.45 1513.66 Q1261.26 1513.66 1264.31 1518.27 Q1267.39 1522.85 1267.39 1531.6 Q1267.39 1540.33 1264.31 1544.94 Q1261.26 1549.52 1255.45 1549.52 Q1249.64 1549.52 1246.56 1544.94 Q1243.5 1540.33 1243.5 1531.6 Q1243.5 1522.85 1246.56 1518.27 Q1249.64 1513.66 1255.45 1513.66 Z" fill="#000000" fill-rule="nonzero" fill-opacity="1" /><path clip-path="url(#clip120)" d="M1285.61 1517.37 Q1282 1517.37 1280.17 1520.93 Q1278.36 1524.47 1278.36 1531.6 Q1278.36 1538.71 1280.17 1542.27 Q1282 1545.82 1285.61 1545.82 Q1289.24 1545.82 1291.05 1542.27 Q1292.88 1538.71 1292.88 1531.6 Q1292.88 1524.47 1291.05 1520.93 Q1289.24 1517.37 1285.61 1517.37 M1285.61 1513.66 Q1291.42 1513.66 1294.48 1518.27 Q1297.55 1522.85 1297.55 1531.6 Q1297.55 1540.33 1294.48 1544.94 Q1291.42 1549.52 1285.61 1549.52 Q1279.8 1549.52 1276.72 1544.94 Q1273.67 1540.33 1273.67 1531.6 Q1273.67 1522.85 1276.72 1518.27 Q1279.8 1513.66 1285.61 1513.66 Z" fill="#000000" fill-rule="nonzero" fill-opacity="1" /><path clip-path="url(#clip120)" d="M1732.47 1514.29 L1754.69 1514.29 L1754.69 1516.28 L1742.15 1548.85 L1737.26 1548.85 L1749.07 1518.22 L1732.47 1518.22 L1732.47 1514.29 Z" fill="#000000" fill-rule="nonzero" fill-opacity="1" /><path clip-path="url(#clip120)" d="M1763.86 1514.29 L1782.22 1514.29 L1782.22 1518.22 L1768.14 1518.22 L1768.14 1526.7 Q1769.16 1526.35 1770.18 1526.19 Q1771.2 1526 1772.22 1526 Q1778 1526 1781.38 1529.17 Q1784.76 1532.34 1784.76 1537.76 Q1784.76 1543.34 1781.29 1546.44 Q1777.82 1549.52 1771.5 1549.52 Q1769.32 1549.52 1767.05 1549.15 Q1764.81 1548.78 1762.4 1548.04 L1762.4 1543.34 Q1764.48 1544.47 1766.71 1545.03 Q1768.93 1545.58 1771.4 1545.58 Q1775.41 1545.58 1777.75 1543.48 Q1780.09 1541.37 1780.09 1537.76 Q1780.09 1534.15 1777.75 1532.04 Q1775.41 1529.94 1771.4 1529.94 Q1769.53 1529.94 1767.65 1530.35 Q1765.8 1530.77 1763.86 1531.65 L1763.86 1514.29 Z" fill="#000000" fill-rule="nonzero" fill-opacity="1" /><path clip-path="url(#clip120)" d="M1803.97 1517.37 Q1800.36 1517.37 1798.53 1520.93 Q1796.73 1524.47 1796.73 1531.6 Q1796.73 1538.71 1798.53 1542.27 Q1800.36 1545.82 1803.97 1545.82 Q1807.61 1545.82 1809.41 1542.27 Q1811.24 1538.71 1811.24 1531.6 Q1811.24 1524.47 1809.41 1520.93 Q1807.61 1517.37 1803.97 1517.37 M1803.97 1513.66 Q1809.78 1513.66 1812.84 1518.27 Q1815.92 1522.85 1815.92 1531.6 Q1815.92 1540.33 1812.84 1544.94 Q1809.78 1549.52 1803.97 1549.52 Q1798.16 1549.52 1795.09 1544.94 Q1792.03 1540.33 1792.03 1531.6 Q1792.03 1522.85 1795.09 1518.27 Q1798.16 1513.66 1803.97 1513.66 Z" fill="#000000" fill-rule="nonzero" fill-opacity="1" /><path clip-path="url(#clip120)" d="M2237.2 1544.91 L2244.84 1544.91 L2244.84 1518.55 L2236.53 1520.21 L2236.53 1515.95 L2244.79 1514.29 L2249.47 1514.29 L2249.47 1544.91 L2257.11 1544.91 L2257.11 1548.85 L2237.2 1548.85 L2237.2 1544.91 Z" fill="#000000" fill-rule="nonzero" fill-opacity="1" /><path clip-path="url(#clip120)" d="M2276.55 1517.37 Q2272.94 1517.37 2271.11 1520.93 Q2269.31 1524.47 2269.31 1531.6 Q2269.31 1538.71 2271.11 1542.27 Q2272.94 1545.82 2276.55 1545.82 Q2280.19 1545.82 2281.99 1542.27 Q2283.82 1538.71 2283.82 1531.6 Q2283.82 1524.47 2281.99 1520.93 Q2280.19 1517.37 2276.55 1517.37 M2276.55 1513.66 Q2282.36 1513.66 2285.42 1518.27 Q2288.5 1522.85 2288.5 1531.6 Q2288.5 1540.33 2285.42 1544.94 Q2282.36 1549.52 2276.55 1549.52 Q2270.74 1549.52 2267.66 1544.94 Q2264.61 1540.33 2264.61 1531.6 Q2264.61 1522.85 2267.66 1518.27 Q2270.74 1513.66 2276.55 1513.66 Z" fill="#000000" fill-rule="nonzero" fill-opacity="1" /><path clip-path="url(#clip120)" d="M2306.71 1517.37 Q2303.1 1517.37 2301.27 1520.93 Q2299.47 1524.47 2299.47 1531.6 Q2299.47 1538.71 2301.27 1542.27 Q2303.1 1545.82 2306.71 1545.82 Q2310.35 1545.82 2312.15 1542.27 Q2313.98 1538.71 2313.98 1531.6 Q2313.98 1524.47 2312.15 1520.93 Q2310.35 1517.37 2306.71 1517.37 M2306.71 1513.66 Q2312.52 1513.66 2315.58 1518.27 Q2318.66 1522.85 2318.66 1531.6 Q2318.66 1540.33 2315.58 1544.94 Q2312.52 1549.52 2306.71 1549.52 Q2300.9 1549.52 2297.82 1544.94 Q2294.77 1540.33 2294.77 1531.6 Q2294.77 1522.85 2297.82 1518.27 Q2300.9 1513.66 2306.71 1513.66 Z" fill="#000000" fill-rule="nonzero" fill-opacity="1" /><path clip-path="url(#clip120)" d="M2336.88 1517.37 Q2333.26 1517.37 2331.44 1520.93 Q2329.63 1524.47 2329.63 1531.6 Q2329.63 1538.71 2331.44 1542.27 Q2333.26 1545.82 2336.88 1545.82 Q2340.51 1545.82 2342.32 1542.27 Q2344.14 1538.71 2344.14 1531.6 Q2344.14 1524.47 2342.32 1520.93 Q2340.51 1517.37 2336.88 1517.37 M2336.88 1513.66 Q2342.69 1513.66 2345.74 1518.27 Q2348.82 1522.85 2348.82 1531.6 Q2348.82 1540.33 2345.74 1544.94 Q2342.69 1549.52 2336.88 1549.52 Q2331.07 1549.52 2327.99 1544.94 Q2324.93 1540.33 2324.93 1531.6 Q2324.93 1522.85 2327.99 1518.27 Q2331.07 1513.66 2336.88 1513.66 Z" fill="#000000" fill-rule="nonzero" fill-opacity="1" /><polyline clip-path="url(#clip122)" style="stroke:#000000; stroke-linecap:round; stroke-linejoin:round; stroke-width:2; stroke-opacity:0.1; fill:none" points="156.598,1445.72 2352.76,1445.72 "/>
<polyline clip-path="url(#clip122)" style="stroke:#000000; stroke-linecap:round; stroke-linejoin:round; stroke-width:2; stroke-opacity:0.1; fill:none" points="156.598,1137.14 2352.76,1137.14 "/>
<polyline clip-path="url(#clip122)" style="stroke:#000000; stroke-linecap:round; stroke-linejoin:round; stroke-width:2; stroke-opacity:0.1; fill:none" points="156.598,828.561 2352.76,828.561 "/>
<polyline clip-path="url(#clip122)" style="stroke:#000000; stroke-linecap:round; stroke-linejoin:round; stroke-width:2; stroke-opacity:0.1; fill:none" points="156.598,519.984 2352.76,519.984 "/>
<polyline clip-path="url(#clip122)" style="stroke:#000000; stroke-linecap:round; stroke-linejoin:round; stroke-width:2; stroke-opacity:0.1; fill:none" points="156.598,211.407 2352.76,211.407 "/>
<polyline clip-path="url(#clip120)" style="stroke:#000000; stroke-linecap:round; stroke-linejoin:round; stroke-width:4; stroke-opacity:1; fill:none" points="156.598,1486.45 156.598,47.2441 "/>
<polyline clip-path="url(#clip120)" style="stroke:#000000; stroke-linecap:round; stroke-linejoin:round; stroke-width:4; stroke-opacity:1; fill:none" points="156.598,1445.72 175.496,1445.72 "/>
<polyline clip-path="url(#clip120)" style="stroke:#000000; stroke-linecap:round; stroke-linejoin:round; stroke-width:4; stroke-opacity:1; fill:none" points="156.598,1137.14 175.496,1137.14 "/>
<polyline clip-path="url(#clip120)" style="stroke:#000000; stroke-linecap:round; stroke-linejoin:round; stroke-width:4; stroke-opacity:1; fill:none" points="156.598,828.561 175.496,828.561 "/>
<polyline clip-path="url(#clip120)" style="stroke:#000000; stroke-linecap:round; stroke-linejoin:round; stroke-width:4; stroke-opacity:1; fill:none" points="156.598,519.984 175.496,519.984 "/>
<polyline clip-path="url(#clip120)" style="stroke:#000000; stroke-linecap:round; stroke-linejoin:round; stroke-width:4; stroke-opacity:1; fill:none" points="156.598,211.407 175.496,211.407 "/>
<path clip-path="url(#clip120)" d="M62.9365 1431.51 Q59.3254 1431.51 57.4967 1435.08 Q55.6912 1438.62 55.6912 1445.75 Q55.6912 1452.86 57.4967 1456.42 Q59.3254 1459.96 62.9365 1459.96 Q66.5707 1459.96 68.3763 1456.42 Q70.205 1452.86 70.205 1445.75 Q70.205 1438.62 68.3763 1435.08 Q66.5707 1431.51 62.9365 1431.51 M62.9365 1427.81 Q68.7467 1427.81 71.8022 1432.42 Q74.8809 1437 74.8809 1445.75 Q74.8809 1454.48 71.8022 1459.08 Q68.7467 1463.67 62.9365 1463.67 Q57.1264 1463.67 54.0477 1459.08 Q50.9921 1454.48 50.9921 1445.75 Q50.9921 1437 54.0477 1432.42 Q57.1264 1427.81 62.9365 1427.81 Z" fill="#000000" fill-rule="nonzero" fill-opacity="1" /><path clip-path="url(#clip120)" d="M83.0984 1457.12 L87.9827 1457.12 L87.9827 1463 L83.0984 1463 L83.0984 1457.12 Z" fill="#000000" fill-rule="nonzero" fill-opacity="1" /><path clip-path="url(#clip120)" d="M111.015 1432.51 L99.2095 1450.96 L111.015 1450.96 L111.015 1432.51 M109.788 1428.44 L115.668 1428.44 L115.668 1450.96 L120.598 1450.96 L120.598 1454.85 L115.668 1454.85 L115.668 1463 L111.015 1463 L111.015 1454.85 L95.4132 1454.85 L95.4132 1450.33 L109.788 1428.44 Z" fill="#000000" fill-rule="nonzero" fill-opacity="1" /><path clip-path="url(#clip120)" d="M64.418 1122.94 Q60.8069 1122.94 58.9782 1126.5 Q57.1726 1130.04 57.1726 1137.17 Q57.1726 1144.28 58.9782 1147.84 Q60.8069 1151.39 64.418 1151.39 Q68.0522 1151.39 69.8578 1147.84 Q71.6865 1144.28 71.6865 1137.17 Q71.6865 1130.04 69.8578 1126.5 Q68.0522 1122.94 64.418 1122.94 M64.418 1119.23 Q70.2281 1119.23 73.2837 1123.84 Q76.3624 1128.42 76.3624 1137.17 Q76.3624 1145.9 73.2837 1150.51 Q70.2281 1155.09 64.418 1155.09 Q58.6078 1155.09 55.5291 1150.51 Q52.4736 1145.9 52.4736 1137.17 Q52.4736 1128.42 55.5291 1123.84 Q58.6078 1119.23 64.418 1119.23 Z" fill="#000000" fill-rule="nonzero" fill-opacity="1" /><path clip-path="url(#clip120)" d="M84.5799 1148.54 L89.4641 1148.54 L89.4641 1154.42 L84.5799 1154.42 L84.5799 1148.54 Z" fill="#000000" fill-rule="nonzero" fill-opacity="1" /><path clip-path="url(#clip120)" d="M99.6956 1119.86 L118.052 1119.86 L118.052 1123.79 L103.978 1123.79 L103.978 1132.27 Q104.996 1131.92 106.015 1131.76 Q107.033 1131.57 108.052 1131.57 Q113.839 1131.57 117.219 1134.74 Q120.598 1137.91 120.598 1143.33 Q120.598 1148.91 117.126 1152.01 Q113.654 1155.09 107.334 1155.09 Q105.159 1155.09 102.89 1154.72 Q100.645 1154.35 98.2372 1153.61 L98.2372 1148.91 Q100.321 1150.04 102.543 1150.6 Q104.765 1151.15 107.242 1151.15 Q111.246 1151.15 113.584 1149.05 Q115.922 1146.94 115.922 1143.33 Q115.922 1139.72 113.584 1137.61 Q111.246 1135.51 107.242 1135.51 Q105.367 1135.51 103.492 1135.92 Q101.64 1136.34 99.6956 1137.22 L99.6956 1119.86 Z" fill="#000000" fill-rule="nonzero" fill-opacity="1" /><path clip-path="url(#clip120)" d="M63.2606 814.36 Q59.6495 814.36 57.8208 817.925 Q56.0152 821.467 56.0152 828.596 Q56.0152 835.703 57.8208 839.267 Q59.6495 842.809 63.2606 842.809 Q66.8948 842.809 68.7004 839.267 Q70.5291 835.703 70.5291 828.596 Q70.5291 821.467 68.7004 817.925 Q66.8948 814.36 63.2606 814.36 M63.2606 810.656 Q69.0707 810.656 72.1263 815.263 Q75.205 819.846 75.205 828.596 Q75.205 837.323 72.1263 841.929 Q69.0707 846.513 63.2606 846.513 Q57.4504 846.513 54.3717 841.929 Q51.3162 837.323 51.3162 828.596 Q51.3162 819.846 54.3717 815.263 Q57.4504 810.656 63.2606 810.656 Z" fill="#000000" fill-rule="nonzero" fill-opacity="1" /><path clip-path="url(#clip120)" d="M83.4225 839.962 L88.3067 839.962 L88.3067 845.841 L83.4225 845.841 L83.4225 839.962 Z" fill="#000000" fill-rule="nonzero" fill-opacity="1" /><path clip-path="url(#clip120)" d="M109.071 826.698 Q105.922 826.698 104.071 828.851 Q102.242 831.004 102.242 834.754 Q102.242 838.48 104.071 840.656 Q105.922 842.809 109.071 842.809 Q112.219 842.809 114.047 840.656 Q115.899 838.48 115.899 834.754 Q115.899 831.004 114.047 828.851 Q112.219 826.698 109.071 826.698 M118.353 812.045 L118.353 816.305 Q116.594 815.471 114.788 815.031 Q113.006 814.592 111.246 814.592 Q106.617 814.592 104.163 817.717 Q101.733 820.842 101.385 827.161 Q102.751 825.147 104.811 824.082 Q106.871 822.994 109.348 822.994 Q114.557 822.994 117.566 826.166 Q120.598 829.314 120.598 834.754 Q120.598 840.078 117.45 843.295 Q114.302 846.513 109.071 846.513 Q103.075 846.513 99.9039 841.929 Q96.7326 837.323 96.7326 828.596 Q96.7326 820.402 100.621 815.541 Q104.51 810.656 111.061 810.656 Q112.82 810.656 114.603 811.004 Q116.408 811.351 118.353 812.045 Z" fill="#000000" fill-rule="nonzero" fill-opacity="1" /><path clip-path="url(#clip120)" d="M64.3254 505.783 Q60.7143 505.783 58.8856 509.348 Q57.0801 512.889 57.0801 520.019 Q57.0801 527.125 58.8856 530.69 Q60.7143 534.232 64.3254 534.232 Q67.9596 534.232 69.7652 530.69 Q71.5939 527.125 71.5939 520.019 Q71.5939 512.889 69.7652 509.348 Q67.9596 505.783 64.3254 505.783 M64.3254 502.079 Q70.1355 502.079 73.1911 506.686 Q76.2698 511.269 76.2698 520.019 Q76.2698 528.746 73.1911 533.352 Q70.1355 537.936 64.3254 537.936 Q58.5152 537.936 55.4365 533.352 Q52.381 528.746 52.381 520.019 Q52.381 511.269 55.4365 506.686 Q58.5152 502.079 64.3254 502.079 Z" fill="#000000" fill-rule="nonzero" fill-opacity="1" /><path clip-path="url(#clip120)" d="M84.4873 531.385 L89.3715 531.385 L89.3715 537.264 L84.4873 537.264 L84.4873 531.385 Z" fill="#000000" fill-rule="nonzero" fill-opacity="1" /><path clip-path="url(#clip120)" d="M98.3761 502.704 L120.598 502.704 L120.598 504.695 L108.052 537.264 L103.168 537.264 L114.973 506.639 L98.3761 506.639 L98.3761 502.704 Z" fill="#000000" fill-rule="nonzero" fill-opacity="1" /><path clip-path="url(#clip120)" d="M63.5152 197.206 Q59.9041 197.206 58.0754 200.771 Q56.2699 204.312 56.2699 211.442 Q56.2699 218.548 58.0754 222.113 Q59.9041 225.655 63.5152 225.655 Q67.1494 225.655 68.955 222.113 Q70.7837 218.548 70.7837 211.442 Q70.7837 204.312 68.955 200.771 Q67.1494 197.206 63.5152 197.206 M63.5152 193.502 Q69.3254 193.502 72.3809 198.109 Q75.4596 202.692 75.4596 211.442 Q75.4596 220.169 72.3809 224.775 Q69.3254 229.358 63.5152 229.358 Q57.7051 229.358 54.6264 224.775 Q51.5708 220.169 51.5708 211.442 Q51.5708 202.692 54.6264 198.109 Q57.7051 193.502 63.5152 193.502 Z" fill="#000000" fill-rule="nonzero" fill-opacity="1" /><path clip-path="url(#clip120)" d="M83.6771 222.808 L88.5614 222.808 L88.5614 228.687 L83.6771 228.687 L83.6771 222.808 Z" fill="#000000" fill-rule="nonzero" fill-opacity="1" /><path clip-path="url(#clip120)" d="M108.746 212.275 Q105.413 212.275 103.492 214.058 Q101.594 215.84 101.594 218.965 Q101.594 222.09 103.492 223.872 Q105.413 225.655 108.746 225.655 Q112.08 225.655 114.001 223.872 Q115.922 222.067 115.922 218.965 Q115.922 215.84 114.001 214.058 Q112.103 212.275 108.746 212.275 M104.071 210.284 Q101.061 209.544 99.3715 207.484 Q97.7048 205.423 97.7048 202.46 Q97.7048 198.317 100.645 195.91 Q103.608 193.502 108.746 193.502 Q113.908 193.502 116.848 195.91 Q119.788 198.317 119.788 202.46 Q119.788 205.423 118.098 207.484 Q116.432 209.544 113.445 210.284 Q116.825 211.071 118.7 213.363 Q120.598 215.655 120.598 218.965 Q120.598 223.988 117.52 226.673 Q114.464 229.358 108.746 229.358 Q103.029 229.358 99.9502 226.673 Q96.8947 223.988 96.8947 218.965 Q96.8947 215.655 98.7928 213.363 Q100.691 211.071 104.071 210.284 M102.358 202.9 Q102.358 205.585 104.024 207.09 Q105.714 208.595 108.746 208.595 Q111.756 208.595 113.445 207.09 Q115.158 205.585 115.158 202.9 Q115.158 200.215 113.445 198.71 Q111.756 197.206 108.746 197.206 Q105.714 197.206 104.024 198.71 Q102.358 200.215 102.358 202.9 Z" fill="#000000" fill-rule="nonzero" fill-opacity="1" /><polyline clip-path="url(#clip122)" style="stroke:#009af9; stroke-linecap:round; stroke-linejoin:round; stroke-width:4; stroke-opacity:1; fill:none" points="218.754,396.553 220.828,396.553 222.901,581.7 224.975,705.131 227.049,828.561 229.123,828.561 231.197,643.415 233.271,766.846 235.345,519.984 237.419,890.277 239.493,705.131 241.567,1137.14 243.641,643.415 245.715,1445.72 247.789,519.984 249.862,581.7 251.936,705.131 254.01,643.415 256.084,890.277 258.158,828.561 260.232,766.846 262.306,705.131 264.38,519.984 266.454,828.561 268.528,581.7 270.602,828.561 272.676,519.984 274.75,766.846 276.823,705.131 278.897,890.277 280.971,211.407 283.045,273.123 285.119,766.846 287.193,951.992 289.267,519.984 291.341,581.7 293.415,643.415 295.489,458.269 297.563,828.561 299.637,458.269 301.71,581.7 303.784,766.846 305.858,273.123 307.932,396.553 310.006,890.277 312.08,890.277 314.154,890.277 316.228,519.984 318.302,705.131 320.376,705.131 322.45,951.992 324.524,458.269 326.598,828.561 328.671,890.277 330.745,519.984 332.819,581.7 334.893,211.407 336.967,643.415 339.041,1137.14 341.115,581.7 343.189,705.131 345.263,334.838 347.337,890.277 349.411,581.7 351.485,705.131 353.558,643.415 355.632,273.123 357.706,705.131 359.78,519.984 361.854,705.131 363.928,396.553 366.002,273.123 368.076,396.553 370.15,828.561 372.224,766.846 374.298,1075.42 376.372,273.123 378.446,519.984 380.519,705.131 382.593,334.838 384.667,951.992 386.741,828.561 388.815,1137.14 390.889,890.277 392.963,519.984 395.037,581.7 397.111,458.269 399.185,396.553 401.259,766.846 403.333,828.561 405.407,766.846 407.48,766.846 409.554,211.407 411.628,581.7 413.702,149.692 415.776,1137.14 417.85,519.984 419.924,1075.42 421.998,705.131 424.072,828.561 426.146,458.269 428.22,643.415 430.294,519.984 432.367,951.992 434.441,334.838 436.515,396.553 438.589,458.269 440.663,705.131 442.737,828.561 444.811,1075.42 446.885,766.846 448.959,890.277 451.033,643.415 453.107,766.846 455.181,581.7 457.255,766.846 459.328,643.415 461.402,581.7 463.476,643.415 465.55,581.7 467.624,581.7 469.698,705.131 471.772,705.131 473.846,458.269 475.92,581.7 477.994,273.123 480.068,951.992 482.142,458.269 484.216,828.561 486.289,1075.42 488.363,705.131 490.437,951.992 492.511,951.992 494.585,519.984 496.659,705.131 498.733,766.846 500.807,458.269 502.881,705.131 504.955,705.131 507.029,458.269 509.103,396.553 511.176,273.123 513.25,705.131 515.324,766.846 517.398,705.131 519.472,396.553 521.546,1075.42 523.62,519.984 525.694,519.984 527.768,828.561 529.842,581.7 531.916,581.7 533.99,766.846 536.064,581.7 538.137,951.992 540.211,643.415 542.285,643.415 544.359,766.846 546.433,828.561 548.507,766.846 550.581,766.846 552.655,705.131 554.729,705.131 556.803,273.123 558.877,334.838 560.951,766.846 563.024,705.131 565.098,828.561 567.172,581.7 569.246,1075.42 571.32,766.846 573.394,828.561 575.468,951.992 577.542,890.277 579.616,396.553 581.69,519.984 583.764,519.984 585.838,581.7 587.912,1198.85 589.985,581.7 592.059,828.561 594.133,828.561 596.207,766.846 598.281,828.561 600.355,519.984 602.429,766.846 604.503,1137.14 606.577,581.7 608.651,581.7 610.725,1075.42 612.799,1013.71 614.873,273.123 616.946,705.131 619.02,766.846 621.094,766.846 623.168,519.984 625.242,951.992 627.316,581.7 629.39,705.131 631.464,643.415 633.538,828.561 635.612,828.561 637.686,828.561 639.76,766.846 641.833,766.846 643.907,828.561 645.981,273.123 648.055,643.415 650.129,396.553 652.203,643.415 654.277,766.846 656.351,951.992 658.425,581.7 660.499,890.277 662.573,458.269 664.647,828.561 666.721,828.561 668.794,705.131 670.868,766.846 672.942,766.846 675.016,396.553 677.09,951.992 679.164,396.553 681.238,643.415 683.312,890.277 685.386,396.553 687.46,273.123 689.534,951.992 691.608,581.7 693.681,396.553 695.755,396.553 697.829,890.277 699.903,643.415 701.977,1075.42 704.051,334.838 706.125,581.7 708.199,458.269 710.273,519.984 712.347,766.846 714.421,705.131 716.495,519.984 718.569,890.277 720.642,1013.71 722.716,951.992 724.79,643.415 726.864,643.415 728.938,705.131 731.012,828.561 733.086,766.846 735.16,581.7 737.234,643.415 739.308,705.131 741.382,705.131 743.456,334.838 745.53,396.553 747.603,458.269 749.677,766.846 751.751,581.7 753.825,643.415 755.899,211.407 757.973,334.838 760.047,766.846 762.121,519.984 764.195,581.7 766.269,643.415 768.343,643.415 770.417,766.846 772.49,951.992 774.564,519.984 776.638,458.269 778.712,1013.71 780.786,705.131 782.86,705.131 784.934,766.846 787.008,705.131 789.082,519.984 791.156,519.984 793.23,458.269 795.304,1137.14 797.378,396.553 799.451,334.838 801.525,1198.85 803.599,890.277 805.673,890.277 807.747,519.984 809.821,643.415 811.895,643.415 813.969,1013.71 816.043,396.553 818.117,458.269 820.191,705.131 822.265,705.131 824.339,581.7 826.412,766.846 828.486,396.553 830.56,519.984 832.634,951.992 834.708,643.415 836.782,581.7 838.856,519.984 840.93,519.984 843.004,458.269 845.078,705.131 847.152,519.984 849.226,519.984 851.299,458.269 853.373,766.846 855.447,519.984 857.521,828.561 859.595,581.7 861.669,705.131 863.743,458.269 865.817,519.984 867.891,519.984 869.965,890.277 872.039,643.415 874.113,766.846 876.187,705.131 878.26,1075.42 880.334,519.984 882.408,643.415 884.482,581.7 886.556,828.561 888.63,519.984 890.704,951.992 892.778,334.838 894.852,766.846 896.926,890.277 899,1013.71 901.074,581.7 903.147,643.415 905.221,1013.71 907.295,766.846 909.369,458.269 911.443,581.7 913.517,1013.71 915.591,458.269 917.665,519.984 919.739,890.277 921.813,458.269 923.887,396.553 925.961,519.984 928.035,828.561 930.108,581.7 932.182,643.415 934.256,890.277 936.33,705.131 938.404,519.984 940.478,705.131 942.552,458.269 944.626,519.984 946.7,581.7 948.774,890.277 950.848,1013.71 952.922,396.553 954.996,643.415 957.069,766.846 959.143,458.269 961.217,828.561 963.291,766.846 965.365,705.131 967.439,581.7 969.513,396.553 971.587,643.415 973.661,458.269 975.735,643.415 977.809,705.131 979.883,766.846 981.956,519.984 984.03,766.846 986.104,951.992 988.178,581.7 990.252,890.277 992.326,766.846 994.4,643.415 996.474,828.561 998.548,643.415 1000.62,828.561 1002.7,705.131 1004.77,396.553 1006.84,1137.14 1008.92,951.992 1010.99,705.131 1013.07,828.561 1015.14,766.846 1017.21,581.7 1019.29,890.277 1021.36,334.838 1023.43,149.692 1025.51,581.7 1027.58,643.415 1029.66,705.131 1031.73,705.131 1033.8,581.7 1035.88,519.984 1037.95,458.269 1040.03,705.131 1042.1,705.131 1044.17,1384 1046.25,643.415 1048.32,705.131 1050.4,458.269 1052.47,519.984 1054.54,766.846 1056.62,519.984 1058.69,951.992 1060.77,828.561 1062.84,87.9763 1064.91,890.277 1066.99,705.131 1069.06,643.415 1071.14,766.846 1073.21,705.131 1075.28,581.7 1077.36,951.992 1079.43,766.846 1081.5,766.846 1083.58,1075.42 1085.65,1013.71 1087.73,766.846 1089.8,581.7 1091.87,273.123 1093.95,643.415 1096.02,396.553 1098.1,334.838 1100.17,951.992 1102.24,705.131 1104.32,581.7 1106.39,581.7 1108.47,519.984 1110.54,396.553 1112.61,273.123 1114.69,1137.14 1116.76,1013.71 1118.84,519.984 1120.91,581.7 1122.98,519.984 1125.06,581.7 1127.13,519.984 1129.2,581.7 1131.28,519.984 1133.35,705.131 1135.43,828.561 1137.5,1075.42 1139.57,643.415 1141.65,458.269 1143.72,643.415 1145.8,519.984 1147.87,334.838 1149.94,766.846 1152.02,396.553 1154.09,705.131 1156.17,828.561 1158.24,766.846 1160.31,1137.14 1162.39,211.407 1164.46,643.415 1166.54,458.269 1168.61,766.846 1170.68,705.131 1172.76,581.7 1174.83,334.838 1176.91,1075.42 1178.98,1075.42 1181.05,519.984 1183.13,1013.71 1185.2,890.277 1187.27,890.277 1189.35,766.846 1191.42,951.992 1193.5,396.553 1195.57,890.277 1197.64,334.838 1199.72,828.561 1201.79,519.984 1203.87,766.846 1205.94,334.838 1208.01,519.984 1210.09,766.846 1212.16,705.131 1214.24,581.7 1216.31,396.553 1218.38,766.846 1220.46,890.277 1222.53,1013.71 1224.61,581.7 1226.68,643.415 1228.75,334.838 1230.83,87.9763 1232.9,890.277 1234.97,519.984 1237.05,643.415 1239.12,581.7 1241.2,705.131 1243.27,643.415 1245.34,1013.71 1247.42,828.561 1249.49,766.846 1251.57,890.277 1253.64,643.415 1255.71,519.984 1257.79,951.992 1259.86,828.561 1261.94,890.277 1264.01,519.984 1266.08,211.407 1268.16,705.131 1270.23,273.123 1272.31,211.407 1274.38,828.561 1276.45,705.131 1278.53,643.415 1280.6,643.415 1282.68,643.415 1284.75,705.131 1286.82,458.269 1288.9,828.561 1290.97,643.415 1293.04,643.415 1295.12,211.407 1297.19,334.838 1299.27,705.131 1301.34,211.407 1303.41,211.407 1305.49,766.846 1307.56,643.415 1309.64,643.415 1311.71,458.269 1313.78,149.692 1315.86,581.7 1317.93,643.415 1320.01,705.131 1322.08,87.9763 1324.15,519.984 1326.23,890.277 1328.3,705.131 1330.38,828.561 1332.45,766.846 1334.52,519.984 1336.6,519.984 1338.67,766.846 1340.74,766.846 1342.82,581.7 1344.89,519.984 1346.97,643.415 1349.04,766.846 1351.11,1075.42 1353.19,890.277 1355.26,828.561 1357.34,643.415 1359.41,766.846 1361.48,334.838 1363.56,766.846 1365.63,828.561 1367.71,643.415 1369.78,951.992 1371.85,334.838 1373.93,828.561 1376,828.561 1378.08,643.415 1380.15,581.7 1382.22,519.984 1384.3,705.131 1386.37,705.131 1388.44,705.131 1390.52,458.269 1392.59,951.992 1394.67,458.269 1396.74,643.415 1398.81,890.277 1400.89,643.415 1402.96,890.277 1405.04,396.553 1407.11,581.7 1409.18,334.838 1411.26,458.269 1413.33,87.9763 1415.41,766.846 1417.48,705.131 1419.55,705.131 1421.63,828.561 1423.7,705.131 1425.78,458.269 1427.85,334.838 1429.92,705.131 1432,334.838 1434.07,396.553 1436.15,951.992 1438.22,643.415 1440.29,828.561 1442.37,766.846 1444.44,273.123 1446.51,766.846 1448.59,951.992 1450.66,828.561 1452.74,890.277 1454.81,458.269 1456.88,519.984 1458.96,581.7 1461.03,705.131 1463.11,581.7 1465.18,643.415 1467.25,581.7 1469.33,951.992 1471.4,458.269 1473.48,766.846 1475.55,643.415 1477.62,643.415 1479.7,828.561 1481.77,273.123 1483.85,643.415 1485.92,890.277 1487.99,1013.71 1490.07,890.277 1492.14,334.838 1494.21,643.415 1496.29,211.407 1498.36,643.415 1500.44,581.7 1502.51,643.415 1504.58,519.984 1506.66,766.846 1508.73,581.7 1510.81,581.7 1512.88,396.553 1514.95,828.561 1517.03,581.7 1519.1,643.415 1521.18,766.846 1523.25,951.992 1525.32,519.984 1527.4,581.7 1529.47,458.269 1531.55,581.7 1533.62,458.269 1535.69,705.131 1537.77,458.269 1539.84,766.846 1541.92,519.984 1543.99,581.7 1546.06,458.269 1548.14,766.846 1550.21,396.553 1552.28,766.846 1554.36,890.277 1556.43,519.984 1558.51,890.277 1560.58,705.131 1562.65,1075.42 1564.73,705.131 1566.8,396.553 1568.88,890.277 1570.95,519.984 1573.02,828.561 1575.1,458.269 1577.17,643.415 1579.25,766.846 1581.32,705.131 1583.39,951.992 1585.47,828.561 1587.54,766.846 1589.62,581.7 1591.69,581.7 1593.76,951.992 1595.84,581.7 1597.91,396.553 1599.98,951.992 1602.06,581.7 1604.13,458.269 1606.21,828.561 1608.28,705.131 1610.35,828.561 1612.43,334.838 1614.5,1013.71 1616.58,519.984 1618.65,396.553 1620.72,828.561 1622.8,890.277 1624.87,643.415 1626.95,828.561 1629.02,951.992 1631.09,890.277 1633.17,396.553 1635.24,396.553 1637.32,458.269 1639.39,581.7 1641.46,828.561 1643.54,828.561 1645.61,581.7 1647.69,519.984 1649.76,643.415 1651.83,766.846 1653.91,581.7 1655.98,334.838 1658.05,766.846 1660.13,705.131 1662.2,643.415 1664.28,149.692 1666.35,890.277 1668.42,581.7 1670.5,828.561 1672.57,766.846 1674.65,951.992 1676.72,396.553 1678.79,766.846 1680.87,581.7 1682.94,890.277 1685.02,273.123 1687.09,458.269 1689.16,581.7 1691.24,519.984 1693.31,705.131 1695.39,87.9763 1697.46,458.269 1699.53,396.553 1701.61,643.415 1703.68,643.415 1705.75,519.984 1707.83,519.984 1709.9,519.984 1711.98,519.984 1714.05,705.131 1716.12,890.277 1718.2,519.984 1720.27,581.7 1722.35,643.415 1724.42,334.838 1726.49,581.7 1728.57,1075.42 1730.64,705.131 1732.72,1075.42 1734.79,211.407 1736.86,643.415 1738.94,458.269 1741.01,1075.42 1743.09,828.561 1745.16,211.407 1747.23,828.561 1749.31,519.984 1751.38,273.123 1753.46,766.846 1755.53,890.277 1757.6,766.846 1759.68,705.131 1761.75,643.415 1763.82,890.277 1765.9,396.553 1767.97,705.131 1770.05,705.131 1772.12,581.7 1774.19,705.131 1776.27,890.277 1778.34,581.7 1780.42,211.407 1782.49,581.7 1784.56,581.7 1786.64,149.692 1788.71,705.131 1790.79,581.7 1792.86,705.131 1794.93,458.269 1797.01,581.7 1799.08,643.415 1801.16,890.277 1803.23,766.846 1805.3,519.984 1807.38,705.131 1809.45,643.415 1811.52,458.269 1813.6,396.553 1815.67,951.992 1817.75,581.7 1819.82,396.553 1821.89,705.131 1823.97,890.277 1826.04,643.415 1828.12,705.131 1830.19,458.269 1832.26,766.846 1834.34,519.984 1836.41,458.269 1838.49,766.846 1840.56,1013.71 1842.63,396.553 1844.71,519.984 1846.78,581.7 1848.86,828.561 1850.93,890.277 1853,1137.14 1855.08,766.846 1857.15,828.561 1859.22,951.992 1861.3,1075.42 1863.37,458.269 1865.45,643.415 1867.52,273.123 1869.59,581.7 1871.67,334.838 1873.74,458.269 1875.82,581.7 1877.89,458.269 1879.96,581.7 1882.04,766.846 1884.11,581.7 1886.19,828.561 1888.26,396.553 1890.33,828.561 1892.41,890.277 1894.48,519.984 1896.56,643.415 1898.63,581.7 1900.7,581.7 1902.78,519.984 1904.85,519.984 1906.93,396.553 1909,396.553 1911.07,519.984 1913.15,334.838 1915.22,705.131 1917.29,643.415 1919.37,766.846 1921.44,273.123 1923.52,643.415 1925.59,273.123 1927.66,581.7 1929.74,458.269 1931.81,334.838 1933.89,458.269 1935.96,890.277 1938.03,519.984 1940.11,705.131 1942.18,705.131 1944.26,1075.42 1946.33,519.984 1948.4,890.277 1950.48,828.561 1952.55,396.553 1954.63,705.131 1956.7,766.846 1958.77,828.561 1960.85,581.7 1962.92,396.553 1964.99,643.415 1967.07,1013.71 1969.14,766.846 1971.22,211.407 1973.29,766.846 1975.36,766.846 1977.44,828.561 1979.51,890.277 1981.59,951.992 1983.66,396.553 1985.73,705.131 1987.81,766.846 1989.88,581.7 1991.96,581.7 1994.03,396.553 1996.1,828.561 1998.18,581.7 2000.25,828.561 2002.33,766.846 2004.4,581.7 2006.47,705.131 2008.55,581.7 2010.62,766.846 2012.7,705.131 2014.77,705.131 2016.84,828.561 2018.92,334.838 2020.99,705.131 2023.06,458.269 2025.14,828.561 2027.21,396.553 2029.29,519.984 2031.36,643.415 2033.43,581.7 2035.51,828.561 2037.58,1198.85 2039.66,705.131 2041.73,396.553 2043.8,581.7 2045.88,519.984 2047.95,643.415 2050.03,890.277 2052.1,705.131 2054.17,396.553 2056.25,581.7 2058.32,766.846 2060.4,334.838 2062.47,705.131 2064.54,828.561 2066.62,705.131 2068.69,581.7 2070.76,458.269 2072.84,705.131 2074.91,211.407 2076.99,766.846 2079.06,458.269 2081.13,581.7 2083.21,766.846 2085.28,334.838 2087.36,396.553 2089.43,705.131 2091.5,705.131 2093.58,643.415 2095.65,581.7 2097.73,581.7 2099.8,519.984 2101.87,1198.85 2103.95,890.277 2106.02,705.131 2108.1,581.7 2110.17,458.269 2112.24,643.415 2114.32,458.269 2116.39,458.269 2118.47,705.131 2120.54,149.692 2122.61,396.553 2124.69,581.7 2126.76,396.553 2128.83,458.269 2130.91,705.131 2132.98,273.123 2135.06,890.277 2137.13,1013.71 2139.2,643.415 2141.28,766.846 2143.35,705.131 2145.43,581.7 2147.5,396.553 2149.57,519.984 2151.65,643.415 2153.72,643.415 2155.8,643.415 2157.87,581.7 2159.94,581.7 2162.02,951.992 2164.09,766.846 2166.17,766.846 2168.24,458.269 2170.31,458.269 2172.39,828.561 2174.46,643.415 2176.53,643.415 2178.61,396.553 2180.68,1075.42 2182.76,149.692 2184.83,334.838 2186.9,828.561 2188.98,519.984 2191.05,705.131 2193.13,458.269 2195.2,581.7 2197.27,396.553 2199.35,951.992 2201.42,458.269 2203.5,643.415 2205.57,458.269 2207.64,766.846 2209.72,581.7 2211.79,890.277 2213.87,519.984 2215.94,396.553 2218.01,396.553 2220.09,828.561 2222.16,519.984 2224.24,396.553 2226.31,458.269 2228.38,890.277 2230.46,396.553 2232.53,1198.85 2234.6,828.561 2236.68,828.561 2238.75,519.984 2240.83,334.838 2242.9,890.277 2244.97,643.415 2247.05,519.984 2249.12,766.846 2251.2,705.131 2253.27,519.984 2255.34,581.7 2257.42,519.984 2259.49,334.838 2261.57,1137.14 2263.64,951.992 2265.71,149.692 2267.79,766.846 2269.86,890.277 2271.94,519.984 2274.01,458.269 2276.08,396.553 2278.16,951.992 2280.23,828.561 2282.3,334.838 2284.38,458.269 2286.45,334.838 2288.53,890.277 2290.6,705.131 "/>
<path clip-path="url(#clip120)" d="M2007.5 1438.47 L2279.55 1438.47 L2279.55 1334.79 L2007.5 1334.79  Z" fill="#ffffff" fill-rule="evenodd" fill-opacity="1"/>
<polyline clip-path="url(#clip120)" style="stroke:#000000; stroke-linecap:round; stroke-linejoin:round; stroke-width:4; stroke-opacity:1; fill:none" points="2007.5,1438.47 2279.55,1438.47 2279.55,1334.79 2007.5,1334.79 2007.5,1438.47 "/>
<polyline clip-path="url(#clip120)" style="stroke:#009af9; stroke-linecap:round; stroke-linejoin:round; stroke-width:4; stroke-opacity:1; fill:none" points="2031.91,1386.63 2178.32,1386.63 "/>
<path clip-path="url(#clip120)" d="M2216.56 1406.32 Q2214.76 1410.95 2213.04 1412.36 Q2211.33 1413.78 2208.46 1413.78 L2205.06 1413.78 L2205.06 1410.21 L2207.56 1410.21 Q2209.32 1410.21 2210.29 1409.38 Q2211.26 1408.54 2212.44 1405.44 L2213.2 1403.5 L2202.72 1377.99 L2207.23 1377.99 L2215.33 1398.27 L2223.44 1377.99 L2227.95 1377.99 L2216.56 1406.32 Z" fill="#000000" fill-rule="nonzero" fill-opacity="1" /><path clip-path="url(#clip120)" d="M2235.24 1399.98 L2242.88 1399.98 L2242.88 1373.61 L2234.57 1375.28 L2234.57 1371.02 L2242.83 1369.35 L2247.51 1369.35 L2247.51 1399.98 L2255.15 1399.98 L2255.15 1403.91 L2235.24 1403.91 L2235.24 1399.98 Z" fill="#000000" fill-rule="nonzero" fill-opacity="1" /></svg>
