<?xml version="1.0" encoding="utf-8"?>
<svg xmlns="http://www.w3.org/2000/svg" xmlns:xlink="http://www.w3.org/1999/xlink" width="600" height="400" viewBox="0 0 2400 1600">
<defs>
  <clipPath id="clip570">
    <rect x="0" y="0" width="2400" height="1600"/>
  </clipPath>
</defs>
<path clip-path="url(#clip570)" d="M0 1600 L2400 1600 L2400 0 L0 0  Z" fill="#ffffff" fill-rule="evenodd" fill-opacity="1"/>
<defs>
  <clipPath id="clip571">
    <rect x="480" y="0" width="1681" height="1600"/>
  </clipPath>
</defs>
<path clip-path="url(#clip570)" d="M216.922 1486.45 L2352.76 1486.45 L2352.76 47.2441 L216.922 47.2441  Z" fill="#ffffff" fill-rule="evenodd" fill-opacity="1"/>
<defs>
  <clipPath id="clip572">
    <rect x="216" y="47" width="2137" height="1440"/>
  </clipPath>
</defs>
<polyline clip-path="url(#clip572)" style="stroke:#000000; stroke-linecap:round; stroke-linejoin:round; stroke-width:2; stroke-opacity:0.1; fill:none" points="277.37,1486.45 277.37,47.2441 "/>
<polyline clip-path="url(#clip572)" style="stroke:#000000; stroke-linecap:round; stroke-linejoin:round; stroke-width:2; stroke-opacity:0.1; fill:none" points="781.105,1486.45 781.105,47.2441 "/>
<polyline clip-path="url(#clip572)" style="stroke:#000000; stroke-linecap:round; stroke-linejoin:round; stroke-width:2; stroke-opacity:0.1; fill:none" points="1284.84,1486.45 1284.84,47.2441 "/>
<polyline clip-path="url(#clip572)" style="stroke:#000000; stroke-linecap:round; stroke-linejoin:round; stroke-width:2; stroke-opacity:0.1; fill:none" points="1788.57,1486.45 1788.57,47.2441 "/>
<polyline clip-path="url(#clip572)" style="stroke:#000000; stroke-linecap:round; stroke-linejoin:round; stroke-width:2; stroke-opacity:0.1; fill:none" points="2292.31,1486.45 2292.31,47.2441 "/>
<polyline clip-path="url(#clip570)" style="stroke:#000000; stroke-linecap:round; stroke-linejoin:round; stroke-width:4; stroke-opacity:1; fill:none" points="216.922,1486.45 2352.76,1486.45 "/>
<polyline clip-path="url(#clip570)" style="stroke:#000000; stroke-linecap:round; stroke-linejoin:round; stroke-width:4; stroke-opacity:1; fill:none" points="277.37,1486.45 277.37,1467.55 "/>
<polyline clip-path="url(#clip570)" style="stroke:#000000; stroke-linecap:round; stroke-linejoin:round; stroke-width:4; stroke-opacity:1; fill:none" points="781.105,1486.45 781.105,1467.55 "/>
<polyline clip-path="url(#clip570)" style="stroke:#000000; stroke-linecap:round; stroke-linejoin:round; stroke-width:4; stroke-opacity:1; fill:none" points="1284.84,1486.45 1284.84,1467.55 "/>
<polyline clip-path="url(#clip570)" style="stroke:#000000; stroke-linecap:round; stroke-linejoin:round; stroke-width:4; stroke-opacity:1; fill:none" points="1788.57,1486.45 1788.57,1467.55 "/>
<polyline clip-path="url(#clip570)" style="stroke:#000000; stroke-linecap:round; stroke-linejoin:round; stroke-width:4; stroke-opacity:1; fill:none" points="2292.31,1486.45 2292.31,1467.55 "/>
<path clip-path="url(#clip570)" d="M239.674 1517.37 Q236.062 1517.37 234.234 1520.93 Q232.428 1524.47 232.428 1531.6 Q232.428 1538.71 234.234 1542.27 Q236.062 1545.82 239.674 1545.82 Q243.308 1545.82 245.113 1542.27 Q246.942 1538.71 246.942 1531.6 Q246.942 1524.47 245.113 1520.93 Q243.308 1517.37 239.674 1517.37 M239.674 1513.66 Q245.484 1513.66 248.539 1518.27 Q251.618 1522.85 251.618 1531.6 Q251.618 1540.33 248.539 1544.94 Q245.484 1549.52 239.674 1549.52 Q233.863 1549.52 230.785 1544.94 Q227.729 1540.33 227.729 1531.6 Q227.729 1522.85 230.785 1518.27 Q233.863 1513.66 239.674 1513.66 Z" fill="#000000" fill-rule="nonzero" fill-opacity="1" /><path clip-path="url(#clip570)" d="M259.835 1542.97 L264.72 1542.97 L264.72 1548.85 L259.835 1548.85 L259.835 1542.97 Z" fill="#000000" fill-rule="nonzero" fill-opacity="1" /><path clip-path="url(#clip570)" d="M284.905 1517.37 Q281.294 1517.37 279.465 1520.93 Q277.659 1524.47 277.659 1531.6 Q277.659 1538.71 279.465 1542.27 Q281.294 1545.82 284.905 1545.82 Q288.539 1545.82 290.345 1542.27 Q292.173 1538.71 292.173 1531.6 Q292.173 1524.47 290.345 1520.93 Q288.539 1517.37 284.905 1517.37 M284.905 1513.66 Q290.715 1513.66 293.77 1518.27 Q296.849 1522.85 296.849 1531.6 Q296.849 1540.33 293.77 1544.94 Q290.715 1549.52 284.905 1549.52 Q279.095 1549.52 276.016 1544.94 Q272.96 1540.33 272.96 1531.6 Q272.96 1522.85 276.016 1518.27 Q279.095 1513.66 284.905 1513.66 Z" fill="#000000" fill-rule="nonzero" fill-opacity="1" /><path clip-path="url(#clip570)" d="M315.067 1517.37 Q311.456 1517.37 309.627 1520.93 Q307.821 1524.47 307.821 1531.6 Q307.821 1538.71 309.627 1542.27 Q311.456 1545.82 315.067 1545.82 Q318.701 1545.82 320.506 1542.27 Q322.335 1538.71 322.335 1531.6 Q322.335 1524.47 320.506 1520.93 Q318.701 1517.37 315.067 1517.37 M315.067 1513.66 Q320.877 1513.66 323.932 1518.27 Q327.011 1522.85 327.011 1531.6 Q327.011 1540.33 323.932 1544.94 Q320.877 1549.52 315.067 1549.52 Q309.257 1549.52 306.178 1544.94 Q303.122 1540.33 303.122 1531.6 Q303.122 1522.85 306.178 1518.27 Q309.257 1513.66 315.067 1513.66 Z" fill="#000000" fill-rule="nonzero" fill-opacity="1" /><path clip-path="url(#clip570)" d="M743.906 1517.37 Q740.295 1517.37 738.466 1520.93 Q736.66 1524.47 736.66 1531.6 Q736.66 1538.71 738.466 1542.27 Q740.295 1545.82 743.906 1545.82 Q747.54 1545.82 749.345 1542.27 Q751.174 1538.71 751.174 1531.6 Q751.174 1524.47 749.345 1520.93 Q747.54 1517.37 743.906 1517.37 M743.906 1513.66 Q749.716 1513.66 752.771 1518.27 Q755.85 1522.85 755.85 1531.6 Q755.85 1540.33 752.771 1544.94 Q749.716 1549.52 743.906 1549.52 Q738.096 1549.52 735.017 1544.94 Q731.961 1540.33 731.961 1531.6 Q731.961 1522.85 735.017 1518.27 Q738.096 1513.66 743.906 1513.66 Z" fill="#000000" fill-rule="nonzero" fill-opacity="1" /><path clip-path="url(#clip570)" d="M764.068 1542.97 L768.952 1542.97 L768.952 1548.85 L764.068 1548.85 L764.068 1542.97 Z" fill="#000000" fill-rule="nonzero" fill-opacity="1" /><path clip-path="url(#clip570)" d="M783.165 1544.91 L799.484 1544.91 L799.484 1548.85 L777.54 1548.85 L777.54 1544.91 Q780.202 1542.16 784.785 1537.53 Q789.392 1532.88 790.572 1531.53 Q792.817 1529.01 793.697 1527.27 Q794.6 1525.51 794.6 1523.82 Q794.6 1521.07 792.655 1519.33 Q790.734 1517.6 787.632 1517.6 Q785.433 1517.6 782.98 1518.36 Q780.549 1519.13 777.771 1520.68 L777.771 1515.95 Q780.595 1514.82 783.049 1514.24 Q785.503 1513.66 787.54 1513.66 Q792.91 1513.66 796.104 1516.35 Q799.299 1519.03 799.299 1523.52 Q799.299 1525.65 798.489 1527.57 Q797.702 1529.47 795.595 1532.07 Q795.016 1532.74 791.915 1535.95 Q788.813 1539.15 783.165 1544.91 Z" fill="#000000" fill-rule="nonzero" fill-opacity="1" /><path clip-path="url(#clip570)" d="M809.345 1514.29 L827.702 1514.29 L827.702 1518.22 L813.628 1518.22 L813.628 1526.7 Q814.646 1526.35 815.665 1526.19 Q816.683 1526 817.702 1526 Q823.489 1526 826.868 1529.17 Q830.248 1532.34 830.248 1537.76 Q830.248 1543.34 826.776 1546.44 Q823.303 1549.52 816.984 1549.52 Q814.808 1549.52 812.54 1549.15 Q810.294 1548.78 807.887 1548.04 L807.887 1543.34 Q809.97 1544.47 812.192 1545.03 Q814.415 1545.58 816.891 1545.58 Q820.896 1545.58 823.234 1543.48 Q825.572 1541.37 825.572 1537.76 Q825.572 1534.15 823.234 1532.04 Q820.896 1529.94 816.891 1529.94 Q815.016 1529.94 813.141 1530.35 Q811.29 1530.77 809.345 1531.65 L809.345 1514.29 Z" fill="#000000" fill-rule="nonzero" fill-opacity="1" /><path clip-path="url(#clip570)" d="M1247.14 1517.37 Q1243.53 1517.37 1241.7 1520.93 Q1239.9 1524.47 1239.9 1531.6 Q1239.9 1538.71 1241.7 1542.27 Q1243.53 1545.82 1247.14 1545.82 Q1250.78 1545.82 1252.58 1542.27 Q1254.41 1538.71 1254.41 1531.6 Q1254.41 1524.47 1252.58 1520.93 Q1250.78 1517.37 1247.14 1517.37 M1247.14 1513.66 Q1252.95 1513.66 1256.01 1518.27 Q1259.09 1522.85 1259.09 1531.6 Q1259.09 1540.33 1256.01 1544.94 Q1252.95 1549.52 1247.14 1549.52 Q1241.33 1549.52 1238.25 1544.94 Q1235.2 1540.33 1235.2 1531.6 Q1235.2 1522.85 1238.25 1518.27 Q1241.33 1513.66 1247.14 1513.66 Z" fill="#000000" fill-rule="nonzero" fill-opacity="1" /><path clip-path="url(#clip570)" d="M1267.3 1542.97 L1272.19 1542.97 L1272.19 1548.85 L1267.3 1548.85 L1267.3 1542.97 Z" fill="#000000" fill-rule="nonzero" fill-opacity="1" /><path clip-path="url(#clip570)" d="M1282.42 1514.29 L1300.78 1514.29 L1300.78 1518.22 L1286.7 1518.22 L1286.7 1526.7 Q1287.72 1526.35 1288.74 1526.19 Q1289.76 1526 1290.78 1526 Q1296.56 1526 1299.94 1529.17 Q1303.32 1532.34 1303.32 1537.76 Q1303.32 1543.34 1299.85 1546.44 Q1296.38 1549.52 1290.06 1549.52 Q1287.88 1549.52 1285.61 1549.15 Q1283.37 1548.78 1280.96 1548.04 L1280.96 1543.34 Q1283.04 1544.47 1285.27 1545.03 Q1287.49 1545.58 1289.97 1545.58 Q1293.97 1545.58 1296.31 1543.48 Q1298.65 1541.37 1298.65 1537.76 Q1298.65 1534.15 1296.31 1532.04 Q1293.97 1529.94 1289.97 1529.94 Q1288.09 1529.94 1286.22 1530.35 Q1284.36 1530.77 1282.42 1531.65 L1282.42 1514.29 Z" fill="#000000" fill-rule="nonzero" fill-opacity="1" /><path clip-path="url(#clip570)" d="M1322.54 1517.37 Q1318.92 1517.37 1317.1 1520.93 Q1315.29 1524.47 1315.29 1531.6 Q1315.29 1538.71 1317.1 1542.27 Q1318.92 1545.82 1322.54 1545.82 Q1326.17 1545.82 1327.98 1542.27 Q1329.8 1538.71 1329.8 1531.6 Q1329.8 1524.47 1327.98 1520.93 Q1326.17 1517.37 1322.54 1517.37 M1322.54 1513.66 Q1328.35 1513.66 1331.4 1518.27 Q1334.48 1522.85 1334.48 1531.6 Q1334.48 1540.33 1331.4 1544.94 Q1328.35 1549.52 1322.54 1549.52 Q1316.73 1549.52 1313.65 1544.94 Q1310.59 1540.33 1310.59 1531.6 Q1310.59 1522.85 1313.65 1518.27 Q1316.73 1513.66 1322.54 1513.66 Z" fill="#000000" fill-rule="nonzero" fill-opacity="1" /><path clip-path="url(#clip570)" d="M1751.37 1517.37 Q1747.76 1517.37 1745.93 1520.93 Q1744.13 1524.47 1744.13 1531.6 Q1744.13 1538.71 1745.93 1542.27 Q1747.76 1545.82 1751.37 1545.82 Q1755.01 1545.82 1756.81 1542.27 Q1758.64 1538.71 1758.64 1531.6 Q1758.64 1524.47 1756.81 1520.93 Q1755.01 1517.37 1751.37 1517.37 M1751.37 1513.66 Q1757.18 1513.66 1760.24 1518.27 Q1763.32 1522.85 1763.32 1531.6 Q1763.32 1540.33 1760.24 1544.94 Q1757.18 1549.52 1751.37 1549.52 Q1745.56 1549.52 1742.49 1544.94 Q1739.43 1540.33 1739.43 1531.6 Q1739.43 1522.85 1742.49 1518.27 Q1745.56 1513.66 1751.37 1513.66 Z" fill="#000000" fill-rule="nonzero" fill-opacity="1" /><path clip-path="url(#clip570)" d="M1771.54 1542.97 L1776.42 1542.97 L1776.42 1548.85 L1771.54 1548.85 L1771.54 1542.97 Z" fill="#000000" fill-rule="nonzero" fill-opacity="1" /><path clip-path="url(#clip570)" d="M1785.43 1514.29 L1807.65 1514.29 L1807.65 1516.28 L1795.1 1548.85 L1790.22 1548.85 L1802.02 1518.22 L1785.43 1518.22 L1785.43 1514.29 Z" fill="#000000" fill-rule="nonzero" fill-opacity="1" /><path clip-path="url(#clip570)" d="M1816.81 1514.29 L1835.17 1514.29 L1835.17 1518.22 L1821.1 1518.22 L1821.1 1526.7 Q1822.11 1526.35 1823.13 1526.19 Q1824.15 1526 1825.17 1526 Q1830.96 1526 1834.34 1529.17 Q1837.72 1532.34 1837.72 1537.76 Q1837.72 1543.34 1834.24 1546.44 Q1830.77 1549.52 1824.45 1549.52 Q1822.28 1549.52 1820.01 1549.15 Q1817.76 1548.78 1815.36 1548.04 L1815.36 1543.34 Q1817.44 1544.47 1819.66 1545.03 Q1821.88 1545.58 1824.36 1545.58 Q1828.36 1545.58 1830.7 1543.48 Q1833.04 1541.37 1833.04 1537.76 Q1833.04 1534.15 1830.7 1532.04 Q1828.36 1529.94 1824.36 1529.94 Q1822.49 1529.94 1820.61 1530.35 Q1818.76 1530.77 1816.81 1531.65 L1816.81 1514.29 Z" fill="#000000" fill-rule="nonzero" fill-opacity="1" /><path clip-path="url(#clip570)" d="M2244.38 1544.91 L2252.02 1544.91 L2252.02 1518.55 L2243.71 1520.21 L2243.71 1515.95 L2251.97 1514.29 L2256.65 1514.29 L2256.65 1544.91 L2264.29 1544.91 L2264.29 1548.85 L2244.38 1548.85 L2244.38 1544.91 Z" fill="#000000" fill-rule="nonzero" fill-opacity="1" /><path clip-path="url(#clip570)" d="M2273.73 1542.97 L2278.62 1542.97 L2278.62 1548.85 L2273.73 1548.85 L2273.73 1542.97 Z" fill="#000000" fill-rule="nonzero" fill-opacity="1" /><path clip-path="url(#clip570)" d="M2298.8 1517.37 Q2295.19 1517.37 2293.36 1520.93 Q2291.56 1524.47 2291.56 1531.6 Q2291.56 1538.71 2293.36 1542.27 Q2295.19 1545.82 2298.8 1545.82 Q2302.44 1545.82 2304.24 1542.27 Q2306.07 1538.71 2306.07 1531.6 Q2306.07 1524.47 2304.24 1520.93 Q2302.44 1517.37 2298.8 1517.37 M2298.8 1513.66 Q2304.61 1513.66 2307.67 1518.27 Q2310.75 1522.85 2310.75 1531.6 Q2310.75 1540.33 2307.67 1544.94 Q2304.61 1549.52 2298.8 1549.52 Q2292.99 1549.52 2289.91 1544.94 Q2286.86 1540.33 2286.86 1531.6 Q2286.86 1522.85 2289.91 1518.27 Q2292.99 1513.66 2298.8 1513.66 Z" fill="#000000" fill-rule="nonzero" fill-opacity="1" /><path clip-path="url(#clip570)" d="M2328.96 1517.37 Q2325.35 1517.37 2323.52 1520.93 Q2321.72 1524.47 2321.72 1531.6 Q2321.72 1538.71 2323.52 1542.27 Q2325.35 1545.82 2328.96 1545.82 Q2332.6 1545.82 2334.4 1542.27 Q2336.23 1538.71 2336.23 1531.6 Q2336.23 1524.47 2334.4 1520.93 Q2332.6 1517.37 2328.96 1517.37 M2328.96 1513.66 Q2334.77 1513.66 2337.83 1518.27 Q2340.91 1522.85 2340.91 1531.6 Q2340.91 1540.33 2337.83 1544.94 Q2334.77 1549.52 2328.96 1549.52 Q2323.15 1549.52 2320.07 1544.94 Q2317.02 1540.33 2317.02 1531.6 Q2317.02 1522.85 2320.07 1518.27 Q2323.15 1513.66 2328.96 1513.66 Z" fill="#000000" fill-rule="nonzero" fill-opacity="1" /><polyline clip-path="url(#clip572)" style="stroke:#000000; stroke-linecap:round; stroke-linejoin:round; stroke-width:2; stroke-opacity:0.1; fill:none" points="216.922,1475.75 2352.76,1475.75 "/>
<polyline clip-path="url(#clip572)" style="stroke:#000000; stroke-linecap:round; stroke-linejoin:round; stroke-width:2; stroke-opacity:0.1; fill:none" points="216.922,1112.43 2352.76,1112.43 "/>
<polyline clip-path="url(#clip572)" style="stroke:#000000; stroke-linecap:round; stroke-linejoin:round; stroke-width:2; stroke-opacity:0.1; fill:none" points="216.922,749.105 2352.76,749.105 "/>
<polyline clip-path="url(#clip572)" style="stroke:#000000; stroke-linecap:round; stroke-linejoin:round; stroke-width:2; stroke-opacity:0.1; fill:none" points="216.922,385.784 2352.76,385.784 "/>
<polyline clip-path="url(#clip570)" style="stroke:#000000; stroke-linecap:round; stroke-linejoin:round; stroke-width:4; stroke-opacity:1; fill:none" points="216.922,1486.45 216.922,47.2441 "/>
<polyline clip-path="url(#clip570)" style="stroke:#000000; stroke-linecap:round; stroke-linejoin:round; stroke-width:4; stroke-opacity:1; fill:none" points="216.922,1475.75 235.82,1475.75 "/>
<polyline clip-path="url(#clip570)" style="stroke:#000000; stroke-linecap:round; stroke-linejoin:round; stroke-width:4; stroke-opacity:1; fill:none" points="216.922,1112.43 235.82,1112.43 "/>
<polyline clip-path="url(#clip570)" style="stroke:#000000; stroke-linecap:round; stroke-linejoin:round; stroke-width:4; stroke-opacity:1; fill:none" points="216.922,749.105 235.82,749.105 "/>
<polyline clip-path="url(#clip570)" style="stroke:#000000; stroke-linecap:round; stroke-linejoin:round; stroke-width:4; stroke-opacity:1; fill:none" points="216.922,385.784 235.82,385.784 "/>
<path clip-path="url(#clip570)" d="M63.4226 1461.55 Q59.8115 1461.55 57.9828 1465.11 Q56.1773 1468.65 56.1773 1475.78 Q56.1773 1482.89 57.9828 1486.45 Q59.8115 1490 63.4226 1490 Q67.0569 1490 68.8624 1486.45 Q70.6911 1482.89 70.6911 1475.78 Q70.6911 1468.65 68.8624 1465.11 Q67.0569 1461.55 63.4226 1461.55 M63.4226 1457.84 Q69.2328 1457.84 72.2883 1462.45 Q75.367 1467.03 75.367 1475.78 Q75.367 1484.51 72.2883 1489.12 Q69.2328 1493.7 63.4226 1493.7 Q57.6125 1493.7 54.5338 1489.12 Q51.4782 1484.51 51.4782 1475.78 Q51.4782 1467.03 54.5338 1462.45 Q57.6125 1457.84 63.4226 1457.84 Z" fill="#000000" fill-rule="nonzero" fill-opacity="1" /><path clip-path="url(#clip570)" d="M83.5845 1487.15 L88.4688 1487.15 L88.4688 1493.03 L83.5845 1493.03 L83.5845 1487.15 Z" fill="#000000" fill-rule="nonzero" fill-opacity="1" /><path clip-path="url(#clip570)" d="M102.682 1489.09 L119.001 1489.09 L119.001 1493.03 L97.0567 1493.03 L97.0567 1489.09 Q99.7187 1486.34 104.302 1481.71 Q108.908 1477.06 110.089 1475.71 Q112.334 1473.19 113.214 1471.45 Q114.117 1469.69 114.117 1468 Q114.117 1465.25 112.172 1463.51 Q110.251 1461.78 107.149 1461.78 Q104.95 1461.78 102.496 1462.54 Q100.066 1463.31 97.2882 1464.86 L97.2882 1460.13 Q100.112 1459 102.566 1458.42 Q105.02 1457.84 107.057 1457.84 Q112.427 1457.84 115.621 1460.53 Q118.816 1463.21 118.816 1467.7 Q118.816 1469.83 118.006 1471.75 Q117.219 1473.65 115.112 1476.25 Q114.533 1476.92 111.432 1480.13 Q108.33 1483.33 102.682 1489.09 Z" fill="#000000" fill-rule="nonzero" fill-opacity="1" /><path clip-path="url(#clip570)" d="M138.816 1461.55 Q135.205 1461.55 133.376 1465.11 Q131.57 1468.65 131.57 1475.78 Q131.57 1482.89 133.376 1486.45 Q135.205 1490 138.816 1490 Q142.45 1490 144.256 1486.45 Q146.084 1482.89 146.084 1475.78 Q146.084 1468.65 144.256 1465.11 Q142.45 1461.55 138.816 1461.55 M138.816 1457.84 Q144.626 1457.84 147.681 1462.45 Q150.76 1467.03 150.76 1475.78 Q150.76 1484.51 147.681 1489.12 Q144.626 1493.7 138.816 1493.7 Q133.006 1493.7 129.927 1489.12 Q126.871 1484.51 126.871 1475.78 Q126.871 1467.03 129.927 1462.45 Q133.006 1457.84 138.816 1457.84 Z" fill="#000000" fill-rule="nonzero" fill-opacity="1" /><path clip-path="url(#clip570)" d="M168.978 1461.55 Q165.367 1461.55 163.538 1465.11 Q161.732 1468.65 161.732 1475.78 Q161.732 1482.89 163.538 1486.45 Q165.367 1490 168.978 1490 Q172.612 1490 174.417 1486.45 Q176.246 1482.89 176.246 1475.78 Q176.246 1468.65 174.417 1465.11 Q172.612 1461.55 168.978 1461.55 M168.978 1457.84 Q174.788 1457.84 177.843 1462.45 Q180.922 1467.03 180.922 1475.78 Q180.922 1484.51 177.843 1489.12 Q174.788 1493.7 168.978 1493.7 Q163.167 1493.7 160.089 1489.12 Q157.033 1484.51 157.033 1475.78 Q157.033 1467.03 160.089 1462.45 Q163.167 1457.84 168.978 1457.84 Z" fill="#000000" fill-rule="nonzero" fill-opacity="1" /><path clip-path="url(#clip570)" d="M65.0198 1098.23 Q61.4087 1098.23 59.58 1101.79 Q57.7745 1105.33 57.7745 1112.46 Q57.7745 1119.57 59.58 1123.13 Q61.4087 1126.67 65.0198 1126.67 Q68.6541 1126.67 70.4596 1123.13 Q72.2883 1119.57 72.2883 1112.46 Q72.2883 1105.33 70.4596 1101.79 Q68.6541 1098.23 65.0198 1098.23 M65.0198 1094.52 Q70.83 1094.52 73.8855 1099.13 Q76.9642 1103.71 76.9642 1112.46 Q76.9642 1121.19 73.8855 1125.79 Q70.83 1130.38 65.0198 1130.38 Q59.2097 1130.38 56.131 1125.79 Q53.0754 1121.19 53.0754 1112.46 Q53.0754 1103.71 56.131 1099.13 Q59.2097 1094.52 65.0198 1094.52 Z" fill="#000000" fill-rule="nonzero" fill-opacity="1" /><path clip-path="url(#clip570)" d="M85.1818 1123.83 L90.066 1123.83 L90.066 1129.71 L85.1818 1129.71 L85.1818 1123.83 Z" fill="#000000" fill-rule="nonzero" fill-opacity="1" /><path clip-path="url(#clip570)" d="M104.279 1125.77 L120.598 1125.77 L120.598 1129.71 L98.6539 1129.71 L98.6539 1125.77 Q101.316 1123.02 105.899 1118.39 Q110.506 1113.73 111.686 1112.39 Q113.932 1109.87 114.811 1108.13 Q115.714 1106.37 115.714 1104.68 Q115.714 1101.93 113.77 1100.19 Q111.848 1098.46 108.746 1098.46 Q106.547 1098.46 104.094 1099.22 Q101.663 1099.98 98.8854 1101.54 L98.8854 1096.81 Q101.709 1095.68 104.163 1095.1 Q106.617 1094.52 108.654 1094.52 Q114.024 1094.52 117.219 1097.21 Q120.413 1099.89 120.413 1104.38 Q120.413 1106.51 119.603 1108.43 Q118.816 1110.33 116.709 1112.92 Q116.131 1113.6 113.029 1116.81 Q109.927 1120.01 104.279 1125.77 Z" fill="#000000" fill-rule="nonzero" fill-opacity="1" /><path clip-path="url(#clip570)" d="M140.413 1098.23 Q136.802 1098.23 134.973 1101.79 Q133.168 1105.33 133.168 1112.46 Q133.168 1119.57 134.973 1123.13 Q136.802 1126.67 140.413 1126.67 Q144.047 1126.67 145.853 1123.13 Q147.681 1119.57 147.681 1112.46 Q147.681 1105.33 145.853 1101.79 Q144.047 1098.23 140.413 1098.23 M140.413 1094.52 Q146.223 1094.52 149.279 1099.13 Q152.357 1103.71 152.357 1112.46 Q152.357 1121.19 149.279 1125.79 Q146.223 1130.38 140.413 1130.38 Q134.603 1130.38 131.524 1125.79 Q128.469 1121.19 128.469 1112.46 Q128.469 1103.71 131.524 1099.13 Q134.603 1094.52 140.413 1094.52 Z" fill="#000000" fill-rule="nonzero" fill-opacity="1" /><path clip-path="url(#clip570)" d="M164.603 1125.77 L180.922 1125.77 L180.922 1129.71 L158.978 1129.71 L158.978 1125.77 Q161.64 1123.02 166.223 1118.39 Q170.829 1113.73 172.01 1112.39 Q174.255 1109.87 175.135 1108.13 Q176.038 1106.37 176.038 1104.68 Q176.038 1101.93 174.093 1100.19 Q172.172 1098.46 169.07 1098.46 Q166.871 1098.46 164.417 1099.22 Q161.987 1099.98 159.209 1101.54 L159.209 1096.81 Q162.033 1095.68 164.487 1095.1 Q166.941 1094.52 168.978 1094.52 Q174.348 1094.52 177.542 1097.21 Q180.737 1099.89 180.737 1104.38 Q180.737 1106.51 179.927 1108.43 Q179.14 1110.33 177.033 1112.92 Q176.454 1113.6 173.353 1116.81 Q170.251 1120.01 164.603 1125.77 Z" fill="#000000" fill-rule="nonzero" fill-opacity="1" /><path clip-path="url(#clip570)" d="M62.9365 734.904 Q59.3254 734.904 57.4967 738.469 Q55.6912 742.01 55.6912 749.14 Q55.6912 756.246 57.4967 759.811 Q59.3254 763.353 62.9365 763.353 Q66.5707 763.353 68.3763 759.811 Q70.205 756.246 70.205 749.14 Q70.205 742.01 68.3763 738.469 Q66.5707 734.904 62.9365 734.904 M62.9365 731.2 Q68.7467 731.2 71.8022 735.807 Q74.8809 740.39 74.8809 749.14 Q74.8809 757.867 71.8022 762.473 Q68.7467 767.057 62.9365 767.057 Q57.1264 767.057 54.0477 762.473 Q50.9921 757.867 50.9921 749.14 Q50.9921 740.39 54.0477 735.807 Q57.1264 731.2 62.9365 731.2 Z" fill="#000000" fill-rule="nonzero" fill-opacity="1" /><path clip-path="url(#clip570)" d="M83.0984 760.506 L87.9827 760.506 L87.9827 766.385 L83.0984 766.385 L83.0984 760.506 Z" fill="#000000" fill-rule="nonzero" fill-opacity="1" /><path clip-path="url(#clip570)" d="M102.196 762.45 L118.515 762.45 L118.515 766.385 L96.5706 766.385 L96.5706 762.45 Q99.2326 759.696 103.816 755.066 Q108.422 750.413 109.603 749.071 Q111.848 746.547 112.728 744.811 Q113.631 743.052 113.631 741.362 Q113.631 738.608 111.686 736.872 Q109.765 735.135 106.663 735.135 Q104.464 735.135 102.01 735.899 Q99.5798 736.663 96.8021 738.214 L96.8021 733.492 Q99.6261 732.358 102.08 731.779 Q104.534 731.2 106.571 731.2 Q111.941 731.2 115.135 733.885 Q118.33 736.571 118.33 741.061 Q118.33 743.191 117.52 745.112 Q116.733 747.01 114.626 749.603 Q114.047 750.274 110.946 753.492 Q107.844 756.686 102.196 762.45 Z" fill="#000000" fill-rule="nonzero" fill-opacity="1" /><path clip-path="url(#clip570)" d="M138.33 734.904 Q134.719 734.904 132.89 738.469 Q131.084 742.01 131.084 749.14 Q131.084 756.246 132.89 759.811 Q134.719 763.353 138.33 763.353 Q141.964 763.353 143.769 759.811 Q145.598 756.246 145.598 749.14 Q145.598 742.01 143.769 738.469 Q141.964 734.904 138.33 734.904 M138.33 731.2 Q144.14 731.2 147.195 735.807 Q150.274 740.39 150.274 749.14 Q150.274 757.867 147.195 762.473 Q144.14 767.057 138.33 767.057 Q132.519 767.057 129.441 762.473 Q126.385 757.867 126.385 749.14 Q126.385 740.39 129.441 735.807 Q132.519 731.2 138.33 731.2 Z" fill="#000000" fill-rule="nonzero" fill-opacity="1" /><path clip-path="url(#clip570)" d="M171.339 735.899 L159.533 754.348 L171.339 754.348 L171.339 735.899 M170.112 731.825 L175.991 731.825 L175.991 754.348 L180.922 754.348 L180.922 758.237 L175.991 758.237 L175.991 766.385 L171.339 766.385 L171.339 758.237 L155.737 758.237 L155.737 753.723 L170.112 731.825 Z" fill="#000000" fill-rule="nonzero" fill-opacity="1" /><path clip-path="url(#clip570)" d="M63.2606 371.583 Q59.6495 371.583 57.8208 375.148 Q56.0152 378.689 56.0152 385.819 Q56.0152 392.925 57.8208 396.49 Q59.6495 400.032 63.2606 400.032 Q66.8948 400.032 68.7004 396.49 Q70.5291 392.925 70.5291 385.819 Q70.5291 378.689 68.7004 375.148 Q66.8948 371.583 63.2606 371.583 M63.2606 367.879 Q69.0707 367.879 72.1263 372.486 Q75.205 377.069 75.205 385.819 Q75.205 394.546 72.1263 399.152 Q69.0707 403.735 63.2606 403.735 Q57.4504 403.735 54.3717 399.152 Q51.3162 394.546 51.3162 385.819 Q51.3162 377.069 54.3717 372.486 Q57.4504 367.879 63.2606 367.879 Z" fill="#000000" fill-rule="nonzero" fill-opacity="1" /><path clip-path="url(#clip570)" d="M83.4225 397.185 L88.3067 397.185 L88.3067 403.064 L83.4225 403.064 L83.4225 397.185 Z" fill="#000000" fill-rule="nonzero" fill-opacity="1" /><path clip-path="url(#clip570)" d="M102.52 399.129 L118.839 399.129 L118.839 403.064 L96.8947 403.064 L96.8947 399.129 Q99.5567 396.374 104.14 391.745 Q108.746 387.092 109.927 385.749 Q112.172 383.226 113.052 381.49 Q113.955 379.731 113.955 378.041 Q113.955 375.287 112.01 373.55 Q110.089 371.814 106.987 371.814 Q104.788 371.814 102.334 372.578 Q99.9039 373.342 97.1261 374.893 L97.1261 370.171 Q99.9502 369.037 102.404 368.458 Q104.858 367.879 106.895 367.879 Q112.265 367.879 115.459 370.564 Q118.654 373.25 118.654 377.74 Q118.654 379.87 117.844 381.791 Q117.057 383.689 114.95 386.282 Q114.371 386.953 111.27 390.171 Q108.168 393.365 102.52 399.129 Z" fill="#000000" fill-rule="nonzero" fill-opacity="1" /><path clip-path="url(#clip570)" d="M138.654 371.583 Q135.043 371.583 133.214 375.148 Q131.408 378.689 131.408 385.819 Q131.408 392.925 133.214 396.49 Q135.043 400.032 138.654 400.032 Q142.288 400.032 144.093 396.49 Q145.922 392.925 145.922 385.819 Q145.922 378.689 144.093 375.148 Q142.288 371.583 138.654 371.583 M138.654 367.879 Q144.464 367.879 147.519 372.486 Q150.598 377.069 150.598 385.819 Q150.598 394.546 147.519 399.152 Q144.464 403.735 138.654 403.735 Q132.844 403.735 129.765 399.152 Q126.709 394.546 126.709 385.819 Q126.709 377.069 129.765 372.486 Q132.844 367.879 138.654 367.879 Z" fill="#000000" fill-rule="nonzero" fill-opacity="1" /><path clip-path="url(#clip570)" d="M169.394 383.921 Q166.246 383.921 164.394 386.074 Q162.566 388.226 162.566 391.976 Q162.566 395.703 164.394 397.879 Q166.246 400.032 169.394 400.032 Q172.542 400.032 174.371 397.879 Q176.223 395.703 176.223 391.976 Q176.223 388.226 174.371 386.074 Q172.542 383.921 169.394 383.921 M178.677 369.268 L178.677 373.527 Q176.917 372.694 175.112 372.254 Q173.329 371.814 171.57 371.814 Q166.941 371.814 164.487 374.939 Q162.056 378.064 161.709 384.384 Q163.075 382.37 165.135 381.305 Q167.195 380.217 169.672 380.217 Q174.88 380.217 177.89 383.388 Q180.922 386.536 180.922 391.976 Q180.922 397.3 177.774 400.518 Q174.626 403.735 169.394 403.735 Q163.399 403.735 160.228 399.152 Q157.056 394.546 157.056 385.819 Q157.056 377.625 160.945 372.763 Q164.834 367.879 171.385 367.879 Q173.144 367.879 174.927 368.226 Q176.732 368.574 178.677 369.268 Z" fill="#000000" fill-rule="nonzero" fill-opacity="1" /><polyline clip-path="url(#clip572)" style="stroke:#009af9; stroke-linecap:round; stroke-linejoin:round; stroke-width:4; stroke-opacity:1; fill:none" points="277.37,87.9763 2292.31,1445.72 "/>
<path clip-path="url(#clip570)" d="M2015.55 198.898 L2281.56 198.898 L2281.56 95.2176 L2015.55 95.2176  Z" fill="#ffffff" fill-rule="evenodd" fill-opacity="1"/>
<polyline clip-path="url(#clip570)" style="stroke:#000000; stroke-linecap:round; stroke-linejoin:round; stroke-width:4; stroke-opacity:1; fill:none" points="2015.55,198.898 2281.56,198.898 2281.56,95.2176 2015.55,95.2176 2015.55,198.898 "/>
<polyline clip-path="url(#clip570)" style="stroke:#009af9; stroke-linecap:round; stroke-linejoin:round; stroke-width:4; stroke-opacity:1; fill:none" points="2039.28,147.058 2181.67,147.058 "/>
<path clip-path="url(#clip570)" d="M2219.24 166.745 Q2217.44 171.375 2215.72 172.787 Q2214.01 174.199 2211.14 174.199 L2207.74 174.199 L2207.74 170.634 L2210.24 170.634 Q2212 170.634 2212.97 169.8 Q2213.94 168.967 2215.12 165.865 L2215.89 163.921 L2205.4 138.412 L2209.91 138.412 L2218.02 158.689 L2226.12 138.412 L2230.63 138.412 L2219.24 166.745 Z" fill="#000000" fill-rule="nonzero" fill-opacity="1" /><path clip-path="url(#clip570)" d="M2237.92 160.402 L2245.56 160.402 L2245.56 134.037 L2237.25 135.703 L2237.25 131.444 L2245.52 129.778 L2250.19 129.778 L2250.19 160.402 L2257.83 160.402 L2257.83 164.338 L2237.92 164.338 L2237.92 160.402 Z" fill="#000000" fill-rule="nonzero" fill-opacity="1" /></svg>
