<?xml version="1.0" encoding="utf-8"?>
<svg xmlns="http://www.w3.org/2000/svg" xmlns:xlink="http://www.w3.org/1999/xlink" width="600" height="400" viewBox="0 0 2400 1600">
<defs>
  <clipPath id="clip860">
    <rect x="0" y="0" width="2400" height="1600"/>
  </clipPath>
</defs>
<path clip-path="url(#clip860)" d="M0 1600 L2400 1600 L2400 0 L0 0  Z" fill="#ffffff" fill-rule="evenodd" fill-opacity="1"/>
<defs>
  <clipPath id="clip861">
    <rect x="480" y="0" width="1681" height="1600"/>
  </clipPath>
</defs>
<path clip-path="url(#clip860)" d="M230.996 1486.45 L2352.76 1486.45 L2352.76 47.2441 L230.996 47.2441  Z" fill="#ffffff" fill-rule="evenodd" fill-opacity="1"/>
<defs>
  <clipPath id="clip862">
    <rect x="230" y="47" width="2123" height="1440"/>
  </clipPath>
</defs>
<polyline clip-path="url(#clip862)" style="stroke:#000000; stroke-linecap:round; stroke-linejoin:round; stroke-width:2; stroke-opacity:0.1; fill:none" points="291.046,1486.45 291.046,47.2441 "/>
<polyline clip-path="url(#clip862)" style="stroke:#000000; stroke-linecap:round; stroke-linejoin:round; stroke-width:2; stroke-opacity:0.1; fill:none" points="791.461,1486.45 791.461,47.2441 "/>
<polyline clip-path="url(#clip862)" style="stroke:#000000; stroke-linecap:round; stroke-linejoin:round; stroke-width:2; stroke-opacity:0.1; fill:none" points="1291.88,1486.45 1291.88,47.2441 "/>
<polyline clip-path="url(#clip862)" style="stroke:#000000; stroke-linecap:round; stroke-linejoin:round; stroke-width:2; stroke-opacity:0.1; fill:none" points="1792.29,1486.45 1792.29,47.2441 "/>
<polyline clip-path="url(#clip862)" style="stroke:#000000; stroke-linecap:round; stroke-linejoin:round; stroke-width:2; stroke-opacity:0.1; fill:none" points="2292.71,1486.45 2292.71,47.2441 "/>
<polyline clip-path="url(#clip860)" style="stroke:#000000; stroke-linecap:round; stroke-linejoin:round; stroke-width:4; stroke-opacity:1; fill:none" points="230.996,1486.45 2352.76,1486.45 "/>
<polyline clip-path="url(#clip860)" style="stroke:#000000; stroke-linecap:round; stroke-linejoin:round; stroke-width:4; stroke-opacity:1; fill:none" points="291.046,1486.45 291.046,1467.55 "/>
<polyline clip-path="url(#clip860)" style="stroke:#000000; stroke-linecap:round; stroke-linejoin:round; stroke-width:4; stroke-opacity:1; fill:none" points="791.461,1486.45 791.461,1467.55 "/>
<polyline clip-path="url(#clip860)" style="stroke:#000000; stroke-linecap:round; stroke-linejoin:round; stroke-width:4; stroke-opacity:1; fill:none" points="1291.88,1486.45 1291.88,1467.55 "/>
<polyline clip-path="url(#clip860)" style="stroke:#000000; stroke-linecap:round; stroke-linejoin:round; stroke-width:4; stroke-opacity:1; fill:none" points="1792.29,1486.45 1792.29,1467.55 "/>
<polyline clip-path="url(#clip860)" style="stroke:#000000; stroke-linecap:round; stroke-linejoin:round; stroke-width:4; stroke-opacity:1; fill:none" points="2292.71,1486.45 2292.71,1467.55 "/>
<path clip-path="url(#clip860)" d="M291.046 1517.37 Q287.435 1517.37 285.606 1520.93 Q283.8 1524.47 283.8 1531.6 Q283.8 1538.71 285.606 1542.27 Q287.435 1545.82 291.046 1545.82 Q294.68 1545.82 296.486 1542.27 Q298.314 1538.71 298.314 1531.6 Q298.314 1524.47 296.486 1520.93 Q294.68 1517.37 291.046 1517.37 M291.046 1513.66 Q296.856 1513.66 299.911 1518.27 Q302.99 1522.85 302.99 1531.6 Q302.99 1540.33 299.911 1544.94 Q296.856 1549.52 291.046 1549.52 Q285.236 1549.52 282.157 1544.94 Q279.101 1540.33 279.101 1531.6 Q279.101 1522.85 282.157 1518.27 Q285.236 1513.66 291.046 1513.66 Z" fill="#000000" fill-rule="nonzero" fill-opacity="1" /><path clip-path="url(#clip860)" d="M751.079 1514.29 L769.436 1514.29 L769.436 1518.22 L755.362 1518.22 L755.362 1526.7 Q756.38 1526.35 757.399 1526.19 Q758.417 1526 759.436 1526 Q765.223 1526 768.602 1529.17 Q771.982 1532.34 771.982 1537.76 Q771.982 1543.34 768.51 1546.44 Q765.037 1549.52 758.718 1549.52 Q756.542 1549.52 754.274 1549.15 Q752.028 1548.78 749.621 1548.04 L749.621 1543.34 Q751.704 1544.47 753.926 1545.03 Q756.149 1545.58 758.625 1545.58 Q762.63 1545.58 764.968 1543.48 Q767.306 1541.37 767.306 1537.76 Q767.306 1534.15 764.968 1532.04 Q762.63 1529.94 758.625 1529.94 Q756.75 1529.94 754.875 1530.35 Q753.024 1530.77 751.079 1531.65 L751.079 1514.29 Z" fill="#000000" fill-rule="nonzero" fill-opacity="1" /><path clip-path="url(#clip860)" d="M791.195 1517.37 Q787.584 1517.37 785.755 1520.93 Q783.949 1524.47 783.949 1531.6 Q783.949 1538.71 785.755 1542.27 Q787.584 1545.82 791.195 1545.82 Q794.829 1545.82 796.634 1542.27 Q798.463 1538.71 798.463 1531.6 Q798.463 1524.47 796.634 1520.93 Q794.829 1517.37 791.195 1517.37 M791.195 1513.66 Q797.005 1513.66 800.06 1518.27 Q803.139 1522.85 803.139 1531.6 Q803.139 1540.33 800.06 1544.94 Q797.005 1549.52 791.195 1549.52 Q785.385 1549.52 782.306 1544.94 Q779.25 1540.33 779.25 1531.6 Q779.25 1522.85 782.306 1518.27 Q785.385 1513.66 791.195 1513.66 Z" fill="#000000" fill-rule="nonzero" fill-opacity="1" /><path clip-path="url(#clip860)" d="M821.357 1517.37 Q817.745 1517.37 815.917 1520.93 Q814.111 1524.47 814.111 1531.6 Q814.111 1538.71 815.917 1542.27 Q817.745 1545.82 821.357 1545.82 Q824.991 1545.82 826.796 1542.27 Q828.625 1538.71 828.625 1531.6 Q828.625 1524.47 826.796 1520.93 Q824.991 1517.37 821.357 1517.37 M821.357 1513.66 Q827.167 1513.66 830.222 1518.27 Q833.301 1522.85 833.301 1531.6 Q833.301 1540.33 830.222 1544.94 Q827.167 1549.52 821.357 1549.52 Q815.546 1549.52 812.468 1544.94 Q809.412 1540.33 809.412 1531.6 Q809.412 1522.85 812.468 1518.27 Q815.546 1513.66 821.357 1513.66 Z" fill="#000000" fill-rule="nonzero" fill-opacity="1" /><path clip-path="url(#clip860)" d="M1236.4 1544.91 L1244.04 1544.91 L1244.04 1518.55 L1235.73 1520.21 L1235.73 1515.95 L1243.99 1514.29 L1248.67 1514.29 L1248.67 1544.91 L1256.31 1544.91 L1256.31 1548.85 L1236.4 1548.85 L1236.4 1544.91 Z" fill="#000000" fill-rule="nonzero" fill-opacity="1" /><path clip-path="url(#clip860)" d="M1275.75 1517.37 Q1272.14 1517.37 1270.31 1520.93 Q1268.51 1524.47 1268.51 1531.6 Q1268.51 1538.71 1270.31 1542.27 Q1272.14 1545.82 1275.75 1545.82 Q1279.39 1545.82 1281.19 1542.27 Q1283.02 1538.71 1283.02 1531.6 Q1283.02 1524.47 1281.19 1520.93 Q1279.39 1517.37 1275.75 1517.37 M1275.75 1513.66 Q1281.56 1513.66 1284.62 1518.27 Q1287.7 1522.85 1287.7 1531.6 Q1287.7 1540.33 1284.62 1544.94 Q1281.56 1549.52 1275.75 1549.52 Q1269.94 1549.52 1266.86 1544.94 Q1263.81 1540.33 1263.81 1531.6 Q1263.81 1522.85 1266.86 1518.27 Q1269.94 1513.66 1275.75 1513.66 Z" fill="#000000" fill-rule="nonzero" fill-opacity="1" /><path clip-path="url(#clip860)" d="M1305.92 1517.37 Q1302.3 1517.37 1300.48 1520.93 Q1298.67 1524.47 1298.67 1531.6 Q1298.67 1538.71 1300.48 1542.27 Q1302.3 1545.82 1305.92 1545.82 Q1309.55 1545.82 1311.36 1542.27 Q1313.18 1538.71 1313.18 1531.6 Q1313.18 1524.47 1311.36 1520.93 Q1309.55 1517.37 1305.92 1517.37 M1305.92 1513.66 Q1311.73 1513.66 1314.78 1518.27 Q1317.86 1522.85 1317.86 1531.6 Q1317.86 1540.33 1314.78 1544.94 Q1311.73 1549.52 1305.92 1549.52 Q1300.11 1549.52 1297.03 1544.94 Q1293.97 1540.33 1293.97 1531.6 Q1293.97 1522.85 1297.03 1518.27 Q1300.11 1513.66 1305.92 1513.66 Z" fill="#000000" fill-rule="nonzero" fill-opacity="1" /><path clip-path="url(#clip860)" d="M1336.08 1517.37 Q1332.47 1517.37 1330.64 1520.93 Q1328.83 1524.47 1328.83 1531.6 Q1328.83 1538.71 1330.64 1542.27 Q1332.47 1545.82 1336.08 1545.82 Q1339.71 1545.82 1341.52 1542.27 Q1343.35 1538.71 1343.35 1531.6 Q1343.35 1524.47 1341.52 1520.93 Q1339.71 1517.37 1336.08 1517.37 M1336.08 1513.66 Q1341.89 1513.66 1344.94 1518.27 Q1348.02 1522.85 1348.02 1531.6 Q1348.02 1540.33 1344.94 1544.94 Q1341.89 1549.52 1336.08 1549.52 Q1330.27 1549.52 1327.19 1544.94 Q1324.13 1540.33 1324.13 1531.6 Q1324.13 1522.85 1327.19 1518.27 Q1330.27 1513.66 1336.08 1513.66 Z" fill="#000000" fill-rule="nonzero" fill-opacity="1" /><path clip-path="url(#clip860)" d="M1736.82 1544.91 L1744.46 1544.91 L1744.46 1518.55 L1736.15 1520.21 L1736.15 1515.95 L1744.41 1514.29 L1749.09 1514.29 L1749.09 1544.91 L1756.72 1544.91 L1756.72 1548.85 L1736.82 1548.85 L1736.82 1544.91 Z" fill="#000000" fill-rule="nonzero" fill-opacity="1" /><path clip-path="url(#clip860)" d="M1766.21 1514.29 L1784.57 1514.29 L1784.57 1518.22 L1770.5 1518.22 L1770.5 1526.7 Q1771.52 1526.35 1772.53 1526.19 Q1773.55 1526 1774.57 1526 Q1780.36 1526 1783.74 1529.17 Q1787.12 1532.34 1787.12 1537.76 Q1787.12 1543.34 1783.65 1546.44 Q1780.17 1549.52 1773.85 1549.52 Q1771.68 1549.52 1769.41 1549.15 Q1767.16 1548.78 1764.76 1548.04 L1764.76 1543.34 Q1766.84 1544.47 1769.06 1545.03 Q1771.28 1545.58 1773.76 1545.58 Q1777.77 1545.58 1780.1 1543.48 Q1782.44 1541.37 1782.44 1537.76 Q1782.44 1534.15 1780.1 1532.04 Q1777.77 1529.94 1773.76 1529.94 Q1771.89 1529.94 1770.01 1530.35 Q1768.16 1530.77 1766.21 1531.65 L1766.21 1514.29 Z" fill="#000000" fill-rule="nonzero" fill-opacity="1" /><path clip-path="url(#clip860)" d="M1806.33 1517.37 Q1802.72 1517.37 1800.89 1520.93 Q1799.08 1524.47 1799.08 1531.6 Q1799.08 1538.71 1800.89 1542.27 Q1802.72 1545.82 1806.33 1545.82 Q1809.96 1545.82 1811.77 1542.27 Q1813.6 1538.71 1813.6 1531.6 Q1813.6 1524.47 1811.77 1520.93 Q1809.96 1517.37 1806.33 1517.37 M1806.33 1513.66 Q1812.14 1513.66 1815.2 1518.27 Q1818.27 1522.85 1818.27 1531.6 Q1818.27 1540.33 1815.2 1544.94 Q1812.14 1549.52 1806.33 1549.52 Q1800.52 1549.52 1797.44 1544.94 Q1794.39 1540.33 1794.39 1531.6 Q1794.39 1522.85 1797.44 1518.27 Q1800.52 1513.66 1806.33 1513.66 Z" fill="#000000" fill-rule="nonzero" fill-opacity="1" /><path clip-path="url(#clip860)" d="M1836.49 1517.37 Q1832.88 1517.37 1831.05 1520.93 Q1829.25 1524.47 1829.25 1531.6 Q1829.25 1538.71 1831.05 1542.27 Q1832.88 1545.82 1836.49 1545.82 Q1840.13 1545.82 1841.93 1542.27 Q1843.76 1538.71 1843.76 1531.6 Q1843.76 1524.47 1841.93 1520.93 Q1840.13 1517.37 1836.49 1517.37 M1836.49 1513.66 Q1842.3 1513.66 1845.36 1518.27 Q1848.44 1522.85 1848.44 1531.6 Q1848.44 1540.33 1845.36 1544.94 Q1842.3 1549.52 1836.49 1549.52 Q1830.68 1549.52 1827.6 1544.94 Q1824.55 1540.33 1824.55 1531.6 Q1824.55 1522.85 1827.6 1518.27 Q1830.68 1513.66 1836.49 1513.66 Z" fill="#000000" fill-rule="nonzero" fill-opacity="1" /><path clip-path="url(#clip860)" d="M2241.32 1544.91 L2257.64 1544.91 L2257.64 1548.85 L2235.69 1548.85 L2235.69 1544.91 Q2238.35 1542.16 2242.94 1537.53 Q2247.54 1532.88 2248.72 1531.53 Q2250.97 1529.01 2251.85 1527.27 Q2252.75 1525.51 2252.75 1523.82 Q2252.75 1521.07 2250.81 1519.33 Q2248.89 1517.6 2245.79 1517.6 Q2243.59 1517.6 2241.13 1518.36 Q2238.7 1519.13 2235.92 1520.68 L2235.92 1515.95 Q2238.75 1514.82 2241.2 1514.24 Q2243.66 1513.66 2245.69 1513.66 Q2251.06 1513.66 2254.26 1516.35 Q2257.45 1519.03 2257.45 1523.52 Q2257.45 1525.65 2256.64 1527.57 Q2255.85 1529.47 2253.75 1532.07 Q2253.17 1532.74 2250.07 1535.95 Q2246.97 1539.15 2241.32 1544.91 Z" fill="#000000" fill-rule="nonzero" fill-opacity="1" /><path clip-path="url(#clip860)" d="M2277.45 1517.37 Q2273.84 1517.37 2272.01 1520.93 Q2270.21 1524.47 2270.21 1531.6 Q2270.21 1538.71 2272.01 1542.27 Q2273.84 1545.82 2277.45 1545.82 Q2281.09 1545.82 2282.89 1542.27 Q2284.72 1538.71 2284.72 1531.6 Q2284.72 1524.47 2282.89 1520.93 Q2281.09 1517.37 2277.45 1517.37 M2277.45 1513.66 Q2283.26 1513.66 2286.32 1518.27 Q2289.4 1522.85 2289.4 1531.6 Q2289.4 1540.33 2286.32 1544.94 Q2283.26 1549.52 2277.45 1549.52 Q2271.64 1549.52 2268.56 1544.94 Q2265.51 1540.33 2265.51 1531.6 Q2265.51 1522.85 2268.56 1518.27 Q2271.64 1513.66 2277.45 1513.66 Z" fill="#000000" fill-rule="nonzero" fill-opacity="1" /><path clip-path="url(#clip860)" d="M2307.61 1517.37 Q2304 1517.37 2302.17 1520.93 Q2300.37 1524.47 2300.37 1531.6 Q2300.37 1538.71 2302.17 1542.27 Q2304 1545.82 2307.61 1545.82 Q2311.25 1545.82 2313.05 1542.27 Q2314.88 1538.71 2314.88 1531.6 Q2314.88 1524.47 2313.05 1520.93 Q2311.25 1517.37 2307.61 1517.37 M2307.61 1513.66 Q2313.42 1513.66 2316.48 1518.27 Q2319.56 1522.85 2319.56 1531.6 Q2319.56 1540.33 2316.48 1544.94 Q2313.42 1549.52 2307.61 1549.52 Q2301.8 1549.52 2298.72 1544.94 Q2295.67 1540.33 2295.67 1531.6 Q2295.67 1522.85 2298.72 1518.27 Q2301.8 1513.66 2307.61 1513.66 Z" fill="#000000" fill-rule="nonzero" fill-opacity="1" /><path clip-path="url(#clip860)" d="M2337.78 1517.37 Q2334.16 1517.37 2332.34 1520.93 Q2330.53 1524.47 2330.53 1531.6 Q2330.53 1538.71 2332.34 1542.27 Q2334.16 1545.82 2337.78 1545.82 Q2341.41 1545.82 2343.22 1542.27 Q2345.04 1538.71 2345.04 1531.6 Q2345.04 1524.47 2343.22 1520.93 Q2341.41 1517.37 2337.78 1517.37 M2337.78 1513.66 Q2343.59 1513.66 2346.64 1518.27 Q2349.72 1522.85 2349.72 1531.6 Q2349.72 1540.33 2346.64 1544.94 Q2343.59 1549.52 2337.78 1549.52 Q2331.97 1549.52 2328.89 1544.94 Q2325.83 1540.33 2325.83 1531.6 Q2325.83 1522.85 2328.89 1518.27 Q2331.97 1513.66 2337.78 1513.66 Z" fill="#000000" fill-rule="nonzero" fill-opacity="1" /><polyline clip-path="url(#clip862)" style="stroke:#000000; stroke-linecap:round; stroke-linejoin:round; stroke-width:2; stroke-opacity:0.1; fill:none" points="230.996,1373.85 2352.76,1373.85 "/>
<polyline clip-path="url(#clip862)" style="stroke:#000000; stroke-linecap:round; stroke-linejoin:round; stroke-width:2; stroke-opacity:0.1; fill:none" points="230.996,1159.87 2352.76,1159.87 "/>
<polyline clip-path="url(#clip862)" style="stroke:#000000; stroke-linecap:round; stroke-linejoin:round; stroke-width:2; stroke-opacity:0.1; fill:none" points="230.996,945.883 2352.76,945.883 "/>
<polyline clip-path="url(#clip862)" style="stroke:#000000; stroke-linecap:round; stroke-linejoin:round; stroke-width:2; stroke-opacity:0.1; fill:none" points="230.996,731.898 2352.76,731.898 "/>
<polyline clip-path="url(#clip862)" style="stroke:#000000; stroke-linecap:round; stroke-linejoin:round; stroke-width:2; stroke-opacity:0.1; fill:none" points="230.996,517.914 2352.76,517.914 "/>
<polyline clip-path="url(#clip862)" style="stroke:#000000; stroke-linecap:round; stroke-linejoin:round; stroke-width:2; stroke-opacity:0.1; fill:none" points="230.996,303.929 2352.76,303.929 "/>
<polyline clip-path="url(#clip862)" style="stroke:#000000; stroke-linecap:round; stroke-linejoin:round; stroke-width:2; stroke-opacity:0.1; fill:none" points="230.996,89.9439 2352.76,89.9439 "/>
<polyline clip-path="url(#clip860)" style="stroke:#000000; stroke-linecap:round; stroke-linejoin:round; stroke-width:4; stroke-opacity:1; fill:none" points="230.996,1486.45 230.996,47.2441 "/>
<polyline clip-path="url(#clip860)" style="stroke:#000000; stroke-linecap:round; stroke-linejoin:round; stroke-width:4; stroke-opacity:1; fill:none" points="230.996,1373.85 249.894,1373.85 "/>
<polyline clip-path="url(#clip860)" style="stroke:#000000; stroke-linecap:round; stroke-linejoin:round; stroke-width:4; stroke-opacity:1; fill:none" points="230.996,1159.87 249.894,1159.87 "/>
<polyline clip-path="url(#clip860)" style="stroke:#000000; stroke-linecap:round; stroke-linejoin:round; stroke-width:4; stroke-opacity:1; fill:none" points="230.996,945.883 249.894,945.883 "/>
<polyline clip-path="url(#clip860)" style="stroke:#000000; stroke-linecap:round; stroke-linejoin:round; stroke-width:4; stroke-opacity:1; fill:none" points="230.996,731.898 249.894,731.898 "/>
<polyline clip-path="url(#clip860)" style="stroke:#000000; stroke-linecap:round; stroke-linejoin:round; stroke-width:4; stroke-opacity:1; fill:none" points="230.996,517.914 249.894,517.914 "/>
<polyline clip-path="url(#clip860)" style="stroke:#000000; stroke-linecap:round; stroke-linejoin:round; stroke-width:4; stroke-opacity:1; fill:none" points="230.996,303.929 249.894,303.929 "/>
<polyline clip-path="url(#clip860)" style="stroke:#000000; stroke-linecap:round; stroke-linejoin:round; stroke-width:4; stroke-opacity:1; fill:none" points="230.996,89.9439 249.894,89.9439 "/>
<path clip-path="url(#clip860)" d="M52.4505 1356.57 L70.8068 1356.57 L70.8068 1360.51 L56.7328 1360.51 L56.7328 1368.98 Q57.7513 1368.63 58.7699 1368.47 Q59.7884 1368.29 60.8069 1368.29 Q66.5939 1368.29 69.9735 1371.46 Q73.3531 1374.63 73.3531 1380.04 Q73.3531 1385.62 69.8809 1388.73 Q66.4087 1391.8 60.0893 1391.8 Q57.9134 1391.8 55.6449 1391.43 Q53.3995 1391.06 50.9921 1390.32 L50.9921 1385.62 Q53.0754 1386.76 55.2977 1387.31 Q57.5199 1387.87 59.9967 1387.87 Q64.0013 1387.87 66.3393 1385.76 Q68.6772 1383.66 68.6772 1380.04 Q68.6772 1376.43 66.3393 1374.33 Q64.0013 1372.22 59.9967 1372.22 Q58.1217 1372.22 56.2467 1372.64 Q54.3949 1373.05 52.4505 1373.93 L52.4505 1356.57 Z" fill="#000000" fill-rule="nonzero" fill-opacity="1" /><path clip-path="url(#clip860)" d="M92.566 1359.65 Q88.9549 1359.65 87.1262 1363.22 Q85.3206 1366.76 85.3206 1373.89 Q85.3206 1380.99 87.1262 1384.56 Q88.9549 1388.1 92.566 1388.1 Q96.2002 1388.1 98.0058 1384.56 Q99.8345 1380.99 99.8345 1373.89 Q99.8345 1366.76 98.0058 1363.22 Q96.2002 1359.65 92.566 1359.65 M92.566 1355.95 Q98.3761 1355.95 101.432 1360.55 Q104.51 1365.14 104.51 1373.89 Q104.51 1382.61 101.432 1387.22 Q98.3761 1391.8 92.566 1391.8 Q86.7558 1391.8 83.6771 1387.22 Q80.6216 1382.61 80.6216 1373.89 Q80.6216 1365.14 83.6771 1360.55 Q86.7558 1355.95 92.566 1355.95 Z" fill="#000000" fill-rule="nonzero" fill-opacity="1" /><path clip-path="url(#clip860)" d="M112.774 1356.57 L131.131 1356.57 L131.131 1360.51 L117.057 1360.51 L117.057 1368.98 Q118.075 1368.63 119.094 1368.47 Q120.112 1368.29 121.131 1368.29 Q126.918 1368.29 130.297 1371.46 Q133.677 1374.63 133.677 1380.04 Q133.677 1385.62 130.205 1388.73 Q126.732 1391.8 120.413 1391.8 Q118.237 1391.8 115.969 1391.43 Q113.723 1391.06 111.316 1390.32 L111.316 1385.62 Q113.399 1386.76 115.621 1387.31 Q117.844 1387.87 120.32 1387.87 Q124.325 1387.87 126.663 1385.76 Q129.001 1383.66 129.001 1380.04 Q129.001 1376.43 126.663 1374.33 Q124.325 1372.22 120.32 1372.22 Q118.445 1372.22 116.57 1372.64 Q114.719 1373.05 112.774 1373.93 L112.774 1356.57 Z" fill="#000000" fill-rule="nonzero" fill-opacity="1" /><path clip-path="url(#clip860)" d="M152.89 1359.65 Q149.279 1359.65 147.45 1363.22 Q145.644 1366.76 145.644 1373.89 Q145.644 1380.99 147.45 1384.56 Q149.279 1388.1 152.89 1388.1 Q156.524 1388.1 158.33 1384.56 Q160.158 1380.99 160.158 1373.89 Q160.158 1366.76 158.33 1363.22 Q156.524 1359.65 152.89 1359.65 M152.89 1355.95 Q158.7 1355.95 161.755 1360.55 Q164.834 1365.14 164.834 1373.89 Q164.834 1382.61 161.755 1387.22 Q158.7 1391.8 152.89 1391.8 Q147.08 1391.8 144.001 1387.22 Q140.945 1382.61 140.945 1373.89 Q140.945 1365.14 144.001 1360.55 Q147.08 1355.95 152.89 1355.95 Z" fill="#000000" fill-rule="nonzero" fill-opacity="1" /><path clip-path="url(#clip860)" d="M183.052 1359.65 Q179.441 1359.65 177.612 1363.22 Q175.806 1366.76 175.806 1373.89 Q175.806 1380.99 177.612 1384.56 Q179.441 1388.1 183.052 1388.1 Q186.686 1388.1 188.491 1384.56 Q190.32 1380.99 190.32 1373.89 Q190.32 1366.76 188.491 1363.22 Q186.686 1359.65 183.052 1359.65 M183.052 1355.95 Q188.862 1355.95 191.917 1360.55 Q194.996 1365.14 194.996 1373.89 Q194.996 1382.61 191.917 1387.22 Q188.862 1391.8 183.052 1391.8 Q177.241 1391.8 174.163 1387.22 Q171.107 1382.61 171.107 1373.89 Q171.107 1365.14 174.163 1360.55 Q177.241 1355.95 183.052 1355.95 Z" fill="#000000" fill-rule="nonzero" fill-opacity="1" /><path clip-path="url(#clip860)" d="M52.4505 1142.59 L70.8068 1142.59 L70.8068 1146.52 L56.7328 1146.52 L56.7328 1155 Q57.7513 1154.65 58.7699 1154.49 Q59.7884 1154.3 60.8069 1154.3 Q66.5939 1154.3 69.9735 1157.47 Q73.3531 1160.64 73.3531 1166.06 Q73.3531 1171.64 69.8809 1174.74 Q66.4087 1177.82 60.0893 1177.82 Q57.9134 1177.82 55.6449 1177.45 Q53.3995 1177.08 50.9921 1176.34 L50.9921 1171.64 Q53.0754 1172.77 55.2977 1173.33 Q57.5199 1173.88 59.9967 1173.88 Q64.0013 1173.88 66.3393 1171.78 Q68.6772 1169.67 68.6772 1166.06 Q68.6772 1162.45 66.3393 1160.34 Q64.0013 1158.24 59.9967 1158.24 Q58.1217 1158.24 56.2467 1158.65 Q54.3949 1159.07 52.4505 1159.95 L52.4505 1142.59 Z" fill="#000000" fill-rule="nonzero" fill-opacity="1" /><path clip-path="url(#clip860)" d="M83.3762 1173.21 L91.0151 1173.21 L91.0151 1146.85 L82.7049 1148.51 L82.7049 1144.25 L90.9688 1142.59 L95.6447 1142.59 L95.6447 1173.21 L103.284 1173.21 L103.284 1177.15 L83.3762 1177.15 L83.3762 1173.21 Z" fill="#000000" fill-rule="nonzero" fill-opacity="1" /><path clip-path="url(#clip860)" d="M122.728 1145.67 Q119.117 1145.67 117.288 1149.23 Q115.483 1152.77 115.483 1159.9 Q115.483 1167.01 117.288 1170.57 Q119.117 1174.12 122.728 1174.12 Q126.362 1174.12 128.168 1170.57 Q129.996 1167.01 129.996 1159.9 Q129.996 1152.77 128.168 1149.23 Q126.362 1145.67 122.728 1145.67 M122.728 1141.96 Q128.538 1141.96 131.594 1146.57 Q134.672 1151.15 134.672 1159.9 Q134.672 1168.63 131.594 1173.24 Q128.538 1177.82 122.728 1177.82 Q116.918 1177.82 113.839 1173.24 Q110.783 1168.63 110.783 1159.9 Q110.783 1151.15 113.839 1146.57 Q116.918 1141.96 122.728 1141.96 Z" fill="#000000" fill-rule="nonzero" fill-opacity="1" /><path clip-path="url(#clip860)" d="M152.89 1145.67 Q149.279 1145.67 147.45 1149.23 Q145.644 1152.77 145.644 1159.9 Q145.644 1167.01 147.45 1170.57 Q149.279 1174.12 152.89 1174.12 Q156.524 1174.12 158.33 1170.57 Q160.158 1167.01 160.158 1159.9 Q160.158 1152.77 158.33 1149.23 Q156.524 1145.67 152.89 1145.67 M152.89 1141.96 Q158.7 1141.96 161.755 1146.57 Q164.834 1151.15 164.834 1159.9 Q164.834 1168.63 161.755 1173.24 Q158.7 1177.82 152.89 1177.82 Q147.08 1177.82 144.001 1173.24 Q140.945 1168.63 140.945 1159.9 Q140.945 1151.15 144.001 1146.57 Q147.08 1141.96 152.89 1141.96 Z" fill="#000000" fill-rule="nonzero" fill-opacity="1" /><path clip-path="url(#clip860)" d="M183.052 1145.67 Q179.441 1145.67 177.612 1149.23 Q175.806 1152.77 175.806 1159.9 Q175.806 1167.01 177.612 1170.57 Q179.441 1174.12 183.052 1174.12 Q186.686 1174.12 188.491 1170.57 Q190.32 1167.01 190.32 1159.9 Q190.32 1152.77 188.491 1149.23 Q186.686 1145.67 183.052 1145.67 M183.052 1141.96 Q188.862 1141.96 191.917 1146.57 Q194.996 1151.15 194.996 1159.9 Q194.996 1168.63 191.917 1173.24 Q188.862 1177.82 183.052 1177.82 Q177.241 1177.82 174.163 1173.24 Q171.107 1168.63 171.107 1159.9 Q171.107 1151.15 174.163 1146.57 Q177.241 1141.96 183.052 1141.96 Z" fill="#000000" fill-rule="nonzero" fill-opacity="1" /><path clip-path="url(#clip860)" d="M52.4505 928.603 L70.8068 928.603 L70.8068 932.538 L56.7328 932.538 L56.7328 941.011 Q57.7513 940.663 58.7699 940.501 Q59.7884 940.316 60.8069 940.316 Q66.5939 940.316 69.9735 943.487 Q73.3531 946.659 73.3531 952.075 Q73.3531 957.654 69.8809 960.756 Q66.4087 963.835 60.0893 963.835 Q57.9134 963.835 55.6449 963.464 Q53.3995 963.094 50.9921 962.353 L50.9921 957.654 Q53.0754 958.788 55.2977 959.344 Q57.5199 959.899 59.9967 959.899 Q64.0013 959.899 66.3393 957.793 Q68.6772 955.686 68.6772 952.075 Q68.6772 948.464 66.3393 946.358 Q64.0013 944.251 59.9967 944.251 Q58.1217 944.251 56.2467 944.668 Q54.3949 945.085 52.4505 945.964 L52.4505 928.603 Z" fill="#000000" fill-rule="nonzero" fill-opacity="1" /><path clip-path="url(#clip860)" d="M83.3762 959.228 L91.0151 959.228 L91.0151 932.862 L82.7049 934.529 L82.7049 930.27 L90.9688 928.603 L95.6447 928.603 L95.6447 959.228 L103.284 959.228 L103.284 963.163 L83.3762 963.163 L83.3762 959.228 Z" fill="#000000" fill-rule="nonzero" fill-opacity="1" /><path clip-path="url(#clip860)" d="M112.774 928.603 L131.131 928.603 L131.131 932.538 L117.057 932.538 L117.057 941.011 Q118.075 940.663 119.094 940.501 Q120.112 940.316 121.131 940.316 Q126.918 940.316 130.297 943.487 Q133.677 946.659 133.677 952.075 Q133.677 957.654 130.205 960.756 Q126.732 963.835 120.413 963.835 Q118.237 963.835 115.969 963.464 Q113.723 963.094 111.316 962.353 L111.316 957.654 Q113.399 958.788 115.621 959.344 Q117.844 959.899 120.32 959.899 Q124.325 959.899 126.663 957.793 Q129.001 955.686 129.001 952.075 Q129.001 948.464 126.663 946.358 Q124.325 944.251 120.32 944.251 Q118.445 944.251 116.57 944.668 Q114.719 945.085 112.774 945.964 L112.774 928.603 Z" fill="#000000" fill-rule="nonzero" fill-opacity="1" /><path clip-path="url(#clip860)" d="M152.89 931.682 Q149.279 931.682 147.45 935.247 Q145.644 938.788 145.644 945.918 Q145.644 953.024 147.45 956.589 Q149.279 960.131 152.89 960.131 Q156.524 960.131 158.33 956.589 Q160.158 953.024 160.158 945.918 Q160.158 938.788 158.33 935.247 Q156.524 931.682 152.89 931.682 M152.89 927.978 Q158.7 927.978 161.755 932.585 Q164.834 937.168 164.834 945.918 Q164.834 954.645 161.755 959.251 Q158.7 963.835 152.89 963.835 Q147.08 963.835 144.001 959.251 Q140.945 954.645 140.945 945.918 Q140.945 937.168 144.001 932.585 Q147.08 927.978 152.89 927.978 Z" fill="#000000" fill-rule="nonzero" fill-opacity="1" /><path clip-path="url(#clip860)" d="M183.052 931.682 Q179.441 931.682 177.612 935.247 Q175.806 938.788 175.806 945.918 Q175.806 953.024 177.612 956.589 Q179.441 960.131 183.052 960.131 Q186.686 960.131 188.491 956.589 Q190.32 953.024 190.32 945.918 Q190.32 938.788 188.491 935.247 Q186.686 931.682 183.052 931.682 M183.052 927.978 Q188.862 927.978 191.917 932.585 Q194.996 937.168 194.996 945.918 Q194.996 954.645 191.917 959.251 Q188.862 963.835 183.052 963.835 Q177.241 963.835 174.163 959.251 Q171.107 954.645 171.107 945.918 Q171.107 937.168 174.163 932.585 Q177.241 927.978 183.052 927.978 Z" fill="#000000" fill-rule="nonzero" fill-opacity="1" /><path clip-path="url(#clip860)" d="M52.4505 714.618 L70.8068 714.618 L70.8068 718.554 L56.7328 718.554 L56.7328 727.026 Q57.7513 726.679 58.7699 726.516 Q59.7884 726.331 60.8069 726.331 Q66.5939 726.331 69.9735 729.503 Q73.3531 732.674 73.3531 738.09 Q73.3531 743.669 69.8809 746.771 Q66.4087 749.85 60.0893 749.85 Q57.9134 749.85 55.6449 749.479 Q53.3995 749.109 50.9921 748.368 L50.9921 743.669 Q53.0754 744.803 55.2977 745.359 Q57.5199 745.915 59.9967 745.915 Q64.0013 745.915 66.3393 743.808 Q68.6772 741.702 68.6772 738.09 Q68.6772 734.479 66.3393 732.373 Q64.0013 730.266 59.9967 730.266 Q58.1217 730.266 56.2467 730.683 Q54.3949 731.1 52.4505 731.979 L52.4505 714.618 Z" fill="#000000" fill-rule="nonzero" fill-opacity="1" /><path clip-path="url(#clip860)" d="M86.5938 745.243 L102.913 745.243 L102.913 749.178 L80.9688 749.178 L80.9688 745.243 Q83.6308 742.489 88.2141 737.859 Q92.8206 733.206 94.0012 731.864 Q96.2465 729.341 97.1261 727.604 Q98.0289 725.845 98.0289 724.155 Q98.0289 721.401 96.0845 719.665 Q94.1632 717.929 91.0614 717.929 Q88.8623 717.929 86.4086 718.692 Q83.9781 719.456 81.2003 721.007 L81.2003 716.285 Q84.0244 715.151 86.478 714.572 Q88.9317 713.993 90.9688 713.993 Q96.3391 713.993 99.5335 716.679 Q102.728 719.364 102.728 723.854 Q102.728 725.984 101.918 727.905 Q101.131 729.804 99.0243 732.396 Q98.4456 733.067 95.3437 736.285 Q92.2419 739.479 86.5938 745.243 Z" fill="#000000" fill-rule="nonzero" fill-opacity="1" /><path clip-path="url(#clip860)" d="M122.728 717.697 Q119.117 717.697 117.288 721.262 Q115.483 724.804 115.483 731.933 Q115.483 739.04 117.288 742.604 Q119.117 746.146 122.728 746.146 Q126.362 746.146 128.168 742.604 Q129.996 739.04 129.996 731.933 Q129.996 724.804 128.168 721.262 Q126.362 717.697 122.728 717.697 M122.728 713.993 Q128.538 713.993 131.594 718.6 Q134.672 723.183 134.672 731.933 Q134.672 740.66 131.594 745.266 Q128.538 749.85 122.728 749.85 Q116.918 749.85 113.839 745.266 Q110.783 740.66 110.783 731.933 Q110.783 723.183 113.839 718.6 Q116.918 713.993 122.728 713.993 Z" fill="#000000" fill-rule="nonzero" fill-opacity="1" /><path clip-path="url(#clip860)" d="M152.89 717.697 Q149.279 717.697 147.45 721.262 Q145.644 724.804 145.644 731.933 Q145.644 739.04 147.45 742.604 Q149.279 746.146 152.89 746.146 Q156.524 746.146 158.33 742.604 Q160.158 739.04 160.158 731.933 Q160.158 724.804 158.33 721.262 Q156.524 717.697 152.89 717.697 M152.89 713.993 Q158.7 713.993 161.755 718.6 Q164.834 723.183 164.834 731.933 Q164.834 740.66 161.755 745.266 Q158.7 749.85 152.89 749.85 Q147.08 749.85 144.001 745.266 Q140.945 740.66 140.945 731.933 Q140.945 723.183 144.001 718.6 Q147.08 713.993 152.89 713.993 Z" fill="#000000" fill-rule="nonzero" fill-opacity="1" /><path clip-path="url(#clip860)" d="M183.052 717.697 Q179.441 717.697 177.612 721.262 Q175.806 724.804 175.806 731.933 Q175.806 739.04 177.612 742.604 Q179.441 746.146 183.052 746.146 Q186.686 746.146 188.491 742.604 Q190.32 739.04 190.32 731.933 Q190.32 724.804 188.491 721.262 Q186.686 717.697 183.052 717.697 M183.052 713.993 Q188.862 713.993 191.917 718.6 Q194.996 723.183 194.996 731.933 Q194.996 740.66 191.917 745.266 Q188.862 749.85 183.052 749.85 Q177.241 749.85 174.163 745.266 Q171.107 740.66 171.107 731.933 Q171.107 723.183 174.163 718.6 Q177.241 713.993 183.052 713.993 Z" fill="#000000" fill-rule="nonzero" fill-opacity="1" /><path clip-path="url(#clip860)" d="M52.4505 500.634 L70.8068 500.634 L70.8068 504.569 L56.7328 504.569 L56.7328 513.041 Q57.7513 512.694 58.7699 512.532 Q59.7884 512.346 60.8069 512.346 Q66.5939 512.346 69.9735 515.518 Q73.3531 518.689 73.3531 524.106 Q73.3531 529.684 69.8809 532.786 Q66.4087 535.865 60.0893 535.865 Q57.9134 535.865 55.6449 535.494 Q53.3995 535.124 50.9921 534.383 L50.9921 529.684 Q53.0754 530.819 55.2977 531.374 Q57.5199 531.93 59.9967 531.93 Q64.0013 531.93 66.3393 529.823 Q68.6772 527.717 68.6772 524.106 Q68.6772 520.495 66.3393 518.388 Q64.0013 516.282 59.9967 516.282 Q58.1217 516.282 56.2467 516.698 Q54.3949 517.115 52.4505 517.995 L52.4505 500.634 Z" fill="#000000" fill-rule="nonzero" fill-opacity="1" /><path clip-path="url(#clip860)" d="M86.5938 531.258 L102.913 531.258 L102.913 535.194 L80.9688 535.194 L80.9688 531.258 Q83.6308 528.504 88.2141 523.874 Q92.8206 519.221 94.0012 517.879 Q96.2465 515.356 97.1261 513.62 Q98.0289 511.86 98.0289 510.171 Q98.0289 507.416 96.0845 505.68 Q94.1632 503.944 91.0614 503.944 Q88.8623 503.944 86.4086 504.708 Q83.9781 505.472 81.2003 507.022 L81.2003 502.3 Q84.0244 501.166 86.478 500.587 Q88.9317 500.009 90.9688 500.009 Q96.3391 500.009 99.5335 502.694 Q102.728 505.379 102.728 509.87 Q102.728 511.999 101.918 513.921 Q101.131 515.819 99.0243 518.411 Q98.4456 519.083 95.3437 522.3 Q92.2419 525.495 86.5938 531.258 Z" fill="#000000" fill-rule="nonzero" fill-opacity="1" /><path clip-path="url(#clip860)" d="M112.774 500.634 L131.131 500.634 L131.131 504.569 L117.057 504.569 L117.057 513.041 Q118.075 512.694 119.094 512.532 Q120.112 512.346 121.131 512.346 Q126.918 512.346 130.297 515.518 Q133.677 518.689 133.677 524.106 Q133.677 529.684 130.205 532.786 Q126.732 535.865 120.413 535.865 Q118.237 535.865 115.969 535.494 Q113.723 535.124 111.316 534.383 L111.316 529.684 Q113.399 530.819 115.621 531.374 Q117.844 531.93 120.32 531.93 Q124.325 531.93 126.663 529.823 Q129.001 527.717 129.001 524.106 Q129.001 520.495 126.663 518.388 Q124.325 516.282 120.32 516.282 Q118.445 516.282 116.57 516.698 Q114.719 517.115 112.774 517.995 L112.774 500.634 Z" fill="#000000" fill-rule="nonzero" fill-opacity="1" /><path clip-path="url(#clip860)" d="M152.89 503.712 Q149.279 503.712 147.45 507.277 Q145.644 510.819 145.644 517.948 Q145.644 525.055 147.45 528.62 Q149.279 532.161 152.89 532.161 Q156.524 532.161 158.33 528.62 Q160.158 525.055 160.158 517.948 Q160.158 510.819 158.33 507.277 Q156.524 503.712 152.89 503.712 M152.89 500.009 Q158.7 500.009 161.755 504.615 Q164.834 509.198 164.834 517.948 Q164.834 526.675 161.755 531.282 Q158.7 535.865 152.89 535.865 Q147.08 535.865 144.001 531.282 Q140.945 526.675 140.945 517.948 Q140.945 509.198 144.001 504.615 Q147.08 500.009 152.89 500.009 Z" fill="#000000" fill-rule="nonzero" fill-opacity="1" /><path clip-path="url(#clip860)" d="M183.052 503.712 Q179.441 503.712 177.612 507.277 Q175.806 510.819 175.806 517.948 Q175.806 525.055 177.612 528.62 Q179.441 532.161 183.052 532.161 Q186.686 532.161 188.491 528.62 Q190.32 525.055 190.32 517.948 Q190.32 510.819 188.491 507.277 Q186.686 503.712 183.052 503.712 M183.052 500.009 Q188.862 500.009 191.917 504.615 Q194.996 509.198 194.996 517.948 Q194.996 526.675 191.917 531.282 Q188.862 535.865 183.052 535.865 Q177.241 535.865 174.163 531.282 Q171.107 526.675 171.107 517.948 Q171.107 509.198 174.163 504.615 Q177.241 500.009 183.052 500.009 Z" fill="#000000" fill-rule="nonzero" fill-opacity="1" /><path clip-path="url(#clip860)" d="M52.4505 286.649 L70.8068 286.649 L70.8068 290.584 L56.7328 290.584 L56.7328 299.056 Q57.7513 298.709 58.7699 298.547 Q59.7884 298.362 60.8069 298.362 Q66.5939 298.362 69.9735 301.533 Q73.3531 304.704 73.3531 310.121 Q73.3531 315.7 69.8809 318.801 Q66.4087 321.88 60.0893 321.88 Q57.9134 321.88 55.6449 321.51 Q53.3995 321.139 50.9921 320.399 L50.9921 315.7 Q53.0754 316.834 55.2977 317.389 Q57.5199 317.945 59.9967 317.945 Q64.0013 317.945 66.3393 315.838 Q68.6772 313.732 68.6772 310.121 Q68.6772 306.51 66.3393 304.403 Q64.0013 302.297 59.9967 302.297 Q58.1217 302.297 56.2467 302.713 Q54.3949 303.13 52.4505 304.01 L52.4505 286.649 Z" fill="#000000" fill-rule="nonzero" fill-opacity="1" /><path clip-path="url(#clip860)" d="M96.7326 302.575 Q100.089 303.292 101.964 305.561 Q103.862 307.829 103.862 311.163 Q103.862 316.278 100.344 319.079 Q96.8252 321.88 90.3438 321.88 Q88.1679 321.88 85.8531 321.44 Q83.5614 321.024 81.1077 320.167 L81.1077 315.653 Q83.0521 316.787 85.3669 317.366 Q87.6817 317.945 90.2049 317.945 Q94.603 317.945 96.8947 316.209 Q99.2095 314.473 99.2095 311.163 Q99.2095 308.107 97.0567 306.394 Q94.9271 304.658 91.1077 304.658 L87.0799 304.658 L87.0799 300.815 L91.2928 300.815 Q94.7419 300.815 96.5706 299.45 Q98.3993 298.061 98.3993 295.468 Q98.3993 292.806 96.5011 291.394 Q94.6262 289.959 91.1077 289.959 Q89.1864 289.959 86.9873 290.376 Q84.7882 290.792 82.1494 291.672 L82.1494 287.505 Q84.8114 286.764 87.1262 286.394 Q89.4641 286.024 91.5243 286.024 Q96.8484 286.024 99.9502 288.454 Q103.052 290.862 103.052 294.982 Q103.052 297.852 101.409 299.843 Q99.765 301.811 96.7326 302.575 Z" fill="#000000" fill-rule="nonzero" fill-opacity="1" /><path clip-path="url(#clip860)" d="M122.728 289.727 Q119.117 289.727 117.288 293.292 Q115.483 296.834 115.483 303.963 Q115.483 311.07 117.288 314.635 Q119.117 318.176 122.728 318.176 Q126.362 318.176 128.168 314.635 Q129.996 311.07 129.996 303.963 Q129.996 296.834 128.168 293.292 Q126.362 289.727 122.728 289.727 M122.728 286.024 Q128.538 286.024 131.594 290.63 Q134.672 295.214 134.672 303.963 Q134.672 312.69 131.594 317.297 Q128.538 321.88 122.728 321.88 Q116.918 321.88 113.839 317.297 Q110.783 312.69 110.783 303.963 Q110.783 295.214 113.839 290.63 Q116.918 286.024 122.728 286.024 Z" fill="#000000" fill-rule="nonzero" fill-opacity="1" /><path clip-path="url(#clip860)" d="M152.89 289.727 Q149.279 289.727 147.45 293.292 Q145.644 296.834 145.644 303.963 Q145.644 311.07 147.45 314.635 Q149.279 318.176 152.89 318.176 Q156.524 318.176 158.33 314.635 Q160.158 311.07 160.158 303.963 Q160.158 296.834 158.33 293.292 Q156.524 289.727 152.89 289.727 M152.89 286.024 Q158.7 286.024 161.755 290.63 Q164.834 295.214 164.834 303.963 Q164.834 312.69 161.755 317.297 Q158.7 321.88 152.89 321.88 Q147.08 321.88 144.001 317.297 Q140.945 312.69 140.945 303.963 Q140.945 295.214 144.001 290.63 Q147.08 286.024 152.89 286.024 Z" fill="#000000" fill-rule="nonzero" fill-opacity="1" /><path clip-path="url(#clip860)" d="M183.052 289.727 Q179.441 289.727 177.612 293.292 Q175.806 296.834 175.806 303.963 Q175.806 311.07 177.612 314.635 Q179.441 318.176 183.052 318.176 Q186.686 318.176 188.491 314.635 Q190.32 311.07 190.32 303.963 Q190.32 296.834 188.491 293.292 Q186.686 289.727 183.052 289.727 M183.052 286.024 Q188.862 286.024 191.917 290.63 Q194.996 295.214 194.996 303.963 Q194.996 312.69 191.917 317.297 Q188.862 321.88 183.052 321.88 Q177.241 321.88 174.163 317.297 Q171.107 312.69 171.107 303.963 Q171.107 295.214 174.163 290.63 Q177.241 286.024 183.052 286.024 Z" fill="#000000" fill-rule="nonzero" fill-opacity="1" /><path clip-path="url(#clip860)" d="M52.4505 72.6639 L70.8068 72.6639 L70.8068 76.5991 L56.7328 76.5991 L56.7328 85.0713 Q57.7513 84.7241 58.7699 84.562 Q59.7884 84.3768 60.8069 84.3768 Q66.5939 84.3768 69.9735 87.5481 Q73.3531 90.7194 73.3531 96.136 Q73.3531 101.715 69.8809 104.817 Q66.4087 107.895 60.0893 107.895 Q57.9134 107.895 55.6449 107.525 Q53.3995 107.154 50.9921 106.414 L50.9921 101.715 Q53.0754 102.849 55.2977 103.405 Q57.5199 103.96 59.9967 103.96 Q64.0013 103.96 66.3393 101.854 Q68.6772 99.7471 68.6772 96.136 Q68.6772 92.5249 66.3393 90.4185 Q64.0013 88.312 59.9967 88.312 Q58.1217 88.312 56.2467 88.7287 Q54.3949 89.1453 52.4505 90.025 L52.4505 72.6639 Z" fill="#000000" fill-rule="nonzero" fill-opacity="1" /><path clip-path="url(#clip860)" d="M96.7326 88.5898 Q100.089 89.3074 101.964 91.5759 Q103.862 93.8444 103.862 97.1777 Q103.862 102.293 100.344 105.094 Q96.8252 107.895 90.3438 107.895 Q88.1679 107.895 85.8531 107.455 Q83.5614 107.039 81.1077 106.182 L81.1077 101.668 Q83.0521 102.803 85.3669 103.381 Q87.6817 103.96 90.2049 103.96 Q94.603 103.96 96.8947 102.224 Q99.2095 100.488 99.2095 97.1777 Q99.2095 94.1222 97.0567 92.4092 Q94.9271 90.6731 91.1077 90.6731 L87.0799 90.6731 L87.0799 86.8305 L91.2928 86.8305 Q94.7419 86.8305 96.5706 85.4648 Q98.3993 84.0759 98.3993 81.4833 Q98.3993 78.8213 96.5011 77.4093 Q94.6262 75.9741 91.1077 75.9741 Q89.1864 75.9741 86.9873 76.3908 Q84.7882 76.8074 82.1494 77.6871 L82.1494 73.5204 Q84.8114 72.7797 87.1262 72.4093 Q89.4641 72.0389 91.5243 72.0389 Q96.8484 72.0389 99.9502 74.4695 Q103.052 76.8769 103.052 80.9972 Q103.052 83.8676 101.409 85.8583 Q99.765 87.8259 96.7326 88.5898 Z" fill="#000000" fill-rule="nonzero" fill-opacity="1" /><path clip-path="url(#clip860)" d="M112.774 72.6639 L131.131 72.6639 L131.131 76.5991 L117.057 76.5991 L117.057 85.0713 Q118.075 84.7241 119.094 84.562 Q120.112 84.3768 121.131 84.3768 Q126.918 84.3768 130.297 87.5481 Q133.677 90.7194 133.677 96.136 Q133.677 101.715 130.205 104.817 Q126.732 107.895 120.413 107.895 Q118.237 107.895 115.969 107.525 Q113.723 107.154 111.316 106.414 L111.316 101.715 Q113.399 102.849 115.621 103.405 Q117.844 103.96 120.32 103.96 Q124.325 103.96 126.663 101.854 Q129.001 99.7471 129.001 96.136 Q129.001 92.5249 126.663 90.4185 Q124.325 88.312 120.32 88.312 Q118.445 88.312 116.57 88.7287 Q114.719 89.1453 112.774 90.025 L112.774 72.6639 Z" fill="#000000" fill-rule="nonzero" fill-opacity="1" /><path clip-path="url(#clip860)" d="M152.89 75.7426 Q149.279 75.7426 147.45 79.3074 Q145.644 82.8491 145.644 89.9787 Q145.644 97.0851 147.45 100.65 Q149.279 104.192 152.89 104.192 Q156.524 104.192 158.33 100.65 Q160.158 97.0851 160.158 89.9787 Q160.158 82.8491 158.33 79.3074 Q156.524 75.7426 152.89 75.7426 M152.89 72.0389 Q158.7 72.0389 161.755 76.6454 Q164.834 81.2287 164.834 89.9787 Q164.834 98.7055 161.755 103.312 Q158.7 107.895 152.89 107.895 Q147.08 107.895 144.001 103.312 Q140.945 98.7055 140.945 89.9787 Q140.945 81.2287 144.001 76.6454 Q147.08 72.0389 152.89 72.0389 Z" fill="#000000" fill-rule="nonzero" fill-opacity="1" /><path clip-path="url(#clip860)" d="M183.052 75.7426 Q179.441 75.7426 177.612 79.3074 Q175.806 82.8491 175.806 89.9787 Q175.806 97.0851 177.612 100.65 Q179.441 104.192 183.052 104.192 Q186.686 104.192 188.491 100.65 Q190.32 97.0851 190.32 89.9787 Q190.32 82.8491 188.491 79.3074 Q186.686 75.7426 183.052 75.7426 M183.052 72.0389 Q188.862 72.0389 191.917 76.6454 Q194.996 81.2287 194.996 89.9787 Q194.996 98.7055 191.917 103.312 Q188.862 107.895 183.052 107.895 Q177.241 107.895 174.163 103.312 Q171.107 98.7055 171.107 89.9787 Q171.107 81.2287 174.163 76.6454 Q177.241 72.0389 183.052 72.0389 Z" fill="#000000" fill-rule="nonzero" fill-opacity="1" /><polyline clip-path="url(#clip862)" style="stroke:#009af9; stroke-linecap:round; stroke-linejoin:round; stroke-width:4; stroke-opacity:1; fill:none" points="291.046,1008.12 292.047,1008.12 293.047,1008.13 294.048,1008.13 295.049,1008.14 296.05,1141.33 297.051,1141.33 298.052,1141.33 299.052,1141.34 300.053,1141.34 301.054,768.171 302.055,768.177 303.056,768.183 304.057,768.189 305.057,768.195 306.058,575.294 307.059,575.296 308.06,575.298 309.061,575.3 310.062,575.302 311.062,974.614 312.063,974.619 313.064,974.624 314.065,974.629 315.066,974.634 316.067,348.669 317.067,348.683 318.068,348.697 319.069,348.71 320.07,348.723 321.071,507.132 322.072,507.136 323.072,507.14 324.073,507.143 325.074,507.147 326.075,566.129 327.076,566.143 328.077,566.158 329.077,566.173 330.078,566.187 331.079,519.164 332.08,519.178 333.081,519.192 334.081,519.206 335.082,519.219 336.083,905.752 337.084,905.754 338.085,905.756 339.086,905.758 340.086,905.761 341.087,231.76 342.088,231.765 343.089,231.769 344.09,231.773 345.091,231.778 346.091,913.99 347.092,914 348.093,914.01 349.094,914.019 350.095,914.029 351.096,353.41 352.096,353.415 353.097,353.42 354.098,353.424 355.099,353.429 356.1,1183.1 357.101,1183.11 358.101,1183.11 359.102,1183.11 360.103,1183.12 361.104,145.447 362.105,145.46 363.106,145.474 364.106,145.487 365.107,145.5 366.108,647.071 367.109,647.083 368.11,647.094 369.111,647.106 370.111,647.118 371.112,804.366 372.113,804.379 373.114,804.392 374.115,804.404 375.116,804.416 376.116,774.64 377.117,774.646 378.118,774.651 379.119,774.656 380.12,774.662 381.121,602.897 382.121,602.908 383.122,602.917 384.123,602.927 385.124,602.937 386.125,410.064 387.125,410.073 388.126,410.082 389.127,410.091 390.128,410.1 391.129,568.181 392.13,568.193 393.13,568.205 394.131,568.217 395.132,568.228 396.133,600.215 397.134,600.218 398.135,600.221 399.135,600.224 400.136,600.226 401.137,1392.5 402.138,1392.51 403.139,1392.52 404.14,1392.53 405.14,1392.53 406.141,958.282 407.142,958.285 408.143,958.288 409.144,958.292 410.145,958.295 411.145,496.404 412.146,496.407 413.147,496.409 414.148,496.412 415.149,496.414 416.15,370.917 417.15,370.919 418.151,370.92 419.152,370.921 420.153,370.923 421.154,476.546 422.155,476.563 423.155,476.581 424.156,476.599 425.157,476.616 426.158,623.383 427.159,623.385 428.16,623.387 429.16,623.389 430.161,623.391 431.162,716.32 432.163,716.335 433.164,716.349 434.165,716.364 435.165,716.378 436.166,643.206 437.167,643.212 438.168,643.218 439.169,643.224 440.169,643.23 441.17,768.52 442.171,768.529 443.172,768.538 444.173,768.547 445.174,768.556 446.174,773.479 447.175,773.487 448.176,773.496 449.177,773.505 450.178,773.514 451.179,778.818 452.179,778.824 453.18,778.829 454.181,778.835 455.182,778.84 456.183,842.024 457.184,842.029 458.184,842.034 459.185,842.039 460.186,842.043 461.187,751.926 462.188,751.931 463.189,751.935 464.189,751.94 465.19,751.944 466.191,1338.38 467.192,1338.39 468.193,1338.39 469.194,1338.4 470.194,1338.41 471.195,798.133 472.196,798.138 473.197,798.143 474.198,798.147 475.199,798.152 476.199,225.077 477.2,225.085 478.201,225.093 479.202,225.101 480.203,225.108 481.204,1002.98 482.204,1002.99 483.205,1003 484.206,1003.01 485.207,1003.02 486.208,627.445 487.209,627.453 488.209,627.461 489.21,627.468 490.211,627.476 491.212,935.794 492.213,935.804 493.213,935.814 494.214,935.823 495.215,935.833 496.216,931.686 497.217,931.692 498.218,931.698 499.218,931.703 500.219,931.709 501.22,359.097 502.221,359.114 503.222,359.131 504.223,359.147 505.223,359.164 506.224,1023.38 507.225,1023.38 508.226,1023.39 509.227,1023.39 510.228,1023.4 511.228,1153.29 512.229,1153.31 513.23,1153.33 514.231,1153.34 515.232,1153.36 516.233,420.272 517.233,420.284 518.234,420.296 519.235,420.308 520.236,420.32 521.237,1373.49 522.238,1373.5 523.238,1373.52 524.239,1373.53 525.24,1373.54 526.241,460.063 527.242,460.08 528.243,460.096 529.243,460.113 530.244,460.129 531.245,490.494 532.246,490.498 533.247,490.502 534.248,490.505 535.248,490.509 536.249,414.719 537.25,414.728 538.251,414.737 539.252,414.746 540.253,414.755 541.253,680.084 542.254,680.09 543.255,680.095 544.256,680.101 545.257,680.106 546.257,978.893 547.258,978.899 548.259,978.904 549.26,978.91 550.261,978.915 551.262,1098.29 552.262,1098.29 553.263,1098.29 554.264,1098.29 555.265,1098.3 556.266,932.801 557.267,932.809 558.267,932.816 559.268,932.823 560.269,932.83 561.27,871.304 562.271,871.309 563.272,871.314 564.272,871.319 565.273,871.324 566.274,1344.02 567.275,1344.02 568.276,1344.03 569.277,1344.03 570.277,1344.04 571.278,781.516 572.279,781.528 573.28,781.54 574.281,781.552 575.282,781.564 576.282,1152.35 577.283,1152.35 578.284,1152.35 579.285,1152.36 580.286,1152.36 581.287,959.739 582.287,959.743 583.288,959.747 584.289,959.751 585.29,959.755 586.291,323.581 587.292,323.592 588.292,323.603 589.293,323.614 590.294,323.625 591.295,928.93 592.296,928.934 593.296,928.937 594.297,928.94 595.298,928.944 596.299,266.505 597.3,266.507 598.301,266.508 599.301,266.51 600.302,266.511 601.303,692.288 602.304,692.294 603.305,692.299 604.306,692.304 605.306,692.309 606.307,746.438 607.308,746.441 608.309,746.443 609.31,746.445 610.311,746.447 611.311,655.366 612.312,655.368 613.313,655.371 614.314,655.373 615.315,655.375 616.316,634.144 617.316,634.152 618.317,634.159 619.318,634.166 620.319,634.172 621.32,600.943 622.321,600.952 623.321,600.961 624.322,600.97 625.323,600.979 626.324,448.993 627.325,448.995 628.326,448.998 629.326,449 630.327,449.003 631.328,608.212 632.329,608.216 633.33,608.22 634.331,608.224 635.331,608.229 636.332,1445.69 637.333,1445.7 638.334,1445.7 639.335,1445.71 640.336,1445.72 641.336,757.057 642.337,757.071 643.338,757.085 644.339,757.098 645.34,757.112 646.34,464.439 647.341,464.452 648.342,464.465 649.343,464.478 650.344,464.491 651.345,1017.24 652.345,1017.25 653.346,1017.25 654.347,1017.25 655.348,1017.26 656.349,352.172 657.35,352.176 658.35,352.18 659.351,352.183 660.352,352.186 661.353,1065.68 662.354,1065.69 663.355,1065.7 664.355,1065.7 665.356,1065.71 666.357,749.445 667.358,749.449 668.359,749.453 669.36,749.457 670.36,749.461 671.361,895.264 672.362,895.282 673.363,895.3 674.364,895.318 675.365,895.336 676.365,961.401 677.366,961.419 678.367,961.437 679.368,961.455 680.369,961.472 681.37,268.184 682.37,268.188 683.371,268.192 684.372,268.196 685.373,268.2 686.374,451.119 687.375,451.127 688.375,451.135 689.376,451.142 690.377,451.15 691.378,712.248 692.379,712.263 693.38,712.278 694.38,712.292 695.381,712.306 696.382,916.483 697.383,916.492 698.384,916.501 699.384,916.51 700.385,916.518 701.386,505.731 702.387,505.74 703.388,505.749 704.389,505.758 705.389,505.767 706.39,1276.95 707.391,1276.96 708.392,1276.98 709.393,1276.99 710.394,1277 711.394,523.772 712.395,523.785 713.396,523.798 714.397,523.81 715.398,523.823 716.399,711.136 717.399,711.146 718.4,711.155 719.401,711.163 720.402,711.172 721.403,738.578 722.404,738.591 723.404,738.603 724.405,738.616 725.406,738.628 726.407,519.842 727.408,519.855 728.409,519.868 729.409,519.881 730.41,519.894 731.411,544.254 732.412,544.265 733.413,544.276 734.414,544.286 735.414,544.297 736.415,663.758 737.416,663.767 738.417,663.776 739.418,663.785 740.419,663.794 741.419,884.734 742.42,884.737 743.421,884.74 744.422,884.743 745.423,884.746 746.424,550.762 747.424,550.772 748.425,550.781 749.426,550.79 750.427,550.8 751.428,908.596 752.428,908.608 753.429,908.619 754.43,908.63 755.431,908.642 756.432,593.615 757.433,593.641 758.433,593.667 759.434,593.693 760.435,593.719 761.436,337.565 762.437,337.586 763.438,337.607 764.438,337.628 765.439,337.649 766.44,920.146 767.441,920.154 768.442,920.161 769.443,920.169 770.443,920.176 771.444,485.607 772.445,485.615 773.446,485.624 774.447,485.632 775.448,485.64 776.448,888.786 777.449,888.789 778.45,888.792 779.451,888.795 780.452,888.798 781.453,211.557 782.453,211.562 783.454,211.568 784.455,211.573 785.456,211.579 786.457,782.843 787.458,782.849 788.458,782.854 789.459,782.86 790.46,782.866 791.461,263.706 792.462,263.711 793.463,263.717 794.463,263.722 795.464,263.727 796.465,717.366 797.466,717.375 798.467,717.384 799.468,717.392 800.468,717.401 801.469,768.789 802.47,768.799 803.471,768.81 804.472,768.821 805.472,768.831 806.473,1080.25 807.474,1080.26 808.475,1080.27 809.476,1080.28 810.477,1080.29 811.477,1240.02 812.478,1240.03 813.479,1240.04 814.48,1240.04 815.481,1240.05 816.482,828.928 817.482,828.931 818.483,828.935 819.484,828.939 820.485,828.943 821.486,1054.41 822.487,1054.42 823.487,1054.42 824.488,1054.42 825.489,1054.43 826.49,848.291 827.491,848.295 828.492,848.3 829.492,848.304 830.493,848.308 831.494,1135.38 832.495,1135.39 833.496,1135.39 834.497,1135.4 835.497,1135.4 836.498,994.857 837.499,994.863 838.5,994.869 839.501,994.875 840.502,994.881 841.502,1285.12 842.503,1285.14 843.504,1285.15 844.505,1285.16 845.506,1285.18 846.507,739.578 847.507,739.582 848.508,739.587 849.509,739.591 850.51,739.595 851.511,334.266 852.512,334.278 853.512,334.291 854.513,334.304 855.514,334.316 856.515,816.25 857.516,816.252 858.516,816.255 859.517,816.258 860.518,816.261 861.519,671.173 862.52,671.187 863.521,671.201 864.521,671.216 865.522,671.229 866.523,830.731 867.524,830.739 868.525,830.746 869.526,830.754 870.526,830.762 871.527,985.081 872.528,985.091 873.529,985.1 874.53,985.11 875.531,985.12 876.531,353.904 877.532,353.916 878.533,353.927 879.534,353.939 880.535,353.95 881.536,660.904 882.536,660.909 883.537,660.915 884.538,660.921 885.539,660.926 886.54,681.857 887.541,681.867 888.541,681.878 889.542,681.888 890.543,681.898 891.544,834.94 892.545,834.949 893.546,834.959 894.546,834.968 895.547,834.978 896.548,768.363 897.549,768.37 898.55,768.376 899.551,768.382 900.551,768.389 901.552,418.139 902.553,418.152 903.554,418.165 904.555,418.178 905.556,418.191 906.556,434.28 907.557,434.293 908.558,434.306 909.559,434.318 910.56,434.33 911.56,542.376 912.561,542.385 913.562,542.395 914.563,542.405 915.564,542.415 916.565,908.169 917.565,908.179 918.566,908.189 919.567,908.199 920.568,908.209 921.569,800.125 922.57,800.133 923.57,800.14 924.571,800.147 925.572,800.155 926.573,684.623 927.574,684.635 928.575,684.647 929.575,684.659 930.576,684.671 931.577,745.179 932.578,745.186 933.579,745.192 934.58,745.198 935.58,745.204 936.581,967.985 937.582,968 938.583,968.014 939.584,968.029 940.585,968.043 941.585,778.873 942.586,778.887 943.587,778.901 944.588,778.915 945.589,778.929 946.59,489.46 947.59,489.466 948.591,489.472 949.592,489.477 950.593,489.483 951.594,671.942 952.595,671.947 953.595,671.952 954.596,671.957 955.597,671.962 956.598,1026.79 957.599,1026.79 958.6,1026.79 959.6,1026.79 960.601,1026.79 961.602,816.445 962.603,816.452 963.604,816.458 964.604,816.465 965.605,816.471 966.606,1416.61 967.607,1416.62 968.608,1416.64 969.609,1416.65 970.609,1416.67 971.61,173.067 972.611,173.076 973.612,173.085 974.613,173.093 975.614,173.102 976.614,676.68 977.615,676.687 978.616,676.694 979.617,676.701 980.618,676.708 981.619,603.265 982.619,603.268 983.62,603.27 984.621,603.273 985.622,603.275 986.623,917.99 987.624,917.991 988.624,917.992 989.625,917.994 990.626,917.995 991.627,700.821 992.628,700.828 993.629,700.836 994.629,700.843 995.63,700.851 996.631,1230.47 997.632,1230.48 998.633,1230.5 999.634,1230.51 1000.63,1230.52 1001.64,904.622 1002.64,904.627 1003.64,904.633 1004.64,904.638 1005.64,904.643 1006.64,728.411 1007.64,728.42 1008.64,728.428 1009.64,728.437 1010.64,728.446 1011.64,775.624 1012.64,775.625 1013.65,775.626 1014.65,775.627 1015.65,775.628 1016.65,779.843 1017.65,779.847 1018.65,779.851 1019.65,779.855 1020.65,779.859 1021.65,1045.16 1022.65,1045.17 1023.65,1045.17 1024.65,1045.18 1025.66,1045.19 1026.66,378.983 1027.66,378.987 1028.66,378.991 1029.66,378.995 1030.66,378.999 1031.66,193.825 1032.66,193.834 1033.66,193.843 1034.66,193.852 1035.66,193.861 1036.66,994.55 1037.67,994.558 1038.67,994.565 1039.67,994.573 1040.67,994.581 1041.67,654.77 1042.67,654.789 1043.67,654.807 1044.67,654.826 1045.67,654.844 1046.67,819.186 1047.67,819.196 1048.67,819.207 1049.68,819.217 1050.68,819.227 1051.68,610.056 1052.68,610.064 1053.68,610.071 1054.68,610.078 1055.68,610.085 1056.68,783.378 1057.68,783.39 1058.68,783.402 1059.68,783.413 1060.68,783.425 1061.69,607.5 1062.69,607.513 1063.69,607.525 1064.69,607.538 1065.69,607.55 1066.69,596.33 1067.69,596.34 1068.69,596.349 1069.69,596.359 1070.69,596.369 1071.69,637.994 1072.69,638.006 1073.69,638.019 1074.7,638.031 1075.7,638.043 1076.7,579.358 1077.7,579.362 1078.7,579.367 1079.7,579.372 1080.7,579.376 1081.7,546.343 1082.7,546.349 1083.7,546.354 1084.7,546.36 1085.7,546.365 1086.71,1037.06 1087.71,1037.07 1088.71,1037.07 1089.71,1037.08 1090.71,1037.08 1091.71,459.124 1092.71,459.132 1093.71,459.139 1094.71,459.146 1095.71,459.153 1096.71,1028.21 1097.71,1028.22 1098.72,1028.23 1099.72,1028.24 1100.72,1028.25 1101.72,504.958 1102.72,504.962 1103.72,504.966 1104.72,504.969 1105.72,504.973 1106.72,431.837 1107.72,431.84 1108.72,431.842 1109.72,431.845 1110.73,431.848 1111.73,1182.28 1112.73,1182.29 1113.73,1182.3 1114.73,1182.3 1115.73,1182.31 1116.73,611.451 1117.73,611.462 1118.73,611.473 1119.73,611.484 1120.73,611.495 1121.73,671.316 1122.74,671.324 1123.74,671.331 1124.74,671.338 1125.74,671.345 1126.74,821.078 1127.74,821.091 1128.74,821.103 1129.74,821.115 1130.74,821.127 1131.74,633.318 1132.74,633.323 1133.74,633.329 1134.75,633.334 1135.75,633.339 1136.75,792.77 1137.75,792.787 1138.75,792.803 1139.75,792.819 1140.75,792.836 1141.75,1010.86 1142.75,1010.87 1143.75,1010.88 1144.75,1010.89 1145.75,1010.89 1146.76,191.971 1147.76,191.979 1148.76,191.987 1149.76,191.995 1150.76,192.003 1151.76,709.988 1152.76,710.002 1153.76,710.016 1154.76,710.03 1155.76,710.043 1156.76,728.458 1157.76,728.463 1158.77,728.468 1159.77,728.473 1160.77,728.477 1161.77,545.981 1162.77,545.992 1163.77,546.003 1164.77,546.013 1165.77,546.024 1166.77,1011.85 1167.77,1011.86 1168.77,1011.86 1169.77,1011.87 1170.78,1011.88 1171.78,555.425 1172.78,555.43 1173.78,555.434 1174.78,555.439 1175.78,555.443 1176.78,928.102 1177.78,928.11 1178.78,928.118 1179.78,928.127 1180.78,928.135 1181.78,830.922 1182.79,830.935 1183.79,830.949 1184.79,830.962 1185.79,830.975 1186.79,898.547 1187.79,898.554 1188.79,898.561 1189.79,898.568 1190.79,898.575 1191.79,719.961 1192.79,719.971 1193.79,719.982 1194.8,719.992 1195.8,720.002 1196.8,714.477 1197.8,714.488 1198.8,714.499 1199.8,714.51 1200.8,714.521 1201.8,614.677 1202.8,614.694 1203.8,614.711 1204.8,614.729 1205.8,614.746 1206.81,752.558 1207.81,752.56 1208.81,752.562 1209.81,752.563 1210.81,752.565 1211.81,742.39 1212.81,742.399 1213.81,742.408 1214.81,742.416 1215.81,742.425 1216.81,899.94 1217.81,899.947 1218.82,899.954 1219.82,899.96 1220.82,899.967 1221.82,650.061 1222.82,650.07 1223.82,650.079 1224.82,650.088 1225.82,650.097 1226.82,454.264 1227.82,454.268 1228.82,454.272 1229.82,454.276 1230.83,454.279 1231.83,518.426 1232.83,518.437 1233.83,518.447 1234.83,518.458 1235.83,518.469 1236.83,773.272 1237.83,773.281 1238.83,773.289 1239.83,773.297 1240.83,773.305 1241.83,483.855 1242.84,483.868 1243.84,483.881 1244.84,483.894 1245.84,483.907 1246.84,318.465 1247.84,318.467 1248.84,318.468 1249.84,318.47 1250.84,318.471 1251.84,428.534 1252.84,428.535 1253.84,428.536 1254.85,428.537 1255.85,428.538 1256.85,539.483 1257.85,539.488 1258.85,539.493 1259.85,539.498 1260.85,539.503 1261.85,598.19 1262.85,598.194 1263.85,598.199 1264.85,598.203 1265.85,598.208 1266.86,948.855 1267.86,948.858 1268.86,948.861 1269.86,948.864 1270.86,948.867 1271.86,958.365 1272.86,958.377 1273.86,958.39 1274.86,958.402 1275.86,958.414 1276.86,960.717 1277.86,960.72 1278.87,960.724 1279.87,960.727 1280.87,960.731 1281.87,618.994 1282.87,618.998 1283.87,619.003 1284.87,619.007 1285.87,619.011 1286.87,827.853 1287.87,827.863 1288.87,827.874 1289.87,827.884 1290.88,827.894 1291.88,528.436 1292.88,528.453 1293.88,528.469 1294.88,528.485 1295.88,528.501 1296.88,408.886 1297.88,408.895 1298.88,408.904 1299.88,408.913 1300.88,408.922 1301.88,571.67 1302.89,571.676 1303.89,571.683 1304.89,571.689 1305.89,571.695 1306.89,726.936 1307.89,726.942 1308.89,726.947 1309.89,726.953 1310.89,726.959 1311.89,933.333 1312.89,933.34 1313.89,933.347 1314.9,933.354 1315.9,933.361 1316.9,929.884 1317.9,929.891 1318.9,929.898 1319.9,929.905 1320.9,929.911 1321.9,672.058 1322.9,672.063 1323.9,672.068 1324.9,672.072 1325.9,672.077 1326.91,248.008 1327.91,248.015 1328.91,248.023 1329.91,248.03 1330.91,248.037 1331.91,423.397 1332.91,423.403 1333.91,423.41 1334.91,423.416 1335.91,423.422 1336.91,565.285 1337.91,565.295 1338.91,565.305 1339.92,565.314 1340.92,565.324 1341.92,564.369 1342.92,564.39 1343.92,564.41 1344.92,564.431 1345.92,564.451 1346.92,642.843 1347.92,642.853 1348.92,642.862 1349.92,642.871 1350.92,642.881 1351.93,695.153 1352.93,695.158 1353.93,695.163 1354.93,695.168 1355.93,695.173 1356.93,952.629 1357.93,952.639 1358.93,952.65 1359.93,952.66 1360.93,952.671 1361.93,815.76 1362.93,815.772 1363.94,815.784 1364.94,815.796 1365.94,815.808 1366.94,837.81 1367.94,837.816 1368.94,837.822 1369.94,837.828 1370.94,837.834 1371.94,985.992 1372.94,985.993 1373.94,985.994 1374.94,985.995 1375.95,985.996 1376.95,375.1 1377.95,375.111 1378.95,375.123 1379.95,375.134 1380.95,375.146 1381.95,806.504 1382.95,806.511 1383.95,806.518 1384.95,806.525 1385.95,806.532 1386.95,1144.1 1387.96,1144.11 1388.96,1144.12 1389.96,1144.13 1390.96,1144.14 1391.96,962.3 1392.96,962.306 1393.96,962.311 1394.96,962.317 1395.96,962.322 1396.96,276.633 1397.96,276.639 1398.96,276.645 1399.97,276.65 1400.97,276.656 1401.97,545.175 1402.97,545.19 1403.97,545.204 1404.97,545.219 1405.97,545.233 1406.97,1006.49 1407.97,1006.5 1408.97,1006.5 1409.97,1006.51 1410.97,1006.52 1411.98,711.322 1412.98,711.336 1413.98,711.35 1414.98,711.364 1415.98,711.378 1416.98,402.118 1417.98,402.122 1418.98,402.126 1419.98,402.13 1420.98,402.134 1421.98,505.331 1422.98,505.335 1423.99,505.338 1424.99,505.342 1425.99,505.345 1426.99,857.182 1427.99,857.192 1428.99,857.201 1429.99,857.211 1430.99,857.22 1431.99,479.348 1432.99,479.353 1433.99,479.357 1434.99,479.362 1436,479.367 1437,154.056 1438,154.064 1439,154.073 1440,154.081 1441,154.089 1442,754.053 1443,754.064 1444,754.074 1445,754.085 1446,754.095 1447,920.443 1448.01,920.446 1449.01,920.449 1450.01,920.452 1451.01,920.456 1452.01,610.516 1453.01,610.533 1454.01,610.549 1455.01,610.566 1456.01,610.582 1457.01,753.976 1458.01,753.981 1459.01,753.986 1460.02,753.991 1461.02,753.997 1462.02,898.223 1463.02,898.233 1464.02,898.243 1465.02,898.252 1466.02,898.262 1467.02,792.285 1468.02,792.299 1469.02,792.312 1470.02,792.325 1471.02,792.338 1472.03,334.385 1473.03,334.393 1474.03,334.4 1475.03,334.408 1476.03,334.415 1477.03,291.072 1478.03,291.092 1479.03,291.112 1480.03,291.131 1481.03,291.151 1482.03,706.233 1483.03,706.24 1484.04,706.247 1485.04,706.254 1486.04,706.261 1487.04,743.999 1488.04,744.001 1489.04,744.003 1490.04,744.005 1491.04,744.007 1492.04,877.459 1493.04,877.466 1494.04,877.473 1495.04,877.479 1496.05,877.486 1497.05,824.675 1498.05,824.679 1499.05,824.684 1500.05,824.689 1501.05,824.693 1502.05,1014.91 1503.05,1014.92 1504.05,1014.93 1505.05,1014.93 1506.05,1014.94 1507.05,848.486 1508.06,848.494 1509.06,848.502 1510.06,848.51 1511.06,848.518 1512.06,999.926 1513.06,999.929 1514.06,999.932 1515.06,999.935 1516.06,999.938 1517.06,402.342 1518.06,402.349 1519.06,402.356 1520.07,402.363 1521.07,402.369 1522.07,627.208 1523.07,627.218 1524.07,627.228 1525.07,627.238 1526.07,627.247 1527.07,710.867 1528.07,710.874 1529.07,710.881 1530.07,710.888 1531.07,710.894 1532.08,706.57 1533.08,706.579 1534.08,706.588 1535.08,706.596 1536.08,706.605 1537.08,1384.1 1538.08,1384.1 1539.08,1384.11 1540.08,1384.11 1541.08,1384.12 1542.08,801.499 1543.08,801.52 1544.09,801.541 1545.09,801.562 1546.09,801.582 1547.09,781.76 1548.09,781.763 1549.09,781.765 1550.09,781.767 1551.09,781.77 1552.09,950.822 1553.09,950.825 1554.09,950.829 1555.09,950.832 1556.1,950.835 1557.1,426.296 1558.1,426.304 1559.1,426.313 1560.1,426.321 1561.1,426.329 1562.1,480.852 1563.1,480.869 1564.1,480.885 1565.1,480.901 1566.1,480.918 1567.1,837.948 1568.11,837.963 1569.11,837.979 1570.11,837.994 1571.11,838.009 1572.11,683.853 1573.11,683.859 1574.11,683.865 1575.11,683.871 1576.11,683.877 1577.11,944.968 1578.11,944.974 1579.11,944.98 1580.12,944.986 1581.12,944.992 1582.12,563.664 1583.12,563.669 1584.12,563.675 1585.12,563.68 1586.12,563.685 1587.12,476.936 1588.12,476.937 1589.12,476.938 1590.12,476.939 1591.12,476.94 1592.12,648.341 1593.13,648.349 1594.13,648.358 1595.13,648.366 1596.13,648.374 1597.13,1066.78 1598.13,1066.79 1599.13,1066.79 1600.13,1066.79 1601.13,1066.8 1602.13,849.575 1603.13,849.578 1604.13,849.582 1605.14,849.586 1606.14,849.59 1607.14,854.634 1608.14,854.645 1609.14,854.656 1610.14,854.666 1611.14,854.676 1612.14,445.147 1613.14,445.156 1614.14,445.165 1615.14,445.173 1616.14,445.182 1617.15,991.241 1618.15,991.255 1619.15,991.27 1620.15,991.284 1621.15,991.299 1622.15,606.965 1623.15,606.967 1624.15,606.969 1625.15,606.972 1626.15,606.974 1627.15,534.145 1628.15,534.161 1629.16,534.177 1630.16,534.192 1631.16,534.208 1632.16,467.436 1633.16,467.445 1634.16,467.453 1635.16,467.461 1636.16,467.469 1637.16,1041.78 1638.16,1041.79 1639.16,1041.8 1640.16,1041.81 1641.17,1041.82 1642.17,433.036 1643.17,433.04 1644.17,433.045 1645.17,433.05 1646.17,433.054 1647.17,1176.22 1648.17,1176.23 1649.17,1176.24 1650.17,1176.24 1651.17,1176.25 1652.17,587.626 1653.18,587.631 1654.18,587.636 1655.18,587.642 1656.18,587.647 1657.18,439.414 1658.18,439.424 1659.18,439.434 1660.18,439.444 1661.18,439.454 1662.18,649.807 1663.18,649.811 1664.18,649.814 1665.19,649.817 1666.19,649.82 1667.19,630.204 1668.19,630.207 1669.19,630.209 1670.19,630.212 1671.19,630.214 1672.19,624.052 1673.19,624.061 1674.19,624.071 1675.19,624.08 1676.19,624.09 1677.2,1081.66 1678.2,1081.69 1679.2,1081.72 1680.2,1081.75 1681.2,1081.79 1682.2,956.366 1683.2,956.367 1684.2,956.368 1685.2,956.369 1686.2,956.371 1687.2,471.408 1688.2,471.412 1689.21,471.416 1690.21,471.419 1691.21,471.423 1692.21,352.752 1693.21,352.759 1694.21,352.766 1695.21,352.773 1696.21,352.78 1697.21,921.939 1698.21,921.95 1699.21,921.961 1700.21,921.971 1701.22,921.982 1702.22,774.036 1703.22,774.038 1704.22,774.039 1705.22,774.041 1706.22,774.042 1707.22,1114.11 1708.22,1114.13 1709.22,1114.15 1710.22,1114.17 1711.22,1114.19 1712.22,810.623 1713.23,810.631 1714.23,810.639 1715.23,810.646 1716.23,810.654 1717.23,791.705 1718.23,791.713 1719.23,791.721 1720.23,791.728 1721.23,791.736 1722.23,928.84 1723.23,928.853 1724.23,928.865 1725.24,928.878 1726.24,928.891 1727.24,798.327 1728.24,798.341 1729.24,798.356 1730.24,798.37 1731.24,798.383 1732.24,613.729 1733.24,613.736 1734.24,613.742 1735.24,613.749 1736.24,613.756 1737.25,686.756 1738.25,686.763 1739.25,686.771 1740.25,686.779 1741.25,686.786 1742.25,701.075 1743.25,701.08 1744.25,701.085 1745.25,701.09 1746.25,701.095 1747.25,677.617 1748.25,677.624 1749.26,677.631 1750.26,677.638 1751.26,677.645 1752.26,708.996 1753.26,709 1754.26,709.005 1755.26,709.009 1756.26,709.013 1757.26,647.164 1758.26,647.177 1759.26,647.19 1760.26,647.203 1761.27,647.216 1762.27,1195.45 1763.27,1195.45 1764.27,1195.45 1765.27,1195.46 1766.27,1195.46 1767.27,731.408 1768.27,731.417 1769.27,731.426 1770.27,731.434 1771.27,731.443 1772.27,910.759 1773.28,910.762 1774.28,910.766 1775.28,910.77 1776.28,910.773 1777.28,87.9763 1778.28,87.984 1779.28,87.9916 1780.28,87.9992 1781.28,88.0068 1782.28,768.929 1783.28,768.934 1784.28,768.939 1785.29,768.943 1786.29,768.948 1787.29,571.471 1788.29,571.482 1789.29,571.493 1790.29,571.504 1791.29,571.515 1792.29,729.32 1793.29,729.322 1794.29,729.325 1795.29,729.327 1796.29,729.33 1797.3,1247.23 1798.3,1247.23 1799.3,1247.24 1800.3,1247.24 1801.3,1247.25 1802.3,939.143 1803.3,939.145 1804.3,939.147 1805.3,939.148 1806.3,939.15 1807.3,1047.1 1808.3,1047.11 1809.31,1047.12 1810.31,1047.12 1811.31,1047.13 1812.31,497.108 1813.31,497.11 1814.31,497.112 1815.31,497.114 1816.31,497.117 1817.31,916.633 1818.31,916.638 1819.31,916.643 1820.31,916.648 1821.32,916.653 1822.32,904.63 1823.32,904.642 1824.32,904.654 1825.32,904.666 1826.32,904.678 1827.32,883.053 1828.32,883.066 1829.32,883.08 1830.32,883.093 1831.32,883.107 1832.32,1120.98 1833.33,1120.98 1834.33,1120.98 1835.33,1120.98 1836.33,1120.98 1837.33,1046.9 1838.33,1046.91 1839.33,1046.93 1840.33,1046.95 1841.33,1046.96 1842.33,376.791 1843.33,376.797 1844.33,376.803 1845.34,376.809 1846.34,376.815 1847.34,1132.76 1848.34,1132.77 1849.34,1132.78 1850.34,1132.79 1851.34,1132.81 1852.34,1002.73 1853.34,1002.73 1854.34,1002.74 1855.34,1002.74 1856.34,1002.75 1857.34,994.218 1858.35,994.232 1859.35,994.246 1860.35,994.261 1861.35,994.275 1862.35,963.34 1863.35,963.348 1864.35,963.355 1865.35,963.362 1866.35,963.369 1867.35,841.495 1868.35,841.507 1869.35,841.52 1870.36,841.532 1871.36,841.543 1872.36,1058.73 1873.36,1058.75 1874.36,1058.77 1875.36,1058.78 1876.36,1058.8 1877.36,992.336 1878.36,992.345 1879.36,992.354 1880.36,992.363 1881.36,992.372 1882.37,1017.32 1883.37,1017.32 1884.37,1017.33 1885.37,1017.33 1886.37,1017.34 1887.37,920.271 1888.37,920.278 1889.37,920.285 1890.37,920.293 1891.37,920.3 1892.37,588.27 1893.37,588.283 1894.38,588.295 1895.38,588.308 1896.38,588.32 1897.38,689.384 1898.38,689.395 1899.38,689.405 1900.38,689.415 1901.38,689.425 1902.38,663.259 1903.38,663.284 1904.38,663.31 1905.38,663.335 1906.39,663.36 1907.39,602.965 1908.39,602.97 1909.39,602.975 1910.39,602.979 1911.39,602.984 1912.39,1084.18 1913.39,1084.19 1914.39,1084.19 1915.39,1084.2 1916.39,1084.2 1917.39,292.578 1918.4,292.59 1919.4,292.601 1920.4,292.612 1921.4,292.623 1922.4,676.872 1923.4,676.878 1924.4,676.884 1925.4,676.891 1926.4,676.897 1927.4,331.728 1928.4,331.755 1929.4,331.781 1930.41,331.807 1931.41,331.832 1932.41,305.293 1933.41,305.3 1934.41,305.307 1935.41,305.313 1936.41,305.32 1937.41,270.123 1938.41,270.146 1939.41,270.169 1940.41,270.192 1941.41,270.215 1942.42,875.973 1943.42,875.979 1944.42,875.986 1945.42,875.993 1946.42,875.999 1947.42,993.496 1948.42,993.507 1949.42,993.517 1950.42,993.528 1951.42,993.539 1952.42,786.806 1953.42,786.811 1954.43,786.817 1955.43,786.822 1956.43,786.827 1957.43,888.817 1958.43,888.827 1959.43,888.837 1960.43,888.847 1961.43,888.857 1962.43,222.311 1963.43,222.316 1964.43,222.321 1965.43,222.326 1966.44,222.331 1967.44,480.221 1968.44,480.237 1969.44,480.253 1970.44,480.269 1971.44,480.285 1972.44,617.865 1973.44,617.867 1974.44,617.869 1975.44,617.872 1976.44,617.874 1977.44,375.243 1978.45,375.254 1979.45,375.265 1980.45,375.276 1981.45,375.287 1982.45,861.243 1983.45,861.249 1984.45,861.254 1985.45,861.26 1986.45,861.266 1987.45,509.123 1988.45,509.128 1989.45,509.134 1990.46,509.14 1991.46,509.145 1992.46,523.529 1993.46,523.529 1994.46,523.53 1995.46,523.531 1996.46,523.532 1997.46,514.942 1998.46,514.946 1999.46,514.95 2000.46,514.954 2001.46,514.958 2002.47,1010.57 2003.47,1010.57 2004.47,1010.58 2005.47,1010.58 2006.47,1010.58 2007.47,1021.51 2008.47,1021.51 2009.47,1021.52 2010.47,1021.52 2011.47,1021.53 2012.47,732.784 2013.47,732.8 2014.48,732.815 2015.48,732.83 2016.48,732.845 2017.48,323.286 2018.48,323.292 2019.48,323.298 2020.48,323.304 2021.48,323.31 2022.48,245.194 2023.48,245.205 2024.48,245.216 2025.48,245.227 2026.49,245.238 2027.49,896.766 2028.49,896.779 2029.49,896.793 2030.49,896.807 2031.49,896.82 2032.49,771.412 2033.49,771.426 2034.49,771.439 2035.49,771.453 2036.49,771.466 2037.49,849.134 2038.5,849.141 2039.5,849.149 2040.5,849.156 2041.5,849.163 2042.5,1039.57 2043.5,1039.58 2044.5,1039.59 2045.5,1039.59 2046.5,1039.6 2047.5,498.415 2048.5,498.423 2049.5,498.43 2050.51,498.438 2051.51,498.445 2052.51,1432.75 2053.51,1432.77 2054.51,1432.78 2055.51,1432.79 2056.51,1432.8 2057.51,1059.33 2058.51,1059.34 2059.51,1059.35 2060.51,1059.35 2061.51,1059.36 2062.52,1133.06 2063.52,1133.06 2064.52,1133.06 2065.52,1133.06 2066.52,1133.06 2067.52,324.579 2068.52,324.588 2069.52,324.596 2070.52,324.605 2071.52,324.613 2072.52,929.642 2073.52,929.659 2074.53,929.675 2075.53,929.691 2076.53,929.707 2077.53,174.245 2078.53,174.251 2079.53,174.257 2080.53,174.262 2081.53,174.267 2082.53,403.214 2083.53,403.222 2084.53,403.23 2085.53,403.238 2086.54,403.245 2087.54,381.738 2088.54,381.75 2089.54,381.761 2090.54,381.772 2091.54,381.783 2092.54,565.41 2093.54,565.418 2094.54,565.427 2095.54,565.435 2096.54,565.443 2097.54,463.583 2098.55,463.589 2099.55,463.594 2100.55,463.599 2101.55,463.604 2102.55,1076.87 2103.55,1076.88 2104.55,1076.88 2105.55,1076.89 2106.55,1076.89 2107.55,526.902 2108.55,526.91 2109.55,526.917 2110.56,526.925 2111.56,526.932 2112.56,875.788 2113.56,875.798 2114.56,875.809 2115.56,875.819 2116.56,875.829 2117.56,629.286 2118.56,629.302 2119.56,629.318 2120.56,629.334 2121.56,629.35 2122.56,1151.87 2123.57,1151.88 2124.57,1151.89 2125.57,1151.9 2126.57,1151.9 2127.57,885.272 2128.57,885.28 2129.57,885.287 2130.57,885.294 2131.57,885.301 2132.57,1048.73 2133.57,1048.73 2134.57,1048.74 2135.58,1048.74 2136.58,1048.74 2137.58,618.402 2138.58,618.407 2139.58,618.412 2140.58,618.416 2141.58,618.421 2142.58,692.169 2143.58,692.174 2144.58,692.178 2145.58,692.182 2146.58,692.187 2147.59,493.662 2148.59,493.671 2149.59,493.68 2150.59,493.688 2151.59,493.697 2152.59,860.683 2153.59,860.69 2154.59,860.698 2155.59,860.706 2156.59,860.713 2157.59,705.793 2158.59,705.797 2159.6,705.802 2160.6,705.806 2161.6,705.81 2162.6,969.931 2163.6,969.931 2164.6,969.932 2165.6,969.933 2166.6,969.933 2167.6,1055.3 2168.6,1055.31 2169.6,1055.32 2170.6,1055.32 2171.61,1055.33 2172.61,723.13 2173.61,723.149 2174.61,723.167 2175.61,723.185 2176.61,723.203 2177.61,641.685 2178.61,641.687 2179.61,641.689 2180.61,641.691 2181.61,641.693 2182.61,1131.16 2183.62,1131.16 2184.62,1131.17 2185.62,1131.17 2186.62,1131.18 2187.62,356.493 2188.62,356.506 2189.62,356.519 2190.62,356.533 2191.62,356.546 2192.62,676.603 2193.62,676.608 2194.62,676.613 2195.63,676.618 2196.63,676.622 2197.63,534.227 2198.63,534.233 2199.63,534.238 2200.63,534.244 2201.63,534.249 2202.63,1373.4 2203.63,1373.41 2204.63,1373.42 2205.63,1373.44 2206.63,1373.45 2207.64,1149.66 2208.64,1149.68 2209.64,1149.69 2210.64,1149.71 2211.64,1149.73 2212.64,928.447 2213.64,928.451 2214.64,928.456 2215.64,928.461 2216.64,928.465 2217.64,1153.16 2218.64,1153.17 2219.65,1153.17 2220.65,1153.17 2221.65,1153.17 2222.65,1243.42 2223.65,1243.43 2224.65,1243.44 2225.65,1243.45 2226.65,1243.46 2227.65,219.286 2228.65,219.296 2229.65,219.307 2230.65,219.317 2231.66,219.327 2232.66,475.206 2233.66,475.213 2234.66,475.221 2235.66,475.228 2236.66,475.235 2237.66,1198.31 2238.66,1198.32 2239.66,1198.33 2240.66,1198.33 2241.66,1198.34 2242.66,537.304 2243.67,537.317 2244.67,537.33 2245.67,537.343 2246.67,537.356 2247.67,672.342 2248.67,672.346 2249.67,672.351 2250.67,672.355 2251.67,672.359 2252.67,818.314 2253.67,818.319 2254.67,818.325 2255.68,818.331 2256.68,818.337 2257.68,1096.36 2258.68,1096.37 2259.68,1096.37 2260.68,1096.38 2261.68,1096.38 2262.68,850.065 2263.68,850.073 2264.68,850.081 2265.68,850.089 2266.68,850.097 2267.69,1019.87 2268.69,1019.89 2269.69,1019.91 2270.69,1019.92 2271.69,1019.94 2272.69,912.397 2273.69,912.402 2274.69,912.407 2275.69,912.411 2276.69,912.416 2277.69,714.87 2278.69,714.875 2279.7,714.88 2280.7,714.885 2281.7,714.889 2282.7,874.087 2283.7,874.1 2284.7,874.113 2285.7,874.125 2286.7,874.138 2287.7,911.152 2288.7,911.164 2289.7,911.175 2290.7,911.186 2291.71,911.198 2292.71,911.209 "/>
<path clip-path="url(#clip860)" d="M2017.42 1438.47 L2282.03 1438.47 L2282.03 1334.79 L2017.42 1334.79  Z" fill="#ffffff" fill-rule="evenodd" fill-opacity="1"/>
<polyline clip-path="url(#clip860)" style="stroke:#000000; stroke-linecap:round; stroke-linejoin:round; stroke-width:4; stroke-opacity:1; fill:none" points="2017.42,1438.47 2282.03,1438.47 2282.03,1334.79 2017.42,1334.79 2017.42,1438.47 "/>
<polyline clip-path="url(#clip860)" style="stroke:#009af9; stroke-linecap:round; stroke-linejoin:round; stroke-width:4; stroke-opacity:1; fill:none" points="2041,1386.63 2182.45,1386.63 "/>
<path clip-path="url(#clip860)" d="M2219.87 1406.32 Q2218.06 1410.95 2216.35 1412.36 Q2214.64 1413.78 2211.77 1413.78 L2208.36 1413.78 L2208.36 1410.21 L2210.86 1410.21 Q2212.62 1410.21 2213.59 1409.38 Q2214.57 1408.54 2215.75 1405.44 L2216.51 1403.5 L2206.03 1377.99 L2210.54 1377.99 L2218.64 1398.27 L2226.74 1377.99 L2231.26 1377.99 L2219.87 1406.32 Z" fill="#000000" fill-rule="nonzero" fill-opacity="1" /><path clip-path="url(#clip860)" d="M2238.55 1399.98 L2246.19 1399.98 L2246.19 1373.61 L2237.88 1375.28 L2237.88 1371.02 L2246.14 1369.35 L2250.82 1369.35 L2250.82 1399.98 L2258.46 1399.98 L2258.46 1403.91 L2238.55 1403.91 L2238.55 1399.98 Z" fill="#000000" fill-rule="nonzero" fill-opacity="1" /></svg>
