<?xml version="1.0" encoding="utf-8"?>
<svg xmlns="http://www.w3.org/2000/svg" xmlns:xlink="http://www.w3.org/1999/xlink" width="600" height="400" viewBox="0 0 2400 1600">
<defs>
  <clipPath id="clip710">
    <rect x="0" y="0" width="2400" height="1600"/>
  </clipPath>
</defs>
<path clip-path="url(#clip710)" d="M0 1600 L2400 1600 L2400 0 L0 0  Z" fill="#ffffff" fill-rule="evenodd" fill-opacity="1"/>
<defs>
  <clipPath id="clip711">
    <rect x="480" y="0" width="1681" height="1600"/>
  </clipPath>
</defs>
<path clip-path="url(#clip710)" d="M156.02 1486.45 L2352.76 1486.45 L2352.76 47.2441 L156.02 47.2441  Z" fill="#ffffff" fill-rule="evenodd" fill-opacity="1"/>
<defs>
  <clipPath id="clip712">
    <rect x="156" y="47" width="2198" height="1440"/>
  </clipPath>
</defs>
<polyline clip-path="url(#clip712)" style="stroke:#000000; stroke-linecap:round; stroke-linejoin:round; stroke-width:2; stroke-opacity:0.1; fill:none" points="218.191,1486.45 218.191,47.2441 "/>
<polyline clip-path="url(#clip712)" style="stroke:#000000; stroke-linecap:round; stroke-linejoin:round; stroke-width:2; stroke-opacity:0.1; fill:none" points="632.836,1486.45 632.836,47.2441 "/>
<polyline clip-path="url(#clip712)" style="stroke:#000000; stroke-linecap:round; stroke-linejoin:round; stroke-width:2; stroke-opacity:0.1; fill:none" points="1047.48,1486.45 1047.48,47.2441 "/>
<polyline clip-path="url(#clip712)" style="stroke:#000000; stroke-linecap:round; stroke-linejoin:round; stroke-width:2; stroke-opacity:0.1; fill:none" points="1462.12,1486.45 1462.12,47.2441 "/>
<polyline clip-path="url(#clip712)" style="stroke:#000000; stroke-linecap:round; stroke-linejoin:round; stroke-width:2; stroke-opacity:0.1; fill:none" points="1876.77,1486.45 1876.77,47.2441 "/>
<polyline clip-path="url(#clip712)" style="stroke:#000000; stroke-linecap:round; stroke-linejoin:round; stroke-width:2; stroke-opacity:0.1; fill:none" points="2291.41,1486.45 2291.41,47.2441 "/>
<polyline clip-path="url(#clip710)" style="stroke:#000000; stroke-linecap:round; stroke-linejoin:round; stroke-width:4; stroke-opacity:1; fill:none" points="156.02,1486.45 2352.76,1486.45 "/>
<polyline clip-path="url(#clip710)" style="stroke:#000000; stroke-linecap:round; stroke-linejoin:round; stroke-width:4; stroke-opacity:1; fill:none" points="218.191,1486.45 218.191,1467.55 "/>
<polyline clip-path="url(#clip710)" style="stroke:#000000; stroke-linecap:round; stroke-linejoin:round; stroke-width:4; stroke-opacity:1; fill:none" points="632.836,1486.45 632.836,1467.55 "/>
<polyline clip-path="url(#clip710)" style="stroke:#000000; stroke-linecap:round; stroke-linejoin:round; stroke-width:4; stroke-opacity:1; fill:none" points="1047.48,1486.45 1047.48,1467.55 "/>
<polyline clip-path="url(#clip710)" style="stroke:#000000; stroke-linecap:round; stroke-linejoin:round; stroke-width:4; stroke-opacity:1; fill:none" points="1462.12,1486.45 1462.12,1467.55 "/>
<polyline clip-path="url(#clip710)" style="stroke:#000000; stroke-linecap:round; stroke-linejoin:round; stroke-width:4; stroke-opacity:1; fill:none" points="1876.77,1486.45 1876.77,1467.55 "/>
<polyline clip-path="url(#clip710)" style="stroke:#000000; stroke-linecap:round; stroke-linejoin:round; stroke-width:4; stroke-opacity:1; fill:none" points="2291.41,1486.45 2291.41,1467.55 "/>
<path clip-path="url(#clip710)" d="M218.191 1517.37 Q214.58 1517.37 212.752 1520.93 Q210.946 1524.47 210.946 1531.6 Q210.946 1538.71 212.752 1542.27 Q214.58 1545.82 218.191 1545.82 Q221.826 1545.82 223.631 1542.27 Q225.46 1538.71 225.46 1531.6 Q225.46 1524.47 223.631 1520.93 Q221.826 1517.37 218.191 1517.37 M218.191 1513.66 Q224.001 1513.66 227.057 1518.27 Q230.136 1522.85 230.136 1531.6 Q230.136 1540.33 227.057 1544.94 Q224.001 1549.52 218.191 1549.52 Q212.381 1549.52 209.302 1544.94 Q206.247 1540.33 206.247 1531.6 Q206.247 1522.85 209.302 1518.27 Q212.381 1513.66 218.191 1513.66 Z" fill="#000000" fill-rule="nonzero" fill-opacity="1" /><path clip-path="url(#clip710)" d="M592.454 1514.29 L610.81 1514.29 L610.81 1518.22 L596.736 1518.22 L596.736 1526.7 Q597.755 1526.35 598.773 1526.19 Q599.792 1526 600.81 1526 Q606.597 1526 609.977 1529.17 Q613.357 1532.34 613.357 1537.76 Q613.357 1543.34 609.884 1546.44 Q606.412 1549.52 600.093 1549.52 Q597.917 1549.52 595.648 1549.15 Q593.403 1548.78 590.996 1548.04 L590.996 1543.34 Q593.079 1544.47 595.301 1545.03 Q597.523 1545.58 600 1545.58 Q604.005 1545.58 606.343 1543.48 Q608.681 1541.37 608.681 1537.76 Q608.681 1534.15 606.343 1532.04 Q604.005 1529.94 600 1529.94 Q598.125 1529.94 596.25 1530.35 Q594.398 1530.77 592.454 1531.65 L592.454 1514.29 Z" fill="#000000" fill-rule="nonzero" fill-opacity="1" /><path clip-path="url(#clip710)" d="M632.57 1517.37 Q628.958 1517.37 627.13 1520.93 Q625.324 1524.47 625.324 1531.6 Q625.324 1538.71 627.13 1542.27 Q628.958 1545.82 632.57 1545.82 Q636.204 1545.82 638.009 1542.27 Q639.838 1538.71 639.838 1531.6 Q639.838 1524.47 638.009 1520.93 Q636.204 1517.37 632.57 1517.37 M632.57 1513.66 Q638.38 1513.66 641.435 1518.27 Q644.514 1522.85 644.514 1531.6 Q644.514 1540.33 641.435 1544.94 Q638.38 1549.52 632.57 1549.52 Q626.759 1549.52 623.681 1544.94 Q620.625 1540.33 620.625 1531.6 Q620.625 1522.85 623.681 1518.27 Q626.759 1513.66 632.57 1513.66 Z" fill="#000000" fill-rule="nonzero" fill-opacity="1" /><path clip-path="url(#clip710)" d="M662.731 1517.37 Q659.12 1517.37 657.292 1520.93 Q655.486 1524.47 655.486 1531.6 Q655.486 1538.71 657.292 1542.27 Q659.12 1545.82 662.731 1545.82 Q666.366 1545.82 668.171 1542.27 Q670 1538.71 670 1531.6 Q670 1524.47 668.171 1520.93 Q666.366 1517.37 662.731 1517.37 M662.731 1513.66 Q668.542 1513.66 671.597 1518.27 Q674.676 1522.85 674.676 1531.6 Q674.676 1540.33 671.597 1544.94 Q668.542 1549.52 662.731 1549.52 Q656.921 1549.52 653.843 1544.94 Q650.787 1540.33 650.787 1531.6 Q650.787 1522.85 653.843 1518.27 Q656.921 1513.66 662.731 1513.66 Z" fill="#000000" fill-rule="nonzero" fill-opacity="1" /><path clip-path="url(#clip710)" d="M992.006 1544.91 L999.645 1544.91 L999.645 1518.55 L991.335 1520.21 L991.335 1515.95 L999.598 1514.29 L1004.27 1514.29 L1004.27 1544.91 L1011.91 1544.91 L1011.91 1548.85 L992.006 1548.85 L992.006 1544.91 Z" fill="#000000" fill-rule="nonzero" fill-opacity="1" /><path clip-path="url(#clip710)" d="M1031.36 1517.37 Q1027.75 1517.37 1025.92 1520.93 Q1024.11 1524.47 1024.11 1531.6 Q1024.11 1538.71 1025.92 1542.27 Q1027.75 1545.82 1031.36 1545.82 Q1034.99 1545.82 1036.8 1542.27 Q1038.63 1538.71 1038.63 1531.6 Q1038.63 1524.47 1036.8 1520.93 Q1034.99 1517.37 1031.36 1517.37 M1031.36 1513.66 Q1037.17 1513.66 1040.22 1518.27 Q1043.3 1522.85 1043.3 1531.6 Q1043.3 1540.33 1040.22 1544.94 Q1037.17 1549.52 1031.36 1549.52 Q1025.55 1549.52 1022.47 1544.94 Q1019.41 1540.33 1019.41 1531.6 Q1019.41 1522.85 1022.47 1518.27 Q1025.55 1513.66 1031.36 1513.66 Z" fill="#000000" fill-rule="nonzero" fill-opacity="1" /><path clip-path="url(#clip710)" d="M1061.52 1517.37 Q1057.91 1517.37 1056.08 1520.93 Q1054.27 1524.47 1054.27 1531.6 Q1054.27 1538.71 1056.08 1542.27 Q1057.91 1545.82 1061.52 1545.82 Q1065.15 1545.82 1066.96 1542.27 Q1068.79 1538.71 1068.79 1531.6 Q1068.79 1524.47 1066.96 1520.93 Q1065.15 1517.37 1061.52 1517.37 M1061.52 1513.66 Q1067.33 1513.66 1070.39 1518.27 Q1073.46 1522.85 1073.46 1531.6 Q1073.46 1540.33 1070.39 1544.94 Q1067.33 1549.52 1061.52 1549.52 Q1055.71 1549.52 1052.63 1544.94 Q1049.58 1540.33 1049.58 1531.6 Q1049.58 1522.85 1052.63 1518.27 Q1055.71 1513.66 1061.52 1513.66 Z" fill="#000000" fill-rule="nonzero" fill-opacity="1" /><path clip-path="url(#clip710)" d="M1091.68 1517.37 Q1088.07 1517.37 1086.24 1520.93 Q1084.44 1524.47 1084.44 1531.6 Q1084.44 1538.71 1086.24 1542.27 Q1088.07 1545.82 1091.68 1545.82 Q1095.32 1545.82 1097.12 1542.27 Q1098.95 1538.71 1098.95 1531.6 Q1098.95 1524.47 1097.12 1520.93 Q1095.32 1517.37 1091.68 1517.37 M1091.68 1513.66 Q1097.49 1513.66 1100.55 1518.27 Q1103.63 1522.85 1103.63 1531.6 Q1103.63 1540.33 1100.55 1544.94 Q1097.49 1549.52 1091.68 1549.52 Q1085.87 1549.52 1082.79 1544.94 Q1079.74 1540.33 1079.74 1531.6 Q1079.74 1522.85 1082.79 1518.27 Q1085.87 1513.66 1091.68 1513.66 Z" fill="#000000" fill-rule="nonzero" fill-opacity="1" /><path clip-path="url(#clip710)" d="M1406.65 1544.91 L1414.29 1544.91 L1414.29 1518.55 L1405.98 1520.21 L1405.98 1515.95 L1414.24 1514.29 L1418.92 1514.29 L1418.92 1544.91 L1426.56 1544.91 L1426.56 1548.85 L1406.65 1548.85 L1406.65 1544.91 Z" fill="#000000" fill-rule="nonzero" fill-opacity="1" /><path clip-path="url(#clip710)" d="M1436.05 1514.29 L1454.4 1514.29 L1454.4 1518.22 L1440.33 1518.22 L1440.33 1526.7 Q1441.35 1526.35 1442.37 1526.19 Q1443.39 1526 1444.4 1526 Q1450.19 1526 1453.57 1529.17 Q1456.95 1532.34 1456.95 1537.76 Q1456.95 1543.34 1453.48 1546.44 Q1450.01 1549.52 1443.69 1549.52 Q1441.51 1549.52 1439.24 1549.15 Q1437 1548.78 1434.59 1548.04 L1434.59 1543.34 Q1436.67 1544.47 1438.9 1545.03 Q1441.12 1545.58 1443.59 1545.58 Q1447.6 1545.58 1449.94 1543.48 Q1452.28 1541.37 1452.28 1537.76 Q1452.28 1534.15 1449.94 1532.04 Q1447.6 1529.94 1443.59 1529.94 Q1441.72 1529.94 1439.84 1530.35 Q1437.99 1530.77 1436.05 1531.65 L1436.05 1514.29 Z" fill="#000000" fill-rule="nonzero" fill-opacity="1" /><path clip-path="url(#clip710)" d="M1476.16 1517.37 Q1472.55 1517.37 1470.72 1520.93 Q1468.92 1524.47 1468.92 1531.6 Q1468.92 1538.71 1470.72 1542.27 Q1472.55 1545.82 1476.16 1545.82 Q1479.8 1545.82 1481.6 1542.27 Q1483.43 1538.71 1483.43 1531.6 Q1483.43 1524.47 1481.6 1520.93 Q1479.8 1517.37 1476.16 1517.37 M1476.16 1513.66 Q1481.97 1513.66 1485.03 1518.27 Q1488.11 1522.85 1488.11 1531.6 Q1488.11 1540.33 1485.03 1544.94 Q1481.97 1549.52 1476.16 1549.52 Q1470.35 1549.52 1467.28 1544.94 Q1464.22 1540.33 1464.22 1531.6 Q1464.22 1522.85 1467.28 1518.27 Q1470.35 1513.66 1476.16 1513.66 Z" fill="#000000" fill-rule="nonzero" fill-opacity="1" /><path clip-path="url(#clip710)" d="M1506.33 1517.37 Q1502.71 1517.37 1500.89 1520.93 Q1499.08 1524.47 1499.08 1531.6 Q1499.08 1538.71 1500.89 1542.27 Q1502.71 1545.82 1506.33 1545.82 Q1509.96 1545.82 1511.77 1542.27 Q1513.59 1538.71 1513.59 1531.6 Q1513.59 1524.47 1511.77 1520.93 Q1509.96 1517.37 1506.33 1517.37 M1506.33 1513.66 Q1512.14 1513.66 1515.19 1518.27 Q1518.27 1522.85 1518.27 1531.6 Q1518.27 1540.33 1515.19 1544.94 Q1512.14 1549.52 1506.33 1549.52 Q1500.52 1549.52 1497.44 1544.94 Q1494.38 1540.33 1494.38 1531.6 Q1494.38 1522.85 1497.44 1518.27 Q1500.52 1513.66 1506.33 1513.66 Z" fill="#000000" fill-rule="nonzero" fill-opacity="1" /><path clip-path="url(#clip710)" d="M1825.38 1544.91 L1841.7 1544.91 L1841.7 1548.85 L1819.76 1548.85 L1819.76 1544.91 Q1822.42 1542.16 1827 1537.53 Q1831.61 1532.88 1832.79 1531.53 Q1835.03 1529.01 1835.91 1527.27 Q1836.82 1525.51 1836.82 1523.82 Q1836.82 1521.07 1834.87 1519.33 Q1832.95 1517.6 1829.85 1517.6 Q1827.65 1517.6 1825.2 1518.36 Q1822.76 1519.13 1819.99 1520.68 L1819.99 1515.95 Q1822.81 1514.82 1825.26 1514.24 Q1827.72 1513.66 1829.76 1513.66 Q1835.13 1513.66 1838.32 1516.35 Q1841.51 1519.03 1841.51 1523.52 Q1841.51 1525.65 1840.7 1527.57 Q1839.92 1529.47 1837.81 1532.07 Q1837.23 1532.74 1834.13 1535.95 Q1831.03 1539.15 1825.38 1544.91 Z" fill="#000000" fill-rule="nonzero" fill-opacity="1" /><path clip-path="url(#clip710)" d="M1861.51 1517.37 Q1857.9 1517.37 1856.07 1520.93 Q1854.27 1524.47 1854.27 1531.6 Q1854.27 1538.71 1856.07 1542.27 Q1857.9 1545.82 1861.51 1545.82 Q1865.15 1545.82 1866.95 1542.27 Q1868.78 1538.71 1868.78 1531.6 Q1868.78 1524.47 1866.95 1520.93 Q1865.15 1517.37 1861.51 1517.37 M1861.51 1513.66 Q1867.32 1513.66 1870.38 1518.27 Q1873.46 1522.85 1873.46 1531.6 Q1873.46 1540.33 1870.38 1544.94 Q1867.32 1549.52 1861.51 1549.52 Q1855.7 1549.52 1852.63 1544.94 Q1849.57 1540.33 1849.57 1531.6 Q1849.57 1522.85 1852.63 1518.27 Q1855.7 1513.66 1861.51 1513.66 Z" fill="#000000" fill-rule="nonzero" fill-opacity="1" /><path clip-path="url(#clip710)" d="M1891.68 1517.37 Q1888.07 1517.37 1886.24 1520.93 Q1884.43 1524.47 1884.43 1531.6 Q1884.43 1538.71 1886.24 1542.27 Q1888.07 1545.82 1891.68 1545.82 Q1895.31 1545.82 1897.12 1542.27 Q1898.94 1538.71 1898.94 1531.6 Q1898.94 1524.47 1897.12 1520.93 Q1895.31 1517.37 1891.68 1517.37 M1891.68 1513.66 Q1897.49 1513.66 1900.54 1518.27 Q1903.62 1522.85 1903.62 1531.6 Q1903.62 1540.33 1900.54 1544.94 Q1897.49 1549.52 1891.68 1549.52 Q1885.87 1549.52 1882.79 1544.94 Q1879.73 1540.33 1879.73 1531.6 Q1879.73 1522.85 1882.79 1518.27 Q1885.87 1513.66 1891.68 1513.66 Z" fill="#000000" fill-rule="nonzero" fill-opacity="1" /><path clip-path="url(#clip710)" d="M1921.84 1517.37 Q1918.23 1517.37 1916.4 1520.93 Q1914.59 1524.47 1914.59 1531.6 Q1914.59 1538.71 1916.4 1542.27 Q1918.23 1545.82 1921.84 1545.82 Q1925.47 1545.82 1927.28 1542.27 Q1929.11 1538.71 1929.11 1531.6 Q1929.11 1524.47 1927.28 1520.93 Q1925.47 1517.37 1921.84 1517.37 M1921.84 1513.66 Q1927.65 1513.66 1930.7 1518.27 Q1933.78 1522.85 1933.78 1531.6 Q1933.78 1540.33 1930.7 1544.94 Q1927.65 1549.52 1921.84 1549.52 Q1916.03 1549.52 1912.95 1544.94 Q1909.89 1540.33 1909.89 1531.6 Q1909.89 1522.85 1912.95 1518.27 Q1916.03 1513.66 1921.84 1513.66 Z" fill="#000000" fill-rule="nonzero" fill-opacity="1" /><path clip-path="url(#clip710)" d="M2240.02 1544.91 L2256.34 1544.91 L2256.34 1548.85 L2234.4 1548.85 L2234.4 1544.91 Q2237.06 1542.16 2241.65 1537.53 Q2246.25 1532.88 2247.43 1531.53 Q2249.68 1529.01 2250.56 1527.27 Q2251.46 1525.51 2251.46 1523.82 Q2251.46 1521.07 2249.52 1519.33 Q2247.59 1517.6 2244.49 1517.6 Q2242.29 1517.6 2239.84 1518.36 Q2237.41 1519.13 2234.63 1520.68 L2234.63 1515.95 Q2237.46 1514.82 2239.91 1514.24 Q2242.36 1513.66 2244.4 1513.66 Q2249.77 1513.66 2252.96 1516.35 Q2256.16 1519.03 2256.16 1523.52 Q2256.16 1525.65 2255.35 1527.57 Q2254.56 1529.47 2252.46 1532.07 Q2251.88 1532.74 2248.77 1535.95 Q2245.67 1539.15 2240.02 1544.91 Z" fill="#000000" fill-rule="nonzero" fill-opacity="1" /><path clip-path="url(#clip710)" d="M2266.21 1514.29 L2284.56 1514.29 L2284.56 1518.22 L2270.49 1518.22 L2270.49 1526.7 Q2271.51 1526.35 2272.52 1526.19 Q2273.54 1526 2274.56 1526 Q2280.35 1526 2283.73 1529.17 Q2287.11 1532.34 2287.11 1537.76 Q2287.11 1543.34 2283.64 1546.44 Q2280.16 1549.52 2273.84 1549.52 Q2271.67 1549.52 2269.4 1549.15 Q2267.15 1548.78 2264.75 1548.04 L2264.75 1543.34 Q2266.83 1544.47 2269.05 1545.03 Q2271.27 1545.58 2273.75 1545.58 Q2277.76 1545.58 2280.09 1543.48 Q2282.43 1541.37 2282.43 1537.76 Q2282.43 1534.15 2280.09 1532.04 Q2277.76 1529.94 2273.75 1529.94 Q2271.88 1529.94 2270 1530.35 Q2268.15 1530.77 2266.21 1531.65 L2266.21 1514.29 Z" fill="#000000" fill-rule="nonzero" fill-opacity="1" /><path clip-path="url(#clip710)" d="M2306.32 1517.37 Q2302.71 1517.37 2300.88 1520.93 Q2299.08 1524.47 2299.08 1531.6 Q2299.08 1538.71 2300.88 1542.27 Q2302.71 1545.82 2306.32 1545.82 Q2309.95 1545.82 2311.76 1542.27 Q2313.59 1538.71 2313.59 1531.6 Q2313.59 1524.47 2311.76 1520.93 Q2309.95 1517.37 2306.32 1517.37 M2306.32 1513.66 Q2312.13 1513.66 2315.19 1518.27 Q2318.27 1522.85 2318.27 1531.6 Q2318.27 1540.33 2315.19 1544.94 Q2312.13 1549.52 2306.32 1549.52 Q2300.51 1549.52 2297.43 1544.94 Q2294.38 1540.33 2294.38 1531.6 Q2294.38 1522.85 2297.43 1518.27 Q2300.51 1513.66 2306.32 1513.66 Z" fill="#000000" fill-rule="nonzero" fill-opacity="1" /><path clip-path="url(#clip710)" d="M2336.48 1517.37 Q2332.87 1517.37 2331.04 1520.93 Q2329.24 1524.47 2329.24 1531.6 Q2329.24 1538.71 2331.04 1542.27 Q2332.87 1545.82 2336.48 1545.82 Q2340.12 1545.82 2341.92 1542.27 Q2343.75 1538.71 2343.75 1531.6 Q2343.75 1524.47 2341.92 1520.93 Q2340.12 1517.37 2336.48 1517.37 M2336.48 1513.66 Q2342.29 1513.66 2345.35 1518.27 Q2348.43 1522.85 2348.43 1531.6 Q2348.43 1540.33 2345.35 1544.94 Q2342.29 1549.52 2336.48 1549.52 Q2330.67 1549.52 2327.59 1544.94 Q2324.54 1540.33 2324.54 1531.6 Q2324.54 1522.85 2327.59 1518.27 Q2330.67 1513.66 2336.48 1513.66 Z" fill="#000000" fill-rule="nonzero" fill-opacity="1" /><polyline clip-path="url(#clip712)" style="stroke:#000000; stroke-linecap:round; stroke-linejoin:round; stroke-width:2; stroke-opacity:0.1; fill:none" points="156.02,1152.27 2352.76,1152.27 "/>
<polyline clip-path="url(#clip712)" style="stroke:#000000; stroke-linecap:round; stroke-linejoin:round; stroke-width:2; stroke-opacity:0.1; fill:none" points="156.02,797.505 2352.76,797.505 "/>
<polyline clip-path="url(#clip712)" style="stroke:#000000; stroke-linecap:round; stroke-linejoin:round; stroke-width:2; stroke-opacity:0.1; fill:none" points="156.02,442.74 2352.76,442.74 "/>
<polyline clip-path="url(#clip712)" style="stroke:#000000; stroke-linecap:round; stroke-linejoin:round; stroke-width:2; stroke-opacity:0.1; fill:none" points="156.02,87.9763 2352.76,87.9763 "/>
<polyline clip-path="url(#clip710)" style="stroke:#000000; stroke-linecap:round; stroke-linejoin:round; stroke-width:4; stroke-opacity:1; fill:none" points="156.02,1486.45 156.02,47.2441 "/>
<polyline clip-path="url(#clip710)" style="stroke:#000000; stroke-linecap:round; stroke-linejoin:round; stroke-width:4; stroke-opacity:1; fill:none" points="156.02,1152.27 174.917,1152.27 "/>
<polyline clip-path="url(#clip710)" style="stroke:#000000; stroke-linecap:round; stroke-linejoin:round; stroke-width:4; stroke-opacity:1; fill:none" points="156.02,797.505 174.917,797.505 "/>
<polyline clip-path="url(#clip710)" style="stroke:#000000; stroke-linecap:round; stroke-linejoin:round; stroke-width:4; stroke-opacity:1; fill:none" points="156.02,442.74 174.917,442.74 "/>
<polyline clip-path="url(#clip710)" style="stroke:#000000; stroke-linecap:round; stroke-linejoin:round; stroke-width:4; stroke-opacity:1; fill:none" points="156.02,87.9763 174.917,87.9763 "/>
<path clip-path="url(#clip710)" d="M63.7467 1138.07 Q60.1356 1138.07 58.3069 1141.63 Q56.5014 1145.17 56.5014 1152.3 Q56.5014 1159.41 58.3069 1162.97 Q60.1356 1166.52 63.7467 1166.52 Q67.3809 1166.52 69.1865 1162.97 Q71.0152 1159.41 71.0152 1152.3 Q71.0152 1145.17 69.1865 1141.63 Q67.3809 1138.07 63.7467 1138.07 M63.7467 1134.36 Q69.5568 1134.36 72.6124 1138.97 Q75.6911 1143.55 75.6911 1152.3 Q75.6911 1161.03 72.6124 1165.64 Q69.5568 1170.22 63.7467 1170.22 Q57.9365 1170.22 54.8578 1165.64 Q51.8023 1161.03 51.8023 1152.3 Q51.8023 1143.55 54.8578 1138.97 Q57.9365 1134.36 63.7467 1134.36 Z" fill="#000000" fill-rule="nonzero" fill-opacity="1" /><path clip-path="url(#clip710)" d="M83.9086 1163.67 L88.7928 1163.67 L88.7928 1169.55 L83.9086 1169.55 L83.9086 1163.67 Z" fill="#000000" fill-rule="nonzero" fill-opacity="1" /><path clip-path="url(#clip710)" d="M97.7974 1134.99 L120.02 1134.99 L120.02 1136.98 L107.473 1169.55 L102.589 1169.55 L114.395 1138.92 L97.7974 1138.92 L97.7974 1134.99 Z" fill="#000000" fill-rule="nonzero" fill-opacity="1" /><path clip-path="url(#clip710)" d="M62.9365 783.303 Q59.3254 783.303 57.4967 786.868 Q55.6912 790.41 55.6912 797.539 Q55.6912 804.646 57.4967 808.211 Q59.3254 811.752 62.9365 811.752 Q66.5707 811.752 68.3763 808.211 Q70.205 804.646 70.205 797.539 Q70.205 790.41 68.3763 786.868 Q66.5707 783.303 62.9365 783.303 M62.9365 779.6 Q68.7467 779.6 71.8022 784.206 Q74.8809 788.789 74.8809 797.539 Q74.8809 806.266 71.8022 810.873 Q68.7467 815.456 62.9365 815.456 Q57.1264 815.456 54.0477 810.873 Q50.9921 806.266 50.9921 797.539 Q50.9921 788.789 54.0477 784.206 Q57.1264 779.6 62.9365 779.6 Z" fill="#000000" fill-rule="nonzero" fill-opacity="1" /><path clip-path="url(#clip710)" d="M83.0984 808.905 L87.9827 808.905 L87.9827 814.785 L83.0984 814.785 L83.0984 808.905 Z" fill="#000000" fill-rule="nonzero" fill-opacity="1" /><path clip-path="url(#clip710)" d="M108.168 798.373 Q104.834 798.373 102.913 800.155 Q101.015 801.937 101.015 805.062 Q101.015 808.187 102.913 809.97 Q104.834 811.752 108.168 811.752 Q111.501 811.752 113.422 809.97 Q115.344 808.164 115.344 805.062 Q115.344 801.937 113.422 800.155 Q111.524 798.373 108.168 798.373 M103.492 796.382 Q100.483 795.641 98.7928 793.581 Q97.1261 791.521 97.1261 788.558 Q97.1261 784.414 100.066 782.007 Q103.029 779.6 108.168 779.6 Q113.33 779.6 116.27 782.007 Q119.209 784.414 119.209 788.558 Q119.209 791.521 117.52 793.581 Q115.853 795.641 112.867 796.382 Q116.246 797.169 118.121 799.461 Q120.02 801.752 120.02 805.062 Q120.02 810.086 116.941 812.771 Q113.885 815.456 108.168 815.456 Q102.45 815.456 99.3715 812.771 Q96.316 810.086 96.316 805.062 Q96.316 801.752 98.2141 799.461 Q100.112 797.169 103.492 796.382 M101.779 788.998 Q101.779 791.683 103.446 793.188 Q105.135 794.692 108.168 794.692 Q111.177 794.692 112.867 793.188 Q114.58 791.683 114.58 788.998 Q114.58 786.313 112.867 784.808 Q111.177 783.303 108.168 783.303 Q105.135 783.303 103.446 784.808 Q101.779 786.313 101.779 788.998 Z" fill="#000000" fill-rule="nonzero" fill-opacity="1" /><path clip-path="url(#clip710)" d="M63.0291 428.539 Q59.418 428.539 57.5893 432.104 Q55.7838 435.646 55.7838 442.775 Q55.7838 449.882 57.5893 453.446 Q59.418 456.988 63.0291 456.988 Q66.6633 456.988 68.4689 453.446 Q70.2976 449.882 70.2976 442.775 Q70.2976 435.646 68.4689 432.104 Q66.6633 428.539 63.0291 428.539 M63.0291 424.835 Q68.8393 424.835 71.8948 429.442 Q74.9735 434.025 74.9735 442.775 Q74.9735 451.502 71.8948 456.108 Q68.8393 460.692 63.0291 460.692 Q57.2189 460.692 54.1403 456.108 Q51.0847 451.502 51.0847 442.775 Q51.0847 434.025 54.1403 429.442 Q57.2189 424.835 63.0291 424.835 Z" fill="#000000" fill-rule="nonzero" fill-opacity="1" /><path clip-path="url(#clip710)" d="M83.191 454.141 L88.0753 454.141 L88.0753 460.02 L83.191 460.02 L83.191 454.141 Z" fill="#000000" fill-rule="nonzero" fill-opacity="1" /><path clip-path="url(#clip710)" d="M98.3993 459.303 L98.3993 455.044 Q100.159 455.877 101.964 456.317 Q103.77 456.757 105.506 456.757 Q110.135 456.757 112.566 453.655 Q115.02 450.53 115.367 444.187 Q114.024 446.178 111.964 447.243 Q109.904 448.308 107.404 448.308 Q102.219 448.308 99.1863 445.183 Q96.1771 442.034 96.1771 436.595 Q96.1771 431.271 99.3252 428.053 Q102.473 424.835 107.705 424.835 Q113.7 424.835 116.848 429.442 Q120.02 434.025 120.02 442.775 Q120.02 450.946 116.131 455.831 Q112.265 460.692 105.714 460.692 Q103.955 460.692 102.149 460.345 Q100.344 459.997 98.3993 459.303 M107.705 444.65 Q110.853 444.65 112.682 442.497 Q114.533 440.345 114.533 436.595 Q114.533 432.868 112.682 430.715 Q110.853 428.539 107.705 428.539 Q104.557 428.539 102.705 430.715 Q100.876 432.868 100.876 436.595 Q100.876 440.345 102.705 442.497 Q104.557 444.65 107.705 444.65 Z" fill="#000000" fill-rule="nonzero" fill-opacity="1" /><path clip-path="url(#clip710)" d="M53.6541 101.321 L61.293 101.321 L61.293 74.9555 L52.9829 76.6222 L52.9829 72.3629 L61.2467 70.6963 L65.9226 70.6963 L65.9226 101.321 L73.5614 101.321 L73.5614 105.256 L53.6541 105.256 L53.6541 101.321 Z" fill="#000000" fill-rule="nonzero" fill-opacity="1" /><path clip-path="url(#clip710)" d="M83.0058 99.3767 L87.8901 99.3767 L87.8901 105.256 L83.0058 105.256 L83.0058 99.3767 Z" fill="#000000" fill-rule="nonzero" fill-opacity="1" /><path clip-path="url(#clip710)" d="M108.075 73.775 Q104.464 73.775 102.635 77.3398 Q100.83 80.8814 100.83 88.011 Q100.83 95.1174 102.635 98.6822 Q104.464 102.224 108.075 102.224 Q111.709 102.224 113.515 98.6822 Q115.344 95.1174 115.344 88.011 Q115.344 80.8814 113.515 77.3398 Q111.709 73.775 108.075 73.775 M108.075 70.0713 Q113.885 70.0713 116.941 74.6777 Q120.02 79.261 120.02 88.011 Q120.02 96.7378 116.941 101.344 Q113.885 105.928 108.075 105.928 Q102.265 105.928 99.1863 101.344 Q96.1308 96.7378 96.1308 88.011 Q96.1308 79.261 99.1863 74.6777 Q102.265 70.0713 108.075 70.0713 Z" fill="#000000" fill-rule="nonzero" fill-opacity="1" /><polyline clip-path="url(#clip712)" style="stroke:#009af9; stroke-linecap:round; stroke-linejoin:round; stroke-width:4; stroke-opacity:1; fill:none" points="218.191,1270.52 219.021,1432.11 219.85,1254.65 220.679,1324.45 221.508,1230.44 222.338,1230.44 223.167,1146.04 223.996,1074.14 224.826,1128.45 225.655,1445.72 226.484,1046.1 227.313,1083.36 228.143,842.199 228.972,1007.74 229.801,1074.14 230.631,1074.14 231.46,917.119 232.289,1101.59 233.119,937.792 233.948,885.508 234.777,1146.04 235.606,1092.51 236.436,1154.75 237.265,968.218 238.094,842.199 238.924,1092.51 239.753,1036.61 240.582,1036.61 241.411,896.126 242.241,727.715 243.07,948.011 243.899,906.663 244.729,808.812 245.558,820.029 246.387,874.807 247.216,937.792 248.046,727.715 248.875,691.517 249.704,703.683 250.534,751.356 251.363,864.023 252.192,715.748 253.021,577.306 253.851,679.25 254.68,691.517 255.509,797.505 256.339,896.126 257.168,641.828 257.997,666.88 258.826,537.241 259.656,751.356 260.485,715.748 261.314,666.88 262.144,679.25 262.973,590.432 263.802,703.683 264.631,629.142 265.461,751.356 266.29,691.517 267.119,679.25 267.949,590.432 268.778,703.683 269.607,885.508 270.437,616.348 271.266,679.25 272.095,641.828 272.924,666.88 273.754,496.112 274.583,654.406 275.412,603.446 276.242,629.142 277.071,751.356 277.9,654.406 278.729,629.142 279.559,537.241 280.388,564.067 281.217,691.517 282.047,496.112 282.876,577.306 283.705,590.432 284.534,496.112 285.364,703.683 286.193,439.544 287.022,654.406 287.852,603.446 288.681,590.432 289.51,727.715 290.339,616.348 291.169,496.112 291.998,616.348 292.827,537.241 293.657,523.652 294.486,482.159 295.315,577.306 296.144,453.877 296.974,577.306 297.803,577.306 298.632,365.902 299.462,523.652 300.291,350.765 301.12,482.159 301.949,523.652 302.779,564.067 303.608,537.241 304.437,509.942 305.267,468.081 306.096,523.652 306.925,425.083 307.755,537.241 308.584,468.081 309.413,439.544 310.242,439.544 311.072,468.081 311.901,550.712 312.73,537.241 313.56,350.765 314.389,550.712 315.218,468.081 316.047,425.083 316.877,496.112 317.706,453.877 318.535,496.112 319.365,439.544 320.194,335.486 321.023,425.083 321.852,380.901 322.682,453.877 323.511,482.159 324.34,537.241 325.17,320.065 325.999,350.765 326.828,482.159 327.657,395.763 328.487,365.902 329.316,365.902 330.145,320.065 330.975,482.159 331.804,523.652 332.633,425.083 333.462,288.786 334.292,509.942 335.121,410.489 335.95,304.499 336.78,335.486 337.609,288.786 338.438,335.486 339.267,320.065 340.097,410.489 340.926,320.065 341.755,288.786 342.585,288.786 343.414,468.081 344.243,365.902 345.073,439.544 345.902,304.499 346.731,320.065 347.56,320.065 348.39,410.489 349.219,304.499 350.048,320.065 350.878,395.763 351.707,335.486 352.536,288.786 353.365,509.942 354.195,320.065 355.024,350.765 355.853,224.424 356.683,335.486 357.512,350.765 358.341,350.765 359.17,240.746 360,320.065 360.829,365.902 361.658,365.902 362.488,304.499 363.317,365.902 364.146,425.083 364.975,380.901 365.805,207.945 366.634,335.486 367.463,240.746 368.293,425.083 369.122,335.486 369.951,335.486 370.78,425.083 371.61,425.083 372.439,256.912 373.268,320.065 374.098,272.924 374.927,395.763 375.756,256.912 376.585,288.786 377.415,304.499 378.244,320.065 379.073,380.901 379.903,272.924 380.732,240.746 381.561,272.924 382.391,365.902 383.22,191.306 384.049,288.786 384.878,272.924 385.708,365.902 386.537,365.902 387.366,224.424 388.196,207.945 389.025,350.765 389.854,256.912 390.683,224.424 391.513,240.746 392.342,224.424 393.171,240.746 394.001,288.786 394.83,304.499 395.659,288.786 396.488,256.912 397.318,350.765 398.147,240.746 398.976,272.924 399.806,304.499 400.635,240.746 401.464,272.924 402.293,272.924 403.123,207.945 403.952,272.924 404.781,288.786 405.611,272.924 406.44,224.424 407.269,174.504 408.098,191.306 408.928,272.924 409.757,240.746 410.586,272.924 411.416,240.746 412.245,224.424 413.074,256.912 413.903,157.538 414.733,157.538 415.562,256.912 416.391,224.424 417.221,174.504 418.05,224.424 418.879,224.424 419.709,256.912 420.538,207.945 421.367,350.765 422.196,256.912 423.026,304.499 423.855,272.924 424.684,272.924 425.514,304.499 426.343,240.746 427.172,272.924 428.001,157.538 428.831,320.065 429.66,272.924 430.489,240.746 431.319,288.786 432.148,224.424 432.977,240.746 433.806,157.538 434.636,240.746 435.465,256.912 436.294,272.924 437.124,224.424 437.953,174.504 438.782,224.424 439.611,157.538 440.441,207.945 441.27,191.306 442.099,224.424 442.929,224.424 443.758,207.945 444.587,288.786 445.416,304.499 446.246,224.424 447.075,140.404 447.904,191.306 448.734,240.746 449.563,288.786 450.392,224.424 451.221,272.924 452.051,174.504 452.88,256.912 453.709,207.945 454.539,256.912 455.368,256.912 456.197,174.504 457.027,174.504 457.856,207.945 458.685,174.504 459.514,174.504 460.344,304.499 461.173,123.101 462.002,140.404 462.832,174.504 463.661,224.424 464.49,224.424 465.319,174.504 466.149,224.424 466.978,140.404 467.807,157.538 468.637,157.538 469.466,207.945 470.295,174.504 471.124,224.424 471.954,157.538 472.783,157.538 473.612,191.306 474.442,174.504 475.271,191.306 476.1,256.912 476.929,123.101 477.759,240.746 478.588,256.912 479.417,207.945 480.247,256.912 481.076,240.746 481.905,240.746 482.734,191.306 483.564,191.306 484.393,207.945 485.222,191.306 486.052,272.924 486.881,207.945 487.71,207.945 488.539,191.306 489.369,207.945 490.198,207.945 491.027,191.306 491.857,272.924 492.686,207.945 493.515,157.538 494.345,174.504 495.174,174.504 496.003,207.945 496.832,157.538 497.662,123.101 498.491,207.945 499.32,207.945 500.15,191.306 500.979,191.306 501.808,191.306 502.637,224.424 503.467,224.424 504.296,157.538 505.125,140.404 505.955,224.424 506.784,207.945 507.613,191.306 508.442,191.306 509.272,191.306 510.101,207.945 510.93,174.504 511.76,157.538 512.589,207.945 513.418,174.504 514.247,140.404 515.077,174.504 515.906,191.306 516.735,191.306 517.565,157.538 518.394,157.538 519.223,224.424 520.052,191.306 520.882,240.746 521.711,123.101 522.54,157.538 523.37,140.404 524.199,191.306 525.028,140.404 525.857,123.101 526.687,123.101 527.516,174.504 528.345,240.746 529.175,240.746 530.004,207.945 530.833,123.101 531.662,224.424 532.492,174.504 533.321,207.945 534.15,157.538 534.98,140.404 535.809,140.404 536.638,174.504 537.468,157.538 538.297,157.538 539.126,174.504 539.955,224.424 540.785,174.504 541.614,191.306 542.443,157.538 543.273,157.538 544.102,191.306 544.931,207.945 545.76,240.746 546.59,191.306 547.419,140.404 548.248,140.404 549.078,157.538 549.907,157.538 550.736,105.626 551.565,240.746 552.395,174.504 553.224,224.424 554.053,240.746 554.883,174.504 555.712,174.504 556.541,140.404 557.37,157.538 558.2,157.538 559.029,140.404 559.858,140.404 560.688,105.626 561.517,123.101 562.346,105.626 563.175,140.404 564.005,140.404 564.834,87.9763 565.663,157.538 566.493,140.404 567.322,157.538 568.151,174.504 568.98,157.538 569.81,140.404 570.639,207.945 571.468,157.538 572.298,191.306 573.127,140.404 573.956,105.626 574.786,140.404 575.615,191.306 576.444,191.306 577.273,123.101 578.103,123.101 578.932,105.626 579.761,157.538 580.591,123.101 581.42,157.538 582.249,157.538 583.078,123.101 583.908,174.504 584.737,123.101 585.566,157.538 586.396,123.101 587.225,207.945 588.054,174.504 588.883,123.101 589.713,191.306 590.542,174.504 591.371,191.306 592.201,157.538 593.03,140.404 593.859,191.306 594.688,140.404 595.518,157.538 596.347,87.9763 597.176,191.306 598.006,140.404 598.835,157.538 599.664,157.538 600.493,191.306 601.323,157.538 602.152,123.101 602.981,191.306 603.811,224.424 604.64,140.404 605.469,123.101 606.298,174.504 607.128,105.626 607.957,191.306 608.786,157.538 609.616,174.504 610.445,105.626 611.274,207.945 612.104,140.404 612.933,123.101 613.762,140.404 614.591,105.626 615.421,191.306 616.25,174.504 617.079,191.306 617.909,174.504 618.738,123.101 619.567,207.945 620.396,140.404 621.226,191.306 622.055,157.538 622.884,140.404 623.714,191.306 624.543,140.404 625.372,191.306 626.201,123.101 627.031,157.538 627.86,157.538 628.689,140.404 629.519,157.538 630.348,174.504 631.177,174.504 632.006,157.538 632.836,157.538 633.665,157.538 634.494,157.538 635.324,123.101 636.153,174.504 636.982,174.504 637.811,140.404 638.641,105.626 639.47,140.404 640.299,157.538 641.129,140.404 641.958,123.101 642.787,140.404 643.616,140.404 644.446,157.538 645.275,140.404 646.104,105.626 646.934,157.538 647.763,157.538 648.592,140.404 649.422,140.404 650.251,140.404 651.08,140.404 651.909,140.404 652.739,105.626 653.568,123.101 654.397,105.626 655.227,157.538 656.056,105.626 656.885,140.404 657.714,123.101 658.544,207.945 659.373,123.101 660.202,87.9763 661.032,140.404 661.861,191.306 662.69,224.424 663.519,157.538 664.349,174.504 665.178,140.404 666.007,105.626 666.837,87.9763 667.666,157.538 668.495,123.101 669.324,207.945 670.154,157.538 670.983,123.101 671.812,123.101 672.642,105.626 673.471,87.9763 674.3,140.404 675.129,207.945 675.959,174.504 676.788,224.424 677.617,140.404 678.447,123.101 679.276,207.945 680.105,157.538 680.934,105.626 681.764,140.404 682.593,105.626 683.422,105.626 684.252,157.538 685.081,140.404 685.91,174.504 686.74,288.786 687.569,140.404 688.398,174.504 689.227,140.404 690.057,157.538 690.886,105.626 691.715,174.504 692.545,123.101 693.374,123.101 694.203,224.424 695.032,207.945 695.862,87.9763 696.691,157.538 697.52,140.404 698.35,140.404 699.179,140.404 700.008,191.306 700.837,140.404 701.667,157.538 702.496,140.404 703.325,105.626 704.155,87.9763 704.984,123.101 705.813,140.404 706.642,157.538 707.472,157.538 708.301,105.626 709.13,174.504 709.96,157.538 710.789,105.626 711.618,105.626 712.447,157.538 713.277,105.626 714.106,157.538 714.935,140.404 715.765,207.945 716.594,105.626 717.423,105.626 718.252,105.626 719.082,174.504 719.911,123.101 720.74,123.101 721.57,140.404 722.399,105.626 723.228,140.404 724.058,123.101 724.887,157.538 725.716,140.404 726.545,140.404 727.375,123.101 728.204,157.538 729.033,140.404 729.863,157.538 730.692,207.945 731.521,140.404 732.35,157.538 733.18,157.538 734.009,87.9763 734.838,123.101 735.668,105.626 736.497,174.504 737.326,140.404 738.155,157.538 738.985,157.538 739.814,87.9763 740.643,207.945 741.473,140.404 742.302,140.404 743.131,87.9763 743.96,157.538 744.79,174.504 745.619,87.9763 746.448,174.504 747.278,140.404 748.107,174.504 748.936,140.404 749.765,140.404 750.595,105.626 751.424,157.538 752.253,157.538 753.083,174.504 753.912,105.626 754.741,191.306 755.57,123.101 756.4,87.9763 757.229,105.626 758.058,87.9763 758.888,123.101 759.717,123.101 760.546,191.306 761.376,174.504 762.205,157.538 763.034,123.101 763.863,105.626 764.693,123.101 765.522,140.404 766.351,123.101 767.181,140.404 768.01,87.9763 768.839,157.538 769.668,191.306 770.498,157.538 771.327,105.626 772.156,123.101 772.986,140.404 773.815,174.504 774.644,140.404 775.473,157.538 776.303,174.504 777.132,123.101 777.961,87.9763 778.791,174.504 779.62,174.504 780.449,123.101 781.278,140.404 782.108,140.404 782.937,123.101 783.766,87.9763 784.596,123.101 785.425,174.504 786.254,123.101 787.083,87.9763 787.913,105.626 788.742,123.101 789.571,105.626 790.401,123.101 791.23,123.101 792.059,105.626 792.888,140.404 793.718,105.626 794.547,123.101 795.376,123.101 796.206,105.626 797.035,123.101 797.864,105.626 798.694,123.101 799.523,105.626 800.352,207.945 801.181,105.626 802.011,123.101 802.84,105.626 803.669,140.404 804.499,123.101 805.328,140.404 806.157,140.404 806.986,123.101 807.816,174.504 808.645,191.306 809.474,140.404 810.304,123.101 811.133,105.626 811.962,123.101 812.791,105.626 813.621,191.306 814.45,140.404 815.279,123.101 816.109,123.101 816.938,123.101 817.767,174.504 818.596,87.9763 819.426,140.404 820.255,157.538 821.084,123.101 821.914,123.101 822.743,105.626 823.572,140.404 824.401,140.404 825.231,140.404 826.06,105.626 826.889,123.101 827.719,191.306 828.548,105.626 829.377,157.538 830.206,157.538 831.036,140.404 831.865,123.101 832.694,174.504 833.524,140.404 834.353,123.101 835.182,123.101 836.012,157.538 836.841,157.538 837.67,105.626 838.499,105.626 839.329,140.404 840.158,105.626 840.987,105.626 841.817,140.404 842.646,123.101 843.475,191.306 844.304,105.626 845.134,123.101 845.963,87.9763 846.792,105.626 847.622,123.101 848.451,123.101 849.28,123.101 850.109,191.306 850.939,157.538 851.768,87.9763 852.597,157.538 853.427,123.101 854.256,105.626 855.085,105.626 855.914,105.626 856.744,157.538 857.573,123.101 858.402,87.9763 859.232,123.101 860.061,105.626 860.89,105.626 861.719,174.504 862.549,157.538 863.378,123.101 864.207,123.101 865.037,123.101 865.866,105.626 866.695,105.626 867.524,123.101 868.354,157.538 869.183,123.101 870.012,191.306 870.842,140.404 871.671,123.101 872.5,105.626 873.329,174.504 874.159,157.538 874.988,123.101 875.817,123.101 876.647,105.626 877.476,87.9763 878.305,105.626 879.135,123.101 879.964,140.404 880.793,140.404 881.622,105.626 882.452,87.9763 883.281,105.626 884.11,87.9763 884.94,140.404 885.769,123.101 886.598,157.538 887.427,140.404 888.257,123.101 889.086,123.101 889.915,105.626 890.745,157.538 891.574,105.626 892.403,174.504 893.232,87.9763 894.062,123.101 894.891,123.101 895.72,105.626 896.55,105.626 897.379,140.404 898.208,123.101 899.037,87.9763 899.867,123.101 900.696,105.626 901.525,87.9763 902.355,105.626 903.184,87.9763 904.013,140.404 904.842,105.626 905.672,105.626 906.501,191.306 907.33,123.101 908.16,157.538 908.989,157.538 909.818,140.404 910.647,87.9763 911.477,123.101 912.306,123.101 913.135,105.626 913.965,123.101 914.794,174.504 915.623,123.101 916.453,157.538 917.282,140.404 918.111,105.626 918.94,140.404 919.77,140.404 920.599,157.538 921.428,123.101 922.258,191.306 923.087,123.101 923.916,140.404 924.745,123.101 925.575,191.306 926.404,140.404 927.233,105.626 928.063,105.626 928.892,87.9763 929.721,123.101 930.55,105.626 931.38,87.9763 932.209,174.504 933.038,123.101 933.868,87.9763 934.697,87.9763 935.526,105.626 936.355,105.626 937.185,105.626 938.014,123.101 938.843,191.306 939.673,105.626 940.502,105.626 941.331,140.404 942.16,105.626 942.99,157.538 943.819,140.404 944.648,140.404 945.478,157.538 946.307,174.504 947.136,140.404 947.965,105.626 948.795,140.404 949.624,105.626 950.453,191.306 951.283,87.9763 952.112,105.626 952.941,140.404 953.771,140.404 954.6,140.404 955.429,157.538 956.258,123.101 957.088,105.626 957.917,105.626 958.746,105.626 959.576,157.538 960.405,87.9763 961.234,123.101 962.063,105.626 962.893,140.404 963.722,105.626 964.551,87.9763 965.381,123.101 966.21,87.9763 967.039,123.101 967.868,105.626 968.698,157.538 969.527,123.101 970.356,105.626 971.186,140.404 972.015,105.626 972.844,123.101 973.673,87.9763 974.503,105.626 975.332,105.626 976.161,123.101 976.991,105.626 977.82,105.626 978.649,123.101 979.478,87.9763 980.308,140.404 981.137,140.404 981.966,105.626 982.796,87.9763 983.625,105.626 984.454,123.101 985.283,87.9763 986.113,140.404 986.942,123.101 987.771,87.9763 988.601,140.404 989.43,87.9763 990.259,123.101 991.089,191.306 991.918,105.626 992.747,140.404 993.576,87.9763 994.406,123.101 995.235,123.101 996.064,140.404 996.894,140.404 997.723,123.101 998.552,123.101 999.381,123.101 1000.21,140.404 1001.04,140.404 1001.87,123.101 1002.7,105.626 1003.53,123.101 1004.36,123.101 1005.19,105.626 1006.02,105.626 1006.85,105.626 1007.67,123.101 1008.5,123.101 1009.33,140.404 1010.16,105.626 1010.99,140.404 1011.82,105.626 1012.65,140.404 1013.48,105.626 1014.31,157.538 1015.14,157.538 1015.97,140.404 1016.8,140.404 1017.63,105.626 1018.46,105.626 1019.28,105.626 1020.11,105.626 1020.94,123.101 1021.77,157.538 1022.6,87.9763 1023.43,123.101 1024.26,140.404 1025.09,87.9763 1025.92,105.626 1026.75,123.101 1027.58,140.404 1028.41,123.101 1029.24,105.626 1030.07,140.404 1030.89,123.101 1031.72,157.538 1032.55,87.9763 1033.38,140.404 1034.21,87.9763 1035.04,105.626 1035.87,105.626 1036.7,105.626 1037.53,123.101 1038.36,123.101 1039.19,140.404 1040.02,123.101 1040.85,87.9763 1041.68,123.101 1042.5,87.9763 1043.33,105.626 1044.16,123.101 1044.99,123.101 1045.82,123.101 1046.65,87.9763 1047.48,140.404 1048.31,105.626 1049.14,123.101 1049.97,123.101 1050.8,105.626 1051.63,140.404 1052.46,123.101 1053.29,123.101 1054.11,105.626 1054.94,105.626 1055.77,123.101 1056.6,174.504 1057.43,123.101 1058.26,87.9763 1059.09,105.626 1059.92,87.9763 1060.75,87.9763 1061.58,105.626 1062.41,140.404 1063.24,105.626 1064.07,87.9763 1064.9,123.101 1065.72,123.101 1066.55,140.404 1067.38,105.626 1068.21,157.538 1069.04,157.538 1069.87,123.101 1070.7,140.404 1071.53,105.626 1072.36,140.404 1073.19,140.404 1074.02,174.504 1074.85,140.404 1075.68,105.626 1076.51,174.504 1077.33,123.101 1078.16,123.101 1078.99,123.101 1079.82,191.306 1080.65,140.404 1081.48,105.626 1082.31,123.101 1083.14,123.101 1083.97,123.101 1084.8,140.404 1085.63,87.9763 1086.46,87.9763 1087.29,157.538 1088.12,105.626 1088.94,105.626 1089.77,157.538 1090.6,123.101 1091.43,123.101 1092.26,87.9763 1093.09,123.101 1093.92,123.101 1094.75,123.101 1095.58,157.538 1096.41,123.101 1097.24,87.9763 1098.07,105.626 1098.9,157.538 1099.73,140.404 1100.55,140.404 1101.38,123.101 1102.21,87.9763 1103.04,105.626 1103.87,123.101 1104.7,105.626 1105.53,123.101 1106.36,140.404 1107.19,157.538 1108.02,105.626 1108.85,105.626 1109.68,140.404 1110.51,105.626 1111.34,174.504 1112.16,105.626 1112.99,87.9763 1113.82,123.101 1114.65,105.626 1115.48,123.101 1116.31,87.9763 1117.14,123.101 1117.97,140.404 1118.8,123.101 1119.63,140.404 1120.46,105.626 1121.29,140.404 1122.12,105.626 1122.95,123.101 1123.77,105.626 1124.6,123.101 1125.43,105.626 1126.26,105.626 1127.09,105.626 1127.92,157.538 1128.75,157.538 1129.58,105.626 1130.41,123.101 1131.24,123.101 1132.07,105.626 1132.9,105.626 1133.73,123.101 1134.56,87.9763 1135.38,157.538 1136.21,105.626 1137.04,105.626 1137.87,87.9763 1138.7,87.9763 1139.53,105.626 1140.36,123.101 1141.19,87.9763 1142.02,105.626 1142.85,140.404 1143.68,87.9763 1144.51,123.101 1145.34,105.626 1146.17,157.538 1146.99,123.101 1147.82,87.9763 1148.65,105.626 1149.48,105.626 1150.31,87.9763 1151.14,105.626 1151.97,105.626 1152.8,87.9763 1153.63,174.504 1154.46,105.626 1155.29,105.626 1156.12,87.9763 1156.95,123.101 1157.78,105.626 1158.6,105.626 1159.43,87.9763 1160.26,105.626 1161.09,105.626 1161.92,123.101 1162.75,87.9763 1163.58,140.404 1164.41,87.9763 1165.24,105.626 1166.07,105.626 1166.9,105.626 1167.73,87.9763 1168.56,87.9763 1169.39,123.101 1170.21,123.101 1171.04,87.9763 1171.87,140.404 1172.7,87.9763 1173.53,123.101 1174.36,123.101 1175.19,105.626 1176.02,105.626 1176.85,174.504 1177.68,105.626 1178.51,140.404 1179.34,105.626 1180.17,105.626 1181,123.101 1181.82,105.626 1182.65,87.9763 1183.48,105.626 1184.31,105.626 1185.14,105.626 1185.97,87.9763 1186.8,105.626 1187.63,123.101 1188.46,123.101 1189.29,87.9763 1190.12,123.101 1190.95,105.626 1191.78,140.404 1192.61,87.9763 1193.43,105.626 1194.26,87.9763 1195.09,105.626 1195.92,105.626 1196.75,140.404 1197.58,140.404 1198.41,105.626 1199.24,87.9763 1200.07,87.9763 1200.9,140.404 1201.73,123.101 1202.56,123.101 1203.39,157.538 1204.22,157.538 1205.05,87.9763 1205.87,105.626 1206.7,87.9763 1207.53,123.101 1208.36,87.9763 1209.19,123.101 1210.02,105.626 1210.85,140.404 1211.68,105.626 1212.51,105.626 1213.34,123.101 1214.17,123.101 1215,105.626 1215.83,207.945 1216.66,123.101 1217.48,105.626 1218.31,87.9763 1219.14,105.626 1219.97,123.101 1220.8,123.101 1221.63,105.626 1222.46,87.9763 1223.29,105.626 1224.12,87.9763 1224.95,105.626 1225.78,123.101 1226.61,105.626 1227.44,105.626 1228.27,157.538 1229.09,123.101 1229.92,123.101 1230.75,123.101 1231.58,105.626 1232.41,191.306 1233.24,87.9763 1234.07,105.626 1234.9,123.101 1235.73,87.9763 1236.56,140.404 1237.39,140.404 1238.22,105.626 1239.05,123.101 1239.88,123.101 1240.7,87.9763 1241.53,87.9763 1242.36,87.9763 1243.19,105.626 1244.02,87.9763 1244.85,105.626 1245.68,105.626 1246.51,105.626 1247.34,140.404 1248.17,123.101 1249,123.101 1249.83,123.101 1250.66,87.9763 1251.49,123.101 1252.31,105.626 1253.14,105.626 1253.97,123.101 1254.8,87.9763 1255.63,105.626 1256.46,140.404 1257.29,105.626 1258.12,123.101 1258.95,105.626 1259.78,123.101 1260.61,123.101 1261.44,157.538 1262.27,123.101 1263.1,157.538 1263.92,123.101 1264.75,87.9763 1265.58,123.101 1266.41,105.626 1267.24,123.101 1268.07,105.626 1268.9,123.101 1269.73,87.9763 1270.56,105.626 1271.39,87.9763 1272.22,105.626 1273.05,123.101 1273.88,123.101 1274.71,105.626 1275.53,105.626 1276.36,87.9763 1277.19,140.404 1278.02,123.101 1278.85,105.626 1279.68,87.9763 1280.51,87.9763 1281.34,105.626 1282.17,157.538 1283,105.626 1283.83,123.101 1284.66,123.101 1285.49,123.101 1286.32,105.626 1287.14,105.626 1287.97,105.626 1288.8,87.9763 1289.63,105.626 1290.46,87.9763 1291.29,123.101 1292.12,105.626 1292.95,140.404 1293.78,105.626 1294.61,140.404 1295.44,123.101 1296.27,87.9763 1297.1,157.538 1297.93,123.101 1298.75,87.9763 1299.58,105.626 1300.41,105.626 1301.24,87.9763 1302.07,123.101 1302.9,140.404 1303.73,123.101 1304.56,105.626 1305.39,105.626 1306.22,105.626 1307.05,87.9763 1307.88,105.626 1308.71,105.626 1309.54,105.626 1310.36,157.538 1311.19,157.538 1312.02,157.538 1312.85,140.404 1313.68,123.101 1314.51,123.101 1315.34,123.101 1316.17,123.101 1317,140.404 1317.83,123.101 1318.66,87.9763 1319.49,87.9763 1320.32,87.9763 1321.15,87.9763 1321.97,105.626 1322.8,105.626 1323.63,105.626 1324.46,123.101 1325.29,140.404 1326.12,157.538 1326.95,123.101 1327.78,105.626 1328.61,105.626 1329.44,105.626 1330.27,123.101 1331.1,87.9763 1331.93,123.101 1332.76,140.404 1333.58,105.626 1334.41,105.626 1335.24,123.101 1336.07,87.9763 1336.9,105.626 1337.73,140.404 1338.56,105.626 1339.39,87.9763 1340.22,140.404 1341.05,123.101 1341.88,140.404 1342.71,105.626 1343.54,87.9763 1344.37,123.101 1345.19,105.626 1346.02,105.626 1346.85,105.626 1347.68,123.101 1348.51,105.626 1349.34,87.9763 1350.17,123.101 1351,87.9763 1351.83,123.101 1352.66,105.626 1353.49,140.404 1354.32,105.626 1355.15,87.9763 1355.98,105.626 1356.8,105.626 1357.63,87.9763 1358.46,123.101 1359.29,105.626 1360.12,105.626 1360.95,87.9763 1361.78,123.101 1362.61,140.404 1363.44,87.9763 1364.27,105.626 1365.1,87.9763 1365.93,140.404 1366.76,105.626 1367.59,123.101 1368.41,105.626 1369.24,105.626 1370.07,123.101 1370.9,105.626 1371.73,105.626 1372.56,87.9763 1373.39,123.101 1374.22,105.626 1375.05,87.9763 1375.88,87.9763 1376.71,105.626 1377.54,105.626 1378.37,157.538 1379.2,87.9763 1380.02,105.626 1380.85,123.101 1381.68,123.101 1382.51,105.626 1383.34,140.404 1384.17,105.626 1385,140.404 1385.83,87.9763 1386.66,105.626 1387.49,87.9763 1388.32,105.626 1389.15,140.404 1389.98,123.101 1390.81,105.626 1391.64,105.626 1392.46,105.626 1393.29,87.9763 1394.12,105.626 1394.95,87.9763 1395.78,105.626 1396.61,87.9763 1397.44,87.9763 1398.27,105.626 1399.1,87.9763 1399.93,87.9763 1400.76,87.9763 1401.59,123.101 1402.42,87.9763 1403.25,87.9763 1404.07,123.101 1404.9,87.9763 1405.73,105.626 1406.56,105.626 1407.39,140.404 1408.22,87.9763 1409.05,105.626 1409.88,123.101 1410.71,87.9763 1411.54,87.9763 1412.37,87.9763 1413.2,87.9763 1414.03,87.9763 1414.86,105.626 1415.68,123.101 1416.51,123.101 1417.34,105.626 1418.17,87.9763 1419,123.101 1419.83,157.538 1420.66,140.404 1421.49,140.404 1422.32,87.9763 1423.15,123.101 1423.98,105.626 1424.81,140.404 1425.64,105.626 1426.47,105.626 1427.29,105.626 1428.12,87.9763 1428.95,123.101 1429.78,87.9763 1430.61,87.9763 1431.44,105.626 1432.27,140.404 1433.1,87.9763 1433.93,87.9763 1434.76,105.626 1435.59,157.538 1436.42,105.626 1437.25,123.101 1438.08,123.101 1438.9,87.9763 1439.73,105.626 1440.56,105.626 1441.39,105.626 1442.22,123.101 1443.05,105.626 1443.88,87.9763 1444.71,105.626 1445.54,105.626 1446.37,105.626 1447.2,87.9763 1448.03,105.626 1448.86,123.101 1449.69,87.9763 1450.51,123.101 1451.34,123.101 1452.17,105.626 1453,87.9763 1453.83,123.101 1454.66,87.9763 1455.49,123.101 1456.32,87.9763 1457.15,105.626 1457.98,87.9763 1458.81,87.9763 1459.64,87.9763 1460.47,123.101 1461.3,87.9763 1462.12,157.538 1462.95,87.9763 1463.78,105.626 1464.61,140.404 1465.44,123.101 1466.27,87.9763 1467.1,105.626 1467.93,87.9763 1468.76,123.101 1469.59,105.626 1470.42,105.626 1471.25,87.9763 1472.08,105.626 1472.91,105.626 1473.73,105.626 1474.56,87.9763 1475.39,105.626 1476.22,87.9763 1477.05,87.9763 1477.88,87.9763 1478.71,87.9763 1479.54,105.626 1480.37,87.9763 1481.2,87.9763 1482.03,123.101 1482.86,140.404 1483.69,105.626 1484.52,105.626 1485.34,191.306 1486.17,105.626 1487,105.626 1487.83,105.626 1488.66,105.626 1489.49,87.9763 1490.32,87.9763 1491.15,87.9763 1491.98,123.101 1492.81,157.538 1493.64,123.101 1494.47,140.404 1495.3,105.626 1496.13,87.9763 1496.95,105.626 1497.78,87.9763 1498.61,87.9763 1499.44,105.626 1500.27,105.626 1501.1,87.9763 1501.93,105.626 1502.76,123.101 1503.59,105.626 1504.42,87.9763 1505.25,87.9763 1506.08,105.626 1506.91,105.626 1507.74,105.626 1508.56,87.9763 1509.39,140.404 1510.22,123.101 1511.05,105.626 1511.88,105.626 1512.71,87.9763 1513.54,105.626 1514.37,87.9763 1515.2,105.626 1516.03,123.101 1516.86,87.9763 1517.69,87.9763 1518.52,140.404 1519.35,105.626 1520.17,123.101 1521,87.9763 1521.83,87.9763 1522.66,87.9763 1523.49,123.101 1524.32,105.626 1525.15,123.101 1525.98,87.9763 1526.81,87.9763 1527.64,87.9763 1528.47,105.626 1529.3,105.626 1530.13,123.101 1530.96,87.9763 1531.78,105.626 1532.61,140.404 1533.44,105.626 1534.27,87.9763 1535.1,123.101 1535.93,87.9763 1536.76,87.9763 1537.59,140.404 1538.42,157.538 1539.25,123.101 1540.08,123.101 1540.91,87.9763 1541.74,105.626 1542.57,105.626 1543.39,105.626 1544.22,105.626 1545.05,87.9763 1545.88,87.9763 1546.71,105.626 1547.54,105.626 1548.37,87.9763 1549.2,105.626 1550.03,123.101 1550.86,87.9763 1551.69,105.626 1552.52,105.626 1553.35,157.538 1554.18,87.9763 1555,123.101 1555.83,105.626 1556.66,87.9763 1557.49,105.626 1558.32,105.626 1559.15,105.626 1559.98,105.626 1560.81,123.101 1561.64,105.626 1562.47,87.9763 1563.3,105.626 1564.13,105.626 1564.96,123.101 1565.79,123.101 1566.61,87.9763 1567.44,105.626 1568.27,87.9763 1569.1,105.626 1569.93,87.9763 1570.76,140.404 1571.59,87.9763 1572.42,87.9763 1573.25,105.626 1574.08,123.101 1574.91,123.101 1575.74,105.626 1576.57,87.9763 1577.4,87.9763 1578.23,105.626 1579.05,105.626 1579.88,123.101 1580.71,105.626 1581.54,87.9763 1582.37,123.101 1583.2,87.9763 1584.03,105.626 1584.86,87.9763 1585.69,140.404 1586.52,105.626 1587.35,140.404 1588.18,87.9763 1589.01,87.9763 1589.84,105.626 1590.66,105.626 1591.49,123.101 1592.32,87.9763 1593.15,105.626 1593.98,105.626 1594.81,87.9763 1595.64,123.101 1596.47,87.9763 1597.3,105.626 1598.13,123.101 1598.96,157.538 1599.79,123.101 1600.62,157.538 1601.45,105.626 1602.27,87.9763 1603.1,105.626 1603.93,105.626 1604.76,105.626 1605.59,105.626 1606.42,123.101 1607.25,87.9763 1608.08,87.9763 1608.91,105.626 1609.74,157.538 1610.57,123.101 1611.4,87.9763 1612.23,123.101 1613.06,87.9763 1613.88,123.101 1614.71,105.626 1615.54,105.626 1616.37,105.626 1617.2,105.626 1618.03,87.9763 1618.86,123.101 1619.69,123.101 1620.52,87.9763 1621.35,105.626 1622.18,105.626 1623.01,123.101 1623.84,123.101 1624.67,87.9763 1625.49,140.404 1626.32,105.626 1627.15,105.626 1627.98,140.404 1628.81,87.9763 1629.64,87.9763 1630.47,87.9763 1631.3,87.9763 1632.13,87.9763 1632.96,87.9763 1633.79,87.9763 1634.62,105.626 1635.45,105.626 1636.28,140.404 1637.1,105.626 1637.93,87.9763 1638.76,87.9763 1639.59,105.626 1640.42,123.101 1641.25,123.101 1642.08,105.626 1642.91,87.9763 1643.74,157.538 1644.57,123.101 1645.4,123.101 1646.23,87.9763 1647.06,105.626 1647.89,87.9763 1648.71,87.9763 1649.54,105.626 1650.37,105.626 1651.2,87.9763 1652.03,123.101 1652.86,123.101 1653.69,87.9763 1654.52,87.9763 1655.35,87.9763 1656.18,105.626 1657.01,123.101 1657.84,87.9763 1658.67,87.9763 1659.5,123.101 1660.32,87.9763 1661.15,87.9763 1661.98,87.9763 1662.81,105.626 1663.64,87.9763 1664.47,87.9763 1665.3,87.9763 1666.13,87.9763 1666.96,87.9763 1667.79,105.626 1668.62,123.101 1669.45,123.101 1670.28,123.101 1671.11,105.626 1671.93,123.101 1672.76,157.538 1673.59,105.626 1674.42,123.101 1675.25,157.538 1676.08,105.626 1676.91,87.9763 1677.74,87.9763 1678.57,105.626 1679.4,123.101 1680.23,105.626 1681.06,87.9763 1681.89,105.626 1682.72,105.626 1683.54,87.9763 1684.37,105.626 1685.2,105.626 1686.03,105.626 1686.86,105.626 1687.69,87.9763 1688.52,140.404 1689.35,123.101 1690.18,87.9763 1691.01,87.9763 1691.84,105.626 1692.67,87.9763 1693.5,105.626 1694.33,87.9763 1695.15,87.9763 1695.98,87.9763 1696.81,105.626 1697.64,87.9763 1698.47,105.626 1699.3,105.626 1700.13,105.626 1700.96,87.9763 1701.79,105.626 1702.62,87.9763 1703.45,87.9763 1704.28,87.9763 1705.11,123.101 1705.94,87.9763 1706.76,105.626 1707.59,87.9763 1708.42,87.9763 1709.25,140.404 1710.08,87.9763 1710.91,105.626 1711.74,87.9763 1712.57,87.9763 1713.4,123.101 1714.23,87.9763 1715.06,105.626 1715.89,105.626 1716.72,123.101 1717.55,157.538 1718.37,105.626 1719.2,87.9763 1720.03,105.626 1720.86,105.626 1721.69,123.101 1722.52,123.101 1723.35,87.9763 1724.18,105.626 1725.01,140.404 1725.84,87.9763 1726.67,105.626 1727.5,105.626 1728.33,87.9763 1729.16,105.626 1729.98,123.101 1730.81,140.404 1731.64,87.9763 1732.47,105.626 1733.3,123.101 1734.13,105.626 1734.96,105.626 1735.79,123.101 1736.62,140.404 1737.45,105.626 1738.28,105.626 1739.11,87.9763 1739.94,87.9763 1740.77,105.626 1741.59,123.101 1742.42,105.626 1743.25,87.9763 1744.08,123.101 1744.91,105.626 1745.74,87.9763 1746.57,87.9763 1747.4,87.9763 1748.23,105.626 1749.06,123.101 1749.89,123.101 1750.72,87.9763 1751.55,123.101 1752.38,123.101 1753.2,140.404 1754.03,87.9763 1754.86,87.9763 1755.69,105.626 1756.52,123.101 1757.35,87.9763 1758.18,87.9763 1759.01,140.404 1759.84,87.9763 1760.67,87.9763 1761.5,123.101 1762.33,87.9763 1763.16,105.626 1763.99,105.626 1764.81,87.9763 1765.64,105.626 1766.47,140.404 1767.3,87.9763 1768.13,87.9763 1768.96,105.626 1769.79,87.9763 1770.62,105.626 1771.45,123.101 1772.28,87.9763 1773.11,105.626 1773.94,140.404 1774.77,87.9763 1775.6,123.101 1776.43,123.101 1777.25,87.9763 1778.08,157.538 1778.91,123.101 1779.74,87.9763 1780.57,105.626 1781.4,87.9763 1782.23,105.626 1783.06,87.9763 1783.89,123.101 1784.72,87.9763 1785.55,87.9763 1786.38,123.101 1787.21,87.9763 1788.04,140.404 1788.86,105.626 1789.69,105.626 1790.52,140.404 1791.35,123.101 1792.18,105.626 1793.01,87.9763 1793.84,87.9763 1794.67,105.626 1795.5,105.626 1796.33,123.101 1797.16,105.626 1797.99,87.9763 1798.82,123.101 1799.65,123.101 1800.47,105.626 1801.3,105.626 1802.13,87.9763 1802.96,87.9763 1803.79,157.538 1804.62,87.9763 1805.45,123.101 1806.28,140.404 1807.11,140.404 1807.94,105.626 1808.77,105.626 1809.6,87.9763 1810.43,87.9763 1811.26,123.101 1812.08,87.9763 1812.91,140.404 1813.74,105.626 1814.57,87.9763 1815.4,105.626 1816.23,105.626 1817.06,123.101 1817.89,105.626 1818.72,87.9763 1819.55,105.626 1820.38,105.626 1821.21,87.9763 1822.04,105.626 1822.87,105.626 1823.69,123.101 1824.52,87.9763 1825.35,123.101 1826.18,140.404 1827.01,87.9763 1827.84,87.9763 1828.67,87.9763 1829.5,140.404 1830.33,87.9763 1831.16,123.101 1831.99,87.9763 1832.82,105.626 1833.65,105.626 1834.48,87.9763 1835.3,105.626 1836.13,105.626 1836.96,123.101 1837.79,87.9763 1838.62,123.101 1839.45,105.626 1840.28,123.101 1841.11,105.626 1841.94,87.9763 1842.77,87.9763 1843.6,87.9763 1844.43,87.9763 1845.26,123.101 1846.09,87.9763 1846.91,87.9763 1847.74,87.9763 1848.57,105.626 1849.4,140.404 1850.23,140.404 1851.06,140.404 1851.89,87.9763 1852.72,123.101 1853.55,87.9763 1854.38,87.9763 1855.21,105.626 1856.04,87.9763 1856.87,87.9763 1857.7,87.9763 1858.52,123.101 1859.35,105.626 1860.18,87.9763 1861.01,87.9763 1861.84,105.626 1862.67,105.626 1863.5,140.404 1864.33,105.626 1865.16,87.9763 1865.99,123.101 1866.82,105.626 1867.65,105.626 1868.48,105.626 1869.31,87.9763 1870.13,87.9763 1870.96,105.626 1871.79,87.9763 1872.62,140.404 1873.45,105.626 1874.28,123.101 1875.11,87.9763 1875.94,87.9763 1876.77,87.9763 1877.6,87.9763 1878.43,87.9763 1879.26,87.9763 1880.09,123.101 1880.92,87.9763 1881.74,87.9763 1882.57,105.626 1883.4,140.404 1884.23,123.101 1885.06,87.9763 1885.89,105.626 1886.72,87.9763 1887.55,87.9763 1888.38,87.9763 1889.21,123.101 1890.04,105.626 1890.87,105.626 1891.7,105.626 1892.53,105.626 1893.35,105.626 1894.18,87.9763 1895.01,123.101 1895.84,87.9763 1896.67,87.9763 1897.5,105.626 1898.33,105.626 1899.16,105.626 1899.99,87.9763 1900.82,157.538 1901.65,123.101 1902.48,87.9763 1903.31,87.9763 1904.14,123.101 1904.96,123.101 1905.79,87.9763 1906.62,87.9763 1907.45,87.9763 1908.28,105.626 1909.11,140.404 1909.94,87.9763 1910.77,123.101 1911.6,105.626 1912.43,87.9763 1913.26,123.101 1914.09,87.9763 1914.92,105.626 1915.75,105.626 1916.57,123.101 1917.4,123.101 1918.23,87.9763 1919.06,105.626 1919.89,105.626 1920.72,87.9763 1921.55,87.9763 1922.38,87.9763 1923.21,87.9763 1924.04,87.9763 1924.87,105.626 1925.7,123.101 1926.53,87.9763 1927.36,87.9763 1928.18,123.101 1929.01,87.9763 1929.84,105.626 1930.67,87.9763 1931.5,105.626 1932.33,105.626 1933.16,105.626 1933.99,105.626 1934.82,87.9763 1935.65,87.9763 1936.48,105.626 1937.31,87.9763 1938.14,123.101 1938.97,87.9763 1939.79,105.626 1940.62,123.101 1941.45,123.101 1942.28,105.626 1943.11,87.9763 1943.94,87.9763 1944.77,87.9763 1945.6,105.626 1946.43,105.626 1947.26,123.101 1948.09,105.626 1948.92,105.626 1949.75,105.626 1950.58,105.626 1951.4,105.626 1952.23,87.9763 1953.06,123.101 1953.89,87.9763 1954.72,105.626 1955.55,105.626 1956.38,157.538 1957.21,123.101 1958.04,123.101 1958.87,123.101 1959.7,87.9763 1960.53,87.9763 1961.36,87.9763 1962.19,87.9763 1963.02,87.9763 1963.84,140.404 1964.67,87.9763 1965.5,123.101 1966.33,87.9763 1967.16,123.101 1967.99,105.626 1968.82,105.626 1969.65,87.9763 1970.48,87.9763 1971.31,87.9763 1972.14,123.101 1972.97,87.9763 1973.8,87.9763 1974.63,87.9763 1975.45,87.9763 1976.28,87.9763 1977.11,105.626 1977.94,105.626 1978.77,87.9763 1979.6,105.626 1980.43,123.101 1981.26,105.626 1982.09,123.101 1982.92,87.9763 1983.75,105.626 1984.58,123.101 1985.41,87.9763 1986.24,87.9763 1987.06,123.101 1987.89,157.538 1988.72,87.9763 1989.55,87.9763 1990.38,87.9763 1991.21,87.9763 1992.04,105.626 1992.87,105.626 1993.7,123.101 1994.53,87.9763 1995.36,105.626 1996.19,123.101 1997.02,87.9763 1997.85,123.101 1998.67,105.626 1999.5,105.626 2000.33,105.626 2001.16,87.9763 2001.99,123.101 2002.82,87.9763 2003.65,87.9763 2004.48,123.101 2005.31,87.9763 2006.14,105.626 2006.97,87.9763 2007.8,123.101 2008.63,105.626 2009.46,87.9763 2010.28,87.9763 2011.11,123.101 2011.94,87.9763 2012.77,105.626 2013.6,87.9763 2014.43,123.101 2015.26,105.626 2016.09,123.101 2016.92,87.9763 2017.75,105.626 2018.58,87.9763 2019.41,87.9763 2020.24,87.9763 2021.07,105.626 2021.89,87.9763 2022.72,87.9763 2023.55,123.101 2024.38,87.9763 2025.21,105.626 2026.04,87.9763 2026.87,105.626 2027.7,87.9763 2028.53,105.626 2029.36,105.626 2030.19,105.626 2031.02,105.626 2031.85,123.101 2032.68,87.9763 2033.5,105.626 2034.33,87.9763 2035.16,105.626 2035.99,123.101 2036.82,105.626 2037.65,87.9763 2038.48,87.9763 2039.31,87.9763 2040.14,87.9763 2040.97,123.101 2041.8,87.9763 2042.63,87.9763 2043.46,87.9763 2044.29,87.9763 2045.11,87.9763 2045.94,87.9763 2046.77,105.626 2047.6,105.626 2048.43,87.9763 2049.26,105.626 2050.09,87.9763 2050.92,105.626 2051.75,105.626 2052.58,87.9763 2053.41,105.626 2054.24,87.9763 2055.07,123.101 2055.9,140.404 2056.72,87.9763 2057.55,87.9763 2058.38,87.9763 2059.21,87.9763 2060.04,105.626 2060.87,123.101 2061.7,140.404 2062.53,105.626 2063.36,140.404 2064.19,105.626 2065.02,105.626 2065.85,140.404 2066.68,87.9763 2067.51,87.9763 2068.33,105.626 2069.16,105.626 2069.99,140.404 2070.82,123.101 2071.65,105.626 2072.48,87.9763 2073.31,123.101 2074.14,105.626 2074.97,105.626 2075.8,157.538 2076.63,87.9763 2077.46,87.9763 2078.29,105.626 2079.12,87.9763 2079.94,123.101 2080.77,87.9763 2081.6,105.626 2082.43,140.404 2083.26,87.9763 2084.09,123.101 2084.92,87.9763 2085.75,105.626 2086.58,87.9763 2087.41,87.9763 2088.24,105.626 2089.07,87.9763 2089.9,123.101 2090.73,140.404 2091.55,140.404 2092.38,87.9763 2093.21,105.626 2094.04,105.626 2094.87,105.626 2095.7,123.101 2096.53,123.101 2097.36,123.101 2098.19,87.9763 2099.02,123.101 2099.85,123.101 2100.68,123.101 2101.51,87.9763 2102.34,140.404 2103.16,87.9763 2103.99,123.101 2104.82,87.9763 2105.65,140.404 2106.48,87.9763 2107.31,105.626 2108.14,87.9763 2108.97,123.101 2109.8,87.9763 2110.63,87.9763 2111.46,105.626 2112.29,87.9763 2113.12,105.626 2113.95,87.9763 2114.77,105.626 2115.6,87.9763 2116.43,87.9763 2117.26,123.101 2118.09,105.626 2118.92,105.626 2119.75,87.9763 2120.58,140.404 2121.41,123.101 2122.24,105.626 2123.07,123.101 2123.9,87.9763 2124.73,105.626 2125.56,87.9763 2126.38,87.9763 2127.21,157.538 2128.04,105.626 2128.87,105.626 2129.7,123.101 2130.53,87.9763 2131.36,87.9763 2132.19,87.9763 2133.02,105.626 2133.85,87.9763 2134.68,87.9763 2135.51,87.9763 2136.34,123.101 2137.17,105.626 2137.99,87.9763 2138.82,87.9763 2139.65,87.9763 2140.48,105.626 2141.31,140.404 2142.14,105.626 2142.97,105.626 2143.8,105.626 2144.63,105.626 2145.46,87.9763 2146.29,87.9763 2147.12,105.626 2147.95,87.9763 2148.78,123.101 2149.61,105.626 2150.43,123.101 2151.26,87.9763 2152.09,87.9763 2152.92,87.9763 2153.75,123.101 2154.58,105.626 2155.41,87.9763 2156.24,87.9763 2157.07,87.9763 2157.9,123.101 2158.73,105.626 2159.56,105.626 2160.39,87.9763 2161.22,123.101 2162.04,105.626 2162.87,105.626 2163.7,87.9763 2164.53,105.626 2165.36,123.101 2166.19,87.9763 2167.02,105.626 2167.85,87.9763 2168.68,87.9763 2169.51,87.9763 2170.34,105.626 2171.17,123.101 2172,105.626 2172.83,87.9763 2173.65,87.9763 2174.48,87.9763 2175.31,87.9763 2176.14,105.626 2176.97,105.626 2177.8,87.9763 2178.63,87.9763 2179.46,174.504 2180.29,87.9763 2181.12,87.9763 2181.95,87.9763 2182.78,87.9763 2183.61,87.9763 2184.44,105.626 2185.26,87.9763 2186.09,105.626 2186.92,87.9763 2187.75,105.626 2188.58,87.9763 2189.41,87.9763 2190.24,105.626 2191.07,140.404 2191.9,87.9763 2192.73,87.9763 2193.56,140.404 2194.39,87.9763 2195.22,105.626 2196.05,87.9763 2196.87,140.404 2197.7,87.9763 2198.53,105.626 2199.36,105.626 2200.19,105.626 2201.02,105.626 2201.85,87.9763 2202.68,87.9763 2203.51,87.9763 2204.34,87.9763 2205.17,87.9763 2206,87.9763 2206.83,105.626 2207.66,123.101 2208.48,105.626 2209.31,87.9763 2210.14,87.9763 2210.97,123.101 2211.8,123.101 2212.63,87.9763 2213.46,157.538 2214.29,123.101 2215.12,87.9763 2215.95,105.626 2216.78,123.101 2217.61,87.9763 2218.44,87.9763 2219.27,87.9763 2220.09,87.9763 2220.92,87.9763 2221.75,87.9763 2222.58,123.101 2223.41,123.101 2224.24,87.9763 2225.07,105.626 2225.9,87.9763 2226.73,105.626 2227.56,105.626 2228.39,87.9763 2229.22,87.9763 2230.05,123.101 2230.88,105.626 2231.7,87.9763 2232.53,105.626 2233.36,87.9763 2234.19,87.9763 2235.02,105.626 2235.85,105.626 2236.68,105.626 2237.51,87.9763 2238.34,105.626 2239.17,105.626 2240,87.9763 2240.83,105.626 2241.66,123.101 2242.49,87.9763 2243.31,87.9763 2244.14,105.626 2244.97,87.9763 2245.8,87.9763 2246.63,123.101 2247.46,140.404 2248.29,123.101 2249.12,87.9763 2249.95,105.626 2250.78,140.404 2251.61,105.626 2252.44,87.9763 2253.27,87.9763 2254.1,87.9763 2254.92,87.9763 2255.75,123.101 2256.58,87.9763 2257.41,87.9763 2258.24,87.9763 2259.07,140.404 2259.9,105.626 2260.73,123.101 2261.56,140.404 2262.39,105.626 2263.22,87.9763 2264.05,87.9763 2264.88,123.101 2265.71,87.9763 2266.53,87.9763 2267.36,105.626 2268.19,105.626 2269.02,105.626 2269.85,105.626 2270.68,123.101 2271.51,105.626 2272.34,87.9763 2273.17,87.9763 2274,87.9763 2274.83,123.101 2275.66,87.9763 2276.49,87.9763 2277.32,87.9763 2278.14,87.9763 2278.97,123.101 2279.8,87.9763 2280.63,87.9763 2281.46,87.9763 2282.29,105.626 2283.12,87.9763 2283.95,105.626 2284.78,87.9763 2285.61,87.9763 2286.44,87.9763 2287.27,87.9763 2288.1,105.626 2288.93,123.101 2289.75,105.626 2290.58,123.101 "/>
<path clip-path="url(#clip710)" d="M2007.43 1438.47 L2279.53 1438.47 L2279.53 1334.79 L2007.43 1334.79  Z" fill="#ffffff" fill-rule="evenodd" fill-opacity="1"/>
<polyline clip-path="url(#clip710)" style="stroke:#000000; stroke-linecap:round; stroke-linejoin:round; stroke-width:4; stroke-opacity:1; fill:none" points="2007.43,1438.47 2279.53,1438.47 2279.53,1334.79 2007.43,1334.79 2007.43,1438.47 "/>
<polyline clip-path="url(#clip710)" style="stroke:#009af9; stroke-linecap:round; stroke-linejoin:round; stroke-width:4; stroke-opacity:1; fill:none" points="2031.84,1386.63 2178.28,1386.63 "/>
<path clip-path="url(#clip710)" d="M2216.54 1406.32 Q2214.73 1410.95 2213.02 1412.36 Q2211.3 1413.78 2208.43 1413.78 L2205.03 1413.78 L2205.03 1410.21 L2207.53 1410.21 Q2209.29 1410.21 2210.26 1409.38 Q2211.23 1408.54 2212.42 1405.44 L2213.18 1403.5 L2202.69 1377.99 L2207.21 1377.99 L2215.31 1398.27 L2223.41 1377.99 L2227.92 1377.99 L2216.54 1406.32 Z" fill="#000000" fill-rule="nonzero" fill-opacity="1" /><path clip-path="url(#clip710)" d="M2235.22 1399.98 L2242.85 1399.98 L2242.85 1373.61 L2234.54 1375.28 L2234.54 1371.02 L2242.81 1369.35 L2247.48 1369.35 L2247.48 1399.98 L2255.12 1399.98 L2255.12 1403.91 L2235.22 1403.91 L2235.22 1399.98 Z" fill="#000000" fill-rule="nonzero" fill-opacity="1" /></svg>
