<?xml version="1.0" encoding="utf-8"?>
<svg xmlns="http://www.w3.org/2000/svg" xmlns:xlink="http://www.w3.org/1999/xlink" width="600" height="400" viewBox="0 0 2400 1600">
<defs>
  <clipPath id="clip090">
    <rect x="0" y="0" width="2400" height="1600"/>
  </clipPath>
</defs>
<path clip-path="url(#clip090)" d="M0 1600 L2400 1600 L2400 0 L0 0  Z" fill="#ffffff" fill-rule="evenodd" fill-opacity="1"/>
<defs>
  <clipPath id="clip091">
    <rect x="480" y="0" width="1681" height="1600"/>
  </clipPath>
</defs>
<path clip-path="url(#clip090)" d="M156.274 1486.45 L2352.76 1486.45 L2352.76 47.2441 L156.274 47.2441  Z" fill="#ffffff" fill-rule="evenodd" fill-opacity="1"/>
<defs>
  <clipPath id="clip092">
    <rect x="156" y="47" width="2197" height="1440"/>
  </clipPath>
</defs>
<polyline clip-path="url(#clip092)" style="stroke:#000000; stroke-linecap:round; stroke-linejoin:round; stroke-width:2; stroke-opacity:0.1; fill:none" points="218.439,1486.45 218.439,47.2441 "/>
<polyline clip-path="url(#clip092)" style="stroke:#000000; stroke-linecap:round; stroke-linejoin:round; stroke-width:2; stroke-opacity:0.1; fill:none" points="633.035,1486.45 633.035,47.2441 "/>
<polyline clip-path="url(#clip092)" style="stroke:#000000; stroke-linecap:round; stroke-linejoin:round; stroke-width:2; stroke-opacity:0.1; fill:none" points="1047.63,1486.45 1047.63,47.2441 "/>
<polyline clip-path="url(#clip092)" style="stroke:#000000; stroke-linecap:round; stroke-linejoin:round; stroke-width:2; stroke-opacity:0.1; fill:none" points="1462.23,1486.45 1462.23,47.2441 "/>
<polyline clip-path="url(#clip092)" style="stroke:#000000; stroke-linecap:round; stroke-linejoin:round; stroke-width:2; stroke-opacity:0.1; fill:none" points="1876.82,1486.45 1876.82,47.2441 "/>
<polyline clip-path="url(#clip092)" style="stroke:#000000; stroke-linecap:round; stroke-linejoin:round; stroke-width:2; stroke-opacity:0.1; fill:none" points="2291.42,1486.45 2291.42,47.2441 "/>
<polyline clip-path="url(#clip090)" style="stroke:#000000; stroke-linecap:round; stroke-linejoin:round; stroke-width:4; stroke-opacity:1; fill:none" points="156.274,1486.45 2352.76,1486.45 "/>
<polyline clip-path="url(#clip090)" style="stroke:#000000; stroke-linecap:round; stroke-linejoin:round; stroke-width:4; stroke-opacity:1; fill:none" points="218.439,1486.45 218.439,1467.55 "/>
<polyline clip-path="url(#clip090)" style="stroke:#000000; stroke-linecap:round; stroke-linejoin:round; stroke-width:4; stroke-opacity:1; fill:none" points="633.035,1486.45 633.035,1467.55 "/>
<polyline clip-path="url(#clip090)" style="stroke:#000000; stroke-linecap:round; stroke-linejoin:round; stroke-width:4; stroke-opacity:1; fill:none" points="1047.63,1486.45 1047.63,1467.55 "/>
<polyline clip-path="url(#clip090)" style="stroke:#000000; stroke-linecap:round; stroke-linejoin:round; stroke-width:4; stroke-opacity:1; fill:none" points="1462.23,1486.45 1462.23,1467.55 "/>
<polyline clip-path="url(#clip090)" style="stroke:#000000; stroke-linecap:round; stroke-linejoin:round; stroke-width:4; stroke-opacity:1; fill:none" points="1876.82,1486.45 1876.82,1467.55 "/>
<polyline clip-path="url(#clip090)" style="stroke:#000000; stroke-linecap:round; stroke-linejoin:round; stroke-width:4; stroke-opacity:1; fill:none" points="2291.42,1486.45 2291.42,1467.55 "/>
<path clip-path="url(#clip090)" d="M218.439 1517.37 Q214.828 1517.37 212.999 1520.93 Q211.193 1524.47 211.193 1531.6 Q211.193 1538.71 212.999 1542.27 Q214.828 1545.82 218.439 1545.82 Q222.073 1545.82 223.879 1542.27 Q225.707 1538.71 225.707 1531.6 Q225.707 1524.47 223.879 1520.93 Q222.073 1517.37 218.439 1517.37 M218.439 1513.66 Q224.249 1513.66 227.304 1518.27 Q230.383 1522.85 230.383 1531.6 Q230.383 1540.33 227.304 1544.94 Q224.249 1549.52 218.439 1549.52 Q212.629 1549.52 209.55 1544.94 Q206.494 1540.33 206.494 1531.6 Q206.494 1522.85 209.55 1518.27 Q212.629 1513.66 218.439 1513.66 Z" fill="#000000" fill-rule="nonzero" fill-opacity="1" /><path clip-path="url(#clip090)" d="M592.653 1514.29 L611.01 1514.29 L611.01 1518.22 L596.936 1518.22 L596.936 1526.7 Q597.954 1526.35 598.973 1526.19 Q599.991 1526 601.01 1526 Q606.797 1526 610.176 1529.17 Q613.556 1532.34 613.556 1537.76 Q613.556 1543.34 610.084 1546.44 Q606.612 1549.52 600.292 1549.52 Q598.116 1549.52 595.848 1549.15 Q593.602 1548.78 591.195 1548.04 L591.195 1543.34 Q593.278 1544.47 595.501 1545.03 Q597.723 1545.58 600.2 1545.58 Q604.204 1545.58 606.542 1543.48 Q608.88 1541.37 608.88 1537.76 Q608.88 1534.15 606.542 1532.04 Q604.204 1529.94 600.2 1529.94 Q598.325 1529.94 596.45 1530.35 Q594.598 1530.77 592.653 1531.65 L592.653 1514.29 Z" fill="#000000" fill-rule="nonzero" fill-opacity="1" /><path clip-path="url(#clip090)" d="M632.769 1517.37 Q629.158 1517.37 627.329 1520.93 Q625.524 1524.47 625.524 1531.6 Q625.524 1538.71 627.329 1542.27 Q629.158 1545.82 632.769 1545.82 Q636.403 1545.82 638.209 1542.27 Q640.037 1538.71 640.037 1531.6 Q640.037 1524.47 638.209 1520.93 Q636.403 1517.37 632.769 1517.37 M632.769 1513.66 Q638.579 1513.66 641.635 1518.27 Q644.713 1522.85 644.713 1531.6 Q644.713 1540.33 641.635 1544.94 Q638.579 1549.52 632.769 1549.52 Q626.959 1549.52 623.88 1544.94 Q620.825 1540.33 620.825 1531.6 Q620.825 1522.85 623.88 1518.27 Q626.959 1513.66 632.769 1513.66 Z" fill="#000000" fill-rule="nonzero" fill-opacity="1" /><path clip-path="url(#clip090)" d="M662.931 1517.37 Q659.32 1517.37 657.491 1520.93 Q655.685 1524.47 655.685 1531.6 Q655.685 1538.71 657.491 1542.27 Q659.32 1545.82 662.931 1545.82 Q666.565 1545.82 668.371 1542.27 Q670.199 1538.71 670.199 1531.6 Q670.199 1524.47 668.371 1520.93 Q666.565 1517.37 662.931 1517.37 M662.931 1513.66 Q668.741 1513.66 671.796 1518.27 Q674.875 1522.85 674.875 1531.6 Q674.875 1540.33 671.796 1544.94 Q668.741 1549.52 662.931 1549.52 Q657.121 1549.52 654.042 1544.94 Q650.986 1540.33 650.986 1531.6 Q650.986 1522.85 654.042 1518.27 Q657.121 1513.66 662.931 1513.66 Z" fill="#000000" fill-rule="nonzero" fill-opacity="1" /><path clip-path="url(#clip090)" d="M992.157 1544.91 L999.796 1544.91 L999.796 1518.55 L991.486 1520.21 L991.486 1515.95 L999.75 1514.29 L1004.43 1514.29 L1004.43 1544.91 L1012.06 1544.91 L1012.06 1548.85 L992.157 1548.85 L992.157 1544.91 Z" fill="#000000" fill-rule="nonzero" fill-opacity="1" /><path clip-path="url(#clip090)" d="M1031.51 1517.37 Q1027.9 1517.37 1026.07 1520.93 Q1024.26 1524.47 1024.26 1531.6 Q1024.26 1538.71 1026.07 1542.27 Q1027.9 1545.82 1031.51 1545.82 Q1035.14 1545.82 1036.95 1542.27 Q1038.78 1538.71 1038.78 1531.6 Q1038.78 1524.47 1036.95 1520.93 Q1035.14 1517.37 1031.51 1517.37 M1031.51 1513.66 Q1037.32 1513.66 1040.37 1518.27 Q1043.45 1522.85 1043.45 1531.6 Q1043.45 1540.33 1040.37 1544.94 Q1037.32 1549.52 1031.51 1549.52 Q1025.7 1549.52 1022.62 1544.94 Q1019.56 1540.33 1019.56 1531.6 Q1019.56 1522.85 1022.62 1518.27 Q1025.7 1513.66 1031.51 1513.66 Z" fill="#000000" fill-rule="nonzero" fill-opacity="1" /><path clip-path="url(#clip090)" d="M1061.67 1517.37 Q1058.06 1517.37 1056.23 1520.93 Q1054.43 1524.47 1054.43 1531.6 Q1054.43 1538.71 1056.23 1542.27 Q1058.06 1545.82 1061.67 1545.82 Q1065.3 1545.82 1067.11 1542.27 Q1068.94 1538.71 1068.94 1531.6 Q1068.94 1524.47 1067.11 1520.93 Q1065.3 1517.37 1061.67 1517.37 M1061.67 1513.66 Q1067.48 1513.66 1070.54 1518.27 Q1073.62 1522.85 1073.62 1531.6 Q1073.62 1540.33 1070.54 1544.94 Q1067.48 1549.52 1061.67 1549.52 Q1055.86 1549.52 1052.78 1544.94 Q1049.73 1540.33 1049.73 1531.6 Q1049.73 1522.85 1052.78 1518.27 Q1055.86 1513.66 1061.67 1513.66 Z" fill="#000000" fill-rule="nonzero" fill-opacity="1" /><path clip-path="url(#clip090)" d="M1091.83 1517.37 Q1088.22 1517.37 1086.39 1520.93 Q1084.59 1524.47 1084.59 1531.6 Q1084.59 1538.71 1086.39 1542.27 Q1088.22 1545.82 1091.83 1545.82 Q1095.47 1545.82 1097.27 1542.27 Q1099.1 1538.71 1099.1 1531.6 Q1099.1 1524.47 1097.27 1520.93 Q1095.47 1517.37 1091.83 1517.37 M1091.83 1513.66 Q1097.64 1513.66 1100.7 1518.27 Q1103.78 1522.85 1103.78 1531.6 Q1103.78 1540.33 1100.7 1544.94 Q1097.64 1549.52 1091.83 1549.52 Q1086.02 1549.52 1082.94 1544.94 Q1079.89 1540.33 1079.89 1531.6 Q1079.89 1522.85 1082.94 1518.27 Q1086.02 1513.66 1091.83 1513.66 Z" fill="#000000" fill-rule="nonzero" fill-opacity="1" /><path clip-path="url(#clip090)" d="M1406.75 1544.91 L1414.39 1544.91 L1414.39 1518.55 L1406.08 1520.21 L1406.08 1515.95 L1414.35 1514.29 L1419.02 1514.29 L1419.02 1544.91 L1426.66 1544.91 L1426.66 1548.85 L1406.75 1548.85 L1406.75 1544.91 Z" fill="#000000" fill-rule="nonzero" fill-opacity="1" /><path clip-path="url(#clip090)" d="M1436.15 1514.29 L1454.51 1514.29 L1454.51 1518.22 L1440.43 1518.22 L1440.43 1526.7 Q1441.45 1526.35 1442.47 1526.19 Q1443.49 1526 1444.51 1526 Q1450.3 1526 1453.67 1529.17 Q1457.05 1532.34 1457.05 1537.76 Q1457.05 1543.34 1453.58 1546.44 Q1450.11 1549.52 1443.79 1549.52 Q1441.61 1549.52 1439.35 1549.15 Q1437.1 1548.78 1434.69 1548.04 L1434.69 1543.34 Q1436.78 1544.47 1439 1545.03 Q1441.22 1545.58 1443.7 1545.58 Q1447.7 1545.58 1450.04 1543.48 Q1452.38 1541.37 1452.38 1537.76 Q1452.38 1534.15 1450.04 1532.04 Q1447.7 1529.94 1443.7 1529.94 Q1441.82 1529.94 1439.95 1530.35 Q1438.1 1530.77 1436.15 1531.65 L1436.15 1514.29 Z" fill="#000000" fill-rule="nonzero" fill-opacity="1" /><path clip-path="url(#clip090)" d="M1476.27 1517.37 Q1472.66 1517.37 1470.83 1520.93 Q1469.02 1524.47 1469.02 1531.6 Q1469.02 1538.71 1470.83 1542.27 Q1472.66 1545.82 1476.27 1545.82 Q1479.9 1545.82 1481.71 1542.27 Q1483.54 1538.71 1483.54 1531.6 Q1483.54 1524.47 1481.71 1520.93 Q1479.9 1517.37 1476.27 1517.37 M1476.27 1513.66 Q1482.08 1513.66 1485.13 1518.27 Q1488.21 1522.85 1488.21 1531.6 Q1488.21 1540.33 1485.13 1544.94 Q1482.08 1549.52 1476.27 1549.52 Q1470.46 1549.52 1467.38 1544.94 Q1464.32 1540.33 1464.32 1531.6 Q1464.32 1522.85 1467.38 1518.27 Q1470.46 1513.66 1476.27 1513.66 Z" fill="#000000" fill-rule="nonzero" fill-opacity="1" /><path clip-path="url(#clip090)" d="M1506.43 1517.37 Q1502.82 1517.37 1500.99 1520.93 Q1499.18 1524.47 1499.18 1531.6 Q1499.18 1538.71 1500.99 1542.27 Q1502.82 1545.82 1506.43 1545.82 Q1510.06 1545.82 1511.87 1542.27 Q1513.7 1538.71 1513.7 1531.6 Q1513.7 1524.47 1511.87 1520.93 Q1510.06 1517.37 1506.43 1517.37 M1506.43 1513.66 Q1512.24 1513.66 1515.29 1518.27 Q1518.37 1522.85 1518.37 1531.6 Q1518.37 1540.33 1515.29 1544.94 Q1512.24 1549.52 1506.43 1549.52 Q1500.62 1549.52 1497.54 1544.94 Q1494.48 1540.33 1494.48 1531.6 Q1494.48 1522.85 1497.54 1518.27 Q1500.62 1513.66 1506.43 1513.66 Z" fill="#000000" fill-rule="nonzero" fill-opacity="1" /><path clip-path="url(#clip090)" d="M1825.44 1544.91 L1841.75 1544.91 L1841.75 1548.85 L1819.81 1548.85 L1819.81 1544.91 Q1822.47 1542.16 1827.06 1537.53 Q1831.66 1532.88 1832.84 1531.53 Q1835.09 1529.01 1835.97 1527.27 Q1836.87 1525.51 1836.87 1523.82 Q1836.87 1521.07 1834.93 1519.33 Q1833 1517.6 1829.9 1517.6 Q1827.7 1517.6 1825.25 1518.36 Q1822.82 1519.13 1820.04 1520.68 L1820.04 1515.95 Q1822.87 1514.82 1825.32 1514.24 Q1827.77 1513.66 1829.81 1513.66 Q1835.18 1513.66 1838.38 1516.35 Q1841.57 1519.03 1841.57 1523.52 Q1841.57 1525.65 1840.76 1527.57 Q1839.97 1529.47 1837.87 1532.07 Q1837.29 1532.74 1834.19 1535.95 Q1831.08 1539.15 1825.44 1544.91 Z" fill="#000000" fill-rule="nonzero" fill-opacity="1" /><path clip-path="url(#clip090)" d="M1861.57 1517.37 Q1857.96 1517.37 1856.13 1520.93 Q1854.32 1524.47 1854.32 1531.6 Q1854.32 1538.71 1856.13 1542.27 Q1857.96 1545.82 1861.57 1545.82 Q1865.2 1545.82 1867.01 1542.27 Q1868.84 1538.71 1868.84 1531.6 Q1868.84 1524.47 1867.01 1520.93 Q1865.2 1517.37 1861.57 1517.37 M1861.57 1513.66 Q1867.38 1513.66 1870.44 1518.27 Q1873.51 1522.85 1873.51 1531.6 Q1873.51 1540.33 1870.44 1544.94 Q1867.38 1549.52 1861.57 1549.52 Q1855.76 1549.52 1852.68 1544.94 Q1849.63 1540.33 1849.63 1531.6 Q1849.63 1522.85 1852.68 1518.27 Q1855.76 1513.66 1861.57 1513.66 Z" fill="#000000" fill-rule="nonzero" fill-opacity="1" /><path clip-path="url(#clip090)" d="M1891.73 1517.37 Q1888.12 1517.37 1886.29 1520.93 Q1884.49 1524.47 1884.49 1531.6 Q1884.49 1538.71 1886.29 1542.27 Q1888.12 1545.82 1891.73 1545.82 Q1895.37 1545.82 1897.17 1542.27 Q1899 1538.71 1899 1531.6 Q1899 1524.47 1897.17 1520.93 Q1895.37 1517.37 1891.73 1517.37 M1891.73 1513.66 Q1897.54 1513.66 1900.6 1518.27 Q1903.68 1522.85 1903.68 1531.6 Q1903.68 1540.33 1900.6 1544.94 Q1897.54 1549.52 1891.73 1549.52 Q1885.92 1549.52 1882.84 1544.94 Q1879.79 1540.33 1879.79 1531.6 Q1879.79 1522.85 1882.84 1518.27 Q1885.92 1513.66 1891.73 1513.66 Z" fill="#000000" fill-rule="nonzero" fill-opacity="1" /><path clip-path="url(#clip090)" d="M1921.89 1517.37 Q1918.28 1517.37 1916.45 1520.93 Q1914.65 1524.47 1914.65 1531.6 Q1914.65 1538.71 1916.45 1542.27 Q1918.28 1545.82 1921.89 1545.82 Q1925.53 1545.82 1927.33 1542.27 Q1929.16 1538.71 1929.16 1531.6 Q1929.16 1524.47 1927.33 1520.93 Q1925.53 1517.37 1921.89 1517.37 M1921.89 1513.66 Q1927.7 1513.66 1930.76 1518.27 Q1933.84 1522.85 1933.84 1531.6 Q1933.84 1540.33 1930.76 1544.94 Q1927.7 1549.52 1921.89 1549.52 Q1916.08 1549.52 1913 1544.94 Q1909.95 1540.33 1909.95 1531.6 Q1909.95 1522.85 1913 1518.27 Q1916.08 1513.66 1921.89 1513.66 Z" fill="#000000" fill-rule="nonzero" fill-opacity="1" /><path clip-path="url(#clip090)" d="M2240.03 1544.91 L2256.35 1544.91 L2256.35 1548.85 L2234.41 1548.85 L2234.41 1544.91 Q2237.07 1542.16 2241.65 1537.53 Q2246.26 1532.88 2247.44 1531.53 Q2249.68 1529.01 2250.56 1527.27 Q2251.47 1525.51 2251.47 1523.82 Q2251.47 1521.07 2249.52 1519.33 Q2247.6 1517.6 2244.5 1517.6 Q2242.3 1517.6 2239.85 1518.36 Q2237.42 1519.13 2234.64 1520.68 L2234.64 1515.95 Q2237.46 1514.82 2239.92 1514.24 Q2242.37 1513.66 2244.41 1513.66 Q2249.78 1513.66 2252.97 1516.35 Q2256.17 1519.03 2256.17 1523.52 Q2256.17 1525.65 2255.36 1527.57 Q2254.57 1529.47 2252.46 1532.07 Q2251.88 1532.74 2248.78 1535.95 Q2245.68 1539.15 2240.03 1544.91 Z" fill="#000000" fill-rule="nonzero" fill-opacity="1" /><path clip-path="url(#clip090)" d="M2266.21 1514.29 L2284.57 1514.29 L2284.57 1518.22 L2270.49 1518.22 L2270.49 1526.7 Q2271.51 1526.35 2272.53 1526.19 Q2273.55 1526 2274.57 1526 Q2280.36 1526 2283.74 1529.17 Q2287.11 1532.34 2287.11 1537.76 Q2287.11 1543.34 2283.64 1546.44 Q2280.17 1549.52 2273.85 1549.52 Q2271.68 1549.52 2269.41 1549.15 Q2267.16 1548.78 2264.75 1548.04 L2264.75 1543.34 Q2266.84 1544.47 2269.06 1545.03 Q2271.28 1545.58 2273.76 1545.58 Q2277.76 1545.58 2280.1 1543.48 Q2282.44 1541.37 2282.44 1537.76 Q2282.44 1534.15 2280.1 1532.04 Q2277.76 1529.94 2273.76 1529.94 Q2271.88 1529.94 2270.01 1530.35 Q2268.16 1530.77 2266.21 1531.65 L2266.21 1514.29 Z" fill="#000000" fill-rule="nonzero" fill-opacity="1" /><path clip-path="url(#clip090)" d="M2306.33 1517.37 Q2302.72 1517.37 2300.89 1520.93 Q2299.08 1524.47 2299.08 1531.6 Q2299.08 1538.71 2300.89 1542.27 Q2302.72 1545.82 2306.33 1545.82 Q2309.96 1545.82 2311.77 1542.27 Q2313.6 1538.71 2313.6 1531.6 Q2313.6 1524.47 2311.77 1520.93 Q2309.96 1517.37 2306.33 1517.37 M2306.33 1513.66 Q2312.14 1513.66 2315.19 1518.27 Q2318.27 1522.85 2318.27 1531.6 Q2318.27 1540.33 2315.19 1544.94 Q2312.14 1549.52 2306.33 1549.52 Q2300.52 1549.52 2297.44 1544.94 Q2294.38 1540.33 2294.38 1531.6 Q2294.38 1522.85 2297.44 1518.27 Q2300.52 1513.66 2306.33 1513.66 Z" fill="#000000" fill-rule="nonzero" fill-opacity="1" /><path clip-path="url(#clip090)" d="M2336.49 1517.37 Q2332.88 1517.37 2331.05 1520.93 Q2329.24 1524.47 2329.24 1531.6 Q2329.24 1538.71 2331.05 1542.27 Q2332.88 1545.82 2336.49 1545.82 Q2340.12 1545.82 2341.93 1542.27 Q2343.76 1538.71 2343.76 1531.6 Q2343.76 1524.47 2341.93 1520.93 Q2340.12 1517.37 2336.49 1517.37 M2336.49 1513.66 Q2342.3 1513.66 2345.36 1518.27 Q2348.43 1522.85 2348.43 1531.6 Q2348.43 1540.33 2345.36 1544.94 Q2342.3 1549.52 2336.49 1549.52 Q2330.68 1549.52 2327.6 1544.94 Q2324.55 1540.33 2324.55 1531.6 Q2324.55 1522.85 2327.6 1518.27 Q2330.68 1513.66 2336.49 1513.66 Z" fill="#000000" fill-rule="nonzero" fill-opacity="1" /><polyline clip-path="url(#clip092)" style="stroke:#000000; stroke-linecap:round; stroke-linejoin:round; stroke-width:2; stroke-opacity:0.1; fill:none" points="156.274,1180.37 2352.76,1180.37 "/>
<polyline clip-path="url(#clip092)" style="stroke:#000000; stroke-linecap:round; stroke-linejoin:round; stroke-width:2; stroke-opacity:0.1; fill:none" points="156.274,845.207 2352.76,845.207 "/>
<polyline clip-path="url(#clip092)" style="stroke:#000000; stroke-linecap:round; stroke-linejoin:round; stroke-width:2; stroke-opacity:0.1; fill:none" points="156.274,510.039 2352.76,510.039 "/>
<polyline clip-path="url(#clip092)" style="stroke:#000000; stroke-linecap:round; stroke-linejoin:round; stroke-width:2; stroke-opacity:0.1; fill:none" points="156.274,174.872 2352.76,174.872 "/>
<polyline clip-path="url(#clip090)" style="stroke:#000000; stroke-linecap:round; stroke-linejoin:round; stroke-width:4; stroke-opacity:1; fill:none" points="156.274,1486.45 156.274,47.2441 "/>
<polyline clip-path="url(#clip090)" style="stroke:#000000; stroke-linecap:round; stroke-linejoin:round; stroke-width:4; stroke-opacity:1; fill:none" points="156.274,1180.37 175.172,1180.37 "/>
<polyline clip-path="url(#clip090)" style="stroke:#000000; stroke-linecap:round; stroke-linejoin:round; stroke-width:4; stroke-opacity:1; fill:none" points="156.274,845.207 175.172,845.207 "/>
<polyline clip-path="url(#clip090)" style="stroke:#000000; stroke-linecap:round; stroke-linejoin:round; stroke-width:4; stroke-opacity:1; fill:none" points="156.274,510.039 175.172,510.039 "/>
<polyline clip-path="url(#clip090)" style="stroke:#000000; stroke-linecap:round; stroke-linejoin:round; stroke-width:4; stroke-opacity:1; fill:none" points="156.274,174.872 175.172,174.872 "/>
<path clip-path="url(#clip090)" d="M62.9365 1166.17 Q59.3254 1166.17 57.4967 1169.74 Q55.6912 1173.28 55.6912 1180.41 Q55.6912 1187.52 57.4967 1191.08 Q59.3254 1194.62 62.9365 1194.62 Q66.5707 1194.62 68.3763 1191.08 Q70.205 1187.52 70.205 1180.41 Q70.205 1173.28 68.3763 1169.74 Q66.5707 1166.17 62.9365 1166.17 M62.9365 1162.47 Q68.7467 1162.47 71.8022 1167.08 Q74.8809 1171.66 74.8809 1180.41 Q74.8809 1189.14 71.8022 1193.74 Q68.7467 1198.33 62.9365 1198.33 Q57.1264 1198.33 54.0477 1193.74 Q50.9921 1189.14 50.9921 1180.41 Q50.9921 1171.66 54.0477 1167.08 Q57.1264 1162.47 62.9365 1162.47 Z" fill="#000000" fill-rule="nonzero" fill-opacity="1" /><path clip-path="url(#clip090)" d="M83.0984 1191.78 L87.9827 1191.78 L87.9827 1197.65 L83.0984 1197.65 L83.0984 1191.78 Z" fill="#000000" fill-rule="nonzero" fill-opacity="1" /><path clip-path="url(#clip090)" d="M108.746 1178.51 Q105.598 1178.51 103.746 1180.66 Q101.918 1182.82 101.918 1186.57 Q101.918 1190.29 103.746 1192.47 Q105.598 1194.62 108.746 1194.62 Q111.895 1194.62 113.723 1192.47 Q115.575 1190.29 115.575 1186.57 Q115.575 1182.82 113.723 1180.66 Q111.895 1178.51 108.746 1178.51 M118.029 1163.86 L118.029 1168.12 Q116.27 1167.28 114.464 1166.84 Q112.682 1166.4 110.922 1166.4 Q106.293 1166.4 103.839 1169.53 Q101.409 1172.65 101.061 1178.97 Q102.427 1176.96 104.487 1175.9 Q106.547 1174.81 109.024 1174.81 Q114.233 1174.81 117.242 1177.98 Q120.274 1181.13 120.274 1186.57 Q120.274 1191.89 117.126 1195.11 Q113.978 1198.33 108.746 1198.33 Q102.751 1198.33 99.5798 1193.74 Q96.4085 1189.14 96.4085 1180.41 Q96.4085 1172.21 100.297 1167.35 Q104.186 1162.47 110.737 1162.47 Q112.496 1162.47 114.279 1162.82 Q116.084 1163.16 118.029 1163.86 Z" fill="#000000" fill-rule="nonzero" fill-opacity="1" /><path clip-path="url(#clip090)" d="M64.0013 831.006 Q60.3902 831.006 58.5615 834.57 Q56.756 838.112 56.756 845.242 Q56.756 852.348 58.5615 855.913 Q60.3902 859.455 64.0013 859.455 Q67.6356 859.455 69.4411 855.913 Q71.2698 852.348 71.2698 845.242 Q71.2698 838.112 69.4411 834.57 Q67.6356 831.006 64.0013 831.006 M64.0013 827.302 Q69.8115 827.302 72.867 831.908 Q75.9457 836.492 75.9457 845.242 Q75.9457 853.968 72.867 858.575 Q69.8115 863.158 64.0013 863.158 Q58.1912 863.158 55.1125 858.575 Q52.0569 853.968 52.0569 845.242 Q52.0569 836.492 55.1125 831.908 Q58.1912 827.302 64.0013 827.302 Z" fill="#000000" fill-rule="nonzero" fill-opacity="1" /><path clip-path="url(#clip090)" d="M84.1632 856.607 L89.0475 856.607 L89.0475 862.487 L84.1632 862.487 L84.1632 856.607 Z" fill="#000000" fill-rule="nonzero" fill-opacity="1" /><path clip-path="url(#clip090)" d="M98.0521 827.927 L120.274 827.927 L120.274 829.918 L107.728 862.487 L102.844 862.487 L114.649 831.862 L98.0521 831.862 L98.0521 827.927 Z" fill="#000000" fill-rule="nonzero" fill-opacity="1" /><path clip-path="url(#clip090)" d="M63.1911 495.838 Q59.58 495.838 57.7513 499.403 Q55.9458 502.944 55.9458 510.074 Q55.9458 517.18 57.7513 520.745 Q59.58 524.287 63.1911 524.287 Q66.8254 524.287 68.6309 520.745 Q70.4596 517.18 70.4596 510.074 Q70.4596 502.944 68.6309 499.403 Q66.8254 495.838 63.1911 495.838 M63.1911 492.134 Q69.0013 492.134 72.0568 496.741 Q75.1355 501.324 75.1355 510.074 Q75.1355 518.801 72.0568 523.407 Q69.0013 527.991 63.1911 527.991 Q57.381 527.991 54.3023 523.407 Q51.2468 518.801 51.2468 510.074 Q51.2468 501.324 54.3023 496.741 Q57.381 492.134 63.1911 492.134 Z" fill="#000000" fill-rule="nonzero" fill-opacity="1" /><path clip-path="url(#clip090)" d="M83.3531 521.44 L88.2373 521.44 L88.2373 527.319 L83.3531 527.319 L83.3531 521.44 Z" fill="#000000" fill-rule="nonzero" fill-opacity="1" /><path clip-path="url(#clip090)" d="M108.422 510.907 Q105.089 510.907 103.168 512.69 Q101.27 514.472 101.27 517.597 Q101.27 520.722 103.168 522.504 Q105.089 524.287 108.422 524.287 Q111.756 524.287 113.677 522.504 Q115.598 520.699 115.598 517.597 Q115.598 514.472 113.677 512.69 Q111.779 510.907 108.422 510.907 M103.746 508.917 Q100.737 508.176 99.0474 506.116 Q97.3808 504.056 97.3808 501.093 Q97.3808 496.949 100.321 494.542 Q103.284 492.134 108.422 492.134 Q113.584 492.134 116.524 494.542 Q119.464 496.949 119.464 501.093 Q119.464 504.056 117.774 506.116 Q116.108 508.176 113.121 508.917 Q116.501 509.704 118.376 511.995 Q120.274 514.287 120.274 517.597 Q120.274 522.62 117.195 525.305 Q114.14 527.991 108.422 527.991 Q102.705 527.991 99.6261 525.305 Q96.5706 522.62 96.5706 517.597 Q96.5706 514.287 98.4687 511.995 Q100.367 509.704 103.746 508.917 M102.034 501.532 Q102.034 504.218 103.7 505.722 Q105.39 507.227 108.422 507.227 Q111.432 507.227 113.121 505.722 Q114.834 504.218 114.834 501.532 Q114.834 498.847 113.121 497.343 Q111.432 495.838 108.422 495.838 Q105.39 495.838 103.7 497.343 Q102.034 498.847 102.034 501.532 Z" fill="#000000" fill-rule="nonzero" fill-opacity="1" /><path clip-path="url(#clip090)" d="M63.2837 160.67 Q59.6726 160.67 57.8439 164.235 Q56.0384 167.777 56.0384 174.906 Q56.0384 182.013 57.8439 185.578 Q59.6726 189.119 63.2837 189.119 Q66.918 189.119 68.7235 185.578 Q70.5522 182.013 70.5522 174.906 Q70.5522 167.777 68.7235 164.235 Q66.918 160.67 63.2837 160.67 M63.2837 156.967 Q69.0939 156.967 72.1494 161.573 Q75.2281 166.156 75.2281 174.906 Q75.2281 183.633 72.1494 188.24 Q69.0939 192.823 63.2837 192.823 Q57.4736 192.823 54.3949 188.24 Q51.3393 183.633 51.3393 174.906 Q51.3393 166.156 54.3949 161.573 Q57.4736 156.967 63.2837 156.967 Z" fill="#000000" fill-rule="nonzero" fill-opacity="1" /><path clip-path="url(#clip090)" d="M83.4457 186.272 L88.3299 186.272 L88.3299 192.152 L83.4457 192.152 L83.4457 186.272 Z" fill="#000000" fill-rule="nonzero" fill-opacity="1" /><path clip-path="url(#clip090)" d="M98.6539 191.434 L98.6539 187.175 Q100.413 188.008 102.219 188.448 Q104.024 188.888 105.76 188.888 Q110.39 188.888 112.82 185.786 Q115.274 182.661 115.621 176.318 Q114.279 178.309 112.219 179.374 Q110.158 180.439 107.658 180.439 Q102.473 180.439 99.4409 177.314 Q96.4317 174.166 96.4317 168.726 Q96.4317 163.402 99.5798 160.184 Q102.728 156.967 107.959 156.967 Q113.955 156.967 117.103 161.573 Q120.274 166.156 120.274 174.906 Q120.274 183.078 116.385 187.962 Q112.52 192.823 105.969 192.823 Q104.209 192.823 102.404 192.476 Q100.598 192.128 98.6539 191.434 M107.959 176.781 Q111.108 176.781 112.936 174.629 Q114.788 172.476 114.788 168.726 Q114.788 164.999 112.936 162.846 Q111.108 160.67 107.959 160.67 Q104.811 160.67 102.959 162.846 Q101.131 164.999 101.131 168.726 Q101.131 172.476 102.959 174.629 Q104.811 176.781 107.959 176.781 Z" fill="#000000" fill-rule="nonzero" fill-opacity="1" /><polyline clip-path="url(#clip092)" style="stroke:#009af9; stroke-linecap:round; stroke-linejoin:round; stroke-width:4; stroke-opacity:1; fill:none" points="218.439,863.827 219.268,690.129 220.097,956.93 220.926,1242.73 221.756,986.33 222.585,956.93 223.414,1242.73 224.243,1308.42 225.072,1349.8 225.901,895.712 226.731,986.33 227.56,1042.87 228.389,1265.13 229.218,1096.58 230.047,956.93 230.877,926.734 231.706,1014.97 232.535,1147.68 233.364,1122.44 234.193,444.105 235.023,863.827 235.852,1172.3 236.681,956.93 237.51,926.734 238.339,863.827 239.169,895.712 239.998,926.734 240.827,797.326 241.656,831.045 242.485,1349.8 243.315,1014.97 244.144,926.734 244.973,1308.42 245.802,895.712 246.631,1147.68 247.46,831.045 248.29,690.129 249.119,1242.73 249.948,956.93 250.777,926.734 251.606,986.33 252.436,1042.87 253.265,831.045 254.094,863.827 254.923,986.33 255.752,895.712 256.582,572.883 257.411,726.912 258.24,1172.3 259.069,1147.68 259.898,762.629 260.728,831.045 261.557,1122.44 262.386,1219.81 263.215,1287.02 264.044,926.734 264.874,762.629 265.703,863.827 266.532,1147.68 267.361,1147.68 268.19,690.129 269.019,572.883 269.849,1096.58 270.678,1219.81 271.507,1122.44 272.336,926.734 273.165,1014.97 273.995,1014.97 274.824,726.912 275.653,831.045 276.482,1147.68 277.311,1096.58 278.141,1265.13 278.97,986.33 279.799,1014.97 280.628,1042.87 281.457,986.33 282.287,926.734 283.116,956.93 283.945,1070.07 284.774,831.045 285.603,690.129 286.433,1122.44 287.262,762.629 288.091,1369.82 288.92,1287.02 289.749,1014.97 290.579,1042.87 291.408,1070.07 292.237,926.734 293.066,1014.97 293.895,613.168 294.724,652.232 295.554,1042.87 296.383,1042.87 297.212,1096.58 298.041,863.827 298.87,1070.07 299.7,895.712 300.529,1070.07 301.358,1096.58 302.187,1096.58 303.016,1070.07 303.846,1070.07 304.675,1122.44 305.504,1122.44 306.333,613.168 307.162,652.232 307.992,1147.68 308.821,1172.3 309.65,1096.58 310.479,1196.33 311.308,1349.8 312.138,762.629 312.967,797.326 313.796,926.734 314.625,1219.81 315.454,1242.73 316.283,1096.58 317.113,1042.87 317.942,1122.44 318.771,1219.81 319.6,863.827 320.429,1427.34 321.259,690.129 322.088,1147.68 322.917,1070.07 323.746,1070.07 324.575,956.93 325.405,1014.97 326.234,1219.81 327.063,1042.87 327.892,1219.81 328.721,895.712 329.551,863.827 330.38,797.326 331.209,1147.68 332.038,1096.58 332.867,1122.44 333.697,1014.97 334.526,1070.07 335.355,1172.3 336.184,895.712 337.013,1042.87 337.842,831.045 338.672,1122.44 339.501,652.232 340.33,1147.68 341.159,762.629 341.988,726.912 342.818,1242.73 343.647,1070.07 344.476,572.883 345.305,1014.97 346.134,986.33 346.964,1014.97 347.793,1042.87 348.622,1265.13 349.451,1122.44 350.28,1070.07 351.11,1196.33 351.939,863.827 352.768,1014.97 353.597,1042.87 354.426,690.129 355.256,690.129 356.085,986.33 356.914,1014.97 357.743,652.232 358.572,572.883 359.402,1042.87 360.231,1014.97 361.06,831.045 361.889,1196.33 362.718,1042.87 363.547,797.326 364.377,1287.02 365.206,986.33 366.035,1070.07 366.864,831.045 367.693,1014.97 368.523,1014.97 369.352,797.326 370.181,1389.4 371.01,1147.68 371.839,895.712 372.669,1042.87 373.498,895.712 374.327,797.326 375.156,1172.3 375.985,956.93 376.815,831.045 377.644,1042.87 378.473,1096.58 379.302,926.734 380.131,762.629 380.961,986.33 381.79,762.629 382.619,690.129 383.448,1122.44 384.277,926.734 385.106,1014.97 385.936,1042.87 386.765,726.912 387.594,1014.97 388.423,1014.97 389.252,1096.58 390.082,1147.68 390.911,986.33 391.74,1042.87 392.569,986.33 393.398,1096.58 394.228,926.734 395.057,1196.33 395.886,1070.07 396.715,1242.73 397.544,895.712 398.374,1014.97 399.203,1096.58 400.032,831.045 400.861,1147.68 401.69,652.232 402.52,797.326 403.349,1096.58 404.178,1147.68 405.007,1014.97 405.836,895.712 406.665,926.734 407.495,863.827 408.324,1122.44 409.153,1147.68 409.982,863.827 410.811,956.93 411.641,1096.58 412.47,1096.58 413.299,863.827 414.128,956.93 414.957,690.129 415.787,1042.87 416.616,1172.3 417.445,863.827 418.274,1122.44 419.103,1172.3 419.933,1096.58 420.762,1070.07 421.591,986.33 422.42,1070.07 423.249,1196.33 424.079,1172.3 424.908,1219.81 425.737,1014.97 426.566,863.827 427.395,726.912 428.224,797.326 429.054,956.93 429.883,1070.07 430.712,895.712 431.541,762.629 432.37,1070.07 433.2,1369.82 434.029,1096.58 434.858,895.712 435.687,926.734 436.516,1070.07 437.346,1070.07 438.175,652.232 439.004,1122.44 439.833,1014.97 440.662,1014.97 441.492,1122.44 442.321,1122.44 443.15,1329.34 443.979,1308.42 444.808,831.045 445.638,797.326 446.467,762.629 447.296,956.93 448.125,1014.97 448.954,986.33 449.784,831.045 450.613,613.168 451.442,1242.73 452.271,1096.58 453.1,895.712 453.929,863.827 454.759,863.827 455.588,895.712 456.417,1096.58 457.246,1242.73 458.075,956.93 458.905,863.827 459.734,863.827 460.563,895.712 461.392,762.629 462.221,1070.07 463.051,1308.42 463.88,863.827 464.709,926.734 465.538,863.827 466.367,1042.87 467.197,762.629 468.026,1427.34 468.855,956.93 469.684,1329.34 470.513,1122.44 471.343,1242.73 472.172,1042.87 473.001,690.129 473.83,1014.97 474.659,1070.07 475.488,690.129 476.318,986.33 477.147,895.712 477.976,831.045 478.805,1172.3 479.634,1242.73 480.464,1014.97 481.293,613.168 482.122,831.045 482.951,926.734 483.78,1014.97 484.61,1014.97 485.439,1172.3 486.268,1042.87 487.097,1196.33 487.926,863.827 488.756,1196.33 489.585,1265.13 490.414,726.912 491.243,895.712 492.072,531.32 492.902,726.912 493.731,1147.68 494.56,986.33 495.389,1014.97 496.218,797.326 497.047,1096.58 497.877,1096.58 498.706,488.416 499.535,726.912 500.364,762.629 501.193,531.32 502.023,1070.07 502.852,986.33 503.681,690.129 504.51,613.168 505.339,1014.97 506.169,762.629 506.998,690.129 507.827,1219.81 508.656,1196.33 509.485,762.629 510.315,1070.07 511.144,1014.97 511.973,863.827 512.802,895.712 513.631,1265.13 514.461,1349.8 515.29,863.827 516.119,1070.07 516.948,986.33 517.777,1096.58 518.607,1122.44 519.436,926.734 520.265,1172.3 521.094,895.712 521.923,863.827 522.752,986.33 523.582,1096.58 524.411,1070.07 525.24,956.93 526.069,1042.87 526.898,1122.44 527.728,797.326 528.557,895.712 529.386,531.32 530.215,613.168 531.044,1147.68 531.874,956.93 532.703,1096.58 533.532,831.045 534.361,690.129 535.19,895.712 536.02,926.734 536.849,1070.07 537.678,1172.3 538.507,690.129 539.336,1147.68 540.166,1329.34 540.995,895.712 541.824,926.734 542.653,895.712 543.482,986.33 544.311,986.33 545.141,1014.97 545.97,1014.97 546.799,1014.97 547.628,1070.07 548.457,762.629 549.287,1172.3 550.116,1329.34 550.945,652.232 551.774,762.629 552.603,895.712 553.433,797.326 554.262,986.33 555.091,1014.97 555.92,926.734 556.749,831.045 557.579,1042.87 558.408,1096.58 559.237,1219.81 560.066,652.232 560.895,926.734 561.725,652.232 562.554,1096.58 563.383,895.712 564.212,956.93 565.041,762.629 565.87,986.33 566.7,831.045 567.529,1265.13 568.358,986.33 569.187,1147.68 570.016,1219.81 570.846,762.629 571.675,1122.44 572.504,1042.87 573.333,831.045 574.162,1196.33 574.992,1096.58 575.821,1122.44 576.65,895.712 577.479,1242.73 578.308,895.712 579.138,1070.07 579.967,895.712 580.796,926.734 581.625,1122.44 582.454,863.827 583.284,1196.33 584.113,690.129 584.942,1122.44 585.771,1096.58 586.6,1287.02 587.429,1014.97 588.259,726.912 589.088,726.912 589.917,1096.58 590.746,1042.87 591.575,1014.97 592.405,863.827 593.234,1042.87 594.063,726.912 594.892,1147.68 595.721,797.326 596.551,926.734 597.38,1122.44 598.209,1042.87 599.038,1042.87 599.867,986.33 600.697,1070.07 601.526,895.712 602.355,762.629 603.184,863.827 604.013,863.827 604.843,613.168 605.672,690.129 606.501,1096.58 607.33,762.629 608.159,956.93 608.989,652.232 609.818,1196.33 610.647,926.734 611.476,986.33 612.305,762.629 613.134,895.712 613.964,1329.34 614.793,926.734 615.622,926.734 616.451,956.93 617.28,1147.68 618.11,863.827 618.939,863.827 619.768,726.912 620.597,1287.02 621.426,1096.58 622.256,956.93 623.085,1014.97 623.914,926.734 624.743,956.93 625.572,1147.68 626.402,986.33 627.231,690.129 628.06,863.827 628.889,613.168 629.718,863.827 630.548,1147.68 631.377,572.883 632.206,1096.58 633.035,1219.81 633.864,986.33 634.693,797.326 635.523,895.712 636.352,956.93 637.181,1042.87 638.01,762.629 638.839,1242.73 639.669,956.93 640.498,863.827 641.327,986.33 642.156,863.827 642.985,1122.44 643.815,797.326 644.644,956.93 645.473,1172.3 646.302,1349.8 647.131,1196.33 647.961,1369.82 648.79,895.712 649.619,762.629 650.448,863.827 651.277,690.129 652.107,652.232 652.936,1042.87 653.765,1014.97 654.594,895.712 655.423,1014.97 656.252,956.93 657.082,1147.68 657.911,926.734 658.74,956.93 659.569,863.827 660.398,831.045 661.228,572.883 662.057,726.912 662.886,956.93 663.715,1042.87 664.544,762.629 665.374,831.045 666.203,488.416 667.032,1014.97 667.861,572.883 668.69,1122.44 669.52,831.045 670.349,1096.58 671.178,1172.3 672.007,1147.68 672.836,1014.97 673.666,956.93 674.495,1172.3 675.324,863.827 676.153,762.629 676.982,1242.73 677.812,797.326 678.641,1172.3 679.47,1172.3 680.299,1265.13 681.128,690.129 681.957,1122.44 682.787,895.712 683.616,797.326 684.445,1265.13 685.274,895.712 686.103,1014.97 686.933,1042.87 687.762,1042.87 688.591,926.734 689.42,1122.44 690.249,762.629 691.079,926.734 691.908,1122.44 692.737,797.326 693.566,831.045 694.395,1096.58 695.225,1408.57 696.054,726.912 696.883,986.33 697.712,690.129 698.541,1219.81 699.371,863.827 700.2,926.734 701.029,863.827 701.858,956.93 702.687,1147.68 703.516,831.045 704.346,1014.97 705.175,488.416 706.004,1014.97 706.833,926.734 707.662,831.045 708.492,797.326 709.321,926.734 710.15,1070.07 710.979,1042.87 711.808,762.629 712.638,1445.72 713.467,831.045 714.296,1014.97 715.125,895.712 715.954,726.912 716.784,956.93 717.613,398.317 718.442,956.93 719.271,690.129 720.1,895.712 720.93,726.912 721.759,1349.8 722.588,863.827 723.417,1196.33 724.246,863.827 725.075,652.232 725.905,1070.07 726.734,895.712 727.563,797.326 728.392,1265.13 729.221,1172.3 730.051,762.629 730.88,895.712 731.709,1042.87 732.538,863.827 733.367,1196.33 734.197,350.977 735.026,956.93 735.855,1096.58 736.684,863.827 737.513,831.045 738.343,986.33 739.172,863.827 740.001,895.712 740.83,1096.58 741.659,1070.07 742.489,797.326 743.318,762.629 744.147,986.33 744.976,726.912 745.805,863.827 746.634,1070.07 747.464,1219.81 748.293,1219.81 749.122,762.629 749.951,926.734 750.78,1042.87 751.61,1014.97 752.439,926.734 753.268,926.734 754.097,797.326 754.926,1122.44 755.756,1014.97 756.585,986.33 757.414,1014.97 758.243,797.326 759.072,1096.58 759.902,1070.07 760.731,797.326 761.56,652.232 762.389,1122.44 763.218,762.629 764.048,1014.97 764.877,1096.58 765.706,797.326 766.535,1329.34 767.364,1147.68 768.194,762.629 769.023,797.326 769.852,797.326 770.681,895.712 771.51,572.883 772.339,1014.97 773.169,1265.13 773.998,926.734 774.827,797.326 775.656,1014.97 776.485,1196.33 777.315,1070.07 778.144,1014.97 778.973,1042.87 779.802,1042.87 780.631,926.734 781.461,863.827 782.29,986.33 783.119,690.129 783.948,895.712 784.777,926.734 785.607,1147.68 786.436,926.734 787.265,797.326 788.094,1172.3 788.923,690.129 789.753,986.33 790.582,863.827 791.411,986.33 792.24,926.734 793.069,762.629 793.898,726.912 794.728,1122.44 795.557,1042.87 796.386,863.827 797.215,831.045 798.044,831.045 798.874,1014.97 799.703,1014.97 800.532,895.712 801.361,831.045 802.19,956.93 803.02,652.232 803.849,831.045 804.678,831.045 805.507,1196.33 806.336,762.629 807.166,1389.4 807.995,762.629 808.824,863.827 809.653,1265.13 810.482,1265.13 811.312,1122.44 812.141,956.93 812.97,895.712 813.799,1308.42 814.628,956.93 815.457,1172.3 816.287,831.045 817.116,762.629 817.945,797.326 818.774,986.33 819.603,956.93 820.433,956.93 821.262,762.629 822.091,863.827 822.92,1096.58 823.749,956.93 824.579,1122.44 825.408,1242.73 826.237,1070.07 827.066,1014.97 827.895,1070.07 828.725,613.168 829.554,1219.81 830.383,926.734 831.212,1122.44 832.041,652.232 832.871,863.827 833.7,1096.58 834.529,926.734 835.358,926.734 836.187,926.734 837.017,926.734 837.846,1172.3 838.675,726.912 839.504,926.734 840.333,956.93 841.162,1389.4 841.992,1096.58 842.821,1042.87 843.65,831.045 844.479,1172.3 845.308,1070.07 846.138,1070.07 846.967,762.629 847.796,572.883 848.625,726.912 849.454,926.734 850.284,398.317 851.113,895.712 851.942,613.168 852.771,1042.87 853.6,986.33 854.43,926.734 855.259,831.045 856.088,863.827 856.917,863.827 857.746,956.93 858.576,926.734 859.405,1070.07 860.234,956.93 861.063,986.33 861.892,926.734 862.721,831.045 863.551,1147.68 864.38,652.232 865.209,797.326 866.038,986.33 866.867,1219.81 867.697,895.712 868.526,690.129 869.355,1096.58 870.184,690.129 871.013,926.734 871.843,1122.44 872.672,956.93 873.501,1042.87 874.33,1042.87 875.159,1042.87 875.989,986.33 876.818,1096.58 877.647,926.734 878.476,1147.68 879.305,926.734 880.135,652.232 880.964,572.883 881.793,926.734 882.622,863.827 883.451,956.93 884.28,1172.3 885.11,1122.44 885.939,726.912 886.768,690.129 887.597,1172.3 888.426,797.326 889.256,797.326 890.085,986.33 890.914,690.129 891.743,895.712 892.572,398.317 893.402,1014.97 894.231,831.045 895.06,1349.8 895.889,956.93 896.718,1014.97 897.548,956.93 898.377,652.232 899.206,488.416 900.035,986.33 900.864,1308.42 901.694,1147.68 902.523,926.734 903.352,762.629 904.181,1147.68 905.01,956.93 905.839,797.326 906.669,831.045 907.498,1147.68 908.327,1172.3 909.156,1042.87 909.985,572.883 910.815,690.129 911.644,863.827 912.473,895.712 913.302,797.326 914.131,926.734 914.961,652.232 915.79,956.93 916.619,1147.68 917.448,1147.68 918.277,863.827 919.107,1042.87 919.936,797.326 920.765,762.629 921.594,531.32 922.423,926.734 923.253,956.93 924.082,1014.97 924.911,986.33 925.74,986.33 926.569,613.168 927.399,762.629 928.228,1096.58 929.057,831.045 929.886,762.629 930.715,1329.34 931.544,986.33 932.374,986.33 933.203,956.93 934.032,895.712 934.861,926.734 935.69,926.734 936.52,613.168 937.349,1242.73 938.178,956.93 939.007,444.105 939.836,831.045 940.666,956.93 941.495,1172.3 942.324,762.629 943.153,690.129 943.982,1122.44 944.812,895.712 945.641,863.827 946.47,690.129 947.299,726.912 948.128,863.827 948.958,1070.07 949.787,926.734 950.616,1122.44 951.445,956.93 952.274,652.232 953.103,863.827 953.933,613.168 954.762,831.045 955.591,1219.81 956.42,1014.97 957.249,1308.42 958.079,863.827 958.908,1172.3 959.737,986.33 960.566,831.045 961.395,797.326 962.225,895.712 963.054,831.045 963.883,762.629 964.712,831.045 965.541,895.712 966.371,986.33 967.2,831.045 968.029,863.827 968.858,895.712 969.687,863.827 970.517,1096.58 971.346,797.326 972.175,1096.58 973.004,690.129 973.833,863.827 974.662,797.326 975.492,1014.97 976.321,1196.33 977.15,1070.07 977.979,1042.87 978.808,956.93 979.638,690.129 980.467,986.33 981.296,444.105 982.125,831.045 982.954,831.045 983.784,956.93 984.613,863.827 985.442,1172.3 986.271,613.168 987.1,956.93 987.93,926.734 988.759,690.129 989.588,926.734 990.417,762.629 991.246,652.232 992.076,1147.68 992.905,863.827 993.734,1096.58 994.563,986.33 995.392,863.827 996.222,986.33 997.051,831.045 997.88,613.168 998.709,613.168 999.538,690.129 1000.37,863.827 1001.2,1147.68 1002.03,762.629 1002.86,895.712 1003.68,1014.97 1004.51,797.326 1005.34,986.33 1006.17,1042.87 1007,1096.58 1007.83,831.045 1008.66,1096.58 1009.49,895.712 1010.32,726.912 1011.15,926.734 1011.98,613.168 1012.81,895.712 1013.63,1172.3 1014.46,986.33 1015.29,1014.97 1016.12,831.045 1016.95,986.33 1017.78,895.712 1018.61,572.883 1019.44,1096.58 1020.27,726.912 1021.1,895.712 1021.93,1042.87 1022.76,726.912 1023.58,1096.58 1024.41,831.045 1025.24,926.734 1026.07,863.827 1026.9,1014.97 1027.73,863.827 1028.56,895.712 1029.39,690.129 1030.22,895.712 1031.05,762.629 1031.88,895.712 1032.71,986.33 1033.54,926.734 1034.36,1014.97 1035.19,1122.44 1036.02,652.232 1036.85,398.317 1037.68,762.629 1038.51,986.33 1039.34,690.129 1040.17,1070.07 1041,956.93 1041.83,863.827 1042.66,863.827 1043.49,1122.44 1044.31,831.045 1045.14,1096.58 1045.97,926.734 1046.8,1042.87 1047.63,831.045 1048.46,762.629 1049.29,1014.97 1050.12,1042.87 1050.95,831.045 1051.78,762.629 1052.61,956.93 1053.44,762.629 1054.26,652.232 1055.09,726.912 1055.92,572.883 1056.75,652.232 1057.58,986.33 1058.41,831.045 1059.24,762.629 1060.07,863.827 1060.9,1172.3 1061.73,831.045 1062.56,613.168 1063.39,444.105 1064.22,1265.13 1065.04,652.232 1065.87,831.045 1066.7,831.045 1067.53,762.629 1068.36,1147.68 1069.19,895.712 1070.02,863.827 1070.85,831.045 1071.68,762.629 1072.51,956.93 1073.34,831.045 1074.17,1042.87 1074.99,1172.3 1075.82,895.712 1076.65,831.045 1077.48,572.883 1078.31,895.712 1079.14,1014.97 1079.97,956.93 1080.8,690.129 1081.63,797.326 1082.46,926.734 1083.29,613.168 1084.12,1242.73 1084.95,762.629 1085.77,531.32 1086.6,613.168 1087.43,1014.97 1088.26,1172.3 1089.09,831.045 1089.92,762.629 1090.75,762.629 1091.58,488.416 1092.41,1196.33 1093.24,762.629 1094.07,762.629 1094.9,652.232 1095.72,797.326 1096.55,726.912 1097.38,831.045 1098.21,1219.81 1099.04,1042.87 1099.87,863.827 1100.7,531.32 1101.53,531.32 1102.36,797.326 1103.19,926.734 1104.02,956.93 1104.85,762.629 1105.67,1042.87 1106.5,1172.3 1107.33,831.045 1108.16,863.827 1108.99,726.912 1109.82,797.326 1110.65,1096.58 1111.48,895.712 1112.31,1070.07 1113.14,956.93 1113.97,895.712 1114.8,831.045 1115.63,926.734 1116.45,613.168 1117.28,572.883 1118.11,1042.87 1118.94,986.33 1119.77,926.734 1120.6,762.629 1121.43,986.33 1122.26,956.93 1123.09,690.129 1123.92,926.734 1124.75,1147.68 1125.58,797.326 1126.4,926.734 1127.23,895.712 1128.06,762.629 1128.89,1096.58 1129.72,831.045 1130.55,613.168 1131.38,1070.07 1132.21,863.827 1133.04,863.827 1133.87,1096.58 1134.7,895.712 1135.53,652.232 1136.36,986.33 1137.18,986.33 1138.01,762.629 1138.84,956.93 1139.67,831.045 1140.5,926.734 1141.33,1096.58 1142.16,488.416 1142.99,1042.87 1143.82,531.32 1144.65,572.883 1145.48,1122.44 1146.31,863.827 1147.13,895.712 1147.96,762.629 1148.79,797.326 1149.62,986.33 1150.45,652.232 1151.28,1042.87 1152.11,1014.97 1152.94,863.827 1153.77,986.33 1154.6,797.326 1155.43,863.827 1156.26,762.629 1157.08,863.827 1157.91,613.168 1158.74,572.883 1159.57,762.629 1160.4,762.629 1161.23,863.827 1162.06,444.105 1162.89,895.712 1163.72,652.232 1164.55,956.93 1165.38,797.326 1166.21,797.326 1167.04,350.977 1167.86,1122.44 1168.69,613.168 1169.52,762.629 1170.35,1196.33 1171.18,986.33 1172.01,690.129 1172.84,956.93 1173.67,690.129 1174.5,831.045 1175.33,726.912 1176.16,613.168 1176.99,762.629 1177.81,895.712 1178.64,726.912 1179.47,1014.97 1180.3,531.32 1181.13,1042.87 1181.96,652.232 1182.79,690.129 1183.62,1196.33 1184.45,1042.87 1185.28,690.129 1186.11,797.326 1186.94,1096.58 1187.77,956.93 1188.59,762.629 1189.42,986.33 1190.25,762.629 1191.08,1122.44 1191.91,1196.33 1192.74,726.912 1193.57,956.93 1194.4,726.912 1195.23,926.734 1196.06,488.416 1196.89,926.734 1197.72,726.912 1198.54,762.629 1199.37,863.827 1200.2,613.168 1201.03,1042.87 1201.86,1096.58 1202.69,1096.58 1203.52,1070.07 1204.35,652.232 1205.18,1042.87 1206.01,1122.44 1206.84,531.32 1207.67,863.827 1208.49,1147.68 1209.32,652.232 1210.15,488.416 1210.98,762.629 1211.81,797.326 1212.64,1096.58 1213.47,831.045 1214.3,863.827 1215.13,986.33 1215.96,1122.44 1216.79,797.326 1217.62,831.045 1218.45,726.912 1219.27,956.93 1220.1,1147.68 1220.93,726.912 1221.76,652.232 1222.59,762.629 1223.42,726.912 1224.25,831.045 1225.08,1122.44 1225.91,797.326 1226.74,895.712 1227.57,926.734 1228.4,895.712 1229.22,926.734 1230.05,797.326 1230.88,1042.87 1231.71,488.416 1232.54,762.629 1233.37,572.883 1234.2,797.326 1235.03,831.045 1235.86,1014.97 1236.69,986.33 1237.52,1014.97 1238.35,926.734 1239.17,488.416 1240,690.129 1240.83,797.326 1241.66,1070.07 1242.49,1042.87 1243.32,895.712 1244.15,956.93 1244.98,1014.97 1245.81,1014.97 1246.64,652.232 1247.47,762.629 1248.3,572.883 1249.13,726.912 1249.95,762.629 1250.78,831.045 1251.61,690.129 1252.44,797.326 1253.27,831.045 1254.1,797.326 1254.93,726.912 1255.76,652.232 1256.59,831.045 1257.42,726.912 1258.25,1014.97 1259.08,726.912 1259.9,831.045 1260.73,1172.3 1261.56,986.33 1262.39,488.416 1263.22,797.326 1264.05,831.045 1264.88,762.629 1265.71,863.827 1266.54,652.232 1267.37,652.232 1268.2,690.129 1269.03,926.734 1269.86,863.827 1270.68,797.326 1271.51,690.129 1272.34,1014.97 1273.17,895.712 1274,956.93 1274.83,572.883 1275.66,1122.44 1276.49,726.912 1277.32,986.33 1278.15,986.33 1278.98,1014.97 1279.81,831.045 1280.63,797.326 1281.46,926.734 1282.29,726.912 1283.12,762.629 1283.95,652.232 1284.78,986.33 1285.61,926.734 1286.44,652.232 1287.27,762.629 1288.1,1070.07 1288.93,797.326 1289.76,726.912 1290.58,986.33 1291.41,652.232 1292.24,1014.97 1293.07,572.883 1293.9,926.734 1294.73,726.912 1295.56,690.129 1296.39,956.93 1297.22,1042.87 1298.05,831.045 1298.88,762.629 1299.71,690.129 1300.54,652.232 1301.36,926.734 1302.19,613.168 1303.02,986.33 1303.85,863.827 1304.68,1042.87 1305.51,895.712 1306.34,863.827 1307.17,726.912 1308,986.33 1308.83,398.317 1309.66,690.129 1310.49,726.912 1311.31,797.326 1312.14,1070.07 1312.97,895.712 1313.8,1196.33 1314.63,895.712 1315.46,956.93 1316.29,488.416 1317.12,1014.97 1317.95,398.317 1318.78,926.734 1319.61,762.629 1320.44,572.883 1321.27,690.129 1322.09,986.33 1322.92,956.93 1323.75,956.93 1324.58,690.129 1325.41,1096.58 1326.24,986.33 1327.07,1042.87 1327.9,797.326 1328.73,797.326 1329.56,797.326 1330.39,690.129 1331.22,1014.97 1332.04,726.912 1332.87,926.734 1333.7,926.734 1334.53,762.629 1335.36,797.326 1336.19,926.734 1337.02,762.629 1337.85,652.232 1338.68,895.712 1339.51,1014.97 1340.34,926.734 1341.17,613.168 1341.99,690.129 1342.82,1308.42 1343.65,956.93 1344.48,1042.87 1345.31,1219.81 1346.14,831.045 1346.97,350.977 1347.8,797.326 1348.63,652.232 1349.46,690.129 1350.29,652.232 1351.12,926.734 1351.95,1096.58 1352.77,726.912 1353.6,956.93 1354.43,1042.87 1355.26,863.827 1356.09,926.734 1356.92,613.168 1357.75,726.912 1358.58,572.883 1359.41,652.232 1360.24,726.912 1361.07,831.045 1361.9,831.045 1362.72,1042.87 1363.55,986.33 1364.38,488.416 1365.21,956.93 1366.04,831.045 1366.87,797.326 1367.7,762.629 1368.53,762.629 1369.36,572.883 1370.19,986.33 1371.02,797.326 1371.85,488.416 1372.67,531.32 1373.5,797.326 1374.33,444.105 1375.16,1122.44 1375.99,1014.97 1376.82,613.168 1377.65,956.93 1378.48,652.232 1379.31,690.129 1380.14,1014.97 1380.97,762.629 1381.8,1122.44 1382.63,762.629 1383.45,726.912 1384.28,350.977 1385.11,956.93 1385.94,762.629 1386.77,690.129 1387.6,895.712 1388.43,762.629 1389.26,652.232 1390.09,690.129 1390.92,1172.3 1391.75,488.416 1392.58,762.629 1393.4,726.912 1394.23,895.712 1395.06,652.232 1395.89,726.912 1396.72,652.232 1397.55,895.712 1398.38,1096.58 1399.21,831.045 1400.04,652.232 1400.87,926.734 1401.7,762.629 1402.53,1147.68 1403.36,986.33 1404.18,613.168 1405.01,762.629 1405.84,652.232 1406.67,863.827 1407.5,572.883 1408.33,690.129 1409.16,762.629 1409.99,444.105 1410.82,797.326 1411.65,726.912 1412.48,986.33 1413.31,690.129 1414.13,831.045 1414.96,863.827 1415.79,986.33 1416.62,762.629 1417.45,652.232 1418.28,1042.87 1419.11,926.734 1419.94,762.629 1420.77,762.629 1421.6,1014.97 1422.43,926.734 1423.26,831.045 1424.08,863.827 1424.91,797.326 1425.74,690.129 1426.57,797.326 1427.4,895.712 1428.23,895.712 1429.06,831.045 1429.89,926.734 1430.72,613.168 1431.55,726.912 1432.38,895.712 1433.21,726.912 1434.04,797.326 1434.86,1014.97 1435.69,895.712 1436.52,690.129 1437.35,726.912 1438.18,762.629 1439.01,986.33 1439.84,690.129 1440.67,895.712 1441.5,956.93 1442.33,726.912 1443.16,572.883 1443.99,956.93 1444.81,831.045 1445.64,690.129 1446.47,926.734 1447.3,831.045 1448.13,797.326 1448.96,797.326 1449.79,797.326 1450.62,863.827 1451.45,726.912 1452.28,652.232 1453.11,488.416 1453.94,613.168 1454.77,690.129 1455.59,350.977 1456.42,762.629 1457.25,926.734 1458.08,986.33 1458.91,895.712 1459.74,613.168 1460.57,831.045 1461.4,762.629 1462.23,797.326 1463.06,444.105 1463.89,863.827 1464.72,488.416 1465.54,797.326 1466.37,831.045 1467.2,831.045 1468.03,986.33 1468.86,613.168 1469.69,690.129 1470.52,690.129 1471.35,895.712 1472.18,726.912 1473.01,831.045 1473.84,726.912 1474.67,762.629 1475.49,831.045 1476.32,926.734 1477.15,831.045 1477.98,531.32 1478.81,531.32 1479.64,652.232 1480.47,1096.58 1481.3,926.734 1482.13,652.232 1482.96,926.734 1483.79,986.33 1484.62,726.912 1485.45,863.827 1486.27,762.629 1487.1,895.712 1487.93,986.33 1488.76,444.105 1489.59,895.712 1490.42,1096.58 1491.25,690.129 1492.08,926.734 1492.91,895.712 1493.74,926.734 1494.57,444.105 1495.4,797.326 1496.22,926.734 1497.05,797.326 1497.88,926.734 1498.71,652.232 1499.54,797.326 1500.37,1014.97 1501.2,1070.07 1502.03,1287.02 1502.86,895.712 1503.69,572.883 1504.52,1122.44 1505.35,613.168 1506.18,831.045 1507,690.129 1507.83,726.912 1508.66,690.129 1509.49,652.232 1510.32,762.629 1511.15,1096.58 1511.98,652.232 1512.81,895.712 1513.64,613.168 1514.47,762.629 1515.3,797.326 1516.13,762.629 1516.95,613.168 1517.78,726.912 1518.61,690.129 1519.44,797.326 1520.27,863.827 1521.1,726.912 1521.93,1042.87 1522.76,613.168 1523.59,762.629 1524.42,1070.07 1525.25,572.883 1526.08,956.93 1526.9,863.827 1527.73,926.734 1528.56,797.326 1529.39,652.232 1530.22,956.93 1531.05,726.912 1531.88,797.326 1532.71,863.827 1533.54,1014.97 1534.37,690.129 1535.2,863.827 1536.03,726.912 1536.86,762.629 1537.68,726.912 1538.51,652.232 1539.34,531.32 1540.17,895.712 1541,797.326 1541.83,797.326 1542.66,613.168 1543.49,863.827 1544.32,398.317 1545.15,895.712 1545.98,895.712 1546.81,726.912 1547.63,398.317 1548.46,1070.07 1549.29,797.326 1550.12,690.129 1550.95,572.883 1551.78,690.129 1552.61,797.326 1553.44,895.712 1554.27,831.045 1555.1,1042.87 1555.93,652.232 1556.76,956.93 1557.58,572.883 1558.41,762.629 1559.24,956.93 1560.07,613.168 1560.9,797.326 1561.73,863.827 1562.56,863.827 1563.39,613.168 1564.22,1122.44 1565.05,444.105 1565.88,797.326 1566.71,863.827 1567.54,831.045 1568.36,572.883 1569.19,831.045 1570.02,1070.07 1570.85,690.129 1571.68,926.734 1572.51,926.734 1573.34,572.883 1574.17,762.629 1575,797.326 1575.83,444.105 1576.66,797.326 1577.49,690.129 1578.31,956.93 1579.14,652.232 1579.97,762.629 1580.8,863.827 1581.63,726.912 1582.46,797.326 1583.29,690.129 1584.12,251.313 1584.95,863.827 1585.78,762.629 1586.61,895.712 1587.44,726.912 1588.27,863.827 1589.09,652.232 1589.92,762.629 1590.75,863.827 1591.58,531.32 1592.41,613.168 1593.24,444.105 1594.07,1147.68 1594.9,956.93 1595.73,613.168 1596.56,1242.73 1597.39,350.977 1598.22,652.232 1599.04,926.734 1599.87,895.712 1600.7,956.93 1601.53,1196.33 1602.36,895.712 1603.19,926.734 1604.02,895.712 1604.85,350.977 1605.68,762.629 1606.51,613.168 1607.34,652.232 1608.17,1042.87 1608.99,531.32 1609.82,1096.58 1610.65,652.232 1611.48,726.912 1612.31,1014.97 1613.14,572.883 1613.97,895.712 1614.8,613.168 1615.63,926.734 1616.46,1096.58 1617.29,895.712 1618.12,831.045 1618.95,895.712 1619.77,726.912 1620.6,895.712 1621.43,831.045 1622.26,690.129 1623.09,986.33 1623.92,652.232 1624.75,895.712 1625.58,986.33 1626.41,444.105 1627.24,572.883 1628.07,863.827 1628.9,572.883 1629.72,652.232 1630.55,690.129 1631.38,762.629 1632.21,762.629 1633.04,863.827 1633.87,726.912 1634.7,956.93 1635.53,831.045 1636.36,652.232 1637.19,831.045 1638.02,895.712 1638.85,863.827 1639.68,572.883 1640.5,986.33 1641.33,926.734 1642.16,652.232 1642.99,926.734 1643.82,863.827 1644.65,444.105 1645.48,762.629 1646.31,652.232 1647.14,926.734 1647.97,895.712 1648.8,956.93 1649.63,690.129 1650.45,797.326 1651.28,531.32 1652.11,652.232 1652.94,652.232 1653.77,613.168 1654.6,797.326 1655.43,488.416 1656.26,690.129 1657.09,398.317 1657.92,652.232 1658.75,613.168 1659.58,797.326 1660.4,762.629 1661.23,690.129 1662.06,652.232 1662.89,863.827 1663.72,762.629 1664.55,726.912 1665.38,726.912 1666.21,762.629 1667.04,863.827 1667.87,863.827 1668.7,652.232 1669.53,831.045 1670.36,863.827 1671.18,1014.97 1672.01,863.827 1672.84,572.883 1673.67,762.629 1674.5,690.129 1675.33,863.827 1676.16,444.105 1676.99,531.32 1677.82,762.629 1678.65,895.712 1679.48,1287.02 1680.31,895.712 1681.13,1096.58 1681.96,652.232 1682.79,956.93 1683.62,762.629 1684.45,797.326 1685.28,531.32 1686.11,444.105 1686.94,762.629 1687.77,762.629 1688.6,572.883 1689.43,762.629 1690.26,572.883 1691.08,726.912 1691.91,652.232 1692.74,831.045 1693.57,690.129 1694.4,831.045 1695.23,690.129 1696.06,572.883 1696.89,488.416 1697.72,690.129 1698.55,726.912 1699.38,863.827 1700.21,726.912 1701.04,690.129 1701.86,831.045 1702.69,531.32 1703.52,531.32 1704.35,572.883 1705.18,398.317 1706.01,956.93 1706.84,652.232 1707.67,926.734 1708.5,726.912 1709.33,1070.07 1710.16,762.629 1710.99,726.912 1711.81,613.168 1712.64,613.168 1713.47,726.912 1714.3,652.232 1715.13,1014.97 1715.96,652.232 1716.79,398.317 1717.62,690.129 1718.45,726.912 1719.28,797.326 1720.11,895.712 1720.94,895.712 1721.77,726.912 1722.59,726.912 1723.42,986.33 1724.25,895.712 1725.08,831.045 1725.91,531.32 1726.74,762.629 1727.57,444.105 1728.4,531.32 1729.23,652.232 1730.06,831.045 1730.89,956.93 1731.72,956.93 1732.54,572.883 1733.37,488.416 1734.2,613.168 1735.03,488.416 1735.86,797.326 1736.69,797.326 1737.52,572.883 1738.35,956.93 1739.18,797.326 1740.01,488.416 1740.84,762.629 1741.67,831.045 1742.49,613.168 1743.32,572.883 1744.15,652.232 1744.98,726.912 1745.81,895.712 1746.64,652.232 1747.47,762.629 1748.3,726.912 1749.13,251.313 1749.96,302.004 1750.79,762.629 1751.62,726.912 1752.45,762.629 1753.27,797.326 1754.1,762.629 1754.93,572.883 1755.76,444.105 1756.59,797.326 1757.42,690.129 1758.25,926.734 1759.08,488.416 1759.91,726.912 1760.74,652.232 1761.57,652.232 1762.4,797.326 1763.22,531.32 1764.05,1096.58 1764.88,831.045 1765.71,895.712 1766.54,1014.97 1767.37,797.326 1768.2,863.827 1769.03,797.326 1769.86,1042.87 1770.69,831.045 1771.52,652.232 1772.35,690.129 1773.18,690.129 1774,895.712 1774.83,652.232 1775.66,531.32 1776.49,726.912 1777.32,726.912 1778.15,1096.58 1778.98,613.168 1779.81,863.827 1780.64,831.045 1781.47,690.129 1782.3,444.105 1783.13,726.912 1783.95,444.105 1784.78,726.912 1785.61,762.629 1786.44,613.168 1787.27,762.629 1788.1,572.883 1788.93,726.912 1789.76,726.912 1790.59,926.734 1791.42,531.32 1792.25,726.912 1793.08,488.416 1793.9,652.232 1794.73,762.629 1795.56,726.912 1796.39,762.629 1797.22,531.32 1798.05,986.33 1798.88,726.912 1799.71,956.93 1800.54,726.912 1801.37,572.883 1802.2,690.129 1803.03,613.168 1803.86,797.326 1804.68,613.168 1805.51,398.317 1806.34,613.168 1807.17,350.977 1808,444.105 1808.83,652.232 1809.66,986.33 1810.49,831.045 1811.32,831.045 1812.15,531.32 1812.98,863.827 1813.81,531.32 1814.63,444.105 1815.46,831.045 1816.29,652.232 1817.12,726.912 1817.95,726.912 1818.78,690.129 1819.61,572.883 1820.44,488.416 1821.27,831.045 1822.1,531.32 1822.93,652.232 1823.76,863.827 1824.59,1014.97 1825.41,726.912 1826.24,1096.58 1827.07,1242.73 1827.9,690.129 1828.73,863.827 1829.56,926.734 1830.39,863.827 1831.22,831.045 1832.05,895.712 1832.88,1042.87 1833.71,613.168 1834.54,956.93 1835.36,572.883 1836.19,531.32 1837.02,762.629 1837.85,726.912 1838.68,690.129 1839.51,690.129 1840.34,652.232 1841.17,690.129 1842,797.326 1842.83,863.827 1843.66,488.416 1844.49,863.827 1845.31,726.912 1846.14,863.827 1846.97,1014.97 1847.8,762.629 1848.63,690.129 1849.46,690.129 1850.29,444.105 1851.12,531.32 1851.95,690.129 1852.78,1147.68 1853.61,863.827 1854.44,797.326 1855.27,863.827 1856.09,572.883 1856.92,531.32 1857.75,926.734 1858.58,895.712 1859.41,690.129 1860.24,895.712 1861.07,531.32 1861.9,797.326 1862.73,350.977 1863.56,572.883 1864.39,863.827 1865.22,863.827 1866.04,863.827 1866.87,690.129 1867.7,488.416 1868.53,690.129 1869.36,797.326 1870.19,488.416 1871.02,488.416 1871.85,572.883 1872.68,726.912 1873.51,797.326 1874.34,488.416 1875.17,726.912 1875.99,895.712 1876.82,895.712 1877.65,926.734 1878.48,531.32 1879.31,613.168 1880.14,690.129 1880.97,762.629 1881.8,726.912 1882.63,302.004 1883.46,926.734 1884.29,726.912 1885.12,762.629 1885.95,613.168 1886.77,762.629 1887.6,690.129 1888.43,613.168 1889.26,531.32 1890.09,726.912 1890.92,613.168 1891.75,726.912 1892.58,831.045 1893.41,797.326 1894.24,572.883 1895.07,350.977 1895.9,895.712 1896.72,1042.87 1897.55,762.629 1898.38,926.734 1899.21,863.827 1900.04,572.883 1900.87,926.734 1901.7,797.326 1902.53,652.232 1903.36,986.33 1904.19,831.045 1905.02,863.827 1905.85,726.912 1906.68,762.629 1907.5,531.32 1908.33,1096.58 1909.16,726.912 1909.99,762.629 1910.82,762.629 1911.65,986.33 1912.48,797.326 1913.31,831.045 1914.14,690.129 1914.97,895.712 1915.8,1096.58 1916.63,690.129 1917.45,652.232 1918.28,350.977 1919.11,831.045 1919.94,926.734 1920.77,895.712 1921.6,444.105 1922.43,488.416 1923.26,762.629 1924.09,398.317 1924.92,926.734 1925.75,613.168 1926.58,895.712 1927.4,1147.68 1928.23,652.232 1929.06,613.168 1929.89,831.045 1930.72,762.629 1931.55,762.629 1932.38,726.912 1933.21,762.629 1934.04,797.326 1934.87,926.734 1935.7,613.168 1936.53,1096.58 1937.36,895.712 1938.18,1172.3 1939.01,652.232 1939.84,926.734 1940.67,572.883 1941.5,726.912 1942.33,797.326 1943.16,652.232 1943.99,831.045 1944.82,488.416 1945.65,652.232 1946.48,726.912 1947.31,613.168 1948.13,863.827 1948.96,762.629 1949.79,726.912 1950.62,895.712 1951.45,531.32 1952.28,613.168 1953.11,690.129 1953.94,1172.3 1954.77,726.912 1955.6,652.232 1956.43,444.105 1957.26,690.129 1958.09,726.912 1958.91,652.232 1959.74,863.827 1960.57,797.326 1961.4,398.317 1962.23,895.712 1963.06,613.168 1963.89,797.326 1964.72,956.93 1965.55,690.129 1966.38,251.313 1967.21,572.883 1968.04,302.004 1968.86,1042.87 1969.69,531.32 1970.52,926.734 1971.35,926.734 1972.18,926.734 1973.01,797.326 1973.84,895.712 1974.67,690.129 1975.5,398.317 1976.33,613.168 1977.16,652.232 1977.99,572.883 1978.81,831.045 1979.64,831.045 1980.47,613.168 1981.3,531.32 1982.13,652.232 1982.96,572.883 1983.79,302.004 1984.62,797.326 1985.45,488.416 1986.28,613.168 1987.11,613.168 1987.94,488.416 1988.77,302.004 1989.59,831.045 1990.42,652.232 1991.25,613.168 1992.08,926.734 1992.91,726.912 1993.74,726.912 1994.57,613.168 1995.4,398.317 1996.23,652.232 1997.06,831.045 1997.89,690.129 1998.72,613.168 1999.54,726.912 2000.37,572.883 2001.2,762.629 2002.03,1042.87 2002.86,726.912 2003.69,863.827 2004.52,652.232 2005.35,652.232 2006.18,572.883 2007.01,488.416 2007.84,762.629 2008.67,986.33 2009.49,863.827 2010.32,726.912 2011.15,531.32 2011.98,613.168 2012.81,797.326 2013.64,1042.87 2014.47,762.629 2015.3,863.827 2016.13,726.912 2016.96,531.32 2017.79,762.629 2018.62,302.004 2019.45,726.912 2020.27,1219.81 2021.1,572.883 2021.93,444.105 2022.76,488.416 2023.59,613.168 2024.42,531.32 2025.25,1014.97 2026.08,726.912 2026.91,690.129 2027.74,572.883 2028.57,956.93 2029.4,613.168 2030.22,895.712 2031.05,572.883 2031.88,726.912 2032.71,690.129 2033.54,863.827 2034.37,690.129 2035.2,690.129 2036.03,831.045 2036.86,797.326 2037.69,572.883 2038.52,690.129 2039.35,690.129 2040.18,690.129 2041,895.712 2041.83,572.883 2042.66,797.326 2043.49,926.734 2044.32,572.883 2045.15,726.912 2045.98,762.629 2046.81,652.232 2047.64,613.168 2048.47,652.232 2049.3,613.168 2050.13,572.883 2050.95,613.168 2051.78,613.168 2052.61,488.416 2053.44,572.883 2054.27,652.232 2055.1,531.32 2055.93,863.827 2056.76,488.416 2057.59,956.93 2058.42,797.326 2059.25,302.004 2060.08,956.93 2060.9,726.912 2061.73,690.129 2062.56,762.629 2063.39,797.326 2064.22,398.317 2065.05,531.32 2065.88,762.629 2066.71,762.629 2067.54,652.232 2068.37,531.32 2069.2,863.827 2070.03,762.629 2070.86,572.883 2071.68,531.32 2072.51,895.712 2073.34,531.32 2074.17,797.326 2075,613.168 2075.83,572.883 2076.66,613.168 2077.49,863.827 2078.32,444.105 2079.15,488.416 2079.98,398.317 2080.81,690.129 2081.63,652.232 2082.46,762.629 2083.29,690.129 2084.12,926.734 2084.95,488.416 2085.78,444.105 2086.61,863.827 2087.44,444.105 2088.27,652.232 2089.1,398.317 2089.93,762.629 2090.76,690.129 2091.59,831.045 2092.41,613.168 2093.24,895.712 2094.07,398.317 2094.9,863.827 2095.73,762.629 2096.56,572.883 2097.39,572.883 2098.22,762.629 2099.05,1014.97 2099.88,444.105 2100.71,986.33 2101.54,986.33 2102.36,652.232 2103.19,690.129 2104.02,690.129 2104.85,652.232 2105.68,531.32 2106.51,572.883 2107.34,572.883 2108.17,797.326 2109,797.326 2109.83,762.629 2110.66,302.004 2111.49,531.32 2112.31,690.129 2113.14,488.416 2113.97,652.232 2114.8,398.317 2115.63,690.129 2116.46,690.129 2117.29,797.326 2118.12,531.32 2118.95,572.883 2119.78,956.93 2120.61,350.977 2121.44,726.912 2122.27,762.629 2123.09,572.883 2123.92,572.883 2124.75,488.416 2125.58,1042.87 2126.41,895.712 2127.24,797.326 2128.07,1096.58 2128.9,531.32 2129.73,613.168 2130.56,488.416 2131.39,956.93 2132.22,690.129 2133.04,613.168 2133.87,762.629 2134.7,797.326 2135.53,613.168 2136.36,572.883 2137.19,531.32 2138.02,690.129 2138.85,572.883 2139.68,572.883 2140.51,652.232 2141.34,444.105 2142.17,956.93 2143,398.317 2143.82,488.416 2144.65,797.326 2145.48,956.93 2146.31,251.313 2147.14,488.416 2147.97,652.232 2148.8,652.232 2149.63,926.734 2150.46,1014.97 2151.29,726.912 2152.12,726.912 2152.95,572.883 2153.77,652.232 2154.6,762.629 2155.43,797.326 2156.26,652.232 2157.09,572.883 2157.92,652.232 2158.75,863.827 2159.58,690.129 2160.41,1070.07 2161.24,986.33 2162.07,797.326 2162.9,488.416 2163.72,1014.97 2164.55,895.712 2165.38,531.32 2166.21,572.883 2167.04,762.629 2167.87,762.629 2168.7,531.32 2169.53,762.629 2170.36,797.326 2171.19,398.317 2172.02,652.232 2172.85,926.734 2173.68,762.629 2174.5,398.317 2175.33,488.416 2176.16,690.129 2176.99,444.105 2177.82,690.129 2178.65,797.326 2179.48,690.129 2180.31,251.313 2181.14,831.045 2181.97,613.168 2182.8,956.93 2183.63,652.232 2184.45,762.629 2185.28,613.168 2186.11,652.232 2186.94,488.416 2187.77,488.416 2188.6,444.105 2189.43,652.232 2190.26,762.629 2191.09,531.32 2191.92,531.32 2192.75,863.827 2193.58,572.883 2194.4,831.045 2195.23,1219.81 2196.06,488.416 2196.89,726.912 2197.72,690.129 2198.55,444.105 2199.38,956.93 2200.21,652.232 2201.04,895.712 2201.87,444.105 2202.7,762.629 2203.53,531.32 2204.36,652.232 2205.18,613.168 2206.01,797.326 2206.84,652.232 2207.67,652.232 2208.5,895.712 2209.33,87.9763 2210.16,613.168 2210.99,895.712 2211.82,956.93 2212.65,895.712 2213.48,863.827 2214.31,613.168 2215.13,690.129 2215.96,831.045 2216.79,863.827 2217.62,863.827 2218.45,572.883 2219.28,652.232 2220.11,613.168 2220.94,613.168 2221.77,572.883 2222.6,726.912 2223.43,613.168 2224.26,762.629 2225.09,797.326 2225.91,863.827 2226.74,690.129 2227.57,572.883 2228.4,726.912 2229.23,762.629 2230.06,726.912 2230.89,350.977 2231.72,398.317 2232.55,831.045 2233.38,444.105 2234.21,831.045 2235.04,613.168 2235.86,444.105 2236.69,444.105 2237.52,531.32 2238.35,926.734 2239.18,488.416 2240.01,762.629 2240.84,613.168 2241.67,531.32 2242.5,797.326 2243.33,488.416 2244.16,762.629 2244.99,726.912 2245.81,1014.97 2246.64,690.129 2247.47,831.045 2248.3,572.883 2249.13,831.045 2249.96,726.912 2250.79,726.912 2251.62,531.32 2252.45,398.317 2253.28,690.129 2254.11,350.977 2254.94,488.416 2255.77,690.129 2256.59,350.977 2257.42,726.912 2258.25,726.912 2259.08,531.32 2259.91,652.232 2260.74,572.883 2261.57,652.232 2262.4,652.232 2263.23,956.93 2264.06,926.734 2264.89,572.883 2265.72,690.129 2266.54,690.129 2267.37,488.416 2268.2,302.004 2269.03,488.416 2269.86,762.629 2270.69,398.317 2271.52,572.883 2272.35,895.712 2273.18,762.629 2274.01,726.912 2274.84,652.232 2275.67,572.883 2276.5,531.32 2277.32,488.416 2278.15,690.129 2278.98,652.232 2279.81,652.232 2280.64,690.129 2281.47,572.883 2282.3,726.912 2283.13,398.317 2283.96,398.317 2284.79,572.883 2285.62,613.168 2286.45,488.416 2287.27,444.105 2288.1,690.129 2288.93,652.232 2289.76,572.883 2290.59,690.129 "/>
<path clip-path="url(#clip090)" d="M229.49 198.898 L501.569 198.898 L501.569 95.2176 L229.49 95.2176  Z" fill="#ffffff" fill-rule="evenodd" fill-opacity="1"/>
<polyline clip-path="url(#clip090)" style="stroke:#000000; stroke-linecap:round; stroke-linejoin:round; stroke-width:4; stroke-opacity:1; fill:none" points="229.49,198.898 501.569,198.898 501.569,95.2176 229.49,95.2176 229.49,198.898 "/>
<polyline clip-path="url(#clip090)" style="stroke:#009af9; stroke-linecap:round; stroke-linejoin:round; stroke-width:4; stroke-opacity:1; fill:none" points="253.896,147.058 400.328,147.058 "/>
<path clip-path="url(#clip090)" d="M438.576 166.745 Q436.77 171.375 435.057 172.787 Q433.344 174.199 430.474 174.199 L427.071 174.199 L427.071 170.634 L429.571 170.634 Q431.33 170.634 432.302 169.8 Q433.275 168.967 434.455 165.865 L435.219 163.921 L424.733 138.412 L429.247 138.412 L437.349 158.689 L445.451 138.412 L449.964 138.412 L438.576 166.745 Z" fill="#000000" fill-rule="nonzero" fill-opacity="1" /><path clip-path="url(#clip090)" d="M457.256 160.402 L464.895 160.402 L464.895 134.037 L456.585 135.703 L456.585 131.444 L464.849 129.778 L469.524 129.778 L469.524 160.402 L477.163 160.402 L477.163 164.338 L457.256 164.338 L457.256 160.402 Z" fill="#000000" fill-rule="nonzero" fill-opacity="1" /></svg>
